<!-- by TradeStack --><svg viewBox="0 0 56 56" xmlns="http://www.w3.org/2000/svg"><path fill="#F0F3FA" d="M0 0h56v56H0z"/><path d="M29.43 13.4a.2.2 0 0 0-.15-.12.2.2 0 0 0-.19.07 10.95 10.95 0 0 0-2.2 3.79c-.03.08-.08.1-.15.05l-2.5-1.48c-.06-.02-.06-.06-.03-.1a9.27 9.27 0 0 1 2.58-2.52 31.1 31.1 0 0 0 2.84-2.02c.14-.12.24-.09.3.09.13.43.69 1.02 1.67 1.76a7.1 7.1 0 0 1 1.6 2.35.15.15 0 0 1-.05.12 3.33 3.33 0 0 0-1.74 1.33c-.06.1-.12.1-.19 0a17.64 17.64 0 0 1-1.8-3.32Z" fill="#EC74A8"/><path d="M26.18 21.6a.36.36 0 0 0 .12.26.33.33 0 0 0 .27.08 9.08 9.08 0 0 1 5.32.71c.18.09.22.22.12.4l-.38.66c-.07.12-.15.14-.26.06a5.26 5.26 0 0 0-5.98-.42c-.1.05-.15.02-.19-.08-.52-1.63-.3-2.96.66-3.97a8.91 8.91 0 0 0 1.32-1.59l1.42-3.12c.08-.18.2-.36.36-.56.15-.18.22-.16.2.08a10.17 10.17 0 0 1-2.53 6.22c-.3.34-.46.77-.45 1.27ZM36.7 21.8a7.76 7.76 0 0 0-3.5.05c-.12.03-.18-.02-.18-.15a6.86 6.86 0 0 0-1.14-4 .76.76 0 0 1 .06-.9c.38-.45.87-.8 1.45-1.03.25-.1.81-.18 1.7-.24a11.3 11.3 0 0 0 3.58-.85c.13-.05.17-.01.12.12a6.8 6.8 0 0 0-.48 1.7c-.05.7-.02 2.05.1 4.03.01.28-.11.64-.37 1.09-.22.37-.51.49-.88.35l-.46-.17Z" fill="#EC74A8"/><path d="M24.5 21.94a.07.07 0 0 1-.04.07.07.07 0 0 1-.09-.02c-.27-.34-.56-.6-.85-.8-.7-.48-2-.53-2.78-.68a.3.3 0 0 1-.15-.07.32.32 0 0 1-.09-.15 5.63 5.63 0 0 1 1.41-5.56c.09-.1.17-.1.25.01a5.31 5.31 0 0 0 2.78 1.9c.12.04.57.36 1.34.95.11.08.12.18.02.28-1.17 1.2-1.97 2.26-1.8 4.07ZM26.59 21.32c.2-.5.47-.97.83-1.4a9.12 9.12 0 0 0 1.97-5c.03-.32.12-.34.28-.06.73 1.3 1.56 2.87 2.5 4.73.32.63.4 1.46.27 2.5a.38.38 0 0 1-.2.28.36.36 0 0 1-.33 0 8.28 8.28 0 0 0-5.13-.8.17.17 0 0 1-.17-.07.19.19 0 0 1-.02-.18ZM18.68 18.31l.1 1.22a.5.5 0 0 1-.26.48l-.88.46a.47.47 0 0 1-.58-.11.5.5 0 0 1-.1-.19l-.5-1.68a.5.5 0 0 1 .25-.57.47.47 0 0 1 .22-.06h1.27c.12 0 .24.05.33.14.09.08.14.2.15.31ZM40.8 21.68l-2.1.03a.1.1 0 0 1-.1-.04.11.11 0 0 1-.02-.1l.32-2.03a.11.11 0 0 1 .06-.09.1.1 0 0 1 .11.01l1.07.77c.02 0 .03.02.04.04l.7 1.24a.12.12 0 0 1 .01.11.11.11 0 0 1-.1.06ZM15.87 21.85c.81.76 1.28 1.76 1.42 3 .02.14-.04.21-.17.23-1.1.19-2.05.63-2.88 1.33a.52.52 0 0 1-.29.12.5.5 0 0 1-.3-.07c-1.46-.87-1.93-2.6-2.63-4.3-.05-.15 0-.24.14-.28A8.69 8.69 0 0 0 14.58 20c.1-.1.2-.07.26.05.55 1.08.9 1.68 1.03 1.81Z" fill="#EC74A8"/><path d="M19.74 21.03c-.33.04-.38-.06-.15-.3.05-.06.19-.16.4-.3.1-.06.13-.15.1-.26-.29-1-.3-1.96-.07-2.86a.43.43 0 0 0-.19-.49.4.4 0 0 0-.17-.05l-4.39-.37c-.13 0-.2.05-.21.19a8.64 8.64 0 0 0 .5 3.78c.2.57.66 1.13 1.07 1.64l.03.04c.22.27.45.7.67 1.27l.3.8c.27.76.56 1.57.94 2.16.94 1.48 2.38 2.2 4.32 2.16.12 0 .17-.06.16-.18a4.4 4.4 0 0 1 .92-3.4l.82-1a.3.3 0 0 0 .04-.31c-.52-1.15-1.17-1.88-1.96-2.17a6.49 6.49 0 0 0-3.13-.35Zm-.54-2.98.1 1.55a.78.78 0 0 1-.4.73l-1.17.62a.73.73 0 0 1-.9-.15.76.76 0 0 1-.15-.29L16 18.36a.78.78 0 0 1 .1-.68.75.75 0 0 1 .6-.31l1.74-.03c.19 0 .37.07.51.2.14.14.23.32.24.51Zm-.8 6.44c-.27-.74-.46-1.39-.58-1.94a.33.33 0 0 1 .04-.24.32.32 0 0 1 .19-.14 6.63 6.63 0 0 1 6.11 1.25.2.2 0 0 1-.01.18.18.18 0 0 1-.07.06c-1.48.81-2.16 2.14-2.04 3.98a.23.23 0 0 1-.1.2.22.22 0 0 1-.22.02 8.12 8.12 0 0 1-2.3-1.71c-.44-.46-.78-1-1.01-1.66ZM43 23.22a11.2 11.2 0 0 1-3.4 3.96c-.34.23-.48.14-.4-.27.22-1.25.03-3-1-3.83a169.48 169.48 0 0 1-.66-.56.07.07 0 0 1 .01-.06l.03-.02a8.8 8.8 0 0 1 5.39.57.18.18 0 0 1 .02.21Z" fill="#EC74A8"/><path d="M23.3 23.6c-1.14.73-1.72 1.87-1.74 3.42 0 .12-.05.15-.15.1a5.2 5.2 0 0 1-3.1-4.27.32.32 0 0 1 .05-.22.3.3 0 0 1 .2-.12 6.3 6.3 0 0 1 4.79.9.14.14 0 0 1-.05.19Z" fill="#EC74A8"/><path fill-rule="evenodd" d="M32.27 24.48c1.38.98 1.6 3.09 1.2 4.63a.29.29 0 0 0 .03.23.27.27 0 0 0 .2.12c1.4.18 2.96.05 4-.81.95-.8 1.24-1.98.88-3.56-.27-1.18-.94-1.99-2.01-2.44-1.81-.75-3.28-.38-4.41 1.1a.52.52 0 0 0 .1.73Zm.65-.19c.16.46.4.82.7 1.1.1.07.16.16.2.27.41.97.55 1.88.4 2.74a.56.56 0 0 0 .16.49.53.53 0 0 0 .48.14c.23-.05.73-.2 1.5-.46.3-.1.57-.28.81-.52.36-.37.55-.63.59-.8.31-1.54.02-2.69-.86-3.47-1.31-1.15-2.61-1.1-3.9.17a.3.3 0 0 0-.08.34Z" fill="#EC74A8"/><path d="M28.93 23.1c.53.08.85.45.98 1.12 0 .06.04.07.09.04.5-.25.86-.31 1.11-.19.76.38.96.93.6 1.66-.07.14-.03.22.13.24 1.23.17 1.54 1.62.37 2.24a.1.1 0 0 0-.05.05v.06c0 .03 0 .05.02.06.94.95.23 2.24-1 2.04-.15-.03-.21.03-.18.2.13.8-.22 1.26-1.05 1.4-.27.04-.61-.14-1.01-.52-.04-.05-.08-.04-.1.01-.31.6-.73.86-1.26.78-.53-.08-.85-.45-.98-1.12 0-.06-.04-.07-.09-.05-.5.25-.87.32-1.12.2-.75-.39-.95-.94-.6-1.66.08-.14.04-.22-.12-.24-1.23-.18-1.54-1.62-.37-2.25a.1.1 0 0 0 .05-.04v-.07a.11.11 0 0 0-.02-.06c-.95-.95-.24-2.24 1-2.03.15.03.21-.04.18-.2-.13-.8.21-1.26 1.05-1.4.27-.04.6.13 1 .52.05.04.09.04.11-.02.31-.6.73-.86 1.26-.78Z" fill="#F2A359"/><path d="M34.1 25.14a46.1 46.1 0 0 0-.45-.62.46.46 0 0 1-.07-.38.46.46 0 0 1 .24-.3c.98-.5 1.87-.45 2.66.11.82.59 1.14 1.57.95 2.94a1.58 1.58 0 0 1-1.08 1.28l-.8.25c-.6.18-.87-.05-.83-.68a4.2 4.2 0 0 0-.62-2.6Z" fill="#EC74A8"/><path d="M27.1 29.92c1.33.7 2.92.26 3.54-.98.63-1.24.05-2.81-1.28-3.51-1.34-.7-2.92-.27-3.55.97-.62 1.24-.04 2.82 1.29 3.52Z" fill="#FCCE43"/><path d="M11.79 28.73c.36-.2.91-.42 1.3-.72 1.4-1.13 2.69-2.14 4.26-2.44.12-.02.22.03.27.15a5.8 5.8 0 0 0 2.28 2.6c.18.1.18.21-.01.3-1.67.88-2.6 1.93-2.83 3.18a.17.17 0 0 1-.08.11.16.16 0 0 1-.14.01c-1.03-.4-2-.98-2.91-1.73a9.47 9.47 0 0 0-2.18-1.33.09.09 0 0 1 0-.1l.04-.03ZM43.55 27.19l.36.24c.12.08.12.15 0 .23-.53.37-1.02.95-1.5 1.75a.34.34 0 0 1-.27.16.33.33 0 0 1-.28-.14 7.54 7.54 0 0 0-1.78-1.7c-.07-.04-.07-.1-.02-.15l1.84-1.88a.47.47 0 0 1 .4-.13.46.46 0 0 1 .34.24c.43.82.73 1.27.9 1.38ZM35.47 30.25c-.14-.11-.12-.17.06-.18a3.82 3.82 0 0 0 3.4-2.08c.04-.06.09-.1.15-.11a.23.23 0 0 1 .17.02 8.86 8.86 0 0 1 2.8 2.66c.41.54.93.99 1.57 1.36.1.07.1.12-.02.17-.68.29-1.3.59-1.88.9a6.58 6.58 0 0 1-4.37.8c-.13-.02-.2-.1-.21-.23a4.95 4.95 0 0 0-1.67-3.3ZM18.98 33a.09.09 0 0 0-.09.05.1.1 0 0 0 0 .1c.49.7.98 1.3 1.5 1.78.17.16.14.25-.1.27l-.24.03a.8.8 0 0 1-.63-.2 5.12 5.12 0 0 1-1.6-2.63.31.31 0 0 1 .07-.28.3.3 0 0 1 .25-.1c2.38.2 3.87.31 4.46.33.5.01.93-.04 1.28-.17.13-.05.15-.12.05-.23a6.54 6.54 0 0 1-1.62-2.7c-.07-.26.03-.4.3-.43l.22-.02c.25-.03.41.09.48.34a5.69 5.69 0 0 0 1.58 2.68.1.1 0 0 1 0 .07.1.1 0 0 1-.02.03l-1.25 1.29a.46.46 0 0 1-.39.15L18.98 33Z" fill="#EC74A8"/><path d="M22.04 29.44c.17.71.44 1.3.81 1.78.4.5.29.73-.35.68l-4.39-.37a.15.15 0 0 1-.07-.02.16.16 0 0 1-.06-.06.17.17 0 0 1 0-.16 3.97 3.97 0 0 1 3.72-2.42c.05 0 .1.02.15.05a.3.3 0 0 1 .1.14l.09.38Z" fill="#EC74A8"/><path fill-rule="evenodd" d="M33.17 29.98c-.79 1.33-1.98 2.67-3.63 2.74-.12 0-.17.06-.17.19.06.92.22 1.72.49 2.4.93 2.38 3.73 2.58 5.47.93 1.74-1.65 1.65-4.72-.64-5.88a7.3 7.3 0 0 0-1.25-.49.24.24 0 0 0-.27.11Zm-2.86 3.26a.62.62 0 0 0-.13.42c.06 1.56.73 2.47 2 2.71.97.19 1.79-.06 2.47-.74 1.23-1.21 1.39-2.54.47-3.98-.35-.55-.8-.91-1.35-1.08a.52.52 0 0 0-.35.02.53.53 0 0 0-.26.23c-.63 1.12-1.12 2-2.47 2.2a.6.6 0 0 0-.38.22Z" fill="#EC74A8"/><path d="M15.72 36.18c.03 0 .21-.06.53-.2.23-.09.55-.12.96-.1a.31.31 0 0 1 .22.12.33.33 0 0 1 .08.24l-.12 1.48c-.01.15-.08.2-.21.13a14.05 14.05 0 0 0-5.11-1.29c-.14 0-.17-.07-.12-.2.8-1.8 1.27-3.63 1.41-5.48.01-.14.08-.18.2-.1 1.08.72 1.54 1.16 2.76 1.58a.2.2 0 0 1 .13.14.22.22 0 0 1-.03.2 4.65 4.65 0 0 0-.95 3.3c.01.13.1.19.25.18ZM30.87 33.57a3.53 3.53 0 0 0 2.57-2.2.46.46 0 0 1 .34-.28.44.44 0 0 1 .41.15c1.2 1.37 1.37 2.6.5 3.7a2.48 2.48 0 0 1-2.07 1.04c-1.02-.02-1.69-.7-2-2.02-.05-.22.04-.35.25-.39ZM25.81 37.07l-1.62.96c-.25.14-.44.09-.57-.17a4.8 4.8 0 0 1 1.5-5.55.4.4 0 0 1 .5-.04l.11.07c.15.08.15.17.01.27-1.46.95-2.06 2.44-1.8 4.48a.2.2 0 0 0 .08.13.19.19 0 0 0 .15.03 3.56 3.56 0 0 0 1.86-1.2c.12-.14.2-.12.23.06.15.83.51 1.48 1.09 1.97.05.05.11.07.18.06.07 0 .13-.04.18-.09 1.11-1.27.84-3.4.33-4.8-.07-.2 0-.3.2-.32l.27-.02c.17-.02.29.06.34.23.6 1.86.58 4.34-.88 5.78a.37.37 0 0 1-.45.05 3.1 3.1 0 0 1-1.44-1.8c-.04-.14-.13-.18-.27-.1Z" fill="#EC74A8"/><path d="M18.75 34.9c.14.12.22.2.24.23.12.2.05.28-.22.25-.96-.12-1.86-.12-2.69 0-.13.02-.2-.04-.19-.18.05-.8.43-1.6 1.14-2.39.2-.2.33-.17.4.1.26.8.7 1.46 1.32 2ZM26.18 35.16c-.5.68-.98 1.18-1.47 1.52a.27.27 0 0 1-.4-.08.29.29 0 0 1-.04-.15c-.03-1.6.6-2.82 1.89-3.67a.4.4 0 0 1 .29-.06l.96.2c.12.03.2.1.25.22a5.26 5.26 0 0 1 .06 4 .14.14 0 0 1-.13.02 5.48 5.48 0 0 1-1.16-1.96c-.06-.16-.14-.18-.25-.04ZM23.05 34.06l-1.82 1.04a.13.13 0 0 1-.16-.02l-1.32-1.3a.14.14 0 0 1 .02-.22.13.13 0 0 1 .08-.01l3.14.25c.03 0 .06.01.08.03a.14.14 0 0 1 .04.16.14.14 0 0 1-.06.07ZM40.62 34.27l2.27 2.56a.13.13 0 0 1 0 .17.12.12 0 0 1-.06.03l-3.14.96h-.08a.12.12 0 0 1-.06-.07l-1.34-3.31a.13.13 0 0 1 .05-.16.12.12 0 0 1 .05-.01l2.2-.2a.12.12 0 0 1 .1.03ZM31.72 37.62c2.68.53 4.66-.27 5.23-3.2a.2.2 0 0 1 .14-.15.19.19 0 0 1 .2.08c.77 1.13 1.34 2.41 1.7 3.84.35 1.33.72 2.39 1.11 3.17.05.1.02.14-.09.12a26.5 26.5 0 0 1-4.73-1.1 8.77 8.77 0 0 1-3.72-2.48c-.22-.25-.17-.34.16-.28ZM21.03 35.75c.24-.03.76-.19 1.56-.49.13-.05.2 0 .19.14-.07 1.53.2 2.86.8 3.98.07.11.05.21-.04.3a6.26 6.26 0 0 1-3.8 1.63 4 4 0 0 0-1.56.42c-.13.07-.2.02-.2-.13.02-.4.14-1 .07-1.5-.18-1.3-.22-2.58-.11-3.87.01-.2.12-.3.3-.3 1-.02 1.93-.08 2.79-.18Z" fill="#EC74A8"/><path d="M33.34 42.67c-1.1.65-1.88 1.02-2.1 2.13-.04.24-.14.26-.28.06-.3-.42-.54-.71-.73-.89-.57-.54-1.46-.8-2-1.06a4.4 4.4 0 0 1-2.09-2.23.2.2 0 0 1 .07-.15 4.93 4.93 0 0 0 3.62-3.6c.04-.15.11-.16.21-.06.17.19.5.56.96 1.13a8.91 8.91 0 0 0 3.94 2.83.2.2 0 0 1 .05.17 4.89 4.89 0 0 1-1.65 1.68ZM24.94 40.56a.08.08 0 0 1-.1 0c0-.02-.01-.02-.02-.03l-.02-.05a8.07 8.07 0 0 1-.6-1.38c-.05-.2-.07-.36-.07-.48 0-.13.03-.2.1-.24l1.34-.78c.12-.07.34.06.62.35.27.3.58.74.85 1.22l.02.05a.09.09 0 0 1-.03.12l-2.09 1.22Z" fill="#EC74A8"/><path d="M24.74 41.43c.05 0 .12-.08.21-.2a.78.78 0 0 1 .23-.2l.26-.15c.13-.08.23-.05.3.1a4.93 4.93 0 0 0 1.22 1.71.1.1 0 0 1 0 .06.1.1 0 0 1-.04.04 6.96 6.96 0 0 0-2.93.77c-.12.07-.23.05-.31-.06a5.08 5.08 0 0 0-2.43-1.66.09.09 0 0 1 .03-.12c.92-.45 1.78-1 2.58-1.66.06-.05.13-.06.2-.01.1.07.18.22.23.43l.18.78c.03.15.12.21.27.17Z" fill="#EC74A8"/></svg>