<!-- by TradeStack --><svg viewBox="0 0 56 56" xmlns="http://www.w3.org/2000/svg"><path fill="#F0F3FA" d="M0 0h56v56H0z"/><path d="M33.91 15.92a13.58 13.58 0 0 0-9.82.02 5 5 0 1 1 9.82-.02Z" fill="#66C0ED"/><path d="m33.91 15.92-.04.21a5 5 0 0 1-9.78-.2 13.58 13.58 0 0 1 9.82 0Z" fill="#2B54AE"/><path d="M19.97 17.74a13.25 13.25 0 0 0-4.73 8.34 4.83 4.83 0 0 1-3.16-3.77 4.97 4.97 0 0 1 2.05-4.92 4.77 4.77 0 0 1 5.84.35ZM40.8 26.06c-.13-.56-.27-1.1-.41-1.6-.76-2.7-2.21-4.93-4.36-6.72a4.79 4.79 0 0 1 7.96 3.43 4.96 4.96 0 0 1-3.19 4.9Z" fill="#66C0ED"/><path d="M19.97 17.74a4.92 4.92 0 0 1-3.75 8.57 4.78 4.78 0 0 1-.98-.23 13.25 13.25 0 0 1 4.73-8.34ZM36.03 17.74a13.13 13.13 0 0 1 4.36 6.73c.14.5.28 1.03.41 1.6a4.73 4.73 0 0 1-3.76-.23 4.86 4.86 0 0 1-2.67-4.7 4.94 4.94 0 0 1 1.66-3.4Z" fill="#2B54AE"/><path d="M28 35a7 7 0 1 0 0-14 7 7 0 0 0 0 14ZM19.98 38.27a13.31 13.31 0 0 1-4.75-8.33 4.8 4.8 0 0 1 5.84 2.3 4.97 4.97 0 0 1-1.1 6.03Z" fill="#2B54AE"/><path d="M40.77 29.93a13.34 13.34 0 0 1-4.74 8.34 4.88 4.88 0 0 1-1.65-4.22 4.94 4.94 0 0 1 3.46-4.2 4.75 4.75 0 0 1 2.93.08Z" fill="#2B54AE"/><path d="M15.23 29.94a13.31 13.31 0 0 0 4.75 8.33 4.8 4.8 0 0 1-7.95-3.12 4.96 4.96 0 0 1 3.2-5.21ZM36.03 38.27a13.34 13.34 0 0 0 4.74-8.34 4.82 4.82 0 0 1 3.13 3.63 4.97 4.97 0 0 1-1.95 5 4.77 4.77 0 0 1-5.92-.3Z" fill="#66C0ED"/><path d="M32.93 40.1c-.5.16-1 .3-1.5.43-2.8.73-5.59.58-8.35-.46a5.03 5.03 0 0 1 9.85.03Z" fill="#2B54AE"/><path d="M23.08 40.07a13.5 13.5 0 0 0 8.36.46c.48-.13.98-.27 1.5-.43a5.04 5.04 0 0 1-4.38 5.9h-1.1a5.03 5.03 0 0 1-4.38-5.93Z" fill="#66C0ED"/></svg>