<!-- by TradeStack --><svg viewBox="0 0 56 56" xmlns="http://www.w3.org/2000/svg"><path fill="#DF1A38" d="M0 0h56v56H0z"/><path d="M49 26v1.5l3-.02v.95h-3v1.6h3V31h-4v-6h4v1h-3Zm-2-1v6h-1v-6h1Zm-4.25 5 2.25-.01V31h-4l2.25-5-2.25.01V25h4l-2.25 5ZM40 31l-4-3.75V31h-1v-6l4 3.75V25h1v6Zm-9-5v1.5h3v1h-3V30h3.02L34 31h-4v-6h4l.02 1H31Zm-3.55 5L25 28.33V31h-1v-6h1v2.69L27.45 25h1.48L26 28l3 3h-1.55ZM15.3 30h-2.5l-.47 1H11l2.26-6h1.48L17 31h-1.34l-.36-1Zm-.4-1-.9-2.6-.92 2.6h1.83ZM10 25v6H9v-3.25l-2 2.29-2-2.29V31H4v-6l3 3.5 3-3.5Zm12.31 4.41c-.35.37-.84.59-1.38.59-1.08 0-1.95-.9-1.95-2s.87-2 1.95-2c.54 0 1.03.22 1.38.59l.69-.71a2.89 2.89 0 0 0-2.07-.88A2.97 2.97 0 0 0 18 28c0 1.66 1.31 3 2.93 3 .8 0 1.54-.34 2.07-.88l-.69-.7Z" fill="#fff"/></svg>