<!-- by TradeStack --><svg viewBox="0 0 56 56" xmlns="http://www.w3.org/2000/svg"><path fill="#0C2237" d="M0 0h56v56H0z"/><path d="M12 35v-4h.02c.43.58 1.28 1 2.46 1 1.6 0 3.52-1.1 3.52-4 0-2.93-1.95-4-3.54-4-1.19 0-2.04.65-2.44 1.28H12V24h-2v11h2Zm2-4.61c-1.2 0-2-.86-2-2.4 0-1.6.83-2.4 2-2.4 1.1 0 2 .73 2 2.4 0 1.64-.88 2.4-2 2.4ZM40 35v-4h.02c.43.58 1.28 1 2.46 1 1.6 0 3.52-1.1 3.52-4 0-2.93-1.95-4-3.54-4-1.19 0-2.04.65-2.44 1.28H40V24h-2v11h2Zm2-4.61c-1.2 0-2-.86-2-2.4 0-1.6.83-2.4 2-2.4 1.1 0 2 .73 2 2.4 0 1.64-.88 2.4-2 2.4ZM22.64 32c2.55 0 3.22-2.07 3.22-2.07l-1.46-.75s-.33 1.25-1.68 1.25c-1.06 0-1.72-.84-1.78-1.93H26v-.73c0-2.42-1.16-3.77-3.42-3.77-1.97 0-3.58 1.46-3.58 4.03 0 2.74 1.75 3.97 3.64 3.97ZM21 27c.1-1.04.57-1.58 1.57-1.58 1.04 0 1.37.49 1.43 1.58h-3ZM28.96 32l1.53-2.7h.02l1.52 2.7H34l-2.44-4.14L33.85 24H31.9l-1.36 2.48h-.03L29.14 24h-2.01l2.34 3.93L27 32h1.96ZM36 23c.58 0 1-.44 1-1 0-.55-.42-1-1-1-.58 0-1 .45-1 1 0 .56.42 1 1 1ZM37 24v8h-2v-8h2ZM4 22h3v2H4v-2ZM4 32h4v2H4v-2Z" fill="#F0F3FA"/><path d="M8 22H6v12h2V22ZM52 22h-3v2h3v-2ZM52 32h-4v2h4v-2Z" fill="#F0F3FA"/><path d="M48 22h2v12h-2V22Z" fill="#F0F3FA"/></svg>