<!-- by TradeStack --><svg viewBox="0 0 56 56" xmlns="http://www.w3.org/2000/svg"><path fill="#F0F3FA" d="M0 0h56v56H0z"/><path d="M40.01 25.58a.86.86 0 0 0-.27-.44.76.76 0 0 0-.48-.14c-.2 0-.35.05-.47.14a.86.86 0 0 0-.28.44c-.06.2-.1.45-.13.77a17.26 17.26 0 0 0 0 2.3c.02.32.07.58.13.78.07.2.16.34.28.43.12.1.28.14.47.14.2 0 .36-.05.48-.14.12-.09.2-.23.27-.43.07-.2.11-.46.13-.77a17.56 17.56 0 0 0 0-2.31 3.33 3.33 0 0 0-.13-.77Z" fill="#1D1D1B"/><path d="M48.47 27c-.83 0-1.47-.69-1.47-1.51 0-.82.64-1.5 1.47-1.5.84 0 1.53.68 1.53 1.5S49.3 27 48.47 27Zm-2.14 1.82c0 1.3-.9 2.18-2.15 2.18-1.33 0-2.18-.9-2.18-2.18V24h1.32v4.82c0 .53.24 1.18.86 1.18.64 0 .82-.53.82-1.18V24h1.33v4.82Zm-4.93.1c-.14 1.26-.92 2.08-2.16 2.08-1.25 0-2.03-.82-2.17-2.09a12.3 12.3 0 0 1 0-2.72c.13-1.2.95-2.19 2.22-2.19 1.28 0 1.98.98 2.12 2.2a12.43 12.43 0 0 1 0 2.71ZM35.33 31H34v-2.77L32.3 24h1.49l.86 2.8h.02l.92-2.8h1.44l-1.7 4.23V31Zm-3.83 1H51v-9H31.5v9Z" fill="#1D1D1B"/><path d="m48.92 25.41-.32-.32.46-.46a1.06 1.06 0 0 0-1.61.88c0 .57.47 1.03 1.05 1.03.58 0 1.05-.46 1.05-1.03 0-.2-.06-.4-.16-.55l-.47.45ZM18.23 25c-.59 0-.82.52-.88 1.43a15.98 15.98 0 0 0 0 2.22c.06.92.3 1.35.88 1.35.59 0 .81-.44.88-1.35a16.2 16.2 0 0 0 0-2.22c-.07-.9-.3-1.43-.88-1.43ZM14 28.07a.77.77 0 0 0-.32-.16 1.7 1.7 0 0 0-.4-.05h-.57v1.96h.51c.32 0 .58-.07.78-.21.2-.14.3-.4.3-.77 0-.2-.03-.35-.09-.47a.79.79 0 0 0-.2-.3Zm-.1-1.3c.16-.14.24-.36.24-.67 0-.3-.07-.52-.23-.65-.15-.13-.4-.2-.72-.2h-.48v1.7h.38c.36 0 .63-.06.8-.19Zm-5.55-1.35-.63 2.92H9l-.64-2.92h-.02Z" fill="#1D1D1B"/><path d="M29.76 25h-1.43v5.75H27V25h-1.44v-1h4.2v1Zm-4.44 3.82c0 1.6-1.14 2.18-2.23 2.18-1.26 0-2.09-.84-2.09-2.18V24h1.32v4.82c0 .53.24 1.18.86 1.18.64 0 .82-.53.82-1.18V24h1.32v4.82Zm-4.92.08c-.14 1.22-.9 2.1-2.17 2.1s-2.03-.88-2.17-2.1c-.05-.45-.06-.9-.06-1.36 0-.5.02-.95.06-1.36.14-1.26.92-2.18 2.17-2.18 1.28 0 2.03.97 2.17 2.18a12.43 12.43 0 0 1 0 2.72ZM13.62 31h-2.24v-7h2.22c1.04 0 1.87.79 1.87 1.94 0 .7-.33 1.23-1 1.42v.01c.74.1 1.2.64 1.2 1.51 0 1.18-.87 2.12-2.05 2.12Zm-4.08 0-.3-1.6H7.49l-.3 1.6H5.8l1.74-7h1.64l1.74 7H9.54ZM5 32h26v-9H5v9Z" fill="#1D1D1B"/></svg>