<!-- by TradeStack --><svg viewBox="0 0 56 56" xmlns="http://www.w3.org/2000/svg"><path fill="url(#amwpz55d1)" d="M0 0h56v56H0z"/><path fill="#F30000" d="M31 17h1.7v1.7H31z"/><path fill-rule="evenodd" d="M48 18h-1.7v8H48v-8Zm-19.5 2.35c-.06-.61.21-1.53 1.75-1.32v1.14c-.39-.1-1.12-.09-1.14.6.3.3.48.65.48 1.04 0 1-1.18 1.8-2.64 1.8-.32 0-.63-.04-.92-.1-.16.1-.28.23-.28.4 0 .45.76.48 1.58.52l.23.01.15.01c.93.05 2.44.12 2.44 1.5 0 1.46-1.28 2.05-3.14 2.05s-3.08-.32-3.08-1.33c0-.8.62-1.14.93-1.2-.22-.1-.66-.41-.66-.98 0-.7.55-1.13 1-1.33-.54-.33-.89-.82-.89-1.35 0-1 1.18-1.81 2.64-1.81.58 0 1.12.13 1.56.35Zm-.53 1.46c0 .51-.46.93-1.02.93s-1.02-.42-1.02-.93c0-.52.46-.93 1.02-.93s1.02.41 1.02.93Zm-2.3 4.11h2.3c.2 0 .62.1.62.55 0 .44-1.18.51-1.76.49-.75-.01-2.03-.24-1.17-1.04ZM17.28 20H19v6h-1.7v-.9c-.33.43-.9.9-1.72.9-1.19 0-1.55-.8-1.58-1.2V20h1.67v4.1c0 .3.25.53.55.53h.09c.57 0 .88-.55.98-.9V20ZM8 24.3l1.45-.28c.03.26.3.78 1.19.78 1.1 0 1.77-.87.05-1.03-1.7-.17-2.43-.83-2.43-2.04 0-1.2.89-1.73 2.43-1.73 1.55 0 2.17.82 2.32 1.56l-1.23.3a1.2 1.2 0 0 0-1.14-.87c-.88 0-.88.43-.88.56 0 .12.05.44.88.5.82.05 2.57.18 2.57 1.97 0 1.8-2.03 1.98-2.7 1.98A2.5 2.5 0 0 1 8 24.3Zm15.04-2.59v-1.67c-.35-.1-1.07-.05-1.41.82V20H20v6h1.63v-3.37c.17-.5.58-1.03 1.4-.92ZM31 20h1.7v6H31v-6Zm6.71 2.26h1.65c-.24-1.3-1.1-2.26-2.65-2.26-1.67 0-2.71 1.34-2.71 3s.93 3 2.71 3c1.44 0 2.4-.98 2.65-2.3H37.7c-.13.61-.45 1.04-.9 1.04-.63 0-.97-.78-.97-1.74s.38-1.74.97-1.74c.48 0 .77.41.9 1Zm2.23-.51 1.62.23c.02-.3.24-.9.98-.9s.9.54.88.82v.37c-1.2-.06-3.59.31-3.59 2.25.05.5.46 1.48 1.73 1.48 1 0 1.66-.62 1.86-.93V26h1.77l-.02-.06a2.17 2.17 0 0 1-.17-.68v-3.69c-.02-.52-.48-1.57-2.38-1.57s-2.58 1.16-2.68 1.75Zm3.44 1.37v.69c-.03.39-.3 1.16-1.15 1.16-1.06 0-.77-1.32 0-1.54a28.9 28.9 0 0 1 1.15-.3ZM22 29h-1v1h1v-1Zm0 2h-1v6h1v-6ZM8.93 35.15l-.93.23C8.32 36.8 9.9 37 10.48 37c.57 0 2.52-.3 2.52-1.69 0-1.4-1.83-1.83-2.74-1.97-.73-.12-.97-.56-1-.77.01-.28.27-.84 1.22-.84.94 0 1.27.61 1.32.92l.96-.22c-.35-1.04-1.41-1.43-2.28-1.43-.88 0-2.22.43-2.22 1.57 0 1.14 1.06 1.54 2.22 1.8 1.15.24 1.45.64 1.45.94 0 .3-.3.95-1.45.95-.92 0-1.42-.74-1.55-1.11Zm10.22-.1C18.9 36.2 18.2 37 16.62 37 14.85 37 14 35.66 14 34s.87-3 2.62-3c1.46 0 2.23.8 2.5 1.91l-1.07.2c-.17-.83-.6-1.41-1.43-1.41-1 0-1.5 1.03-1.5 2.3 0 1.27.48 2.3 1.5 2.3.87 0 1.28-.56 1.43-1.37l1.1.13ZM39.12 37c1.58 0 2.3-.8 2.53-1.94l-1.1-.13c-.15.8-.56 1.37-1.43 1.37-1.02 0-1.5-1.03-1.5-2.3 0-1.27.5-2.3 1.5-2.3.83 0 1.26.58 1.43 1.41l1.08-.2c-.28-1.12-1.05-1.91-2.5-1.91-1.76 0-2.63 1.34-2.63 3s.85 3 2.62 3ZM28.9 35.02c-.24 1.16-.98 1.98-2.65 1.98-1.86 0-2.75-1.34-2.75-3s.91-3 2.75-3c2 0 2.75 1.34 2.75 3h-4.33c0 1.27.51 2.3 1.58 2.3.92 0 1.35-.58 1.5-1.4l1.15.12Zm-2.65-3.32c.93 0 1.39.68 1.53 1.62h-3.05c.16-.94.66-1.62 1.52-1.62ZM45 37c1.5 0 2.18-.8 2.4-1.94l-1.04-.13c-.15.8-.53 1.37-1.36 1.37-.97 0-1.43-1.03-1.43-2.3H47.5c0-1.66-.69-3-2.5-3-1.67 0-2.5 1.34-2.5 3s.8 3 2.5 3Zm1.4-3.68c-.14-.94-.55-1.62-1.4-1.62-.78 0-1.24.68-1.38 1.62h2.77ZM30 37v-6h1v.95c.3-.43.93-.95 1.98-.95 1.65 0 2.02.97 2.02 1.68V37h-1v-4.32c0-.32-.3-.97-1.23-.97-1.1 0-1.6 1.13-1.77 1.66V37h-1Z" fill="#fff"/><defs><linearGradient id="amwpz55d1" x1="10.42" y1="9.71" x2="68.15" y2="76.02" gradientUnits="userSpaceOnUse"><stop stop-color="#1A1E21"/><stop offset="1" stop-color="#06060A"/></linearGradient></defs></svg>