<!-- by TradeStack --><svg viewBox="0 0 56 56" xmlns="http://www.w3.org/2000/svg"><path fill="#F0F3FA" d="M0 0h56v56H0z"/><path d="M27.83 41H18.8l1.52-2.9 7.51 2.9Z" fill="#EED749"/><path d="m21.33 34.22 6.4 6.78-7.43-2.89 1.03-3.89Z" fill="#D3930D"/><path d="m27.7 41-6.33-6.73 1.02-3.95L27.71 41Z" fill="#D9A712"/><path d="M28 41h-.3l-5.3-10.6.94-2.98L28 32v9Z" fill="#D3930D"/><path d="M28 27.43V32l-4.6-4.51 1.47-5.7L28 27.42Z" fill="#C06E02"/><path d="M28 11v16.46l-3.1-5.6L28 11Z" fill="#DAAD14"/><path d="M24.93 17.81 28 11l-3.07 10.86-3.62-6.66 3.62 2.61Z" fill="#C26D02"/><path d="m23.42 27.55-2.04-12.36 3.52 6.55-1.48 5.8Z" fill="#D4910F"/><path d="m23.44 27.47-5.28-5.58 4.27 8.64 1-3.06Z" fill="#F2D847"/><path d="M21.38 34.27 11.24 23.75l5.65 1.49 1.24-3.38 4.3 8.67-1.05 3.74Z" fill="#D5920F"/><path d="M21.4 34.27 10 31.14l3.18-.37-1.94-7.08L21.4 34.27Z" fill="#C26D00"/><path d="m20.34 38.14-10.28-6.97 11.37 3.04-1.1 3.93Z" fill="#D9AD18"/><path d="M28.17 41h9.03l-1.52-2.9-7.51 2.9Z" fill="#EED749"/><path d="M34.67 34.22 28.27 41l7.43-2.89-1.03-3.89Z" fill="#D3930D"/><path d="m28.3 41 6.33-6.73-1.02-3.95L28.29 41Z" fill="#D9A712"/><path d="M27.93 41h.38l5.28-10.6-.94-2.98L27.97 32l-.04 9Z" fill="#D3930D"/><path d="M28 27.43V32l4.6-4.51-1.47-5.7L28 27.42Z" fill="#C06E02"/><path d="M28 11v16.46l3.1-5.6L28 11Z" fill="#DAAD14"/><path d="M31.07 17.81 28 11l3.07 10.86 3.62-6.66-3.62 2.61Z" fill="#C26D02"/><path d="m32.57 27.54 2.1-12.35-3.57 6.55 1.47 5.8Z" fill="#D4910F"/><path d="m32.51 27.43 5.33-5.54-4.27 8.64-1.06-3.1Z" fill="#F2D847"/><path d="m34.62 34.27 10.14-10.52-5.65 1.49-1.24-3.38-4.3 8.67 1.05 3.74Z" fill="#D5920F"/><path d="M34.6 34.27 46 31.14l-3.18-.37 1.94-7.08L34.6 34.27Z" fill="#C26D00"/><path d="m35.66 38.14 10.28-6.97-11.37 3.04 1.1 3.93Z" fill="#D9AD18"/></svg>