<!-- by TradeStack --><svg viewBox="0 0 56 56" xmlns="http://www.w3.org/2000/svg"><path fill="#F0F3FA" d="M0 0h56v56H0z"/><path d="M6.88 35c-1.28 0-.89-1.9-.53-2.86 1.42-.12 5-.35 7.98-.35 3.73 0 17.57-1.07 22.36-.72 4.8.36 5.86.72 9.05 1.07 3.2.36 4.26 1.79 4.26 2.5 0 .72-19.7 0-23.96-.35-4.25-.36-17.56.71-19.16.71Z" fill="url(#avfniwgdo)"/><path d="M23 33v-9h2v9h-2Z" fill="url(#bvfniwgdo)"/><circle cx="24" cy="22" r="3" fill="#DC0C26"/><circle cx="37" cy="29" r="3" fill="url(#cvfniwgdo)"/><path d="M41 29a4 4 0 1 1-8 0 4 4 0 0 1 8 0Zm-4 3a3 3 0 1 0 0-6 3 3 0 0 0 0 6ZM22 29a4 4 0 1 1-8 0 4 4 0 0 1 8 0Zm-4 3a3 3 0 1 0 0-6 3 3 0 0 0 0 6ZM11.5 29c.5 0 1.5.9 1.5 1.85 0 1.5-1.5 2.15-2.8 2.15H7v-8h3.08c1.25 0 2.42.8 2.42 2.25 0 .75-.5 1.75-1 1.75ZM8 28.5h2c1.06 0 1.5-.44 1.5-1.25S11.07 26 9.98 26H8v2.5Zm2.1 3.5c.88 0 1.9-.16 1.9-1.15 0-.99-1.05-1.35-1.93-1.35H8V32h2.1ZM49 33h-1l-5-6.5V33h-1v-8h1l5 6.5V25h1v8ZM30.86 33 29 30h-1v3h-1v-8h2.36C31 25 32 26.03 32 27.5c0 1-.5 2-1.8 2.5l1.8 3h-1.14ZM28 29h1.36c.94 0 1.64-.55 1.64-1.5 0-.94-.58-1.5-1.64-1.5H28v3Z" fill="#14739F"/><defs><linearGradient id="avfniwgdo" x1="6.35" y1="33.57" x2="49.44" y2="35.16" gradientUnits="userSpaceOnUse"><stop stop-color="#A3C200"/><stop offset=".51" stop-color="#EEE727"/><stop offset="1" stop-color="#A3C705"/></linearGradient><linearGradient id="bvfniwgdo" x1="23" y1="27.5" x2="25" y2="27.5" gradientUnits="userSpaceOnUse"><stop stop-color="#2F8E3C"/><stop offset=".49" stop-color="#7FBA3A"/><stop offset="1" stop-color="#479F2F"/></linearGradient><linearGradient id="cvfniwgdo" x1="35" y1="27" x2="38.5" y2="30.5" gradientUnits="userSpaceOnUse"><stop stop-color="#5DB1DD"/><stop offset="1" stop-color="#95D3F1"/></linearGradient></defs></svg>