<!-- by TradeStack --><svg viewBox="0 0 56 56" xmlns="http://www.w3.org/2000/svg"><path fill="#F0F3FA" d="M0 0h56v56H0z"/><path d="M22 29.5c0 1.9-2 2.5-4 2.5h-6v-9h6.5c2 0 3 1 3 2.5s-1.07 1.7-2 2c1.15.25 2.5.7 2.5 2Zm-2 0c0-.76-.81-1.5-1.5-1.5H14v3h4.5c.67 0 1.5-.71 1.5-1.5ZM14 24v3h4c1 0 1.5-.73 1.5-1.5 0-.73-.5-1.5-1.5-1.5h-4ZM23 32v-7h4c2 0 3 .31 3 2 0 1.5-1.02 2-2 2l2 3h-2l-2-3h-1v3h-2Zm2-4h2c.62 0 1-.39 1-1 0-.62-.39-1-1-1h-2v2ZM34.5 25h2l3.5 7h-2l-1-2h-3l-1 2h-2l3.5-7Zm2.1 4-1.1-2.5-1.1 2.5h2.2ZM41 32v-7h2v7h-2ZM46 27.5V32h-2v-7h2l4 4.61V25h2v7h-2l-4-4.5Z"/><path fill="#008ABB" d="M4 33h8v1H4zM9 30h2c0 1.5-2 2-3.5 2A3.39 3.39 0 0 1 4 28.5C4 26.46 5.54 25 7.5 25c1.57 0 3.5.5 3.5 2H9c0-1-1.01-1-1.46-1C6.3 26 6 27.4 6 28.5c0 1.12.24 2.5 1.5 2.5.8 0 1.5 0 1.5-1Z"/></svg>