<!-- by TradeStack --><svg viewBox="0 0 56 56" xmlns="http://www.w3.org/2000/svg"><path fill="#F0F3FA" d="M0 0h56v56H0z"/><path d="M7.23 25c-.59 0-1.12.35-1.37.9L4.8 28.3 4 30h1.1l.47-1H8v1h1v-5H7.23ZM8 28H6.02l.76-1.7a.5.5 0 0 1 .45-.3H8v2ZM12 25h2c1 0 1.5.87 1.5 2h-1c0-.5 0-1-.5-1h-2c-.29 0-1 0-1 1v1.5-.5c0 .5.5 1 1 1h2c.3 0 .5-.58.5-1h1c0 1.05-.6 2-1.5 2h-2c-1.5 0-2-.5-2-1.5v-2c0-1.2 1.07-1.5 2-1.5ZM18 25h2c1 0 1.5.87 1.5 2h-1c0-.5 0-1-.5-1h-2c-.29 0-1 0-1 1v1.5-.5c0 .5.5 1 1 1h2c.3 0 .5-.58.5-1h1c0 1.05-.6 2-1.5 2h-2c-1.5 0-2-.5-2-1.5v-2c0-1.2 1.07-1.5 2-1.5ZM22 25h5v1h-4v1h3v1h-3v1h4v1h-5v-5ZM28 25h1.5l2.5 4v-4h1v5h-1.5L29 26v4h-1v-5ZM36 26h-2v-1h5v1h-2v4h-1v-4ZM43 25h-3v5h1v-1.5h1.23l1 1.5h1.2l-1.08-1.62c.6-.2 1.15-.96 1.15-1.63 0-.89-.46-1.75-1.5-1.75Zm0 2.5h-2V26h2c.43 0 .5.47.5.75 0 .43-.22.75-.5.75Z" fill="#618C9C"/><path fill-rule="evenodd" d="M50 27.5c0-1.08-.8-1.5-2-1.5-1.28 0-2 .4-2 1.5s.8 1.5 2 1.5 2-.42 2-1.5ZM48 30c2.4 0 3-1.12 3-2.5s-.6-2.5-3-2.5-3 1.12-3 2.5.6 2.5 3 2.5Z" fill="#618C9C"/></svg>