<!-- by TradeStack --><svg viewBox="0 0 56 56" xmlns="http://www.w3.org/2000/svg"><path fill="url(#a)" d="M0 0h56v56H0z"/><path d="M36.08 25.5c.07 0 .1 0 .1.07a7.5 7.5 0 0 1-1.59 4.4 6.37 6.37 0 0 1-3.88 2.12c-1.49.26-2.91.23-4.29-.08a8.55 8.55 0 0 1-3.52-1.7 7.48 7.48 0 0 1-2.27-3.1 8.83 8.83 0 0 1-.51-4.3c.23-2.04 1-3.67 2.33-4.9a8.54 8.54 0 0 1 4.59-2.06c1.71-.28 3.5-.19 5.36.26 1.83.44 3.15 1.14 4.46 2.1.1.07.14.05.14-.08v-2.9c0-.1-.03-.18-.12-.23a13.34 13.34 0 0 0-5.38-1.95 16.6 16.6 0 0 0-5.87.25A10.54 10.54 0 0 0 17 24.28a10.89 10.89 0 0 0 9.24 10.48c2.8.49 5.26.24 7.4-.76a8.93 8.93 0 0 0 4.81-5.52c.43-1.29.6-3.06.53-5.33 0-.1-.05-.15-.15-.15H23.8c-.05 0-.09.02-.1.08l-.56 2.3c-.02.06 0 .12.06.12h12.88Zm-16.97 15H36.9c.06 0 .11.05.11.12v2.26c0 .07-.05.12-.11.12H19.1a.12.12 0 0 1-.11-.12v-2.26c0-.07.05-.12.11-.12Z" fill="#fff"/><defs><linearGradient id="a" x1="28" y1="0" x2="28" y2="56" gradientUnits="userSpaceOnUse"><stop stop-color="#25224D"/><stop offset="1" stop-color="#30319B"/></linearGradient></defs></svg>