<!-- by TradeStack --><svg viewBox="0 0 56 56" xmlns="http://www.w3.org/2000/svg"><path fill="#175E9C" d="M0 0h56v56H0z"/><path d="M21 26.61c.02-2.53 1.44-7.61 7-7.61 2.51 0 4.33 1.9 4.92 2.84.03.15 0 .54-.37.83-.37.3-.7.3-.83.27A4.43 4.43 0 0 0 28 20.47c-3.58 0-4.99 3.03-4.99 6.14 0 3.12 2.18 6.02 4.84 6.02 2.13 0 3.48-1.8 3.88-2.7.1-.12.38-.27.8 0 .44.26.5.62.48.78A5.81 5.81 0 0 1 28 34c-5.4 0-6.91-4.92-7-7.39ZM7 20.4v13.2c.14.13.51.4 1 .4s.88-.27 1-.4V20.4c0-.13-.27-.4-1-.4s-.94.27-1 .4Zm4 5v8.37c.1.08.36.23.66.23.3 0 .6-.15.72-.23v-7.43l4.85 6.85c.14.24.54.81 1.08.81.53 0 .68-.57.69-.8v-8.71a.78.78 0 0 0-.76-.49c-.47 0-.67.33-.7.49v5.48c-.7-.99-1.74-2.53-2.52-3.68l-1.05-1.53-.02-.02c-.15-.18-.63-.74-1.4-.74-.73 0-1.49.6-1.55 1.4Zm22 8.23 2.4-8.78c.14-.28.6-.85 1.27-.85s1 .45 1.08.68L41 33.13a1 1 0 0 1-1 .87c-.78 0-.9-.26-1.03-.51a55.83 55.83 0 0 1-.77-1.99h-3.16l-.56 2.13a.94.94 0 0 1-.76.37.86.86 0 0 1-.72-.37ZM35.43 30h2.22l-1.3-3.53-.92 3.53ZM42 24.37v13.27c0 .12.22.36 1.11.36.89 0 .91-.24.89-.36V34h1.88c1.34 0 5.12-.75 5.12-4.73C51 25.3 47 24 45.18 24c-1.47 0-2.73.25-3.18.37Zm2 8V25.5c1.98 0 5 .31 5 3.5 0 3.2-2.37 3.5-3.43 3.5-.85 0-1.4-.1-1.57-.13Z" fill="#fff"/></svg>