<!-- by TradeStack --><svg viewBox="0 0 56 56" fill="none" xmlns="http://www.w3.org/2000/svg">
<rect width="56" height="56" fill="#F0F3FA"/>
<path fill-rule="evenodd" clip-rule="evenodd" d="M11 21C12.1046 21 13 21.8954 13 23C13 24.1046 12.1046 25 11 25C9.89538 25 9 24.1046 9 23C9 21.8954 9.89538 21 11 21Z" fill="#009E3A"/>
<path fill-rule="evenodd" clip-rule="evenodd" d="M10.9999 27H11.0001C12.1001 27 13 27.984 13 29.1867V35.8133C13 37.016 12.1001 38 11.0001 38H10.9999C9.89995 38 9 37.016 9 35.8133V29.1867C9 27.984 9.89995 27 10.9999 27Z" fill="#009E3A"/>
<path fill-rule="evenodd" clip-rule="evenodd" d="M31 21C32.1046 21 33 21.8954 33 23C33 24.1046 32.1046 25 31 25C29.8954 25 29 24.1046 29 23C29 21.8954 29.8954 21 31 21Z" fill="#009E3A"/>
<path fill-rule="evenodd" clip-rule="evenodd" d="M30.9999 27H31.0001C32.1001 27 33 27.984 33 29.1867V35.8133C33 37.016 32.1001 38 31.0001 38H30.9999C29.8999 38 29 37.016 29 35.8133V29.1867C29 27.984 29.8999 27 30.9999 27Z" fill="#009E3A"/>
<path fill-rule="evenodd" clip-rule="evenodd" d="M38.9999 16H39.0001C40.1 16 41 16.9733 41 18.163V35.837C41 37.0267 40.1 38 39.0001 38H38.9999C37.9 38 37 37.0267 37 35.837V18.163C37 16.9733 37.9 16 38.9999 16Z" fill="#009E3A"/>
<path fill-rule="evenodd" clip-rule="evenodd" d="M36.2697 21H46.7894L49 23L46.9079 25H36.2697C35.0215 25 34 24.1 34 23C34 21.9 35.0214 21 36.2697 21Z" fill="#009E3A"/>
<path fill-rule="evenodd" clip-rule="evenodd" d="M20.7768 21H21.2232C24.4004 21 27 24.2948 27 27.4678V35.7709C27 36.9968 26.2274 38 25 38H24.9302C23.7726 38 23 37.057 23 35.9007V27C23 26.2049 22.1484 25 21.0742 25C20 25 19 26.0062 19 27V35.9007C19 37.057 18.1577 38 17 38H16.9551C15.7277 38 15 36.9969 15 35.7709V27.4678C15 24.2947 17.5996 21 20.7768 21Z" fill="#009E3A"/>
</svg>
