<!-- by TradeStack --><svg viewBox="0 0 56 56" xmlns="http://www.w3.org/2000/svg"><path fill="#F0F3FA" d="M0 0h56v56H0z"/><path d="m39.72 13.83-1.22.23C40 15.71 42 18.74 42 22.5c0 3.53-1.4 6.7-3.6 9.41-2.46 3.04-5.85 4.84-10.32 5.72l-8.73 1.73c-.63.13-2.35.26-2.35-.83V24.17c0-2.23.98-3.7 2.07-4.78C23.1 15.3 33.39 14.74 34 22a7.76 7.76 0 0 1-6.44 8.5l-3.56.69V20.33c-2.26.8-3 2.84-3 5.15v8.41c0 1.06.16 1.6 1.21 1.37.32-.06 4.12-.8 5.74-1.14a11.84 11.84 0 0 0 9.56-13.44 8.77 8.77 0 0 0-8.45-7.64c-4.16-.3-9.11 1.04-12.25 3.84A8.02 8.02 0 0 0 14 23.04v16.2c0 2.39 1.18 3.76 3.24 3.76.37 0 .78-.04 1.21-.14 1.9-.37 8.46-1.66 9.88-1.96 6.58-1.29 9.42-3.8 11.87-6.9A17.7 17.7 0 0 0 44 23.5c.02-4.38-1.72-7.48-4.28-9.67Z" fill="#DD0031"/></svg>