<!-- by TradeStack --><svg viewBox="0 0 56 56" xmlns="http://www.w3.org/2000/svg"><path fill="#F0F3FA" d="M0 0h56v56H0z"/><path fill-rule="evenodd" d="M28 45a17 17 0 1 0 0-34 17 17 0 0 0 0 34Zm0-3a14 14 0 1 0 0-28 14 14 0 0 0 0 28Z" fill="url(#ai1pmsh3e)"/><path fill-rule="evenodd" d="M28 43.7a15.7 15.7 0 1 0 0-31.4 15.7 15.7 0 0 0 0 31.4Zm0 .3a16 16 0 1 0 0-32 16 16 0 0 0 0 32Z" fill="#EDEFED"/><path d="M22 17v16h5v6h7v-4h-4v-2h3v-4h-3v-3.5h4V22h-7v7h-2V17h-3Z" fill="url(#bi1pmsh3e)"/><path d="M24.65 30.1c-1.31.12-1.79-.4-1.93-.47 0 .36.73.65 1.77.7 1.05.06.94-.18 2.2-.17 1.26 0 1.54-.25 1.72-.25.2.18 1.77.42 2.53.52l.1-.42c-.32-.05-1.12-.19-1.73-.38-.76-.24-.8-.64-.9-.45-.11.18-.48.45-1.33.51-.85.06-1.12.28-2.43.4Z" fill="#17170F"/><path d="M22.71 31.44c-.02.18-.53.45-.6.6H22v-4h.71c0 1.08.02 3.26 0 3.4Z" fill="url(#ci1pmsh3e)"/><path d="M27.5 22.5 27 22h7l-.83.5H27.5Z" fill="url(#di1pmsh3e)"/><path d="M22.57 18c-.19-.32-.56-.96-.57-1h3l-.47 1h-1.96Z" fill="url(#ei1pmsh3e)"/><path d="m27.5 38-.5 1h6.7l-.92-1H27.5Z" fill="#5A5768"/><path d="m34 35-.34.47h-4.57l.6-.47H34Z" fill="#DE9B5D"/><path d="M22.83 32c-.23.27-.71.85-.77 1h1.42a5.12 5.12 0 0 1 2.37-.69c.83.05.46.48.16.69h1.06l.52-1h-4.76ZM29.3 35.45c.19.15.6-.44.7-.4v-.66a2.9 2.9 0 0 1-.49-1.47c.04-.51.34-.28.49-.1v-.39l-.7-.59v3.61Z" fill="#27271C"/><path d="M31.63 32h-2.24l.9 1c.05-.2.25-.61.58-.61.34 0 .67.4.8.61h.48l-.52-1Z" fill="#262320"/><path d="M34 35c-.15.16-.45.5-.47.54v.77c0-.42.31-.64.47-.7V35Z" fill="#37312D"/><path d="M27.59 38.08 27 39v-6.27l.59-.73v6.08Z" fill="url(#fi1pmsh3e)"/><path d="M32.27 30.73v-1.32l.67-.38A.38.38 0 0 1 33 29l-.06.03c-.13.1-.31.31-.3.7.04.57.33 1.05.17 1.13-.13.07-.41-.06-.54-.13Z" fill="#6C697F"/><path d="M27.39 29.41h-2.67l.54-.41H27v-1.3l.39.62v1.1Z" fill="#9E6852"/><path d="m30 28.91-.58.47v-4.45l.58.66v3.32Z" fill="url(#gi1pmsh3e)"/><path d="M33.3 25h-3.83l.44.5H34l-.7-.5Z" fill="#4D474D"/><path d="m22.6 17.81-.6-.72v.8c.3.3.3.71.27.88l-.27-.14v.57c.48.3.6 1.1.6 1.47v-2.86Z"/><path d="M24.5 17.77 25 17v1.85c-.29.34-.45 1.58-.5 2.15v-3.23Z" fill="#3C3332"/><path d="M22.5 17.64h1.98v11.73h2.81v-6.79h6.38v2.34H29.3v4.45h3.01V32h-3v3.34h4.36v2.49H27.6V32h-5.1V17.64Zm.2.18v14.04h5.1v5.79h5.68V35.5h-4.37v-3.65h3.02v-2.31H29.1v-4.8h4.37v-1.99h-6v6.79h-3.2V17.82H22.7Z" fill="#EEEEF1"/><defs><linearGradient id="ai1pmsh3e" x1="28" y1="11" x2="28" y2="45" gradientUnits="userSpaceOnUse"><stop stop-color="#F9EFE7"/><stop offset=".04" stop-color="#849CCA"/><stop offset=".1" stop-color="#DFD4DB"/><stop offset=".19" stop-color="#E7ECF4"/><stop offset=".51" stop-color="#DED6D8"/><stop offset=".55" stop-color="#2F312F"/><stop offset=".59" stop-color="#3F5E93"/><stop offset=".78" stop-color="#5C6A98"/><stop offset="1" stop-color="#B6ACC0"/></linearGradient><linearGradient id="bi1pmsh3e" x1="28" y1="17" x2="28" y2="39" gradientUnits="userSpaceOnUse"><stop stop-color="#6D688C"/><stop offset=".29" stop-color="#777DA3"/><stop offset=".45" stop-color="#E7E2E2"/><stop offset=".54" stop-color="#F0F1F4"/><stop offset=".65" stop-color="#555C86"/><stop offset=".83" stop-color="#ECEEEE"/><stop offset="1" stop-color="#F0DB84"/></linearGradient><linearGradient id="ci1pmsh3e" x1="22.36" y1="28.05" x2="22.36" y2="32.05" gradientUnits="userSpaceOnUse"><stop stop-color="#EDEFEA"/><stop offset=".28" stop-color="#F1E6BF"/><stop offset=".68" stop-color="#9E655A"/><stop offset="1" stop-color="#B1816D"/></linearGradient><linearGradient id="di1pmsh3e" x1="27.54" y1="22" x2="33.91" y2="23.59" gradientUnits="userSpaceOnUse"><stop offset=".43" stop-color="#D9A56F"/><stop offset=".51" stop-color="#C78659"/><stop offset=".73" stop-color="#D9A56F"/></linearGradient><linearGradient id="ei1pmsh3e" x1="22.92" y1="18.57" x2="24.88" y2="17.57" gradientUnits="userSpaceOnUse"><stop offset=".33" stop-color="#995043"/><stop offset=".6" stop-color="#EBDCD6"/></linearGradient><linearGradient id="fi1pmsh3e" x1="25.69" y1="37.86" x2="28.24" y2="38.66" gradientUnits="userSpaceOnUse"><stop stop-color="#2E2B2F"/><stop offset=".16" stop-color="#676E93"/><stop offset=".47" stop-color="#ADADC4"/><stop offset=".61" stop-color="#796D81"/></linearGradient><linearGradient id="gi1pmsh3e" x1="28.51" y1="25.67" x2="30.5" y2="28.79" gradientUnits="userSpaceOnUse"><stop stop-color="#5F5E8F"/><stop offset=".25" stop-color="#575973"/><stop offset=".67" stop-color="#D7D4DF"/><stop offset=".85" stop-color="#4D4141"/><stop offset="1" stop-color="#5F5E8F" stop-opacity="0"/></linearGradient></defs></svg>