<!-- by TradeStack --><svg viewBox="0 0 56 56" xmlns="http://www.w3.org/2000/svg"><path fill="#F0F3FA" d="M0 0h56v56H0z"/><path d="M45 28.34V28c0-1.13-.13-2.25-.38-3.36-3.52 2.57-8.36 4.39-12.7 4.36H24v-2h7.92c4.19.03 8.93-2.09 12.07-4.57a16.05 16.05 0 0 0-1.62-3.27c-2.95 2.45-6.6 3.62-10.43 3.84H24v-2h7.9c3.38-.2 6.6-1.35 9.2-3.53A15.98 15.98 0 0 0 29 12a16 16 0 1 0 15.73 19.08A23.74 23.74 0 0 1 31.03 35H24v-2h7.02c4.98.14 9.12-1.37 13.98-4.66Z" fill="#14171A"/><path d="M32 23v4H10v-4h22Z" fill="#C80010"/><path d="M32 17v4H10v-4h22Z" fill="#007464"/><path d="M32 29v4H10v-4h22Z" fill="#00578D"/><path d="M32 35v4H10v-4h22Z" fill="#F27B1C"/></svg>