<!-- by TradeStack --><svg viewBox="0 0 56 56" xmlns="http://www.w3.org/2000/svg"><path fill="#00A2A4" d="M0 0h56v56H0z"/><path fill-rule="evenodd" d="M28.63 26H23v1.44h4.36c.35 0 .64.19.64.56h-3.97c-.57 0-1.03.49-1.03 1.08v.84c0 .6.46 1.08 1.03 1.08H30v-3.56c0-.8-.62-1.44-1.37-1.44Zm-3.13 3a.5.5 0 0 0 0 1h2a.5.5 0 0 0 0-1h-2ZM46.63 26H41v1.44h4.36c.35 0 .64.19.64.56h-3.97c-.57 0-1.03.49-1.03 1.08v.84c0 .6.46 1.08 1.03 1.08H48v-3.56c0-.8-.62-1.44-1.37-1.44Zm-3.13 3a.5.5 0 0 0 0 1h2a.5.5 0 0 0 0-1h-2Z" fill="#F0F3FA"/><path d="M21 26h-5.44c-.86 0-1.56.64-1.56 1.43v2.14c0 .79.7 1.43 1.56 1.43H21v-1.43h-4.43c-.31 0-.57-.24-.57-.53v-1.01c0-.3.26-.53.57-.53H21V26ZM32 26h5.55c.8 0 1.45.65 1.45 1.44V31h-2v-2.65c0-.5-.42-.92-.93-.92H34V31h-2v-5ZM5 31h6.29c.39 0 .71-.3.71-.65v-2.2c0-.3-.23-.56-.54-.63l-4.29-.02a.17.17 0 0 1-.17-.17v-.66c0-.1.08-.17.17-.17H12V25H5.66c-.36 0-.66.3-.66.65v2.2c0 .36.3.65.66.65h4.16c.1 0 .18.07.18.17v.66c0 .1-.08.17-.18.17H5V31ZM49.5 20l.64 1.84 1.86.07-1.47 1.2.52 1.89-1.55-1.1-1.55 1.1.52-1.88L47 21.9l1.86-.07.64-1.84Z" fill="#F0F3FA"/></svg>