<!-- by TradeStack --><svg viewBox="0 0 56 56" xmlns="http://www.w3.org/2000/svg"><path fill="#F0F3FA" d="M0 0h56v56H0z"/><path d="M51.84 27.77h-1.18l.34-.32c.09 0 .15-.09.15-.18v-1.84l.81-.81.03-.03v-.07C52 22.5 50.51 21 49 21h-4l-1.47 1.56a3.36 3.36 0 0 0-2.78-1.47c-.12 0-.24 0-.36.03-.12 0-.21.04-.33.07-1.56.29-2.86 1.92-3.87 3.02l-.1.1c-.6.65-.93 1.52-.93 2.43 0 .43.06.87.21 1.24l-.78.72v-7.48c0-.1-.1-.19-.19-.19a5.27 5.27 0 0 0-3.99 2c-.24.21-.48.43-.69.65-.6-1.03-2.15-2.68-4.44-2.68h-.1l-.02.03L23 23.21v5.83l-3.59-7.6-.03-.03-.03-.04h-.15s-.03 0-.03.04h-.03l-2.11 2.05c-.03.03-.03.03-.03.07l-2.12 4.83a4.14 4.14 0 0 0-1.03-2.59l.97-.93v-.13a3.5 3.5 0 0 0-3.45-3.55c-.12 0-.24 0-.36.03-.15 0-.27.03-.42.06a3.3 3.3 0 0 0-1.57.87c-.79.63-1.57 1.44-2.2 2.12l-.1.1c-.6.65-.94 1.52-.94 2.43 0 .43.06.87.21 1.25L4.12 29.7c-.03.03-.06.06-.06.1a4.44 4.44 0 0 0 4.3 5.2c1.08 0 2.14-.4 2.92-1.18.15-.13.3-.29.49-.44.45-.4 1-.87 1.45-1.4l-1 2.24a.2.2 0 0 0 0 .19c.03.06.1.1.15.1h2.12c.78 0 1.3-.16 1.57-.45.12-.12.63-.65 1.2-1.27.8 1.09 1.76 1.71 2.94 1.71h1.87c.03 0 .1-.1.12-.12l.81-.75v.62c0 .1.07.25.16.25h2.7c.02 0 .08-.06.11-.1l.43-.4v.28c0 .1.09.22.18.22h2.32c.03 0 .1-.06.12-.1l.43-.4v.25c0 .1.09.25.18.25h2.69c.03 0 .09-.1.12-.12l1.6-1.56A4.78 4.78 0 0 0 38 35c1.57 0 3.93-1.76 5-3 .3 1.4 1.25 2.5 3 2.5h3.5l2.5-2.15v-4.4c.02-.09-.07-.18-.16-.18Z" fill="#0A4CA2"/><path d="M41.45 24.8c-.06-.03-.13-.12-.1-.21.04-.1.1-.13.19-.13h2.3a3.15 3.15 0 0 0-3.09-3.02 3.15 3.15 0 0 0-3.08 3.18c0 .87.33 1.68.93 2.27l.67.72c.06.06.06.13.03.19s-.1.2-.15.2H35.9c-.03.16-.03.23-.03.42a4.05 4.05 0 0 0 4 4.12c2.2 0 3.98-1.84 3.98-4.12a4.22 4.22 0 0 0-2.41-3.62ZM16.63 32c.85 0 1.18-.12 1.3-.27.21-.25.67-.81.82-1.03l-.88-1.84a.2.2 0 0 1 0-.19c.03-.06.1-.1.15-.1h.46c.06 0 .12.04.15.1 0 0 .15.34.7 1.31.75 1.31 1.72 2.02 2.95 2.02h1.6l-4.62-10.06L14.82 32h1.81Zm13.21-7.45c-.1 0-.18-.09-.18-.18 0-.16-.4-.94-1.15-1.66a4.61 4.61 0 0 0-3.01-1.37V32H28v-1.86c0-.1.1-.14.18-.14h.64c.09 0 .18.04.18.14V32h2v-1.86c0-.1.1-.14.18-.14h.64c.09 0 .18.04.18.14V32l2 .02V21.39c-1.39.06-2.2.73-2.83 1.36a3.88 3.88 0 0 0-1.15 1.65c0 .1-.09.15-.18.15ZM48 28.23V27.2c0-.1.06-.19.16-.19H51v-1.5h-2.84c-.1 0-.16-.1-.16-.19V24.2c0-.1.06-.19.16-.19h3.5a2.57 2.57 0 0 0-2.72-2.44H45v7.42A3.13 3.13 0 0 0 48.12 32h3.38v-3.58h-3.31c-.13 0-.19-.1-.19-.19ZM12.1 24.8c-.06-.03-.12-.12-.1-.21.04-.1.1-.13.19-.13h2.3a3.15 3.15 0 0 0-3.09-3.02 3.15 3.15 0 0 0-3.08 3.18c0 .87.33 1.68.94 2.27l.66.72c.06.06.06.13.03.19s-.09.2-.15.2H6.54c-.03 0-.03.3-.03.45a4.05 4.05 0 0 0 3.99 4.12 4.05 4.05 0 0 0 1.6-7.77Z" fill="#FBB731"/></svg>