<!-- by TradeStack --><svg viewBox="0 0 56 56" xmlns="http://www.w3.org/2000/svg"><path fill="#F0F3FA" d="M0 0h56v56H0z"/><path fill-rule="evenodd" d="M7 19h6v1.16l3-.81V33H4V22.62l3-.82V19Zm0 3.84-2 .54V32h2v-9.16ZM8 32v-9.44l7-1.9v5.17l-5-1.5V32H8Zm3 0h4v-5.13l-4-1.2V32ZM8 21.53V20h4v.44l-4 1.09Z"/><path d="M17 33h2v-5h5v5l2-.01V22h-2v4h-4.99L19 22h-1.99L17 33ZM28.88 28.45c.18-1.19.99-2.01 2.14-2.01 1.26 0 1.97.89 2.1 2.01h-4.24ZM31.24 33a4.3 4.3 0 0 0 3.39-1.44l-1.1-.92c-.66.6-1.32.92-2.24.92-1.23 0-2.18-.7-2.38-1.94h6.06c.02-.18.03-.33.03-.5 0-2.2-1.33-4.12-3.96-4.12A3.93 3.93 0 0 0 27 28.99V29c0 2.37 1.85 3.99 4.24 3.99ZM48.24 31.7c-.85 0-1.24-.45-1.24-1.2 0-.8.4-1.29 1.54-1.29.6 0 .93.1 1.5.3v.55c0 .98-.62 1.66-1.8 1.64Zm-.5 1.3c1.2 0 1.73-.5 2.26-1.12V33h2v-4.75c0-1.01-.26-1.83-.83-2.4-.55-.55-1.42-.85-2.57-.85a6.52 6.52 0 0 0-2.93.64l.47 1.4c.7-.33 1.46-.5 2.22-.5 1.25 0 1.67.59 1.67 1.7v.19a4.81 4.81 0 0 0-1.82-.32c-1.9 0-3.21.81-3.21 2.49v.01c-.01 1.55 1.28 2.38 2.74 2.39ZM40 31.44c-1.2 0-2-.94-2-2.44s.8-2.6 2-2.6 2 1.08 2 2.6c0 1.54-.78 2.44-2 2.44Zm.42 1.56c1.82 0 3.58-1.47 3.58-4.07v-.03c0-2.6-1.77-4.07-3.58-4.07-1.26 0-1.84.66-2.42 1.48V22h-2v11h2v-1.38c.55.73 1.13 1.38 2.42 1.38Z"/></svg>