<!-- by TradeStack --><svg viewBox="0 0 56 56" xmlns="http://www.w3.org/2000/svg"><path fill="#E41839" d="M0 0h56v56H0z"/><path d="M4 24h4.67c1.75 0 2.33.8 2.33 2.5 0 2.13-1.17 2.5-2.33 2.5H6v3H4v-8Zm2 4h2.08c.59 0 .92-.49.92-1.5 0-1.18-.33-1.5-.92-1.5H6v3Z" fill="#FDFFFA"/><path fill-rule="evenodd" d="M13 24h-1v8h2v-3h2c.93 0 1 1.22 1 1.67V32h2v-2c0-.53-.28-1.05-.83-1.43.5-.37.83-1 .83-2.07 0-1.6-.6-2.5-2.4-2.5H13Zm3 4c.6 0 1-.3 1-1.5 0-1.1-.4-1.5-1-1.5h-2v3h2Z" fill="#FDFFFA"/><path d="M22 25.71v4c0 .58.52 1.29 1 1.29h1.17c.58 0 .83-1.12.83-1.29v-4c0-.31-.6-.72-.92-.72h-1.27c-.31 0-.81.4-.81.72Zm.86-1.71h1.28A2.8 2.8 0 0 1 27 26.78v2.44c0 1.39-.9 2.78-2.44 2.78h-2.12C20.9 32 20 30.6 20 29.22v-2.44A2.8 2.8 0 0 1 22.86 24ZM39 29.71V26c0-.5.5-1 1-1h1c.56 0 1 .5 1 1v1h2v-.22A2.8 2.8 0 0 0 41.14 24h-1.28A2.8 2.8 0 0 0 37 26.78v2.44c0 1.38.91 2.78 2.44 2.78h2.12C43.1 32 44 30.6 44 29.22V29h-2v1c0 .5-.44 1-1 1h-1.08c-.48 0-.92-.71-.92-1.29ZM30.29 24h3.42L36 32h-2.29l-.57-2h-2.28l-.57 2H28l2.29-8Zm.85 5h1.72L32 26l-.86 3ZM45 25v-1h7v1h-2.5v7h-2v-7H45Z" fill="#F9FFFD"/></svg>