<!-- by TradeStack --><svg viewBox="0 0 56 56" xmlns="http://www.w3.org/2000/svg"><path fill="#F0F3FA" d="M0 0h56v56H0z"/><path fill-rule="evenodd" d="M28 46c7.18 0 13-8.06 13-18s-5.82-18-13-18-13 8.06-13 18 5.82 18 13 18Zm3.3-26H19v2h1.12c.88 0 .88 1.02.88 1.41v9.16c0 .92-.51 1.43-.88 1.43H19v2h9v-2h-1.18c-.56 0-.82-.86-.82-1.43V29h3.06c.9 0 .94.52.94 1.29v3.42c0 1.15 1.3 2.29 4.65 2.29 2.68 0 3.35-1.9 3.35-2.86V31h-1v1.57c0 .38-.1.93-1 .93s-1-.62-1-1v-2.21c0-1.6-1.4-2.26-2.23-2.66l-.27-.13c1.12-.2 3.5-.76 3.5-3.5s-2.47-4-4.7-4ZM26 27v-5h2.5c1.5 0 2.5.75 2.5 2.5 0 2-1 2.5-2.5 2.5H26Z" fill="#CF1141"/></svg>