<!-- by TradeStack --><svg viewBox="0 0 56 56" xmlns="http://www.w3.org/2000/svg"><path fill="#F0F3FA" d="M0 0h56v56H0z"/><path d="M29.6 34.8a1 1 0 0 1-1.34-1.47 1 1 0 1 1 1.34 1.47ZM32.6 34.8a1 1 0 0 1-1.5-.37 1 1 0 0 1 1.24-1.37 1 1 0 0 1 .47.34 1 1 0 0 1-.21 1.4ZM34.6 32.8a1 1 0 0 1-1.5-.37 1 1 0 0 1 .66-1.4 1.01 1.01 0 0 1 1.05.37 1.03 1.03 0 0 1-.2 1.4ZM26.36 29.7a1.41 1.41 0 0 1-2.04-.31 1.45 1.45 0 0 1 .28-2.09 1.5 1.5 0 0 1 2.36.85 1.45 1.45 0 0 1-.6 1.54ZM28.37 26.69a1.4 1.4 0 0 1-2.04-.3 1.45 1.45 0 0 1 .27-2.09 1.48 1.48 0 0 1 2.1.32 1.45 1.45 0 0 1-.33 2.06v.01ZM26.36 33.7a1.42 1.42 0 0 1-2.04-.32 1.46 1.46 0 0 1 .27-2.07 1.49 1.49 0 0 1 2.12.31 1.46 1.46 0 0 1-.35 2.08ZM34.8 29.9a.5.5 0 0 1-.75-.19.5.5 0 0 1 .34-.7.5.5 0 0 1 .52.2.52.52 0 0 1-.1.7ZM33.8 27.9a.5.5 0 0 1-.8-.47.5.5 0 0 1 .38-.41.5.5 0 0 1 .53.18.51.51 0 0 1-.1.7ZM31.8 25.9a.5.5 0 0 1-.8-.47.5.5 0 0 1 .38-.41.5.5 0 0 1 .53.18.51.51 0 0 1-.1.7ZM30.94 39.91A1.42 1.42 0 0 1 29.1 39a1.45 1.45 0 0 1 .9-1.9 1.49 1.49 0 0 1 1.92.95 1.46 1.46 0 0 1-.97 1.87h-.01ZM39.32 31.95a1 1 0 0 1-1.22-1.4 1 1 0 0 1 1.9.52.98.98 0 0 1-.68.88ZM35.32 37.95a1 1 0 0 1-1.22-1.4 1 1 0 0 1 1.9.52.99.99 0 0 1-.68.88ZM37.32 34.95a1 1 0 1 1-.64-1.9 1 1 0 0 1 .64 1.9ZM26.6 39.88a1.89 1.89 0 0 1-2.47-1.24 1.94 1.94 0 0 1 1.21-2.53 2 2 0 0 1 1.95 3.4c-.2.16-.43.29-.69.36v.01ZM22.6 36.88a1.9 1.9 0 0 1-2.47-1.23 1.94 1.94 0 0 1 1.21-2.54 1.99 1.99 0 0 1 2.55 1.27 1.94 1.94 0 0 1-1.3 2.5h.01ZM20.61 31.88a1.9 1.9 0 0 1-2.48-1.24 1.93 1.93 0 0 1 1.21-2.53 2 2 0 0 1 2.44 2.79 1.94 1.94 0 0 1-1.18.96l.01.02ZM21.6 26.88a1.89 1.89 0 0 1-2.47-1.23 1.94 1.94 0 0 1 1.21-2.54 2 2 0 0 1 2.55 1.27 1.94 1.94 0 0 1-1.29 2.5ZM31.25 22.85a2.36 2.36 0 0 1-3.1-1.54 2.43 2.43 0 0 1 1.53-3.17 2.5 2.5 0 0 1 2.43 4.25c-.25.21-.54.37-.86.46ZM25.6 22.88a1.89 1.89 0 0 1-2.47-1.23 1.94 1.94 0 0 1 1.21-2.54 2 2 0 0 1 2.55 1.28 1.94 1.94 0 0 1-1.29 2.49ZM38.66 27.97a.5.5 0 0 1-.66-.4.5.5 0 0 1 .54-.57.5.5 0 0 1 .43.34.5.5 0 0 1-.31.63ZM37.66 24.97a.5.5 0 0 1-.6-.7.5.5 0 0 1 .94.27.5.5 0 0 1-.34.43ZM35.66 22.97a.5.5 0 1 1 .17-.1.5.5 0 0 1-.17.1ZM34.53 18.8a2.47 2.47 0 0 1-.78-4.08 2.5 2.5 0 1 1 .78 4.07ZM14.52 25.78a2.4 2.4 0 0 1-1.3-3.24 2.44 2.44 0 0 1 3.23-1.34 2.48 2.48 0 0 1 1.34 3.3 2.44 2.44 0 0 1-3.27 1.28ZM13.23 30.83A1.97 1.97 0 0 1 12 28.98a2 2 0 0 1 1.25-1.84 1.96 1.96 0 0 1 1.52.03A1.97 1.97 0 0 1 16 29.02a2 2 0 0 1-1.25 1.84 1.96 1.96 0 0 1-1.52-.03ZM15.22 35.84a2 2 0 1 1 1.56-3.68 2 2 0 0 1-1.56 3.68ZM17.9 39.87a1.41 1.41 0 0 1-.77-1.93 1.46 1.46 0 0 1 1.94-.82 1.49 1.49 0 0 1 .8 2 1.46 1.46 0 0 1-1.96.74ZM22.91 42.88a1.5 1.5 0 1 1 1.18-2.76 1.5 1.5 0 0 1-1.18 2.76ZM33.92 42.88a1.5 1.5 0 1 1 1.96-.8 1.48 1.48 0 0 1-1.96.8ZM27.91 43.88a1.5 1.5 0 1 1 1.97-.8 1.48 1.48 0 0 1-1.97.8ZM38.61 39.92a1 1 0 1 1 1.3-.52.98.98 0 0 1-1.3.52ZM28.52 16.78a2.36 2.36 0 0 1-1.3-3.2c.56-1.31 1.93-1.93 3.23-1.38a2.49 2.49 0 0 1 1.34 3.31 2.42 2.42 0 0 1-3.27 1.27ZM22.52 17.78a2.36 2.36 0 0 1-1.3-3.2c.56-1.31 1.93-1.93 3.23-1.38a2.49 2.49 0 0 1 1.34 3.32 2.42 2.42 0 0 1-3.27 1.26ZM17.52 20.78a2.35 2.35 0 0 1-1.3-3.2c.56-1.31 1.93-1.93 3.23-1.38a2.49 2.49 0 0 1 1.34 3.31 2.43 2.43 0 0 1-3.27 1.27ZM41.62 34.92a1 1 0 1 1 1.3-.53.98.98 0 0 1-1.3.53ZM43.31 29.96a.5.5 0 0 1-.22-.74.5.5 0 1 1 .4.78.5.5 0 0 1-.18-.04ZM40.5 21.21a.77.77 0 0 1-.35-.28.73.73 0 0 1 0-.84.77.77 0 0 1 .36-.27.8.8 0 0 1 .85.17c.1.11.18.25.2.4.03.14.02.29-.05.43a.73.73 0 0 1-.42.4.78.78 0 0 1-.59 0ZM42.3 24.96a.5.5 0 0 1-.21-.74.5.5 0 0 1 .87.48.48.48 0 0 1-.46.3.49.49 0 0 1-.2-.04Z" fill="#004985"/></svg>