<!-- by TradeStack --><svg viewBox="0 0 56 56" xmlns="http://www.w3.org/2000/svg"><path fill="#F0F3FA" d="M0 0h56v56H0z"/><path d="M8.02 33 4 24h1.22l2.8 6.62L10.78 24H12l-3.98 9ZM13 33v-9h1v9h-1ZM17 33v-9h5v1h-4v2.55h4v1h-4V32h4V33h-5ZM34.86 31.54l-1.75-2.03-.2.15c-.4.25-.67.5-.83.7-.15.2-.23.44-.23.69 0 .37.13.66.39.91.25.25.56.37.95.37.26 0 .54-.07.8-.2.28-.12.56-.32.87-.59Zm-1.44-2.87.31-.17c.23-.13.39-.27.51-.45.1-.17.18-.34.18-.54a.73.73 0 0 0-.23-.57.85.85 0 0 0-.61-.22.85.85 0 0 0-.62.22.77.77 0 0 0-.23.57c0 .12.02.22.07.35.05.1.1.22.2.3l.42.51Zm2.6 4.23-.7-.82a3.01 3.01 0 0 1-2.19.92c-.64 0-1.15-.17-1.54-.54-.38-.38-.59-.85-.59-1.41 0-.42.13-.8.41-1.14.29-.35.7-.7 1.24-1l-.31-.31a2.21 2.21 0 0 1-.36-.55c-.08-.2-.1-.4-.1-.62 0-.42.15-.79.46-1.03.3-.28.7-.4 1.18-.4.5 0 .9.12 1.19.4.3.27.44.61.44 1.06 0 .35-.1.64-.31.91-.2.28-.54.55-1 .82l1.56 1.83.42-.47c.12-.17.28-.37.43-.6l.52.55c-.13.2-.29.4-.44.57-.15.17-.3.35-.49.5L37 32.9h-.98ZM44 28c-.6-.66-1.45-1-2.33-1-1.53 0-2.67.96-2.67 2.5 0 1.55 1.15 2.5 2.7 2.5.87 0 1.74-.38 2.3-1.05v1.31c-.7.48-1.5.74-2.38.74A3.57 3.57 0 0 1 38 29.52C38 27.5 39.7 26 41.7 26a4 4 0 0 1 2.3.71V28ZM24 33v-9h1v7.98h4V33h-5ZM45 28v5h1v-5h-1ZM51.04 30c-.05-.84-.7-1.22-1.51-1.22-.77 0-1.46.41-1.52 1.22h3.03Zm-3.03.6c0 .98.64 1.58 1.65 1.58.74 0 1.28-.25 1.66-.86l.68.4A2.65 2.65 0 0 1 49.64 33C48.15 33 47 31.97 47 30.47c0-1.44 1.12-2.47 2.55-2.47 1.48 0 2.45 1.03 2.45 2.47v.14h-3.99Z" fill="#2B2A29"/><circle cx="45.5" cy="26.5" r=".5" fill="url(#a0hzj0cpp)"/><defs><linearGradient id="a0hzj0cpp" x1="45.5" y1="26" x2="45.5" y2="27"><stop offset="1" stop-color="#181B1E"/></linearGradient></defs></svg>