<!-- by TradeStack --><svg viewBox="0 0 56 56" xmlns="http://www.w3.org/2000/svg"><path fill="#F0F3FA" d="M0 0h56v56H0z"/><path d="M6 21h3.1c2.3 0 3.4.84 3.4 2.5 0 1.52-1 2.23-2.38 2.59 1.22.08 2.88.65 2.88 2.53a3.2 3.2 0 0 1-1.42 2.73c-.94.66-2.24.66-3.33.65H6V21Zm1 5c1.67 0 4.5-.2 4.5-2.5 0-1.53-1.36-2-3-2H7V26Zm0 5.5h1.88c1.54 0 3.12-1.03 3.12-2.5 0-1.9-1.59-2.5-3.5-2.5H7v5ZM20 30.5c0 .64.02.97 1 .75v.36c-.5.39-.66.39-1 .39-.56 0-.9-.42-1-1.17A4.06 4.06 0 0 1 16.2 32c-1.17 0-2.2-.8-2.2-2 0-1.86 1.5-2.08 3.06-2.33 1.3-.21 1.95-.3 1.95-1.08 0-1.2-.9-1.9-2.13-1.9-1.22 0-1.85.76-1.97 1.12h-.19v-.92a4.7 4.7 0 0 1 2.66-.89c1.74 0 2.62.9 2.62 2.73v3.78Zm-.99-2.68-.84.1c-1.12.22-3.17.6-3.17 2.08 0 1.02.98 1.31 1.99 1.31.39 0 2.02-.57 2.02-1.12v-2.37ZM21.97 30.3c.38.64 1.27 1.2 2.03 1.2.8 0 1.5-.63 1.5-1.5 0-2.5-4-1-4-3.5 0-1.57 1.27-2.5 2.72-2.5.84 0 1.54.24 1.84.42-.16.38-.3.76-.39 1.16h-.14c-.22-.54-.7-1.08-1.3-1.08-.81 0-1.73.62-1.73 1.5 0 2.08 4 .83 4 3.43 0 1.74-1.56 2.57-2.97 2.57-.66 0-1.47-.18-2.03-.52.13-.38.28-.78.34-1.2h.13v.02ZM29 22v2h1.8a.92.92 0 0 0 0 .5H29v4.3c0 2.2.03 2.63 1.3 2.63.23 0 .47-.06.7-.1v.38c-.4.17-.84.29-1.28.29-1.17 0-1.8-.57-1.72-2.55V24.5h-1a.9.9 0 0 0 0-.49h1v-1.5l1-.51ZM33 32c-.19-.01-.33-.04-.5-.04-.18 0-.33.03-.5.04v-8c.17.01.32.04.5.04.17 0 .31-.03.5-.04v8ZM42 32h-1v-1.64A3.34 3.34 0 0 1 38 32c-2 0-4-1.42-4-4 0-2.18 1.67-4 4-4 1.23 0 2.38.8 3 1.75V20h1v12Zm-4-7.5c-2.27 0-3 1.5-3 3.5s.94 3.5 3 3.5 3-1.5 3-3.5c0-1.69-1.2-3.5-3-3.5ZM49.6 31.04c-.79.56-1.8.96-2.78.96C44.6 32 43 30.52 43 28c0-2.27 1.1-4 3.5-4 1.8 0 3.5 1 3.5 4h-6c-.14 1.82 1.27 3.33 3.23 3.33 1.1 0 1.96-.7 2.4-1.13l-.03.84ZM49 27.5c-.04-1.41-.9-3-2.5-3-1.52 0-2.4 1.64-2.5 3h5Z" fill="#008A8B"/><path d="M34.4 22.12a2.5 2.5 0 1 0-3.8-3.24 2.5 2.5 0 0 0 3.8 3.24ZM6.26 37c4.67-1.3 12.31-2.58 23.04-2.97 10.81-.38 20.7-.21 20.7-.21v-.56S45.16 33 42.19 33c-2.96 0-13.28 0-17.34.17-4.09.18-12.1.82-18.5 2.14l.42.3-.28.37s1.43-.36 2.48-.4c-.9.18-2.97.77-2.97.77l.27.26-.01.39Z" fill="#EA0029"/></svg>