<!-- by TradeStack --><svg viewBox="0 0 56 56" xmlns="http://www.w3.org/2000/svg"><path fill="#F0F3FA" d="M0 0h56v56H0z"/><path d="M21.62 25.46c-.84 0-1.42.62-1.54 1.54h2.9c.02-.95-.51-1.54-1.36-1.54Zm3.3 2.88h-4.87c-.02 1.44.71 2.13 2.17 2.13.78 0 1.61-.18 2.3-.49l.19 1.53c-.84.33-1.84.49-2.82.49-2.5 0-3.89-1.22-3.89-3.92 0-2.35 1.33-4.08 3.69-4.08 2.3 0 3.31 1.53 3.31 3.43-.02.27-.03.58-.08.9ZM35.5 32v-5.03c0-1.1-.16-1.79-1.16-1.79-1.1 0-2.09 1.18-2.09 3.08V32h-1.5v-5.05c0-.98-.15-1.77-1.2-1.77-1.18 0-2.05 1.28-2.05 3.08V32H26v-8h1.5v1.5c.45-1.1 1.2-1.5 2.44-1.5 1.63 0 2.06 1.15 2.13 1.79A2.88 2.88 0 0 1 34.71 24c1.45 0 2.29.8 2.29 2.57V32h-1.5ZM41.5 36c-1.47 0-3.5-.47-3.5-2.28 0-1.11.87-1.83 1.9-2.04-.45-.2-.9-.67-.9-1.18 0-.6.8-1.5 1.5-1.9-.95-.38-1.5-1.1-1.5-2.1 0-1.5.98-2.5 3-2.5h4v1h-2c.5 0 1 .83 1 1.5 0 1.76-1.5 2.5-3 2.5-.24 0-.7-.02-.94-.06-.5.27-1.06 1.13-1.06 1.56 0 .62 1.11.5 1.56.5h1.49c1.84 0 2.84.77 2.84 2.2 0 2.31-2.56 2.8-4.39 2.8Zm-.04-1c1.11 0 3.15-.16 3.15-1.68 0-1.1-1.14-1.32-2-1.32h-1.46c-.95 0-1.87.6-1.87 1.67 0 .9.76 1.33 2.18 1.33Zm.54-7c1.22 0 2-.36 2-1.5 0-1.05-.92-1.5-2-1.5-1.16 0-2 .28-2 1.5 0 1.11.82 1.5 2 1.5ZM52 29.75c0 1.59-1.36 2.25-2.78 2.25-.99 0-1.68-.18-2.22-.49v-1.07c.68.37 1.44.56 2.22.56.79 0 1.78-.3 1.78-1.25 0-.89-1.13-1.17-1.8-1.44-1.08-.45-2.2-.98-2.2-2.31 0-1.44 1.36-2 2.62-2 .85 0 1.59.2 2.23.5l-.36.94a4.29 4.29 0 0 0-1.87-.44c-.97 0-1.62.38-1.62 1 0 .91 1.18 1.18 1.86 1.46 1.07.44 2.14 1 2.14 2.29ZM6.52 28c-1.09 0-1.93.67-2.52 1.2V32h11v-3.1a4.47 4.47 0 0 1-2.73 1.11C9.5 30.01 8.57 28 6.52 28ZM9 24h-.5v3.14c.18.1.34.22.5.34V24ZM10.5 24H10v3.9c.16.14.33.28.5.4V24ZM6 24h-.5v3.01c.16-.08.33-.13.5-.15V24ZM7.5 24H7v2.84c.18.02.34.04.5.1V24ZM14.5 24v4.08c.18-.18.35-.38.5-.58V24h-.5ZM4.5 24H4v3.77a4 4 0 0 1 .5-.46V24Z" fill="#16191D"/><path d="M12 24h-.5v4.58c.23.07.24.1.5.14V24ZM13.5 24H13v4.7c.16-.04.33-.12.5-.25V24Z" fill="#16191D"/></svg>