<!-- by TradeStack --><svg viewBox="0 0 56 56" xmlns="http://www.w3.org/2000/svg"><path fill="#F0F3FA" d="M0 0h56v56H0z"/><path fill-rule="evenodd" d="M43 13H13v30h30V13ZM20 40v-8h1.56l2.46 6.52L26.53 32H28v8h-1v-6.4L24.5 40h-.94L21 33.6V40h-1Zm9-8h2.61a2 2 0 0 1 1 3.73A2.22 2.22 0 0 1 31.8 40H29v-8Zm1 1h1.41a1.17 1.17 0 1 1 0 2.34H30V33Zm0 3.37h1.68a1.32 1.32 0 1 1 0 2.63H30v-2.63ZM37.61 32H35v8h2.79a2.21 2.21 0 0 0 .82-4.27 2 2 0 0 0-1-3.73Zm-.2 1H36v2.34h1.41a1.17 1.17 0 1 0 0-2.34Zm.27 3.37H36V39h1.68a1.32 1.32 0 1 0 0-2.63Z" fill="#1D1D1B"/></svg>