<!-- by TradeStack --><svg viewBox="0 0 56 56" xmlns="http://www.w3.org/2000/svg"><path fill="#16312A" d="M0 0h56v56H0z"/><path d="M14.74 30c-.43 1.89-2.23 3-4.24 3C7.7 33 6 30.85 6 28.5c0-2.38 1.69-4.5 4.48-4.5 2.8 0 4.8 2.16 4.49 5.29H8.5c.12 1.35.96 2.04 2.1 2.04.86 0 1.68-.57 1.8-1.33h2.33Zm-6.2-2.37h3.88c-.14-1.25-.83-1.98-1.94-1.98-1.08 0-1.84.73-1.95 1.98ZM18.6 33H16v-9h2.52v1.9h.05c.3-1.23 1.14-1.9 2.46-1.9 2.04 0 2.97 1.29 2.97 3.51V33h-2.5v-4.85c0-1.82-.55-2.46-1.5-2.46s-1.41.71-1.41 2.35V33ZM28.76 24c1.2-.03 2.39.9 2.74 2.02V21H34v12h-2.5v-1.94A2.8 2.8 0 0 1 28.76 33c-2.4 0-3.76-2.02-3.76-4.46 0-2.43 1.48-4.54 3.76-4.54Zm2.74 4.54c0-1.75-.58-2.81-1.89-2.81-1.3 0-2.11 1.06-2.11 2.81s.8 2.81 2.11 2.81c1.31 0 1.89-1.06 1.89-2.8ZM40.5 24H43v9h-2.5v-1.91c-.23 1.17-1.3 2-2.5 1.9-2.06 0-3-1.29-3-3.5V24h2.5v4.85c0 1.82.53 2.45 1.49 2.45s1.51-.7 1.51-2.35V24ZM46.5 33H44v-9h2.5v1.9c.28-1.23 1.09-1.9 2.5-1.9v2h-.28c-1.86 0-2.22.68-2.22 2.32V33Z" fill="#fff"/><path d="M40.05 23.1A4.03 4.03 0 0 0 41.4 21h-2.42a6.78 6.78 0 0 1-.8 3.27l.34-.17a6 6 0 0 0 1.52-1" fill="#fff"/></svg>