<!-- by TradeStack --><svg viewBox="0 0 56 56" xmlns="http://www.w3.org/2000/svg"><path fill="#F0F3FA" d="M0 0h56v56H0z"/><path d="M4 23v6.42C4 30.3 4.67 31 5.49 31H14v-1.5H6.17c-.17 0-.17-.07-.17-.24V23H4Zm11 0h2v1h-2v-1Zm0 2h2v6h-2v-6Z" fill="url(#agmgiz2rn)"/><path d="M33 23h-2v1h2v-1Zm0 2h-2v6h2v-6Zm-12-2h-2v2h-1v1.5h1V31h2v-4.5h1V25h-1v-2Zm2 0h2v2h3.41c.88 0 1.59.73 1.59 1.63V31h-2v-4.24c0-.18-.05-.26-.23-.26H25V31h-2v-8Zm11 6.4V25h2v4.17c0 .18.03.33.2.33h2.53c.16 0 .27-.15.27-.33V25h2v4.4c0 .88-.64 1.6-1.44 1.6h-4.12c-.8 0-1.44-.72-1.44-1.6Zm8 1.6v-6h8.44c.84 0 1.56.72 1.56 1.6V31h-2v-4.13c0-.18-.05-.32-.22-.32H48V31h-2v-4.45h-2V31h-2Z"/><path fill="#00A0DA" d="M4 32h13v2H4z"/><path fill-opacity=".3" d="M19 32h33v2H19z"/><defs><linearGradient id="agmgiz2rn" x1="8.05" y1="23" x2="14.53" y2="31.1" gradientUnits="userSpaceOnUse"><stop stop-color="#06329B"/><stop offset="1" stop-color="#0791D9"/></linearGradient></defs></svg>