<!-- by TradeStack --><svg viewBox="0 0 56 56" xmlns="http://www.w3.org/2000/svg"><path fill="#F0F3FA" d="M0 0h56v56H0z"/><path d="M15 11h26v5H23.14l2.48-5h-2.27l-2.47 5H15v-5Zm5.39 6H15v28h12.85A13.2 13.2 0 0 1 15 32c0-2.72.5-5.3 2.23-8.62L20.4 17Zm7.48 28H41V17H22.64L19 24.31c-1.31 2.69-2 4.25-2 7.7a11.2 11.2 0 0 0 10.86 11C34.36 42.99 39 38.72 39 32.76 39 27 35.05 23 29.82 23c-2.74 0-4.93.91-6.43 2.41S21 28.86 21 31.71A7.22 7.22 0 0 0 28.2 39c3.82 0 6.8-2.9 6.8-6.56 0-3.13-2.17-5.44-5.18-5.44-1.5 0-2.7.43-3.5 1.17-.79.74-1.32 1.77-1.32 3.44 0 1.95 1.6 3.39 3.2 3.39 1.58 0 2.8-.89 2.8-2.56 0-.57-.05-.88-.21-1.06-.63-.7-1.54-.75-1.52.42V32H26.8v-.39c0-1.19.73-2.61 2.76-2.61 2.18 0 3.44 1.26 3.44 3.44 0 2.77-2.13 4.56-4.8 4.56a5.36 5.36 0 0 1-5.2-5.4c0-2.1.7-3.71 1.97-4.9a7 7 0 0 1 4.85-1.7c4.22 0 7.18 3.32 7.18 7.44A8.62 8.62 0 0 1 28.2 41c-5.37 0-9.2-4.5-9.2-9.28 0-3.1 1.05-5.8 2.98-7.72 1.92-1.92 4.64-3 7.84-3C36.32 21 41 26.25 41 32.77 41 40 35.3 45 27.87 45Z"/><circle cx="29.5" cy="31.5" r="1.5" fill="#FF0016"/></svg>