<!-- by TradeStack --><svg viewBox="0 0 56 56" xmlns="http://www.w3.org/2000/svg"><path fill="#5D7F98" d="M0 0h56v56H0z"/><path d="m32.09 24.85-.1.22c.65-.36 1.77-.88 3.57-1.43 3.49-1.06 9.48-2.27 9.48-2.27s-6.04.97-9.68 1.18c-1.86.1-3.08.02-3.82-.1.62.62.86 1.54.55 2.4Zm-4.45-1.26.08-.28a2.31 2.31 0 0 1 1.93-1.51 18.66 18.66 0 0 1-3.02-2.33C23.96 17.03 19.91 13 19.91 13s3.86 4.18 5.87 7.19c1.06 1.6 1.6 2.7 1.86 3.4Zm-20.37 9.4h7.74l2.21-6.2c.2-.57-.28-.79-1.44-.79h-5.75c-1.06 0-1.7.22-1.9.8L7.64 28h2.94l.37-1h3.1l-.66 2H8.78c-1.06 0-1.69.26-1.9.84l-.83 2.33c-.2.57.2.82 1.22.83ZM9.92 30h3.1l-.65 2h-3.1l.65-2Zm13.6-3-.39 1h3.21l.51-1.24c.2-.58-.28-.76-1.44-.76h-7.29l-2.52 7h3.25l2.1-6h2.57Zm4.15-1-2.52 7h3.18l2.52-7h-3.18Zm3.6 3.22 4.44 1.45-.4 1.33h-2.84l.36-1H29.7l-.45 1.13c-.2.58.28.86 1.45.87h5.53c1.17 0 1.86-.3 2.07-.87l.62-1.76c.12-.33-.12-.6-.71-.78l-4.44-1.44.36-1.15h2.85l-.36 1h3.06l.48-1.2c.2-.58-.28-.8-1.44-.8h-5.48c-1.18 0-1.88.22-2.09.8l-.59 1.65c-.11.32.12.58.7.77ZM48.5 26h-5.73c-1.17 0-1.86.21-2.07.8l-1.9 5.33c-.2.58.28.86 1.45.87h5.73c1.17 0 1.85-.3 2.06-.87l.46-1.13h-3.1l-.35 1H42l.7-2h4.56c1.05 0 1.7-.46 1.91-1.03l.77-2.18c.2-.58-.27-.79-1.44-.79Zm-2.4 3h-3.05l.65-2h3.04l-.65 2Z" fill="#fff"/></svg>