<!-- by TradeStack --><svg viewBox="0 0 56 56" xmlns="http://www.w3.org/2000/svg"><path fill="#1E2957" d="M0 0h56v56H0z"/><path d="m23.54 43.31 2.44.69c1.12-1.78 3.5-5.93 4.07-8.3.7-2.97 2.7-5.14 4.43-5.5.08-.03.2-.05.11.18l-.06.16a4.42 4.42 0 0 0-.43 1.62c0 .71.6.71.73.71s.58-.1.58-.71c0-.62-.25-2.04-.67-2.19-.4-.14-2.71.1-4.33 1.95-.05-.6-.22-2-.62-2.77-.24.16-.79.88-1.02 2.42-.11.74-.17 1.38-.22 1.92-.09.87-.15 1.44-.33 1.62-.3.3-.48-1.77-.48-2.36 0-.6.47-5.94 6.36-7.63.81-.15 2.77-.31 4.06.22-1.3-.06-4.34.5-6.05 3.28 1-.86 3.68-2.46 6.4-2-.22.2-.69.7-.73 1.16-.23.5-.69 1.62-.69 2.2 0 .7.55.72.69.72.14 0 .66-.08.66-.73s-.36-1.5-.58-1.95c.14-.3.67-.89 1.7-.89 1.27 0 3.83 2.2 2.74 6.07a3.88 3.88 0 0 0-1.2-3.16 3.51 3.51 0 0 0-.97 2.33c0 .67.22 1.05.43 1.4.22.37.43.71.34 1.34-.18 1.22-1.47 1.47-1.6 1.47h-.03c-.2.03-.8.1-2.61-1.1a2.25 2.25 0 0 0-1.16-.28c-.76 0-1.5.13-2.28 1.38a.65.65 0 0 0 .27.64l.1.07c.39.3 1.19.9 2.7.9.3 0 1.04-.12 1.43-.68.15.29.53.87.78.87s.1-.46 0-.68c1.76-.12 5.29-1.67 5.29-7 .06-1.13-.67-4.18-4.14-7.41-.44-.45-1.33-1.54-1.33-2.35 0-1 .74-1.41 1.1-1.41.37 0 .54.4.54.99 0 .6.36.99.67.99.24 0 .31-.13.4-.27l.07-.11.06-.1c.1-.16.21-.33.45-.09.2.2.2.43.22.75.01.17.02.36.06.58l.01.09c.1.57.11.69.8 1.07.6.31 1.11.5 1.3.56a21.96 21.96 0 0 0-1.2-3.29c-.4-.72-1-1.78-2.43-2.2-1.54-.43-3.12.6-3.12 2.1 0 1.19.71 2.38 1.07 2.83-.5-.14-1.75-.42-2.75-.4.5-.18 1.44-.84 1.11-2.02a2 2 0 0 1-1.64 1.32.63.63 0 0 0-.12-.04c-.22-.05-.64-.15-.72-.57a2.88 2.88 0 0 0-2.92-2.09c0-.28.17-.98.9-1.57a3 3 0 0 0-.66.09 1.3 1.3 0 0 0-1-.46c-.65 0-1.38.49-1.38 1.94s.7 3.56 3.6 3.8l-1.1.57-.03-.57c-.18.3-.65.99-1.1 1.22.14-.38.43-1.18.4-1.35-.03-.18-.26-.19-.38-.17.02.55-.4 1.97-2.2 3.2-.33-.73-1-2.56-1-4 0-1.81.47-6.95 5.2-8.1.14-.03.43.02.36.45-.21-.06-.66-.06-.75.42-.09.46.15.49.29.44-.18.06-.53.3-.53.71 0 .54.41.79.78.79.37 0 .76-.36.76-.57 0-.17-.05-.35-.07-.42.08.03.28.1.46.1.23 0 .53-.2.53-.67 0-.46-.3-.64-.53-.64-.18 0-.46.17-.57.26l-.04-1.05c.7.01 2.3.13 3.13.55-.37.04-1.1.23-1.1.67 0 .44.72.63 1.65.88a65.18 65.18 0 0 1 3.72 1.2c-1-1.53-4.02-4.57-8.1-4.57-.77.02-2.62.3-3.78 1.27A5.72 5.72 0 0 0 24.67 12c-1.94 0-2.89.52-3.12.78 1.07-.37 3.78-.4 6 2.49-.23.34-.75 1.2-.95 1.86a11.12 11.12 0 0 0-4.62-1.43c-.1 0-1.62-.01-1.9-1.09.14.17.6.49 1.27.49.68 0 1.1-.32 1.22-.49a2.7 2.7 0 0 0-2.13-1.21c-1.09 0-1.26.94-1.2 1.4.01.2.17.68.63 1.05A9.56 9.56 0 0 0 12 24.83 7.65 7.65 0 0 1 14.5 22c1.49-1.04 3.61-2.54 1.02-2.37a7.55 7.55 0 0 1 5.55-2.35c.48 0 1.51.03 1.8.13v.82c-.1-.14-.34-.41-.59-.41-.3 0-.54.47-.54 1.01s.45 1.13 1.29 1.13c.83 0 1.13-.88 1.13-1.13 0-.25-.24-1.01-.83-1.01v-.39a8.6 8.6 0 0 1 2.72 1.26c-.37.8-.97 3.06-.38 5.64-.72-.4-2.75-1.2-5.14-1.2-2.98 0-8.17 1.92-8.17 8.44 0 6.53 6.56 6.53 8.17 6.1a5.91 5.91 0 0 0-2.82-2.61l-.07-.03c-2.13-1.02-4.04-1.93-2.18.74a5.18 5.18 0 0 1-2.03-4.2 6.8 6.8 0 0 1 6.19-6.55c-.3.21-.9.87-.98 1.77a6.1 6.1 0 0 1 3.9-1.36c1.95 0 3.79 1.97 4.47 2.96-.36.71-1.08 2.69-1.05 4.86l-.98-.5c.18-.74.1-2.4-1.69-3.15-1.46-.62-2.17-.42-2.75-.27-.31.09-.59.16-.92.1-.44-.06-.54-.23-.67-.44-.15-.25-.35-.58-1.24-.9l-.2-.32-.27.32c-.1-.05-.4-.03-.76.43l-.08.16c-.21.12-.62.4-.57.49.05.09.36.43.5.59l.07.07c.01.02.06-.01.12-.05.09-.06.21-.15.3-.1.17.05.42.38.42.68 0 .3-.17.73-.96.88-.34.06-.55.03-.7.01-.2-.03-.28-.04-.42.2-.25.43-.06.75.13.76.06 0 .26-.09.51-.2.5-.2 1.22-.51 1.56-.44.2.05.47.17.75.3.48.21 1 .45 1.32.4.42-.05.52-.33.52-.46.75.25 2.6 1.03 3.93 2.15-.34.25-1.03 1-1.03 1.95 0 1.19.92 1.2 1.12 1.2.2 0 .77-.36.77-.89 0-.52-.77-.4-.77-.26v.12c.03.18.07.46-.17.46-.3 0-.44-.33-.44-.7 0-.28.66-1.1 1-1.49.46.4 1.6 1.65 2.52 3.4-.37.86-1.56 3.16-3.34 5.56Zm5.26-1.99c.35-.63 1.08-2 1.22-2.41.72 1.21 2.3 3.8 2.85 4.4-.51.19-1.74.56-2.55.6l-1.52-2.59Zm10.34-5.26a9.23 9.23 0 0 1-2.13-1.03c1.26-.14 1.99.26 2.39.48.1.06.17.1.23.12.3.1.19.56-.49.43Zm-19.63-14.7c-.29.44-1.08 1.33-1.93 1.28-1.07-.06-.43-1.95.52-2 .75-.05 1.06-.05 1.12-.05-.5-.39-1.39-1.3-.98-1.87.32-.43.54 0 .8.48.16.31.34.64.56.78.33.22.5.07.66-.07.1-.1.2-.18.34-.16.06.02.12.02.2.03.35.04.81.09.75.85-.07-.14-.25-.43-.46-.45.14.2.23.63-.5.72.05.05.39.52.13.92a.76.76 0 0 0-.42-.53c.16.25.34.84-.18 1.19.03-.32.05-.97-.18-1.01a2.7 2.7 0 0 1-.43-.12Z" fill="#F69220"/></svg>