<!-- by TradeStack --><svg fill="none" xmlns="http://www.w3.org/2000/svg" viewBox="0 0 56 56"><path fill="#719AB6" d="M0 0h56v56H0z"/><path d="M46.879 23C48.05 23 49 22.105 49 21s-.95-2-2.121-2H37.12C35.95 19 35 19.895 35 21s.95 2 2.121 2h9.758ZM36.879 38C38.05 38 39 37.105 39 36s-.95-2-2.121-2H27.12C25.95 34 25 34.895 25 36s.95 2 2.121 2h9.758ZM41.879 31C43.05 31 44 30.105 44 29s-.95-2-2.121-2H32.12C30.95 27 30 27.895 30 29s.95 2 2.121 2h9.758ZM19.07 19.352c.454.315.773.81.885 1.376.113.566.01 1.157-.285 1.642l-8.91 14.637c-.296.485-.76.825-1.29.945s-1.084.011-1.54-.304a2.188 2.188 0 0 1-.885-1.376 2.304 2.304 0 0 1 .285-1.642l8.91-14.637c.296-.485.76-.825 1.29-.945a1.94 1.94 0 0 1 1.54.304Z" fill="#F0F3FA"/><path d="M25.24 37.006c.615 1.01 1.882 1.298 2.829.642.947-.656 1.216-2.007.6-3.018L19.76 19.994c-.615-1.01-1.882-1.298-2.829-.642-.947.656-1.216 2.007-.6 3.018l8.909 14.636Z" fill="#F0F3FA"/><path d="M38.644 22.37a2.17 2.17 0 0 0-.647-3.018 2.214 2.214 0 0 0-3.046.641L25.356 34.63a2.17 2.17 0 0 0 .647 3.018c1.02.656 2.383.369 3.046-.641l9.595-14.637Z" fill="#F0F3FA"/><path d="M30.027 29.975c.65 1.042 1.988 1.338 2.989.662 1-.677 1.285-2.071.635-3.113l-4.678-7.5c-.65-1.041-1.988-1.338-2.989-.66-1 .676-1.285 2.07-.635 3.112l4.678 7.5Z" fill="#FF7400"/></svg>