<!-- by TradeStack --><svg viewBox="0 0 56 56" xmlns="http://www.w3.org/2000/svg"><path fill="#ED7A21" d="M0 0h56v56H0z"/><path d="M31 11.03h-.64l-.96 1.15a7.05 7.05 0 0 0-1.7-.87 7.7 7.7 0 0 0-2.96-.28c-3.72 0-4.71 2.05-4.74 3.08v22.28c0 1.78 1.67 3.61 5 3.61 2.67 0 4.6-1.54 5-2.1v1.92c0 1.33-1.4 2.18-2.73 2.18H21v3h10V11.03Zm1 33.95V11.03h.5V44.9c-.16.04-.33.06-.5.08Zm1.5-.42c.17-.09.34-.18.5-.29V11.03h-.5v33.53ZM35 11.03V43.4a4.2 4.2 0 0 0 1-2.7V11.03h-1ZM26 16A2 2 0 0 1 28 14a2 2 0 0 1 2 1.99v19.02A2 2 0 0 1 28 37a2 2 0 0 1-2-1.99V15.99Z" fill="#fff"/></svg>