<!-- by TradeStack --><svg viewBox="0 0 56 56" xmlns="http://www.w3.org/2000/svg"><path fill="#F0F3FA" d="M0 0h56v56H0z"/><path d="M12 24.11a6.07 6.07 0 0 0-1.16-.11c-.28 0-.62 0-.95.05a8.45 8.45 0 0 1-2.69 3.03V29a12.96 12.96 0 0 0 4.8-4.89Z" fill="#FC990F"/><path d="M7 27.4v-6.32a6.93 6.93 0 0 0-2 0v10.84a5.47 5.47 0 0 0 2 0V27.4Z" fill="url(#ac54y1l4k)"/><path d="M9.23 28c-.24.25-.84.85-1.23 1.1l2.07 2.85a4.72 4.72 0 0 0 1.93-.1L9.23 28Z" fill="#DA0127"/><path d="M16.64 24A3.3 3.3 0 0 1 20 27.36c0 .28-.02.59-.05.93l-.02.21h-5.47c.1 1.24 1.02 2 2.3 2 .9 0 1.52-.27 2.19-.78.39.19.67.74.78 1.16A4.56 4.56 0 0 1 16.75 32C14.48 32 13 30.22 13 28.02c0-2.08 1.44-4.02 3.64-4.02Zm0 1.5c-1.13 0-1.64.5-2.1 1.5h4.05c-.09-.5-.83-1.5-1.95-1.5ZM43.27 24c-.26 0-.52.03-.77.08V30c0 .22-1.35.5-2 .5-1.53 0-2-.59-2-2.08v-4.34a3.49 3.49 0 0 0-1.5 0v4.87c0 1.99 1.48 3.05 3.36 3.05 1.26 0 2.5-.28 3.64-.77v-7.15a3.33 3.33 0 0 0-.73-.08ZM48.72 24c-1.42 0-3.51.54-3.51 2.3 0 1.62 1.7 2.1 3.02 2.25.65.07 2.27.26 2.27.95 0 .98-1.42 1-2.13 1-.92 0-1.69-.2-2.44-.74-.41.22-.72.78-.91 1.21l-.02.05.04.03c.9.76 2.2.95 3.34.95 1.58 0 3.62-.6 3.62-2.52 0-1.71-2-2.12-3.35-2.29-.67-.08-1.9-.02-1.9-.88 0-.56.62-.81 1.8-.81.93 0 1.75.2 2.46.57l.05.03.05-.03c.34-.27.55-.84.65-1.24l.01-.05-.04-.02a5.23 5.23 0 0 0-3.01-.76ZM36 24.28c.01.2-.01.4-.07.61-.06.21-.16.63-.28.78a6.06 6.06 0 0 0-1.47-.17c-.74 0-1.23.13-1.68.4v6.04a4.43 4.43 0 0 1-1.5 0v-7.1c.36-.29.84-.46 1.43-.66a7.1 7.1 0 0 1 3.56.1ZM28.08 24c-.2 0-.38.02-.58.05h-.05v.05A22.39 22.39 0 0 1 25 30a27.72 27.72 0 0 1-2.32-5.7l-.07-.24-.05-.01a3.1 3.1 0 0 0-1.5.07l-.06.02.06.23c.77 2.64 1.44 4.63 3.1 7.05l.05.08-.06.1c-.41.61-.97 1.3-1.67 2.07l-.15.16-.08.09-.16.16-.03.04.01.04c.1.2.22.38.4.54.19.16.4.25.63.3h.04l.03-.03a22.95 22.95 0 0 0 3.07-3.93 27.2 27.2 0 0 0 2.7-6.64l.06-.2-.06-.03c-.31-.11-.6-.17-.86-.17Z" fill="#040404"/><defs><linearGradient id="ac54y1l4k" x1="6" y1="21" x2="6" y2="32" gradientUnits="userSpaceOnUse"><stop stop-color="#25C6FF"/><stop offset="1" stop-color="#2ED0FF"/></linearGradient></defs></svg>