<!-- by TradeStack --><svg viewBox="0 0 56 56" xmlns="http://www.w3.org/2000/svg"><path fill="#F0F3FA" d="M0 0h56v56H0z"/><path fill-rule="evenodd" d="M28 44a16 16 0 1 0-15.93-17.5h.43V29h-.47A16 16 0 0 0 28 44ZM12 28.18v-.36a15.2 15.2 0 0 0 0 .36Zm12.6-1.83v.15h7.18v-.15C31.56 24.67 30.39 24 28.5 24c-1.78 0-3.42.67-3.9 2.35ZM28.2 21c3.64 0 6.17 1.79 6.69 5.35.12.8.13 1.67.04 2.65H16v-2.5h5.26c.59-3.18 3.17-5.5 6.95-5.5Zm5.85 11.76c-1.37 1.43-3.61 2.11-5.6 2.11-4.01 0-6.57-2.23-7.05-5.7h3.23c.21 1.61 1.61 2.78 3.88 2.78 1.19 0 2.75-.45 3.48-1.22l2.06 2.03ZM15 29h.68v-2.5H15V29Zm-1 0h-.57v-2.5H14V29Z" fill="#004F90"/><path d="M24.64 29.16h-3.23c.03.26.08.6.14.84h3.32a3.8 3.8 0 0 1-.23-.84Z" fill="#9AB9D1"/></svg>