<!-- by TradeStack --><svg viewBox="0 0 56 56" xmlns="http://www.w3.org/2000/svg"><path fill="#F0F3FA" d="M0 0h56v56H0z"/><path d="M21.3 38.23c-.1.96.71 1.77 1.72 1.77H41.5c1.78 0 2.99-1.75 2.3-3.34l-7-16.4a1.7 1.7 0 0 0-2.28-.87 23.1 23.1 0 0 0-9.05 7.6 24.67 24.67 0 0 0-4.16 11.24Z" fill="#DC2134"/><path d="M17.92 38.27A1.88 1.88 0 0 1 16.06 40h-1.64c-1.38 0-2.5-1.09-2.41-2.42 1.03-14.83 11.49-23.2 18.37-26.37 1.2-.56 2.58.05 3.09 1.24l.76 1.79c.35.81 0 1.75-.78 2.2-3.3 1.9-7.3 4.77-10.32 8.44-3.65 4.45-4.92 9.78-5.21 13.39Z" fill="#DC2134"/></svg>