<!-- by TradeStack --><svg viewBox="0 0 56 56" xmlns="http://www.w3.org/2000/svg"><path fill="#F0F3FA" d="M0 0h56v56H0z"/><path d="M46 23.5c0-3.92-2.98-7.5-7-7.5h-4.97a6.88 6.88 0 0 0-5.53 2.84A6.97 6.97 0 0 0 22.97 16h-4.98C13.92 16 11 19.58 11 23.5c0 4.5 2.95 7.5 7 7.5h5v-3h-4.81C15.75 28 14 25.9 14 23.5c0-2.36 1.45-4.5 4-4.5h4.97A4.13 4.13 0 0 1 27 23.2v11.56c0 1.12-.36 2.22-1.12 3.01A4.06 4.06 0 0 1 22.97 39H17v3h5.97c3.59 0 7.03-3.07 7.03-6.72 0-1.4.42-2.5 1.19-3.28.77-.78 1.81-1 2.89-1h4.97c4.1 0 6.95-3.57 6.95-7.5Zm-3 0c0 2.36-1.45 4.5-3.95 4.5h-5.02c-1.47 0-2.83.57-4.03 1.46v-5.78c0-2.4 1.42-4.68 4.03-4.68h4.98c2.48 0 3.99 1.63 3.99 4.5Z" fill="#24306C"/></svg>