<!-- by TradeStack --><svg viewBox="0 0 56 56" xmlns="http://www.w3.org/2000/svg"><path fill="#F0F3FA" d="M0 0h56v56H0z"/><path d="M19.94 33.73a7.78 7.78 0 0 1-5.26 1.56 7.9 7.9 0 0 1-2.74-15.05 8.07 8.07 0 0 0 1.88 15.74 7.91 7.91 0 0 0 6.12-2.25Z" fill="#328734"/><path d="M7.62 33.27a9.6 9.6 0 0 1-1.8-6.3 9.2 9.2 0 0 1 9.7-8.7 9.14 9.14 0 0 1 7.63 5.41 9.36 9.36 0 0 0-8.2-6.66c-5.12-.36-9.56 3.62-9.92 8.9a9.64 9.64 0 0 0 2.6 7.35Z" fill="#8BB31D"/><path d="M10 27h1.29l.78 3.5h.02L13.8 27H15l-2.5 5h-1.24L10 27ZM16.33 31.05a1.9 1.9 0 0 0 1.41-.64l.78.64c-.67.68-1.44.95-2.2.95-1.48 0-2.5-1-2.3-2.5.22-1.5 1.54-2.5 3.02-2.5 1.37 0 2.17.94 1.91 2.58l-.12.42H15.2c0 .68.46 1.05 1.14 1.05ZM17.81 29c.1-.7-.48-1-1.08-1-.72 0-1.24.32-1.43 1h2.5Z" fill="#328734"/><path d="M18.98 27h.93l.19-1.5h1.14l-.2 1.5h1.16v1h-1.3l-.27 2.15c-.06.5.07.85.57.85.2 0 .73-.3.89-.42l-.43 1.25c-.26.13-.66.17-.93.17-1.2 0-1.4-.6-1.25-1.76l.3-2.24h-.93l.13-1ZM31.84 28.23a1.89 1.89 0 0 0-1.16-1.08 2.92 2.92 0 0 0-2.05.08 2.65 2.65 0 0 0-1.43 1.54c-.13.35-.2.73-.2 1.13 0 .33.05.6.16.87a1.89 1.89 0 0 0 1.16 1.08 2.91 2.91 0 0 0 2.05-.09l.26-.13L30.4 33h1l.5-3.07c.07-.27.11-.54.11-.84 0-.3-.05-.6-.16-.86ZM29.32 31c-.7 0-1.32-.55-1.32-1.22 0-.9.72-1.78 1.67-1.78.69 0 1.33.52 1.33 1.19 0 .98-.69 1.81-1.68 1.81ZM34.9 29.97l-.1.37a.98.98 0 0 1-.17.33.82.82 0 0 1-.29.24c-.12.05-.27.09-.46.09a.87.87 0 0 1-.35-.06.54.54 0 0 1-.24-.17.56.56 0 0 1-.13-.25 1.1 1.1 0 0 1-.04-.29v-.14l.01-.13.5-2.96h-1.08l-.51 3.05-.03.21-.01.2a1.44 1.44 0 0 0 .5 1.13c.16.12.36.23.58.3.22.07.47.11.76.11.32 0 .6-.04.84-.14a1.84 1.84 0 0 0 1.07-1c.1-.23.18-.49.24-.78L36.5 27h-1.08l-.53 2.97ZM42.48 27.41a1.76 1.76 0 0 0-.57-.3 2.46 2.46 0 0 0-.75-.11c-.3 0-.6.04-.82.14a1.8 1.8 0 0 0-1.05 1c-.1.23-.18.49-.23.78l-.5 3.08h1.05l.5-2.97.08-.37a.99.99 0 0 1 .17-.33.8.8 0 0 1 .29-.24c.11-.05.27-.1.45-.1.14 0 .26.03.35.07.1.05.18.1.23.17.06.07.1.15.13.25.02.1.04.2.04.29v.14l-.02.13-.49 2.96h1.06l.5-3.05.03-.21.01-.2c0-.24-.03-.45-.13-.64a.95.95 0 0 0-.33-.49ZM47.84 28.23a1.89 1.89 0 0 0-1.16-1.08 2.92 2.92 0 0 0-2.05.08 2.65 2.65 0 0 0-1.43 1.54c-.13.35-.2.73-.2 1.14 0 .32.05.6.16.86a1.89 1.89 0 0 0 1.16 1.08 2.92 2.92 0 0 0 2.05-.08 2.65 2.65 0 0 0 1.43-1.54c.13-.35.2-.73.2-1.14 0-.3-.05-.6-.16-.86ZM45.33 31c-.7 0-1.33-.55-1.33-1.22 0-.87.73-1.78 1.68-1.78.7 0 1.32.53 1.32 1.19.05.89-.74 1.81-1.67 1.81Z" fill="#328734"/><path d="M26.84 28.23a1.89 1.89 0 0 0-1.16-1.08 2.92 2.92 0 0 0-2.05.08 2.65 2.65 0 0 0-1.43 1.54c-.13.35-.2.73-.2 1.14 0 .32.05.6.16.86a1.89 1.89 0 0 0 1.16 1.08 2.92 2.92 0 0 0 2.05-.08 2.65 2.65 0 0 0 1.43-1.54c.13-.35.2-.73.2-1.14 0-.3-.05-.6-.16-.86ZM24.33 31c-.7 0-1.33-.55-1.33-1.22 0-.87.73-1.78 1.68-1.78.7 0 1.32.53 1.32 1.19.05.89-.74 1.81-1.67 1.81ZM49.22 31l.64-4h-1.08l-.8 5h2.85l.17-1h-1.78ZM37.71 27h-.73l-.17 1.02h.73L36.89 32H38l.82-5h-1.1ZM38.25 26a.75.75 0 1 0 0-1.5.75.75 0 0 0 0 1.5Z" fill="#328734"/></svg>