<!-- by TradeStack --><svg viewBox="0 0 56 56" xmlns="http://www.w3.org/2000/svg"><path fill="#F0F3FA" d="M0 0h56v56H0z"/><path fill-rule="evenodd" d="M12.86 24.22 13 26a8.8 8.8 0 0 0-2.35-.26c-1.53 0-3.45.79-3.45 2.44s1.73 2.16 3.07 2.16c1.07 0 2.17-.28 2.6-.42l-.45 1.89c-.45.1-1.82.19-2.15.19h-.06C9.49 32 4 32.12 4 28.28 4 24.3 8.78 24 10.27 24c1.2 0 2.22.14 2.6.22Zm1.56-.22L14 32h3.28l.35-8h-3.2Zm5.16 0c0 1.38-.24 5.91-.36 8h6.31c.94 0 2.64-.45 2.64-2.28 0-1.47-1.06-1.88-1.6-1.9 1.34-.49 1.63-1.5 1.6-1.94 0-1.48-1.29-1.88-2.64-1.88h-5.95Zm2.87 3.1.12-1.53h1.88c.24.02.71.2.71.75 0 .7-1 .79-1.16.79h-1.55Zm-.22 3.28.13-1.69h2.06c.26.02.78.22.78.83 0 .76-1.1.86-1.28.86h-1.69ZM35 32c3.31 0 6-1.8 6-4s-1.79-4-6-4c-3.65 0-6 1.8-6 4 0 2.93 2.69 4 6 4Zm0-1.5c1.66 0 3-1.12 3-2.5s-.9-2.5-3-2.5c-1.83 0-3 1.12-3 2.5 0 1.83 1.34 2.5 3 2.5ZM47.38 24H51l-3.4 3.66L51 32h-3.66l-1.74-2.2-2.04 2.2H40l3.95-4.28L41 24h3.72l1.22 1.56L47.4 24Z" fill="#004B96"/></svg>