<!-- by TradeStack --><svg viewBox="0 0 56 56" xmlns="http://www.w3.org/2000/svg"><path fill="#F0F3FA" d="M0 0h56v56H0z"/><path d="M10 36.75V23.41c0-3.92 2.5-7.41 7.83-7.41H38.6A7.17 7.17 0 0 1 46 23.1c0 1.51-.8 2.9-2.44 2.9-1.24 0-2.4-.84-2.65-2.07-.28-1.4-.82-2.93-2.88-2.93-2.4 0-3.03 2.43-3.03 4.31v4.47c0 3.25 1.28 4.22 2.88 4.22 2.4 0 2.41-1.66 2.8-3.16A2.3 2.3 0 0 1 43.03 29c1.53 0 2.97.78 2.97 2.31 0 .53-.13 1.4-.31 1.93-1.05 3.1-3.28 5.76-7.81 5.76-4.54 0-7.88-2.83-7.88-8.16v-7.29C30 23 29.84 21 27.5 21S25 23.1 25 23.55v13.08c0 1.33-1.03 2.37-2.5 2.37s-2.5-.8-2.5-2.25v-13.2c0-1.4-1-2.55-2.5-2.55S15 22.22 15 23.81v12.94c0 1.38-1.11 2.25-2.5 2.25s-2.5-.81-2.5-2.25Z" fill="#813F09"/></svg>