<!-- by TradeStack --><svg viewBox="0 0 56 56" xmlns="http://www.w3.org/2000/svg"><path fill="#00406D" d="M0 0h56v56H0z"/><path fill-rule="evenodd" d="M39.2 32c-2.42 0-3.14-2.37-3.2-3.57v-.86c.06-1.2.78-3.57 3.2-3.57h1.6c2.42 0 3.14 2.37 3.2 3.57v.86c-.06 1.2-.78 3.57-3.2 3.57h-1.6ZM38 27.68c0-1.79.75-2.18 2-2.18s2 .4 2 2.18v.64c0 1.79-.75 2.18-2 2.18s-2-.4-2-2.18v-.64Z" fill="#fff"/><path d="M52 24v1.5h-4.14a.87.87 0 0 0 0 1.75h1.78a2.37 2.37 0 0 1 0 4.75H45.5v-1.5h3.64a.87.87 0 0 0 0-1.75h-1.78A2.37 2.37 0 0 1 45 26.38 2.37 2.37 0 0 1 47.36 24H52ZM28 24h2v3h3v-3h2v8h-2v-3h-3v3h-2v-8Z" fill="#fff"/><path fill-rule="evenodd" d="M10 24h-.12L4 32h2l1.5-2H10v2h2v-8h-2Zm0 2.67L8.62 28.5H10v-1.83Z" fill="#fff"/><path d="M13 24h4.5a2.5 2.5 0 0 1 .82 4.86L20 32h-1.86l-1.6-3H15v3h-2v-8Zm2 3.5h2a1 1 0 1 0 0-2h-2v2ZM21 27.02c0-1.67 1.21-3.02 2.71-3.02H27v1.5h-2.36c-.9 0-1.64.82-1.64 1.83v1.34c0 1.01.74 1.83 1.64 1.83H27V32h-3.29c-1.5 0-2.71-1.35-2.71-3.02v-1.96Z" fill="#fff"/></svg>