<!-- by TradeStack --><svg viewBox="0 0 56 56" xmlns="http://www.w3.org/2000/svg"><path fill="#F0F3FA" d="M0 0h56v56H0z"/><path d="m28 25.07-1.4 1.39 1.4 1.4 1.4-1.4-1.4-1.4ZM24.8 28l-1.4 1.4L22 28l1.4-1.4 1.4 1.4ZM30.93 28l-1.4 1.4-1.39-1.4 1.4-1.4 1.4 1.4ZM27.86 28l-1.4 1.4-1.4-1.4 1.4-1.4 1.4 1.4ZM26.32 29.53l-1.4 1.4-1.39-1.4 1.4-1.4 1.4 1.4ZM26.47 23.53l-1.4 1.4 1.4 1.4 1.4-1.4-1.4-1.4ZM26.47 29.68l-1.4 1.4 1.4 1.39 1.4-1.4-1.4-1.4ZM26.32 26.47l-1.4 1.4-1.39-1.4 1.4-1.4 1.4 1.4ZM28 31.2l-1.4 1.4L28 34l1.4-1.4-1.4-1.4ZM28 28.14l-1.4 1.4 1.4 1.4 1.4-1.4-1.4-1.4ZM29.53 29.68l-1.4 1.4 1.4 1.39 1.4-1.4-1.4-1.4ZM31.07 28.14l-1.4 1.4 1.4 1.39 1.4-1.4-1.4-1.4ZM28 22l-1.4 1.4 1.4 1.4 1.4-1.4L28 22ZM29.53 23.53l-1.4 1.4 1.4 1.4 1.4-1.4-1.4-1.4ZM31.07 25.07l-1.4 1.4 1.4 1.4 1.4-1.4-1.4-1.4ZM32.6 26.6 31.21 28l1.4 1.4L34 28l-1.4-1.4Z" fill="#00A4DF"/><path d="M8.2 26h.25l.37 1.58-.32.1c-.2-.43-.47-.76-.83-1a1.55 1.55 0 0 0-1.48-.18.9.9 0 0 0-.37.27.58.58 0 0 0-.11.35c0 .11.03.22.1.31.06.11.15.19.28.28.14.07.34.16.62.24l.91.26c.12.03.27.09.49.18.22.1.39.18.5.3.12.1.22.21.29.38.07.15.1.31.1.48 0 .38-.17.71-.5 1-.34.3-.78.45-1.32.45-.26 0-.52-.04-.73-.13a2.42 2.42 0 0 1-.71-.42l-.17.55h-.25L5 29.16l.32-.05c.12.3.27.58.47.8.2.23.42.4.66.52.23.11.48.17.72.17.33 0 .62-.1.87-.3.2-.16.32-.37.32-.59 0-.2-.08-.38-.23-.51a2.36 2.36 0 0 0-.83-.37l-.87-.26a2.53 2.53 0 0 1-1.04-.53 1.1 1.1 0 0 1-.3-.75c0-.22.06-.43.2-.63.13-.18.33-.35.6-.48a2.23 2.23 0 0 1 1.66-.04c.17.08.34.17.5.28l.14-.42ZM12.57 26A2.44 2.44 0 0 1 15 28.48 2.45 2.45 0 0 1 12.5 31a2.45 2.45 0 0 1-2.5-2.5c0-1.45 1.13-2.5 2.57-2.5Zm0 .37c-1.23 0-1.81 1.08-1.81 2.19 0 1.04.6 2.1 1.76 2.1 1.16 0 1.74-1.14 1.74-2.18 0-1.04-.53-2.11-1.7-2.11ZM19.77 26H20l.4 1.54-.31.11c-.4-.95-.96-1.3-1.62-1.3-1.08 0-1.7 1.1-1.7 2.08 0 1.03.66 2.17 1.8 2.17.2 0 .4-.04.58-.11.43-.18.68-.46.64-.94 0-.19.04-.45-.07-.6a.42.42 0 0 0-.18-.17 3.04 3.04 0 0 0-.55-.04v-.3h2v.3h-.16a.88.88 0 0 0-.28.04c-.05.01-.09.07-.12.12-.02.06-.03.17-.03.34V31h-.33l-.18-.51c-.2.14-.4.25-.61.33a3 3 0 0 1-.95.18C16.98 31 16 29.8 16 28.5c0-1.31.99-2.5 2.35-2.5.44 0 .91.12 1.25.4l.17-.4ZM21.33 26h4.18l.49 1.3-.32.12c-.1-.2-.18-.38-.27-.51-.34-.5-.9-.53-1.43-.53h-1.26v1.84h.49c.56 0 .79-.3.79-.84v-.07h.36v2.2H24v-.2c0-.55-.26-.73-.8-.73h-.48v1.62c0 .18 0 .27.02.3.02.05.03.06.07.08.04.02.14.02.3.02h.54c.94 0 1.65-.41 2-1.29l.35.12-.58 1.57h-4.07v-.3c.15 0 .34.03.47-.04.07-.04.1-.08.14-.15a.93.93 0 0 0 .04-.3v-3.45a.68.68 0 0 0-.05-.32.26.26 0 0 0-.17-.12c-.03-.02-.2-.02-.45-.02V26ZM31.12 26h.27l.47 1.66-.35.1a4.3 4.3 0 0 0-.43-.76c-.16-.2-.36-.37-.6-.5-.22-.13-.5-.19-.78-.19a1.83 1.83 0 0 0-1.62 1c-.18.33-.27.68-.27 1.1 0 .43.09.8.27 1.13.18.33.41.57.72.76.3.18.63.26.99.26.32 0 .66-.1 1-.26.35-.19.65-.43.9-.74l.31.19a2.98 2.98 0 0 1-1.38 1.09c-.31.1-.65.16-1.01.16-.81 0-1.48-.28-1.98-.83a2.4 2.4 0 0 1-.63-1.66c0-.48.1-.9.34-1.27a2.73 2.73 0 0 1 2.97-1.14c.22.05.43.16.65.3l.16-.4ZM35.29 26v.3h-.17c-.31 0-.43.1-.43.42v3.48c0 .34.04.4.38.4h.27a1.6 1.6 0 0 0 1.25-.53c.16-.17.3-.41.46-.76l.3.12-.52 1.57h-3.42v-.3h.15c.36 0 .44-.15.44-.5v-3.39c0-.35-.07-.5-.44-.5h-.15V26h1.88ZM40.65 26h.73l1.87 4.19c.08.2.19.34.27.41.08.08.23.1.38.1h.1v.3h-2v-.3h.2c.12 0 .26-.08.26-.21 0-.06-.04-.17-.13-.36l-.41-.97h-2.17l-.48 1.08a.86.86 0 0 0-.06.23c0 .06.02.1.04.13.02.04.06.06.13.08.04.02.14.02.24.02h.2v.3H38v-.3c.17 0 .3-.02.35-.04a.42.42 0 0 0 .2-.13c.05-.06.12-.2.2-.38l1.9-4.15Zm-.75 2.8h1.85l-.94-2.16-.91 2.16ZM44.36 26h1.98v.3h-.16c-.14 0-.25.02-.3.06-.08.04-.11.1-.15.17-.03.08-.03.2-.03.42v3.22c0 .17.01.28.05.34.04.07.07.11.14.15.06.04.16.04.3.04h.17v.3h-1.99v-.3h.17c.14 0 .25-.02.3-.06.05-.04.1-.08.12-.13.02-.06.04-.2.04-.36v-3.3c0-.19-.02-.32-.04-.38-.03-.05-.07-.11-.12-.15-.05-.04-.16-.04-.3-.04h-.17V26h-.01ZM47.02 26h2.62c.5 0 .88.06 1.13.15.24.1.46.25.58.44.14.19.21.41.21.66 0 .27-.07.5-.2.7-.13.2-.31.36-.57.47-.25.12-.59.17-1 .2l1.33 1.6c.1.14.18.21.21.25.09.08.18.13.27.17.08.04.19.06.31.06H52v.3h-1.16l-1.87-2.39h-.65v1.54c0 .17 0 .28.02.32a.4.4 0 0 0 .12.17c.05.04.18.06.35.06h.13v.3H47v-.3h.18c.12 0 .2 0 .26-.02a.2.2 0 0 0 .12-.1c.04-.03.06-.1.07-.15l.02-.36V26.8c0-.16-.02-.25-.03-.33-.04-.05-.07-.11-.13-.13a.8.8 0 0 0-.26-.04h-.21V26Zm1.32.38v1.9h1.04c.35 0 .6-.03.74-.06a.89.89 0 0 0 .65-.9.9.9 0 0 0-.13-.52.72.72 0 0 0-.35-.3 1.5 1.5 0 0 0-.65-.1h-1.3v-.02Z" fill="#2B2A29"/></svg>