<!-- by TradeStack --><svg viewBox="0 0 56 56" xmlns="http://www.w3.org/2000/svg"><path fill="#F0F3FA" d="M0 0h56v56H0z"/><path d="M33.98 17.44a6.22 6.22 0 0 0-.08-.54c-.05-.2-.14-.4-.29-.55a.99.99 0 0 0-.55-.31c-.2-.04-.4-.02-.57.05a1.36 1.36 0 0 0-.37.2l-.05.04-.04.04-.37.3-.71.6-1.09.96-.02-.09-.03-.13a2.35 2.35 0 0 0-.6-1.08c-.25-.27-.58-.46-.93-.52l-.13-.02-.13-.01h-.27l-.13.02c-.04 0-.09.01-.13.03l-.13.03-.07.02-.06.03c-.34.14-.64.38-.84.7-.21.3-.33.67-.4 1.02-.03.09-.04.18-.05.26l-.02.14v.13l-.02.27v.39l.01.13.02.26a14.12 14.12 0 0 0 .22 1.38c-.33.22-.66.42-1 .6l-.2.1a9.7 9.7 0 0 1-.2.11l-.2.1-.21.09c-.13.05-.25.08-.36.08a.52.52 0 0 1-.3-.09 1.55 1.55 0 0 1-.45-.59 3.68 3.68 0 0 1-.3-.82 10.96 10.96 0 0 1-.22-3.46v-.05l.02-.05.02-.1c.01-.06.03-.11.06-.17l.08-.14a.47.47 0 0 1 .5-.2c.06.01.11.03.16.06l.04.02.01.01h.01l.01.01.1.07a13.88 13.88 0 0 1 1.24 1l.46-.2c-.46-.42-.92-.84-1.41-1.23l-.1-.08-.02-.02-.03-.02-.06-.04a1.23 1.23 0 0 0-.27-.12 1.1 1.1 0 0 0-.6-.03.98.98 0 0 0-.53.34c-.06.09-.12.18-.16.27-.04.1-.08.19-.1.28l-.04.14-.01.07-.01.07a4.79 4.79 0 0 0-.07.77 11.39 11.39 0 0 0 .3 2.98 5.5 5.5 0 0 0 .36.98c.08.15.18.3.3.45.12.14.27.27.46.36.19.09.4.11.59.08.19-.02.35-.09.5-.16l.21-.1.21-.11.2-.11.21-.12a21.57 21.57 0 0 0 3.98-2.9v.12l-.05.47c-.07.64-.17 1.28-.34 1.88a5.4 5.4 0 0 1-.53 1.25 1.4 1.4 0 0 1-.25.31.56.56 0 0 1-.14.09.24.24 0 0 1-.12.02.52.52 0 0 1-.27-.15l-.06-.07-.07-.08a1.85 1.85 0 0 1-.07-.1c-.24-.33-.76-.2-.77-.2l.13.24.15.22c.1.14.22.28.36.4.07.07.16.13.25.18.09.05.19.08.3.1.12 0 .24-.01.34-.05.1-.04.2-.09.27-.15.16-.1.29-.24.4-.39.11-.14.2-.3.29-.45.16-.31.28-.64.38-.97a9.74 9.74 0 0 0 .38-2l.04-.52v-.53l-.01-.15 1.29-1.15.7-.59.37-.28.05-.03.04-.03a.82.82 0 0 1 .25-.11.58.58 0 0 1 .3 0c.1.04.18.1.23.17.06.08.1.18.13.3l.02.2.02.22a10.01 10.01 0 0 1-.07 1.87 14.67 14.67 0 0 1-.37 2.06c0 .04-.02.07-.03.1l-.02.06-.02.05a1 1 0 0 1-.18.3.65.65 0 0 1-.26.18.91.91 0 0 1-.34.06 1.52 1.52 0 0 1-.57-.13 4.78 4.78 0 0 1-.52-.23c-.36-.16-.66.13-.7.16a5.72 5.72 0 0 0 1.26.69c.16.06.33.1.5.12.18.01.37 0 .56-.07.18-.06.36-.17.5-.32s.25-.32.32-.5l.03-.06.02-.06.04-.12.08-.25a11.95 11.95 0 0 0 .4-3.96Zm-5.84 2.26c-.48.4-.96.77-1.46 1.13a14.25 14.25 0 0 1-.13-1.09l-.02-.23V19.28l-.01-.24.01-.23.01-.11.02-.11a2.55 2.55 0 0 1 .32-1.03c.13-.24.31-.45.54-.57.23-.13.51-.15.77-.1.26.06.48.23.65.44.16.2.28.47.36.75 0 .04.02.07.03.1l.02.12.04.22.02.19-1.17 1Z" fill="#918663"/><path d="M8.68 26.65h1.45c.52 0 .86.32.86.84 0 .5-.34.86-.86.86H8.68v-1.7ZM8 26v4h.68v-1h1.49a1.5 1.5 0 0 0 1.51-1.53c0-.85-.67-1.47-1.51-1.47H8Zm6.57 0h-.92c-.72 1.7-1.25 3.15-1.6 4h.73c.22-.55.4-1.13.5-1.4h1.64l.3.7c.18.45.56.55.95.7-.72-1.7-1.25-3.15-1.6-4Zm-1.08 2.1.6-1.47.62 1.46h-1.22ZM16.5 26v.63H18V30h.68v-3.37H20V26h-3.5Zm5.18.66h1.46c.5 0 .85.31.85.83 0 .5-.35.87-.85.87h-1.46v-1.7ZM21 26v4h.68v-1h1.6l.26.46a1 1 0 0 0 .96.54c-.28-.51-.46-.91-.6-1.17.46-.24.77-.75.77-1.36 0-.84-.66-1.47-1.5-1.47H21Zm5.12.25c-.11-.13-.26-.25-.43-.25h-.07v4h.68v-3.3a.62.62 0 0 0-.18-.45Zm1.23-.25v4c.36 0 .65-.49.65-.84v-2.28h.07c.62 1.31 1 2.3 1.3 2.96h.61c.63-1.32 1.1-2.3 1.4-2.96h.07V30H32v-4h-.83a851.5 851.5 0 0 1-1.46 3.02h-.03c-.64-1.34-1.03-2.35-1.34-3.02h-1Zm7.6 0c-1.13 0-2.03.84-2.03 1.99 0 1.14.9 1.99 2.04 1.99a2 2 0 1 0 0-3.98Zm0 3.37c-.79 0-1.35-.6-1.35-1.38 0-.78.58-1.38 1.36-1.38.8 0 1.37.59 1.37 1.38 0 .8-.57 1.38-1.37 1.38Zm3.55-3.12c-.11-.13-.26-.25-.43-.25H38v4h.68v-3.3a.62.62 0 0 0-.18-.45ZM40 26v4h.67v-3.02c1.08 1.26 1.78 2.38 2.32 3.02h.68v-4c-.19 0-.35.07-.48.2a.7.7 0 0 0-.19.5l-.01 2.32c-1.09-1.26-1.77-2.39-2.32-3.02H40Zm4.7 0v3.98H48v-.64h-2.62v-1h2.1v-.63h-2.1v-1.07h2.01c.17 0 .31-.06.43-.19A.63.63 0 0 0 48 26h-3.3ZM8.62 35.17l-.02-.02.2-.2c.1-.11.16-.24.19-.38a.56.56 0 0 0-.03-.38l-.09-.2-.73.8-1.06-.92.43-.23.28-.23a.87.87 0 0 0 .17-.26c.03-.1.05-.2.05-.3a.75.75 0 0 0-.08-.35.8.8 0 0 0-.25-.27c-.1-.08-.23-.14-.37-.17a1.93 1.93 0 0 0-.83-.03c-.1.02-.2.05-.3.1a.95.95 0 0 0-.45.3.63.63 0 0 0-.12.22.82.82 0 0 0 0 .45.8.8 0 0 0 .08.2 2.86 2.86 0 0 0 .35.43c-.34.15-.6.31-.78.5a.9.9 0 0 0-.26.63.96.96 0 0 0 .46.84c.16.09.34.16.56.21a3.46 3.46 0 0 0 1.54-.04l.33-.1.29-.17.42.38h.94l-.92-.8ZM6.3 33.05a.51.51 0 0 1-.03-.14c0-.06.02-.12.04-.17a.4.4 0 0 1 .1-.12.47.47 0 0 1 .19-.07.94.94 0 0 1 .46 0l.17.07c.05.04.09.09.11.13a.44.44 0 0 1 0 .32.4.4 0 0 1-.1.13l-.21.15-.33.17a2.56 2.56 0 0 1-.33-.34.89.89 0 0 1-.07-.13Zm1.43 2.15c-.12.08-.25.14-.4.18-.15.03-.3.05-.48.05l-.47-.02a.89.89 0 0 1-.4-.1.79.79 0 0 1-.22-.22.45.45 0 0 1-.08-.26c0-.05.02-.11.06-.18a1 1 0 0 1 .17-.2l.21-.16.37-.17 1.24 1.08Zm8.73-2.23c-.2-.3-.44-.54-.75-.7a2.31 2.31 0 0 0-1.08-.25c-.59 0-1.08.18-1.48.53-.4.36-.6.84-.6 1.45s.2 1.1.6 1.45c.39.36.88.54 1.46.54.42 0 .79-.09 1.1-.25.3-.16.55-.4.75-.7l-.53-.32c-.16.2-.34.37-.55.48-.21.1-.47.16-.78.16A1.31 1.31 0 0 1 13.22 34c0-.41.12-.74.37-.99s.58-.37 1-.37a1.53 1.53 0 0 1 1.33.65l.53-.32Zm4.23-.42c-.4-.36-.9-.54-1.47-.54s-1.07.18-1.48.54c-.4.36-.6.84-.6 1.44s.2 1.08.6 1.44c.41.36.9.55 1.48.55a2.1 2.1 0 0 0 1.47-.55c.4-.36.61-.84.61-1.44s-.2-1.08-.61-1.44Zm-.48 2.46c-.26.24-.6.37-.99.37s-.72-.13-.99-.37a1.3 1.3 0 0 1-.4-1.02v-.03c0-.42.13-.75.4-.98.27-.24.6-.36.99-.36.4 0 .73.12 1 .36.26.24.4.58.4 1.01 0 .44-.14.78-.4 1.02ZM22 32v4c.18 0 .34-.16.47-.3.13-.13.2-.29.2-.47v-2.28h.07c.63 1.32 1.1 2.4 1.42 3.05h.62c.64-1.31 1.11-2.4 1.43-3.05h.07V36H27v-4h-1.01c-.66 1.34-1.15 2.42-1.48 3.1h-.04c-.65-1.35-1.14-2.43-1.46-3.1H22Zm6 0v4c.18 0 .32-.24.45-.37.13-.14.2-.3.2-.48v-2.27h.07c.63 1.31 1.11 2.47 1.43 3.12h.62c.63-1.31 1.1-2.47 1.42-3.12h.08V36H33v-4h-1.03l-1.48 3.02h-.04L29 32H28Zm6 0v4h3.36v-.64h-2.63v-1h2.14v-.63h-2.14v-1.1h2.05a.6.6 0 0 0 .44-.18.62.62 0 0 0 .18-.45H34Zm4.69.65h1.49c.51 0 .87.32.87.84 0 .5-.36.8-.87.8h-1.5v-1.64ZM38 32v4h.69v-1.06h1.63l.27.51c.23.4.6.55 1.01.55-.29-.51-.5-.98-.64-1.23a1.48 1.48 0 0 0-.74-2.77H38Zm8.7.97a2.03 2.03 0 0 0-1.84-.95c-1.16 0-2.07.8-2.07 1.98 0 1.17.9 1.99 2.05 1.99.85 0 1.46-.34 1.85-.96l-.53-.3c-.31.4-.7.63-1.33.63-.78 0-1.37-.58-1.37-1.36 0-.8.58-1.36 1.37-1.36.61 0 1.03.23 1.33.65l.53-.32Zm.93-.97v4H51v-.64h-2.67v-1h2.14v-.63h-2.14v-1.1h2.05a.6.6 0 0 0 .44-.18A.62.62 0 0 0 51 32h-3.37Z" fill="#6E1B54"/></svg>