<!-- by TradeStack --><svg viewBox="0 0 56 56" fill="none" xmlns="http://www.w3.org/2000/svg">
<rect width="56" height="56" fill="#F0F3FA"/>
<path d="M14.1271 26.0001C13.554 26.0045 13.1263 26.4062 13 26.9055V26H11V32H13V29.8295C13 29.3589 13.0039 28.8885 13.1131 28.4311C13.2833 27.935 13.5103 27.6745 13.9357 27.6745C14.1852 27.663 14.4337 27.7104 14.6741 27.7799V26.087C14.4965 26.0287 14.314 25.9977 14.1271 26.0001Z" fill="#4AA995"/>
<path d="M23 23H21V32H23V23Z" fill="#4AA995"/>
<path d="M16.8975 28.33C16.9858 27.6204 17.3777 27.3534 17.864 27.3534C18.3503 27.3534 18.7422 27.6204 18.8304 28.33H16.8975ZM20.5838 29.4351C20.5838 28.3571 20.4073 27.5328 19.9944 26.9953C19.5217 26.3431 18.7842 26.0018 17.7505 26.0018C16.0875 26 14.9976 27.4396 15.0022 29.0215C15 30.7662 16.125 32.0018 18.1034 32.0018C18.8124 32.0018 19.5 31.8493 20 31.5834V30.0038C19.4669 30.4078 18.8367 30.7045 18.1633 30.7045C17.4381 30.7045 16.9319 30.2775 16.8304 29.5378H20.5838V29.4351Z" fill="#4AA995"/>
<path d="M37.5 23H35.5V25H37.5V23Z" fill="black"/>
<path d="M34.5 23H32.5V25H34.5V23Z" fill="black"/>
<path d="M52 23H50V25H52V23Z" fill="black"/>
<path d="M49 23H47V32H49V23Z" fill="black"/>
<path d="M52 26H50V32H52V26Z" fill="black"/>
<path d="M44.3632 27.8268C44.3632 28.0273 44.6494 28.1702 44.8997 28.2552C45.9287 28.532 46.574 28.8198 46.574 30.0834C46.574 31.347 45.3502 32.042 44.2063 31.9979C43.6721 31.9835 43.3284 31.9094 42.8194 31.7426V30.2566C43.2886 30.4958 43.3687 30.7 43.9044 30.7C44.2368 30.7 44.656 30.5625 44.656 30.1412C44.656 30.0561 44.6852 29.8282 44.125 29.6276C43.2199 29.3653 42.3821 28.9567 42.451 27.8287C42.4294 26.6538 43.5911 25.9554 44.6832 26.0023C45.1772 26.0149 45.6917 26.045 46.1643 26.1999V27.5704C45.7216 27.4172 45.5113 27.3559 45.0398 27.3559C44.4259 27.3559 44.3632 27.6262 44.3632 27.8268Z" fill="black"/>
<path d="M40.3222 27.8269C40.3222 28.0275 40.6084 28.1703 40.8587 28.2554C41.8877 28.5322 42.533 28.8199 42.533 30.0835C42.533 31.3472 41.3092 32.0421 40.1653 31.998C39.6311 31.9836 39.2873 31.9095 38.7784 31.7427V30.2568C39.2476 30.4959 39.3276 30.7001 39.8634 30.7001C40.1958 30.7001 40.6149 30.5626 40.6149 30.1413C40.6149 30.0562 40.6442 29.8283 40.0839 29.6277C39.1788 29.3654 38.3411 28.9568 38.41 27.8288C38.3884 26.654 39.5501 25.9556 40.6421 26.0025C41.1361 26.015 41.6506 26.0451 42.1233 26.2V27.5705C41.6806 27.4173 41.4703 27.356 40.9988 27.356C40.3849 27.356 40.3222 27.6263 40.3222 27.8269Z" fill="black"/>
<path d="M26 23H24V32H26V23Z" fill="#4AA995"/>
<path d="M35.9999 28.8542C35.9999 29.6683 35.7847 30.7 34.8071 30.7C33.8294 30.7 33.9999 29.9531 33.9999 29.0957V26H32.0029V29.6683C32.0029 30.9688 32.5922 31.9963 34.2675 31.9963C34.9878 32 35.7141 31.7373 36.2125 31.2688V32H38.0029V26.0031H35.9999V28.8542Z" fill="black"/>
<path fill-rule="evenodd" clip-rule="evenodd" d="M28 26H27V27.3H28L28 32H30V27.3H31V26H30V25.1537C30 24.5256 30.1173 24.3258 30.665 24.3258C30.7784 24.3257 30.8911 24.341 31 24.371V23.0916C30.6668 23.0288 30.3282 23.0012 29.9885 23C28.4648 23 28 23.9414 28 24.9079V26Z" fill="black"/>
<path fill-rule="evenodd" clip-rule="evenodd" d="M9.80745 27.8354C9.95434 28.2198 10 28.6302 10.0034 29.0413C10.0034 30.7188 8.65818 32 7.00496 31.9967C5.35828 32 4.00003 30.6774 4.00349 29.0413C4.00002 27.3198 5.29464 25.9995 6.98665 26.0005C8.24564 25.9997 9.36216 26.6702 9.80745 27.8354ZM6.98665 30.515C7.68627 30.5248 8.00411 29.9253 8.00411 28.9913C8.00411 28.0572 7.68627 27.4764 6.98665 27.4861C6.28703 27.4959 6.00206 28.0572 6.00206 28.9913C6.00206 29.9253 6.28703 30.5053 6.98665 30.515Z" fill="#4AA995"/>
</svg>
