<!-- by TradeStack --><svg viewBox="0 0 56 56" fill="none" xmlns="http://www.w3.org/2000/svg">
<rect width="56" height="56" fill="#F0F3FA"/>
<path d="M13.5 14H13V42H13.5V14Z" fill="#403D3D"/>
<path d="M23 14H22.5V42H23V14Z" fill="#403D3D"/>
<path d="M33 14H32.4963V42H33V14Z" fill="#403D3D"/>
<path d="M43 14H42.5V42H43V14Z" fill="#403D3D"/>
<path d="M20.7933 30.4375C20.2618 30.1875 19.4961 30 18.5958 30C15.912 30 14.5 31.9843 14.5 34.4888C14.5 37.1291 15.8619 39 18.6792 39C19.596 39 20.1732 38.8438 21 38.5312L20.5609 36.5971C20.1775 36.765 19.5076 37 18.8739 37C17.5167 37 16.5 36.0864 16.5 34.4888C16.5 32.8584 17.5167 32 18.6792 32C19.494 32 19.8619 32.2531 20.2618 32.4375L20.7933 30.4375Z" fill="black"/>
<path fill-rule="evenodd" clip-rule="evenodd" d="M25 42H23V30H25V31.0625C25.3438 30.625 26.1265 30 27.5312 30C30.342 30 31.5 32.0513 31.5 34.3637C31.5 36.9062 30.3955 39 27.5312 39C26.5172 39 25.5312 38.625 25 37.8438V42ZM29.5 34.4778C29.5 33.4353 29.0327 32 27.3372 32C25.6618 32 25 33.3899 25 34.4778C25 35.5807 25.5647 37 27.2987 37C29.0126 37 29.5 35.5501 29.5 34.4778Z" fill="black"/>
<path d="M33 39H35V34.9255C35 33.795 35.5817 31.9965 37.2435 31.9965C38.7187 31.9965 39 33.4526 39 34.5312V39H41V33.4024C41 31.4157 40.1226 30 38.03 30C36.8292 30 35.5839 30.4903 35 31.3464V26H33V39Z" fill="black"/>
</svg>
