<!-- by TradeStack --><svg viewBox="0 0 56 56" xmlns="http://www.w3.org/2000/svg"><path fill="#F0F3FA" d="M0 0h56v56H0z"/><path d="M33 29h-2v10h2V29ZM18.5 39c-2.23 0-3.5-1.67-3.5-4.01 0-2.25 1.37-3.99 3.5-3.99s3.5 1.74 3.5 3.99c0 2.34-1.27 4.01-3.5 4.01Zm0-2c1 0 1.5-1 1.5-2s-.5-2-1.5-2-1.5.94-1.5 2c0 1 .5 2 1.5 2ZM30 24.56c-.25 1.7-1.42 2.44-3.33 2.44C24 27 23 25.25 23 23s1.29-4 3.5-4c2.23 0 3.5 1.44 3.5 3.62v.88h-5c.06 1.18.5 2 1.7 2 .72 0 1.16-.41 1.3-1h2v.06ZM28 22c0-.65-.46-1.5-1.41-1.5-.9 0-1.53.9-1.59 1.5h3ZM41 24.56c-.25 1.7-1.42 2.44-3.33 2.44C35 27 34 25.25 34 23s1.29-4 3.5-4c2.23 0 3.5 1.44 3.5 3.62v.88h-5c.06 1.18.5 2 1.7 2 .72 0 1.16-.41 1.3-1h2v.06ZM39 22c0-.65-.46-1.5-1.41-1.5-.9 0-1.53.9-1.59 1.5h3ZM41 36.56c-.25 1.7-1.42 2.44-3.33 2.44C35 39 34 37.25 34 35s1.29-4 3.5-4c2.23 0 3.5 1.44 3.5 3.62v.88h-5c.06 1.18.5 2 1.7 2 .72 0 1.16-.41 1.3-1h2v.06ZM39 34c0-.65-.46-1.5-1.41-1.5-.9 0-1.53.9-1.59 1.5h3ZM9 33h1v3.46c0 1.6 1.14 2.54 2.67 2.54.45 0 .9-.08 1.33-.2V37h-.83c-.56 0-1.17-.02-1.17-.6V33h2v-2h-2v-2h-2v2H9v2ZM47 21.1v-2c-.26-.11-.72-.1-1-.1a2.7 2.7 0 0 0-2 1v-1h-2v8h2v-4.45c0-1 1.08-1.55 2-1.55.31 0 .7.04 1 .1ZM47 33.1v-2c-.26-.11-.72-.1-1-.1a2.7 2.7 0 0 0-2 1v-1h-2v8h2v-4.45c0-1 1.08-1.55 2-1.55.31 0 .7.04 1 .1ZM33 16h-2v2h2v-2ZM33 19h-2v8h2v-8ZM22 27v-5.12c0-1.8-.89-2.88-2.66-2.88-1.12 0-2.27.51-2.89 1.48C16.1 19.45 15.03 19 14 19c-.91 0-1.4.3-2 1v-1h-2v8h2v-4.52c0-.92.57-1.48 1.5-1.48s1.5.36 1.5 1.42V27h2v-4.48c0-.93.67-1.52 1.6-1.52.94 0 1.4.4 1.4 1.45V27h2Z" fill="#2FB4E9"/><path fill-rule="evenodd" d="M25 29h-2v10h2v-1.01A2.35 2.35 0 0 0 26.88 39c2.08 0 3.12-2.15 3.12-4.1 0-1.96-.88-3.9-3-3.9-.73 0-1.51.43-2 1v-3Zm1.5 8c.83 0 1.5-.9 1.5-2s-.67-2-1.5-2-1.5.9-1.5 2 .67 2 1.5 2Z" fill="#2FB4E9"/></svg>