<!-- by TradeStack --><svg viewBox="0 0 56 56" xmlns="http://www.w3.org/2000/svg"><path fill="#F0F3FA" d="M0 0h56v56H0z"/><path fill-rule="evenodd" d="M32.8 13h4.05c.5.08 1.04.18 1.52.31 3.16.82 4.97 2.6 4.58 6.1-.32 2.56-2.67 4.64-4.74 5.95-1.38.88-5.72 3.19-7.24 3.55.56 1 .43.7 1.41 1.72l1.25 1.62c.99 1.51 1.16 2.43.65 4.49 1.3 0 2.15-.23 3.34-.4.86-.14 2.88-.24 3.46-.52-.24 2.67-4.47.18-9.12 4.03-1.5 1.24-4.45 2.5-6.36 3.11-3.71 1.18-4.89 1.26-4.88.74 0-.6 1.7-1.98 4.56-3.36 4.68-2.26 6.92-2.05 7.42-3.9.88-3.24-3.4-4.91-3.86-6.76 1.1-1.57 4.05-2.47 5.96-3.5.62-.3.93-.53 1.5-.87 4.22-2.36 7.07-6.94 3.16-9.43-3.6-2.28-7.66-1.41-11.42.2-4.63 2.01-6.43 6.56-8.43 10.34-.56 1.02-1.01 2.13-1.46 3.2a50.13 50.13 0 0 0-2.27 6.63c.71-.46.9-1.05 1.55-1.64l1.73-1.67c1.17-1.13 2.26-2.28 3.46-3.34l1.86-1.54c2.95-2.59 4.01-2.4 3.99-1.5-.02.61-.56 1.54-1.2 2.14l-9.07 7.94c-2.77 2.55-2.87 3.49-6.2 3.49.3-1.23 1.22-2.13 1.76-3.41l4.52-11.54a23.52 23.52 0 0 1 1.8-3.65c.65-1 1.37-2.26 2.11-3.1 2.66-2.93 6.6-4.91 10.62-5.43Zm-8.24 28.78 4.44-1.8s-1.3 1.08-2.05 1.44c-.71.36-1.25.36-2.4.36Z" fill="#004C99"/></svg>