<!-- by TradeStack --><svg viewBox="0 0 56 56" xmlns="http://www.w3.org/2000/svg"><path fill="#F0F3FA" d="M0 0h56v56H0z"/><path d="M30.77 15.97c.15.47.23.94.23 1.4 0 1.63-.85 3.06-2.26 3.5a2.9 2.9 0 0 1-.86.13c-1.54 0-3.06-1.21-3.63-3.02a4.84 4.84 0 0 1-.25-1.45c0-1.61.93-2.99 2.32-3.42.26-.08.46-.11.72-.11a4.05 4.05 0 0 1 3.73 2.97Z" fill="#F7313E"/><path d="M20.47 19.38C18.54 15.83 19.05 11 19.05 11S18 13.78 18 16.81C18 28 28.68 27.6 33.38 33.57 37.2 38.44 34.88 46 34.88 46S37 43.07 37 38.75c0-10.87-12.58-12.13-16.53-19.37Z"/></svg>