<!-- by TradeStack --><svg viewBox="0 0 56 56" xmlns="http://www.w3.org/2000/svg"><path fill="#F0F3FA" d="M0 0h56v56H0z"/><path d="M43.3 31H42v-4h1.3v.6c.27-.4.61-.6 1.2-.6.69 0 1.5.43 1.5 1.32V31h-1.3v-2.23c0-.45-.27-.77-.7-.77-.25 0-.7.13-.7.75V31ZM36 31h-4v-1l2-2h-2v-1h4v1l-2 2h2v1Z" fill="#FF2600"/><path d="M20.43 27c-.42 0-.92.2-1.13.52V25H18v6h1.3v-.51c.18.24.46.51 1.15.51C21.5 31 22 29.94 22 28.98c0-.9-.33-1.98-1.57-1.98ZM20 30c-.5 0-.7-.55-.7-1 0-.45.2-1 .7-1 .5 0 .7.55.7 1 0 .45-.2 1-.7 1ZM29 30c-.44 0-.66-.22-.7-.65H31c0-1.5-.73-2.35-2-2.35-1.15 0-2 .91-2 2.03 0 1.28.83 1.97 2 1.97.83 0 1.64-.44 1.92-1.27h-1.3c-.11.18-.4.27-.62.27Zm0-2c.36 0 .7.29.7.64h-1.4c.06-.41.29-.64.7-.64Z" fill="#171716"/><path d="M49 30c-.44 0-.66-.22-.7-.65H51c0-1.5-.73-2.35-2-2.35-1.15 0-2 .91-2 2.03 0 1.28.83 1.97 2 1.97.83 0 1.64-.44 1.92-1.27h-1.3c-.11.18-.4.27-.62.27Zm0-2c.36 0 .7.29.7.64h-1.4c.06-.41.29-.64.7-.64Z" fill="#FF2600"/><path d="M26.3 25H25v6h1.3v-6ZM24.3 25H23v1h1.3v-1ZM24.3 27H23v4h1.3v-4ZM15 27c-1.38 0-2 .94-2 2 0 1.05.62 2 2 2s2-.95 2-2c0-1.06-.62-2-2-2Zm0 3c-.53 0-.7-.6-.7-1s.17-1 .7-1c.53 0 .7.6.7 1s-.17 1-.7 1Z" fill="#171716"/><path d="M39 27c-1.38 0-2 .94-2 2 0 1.05.62 2 2 2s2-.95 2-2c0-1.06-.62-2-2-2Zm0 3c-.53 0-.7-.6-.7-1s.17-1 .7-1c.53 0 .7.6.7 1s-.17 1-.7 1Z" fill="#FF2600"/><path d="M6.36 31H5v-4h1.36v.62c.34-.45.83-.62 1.45-.62.48 0 .96.22 1.16.6.07-.04.41-.6 1.51-.6 1.14 0 1.52.87 1.52 1.5V31h-1.35v-2.3c0-.37-.2-.7-.72-.7-.42 0-.75.3-.75.7V31H7.82v-2.3c0-.37-.22-.7-.73-.7-.42 0-.73.3-.73.7V31Z" fill="#171716"/></svg>