<!-- by TradeStack --><svg viewBox="0 0 56 56" fill="none" xmlns="http://www.w3.org/2000/svg">
<rect width="56" height="56" fill="#F0F3FA"/>
<path fill-rule="evenodd" clip-rule="evenodd" d="M8.49996 20C9.87497 20 11 21.0075 11 22.239V33.6569C11 34.8884 9.87505 36 8.50004 36C7.12503 36 6 34.8884 6 33.6569V22.239C6 21.0075 7.12495 20 8.49996 20ZM8.50004 21C7.59183 21 7 21.6686 7 22.4821V33.5179C7 34.3314 7.59176 35 8.49996 35C9.40817 35 10 34.3314 10 33.5179V22.4821C10 21.6686 9.40824 21 8.50004 21Z" fill="#EE2722"/>
<path fill-rule="evenodd" clip-rule="evenodd" d="M21 25V33.502C21 34.7467 19.7797 36 18.5182 36C17.2567 36 16 34.7467 16 33.502V25H14.2935C13.0321 25 12 23.7447 12 22.5C12 21.2553 13.0321 20 14.2935 20H22.7065C23.9679 20 25 21.2553 25 22.5C25 23.7447 23.9679 25 22.7065 25H21ZM20 33.502V24.7651C20 24.3426 20.3472 24 20.7754 24H22.4819C23.3151 24 24 23.3222 24 22.5001C24 21.6779 23.3151 21 22.4819 21H14.5181C13.6849 21 13 21.6778 13 22.4999C13 23.3221 13.6849 24 14.5181 24H16.2246C16.6528 24 17 24.3426 17 24.7651V33.502C17 34.3242 17.6849 35 18.5181 35C19.3513 35 20 34.3242 20 33.502Z" fill="#EE2722"/>
<path fill-rule="evenodd" clip-rule="evenodd" d="M33 33H28L27.2413 34.6771C26.8916 35.4336 26.0079 36.0077 25.1004 35.9999C23.8556 35.9892 23 35 23 33.5343C23 33.23 23.0807 32.9235 23.2154 32.6322L28.1346 21.5941C28.5499 20.5927 29.4796 19.9693 30.5 20.0012C31.5204 19.9693 32.3245 20.5927 32.7811 21.5941L37.7733 32.6379C37.924 32.9639 37.9938 33.4138 37.9899 33.7531C37.9757 34.9793 36.948 36.0338 35.7142 35.9991C34.8377 35.9745 34.0497 35.4118 33.71 34.6771L33 33ZM27.7951 31.9984H33.1219V32C33.405 32.0002 33.6763 32.1646 33.805 32.445L34.5637 34.127C34.7956 34.6289 35.1624 34.9808 35.7142 35C36.5339 35.0285 36.9907 34.3493 37 33.5343C37.0027 33.3009 36.9515 33.0687 36.8527 32.8487L32 22.2106C31.629 21.4952 31.3991 21.0252 30.4464 21C29.609 20.974 29.3058 21.5444 29 22.2106L24.1479 32.9534L24.1462 32.9573C24.05 33.1715 24 33.4016 24 33.6322C24 34.3895 24.4345 35 25.1004 35C25.6796 35.0112 26.1754 34.5496 26.4188 34.023L27.0902 32.4922C27.2007 32.2031 27.4747 31.9984 27.7951 31.9984Z" fill="#EE2722"/>
<path fill-rule="evenodd" clip-rule="evenodd" d="M31.3477 26.5214L32.4034 28.7799C32.5331 29.0572 32.5068 29.3522 32.3299 29.6057C32.1531 29.8591 31.8752 30 31.552 30H29.4174C29.0928 30 28.8138 29.858 28.6373 29.6027C28.4609 29.3476 28.4364 29.051 28.5689 28.7735L29.6478 26.515C29.8015 26.1935 30.1239 25.9986 30.5 26C30.8761 26.0014 31.1968 26.1987 31.3477 26.5214ZM31.5867 28.9331L30.531 26.8415C30.5201 26.818 30.5188 26.8203 30.4965 26.8203C30.4811 26.8203 30.4722 26.8182 30.461 26.8416L29.3821 28.9331C29.3689 28.9608 29.3919 28.9827 29.4174 28.9827H31.552C31.579 28.9827 31.5983 28.958 31.5867 28.9331Z" fill="#EE2722"/>
<path fill-rule="evenodd" clip-rule="evenodd" d="M41.1498 35.1159H46.3537C48.7509 35.1159 50 33.0515 50 30.8543C50 29.7636 48.965 28.8871 48.2667 28.2881C48.0911 28.138 48.0001 27.9204 48 27.7011C47.9999 27.5543 48.0405 27.4068 48.1236 27.2781C48.6072 26.5277 49 25.707 49 24.8294C49 22.5945 47.8458 21.0077 45.6956 21.0077H41.1498C40.3726 21.0077 40 21.6719 40 22.4794V33.6442C40 34.4518 40.3728 35.1159 41.1498 35.1159ZM41.1498 36H46.3537C49.1774 36 51 33.5208 51 30.8543C51 29.2536 49.7986 28.2881 49 27.7011C49.563 26.8275 50 25.8534 50 24.8294C50 22.1732 48.2511 20 45.6956 20H41.1498C39.9674 20 39 21.0055 39 22.2345V33.7655C39 34.9944 39.9674 36 41.1498 36Z" fill="#EE2722"/>
<path fill-rule="evenodd" clip-rule="evenodd" d="M45.4192 23H42.7025C42.3161 23 42 23.3545 42 23.7879V26.2121C42 26.6455 42.3161 27 42.7025 27H45.2435C46.2096 27 47 26.1136 47 25.0301V24.7729C47 23.7978 46.2887 23 45.4192 23ZM45.2925 24H43V26H45.2139C45.6462 26 46 25.5568 46 25.0151V24.8864C46 24.3988 45.6817 24 45.2925 24Z" fill="#EE2722"/>
<path fill-rule="evenodd" clip-rule="evenodd" d="M46.3043 29H42.7536C42.3391 29 42 29.3545 42 29.7879V32.2121C42 32.6455 42.3391 33 42.7536 33H46.1159C47.1522 33 48 32.1136 48 31.0301V30.7729C48 29.7978 47.237 29 46.3043 29ZM46.1568 30H43V32H46.0631C46.5785 32 47 31.5568 47 31.0151V30.8864C47 30.3988 46.6206 30 46.1568 30Z" fill="#EE2722"/>
</svg>
