<!-- by TradeStack --><svg viewBox="0 0 56 56" xmlns="http://www.w3.org/2000/svg"><path fill="#F0F3FA" d="M0 0h56v56H0z"/><path d="M12.25 17.54H7.91L7.57 17h4.34l.34.54ZM8.49 18.5h4.37l.47.76H8.99l-.5-.76ZM6.84 27.5 4.65 24H4l2.15 3.5h.69ZM6.53 24l2.19 3.5H7.8L5.65 24h.88ZM8.95 24l2.11 3.5h-1.5L7.38 24h1.57ZM11.4 24l2.16 3.5h-1.8L9.63 24h1.77ZM24.8 27.94c.37-.64-.09-.94-.27-.94h-5.91c-.73-1.15-1.11-1.82-1.88-3h7.8c.6 0 1.87.2 2.75.84 1.2.92 1.77 2.75 1.04 3.98-1.92 3.32-2.76 4.81-4.22 7.18h-4.6c-2.46-3.97-5.19-7.95-7.6-12h4.33c1.84 2.94 3.65 5.92 5.53 8.83 1.03-1.8 2.07-3.25 3.03-4.9ZM29 24h4v12h-4V24ZM40.76 32l2.94-4.75c0-.04-.11-.25-.23-.25-1.16 0-2.69-.09-3.88.25-1.38.4-2.2 2.28-1.74 3.59.34.9 1.03 2.16 2.07 2.16h7.44l-2 2.97c-2.33.03-5.48.1-6.94-.23-3.57-.82-5.75-4.98-3.87-8.2a6.5 6.5 0 0 1 4.56-3.32c2.34-.38 4.34-.15 6.49-.15 1.61 0 2.88 1.9 2.23 3.21-.58 1.16-1.77 3.04-2.73 4.72h-4.34ZM13.6 20.26l.45.73h-3.64l-.46-.73h3.64Zm.15-.3H9.4l.85 1.3h4.33l-.84-1.3ZM14.86 22.3l.58.92h-3.65l-.58-.92h3.65Zm.15-.31h-4.33l.96 1.5h4.33l-.96-1.5Z" fill="#010202"/></svg>