<!-- by TradeStack --><svg viewBox="0 0 56 56" xmlns="http://www.w3.org/2000/svg"><path fill="#F0F3FA" d="M0 0h56v56H0z"/><path fill-rule="evenodd" d="M11.4 24H9.76C6.77 24 4 26.6 4 31h1c0-5.14 2.95-6.16 3.42-6.16.46 0 .58.18.58 1.15V31h1v-3h.76c1.1 0 2.64-.18 2.64-2.14 0-1.23-.9-1.86-2-1.86ZM10 27.5h.19c.7 0 2.21 0 2.21-1.51 0-1.5-.97-1.49-1.75-1.49h-.03c-.31 0-.62.22-.62.64v2.36ZM27 25l-1 .9V27h-1v.4h1v2.5c0 .9.47 1.1 1.3 1.1.19 0 .51-.03.7-.06v-.55h-.33l-.12.01c-.55.01-.55-.23-.55-1.1v-1.9h1V27h-1v-2Zm1.4 4c0-1.38.78-2 1.8-2 1.2 0 1.8.82 1.8 2 0 1.33-.57 2-1.8 2-1.35 0-1.8-.85-1.8-2Zm1.01.01c0 .68.12 1.58.79 1.59.7 0 .8-.83.8-1.59 0-.76-.1-1.61-.8-1.61-.7 0-.79.88-.79 1.61ZM22.92 27c-1.22 0-1.92.56-1.92 1.86 0 1.38.84 2.14 2.23 2.14.44 0 .87-.08 1.28-.22v-.54a2.9 2.9 0 0 1-.86.16c-1.28 0-1.62-.99-1.62-1.8h2.57c0-.55-.13-1.6-1.68-1.6Zm-.04.4a.86.86 0 0 0-.85.8h1.66c0-.18-.02-.8-.8-.8Zm-3.88.58V27l-1.67.27v.16c.57.02.67.16.67.75V31h1v-1.88c0-.63.25-1.28 1.06-1.28.16 0 .3.05.44.16v-.95l-.04-.01c-.09-.02-.15-.04-.34-.04-.55 0-1.07.6-1.12.98ZM15.49 27c-1.4 0-1.62.63-1.72 1h1.03c0-.17.1-.6.6-.6s.6.46.6.97v.33h-.1c-.7.02-2.4.06-2.4 1.2 0 .77.55 1.1 1.3 1.1.69 0 1-.34 1.2-.54V31h1v-2.3c0-.82-.16-1.7-1.51-1.7Zm-.33 3.55c.56 0 .84-.43.84-.99V29c-.35 0-1.5.13-1.5.9 0 .39.3.65.66.65ZM38.76 28c.11-.37.33-1 1.73-1 1.35 0 1.51.88 1.51 1.7V31h-1v-.54c-.2.2-.51.54-1.2.54-.75 0-1.3-.32-1.3-1.09 0-1.15 1.7-1.18 2.4-1.2h.1v-.34c0-.51-.1-.97-.6-.97s-.6.43-.6.6h-1.03ZM41 29.56c0 .57-.28 1-.84 1a.64.64 0 0 1-.66-.65c0-.78 1.15-.9 1.5-.9v.55Zm-6-1.89c.16-.3.54-.67 1.23-.67 1.27 0 1.47 1 1.47 2.04 0 1.03-.4 1.96-1.67 1.96-.66 0-.94-.3-1.1-.5l-.64.5H34v-4.84c0-.58-.41-.71-1-.75v-.16l2-.25v2.67Zm0 1.37c0 .43.03 1.46.84 1.46.82 0 .86-.92.86-1.56 0-.58 0-1.49-.8-1.49-.84 0-.9 1.02-.9 1.49v.1Zm9-.99c.14-.28.57-1.05 1.42-1.05.77 0 1.16.51 1.18 1.15V31h-1V28.78c0-.66 0-1.28-.57-1.28S44 28.33 44 28.93V31h-1v-2.83c0-.59-.05-.74-.6-.76v-.17L44 27v1.05Zm5.92.52L51.63 27h-.73L49 28.74V25l-2 .29v.16c.6.04 1 .13 1 .73V31h1v-2.16L50.8 31H52l-2.08-2.43Z" fill="#0B2D51"/></svg>