<!-- by TradeStack --><svg viewBox="0 0 56 56" xmlns="http://www.w3.org/2000/svg"><path fill="#F0F3FA" d="M0 0h56v56H0z"/><path d="M17 32.2c0 5.8 2.42 9.82 3.63 11.12A31.64 31.64 0 0 1 18.4 32.2c.05-8.12 8.03-15.06 12.01-17.51a25.89 25.89 0 0 1 3.77 13.12c0 7.44-8.34 13.61-10.16 14.96l-.04.03c-1.4 1.03-1.23 3.23-.97 4.2C32.23 42.48 39 36.79 39 27.22 39 19.57 34.81 11.9 32.71 9c-.9.71-3.49 2.66-6.56 4.78C22.3 16.43 17 24.96 17 32.2Z" fill="#243A78"/><path d="M31.14 26.42c0-2.75-.78-5.31-1.18-6.26a282.24 282.24 0 0 0-4.57 5.61c-.27.4-4.32 8.1-4.19 10.65.1 2.03.89 4.18 1.27 5-.1-.44.42-1.94 3.18-4.4 3.44-3.06 5.49-7.18 5.49-10.6Z" fill="#F09421"/><path d="M20.16 33.92c0 3.97 1.6 6.84 2.4 7.78-.27-.76-.8-2.88-.8-5.2 0-2.9 2.67-7.38 5.15-9.32 2.49-1.93 3.53-3.95 3.53-5.6 0-1.33-.5-2.28-.74-2.59-5.45 3.51-9.54 9.97-9.54 14.93Z" fill="#FECF09"/></svg>