<!-- by TradeStack --><svg viewBox="0 0 56 56" xmlns="http://www.w3.org/2000/svg"><path fill="#F0F3FA" d="M0 0h56v56H0z"/><path fill-rule="evenodd" d="M13 33.98c0 1.16.5 1.1.68 1 .42 0 .58-.46.6-.8 1.84-6.46 8.38-8.86 13.02-10.56.43-.16.84-.3 1.23-.46 4.64-1.75 12.9-5.6 12.9-7.14 0-1.23-1.38-1.89-2.07-2.06-6.84-1.5-20.7-1.32-24.03 1.1-1.83 1.31-2.25 8.03-2.33 13.1v5.82Zm5.97-18.28c-1.8 1.84-.68 4.2.1 5.15 1.11 1.24 3.69 3.25 5.16 1.3 1.48-1.95.5-4.19-.18-5.06-.94-1.23-3.26-3.24-5.08-1.4Zm4.66 18.17c-.79-.95-1.9-3.31-.1-5.15 1.8-1.84 4.1.16 5.04 1.39.67.87 1.65 3.11.18 5.06-1.46 1.95-4.03-.05-5.12-1.3ZM31.05 43H20.24c-.35 0-.61-.32-.5-.64.7-2.1 2.63-5.37 6.12-5.37 3.52 0 5.18 3.3 5.7 5.4.08.32-.18.61-.51.61Zm3.8 0h3.08c1.69-.1 5.07-1.72 5.07-7.38V19.55a.6.6 0 0 0-.59-.6.65.65 0 0 0-.62.57c-.28 1.63-1.4 4.96-4.38 8.68-3.66 4.56-4.54 8.02-4.7 12.59A2.14 2.14 0 0 0 34.84 43Z" fill="#E40613"/></svg>