<!-- by TradeStack --><svg viewBox="0 0 56 56" xmlns="http://www.w3.org/2000/svg"><path fill="#F0F3FA" d="M0 0h56v56H0z"/><path d="M46.25 33.14h-3.32a5.07 5.07 0 0 0-5.06-4.45 5.12 5.12 0 0 0-5.06 4.45h-9.72a5.07 5.07 0 0 0-5.06-4.45 5.12 5.12 0 0 0-5.06 4.45H9.7c2.6-6.88 7.35-16.17 18.2-16.17 10.98 0 16.04 9.2 18.35 16.17Z" fill="#BED600"/><path d="M43.1 33c-.37-2.62-2.68-4.94-5.47-4.94-2.76 0-5.07 2.32-5.47 4.94h-8.54c-.37-2.62-2.68-5-5.47-5-2.76 0-5.07 2.38-5.47 5H9.92c2.56-6.71 7.23-16.03 17.91-16.03 10.74 0 15.76 9.23 18.03 16.03H43.1Zm-5.47 4.03a3.48 3.48 0 0 1-3.5-3.47 3.48 3.48 0 0 1 3.5-3.47c1.94 0 3.5 1.55 3.5 3.47a3.48 3.48 0 0 1-3.5 3.47Zm-19.42 0a3.48 3.48 0 0 1-3.5-3.47 3.48 3.48 0 0 1 3.5-3.47c1.93 0 3.5 1.55 3.5 3.47a3.52 3.52 0 0 1-3.5 3.47Zm29.62-5.08C44.04 20.84 37.18 15 27.95 15 14.62 15 9.72 27.83 8.13 32.06a2 2 0 0 0 .22 1.84c.37.53 1 1.1 1.66 1.1h2.84c.57 2.43 2.74 4 5.39 4 2.65 0 4.81-1.55 5.38-4h8.66c.57 2.43 2.73 4 5.38 4s4.81-1.55 5.38-4h2.97c1.08 0 1.99-1.13 1.99-2.23a3.79 3.79 0 0 0-.17-.82Z" fill="#1D1D1B"/><path d="M21.71 33.53a3.48 3.48 0 0 1-3.5 3.47 3.48 3.48 0 0 1-3.5-3.47 3.48 3.48 0 0 1 3.5-3.47c1.94 0 3.5 1.55 3.5 3.47ZM41.16 33.56a3.5 3.5 0 1 1-7 0 3.5 3.5 0 0 1 7 0Z" fill="#FFF200"/></svg>