<!-- by TradeStack --><svg viewBox="0 0 56 56" xmlns="http://www.w3.org/2000/svg"><path fill="#F0F3FA" d="M0 0h56v56H0z"/><path d="m6 33 3.22-9h4.07l-1.16 3.34h3.62L16.92 24H21l-3.23 9H13.7l1.3-3.67h-3.6L10.07 33H6ZM19 33l3-9h3.01l-.53 1.62c.8-1.16 1.95-1.62 3.33-1.62.8 0 1.4.14 1.83.42.43.28.73.68.91 1.2h.08a4.33 4.33 0 0 1 3.5-1.62c2.57 0 3.25 2.07 2.68 4.2L35.54 33h-3.92l1.3-4.93c.2-.6.33-1.67-.56-1.67-1.25 0-1.73 1.36-2 2.36L29.25 33h-3.93l1.33-4.93c.04-.12.07-.27.1-.46.1-.56.05-1.21-.68-1.21-1.2 0-1.65 1.35-1.93 2.3l-1.2 4.3H19ZM41.84 33c-1.02 0-1.94-.04-2.75-.12-.8-.08-1.5-.2-2.09-.36v-2.39a15.42 15.42 0 0 0 4.5.7c.22 0 .47-.02.76-.04.3-.03.55-.08.76-.15.22-.08.33-.2.33-.36a.42.42 0 0 0-.15-.31c-.09-.1-.28-.2-.58-.32-.3-.13-.77-.28-1.4-.48a7.92 7.92 0 0 1-1.55-.65c-.41-.24-.72-.5-.92-.78a1.88 1.88 0 0 1 .4-2.42 4.75 4.75 0 0 1 2.08-.97c.94-.23 2.13-.35 3.56-.35 1 0 1.93.07 2.78.2.84.14 1.65.34 2.43.61l-1.65 1.94c-.5-.2-1.08-.36-1.74-.5a7.92 7.92 0 0 0-1.76-.22c-.32 0-.57.04-.77.13-.18.08-.27.21-.27.39 0 .1.06.18.18.27.13.08.33.16.6.25l1.04.3c.7.2 1.27.42 1.72.67.45.24.79.51 1 .8.23.3.34.63.34 1 0 .7-.28 1.3-.84 1.77-.56.47-1.35.81-2.38 1.04-1.02.23-2.23.35-3.63.35Z" fill="#053D5E"/><path d="M25.5 34H23l-2 6h2.5l2-6ZM31.5 34H29l-2 6h2.5l2-6ZM31.5 17H29l-2 6h2.5l2-6ZM37.5 17H35l-2 6h2.5l2-6Z" fill="#B72333"/></svg>