<!-- by TradeStack --><svg viewBox="0 0 56 56" xmlns="http://www.w3.org/2000/svg"><path fill="#F0F3FA" d="M0 0h56v56H0z"/><path d="m19.62 27.55-1.27 1.88-.1 1.07 1.6 3.34c.43-.6 1.46-2.07 2.13-3.1.85-1.3.68-2.8-.28-3.56-.77-.6-1.71 0-2.08.37Z" fill="url(#ar2c0zcuo)"/><path d="m29.24 33.08-5.48 8.22c0 2 1.61 2.94 2.42 3.16l4.68-7.42-1.62-3.96Z" fill="url(#br2c0zcuo)"/><path d="M25.15 43.39a979.8 979.8 0 0 0-6.38-12.32 2.88 2.88 0 0 1-.22-2.03l-2.2 3.57a2.32 2.32 0 0 0-.04 2.37L23 46.55a.86.86 0 0 0 1.44.11l2.18-2.75c-.8.32-1.31-.22-1.47-.52Z" fill="url(#cr2c0zcuo)"/><path d="M29.73 11.53 25.4 18.2l-.13 2.19 1.59 2.56 5.2-7.84-2.32-3.6Z" fill="url(#dr2c0zcuo)"/><path d="m30.11 35.96-6.78-12.6a2.13 2.13 0 0 1 .09-2.15l2.21-3.4c-.23.66-.04 1.53.08 1.88l6.94 12.4a2.7 2.7 0 0 1-.23 2.98c-1 1.25-2.05 2.6-2.06 2.64.2-.64-.08-1.43-.25-1.75Z" fill="url(#er2c0zcuo)"/><path d="m33.84 25.05 2.19-3.42 2.26 3.42c-.37.6-1.25 1.96-1.85 2.73-.75.96-1.69 1.27-2.6 0-.73-1.01-.3-2.24 0-2.73Z" fill="url(#fr2c0zcuo)"/><path d="m39.73 22.93-2.23 3.49c.14-.98-.18-1.8-.35-2.08L29.63 11.6l1.61-2.18a1.04 1.04 0 0 1 1.75.1l6.78 11.6c.32.56.3 1.26-.04 1.8Z" fill="url(#gr2c0zcuo)"/><defs><linearGradient id="ar2c0zcuo" x1="22.32" y1="29.1" x2="19.06" y2="29.1" gradientUnits="userSpaceOnUse"><stop stop-color="#0B6A96"/><stop offset="1" stop-color="#133659"/></linearGradient><linearGradient id="br2c0zcuo" x1="24.93" y1="41.27" x2="30.3" y2="41.15" gradientUnits="userSpaceOnUse"><stop stop-color="#066796"/><stop offset="1" stop-color="#0F3D5A"/></linearGradient><linearGradient id="cr2c0zcuo" x1="19.04" y1="39.59" x2="21.86" y2="38.13" gradientUnits="userSpaceOnUse"><stop stop-color="#0171B0"/><stop offset="1" stop-color="#35A0C3"/></linearGradient><linearGradient id="dr2c0zcuo" x1="31.42" y1="14.17" x2="26.7" y2="19.89" gradientUnits="userSpaceOnUse"><stop stop-color="#083F61"/><stop offset="1" stop-color="#05668D"/></linearGradient><linearGradient id="er2c0zcuo" x1="26.4" y1="27.46" x2="28.53" y2="26.42" gradientUnits="userSpaceOnUse"><stop stop-color="#0178B0"/><stop offset="1" stop-color="#239AC8"/></linearGradient><linearGradient id="fr2c0zcuo" x1="34.07" y1="26.46" x2="37.17" y2="25.09" gradientUnits="userSpaceOnUse"><stop stop-color="#0D74AB"/><stop offset="1" stop-color="#044463"/></linearGradient><linearGradient id="gr2c0zcuo" x1="33.75" y1="16.97" x2="35.9" y2="15.89" gradientUnits="userSpaceOnUse"><stop stop-color="#0174B1"/><stop offset="1" stop-color="#2EA6D4"/></linearGradient></defs></svg>