<!-- by TradeStack --><svg viewBox="0 0 56 56" xmlns="http://www.w3.org/2000/svg"><path fill="#F0F3FA" d="M0 0h56v56H0z"/><path d="M32.74 12.71C32.67 14.95 30.57 17 28 17c-2.57 0-4.67-2.05-4.74-4.29a16 16 0 0 1 9.48 0Z" fill="#360075"/><path d="M43.47 23.9c-2.04.29-4.47 2.19-4.47 4.6 0 2.28 2.25 4.27 4.13 4.73.56-1.64.87-2.9.87-4.73 0-1.42-.19-3.3-.53-4.6ZM32.67 43.3C32.3 41.36 30.35 39 28 39s-4.3 2.35-4.67 4.3a16 16 0 0 0 9.34 0ZM12.9 33.32c2.15-.18 4.1-2.23 4.1-4.73 0-2.62-2.12-4.74-4.4-4.74h-.06A20.08 20.08 0 0 0 12 28.5c0 1.87.32 3.16.9 4.82Z" fill="#E98402"/><circle cx="20" cy="20" r="4" fill="#E98402"/><circle cx="20" cy="35" r="4" fill="#E98402"/><circle cx="36" cy="35" r="4" fill="#E98402"/><circle cx="36" cy="20" r="4" fill="#E98402"/></svg>