<!-- by TradeStack --><svg viewBox="0 0 56 56" xmlns="http://www.w3.org/2000/svg"><path fill="#F0F3FA" d="M0 0h56v56H0z"/><path fill-rule="evenodd" d="M28 45a17 17 0 1 0 0-34 17 17 0 0 0 0 34Zm-.5-1a15.5 15.5 0 1 0 0-31 15.5 15.5 0 0 0 0 31Z" fill="#007440"/><path fill-rule="evenodd" d="M28 42a14 14 0 1 0 0-28 14 14 0 0 0 0 28Zm1-3a12 12 0 1 0 0-24 12 12 0 0 0 0 24Z" fill="#434444"/><path fill-rule="evenodd" d="M28.5 38a10.5 10.5 0 1 0 0-21 10.5 10.5 0 0 0 0 21Zm-.5-1a9 9 0 1 0 0-18 9 9 0 0 0 0 18Z" fill="#007440"/></svg>