<!-- by TradeStack --><svg viewBox="0 0 56 56" xmlns="http://www.w3.org/2000/svg"><path fill="#F0F3FA" d="M0 0h56v56H0z"/><path fill-rule="evenodd" d="M33 21.79v12.5c.3-.2.87-.68 1-.93V29l1.44 2.33c.16-.29.5-.9.56-1.09l-1.12-1.47c.37-.42 1.12-1.5 1.12-2.49 0-1.24-.44-2.72-3-4.5Zm1 2.1V28c.35-.05 1.04-.48 1.04-1.79 0-1.3-.7-2.1-1.04-2.33Z"/><path d="M30 20.47a5.7 5.7 0 0 0-1-.47v9.94c0 .5 1.39 1.09 2 1.32v2.88c0 .18-.24.54-.56.54-.32 0-.41-.26-.44-.39v-2.02l-1-.46v2.71c0 .4.35 1.17 1.44 1.17 1.09 0 1.5-.93 1.56-1.4V21.16a3.35 3.35 0 0 0-1-.7v9.64a3.6 3.6 0 0 1-1-.4v-9.23ZM23.52 21.55v1.1l.48-.4v12.5c.13.2.79.4 1 .55V21.86l.6-.3v-1.1c-.77.25-1.7.83-2.08 1.1ZM28.56 20.85V20a6.4 6.4 0 0 0-2.56.39v14.99c.64.3 2.03.54 2.56.62v-1.01c-.45-.06-1.32-.18-1.56-.23v-6.14h1.56v-1.16H27v-6.3c.38-.12 1.3-.25 1.56-.3Z"/><path d="M22.72 23.34V22.1c-.32.07-1.72 1.47-1.72 2.87 0 1.4 2 4.74 2 5.52 0 .77-.44.93-.76.93-.58 0-1.2-2.02-1.44-3.03l-.8-.16c.08 3.03 1.6 4.35 2.4 4.35.8 0 1.44-1.08 1.44-1.86 0-1.71-1.84-4.2-1.84-5.52 0-1.05.48-1.68.72-1.86Z"/><path fill-rule="evenodd" d="M28 45a17 17 0 1 0 0-34 17 17 0 0 0 0 34Zm0-1a16 16 0 1 0 0-32 16 16 0 0 0 0 32Z"/><path d="M13.02 27c.5-7.5 6.49-13.49 13.98-13.98v1.02A14 14 0 0 0 14.04 27h-1.02Zm0 2c.5 7.5 6.49 13.49 13.98 13.98v-1.02A14 14 0 0 1 14.04 29h-1.02Zm2.02 0A13 13 0 0 0 27 40.96v-1A12 12 0 0 1 16.04 29h-1Zm2 0A11 11 0 0 0 27 38.96v-1A10 10 0 0 1 18.05 29h-1Zm1-2h-1A11 11 0 0 1 27 17.04v1A10 10 0 0 0 18.05 27Zm19.91 2A10 10 0 0 1 29 37.95v1A11 11 0 0 0 38.96 29h-1Zm1-2h-1A10 10 0 0 0 29 18.05v-1A11 11 0 0 1 38.96 27Zm1 2A12 12 0 0 1 29 39.96v1A13 13 0 0 0 40.96 29h-1Zm1.01-2h-1A12 12 0 0 0 29 16.04v-1A13 13 0 0 1 40.96 27Zm1 2A14 14 0 0 1 29 41.96v1.02c7.5-.5 13.49-6.48 13.98-13.98h-1.01Zm1.02-2h-1.01A14 14 0 0 0 29 14.04v-1.02c7.5.5 13.49 6.48 13.98 13.98Zm-26.94 0h-1A13 13 0 0 1 27 15.04v1A12 12 0 0 0 16.04 27Z"/></svg>