<?xml version='1.0' encoding='utf-8'?>
<!-- by TradeStack -->
<svg width="56" height="56" viewBox="0 0 56 56" xmlns="http://www.w3.org/2000/svg"><path fill="#082A61" d="M0 0h56v56H0z" /><path d="M15.63 33h-4.16v-1.4h1.1l-.63-1.6H8.58l-.63 1.6H9V33H5v-1.6h1.05l2.87-6.8H8V23h3.13l3.45 8.4h1.05V33ZM9 28.63h2.52l-1.25-3.43h-.01L9 28.63ZM47.41 23H50v8.3h1V33h-3.66v-1.7h1.02v-6.7h-.95V23Zm-13.94 8.48c.77 0 1.43-.28 1.86-.9h1.84A3.97 3.97 0 0 1 33.53 33a3.98 3.98 0 0 1-4.07-3.96A3.98 3.98 0 0 1 33.48 25a3.92 3.92 0 0 1 3.98 4.06l-.06.6h-6.25a2.37 2.37 0 0 0 2.32 1.82Zm-.07-4.93c-1.05 0-2.04.79-2.26 1.78h4.69a2.46 2.46 0 0 0-2.43-1.78ZM27 25h-2.63v1.7h.95v4.6h-.95V33H28v-1.7h-1v-1.99c0-.74.09-1.38.64-1.88.42-.4 1.12-.55 1.66-.58V25c-.96.04-1.87.5-2.3 1.44V25Zm-3 8h-2.7v-1.22A2.78 2.78 0 0 1 18.87 33 3.92 3.92 0 0 1 15 29.04 4 4 0 0 1 18.96 25c.97 0 1.82.46 2.34 1.28V25H24v1.7h-1v4.6h1V33Zm-7.22-3.96a2.28 2.28 0 0 0 2.25 2.27 2.3 2.3 0 0 0 .02-4.62 2.3 2.3 0 0 0-2.27 2.35ZM44.3 33H47v-1.7h-1v-4.6h1V25h-2.7v1.28A2.7 2.7 0 0 0 41.96 25 4 4 0 0 0 38 29.04 3.92 3.92 0 0 0 41.87 33c.99 0 1.88-.38 2.43-1.22V33Zm-2.27-1.7a2.28 2.28 0 0 1-2.25-2.26 2.3 2.3 0 0 1 2.27-2.35 2.3 2.3 0 0 1-.03 4.61Z" fill="#fff" /></svg>