<?xml version='1.0' encoding='utf-8'?>
<!-- by TradeStack -->
<svg width="56" height="56" viewBox="0 0 56 56" xmlns="http://www.w3.org/2000/svg"><path fill="#F0F3FA" d="M0 0h56v56H0z" /><path fill-rule="evenodd" d="M19.67 24h1.57v-.2h-.43c-.14 0-.23-.16-.18-.3l.55-1.26h1.86l.55 1.26c.06.14-.03.3-.17.3h-.44v.2h1.77v-.2h-.26a.4.4 0 0 1-.36-.25L22.23 19l-2.02 4.56a.4.4 0 0 1-.35.24h-.19v.2Zm3.27-2-.84-1.93-.82 1.93h1.66ZM10.5 23.99h1.57v-.2h-.43c-.14 0-.24-.16-.18-.3l.54-1.25h1.87l.55 1.25c.06.14-.03.3-.18.3h-.43v.2h1.76v-.2h-.26a.4.4 0 0 1-.36-.25l-1.9-4.5-2 4.51a.4.4 0 0 1-.36.24h-.19v.2ZM13.76 22l-.83-1.9-.82 1.9h1.65Zm17.03 2h-1.57v-.2h.19a.4.4 0 0 0 .35-.24l2-4.56 1.91 4.55c.07.15.2.25.36.25h.26v.2h-1.76v-.2h.43c.14 0 .24-.16.18-.3l-.55-1.26h-1.87l-.54 1.27c-.06.13.04.3.18.3h.43V24Zm.86-3.93.84 1.93h-1.67l.83-1.93ZM40.58 24H42v-.2h-.43c-.15 0-.24-.16-.18-.3l.5-1.15h1.95l.5 1.15c.07.14-.03.3-.17.3h-.43v.2h1.76v-.2h-.26a.4.4 0 0 1-.36-.25l-1.9-4.5-2.01 4.51a.4.4 0 0 1-.36.24h-.25c-.22 0-.36-.19-.36-.42v-3.74c0-.23.14-.42.36-.42h.22V19h-1.35l-1.73 3.94L35.75 19H34.4v.21h.21c.23 0 .39.19.39.42v3.74c0 .23-.16.42-.39.42h-.21V24h1.66v-.21h-.23a.42.42 0 0 1-.42-.42V19.8L37.4 24l1.95-4.2v3.57c0 .23-.19.42-.42.42h-.18V24h1.84v-.01Zm3.16-1.88-.88-2.02-.87 2.02h1.75ZM15.84 19v.21h.18c.22 0 .4.2.4.42v3.75c0 .23-.18.41-.4.41h-.18V24h3.5l.41-1.27h-.16l-.68 1.06h-1.52c-.22 0-.4-.18-.4-.41v-3.75c0-.23.18-.42.4-.42h.22V19h-1.77Zm9 0v.23h.18c.22 0 .4.18.4.41v3.73a.4.4 0 0 1-.4.41h-.17V24h2.45c.57 0 1.65-.3 1.65-1.33 0-.84-.65-1.18-.98-1.24.26-.11.79-.48.79-1.08 0-1.04-.94-1.33-1.4-1.35h-2.51Zm1.16.23v2.06h1c.53 0 1.16-.46 1.16-1.03 0-.57-.63-1.03-1.17-1.03H26Zm0 2.28v2.25h1.06c.58 0 1.25-.5 1.25-1.12 0-.62-.67-1.13-1.25-1.13H26Zm7.95 8.99h-1.6v-.2h.2c.15 0 .3-.1.36-.24l2.03-4.56 1.93 4.55c.06.15.2.25.36.25h.27v.2H35.7v-.2h.44c.14 0 .24-.16.18-.3l-.51-1.16h-1.98l-.5 1.16c-.07.14.03.3.17.3h.44v.2Zm.87-3.93.9 2.03h-1.78l.88-2.03Zm-22.37 3.9h-1.59v-.2h.19c.15 0 .3-.09.36-.24l2.03-4.5 1.93 4.5c.06.15.2.24.36.24H16v.2H14.2v-.2h.44c.14 0 .24-.15.18-.3l-.51-1.14h-1.98l-.5 1.15c-.07.14.03.3.17.3h.44v.19Zm.87-3.89.9 2.01h-1.78l.88-2Zm2.86 3.67v.23h1.8v-.23h-.23a.4.4 0 0 1-.4-.41v-3.7a.4.4 0 0 1 .4-.41h.23v-.23h-1.8v.23h.2c.22 0 .4.18.4.4v3.7a.4.4 0 0 1-.4.42h-.2Zm2.4-4.52h-.21v-.22h2.35c.7 0 1.28.6 1.28 1.34 0 .71-.52 1.29-1.19 1.34l1.62 2.09h.48v.2h-1.2l-1.56-2.29h-.58v1.66c0 .22.18.4.4.4h.18v.24h-1.78v-.23h.21a.4.4 0 0 0 .4-.41v-3.7a.4.4 0 0 0-.4-.42Zm.97 2.23V26.1c.03-.13.16-.4.43-.4h.4c.56 0 .92.6.92 1.18 0 .66-.63 1.08-1.26 1.08h-.49Zm8.27-2.23h.2c.23 0 .4.19.4.42v3.7a.4.4 0 0 1-.4.4h-.2v.24h1.77v-.23h-.18a.4.4 0 0 1-.4-.41v-1.66h.59l1.56 2.29h1.2v-.2h-.48l-1.62-2.09c.66-.05 1.19-.63 1.19-1.34 0-.74-.58-1.34-1.29-1.34h-2.34v.22Zm1.18.37v1.86h.48c.64 0 1.27-.42 1.27-1.08 0-.58-.37-1.17-.92-1.17h-.4c-.27 0-.4.26-.43.39Zm-2.73-.34c.18.04.4.01.44-.24h.4v.7h-.02v.91h-.16c-.24-.82-.8-1.4-1.45-1.4-.87 0-1.57 1.01-1.57 2.25s.7 2.25 1.57 2.25c.6 0 1.12-.5 1.38-1.2h.46a2.22 2.22 0 0 1-2.01 1.4c-1.23 0-2.22-1.1-2.22-2.45 0-1.36 1-2.46 2.22-2.46.34 0 .67.09.96.24Zm11.35-.07v-.19h3.35v1.05h-.19v-.23a.61.61 0 0 0-.6-.63h-1.4v2.12h.77a.6.6 0 0 0 .6-.62v-.02h.21v1.45h-.21v-.02a.6.6 0 0 0-.6-.62h-.76v1.88c0 .23.18.42.4.42h.2v.22h-1.77v-.22h.2a.4.4 0 0 0 .4-.42v-3.75a.4.4 0 0 0-.4-.42h-.2Zm3.74.84V25.5h3.78v1.03h-.19v-.22a.6.6 0 0 0-.6-.62h-.8v4.17c0 .23.17.42.4.42h.18v.22H42.4v-.22h.19a.4.4 0 0 0 .4-.42V25.7h-.83a.6.6 0 0 0-.6.62v.22h-.19Zm-.9 5.7V32h3.6v1.04h-.21v-.4a.4.4 0 0 0-.4-.4h-1.78v2.05h1.17a.4.4 0 0 0 .4-.41v-.22h.22v1.49h-.22v-.21a.4.4 0 0 0-.4-.42h-1.17v2.26h1.91l.69-1.03h.2L44.06 37h-3.6v-.22h.23a.4.4 0 0 0 .4-.41v-3.72a.4.4 0 0 0-.4-.42h-.23ZM25.79 37v-1.67H26c.01.47.28 1.4 1.28 1.4 1.24 0 1.05-1.25 0-1.8-1.06-.57-1.5-.95-1.5-1.76S26.42 32 27.12 32c.29 0 .46.08.58.14.18.09.27.13.48-.14h.19v1.67h-.2c-.04-.46-.32-1.39-1.05-1.39-.92 0-1 1.02-.13 1.5l.15.1c.81.45 1.62.9 1.62 1.82 0 .98-.92 1.3-1.47 1.3-.3 0-.66-.17-.94-.35a.22.22 0 0 0-.34.19V37h-.21ZM8 36.77V37h1.57v-.23h-.2c-.2 0-.37-.18-.37-.41v-3.72c0-.23.18-.41.37-.41h.2V32H8v.23h.17c.19 0 .34.18.34.41v3.72c0 .23-.15.41-.34.41H8Zm30.38.23h-1.2l-1.56-2.31H35v1.66c0 .23.2.41.43.41h.18V37h-1.78v-.24h.22a.4.4 0 0 0 .4-.41v-3.71a.4.4 0 0 0-.4-.42h-.22V32h2.35c.7 0 1.28.6 1.28 1.35 0 .7-.52 1.29-1.19 1.34l1.63 2.1h.47v-.02h.2c.21 0 .43-.18.43-.41v-3.72c0-.23-.22-.41-.43-.41h-.2V32h1.8v.23h-.23c-.22 0-.34.18-.34.41v3.72c0 .23.12.41.34.41h.23V37h-1.8ZM35 34.46v-1.88c.03-.13.16-.38.43-.38h.4c.56 0 .92.59.92 1.17 0 .67-.63 1.09-1.26 1.09H35ZM9.72 32v.2h.5l.38.41v3.76a.4.4 0 0 1-.4.4h-.18V37h1.58v-.23h-.2a.4.4 0 0 1-.4-.4v-3.22L14.36 37v-4.4c0-.22.18-.4.4-.4h.2V32h-1.6v.2h.22c.22 0 .42.18.42.4v3.05L10.86 32H9.72Zm5.69 0v.22h.19c.22 0 .4.19.4.42v3.7c0 .23-.18.42-.4.42h-.2V37h2.45c1.31 0 2.15-1.12 2.15-2.5s-.84-2.5-2.15-2.5H15.4Zm1.2 4.79V32.2h.82c1.1 0 1.98.93 1.98 2.08v.42c0 1.15-.89 2.08-1.98 2.08h-.83ZM20.4 32v.23h.18c.22 0 .42.18.42.4v2.72c0 .91.69 1.65 1.56 1.65h.57c.88 0 1.59-.74 1.59-1.65v-2.71a.4.4 0 0 1 .4-.41h.25V32h-1.6v.23h.18c.22 0 .4.18.4.4v2.87c0 .68-.53 1.24-1.2 1.24h-.39c-.66 0-1.19-.56-1.19-1.24v-2.86a.4.4 0 0 1 .4-.41h.2V32H20.4ZM45 35.33V37h.22v-.16c0-.17.2-.28.34-.19.28.18.65.35.95.35.56 0 1.49-.31 1.49-1.3 0-.92-.81-1.37-1.64-1.82l-.15-.1c-.88-.48-.8-1.5.13-1.5.74 0 1.03.93 1.08 1.4h.19v-1.64h-.2c-.2.26-.3.21-.47.12-.13-.07-.3-.16-.6-.16-.7 0-1.34.36-1.34 1.17 0 .81.44 1.2 1.51 1.75 1.07.56 1.26 1.8 0 1.8-1 0-1.28-.92-1.3-1.39H45Zm-15.65-2.3V32h3.77v1.03h-.21v-.4a.4.4 0 0 0-.4-.42h-.98v4.16c0 .23.18.42.4.42h.19V37h-1.76v-.21h.19c.22 0 .45-.19.45-.42V32.2h-1.03a.4.4 0 0 0-.4.42v.4h-.22Z" /></svg>