<!-- by TradeStack --><svg width="56" height="56" viewBox="0 0 56 56" xmlns="http://www.w3.org/2000/svg"><path fill="#F0F3FA" d="M0 0h56v56H0z"/><path d="M25.17 14.55a11.47 11.47 0 0 0-.37 1.53.1.1 0 0 0 .1.07c.27 0 .57-.01.82-.14.84-.42 1.66-.78 2.47-1.09 2.94-1.12 4.43.88 5.88 2.82.37.5.74 1 1.14 1.44.57.64 1.36 1.2 2.16 1.76 2.11 1.48 4.3 3.02 2.76 6.2l-.64 1.16a8.25 8.25 0 0 0-1.14 2.58c-.44 2.53.1 5.25 3.14 5.63.95.12 1.78-.27 2.49-1.16a.12.12 0 0 0-.1-.19c-2.21.26-3.85-1.08-3.73-3.34.05-.8.26-1.48.65-2.06l.62-.87c.96-1.34 1.8-2.5 1.84-4.44a6.52 6.52 0 0 0-2.73-5.7l-3.02-2.23c-.93-.7-1.5-1.61-2.1-2.55l-.18-.3a1.63 1.63 0 0 0-.72-.54 18.66 18.66 0 0 0-4.85-1.1c-2.01-.2-3.8.42-4.49 2.52Zm4.6 4.3a1.97 1.97 0 0 1 0-.8c.15-.75.46-1.26.93-1.54.42-.25.4-.4-.06-.47-.37-.06-.76-.1-1.07.2-.66.64-.88 2.25.07 2.75h.05a.1.1 0 0 0 .05-.02.12.12 0 0 0 .04-.05v-.07Zm-10.76.09c-.03-.13.02-.24.16-.32a11.73 11.73 0 0 1 3.98-1.58c.24-.05.49-.05.74-.02.14.03.15.07.02.12-1.31.53-2.8 1.07-4.44 1.64a1.3 1.3 0 0 0-.35.19c-.06.05-.1.04-.11-.03Zm9.09 2.2c-.2.72-.7 1.06-1.51 1.03a.1.1 0 0 1-.05-.02.11.11 0 0 1-.04-.04.13.13 0 0 1 0-.12c.07-.12.15-.22.23-.31.18-.22.33-.4.17-.82-.03-.09-.09-.13-.17-.12-.73 0-1.16.46-1.29 1.34-.17 1.18 1.69.93 2.2.82 1.03-.25 1.48-.93 1.33-2.05-.2-1.5-1.54-2-2.73-1.8-.49.07-.86.41-1.12 1-.24.56-.11.71.4.46.5-.26 1.76-.6 2.27-.27.31.2.42.5.3.9Zm10.1 6.23c.22.05.43.07.65.07.18 0 .2.05.04.15-1.91 1.17-3.03-.37-3.54-1.92-.3-.9-.59-1.7-.9-2.42-.68-1.62-1.98-2-2.9-.23-.25.46-.41.43-.5-.08-.22-1.14.41-2.7 1.75-2.9a2 2 0 0 1 2.08.84c.37.51.66 1.07.87 1.67.36 1.02.72 2.06 1.06 3.12.2.57.73 1.56 1.4 1.7ZM21.88 20.4l-1.8-.08c-.15 0-.16-.05-.04-.13l.36-.22c.39-.22.87-.5.98-.8.04-.13 0-.18-.13-.15a6.9 6.9 0 0 0-2.08.8c-1.6 1.02-3.29 2.03-5.05 3.04-.7.4-1.4.92-1.9 1.54-.52.61.04 1.37.54 2.06.24.32.46.62.56.9.3.8.58 1.66.84 2.56.26.94.83 2.1 1.95 2.09a3.7 3.7 0 0 0 2.73-1.28c.17-.18.14-.22-.09-.11-.89.42-2.23.89-3.11.38-.39-.23-.78-.98-.48-1.4.48-.67 1.2-.47 1.94-.28.88.24 1.78.48 2.34-.7a.26.26 0 0 0-.01-.23c-.47-.88-1.18-.47-1.86-.09-.33.2-.66.38-.95.41-1.98.22-2.63-.74-2.76-2.54a.27.27 0 0 1 .13-.25c.32-.2.64-.4.96-.62.18-.13.24-.3.18-.5a.16.16 0 0 0-.18-.12l-.87.12c-.34.05-.4-.05-.16-.3.26-.29.57-.56.94-.8 1.45-.98 2.93-1.96 4.42-2.93a.2.2 0 0 1 .27.04c.04.06.04.15-.02.27-.25.51-.41.98-.48 1.4-.05.37.06.43.35.19.5-.42 1.05-.83 1.66-1.23.29-.18.53-.43.76-.67l.15-.15a.13.13 0 0 0-.02-.2.13.13 0 0 0-.07-.02Zm9.3 3.78c1.68.49 2.96 2.26 3.52 3.94.94 2.86-.37 4.8-2.52 6.22l-.66.43c-1.24.8-2.54 1.65-3.65 2.64a6.19 6.19 0 0 0-2.1 6.39l-.01.1a.17.17 0 0 1-.06.08.15.15 0 0 1-.18.01 2.8 2.8 0 0 1-1.1-1.44c-1.48-4.16 1.29-6.55 3.9-8.8.49-.43.97-.85 1.42-1.27a7.15 7.15 0 0 0 2.29-3.9c.3-1.49-.5-3.11-1.41-4.29a.18.18 0 0 1-.03-.18.17.17 0 0 1 .06-.07.16.16 0 0 1 .09-.03c.08 0 .15.02.21.06a.7.7 0 0 0 .23.11Zm-5.52 3.1a5.09 5.09 0 0 1-3.43 2.08c-.1 0-.16.05-.2.15a.26.26 0 0 0 0 .18.2.2 0 0 0 .13.14c.25.09.53.14.84.16 1.98.16 3.69-.92 4-3.13.05-.4-.05-.78-.15-1.17a8.74 8.74 0 0 1-.1-.43c-.06-.33-.15-.33-.26-.02l-.12.36c-.2.6-.4 1.21-.7 1.68Zm-4.88 11.06c-.76.54-1.8 1.6-1.97 2.54a.16.16 0 0 1-.07.1.15.15 0 0 1-.12.02.82.82 0 0 1-.57-.68c-.25-1.56.67-2.76 1.8-3.62l1.05-.75c1.44-1.02 2.89-2.05 3.72-3.7.17-.34.29-.32.33.07.07.53.08 1.08.03 1.67-.12 1.63-2.07 2.92-3.5 3.87-.25.17-.5.33-.7.48Zm16.54 1.23c-1.34-.06-2.72-.58-2.74-1.87a40.43 40.43 0 0 0-.07-1.66.08.08 0 0 0-.04-.02.1.1 0 0 0-.09 0c-1.5.9-3.36 2.35-1.75 3.93 1.28 1.26 4.18 1.16 5.98.9a5.14 5.14 0 0 0 2.12-.77c.42-.28.37-.42-.17-.42-1.09 0-2.17-.03-3.24-.09Z" fill="#7C7C7B"/></svg>