<!-- by TradeStack --><svg width="56" height="56" viewBox="0 0 56 56" xmlns="http://www.w3.org/2000/svg"><path fill="#F0F3FA" d="M0 0h56v56H0z"/><path d="M22.73 30.14c.17 1.49.35 2.88.76 4.38a104.42 104.42 0 0 1 1.16 4.77c0 .03-.01.05-.03.07l-.64.96c-.04.06-.08.06-.1-.01a5.13 5.13 0 0 1-.34-1.02l-1.38-5.98c-.37-1.63.57-3.15-1.93-3.33a32.28 32.28 0 0 0-3.52-.12c-.92.06-1.1.85-1.1 1.6 0 3.33.01 6.77-.35 10.08-.01.14-.05.28-.1.41l-.04.04h-.06c-.74-.28-.39-6.17-.38-6.9a467.06 467.06 0 0 0-.03-4.65.15.15 0 0 0-.14-.07c-.02 0-.05.01-.07.03-1.45.9-2.86 1.96-4.27 2.95h-.04s-.02 0-.02-.02v-.02c.1-1.27.23-2.53.35-3.8.14-1.45.09-2.4-.44-3.65a.3.3 0 0 1 .04-.3.3.3 0 0 1 .28-.11l.62.06c.05 0 .09.03.11.06.9 1.04 1.88 2.39 3.5 2.55h.03a.06.06 0 0 0 .04-.04v-.03a147.8 147.8 0 0 0-.15-4.28c-.11-2.41-1.71-4.35-3.3-6.37a.2.2 0 0 1-.05-.13c0-.21.08-.39.23-.54a.18.18 0 0 1 .14-.05c1.48.02 2.96-.06 4.43-.25.8-.1 1.53.23 2.31-.04.8-.28 1.95-.44 2.65-.87a3.65 3.65 0 0 1 1.71-.55.04.04 0 0 1 .03.04v.02a25.2 25.2 0 0 0-1.3 4.3c-.25 1.24-.1 2.6-.02 3.87.07 1.3.38 2.63.58 3.96.09.56.32 1.07.5 1.6a.2.2 0 0 0 .08.1c.03.03.08.14.12.14h9.21c.04 0 .09-.1.12-.12a.2.2 0 0 0 .07-.1c.21-.63-.43-1.37-.67-1.96-.63-1.52-1.3-3.07-2.56-4.2-.47-.43-1.11-.36-1.6-.81a5.21 5.21 0 0 1-.41-.47.06.06 0 0 1 .01-.06l.03-.01c.82-.3 1.68-.47 2.42-.91l.94-.56a.17.17 0 0 0 .08-.1c.08-.28.2-.44.5-.52a8.72 8.72 0 0 0 2.83-1.3.26.26 0 0 0 .09-.11c.2-.47.6-.43.93-.64.81-.52 1.7-1.22 2.62-1.52.95-.3 1.87-.68 2.76-1.14a.23.23 0 0 0 .1-.1c.17-.33.46-.44.87-.33.02 0 .04.02.05.04v.05c-.14.58-.4 1.15-.45 1.7-.23 2.52 1.4 5.27 2.58 7.45 1.07 1.98 2.08 3.88 2.76 5.38.14.3.16.67.04 1.08a.14.14 0 0 1-.1.1 6.97 6.97 0 0 1-1.66.26.13.13 0 0 0-.05.05c-.24.5-.45.94-.8 1.38-.64.77-1.29 1.52-1.69 2.43-.5 1.14-1.11 2.51-1.17 3.76a30.8 30.8 0 0 0 0 3.07c.03.48-.19.72-.65.72-.03 0-.05 0-.07-.02a7.13 7.13 0 0 0-5.11-4.36c-.46-.15-.45-.93-.1-1.03 1.25-.32 2.5-.38 3.66-1.02 1.78-1 4-2.94 4.65-4.92a.07.07 0 0 0-.03-.09 16.4 16.4 0 0 0-1.68-.07h-5.3c-.35.01-.86.21-1.07.53-1.14 1.78-2.33 3.36-2.63 5.51-.16 1.22-.03 2.26.08 3.4.03.32-.3 1.3-.78.7-.57-.69-1.13-1.4-1.69-2.1a3 3 0 0 0-.81-.73 65.45 65.45 0 0 1-3.09-1.62.14.14 0 0 1-.02-.06l-.02-.49c0-.02 0-.04.02-.06a95.55 95.55 0 0 0 2.6-.72c1.26-.35 3.14-1.28 3.88-2.35.44-.65.9-1.28 1.38-1.9.03-.03.02-.1-.03-.11H24.4a19.86 19.86 0 0 0-1.65.1.06.06 0 0 0-.01.04Zm17-13.16a.13.13 0 0 0 .17-.04.12.12 0 0 0 .02-.06l.05-1.27a.12.12 0 0 0-.06-.1.13.13 0 0 0-.12-.01l-1.23.58a.13.13 0 0 0-.07.1.12.12 0 0 0 .06.12l1.18.68Zm1.25 3.5c-.4-.85-1.96-3.99-3.12-3.89l-.06.02a.13.13 0 0 0-.04.05c-.42.71-.26 1.95 0 2.63 1.12 2.99 2.42 5.9 3.9 8.74.14.27.22.52.32.8.01.04.05.17.1.17h2.43c.05 0 .09-.14.07-.19-1-2.82-2.34-5.6-3.6-8.32Zm-5.66-2.58c.27.32.99.68 1.37.8a.21.21 0 0 0 .24-.09 6.61 6.61 0 0 0 0-1.75.08.08 0 0 0-.12 0 4.81 4.81 0 0 1-1.48.87.13.13 0 0 0-.03.12l.02.05Zm-16.94.1c.1.54.8 2 1.61 1.68a.18.18 0 0 0 .1-.1 12.62 12.62 0 0 0 .74-2.51.08.08 0 0 0-.04-.05h-.03a3.43 3.43 0 0 0-2.38.93.1.1 0 0 0 0 .05Zm18.71 2.66a6.3 6.3 0 0 0-2.18-2.25c-.8-.58-.83 1-.88 1.45-.1.9.14 1.35.65 2.2.73 1.22 1.11 2.56 1.71 3.83.47 1 .93 2 1.37 3 .02.05.06.11.11.11h2.66c.24 0 .32-.2.25-.42-.27-.86-.58-1.66-.95-2.4l-2.74-5.52Zm-20.94-2.25c-.83.17-1.4.05-2.21.02h-.02l-.02.02a.05.05 0 0 0-.01.05c.22.78.56 1.5 1.02 2.19.13.2.25.19.37-.02.3-.53.57-1.06.87-1.58.1-.18.17-.35.19-.52a.15.15 0 0 0-.05-.12.15.15 0 0 0-.14-.04Zm17.61.4c-.7-.22-1.15.25-1.54.71a.12.12 0 0 0-.01.13c.26.49.67.76 1.23.82a.1.1 0 0 0 .06-.02 7.46 7.46 0 0 0 .28-1.63c0-.01 0-.02-.02-.02ZM15.95 28.82c.08.05.17.09.27.1a46.28 46.28 0 0 0 4.84.03.15.15 0 0 0 .08-.08v-.06c-.14-1.58-.46-3.1-.82-4.63a9.52 9.52 0 0 0-2.76-5 .2.2 0 0 0-.24.09c-1.1 1.64-1.74 2.9-1.73 4.92l.02 3.99c0 .27.11.48.34.64Zm17.59-6.9a4.04 4.04 0 0 0-2.51-1.78.1.1 0 0 0-.05.03c-.36.44-.32.8-.36 1.47-.06 1.28.45 1.9.9 2.98a119.1 119.1 0 0 0 1.62 3.82c.15.33.35.55.74.55h2.25c.37 0 .36-.59.25-.82-.37-.74-1.14-2.36-2.32-4.87-.2-.42-.27-.97-.52-1.39Zm-5.15-.35c.45.18.86.43 1.22.76a.19.19 0 0 0 .2.03.18.18 0 0 0 .08-.07.18.18 0 0 0 .03-.1l.02-1.21a.2.2 0 0 0-.1-.18.21.21 0 0 0-.21 0l-1.25.71a.03.03 0 0 0-.02.03l.01.02.02.01Zm-14.37 7.7a9.96 9.96 0 0 0-2.4-1.03l-.03.01a.06.06 0 0 0-.03.06 17.4 17.4 0 0 1 .03 2.57.08.08 0 0 0 .06.05h.03a4.45 4.45 0 0 0 2.4-1.53.11.11 0 0 0-.02-.1.12.12 0 0 0-.04-.03Zm14.7 6.51c.4.66 1.27 1.13 2 1.35a.13.13 0 0 0 .1-.01.13.13 0 0 0 .06-.08c.19-.76.1-1.44.28-2.35v-.05a.07.07 0 0 0-.05-.04c-.46-.1-1.88.68-2.32.92a.2.2 0 0 0-.09.11.18.18 0 0 0 .02.15Zm10.15 2.8c.19.21.56.24.57-.09a24.17 24.17 0 0 1 .24-2.66.08.08 0 0 0-.05-.03c-.53-.18-1.9.57-2.44.8a.05.05 0 0 0-.02.04.05.05 0 0 0 0 .05c.58.62 1.14 1.25 1.7 1.89Z" fill="#C49034"/></svg>