<!-- by TradeStack --><svg viewBox="0 0 56 56" xmlns="http://www.w3.org/2000/svg"><path fill="#F0F3FA" d="M0 0h56v56H0z"/><path d="M20 20v13h-5v-1.25A5.33 5.33 0 0 1 11.5 33c-2.18-.04-7.32-1.08-7.5-7.45-.05-1.3.3-4.23 2.13-5.55H20Zm-8 8.44c1.66 0 3-1.31 3-2.93a2.97 2.97 0 0 0-3-2.94c-1.66 0-3 1.32-3 2.94a2.97 2.97 0 0 0 3 2.93Z" fill="#0156A1"/><path d="M36 20v13h-5v-1.25A5.33 5.33 0 0 1 27.5 33c-2.18-.04-7.32-1.08-7.5-7.45-.05-1.3.3-4.23 2.13-5.55H36Zm-8 8.48c1.66 0 3-1.32 3-2.94a2.97 2.97 0 0 0-3-2.93c-1.66 0-3 1.31-3 2.93a2.97 2.97 0 0 0 3 2.94Z" fill="#0156A1"/><path fill-rule="evenodd" d="M37 20h13v11.46A8.4 8.4 0 0 1 45.19 33 4.42 4.42 0 0 1 42 31.9v2.93a2.86 2.86 0 0 0-5 .1V20Zm0 17.6V40h5v-2.3a2.86 2.86 0 0 1-5-.1Zm8-9.17a3 3 0 1 1 0-6 3 3 0 0 1 0 6Z" fill="#0156A1"/><circle cx="39.5" cy="36.3" r="2.5" fill="#00988D"/></svg>