<?xml version='1.0' encoding='utf-8'?>
<!-- by TradeStack -->
<svg width="56" height="56" viewBox="0 0 56 56" xmlns="http://www.w3.org/2000/svg"><path fill="#F0F3FA" d="M0 0h56v56H0z" /><path fill-rule="evenodd" d="M18.36 22.62a1.27 1.27 0 0 0-.41-.6.99.99 0 0 0-.33-.17 1.35 1.35 0 0 0-1.1.14c-.2.13-.35.32-.47.58-.11.25-.17.56-.17.93 0 .36.06.68.17.93.12.26.27.45.48.58.2.13.44.2.71.2.25 0 .46-.05.64-.14a1 1 0 0 0 .41-.4c.1-.18.15-.43.15-.67H17v-.61h2.29v.58c0 .42-.1.78-.27 1.08-.17.3-.42.54-.72.7-.31.17-.67.25-1.06.25-.45 0-.84-.1-1.17-.3-.34-.2-.6-.49-.79-.86A2.95 2.95 0 0 1 15 23.5c0-.4.05-.75.16-1.06.12-.3.27-.57.47-.78.2-.22.44-.39.7-.5.27-.11.56-.17.88-.17.27 0 .52.04.75.12a1.97 1.97 0 0 1 1.06.85c.11.2.19.41.23.65h-.9ZM20 21v5h3v-.76h-2V21h-1Zm8 2.5c0 .53-.1.98-.3 1.35A2.1 2.1 0 0 1 25.75 26a2.13 2.13 0 0 1-1.96-1.16c-.2-.37-.29-.82-.29-1.34 0-.52.1-.97.3-1.34A2.11 2.11 0 0 1 25.74 21c.43 0 .81.1 1.15.3.34.2.6.48.8.86.2.37.3.82.3 1.34Zm-.9 0c0-.37-.05-.68-.17-.93a1.29 1.29 0 0 0-.47-.58c-.2-.13-.44-.2-.71-.2-.27 0-.5.07-.7.2-.2.13-.37.32-.49.58-.11.25-.17.56-.17.93s.06.68.17.94c.12.25.28.44.48.58.2.13.44.2.71.2.27 0 .5-.07.7-.2.2-.14.37-.33.48-.58.12-.26.18-.57.18-.94ZM29 21v5h1.95c.37 0 .68-.06.92-.18a1.25 1.25 0 0 0 .73-1.18c0-.26-.05-.47-.15-.65a1.12 1.12 0 0 0-.88-.58v-.05c.16-.04.3-.1.42-.2.13-.08.23-.2.3-.34a1.27 1.27 0 0 0-.06-1.19c-.1-.2-.28-.35-.51-.46a1.96 1.96 0 0 0-.87-.17H29Zm1.81 4.24H30v-1.46h.84c.18 0 .33.03.46.1s.24.17.3.29c.08.12.11.25.11.4 0 .2-.07.36-.21.49-.14.12-.37.18-.69.18Zm-.07-2.11H30v-1.38h.76c.26 0 .45.06.58.19.13.12.2.28.2.47a.68.68 0 0 1-.4.63.94.94 0 0 1-.4.09ZM33.82 26h-.93l1.7-5h1.07l1.7 5h-.93l-.32-1h-1.97l-.32 1Zm1.32-3.97.64 1.97h-1.31l.64-1.97h.03ZM38 26v-5h1v4.24h2V26h-3ZM4.94 34H4l1.71-5h1.1l1.71 5h-.94l-.4-1.23H5.33L4.94 34Zm1.34-3.97L6.92 32H5.6l.65-1.97h.04Zm6.12.68h.9a2 2 0 0 0-.24-.72c-.12-.22-.27-.4-.45-.54a1.94 1.94 0 0 0-.62-.34 2.42 2.42 0 0 0-1.9.19c-.34.2-.6.48-.8.85-.2.38-.29.83-.29 1.35 0 .52.1.97.29 1.35A2.07 2.07 0 0 0 11.23 34c.29 0 .55-.04.8-.13a1.99 1.99 0 0 0 1.05-.9c.1-.2.18-.42.21-.65h-.89a1.06 1.06 0 0 1-.75.83 1.42 1.42 0 0 1-1.1-.13c-.21-.13-.37-.33-.49-.58a2.27 2.27 0 0 1-.17-.94c0-.37.05-.68.17-.93.12-.25.28-.45.48-.58a1.35 1.35 0 0 1 1.12-.14 1.06 1.06 0 0 1 .74.86Zm3.85 1.63h.8l.26.34c.18-.29.28-.67.28-1.15 0-.37-.06-.69-.18-.94a1.3 1.3 0 0 0-.47-.59c-.2-.13-.44-.2-.7-.2-.27 0-.5.07-.7.2-.2.13-.37.33-.48.59-.12.25-.17.57-.17.94 0 .84.4 1.73 1.35 1.73.22 0 .42-.04.6-.14l-.6-.78Zm2.22-.8c0 .77-.22 1.4-.61 1.83l.5.63h-.86l-.16-.21c-.33.18-.7.21-1.1.21C14.8 34 14 32.92 14 31.53c0-.53.1-.98.3-1.36A2.12 2.12 0 0 1 16.23 29a2.1 2.1 0 0 1 1.94 1.17c.2.38.3.83.3 1.36ZM23 29h-1v3.14c0 .64-.38 1.06-1 1.06s-1-.42-1-1.06V29h-1v3.22c0 1.12.94 1.78 2 1.78s2-.66 2-1.78V29Zm1 0h1v5h-1v-5Zm4.21.92c.17.11.26.28.28.48h.85c0-.27-.08-.51-.23-.72a1.48 1.48 0 0 0-.61-.5 2.14 2.14 0 0 0-.91-.18c-.34 0-.65.06-.92.18s-.48.29-.64.5c-.15.22-.23.47-.23.75 0 .35.12.63.35.84.23.21.55.37.95.47l.55.14.46.15c.13.06.23.13.3.21.08.08.12.19.12.31 0 .14-.05.27-.13.37-.08.1-.2.18-.34.24-.15.06-.31.09-.5.09s-.36-.03-.5-.09a.83.83 0 0 1-.36-.25.74.74 0 0 1-.16-.42h-.87c.01.32.1.6.25.82.16.23.38.4.66.51.27.12.6.18.98.18.4 0 .72-.06 1-.18.27-.12.48-.3.63-.5.15-.22.22-.47.22-.76 0-.2-.04-.4-.12-.55a1.22 1.22 0 0 0-.32-.4c-.14-.11-.3-.2-.46-.27a3.15 3.15 0 0 0-.53-.18l-.46-.11a2.9 2.9 0 0 1-.3-.09c-.1-.03-.18-.08-.26-.13a.63.63 0 0 1-.2-.19.55.55 0 0 1 .04-.59.7.7 0 0 1 .3-.22c.13-.06.3-.08.48-.08.26 0 .47.05.63.17ZM30 29h1v5h-1v-5Zm1.6 0v.76H33V34h1v-4.24h1.48V29h-3.89Zm4.4 0h1v5h-1v-5Zm4.24 5c1.4 0 2.26-1.17 2.26-2.5s-.85-2.5-2.26-2.5C38.83 29 38 30.17 38 31.5s.83 2.5 2.24 2.5Zm0-4.2c.94 0 1.26.87 1.26 1.7 0 .84-.32 1.7-1.26 1.7-.95 0-1.24-.86-1.24-1.7 0-.83.3-1.7 1.24-1.7ZM46 29h1v5h-.78L44 30.7V34h-1v-5h.79L46 32.29V29Zm5.02 1.4c-.05-.41-.42-.65-.98-.65-.4 0-1.03.15-1.04.63 0 .49.6.56 1.08.62l.34.05c.73.16 1.58.67 1.58 1.51 0 1.06-1.09 1.44-1.98 1.44-.96 0-1.97-.42-2.02-1.5h.93c.04.55.6.75 1.09.75.42 0 .97-.17.98-.7 0-.45-.53-.59-.88-.67l-.21-.05c-.8-.18-1.91-.44-1.91-1.4 0-1 1.2-1.43 2.05-1.43.85 0 1.86.43 1.88 1.4h-.91Z" /></svg>