<!-- by TradeStack --><svg width="56" height="56" viewBox="0 0 56 56" xmlns="http://www.w3.org/2000/svg"><path fill="#0D1A23" d="M0 0h56v56H0z"/><path d="M26.76 12.05A16.06 16.06 0 0 0 12.7 32.63c3.54 11.53 18.06 15.21 26.58 6.73a16.01 16.01 0 0 0-12.5-27.31Zm.96 1.6c-.22.57-.22.57-.44.44-.5-.3-.84-.47-1.31-.66l-.51-.2.5-.05a6.64 6.64 0 0 1 1.32-.1l.67-.01-.23.58Zm2.39-.47c2.77.41 4.59 1.18 5.18 2.17.88 1.5 1.35 3.07.98 3.3-.54.36-2.39 2.08-3.49 3.26-.5.52-.5.52-.5.17 0-2.04-1.23-4.61-3.13-6.5-.72-.72-.75-.76-.7-1 .12-.58.62-1.51.8-1.51l.86.11Zm-5.9.73c.86.22 2.02.7 2.62 1.09.43.27.43.27.38.69a35.8 35.8 0 0 0-.15 4.21l.05 1.17-.4-.36c-1.52-1.45-3.73-2.23-6.42-2.28-1.5-.02-1.51-.03-1.9-1.27-.16-.47-.16-.47.16-.75a16.6 16.6 0 0 1 4.26-2.46c.71-.26.53-.26 1.4-.04Zm12.89 2.2c.46.35 1.4 1.2 1.4 1.26 0 .05-.96.46-1.07.46-.03 0-.1-.17-.15-.39-.05-.21-.2-.66-.34-.99-.14-.33-.23-.6-.21-.6.01 0 .18.11.37.26Zm-7.5 1.5c2.3 3.23 2.2 6.47-.26 8.11-.54.36-.5.4-.75-.78-.48-2.35-.72-7.3-.42-8.69.05-.25.76.42 1.42 1.35Zm-11.75 1a10.18 10.18 0 0 0-1.4.46c-.3.12-.57.21-.6.21a9.7 9.7 0 0 1 1.1-1.36l.43-.47.25.57c.13.3.23.57.22.59Zm21.92.13c1.41 1.75 2.6 4.26 2.42 5.13a9.84 9.84 0 0 1-.84 2.33c-.56 1.13-.49 1.08-1.31.97-.4-.05-1.6-.09-2.86-.09H35l.38-.44c1.45-1.67 2.2-3.87 2.2-6.5 0-1.21 0-1.21.55-1.47 1.12-.51 1.16-.51 1.63.07Zm-17.98.8c4.02.66 6.17 3.04 5.51 6.13-.07.35-.07.35-.41.15a32.71 32.71 0 0 1-6.96-6.1c-.24-.29-.24-.29.48-.29.4 0 1.02.05 1.38.11Zm-2.7.75a37.7 37.7 0 0 0 1.98 2.12c1.34 1.34 1.34 1.34.87 1.34-2.01 0-4.36 1.15-6.34 3.12-.79.77-.79.77-1.3.61-.82-.26-1.25-.55-1.22-.79l.12-.82c.25-1.94 1.15-4.46 1.75-4.9.67-.48 1.82-1 2.85-1.28l.64-.18.65.78Zm17.49.4c-.16 3.19-1.65 5.78-3.75 6.52-.66.24-2.62.22-2.77-.02-.28-.46 5.8-7.45 6.5-7.47.04 0 .04.4.02.97Zm-13.3 4.19c1.06.28 2.72 1.65 2.72 2.24 0 .48-6.86 1.04-9.4.77l-.57-.06.4-.4c1.9-1.94 4.91-3.07 6.85-2.55Zm19.66 2.14c.02.5.03.9.01.9l-.47-.18c-.23-.1-.49-.19-.56-.21-.12-.05-.11-.08.07-.36.17-.28.48-.9.7-1.44.1-.26.18.1.25 1.29Zm-14.75.3c0 .1 0 .1.33-.03.33-.14.37-.1.22.18-.15.29-.16.27.2.41.31.13.31.13.02.23-.36.13-.35.1-.22.41.15.37.15.37-.18.2-.29-.14-.29-.14-.42.2s-.13.34-.23.03c-.11-.34-.12-.34-.48-.2-.29.13-.31.1-.15-.18.15-.27.13-.33-.18-.43-.33-.11-.33-.19 0-.26.28-.06.3-.12.17-.43-.12-.29-.09-.31.19-.16.26.15.28.15.42-.2.12-.3.3-.18.3.22Zm-14.48 1 .48.2-.43.84a7.1 7.1 0 0 0-.42.94c0 .27-.13.05-.17-.28-.13-1.01-.15-1.98-.04-1.94l.58.24Zm26.19-.14c.06.06-.1.24-.6.68-3.02 2.63-6.3 3.16-8.27 1.34a5.19 5.19 0 0 1-1.01-1.33c0-.13 2.22-.53 3.84-.7 1.27-.12 5.9-.12 6.04.01Zm1.66.3c.84.2 1.41.6 1.36 1-.36 3.1-1.22 5.23-2.37 5.87-1.47.83-2.93 1.26-3.17.94-.44-.61-1.34-1.6-2.46-2.72l-1.24-1.24.77-.09a10.28 10.28 0 0 0 6.19-3.3c.3-.34.57-.57.63-.55l.3.08Zm-16.1.2c.62.13.61.08.11.87-1.3 2.07-3.94 5-6.04 6.7-.33.27 0-2.5.45-3.76 1.03-2.89 3.1-4.32 5.49-3.81Zm-9.13.19c.42.04 1.65.07 2.74.07h1.97l-.37.4c-1.46 1.54-2.42 4.53-2.26 7.04.05.68.05.68-.44.93-.38.19-1.17.48-1.3.48-.07 0-1.16-1.53-1.48-2.05-.66-1.1-1.4-2.8-1.4-3.19 0-.97 1.25-3.88 1.63-3.8.08.03.5.08.91.12Zm10.96 1.58c.52 2 .83 6.3.63 8.6-.09.94-.1.95-.4.63-3.28-3.28-3.67-7.49-.87-9.37.49-.33.53-.32.64.14Zm2.39.07a33.02 33.02 0 0 1 6.02 5.3c.73.85.72.8.15.8-4.18 0-7.57-2.53-7.26-5.41.15-1.33.12-1.32 1.09-.69Zm-5.84 4.34c.28 1.9 1.35 3.86 2.98 5.52.93.93.92.88.41 1.93-.33.7-.29.68-1.49.5-2.5-.38-4.4-1.17-4.93-2.04-.99-1.6-1.43-3.1-1-3.45.79-.62 2.08-1.81 2.93-2.7.95-.97.95-.97.97-.71l.13.95Zm6.69 1.37a10.5 10.5 0 0 0 5.43 1.36c1.14 0 1.14 0 1.4.56.22.48.41 1.03.41 1.19 0 .37-3.44 2.37-4.84 2.8-.62.2-2.12-.22-3.43-.95-.8-.45-.75-.34-.64-1.3.05-.45.1-1.71.1-2.84v-2.02l.51.44c.28.24.76.58 1.06.76Zm9.61.55c-.18.3-1.47 1.8-1.5 1.74a216.8 216.8 0 0 0-.48-1.1c-.02-.02.15-.08.36-.13s.67-.2 1-.34l.65-.25c.01 0 0 .03-.03.08ZM18.8 38.75c.09.3.24.75.35 1 .1.26.14.44.1.4-.72-.55-.96-.76-1.34-1.1l-.44-.42.52-.23c.64-.29.62-.3.8.35Zm10.62 3.52c.46.23.88.42.95.42.4.01-.2.15-.94.22-1.48.13-1.4.17-1.14-.5.13-.33.25-.58.27-.58l.86.44Z" fill="#fff"/></svg>