<?xml version='1.0' encoding='utf-8'?>
<!-- by TradeStack -->
<svg width="56" height="56" viewBox="0 0 56 56" xmlns="http://www.w3.org/2000/svg"><path fill="#F0F3FA" d="M0 0h56v56H0z" /><path d="M27.95 37.04c.36.04.44-.2.57-.32.29-.26 1.51-1.72 1.51-1.72h7.64l-9.63 10L11 27.96c.43-.5.93-.99 1.43-1.46.56-.53 1.08-1.1 1.64-1.64.74-.7 1.44-1.46 2.19-2.16.52-.5 1-1.04 1.53-1.54.59-.55 1.13-1.15 1.73-1.7.53-.48 1-1.04 1.52-1.54.77-.72 1.48-1.5 2.25-2.22.54-.5 1.02-1.06 1.56-1.57.57-.54 1.08-1.14 1.68-1.65.45-.41.88-.85 1.28-1.32.18-.18.3-.24.53 0 1.1 1.12 2.24 2.2 3.35 3.31l3.05 3.09C35.78 18.6 37 19.93 38 21h-8.1c-.6-.51-1.16-1.52-1.77-2.1l-9.17 9.17 8.99 8.97Z" fill="#6C8FB9" /><path d="M33.97 33h1.86s-1.74-6.8-2.62-10h-2.23a388.5 388.5 0 0 0-2.75 10h1.85l.55-2h2.86l.48 2Zm-1.96-7.53.13-.02.94 3.55h-2.19l1.12-3.53ZM37 25h2v8h2v-8h2v-2h-6v2Z" fill="#848688" /></svg>