<?xml version='1.0' encoding='utf-8'?>
<!-- by TradeStack -->
<svg width="56" height="56" viewBox="0 0 56 56" xmlns="http://www.w3.org/2000/svg"><path fill="#F0F3FA" d="M0 0h56v56H0z" /><path d="m46.36 28.45-.66-.01H44l-.22-.01-.08-.28c-.2-.52-.97-.54-1.37-.3-.24.15-.23.47 0 .65.26.2.59.24.9.32.65.17 1.33.27 1.96.53.47.2.9.43 1.2.86.62.89.4 2.25-.48 2.96-.46.38-1 .6-1.56.7-.88.16-2 .16-2.66.05-.8-.16-1.54-.4-2.08-1.09-.23-.3-.42-.8-.46-1-.04-.21 0-.35 0-.35h2.74l.11.3c.21.56 1.11.72 1.6.36.3-.23.28-.66-.06-.86-.34-.19-.72-.26-1.09-.33-.61-.13-1.23-.25-1.8-.5-1.34-.6-1.62-1.92-.99-3.11.25-.46.67-.75 1.14-.94 1.26-.5 2.55-.5 3.83-.15.67.18 1.36.68 1.57 1.24 0 0 .16.42.18.96Z" fill="#2A4167" /><path d="M46.36 28.63V26h1.25v-2h2.88v2H52v2.62h-1.51v2.3c0 .58.26.85.8.84H52v2.2s-2.27.13-3.25-.1a1.64 1.64 0 0 1-1.19-1.43v-3.8h-1.2Z" fill="#2A4167" /><path d="M4 33.7V21h9.33L4 33.7Z" fill="#3B6BB3" /><path d="M39 30.68c-1.7.04-3.41.02-5.13.03 0 .29.06.62.22.85.45.69 1.49.78 1.97.1l.14-.2H38.88l-.09.24a3.1 3.1 0 0 1-1.3 1.65 4.9 4.9 0 0 1-3.63.51c-1.1-.24-2-.85-2.48-2a4.45 4.45 0 0 1-.16-3.16 3.75 3.75 0 0 1 3.21-2.67c.65-.07 1.3-.04 1.92.18a3.78 3.78 0 0 1 2.57 3.36c.09.6.08 1.11.08 1.11Zm-2.75-1.88c-.06-.2-.13-.96-1.18-.96-1.06 0-1.18.83-1.18.98l2.36-.02Z" fill="#2A4167" /><path d="M25 23v2h2v9h3.43v-9h2.18v-2H25Z" fill="#2A4167" /><path d="m26 26.04-.03 2.98h-.38s-.85 0-1.22.33c-.39.35-.34.83-.37 1.34V34h-3v-8h2.56v1.44c.53-1.1 1.36-1.6 2.44-1.4ZM20 34v-8h-3v8h3ZM8.38 34l1.28-2H14v2H8.38ZM20 25h-3v-2h3v2ZM14 25v4h-3.02L14 25Z" fill="#2A4167" /></svg>