<!-- by TradeStack --><svg width="56" height="56" viewBox="0 0 56 56" xmlns="http://www.w3.org/2000/svg"><path fill="#F0F3FA" d="M0 0h56v56H0z"/><path fill-rule="evenodd" d="M48 19H8v18h40V19Zm-1 1H9v16h38V20Z" fill="url(#a24y0pz25)"/><path d="m18 30-2.5-5-2.5 5h1.13l.34-.71h2.06l.34.71H18Zm-3.13-1.54.63-1.3.63 1.3h-1.26Z" fill="url(#b24y0pz25)"/><path d="M22 27.73 19 25v5h1v-2.73L23 30v-5h-1v2.73Z" fill="url(#c24y0pz25)"/><path d="M31.5 25c1.44 0 2.5 1.06 2.5 2.5S32.95 30 31.5 30a2.43 2.43 0 0 1-2.5-2.5c0-1.44 1.06-2.5 2.5-2.5Zm0 .89c-.92 0-1.5.72-1.5 1.61 0 .89.58 1.61 1.5 1.61s1.5-.73 1.5-1.61c0-.88-.58-1.61-1.5-1.61Z" fill="url(#d24y0pz25)"/><path d="M36 29v-4h-1v5h3v-1h-2Z" fill="url(#e24y0pz25)"/><path d="M39 30v-5h1.81c1.4 0 2.19 1.2 2.19 2.5 0 1.31-.78 2.5-2.2 2.5H39Zm1.82-4H40v3h.82c.8 0 1.18-.47 1.18-1.5 0-1.04-.38-1.5-1.18-1.5Z" fill="url(#f24y0pz25)"/><path d="M26.37 25c.55 0 1.04.1 1.48.33v.96a2.8 2.8 0 0 0-1.49-.29c-.88 0-1.36.64-1.36 1.55 0 .9.48 1.45 1.36 1.45.27 0 .48-.04.64-.1v-1.35c.2 0 .4-.03.57-.05.16-.02.3-.04.43-.04v2.06c-.37.29-.92.48-1.62.48-1.35 0-2.38-1-2.38-2.45 0-1.46 1.02-2.55 2.37-2.55Z" fill="url(#g24y0pz25)"/><path d="m48 25.8-1 .1V36H9v-6.76l-1 .08V37h40V25.8Z" fill="url(#h24y0pz25)"/><path d="M17.26 28.51 18 30h-1.13l-.34-.71h-2.06l-.34.71H13l.58-1.17 3.68-.32Zm1.74-.15V30h1v-1.73l-1 .09Zm2-.18L23 30v-2l-2 .18Zm3.02-.26A2.3 2.3 0 0 0 26.38 30c.7 0 1.25-.2 1.62-.48v-1.95l-1 .08v1.25c-.16.06-.37.1-.64.1-.79 0-1.25-.43-1.34-1.17l-1 .09Zm4.98-.44v.02c0 1.44 1.06 2.5 2.5 2.5 1.45 0 2.5-1.06 2.5-2.5 0-.16-.01-.31-.04-.46l-1 .09c.03.12.04.24.04.37 0 .88-.58 1.61-1.5 1.61S30 28.39 30 27.5a2 2 0 0 1 0-.11l-1 .09Zm6-.53V30h3v-1h-2v-2.14l-1 .1Zm4-.35V30h1.8c1.42 0 2.2-1.19 2.2-2.5 0-.44-.09-.86-.26-1.23l-1.03.1c.2.24.29.61.29 1.13 0 1.03-.39 1.5-1.18 1.5H40v-2.49l-1 .09Z" fill="url(#i24y0pz25)"/><defs><linearGradient id="a24y0pz25" x1="8" y1="22.5" x2="49" y2="22.5" gradientUnits="userSpaceOnUse"><stop stop-color="#FFE3A4"/><stop offset="1" stop-color="#FBBC10"/></linearGradient><linearGradient id="b24y0pz25" x1="13" y1="25.97" x2="43.75" y2="25.97" gradientUnits="userSpaceOnUse"><stop stop-color="#FFE3A4"/><stop offset="1" stop-color="#FBBC10"/></linearGradient><linearGradient id="c24y0pz25" x1="13" y1="25.97" x2="43.75" y2="25.97" gradientUnits="userSpaceOnUse"><stop stop-color="#FFE3A4"/><stop offset="1" stop-color="#FBBC10"/></linearGradient><linearGradient id="d24y0pz25" x1="13" y1="25.97" x2="43.75" y2="25.97" gradientUnits="userSpaceOnUse"><stop stop-color="#FFE3A4"/><stop offset="1" stop-color="#FBBC10"/></linearGradient><linearGradient id="e24y0pz25" x1="13" y1="25.97" x2="43.75" y2="25.97" gradientUnits="userSpaceOnUse"><stop stop-color="#FFE3A4"/><stop offset="1" stop-color="#FBBC10"/></linearGradient><linearGradient id="f24y0pz25" x1="13" y1="25.97" x2="43.75" y2="25.97" gradientUnits="userSpaceOnUse"><stop stop-color="#FFE3A4"/><stop offset="1" stop-color="#FBBC10"/></linearGradient><linearGradient id="g24y0pz25" x1="13" y1="25.97" x2="43.75" y2="25.97" gradientUnits="userSpaceOnUse"><stop stop-color="#FFE3A4"/><stop offset="1" stop-color="#FBBC10"/></linearGradient><linearGradient id="h24y0pz25" x1="36" y1="27.81" x2="47.67" y2="36.26" gradientUnits="userSpaceOnUse"><stop stop-color="#D99324"/><stop offset="1" stop-color="#4B2603"/></linearGradient><linearGradient id="i24y0pz25" x1="34" y1="26.94" x2="37.65" y2="32.88" gradientUnits="userSpaceOnUse"><stop stop-color="#D99324"/><stop offset="1" stop-color="#4B2603"/></linearGradient></defs></svg>