<!-- by TradeStack --><svg viewBox="0 0 56 56" xmlns="http://www.w3.org/2000/svg"><path fill="#F0F3FA" d="M0 0h56v56H0z"/><path d="M23.12 26H21l4.78-9h2.55L30 26h-2.12l-1.14-6.94h-.07L23.12 26Zm.48-3.49h5L28.35 24h-5l.26-1.49ZM31 26l1.54-9h3.73c.68 0 1.24.1 1.66.3.43.2.73.46.9.81.17.35.21.75.13 1.2-.06.35-.19.66-.38.92-.2.26-.43.48-.71.65-.28.17-.59.29-.92.36l-.02.09c.35.01.67.11.95.29.28.17.5.42.63.75a2 2 0 0 1 .1 1.14c-.08.48-.28.9-.59 1.28-.3.37-.72.67-1.23.88-.51.22-1.12.33-1.82.33H31Zm2.24-1.56h1.6c.55 0 .96-.1 1.25-.3a1.22 1.22 0 0 0 .44-1.48c-.17-.37-.6-.66-1.24-.66h-1.65l-.4 2.44Zm.63-3.67h1.46c.27 0 .51-.05.74-.14.23-.1.42-.23.57-.4.15-.17.24-.37.28-.6.06-.33-.02-.6-.22-.8-.2-.2-.52-.3-.96-.3h-1.49l-.38 2.24Z" fill="#F78825"/><path d="M9.23 37 8 28h2.36l.51 6.25h.09L13.99 28h2.02l.69 6.27h.09L19.64 28H22l-4.61 9h-2.1l-.83-5.88h-.08L11.33 37h-2.1Z" fill="#646567"/><path d="M47.91 21.62a5.92 5.92 0 0 1-.89 2.38 4.47 4.47 0 0 1-1.6 1.5c-.63.33-1.3.5-2.03.5a3.5 3.5 0 0 1-1.97-.54 3.05 3.05 0 0 1-1.2-1.57 5.04 5.04 0 0 1-.13-2.49c.15-.94.44-1.73.88-2.39.44-.65.98-1.15 1.6-1.5a4.2 4.2 0 0 1 2.05-.51c.76 0 1.41.18 1.96.55.55.36.95.89 1.2 1.58.24.69.28 1.52.13 2.49Zm-1.76-.22c.1-.6.09-1.1-.02-1.51-.1-.41-.28-.72-.55-.94a1.61 1.61 0 0 0-1.03-.31c-.44 0-.86.12-1.23.35-.37.23-.69.57-.94 1.02-.26.44-.43.98-.53 1.61-.1.6-.1 1.1 0 1.51.11.4.3.72.58.92.27.2.62.31 1.03.31.44 0 .85-.11 1.22-.34.37-.23.68-.57.93-1 .26-.45.44-.99.54-1.62Z" fill="#F78825"/><path d="m25 28-1.32 9H22l1.32-9H25ZM36 28l-1.66 9h-1.82l-3.29-5.66h-.07L28.1 37H26l1.66-9h1.85l3.27 5.66h.08L33.9 28H36ZM39.46 37H36l1.6-9H41c.96 0 1.76.18 2.4.55.64.37 1.1.9 1.36 1.59.26.69.31 1.5.14 2.46-.16.92-.49 1.7-.97 2.37a4.78 4.78 0 0 1-1.87 1.5c-.76.36-1.62.53-2.6.53Zm-1.13-1.63h1.25c.6 0 1.13-.1 1.58-.32.46-.2.84-.53 1.13-.97.3-.44.5-1 .62-1.69.12-.65.11-1.18-.02-1.58-.13-.4-.38-.7-.75-.9a3.19 3.19 0 0 0-1.45-.28h-1.34l-1.02 5.74Z" fill="#646567"/></svg>