<!-- by TradeStack --><svg width="56" height="56" viewBox="0 0 56 56" xmlns="http://www.w3.org/2000/svg"><path fill="#F0F3FA" d="M0 0h56v56H0z"/><path d="M35 18H18c2.1-2 7.25-6 11-6s5.56 4 6 6ZM16.76 33 30 42.54c-2.77.52-9.05 1.04-11.97-1.07-2.92-2.1-2.06-6.52-1.27-8.47ZM29 40.72 42 31c-.4 2.8-1.92 8.95-4.79 11.1-2.87 2.14-6.67-.03-8.21-1.38ZM39.63 31 35 15c2.51 1.4 7.79 5.06 8.81 8.6 1.02 3.53-2.36 6.4-4.18 7.4ZM20 19.08 14.53 35c-1.23-2.67-3.38-8.88-2.17-12.4 1.2-3.51 5.6-3.8 7.64-3.52Z" fill="#1F1E1C"/><circle cx="28" cy="28" r="8" fill="#1F4DA2"/></svg>