<!-- by TradeStack --><svg width="56" height="56" viewBox="0 0 56 56" xmlns="http://www.w3.org/2000/svg"><path fill="url(#a1unrxcm4)" d="M0 0h56v56H0z"/><path fill-rule="evenodd" d="M22.75 13H13v9.75h9.75V13Zm0 20.25H13V43h9.75v-9.75Zm.5-20.25h9.5v9.75h-9.5V13Zm9.5 20.25h-9.5V43h9.5v-9.75Zm.5-20.25H43v9.75h-9.75V13ZM43 33.25h-9.75V43H43v-9.75Zm-27.03-.5v-3.04H13v3.04h2.97Zm.32 0h3.12v-3.04h-3.12v3.04Zm3.43 0h3.03v-3.04h-3.03v3.04Zm3.03-3.35v-2.76h-3.03v2.76h3.03Zm0-3.06v-3.09h-3.03v3.09h3.03Zm-3.34-3.09h-3.12v3.09h3.12v-3.09Zm-3.44 0H13v3.09h2.97v-3.09ZM13 26.65v2.75h2.97v-2.76H13Zm3.29 2.75v-2.76h3.12v2.76h-3.12Zm9.71.3v3.05h-2.75v-3.04H26Zm3.7 3.05h-3.4v-3.04h3.4v3.04Zm3.05 0H30v-3.04h2.75v3.04Zm0-6.1v2.75H30v-2.76h2.75Zm0-3.4v3.09H30v-3.09h2.75Zm-6.45 0h3.4v3.09h-3.4v-3.09Zm-3.05 0H26v3.09h-2.75v-3.09Zm0 6.15v-2.76H26v2.76h-2.75Zm3.05-2.76v2.76h3.4v-2.76h-3.4Zm9.7 6.11v-3.04h-2.75v3.04H36Zm.31 0h3.35v-3.04h-3.35v3.04Zm3.66 0H43v-3.04h-3.03v3.04ZM43 29.4v-2.76h-3.03v2.76H43Zm0-3.06v-3.09h-3.03v3.09H43Zm-3.34-3.09h-3.35v3.09h3.35v-3.09Zm-3.66 0h-2.75v3.09H36v-3.09Zm-2.75 3.4v2.75H36v-2.76h-2.75Zm3.06 2.75v-2.76h3.35v2.76h-3.35ZM25 14v7h4c1.45 0 2.5-.8 2.5-2.1 0-1.04-.94-1.52-1.33-1.63.59-.45.82-.97.83-1.27a2 2 0 0 0-1.77-2H25Zm3.31 1.5H27V17h1.31c.38 0 .69-.34.69-.75s-.3-.75-.69-.75Zm.6 2.5H27v1.5h1.92c.34 0 .58-.34.58-.75s-.24-.75-.58-.75Zm-11.96-4-2.7 7h2.3l.3-1h2.3l.3 1h2.3l-2.61-7h-2.19Zm1.73 4.5H17.3l.69-2.25.69 2.25Zm22.75-2h-2.11c-.24-.6-.71-1-1.32-1-.96 0-1.5.9-1.5 2s.51 2 1.5 2c.66 0 1.11-.4 1.33-1h2.11c-.35 1.45-1.5 2.5-3.41 2.5-2.32 0-3.53-1.57-3.53-3.5s1.28-3.5 3.53-3.5c1.75 0 3 1.05 3.4 2.5Z" fill="#FFB301"/><path opacity=".7" d="M13.78 24h1.61v1.71h-1.61zM17 24h1.61v1.71H17zM20.55 24h1.61v1.71h-1.61zM24.31 24h.76v1.71h-.76zM27.23 23.93h1.19v1.71h-1.19zM30.71 23.93h1.19v1.71h-1.19zM34.07 23.93h1.19v1.71h-1.19zM37.44 23.93h1.19v1.71h-1.19zM40.83 23.93h1.19v1.71h-1.19z"/><defs><linearGradient id="a1unrxcm4" x1="10.42" y1="9.71" x2="68.15" y2="76.02" gradientUnits="userSpaceOnUse"><stop stop-color="#1A1E21"/><stop offset="1" stop-color="#06060A"/></linearGradient></defs></svg>