<!-- by TradeStack --><svg width="56" height="56" viewBox="0 0 56 56" xmlns="http://www.w3.org/2000/svg"><path fill="#F0F3FA" d="M0 0h56v56H0z"/><path fill-rule="evenodd" d="M7.32 36.99h4.21l3.87-5.48h5.53l.34 5.49H47.6v-2.66h-20c-.58 0-1.08-.4-1.2-.98l-2.98-14.23h-2.66L7.32 37Zm13.45-8-.3-4.67-3.3 4.67h3.6Z" fill="#0F5640"/><path fill-rule="evenodd" d="M7.71 36.49h4.21L15.77 31h5.55l.34 5.5H48V34H28c-.58 0-1.07-.59-1.2-1.16L23.82 18.5h-2.66L7.71 36.49Zm13.46-7.99-.3-4.77-3.35 4.77h3.65Z" fill="url(#a2hb5ywbq)"/><path fill-rule="evenodd" d="M33 20.86c0-1.3 1.06-2.36 2.36-2.36h1.62c1.3 0 2.37 1.06 2.37 2.36v3.48H37v-3.78c0-.3-.22-.56-.5-.56s-.5.25-.5.56v9.88c0 .3.22.56.5.56s.5-.25.5-.56V26h2.35v4.13c0 1.3-1.06 2.36-2.37 2.36h-1.62A2.36 2.36 0 0 1 33 30.14v-9.28Zm9.92-2.36a2.4 2.4 0 0 0-2.42 2.36v9.28a2.4 2.4 0 0 0 2.42 2.36h1.66A2.4 2.4 0 0 0 47 30.14v-9.28a2.4 2.4 0 0 0-2.42-2.36h-1.66ZM44 20c-.28 0-.5.25-.5.56v9.88c0 .3.22.56.5.56s.5-.25.5-.56v-9.88c0-.3-.22-.56-.5-.56Zm-18.5-1.29v13.66h3.68c2.1 0 2.6-1.49 2.58-2.24v-3.51c0-.87-.76-1.34-1.15-1.47.9-.3 1.15-1.12 1.15-1.5v-2.6c0-2-1.72-2.4-2.58-2.34H25.5Zm3.51 1.57h-.51v4.08h.51c.27 0 .49-.24.49-.53V20.8c0-.3-.22-.53-.49-.53Zm0 5.68h-.51v4.76h.51c.27 0 .49-.24.49-.53v-3.7c0-.29-.22-.53-.49-.53Z" fill="#0F6953"/><path d="M33.5 20.36A2.4 2.4 0 0 1 35.92 18h1.66A2.4 2.4 0 0 1 40 20.36V24h-2.68v-3.87c0-.3-.26-.56-.57-.56a.56.56 0 0 0-.57.56v9.74c0 .3.26.56.57.56.31 0 .57-.25.57-.56V25.5H40v4.14A2.4 2.4 0 0 1 37.58 32h-1.66a2.4 2.4 0 0 1-2.42-2.36v-9.28Z" fill="url(#b2hb5ywbq)"/><path fill-rule="evenodd" d="M26 32V18h3.72c.87-.05 2.61.34 2.61 2.4v2.67a1.7 1.7 0 0 1-1.16 1.53c.39.13 1.16.62 1.16 1.5v3.6c.02.77-.48 2.3-2.6 2.3H26Zm2.6-12.39h.56c.3 0 .53.24.53.54v3.1c0 .3-.24.54-.53.54h-.56V19.6Zm0 5.82h.56c.3 0 .53.25.53.54v3.8c0 .3-.24.54-.53.54h-.56v-4.88Z" fill="url(#c2hb5ywbq)"/><path fill-rule="evenodd" d="M43.42 18A2.4 2.4 0 0 0 41 20.36v9.28A2.4 2.4 0 0 0 43.42 32h1.66a2.4 2.4 0 0 0 2.42-2.36v-9.28A2.4 2.4 0 0 0 45.08 18h-1.66Zm.83 1.57a.56.56 0 0 0-.57.56v9.74c0 .3.26.56.57.56.31 0 .57-.25.57-.56v-9.74c0-.3-.26-.56-.57-.56Z" fill="url(#d2hb5ywbq)"/><path opacity=".5" fill="#fff" d="M29.38 34.3h12.56v1.9H29.38z"/><path d="m7.78 18-.78.43L22.59 28 7.78 18Z" fill="url(#e2hb5ywbq)"/><path d="m11.05 18.6-.8.37 13.31 8.27-12.51-8.65Z" fill="url(#f2hb5ywbq)"/><path d="m14.29 19.17-.79.36L25 26.57l-10.71-7.4Z" fill="url(#g2hb5ywbq)"/><defs><linearGradient id="a2hb5ywbq" x1="7.71" y1="36.1" x2="43.7" y2="36.1" gradientUnits="userSpaceOnUse"><stop stop-color="#1B6E57"/><stop offset=".14" stop-color="#83A166"/><stop offset=".29" stop-color="#C2D530"/><stop offset=".42" stop-color="#C49A58"/><stop offset=".59" stop-color="#C25228"/><stop offset=".72" stop-color="#DB7054"/><stop offset="1" stop-color="#EF483D"/></linearGradient><linearGradient id="b2hb5ywbq" x1="33.5" y1="25.44" x2="39.5" y2="25.44" gradientUnits="userSpaceOnUse"><stop stop-color="#C48F55"/><stop offset=".86" stop-color="#C35127"/><stop offset="1" stop-color="#C65B31"/></linearGradient><linearGradient id="c2hb5ywbq" x1="26" y1="24.83" x2="32.15" y2="24.83" gradientUnits="userSpaceOnUse"><stop stop-color="#B2C847"/><stop offset=".24" stop-color="#C2D62F"/><stop offset="1" stop-color="#C49E59"/></linearGradient><linearGradient id="d2hb5ywbq" x1="40.55" y1="25.69" x2="47.32" y2="25.69" gradientUnits="userSpaceOnUse"><stop offset=".22" stop-color="#D56F4E"/><stop offset="1" stop-color="#EE4C40"/></linearGradient><linearGradient id="e2hb5ywbq" x1="7.37" y1="18" x2="22.94" y2="27.29" gradientUnits="userSpaceOnUse"><stop stop-color="#EF4B40"/><stop offset=".61" stop-color="#E7A65D"/><stop offset="1" stop-color="#E3CA46"/></linearGradient><linearGradient id="f2hb5ywbq" x1="10.62" y1="18.89" x2="24" y2="26.47" gradientUnits="userSpaceOnUse"><stop stop-color="#EF4B40"/><stop offset=".44" stop-color="#E89C5A"/><stop offset="1" stop-color="#E3D03D"/></linearGradient><linearGradient id="g2hb5ywbq" x1="13.73" y1="19.37" x2="24.81" y2="25.56" gradientUnits="userSpaceOnUse"><stop stop-color="#EF4C40"/><stop offset=".43" stop-color="#E98F5D"/><stop offset="1" stop-color="#E2CF3E"/></linearGradient></defs></svg>