<?xml version='1.0' encoding='utf-8'?>
<!-- by TradeStack -->
<svg width="56" height="56" viewBox="0 0 56 56" xmlns="http://www.w3.org/2000/svg"><path fill="#F0F3FA" d="M0 0h56v56H0z" /><path d="M26 16c-4.13 0-7 2.04-8.24 3.1l-1.19-1.4c1.33-1.13 4.59-3.7 9.4-3.7 5.83 0 9.56 2.44 11.03 4.3 3.5 4.4 7.05 8.91 10 13.7h-5.05l2.98 11-13.18-17h4.12l-3.66-4.19-.01-.01c-.47-.63-2.54-1.8-6.26-1.8-2.3 0-3.81.3-5.59 1.74l-.39.31-1.13-1.44.32-.26A9.97 9.97 0 0 1 25.94 18c4.15 0 6.82 1.5 7.72 2.68L39.7 28h-4.17l5.38 6.95L39.56 30h3.8l-3.44-4.69c-1.97-2.68-3.8-5.18-4.36-5.87C34.47 18.06 31.33 16 26 16Zm-6.23 11.77L13.74 20l1.45-1.12 6.04 7.79.01.01a5.3 5.3 0 0 0 8.12 0l1.49 1.07a7.11 7.11 0 0 1-11.08.02Zm-7.4-6.85-1.44 1.13 7.36 9.32.02.02a9.7 9.7 0 0 0 6.84 2.82c3.4 0 6.4-2.03 7.78-3.24l-1.2-1.38c-1.27 1.1-3.84 2.78-6.58 2.78a7.9 7.9 0 0 1-5.46-2.19l-7.32-9.26ZM8 24.59l1.41-1.17 8.3 10.03a12.53 12.53 0 0 0 7.92 2.7c1.71 0 3.48-.5 5.01-1.22a11.54 11.54 0 0 0 3.41-2.33l1.35 1.24a13.3 13.3 0 0 1-3.98 2.74c-1.7.8-3.74 1.41-5.8 1.41-4 0-7.17-1.55-9.14-3.19l-.07-.05L8 24.59Zm14.42.63c.25-.28.77-.75 1.42-1.14.66-.39 1.37-.65 2.06-.65 1.79 0 3.17 1.22 3.81 1.8l.08.07 1.22-1.38-.1-.09c-.63-.56-2.49-2.24-5.01-2.24-1.14 0-2.19.44-3 .92A8.33 8.33 0 0 0 21.05 24l1.37 1.22Z" fill="#74BC1F" /></svg>