<?xml version='1.0' encoding='utf-8'?>
<!-- by TradeStack -->
<svg fill="none" viewBox="0 0 56 56" xmlns="http://www.w3.org/2000/svg"><path fill="#F0F3FA" d="M0 0h56v56H0z" /><path d="M6.75 25H8.2l2.8 6H9.72l-.658-1.42h-3.13L5.235 31H4l2.75-6Zm.75 1-1.026 2.504H8.52L7.5 26ZM47.75 25h1.45l2.8 6h-1.28l-.658-1.42h-3.13L46.235 31H45l2.75-6Zm.75 1-1.026 2.504h2.047L48.5 26ZM15.059 31H12v-6h2.5c1.052 0 1.983.385 2 1.6.008.6-.005 1.08-.5 1.4.776.169 1.01.75 1 1.363-.02 1.163-.862 1.637-1.941 1.637Zm.176-1c.459 0 .765-.257.765-.74 0-.468-.306-.71-.765-.71H13V30h2.235ZM13 26v1.473h1.735c.462 0 .765-.204.765-.687 0-.461-.314-.786-.765-.786H13ZM20.5 26c-.5 0-1.455.658-1.5 1.5h4v1h-4c0 .93 1 1.5 1.5 1.5H23v1h-2.176C18.996 31 18 29.738 18 28c0-1.815 1.037-3 2.87-3H23v1h-2.5ZM25 25h1.5l3.5 5v-5h1v6h-1.5L26 26v5h-1v-6ZM35 28.5v-1h3V31h-3c-2 0-3-1.151-3-3 0-1.95 1-3 3-3h3v1h-3c-1.5 0-2 .957-2 2 0 .92.5 2 2 2h2v-1.477l-2-.023ZM40 28.011c0 1.046.787 1.989 1.955 1.989C43.129 30 44 29.058 44 28.011 44 26.963 43.172 26 42 26c-1.146 0-2 .976-2 2.011ZM42 25c1.829 0 3 1.147 3 2.989 0 1.9-1.163 3.011-3.045 3.011C40.125 31 39 29.837 39 28.011 39 26.198 40.202 25 42 25Z" fill="#FF3906" /></svg>