<?xml version='1.0' encoding='utf-8'?>
<!-- by TradeStack -->
<svg width="56" height="56" viewBox="0 0 56 56" xmlns="http://www.w3.org/2000/svg"><path fill="#F0F3FA" d="M0 0h56v56H0z" /><path d="M31.71 31.46c4.53.76 7.8 2.62 7.8 2.62l-.18.3C34.93 41.86 28.07 45.96 28 46c-.07-.04-7.1-4.25-11.5-11.92 0 0 3.26-1.86 7.79-2.62A36.98 36.98 0 0 1 28 45.98v-.02c.01-.58.22-7.35 3.56-14.2l.15-.3zM44 18.08v.03c-.01.56-.24 8.53-4.5 15.97 0 0-3.22-1.92-6.14-5.5C37.78 21.78 44 18.08 44 18.08zm-31.98 0c.33.21 6.33 3.89 10.62 10.5-2.92 3.58-6.15 5.5-6.15 5.5l-.15-.28A36.67 36.67 0 0 1 12 18.1v-.02l.59-.31.19-.1A36.06 36.06 0 0 1 28 14v.02c0 .27-.1 3.92-1.65 8.09C18.29 21.66 12 18.08 12 18.08h.02zM28 14c7.12 0 13.15 2.64 15.22 3.67l.2.1.58.3s-6.29 3.59-14.35 4.04A26.72 26.72 0 0 1 28 14V14z" fill="#04B3F0" /></svg>