<?xml version='1.0' encoding='utf-8'?>
<!-- by TradeStack -->
<svg width="56" height="56" viewBox="0 0 56 56" xmlns="http://www.w3.org/2000/svg"><path fill="#F0F3FA" d="M0 0h56v56H0z" /><path fill-rule="evenodd" d="M6 36h2.16l1.5-4h5.28l1.42 4h2.25l-6.23-16L6 36Zm8.23-6-1.85-5.23L10.42 30h3.81Z" fill="#0082C2" /><path d="M26.98 36h-2.02l3.18-16 4.48 11.36L37.12 20l3.13 16h-1.99l-1.61-9.74L32.62 36l-4.05-9.74L26.98 36Z" fill="#0082C2" /><path fill-rule="evenodd" d="M18 36V20h4.3c1.06 0 3.16.84 3.16 4.1 0 2.21-1.21 3.14-1.82 3.32.79.15 2.36 1.17 2.36 4.03C26 35 24.07 36 21.78 36H18Zm2-14h1.44c1.2 0 2.19.98 2.19 2.2v.1a2.2 2.2 0 0 1-2.2 2.2H20V22Zm0 6.5h1.59c1.33 0 2.41 1.2 2.41 2.69v.12C24 32.8 22.92 34 21.59 34H20v-5.5Z" fill="#8CADD6" /><path d="M49 34.71A6.54 6.54 0 0 1 45.12 36C41.2 36 38 32.42 38 28s3.19-8 7.12-8c1.43 0 2.76.47 3.88 1.29v2.61a4.98 4.98 0 0 0-3.8-1.81c-2.87 0-5.2 2.56-5.2 5.72 0 3.16 2.33 5.73 5.2 5.73 1.5 0 2.85-.7 3.8-1.81v2.98Z" fill="#8CADD6" /></svg>