<?xml version='1.0' encoding='utf-8'?>
<!-- by TradeStack -->
<svg width="56" height="56" viewBox="0 0 56 56" xmlns="http://www.w3.org/2000/svg"><path fill="#F0F3FA" d="M0 0h56v56H0z" /><path d="M25.41 18.75c.25.29.37.24.37-.14 0-.28 0-.7-.02-1.25-.06-2.27.1-3.93.47-5 .15-.43.41-.71.8-.85.37-.13.74-.09 1.12.15.51.31.76.84.74 1.58-.07 2.13-.12 4.6-.17 7.39 0 .05-.02.1-.07.11-.26.1-.56.15-.9.12-1.5-.11-2.85-.23-4.07-.34-.39-.03-1.02-.68-1.9-1.95-1.09-1.57-1.88-3-2.37-4.28-.48-1.26-.27-2.28.63-3.06.37-.32.73-.3 1.09.05.27.28.5.57.65.86l2.86 5.47c.22.42.48.8.77 1.14ZM33.7 23.52a5.55 5.55 0 0 1-2 2.62c-.2.13-.33.08-.38-.16a9.34 9.34 0 0 1-.12-3.36c.02-.14.08-.34.17-.6l.09-.27c.14-.48.48-.75 1.01-.8.52-.05.93.1 1.26.45.39.43.38 1.14-.02 2.12Z" fill="#FF790B" /><path fill-rule="evenodd" d="M22.95 31.73c-.29 0-.51.07-.67.21.24.63.58 1.19 1 1.68.02.04.06.06.1.08 1.14.4 2.06.61 2.78.66 1 .07 2.12-.13 3.34-.59.83-.3 1.46-.84 1.9-1.6.48-.82.54-1.63.19-2.42a4.45 4.45 0 0 0-1.15-1.56 3.26 3.26 0 0 0-1.72-.83c-.36-.05-.4-.18-.1-.4l1.06-.78c1.12-.86 1.39-1.98.8-3.38-.24-.53-.56-.86-.98-.98a8.56 8.56 0 0 0-2.47-.32 31.7 31.7 0 0 0-5.63.5c-.93.18-1.39.57-1.36 1.16.03.4.07.82.14 1.27a20 20 0 0 1 2.4 4.74c.04 0 .07.03.1.1.09-.25.21-.4.36-.46 1.05-.44 2.36-.7 3.91-.8 1.11-.08 2.1.09 2.98.48 1.14.52 1.67 1.32 1.57 2.42-.1 1.08-.7 1.87-1.83 2.37-.87.39-1.9.56-3.1.53a3.97 3.97 0 0 1-2.4-.69 5.9 5.9 0 0 1-1.22-1.39Zm4.37-9.33c-1.35.17-2.6.46-3.76.84-1.04.35-1.52.85-1.45 1.5.09.76.2 1.54.33 2.34.03.23.17.34.4.36 2.97.18 5.29-.55 6.94-2.18.42-.4.53-1.01.35-1.82-.21-.91-1.15-1.26-2.81-1.04Z" fill="#FBBC04" /><path d="M20.18 24.43c.99 1.43 1.8 3.01 2.4 4.74.04 0 .07.03.1.1l.6 2.18c.03.08 0 .12-.08.13-.13.02-.21.07-.25.15-.29 0-.51.07-.67.21a4 4 0 0 1-1.25-1.11c0-.02-.02-.02-.04 0a427.1 427.1 0 0 1 2.5 4.31c.06.1.06.2.02.31-.32.74-.87 1.1-1.67 1.1a.2.2 0 0 1-.14-.05 3.63 3.63 0 0 1-.4-.41l-1.43-1.67c-.87-1-1.69-2.18-2.46-3.52a2.52 2.52 0 0 1-.36-1.32c0-.5.18-.92.53-1.23.36-.32.78-.37 1.26-.16.1.05.12.03.05-.06-.53-.72-1-1.54-1.4-2.46-.47-1.1-.22-1.82.74-2.15.78-.26 1.43.04 1.95.91Z" fill="#FF790B" /><path fill-rule="evenodd" d="M10.52 32.65c.36-.1.53.03.5.41-.1 1.03-.21 1.86-.37 2.5-.13.54-.4.89-.83 1.04-.43.16-.86.05-1.27-.34-.3-.28-.36-.79-.2-1.52.04-.15-.01-.26-.15-.34L7.52 34c-.1-.07-.19-.04-.23.09a3.55 3.55 0 0 0-.22 2.08c.17.7.6 1.22 1.27 1.55.64.32 1.28.35 1.92.11.62-.23 1.1-.68 1.44-1.35a8.29 8.29 0 0 0 .6-3.47c0-.1.05-.16.16-.15 1.15.14 2.14.6 2.99 1.39.26.24.55.28.87.12.25-.12.43-.3.55-.51a.2.2 0 0 0 .02-.17c-.9-2.64-1.77-5.28-2.58-7.9-.1-.29-.18-.6-.26-.94-.03-.11-.1-.16-.2-.13l-.35.06c-.4.06-.7.15-.87.25-.33.2-.56.54-.7 1a28.04 28.04 0 0 0-.82 4.47c-.06.43-.24.66-.55.71-.64.1-1.1.33-1.4.7-.44.55-.72 1.19-.82 1.9-.04.26.07.43.33.5.2.06.42.06.65 0 .22-.05.36-.32.41-.79a.93.93 0 0 1 .7-.85l.1-.03Zm3.96-1.05-1.27-3.98c-.04-.12-.11-.14-.2-.06a.36.36 0 0 0-.1.18c-.3 1.08-.45 2.14-.43 3.2 0 .14.07.24.21.29l1.47.5c.1.04.18.04.25.02.07-.03.1-.08.07-.15Z" fill="#FF2D34" /><path d="M34.03 27.21c-.04.06-.08.06-.12 0l-.23-.29c-.14-.17-.29-.19-.45-.05l-.5.42c-.08.08-.09.16 0 .25l.94 1.05c.1.11.14.25.1.4-.18.8-.2 1.64-.02 2.54.2.99.58 1.73 1.14 2.23.06.05.06.1.02.17l-.2.32c-.05.08-.03.14.04.2l.56.36c.1.07.2.06.29-.04.5-.56 1.07-.55 1.7.04.07.05.15.15.26.29.15.2.29.33.4.4a1.9 1.9 0 0 0 1.93.1c.06-.02.1-.07.1-.14 0-.22-.06-.42-.18-.6-.15-.22-.33-.3-.53-.26-.4.08-.74-.1-1-.55-.04-.06-.04-.11 0-.17a5.71 5.71 0 0 0 1.56-5.4 4.17 4.17 0 0 1 .03-1.92c.21-.65.1-1.2-.34-1.63a2.64 2.64 0 0 0-1.6-.7c-.87-.11-1.62.12-2.26.69-.38.34-.86 1-1.44 1.95l-.2.34Zm.96.55c.32-.77.73-1.4 1.22-1.92.67-.7 1.32-.9 1.96-.64.57.24.79.67.64 1.28-.19.77-.69 1.3-1.5 1.58-.7.24-1.45.26-2.26.07-.12-.03-.15-.1-.12-.2l.06-.17Zm3.58 4c-.34.94-1.02 1.41-2.04 1.44-.46 0-.87-.2-1.22-.65a2.6 2.6 0 0 1-.56-1.33 9.04 9.04 0 0 1-.03-1.87c.01-.08.05-.1.12-.1 1.62.33 2.84.13 3.68-.6.07-.06.12-.05.15.06.27 1.1.24 2.11-.1 3.05Z" fill="#4185F4" /><path d="M42.62 26.8c-.1.08-.15.06-.19-.06-.03-.14-.09-.27-.17-.4-.1-.13-.22-.17-.37-.11l-.61.23c-.12.04-.15.12-.1.23l.6 1.23c.1.18.1.35.01.51a6.16 6.16 0 0 0-.77 2.44c-.1.98.07 1.8.49 2.47.04.06.03.12-.03.17l-.27.23c-.1.09-.1.18-.01.28l.42.48c.1.1.21.13.34.05a.99.99 0 0 1 1.15.03c.33.23.56.56.7 1 .14.43.44.77.9 1 .42.22.86.3 1.3.22.05 0 .08-.03.1-.07.09-.2.1-.43.01-.66-.08-.25-.24-.4-.46-.43-.43-.06-.71-.35-.85-.87-.02-.07 0-.12.07-.15 1.94-.86 3.04-2.6 3.27-5.2a3.57 3.57 0 0 1 .68-1.52c.17-.26.21-.57.13-.93a1.8 1.8 0 0 0-.43-.84A3.4 3.4 0 0 0 46.5 25c-.8-.12-1.55.06-2.25.54-.55.37-1.09.79-1.63 1.25Zm5.1.75c-.4.8-1.08 1.2-2.05 1.2-.81 0-1.61-.25-2.4-.75-.05-.03-.06-.07-.02-.12a6.14 6.14 0 0 1 1.9-1.6c.51-.28 1-.39 1.44-.32.51.07.89.36 1.14.87.11.23.1.47-.02.73Zm-4.97 1.5.1.04c.83.4 1.45.64 1.86.74a3.6 3.6 0 0 0 1.98-.1c.07-.02.1 0 .1.08 0 .76-.2 1.53-.6 2.3-.48.9-1.07 1.37-1.77 1.4-.9.02-1.54-.23-1.92-.78-.57-.8-.51-2.02.16-3.64.02-.05.05-.06.1-.04Z" fill="#33A853" /></svg>