<!-- by TradeStack --><svg width="56" height="56" viewBox="0 0 56 56" xmlns="http://www.w3.org/2000/svg"><path fill="#F0F3FA" d="M0 0h56v56H0z"/><path d="M28.5 17h-1v6h1v-6Zm0 16h-1v6h1v-6Zm4.5-2.44.52-1 6.03 3.07-.52 1L33 30.57Zm-10.84-1 .52 1-6.03 3.08-.52-1 6.03-3.09Z" fill="#2D3671"/><ellipse cx="27.84" cy="28" rx="6.42" ry="6.37" fill="#D8800B"/><ellipse cx="15.02" cy="34" rx="3.02" ry="3" fill="#D8800B"/><path d="M13.63 35.02a3.01 3.01 0 0 0 2.97-3.58 3.02 3.02 0 0 0-4.54 3.14c.46.28 1 .44 1.57.44Z" fill="#F0A726"/><circle cx="41" cy="34" fill="#D8800B" r="3"/><path d="M39.62 35.02a3 3 0 0 0 2.94-3.58 3 3 0 0 0-4.5 3.14c.45.28.99.44 1.56.44Z" fill="#F0A726"/><ellipse cx="28" cy="42.02" rx="4" ry="3.98" fill="#D8800B"/><path d="M26.62 44.02a4 4 0 0 0 3.82-5.16 4 4 0 0 0-6.26 4.34 4 4 0 0 0 2.44.82Z" fill="#F0A726"/><ellipse cx="28" cy="13.98" rx="4" ry="3.98" fill="#D8800B"/><path d="M26.62 15.98a4 4 0 0 0 3.82-5.16 4 4 0 0 0-6.26 4.34 4 4 0 0 0 2.44.82Zm-.17 16.41a6.4 6.4 0 0 0 5.87-8.95A6.43 6.43 0 0 0 21.42 28c0 .92.2 1.8.55 2.58a6.43 6.43 0 0 0 4.48 1.8Z" fill="#F0A726"/></svg>