<!-- by TradeStack --><svg width="56" height="56" viewBox="0 0 56 56" xmlns="http://www.w3.org/2000/svg"><path fill="#181B1E" d="M0 0h56v56H0z"/><path d="M39 30.16C39 23.13 29.48 13.12 24.71 9c.21.63.62 2.63.62 5.57 0 10.32-8.33 9.71-8.33 21.2 0 5.63 7.71 8.95 10.92 10.23C30.72 44.82 39 38.95 39 30.16Z" fill="#F6DD07"/><path d="M37.5 30.31c0-6.42-7.73-15.14-11.6-18.7 3.58 11.5-6.73 16.15-6.73 23.4 0 7.26 6.37 9.56 8.75 10.68 3.99-2.65 9.58-7.4 9.58-15.38Z" fill="url(#am1r20imr)"/><path d="M35.38 31.38c0-4.94-4.83-12.21-7.25-15.23C30.51 23 21.87 29.4 21.87 34.4c0 5 4.14 8.28 6.26 9.86 2.33-1.33 7.25-6.7 7.25-12.88Z" fill="#F7941D"/><path d="M33.98 33.43c0-4.99-2.45-9.1-3.68-10.53 1.2 5.98-5.64 9.97-5.64 13.85 0 3.1 2.28 6.27 3.42 7.46 1.96-1.51 5.9-5.8 5.9-10.78Z" fill="#F46D22"/><path d="M45.65 33.64h-4.3v-5.28h4.3v1.32h-3.01v.66h2.02v1.32h-2.02v.66h3.01v1.32Z" fill="#FFFFF9"/><path d="M40.67 34H34l2.85-4h-2.28v-2H41l-2.84 4h2.5v2Z" fill="#181B1E"/><path d="M40.27 33.64h-5.54l2.85-3.96H35v-1.32h5.27l-2.84 3.96h2.84v1.32Z" fill="#FFFFF9"/><path d="M28 34h-5v-6h2v4h3v2Z" fill="#181B1E"/><path d="M27.65 33.64h-4.3v-5.28h1.29v3.96h3v1.32Z" fill="#FFFFF9"/><path d="m23 31.99-.2.23A5.1 5.1 0 0 1 21 33.6c-.59.26-1.27.39-2.03.39H17v-6h1.97c.76 0 1.44.13 2.04.4a5.1 5.1 0 0 1 1.8 1.38l.19.23-.2.23c-.25.29-.5.54-.77.76.27.22.53.48.77.76l.2.23Z" fill="#181B1E"/><path d="M22.51 31.99a4.74 4.74 0 0 1-1.66 1.3c-.54.23-1.16.35-1.88.35h-1.6v-5.28h1.6c.72 0 1.34.12 1.88.36.59.26 1.14.69 1.66 1.3-.36.4-.73.74-1.1.98.4.26.76.6 1.1.99ZM20.56 30a3.3 3.3 0 0 0-1.59-.33h-.2v.66h.2c.66 0 1.2-.1 1.59-.33Zm0 1.98a3.3 3.3 0 0 0-1.59-.33h-.2v.66h.2c.66 0 1.2-.11 1.59-.33ZM16.39 33.62h-1.55l-.33-.66H12.5l-.33.66H10.6l2.89-5.78 2.89 5.78Zm-2.58-2.07-.31-.61-.3.61h.6Z" fill="#FFFFF9"/><path d="M35 34h-2.4l-.32-.66h-1.56l-.33.66H28l3.5-7 3.5 7Z" fill="#181B1E"/><path d="M34.39 33.62h-1.55l-.33-.66H30.5l-.33.66H28.6l2.89-5.78 2.89 5.78Zm-2.58-2.07-.31-.61-.3.61h.6Z" fill="#FFFFF9"/><defs><linearGradient id="am1r20imr" x1="28.34" y1="11.61" x2="28.34" y2="45.69" gradientUnits="userSpaceOnUse"><stop stop-color="#FFC809"/><stop offset="1" stop-color="#FB9F1C"/></linearGradient></defs></svg>