<!-- by TradeStack --><svg width="56" height="56" viewBox="0 0 56 56" xmlns="http://www.w3.org/2000/svg"><path fill="#F0F3FA" d="M0 0h56v56H0z"/><path fill-rule="evenodd" d="m50 17.7-1.57 1.54c-.07.07-.1.16-.08.29-.04.1.1.17.41.2l-1.32 1.46c-.18.2-.03.27.43.24.07 0 .12 0 .16.02.06.04.07.09.04.15-.14.02-.23.04-.28.1-.46.43-.93.84-1.42 1.23-.04.03-.06.1-.06.18l-.2.14a.1.1 0 0 0-.05.07v.08a.1.1 0 0 0 .07.05.1.1 0 0 0 .07-.01c.3-.15.52-.13.64.07a8.1 8.1 0 0 0-2.24 1.59.07.07 0 0 0 .02.05.06.06 0 0 0 .04.02l.28-.01c.07 0 .12.02.15.07s.03.1.02.18c-.84.18-1.6.55-2.29 1.1l.35.19a.08.08 0 0 1 .03.03l.02.03c0 .05-.01.08-.05.1l-1.62.66a.32.32 0 0 0-.15.13l-.2.34a.37.37 0 0 1-.14.13 4.5 4.5 0 0 1-1.58.58.27.27 0 0 0-.08.07l-.22.33a.26.26 0 0 1-.08.08.25.25 0 0 1-.1.04 3.7 3.7 0 0 0-1.88.65l-.38.27-.94-.03h-.07a.14.14 0 0 0-.06.07.16.16 0 0 0-.02.1l.05.28a.1.1 0 0 1-.02.08.08.08 0 0 1-.07.03l-1.4-.28a.13.13 0 0 0-.13.04.14.14 0 0 0-.03.06v.07l.01.07a1 1 0 0 1 .03.2c-.07.11-.2.14-.36.08-.51-.18-.9-.14-1.17.12a.15.15 0 0 1-.1.04l-.76.1c-.23-.01-.49.1-.76.34-.2-.02-.33.02-.4.13-.04.08-.03.2.04.34l.1.24c0 .03 0 .07-.02.1a.14.14 0 0 1-.08.07c-.24.08-.45.31-.63.7a.23.23 0 0 0 .04.25c.18.21.22.4.11.59a.16.16 0 0 0 .06.22c.07.03.12.06.14.1.06.06.09.13.09.2 0 .06-.03.09-.08.1l-.04.01a.07.07 0 0 0-.02.04c-.19 1.02-.95 1.63-1.66 2.2l-.53.45a.16.16 0 0 1-.1.04l-.09-.03a6 6 0 0 1-2.37-2.79l.35-.3v-.01h-.01a.52.52 0 0 0-.05-.02c.07-.03.1-.07.12-.13.01-.06-.01-.1-.08-.14-.13-.06-.15-.18-.05-.33.05-.1.1-.16.16-.2a.17.17 0 0 0 .05-.1v-.1c-.16-.42-.37-.66-.63-.71a.14.14 0 0 1-.1-.07.15.15 0 0 1-.02-.06.17.17 0 0 1 0-.06c.05-.2.1-.36.18-.47a.16.16 0 0 0-.05-.22.14.14 0 0 0-.07-.03h-.84a.14.14 0 0 1-.1-.03.16.16 0 0 1-.04-.1l-.02-.1a.24.24 0 0 0-.08-.12.21.21 0 0 0-.13-.04h-.62a.19.19 0 0 1-.1-.04.2.2 0 0 1-.08-.1l-.05-.14a.18.18 0 0 0-.08-.1.17.17 0 0 0-.11-.01l-1.1.22a.1.1 0 0 1-.1-.05.11.11 0 0 1-.02-.08l.06-.31a.13.13 0 0 0-.03-.11.11.11 0 0 0-.1-.03l-1.4.28a.11.11 0 0 1-.12-.04.13.13 0 0 1-.03-.12l.08-.35a.2.2 0 0 0-.07-.06.19.19 0 0 0-.1-.02l-1.59.15h-.05a.1.1 0 0 1-.04-.05.1.1 0 0 1 0-.08l.12-.33a.13.13 0 0 0 0-.1.11.11 0 0 0-.06-.05l-.03-.01-.25-.03a.2.2 0 0 0-.07-.11l-.03-.01-1.64-.17.38-.44c-.8-.3-1.6-.48-2.4-.53.06-.19.13-.28.22-.28l.12-.08a.1.1 0 0 0 .03-.04.1.1 0 0 0-.01-.1.1.1 0 0 0-.04-.03.57.57 0 0 0-.08-.03.2.2 0 0 0-.05 0 4.61 4.61 0 0 0-2.04-.9c.08-.13.24-.24.48-.32l.02-.01v-.03c0-.04-.02-.05-.07-.04.05-.1.03-.17-.05-.2-.34-.16-1.08-.46-2.21-.9 0-.15.16-.21.47-.2a.05.05 0 0 0 .05-.06.16.16 0 0 0-.02-.06l-.01-.02a9.62 9.62 0 0 0-2.22-1.55c.13-.12.38-.14.73-.06h.05c.02-.02.03-.03.03-.05v-.05a.07.07 0 0 0-.03-.04c-.15-.07-.22-.13-.24-.18a4.22 4.22 0 0 0-1.14-1.04.3.3 0 0 1-.13-.17.4.4 0 0 0-.13-.2c.23-.04.33-.11.31-.24.08-.03.04-.13-.12-.3L7.28 20a.3.3 0 0 1-.08-.12l-.04-.15c.23-.02.37-.09.41-.2.05-.08.02-.17-.06-.26a6 6 0 0 0-1.41-1.29.2.2 0 0 1-.1-.12.38.38 0 0 1 .01-.16c.18-.03.36-.02.53.01l6.47 1.25c.17.03.33.12.45.25l2.11 2.21c.24.25.52.47.8.69l.33.26.98.73a82 82 0 0 0 4.14 2.96c.84.55 1.55 1.05 2.14 1.5a7.55 7.55 0 0 0 2.23 1.29c1.16.37 2.33.37 3.49.02a7.8 7.8 0 0 0 2.22-1.25c.63-.46 1.33-.94 2.05-1.43a135.8 135.8 0 0 0 5.49-4c.53-.41 1.02-.86 1.46-1.33l1.37-1.46c.33-.34.64-.52.92-.52.15 0 .24-.01.27-.02l5.87-1.17c.23-.04.45-.03.67.02ZM26.37 32.17c-.27.02-.4-.04-.42-.17.02-.1.07-.2.13-.28.1-.15.15-.23.12-.27a.32.32 0 0 0-.12-.09.17.17 0 0 1-.08-.09.19.19 0 0 1 0-.13c.12-.36.23-.6.33-.7.32-.33.6-.53.87-.6l.64-.13c.1-.02.2-.02.3 0 1.34.23 1.9.94 1.66 2.11.1.14.11.23.07.28a.2.2 0 0 1-.2.07c-.03 0-.05-.04-.07-.1-.04.04-.05.13-.02.26.03.15 0 .23-.1.25l-.3.45c-.1.14-.25.23-.48.3-.07.05-.1.1-.1.11.01.11-.12.17-.42.18l-.05.11c.02.17-.04.25-.16.25-.06.03-.12-.01-.19-.13a.75.75 0 0 0-.45-.33c-.1-.06-.15-.13-.12-.2a.95.95 0 0 1-.51-.22l-.05-.2c-.2-.1-.32-.19-.37-.28-.04-.1 0-.24.1-.45Zm.41 2.95.04-.01c-.09.01-.15-.03-.18-.11a.33.33 0 0 1 0-.25.31.31 0 0 1 .15-.17c.17-.07.3-.05.42.07.14.13.14.27 0 .4-.02.16-.16.22-.41.2l-.04-.02a.07.07 0 0 1 0-.08c0-.02.01-.02.02-.03Zm2.27.12c-.26.03-.37-.02-.35-.15l-.09-.12a.23.23 0 0 1 .02-.31.2.2 0 0 1 .1-.05c.49-.13.64.03.45.48 0 .08-.04.13-.13.15Z" fill="url(#a)"/><path d="m30.35 17 3.37 8.35a22.12 22.12 0 0 1-2.95 2.27c-.5.35-.86.41-1.07.18l-1.63-4.27c-.08-.47-.14-.56-.2-.27l-1.61 4.26c-.02.13-.06.25-.11.36a.15.15 0 0 1-.08.07.14.14 0 0 1-.1.01 2.7 2.7 0 0 1-.76-.35 28.66 28.66 0 0 1-2.93-2.27l3.37-8.33 4.7-.01Z" fill="url(#b)"/><path d="m27.56 30.95-.52-.33c.2-.31.37-.2.52.33Z" fill="#E7C49E"/><path d="m28.84 30.66-.4.28a.34.34 0 0 1-.08-.08.15.15 0 0 1-.02-.13.15.15 0 0 1 .1-.1c.1-.02.17-.07.23-.15a.1.1 0 0 1 .06-.04.1.1 0 0 1 .07 0c.07.06.09.12.04.22Z" fill="#DF5828"/><path d="m27.56 30.95-.1.06a.21.21 0 0 1-.07.1.19.19 0 0 1-.11.02.17.17 0 0 1-.16-.13l-.08-.38.52.33Z" fill="#0F0B06"/><path d="M28.41 31.04c0 .28-.07.5-.23.66-.14.15-.29.15-.44 0a1.7 1.7 0 0 1-.34-.44c.2-.17.34-.33.41-.48a.23.23 0 0 1 .1-.1.2.2 0 0 1 .25.04c.03.03.05.07.06.12a.2.2 0 0 1-.01.07v.07l.04.05c.05.04.1.05.16.01Z" fill="#A93A04"/><path d="M28.84 30.66c.07.23 0 .38-.2.47a.23.23 0 0 0-.13.18 1.1 1.1 0 0 1-.48.8.14.14 0 0 1-.08.03c-.03 0-.06-.01-.08-.03a.99.99 0 0 1-.47-.85c.1.19.22.34.34.45.15.14.3.14.44 0a.88.88 0 0 0 .23-.67c0-.03.01-.07.03-.1l.4-.28Z" fill="#0F0B06"/><path d="m21.47 30.92-.08.55c.3.05.67.03 1.1-.07.33-.08.55.18.85.22l.51.08c.03.04.05.1.06.16.12.2.35.24.69.1l-.03.23-.03.1-2.54 6.6a.18.18 0 0 1-.07.08.17.17 0 0 1-.1.03h-4.89l-.02-.02a.04.04 0 0 1 0-.04l3.15-7.83c.46.1.93.04 1.4-.19Z" fill="#2A4D7C"/><path d="m35.94 31.1 3.14 7.8a.07.07 0 0 1 0 .07l-.03.02h-4.99a.2.2 0 0 1-.12-.03.21.21 0 0 1-.07-.1l-2.7-6.92c.4.2.76.15 1.06-.17a.3.3 0 0 1 .2-.1c.18-.01.36-.07.53-.16a1 1 0 0 1 .65-.07c.34.05.68.06 1.03.03a1.65 1.65 0 0 1-.07-.55c.43.25.9.3 1.37.19Z" fill="#375B84"/><defs><linearGradient id="a" x1="50" y1="23.97" x2="6" y2="23.97" gradientUnits="userSpaceOnUse"><stop stop-color="#C04D04"/><stop offset=".52" stop-color="#5A1D00"/><stop offset="1" stop-color="#CA580E"/></linearGradient><linearGradient id="b" x1="28" y1="12.76" x2="28" y2="27.97" gradientUnits="userSpaceOnUse"><stop stop-color="#5E81B5"/><stop offset="1" stop-color="#32558A"/></linearGradient></defs></svg>