<!-- by TradeStack --><svg width="56" height="56" viewBox="0 0 56 56" xmlns="http://www.w3.org/2000/svg"><path fill="#181B1E" d="M0 0h56v56H0z"/><path d="M22.65 36.1c.76-.77 5.78-4.92 7.35-6.6-3 1-6-1.1-6-3.5 0-1.93 1.86-3.71 2.94-4.3l-5.43-3.3-9.68 15.78a5.1 5.1 0 0 0 1.23 6.9 4.63 4.63 0 0 0 6.52-.97c1.34-1.8 2.64-3.57 3.07-4Z" fill="url(#a)"/><path d="m22.42 16.85-6.03 9.86c5-4.66 11.23-4.71 13.58-4.71 2.36 0 4.03-1.82 4.03-2.68C34 14.5 31.77 12 27.96 12c-2.15 0-4.59 3.23-5.54 4.85Z" fill="url(#b)"/><path d="M35.06 28c-6.68 0-10.36 5.43-12.48 8.22a9.35 9.35 0 0 1 5.46-1.86c6.8 0 6.9 7.64 11.57 7.64 2.96 0 5.39-2.13 5.39-4.85 0-2.72-3.53-9.15-9.94-9.15Z" fill="url(#c)"/><defs><linearGradient id="a" x1="25.99" y1="23.22" x2="11.88" y2="40.22" gradientUnits="userSpaceOnUse"><stop stop-color="#A01B44"/><stop offset="1" stop-color="#F62C6B"/></linearGradient><linearGradient id="b" x1="27.77" y1="11.38" x2="16.07" y2="25.95" gradientUnits="userSpaceOnUse"><stop stop-color="#FFDA32"/><stop offset="1" stop-color="#FA7A33"/></linearGradient><linearGradient id="c" x1="40.56" y1="34.86" x2="24.53" y2="38.59" gradientUnits="userSpaceOnUse"><stop stop-color="#FFDA32"/><stop offset="1" stop-color="#FA7A33"/></linearGradient></defs></svg>