<?xml version='1.0' encoding='utf-8'?>
<!-- by TradeStack -->
<svg width="56" height="56" viewBox="0 0 56 56" xmlns="http://www.w3.org/2000/svg"><path fill="#F0F3FA" d="M0 0h56v56H0z" /><path d="M12.59 25H11L11 30h1.58c1.92 0 2.42-.79 2.42-2.5s-.5-2.5-2.41-2.5Zm-.1 4H12v-3h.48c1.2 0 1.52.35 1.52 1.5s-.32 1.5-1.52 1.5ZM26.58 27.04c.38.04.75.2 1.05.44a1.22 1.22 0 0 1 .37.92 1.5 1.5 0 0 1-.6 1.21c-.41.27-.9.4-1.38.39A2.28 2.28 0 0 1 24 29l.8-.57c.12.23.3.42.53.55.23.13.48.19.74.17.66 0 .97-.3.97-.61 0-.4-.46-.5-.75-.56l-.64-.13c-.36-.06-.7-.2-.99-.41a1.18 1.18 0 0 1-.42-.92c0-.75.61-1.52 1.79-1.52.46 0 .9.12 1.3.36.22.13.42.3.57.53l-.68.58a1.4 1.4 0 0 0-1.19-.66c-.59 0-.85.34-.85.57 0 .38.47.47.78.54l.62.12ZM33 30h-1v-4h-1v-1h3v1h-1v4ZM41 30h-1.18l-1.03-2.01H38v2h-1V25h2c1.03 0 2.02.3 2 1.5.01.63-.53 1.33-1.15 1.49L41 30Zm-3-3h1c.5 0 1 0 1-.5s-.75-.5-1-.5h-1v1ZM44 25v5h1v-5h-1ZM52 30h-.95l-.25-1h-1.6l-.28 1H48l1.46-5h1.06L52 30Zm-1.5-2-.54-1.9-.46 1.9h1ZM21 30h-.95l-.25-1h-1.6l-.28 1H17l1.46-5h1.06L21 30Zm-1.5-2-.54-1.9-.46 1.9h1ZM8 30h-.95l-.25-1H5.2l-.28 1H4l1.46-5h1.06L8 30Zm-1.5-2-.54-1.9L5.5 28h1ZM8 32H4v1h4v-1Z" /></svg>