<?xml version='1.0' encoding='utf-8'?>
<!-- by TradeStack -->
<svg width="56" height="56" viewBox="0 0 56 56" xmlns="http://www.w3.org/2000/svg"><path fill="#F0F3FA" d="M0 0h56v56H0z" /><path d="M5.61 31c-.46 0-.83-.1-1.13-.3-.28-.21-.45-.5-.48-.85h.53c.02.22.13.4.31.53.2.13.45.2.76.2a1 1 0 0 0 .65-.2.59.59 0 0 0 .25-.47.44.44 0 0 0-.14-.33.9.9 0 0 0-.33-.2c-.13-.05-.32-.1-.54-.16-.3-.08-.54-.15-.73-.23a1.28 1.28 0 0 1-.47-.33.91.91 0 0 1-.2-.6c0-.2.06-.37.18-.53.12-.16.28-.3.5-.39.21-.1.46-.14.73-.14.43 0 .78.1 1.04.32.26.2.4.5.42.87h-.5a.73.73 0 0 0-.29-.55c-.16-.14-.4-.21-.68-.21-.26 0-.47.06-.63.18a.53.53 0 0 0-.25.44c0 .15.05.27.14.37.1.1.22.17.36.23l.57.18c.3.08.52.15.7.22.16.07.3.18.43.31.12.14.19.32.19.55 0 .21-.06.4-.18.56a1.2 1.2 0 0 1-.49.39c-.2.1-.45.14-.72.14ZM9.49 31c-.38 0-.72-.08-1.02-.24-.3-.17-.54-.4-.71-.7-.17-.3-.26-.66-.26-1.06s.09-.75.26-1.05c.18-.3.42-.54.72-.7.3-.17.64-.25 1.02-.25s.72.08 1.02.25c.3.16.55.4.72.7.17.3.26.65.26 1.05s-.09.75-.26 1.05c-.18.3-.42.54-.73.7-.3.17-.65.25-1.02.25Zm0-.43c.26 0 .5-.06.73-.18.22-.11.4-.29.54-.52.14-.24.21-.53.21-.87 0-.34-.07-.63-.2-.86a1.3 1.3 0 0 0-.54-.53 1.55 1.55 0 0 0-.74-.18c-.26 0-.5.06-.73.18-.22.12-.4.3-.54.53-.13.23-.2.52-.2.86 0 .34.07.63.2.87a1.37 1.37 0 0 0 1.27.7ZM12 29c0-.4.09-.75.26-1.05.18-.3.42-.54.73-.7.31-.17.67-.25 1.06-.25.53 0 .96.12 1.3.36.33.23.55.56.65.96h-.58c-.07-.28-.23-.5-.47-.65a1.55 1.55 0 0 0-.9-.24c-.28 0-.54.06-.76.18-.23.11-.41.3-.55.53-.13.23-.19.52-.19.86 0 .34.06.63.2.87.13.24.3.41.54.53.22.12.48.18.76.18.36 0 .66-.08.9-.23.24-.17.4-.39.47-.67H16c-.1.4-.32.71-.66.96-.34.24-.77.36-1.29.36-.4 0-.75-.08-1.06-.24-.3-.17-.55-.4-.73-.7-.17-.3-.26-.66-.26-1.06ZM17 27v4h-.5v-4h.5ZM17.5 29c0-.4.08-.75.24-1.05.17-.3.4-.54.68-.7.3-.17.62-.25.99-.25.38 0 .7.09.98.26s.48.39.6.65V27h.51v4h-.51v-.92a1.6 1.6 0 0 1-.6.66c-.28.17-.6.26-.99.26-.36 0-.69-.08-.98-.25-.29-.17-.51-.4-.68-.7-.16-.3-.24-.66-.24-1.06Zm3.49 0c0-.31-.07-.59-.2-.83a1.38 1.38 0 0 0-.54-.54c-.22-.13-.47-.2-.75-.2s-.53.07-.76.19c-.22.12-.4.3-.53.54-.13.23-.2.51-.2.83 0 .32.07.6.2.84a1.4 1.4 0 0 0 1.3.74c.27 0 .52-.07.74-.2.23-.12.4-.3.54-.54.13-.24.2-.52.2-.83ZM22.48 26v5H22v-5h.48Z" /><path d="M24.3 31c-.86 0-1.3-.52-1.3-1.47v-4.1c0-.28.15-.43.41-.43.28 0 .43.15.43.42v4.06c0 .55.23.82.66.82h.13l.12-.02c.07 0 .11.02.14.06.03.04.04.12.04.25 0 .12-.02.21-.07.28-.05.06-.13.1-.24.11l-.16.01-.16.01ZM27.26 31c-.46 0-.87-.08-1.2-.24-.34-.16-.6-.39-.79-.68-.18-.3-.27-.66-.27-1.07a1.9 1.9 0 0 1 1.02-1.75c.31-.18.67-.26 1.08-.26.3 0 .56.04.8.13.23.09.43.22.6.38.16.17.29.37.37.6.09.24.13.5.13.8 0 .1-.03.16-.09.2a.45.45 0 0 1-.26.07H25.7v-.49h2.7l-.15.11c0-.26-.04-.49-.13-.67a.87.87 0 0 0-.37-.42c-.17-.1-.37-.15-.62-.15-.27 0-.5.06-.7.18-.19.11-.33.27-.43.48-.1.2-.15.44-.15.72v.04c0 .47.12.82.36 1.06.25.23.6.34 1.06.34.18 0 .36-.02.55-.06.2-.04.39-.11.57-.21a.5.5 0 0 1 .26-.07.3.3 0 0 1 .2.07c.04.04.08.1.09.15a.3.3 0 0 1-.04.2.5.5 0 0 1-.18.18c-.2.12-.43.21-.7.27-.26.06-.51.09-.76.09ZM31 31a.56.56 0 0 1-.32-.09.65.65 0 0 1-.21-.27l-1.42-3.09a.48.48 0 0 1-.05-.27.27.27 0 0 1 .13-.2.5.5 0 0 1 .3-.08c.1 0 .19.02.25.07s.12.13.17.25l1.28 2.96h-.24l1.3-2.96c.06-.12.11-.2.18-.25a.48.48 0 0 1 .28-.07c.1 0 .18.03.23.08.07.05.1.11.11.2.02.08 0 .17-.04.26l-1.43 3.1a.57.57 0 0 1-.21.27.56.56 0 0 1-.32.09ZM34.85 31c-.45 0-.84-.08-1.17-.24-.32-.16-.57-.39-.75-.68-.18-.3-.26-.66-.26-1.07 0-.4.08-.75.26-1.05.17-.3.41-.54.72-.7.3-.18.65-.26 1.04-.26.3 0 .55.04.77.13.23.09.42.22.58.38.16.17.29.37.37.6.08.24.12.5.12.8 0 .1-.03.16-.08.2a.42.42 0 0 1-.26.07h-2.85v-.49h2.62l-.15.11c0-.26-.04-.49-.13-.67a.86.86 0 0 0-.36-.42c-.16-.1-.36-.15-.6-.15a1.12 1.12 0 0 0-1.1.66c-.08.2-.13.44-.13.72v.04c0 .47.11.82.35 1.06.23.23.58.34 1.02.34.17 0 .35-.02.54-.06.19-.04.37-.11.54-.21.1-.06.18-.08.25-.07a.3.3 0 0 1 .28.22c.01.07 0 .13-.03.2a.48.48 0 0 1-.18.18c-.2.12-.41.21-.67.27-.25.06-.5.09-.74.09ZM37.45 31c-.14 0-.25-.03-.32-.1a.41.41 0 0 1-.11-.3v-3.17c0-.13.03-.23.1-.3.08-.07.18-.1.31-.1s.24.03.3.1c.08.07.11.17.11.3V28h-.08c.09-.32.25-.56.5-.72.23-.17.54-.26.92-.29.1 0 .18.02.23.07.07.05.1.14.1.25.02.1 0 .2-.07.27-.06.06-.16.1-.29.1l-.16.02c-.36.04-.64.14-.83.33a1 1 0 0 0-.28.76v1.8c0 .12-.04.22-.11.3-.07.07-.18.1-.32.1Z" fill="#28A342" /><path d="M40.8 31c-.36 0-.67-.08-.95-.24-.26-.16-.47-.4-.62-.7-.15-.3-.23-.65-.23-1.06 0-.42.08-.77.23-1.07A1.68 1.68 0 0 1 40.8 27c.36 0 .66.08.92.25.26.17.44.39.53.67l-.09.14v-.64c0-.13.04-.23.11-.3.07-.07.18-.1.31-.1.14 0 .24.03.31.1s.11.17.11.3v3.16c0 .13-.04.23-.1.3-.08.07-.18.1-.32.1-.13 0-.24-.03-.3-.1a.41.41 0 0 1-.12-.3v-.64l.1.12c-.1.28-.27.51-.53.69-.26.17-.57.25-.93.25Zm.22-.62c.23 0 .43-.05.6-.15.17-.11.3-.27.4-.47.1-.2.15-.46.15-.76 0-.45-.1-.8-.32-1.03-.2-.23-.49-.35-.83-.35-.24 0-.44.06-.61.16-.18.1-.31.26-.41.46-.1.2-.15.46-.15.76 0 .45.11.8.32 1.03.21.23.5.35.85.35ZM45.58 32c-.3 0-.6-.03-.87-.08a2.66 2.66 0 0 1-.76-.26.33.33 0 0 1-.17-.15.25.25 0 0 1-.02-.17.34.34 0 0 1 .25-.24c.06-.01.13 0 .2.03a3.2 3.2 0 0 0 1.3.3c.4 0 .69-.09.88-.26.2-.17.3-.42.3-.76v-.74h.07a1.1 1.1 0 0 1-.52.63 1.8 1.8 0 0 1-.93.23 2 2 0 0 1-.95-.21 1.61 1.61 0 0 1-.64-.62 1.88 1.88 0 0 1-.22-.94c0-.26.04-.5.12-.72.1-.21.22-.4.37-.55.16-.16.35-.28.57-.36a2.07 2.07 0 0 1 1.68.1c.26.16.43.37.51.64l-.08.12v-.6c0-.13.03-.22.1-.28.08-.06.19-.1.31-.1.14 0 .24.04.31.1.07.06.11.15.11.28v2.93c0 .56-.16.98-.5 1.26-.32.28-.8.42-1.42.42Zm-.07-2.04c.25 0 .45-.05.63-.15a1 1 0 0 0 .4-.41c.09-.18.14-.4.14-.64 0-.36-.1-.65-.32-.86-.2-.22-.49-.32-.85-.32-.24 0-.44.04-.61.14-.17.1-.31.24-.41.42-.1.17-.14.38-.14.62 0 .37.1.66.31.88.21.21.5.32.85.32ZM50.26 31c-.46 0-.87-.08-1.2-.24-.34-.16-.6-.39-.79-.68-.18-.3-.27-.66-.27-1.07a1.9 1.9 0 0 1 1.02-1.75c.31-.18.67-.26 1.08-.26.3 0 .56.04.8.13.23.09.43.22.6.38.16.17.29.37.37.6.09.24.13.5.13.8 0 .1-.03.16-.09.2a.45.45 0 0 1-.26.07H48.7v-.49h2.7l-.15.11c0-.26-.04-.49-.13-.67a.87.87 0 0 0-.37-.42c-.17-.1-.37-.15-.62-.15-.27 0-.5.06-.7.18-.19.11-.33.27-.43.48-.1.2-.15.44-.15.72v.04c0 .47.12.82.36 1.06.25.23.6.34 1.06.34.18 0 .36-.02.55-.06.2-.04.4-.11.57-.21a.5.5 0 0 1 .26-.07.3.3 0 0 1 .2.07c.04.04.08.1.09.15a.3.3 0 0 1-.04.2.5.5 0 0 1-.18.18c-.2.12-.43.21-.7.27-.26.06-.51.09-.76.09Z" fill="#28A342" /></svg>