<?xml version='1.0' encoding='utf-8'?>
<!-- by TradeStack -->
<svg width="56" height="56" viewBox="0 0 56 56" xmlns="http://www.w3.org/2000/svg"><path fill="#F0F3FA" d="M0 0h56v56H0z" /><path d="m28 9 16 9.5V22h-2v-2.5L28 11l-14 8.5v16.4l-1.07 2.15-.93-.55v-19L28 9Z" fill="#00AEEF" /><path d="M14.03 38.7 28 47l16-9.5V24h-2v12l-14 8-12.89-7.37-1.08 2.07Z" fill="#59595C" /><path d="m18 24-4.5 8.5-.56 5.44L19 26.5l3 5.5h2.5L20 24h-2Z" fill="#00AEEF" /><path fill="#59595C" d="M34 24h9v2h-9z" /><path fill="#59595C" d="M37 32v-8h2v8z" /><path d="M34 24.95c-.3-.56-.89-.95-1.57-.95h-5.66c-.98 0-1.77.8-1.77 1.78v4.44c0 .98.8 1.78 1.77 1.78h5.66c.68 0 1.27-.39 1.57-.95l-1.98-1.58a.6.6 0 0 1-.6.53h-3.81a.6.6 0 0 1-.6-.6v-2.8c0-.33.27-.6.6-.6h3.81a.6.6 0 0 1 .6.53L34 24.95Z" fill="#00AEEF" /></svg>