<?xml version='1.0' encoding='utf-8'?>
<!-- by TradeStack -->
<svg width="56" height="56" viewBox="0 0 56 56" xmlns="http://www.w3.org/2000/svg"><path fill="#F0F3FA" d="M0 0h56v56H0z" /><path d="M18.04 25.25c-7.4-2.16-8.39-7.07-7.95-9.25.68 4.81 9.53 6.4 16.01 7.42 6.48 1.02 10.42 5.1 10.42 9.47 0 3.5-3.64 6.42-5.45 7.44l-2.53-1.08c1.8-.74 5.41-2.77 5.41-5.01 0-4.11-6.65-6.3-15.9-9Z" fill="#90B9E5" /><path d="M35.86 26.97A13.33 13.33 0 0 0 32 23.95c4.99-.55 14.92-2.9 14.76-7.95.08.43.24 1.45.24 2.07 0 4.81-7.43 7.94-11.14 8.9Z" fill="#894D28" /><path d="m25.7 21 .74 10.06 3.6-2.42-2.53 3.44L34 33l-6.5.53 2.54 3.44-3.6-2.42L25.7 44l-.75-9.45-3.6 2.42 2.54-3.44L17 33l6.88-.92-2.53-3.44 3.59 2.42.75-10.06Z" fill="#ECC988" /></svg>