<?xml version='1.0' encoding='utf-8'?>
<!-- by TradeStack -->
<svg width="56" height="56" viewBox="0 0 56 56" xmlns="http://www.w3.org/2000/svg"><path fill="#F0F3FA" d="M0 0h56v56H0z" /><circle cx="28" cy="28" r="16" fill="url(#a51mzxeo5)" /><path d="M39.75 24c-1.57 2.32-5.63 2.3-9.08-.02-3.45-2.34-4.98-6.1-3.41-8.42 1.56-2.31 5.63-2.3 9.08.04 3.45 2.33 4.97 6.1 3.4 8.4z" fill="url(#b51mzxeo5)" /><ellipse cx="33.82" cy="18.96" rx="5.28" ry="3.5" transform="rotate(34.07 33.82 18.96)" fill="url(#c51mzxeo5)" /><ellipse cx="34.78" cy="18.32" rx="2.87" ry="1.82" transform="rotate(34.07 34.78 18.32)" fill="#FDDFD1" /><path d="M26.56 33H30V23h-1.5v3h-1.94c-.98 0-1.82.36-2.51 1.04A3.36 3.36 0 0 0 23 29.51c0 .97.35 1.79 1.04 2.47A3.45 3.45 0 0 0 26.56 33zm1.94-5.5v4h-1.94a2.01 2.01 0 0 1-2.06-2c0-1.14.93-2 2.06-2h1.94zm9 5.5H36v-3.15c0-1.43-1.07-2.35-2.45-2.35H32.5V33H31V23h1.5v3h1.35a3.5 3.5 0 0 1 2.57 1.02c.68.67 1.08 1.5 1.08 2.51V33zm.75 0v-7h1.5v7h-1.5zM22 33h-3.45c-.98 0-1.82-.34-2.51-1.02A3.34 3.34 0 0 1 15 29.51c0-.96.35-1.79 1.05-2.48a3.44 3.44 0 0 1 2.5-1.03H22v7zm-1.5-1.5v-4h-2.03c-1.15 0-1.97.86-1.97 2 0 1.14.83 2 1.97 2h2.03zM39 25a1 1 0 1 0 0-2 1 1 0 0 0 0 2z" fill="#F0F3FA" /><defs><linearGradient id="a51mzxeo5" x1="31.29" y1="12.57" x2="20.82" y2="42.03" gradientUnits="userSpaceOnUse"><stop stop-color="#DE111D" /><stop offset=".34" stop-color="#E73129" /><stop offset=".63" stop-color="#E30C1B" /><stop offset="1" stop-color="#AE2021" /></linearGradient><linearGradient id="b51mzxeo5" x1="36.34" y1="15.6" x2="30.69" y2="23.67" gradientUnits="userSpaceOnUse"><stop stop-color="#E94336" /><stop offset=".44" stop-color="#EB6250" /><stop offset="1" stop-color="#E83B2D" /></linearGradient><linearGradient id="c51mzxeo5" x1="33.82" y1="15.46" x2="33.75" y2="23.27" gradientUnits="userSpaceOnUse"><stop offset=".47" stop-color="#F07C68" /><stop offset="1" stop-color="#E9493A" /></linearGradient></defs></svg>