<?xml version='1.0' encoding='utf-8'?>
<!-- by TradeStack -->
<svg width="56" height="56" viewBox="0 0 56 56" xmlns="http://www.w3.org/2000/svg"><path fill="#F0F3FA" d="M0 0h56v56H0z" /><path d="M35.86 35.93a35.38 35.38 0 0 1-5.5-6.79h-.03l-.73.42a31.72 31.72 0 0 1-9.09 3.07c-.16.03-.2.11-.3.24a12.3 12.3 0 0 1-3.42 3.17l.56-.51a18.77 18.77 0 0 0 2.47-2.78h-.01l-.01-.01c-2.14.4-4.29.56-6.46.46a13.84 13.84 0 0 1-3.48-.61 5.73 5.73 0 0 1-1.97-1.07c-1.86-1.54-.44-3.83.94-5.04.86-.77 1.85-1.45 2.95-2.05A32.81 32.81 0 0 1 23.5 20.7v.02a21.93 21.93 0 0 0-8.82 4.07c-.88.7-1.94 1.87-1.97 3.07-.06 1.82 2.06 2.64 3.5 2.89a16.25 16.25 0 0 0 5-.03 71.15 71.15 0 0 0 5.11-10.46l.02.01v.01c.33.88.7 1.73 1.12 2.57a61.16 61.16 0 0 0 2.72 4.8l.97-.6c.02-.02.03-.03.02-.06a69.98 69.98 0 0 1-5.03-11.65l.33-1.3.02-.02a.03.03 0 0 1 .03 0l.02.01c1.5 4.26 3.21 8.43 5.28 12.47.01.02.03.03.05.01 1.27-.91 3.03-2.92 1.91-4.6V21.84a.02.02 0 0 1 .02-.01c2.7 1.8.42 4.6-1.27 5.88-.02.01-.02.03-.01.04 1.19 2.25 2.5 4.23 3.92 5.95 2.34 2.8 5.68 5.49 9.57 4.4a10.16 10.16 0 0 0 4.42-2.95 121.37 121.37 0 0 0 .57-.59v.02c-1.47 2.16-3.62 3.98-6.27 4.35a6.58 6.58 0 0 1-4.16-.76c-2.16-1.18-3.99-3.1-5.47-5.06a43.94 43.94 0 0 1-3.26-4.9v.01l-.92.6c-.01 0-.02 0-.02.02v.02a102 102 0 0 0 4.96 7.07Zm-11.7-9.39-.85 1.58-1.49 2.49c-.01.02 0 .03.02.03 2.34-.4 4.59-1.12 6.74-2.14l1-.51c.01-.01.02-.03 0-.05a.2.2 0 0 0-.12-.11.34.34 0 0 0-.05-.21 64.38 64.38 0 0 1-3.07-5.65.03.03 0 0 0-.02.02 91.83 91.83 0 0 1-2.17 4.55Z" fill="#1D295A" /><path d="M29.46 27.83c-.46-.42-.85-.75-1.19-.98-.94-.67-2-.86-3.17-.56l-.95.25a91.87 91.87 0 0 0 2.2-4.57h.01l.02.02c.92 1.93 1.93 3.8 3.03 5.63.04.06.06.13.05.2Z" fill="#545454" /><path d="M29.46 27.83c.06.02.1.06.13.1 0 .03 0 .05-.02.06l-.99.5-.27-.23a3.82 3.82 0 0 0-4.47-.42l-.53.28.84-1.58c.34-.1.66-.17.95-.25a3.66 3.66 0 0 1 3.17.56c.34.23.73.56 1.2.98ZM35.86 35.93a14.82 14.82 0 0 0 4.17 2.92c.05.01.06.03.05.06l-.02.01h-.02c-3.09-.74-5.46-3.21-7.4-5.6l-3.04-3.76.73-.41a.04.04 0 0 1 .05 0 35.39 35.39 0 0 0 5.48 6.78Z" fill="#AAAAAB" /></svg>