<?xml version='1.0' encoding='utf-8'?>
<!-- by TradeStack -->
<svg width="56" height="56" viewBox="0 0 56 56" xmlns="http://www.w3.org/2000/svg"><path fill="#F0F3FA" d="M0 0h56v56H0z" /><path d="M29.1 11c.23.05.47.09.7.12 1.22.14 2.4.42 3.56.79a16.4 16.4 0 0 1 6.79 4.25 16.87 16.87 0 0 1 4.58 9.07c.11.6.18 1.33.27 2v1.75l-.2 1.43a18.45 18.45 0 0 1-1.67 5.3 17.18 17.18 0 0 1-7.62 7.55c-.99.5-2.11.9-3.38 1.23-1.1.28-2.17.45-3.19.49-1.27.05-2.45 0-3.53-.16a19.39 19.39 0 0 1-4.67-1.42 16.99 16.99 0 0 1-9.7-16.59 17.5 17.5 0 0 1 1.98-6.85 16.97 16.97 0 0 1 12.95-8.83c.2-.03.6-.05.89-.13h2.23Zm14.98 17.02a16.1 16.1 0 1 0-32.21 0 16.1 16.1 0 0 0 32.21 0Z" fill="#925A97" /><path d="M28.98 25.73c-.15 0-.23.08-.23.24v4.05c0 .14.07.21.22.22h.01c.15 0 .23-.07.23-.2v-1.35c0-.05.03-.07.08-.07h1.08a.1.1 0 0 1 .06.02l.03.06v1.32c0 .45-.28.69-.72.84-.55.2-1.12.19-1.7-.03-.62-.22-.64-.61-.64-1.17v-3.53c.01-.64.39-.98 1.06-1.09.33-.05.67-.05 1.02 0 .6.1.93.37.96.93a13.69 13.69 0 0 1 0 1.02l-.04.01h-1.08c-.03 0-.05 0-.06-.02a.07.07 0 0 1-.03-.05l-.01-1c0-.14-.08-.2-.24-.2ZM32.5 28.1h-.15a.09.09 0 0 0-.05.04.09.09 0 0 0-.02.05v2.73a.07.07 0 0 1-.07.08h-1.14a.07.07 0 0 1-.07-.07v-5.84c0-.02 0-.05.03-.06a.1.1 0 0 1 .06-.03h1.12c.02 0 .03 0 .05.02l.02.05v2.23a.11.11 0 0 0 .09.11.74.74 0 0 0 .26 0 .11.11 0 0 0 .1-.1v-2.24l.01-.05a.07.07 0 0 1 .05-.02h1.12a.1.1 0 0 1 .06.03c.02.01.03.04.03.06v5.84c0 .02-.02.04-.03.05a.07.07 0 0 1-.05.02h-1.14a.07.07 0 0 1-.05-.02.07.07 0 0 1-.02-.06V28.2l-.01-.05a.09.09 0 0 0-.05-.03.73.73 0 0 0-.15-.02ZM38.55 27.8c-.07-.16-.1-.15-.1.01v3.07c0 .08-.04.12-.13.12h-.84c-.01 0-.02 0-.03-.02l-.01-.03v-5.9a.04.04 0 0 1 .04-.05h1.6a.1.1 0 0 1 .05.02.1.1 0 0 1 .04.05c.07.27.1.6.16.84a962.97 962.97 0 0 1 .43 2.04c.07.13.11.13.14-.01l.5-2.87c0-.02 0-.03.02-.05a.08.08 0 0 1 .05-.01h1.62c.02 0 .04 0 .06.02l.02.06v5.85l-.01.04a.06.06 0 0 1-.04.02H41.1c-.06 0-.11-.03-.11-.1v-3.15s.02 0 .01-.01v-.01a.03.03 0 0 0-.03 0h-.02l-.01.02c-.09.25-.16.52-.22.82a157.14 157.14 0 0 1-.51 2.41.09.09 0 0 1-.06.02h-.73c-.06 0-.1-.03-.11-.08l-.65-2.72a2.35 2.35 0 0 0-.12-.4ZM37 30.37V30.98a.07.07 0 0 1-.05.02H34.5c-.02 0-.04 0-.05-.02a.06.06 0 0 1-.02-.05v-5.86c0-.02 0-.04.02-.05a.07.07 0 0 1 .05-.02h2.44c.02 0 .03 0 .05.02l.01.05v.57l-.01.04a.07.07 0 0 1-.05.02h-1.16l-.04.02a.06.06 0 0 0-.02.05v1.5c0 .02 0 .04.02.05l.04.02h1.03c.02 0 .03 0 .05.02l.02.04v.54l-.02.04a.07.07 0 0 1-.05.02h-1.02l-.05.02a.06.06 0 0 0-.02.05v2.17l.02.05.05.02h1.16c.02 0 .04 0 .05.02v.04Z" fill="#4E183C" /><path d="M20 29.92c0 .28-.12.56-.32.76-.21.2-.5.32-.79.32h-.78c-.3 0-.58-.11-.79-.32-.2-.2-.32-.48-.32-.76v-3.84c0-.28.12-.56.32-.76.21-.2.5-.32.79-.32h.78c.3 0 .58.11.79.32.2.2.32.48.32.76v3.84Zm-1.21-4a.23.23 0 0 0-.07-.16.25.25 0 0 0-.17-.07h-.08a.24.24 0 0 0-.17.07.23.23 0 0 0-.07.17v4.15c0 .06.02.12.07.17.04.04.1.07.17.07h.08c.06 0 .12-.03.17-.07.04-.05.07-.1.07-.17v-4.15ZM15 28.82v2.11c0 .02 0 .04-.02.05a.07.07 0 0 1-.05.02H13.9c-.12 0-.18-.05-.19-.16V25.3c0-.08.01-.15.03-.2 0-.03.02-.04.04-.05a13.47 13.47 0 0 1 1.57-.01c.74.04 1.49.07 1.5.98l-.01 1.75c-.02.46-.2.8-.7.9a5.67 5.67 0 0 1-1.12.12.05.05 0 0 0-.02.04Zm0-2.94v1.99a.1.1 0 0 0 0 .03.1.1 0 0 0 .06.05.1.1 0 0 0 .04.01h.07c.1 0 .2-.04.28-.11a.4.4 0 0 0 .12-.29l.01-1.38a.4.4 0 0 0-.12-.28.41.41 0 0 0-.28-.12h-.07a.1.1 0 0 0-.07.03.1.1 0 0 0-.03.07ZM22.11 30.33l1.1.02s.03 0 .04.02l.02.05v.49c0 .02-.01.05-.03.06a.1.1 0 0 1-.07.03h-2.32c-.02 0-.05 0-.07-.02a.11.11 0 0 1-.04-.06 1.06 1.06 0 0 1-.03-.3v-5.43c0-.1.06-.17.16-.17.35-.02.7-.02 1.07-.01.04 0 .06.04.06.09v4.84c0 .2.04.3.06.34.01.03.03.05.05.05ZM25.38 27.06l.03.02a.09.09 0 0 0 .1 0 .08.08 0 0 0 .02-.05l.65-1.95a.1.1 0 0 1 .04-.06.12.12 0 0 1 .06-.02h.97c.07 0 .1.03.07.09L26 28.55l-.01.09v2.3c0 .04-.03.06-.07.06h-1.14a.11.11 0 0 1-.08-.03.1.1 0 0 1-.03-.07l-.02-2.12c0-.28-.07-.63-.23-1.05l-.67-1.98c-.06-.2-.18-.47-.23-.69a.04.04 0 0 1 0-.03.04.04 0 0 1 .04-.02h.88c.21 0 .3-.03.36.17a31.82 31.82 0 0 0 .57 1.88Z" fill="#925A97" /></svg>