<?xml version='1.0' encoding='utf-8'?>
<!-- by TradeStack -->
<svg width="56" height="56" viewBox="0 0 56 56" xmlns="http://www.w3.org/2000/svg"><path fill="#F0F3FA" d="M0 0h56v56H0z" /><path d="M26.8 23.95a.22.22 0 0 0-.01.24c.87 1.45 2.32 4.04 2.67 4.67.05.08.14.14.23.14h1.19c.1 0 .15-.1.1-.2l-3.34-5.74a.12.12 0 0 0-.2 0l-.64.9ZM27.04 25.9c.06.09.07.2.01.3l-1.6 2.63a.33.33 0 0 1-.26.17h-1.07c-.1 0-.15-.1-.1-.2l2.2-3.76a.12.12 0 0 1 .2-.01l.62.88ZM6.8 23.95a.22.22 0 0 0-.01.24c.87 1.45 2.32 4.04 2.67 4.67.05.08.14.14.23.14h1.19c.1 0 .15-.1.1-.2l-3.34-5.74a.12.12 0 0 0-.2 0l-.64.9ZM7.04 25.9c.06.09.07.2.01.3l-1.6 2.63a.33.33 0 0 1-.26.17H4.12c-.1 0-.15-.1-.1-.2l2.2-3.76a.12.12 0 0 1 .2-.01l.62.88ZM22.2 28.05a.22.22 0 0 0 .01-.24c-.87-1.45-2.32-4.04-2.67-4.67a.27.27 0 0 0-.23-.14h-1.19c-.1 0-.15.1-.1.2l3.34 5.74c.04.08.15.08.2 0l.64-.9ZM21.96 26.1a.26.26 0 0 1-.01-.3l1.6-2.63c.05-.1.15-.17.26-.17h1.07c.1 0 .15.1.1.2l-2.2 3.76a.12.12 0 0 1-.2.01l-.62-.88Z" fill="#010101" /><path d="M7 30v.68L5.45 33H7v1H4v-.74L5.5 31H4v-1h3ZM10 30v4H9v-4h1ZM16 30v4h-1.18L13 31.5V34h-1v-4h1.2l1.8 2.5V30h1ZM20.49 30.5l-.55.78c-.27-.2-.56-.28-.85-.28-.52 0-1.09.38-1.09 1 0 .61.55 1 1.08 1 .33 0 .64-.1.95-.35l.52.78c-.38.38-.87.57-1.47.57-1.03 0-2.08-.74-2.08-2 0-1.27 1.07-2 2.1-2 .57 0 1.03.17 1.39.5ZM25.35 30v1H24v3h-1v-3h-1.35v-1h3.7ZM46.35 30v1H45v3h-1v-3h-1.35v-1h3.7ZM30 30v1h-2v.53h1.72v.87H28v.6h2v1h-3v-4h3ZM35.9 30 34 31.94 36 34h-1.5L33 32.22V34h-1v-4h1v1.67L34.5 30h1.4ZM40 30v3h2v1h-3v-4h1ZM52 31.99c0 1.28-1.04 2.01-2.25 2.01H48v-4h1.75c1.2 0 2.25.72 2.25 1.99ZM49.84 31H49v2h.84c.71 0 1.16-.35 1.16-1.01s-.45-.99-1.16-.99ZM29.77 21c-1.66 0-3.2 1.31-3.77 2 .67-.44 2.3-1.25 3.5-1.25 2.41 0 5.07 3.6 6.89 6.85.39.7 1.61.43 1.61-.37v-4.5c0-.4-.34-.73-.76-.73a.73.73 0 0 0-.74.74v2.08c-2-3.13-4.67-4.82-6.73-4.82Z" fill="#020780" /><rect x="46" y="23" width="6" height="1.5" rx=".75" fill="#010101" /><rect x="39" y="23" width="6" height="1.5" rx=".75" fill="#010101" /><path d="M46 25.75c0-.41.34-.75.75-.75h4.5a.75.75 0 1 1 0 1.5H47.5v1h3.75a.75.75 0 0 1 0 1.5h-4.4a.75.75 0 0 1-.85-.75v-2.5ZM40.5 25.7a.7.7 0 0 0-.73-.7c-.43 0-.77.31-.77.7v.66c0 1.46 1.3 2.64 2.89 2.64h2.23c.49 0 .88-.28.88-.72 0-.45-.4-.78-.88-.78h-2.19c-.77 0-1.43-.68-1.43-1.39v-.4ZM32.5 24l1.5 2.15V29h-1.5v-5ZM12 23.76c0-.42.36-.76.81-.76h1.99c1.77 0 3.2 1.34 3.2 3s-1.43 3-3.2 3h-1.94c-.48 0-.86-.36-.86-.8v-2.35c0-.43.28-.85.74-.85.46 0 .76.42.76.85v1.65h1.39c.87 0 1.61-.68 1.61-1.5s-.74-1.5-1.61-1.5H12.8c-.45 0-.81-.32-.81-.74Z" fill="#010101" /></svg>