<?xml version='1.0' encoding='utf-8'?>
<!-- by TradeStack -->
<svg viewBox="0 0 56 56" xmlns="http://www.w3.org/2000/svg"><path fill="#F0F3FA" d="M0 0h56v56H0z" /><path d="M23 19H9v3h13.15l-9.68 20h3.77L23 28.13V19z" fill="url(#a5w5yzjkg)" /><path d="M23 30.09V19h3v11.33C26 32.3 28.51 33 30 33c2.48 0 3.81-1.5 4-2.17V19h9.5a5.5 5.5 0 110 11H37v6h-3v-.74c-.69.42-3.02.67-4 .74-6.04 0-7.11-3.94-7-5.91zM37 27h6.5a2.5 2.5 0 000-5H37v5z" fill="#292264" /><defs><linearGradient id="a5w5yzjkg" x1="9" y1="30.5" x2="23" y2="30.5" gradientUnits="userSpaceOnUse"><stop stop-color="#8A611F" /><stop offset=".55" stop-color="#F4B600" /><stop offset="1" stop-color="#AC7511" /></linearGradient></defs></svg>