<?xml version='1.0' encoding='utf-8'?>
<!-- by TradeStack -->
<svg width="56" height="56" viewBox="0 0 56 56" xmlns="http://www.w3.org/2000/svg"><path fill="#F0F3FA" d="M0 0h56v56H0z" /><ellipse cx="18.46" cy="22.47" rx="1.58" ry="1.57" fill="#584B9D" /><ellipse cx="16.88" cy="27.28" rx="1.58" ry="1.57" fill="#584B9D" /><ellipse cx="17.72" cy="32.49" rx="1.58" ry="1.57" fill="#584B9D" /><ellipse cx="21.33" cy="36.62" rx="1.58" ry="1.57" fill="#584B9D" /><ellipse cx="25.78" cy="38.64" rx="1.58" ry="1.57" fill="#584B9D" /><circle cx="30.5" cy="38" r="1.5" fill="#584B9D" /><ellipse cx="35.41" cy="35.64" rx="1.58" ry="1.57" fill="#584B9D" /><ellipse cx="35.41" cy="21.88" rx="1.58" ry="1.57" fill="#584B9D" /><ellipse cx="39.42" cy="19.33" rx="1.58" ry="1.57" fill="#63CFD2" /><ellipse cx="33.54" cy="14.6" rx="1.58" ry="1.57" fill="#63CFD2" /><ellipse cx="26.22" cy="13.57" rx="1.58" ry="1.57" fill="#63CFD2" /><ellipse cx="19.75" cy="15.69" rx="1.58" ry="1.57" fill="#63CFD2" /><ellipse cx="14.46" cy="20.4" rx="1.58" ry="1.57" fill="#63CFD2" /><ellipse cx="12.58" cy="27.28" rx="1.58" ry="1.57" fill="#63CFD2" /><ellipse cx="13.42" cy="34.16" rx="1.58" ry="1.57" fill="#63CFD2" /><ellipse cx="17.72" cy="39.28" rx="1.58" ry="1.57" fill="#63CFD2" /><ellipse cx="24.19" cy="42.43" rx="1.58" ry="1.57" fill="#63CFD2" /><ellipse cx="31.96" cy="42.08" rx="1.58" ry="1.57" fill="#63CFD2" /><ellipse cx="38.28" cy="38.78" rx="1.58" ry="1.57" fill="#63CFD2" /><ellipse cx="31.96" cy="18.24" rx="1.58" ry="1.57" fill="#584B9D" /><ellipse cx="27.06" cy="17.26" rx="1.58" ry="1.57" fill="#584B9D" /><ellipse cx="22.07" cy="18.83" rx="1.58" ry="1.57" fill="#584B9D" /></svg>