<?xml version='1.0' encoding='utf-8'?>
<!-- by TradeStack -->
<svg width="56" height="56" viewBox="0 0 56 56" xmlns="http://www.w3.org/2000/svg"><path fill="#7CC2E0" d="M0 0h56v56H0z" /><path d="M28 45V11c-4 3.71-12 12.89-12 19.86 0 7.77 8 12.66 12 14.14Z" fill="#20975E" /><path d="M28 44.05V15.48C24.44 18.6 17.31 26.3 17.31 32.17c0 6.53 7.13 10.64 10.69 11.88Z" fill="#57B7DF" /><path d="M28 44.05v-24.1C25 22.6 19 29.1 19 34.04c0 5.5 6 8.98 9.01 10.02Z" fill="#CB7A17" /><path d="M28 44.05V25.63c-2.3 2.02-6.9 6.99-6.9 10.76 0 4.21 4.6 6.86 6.9 7.66Z" fill="#F7961D" /><path d="M28 42.54V28c-2 1.59-6 5.51-6 8.5 0 3.32 4 5.4 6 6.04Z" fill="#CEC52E" /><path d="M28 45V11c4 3.71 12 12.89 12 19.86 0 7.77-8 12.66-12 14.14Z" fill="#32BC76" /><path d="M28 44.05V16.61c3.33 3 10 10.4 10 16.03 0 6.27-6.67 10.22-10 11.41Z" fill="#B0E0E6" /><path d="M28 44.05V20.78c2.54 2.54 7.63 8.82 7.63 13.6 0 5.31-5.09 8.66-7.63 9.67Z" fill="#F8931B" /><path d="M28 42.54V28c1.58 1.59 4.75 5.51 4.75 8.5 0 3.32-3.17 5.4-4.75 6.04Z" fill="#F6ED33" /></svg>