<!-- by TradeStack --><svg viewBox="0 0 56 56" xmlns="http://www.w3.org/2000/svg"><path fill="#F0F3FA" d="M0 0h56v56H0z"/><path d="M36 25h1.5v1.06c.33-.7.93-1.06 1.68-1.06.9 0 1.51.36 1.82 1.09A2 2 0 0 1 42.9 25c1.47 0 2.1 1.18 2.1 2.51V31h-1.5v-3.63c0-.71-.23-1.37-1.03-1.37-.85 0-1.18.75-1.18 1.51V31h-1.5v-3.8c0-.65-.3-1.2-1-1.2-.87 0-1.29.7-1.29 1.49V31H36v-6ZM25 25h1.5v1.07c.35-.68 1.1-1.07 1.94-1.07.2 0 .38.04.56.09v1.41c-.25-.06-.5-.11-.76-.11-.9 0-1.74.54-1.74 1.48V31H25v-6Z" fill="#131A29"/><path fill-rule="evenodd" d="M21 25c-1.7 0-3 1.3-3 3s1.3 3 3 3 3-1.3 3-3-1.3-3-3-3Zm0 1.44c-.88 0-1.56.68-1.56 1.56s.68 1.56 1.56 1.56 1.56-.68 1.56-1.56-.68-1.56-1.56-1.56Z" fill="#131A29"/><path d="M12.48 28.5c.1.83.7 1.5 1.52 1.5.65 0 1.34-.37 1.75-.86l.98.72A3.56 3.56 0 0 1 14 31a2.9 2.9 0 0 1-3-3c0-1.79 1.28-3 3-3 2 0 3 1.43 3 3.1v.4h-4.52Zm3.04-1c-.02-.86-.58-1.5-1.52-1.5-.83 0-1.4.68-1.52 1.5h3.04ZM30.48 28.5c.1.83.7 1.5 1.52 1.5.65 0 1.34-.37 1.75-.86l.98.72A3.56 3.56 0 0 1 32 31a2.9 2.9 0 0 1-3-3c0-1.79 1.28-3 3-3 2 0 3 1.43 3 3.1v.4h-4.52Zm3.04-1c-.02-.86-.58-1.5-1.52-1.5-.83 0-1.4.68-1.52 1.5h3.04ZM8.5 30.07c-.4.67-.78.93-1.51.93C5.98 31 5 30.38 5 29.29c0-1.44 1.47-1.93 2.7-1.97a10 10 0 0 1 .8-.02v-.16c0-.7-.32-1.07-.98-1.07-.57 0-1.09.23-1.45.6l-.72-.75A3.09 3.09 0 0 1 7.67 25C9.29 25 10 26 10 27.57V31H8.5v-.93Zm0-1.77c-.32 0-.4 0-.73.02-.51.04-1.4.2-1.4.86 0 .51.5.82.95.82.82 0 1.18-.53 1.18-1.38v-.32ZM49.5 30.07c-.4.67-.78.93-1.51.93-1.01 0-1.99-.62-1.99-1.71 0-1.44 1.47-1.93 2.7-1.97a10 10 0 0 1 .8-.02v-.16c0-.7-.32-1.14-.98-1.14-.57 0-1.09.3-1.45.67l-.72-.75a3.09 3.09 0 0 1 2.32-.92c1.62 0 2.33 1 2.33 2.57V31h-1.5v-.93Zm0-1.77c-.32 0-.4 0-.73.02-.51.04-1.4.2-1.4.86 0 .51.5.82.95.82.82 0 1.18-.53 1.18-1.38v-.32Z" fill="#131A29"/></svg>