<?xml version='1.0' encoding='utf-8'?>
<!-- by TradeStack -->
<svg width="56" height="56" viewBox="0 0 56 56" xmlns="http://www.w3.org/2000/svg"><path fill="#F0F3FA" d="M0 0h56v56H0z" /><path fill-rule="evenodd" d="M40.02 40.02A16.38 16.38 0 0 0 45 28c0-4.7-1.66-8.7-4.98-12.02A16.38 16.38 0 0 0 28 11c-4.7 0-8.7 1.66-12.02 4.98A16.38 16.38 0 0 0 11 28c0 4.7 1.66 8.7 4.98 12.02A16.38 16.38 0 0 0 28 45c4.7 0 8.7-1.66 12.02-4.98Zm-13.15-24.9c.11-.05.16-.02.15.1a99.49 99.49 0 0 0-.23 7.53c0 .08.05.11.13.1 3.26-.7 6.18-.87 8.78-.53.77.1 1.45.3 2.02.62.79.43 1.03 1.04.74 1.83a3.43 3.43 0 0 1-1.42 1.68 15.57 15.57 0 0 1-5 2.09c-.09.02-.09.05 0 .08a41.67 41.67 0 0 1 8.16 4.73c.07.06.12.04.16-.04a15.01 15.01 0 0 0 1.23-8.53 14.64 14.64 0 0 0-3.73-7.75 14.06 14.06 0 0 0-6.38-4.05c-2.48-.78-5.01-.9-7.6-.35a14.18 14.18 0 0 0-6.1 2.92 14.87 14.87 0 0 0-5.24 14.27c.03.14.08.14.14.02 3.08-6.19 7.81-11.1 14.2-14.71Zm-9 10.9c2.04-.98 4.23-1.83 6.58-2.53a.2.2 0 0 0 .15-.18l.54-5.13c.01-.12-.03-.15-.13-.07a30.46 30.46 0 0 0-7.3 7.74c-.15.25-.1.3.17.18Zm10.43 2.54c-.16.05-.16.1 0 .16a23.8 23.8 0 0 1 5.64 3.03 14.9 14.9 0 0 1 4.3 4.54c.08.12.06.23-.03.33a15.18 15.18 0 0 1-6.07 4.19c-2.21.82-4.5 1.1-6.84.82a14.4 14.4 0 0 1-6.47-2.4 15.13 15.13 0 0 1-4.91-5.49.28.28 0 0 1 0-.26c1.86-3.77 5.34-6.56 10.44-8.37.07-.02.1 0 .1.08-.33 4.5-.38 8.89-.13 13.15 0 .1.06.17.17.19 1.14.22 2.25.3 3.34.25.1 0 .15-.06.13-.17a115.1 115.1 0 0 1-1.14-14.14c0-.08.03-.13.11-.14 4.34-.89 6.96-.94 7.86-.15.06.05.1.11.1.19.14 1.27-2.06 2.67-6.6 4.19Z" fill="#221F20" /></svg>