<!-- by TradeStack --><svg width="56" height="56" viewBox="0 0 56 56" xmlns="http://www.w3.org/2000/svg"><path fill="#F0F3FA" d="M0 0h56v56H0z"/><path fill-rule="evenodd" d="M8 35h2.5l1.13-3h6.75l1.12 3H22l-5.5-14h-3L8 35Zm9.63-5L15 23l-2.63 7h5.26Z" fill="#DF4E0F"/><path d="M11.49 31.8h7.02l1.13 3h2.07l-5.35-13.6h-2.72L8.29 34.8h2.07l1.13-3ZM10.5 35H8l5.5-14h3L22 35h-2.5l-1.13-3h-6.75l-1.12 3Zm7.41-4.8H12.1L15 22.43l2.91 7.77ZM15 23l-2.63 7h5.26L15 23Z" fill="#2F1305"/><path d="M40.5 25H38v6c0 2.5 1.5 4 3.5 4 1.6 0 2.67-1.33 3-2v2H47V25h-2.5v6c0 .67-.4 2-2 2s-2-1.33-2-2v-6Z" fill="#DF4E0F"/><path fill-rule="evenodd" d="M44.5 35H47V25h-2.5v6c0 .67-.4 2-2 2s-2-1.33-2-2v-6H38v6c0 2.5 1.5 4 3.5 4 1.36 0 2.33-.96 2.8-1.66l.2-.34v2Zm-6.3-9.8V31c0 1.21.36 2.16.95 2.8.58.65 1.4 1 2.35 1 .74 0 1.36-.3 1.85-.7.48-.4.82-.88.97-1.19l.38.09v1.8h2.1v-9.6h-2.1V31c0 .37-.1.9-.44 1.37-.33.47-.9.83-1.76.83-.87 0-1.43-.37-1.76-.83-.33-.46-.44-1-.44-1.37v-5.8h-2.1Z" fill="#2F1305"/><path d="M29 20.5v2s-.19-.5-1-.5-1.5.5-1.5 1v2H29v2h-2.5v8H24v-8h-2v-2h2v-2c0-2.5 2.5-3 3.5-3 .8 0 1.33.33 1.5.5Z" fill="#DF4E0F"/><path fill-rule="evenodd" d="M28.8 22.25c.15.12.2.25.2.25v-2c-.17-.17-.7-.5-1.5-.5-1 0-3.5.5-3.5 3v2h-2v2h2v8h2.5v-8H29v-2h-2.5v-2c0-.5.69-1 1.5-1 .4 0 .65.12.8.25Zm0-.25V20.6a2.16 2.16 0 0 0-1.3-.39 4.3 4.3 0 0 0-2.02.54c-.7.4-1.28 1.1-1.28 2.26v2.2h-2v1.6h2v8h2.1v-8h2.5v-1.6h-2.5V23c0-.34.23-.65.53-.85.31-.21.72-.35 1.17-.35.36 0 .61.09.8.2Z" fill="#2F1305"/><path d="M37 20.5v2s-.19-.5-1-.5-1.5.5-1.5 1v2H37v2h-2.5v8H32v-8h-2v-2h2v-2c0-2.5 2.5-3 3.5-3 .8 0 1.33.33 1.5.5Z" fill="#DF4E0F"/><path fill-rule="evenodd" d="M36.8 22.25c.15.12.2.25.2.25v-2c-.17-.17-.7-.5-1.5-.5-1 0-3.5.5-3.5 3v2h-2v2h2v8h2.5v-8H37v-2h-2.5v-2c0-.5.69-1 1.5-1 .4 0 .65.12.8.25Zm0-.25V20.6a2.16 2.16 0 0 0-1.3-.39 4.3 4.3 0 0 0-2.02.54c-.7.4-1.28 1.1-1.28 2.26v2.2h-2v1.6h2v8h2.1v-8h2.5v-1.6h-2.5V23c0-.34.23-.65.53-.85.31-.21.72-.35 1.17-.35.36 0 .61.09.8.2Z" fill="#2F1305"/></svg>