<!-- by TradeStack --><svg width="56" height="56" viewBox="0 0 56 56" xmlns="http://www.w3.org/2000/svg"><path fill="#F0F3FA" d="M0 0h56v56H0z"/><path d="M12 28c0-8.76 7.16-16 16-16v32c-8.84 0-16-7.24-16-16Z" fill="#5F5F5F"/><path d="M44 28c0-8.76-7.16-16-16-16v32c8.84 0 16-7.24 16-16Z" fill="#EAA802"/><path fill-rule="evenodd" d="M12 28.04h1a14.95 14.95 0 0 0 4.24 10.41l2.03-2.22a11.96 11.96 0 0 1-3.1-6.23H26v13h2.01L28 44h16V28h-1a15 15 0 0 0-15-15v-1H12v16.04ZM26 26v-9.83c-5.02.84-9 4.8-9.83 9.83H26Zm6 0h7.83c-.84-5.02-4.8-9-9.83-9.83v23.66c5.02-.84 9-4.8 9.83-9.83H32v-4Z" fill="#F0F3FA"/></svg>