<?xml version='1.0' encoding='utf-8'?>
<!-- by TradeStack -->
<svg width="56" height="56" viewBox="0 0 56 56" xmlns="http://www.w3.org/2000/svg"><path fill="#006A35" d="M0 0h56v56H0z" /><path d="M10.45 22h6.22L18 34h-4.97l-.06-2H9.5l-.9 2H4l6.45-12Zm2.42 2.63L10.85 29h2.05v-4.37h-.03ZM25.08 29.5l.5-2.5h6.18l-1.33 6.24c-1.96.46-4.19.76-6.15.76-4.32 0-5.86-2.51-5.09-6 .78-3.49 3.45-6 7.9-6 3.68 0 5.35 1.33 4.8 4h-4.44c.12-.7-.36-1-1.05-1-1.77 0-2.04 1.85-2.34 3.22-.25 1.13-.66 2.78 1.03 2.78.45 0 .9-.06 1.31-.24l.3-1.26h-1.62ZM43.28 28.5c4.13-.5 6.31-.38 7.4-.2l-.26 1.24a30.03 30.03 0 0 0-7.14-1.04Zm-5.02 3.26c1.76.04 6.14.35 11.26 2.1l-.03.14h-1.06A26.3 26.3 0 0 0 38 33l.26-1.24Zm3.2-2.82c3.25-.09 7.71 1.26 8.75 1.59l-.58 2.8c-1.2-.91-3.62-2.44-8.17-4.39Zm-2.61 0c1.35.27 3.81 1.01 7.85 3.1a23.72 23.72 0 0 0-8.17-1.56l.32-1.53ZM40.3 22H52l-.87 4.16c-3.77-.18-7.16 1.32-9.56 2.43l-.53.17-1.98-.8L40.3 22Zm2.74 6.18c5.68-1.84 7.51-1.36 7.92-1.34l-.13.73c-2.75-.37-5.55.04-7.8.6ZM32 34l2.44-12H39l-2.44 12H32Z" fill="#F0F3FA" /></svg>