<!-- by TradeStack --><svg width="56" height="56" viewBox="0 0 56 56" xmlns="http://www.w3.org/2000/svg"><path fill="#F0F3FA" d="M0 0h56v56H0z"/><path d="M18.97 21.92c.1-.2.38-.68.73-.98.45-.37.93-.62 1.02-.59.07.03.8-.12 1.15-.2l.3-.68 1.38.26a6.26 6.26 0 0 1-.5-1l2 1.13 1.87.29c.29.26.9 1.05 1.1 2.13.18-1.08.8-1.87 1.09-2.13l1.87-.3 2-1.13c.06-.02-.31.66-.5 1.01l1.38-.26.3.68c.35.08 1.07.23 1.15.2.09-.03.56.22 1.01.6.36.29.64.77.74.97h-.57c-.03 0-.22-.13-.45-.3-.4-.29-.94-.68-1.12-.68a3.1 3.1 0 0 1-.78-.33 3.9 3.9 0 0 0-1.16-.46c-.34 0-.93-.2-1.18-.3a7.3 7.3 0 0 0-2.23 1.1 9.38 9.38 0 0 0-1.55 1.38v.02-.01l-.02.01v-.02a9.38 9.38 0 0 0-1.54-1.39 7.3 7.3 0 0 0-2.23-1.08c-.26.1-.84.29-1.19.29-.24 0-.72.24-1.15.46a3.1 3.1 0 0 1-.79.33c-.17 0-.72.4-1.12.68-.23.17-.41.3-.45.3h-.56Z" fill="#71664D"/><path fill-rule="evenodd" d="M31.41 20.05c-.73.09-2.44.26-3.41.26-.97 0-2.68-.17-3.41-.26V18.2c-1.75-1.76-1.65-5.54-1.39-7.2a4.85 4.85 0 0 0-2.14 4.54L19.6 12.7c-.62 1.1-.52 3.2-.4 4.12l-1.52-1.7c-.57 1 .07 2.88.46 3.69l-1.88-.98c-.32 1.35.64 2.4 1.16 2.76l-1.16.11c.33 1.53 2.1 1.6 2.95 1.46a7.52 7.52 0 0 0-1.74 4.86c0 1.1.18 2.62.27 3.24l-.17.37a3.84 3.84 0 0 0-.61-2.4l-.7 1.61c-.15-.89-1.22-1.73-1.74-2.04a5.03 5.03 0 0 0 .44 3.27c-.85-.67-1.66-.64-1.96-.54-.04 1.34 1.05 2.14 1.6 2.37l-1.4.33c.69 1.2 1.7 1.64 2.1 1.71l-.87.57c1.2 1.08 2.35 1.18 2.78 1.1l-1.58.9a4.9 4.9 0 0 0 2.43.88l-.85.8a6.2 6.2 0 0 0 2.75.33l-.6 1c.69.25 1.55.27 1.89.24 1.63 1.32 3.96.33 3.96.11 0-.16 1.44-.07 2.16 0l-1.59-1.9-1.4-1.46-3.13-2.76v-.44a7 7 0 0 1-1.3-2.1v-.23a6.82 6.82 0 0 1-.86-3.3l.26-.34c-.05-.56-.09-1.74.15-1.95.17-.15.54-.14.84-.08a15.62 15.62 0 0 0-.29 3.05c0 1.36.3 2.34.7 3.13.34.68.76 1.2 1.14 1.67l.18.22a41.61 41.61 0 0 0 3.03 3.11l.67.66a28.3 28.3 0 0 1 .56.58l.08.12a10.68 10.68 0 0 0 .55.77l.91 1.23.11.15.12-.14c.54-.64 1.4-1.64 2.24-2.58.85-.94 1.68-1.8 2.14-2.17a9.19 9.19 0 0 0 3.66-7.22 8.9 8.9 0 0 0-.38-2.6c.28-.04.59-.04.74.1.24.21.2 1.39.15 1.95l.26.34c0 .65-.17 2.22-.87 3.3v.23a7 7 0 0 1-1.29 2.1v.44l-3.13 2.76-1.4 1.45-1.6 1.91c.73-.07 2.17-.16 2.17 0 0 .22 2.33 1.21 3.96-.11.34.03 1.2.01 1.9-.25l-.6-1c.38.08 1.47.1 2.74-.32l-.85-.8a4.9 4.9 0 0 0 2.43-.88l-1.58-.9c.43.08 1.59-.02 2.78-1.1l-.88-.57a3.42 3.42 0 0 0 2.11-1.71l-1.4-.33c.55-.23 1.64-1.03 1.6-2.37-.3-.1-1.1-.13-1.96.54.3-.56.78-1.99.44-3.27-.52.3-1.6 1.15-1.74 2.04l-.7-1.6a3.84 3.84 0 0 0-.61 2.39l-.17-.37c.1-.62.27-2.13.27-3.24 0-1.38-.27-2.92-1.74-4.86.85.15 2.62.07 2.95-1.46l-1.16-.11c.52-.36 1.48-1.41 1.16-2.76l-1.88.98c.4-.81 1.03-2.68.46-3.7l-1.53 1.7c.13-.9.23-3-.39-4.1l-1.46 2.83c.12-1-.14-3.3-2.14-4.54.26 1.66.36 5.44-1.39 7.2v1.85Zm-6.82 4.1c-.67-.65-.28-1.81 0-2.32l3.41.46c0-.14.63-1.34 1.85-1.34.97 0 1.45.59 1.56.88.28.5.67 1.67 0 2.32-.66.64-1.22.74-1.42.7-.13.06-.54 0-1.12-.7-.57-.7-.82-.96-.87-1-.05.04-.3.3-.87 1-.58.7-.99.76-1.12.7-.2.04-.76-.06-1.42-.7Zm10.88 2.2-.15.04c-.68-1.84-1.94-2.3-2.48-2.24-.08.69-.61 1.91-1.84 1.91-.5 0-.88.05-1.18.1-.45.05-.72.08-.95-.1-.3-.24-.7-1.12-.87-1.53-.16.4-.57 1.29-.87 1.53-.23.18-.5.15-.95.1-.3-.05-.68-.1-1.18-.1-1.23 0-1.76-1.22-1.84-1.91-.54-.05-1.8.4-2.48 2.24l-.05-.02a15.33 15.33 0 0 0-.28 2.98 6.42 6.42 0 0 0 1.77 4.62l.18.22a41.54 41.54 0 0 0 3 3.09 211.51 211.51 0 0 1 1.26 1.26.31.31 0 0 1 .04.05v.01l.01.02a2.45 2.45 0 0 0 .18.25 49.66 49.66 0 0 0 1.2 1.66c.55-.64 1.35-1.57 2.13-2.45.85-.94 1.69-1.82 2.18-2.2a8.89 8.89 0 0 0 3.55-6.99 8.6 8.6 0 0 0-.38-2.54Zm-12.3-10.68a7.34 7.34 0 0 1-.24-3.47c-.31.6-.8 2.19-.26 3.65a9.17 9.17 0 0 0 1.77 2.97v-.48c-.22-.2-.79-.99-1.27-2.67Zm-2.3.03-1.25-2.19c-.06.63.04 2.15.9 3.26.87 1.14 1.98 1.92 2.4 2.22l.17.12c-.1-.11-.93-.94-1.32-1.4a7.57 7.57 0 0 1-.9-2.01Zm1.26 4.32c.23.11-2.68-2.71-4.17-4.13.13.55.6 1.82 1.34 2.5.83.76 2.16 1.34 2.67 1.56l.16.07Zm-3.59-.65-2.14-1.1c.23.3.87 1.06 1.65 1.65.84.62 1.82.77 2.14.82l.1.02c.05.02-1.14-.92-1.75-1.4Zm21.5 12.27c0 .17.91-2.14 1.37-3.32-.16.1-.59.46-1.08 1.17-.5.72-.37 1.58-.31 1.98l.02.17Zm-1.01.71c0-.35-.39-1.04-.58-1.34l.2 2.72c.13-.31.38-1.03.38-1.38Zm3.1.94c-1.02.35-3 1.01-2.82.88l.25-.22c.34-.31.89-.8 1.27-.9.42-.1 1.04.12 1.3.24Zm-4.8-.6.49 2.3c-.17-.09-.52-.4-.6-.9-.07-.48.04-1.13.1-1.4Zm-1.1 3.9-.1-2.5c.16.28.5.95.5 1.4 0 .44-.27.92-.4 1.1Zm2.43-1.01 2.3-.06a1.48 1.48 0 0 0-.94-.48c-.45-.03-1.1.35-1.36.54Zm-.42 3.32-3.05-.52a4.16 4.16 0 0 1 1.58-.33c.35.09 1.12.6 1.47.85Zm-1.27-1.65h2.55c-.29-.2-.96-.59-1.3-.57a3.8 3.8 0 0 0-1.25.57Zm-.74 3.08-2.32-1.05c.34-.04 1.1-.08 1.46.08.36.16.72.71.86.97Zm-4.65-.29 2.41.3c-.23-.26-.77-.78-1.04-.82-.25-.04-.82.25-1.14.42l-.23.1Zm2.6-3.6a33.1 33.1 0 0 0-1.04 2.31c.32-.24 1-.81 1.11-1.13.12-.31 0-.92-.06-1.18Zm-4.98 4.2 1.36-1.32c.06.2.1.65-.18.95-.28.3-.9.36-1.18.36Zm13.23-9.61-2.18 1.02c.2-.24.77-.77 1.34-1.02.57-.26.8-.11.84 0Zm-26.37.61c0 .17-.91-2.14-1.37-3.32.16.1.59.46 1.08 1.17.5.72.37 1.58.31 1.98l-.02.17Zm1.01.71c0-.35.39-1.04.58-1.34l-.2 2.72a5.23 5.23 0 0 1-.38-1.38Zm-3.1.94c1.02.35 3 1.01 2.82.88a4.22 4.22 0 0 1-.25-.22c-.34-.31-.89-.8-1.27-.9-.42-.1-1.04.12-1.3.24Zm4.8-.6-.49 2.3c.17-.09.52-.4.6-.9.07-.48-.04-1.13-.1-1.4Zm1.1 3.9.1-2.5c-.16.28-.5.95-.5 1.4 0 .44.27.92.4 1.1Zm-2.43-1.01-2.3-.06c.13-.15.49-.45.94-.48.45-.03 1.1.35 1.36.54Zm.42 3.32 3.06-.52a4.16 4.16 0 0 0-1.6-.33 6.8 6.8 0 0 0-1.46.85Zm1.27-1.65h-2.55c.29-.2.96-.59 1.3-.57.33.02.97.39 1.25.57Zm.74 3.08 2.32-1.05a3.67 3.67 0 0 0-1.46.08c-.35.16-.72.71-.86.97Zm4.65-.29-2.4.3c.23-.26.76-.78 1.03-.82.25-.04.82.25 1.14.42l.23.1Zm-2.6-3.6c.05.01.71 1.55 1.04 2.31-.32-.24-1-.81-1.11-1.13-.11-.31 0-.92.07-1.18Zm4.99 4.2-1.37-1.32c-.06.2-.1.65.18.95.28.3.9.36 1.19.36Zm-13.23-9.61 2.17 1.02a4.6 4.6 0 0 0-1.34-1.02c-.57-.26-.8-.11-.83 0Zm19.5-18.83c.12.46.24 1.79-.24 3.47-.48 1.68-1.04 2.48-1.27 2.67v.48a9.17 9.17 0 0 0 1.78-2.97 4.97 4.97 0 0 0-.27-3.65Zm3.31 1.31-1.25 2.19c-.16.5-.55 1.6-.9 2.01-.38.46-1.21 1.29-1.32 1.4-.02.01-.01.01 0 0l.16-.12c.43-.3 1.55-1.08 2.42-2.22.85-1.1.95-2.63.9-3.26Zm1.66 2.38c-1.48 1.42-4.4 4.24-4.16 4.13l.16-.07c.5-.22 1.83-.8 2.66-1.56a5.65 5.65 0 0 0 1.34-2.5Zm1.56 2.37-2.14 1.1c-.6.48-1.8 1.42-1.75 1.4l.1-.02c.32-.05 1.3-.2 2.14-.82a8.93 8.93 0 0 0 1.65-1.66Z" fill="#71664D" fill-opacity=".4"/><path d="M28.4 12.8a.63.63 0 0 0-.37-1.13.63.63 0 0 0-.37 1.13c-.3-.04-.57-.11-.66-.21-.2-.2-.44-.68-.54-.9l-.63 1.28c-.63.34-1.87 1.38-1.87 2.8s.55 1.82.82 1.84v1.54c.45.16 1.57.47 2.75.53h1c1.17-.06 2.3-.37 2.74-.53V17.6c.28-.02.83-.42.83-1.84 0-1.42-1.25-2.46-1.87-2.8l-.64-1.28c-.1.22-.35.7-.54.9-.1.1-.36.17-.65.21Z" fill="#71664D" fill-opacity=".4"/><path fill-rule="evenodd" d="M27.94 21.93h.26v5.08c.08.11.1.24.1.35 0 .09-.04.22-.1.36v3.82c.09.19.24.56.22.71 0 .1-.11.21-.22.28v.65h6.63c-.15.28-.5.9-.67 1.12-.17.23-.65.7-.86.9v-1.77h-1.38v2.88l-1.47 1.61v-4.5h-1v5.64l-1.35 1.65-.3-.29v-5.87a11 11 0 0 1-.12-.02c-.27-.04-.52-.09-.52.03 0 .14-.48.9-.87.88-.3-.03-.35-.4-.4-.68a1.93 1.93 0 0 0-.03-.2 2.07 2.07 0 0 1-.04-.24c-.03-.2-.05-.38-.17-.4l-.2-.03c-.24-.04-.6-.1-.72-.04-.09.04-.1.05-.13.11a1.8 1.8 0 0 1-.24.36c-.33.42-.88.6-1 .62-.1.04-.24.62.12.72.36.1.77.35.76.56-.02.2-.36.78-1.11 0-.75-.78-1.13-1.3-.82-1.55l.03-.02c.3-.24.76-.59.63-.8l-.3-.58a1.55 1.55 0 0 1-1.34-1.58c0-.3.01-.99.17-1.27.2-.35.18-1.01-.1-1.36-.23-.27-.45-.32-.53-.32-.05.29-.2.86-.4.89-.2.03-.48-.06-.6-.1.01-.1.16-1.1 1-1.1.83 0 1.11.95 1.11 1.54 0 .28-.06.5-.13.73a3.3 3.3 0 0 0-.16.99 1 1 0 0 0 .93 1.05c.16 0 .2-.08.25-.21.05-.1.1-.25.26-.4.33-.36.77-.9.63-1.08-.12-.15-.47-.01-.63.08v-.96l-.63.3.17-1.32-.46.2.3-.77h-.53c.07-.08.23-.29.33-.5.1-.22-.02-.43-.1-.5-.14-.03-.42-.09-.36-.1.07 0 .5-.26.57-.38.08-.13.5-.7 1.18-.7.53 0 .86.32.96.48h.6c.05.08.18.27.14.42a2 2 0 0 1-.2.47l-.37.15.2.15c.07.1.22.3.12.35-.1.05-.37.13-.5.16.27.19.87.54 1.1.48a2.4 2.4 0 0 0 1.2-.64c.27-.31.46-.7.53-.85 0-.25.06-.75.4-.75.05 0 .1 0 .16.02v-4.9ZM26.4 29.8c.35-.33 1.4-1.35 1.54-1.57v3.16h-.13c-.16-.01-.33-.02-.43-.04-.2-.05-.5-.22-.53-.48-.03-.2.34-.23.53-.22a.98.98 0 0 0-.5-.18c-.36-.06-.65-.5-.59-.56l.11-.1Zm1.16 2.53c.18.14.33.26.38.28v.78c-.12.04-.38.1-.56.1-.23 0-.41.53-.42.61-.01.06-.28.03-.4 0 .02-.12.12-.42.29-.61.21-.24.33-.54.3-.68-.01-.13-.73-.2-1.12-.2-.3 0-.56-.1-.65-.17.27-.07.72-.64.91-.9.04.02.17.1.35.15.14.04.58.38.92.64Zm2.79.57h-1.93v-.23h.93l.56-1.75c-.64.05-1.17.35-1.36.5.13-.31.6-.87 1.55-1.08l.97-3 1.18-1.92 2.1 5.3c.77-.1 1.33-.4 1.55-.58-.16.35-.58.93-1.27 1.26l.47 1.18-.1.32h-2.83v-.23h1.06l-.43-1.09c-.59-.08-1.06-.24-1.48-.39-.44-.14-.82-.28-1.2-.28l-.58 1.76h.8v.23Zm-.04-2.6a5.31 5.31 0 0 1 2.02.13L31.2 27.6l-.89 2.7Z" fill="#71664D"/><path fill-rule="evenodd" d="m24.4 42.86.4-.08.18-.41.36-.12.12.4c.18 0 .54.03.52 0l-.75-1.45-.82 1.66Zm.88-.84-.05-.2c0-.01-.06.1-.13.27l.18-.07Zm1.87-.13h-.5V42h.1c-.01.07-.08.2-.21.2-.14 0-.14-.2-.12-.31.04-.15.14-.43.23-.43.08 0 .17.12.2.19h.3c-.07-.44-.36-.44-.44-.44h-.01c-.07 0-.54.02-.64.44-.1.42 0 .82.48.82.38 0 .52-.24.54-.37l.07-.21Zm.35-.06c-.04.2 0 .62.47.62s.6-.37.6-.55c0-.22-.09-.67-.49-.67s-.55.4-.58.6Zm.37 0c-.01.12 0 .35.14.35s.18-.2.18-.3c0-.13-.02-.38-.15-.38-.12 0-.16.22-.17.33Zm1.16.48v-1.06h.44c.26 0 .44.17.44.45 0 .23-.2.37-.3.41l.35.52-.3-.09-.35-.23.06.15-.61-.05.27-.1Zm.26-.34v-.4c.03-.03.1-.1.17-.1.08 0 .13.05.13.22 0 .14-.2.25-.3.28Zm1.84.81.4.08-.82-1.66-.75 1.44c-.02.04.34.02.52 0l.11-.39.37.12.17.41Zm-.42-.96-.05.2.18.07a1.96 1.96 0 0 0-.13-.27Z" fill="#6F6651"/><path opacity=".5" fill-rule="evenodd" d="M23.75 42.4v-1.18l1.77-.4h4.98l1.77.4v1.17l2.17-1.17-.92 1.69 1.36.54c-.42.19-1.5.55-2.5.55-1.01 0-1.88-.23-2.2-.34v-.55a8.25 8.25 0 0 0-2.17-.27c-1.1.01-1.9.18-2.17.27v.55c-.31.11-1.18.34-2.19.34-1 0-2.08-.36-2.5-.55l1.35-.54-.91-1.7 2.16 1.18Zm4.26.1h-.13v.01c-.83.03-2.4.18-3.63.68V41.5c.33-.17 1.48-.53 3.52-.53h.48c2.04 0 3.2.36 3.52.53v1.69c-1.22-.5-2.8-.65-3.63-.68h-.13Zm-4.17.62c-.36.04-.82.41-1.01.6h1.21c.67 0 1.26-.2 1.47-.3h-1.67v-.3Zm8.34 0c.36.04.83.41 1.02.6h-1.22c-.66 0-1.25-.2-1.47-.3h1.67v-.3Z" fill="#71664D"/></svg>