<!-- by TradeStack --><svg width="56" height="56" viewBox="0 0 56 56" xmlns="http://www.w3.org/2000/svg"><path fill="#F0F3FA" d="M0 0h56v56H0z"/><path d="M36 30.5c-.46-.08-.9-.63-.9-1 0-.5.5-2.5 1-2.5s1 2 1 2.5c0 .47-.44.93-.9 1V32H36v-1.5Z" fill="url(#ajq1bzvk0)" fill-opacity=".7"/><path d="M15.5 25h-2l.5.5v6l-.5.5h2l-.5-.5v-6l.5-.5ZM18.5 25h-2l.5.5v6l-.5.5h2l-.5-.5V27l3.5 4.5-.5.5h2.5l-.5-.5v-6l.5-.5h-2l.5.5v5l-4-5 .5-.5ZM26.5 25h-2l.5.5v6l-.5.5h2l-.5-.5V27l3.5 4.5-.5.5h2.5l-.5-.5v-6l.5-.5h-2l.5.5v5l-4-5 .5-.5Z" fill="#24211D"/><path fill-rule="evenodd" d="M38 28.5c0-1.36-.48-2.5-2-2.5s-2 1.14-2 2.5c0 1.47.37 2.5 2 2.5 1.56 0 2-1.1 2-2.5ZM36 32c2.34 0 3-1.57 3-3.5s-.75-3.5-3-3.5-3 1.57-3 3.5.5 3.5 3 3.5Z" fill="#FFD71C"/><path d="M7 25H4l1 .5v6L4 32h3l-1-.5v-4L8 32l2-4.5v4L9 32h3l-1-.5v-6l1-.5H9l1 .5L8 30l-2-4.5 1-.5ZM41 25h-2l.5.5 2.5 6-.5.5h2l-.5-.5 2.5-6 .5-.5h-2l.5.5-2 4.5-2-4.5.5-.5Z" fill="#24211D"/><path fill-rule="evenodd" d="M45 32h2l-.5-.5.67-1.5h2.66l.67 1.5-.5.5h2l-.5-.5-2.5-6 .5-.5h-2l.5.5-2.5 6-.5.5Zm4.39-3-.89-2-.89 2h1.78Z" fill="#24211D"/><defs><linearGradient id="ajq1bzvk0" x1="36" y1="26" x2="36" y2="31" gradientUnits="userSpaceOnUse"><stop stop-color="#7C816D"/><stop offset=".31" stop-color="#A8AB9E"/><stop offset=".59" stop-color="#60664E"/><stop offset="1" stop-color="#2D2F1B"/></linearGradient></defs></svg>