<?xml version='1.0' encoding='utf-8'?>
<!-- by TradeStack -->
<svg width="56" height="56" viewBox="0 0 56 56" xmlns="http://www.w3.org/2000/svg"><path fill="#F0F3FA" d="M0 0h56v56H0z" /><path d="M5.34 30H4l2.63-6h1.18l2.63 6H9.1l-.43-1h-2.9l-.43 1Zm.86-2h2.04l-1.02-2.4L6.2 28Z" fill="#8DC641" /><path fill-rule="evenodd" d="M14 29.3c-.39.43-.96.7-1.6.7-1.15 0-2.1-.9-2.1-2s.95-2 2.1-2c.64 0 1.21.27 1.6.7V26h1.5v3.8c0 1.73-1.45 2.2-2.82 2.2-1.1 0-1.86-.33-2.1-.5l.45-.97a3 3 0 0 0 1.57.45c1.09 0 1.39-.61 1.4-.92v-.75Zm-.03-1.3c0 .56-.51 1.02-1.14 1.02-.64 0-1.15-.46-1.15-1.02s.51-1.02 1.15-1.02c.63 0 1.14.46 1.14 1.02Z" fill="#8DC641" /><path d="M17.5 26H16v5h1.5v-2.8c.38-.69 1.09-.77 1.5-.7V26c-.82 0-1.27.33-1.5.68V26ZM21.5 24H20v1.5h1.5V24Zm0 2H20v5h1.5v-5Z" fill="#8DC641" /><path d="M23 24h4.45v.75h-3.7v2.5H27v.76h-3.25V31H23v-7Z" fill="#625D5F" /><path fill-rule="evenodd" d="M31.25 31c1.8 0 3.25-1.57 3.25-3.5S33.04 24 31.25 24c-1.8 0-3.25 1.57-3.25 3.5s1.46 3.5 3.25 3.5Zm0-.66c1.38 0 2.5-1.27 2.5-2.84 0-1.57-1.12-2.84-2.5-2.84s-2.5 1.27-2.5 2.84c0 1.57 1.12 2.84 2.5 2.84ZM35 31v-7h3.23a2.1 2.1 0 0 1 2.06 2.15c0 1.07-.75 1.95-1.73 2.12L40.5 31h-.9l-1.9-2.7h-1.94V31H35Zm.72-6.29h2.54c.75 0 1.36.64 1.36 1.42 0 .78-.6 1.41-1.36 1.41h-2.54v-2.83Z" fill="#625D5F" /><path d="M46.52 29.82A3.02 3.02 0 0 1 44.16 31C42.4 31 41 29.43 41 27.5s1.41-3.5 3.16-3.5a3 3 0 0 1 2.26 1.06l-.45.48a2.4 2.4 0 0 0-1.81-.85c-1.4 0-2.54 1.26-2.54 2.81s1.14 2.8 2.54 2.8c.76 0 1.45-.37 1.91-.96l.45.48Z" fill="#625D5F" /><path fill="#FBB042" d="M47 24h5v.7h-5z" /><path fill="#8DC641" d="M47 27h5v.7h-5z" /><path fill="#23A8E3" d="M47 30h5v.7h-5z" /></svg>