<!-- by TradeStack --><svg width="56" height="56" viewBox="0 0 56 56" xmlns="http://www.w3.org/2000/svg"><path fill="#F0F3FA" d="M0 0h56v56H0z"/><path fill-rule="evenodd" d="m7 26 1.9-6h1.42L12 25.31V20h1v6H11.07l-.3-1H8.46l-.29 1H7Zm1.75-2h1.73l-.86-2.95L8.75 24ZM15 20h-1v6h1v-6Zm4.39 4.25V24c0-1.1-.59-2-1.9-2-1.2 0-1.89.9-1.89 2s.74 2 1.9 2c1.14 0 1.67-.57 1.84-1.37h-.9c-.13.36-.4.6-.89.6-.53 0-.88-.42-.96-.98h2.8Zm-1.84-1.48c.52 0 .83.33.94.8h-1.87c.12-.47.45-.8.93-.8ZM20 22h1v.57a.95.95 0 0 1 .89-.57c.2 0 .38.06.44.09v.89c-.08-.03-.3-.08-.51-.08-.62 0-.8.56-.82.84V26h-1v-4Zm6.11 0h.96l.9 2.55c.32-.85.7-1.91.92-2.55H30l-1.65 3.98c-.1.31-.5.95-1.47 1.02h-.6v-.75c.3.04.94 0 1.19-.47l.03-.06-1.3-3.22v.19h-.5c.12.17.18.37.18.59 0 .7-.74 1.27-1.65 1.27-.25 0-.49-.04-.7-.12-.07.06-.14.14-.14.24 0 .18.23.32.34.33h1.15c1.15 0 1.29.49 1.29.82 0 .34-.02 1.18-1.92 1.18-1.52 0-1.78-.7-1.71-1.04l.25-.47a.76.76 0 0 1-.29-.57c0-.38.25-.68.44-.84a1.1 1.1 0 0 1-.36-.8c0-.7.74-1.28 1.65-1.28.46 0 .88.15 1.19.39.04-.11.2-.32.58-.38h.11Zm-1.85 1.86c.38 0 .68-.26.68-.58 0-.33-.3-.59-.68-.59-.38 0-.68.26-.68.59 0 .32.3.58.68.58Zm-.76 1.83h1.24c.14 0 .44.08.44.33 0 .32-.5.38-.95.38-.45 0-.86-.12-.86-.42 0-.14.09-.25.13-.29Z" fill="#0D0D0D"/><path fill="#F36" d="M6 35h45v1H6z"/><path d="M6.5 27.98V27h4v.98H9V33H8v-5.02H6.5ZM18.69 31v.25H15.86c.09.56.45.98.97.98.5 0 .76-.24.89-.6h.9c-.17.8-.7 1.37-1.84 1.37-1.16 0-1.9-.9-1.9-2s.7-2 1.9-2c1.3 0 1.9.9 1.9 2Zm-.91-.43c-.11-.47-.41-.8-.94-.8-.48 0-.8.33-.93.8h1.87Zm15.58.68V31c0-1.1-.59-2-1.9-2-1.2 0-1.89.9-1.89 2s.74 2 1.9 2c1.14 0 1.67-.57 1.84-1.37h-.9c-.13.36-.4.6-.89.6-.53 0-.88-.42-.96-.98h2.79Zm-1.84-1.48c.52 0 .83.33.94.8h-1.87c.12-.47.45-.8.93-.8ZM45.02 33c1.32 0 1.87-.7 1.98-1.61h-1c-.1.46-.36.8-.93.8-.6 0-.97-.53-.97-1.19 0-.66.36-1.19.97-1.19.52 0 .82.34.92.8h1c-.13-.91-.76-1.61-1.98-1.61-1.27 0-2.01.9-2.01 2s.78 2 2.01 2ZM11 33v-6h1.02v2.55c.15-.21.62-.55 1.3-.55 1.05 0 1.35.9 1.36 1.38V33h-1.02v-2.26c.02-.3-.1-.9-.73-.9-.67 0-.84.66-.9.85V33H11Zm26 0h1v-4h-1v2.4l-.02.04c-.08.17-.35.75-1.08.75-.68 0-.92-.53-.9-.8V29h-1v2.72c.02.42.34 1.28 1.47 1.28.74 0 1.37-.37 1.53-.55V33Zm-15.46-2.72c-.02-.43.3-1.28 1.76-1.28 1.47 0 1.74.98 1.7 1.47V33h-1v-.46c-.22.21-.63.46-1.23.46-1 0-1.27-.65-1.27-1.07 0-.42.12-1.36 2.5-1.39v-.07c.04-.26.03-.79-.7-.79-.72 0-.87.4-.85.6h-.91Zm2.46.86-.23-.02c-.19 0-1.2.07-1.2.72 0 .6.99.56 1.43.02v-.72ZM25.5 29h.98v.62c.3-.38.74-.62 1.3-.62 1.19 0 1.72.9 1.72 2s-.55 2-1.73 2c-.56 0-1-.23-1.3-.6V34h-.97v-5Zm.98 1.84v.32c.05.57.4 1.02 1 1.02.7 0 1.02-.53 1.02-1.18 0-.65-.31-1.18-1.01-1.18-.58 0-.96.45-1.01 1.02ZM39 29v2.92c0 .6.4 1.08.9 1.08H41v-1h-.63a.38.38 0 0 1-.37-.4V29h1v-1h-1v-1h-1v1h-.62v1H39Zm2.5-2h1v1h-1v-1Zm0 2h1v4h-1v-4Zm8.53 1.27h.9c.03-.52-.4-1.27-1.68-1.27-1.28 0-1.58.7-1.58 1.14 0 .37.14.59.2.66.27.33.7.42 1.15.5l.43.1c.46.12.56.35.55.45 0 .37-.45.46-.68.46-.72 0-.84-.45-.8-.68h-.94c0 .8.56 1.37 1.8 1.37 1.22 0 1.62-.6 1.62-1.23s-.48-.92-.76-1l-.04-.01c-.28-.08-.67-.19-1.12-.28-.38-.09-.45-.28-.44-.37 0-.14.13-.42.66-.42.63 0 .75.39.73.58ZM19 33v-4h1v.58c.1-.27.53-.75 1.38-.52V30c-.45-.14-1.38-.18-1.38.8V33h-1Z" fill="#0D0D0D"/></svg>