<!-- by TradeStack --><svg width="56" height="56" viewBox="0 0 56 56" xmlns="http://www.w3.org/2000/svg"><path fill="url(#abh3nkaes)" d="M0 0h56v56H0z"/><path d="M28.77 24.3c0-.18.19-.48.27-.55-.33 0-1 .11-1 .56 0 .56.3.7 1 .7s1.78-.41 1.78-1.26c0-.84-1.34-1.75-2.49-1.75-1.15 0-3.28 1.12-3.28 2.6 0 1.18 1.96 2.58 2.93 3.13-2.2.35-4.18 1.38-4.18 3.16 0 1.77 2.25 3.11 4.97 3.11 2.72 0 4.38-1.57 4.38-3.05 0-1.18-1.25-2-1.88-2.26l.79-.8c-.34.14-1.22.49-2 .66-.99.22-1.3.44-1.85.68-.57.25-1.58 1.41-.6 2.16.96.76 2.34.18 2.34-.5 0-.55-.39-.71-.58-.73.18 1.3-1.26 1.6-1.26.4 0-1.18 1.61-1.54 2.16-1.54s1.49.55 1.49 2.07a2.5 2.5 0 0 1-2.5 2.5c-1.24 0-4.2-.79-4.2-2.78 0-2 2.36-2.57 3.89-2.6a1.51 1.51 0 0 0 1.6-1.41c-.3.55-1.31.63-1.78.6-1.3-.39-2.56-1.5-2.56-2.8 0-1.32.7-2.07 1.83-2.07 1.13 0 1.72.56 1.72 1.22 0 .67-.33.85-.63.85s-.36-.1-.36-.3Z" fill="#ED2027"/><path fill-rule="evenodd" d="M8 28h1.23l.47-1h2.43l.43 1H14l-2.4-5h-1.2L8 28Zm3.7-2-.72-1.67-.8 1.67h1.52Zm3.3-3v5h2.21c.6-.01 1.79-.32 1.79-1.43 0-.9-.68-1.21-1.03-1.26l.06-.06c.13-.12.43-.4.43-.98 0-.76-.51-1.27-1.4-1.27H15Zm1 1h.7c.3 0 .53.22.53.5s-.23.5-.52.5H16v-1Zm0 2h1.05c.3 0 .55.22.55.5s-.24.5-.55.5H16v-1Zm4 .93.97-.57c.08.22.57.72.97.72.24 0 .72-.06.72-.37 0-.32-.26-.49-.45-.6l-.1-.07a2.52 2.52 0 0 0-.12-.08c-.41-.25-1.6-.97-1.6-1.8 0-.94 1.1-1.16 1.72-1.16.64 0 1.2.22 1.73.82l-.8.65c-.14-.2-.52-.57-.87-.57-.44 0-.67.43-.06.8.62.36 1.73 1.12 1.73 1.93 0 .8-.4 1.37-1.67 1.37-1.15 0-1.73-.61-2.06-.96l-.11-.11ZM32 28v-5h1v4h2v1h-3Zm4-5v3.42c0 .87.7 1.58 1.55 1.58h.9c.86 0 1.55-.7 1.55-1.58V23h-1v3.19c0 .5-.51.9-1 .9s-1-.4-1-.9V23h-1Zm5 1h1v4h1v-4h1v-1h-3v1Zm4-1v5h3v-1h-2v-1h2v-1h-2v-1h2v-1h-3Z" fill="#fff"/><path fill-rule="evenodd" d="M4 33v-5h.41v1.9c.2-.42.61-.9 1.28-.9 1.09 0 1.29 1.18 1.29 1.44V33H6.6v-2.5c0-.37-.14-1.11-.98-1.11-.73 0-1.1.71-1.22 1.2V33H4Zm16 0v-5h.45v1.88c.2-.41.6-.88 1.26-.88 1.1 0 1.29 1.18 1.29 1.44V33h-.37v-2.53c0-.37-.14-1.11-.97-1.11-.71 0-1.08.67-1.21 1.15V33H20Zm-3.4 0v-5h.4v5h-.4Zm2 0v-3h-.72v-.4h.72V28h.4v1.6h.68v.4H19v3h-.4Zm-7.1-2c0-1.1-.78-2-1.75-2S8 29.9 8 31s.78 2 1.75 2c.74 0 1.37-.52 1.63-1.25l-.34-.22c-.2.6-.7 1.03-1.29 1.03-.75 0-1.36-.7-1.36-1.56h3.11Zm-1.75-1.56c.63 0 1.17.5 1.32 1.16H8.43c.16-.67.69-1.16 1.32-1.16ZM13.57 33a1.7 1.7 0 0 0 1.43-.84v.79h.4V29H15v.84a1.7 1.7 0 0 0-1.43-.84c-.97 0-1.75.9-1.75 2s.78 2 1.75 2Zm0-.44c.75 0 1.36-.7 1.36-1.56 0-.86-.6-1.56-1.36-1.56-.75 0-1.36.7-1.36 1.56 0 .86.6 1.56 1.36 1.56Z" fill="#898D8F"/><path d="M33.51 28.94v.66H33v.4h.51v3H34v-3h.53v-.4H34v-.69c0-.28.21-.52.47-.52h.27V28h-.37c-.47 0-.86.42-.86.94Zm2.09.51V33h.4v-3.55h-.4Zm0-.8h.4V28h-.4v.66Zm2 1.35v3h.4v-3h.84v-.4H38V28h-.4v1.6H37v.4h.6Zm2-1v4h.4v-2.33c.1-.48.44-1.24 1.16-1.24.8 0 .83.73.84 1.1v2.43h.43v-2.54c0-.25-.19-1.42-1.21-1.42-.65 0-1.03.5-1.22.92V29h-.4Zm5.36 0c1 0 1.8.9 1.8 2h-3.2c0 .86.63 1.56 1.4 1.56.61 0 1.13-.43 1.32-1.03l.35.22A1.8 1.8 0 0 1 44.96 33c-.99 0-1.79-.9-1.79-2s.8-2 1.8-2Zm1.35 1.6c-.15-.67-.7-1.16-1.35-1.16-.64 0-1.19.5-1.35 1.16h2.7Zm1.04 1.4-.35.39c.05.2.35.61 1.1.61.94 0 1.23-.61 1.2-1-.02-.49-.65-.92-1.2-1.28-.44-.29-.5-.58-.48-.7-.02-.18.08-.56.61-.56.45 0 .57.18.69.34l.07.1.32-.19c-.21-.41-.59-.71-1-.71-.42 0-1.2.28-1.2 1.02 0 .6.68 1.07 1.14 1.4l.28.2c.37.3.29.92-.43.92-.58 0-.74-.35-.75-.53Zm2.4.39.34-.38c0 .18.16.53.73.53.7 0 .78-.62.42-.92a4.96 4.96 0 0 0-.27-.2c-.45-.33-1.12-.8-1.12-1.4 0-.74.77-1.02 1.17-1.02.4 0 .77.3.98.71l-.31.19a1.73 1.73 0 0 1-.07-.1c-.11-.16-.23-.34-.67-.34-.52 0-.62.38-.6.56-.03.12.04.41.47.7.53.36 1.15.8 1.18 1.29.02.38-.27.99-1.18.99-.74 0-1.03-.4-1.08-.61Z" fill="#898D8F"/><defs><linearGradient id="abh3nkaes" x1="10.42" y1="9.71" x2="68.15" y2="76.02" gradientUnits="userSpaceOnUse"><stop stop-color="#1A1E21"/><stop offset="1" stop-color="#06060A"/></linearGradient></defs></svg>