<?xml version='1.0' encoding='utf-8'?>
<!-- by TradeStack -->
<svg width="56" height="56" viewBox="0 0 56 56" xmlns="http://www.w3.org/2000/svg"><path fill="#F0F3FA" d="M0 0h56v56H0z" /><path d="M27.45 10h2.2l11 32H44v1H29v-1h5.03l-7.98-23.75L17.55 42H23v1H13v-1h3l11.45-32Z" /><path d="M37.13 25.58c-.15.27-.58.48-.95.62l.4-1.1c-.43.18-.99.63-1.4.88-.44.27-.95.52-1.36.82-.65.5-1.71 1.53-2.73 1.72-.7.35-.8.23-1.2.2-.62-.07-.58-.37-1.2-.47-1.08-.18-2.11-.1-2.68.94-.3.55-.07.2-.56.54a.74.74 0 0 0-.28.3c-.96-.24-1.66.08-2.46.23-.32.08-1.39.22-1.64.1-.52.27-2.25-.28-2.83-.33.12.18.58.37.82.53-.57.01-1.05.22-1.75.11-1.42-.2-2.28-.22-3.3-1.49-.17-.2-.24-.38-.56-.41 0 .42.35.9.5 1.27.21.57.36.69.76 1.05-.6-.01-1.33-.5-1.77-.86-.17-.14-.26-.33-.5-.4.28.62.36 1.43 1.26 2.26-.93.22-1.28.05-1.7.26.11.45 1.37.86 1.76.86-.18.27-1.6.86-1.76 1.53.48.24 1.06-.33 2.08-.33-.25.4-.98.9-1.07 1.26.2-.1 1.39-.5 1.64-.53v.73c.13-.07.38-.18.56-.2-.14.28-.21.21-.38.46.63 0 .58-.05 1 .22.37.24.49.14.99.22.7.1 1.3.3 1.98.23.01 0 1.18.23 1.31.27l.14.06c.34 0 2.1.11 2.36.03.33-.12 1.03-.47 1.28-.52.34-.07.4.1.73-.01.26-.1.47-.46.7-.66.13-.1.16-.1.29-.17-.09.37-.26.75-.26 1.2.59.41 1.14.02 1.55.55.5.65 1.09.77 1.8.58.31-.08.08-.1.33.03.56.3.53.03.83.13 0 0 1.02.82 1.42.7.24-.18.44-.4.59-.7.2-.46.16-.6.16-1.23.75-.52.3.04.65-.71.14-.32.49-.2.61-.75h.27c.17-.2.35-.2.49-.53.14-.35-.01-.64.05-.82.2-.09.2-.01.43-.06l1.37-.62c.63-.4.42.15.97-.5.18-.22.07-.07.3-.22.2-.15.88-.85 1.04-.95.8-.53.13-.42.81-.6.22-.18.34-.5.9-.79.39-.19.21-.14.46-.38.49-.5.57-.66 1.03-1.17.1-.08.18-.06.32-.13.38-.19.5-.65.5-1.26.3.03.44.07.83.07-.22-.34-.27-.48-.63-.6l-.32-.13a2.6 2.6 0 0 0 1.55-.62c.16-.14.28-.22.34-.44-1.2-.3-.34-.2-2.02-.2.12-.1.29-.19.42-.3.27-.2.5-.48.6-.82.08-.25.14-.42-.13-.35-.33.09-.69.26-1.06.35-.37.1-.76.23-1.15.32.2-.32.43-.47.54-1.1.1-.61-.23-1.04-.29-1.29h-.12c-.01.41-.38 1-.56 1.28-.25.4-.57.64-.95.91.12-.54.22-.94.02-1.54-.11-.31-.45-.95-.65-1.11 0 .63.08.56-.05 1.14-.11.47-.5 1.51-.76 1.86-.07.1-.6.5-.72.58Z" fill="#E8B11D" /><path d="M30.38 36.32c.6.24.25.57.52.94.03.05.5.33.22.7l-.22.17c-.59-.42-.18-.3-.35-.83-.16-.47-.26.04-.17-.98Zm.36-3.21c-.37-1.86 0-1.73-.9-3.73.2.08.49.42.63.64.38.59.53 1.27.5 2 0 .35 0 .81-.23 1.09Zm.1-2.69c.12-.5.64-.72 1.18-.44.68.35.8-.52 2.26-1.1.42-.17.7-.17.93-.42.16-.18 0-.14.2-.2.62 1.4-2.12 1.65-2.36 1.72-.48.14-.46.39-.73.68-.61.06-.69-.24-1.48-.24Zm6.17-4.3c.14.17.11.25.23.4.14.18.16.1.31.33 0 .12-.18.6-.21.67-.23.3-1.02.9-1.38.9.22-.14.4-.25.54-.45.28-.4.1-.9.52-1.03l-.16-.65c-.1-.32-1.45.58-1.85.66.26-.22.48-.43.61-.75-.8.24-1.7 1.35-2.53 1.83-.79.45-1.99 1.21-3.01 1.32.2-.11.42-.24 0-.3-.4-.08-.37.14-.73-.11-.85-.58-1.56-.75-2.52-.2-.47.26-.51.43-.8.94-.49.89-.2 1.88.2 2.82.34.8.9 1.51 1.3 2.1-.18-.1-.26-.14-.4-.32-.21.16-.27.33-.43.55-.3.44-1.04 1.42-1.06 1.93.32.17 1.05.17 1.41.16.27.29.42.57.8.77.54.3.64.05 1.1-.15.3.22.51.26.94.17.15-.25.12-.42.23-.71.04.71.2 1.18.65 1.47l.32-.21c.52-.37.49-.78.18-1.33.22-.15.37-.07.4-.46.21-.03.34-.02.46-.16.1-.12.09-.23.15-.37.13-.28.24-.1.44-.4.1-.14.16-.36.23-.5.42-.12.55-.04.75-.5l-1.34-.8c-.46-.32-.87-.56-1.33-.84.62.12 1.28.58 1.7.89.12-.24 0-.4.24-.52.18-.1.43.01.64.04l.1-.5c.5 0 .27.35.62.45l.05-.66c.49.02.25.1.46.46.2-.24.12-.34.21-.64.27-.01.37.21.4.29 0 .01.04-.31.23-.42.27.1.1.19.35.28.16-.27.11-.37.2-.69.53.02.09.12.4.24.27-.24.1-.52.31-.83.4.03.08.15.43.19.06-.36-.09-.34.08-.6.38.03.1.18.37.18.23 0 .1-.3.13-.58l.61.11c-.08-.33-.22-.4-.16-.75.36-.04.46.1.76.18.05-.79-.02-.76.58-.43 0-.3-.1-.4-.04-.57.18-.1.25-.04.4.1.19.18 0-.34.05-.54.1-.41.4.05.62.17.17-.4-.11-.36-.07-.65.18-.27.32-.19.63-.29-.2-.14-.31-.37-.07-.54.2-.14.51 0 .72.04-.2-.5-.6-.38-1.18-.47.25-.2 1.56-.23 1.94-.66-.58-.17-1.3-.14-1.96-.2.18-.25 1.06-.62 1.39-.98-.5 0-2.05.38-2.31.25.34-.37.55-.36.72-1.05-.56.49-.9.93-1.8.99.3-.64.48-.77.33-1.56-.03-.2-.1-.4-.24-.53.02 1.38-.18 1.79-1.13 2.52-.24.19-.5.3-.73.5Z" fill="#040707" /><path d="M15.7 31.36c-.68.5-2.06 0-2.55-.32.6 1.14 1.67.85 2.07.85-.22.24-.7.43-1.06.54-.54.16-.9.11-1.43.16.92.41 1.08.5 2.14.17-.48.87-1.05 1.17-1.61 1.58.98.01 1.43-.52 2.14-.79-.46.36-1.18.9-1.37 1.51.7-.07.81-.37 1.03-.42l-.13.76c.44-.03.4-.17.64-.22.3-.07.24.23.33.48.3-.04.18-.15.53-.26l.09.42.17-.11.16-.09.31.25c.2-.2.01-.16.32-.2l.18.32c.33-.01.27-.11.51-.27.13.1.08.1.2.3.17-.1.36-.27.57-.3.42-.05.34.2.56.36.42-.07.25-.2.56-.32l.12.42c.5.06.25-.19.64-.26l.12.43c.24-.08.23-.12.38-.28.12.16.1.26.11.28.08.16 0 .1.2.18l.18-.34c.42.08.2.3.7.34-.03-.23-.06-.4.02-.58.15.06.23.22.42.37.1-.16 0-.07.09-.23.04-.09.07-.16.2-.2.25-.08.29.1.54.15.13-.16.03-.13.13-.35.13.07 0-.03.09.09.14.18.09.25.42.3-.1-.29-.15-.32-.07-.67l.6.07c.02-.26.02-.4.22-.58.22.18.07.25.37.35l.12-.39c.2.1.06.2.26.33.2-.2.17-.44.38-.67.06.13.02.27.1.4.23-.38.4-.38.58-.71-.12-.23-.38-.44-.57-.7-.54-.73-1.06-1.49-.94-2.49.07-.6.14-.46-.01-.6-.5-.27-1.31.08-1.8.22-1.93.53-3.4-.03-3.99.17-.27.1-.47.22-.78.3-.38.11-.61.1-.77.36.26.15.07.11.43.1.25.48.2.09.36.54l.78.38c.93.24.16-.95 2.48-.44 1.47.33 1.91-.66 2.73-.02.45.34.16.24.79.37.02.9-.9.21-1.33.24-.66.04-.87.44-1.77.3-.65-.1-1.07-.33-1.81-.16-.36.08-.44.18-.73.3-.1.03-.23.09-.27-.08-.06-.21.05-.17.17-.37-.68.18-.65-.23-1.13.14-.2.15-.1.15-.33.18-.09-.24.05-.23-.09-.41-.11.16-.3.3-.51.3-.08-.31.08-.45.16-.74-.2.09-.3.22-.55.23.01-.22.09-.26.2-.44-.22.07-.32.21-.5.15-.06-.34.28-.54.5-.65-.2-.2-.48-.14-.92-.22-.79-.13-1.93-.34-2.36-.98.34.7.52.87 1.28 1.17Z" fill="#040707" /><path d="M27.4 30.44h.36c-.02.2-.07.25-.15.37-.77.16-1-.1-1.38-.43.09.41.4.7.84.75.61.07.8-.18.83-.8l-.49-.27-.02.38Z" fill="#E8B11F" /><path d="M28.27 32.1c.2-.4.5-1.23-.12-1.32-.24.34-.1 1.05.12 1.32Z" fill="#E8B11D" /><path d="M28.49 30.38c.15.3.09.25.32.5.4.22.96-.41.81-.9-.08-.25-.05-.1-.11-.17-.17.7-.44.97-1.02.57Z" fill="#E8B11F" /><path d="m26.17 30.21.06.17c.38.33.6.59 1.38.43.08-.12.13-.16.15-.38l-.36.01c-.3.46-.68.36-.79-.15-.11-.09-.18-.15-.37-.22-.1.08-.13-.15-.07.14Z" fill="#FEFEFD" /><path d="M26.4 29.6c.92-.11.73-.3 1.53.24a.85.85 0 0 0-.7-.6c-.43-.05-.62.17-.84.37Z" fill="#DFAB1E" /><path d="M29.26 29.72v.45l-.18.18c-.35.03-.26 0-.51-.15-.11.11-.03-.04-.08.18.58.4.85.13 1.02-.57l-.05-.2c-.11.05-.13.06-.2.11Z" fill="#FBFBFA" /><path d="M28.24 29.83c.47-.32.12-.34.84-.56.09-.03.04 0 .17-.09-.54-.22-.93.12-1.01.65Z" fill="#E5AF1F" /><path d="M26.17 30.21c-.06-.29-.04-.06.07-.14.2.07.26.13.37.22l.08-.39-.55.08.03.23Z" fill="#E1AC20" /><path d="M29.26 29.72c.07-.05.09-.06.2-.11-.02-.22 0-.05-.07-.13l-.27.06.14.18Z" fill="#E4AF20" /></svg>