<?xml version='1.0' encoding='utf-8'?>
<!-- by TradeStack -->
<svg width="56" height="56" viewBox="0 0 56 56" xmlns="http://www.w3.org/2000/svg"><path fill="#F0F3FA" d="M0 0h56v56H0z" /><path d="M45.61 16H43v10h2.61V16ZM22.6 16H20v10h2.6V16ZM39.4 16v4h-3.8v-4H33v10h2.6v-3.85h3.8V26H42V16h-2.6ZM25.53 30H19v2h2v8h2.6v-8h1.93v-2ZM46 38h-3.42v-8H40v10h6v-2ZM16.64 26h2.67l-3.36-10h-3.6L9 26h2.67l.64-2h3.73l.6 2Zm-3.73-3.76 1.24-3.67 1.24 3.67h-2.48ZM31.95 38h-3.34v-2H31v-2h-2.39v-2H32v-2h-6v10h6l-.05-2ZM38.95 38h-3.34v-2H38v-2h-2.39v-2H39v-2h-6v10h6l-.05-2ZM30.96 22.53c-.5.5-1.22.8-1.93.8-1.34.09-2.64-.95-2.73-2.3a2.55 2.55 0 0 1 2.4-2.61h.37c.71 0 1.43.3 1.93.8v-2.63a4.63 4.63 0 0 0-2.26-.59 5.02 5.02 0 0 0 0 10c.8 0 1.55-.21 2.26-.6v-2.87h-.04ZM18.34 30.8l-1.11 1.74c-.71-.48-2.13-1.18-2.94-.3-.3.3-.51 1.17 1.67 1.44.96.08 3.55.91 2.94 3.84-.25 1.27-3 4.15-7.91 1.18l1.22-1.92c.66.74 2.28 1.35 3.24 1.13 1.12-.26 1.62-1.96-.4-2.27-1.02-.17-4.06-.43-3.76-2.84.2-1.57 1.73-2.75 3.55-2.8a7.04 7.04 0 0 1 3.5.8Z" fill="#EB5C01" /></svg>