<?xml version='1.0' encoding='utf-8'?>
<!-- by TradeStack -->
<svg width="56" height="56" viewBox="0 0 56 56" xmlns="http://www.w3.org/2000/svg"><path fill="#F0F3FA" d="M0 0h56v56H0z" /><path fill-rule="evenodd" d="M34.36 35.15c-.8.12-1.86.47-3.15 1.06-.54.35-.94.65-1.21.88-1 .87-1.55 2-1.64 3.37-.11 1.56.9 2.88 1.8 4.1.05.04.08.1.12.14a.19.19 0 0 1-.05.27.19.19 0 0 1-.1.03h-.17a.19.19 0 0 1-.13-.05c-.61-.57-1.2-1.3-1.78-2.16a4.55 4.55 0 0 1-.8-3.2c.19-1.46.78-2.66 1.78-3.62a9.26 9.26 0 0 1 4.5-2.2c1.01-.23 2.04-.4 3.06-.58 1.7-.29 3.42-.58 5.05-1.16 1.84-.64 2.87-1.84 3.1-3.59.14-1.06.15-2.18-.42-3.02-.2-.3-.33-.53-.41-.68a.43.43 0 0 1-.05-.28c.46-2.5.12-5.32-2.1-6.9-.3-.22-.59-.4-.87-.58a7.99 7.99 0 0 1-1.62-1.22c-.46-.46-1-.92-1.62-1.35a6.92 6.92 0 0 0-6.1-1.06l-2.12.91a.4.4 0 0 1-.28.02 81.9 81.9 0 0 0-1.83-.5 6.31 6.31 0 0 0-5.9 1.34c-.25.2-.66.65-1.24 1.35a.9.9 0 0 1-.25.25c-.18.08-.3.12-.35.13-4.14.64-6.87 2.87-6.23 7.35.04.28-.07.85-.2 1.08a20.56 20.56 0 0 0-1.47 3.04 9.3 9.3 0 0 0-.46 5.07c.6 2.97 3.95 4.97 6.86 5.27 1.93.2 3.75-.07 5.48-.8 1.2-.52 1.95-2.06.95-3.13-.73-.8-1.9-.6-3-.34-1.79.42-3.23.58-4.32.47-1.87-.2-2.92-1.91-2.16-3.68.3-.71.73-1.33 1.27-1.85 2.3-2.21 5.3-2.91 8.43-2.82a.19.19 0 0 0 .2-.18c.05-.9.2-1.74.45-2.52.04-.1 0-.17-.12-.2a9.56 9.56 0 0 0-4.94.17.2.2 0 0 0-.08.31 6.35 6.35 0 0 0 2.61 1.5c.5.15.91.26 1.27.33.12.02.15.3.02.3-1.82-.16-3.65-.83-4.76-2.36a.26.26 0 0 1 .09-.38 7.73 7.73 0 0 1 6.18-.53c.1.04.23 0 .3-.08.58-.66 1.3-.9 2.15-.73.6.13.54-1.59.58-1.83.04-.23.47-.07.46.13a3.92 3.92 0 0 1-.47 1.68c-.04.09 0 .21.08.3l.5.46c.06.05.12.06.21.03.6-.18 1.3-.26 2.12-.24.16 0 .25.09.25.26V23c0 .1-.05.14-.14.14h-2.05c-.14 0-.2.07-.17.2.15.82-.02 1.56-.5 2.24a.4.4 0 0 0-.06.28c.02.19.06.37.12.55a5.22 5.22 0 0 1-.33 3.99 7.63 7.63 0 0 1-1.32 2.04.31.31 0 0 1-.47-.05A12.55 12.55 0 0 1 25 27.53a.23.23 0 0 0-.24-.2c-1.52 0-3 .23-4.44.68a7.9 7.9 0 0 0-3.82 2.56c-.35.43-.9 1.48-.7 2.07.44 1.3 1.76 1.35 2.96 1.25.57-.05 1.71-.3 3.44-.73.68-.18 1.5-.05 2.48.38 1.12.5 1.63 2 1.23 3.16-.32.96-.84 1.6-1.55 1.94a11.55 11.55 0 0 1-8.64.58c-2.64-.81-5.32-3.1-5.65-6.03-.34-3 .79-5.56 2.4-8.09.23-.37.11-.73 0-1.09a3.8 3.8 0 0 1-.1-.34c-.44-2.05-.1-3.76 1.02-5.13 1.38-1.67 3.8-2.48 5.96-2.4a.5.5 0 0 0 .46-.25c1.51-2.52 3.78-3.55 6.8-3.1.71.12 1.49.37 2.32.76a.6.6 0 0 0 .55-.02l1.74-.96a6.8 6.8 0 0 1 7.44 1.3c.46.4.99 1.02 1.59 1.84.05.08.13.14.23.18l1.08.4c2.98 1.07 4.18 4.2 3.35 7.1l-.27.98c-.02.1 0 .18.06.26a5.58 5.58 0 0 1 .94 5.63c-.73 2.17-3.03 3.26-5.13 3.74-1.68.4-3.73.77-6.14 1.15ZM26.6 23.33l.01.01 1.76 1.58a.07.07 0 0 0 .02.02.07.07 0 0 0 .05 0l.02-.02.03-.03a1.2 1.2 0 0 0 .31-.88 1.23 1.23 0 0 0-.41-.85l-.02-.02a1.25 1.25 0 0 0-.9-.32 1.2 1.2 0 0 0-.84.4l-.02.02a.07.07 0 0 0-.02.05.07.07 0 0 0 .01.04Zm-.64.9-.35 1.8a.27.27 0 0 0 .35.3l1.67-.51c.2-.06.25-.31.1-.46l-1.3-1.27a.27.27 0 0 0-.47.14Zm.84 6.99-1.2-3.5a.4.4 0 0 1 .23-.5l2.12-.74a.4.4 0 0 1 .53.38 10.24 10.24 0 0 1-.94 4.38c-.14.33-.63.3-.74-.02Z" fill="url(#a)" /><defs><linearGradient id="a" x1="44.96" y1="24.26" x2="11.2" y2="32.53" gradientUnits="userSpaceOnUse"><stop stop-color="#B320A2" /><stop offset=".43" stop-color="#8E79CF" /><stop offset="1" stop-color="#47A9CE" /></linearGradient></defs></svg>