<!-- by TradeStack --><svg width="56" height="56" viewBox="0 0 56 56" xmlns="http://www.w3.org/2000/svg"><path fill="#91001E" d="M0 0h56v56H0z"/><path d="M15.46 31.5H9.24L7.9 34H4l5.5-11.43c.14-.27.38-.6.68-.57h4.35c.3-.03.53.3.67.57L20.7 34h-3.9l-1.34-2.5Zm-3.11-6.72L10.39 29h3.93l-1.97-4.22ZM48.09 34l-1.33-2.5h-6.23L39.19 34H26.55c-.58 0-1.05-.5-1.05-1.13v-9.74c0-.62.47-1.13 1.05-1.13H37c.58 0 1 .5 1 1.13v3.96h-3.5V24.5H29v7h7.61l4.18-8.93c.14-.27.38-.6.68-.57h4.35c.3-.03.54.3.68.57L52 34h-3.9Zm-4.45-9.22L41.68 29h3.93l-1.97-4.22ZM22.1 22c-.58 0-1.1.6-1.1 1.13V34h3.5V23.13c0-.62-.5-1.13-1.04-1.13H22.1Z" fill="#fff"/></svg>