<!-- by TradeStack --><svg width="56" height="56" viewBox="0 0 56 56" xmlns="http://www.w3.org/2000/svg"><path fill="#F0F3FA" d="M0 0h56v56H0z"/><path d="M4 30c1.65-2.33 8.88-7 24.61-7 13.14 0 20.63 3.78 22.92 5.83l.47-.48v1.62h-1.59l.42-.43c-2.92-2.5-9.56-5.8-22.22-5.8-15.92 0-21.67 4.4-23.23 6.26H4Z" fill="#DD1F26"/><path d="M33.68 19h-.36v.43a1.6 1.6 0 0 0-1.4 1.4h-.42v.35h.42a1.6 1.6 0 0 0 1.4 1.42v.4h.36v-.4a1.6 1.6 0 0 0 1.42-1.42h.4v-.36h-.4a1.6 1.6 0 0 0-1.42-1.39V19Zm-.36.7v.54h.36v-.54c.59.07 1.06.54 1.15 1.12h-.54v.36h.54c-.07.6-.55 1.08-1.15 1.16v-.58h-.36v.57a1.33 1.33 0 0 1-1.13-1.15h.52v-.36h-.51c.08-.58.54-1.04 1.12-1.12ZM6 31l3.43-8h1.81l.95 2.22c-.53.17-1.03.35-1.5.53l-.47-1.17L7.83 31H6Zm4.95-4.58L12.8 31h1.88l-2.2-5.13c-.54.18-1.04.37-1.52.55ZM17 26h-1v5h1v-5Zm16 0h1v5h-1v-5Zm3 0h5v1h-2v4h-1v-4h-2v-1Zm-17 0h1.47l1.55 3.77L23.5 26H25v5h-1v-3.27L22.71 31h-1.34L20 27.52V31h-1v-5Zm8 5v-5h3.08c.91 0 1.65.68 1.65 1.52a1.5 1.5 0 0 1-1.14 1.4L31.94 31h-1.25l-1.21-2H28v2h-1Zm3-4h-2v1h2c.4 0 .5-.22.5-.5s-.1-.5-.5-.5Zm16 4v-1h-1.92c-.6 0-1.08-.45-1.08-1h3v-1h-3c0-.55.49-1 1.08-1H46v-1h-1.9c-1.16 0-2.1.96-2.1 2.15v.7c0 1.19.94 2.15 2.1 2.15H46Z" fill="#231F20"/></svg>