<?xml version='1.0' encoding='utf-8'?>
<!-- by TradeStack -->
<svg width="56" height="56" viewBox="0 0 56 56" xmlns="http://www.w3.org/2000/svg"><path fill="#F0F3FA" d="M0 0h56v56H0z" /><path d="m4 35 4.96-9h2.67l4.91 9h-2.8l-1.06-2H7.9l-1.03 2H4Zm4.92-4h2.7l-1.38-2.6L8.92 31ZM17 32.51V28h2v4.55c0 .25.3.45.53.45h2.04c.23 0 .43-.2.43-.45V28h2v7l-.96-.53c-.28.34-.82.5-1.05.53H19.3c-1.27 0-2.3-1.11-2.3-2.49Z" fill="#FFCB08" /><path d="M51 30.49V35h-2v-4.55c0-.25-.3-.45-.53-.45h-2.04c-.23 0-.43.2-.43.45V35h-2v-7l.96.53c.28-.34.82-.5 1.05-.53h2.69c1.27 0 2.3 1.11 2.3 2.49ZM32 28h2v7h-2zM32 25h2v2h-2zM28 31.03V35h-2v-7h2v.76c.54-.91 1.86-.82 2.47-.65v2.05c-1.6-.59-2.27.22-2.47.87Z" fill="#005A9C" /><path fill-rule="evenodd" d="M37.63 28A2.65 2.65 0 0 0 35 30.68v1.64A2.65 2.65 0 0 0 37.63 35h2.75c1.45 0 2.62-1.2 2.62-2.68v-1.64A2.65 2.65 0 0 0 40.38 28h-2.75Zm.11 2c-.4 0-.74.34-.74.76v1.48c0 .42.33.76.74.76h2.52c.4 0 .74-.34.74-.76v-1.48a.75.75 0 0 0-.74-.76h-2.52Z" fill="#005A9C" /><path d="M29.9 13c-.25 2-.6 7.16 0 11.78.27-1.9.52-7.57 0-11.78Zm-1.54 2.11c-.24 1.82-.58 6.51 0 10.7a46.8 46.8 0 0 0 0-10.7Zm-1.41 2.27a22.36 22.36 0 0 0 0 7.53c.27-1.21.53-4.83 0-7.53Zm-1.39 1.6a22.35 22.35 0 0 0 0 7.53c.28-1.21.53-4.83 0-7.52Zm5.84-4.59c-.24 1.45-.58 5.2 0 8.54.27-1.37.53-5.48 0-8.54Zm1.2 3.58c-.23 1-.54 3.58 0 5.89.25-.95.48-3.78 0-5.89Zm1.1.92c-.18.76-.42 2.7 0 4.45.18-.72.36-2.86 0-4.45Zm1.02-2.19c-.22.99-.53 3.53 0 5.8.25-.93.48-3.72 0-5.8Zm.78-1.36c-.18.8-.43 2.87 0 4.71.2-.76.38-3.02 0-4.7Z" fill="url(#a4bv55r2m)" /><path d="M20.35 16.1a43.18 43.18 0 0 0 0 10.48c.27-1.69.53-6.73 0-10.47Zm1.22 2.11a22.8 22.8 0 0 0 0 7.6 23.7 23.7 0 0 0 0-7.6Zm1.39 1.08c-.25.98-.59 3.5 0 5.77.27-.93.52-3.7 0-5.77Zm1.38.75a15.8 15.8 0 0 0 0 6.32 16.4 16.4 0 0 0 0-6.32Zm-5.38-2.36a23.74 23.74 0 0 0 0 7.76c.27-1.25.53-4.99 0-7.76Zm-1.22 2a14.86 14.86 0 0 0 0 6.13c.28-.99.53-3.93 0-6.12Zm-1.22 1.66c-.24.9-.58 3.19 0 5.24.28-.84.53-3.36 0-5.24Zm-1.07 2.48a8.8 8.8 0 0 0 0 4.22c.22-.68.42-2.71 0-4.22Zm-.76-.37c-.13.5-.32 1.77 0 2.9.16-.46.3-1.86 0-2.9Zm-.67.53c-.14.5-.33 1.77 0 2.9.15-.46.3-1.86 0-2.9Z" fill="url(#b4bv55r2m)" /><defs><linearGradient id="a4bv55r2m" x1="30.48" y1="13" x2="30.48" y2="26.51" gradientUnits="userSpaceOnUse"><stop stop-color="#045C9B" /><stop offset=".5" stop-color="#007EC1" /><stop offset=".78" stop-color="#0071AF" /></linearGradient><linearGradient id="b4bv55r2m" x1="19.25" y1="16.11" x2="19.25" y2="28.04" gradientUnits="userSpaceOnUse"><stop stop-color="#FDB828" /><stop offset="1" stop-color="#E2BB29" /></linearGradient></defs></svg>