<?xml version='1.0' encoding='utf-8'?>
<!-- by TradeStack -->
<svg width="56" height="56" viewBox="0 0 56 56" xmlns="http://www.w3.org/2000/svg"><path fill="#F0F3FA" d="M0 0h56v56H0z" /><path d="M21.14 12.25c.55.01.95.18 1.31.33.5.2.91.38 1.5.03 1-.6 1.41-.49 1.73 0 .33.5.78.95 1.33 1 .45.05.85-.22 1.27-.51l.3-.2c.42-.27 1.03-.11 1.29 0-.58.15-.84.83-1 1.24l-.1.25c-.05.1-.08.27-.11.47-.06.38-.14.85-.4 1.09-.3.3-.78.74-.98.93.54.02 1.26.13 2.07 1.14.64.82 3 2.78 4.1 3.67-2.46-.8-3.64-.22-4.26.08-.1.05-.2.1-.28.12-.33.11-.43-.32-.53-.76-.05-.24-.1-.48-.2-.65-.2-.32-.97-.03-1.64.22-.26.1-.51.2-.7.24-.5.13-.65.11-1.19.06l-.53-.06h-.14v-.45l-.05-1.16a6.03 6.03 0 0 0-.77-1.9c-.15-.3-.29-.55-.33-.69l-.12-.35c-.16-.5-.41-1.23-.48-1.93a6.85 6.85 0 0 0-1.09-2.2Z" fill="#042785" /><path d="M23.8 22.8a41.2 41.2 0 0 1 1.16 3.03c.26.9.36 1.69.36 2.9 0 .73.3 1.79.57 2.54l-.42.3c-.7.5-2.02.25-1.81-.2.2-.45.27-1.72-.7-1.34-.72.28-1.86.87-2.59 1.24l-.57.3c-.18.08-.09-.31.06-.95.21-.95.55-2.45.32-3.74-.38-2.18-2.34-5.16-2.95-5.46a808.06 808.06 0 0 0 4.43.09c.61-.03.93-.04 1.74 1.16.05.06.17.13.4.13Z" fill="#C01A26" /><path d="M28.8 22.61c.38.48.86 1.26 1.07 2.26.2.9.52 1.56.78 2.1.26.51.46.93.45 1.35-.02.53-.62 1.99-1.13 3.13v.02c.05.16.1.33.22.46.28.28.46.22.8.11.12-.03.26-.08.42-.11.66-.15 1.73-.26 2.3.14.57.4 1.1.3 1.45-.14.3-.36 1.02-.52 1.35-.56-.48-.18-1.6-.98-2.23-2.7l-.44-1.24c-.53-1.49-.9-2.52-1.28-3-.4-.5-.16-1.1 0-1.35-.64.64-1.97 1.6-2.23.31-.21-1.06-.9-1-1.54-.78Z" fill="#03257E" /><path d="M22.18 36.95a8.8 8.8 0 0 0-2.02-5.06c.38.39 2.35 0 3.61-.17 1.26-.18.63.74 1.8.79 1.15.05 1.08-.49 2.19-.62 1.1-.12.93 1.38 2.02.8 1.08-.6.78.25 2.27 0 1.49-.26 1.54.45 2.5.86.77.33 1.85-.13 2.3-.4-.25.57 0 1.56.15 1.98 1.31 1.43 1.92 5.39 2.02 5.95.08.45.9 1.28 1.3 1.63a11.8 11.8 0 0 0-3.32-.38c-1.14.15-1.32.28-1.32-.43 0-.72-.42-.59-1.66 0a3.9 3.9 0 0 1-2.8.28c-.71-.16-.91.9-1.85 1.04-.93.16-.96-1.6-1.36-1.91-.4-.3-.86.48-1.36.59-.5.1-.73-.23-2.12-.59-1.11-.29-2.45.56-2.98 1.02.27-.77.77-2.93.63-5.38Z" fill="#F4D92A" /><path d="M28.46 38.09c.2.21.75.48 1 .6.07 0 .27.08.5.42.3.43.91.5 1.16.37.25-.13.93-1.27 1-1.72.08-.44-.07-.83-.5-1.16-.42-.32-.7-1.13-1.26-1.19-.56-.05-1.65.45-2.01 1.2-.37.73-.14 1.21.11 1.48Z" /><path fill-rule="evenodd" d="M13.18 10.41a.22.22 0 0 0-.14.21l-.04.02c.36.74.9 1.92 1.4 3.06.48 1.15.9 2.26 1 2.85l.08.41c.22 1.28.37 2.14 1.25 4.43.2.55.4 1 .57 1.44.66 1.57 1.12 2.7 1.46 5.56.15 1.27.42 2.23.73 3.07v.09c.01.04.03.12.1.18l.3.76.01.04a9.8 9.8 0 0 1 .9 3.6c.04 1.41.38 3.56.7 5.59-.05.22-.1.4-.15.54-.04.1 0 .2.08.25.06.04.14.05.2.02.16.93.3 1.81.4 2.56.12.86.18 1.53.16 1.9l.21.01c.03-.4-.04-1.09-.15-1.94-.11-.78-.26-1.7-.42-2.68.26-.2.64-.45 1.08-.64a2.5 2.5 0 0 1 1.56-.22 9.6 9.6 0 0 1 1.37.46c.3.11.53.2.85.13.17-.03.32-.12.45-.21l.24-.19.12-.09c.1-.08.2-.13.26-.15.05-.02.08-.01.12.01.02.01.04.04.08.11l.1.24.1.28v.05l.13.36a2 2 0 0 0 .38.66c.18.2.43.31.74.26.53-.09.85-.42 1.1-.67l.02-.03c.27-.28.42-.4.64-.35.73.16 1.64.32 2.94-.3.3-.14.56-.26.77-.34.2-.08.35-.12.45-.12l.1.01c.01.02.04.09.04.26s0 .34.06.47c.03.07.07.14.14.19.06.05.13.08.2.1.13.02.3 0 .47-.02.09 0 .2-.02.3-.04h.01l.38-.05a6.86 6.86 0 0 1 1.67.07c.62.1 1.22.22 1.58.3.1.03.2-.02.24-.1a.22.22 0 0 0-.05-.27 8.85 8.85 0 0 1-1.1-1.2.97.97 0 0 1-.14-.3l-.03-.15c-.07-.42-.24-1.43-.53-2.52a14.7 14.7 0 0 0-.62-1.88 5.4 5.4 0 0 0-.86-1.48c-.07-.2-.16-.52-.2-.85-.05-.37-.04-.71.05-.94a.22.22 0 0 0-.05-.25.21.21 0 0 0-.26-.02c-.2.12-.57.3-.97.4-.4.1-.8.13-1.13 0a2.6 2.6 0 0 1-.67-.43 4.38 4.38 0 0 0-.35-.25c-.37-.23-.81-.34-1.6-.21-.35.06-.59.05-.75.03-.16-.03-.27-.08-.38-.13l-.03-.01a2.74 2.74 0 0 0-.07-.03l.27-.08h.02a4.61 4.61 0 0 1 1.52-.24c.4 0 .77.08 1 .24.31.23.64.33.95.29.32-.05.59-.22.8-.48.1-.13.3-.24.55-.33.24-.08.5-.13.65-.14.1-.01.17-.1.19-.2a.22.22 0 0 0-.14-.22c-.42-.16-1.5-.91-2.1-2.58-.17-.43-.31-.85-.45-1.23l-.53-1.47a6.36 6.36 0 0 0-.78-1.6.78.78 0 0 1-.17-.6c.03-.2.11-.4.18-.49a.22.22 0 0 0-.05-.29.21.21 0 0 0-.28.02c-.31.3-.78.68-1.18.82-.2.07-.34.07-.44.03-.08-.04-.19-.15-.25-.43-.08-.44-.25-.74-.5-.91-.25-.18-.54-.2-.81-.16a3.55 3.55 0 0 0-.93.29c-.17.06-.32.12-.44.15-.1.03-.27 0-.52-.07l-.44-.15-.35-.12c-.56-.18-1.26-.36-1.88-.05-.41.2-.7.25-.87.25-.16 0-.22-.04-.23-.05a3.68 3.68 0 0 0-.94-1.05l.12-.04c.44-.16.9-.32 1.35-.28l.52.05c.2.02.36.04.5.04.25.01.44-.01.77-.1.18-.04.4-.12.63-.2l.1-.04c.2-.08.4-.16.6-.22.23-.08.43-.13.58-.13.16-.01.2.03.2.03l.13.38c0 .06.02.13.04.2l.07.31c.05.16.1.34.21.47.06.07.14.13.23.16.1.03.2.02.3-.02.08-.02.17-.06.25-.1l.05-.03.24-.11c.22-.1.48-.2.82-.26a6.02 6.02 0 0 1 3.05.3c.1.04.2 0 .26-.1.05-.1.02-.2-.06-.27a77.26 77.26 0 0 1-2.22-1.86c-.81-.7-1.55-1.39-1.86-1.77a3.3 3.3 0 0 0-1.21-1.01 2.35 2.35 0 0 0-.52-.17l.64-.6c.25-.25.35-.64.4-.94l.05-.28.03-.16c.02-.14.04-.2.06-.23.04-.07.08-.18.12-.29l.02-.05c.05-.14.11-.3.19-.44.15-.3.35-.54.63-.6.09-.03.15-.1.16-.2 0-.09-.04-.18-.13-.21a2.06 2.06 0 0 0-.64-.17c-.27-.02-.58 0-.85.18l-.31.2c-.16.12-.3.21-.45.3-.24.13-.45.2-.67.18-.45-.05-.85-.43-1.17-.9-.18-.28-.42-.5-.78-.51-.34-.02-.74.13-1.25.44-.22.13-.4.17-.56.16-.17 0-.34-.05-.55-.14a3.57 3.57 0 0 0-1.63-.42c-.68 0-1.1-.02-1.56-.18-.46-.17-.97-.5-1.77-1.15a3.72 3.72 0 0 0-2.47-.7c-.84.03-1.63.23-2.1.41Zm8.61 31.73.06-.04c.64-.46 1.74-1.03 2.68-.79.61.16 1 .31 1.29.43.35.14.55.21.83.16.2-.04.4-.2.6-.35.27-.22.52-.42.76-.24.15.1.24.4.35.73.19.59.41 1.28 1.01 1.18.46-.07.74-.36 1-.62.26-.27.49-.5.85-.42.7.15 1.56.3 2.8-.28 1.24-.59 1.66-.72 1.66 0 0 .62.14.6.94.49l.38-.06a10.56 10.56 0 0 1 3.33.38l-.32-.3c-.41-.4-.93-.98-1-1.33 0-.03 0-.08-.02-.14-.15-.9-.76-4.47-2-5.8a4.03 4.03 0 0 1-.22-1.7c.01-.1.04-.2.08-.3l-.28.15c-.52.26-1.38.53-2.02.26a3.2 3.2 0 0 1-.73-.45c-.42-.32-.77-.59-1.77-.42-.71.13-1.02 0-1.26-.1-.26-.12-.45-.2-1.01.1-.58.32-.8.04-1.05-.27-.21-.28-.45-.58-.97-.52-.5.06-.77.2-1.01.34-.29.16-.56.3-1.19.28-.55-.03-.7-.25-.83-.45a2.2 2.2 0 0 1-.54-.02c-.21-.03-.42-.1-.57-.2a.6.6 0 0 1-.09-.09l-.39.06c-.92.14-1.98.3-2.57.23-.2-.02-.33-.07-.41-.15l.29.35c.65.87 1.6 2.6 1.73 4.7a16.3 16.3 0 0 1-.45 4.79l.06.37v.04Zm-.2.08-.04.11.05-.04v-.04l-.01-.03Zm.05-1.05c.22-1.03.42-2.56.32-4.21A8.6 8.6 0 0 0 20 32.04a.22.22 0 0 1 .01-.3.21.21 0 0 1 .3 0c.01.01.04.03.12.05.07.02.17.04.29.05.24 0 .55 0 .9-.04.47-.05 1-.13 1.48-.2l.33-.05a.43.43 0 0 1 .03-.27c.04-.09.08-.23.1-.39.02-.16.02-.32-.02-.45-.03-.13-.08-.2-.14-.24-.05-.03-.15-.05-.36.03-.7.28-1.82.86-2.55 1.23a33.66 33.66 0 0 1-.65.32l.25.63.01.04c.45 1.1.86 2.15.91 3.67.05 1.28.33 3.18.63 5.05Zm-1.88-9.6a32.62 32.62 0 0 0 .61-.3c.73-.37 1.87-.96 2.6-1.24.96-.38.9.9.69 1.34a.2.2 0 0 0-.02.14l.1-.01c.33-.05.58-.03.77.06a.8.8 0 0 1 .31.26c.23-.04.46-.12.65-.26.7-.5 1.45-.98 2-.64.37.23.52.2.9.12.17-.03.4-.08.75-.12.68-.07.76.23.85.55.05.16.1.33.22.46.28.28.46.22.8.11.12-.03.26-.08.42-.11.66-.15 1.73-.26 2.3.14.57.4 1.1.3 1.45-.14.2-.26.64-.41.99-.5l.36-.06a2 2 0 0 1-.32-.17 4.93 4.93 0 0 1-1.91-2.53l-.44-1.24c-.53-1.49-.9-2.52-1.28-3-.23-.29-.25-.61-.19-.88.04-.2.12-.37.19-.47l-.38.35c-.68.55-1.63 1.03-1.85-.04-.26-1.29-1.22-.91-1.94-.63-.18.07-.34.14-.48.17-.27.07-.66-.07-1.1-.22-.65-.24-1.4-.5-2.05-.19-.85.42-1.26.27-1.36.15-.46-.69-.77-.98-1.05-1.1l-.21.05c-.17.03-.38.02-.54-.1h-.34l-3.66-.09h-.37c.07.03.17.1.28.22.79.79 2.34 3.32 2.67 5.23.23 1.3-.11 2.8-.32 3.74-.09.36-.15.64-.16.8l.06.15Zm-.2-.58.09-.43.1-.5c.2-.92.4-2.1.22-3.15a11.12 11.12 0 0 0-1.36-3.35 12.48 12.48 0 0 0-1.25-1.75c-.1-.12-.18-.17-.23-.2a.22.22 0 0 1 .1-.4 823.96 823.96 0 0 0 4.2.1 1.07 1.07 0 0 1-.1-.25c-.04-.13-.06-.25-.07-.36v-.04a.93.93 0 0 0-.06-.26c-.02-.03-.03-.04-.06-.04-.05 0-.13 0-.28.06l-.23.08-.02.01-.24.1c-.37.13-.83.26-1.3.08a1.8 1.8 0 0 0-.98 0c-.36.07-.7.2-.9.3a.21.21 0 0 1-.23-.04.22.22 0 0 1-.06-.23c.16-.47.35-2.12-.34-4.71-.6-2.3-2.2-4.13-3.13-4.97.34.72.77 1.66 1.16 2.58.49 1.14.92 2.27 1.03 2.9l.07.4c.22 1.27.37 2.12 1.24 4.4.2.53.4.99.57 1.42a17.35 17.35 0 0 1 1.47 5.62c.13 1.06.34 1.9.58 2.63Zm5 .85c-.3.01-.56-.04-.73-.13.4-.05.6.02.73.13Zm.54.32a.6.6 0 0 1-.14-.15c.22-.05.45-.13.64-.27.35-.26.7-.49 1.01-.61.32-.13.56-.14.75-.02.15.09.27.15.4.18.14.04.26.03.38.02l.27-.05a12.3 12.3 0 0 1 .73-.12c.24-.02.36 0 .43.04.06.03.1.07.13.15l.05.14.01.05.04.14a1 1 0 0 0 .47.6c-.16.03-.36.1-.6.23-.23.13-.36.12-.44.1-.09-.04-.17-.12-.29-.27l-.04-.05c-.1-.12-.22-.28-.38-.4-.2-.15-.45-.23-.79-.2-.54.07-.83.23-1.08.37l-.07.04a1.67 1.67 0 0 1-1 .2c-.27 0-.4-.06-.48-.12Zm-2.4-10.93c.42-.15.92-.33 1.42-.29l.53.06c.54.05.68.07 1.2-.06.18-.04.43-.14.7-.24.66-.25 1.44-.54 1.63-.22.1.17.15.41.2.65.1.44.2.88.53.76l.28-.12c.57-.28 1.63-.79 3.73-.24l.54.16-.44-.36c-1.2-.98-3.1-2.6-3.67-3.3-.67-.85-1.28-1.07-1.78-1.13l-.29-.02a166.92 166.92 0 0 0 .99-.93c.25-.24.33-.71.39-1.08.03-.21.06-.39.11-.48.03-.05.07-.14.1-.25.13-.33.33-.85.7-1.1a.9.9 0 0 1 .3-.14 1.73 1.73 0 0 0-.32-.1c-.3-.07-.68-.09-.98.1l-.29.2c-.42.29-.82.56-1.27.51-.55-.05-1-.5-1.33-1-.32-.49-.73-.6-1.74 0-.58.35-.99.18-1.49-.03-.37-.15-.79-.33-1.36-.33-1.35 0-1.85-.07-3.47-1.38-1.19-.96-3.1-.67-4.12-.34l-.24.08.2.16c.94.81 2.66 2.74 3.3 5.18.6 2.27.55 3.85.41 4.57-.02.1-.04.2-.07.27l.26-.11c.48-.2 1.25-.4 1.78-.2.49.2.98 0 1.4-.17.25-.1.47-.2.64-.16.23.03.26.26.3.52.02.22.05.45.2.62h.15c.17 0 .34 0 .52.06l.35-.12Z" /><path d="M33.73 21v-.18h.53L37.27 14l2.88 6.82h.63V21h-2.41v-.18h.68L38.3 19h-2.64l-.77 1.82h.79V21h-1.96Zm2.07-2.3h2.4l-1.17-2.9-1.23 2.9Zm2.2 6.8h-.26V24h5.61v1.5H43v-.33c0-.48-.28-.87-.76-.87H41v5.8c0 .35.32.65.67.65h.24V31h-2.78v-.25h.33c.35 0 .54-.3.54-.66v-5.8h-1.17c-.47 0-.83.4-.83.88v.33Zm4 8.75V34h3v.25h-.32c-.37 0-.68.3-.68.65v5.18c0 .36.31.65.68.65H45V41h-3v-.27h.39c.37 0 .61-.3.61-.65V34.9c0-.36-.24-.65-.61-.65H42Z" /></svg>