<?xml version='1.0' encoding='utf-8'?>
<!-- by TradeStack -->
<svg width="56" height="56" viewBox="0 0 56 56" xmlns="http://www.w3.org/2000/svg"><path fill="#F0F3FA" d="M0 0h56v56H0z" /><path fill="#083D51" d="M20 22h3v12h-3zM35 24v-2H24v2h4v10h3V24h4Z" /><path fill-rule="evenodd" d="M10.36 22 5.5 34h3.21l1.19-3h4.32l1.19 3h3.2l-4.85-12h-3.4Zm3.07 7-1.37-3.46L10.69 29h2.74Z" fill="#083D51" /><path d="M39.02 22c.62.8 1.6 2.07 1.72 2.33.18.36.53 1.07.26 1.61-.08.18-.11.38-.1.57 0 .32.22.7.46.95.18.2.61.7.61.99 0 .16-.18.21-.35.36l-.11.1c-.13.1-.22.18-.24.34 0 .09.03.18.05.26.04.1.07.3.04.37-.1.18-.18.36-.1.54.05.09-.03.24-.13.32-.1.08-.21.17-.21.3 0 .27-.1 1.26-.44 1.35-.18.04-.46.04-.75.04s-.57 0-.75.05c-.22.05-.94.87-1.48 1.52h2.92l3.13-3.94L46.7 34h3.81l-5.04-6.34 4.5-5.66h-3.8l-2.6 3.27-2.6-3.27h-1.94Z" fill="#083D51" /><path fill-rule="evenodd" d="M37.66 25.42A1.4 1.4 0 0 0 39.07 24a1.42 1.42 0 1 0-2.78.36c.07.26.05.56-.14.75l-.59.6c-.19.18-.49.2-.75.13a1.41 1.41 0 0 0-1.78 1.37 1.42 1.42 0 0 0 1.7 1.39c.24-.05.51-.03.7.15l.72.73c.2.2.21.5.14.76a1.42 1.42 0 1 0 1.02-1c-.26.06-.56.04-.75-.15l-.64-.65c-.2-.2-.21-.52-.12-.8a1.42 1.42 0 0 0 .02-.79c-.07-.26-.05-.55.14-.74l.6-.6c.18-.19.48-.2.74-.14.11.03.23.05.36.05Zm0-.76a.66.66 0 1 0 0-1.32.66.66 0 0 0 0 1.32Zm-3.21 3.2a.66.66 0 1 0 0-1.31.66.66 0 0 0 0 1.32Zm3.87 2.75a.66.66 0 1 1-1.32 0 .66.66 0 0 1 1.32 0Z" fill="url(#amldjitvl)" /><defs><linearGradient id="amldjitvl" x1="36.05" y1="22.59" x2="36.05" y2="32.02" gradientUnits="userSpaceOnUse"><stop stop-color="#11A5DC" /><stop offset=".52" stop-color="#1A98CA" /><stop offset="1" stop-color="#105773" /></linearGradient></defs></svg>