<!-- by TradeStack --><svg width="56" height="56" viewBox="0 0 56 56" xmlns="http://www.w3.org/2000/svg"><path fill="#F0F3FA" d="M0 0h56v56H0z"/><path d="M25.09 21.08c-2.53 1.68-7.58 6.46-7.58 12.17s5.05 6.78 7.58 6.6c2.73-.41 8.2-2.9 8.2-9.6 0-3.26-1.56-7.06-2.34-8.56 1.88-1.56 6.5-4.69 9.92-4.69 4.27 0 6.13 3.74 6.13 6.46C47 26.93 38.53 41 25.78 41 13.03 41 10 31.21 10 28.97c0-2.25 1.38-10.2 9.23-10.2a8.63 8.63 0 0 1 5.86 2.3Zm2.86 1.66c-1.04 1.12-3.4 3.51-4.44 4.17-1.3.81-3.79 3.52-3.79 6.79 0 3.26 1.74 5.24 4.84 5.24 3.09 0 6.88-3.4 6.88-8.47 0-4.05-2.32-6.84-3.49-7.73Z" fill="url(#ablkoebxv)"/><defs><linearGradient id="ablkoebxv" x1="30.36" y1="14.79" x2="28.55" y2="41" gradientUnits="userSpaceOnUse"><stop stop-color="#EBDF43"/><stop offset=".53" stop-color="#4DA539"/></linearGradient></defs></svg>