<?xml version='1.0' encoding='utf-8'?>
<!-- by TradeStack -->
<svg width="56" height="56" viewBox="0 0 56 56" xmlns="http://www.w3.org/2000/svg"><path fill="#F0F3FA" d="M0 0h56v56H0z" /><path fill-rule="evenodd" d="M34.02 41.74a14.95 14.95 0 0 1-14.93-1.67l4.74-8.96 2.2 4.05 2.45-4.9 5.54 11.48Zm1.78-.92-7.28-15.09-2.56 5.11-6-11-6.3 12.6a15 15 0 1 1 22.14 8.38Zm-21.13-5.93a15.05 15.05 0 0 0 2.86 3.85l5.15-9.73-2.64-4.85-5.37 10.73ZM45 28a17 17 0 1 1-34 0 17 17 0 0 1 34 0Z" fill="#FAB322" /></svg>