<?xml version='1.0' encoding='utf-8'?>
<!-- by TradeStack -->
<svg width="56" height="56" viewBox="0 0 56 56" fill="none" xmlns="http://www.w3.org/2000/svg">
<rect width="56" height="56" fill="#F0F3FA" />
<path d="M33.3643 21.5059L33.362 23.7545L33.3612 28.5853L33.362 30.2863C33.3464 30.9892 33.3547 31.4832 33.387 31.7682C33.4619 32.4286 34.0634 32.4507 34.5174 32.4785C34.5262 32.4789 34.5346 32.483 34.5407 32.4898C34.5469 32.4966 34.5505 32.5057 34.5507 32.5153L34.5544 32.9477C34.5544 32.9616 34.5493 32.9749 34.5403 32.9847C34.5312 32.9945 34.5189 33 34.506 33H30.8553C30.8235 33 30.8076 32.9831 30.8076 32.9493V32.5275C30.8076 32.514 30.8124 32.501 30.8209 32.4911C30.8295 32.4812 30.8413 32.4753 30.8538 32.4744C31.3471 32.4368 31.9048 32.409 32.0002 31.8148V21.5696C31.8398 21.1896 31.251 21.143 30.9128 21.1046C30.8805 21.1007 30.8644 21.0811 30.8644 21.0457V20.6599C30.8644 20.6239 30.881 20.6035 30.9143 20.5986C31.7345 20.4852 32.5363 20.2869 33.3196 20.0035C33.3469 19.9937 33.3605 20.0043 33.3605 20.0354L33.3643 21.5059Z" fill="#5794DB" />
<path d="M42.3898 25H44.0631C44.0963 25.0001 44.1297 24.9688 44.1398 25.0186C44.1888 25.2667 44.1439 25.5594 44.0052 25.7595C43.9855 25.7879 43.9592 25.802 43.9265 25.802H42.3905C42.3648 25.802 42.3517 25.8159 42.3512 25.8437C42.3441 27.7419 42.3466 29.6379 42.3587 31.5318C42.3648 32.4152 43.1252 32.4258 43.7381 32.4732C43.7703 32.476 43.7865 32.4948 43.7865 32.5297V32.9485C43.7865 32.9828 43.7709 33 43.7396 33H39.8793C39.8475 33 39.8316 32.9825 39.8316 32.9477L39.8354 32.5133C39.8356 32.502 39.8398 32.4912 39.8471 32.4832C39.8544 32.4751 39.8643 32.4704 39.8747 32.47C40.5897 32.4446 41.0029 32.3276 41.0036 31.4402C41.0066 29.5731 41.0071 27.7079 41.0051 25.8446C41.0051 25.8333 41.0011 25.8225 40.9938 25.8145C40.9866 25.8065 40.9768 25.802 40.9665 25.802H39.9057C39.8774 25.8021 39.8495 25.7936 39.8253 25.7776C39.8011 25.7615 39.7815 25.7385 39.7686 25.7112C39.7557 25.6838 39.7502 25.6531 39.7525 25.6225C39.7548 25.5919 39.7649 25.5626 39.7817 25.5378L40.0926 25.0112C40.1078 24.9883 40.1287 25 40.1554 25H40.9272C40.9857 25 41.0032 24.9452 41.0002 24.882C40.9124 23.1419 41.4773 21.8129 42.6742 20.7577C43.1865 20.3062 44.0248 19.9112 44.6907 20.0175C45.2422 20.1058 46.1827 20.5598 45.753 21.3704C45.5517 21.7499 45.2665 22.0583 44.8654 21.7016C44.4221 21.3074 43.9007 20.8878 43.2901 21.0546C42.137 21.3712 42.3353 23.97 42.3542 24.94C42.3547 24.9646 42.3666 25 42.3898 25Z" fill="#5794DB" />
<path d="M36.9491 22.9505C36.5617 22.8105 36.3163 22.5444 36.2129 22.1523C36.2242 20.6405 38.0568 20.7432 37.9826 22.0394C37.9483 22.6358 37.6038 22.9394 36.9491 22.9505Z" fill="#5794DB" />
<path d="M14.8433 27.0297L15.9972 27.0613C16.0196 27.0619 16.0416 27.0679 16.0615 27.0786C16.0814 27.0894 16.0987 27.1048 16.1122 27.1235C16.1256 27.1423 16.1347 27.164 16.1389 27.187C16.1431 27.21 16.1422 27.2337 16.1364 27.2563C16.1066 27.37 16.0489 27.4797 15.9631 27.5855C15.6216 28.0066 15.2895 28.4355 14.9667 28.8723C14.9525 28.8913 14.9341 28.9018 14.9114 28.9039L13.7848 29.0026C13.7621 29.0047 13.7452 29.016 13.7341 29.0365C13.4022 29.6602 13.0998 30.2976 12.8269 30.9486C12.6945 31.266 12.9616 31.5478 13.2695 31.4089C13.5101 31.3004 13.9255 31.0683 14.5157 30.7126C14.5525 30.6905 14.5677 30.7012 14.5611 30.7449L14.5021 31.1278C14.4986 31.1515 14.4877 31.171 14.4696 31.1862C13.9404 31.6141 13.4088 32.0381 12.8746 32.4581C12.3881 32.841 11.5807 33.2017 11.1744 32.451C10.9021 31.9481 11.1419 31.3647 11.4098 30.7947C11.6791 30.2231 11.9621 29.6636 12.2587 29.1163C12.2608 29.1123 12.2619 29.1078 12.2618 29.1033C12.2618 29.0987 12.2606 29.0943 12.2583 29.0904C12.2561 29.0865 12.253 29.0832 12.2492 29.081C12.2454 29.0787 12.2411 29.0776 12.2367 29.0776L8.96282 29.0736C8.94264 29.0736 8.92549 29.0813 8.91137 29.0965C7.96912 30.1123 6.77138 31.3473 5.31815 32.8015C4.99658 33.1236 4.54336 33.5428 4.10376 33.3849C4.08006 33.3765 4.06165 33.3612 4.04853 33.3391C3.93806 33.1536 4.03869 32.8962 4.12722 32.7202C4.49191 32.0018 5.33328 30.8065 6.14817 30.6407C6.17339 30.6355 6.19811 30.6378 6.22232 30.6478L6.38272 30.7141C6.40845 30.7247 6.43115 30.7191 6.45082 30.6976L7.90279 29.08C7.90854 29.0735 7.91241 29.0654 7.91394 29.0567C7.91547 29.048 7.9146 29.0391 7.91143 29.0309C7.90825 29.0227 7.90291 29.0156 7.89602 29.0104C7.88913 29.0053 7.88098 29.0023 7.87252 29.0018C7.50985 28.9834 7.14212 28.9629 6.76936 28.9402C6.54994 28.9271 6.42837 28.8302 6.40467 28.6497C6.34414 28.18 7.2309 27.3305 7.56684 27.0763C7.99585 26.7518 8.71767 26.74 9.22613 26.7605C9.2917 26.7637 9.29221 26.7716 9.22764 26.7842C8.88413 26.8521 8.40519 26.8726 8.21073 27.2247C8.20573 27.2336 8.20309 27.2437 8.2031 27.254C8.20311 27.2643 8.20576 27.2744 8.21078 27.2833C8.2158 27.2921 8.22301 27.2994 8.23165 27.3044C8.24029 27.3094 8.25005 27.3119 8.25991 27.3116L9.56888 27.2824C9.59753 27.2818 9.62486 27.27 9.6453 27.2492C11.8668 24.9779 14.1359 22.9174 16.8802 21.3535C16.8976 21.3435 16.9179 21.3402 16.9374 21.3445C16.9568 21.3487 16.9741 21.36 16.9861 21.3764C17.4196 21.9701 17.1858 22.6103 16.8249 23.2553C16.1364 24.4853 15.4643 25.7221 14.8085 26.9658C14.8051 26.9723 14.8034 26.9797 14.8034 26.9871C14.8035 26.9946 14.8054 27.0019 14.8089 27.0083C14.8124 27.0147 14.8174 27.0201 14.8234 27.0238C14.8294 27.0276 14.8363 27.0296 14.8433 27.0297ZM13.4004 27.0163L15.8595 22.7516C15.8616 22.7477 15.8624 22.7431 15.8618 22.7387C15.8611 22.7342 15.8591 22.7301 15.856 22.7269C15.8529 22.7238 15.8489 22.7218 15.8446 22.7213C15.8403 22.7207 15.836 22.7217 15.8322 22.724C14.0209 24.0008 12.347 25.4505 10.8105 27.0731C10.8085 27.0755 10.8072 27.0784 10.8067 27.0815C10.8062 27.0846 10.8065 27.0878 10.8077 27.0907C10.8089 27.0936 10.8109 27.0961 10.8134 27.0979C10.8159 27.0997 10.8188 27.1007 10.8219 27.1008L13.3422 27.051C13.3679 27.0505 13.3873 27.0389 13.4004 27.0163Z" fill="#294973" />
<path d="M31.9997 21.5242V23.6413C30.2178 23.8481 28.6379 24.4276 27.0119 25.1578C26.9907 25.1673 26.9708 25.1647 26.9521 25.1499L26.8553 25.0741C26.8528 25.072 26.8498 25.0707 26.8466 25.0703C26.8434 25.0699 26.8401 25.0704 26.8371 25.0717C26.8341 25.0731 26.8315 25.0753 26.8295 25.0781C26.8275 25.0808 26.8262 25.0841 26.8258 25.0875C26.6084 26.7323 25.9092 28.0022 24.7284 28.8975C23.0154 30.1954 20.7432 30.598 18.7253 30.3114C18.7031 30.3083 18.6865 30.3169 18.6754 30.3375L17.9899 31.6401C17.9773 31.6643 17.977 31.6888 17.9891 31.7135C18.2623 32.2535 17.6085 32.9956 17.1773 33.6287C17.0365 33.8356 16.8489 34.0495 16.5901 33.9872C15.6685 33.7637 17.5124 30.5356 17.7319 30.1243C17.7345 30.1195 17.7361 30.1141 17.7365 30.1086C17.737 30.103 17.7363 30.0974 17.7345 30.0921C17.7327 30.0868 17.7299 30.082 17.7262 30.0779C17.7224 30.0738 17.7179 30.0705 17.7129 30.0683C17.1583 29.8196 16.7225 29.3388 17.0993 28.6741C17.4716 28.0172 18.4991 27.6604 19.2065 27.4962C19.2338 27.4899 19.255 27.4746 19.2701 27.4504L21.6868 23.691C21.691 23.6845 21.6933 23.677 21.6935 23.6692C21.6938 23.6614 21.6919 23.6537 21.6881 23.647C21.6843 23.6403 21.6787 23.6348 21.672 23.6313C21.6654 23.6278 21.6579 23.6263 21.6504 23.627C19.7944 23.7913 18.1631 24.3889 16.4592 25.1389C16.4375 25.1489 16.4148 25.152 16.3911 25.1483C16.3114 25.1357 16.2569 25.0939 16.2277 25.0228C16.2166 24.9954 16.2171 24.9683 16.2292 24.9415C16.5979 24.122 17.0105 23.3276 17.467 22.5581C17.4812 22.5344 17.5008 22.5179 17.5261 22.5084C19.9851 21.5476 26.9226 19.8621 26.8 24.8949C26.7985 24.9581 26.8109 24.9612 26.8371 24.9044C27.2074 24.1002 27.6147 23.317 28.0591 22.555C28.0727 22.5318 28.0913 22.5157 28.1151 22.5068C29.3458 22.0305 30.6872 21.7084 31.9997 21.5242ZM21.4575 27.182C21.4801 27.1793 21.5029 27.1836 21.5232 27.1942C21.5435 27.2049 21.5604 27.2216 21.5717 27.2421C21.5831 27.2627 21.5884 27.2863 21.587 27.31C21.5857 27.3336 21.5778 27.3564 21.5642 27.3754C21.4522 27.5317 20.3937 27.6778 20.1516 27.7251C20.1268 27.7299 20.1082 27.7436 20.0956 27.7662L19.6938 28.4775C19.6797 28.5028 19.6865 28.5172 19.7142 28.5209C21.0116 28.6993 22.2615 28.5288 23.4641 28.0093C24.5294 27.5499 25.5297 26.6136 25.8361 25.4239C26.3324 23.4936 23.2794 23.5955 22.2762 23.6192C22.2499 23.6197 22.2371 23.6336 22.2376 23.661C22.2456 24.0341 22.1753 24.3465 22.0265 24.5981C21.4953 25.497 20.9546 26.3881 20.4043 27.2712C20.4018 27.2754 20.4005 27.2803 20.4005 27.2852C20.4004 27.2901 20.4017 27.295 20.4042 27.2991C20.4067 27.3032 20.4102 27.3065 20.4143 27.3086C20.4185 27.3106 20.4232 27.3114 20.4277 27.3107L21.4575 27.182Z" fill="#294973" />
<path d="M36.2123 22.1523C36.3157 22.5444 36.5611 22.8105 36.9485 22.9505C37.2582 23.5373 37.416 24.2284 37.4029 24.8895L36.4772 25.189C36.4938 23.7111 34.289 23.616 33.3613 23.6263L33.3636 21.4545C34.3699 21.4466 35.3543 21.6416 36.2123 22.1523Z" fill="#294973" />
<path d="M32.0042 24.1221L31.9998 25.6213L30.9986 27.2768C30.9961 27.2807 30.9947 27.2853 30.9947 27.29C30.9946 27.2947 30.9958 27.2994 30.9982 27.3034C31.0006 27.3074 31.0041 27.3106 31.0082 27.3126C31.0123 27.3146 31.0169 27.3153 31.0213 27.3147L31.9998 27.1923V27.4781L30.7543 27.7275C30.724 27.7339 30.7008 27.7507 30.6846 27.7781L30.2776 28.491C30.2758 28.4941 30.2748 28.4976 30.2746 28.5012C30.2745 28.5049 30.2752 28.5085 30.2767 28.5117C30.2782 28.515 30.2804 28.5179 30.2832 28.52C30.286 28.5222 30.2893 28.5236 30.2927 28.5241C30.8632 28.602 31.4192 28.6073 31.9998 28.5399V30.2751C31.0919 30.4304 30.2112 30.4396 29.3189 30.3028C29.2993 30.2996 29.2846 30.3072 29.275 30.3257L28.582 31.6417C28.5757 31.6536 28.5724 31.6668 28.5723 31.6802C28.5721 31.6935 28.5752 31.7066 28.5812 31.7183C28.7058 31.962 28.7081 32.1798 28.588 32.3719C28.3197 32.8004 28.0445 33.2235 27.7626 33.6414C27.6248 33.8451 27.4032 34.0796 27.1467 33.9738C26.3287 33.6359 28.0682 30.6091 28.327 30.1251C28.3296 30.1201 28.3312 30.1145 28.3317 30.1087C28.3321 30.103 28.3314 30.0972 28.3295 30.0917C28.3276 30.0863 28.3247 30.0813 28.3209 30.0772C28.3171 30.073 28.3124 30.0697 28.3073 30.0675C27.7467 29.8228 27.3086 29.3183 27.6929 28.6725C28.0909 28.0039 29.0798 27.6612 29.8024 27.4954C29.8271 27.4902 29.8466 27.4765 29.8607 27.4544L32.0042 24.1221Z" fill="#294973" />
<path d="M36.655 27.8105C36.6792 27.3503 36.7428 26.2672 36.3614 26.0496C36.1284 25.9406 35.8885 25.8748 35.6419 25.852C35.6151 25.8498 35.6018 25.8336 35.6018 25.8036V25.4151C35.6018 25.3867 35.6141 25.3698 35.6388 25.3642L36.6247 25.1291L37.516 24.8323L37.9511 24.6455C37.9572 24.6429 37.9638 24.642 37.9703 24.6429C37.9768 24.6438 37.983 24.6464 37.9884 24.6505C37.9937 24.6546 37.9981 24.6601 38.0011 24.6665C38.0041 24.6729 38.0001 24.68 38 24.6872L38.0018 31.5408C38.0018 32.3338 38.5783 32.4588 39.1526 32.4572C39.1814 32.4566 39.1958 32.4724 39.1958 32.5047V32.9482C39.1958 32.9827 39.1799 32.9999 39.1481 32.9999H35.5261C35.5009 32.9999 35.4883 32.986 35.4883 32.9583V32.5405C35.4883 32.5181 35.4963 32.4966 35.5106 32.4807C35.5249 32.4648 35.5444 32.4557 35.5647 32.4555C36.3471 32.4538 36.6308 32.2245 36.6436 31.3266C36.6603 30.1543 36.6641 28.9823 36.655 27.8105Z" fill="#5794DB" />
<path d="M45.0627 27.601C45.4894 26.1585 46.7129 24.8459 48.1656 24.6916C49.7204 24.5268 51.1399 25.9466 50.9886 27.6627C50.9545 28.0467 50.692 28.0678 50.4022 28.0954C49.0221 28.2263 47.6395 28.3192 46.2543 28.3738C46.2433 28.3742 46.2329 28.379 46.225 28.3873C46.2172 28.3955 46.2125 28.4067 46.212 28.4185C46.0758 31.2101 48.5779 32.8678 50.6118 30.8497C50.6334 30.8275 50.6529 30.8297 50.67 30.8562L50.8978 31.2077C50.9144 31.2337 50.9139 31.2594 50.8962 31.2848C50.1411 32.3377 48.9093 33.1779 47.6223 32.9676C45.2367 32.5771 44.4127 29.7985 45.0627 27.601ZM46.8997 26.0359C46.5825 26.444 46.3855 26.9465 46.3088 27.5434C46.3058 27.5683 46.3161 27.5807 46.3398 27.5807C47.3033 27.5921 48.2665 27.571 49.2294 27.5174C49.4269 27.506 49.5283 27.4054 49.5298 27.1951C49.5396 25.6049 47.962 24.6681 46.8997 26.0359Z" fill="#5794DB" />
<path d="M36.26 25.9605C36.6413 26.1665 36.7229 26.5958 36.6593 27.5215C35.8492 28.63 34.666 29.5149 33.3621 29.9349L33.3613 28.2921C34.6166 27.8618 35.6116 27.1913 36.26 25.9605Z" fill="#294973" />
</svg>