<!-- by TradeStack --><svg width="56" height="56" viewBox="0 0 56 56" xmlns="http://www.w3.org/2000/svg"><path fill="#F0F3FA" d="M0 0h56v56H0z"/><path d="m30.5 28.5 5.5-6V21l-7 7.5 6.77 8.5h-4.22l-5.05-6-9.13 9.22.54 1.06 8.59-8.78L31 38h7l-7.5-9.5ZM21 31l15.86-16.9.64.9L20 33.62V18h5v6.5l-1 .85V19h-3v12Z" fill="#9A8C67"/><path d="M28 45a17 17 0 0 0 9.2-31.3c-.17.2-.45.49-.69.75A15.99 15.99 0 0 1 28 44c-3.07 0-5.94-.87-8.38-2.37l-.76.7A16.92 16.92 0 0 0 28 45Zm-10.32-3.49.7-.72a16 16 0 0 1 16.64-27.17l.95-.64a17 17 0 0 0-18.28 28.54Z" fill="#9A8C67"/></svg>