<!-- by TradeStack --><svg width="56" height="56" viewBox="0 0 56 56" xmlns="http://www.w3.org/2000/svg"><path fill="#F0F3FA" d="M0 0h56v56H0z"/><path d="M33.7 28h5.42c.54 0 1.63.32 1.63 1.6 0 .9-.33 1.13-.63 1.34-.24.17-.46.44-.46.92 0 1.07 2.71 4.32 3.26 4.86.1.1.22.2.33.28.41.32.75.59.75 1.86 0 1.6-1.08 2.14-2.17 2.14H14.17a2.14 2.14 0 0 1-1.87-3.23l15.58-27.24a1.1 1.1 0 0 1 1.87 0c2.12 3.62 5.2 8.92 5.58 9.66.54 1.07 0 3.21-1.63 3.21S23 24.61 23 31.5a4.7 4.7 0 0 0 4.74 4.5c4.33 0 4.33-5.32 4.33-5.86 0-.53 0-2.14 1.63-2.14ZM14.06 39h27.23c-1.8-.9-4.88-3.48-4.88-5.24 0-.25.06-.46.14-.65.14-.3-.1-1.11-.43-1.11h-1.88c-.18 1.78-1.73 6.05-6.5 6.05-5.97 0-6.74-5.08-6.74-6.69 0-2.02 1.8-8.79 11.07-9.53.25-.02.4-.28.27-.5l-4.14-6.8a.55.55 0 0 0-.93 0L13.6 38.05c-.22.35.04.95.47.95Z" fill="#F80302"/><path d="M27.01 16h.8L30 21.34h-.38c-1.4 0-3.04.76-4.42 1.75-.69.5-1.3 1.03-1.78 1.55-.35.36-.61.7-.8 1l-.18.36-.44-.24a3 3 0 0 1 .2-.4L27.01 16Zm-3.4 7.71c.4-.36.84-.72 1.31-1.06a9.24 9.24 0 0 1 4.33-1.83l-1.76-4.29h-.19l-3.69 7.18Z" fill="#F80302"/></svg>