<?xml version='1.0' encoding='utf-8'?>
<!-- by TradeStack -->
<svg width="56" height="56" viewBox="0 0 56 56" xmlns="http://www.w3.org/2000/svg"><path fill="#F0F3FA" d="M0 0h56v56H0z" /><path d="M43.07 36.65c-.08 0-.13-.02-.13-.08a101.23 101.23 0 0 0-7.88-11.6c-1.19-1.53-5.55-7.07-7.3-6.75-.95.18-2.09 1.28-2.79 1.98a44.07 44.07 0 0 0-3.11 3.5 109.24 109.24 0 0 0-6.56 9.1 65.95 65.95 0 0 0-2.1 3.46c-.08.14-.16.43-.3.57l-.15.15c.93-1.9 1.97-3.9 3.14-6.02A793.67 793.67 0 0 1 27.94 10l.01.01a986.14 986.14 0 0 1 9.19 15.73c2.1 3.67 4.13 7.24 5.93 10.91Z" fill="#35E2B2" /><path d="M43.07 36.65c.2.4.38.8.54 1.23-.51-.78-.85-1.28-1.02-1.5a51.06 51.06 0 0 0-6.58-7.12 34.96 34.96 0 0 0-3.9-3.07c-.72-.49-1.48-.9-2.3-1.26a4.14 4.14 0 0 0-2.97-.27c-1.64.51-3.12 1.5-4.47 2.55a48.83 48.83 0 0 0-8.34 8.32c-.51.66-1.06 1.43-1.65 2.33l.37-.88.15-.15c.14-.14.22-.43.3-.57.59-1.04 1.29-2.2 2.1-3.46 2.01-3.12 4.2-6.15 6.55-9.1 1-1.23 2.04-2.4 3.12-3.5.7-.7 1.84-1.8 2.78-1.98 1.76-.32 6.12 5.22 7.3 6.74a101.22 101.22 0 0 1 7.89 11.6c0 .07.05.1.13.1Z" fill="#21C89E" /><path d="M43.6 37.88c.1.1.16.26.21.48-.36-.4-.66-.72-.9-.94-.64-.56-1.38-1.09-2.15-1.57a38.23 38.23 0 0 0-7.96-3.8c-1.49-.5-3.15-.98-4.73-.96-1.47.03-3.1.48-4.5.96a42.25 42.25 0 0 0-7.84 3.57c-.84.49-1.63 1.03-2.4 1.63-.45.37-.86.78-1.21 1.23.07-.24.16-.45.26-.62.59-.9 1.14-1.67 1.65-2.33a48.83 48.83 0 0 1 8.34-8.32 14.54 14.54 0 0 1 4.47-2.55c1.02-.32 2-.15 2.97.27.82.35 1.58.77 2.3 1.26 1.35.91 2.65 1.94 3.9 3.07a51.05 51.05 0 0 1 6.58 7.12c.17.22.5.72 1.02 1.5Z" fill="#1CB1B6" /><path d="M43.81 38.36a1.87 1.87 0 0 1 .19.6l-.01.02a.05.05 0 0 1-.04.02H12.02a.03.03 0 0 1-.02-.04l.12-.48c.35-.45.76-.86 1.22-1.23.76-.6 1.55-1.14 2.39-1.63a42.26 42.26 0 0 1 7.84-3.57c1.4-.48 3.03-.93 4.5-.96 1.58-.02 3.24.45 4.73.96 2.8.96 5.45 2.23 7.96 3.8.77.48 1.5 1 2.14 1.57.25.22.55.53.91.94Z" fill="#1BBDCC" /></svg>