<?xml version='1.0' encoding='utf-8'?>
<!-- by TradeStack -->
<svg width="56" height="56" viewBox="0 0 56 56" fill="none" xmlns="http://www.w3.org/2000/svg">
<rect width="56" height="56" fill="#69002A" />
<path fill-rule="evenodd" clip-rule="evenodd" d="M20 19V26L24 26V27L18 27V19H20Z" fill="white" />
<path fill-rule="evenodd" clip-rule="evenodd" d="M26 27H28V19L26 19V27Z" fill="white" />
<path fill-rule="evenodd" clip-rule="evenodd" d="M32 23C32 24.5 32.1875 26 34 26C35.8125 26 36 24.5 36 23C36 21.5 35.625 20 34 20C32.375 20 32 21.5 32 23ZM38 23C38 25.4365 36.9266 27 34 27C31.5386 27 30 25.7782 30 23C30 20.2987 31.6001 19 34 19C36.7334 19 38 20.6137 38 23Z" fill="white" />
<path fill-rule="evenodd" clip-rule="evenodd" d="M42 22.6932C42.6953 22.6932 42.898 22.6932 43 22.6932C44.3622 22.6932 44.7249 22.2402 44.7249 21.2507C44.7249 20.6501 44.4548 20.2475 43.9343 20.0628C43.6772 19.9646 43.6466 20 43 20C42.6522 20 42.5156 19.9875 42 20V22.6932ZM40 19C42 19 43 19 43 19C44.3593 19 45.0492 19.0964 45.5932 19.4146C46.2782 19.8168 46.6152 20.3918 46.6152 21.15C46.6152 22.1675 45.8011 22.9457 44.5336 23.2961C45.6736 25.5269 46.6152 26.2434 47.6391 26.1707L48 26V26.5C47.9618 26.6599 47.1209 27 46.5 27C45.514 27 44.8288 26.5843 44.1538 25.7052C43.7936 25.2256 43.5695 24.6048 43 23.5C42.5 23.5 42.5 23.5 42 23.5V27L40 27V19Z" fill="white" />
<path fill-rule="evenodd" clip-rule="evenodd" d="M13 37C14.5 37 15 36.5876 15 35.5C15 34.235 13.882 34 13 34H11V37H13ZM12 33C12.8791 33 14 33.1082 14 32C14 30.9116 13.3003 31 12.5 31C12.1484 31 11.5 31 11 31V33H12ZM10 30C10.6867 29.9882 10.9443 30.0105 11.5 30C11.9669 29.987 12.3059 30 12.5 30C13.6749 30 14.0084 30.1195 14.4604 30.487C14.8455 30.8186 15 31.4853 15 32C15 32.8047 14.9032 33.1716 14 33.5C14.5822 33.5967 14.837 33.6966 15.135 33.8887C15.676 34.233 16 34.8436 16 35.5C16 36.3792 15.6741 37.0336 15 37.5C14.4375 37.8892 13.9851 38 12.5 38H10V30Z" fill="#F1BD0E" />
<path fill-rule="evenodd" clip-rule="evenodd" d="M21 31L19.2 35H22L21 31ZM21.5 30L24 38H23L22.2 35.5H19L18 38H17L20.5 30H21.5Z" fill="#F1BD0E" />
<path fill-rule="evenodd" clip-rule="evenodd" d="M27 30L32 36V30H33V38L27 31.5V38H26V30H27Z" fill="#F1BD0E" />
<path fill-rule="evenodd" clip-rule="evenodd" d="M41.5 30L37.2656 33.5988L42 38H40.5L36.0699 33.5988L40 30H41.5ZM35 30H36V38H35V30Z" fill="#F1BD0E" />
<path fill-rule="evenodd" clip-rule="evenodd" d="M10.7859 24L12.2 21L13.5336 24H10.7859ZM13 19H10.3396L10.2495 19.0742C10.2495 19.0742 10.037 19.728 10.0191 19.8868C10.0457 20.1981 11.6036 19.9145 11.6036 19.9145L8 27L9.61555 27L10.4078 25H13.9107L14.6175 27H16.596L13 19Z" fill="white" />
</svg>