<?xml version='1.0' encoding='utf-8'?>
<!-- by TradeStack -->
<svg width="56" height="56" viewBox="0 0 56 56" xmlns="http://www.w3.org/2000/svg"><path fill="#F0F3FA" d="M0 0h56v56H0z" /><path d="M44.83 34c-.72.82-1.63 1.97-2.83 2-1.05.02-2.07-.93-2.58-1.76a65.24 65.24 0 0 1-2.55-4.8c-2.02-3.53-3.95-7.36-7.18-9.95A11.38 11.38 0 0 0 22.5 17c-6.73.06-11.15 7.07-11.48 13.14l-.02.75c.02 6.28 5.1 10.05 11 10.1 4.4.05 7.87-2.14 10.55-5.56.33-.42.46-1.01.45-1.53a2.7 2.7 0 0 0-.4-1.33C31.05 29.79 29.99 26.5 28 24c1.02 1.6 1.04 4.2 1 6.1-.09 3.8-4.33 8.65-8.32 8.56-3.34-.08-3.72-4.62-3.68-7.16.06-3.65 1.17-11.36 6.19-11.5 1.34-.04 2.54.68 3.51 1.54 4.1 3.66 6.38 9.4 9.06 14.08C36.86 37.53 38 40 40.67 40c2.33 0 3.96-2.05 4.24-4.23.06-.52.06-1.17.09-1.69l-.17-.07" fill="#3F8096" /><path d="m38.62 30-.12-.2c-1.3-2.2-2.75-4.29-4.16-6.4a1.98 1.98 0 0 1-.15-1.95v-.01c1.34-2.9 3.55-6.67 7.81-8.44-1.93 2.52-4.04 7.95-4 13 .01 1.38.2 2.74.62 4" fill="#333" /></svg>