<?xml version='1.0' encoding='utf-8'?>
<!-- by TradeStack -->
<svg width="56" height="56" viewBox="0 0 56 56" xmlns="http://www.w3.org/2000/svg"><path fill="#F0F3FA" d="M0 0h56v56H0z" /><path d="M20 33.98V22h5v7h3v5l-8-.02Z" fill="url(#anf2csrhh)" /><path d="M12.62 22h.99L19 33.68l-.66.81-4.47-2.3L6.75 37 6 36.1 12.62 22Z" fill="url(#bnf2csrhh)" /><path d="M32.67 34c-1.55 0-2.9-.78-3.67-1.96L34.32 26A4.16 4.16 0 0 1 37 29.84 4.24 4.24 0 0 1 32.67 34Z" fill="url(#cnf2csrhh)" /><path d="M33.33 22c1.55 0 2.9.78 3.67 1.96L31.68 30A4.16 4.16 0 0 1 29 26.16 4.24 4.24 0 0 1 33.33 22Z" fill="url(#dnf2csrhh)" /><path d="M44 22a6 6 0 0 0 0 12V22Z" fill="url(#enf2csrhh)" /><path d="M44 22a6 6 0 0 1 0 12V22Z" fill="url(#fnf2csrhh)" /><defs><linearGradient id="anf2csrhh" x1="18" y1="23.5" x2="29.5" y2="33" gradientUnits="userSpaceOnUse"><stop offset=".21" stop-color="#7151F8" /><stop offset=".48" stop-color="#FF771F" /></linearGradient><linearGradient id="bnf2csrhh" x1="19.5" y1="33" x2="5.5" y2="33" gradientUnits="userSpaceOnUse"><stop offset=".3" stop-color="#00697C" /><stop offset=".6" stop-color="#87E670" /></linearGradient><linearGradient id="cnf2csrhh" x1="35.5" y1="26.5" x2="29.5" y2="33" gradientUnits="userSpaceOnUse"><stop stop-color="#7C53FA" /><stop offset="1" stop-color="#1472EC" /></linearGradient><linearGradient id="dnf2csrhh" x1="36" y1="22.5" x2="29.5" y2="29" gradientUnits="userSpaceOnUse"><stop stop-color="#E0F72D" /><stop offset="1" stop-color="#FFB495" /></linearGradient><linearGradient id="enf2csrhh" x1="40" y1="22" x2="45.5" y2="34.5" gradientUnits="userSpaceOnUse"><stop stop-color="#DFDFDF" /><stop offset=".55" stop-color="#6F6F6F" /></linearGradient><linearGradient id="fnf2csrhh" x1="49" y1="23" x2="43" y2="34.5" gradientUnits="userSpaceOnUse"><stop stop-color="#020202" /><stop offset=".54" stop-color="#707070" /></linearGradient></defs></svg>