<?xml version='1.0' encoding='utf-8'?>
<!-- by TradeStack -->
<svg width="56" height="56" viewBox="0 0 56 56" xmlns="http://www.w3.org/2000/svg"><path fill="#F0F3FA" d="M0 0h56v56H0z" /><path d="M39.98 20.24v2.92l1.24-.16a1.01 1.01 0 0 0 .86-1.12l-.73-5.97a1 1 0 0 0-.37-.66.99.99 0 0 0-.73-.2l-5.92.73a.98.98 0 0 0-.83.72 1 1 0 0 0-.03.4l.28 2.33h5.22a.99.99 0 0 1 .93.62c.05.12.08.25.08.39ZM20.5 35.37l.42 3.37a1 1 0 0 0 1.12.87l4.13-.49-.46-3.75h-5.2Z" fill="#A6D5CE" /><path d="m32.05 37.39-.24-2.02h-3.3l.28 2.39c.03.26-.04.53-.2.74a.99.99 0 0 1-.66.38l-1.9.24.75 4c.03.26.16.5.37.67.2.16.47.23.73.2l9.79-1.22c.26-.03.5-.17.65-.38.16-.2.24-.47.21-.73l-.62-4.04-4.78.49c-.26.03-.5.11-.7-.05-.21-.17-.34-.4-.38-.67Z" fill="#A6D5CE" /><path d="m44 35.96-.77-5.82a1 1 0 0 0-.4-.67c-.21-.16-.49-.24-.76-.2l-2.08.26.02 5.06a1 1 0 0 1-.3.7c-.2.2-.47.3-.74.3l-1.4-.03.3 2.1 5.23-.57c.27-.04.52-.18.68-.39a.98.98 0 0 0 .21-.74Z" fill="#A6D5CE" /><path d="m28.83 37.76-.29-2.39h-2.96l.45 3.75 1.95-.24c.25-.04.49-.17.65-.38.16-.21.23-.48.2-.74ZM31.58 35.37l.25 2.02a1.01 1.01 0 0 0 1.11.87l4.96-.61-.29-2.28h-6.03Z" fill="#66B7AB" /><path d="M17.04 19.34h6.38l.6-2.06c.08-.26.05-.53-.07-.77a.99.99 0 0 0-.57-.5l-9.29-2.97a.93.93 0 0 0-.73.08c-.23.13-.4.34-.48.6l-2.84 9.7c-.07.26-.05.54.07.78.12.23.33.41.58.5l5.4 1.7v-6.05c0-.27.08-.53.26-.72.18-.18.43-.29.69-.29Z" fill="#F08700" /><path d="M32.02 30.57c-.27.04-.52.19-.69.41-.17.22-.25.5-.21.79l.5 4.23h6.28l-.73-6.07-5.15.64Z" fill="#008773" /><path d="m21.38 34.15 3.98-.52-.49-4.21c-.03-.28.04-.57.2-.79a1 1 0 0 1 .67-.4l9.93-1.3c.27-.03.53.05.74.22.2.17.34.43.38.7l.2 2.14L40 29.6v-6.44l-4.7.61a.96.96 0 0 1-.72-.22c-.2-.17-.34-.42-.37-.7L33.75 19H23.57l-2.3 8c-.07.26-.24.49-.48.62a.95.95 0 0 1-.76.08L16 26.4v8.54a1.12 1.12 0 0 0 .3.75 1 1 0 0 0 .7.31h3.72l-.07-.67c-.03-.28-.09-.56.07-.78a1 1 0 0 1 .66-.4Z" fill="#4CAB9D" /><path d="m27.34 33.34-1.98.27.27 2.39h3.02l-.2-1.72a1.1 1.1 0 0 0-.37-.72.95.95 0 0 0-.74-.22Z" fill="#008773" /><path d="m35.3 23.78 4.7-.61v-3.1c0-.28-.1-.55-.3-.75a.97.97 0 0 0-.7-.3h-5.26l.45 3.84c.04.27.17.52.38.7.2.17.46.25.72.22ZM25.37 33.63l-3.99.52a1 1 0 0 0-.66.4c-.16.22-.24.5-.2.78l.07.67h5.05l-.27-2.37Z" fill="#269988" /><path d="m32.05 30.62 4.95-.64-.18-2.18a1.08 1.08 0 0 0-.38-.7.96.96 0 0 0-.74-.22l-9.96 1.35a1 1 0 0 0-.67.4c-.16.23-.24.5-.2.79l.48 4.2 1.98-.25c.27-.04.53.04.74.22.2.17.35.42.38.7l.2 1.7h3.02l-.49-4.19c-.03-.28.04-.56.2-.78a1 1 0 0 1 .67-.4ZM37.7 36H39c.27 0 .52-.12.7-.31.2-.2.3-.47.3-.75v-5.36l-3 .4.7 6.02ZM21.28 27.04l2.3-8.04h-6.57a.97.97 0 0 0-.7.31c-.2.2-.3.47-.3.76v6.36l4.02 1.31c.26.08.53.05.76-.08.23-.13.4-.35.49-.62Z" fill="#269988" /></svg>