<!-- by TradeStack --><svg viewBox="0 0 56 56" xmlns="http://www.w3.org/2000/svg"><path fill="#181B1E" d="M0 0h56v56H0z"/><rect x="29" y="15" width="4" height="24" rx="2" fill="#fff"/><rect x="38" y="15" width="4" height="24" rx="2" fill="#fff"/><rect width="4" height="10" rx="2" transform="matrix(0 -1 -1 0 45 25)" fill="#fff"/><rect width="4" height="11" rx="2" transform="matrix(1 0 0 -1 23 39)" fill="#fff"/><path fill-rule="evenodd" d="M18 39a9 9 0 1 0 0-18 9 9 0 0 0 0 18Zm0-4a5 5 0 1 0 0-10 5 5 0 0 0 0 10Z" fill="#fff"/></svg>