<?xml version='1.0' encoding='utf-8'?>
<!-- by TradeStack -->
<svg width="56" height="56" viewBox="0 0 56 56" xmlns="http://www.w3.org/2000/svg"><path fill="#F0F3FA" d="M0 0h56v56H0z" /><path fill-rule="evenodd" d="m14.27 19.82 11.6-9.09a3.39 3.39 0 0 1 4.21 0l11.65 9.12A3.3 3.3 0 0 1 43 22.43v15.24A3.36 3.36 0 0 1 39.61 41H16.4A3.36 3.36 0 0 1 13 37.67V22.43c0-1 .47-1.97 1.27-2.6Zm24.85 7.26c.32-.2.74-.02.84.34.07.26.05.53-.08.82C37.55 32.87 33.1 36 28 36c-5.1 0-9.53-3.13-11.87-7.76a1.1 1.1 0 0 1-.11-.74c.09-.42.52-.62.87-.42 2.47 1.38 6.53 2.27 11.11 2.27 4.58 0 8.64-.91 11.12-2.27Z" fill="#FF0032" /></svg>