<?xml version='1.0' encoding='utf-8'?>
<!-- by TradeStack -->
<svg width="56" height="56" viewBox="0 0 56 56" xmlns="http://www.w3.org/2000/svg"><path fill="#D4FD37" d="M0 0h56v56H0z" /><path fill-rule="evenodd" d="m43.27 32.18-11.1 11.09A5.7 5.7 0 0 1 28 45a5.7 5.7 0 0 1-4.18-1.73l-11.09-11.1A5.7 5.7 0 0 1 11 28a5.7 5.7 0 0 1 1.73-4.18l11.1-11.09A5.7 5.7 0 0 1 28 11a5.7 5.7 0 0 1 4.18 1.73l11.09 11.1A5.7 5.7 0 0 1 45 28a5.7 5.7 0 0 1-1.73 4.18Zm-2.17-6.35c.6.6.9 1.32.9 2.17 0 .85-.3 1.57-.9 2.17L30.17 41.1c-.6.6-1.32.9-2.17.9-.85 0-1.57-.3-2.17-.9L14.9 30.17c-.6-.6-.9-1.32-.9-2.17 0-.85.3-1.57.9-2.17L25.83 14.9c.6-.6 1.32-.9 2.17-.9.85 0 1.57.3 2.17.9L41.1 25.83Zm-11.2 8.93-.55.3a6.62 6.62 0 0 1-4.01.9c-2.36-.2-3.76-1.34-4.2-3.4a7.72 7.72 0 0 1 .05-3.2c.43-1.57 1.58-2.6 3.44-3.09 1.06-.28 2.66-.29 4.9-.26h.42c.03 0 .05 0 .05-.04v-1.63c-.04-1.38-.73-2.08-2.19-2.1-1.7-.01-3.44.07-5.22.24-.4.04-.6-.11-.6-.44-.01-.7-.02-1.36-.01-2 0-.32.26-.53.77-.62a26 26 0 0 1 5.2-.42c1.25.03 2.35.26 3.27.7a4.49 4.49 0 0 1 2.3 2.3c.32.77.48 1.74.48 2.92v10.44c0 .4-.18.63-.55.63h-2.79a.85.85 0 0 1-.37-.08c-.2-.09-.29-.3-.3-.66v-.45c0-.05-.03-.07-.08-.04Zm-.25-2.5a6 6 0 0 1-2.93.63c-1.1-.05-1.67-.56-1.71-1.53a4.1 4.1 0 0 1 .16-1.58c.2-.5.56-.85 1.1-1.04.46-.15.91-.23 1.38-.24.73-.01 1.5-.02 2.3 0 .03 0 .05.02.05.05V32c0 .06-.03.1-.08.12l-.27.12Z" fill="#F3323E" /></svg>