<?xml version='1.0' encoding='utf-8'?>
<!-- by TradeStack -->
<svg width="56" height="56" viewBox="0 0 56 56" xmlns="http://www.w3.org/2000/svg"><path fill="#F0F3FA" d="M0 0h56v56H0z" /><path d="M23.5 18 26 38h-4.8l-.38-3H16.1l-1.31 3H10l8.65-20h4.85Zm-5.65 13h2.46l-.56-4.35-1.9 4.35Z" fill="#A42E2F" /><path fill-rule="evenodd" d="M34.92 18h-3.74L28 38H37.9c3.59 0 5.48-3.18 5.48-6.27 0-2.9-.9-3.56-2.04-4.37l-.21-.16c2.1-.7 2.87-2.48 2.87-4.97 0-3.38-2.9-4.23-4.36-4.23H34.92Zm-.02 5-.48 3h2.88c.94 0 1.7-.67 1.7-1.5s-.76-1.5-1.7-1.5h-2.4Zm-1.12 7-.47 3h3.24c.8 0 1.45-.67 1.45-1.5s-.65-1.5-1.45-1.5h-2.77Z" fill="#002555" /></svg>