<!-- by TradeStack --><svg width="56" height="56" viewBox="0 0 56 56" xmlns="http://www.w3.org/2000/svg"><path fill="#F0F3FA" d="M0 0h56v56H0z"/><path fill-rule="evenodd" d="M44 22H33v16h11V22Zm-10 8v6h2.77c.48 0 .9-.07 1.22-.22.33-.14.58-.34.75-.59.17-.25.26-.53.26-.85a1.4 1.4 0 0 0-.73-1.26 1.54 1.54 0 0 0-.7-.2v-.05c.23-.05.43-.13.6-.24.18-.11.32-.26.42-.43a1.36 1.36 0 0 0-.09-1.41c-.15-.24-.4-.42-.71-.55-.32-.13-.72-.2-1.2-.2H34Zm2.49 4.96h-1.12v-1.6h1.15c.22 0 .4.05.57.12.16.07.28.17.37.3.08.12.13.27.13.44 0 .22-.1.4-.27.54s-.45.2-.83.2Zm-.1-2.45h-1.02v-1.48h1.04c.3 0 .54.06.7.2.17.13.25.3.25.52 0 .16-.04.3-.13.4-.08.12-.2.2-.34.27-.15.06-.32.1-.5.1Z" fill="gray"/><path fill-rule="evenodd" d="M33 27h-9v11h9V27Zm-6.32 3H25v6h1.32v-3.92l1.73 3.9h.9l1.73-3.89V36H32v-6h-1.68l-1.82 4-1.82-4Z" fill="#010101"/><path fill-rule="evenodd" d="M24 27H12v16h12V27Zm-7 9h1.41l.46-1.37h2.26l.46 1.37H23l-2.15-6h-1.7L17 36Zm3.8-2.36-.77-2.27h-.05l-.77 2.27h1.58Z" fill="#2F28AC"/><path d="M25.84 9.05c.24.03.15.2.12.3-.04.15-.2.69-.6.65l-.08-.01c-.12-.01-.2-.1-.25-.23a.9.9 0 0 1 0-.5c.03-.1.03-.28.28-.26l.53.05ZM23.71 9.98l-.64-.44a.16.16 0 0 1-.02-.23l.27-.27a.14.14 0 0 1 .2.02l.45.56c.03.05.04.11.01.17l-.06.13a.14.14 0 0 1-.2.06ZM27 10.64c.03.2-.1.4-.26.35l-.42-.1c-.4-.1-.43-.3-.09-.6a4 4 0 0 1 .33-.27c.04-.03.09-.03.14.01.15.13.25.33.3.61ZM26.12 13.1c.18.55.5.95.7.9.21-.06.24-.55.06-1.1s-.5-.95-.7-.9c-.21.06-.24.55-.06 1.1ZM23.77 23.6c-.12-.3-.18-.62-.17-.99.05-1.2.06-2.42.02-3.63 0-.27-.18-.54-.38-.73a5.62 5.62 0 0 1-1.1-1.44 5.72 5.72 0 0 0-1-1.33c-.15-.16-.38.04-.52.13-.96.65-1.87 1.36-2.82 1.98-.44.29-.88.6-1.32.91-.13.1-.2.24-.2.42-.04.6-.05 1.14-.05 1.66.01.96-.05 1.91-.1 2.86 0 .11-.02.23-.06.35-.04.1-.16.12-.23.05-.2-.21-.48-.44-.45-.76.05-.42.07-.84.08-1.25 0-.51.08-.97.07-1.49l-.02-.93c0-.09-.1-.14-.18-.1l-.35.16a.25.25 0 0 1-.33-.12c-.09-.2.03-.41.19-.54.66-.54 1.35-1.06 2.01-1.6.62-.53 1.2-.97 1.88-1.54.37-.31.77-.58 1.18-.8.4-.21.62-.5.87-.83a.1.1 0 0 1 .13-.02l.03.03c.13.27.33.54.58.72.54.4.66.97 1.07 1.43a181.2 181.2 0 0 0 3.22 3.6c.27.29.2.6.06.93-.1.27-.25.29-.44.06a7.72 7.72 0 0 0-.7-.76c-.11-.1-.22-.48-.39-.5-.04 0-.08.02-.08.07.07 1.44.09 2.75.04 3.93 0 .08.05.16.13.2l.08.01h.62c.05 0 .1.04.1.09l.01.37c.01.22-.44.58-.68.61-.16.02-.29-.07-.42-.14l-1.04.07c-1.27.08-2.55-.04-3.8-.17a1.77 1.77 0 0 0-.38 0c-1.25.16-2.64.21-3.84.64-.58.2-1.12.46-1.62.75-.1.06-.64.07-.41-.12a10.5 10.5 0 0 1 2-1.4c.8-.38 1.68-.63 2.65-.76.34-.05 1.14-.28 1.44-.19.16.05.33.11.5.06.54-.17.9.07 1.41.07.88 0 1.76.07 2.66.06.06 0 .08-.03.05-.08ZM24.86 14.19l.14 1.45c0 .07-.05.14-.15.18l-.39.15c-.2.08-.46-.02-.46-.17v-1.53c0-.04.02-.07.06-.1a.3.3 0 0 1 .12-.08l.24-.07c.2-.06.43.03.44.17Z" fill="#082D61"/><path fill-rule="evenodd" d="m24.21 12.68-.6.21c-.23.08-.43.28-.58.49-.07.1-.01.23.08.26.23.06.43 0 .59-.14.17-.17.5-.18.71-.24.04-.01.07 0 .1.04l.28.52c.1.18.29.18.46.18h.08c.05 0 .1-.02.13-.07.57-.83.62-1.53.47-2.53-.06-.4-.51-1.8-1.11-1.3l-.38.31a.18.18 0 0 0-.07.12 7.6 7.6 0 0 0-.07 1.98c.01.07-.03.15-.09.17Zm.6-.47c0 .4.13.77.29 1.11.03.07.1.1.16.05.48-.42.21-1.68.1-2.24-.06-.26-.17-.44-.34-.53-.12-.07-.27.04-.26.2l.04 1.4Z" fill="#082D61"/></svg>