<!-- by TradeStack --><svg viewBox="0 0 56 56" xmlns="http://www.w3.org/2000/svg"><path fill="#F0F3FA" d="M0 0h56v56H0z"/><path d="m43.16 18-2.1.3c-.2.02-.2.04 0 .05l.63.04c.11 0 .12.04.04.12A40.67 40.67 0 0 1 36 22.43l-.38-.92.55-1.34.57-1.27a.5.5 0 0 0 .07-.17l.35-.6c.02-.02.05-.11.08-.13h5.92Z" fill="#BBB"/><path d="M49.78 18c.12 0 .16.08.12.2l-.46 1.48-.55 1.22-.85 1.69a.95.95 0 0 1-.25.43.34.34 0 0 1-.25.1l-6.96.01c-.2 0-.32.13-.34.4l-1.65 3.67-.2.3a.15.15 0 0 1-.12 0c-.02-.02-.05-.05-.07-.1-.74-1.64-1.47-3.3-2.2-4.97a40.67 40.67 0 0 0 5.73-3.92c.08-.08.07-.11-.04-.12l-.63-.04c-.2-.01-.2-.03 0-.05l1.68-.3h7.04Z" fill="#A2A2A2"/><path d="m35.62 21.51.38.92c.73 1.67 1.46 3.33 2.2 4.97.02.05.05.08.08.1.03.02.07.02.12 0a.7.7 0 0 1-.44.5l-2.53-5.44c-.03-.45.03-.8.2-1.05ZM48.04 22.59c-.18.89-.33 1.1-.93 1.1h-6.75s-.1-.06-.12-.17c.02-.26.14-.39.34-.39h6.97c.09 0 .17-.04.24-.1.12-.13.2-.27.25-.44Z" fill="#1A1A1A" fill-opacity=".96"/><path d="M30.47 18c.14 0 .17.11.2.2l1.24 2.85a10.22 10.22 0 0 0-2.93 5.42v.12c.02.04.05.08.08.1a.2.2 0 0 0 .22 0 19.3 19.3 0 0 0 3.7-3.24l1.3 2.96c-1.73.07-3.37.52-4.94 1.37l-3.92-9.01a.6.6 0 0 0-.14-.29l-.03-.14v-.28l.03-.06h5.2Z" fill="#A2A2A2"/><path d="m29.34 27.78.33.73 1.65 3.69 2.26 5.11c.02.04.05.08.09.1.03.02.07.04.12.04h2.32l2.57.05v.5H33.4c-.08 0-.14-.04-.17-.12l-8.08-18.36a2.49 2.49 0 0 1 .11-1.52l4.08 9.78Z" fill="#1A1A1A" fill-opacity=".96"/><path d="m31.9 21.05 1.08 2.4a19.3 19.3 0 0 1-3.7 3.25.2.2 0 0 1-.22 0 .21.21 0 0 1-.07-.1.22.22 0 0 1-.01-.13 10.22 10.22 0 0 1 2.93-5.42ZM34.27 26.41l2.08 4.72c-2.25-.3-4.8-1.61-6.68-2.62l-.33-.73c1.57-.85 3.2-1.3 4.93-1.37Z" fill="#BBB"/><path d="m36.35 31.13 2.7 6.12v.09c0 .07-.03.12-.1.14a.47.47 0 0 1-.27.02l-2.57-.05c-1.05-1.33-2.11-2.6-3.19-3.83a8.29 8.29 0 0 0-1.6-1.42l-1.65-3.69c1.87 1.01 4.43 2.32 6.68 2.62Z" fill="#A2A2A2"/><path d="M36.12 37.45h-2.33a.21.21 0 0 1-.12-.04.24.24 0 0 1-.09-.1l-2.26-5.11c.59.4 1.12.87 1.6 1.42 1.08 1.23 2.14 2.5 3.2 3.83ZM43.32 28h4.87a.2.2 0 0 1 .12.04c.03.02.06.06.08.1l1.61 4-1.38 3.4.82-2.3c0-.02 0-.04-.02-.05-.02-.02-.04-.01-.06.02l-.37.75c-.05.09-.12.13-.21.1-1.7-.32-4.61-1.05-6.38-2.3l.58-.05h.4l.33-.04c.19.05.34.05.46 0 .1-.03.13-.1.08-.2l-1.17-2.72c.07-.07.04-.13-.1-.19-.06-.2-.08-.37-.08-.53l.42-.03Z" fill="#BBB"/><path d="M43.7 31.67c-.13-.72-.63-1.22-.75-1.8-.1-.46-.05-.83.13-1.12l1.17 2.72c.05.1.02.17-.08.2a.74.74 0 0 1-.46 0Z" fill="#1A1A1A" fill-opacity=".96"/><path d="m41.92 31.72.48.04c1.77 1.25 4.67 1.98 6.38 2.3.09.02.16-.01.2-.1l.38-.75c.02-.03.04-.04.06-.02.02.01.03.03.02.06l-.82 2.28-.35.83-.34.61a.27.27 0 0 0-.15.2h-4.81a.55.55 0 0 1-.32-.1.63.63 0 0 1-.22-.27l-1.91-4.55c-.04.03-.07-.02-.12-.16v-.3l1.52-.07Z" fill="#A2A2A2"/><path d="M47.78 37.16a1.1 1.1 0 0 1-.63.7c-.1.03-.17.02-.23-.01l-4.28-.15c-.1 0-.2-.03-.27-.1a.58.58 0 0 1-.2-.23c-.52-1.12-1.65-2.85-1.93-4.8l.28-.32 1.91 4.55c.05.11.12.2.22.27s.2.1.32.1h4.81Z" fill="#1A1A1A" fill-opacity=".96"/><path d="M47.22 38h-4.85c-.04 0-.09-.02-.13-.04a.27.27 0 0 1-.1-.1 19.88 19.88 0 0 1-2.03-4.88c.03-.14.06-.25.1-.33.06-.13.09-.12.1.02.41 1.73 1.2 3.26 1.86 4.7.05.1.11.18.2.24.08.06.17.09.27.1l4.97-.24-.4.52Z" fill="#565856" fill-opacity=".77"/><path d="M21.3 18c.51 0 .7.25.76.67-.68.46-.1 1.42.22 1.88v.03h-.02a4.7 4.7 0 0 1-1.1-2c-.02-.1-.08-.15-.18-.15l-6.25-.12c.35-.21.87-.3 1.67-.3h4.9Z" fill="#818180"/><path d="m22.06 18.67 3.3 7.43c-4-2.86-6.56-4.7-7.67-5.55a6.37 6.37 0 0 0-3.28-1.38v-.14l.13-.36c.1-.13.17-.25.2-.36l6.24.12c.1 0 .16.05.18.15a4.7 4.7 0 0 0 1.12 2 .02.02 0 0 0 0-.03c-.33-.46-.9-1.42-.22-1.88Z" fill="#A2A2A2"/><path d="m25.36 26.1.68 1.56c-1.81.52-3.64.53-5.49.05l-2.12-4.77c-.05-.1-.1-.12-.19-.04a.69.69 0 0 0-.13.3l-.78 1.76c-.1.17-.18.34-.2.5l-.92 2.06-1.02 2.33c-1.6.6-3.97 1.2-5.5.08l1.36-3.16.21-.48 1.72-3.9 1.43-3.22c1.1.1 2.2.56 3.28 1.38 1.11.84 3.67 2.7 7.67 5.55Z" fill="#BBB"/><path d="m14.8 18.28-.4.9-1.42 3.21-.55.68c.48-1.49 1.33-3.75 2.37-4.79Z" fill="#606261" fill-opacity=".67"/><path d="m12.98 22.39-1.72 3.9.05-.7 1.12-2.52.55-.68Z" fill="#565856" fill-opacity=".77"/><path d="m20.55 27.71 2.57 5.77 1.6 3.58c.02.05.06.1.1.14l.18.06 1.25.04h3.94c-.08.15-.28.7-.65.7H25s-.25-.02-.35-.09a.7.7 0 0 1-.26-.27 62.28 62.28 0 0 1-2.46-5.41l-1.3-3.12a94.04 94.04 0 0 0-1.42-3.08 13.4 13.4 0 0 1-1.1-2.82.69.69 0 0 1 .13-.31c.08-.08.14-.07.19.04l2.12 4.77Z" fill="#1A1A1A" fill-opacity=".96"/><path d="m11.45 25.9-1.77 4.03-3.21 7.34c0 .04-.03.12-.11.27a.16.16 0 0 1-.04.04.14.14 0 0 1-.06.03.2.2 0 0 1-.08 0c-.08-.02-.1-.06-.07-.14l1.48-3.5 3.77-8.46c.08-.06-.03.42.09.38Z" fill="#565856" fill-opacity=".77"/><path d="m26.05 27.66.82 1.85c-1.47.81-3.11 2.28-3.75 3.97l-2.57-5.77c1.85.48 3.68.47 5.5-.05Z" fill="#A2A2A2"/><path d="m26.86 29.51.83 1.86-.73 5.76c-.01.07-.05.1-.11.08l-.1-.01c-.05-.02-.07-.05-.06-.1l.93-5.5c0-.02 0-.03-.03-.04l-.07-.01c-.04 0-.06 0-.06.04l-1.2 5.71-1.26-.04a.32.32 0 0 1-.17-.06.35.35 0 0 1-.12-.14l-1.6-3.58c.64-1.69 2.28-3.16 3.75-3.97Z" fill="#BBB"/><path d="m15.18 29.85-.62 1.8a.86.86 0 0 0-.17.28l-2.12 4.62c-.1.07-.14.17-.15.32l-.15.4h-5.5l3.21-7.34c1.54 1.13 3.9.52 5.5-.08Z" fill="#A2A2A2"/><path d="M30.27 37.12a.24.24 0 0 0-.03.09.15.15 0 0 1-.1.1.45.45 0 0 1-.23 0h-3.66l1.2-5.72c.01-.03.03-.05.07-.04l.08.01c.02 0 .02.02.02.04l-.93 5.5c-.01.05 0 .09.06.1l.1.01c.06.02.1-.01.1-.08l.74-5.76 2.58 5.75Z" fill="#818180"/><path d="m7.59 33.97-1.48 3.5c-.03.08-.01.12.07.14h.08l.06-.03a.16.16 0 0 0 .04-.04c.08-.15.12-.24.1-.27h5.5a1.3 1.3 0 0 1-.77.73H6.23l-.16-.17c-.07-.07-.09-.15-.05-.24l1.57-3.62Z" fill="#1A1A1A" fill-opacity=".96"/></svg>