<?xml version='1.0' encoding='utf-8'?>
<!-- by TradeStack -->
<svg width="56" height="56" viewBox="0 0 56 56" xmlns="http://www.w3.org/2000/svg"><path fill="url(#azoq0x5dz)" d="M0 0h56v56H0z" /><path d="m13.26 27 4.66-6 4.7 6h-1.3l-.79-1h-5.2l-.78 1h-1.29Zm2.86-2h3.62l-1.82-2.3-1.8 2.3ZM33.38 27l4.66-6 4.7 6h-1.3l-.8-1h-5.19l-.78 1h-1.3Zm2.85-2h3.63l-1.82-2.3-1.8 2.3ZM23 21v6h1v-3.87l4.03 2.8 3.97-2.8V27h1v-6l-4.97 3.7L23 21ZM9.54 28c1.74.03 2.9.58 3.26.86l-.64.85c-.16-.16-1.02-.7-2.62-.71-2-.02-3.51.62-3.54 2.07-.03 1.46 1.79 1.95 3.54 1.93 1.4-.01 2.21-.4 2.46-.61v-.95H9v-.94h4v2.55c-.5.32-1.88.96-3.46.95-1.99-.02-4.5-.5-4.54-2.93-.04-2.42 2.36-3.1 4.54-3.07ZM14 28h6a2 2 0 1 1 0 4h-.02L22 34h-1.42l-2.02-2H15v2h-1v-6Zm1 3h5a1 1 0 1 0 0-2h-5v2Z" fill="#fff" /><path fill-rule="evenodd" d="M44 28h-1v6h1v-2h5a2 2 0 1 0 0-4h-5Zm0 1v2h5a1 1 0 1 0 0-2h-5ZM28 34c3.4.03 5-1.34 5-3s-1.65-2.98-5-3c-3.35-.02-5 1.34-5 3s1.6 2.97 5 3Zm0-1c2.71.02 4-.9 4-2s-1.32-1.99-4-2c-2.68-.01-4 .9-4 2s1.29 1.98 4 2Z" fill="#fff" /><path d="M35 28h-1v3.51c0 1.38 1.27 2.49 2.84 2.49h2.32c1.57 0 2.84-1.11 2.84-2.49V28h-1v3.16c0 1.02-.9 1.84-2.01 1.84H37c-1.1 0-2.01-.82-2.01-1.84V28Z" fill="#fff" /><defs><linearGradient id="azoq0x5dz" x1="10.42" y1="9.71" x2="68.15" y2="76.02" gradientUnits="userSpaceOnUse"><stop stop-color="#1A1E21" /><stop offset="1" stop-color="#06060A" /></linearGradient></defs></svg>