<?xml version='1.0' encoding='utf-8'?>
<!-- by TradeStack -->
<svg width="56" height="56" viewBox="0 0 56 56" fill="none" xmlns="http://www.w3.org/2000/svg">
<rect width="56" height="56" fill="#F0F3FA" />
<path d="M20.5782 23.9519C18.1564 18.4051 19.6677 13.1297 24.5679 10.0138C24.5785 10.0069 24.5903 10.0025 24.6025 10.0008C24.6148 9.99908 24.6273 10.0002 24.6391 10.0039C24.651 10.0077 24.662 10.0141 24.6713 10.0227C24.6807 10.0313 24.6883 10.0419 24.6935 10.0538C27.0756 15.6117 25.6606 20.8538 20.7038 23.992C20.648 24.0276 20.6061 24.0142 20.5782 23.9519Z" fill="#094975" />
<path d="M38.6449 26.494C42.9276 28.8115 44.9853 33.3397 45.9963 38.128C46.0045 38.1684 45.9993 38.2104 45.9818 38.2469C45.9642 38.2834 45.9353 38.3122 45.9 38.3282C41.5922 40.3032 36.851 40.1386 32.9618 37.2073C31.4854 36.0967 30.0187 34.9699 28.5618 33.8267C24.9049 30.9532 21.0681 29.8768 16.6137 29.5009C16.5244 29.4935 16.5132 29.4587 16.5802 29.3964C22.7971 23.6383 31.2705 22.5018 38.6449 26.494Z" fill="#7FBD42" />
<path d="M33.688 41.8622C24.7646 42.7652 15.6905 39.16 9.02562 33.0527C9.01434 33.0422 9.00629 33.0284 9.00247 33.013C8.99866 32.9975 8.99927 32.9813 9.00421 32.9662C9.00916 32.9512 9.01822 32.938 9.03024 32.9285C9.04226 32.9189 9.05668 32.9134 9.07167 32.9126C18.5512 32.3299 26.8592 35.2783 33.9957 41.7577C34.0081 41.7692 34.0171 41.7843 34.0214 41.8012C34.0258 41.818 34.0254 41.8359 34.0202 41.8525C34.0151 41.8691 34.0055 41.8837 33.9926 41.8946C33.9796 41.9054 33.964 41.9119 33.9476 41.9134C33.9029 41.9178 33.8653 41.9112 33.8346 41.8934C33.7885 41.8667 33.7397 41.8563 33.688 41.8622Z" fill="#7FBD42" />
</svg>