<?xml version='1.0' encoding='utf-8'?>
<!-- by TradeStack -->
<svg width="56" height="56" viewBox="0 0 56 56" xmlns="http://www.w3.org/2000/svg"><path fill="#F0F3FA" d="M0 0h56v56H0z" /><path d="m30.94 15.14-.02-.55c0-.12.05-.17.16-.16.03 0 .06.02.09.04.07.06.14.05.2-.03.16-.2.21-.43.17-.7-.01-.1-.06-.13-.16-.12-.28.05-.46.18-.54.4-.04.15-.17.09-.22-.02-.1-.21-.2-.21-.32 0-.31.62-.63.78-.95.48a2.16 2.16 0 0 1-.17-.19c-.1-.12-.17-.1-.21.04l-.2.74c-.1.33-.2.34-.34.02a.95.95 0 0 0-.3-.38.3.3 0 0 1-.13-.25c0-.36-.03-.7.14-1.03.3-.58.55-1.41 1.07-1.81.35-.27.14 2.02.29 2.26.08.12.26.11.33-.01.64-1.19 1.1-2.47 1.37-3.86.05-.2.06 1.83.03 2.12-.03.18.02.2.15.06a3.94 3.94 0 0 1 2-1.29c.38-.1.45 0 .19.32-.36.43-.59.9-.7 1.4-.04.25.02.28.2.1.6-.61 1.32-.92 2.16-.92.3 0 .32.08.07.23-.32.2-.59.43-.8.7-.2.27-.14.35.18.25a4 4 0 0 1 1.02-.19c.37-.02.4.07.07.26l-.59.37c-.18.11-.17.19.05.22.22.04.44.08.66.1.07.02.1.05.1.12 0 .1-.05.15-.14.17-.27.07-.48.2-.64.4-.09.11-.16.1-.2-.05a.36.36 0 0 1 0-.15c.02-.13-.03-.17-.15-.13l-.24.1c-.43.16-.01-.68-.27-.62a.7.7 0 0 0-.53.47c-.02.06-.06.08-.12.05a.27.27 0 0 1-.15-.26c0-.17 0-.35.02-.54.02-.17-.04-.2-.17-.08-.14.12-.24.27-.31.46-.04.1-.11.13-.21.07a.97.97 0 0 1-.4-.47c-.12-.29-.24-.29-.36 0-.22.5-.3 1.02-.24 1.56.01.08.26.15.26.03.03-.45-.04-1.4.58-.63.19.24.18.7 1.11 1.3a.2.2 0 0 0 .1 0c.37-.07.68-.07.94 0 .27.06.27.12 0 .15-.84.1-1.43.44-1.77 1.03-.06.09-.1.09-.16 0a.38.38 0 0 1-.04-.25 4 4 0 0 1 .05-.32c.07-.28-.01-.33-.23-.13-.27.25-.49.52-.65.82-.22.43-.34.4-.36-.08l-.02-.59c0-.14-.06-.16-.17-.07-.58.5-.86 1.1-.86 1.84 0 .11-.23.04-.25-.04-.02-.09-.13-1.17-.45-.94l-.43.3c-.07.05-.16 0-.18-.07a7.7 7.7 0 0 1-.25-2.22c0-.2.08-.23.22-.1.41.34.68.34 1.02-.17.14-.21.24-.2.28.06.03.16.1.3.18.43.1.15.15.13.14-.05ZM21.95 13.42a2.88 2.88 0 0 0-.98-.91c-.65-.38-.6-.52.15-.43.55.07 1 .2 1.39.39.9.46 1.02.31.33-.43a9.03 9.03 0 0 0-2.36-1.79c-.04-.02.05-.16.13-.13 1.4.61 2.6 1.4 3.55 2.35.8.8.92.71.34-.26a8.05 8.05 0 0 0-1.46-1.76c-.05-.05.11-.16.18-.1.88.68 1.62 1.46 2.21 2.32.24.34.31.31.24-.09a7.78 7.78 0 0 0-.56-1.75c-.02-.06.07-.13.1-.06.6.97 1.13 1.96 1.61 2.98.1.22.16.21.16-.03a7 7 0 0 0-.21-1.66c-.1-.36-.04-.38.16-.06.66 1.07.72 2.2.18 3.4-.17.38-.3.37-.38-.04a2.15 2.15 0 0 0-.23-.63c-.09-.15-.13-.14-.14.03l-.01.45c0 .13-.16.34-.24.14a4.55 4.55 0 0 0-1.59-1.86c-.13-.1-.18-.06-.15.1.02.1.04.23.04.35.02.25-.06.29-.25.11a2.8 2.8 0 0 0-1.04-.65c-.15-.05-.2 0-.13.15.18.42.33.86.44 1.3.07.32 0 .36-.24.14a2.08 2.08 0 0 0-1.43-.56c-.08 0-.13.07-.12.14.08.36.07.73-.02 1.1a.14.14 0 0 1-.2.09 6 6 0 0 0-4.4-.26c-.37.1-.43.02-.16-.26.7-.72 2.9-.82 3.85-.77.14.01.18-.04.09-.16a5.14 5.14 0 0 0-2.67-1.93c-.1-.03.05-.18.11-.17 1.3.2 2.49.63 3.6 1.32.2.13.24.1.11-.1ZM29.62 19.66c.14.03.14.2.03.26-.24.15-.43.33-.57.54-.24.4.78.14.4.4-.43.3-.63.72-.62 1.25 0 .13.07.16.2.1.24-.13.5-.2.76-.25.18-.03.23.03.13.16a9.32 9.32 0 0 0-1.6 3.81c-.02.07-.22.1-.2.04.13-.67.12-1.34-.05-2.02-.14-.54-.06-1.07-.1-1.62-.01-.22.39-.2.35-.34-.09-.36-.32-.67-.33-1.05 0-1.5-.04-2.98 0-4.47.01-.57.2-.62.58-.14.54.7.78 1.57.71 2.6 0 .2.22.14.35.22.32.18-.44.42-.04.5ZM18.41 22.6c-.34.3-.52.68-.55 1.13 0 .12-.1.27-.24.27-.13 0-.16-.06-.09-.16a.76.76 0 0 0 .09-.18c.07-.2.01-.23-.17-.11-.07.05-.56.43-.42.15.34-.67.7-.91.18-1.19-.07-.03-.08-.07-.02-.13.1-.1.13-.34-.07-.36l-.57-.04c-.1-.01-.14-.1-.12-.2.03-.1.09-.11.17-.03.1.1.27.1.29-.08 0-.14-.19-.18-.28-.1-.06.07-.1-.11 0-.13a.8.8 0 0 0 .42-.22c.14-.13.11-.2-.08-.19l-1.9.11c-.04 0-.07-.1-.03-.12.46-.1.93-.22 1.38-.36.44-.13-.33-.24-.2-.42.04-.06.09-.08.16-.06.21.04.41.06.6.04.17-.02.19-.08.04-.17l-1.03-.62c-.09-.06.01-.25.1-.21.17.1.34.16.53.2.22.03.25-.02.08-.16l-.69-.56c-.22-.18-.18-.25.1-.23l1 .08c.25.02.4-.28.22-.45-.14-.13-.3-.23-.5-.3-.17-.06-.17-.12 0-.17.34-.1.69-.11 1.06-.01.15.03.26-.14.13-.23a.79.79 0 0 1-.21-.22c-.07-.1-.04-.15.08-.16.8-.05 1.45.1 1.97.46.24.16.21.26-.08.3-1 .12-2.22.57-2.19 1.73.03 1.05.5 1.78 1.44 2.2.35.14.34.24-.05.28-.32.03-.59.15-.8.35-.13.14.6-.03.25.27ZM40.38 19.75c-.04.28-.13-.05-.26 0-.09.03-.62.89-.26 1.12l.38.26c.17.11.15.19-.04.23a.3.3 0 0 0-.1.03c-.11.07-.13.16-.06.27.18.25.38.46.62.62.04.03.05.06.03.1-.05.1-.12.12-.21.06-1.08-.78-1.2-1.16-1.02-.11.02.14-.02.16-.12.05a1.98 1.98 0 0 0-.53-.39c-.14-.07-.18-.03-.12.1.08.21.19.4.32.58.42.58.44.75 1.5.8.12 0 .33.29.2.32l-1 .29c-.12.03-.12.08-.02.15.35.23.74.4 1.16.5.14.04.17.12.07.23a.61.61 0 0 1-.27.17c-.22.07-.24.17-.05.3.17.12.36.2.56.28.1.03.15.13.11.22a.17.17 0 0 1-.05.08.72.72 0 0 1-.53.13c-.16-.01-.2.04-.09.17.67.8 1.1 1.8 1.28 2.97 0 .06-.14.15-.15.09-.1-.43-.3-.77-.61-1.03-.1-.08-.17-.06-.21.05-.4 1-.98 1.78-.2 2.85.18.24.13.3-.15.18a1.62 1.62 0 0 1-1.04-1.45c-.1-1.47.21-3.12-.1-1.12-.23 1.48.17 2.67 1.85 2.96.44.07.44.13-.01.18-.33.03-.69-.04-1.08-.2-.13-.04-.17 0-.1.12.41.82.99 1.46 1.72 1.9.29.18.26.23-.06.16-3.1-.7-2.2-3.67-3.24-5.69-.3-.58-.73-1.13-.56-1.83.03-.14.1-.15.2-.04.03.03 1.88 1.92 1.75 1.13-.07-.43-.2-.81-.41-1.17-.09-.14-.05-.19.11-.14.21.07.37.21.46.42.06.15.1.15.1-.02-.01-.36-.17-.69-.48-.98-.2-.18.13-.41-.1-.59-2.2-1.6.37-.69-2.67-2.73-.07-.05.01-.14.08-.1.24.16 1.6 1.06 1.78.64l-.01-.02c-.6-.13-1.02-.42-1.25-.88a.2.2 0 0 1 .08-.27c.8-.44 1.25-1.2 1.33-2.27.08-1-1-1.55-1.89-1.57-.34 0-.7-.19-.95-.4-.13-.11-.07-.33.1-.35a7.16 7.16 0 0 1 2.9.08c.36.1.35.17 0 .25a3.7 3.7 0 0 0-.36.09c-.46.14-.47.3-.02.48.53.2.96.55 1.29 1.03.05.06.41.6.4.7ZM33.58 19.74c.06.04.1.1.11.15.04.11 0 .14-.14.08-.49-.22-.97-.27-1.44-.15-.08.02-.12 0-.1-.07l.05-.36c.02-.07.06-.1.15-.1.39 0 .74-.07 1.06-.24.17-.09.22-.06.16.09l-.05.12c-.1.23.3.18.48.18.16 0 .18.05.07.13-.12.08-.53.02-.35.17Z" /><path d="M36.9 20.38c.14 0 .26-.04.35-.13a.87.87 0 0 1 .62-.25c.16 0 .17.03.05.1-.51.3-1 1.09-.78 1.23.02.01.04.03.04.05a.2.2 0 0 1-.02.18c-.32.48-.78.57-1.37.25a19.8 19.8 0 0 1-1.66-1c-.2-.13-.17-.16.07-.08.23.08 1.41.11 1.43.13.77.76.54-.5 1.27-.48ZM23.43 22.07l.31.3c.24.2-.2.38-.15.6.1.53-.11.82-.65.87-.07.01-.1.05-.08.12.07.25-.04.42-.33.51-.22.07-.44.62-.14.68.1.02.16.08.2.17.23.86.23 1.63-.02 2.32a.86.86 0 0 0-.02.54c.17.57.45 1.17.82 1.8.08.15.2-.02.27.07.38.48.57 1 .58 1.56 0 .33.14.5.3.76.18.3.08.8-.06 1.08-.1.17-.15.16-.17-.04-.01-.05-.09-.07-.13-.06-.19.05-.38.05-.56 0-.28-.06-.42.05-.42.33 0 .41.04.82.14 1.21.02.07-.13.14-.15.1a2.04 2.04 0 0 1-.22-.7c-.02-.13-.23-.18-.23-.04 0 .13-.26.33-.27.14-.08-1.1-.57-2.03 1-2.3.22-.03.17-.46-.06-.4a.94.94 0 0 0-.4.26c-.08.07-.14.07-.19-.02-.1-.17-.38-.44-.3-.7.05-.16-.53-.45-.59-.4-.83.81-1.77 1.25-1.66 2.66-.05 0-.12.03-.13-.04-.2-.95.19-1.2.49-1.98.23-.6.17-1.11.55-1.69.04-.05 0-.14-.07-.15-.63-.1-1.23 0-1.8.3-.21.12-.29.06-.21-.18.4-1.26.6-2.05 1.72-3.04.11-.1.1-.15-.05-.17a2.35 2.35 0 0 0-1.51.26c-.22.13-.29.08-.2-.17.16-.46.44-.86.84-1.2.25-.2-.29-.15-.39-.13-.15.03-.18-.02-.08-.14.12-.14.6-.18.52-.36-.44-1 .84-1.56 1.55-1.91a.53.53 0 0 0 .27-.3c.14-.39.33-.71.6-.98.7-.73 1.65-.45 2.22-1.48.08-.16.19-.17.3-.04.2.2.15.54-.04.73-.13.14-.3.25-.51.34-.27.11-.42.5-.57.73-.09.13-.54-.06-.32.18ZM34.27 33.91c.05.1.1.2.09.32l-.25 1.71c-.02.13-.25.03-.24-.06.24-1.86-.8-1.15-1.78-2.25a.32.32 0 0 1-.07-.33c.14-.42.22-.88.25-1.36.04-.57.45-1 .73-1.51.06-.11.14-.13.25-.05.08.05.1.12.1.2-.03.2.03.22.17.07.85-.9.94-2.46.69-3.52a.38.38 0 0 1 .03-.27l.48-.96c.04-.1.02-.17-.08-.23-.28-.18-.47-.62-.66-.87-.33-.33.47-.25.63-.35.17-.1.15-.16-.06-.17a1.4 1.4 0 0 1-.77-.2c-.2-.13-.17-.22.07-.27.38-.07.76-.1 1.16-.09.17 0 .18-.02.02-.09-.14-.06-.28-.1-.44-.1-.1-.01-.16-.06-.2-.13a.54.54 0 0 0-.3-.28c-.15-.05-.41-.71-.35-.82.06-.1.05-.19-.03-.27a3.78 3.78 0 0 0-1.2-.9c-.13-.07-.12-.1.03-.12.64-.08 1.9.65 2.5.96.17.08.15.12-.03.14-.14 0-.28 0-.43-.04-.14-.03-.17.01-.1.12.26.37.57.63.94.77 1 .4 2.03 1.56 2.56 2.32.05.07-.01.24-.12.15a2.85 2.85 0 0 0-.54-.4c-.16-.09-.2-.06-.13.1l.41.84c.06.1-.08.22-.2.17a.4.4 0 0 1-.25-.27c0-.02-.01-.02-.03-.01-.04.02-.14.04-.1.1.17.23.26.47.28.74 0 .06-.3.41-.38.23a1.13 1.13 0 0 0-.32-.36c-.13-.1-.2-.08-.22.08-.05.54.35.99.23 1.47-.04.17-.12.33-.23.47a.31.31 0 0 0-.07.26c.07.42.18.79.33 1.12.23.51.15.55-.23.12l-.33-.36c-.1-.13-.15-.11-.14.05.06.72.3 1.33.73 1.82.07.07.05.11-.06.1a.65.65 0 0 1-.32-.08c-.12-.07-.17-.04-.14.1l.16.7c.05.21-.03.26-.25.14l-.47-.3c-.3-.2-.13.28-.38.19a.1.1 0 0 1-.04-.03l-.75-.73c-.07-.07-.13-.06-.17.03-.25.6-.2 1.1.17 1.5.63.7.9 1.52.8 2.46-.01.09-.13.07-.2.07-.02 0-.02 0-.02-.02a2.21 2.21 0 0 0-.65-1.86c-.14-.15-.17-.14-.08.05ZM30.6 23.92a3.73 3.73 0 0 0-.5-1.87.77.77 0 0 1-.09-.28c-.05-.33.07-.68.27-.74.13-.05.26-.03.4.05.05.03.08.09.09.17L31 23c.03.27-.22.79-.31.97-.03.06-.09.02-.09-.05ZM31 22.9l.03-.75c0-.17.06-.2.17-.08l.79.85c.02.03 0 .08-.03.08l-.88-.01c-.05 0-.08-.03-.08-.1ZM17.77 33.44c.08-.16.14-.15.16.03l.07.57c.01.1-.02.2-.11.27-1.01.85-1.86 2.17-1.8 3.5.02.24-.04.25-.16.04a6 6 0 0 1-.8-2.88c0-.24-.08-.27-.23-.08a.15.15 0 0 1-.15.07c-.09-.01-.14-.06-.15-.15-.12-.67-.1-1.3.05-1.9.1-.38-.26 0-.3.06-.12.14-.19.13-.22-.05-.15-.85.02-1.58.52-2.19.2-.24.28-.53.22-.84-.02-.13-.1-.18-.22-.16-.16.03-.3.11-.4.25-.16.2-.24.18-.25-.07a4.2 4.2 0 0 1 1.07-3.02c.02-.02.03-.05 0-.08-.03-.05-.07-.06-.12-.01-.08.08-.17.15-.27.2-.25.15-.3.1-.17-.15a3.96 3.96 0 0 1 2.25-1.83c.15-.05.2 0 .13.14-.11.26-.35.67-.41 1.35-.02.15.02.17.1.05.1-.14.23-.26.38-.34.13-.07.16-.05.08.08-.8 1.42-.7 3.94-.6 5.66.03.35 1.1-.19.26 1.45-.09.18-.05.22.12.1.16-.1.3-.24.42-.41.06-.08.2-.03.18.07l-.2 1.06c-.07.36.48-.67.55-.8Z" /><path d="M32.05 28.14c.13.55.16 1.13.1 1.73-.02.17-.05.17-.09 0a8.71 8.71 0 0 0-.52-1.65c-.07-.16-.04-.23 0-.38a.25.25 0 0 0-.06-.24c-.24-.26-.7-.86-.35-1.15.1-.1.13-.2.05-.3l-.04-.07a.16.16 0 0 1 0-.17.2.2 0 0 1 .07-.07.27.27 0 0 1 .1-.03c.67-.1 1.19-.34 1.56-.71a.35.35 0 0 1 .2-.1.4.4 0 0 1 .23.04c.71.37.88.85.5 1.45-.25.4-.28.86-.44 1.3-.01.03-.04.06-.1.07a.16.16 0 0 1-.1-.01.12.12 0 0 1-.03-.03.09.09 0 0 1-.02-.04.3.3 0 0 0-.07-.15c-.1-.13-.18-.12-.21.04-.06.24-.06.49-.03.75.04.3-.06.34-.3.1a6.19 6.19 0 0 1-.35-.4c-.1-.13-.14-.12-.1.02ZM37.32 28.25c-.13-.4-.19-.8-.18-1.22 0-.02 0-.03.02-.03s.03 0 .03.03c.08.49.25.92.51 1.3.23.34.33.8.28 1.38 0 .14-.04.15-.1.03l-.29-.53a.06.06 0 0 0-.02-.03h-.03l-.03.01-.02.04c-.18 1.02-.04 1.78.43 2.27.12.13.1.2-.05.25a.32.32 0 0 1-.13 0c-.1 0-.15.05-.15.17l.02 1c0 .05-.02.08-.06.08h-.06l-.01-.02a4.94 4.94 0 0 0-.42-1.7c-.03-.05-.02-.09.04-.1.04 0 .08 0 .12.03.13.08.16.04.11-.12a8.3 8.3 0 0 1-.3-2.75.1.1 0 0 1 .03-.04h.06l.04.03.06.04c.1.05.14 0 .1-.12ZM30.93 34.81c.02.06.01.1-.03.14-.08.07-.16.07-.22-.02-.41-.5-.94-.75-1.59-.75-.3 0-.6-.05-.91-.15a.26.26 0 0 1-.18-.24v-3.2c0-.09.04-.14.13-.15l2.29-.44c.21-.03.39.18.3.36-.17.34-.44.6-.82.76-.87.37-1.6.83-1.69 1.82-.06.64 1.56 1.21 2.06 1.28.6.08 1.06-.04 1.42-.36.1-.1.18-.08.2.06l.1.58c.02.09-.07.16-.16.13-.26-.09-.52-.1-.79-.03-.12.03-.16.1-.11.21Z" /><path d="M35.34 41.87c.01.63.17 1.24.47 1.84.15.3.08.37-.2.2-1.61-.89-1.99-2.1-1.98-3.98 0-.77-.14-1.57-.42-2.4a4.06 4.06 0 0 1-.2-1.65c.01-.06.12-.17.14-.06.3 1.64.84 4.3 1.86 4.1.12-.03.16-.1.13-.23-.18-.82-.12-.56.32-.41.1.03.13 0 .1-.1a3.78 3.78 0 0 1-.2-1.52c.04-.36.32.37.34.4.15.25.23.23.24-.07a8.94 8.94 0 0 0-.24-2.4c-.03-.1.08-.19.17-.14.43.2.81.47 1.16.8.13.13.18.1.18-.08a8.03 8.03 0 0 0-.39-2.1c-.06-.19-.01-.23.14-.11.48.35.93.75 1.36 1.19.16.16.2.13.14-.09-.2-.64-.5-1.24-.95-1.78-.03-.05.06-.18.11-.13l1.32 1.28c.06.06.13.07.2.03.1-.05.5-.2.33-.4-.42-.47-1.03-1.03-1.05-1.7-.01-.45.08-.48.27-.07.36.76 1.04 1.03 1.48 1.71.53.84.8 1.74.83 2.7 0 .34-.07.36-.23.07-.12-.21-.24-.41-.39-.6-.35-.45-.47-.4-.37.18.02.1.02.2.02.3-.02.22-.06.23-.13.02l-.27-.73a.4.4 0 0 0-.29-.26c-.1-.03-.16.02-.15.13.08.86.27 1.58.57 2.14.12.23.08.26-.12.1a6.7 6.7 0 0 1-1.53-1.83c-.08-.14-.3-.1-.33.05a3.6 3.6 0 0 0 .1 2.27c.13.32.07.37-.2.16-.35-.3-.66-.65-.92-1.04-.07-.11-.11-.1-.12.04a5.59 5.59 0 0 0 .44 2.76c.2.42.21.84.05 1.26-.06.15-.1.14-.13-.01-.1-.54-.3-1.07-.58-1.6-.08-.14-.13-.13-.17.02-.15.64-.14 1.2.03 1.7.28.79-.48.14-.75-.06-.13-.1-.2-.06-.19.1ZM22.28 38.37c.01-.13.19-.29.22-.09.08.4.21.75.4 1.06.08.16.13.15.12-.04l-.01-.65c-.01-.23.04-.24.14-.04.35.69.8 1.34 1.38 1.94.11.11.14.09.1-.07a.93.93 0 0 0-.59-.7.4.4 0 0 1-.2-.17c-.83-1.34-.67-2.75-.25-4.2.08-.28.07-.57-.03-.87-.07-.21-.02-.26.16-.15.27.16.56.25.87.28.26.01-.08.32.03.45.16.19.35.33.56.43.47-.11.33.65.63.51a.15.15 0 0 0 .07-.06c.07-.14.25-.13.33 0l.18.3c.15.24.2-.22.34-.16.17.06.25.18.25.36.03 3.14.03 6.17 0 9.09 0 .2-.62-1.36-.69-1.5-.06-.14-.1-.13-.13.02-.04.27-.54 2.1-.6 1.87l-.33-1.47c-.06-.25-.14-.26-.25-.03-.12.25-.62.76-.63.63-.03-.4-.15-.81-.35-1.22-.08-.17-.14-.16-.17.03l-.08.6c-.07.45-.16.46-.26 0l-.33-1.4c-.12-.53-.27-.1-.43.12-.1.14-.17.12-.21-.05a2.5 2.5 0 0 0-.36-.88c-.1-.16-.16-.14-.18.05-.04.31-.1.62-.19.92-.02.07-.17.2-.17.05-.01-.2-.3-2-.5-1.72l-.6.91c-.1.15-.16.13-.16-.05 0-.4.32-1.09-.23-.8-.13.07-.19.03-.17-.12a7.1 7.1 0 0 0-.04-1.78c-.04-.31-.15-.34-.31-.08-.22.35-.33.74-.33 1.16 0 .11-.13.17-.2.1-.9-.92-.81-2.55-.74-3.79.01-.2-.04-.22-.16-.06-.2.27-.62.57-.62.6a7.8 7.8 0 0 0 .05 1.8c.08.58.01.6-.2.06-.74-1.84-.48-3.68.78-5.51.05-.08.16-.06.2.03l.24.89c.06.22 1.07 1.46 1.23 1.6.27.25.32.48.47.8.16.32.24.3.22-.06-.01-.41.15-.55.5-.41.2.07.31.29.3.5-.13 1.3.74 3.88.93.97ZM28.17 36.59c.07-.2.14-.2.22-.01.09.21.68.71.71.61.36-1.05 1.09.22 1.26-.67l.07-.37c.03-.16.11-.2.26-.11.66.37.3-.1.8-.38.12-.07.14-.16.06-.26l-.17-.25c-.08-.1-.04-.16.1-.15 1.38.05 1.09 1.38 1.13 2.21.05 1.06-.16.08-.23.35-.07.34 0 .63.2.89.3.35.38.78.23 1.29-.03.1-.1.13-.2.08-.2-.1-.29-.26-.23-.45a.27.27 0 0 0-.02-.23c-.29-.46-.67-1.1-.53-1.64a.37.37 0 0 1 .16-.21c.16-.12.19-.27.07-.45-.06-.09-.12-.09-.19 0-.33.44-.49.94-.33 1.49.15.53.11 1.08-.1 1.64-.2.5-.28.49-.27-.04 0-.38-.07-.75-.22-1.13-.01-.04-.14-.01-.12.04.16.52.2 1.04.13 1.55-.08.53.6 1.68-.27.72-.15-.16-.22-.14-.21.08.02.5.69 1 .84.86.16-.14-.03-.42.2-.49.1-.03.19-.02.28.04.21.14.4.3.54.49.07.08.13.08.2 0 1.03-1.39-.03-.46-.3-.54-.36-.1-.6-.34-.73-.73-.05-.15 0-.18.14-.09.34.22.31-.41.57-.24.08.05.12.13.1.25-.01.19.06.22.23.1l.36-.25c.1-.08.17-.06.18.07.04.4-.02.8-.17 1.19-.08.19-.04.35.11.48.12.1.21.08.29-.05l.16-.29c.14-.25.2-.24.2.05-.03.6.06 1.17.26 1.72.13.38.05.42-.24.13-.33-.35-.8-.54-1.39-.57-.13-.01-.2.05-.21.17-.02.24-.1.49-.25.73-.09.13-.3.13-.38 0a3.9 3.9 0 0 0-.62-.74c-.27-.24-.38-.2-.32.15.01.1 0 .2-.03.3-.06.17-.13.18-.23.03a1.87 1.87 0 0 0-.66-.64c-.77-.46-.46 1.38-.41 1.52.04.14 0 .18-.15.15-.44-.1-.5-.6-.87-.8-.09-.03-.13-.1-.13-.19v-3.16c0-.3 1.55.95 1.73 1.02.26.12.5.29.7.52 0 0-1.11-1.39-2.26-1.88a.29.29 0 0 1-.17-.26c-.03-2.77-.15-1.1.12-3.65Z" /><path fill-rule="evenodd" d="M23.08 24.6c.58.5 1.24.77 1.98.82.16 0 .24.07.25.18.02.2.17.34.44.4.13.02.26-.05.25-.14l-.05-1.25c0-.13-.09-.22-.26-.26l-1.44-.33c-.2-.05-.45 0-.57.13a.9.9 0 0 1-.5.25c-.2.03-.23.1-.1.2Zm.96.22c.36.34.8.4 1.32.18.23-.1.22-.34-.02-.43-.3-.1-.6-.18-.9-.21-.35-.04-.61.25-.4.46ZM30.72 28.84l.04-.22.05-.08a.15.15 0 0 1 .1-.03.2.2 0 0 1 .1.03l.04.04c.1.11.16.1.2-.04a.35.35 0 0 0-.03-.27 84.7 84.7 0 0 0-.73-1.39.42.42 0 0 1-.03-.31c.14-.5.4-.91.77-1.25.07-.07.16-.1.27-.12.36-.02.67-.16.94-.4.08-.08.18-.1.3-.08.13.02.21-.07.25-.29a.3.3 0 0 0-.03-.21.31.31 0 0 0-.18-.14c-.32-.1-.65-.1-.99-.02a.78.78 0 0 1-.34.01c-.36-.08-.58.07-.65.45-.1.53-.22 1.03-.36 1.5-.03.12-.1.2-.2.26l-.14.08c-.1.06-.12.14-.08.24.1.23.24.44.42.63.36.42.29.69.2.98-.05.18-.11.38-.06.63.05.21.1.21.14 0Zm1.33-4.6a.5.5 0 0 0-.4.1c-.11.1-.2.09-.3-.03-.03-.04-.08-.05-.16-.01a.22.22 0 0 0-.12.12.4.4 0 0 0 0 .3c.01.06.05.1.1.14.05.04.1.06.17.06.45.02.73-.13.86-.45a.17.17 0 0 0-.02-.15.18.18 0 0 0-.13-.08Z" /></svg>