<!-- by TradeStack --><svg xmlns="http://www.w3.org/2000/svg" width="56" height="56" viewBox="0 0 56 56"><path fill="#F0F3FA" d="M0 0h56v56H0z"/><path d="M18.92 25.43 25.19 11h4.25L39.8 34h-6l-6.36-14.21-3.3 7.32c-1.35-.09-3.56-.5-5.21-1.68Zm-2.24 5.14L15.2 34h5.84l.53-1.19c-2.62-.47-4.19-1.53-4.88-2.24Z" fill="#544D47"/><path fill-rule="evenodd" d="M16.4 35 15 44h1.24l.3-1.55h1.6L18.3 44h1.4l-1.4-9H16.4Zm.9 1.85-.67 4.34h1.33l-.65-4.34ZM21.66 44v-9h1.77l1.1 6.21.93-6.21h1.8v9h-1.23v-6.14L25.13 44h-1.25l-1.09-6.14V44h-1.14Zm9.13-9h-1.27v9H33v-1.23h-2.22V35ZM36 35h-1.25v9H36v-4h1.73v4H39v-9h-1.27v3.78H36V35Z" fill="#222"/><path d="M31.37 12.75c3.03.16 5.48 1.42 6.43 3.64.89 2.07.28 4.53-1.4 6.76l1.74 3.51c2.6-3.02 3.6-6.66 2.29-9.72-1.38-3.2-4.95-4.97-9.15-4.98l.1.79Zm-8.9 1.66c-5.62 3.23-8.56 8.87-6.67 13.3 2.03 4.72 8.82 6.33 15.4 3.77l-1.63-3.4c-5.52 2.12-11.07 1.03-12.61-2.58-1.44-3.35 1.03-7.73 5.62-10.44l-.11-.65Z" fill="#015DA0"/></svg>