<!-- by TradeStack --><svg width="56" height="56" viewBox="0 0 56 56" fill="none" xmlns="http://www.w3.org/2000/svg">
<rect width="56" height="56" fill="#B1453F"/>
<path fill-rule="evenodd" clip-rule="evenodd" d="M32 26V19H33.6667L34.5901 23.1954L35.1982 19H37V26H35.8063V21.5537L34.9054 26H34.0495L33.2162 21.5537V26H32ZM8.86757 26.0001L10.2843 19.0001H11.9798L13.597 26.0001H11.9798L11.806 24.9973H10.3931L10.18 26.0001H8.86757ZM10.7113 23.5001H11.5464L11.1712 21.3359L10.7113 23.5001ZM14 21.0001H15.2884V21.3453C15.5119 21.1629 15.831 21.0001 16.2305 21.0001C16.6845 21.0001 17.0538 21.2973 17.2997 21.7773L17.3273 21.7103C17.4657 21.4736 17.913 21.0001 18.5945 21.0001C19.4463 21.0001 20 22.0468 20 23.3832V26.0001H18.7435V22.8879C18.7364 22.7041 18.6157 22.3365 18.1898 22.3365C17.8504 22.3365 17.6733 22.5937 17.5992 22.8006C17.6235 22.9865 17.6361 23.1816 17.6361 23.3832V26.0001H16.3796V22.8879C16.3725 22.7041 16.2518 22.3365 15.8259 22.3365C15.5503 22.3365 15.3818 22.506 15.2884 22.6805V26.0001H14V21.0001ZM24.068 23.9808H21.5308C21.5308 24.5684 21.7413 24.8462 22.2791 24.8462C22.7094 24.8462 22.8014 24.4901 22.7936 24.312H24.068C24.0291 24.8747 23.598 26.0001 22.1856 26.0001C20.6141 26.0001 20.2524 24.4189 20.268 23.6283C20.268 21.5514 21.4373 21.0107 22.0219 21.0001C23.743 21.0001 24.1031 22.9872 24.068 23.9808ZM21.5308 22.7041C21.5308 22.4002 21.8004 22.1539 22.1329 22.1539C22.4655 22.1539 22.7351 22.4002 22.7351 22.7041V23.1368H21.5308V22.7041ZM38.963 23.9808H41.5003C41.5353 22.9872 41.1752 21.0001 39.4541 21.0001C38.8695 21.0107 37.7002 21.5514 37.7002 23.6283C37.6846 24.4189 38.0463 26.0001 39.6178 26.0001C41.0302 26.0001 41.4613 24.8747 41.5003 24.312H40.2258C40.2336 24.4901 40.1416 24.8462 39.7113 24.8462C39.1735 24.8462 38.963 24.5684 38.963 23.9808ZM39.5651 22.1539C39.2326 22.1539 38.963 22.4002 38.963 22.7041V23.1368H40.1673V22.7041C40.1673 22.4002 39.8977 22.1539 39.5651 22.1539ZM24.7086 21.0001H26V21.6118C26.2076 21.2849 26.5274 21.0001 27 21.0001V22.6774C26.7999 22.6447 26.3793 22.7148 26 23.1415V26.0001H24.7086V21.0001ZM28.7921 22.6637H27.5117C27.5219 22.1091 27.8735 21.0001 29.1985 21.0001C30.8548 21.0001 31 22.5637 31 23.0819V26.0001H29.8087V25.4907C29.5133 25.8061 29.0688 26.0001 28.5582 26.0001C27.8367 26.0001 27.4709 25.4475 27.4709 24.7674C27.4709 24.0873 27.664 23.5542 28.2838 23.3521C28.4118 23.3103 28.5453 23.2707 28.6837 23.2296C29.0317 23.1263 29.4104 23.0139 29.8087 22.8359V22.6637C29.8053 22.4637 29.7716 22.0637 29.3001 22.0637C28.8286 22.0637 28.765 22.4637 28.7921 22.6637ZM29.8087 23.8228C29.6067 23.8113 29.3738 23.8409 29.1272 23.9494C28.6 24.1815 28.4464 24.9512 29.1272 24.9512C29.4512 24.9512 29.6713 24.7475 29.8087 24.5218V23.8228ZM46 21.0001H44.6316L44 22.2L43.3684 21.0001H42C42.3395 21.71 42.8196 22.6907 43.2655 23.5957L42 26.0001H43.5439C43.5439 26.0001 43.7264 25.6336 44 25.0817C44.2736 25.6336 44.4562 26.0001 44.4562 26.0001H46L44.7346 23.5957C45.1804 22.6907 45.6606 21.71 46 21.0001ZM7.3 28H6V35H7.3V28ZM10.0756 30C9.7038 30 9.40691 30.1612 9.19895 30.3417V30.0161H8V35.0002H9.19895V31.6632C9.28582 31.4905 9.4427 31.3228 9.69909 31.3228C10.0954 31.3228 10.2077 31.6866 10.2144 31.8686V34.9489H11.3836V32.3588C11.3836 31.0361 10.8683 30 10.0756 30ZM23 30H24.3V30.2611C24.499 30.1159 24.7604 30 25.0757 30C25.8684 30 26.3836 31.036 26.3836 32.3586V34.9485H25.2144V31.8684C25.2078 31.6865 25.0955 31.3227 24.6991 31.3227C24.5217 31.3227 24.3919 31.403 24.3 31.5098V35H23V30ZM41.2403 30.3416C41.4554 30.1611 41.7626 30 42.1472 30C42.9673 30 43.5003 31.036 43.5003 32.3586V34.9485H42.2907V31.8684C42.2839 31.6865 42.1677 31.3227 41.7577 31.3227C41.4925 31.3227 41.3302 31.4904 41.2403 31.6631V35H40V30.0162H41.2403V30.3416ZM19.2909 32.9808H16.7536C16.7536 33.5684 16.9641 33.8462 17.5019 33.8462C17.9322 33.8462 18.0242 33.4901 18.0164 33.312H19.2909C19.2519 33.8747 18.8208 35 17.4084 35C15.8369 35 15.4752 33.4188 15.4908 32.6282C15.4908 30.5513 16.6601 30.0107 17.2447 30C18.9658 30 19.3259 31.9872 19.2909 32.9808ZM16.7536 31.7041C16.7536 31.4002 17.0232 31.1539 17.3558 31.1539C17.6883 31.1539 17.9579 31.4002 17.9579 31.7041V32.1368H16.7536V31.7041ZM21.3096 30H20V35H21.3096V32.2255C21.7042 31.7239 22.161 31.6426 22.3736 31.6774V30C21.8459 30 21.5109 30.3551 21.3096 30.7274V30ZM26.7796 31.6637H28.0599C28.0328 31.4637 28.0965 31.0637 28.568 31.0637C29.0395 31.0637 29.1641 31.4637 29.1675 31.6637V31.7938C28.7358 31.9941 28.3259 32.1145 27.9515 32.2244L27.9515 32.2244C27.8131 32.265 27.6796 32.3042 27.5517 32.3455C26.9318 32.5455 26.7388 33.0728 26.7388 33.7455C26.7388 34.4182 27.1046 34.9455 27.826 34.9455C28.3922 34.9455 28.877 34.7216 29.1675 34.3528V35.0001H30.3157V32.0819C30.3157 31.5637 30.1227 30 28.4664 30C27.1413 30 26.7897 31.1091 26.7796 31.6637ZM28.3951 32.9364C28.6795 32.8125 28.9458 32.7927 29.1675 32.8192V33.3265C29.047 33.6069 28.8035 33.9273 28.3951 33.9273C27.7142 33.9273 27.8678 33.166 28.3951 32.9364ZM45.6667 31.6637H44.3423C44.3528 31.1091 44.7165 30 46.0872 30C47.8005 30 48.0003 31.5637 48.0003 32.0819V35.0001H46.8125V34.3527C46.5119 34.7215 46.0104 34.9455 45.4247 34.9455C44.6784 34.9455 44.3 34.4182 44.3 33.7455C44.3 33.0728 44.4997 32.5455 45.1409 32.3455C45.2733 32.3042 45.4114 32.265 45.5545 32.2244C45.9418 32.1145 46.3659 31.9941 46.8125 31.7937V31.6637C46.809 31.4637 46.68 31.0637 46.1923 31.0637C45.7046 31.0637 45.6387 31.4637 45.6667 31.6637ZM46.8125 32.8192C46.5831 32.7927 46.3076 32.8125 46.0134 32.9364C45.468 33.166 45.3091 33.9273 46.0134 33.9273C46.4359 33.9273 46.6878 33.6068 46.8125 33.3264V32.8192ZM48.7 28H50V35H48.7V28ZM12.6607 33.9727V31H12V30H12.6607V28H14V30H15V31H14V32.7123L14 32.7479C13.9998 33.4126 13.9996 33.8811 14.6358 33.6431V34.9946C13.149 35.0712 12.7122 34.3134 12.6607 33.9727ZM30.9902 31V34.1195C30.9902 34.928 31.1173 34.9954 32.9793 34.9954V33.837C32.3319 34.0446 32.3319 33.6249 32.3319 33.0392V31H33V30H32.3319V29H30.9902V30H30.5V31H30.9902ZM34 28H35.3V29H34V28ZM34 30H35.3V35H34V30ZM37.7785 35C38.8881 35 39.7876 33.8808 39.7876 32.5C39.7876 31.1193 38.8881 30 37.7785 30C36.669 30 35.7695 31.1193 35.7695 32.5C35.7695 33.8808 36.669 35 37.7785 35ZM37.7785 33.8553C38.2708 33.8553 38.6699 33.2485 38.6699 32.5001C38.6699 31.7516 38.2708 31.1448 37.7785 31.1448C37.2863 31.1448 36.8872 31.7516 36.8872 32.5001C36.8872 33.2485 37.2863 33.8553 37.7785 33.8553Z" fill="white"/>
</svg>
