<!-- by TradeStack --><svg width="56" height="56" viewBox="0 0 56 56" fill="none" xmlns="http://www.w3.org/2000/svg">
<rect width="56" height="56" fill="#F0F3FA"/>
<path fill-rule="evenodd" clip-rule="evenodd" d="M4 33L7.63827 24H8.7959L11.9711 32H9.88738L9.15887 30H6.42425L5.25685 33H4ZM6.81339 29H8.79462L7.83672 26.3702L6.81339 29Z" fill="#09112D"/>
<path d="M13.2347 26L12.3281 32H13.2347L13.5721 28.1124H13.8251L15.554 32H16.0811L17.9786 28.1124H18.3371V32H19.9605L19.2437 26H18.3371L16.4606 30H16.0811L14.2046 26H13.2347Z" fill="#09112D"/>
<path d="M20.624 26H22.0003V32H20.624V26Z" fill="#09112D"/>
<path d="M23 26V32H24V27.8984L27.8496 32H29V26H28V30.0313L24.1955 26H23Z" fill="#09112D"/>
<path fill-rule="evenodd" clip-rule="evenodd" d="M39.3677 32C41.3414 32 42.9414 30.6569 42.9414 29C42.9414 27.3431 41.3414 26 39.3677 26C37.394 26 35.7939 27.3431 35.7939 29C35.7939 30.6569 37.394 32 39.3677 32ZM39.3677 31.4517C40.5149 31.4517 41.4449 30.354 41.4449 29C41.4449 27.6459 40.5149 26.5483 39.3677 26.5483C38.2205 26.5483 37.2904 27.6459 37.2904 29C37.2904 30.354 38.2205 31.4517 39.3677 31.4517Z" fill="#09112D"/>
<path fill-rule="evenodd" clip-rule="evenodd" d="M35.0777 31.5802C34.5437 31.8469 33.9199 32 33.2534 32C31.2797 32 29.6797 30.6569 29.6797 29C29.6797 27.3431 31.2797 26 33.2534 26C33.9199 26 34.5437 26.1531 35.0777 26.4198V27.8265C34.7253 27.0649 34.0405 26.5483 33.2534 26.5483C32.1062 26.5483 31.1762 27.6459 31.1762 29C31.1762 30.354 32.1062 31.4517 33.2534 31.4517C34.0405 31.4517 34.7253 30.9351 35.0777 30.1735V31.5802Z" fill="#09112D"/>
<path d="M45.9567 26H42.752V26.4954H43.9116C44.6073 26.4954 45.7248 26.5126 45.7248 27.7877C45.7248 29.0628 44.516 29.3097 43.9116 29.2738L46.1254 33H47.9597L45.7248 29.4892C46.2308 29.439 47.2555 29.0068 47.3061 27.68C47.3567 26.3532 46.4276 26.0072 45.9567 26Z" fill="#09112D"/>
<path d="M20.6186 23.6503C15.0555 23.7929 11.5679 23.3414 10.5195 23.0978C15.4873 26.5572 31.9855 23.6503 38.984 23.3383C44.5827 23.0886 49.9943 24.9579 52.0002 25.9237C51.0641 25.3442 46.3391 22.0455 38.4936 22.001C30.6482 21.9564 27.5725 23.472 20.6186 23.6503Z" fill="#C80123"/>
<path d="M15.1819 23.8667C14.9406 23.8469 14.7606 23.8051 14.4531 23.7336C14.6893 23.7821 14.9324 23.8264 15.1819 23.8667C15.7632 23.9144 16.6998 23.8345 20.6314 23.7336C27.5852 23.5553 30.6482 22.2633 38.4936 22.3079C42.937 22.3331 45.6755 23.3759 46.6116 23.9554C44.9641 23.5119 44.0924 22.8482 38.4936 23.0978C31.7627 23.3979 21.4564 24.8812 15.1819 23.8667Z" fill="#09112D"/>
</svg>
