<?xml version='1.0' encoding='utf-8'?>
<!-- by TradeStack -->
<svg width="56" height="56" viewBox="0 0 56 56" xmlns="http://www.w3.org/2000/svg"><path fill="#F0F3FA" d="M0 0h56v56H0z" /><path d="M28.32 11H28c-5.3 0-10.03 2.43-13.15 6.23l15.75-3.37L28.32 11ZM13.2 19.63a16.93 16.93 0 0 0-1.37 13.63l5.58-14.53-4.2.9ZM12.95 35.92a17.01 17.01 0 0 0 12.62 8.91l-11.44-12-1.18 3.09ZM28.5 45c5.16-.15 9.76-2.6 12.78-6.38l-3.57.75-12 2.72L28.5 45ZM42.87 36.24a16.93 16.93 0 0 0 1.04-14.23L39 37.06l3.88-.82ZM42.66 19.4a17.02 17.02 0 0 0-11.56-8.12l10.08 12.65 1.48-4.53ZM29.5 19h-3L19 35h4l5-11 5 11h4l-7.5-16Z" fill="#282D31" /></svg>