<?xml version='1.0' encoding='utf-8'?>
<!-- by TradeStack -->
<svg width="56" height="56" viewBox="0 0 56 56" xmlns="http://www.w3.org/2000/svg"><path fill="#F0F3FA" d="M0 0h56v56H0z" /><path d="M9 37h38V19H9v18Z" fill="#003D7D" /><path d="M8 18h40v20H8V18Zm.5 19.51h39V18.5h-39v19.01Z" fill="#003D7D" /><path d="m17.02 24.38 2.6 6.62H14.3l2.73-6.62ZM40 28v1.5h3.4l-.01.44c-.1 2.33-3.02 3.74-4.63 3.7a5.48 5.48 0 0 1-5.22-5.54 5.47 5.47 0 0 1 5.15-5.59c1.82-.05 3.19.75 4.47 2.28l.21.25 1-.98A6.67 6.67 0 0 0 38.63 21c-3.03.1-5.07 2.06-6.05 4.56L31.74 21 26.9 31.84 22.24 21l-1.6 8.57L17.07 21 11 34.98h1.45l1.2-2.48h6.42l1.23 2.48h1.6l-1.26-3 1.14-6 4.12 9 4.3-8.89 1.58 8.89h1.49l-.42-2.33A7.02 7.02 0 0 0 38.8 35a6.02 6.02 0 0 0 6.2-5.9L45 28" fill="#F0F3FA" /></svg>