<?xml version='1.0' encoding='utf-8'?>
<!-- by TradeStack -->
<svg width="56" height="56" viewBox="0 0 56 56" xmlns="http://www.w3.org/2000/svg"><path fill="#F0F3FA" d="M0 0h56v56H0z" /><path d="M6 32h1v-8.8l5.38 8.8h1.24L19 23.2V32h1V22h-1.66L13 31l-5.12-9H6v10Zm20.34-10-5.58 10h1.33l1.68-3h6.63l.5.94.82-1.3L28.03 22h-1.7Zm3.51 6h-5.53l2.82-5.03L29.85 28Z" /><path d="M34.5 29.31 31.44 34H29.5l4.03-6.17-3.8-5.83h1.93l2.84 4.35L37.34 22h1.93l-3.8 5.83L39.5 34h-1.94l-3.06-4.69Z" fill="#EC1F26" /><path d="M45 29.31 41.94 34H40l4.03-6.17-3.8-5.83h1.93L45 26.35 47.84 22h1.93l-3.8 5.83L50 34h-1.94L45 29.31Z" fill="#2C3590" /></svg>