<!-- by TradeStack --><svg width="56" height="56" viewBox="0 0 56 56" xmlns="http://www.w3.org/2000/svg"><path fill="#011664" d="M0 0h56v56H0z"/><path d="M25.9 21.66 27 26.1c-1.66-4.43-4.01-5.2-4.98-5.1H11.75c-1.13 0-1.75.8-1.75 1.94v10.07c0 1.15.62 1.99 1.75 1.99h10c1.7 0 2.91-1.85 3.31-2.82l3.37-8.6c1.14-3.36 3.43-4.46 4.43-4.58h10.66c2 0 3.48 1.65 3.48 3.68v.9c1 0 2 .83 2 1.84v4.92c0 1.02-1 1.84-2 1.84v1.14c0 2.03-1.47 3.68-3.48 3.68h-9.79a4.5 4.5 0 0 1-4.38-2.95l-.92-4.2c.6.96 1.8 5.15 5.3 5.15h9.81c1 0 1.46-.74 1.46-1.76V31h2v-6h-2v-2.29c0-1.02-.7-1.71-1.7-1.71h-9.57a4.33 4.33 0 0 0-3.5 2.58l-3.74 9.5c-1.32 3.02-3.53 3.87-4.47 3.92H11.63C9.63 37 8 35.35 8 33.32V22.68A3.66 3.66 0 0 1 11.63 19h10.39c2.4.04 3.58 1.8 3.87 2.66Z" fill="#fff"/></svg>