<!-- by TradeStack --><svg xmlns="http://www.w3.org/2000/svg" width="56" height="56" viewBox="0 0 56 56"><path fill="#F0F3FA" d="M0 0h56v56H0z"/><path d="M24.54 21.04L12 13.5v16.4c0 .9.22 1.78.64 2.57l.04.08A11.76 11.76 0 0 0 23 38.66v-1c-3.87 0-7.63-2.15-9.44-5.58l-.04-.07a4.51 4.51 0 0 1-.52-2.1V15.37l11.03 6.52a7.07 7.07 0 0 1 3.47 6.08V43h1V27.98c0-2.85-1.5-5.5-3.96-6.94z" fill="#3180BD"/><path d="M15 18.4l8.47 5.69A5.7 5.7 0 0 1 26 28.76V43h-1V28.76c0-1.55-.8-3-2.04-3.83L16 20.23v8.48c0 .67.01 1.27.23 1.8a7.33 7.33 0 0 0 6.77 4.5v1a8.33 8.33 0 0 1-7.64-5.1 5.7 5.7 0 0 1-.36-2.2V18.4z" fill="#3180BD"/><path d="M18 24.09l.7.24c1.69.63 3.04 1.66 3.96 2.57A5 5 0 0 1 24 30.53V43h-1V32.81a6.94 6.94 0 0 1-4.25-2.3 3.95 3.95 0 0 1-.75-2.55V24.1zm5 7.7v-1.26a4 4 0 0 0-1.03-2.92c-.73-.71-1.75-1.5-2.97-2.06v2.41c0 .78.13 1.45.51 1.92A5.88 5.88 0 0 0 23 31.79zM31.46 21.04L44 13.5v16.4c0 .9-.22 1.78-.64 2.57l-.04.08A11.76 11.76 0 0 1 33 38.66v-1c3.87 0 7.63-2.15 9.44-5.58l.04-.07c.34-.65.52-1.37.52-2.1V15.37L31.97 21.9a7.07 7.07 0 0 0-3.47 6.08V43h-1V27.98c0-2.85 1.5-5.5 3.96-6.94z" fill="#3180BD"/><path d="M41 18.4l-8.47 5.69A5.7 5.7 0 0 0 30 28.76V43h1V28.76c0-1.55.8-3 2.04-3.83l6.96-4.7v8.48a4.7 4.7 0 0 1-.23 1.8 7.33 7.33 0 0 1-6.77 4.5v1a8.33 8.33 0 0 0 7.64-5.1c.3-.72.36-1.5.36-2.2V18.4z" fill="#3180BD"/><path d="M38 24.09l-.7.24a11.41 11.41 0 0 0-3.96 2.57A5 5 0 0 0 32 30.53V43h1V32.81a6.94 6.94 0 0 0 4.25-2.3c.62-.75.75-1.73.75-2.55V24.1zm-5 7.7v-1.26a4 4 0 0 1 1.03-2.92c.73-.71 1.75-1.5 2.97-2.06v2.41c0 .78-.13 1.45-.51 1.92A5.88 5.88 0 0 1 33 31.79z" fill="#3180BD"/></svg>