<?xml version='1.0' encoding='utf-8'?>
<!-- by TradeStack -->
<svg width="56" height="56" viewBox="0 0 56 56" xmlns="http://www.w3.org/2000/svg"><path fill="#F0F3FA" d="M0 0h56v56H0z" /><path d="M23.3 26.14a8.06 8.06 0 0 0-5.13 5.84c-1.42 2.97-1.65 9.08 8.78 9.78 14.78-.05 16.26-13.82 16.47-19.17.22-5.36-6.7-5.08-8.29-5.25-1.58-.16-3.32 4.7-3.65 4.97a42 42 0 0 1-8.18 3.83Z" fill="#FC0" /><path fill-rule="evenodd" d="M20.66 14.92a1.33 1.33 0 0 1 2.4-1.17l1.25 2.59a1.33 1.33 0 0 1-2.4 1.16l-1.25-2.58Zm-7.29 3.53c-.45.58-.36 1.42.22 1.87l2.25 1.8a1.33 1.33 0 1 0 1.65-2.1l-2.25-1.78a1.33 1.33 0 0 0-1.87.21ZM9.14 26c-.33.65-.06 1.45.6 1.79l2.56 1.29a1.33 1.33 0 1 0 1.2-2.38l-2.57-1.3a1.33 1.33 0 0 0-1.79.6Zm6.69 8.52v-.05a13.4 13.4 0 0 1 7.58-10.29c2.02-1.05 3.5-1.4 4.6-1.65.68-.16 1.21-.28 1.63-.51 1.34-.74 1.59-1.8 2.06-3.8l.22-.96c.47-2.34 4.07-3.1 6.54-2.88 1.83 0 4.59 2.09 5.6 3.7 2.54 4.01-.66 14.12-2.74 17.53-2.46 4.04-6.8 7.4-13.83 7.4-4.29 0-7.28-1.11-9.2-2.86a7.14 7.14 0 0 1-2.47-5.58v-.05Zm2.22.18c.2-1.96 1.74-6.4 6.3-8.49 3.43-1.57 5.24-1.58 6.47-1.6.8 0 1.34 0 1.92-.44.77-.58.83-1.2.9-1.9.06-.64.14-1.36.75-2.21 1.15-1.6 1.91-1.6 3.53-1.58h.54c2 0 3.6 1.93 3.6 6.34 0 4.4-2.2 15.96-14.57 15.96-7.83 0-9.56-4.06-9.44-6.08Zm9.67-4.28c-.28 1.08-1.2 1.77-2.05 1.55-.85-.23-1.31-1.29-1.03-2.37s1.2-1.77 2.05-1.55c.85.23 1.31 1.29 1.03 2.37Zm-4.79 3.88c.45-.4 1.15-.38 1.58.04 1.09 1.08 4.51 2.87 8.9.04.5-.33 1.2-.2 1.55.27.35.48.22 1.14-.3 1.46-5.45 3.53-10.07 1.37-11.77-.32-.42-.42-.4-1.09.04-1.5Zm11-2.3c.88.09 1.68-.74 1.78-1.84.1-1.1-.53-2.06-1.4-2.14-.88-.09-1.68.74-1.78 1.84-.1 1.1.53 2.06 1.4 2.14Z" fill="#404040" /></svg>