<!-- by TradeStack --><svg width="56" height="56" viewBox="0 0 56 56" xmlns="http://www.w3.org/2000/svg"><path fill="#F0F3FA" d="M0 0h56v56H0z"/><path d="M35.2 29.74a.14.14 0 0 0-.03.15c0 .02.02.05.05.06.02.02.04.02.07.03 2.69.04 5.1.01 7.28.83 2.98 1.14 4.85 2.94 7.4 5.54a.16.16 0 0 1 0 .19.15.15 0 0 1-.07.06.15.15 0 0 1-.1 0c-5.45-2.44-11.2-3.7-16.45-.07-.24.16-.58.44-1.02.47h-8.05c-.3 0-.56-.1-.8-.3a8.28 8.28 0 0 0-3.09-1.85c-2.46-.6-4.55-.77-6.24-.5-2.49.4-4.97 1.15-7.46 2.27-.82.37-.91.23-.26-.4 1.12-1.1 2.36-2.53 3.76-3.4 2.13-1.32 3.9-2.08 5.3-2.28a64.61 64.61 0 0 1 5.88-.64.17.17 0 0 0 .03-.24 25.96 25.96 0 0 0-3.82-3.53c-1.42-1.06-4.23-1.73-5.96-2.57-.45-.22-.44-.42.02-.6 3.32-1.3 6.1-2.26 9.42-.2l4.05 2.5a.29.29 0 0 0 .44-.22c.31-4.09 1.06-8 2.24-11.73.12-.38.2-.64.22-.79.13-.67.3-.7.51-.07 1.47 4.23 2.1 8.17 2.7 12.65l.05.11c.03.04.06.06.1.08a.23.23 0 0 0 .23-.02c4.74-3.3 7.9-4.38 13.26-2.17.48.2.48.38-.02.54-2.12.67-4.97 1.6-6.88 3.39a63.14 63.14 0 0 0-2.76 2.71Z" fill="#016A50"/></svg>