<!-- by TradeStack --><svg xmlns="http://www.w3.org/2000/svg" width="56" height="56"><path fill="url(#av32i3h0q)" d="M0 0h56v56H0z"/><path d="M11.5 20h2L17 31h-2l-.85-2.68h-3.27L10 31H8l3.5-11zm1 2.5l-1.21 3.97h2.49L12.5 22.5zm5.5 1.1V31h2v-4.86c0-.66.29-1.42 1.05-1.44.82-.01.93.68.95 1.36V31h2v-5.49c0-1.38-.45-2.51-1.98-2.51-.8 0-1.6.29-2.06.97l-.23-.9-1.73.53zm7.64 4.92c0 .05 1.32.88 2.16.87 1.5-.02 1.53-1.2.4-1.46a5.02 5.02 0 01-2.54-1.16c-.77-.77-.37-2.42.36-3.08.51-.46 1.1-.69 1.97-.69 1.71 0 2.75.67 2.75.67l-.8 1.45c0-.09-1.22-.5-2-.5-.36 0-.66.25-.66.64 0 .2.17.43 1 .64.83.21 1.69.43 2.3 1.05.34.34.42.8.42 1.41 0 .88-.4 1.5-.83 1.93-1.02 1-3.58.88-4.7.03l-.22-.15c-.14-.1-.27-.17-.25-.21l.07-.16c.08-.2.23-.56.57-1.28zm11.87.27l.96 1.18A4.16 4.16 0 0135.42 31c-2.32-.07-3.27-1.72-3.4-3.88-.14-2.02 1.14-4.22 3.37-4.12 2.4.12 3.1 1.99 3.1 4.18l.01.45H34c.03.6.2 1.05.44 1.36.25.31.99.72 1.96.43.24-.07.9-.38 1.11-.63zM34 26h2.5c0-.55-.3-1.28-1.2-1.28-.92 0-1.3.73-1.3 1.28zm10 3.55v-9.13l2-.42v8.72c0 .54.14.91.84.77L47 31h-1.41c-.9-.1-1.59-.63-1.59-1.45zm-4-9.13v9.13c0 .82.68 1.36 1.59 1.45H43l-.16-1.51c-.7.14-.84-.23-.84-.77V20l-2 .42zM23.34 32.05a83.1 83.1 0 00-12.93.74C8.84 33.02 2.9 33.9 4.18 35l1.35-.13c5.18-1.27 11.24-.89 16.8-.54 1.3.08 2.58.17 3.8.22 4.23.23 8.51.45 12.78.45 3.62 0 6.96-.4 10.18-1.48l2.91-1.2-.2-.32c-3.64.67-7.28.83-10.98.88-3.43-.02-6.86-.23-10.3-.45-2.39-.15-4.78-.3-7.18-.38z" fill="#fff"/><defs><linearGradient id="av32i3h0q" x1="7.28" y1="9.7" x2="49.9" y2="47.01" gradientUnits="userSpaceOnUse"><stop stop-color="#00B09C"/><stop offset="1" stop-color="#006FA6"/></linearGradient></defs></svg>