<?xml version='1.0' encoding='utf-8'?>
<!-- by TradeStack -->
<svg width="56" height="56" viewBox="0 0 56 56" xmlns="http://www.w3.org/2000/svg"><path fill="#F0F3FA" d="M0 0h56v56H0z" /><path d="M17.6 37.95c.11.56.56.63.66.7.41.34 1.1 1.03.5 1.06-.74.04.66.27 1.83.73 1.17.47 1.32.24 3.54.47 2.22.23 7.37-.06 9.24 0s5.04-1.18 5.52-1.59c.39-.32-.54-.43-1.05-.44l1.17-.2.99-.6-.27-.95-1.67-1.49-.22-.73 1.71-3.1v-.68l-.74-.5-.48.2-.96 1.71v-.87l-.4-2.1-.6-.22.81-.8-.82-.62.6-1.64-.5-.21.5-.74-.73-.64h-.84l-2.16 2.46 1.2-5.19-2.05-.93v-.83l-.59-.35v-.33l-.37-.46h-.72v-.72l-.74-.39v-2L28.7 15l-.82.31-.15 4.55-1.01-.17-1.15.52-.78 2.44-.97-.14-1.15.9.33 1.43-1.13-.45-.11-.99-1.3-.42-.5.42.65 4.17-.5.15-.24.4.58 2-.91-.17-.7-.31-.25-.72-.65-.13-.35.29.14.75-.14.3.5.34-.36.37 1.11 2.56v.32l-.76-.32-.35.32-.43.2v.46l.96.6v.84l-1.81-1.55-.45.56 1.73 1.72c-.04.07-.14.21-.14.3s-.11.53 0 1.1Z" fill="#A9A9A9" /><path d="M21.9 35.33c-.18-.04-1.56-.55-1.82-.7-.24-.12-.19 1.1-.13 1.36-.12.1-.48.27-.9.18-.55-.12-.89.22-.93.31-.04.1-.33 1.83-.23 2.23.1.4 1.91.64 2.07.7.16.06 1.94.97 2.06 1.03.12.06 3.11-.18 3.47-.34.36-.16 3.64.16 4.52 0 .88-.16 4.93-.87 5.35-.91.42-.04 2.1-1.13 2.46-1.31.36-.18.32-1.53.24-1.85-.07-.26-.56-.57-.8-.7l1.62-2.78-1.06-.62-1.36 2.05-.52-1.13 1.14-1.42-.24-1.63-.9-.45v-.7l.9-2.48-.44-.3-1.86.5-2.06 2.58a52.2 52.2 0 0 1 1.4-3.98c.08 0-.4-.6-.66-.91l-1.47 1.67c-.06.93-.2 2.81-.24 2.92-.06.14-1.26-3.36-1.14-3.68.1-.25-.04-.71-.12-.91l-1.9-.58-.8.14-.4 2.55.4 3.47 1.12 2.49-.72.62-.68-1.77-.86.12-.6-.7-.32-1.65-.77.2c-.23-.74-.68-2.23-.68-2.33 0-.1-.79-.63-1.18-.9l.3 3.63a.42.42 0 0 1-.3-.28c-.07-.2-.45.4-.64.73-.16.29-.48.92-.46 1.18.02.32.26 1.67.84 3.2.58 1.53-.52 1.2-.7 1.15Z" fill="#6F6F6F" /><path d="M21.37 23.52a19.3 19.3 0 0 0-1.36-.19l.64 4.2c.01.08.3-.04.43-.11-.09-.77-.25-2.3-.2-2.28.05.04.5.3.5.25V23.52ZM24.53 27.96l-1.02-3.2.69-.55.44.92-.53.3.86 2.26-.15.32.92 2.55-.3.27-.9-2.87ZM26.42 27.44l-.94-2.48.69-.6-1.01-.75 1.1-.82c.08.46.26 1.43.27 1.58.01.15.19.3.27.35l-.1-1.93.86-.47-.24 3.35-.62-.48.62 1.88-.9.37ZM25.29 22.42l-.43.2.66-2.41 1.18-.5.15.38.84.17-.84 1.97-.62.38-.94-.2Z" fill="#CDCDCD" /><path d="M27.8 18.07v-2.73l1.52.67v1.57l-.85.17.37.6.2 1.04-.57.07.09 1.42.53.36-.24 1.68h.37l.51-3.41-.18-1.03.68.24v1.56l-.4-.05-.1 1.78-.26 3.83-.23 1.45-.26.14-.36-2.01-.15-2.5-.6-.29L28 21l-.13-1.09.47-1.7-.54-.14Z" fill="#D9D9D9" /><path d="m17.94 28.76-.4.27.24.75.16.06.77.35.38.2.1-.27-.64-.34-.23-.67-.38-.35Z" fill="#D1D1D1" /><path d="m16.1 34.83.35-.48 1.9 1.81-.28.33-1.98-1.66Z" fill="#CBCBCB" /><path d="m18.41 37.02-.43.78.6.84.43.77c.09.16.01.23-.18.43-.2.19.24-.1.92.16.68.25 2.96.72 3.05.72.1 0-.58-.72-.68-1.08-.1-.35-.53-.7-1.32-.9-.78-.19-1.45.1-1.53.1-.05 0-.48-.44-.7-.66v-.91l-.16-.25Z" fill="silver" /><path d="M30.78 21.1v-1.8l.65.55.09 1.25h.47l-.07.74c0 .07-.33 1.55-.49 2.28l-.09 2.45.58 2.47-1.9 1.82.76-2.91-.36.26h-.84l1.33-4.86h-.5l-.29 1.03h-.35l.1-1.6h.55l.15-1.55.21-.13Z" fill="#CCC" /><path d="M33.36 22.6c-.24-.04-.77-.13-.9-.13v3.34l.7-1.69.72.18.55-2.4-1.07.7Z" fill="#CACACA" /><path d="m21.08 28.59-.89-.06 1.67 5.2.32-.16-1-3.68.57.87c.1.02.31.03.36 0a.83.83 0 0 0 .17-.23l1.23 3.3.33-.1-1.66-5.43h-.32l.25 1.88-.5-.29-.53-1.3ZM19.56 30.37l.15-.43.78.32.52.99-.15.23-.84-1.1h-.46Z" fill="#D1D1D1" /><path d="m22.7 28.14-.58-2.4.42-.06.6 2.33-.43.13Z" fill="#CDCDCD" /><path d="m33.44 27.32-.7 1.81 2.88-2.83-.58 1.55.48.45.82-1.57.65-1.32-1.13.26-.1-.35-.72.24-1.6 1.76Z" fill="#CCC" /><path d="M32.53 29.93v.68l1.56-1.25.11.45-1.52 1.24.24.8.91-.98-.43 1.12-.87 1.28.63.54 1.77-2.64-.47-.77.85-.65.3 1.03-.85 1.48.39.36.89-.93.08.57.65-.79-.21-1.66c-.13-.15-.4-.45-.44-.45h-.5l-.08-.65-.4.44v-.54l-.68.54.23-1.08-2.16 1.86Z" fill="#B3B3B3" /><path d="m37.58 34.84-.84-.37 1.55-2.84.55-.89.54.89-.27.26-1.53 2.95Z" fill="#C3C3C3" /><path d="m18.6 32.22-.63-1.3 1.06.75-.44.55Z" fill="silver" /><path d="m19.37 31.55-.7-.85.83.37-.13.48Z" fill="#D1D1D1" /><path d="m19.97 34.24-.23-1.54.62.38.75.24-.1.3.57.45.16 1.26.9.52v.34l-4.72-2.57.19-.19 3.08 1.9-.08-1-.62-.55-.52.46Z" fill="#CCC" /><path d="m23.17 38.49-.33.53 2.06.87-1.16.9c.45-.18 1.38-.54 1.44-.54.06 0 .8.1 1.16.16l2.46-.52c.23-.12.7-.42.79-.7.09-.27.37-.11.5 0 .03.34.2 1.01.66 1.06.56.07.96.14.96.16 0 .02.62-.87.72-.97.07-.07-.5-.53-.8-.75.44.11 1.4.36 1.65.5.31.17-.36-.5-.52-.6-.16-.09-.86-.62-.88-.7-.02-.07.33-.28.55-.14.22.15.92-.14 1.02-.14.07 0 .28-.74.38-1.1H32.5l-.8.7-.68.23-.14.72-1.1.13-.2.4c-.35.11-1.07.32-1.13.27a1.35 1.35 0 0 1-.2-.36l.89-.19.44-.8h-1.13c-.09 0-.58.45-.82.68l.27.73-.4.33.24.42-.6.23-.12-.8c0-.2-.03-.62-.1-.71a8.4 8.4 0 0 1-.59-1.19c-.01-.11.11-.77.17-1.1l-.45.12c-.04.39-.1 1.22 0 1.43.1.22.17.66.19.85l-.82.19-.17.75-.6-.35-1.49-.7Z" fill="#D6D6D6" /><path d="m35.07 33.06.7-.6V34l-.18 1.28-.38.86v-1.4l-.14-1.68Z" fill="#C2C2C2" /><path d="M34.64 37.33c-.15.22-.46.67-.46.72.27 0 .86.02 1.1.07.28.07.12.39.06.54-.04.12-.61.63-.9.87l1.82-.21c.26-.04.53-.73.53-.81 0-.08.7.04.8 0 .1-.03.04-.4 0-.58.13.07.41.2.56.2.14-.02.19-.28.19-.4l.58-.4.93.4-.14-.6-1.56-1.32-.3.25-.8.28-.6-.68-.28.26.09.53h-.2l-.26.5.91-.33 1.06.2c.07.21.17.64.07.64s-.43.18-.58.26l-.55.11-.45-.37-.46.47-1.16-.6Z" fill="#C9C9C9" /><path fill-rule="evenodd" d="M43 13H13v30h30V13Zm-1 1H14v28h28V14Z" fill="#4174C3" /></svg>