<!-- by TradeStack --><svg width="56" height="56" viewBox="0 0 56 56" xmlns="http://www.w3.org/2000/svg"><path fill="#F0F3FA" d="M0 0h56v56H0z"/><path d="m30.27 27.79-2.68-5.2a.14.14 0 0 0-.12-.07.14.14 0 0 0-.13.07l-6.41 11.34a.14.14 0 0 1-.13.07h-2.65a.14.14 0 0 1-.13-.06.14.14 0 0 1 0-.14l7.92-14.6a.14.14 0 0 0-.08-.21l-7.26-2.13a.14.14 0 0 0-.17.07l-2.23 4.22a.14.14 0 0 1-.17.06l-1.16-.4a.14.14 0 0 0-.13.02.14.14 0 0 0-.06.12l.01 12.87-.03.09a.14.14 0 0 1-.1.05l-.35.04a.14.14 0 0 1-.1-.04.14.14 0 0 1-.06-.1L14 14.42c0-.04.01-.07.03-.1l1.92-2.27a.14.14 0 0 1 .16-.04l27.77 10.84.07.05.02.08.03 1.14a.14.14 0 0 1-.05.12.14.14 0 0 1-.13.02l-14.18-4.15a.14.14 0 0 0-.18.12c0 .03 0 .06.02.09l7.07 13.46a.14.14 0 0 1-.06.2.15.15 0 0 1-.07.02h-2.66l-.07-.03a.14.14 0 0 1-.05-.05l-2.14-3.85a.14.14 0 0 0-.12-.07h-6.3l-.07-.01a.14.14 0 0 1-.07-.13c0-.02 0-.05.02-.07l1.02-1.72a.14.14 0 0 1 .12-.07h4.04a.14.14 0 0 0 .12-.07.14.14 0 0 0 0-.14Z" fill="#1C5732"/><path d="M44 35c.02-.03-3.4.77-3.74.78-3.24.25-6.9.72-11 1.39-1.2.2-2.53.18-3.98-.05-3.57-.57-9.93-.41-13.28-2.07L44 35Z" fill="#5FBD4E"/><path d="M12 35s2.3.54 3.1.9c3.73 1.7 7.59 3.2 11.6 4.51.7.23 1.33.23 1.91.01 2.43-.92 4.79-1.77 7.08-2.53.64-.22 1.87-.96 2.83-1.2C40.65 36.19 44 35 44 35l-15.96 9.88a.78.78 0 0 1-.83 0L12 35Z" fill="#FCD91E"/><path d="M25.28 37.12c1.45.23 2.78.25 3.98.05 4.1-.67 11.5-1.91 14.74-2.17 0 0-3.37 1.3-15.39 5.42-.58.22-1.61.23-2.3 0L12 35l13.28 2.12Z" fill="#C2D62F"/></svg>