<?xml version='1.0' encoding='utf-8'?>
<!-- by TradeStack -->
<svg width="56" height="56" viewBox="0 0 56 56" xmlns="http://www.w3.org/2000/svg"><path fill="#F0F3FA" d="M0 0h56v56H0z" /><path d="m28.63 41.42.04-2.29L43 30.2s-6.73-.15-14.39 8.24l.07-2.09s12.9-8.42 13.34-8.6c0 0-7.15.48-13.3 7.82l-.06-2.11 12.87-8.21s-6.33.05-12.94 7.6v-2.23l12.12-7.56s-5.63-.54-12.18 7l.04-2.34s10.17-6.44 10.7-6.9c0 0-6.26.29-10.77 6.34v-2.2s8.91-5.53 9.17-5.95c0 0-4.92-.42-9.2 5.39l-.05-2.42s6.33-3.42 7.73-5c0 0-5.54.74-7.73 4.45l-.03-2.28s5.06-2.41 5.73-3.98c0 0-3.77 0-5.73 3.28l-.04-1.98s3.66-1.72 4.07-3.05c0 0-2.62 0-4.03 2.06l-.02-1.15s1.3-2.32-.35-5.3V9l-.01.02L28 9v.03c-1.66 2.98-.35 5.3-.35 5.3l-.03 1.15c-1.4-2.06-4.03-2.06-4.03-2.06.4 1.33 4.07 3.04 4.07 3.04l-.04 2c-1.96-3.3-5.73-3.3-5.73-3.3.66 1.58 5.73 4 5.73 4l-.04 2.26c-2.18-3.7-7.73-4.44-7.73-4.44 1.4 1.58 7.73 5 7.73 5l-.04 2.41c-4.29-5.8-9.2-5.38-9.2-5.38.25.42 9.16 5.94 9.16 5.94v2.2c-4.5-6.04-10.76-6.32-10.76-6.32.52.45 10.69 6.89 10.69 6.89l.04 2.35c-6.55-7.55-12.18-7-12.18-7l12.12 7.55v2.23c-6.6-7.55-12.94-7.6-12.94-7.6l12.87 8.2-.06 2.12c-6.15-7.34-13.3-7.82-13.3-7.82.44.17 13.34 8.6 13.34 8.6l.07 2.09C19.73 30.04 13 30.2 13 30.2l14.33 8.93.05 2.3c-.09-.17-3.32-3.18-3.32-3.18a18.28 18.28 0 0 0-10.2-4.59l13.6 8.67.32 5.67h.45l.3-5.67 13.6-8.67s-5.51.34-10.19 4.6c0 0-3.22 3-3.31 3.16Z" fill="#D6AA5C" /></svg>