<!-- by TradeStack --><svg width="56" height="56" viewBox="0 0 56 56" xmlns="http://www.w3.org/2000/svg"><path fill="#F0F3FA" d="M0 0h56v56H0z"/><path d="m37.3 16.13-.71-.46a.15.15 0 0 1-.07-.16c0-.03.02-.05.04-.07a.12.12 0 0 1 .11-.05c.28.04.56.1.84.18.08.03.14 0 .17-.08.02-.08 0-.15-.08-.22-.13-.12-.28-.2-.44-.27-.3-.13-.75-.34-1.34-.63a15.22 15.22 0 0 0-2.72-1.08 1.4 1.4 0 0 1-.53-.25 1.58 1.58 0 0 0-.57-.28 13.71 13.71 0 0 0-3.3-.42c-.13 0-.3.03-.53.1-.27.1-.48.12-.64.1-.27-.05-.4.06-.39.34.03.58.34.9.93.93a.2.2 0 0 1 .18.13.2.2 0 0 1-.04.23.5.5 0 0 1-.5.13c-.09-.01-.14-.07-.15-.17-.02-.26-.17-.38-.44-.35-.08.01-.13.06-.13.14 0 .2.1.36.26.5.13.1.13.2.01.3-.24.23-.3.46-.17.68.05.1.14.15.26.14.11-.01.19-.08.22-.19.1-.3.27-.42.54-.34.2.05.21.13.03.24l-.27.16c-.22.12-.22.25 0 .38.4.24.67.53.8.87l-.2.34c-.04.08-.1.09-.17.03l-.5-.42-.44-.76a.37.37 0 0 0-.25-.19.59.59 0 0 1-.42-.37.39.39 0 0 0-.3-.24c-.3-.06-.45.07-.47.39 0 .17.06.3.22.37s.32.09.49.05c.12-.03.18.02.19.15v.06c0 .12-.06.2-.18.22-.3.05-.42.3-.35.74-.69-.19-1.25-.17-1.7.04a.39.39 0 0 1-.21.04l-.66-.09a2.62 2.62 0 0 0-1.5-.33.8.8 0 0 1-.51-.15.18.18 0 0 0-.2-.01c-.6.33-1.07.49-1.42.48-1.5-.05-2.56 0-3.16.13-.69.15-1.23.6-1.64 1.35 0-.06-.02-.1-.1-.12a5.12 5.12 0 0 1 1.32-1.72 9.6 9.6 0 0 1 1.1-1.02c.1-.08.25-.2.43-.38.24-.23.43-.4.6-.48.14-.1.37-.23.67-.42.67-.43 1.2-.71 1.57-.86l.96-.42a9.1 9.1 0 0 1 1.9-.7c1.08-.23 2.14-.35 3.18-.37 1.9-.03 3.81.12 5.7.45.26.04.48.11.69.2L36 13.8c.27.11.62.36 1.07.74.35.3.63.51.83.63.53.3 1.05.7 1.54 1.2.07.07.07.14 0 .22l-.04.05c-.02.03-.06.04-.1.01l-1.3-.89c-.21-.15-.3-.09-.27.17l.03.28c.01.1-.03.14-.12.14-.1 0-.22-.08-.35-.23Z" fill="#48474C"/><path d="M37.3 16.13c-.54.22-.5.46.1.74a1.61 1.61 0 0 0-.61-.01c-.1.02-.12.07-.06.14l.54.64c-.31.04-.47.19-.5.45 0 .08.03.12.11.13.19.03.35.08.5.16-.16-.01-.25.11-.27.38 0 .05-.03.07-.08.07a.57.57 0 0 1-.34-.12.22.22 0 0 0-.23-.03c-.12.04-.17.17-.15.38-.11-.06-.21-.07-.3-.04a.2.2 0 0 0-.14.17.92.92 0 0 0 0 .36l-.57-.3a.45.45 0 0 1-.19-.18c-.18-.33-.4-.62-.65-.88-.2-.2-.17-.35.07-.48l.25-.13c.07-.04.12-.1.13-.18.02-.19-.06-.33-.24-.43-.1-.05-.16-.02-.19.08a.3.3 0 0 1-.1.16c-.07.05-.13.04-.19-.02a.3.3 0 0 1-.05-.33.3.3 0 0 0 0-.23 2.67 2.67 0 0 0-2.38-1.78c-.4-.04-.76-.19-1.1-.46a.2.2 0 0 1-.07-.21.2.2 0 0 1 .16-.17c.28-.07.6-.1.94-.1.05 0 .08-.03.1-.07v-.07c.02-.04 0-.06-.04-.07-.62-.11-1.28.12-1.98.71l-.16.14c-.18.14-.19.3-.03.48.45.5.99.9 1.63 1.23.14.07.3.23.45.46.13.22.26.36.38.43l.7.37c.25.13.27.27.04.45-.18.14-.36.17-.52.11a1.11 1.11 0 0 0-.35-.29c-.06-.03-.08 0-.06.05l.2.68c-.37.34-.89.24-1.57-.3-.13-.1-.13-.2 0-.3.4-.32.43-.69.06-1.09-.5-.56-.97-.67-1.4-.34-.35.04-.51.1-.48.17a1.72 1.72 0 0 0-.79-.87c-.22-.13-.22-.26 0-.38l.27-.16c.18-.1.17-.19-.03-.24-.27-.08-.45.04-.54.34a.24.24 0 0 1-.23.19.25.25 0 0 1-.25-.14c-.13-.22-.07-.45.17-.67.12-.11.12-.22-.01-.32a.62.62 0 0 1-.26-.49c0-.08.04-.13.13-.14.27-.03.42.09.44.35.01.1.06.16.15.17.2.05.36 0 .5-.13a.2.2 0 0 0 .04-.23.2.2 0 0 0-.19-.13c-.58-.04-.89-.35-.92-.93-.01-.28.12-.4.39-.35.16.03.37 0 .64-.08.22-.08.4-.11.53-.11 1.16.01 2.26.15 3.3.42.21.06.4.15.57.28.15.11.33.2.53.25.65.16 1.55.52 2.71 1.08.6.3 1.04.5 1.35.63.16.06.3.15.43.27.08.07.11.14.08.22-.03.08-.08.1-.16.08a4.8 4.8 0 0 0-.84-.18c-.05 0-.08.01-.11.05a.14.14 0 0 0-.04.07c-.02.07 0 .12.07.16l.7.46Z" fill="#D3D3D3"/><path d="M24.52 14.27a1.11 1.11 0 0 0-.26-.4.2.2 0 0 1-.05-.24c.04-.1.12-.15.22-.18.18-.05.3 0 .38.17l.22.49a.3.3 0 0 0 .17.15c.11.05.18.14.21.27.03.11-.02.18-.14.2-.33.04-.66.1-.99.16-.24.04-.46-.05-.64-.28a.22.22 0 0 0-.15-.08c-.18-.02-.36 0-.53.06-.09.03-.16 0-.21-.06a.18.18 0 0 1-.02-.22c.18-.3.44-.45.77-.46.09 0 .16.03.21.1.2.23.43.38.71.43.1.02.14-.02.1-.11Z" fill="#949597"/><path d="M35.88 19.55c.1.08.16.18.18.29.02.07 0 .13-.08.16a.93.93 0 0 0-.41.3c-.13.17-.14.3-.03.37-.3.22-.4.42-.3.6-.14.07-.3.22-.45.45.08.17-.01.26-.28.25l-.46-.15a.23.23 0 0 0-.2.02c-.2.13-.27.28-.18.46 0 .1.06.16.18.17.08 0 .13.05.15.12.03.11.03.23-.02.35a.2.2 0 0 0 .03.2c.08.1.22.14.44.1-.4 0-.72.13-.95.36-.12-.07-.21-.08-.28-.01-.59.54-1.19 1.21-1.8 2l-.27.33a.4.4 0 0 1-.11.05.37.37 0 0 0-.12.06c-.2.17-.36.37-.5.61a3.7 3.7 0 0 0-1.15.98c-.05.06-.1.1-.18.12-.2.07-.41.1-.64.1-.06 0-.1.03-.1.09v.09c0 .07.04.12.11.14l.9.25c-.13 0-.22.04-.28.09-.14.13-.16.27-.06.43.38.59.87 1.02 1.45 1.3l-.44-.01a.17.17 0 0 0-.17.1c-.1.24-.27.42-.48.55a.26.26 0 0 0-.14.27c.04.28.01.54-.07.78a.4.4 0 0 1-.13.2c-.35.28-.55.68-.61 1.2-.37.05-.77-.09-1.2-.4a1.02 1.02 0 0 0-.36-.17 6.52 6.52 0 0 1-.3-.08c-.3-.1-.54-.14-.72-.14-.99-.02-1.97 0-2.94.07-.65.05-1.32.18-2 .4-.7.21-1.38.43-2.03.64-.32.1-.63.23-.95.37l-.92.4a5.9 5.9 0 0 0-.87.45l-.82.55c-.17.12-.62.23-1.37.33l-1.13-2.54c.47-.02.87-.2 1.18-.52.17-.18.35-.32.53-.42.75-.44 1.52-.87 2.31-1.3a19.3 19.3 0 0 1 1.93-.92c1.04-.43 2.1-.89 3.18-1.38.1-.04.2-.06.3-.06l.39-.02c.1 0 .16-.06.17-.17l.04-.54c.08.1.16.16.24.17.1.03.14-.01.1-.11-.2-.52-.47-.88-.8-1.1-.18-.08-.27-.24-.3-.46.11.1.23.13.34.11.16-.03.29.02.37.14l.15.23c.53.58.91 1.23 1.14 1.95.02.07.06.13.12.17.46.37.94.57 1.45.6.23.02.54.1.93.23l.55.16c.2.05.38.2.52.47.12.2.23.32.33.4.28.16.59.2.94.14.04 0 .05-.03.04-.06l-.01-.06c-.01-.05-.04-.07-.1-.07-.5.06-.74-.25-.7-.94v-.23c0-.12-.06-.16-.17-.15l-.46.07c-.29.05-.38-.06-.28-.34l.19-.48c.17-.44.06-.53-.33-.26-.19.13-.36.29-.51.47a.23.23 0 0 1-.23.08c-.92-.16-1.11-.83-.57-2.02.2-.43.54-.6 1.03-.5.12.03.23.02.34-.03.38-.19.75-.2 1.13-.04.1.03.15.1.17.2l.1.52.05.1c.08.1.16.12.24.08.07-.04.1-.1.12-.18.04-.24 0-.48-.11-.74a.35.35 0 0 1 .08-.43l.78-.7c.06-.06.09-.12.1-.2l.05-.48c0-.07.04-.13.1-.17.48-.28.9-.64 1.25-1.05.25-.29.5-.36.77-.23.23.12.49.07.78-.16.1-.07.08-.1-.03-.12-.32-.04-.5-.23-.5-.56 0-.1-.06-.17-.16-.2a.58.58 0 0 0-.53.07c-.2.14-.23.1-.08-.08.16-.21.4-.32.7-.32.06 0 .14 0 .25.02.22.02.38.01.5-.03.3-.1.6-.19.9-.24a.18.18 0 0 0 .15-.13c.06-.2 0-.34-.2-.42l-.16-.08c-.38-.16-.6-.35-.7-.56l-.26-.74c-.06-.17-.18-.22-.35-.16l-.43.16c-.15.05-.27 0-.34-.14a1.6 1.6 0 0 0-1.38-.88c-.08-.01-.14.03-.18.1-.1.24-.16.48-.19.73 0 .09.01.17.06.24l.24.39c.05.09.04.16-.04.23l-.4.35a.3.3 0 0 0-.11.2l-.03.5c0 .07-.05.11-.14.1h-.07a.18.18 0 0 1-.17-.16l-.11-.52a.18.18 0 0 0-.13-.14 4.92 4.92 0 0 1-1.96-1.17c-.1-.1-.1-.2-.03-.3a5 5 0 0 1 1.25-1.27c.17-.12.25-.08.27.12.01.23.14.37.37.43.19.03.24-.03.17-.2a.44.44 0 0 0-.35-.28.14.14 0 0 1-.12-.13c-.02-.1.01-.2.1-.28.04-.05.1-.07.16-.06l.2.03c.08 0 .15-.02.2-.08.26-.24.26-.54 0-.9.42-.33.89-.22 1.4.34.36.4.34.77-.07 1.1-.13.1-.13.2 0 .3.68.53 1.2.63 1.56.3-.06-.35.01-.5.22-.45.17.06.34.03.52-.11.23-.18.21-.32-.04-.45l-.7-.37a1.29 1.29 0 0 1-.38-.43 1.3 1.3 0 0 0-.45-.46 5.55 5.55 0 0 1-1.63-1.23c-.16-.18-.14-.34.03-.48l.17-.14c.7-.59 1.35-.82 1.97-.71.04 0 .06.03.05.07l-.02.07c0 .04-.04.07-.08.07-.35 0-.66.03-.95.1a.2.2 0 0 0-.16.17.2.2 0 0 0 .08.21c.33.27.7.42 1.1.46 1.14.11 1.94.7 2.37 1.78a.3.3 0 0 1 0 .23.3.3 0 0 0 .05.33c.06.06.12.07.2.02a.3.3 0 0 0 .1-.16c.02-.1.08-.13.18-.08.18.1.26.24.24.43a.23.23 0 0 1-.13.18l-.25.13c-.24.13-.27.29-.07.48.25.26.47.55.66.88.04.08.1.14.18.18l.58.3Z" fill="#48474C"/><path d="m26.24 14.8-.38-.18c-.08-.04-.11-.1-.1-.19 0-.08.05-.14.14-.15.27-.06.53-.05.78.02.18.05.23.17.17.34a.23.23 0 0 1-.08.11.48.48 0 0 1-.53.05Z" fill="#949597"/><path d="M23.3 15.94c-.2-.12-.4-.09-.6.1a.2.2 0 0 1-.27.02.21.21 0 0 1-.1-.24c.03-.18.1-.36.2-.54.2-.39.55-.43 1.03-.14l.16.1c.24.16.46.24.66.23a3 3 0 0 1 .56.02.4.4 0 0 1 .2.09l.82.66c.05.04.08.1.06.17a.27.27 0 0 1-.09.16.28.28 0 0 1-.26.06 1.72 1.72 0 0 0-1.12.13.91.91 0 0 1-.69.06c-.23-.08-.36-.26-.37-.53a.42.42 0 0 0-.2-.35ZM27.8 16.6l-.5.16c-.02-.13-.07-.22-.16-.25-.07-.03-.15-.02-.25.03-.27.14-.31.3-.12.5-.21-.05-.37-.06-.48-.01-.07-.44.04-.69.34-.74.12-.03.18-.1.18-.22v-.06c0-.13-.06-.18-.18-.15a.73.73 0 0 1-.49-.05.35.35 0 0 1-.22-.37c.02-.32.17-.45.47-.4.14.03.24.11.3.25.08.2.22.33.42.37.11.03.2.1.25.19l.44.76ZM23.72 17.02h-.26c-.14-.02-.25-.01-.3.02a.22.22 0 0 0-.14.18c0 .08.01.14.05.2.07.12.08.25.04.4a.52.52 0 0 1-.2.28c-.31.22-.56.5-.74.85a.25.25 0 0 1-.12.12c-.37.19-.68.45-.94.8-.16.2-.31.38-.47.53-.18.18-.34.36-.46.55-.3-.29-.64-.56-1.03-.8a1.33 1.33 0 0 0-.7-.24c-.26-.01-.52-.05-.76-.11a.28.28 0 0 0-.3.08c-.2.22-.46.33-.77.34a.45.45 0 0 0-.33.15.8.8 0 0 0-.19.35c-.05.25-.2.33-.44.22a3.22 3.22 0 0 0-1.13-.3.23.23 0 0 1-.18-.1c-.08-.11-.08-.25 0-.4a.86.86 0 0 1 .28-.28c.48-.32.7-.78.65-1.37.42-.75.96-1.2 1.65-1.35.6-.13 1.66-.18 3.16-.13.35 0 .82-.15 1.41-.48a.18.18 0 0 1 .2 0 .8.8 0 0 0 .52.16c.53-.04 1.03.07 1.5.33Z" fill="#D3D3D3"/><path d="M27.3 16.76c-.14.2-.32.29-.53.27-.2-.19-.15-.35.12-.5.1-.04.18-.05.25-.02.09.03.14.12.16.25Z" fill="#686868"/><path d="M37.4 16.87c.81-.05 1.17.35 1.08 1.18-.02.2-.13.28-.33.21a1.7 1.7 0 0 1-.88-.62l-.53-.64c-.07-.07-.05-.12.05-.14.18-.04.39-.03.6.01Z" fill="#0A0C76"/><path d="M39.91 18.18c-.53-.15-.92-.5-1.16-1.06-.05-.12-.01-.19.12-.2.47-.06.8.2 1.01.77.06.16.1.28.15.36.06.13.02.17-.12.13Z" fill="#243A6E"/><path d="M22.36 17.57c-.16.17-.2.4-.08.51.12.1.34.05.5-.12.16-.17.2-.4.08-.5-.11-.12-.34-.06-.5.11Z" fill="#48474C"/><path d="M32.26 18.08c-.21-.05-.28.1-.22.44l-.2-.68c-.01-.06 0-.08.07-.05.12.06.23.15.35.29Z" fill="#949597"/><path d="m40.89 18.41.98 1.07.02.03.2.55c.06.17.01.2-.13.1l-1.04-.76a.08.08 0 0 1-.04-.06l-.14-.85c-.03-.2.02-.22.15-.08Z" fill="#B43938"/><path d="M15.2 18.37c.07.03.1.06.08.12a1.4 1.4 0 0 1-.65 1.37.86.86 0 0 0-.28.29c-.08.14-.08.28 0 .4.04.06.1.09.18.1.4.03.77.12 1.13.29.24.1.39.03.45-.22a.8.8 0 0 1 .18-.35c.09-.1.2-.15.33-.15.31-.01.57-.12.77-.34.08-.09.18-.12.3-.08.24.06.5.1.76.1.23.01.47.1.7.25.39.24.73.51 1.03.8l.43.94c-.1.38.04.63.42.76.07.02.1.07.11.15l.04.48c-.1.32-.16.64-.19.97-.03.33.04.64.2.93.26.44.56.83.9 1.2.03.21.12.37.3.46.06.38.22.72.46 1.03l-.04.54c0 .1-.06.16-.17.17l-.39.02c-.1 0-.2.02-.3.06-1.07.5-2.14.95-3.18 1.38-.66.27-1.3.57-1.93.92-.8.43-1.56.86-2.31 1.3-.18.1-.36.24-.53.42-.31.32-.7.5-1.18.52-.16-.36-.29-.73-.37-1.14-.59-2.68-.6-5.39-.04-8.1.1-.52.38-1.28.83-2.3.23-.5.39-.89.49-1.14.2-.54.5-.95.9-1.23.14-.1.2-.26.21-.49 0-.07.03-.14.08-.2.08-.1.17-.17.27-.23Z" fill="#323232"/><path d="m37.38 18.38.91.7c.11.07.14.17.08.3l-.4.88c-.07.14-.15.16-.26.06l-1.4-1.26c-.02-.2.03-.34.16-.38a.22.22 0 0 1 .22.03c.1.08.22.12.35.12.04 0 .07-.02.07-.07.02-.27.11-.4.27-.38Z" fill="#0A0C76"/><path d="M23 18.83c-.02-.03 0-.06.03-.08l.04-.02c.55-.3.85-.39.92-.27l.01.04c.07.12-.17.33-.71.62l-.05.03c-.03.02-.06.01-.08-.02l-.16-.3Z" fill="#686868"/><path d="M38.95 18.82v-.04c.43-.33.86-.23 1.29.32l.04.06c.43.55.43.99 0 1.32h-.04l-1.3-1.66Z" fill="#0A0C76"/><path d="M25.19 19.84c-.06.2 0 .4.12.43.12.03.26-.1.32-.31.05-.21 0-.4-.12-.44-.12-.03-.27.11-.32.32Z" fill="#D3D3D3"/><path d="m40.03 22.7-1.44-1.55a.07.07 0 0 1-.02-.1l.46-.88c.03-.05.07-.06.12-.03l1.35 1c.03.02.04.04.03.08l-.37 1.44c-.02.1-.07.1-.13.04ZM35.25 21.27c-.11-.18-.01-.38.3-.6l.6.19c.1.03.15 0 .15-.12l-.03-.38c-.01-.18.06-.22.2-.12l.99.63c.18.12.23.28.14.48l-.58 1.27a.21.21 0 0 1-.2.13.21.21 0 0 1-.22-.12 3.3 3.3 0 0 0-1.35-1.36Z" fill="#0A0C76"/><path d="M42.01 20.85c.08.37.15.76.19 1.17.02.22-.03.32-.14.31l-.27-.3a.62.62 0 0 0-.19-.15c-.5-.25-.67-.7-.52-1.35.01-.07.06-.1.14-.08.28.07.54.2.8.4Z" fill="#B43938"/><path d="M25.74 21.26c.08.23.26.38.42.32.15-.05.2-.28.13-.5-.08-.24-.27-.38-.42-.33-.16.05-.21.28-.13.51Z" fill="#949597"/><path d="M34.8 21.72c.32.58.78 1.06 1.38 1.45.31.2.32.41.03.64-.43.34-.77.74-1.03 1.22-.1.2-.23.21-.38.04l-1.3-1.47c.23-.23.55-.36.95-.36l.36-.23c.13-.39.03-.73-.3-1.04.27 0 .36-.08.28-.25Z" fill="#0A0C76"/><path d="M20.6 21.9c.16.34.33.45.51.33.38-.24.5-.14.36.29-.08.24-.18.5-.3.76l-.03-.48a.16.16 0 0 0-.11-.15c-.38-.13-.52-.38-.42-.76Z" fill="#949597"/><path d="M28.2 23.07a.62.62 0 0 1-.24.65.22.22 0 0 1-.24.03.2.2 0 0 1-.12-.17c-.02-.2.1-.4.4-.6.08-.05.08-.12 0-.18a.68.68 0 0 0-.46-.17c-.3 0-.34-.1-.16-.33.1-.1.19-.2.3-.28.32-.24.53-.15.62.28.05.21.18.34.4.39l.3.06c.1.02.16.06.21.14.15.22.37.35.67.4.13.01.13.04 0 .09a.71.71 0 0 1-.33.05.25.25 0 0 0-.25.09c-.08.1-.18.18-.28.25-.2.13-.29.08-.26-.16.05-.33-.1-.56-.43-.67-.12-.03-.16 0-.14.13Z" fill="#686868"/><path d="M38.45 23.16c.05.04.1.03.15-.01.05-.04.06-.1.04-.15l-.3-.77a.23.23 0 0 1 .01-.17l.03-.07h.03c.35.4.74.76 1.16 1.07.28.2.34.46.18.77L39.14 25c-.12.22-.23.22-.34-.02a2.5 2.5 0 0 0-1.03-1.15.5.5 0 0 1-.22-.28c-.08-.25-.02-.46.2-.61a.24.24 0 0 1 .27-.02l.43.23Z" fill="#0A0C76"/><path d="M41.65 22.77c.65.25.73.95.25 2.1-.09.2-.2.22-.33.03l-.2-.28c-.64-.83-.8-1.42-.47-1.78a.33.33 0 0 0 .1-.2c0-.11.02-.23.04-.34.03-.13.09-.14.16-.03l.26.36c.05.06.11.11.19.14ZM42.75 23.69c.13.45.36.8.52.75.15-.04.18-.45.05-.91-.12-.46-.35-.8-.5-.75-.16.04-.2.45-.07.9Z" fill="#B43938"/><path d="m35.9 25.56.98.29c.08.02.14 0 .17-.08.1-.2.14-.42.12-.64a.44.44 0 0 0-.07-.22c-.13-.2-.16-.43-.09-.72l1.42 1.43c.21.22.2.43-.02.63-.37.33-.69.74-.96 1.23a.2.2 0 0 1-.23.12.56.56 0 0 1-.42-.32 4.57 4.57 0 0 0-1-1.3.2.2 0 0 1-.08-.18c.01-.1.07-.18.18-.24Z" fill="#0A0C76"/><path d="M37.01 24.19c-.07.29-.04.53.09.72.04.07.07.14.07.22.01.22-.03.44-.12.64-.03.08-.1.1-.17.08l-.99-.3c.27-.4.58-.55.94-.44.1.03.13 0 .1-.1a.9.9 0 0 1 .08-.82Z" fill="#D3D3D3"/><path d="M40.18 24.77c-.01-.11 0-.21.05-.3.07-.16.14-.16.22-.01.27.47.59.85.96 1.14.2.17.23.35.07.56-.31.4-.54.84-.7 1.35a.17.17 0 0 1-.15.12.17.17 0 0 1-.18-.08c-.3-.48-.56-.94-.78-1.4-.12-.24-.03-.55.29-.93l.16-.2a.33.33 0 0 0 .06-.25Z" fill="#B43938"/><path d="m31.15 25.92.26-.32c.16.14.38.15.64.03.23-.1.45-.21.65-.33a.3.3 0 0 0 .15-.18.83.83 0 0 0 .03-.34c-.04-.36.07-.42.33-.16l1.07 1.03c.15.14.16.3.03.46l-1.16 1.48c-.1.13-.23.15-.37.07a4.34 4.34 0 0 1-1.06-1.06 8.73 8.73 0 0 0-.57-.68Z" fill="#0A0C76"/><path d="M42.63 25.03c.39.23.63.58.72 1.07l-.2.97c-.09.37-.21.39-.38.05l-.13-.24c-.4-.76-.41-1.38-.01-1.85Z" fill="#B43938"/><path d="m30.42 26.64.2.3c-.1 0-.14.06-.12.19.15.84-.23 1.27-1.14 1.28l-.9-.25c-.07-.02-.1-.07-.1-.14v-.09c0-.06.03-.1.09-.09.23 0 .44-.03.64-.1a.38.38 0 0 0 .18-.12 3.7 3.7 0 0 1 1.15-.98ZM35.52 27.09c-.2-.01-.3.2-.3.61 0 .22-.04.38-.1.48a.77.77 0 0 1-.42.3.32.32 0 0 1-.21-.02c-.24-.09-.48-.1-.74-.04.2-.42.47-.72.8-.9a.17.17 0 0 1 .18 0l.06.04c.06.03.1.02.14-.04a.16.16 0 0 0 0-.15.31.31 0 0 1 0-.29l.1-.22c.04-.09.1-.12.2-.09.2.06.3.16.3.32Z" fill="#D3D3D3"/><path d="m39.3 27.16-.55 1.13a.16.16 0 0 1-.15.09l-.89-.01c.25-.31.5-.54.78-.68a.39.39 0 0 0 .16-.15c.1-.15.17-.32.2-.5.02-.09.07-.13.16-.13.16 0 .26.08.28.25Z" fill="#D0616D"/><path d="m30.61 26.94.41.38c.53.46.86.85 1.01 1.19a.2.2 0 0 1-.02.2c-.4.58-.91 1.09-1.54 1.51a3.42 3.42 0 0 1-1.45-1.29c-.1-.16-.08-.3.06-.43.06-.05.15-.09.28-.1.91 0 1.29-.43 1.14-1.27-.02-.13.02-.19.11-.19Z" fill="#0A0C76"/><path d="M41.77 27.45a.67.67 0 0 1 .06-.4c.04-.08.09-.09.15-.02.32.39.55.77.68 1.13.09.26.01.54-.22.84a.93.93 0 0 0-.16.35l-.06.2c-.25.58-.5.58-.72-.01a4.6 4.6 0 0 0-.15-.34c-.22-.44-.29-.79-.2-1.04a.4.4 0 0 1 .13-.19l.42-.34c.06-.05.08-.1.07-.18Z" fill="#B43938"/><path d="m35.52 27.09.93 1.04c.13.16.15.32.06.5a4.58 4.58 0 0 1-1.29 1.56c-.06.05-.12.05-.18 0a3.45 3.45 0 0 1-1.3-1.77c.27-.06.51-.05.75.04.07.03.14.03.21.01a.77.77 0 0 0 .41-.3c.07-.1.1-.25.1-.47.01-.42.11-.62.31-.61Z" fill="#0A0C76"/><path d="m39.3 27.16.78 1.16c.05.07.06.15.02.22-.25.63-.6 1.16-1.01 1.59-.1.1-.2.1-.28-.04l-1.1-1.72.89.01c.07 0 .12-.03.15-.1l.54-1.12ZM43.2 28.6c-.04.64.08 1.17.28 1.18.2.01.39-.49.44-1.12.04-.64-.08-1.16-.27-1.18-.2-.01-.4.5-.44 1.13Z" fill="#B43938"/><path d="M33.07 29.66c-.01-.03-.02-.05-.04-.05-.03 0-.04 0-.04.03l.05.8c0 .1-.03.18-.11.24-.36.27-.64.38-.82.33-.31-.09-.52-.11-.64-.08.27-.59.63-.99 1.1-1.2.07-.02.14-.1.23-.22.05-.06.1-.08.18-.04.06.03.1.1.09.19ZM37.29 29.66c-.12.2-.15.44-.09.75.01.08 0 .15-.05.21-.25.35-.64.42-1.16.2l.65-1.03c.06-.1.15-.17.25-.21.22-.1.36-.07.4.08Z" fill="#D3D3D3"/><path d="M33.07 29.66c.49.26.86.65 1.11 1.15a.3.3 0 0 1 .03.2c-.08.32-.45.77-1.1 1.36l-.33.32c-.07.06-.14.07-.22 0a6.72 6.72 0 0 1-1.37-1.58.12.12 0 0 1 0-.14c.03-.06.13-.07.28-.04.11-.03.33 0 .64.08.18.05.45-.06.82-.33a.25.25 0 0 0 .1-.24l-.04-.8c0-.03.01-.04.04-.03.02 0 .03.02.04.05Z" fill="#0A0C76"/><path d="M41.16 30.38v.7c-.26.33-.42.59-.5.78-.28.74-.58.75-.91.01a5.33 5.33 0 0 0-.38-.69c-.05-.08-.05-.16.03-.23l.15-.16c.18-.17.3-.32.38-.43.18-.3.43-.53.73-.7.06-.04.12-.03.15.04l.35.68Z" fill="#B43938"/><path d="M37.29 29.66c.41.38.74.8.97 1.26.04.07.03.14-.04.2-.35.25-.64.61-.87 1.07a.41.41 0 0 1-.37.24.41.41 0 0 1-.38-.2l-.82-1.22c-.05-.08.02-.14.21-.2.52.23.91.16 1.16-.19a.26.26 0 0 0 .05-.2c-.05-.32-.03-.57.09-.76Z" fill="#0A0C76"/><path d="M43.13 30.67v.36c-.04.05-.08.14-.13.27-.26.61-.53.9-.82.9-.08-.01-.13-.06-.13-.14-.05-.82.13-1.48.55-1.98.33-.4.46-.35.37.17-.01.08.04.22.16.42Z" fill="#B43938"/><path d="M41.16 30.38c.2.26.2.5 0 .7v-.7Z" fill="#D0616D"/><path d="M38.74 32c-.07.19-.1.35-.12.5-.01.3-.03.46-.05.5-.12.28-.4.39-.83.33-.26-.04-.4.04-.4.23-.04-.23.13-.5.52-.8a.17.17 0 0 1 .19-.03c.14.07.27.06.36-.03a.24.24 0 0 0 .07-.2c0-.14.08-.31.26-.5Z" fill="#D3D3D3"/><path d="M38.74 32c.3.3.55.66.72 1.11.05.14.02.25-.1.34-.3.23-.56.51-.77.84a.94.94 0 0 1-.51.4c-.21.06-.35 0-.42-.21l-.32-.92c0-.2.14-.27.4-.23.43.06.7-.05.83-.34.02-.03.04-.2.05-.5.01-.14.05-.3.12-.5Z" fill="#0A0C76"/><path d="m40.38 34.45-.18-1.16c.45-.22.77-.55.95-.98.04-.08.1-.13.18-.15.23-.07.38.02.45.25.14.5-.02 1-.49 1.51-.22.24-.38.44-.47.6a.25.25 0 0 1-.2.12c-.12 0-.2-.05-.24-.19Z" fill="#B43938"/><path d="M34.89 33.02a.94.94 0 0 0-.05-.6c-.03-.09-.01-.15.06-.2.07-.04.13-.03.2.02.35.32.69.67 1.02 1.04.07.08.06.16-.03.22-.34.23-.65.53-.93.9-.16.2-.35.36-.58.45a.2.2 0 0 1-.24-.05l-.97-1.07c-.3-.33-.23-.47.21-.43.36.03.72 0 1.09-.08.11-.02.19-.09.22-.2Z" fill="#0A0C76"/><path d="M42.37 33.05c-.24.46-.29.91-.12 1 .17.08.5-.23.72-.7.23-.47.28-.91.12-1-.17-.08-.5.23-.72.7Z" fill="#B43938"/><path d="M28.42 33.32c-.02.17 0 .36.04.58.02.09.06.16.12.21.36.32.6.71.72 1.17.12.42.38.65.8.7.23.03.36.16.38.38.05.33.03.65-.06.96l-.37 2.38a3.97 3.97 0 0 0-1.35-.87.1.1 0 0 1-.05-.07.2.2 0 0 0-.08-.13 10 10 0 0 0-3.11-1.55 8.94 8.94 0 0 0-2.13-.35c-.97-.05-1.73-.05-2.28 0-.67.07-1.6.26-2.81.58-.22.06-.61.22-1.18.48-.48.23-.98.34-1.48.34-.66-.74-1.2-1.54-1.63-2.4.75-.1 1.2-.2 1.37-.32l.82-.55c.25-.16.54-.3.87-.45l.92-.4c.32-.14.63-.26.94-.37l2.04-.65a8.83 8.83 0 0 1 2-.39c.97-.06 1.95-.09 2.94-.07.18 0 .42.05.72.14l.3.08c.12.03.24.09.35.17.44.31.84.45 1.2.4Z" fill="#686868"/><path d="m40.2 33.3.18 1.15c-.15-.06-.21-.19-.19-.39.03-.18.03-.43.01-.77Z" fill="#D0616D"/><path d="M36.1 36.76c-.52.2-.9-.18-1.13-1.17l.9-.07a.3.3 0 0 0 .22-.11c.14-.16.2-.36.22-.6.01-.44.17-.5.49-.2.23.24.39.52.45.84.02.07 0 .13-.07.17-.46.3-.82.68-1.08 1.14ZM38.48 35.53c.28-.05.54-.3.8-.76.06-.1.1-.19.14-.23.08-.14.16-.14.25 0 .36.5.23 1.01-.37 1.52-.23.2-.39.36-.48.48-.2.25-.32.22-.36-.1a5.14 5.14 0 0 0-.14-.66c-.03-.15.02-.23.16-.25Z" fill="#0A0C76"/><path d="M41.8 35.4c.14-.13.27-.3.4-.48.15-.23.2-.21.15.06-.04.25-.18.53-.42.84-.12.15-.25.16-.4.02-.12-.12-.25-.13-.39-.04a.83.83 0 0 0-.3.4c-.07.15-.19.22-.36.2l-.06-.02c-.11-.02-.14-.08-.1-.18l.15-.31c.33-.75.6-1.18.83-1.3.48-.23.6-.1.37.37a.77.77 0 0 0-.08.35c0 .2.07.23.21.09Z" fill="#B43938"/><path d="M34.97 35.6c.24.98.61 1.37 1.12 1.16a.57.57 0 0 0-.11.38c0 .08.05.12.12.12l.46.02c-.2.14-.45.22-.75.21-.67 0-1.1.21-1.26.66A3.64 3.64 0 0 1 33 39.9a.26.26 0 0 0-.1.13l-.1.24a.3.3 0 0 1-.16.17l-.18.08c-.37.15-.6.33-.72.54-.18.31-.34.64-.5.98a.4.4 0 0 0-.02.25c.08.45 0 .82-.26 1.11-.06.07-.05.13.04.17.1.05.22.05.37.03l-1.83.28c.07-.06.15-.1.24-.14.07-.02.1-.07.09-.14a.17.17 0 0 0-.07-.12.18.18 0 0 1-.09-.18l.34-3.6.37-2.38.03.1c.03.1.07.1.14.05.1-.1.24-.14.4-.13a.5.5 0 0 0 .27-.04c.14-.07.37-.14.67-.2l.47-.1a64 64 0 0 0 1.63-.55c.55-.19.86-.47.94-.86Z" fill="#D3D3D3"/><path d="M40.7 36.9c.12-.05.16.07.14.35-.23.54-.6.95-1.1 1.25-.42.25-.68.45-.8.6a3.3 3.3 0 0 0-.46.77.4.4 0 0 1-.16.19c-.21.13-.5.34-.86.64-.42.34-.76.6-1.02.74-1.6.94-3.3 1.66-5.07 2.16a.6.6 0 0 1-.37-.03c-.09-.04-.1-.1-.04-.17.26-.29.34-.66.26-1.11a.4.4 0 0 1 .03-.25c.15-.34.31-.67.49-.98.11-.2.35-.39.72-.54l.18-.08a.3.3 0 0 0 .16-.17l.1-.24c.02-.06.05-.1.1-.13a3.64 3.64 0 0 0 1.55-1.75c.17-.45.59-.67 1.27-.66.29 0 .54-.07.74-.21.33-.25.58-.53.77-.85.06-.1.1-.1.15.01.15.41.19.81.1 1.2-.02.11-.09.2-.2.24-.75.31-1.17.75-1.26 1.3-.02.16.04.2.18.13.38-.19.7-.45.98-.8a.4.4 0 0 1 .32-.15c.05 0 .07.02.08.06.06.59-.14 1-.61 1.26a.3.3 0 0 0-.13.13c-.1.19-.1.32-.01.4.09.08.19.1.3.07.33-.1.5-.34.51-.73a.3.3 0 0 1 .17-.27c.27-.15.51-.33.74-.54.1-.1.28-.2.54-.3.32-.13.53-.28.63-.44l.14-.23c.25-.45.5-.74.74-.87Z" fill="#686868"/><path d="m39.58 37.58-1.22.82c-.06.04-.12.04-.17-.01-.06-.05-.07-.11-.03-.18l.37-.68c0-.02.01-.03.03-.04l1.1-.95c.05-.04.1-.05.16 0 .06.03.08.09.06.15l-.24.82c-.01.03-.03.05-.06.07Z" fill="#0A0C76"/><path d="m30.05 39.7-.34 3.6c0 .08.02.14.08.18.05.03.07.07.08.12 0 .07-.02.12-.09.14a.71.71 0 0 0-.24.14 14 14 0 0 1-6.68-.69c-.61-.23-1.2-.48-1.8-.74a14.86 14.86 0 0 1-5.49-4.32c.51 0 1-.11 1.49-.34.56-.26.96-.42 1.18-.48 1.2-.32 2.14-.51 2.81-.58.55-.05 1.3-.05 2.28 0 .76.03 1.47.15 2.13.35a10 10 0 0 1 3.11 1.55.2.2 0 0 1 .08.13c0 .03.02.05.05.07l.06.03c.43.17.86.44 1.29.84Z" fill="#949597"/></svg>