<!-- by TradeStack --><svg xmlns="http://www.w3.org/2000/svg" width="56" height="56"><path fill="url(#axwf1izvw)" d="M0 0h56v56H0z"/><path d="M16.45 38.04C18.1 41.76 20.87 44 24.24 44a5.25 5.25 0 005.32-5.05c0-2.8-2-4.63-4.35-4.63-2.52 0-3.06 2.03-3.06 2.55 0 1.17.92 2.26 2.09 2.26 1.84 0 1.98-1.57 1.98-1.57s.57.38.57 1.39c0 .96-.78 2.05-2.55 2.05-1.42 0-3.5-.66-4.95-3.91-1.7-3.8-1.8-5.09-1.8-5.09h22.3l1.27-3H13s1.48 4.68 3.45 9.04zM20.19 24s1.74-2 5.44-5.73C26.56 17.34 29 15 31.48 15c1.63 0 2.9 1.08 2.9 2.56 0 1.46-1.17 1.89-1.17 1.89.11-.63-.25-2.34-1.8-2.34a2.2 2.2 0 00-2.26 2.18c0 1.8 1.52 3.09 3.3 3.09 3.4 0 5-2.6 5-5.11 0-2.54-2.29-5.27-5.97-5.27-3.39 0-6.53 2.56-8.31 4.43-6.35 6.63-9.7 10.57-9.7 10.57h28.17L43 24H20.19z" fill="#fff"/><defs><linearGradient id="axwf1izvw" x1="10.42" y1="9.71" x2="68.15" y2="76.02" gradientUnits="userSpaceOnUse"><stop stop-color="#1A1E21"/><stop offset="1" stop-color="#06060A"/></linearGradient></defs></svg>