<?xml version='1.0' encoding='utf-8'?>
<!-- by TradeStack -->
<svg width="56" height="56" viewBox="0 0 56 56" xmlns="http://www.w3.org/2000/svg"><path fill="#F0F3FA" d="M0 0h56v56H0z" /><path d="M30.02 29.6h-2.8L31.7 21h3.8l.5 8.6c1.12-7.47 3.57-8.6 7.5-8.6 3.14 0 3.74 4.4 3.37 6H43.5c.56-1.6.62-4-.5-4-2.25 0-3.43 5-4 7.67-.56 2.66-.12 3.33 1 3.33 1.44 0 2.19-2.61 2.37-3.5h3.37c-1.12 4.8-4.49 5.5-6.17 5.5-1.35 0-3-.71-3.57-1.07V36h-3v-3h-4.1l-1.69 3h-3.37l2.81-4.8c2.7-.85 7.11-.71 8.98-.53L33 29.6v-5.33l-2.98 5.33Z" fill="#989898" /><path d="m17.35 34.77-1.16-.32A9.52 9.52 0 0 0 14.91 36h1.53c.26-.44.57-.85.91-1.23ZM13.93 36h-1.97c.54-.7 1.18-1.46 2-2.18l1.49.42A9.93 9.93 0 0 0 13.93 36Zm-1.18-2.52c-.91.67-1.8 1.47-2.67 2.41L7 31.87l5.75 1.61ZM18 36c.18-.27.4-.56.67-.86l3.06.86H18Z" fill="#950E1F" /><path d="m24.6 29.82 2.45-5.32H26l-1.63-2.95-1.52 8.36c.61-.05 1.2-.08 1.74-.1Zm-.22.47c-.57 0-1.1.04-1.62.08l-.24 1.35c.46-.16.93-.29 1.38-.4l.48-1.03Zm-.76 1.63c-.44.18-.86.37-1.24.56L21.74 36l1.88-4.08Z" fill="#E7222B" /><path d="m22.85 29.9 1.52-8.35L22 24l-.13 6 .98-.1Zm-.09.47-.9.1-.04 1.49c.23-.09.47-.17.7-.24l.24-1.35Zm-.38 2.1-.57.3-.07 3.23.64-3.52Z" fill="#6C0E0E" /><path d="m21.87 30 .13-6-1.32-1.42-.9 3.53c-.05.19-.32.2-.4.02L17 20.52l-1.05 2.06 3.39 7.87c.87-.21 1.72-.35 2.53-.45Zm-.01.47c-.84.1-1.6.26-2.32.44l.36.83a9.35 9.35 0 0 1 1.83-.38c-.62.16-1.2.36-1.74.59l.3.68c.5-.26 1.01-.48 1.53-.67l.04-1.5Zm-.05 2.3c-.43.23-.81.47-1.16.7L21.74 36l.07-3.23Z" fill="#AD1B26" /><path d="m11.74 20 4.2 2.58 3.4 7.87-.92.24L11.74 20Zm7.48 11.97-.51-.82.83-.24.36.83a12 12 0 0 0-.68.23Zm.57.92-.41-.67c.2-.1.4-.18.61-.27l.3.68-.5.26Zm.52.82L21.74 36l-1.1-2.53-.33.24Z" fill="#A41C1C" /><path d="M20.3 33.71 21.75 36 20 33.93l.3-.22Zm-.5-.82-.42-.67-.56.29.54.64c.14-.1.29-.18.43-.26Zm-1.88-1.46.67.8c.2-.1.42-.19.63-.26l-.51-.82-.79.28Zm.5-.74L11.74 20l.52 4.65 5.28 6.32c.3-.1.59-.2.88-.28Z" fill="#580704" /><path d="M20.01 33.93 21.74 36l-2.18-1.7c.14-.13.3-.25.45-.37Zm-.65-.78-.54-.64c-.3.16-.6.34-.87.52l.73.57c.22-.16.45-.3.68-.45ZM16.64 32l.92.73c.35-.2.69-.36 1.02-.5l-.66-.8c-.45.17-.88.37-1.28.57Zm.9-1.03-5.28-6.32H9.63c1.4 1.37 4.21 4.23 4.21 4.64v.52l2.22 1.74c.5-.22 1-.41 1.48-.58Z" fill="#AA2226" /><path d="m9.63 28.77 3.16 1.04c1.05.51 1.05 0 1.05 0l2.22 1.74c-.66.3-1.32.64-1.98 1.04l-3.92-1.75-.53-2.07Zm6.64 4.8-1.28-.58c.5-.35 1.04-.68 1.65-1l.92.74c-.43.24-.87.51-1.3.83Zm1.59.7-.99-.44c.33-.27.69-.54 1.08-.8l.73.57c-.29.21-.56.43-.82.67Zm1.16.52L21.74 36l-2.18-1.7c-.2.16-.38.32-.54.49Z" fill="#6C070A" /><path d="m17.86 34.27-.99-.44a11 11 0 0 0-.68.62l1.16.32.5-.5Zm-2.41-.03-1.5-.42c.32-.28.67-.56 1.04-.83l1.28.57c-.28.21-.55.44-.82.68Zm-1.37-1.65c-.45.27-.89.57-1.33.9L7 31.86l3.16-1.03 3.92 1.75Zm4.6 2.55.34-.35L21.74 36l-3.06-.86Z" fill="#B52723" /></svg>