<?xml version='1.0' encoding='utf-8'?>
<!-- by TradeStack -->
<svg width="56" height="56" viewBox="0 0 56 56" xmlns="http://www.w3.org/2000/svg"><path fill="#F0F3FA" d="M0 0h56v56H0z" /><path fill-rule="evenodd" d="M13 35a7 7 0 1 0 0-14 7 7 0 0 0 0 14Zm0-.44a6.56 6.56 0 1 0 0-13.12 6.56 6.56 0 0 0 0 13.12Z" fill="#008CA5" /><path fill-rule="evenodd" d="M13 34a6 6 0 1 0 0-12 6 6 0 0 0 0 12Zm0-.5a5.5 5.5 0 1 0 0-11 5.5 5.5 0 0 0 0 11Z" fill="#008CA5" /><path fill-rule="evenodd" d="M13 33a5 5 0 1 0 0-10 5 5 0 0 0 0 10Zm0-.5a4.5 4.5 0 1 0 0-9 4.5 4.5 0 0 0 0 9Z" fill="#008CA5" /><path fill-rule="evenodd" d="M13 32a4 4 0 1 0 0-8 4 4 0 0 0 0 8Zm0-.5a3.5 3.5 0 1 0 0-7 3.5 3.5 0 0 0 0 7ZM48 25c-1.63 0-3 1.37-3 3 0 1.64 1.36 3 3 3 1.63 0 3-1.37 3-3 0-1.62-1.38-3-3-3Zm0 1c-1.09 0-2 .91-2 2 0 1.1.9 2 2 2 1.09 0 2-.91 2-2 0-1.08-.92-2-2-2Z" fill="#008CA5" /><path d="M44 27.27V31h-1v-3.51c0-.73-.71-1.49-1.5-1.49-.8 0-1.5.75-1.5 1.48V31h-1v-6h1v.98c.49-.54 1.2-.98 1.96-.98 1.2 0 2.04 1.15 2.04 2.27ZM38 23v1h-1v-1h1ZM38 31v-6h-1v6h1ZM36 27.06V31h-1v-3.9c0-.57-.72-1.1-1.31-1.1-.6 0-1.19.5-1.19 1.1V31h-1v-3.9c0-.58-.6-1.1-1.18-1.1-.6 0-1.32.53-1.32 1.11V31h-1v-6h1v.84c.46-.48 1.2-.84 1.9-.84.64 0 1.11.41 1.5.87.4-.52.93-.87 1.6-.87 1.1 0 2 .99 2 2.06ZM26 31v-.97c-.5.62-1.43.99-2.23.97-1.64 0-2.77-1.56-2.77-3 0-1.45 1.16-3 2.78-3 .85 0 1.7.33 2.22 1.01V25h1v6h-1Zm-4-3c0 1.32.97 2 2 2 1.01 0 2-.95 2-2 0-.99-.98-2-2-2-1.04 0-2 .76-2 2Z" fill="#008CA5" /></svg>