<?xml version='1.0' encoding='utf-8'?>
<!-- by TradeStack -->
<svg width="56" height="56" viewBox="0 0 56 56" fill="none" xmlns="http://www.w3.org/2000/svg">
<rect width="56" height="56" fill="#F0F3FA" />
<path d="M21.8532 22.8947L27.9625 9.12052C28.0362 8.95858 28.1062 8.95984 28.1725 9.12429L31.2251 16.581C31.2403 16.6168 31.2474 16.656 31.2458 16.6954C31.2443 16.7349 31.2341 16.7737 31.2161 16.8088C26.5919 25.9678 21.9563 35.1387 17.3093 44.3215C17.1735 44.5889 16.9327 44.7941 16.719 44.9843C16.709 44.9934 16.6964 44.9988 16.6832 44.9998C16.67 45.0009 16.6568 44.9974 16.6456 44.99C16.6344 44.9826 16.6258 44.9716 16.6211 44.9587C16.6164 44.9458 16.6158 44.9317 16.6194 44.9184L20.0323 32.048C20.0625 31.9325 20.0341 31.8352 19.9472 31.7562L10 23H21.663C21.7026 23.0001 21.7415 23.0074 21.7751 22.9855C21.8087 22.9635 21.8358 22.932 21.8532 22.8947Z" fill="#0069AA" />
<path d="M31.0533 30.0318L28.294 30.0095C28.2794 30.0094 28.2651 30.005 28.2528 29.9969C28.2405 29.9888 28.2307 29.9773 28.2244 29.9637C28.2182 29.9501 28.2158 29.935 28.2176 29.9201C28.2193 29.9052 28.2251 29.8911 28.2343 29.8795C29.9338 27.7387 31.623 25.5948 33.302 23.4479C33.5627 23.1134 33.6424 23 34.0986 23C38.0058 23 41.9437 23 45.9125 23C45.9304 22.9998 45.948 23.0054 45.9627 23.0159C45.9775 23.0264 45.9887 23.0413 45.9949 23.0586C46.001 23.076 46.0018 23.0948 45.9971 23.1126C45.9924 23.1304 45.9824 23.1462 45.9686 23.158L36.2061 31.5631C36.1289 31.6287 36.1017 31.7118 36.1246 31.8121L39.074 44.8128C39.1187 45.0098 39.0601 45.0513 38.8984 44.9373L28.1781 37.3889C28.125 37.3517 28.0719 37.3517 28.0188 37.3889L17.7639 44.3111C17.7534 44.3175 17.741 44.3199 17.729 44.3178C17.717 44.3156 17.7061 44.3091 17.6984 44.2994C17.6907 44.2896 17.6867 44.2774 17.687 44.2649C17.6874 44.2523 17.6922 44.2404 17.7005 44.2312L31.0986 30.1452C31.171 30.0696 31.1559 30.0318 31.0533 30.0318Z" fill="#7AC043" />
</svg>