<?xml version='1.0' encoding='utf-8'?>
<!-- by TradeStack -->
<svg width="56" height="56" viewBox="0 0 56 56" xmlns="http://www.w3.org/2000/svg"><path fill="#F0F3FA" d="M0 0h56v56H0z" /><path d="M36.11 12H19.9c-2.1 0-4.1.86-5.58 2.38A8.25 8.25 0 0 0 12 20.12v15.76c0 2.15.83 4.22 2.31 5.74A7.79 7.79 0 0 0 19.9 44H36.1c2.1 0 4.1-.86 5.58-2.38A8.25 8.25 0 0 0 44 35.88V20.12c0-2.15-.83-4.22-2.31-5.74A7.78 7.78 0 0 0 36.1 12ZM16 20.12c0-1.06.4-2.09 1.13-2.84A3.96 3.96 0 0 1 19.89 16H36.1c1.04 0 2.03.53 2.76 1.28A4.07 4.07 0 0 1 40 20.12v15.76c0 1.06-.4 2.09-1.13 2.84A3.96 3.96 0 0 1 36.11 40H19.9a3.96 3.96 0 0 1-2.76-1.28A4.07 4.07 0 0 1 16 35.88V20.12Z" fill="#023F88" /><path d="M25 34a4 4 0 1 1-8 0 4 4 0 0 1 8 0ZM39 21.99a4 4 0 1 1-1.17-2.82A4 4 0 0 1 39 22" fill="#023F88" /><path d="M35.74 34h-.77a2.8 2.8 0 0 0-.31-.62l-8.88-14.02a2.93 2.93 0 0 0-2.62-1.33l-.3-.03h-3.3a1.9 1.9 0 0 0-1.42.56 2 2 0 0 0-.6 1.43c0 .26.06.53.16.77.3.74 1.05 1.27 1.86 1.24h1.04c.09.24.2.44.33.65l8.87 14.02A2.95 2.95 0 0 0 32.33 38h3.42a1.9 1.9 0 0 0 1.41-.56 1.99 1.99 0 0 0 .6-1.43A2.02 2.02 0 0 0 35.75 34Z" fill="#D71920" /></svg>