<!-- by TradeStack --><svg viewBox="0 0 56 56" xmlns="http://www.w3.org/2000/svg"><path fill="#F0F3FA" d="M0 0h56v56H0z"/><path fill-rule="evenodd" d="M13.1 21H12v7h1.5v-2h1a2.5 2.5 0 0 0 0-5h-1.4Zm.4 1.5v2h1a1 1 0 1 0 0-2h-1ZM19.1 21H18v7h1.5v-2h1a2.5 2.5 0 0 0 0-5h-1.4Zm.4 1.5v2h1a1 1 0 1 0 0-2h-1Z" fill="#003F6C"/><path d="M22 29h2.63a2.37 2.37 0 0 1 .78 4.6L27 36h-2l-1.5-2.25V36H22v-7Zm1.5 3.5h1a1 1 0 1 0 0-2h-1v2ZM35 21v7h2.5a3.5 3.5 0 1 0 0-7H35Zm1.5 5.5v-4h1.03a2 2 0 0 1 1.97 2 2 2 0 0 1-1.97 2H36.5ZM25.53 21H24v7h3v-1.5h-1.47V21Z" fill="#003F6C"/><path fill-rule="evenodd" d="M9.5 21h-.39L4 28h1.57l.73-1h3.2v1H11v-7H9.5Zm0 1.62L7.4 25.5h2.1v-2.88Z" fill="#003F6C"/><path d="M31.44 21H30v7h4v-1.5h-2.5v-1.25H34v-1.5h-2.5V22.5H34V21h-2.56ZM28 21h1.5v7H28v-7ZM28 29h1.5v7H28v-7ZM21 30.5V29h-4.5v1.5H18V36h1.5v-5.5H21ZM45 29h1.5l3 4.5V29H51v7h-1.5l-3-4.5V36H45v-7ZM4 29h1.5l3 4.5V29H10v7H8.5l-3-4.5V36H4v-7ZM12.5 29H11v4.5a2.5 2.5 0 0 0 5 0V29h-1.5v4.5a1 1 0 1 1-2 0V29ZM37.32 29.63c.18-.15.4-.33.68-.63h-8v1.5h1.5V36H33v-5.5h3.59c.24-.47.44-.64.73-.87Z" fill="#003F6C"/><path d="M34 31h1.53v5H34v-5Z" fill="#003F6C"/><path fill-rule="evenodd" d="M40.5 36a3.5 3.5 0 1 0 0-7 3.5 3.5 0 0 0 0 7Zm0-1.44a2.06 2.06 0 1 0 0-4.12 2.06 2.06 0 0 0 0 4.12ZM51.27 23.64c.22-.2.29-.37.29-.5s-.07-.3-.3-.5c-.22-.2-.57-.4-1.03-.58-.93-.36-2.25-.58-3.73-.58s-2.8.22-3.73.58c-.46.18-.81.38-1.04.58-.22.2-.29.37-.29.5s.07.3.3.5c.22.2.57.4 1.03.58.93.36 2.25.59 3.73.59s2.8-.23 3.73-.59c.46-.17.81-.37 1.04-.58Zm-4.77 1.6c3.04 0 5.5-.94 5.5-2.1 0-1.15-2.46-2.1-5.5-2.1S41 22 41 23.15c0 1.16 2.46 2.1 5.5 2.1Z" fill="#003F6C"/><path fill-rule="evenodd" d="M49.1 19.24c-.08-.29-.2-.42-.33-.48-.12-.06-.3-.08-.6.03-.28.1-.62.31-1 .64-.74.64-1.54 1.68-2.2 2.96a10.04 10.04 0 0 0-1.14 3.5c-.05.48-.02.87.07 1.16.08.28.2.42.33.47.12.06.3.08.6-.02.28-.1.62-.32 1-.64.74-.65 1.54-1.69 2.2-2.97a10.04 10.04 0 0 0 1.14-3.5c.05-.48.02-.87-.07-1.15Zm-.67 4.84c1.36-2.63 1.6-5.18.54-5.7-1.07-.52-3.04 1.19-4.4 3.82-1.36 2.63-1.6 5.19-.54 5.7 1.07.53 3.04-1.19 4.4-3.82Z" fill="#003F6C"/><path d="M43.83 20.4c.09.97.47 2.21 1.13 3.5a10.28 10.28 0 0 0 2.22 2.96c.37.32.71.53 1 .64.28.1.47.08.6.02.11-.05.24-.19.32-.47.09-.29.12-.68.07-1.16-.09-.97-.47-2.22-1.13-3.5a10.29 10.29 0 0 0-2.22-2.96 3.35 3.35 0 0 0-1-.64c-.28-.1-.47-.09-.6-.03-.11.06-.24.2-.32.48-.09.28-.12.67-.07 1.16Zm.74 3.68c-1.36-2.63-1.6-5.18-.54-5.7 1.07-.52 3.04 1.19 4.4 3.82 1.36 2.63 1.6 5.19.54 5.7-1.07.53-3.04-1.19-4.4-3.82ZM48.47 18.64c0 .36-.3.65-.67.65a.65.65 0 0 1-.66-.65c0-.35.3-.64.66-.64.37 0 .67.29.67.64Z" fill="#003F6C"/><path d="M50.23 25.98c0 .35-.3.64-.66.64a.65.65 0 0 1-.66-.64c0-.36.3-.65.66-.65.37 0 .66.29.66.65ZM42.82 24.21c0 .36-.3.65-.67.65a.65.65 0 0 1-.66-.65c0-.35.3-.64.66-.64.37 0 .67.29.67.64Z" fill="#003F6C"/></svg>