<?xml version='1.0' encoding='utf-8'?>
<!-- by TradeStack -->
<svg width="56" height="56" viewBox="0 0 56 56" xmlns="http://www.w3.org/2000/svg"><path fill="#F0F3FA" d="M0 0h56v56H0z" /><path d="M11.82 23.81 11.14 26H8l3.36-9h4.06L19 26h-3.3l-.8-2.19h-3.08ZM14.45 22l-1.17-3.3-1.04 3.3h2.2ZM22 17h-3v9h3v-9ZM23 19h2.63l.06 1.1c.63-.74 1.21-1.16 2.25-1.1C29.3 19 31 20.12 31 22.56c0 2.6-1.83 3.45-3.43 3.45-.57 0-1.09-.2-1.57-.68V29h-3V19Zm4.33 5.33c.83 0 1.38-.6 1.38-1.62 0-.9-.43-1.7-1.36-1.7-.92 0-1.35.8-1.35 1.7 0 1.02.55 1.62 1.38 1.62h-.05ZM34.44 23.36c.1.5.75.95 1.8.95.76 0 1.51-.16 2.22-.45v1.65c-.8.33-1.67.5-2.53.49-2.51 0-3.93-1.34-3.93-3.46 0-1.31.91-3.54 3.68-3.54 2.4 0 3.32 1.78 3.32 3.47 0 .3-.03.6-.1.89h-4.46Zm2.3-1.58c0-.68-.36-1.15-1.19-1.15a1.17 1.17 0 0 0-1.15 1.15h2.34ZM40 19h2.55l.07 1.07h.06a3 3 0 0 1 2.4-1.07c1.8 0 2.92 1.06 2.92 3.06V26h-3v-3.64c0-.89-.25-1.36-.97-1.36-.69-.01-1.03.5-1.03 1.13V26h-3v-7ZM17 37.46c-.99.35-2.02.54-3.06.54-2.62 0-5-1.65-4.94-4.46C9 31.18 10.8 29 14.2 29c.85-.02 1.7.14 2.5.46v1.1a5.44 5.44 0 0 0-2.54-.56c-2.46 0-3.66 1.45-3.66 3.49 0 2.07 1.17 3.51 3.54 3.51.66 0 .89-.06 1.46-.29V34h-2.06v-1H17v4.46ZM19 32h1.3l.04 1.37h.04c.24-.77.83-1.37 1.78-1.37.28 0 .56.04.84.1v1.02c-.3-.07-.63-.1-.94-.1-1.2 0-1.56 1-1.56 1.9V38H19v-6ZM26.5 37.14c-1.2 0-2-.77-2-2.12 0-1.16.48-2.16 2-2.16 1.57 0 2 1.12 2 2.11 0 1.44-.78 2.17-1.99 2.17h-.01Zm-.05.86C28.18 38 30 37 30 34.93c0-1.66-1.36-2.93-3.45-2.93-2 0-3.55 1.2-3.55 3.06C23 36.8 24.49 38 26.44 38h.01ZM37 38h-1.31l-.06-1.22h-.04c-.47.76-1.17 1.24-2.1 1.22-1.81 0-2.53-1.4-2.49-3v-3h1.5v3.11c0 1 .15 2.03 1.31 1.98.74.02 1.23-.4 1.55-1.02.08-.2.13-.41.14-.62V32H37v6ZM38 40h1.5v-2.95c.5.63 1.25 1 2.1.95 1.6 0 3.4-.78 3.4-3 0-2.22-1.74-3-3.34-3-.98-.05-1.7.41-2.24 1.17h-.02L39.33 32H38v8Zm1.5-4.85A2.12 2.12 0 0 1 41.66 33c1.33 0 1.94.96 1.94 2.05 0 1.33-.68 2-2 2-1.23.02-2.13-.8-2.1-1.9Z" fill="#333" /></svg>