<!-- by TradeStack --><svg xmlns="http://www.w3.org/2000/svg" width="56" height="56" viewBox="0 0 56 56"><path fill="#F0F3FA" d="M0 0h56v56H0z"/><path d="M28 30.83c1.78 0 4.95 3.19 5.8 4.03.89.9 1.33 2.23.88 3.56-.62 1.89-5.79 6.69-6.68 7.58-.89-.9-6.05-5.7-6.68-7.58-.44-1.33 0-2.67.9-3.56l.18-.19c1.06-1.05 3.94-3.84 5.6-3.84zm10.43-9.51C40.3 21.94 45.1 27.1 46 28c-.9.9-5.7 6.06-7.57 6.68-1.34.45-2.68 0-3.57-.89-.84-.84-4.03-4.02-4.03-5.79 0-1.77 3.19-4.95 4.03-5.8.9-.88 2.23-1.33 3.57-.88zm-17.3.89c.85.84 4.04 4.02 4.04 5.79 0 1.77-3.19 4.95-4.03 5.8-.9.88-2.23 1.33-3.57.88C15.7 34.06 10.9 28.9 10 28c.9-.9 5.7-6.06 7.57-6.68 1.34-.45 2.68 0 3.57.89zM28 10c.9.9 6.06 5.7 6.68 7.58.45 1.33 0 2.67-.89 3.56-.84.84-4.01 4.03-5.79 4.03-1.77 0-4.95-3.19-5.79-4.03a3.47 3.47 0 0 1-.89-3.56c.63-1.89 5.8-6.69 6.68-7.58z" fill="#FF2701"/></svg>