<!-- by TradeStack --><svg width="56" height="56" viewBox="0 0 56 56" xmlns="http://www.w3.org/2000/svg"><path fill="#F0F3FA" d="M0 0h56v56H0z"/><path d="M32 23a2 2 0 1 0-1.6-.8c-2.69 1.94-8.06 4.75-14.17 4.75-5.75 0-6.52-2.68-5.82-4.1A4.07 4.07 0 0 0 9 25.72c0 1.7 2.09 3.21 6.3 3.21 3.86 0 11.61-1.96 15.77-6.16A2 2 0 0 0 32 23Z" fill="#1A1A1A"/><path d="M38.4 14.1a4.2 4.2 0 0 1 3.18.54c1.4.99 1.44 3.74-1 7.08-2.37 3.23-10.52 9.65-16.77 10.13a2 2 0 1 1 .19-.76c3.14-.92 10.56-4.55 14.4-9.79 3.33-4.56 1.58-6.94 0-7.2Z" fill="#869B46"/><path d="M21.42 31.81a1 1 0 1 0 1.16-1.62 1 1 0 0 0-1.16 1.62Z" fill="url(#a)"/><path d="M31.42 21.81a1 1 0 1 0 1.16-1.62 1 1 0 0 0-1.16 1.62Z" fill="url(#b)"/><path d="M36 33a2 2 0 1 0-1.59-.79c-2.96 2.31-10.04 6.73-16.23 6.73-5.71 0-6.48-2.78-5.78-4.25a4.3 4.3 0 0 0-1.4 2.97c0 1.77 1.28 3.34 5.45 3.34 3.98 0 11.9-1.51 18.54-8.27.3.17.64.27 1.01.27Z" fill="#1A1A1A"/><path d="M32.22 12.45c-.66-.09-1.33-.13-2.01-.13-8.64 0-15.65 6.83-15.65 15.26s7 15.26 15.65 15.26c3.15 0 6.08-.9 8.54-2.47A16.53 16.53 0 0 1 28.37 44C19.33 44 12 36.84 12 28s7.33-16 16.37-16c1.33 0 2.62.15 3.85.45Z" fill="#1A1A1A"/><path d="M22 16.3c1.8-.84 4.15-1.3 6.29-1.3C35.82 15 42 20.78 42 28.08 42 34.41 37.36 39.7 31.23 41 38.38 40.43 44 34.62 44 27.52 44 20.05 37.77 14 30.09 14c-2.88 0-5.87.85-8.09 2.3Z" fill="#869B46"/><path d="M35.42 31.81a1 1 0 1 0 1.16-1.62 1 1 0 0 0-1.16 1.62Z" fill="url(#c)"/><defs><linearGradient id="a" x1="22.8" y1="30.2" x2="21.27" y2="31.48" gradientUnits="userSpaceOnUse"><stop stop-color="#D9D9D9"/><stop offset=".77" stop-color="#869B46"/></linearGradient><linearGradient id="b" x1="32.8" y1="20.2" x2="31.27" y2="21.48" gradientUnits="userSpaceOnUse"><stop stop-color="#D9D9D9"/><stop offset=".77" stop-color="#1A1A1A"/></linearGradient><linearGradient id="c" x1="36.8" y1="30.2" x2="35.27" y2="31.48" gradientUnits="userSpaceOnUse"><stop stop-color="#D9D9D9"/><stop offset=".77" stop-color="#1A1A1A"/></linearGradient></defs></svg>