<!-- by TradeStack --><svg width="56" height="56" viewBox="0 0 56 56" xmlns="http://www.w3.org/2000/svg"><path fill="#F0F3FA" d="M0 0h56v56H0z"/><path d="m15.87 21 8.2 7.98V29h-3.55a.1.1 0 0 1-.07-.03l-1.12-.95a.09.09 0 0 0-.06-.02H8.85a.02.02 0 0 1-.02-.02l7-6.98h.04Zm-.01 3.46a.02.02 0 0 0-.02 0l-1.27 1.33a.01.01 0 0 0 0 .02H17.21v-.02l-1.35-1.33ZM26.66 27v.02L28.43 29V29h-3.1l-.03-.01-6.83-6.93.05-.06c3.07-.02 6 .02 8.83 0l.75.01c1.53.07 3.04.88 3.02 2.66-.02 1.79-1.71 2.31-3.23 2.33h-1.24Zm-3.33-3h-.01v.01l1.57 1.37c.02.02.06.03.09.03h3.1c.44 0 .9-.28.9-.75.01-.6-.47-.66-.98-.66h-4.67ZM40.02 23.72v.01l-.01.01h-6.02l.01.02V24.7l.01.01H41c.03 0 .06.01.08.03l.92.9a.03.03 0 0 1 0 .03v.01l-.62.62a.05.05 0 0 1-.04.01H34l-.01.02v.96l.02.02H40.3v.01a.02.02 0 0 1 .01.01c0 .01 0 .02-.02.03l-.02.02A652.83 652.83 0 0 0 38.6 29h-6.59a.02.02 0 0 1-.02-.02V22l.02-.01h6.2c.02 0 .04 0 .06.02l1.74 1.7Z" fill="#011444"/><path d="m43.37 25.66-3.69-3.63V22l.01-.01h2.92l6.97 6.97V29l-.01.01H46.68l-1.86-1.87h-.02L42.94 29h-2.86a.01.01 0 0 1 0-.03l3.3-3.3v-.01Z" fill="#011444"/><path d="m47 25-1.4-1.43a.02.02 0 0 1 0-.02L47.13 22H50v.01H50v.02L47.02 25H47ZM7.66 33H4.01v-.01L4 32.98 7.85 29H11.52v.01a.02.02 0 0 1 0 .02L7.68 33Z" fill="#357EFE"/><path d="m49.58 30.66.31-.17h.01a.03.03 0 0 0 0-.03c-.16-.46-.71-.51-1.06-.43a.74.74 0 0 0-.56.8c.02.46.43.66.76.83l.25.14c.15.1.3.27.22.48-.15.4-.6.34-.83.1a.38.38 0 0 1-.1-.18v-.01l-.01-.01h-.03l-.3.15a.06.06 0 0 0-.03.04v.04c.09.24.21.4.38.48.44.21 1.25.16 1.39-.57.12-.64-.31-.86-.7-1.06l-.17-.08c-.18-.1-.43-.29-.33-.55a.34.34 0 0 1 .27-.21c.2-.04.36.03.49.23l.02.01h.02ZM25.33 32.2h.01v.53c-.67.49-1.87.33-2.23-.63-.31-.86.08-1.7.78-1.99a1.53 1.53 0 0 1 1.48.18v.02l-.03.45v.01c-.36-.3-.74-.4-1.15-.29-.22.06-.4.2-.55.42-.25.39-.2 1 .1 1.34.16.18.36.29.59.31.37.03.7-.08 1-.35Zm9.67-.11h-.01v-.01l-.94-2.07h-.02L33.37 33V33H33.8v-.02l.35-1.75h.01l.06.17v.02l.76 1.57.02.01H35l.76-1.59v-.01l.06-.17.36 1.75V33l.02.01h.4v-.01L35.97 30l-.01-.01h-.01v.01L35 32.08ZM27.63 30l-.01-.01-.02.01A3010.84 3010.84 0 0 1 26.28 33h.47l.01-.01.3-.7.02-.02.03-.02a50.5 50.5 0 0 1 1.05.02l.02.02.3.7V33h.47L27.64 30Zm.34 1.85a29.3 29.3 0 0 1-.72-.02v-.01a7.4 7.4 0 0 0 .38-.9 7.34 7.34 0 0 0 .34.93Zm15.64.4a52.5 52.5 0 0 0-.54 0l-.02.04-.3.69-.01.01h-.47a3677.2 3677.2 0 0 0 1.34-3l.01.01a3226.17 3226.17 0 0 0 1.32 3h-.46l-.01-.01-.3-.7a.07.07 0 0 0-.02-.03l-.03-.01h-.51Zm0-.4a29.73 29.73 0 0 0 .37-.02 7.43 7.43 0 0 1-.37-.92 7.5 7.5 0 0 1-.35.94h.35Zm-30.28.34c-.3.27-.64.38-1 .35a.88.88 0 0 1-.6-.31c-.3-.35-.34-.96-.09-1.35a.91.91 0 0 1 .55-.4 1.21 1.21 0 0 1 1.15.28l.03-.46v-.01l-.02-.01a1.53 1.53 0 0 0-1.46-.18c-.7.28-1.1 1.13-.78 1.98.36.97 1.55 1.13 2.22.65v-.54Zm2.9.8h-.51v-.01l-.93-1.32-.01-.01h-.02v.01l-.01.02v1.3l-.02.01h-.4V30l.02-.01H15c.45 0 .86.13.9.76.04.52-.21.81-.6.88v.02l.93 1.33Zm-1.44-2.55v.81l.28.01c.1 0 .19-.04.26-.1.07-.07.1-.16.1-.25v-.12a.35.35 0 0 0-.1-.25.37.37 0 0 0-.26-.11h-.28v.01Zm2.23-.45h.41c.01 0 .02.01.02.03v2.94c0 .02 0 .03-.02.03h-.41c-.01 0-.02-.01-.02-.03v-2.94c0-.02 0-.03.02-.03Zm2.75 3a33.42 33.42 0 0 0-.23-.02V30.44h-.01v-.01H18.83l-.02-.02-.01-.03v-.36l.03-.02h.93a762.2 762.2 0 0 1 .95.01v.4l-.03.01h-.67l-.01.01-.01.03v2.53h-.22Zm1.76-3h.44c.02 0 .03.01.03.03v2.94c0 .02-.01.03-.03.03h-.44c-.02 0-.03-.01-.03-.03v-2.94c0-.02.01-.03.03-.03Zm9.9 3h-1.42l-.01-.03v-2.96l.02-.01h.43v2.53a.03.03 0 0 0 0 .02.02.02 0 0 0 .02 0h.96l.02.02V32.99l-.02.01Zm7.64-1.84h-1.06V30.42h1.06l.02-.02v-.4l-.02-.01h-1.51V33l.02.01h1.51V32.56l-.02-.01h-1.04l-.02-.01V31.6h1.06l.02-.01V31.17l-.02-.01ZM41.22 30h.93l.02.01.01.03v.37l-.03.01h-.67l-.02.01v2.54l-.01.02-.02.01a33.55 33.55 0 0 0-.43-.02v-2.53l-.01-.02H40.3l-.03-.02V30h.02s0-.01 0 0l.93-.01Zm6.23 2.56h-.98l-.01-.01v-2.52l-.02-.02-.01-.01H46.01l-.01.03v2.94a.04.04 0 0 0 0 .02h.01l.01.01h1.42l.01-.02V32.55Z" fill="#011444"/></svg>