<!-- by TradeStack --><svg width="56" height="56" viewBox="0 0 56 56" xmlns="http://www.w3.org/2000/svg"><path fill="#F0F3FA" d="M0 0h56v56H0z"/><path d="M19 32h-4v-.5c.8 0 1.33-.33 1.5-.5l6-14c1.5 4.17 4.6 12.7 5 13.5.4.8 1.17 1 1.5 1v.5h-2.5v-.5c.4 0 .5-.33.5-.5l-4.5-11c-1.33 3.5-4 10.6-4 11 0 .4.33.5.5.5v.5Z" fill="#164E9C"/><path d="M24.75 24C14.13 24 7 28.5 4 33c3.5-3 8.61-8 20.75-8S42 30.5 45 34c-3-4.45-7.08-10-20.25-10Z" fill="#8F9190"/><path d="M25.42 25.04a35.3 35.3 0 0 0-.87-.03l-.41-1 .9.01.38 1.02ZM33 29.8c0 .17 0 .3-.02.4h-3.44c.02.29.1.54.23.75.13.2.31.36.54.47.22.1.46.16.73.16.34 0 .63-.08.86-.23.24-.16.4-.37.48-.64h.56c-.1.38-.32.7-.65.93-.33.24-.75.36-1.25.36-.4 0-.74-.08-1.05-.24A1.85 1.85 0 0 1 29 30c0-.4.09-.76.26-1.06.17-.3.41-.54.72-.7.31-.16.66-.24 1.06-.24s.74.08 1.03.24c.3.16.53.38.69.66.16.27.24.57.24.9Zm-.54-.01c0-.3-.06-.54-.19-.74a1.2 1.2 0 0 0-.52-.47 1.7 1.7 0 0 0-1.75.2c-.27.24-.43.57-.46 1h2.92ZM48.61 32c-.46 0-.83-.1-1.13-.3-.28-.21-.45-.5-.48-.85h.53c.02.22.13.4.31.53.2.13.45.2.76.2a1 1 0 0 0 .65-.2.59.59 0 0 0 .25-.47.44.44 0 0 0-.14-.33.9.9 0 0 0-.33-.2c-.13-.05-.32-.1-.54-.16-.3-.08-.54-.15-.73-.23a1.28 1.28 0 0 1-.47-.33.91.91 0 0 1-.2-.6c0-.2.06-.37.18-.53.12-.16.28-.3.5-.39.21-.1.46-.14.73-.14.43 0 .78.1 1.04.32.26.2.4.5.42.87h-.5a.73.73 0 0 0-.29-.55c-.16-.14-.4-.21-.68-.21-.26 0-.47.06-.63.18a.53.53 0 0 0-.25.44c0 .15.05.27.14.37.1.1.22.17.36.23l.57.18c.3.08.52.15.7.22.16.07.3.18.43.31.12.14.19.32.19.55 0 .21-.06.4-.18.56a1.2 1.2 0 0 1-.49.39c-.2.1-.45.14-.72.14ZM39.5 28H39v2.5c0 .5.3 1.5 1.5 1.5s1.5-1 1.5-1.5V28h-.5v2.5c0 .33-.2 1-1 1s-1-.67-1-1V28ZM43.5 28H43v2.5c0 .5.3 1.5 1.5 1.5s1.5-1 1.5-1.5V28h-.5v2.5c0 .33-.2 1-1 1s-1-.67-1-1V28ZM37.5 30a1.5 1.5 0 1 1-3 0 1.5 1.5 0 0 1 3 0Zm0-1.32A2 2 0 0 0 34 30a2 2 0 0 0 3.5 1.32V33h.5v-5h-.5v.68Z" fill="#164E9C"/></svg>