<?xml version='1.0' encoding='utf-8'?>
<!-- by TradeStack -->
<svg width="56" height="56" viewBox="0 0 56 56" xmlns="http://www.w3.org/2000/svg"><path fill="#F0F3FA" d="M0 0h56v56H0z" /><path d="M29.4 11h.26c.63.1.88.5.75 1.16-.14.69.47 1 .97.65.19-.14.4-.44.66-.5.31-.08.68-.02 1 0 .68.07 1.12-.69 1.74-.88a6.74 6.74 0 0 1 1.15-.24l.02.01v.02l-.02.02c-.58.31-1.13.62-1.63 1.09-.32.3-.67.63-1.08.79-.42.16-1.03.17-1.5.25h-.03l-.01.03v.05c.01.01.05.05.07.05 1.06.33 1.88-.1 2.77-.62a4.1 4.1 0 0 1 1.71-.54v.01c-1.75 1.26-3.2 2.4-5.28 2.04-.5-.08-.84-.37-1.05-.83-.19-.42-.3-.71-.83-.62a6.15 6.15 0 0 0-3.32 2.04l-.01.07a10.03 10.03 0 0 1-.02.6 56.4 56.4 0 0 1-.07-2.62c0-.02.01-.05.03-.06A9.21 9.21 0 0 1 29.4 11ZM18.34 16.75h-.05c-.02.02-.02.05 0 .07 3.14 3.4 3.14 8.5.97 12.42-.25.44-.55.84-.92 1.2-.02.01-.02.03.01.03.03.01.05 0 .07-.02.48-.44.87-.96 1.2-1.58 2.02-3.88 1.81-8.73-1.22-12.02a.28.28 0 0 1-.04-.1c.2 0 .4.09.56.13a760.09 760.09 0 0 1 6.53 1.68v.03l.01.04c1.05 1.01 1.6 2.74 1.9 4.17.55 2.54.33 5.34-.98 7.6-.01.02 0 .03.03.03a8.15 8.15 0 0 0 1.37-3.94c.2-2.54-.46-5.9-2.23-7.9l.74.19c.04 0 .07 0 .09-.03h.02a.1.1 0 0 0 .07.06l2.25.61c0 .1.04.2.11.28l.16.18c2.08 3.07 1.56 7.15.56 10.55 0 .02 0 .04.02.05.01 0 .03 0 .04-.02 1.29-3.38 1.56-7.72-.68-10.77-.08-.1-.13-.18-.15-.24l3.24.92a.1.1 0 0 0 0 .08 9.4 9.4 0 0 1 1.58 4.67 10.45 10.45 0 0 1-.31 3.68c-1.17.56-2.34 1.11-3.52 1.65a1 1 0 0 1-.42.09H22.7l.07-.12a8.86 8.86 0 0 0 1.76-5.74 13.69 13.69 0 0 0-2.08-6.83c-.01-.02-.01-.03-.04-.02-.02 0-.03.02-.01.04 2.28 3.83 2.81 8.64.32 12.52l-.12.15h-3.56a.08.08 0 0 0-.07.04c-.02.03-.05.03-.08 0a.13.13 0 0 0-.09-.03h-4.26l-.01-.02v-.01a12.58 12.58 0 0 0 2.72-7.04c.34-4.26-1.92-7.36-5.9-8.36h-.01a.05.05 0 0 1-.01-.06v-.02c.07-.06 6.24 1.49 6.85 1.64l.17.07ZM26.18 16.24c.36.04.53.55.07.67-.4.1-.79.1-1.18-.01-.2-.06-.38-.29-.2-.49.24-.28.9-.21 1.3-.17ZM25.02 17.1v-.01l-.03.01-.53 1.03.01.03h.04l.52-1.04v-.03ZM26.14 17.53a.02.02 0 0 0-.02.03l.23 1.13s.02.02.03.01c.02 0 .03-.01.03-.03l-.24-1.13a.02.02 0 0 0-.03-.01Z" fill="#153762" /><path d="M32.1 20.4c1.64.44 2.87.81 3.69 1.12.35.13.74.55.97.91a8.67 8.67 0 0 1 1.4 4c0 .03 0 .07-.02.1a.16.16 0 0 1-.07.06l-4.7 2.17.02-.18a9.27 9.27 0 0 0-1.17-7.94.97.97 0 0 1-.12-.24Zm2.15.74c1.37 1.66 1.83 4 2.13 6.09.01.1.02.1.03 0 .1-2-.8-4.61-2.1-6.1-.01-.01-.01-.04-.06-.02v.01a.02.02 0 0 0 0 .02Z" fill="#153762" /><path d="M21.76 34.62c-.1 0-.2.03-.28.1-.06.04-.05.05.02.03l.3-.1c.59-.2 1.1-.38 1.56-.56 4.08-1.64 8.11-3.42 12.21-5.02 1.52-.59 3.12-1.22 4.69-1.37.03 0 .05.01.05.05 0 .1-.08.24-.1.31a6.99 6.99 0 0 0 1.32 6.59c-2.82.03-5.59.84-8.03 2.17a109.53 109.53 0 0 0-3.58 2.04l-5.36-.11c.93-1.23 1.92-2.4 2.97-3.52.02-.02.02-.04 0-.05-.05-.03-2.32 2.51-2.55 2.76-.28.3-.62.45-.87.83a.42.42 0 0 0-.27-.04c.1-.18.15-.36.29-.52a392.5 392.5 0 0 1 2.6-2.99c-.06-.02-2.36 2.57-2.6 2.83-.23.25-.54.4-.79.68l-.27-.02c.13-.24.23-.44.41-.64a217.1 217.1 0 0 0 2.54-2.92c0-.03 0-.03-.02-.01-.8.86-1.59 1.74-2.37 2.62-.33.38-.68.66-1.06.97-.05-.05-.12-.06-.19-.02.11-.22.19-.41.35-.6.58-.63 1.14-1.28 1.7-1.95.01-.02 0-.02-.02-.02s-.04.02-.06.04c-.74.89-1.56 1.73-2.45 2.54a.38.38 0 0 0-.25-.04c.32-.29.43-.64.68-.94a172.58 172.58 0 0 1 1.2-1.4v-.02h-.03l-1.26 1.38c-.36.4-.7.4-.9 1.01l-.45-.07c.8-1.07 1.66-2.1 2.56-3.08 1.01-1.1 1-1.1-.02-.03-.64.67-1.27 1.36-1.89 2.06-.34.4-.76.63-1.1 1.06l-.27-.03.12-.31a.2.2 0 0 1 .04-.07l.94-1.1v-.03a11.04 11.04 0 0 1-1.57 1.5l-.22-.01c.1-.12.16-.25.2-.4 0-.03.02-.05.04-.07l.42-.5c.1-.12.09-.13-.02-.03l-.34.32c-.25.25-.54.36-.76.69l-.25-.03c.01-.38.98-1.34 1.25-1.68a47.02 47.02 0 0 0-1.13 1.18c-.17.2-.41.27-.6.48-4.18-.4-7.94-2.7-7.2-7.74.3-2.01 1.35-3.87 3.65-3.51.03 0 .04.02.05.05.06 1-1.64 1.92-2.36 2.24-.44.2-.72.56-.82 1.09-.41 2.2 1.1 4.66 3.36 4.8.78.04 1.57.06 2.35.05.36 0 .78-.05 1.13-.15 1.16-.32 2.3-.7 3.41-1.16 5.1-2.05 10.05-4.5 15.91-7.2.93-.43 1.87-.83 2.82-1.2a2.23 2.23 0 0 1 .6-.14.05.05 0 0 1 .03.07l-.7 1.39a.06.06 0 0 1-.06.03c-1.1.02-2.27.43-3.38.84-1.4.52-3.16 1.27-5.29 2.23-3.32 1.5-6.63 3.06-10.03 4.37Z" fill="#E39F15" /><path d="M33.33 28.58h.06l-.02.18-.08.04a.2.2 0 0 1 .04-.22ZM22.71 30.4l.05.02-.07.12-.08.26h-.04l.02-.26.12-.15Z" fill="#92A0B5" /><path d="M16.76 35.45c-.13-.11 1.85-4.23 2.1-4.75 0-.03.02-.03.04-.01.01.01-.01.04-.01.05-.77 1.85-1.32 3.29-2.1 4.7 0 .02-.02.02-.03 0ZM26.22 30.74c.05.34.08.68.09 1.01a1.43 1.43 0 0 1-.12.58.03.03 0 0 1-.03 0v-.03a8.01 8.01 0 0 1 .01-1.56c.01-.1.03-.1.05 0ZM18.68 35.2c.44-1.51 1.12-3.02 1.74-4.48.04-.1.05-.09.03.02-.02.18-.13.37-.18.51-.47 1.34-.94 2.69-1.53 3.98l-.02.02a.03.03 0 0 1-.04-.02v-.02ZM25.22 30.74v-.01a.02.02 0 0 1 .01-.02h.02a.03.03 0 0 1 .02.02c.04.5.07.99.07 1.5 0 .19-.02.35-.07.49-.02.06-.04.06-.06 0-.16-.54-.04-1.38 0-1.98ZM21.76 34.62l.04.02-.3.1c-.07.03-.08.02-.02-.03.08-.06.17-.09.28-.1ZM42.4 39.7c.1-.17-.07-.18-.17-.16-.24.06-.48-.02-.71-.05a.9.9 0 0 1-.35-.12c-.03-.02-.05-.01-.04.03.02.2.33.24.5.3-1.06-.03-2.22-.16-3.26-.02l-.04.01a.07.07 0 0 0-.01.08c0 .02.02.03.03.03l.36.16c-.3-.03-.61.13-1.02.08-.26-.03-.68-.01-1.02-.15a.1.1 0 0 0-.08 0 .23.23 0 0 1-.22-.02.03.03 0 0 0-.05 0 .04.04 0 0 0 0 .05c.05.09.14.13.24.12.05 0 .06.01.04.05-.01.04-.05.06-.1.06s-.06.02-.03.07l.04.05c.02.02.04.02.06 0 .06-.07.12-.1.18-.08.03.01.05 0 .06-.02l.04-.1c.02-.02.03-.03.06 0l.1.1a.1.1 0 0 0 .07.03c.18 0 1.74-.05 1.73-.2l.46.2.03.03a.07.07 0 0 1 0 .08 133.38 133.38 0 0 0-3.75.08c-.13 0-2.41-.06-2.59.11a.05.05 0 0 0 .02.08c.85.16 1.7.2 2.56.3.08.02.08.03 0 .03-2.5.06-5.01.07-7.51.03-.86-.01-1.7-.12-2.55-.21-.05-.14-.14-.15-.28-.04l-.21-.02a.53.53 0 0 0-.32-.15.24.24 0 0 1-.09-.03l-.37-.18c-.03-.01-.05 0-.07.03-.01.04-.02.08 0 .11-.5-.06-1-.05-1.49.03a.1.1 0 0 0-.07.04c-.38.55-1.29.5-1.86.46a48.08 48.08 0 0 0-1.87-.09.1.1 0 0 1-.04-.1.1.1 0 0 1 .03-.06c.1-.11.25-.2.41-.25a.7.7 0 0 1-.22.25c-.04.03-.04.05 0 .06.07.04.36-.2.51-.23.03 0 .04-.02.04-.05a.2.2 0 0 0-.08-.17c.2-.1.9-.39.85-.65 0-.03-.02-.05-.05-.05-.51-.05-1.77-.15-2.1.12-1.06.85-2.6.72-3.83.56l-.03-.01a.03.03 0 0 1 0-.05l.03-.01c.53-.03 1.06-.1 1.58-.21.2-.05.38-.17.56-.26l.02-.02a.05.05 0 0 0-.04-.07c-1.05-.15-2.09-.38-3.1-.69a3.32 3.32 0 0 1-1.53-.88v-.03l.03-.02h.02c.2.05.4.13.58.25.36.13.72.23 1.09.28.41.05.76.15 1.15.22.39.06.79.23 1.14.32a9.31 9.31 0 0 1 1.13.33s.02 0 .02-.02a.05.05 0 0 0-.01-.06c-.15-.12-.37-.13-.54-.2-.26-.1-.49-.1-.8-.26l.04-.04c.05 0 .46.17.48.08 1.34.1 2.68.13 4.02.1-.03.04-.04.07-.03.1 0 .03.02.03.04.02l.26-.16v.03c.01.02.03.03.05.03a6 6 0 0 1 1.18.02c.1.07.2.05.3-.05.1.04.21.05.33.02l-.12.25v.06a.05.05 0 0 0 .07 0l.46-.31.38.02a.28.28 0 0 0-.02.15c.01.04.03.05.06.03l.32-.2v.03c0 .01.01.02.03.02l.44-.01c.05.05.1.06.16 0 .29.04.57.05.85.06l2.3.04c.27.1.54.15.82.13.04 0 .06 0 .1.02.13.08.29.13.45.14l.09.03.13.07c.04.03.06.02.07-.03 0-.06-.02-.1-.05-.15a.12.12 0 0 0-.06-.05l-.29-.1 1.58.02c.04 0 .09-.02.12-.04 3.11-2.1 6.98-3.8 10.72-4.14.34-.03.65-.01.93.05.03 0 .05.02.07.04.76.83 1.45 1.54 2.35 2.07.2.12.48.2.72.32.78.4 2.1.32 2.93.13.24-.05.64-.19.98-.26a.06.06 0 0 1 .06.03.06.06 0 0 1 0 .06c-.17.45-1.33.9-1.76 1.02-1.38.4-2.59.38-4.25.27-.02 0-.03-.01-.04-.03a.06.06 0 0 0-.05-.03l-1.93-.04c-.02 0-.04 0-.05.02a.09.09 0 0 0-.02.1c0 .03.02.04.04.05.56.23 1.14.4 1.68.66.04.03.04.05 0 .07a.28.28 0 0 1-.21.05Zm.7-3.12-1.29-1.08c-.05-.04-.06-.03-.05.04.04.23.24.25.35.35a43.33 43.33 0 0 1 .64.62v.02l.02.04c.1.06.17.14.22.24 0 .02.01.02.02.03a.06.06 0 0 0 .07 0l.02-.04.03-.14c0-.03 0-.06-.03-.08Zm-4.35-.43c.23.07.35.24.57.32.34.12.7.26 1 .49a50.61 50.61 0 0 0 .86.63l.01-.02v-.02c-.01-.07-.05-.1-.12-.1a.1.1 0 0 1-.06-.04c-.38-.4-.81-.69-1.31-.88-.06-.02-.12-.08-.18-.13-.02-.02-.02-.03.01-.04.28-.05 1.2.64 1.4.83.03.03.07.03.12 0 .02-.01.02-.02 0-.04-.2-.14-.38-.29-.55-.45-.25-.24-.68-.35-1-.48-.24-.1-.5-.1-.75-.15l-.02.01v.03c0 .02 0 .03.02.04Zm5.46 1.6.05-.06a.02.02 0 0 0 0-.03l-.63-.57-.03-.03a.12.12 0 0 0-.03 0h-.05v.06c0 .02.02.04.04.05l.62.58h.03Zm-.71-.46v-.05a.23.23 0 0 0-.05-.06.23.23 0 0 0-.06-.05h-.04v.04c0 .02.03.04.04.06l.06.05h.05Zm-1.17.68.01.05c0 .03 0 .04-.04.04a.23.23 0 0 1-.17-.14c-.03-.07-.08-.09-.15-.05-.02 0-.03.03-.02.05 0 .03.02.05.04.06l.05.02c.05.03.04.04 0 .05a.6.6 0 0 1-.2.01c-.04 0-.05 0-.05.04v.02c-.01.04 0 .06.04.06h.6c.2 0 .38.07.59.11.03.01.04 0 .02-.03-.15-.21-.74-.42-.99-.57-.08-.05-.2-.08-.26-.18a.1.1 0 0 0-.06-.04.42.42 0 0 1-.32-.3.06.06 0 0 0-.02-.02l-.03-.01h-.03a.06.06 0 0 0-.03.03.21.21 0 0 0 0 .21c0 .02.03.04.05.06.28.2.59.35.92.46.03.01.05.03.05.07Zm-6.34-.12a.5.5 0 0 0 .3.3c.07.03.08.01.02-.05l-.22-.25c-.04-.04-.03-.05.02-.03.3.13.59.3.86.49l.09.03h.02l.02-.02a.04.04 0 0 0-.02-.05l-.5-.33c-.03-.02-.03-.04 0-.06a.07.07 0 0 1 .06-.01.2.2 0 0 1 .08.03c.13.13.36-.03.38.17 0 .03.02.05.05.06.15.03.26.1.34.23.01.02.03.04.06.05.08.05.38.3.49.25.05-.03.04-.05-.02-.06-.1 0-.16-.06-.18-.17 0-.03-.02-.05-.06-.05-.16 0-.24-.08-.25-.23a.09.09 0 0 0-.05-.07l-.22-.12c-.03-.01-.04-.04-.02-.07.02-.03 0-.05-.04-.07-.03 0-.04 0-.05.03l-.03.04c-.02.03-.05.05-.08.03l-.4-.1c-.04-.02-.05-.05-.02-.1.04-.04.05-.1.04-.15-.01-.04-.03-.06-.07-.05l-.21.03h-.09a6.2 6.2 0 0 0-1.3-.14c-.02 0-.03.01-.03.03v.03c.01.03.03.04.06.05.27.03.5.22.79.2.1 0 .15.04.18.13Zm10.93.41c-.15.05-.31.06-.48.05-.02 0-.04.01-.05.03l-.02.03c-.01.03 0 .04.03.04a.3.3 0 0 1 .22.07c.02.01.05.02.08.01a6.85 6.85 0 0 0 2.1-.84.06.06 0 0 0-.02-.06h-.03c-.27.05-.47.25-.67.33-.23.1-.46.17-.7.22l-.46.12Zm-3.75-.02c.23.1.98.33 1.18.14.03-.02.02-.03-.01-.04l-.7-.12-.04.01-.02.02h-.02l-.36-.1-.03.01a.04.04 0 0 0-.02.06l.02.02Zm2.25.28c-.06.1-.4.04-.51.04-.03 0-.06 0-.08-.02a.36.36 0 0 0-.3-.04c-.03 0-.05.03-.05.06 0 .02.32.09.36.11.03.02.05.02.08.02.1-.01.7 0 .72-.05.01-.04 0-.05-.03-.06-.03 0-.05-.01-.06-.04-.01-.02 0-.04.03-.04l.13-.01c.06 0 .07-.03.02-.07a.2.2 0 0 0-.14-.06 1 1 0 0 1-.61-.2.04.04 0 0 0-.06.02.04.04 0 0 0 0 .05c.13.15.28.23.47.24.04 0 .05.02.03.05Zm-2.47 0c.23.09.47.1.73.05.09-.02.09-.03 0-.04l-.67-.09a.14.14 0 0 1-.09-.04l-.02-.02c-.03-.03-.05-.03-.07 0-.03.05 0 .16.07.14h.05Zm-5.2.29.04-.07v-.02h-.01a3.47 3.47 0 0 0-.39-.23l-.01.01a3.5 3.5 0 0 0 .34.3l.01.01h.02Zm1.68.17c0 .1.05.16.15.18a.1.1 0 0 0 .07-.02l.13-.08c.03-.02.03-.04.01-.07a1.33 1.33 0 0 0-.64-.45h-.02l-.02.02v.03c.09.03.4.18.34.25 0 .02-.03.03-.05.01-.04-.02-.22-.14-.25-.1-.01.03 0 .05.02.06l.23.12c.02.01.03.03.03.05Zm-.74.25a.09.09 0 0 1-.04-.13l.04-.03a.59.59 0 0 1 .53.02c.02.01.04 0 .05-.02v-.03c.01-.03 0-.04-.01-.06-.25-.16-.53-.06-.8-.02a.1.1 0 0 1-.07-.03.59.59 0 0 0-.45-.15l-.02.01-.02.02v.03l.02.01c.3.15.55.13.65.52 0 .03.03.05.05.06.04.02.09.02.14 0 .02-.02.05-.01.07 0 .09.07.19.09.3.07.08 0 .09-.03.01-.07l-.45-.2Zm-4.81-.2.86.1c.03 0 .06.01.08.04l.04.03c.07.08.09.06.06-.04l-.06-.18c-.01-.03-.03-.04-.06-.03-.05.01-.06.02-.12.01a5.6 5.6 0 0 0-1.14-.02.04.04 0 0 0 .01.07c.08.03.16.04.24.02h.09Zm3.62.48a.57.57 0 0 0-.37-.14.07.07 0 0 1-.07-.04l-.05-.13a.09.09 0 0 0-.05-.04c-.15-.07-.3-.12-.47-.16-.03 0-.06 0-.08.02l-.04.05c-.12.12-.1.14.04.05l.12-.07c.03-.02.05-.01.08.01.08.09.18.14.29.15.03 0 .05.02.07.05l.04.1a.1.1 0 0 0 .06.05c.08.03.46.22.57.17.04-.02.04-.03-.01-.04h-.06a.1.1 0 0 1-.07-.03Zm-1.56-.13c.18.15.33.3.58.26a.1.1 0 0 1 .09.03l.18.18.06.02.48.02c.02 0 .03-.01.04-.03.03-.06.01-.12-.05-.15a.09.09 0 0 0-.07-.01c-.3.1-.89-.12-1.15-.28-.29-.18-.6-.31-.94-.4-.08-.01-.12.02-.12.11v.04c0 .08.02.1.08.04l.08-.08c.03-.02.05-.02.08 0 .18.1.38.18.59.22.02 0 .05.01.07.03Zm4-.23-.06.06c-.04.04-.04.07.02.08l.73.2c.03 0 .05-.01.05-.04v-.02c.01-.04 0-.06-.03-.07l-.29-.1c-.03 0-.05-.03-.05-.07v-.02c0-.01 0-.02-.02-.03l-.26-.09c-.02 0-.03 0-.04.02l-.02.04c0 .02-.02.03-.03.04Zm-1.07.02a1.01 1.01 0 0 0 .76.2v-.04l-.79-.21-.01.01c0 .03.02.04.04.04Zm-21.17.01c.12.43 1.15.1 1.44.38l.02.02h.03l.02-.03.01-.02v-.08c0-.04-.01-.06-.05-.06l-1.21-.14a.08.08 0 0 1-.05-.02.28.28 0 0 0-.17-.09c-.04 0-.05.01-.04.04Zm19.12.33.02-.06v-.01l-.38-.14a.44.44 0 0 0-.1-.02l-.06.01v.02l.03.03.05.02.05.03.38.13.01-.01Zm-7.4.05c-.02.11.38.22.49.33.02.02.04.02.06 0 .01-.03 0-.07-.02-.12a.1.1 0 0 0-.04-.05l-.43-.2c-.04-.02-.06 0-.07.04Zm-7.56.28c.2-.01.37.02.53.1.03.02.06.02.09.02.43-.02.86 0 1.29.04a.1.1 0 0 0 .07-.02.42.42 0 0 1 .25-.07.1.1 0 0 1 .08.04c.14.23.34.24.52.32.25.12.5.18.74.18.14 0 .25.04.33.1h.02l.02-.02c.03-.03.03-.06-.01-.09a.62.62 0 0 0-.28-.08 3.3 3.3 0 0 1-1.16-.37.03.03 0 0 1 0-.02c.05-.07.32.06.4.08l.03-.01.02-.03v-.03a3.07 3.07 0 0 0-.6-.28 3.04 3.04 0 0 0-.92-.02c-.17.02-.32.09-.5.1h-.38c-.26.02-.5-.09-.75-.08-.37.01-.75-.01-1.13-.08-.02 0-.03 0-.03.03l.08.3.01.02.02.02a.05.05 0 0 0 .05-.02c.33-.34.8-.17 1.17 0 .04.01.06 0 .06-.03v-.06l-.03-.01c-.01-.02 0-.03.01-.03Zm13.47.03c-.28-.1-.6-.1-.9-.16a1.9 1.9 0 0 0-.93.08.04.04 0 0 0 .01.04h.03c.31-.04 1.68-.09 1.9.17.02.02.05.04.08.04l.86.14c.05 0 .06 0 .02-.04-.19-.18-.5-.03-.6-.24a.13.13 0 0 0-.05-.05c-.12-.08-.24-.08-.35 0a.06.06 0 0 1-.07.02Zm-18.76 0c-.13.01-.32.2-.17.32l.03.01h.03l.02-.02v-.03c0-.1.03-.14.13-.12.04 0 .05-.02.04-.06l-.02-.05c-.01-.03-.03-.04-.06-.04Zm16.7.17-.05.03c-.04.02-.04.05 0 .07.06.02.1.01.12-.05.02-.07 0-.09-.07-.05Zm-12.58.22-.08.01-.02.01-.01.02v.02l.01.02.06.04c.04.02.07.02.1-.01l.2-.23c.02-.03.02-.05-.01-.07-.11-.04-.15.08-.2.15a.07.07 0 0 1-.05.04Zm.4-.04a.68.68 0 0 0-.15.3c-.02.05 0 .06.05.04a.13.13 0 0 0 .07-.1c0-.03.02-.05.04-.05l.12-.06c.05-.01.05-.04.02-.07l-.06-.07c-.03-.02-.06-.02-.08 0Zm12.4.06h.03c.02-.01.02-.02 0-.04-.05-.03-.1-.03-.14 0l-.01.02a.03.03 0 0 0 .01.03c.04.02.07.02.1 0Zm-13.46.14c.15.05.3.04.44-.04l.02-.01v-.05l-.03-.01c-.06-.01-.12 0-.17.04a.08.08 0 0 1-.06.02c-.04 0-.06-.03-.08-.06a.12.12 0 0 0-.06-.06.2.2 0 0 0-.25.06c-.03.03-.03.06 0 .08.04.02.08.03.12.02l.07.01Zm10.69.22c-.02-.03-.04-.04-.08-.03-.25.07-.5.05-.73-.06a.1.1 0 0 0-.08 0 .56.56 0 0 1-.42-.02.08.08 0 0 0-.09 0 .09.09 0 0 0-.03.04.1.1 0 0 0 0 .04v.09c0 .05.02.06.06.05l.3-.09c.02 0 .04 0 .06.02.24.2.8.12 1.14.13.54.02 1.16 0 1.75.05.07 0 .16-.02.26-.08.03-.02.03-.03-.01-.03l-2.08-.08a.05.05 0 0 1-.05-.03Z" fill="#153762" /><path d="M39.32 36.47c-.22-.08-.34-.25-.57-.32-.02 0-.03-.02-.02-.04v-.03h.02c.26.03.51.03.75.14.31.13.75.24 1 .48.17.16.36.31.55.45.02.02.02.03 0 .04-.05.03-.09.03-.12 0-.2-.19-1.12-.88-1.4-.83-.03 0-.03.02 0 .04.05.05.1.1.17.13.5.19.93.48 1.3.88a.1.1 0 0 0 .07.03c.07 0 .1.04.12.11a.04.04 0 0 1-.01.04.04.04 0 0 1-.04 0l-.83-.63c-.3-.23-.65-.37-1-.5ZM43.4 37.23c.03.05.08.07.1.06.01-.02-.01-.07-.05-.11-.04-.05-.09-.07-.1-.05-.02.01 0 .06.04.1ZM36 37.85c-.04-.1-.1-.14-.2-.13-.29.02-.51-.17-.78-.2-.03 0-.05-.02-.05-.05v-.03c-.01-.02 0-.03.02-.03a6.2 6.2 0 0 1 1.39.14l.2-.03c.05 0 .07 0 .08.05.01.06 0 .11-.04.16-.03.04-.02.07.03.08l.39.11c.03.02.06 0 .08-.03l.03-.04c0-.02.02-.03.05-.03.04.02.06.04.04.07-.02.03-.01.06.02.07l.22.12c.03.01.05.04.05.07.01.15.1.22.25.23.04 0 .06.02.06.05.02.1.08.17.18.17.06 0 .07.03.02.06-.1.06-.4-.2-.5-.25a.16.16 0 0 1-.05-.05.5.5 0 0 0-.34-.23c-.03 0-.05-.03-.05-.06-.02-.2-.25-.04-.38-.17a.2.2 0 0 0-.08-.03h-.06c-.03.03-.03.05 0 .07l.5.33a.04.04 0 0 1 .02.05l-.02.02h-.02a.18.18 0 0 1-.1-.03c-.26-.2-.54-.36-.85-.49-.05-.02-.06-.01-.02.03l.22.25c.06.06.05.08-.02.05a.5.5 0 0 1-.3-.3ZM47.38 38.14c.24-.05.47-.12.7-.22.2-.08.4-.28.67-.34h.03a.05.05 0 0 1 .03.07 6.85 6.85 0 0 1-2.11.84c-.03.01-.05 0-.08-.01a.3.3 0 0 0-.22-.07c-.03 0-.04-.01-.02-.04l.01-.03a.05.05 0 0 1 .05-.03c.17.01.33 0 .48-.05l.46-.12ZM16.19 38.97c-.02.1-.43-.07-.48-.08l-.31-.1a.4.4 0 0 0-.08 0c-.25-.03-.48-.15-.78-.2-.38-.08-.73-.2-1.11-.26a.12.12 0 0 1-.07-.03.16.16 0 0 0-.14-.04l-.08-.01a3.05 3.05 0 0 0-.78-.15c-.04 0-.04-.02-.02-.05.07-.07.94.08 1.06.11l1.79.49.15-.01h.08l.77.33ZM12.5 38.32l3.16.6c.32.16.55.17.81.28.17.06.4.07.54.19l.02.03-.01.03-.02.02h-.04a9.32 9.32 0 0 0-1.09-.33c-.35-.09-.75-.26-1.14-.32-.39-.07-.74-.17-1.15-.22a4.93 4.93 0 0 1-1.09-.28ZM42.9 38.52c-.08.02-.1-.09-.07-.14.02-.03.04-.03.07 0l.02.02c.03.03.05.04.09.04l.66.09c.1.01.1.02 0 .04-.25.05-.49.04-.72-.05h-.05Z" fill="#92A0B5" /><path d="M37.75 38.8v.01h-.02l-.01-.01a3.52 3.52 0 0 1-.34-.3l.01-.01a3.47 3.47 0 0 1 .39.22l.01.01v.02l-.04.07ZM38.69 39.23l.45.2c.08.04.07.06-.01.07a.41.41 0 0 1-.3-.07.06.06 0 0 0-.07 0c-.05.02-.1.02-.14 0a.1.1 0 0 1-.05-.06c-.1-.39-.35-.37-.65-.52l-.01-.01v-.05h.03c.17-.02.32.03.44.14a.1.1 0 0 0 .08.03c.27-.04.55-.14.8.02.02.02.02.03.01.06v.03c-.01.02-.03.03-.06.02a.59.59 0 0 0-.52-.02.08.08 0 0 0-.04.03l-.01.05a.09.09 0 0 0 .05.08ZM37.57 39.53h.06c.05.02.05.03 0 .05-.1.05-.49-.14-.56-.17a.1.1 0 0 1-.06-.06l-.05-.09a.08.08 0 0 0-.07-.05.46.46 0 0 1-.28-.15c-.03-.02-.05-.02-.08 0l-.12.06c-.15.09-.16.07-.04-.05l.04-.05a.08.08 0 0 1 .08-.02c.16.04.32.09.47.16.02 0 .04.02.05.04l.05.13c.01.03.04.04.07.04.14 0 .26.05.37.14a.1.1 0 0 0 .07.02ZM36.52 39.64c-.25.05-.4-.11-.58-.26a.16.16 0 0 0-.07-.03c-.21-.04-.41-.11-.6-.22-.02-.02-.04-.02-.07 0l-.08.08c-.06.06-.08.04-.08-.04a.9.9 0 0 0 0-.04c0-.09.04-.12.12-.1.34.08.65.2.94.39.26.16.86.37 1.15.28.02-.01.05 0 .07 0 .06.05.08.1.05.16 0 .02-.02.03-.04.03l-.48-.02a.09.09 0 0 1-.06-.02l-.18-.18a.1.1 0 0 0-.09-.03ZM39.97 39.11l.02-.04c.01-.02.02-.02.04-.02l.26.1c.02 0 .02 0 .02.02v.02c0 .04.02.06.05.07l.29.1c.03.01.04.03.04.07v.02c-.01.03-.03.04-.06.03l-.73-.19c-.06-.01-.06-.04-.02-.08l.06-.06a.15.15 0 0 0 .03-.04Z" fill="#92A0B5" /><path d="M38.87 39.17c-.02 0-.03-.01-.04-.03a.01.01 0 0 1 0-.02h.01l.78.2a.02.02 0 0 1 .02.03v.01h-.02c-.27.04-.52-.03-.75-.2ZM27.28 39.22l1.25.05.3.11.05.05c.03.04.05.1.05.15 0 .05-.03.06-.07.03l-.13-.07a.22.22 0 0 0-.1-.03 1.04 1.04 0 0 1-.45-.14.14.14 0 0 0-.09-.02 1.8 1.8 0 0 1-.81-.13ZM21.85 39.87l.02.01c.01 0 .02.01.01.02v.04c0 .03-.02.04-.06.03-.36-.17-.84-.34-1.17 0a.05.05 0 0 1-.05.02l-.02-.02-.01-.02-.08-.3c0-.03 0-.04.03-.03.38.07.75.1 1.13.08.25 0 .49.1.75.08h.37c.2-.01.34-.08.5-.1.46-.03.77-.03.92.02a3.07 3.07 0 0 1 .6.28l.01.03c0 .01 0 .02-.02.03h-.03c-.08 0-.35-.14-.4-.07v.02a.03.03 0 0 0 .02.02c.37.2.75.3 1.14.35.12.01.21.04.28.08.04.03.04.06 0 .1l-.02.02h-.01c-.08-.07-.19-.1-.33-.1-.24-.01-.49-.07-.75-.2-.18-.07-.37-.08-.51-.3a.1.1 0 0 0-.08-.05.42.42 0 0 0-.25.07.1.1 0 0 1-.07.02 8.05 8.05 0 0 0-1.38-.06.95.95 0 0 0-.53-.1c-.02 0-.02.01 0 .03ZM35.4 39.86c.11-.09.23-.09.35-.01l.05.05c.1.21.41.06.6.24.04.03.03.05-.02.04l-.86-.14a.12.12 0 0 1-.08-.04c-.22-.26-1.59-.2-1.9-.16h-.03v-.05l.01-.02c.31-.1.62-.11.92-.06.3.06.6.05.9.16l.06-.01ZM16.57 39.88c.03 0 .05 0 .06.04l.02.05c.01.04 0 .06-.04.06-.1-.02-.14.02-.13.12v.03l-.03.02a.05.05 0 0 1-.05 0c-.15-.14.04-.32.17-.32ZM38.7 39.96l.11.05c.01.14-1.55.19-1.73.2a.1.1 0 0 1-.07-.04l-.1-.1c-.03-.03-.04-.02-.06 0l-.04.1c-.01.02-.03.03-.06.02-.06-.02-.12 0-.18.08-.02.02-.04.02-.06 0l-.04-.05c-.03-.05-.02-.07.03-.07s.09-.02.1-.06c.02-.04 0-.06-.04-.05-.1 0-.19-.03-.24-.12a.04.04 0 0 1 0-.05l.03-.01h.02c.07.05.14.06.22.03a.1.1 0 0 1 .08 0c.34.14.76.13 1.02.15.4.05.72-.1 1.02-.08ZM33.34 40.1c-.02.05-.06.07-.12.04-.04-.02-.04-.05 0-.07l.06-.03c.06-.04.08-.02.06.05ZM20.75 40.22c.04-.07.08-.2.19-.15.03.02.03.04.01.07l-.2.23c-.03.03-.06.03-.1 0l-.06-.03a.04.04 0 0 1-.01-.04.04.04 0 0 1 .03-.03l.08-.01c.03 0 .05-.02.06-.04ZM19.5 40.34c.05.04.08.1.08.17 0 .03-.01.05-.04.05-.15.02-.44.27-.5.23-.05-.01-.05-.03-.01-.06a.7.7 0 0 0 .22-.25l.25-.14Z" fill="#92A0B5" /></svg>