<!-- by TradeStack --><svg width="56" height="56" viewBox="0 0 56 56" xmlns="http://www.w3.org/2000/svg"><path fill="#A5B4B5" d="M0 0h56v56H0z"/><path d="M29.6 18.54c.5.3.89.72 1.15 1.22.17.28.32.57.44.86v-.11a.2.2 0 0 1 .1-.13.22.22 0 0 1 .18-.01c.03.01.06.04.08.07.03.03.03.07.03.11 0 0 0 .24-.07.57a1.26 1.26 0 0 0 .2 1.05c.25.25.58.42.93.47.14-.18.23-.38.29-.6a3.8 3.8 0 0 0-.34-1.79 4.62 4.62 0 0 0-.73-1.66c-.06-.07-.18-.2-.95-.2-.46-.01-.9.04-1.35.15m-2.82 7.67c.03 0-.04-.12-.63-.06s-.67.08-.67.08a1.27 1.27 0 0 0-.87-.07c-.44.15-.67.19-1.29 1.35a.44.44 0 0 0-.06.24c.1-.1.21-.18.33-.26.1-.07.18-.06.23 0 .18.17 0 .28-.2.43-.19.13-.36.28-.51.46a1.18 1.18 0 0 0-.18 1.14c.1-.15.2-.3.28-.46 0 0 .1-.12.19-.07.08.05.08.22.04.3l-.4.66a1.3 1.3 0 0 0 .14 1.3c.26.37.62.67 1.05.86.26-.79.47-1.59.63-2.4.23-.98.6-1.92 1.14-2.79.19-.31.46-.57.79-.75m-2.14-8.14c-.2.16-.4.3-.63.4-.36.18-.36.27-.36.27s.22 0 .25.17-.34.16-.86 1.13a1.15 1.15 0 0 0 .17 1.52c.14.12.32.22.5.27.47-.45.79-1.02.92-1.64.32-.86.92-1.6 1.7-2.1a3.4 3.4 0 0 0-1.17.05c-.18.03-.37 0-.55-.07m4.3 3.48c-.12-.46-.21-.73-.21-.73-.01-.04 0-.08.01-.12a.19.19 0 0 1 .09-.08.17.17 0 0 1 .21 0l-.04-.41s.07-.05-.38-.04c-.32.01-.65-.04-.95-.16a.8.8 0 0 0-.6 0 .31.31 0 0 0-.14.13.3.3 0 0 0-.04.18c.13.9.17 1.82.11 2.73-.04 1.53.89 1.72.89 1.72.3-.27.55-.59.76-.93.19-.33.25-.71.18-1.08-.12-.3-.28-.6-.28-.6a.22.22 0 0 1 .07-.27.16.16 0 0 1 .12-.03.16.16 0 0 1 .1.07 1.93 1.93 0 0 1 .24.45c0-.28-.03-.55-.11-.82m4.8 1.3s.52.19.94.4c.25.12.48.27.67.47v-.33a.15.15 0 0 1 .09-.15l.06-.02c.04 0 .09.01.12.04.04.02.06.06.07.1 0 0 .2.65.25.86.1.44.39.43.39.43a.2.2 0 0 1 .06-.12.2.2 0 0 1 .13-.06c.16 0 .18.2.18.2s.13 1.08.33 2.17c.03.3.15.57.34.8.2.23.45.4.74.5 0 0 .57-.22.54-1.95a1.48 1.48 0 0 0-.3-.65c-.11-.18-.21-.38-.11-.46.1-.08.2 0 .2 0l-.2-.45a4.48 4.48 0 0 0-1.15-1.43c-.2-.19-.45-.34-.71-.43-.4-.05-.8-.06-1.19-.02-.49 0-.98.04-1.46.1m-2.65 1.9c.78.76 1.4 1.64 1.86 2.6.44 1.05.73 2.14.85 3.26a.35.35 0 0 0 .16-.1c.25-.35.42-.73.53-1.14.08-.57.03-1.16-.14-1.72-.04-.14 0-.24.1-.28.06 0 .13 0 .2.04v-.15a1.72 1.72 0 0 0-.15-.48 3.78 3.78 0 0 0-.56-.77.2.2 0 0 1 .05-.23.17.17 0 0 1 .22 0s-.19-.34-.4-.65a1.34 1.34 0 0 0-.7-.53.7.7 0 0 0-.43.08c-.14.07-.2.14-.28.14-.09 0-.29-.07-.74-.13s-.6.05-.6.05m5.35 4.51a4.77 4.77 0 0 1 1.9 2.39c.1.3.17.6.2.91l.21-.26c.09-.11.18-.16.3-.1s.1.2.06.39a.68.68 0 0 0 .09.53c.12.23.5.25.5.25.03 0 .06 0 .09-.02a.15.15 0 0 0 .06-.07c.03-.12.05-.24.04-.37 0-.05 0-.1.1-.14.11-.03.15 0 .15 0v-.34a6.5 6.5 0 0 0-.13-.84 2.27 2.27 0 0 0-.84-1.2c-.16-.15-.25-.2-.21-.33.01-.04.03-.06.06-.09a.16.16 0 0 1 .1-.02l-.23-.22a2 2 0 0 0-1.07-.47 2.65 2.65 0 0 0-1.38 0Zm-6.94-1.57c-.32-.1-.66-.15-1-.16-.2.06-.25.22-.16.62.1.54.19 1.08.23 1.62 0 .44.06 1.3.03 1.4-.02.1.12-.13.22-.25.1-.13.23-.4.4-.28.18.11 0 .29-.05.43-.2.3-.43.6-.43.6s-.12.13 0 .46c.32 1.17.78 1.2.78 1.2s.62-.25 1.17-2.15l.13-.49-.5-1.3s-.22-.39 0-.47c.2-.08.23 0 .32.23l.32.77c.06-.1.1-.22.13-.33l.04-.3c.03-.18.03-.35 0-.53-.06-.15-.39-.73-.39-.73s-.15-.27 0-.35c.15-.09.3.1.34.18l.19.31s.14-.4 0-.54-.15-.22-.55-.17c-.24.03-.47.11-.68.23a.29.29 0 0 1-.26.05c-.17 0-.26-.06-.26-.06m-7.6 1.14a1.54 1.54 0 0 0-1.18 0c-.72.25-.84.46-.84.46l.28-.1s.17-.08.2.03c.04.11 0 .11-.1.17-.3.12-.56.27-.8.46-.2.16-.34.37-.42.6l.33-.19c.22-.1.32-.1.35-.05.03.05 0 .11-.13.18-.27.15-.5.36-.66.62-.15.27-.23.57-.21.87.02.25.12.48.29.68.16.2.38.34.62.42 0-.77.2-1.53.59-2.2a5.2 5.2 0 0 1 1.69-1.95Zm2.5-5.78a2.78 2.78 0 0 0-1.1-.11 3.5 3.5 0 0 0-1.95.96l.44-.2s.2-.14.3.03a.2.2 0 0 1-.11.28l-.52.3c-.34.2-.65.46-.9.75a.92.92 0 0 0-.24.57s.13-.12.25 0a.17.17 0 0 1 .08.12v.07l-.04.06c-.22.24-.4.5-.55.8-.1.3 0 .43.2.64.13.15.28.28.46.38.35-.15.67-.38.94-.65.22-.3.32-.67.29-1.04v-.82a.17.17 0 0 1 .05-.13.19.19 0 0 1 .14-.06c.17 0 .18.11.2.27l.03.35a6.22 6.22 0 0 1 2-2.57m.6 9.84a.88.88 0 0 0-.14.57c.04.3.68.22.68.22.15-.06.32-.09.49-.1.26 0 .4-.3.17-.39-.22-.09-.26-.4-.44-.3-.25.04-.5.04-.75 0m2.43.03.14.54c.33.04.66.06 1 .04.22-.04.36-.35 0-.4a1.81 1.81 0 0 1-.53-.13l-.14-.18-.47.13Zm-3.27 1.24.31.65.57.1s.45-.54.14-.54a6.09 6.09 0 0 1-1.02-.22m2.02-.04-.05.48c.43.06.86.08 1.29.05.17-.09.4-.5.09-.65a1.01 1.01 0 0 0-.76 0l-.57.12Zm2.52-.1.04.5c.33.04.65.05.98.04.26-.04.4-.53.4-.53l-.84-.13-.58.13Zm-3.27 1.07.04.35s.62.14.97.18c.35.03.18-.44.18-.44l-1.2-.1Zm2.33.05s.31.44.53.48c.23.04.84-.3.84-.3-.2-.16-.42-.28-.67-.35-.24 0-.48.06-.7.17Zm-1.21 4.56v.54l2.13-.45-2.13-.1Zm.09 1.18-.05.45 1.86-.23-1.81-.22Zm.1 1.22v.5l1.34-.36-1.35-.14Zm-.19-3.64v.41l1.95-.05-.5-.31-1.45-.05Zm0-1.2v.41l1.96-.13-.5-.32-1.46.04Zm0-1.08v.4l2.05-.13-.6-.23-1.45-.04Zm-1.35-18.38h.24c-.3-.96-.64-1.9-1.04-2.83a6.84 6.84 0 0 0-1.44-2.14c-.24-.12.68-.11 1.43.66.97.93 1.76 2.04 2.32 3.25.02-1.22-.16-2.43-.54-3.6-.58-1.44-.6-1.6-.6-1.6l.45-.03.34.31v-.33s.1-.32.49-.07c.2.22.38.46.51.73l.39-.53a.94.94 0 0 1 .67.38c.29.38.33.3.33.3l.4-.65s.42.07.59 1.1c.22 1.7.25 3.42.1 5.13 0 .04 1.22-2.6 1.68-3.25.29-.46.52-.95.67-1.47l.39.19c.03-.4.19-.77.46-1.07.41-.53.96-.94 1.59-1.22.33-.03.2.17.2.17-.49.74-.9 1.53-1.21 2.36-.29.88-.73 2.56-.73 2.56s.81-.85 1.14-.93c.33-.08.35 0 .35 0a7.5 7.5 0 0 0-.67.8c-.22.34-.42.7-.6 1.07.66-.75 1.39-1.43 2.19-2.03.37-.26.75-.5 1.15-.7.27-.12.58-.13.87-.04a14.75 14.75 0 0 0-2.84 2.97c-.57.76-1.04 1.59-1.4 2.46a17.33 17.33 0 0 1 3.93-1.46 8.14 8.14 0 0 1 2.53-.06l-.47.57c.4-.29.86-.47 1.34-.54a2.2 2.2 0 0 1 1.6.38c.17.18.3.4.33.65a7.63 7.63 0 0 0-3.31.56l-.76.34c.97-.25 1.98-.38 3-.37.98.13 1.1.46 1.1.46-.83.15-1.66.34-2.47.57-3.16 1.01-3.37 1.7-3.37 1.7l1.86-.38a7.89 7.89 0 0 1 1.87-.14l-.05.31c.21-.15.48-.22.74-.2.2-.02.4-.01.59.03l-.24.38c.6-.12 1.23-.02 1.77.28.78.5.4.23.72.52.26.29.46.61.6.97 0 0-.48-.44-2.53-.65a8.76 8.76 0 0 0-3.36.45s6.62-.49 7.34 2.76c0 .05-.46-.25-1.9-.82a6 6 0 0 0-2.85-.35l-.82.17s.67-.12 2.53.87c2.45 1.3 2.32 2.28 2.32 2.28a11.32 11.32 0 0 0-4.54-1.7c-2.19-.2-1.57.17-1.35.5.21.34.38.54.38.54s.05-.39 1.66.52c.83.46 1.63.96 2.4 1.53l-.75.17c.3 0 .59.03.87.1.58.12.74.35 1.21.83 1.43 1.41 1.01 2.18 1.01 2.18-.6-.7-1.3-1.3-2.08-1.83a4.42 4.42 0 0 0-2.57-.8s1.64.73 1.93 1.8c.3 1.08.07 1.05.07 1.05a7.69 7.69 0 0 0-1.84-1.78c-.38-.24-.79-.46-1.2-.65v.15c.07.46.12.92.14 1.39.1.15.2.3.28.47l.45.93-.67-.13c.4.2.77.46 1.1.77.11.16.2.35.25.54l-.34.04c.55.47.99 1.04 1.28 1.69a1.02 1.02 0 0 1-.24 1.04s-2.15-2.9-4.09-4.19a15.25 15.25 0 0 0-3.04-1.65c.66.7 1.25 1.47 1.76 2.29.3.44.54.93.68 1.44l-.42-.04c.55.64.96 1.37 1.2 2.16.17.95-.27.95-.27.95s-2.16-3.35-3.56-4.5c-.53-.48-1.08-.91-1.67-1.3 0 0-.08 1.62-.82 1.9-.74.3-1.24.46-1.24.46L30.7 44l-4.33-.04-.41-8.16s-1.62 0-1.91-.86c-.29-.87-.41-1.4-.41-1.4s-.9 1.22-2.7 4.2l-.99 1.95a3.2 3.2 0 0 1-.18-1.95c.07-.26.19-.5.36-.7h-.38c.09-.95.34-1.88.76-2.74.67-1.3.9-1.4.9-1.4a12.33 12.33 0 0 0-4.35 3.18c-1.01 1.14-1.76 2.47-2.2 3.9a7.77 7.77 0 0 1-.21-.85 4.16 4.16 0 0 1 .87-2.47l-.53.25s-.13-1.42 1.77-3.36c.42-.47.92-.86 1.49-1.14l.3-.13c-.14-.38-.14-.8 0-1.19h-.4c-1.34.4-2.57 1.07-3.63 1.95-1.41 1.39-2.09 2.5-2.09 2.7a1.78 1.78 0 0 1-.04-1.12s-.33.18-.62 1.17c-.14.38-.23.77-.24 1.18a4 4 0 0 1-.1-2.39c.16-.66.92-1.9 1.59-1.9-.3-.04-.62.01-.9.14-.38.2.26-1.08.83-1.63a2.53 2.53 0 0 1 1.83-.76s-.53-.3-.86-.18c-.33.13.16-.69 1.12-1.22a10.2 10.2 0 0 1 3.68-1.24c.57-.05 1.1-.07 1.35-.08a2.1 2.1 0 0 1-.54-1.01 4.41 4.41 0 0 0-1.9-.08 4.76 4.76 0 0 0-3.12 1.65 15.1 15.1 0 0 0-.87 1.25s-.62-1.84 1.4-3.42c.41-.3.86-.54 1.35-.71a4.3 4.3 0 0 0-2.3.3c-2.42.88-3.02 2.35-3.02 2.35s-.31-.44.36-1.42c1.17-1.8 2.32-1.49 2.32-1.49l-.78-.24a9.18 9.18 0 0 1 2.07-1c.8-.29 1.68-.36 2.53-.2.29.02.56.13.77.33l-.25-.44s.68-.34 2.48.24l.16.06c.16-.15.33-.29.5-.42a6.6 6.6 0 0 0-1.66-1.04c-.71-.3-1.44-.56-2.18-.79a4.96 4.96 0 0 0-1.5 1.74 1.13 1.13 0 0 1-.27-1.08c.33-.93.77-.96.77-.96a10.06 10.06 0 0 0-4.6-.18s-.12-.25.78-.83 1.22-.65 2.02-.24c.8.4-.22-.41-.22-.41s-.18-.25 1.61-.42a9.42 9.42 0 0 1 4.04.5c.67.29.67.36.67.36a.85.85 0 0 1 .58-.53c.5-.1 1.02-.17 1.53-.2a5.78 5.78 0 0 0-1.16-1.53l-1.14-.92.32-.24c-.24-.08-.5-.14-.75-.16-.12-.01-.25 0-.37.04a3.04 3.04 0 0 0-2.14-1.17 2.15 2.15 0 0 1 2.02-.72c1.34.16 1.62.61 1.62.61v-.34c.51.13 1 .33 1.45.61.2.12.37.29.48.49l.05-.32c.58.4 1.1.9 1.52 1.46l.43.56" fill="#F3F3F4"/></svg>