<?xml version='1.0' encoding='utf-8'?>
<!-- by TradeStack -->
<svg width="56" height="56" viewBox="0 0 56 56" xmlns="http://www.w3.org/2000/svg"><path fill="#F0F3FA" d="M0 0h56v56H0z" /><path d="M16 31.11c0-7.5 7.96-16.53 12-20.11 3.96 3.58 12 12.61 12 20.11 0 1.99-.37 3.72-1.04 5.2-1.86 4.13-5.9-.6-10.73-.56-5.89.05-7.1-4.64-12.03-2.26a13.9 13.9 0 0 1-.2-2.38Z" fill="url(#avcahw0vw)" /><path d="M27.1 44c8.65 0 12.2-6.2 12.9-9.31-.46.57-2.16 1.72-5.23 1.72-1.75 0-3.69-1.5-5.8-3.14l-.48-.38c-2.39-1.86-5-3.89-7.78-3.89-1.7 0-3.73 2.23-4.88 4l-2.78-3.6-1.05.8 2.75 4.58c.99-.36 2.45-.78 3.65-.78.8 0 2.05.85 3.59 1.9 2.25 1.52 5.1 3.46 8.01 3.75-2.44 1.2-5.87-.92-8.42-2.5-1.27-.78-2.33-1.43-2.94-1.47a9.84 9.84 0 0 0-3.25.57C17 39.71 19.9 44 27.1 44Z" fill="url(#bvcahw0vw)" /><defs><linearGradient id="avcahw0vw" x1="28" y1="11" x2="28" y2="38" gradientUnits="userSpaceOnUse"><stop offset=".1" stop-color="#080808" /><stop offset=".3" stop-color="#5D6164" /><stop offset=".56" stop-color="#275360" /><stop offset=".79" stop-color="#308AB7" /></linearGradient><linearGradient id="bvcahw0vw" x1="40" y1="36.5" x2="12" y2="36.5" gradientUnits="userSpaceOnUse"><stop stop-color="#99CB52" /><stop offset="1" stop-color="#29A25D" /></linearGradient></defs></svg>