<?xml version='1.0' encoding='utf-8'?>
<!-- by TradeStack -->
<svg viewBox="0 0 56 56" xmlns="http://www.w3.org/2000/svg"><path fill="url(#arkuny3cd)" d="M0 0h56v56H0z" /><path d="M30.25 26.49c.06-.27.18-.5.36-.68.23-.23.57-.35.97-.35h8.17c-.29.21-.43.47-.44.5l-.36.6h-8.74a.3.3 0 00.04-.07zm19.34-.6l-.32.53c-.06.09-.1.14-.35.15h-9.67c.1-.18.2-.34.27-.5 0 0 .35-.61.95-.61h8.87c.1 0 .21.01.27.12.01.01.03.05.03.1 0 .04 0 .11-.05.2zm-1.19 1.03l-.33.6c-.05.08-.12.22-.35.29-.19.05-.56.01-.69 0l-8.22-.54.3-.45h9.37a.64.64 0 00-.08.1zm-1.4 1.3l-.38.69c-.01.02-.11.11-.42.08l-7.88-1.05.3-.41 8.39.55.1.01a.53.53 0 00-.1.13zm-2.71 1.52c-.3.09-.88 0-1.08-.04l-5.42-1.11.34-.42 7.92 1.05-1.76.52zm-2.68.78a1.8 1.8 0 01-.88-.06l-3.62-1.1c.18-.18.34-.37.5-.55l5.57 1.13.29.05-1.86.53zm-2.84.83c-.26.07-.64-.08-.76-.14l-1.96-.91c.3-.25.58-.5.84-.75l3.76 1.16.18.05-2.06.59zm-.58.56c-.1.29-.23.57-1 .85-.32.1-.7-.17-.7-.18l-1.84-1.31c.39-.25.78-.51 1.16-.8l2.08.96c.01 0 .23.12.49.17-.12.14-.18.28-.19.31zm-2.9 1.4l-.29.08c-.25.06-.54-.18-.64-.28L33.3 32c.38-.18.76-.37 1.13-.58l1.93 1.37c0 .01.12.08.28.15l-1.34.37zm-2.54.68c-.2.04-.44-.3-.52-.42l-.58-.98c.48-.14.94-.3 1.4-.5l1.12 1.17c.01.01.13.14.32.24l-1.74.5zm-1.94.53a.46.46 0 01-.36-.04c-.21-.13-.28-.43-.28-.45l-.3-1.06c.52-.08 1.02-.18 1.52-.31l.62 1.04c.02.03.14.24.33.4l-1.53.42zm-1.25-.39l-1.1-1.05c.39 0 .78-.04 1.16-.08l.3 1.09c0 .03.07.27.23.46-.22-.06-.3-.13-.59-.42zm-1.44-1.3v-3.3h.54l.9 3.22c-.48.06-.95.09-1.44.09zm-1.69-.08l.9-3.22h.54v3.3c-.5 0-.97-.02-1.44-.08zm-.23 1.6a.85.85 0 01-.37.2c.16-.18.22-.42.24-.45l.3-1.09c.37.05.77.07 1.15.08l-1.32 1.26zm-.4-.32s-.07.32-.28.45c-.1.05-.22.07-.36.04l-1.53-.41c.19-.15.3-.37.33-.4l.6-1.03c.5.13 1 .24 1.53.3l-.29 1.05zm-2.56-.04l-1.75-.47c.18-.1.3-.24.32-.24l1.13-1.16c.45.18.91.35 1.39.5l-.58.96c-.07.12-.31.45-.51.41zm-2.26-.6l-1.63-.44c.17-.07.27-.15.28-.16l1.93-1.37c.37.21.74.4 1.13.58l-1.07 1.1c-.1.1-.4.34-.64.29zm-2.2-.63c-.77-.28-.88-.57-1-.85-.01-.02-.06-.17-.19-.31.26-.05.48-.16.49-.17l2.08-.97c.38.3.76.57 1.16.8l-1.83 1.3c-.01.03-.39.31-.71.2zm-1.57-1.41l-2.06-.6.18-.05 3.76-1.16c.26.25.53.5.84.75l-1.96.9c-.13.08-.51.23-.76.16zm-2.83-.83l-1.84-.54.28-.05 5.57-1.13.5.54-3.62 1.11a1.7 1.7 0 01-.89.07zm-2.69-.78c-.82-.23-1.48-.43-1.75-.52l7.91-1.05.35.42-5.42 1.1c-.22.04-.79.12-1.09.05zM9.8 29c-.3.03-.4-.06-.43-.08l-.39-.69a.52.52 0 00-.1-.13l8.48-.56.31.4L9.78 29zm-1.55-1.2c-.23-.08-.3-.21-.35-.3l-.4-.7h9.38l.3.46-8.23.54c-.14.02-.51.05-.7 0zm-1.2-1.24c-.23-.01-.27-.05-.35-.15l-.32-.54a.44.44 0 01-.06-.2c0-.11.09-.2.3-.2h8.87c.6 0 .95.6.95.6l.28.5-9.67-.01zm17.34-1.11c.42 0 .74.12.98.35.16.17.28.4.35.68l.03.08h-8.74l-.36-.61c0-.02-.15-.29-.44-.5h8.18zm12.66 1.7v-.33h1.74c-.09.14-.2.28-.29.44l-1.45-.11zm0 .61v-.35l1.27.08-.3.4-.97-.13zm0 .66v-.4l.78.1c-.1.14-.2.27-.33.4l-.45-.1zm0 .26l.26.05c-.08.1-.16.18-.26.27v-.32zm-2.65.84h2.12c-.22.21-.73.63-.74.64l-1.38-.64zm-2.2 0h1.6l1.75.82c-.37.28-.73.53-1.13.76l-2.22-1.58zm-1.3 0h.86l2.43 1.72c-.36.2-.72.38-1.09.55l-2.2-2.27zm-1.08 0h.73l2.3 2.37c-.44.18-.89.33-1.34.46l-1.69-2.83zm-.3 0l1.73 2.9c-.48.12-.96.22-1.45.29l-.9-3.19h.63zm-3.08 0h.61l-.89 3.19c-.5-.07-.97-.17-1.45-.29l1.73-2.9zm-1.03 0h.73l-1.69 2.83c-.45-.13-.9-.28-1.33-.46l2.3-2.37zm-1.2 0h.85l-2.19 2.27c-.37-.17-.74-.35-1.08-.55l2.41-1.72zm-4.03.64c-.02-.01-.52-.44-.73-.64h2.11l-1.38.64zm1.99-.64h1.6l-2.23 1.58a13.6 13.6 0 01-1.13-.76l1.76-.82zm-3.26-.84V29l-.25-.27.25-.05zm0-.66v.4l-.45.1c-.12-.13-.23-.26-.33-.4l.78-.1zm0-.61v.35l-.96.13-.3-.4 1.26-.08zm0-.26l-1.45.1-.28-.44h1.73v.34z" fill="url(#brkuny3cd)" /><path d="M6.1 26.07l.33.57c.13.21.28.3.6.32 0 0 .16.01.27.2l.33.58c.07.13.24.45.8.52 0 0 .17.02.26.19l.41.72c.12.23.29.31.59.4l7.44 2.18c.25.07.35.35.35.35.18.46.4.83 1.57 1.18l6.09 1.66c.07.02.77.23 1.3-.28l1.42-1.35s.06-.06.14-.06c.09 0 .14.06.14.06l1.43 1.35c.52.51 1.23.3 1.3.28l6.08-1.66c1.17-.34 1.4-.72 1.57-1.18 0 0 .1-.28.36-.35l7.44-2.17c.3-.1.46-.18.58-.41 0 0 .4-.72.42-.72.1-.17.25-.2.26-.2.56-.06.72-.38.8-.51l.33-.58c.1-.18.25-.2.26-.2.32-.02.48-.1.6-.32l.33-.55c.15-.3.1-.57.03-.7-.15-.26-.44-.38-.56-.38H31.58c-.5 0-.92.23-1.21.52-.22.21-.37.53-.44.87 0 .02-.03.03-.18.03h-3.52c-.15 0-.18-.04-.18-.05a1.73 1.73 0 00-.44-.84c-.3-.3-.7-.54-1.2-.54H6.62c-.12 0-.4.12-.56.38-.07.12-.13.4.04.7zm25.16 6.42c-.48.12-.96.24-1.45.3l-.9-3.2h.63l1.72 2.9zm-.7-2.89c.26.12 1.38 1.42 2.3 2.36-.45.18-.89.36-1.34.47l-1.69-2.83h.73zm5 .8c-.37.29-.73.56-1.13.78l-2.22-1.58h1.6c.15 0 .92.43 1.75.8zm-1.15-.8h2.12c-.22.12-.73.63-.75.64l-1.37-.64zm-.21 1.71c-.36.2-.72.4-1.09.57l-2.2-2.28h.86c.27.12 1.37.97 2.43 1.71zm5.55-5.96c-.29.36-.43.57-.44.6 0 0-.23.35-.36.7h-8.74c.04-.28.2-.67.38-.85.24-.23.57-.45.98-.45h8.18zm-2.73 3.14v-.4l.8.1c-.1.14-.23.27-.34.4l-.46-.1zm.25.32c-.08.1-.13.18-.25.27v-.32l.25.05zm-.25-.98v-.35l1.29.08-.31.39-.98-.12zm0-.61v-.45h1.78c-.09.24-.2.34-.31.48l-1.47-.03zm2.23-.57l.27-.59s.36-.7.95-.7h8.87c.21 0 .3.17.3.3 0 .05 0 .19-.05.27l-.32.55c-.07.11-.12.17-.35.17h-9.67zm7.78 1.2l-8.22-.57c.1-.16.2-.27.3-.51h9.37c-.1.24-.27.52-.41.76-.05.08-.12.27-.35.35-.19.03-.56-.01-.69-.02zm-.83 1.2l-7.88-1.04.3-.41 8.48.56-.1.13-.38.69c-.03.02-.12.11-.42.08zm-2.98.7l-5.42-1.1.34-.42 7.92 1.05c-.29.09-.95.27-1.76.52a3.2 3.2 0 01-1.08-.04zm-2.5.77l-3.62-1.1.5-.55L43.18 30l.28.05-1.84.54c-.39.1-.88-.07-.89-.07zm-2.7.75l-1.97-.91c.3-.25.58-.5.84-.75l3.76 1.15.18.05-2.06.6c-.25.07-.63-.07-.76-.14zm-1.52 1.38l-1.83-1.31c.4-.25.79-.51 1.17-.8l2.08.96c0 .01.22.12.48.17-.13.14-.18.3-.19.32-.1.27-.22.56-.98.85-.35.09-.73-.2-.73-.2zm-2.14.52l-1.07-1.11c.38-.18.76-.37 1.13-.58l1.93 1.37s.12.1.28.16l-1.63.44c-.25.06-.54-.18-.64-.28zm-2.13.47l-.58-.97c.48-.14.94-.3 1.4-.5l1.12 1.17c.01.01.13.14.32.24l-1.74.47c-.2.05-.44-.3-.52-.41zm-2.05.46l-.3-1.06c.51-.07 1.02-.18 1.52-.31.36.59.6 1.03.62 1.03.02.03.14.26.33.4l-1.53.42a.46.46 0 01-.36-.05c-.21-.13-.28-.43-.28-.43zm-1.71-.95c.39 0 .77-.04 1.15-.08l.3 1.09c0 .03.07.27.23.46a.74.74 0 01-.36-.22s-1.02-.95-1.32-1.25zm-.36-3.55h.55l.89 3.22c-.47.06-.85.09-1.44.09v-3.3zm-2.34-2.95h-8.74c-.14-.35-.26-.53-.36-.7 0-.02-.15-.24-.44-.6h8.17c.42 0 .74.2.98.44.16.17.35.6.39.86zm-7.29 1.94c-.12-.13-.21-.26-.32-.4l.78-.1v.4c.02.03-.26.06-.46.1zm.48.16v.32c-.12-.1-.18-.18-.25-.27l.25-.05zm-.99-.79l-.29-.39 1.28-.08v.35l-.99.12zm-.48-.7c-.1-.16-.2-.25-.3-.49h1.77v.45l-1.47.03zm4.06 3.91c-.38-.23-.76-.47-1.13-.74l1.76-.83h1.6c-.48.36-1.39.97-2.23 1.57zm2.66-1.57h.86c-.43.36-1.4 1.44-2.2 2.26-.36-.17-.73-.33-1.07-.54l2.41-1.72zm-4.02.64c0-.01-.52-.52-.73-.64h2.11c-.35.12-.85.4-1.38.64zm5.96-.64l-1.69 2.83c-.45-.13-.9-.26-1.33-.44l2.3-2.39h.72zm.91 0l-.89 3.18c-.5-.07-.97-.15-1.45-.27l1.73-2.9h.61zm-.63 3.22l.9-3.22h.54v3.3c-.6 0-.96-.03-1.44-.08zm-.61 1.8c.16-.2.22-.43.23-.46l.31-1.09c.38.05.76.07 1.16.08L26.4 34.2c-.29.29-.36.35-.6.42zm-2.18-.45c.19-.15.3-.37.33-.4l.62-1.04c.5.13 1 .24 1.52.3l-.3 1.07c0 .01-.07.32-.28.45-.1.06-.21.07-.36.04l-1.53-.42zm-2.15-.58c.18-.1.3-.24.32-.24l1.13-1.16c.45.19.91.35 1.39.48l-.58.98c-.07.12-.31.45-.51.42l-1.75-.48zm-2.13-.58c.17-.07.27-.15.27-.15l1.93-1.37c.37.21.74.41 1.13.58l-1.07 1.1c-.1.11-.4.35-.63.3l-.29-.1-1.34-.36zm-1.76-1.34c.26-.05.48-.16.49-.17l2.08-.97c.38.3.76.56 1.16.8l-1.84 1.32s-.38.28-.7.19c-.77-.29-.9-.58-1-.85a1.13 1.13 0 00-.19-.32zm-2.45-.85a2 2 0 00.18-.05l3.76-1.16c.26.25.53.5.84.75l-1.96.9c-.13.06-.51.22-.76.15l-2.06-.6zm-2.61-.77l.28-.05 5.57-1.14.5.52-3.62 1.06v.05s-.5.21-.88.1l-1.85-.54zm-2.62-.75l7.92-1.05c.1.14.23.27.34.4l-5.42 1.12c-.2.04-.78.13-1.08.04l-1.76-.51zM8.9 28.15l.1-.01 8.37-.56.31.42-7.88 1.05c-.3.03-.39-.06-.41-.09-.08-.11-.4-.68-.4-.68l-.1-.13zm-1.4-1.38h9.38c.08.24.19.35.3.5l-8.23.6c-.13 0-.5.04-.69 0-.23-.07-.3-.23-.34-.3l-.34-.63c-.03-.05-.06-.17-.08-.17zm-1.18-1.06c0-.06.03-.14.03-.16.06-.1.19-.2.27-.2h8.87c.6 0 .95.7.95.7.08.14.16.38.27.57H7.05c-.25-.02-.29-.06-.35-.16l-.32-.52a.74.74 0 01-.05-.23z" fill="url(#crkuny3cd)" /><path d="M19.18 29.33v-2.45H36.8v2.45H19.18z" fill="url(#drkuny3cd)" /><path d="M20.35 27.27h-.07l-.75 1.67h.2v-.01l.21-.6s.02-.01.02-.03h.58l.25.63v.01h.28l-.72-1.67zm-.32.9c0-.03.21-.5.23-.55l.24.55h-.47zm1.13.65c.1.11.3.16.4.16.36 0 .6-.23.6-.56 0-.27-.2-.35-.4-.42-.18-.07-.34-.13-.34-.33 0-.16.12-.26.28-.26.13 0 .23.07.29.2v.01h.05l.07-.21-.01-.01a.55.55 0 00-.35-.12c-.33 0-.55.17-.55.46 0 .28.22.38.4.45.19.07.34.13.34.33 0 .19-.14.33-.3.33-.17 0-.28-.07-.38-.24v-.01h-.04l-.06.22zm2.33-1.52h-1.24v.18h.01c.14-.01.29-.03.5-.03v1.5H23v-1.5c.16 0 .33.02.47.03h.02v-.18zm.85-.03c-.52 0-.89.35-.89.85s.36.84.9.84.9-.35.9-.88c0-.55-.46-.81-.9-.81zm.44 1.41a.6.6 0 01-.44.19c-.38 0-.63-.28-.63-.7 0-.5.25-.79.66-.79a.6.6 0 01.47.23c.12.15.14.32.14.5v.04a.75.75 0 01-.2.53zm2.12-1.38h-.13v1.22l-1.13-1.22h-.12v1.64h.16v-1.26l1.03 1.12.13.14h.09V27.3h-.02zm2.67 0h-.06l-.4.72-.28.5c-.24-.42-.46-.84-.65-1.22v-.01h-.08v.01l-.23 1.6v.02h.2v-.01c0-.24.04-.58.09-.95l.02-.22.45.88.13.27h.05c.14-.33.33-.68.6-1.15l.11 1.17h.25c-.06-.4-.12-.92-.19-1.6v-.02.01zm1.13-.03h-.07l-.75 1.67h.2v-.01c.06-.2.15-.4.22-.6v-.03h.6l.24.63v.01h.29l-.73-1.67zm-.33.9l.24-.55.23.55h-.47zm1.78-.04c.3-.06.48-.23.48-.46 0-.25-.18-.38-.55-.38h-.51v1.64h.24v-.8h.07l.19.22.28.36.16.2h.31c-.02.03-.65-.75-.67-.78zm-.34-.1v-.61h.33c.17.02.25.12.25.28 0 .17-.1.29-.3.32a.8.8 0 01-.28.01zM34 27.3h-1.23v.18h.01c.14-.01.29-.03.5-.03v1.5h.24v-1.5c.16 0 .33.02.47.03h.02v-.18zm.2 1.64h.23V27.3h-.22v1.64zm1.83-1.64v1.22L34.9 27.3h-.12v1.64h.16v-1.26l1.03 1.12.13.14h.1V27.3h-.17z" fill="#fff" /><defs><linearGradient id="arkuny3cd" x1="10.42" y1="9.71" x2="68.15" y2="76.02" gradientUnits="userSpaceOnUse"><stop stop-color="#1A1E21" /><stop offset="1" stop-color="#06060A" /></linearGradient><linearGradient id="brkuny3cd" x1="2.04" y1="30.01" x2="53.94" y2="30.01"><stop offset="1" stop-color="#BFBFBF" /></linearGradient><linearGradient id="crkuny3cd" x1="28" y1="35.98" x2="28" y2="25" gradientUnits="userSpaceOnUse"><stop offset=".35" stop-color="#393033" /><stop offset=".56" stop-color="#fff" /></linearGradient><linearGradient id="drkuny3cd" x1="15.03" y1="28.11" x2="40.95" y2="28.11" gradientUnits="userSpaceOnUse"><stop stop-color="#756B75" /><stop offset="1" stop-color="#393033" /></linearGradient></defs></svg>