<!-- by TradeStack --><svg width="56" height="56" viewBox="0 0 56 56" xmlns="http://www.w3.org/2000/svg"><path fill="#F0F3FA" d="M0 0h56v56H0z"/><path fill-rule="evenodd" d="m9 23.5-5 6.46h1.34l.73-.96h1.97v.96H9V23.5ZM8.04 28h-1.2l1.2-1.57V28Zm1.46 2v-6h1.77c.92 0 1.67.85 1.7 1.92A2.75 2.75 0 0 1 15.5 24c.54 0 1.05.17 1.47.47-.35.32-.6.72-.76 1.05a1.4 1.4 0 0 0-.7-.19c-.84 0-1.52.75-1.52 1.67 0 .92.68 1.67 1.51 1.67.63 0 1.17-.42 1.4-1.02h-1.85l.91-1.18h2.23a3.31 3.31 0 0 1-.24 1.87c.25.2.56.33.9.33.83 0 1.51-.75 1.51-1.67 0-.92-.68-1.67-1.51-1.67-.5 0-.94.27-1.21.67h-1.37c.38-1.17 1.39-2 2.58-2 1.5 0 2.73 1.34 2.73 3s-1.23 3-2.73 3c-.63 0-1.21-.23-1.67-.63-.47.4-1.05.63-1.68.63-1.5 0-2.72-1.34-2.72-3v-.13c-.17.4-.44.72-.77.92L13.81 30h-1.43l-1.53-2h-.35v2h-1Zm1.86-4.75h-.86v1.5h.86c.35 0 .64-.34.64-.75s-.29-.75-.64-.75ZM29.13 24H27.5v6h1v-2.05h.17L30.25 30h1.56l.43-1h2.08l.44 1h1.71v-2.05h.75c.98 0 1.78-.88 1.78-1.97v4h1V28h2v2h1v-6h-1v3h-2v-3.02h-1v2c0-1.1-.8-1.98-1.78-1.98H35.5v4.72L33.27 24l-2.24 5.2-1.16-1.43c.64-.31 1.13-1 1.13-1.8 0-1.09-.93-1.97-1.87-1.97Zm-.63 1.25h.86c.35 0 .64.34.64.75s-.29.75-.64.75h-.86v-1.5Zm8 0h.86c.35 0 .64.34.64.75s-.29.75-.64.75h-.86v-1.5ZM25.23 30c.8 0 1.53-.39 2.03-1v-2.54h-1.58l-.91 1.19h1.45v.61c-.27.25-.61.4-1 .4-.83 0-1.5-.74-1.5-1.66 0-.92.67-1.67 1.5-1.67.35 0 .66.13.92.34l.76-1.04a2.56 2.56 0 0 0-1.67-.63c-1.5 0-2.73 1.34-2.73 3s1.22 3 2.73 3Zm8.04-3.38-.6 1.38h1.21l-.61-1.38ZM44.5 24h-1v6h1v-3c0 1.66 1.23 3 2.76 3 .53 0 1.03-.17 1.46-.45.28.22.72.45 1.32.45 1.1 0 1.96-.67 1.96-1.68 0-1-1-1.63-1.8-1.89-.8-.25-.8-.47-.8-.66v-.01c0-.2.13-.61.72-.61.47 0 .83.37.94.55l.7-.88a2.28 2.28 0 0 0-1.72-.82c-.52 0-1.79.35-1.79 1.76 0 1.14 1.15 1.62 1.88 1.92.18.08.34.14.44.2.55.32.27 1.02-.46 1.02-.48 0-.96-.4-1.23-.71a4.1 4.1 0 0 1-.27-.4c-.26.52-.77.88-1.35.88-.85 0-1.53-.75-1.53-1.67 0-.92.68-1.67 1.53-1.67.24 0 .48.07.69.18.02-.33.14-.84.49-1.22a2.56 2.56 0 0 0-1.18-.29c-1.53 0-2.76 1.34-2.76 3v-3Z" fill="#00298C"/></svg>