<!-- by TradeStack --><svg width="56" height="56" viewBox="0 0 56 56" xmlns="http://www.w3.org/2000/svg"><path fill="#F0F3FA" d="M0 0h56v56H0z"/><path d="M16.88 24 14 32h2.56l.5-1.5h2.88l.5 1.5H23l-2.88-8h-3.24Zm.71 5 .91-3 .9 3h-1.8Zm28.29-5L43 32h2.56l.5-1.5h2.88l.5 1.5H52l-2.88-8h-3.24Zm.71 5 .91-3 .9 3h-1.8Zm-15.87-2.28c0-1.77-1.46-2.72-3.1-2.72H24v8h2v-2.64h1.06L28.53 32H31l-1.7-2.98a2.4 2.4 0 0 0 1.42-2.3ZM26 26h1.07c.65 0 1.28.25 1.28.98 0 .74-.64.96-1.28.96H26V26Zm11.1 3H37l-2.07-5H32v8h2v-5h.07l2.24 5h1.38l2.24-4.97H40V32h2v-8h-2.93l-1.97 5ZM8.37 22A4.4 4.4 0 0 0 4 26.5a4.5 4.5 0 0 0 3.37 4.36V32h2v-1.14a4.5 4.5 0 0 0 3.36-4.36A4.4 4.4 0 0 0 8.37 22Zm-.87 6.62c-.75-.4-1.5-1.2-1.5-2.12 0-.92.74-1.71 1.5-2.12v4.24Zm2 0v-4.24c.75.4 1.5 1.2 1.5 2.12 0 .92-.74 1.71-1.5 2.12Z" fill="#1A3B29"/></svg>