<?xml version='1.0' encoding='utf-8'?>
<!-- by TradeStack -->
<svg width="56" height="56" viewBox="0 0 56 56" xmlns="http://www.w3.org/2000/svg"><path fill="#1E4079" d="M0 0h56v56H0z" /><path d="M22.02 13.3c.12-.25.32-.4.58-.45 1.98-.42 3.9-.9 5.96-.85 3.8.09 7.25 1.3 10.37 3.64.05.04.08.11.07.17a.18.18 0 0 1-.12.14c-.2.08-.41.06-.61-.04-3.32-1.64-6.7-1.6-10.24-2.17-1.96-.31-3.89-.01-5.89-.22a.16.16 0 0 1-.12-.23ZM40.37 20.66a15.71 15.71 0 0 0-7.58-2.55c-2.21-.23-4.4-.36-6.58-.38-1.54-.02-3.07.07-4.56.47-1.4.39-2.8.72-4.18 1-.97.2-1.87.6-2.8.89a.95.95 0 0 1-.55 0c-.12-.04-.15-.1-.09-.2a6.64 6.64 0 0 1 2.87-2.62C19.93 16 23.73 16 27.4 16c5-.01 11.35 1.36 14.56 4.63.11.12.03.31-.15.34-.51.09-.99-.02-1.43-.3Z" fill="#fff" /><path d="M34.83 23.57c-.84-.42-2.12-.8-3.82-1.15-1.35-.28-2.5-.4-3.47-.36-2.73.11-5.43.7-8.13 1.78-2.54 1.01-4.73 3.47-6.47 5.52a.53.53 0 0 1-.54.15.5.5 0 0 1-.36-.42c-.17-1.9.15-3.24 1.76-4.46a17.9 17.9 0 0 1 8.48-3.75c1.62-.26 3.14-.5 4.57-.7 5.4-.83 10.11 1.4 14.5 4.18a4.7 4.7 0 0 1 2.24 3.42c.28 1.92.42 3.83.41 5.75 0 1.68-1.59 3.57-2.61 4.92-.22.29-.5.47-.83.55-.11.02-.22-.07-.2-.18.2-2.37.37-4.76.53-7.16.12-1.78.2-4.44-1.53-5.5a57.67 57.67 0 0 0-4.53-2.59Z" fill="#fff" /><path d="M35.41 34.76c1.24-2.19 1.37-4.22.4-6.1-.4-.8-1.11-1.1-1.95-1.44a18.82 18.82 0 0 0-8.65-1.38c-4.7.39-6.48 3.55-9.03 6.78a4.94 4.94 0 0 1-2.08 1.43c-.52.21-.87.06-1.06-.45l-.3-.84c-.2-.53-.04-.94.47-1.23.87-.5 1.46-.88 1.76-1.16.8-.72 1.51-1.49 2.15-2.3 2-2.48 4.82-3.74 8.15-3.95 3.65-.23 7.17-.34 10.43 1.61 1.87 1.13 2.6 2.81 3.1 4.82.31 1.26.34 2.5-.47 3.61-1.5 2.09-2.36 4.33-1.68 6.92.3 1.1-1.05 1.8-1.98 1.92-.33.04-.6-.25-.55-.55.27-1.42.38-2.76.33-4.02a6.8 6.8 0 0 1 .96-3.67Z" fill="#C58768" /><path d="M26.48 29.33a.47.47 0 0 0-.11-.3c-.6-.72-2.12-.25-2.7.19-.8.6-1.6 1.32-2.15 2.16a13.35 13.35 0 0 1-5.87 5.11c-.49.22-1.4.1-1.59-.5-.16-.5 0-.85.46-1.06 1.87-.88 3.89-1.97 5-3.71.96-1.5 1.73-2.63 3.49-3.37 2.86-1.19 7.71-1.5 9.55 1.58 1.24 2.1-.34 3.78-2.26 4.92-1.64.98.07 3.45.63 4.57.5.98.66 2.27.47 3.86-.1.87-.85 1.12-1.59 1.18-3.32.22-6.4-.4-9.23-1.86-.49-.25-.72-.66-.71-1.24.05-3.67 1.1-7.3 3.84-9.82.54-.5 2.75-.84 2.77-1.7Z" fill="#C58768" /></svg>