<!-- by TradeStack --><svg width="56" height="56" viewBox="0 0 56 56" xmlns="http://www.w3.org/2000/svg"><path fill="#F0F3FA" d="M0 0h56v56H0z"/><path fill-rule="evenodd" d="M6 24.2V35h14V24.2L13.03 22 6 24.2Zm3 2.29c0-.27.29-.49.64-.49h1.72c.36 0 .64.22.64.49v4.02c0 .27-.29.49-.64.49H9.64c-.35 0-.64-.22-.64-.49V26.5Zm5.64-.49c-.36 0-.64.22-.64.49v4.02c0 .27.29.49.64.49h1.72c.36 0 .64-.22.64-.49V26.5c0-.27-.29-.49-.64-.49h-1.72ZM36 24.2V35h14V24.2L43.03 22 36 24.2Zm3 2.29c0-.27.28-.49.64-.49h1.72c.36 0 .64.22.64.49v4.02c0 .27-.28.49-.64.49h-1.72c-.36 0-.64-.22-.64-.49V26.5Zm5.64-.49c-.36 0-.64.22-.64.49v4.02c0 .27.28.49.64.49h1.72c.36 0 .64-.22.64-.49V26.5c0-.27-.28-.49-.64-.49h-1.72Z" fill="#9074B1"/><path d="m28.01 16-13.16 4.89 3.16 1.04 10-3.56 10.39 3.56 2.95-1.04L28.01 16Z" fill="#003595"/><path d="M20 36V22.98L28.08 20 36 22.98V36h-2v-5.46c0-.3-.24-.54-.54-.54h-1.92c-.3 0-.54.24-.54.54V36h-1.5v-5.5c0-.27-.24-.5-.54-.5h-1.92c-.3 0-.54.23-.54.5V36H25v-5.46c0-.3-.24-.54-.54-.54h-1.92c-.3 0-.54.24-.54.54V36h-2Z" fill="#003595"/></svg>