<!-- by TradeStack --><svg width="56" height="56" viewBox="0 0 56 56" xmlns="http://www.w3.org/2000/svg"><path fill="#F0F3FA" d="M0 0h56v56H0z"/><path d="m38.11 37.93-6.45-15.51a3.95 3.95 0 0 0-7.3 0l-6.47 15.5a14.16 14.16 0 0 1-3.81-7.25C12.42 22.06 19.25 14 28 14s15.58 8.06 13.92 16.67a14.16 14.16 0 0 1-3.82 7.26ZM11 28v.01c0 4.54 1.77 8.8 4.98 12.01A16.87 16.87 0 0 0 28 45a16.91 16.91 0 0 0 12.02-4.98c3.21-3.2 4.98-7.48 4.98-12.01 0-9.3-7.75-17.03-16.99-17.01-9.3 0-17.04 7.75-17.01 17Zm12 5 3.96-9.17c.16-.42.59-.85 1.04-.83.28 0 .8.23 1.06.83L33 33H23Z" fill="#42515A"/></svg>