<!-- by TradeStack --><svg width="56" height="56" viewBox="0 0 56 56" xmlns="http://www.w3.org/2000/svg"><path fill="#F0F3FA" d="M0 0h56v56H0z"/><path d="m13.6 31.38.04 1.54a7.2 7.2 0 0 1-1.12.08c-1.1 0-1.84-.63-1.94-1.62C10.02 32.47 9.06 33 7.36 33 5.66 33 4 32.14 4 30.27c0-2.06 1.82-2.63 3.4-2.92l3.16-.61c0-.86-.04-1.34-.34-1.74-.3-.4-.8-.63-1.68-.63-1.74 0-2.44.61-2.44 2.07l-1.76-.23c.04-1.15.46-1.99 1.24-2.49A5.78 5.78 0 0 1 8.64 23c2.52 0 3.86 1.09 3.86 3.17v4.56c0 .5-.06.72.52.72.2 0 .4-.02.58-.07Zm-3.04-3.36-2.88.63c-1.06.23-1.84.51-1.84 1.6 0 .9.82 1.4 1.8 1.4 2.18 0 2.92-1.1 2.92-2.47v-1.16Zm8.56-5c.16-.02.74-.02.88-.02v1.62a7.5 7.5 0 0 0-.7-.02c-1.9 0-3.3.73-3.3 3.8V33h-2V23h2v2.06c.28-.9 1.48-1.85 3.12-2.04ZM24 23h2v1.45h-2v6.15c0 .63.32.74 1.06.74.3 0 .64-.04.94-.1v1.66c-.36.07-.71.1-1.08.1-1.86 0-2.92-.8-2.92-2.35v-6.2h-1V23h1v-2h2v2Zm12 4.12V33h-2v-5.78c0-1.67-.6-2.77-2.16-2.77-.88 0-2.84.34-2.84 3.07V33h-2V23h2v1.7c.5-1.07 1.72-1.7 3.32-1.7 2.72 0 3.68 1.64 3.68 4.12Zm9.74-2.21c.6.91.92 2.27.84 3.62H39c.04 2.1 1.2 3.1 2.84 3.12 1.45.01 2.49-.72 2.73-2.17l1.87.16C46 31.87 44.4 33 41.86 33c-1.54 0-2.74-.42-3.6-1.37A5.15 5.15 0 0 1 37 28a5.1 5.1 0 0 1 1.3-3.55A4.66 4.66 0 0 1 41.84 23a4.6 4.6 0 0 1 3.9 1.9ZM39.02 27h5.55c-.1-1.66-1.04-2.59-2.7-2.59-1.67 0-2.84.91-2.85 2.59ZM50 24.43v6.17c0 .63.26.85 1 .85.31 0 .7-.04 1-.2v1.65c-.36.07-.77.1-1.14.1C49 33 48 32.2 48 30.65v-6.22h-1V23h1v-2h2v2h2v1.43h-2Z" fill="#FF4A00"/></svg>