<!-- by TradeStack --><svg width="56" height="56" viewBox="0 0 56 56" xmlns="http://www.w3.org/2000/svg"><path fill="#F0F3FA" d="M0 0h56v56H0z"/><path d="M28.95 11.09c-1.1.62-1.92 1.4-1.89 2.7.06 2.21 3.1 2.91 4.14 1.15.22-.36.37-.9.47-1.61a3.89 3.89 0 0 1-1.7 4.94 3.83 3.83 0 0 1-5.12-1.39 3.89 3.89 0 0 1 2.35-5.77 3.83 3.83 0 0 1 1.75-.02Z" fill="#FE0103"/><path d="M31.67 13.33c-.1.71-.25 1.25-.47 1.61-1.04 1.76-4.08 1.06-4.14-1.15-.03-1.3.79-2.08 1.9-2.7a3.85 3.85 0 0 1 2.7 2.24Z" fill="#FE8586"/><path d="m22.68 18.84-2.61 3.39a.07.07 0 0 1-.09.02l-1.92-.8a.07.07 0 0 1-.04-.05.07.07 0 0 1 .01-.06l3.37-4.97a.07.07 0 0 1 .06-.03.07.07 0 0 1 .06.04l1.17 2.38a.07.07 0 0 1 0 .07ZM25.23 20.74c.83.45 1.75.68 2.78.7a6.8 6.8 0 0 0 6.03-3.12.04.04 0 0 1 .03.01L47.99 38.9a.07.07 0 0 1 0 .07.07.07 0 0 1-.06.04H23.4a.08.08 0 0 1-.07-.05.08.08 0 0 1 .01-.08 11.19 11.19 0 0 0-.76-14.62c-.05-.05-.05-.1 0-.15l2.57-3.35a.06.06 0 0 1 .07-.01Zm9.7 5.84a24.99 24.99 0 0 1-.92-.1c-.01 0-.03.01-.05.04-.02.02-.02.04-.02.05l.31.85v.04l-.02.04-.64.62v.06c0 .03.01.05.02.05a22.49 22.49 0 0 1 .88.31l.02.04.09.89c0 .01.01.03.04.04.03.01.05.02.06.01a25.85 25.85 0 0 1 .79-.5h.04l.74.5h.06l.05-.05.08-.9.02-.03a22.54 22.54 0 0 1 .87-.31c.02 0 .03-.02.04-.05v-.06a25.33 25.33 0 0 1-.66-.66v-.04l.3-.84c0-.02 0-.04-.02-.06-.02-.02-.03-.04-.05-.03l-.88.11-.04-.01a29.41 29.41 0 0 1-.5-.79c0-.01-.02-.02-.05-.02-.03 0-.05 0-.06.02l-.46.77-.04.01ZM31.21 30l-.07.03a7.3 7.3 0 0 0-.78-.1l-.02.01v.01l-.02.03c.07.23.16.48.27.74v.08l-.04.07c-.2.18-.4.37-.56.55v.04l.01.02c.23.1.48.18.75.26.02 0 .03.02.06.05l.03.06c.02.29.04.55.08.8h.02a.72.72 0 0 1 .02.01l.02.01c.21-.12.43-.26.66-.43H31.8c.23.17.45.3.66.43h.02l.01-.01.03-.02c.04-.24.06-.5.08-.79l.04-.06.05-.05c.27-.08.52-.16.75-.25v-.04l.01-.03a7.5 7.5 0 0 0-.56-.55l-.03-.07c0-.04-.01-.06 0-.07.1-.26.2-.51.26-.75v-.02h-.01v-.01l-.02-.02c-.25.02-.51.05-.79.1l-.07-.03a.18.18 0 0 1-.06-.04 7.23 7.23 0 0 0-.41-.67h-.06c-.14.2-.28.42-.42.67 0 .01-.02.03-.06.04Zm7.91-.1a.19.19 0 0 1-.14 0c-.23-.06-.38-.06-.43 0-.05.07-.01.2.1.42.03.05.04.1.03.14a.2.2 0 0 1-.08.11c-.2.14-.29.26-.27.33.02.08.14.14.38.18.06.01.1.04.13.07a.2.2 0 0 1 .03.14c0 .24.02.38.1.42.07.03.2-.03.38-.2a.18.18 0 0 1 .13-.05c.04 0 .08.02.13.06.18.16.3.22.38.19.07-.04.1-.18.08-.42 0-.05.01-.1.04-.14a.2.2 0 0 1 .13-.07c.24-.04.37-.1.38-.18.02-.07-.07-.19-.27-.33a.18.18 0 0 1-.08-.11.18.18 0 0 1 .02-.14c.12-.22.16-.35.1-.42-.04-.06-.19-.06-.42 0a.2.2 0 0 1-.14 0 .19.19 0 0 1-.1-.1c-.09-.23-.17-.35-.25-.35-.09 0-.17.12-.26.34a.18.18 0 0 1-.1.1Zm-2.68 2.36c-.01.03 0 .06.04.1.24.18.32.43.24.74-.02.1.02.13.1.11a.61.61 0 0 0 .25-.12.22.22 0 0 1 .22-.02l.34.13c.15.06.2.01.16-.14-.05-.18-.07-.31-.04-.38.02-.07.1-.17.25-.29.12-.1.1-.17-.05-.2l-.35-.1a.23.23 0 0 1-.17-.15.62.62 0 0 0-.12-.24c-.06-.07-.11-.06-.15.03a.68.68 0 0 1-.63.47c-.05 0-.08.02-.1.06Zm-1.49 2.58a.32.32 0 0 1-.05.02l-.77-.1-.02.02-.02.02-.01.02-.01.02.26.73v.06a.87.87 0 0 1-.02.06l-.56.54v.05l.01.03.02.02c.24.1.48.17.73.25l.04.04.03.05a10.5 10.5 0 0 0 .1.8h.02l.02.02h.03c.22-.13.43-.27.64-.42a.43.43 0 0 1 .13 0 9.63 9.63 0 0 0 .67.42h.03l.01-.02.03-.02.07-.77a.47.47 0 0 1 .08-.1l.73-.25.01-.02a.13.13 0 0 0 .01-.05v-.03a9.5 9.5 0 0 0-.55-.53l-.02-.07a.26.26 0 0 1 0-.06l.26-.72-.01-.03-.01-.02-.02-.02a9.45 9.45 0 0 0-.79.08l-.06-.02a.42.42 0 0 1-.05-.03 10.67 10.67 0 0 0-.43-.67h-.05a10.97 10.97 0 0 0-.43.67l-.05.03Z" fill="#0255B1"/><path d="M17.03 24.51c-2.21.33-3.62 1.5-4.21 3.49A4.99 4.99 0 0 0 16 34.27c1.27.46 2.53.43 3.78-.09a5.52 5.52 0 0 0 2.82-2.9 7.4 7.4 0 0 1-2.85 6.2 7.29 7.29 0 0 1-11.65-4.57 7.38 7.38 0 0 1 5.22-8.33 7.25 7.25 0 0 1 3.7-.07Z" fill="#FE0103"/><path d="M17.03 24.51a7.3 7.3 0 0 1 5.58 6.77 5.52 5.52 0 0 1-2.82 2.9c-1.25.52-2.5.55-3.78.1A4.99 4.99 0 0 1 12.8 28c.6-2 2-3.16 4.22-3.49Z" fill="#FE6A6A"/><path d="M15.33 30.14a2.45 2.45 0 0 0 3 1.75A2.47 2.47 0 0 0 20 28.84a2.45 2.45 0 0 0-3-1.75 2.46 2.46 0 0 0-1.67 3.05Z" fill="#FFBCBD"/></svg>