<!-- by TradeStack --><svg width="56" height="56" viewBox="0 0 56 56" xmlns="http://www.w3.org/2000/svg"><path fill="#F0F3FA" d="M0 0h56v56H0z"/><path d="m29 31-.36-2.25-7.58-.75-.06.36L29 31Z" fill="#4F2C85"/><path d="M28.5 21 21 31.9l1.57.27 6.08-8.51 2.78 10.06L33 34l-3.28-12.78L28.5 21Z"/><path fill-rule="evenodd" d="M28.02 14a14.01 14.01 0 0 0-13.22 9.33l-9.58.5a.23.23 0 0 0-.22.23c0 .1.04.18.14.23L14 28.08a14.01 14.01 0 0 0 9.18 13.06l.5 9.64c.01.14.13.22.24.22.09 0 .18-.05.22-.14l3.8-8.86a14.01 14.01 0 0 0 13.2-9.15l9.64-.5c.13 0 .21-.1.22-.21 0-.1-.03-.2-.14-.24L42 28.15a14 14 0 0 0-9.3-13.34l-.5-9.59a.23.23 0 0 0-.24-.22.23.23 0 0 0-.2.14L28.01 14Zm-.06 1a13 13 0 0 0-12.24 8.74l1.46 2.31a11 11 0 0 1 12.42-8.93L27.96 15Zm4.47.78-2.28 1.43c2.79.56 5.12 2.13 6.7 4.25l1.63-1.14a12.96 12.96 0 0 0-6.05-4.54ZM17.17 35.19l1.64-1.14a10.96 10.96 0 0 1-1.68-7.74L15 27.96c-.01 2.63.78 5.14 2.17 7.23Zm22.73-5.27 2.08-1.2v-.01l6.53 2.74-8.61-1.53ZM27.38 42h.01l-2.8 6.66.93-5.23c0-.09.03-.18.04-.27l.23-1.3c.17-.95.31-1.85.31-1.85L27.38 42Zm2.33-25.47 1.59-9-2.96 7.05 1.37 1.95Zm8.14 13.22a10 10 0 1 1-1.58-7.32l.02-.01a9.97 9.97 0 0 1 1.56 7.33Zm-30.47-5 9 1.59-1.96 1.36-7.04-2.95Z" fill="#4F2C85"/></svg>