<!-- by TradeStack --><svg width="56" height="56" viewBox="0 0 56 56" xmlns="http://www.w3.org/2000/svg"><path fill="#F0F3FA" d="M0 0h56v56H0z"/><path fill-rule="evenodd" d="M28 44a16 16 0 1 0 0-32 16 16 0 0 0 0 32Zm0-1a15 15 0 1 0 0-30 15 15 0 0 0 0 30Z" fill="#003384"/><circle cx="34" cy="35" fill="#fff" r="9.39"/><circle cx="34" cy="35" fill="#D1132C" r="8.49"/><path d="M32 36.16c0 .57 1.3 4.13 1.96 5.84.68-1.7 2.04-5.27 2.04-5.84 0-.57-1.12-1.17-2.04-1.16-.89.01-1.96.6-1.96 1.16Z" fill="#F7D418"/><path fill-rule="evenodd" d="M34 45a10 10 0 1 0 0-20 10 10 0 0 0 0 20Zm0-1a9 9 0 1 0 0-18 9 9 0 0 0 0 18Z" fill="#003384"/><path d="M31.6 28.27c0 .63 1.6 4.52 2.4 6.39.82-1.87 2.47-5.76 2.47-6.39 0-.62-1.36-1.29-2.48-1.27-1.08.02-2.38.65-2.38 1.27Z" fill="#03399B"/><path d="M35.33 27.46c-.3-.14-.65-.25-1-.28l-.15.12v1.06l1.15-.9ZM32.72 27.47c.3-.14.64-.25.98-.29l.15.12v1.06l-1.13-.89ZM31.95 28.07c.13-.2.37-.4.66-.55l1.24.98v1.07l-1.9-1.5ZM32.11 29.4c-.16-.5-.25-.87-.25-1.02 0-.07.01-.14.04-.21l1.95 1.53v1.07l-1.74-1.37ZM32.68 31.05c-.2-.53-.37-1.04-.51-1.47l1.68 1.33v1.06l-1.17-.92ZM33.32 32.76l-.57-1.51 1.1.86v1.07l-.53-.42ZM33.85 34.13l-.41-1.06.41.32v.74ZM34.58 33.08l-.4.97v-.66l.4-.3ZM35.3 31.23l-.6 1.54-.52.4v-1.06l1.12-.88ZM35.91 29.55c-.14.43-.33.94-.54 1.49l-1.19.93v-1.06l1.73-1.36ZM36.17 28.14c.04.08.06.16.06.24 0 .15-.1.5-.25.98l-1.8 1.4V29.7l1.99-1.56ZM35.44 27.51c.3.15.54.34.67.54l-1.93 1.52V28.5l1.26-.99Z" fill="#0B9B3C"/><path d="M27.33 32.45c.65 0 4.72 1.52 6.67 2.28-1.95.8-6.02 2.37-6.67 2.37-.65 0-1.35-1.3-1.33-2.37.02-1.04.68-2.28 1.33-2.28Z" fill="#03399B"/><path d="M27.12 32.78c-.21.12-.41.35-.57.63l1.02 1.18h1.11l-1.56-1.81Zm1.38.15c-.51-.15-.9-.25-1.06-.25a.6.6 0 0 0-.22.05l1.6 1.86h1.12l-1.44-1.66Zm1.73.54-1.53-.49 1.38 1.61h1.12l-.97-1.12Zm1.78.61-1.58-.54.91 1.05h1.11l-.44-.5Zm1.44.51-1.11-.4.34.4h.77Zm-1.1.7 1.02-.38h-.69l-.32.38Zm-1.93.69 1.6-.57.43-.5h-1.11l-.92 1.07Zm-1.76.59c.45-.14.99-.32 1.55-.52l.99-1.14h-1.12l-1.42 1.66Zm-1.47.24a.6.6 0 0 0 .25.06c.16 0 .53-.1 1.02-.24l1.48-1.72h-1.12l-1.63 1.9Zm-.66-.7c.16.29.36.52.56.65l1.59-1.85h-1.11l-1.04 1.2Zm-.35-1.05c.04.32.15.66.3.95l.94-1.1h-1.11l-.13.15Zm0-.6.13.13h1.11l-.93-1.08a3 3 0 0 0-.3.94Z" fill="#0B9B3C"/><path d="M37.37 28.54c-.48.43-2.34 4.21-3.22 6.05 1.99-.71 6.08-2.23 6.56-2.66.47-.43.04-1.83-.74-2.6-.75-.74-2.13-1.21-2.6-.79Z" fill="#03399B"/><path d="M40.54 30.58c-.1-.31-.26-.62-.47-.89l-.2-.02-.8.73 1.47.18ZM38.74 28.77c.31.1.63.28.9.48l.01.19-.81.73-.1-1.4ZM37.76 28.65c.24-.06.55-.02.86.08l.11 1.53-.8.73-.17-2.34ZM36.86 29.67c.26-.45.48-.77.6-.88a.58.58 0 0 1 .19-.11l.17 2.4-.81.74-.15-2.15ZM36 31.2c.26-.5.53-.97.76-1.37l.14 2.09-.8.73-.1-1.45ZM35.13 32.81l.76-1.43.1 1.36-.81.73-.05-.66ZM34.46 34.13l.52-1.02.03.51-.55.5ZM35.75 33.91l-1.01.4.5-.46.5.06ZM37.65 33.15l-1.58.63-.66-.08.8-.73 1.44.18ZM39.35 32.41c-.43.2-.95.42-1.5.65l-1.53-.18.81-.74 2.22.27ZM40.6 31.63a.55.55 0 0 1-.14.2c-.12.1-.45.28-.92.5l-2.3-.28.8-.73 2.55.3ZM40.57 30.69c.1.3.12.6.06.84l-2.48-.3.81-.74 1.61.2Z" fill="#0B9B3C"/><path d="M30.68 28.54c.47.43 2.34 4.21 3.21 6.05-1.99-.71-6.08-2.23-6.55-2.66-.48-.43-.05-1.83.73-2.6.76-.74 2.13-1.21 2.6-.79Z" fill="#03399B"/><path d="M27.5 30.58c.1-.31.27-.62.47-.89l.2-.02.8.73-1.47.18ZM29.3 28.77c-.31.1-.63.28-.9.48v.19l.8.73.1-1.4ZM30.29 28.65a1.8 1.8 0 0 0-.87.08l-.11 1.53.8.73.18-2.34ZM31.19 29.67a5.05 5.05 0 0 0-.6-.88.58.58 0 0 0-.2-.11l-.17 2.4.81.74.16-2.15ZM32.05 31.2l-.76-1.37-.15 2.09.8.73.11-1.45ZM32.91 32.81l-.76-1.43-.1 1.36.81.73.05-.66ZM33.59 34.13l-.52-1.02-.04.51.56.5ZM32.3 33.91l1 .4-.5-.46-.5.06ZM30.4 33.15a121 121 0 0 0 1.57.63l.67-.08-.81-.73-1.44.18ZM28.7 32.41c.42.2.94.42 1.5.65l1.52-.18-.8-.74-2.23.27ZM27.45 31.63c.03.08.08.15.14.2.11.1.45.28.92.5l2.3-.28-.81-.73-2.55.3ZM27.47 30.69c-.09.3-.11.6-.05.84l2.47-.3-.8-.74-1.62.2Z" fill="#0B9B3C"/><path d="M40.67 32.45c-.65 0-4.72 1.52-6.67 2.28 1.95.8 6.02 2.37 6.67 2.37.65 0 1.35-1.3 1.33-2.37-.02-1.04-.68-2.28-1.33-2.28Z" fill="#03399B"/><path d="M40.88 32.78c.21.12.41.35.57.63l-1.02 1.18h-1.11l1.56-1.81Zm-1.39.15c.52-.15.9-.25 1.07-.25a.6.6 0 0 1 .22.05l-1.6 1.86h-1.12l1.43-1.66Zm-1.72.54 1.53-.49-1.38 1.61H36.8l.97-1.12Zm-1.79.61 1.58-.54-.9 1.05h-1.11l.43-.5Zm-1.43.51 1.1-.4-.33.4h-.77Zm1.1.7-1.02-.38h.69l.32.38Zm1.93.69-1.6-.57-.43-.5h1.1l.93 1.07Zm1.76.59-1.56-.52-.98-1.14h1.12l1.42 1.66Zm1.47.24a.6.6 0 0 1-.25.06c-.16 0-.53-.1-1.02-.24l-1.48-1.72h1.11l1.64 1.9Zm.66-.7c-.16.29-.36.52-.57.65l-1.58-1.85h1.11l1.04 1.2Zm.35-1.05c-.04.32-.15.66-.3.95l-.94-1.1h1.11l.13.15Zm0-.6-.13.13h-1.11l.93-1.08c.15.29.26.62.3.94Z" fill="#0B9B3C"/><circle cx="22" cy="21" r="9.35" fill="#fff"/><path fill-rule="evenodd" d="M22 29.57a8.57 8.57 0 1 0 0-17.14 8.57 8.57 0 0 0 0 17.14Zm0-4.3a4.27 4.27 0 1 0 0-8.54 4.27 4.27 0 0 0 0 8.54Z" fill="#003384"/><path fill-rule="evenodd" d="M22 24.74a3.74 3.74 0 1 0 0-7.48 3.74 3.74 0 0 0 0 7.48Zm0-.74a3 3 0 1 0 0-6 3 3 0 0 0 0 6Z" fill="#D1132C"/><path d="M15.59 21.12a1.74 1.74 0 0 1-1.41-1.51 2.22 2.22 0 0 1 .34-1.47c.14-.21.3-.38.48-.5l.68.89a.63.63 0 0 0-.24.2.8.8 0 0 0-.15.58.65.65 0 0 0 .3.46c.07.05.17.1.28.12a.74.74 0 0 0 .58-.08.72.72 0 0 0 .3-.44.69.69 0 0 0 0-.36.74.74 0 0 0-.14-.26l1-.51c.13.19.2.4.24.65.04.24.03.51-.04.8-.05.25-.15.48-.3.69a1.8 1.8 0 0 1-1.15.77c-.25.04-.5.03-.77-.03Zm-.5-4.28 1-1.14c.1-.13.23-.24.37-.35.13-.1.28-.18.43-.22a.99.99 0 0 1 .97.25c.17.14.27.3.33.49.05.19.05.38-.01.59l1.65.26-.89 1.02-1.38-.31-.02.02.94.82-.74.86-2.64-2.29Zm1.86.12.15-.18a.96.96 0 0 0 .08-.1.4.4 0 0 0 .06-.13.3.3 0 0 0 0-.14.25.25 0 0 0-.09-.13.27.27 0 0 0-.13-.07l-.12.01a.35.35 0 0 0-.1.07l-.1.09-.18.2.43.38Zm4.15-.32L20 17l-.46-1.35-1.9-1.53 1.33-.46.86.8.17-1.14 1.3-.44-.65 2.4.46 1.35Zm1.5.1a2.34 2.34 0 0 1-1.4-.71l.81-.68c.07.1.17.19.3.27.12.09.26.14.4.16l.19-.01c.05-.02.09-.06.1-.12 0-.03 0-.06-.02-.09a.3.3 0 0 0-.09-.08l-.18-.1a8.66 8.66 0 0 0-.29-.14 2.6 2.6 0 0 1-.32-.19 1.2 1.2 0 0 1-.26-.23.88.88 0 0 1-.18-.71 1.07 1.07 0 0 1 .59-.86c.15-.08.31-.13.49-.15a2 2 0 0 1 1.78.68l-.82.65a.76.76 0 0 0-.26-.26.78.78 0 0 0-.3-.11.5.5 0 0 0-.2.01.12.12 0 0 0-.1.11c0 .05.01.1.06.13l.25.13.38.19c.13.06.24.15.35.25.1.1.19.2.25.34.06.13.07.28.05.46a1.15 1.15 0 0 1-.57.88c-.15.08-.3.14-.49.17-.17.03-.35.03-.52 0Zm2.16.78-1.01-.58 1.24-2.17-.74-.43.5-.86 2.5 1.44-.5.86-.74-.42-1.25 2.16Zm3.33-1.55.73 1.02-2.06 3.13-.74-1.04.31-.45-.64-.9-.52.16-.72-1.02 3.64-.9Zm-.64 1.2-.87.27.33.46.54-.73Zm2.24 1.74.15 1.17-2.47.32.15 1.15-1 .12-.3-2.32 3.47-.44ZM14.93 25.13a2.34 2.34 0 0 1-.3-1.53l1.03.2c-.04.12-.05.26-.04.41.01.15.06.3.13.41l.12.14c.05.04.1.04.16 0a.13.13 0 0 0 .05-.06.3.3 0 0 0 .02-.12l-.03-.2a8.58 8.58 0 0 0-.07-.32 2.6 2.6 0 0 1-.06-.36c0-.12 0-.24.03-.35a.87.87 0 0 1 .44-.59 1.07 1.07 0 0 1 1.04-.07c.15.07.3.17.42.3a2 2 0 0 1 .57 1.82l-1.02-.25a.76.76 0 0 0 .04-.36.78.78 0 0 0-.1-.3.5.5 0 0 0-.13-.17.13.13 0 0 0-.15 0c-.04.03-.06.07-.06.13l.06.28.08.4c.03.15.04.3.02.44 0 .14-.05.28-.11.4a.85.85 0 0 1-.33.34 1.14 1.14 0 0 1-1.04.1c-.16-.07-.3-.16-.44-.28a1.82 1.82 0 0 1-.33-.41Zm7.87 3.98c-.28.02-.53 0-.77-.07a1.7 1.7 0 0 1-1.09-.87 1.88 1.88 0 0 1-.2-.75 1.75 1.75 0 0 1 1.02-1.8 2.26 2.26 0 0 1 1.51-.11c.25.07.45.18.62.32l-.62.88a.84.84 0 0 0-.27-.19.79.79 0 0 0-.87.21.83.83 0 0 0-.19.6c.02.24.1.44.24.58.14.14.34.2.62.18a1 1 0 0 0 .15-.02c.06-.01.1-.03.12-.05l-.02-.26-.56.04-.07-.92 1.6-.12.15 1.9c-.08.06-.17.1-.28.16a2.84 2.84 0 0 1-.7.23 2.9 2.9 0 0 1-.39.06Zm.98-3.86 1.06-.66 3 2.25-1.08.67-.43-.34-.94.59.12.53-1.05.65-.68-3.69Zm1.16.72.21.88.48-.3-.7-.58Zm.1-1.37.84-1.26c.1-.14.2-.27.33-.4.12-.11.26-.2.4-.27a1 1 0 0 1 1 .13c.18.12.3.27.38.44.08.18.1.38.06.6l1.67.04-.75 1.12-1.4-.13-.03.03 1.04.69-.63.94-2.9-1.93Zm1.86-.12.13-.2a.96.96 0 0 0 .06-.1.41.41 0 0 0 .04-.14c0-.05 0-.1-.02-.14a.25.25 0 0 0-.1-.12.27.27 0 0 0-.14-.05c-.04 0-.08 0-.12.03a.35.35 0 0 0-.1.08l-.06.1-.16.23.47.3Z" fill="#fff"/><path d="M17.38 27.72c.13.17.31.32.55.46.23.14.46.24.67.28.22.04.42.04.6 0 .19-.04.36-.12.51-.24.16-.11.29-.26.4-.44l1.1-1.81-1-.6-1.04 1.7a.58.58 0 0 1-.3.27.43.43 0 0 1-.37-.06.43.43 0 0 1-.22-.3.58.58 0 0 1 .1-.4l1.03-1.7-1-.6-1.1 1.8c-.11.18-.18.37-.22.55-.04.2-.03.38.02.56.04.18.13.36.27.53ZM16 22a.5.5 0 1 1-1 0 .5.5 0 0 1 1 0ZM29 22a.5.5 0 1 1-1 0 .5.5 0 0 1 1 0Z" fill="#fff"/><path fill-rule="evenodd" d="M22 31a10 10 0 1 0 0-20 10 10 0 0 0 0 20Zm0-1a9 9 0 1 0 0-18 9 9 0 0 0 0 18Z" fill="#D1132C"/></svg>