<?xml version='1.0' encoding='utf-8'?>
<!-- by TradeStack -->
<svg width="56" height="56" viewBox="0 0 56 56" fill="none" xmlns="http://www.w3.org/2000/svg">
<rect width="56" height="56" fill="#F0F3FA" />
<path fill-rule="evenodd" clip-rule="evenodd" d="M12.264 25L17.8516 32.5731L21.621 25H12.264ZM18.9051 34.0009L27.0205 45H28.6312L37.2876 33.5173L34.6768 28H21.7539L18.9051 34.0009ZM38.3271 32.1384L43.7222 24.9818C40.0985 24.9506 34.7986 25 34.7986 25C34.7986 25 36.6993 28.8486 38.3271 32.1384ZM44.8393 23.5L45 23.2869L38.6486 15.455L34.7986 23.5H44.8393ZM37.551 14.1015L37.4686 14H29.7932L33.5481 22.2024L37.551 14.1015ZM26.7225 14H18.8866L22.9676 22.2024L26.7225 14ZM17.66 14.9784L11 23.2869L11.1572 23.5H21.8398L17.66 14.9784ZM33.967 26.5H22.466L28.2258 14.3673L33.967 26.5Z" fill="url(#paint0_linear_229_11648)" />
<defs>
<linearGradient id="paint0_linear_229_11648" x1="28" y1="14" x2="28" y2="45" gradientUnits="userSpaceOnUse">
<stop stop-color="#5F91CC" />
<stop offset="1" stop-color="#84C6F8" />
</linearGradient>
</defs>
</svg>