<!-- by TradeStack --><svg width="56" height="56" viewBox="0 0 56 56" xmlns="http://www.w3.org/2000/svg"><path fill="#F0F3FA" d="M0 0h56v56H0z"/><path d="M44 27h-7v.5h-9v.5H15v1h13v.5h9v.5h7c-.04.34-.1.67-.16 1H36.6l-.1.5h-9.04l-.11.5H20v1h7.11l-.11.5h9.1l-.1.5h6.88c-.14.34-.29.67-.45 1h-6.87l-.13.5H26.6l-.59 1h9.18l-.12.5h6.21c-.23.34-.48.68-.74 1h-5.97L34 39h5.66a16.01 16.01 0 1 1 .87-21H34l.56 1h6.71c.22.32.43.66.63 1h-6.84l.12.5H26l.59 1h8.84l.13.5h7.32c.13.33.26.66.37 1H36l.1.5H27l.11.5H20v1h7.34l.11.5h9.04l.1.5h7.32c.04.33.07.66.09 1Z" fill="#B09225"/></svg>