<!-- by TradeStack --><svg width="56" height="56" viewBox="0 0 56 56" xmlns="http://www.w3.org/2000/svg"><path fill="#F0F3FA" d="M0 0h56v56H0z"/><path d="M41.6 13.3c-.79-.81-2.59.26-2.77.34-.17.08-.17.17-.23.29-.65.46-1.32.9-2.02 1.28-.58.33-3.5 2.1-5.4 3.47-1.35.9-2.47 2.13-3.26 3.56a5.52 5.52 0 0 0-.56 3.51 1.81 1.81 0 0 0 .92 1.21s-1.2-1.2-.33-3.6c.4-.87.9-1.7 1.5-2.43.22-.33.5-.6.84-.79 0 0-1.05 1.28-1.4 1.8a9.95 9.95 0 0 0-.8 1.82.5.5 0 0 0 .16-.25c0-.04.05.1.07.08.05-.09.1-.18.13-.27a.7.7 0 0 1-.07.4c-.03.1-.05.21-.06.32.12-.3.26-.6.42-.87.27-.55.6-1.06.97-1.54.1-.07.72-.35.9-.46.17-.12 1-.68 1.48-1.03.73-.5 1.5-.93 2.3-1.32.63-.31 2.96-1.59 2.96-1.59-.07.1-.13.19-.18.29-.14.25-.64 1-.64 1s.34-.37.6-.69c.25-.32.58-.81.58-.81l.23-.14s-.4.51-.49.65c-.07.13-.81 1.37-1.03 1.68-.21.32-1.41 2.12-1.5 2.2-.28.5-.61.96-1 1.37.52-.37.98-.82 1.37-1.33.21-.26.87-1.35 1.1-1.79.24-.44.92-1.67 1.07-1.9l.64-.91.2-.12c-.02.1-.05.2-.09.29a1.8 1.8 0 0 1-.22.35l-.92 1.36c-.2.32-.63 1.14-.63 1.14l.59-.68c.12-.14.32-.44.32-.44l-.17.4-.34.5c-.17.31-.32.63-.45.96-.13.38-.28.75-.46 1.1-.14.25-.32.47-.54.65 0 0 .28-.45.47-.82.2-.46.37-.93.51-1.42 0 0-1.02 1.75-1.45 2.42a9.2 9.2 0 0 1-1.35 1.5c-.16.13-.29.34-1.24 1.27-.54.54-1.2.93-1.92 1.15 0 0 .95.13 2.76-1.47.78-.78 1.5-1.62 2.15-2.5A9.6 9.6 0 0 1 33 25.37a4.63 4.63 0 0 1-2.74 1.36 4.63 4.63 0 0 0 1.63-.36c.58-.28 1.13-.6 1.65-.99a4.7 4.7 0 0 1-2.84 1.51 2.59 2.59 0 0 1-2.1-.52 2.31 2.31 0 0 0 2.08.85 4.2 4.2 0 0 0 2.02-.58c.05-.07.06-.11.11-.15.06-.04.12-.1.64-.45a11.1 11.1 0 0 0 2.22-2.57c.18-.27.9-1.17 1-1.28.15-.1.27-.24.37-.4.08-.18.14-.37.25-.57.32-.47.67-.92 1.04-1.34.37-.48.71-.99 1.02-1.5.14-.23.8-.93.93-1.12.13-.18.99-1.57 1.26-2.02.27-.46.83-1.11.05-1.93Zm-1.67 1.55-.29.46-.27.15.37-.54.19-.07Zm-.56.89-.17.28-.34.19.18-.3.33-.17Zm.3-.78-.21.25-.26.3-.21.12.41-.59.26-.08Zm-.6.17-.22.35-.17.3-.25.12s.2-.34.26-.4l.2-.3.17-.07Zm-7.04 3.9c.74-.52 1.53-.97 2.37-1.33.83-.35 1.59-.73 2.2-1 .6-.28 1.18-.6 1.73-.97-.38.22-.76.4-1.16.56l-.87.29s.95-.45 1.36-.68l1.2-.68-.64.78-2.93 1.49a32 32 0 0 0-3.05 1.7c-.64.43-1.79 1.33-1.79 1.33.48-.55 1-1.04 1.58-1.49Zm5.52-2.1s-2.14 1.15-3.1 1.62a38.14 38.14 0 0 0-4.51 2.84 21.93 21.93 0 0 1 4.28-2.96l3.6-1.92-.27.41Zm.7-.39-.32.17.21-.34.3-.16-.07.14-.12.2Zm-.64 1.66c.07-.17.16-.32.28-.46l.4-.64.39-.64.34-.21s-.92 1.65-1.08 1.84c-.15.2-.49.58-.49.58l.2-.47h-.04Zm1.12-.55c-.26.39-.91 1.6-.91 1.6.23-.66.53-1.29.91-1.87l1.66-2.6s-1.42 2.48-1.66 2.87Zm-13.82 9.56c-2.63-.1-6.95 3.25-7.47 3.74a23.28 23.28 0 0 0-4.14 4.63c-.46.77-.82 1.58-1.1 2.42 0 0 1.38-2.48 1.9-3.24.39-.69.92-1.28 1.56-1.74 0 0-.84.93-1.05 1.28-.2.35-.41.64-.51.8a8.7 8.7 0 0 0-1.44 2.35s-1.6 3.07.19 4.83c1.5 1.49 4.03.2 4.03.2s-2.25.74-3.58-.3c-1.33-1.06-1.12-3.5-.36-5.1.27-.74.7-1.41 1.27-1.97 0 0-.2.45-.3.6l-.84 1.55c-.35.79-.56 1.63-.63 2.5 0 0 .29-.95.38-1.15l.25-.61-.14.58c-.26.7-.26 1.49 0 2.2.53 1.33 2.1 1.24 2.1 1.24a2.17 2.17 0 0 1-1.68-.42c-.4-.43-.68-.95-.81-1.52 0 0 .08 1.84 1.31 2.12 1.23.3 1.98.08 4.05-.9.57-.28 1.1-.67 1.53-1.15.31-.29.6-.61.86-.95l.94-1.2-1.27 1.27c-.89.77-1.84 1.46-2.85 2.06-1.56.8-1.83.64-1.83.64a8.74 8.74 0 0 0 3.03-1.57 20.64 20.64 0 0 0 2.85-2.64s-1.15.99-1.58 1.32c-.43.32-1.24.78-1.24.78s1.2-.94 1.97-1.61c.76-.67 1.6-1.58 1.6-1.58l-2.2 1.49c-.2.1-.37.24-.53.4a.5.5 0 0 0-.09.2s-2.7 2.34-4.14 2.35c-.64 0-.7-.32-.7-.32a.55.55 0 0 1-.32-.68c.13-.62.35-1.23.64-1.8.23-.4.35-.84.6-1.2.24-.38.83-1.08 1.21-1.62.61-.83 1.3-1.6 2.07-2.3.72-.63 1.78-1.39 1.78-1.39a.28.28 0 0 1 .13-.33c.22-.15 2.4-1.77 3.62-2.03 1.21-.26 1.9-.39 1.72.25-.26.8-.62 1.55-1.07 2.25-.4.57-1.04 1.66-1.48 2.2-.45.53-1.67 1.8-1.72 1.96-.05.15 0 .16.08.1 1.1-.71 2.04-1.62 2.79-2.69.31-.43.6-.88.84-1.36.09-.2.22-.36.38-.5-.16.36-.35.71-.55 1.05a30.5 30.5 0 0 1-1.7 2.39.84.84 0 0 0 .2-.1c.03-.05.07 0 .07.05 0 .06.07-.05.08-.07l.12-.12-.15.26-.25.3c.44-.31.83-.7 1.15-1.13.43-.65.63-.9.68-.96.04-.06.49-.33.68-.5.7-.68 1.2-1.55 1.44-2.51.35-1.44.26-2.99-2.38-3.1ZM13.18 37.8c.05-.35.16-.7.33-1.03.45-.84.94-1.66 1.48-2.45.38-.44.81-.84 1.28-1.2-.55.6-1.06 1.25-1.5 1.93-.6.96-1.6 2.75-1.6 2.75Zm1.16-1.23c-.21.43-.78 1.82-.78 1.82s0-.75.9-2.34c.62-.92 1.3-1.8 2.02-2.64-.8 1-1.51 2.05-2.14 3.16Zm3.1-4.12-.84.79.8-.84.8-.74-.76.8Zm5.27-3.84c-.79.27-1.54.67-2.22 1.16.44-.25.89-.48 1.35-.68.36-.11 1-.26 1-.26s-1.74.75-1.97.9c-.32.24-.65.45-1 .64-.65.33-1.27.71-1.87 1.13-.49.37-2.05 1.7-2.36 2.02a71.2 71.2 0 0 0-1.42 1.52c.7-.94 1.48-1.83 2.33-2.64 1.43-1.28 3-2.39 4.7-3.3 1.5-.68 3.6-1.65 5.04-.79 1.44.87-.5 3.61-.5 3.61s1.27-2.5.44-3.28c-.83-.77-2.73-.34-3.52-.05v.02Zm3.68 3.2c-.29.4-.6.8-.94 1.16 0 0 2.7-3.17 1.28-4.75-1.42-1.58-5.34.46-5.63.64a34.03 34.03 0 0 0-4.18 2.89c.46-.52.97-1 1.51-1.43 1.31-1 2.74-1.8 4.26-2.42 1.15-.41 2.45-.84 3.85-.12 1 .51 1.1 2.26-.15 4.03Z" fill="#E5001A"/><path d="M35.97 37.08c-.9.64-1.56 1.05-3.35.64a5.71 5.71 0 0 1-1.23-.7c.14 0 .28.03.41.08.42.24.88.43 1.35.56.43.13.9.14 1.33.04a4.22 4.22 0 0 1-.63-.12l-.54-.18c.14 0 .29.01.43.04.32.07.66.05.97-.08.45-.24.82-.6 1.07-1.04l.3-.42c-.1.24-.23.47-.37.69-.25.41-.6.75-1.03.97a2.06 2.06 0 0 0 1.36-.96c.47-.8.62-1.75.42-2.65a5.9 5.9 0 0 0-.91-1.51l-.64-.56c.26.38.5.77.7 1.18a4.2 4.2 0 0 1 .58 2.18c-.06.58-.15.55-.15.55.05-.57 0-1.16-.14-1.72a6.12 6.12 0 0 0-1.2-2.15c.17.3.3.6.42.9.15.3.24.6.27.93 0 0-.33-.77-.53-1.17-.2-.41-.45-.79-.76-1.12a33.09 33.09 0 0 0 .46 1.64c.03.05.07.1.12.13a5.95 5.95 0 0 1 .6 1.86c0 .56-.24.7-.33.73-.1.04-.12 0-.17.1-.04.1-.03.27-.45.24a2.03 2.03 0 0 1-.56-.13c-.19-.1-.39-.17-.59-.24a1.85 1.85 0 0 1-.7-.5c-.17-.2-.37-.37-.58-.5-.5-.4-.87-.93-1.1-1.53-.29-.86-.24-.67-.24-.67a.15.15 0 0 1-.23-.08 3.87 3.87 0 0 1-.3-1.81c.13-.64.35-.9.52-.93.16-.03.35-.07 1.24.58.89.64 1.05.73 1.22.95.17.23.31.55.49.58.18.02.13 0 .1-.16a3.86 3.86 0 0 0-.63-1.19 3.9 3.9 0 0 0-.63-.6 5.53 5.53 0 0 0-.46-.21.34.34 0 0 1-.2-.16.29.29 0 0 1-.03-.1c.38.16.73.35 1.05.6l.68.59a.23.23 0 0 0 0-.14c-.04-.06.1 0 .07-.08a.47.47 0 0 0-.07-.1s.04 0 .12.05l.19.17a.98.98 0 0 0-.16-.36c-.1-.12-.2-.24-.32-.34a2.1 2.1 0 0 0-.43-.3l-.15-.17a2.04 2.04 0 0 0-.33-.64 2.43 2.43 0 0 0-1.61-.68 2.24 2.24 0 0 0-1.73.57 3.6 3.6 0 0 0-1.04 2.77 7.17 7.17 0 0 0 1.15 3.48c.35.62.8 1.2 1.3 1.7.4.5.89.91 1.44 1.23.47.19.96.34 1.45.46-.43-.2-.85-.4-1.27-.64a4.74 4.74 0 0 1-1.96-1.67c.36.42.8.78 1.27 1.07.1.04.32.28.44.36a4.65 4.65 0 0 0 3 .64 2.65 2.65 0 0 0 2.08-1.6 5 5 0 0 0 .3-1.32 3.5 3.5 0 0 1-1.15 1.97Zm-4.38-1c.58.4 1.24.67 1.94.77-.31.05-.63 0-.91-.13a6.3 6.3 0 0 1-2.9-2.79 7.29 7.29 0 0 0 1.87 2.15Zm-3.32-3.45c-.5-2.44.4-4 1.57-4.35 1.55-.47 2.63 1.02 2.63 1.02s-1.48-1.5-2.88-.7c-.99.57-1.27 1.7-1.27 2.81.05 1.25.38 2.47.96 3.58-.44-.38-.87-1.68-1-2.36Zm1.56 2.69a7.36 7.36 0 0 1-1.2-3.47c-.04-.73.04-2.15.98-2.84.94-.7 2.22.17 2.22.17s-1.74-.8-2.61.58a3.22 3.22 0 0 0-.32 2.61c-.1-.5-.06-1.03.13-1.51-.05.45-.05.91 0 1.36 0 .1.07.14.14.35.05.29.09.58.1.87.17.64.43 1.25.78 1.82.35.6.76 1.15 1.23 1.66-.54-.48-1.03-1.01-1.45-1.6Zm1.14 1.04c-.71-.64-.68-.94-.7-.98.35.46.78.85 1.27 1.15.75.42 1.1.57 1.14.6l.46.23c-.19.01-.38 0-.56-.05a4.4 4.4 0 0 1-1.6-.95h-.01Zm-5.24-10.9s.32.08.75-.8c.2-.59.23-1.22.09-1.81-.07-.15-.17-.13-.17-.13a3.14 3.14 0 0 0-.59-.97c-.38-.4-.79-.77-1.22-1.1-.22-.21-.4-.45-.56-.7-.04-.07-.24-.13-.33-.16a.64.64 0 0 1-.27-.25 30.8 30.8 0 0 0-.68-.82l-.57-.51c-.12-.13-.47-.65-.56-.7-.09-.04-.4-.35-.69-.56-.28-.21-.97-1-1.8-.42-.85.58-.21 2-.18 2.12.03.1 0 .09.1.07.1-.02.16.17.2.3.04.14.16.38.31.72.15.33.6 1.8.64 1.97.04.17.45 1 .59 1.28.23.53.49 1.05.77 1.55.37.62.9 1.12 1.54 1.44.65.41 1.4.61 2.18.57.19 0 .2-.04.56-.24a.86.86 0 0 0 .43-.4c-.34.19-.72.29-1.1.29-.48.04-.96-.08-1.37-.33a10.15 10.15 0 0 1-1.81-1.66c-.09-.15-.05-.23-.05-.23l.53.64a4.87 4.87 0 0 0 1.43 1.03.44.44 0 0 0-.07-.1c-.05-.05 0-.08 0-.11 0-.04-.12-.1-.12-.1l.17.03.27.08a12.67 12.67 0 0 1-1.2-1.02 1.19 1.19 0 0 1-.12-.53c-.03-.4-.13-.78-.3-1.13a3.46 3.46 0 0 1-.33-1.03c0-.14-.2-.9-.2-.9l.38.35c.17.15.64.51.73.58.1.06.22.1.28.16l.19.27a.64.64 0 0 0-.15-.3 1 1 0 0 0-.12-.14c-.1-.25-.27-.48-.49-.64a9.05 9.05 0 0 0-.9-.6l-.05-.19.2.14.22.13-.26-.39a2.43 2.43 0 0 0-.24-.31c.13.06.24.15.34.26.11.1.24.2.37.27.18.1.67.22.85.3.18.07.42.42.42.42-.2-.14-.42-.26-.64-.37a3.74 3.74 0 0 0-.69-.18s.95.64 1.27.89c.27.23.5.5.69.82.12.15.26.3.42.41.27.3.52.6.75.9.13.19.22.4.25.62 0-.19-.01-.37-.04-.55-.17-.43-.4-.84-.68-1.2-.17-.21-1.27-1.3-1.27-1.3.64.43 1.2.97 1.66 1.58.32.46.5 1 .55 1.56.1-.35.09-.73-.03-1.07-.1-.32-.4-1.04-.4-1.04a2.93 2.93 0 0 1 .6 2.47c-.09.3-.25.56-.48.78Zm-4.17-5.71a.3.3 0 0 1-.14-.06.59.59 0 0 1-.1-.1l-.08-.35.28.25.08.27-.04-.01Zm.14.37.05.24-.28-.18-.07-.3.3.24Zm-.37-1.29.05.19-.3-.25-.03-.16.28.22Zm-1.27-.98.39.3c.13.12.3.23.3.23v.11l-.29-.23-.42-.44.02.03Zm.53 1.52h.15v.23l-.16-.15.01-.08Zm.1.44-.06-.23.13.16v.13l-.07-.06Zm.07-.64-.06-.16a.95.95 0 0 0-.07-.16l.06.2v.08l-.21-.15a.44.44 0 0 1-.09-.21.7.7 0 0 0-.05-.22l.51.4.07.3-.16-.08Zm.08.28.16.11.08.37-.15-.17-.09-.31Zm.13.54.14.1.04.2-.17-.24V20Zm.36 2.33c-.13-.65-.23-1.3-.3-1.95l.17.12s.17.8.38 1.6c.17.63.4 1.23.7 1.8a4.41 4.41 0 0 1-.96-1.61l.01.04Zm.8-.34.31 1.15c.06.24.38 1.1.38 1.1a10.45 10.45 0 0 1-1.1-3.01l-.21-.82.3.24.3 1.3.02.04Zm-.23-2.56-.34-.27v-.18l.45.32.32.24a2 2 0 0 1-.45-.18l.02.07Z"/></svg>