<?xml version='1.0' encoding='utf-8'?>
<!-- by TradeStack -->
<svg width="56" height="56" viewBox="0 0 56 56" xmlns="http://www.w3.org/2000/svg"><path fill="#F0F3FA" d="M0 0h56v56H0z" /><path fill="#6CB92F" d="M12 15h10v12H12z" /><path fill-rule="evenodd" d="M12 20.52V27h.86l.28-1.29h2.62l.3 1.29h2.7l-3-10.5H13.2L12 20.52Zm3.25 3.03-.86-3.61-.78 3.6h1.64Z" fill="#1E50A5" /><ellipse cx="18.67" cy="22.26" rx=".98" ry=".93" fill="#DF3281" /><path d="M18.21 15H22v5.37c-.18.02-.36.04-.55.04a3.67 3.67 0 0 1-3.76-3.58c0-.67.19-1.3.52-1.83Z" fill="#EA2B93" /><ellipse cx="19.55" cy="19.5" rx="1.73" ry="1.64" fill="#F4D500" /><path fill="#6CB92F" d="M23 15h10v12H23z" /><path fill="#FCD000" d="M23 23h10v4H23z" /><path fill="#E62E8E" d="M23.86 23h1v4h-1zM25.74 23h1v4h-1zM27.55 23h1v4h-1zM29.43 23h1v4h-1zM31.24 23h1v4h-1z" /><path d="M33 15h-5.48c-.13.23-.38.89-.38 1.75 0 1.07.63 1.8 1.43 2.36.18.13.42.27.69.42.88.52 2.02 1.18 2.02 1.97 0 .99-.66.98-.93.98h-.04c-.25 0-.9-.04-.9-.98v-.86H27v1.6c.08.72.86 2.18 3.3 2.18 1.5 0 2.3-.5 2.7-1.04v-4.26a4.13 4.13 0 0 0-1.09-.79c-.94-.46-2.43-1.3-2.43-2 0-.68.3-.96.81-.96.52 0 .9.3.9.97V17H33v-2Z" fill="#2153A8" /><path fill="#6CB92F" d="M34 15h10v12H34z" /><path d="M39.8 18h3.4l.8 2.98V27h-1.06l-.42-2h-1.97l-.34 2h-2.88l2.46-9Zm1.1 5h1.21l-.66-3.18L40.9 23Z" fill="#2153A8" /><path fill="#FBD200" d="M34 17h10v1H34z" /><path fill="#E82E91" d="M34 15h10v1.65H34z" /><path fill="#6CB92F" d="M12 29h10v12H12z" /><path d="M14.5 29v8h2.52v-4.74l2.1 4.74H22v-8h-2.46v3.57L18.16 29H14.5Z" fill="#1E4F91" /><path fill="#E32F93" d="M12 37h2.5v2.5H12z" /><path fill="#FDD100" d="M14.5 41H22v-1.5h-7.5z" /><path fill="#6CB92F" d="M23 29h10v12H23z" /><path fill="#EC2B98" d="M23 29h2v2h-2zM23 33h2v2h-2z" /><path fill="#FFCD01" d="M23 37h2v2h-2zM25 31h2v2h-2z" /><path fill="#E72E8C" d="M25 35h2v2h-2z" /><path d="M33 33h-5.99v2H29v6h2.5v-6H33v-2Z" fill="#1E4F91" /><path fill="#6CB92F" d="M34 29h10v12H34z" /><path d="M37.5 37v-8H44v2h-4v1h4v2h-4v1h4v2h-6.5Z" fill="#2150A0" /><path fill="#FBD101" d="M34 29h3.47v11.97H34z" /><path d="M37.5 29H34v1.96L37.5 29Zm0 4.02-3.5 1.9V31.05l3.5 1.97Zm0 3.92-3.5 1.9v-3.86l3.5 1.96ZM34 41h3.5L34 39.04V41Z" fill="#E5338B" /></svg>