<?xml version='1.0' encoding='utf-8'?>
<!-- by TradeStack -->
<svg viewBox="0 0 56 56" xmlns="http://www.w3.org/2000/svg"><path fill="#F0F3FA" d="M0 0h56v56H0z" /><path fill-rule="evenodd" d="M43 28c0 8.19-6.81 15-15 15-8.19 0-15-6.81-15-15 0-8.19 6.81-15 15-15 8.19 0 15 6.81 15 15zm3 0a18 18 0 11-36 0 18 18 0 0136 0zm-23 0c0 2.93 2.36 4.99 4.55 4.99S32 31.43 32 28s-2-5-4.45-5C24.44 23 23 25.68 23 28zm11.77-8c.13 0 .23.1.23.22v15.56c0 .13-.1.22-.23.22h-3a.23.23 0 01-.24-.23v-.91A7.38 7.38 0 0127.57 36C22.7 36 20 32.14 20 27.97c0-4.9 3.28-7.97 7.35-7.97 1.69 0 3.37.28 4.49 1.11.03.03.06.04.09.03.05 0 .07-.04.07-.12v-.8c0-.12.1-.22.23-.22h2.54z" fill="#0B0B0A" /></svg>