<!-- by TradeStack --><svg width="56" height="56" viewBox="0 0 56 56" xmlns="http://www.w3.org/2000/svg"><path fill="#F0F3FA" d="M0 0h56v56H0z"/><path d="m30.8 44.8-.88.09a16.75 16.75 0 0 1-11.29-2.7 16.91 16.91 0 0 1-2.79-26.06 16.85 16.85 0 0 1 7.41-4.41c3.74-1.1 7.39-.94 10.95.48a16.44 16.44 0 0 1 9.1 8.4 16.97 16.97 0 0 1 .13 14.58 17.1 17.1 0 0 1-12.64 9.61Z" fill="#080909"/><path d="M43.12 28.02a14.94 14.94 0 0 1-4.43 10.67 15 15 0 0 1-16.48 3.27 14.96 14.96 0 0 1-8.18-8.16 14.94 14.94 0 0 1 0-11.56 14.96 14.96 0 0 1 8.18-8.17 15 15 0 0 1 11.58 0 14.96 14.96 0 0 1 8.18 8.17 14.94 14.94 0 0 1 1.15 5.78Z" fill="#6C6B8B"/><path d="M17.07 34.64 17 21.68c0-.06.02-.1.07-.13l10.8-6.53c.05-.03.1-.03.15 0l10.86 6.42c.05.03.07.08.07.14L39 34.54c0 .05-.02.1-.07.13l-10.8 6.52a.13.13 0 0 1-.14 0l-10.84-6.41a.14.14 0 0 1-.08-.14Z" fill="#080909"/><path d="m28.04 15.98 3.93 2.33c.1.06.1.09-.02.09h-7.86c-.17 0-.18-.03-.04-.12l3.82-2.3a.16.16 0 0 1 .17 0ZM22.59 20a.13.13 0 0 1 0-.12l.4-.71a.16.16 0 0 1 .1-.08c.23-.03.4-.01.54.07l1.51.9c.05.04.05.07 0 .1l-2.42 1.46c-.1.06-.15.03-.15-.09l.04-1.42c0-.03 0-.07-.02-.1ZM26.79 19.17l-1.46.87h-.04l-1.45-.87c-.1-.05-.09-.08.02-.08h2.9c.1 0 .11.02.03.08ZM31.97 19.2l-1.36.8a.12.12 0 0 1-.13 0l-1.41-.82c-.1-.06-.1-.09.02-.09h2.85c.13 0 .14.04.03.1ZM33.2 21.62l-2.44-1.45c-.07-.04-.07-.08 0-.12.45-.29.9-.56 1.33-.82.22-.13.5-.18.82-.14.05 0 .08.03.1.06.18.25.26.54.26.85l-.02 1.6c0 .03-.02.04-.05.02Z" fill="#B5B3C0"/><path d="m27.94 19.17 1.95 1.16c.06.04.06.07 0 .1L28 21.6a.05.05 0 0 1-.06 0l-1.96-1.17c-.05-.03-.05-.07 0-.1l1.91-1.16a.05.05 0 0 1 .06 0Z" fill="#FEFDFD"/><path d="M17.87 26.96c-.04.06-.05.06-.05-.02l-.04-4.79c0-.05.03-.1.08-.13l3.98-2.4c.12-.08.15-.05.08.08l-4.05 7.26ZM34.1 19.56l4.04 2.39c.02.01.02.02.02.04l.02 4.86c0 .12-.03.13-.08.03l-4.06-7.26c-.05-.1-.03-.12.07-.06ZM33.47 19.95l1.43 2.58c.05.1.03.11-.06.06l-1.38-.82a.17.17 0 0 1-.09-.15l.02-1.65c0-.1.02-.11.08-.02ZM22.51 20.17v1.55c0 .02 0 .03-.02.04l-1.3.78c-.09.06-.1.04-.06-.05l1.3-2.34c.06-.1.08-.09.08.02ZM22.66 22.33l3.08-1.87a.09.09 0 0 1 .1 0l1.87 1.13c.1.05.1.11 0 .17l-4.99 3.02c-.1.06-.14.03-.14-.09l.03-2.28a.1.1 0 0 1 .05-.08ZM33.2 24.7l-5.08-2.99c-.04-.02-.04-.05 0-.08l1.93-1.17h.05l3.14 1.85c.02.01.03.02.03.04l-.01 2.32c0 .05-.02.06-.06.04Z" fill="#B5B3C0"/><path d="M22.55 25.05c-.03 1.95-.03 3.89 0 5.83 0 .02 0 .03.03.03.02 0 .03 0 .03-.03a1496.4 1496.4 0 0 1-.03-5.8l-.03-.03.04-.06a.34.34 0 0 1 .1-.08l5.2-3.14a.11.11 0 0 1 .13 0 2106.63 2106.63 0 0 1 5.17 3.07c.04.03.05.07.06.12v.38c.03 1.88.05 3.76.05 5.64 0 .02 0 .04-.03.05l-5.19 3.14c-.1.06-.2.06-.3 0l-7-4.15a.15.15 0 0 1-.07-.13v-3.7c0-.05.02-.08.05-.1.53-.35 1.06-.68 1.6-1 .08-.06.14-.07.19-.04Z" fill="#E7272E"/><path d="m35.1 25.83-1.7-1.01a.05.05 0 0 1-.03-.05l.01-2.3c0-.05.03-.07.08-.04l1.66.99.02.04.02 2.33c0 .05-.02.07-.07.04ZM22.5 24.9l-1.72 1.05c-.05.02-.07.01-.07-.04l-.03-2.36c0-.02.01-.03.03-.04l1.75-1.06c.04-.03.06-.01.06.04l.01 2.37c0 .01 0 .03-.02.04Z" fill="#B5B3C0"/><path d="M26.64 27.73c-.4.97-.32 1.63.23 1.99.13.07.33.11.6.1h.2c.04 0 .05.02.05.06v.04c0 .05-.02.08-.07.08h-3.26c-.04 0-.05-.02-.06-.05v-.05c-.01-.06.01-.09.07-.08.85.1 1.5-.52 1.98-1.86a298.38 298.38 0 0 1 1.45-3.94c.07-.04.12-.02.17.08l2.53 5.13c.1.2.24.37.42.48.12.08.3.12.57.11h.2c.03 0 .05.03.05.07v.05c0 .04-.02.06-.06.06h-3.38c-.03 0-.05-.02-.05-.05l-.01-.05c-.01-.05.01-.08.06-.08h.1c.2 0 .36-.01.46-.06.42-.2.47-.57.16-1.13-.17-.3-.32-.59-.44-.87-.03-.07-.09-.1-.16-.1l-1.7-.01c-.05 0-.1.03-.11.08Z" fill="#FEFDFD"/><path d="m35.74 26.17-.03-2.03c0-.11.03-.12.08-.02l1.67 2.99c.05.1.03.11-.06.06l-1.64-.96a.04.04 0 0 1-.02-.04ZM20.16 24.4v1.89l-.03.04-1.57.96c-.1.06-.12.04-.06-.07l1.57-2.84c.06-.11.09-.1.09.02Z" fill="#B5B3C0"/><path d="M33.4 30.87 33.39 25c0-.05.02-.06.07-.04l1.69 1.02.02.04.02 3.83c0 .02 0 .03-.02.04l-1.68 1.02c-.05.03-.07.02-.07-.04ZM26.77 27.2l.65-1.73c.03-.08.06-.08.1-.01l.89 1.73c.02.05 0 .08-.05.08h-1.54c-.05 0-.07-.02-.05-.07ZM37.35 28.55c-.5.33-1.01.64-1.54.93-.04.03-.06.02-.06-.04l-.02-2.9c0-.17.07-.21.22-.12.5.33.98.63 1.48.9.14.08.27.21.37.4.03.08.06.13.09.17.02.04.03.09.02.14-.04.18-.17.31-.37.42a1.8 1.8 0 0 0-.2.1ZM18.84 28.87l-.16-.07a.55.55 0 0 1-.29-.22l-.3-.51a.14.14 0 0 1 0-.13c.09-.24.22-.4.38-.5.53-.29 1.06-.6 1.61-.94.05-.02.07-.01.07.04l.04 2.97c0 .12-.05.15-.15.09l-1.2-.73Z" fill="#E7272E"/><path d="M35.84 31.79c-.05.09-.08.08-.08-.02l-.01-2.02c0-.05.02-.1.07-.13l1.75-1.07c.07-.04.09-.03.05.05l-1.78 3.19ZM18.69 28.91l1.45.86c.02.01.03.03.03.05l.03 1.8c0 .15-.03.16-.1.03L18.6 29c-.06-.12-.04-.15.09-.08ZM17.89 29.07l4.26 7.65c.04.06.03.08-.04.04l-4.2-2.48a.13.13 0 0 1-.07-.12l-.02-5.08c0-.09.02-.1.07-.01ZM34.83 34.94a485.9 485.9 0 0 0 3.25-5.82c.08-.14.11-.13.11.03l.02 4.89c0 .07-.03.12-.1.16l-4.2 2.55c-.06.03-.07.02-.04-.04.26-.5.58-1.1.96-1.77ZM33.44 31.05l1.66-1c.05-.03.07-.02.07.04l.03 1.95c0 .02-.01.04-.03.05l-1.69 1.02c-.05.03-.07.02-.07-.04V31.1l.03-.04ZM26.35 35.32c-.01-.02-.04 0-.08.04a1.96 1.96 0 0 0-.14-.06 1.2 1.2 0 0 1-.22-.1c-1.67-1-3.37-2-5.08-3a.19.19 0 0 1-.1-.17l-.01-1.82c0-.05.02-.07.07-.04l1.66.98c.06.03.1.09.1.16v1.77c0 .02 0 .04.03.04.02 0 .04-.01.03-.04v-1.74c0-.07.02-.08.08-.05l5.06 2.98c.05.03.05.06 0 .1-.48.3-.97.6-1.49.9-.02 0-.02.02 0 .03l.1.02ZM33.28 33.23l-3.48 2.1a.06.06 0 0 1-.06 0l-1.61-.95c-.07-.04-.07-.08 0-.12l5.1-3.08c.06-.04.1-.02.1.06l-.02 1.94c0 .02 0 .04-.03.05ZM33.41 35.97v-2.12c0-.02 0-.03.02-.04l1.78-1.07c.1-.06.12-.04.06.06L33.5 36c-.06.1-.09.09-.09-.03ZM22.52 33.88l.02 2.12-1.7-3.03c-.06-.1-.04-.12.05-.06l1.63.97Z" fill="#B5B3C0"/><path d="M22.52 33.88c.06.06.11.1.15.1l-.04 2.05c-.1-.09-.12-.1-.1-.03l-.01-2.12Z" fill="#6C6B8B"/><path d="M31.69 36.47c-.43-.24-.84-.48-1.24-.73-.06-.04-.06-.08 0-.12l2.76-1.67c.08-.05.11-.03.11.06l.01 2.18a.3.3 0 0 1-.03.14l-.29.5a.12.12 0 0 1-.1.07h-.05c-.34.02-.58-.02-.73-.13-.14-.11-.29-.2-.44-.3ZM22.67 33.99l2.8 1.62c.04.03.05.06.01.1a.92.92 0 0 1-.23.18c-.51.28-1.02.59-1.51.92-.13.08-.33.11-.6.1h-.02a.14.14 0 0 1-.1-.07 1.9 1.9 0 0 1-.4-.81l.05-2.04Z" fill="#B5B3C0"/><path d="M26.27 35.36c.04-.05.07-.06.08-.04l1.48-.86a.22.22 0 0 1 .24 0l1.54.92c.04.02.04.04 0 .07l-1.56.94a.12.12 0 0 1-.12 0c-.55-.3-1.06-.6-1.53-.9a.35.35 0 0 1-.13-.13Z" fill="#FEFDFD"/><path d="M23.97 36.9c-.15 0-.16-.03-.03-.11l1.67-1.01c.04-.03.09-.03.14 0l1.77 1.04c.1.06.09.1-.03.1l-3.52-.01ZM28.45 36.82l1.79-1.05h.05l1.79 1.04c.1.06.1.09-.02.09l-3.58.01c-.12 0-.13-.03-.03-.09ZM32.35 37.7l-4.27 2.56h-.04l-4.36-2.57c-.1-.05-.1-.08.02-.08h8.63c.11 0 .12.03.02.08Z" fill="#B5B3C0"/></svg>