<?xml version='1.0' encoding='utf-8'?>
<!-- by TradeStack -->
<svg width="56" height="56" viewBox="0 0 56 56" xmlns="http://www.w3.org/2000/svg"><path fill="url(#a)" d="M0 0h56v56H0z" /><path d="M42 20.87v4.48c0 .5.32.8.86.83.4.02.76.03 1.04.01.07 0 .1.03.1.1v.62c0 .06-.03.1-.1.09-1.32-.05-2.85.1-2.9-1.68v-4.46c0-.08 0-.12-.09-.12h-.79c-.08 0-.12-.04-.12-.12v-.49c0-.08.04-.13.13-.13h.77c.09 0 .1-.04.1-.13V18.1c0-.06.07-.09.13-.09h.77c.05 0 .1.03.1.08v1.8c0 .08.02.12.1.12h1.8c.06 0 .1.03.1.1v.58c0 .04-.03.06-.07.06h-1.8c-.1 0-.13.04-.13.13ZM24 30.87v4.48c0 .5.32.8.86.83.4.02.76.03 1.04.01.07 0 .1.03.1.1v.62c0 .06-.03.1-.1.09-1.32-.05-2.85.1-2.9-1.68v-4.46c0-.08 0-.12-.09-.12h-.79c-.08 0-.12-.04-.12-.12v-.49c0-.08.04-.13.13-.13h.77c.09 0 .1-.04.1-.13V28.1c0-.06.07-.09.13-.09h.77c.05 0 .1.03.1.08v1.8c0 .08.02.12.1.12h1.8c.06 0 .1.03.1.1v.58c0 .04-.03.06-.07.06h-1.8c-.1 0-.13.04-.13.13ZM31 30.87v4.48c0 .5.32.8.86.83.4.02.76.03 1.04.01.07 0 .1.03.1.1v.62c0 .06-.03.1-.1.09-1.32-.05-2.85.1-2.9-1.68v-4.46c0-.08 0-.12-.09-.12h-.79c-.08 0-.12-.04-.12-.12v-.49c0-.08.04-.13.13-.13h.77c.09 0 .1-.04.1-.13V28.1c0-.06.07-.09.13-.09h.77c.05 0 .1.03.1.08v1.8c0 .08.02.12.1.12h1.8c.06 0 .1.03.1.1v.58c0 .04-.03.06-.07.06h-1.8c-.1 0-.13.04-.13.13ZM24.58 25.12c.02-.44-.26-.75-.83-.94l-2.06-.58c-.76-.2-1.25-.63-1.46-1.27-.31-.95.36-1.83 1.33-2.14 1.63-.51 3.66-.02 3.86 1.8 0 .04 0 .06-.05.06h-.8c-.04 0-.07-.02-.07-.06-.13-1.16-1.5-1.43-2.53-1.14-.37.1-.64.3-.79.6-.35.71.29 1.27 1.02 1.49 1.19.35 1.85.55 1.98.6 1.37.44 1.73 1.77.77 2.78-.7.74-2.2.8-3.13.55-1.01-.26-1.62-.84-1.81-1.73-.03-.1.02-.15.12-.15h.67c.1 0 .17.05.18.15.1.49.46.83 1.1 1.01.98.28 2.47.1 2.5-1.03ZM27.15 22.03c.07.4.41.7 1.03.9l1.91.57c.78.21 1.43.71 1.48 1.49.03.5-.14.93-.5 1.3-.83.82-2.41.85-3.5.5A2.21 2.21 0 0 1 26 25.22c-.04-.15.02-.22.18-.22h.54c.16 0 .26.07.3.2.26 1 1.65 1.23 2.57 1.02.83-.2 1.5-1.13.74-1.75a2.7 2.7 0 0 0-.92-.4c-1.32-.38-2.13-.46-2.8-1.07-.25-.23-.4-.54-.43-.92-.08-.82.32-1.4 1.18-1.77a3.52 3.52 0 0 1 3 .05c.71.34 1.1.87 1.14 1.6 0 .07-.03.1-.1.1h-.72c-.07 0-.1-.03-.12-.08-.1-.6-.47-.98-1.1-1.15-.9-.25-2.53.04-2.32 1.2ZM19 26.93a1310 1310 0 0 0 0-6.86c0-.05-.02-.07-.07-.07h-.9c-.02 0-.03.02-.03.04v1.18c0 .17-.05.19-.14.04-.6-.97-1.47-1.3-2.62-1.26-1.99.08-3.24 1.53-3.24 3.5s1.25 3.43 3.24 3.5c1.15.04 2.02-.24 2.62-1.2.1-.16.14-.14.14.03v1.13c0 .03.02.04.04.04h.9c.04 0 .06-.02.06-.07Zm-3.43-.79c-1.37.02-2.5-1.14-2.52-2.6-.03-1.45 1.06-2.65 2.43-2.67 1.37-.03 2.5 1.14 2.52 2.6.03 1.45-1.06 2.65-2.43 2.67Z" fill="#72D5B8" /><path fill-rule="evenodd" d="M35.5 26.22c-1.25-.22-1.94-.97-2.07-2.27 0-.09.03-.13.12-.13h5.78c.05 0 .08-.03.09-.07.15-1.24-.19-2.22-1-2.93a3.81 3.81 0 0 0-3.15-.75c-1.04.2-1.8.7-2.29 1.5-.87 1.45-.66 3.78.9 4.8.9.58 1.9.76 3.02.54a2.97 2.97 0 0 0 2.44-2.09c0-.03 0-.05-.05-.05h-.8a.1.1 0 0 0-.06.01.1.1 0 0 0-.04.04c-.54 1.17-1.5 1.63-2.89 1.4Zm-2.04-3.1.03.01 5.03.01.04-.01.01-.03v-.02a2.23 2.23 0 0 0-.71-1.65 2.46 2.46 0 0 0-1.73-.68h-.23c-.65 0-1.27.24-1.73.67a2.27 2.27 0 0 0-.72 1.65v.02l.01.03Z" fill="#72D5B8" /><path d="M27.46 28.75c.37 0 .67-.3.67-.65 0-.36-.3-.66-.67-.66-.37 0-.66.3-.66.66 0 .36.3.65.66.65ZM34.46 28.65c.37 0 .67-.3.67-.65 0-.36-.3-.65-.67-.65-.37 0-.66.3-.66.65 0 .36.3.65.66.65ZM16.1 31.14l.2-.26c.48-.7 1.39-.95 2.18-.86 1.1.12 1.84.6 2.22 1.44.2.45.3 1.25.3 2.37a418 418 0 0 0-.01 3.1c0 .05-.03.07-.07.07h-.8c-.07 0-.12-.03-.12-.1v-4.08c-.03-1.32-.84-2.14-2.15-2.04-.85.06-1.3.44-1.6 1.13-.2.44-.26 1.23-.25 2.37v2.66c0 .04-.03.06-.07.06h-.85c-.05 0-.08-.03-.08-.08v-6.8c0-.07.03-.12.1-.12h.78c.07 0 .12.05.12.12v.97c0 .1.02.11.1.05ZM44.27 35.11c.33 1.14 1.84 1.38 2.89 1.04.34-.11.59-.29.73-.54.43-.74-.08-1.28-.87-1.48l-1.98-.54c-1.23-.34-2.03-1.4-1.35-2.53.52-.86 1.84-1.14 2.88-1.04 1.26.13 2.2.79 2.34 1.94.01.06-.02.09-.1.09h-.73c-.07 0-.11-.03-.12-.09-.14-.67-.59-1.06-1.33-1.17-.79-.12-1.4-.02-1.82.31-.5.39-.51.87-.06 1.44.1.11.34.24.75.37.26.1.9.28 1.95.56.43.12 1.07.48 1.3.83.31.48.33.98.06 1.52-.28.56-.84.93-1.68 1.1-1.51.3-3.62-.18-3.83-1.8 0-.06.03-.1.1-.1h.75c.07 0 .1.03.12.09ZM27.91 30h-.82c-.05 0-.09.03-.09.07v6.86c0 .04.04.07.09.07h.82c.05 0 .09-.03.09-.07v-6.86c0-.04-.04-.07-.09-.07ZM34.91 30h-.82c-.05 0-.09.03-.09.07v6.86c0 .04.04.07.09.07h.82c.05 0 .09-.03.09-.07v-6.86c0-.04-.04-.07-.09-.07Z" fill="#72D5B8" /><path fill-rule="evenodd" d="M10.3 36.26c-1.38-.13-2.16-.91-2.35-2.34a.09.09 0 0 1 .02-.07l.04-.02a.1.1 0 0 1 .03 0h5.83c.07 0 .1-.04.1-.1.2-2.01-.97-3.63-3.13-3.72-.88-.04-1.6.1-2.17.44-1.77 1.04-2.08 3.27-1.17 4.9.93 1.67 3.27 2.07 4.96 1.21.64-.32 1.11-.9 1.42-1.74.02-.04 0-.06-.04-.06H13c-.05 0-.08.02-.1.06-.38 1.07-1.45 1.55-2.6 1.44Zm-2.29-3.15.05.02 4.98-.01c.02 0 .03 0 .05-.02a.06.06 0 0 0 .01-.04v-.03c0-.61-.26-1.2-.71-1.63a2.51 2.51 0 0 0-1.73-.67h-.23a2.56 2.56 0 0 0-1.72.68A2.3 2.3 0 0 0 8 33.03v.04l.01.04ZM37.01 33.84l.05-.01h5.8c.08 0 .12-.04.13-.1.1-1.74-.53-2.88-1.9-3.42a3.95 3.95 0 0 0-3.22.07c-1.67.76-2.21 2.7-1.66 4.4.62 1.93 2.88 2.65 4.8 1.97a2.9 2.9 0 0 0 1.87-1.93v-.02l-.02-.02H42c-.05 0-.07.01-.09.05-.48 1.25-1.87 1.7-3.16 1.33-1.06-.3-1.67-1.03-1.82-2.21a.1.1 0 0 1 .03-.08.11.11 0 0 1 .04-.03Zm-.01-.72.04.02 5.02-.01c.02 0 .03 0 .05-.02a.06.06 0 0 0 .01-.04v-.04c0-.3-.06-.6-.19-.87-.12-.28-.3-.53-.54-.74a2.5 2.5 0 0 0-1.76-.67h-.17a2.6 2.6 0 0 0-1.75.67 2.2 2.2 0 0 0-.73 1.62v.04c0 .01 0 .03.02.04Z" fill="#72D5B8" /><defs><linearGradient id="a" x1="10.42" y1="9.71" x2="68.15" y2="76.02" gradientUnits="userSpaceOnUse"><stop stop-color="#1A1E21" /><stop offset="1" stop-color="#06060A" /></linearGradient></defs></svg>