<?xml version='1.0' encoding='utf-8'?>
<!-- by TradeStack -->
<svg width="56" height="56" viewBox="0 0 56 56" fill="none" xmlns="http://www.w3.org/2000/svg">
<rect width="56" height="56" fill="#F0F3FA" />
<path d="M29.0767 12.0356L31 38.5C33.5 38 39 34.4 39 28C39 21.6 33.8334 18.3333 32 18L36.5 32C36 33.1667 34.5 35.2 32.5 36L30.1139 12.1384C37.9513 13.1728 44 19.88 44 28C44 36.8365 36.8365 44 28 44C19.1635 44 12 36.8365 12 28C12 19.88 18.0487 13.1728 25.8861 12.1384L23.5 36C21.5 35.2 20 33.1667 19.5 32L23.5 18C22 18.5 17 21.6 17 28C17 34.4 22 38 25 38.5L26.9233 12.0356C27.2792 12.012 27.6382 12 28 12C28.3618 12 28.7208 12.012 29.0767 12.0356Z" fill="#094B8C" />
</svg>