<?xml version='1.0' encoding='utf-8'?>
<!-- by TradeStack -->
<svg width="56" height="56" viewBox="0 0 56 56" xmlns="http://www.w3.org/2000/svg"><path fill="#F0F3FA" d="M0 0h56v56H0z" /><path d="M16 35.67v-4.26l3-1.56v-4.13s-2.06-1.13-3-1.7v-3l4 2.45v9.72c0 .12 5.81 3.32 8.6 4.9V43L16 35.67Z" fill="#1C4594" /><path d="M28.6 43v-4.9l4 2.45-4 2.45ZM35.2 39.1l-3.96-2.43L37 33.19v-9.7L41 21v14.7l-5.8 3.4Z" fill="#135BA8" /><path d="m20 23.48-4-2.43 2.87-1.65 2.77 1.65L25 19.07v-3.34l3.57-2.03L41 21l-4 2.52-8.43-4.96L20 23.48Z" fill="#228BD0" /><path d="m15 27.5-2-1.1v2.2l2 1.17V27.5Z" fill="#1C4594" /><path d="m15 27.5 2-1.1v2.2l-2 1.17V27.5Z" fill="#135BA8" /><path d="m15 27.5-1.98-1.1 1.97-1.17 2 1.18-2 1.09Z" fill="#228BD0" /><path d="m13 19.75-2-1.08v2.16L13 22v-2.25Z" fill="#1C4594" /><path d="m13 19.75 2-1.08v2.16L13 22v-2.25Z" fill="#135BA8" /><path d="m13 19.75-1.98-1.08 1.97-1.17 2 1.17-2 1.08Z" fill="#228BD0" /><path d="m15.5 14.85-1.5-.9v1.79l1.5.96v-1.85Z" fill="#1C4594" /><path d="m15.5 14.85 1.5-.9v1.79l-1.5.96v-1.85Z" fill="#135BA8" /><path d="m15.5 14.85-1.48-.89L15.5 13l1.49.96-1.5.89Z" fill="#228BD0" /><path d="M21.5 17.15 19 15.78v2.74L21.5 20v-2.85Z" fill="#1C4594" /><path d="m21.5 17.15 2.5-1.37v2.74L21.5 20v-2.85Z" fill="#135BA8" /><path d="M21.5 17.15 19 15.78l2.49-1.48L24 15.78l-2.5 1.37Z" fill="#228BD0" /><path d="M28.5 28.5 23 25.37v6.26L28.5 35v-6.5Z" fill="#1C4594" /><path d="m28.5 28.5 5.5-3.13v6.26L28.5 35v-6.5Z" fill="#135BA8" /><path d="M28.5 28.54 23 25.37 28.48 22 34 25.37l-5.5 3.17Z" fill="#228BD0" /></svg>