<!-- by TradeStack --><svg width="56" height="56" viewBox="0 0 56 56" xmlns="http://www.w3.org/2000/svg"><path fill="#F0F3FA" d="M0 0h56v56H0z"/><path fill-rule="evenodd" d="M9.13 23.76H8v8.5h1.16c1.52 0 1.84-1.33 1.84-2.64v-3.45c0-1.31-.42-2.41-1.87-2.41ZM52 22.6V33.4A2.58 2.58 0 0 1 49.48 36H6.52A2.58 2.58 0 0 1 4 33.39V22.6A2.57 2.57 0 0 1 6.52 20h42.96A2.57 2.57 0 0 1 52 22.61Zm-40 3.46C12 24.26 10.98 23 9.15 23H7v10h2.22c1.87 0 2.78-1.43 2.78-3.23v-3.7ZM45 26h-2c0-1.71.69-3 2.5-3 1.48 0 2.5.97 2.5 2.61 0 .86-.34 1.86-1.19 2.1.8.3 1.19 1.07 1.19 2.3 0 1.7-.88 2.99-2.49 2.99-1.88 0-2.51-1.18-2.51-3h2c0 .64 0 1 .53 1 .48 0 .48-.3.47-.79V29.91c0-.73 0-1.37-.78-1.4H45V27h.19c.81-.02.81-.49.81-1.29 0-.3 0-.71-.5-.71s-.5.39-.5 1Zm-11 3h1v2h-1v2h-1.98v-2H29v-2l2.69-6H34v6Zm-2-4v4h-1.58L32 25Zm10 4h-1v-6h-2.31L36 29v2h3.02v2H41v-2h1v-2Zm-3 0v-4l-1.58 4H39Zm-16-6h-5v.72h2V33h1v-9.28h2V23Zm-5 10-2.03-10h-.95L13 33h.87l.49-2.67h2.28l.48 2.67H18Zm-2.5-8.75 1.02 5.4h-2.04l1.02-5.4ZM25.97 23 28 33h-.88l-.48-2.67h-2.28L23.87 33H23l2.02-10h.95Zm.55 6.64-1.02-5.4-1.02 5.4h2.04Z" fill="#329ED8"/></svg>