<!-- by TradeStack --><svg viewBox="0 0 56 56" xmlns="http://www.w3.org/2000/svg"><path fill="#F0F3FA" d="M0 0h56v56H0z"/><path d="M11.66 25.64 7 25c.7-3.36 3.53-4.02 6.63-4 3.55 0 7.31.67 7.37 4.93v5.91c0 1.14 0 2.1.5 3.16h-4.69a5.54 5.54 0 0 1-.54-1.95A6.81 6.81 0 0 1 11.25 35C8.9 35 7 33.63 7 31c0-4.06 4.34-3.82 7.23-4.64.6-.17 1.2-.37 1.77-.61 0-1.16-.56-1.7-1.72-1.7-1.27 0-2.2.35-2.62 1.6Zm4.34 2.7c-.69.25-1.41.47-2.16.67-.92.25-2.33.59-2.34 1.78 0 .9.8 1.36 1.62 1.36 1 0 2.1-.52 2.57-1.43.2-.4.31-.92.31-1.56v-.82ZM30 16v5h3v4h-3v4.75c0 .77.1 1.58 1.04 1.58.38 0 .9-.11 1.58-.33l.38 3.58c-1.16.27-2.35.4-3.54.42-3.55 0-4.46-1.95-4.46-5.29V25h-3v-4h3v-2.33L30 16ZM43 21h4.99v12.86l.01.59c.01 4.02-3.42 5.6-6.97 5.55-3.02 0-6.68-.7-6.69-4.42l.03-.68 4.72.56c.24.93.91 1.54 1.94 1.54 1.6 0 1.97-1.4 1.97-2.84v-2.01a4.68 4.68 0 0 1-3.78 1.91c-3.6 0-5.22-3.24-5.22-6.37 0-3.22 1.6-6.7 5.19-6.69 1.84 0 2.81.5 3.81 1.5V21Zm-4 6.69c0 1.35.42 3.3 2 3.31 1.55.03 2-2 2-3.31 0-1.36-.4-3.2-2-3.19-1.67 0-2 1.83-2 3.19Z" fill="#008DC9"/></svg>