<?xml version='1.0' encoding='utf-8'?>
<!-- by TradeStack -->
<svg width="56" height="56" viewBox="0 0 56 56" xmlns="http://www.w3.org/2000/svg"><path fill="#F0F3FA" d="M0 0h56v56H0z" /><path d="M16.08 17c2.6 0 4.93.76 7.48 2.78.04.03-.22.07-.22.13 0 .1-.04.13-.13.08-2.94-1.52-7.03-2.85-9.3.5-.79 1.15-.81 2.43-.09 3.85.07.14.03.2-.12.2-.76 0-1.48.12-2.19.36-.1.04-.18 0-.22-.1-1.55-3.46 1.18-7.8 4.8-7.8Z" fill="url(#a52iazyco)" /><path d="M20.85 19.38c-2.2-.31-3.82-.42-5.94.81-.29.17-.31.13-.08-.1 1.62-1.67 4-1.43 6.04-.81.46.13.45.17-.02.1Z" fill="#084694" /><path d="M30.86 23.77c-1.55-3.12-5-4.59-8.14-2.8a.12.12 0 0 1-.17-.12c0-.03.02-.05.04-.07 3.6-2.81 7.62-1.37 8.4 2.95a.07.07 0 0 1-.04.08.07.07 0 0 1-.1-.04Z" fill="url(#b52iazyco)" /><path d="M6 29.55v-1.16a6.59 6.59 0 0 1 4.25-5.36c.08-.04.13-.01.16.07l.55 1.95c.02.08 0 .13-.07.16-1.7.98-2.91 2.05-2.79 4.18.19 3.1 3.56 4.3 6.34 4.38.47.02.47.06 0 .13-3.2.45-7.79-.54-8.44-4.35Z" fill="url(#c52iazyco)" /><path fill-rule="evenodd" d="M23 27v5.06c0 .31.22.94 1.2.94.63 0 1.2-.2 1.41-.31v-.95c-.1.1-.4.32-.85.32-.55 0-.76-.31-.76-.7V27h1.5v-1H24v-2h-1v2h-1v1h1Zm-4-3v8c0 .33.23 1 1.22 1 .62 0 1.2-.22 1.4-.33v-1.02c-.1.11-.4.35-.85.35-.55 0-.77-.34-.77-.75V24h-1Zm-5.69 3.68-.4-.83a4.3 4.3 0 0 1 2.47-.85C17.2 26 18 27.44 18 28.1v3.34c0 .4.35.54.52.56v1h-.6c-.67 0-.88-.54-.92-.95-.5.48-1.36.95-2.24.95-1.08 0-2.24-.7-2.24-2 0-1.32 1.2-2 2.68-2 .85 0 1.45.2 1.8.38v-.86c0-.3-.04-1.66-1.62-1.66-1.26 0-1.9.55-2.07.82Zm3.7 2.44v1.02a2.37 2.37 0 0 1-1.95 1.06c-1.14 0-1.53-.8-1.58-1.2-.07-.44.2-1.32 1.81-1.32.9 0 1.43.2 1.71.44ZM27 24h1v1h-1v-1Zm0 2h1v7h-1v-7Z" fill="#57565B" /><path fill-rule="evenodd" d="M33.5 32.1v1.02c-.09.54-.4 1.63-1.82 1.63-.83 0-1.56-.66-1.82-1l-.86.92A3.26 3.26 0 0 0 31.68 36c1.84 0 3.32-.9 3.32-3.1V26h-1.5v.65c-.42-.36-1-.65-1.77-.65-1.82 0-2.7 1.85-2.7 3.54s.67 3.3 2.7 3.3c.82 0 1.4-.33 1.77-.73Zm0-1.28v-2.47c-.42-.45-.96-.87-1.5-.87-1.11 0-1.48 1.23-1.48 2.06 0 .83.59 1.98 1.65 1.98.53 0 1-.34 1.33-.7Zm6 2.18a3.5 3.5 0 0 0 3.05-1.78l-1.36-.58c-.36.57-.98.94-1.69.94-.95 0-1.74-.67-1.97-1.58H42.96a3.5 3.5 0 1 0-3.46 3Zm1.98-4a2.05 2.05 0 0 0-1.98-1.65c-.97 0-1.78.7-1.98 1.65h3.96Zm4.02 4H44v-7h1.5v1.44c.36-.56 1.2-1.44 2.35-1.44 1.58 0 2.15 1.55 2.15 2.3V33h-1.5v-4.57c-.05-.3-.45-.91-1.25-.91-.72 0-1.41.94-1.75 1.55V33Z" fill="#06459B" /><defs><linearGradient id="a52iazyco" x1="11.57" y1="23.28" x2="22.79" y2="23.7" gradientUnits="userSpaceOnUse"><stop stop-color="#264F91" /><stop offset="1" stop-color="#264F91" stop-opacity="0" /></linearGradient><linearGradient id="b52iazyco" x1="24.04" y1="18.69" x2="31.77" y2="19.79" gradientUnits="userSpaceOnUse"><stop stop-color="#3C537E" /><stop offset="1" stop-color="#3C537E" stop-opacity="0" /></linearGradient><linearGradient id="c52iazyco" x1="10.4" y1="23.01" x2="13.04" y2="35.2" gradientUnits="userSpaceOnUse"><stop stop-color="#3F61A8" /><stop offset=".42" stop-color="#24539B" /><stop offset="1" stop-color="#3F61A8" stop-opacity="0" /></linearGradient></defs></svg>