<!-- by TradeStack --><svg width="56" height="56" viewBox="0 0 56 56" xmlns="http://www.w3.org/2000/svg"><path fill="#F0F3FA" d="M0 0h56v56H0z"/><path d="M26 35.22c0 3.74-3.64 6.78-7.5 6.78-3.87 0-7.5-3.04-7.5-6.78 0-4.84 4-8.72 6.5-14.53 4 6.3 8.5 10.78 8.5 14.53ZM22.39 24.6c-3.42-1.9-4.34-6.54-2.36-9.83 1.97-3.3 6.6-4.85 10.02-2.94 4.42 2.46 5.92 7.83 9.95 12.9-7.8.22-14.2 1.77-17.61-.13ZM34.07 27.31c3.43-1.9 8.02-.3 9.95 3.03 1.93 3.33.96 8-2.47 9.9-4.44 2.45-9.98.97-16.55 1.76 3.77-6.64 5.64-12.79 9.07-14.69Z" fill="#61DA00"/></svg>