<!-- by TradeStack --><svg width="56" height="56" viewBox="0 0 56 56" xmlns="http://www.w3.org/2000/svg"><path fill="#F0F3FA" d="M0 0h56v56H0z"/><path d="m40.56 14.47-1.14 1.97a.36.36 0 0 0 0 .36l1.37 2.43c.2.36.08.53-.13.8-.06.07-.12.07-.18 0l-1.79-2.04c-.07-.08-.13-.07-.2.01l-.5.74c-.3.47-.16.65-.06 1.22.03.17 0 .3-.11.38a.16.16 0 0 1-.22-.01l-.33-.35c-.08-.33-.32-.47-.74-.43-.26 0-.43-.07-.51-.18a.17.17 0 0 1 .02-.23c.22-.18.5-.28.84-.32.1-.01.16-.06.21-.14l.64-1.1c.07-.12.04-.19-.1-.22l-2.65-.53c-.1-.02-.13-.08-.09-.18.2-.39.24-.5.78-.5.9.02 1.8.02 2.72.01.1 0 .17-.04.21-.12l.93-1.56.3-.36a.33.33 0 0 1 .23-.12c.28-.02.45.13.5.47Z" fill="#FEBA25"/><path d="m39.53 14.48-.93 1.56a.24.24 0 0 1-.2.12h-2.73c-.54-.01-.59.1-.78.5-.04.09-.02.15.1.17l2.64.53c.14.03.17.1.1.23l-.64 1.09a.27.27 0 0 1-.21.14c-.35.04-.62.14-.84.32a.17.17 0 0 0-.02.23c.08.11.25.17.51.18l-5.06 7.95a.1.1 0 0 1-.08.04.1.1 0 0 1-.08-.04c-1.18-1.67-3.14-3.8-4.92-4.6-4.12-1.83-8.06.57-10.16 4.13a18.85 18.85 0 0 0-2.2 5.72H14l.04-18.2c0-.05.02-.08.07-.08h25.42ZM37.27 19.98l.33.35a.16.16 0 0 0 .22.01c.1-.08.14-.21.11-.38-.1-.57-.24-.75.06-1.22a31 31 0 0 1 .5-.74c.07-.08.13-.09.2 0l1.79 2.03c.06.07.12.07.18 0 .2-.27.33-.44.13-.8l-1.37-2.43a.36.36 0 0 1 0-.36l1.14-1.97 1.28.02c.1 0 .16.06.16.16v27.17c0 .11-.06.17-.18.17h-7.18c-.09 0-.13-.04-.12-.13.02-.2.06-.39.12-.57.83-2.33.16-4.75-.57-7.32a32.9 32.9 0 0 0-1.77-4.78.45.45 0 0 1 .02-.42l4.95-8.79Z" fill="#0056A3"/><path d="M29.68 29.96c-1.85 2.44-3.85 4.87-5.6 6.35a8.97 8.97 0 0 1-3.66 1.93c-2.75.68-5.14-1.09-5.03-3.96a9.61 9.61 0 0 1 3.02-6.72c3.86-3.76 8.62-1.48 11.28 2.25l.02.08c0 .02-.01.05-.03.07ZM19.98 41.97c1.88-.66 3.41-2.02 4.97-3.52a38.08 38.08 0 0 0 5.67-7.04.14.14 0 0 1 .14 0l.05.05c1.85 3.3 2.64 6.6 3.25 10.4.01.1-.02.13-.1.13H19.95v-.01l.03-.01ZM14.04 38.17a5.83 5.83 0 0 0 3.94 3.82c.02-.01.02-.02.02 0l-3.82-.01c-.1 0-.16-.05-.16-.14a137.64 137.64 0 0 1 .01-3.71v.01l.01.03Z" fill="#0056A3"/></svg>