<?xml version='1.0' encoding='utf-8'?>
<!-- by TradeStack -->
<svg width="56" height="56" viewBox="0 0 56 56" xmlns="http://www.w3.org/2000/svg"><path fill="#F0F3FA" d="M0 0h56v56H0z" /><path fill-rule="evenodd" d="M39 28.5a6.5 6.5 0 1 0 13 0 6.5 6.5 0 0 0-13 0Zm3 0c0 1.91 1.59 3.5 3.5 3.5s3.5-1.59 3.5-3.5c0-1.9-1.6-3.5-3.5-3.5S42 26.6 42 28.5Z" fill="url(#adfeorm0l)" /><path d="M39 32h-6.1c-2.13 0-3.9-1.37-3.9-3.5s1.77-3.5 3.9-3.5H39v-3h-6.5a6.5 6.5 0 0 0 0 13H39v-3Z" fill="url(#bdfeorm0l)" /><path d="M22 35V25h5v-3H14v3h5v10h3Z" fill="url(#cdfeorm0l)" /><path d="M10.5 21 4 35h2.93l3.57-7.67L14.08 35H17l-6.5-14Z" fill="url(#ddfeorm0l)" /><defs><linearGradient id="adfeorm0l" x1="22.45" y1="35" x2="22.45" y2="22.54" gradientUnits="userSpaceOnUse"><stop offset=".08" stop-color="#BA3100" /><stop offset=".91" stop-color="#F1784D" /></linearGradient><linearGradient id="bdfeorm0l" x1="22.27" y1="35" x2="22.27" y2="22.54" gradientUnits="userSpaceOnUse"><stop offset=".08" stop-color="#BA3100" /><stop offset=".91" stop-color="#F1784D" /></linearGradient><linearGradient id="cdfeorm0l" x1="22.68" y1="35" x2="22.68" y2="22.54" gradientUnits="userSpaceOnUse"><stop offset=".08" stop-color="#BA3100" /><stop offset=".91" stop-color="#F1784D" /></linearGradient><linearGradient id="ddfeorm0l" x1="22.34" y1="35" x2="22.34" y2="22.22" gradientUnits="userSpaceOnUse"><stop offset=".08" stop-color="#BA3100" /><stop offset=".91" stop-color="#F1784D" /></linearGradient></defs></svg>