<!-- by TradeStack --><svg width="56" height="56" viewBox="0 0 56 56" xmlns="http://www.w3.org/2000/svg"><path fill="#F0F3FA" d="M0 0h56v56H0z"/><path fill-rule="evenodd" d="M40.6 35.96a2 2 0 0 1-.45-3.77A21.5 21.5 0 0 0 36.52 25h-.02a1.5 1.5 0 0 1-1.47-1.8 17.32 17.32 0 0 0-5.13-3.95c-2.33-1.1-4.1-1.01-5.14-.21-1.03.8-1.62 2.49-1.29 5.08A4.51 4.51 0 0 1 29 28.5a4.5 4.5 0 0 1-2.13 3.83l.33.46A22.12 22.12 0 0 0 31.1 37H29a24.46 24.46 0 0 1-3.44-4.12 4.51 4.51 0 0 1-3.4-8.22c-.46-2.97.1-5.47 1.79-6.77 2.8-2.16 7.8-.27 11.99 4.22A1.5 1.5 0 0 1 38 23.5c0 .3-.09.59-.24.82l.15.22a22.77 22.77 0 0 1 3.64 7.54 2 2 0 0 1 .45 3.65c-.02.45-.06.87-.13 1.27h-1.4c.06-.32.11-.66.14-1.04ZM27.58 28.5a3.07 3.07 0 1 1-6.14 0 3.07 3.07 0 0 1 6.14 0Z" fill="#8DA21D"/><path d="M42 32v-8h1v8h-1ZM38 24v8h-1v-6.5l-3 5.8-3-5.8V32h-1v-8h1.5l2.5 5 2.5-5H38ZM19 24v1h-3v7h-1v-7h-3v-1h7ZM51.3 26.08a3 3 0 1 0 0 3.84l.7.7a3.97 3.97 0 0 1-7-2.63c0-2.18 1.75-3.99 3.92-3.99a3.7 3.7 0 0 1 3.04 1.41l-.66.67ZM4 32l3.18-8h1.64L12 32h-1.22l-.8-2H6.02l-.8 2H4Zm2.41-3h3.18L8 25l-1.59 4Z" fill="#192954"/></svg>