<!-- by TradeStack --><svg width="56" height="56" viewBox="0 0 56 56" xmlns="http://www.w3.org/2000/svg"><path fill="url(#a)" d="M0 0h56v56H0z"/><path d="M35.38 26h-1.33l-6.54 8-2.14-6.37.93-1.63h-1.34l-1.77-5h16.75l-4.56 5ZM26.5 34h-6.33l-.89-2.94-4.2 2.92H4L22.22 21l4.28 13ZM40.24 30.4a5.53 5.53 0 0 0 4.93.33c-.95 1.1-2.74 3.27-2.74 3.27h-12.6l7.79-9a5.38 5.38 0 0 0 2.62 5.4Z" fill="#fff"/><path d="M45.5 21.56a4.77 4.77 0 0 0-4.49 0h4.48Zm-5.77 1h7.04c-.19-.2-.4-.39-.62-.56h-5.8c-.22.17-.43.36-.62.57Zm-.32 6a4.57 4.57 0 0 1-.36-.56h8.4c-.1.2-.22.39-.36.57h-7.68Zm3.84 1.96c-.75 0-1.5-.18-2.17-.52h4.34c-.67.35-1.42.52-2.17.52Zm-4.4-2.95a4.88 4.88 0 0 1-.2-.57h9.2c-.06.2-.12.38-.2.57h-8.8Zm1.55 2a4.76 4.76 0 0 1-.64-.57h6.98c-.2.2-.4.4-.63.57H40.4ZM39.38 23c-.13.18-.25.37-.35.56h8.44c-.1-.2-.22-.38-.35-.56h-7.74Zm-.73 1.57c.05-.2.11-.39.18-.57h8.84c.07.19.13.37.18.57h-9.2ZM38.5 26l.06.57h9.38L48 26h-9.5Zm0-.43c0-.2.03-.38.06-.57h9.38l.06.57h-9.5Z" fill="#DA1025"/><defs><linearGradient id="a" x1="10.42" y1="9.71" x2="68.15" y2="76.02" gradientUnits="userSpaceOnUse"><stop stop-color="#1A1E21"/><stop offset="1" stop-color="#06060A"/></linearGradient></defs></svg>