<!-- by TradeStack --><svg width="56" height="56" viewBox="0 0 56 56" xmlns="http://www.w3.org/2000/svg"><path fill="#F0F3FA" d="M0 0h56v56H0z"/><path d="M26.88 18.68a.28.28 0 0 0-.04.09 182.97 182.97 0 0 1-2.53 4.33l-.17.26c-.01.01-.03.02-.05 0a6.25 6.25 0 0 0-.72-.36c-.67-.3-1.36-.55-2.07-.78-.47-.15-.94-.27-1.43-.35-.02 0-.03-.02-.03-.04v-.03c0-.02-.02-.04-.04-.04l-.14-.04c-.02-.01-.03-.03-.02-.05l5.22-8.64a.05.05 0 0 1 .04-.03h3.27c.02 0 .04 0 .05.03l.18.3a5681.57 5681.57 0 0 1 11.2 19.5v.03h-.03a1.87 1.87 0 0 1-.2-.2 36.32 36.32 0 0 0-1.7-1.83 17.68 17.68 0 0 0-2.75-2.12 26.9 26.9 0 0 0-3.18-1.65.78.78 0 0 1-.37-.35 10484.55 10484.55 0 0 0-4.5-8.03ZM14.94 22.4l-.44-.05c-.04 0-.05-.02-.04-.06 0-.03.03-.05.07-.05.33 0 .72-.03 1.17-.08.66-.07 1.33-.09 2.02-.04.86.05 1.55.14 2.05.27 1.25.33 2.41.72 3.5 1.18a29.9 29.9 0 0 1 8.6 5.62 33.63 33.63 0 0 1 8 11.33h.02s.01 0 0 0c-.2-.6-.42-1.18-.65-1.75a25.97 25.97 0 0 0-5.95-8.96c-.94-.94-1.9-1.79-2.9-2.57-.24-.18-.47-.37-.7-.58-.06-.06-.05-.07.03-.03 1.2.6 2.39 1.21 3.53 1.83.86.46 1.69 1 2.5 1.6a12.64 12.64 0 0 1 3.36 3.67 17.84 17.84 0 0 1 2.02 5.28 40.81 40.81 0 0 1 .85 5.9l.02.06c0 .03 0 .04-.03.01a27.43 27.43 0 0 1-1.07-1.06 135.07 135.07 0 0 0-6.52-5.78c-.76-.65-1.5-1.35-2.25-2.1a13.47 13.47 0 0 1-3-4.59c-.15-.37-.33-.76-.53-1.16-.35-.66-.69-1.25-1-1.75-.6-.94-1.29-1.75-2.08-2.44a12.83 12.83 0 0 0-3.67-2.25c-.72-.28-1.47-.53-2.26-.75-.11-.03-.22-.04-.32-.04a.05.05 0 0 1-.05-.04.07.07 0 0 0-.04-.03.8.8 0 0 0-.34-.05c-.04 0-.11 0-.2-.02a.7.7 0 0 0-.17-.03.73.73 0 0 1-.25-.04c-.02 0-.02 0 0 0a2.94 2.94 0 0 0 .25-.01l-.01-.01c-.1-.02-.21-.02-.32 0-.04 0-.06 0-.08-.03a21.75 21.75 0 0 0-3.37-.36 5.58 5.58 0 0 0 .25-.04Zm3.68.98-5.6 9.3c-.04.06 0 .32.23.32h5.37c.62-1.02 1.21-2.07 1.8-3.13l1.14-2a445.45 445.45 0 0 1 1.6-2.72c-.02-.05-.05-.1-.12-.13a.09.09 0 0 1-.03-.03v-.01c0-.03 0-.04-.02-.06a16.27 16.27 0 0 0-4.33-1.56c-.02 0-.03 0-.04.02Z" fill="url(#av21g4yto)"/><defs><linearGradient id="av21g4yto" x1="27.5" y1="13" x2="27.5" y2="45" gradientUnits="userSpaceOnUse"><stop stop-color="#52DB31"/><stop offset=".75" stop-color="#1F650E"/></linearGradient></defs></svg>