<?xml version='1.0' encoding='utf-8'?>
<!-- by TradeStack -->
<svg width="56" height="56" viewBox="0 0 56 56" fill="none" xmlns="http://www.w3.org/2000/svg">
<rect width="56" height="56" fill="#F0F3FA" />
<path d="M33.5796 30.0011C31.5768 29.9509 30 31.562 30 33.4857C30 35.5646 31.5962 37 33.4849 37C35.3844 37 37 35.5007 37 33.4355C37 31.6099 35.5867 29.992 33.5796 30.0011ZM33.5344 31C35.0446 31 36 32.1576 36 33.6386C36 35.147 34.9843 36 33.5344 36C32.0329 36 31 34.8139 31 33.3945C31 31.8655 32.0544 31 33.5344 31Z" fill="#00305C" />
<path d="M44.9977 31V35.5256C44.9977 35.9997 45.0539 36.7985 44.5762 37H46.474C45.966 36.6752 46 36.232 46 35.6299V31H46.8393C47.1548 31 47.5396 31.0738 47.665 31.4436H47.6931L48 30L38.3641 30L38.029 31.4436H38.0571C38.3554 31.1378 38.7877 31 39.1984 31H40V35.5256C40 35.9997 40.0063 36.7985 39.5286 37H41.5198C41.014 36.6752 41 36.232 41 35.6299V31H44.9977Z" fill="#00305C" />
<path d="M27.6221 30.2514C27.0579 30.112 26.4658 30 25.8822 30C23.9249 30 22.5295 31.3895 22.5295 33.4897C22.5295 35.6608 23.9249 37 26.1794 37C26.6768 37 27.1742 36.92 27.6221 36.6983L28.1088 35.3814H28.0808C27.4778 35.7471 26.7629 36 26.0459 36C24.573 36 23.5295 34.8312 23.5295 33.3389C23.5295 31.8671 24.5342 31 25.8542 31C26.4852 31 27.0967 31.2058 27.6221 31.56V30.2514Z" fill="#00305C" />
<path d="M20.0008 30.224C19.54 30.0731 19.0534 30 18.5753 30C17.4104 30 16.1765 30.4891 16.1765 31.7643C16.1765 33.9171 19.4647 33.6337 19.4647 35.2174C19.4647 35.9259 18.6421 36 18.0973 36C17.3522 36 16.5684 35.7138 16.0043 35.1973L16.2821 36.6983C16.8268 36.9086 17.4104 37 17.9918 37C19.484 37 20.5542 35.9876 20.5542 34.9021C20.5542 33.0235 17.2661 33.0441 17.2661 31.6546C17.2661 31.1296 17.9552 31 18.4978 31C19.034 31 19.6283 31.2163 20.0008 31.6208V30.224Z" fill="#00305C" />
<path d="M12.4729 34.506L12.9785 35.8714C13.2369 36.6182 13.3144 36.7647 12.8471 37H14.8023C14.2597 36.6902 14.0874 36.0635 13.8678 35.4583L11.8824 30H10.3751C10.8338 30.1609 10.6529 30.6388 10.5194 31.023L8.92593 35.4583C8.7149 36.0635 8.5534 36.6902 8 37H9.75495C9.29845 36.8055 9.36305 36.4669 9.56331 35.8714L10.0672 34.506H12.4729ZM12.1371 33.4602H10.3751L11.2537 30.9029L12.1371 33.4602Z" fill="#00305C" />
<path d="M28.0357 39.5H8V39H28.0357H48V39.5H28.0357Z" fill="#9B713B" />
<path fill-rule="evenodd" clip-rule="evenodd" d="M28 14L27.5435 14.7343L28 15.5073L28.4565 14.7343L28 14ZM27.6232 16.946C27.6232 16.7342 27.7911 16.5638 28 16.5638C28.2067 16.5638 28.3747 16.7342 28.3747 16.946C28.3747 17.1557 28.2067 17.3282 28 17.3282C27.7911 17.3282 27.6232 17.1557 27.6232 16.946ZM27.0461 15.3998C27.3866 15.3083 27.952 15.5696 27.9991 16.0988C28.0478 15.5696 28.6113 15.3083 28.9539 15.3998C29.2425 15.4763 29.6171 15.7514 29.4233 16.2406C29.4233 16.2406 29.2661 15.9589 28.9927 16.0004C28.5922 16.0637 28.534 16.8936 29.4233 16.9875C30.1641 17.0661 30.4569 16.5202 30.0887 16.3651C29.9746 16.3149 29.8432 16.4481 29.8432 16.4481C29.742 16.1576 30.1813 15.8039 30.5711 16.0747C30.8036 16.2363 30.7842 16.6556 30.64 16.9154C30.7842 16.9242 30.978 16.791 31.0814 16.6141C31.0814 16.6141 31.2084 16.4721 31.3161 16.4263C31.5077 16.3455 31.6649 16.3673 31.848 16.4677C31.3979 16.8521 31.1352 17.5073 31.0189 17.9943C30.8716 17.987 30.6874 17.9762 30.4773 17.9639L30.4771 17.9639L30.4771 17.9639C29.7998 17.9242 28.8529 17.8687 28 17.8654C27.1486 17.8687 26.2034 17.924 25.5254 17.9637L25.5254 17.9637C25.3134 17.9761 25.1276 17.987 24.9789 17.9943C24.8626 17.5073 24.5999 16.8521 24.1499 16.4677C24.335 16.3673 24.4901 16.3455 24.6839 16.4263C24.7916 16.4721 24.9186 16.6141 24.9186 16.6141C25.0198 16.791 25.2158 16.9242 25.3579 16.9154C25.2158 16.6556 25.1942 16.2363 25.4311 16.0747C25.8187 15.8039 26.258 16.1576 26.1568 16.4481C26.1568 16.4481 26.0254 16.3149 25.9113 16.3651C25.5431 16.5202 25.8359 17.0661 26.5745 16.9875C27.466 16.8936 27.4035 16.0637 27.0052 16.0004C26.7338 15.9589 26.5745 16.2406 26.5745 16.2406C26.3807 15.7514 26.7554 15.4763 27.0461 15.3998ZM24.1262 20.4965L24.1176 19.8677L24.1312 19.8664L24.1312 19.8664C24.6919 19.8133 25.0524 19.7792 25.6206 19.7493C26.7834 20.6149 27.7674 22.3354 27.7674 24.3466C27.7674 24.384 27.7677 24.421 27.768 24.4577C27.7688 24.567 27.7696 24.6741 27.7631 24.7837C27.7201 24.8031 27.6813 24.8225 27.6425 24.8462C27.5866 22.4775 25.9673 20.6235 24.1262 20.4965ZM24.2102 23.1063C25.6313 23.13 26.8824 24.015 27.2011 25.1757L27.1085 25.2683C26.6822 24.5404 25.7993 24.0387 24.7829 24.0387C24.6559 24.0387 24.5267 24.0516 24.404 24.0645C24.3135 23.7545 24.2575 23.4336 24.2102 23.1063ZM24.6602 24.7708C24.8432 24.7213 25.0392 24.6954 25.2416 24.6954C25.935 24.6954 26.5487 25.0012 26.9233 25.4663C26.8975 25.4986 26.8717 25.5331 26.8501 25.5654C26.568 25.3737 26.2343 25.2639 25.8596 25.2639C25.5344 25.2639 25.2351 25.3479 24.9767 25.4943C24.8562 25.2618 24.7571 25.0163 24.6602 24.7708ZM26.2946 25.6558C25.9048 25.6558 25.5495 25.7893 25.2782 26.0068C25.4203 26.2308 25.584 26.4633 25.7498 26.67C25.9371 26.2178 26.2773 25.8927 26.6822 25.8389L26.6893 25.8243L26.6976 25.8071C26.7115 25.778 26.7257 25.7481 26.7446 25.7183C26.6003 25.6774 26.4518 25.6558 26.2946 25.6558ZM28.7989 25.1757C29.1176 24.015 30.3686 23.13 31.7898 23.1063C31.7425 23.4336 31.6843 23.7545 31.596 24.0645C31.4733 24.0516 31.3419 24.0387 31.2171 24.0387C30.1985 24.0387 29.32 24.5404 28.8915 25.2683L28.7989 25.1757ZM31.3398 24.7708C31.1546 24.7213 30.9587 24.6954 30.7562 24.6954C30.065 24.6954 29.4492 25.0012 29.0745 25.4663C29.0966 25.4918 29.1161 25.5187 29.1349 25.5448L29.1499 25.5654C29.432 25.3737 29.7636 25.2639 30.1404 25.2639C30.4655 25.2639 30.7627 25.3479 31.0211 25.4943C31.1359 25.2769 31.228 25.0482 31.3205 24.8187L31.3205 24.8186L31.3398 24.7708ZM29.7054 25.6558C30.093 25.6558 30.4505 25.7893 30.7218 26.0068C30.5775 26.2308 30.416 26.4633 30.2502 26.67C30.0629 26.2178 29.7227 25.8927 29.3178 25.8389C29.309 25.823 29.3013 25.8067 29.2934 25.7902L29.2934 25.7902C29.2821 25.7665 29.2706 25.7424 29.2554 25.7183C29.3997 25.6774 29.5461 25.6558 29.7054 25.6558ZM31.8738 20.4965L31.8824 19.8677C31.314 19.8139 30.95 19.7794 30.3773 19.7493C29.2145 20.6149 28.2304 22.3354 28.2304 24.3466L28.2303 24.4208V24.4208V24.4209V24.4209V24.4209V24.4209V24.4209V24.4209V24.4209V24.4209V24.4209V24.421V24.421V24.421V24.421V24.421V24.421V24.421V24.421V24.4211V24.4211V24.4211V24.4211V24.4211C28.23 24.5431 28.2297 24.6619 28.2369 24.7837L28.2369 24.7837C28.2778 24.8031 28.3187 24.8225 28.3553 24.8462C28.4113 22.4775 30.0306 20.6235 31.8738 20.4965ZM27.4854 28.2506C27.649 28.3604 27.8191 28.4616 27.9936 28.5564H28.0065C28.1787 28.4616 28.3488 28.3604 28.5147 28.2506C28.5147 28.2506 28.5642 26.7583 29.3135 26.444C29.3135 26.444 28.9582 25.4104 27.9957 24.984C27.0332 25.4104 26.6843 26.444 26.6843 26.444C27.4337 26.7583 27.4854 28.2506 27.4854 28.2506ZM28.0172 26.4633C27.8256 26.4633 27.6727 26.3255 27.6727 26.1533C27.6727 25.9831 27.8256 25.8432 28.0172 25.8432C28.2046 25.8432 28.3596 25.9831 28.3596 26.1533C28.3596 26.3255 28.2046 26.4633 28.0172 26.4633ZM26.1137 28.3984H20.3385V28L22.0745 28.0021L22.1537 27.5905C22.0138 27.2534 21.2773 26.5813 20.7218 26.4815L20.5797 26.3484C20.5129 25.6343 20.1899 25 20.1899 25C19.7442 25.3193 19.1886 25.5433 18.5878 25.6542C20.3406 24.9445 21.2967 23.3321 20.6787 22.6046C21.7037 23.3942 21.4453 25.3082 21.217 25.9603C21.2493 26.14 22.199 26.9473 22.7179 27.1114L22.8557 27.2888C22.8586 27.4508 22.965 27.7965 23.0335 28.0033L25.6873 28.0065C25.7756 28.0991 25.8661 28.1895 25.9587 28.2799L26.1137 28.3984ZM30.317 28C30.2222 28.0991 30.022 28.2993 29.9229 28.3941H35.8424V28.0022L33.9253 28.0014L33.8463 27.5905C33.9862 27.2534 34.7183 26.5813 35.2782 26.4815L35.4182 26.3484C35.4849 25.6343 35.8101 25 35.8101 25C36.2558 25.3193 36.8114 25.5433 37.41 25.6542C35.6593 24.9445 34.7033 23.3321 35.3191 22.6046C34.2963 23.3942 34.5547 25.3082 34.7829 25.9603C34.7485 26.14 33.801 26.9473 33.2821 27.1114L33.1421 27.2888C33.1392 27.4503 33.0346 27.794 32.9667 28.001L30.317 28ZM29.0336 19.2753C30.1146 19.2992 31.2343 19.3795 32.2485 19.4771L32.2442 21.8593C32.2442 24.964 30.5129 27.6629 27.9914 29.0579C25.4699 27.6629 23.7558 24.964 23.7558 21.8593L23.7515 19.4771C24.7528 19.3817 25.8682 19.3057 26.9384 19.2819C26.9557 19.2683 26.9732 19.2548 26.9909 19.2412C27.0806 19.1721 27.1739 19.1003 27.2657 19.0042C26.2457 19.0198 25.2339 19.0717 24.2316 19.1565C24.0412 18.9798 23.8105 18.7396 23.6054 18.5261C23.3558 18.2662 23.1443 18.0461 23.0904 18.0289C23.0108 17.9966 22.8493 17.9966 22.7588 18.0202C22.354 18.1839 21.8049 18.5327 21.8049 18.5327C21.7658 18.5108 21.7311 18.4974 21.6966 18.484C21.6229 18.4555 21.5504 18.4275 21.4388 18.3174C21.1245 17.5357 20.1275 16.9156 20.1275 16.9156L20.345 16.7735L21.3247 17.0276L21.3309 17.0209C21.3859 16.9621 21.3992 16.9479 21.4345 16.8295C21.4493 16.7762 21.4294 16.7257 21.4077 16.6709C21.3821 16.6059 21.354 16.5349 21.3785 16.4462C21.4152 16.3256 21.553 16.1253 21.6843 16.0263C21.5185 15.8691 21.4044 15.7959 21.1998 15.6968C21.0739 15.6382 20.9649 15.6206 20.8555 15.603C20.748 15.5856 20.64 15.5682 20.5151 15.5116C20.3554 15.4402 20.2574 15.3281 20.1619 15.2189C20.0501 15.0911 19.9418 14.9673 19.742 14.9173C19.5719 14.8764 19.4664 14.8656 19.292 14.885L18.5469 14.2692L18.8333 15.0508C19.0874 15.0271 19.2468 15.0444 19.4815 15.1456C19.7765 15.2726 19.9337 15.4212 20.0887 15.7033C20.1231 15.7106 20.158 15.7177 20.1933 15.7249C20.3742 15.7617 20.5652 15.8005 20.7562 15.8906C21.0189 16.0155 21.3161 16.2287 21.2343 16.4612C21.1934 16.5775 21.1309 16.64 21.0189 16.6916L20.3493 16.5474C20.3493 16.5474 19.966 16.8575 19.5095 16.8876C19.7076 16.9414 19.8669 17.0168 20.1727 17.1826C20.444 17.329 21.2515 18.3002 21.3247 18.6598C21.5164 18.6985 21.7425 18.8127 22.0073 19.0603C22.2733 19.0603 22.5063 19.1947 22.607 19.2527L22.607 19.2527C22.6399 19.2717 22.6587 19.2826 22.6598 19.2778C22.6619 19.2735 22.7238 19.2988 22.7857 19.3241L22.7857 19.3241L22.7857 19.3241L22.7857 19.3241L22.7857 19.3241L22.7857 19.3241L22.7858 19.3241L22.7858 19.3241L22.7858 19.3241C22.8477 19.3494 22.9096 19.3747 22.9117 19.3704C22.8406 19.3165 22.6835 19.168 22.6942 19.1357C22.7437 18.9871 22.9849 18.7545 22.9849 18.7545L23.5555 19.2067L23.5703 19.2173L23.4888 19.2254L23.4871 21.2804C23.3571 21.0084 22.8958 20.042 22.8514 19.9238L22.5543 19.9022C22.5338 19.911 22.5152 19.9211 22.4956 19.9318C22.3852 19.9918 22.2407 20.0705 21.5311 20.0381L21.5271 20.0357L21.5276 20.0379L21.5271 20.0379L21.5276 20.0381C21.7029 20.8749 21.2873 21.6794 20.4914 22.385C20.5258 22.385 20.5663 22.3871 20.6067 22.3893C20.6876 22.3936 20.7684 22.3979 20.8015 22.385C21.1588 22.1312 21.7009 21.2713 22.0812 20.2373C22.3786 20.3034 22.517 20.2433 22.6174 20.1997C22.6556 20.1831 22.6883 20.1689 22.7222 20.1649C22.7333 20.4948 23.3183 21.3497 23.4869 21.5895L23.4866 21.8723C23.4866 25.1332 25.3148 27.9623 28 29.3703C30.6852 27.9601 32.5112 25.1332 32.5112 21.8723L32.511 21.5895C32.6795 21.3497 33.2646 20.4948 33.2756 20.1649C33.3101 20.1689 33.3433 20.1833 33.3819 20.2C33.4826 20.2435 33.6205 20.3032 33.9168 20.2373C34.2991 21.2713 34.8412 22.1313 35.1964 22.385C35.2308 22.3979 35.3112 22.3936 35.3916 22.3893C35.4318 22.3871 35.472 22.385 35.5065 22.385C34.7127 21.6794 34.295 20.8749 34.4702 20.0381L34.4707 20.0379L34.4703 20.0379L34.4707 20.0357L34.4668 20.0381C33.7584 20.0705 33.6129 19.9917 33.5021 19.9316C33.4825 19.921 33.464 19.911 33.4436 19.9022L33.1486 19.9238C33.1024 20.042 32.6408 21.0085 32.5107 21.2804L32.509 19.2254L32.4277 19.2173L32.4423 19.2067L33.0129 18.7545C33.0129 18.7545 33.2541 18.9871 33.3058 19.1357C33.3144 19.168 33.1594 19.3165 33.0883 19.3704C33.0904 19.3746 33.1493 19.3504 33.2097 19.3256C33.2725 19.2998 33.3369 19.2734 33.3402 19.2778C33.3408 19.2824 33.3582 19.2723 33.3894 19.2541C33.4877 19.1969 33.7224 19.0603 33.9905 19.0603C34.2575 18.8127 34.4836 18.6985 34.6753 18.6598C34.7485 18.3002 35.5581 17.329 35.8273 17.1826C36.1331 17.0168 36.2924 16.9414 36.4927 16.8876C36.034 16.8575 35.6507 16.5474 35.6507 16.5474L34.9811 16.6916C34.8691 16.64 34.8088 16.5775 34.7679 16.4612C34.6839 16.2287 34.9811 16.0155 35.2438 15.8906C35.4348 15.8005 35.6258 15.7617 35.8067 15.7249C35.842 15.7177 35.8769 15.7106 35.9113 15.7033C36.0642 15.4212 36.2235 15.2748 36.5185 15.1456C36.7511 15.0422 36.9126 15.0271 37.1645 15.0508L37.4531 14.2692L36.708 14.885C36.5336 14.8678 36.4281 14.8764 36.2558 14.9173C36.0572 14.9673 35.9494 15.0906 35.8378 15.2182C35.7426 15.3271 35.6446 15.4392 35.4849 15.5116C35.3601 15.5692 35.2522 15.5862 35.145 15.603C35.0358 15.6201 34.9273 15.6371 34.8023 15.6968C34.5935 15.7959 34.4815 15.8691 34.3178 16.0263C34.447 16.1253 34.5848 16.3256 34.6193 16.4462C34.6449 16.5348 34.6169 16.6057 34.5913 16.6706C34.5696 16.7255 34.5497 16.7761 34.5655 16.8295C34.6006 16.9471 34.6139 16.9619 34.6661 17.0198L34.6731 17.0276L35.6529 16.7735L35.8725 16.9156C35.8725 16.9156 34.8734 17.5357 34.559 18.3174C34.4472 18.4277 34.3756 18.4556 34.3024 18.4842C34.2684 18.4975 34.234 18.5109 34.1951 18.5327C34.1951 18.5327 33.6439 18.1839 33.239 18.0202C33.1486 17.9966 32.9871 17.9966 32.9096 18.0289C32.8556 18.0461 32.6427 18.2672 32.3918 18.5279C32.1868 18.7409 31.9563 18.9802 31.7663 19.1564C30.7648 19.0717 29.7519 19.0198 28.7321 19.0042C28.8141 19.0884 28.8788 19.147 28.9482 19.2099C28.9735 19.2328 28.9995 19.2563 29.0271 19.2819L29.0336 19.2753ZM18.857 20.2963C19.0309 18.8703 18.4237 18.0693 17.966 17.4654L17.966 17.4654L17.966 17.4654C17.8057 17.254 17.6638 17.0668 17.5801 16.8854C17.087 15.8324 17.8536 15.0745 18.6503 15.0594C18.1809 15.531 18.0043 16.0521 18.0904 16.7282C18.1269 17.0175 18.2936 17.304 18.4783 17.6214C18.8614 18.2799 19.322 19.0714 18.857 20.2963ZM17.2829 25.2662L17.3798 25.0896C17.6339 25.0982 18.1744 24.7666 18.3273 24.6417C17.8062 24.2519 17.4487 23.649 17.4164 23.2743C17.3566 22.5918 17.5943 22.2759 17.9522 21.8C18.1871 21.4876 18.4738 21.1064 18.7623 20.5073C18.6345 21.1643 18.3529 21.5403 18.1073 21.8684C17.8231 22.2478 17.587 22.5632 17.6921 23.1753C17.7997 23.7997 18.3165 24.3488 19.0357 24.6417C19.0357 24.6417 18.351 25.152 17.8062 25.4492C18.0237 25.7508 18.1566 26.1822 18.2863 26.6033C18.4455 27.1201 18.5999 27.6213 18.9001 27.848C18.9001 27.848 18.9518 28.298 18.941 28.3734C18.6891 28.1667 18.2282 28.0138 18.0409 27.9901V27.7317C18.0409 27.7317 17.817 27.5982 17.7933 27.5831C17.9892 26.8338 17.6124 25.9208 17.2829 25.2662ZM15.0392 22.1136C15.3657 22.0159 15.4605 21.5095 15.5596 20.9795C15.6966 20.2476 15.842 19.4708 16.6176 19.6631C17.3023 19.8354 17.3045 20.8388 17.0891 21.5688C17.0123 21.8261 16.8768 22.1127 16.7443 22.393L16.7443 22.393C16.4498 23.016 16.1702 23.6075 16.5831 23.7738C16.8243 23.8707 17.0353 23.7286 17.1882 23.4142C17.0999 23.8707 16.708 24.2109 16.3807 24.1097C15.9328 23.9719 15.8381 23.3195 15.9479 22.5163C15.9743 22.3228 16.0396 22.1089 16.1033 21.9001C16.2268 21.4955 16.3443 21.1104 16.1611 20.9314C16.0407 20.8147 15.9361 21.0533 15.8068 21.3484C15.6309 21.7501 15.4091 22.2563 15.0392 22.1136ZM27.964 24.7049C27.9688 24.7011 27.9729 24.6981 27.9978 24.689C28.028 24.6999 28.0329 24.7022 28.0441 24.7074C28.0505 24.7103 28.0589 24.7142 28.0754 24.7213C28.0818 24.3466 28.0861 24.0085 28.0861 23.6252C28.0861 22.1933 28.4113 20.8711 28.9388 19.8483C28.9388 19.8483 28.1184 19.2131 28.0043 18.7738C27.8902 19.2131 27.0698 19.8483 27.0698 19.8483C27.5973 20.8711 27.9225 22.1933 27.9225 23.6252C27.9225 24.0085 27.9268 24.3466 27.9332 24.7213C27.9546 24.7121 27.9596 24.7082 27.964 24.7049ZM27.4509 24.9646C27.41 24.9947 27.3691 25.0249 27.3325 25.055C27.1473 23.5822 25.8639 22.372 24.1327 22.3333C24.1348 22.316 24.1305 21.3643 24.1305 21.3643C26.0383 21.4138 27.3842 23.0245 27.4509 24.9646ZM28.6675 25.055C28.6287 25.0249 28.59 24.9947 28.5469 24.9646C28.6137 23.0245 29.9617 21.4138 31.8674 21.3643C31.8674 21.3643 31.8631 22.316 31.8652 22.3333C30.1339 22.372 28.8506 23.5822 28.6675 25.055L28.6675 25.055ZM37.143 20.2963C36.9689 18.8685 37.5766 18.0673 38.0348 17.4632L38.0348 17.4632L38.0348 17.4631C38.1944 17.2527 38.3359 17.0662 38.4199 16.8854C38.9109 15.8324 38.1464 15.0745 37.3497 15.0594C37.817 15.531 37.9935 16.0521 37.9096 16.7282C37.8725 17.0169 37.7061 17.3029 37.5218 17.6197C37.1384 18.2785 36.6776 19.0703 37.143 20.2963ZM38.7149 25.2662L38.618 25.0896C38.3661 25.0982 37.8256 24.7666 37.6705 24.6417C38.1916 24.2519 38.5513 23.649 38.5835 23.2743C38.642 22.5923 38.4042 22.2763 38.0465 21.8009C37.8113 21.4884 37.5243 21.107 37.2356 20.5073C37.3642 21.1635 37.6457 21.5394 37.8913 21.8672C38.1759 22.2472 38.4121 22.5626 38.3058 23.1753C38.1981 23.7997 37.6813 24.3488 36.9643 24.6417C36.9643 24.6417 37.6469 25.152 38.1916 25.4492C37.9755 25.7502 37.8432 26.1806 37.7141 26.6009L37.7141 26.6009C37.555 27.1186 37.4006 27.621 37.0999 27.848C37.0999 27.848 37.0461 28.298 37.059 28.3734C37.3109 28.1667 37.7739 28.0138 37.9591 27.9901V27.7317C37.9591 27.7317 38.1809 27.5982 38.2046 27.5831C38.0129 26.8338 38.3876 25.9208 38.7149 25.2662ZM40.9608 22.1136C40.6342 22.0159 40.5391 21.5091 40.4396 20.9789C40.3023 20.2472 40.1565 19.4708 39.3824 19.6631C38.6977 19.8354 38.6934 20.8388 38.9109 21.5688C38.9874 21.8273 39.1236 22.1156 39.2567 22.3972C39.5504 23.0187 39.8288 23.6078 39.4169 23.7738C39.1757 23.8707 38.9647 23.7286 38.8097 23.4142C38.8979 23.8707 39.2898 24.2109 39.6193 24.1097C40.065 23.9719 40.1619 23.3195 40.0521 22.5163C40.0251 22.3237 39.9599 22.1109 39.8961 21.9031C39.7717 21.4974 39.6531 21.1108 39.8368 20.9314C39.9572 20.8147 40.0621 21.0534 40.1919 21.3486C40.3685 21.7502 40.591 22.2563 40.9608 22.1136Z" fill="#9B713B" />
</svg>