<!-- by TradeStack --><svg width="56" height="56" viewBox="0 0 56 56" xmlns="http://www.w3.org/2000/svg"><path fill="#264D36" d="M0 0h56v56H0z"/><circle cx="11" cy="28" r="7" fill="#5BB43B"/><path d="m23.38 31.24.4.36a5.6 5.6 0 0 1-3.4 1.4c-.5 0-.96-.09-1.33-.29-.4-.18-.7-.45-.92-.81a2.2 2.2 0 0 1-.33-1.2c0-.62.2-1.24.58-1.83A4.28 4.28 0 0 1 21.92 27c.62 0 1.14.15 1.53.44.41.3.6.63.6 1 0 .25-.06.44-.19.56a.62.62 0 0 1-.48.2.53.53 0 0 1-.4-.15.48.48 0 0 1-.16-.36v-.4c0-.19-.09-.36-.26-.5a1.1 1.1 0 0 0-.7-.2c-.42 0-.83.13-1.26.39a3.3 3.3 0 0 0-1.08 1.2c-.3.52-.44 1.06-.44 1.6a1.45 1.45 0 0 0 .79 1.36c.25.14.5.2.77.2.23 0 .48-.03.78-.1a5.84 5.84 0 0 0 1.95-1ZM27.7 24.93 27.2 27h1.48l-.13.6h-1.5l-.9 3.55c-.08.31-.13.55-.13.67 0 .16.05.28.14.37.1.1.2.14.35.14.1 0 .2-.01.31-.06.14-.06.28-.14.41-.25.08-.06.25-.25.54-.56l.45.35c-.4.46-.75.77-1.05.94-.32.17-.63.25-.95.25-.37 0-.67-.1-.91-.33a1.01 1.01 0 0 1-.36-.77c0-.19.03-.4.1-.62l.92-3.68H24.4l.14-.47c.46-.09.82-.21 1.1-.37.29-.15.56-.37.8-.67.26-.29.51-.68.75-1.16h.52ZM32.24 27l-1.2 4.62a1.7 1.7 0 0 0-.09.42c0 .12.03.22.1.28.06.06.14.1.23.1.11 0 .22-.04.33-.12.16-.12.37-.34.62-.66l.44.34c-.24.32-.52.57-.84.76-.31.18-.61.26-.9.26-.3 0-.54-.1-.77-.3a.9.9 0 0 1-.31-.66c0-.17.03-.4.11-.67l.88-3.37h-1.5l.13-.54a6.82 6.82 0 0 0 2.19-.46h.58Zm-.12-3c.19 0 .36.06.48.17.13.1.2.26.2.45 0 .22-.08.39-.26.54a.8.8 0 0 1-.56.23.72.72 0 0 1-.5-.18.58.58 0 0 1-.21-.45c0-.2.08-.39.25-.54a.94.94 0 0 1 .6-.22ZM36.32 27.12l-1.21 4.26c-.06.2-.1.36-.1.48 0 .15.07.28.2.38.12.1.3.15.48.15.32 0 .61-.07.9-.2.4-.21.8-.53 1.2-.94.39-.42.72-.88.97-1.35.25-.48.36-.85.36-1.12 0-.1-.01-.2-.06-.32a2.2 2.2 0 0 0-.25-.45c-.1-.12-.14-.2-.16-.24a.71.71 0 0 1-.03-.2c0-.15.06-.3.17-.4.11-.11.27-.17.44-.17.25 0 .46.09.62.28.15.2.23.46.23.85 0 .46-.15 1-.45 1.6a7.16 7.16 0 0 1-2.8 2.93c-.5.22-.98.34-1.47.34-.44 0-.79-.1-1.05-.31a.93.93 0 0 1-.4-.77c0-.18.03-.39.1-.63l.9-3.29h-1.25l.14-.4a6.14 6.14 0 0 0 1.97-.5h.55v.02ZM43.34 27l-1.21 4.62a1.7 1.7 0 0 0-.08.42c0 .12.03.22.1.28.06.06.14.1.23.1.11 0 .22-.04.33-.12.16-.12.36-.34.62-.66l.44.34c-.24.32-.52.57-.84.76-.31.18-.61.26-.9.26-.3 0-.55-.1-.77-.3a.9.9 0 0 1-.31-.66c0-.17.03-.4.1-.67l.89-3.37H40.4l.12-.62a6.8 6.8 0 0 0 1.04-.13c.32-.06.7-.08 1.15-.25h.63Zm-.12-3c.18 0 .36.06.48.17.13.1.2.26.2.45 0 .22-.09.39-.26.54a.8.8 0 0 1-.57.23.72.72 0 0 1-.5-.18.58.58 0 0 1-.2-.45c0-.2.07-.39.25-.54a.88.88 0 0 1 .6-.22ZM50.47 27h.87l-1.06 4.6c-.03.16-.06.3-.06.4 0 .12.03.21.1.29.06.07.15.1.25.1.12 0 .25-.04.36-.13.19-.12.4-.34.64-.64l.43.33c-.4.4-.68.66-.83.75-.3.18-.62.27-.95.27-.22 0-.4-.05-.57-.12a.91.91 0 0 1-.37-.35.91.91 0 0 1-.15-.48c0-.13.05-.37.13-.73-.36.45-.7.79-1 1.03a3.12 3.12 0 0 1-1.97.68c-.59 0-1.08-.18-1.42-.53-.4-.4-.6-.9-.6-1.55 0-.7.19-1.36.55-1.98a3.86 3.86 0 0 1 4.47-1.74c.35.12.65.32.92.57l.26-.77Zm-.49 1.23a2.56 2.56 0 0 0-1.65-.64c-.44 0-.86.14-1.29.4a3.92 3.92 0 0 0-1.54 3.08c0 .26.05.5.14.69.1.2.24.35.4.44a1 1 0 0 0 .54.15c.37 0 .74-.14 1.15-.4.5-.31.96-.81 1.37-1.47.43-.65.71-1.4.88-2.25Z" fill="#AACC03"/><path d="M17.18 31.3c-.31 0-1.18-.06-1.37-.22a2.4 2.4 0 0 1-.55-.95l-3.5-9.07a6.07 6.07 0 0 0-1.73-.01l-3.51 8.99c-.17.45-.32.73-.43.87-.1.14-.4.23-.55.3-.14.07-.38.1-.7.1.14.24.25.47.43.69h3.26v-.69l-.37-.01c-.22 0-.4-.02-.5-.06a.57.57 0 0 1-.23-.19.43.43 0 0 1-.1-.28c0-.1.05-.28.15-.53l.93-2.46.3-.8 1.84-4.9L12.38 27h-3.2l-.34 1h3.9l.72 1.97c.16.46.24.74.24.85 0 .15-.08.3-.25.39-.08.04-.27.07-.54.07-.13 0-.27 0-.4.02v.68h4.24c.18-.21.29-.45.43-.68Z" fill="#fff"/></svg>