<!-- by TradeStack --><svg width="56" height="56" viewBox="0 0 56 56" xmlns="http://www.w3.org/2000/svg"><path fill="#1176BC" d="M0 0h56v56H0z"/><path d="M11 40h5.85l9.2-20.57 4.94 10.87 4.2-3.1-5.4-11.7a4.06 4.06 0 0 0-7.5 0L11 40Zm27.52-5.58-5.21.98L35.4 40h5.7l-2.58-5.58Z" fill="#F6FEFE"/><path d="M48 25.64c0 7.9-17.33 9.87-26 9.87 9.65-2.7 16.77-9.42 16.77-12.56 0-3.26-2.65-6.14-4.19-7.19a7.13 7.13 0 0 1 5.87 7.19c0 4.93-6.29 8.67-9.64 9.87 7.96-2.25 11.74-6.73 11.74-9.43 0-2.15-1.68-4.48-2.52-5.38 3.36 1.43 4.62 4.49 4.62 6.28 0 5.39-8.25 8.53-12.59 9.43 13-2.7 14.26-6.74 14.26-8.98 0-1.8-1.12-3.74-1.67-4.49 2.68 1.8 3.35 4.34 3.35 5.39Z" fill="#FFFCFF"/></svg>