<!-- by TradeStack --><svg width="56" height="56" viewBox="0 0 56 56" xmlns="http://www.w3.org/2000/svg"><path fill="#F0F3FA" d="M0 0h56v56H0z"/><path fill-rule="evenodd" d="M6 34h2.08l.9-3h4.03l.9 3H16l-3.8-12H9.8L6 34Zm6.4-5-1.36-4.54h-.08L9.59 29h2.82ZM23 22h2v7.72c0 2.35-1.57 4.28-4 4.28-2.44 0-4-1.92-4-4.28V22h2v7.54c0 1.32.58 2.46 2 2.46s2-1.13 2-2.46V22Zm11.14 4H36c-.27-2.3-1.94-4-4.32-4-3.24 0-4.68 3.17-4.68 6 0 2.84 1.43 6 4.68 6 2.31 0 4.04-1.76 4.32-4h-1.86c-.2 1.23-1.17 2-2.44 2-2.16 0-2.7-2.22-2.7-4 0-1.77.56-4 2.7-4 1.3 0 2.24.75 2.44 2Zm6.29-4H38v12h2v-8.26h.02l2.9 8.26h1.36L47 26.28V34h2V22h-2.22l-3.11 8.7h-.13L40.43 22Z"/></svg>