<?xml version='1.0' encoding='utf-8'?>
<!-- by TradeStack -->
<svg width="56" height="56" viewBox="0 0 56 56" xmlns="http://www.w3.org/2000/svg"><path fill="#F0F3FA" d="M0 0h56v56H0z" /><path d="M10 27.4v-.31c.32-2.24 2.38-3.29 4.26-4.18 1.32-.63 2.45-1.77 2.6-3.17.07-.74.71-1.38 1.5-1.3.04.01.07 0 .1-.01a.15.15 0 0 0 .06-.06c.47-.91 1.76-2.94 3.07-1.89a3.35 3.35 0 0 0 2 .58.19.19 0 0 0 .12-.19c-.06-1.08.06-2.35 1.44-2.53.47-.06.88-.23 1.24-.5.2-.17.22-.38.57-.3 1.07.24 2.14.46 3.22.66.22.04.35.16.37.36l-.01.08c-.14.2-.31.38-.52.51-.35.23-1.03 1.66-.92 2.09l.05.07c1.29.75 2.58 1.5 3.87 2.23.32.19.86-.25 1.04-.48.48-.64.59-1.2.64-2.06.05-.9.1-1.8.17-2.71.03-.44.3-1.26.86-1.29.03 0 .05 0 .08.02.31.21.54.47.67.78.17.4.41 1.06.74 2 .01.03.03.05.05.06a4.38 4.38 0 0 1 1.21.99l-.01.05-5.4 7.12c-.45.59-.8 1-1.05 1.24a8.03 8.03 0 0 1-4.08 1.98c-.74.13-1.73.13-2.54.2a9.88 9.88 0 0 0-6.7 3.24c-.22.25-.55.7-.97 1.31l-2.4 3.47c-.1.15-.2.32-.28.5-.01.02-.03.03-.06 0a8.01 8.01 0 0 1-1.5-1.6c-.21-.3-.46-.6-.61-.94-.87-1.92-1.8-3.8-2.8-5.67-.06-.13-.06-.2-.08-.34Z" fill="#4D3A20" /><path d="M31.84 35.75c-.24.06-.48.15-.73.06a.11.11 0 0 1-.06-.06c-.14-.28.07-.43.18-.66.02-.03.01-.05 0-.07-.22-.19-1.2.27-1.5.4a.1.1 0 0 1-.08 0c-.14-.07-.17-.21-.27-.3a3.98 3.98 0 0 0-2.13-.75 15.69 15.69 0 0 0-7.34 1.28c1.47-2.24 3.98-4.43 6.92-4.34l.9.02c2.52-.05 5.2-.81 7-2.57.27-.26.61-.68 1.03-1.25a7033.45 7033.45 0 0 1 4.5-6.12.06.06 0 0 1 .05.01c1.43 1.04 2.63 2.17 2.78 3.95 0 .03.01.05.04.07 2.72 2.23 2.13 5.55.41 8.16-.66 1-1.27 2.04-1.83 3.1-.28.54-.32 2.3-1.42 2.06-.6-.14-1.5.58-1.8 1.07a.16.16 0 0 1-.1.07.17.17 0 0 1-.13-.02c-.42-.3-.72-.7-.9-1.17a.17.17 0 0 0-.18-.1.17.17 0 0 0-.07.02c-1.06.7-1.99.63-2.96-.13-.39-.3-1.01-.55-1.1-1.06v-.08c.2-.4 0-1-.5-1.05-.18-.02-.36.08-.56.08a.16.16 0 0 1-.12-.05.14.14 0 0 1-.04-.11l.04-.43c0-.03 0-.04-.03-.03ZM35.92 40.8c.87.39 1.82.5 2.76.28.07-.02.1 0 .12.08.16 1.37-.4 2.32-1.7 2.83a.12.12 0 0 1-.13-.02 3.35 3.35 0 0 1-1.14-3.14l.02-.02a.08.08 0 0 1 .07 0Z" fill="#CC4B20" /></svg>