<?xml version='1.0' encoding='utf-8'?>
<!-- by TradeStack -->
<svg width="56" height="56" viewBox="0 0 56 56" xmlns="http://www.w3.org/2000/svg"><path fill="#404041" d="M0 0h56v56H0z" /><path d="M35 26.88c-.19-.1-.62-.1-1-.02 0 0-.07-2.7 0-3.4.1-.96.74-1.93 1.6-2.63 1.88-1.53 4.74-.84 5.96 1.22a.1.1 0 0 0 .08.05.1.1 0 0 0 .08-.04c.88-1.3 1.99-1.93 3.34-1.91 1.15.01 2.13.47 2.93 1.36.66.74 1 1.8 1 3.17.02 2.9.01 5.35-.01 7.32a.5.5 0 0 1-.14.35c-.1.09-.21.14-.34.14h-.02a.45.45 0 0 1-.33-.14.48.48 0 0 1-.14-.34v-7.5c.03-2.05-1.3-3.59-3.3-3.36-1.13.14-2.1.79-2.56 1.96-.16.41-.17 1.12-.15 2.11.02 1.07.03 3.34 0 6.82 0 .12-.13.23-.2.31a.45.45 0 0 1-.31.15h-.02a.4.4 0 0 1-.3-.12.42.42 0 0 1-.13-.3c-.03-2.08-.06-4.3-.04-6.7a7.23 7.23 0 0 0-.26-2.6c-.78-1.68-2.96-2.35-4.47-1.26A3.16 3.16 0 0 0 35 23.97v2.91ZM15 23.8c-.3-.09-.66-.1-1 0-.56-3.42-5.06-3.81-5.98-.45a.67.67 0 0 0-.02.15v7.99a.5.5 0 0 1-.15.36.53.53 0 0 1-.37.15h-.1a.35.35 0 0 1-.24-.1.33.33 0 0 1-.1-.23C7.01 30.14 7 27.62 7 24.12c0-1.9 1.08-3.46 2.97-3.97 1.65-.43 3.08.06 4.3 1.48.41.47.65 1.3.73 2.18ZM22 26.87c-.06-.15-.24-.2-.43-.17-.2.04-.42.1-.57.2 0 0-.01-2.67.07-3.31.26-2.06 1.95-3.67 4-3.52.07 0 .14.04.2.09.05.05.09.12.1.2.05.32-.04.5-.28.56-1.3.3-2.24.53-2.85 1.85A5.83 5.83 0 0 0 22 24.8l.01 2.07Z" fill="#FECA32" /><path d="M34 26.78c.38-.09.81-.08 1 .02.03 1.4.01 2.8 0 4.18a7.06 7.06 0 0 1-.46 2.78 3.9 3.9 0 0 1-5.86 1.43A4.31 4.31 0 0 1 27 31.62c-.01-3.74.02-6.21.04-7.42a.6.6 0 0 1 .14-.36c.08-.1.2-.18.33-.2h.01a.4.4 0 0 1 .34.08.42.42 0 0 1 .14.32c0 2.71-.02 5.31 0 7.81 0 1.56.71 2.58 2.1 3.05a3.05 3.05 0 0 0 3.7-1.9c.12-.36.2-1 .2-1.9.01-1.45-.02-2.9 0-4.32ZM15 23.8c.03 2.17.01 4.33 0 6.48 0 1.69.09 2.72.3 3.1a3.06 3.06 0 0 0 5.46-.09c.18-.38.27-1.18.25-2.42-.01-1.32-.04-2.64-.01-3.97.16-.1.37-.16.57-.2.2-.03.36.02.43.17.03 1.1 0 2.21 0 3.31-.02 2.44.07 3.84-1.8 5.15-2.12 1.47-5.01.37-5.92-1.86-.19-.46-.28-1.63-.28-3.5v-6.18c.34-.1.7-.09 1 .01Z" fill="#fff" /></svg>