<?xml version='1.0' encoding='utf-8'?>
<!-- by TradeStack -->
<svg width="56" height="56" viewBox="0 0 56 56" xmlns="http://www.w3.org/2000/svg"><path fill="#F0F3FA" d="M0 0h56v56H0z" /><path fill-rule="evenodd" d="M28.51 30.04V23A1.95 1.95 0 0 0 27 24.6v5.54c0 1.56 1.25 1.89 1.87 1.86h.88v-1.33h-.73c-.37 0-.5-.42-.5-.63ZM5.34 26.41l.45 1.06c.2-.09.8-.27 1.54-.27.92 0 1.07.39 1.07.7v.38H7.33c-.78-.02-2.33.33-2.33 1.87S6.83 32.02 7.74 32c.5 0 1.65-.1 2.26-.36v-4.06C9.88 27.05 9.2 26 7.48 26c-.99 0-1.84.27-2.14.4Zm3.06 2.77v1.6h-.92c-.32 0-.96-.17-.96-.79 0-.76.84-.81 1.17-.81h.71Zm24.94-2.77.45 1.06c.2-.09.8-.27 1.54-.27.92 0 1.07.39 1.07.7v.38h-1.07c-.78-.02-2.33.33-2.33 1.87s1.83 1.87 2.74 1.85c.5 0 1.65-.1 2.26-.36v-4.06c-.12-.53-.8-1.58-2.52-1.58-.99 0-1.84.27-2.14.4Zm3.06 2.77v1.6h-.92c-.32 0-.96-.17-.96-.79 0-.76.84-.81 1.17-.81h.71ZM11 26v3.61c.02.88.62 2.59 2.88 2.37a23.8 23.8 0 0 0 2.12-.3V26h-1.55v4.71c-.14.03-.5.09-.88.09-.46 0-1-.39-1-1.19V26H11Zm9.43.06-.4-.04c-2.38-.22-3.01 1.49-3.03 2.37V32h1.65v-3.4c0-.79.56-1.18 1.05-1.18.27 0 .54.03.73.06v-1.42Zm6.07 3.5h-3.98c0 .65.69 1.3 1.69 1.3.8 0 1.44-.26 1.66-.4l.35 1.15c-.29.13-1.11.39-2.1.39-2.36 0-3.05-1.63-3.1-2.44-.12-1.19.27-3.56 2.81-3.56s2.84 2.37 2.67 3.56Zm-1.46-1.17H22.6c.07-.41.41-1.24 1.27-1.24.85 0 1.13.83 1.17 1.24ZM31 23h1.5v1.5H31V23Zm-1 4.34V26h2.54v6H31v-4.66h-1Z" fill="#1A4577" /><path d="M39 21.89c0 1.34 1.13 1.67 1.7 1.67.43 0 .57-.15.94-.3s.47-.35.7-.23c.21.1.02.46-.23.53-.24.08-.93.92-.22 1.53.7.6 1.6.03 1.72-.34.12-.38.52-.82 1.34-.44.83.37.39 1.23.12 1.39-.26.16-.62.6-.3.95.3.35.62.4.9.32.28-.08 1.33-.07 1.33.99s-1.06 1.37-1.45 1.37c-.39 0-.73-.18-.93-.4-.21-.23-.68-.84-1.39-.84-.7 0-1.65.32-1.65 1.44 0 1.12.97 1.53 1.46 1.53s.25-.18 1.3-.18c1.04 0 1.53.98 1.53 1.63 0 .64-.32 1.13-.5 1.23-.2.1-.55.4-.55.7 0 .29.19.56.6.56.43 0 .61-.2.61-.42 0-.21-.1-.34-.16-.45-.06-.1-.21-.35.06-.54.27-.18.24.05.95.05s1.33-.46 1.33-1.2-.35-.93-.57-1.22c-.23-.29-.76-.52-.76-1.32s.64-1.33 1.33-1.33c.69 0 1.16.88 2.17.88S52 28.58 52 27.86c0-.72-.48-1.68-1.67-1.68s-1.25.79-2.12.79c-.87 0-1.43-.64-1.8-1.2a2.4 2.4 0 0 1-.35-1.29c0-1.34.93-1.02.93-1.95 0-.5-.24-1.23-1.23-1.23s-1.17.77-1.17 1.07c0 .3.1.42.1.61s-.23.83-.92.83c-.7 0-.93-.48-.93-.9 0-.33.07-.82.1-1.02C42.95 20.2 41.39 20 41 20c-.39 0-2 .21-2 1.89Z" fill="#7B714D" /></svg>