<!-- by TradeStack --><svg width="56" height="56" viewBox="0 0 56 56" xmlns="http://www.w3.org/2000/svg"><path fill="#F35F37" d="M0 0h56v56H0z"/><path d="M6 28.46A7.48 7.48 0 0 1 13.5 21c4.14 0 7.5 3.34 7.5 7.46V36h-2v-7.54A5.36 5.36 0 0 0 13.5 23 5.36 5.36 0 0 0 8 28.46V36H6v-7.54Z" fill="#fff"/><path d="M35 28.54A7.48 7.48 0 0 1 27.5 36a7.48 7.48 0 0 1-7.5-7.46V21h2v7.54A5.36 5.36 0 0 0 27.5 34c3.13 0 5.5-2.34 5.5-5.46V21h2v7.54Z" fill="#fff"/><path fill-rule="evenodd" d="M42.5 34c3.14 0 5.5-2.36 5.5-5.5S45.64 23 42.5 23a5.37 5.37 0 0 0-5.5 5.5c0 3.14 2.36 5.5 5.5 5.5Zm0 2a7.5 7.5 0 1 0 0-15 7.5 7.5 0 0 0 0 15Z" fill="#fff"/></svg>