<?xml version='1.0' encoding='utf-8'?>
<!-- by TradeStack -->
<svg width="56" height="56" viewBox="0 0 56 56" xmlns="http://www.w3.org/2000/svg"><path fill="#F0F3FA" d="M0 0h56v56H0z" /><path d="M12.9 33 8.7 23h5.66l4.27 10h-5.72Zm-4.7-9.69L4 33h6.12l1.14-2.7-3.06-6.99ZM46.27 33l-4.21-10h5.67L52 33h-5.73Zm-4.7-9.69L37.36 33h6.12l1.13-2.7-3.06-6.99ZM18 28.61V23h4v5.46c0 .16.04.54.48.54.45 0 .52-.38.52-.54V23h4v5.6c0 2.43-1.9 4.4-4.26 4.4h-.48A4.33 4.33 0 0 1 18 28.6ZM28 33h6.23c1 0 2.77-1.03 2.77-3.34 0-1.23-.8-2.3-1.2-2.68l-2.6-2.87a.3.3 0 0 1 0-.38c.1-.1.26-.1.35 0L37 27.55V23h-6.13c-.96.13-2.87.95-2.87 3.23 0 .47.15 1.57.76 2.26l3.05 3.39c.1.11.1.3 0 .42a.25.25 0 0 1-.38 0L28 28.5V33Z" /></svg>