<!-- by TradeStack --><svg width="56" height="56" viewBox="0 0 56 56" xmlns="http://www.w3.org/2000/svg"><path fill="#F0F3FA" d="M0 0h56v56H0z"/><path d="M43.47 23.84c.85.73 1.37 1.7 1.53 2.09-2.04-.94-7.99-2.93-15.5-2.93s-15.32 4.7-18.3 7c-.06-.2-.2-.75-.2-1.26 0-2.8 2.74-3.64 4.21-4.36 1.48-.71 1.84-2.6 2.62-3.27.78-.67 2.77-2.49 3.2-2.89.42-.4 2.42-2.22 4.42-2.22s1.87.37 2.14 1.28c.28.9.9 1.72 2.65 1.72 1.4 0 1.76-.71 1.76-1.07V14c3.42 2.97 10.63 9.1 11.47 9.84Z" fill="#160F3E"/><path d="M14.29 37 11 31.13C14.18 28.75 22.3 24 29.4 24A41 41 0 0 1 45 27.14v.91c-1.18-.2-4.32-.6-7.41-.6-12.69 0-20.82 6.36-23.3 9.55Z" fill="#B6A010"/><path d="M37.93 29C25.8 29 17.58 35.1 15 38.16c0 .61.27 1.84 1.36 1.84 1.35 0 2.5-1.37 3.15-1.84.67-.47 2.24-1 3.06-1.9 1.25-1.42 3.5-2.26 6.12-2.26 2.61 0 3.26 2.04 4.2 2.04.95 0 2.1.06 2.4.59.7 1.32 2.75 1.4 3.68 1.37 3.89 0 4.49-4.02 5.46-5.54.69-1.07.49-2.03.57-2.93a49.58 49.58 0 0 0-7.07-.53ZM42 40.4c0-1.07-1.51-1.38-2.26-1.4-1.3 0-1.74.6-1.74.86 0 .25.12.45.72 1 .59.56 1.53 1.14 1.97 1.14.44 0 1.31-.25 1.31-1.6Z" fill="#160F3E"/></svg>