<!-- by TradeStack --><svg width="56" height="56" viewBox="0 0 56 56" xmlns="http://www.w3.org/2000/svg"><path fill="#F0F3FA" d="M0 0h56v56H0z"/><path d="M7.4 27h9.85c.59-1.19 2.94-3.2 7.62-3.2a9.2 9.2 0 0 1 7.2 3.72c.2.29.54.48.9.48h.15c.49 0 .88-.38.88-.85a.78.78 0 0 0-.08-.35A15.14 15.14 0 0 0 20.5 19c-7.3 0-11.81 4.49-13.45 7.4-.15.26.05.6.36.6Zm41.2 2h-9.85c-.59 1.19-2.94 3.2-7.62 3.2a9.2 9.2 0 0 1-7.2-3.72 1.14 1.14 0 0 0-.9-.48h-.15a.86.86 0 0 0-.88.85c0 .12.03.24.08.35 1.35 2.7 5.77 7.8 13.42 7.8a15.5 15.5 0 0 0 13.45-7.47c.15-.26-.05-.53-.36-.53Z" fill="#910028"/><path d="M21 16.3c3.39 0 11.1 1.71 14.84 8.7H43c-1.28-4.8-7.48-13.25-22-8.7Zm13 23.4c-3.39 0-11.1-1.71-14.84-8.7H12c1.29 4.8 7.48 13.25 22 8.7Z" fill="#4D4D4F"/></svg>