<?xml version='1.0' encoding='utf-8'?>
<!-- by TradeStack -->
<svg width="56" height="56" viewBox="0 0 56 56" xmlns="http://www.w3.org/2000/svg"><path fill="#F0F3FA" d="M0 0h56v56H0z" /><path d="M6 30h2.23c1.01 0 1.76.64 1.76 1.57 0 .67-.43 1.18-1.05 1.42L10 35H8.9l-.93-1.87H7V35H6v-5Zm1 .82v1.53h1.14c.48 0 .86-.3.86-.79 0-.45-.37-.74-.86-.74H7ZM31 30h2.23c1.01 0 1.76.64 1.76 1.57 0 .67-.43 1.18-1.05 1.42L35 35h-1.1l-.93-1.87H32V35h-1v-5Zm1 .82v1.53h1.14c.48 0 .86-.3.86-.79 0-.45-.37-.74-.86-.74H32ZM11 30h3v.82h-2V32h2V32.82h-2v1.36h2V35h-3v-5ZM42 30h3v.82h-2V32h2V32.82h-2v1.36h2V35h-3v-5ZM18.12 31.36a1.28 1.28 0 0 0-1.06-.54c-.49 0-.85.2-.85.54 0 .38.52.52 1.17.77.93.35 1.62.64 1.62 1.49 0 .73-.72 1.38-1.98 1.38-.83 0-1.62-.33-2.02-.95l.8-.52c.26.4.7.65 1.23.65.56 0 .97-.25.97-.54 0-.42-.52-.52-1.3-.82-.78-.3-1.54-.58-1.54-1.44 0-.79.81-1.38 1.91-1.38.73 0 1.44.28 1.83.86l-.78.5ZM28 35c-1.17 0-2-.84-2-1.91V30h1v3.03c0 .62.36 1.1 1 1.1s1-.48 1-1.1V30h1v3.09c0 1.07-.83 1.91-2 1.91ZM41 33.88A2.72 2.72 0 0 1 38.75 35C37.18 35 36 33.91 36 32.5s1.16-2.5 2.74-2.5c1.02 0 1.8.44 2.22 1.08l-.73.55a1.8 1.8 0 0 0-1.5-.76c-1 0-1.73.7-1.73 1.63 0 .93.75 1.63 1.73 1.63.68 0 1.18-.3 1.53-.79l.74.54ZM49.12 31.36a1.28 1.28 0 0 0-1.06-.54c-.49 0-.85.2-.85.54 0 .38.52.52 1.17.77.93.35 1.62.64 1.62 1.49 0 .73-.72 1.38-1.98 1.38-.83 0-1.62-.33-2.02-.95l.8-.52c.26.4.7.65 1.23.65.56 0 .97-.25.97-.54 0-.42-.52-.52-1.3-.82-.78-.3-1.54-.58-1.54-1.44 0-.79.81-1.38 1.91-1.38.73 0 1.44.28 1.83.86l-.78.5Z" fill="#D0A020" /><path d="M7.6 29H6l3.23-8h1.55L14 29h-1.58l-.79-1.96H8.38L7.59 29Zm2.4-6.34-1.14 3.07h2.29L10 22.66ZM18 29c-1.76 0-3-1.35-3-3.06V21h1.5v4.84c0 1 .54 1.77 1.5 1.77s1.5-.77 1.5-1.77V21H21v4.94c0 1.7-1.24 3.06-3 3.06ZM31 29v-8h1.5v8H31ZM41 27.2a3.68 3.68 0 0 1-3.15 1.8A3.85 3.85 0 0 1 34 25c0-2.26 1.62-4 3.84-4 1.43 0 2.52.7 3.1 1.72l-1.02 1.23a2.44 2.44 0 0 0-2.1-1.23c-1.4 0-2.32.8-2.32 2.28 0 1.48.95 2.5 2.32 2.5.95 0 1.66-.5 2.14-1.26l1.04.96Z" fill="silver" /><path fill-rule="evenodd" d="M50 25c0-2.26-1.72-4-4-4-2.28 0-4 1.74-4 4s1.72 4 4 4c2.28 0 4-1.74 4-4Zm-4-2.5a2.46 2.46 0 0 0-2.5 2.5c0 1.42 1.09 2.5 2.5 2.5s2.5-1.08 2.5-2.5-1.09-2.5-2.5-2.5Z" fill="silver" /><path d="M26.08 21c-.41.14-1.19.57-2.23 1.61a.22.22 0 0 0-.12-.04c-.12 0-.22.1-.22.23 0 .05.01.1.04.13A7 7 0 0 0 22 25.2c-.03.08.06.13.12.07l1.79-1.84 2.05 2.1L24.54 27c-.35-.03-.85.03-1.47.46a.14.14 0 0 0-.01.21l1.3 1.3c.06.06.15.05.2-.02.2-.3.44-.85.39-1.5l1.45-1.47 2.82 2.9.43-.43-2.83-2.9 1-1.01.6.6 1.31-1.32c.19-.26.46-.96.08-1.74a2.4 2.4 0 0 0-1.15-.26c-.25 0-.56.3-.82.55l-.1.1c-.12.1-.32.32-.52.54l-.44.47.62.63-1 1-2.06-2.1 1.8-1.87c.07-.06.02-.15-.06-.13Zm-1.75 7.6-.91-.93c.54-.43.94-.35 1.14-.3h.02a1.5 1.5 0 0 1-.25 1.22Z" fill="#D0A020" /><path fill-rule="evenodd" d="M25 32.5c0-1.41-1.07-2.5-2.5-2.5a2.45 2.45 0 0 0-2.5 2.5c0 1.41 1.07 2.5 2.5 2.5s2.5-1.09 2.5-2.5Zm-1 0c0-.85-.64-1.5-1.5-1.5s-1.5.65-1.5 1.5.64 1.5 1.5 1.5 1.5-.65 1.5-1.5Z" fill="#D0A020" /></svg>