<?xml version='1.0' encoding='utf-8'?>
<!-- by TradeStack -->
<svg width="56" height="56" viewBox="0 0 56 56" xmlns="http://www.w3.org/2000/svg"><path fill="#F0F3FA" d="M0 0h56v56H0z" /><path fill-rule="evenodd" d="m17.61 29.36 1.4 12.93 8.97 4.06 9.05-4.06 1.36-12.93L27.95 8.35 17.61 29.36Zm-.61-.1 1.44 13.42L27.98 47l9.61-4.32L39 29.25 27.95 7 17 29.25Z" fill="#C7C7C7" /><path d="m27.9 14.37-.8-.5v-.52l.45-.33h.44l-.09 1.35Zm-2.1.79-.46-.3.63-1.13.87.3.06.28-1.1.85Zm-.5 1.58.48-.78 1.24 1-1.16.36-.56-.58Zm-1.37 2.07.71-1.01.45.47.07.95h-.93l-.3-.4Zm2.01-3.14.89.66h.46v-.89l-.67-.53-.68.76Zm1.18 1.46.63-.68h.6l.57.68.08.3-.89.82-.58-.1-.5-.5.09-.52Z" fill="#80BF1F" /><path d="m29.27 13.96-.1.44.82.74.7-.34-.55-.91-.87.07Zm-1.23 1.87.08-1.26.2.03.9.92-.67-.1-.28.46-.23-.05Zm.08.25-.12.41.72.55.08-.43-.68-.53Zm1.82 1.21L29.1 17l.27-.5.76-.56.56.56v.44l-.76.35Zm-1.91 2.81-.07-1.35.41.41.21-.72h.45l1 .72-.9.79-.5-.43-.2.62-.4-.04Zm-4.33-.08.45-.35h1l.07.66-.55.58-.97-.89Zm7.02-1.68-.06.81h1.26l.04-.9-.66-.55-.58.64ZM25.5 24.6l-.15-.59.45-.6 1.04.83-.14.26-1.2.1Zm.78-2-.35.49.8.7.56.06.11-.87-.52-.66-.6.27Zm1.76.73-.06-1.38h.4l.34.34-.48 1.04h-.2Zm5.39-1.54-.6-.75.06-.62c.1.02.33.05.47.09.14.03.4.48.5.7l-.43.58ZM28 25.64c.5 0 .91-.4.91-.9s-.4-.9-.91-.9a.9.9 0 0 0-.91.9c0 .5.4.9.91.9Zm-6.08 3.4.56.65.08-1.39-.15-.25-.5.2v.8Zm-.06-1.7.26.42h.36l.92-.5-.83-.86-.45.06-.26.89Zm2.38.85-.52-.72.59-.47h.88v.81l-.48.38h-.47Zm-.1-1.52.05-.65.4-.6.26-.05.32.88-.06.5-.96-.08Z" fill="#40A653" /><path d="m31.56 21.79-.18-.19.3-.46.56-.28.35.28.13.46-.13.41-1.03-.22Zm-1.97 3.03-.38-.66.75-.7.68.57v.54l-1.05.25Zm1.6-2.15.69.66h.37l.29-.36.11-.62h-.77l-.69.32Zm1.95-.13-.3.86.37.57.83-.14.06-.62-.47-.5-.5-.17Zm-.37 2.1.53-.43h.8l.07.65-.44.43-.72-.3-.24-.35ZM30.8 26.2v.51c.11.07.36.2.4.2.06 0 .63-.24.72-.29.07-.03-.03-.47-.09-.68l-.4-.57-.63.83Zm1.87 1.06.52-.57.43-.16.52.39v.73l-.73.25-.74-.64Zm-4.73-.07.22.16.58-1.27-.58-.2-.22.48v.83Zm.59.5.55.11.88-.72-.2-.51-.53-.26-.58.58-.12.8Zm-1.73 1.5v.47c-.18.13-.56.4-.64.4h-.39l-.42-.51.25-.57.56-.06.64.28Zm1.2 1.11.45-.06.15.98-.22.41H28V30.3Zm-4.78-1.17-.08.6.22.23c.18-.04.56-.12.64-.15.07-.03.38-.46.53-.68l-.42-.48-.5-.13-.4.61Zm-2.15 1.68c-.09.02-.56.1-.79.12l-.4-.12v-.65c.03-.11.13-.34.22-.36a11 11 0 0 1 .44-.07c.18.09.53.27.53.34s.1.23.14.3l-.14.44Zm-2.44 3.29.34.37c.13 0 .4-.02.47-.09.07-.07.16-.52.2-.74l-.2-.38h-.6l-.21.38v.46Zm3.37-1.86-.26-.17-.57.17-.63.55.48.55.54.08.44-.5v-.68Zm2.42-1.04-.66.31v.23l.4.45.57.14.44-.3v-.62l-.75-.21Zm-5.6 4.44.08 1.2h.38l.34-.3-.25-.7-.55-.2Zm2.45 1.85-.84-.57v-.34l.59-.34.53-.3.67.98-.5.43-.45.14Zm9.51-8.68.3.2.32-.26-.31-.22-.3.28ZM23.34 31c0 .48-.39.86-.87.86a.86.86 0 0 1-.86-.85c0-.47.39-.85.86-.85.48 0 .87.38.87.85Zm4.7-1.52c.49 0 .87-.38.87-.85a.86.86 0 0 0-.86-.85.86.86 0 0 0-.87.85c0 .47.39.85.87.85Z" fill="#CCE312" /><path d="m30.38 23.3-.28-.28.28-.18.21.18-.21.28Zm-9.57 1.8-.59.68.13.1c.19.06.6.16.83.16.29 0 .6-.18.64-.26a2.3 2.3 0 0 0-.03-.54l-.4-.45-.58.31Zm.3 1.2-.98.35.41.6c.22.09.67.25.7.25.06 0 .52-.7.52-.75a3 3 0 0 0-.1-.36l-.55-.08Zm-1.43.96.85.18.42.35v.36l-.58.55-.59-.31c-.03-.03-.2-.34-.27-.5l.17-.63Zm4.64 2.65-.5.62c.16.14.52.4.63.4.1 0 .47-.1.64-.16l.14-.7-.44-.33-.47.17Zm.37-1.1.17-.3.32.1v.2l-.2.16-.3-.15Zm.28 3.82-.2.24.2.17.27-.06v-.26l-.27-.1Zm-1.37 2.36-.2-.23.14-.32.26.08v.36l-.2.1Zm3.24-9.2.12.28.32-.02v-.36c0-.02-.21-.1-.32-.14l-.12.24Zm.7 12.57.38-.75h.17v1.37l-.17.16c-.1-.05-.3-.15-.37-.16-.07-.01-.11-.15-.12-.22l.12-.4Zm1.05-.97.33.82.24.46.56-.24c.07-.1.2-.35.19-.41-.01-.08-.24-.47-.37-.51-.1-.04-.5-.13-.68-.17l-.27.05Z" fill="#F9A721" /><path d="m22.3 20.74.94-.4a19.4 19.4 0 0 1-.26 1.09c-.03.06-.32.33-.42.33-.07 0-.29-.14-.39-.2l-.18-.37.32-.45Zm1.37 1.42.71.1.47.17c.04.02-.16.4-.23.46-.06.06-.69.47-.87.47-.16.01-.27-.07-.32-.1a5.4 5.4 0 0 1-.15-.75l.39-.35ZM25 23.3l-.62.2c-.13.16-.39.5-.42.51l-.17.26.46.5h.66l.28-.76-.2-.71Zm2.39 3.46-.62-.39-.48.18-.38.4c.29.25.86.76.86.78 0 .02.36-.23.54-.35l.08-.62Zm1.7-1.38.75.63.4-.06.33-.46c-.05-.16-.19-.49-.25-.5h-.88l-.35.4Zm.1 4.56c-.05-.05-.44.02-.63.06l-.08.74c.08.1.26.34.36.42.12.11.6.02.66 0 .05-.01.28-.41.4-.61-.22-.19-.67-.56-.71-.61Zm-5.95 2.2.9.17.26.57-.57.6-.53-.17-.3-.33.24-.85Zm4.85.9v-1.22l.45.2.27.52c.01.04-.17.18-.27.24l-.45.26Zm-.06.45v1.42l.36-.4.19-.67-.15-.29-.4-.06ZM21.25 41l-.68-.34v-.4c.15-.11.45-.35.49-.36.03-.02.3-.06.44-.08l.24.89-.12.4-.37-.1Zm.94-1.98-.36-.34.12-.54.24-.36.79.45c.08.15.24.49.2.57-.05.08-.37.18-.53.22h-.46Zm2.12-1.14.3.37c.1.03.33.1.38.09.06 0 .27-.34.27-.46 0-.1-.04-.42-.06-.57l-.4-.46-.49.46v.57Zm-.99 3.4-.1-.72.4-.57c.13-.04.4-.1.43-.05l.36.4v.44c0 .07-.4.35-.46.36-.05 0-.44.1-.63.13Zm2.16-1.88.08.54c.3 0 .93-.01.97-.05l.31-.33-.22-.4c-.02-.03-.27-.15-.47-.24a5.3 5.3 0 0 1-.26-.13c-.03-.02-.14.07-.2.12-.07.14-.2.43-.2.49Zm.74-1-.15-.44c.1-.08.29-.27.32-.3.04-.04.36-.3.48-.3h.4l.16.3-.27.91a7.6 7.6 0 0 1-.5.12c-.04 0-.3-.19-.44-.28Zm7.24-4.13-.72.21.15.47a4 4 0 0 0 .4.48l.48.05c.17-.14.53-.43.6-.53.06-.1-.1-.36-.18-.47l-.73-.21ZM35.44 36l-.49-.49.35-.24c.13-.05.4-.16.44-.15.04 0 .36.26.52.39l-.23.54-.59-.05Zm-1.46.65.12.51c.04.13.12.38.18.4.08.03.8-.27.89-.31.06-.04.24-.41.32-.6l-.71-.67-.5.1c-.05.02-.22.39-.3.57Zm2.7-2.16a7.42 7.42 0 0 1-.37-.69c0-.04.08-.23.13-.32l.4-.18.57.18c.02 0 0 .34 0 .52-.08.16-.26.5-.35.5h-.37Zm-.11-1.92.35.3c.15-.01.47-.05.53-.09.08-.04.13-.34.13-.4 0-.04-.11-.45-.17-.64l-.4-.19-.18.19c-.09.15-.26.46-.26.49v.34Zm.46-1.85-.43-.34-.11-.46c0-.03.15-.3.24-.43h.49c.02 0 .33.35.32.43a3.7 3.7 0 0 1-.32.65l-.2.15Zm-.7-1.86.58.11c.18-.05.54-.18.54-.24s-.18-.44-.26-.6l-.03-.07-.3-.23-.36.55-.17.48Zm-3.92-.6c-.02-.18-.06-.57 0-.57.07 0 .39.05.54.08-.05.13-.15.38-.19.43-.03.06-.25.07-.35.07ZM30.2 34.3c-.06 0-.03.38 0 .57.1 0 .31-.01.35-.06.04-.05.14-.31.18-.43a6.77 6.77 0 0 0-.53-.08ZM28 37.17c.5 0 .91-.4.91-.9s-.4-.9-.91-.9a.9.9 0 0 0-.91.9c0 .5.4.9.91.9Z" fill="#154A21" /><path d="M34.99 27.81v.42l.62.34.41-.29.35-.79c-.05-.1-.14-.3-.19-.3-.04 0-.57.16-.83.23l-.36.39Zm-5.67.63-.15-.24.44-.44c.15-.08.47-.26.5-.26.06 0 .45.34.45.41v.6l-.64.16-.6-.23Zm-.16 1.05.6.52.56.06.27-.58-.39-.46h-.98l-.14.3.08.16Zm.7 2.77-.68-.3v-.24c.15-.18.47-.53.5-.53h.47c.1.16.32.49.33.53 0 .03-.14.28-.21.4l-.42.14Zm-2.57.32.61.4h.19v-1.2h-.19l-.48.2c-.11.04-.17.17-.21.26a.37.37 0 0 1-.04.07c-.03.03.07.2.12.27Zm-1.6 1.15-.26-.37v-.53l.4-.27c.2.06.62.18.66.18.03.01.12.3.16.44-.16.16-.5.5-.58.55-.08.05-.29.02-.38 0Zm-1.12 2.34a7.03 7.03 0 0 1-.51-.83l.21-.5.47-.1c.15.05.43.18.43.25 0 .08-.21.71-.32 1.02l-.28.16Zm.78-.6c.13.14.4.4.42.44.04.05.3.08.42.08.1 0 .43-.16.6-.24-.02-.13-.08-.4-.17-.44-.08-.04-.5-.34-.7-.49l-.44.28-.13.38Zm1.53-.45-.73-.35v-.33c.08-.12.24-.35.3-.38l.53-.26.2.4.14.7v.22h-.44Zm.5-1.24c.06-.08.2-.25.25-.26h.4v1.44l-.3-.14-.18-.56-.17-.48Zm1.15 1.01c.06.18.16.34.2.4.2-.06.63-.2.72-.25.1-.04.23-.3.29-.42a3.72 3.72 0 0 0-.08-.47 3.03 3.03 0 0 0-.49-.31l-.57.44c-.05.03-.14.4-.07.61Zm.76-1.68.63.58.36-.08.23-.31-.11-.46-.48-.12-.57.04-.06.35Zm1.49-2.78.34.45h.56l.45-.17-.35-.63-.5-.25-.28.15-.22.45Zm.81-.86-.09-.34.26-.36.51-.16.37.37.1.49-.16.4-.4-.12-.59-.28Zm3.49 1.7-.61.35.3.46c.17.08.54.25.64.35.1.1.27-.04.35-.13l.27-.68-.27-.34h-.68Zm-1.7 1.29.12.69-.21.49-.46-.06v-.6c0-.09.36-.39.54-.52Zm.64.4-.11-.71h.24l.67.24.4.48-.3.49h-.46l-.44-.5Zm-3.27 2.18v.39l.39.47c.07.03.24.1.27.1.04 0 .26-.31.36-.46l.16-.62a6.52 6.52 0 0 0-.6-.24c-.04 0-.43.05-.46.09-.03.02-.1.19-.12.27Zm1.24.7.55-.48.45.34.36.3-.07.27c-.16.07-.48.22-.53.22-.08 0-.5-.04-.54-.07a5.86 5.86 0 0 1-.22-.15v-.44Zm.51 1.09-.5.3v.38l.3.34.62-.08.29-.4c.02-.04 0-.4-.04-.42-.04-.02-.46-.09-.67-.12Zm-3.07.23-.1-.45.4-.3h.36c.16.1.47.3.5.3.01 0-.1.59-.13.65-.02.05-.3.13-.43.17l-.6-.37Zm-5.65 2.07.34.39c.12.1.39.3.45.3s.3-.28.41-.41v-.37l-.41-.2h-.54l-.25.29Z" fill="#257F2D" /><path d="M28.06 37.61V39l.3.07c.06-.03.2-.1.22-.13.02-.03 0-.48 0-.7l-.22-.32-.3-.3Zm-8.6 1.71.44.66h.46l.5-.74-.1-.42h-.57l-.74.5Zm3.03.12v1.5l-.34-.34-.27-.42v-.34l.27-.3.34-.1Zm2.6 1.12a1.6 1.6 0 0 1-.43-.2l.14-.46h.39l.16.39c0 .05-.2.25-.26.27Zm-1.69 1.76c0 .5-.41.9-.91.9a.9.9 0 0 1-.92-.9c0-.5.41-.9.92-.9.5 0 .91.4.91.9Zm4.66-1.12c.5 0 .92-.4.92-.9s-.41-.9-.92-.9a.9.9 0 0 0-.91.9c0 .5.4.9.91.9Z" fill="#490D7A" /></svg>