<!-- by TradeStack --><svg width="56" height="56" viewBox="0 0 56 56" xmlns="http://www.w3.org/2000/svg"><path fill="#F0F3FA" d="M0 0h56v56H0z"/><path d="m33.44 38.7.56.63c-.46.45-1 .67-1.62.67-1.35 0-2.38-1.19-2.38-2.5 0-1.32 1.03-2.5 2.38-2.5.63 0 1.17.22 1.62.66l-.57.64c-.3-.29-.65-.3-1.05-.3-.88 0-1.38.64-1.38 1.5 0 .85.5 1.5 1.38 1.5.4 0 .76-.02 1.06-.3ZM23 40h-1v-5h1v5Zm23.77-9.73c.6.21 1.23.6 1.23 1.32 0 1.1-1.13 1.41-2.04 1.41-.7 0-1.35-.18-1.96-.53l.45-.7c.53.29 1.05.43 1.55.43.72 0 1-.19 1-.57 0-.36-.33-.53-.63-.63-.33-.13-.68-.22-1.03-.34-.11-.04-.27-.1-.45-.19-.46-.23-.89-.62-.89-1.15C44 28.3 45.22 28 46.05 28c.62 0 1.24.18 1.85.53l-.43.69c-.51-.29-1-.43-1.46-.43-.65 0-1 .19-1 .5 0 .39.48.56.79.67.32.1.65.19.97.3ZM31 28h1v2.72c0 1.34-.98 2.28-2 2.28s-2-.94-2-2.28V28h1v2.72c0 .81.38 1.28 1 1.28.61 0 1-.47 1-1.28V28Zm-14 1h-3v1h2.47v1H14v1h3v1h-4v-5h4v1Zm26 0h-3v1h2.47v1H40v1h3v1h-4v-5h4v1Zm-32.2-1H12l-1.99 5H9l-2-5h1.15l1.35 3.65L10.8 28Zm32.82-4.72L45 25h-1.16l-1.24-1.55H41V25h-1v-5h2.81c.96 0 1.88.73 1.88 1.73 0 .69-.45 1.28-1.07 1.55Zm-.84-.78c.47 0 .92-.27.92-.77 0-.49-.45-.73-.92-.73H41v1.5h1.78Zm-6.16 8.78L38 33h-1.16l-1.24-1.55H34V33h-1v-5h2.81c.96 0 1.88.73 1.88 1.73 0 .69-.45 1.28-1.07 1.55Zm-.84-.78c.47 0 .92-.27.92-.77 0-.49-.45-.73-.92-.73H34v1.5h1.78ZM29.5 20h4v1H32v4h-1v-4h-1.5v-1Zm-6 8h4v1H26v4h-1v-4h-1.5v-1Zm5.5-3h-1v-5h1v5Zm-2-5v5h-.74L23 21.57V25h-1v-5h.74L26 23.43V20h1Zm-4 8v5h-.74L19 29.57V33h-1v-5h.74L22 31.43V28h1Zm6 7v5h-.74L25 36.57V40h-1v-5h.74L28 38.43V35h1Z"/><path fill-rule="evenodd" d="M21 22.5c0-1.37-1.14-2.5-2.5-2.5a2.52 2.52 0 0 0-2.5 2.5c0 1.36 1.13 2.5 2.5 2.5 1.36 0 2.5-1.14 2.5-2.5Zm-1 0c0-.82-.69-1.5-1.5-1.5-.82 0-1.5.68-1.5 1.5s.68 1.5 1.5 1.5 1.5-.68 1.5-1.5Zm19 0c0-1.37-1.14-2.5-2.5-2.5a2.52 2.52 0 0 0-2.5 2.5c0 1.36 1.13 2.5 2.5 2.5 1.36 0 2.5-1.14 2.5-2.5Zm-1 0c0-.82-.69-1.5-1.5-1.5-.82 0-1.5.68-1.5 1.5s.68 1.5 1.5 1.5 1.5-.68 1.5-1.5Z"/><path d="M15 20v5h-1v-3l-1.25 1.88h-.5L11 22v3h-1v-5h.66l1.84 2.82L14.35 20H15Z"/></svg>