<!-- by TradeStack --><svg width="56" height="56" viewBox="0 0 56 56" xmlns="http://www.w3.org/2000/svg"><path fill="#F0F3FA" d="M0 0h56v56H0z"/><path fill-rule="evenodd" d="m14.32 34 2.12-12h4.96c1.1-.04 3.25.31 3.17 2.13l-1.2 7.76c-.19.7-1.12 2.11-3.33 2.11h-5.72Zm3.96-2 1.37-8h.7c.23.1.65.42.57.87l-1.27 6.72c-.03.14-.2.41-.6.41h-.77ZM4 34h3.83l.63-2h1.78l-.13 2H14V22H8.1L4 34Zm6.36-4 .3-5.02L9.1 30h1.27ZM25 22v12h6.51l4.03-12H31.5l-2.7 7.8.3-7.8H25Zm9.12 12h3.71l.88-5h2.24l.5-2h-2.38l.52-3h2.55l.37-2H36.2l-2.08 12Zm7.35 0 2.06-12h3.15l.99 5.06h.3l.86-5.06H52l-2.03 12H46.5l-.89-5.03h-.27l-.8 5.03h-3.07Z"/></svg>