<!-- by TradeStack --><svg width="56" height="56" viewBox="0 0 56 56" xmlns="http://www.w3.org/2000/svg"><path fill="#F0F3FA" d="M0 0h56v56H0z"/><path d="M27.13 17.37s-.76.7-.38 1.73c.38 1.08-1.21.9-.8 2.26.42 1.36 1.17 1.55 1.17 1.55v1.08l-1.2 1.31.54.47s-.82.73-.82 1.55c0 .99 1.18 1.18 1.18 1.18s-.72 7.13-3.14 10.6c-.84 1.23.5.67.5.67s-.63.75-.59 1.03c.04.28-.67-.1-.58.47.04.61.99.8.99.8V47c1.3-1.08 2.46-1.27 4-1.32 2.91.1 4 1.32 4 1.32v-4.93s.96-.19 1-.8c.04-.61-.63-.24-.59-.47.05-.28-.6-1.03-.6-1.03s1.36.56.52-.66c-2.42-3.48-3.15-10.61-3.15-10.61s1.18-.2 1.18-1.18c0-.82-.81-1.55-.81-1.55l.54-.47L28.9 24V22.9s.74-.2 1.16-1.55c.42-1.36-1.17-1.18-.8-2.26.38-1.08-.37-1.73-.37-1.73L28 6l-.87 11.37Z" fill="#BCBC7F"/></svg>