<!-- by TradeStack --><svg viewBox="0 0 56 56" xmlns="http://www.w3.org/2000/svg"><path fill="#0E3725" d="M0 0h56v56H0z"/><path d="M15.43 33.74c4.5-6.73 8.95-13.5 13.4-20.28l.95-1.46 2.33 3.59 1.6 2.44a.3.3 0 0 1-.03.4L23.56 33.8A12.61 12.61 0 0 1 12.9 39h-.78c-.47 0-.95 0-1.43-.03h-.5c-.25 0-.52 0-.77-.04l-.38-.01c-.35 0-.7-.01-1.04-.06l.4-.07a9.04 9.04 0 0 0 5.33-2.77c.55-.57 1-1.23 1.44-1.9l.26-.38Zm21.3-11.2a321.58 321.58 0 0 0 1.73 2.62c.17.26.35.52.49.8-.16.27-.34.53-.52.78l-.3.46-4.8 7.07a10.84 10.84 0 0 1-4.38 3.55A12.97 12.97 0 0 1 23.08 39c-.42 0-.85 0-1.28-.02-.39-.01-.78-.03-1.18-.02-.34-.04-.69-.04-1.03-.05-.46 0-.91 0-1.37-.09a9.39 9.39 0 0 0 4.31-1.62c1.15-.86 2.05-2 2.81-3.19l4.83-7.25 4.7-7.05 1.86 2.82Zm3.33 4.89h-.12c-.81 1.23-1.64 2.43-2.47 3.64L36.1 33.1l-.52.75c-.68.98-1.35 1.97-2.25 2.77a8.85 8.85 0 0 1-5.08 2.25c1.7.14 3.4.14 5.1.14h.52c1.15.02 2.28-.18 3.38-.48 2.05-.6 3.96-1.71 5.38-3.26.35-.37.65-.79.94-1.2l.44-.62a459.3 459.3 0 0 0-1.72-2.62c-.74-1.13-1.49-2.25-2.22-3.4Z" fill="#fff"/></svg>