<?xml version='1.0' encoding='utf-8'?>
<!-- by TradeStack -->
<svg width="56" height="56" viewBox="0 0 56 56" xmlns="http://www.w3.org/2000/svg"><path fill="url(#a)" d="M0 0h56v56H0z" /><path d="M6.44 25 4 30h1.27l.3-.63h1.87l.3.63H9l-2.44-5h-.12Zm.63 3.48H5.95l.56-1.16.56 1.16ZM19 25v5h4v-1h-2.5v-4H19Zm15.89 5-3.39-2.56V30H30v-5h.12l3.38 2.61V25H35v5h-.11ZM36 27.51c0 1.58 1.5 2.49 2.93 2.49.82 0 1.5-.25 2.07-.74l-.64-.79c-.5.35-.98.53-1.44.53-.83 0-1.42-.62-1.42-1.49S38.09 26 38.92 26c.45 0 .94.15 1.32.43l.65-.78c-.5-.42-1.2-.65-1.95-.65-1.46 0-2.94.92-2.94 2.51ZM42 30v-5h1.5v2h2v-2H47v5h-1.5v-2h-2v2H42Zm6 0v-5h4v1h-2.5v1h2.09v1H49.5v1H52v1h-4Zm-37.03 0L8.5 25h1.3l1.2 2.48L12.19 25h1.32l-2.45 5h-.1ZM24 30l2.44-5h.12L29 30h-1.26l-.3-.63h-1.87l-.3.63H24Zm1.95-1.52h1.12l-.56-1.16-.56 1.16ZM15.44 25 13 30h1.27l.3-.63h1.87l.3.63H18l-2.44-5h-.12Zm.63 3.48h-1.12l.56-1.16.56 1.16Z" fill="#fff" /><defs><linearGradient id="a" x1="28" y1="0" x2="28" y2="56" gradientUnits="userSpaceOnUse"><stop stop-color="#344A9F" /><stop offset="1" stop-color="#7190C9" /></linearGradient></defs></svg>