<!-- by TradeStack --><svg width="56" height="56" viewBox="0 0 56 56" xmlns="http://www.w3.org/2000/svg"><path fill="#F0F3FA" d="M0 0h56v56H0z"/><path d="M37 33V23h3.84c2.18 0 3.16 1.3 3.16 3.5 0 2.35-.95 3.5-2.81 3.5H39.5v3H37Zm2.5-5.5h.42c.88 0 1.45-.2 1.45-1.25 0-1.02-.57-1.25-1.45-1.25h-.42v2.5ZM23.5 25v2.2h.5c.83 0 1.5-.2 1.5-1.09 0-.9-.68-1.11-1.5-1.11h-.5ZM21 33V23h4.15c1.76 0 2.85.8 2.85 2.74 0 1.42-.78 2.3-1.92 2.62.92.16 1.33.72 1.51 1.97L28 33h-2.7l-.2-1.86c-.12-1.1-.16-1.54-.98-1.54h-.52V33H21ZM14.43 33 12 23h2.8l1.2 6.8 1.37-6.8H20l-2.43 10h-3.14ZM7.26 31l-.45 2H4l2.58-10h3.85L13 33h-2.9l-.47-2H7.26Zm.42-2.54h1.66L8.5 25l-.82 3.46ZM46.26 31l-.45 2H43l2.58-10h3.85L52 33h-2.9l-.47-2h-2.37Zm.42-2.54h1.66L47.5 25l-.82 3.46ZM31.5 27.5V23H29v5.57c0 2.97 1.15 4.43 3.52 4.43C34.9 33 36 31.62 36 28.68V23h-2.55v4.45c.33.36.55.92.55 1.55 0 1.1-.67 2-1.5 2s-1.5-.9-1.5-2c0-.6.2-1.12.5-1.5Z" fill="#787E9E"/><ellipse cx="32.5" cy="29.04" rx="1.11" ry="1.47" fill="#F47123"/><ellipse cx="32.5" cy="29.04" rx=".62" ry=".85" fill="#FEB818"/></svg>