<?xml version='1.0' encoding='utf-8'?>
<!-- by TradeStack -->
<svg width="56" height="56" viewBox="0 0 56 56" xmlns="http://www.w3.org/2000/svg"><path fill="#F0F3FA" d="M0 0h56v56H0z" /><path fill-rule="evenodd" d="M45.93 26.27c.85 9.34-6.48 17.68-16.39 18.64-9.9.96-18.62-5.84-19.47-15.18-.85-9.34 6.48-17.68 16.39-18.64 9.9-.96 18.62 5.84 19.47 15.18Zm-16.62-13c3.57-.09 11.17 1.75 12.93 9.8 2.2 10.07-5.47 18.94-14.34 18.77-8.87-.17-13.47-4.86-14.17-12.75-.7-7.9 6.17-15.82 15.58-15.82Zm-.06.74c3.39-.08 10.59 1.66 12.25 9.3 2.09 9.54-5.18 17.95-13.59 17.79-8.4-.17-12.77-4.61-13.44-12.1-.66-7.47 5.86-15 14.78-15Zm-2.65 7.38c-.35.08-.69.15-1.03.24-.65.47-1.29 1-1.92 1.57-3.77 3.48-5.81 7.78-5.34 10.72 2.57 1.33 6.59 1.73 10.89.85l.2-.04c.85-.58 1.7-1.25 2.53-2 3.72-3.43 5.75-7.65 5.37-10.58-2.58-1.26-6.5-1.62-10.7-.76Z" fill="#F7A600" /><path fill-rule="evenodd" d="M29.54 44.91c9.9-.96 17.24-9.3 16.4-18.64-.86-9.34-9.58-16.14-19.48-15.18-9.9.96-17.24 9.3-16.4 18.64.86 9.34 9.58 16.14 19.48 15.18Zm-.07-1.87c9.41-.86 16.39-8.28 15.58-16.58-.81-8.3-9.1-14.35-18.52-13.5-9.41.86-16.39 8.28-15.58 16.58.81 8.3 9.1 14.35 18.52 13.5Z" fill="#B52E04" /><path fill-rule="evenodd" d="M40.97 29.92a13.15 13.15 0 0 0-10.1-15.65c-6.74-1.5-13.5 3.44-15.1 11.02-1.58 7.58 2.6 14.94 9.35 16.44 6.75 1.5 14.26-4.23 15.85-11.8Zm-1.59.6c1.48-7.05-2.41-13.91-8.7-15.3-6.29-1.4-11.72 2.9-13.2 9.96-1.48 7.06 1.55 14.2 7.84 15.6 6.29 1.4 12.58-3.2 14.06-10.25Z" fill="#EA5B06" /><path d="M37.3 22.15c-.1-.82-.4-1.54-.9-2.11-1.99-2.28-6.55-1.52-10.83 1.59.34-.09.68-.16 1.03-.24 4.2-.86 8.12-.5 10.7.76Zm-7.9 12.58-.2.04c-4.3.88-8.32.48-10.9-.85.13.76.42 1.43.89 1.97 1.89 2.17 6.11 1.58 10.2-1.16Z" fill="#F39100" /><path d="M37.3 22.15c.38 2.93-1.65 7.15-5.37 10.57-.82.76-1.68 1.43-2.54 2 6.75-1.44 11.62-5.53 10.9-9.19-.27-1.43-1.36-2.58-3-3.38Zm-19 11.77c-.46-2.94 1.58-7.24 5.35-10.72.63-.57 1.27-1.1 1.92-1.57-6.3 1.59-10.76 5.5-10.07 9 .26 1.38 1.28 2.5 2.8 3.29Z" fill="#FDDD80" /></svg>