<?xml version='1.0' encoding='utf-8'?>
<!-- by TradeStack -->
<svg width="56" height="56" viewBox="0 0 56 56" xmlns="http://www.w3.org/2000/svg"><path fill="#F0F3FA" d="M0 0h56v56H0z" /><path d="M23.16 37h-.86l-4.1 3.44.78.66 4.18-4.1ZM24.38 38.2l-.46-.37-3.6 4.07.84.54 3.22-4.24ZM21.87 42.02l-.4.5c2.04 1.07 5.03 1.43 6.28 1.48v-.66a14 14 0 0 1-5.88-1.32ZM24.63 38.37l-.4.48a8.22 8.22 0 0 0 3.5 1.15v-.66a5.98 5.98 0 0 1-3.1-.97ZM15.66 37H15c.8 1.25 2.26 2.75 2.89 3.32.06-.06.24-.23.5-.44A36.55 36.55 0 0 1 15.67 37ZM17.46 37h-.76a14.9 14.9 0 0 0 2.24 2.49l.47-.4c-.54-.41-1.47-1.56-1.95-2.09ZM32.84 37h.86l4.1 3.44-.78.66-4.18-4.1ZM31.62 38.2l.46-.37 3.6 4.07-.84.54-3.22-4.24ZM34.13 42.02l.4.5c-2.04 1.07-5.03 1.43-6.28 1.48v-.66a14 14 0 0 0 5.88-1.32ZM31.37 38.37l.4.48a8.22 8.22 0 0 1-3.5 1.15v-.66c1.37 0 2.64-.65 3.1-.97ZM40.34 37H41a19.52 19.52 0 0 1-2.89 3.32 9.4 9.4 0 0 0-.5-.44c.68-.57 2.1-2.17 2.73-2.88ZM38.6 37h.75c-.61.93-1.8 2.06-2.29 2.49l-.47-.4c.54-.41 1.52-1.56 2-2.09ZM22 21l.47 1.15H24l-1.24.7.48 1.15-1.24-.7-1.24.7.48-1.15-1.24-.7h1.53L22 21ZM27.5 21l.59 1.15H30l-1.55.7.6 1.15-1.55-.7-1.55.7.6-1.15-1.55-.7h1.91L27.5 21ZM33 21l.47 1.15H35l-1.24.7.48 1.15-1.24-.7-1.24.7.48-1.15-1.24-.7h1.53L33 21ZM17 32h21v.36H17V32Z" fill="#737373" /><path d="M12 26c1.2-7.93 7.9-14 16-14s14.8 6.07 16 14h-.85A15.46 15.46 0 0 0 28 12.86 15.46 15.46 0 0 0 12.85 26H12Z" fill="#737373" /><path d="M29.76 14.56a.32.32 0 0 0-.14-.28c-.44-.3-.9-.36-1.37-.16-.08.04-.12.1-.1.2v.07c.01.12.02.23.11.32.2.2.37.36.68.4.28.03.56.06.85.11.05 0 .1-.04.07-.1-.07-.17-.1-.36-.1-.56Zm-4.38 0c0-.12.04-.21.13-.28.4-.3.82-.36 1.26-.16.08.04.11.1.1.2v.07c-.02.12-.03.23-.11.32-.19.2-.34.36-.63.4-.26.03-.52.06-.78.11-.05 0-.09-.04-.07-.1.06-.17.1-.36.1-.56Zm-.26-.24c.07.4-.03 1.21-.58 1.19-.35-.01-.67.05-.95.2-.06.03-.13-.04-.11-.1.06-.23.1-.45.12-.67 0-.07.03-.14.08-.2.34-.4.76-.59 1.27-.58.04 0 .08.02.12.05a.2.2 0 0 1 .05.1Zm-2.48 1.84c.58-.07.82-.97.69-1.48-.02-.05-.05-.07-.1-.06-.44.05-.8.24-1.08.59a.57.57 0 0 0-.13.45c.03.2.03.4 0 .6 0 .05.02.07.06.05.18-.07.37-.12.56-.15Zm-.9-.69c.12.44.08.82-.14 1.14-.23.33-.55.51-.96.54-.05 0-.1-.04-.08-.1a.59.59 0 0 0-.01-.33c-.24-.58.55-1.21.98-1.37.1-.04.18 0 .21.12Zm5.22.29a1.4 1.4 0 0 0-1.46-.3.83.83 0 0 1-.25.07c-.2.02-.2.09-.05.2.12.1.2.2.24.35l-.01.11a.78.78 0 0 1-.14.21c-.04.04-.02.12.04.13.61.11 1.25 0 1.64-.58a.16.16 0 0 0-.01-.19Zm-3.28.74c-.04-.1-.12-.13-.2-.15a.7.7 0 0 1-.09-.03c-.1-.04-.11-.2-.03-.25.47-.33 1.19-.46 1.7-.12a.2.2 0 0 1 .09.1v.15a.8.8 0 0 1-.2.3c-.34.35-.75.52-1.24.51-.08 0-.13-.1-.08-.17.08-.12.1-.23.05-.34Zm-3.65-.12c-.28.12-.47.27-.57.45l-.05.1c-.22.4-.4.73-.2 1.24.02.04.05.07.08.08.04.02.08.03.11.02a.5.5 0 0 0 .35-.25c.1-.19.27-.35.42-.5l.11-.12a.16.16 0 0 0 .05-.08c.07-.31.03-.6-.12-.87a.15.15 0 0 0-.08-.07.14.14 0 0 0-.1 0Zm1.99.87a.8.8 0 0 0-.33-.15c-.09-.01-.13-.13-.07-.19.39-.36.84-.53 1.37-.51.17 0 .31.08.44.23a.1.1 0 0 1 .01.1c-.22.66-.72.87-1.3 1.05-.07.02-.13-.03-.12-.1l.05-.31c0-.05-.01-.1-.05-.12Zm2.36.01a2.1 2.1 0 0 0 2.03.57c.1-.03.17-.16.13-.27-.1-.26-.26-.46-.5-.6a1.4 1.4 0 0 0-.54-.16 3.11 3.11 0 0 1-.26-.05.26.26 0 0 0-.23.06c-.18.15-.38.27-.6.34-.06.01-.07.08-.03.11Zm-4.1.9c-.09.01-.31.02-.25-.12.29-.6.99-.81 1.59-.75.13.01.22.15.18.28-.15.6-.56 1-1.21 1.21-.05.02-.1-.03-.09-.08a.71.71 0 0 0-.09-.48.11.11 0 0 0-.1-.05h-.03Zm2.42-.19c.15.1.3.17.43.25.32.19.7.28 1.16.27.18 0 .34-.03.5-.1.11-.05.15-.22.07-.33a1.9 1.9 0 0 0-1.37-.77.1.1 0 0 0-.08.02l-.43.37a.28.28 0 0 1-.1.05l-.16.06c-.08.02-.1.14-.02.18Zm-3.66.26c.05.12.02.22-.07.3-.28.22-.5.52-.62.88-.05.18-.17.26-.34.25-.04 0-.07-.02-.07-.07-.12-.76-.02-1.49.6-1.97.08-.07.15-.05.21.03.12.19.22.38.3.58Zm4.3.7c-.06-.27-.36-.48-.58-.6-.18-.1-.45-.16-.82-.2-.04 0-.08.02-.11.04-.07.05-.11.12-.16.18a.74.74 0 0 1-.2.22l-.28.19c-.06.05-.05.16.03.2.24.1.5.19.79.27.4.11.8.08 1.18-.03.11-.02.18-.15.15-.26ZM19 19.5l-.24.01c-.06 0-.11-.05-.1-.12 0-.07.03-.13.06-.18.3-.51.73-.79 1.3-.83.19 0 .28.09.28.3 0 .47-.37.9-.7 1.18-.1.08-.2.12-.31.13-.05 0-.09-.04-.08-.09a.5.5 0 0 0-.1-.35.14.14 0 0 0-.11-.05Zm-1.28.42c.16-.27-.17-.7-.36-.84a.1.1 0 0 0-.12 0 .9.9 0 0 0-.35.4c-.27.6-.23 1.18.1 1.75.03.04.06.05.1.02a.16.16 0 0 0 .07-.11c.06-.44.24-.71.45-1.05l.1-.17Zm2.54-.47c.05-.1.11-.2.23-.22.53-.1.96.05 1.3.46a.2.2 0 0 1 0 .24c-.32.43-1.58.41-2.02.2-.03-.02-.04-.07 0-.1.19-.15.35-.35.49-.58Zm-2.74 1.53.3-.04h.06c.02.02.04.03.05.06.08.14.14.27.17.4.02.08.06.1.12.05a1.87 1.87 0 0 0 .77-1.3c.03-.12.06-.22 0-.35a.08.08 0 0 0-.08-.05c-.74 0-1.22.39-1.46 1.15 0 .04.03.09.07.08Zm1.59-.33c.04-.12.1-.24.23-.25.43-.02.79.1 1.06.37.1.1.1.27.01.37-.44.48-1.1.46-1.67.33-.08-.02-.1-.12-.05-.18.19-.18.32-.39.42-.64Zm-2.87 2.13c-.02-.47.24-.94.52-1.3a.2.2 0 0 0 .02-.2c-.12-.22-.27-.41-.44-.57-.23-.2-.4.28-.45.43a2.2 2.2 0 0 0 .17 1.68c.05.1.18.07.18-.04Zm.68-.17-.36.07a.1.1 0 0 1-.05 0 .11.11 0 0 1-.06-.14c.2-.64.56-1.18 1.22-1.32.09-.01.17.05.19.15.04.3.02.6-.07.93-.05.16-.13.29-.22.41-.07.1-.14.19-.18.3-.06.11-.11.11-.17 0l-.2-.34a.1.1 0 0 0-.04-.05.1.1 0 0 0-.06 0Zm2.65-.37c-.32-.4-.82-.5-1.28-.47a.18.18 0 0 0-.12.06.2.2 0 0 0-.06.13c-.01.29-.1.57-.29.8-.08.09-.16.2-.22.3-.03.05 0 .11.06.11.73 0 1.43-.21 1.91-.86.02-.02.02-.05 0-.07Zm-4 1.92c0 .08-.01.17-.03.25-.02.1-.06.12-.13.03a1.75 1.75 0 0 1-.27-1.78c.05-.14.2-.3.34-.16.2.17.35.36.48.56.02.03.02.06.02.1 0 .03-.01.06-.03.08-.23.26-.35.57-.38.92Zm1.2-1.25c-.6.1-.97.86-.99 1.42l-.01.08c-.02.08-.05.2.03.2.07 0 .19.06.3.13.2.11.4.24.52.08.38-.51.63-1.2.33-1.82a.17.17 0 0 0-.07-.07.16.16 0 0 0-.1-.02Zm.69 1.97c-.18.08-.37.12-.56.13-.08 0-.12-.1-.07-.15.25-.3.41-.67.48-1.1.02-.16.1-.26.22-.3a2.95 2.95 0 0 1 1 .05c.1.02.14.09.1.19-.2.54-.6.93-1.17 1.18Zm13.21-9.36c-.59.02-.7-.78-.63-1.2 0-.04.03-.07.07-.1a.2.2 0 0 1 .12-.05c.56 0 1.01.19 1.38.58.05.06.08.13.08.2.02.22.07.44.14.66.02.07-.06.14-.12.1-.3-.14-.65-.2-1.04-.19Zm1.32-.83c-.14.5.11 1.41.74 1.48.21.03.41.08.6.15.06.02.08 0 .07-.05-.03-.2-.03-.4 0-.6.03-.16-.02-.3-.14-.45-.3-.35-.69-.54-1.17-.6-.05 0-.09.02-.1.07Zm1.87 1.93c-.24-.32-.29-.7-.15-1.14.03-.12.11-.16.23-.12.47.16 1.31.8 1.06 1.37a.54.54 0 0 0-.01.33c.01.06-.04.1-.1.1-.44-.03-.79-.21-1.03-.54Zm-4.23-1.14a1.61 1.61 0 0 0-1.58.29.15.15 0 0 0-.02.2c.43.57 1.13.68 1.79.57a.08.08 0 0 0 .04-.13.78.78 0 0 1-.15-.21.16.16 0 0 1 0-.11.58.58 0 0 1 .25-.34c.17-.12.15-.19-.06-.2a.96.96 0 0 1-.27-.07Zm2.2.88c-.1.02-.18.04-.23.15-.04.1-.02.22.06.34.05.07 0 .17-.09.17-.52.01-.97-.16-1.34-.5a.8.8 0 0 1-.21-.31.2.2 0 0 1 .09-.25c.55-.34 1.34-.2 1.84.12.1.06.08.2-.03.25a.81.81 0 0 1-.1.03Zm4.35.48c-.1-.18-.31-.33-.62-.45a.16.16 0 0 0-.2.07c-.16.27-.2.56-.12.87 0 .03.02.06.04.08l.13.12c.16.15.34.31.45.5.08.13.2.22.38.25a.18.18 0 0 0 .2-.1c.22-.5.03-.84-.2-1.23l-.06-.11Zm-2.41.27a.9.9 0 0 0-.36.15.12.12 0 0 0-.06.12l.05.31c.01.07-.05.12-.12.1-.63-.18-1.18-.39-1.42-1.06a.09.09 0 0 1 .02-.09c.14-.15.3-.22.47-.23.57-.02 1.07.15 1.48.51.07.06.03.18-.06.2Zm-5.12.73a2.4 2.4 0 0 0 2.2-.57c.04-.03.03-.1-.03-.11a1.92 1.92 0 0 1-.66-.34.3.3 0 0 0-.24-.06l-.28.05c-.21.03-.42.05-.6.16-.25.14-.43.34-.53.6a.2.2 0 0 0 .14.27Zm6.64.34h-.04a.12.12 0 0 0-.1.05c-.1.14-.13.3-.1.48 0 .05-.04.1-.1.08-.7-.2-1.14-.6-1.3-1.21a.22.22 0 0 1 .19-.28c.65-.06 1.4.15 1.72.75.07.14-.17.13-.27.13Zm-3.09.05.47-.25a.1.1 0 0 0-.02-.18l-.18-.06a.32.32 0 0 1-.1-.05l-.47-.37a.12.12 0 0 0-.09-.02 2.1 2.1 0 0 0-1.48.77c-.1.1-.05.28.08.33.16.07.34.1.54.1.49 0 .9-.08 1.25-.27Zm4.51.3c-.1-.07-.13-.17-.08-.29.08-.2.19-.4.32-.58.06-.08.14-.1.22-.03.67.48.79 1.21.66 1.97 0 .05-.04.07-.08.07-.19.01-.31-.07-.37-.25a1.87 1.87 0 0 0-.67-.89Zm-4.1-.19c-.24.12-.57.33-.64.6-.03.12.04.25.16.27.43.1.86.14 1.3.03.3-.08.58-.17.85-.27.08-.04.1-.15.02-.2l-.3-.2c-.1-.05-.16-.13-.22-.2a.9.9 0 0 0-.17-.19.17.17 0 0 0-.12-.03c-.4.03-.7.1-.88.2Zm4.33 1.17-.25-.01c-.05 0-.1.01-.12.05a.48.48 0 0 0-.1.35c0 .05-.05.1-.1.1a.6.6 0 0 1-.33-.14c-.36-.29-.75-.71-.76-1.19 0-.2.1-.3.31-.29.6.04 1.07.32 1.4.83.03.05.06.11.07.18 0 .07-.05.12-.12.12Zm1.53-.43c-.2.15-.57.57-.4.84l.13.17c.22.34.41.61.48 1.05.01.04.03.08.07.1.05.04.08.03.1-.01.37-.57.41-1.15.13-1.75a.93.93 0 0 0-.38-.4.12.12 0 0 0-.13 0Zm-3.14.37c.14.23.32.43.53.59.03.02.03.07 0 .08-.48.22-1.85.24-2.2-.2a.18.18 0 0 1 0-.23c.37-.4.84-.56 1.42-.46.12.02.19.13.25.22Zm2.64 1.49.32.04c.05 0 .09-.04.07-.08-.25-.76-.78-1.14-1.57-1.15a.09.09 0 0 0-.08.05c-.07.13-.04.23-.01.35l.03.11c.08.47.35.86.8 1.19.07.04.1.03.13-.04.03-.14.1-.27.19-.41a.13.13 0 0 1 .05-.05.13.13 0 0 1 .07-.01Zm-1.65-.54c.14 0 .2.13.25.25.1.25.25.46.45.64.06.06.03.16-.05.18-.61.13-1.33.15-1.81-.33-.1-.1-.1-.27 0-.37.3-.27.7-.39 1.16-.37Zm2.8 1.08c.3.36.58.83.56 1.3 0 .1.14.13.2.04.3-.54.36-1.1.18-1.68-.05-.15-.24-.64-.5-.43-.18.16-.34.35-.46.57a.18.18 0 0 0 .01.2Zm.2 1.2-.38-.07a.11.11 0 0 0-.1.06l-.22.34c-.07.11-.13.11-.18 0-.06-.11-.13-.2-.2-.3-.1-.12-.2-.25-.24-.4-.1-.34-.12-.65-.08-.94.02-.1.11-.16.2-.15.72.14 1.11.68 1.33 1.32a.1.1 0 0 1-.07.14h-.05Zm-1.86-.91c-.5-.03-1.05.07-1.4.47-.02.02-.02.05 0 .07.53.65 1.29.87 2.08.86.06 0 .1-.06.06-.1a1.84 1.84 0 0 0-.24-.32c-.2-.22-.3-.5-.31-.8a.2.2 0 0 0-.06-.12.2.2 0 0 0-.13-.06Zm2.97 2.64a1.74 1.74 0 0 1-.03-.25 1.47 1.47 0 0 0-.4-.92.14.14 0 0 1-.02-.18c.14-.2.31-.4.52-.56.16-.13.31.02.37.16.26.65.16 1.24-.3 1.78-.07.09-.12.08-.14-.03Zm-.26-.08c-.01-.56-.42-1.31-1.07-1.42a.18.18 0 0 0-.2.1c-.32.6-.04 1.3.37 1.81.12.16.35.03.55-.08.13-.07.25-.14.34-.14.08 0 .05-.1.03-.2a.42.42 0 0 1-.02-.07Zm-1.2.68a1.9 1.9 0 0 1-.61-.13 2.14 2.14 0 0 1-1.27-1.18c-.04-.1-.01-.17.1-.2a3.45 3.45 0 0 1 1.09-.04c.13.04.21.14.24.3.07.43.24.8.52 1.1.05.06 0 .15-.08.15ZM43 27.08V27h1.79v.08h-.44l.78 1.4.83-1.4h-.46V27h.97v.08h-.42l-.87 1.47 1.38 2.37H47V31h-1.83v-.08h.47l-.97-1.69-1 1.7h.49V31h-1.02v-.08h.44l1.04-1.77-1.2-2.07H43ZM38 29.01A2.06 2.06 0 0 1 40 27c1 0 2 .77 2 2 0 1.07-.93 2-2 2-1.05 0-2-.88-2-1.99Zm.87 0c0 1.5.33 1.91 1.13 1.91 1.05 0 1.13-.84 1.13-1.96 0-1-.05-1.88-1.13-1.88-1 0-1.13.8-1.13 1.93ZM33.26 30.92v-3.84H33V27h2.8v.96h-.07c-.2-.53-.42-.88-.96-.88H34v1.8h.28c.5 0 .67-.32.77-.83h.07v1.75h-.07c-.1-.44-.24-.83-.71-.83H34v1.95h.47V31H33v-.08h.26ZM28 27.08V27h2.7v.96h-.07c-.06-.25-.26-.88-.88-.88H29v1.73h.26c.46 0 .62-.33.71-.83h.06v1.74h-.06c-.08-.43-.22-.83-.66-.83H29v2.03h.77c.58 0 .93-.5 1.06-1.15h.06V31H28v-.08h.32v-3.84H28ZM25.15 30.92v-3.84h-.17c-.47 0-.73.18-.92.95H24V27h3v1.03h-.06c-.19-.77-.45-.95-.92-.95h-.17v3.84h.44V31H24.7v-.08h.44ZM20.44 27.08V27h1.93v.08h-.56v3.84h.56V31h-1.93v-.08H21v-3.84h-.56ZM14.76 27.08V27h1.72v.08H16v1.84h2v-1.84h-.48V27h1.72v.08h-.48v3.84h.48V31h-1.72v-.08H18V29h-2v1.92h.48V31h-1.72v-.08h.48v-3.84h-.48ZM9 27.08V27h1.45v.08h-.35l.85 2.84h.01l.5-1.6-.37-1.24h-.26V27h1.41v.08h-.44l.86 2.85.88-2.85h-.4V27H14v.08h-.38L12.4 31h-.14l-.77-2.56h-.01l-.8 2.56h-.13l-1.17-3.92H9ZM28 33.04V33h.91v.04h-.25v1.23c0 .34.03.7.45.7.59 0 .59-.48.59-.64v-1.3h-.25V33H30v.04h-.26v1.29c0 .18 0 .67-.66.67-.72 0-.82-.35-.82-.68v-1.28H28ZM37 34.96v-.6h.06c.02.09.1.3.31.44.23.16.44.16.6.16.54 0 .68-.27.68-.41 0-.54-1.6-.22-1.6-1 0-.28.4-.55.94-.55.34 0 .5.1.62.1.07 0 .09-.01.1-.06h.07v.51h-.05c-.12-.24-.25-.51-.75-.51-.4 0-.63.18-.63.33 0 .5 1.65.26 1.65.98 0 .35-.44.65-1.06.65-.32 0-.65-.1-.76-.1-.07 0-.1.01-.12.06H37ZM34 33.04V33h1.87v.48h-.04c-.04-.12-.18-.44-.6-.44h-.49v.87h.18c.3 0 .41-.17.47-.42h.04v.87h-.04c-.06-.22-.15-.41-.44-.41h-.2v1.01h.5c.39 0 .62-.25.7-.58H36V35h-2v-.04h.29v-1.92H34ZM31.26 34.92v-1.87H31V33h.43l.46-.01c.3 0 .7.1.7.47 0 .3-.3.4-.56.42v.02c.37.06.59.1.62.5.03.45.03.53.16.53.08 0 .13-.06.16-.1l.03.03c-.08.08-.12.13-.33.13-.41 0-.43-.29-.44-.48-.01-.3-.03-.59-.38-.59h-.18v.99h.26v.04H31v-.04h.26Zm.4-1.87v.84h.12c.34 0 .37-.2.37-.4 0-.31-.08-.45-.36-.45h-.12ZM25.77 34.96v-1.92h-.12c-.31 0-.48.1-.6.47H25V33h2v.51h-.04c-.13-.38-.3-.47-.61-.47h-.12v1.92h.3V35h-1.05v-.04h.29ZM22 33.04V33h.7l.98 1.34v-1.3h-.27V33H24v.04h-.27V35h-.08l-1.33-1.8v1.76h.27V35H22v-.04h.27v-1.92H22ZM19 33.04V33h1.87v.48h-.04c-.04-.12-.18-.44-.6-.44h-.49v.87h.18c.3 0 .41-.17.47-.42h.04v.87h-.04c-.06-.22-.15-.41-.44-.41h-.2v1.01h.5c.39 0 .62-.25.7-.58H21V35h-2v-.04h.29v-1.92H19ZM16 33.04V33h.88v.04h-.25l.55 1.46.55-1.46h-.23V33h.5v.04h-.23L17.03 35h-.08l-.73-1.96H16Z" fill="#737373" /></svg>