<!-- by TradeStack --><svg width="56" height="56" viewBox="0 0 56 56" xmlns="http://www.w3.org/2000/svg"><path fill="#F0F3FA" d="M0 0h56v56H0z"/><path d="M11 33.46s.72-.18.72-1.14c0-.95-.8-1.23-1.19-1.28C10.15 30.98 8 31 8 31v5h2.59c.38-.03 1.37-.3 1.4-1.37.05-.91-1-1.17-1-1.17Zm-2.41-1.9s1.45-.03 1.7-.02c.24.01.87.16.88.88 0 .73-.58.82-.82.82H8.59v-1.69Zm1.95 3.88H8.59v-1.6h1.87c.28 0 .97.14.98.83.01.68-.64.77-.9.77ZM14.5 36h.5v-5h-.48l-.02 5ZM24.78 31.58h1.66V36H27v-4.42h1.73V31l-3.95.02v.56ZM31 36h4v-.52h-3.43v-1.71h3.08v-.54h-3.08v-1.71H35V31h-4v5ZM39.45 35.45c-1-.06-1.81-.73-1.87-1.96-.05-1.23 1.07-2.04 2.02-1.97.94.07 1.44.64 1.44.64l.42-.4s-.6-.72-1.86-.76c-1.99-.04-2.6 1.58-2.6 2.47-.01 1 .79 2.51 2.43 2.53 1.45 0 2.05-.87 2.05-.87l-.37-.38s-.66.75-1.66.7ZM47.4 31.02v2.19h-2.82V31h-.57L44 36h.55l.01-2.22h2.85V36H48v-4.97h-.6ZM18 33.5a2.5 2.5 0 1 1 5 0 2.5 2.5 0 0 1-5 0Zm4.63.33a2.14 2.14 0 0 0 .02-.49l-.77-.97.24-.29c-.08-.09-.16-.18-.26-.25l-.21.27-1.25-.76c-.15.01-.3.04-.44.07l1.22.93-2.05.67.57-1.51a2.2 2.2 0 0 0-.4.2l-.6 1.36-.27-.16c-.05.17-.08.34-.09.52l.3.21.04 1.02c.06.1.14.2.22.29l.04-1.1 1.62 1.37-1.3.06c.17.1.34.2.52.26l1.06.02.03.07c.17-.03.33-.07.48-.14l-.01-.14.96-.66c.11-.16.2-.34.26-.53l-1.23.78.38-1.98.92.88Zm-1.27-1.1-.47 2.14-1.73-1.43 2.2-.71Z" fill="#1E3B6E"/><path d="m8 28.97 2.05.03.71-2h3.8l.75 2h2.08l-3.84-9H11.8L8 28.97ZM11.54 25l1.1-2.47L13.76 25h-2.2ZM28.25 20H26l-1.84 2.91L22.37 20h-2.24l2.86 4.43L20 29h2.27l1.89-3.01L26 29h2.43l-3.07-4.57 2.9-4.43ZM34 20h-2v9h2v-9ZM43.43 23.82 41.17 20H39v8.99l2 .01v-5.7l2.47 3.69L46 23.26V29h2v-9h-2.17l-2.4 3.82Z" fill="#18B3E7"/></svg>