<?xml version='1.0' encoding='utf-8'?>
<!-- by TradeStack -->
<svg width="56" height="56" viewBox="0 0 56 56" xmlns="http://www.w3.org/2000/svg"><path fill="#F0F3FA" d="M0 0h56v56H0z" /><path d="M8 24v2h9v-.24c0-5.76 4.36-10.23 10-10.72v13.19h2V15.04c5.66.46 10 4.94 10 10.72V26h9v-2h-7.1l-.08-.33A12.76 12.76 0 0 0 28.21 13h-.35a12.76 12.76 0 0 0-12.6 10.56l-.1.44H8Zm7.96 18v-2H27v-4h2v4h11.04v2H15.96Z" /><path fill-rule="evenodd" d="m24.74 28.62.34.38h5.85l.34-.38v2.19l-.34-.35H29v4.2l.22.34h-2.46l.24-.34v-4.2h-1.92l-.34.35v-2.2Zm-7.12 2.14v-2.04l.35.28h5.9v.23l-3.45 4.43h3.14l.44-.29v1.94l-.44-.31h-6.15v-.16l3.37-4.43h-2.8l-.36.35ZM11.25 29l.31.33-2.2 5.4L9 35h2.28l-.36-.27.29-.73h3.08l.3.73-.28.27h2.48l-.35-.27-2.3-5.4.22-.33h-3.11Zm2.63 4-1.17-2.85L11.6 33h2.28ZM33 29.3l-.44-.3h6l.44-.38v2.02l-.43-.32H35v.96h2.05l.34-.34v1.9l-.34-.33H35v1.03h3.57l.43-.32v2.13l-.43-.35h-6.01l.44-.3v-5.4Zm13.84.21a7.34 7.34 0 0 0-2.78-.51c-1.69 0-4.06.77-4.06 3.22 0 2.46 3.2 2.78 4.06 2.78.85 0 1.92-.12 2.78-.47l.6.12-1.35-2.04v.46c-.3.16-1.15.5-2.03.5-1.11 0-2.13-.61-2.13-1.35 0-.73.65-1.7 2.13-1.7 1.18 0 1.78.27 1.93.4v.4l1.22-1.94-.37.13Z" fill="#600" /></svg>