<?xml version='1.0' encoding='utf-8'?>
<!-- by TradeStack -->
<svg width="56" height="56" viewBox="0 0 56 56" xmlns="http://www.w3.org/2000/svg"><path fill="#F0F3FA" d="M0 0h56v56H0z" /><path d="m41.65 32-.93-4h1.33l.36 2.16.48-2.16h.83l.48 2.16.36-2.16h1.3l-.97 4H43.7l-.48-1.93L42.8 32h-1.14ZM38.7 28c.54 0 1 .2 1.37.59.38.39.57.86.57 1.41 0 .56-.19 1.03-.56 1.42-.38.39-.84.58-1.38.58-.54 0-1-.2-1.37-.58a1.96 1.96 0 0 1-.57-1.42c0-.55.19-1.02.57-1.41.38-.4.83-.59 1.37-.59Zm0 1.29a.61.61 0 0 0-.46.2c-.13.14-.2.31-.2.51s.07.37.2.5c.12.14.28.2.46.2a.6.6 0 0 0 .46-.2.7.7 0 0 0 .2-.5c0-.2-.07-.36-.2-.5a.6.6 0 0 0-.46-.21ZM33 32v-5.5h1.4c.77 0 1.34.16 1.72.48.37.33.56.82.56 1.5 0 .64-.18 1.14-.55 1.5-.36.36-.87.54-1.53.54h-.2V32H33Zm1.4-2.86h.16c.23 0 .4-.06.53-.18.13-.11.2-.27.2-.47 0-.22-.07-.39-.2-.5-.12-.12-.3-.18-.54-.18h-.16v1.33ZM31.3 31.56a2.74 2.74 0 0 1-1.52.44 1.9 1.9 0 0 1-1.41-.55 1.92 1.92 0 0 1-.54-1.41c0-.57.19-1.06.56-1.45.38-.4.85-.59 1.4-.59.4 0 .76.12 1.06.35.3.23.53.56.67.97l-2.04 1.47a1.04 1.04 0 0 0 .44.08c.2 0 .41-.05.63-.15.22-.1.43-.24.65-.43l.1 1.27Zm-2.31-1.53 1.16-.86a.46.46 0 0 0-.18-.11.73.73 0 0 0-.78.21.8.8 0 0 0-.2.76ZM49.4 31.56a2.74 2.74 0 0 1-1.51.44 1.9 1.9 0 0 1-1.41-.55 1.92 1.92 0 0 1-.54-1.41c0-.57.19-1.06.56-1.45.38-.4.85-.59 1.4-.59.4 0 .76.12 1.06.35.3.23.53.56.66.97L47.6 30.8a1.04 1.04 0 0 0 .44.08c.2 0 .41-.05.63-.15.22-.1.43-.24.65-.43l.1 1.27Zm-2.3-1.53 1.16-.86a.46.46 0 0 0-.18-.11.73.73 0 0 0-.78.21.8.8 0 0 0-.2.76ZM25.47 32v-4h1.26v.45c.08-.15.2-.26.33-.33.13-.08.3-.12.5-.12v1.36h-.15c-.22 0-.4.07-.5.2-.13.12-.18.3-.18.55V32h-1.26ZM50 32v-4h1.2v.45A.86.86 0 0 1 52 28v1.37h-.14c-.21 0-.38.06-.49.19-.11.13-.17.31-.17.55V32H50ZM25 28v4h-1.24v-.44a1.1 1.1 0 0 1-.9.44c-.73 0-1.11-.46-1.11-1.34V28H23v2.09c0 .44.1.6.36.6.28 0 .38-.2.38-.6v-2.1H25ZM18.17 32l1.15-2.68h-1.1V28h2.97l-1.14 2.67h1.23L21 32h-2.83ZM12.62 32l1.85-5.5h1.55l1.76 5.5h-1.46l-.2-.62h-1.87l-.2.62h-1.43Zm2.01-2h1.1l-.55-1.85-.55 1.85Z" fill="#0071B9" /><path d="m18.7 25 1.94-1.94.24.24-1.93 1.95-.24-.24Zm-2.5-1.34.34.09.7-2.67-.32-.09-.71 2.67Zm-2.83.09.33-.1L13 21l-.34.1.71 2.66Zm-2.41 1.5.24-.24-1.93-1.95-.25.24 1.94 1.95Zm-1.34 2.52.09-.33-2.65-.72-.09.33 2.65.72Zm.09 2.85-.1-.33-2.64.71.1.34 2.64-.72Zm1.5 2.43L9.26 35l-.25-.24 1.94-1.95.24.24Zm6.33-8.88.3.17 2.74-4.78-.3-.17-2.74 4.78ZM14.78 18h.35v5.51h-.35V18Zm-2.71 6.34.3-.17-2.74-4.78-.3.17 2.74 4.78Zm-1.94 2.08.17-.3-4.75-2.75-.17.3 4.75 2.75Zm-.65 2.78H4v-.34h5.48v.34Zm.82 2.74-.17-.3-4.75 2.75.17.3 4.75-2.75Zm1.27-6.32a4.77 4.77 0 0 1 7 .25 4.77 4.77 0 0 0-6.52.23 4.85 4.85 0 0 0-.23 6.58 4.85 4.85 0 0 1-.25-7.06Z" fill="#F99D1E" /></svg>