<!-- by TradeStack --><svg width="56" height="56" viewBox="0 0 56 56" xmlns="http://www.w3.org/2000/svg"><path fill="#F0F3FA" d="M0 0h56v56H0z"/><path d="M33 25v6h-1v-6h1ZM20.02 22v-.68L23.47 17H20v-1h4.98v.68L21.53 21H25v1h-4.98ZM14.98 22H14l1.9-6h1.2l1.9 6h-.9l-1.6-5-1.52 5Zm.1-2h2.84v1h-2.84v-1ZM30 16h1v3.86c0 1.39-1.22 2.14-2.5 2.14s-2.5-.75-2.5-2.14V16h1v3.77c0 .79.75 1.27 1.5 1.27s1.5-.48 1.5-1.27V16ZM35 34h1v3.86c0 1.39-1.22 2.14-2.5 2.14s-2.5-.75-2.5-2.14V34h1v3.77c0 .79.75 1.27 1.5 1.27s1.5-.48 1.5-1.27V34ZM32 22v-6h1.96c1.14 0 2.04.8 2.04 1.92 0 1.15-.84 2.08-2.05 2.08h-1.4v-1h1.27c.63 0 1.18-.45 1.18-1.08 0-.64-.55-.92-1.18-.92H33v5h-1Zm2.7-2.72L36 22h-1.06l-1.27-2.72h1.03ZM20 40v-6h1.96c1.14 0 2.04.8 2.04 1.92 0 1.15-.84 2.08-2.05 2.08h-1.4v-1h1.27c.63 0 1.18-.45 1.18-1.08 0-.64-.55-.92-1.18-.92H21v5h-1Zm2.7-2.72L24 40h-1.06l-1.27-2.72h1.03ZM10 31v-6h1v2.54h3V25h1v6h-1v-2.55h-3V31h-1ZM37 22v-6h4v1h-3v1.5h2.5v1H38V21h3v1h-4ZM21 28c0 1.5-.85 3-2.5 3S16 29.5 16 28s.84-3 2.5-3c1.65 0 2.5 1.5 2.5 3Zm-1 0c0-.94-.4-2-1.5-2S17 27.06 17 28s.4 2 1.5 2 1.5-1.06 1.5-2ZM30 37c0 1.5-.85 3-2.5 3S25 38.5 25 37s.84-3 2.5-3c1.65 0 2.5 1.5 2.5 3Zm-1 0c0-.94-.4-2-1.5-2S26 36.06 26 37s.4 2 1.5 2 1.5-1.06 1.5-2ZM22 31v-6h1v5h2v1h-3ZM28.06 31H26v-6h2.1c1.77 0 2.9 1.25 2.9 3 0 1.76-1.16 3-2.94 3ZM27 30h1c1.27 0 1.91-.79 1.91-2 0-1.2-.63-2-1.88-2H27v4ZM17.96 36a1.4 1.4 0 0 0-1.37-1C15.5 35 15 36.03 15 37c0 .98.48 2 1.61 2 .83 0 1.4-.39 1.4-1.21l.23.04h-1.52V37H19v.7c0 1.4-.98 2.3-2.4 2.3-1.68 0-2.6-1.42-2.6-3 0-1.5.91-3 2.58-3 1.16 0 2.25.82 2.42 2h-1.04ZM39 25v6h-.98l-3.03-4.26V31H34v-6h.99l3.03 4.28V25H39ZM43.96 27a1.4 1.4 0 0 0-1.37-1C41.5 26 41 27.03 41 28c0 .98.48 2 1.61 2 .83 0 1.4-.39 1.4-1.21l.23.04h-1.52V28H45v.7c0 1.4-.98 2.3-2.4 2.3-1.68 0-2.6-1.42-2.6-3 0-1.5.91-3 2.58-3 1.16 0 2.25.82 2.42 2h-1.04ZM37 40v-6h1.96A2 2 0 0 1 41 36c0 1.15-.84 2-2.05 2h-1.4v-1h1.37c.6 0 1.08-.33 1.08-1 0-.67-.48-1-1.08-1H38v5h-1Z"/></svg>