<?xml version='1.0' encoding='utf-8'?>
<!-- by TradeStack -->
<svg width="56" height="56" viewBox="0 0 56 56" xmlns="http://www.w3.org/2000/svg"><path d="M0 28a28 28 0 1 1 56 0 28 28 0 1 1-56 0Z" fill="url(#aze3fgpk5)" /><path d="M22.02 14.02c-3.15-.78-7.9-.76-10.72-.57-.31.02-.41.42-.16.6 2.8 1.92 5.2 4.88 6.48 7.01.22.37.83.34 1.02-.04 1-2.02 2.6-3.87 3.83-5.16.6-.64.4-1.62-.45-1.84Z" fill="#00B357" /><path d="M21.55 17.6c2.79-3.59 7.45-5.21 9.44-5.58.33-.06.56 0 .59.2.01.15-.39.39-.6.49-7.92 3.62-8.9 12.1-8.96 14.1-.06 2-.75 3.09-2.31 3.02-1.57-.06-2.28-1.2-2.17-2.6.11-1.42.53-5.15 4-9.63Z" fill="#0072D2" /><path d="M25.97 17.14c1.87-2.4 5-4.35 7-4.72.32-.06.56 0 .58.2.02.15-.38.39-.59.49-7.79 4.27-6.3 13.14-6.03 15.13.32 2.4-.21 3.24-1.76 3.4-1.55.18-2.34-1.25-2.34-2.67 0-1.72-.35-7.35 3.14-11.83Z" fill="#853CC2" /><path d="M27.43 21.7c.62-4.94 4.48-7.7 6.33-8.45.2-.08.48-.15.59.06.13.25-.18.46-.33.56-5.27 4.18-3.63 11.08-2.14 14.01.52 1.03 1.14 2.7-.47 3.54a2.22 2.22 0 0 1-3.07-.75c-.56-.93-1.53-4.03-.9-8.97Z" fill="#FF2C3B" /><path d="m41.54 27.38-6.34-9.95a1.88 1.88 0 0 0-1.7-.94c-2.63.6-2.64 4.55-2.43 6.8.25 2.56 1.99 7.73 6.8 7.6 4.8-.11 4.45-2.39 3.67-3.51Z" fill="#FFC501" /><path d="M9 33.76V32.4l1.5-.4v1.76H12V35h-1.5v1.77c0 .92 1.11.92 1.5.8v1.25c-2.32.68-3-.71-3-1.5V35H8v-1.24h1ZM30 33.76V32.4l1.5-.4v1.76H33V35h-1.5v1.77c0 .92 1.11.92 1.5.8v1.25c-2.32.68-3-.71-3-1.5V35h-1v-1.24h1ZM14.28 39l-2-5h1.7l1.2 3.53L16.3 34H18l-2.02 5h-1.71Z" fill="#fff" /><path fill-rule="evenodd" d="M18.83 34.46c.32-.16 1.19-.46 2.08-.46 1.1 0 1.99.52 2.09 1.86V39h-1.31l-.1-.59c-.15.19-.67.56-1.47.59-1.01.03-1.72-.8-1.66-1.5.06-.7.56-1.79 2.96-1.8.03-.39-.4-1-2.31-.32l-.28-.92Zm2.67 2.19v.65c-.02.19-.22.59-.88.66-.52.05-.69-.36-.6-.72.06-.21.35-.6 1.48-.6ZM43.83 34.46c.32-.16 1.2-.46 2.08-.46 1.1 0 1.99.52 2.09 1.86V39h-1.31l-.1-.59c-.15.19-.67.56-1.47.59-1 .03-1.72-.8-1.66-1.5.06-.7.56-1.79 2.96-1.8.03-.39-.4-1-2.3-.32l-.29-.92Zm2.67 2.19v.65c-.02.19-.22.59-.88.66-.52.05-.69-.36-.6-.72.06-.21.35-.6 1.48-.6Z" fill="#fff" /><path d="M28.5 34c-1.44.01-4.46.03-4.5 0v1.24h2.49L24 38.1v.9h4.5v-1.24h-2.39l2.39-2.8V34ZM42.7 38.72c-.36.18-.78.28-1.22.28-1.46 0-2.66-.94-2.64-2.5 0-1.56 1.18-2.5 2.64-2.5.46 0 .88.1 1.25.3l-.28 1.03c-.21-.11-.45-.17-.7-.17-.8 0-1.42.5-1.43 1.34 0 .84.64 1.34 1.42 1.34.25 0 .48-.05.68-.15l.28 1.03ZM38.08 37c.14-1-.1-3.02-2.12-3-2.52.02-2.42 2.45-2.4 2.72 0 .26.19 2.24 2.5 2.28.37 0 1.25-.08 1.82-.31l-.23-1.02c-.84.24-2.55.47-2.69-.67h3.12Zm-3.1-1c.05-.33.3-1 .94-1 .64 0 .8.67.8 1h-1.74Z" fill="#fff" /><defs><linearGradient id="aze3fgpk5" x1="16.67" y1="4.78" x2="36.55" y2="56" gradientUnits="userSpaceOnUse"><stop stop-color="#00C0EF" /><stop offset=".42" stop-color="#01A6E0" /><stop offset="1" stop-color="#36128E" /></linearGradient></defs></svg>