<!-- by TradeStack --><svg width="56" height="56" viewBox="0 0 56 56" xmlns="http://www.w3.org/2000/svg"><path fill="#F0F3FA" d="M0 0h56v56H0z"/><path d="m27.36 16.61 3.43 7.07c.05.1.08.2.08.32h9.86a.72.72 0 0 1 .67.4l.1.2 3.43 7.06a.73.73 0 0 1 0 .64l-.08.16-3.45 7.13a.73.73 0 0 1-.64.41H29.38a.72.72 0 0 1-.65-.4l-.1-.21-3.43-7.05a.73.73 0 0 1-.07-.32V32h-9.87a.7.7 0 0 1-.65-.4l-.1-.2-3.44-7.07a.77.77 0 0 1 0-.64l.08-.16 3.45-7.12a.73.73 0 0 1 .65-.41H26.6a.73.73 0 0 1 .66.4l.1.21Zm-1.54 13.3 2.74-5.84a.13.13 0 0 0-.04-.13l-2.74-5.85a.16.16 0 0 0-.14-.09H16.2c-.05 0-.1.04-.13.09l-2.8 5.85a.16.16 0 0 0 0 .13l2.8 5.85c.02.05.08.08.13.08h9.47c.06 0 .11-.03.14-.08Zm14.1 8 2.77-5.85a.17.17 0 0 0 0-.14l-2.77-5.83a.15.15 0 0 0-.13-.09h-9.44a.16.16 0 0 0-.14.09l-2.77 5.83a.14.14 0 0 0 0 .14l2.77 5.86c.02.05.08.08.13.08h9.45c.06 0 .1-.03.13-.08Z" fill="#FFAB61"/></svg>