<!-- by TradeStack --><svg width="56" height="56" viewBox="0 0 56 56" xmlns="http://www.w3.org/2000/svg"><path fill="#F0F3FA" d="M0 0h56v56H0z"/><path d="M37.37 22.14c.08-.15.1-.3.21-.43.34-.38.65-.75.94-1.13.06-.08.06-.17 0-.26-.51-.65-.39-1.36.38-2.1.47-.47.52-1.07.6-1.67.1-.71.3-.73.58-.06.09.21.23.39.42.52.08.05.09.11.02.18a.71.71 0 0 1-.5.2c-.1-.01-.18.08-.15.17.25.68.1 1.27-.42 1.76a.5.5 0 0 0-.16.35c0 .3.13.54.4.72.37.25.34.44-.09.57a.28.28 0 0 0-.17.15c-.23.46-.35 1.18.21 1.5.4.22.36.32-.1.29-.28-.02-.55-.1-.81-.25-.22-.12-.34-.07-.37.16v.1c-.04.24.04.43.23.58.4.34.81.7.98 1.18.14.4.46.69.97.88.64.24.61.36-.08.35-.46 0-.91-.1-1.38-.3-.13-.07-.3.02-.3.15-.07.91 1.05 1.56 1.81 2 .26.16.23.24-.08.25-.75.02-1.77-.6-2.45-.9-1.23-.5-1.32-1.7-.63-2.63a.28.28 0 0 0 .01-.35c-.42-.65-.47-1.32-.07-1.98Z" fill="#906D3C"/><path d="M25.52 21.9c-.2-1.14-.35-2.33-.51-3.51-.02-.1-.01-.2.02-.3.03-.11.07-.12.12-.02.13.25.22.53.28.82a36.9 36.9 0 0 0 1.56 5.61c.04.1-.01.23-.1.26l-.82.23c-.1.03-.15-.02-.16-.15-.08-.99-.21-1.97-.39-2.93ZM28.82 20.8c.11 1.34.09 2.67.18 4.01 0 .11-.08.2-.18.19l-.66-.12c-.1-.02-.16-.09-.16-.2 0-.32.01-.63.05-.94.22-1.56.4-3.12.56-4.67 0-.08.04-.1.09-.04.04.05.16.12.14.2a7.82 7.82 0 0 0-.02 1.57ZM23.18 25.08a26.3 26.3 0 0 0-1.3-1.95c-.59-.8-1.21-1.8-1.87-2.99-.04-.07.1-.17.18-.13a8.95 8.95 0 0 0 4.7 5.31c.16.11.14.2-.03.27l-.92.38c-.17.07-.3.02-.37-.14-.11-.25-.25-.5-.4-.75Z" fill="#B88C4A"/><path d="m42.78 24.3-.4-.38a.7.7 0 0 1-.21-.37.63.63 0 0 1 .06-.41c.14-.27.2-.55.18-.84-.02-.37.08-.4.32-.1.26.35.33.72.2 1.12-.02.1 0 .19.06.27.63.79 1.76 1.58.29 2.41-.44.25-.63.85-1.12.98-.17.05-.2 0-.11-.12.46-.61.5-1.22.85-1.84.15-.27.11-.5-.12-.73Z" fill="#D0A96F"/><path d="m31.02 24.5.84-2.39c.06-.15.1-.15.12.02.03.18.02.35-.02.52-.2.7-.33 1.43-.41 2.18-.02.17-.08.21-.2.13l-.24-.16c-.1-.07-.13-.17-.09-.3ZM22.27 26.97c-.1.05-.25.03-.33-.03-.43-.35-.9-.67-1.47-.92-.42-.2-.78-.4-1.1-.64-.57-.4-.48-.49.26-.24.31.1.59.2.83.33.76.38 1.56.71 2.39 1.01.2.08.2.15.01.23l-.59.26ZM34 25.08c-.04.3-.22.66-.54.88a.2.2 0 0 1-.09.04c-.24.03-.43-.14-.35-.28.18-.27.44-.5.78-.7.08-.04.2 0 .2.06ZM23.5 30.02c-.32-.73-.76-.88-1.4-1.3a.2.2 0 0 1-.07-.05.18.18 0 0 1 .02-.23 7.73 7.73 0 0 1 4.54-2.32 10.5 10.5 0 0 1 7.4 1.66l.01.06a.1.1 0 0 1-.02.05 87.78 87.78 0 0 0-3.58 1.6c-1.1.5-2.36.55-3.42 1.07-.32.16-.64.29-.98.4-.54.17-.66-.19-.98-.44-.32-.25-.91-.29-1.32-.35a.26.26 0 0 1-.2-.15Z" fill="#B88C4A"/><path d="M8.19 26.74c-.3.01-.6-.01-.9-.07-.37-.07-.39-.21-.06-.42 1-.65 2.03.08 2.72.95.08.1.06.16-.06.17h-.83c-.35 0-.63.35-.9.6-.12.1-.3-.04-.27-.22.07-.32.19-.6.36-.86.04-.06 0-.15-.06-.15Z" fill="#D0A96F"/><path d="M19.85 27.9c.54.17 1.05.11 1.14-.11.08-.22-.3-.54-.84-.7-.54-.16-1.05-.1-1.14.12-.08.22.3.54.84.7Z" fill="#B88C4A"/><path d="M13.78 28.54a.68.68 0 0 0-.32-.04c-.42.04-.82.04-1.22 0a.31.31 0 0 0-.21.04c-.5.33-1.41.7-2 .32-.4-.26 3.48-.96 4.01-.85.86.18 1.73.86 2.49 1.27.1.05.2.08.32.08 1 .02 2.01-.03 3.02-.16.35-.04.7-.04 1.06.02.18.03-.04.2-.13.21-.61.06-1.22.18-1.82.35-.78.22-2.02.36-2.76 0-.2-.11-.4-.2-.6-.28a.3.3 0 0 0-.21 0c-.38.13-.77.17-1.16.1-.1-.02-.12-.06-.07-.13a.33.33 0 0 1 .22-.13c.2-.03.39-.08.57-.13.08-.01-.04-.13-.1-.12a5.6 5.6 0 0 1-1.97 0c-.38-.07-.38-.16-.02-.28.27-.09.56-.13.86-.13.25 0 .27-.05.04-.14Z" fill="#D0A96F"/><path d="M36.43 34.59c1.63.45 3.3.8 5.02 1.06 1.63.25 2.99.96 4.07 2.12.18.2.14.26-.11.22a4.8 4.8 0 0 1-.8-.23c-1.68-.65-3.3-1.46-5.06-1.95a22.97 22.97 0 0 0-3.76-.75 9.9 9.9 0 0 1-3.76-.98c-1.42-.74-3-1.32-4.77-1.73-.34-.08-.35-.18-.02-.3.76-.28 1.57-.55 2.45-.8a9.09 9.09 0 0 0 2.77-1.34c1.16-.8 2.5-1.62 3.89-1.9.12-.03.26.05.31.17.3.84.91 1.41 1.83 1.73.14.04.25.13.33.25.08.12.12.26.12.4l-.1 1.84c0 .14.04.29.12.4.09.13.2.21.34.25l6.37 1.93a.46.46 0 0 1 .33.45v.92c0 .23-.1.28-.28.15A7.43 7.43 0 0 0 42 35.06c-1.82-.16-3.67-.34-5.57-.53-.04 0-.04.04-.01.06Z" fill="#906D3C"/><path d="M43 30.85c.64.07 1.54-.53 2.06-.89a3.6 3.6 0 0 1 1.49-.6c.35-.06.5.08.44.42l-.52 3.08a.17.17 0 0 1-.2.14l-5.04-.86a.27.27 0 0 1-.23-.29l.13-1.48c.02-.17.12-.26.3-.27.88-.02 2.23-.16 2.16-1.32a.3.3 0 0 1 .16-.3c.24-.15.54-.43.83-.48a11.11 11.11 0 0 1 1.43.41c.28.11.27.2-.01.29-.89.25-1.55.78-2.24 1.53-.22.23-.54.35-.78.53-.07.05-.06.08.02.1ZM15.22 33.1c-2.75.1-5.4.6-7.97 1.49-.1.03-.11-.09-.05-.13 1.4-.82 2.9-1.4 4.5-1.72.34-.07.34-.13 0-.18a3.18 3.18 0 0 0-1.24.04l-3.06.72c-.49.11-.53.04-.13-.2a7.28 7.28 0 0 1 1.93-.82c.2-.05.25-.33.47-.3 2.1.3 3.93.42 5.48.39 2.97-.07 5.62-.23 8.32.67l3.18 1.06c.37.13.72.2 1.04.21 1.17.05 4.66.38 5.23 1.23.15.23.09.29-.2.17-.41-.17-.8-.3-1.16-.4-.83-.23-1.93.27-2.71.55-.48.17-.53.1-.15-.19.26-.2.6-.38 1-.51.13-.04.13-.08 0-.12-.2-.06-.41-.07-.62-.04-.94.14-1.91.38-2.92.7-.12.05-.12-.16-.04-.21l1.25-.67c.16-.08.14-.13-.04-.15-1.55-.16-3.07.55-4.44 1.19a.11.11 0 0 1-.05 0c-.17 0-.06-.2-.01-.24.57-.53 1.2-.92 1.88-1.18.46-.18.43-.28-.08-.32-.27-.01-.54 0-.8.05a9.9 9.9 0 0 0-4.15 1.65c-.05.03-.11-.1-.08-.13a9.67 9.67 0 0 1 2.82-1.99c.15-.07.14-.1-.03-.1-1.24.01-2.38.18-3.44.5-1.13.34-2.12.97-3.13 1.53-.98.54-1.08.45-.3-.27.9-.83 2.05-1.54 3.45-2.13.12-.05.12-.08-.03-.09-.86-.03-1.64.1-2.33.4-1.46.63-3.02 1.2-4.68 1.75-.66.21-1.3.38-1.92.5-.06 0-.1-.06-.04-.08 2-.92 3.76-1.79 5.26-2.59.05-.02.04-.03 0-.03Z" fill="#D0A96F"/></svg>