<!-- by TradeStack --><svg width="56" height="56" viewBox="0 0 56 56" xmlns="http://www.w3.org/2000/svg"><path fill="#F0F3FA" d="M0 0h56v56H0z"/><path fill-rule="evenodd" d="m35 21-3.81-4-3.81 4 3.8 4L35 21Zm-1.3 0-2.53-2.66L28.64 21l2.53 2.65L33.69 21Z" fill="url(#a)"/><path d="m27.96 17 3.81 4-1.57 1.64-.65-.69.91-.96-2.52-2.65-.92.96-.63-.66L27.96 17Z" fill="url(#b)"/><path fill-rule="evenodd" d="m28.62 21-3.8-4L21 21l3.81 4 3.81-4Zm-1.3 0-2.53-2.66L22.26 21l2.53 2.65L27.32 21Z" fill="url(#c)"/><path d="m27.96 25-3.81-4 1.6-1.67.65.69-.95.99 2.53 2.65.97-1.01.63.65-1.62 1.7Z" fill="url(#d)"/><path d="M7.9 29.12a4.4 4.4 0 0 0-.96-.12C5.77 29 5 29.92 5 31c0 1.14.89 2.01 2.08 2 .65 0 1.25-.17 1.82-.53.04-.03.1 0 .1.06v.83c0 .13-.03.2-.15.25-.56.25-1.19.38-1.85.39a2.87 2.87 0 0 1-3-3 2.9 2.9 0 0 1 3.1-3c.5.02 1.1.14 1.77.38.1.03.13.13.13.23v1.21c0 .05-.03.3-.1.3h-.8a.1.1 0 0 1-.1-.1v-.7c0-.08-.02-.18-.1-.2Zm11 .15c-.04-.02-.06 0-.06.03v.68c-.03.75-.05 1.43-.05 2.05 0 .31-.03.56-.04.88 0 .05.04.1.09.1l.5-.01c.07 0 .13.06.13.13v.72c0 .04-.02.08-.05.1a.14.14 0 0 1-.1.05h-2.24c-.05 0-.08-.03-.08-.09V33h.63c.04 0 .07-.03.07-.07l.15-3.83c0-.07-.03-.1-.1-.1h-.54a.09.09 0 0 1-.09-.07v-.82c.01-.05.06-.11.12-.11h2.25c.19.02.23.39.28.52a166.6 166.6 0 0 0 1.22 3.37c.03 0 .05-.01.06-.06.1-.3.21-.65.35-1.01.12-.35.23-.69.36-1.02a26.53 26.53 0 0 0 .62-1.73.12.12 0 0 1 .05-.03 1 1 0 0 1 .3-.04h2.03c.05 0 .1.04.1.1v.65c0 .07 0 .15-.03.23l-.03.02h-.6a.06.06 0 0 0-.05.06l.12 3.85c0 .05.05.1.1.09h.53a.1.1 0 0 1 .08.09c.02.24.02.6.01.86 0 .02-.04.05-.07.05H22.6c-.04 0-.07-.05-.07-.09a5.84 5.84 0 0 1 0-.8c0-.07.05-.11.12-.11h.5c.07 0 .1-.03.1-.1l-.1-2.6a14.95 14.95 0 0 1-.02-1.02l-.02-.01c-.03 0-.05 0-.06.03a66.6 66.6 0 0 1-.76 2.05 118.57 118.57 0 0 0-.83 2.11 5.24 5.24 0 0 1-.78.03c-.1 0-.18-.06-.22-.16l-.54-1.43-.94-2.5c-.03-.07-.05-.11-.08-.13Zm23.58 3.24c.03.06.05.06.07 0 .37-.91.73-1.84 1.12-2.76.1-.24.18-.41.25-.67.01-.05-.03-.09-.07-.08h-.73a.13.13 0 0 1-.12-.12v-.79c0-.05.05-.1.1-.09h2.6c.08 0 .3-.01.3.11v.77c0 .1-.08.14-.18.12-.32 0-.55 0-.64.1l-1.71 4.08c-.1.24-.18.49-.29.74a.13.13 0 0 1-.11.07l-1.05.01c-.1 0-.16-.04-.2-.12l-2.02-4.79a.15.15 0 0 0-.05-.06.16.16 0 0 0-.09-.03h-.57c-.03 0-.09-.03-.09-.06v-.89c0-.03.02-.04.05-.04h2.85a.1.1 0 0 1 .07.02.1.1 0 0 1 .03.07v.83c0 .02 0 .04-.02.05a.07.07 0 0 1-.04.02h-.63c-.04 0-.2 0-.17.1l1.34 3.41Z" fill="#262C7A"/><path fill-rule="evenodd" d="M37.22 28.22c1.41.54 2.03 2.1 1.69 3.55-.2.9-.7 1.53-1.48 1.92-.5.26-1.05.33-1.63.3a2.78 2.78 0 0 1-2.7-2.17 3.4 3.4 0 0 1 .29-2.39c.39-.7.98-1.14 1.8-1.34a3.6 3.6 0 0 1 2.03.13Zm-.41.92c.94.37 1.35 1.41 1.13 2.37-.14.6-.47 1.03-.98 1.29-.34.17-.7.21-1.1.2a1.86 1.86 0 0 1-1.8-1.45 2.35 2.35 0 0 1 .2-1.6 1.8 1.8 0 0 1 1.2-.89c.4-.1.93-.08 1.35.08Zm-24.88 3.79c.04-.13.2-.45.32-.65h2.4l.3.61c.03.05-.01.1-.07.11h-.59c-.02 0-.04 0-.05.02a.08.08 0 0 0-.03.06v.83c0 .02.02.04.04.06a.1.1 0 0 0 .07.03h2.58a.1.1 0 0 0 .1-.1v-.84c0-.04-.02-.06-.06-.06h-.65c-.08 0-.13-.13-.16-.2-.63-1.54-1.31-3.08-1.92-4.64a.24.24 0 0 0-.24-.16H11.7c-.02 0-.04 0-.06.02a.08.08 0 0 0-.02.06v.82c0 .03 0 .05.03.07a.1.1 0 0 0 .06.03h.59c.05 0 .1.05.08.1-.1.37-.27.64-.42 1-.4.97-.8 1.83-1.19 2.78-.03.08-.1.13-.2.12h-.47a.07.07 0 0 0-.08.06 5.31 5.31 0 0 0 .01.92l.04.02h2.51c.07 0 .13-.06.13-.13v-.8c0-.05-.02-.07-.07-.07h-.66c-.03 0-.05-.04-.05-.07Zm1.48-3.67-.8 2.05c-.01.03.01.06.04.06h1.62c.03 0 .05-.04.04-.06l-.82-2.05a.05.05 0 0 0-.04-.03.05.05 0 0 0-.04.03Zm33.52 3.67c.04-.13.2-.45.32-.65h2.4l.3.61c.03.05-.01.1-.07.11h-.59c-.02 0-.04 0-.05.02a.08.08 0 0 0-.03.06v.83c0 .02.02.04.04.06a.1.1 0 0 0 .07.03h2.58a.1.1 0 0 0 .1-.1v-.84c0-.04-.02-.06-.06-.06h-.65c-.08 0-.13-.13-.16-.2-.63-1.54-1.31-3.08-1.92-4.64a.24.24 0 0 0-.24-.16H46.7c-.02 0-.04 0-.06.02a.08.08 0 0 0-.02.06v.82c0 .03 0 .05.03.07a.1.1 0 0 0 .06.03h.59c.05 0 .1.05.08.1-.1.37-.27.64-.42 1-.4.97-.8 1.83-1.19 2.78-.03.08-.1.13-.2.12h-.47a.07.07 0 0 0-.08.06 5.31 5.31 0 0 0 .01.92l.04.02h2.51c.07 0 .13-.06.13-.13v-.8c0-.05-.02-.07-.07-.07h-.66c-.03 0-.05-.04-.05-.07Zm1.48-3.67-.8 2.05c-.01.03.01.06.04.06h1.62c.03 0 .05-.04.04-.06l-.82-2.05a.05.05 0 0 0-.04-.03.05.05 0 0 0-.04.03ZM26.07 33c-.02 0-.07.01-.07.03v.9c0 .04.04.07.08.07h2.68c.1 0 .16-.05.16-.16v-.64c0-.05 0-.2-.1-.2h-.73a.09.09 0 0 1-.08-.08L28 31.9c0-.02 0-.04.02-.05a.08.08 0 0 1 .06-.03c.23 0 .54 0 .84-.02.15 0 .26.06.33.18l1 1.77c.09.14.1.24.32.25h1.19c.06 0 .24 0 .24-.1v-.74c0-.1-.04-.15-.14-.16h-.54a.14.14 0 0 1-.13-.06l-.84-1.38c-.01-.03 0-.06.03-.08.7-.26 1.2-.85 1.17-1.63-.06-1.3-1.24-1.84-2.44-1.84l-3-.01c-.07 0-.1.03-.1.1v.76c-.01.06 0 .15.08.14h.67c.07 0 .25 0 .25.11l-.01 3.9h-.93Zm1.96-3.97a.09.09 0 0 0-.03.07v1.81c0 .02.01.05.03.06a.1.1 0 0 0 .07.03h1.12c.5 0 1.1-.44 1.1-1v-.16c0-.57-.6-.84-1.1-.84h-1.13a.1.1 0 0 0-.06.03Z" fill="#262C7A"/><defs><linearGradient id="a" x1="31.19" y1="17" x2="31.19" y2="24.99" gradientUnits="userSpaceOnUse"><stop stop-color="#B15F1C"/><stop offset="1" stop-color="#854023"/></linearGradient><linearGradient id="b" x1="26.28" y1="18.47" x2="30.43" y2="22.55" gradientUnits="userSpaceOnUse"><stop stop-color="#A6A5AA"/><stop offset="1" stop-color="#6B7277"/></linearGradient><linearGradient id="c" x1="24.81" y1="17" x2="24.81" y2="24.99" gradientUnits="userSpaceOnUse"><stop stop-color="#39379C"/><stop offset="1" stop-color="#000039"/></linearGradient><linearGradient id="d" x1="29.66" y1="23.53" x2="25.51" y2="19.43" gradientUnits="userSpaceOnUse"><stop stop-color="#6B7277"/><stop offset="1" stop-color="#A6A5AA"/></linearGradient></defs></svg>