<?xml version='1.0' encoding='utf-8'?>
<!-- by TradeStack -->
<svg fill="none" viewBox="0 0 56 56" xmlns="http://www.w3.org/2000/svg"><path fill="#F0F3FA" d="M0 0h56v56H0z" /><path fill-rule="evenodd" clip-rule="evenodd" d="M23 18v8.988h3.864c1.18 0 2.136-1.242 2.136-2.545 0-1.043-.88-1.785-1.24-2.026.623-.544.74-1.253.74-1.917 0-1.99-1.192-2.485-1.96-2.5H23Zm1 4v-3h2.121c.762 0 1.379.672 1.379 1.5s-.617 1.5-1.379 1.5H24Zm0 4v-3h2.424c.87 0 1.576.672 1.576 1.5s-.706 1.5-1.576 1.5H24Zm9.488-8L30 27h1.31l.748-2h3.962l.73 2H38l-3.392-9h-1.12Zm2.168 6h-3.224l1.632-4.368L35.656 24ZM39 27v-9h1v8h5v1h-6Zm-16 2v9h3.345C27.81 38 29 36.74 29 35.185v-3.37C29 30.26 27.811 29 26.345 29H23Zm1 1v7h2.23c.977 0 1.77-.98 1.77-2.19v-2.62c0-1.21-.793-2.19-1.77-2.19H24Zm7-1v9h6v-1h-5v-3h4v-1h-4v-3h5v-1h-6Zm8 9v-9h3.144C43.624 29 45 30.14 45 31.547c0 1.21-1.019 2.154-2.247 2.394L45 38h-1.141l-2.209-4H40v4h-1Zm1-5v-3h2.025c1.09 0 1.975.672 1.975 1.5s-.884 1.5-1.975 1.5H40Z" fill="#C4391C" /><path fill-rule="evenodd" clip-rule="evenodd" d="M18 18v20h2V18h-2Zm-2 5a4 4 0 1 1-8 0 4 4 0 0 1 8 0Zm-1.5 0a2.5 2.5 0 1 1-5 0 2.5 2.5 0 0 1 5 0Z" fill="#000" /></svg>