<?xml version='1.0' encoding='utf-8'?>
<!-- by TradeStack -->
<svg width="56" height="56" viewBox="0 0 56 56" xmlns="http://www.w3.org/2000/svg"><path fill="#F0F3FA" d="M0 0h56v56H0z" /><path d="M27.51 26.03c4.37-.18 7.54 3.92 7.08 8.05-.61 4.7-4.98 7.9-9.59 7.92-6.38.02-11-6-11-12.17C14 22 21.3 17.06 29.03 17c1.1 0 2.18.1 3.18.36.43.12.8.24 1.22.24.49.06.98-.24 1.28-.66.61-.96.06-3-1.03-3.3A18.38 18.38 0 0 0 28.5 13c-9.05.16-17.52 7.18-17.5 16.5.01 7.53 6.37 14.48 13.7 14.5h.3c5.42-.13 10.76-4.56 11-10.16a8.21 8.21 0 0 0-6.84-8.65c-.53-.07-1.11-.23-1.65-.19-.28.02-.5.17-.51.46-.02.38.3.57.51.57Z" fill="url(#a4ak5mg4b)" /><path d="M29 19c8.6-.01 15.72 7.56 16 16 .03 1.04-.04 2.08-.2 3.13-.18 1-1.32 1.53-2.22 1.12a1.83 1.83 0 0 1-.85-1.06c-.16-.99.29-2.18.28-3.19-.04-6.89-6.04-13-13.01-13-5.47 0-10.9 4.37-11 10a7.38 7.38 0 0 0 4.9 7.07c.23.12.6.36.36.77-.35.5-2.17-.12-2.53-.47A9.12 9.12 0 0 1 16 31.22c-.1-6.88 6.37-12.2 13-12.22Z" fill="url(#b4ak5mg4b)" /><defs><linearGradient id="a4ak5mg4b" x1="26.89" y1="44" x2="34.09" y2="15.76" gradientUnits="userSpaceOnUse"><stop stop-color="#01558C" /><stop offset=".48" stop-color="#73A2C0" /><stop offset="1" stop-color="#00558C" /></linearGradient><linearGradient id="b4ak5mg4b" x1="16" y1="29.5" x2="45" y2="30.05" gradientUnits="userSpaceOnUse"><stop stop-color="#7184AD" /><stop offset=".5" stop-color="#B4BDD3" /><stop offset="1" stop-color="#7184AD" /></linearGradient></defs></svg>