<?xml version='1.0' encoding='utf-8'?>
<!-- by TradeStack -->
<svg width="56" height="56" viewBox="0 0 56 56" xmlns="http://www.w3.org/2000/svg"><path fill="#F0F3FA" d="M0 0h56v56H0z" /><path d="M13 24v-4h1.56c.64 0 1.29.3 1.29 1.03 0 .3-.13.54-.34.7-.1.07-.23.12-.36.15v.04c.51.03.85.48.85.97 0 .75-.66 1.11-1.34 1.11H13Zm1-.7h.5c.45 0 .65-.19.65-.49 0-.36-.3-.56-.64-.56H14v1.06Zm0-1.63h.43c.3 0 .59-.18.59-.5 0-.3-.2-.49-.57-.49H14v1Z" /><path fill-rule="evenodd" d="M17 24h1l.33-1h1.34l.33 1h1l-1.43-4h-1.14L17 24Zm2.33-2L19 21l-.33 1h.66ZM26 30h1l.33-1h1.34l.33 1h1l-1.43-4h-1.14L26 30Zm2.33-2L28 27l-.33 1h.66ZM45 30h1l.33-1h1.34l.33 1h1l-1.43-4h-1.14L45 30Zm2.33-2L47 27l-.33 1h.66Z" /><path d="M21.45 20h1l1.05 1.72L24.54 20h1.01L24 22.59V24h-1v-1.41L21.45 20ZM26 24v-4h1.57c.8 0 1.43.67 1.43 1.5 0 .84-.64 1.5-1.45 1.5h-1v-1h.86c.41 0 .59-.07.59-.5s-.18-.5-.59-.5H27v3h-1Z" /><path fill-rule="evenodd" d="M32 24c1.16 0 2-.84 2-2 0-1.16-.84-2-2-2-1.17 0-2 .84-2 2 0 1.16.84 2 2 2Zm0-1c.58 0 1-.42 1-1 0-.58-.42-1-1-1-.58 0-1 .42-1 1 0 .58.42 1 1 1ZM38 30c1.16 0 2-.84 2-2 0-1.16-.84-2-2-2-1.17 0-2 .84-2 2 0 1.16.84 2 2 2Zm0-1c.58 0 1-.42 1-1 0-.58-.42-1-1-1-.58 0-1 .42-1 1 0 .58.42 1 1 1ZM19 36c1.16 0 2-.84 2-2 0-1.16-.84-2-2-2-1.17 0-2 .84-2 2 0 1.16.84 2 2 2Zm0-1c.58 0 1-.42 1-1 0-.58-.42-1-1-1-.58 0-1 .42-1 1 0 .58.42 1 1 1ZM35 20v4h1v-1h.55l.5 1H38l-.65-1.25c.4-.26.65-.72.65-1.25 0-.83-.62-1.5-1.43-1.5H35Zm1 2h.41c.41 0 .59-.07.59-.5s-.18-.5-.59-.5H36v1Z" /><path d="M38.5 21v-1h4v1H41v3h-1v-3h-1.5ZM29.5 27v-1h4v1H32v3h-1v-3h-1.5ZM9.5 27v-1h4v1H12v3h-1v-3H9.5ZM4 26h1v4H4zM34 26h1v4h-1zM29 32h1v4h-1zM14 30v-4h3v1h-2v.5h1.84v1H15v.5h2v1h-3Z" /><path fill-rule="evenodd" d="M18 26v4h1v-1h.55l.5 1H21l-.65-1.25c.4-.26.65-.72.65-1.25 0-.83-.62-1.5-1.43-1.5H18Zm1 2h.41c.41 0 .59-.07.59-.5s-.18-.5-.59-.5H19v1Z" /><path d="M9 26v4h-.65L7 28v2H6v-4h.67L8 28v-2h1ZM25 26v4h-.66L23 28v2h-1v-4h.67L24 28v-2h1ZM34 32v4h-.66L32 34v2h-1v-4h.67L33 34v-2h1ZM44 26v4h-.66L42 28v2h-1v-4h.67L43 28v-2h1ZM50 30v-4h1v3h1v1h-2ZM22 36v-4h1v3h1v1h-2ZM13 32h1v1.5h1V32h1v4h-1v-1.5h-1V36h-1v-4ZM26.26 36H25v-4h1.27c.92 0 1.73.68 1.73 2 0 1.32-.82 2-1.74 2ZM26 35h.23c.62 0 .77-.15.77-1s-.15-1-.77-1H26v2ZM39 33.43h-1a1.04 1.04 0 0 0-1-.72c-.66 0-1 .53-1 1.29s.44 1.29 1 1.29c.67 0 .86-.2 1-.33v-.39h-1V34h2v1.14c-.2.35-.67.86-2 .86s-2-1-2-2c0-.86.4-2 2.07-2 1.43 0 1.84.97 1.93 1.43ZM42.18 33.17c-.03-.3-.26-.48-.65-.48-.27 0-.53.11-.53.43 0 .8 1.99.35 2 1.71 0 .82-.75 1.17-1.47 1.17-.8 0-1.51-.41-1.53-1.28h.78c.02.4.37.59.74.59.29 0 .48-.13.48-.48 0-.66-2-.36-2-1.65 0-.78.84-1.18 1.54-1.18.7 0 1.4.4 1.4 1.17h-.76Z" /></svg>