<?xml version='1.0' encoding='utf-8'?>
<!-- by TradeStack -->
<svg width="56" height="56" viewBox="0 0 56 56" xmlns="http://www.w3.org/2000/svg"><path fill="#F0F3FA" d="M0 0h56v56H0z" /><path fill-rule="evenodd" d="M39 15h-6l-5-5-5 5h-6v6.25L10 28l7 6.75V41h6l5 5 5-5h6v-6.25L46 28l-7-6.75V15Zm5.1 12.52L39 22.58v4.94h5.1Zm-6.1-.88L36.46 28 38 29.36v-2.72Zm1 1.84v4.94l5.1-4.94H39ZM35 28l3-2.67V16h-2v9.08L33.11 28 36 30.92V40h2v-9.33L35 28Zm-2.76.48h-8.48L21 31.32V40h2v-7.5l2-2.5h6l2 2.5V40h2v-8.68l-2.76-2.84Zm-8.48-.96h8.48L35 24.68V16h-2v7.5L31.05 26h-6.1L23 23.5V16h-2v8.68l2.76 2.84Zm-.87.48L20 30.92V40h-2v-9.33L21 28l-3-2.67V16h2v9.08L22.89 28Zm-3.35 0L18 26.64v2.72L19.54 28Zm-2.54.48h-5.1l5.1 4.94v-4.94Zm0-.96v-4.94l-5.1 4.94H17Zm15-4.2L30.65 25h-5.3l-1.39-1.68L28 19.51l4 3.81Zm-4.48-11.46v6.79l-3.56 3.6v-6.57l3.56-3.82Zm4.52 10.38-3.56-3.6v-6.78l3.56 3.82v6.56ZM32 32.68 30.65 31h-5.3L24 32.68l4 3.81 4-3.81Zm-4.48 11.46v-6.79L24 34v6.28l3.52 3.86ZM32 34l-3.52 3.35v6.79L32 40.28V34Z" fill="#B85535" /></svg>