<?xml version='1.0' encoding='utf-8'?>
<!-- by TradeStack -->
<svg width="56" height="56" viewBox="0 0 56 56" xmlns="http://www.w3.org/2000/svg"><path fill="#F0F3FA" d="M0 0h56v56H0z" /><path d="M28.92 15.46c-9.64-.31-15.61 9.4-12 17.86 0 .03 0 .06-.02.08l-2.36 3.14a.06.06 0 0 1-.05.02.06.06 0 0 1-.04-.03A16.02 16.02 0 0 1 12 27.62a15.94 15.94 0 0 1 20.4-14.98v.02l-.01.01-2.07 2.86a.1.1 0 0 1-.09.04c-.44-.04-.92-.1-1.31-.11ZM43.86 29.94a15.25 15.25 0 0 0-8.24-12.07.09.09 0 0 0-.05.02L25.3 29.37l-.01.02v.01l.02.01h.01a22.34 22.34 0 0 1 13.8.86l-.01.01h-.02c-7.43-1.55-15.45-.32-21.44 4.49h-.02a.02.02 0 0 1-.02-.02l16.37-21.58a.08.08 0 0 1 .1-.03 16.05 16.05 0 0 1 9.85 16.53c-.01.13-.02.22 0 .27 0 .03-.01.04-.04.03-.02 0-.03 0-.03-.03Z" fill="#5DAE32" /><path d="M28.7 33c-7.6 1.27-11.97 4.36-16.67 10.1 0 .01-.01.02-.02.01H12c4.97-7.7 10.9-12.17 20.55-12.59 3.66-.15 7.45.3 10.55 2.22.1.07.14.16.1.28-3.54 10.94-17.43 14.72-25.94 6.65-.04-.04-.04-.07 0-.1l2.57-1.92c.03-.02.06-.02.1 0 2.4 2.46 5.29 3.53 8.68 3.71 2.98.16 5.63-.66 7.95-2.46a15.74 15.74 0 0 0 4.32-5.17l-.01-.02-.02-.01c-3.7-1.73-8.26-1.36-12.16-.7Z" fill="#38739B" /></svg>