<!-- by TradeStack --><svg width="56" height="56" viewBox="0 0 56 56" xmlns="http://www.w3.org/2000/svg"><path fill="#F0F3FA" d="M0 0h56v56H0z"/><path d="M22.66 38.01c2.1-.9 3.7-2.33 4.79-4.26a10.4 10.4 0 0 0 1.4-5.47 10.34 10.34 0 0 0-6.1-9.25c-.09-.04-.16-.02-.2.07a.44.44 0 0 1-.14.14 9.37 9.37 0 0 0-9.4 1.43 10.1 10.1 0 0 0-3.05 11.42 9.78 9.78 0 0 0 7.56 6.23 9.3 9.3 0 0 0 4.89-.57l.22.25a9.67 9.67 0 0 1-8.95-.8A10.43 10.43 0 0 1 9 28.3c.04-2.69.98-5 2.81-6.95a9.38 9.38 0 0 1 6.65-3.1c1.45-.05 2.81.18 4.1.7.05.03.1.02.15-.03a12.59 12.59 0 0 1 7.62-3.82c2.1-.25 4.08-.03 5.97.67A13.47 13.47 0 0 1 44.77 26c.46 2.55.23 5.04-.69 7.46a13.21 13.21 0 0 1-9.84 8.33A12.68 12.68 0 0 1 22.66 38Z"/><path d="m22.66 38.01-.03-.01-.22-.25a13.68 13.68 0 0 1-3.53-9.77 13.72 13.72 0 0 1 3.66-8.88c.05-.09.12-.1.2-.07a10.34 10.34 0 0 1 6.1 9.25 10.4 10.4 0 0 1-1.39 5.47 9.87 9.87 0 0 1-4.8 4.26Z" fill="#DF9000"/></svg>