<?xml version='1.0' encoding='utf-8'?>
<!-- by TradeStack -->
<svg width="56" height="56" viewBox="0 0 56 56" xmlns="http://www.w3.org/2000/svg"><path fill="#F0F3FA" d="M0 0h56v56H0z" /><path fill-rule="evenodd" d="M23.97 34H4.1a.1.1 0 0 1-.1-.12l.48-2.3a.1.1 0 0 1 .1-.08h12.8l.57-2.5H5.15a.1.1 0 0 1-.1-.12l.48-2.3a.1.1 0 0 1 .1-.08h12.9l.45-2H6.22a.1.1 0 0 1-.1-.12l.48-2.3a.1.1 0 0 1 .1-.08h19.89c2.26 0 2.85 1.38 2.86 2.07a3.59 3.59 0 0 1-1.98 3.27c.97.58 1.46 1.08 1.3 2.44l1.74-7.6c.03-.1.12-.18.23-.18h6.85c2.26 0 2.85 1.38 2.86 2.07a3.59 3.59 0 0 1-1.97 3.27c1.23.74 1.7 1.36 1 3.8a2.6 2.6 0 0 1-.06.22l3.12-3.42c.19-.2.23-.5.11-.75l-2.36-4.91a.2.2 0 0 1 .18-.28h3.96a.2.2 0 0 1 .19.14l1 3.04 2.4-2.94a.67.67 0 0 1 .5-.24H52l-4.85 5.6 2.78 6.12a.2.2 0 0 1-.19.28h-4.1a.2.2 0 0 1-.18-.13l-1.18-3.41-2.97 3.34a.6.6 0 0 1-.45.2H37l.86-.94c-.98.58-2.16.86-2.89.94H28.1a.23.23 0 0 1-.22-.28l.54-2.38c-.67 1.81-3.22 2.53-4.45 2.66Zm-1.86-7.5.5-2h2.23c.27 0 .82.13.82.77 0 .8-.53 1.23-1.48 1.23h-2.07Zm-.88 4.5.54-2h2.41c.3 0 .9.13.9.77 0 .8-.57 1.23-1.6 1.23h-2.25Zm11.89-4.5.5-2h2.22c.27 0 .82.13.82.77 0 .8-.52 1.23-1.47 1.23h-2.07Zm-.9 4.5.55-2h2.42c.3 0 .89.13.89.77 0 .8-.57 1.23-1.6 1.23h-2.25Z" fill="#00498F" /></svg>