<!-- by TradeStack --><svg viewBox="0 0 56 56" xmlns="http://www.w3.org/2000/svg"><path fill="#F0F3FA" d="M0 0h56v56H0z"/><path d="M20.97 15H12v.09c3.06.48 6 3.15 6 6.41 0 3.26-2.94 5.93-6 6.41V28h8.97c1.87 0 3.65-.68 4.97-1.9A6.26 6.26 0 0 0 28 21.5c0-1.72-.74-3.38-2.06-4.6a7.32 7.32 0 0 0-4.97-1.9Z" fill="#D71414"/><path d="M35.98 15H27v.09a7.18 7.18 0 0 1 4.2 2.21 6.37 6.37 0 0 1 1.8 4.2c0 1.54-.73 3.03-1.8 4.2A7.18 7.18 0 0 1 27 27.9V28h8.98c1.86 0 3.65-.68 4.96-1.9a6.08 6.08 0 0 0 1.52-7.08 6.5 6.5 0 0 0-1.52-2.12 7.09 7.09 0 0 0-2.28-1.4 7.52 7.52 0 0 0-2.68-.5ZM22.13 28H12c1.76 0 3.46.61 4.75 1.72a6.17 6.17 0 0 1 .79 8.77 7.14 7.14 0 0 1-4.38 2.42V41h8.97A7.3 7.3 0 0 0 27 39.05a6.26 6.26 0 0 0 2-4.55c0-1.7-.72-3.33-2-4.55A7.3 7.3 0 0 0 22.13 28Z" fill="#7E706A"/><path d="M36.13 28H26c1.76 0 3.46.61 4.75 1.72a6.17 6.17 0 0 1 .79 8.77 7.14 7.14 0 0 1-4.38 2.42V41h8.97A7.3 7.3 0 0 0 41 39.05a6.26 6.26 0 0 0 2-4.55c0-1.7-.72-3.33-2-4.55A7.3 7.3 0 0 0 36.13 28Z" fill="#D71414"/></svg>