<!-- by TradeStack --><svg width="56" height="56" viewBox="0 0 56 56" fill="none" xmlns="http://www.w3.org/2000/svg">
<rect width="56" height="56" fill="#0E2E4F"/>
<path fill-rule="evenodd" clip-rule="evenodd" d="M18.1563 37.8667L25.0674 44.7397C25.9079 45.5756 27.0194 45.9687 28.1206 45.9688C29.1415 45.9688 30.1535 45.5145 30.9327 44.7397L44.7548 30.9936C45.5298 30.2229 45.9999 29.2232 45.9999 28.2135C45.9999 27.113 45.5996 26.0007 44.7548 25.1606C40.938 21.3648 34.7495 21.3648 30.9327 25.1606L18.1563 37.8667Z" fill="url(#paint0_linear_5085_142439)"/>
<path fill-rule="evenodd" clip-rule="evenodd" d="M18.1563 18.2872L11.2452 25.1602C10.3988 26.002 9.99988 27.117 9.99988 28.2198C9.99988 29.2271 10.472 30.2242 11.2452 30.9932L25.0674 44.7392C25.8923 45.5596 26.9783 45.9687 28.0594 45.9687C29.1009 45.9688 30.1379 45.5296 30.9327 44.7392C34.7495 40.9434 34.7495 34.789 30.9327 30.9932L18.1563 18.2872Z" fill="url(#paint1_linear_5085_142439)"/>
<path fill-rule="evenodd" clip-rule="evenodd" d="M37.8437 18.1333L30.9326 11.2603C29.313 9.64958 26.687 9.64958 25.0673 11.2603L11.2452 25.0064C10.4078 25.8391 9.99994 26.9393 9.99994 28.0304C9.99994 29.0499 10.4628 30.0614 11.2452 30.8394C15.062 34.6352 21.2505 34.6352 25.0673 30.8394L37.8437 18.1333Z" fill="url(#paint2_linear_5085_142439)"/>
<path fill-rule="evenodd" clip-rule="evenodd" d="M28.0775 27.9999L30.9327 25.1604C34.7496 21.3645 40.938 21.3645 44.7549 25.1604C45.5321 25.9333 45.9924 26.9367 45.9999 27.9494C45.9999 27.9406 46 27.9317 46 27.9228C46 26.8673 45.5647 25.8117 44.7548 25.0063L30.9327 11.2603C30.1228 10.4549 29.0614 9.96875 28 9.96875C26.9386 9.96875 25.8772 10.4549 25.0674 11.2603C21.2505 15.0561 21.2505 21.2105 25.0674 25.0063L28 27.9228L28.0775 27.9999Z" fill="url(#paint3_linear_5085_142439)"/>
<circle cx="28" cy="28" r="2" fill="white"/>
<circle cx="28" cy="28" r="3" fill="white" fill-opacity="0.4"/>
<path fill-rule="evenodd" clip-rule="evenodd" d="M28 36C32.4183 36 36 32.4183 36 28C36 23.5817 32.4183 20 28 20C23.5817 20 20 23.5817 20 28C20 32.4183 23.5817 36 28 36ZM28 37C32.9706 37 37 32.9706 37 28C37 23.0294 32.9706 19 28 19C23.0294 19 19 23.0294 19 28C19 32.9706 23.0294 37 28 37Z" fill="white"/>
<ellipse cx="28.0219" cy="28" rx="4.02194" ry="4" fill="white" fill-opacity="0.4"/>
<defs>
<linearGradient id="paint0_linear_5085_142439" x1="31.1554" y1="48.8162" x2="31.4117" y2="19.3" gradientUnits="userSpaceOnUse">
<stop offset="0.348632" stop-color="#786033"/>
<stop offset="0.506141" stop-color="#AE8E37"/>
<stop offset="0.593394" stop-color="#C7AA5A"/>
<stop offset="0.708228" stop-color="#E4C982"/>
<stop offset="0.803023" stop-color="#A1854A"/>
<stop offset="0.925285" stop-color="#765E34"/>
</linearGradient>
<linearGradient id="paint1_linear_5085_142439" x1="7.14611" y1="31.2147" x2="36.8257" y2="31.4753" gradientUnits="userSpaceOnUse">
<stop offset="0.348632" stop-color="#786033"/>
<stop offset="0.499851" stop-color="#AE8E37"/>
<stop offset="0.613455" stop-color="#C7AA5A"/>
<stop offset="0.704518" stop-color="#E4C982"/>
<stop offset="0.805542" stop-color="#A1854A"/>
<stop offset="0.923475" stop-color="#765E34"/>
</linearGradient>
<linearGradient id="paint2_linear_5085_142439" x1="24.8446" y1="7.1838" x2="24.5883" y2="36.7" gradientUnits="userSpaceOnUse">
<stop offset="0.348632" stop-color="#786033"/>
<stop offset="0.536467" stop-color="#AE8E37"/>
<stop offset="0.628048" stop-color="#C7AA5A"/>
<stop offset="0.697437" stop-color="#E4C982"/>
<stop offset="0.815883" stop-color="#A1854A"/>
<stop offset="0.925045" stop-color="#765E34"/>
</linearGradient>
<linearGradient id="paint3_linear_5085_142439" x1="48.5927" y1="24.77" x2="21.913" y2="24.5603" gradientUnits="userSpaceOnUse">
<stop offset="0.348632" stop-color="#786033"/>
<stop offset="0.528728" stop-color="#AE8E37"/>
<stop offset="0.611691" stop-color="#C7AA5A"/>
<stop offset="0.766117" stop-color="#E4C982"/>
<stop offset="0.850756" stop-color="#A1854A"/>
<stop offset="0.951971" stop-color="#765E34"/>
</linearGradient>
</defs>
</svg>
