<!-- by TradeStack --><svg width="56" height="56" viewBox="0 0 56 56" xmlns="http://www.w3.org/2000/svg"><path fill="#F0F3FA" d="M0 0h56v56H0z"/><path d="M9.77 32H6v-8h3.88c1.33 0 2.9.27 2.9 1.9 0 .85-.52 1.41-1.2 1.53v.12c.91.2 1.42.98 1.42 2C13 31.4 11.38 32 9.77 32ZM8 25.72V27h1.71c.4-.06.74 0 .74-.55 0-.59-.34-.7-.77-.73H8Zm0 2.85V30h1.77c.42-.03.82-.02.82-.7 0-.58-.42-.7-.85-.73H8ZM47.7 29.7c-.18-.47-.27-.7-.63-.7H46v3h-2v-8h3.07c1.69 0 3.35.43 3.35 2.43 0 .9-.45 1.7-1.27 2.05v.09l.07.02c.17.04.34.1.53.42C50.05 29.53 51 32 51 32h-2.39l-.9-2.26-.01-.05ZM46 27h1.06c.43-.03.94-.06.94-.76 0-.61-.46-.64-.91-.66H46V27ZM37 24v8h6v-2h-4v-1h4v-2h-4v-1h4v-2h-6ZM34 29v3h2v-8h-2v3h-3v-3h-2v8h2v-3h3ZM26.58 26c.74 0 1.42.2 1.42.2v-2.04s-.65-.16-1.67-.16c-2.49 0-4.36 1.16-4.33 4 0 2.58 1.67 4 4.13 4 1.53 0 1.87-.2 1.87-.2v-2c-.34.13-1.02.2-1.42.2-1.16 0-2.59-.36-2.58-2 0-1.64 1.4-2 2.58-2ZM14 28.59c0 2.13 1.22 3.41 3.5 3.41 2.33 0 3.47-1.3 3.5-3.43V24h-2v4.87c0 .63-.75 1.13-1.5 1.13-.72 0-1.5-.44-1.5-1.1V24h-2v4.59Z" fill="#DC241F"/></svg>