<!-- by TradeStack --><svg width="56" height="56" viewBox="0 0 56 56" xmlns="http://www.w3.org/2000/svg"><path fill="#274F82" d="M0 0h56v56H0z"/><path d="M13 21.55c0-.86.7-1.55 1.54-1.55H22l-8.28 13.81c-.2.34-.72.2-.72-.2V21.55Zm30 12.9c0 .86-.7 1.55-1.54 1.55H34l8.28-13.81c.2-.34.72-.2.72.2v12.06Zm-28.21 3.33a1.58 1.58 0 0 1-.58-2.16l3.8-6.62 7.94 14.41c.2.35-.2.74-.54.53l-10.62-6.16Zm26.42-19.56c.76.44 1.01 1.4.58 2.16L37.99 27l-7.94-14.41c-.2-.35.2-.74.54-.53l10.62 6.16ZM30.03 43.8c-.76.41-1.74.17-2.18-.55L24 37h16.6c.41 0 .55.5.2.7l-10.77 6.1Zm-4.06-31.6a1.65 1.65 0 0 1 2.18.55L32 19H15.4c-.41 0-.55-.5-.2-.7l10.77-6.1Z" fill="#fff"/></svg>