<?xml version='1.0' encoding='utf-8'?>
<!-- by TradeStack -->
<svg width="56" height="56" viewBox="0 0 56 56" xmlns="http://www.w3.org/2000/svg"><path fill="#F0F3FA" d="M0 0h56v56H0z" /><path d="M6 28v-6h2.05c.95 0 1.74.55 1.74 1.56 0 .6-.34 1.11-.94 1.27v.06c.75.05 1.15.8 1.15 1.48C10 27.42 9.17 28 8.17 28H6Zm1-1h1.02c.51 0 .98-.14.98-.72a.92.92 0 0 0-.96-.95H7V27Zm0-2.45h.93c.5 0 .89-.35.89-.85 0-.47-.3-.7-.87-.7H7v1.55ZM11.98 28H11l1.9-6h1.2l1.9 6h-.9l-1.6-5-1.52 5Zm.1-2h2.84v1h-2.84v-1ZM22 22v6h-.98l-3.03-4.26V28H17v-6h.99l3.03 4.28V22H22ZM28 24h-1c-.11-.67-.71-1-1.39-1C24.5 23 24 24.02 24 25s.49 2 1.61 2c.66 0 1.27-.34 1.39-1h1c-.17 1.2-1.2 2-2.4 2-1.68 0-2.6-1.45-2.6-3s.92-3 2.6-3c1.23 0 2.24.76 2.4 2ZM29 28v-6h1.96c1.14 0 2.04.8 2.04 1.92 0 1.15-.84 2.08-2.05 2.08h-1.4v-1h1.27c.63 0 1.18-.45 1.18-1.08 0-.64-.55-.92-1.18-.92H30v5h-1Zm2.7-2.72L33 28h-1.06l-1.27-2.72h1.03ZM39 25c0 1.5-.85 3-2.5 3S34 26.5 34 25s.84-3 2.5-3c1.65 0 2.5 1.5 2.5 3Zm-1 0c0-.94-.4-2-1.5-2S35 24.06 35 25s.4 2 1.5 2 1.5-1.06 1.5-2ZM40 28v-6h4v1h-3v1.5h2.5v1H41V28h-1ZM17 38v-6h4v1h-3v1.5h2.5v1H18V38h-1ZM45 23v-1h5v1h-2v5h-1v-5h-2ZM26 32h1v3.86c0 1.39-1.22 2.14-2.5 2.14s-2.5-.75-2.5-2.14V32h1v3.77c0 .79.75 1.27 1.5 1.27s1.5-.48 1.5-1.27V32ZM33 32v6h-.98l-3.03-4.26V38H28v-6h.99l3.03 4.28V32H33ZM36.06 38H34v-6h2.1c1.77 0 2.9 1.25 2.9 3 0 1.76-1.16 3-2.94 3ZM35 37h1c1.27 0 1.91-.79 1.91-2 0-1.2-.63-2-1.88-2H35v4Z" /></svg>