<!-- by TradeStack --><svg width="56" height="56" viewBox="0 0 56 56" xmlns="http://www.w3.org/2000/svg"><path fill="#F0F3FA" d="M0 0h56v56H0z"/><path d="M40.65 14.36 39.3 13 13 39.3l1.36 1.35 26.3-26.3Zm-7.53 2.84-1.35-1.36-15.93 15.93 1.36 1.35L33.12 17.2Zm5.68 5.68 1.36 1.35-15.93 15.93-1.35-1.36L38.8 22.88Zm3.7 3.7-1.35-1.36-15.93 15.93 1.36 1.36 15.93-15.93ZM29.43 13.49l1.36 1.36-15.93 15.93-1.36-1.36 15.93-15.93Zm-5.8 3.83-1.36-1.36-6.3 6.3 1.36 1.36 6.3-6.3Zm17.4 17.4 1.36 1.37-6.3 6.3-1.35-1.37 6.3-6.3ZM33 26.7l-1.36-1.35-6.3 6.3L26.7 33l6.3-6.3Zm8.64-11.35L43 16.7 36.7 23l-1.35-1.36 6.3-6.3Zm-20.37-.37-1.36-1.36-6.3 6.3 1.37 1.35 6.3-6.3Zm.37 20.37L23 36.7 16.7 43l-1.35-1.36 6.3-6.3Zm18.4-1.6-1.36-1.37-6.3 6.3 1.36 1.36 6.3-6.3Z" fill="#111"/></svg>