<?xml version='1.0' encoding='utf-8'?>
<!-- by TradeStack -->
<svg width="56" height="56" viewBox="0 0 56 56" xmlns="http://www.w3.org/2000/svg"><path fill="#F0F3FA" d="M0 0h56v56H0z" /><path fill-rule="evenodd" d="M18.86 34.35c-1.84 2.04-4.48 6.27-.34 6.85 4.35.6 5.28-5.92 5.67-8.66.08-.52.13-.9.19-1.07.17-.55 1.06-1.38 1.88-2.15.81-.76 1.57-1.46 1.57-1.82 0-.58-.92-.24-1.38 0 .11-1.92-.2-5.77-2.42-5.77-2.2 0-3.21 2.17-3.44 3.25-.35-.48-.97-1.73-.7-2.89.35-1.44.35-3.6-1.03-2.52-1.1.86-1.38 1.8-1.38 2.16a6.69 6.69 0 0 1 .7-3.96c1.03-1.8-2.08-3.6-5.18-2.53C15.18 14.16 20.52 12 24.38 12c3.46 0 5.67 1.3 7.16 2.16.6.34 1.07.62 1.46.72.98.26 1.96.88 3.31 1.73.55.35 1.16.74 1.86 1.16 1.27.36 2.42.72 3.3 1.8 0 .56.22 1.1 0 1.23-.2.13-.36.22-.2.57.16.32.5.63.82.92.4.37.76.68.57.88-.28.3-1.01-.12-1.64-.48l-.43-.24c-.18-.09-.42-.3-.7-.54-.83-.71-1.98-1.7-2.75-.9-.81.85-.2 1.25.55 1.74.2.13.42.27.61.42.9.73 1.6 2.17 1.25 3.25a5 5 0 0 1-.7 1.24c-.41.59-.75 1.06-.33 1.28.69.36 1.72-.72 2.07-1.08.1-.1.17-.28.25-.48.19-.44.4-.96 1.13-.96.82 0 1.03.96 1.03 1.44-.11.48-.48 1.37-1.03 1.08-.32-.16-.49-.25-.65-.23-.19.02-.36.2-.73.6-.56.57-1.61 1.43-2.07 1.8a8.49 8.49 0 0 1 1.72 2.52c.35 1.08-1.03 2.16-2.07 1.44-.6-.41-.28-.59.1-.8.28-.16.6-.33.6-.64 0-.72-1.39-2.16-3.11-2.16v-1.8c-1.04-.25-3.1-.44-3.1.71 0 .78.49 1.45.95 2.07.4.53.77 1.04.77 1.54 0 .93-.26 1.06-.78 1.31l-.26.13c-.28.15-.75.05-1.17-.04-.59-.12-1.1-.23-.9.4.15.44.58.7 1.04.98.66.4 1.38.84 1.38 1.9 0 1.8-.69.73-1.03 0-.16-.32-.31.01-.5.4-.23.5-.5 1.08-.88.69-.26-.27-.23-.54-.2-.84.05-.52.12-1.14-1.18-2.05-.23-.48-.83-1.44-1.38-1.44a3.4 3.4 0 0 0-1.38.36c-.12 1.44-.76 4.33-2.42 4.33l-1.38.36c-.23.84-1.51 2.52-4.82 2.52-3.15 0-3.12-2.94-3.1-3.84v-.13c0-.72.68-3.96 3.44-4.68ZM30.6 21.73c-.56-1.15.92-4.56 1.72-6.13.52 0 1.8.22 2.76 1.09a4.5 4.5 0 0 1 1.38 1.8c-.8.24-2.48.94-2.76 1.8-.28.87-.12 2.76 0 3.6-1.72 0-2.41-.72-3.1-2.16ZM26.45 34c0-2.02 1.84-2.77 2.76-2.89.11.6.13 1.95-.7 2.53-.82.57-1.72.48-2.06.36Zm-.35 1.8c-.46.84-1.51 2.67-2.07 3.24.35.13 1.18.15 1.73-.72a3.6 3.6 0 0 0 .34-2.52Z" /></svg>