<?xml version='1.0' encoding='utf-8'?>
<!-- by TradeStack -->
<svg width="56" height="56" viewBox="0 0 56 56" xmlns="http://www.w3.org/2000/svg"><path fill="#82715B" d="M0 0h56v56H0z" /><path d="m28.97 42.88-.12.6c-.03.36.03.38.2.06.12-.22.24-.48.34-.79.24-1.11.3-2.24.2-3.4 0-.05.01-.11.04-.16.85-1.41.05-3.63-.69-4.95-.04-.08-.07-.08-.07.01a10.2 10.2 0 0 1-.3 2.24 7.1 7.1 0 0 0-.16 2.38c.04.42.23.66.58.73.07.01.11.05.12.12.08 1.08.03 2.13-.14 3.16ZM29.75 42.8a.13.13 0 0 0-.01.05c0 .02 0 .02.03.01.17-.06.3-.2.42-.44.15-.29.23-.59.25-.9.12-1.79.31-3.59.6-5.4.03-.25.02-.26-.06 0a27.87 27.87 0 0 0-.98 5.8c-.03.37-.11.67-.25.89Z" fill="#fff" /><path fill-rule="evenodd" d="M30.9 43.84c.37-.28.66-.5.6-1.18 0-.97.06-2.13.19-3.47.1-1.01.38-1.89.85-2.63.22-.35.51-.64.8-.93.65-.66 1.27-1.29.94-2.47a2.04 2.04 0 0 1-.07-.42c0-.06.01-.1.05-.15.82-1.07 1.75-2.41 1.06-3.76a1.93 1.93 0 0 0-.37-.43c-.32-.32-.67-.67-.37-1.1.2-.28.49-.46.89-.54.63-.13 1.24-.28 1.85-.44a7.75 7.75 0 0 0 5.67-7.94 6.88 6.88 0 0 0-4.53-6.35c-.16-.06-.18-.03-.07.1.3.32.57.65.81.98 1.42 1.9 2.13 4.6.74 6.64-1.03 1.51-3.17 2.74-5.04 2.52a5.33 5.33 0 0 1-1.57-.5c-2.28-1.05-4.26-1.89-6.75-1.42-1.17.22-2.36.75-3.51 1.26l-1.02.45c-.72.3-1.51.34-2.37.1-2.24-.6-4.19-2.11-4.37-4.59-.16-2.06.83-3.92 2.22-5.38.16-.17.13-.22-.09-.13a6.73 6.73 0 0 0-3.77 3.55 7.6 7.6 0 0 0-.56 4.41 7.68 7.68 0 0 0 5.5 6.28c.53.17 1.14.33 1.82.46.4.08.72.24.95.47.34.35.1.82-.22 1.07-.67.52-.88 1.27-.64 2.26.14.54.52 1.06.87 1.54l.26.37c.1.16.14.32.08.49-.36 1.22.06 1.95.93 2.73.8.72 1.29 1.6 1.45 2.6.25 1.56.38 3.2.4 4.93 0 .06.02.11.07.16.27.23.53.48.83.7.25.18.52.36.61.67.02.78.42 1.2 1.2 1.25.13-.01.33-.07.63-.19.13-.05.27-.03.43.08.7.25 1.21.07 1.55-.52.06-.16.11-.32.14-.5.04-.2.1-.36.19-.46.2-.23.5-.39.74-.57Zm-.13-.7a.45.45 0 0 0 .12-.3c.05-1.25.14-2.57.29-3.96.15-1.43.72-2.8 1.8-3.67.68-.56 1.01-1.2.7-2.12a.13.13 0 0 0-.18-.07l-.2.1c-.1.05-.12.02-.06-.08.32-.51.7-1.06 1.14-1.63.72-.95 1.06-2.16-.18-2.9-.18-.1-.23-.3-.3-.47-.17-.5-.4-1.12-.23-1.6a.47.47 0 0 0-.07-.44c-.4-.54-.56-1.16-.22-1.76.27-.48.37-1 .3-1.55a.2.2 0 0 0-.12-.17c-1.2-.56-2.29-1.02-3.3-1.39a6.63 6.63 0 0 0-5 .21c-.93.4-1.87.79-2.8 1.17a.24.24 0 0 0-.16.2c-.06.54.05 1.06.31 1.57.34.66.12 1.21-.3 1.76-.1.12-.11.3-.04.43.23.49.09.8-.07 1.13-.09.2-.18.4-.21.65a.33.33 0 0 1-.15.24c-.39.25-.75.5-.82 1-.1.7.08 1.29.5 1.84.38.48.74.97 1.09 1.49.06.08.09.18.09.28 0 .1-.02.11-.08.03a.31.31 0 0 0-.19-.13c-.07-.01-.11.01-.14.08-.38.84.01 1.54.66 2.11a5.64 5.64 0 0 1 1.88 3.86c.11 1.16.18 2.37.22 3.65 0 .22.09.39.25.52.36.3.73.6 1.11.86.06.04.1.1.12.16.08.32.01.64.15.95.02.06.08.1.14.09.06 0 .09-.04.1-.1a.61.61 0 0 1 .13-.32l.08.31c.01.1.04.16.08.19.07.06.16.06.26 0a.24.24 0 0 0 .13-.2l.06-1.14c-.05-1.04.04-2.01.24-2.93.06-.23.11-.23.16 0 .13.57.22 1.15.26 1.75 0 .74 0 1.49.03 2.23 0 .15.08.26.25.33.1.05.25-.05.26-.17v-.32c0-.12.04-.13.11-.03.05.06.08.13.1.21.06.25.14.26.24.02.05-.12.06-.27.07-.42 0-.26.02-.52.22-.66.27-.19.53-.39.79-.6l.38-.29Z" fill="#fff" /><path d="M26.85 43.3c.08.21.3.28.27.08a11.76 11.76 0 0 1-.3-3.86c.01-.08.05-.12.12-.14.34-.07.54-.28.58-.6.1-.69.1-1.46-.05-2.12-.2-.85-.33-1.7-.42-2.58-.01-.1-.04-.1-.09-.01-.73 1.45-1.38 3.43-.63 4.93a.4.4 0 0 1 .04.23 7.98 7.98 0 0 0 .48 4.08ZM32.8 24.15c.02-.2.05-.2.1-.01.22.77.06 1.4-.41 2.02-.45.59-.91 1.2-1.4 1.82-.02.02-.04.03-.06 0l-.03-.02c.5-.77.96-1.55 1.4-2.36.23-.44.36-.92.4-1.45ZM23.53 25.44A86.32 86.32 0 0 0 25 27.96l-.03.03c-.02.02-.04.01-.05 0-.48-.64-.96-1.27-1.45-1.89a2.11 2.11 0 0 1-.4-1.87c.07-.31.11-.3.12.02.01.41.12.8.34 1.19ZM27.86 27.8a4.6 4.6 0 0 1 .09-2.5c.03-.12.06-.12.1 0a6.09 6.09 0 0 1-.05 3.07.04.04 0 0 1-.06 0v-.04c-.01-.18-.03-.35-.08-.53ZM29.13 29.18c-.22-.22-.16-.24.17-.05l.65.37c.07.03.07.07 0 .1-.25.12-.5.25-.73.39a.09.09 0 0 1-.07 0c-.03 0-.03-.01-.02-.02.28-.25.28-.51 0-.8ZM27 29.04c-.18.14-.3.28-.4.43-.08.15.11.29.17.43.05.12-.01.13-.17.04a4.22 4.22 0 0 1-.6-.43c0-.02.02-.03.04-.05l.76-.44.06-.02a.2.2 0 0 1 .07 0l.06.03c.01 0 .01 0 0 0ZM24.76 31.12c0-.1 0-.2-.02-.29-.02-.13 0-.15.06-.04.16.27.22.57.2.91-.02.1-.05.12-.12.08a.83.83 0 0 1-.2-.2.07.07 0 0 0-.03-.02h-.03l-.03.01-.02.03-.73 1.37-.02.02a.04.04 0 0 1-.06 0l-.01-.04a1.54 1.54 0 0 0-.35-.63c-.4-.44-.77-.86-1.08-1.3-.48-.64-.45-1.67.3-1.96.59-.22 1.05.17 1.37.83.21.46.44.88.66 1.28.08.12.11.1.11-.05ZM31.21 31.12c.01.2.06.21.14.04.15-.3.3-.6.46-.87.46-.85.77-1.57 1.62-1.18.7.31.7 1.15.29 1.83-.33.53-.75.96-1.16 1.38-.14.14-.27.38-.33.6-.03.1-.06.1-.1.02l-.7-1.3c-.03-.08-.08-.1-.14-.04l-.18.15c-.06.06-.1.04-.1-.07-.03-.36.03-.66.17-.89.06-.09.07-.08.05.03-.02.1-.03.2-.02.3ZM25.44 32.4c-.1.05-.22.1-.33.13-.11.03-.14.01-.08-.06l.32-.42a.2.2 0 0 0 .04-.18l-.2-.79c-.02-.09.02-.1.12-.04.95.55.74 2.16.42 2.94 0 .02-.02.02-.05.02-.02 0-.02 0-.02-.02.08-.5.09-1 .03-1.5-.01-.12-.1-.15-.25-.08ZM30.33 32.39a14.96 14.96 0 0 0-.07 1.6h-.03l-.03-.01c-.24-1.16-.4-1.96.36-2.83.18-.21.26-.2.21.04-.03.23-.08.47-.13.7-.02.07 0 .14.05.2l.26.3c.1.1.06.12-.1.04-.1-.05-.22-.1-.34-.12-.12-.02-.18 0-.18.08ZM23.95 33.07l.02-.01c.01 0 .02 0 .02.02a.1.1 0 0 1 .01.04 2.41 2.41 0 0 1-.47.84c-.06.06-.12.05-.18-.03-.14-.2-.24-.44-.32-.71-.06-.23-.03-.28.08-.15.28.3.56.3.84 0Z" fill="#fff" /><path d="M32.94 33.01h.03l.02.02.01.06a.2.2 0 0 1 0 .06c-.27 1.03-.67 1.19-.97.12-.06-.22-.04-.29.07-.2.3.26.57.24.84-.06ZM23.06 34.01c.17.2.4.3.64.35.05.02.08.05.09.1l.38 2.05c0 .02 0 .02-.02.03h-.05c-.02.01-.03 0-.03-.02A5.36 5.36 0 0 0 23 34.07l.01-.05c.01-.02.03-.03.05 0ZM32.66 34.3c.05-.03.1-.07.13-.12.24-.28.27-.23.1.13-.38.85-.65 1.72-.8 2.61-.02.1-.04.1-.07 0a.86.86 0 0 1 0-.33c.1-.68.19-1.34.25-2.01 0-.08.04-.14.1-.17a.31.31 0 0 1 .13-.03c.06 0 .11-.03.16-.07ZM25.04 36.02c.43 2.04.7 4.06.8 6.04.02.28.07.58.15.84.03.1 0 .13-.06.07-.38-.33-.44-1.06-.45-1.63a44.54 44.54 0 0 0-.46-5.34c.01 0 .02 0 .02.02Z" fill="#fff" /></svg>