<!-- by TradeStack --><svg xmlns="http://www.w3.org/2000/svg" width="56" height="56"><path fill="#F0F3FA" d="M0 0h56v56H0z"/><path fill-rule="evenodd" d="M30 11.5h-4A15.5 15.5 0 0010.5 27v2A15.5 15.5 0 0026 44.5h4A15.5 15.5 0 0045.5 29v-2A15.5 15.5 0 0030 11.5zm-4-.5a16 16 0 00-16 16v2a16 16 0 0016 16h4a16 16 0 0016-16v-2a16 16 0 00-16-16h-4z"/><path d="M12 27a14 14 0 0114-14h.26v30H26a14 14 0 01-14-14v-2z" fill="#FF1520"/><path d="M44 27a14 14 0 00-14-14h-.29v30H30a14 14 0 0014-14v-2z" fill="#003E9D"/><path d="M24.28 15.86l1.9-2.86h3.75l1.84 2.86c5.29.95 7.03 4.52 7.03 7.23a6.65 6.65 0 01-2.12 4.73c1.61.94 2.1 3.33 2.12 4.26.08 5.24-4.18 7.17-7.03 7.7L29.93 43h-3.75l-1.9-3.22A9.7 9.7 0 0116.4 31h4.07a24.61 24.61 0 010-6H16.4c.47-6.07 5.44-8.55 7.87-9.14z" fill="#F0F3FA"/><path d="M28.24 17c-6.95-.1-9.6 4.62-10.07 7h4.58c1.08-4.81 4.4-4.6 5.49-4.63 1.34-.06 4.7.71 4.7 3.8 0 2.46-4.11 2.88-5.94 2.78v3.97c.6-.04 5.95-.3 5.95 3.3 0 2.59-3.2 3.5-4.71 3.5-3.85 0-5.23-3.16-5.49-4.72h-4.58c1 4.01 4.67 7.16 10.07 7 5.4-.18 9.2-2.8 9.2-6.42 0-2.66-2.65-4.25-3.98-4.56a4.9 4.9 0 003.98-4.86c0-2.2-2.26-6.06-9.2-6.16z"/><path d="M23.88 25h-2a21.78 21.78 0 000 6h2c.55 3.74 2.67 4.5 4.07 4.5 1.15 0 3.59-.8 3.59-2.4 0-1.61-3.7-1.88-5.54-1.81v-6.74c4.03.24 5.54-.64 5.54-1.48 0-.85-.92-2.57-3.6-2.57-2.66 0-3.9 2.92-4.06 4.5zm2.35-9l1.84-3 1.82 3h-3.66zm-.03 24l1.84 3 1.82-3H26.2z" fill="#00A748"/></svg>