<!-- by TradeStack --><svg width="56" height="56" viewBox="0 0 56 56" xmlns="http://www.w3.org/2000/svg"><path fill="#F0F3FA" d="M0 0h56v56H0z"/><path d="M35.51 30H38v1h-4v-7h1.51v6ZM31.21 26.15c-.32-.58-.9-.88-1.64-.88-1.28 0-2.13 1-2.13 2.23 0 1.3.88 2.26 2.19 2.26 1.13 0 1.9-.7 2.12-1.76H29v-1h4v1.33A3.44 3.44 0 0 1 29.58 31 3.48 3.48 0 0 1 26 27.5c0-2 1.58-3.5 3.57-3.5 1.43 0 2.8.74 3.26 2.15h-1.62ZM22.96 29.67h-2.93L19.55 31H18l2.64-7h1.72L25 31h-1.56l-.48-1.33Zm-.4-1.12-1.07-2.93-1.06 2.93h2.13ZM14.5 25v2H17v1h-2.5v2H17v1h-4v-7h4v1h-2.5ZM39.21 35.15c-.32-.58-.9-.88-1.64-.88-1.28 0-2.13 1-2.13 2.23 0 1.3.88 2.26 2.19 2.26 1.13 0 1.9-.7 2.12-1.76H37v-1h4v1.33A3.44 3.44 0 0 1 37.58 40 3.48 3.48 0 0 1 34 36.5c0-2 1.58-3.5 3.57-3.5 1.43 0 2.8.74 3.26 2.15h-1.62ZM48 33l-2.5 4.56V40H44v-2.44L41.5 33h1.55l1.7 3.2 1.72-3.2H48ZM31.45 40l-1.48-2.73h-.47V40H28v-7h2.51c1.28 0 2.49.64 2.49 2 0 .96-.67 1.9-1.6 2.16L33 40h-1.55Zm-1.95-3.78h.96c.74 0 1.08-.4 1.08-1.04 0-.65-.36-1.18-1.08-1.18h-.96v2.22ZM22 40h-1.5l-3-4.8V40H16v-7h1.5l3 4.8V33H22v7ZM12.5 34v2H15v1h-2.5v2H15v1h-4v-7h4v1h-2.5ZM24.5 34v2H27v1h-2.5v2H27v1h-4v-7h4v1h-2.5ZM40.5 25v2H43v1h-2.5v2H43v1h-4v-7h4v1h-2.5ZM36.4 15c2.05 0 3.6 1.42 3.6 3.51S38.44 22 36.4 22H34v-7h2.4Zm0 6c1.38 0 2.1-1.12 2.1-2.49S37.78 16 36.4 16h-.9v5h.9ZM30.51 21H33v1h-4v-7h1.51v6ZM25.96 20.67h-2.93L22.55 22H21l2.64-7h1.72L28 22h-1.56l-.48-1.33Zm-.4-1.12-1.07-2.93-1.06 2.93h2.13ZM18.73 18.41c.78.16 1.27.93 1.27 1.7 0 1.22-1.03 1.89-2.17 1.89H15v-7h2.71c1.1 0 2.14.61 2.14 1.8a1.6 1.6 0 0 1-1.12 1.61ZM16.5 18h1.02c.64 0 .98-.43.98-.98 0-.57-.35-1.02-.98-1.02H16.5v2Zm1.15 3c.64 0 1.01-.48 1.01-1.07 0-.6-.4-.93-1.04-.93H16.5v2h1.15Z"/></svg>