<?xml version='1.0' encoding='utf-8'?>
<!-- by TradeStack -->
<svg width="56" height="56" viewBox="0 0 56 56" xmlns="http://www.w3.org/2000/svg"><path fill="#F0F3FA" d="M0 0h56v56H0z" /><path d="M42.7 19.46c.23.59.33 1.23.3 1.9-.03-.4-.14-.78-.32-1.13-.42-.82-1.24-1.41-2.37-1.78-3.18-2.28-10.41-1.88-17.87 1.27A36.94 36.94 0 0 0 16.31 23H15.2a38.3 38.3 0 0 1 7.07-4c9.5-4.17 18.64-3.96 20.43.46ZM8.3 34.54A5.04 5.04 0 0 1 8.35 31h.86c-.29 1.03-.27 2 .09 2.86.9 2.13 3.73 3.18 7.54 3.14 3.58.04 8.41-1.11 13.32-3.38 5.49-2.55 9.75-5.88 11.7-8.85-2.1 3.62-6.91 7.52-13.1 10.24-9.5 4.16-18.65 3.95-20.44-.47Z" fill="url(#azp4h0py5)" /><path d="M40.31 18.45c-3.18-2.28-10.41-1.88-17.87 1.27A36.94 36.94 0 0 0 16.31 23h4.4c.99-.56 2.04-1.1 3.14-1.62 6.55-3.03 12.97-4.07 16.46-2.93ZM9.21 31c-.3 1.03-.28 2 .08 2.86.9 2.13 3.73 3.18 7.54 3.14-2.75-.03-4.76-.77-5.51-2.23-.54-1.05-.37-2.35.38-3.77H9.2Z" fill="url(#bzp4h0py5)" /><path d="m47.07 30-.89-2H46v2h-1v-5h1.5c.82 0 1.5.57 1.5 1.5 0 .66-.38 1.23-.96 1.42L48 30h-.93ZM46 27.3h.48c.44 0 .52-.34.52-.8s-.09-.67-.52-.67H46v1.47ZM40 25v.83h-1.5V30h-1v-4.17H36V25h4ZM33.8 30a2.3 2.3 0 0 1-.92-.17 1.5 1.5 0 0 1-.64-.5 1.34 1.34 0 0 1-.24-.78h1.04c.01.2.08.35.2.47.13.12.3.18.53.18.23 0 .4-.06.53-.16.13-.12.2-.26.2-.44a.5.5 0 0 0-.13-.36.88.88 0 0 0-.34-.21 4.5 4.5 0 0 0-.54-.18c-.3-.1-.57-.19-.76-.28-.2-.09-.37-.23-.5-.4-.15-.2-.22-.44-.22-.75 0-.29.08-.54.22-.76.14-.21.34-.37.6-.49.26-.11.55-.17.89-.17.5 0 .9.12 1.2.37.32.24.5.58.52 1.02h-1.06c-.01-.17-.08-.3-.22-.41a.76.76 0 0 0-.51-.17.68.68 0 0 0-.46.15c-.11.1-.17.24-.17.42 0 .14.05.24.13.33.09.09.2.16.32.21l.54.18.76.28c.2.1.37.24.52.42.14.2.21.44.21.74a1.4 1.4 0 0 1-.79 1.26c-.26.13-.56.2-.92.2ZM29.8 30 28 27.92V30h-1v-5h1v2.08L29.8 25h1.14l-2.19 2.5L31 30h-1.2ZM21 27.5c0-1.35 1.08-2.5 2.6-2.5 1.1 0 2.06.6 2.4 1.58h-1.18c-.23-.46-.67-.7-1.23-.7-.99 0-1.59.79-1.59 1.62 0 .84.6 1.62 1.59 1.62.56 0 1-.24 1.23-.7H26c-.34.98-1.29 1.58-2.4 1.58a2.5 2.5 0 0 1-2.6-2.5ZM19.83 29.05h-1.67l-.28.95H17l2-5 2 5h-.89l-.28-.95Zm-.33-.8L19 27l-.5 1.25h1ZM42.83 29.05h-1.67l-.28.95H40l2-5 2 5h-.89l-.28-.95Zm-.33-.8L42 27l-.5 1.25h1ZM15 29h1.5v1H14v-5h1v4ZM12.24 27.44c.49.11.76.68.76 1.2 0 .84-.58 1.36-1.3 1.36H10v-5h1.63c.7 0 1.28.48 1.28 1.29 0 .58-.26.98-.67 1.15ZM11 27.06h.51c.38 0 .49-.22.49-.62s-.1-.6-.49-.6H11v1.22Zm.59 2.1c.39 0 .41-.22.41-.64 0-.43-.05-.68-.43-.68H11v1.33h.59Z" fill="#827D82" /><circle cx="39" cy="22" r="1" fill="url(#czp4h0py5)" /><circle cx="41.5" cy="20.5" r=".5" fill="url(#dzp4h0py5)" /><path d="M44 31c0 1.2-1 2-2 2 1 0 2 1 2 2 0-1 1-2 2-2-1 0-2-1-2-2Z" fill="url(#ezp4h0py5)" /><path d="M41 34c0 .6-.5 1-1 1 .5 0 1 .5 1 1 0-.5.5-1 1-1-.5 0-1-.5-1-1Z" fill="url(#fzp4h0py5)" /><circle cx="9" cy="38" r="1" fill="url(#gzp4h0py5)" /><defs><linearGradient id="azp4h0py5" x1="25.5" y1="16" x2="15" y2="38" gradientUnits="userSpaceOnUse"><stop stop-color="#9A969B" /><stop offset=".16" stop-color="#E7E7E8" /><stop offset=".38" stop-color="#8B8A8B" /><stop offset=".93" stop-color="#D6D7D8" /><stop offset="1" stop-color="#8B868C" /></linearGradient><linearGradient id="bzp4h0py5" x1="39.5" y1="17" x2="15" y2="37" gradientUnits="userSpaceOnUse"><stop stop-color="#9A969B" /><stop offset=".16" stop-color="#E7E7E8" /><stop offset=".57" stop-color="#8B8A8B" /><stop offset=".75" stop-color="#B3AFB2" /><stop offset=".88" stop-color="#969199" /><stop offset="1" stop-color="#908C93" /></linearGradient><linearGradient id="czp4h0py5" x1="39.5" y1="21" x2="38.5" y2="22" gradientUnits="userSpaceOnUse"><stop stop-color="#9D999F" /><stop offset="1" stop-color="#C7C7C9" /></linearGradient><linearGradient id="dzp4h0py5" x1="41.75" y1="20" x2="41.25" y2="20.5" gradientUnits="userSpaceOnUse"><stop stop-color="#9D999F" /><stop offset="1" stop-color="#C7C7C9" /></linearGradient><linearGradient id="ezp4h0py5" x1="42.5" y1="33" x2="45" y2="33" gradientUnits="userSpaceOnUse"><stop stop-color="#ABA8AE" /><stop offset="1" stop-color="#D9D9DB" /></linearGradient><linearGradient id="fzp4h0py5" x1="40.25" y1="35" x2="41.5" y2="35" gradientUnits="userSpaceOnUse"><stop stop-color="#ABA8AE" /><stop offset="1" stop-color="#D9D9DB" /></linearGradient><linearGradient id="gzp4h0py5" x1="9.5" y1="37" x2="8.5" y2="38" gradientUnits="userSpaceOnUse"><stop stop-color="#9D999F" /><stop offset="1" stop-color="#C7C7C9" /></linearGradient></defs></svg>