<?xml version='1.0' encoding='utf-8'?>
<!-- by TradeStack -->
<svg width="56" height="56" viewBox="0 0 56 56" xmlns="http://www.w3.org/2000/svg"><path fill="#F0F3FA" d="M0 0h56v56H0z" /><path fill-rule="evenodd" d="M16 42V21.64c.05-1.02.48-3.38 1.78-4.67 1.3-1.28 3.17-2.9 3.95-3.54A8.97 8.97 0 0 1 26.8 12c.57-.02 2 .04 3.26.47 1.24.43 3.7 1.04 4.76 1.3.25.08.75.4.75 1 0 .76.18.95.65 1.11.47.16 3.78 1.52 3.78 4.83 0 1.31-.76 3.21-1.14 4l-.92-1.64c-1.54.01-4.63.86-4.63 4.16.02.49.24 1.72.96 2.72.3.41.72 1.04 1.17 1.68.62.91 1.28 1.87 1.66 2.37h-1.67l2.85 4H36.7l2.16 4H16Zm12.4-25.86 3.43 2.53-1.68.3-.52.89-2.48-.75L28.4 18l-.82-.72.82-1.14Z" fill="#E02226" /></svg>