<!-- by TradeStack --><svg width="56" height="56" viewBox="0 0 56 56" xmlns="http://www.w3.org/2000/svg"><path fill="#F0F3FA" d="M0 0h56v56H0z"/><path d="M43 28a16 16 0 1 1-2.36-8.37L39.3 21.3a14 14 0 1 0 1.63 5.3l1.74-1.87c.21 1.06.33 2.15.33 3.27Z" fill="#1895CD"/><path fill-rule="evenodd" d="M32.8 23h-2.43l4.01 10h2.05c1.73-4.35 6.65-13.8 12.57-17.47-2.38.42-8.43 3.9-13.57 14.5L32.8 23ZM16 33V23h4.04A4.98 4.98 0 0 1 25 28c0 2.76-2.22 5-4.96 5H16Zm2-2v-6h2.25c1.52 0 2.75 1.34 2.75 3s-1.23 3-2.75 3H18Zm9-8h2v10h-2V23Z" fill="#3A3C5D"/></svg>