<!-- by TradeStack --><svg width="56" height="56" viewBox="0 0 56 56" xmlns="http://www.w3.org/2000/svg"><path fill="#F0F3FA" d="M0 0h56v56H0z"/><path fill-rule="evenodd" d="M18.05 19.3a4.9 4.9 0 0 1 2.76-.21c.33-.06.65-.09.97-.09 1.19 0 2.57.43 4.04 1.06 1.22.52 2.52 1.18 3.86 1.86l.89.45c3.34 1.68 6.86 3.32 10.07 3.32 1.7 0 3.56-.22 4.82-.42l.9-.18.01.03.15-.03.1.44-1.08.2c-1.62.3-4.16.67-5.97.57H28.12c-1.38-.31-3.6-.87-5.8-1.55a27.56 27.56 0 0 1-6.23-2.62A20.28 20.28 0 0 0 9.84 32.2l-.45-.1a20.74 20.74 0 0 1 6.27-10.2l-.58-.3c-.58.5-1.17 1.06-1.72 1.68-2.1 2.35-3.83 5.53-4.13 8.9l-.45-.05.05-.48-.3.12.24.77-.43.14c-1.3-3.83-1.35-7.03-.75-9.3.3-1.12.77-2.02 1.33-2.64.12-.14.25-.26.38-.37h-.44c-.98 0-2 .81-2.3 2.88-.32 2.08.08 5.34 1.9 10.04l-.43.16C6.2 28.72 5.77 25.37 6.1 23.2c.33-2.2 1.45-3.3 2.76-3.3.37 0 .76 0 1.14.02.27-.11.55-.17.83-.17.34 0 .68.02 1.03.06.31-.14.63-.21.95-.21.32 0 .62 0 .92.02a3.3 3.3 0 0 1 1.06-.17c.56 0 1.04 0 1.48.04.38-.13.76-.2 1.1-.2h.68Zm-5.37 1.45c.31.07.63.16.95.27a14.81 14.81 0 0 0-3.85 4.73c.2-.66.44-1.32.73-1.94a9.2 9.2 0 0 1 2.17-3.06Zm-1.15-.22c.2.02.4.06.6.1l-.07.06a9.65 9.65 0 0 0-1.97 2.93 15.55 15.55 0 0 0-1.34 5.23c-.12.79-.13 1.58.02 2.36-.78-2.35-.47-5.07.37-7.24a8.94 8.94 0 0 1 1.7-2.83c.23-.25.46-.45.7-.61Zm-1.44-.14.8.06a9.39 9.39 0 0 0-2.18 3.35 12.31 12.31 0 0 0-.82 5.28c-.36-2.23-.25-4.12.14-5.57a6 6 0 0 1 1.23-2.47c.26-.3.55-.51.83-.65Zm4.05.81.48.2a17.32 17.32 0 0 0-5.43 8.47c-.01-.3-.01-.63.01-.97a12 12 0 0 1 2.57-5.37c.73-.9 1.55-1.7 2.37-2.33Zm.87-.12a13.8 13.8 0 0 0-.44-.2l.49.16-.05.04Zm.47.21c.18.1.37.19.55.3a16 16 0 0 1 .16-.14l-.62-.23-.1.07Zm.98.53.42.26c1.25.77 3.4 1.56 5.58 2.24 2.17.67 4.37 1.22 5.73 1.52h.4A52.95 52.95 0 0 1 20 23.08a66.83 66.83 0 0 0-3.33-1.44l-.22.18Zm10.8 3.03c1.35.38 2.68.72 3.83 1h-.47c-2.19-.47-7.29-1.74-10.42-3.18a70.2 70.2 0 0 0-3.1-1.35l.56-.39c1.04.4 2.17.94 3.56 1.7 1.48.8 3.78 1.57 6.04 2.22Zm-10.13-4.11-.52.38-.6-.22.53-.35.6.19Zm-1.2-.34-.44.3-.42-.14c.15-.09.3-.18.46-.25.13.02.27.05.4.09Zm-1.12-.21-.31.2a18.9 18.9 0 0 0-.85-.24l.15-.06c.34.02.68.05 1.01.1Zm-6.02 11.1.07.17.03-.2-.1.02Zm7.68-11.23-.25-.06.1-.04.28.02-.13.08Zm.6.18.54.18.35-.21a7.62 7.62 0 0 0-.59-.13l-.3.16Zm1.07.39c.98.39 2.04.91 3.3 1.6 1.43.77 3.69 1.54 5.95 2.18a85 85 0 0 0 5.16 1.3 69.07 69.07 0 0 1-9.5-3.23l-2.12-1.02-.45-.22a19.4 19.4 0 0 0-1.92-.85l-.42.24Zm6.72 1.69a30.2 30.2 0 0 0 5.32 2.23 56.46 56.46 0 0 1-6.93-2.49l-2.12-1.01-.45-.22c-.59-.29-1.08-.53-1.56-.72.2-.1.41-.18.62-.25.29.04.56.11.84.21.83.29 1.8.84 3.7 1.92l.58.33Zm-6.1-2.55-.24.13a8.06 8.06 0 0 0-.43-.13h.68Zm1.84-.17.13.04c.87.3 1.88.87 3.75 1.94.2.1.4.22.6.34 3 1.7 7.52 2.96 10.4 3.6a67.7 67.7 0 0 1-3.82-1.27l-1.59-.55a28.04 28.04 0 0 1-4.63-2.2l-.94-.5a11.9 11.9 0 0 0-3.69-1.44l-.2.05Zm4.12.99c-.78-.43-1.56-.81-2.36-1.1.97.11 2.07.48 3.28 1 1.2.5 2.49 1.16 3.83 1.84l.9.45a51.6 51.6 0 0 0 4.66 2.13c-.95-.3-2-.66-3.23-1.09l-1.58-.55a26.4 26.4 0 0 1-4.55-2.16l-.95-.52Z" fill="url(#awoxup24p)"/><path d="M27 23v3h-4v2h3v3h-3v4h-4V23h8Zm12 0h4v5h2v-5h4v12h-4v-4h-2v4h-4V23Zm-11 0h4.29L34 28.54V23h4v12h-4.29L32 29.46V35h-4V23Z" fill="#010103"/><path fill-rule="evenodd" d="M8 23h6.72a2.91 2.91 0 0 1 2.97 2.85c0 1.27-.87 2.34-2.06 2.71A3.32 3.32 0 0 1 18 31.7c0 1.82-1.54 3.3-3.44 3.3H8V23Zm4 2h.6c.77 0 1.4.75 1.4 1.5s-.63 1.5-1.4 1.5H12v-3Zm0 5h1.1c.77 0 1.4.75 1.4 1.5s-.63 1.5-1.4 1.5H12v-3Z" fill="#010103"/><defs><linearGradient id="awoxup24p" x1="6.12" y1="23.64" x2="47.18" y2="23.64" gradientUnits="userSpaceOnUse"><stop stop-color="#AEC8C9"/><stop offset=".49" stop-color="#3F7388"/><stop offset="1" stop-color="#5292AF"/></linearGradient></defs></svg>