<!-- by TradeStack --><svg width="56" height="56" viewBox="0 0 56 56" fill="none" xmlns="http://www.w3.org/2000/svg">
<rect width="56" height="56" fill="#294971"/>
<path d="M16.2904 14.6309C17.4168 13.9315 18.6657 13.4425 19.9599 13.1923C20.607 13.0701 21.2648 12.999 21.9252 13.0019C22.5857 12.9877 23.2461 13.0559 23.9011 13.1668C24.5562 13.2776 25.2007 13.4624 25.8291 13.6956C26.4576 13.9287 27.0701 14.2215 27.6506 14.5769C28.8197 15.2706 29.8689 16.1974 30.7583 17.2778C31.1125 17.7071 31.0726 18.3639 30.6704 18.742C30.2683 19.1201 29.6531 19.0774 29.299 18.6481C29.2884 18.6368 29.2777 18.6225 29.2697 18.6112L29.2617 18.6026C28.564 17.6616 27.7225 16.8286 26.7585 16.1861C26.2819 15.8591 25.7732 15.5777 25.2459 15.3502C24.7187 15.1199 24.1728 14.9266 23.6109 14.8015C23.0517 14.6736 22.4791 14.5826 21.9039 14.5627C21.3287 14.5286 20.7482 14.5599 20.173 14.6338C19.0252 14.7901 17.8961 15.1597 16.8549 15.7312H16.8522C16.5646 15.8876 16.2131 15.7681 16.0667 15.4611C15.9202 15.1569 16.0241 14.7958 16.2904 14.6309Z" fill="white"/>
<path d="M39.7108 41.3691C38.5843 42.0685 37.3352 42.5575 36.0409 42.8077C35.3937 42.9299 34.736 43.001 34.0755 42.9981C33.415 43.0124 32.7546 42.9442 32.0994 42.8333C31.4443 42.7224 30.7998 42.5376 30.1712 42.3045C29.5428 42.0713 28.9302 41.7785 28.3497 41.4231C27.1805 40.7294 26.1312 39.8025 25.2417 38.7222C24.8875 38.2929 24.9275 37.6362 25.3296 37.258C25.7318 36.8799 26.3469 36.9225 26.7012 37.3518C26.7118 37.3633 26.7224 37.3774 26.7304 37.3888L26.7384 37.3973C27.4362 38.3384 28.2777 39.1714 29.2418 39.814C29.7185 40.1409 30.2272 40.4224 30.7545 40.6498C31.2818 40.8801 31.8278 41.0734 32.3897 41.1985C32.949 41.3264 33.5216 41.4174 34.0968 41.4373C34.672 41.4714 35.2526 41.4402 35.8279 41.3662C36.9757 41.2098 38.1049 40.8403 39.1462 40.2688H39.1489C39.4365 40.1125 39.788 40.2318 39.9345 40.5389C40.0783 40.8403 39.9771 41.2042 39.7108 41.3691Z" fill="white"/>
<path d="M11.0857 22.2052C11.8026 21.1765 12.74 20.2495 13.8477 19.4773C14.4031 19.0925 14.9937 18.7416 15.6254 18.4438C16.2483 18.134 16.9153 17.8823 17.597 17.6669C18.2787 17.449 18.9928 17.2941 19.7127 17.1804C20.4354 17.0666 21.1701 17.0061 21.9076 17.0013C23.3826 16.9819 24.8636 17.1876 26.271 17.5821C26.8322 17.7395 27.1319 18.2405 26.9439 18.7028C26.7529 19.1651 26.1447 19.412 25.5835 19.2571C25.5717 19.2523 25.5541 19.2474 25.5394 19.2401L25.5276 19.2353C24.3758 18.8577 23.1388 18.6278 21.887 18.589C21.2612 18.5648 20.6323 18.589 20.0065 18.6592C19.3836 18.7294 18.7635 18.8359 18.1612 18.9981C17.5618 19.1579 16.9653 19.3491 16.4041 19.5984C15.834 19.8356 15.2963 20.1212 14.788 20.4382C13.7713 21.0749 12.8839 21.8615 12.1846 22.7546V22.7571C11.9907 23.0039 11.594 23.0741 11.2943 22.9144C11.0063 22.7619 10.9153 22.4496 11.0857 22.2052Z" fill="white"/>
<path d="M44.9154 32.9297C44.1984 34.1294 43.261 35.2105 42.1532 36.1109C41.5978 36.5598 41.0071 36.969 40.3754 37.3162C39.7524 37.6775 39.0854 37.9711 38.4036 38.2223C37.7219 38.4764 37.0078 38.657 36.2879 38.7897C35.565 38.9223 34.8304 38.9929 34.0927 38.9985C32.6176 39.0211 31.1366 38.7812 29.7291 38.3211C29.1678 38.1376 28.868 37.5533 29.0561 37.0142C29.2471 36.475 29.8554 36.1871 30.4167 36.3678C30.4343 36.3734 30.449 36.3791 30.4666 36.3847L30.4784 36.3904C31.6303 36.8307 32.8674 37.0989 34.1192 37.144C34.7451 37.1723 35.374 37.144 35.9999 37.0622C36.6228 36.9803 37.2429 36.8561 37.8453 36.667C38.4447 36.4807 39.0413 36.2577 39.6025 35.967C40.1726 35.6904 40.7104 35.3573 41.2187 34.9875C42.2355 34.2451 43.1229 33.3277 43.8223 32.2862V32.2833C44.0162 31.9954 44.4129 31.9135 44.7126 32.0999C44.9947 32.2833 45.0829 32.6475 44.9154 32.9297Z" fill="white"/>
<path d="M11 31.408C10.9972 30.0912 11.2335 28.769 11.6978 27.5221C11.9313 26.8986 12.2148 26.2912 12.5595 25.7134C12.8931 25.1302 13.2962 24.5847 13.7299 24.0661C14.1635 23.5447 14.6584 23.069 15.1837 22.631C15.7091 22.1902 16.279 21.7952 16.8795 21.4565C18.0776 20.7632 19.4092 20.2848 20.788 20.0188C21.3384 19.914 21.8722 20.258 21.9806 20.7901C22.089 21.3222 21.7332 21.8382 21.1828 21.943C21.1661 21.9457 21.1494 21.9484 21.1355 21.951L21.1244 21.9537C19.9624 22.1176 18.8198 22.4616 17.7718 22.9991C17.2436 23.2625 16.7433 23.5743 16.2735 23.9263C15.8037 24.2784 15.3561 24.6654 14.9558 25.0953C14.5555 25.5253 14.1802 25.9795 13.8605 26.474C13.5297 26.9604 13.2545 27.4817 13.0182 28.0192C12.5512 29.0969 12.276 30.2578 12.2148 31.4376V31.4403C12.1982 31.7655 11.9118 32.0154 11.5755 31.9993C11.253 31.9778 11.0028 31.7171 11 31.408Z" fill="white"/>
<path d="M45 24.592C45.0027 25.9088 44.7664 27.231 44.3048 28.4779C44.0713 29.1014 43.7876 29.7088 43.4428 30.2866C43.1092 30.8697 42.7087 31.4153 42.2722 31.9339C41.8384 32.4553 41.3435 32.931 40.818 33.369C40.2924 33.8098 39.7224 34.2048 39.1218 34.5434C37.9234 35.2368 36.5915 35.7151 35.2123 35.9812C34.6617 36.086 34.1279 35.742 34.0194 35.2099C33.911 34.6778 34.2669 34.1618 34.8175 34.057C34.8341 34.0543 34.8508 34.0516 34.8647 34.0489L34.8759 34.0463C36.0382 33.8823 37.181 33.5383 38.2292 33.0008C38.7575 32.7375 39.258 32.4257 39.728 32.0737C40.1979 31.7216 40.6455 31.3346 41.046 30.9047C41.4463 30.4747 41.8218 30.0205 42.1415 29.526C42.4724 29.0396 42.7477 28.5183 42.9841 27.9808C43.4512 26.9031 43.7265 25.7421 43.7876 24.5624V24.5597C43.8043 24.2345 44.0907 23.9846 44.4272 24.0007C44.7441 24.0195 44.9972 24.2802 45 24.592Z" fill="white"/>
<path d="M14.6309 39.6915C13.9315 38.4899 13.4425 37.1576 13.1923 35.777C13.0701 35.0867 12.999 34.385 13.0019 33.6805C12.9877 32.9761 13.0559 32.2715 13.1668 31.5727C13.2776 30.8739 13.4624 30.1864 13.6956 29.516C13.9287 28.8456 14.2215 28.1923 14.5769 27.5729C15.2706 26.3259 16.1975 25.2066 17.2778 24.2578C17.7071 23.88 18.3638 23.9226 18.742 24.3516C19.1201 24.7805 19.0774 25.4367 18.6482 25.8146C18.6368 25.8259 18.6226 25.8373 18.6112 25.8458L18.6027 25.8543C17.6616 26.5986 16.8286 27.4963 16.1861 28.5246C15.8591 29.0331 15.5777 29.5757 15.3502 30.1382C15.1199 30.7006 14.9266 31.283 14.8015 31.8823C14.6736 32.4789 14.5826 33.0897 14.5627 33.7033C14.5286 34.3197 14.5599 34.9361 14.6338 35.5497C14.7901 36.7741 15.1597 37.9786 15.7312 39.0893V39.0921C15.8876 39.3989 15.7681 39.7739 15.4611 39.9301C15.1569 40.0836 14.7958 39.9756 14.6309 39.6915Z" fill="white"/>
<path d="M41.3691 16.3097C42.0685 17.5112 42.5575 18.8434 42.8076 20.2239C42.9299 20.9142 43.001 21.6158 42.9981 22.3202C43.0124 23.0247 42.9441 23.7291 42.8333 24.4279C42.7223 25.1267 42.5376 25.8141 42.3044 26.4844C42.0713 27.1548 41.7785 27.8081 41.4231 28.4273C40.7294 29.6743 39.8025 30.7934 38.7222 31.7422C38.2929 32.12 37.6361 32.0774 37.258 31.6485C36.8799 31.2195 36.9225 30.5634 37.3519 30.1856C37.3632 30.1742 37.3774 30.1629 37.3888 30.1544L37.3973 30.1458C38.3384 29.4016 39.1714 28.504 39.8139 27.4758C40.1408 26.9673 40.4224 26.4248 40.6498 25.8624C40.8801 25.2999 41.0734 24.7176 41.1985 24.1183C41.3264 23.5217 41.4174 22.9111 41.4373 22.2975C41.4714 21.684 41.4401 21.0647 41.3662 20.4512C41.2099 19.2269 40.8403 18.0225 40.2688 16.9119V16.909C40.1124 16.6023 40.2319 16.2273 40.5389 16.0711C40.8403 15.9149 41.2042 16.0257 41.3691 16.3097Z" fill="white"/>
<path d="M22.2007 44.9155C21.1724 44.1985 20.2458 43.2611 19.4739 42.1533C19.0892 41.5979 18.7384 41.0072 18.4408 40.3754C18.1312 39.7525 17.8795 39.0854 17.6666 38.4037C17.4489 37.7219 17.294 37.0079 17.1803 36.2879C17.0666 35.565 17.0061 34.8304 17.0013 34.0928C16.9819 32.6176 17.1875 31.1366 17.5819 29.729C17.7392 29.1678 18.24 28.8681 18.7021 29.0561C19.1643 29.2471 19.411 29.8554 19.2562 30.4166C19.2514 30.4343 19.2465 30.449 19.2417 30.4637L19.2369 30.4755C18.8594 31.6273 18.6295 32.8645 18.5908 34.1163C18.5666 34.7423 18.5908 35.3711 18.661 35.997C18.7312 36.6199 18.8376 37.24 18.9997 37.8424C19.1594 38.4419 19.3505 39.0384 19.5997 39.5997C19.8369 40.1697 20.1223 40.7075 20.4393 41.2159C21.0756 42.2326 21.8619 43.12 22.7547 43.8194H22.7571C23.0039 44.0134 23.0741 44.4101 22.9144 44.7098C22.7571 44.9948 22.445 45.083 22.2007 44.9155Z" fill="white"/>
<path d="M33.7969 11.0859C34.8252 11.8029 35.7518 12.7402 36.5236 13.8479C36.9083 14.4032 37.2591 14.9938 37.5567 15.6256C37.8664 16.2485 38.1181 16.9155 38.3334 17.5972C38.5512 18.2788 38.706 18.9929 38.8197 19.7127C38.9334 20.4355 38.9939 21.1702 38.9987 21.9076C39.0181 23.3827 38.8124 24.8636 38.4181 26.271C38.2608 26.8322 37.76 27.132 37.2979 26.9439C36.8357 26.7529 36.589 26.1447 36.7438 25.5835C36.7487 25.5658 36.7535 25.5511 36.7583 25.5335L36.7632 25.5217C37.1406 24.3699 37.3704 23.1329 37.4091 21.8812C37.4333 21.2553 37.4091 20.6265 37.339 20.0007C37.2688 19.3778 37.1624 18.7578 37.0003 18.1555C36.8406 17.556 36.6494 16.9595 36.4002 16.3983C36.1631 15.8283 35.8777 15.2906 35.5607 14.7823C34.9243 13.7656 34.1381 12.8783 33.2453 12.179H33.2428C32.9961 11.985 32.9259 11.5884 33.0856 11.2887C33.2428 11.0066 33.5549 10.9155 33.7969 11.0859Z" fill="white"/>
<path d="M31.408 45C30.0912 45.0028 28.769 44.7665 27.522 44.3023C26.8986 44.0687 26.2912 43.7852 25.7134 43.4405C25.1302 43.1069 24.5847 42.7038 24.066 42.2702C23.5447 41.8365 23.069 41.3417 22.6309 40.8163C22.1902 40.2908 21.7952 39.7238 21.4565 39.1205C20.7632 37.9224 20.2849 36.5908 20.0188 35.212C19.914 34.6616 20.258 34.1279 20.7901 34.0194C21.3222 33.911 21.8381 34.2668 21.9429 34.8173C21.9456 34.834 21.9484 34.8506 21.9511 34.8645L21.9537 34.8756C22.1177 36.0377 22.4616 37.1802 22.9991 38.2282C23.2625 38.7564 23.5742 39.2568 23.9263 39.7266C24.2783 40.1963 24.6653 40.6439 25.0953 41.0442C25.5253 41.4445 25.9795 41.8198 26.474 42.1395C26.9604 42.4703 27.4817 42.7455 28.0192 42.9818C29.0969 43.4488 30.2578 43.724 31.4376 43.7852H31.4403C31.7654 43.8019 32.0154 44.0882 31.9993 44.4245C31.9777 44.7442 31.7171 44.9972 31.408 45Z" fill="white"/>
<path d="M24.5894 11C25.9065 10.9972 27.229 11.2335 28.4763 11.6978C29.0999 11.9313 29.7074 12.2148 30.2853 12.5595C30.8686 12.8931 31.4143 13.2934 31.9331 13.7299C32.4546 14.1635 32.9303 14.6583 33.3685 15.1837C33.8093 15.7091 34.2044 16.279 34.5431 16.8795C35.2366 18.0776 35.7151 19.4091 35.9812 20.788C36.0861 21.3384 35.742 21.8721 35.2097 21.9806C34.6775 22.0889 34.1614 21.7331 34.0566 21.1855C34.0539 21.1688 34.0512 21.1522 34.0486 21.1382L34.0459 21.1271C33.8819 19.9651 33.5378 18.8226 33.0002 17.7746C32.7368 17.2464 32.425 16.746 32.0728 16.2762C31.7207 15.8064 31.3336 15.3589 30.9036 14.9586C30.4735 14.5583 30.0192 14.183 29.5246 13.8633C29.0381 13.5325 28.5166 13.2573 27.979 13.021C26.9038 12.554 25.7426 12.2788 24.5625 12.2176H24.5598C24.2346 12.2009 23.9846 11.9146 24.0007 11.5782C24.0169 11.253 24.2776 11.0028 24.5894 11Z" fill="white"/>
</svg>
