<?xml version='1.0' encoding='utf-8'?>
<!-- by TradeStack -->
<svg width="56" height="56" viewBox="0 0 56 56" xmlns="http://www.w3.org/2000/svg"><path fill="#F0F3FA" d="M0 0h56v56H0z" /><path fill="#F7CE52" d="M4 32h48v1H4z" /><path d="M49.25 31c-.83 0-1.25-.46-1.25-1.4v-4.25c0-.92.42-1.39 1.25-1.39.55 0 1.01.2 1.25.62V22H52v9h-1.43v-.75c-.24.5-.72.75-1.32.75Zm.75-1c.37 0 .5-.26.5-.76v-3.53c0-.49-.13-.71-.5-.71-.25 0-.5.12-.5.4v4.16c0 .29.25.44.5.44ZM45 31v-9h1.5v9H45ZM36.38 31c-.88 0-1.38-.66-1.38-1.5v-5.67c0-1.16.9-1.83 2-1.83 1.08 0 2 .69 2 1.83v.96h-1.5v-.95c0-.49-.14-.67-.49-.67-.33 0-.51.17-.51.67v5.54c0 .3.17.46.44.46.37 0 .56-.27.56-.79V27H37v-1h2v5h-1.5v-.77c-.2.51-.5.77-1.12.77ZM27 31v-7h1.5v.76c.23-.5.64-.76 1.24-.76.84 0 1.26.47 1.26 1.4V31h-1.5v-5.54c0-.29-.17-.44-.42-.44-.36 0-.58.25-.58.75V31H27ZM24 31c-1.04 0-2-.54-2-1.68v-3.64c0-1.13.96-1.68 2-1.68 1.03 0 2 .55 2 1.68v3.64c0 1.14-.97 1.68-2 1.68Zm0-1c.34 0 .5-.18.5-.63v-3.74c0-.46-.16-.62-.5-.62-.33 0-.5.15-.5.62v3.74c0 .46.17.63.5.63ZM42 31c-1.04 0-2-.54-2-1.68v-3.64c0-1.13.96-1.68 2-1.68 1.03 0 2 .55 2 1.68v3.64c0 1.14-.97 1.68-2 1.68Zm0-1c.34 0 .5-.18.5-.63v-3.74c0-.46-.16-.62-.5-.62-.33 0-.5.15-.5.62v3.74c0 .46.17.63.5.63ZM20.15 31c-1.1 0-1.65-.43-1.65-1.3V26h-.71v-1h.71v-1.71L20 23v2h1v1h-1v3.67c0 .22.14.33.42.33H21v1h-.85ZM14 31v-7h1.55v1.21c.17-.73.6-1.21 1.36-1.21H17v1.37h-.22c-.85 0-1.23.45-1.23 1.29V31H14ZM4 31v-9h1.95c1.33 0 2 .62 2 1.87v.7c0 .74-.27 1.23-.79 1.49v.02c.56.24.84.75.84 1.53v1.52C8 30.38 7.34 31 6 31H4Zm1.5-5.59h.28c.51 0 .62-.3.62-.77v-.86c0-.46-.1-.78-.62-.78H5.5v2.41Zm0 4.59h.34c.52 0 .61-.31.61-.78v-1.5c0-.47-.1-.79-.61-.79H5.5V30ZM10.26 31C9.44 31 9 30.52 9 29.62v-.96c0-1.12.86-1.86 2.5-2.22v-.86c0-.42-.14-.57-.46-.57-.3 0-.5.14-.5.57V26H9v-.38c0-1.1 1.05-1.62 2.05-1.62 1.01 0 1.95.51 1.95 1.62V31h-1.43v-.74c-.23.5-.7.74-1.3.74Zm.66-1c.37 0 .58-.25.58-.75v-1.77c-.66.2-.97.51-.97 1.2v.89c0 .29.13.43.4.43Z" /></svg>