<?xml version='1.0' encoding='utf-8'?>
<!-- by TradeStack -->
<svg width="56" height="56" viewBox="0 0 56 56" xmlns="http://www.w3.org/2000/svg"><path fill="#F0F3FA" d="M0 0h56v56H0z" /><path d="m33.85 18.66 4.02-4.51a17.04 17.04 0 0 0-21.62 1.57l4.5 4a11.1 11.1 0 0 1 13.1-1.07" fill="#A1C8EA" /><path d="m37.04 34.25 4.5 4.01a16.99 16.99 0 0 0-.9-21.66l-4.03 4.52a11.07 11.07 0 0 1 .44 13.14" fill="#46A8DE" /><path d="M20.68 36.2a11.01 11.01 0 0 1-2.28-13.6l-4.53-4.04a17 17 0 0 0 25.12 22.42l-4.54-4.04a11.1 11.1 0 0 1-13.77-.71" fill="#007AC3" /></svg>