<!-- by TradeStack --><svg width="56" height="56" viewBox="0 0 56 56" xmlns="http://www.w3.org/2000/svg"><path fill="#00A0DE" d="M0 0h56v56H0z"/><path d="M48 35a2 2 0 1 0 0-4 2 2 0 0 0 0 4ZM38.79 32.5c-2 0-3.5-1.52-3.5-3.52s1.5-3.48 3.5-3.48 3.71 1.49 3.71 3.48c0 2-1.72 3.52-3.71 3.52Zm-22.81 0c-2 0-3.48-1.51-3.48-3.5 0-2 1.48-3.5 3.48-3.5S19.5 27 19.5 29s-1.53 3.5-3.52 3.5Zm22.8-9.49c-2.6 0-4.89 1.7-5.68 4.16a5.76 5.76 0 0 0-9.1-2.92v-5.1c0-.14-.12-.2-.23-.13l-1.94 1.08c-.12.08-.32.21-.33.36v6.14a6.03 6.03 0 0 0-7.91-3.08c-.44.2-.7.44-1.09.73V19.2c0-.13-.24-.19-.36-.12l-1.93 1.08a.46.46 0 0 0-.21.35v8.51c0 3.3 2.66 5.98 5.96 5.99a6.07 6.07 0 0 0 5.54-3.6v3.35c0 .13.22.25.35.25h1.89c.13 0 .26-.12.26-.25v-5.73c0-2 1.4-3.52 3.4-3.52s3.6 1.51 3.6 3.52v5.75c0 .13.13.23.26.23h1.88c.13 0 .36-.1.36-.23v-3.24a5.8 5.8 0 0 0 7.78 2.9c.39-.17.88-.42 1.22-.68v1.74c0 2-1.73 3.19-3.73 3.19a3.57 3.57 0 0 1-2.88-1.44.25.25 0 0 0-.34-.05l-1.53 1.07a.23.23 0 0 0-.06.32A5.8 5.8 0 0 0 38.77 41c3.26 0 6.17-2 6.23-5.41v-6.6c0-3.3-2.93-5.97-6.21-5.98Z" fill="#fff"/></svg>