<!-- by TradeStack --><svg width="56" height="56" viewBox="0 0 56 56" fill="none" xmlns="http://www.w3.org/2000/svg">
<rect width="56" height="56" fill="#F0F3FA"/>
<path fill-rule="evenodd" clip-rule="evenodd" d="M17.9121 26H29.2602L23.5782 17.62L17.9121 26ZM24.1249 21.9058C24.1249 22.0405 24.07 22.1623 23.9815 22.2497L24.6065 23.249C24.671 23.226 24.7405 23.2135 24.8129 23.2135C25.1551 23.2135 25.4325 23.4929 25.4325 23.8375C25.4325 24.1822 25.1551 24.4616 24.8129 24.4616C24.4707 24.4616 24.1932 24.1822 24.1932 23.8375C24.1932 23.7045 24.2345 23.5813 24.3049 23.48L23.7967 22.3634C23.7495 22.3791 23.699 22.3876 23.6465 22.3876C23.6011 22.3876 23.5572 22.3812 23.5156 22.3693L22.904 23.4003C23.0138 23.5129 23.0815 23.6672 23.0815 23.8375C23.0815 24.1822 22.8041 24.4616 22.4619 24.4616C22.1197 24.4616 21.8422 24.1822 21.8422 23.8375C21.8422 23.4929 22.1197 23.2135 22.4619 23.2135C22.5004 23.2135 22.538 23.217 22.5745 23.2238L23.3291 22.2662C23.2303 22.178 23.1681 22.0492 23.1681 21.9058C23.1681 21.6397 23.3823 21.424 23.6465 21.424C23.9107 21.424 24.1249 21.6397 24.1249 21.9058Z" fill="#1A449A"/>
<path fill-rule="evenodd" clip-rule="evenodd" d="M23.5713 12H30.2291L34.3363 18H36.1892L43.752 29H35.0891L33.5429 27H40.0846L35.2675 20H28.9042L27.7138 18H32.11L29.0419 14H24.7443L23.5713 12Z" fill="#1A449A"/>
<path fill-rule="evenodd" clip-rule="evenodd" d="M11.6014 31L10 40H15.1103C17.3287 40 18.9499 38.6681 18.9499 37.0322C18.9499 35.7235 17.9178 35.284 17.4017 35.2279C18.0112 34.9793 19.2302 34.1742 19.2302 32.9425C19.2302 31.4413 18.0112 31.022 17.4017 31H11.6014ZM13.9373 34.3204L14.1367 33.2535C14.1514 33.169 14.2873 33 14.7126 33H15.7093C15.9087 33.0352 16.3074 33.2134 16.3074 33.6443C16.3074 34.1831 15.9087 34.5 15.3549 34.5H14.1367C14.0609 34.4898 13.915 34.4397 13.9373 34.3204ZM13.1751 37.7605L13.431 36.338C13.4499 36.2253 13.6243 36 14.1701 36H15.4494C15.7052 36.0469 16.2169 36.2845 16.2169 36.8591C16.2169 37.5774 15.7052 38 14.9945 38H13.431C13.3338 37.9864 13.1465 37.9196 13.1751 37.7605ZM19.5312 39.8832L21.0945 31.0815C21.1031 31.033 21.1454 31 21.1953 31H23.7798C23.844 31 23.8924 31.0574 23.8809 31.1197L23.3903 33.7715C23.3672 33.8961 23.4641 34 23.5924 34H26.3547C26.4555 34 26.5414 33.9387 26.5576 33.8406L27.0056 31.0851C27.0137 31.036 27.0566 31 27.107 31H29.719C29.7826 31 29.8309 31.0564 29.8203 31.1183L28.3103 39.9155C28.3019 39.9643 28.2591 40 28.209 40H25.5441C25.48 40 25.4316 39.9428 25.443 39.8805L26.1138 36.2484C26.1367 36.124 26.0398 36 25.9116 36H23.1762C23.0752 36 22.9892 36.0819 22.9733 36.1803L22.3587 39.9146C22.3507 39.9638 22.3077 40 22.2572 40H19.6328C19.5689 40 19.5202 39.9452 19.5312 39.8832ZM29.3529 39.7644L30.9126 31.2469C30.939 31.103 31.0665 31 31.2157 31H35.8437C36.6312 31.0238 38.2063 31.52 38.2063 33.3143C38.2063 35.5571 36.3833 36.6143 34.604 36.6143H32.8839C32.7826 36.6143 32.6965 36.6865 32.6808 36.7845L32.1955 39.8298C32.1799 39.9278 32.0937 40 31.9925 40H29.5554C29.4274 40 29.3303 39.8878 29.3529 39.7644ZM33.2983 35H34.0644C34.5213 34.9622 35.4353 34.6796 35.4353 33.8517C35.4474 33.5678 35.3002 33 34.6152 33H33.5567C33.4555 33 33.3694 33.0716 33.3537 33.1688L33.0953 34.7693C33.0757 34.8905 33.1721 35 33.2983 35ZM38.802 40H36.6303C36.3958 40 36.2472 39.7534 36.3601 39.5519L41.0637 31.1567C41.1178 31.0601 41.2214 31 41.3338 31H43.8455C43.9907 31 44.1162 31.0994 44.1468 31.2386L45.9929 39.6338C46.0344 39.8222 45.8881 40 45.6916 40H43.2755C43.1728 40 43.0858 39.9256 43.0719 39.8257L42.8174 38H39.9071L38.9867 39.8867C38.9526 39.9568 38.8811 40 38.802 40ZM42.2944 34.2475L42.5387 36H40.8827L41.7676 34.1862C41.8017 34.1161 41.873 34.0732 41.9521 34.0732H42.0908C42.1936 34.0732 42.2805 34.1476 42.2944 34.2475Z" fill="#27221F"/>
<path fill-rule="evenodd" clip-rule="evenodd" d="M11.9395 29H35.2336L23.5702 12L11.9395 29ZM15.7954 27H31.3777L23.5756 15.5L15.7954 27Z" fill="#60C3D6"/>
</svg>
