<?xml version='1.0' encoding='utf-8'?>
<!-- by TradeStack -->
<svg width="56" height="56" viewBox="0 0 56 56" xmlns="http://www.w3.org/2000/svg"><path fill="#F0F3FA" d="M0 0h56v56H0z" /><path d="M46 24.92c0 .14-.01.26-.03.37h-2.94c.03.28.13.5.3.66.18.16.4.24.67.24.37 0 .64-.16.8-.47h1.1c-.12.37-.34.68-.67.92s-.73.36-1.21.36a2.2 2.2 0 0 1-1.05-.24c-.3-.17-.54-.4-.72-.71-.17-.3-.25-.65-.25-1.05s.08-.75.25-1.06c.17-.3.41-.53.72-.7.3-.16.65-.24 1.05-.24.38 0 .72.08 1.02.24.3.16.54.38.7.68.18.29.26.62.26 1Zm-1.05-.28c0-.26-.1-.46-.29-.6-.18-.16-.4-.24-.67-.24a.95.95 0 0 0-.64.23.95.95 0 0 0-.31.6h1.9ZM40.5 24v1.76c0 .27.03.39.41.39h.59V27h-.8c-1.07 0-1.2-.41-1.2-1.24V24H39v-.85h.5V22h1v1.15h1V24h-1ZM37.5 26.38c-.3.45-1.05.62-1.57.62-.67 0-1.43-.38-1.43-1.14 0-.95 1.02-1.22 1.8-1.22h1.2c-.02-.5-.44-.81-.96-.81-.45 0-.77.23-.85.62h-1.1c.18-.95 1.07-1.45 1.98-1.45 1 0 1.93.6 1.93 1.67V27h-1v-.62Zm-1.25-.17c.53 0 1.25-.32 1.25-.91v-.03h-1.14c-.5 0-.74.2-.74.48 0 .29.23.46.63.46ZM32 26.07l.97-3.07H34l-1.42 4h-1.17L30 23h1.04l.96 3.07ZM27.97 27c-.37 0-.7-.08-1-.24-.3-.17-.54-.4-.72-.71-.17-.3-.25-.65-.25-1.05s.09-.75.26-1.05c.18-.3.42-.54.72-.7.3-.17.65-.25 1.02-.25s.71.08 1.02.25c.3.16.54.4.71.7.18.3.27.65.27 1.05a2 2 0 0 1-.27 1.05c-.18.3-.42.54-.73.7-.3.17-.65.25-1.03.25Zm0-.85c.18 0 .35-.05.5-.13a.96.96 0 0 0 .38-.4c.1-.16.14-.37.14-.62 0-.37-.1-.65-.3-.85a.94.94 0 0 0-.7-.3c-.28 0-.52.1-.71.3-.19.2-.28.48-.28.85s.09.65.27.85c.19.2.42.3.7.3ZM23.33 23c.99 0 1.67.7 1.67 1.69V27h-1v-2.18c0-.63-.42-.97-1-.97-.57 0-1 .34-1 .97V27h-1v-4h1v.55c.29-.35.8-.55 1.33-.55ZM18.47 27c-.37 0-.7-.08-1-.24-.3-.17-.54-.4-.72-.71-.17-.3-.25-.65-.25-1.05s.09-.75.26-1.05c.18-.3.42-.54.72-.7.3-.17.65-.25 1.02-.25s.71.08 1.02.25c.3.16.54.4.71.7.18.3.27.65.27 1.05a2 2 0 0 1-.27 1.05c-.18.3-.42.54-.73.7-.3.17-.65.25-1.03.25Zm0-.85c.18 0 .35-.05.5-.13a.96.96 0 0 0 .38-.4c.1-.16.14-.37.14-.62 0-.37-.1-.65-.3-.85a.94.94 0 0 0-.7-.3c-.28 0-.52.1-.71.3-.19.2-.28.48-.28.85s.09.65.27.85c.19.2.42.3.7.3ZM16 23v4h-1v-4h1ZM43.38 29.5a.62.62 0 0 1-.45-.17.62.62 0 0 1-.17-.45.6.6 0 0 1 .62-.62c.18 0 .32.06.44.18s.18.26.18.44a.6.6 0 0 1-.62.62Zm.57.5v4h-1v-4h1Z" /><circle cx="15.5" cy="21.5" r=".5" /><path d="M12.98 24.44c.3.05.54.19.73.42.2.23.29.49.29.79 0 .26-.07.5-.21.7-.14.2-.33.36-.6.48a2.3 2.3 0 0 1-.92.17H10v-5h2.17c.36 0 .66.05.92.16s.46.27.59.46c.13.2.2.42.2.67 0 .3-.08.53-.25.73-.16.2-.38.33-.65.42ZM11 24.06h1.02c.25 0 .44-.05.58-.15.13-.11.2-.27.2-.47 0-.2-.07-.36-.2-.47a.9.9 0 0 0-.58-.16H11v1.25Zm1.12 2.12c.25 0 .45-.05.6-.17a.58.58 0 0 0 .21-.49.6.6 0 0 0-.23-.5.93.93 0 0 0-.6-.18H11v1.34h1.12ZM50.58 34c-.3 0-.56-.06-.8-.17a1.48 1.48 0 0 1-.56-.47c-.13-.2-.2-.4-.22-.65h.92c.02.15.08.28.2.37.12.1.27.15.45.15s.31-.04.4-.11c.1-.08.16-.17.16-.29 0-.12-.06-.22-.19-.28a2.9 2.9 0 0 0-.56-.2c-.27-.08-.5-.15-.67-.22a1.19 1.19 0 0 1-.44-.35.98.98 0 0 1-.19-.62c0-.21.06-.4.17-.59.12-.17.29-.31.5-.42.22-.1.47-.15.76-.15.43 0 .78.12 1.03.35.26.23.4.54.43.93h-.88a.5.5 0 0 0-.18-.36.61.61 0 0 0-.42-.14c-.17 0-.3.03-.39.1a.32.32 0 0 0-.13.27c0 .13.06.23.18.3.13.06.32.13.57.2.26.07.48.14.65.22.17.07.31.19.43.35.13.15.2.36.2.61 0 .23-.06.43-.18.6-.1.18-.27.32-.5.42-.2.1-.45.15-.74.15ZM48.5 31.92c0 .14-.01.26-.03.37h-2.94c.02.28.13.5.3.66.18.16.4.24.67.24.37 0 .64-.16.8-.47h1.1c-.12.37-.34.68-.67.92S47 34 46.52 34a2.2 2.2 0 0 1-1.05-.24c-.3-.17-.54-.4-.72-.71-.17-.3-.25-.65-.25-1.05s.08-.75.25-1.06c.17-.3.41-.53.72-.7.3-.16.65-.24 1.05-.24.38 0 .72.08 1.02.24.3.16.54.38.7.68.18.29.26.62.26 1Zm-1.05-.28c0-.26-.1-.46-.29-.6-.18-.16-.4-.24-.67-.24a.95.95 0 0 0-.64.23.95.95 0 0 0-.31.6h1.9ZM39.75 30c.29 0 .54.05.76.15.22.1.37.22.49.38V30h1v3.4c0 1.05-.92 1.6-1.9 1.6-.8 0-1.82-.3-1.93-1.23h.96c.1.31.47.5.94.5.56 0 .93-.32.93-.88v-.51c-.12.15-.28.28-.5.39-.21.1-.46.15-.75.15A1.7 1.7 0 0 1 38 31.7c0-1 .78-1.7 1.75-1.7ZM41 31.71a.96.96 0 0 0-1-.97c-.55 0-1 .4-1 .96 0 .56.44.99 1 .99.57 0 1-.4 1-.98ZM34.97 34c-.37 0-.7-.08-1-.24-.3-.17-.54-.4-.72-.71-.17-.3-.25-.65-.25-1.05s.09-.75.26-1.05c.18-.3.42-.54.72-.7.3-.17.65-.25 1.02-.25s.71.08 1.02.25c.3.16.54.4.71.7.18.3.27.65.27 1.05a2 2 0 0 1-.27 1.05c-.18.3-.42.54-.73.7-.3.17-.65.25-1.03.25Zm0-.85c.18 0 .35-.05.5-.13a.96.96 0 0 0 .38-.4c.1-.16.14-.37.14-.62 0-.37-.1-.65-.3-.85a.94.94 0 0 0-.7-.3c-.28 0-.52.1-.71.3-.19.2-.28.48-.28.85s.09.65.27.85c.19.2.42.3.7.3ZM32 28v6h-1v-6h1ZM28.47 34c-.37 0-.7-.08-1-.24-.3-.17-.54-.4-.72-.71-.17-.3-.25-.65-.25-1.05s.09-.75.26-1.05c.18-.3.42-.54.72-.7.3-.17.65-.25 1.02-.25s.71.08 1.02.25c.3.16.54.4.71.7.18.3.27.65.27 1.05a2 2 0 0 1-.27 1.05c-.18.3-.42.54-.73.7-.3.17-.65.25-1.03.25Zm0-.85c.18 0 .35-.05.5-.13a.96.96 0 0 0 .38-.4c.1-.16.14-.37.14-.62 0-.37-.1-.65-.3-.85a.94.94 0 0 0-.7-.3c-.28 0-.52.1-.71.3-.19.2-.28.48-.28.85s.09.65.27.85c.19.2.42.3.7.3ZM24.33 30c.99 0 1.67.7 1.67 1.69V34h-1v-2.18c0-.63-.42-.97-1-.97-.57 0-1 .34-1 .97V34h-1v-4h1v.55c.29-.35.8-.55 1.33-.55ZM19.36 30.2c.95 0 1.64.65 1.64 1.6V34h-1v-2.07c0-.6-.42-.92-1-.92-.52 0-1 .37-1 .92V34h-1v-5h1v1.72c.3-.36.9-.52 1.36-.52ZM12.5 32c0-1.17.9-2 2.05-2 1.03 0 1.72.5 1.95 1.37h-1.13c-.12-.33-.4-.54-.83-.54-.6 0-1.04.42-1.04 1.17 0 .73.44 1.16 1.04 1.16.42 0 .7-.18.83-.53h1.13c-.24.9-1.06 1.37-1.95 1.37-1.16 0-2.05-.82-2.05-2ZM12 31.92c0 .14-.01.26-.03.37H9.03c.03.28.13.5.3.66.18.16.4.24.67.24.37 0 .64-.16.8-.47h1.1c-.12.37-.34.68-.67.92s-.73.36-1.21.36a2.2 2.2 0 0 1-1.05-.24c-.3-.17-.54-.4-.72-.71C8.08 32.75 8 32.4 8 32s.08-.75.25-1.06c.17-.3.41-.53.72-.7.3-.16.65-.24 1.05-.24.38 0 .72.08 1.02.24.3.16.54.38.7.68.18.29.26.62.26 1Zm-1.05-.28c0-.26-.1-.46-.29-.6-.18-.16-.4-.24-.67-.24a.95.95 0 0 0-.64.23.95.95 0 0 0-.31.6h1.9ZM8 29v.8H6.5v4.2h-1v-4.19H4V29h4Z" /></svg>