<?xml version='1.0' encoding='utf-8'?>
<!-- by TradeStack -->
<svg width="56" height="56" viewBox="0 0 56 56" xmlns="http://www.w3.org/2000/svg"><path fill="#F0F3FA" d="M0 0h56v56H0z" /><path d="M6 24H4v9h2v-9Z" fill="#115E3F" /><path d="M14 24.44h-2V33h2v-8.56Z" fill="#0B8157" /><path d="M14 31.98 13.17 33H14v-1.02Z" fill="#2CA274" /><path d="M14 22h-2v2h2v-2Z" fill="#118A61" /><path d="M8.5 33 6 28.5 8.5 24H11l-2.5 4.5L11 33H8.5Z" fill="#0B8157" /><path d="M6.9 30.14 6 28.5l.9-1.64 1.6 1.64-1.6 1.64Z" fill="#115E3F" /><path d="M15 27.86V33h2v-4.5l2-1.93 2 1.93V33h2v-5.14L19 24l-4 3.86Z" fill="#229B6D" /><path d="m19 24-3.07 2.96L17 28.5l2-1.93V24Z" fill="#2CA274" /><path d="M15 29.46v-1.6l.93-.9L17 28.5l-2 .96Z" fill="#118A61" /><path d="M34 29.14V24h2v4.5l2 2 2-2V24h2v5.14L38 33l-4-3.86Z" fill="#22A173" /><path d="m40 24.96.8-.96H40v.96Zm-6 .11 2 .64V24h-2v1.07Z" fill="#118A61" /><path fill-rule="evenodd" d="M28.5 31.07a2.57 2.57 0 1 0 0-5.14 2.57 2.57 0 0 0 0 5.14Zm0 1.93a4.5 4.5 0 1 0 0-9 4.5 4.5 0 0 0 0 9Z" fill="#1EA170" /><path fill-rule="evenodd" d="M47.5 31.07a2.57 2.57 0 1 0 0-5.14 2.57 2.57 0 0 0 0 5.14Zm0 1.93a4.5 4.5 0 1 0 0-9 4.5 4.5 0 0 0 0 9Z" fill="#4AAC82" /><path d="M47 24.03a4.5 4.5 0 0 0 0 8.94v-1.95a2.57 2.57 0 0 1 0-5.04v-1.95Z" fill="#1B976A" /></svg>