<?xml version='1.0' encoding='utf-8'?>
<!-- by TradeStack -->
<svg width="56" height="56" viewBox="0 0 56 56" xmlns="http://www.w3.org/2000/svg"><path fill="#F0F3FA" d="M0 0h56v56H0z" /><path d="M33.71 35.78c-1.04.04-3.93 1.7-2.76 2.77-3.7 1.6-6.95-1.3-6.95-5.09v-4c0-.26.16-.43.42-.44 1.88-.04 3.6-.02 5.18.05 3.28.17 5.16 3.74 4.11 6.71Z" fill="#7BBE45" /><path d="M33.71 35.78a4.82 4.82 0 0 1-2.76 2.77l-1.96.12c-.14.01-.29 0-.43-.06-.73-.26-1.42-.52-2.08-.78a2.33 2.33 0 0 1-1.46-1.58c-.1-.37-.25-.73-.43-1.08a2.9 2.9 0 0 1-.26-1.9.38.38 0 0 1 .2-.27.39.39 0 0 1 .35 0c2.3 1.18 4.58 1.71 6.86 1.6.3-.02.6-.01.92.03.29.03.53.15.72.35.21.22.32.49.33.8Z" fill="#63B544" /><path d="M21 33.17c-.27 3.62 1.2 6.47 4.83 8.54.12.06.17.12.17.17 0 .06-.07.11-.2.16l-1.82.62c-.3-.41-1.35-.17-.82.28-2.43.52-4.9.87-7.44 1.05-.54.04-.9-.05-1.11-.25-.22-.22-.3-.5-.28-.85.1-1.14-.15-2.47-.2-3.63.19.24.49.37.9.37 3.55-3.03 1.94-4.42 2.81-6.36a.9.9 0 0 1 .74-.57.6.6 0 0 1 .46.13c1 .88 1.8.99 1.96.34Z" fill="#3C893E" /><path d="m23.98 42.66-.82.28c-.8-.24-1.22-.78-1.26-1.62 0-.17.08-.24.26-.2.65.11 1.21.32 1.68.62.38.24.43.55.14.92Z" fill="#204624" /><path d="M21 33.17c-.16.65-.95.53-1.96-.34a.6.6 0 0 0-.46-.13.9.9 0 0 0-.74.57.5.5 0 0 0 0 .43c.2.37.25.75.17 1.17-.05.3.08.52.4.62l1.83.61a.5.5 0 0 1 .23.15c.06.06.1.15.11.23.03.18.01.35-.06.52a.5.5 0 0 1-.28.26c-.91.37-1.8.7-2.65 1-.32.1-.61.26-.89.48l-.83.65c-.22.16-.5.24-.84.24-.41 0-.71-.13-.9-.37-.64-6.77 1.12-12.84 6.47-17.23a.13.13 0 0 1 .06-.03c.07 0 .34.04.34.12v11.05Z" fill="#2A6B34" /><path d="M41.92 17.23c-2.42 3.27-.47 4.35-.45 6.87l-.2.63c-1.25-.03-2.11.09-2.58.36-1.8 1.04-3.4 1.22-4.82.56.91-2.25.96-4.32.16-6.2a6 6 0 0 0-2.82-3.02.38.38 0 0 1-.2-.35.39.39 0 0 1 .25-.33c3.55-1.36 7.17-3 9.88-5.68a.25.25 0 0 1 .12-.06h.13c.05.01.09.04.12.07.03.03.05.07.06.12.4 2.38.53 4.72.35 7.03Z" fill="#3B91CB" /><path d="M41.92 17.23c-.07.4-.1.8-.12 1.2-.01.77-.47 1.73-.28 2.42.32 1.2.3 2.3-.05 3.25 0-.43-.09-.79-.26-1.08-.1-.15-.23-.21-.42-.17-.3.07-.6.03-.87-.1a.45.45 0 0 1-.2-.2.41.41 0 0 1-.04-.27l.14-.73a.68.68 0 0 0-.09-.48.76.76 0 0 0-.4-.33c-.96-.34-1.16-.98-.58-1.93.28-.46.66-.55 1.12-.26.17.1.31.08.42-.1.37-.62.92-1.03 1.63-1.22Z" fill="#AEDEEF" /><path d="M41.27 24.73c-.8 2.9-2 5.57-3.61 8.03-.24.35-.4.32-.48-.09-.25-1.27-1.31-3.62-2.66-4.5-.5-.33-.97-.67-1.41-1-.15-.12-.18-.25-.1-.4.33-.63.62-1 .86-1.12 1.41.66 3.02.48 4.82-.56.47-.27 1.33-.4 2.58-.36Z" fill="#54B1E1" /><path d="M35.46 18c.27.03.52-.16.54-.44a.53.53 0 0 0-.46-.56.48.48 0 0 0-.54.44c-.02.27.18.52.46.56Z" fill="#AEDEEF" /><path d="M31.87 20.95c.6 2.18-.86 4.85-3.3 4.9l-4.02.15a.5.5 0 0 1-.46-.29.48.48 0 0 1-.04-.18c-.06-3-.54-6.84 3.5-7.48 2.05-.32 3.78.9 4.32 2.9Z" fill="#63B544" /><path d="M30.98 23.86a.4.4 0 0 1-.22.34c-.79.4-1.24-.04-1.98-.06-1.39-.03-2.78-.04-4.17-.04-.23 0-.35-.12-.35-.35v-.68c0-.1.04-.19.1-.26a.4.4 0 0 1 .25-.13l6.48-.84c.27-.03.4.09.38.36a2.78 2.78 0 0 1-.41 1.44.5.5 0 0 0-.08.22Z" fill="#3C893E" /></svg>