<!-- by TradeStack --><svg width="56" height="56" viewBox="0 0 56 56" xmlns="http://www.w3.org/2000/svg"><path fill="#F0F3FA" d="M0 0h56v56H0z"/><path fill-rule="evenodd" d="M4 25v6h2.17c1 0 1.83-.58 1.83-1.63 0-.68-.4-1.43-1.15-1.48v-.06c.6-.16.94-.67.94-1.27 0-1-.8-1.56-1.74-1.56H4Zm2.02 5H5v-1.5h1.04c.55 0 .97.23.97.78 0 .58-.48.72-1 .72Zm-.09-2.5H5V26h.95c.58 0 .87.23.87.7 0 .5-.4.8-.89.8ZM10 25v6H9v-6h1Zm1 0v6h1v-2h1.05c1.17 0 1.95-.85 1.95-2.01 0-1.15-.77-1.99-1.94-1.99H11Zm1 3h.91c.66 0 1.09-.36 1.09-1.01 0-.66-.43-.99-1.1-.99H12v2Zm7.17 3H17v-6h2.05c.95 0 1.74.55 1.74 1.56 0 .6-.34 1.11-.94 1.27v.06c.75.05 1.15.8 1.15 1.48 0 1.05-.83 1.63-1.83 1.63ZM18 30h1.02c.51 0 1-.14 1-.72 0-.55-.43-.78-.98-.78H18V30Zm0-2.5h.93c.5 0 .89-.3.89-.8 0-.47-.3-.7-.87-.7H18v1.5Zm7-2.5h-3v6h3v-1h-2v-1.55h1.83v-.91H23V26h2v-1Zm2 6h-1v-6h1.96A2 2 0 0 1 30 27c0 .77-.43 1.42-1.07 1.76L30 31h-1.06l-.93-2H27v2Zm.82-3H27v-2h.82c.63 0 1.18.36 1.18 1s-.55 1-1.18 1Zm4.45-3H31v6h1v-4.13h.05L33.63 31h.74l1.58-4.12H36V31h1v-6h-1.27l-1.7 4.35h-.06L32.27 25ZM41 25h1v3.86c0 1.18-.78 2.14-2 2.14s-2-.96-2-2.14V25h1v3.77c0 .66.3 1.23 1 1.23.71 0 1-.57 1-1.23V25Zm2 6h1.64c1.68 0 2.36-1.53 2.36-3 0-1.45-.67-3-2.32-3H43v6Zm1.6-1H44v-4h.63c1.15 0 1.37 1 1.37 2s-.22 2-1.4 2Zm2.4 1h1.04l.3-1h2.32l.3 1H52l-1.9-6h-1.2L47 31Zm3.36-2-.84-2.77h-.04L48.64 29h1.72Z"/></svg>