<!-- by TradeStack --><svg width="56" height="56" viewBox="0 0 56 56" xmlns="http://www.w3.org/2000/svg"><path fill="#F0F3FA" d="M0 0h56v56H0z"/><path d="M50.56 32.5H52v.7h-2.31v-4.36h.87v3.67ZM47.89 32.37h-1.74l-.29.83h-.92l1.57-4.37h1.02l1.57 4.37h-.93l-.28-.83Zm-.24-.7-.63-1.83-.63 1.83h1.26ZM44.35 33.2h-.88l-1.98-3v3h-.88v-4.37h.88l1.98 3v-3h.88v4.37ZM37.73 33.24a2.26 2.26 0 0 1-1.94-1.08c-.2-.34-.3-.72-.3-1.15a2.2 2.2 0 0 1 2.24-2.24c.41 0 .79.1 1.12.3a2.2 2.2 0 0 1 1.1 1.94c.01.43-.09.81-.29 1.15-.2.34-.46.6-.8.8-.35.19-.72.28-1.13.28Zm0-.78c.26 0 .5-.06.7-.17.2-.12.35-.3.46-.51.11-.23.17-.48.17-.77 0-.3-.06-.55-.17-.77a1.2 1.2 0 0 0-.47-.5c-.2-.12-.43-.18-.7-.18-.25 0-.49.06-.7.18-.2.11-.35.28-.46.5-.11.22-.17.47-.17.77 0 .29.06.54.17.77.11.22.27.39.47.5.2.12.44.18.7.18ZM34.84 28.84v4.36h-.88v-4.36h.88ZM33.32 28.84v.7h-1.16v3.66h-.87v-3.66h-1.17v-.7h3.2ZM28.55 32.37h-1.73l-.3.83h-.91l1.57-4.37h1.02l1.57 4.37h-.93l-.29-.83Zm-.23-.7-.63-1.83-.64 1.83h1.27ZM25.01 33.2h-.87l-1.98-3v3h-.88v-4.37h.88l1.98 3v-3H25v4.37ZM19.53 33.2l-.97-1.7h-.4v1.7h-.88v-4.36h1.63c.34 0 .63.06.87.18.23.11.41.27.53.48.12.2.18.42.18.67 0 .3-.08.55-.25.79a1.3 1.3 0 0 1-.74.47l1.04 1.77h-1.01Zm-1.38-2.36h.73c.24 0 .42-.05.53-.17a.65.65 0 0 0 .18-.48c0-.2-.06-.35-.18-.46-.11-.11-.29-.17-.53-.17h-.73v1.28ZM14.82 29.54v1.1h1.47v.7h-1.47v1.15h1.66v.71h-2.53v-4.37h2.53v.71h-1.66ZM13.3 28.84v.7h-1.15v3.66h-.88v-3.66h-1.16v-.7h3.2ZM9.47 33.2H8.6l-1.98-3v3h-.88v-4.37h.88l1.98 3v-3h.87v4.37ZM4.88 28.84v4.36H4v-4.36h.88ZM34.05 24.23c0-.43.1-.81.28-1.15.2-.34.47-.6.8-.8.34-.18.71-.28 1.13-.28.49 0 .92.13 1.28.38.37.25.63.6.77 1.03h-1c-.1-.2-.25-.36-.43-.47-.18-.1-.39-.15-.63-.15a1.22 1.22 0 0 0-1.14.68c-.1.22-.16.47-.16.76 0 .29.05.54.16.77.11.21.27.38.46.5.2.12.43.18.68.18.24 0 .45-.06.63-.16s.32-.27.42-.47h1.01c-.14.44-.4.79-.77 1.04-.36.25-.79.37-1.28.37a2.14 2.14 0 0 1-2.21-2.23ZM33.4 22.06v4.36h-.88v-4.36h.87ZM31.88 22.06v.7h-1.16v3.66h-.88v-3.66h-1.16v-.7h3.2ZM26.92 25.73h1.43v.7h-2.3v-4.37h.87v3.67ZM24.24 25.59H22.5l-.29.83h-.92l1.57-4.37h1.02l1.57 4.37h-.92l-.29-.83Zm-.24-.7-.63-1.83-.63 1.83H24ZM20.02 24.18c.25.05.45.17.61.37.16.2.24.43.24.69 0 .23-.06.44-.18.62-.11.17-.28.31-.5.41-.2.1-.47.15-.76.15h-1.88v-4.36h1.8c.3 0 .55.04.76.14a1.03 1.03 0 0 1 .66.98c0 .26-.07.47-.2.64-.14.17-.32.3-.55.36Zm-1.6-.32h.8c.21 0 .37-.05.48-.14a.5.5 0 0 0 .17-.4.5.5 0 0 0-.17-.41.72.72 0 0 0-.48-.15h-.8v1.1Zm.88 1.85c.22 0 .38-.05.5-.15.12-.1.18-.24.18-.43a.54.54 0 0 0-.19-.43.75.75 0 0 0-.5-.17h-.87v1.18h.88Z"/></svg>