<!-- by TradeStack --><svg width="56" height="56" viewBox="0 0 56 56" xmlns="http://www.w3.org/2000/svg"><path fill="#F0F3FA" d="M0 0h56v56H0z"/><path d="M33 12H16v25.5h5V29h8v-5h-8v-8h7v-3h1v3h2v-3h1v3h1v-4Z" fill="#00B9E3"/><path d="M21 24v-8h7v-3h1v3h2v-3h1v3h1c2.11 0 5.94 1.47 5.94 6.58 0 1.6-.52 5-2.63 5.86 1.23.35 3.69 2.12 3.69 6.38A7.11 7.11 0 0 1 33.67 42H32v4h-1.06v-4H29v4h-1.06v-4H21V29h8v-2h2.03c1.05 0 2.64-.8 2.64-3.35 0-2.56-1.59-3.65-2.64-3.65H26v4h-5Zm5 7v6h5.63c1.12 0 3.37-1 3.37-3s-1.13-3-3.38-3H26Z"/></svg>