<!-- by TradeStack --><svg width="56" height="56" viewBox="0 0 56 56" xmlns="http://www.w3.org/2000/svg"><path fill="#F0F3FA" d="M0 0h56v56H0z"/><path d="m15.65 26.57.4-1.52h.5c.15.03.45.18.45.54 0 .44-.55.98-.75.98h-.6ZM14 32l1.5-5h.55c.15 0 .45.08.45.4 0 .38-1 4.6-1.9 4.6H14ZM27.65 27l.65-2h.22c.16 0 .48.08.48.4 0 .11-.15.76-.37 1.6H31c-.06.33-.37 1-1.14 1h-1.5c-.54 1.85-1.28 4-1.72 4H26l1.32-4h-1.6c-.24.02-.72-.02-.72-.36 0-.34.15-.57.23-.64h2.42ZM32.7 27H37l-.04.18c-.17.7-.82 1.35-1.58 1.35h-2.82c-.53 0-1 .18-1.13.66-.16.57-.35 1.25-.46 1.74-.17.77-.72 1.04-.97 1.07.16-.66.58-2.29.97-3.47.39-1.18 1.3-1.51 1.72-1.53ZM46.5 27c-.38.02-1.24.35-1.6 1.53A58.2 58.2 0 0 0 44 32c.23-.03.74-.3.9-1.07.1-.5.27-1.05.43-1.62.13-.48.56-.81 1.05-.81h4.12c.17.02.5.14.5.51s-.37 1.26-.55 1.71c-.03.09-.1.34-.1.67 0 .4.35.5.5.5l.95-3.16c.07-.18.2-.64.2-.96 0-.41-.3-.77-.5-.77h-5Z" fill="#0061A2"/><path fill-rule="evenodd" d="M23.65 29.78a8.6 8.6 0 0 0 .35-1.82c0-.56-.44-.96-1.62-.96h-3.14a2 2 0 0 0-1.75 1.41c-.44 1.37-.61 2.68-.4 3.14.22.45 1.27.45 1.93.45h2.97c.48-.07 1.2-.6 1.66-2.22Zm-1.53-1.16h-3.76c-.26.1-.79.5-.79 1.3 0 .31.05.51.75.51h4.33c.21-.13.65-.56.65-1.2 0-.51-.26-.61-1.18-.61ZM43.65 29.78a8.6 8.6 0 0 0 .35-1.82c0-.56-.44-.96-1.62-.96h-3.14a2 2 0 0 0-1.75 1.41c-.44 1.37-.61 2.68-.4 3.14.22.45 1.27.45 1.93.45h2.97c.48-.07 1.2-.6 1.66-2.22Zm-1.53-1.16h-3.76c-.26.1-.79.5-.79 1.3 0 .31.05.51.75.51h4.33c.21-.13.65-.56.65-1.2 0-.51-.26-.61-1.18-.61ZM13.35 25H5.8c-.3.96.53 1.37.98 1.45l-.25.93c-.29 1.11-.67 2.54-.87 3.12-1.22.24-1.64 1.1-1.67 1.5h6.93c1.21 0 2.05-1.3 2.05-2.3 0-.67-.73-.96-1.2-1.15-.25-.1-.43-.17-.43-.25 0-.17.13-.2.48-.28l.64-.17c.83-.25 1.53-.9 1.53-1.8 0-.72-.43-1-.65-1.05ZM7.5 27.05c0-.36.6-.55.93-.55h3.52c.34 0 .6.2.6.55 0 .36-.72.52-1.05.52H7.98c-.34 0-.48-.16-.48-.52Zm.03 2.45c-.33 0-.93.14-.93.5s.28.5.6.5h3.87c.33 0 .93-.14.93-.5s-.27-.5-.6-.5H7.53Z" fill="#0061A2"/></svg>