<!-- by TradeStack --><svg width="56" height="56" viewBox="0 0 56 56" xmlns="http://www.w3.org/2000/svg"><path fill="#F0F3FA" d="M0 0h56v56H0z"/><path fill-rule="evenodd" d="M26 19v-2.53a1.5 1.5 0 0 0-3 0V19h3Zm-1.5-5.03a2.5 2.5 0 0 0-2.5 2.5V20h5v-3.53a2.5 2.5 0 0 0-2.5-2.5ZM33 19v-2.53a1.5 1.5 0 0 0-3 0V19h3Zm-1.5-5.03a2.5 2.5 0 0 0-2.5 2.5V20h5v-3.53a2.5 2.5 0 0 0-2.5-2.5ZM37 26h2.5a1.5 1.5 0 0 0 0-3H37v3Zm5-1.5a2.5 2.5 0 0 0-2.5-2.5H36v5h3.5a2.5 2.5 0 0 0 2.5-2.5ZM19 23h-2.5a1.5 1.5 0 0 0 0 3H19v-3Zm-5 1.5a2.5 2.5 0 0 0 2.5 2.5H20v-5h-3.5a2.5 2.5 0 0 0-2.5 2.5ZM19 30h-2.5a1.5 1.5 0 0 0 0 3H19v-3Zm-5 1.5a2.5 2.5 0 0 0 2.5 2.5H20v-5h-3.5a2.5 2.5 0 0 0-2.5 2.5ZM37 33h2.5a1.5 1.5 0 0 0 0-3H37v3Zm5-1.5a2.5 2.5 0 0 0-2.5-2.5H36v5h3.5a2.5 2.5 0 0 0 2.5-2.5ZM30 37v2.5a1.5 1.5 0 0 0 3 0V37h-3Zm1.5 5a2.5 2.5 0 0 0 2.5-2.5V36h-5v3.5a2.5 2.5 0 0 0 2.5 2.5ZM23 37v2.5a1.5 1.5 0 0 0 3 0V37h-3Zm1.5 5a2.5 2.5 0 0 0 2.5-2.5V36h-5v3.5a2.5 2.5 0 0 0 2.5 2.5Z" fill="#54B947"/><path d="M19.02 16c0-2.79 2.4-5 5.3-5 1.44 0 2.76.55 3.72 1.45A5.43 5.43 0 0 1 31.77 11c2.89 0 5.28 2.21 5.28 5v4h-1v-4c0-2.18-1.89-4-4.28-4a4.4 4.4 0 0 0-3.35 1.5l-.38.44-.38-.44a4.4 4.4 0 0 0-3.35-1.5c-2.4 0-4.29 1.82-4.29 4v4h-1v-4ZM19 39.74a5.33 5.33 0 0 0 9.04 3.74A5.3 5.3 0 0 0 31.77 45 5.23 5.23 0 0 0 37 39.74V36h-1v3.74a4.27 4.27 0 0 1-7.57 2.68l-.39-.48-.39.48A4.3 4.3 0 0 1 24.31 44C21.94 44 20 42.1 20 39.74V36h-1v3.74Z" fill="#005DAB"/><path d="M39.72 19a5.28 5.28 0 0 1 3.76 9 5.27 5.27 0 0 1-3.76 9H36v-1h3.72A4.3 4.3 0 0 0 44 31.71c0-1.33-.61-2.52-1.58-3.3l-.5-.41.5-.4a4.24 4.24 0 0 0-2.7-7.57h-3.19V19h3.19ZM16.34 19A5.31 5.31 0 0 0 11 24.29c0 1.45.59 2.76 1.54 3.71A5.25 5.25 0 0 0 11 31.71 5.31 5.31 0 0 0 16.34 37H20v-1h-3.66A4.32 4.32 0 0 1 12 31.71c0-1.33.62-2.52 1.6-3.3l.51-.41-.5-.4A4.22 4.22 0 0 1 12 24.28a4.3 4.3 0 0 1 4.34-4.26h3.12V19h-3.12Z" fill="#005DAB"/><path fill-rule="evenodd" d="M26 23h-3v3h3v-3Zm-4-1v5h5v-5h-5ZM26 30h-3v3h3v-3Zm-4-1v5h5v-5h-5ZM33 30h-3v3h3v-3Zm-4-1v5h5v-5h-5ZM33 23h-3v3h3v-3Zm-4-1v5h5v-5h-5Z" fill="#54B947"/><circle cx="28" cy="28" r="2" fill="#005DAB"/></svg>