<!-- by TradeStack --><svg width="56" height="56" viewBox="0 0 56 56" xmlns="http://www.w3.org/2000/svg"><path fill="#6F5F5E" d="M0 0h56v56H0z"/><path d="M35.37 13.8a15.81 15.81 0 0 0-6.91-1.8c-.08 0-.06.09-.06.09 0 3.18.51 10.62 2.99 15.64 0 .04.03.04.06.03h.02l.02-.02c.25-.26 4.09-4.49 3.94-13.83 0-.07-.04-.11-.06-.11Zm-15.63.62s0-.12-.09-.08a15.98 15.98 0 0 0-7.53 15.54c0 .01.03.06.09.03 7.27-3.18 7.52-13.61 7.53-15.5Zm16.6-.08c-.08-.04-.08.08-.08.08.01 1.88.26 12.3 7.53 15.49.08.03.1-.02.1-.03a16.04 16.04 0 0 0-7.54-15.54Zm-13.18 16.3c-1-1.03-2.21-2.7-2.96-5.14 0 0-.03-.08-.07-.08-.05 0-.1.1-.1.1-1.64 5.34-5.62 7.45-6.97 7.9-.07.04-.07.1-.07.12.69 1.89 1.73 3.6 3.04 5.07h.01c.03.02.07.04.14 0 4.25-2.43 6.68-7.17 7-7.83.04-.06 0-.1-.02-.14Zm9.65 0c1-1.03 2.21-2.7 2.98-5.14 0 0 .03-.08.07-.08.04 0 .09.1.09.1 1.65 5.34 5.62 7.45 6.98 7.9.07.04.07.1.07.12-.7 1.89-1.74 3.6-3.05 5.07-.03.02-.08.04-.15 0-4.26-2.43-6.68-7.17-7-7.83-.02-.04 0-.08 0-.1l.01-.04ZM28.1 25.6s1.59 10.47 7.6 16.33c0 0 .07.06-.02.1a15.92 15.92 0 0 1-7.6 1.98h-.2a15.92 15.92 0 0 1-7.6-1.97c-.06-.05 0-.1 0-.1 6.04-5.87 7.61-16.34 7.61-16.34s.03-.17.1-.17c.08 0 .1.17.1.17ZM27.53 12c-2.49.07-4.84.7-6.92 1.8-.03 0-.06.04-.06.11-.14 9.34 3.7 13.57 3.95 13.83l.01.02s.06.03.08-.03c2.48-5.02 3-12.46 3-15.64 0 0 .01-.09-.06-.09Z" fill="#FFD400"/></svg>