<!-- by TradeStack --><svg xmlns="http://www.w3.org/2000/svg" width="56" height="56" viewBox="0 0 56 56"><path fill="#00F3B3" d="M0 0h56v56H0z"/><path d="M24.9 36l-1.51.01c-.17 0-.4.14-.39.34 0 .12.12.43.39.58a7.65 7.65 0 0 0 3.6 1.07c2.37 0 4.62-1 7.01-1 .69 0 1.25 0 1.71-.08.2-.03.3-.2.29-.31 0-.18-.13-.26-.29-.34-.85-.4-2.28-1.27-3.45-1.27-2.5 0-4.87 1-7.35 1z" fill="#FBF9F9"/><path fill-rule="evenodd" d="M41.3 20.5a1.5 1.5 0 1 1-3 0 1.5 1.5 0 0 1 3 0zM38.6 23H41v7h-2.4v-7zm-2.2-3c-.7.1-2.15.32-2.4.32v3.93s-.68-.25-1.5-.25a3.4 3.4 0 0 0-3.5 3.56c0 1.97 1.22 3.44 2.9 3.44 1.33 0 1.86-.43 2.24-.72.2-.16.35-.28.55-.28.58 0 .81.38.81.38l.9-.18V20zM34 28.22v-1.81c-.29-.47-.72-.82-1.32-.82-.92 0-1.68.7-1.68 1.69 0 1 .72 1.72 1.68 1.72s1.32-.78 1.32-.78zM43 23v7.44l2.4.34V25.5h1.02c1.18 0 1.18 1.36 1.18 1.36v4.53l2.4.6v-5.13c0-1.7-1.21-3.05-3.13-3.36-.5-.08-1.14 0-1.58.05-.25.02-.44.05-.5.03a1.31 1.31 0 0 1-.68-.58H43zm-17.4 7.8v.8l2.4-.52V24h-1.31s-.18.38-.4.5c-.24.11-.4.09-.68.05-.3-.05-.74-.1-1.55-.05a3.93 3.93 0 0 0-3.56 3.97c0 2.03 1.16 3.53 2.94 3.53 1.77 0 2.16-1.2 2.16-1.2zm0-3.94v2.1S25.14 30 24.08 30s-1.68-.85-1.68-1.81c0-.96.67-1.79 1.68-1.79 1 0 1.52.46 1.52.46zM17 23.3l2.4-.3v9.7L17 33v-9.7zM9.25 22L5 33a9.2 9.2 0 0 0 3.06-.47c1.02-.4 2.24-1.57 3.48-2.82 1.24-1.26 2.57-1.11 2.57-1.11l-2.2-5.85L9.26 22zm2.15 6l-1-3L9 28.6l1.4-.9 1 .3zm4.6 5h-2.84l-.26-.62c-.2-.45-.4-.88-.4-1.4 0-.4.14-1.02.49-1.38.42-.44.84-.6 1.32-.6L16 33z" fill="#1B21CD"/></svg>