<!-- by TradeStack --><svg width="56" height="56" viewBox="0 0 56 56" xmlns="http://www.w3.org/2000/svg"><path fill="#F0F3FA" d="M0 0h56v56H0z"/><path d="M36.95 32.86a99.19 99.19 0 0 1 .15-.32.05.05 0 0 1 .05.02l.01.02a9.43 9.43 0 0 1-.9 2.72l-.34.78a.87.87 0 0 0-.04.5 24 24 0 0 1 .27 7.26.07.07 0 0 0 .05.02h1.44a.1.1 0 0 0 .07-.02.1.1 0 0 0 .03-.06c.75-3.55 1.38-7.3 1.1-11a.07.07 0 0 1 .1-.07l.03.03 1.46 1.7.06.11c.26.66.7 1.1 1.3 1.31a.16.16 0 0 0 .16-.04.16.16 0 0 0 .04-.17l-.28-.68a.82.82 0 0 0-.4-.42c-1.25-.6-2.3-2.3-2.7-3.44-.56-1.6-.85-2.45-.9-2.56-1.15-2.98-3.3-4.41-6.04-5.92-.56-.3-.92-.76-1.1-1.37a.13.13 0 0 0-.06-.08.13.13 0 0 0-.11 0c-3.55 1.47-5.31 4.19-6.43 7.75l-.03.03a.06.06 0 0 1-.07-.02.06.06 0 0 1-.02-.04c.15-1.95.77-3.52 1.67-5.43.58-1.22.76-2.07.25-3.24a31.78 31.78 0 0 1-.88-2.18c0-.02.02-.03.03-.04h.05c.02 0 .03.02.04.03.94 1.62 2.4 3.2 4.5 2.52a36.85 36.85 0 0 1 4.92-1.22l.02.03a.04.04 0 0 1-.02.05l-1.36.55a.15.15 0 0 0-.09.12.14.14 0 0 0 .07.14c.76.45 1.7.4 2.28-.49.11-.18.26-.35.43-.53.3-.35.65-.73.86-1.3.33-.9-.4-1.59-1.24-1.76a32.34 32.34 0 0 1-3.17-.87v-.07a.05.05 0 0 1 .03-.05.05.05 0 0 1 .04 0c.22.06.41.08.59.07.28-.01.3-.24.06-.66a.83.83 0 0 0-.26-.28l-.96-.64a.1.1 0 0 0-.14 0 .1.1 0 0 0-.01.14c.32.53.26.83-.2.9l-.64.08c-.13.01-.26 0-.39-.03a35.5 35.5 0 0 0-5.65-.96.23.23 0 0 0-.22.12.22.22 0 0 0 .03.25l.26.29a.08.08 0 0 1 0 .1.08.08 0 0 1-.1 0c-.54-.4-.87-.6-.98-.61a58.85 58.85 0 0 1-5.05-.9 9 9 0 0 1-2.8-1.05.42.42 0 0 1-.2-.32.4.4 0 0 1 .15-.34l.18-.16a.1.1 0 0 0 .03-.1.1.1 0 0 0-.1-.06c-1.42.12-2.64 1.6-1.3 2.8 1.79 1.63 5.68 2.25 8.02 2.5.26.04.53-.02.75-.16l.77-.47a.25.25 0 0 0 .12-.26.25.25 0 0 0-.2-.2 44.36 44.36 0 0 1-6.56-1.56v-.05c0-.02.01-.03.03-.04l.05-.01a60.76 60.76 0 0 0 7.36 1.36.12.12 0 0 1 .06.08v.05c-.63 2.21-3.55 2.09-5.3 1.6a.8.8 0 0 0-.73.16l-1.44 1.25a.24.24 0 0 0-.07.25.24.24 0 0 0 .2.17c.6.08 1.22.27 1.84.57.04.02.09.03.13.02.05 0 .1-.02.13-.05.04-.03.09-.1.14-.24a.1.1 0 0 1 .1-.06.1.1 0 0 1 .09.09c.04.35.2.54.52.58 1.4.16 2.53-.24 3.38-1.2a16.63 16.63 0 0 1 .46-.47.06.06 0 0 1 .06.05v.04a5.88 5.88 0 0 1-3 2.9.76.76 0 0 0-.33.26c-2.14 3.1-3.24 7.31-3.66 11.11-.46 4.18-.35 8.43.34 12.75 0 .05.03.1.07.13.04.03.09.05.14.05h1.59c.05 0 .09-.02.12-.05a.18.18 0 0 0 .06-.12c.23-2.66.55-4.8 1.96-7.13a.42.42 0 0 0-.06-.5 5.44 5.44 0 0 1-1.4-3.24.05.05 0 0 1 .06-.02l.02.02c.89 2 2.48 3.3 4.78 3.9.4.1.9.03 1.51-.21 1.97-.77 3.31-1.97 4.03-3.58l.02-.02a.05.05 0 0 1 .06.01l.01.03c.08.95-.7 2.37-1.31 3.07a.22.22 0 0 0-.03.26l.61 1.1a12.34 12.34 0 0 1 1.39 6.45.08.08 0 0 0 .05.03h1.83l.05-.02a33.38 33.38 0 0 0-.3-14.28l.06-.03h.05l.04.04a17 17 0 0 1 1.49 5.08.16.16 0 0 0 .14.07c.03 0 .06-.02.08-.03 1.04-.72 1.5-1.8 1.99-2.97Zm-10.2-17.59 3.1.64a.15.15 0 0 1 .11.16c0 .04-.02.07-.04.1a.15.15 0 0 1-.1.04h-2.25a.74.74 0 0 1-.55-.24l-.4-.46a.15.15 0 0 1 .04-.23.15.15 0 0 1 .1 0Zm7.47 1.5 1.48.3a.17.17 0 0 1 .1.08.16.16 0 0 1 .03.12c-.07.3-.26.5-.57.6a.29.29 0 0 1-.27-.03 3.59 3.59 0 0 1-.87-1 .08.08 0 0 1 .05-.07h.05Z" fill="#749F33"/></svg>