<!-- by TradeStack --><svg width="56" height="56" viewBox="0 0 56 56" xmlns="http://www.w3.org/2000/svg"><path fill="#F0F3FA" d="M0 0h56v56H0z"/><path d="M11 26.5c0-12.16 9.43-15.4 14.15-15.5C31.9 11 43 16.4 43 27.8 43 39.18 33.2 45 27.05 45 20.89 45 11 38.35 11 26.5Z" fill="url(#aupv3ytaf)"/><path d="M30.01 43C38.84 43 46 36.06 46 27.5 46 18.94 38.84 12 30 12s-16 6.94-16 15.5c0 7.9 6.1 14.43 14 15.38v-1c-7.34-.95-13-7.03-13-14.38 0-8 6.72-14.5 15-14.5 8.28 0 15 6.5 15 14.5 0 7.8-6.39 14.18-14.39 14.49 0-1.46.13-3.82.7-4.57l.72-.6.08-.06c1.2-.96 2.89-2.3 2.89-3.32-.03-.17-.12-.65-.71-.65-.31 0-.63.06-.91.1l-.24.06c-.12.03-.22.05-.3.05-.1 0-.16-.07-.16-.14 0-.28.5-1.2 2.44-2.26.86-.5 1.88-1.53 1.88-2.7 0-.67-.7-.9-1.29-.9-.47 0-1.34.34-1.72.5 0-.35.19-1.6 1.02-2.66a5.03 5.03 0 0 0 1.02-2.65c0-.74-.75-1.16-1.34-1.16-.42 0-.74.24-1.06.48-.32.25-.64.49-1.09.49-.27 0-.3-.29-.36-.97-.1-1.2-.47-4.03-2.18-4.03-1.71 0-2.08 2.84-2.18 4.03-.05.68-.1.97-.36.97-.45 0-.77-.24-1.1-.49-.31-.24-.63-.48-1.05-.48-.6 0-1.34.42-1.34 1.16 0 .73.45 1.96 1.02 2.65a4.92 4.92 0 0 1 1.02 2.67 5.71 5.71 0 0 0-1.72-.51c-.59 0-1.29.23-1.29.9 0 1.17 1.02 2.2 1.88 2.7 1.94 1.06 2.44 1.98 2.44 2.26 0 .08-.08.14-.2.14a.97.97 0 0 1-.27-.05 3.05 3.05 0 0 0-.23-.05c-.28-.05-.6-.11-.9-.11-.6 0-.69.35-.72.53 0 1.03 1.77 2.54 2.97 3.5l.73.6c.56.75.69 3.11.69 4.57v.25l-.01.25v.5l.6.01h.03Z" fill="#104227"/><defs><linearGradient id="aupv3ytaf" x1="27" y1="11" x2="27" y2="45" gradientUnits="userSpaceOnUse"><stop offset=".77" stop-color="#67BB7F"/><stop offset="1" stop-color="#448259"/></linearGradient></defs></svg>