<!-- by TradeStack --><svg width="56" height="56" xmlns="http://www.w3.org/2000/svg"><path fill="#D71A20" d="M0 0h56v56H0z"/><path d="M22.366 15c-2.155-.016-4.59.66-7.268 2.485 0 0 .803 2.079-.874 4.27 0 0 .044.022.046.021 1.626-.919 9.372-7.855 17.77.438 0 0 13.26-1.181 9.744 10.608 0 0 4.69 1.717 4.122 8.177 0 0 .055.003.057 0 .197-.413 2.943-6.045-1.397-8.648 0 0 1.755-4.154-1.522-8.002-1.666-1.958-4.719-3.828-10.31-3.043 0 0-3.902-6.257-10.368-6.306zM9 15.241v.055c.737.395 5.216 3.138.194 6.415l3.111 12.906s4.362-3.41 7.983-1.85c2.31.996 2.907 3.746 2.464 8.024 0 0 .066.004.068 0 .332-.751 4.614-8.417-1.908-10.739-1.23-.438-2.963-.575-6.075.526l-2.884-7.98S16.53 16.614 9 15.24zm27.254 16.103c-2.448.118-3.918 1.839-3.918 1.839-3.86-3.634-7.267.35-7.267.35C27.576 35.96 26.363 41 26.363 41c-.001-.003.055.003.057 0 2.081-3.282 1.828-6.514 1.828-6.514 2.083-.613 3.316 1.588 3.316 1.588 2.605-2.757 5.211-2.934 6.632-2.08 3.524 2.12 2.316 6.798 2.316 6.798a.43.43 0 00.068 0c2.95-5.515.276-8.117-1.567-8.91-1.016-.439-1.943-.577-2.76-.537z" fill="#fff"/></svg>