<?xml version='1.0' encoding='utf-8'?>
<!-- by TradeStack -->
<svg width="56" height="56" viewBox="0 0 56 56" xmlns="http://www.w3.org/2000/svg"><path fill="#F0F3FA" d="M0 0h56v56H0z" /><path d="M18 43h24v-7.34C17.37 13.06 21.17 16.82 17 13l1 7.15V43Z" fill="url(#ap3haeebk)" /><path d="M18 36V15.03c0-1.78-1.51-2.97-4-3.03v24h4Z" fill="#EAA921" /><path d="M21.01 35h2.39c.47 0 .82.02 1.06.06a1.5 1.5 0 0 1 1.26 1.45c0 .27-.08.53-.22.76-.15.24-.36.41-.62.53.37.11.64.29.83.55.2.26.29.56.29.9a1.78 1.78 0 0 1-.7 1.42c-.22.15-.49.25-.81.29-.2.02-.69.04-1.46.04H21l.01-6Zm1.2 1v1.38h.8c.47 0 .76 0 .87-.02a.8.8 0 0 0 .49-.2.63.63 0 0 0 .17-.48.64.64 0 0 0-.14-.44.66.66 0 0 0-.46-.21c-.12-.01-.46-.02-1.03-.02h-.7V36Zm0 2.38v1.61h1.13c.43 0 .7 0 .82-.04a.7.7 0 0 0 .43-.24c.11-.13.17-.3.17-.5a.73.73 0 0 0-.5-.74 3.95 3.95 0 0 0-1.07-.1h-.97ZM26.5 38.03c0-.58.1-1.08.29-1.48a2.57 2.57 0 0 1 1.37-1.32A3.6 3.6 0 0 1 29.5 35a3 3 0 0 1 2.19.8c.54.52.82 1.26.82 2.2 0 .94-.28 1.68-.81 2.2a3 3 0 0 1-2.17.8 3 3 0 0 1-2.2-.79 2.9 2.9 0 0 1-.82-2.18Zm1.3-.03c0 .65.16 1.15.47 1.48.33.34.74.51 1.24.51s.9-.17 1.23-.5c.31-.33.48-.83.48-1.5s-.16-1.17-.47-1.5c-.31-.32-.73-.48-1.24-.48-.52 0-.94.16-1.25.5-.31.32-.47.82-.47 1.49ZM33 38.03c0-.58.1-1.08.29-1.48a2.57 2.57 0 0 1 1.37-1.32A3.6 3.6 0 0 1 36 35a3 3 0 0 1 2.19.8c.54.52.82 1.26.82 2.2 0 .94-.28 1.68-.81 2.2a3 3 0 0 1-2.17.8 3 3 0 0 1-2.2-.79 2.87 2.87 0 0 1-.82-2.18Zm1.28-.03c0 .65.17 1.15.48 1.48.33.34.74.51 1.23.51.5 0 .9-.17 1.24-.5.31-.33.48-.83.48-1.5s-.16-1.17-.47-1.5c-.31-.32-.73-.48-1.25-.48-.5 0-.93.16-1.24.5-.31.32-.47.82-.47 1.49Z" fill="#F0F3FA" /><path d="m36.7 38.22 2.05 2.08-.67.67L36 38.91l.7-.69Z" fill="#F0F3FA" /><defs><linearGradient id="ap3haeebk" x1="42.92" y1="12.11" x2="17.09" y2="40.24" gradientUnits="userSpaceOnUse"><stop offset=".47" stop-color="#CFDFF5" /><stop offset=".6" stop-color="#328ED1" /><stop offset=".72" stop-color="#007DC5" /></linearGradient></defs></svg>