<!-- by TradeStack --><svg width="56" height="56" viewBox="0 0 56 56" xmlns="http://www.w3.org/2000/svg"><path fill="url(#afxgx4pp0)" d="M0 0h56v56H0z"/><path fill-rule="evenodd" d="M15 26v-4h1.35c.27 0 .49.05.66.14.18.1.3.23.39.39.09.16.13.34.13.53 0 .17-.03.32-.09.43a.7.7 0 0 1-.23.26c-.1.07-.2.12-.3.15v.04c.11 0 .23.05.35.13.12.07.22.19.3.33.08.15.12.33.12.54 0 .2-.05.38-.13.54a.92.92 0 0 1-.42.38c-.19.1-.43.14-.74.14H15Zm.47-.43h.92c.3 0 .52-.06.65-.18a.6.6 0 0 0 .2-.45.73.73 0 0 0-.39-.65.86.86 0 0 0-.44-.11h-.94v1.39Zm0-1.81h.86c.14 0 .27-.03.38-.09a.66.66 0 0 0 .37-.6.62.62 0 0 0-.17-.45c-.12-.13-.3-.19-.56-.19h-.88v1.33ZM19 26v-4h-.5v4h.5Zm7 0v-1.01l.35-.37L27.44 26h.59l-1.34-1.69L27.93 23h-.57l-1.31 1.4H26V22h-.5v4h.5Zm3.5 0h.5v-1.5h.95l.8 1.5h.54l-.86-1.62c.43-.2.7-.6.7-1.15 0-.79-.56-1.23-1.31-1.23H29.5v4Zm.5-2h.8c.5 0 .87-.25.87-.77 0-.54-.36-.73-.87-.73H30V24Zm2.5.5c0 .75.43 1.5 1.25 1.5.82 0 1.25-.75 1.25-1.5s-.42-1.5-1.25-1.5c-.83 0-1.25.75-1.25 1.5Zm2 0c0 .52-.16 1.1-.75 1.1-.6 0-.75-.58-.75-1.1 0-.5.16-1.1.75-1.1.6 0 .75.6.75 1.1Zm4.5.4V26h-.5v-4h.5v2.36h.02L40.34 23h.57l-1.25 1.27L41 26h-.59l-1.09-1.42-.32.33ZM23.78 26c-.83 0-1.28-.73-1.28-1.5 0-.75.44-1.5 1.27-1.5.62 0 1.03.4 1.12 1h-.44c-.09-.35-.29-.6-.67-.6-.59 0-.78.58-.78 1.09 0 .52.18 1.11.78 1.11.4 0 .58-.24.67-.6h.44c-.1.6-.49 1-1.11 1Zm11.72-1.5c0 .77.45 1.5 1.28 1.5.54 0 1.03-.44 1.1-1h-.43c-.08.32-.35.6-.67.6-.6 0-.78-.6-.78-1.11 0-.51.19-1.09.78-1.09.38 0 .6.34.67.6h.44c-.08-.56-.57-1-1.12-1-.83 0-1.27.75-1.27 1.5ZM20.69 26c-.19 0-.35-.03-.5-.1a.86.86 0 0 1-.36-.3.86.86 0 0 1-.13-.49c0-.17.03-.3.1-.4a.7.7 0 0 1 .26-.25c.1-.06.23-.1.36-.13a4.4 4.4 0 0 1 .83-.12c.1-.01.19-.04.24-.06a.16.16 0 0 0 .08-.15v-.02a.6.6 0 0 0-.16-.43.61.61 0 0 0-.45-.16.8.8 0 0 0-.5.14c-.12.1-.2.2-.26.3l-.42-.15a1.01 1.01 0 0 1 .72-.62 1.71 1.71 0 0 1 .76-.03c.12.03.24.07.35.14.12.07.21.17.29.3.07.14.1.33.1.56V26h-.43v-.46h-.03a.87.87 0 0 1-.43.38c-.11.05-.26.08-.42.08Zm.06-.4c.18 0 .33-.03.45-.1a.7.7 0 0 0 .37-.62v-.4l-.13.06a2.08 2.08 0 0 1-.46.08l-.18.02a1.7 1.7 0 0 0-.33.08.56.56 0 0 0-.24.15.38.38 0 0 0-.09.26c0 .16.06.27.18.35.11.08.26.12.43.12ZM4 32v-4h1.31c.3 0 .56.05.75.16.2.1.34.25.43.44.1.18.14.4.14.63 0 .23-.04.44-.14.62a1 1 0 0 1-.43.43c-.2.1-.44.16-.74.16H4.5V32H4Zm1.3-2h-.8v-1.57h.8c.2 0 .38.03.5.1a.6.6 0 0 1 .28.28.93.93 0 0 1 0 .83.58.58 0 0 1-.27.27c-.13.06-.3.09-.5.09Zm5.7-.57V29h-.57v-1H10v1h-.44v.43H10v1.75c0 .18.03.34.1.46a.8.8 0 0 0 .86.34l.13-.04-.09-.44-.07.02a.7.7 0 0 1-.12 0 .51.51 0 0 1-.18-.03.3.3 0 0 1-.14-.13.7.7 0 0 1-.06-.32v-1.61H11Zm21.07-.16h.43c-.03-.2-.1-.38-.18-.53a1.4 1.4 0 0 0-1.25-.74c-1.08 0-1.57 1.05-1.57 2s.5 2 1.57 2a1.47 1.47 0 0 0 .93-.33 1.56 1.56 0 0 0 .5-.94h-.43a1.4 1.4 0 0 1-.13.36.97.97 0 0 1-.87.47c-.83 0-1.07-.85-1.07-1.56 0-.7.24-1.56 1.07-1.56.12 0 .23.02.34.05a.94.94 0 0 1 .53.42c.06.1.1.22.13.36ZM41 33v-4h.5v.46l.1-.15a.78.78 0 0 1 .7-.3c.8 0 1.2.75 1.2 1.48s-.39 1.5-1.2 1.5a.9.9 0 0 1-.44-.1.81.81 0 0 1-.25-.21 3.4 3.4 0 0 1-.11-.16V33H41Zm.5-2.52c0 .44.05.78.3.97a.7.7 0 0 0 .44.13c.59 0 .76-.59.76-1.1 0-.51-.17-1.08-.76-1.08a.72.72 0 0 0-.45.14c-.24.18-.29.51-.29.94ZM49.6 33a1.29 1.29 0 0 1-.38-.05l.13-.4c.12.03.23.04.33.03.1 0 .18-.04.26-.1a.87.87 0 0 0 .2-.33l.1-.23L49 29h.56l.92 2.32h.04l.92-2.32H52l-1.42 3.33a1.3 1.3 0 0 1-.24.38c-.1.1-.2.17-.33.22-.12.05-.26.07-.42.07Zm-26.1-1v-3h.5v.5c.13-.32.41-.5.8-.5.21 0 .38.04.51.13a.9.9 0 0 1 .32.37h.03c.08-.15.2-.27.35-.36.16-.1.34-.14.56-.14.55 0 .93.32.93 1.02V32H27v-1.98c0-.37-.22-.61-.59-.61a.65.65 0 0 0-.5.19.66.66 0 0 0-.17.47V32h-.48v-2.03c0-.17-.05-.3-.17-.4-.46-.43-1.12.03-1.12.58L24 32h-.5ZM36 29v3h.53v-1.85a.7.7 0 0 1 .1-.38c.08-.12.17-.2.29-.27a.8.8 0 0 1 .38-.1c.2 0 .37.06.5.16.12.1.18.24.18.41V32h.54v-1.93c0-.19.06-.35.2-.47a.78.78 0 0 1 .56-.2c.18 0 .35.06.49.15.13.1.2.25.2.47V32h.53v-1.98c0-.35-.1-.6-.3-.77a1.07 1.07 0 0 0-.74-.25c-.25 0-.46.05-.64.14a.93.93 0 0 0-.4.36h-.03a.92.92 0 0 0-.35-.37 1.1 1.1 0 0 0-.57-.13c-.22 0-.41.04-.57.13a.78.78 0 0 0-.35.37h-.04V29H36Zm-13.49 1.75V29H23v3h-.49v-.54h-.03a1 1 0 0 1-.95.54c-.2 0-.38-.04-.53-.12a.88.88 0 0 1-.37-.37 1.32 1.32 0 0 1-.13-.63V29h.5v1.85c0 .22.06.39.19.52s.3.19.5.19a.89.89 0 0 0 .69-.35.76.76 0 0 0 .13-.46ZM46.99 32v-1.75a.76.76 0 0 1 .45-.72.89.89 0 0 1 .37-.09c.2 0 .37.06.5.2.13.12.2.3.2.5V32H49v-1.88c0-.25-.04-.46-.13-.63a.88.88 0 0 0-.37-.37 1.13 1.13 0 0 0-.53-.12c-.24 0-.44.05-.6.16a1 1 0 0 0-.35.38H47V29h-.5v3h.49Zm-35.43 0v-3H12v.5h.04a.73.73 0 0 1 .3-.36.9.9 0 0 1 .49-.14l.25.01v.47c-.04 0-.16-.03-.29-.03a.83.83 0 0 0-.4.1.7.7 0 0 0-.27.25.7.7 0 0 0-.12.36V32h-.44ZM8.3 32a1.18 1.18 0 0 1-1.14-.71c-.1-.22-.16-.48-.16-.78 0-.3.05-.56.16-.78.1-.23.25-.41.44-.54.19-.13.4-.19.66-.19.14 0 .29.03.43.08s.27.13.39.24c.11.11.2.26.27.45.07.18.1.41.1.68v.19H7.44c0 .2.04.36.1.5a.8.8 0 0 0 .32.34c.13.08.28.12.45.12a.9.9 0 0 0 .3-.05.65.65 0 0 0 .4-.4l.41.12a.96.96 0 0 1-.22.38c-.1.11-.23.2-.38.26s-.32.09-.5.09Zm.72-1.75H7.43c0-.13.04-.26.1-.38a.86.86 0 0 1 .28-.34.75.75 0 0 1 .45-.13.72.72 0 0 1 .67.42c.06.12.1.27.1.43Zm8.48.26c0 .8.48 1.49 1.32 1.49.5 0 .99-.24 1.14-.73l-.43-.12c-.1.3-.39.45-.7.45-.57 0-.81-.44-.83-.96h2v-.19c0-.75-.4-1.45-1.22-1.45-.83 0-1.28.75-1.28 1.51Zm.5-.26h1.56c0-.45-.3-.85-.78-.85-.48 0-.75.4-.78.85ZM14.75 32c-.82 0-1.25-.75-1.25-1.5s.42-1.5 1.25-1.5c.83 0 1.25.75 1.25 1.5s-.43 1.5-1.25 1.5Zm0-.4c.6 0 .75-.58.75-1.1 0-.5-.16-1.1-.75-1.1-.6 0-.75.6-.75 1.1 0 .52.16 1.1.75 1.1ZM33 30.5c0 .75.43 1.5 1.25 1.5.82 0 1.25-.75 1.25-1.5s-.42-1.5-1.25-1.5c-.83 0-1.25.75-1.25 1.5Zm2 0c0 .52-.16 1.1-.75 1.1-.6 0-.75-.58-.75-1.1 0-.5.16-1.1.75-1.1.6 0 .75.6.75 1.1Zm9.03 1.37c.16.07.34.1.54.1.36 0 .61-.11.76-.25a.78.78 0 0 0 .17-.2h.02V32H46v-1.98c0-.23-.04-.41-.12-.55a.81.81 0 0 0-.31-.3 1.17 1.17 0 0 0-.38-.13 2.07 2.07 0 0 0-.83.02c-.16.04-.3.11-.44.2-.14.1-.25.24-.33.41l.46.15c.05-.1.14-.2.27-.3.13-.08.31-.13.54-.13.22 0 .39.05.5.15.1.1.14.25.14.43V30c0 .07 0 .12-.06.15a.76.76 0 0 1-.26.06 21.28 21.28 0 0 0-.9.12c-.14.03-.27.07-.4.13a.72.72 0 0 0-.27.24.7.7 0 0 0-.11.4c0 .19.05.35.14.48.1.13.23.23.39.3Zm1.39-.66c-.13.21-.4.37-.78.37a.89.89 0 0 1-.47-.12.38.38 0 0 1-.19-.35c0-.1.03-.2.1-.26a.61.61 0 0 1 .26-.15 1.98 1.98 0 0 1 .55-.1 12.23 12.23 0 0 0 .5-.07.27.27 0 0 0 .11-.06v.4a.6.6 0 0 1-.08.34ZM17 28v4h-.5v-4h.5Z" fill="#fff"/><defs><linearGradient id="afxgx4pp0" x1="10.42" y1="9.71" x2="68.15" y2="76.02" gradientUnits="userSpaceOnUse"><stop stop-color="#1A1E21"/><stop offset="1" stop-color="#06060A"/></linearGradient></defs></svg>