<!-- by TradeStack --><svg viewBox="0 0 56 56" xmlns="http://www.w3.org/2000/svg"><path fill="#F0F3FA" d="M0 0h56v56H0z"/><path d="M48.09 21c.52.05.91.9.91 1.36v3.38a2.08 2.08 0 0 0 .58 1.47L51 28.36v-4.4a3.04 3.04 0 0 0-.84-2.1 2.87 2.87 0 0 0-2.03-.86H48h.09Z" fill="#002D4E"/><path d="M46.25 23h2.77c0-.75 0-2-1.07-2h-4.13l1.07 1.3c.18.23.39.4.62.52.24.12.49.18.74.18Z" fill="url(#a)"/><path d="M13.38 29.28a2.83 2.83 0 0 1 .19 3.27c-.31.47-.75.83-1.26 1.06-.6.27-1.26.4-1.92.39H6V23h4.19a4.5 4.5 0 0 1 1.93.38 2.6 2.6 0 0 1 1.63 2.45c.02.57-.16 1.13-.5 1.58-.36.44-.84.76-1.37.94.6.11 1.14.44 1.5.93Zm-5.7-1.66h2.43c.5.03.98-.11 1.39-.4a1.4 1.4 0 0 0 .5-1.16 1.44 1.44 0 0 0-.5-1.17c-.4-.3-.9-.45-1.39-.41H7.7v3.14Zm4.07 4.46a1.53 1.53 0 0 0 .53-1.23c.04-1.05-1.01-1.9-2.02-1.85H7.69v3.53h2.63c.51.03 1.03-.13 1.44-.45ZM22.76 30h-6.55c.03.64.3 1.41.77 1.85.46.42 1.06.65 1.68.63a2.05 2.05 0 0 0 2.02-1.22h1.91A3.93 3.93 0 0 1 18.66 34a4.32 4.32 0 0 1-2.2-.56 3.96 3.96 0 0 1-1.53-1.58 4.87 4.87 0 0 1-.55-2.37c-.02-.82.17-1.63.54-2.36a3.8 3.8 0 0 1 1.5-1.58 4.45 4.45 0 0 1 2.24-.55c.75-.01 1.5.17 2.16.54.62.35 1.14.87 1.48 1.5.36.7.54 1.47.53 2.25 0 .3-.02.42-.07.71Zm-1.79-1.28a2.08 2.08 0 0 0-.7-1.6 2.48 2.48 0 0 0-1.7-.6c-.57 0-1.13.2-1.56.6-.45.41-.73.99-.78 1.6h4.74ZM32.07 30h-6.55c.03.64.3 1.41.77 1.85.46.42 1.06.65 1.68.63a2.05 2.05 0 0 0 2.02-1.22h1.91A3.93 3.93 0 0 1 27.97 34a4.32 4.32 0 0 1-2.2-.56 3.96 3.96 0 0 1-1.53-1.58 4.87 4.87 0 0 1-.55-2.37c-.02-.82.17-1.63.54-2.36a3.8 3.8 0 0 1 1.5-1.58 4.45 4.45 0 0 1 2.24-.55c.75-.01 1.5.17 2.16.54.62.35 1.14.87 1.48 1.5.36.7.54 1.47.53 2.25 0 .3-.02.42-.07.71Zm-1.79-1.28a2.08 2.08 0 0 0-.7-1.6 2.48 2.48 0 0 0-1.7-.6c-.57 0-1.13.2-1.56.6-.45.41-.73.99-.78 1.6h4.74ZM38.48 34l-3.78-4.01v4H33V25h1.7v4.03L38.46 25h2.05l-4.17 4.46L40.63 34h-2.15Z" fill="#002D4E"/><path d="M40.13 31h1.83c.08.92.75 1.51 1.71 1.48.41.02.81-.08 1.16-.3a.87.87 0 0 0 .41-.74.78.78 0 0 0-.46-.73c-.47-.22-.95-.4-1.45-.52-.54-.14-1.06-.32-1.57-.52-.4-.17-.77-.44-1.05-.78-.31-.39-.47-.88-.45-1.37 0-.46.14-.9.4-1.27.3-.41.7-.72 1.16-.91a4.26 4.26 0 0 1 1.74-.34c1.85-.09 3.29 1.17 3.31 3H45.1c-.05-.9-.63-1.53-1.6-1.48-.38-.02-.75.07-1.08.27a.83.83 0 0 0-.37.71.78.78 0 0 0 .25.59c.17.16.38.29.6.37.24.09.6.2 1.06.34.53.13 1.04.3 1.54.51.4.17.75.44 1.03.77.3.38.47.85.45 1.34 0 .48-.13.94-.4 1.33-.3.4-.68.72-1.14.92-.55.23-1.14.34-1.73.33-1.79.03-3.51-1.07-3.58-3Z" fill="#002D4E"/><defs><linearGradient id="a" x1="43.83" y1="22" x2="49.02" y2="22" gradientUnits="userSpaceOnUse"><stop offset=".4" stop-color="#00AEC1"/><stop offset=".51" stop-color="#01AABE"/><stop offset=".61" stop-color="#049EB7"/><stop offset=".72" stop-color="#0A8BAA"/><stop offset=".82" stop-color="#116F98"/><stop offset=".92" stop-color="#1B4C81"/><stop offset="1" stop-color="#232E6D"/></linearGradient></defs></svg>