<!-- by TradeStack --><svg width="56" height="56" viewBox="0 0 56 56" xmlns="http://www.w3.org/2000/svg"><path fill="#F0F3FA" d="M0 0h56v56H0z"/><circle cx="28" cy="25" r="1" fill="#CD8B1A"/><path d="M25 25.5a.5.5 0 0 1-.5.5c-.28 0-10.29-.51-10.5-.5 0 0 10.22-.5 10.5-.5.28 0 .5.22.5.5ZM31 25.5c0 .28.22.5.5.5s10.29-.51 10.5-.5c0 0-10.22-.5-10.5-.5a.5.5 0 0 0-.5.5ZM31.22 23.79a.5.5 0 0 1 .23-.67c.25-.12 9.5-4 9.68-4.1 0 0-9 4.88-9.25 5a.5.5 0 0 1-.66-.23ZM25.5 24a.5.5 0 0 0-.23-.67c-.25-.12-9.5-4-9.68-4.1l9.24 5a.5.5 0 0 0 .67-.23ZM30 23a.5.5 0 0 1-.08-.7c.17-.22 6.81-7.73 6.94-7.9l-6.16 8.52a.5.5 0 0 1-.7.08ZM26.5 23a.5.5 0 0 0 .08-.7c-.17-.22-6.81-7.73-6.94-7.9l6.16 8.52a.5.5 0 0 0 .7.08ZM28.5 22a.5.5 0 0 1-1 0c0-.28.5-9 .5-9s.5 8.72.5 9Z" fill="#CD8B1A"/><path d="M4 27.5h.5v.5h5v-.5h.5v2h-.5V29H8v4.5h.5v.5h-3v-.5H6V29H4.5v.5H4v-2ZM7 29c-.17.83-.4 2.8 0 4 .17-.83.4-2.8 0-4ZM10.5 28h3v.5H13v5h.5v.5h-3v-.5h.5v-5h-.5V28Zm1.5 1c-.17.83-.4 2.8 0 4 .17-.83.4-2.8 0-4ZM17 28l2.5 2v-1.5H19V28h3v.5h-.5v5h.5v.5h-3v-.5h.5V32l-3-2.5v4h.5v.5h-3v-.5h.5v-5H14V28h3Zm-1.28 1c-.17.83-.4 2.8 0 4 .17-.83.4-2.8 0-4Zm4.78 0c-.17.83-.4 2.8 0 4 .17-.83.4-2.8 0-4Z" fill="#262125"/><path fill-rule="evenodd" d="M22.5 28v.5h.5v5h-.5v.5H28v.5h.5v-2H28v.5h-3v-4.5h.5V28h-3Zm1.5 1c-.17.83-.4 2.8 0 4 .17-.83.4-2.8 0-4Z" fill="#262125"/><path d="M29.5 28H35v-.5h.5v2H35V29h-3v1.5l1.5-.5v1l-1.5.5V33h3v-.5h.5v2H35V34h-5.5v-.5h.5v-5h-.5V28Zm1.5 1c-.17.83-.4 2.8 0 4 .17-.83.4-2.8 0-4ZM36 28.5V28h3v.5h-.5l1 1.5 1-1.5H40V28h3v.5h-.5l-2 3v2h.5v.5h-3v-.5h.5v-2l-2-3H36Zm1.23.23.2.32c.35.55.62.97 1.57 1.45l-.2-.32a3.27 3.27 0 0 0-1.57-1.45Zm4.33.32.2-.32c-.94.48-1.21.9-1.55 1.45l-.21.32c.95-.48 1.22-.9 1.56-1.45Z" fill="#262125"/><path fill-rule="evenodd" d="M51.21 29.06c-.38-.5-1.28-1.06-2.77-1.06-1.38 0-3.45.3-3.45 2 0 1.4 2.44 1.5 3.44 1.5H47.95h.34c.45.01 1.14.08 1.14.5 0 .92-.85 1-1.48 1-.82 0-1.66-.42-2.15-.69l.28-.45-.42-.26-1.16 1.9.42.26.37-.6c.56.3 1.62.84 2.66.84 1.25 0 3.45-.43 3.45-2 0-1.42-1.98-1.5-2.95-1.5h-.08c-.38 0-1.4.01-1.4-.5 0-1 .64-1 1.38-1h.1c1.03 0 1.59.31 1.84.53l-.48.25.22.44 1.97-1-.22-.44-.57.28Zm-3.75-.56c.32-.17 1.18-.4 1.97 0a2.9 2.9 0 0 1-1.97 0Zm0 2.5c.32.17 1.28.5 2.46.5-.16-.17-.89-.5-2.46-.5Zm-.5 2.5c.5.17 1.68.4 2.47 0-.5-.17-1.68-.4-2.47 0ZM43.5 28h1v2h-1v-2Zm.48.54.02-.04c.23.42.14.63.06.83-.02.06-.05.11-.06.17-.29-.38-.13-.72-.02-.96Z" fill="#262125"/></svg>