<!-- by TradeStack --><svg width="56" height="56" viewBox="0 0 56 56" xmlns="http://www.w3.org/2000/svg"><path fill="#F0F3FA" d="M0 0h56v56H0z"/><path d="M30 11a1 1 0 1 0 0-2 1 1 0 0 0 0 2Zm-2.5 4a1.5 1.5 0 1 0 0-3 1.5 1.5 0 0 0 0 3Zm-3.86 6.53c.13.15.23.33.3.52h8.15a1 1 0 1 1-.1.5h-9.43l1.13.87a1.5 1.5 0 1 1-.05-1.89Zm-1.08.97v.04l-.06-.04h.06Zm8.54 9.96a1.5 1.5 0 1 1 .21 1.47L32.5 33H31V33h-8a1 1 0 1 1-.16-.54h8.26ZM29 41.5a1.5 1.5 0 1 1-3 0 1.5 1.5 0 0 1 3 0ZM26 46a1 1 0 1 1-2 0 1 1 0 0 1 2 0Zm-.36-28.94c.14.16.23.34.3.53h4.56V18H26v.03h-1.5l1.19.92a1.5 1.5 0 1 1-.05-1.89Zm4.67 20.44H24V37h5.09a1.5 1.5 0 1 1 .22 1.42l1.19-.92h-.19ZM22.5 29c.65 0 1.2-.42 1.41-1h8.18a1.5 1.5 0 1 0-.09-.5h-8a1.5 1.5 0 1 0-1.5 1.5Z" fill="url(#amoy4dfgs)"/><defs><linearGradient id="amoy4dfgs" x1="20.5" y1="24" x2="34.5" y2="26" gradientUnits="userSpaceOnUse"><stop stop-color="#12966D"/><stop offset="1" stop-color="#73F06D"/></linearGradient></defs></svg>