<!-- by TradeStack --><svg width="56" height="56" viewBox="0 0 56 56" fill="none" xmlns="http://www.w3.org/2000/svg">
<rect width="56" height="56" fill="#F0F3FA"/>
<path fill-rule="evenodd" clip-rule="evenodd" d="M39.0354 41.932C39.9802 41.1415 40.7216 40.1402 41.1987 39.0104C41.7669 37.6029 42.0381 36.0953 41.9957 34.5802C41.9992 33.6184 41.7962 32.6669 41.4001 31.7886C41.0172 30.9444 40.503 30.1648 39.8762 29.4781C39.2791 28.8287 38.5686 28.2913 37.7787 27.8916C37.0447 27.5103 36.2403 27.2802 35.414 27.2154C36.1707 27.1887 36.9049 26.9529 37.5334 26.5348C38.1746 26.118 38.7352 25.591 39.1887 24.9786C39.6479 24.3617 40.0124 23.681 40.2703 22.9586C40.5239 22.2991 40.6588 21.6008 40.6688 20.8952C40.7205 19.3796 40.4659 17.869 39.92 16.452C39.4879 15.3894 38.7884 14.4538 37.8881 13.7341C37.0049 13.0593 35.9773 12.5936 34.8841 12.373C33.6793 12.1192 32.4505 11.9943 31.2188 12.0002H17V30H31.2626C33.5261 29.8715 36.0213 31.8227 36 34.5802C35.9911 36.5354 34.052 39.0105 31.9457 39H17V43.9998H31.9282C33.2444 44.0073 34.5559 43.8455 35.83 43.5186C36.9992 43.2221 38.0907 42.6811 39.0311 41.932H39.0354ZM30.7765 25.0263H23V17H31.2188C32.8806 16.9945 34.4856 18.6278 34.4856 21.0296C34.4758 23.0706 32.9587 25.0918 30.7765 25.0263Z" fill="#242C2D"/>
</svg>
