<!-- by TradeStack --><svg width="56" height="56" viewBox="0 0 56 56" xmlns="http://www.w3.org/2000/svg"><path fill="#F0F3FA" d="M0 0h56v56H0z"/><path d="M43 20.3 28.01 11 13 19.28v17.58l12 7.2a1 1 0 1 0 .45-.9L14 36.3V20.46l2 1.2v7.42h1v-6.82l11 6.6v8.36l-10-5.65v-.07a1 1 0 1 0-.56.9L28 38.37v1.76a1 1 0 1 0 1 0v-1.77l5.6-3.45A1 1 0 0 0 36 34a1 1 0 1 0-2 .1l-5 3.08v-8.31l8-4.57v9.83a1 1 0 1 0 1 0v-10.4l4-2.29v13.88l-8.03 5.8a1 1 0 1 0 .52.85l8.51-6.14V20.3Zm-26.5.5-2-1.2L28 12.16l13.53 8.4-4 2.29L29 17.14 29 17a1 1 0 1 0-.63.93l8.18 5.47-8.04 4.6-11.04-6.62L24.76 17l-.52-.86-7.74 4.65Z"/></svg>