<!-- by TradeStack --><svg width="56" height="56" viewBox="0 0 56 56" xmlns="http://www.w3.org/2000/svg"><path fill="#F0F3FA" d="M0 0h56v56H0z"/><path d="M27.12 19.1C15.52 19.68 13 31.16 13 31.16c4.62-3.05 7.61-3.03 11-3 2.4 0 5.02.03 8.58-1.06C41.5 24.39 45 13 45 13c-4.14 3.68-6.59 5.52-17.88 6.1Z" fill="#79C2EA"/><path d="M22.79 32.62C14.75 33.04 13 41 13 41c3.2-2.11 5.27-2.1 7.63-2.09 1.67.01 3.48.03 5.95-.73 6.19-1.88 8.61-9.78 8.61-9.78-2.87 2.55-4.57 3.82-12.4 4.22Z" fill="#252750"/></svg>