<!-- by TradeStack --><svg width="56" height="56" viewBox="0 0 56 56" xmlns="http://www.w3.org/2000/svg"><path fill="#F0F3FA" d="M0 0h56v56H0z"/><path d="m35 38.62.4-1.23a4.6 4.6 0 0 0 1.7.38c.61 0 .9-.17.9-.48 0-.3-.23-.46-.99-.7-1.37-.44-1.85-1.08-1.85-1.7 0-1.08 1.07-1.89 2.72-1.89.76 0 1.42.15 1.83.32l-.36 1.2c-.3-.13-.84-.3-1.38-.3-.52 0-.96.2-.96.48 0 .27.41.41 1.2.68 1.27.4 1.78.98 1.79 1.77 0 1.1-1.04 1.85-2.9 1.85-.82 0-1.62-.15-2.1-.38ZM28 31h2v3c.35-.45.87-.7 1.66-.7 1.42 0 2.35 1.12 2.34 2.73C34 38 32.73 39 31.38 39c-.67 0-1.27-.22-1.68-.84h-.02l-.1.84H28v-8Zm2 4.65v1.02c0 .56.36 1.03.93 1.03.75 0 1.07-.57 1.07-1.58 0-.88-.26-1.53-1.07-1.53-.58 0-.93.5-.93 1.06ZM16 39v-8h2v6.54h3V39h-5ZM48.93 26.58H45c.06.8.77 1.14 1.7 1.14.64 0 1.18-.09 1.68-.23l.27 1.18a7.4 7.4 0 0 1-2.28.33C44.22 29 43 27.9 43 26.1c0-1.61 1.1-3.1 3.2-3.1 1.97 0 2.8 1.32 2.8 2.84 0 .34-.03.59-.07.74ZM45 25.4h2c0-.39-.17-1.21-1-1.21-.8 0-.96.7-1 1.21ZM41.74 27.48l.22 1.28c-.32.13-.94.24-1.65.24-2.03 0-3.31-1.1-3.31-2.94 0-1.73 1.3-3.06 3.6-3.06.5 0 1.04.08 1.4.21l-.3 1.3a2.83 2.83 0 0 0-1.01-.16c-1.04 0-1.7.68-1.69 1.65 0 1.05.75 1.64 1.7 1.64.43 0 .75-.07 1.04-.16ZM30 29v-6h1.73l.05.9h.03c.3-.4.99-.9 1.98-.9 1.34 0 2.21.83 2.21 2.44V29h-2v-3.38c0-.68-.25-1.18-.93-1.18-.63 0-1.07.53-1.07 1.12V29h-2ZM21 29v-7h2v7h-2ZM20 25.46V29h-1.73l-.1-.7h-.03c-.37.46-.73.7-1.37.7A1.71 1.71 0 0 1 15 27.25c0-1.5 1.18-2.2 3-2.2v-.09c0-.35-.01-.75-.8-.75-.56 0-1.11.18-1.48.4l-.32-1.12c.38-.2 1.13-.49 2.12-.49C19.4 23 20 24.16 20 25.46Zm-2 1.42v-.74c-.82-.01-1.32.2-1.32.93 0 .5.31.7.68.7.38 0 .49-.24.6-.6.03-.09.04-.2.04-.29ZM29 25.46V29h-1.73l-.1-.7h-.03c-.37.46-.73.7-1.37.7A1.71 1.71 0 0 1 24 27.25c0-1.5 1.18-2.2 3-2.2v-.09c0-.35-.01-.75-.8-.75-.56 0-1.11.18-1.48.4l-.32-1.12c.38-.2 1.13-.49 2.12-.49C28.4 23 29 24.16 29 25.46Zm-2 1.42v-.74c-.82-.01-1.32.2-1.32.93 0 .5.31.7.68.7.38 0 .49-.24.6-.6.03-.09.04-.2.04-.29ZM27 35.46V39h-1.73l-.1-.7h-.03c-.37.46-.73.7-1.37.7A1.71 1.71 0 0 1 22 37.25c0-1.5 1.18-2.2 3-2.2v-.09c0-.35-.01-.75-.8-.75-.56 0-1.11.18-1.48.4l-.32-1.12c.38-.2 1.13-.49 2.12-.49C26.4 33 27 34.16 27 35.46Zm-2 1.42v-.74c-.82-.01-1.32.2-1.32.93 0 .5.31.7.68.7.38 0 .49-.24.6-.6.03-.09.04-.2.04-.29ZM8 28.88v-7.72c.51-.09 1.44-.16 2.34-.16 1.08 0 1.84.1 2.45.48.57.31.91.85.91 1.51 0 .7-.42 1.36-1.36 1.68v.04c1 .24 1.66.95 1.66 1.91 0 .7-.32 1.25-.8 1.63-.61.48-1.48.75-3.11.75-.87 0-1.67-.06-2.09-.12Zm2-6.57v1.9h.42c.9 0 1.42-.41 1.42-1.02 0-.58-.44-.94-1.27-.94-.35 0-.43.02-.57.06Zm0 3.13v2.25c.15.03.22.03.5.03.83 0 1.5-.33 1.5-1.15 0-.79-.69-1.13-1.56-1.13H10Z" fill="#36C"/><path d="m23.21 15-.33 1.75-.44-.15.77-1.6Zm-.93 1.55-.3-1.34-.3 1.34h.6Zm-.28.4c-1.25-.03-1.04 1.57-.88 1.79.14.18.3.58.36.75v.29l.1.15v.79l.31.28h.22l.3-.28v-.79l.11-.15v-.29c.06-.17.22-.57.36-.75.16-.22.37-1.76-.88-1.79Zm-1.92-.54.9.56-.3.32-.6-.88Zm2.87.56.9-.56-.6.88-.3-.32Zm-1.86-.22L20.75 15l.78 1.6-.44.15Zm-2.09.26 1.5.95.2-.43-1.7-.52Zm4.5.95 1.5-.95-1.7.52.2.43Z" fill="#FFD42A"/></svg>