<!-- by TradeStack --><svg width="56" height="56" viewBox="0 0 56 56" xmlns="http://www.w3.org/2000/svg"><path fill="#F0F3FA" d="M0 0h56v56H0z"/><path d="M13 34.36V26h7.14A7.93 7.93 0 0 1 28 34v.36A7.57 7.57 0 0 1 20.5 42a7.57 7.57 0 0 1-7.5-7.64Z" fill="#C22E20"/><path d="M17.64 23H13v-4.36A4.57 4.57 0 0 1 17.5 14h.14c2.4 0 4.36 2.01 4.36 4.5S20.05 23 17.64 23Z" fill="#D87733"/><path d="M42 27V14H31.45A6.48 6.48 0 0 0 25 20.5c0 3.59 2.89 6.5 6.45 6.5H42Z" fill="#1C7ED6"/><path d="M31 42V29h4.74A6.39 6.39 0 0 1 42 35.5c0 3.59-2.8 6.5-6.26 6.5H31Z" fill="#413483"/></svg>