<!-- by TradeStack --><svg width="56" height="56" viewBox="0 0 56 56" xmlns="http://www.w3.org/2000/svg"><path fill="#F0F3FA" d="M0 0h56v56H0z"/><path fill-rule="evenodd" d="M47.1 29h-2.2c-.42 0-.71-.44-.57-.86l1.06-3.05c.23-.66.82-1.09 1.48-1.09h2.02l-.36 1h-1.86c-.16 0-.3.1-.35.27l-.24.73h2.13l-.4 1h-2.06l-.23.7c-.05.14.05.3.19.3h1.75l-.36 1ZM31 25.08h-.95L28.65 29h-.99l1.44-3.92h-1.02l.03-.08h-.03l.4-1h2.9l-.02.07h.02l-.37 1.01Zm.48-1.08-1.8 5h.98l.7-1.98h1.4L32.05 29h.99l1.76-5h-.95l-.71 1.98h-1.41l.7-1.98h-.95Zm2.14 4.07L35.05 24h.97l-1.27 3.56c-.12.36.05.45.16.44h.76c.24 0 .37-.23.41-.33l1.3-3.67h.98l-1.45 4.07c-.25.7-.94.91-1.24.93H34.2c-.7 0-.68-.62-.58-.93Zm3.24.93h.95l1.27-3.6-.27 2.85c-.04.25.01.75.52.75.64 0 .99-.54 1.16-.97L41.95 24h-.93l-1.28 3.52.32-2.87c.01-.21-.1-.65-.64-.65-.68 0-1.04.74-1.2 1.18L36.86 29Zm5.38-5-1.77 5h2.31c.33.02 1.06-.14 1.35-.95l1.09-3.11c.1-.31.15-.94-.56-.94h-2.42Zm.6 1-1.04 3h1a.5.5 0 0 0 .5-.37l.8-2.31c.05-.1.06-.32-.23-.32h-1.03Zm4.41 4 1.79-5h2.41c.26 0 .7.2.5.9l-.45 1.22c-.12.3-.54.9-1.2.9h-.19l.43 1.98H49.4l-.38-1.77c-.02-.37.11-1.1.83-1.1h.44c.08 0 .25-.05.33-.25l.2-.55c.05-.1.06-.33-.2-.33h-1l-1.4 4h-.97Zm-35.46-5-2.06 5.71c-.22.62.21 1.29.84 1.29h3l.55-1.51h-2.55c-.16 0-.27-.18-.21-.34L13.22 24H11.8Zm-5.3 0L4 31h3.41c1.07 0 1.6-.8 1.74-1.2l.49-1.35a.9.9 0 0 0-.22-.97c.5-.2.8-.7.9-.92l.5-1.41c.3-.89-.34-1.13-.7-1.14H6.5Zm.9 1.5-.41 1.23h1.48c.15-.01.47-.1.55-.4.03 0 .11-.28.15-.42.03-.13 0-.4-.3-.4H7.38Zm-1 2.75-.41 1.22h1.47c.16-.01.48-.1.56-.39a2 2 0 0 0 .15-.42c.03-.14 0-.41-.31-.41H6.39Zm7.94 1.4 2-5.65h1.45l-1.83 5c-.16.36.08.46.22.46h1.2a.5.5 0 0 0 .5-.33L19.71 24h1.42l-2.06 5.66c-.39 1-1.32 1.3-1.73 1.34h-2.17c-1.03 0-1-.9-.85-1.34ZM23.5 31H20.4c-.58 0-1-.62-.79-1.2l1.48-4.27A2.21 2.21 0 0 1 23.17 24H26l-.56 1.55H22.9c-.22 0-.4.15-.48.36l-.3.82h2.93l-.55 1.54h-2.92l-.29.8c-.07.2.07.4.27.4h2.5L23.5 31Zm3.35 0h.32l.36-1.03-.08.77c0 .08.02.26.15.26.16 0 .26-.17.34-.31l.48-.72-.4 1.03h.32l.47-1.24c.02-.09 0-.26-.19-.26-.24 0-.38.25-.4.3l-.47.71.14-.8c.01-.07-.02-.21-.2-.21-.22 0-.3.16-.37.29l-.02.03-.45 1.18Zm3.07 0h.34l.56-1.5h-.3l-.6 1.5Zm5.04 0h-.34l.59-1.5h.31l-.56 1.5Zm9.06 0h.34l.57-1.5h-.31l-.6 1.5Zm-11.8 0h-.31l.41-1.1c.07-.21.2-.4.42-.4.16 0 .2.15.19.23l-.08.8.38-1.03h.31l-.4 1.02c-.05.21-.21.48-.44.48-.18 0-.19-.19-.17-.29l.07-.78-.39 1.07Zm4.38 0h.3l.4-1.07-.08.78c-.02.1 0 .29.17.29.23 0 .39-.27.44-.48l.4-1.02h-.31l-.38 1.04.08-.81c0-.08-.03-.23-.2-.23-.2 0-.34.19-.4.4L36.6 31Zm9.7 0H46l.42-1.1c.06-.2.2-.39.41-.39.17 0 .2.15.2.22l-.09.8.39-1.02h.31l-.4 1.01c-.06.2-.21.47-.44.47-.18 0-.2-.18-.17-.28l.07-.78-.4 1.06Zm-5.93-.84h.3l-.23.61A.49.49 0 0 1 40 31h-.39c-.09-.01-.24-.1-.15-.4l.32-.82c.03-.1.16-.28.4-.28h.67l-.16.32h-.62l-.32.84h.42l.2-.5Zm9.75-.33.12-.33h-.67a.42.42 0 0 0-.4.28l-.35.97c-.05.12.05.25.18.25h.67l.13-.33h-.63l.32-.84h.63Z" fill="#375AA1"/></svg>