<?xml version='1.0' encoding='utf-8'?>
<!-- by TradeStack -->
<svg width="56" height="56" viewBox="0 0 56 56" xmlns="http://www.w3.org/2000/svg"><path fill="#F0F3FA" d="M0 0h56v56H0z" /><path d="M41.73 36.24a16 16 0 0 0-4.7-21.43c-10.25 2.14-13.99 9.96-14.57 13.82 6.4-2.46 8.82.2 9.23 1.85-1.23-.62-8-.99-8 4.93 0 4.35 4 6.96 7.58 8.29a15.9 15.9 0 0 0 5.4-2.22c-1.14.09-2.41.09-3.75.09-4.3 0-6.15-3.7-6.15-5.55 0-1.84.61-3.7 3.08-3.7 2.46 0 3.69 1.24 3.69 3.09a4.7 4.7 0 0 1-1.23 3.08c3.94 0 4.92-3.7 4.92-5.55 0-7.39-7.8-8.41-11.7-8 2.47-1.24 4.32-1.85 6.16-1.85 7.96 0 10.12 7.93 10.04 13.15Z" fill="#00B8CB" /><path d="M26.97 44a16.01 16.01 0 1 1 7.85-30.48c-6.48.99-15.24 4.7-16.05 14.5-.7 8.49 3.83 13.47 8.2 15.98Z" fill="#918C93" /></svg>