<!-- by TradeStack --><svg width="56" height="56" viewBox="0 0 56 56" xmlns="http://www.w3.org/2000/svg"><path fill="#F0F3FA" d="M0 0h56v56H0z"/><path fill-rule="evenodd" d="M28 44c8.67 0 16-7.33 16-16s-7.33-16-16-16-16 7.33-16 16 7.33 16 16 16Zm0 1a17 17 0 1 0 0-34 17 17 0 0 0 0 34Z" fill="#638C88"/><path d="M29 40.14A14.38 14.38 0 0 0 32.81 36H29v4.14ZM29 34h4.83c.52-1.25.87-2.59 1.05-4H29v4Zm-2-4v4h-4.83a15.28 15.28 0 0 1-1.05-4H27Zm2-2h6c0-1.77-.28-3.45-.8-5H29v5Zm-2-5v5h-6c0-1.77.28-3.45.8-5H27Zm2-2h4.37A14.4 14.4 0 0 0 29 15.85V21Zm-2-5.14V21h-4.37A14.4 14.4 0 0 1 27 15.86ZM27 36v4.14A14.38 14.38 0 0 1 23.19 36H27Zm-1.14 5.88.26-.1A17.36 17.36 0 0 1 21.04 36h-4.55a14 14 0 0 0 9.37 5.88Zm4.02-.1c2.1-1.52 3.84-3.5 5.08-5.78h4.55a14 14 0 0 1-9.37 5.88l-.26-.1ZM41.86 30c-.2 1.41-.61 2.76-1.2 4H35.9a16.7 16.7 0 0 0 .99-4h4.98Zm.14-2h-5c0-1.74-.27-3.42-.77-5h4.86c.59 1.55.91 3.24.91 5Zm-1.86-7h-4.68a17.33 17.33 0 0 0-5.58-6.78l.26-.1c4.28.65 7.92 3.26 10 6.88Zm-14.02-6.78A17.33 17.33 0 0 0 20.54 21h-4.68a14.01 14.01 0 0 1 10-6.89l.26.11ZM14.92 23h4.85c-.5 1.58-.77 3.26-.77 5h-5c0-1.76.32-3.45.91-5Zm5.2 11a16.7 16.7 0 0 1-1-4h-4.98c.2 1.41.61 2.76 1.2 4h4.77Z" fill="#638C88"/></svg>