<!-- by TradeStack --><svg width="56" height="56" viewBox="0 0 56 56" xmlns="http://www.w3.org/2000/svg"><path fill="#F0F3FA" d="M0 0h56v56H0z"/><path d="M31.36 38.04c-5.36.93-8.61-1.8-9.57-3.28-6.7 0-9.1 1.4-9.1 2.1 0 .7 1.92 1.88 7.19 2.11 4.2.19 9.4-.55 11.48-.93Z" fill="#D0AA5F"/><path fill-rule="evenodd" d="M15.1 17.01c-.8 0-1.97.7-.25 3.5 2.15 3.5 7.18 10.05 16.27 15.66-6.46-2.65-19.52-9.44-20.1-15.42-.16-1.33.43-3.93 4.07-3.74Zm-2.88 1.63c.4 1.56 2.15 5.66 5.98 9.58-2.15-1.4-5.6-5.32-5.98-7-.38-1.69-.16-2.42 0-2.58Z" fill="#D0AA5F"/><path d="M38.78 37.8c.96-1.5-.08-3.58-.72-4.44a17.6 17.6 0 0 0 1.2-3.73c3.44 3.17 3.83 5.68 3.59 6.54.57-.75.71-1.4.71-1.64 0-1.87-2.87-4.67-4.3-5.84v-1.87c1.91 1.4 5.74 4.95 5.74 7.94 0 3-4.15 3.28-6.22 3.04Z" fill="#D0AA5F"/><path d="m25.86 19.35-5.98-1.64 4.3 2.34 1.68-.7ZM31.84 19.11c-.77-.18-2.71-.23-3.59-.23 0 .7 1.67.23 2.87.47.96.18.24.46-.24.58.16.04.58.1.96 0 .48-.12.72.35.96.82.24.46.47.23 1.43.46.96.24.96 1.4 1.44 2.57s1.2 1.17 1.91 1.4c.72.24.24-.46.72-.7.48-.23-.24-.93-.96-1.4a9.58 9.58 0 0 1-2.15-2.33c-.2-.38-.88-.16-1.2 0-.24-.24-.72-.8-.72-1.17 0-.47-.47-.23-1.43-.47ZM22.03 22.15c-.57 0-1.2 1.4-1.44 2.1.48-.7.96-.47 1.2-.23.24.23 0 .7 0 1.63v1.87c0 .7 1.2 1.64 1.68 1.87.47.24-.72-.93-.96-1.4-.24-.47 1.2.93 1.91 1.64.72.7.72.46 2.4.23 1.67-.23.71.23 1.67.7s.96 0 1.2.23c.24.24-.24.7 0 1.4s.71 1.17 2.39 1.64c1.67.47.72 1.17.72 2.57s.71.93 1.2 1.17c.47.23-.25-.94 0-1.4.23-.47.95-.94.95-1.4 0-.47 1.2-1.87 1.68-3.51.47-1.63-.24-1.87-.48-2.1-.24-.24-.48 0-.96 0s-.72.23-1.2-.24c-.48-.46-.48 0-.95.24-.48.23-.96-.47-1.44-.24-.48.24-.96.24-1.67.47-.72.24-.24.7-.72.7s-.72 0-1.2-.46c-.48-.47-.96-.24-1.2-.7-.23-.47-.47.46-.95.46s-.72-.47-.72-1.17.72-.7 1.44-.7h.95c.48 0-.24-.7 0-1.87.24-1.16.24-.93.72-1.16.48-.24.24-.94-.24-.94s.24-.47.48-.93c.24-.47 0-.24-.96-.47-.95-.23-.72.23-1.2.23-.47 0 0 .7 0 .94 0 .23 0 .46-.47.23-.48-.23-.72-.23-1.2-.47-.48-.23.24-.7.24-1.16 0-.47-.48-.47-.96-.24-.48.24.24.24.24.47 0 .23-1.43 0-2.15 0Z" fill="#0F1F41"/><path d="M26.58 19.81c-.58 0-.88.63-.96.94.4 0 1.3.04 1.67.23.48.23.72.7 1.2.23.48-.46-1.2-1.4-1.91-1.4ZM25.14 21.21c.64 0 1.82.14 1.44.7-.39.57-1.12-.23-1.44-.7Z" fill="#1E5478"/></svg>