<!-- by TradeStack --><svg width="56" height="56" viewBox="0 0 56 56" xmlns="http://www.w3.org/2000/svg"><path fill="#F0F3FA" d="M0 0h56v56H0z"/><path d="M16.6 12.79h22.97v30.85H16.6V12.8Z" fill="#9DB3BF"/><path d="M26.74 14.9c-.46-.75-.76-1.22-.76-1.74-.1-.53-1.67.65-2.52.65a2.67 2.67 0 0 1-.68-1.25c0-.21-1.28-.06-1.54 0-.26.07-.95.6-.92.78.03.19 1.74 2.52.56 2.12-1.18-.4-1.18-.22-1.97-1.28-.78-1.06-1.7-1.02-1.7-.84 0 .19.36.78.46 1.03.1.25.66 1.09 1.02 1.09s2.35 1.99 2.55 1.99c.2 0 .59.47 1.54.93.95.47 1.5.69 2.22 1.56.72.87.98 1.71 1.5 3.02.53 1.3 1.41 1.68 1.94 2.05.52.37.42.25 1.5.78s1.21.84 2.03 1.62c.82.77 3.14 2.11 3.47 2.08.33-.03.4-.47.4-.62 0-.16.22-.25 0-.69-.23-.43-.23-.77-.4-1.18-.13-.32.06-1.15.17-1.52.53.34 1.77 1.2 2.45 1.93.68.72.9.82.92.77.1-.41.2-1.47-.2-2.4-.49-1.14-.4-1.11-.72-1.55-.26-.35-.1-1 0-1.27.24.08.72.23.72.15 0-.1.56-1.12.5-2.27-.07-1.15-.07-3.76-.3-5.38-.23-1.62-.04-2.3-.2-2.3h-2.72c-.49 0-1.2 0-1.37.18-.13.15-1.36.38-1.96.47.13.5.51 1.8 1.01 2.99.62 1.49 1.37.87 2.62 2.55 1.24 1.68 0 .59-.3 1.12-.3.53-.55-.1-.95-.34-.39-.25-1.4-.56-1.73-.78-.33-.22-1.37-1.43-1.8-1.43-.43 0-1.64.25-1.9.25s-.42-.6-.55-.72a6.7 6.7 0 0 0-.99-.65c-.39-.22-.95-1.16-1.4-1.9Z" fill="#B6978E"/><path d="M16.6 20.87c.45 1.22.42 1.62 1.37 1.68.94.06.98.06 1.53.16.56.1 1.02.74 1.28.84.26.1.3.1 1.01.25.72.15.23-1.53 2.16 0 1.94 1.52 1.87 1.8 1.87 2.24 0 .43-.07.43.65 1.02.72.6 1.02 1.47 1.54 1.9.53.44.66.19.76.72.1.53 0 1.55.81 1.68.82.12.79 0 1.67 0 .89 0 1.5.1 1.74-.53.23-.62-.5-1.65 0-1.5.49.16 1.37.66 1.6.88.23.21.36.5 1.02-.19.65-.68 1.8-.68 2.06-.68s.72.24.68.87c-.03.62-.36.8-.52.87-.16.06-1.11-1.1-1.27-.25-.17.84.06.96.42 1.59.36.62.3.93.36 1.3.07.38.43.84.72 1.43.3.6.56 1.22.69 1.72.13.5 1.08 4.29.91 4.63-.1.22-.46.57-.72.8-.01.07-.1.13-.2.17l.2-.17c.01-.08-.12-.16-.59-.2-1.01-.1-1.8.21-2.45-.29-.65-.5-1.54.13-.92-.59.63-.71.82-.4 0-1.93-.81-1.52-1.67-2.67-2.32-3.08-.65-.4-.59-1.21-1.4-.28-.83.94-.14 2.37.32 2.86.46.5.59-1.05 1.64.69.75 2.18.65 2.64.78 2.99.13.34 1.93.56 0 .59-1.93.03-2.81-.13-3-.16-.2-.03-.3.25-.86 0s-1.93-1.4-2.13-1.4c-.2 0-1.11.22-1.73.81-.62.6-.6 0-1.87 0s-2.12-.22-3.14-.22c-1.01 0-1.6.35-1.77-.59-.16-.93.17-2.2.72-2.7.56-.5 1.64-.94.56-2.59-1.08-1.65-2.42-2.58-2.81-3.45-.4-.87-.82-1.12-1.02-1.93-.2-.81-.36-2.37-.36-2.52v-7.44Z" fill="#C5B3AA"/><path d="M21.91 14.7c.3-.3-.29-1.6-.73-1.82.46 0 1.6-.07 2.43-.34.73-.24 1.04.04 1.45.4.16.15.34.3.57.46.81.51 1.1 1.48 1.07 2.93-.03 1.22-.49.8-.87.43a4.2 4.2 0 0 0-.2-.17c-.11-.1-.26-.27-.41-.45-.39-.46-.84-1-1.13-.7-.22.22 0 .43.4.8.32.3.76.7 1.14 1.31.85 1.34-.84 1.37-1.54 1.26-.29-.04-.46-.05-.6-.06a.88.88 0 0 1-.5-.12c-.38-.19-.82-.75-.9-2.04-.04-.8-.18-.82-.4-.85-.13-.03-.3-.06-.51-.3-.33-.41-.05-.48.27-.55.17-.05.36-.1.46-.2Zm3.02 16.47a54.83 54.83 0 0 0-3.02-4.13c0 .26.2 1.14.96 2.63.55 1.06.65 1.52.76 2.02.09.37.18.78.46 1.48.46 1.14 1.16 1.39 2.16 1.73.44.16.93.33 1.48.61 1.8.91.78 2.6.37 3.01-.25.26-.88-.3-1.7-1.05-.51-.46-1.1-.99-1.72-1.43a9.24 9.24 0 0 1-1.68-1.3 8.56 8.56 0 0 0-.13-.14c-.15-.15-.28-.42-.42-.71-.22-.43-.46-.92-.83-1.21-.63-.5-1-.46-1.73.24-.74.7.85 2.6 1.73 3.36.54.47.53.49.44.56-.06.05-.15.12-.15.35 0 .53.35.8 1.03 1.36l.3.25c.72.6 1.12.5 1.68.37l.42-.09c.55-.1.8.32 1.25 1.1.23.39.5.85.88 1.39.75 1.03.96.85 1.29.57.19-.17.42-.36.81-.36.56 0 .57-.06.6-.25.03-.18.09-.47.62-.94.62-.56.75-.27.96.18.15.34.35.78.84 1 1.1.51 1.38.18 1.66-.16l.04-.04c.3-.35-.45-1.2-1.18-1.65-.41-.25-1.05-.9-1.65-1.52-.49-.5-.95-.97-1.26-1.2-.46-.35-.99-.82-1.33-1.13l-.36-.31c-.13-.1-1.4-1.76-2.01-2.57l-.2-.27c-.18-.23-.34-.4-.5-.58-.28-.32-.56-.63-.87-1.17ZM34 24.55c.21.25.75.77 1.25.91.21.06.38.06.54.06.31-.01.58-.02 1.05.47.43.45.84.74 1.12.94.18.13.3.22.35.29.02.03.04.07.04.1a7.11 7.11 0 0 1-.04-1.02c0-1.01-.07-1.2-.25-1.7l-.15-.43-.08-.23c-.24-.68-.3-.84.08-1.31.13-.18.23-.28.29-.39.11-.2.11-.48.11-1.54a11 11 0 0 0-.59-3.6 3.65 3.65 0 0 1-.15-.7c-.07-.51-.15-1.04-.73-1.54a5.04 5.04 0 0 0-3.06-1.05c-.24.02-.5-.09-.72-.18-.36-.16-.6-.26-.38.5.2.75 1.04 1.3 1.72 1.73.39.26.72.47.85.68.34.5.34.82.34 1.48v.2c0 .2.03.4.05.59.1.56.16 1.05-.6 1.33-.82.3-1.04.07-1.55-.5l-.48-.51c-.92-.91-1.33-.91-1.44-.91-.1 0 .15 1.36.63 1.92.2.24.47.35.73.46.37.15.72.3.85.77.22.8.3 1.3 0 1.71-.23.34.05 1.12.22 1.47Z" fill="#705854"/><path d="M40 44H16V12h24v32Zm-23-1h22V14m0-1h-1 1Zm-1 0H18h20Zm-20 0h-1 1Zm-1 0v1-1Zm0 1v28-28Zm0 28v1-1Z" fill="url(#azkjnded5)"/><path d="M21.45 15.36c.5-.12.57.13.55.27.06 1.6-2.4 3.1-2.9 4.39-.39 1.03.24.88.6.67a45.5 45.5 0 0 1 6.48-4.17c2.67-1.27 3.87-.24 3.87.62s-.6 1.42-3.99 5.01c-2.71 2.88-3.63 4.64-3.75 5.17 1.94-2.18 11.83-11.96 13.23-13.02 1.4-1.05 4.46-2.23 4.46 1.05 0 3.3-5.14 9.56-8.8 14.38-3.67 4.81-3.98 8.2-3.98 8.94 0 .76-.07 3.9 1.54 3.9 1.6 0 3.84-2.93 4.3-2.86.45.06-.03.88-1 2.38s-2.17 1.66-2.63 1.66c-.45 0-4.23.28-4.23-5.83 0-6.1 7.1-13.46 8.42-14.97 1.31-1.5 5.07-7.32 4.39-7.6-.68-.27-5.66 4.85-9.46 8.9-3.8 4.03-8.3 7.97-8.6 8.14-.29.17-1.65-.13-1.65-1.52 0-1.4 1.89-4.07 3.35-6.29a40.5 40.5 0 0 1 4.3-5.31c.76-.77 1.41-1.47 1.22-1.48-.2-.02-1.1.6-1.5.94l-2.4 1.96c-.77.58-2.64 1.74-3.92 1.74-1.6 0-1.72-1.38-1.72-1.83 0-.45 0-1.43 1.02-2.59 1.01-1.16 2.2-2.51 2.8-2.66Z" fill="#221F20"/><path d="M20.7 14.94c.49-.11.57.14.54.28.06 1.59-2.4 3.1-2.89 4.38-.4 1.03.24.89.6.68a45.5 45.5 0 0 1 6.47-4.17c2.67-1.27 3.87-.24 3.87.62s-.59 1.42-3.98 5.01c-2.71 2.88-3.63 4.64-3.76 5.16 1.95-2.17 11.84-11.96 13.24-13 1.4-1.06 4.46-2.25 4.46 1.04 0 3.3-5.14 9.55-8.8 14.37-3.67 4.82-3.99 8.2-3.99 8.95s-.06 3.9 1.54 3.9 3.85-2.93 4.3-2.87c.45.07-.02.89-1 2.4-.97 1.5-2.17 1.65-2.62 1.65-.45 0-4.23.28-4.23-5.83s7.1-13.47 8.42-14.97c1.3-1.5 5.06-7.32 4.39-7.6-.68-.28-5.66 4.84-9.46 8.89a104 104 0 0 1-8.6 8.15c-.3.17-1.65-.13-1.65-1.53s1.89-4.06 3.35-6.28a40.5 40.5 0 0 1 4.3-5.32c.76-.76 1.4-1.46 1.21-1.48-.19 0-1.1.6-1.5.94-.32.28-1.73 1.43-2.39 1.97-.77.58-2.64 1.73-3.92 1.73-1.6 0-1.72-1.37-1.72-1.82 0-.45 0-1.43 1.01-2.6 1.02-1.15 2.2-2.5 2.81-2.65Z" fill="url(#bzkjnded5)"/><path d="m20.93 15.2-.15.03c-.09.02-.23.1-.44.25-.2.16-.42.37-.67.61-.49.5-1.03 1.11-1.54 1.7-.94 1.08-.94 1.97-.94 2.4 0 .2.03.6.22.94.1.16.23.3.4.4.19.11.44.19.8.19.55 0 1.28-.26 2-.62.7-.35 1.34-.77 1.71-1.05l2.39-1.96a8.8 8.8 0 0 1 1.49-.97.59.59 0 0 1 .24-.04c.06 0 .15.03.23.1.08.09.1.18.09.24a.5.5 0 0 1-.07.23l-.29.37c-.24.28-.6.65-.98 1.04-.76.75-2.82 3.06-4.26 5.26l-.5.76c-.6.9-1.2 1.82-1.71 2.68-.33.56-.6 1.08-.8 1.54a3.3 3.3 0 0 0-.29 1.15c0 .6.28.93.57 1.1.15.1.31.15.44.17a.65.65 0 0 0 .18 0 2.19 2.19 0 0 0 .24-.2l.63-.53 2.05-1.85c1.63-1.5 3.7-3.5 5.6-5.5 1.9-2.03 4.1-4.33 5.9-6.08.91-.88 1.72-1.63 2.35-2.14.32-.25.6-.46.83-.6.11-.06.23-.12.33-.15s.25-.06.4 0c.18.07.24.23.26.34.02.11 0 .23-.02.34-.05.21-.15.5-.3.8a38.87 38.87 0 0 1-4.22 6.57c-.1.13-.25.3-.43.49-.9 1.01-2.63 2.93-4.24 5.25-1.94 2.78-3.67 6.09-3.67 9.05 0 3 .93 4.35 1.82 4.97.84.58 1.73.57 2.04.56h.06c.37 0 1.46-.11 2.36-1.51a16.33 16.33 0 0 0 1.05-1.78l-.21.18-.45.4-.05.05-.58.54c-.42.36-.88.74-1.34 1.03-.46.28-.97.5-1.46.5a1.4 1.4 0 0 1-1.17-.63 3.4 3.4 0 0 1-.5-1.27c-.18-.85-.18-1.78-.18-2.2v-.09c0-.82.34-4.25 4.04-9.12l1.29-1.67c1.51-1.98 3.13-4.08 4.48-6.08a29.48 29.48 0 0 0 2.14-3.61 7 7 0 0 0 .84-2.84c0-.78-.19-1.24-.43-1.5-.23-.25-.55-.36-.96-.36-.84.02-1.89.53-2.57 1.04-.33.25-1.2 1.05-2.36 2.15A338.65 338.65 0 0 0 21.8 27.1l-.54-.26c.07-.31.36-.92.95-1.8a28.3 28.3 0 0 1 2.88-3.5l.65-.69a69.21 69.21 0 0 0 2.6-2.82c.55-.68.65-.97.65-1.3 0-.3-.2-.66-.72-.83-.53-.17-1.4-.15-2.7.47-2.1 1-5.15 3.17-6.41 4.14l-.02.02h-.02c-.1.07-.24.13-.38.16a.77.77 0 0 1-.49-.02.54.54 0 0 1-.32-.48c-.02-.19.04-.42.14-.69.14-.37.42-.74.72-1.09a22.64 22.64 0 0 1 .99-1.08c.33-.36.63-.72.85-1.08.21-.36.32-.7.31-1.02v-.02Zm11.4 24.38Zm-9.8-19.3c-.78.58-2.65 1.73-3.93 1.73-1.6 0-1.72-1.37-1.72-1.82 0-.45 0-1.43 1.01-2.6 1.02-1.15 2.2-2.5 2.81-2.65.49-.11.57.14.54.28.04.95-.82 1.86-1.62 2.72a6.02 6.02 0 0 0-1.27 1.66c-.4 1.03.24.89.6.68a45.5 45.5 0 0 1 6.47-4.17c2.67-1.27 3.87-.24 3.87.62 0 .8-.5 1.34-3.33 4.32l-.65.7a23.31 23.31 0 0 0-3.37 4.3c-.23.4-.35.69-.39.85l.64-.68c2.9-3.05 11.31-11.36 12.6-12.33 1.4-1.05 4.46-2.24 4.46 1.05 0 2.92-4.05 8.19-7.53 12.7l-1.27 1.67c-3.67 4.82-3.99 8.2-3.99 8.95v.09c0 .88 0 3.8 1.54 3.8 1.03 0 2.3-1.18 3.22-2.03.52-.48.92-.85 1.08-.83.45.07-.02.89-1 2.4-.97 1.5-2.17 1.65-2.62 1.65h-.06c-.64 0-4.17.07-4.17-5.83 0-5.62 6-12.28 8-14.5l.42-.47c1.3-1.5 5.06-7.32 4.39-7.6-.68-.28-5.66 4.84-9.46 8.89a104 104 0 0 1-8.6 8.15c-.3.17-1.65-.13-1.65-1.53 0-1.24 1.5-3.49 2.85-5.53l.5-.75a40.5 40.5 0 0 1 4.3-5.32 19.58 19.58 0 0 0 1.2-1.33c.06-.09.07-.14.01-.15a.68.68 0 0 0-.26.1l-.15.08c-.35.2-.82.54-1.09.76-.32.28-1.73 1.43-2.39 1.97Zm3.62-2.94Zm.3.33h-.01Z" fill="url(#czkjnded5)"/><defs><linearGradient id="azkjnded5" x1="16.63" y1="26.43" x2="39.47" y2="26.43" gradientUnits="userSpaceOnUse"><stop stop-color="#525252"/><stop offset="1" stop-color="#A0A2A5"/></linearGradient><linearGradient id="bzkjnded5" x1="42.92" y1="17.26" x2="26.95" y2="42.95" gradientUnits="userSpaceOnUse"><stop stop-color="#8E8E8F"/><stop offset=".27" stop-color="#57585A"/><stop offset=".72" stop-color="#FAFAFA"/><stop offset="1" stop-color="#808183"/></linearGradient><linearGradient id="czkjnded5" x1="28.06" y1="12.79" x2="28.06" y2="43.34" gradientUnits="userSpaceOnUse"><stop stop-color="#A0A2A4"/><stop offset="1" stop-color="#A7A9AB"/></linearGradient></defs></svg>