<!-- by TradeStack --><svg width="56" height="56" viewBox="0 0 56 56" xmlns="http://www.w3.org/2000/svg"><path fill="#F0F3FA" d="M0 0h56v56H0z"/><path d="M34.84 23.82c-.32.27-.68.5-1.05.68l1.05-.68Zm-8.76-8.53c.15-.1.3-.2.46-.28l-.46.28Zm15.07 15.1a7.63 7.63 0 0 0-2.45-3.58 13.2 13.2 0 0 0-5.04-2.2 14.5 14.5 0 0 0 6.02-4.44c.52-.67.4-1.7-.17-2.49-1.08-1.51-2.77-2.39-4.48-2.9-2.24-.67-4.64-1.17-6.95-.36-2.39.82-5.13 1.72-6.25 3.94l2.83-1.73c3.95-.82 8.43.2 11.06 3.4.8.99.57 2.08-.1 2.99-2.37.73-4.9.66-7.35.91l-.37-.02-.2.08-.1.02-.16.1c-.78.4-1.5.87-2.2 1.4l-1.11.7h.07l-.04.04h.48c3.55.24 7.34.81 10.34 2.79 1.12 1.5 2.6 2.93 2.7 4.94a10.9 10.9 0 0 1-2.95 4.7c-5.37 1.82-10.93-1.53-16.14-2.73-3.8-.87-6.98 1.95-9.94 4.02A5.4 5.4 0 0 0 7 42l3.77-2.31c.25-.48.56-.93.92-1.34 3.36-.91 6.7 1.16 9.87 2.1 2.16.66 4.33 1.2 6.65 1.12 3-.1 5.4-1.68 7.7-3.35l.17-.1-.08.03 1.79-1.3c2.02-1.42 4.35-3.83 3.36-6.47Zm-21.39-8.27c.03 3.83-.44 7.64-.39 11.47l4.74-4.67c-.03-3.85.4-7.67.4-11.5l-4.75 4.7Z" fill="#A76F3E"/><path d="M9.45 27.52c0 .23-.1.32-.4.33V28h3.13c.53 0 1.92-.28 1.92-1.45 0-.81-.75-1.16-1.55-1.18v-.02c.63-.14 1.15-.54 1.15-1.14 0-.94-.97-1.21-1.52-1.21H9.05v.14c.3 0 .4.12.4.34v4.04Zm1.28-3.89h.7c.7 0 1.05.25 1.05.66 0 .37-.25.8-1.15.8h-.6v-1.46Zm0 2.11h.8c.99 0 1.3.4 1.3.78 0 .37-.22.82-1.35.82h-.74l-.01-1.6ZM15.84 26.62c0 .73.33 1.38 1.19 1.38 1.26 0 2.17-1.55 2.17-2.61 0-.76-.3-1.39-1.2-1.39-.99 0-2.16 1.12-2.16 2.62Zm1.12.05c.05-.67.2-1.34.43-1.99.02-.05.06-.1.1-.14a.35.35 0 0 1 .18-.07c.32 0 .4.34.4.61 0 .34-.29 2.12-.41 2.33a.24.24 0 0 1-.1.09.26.26 0 0 1-.13.03c-.4 0-.47-.49-.47-.85M21.6 24.68l-.45.08.03-.2c.62-.2 1.13-.34 1.66-.56l-.39 2.16h.02c.28-.65.9-1.98 1.87-1.98.45 0 .56.23.56.6 0 .53-.42 2.14-.42 2.45v.07l.04.06.06.04a.2.2 0 0 0 .08.01.87.87 0 0 0 .37-.15l.13.16c-.33.24-.91.58-1.34.58-.37 0-.46-.32-.46-.55 0-.36.27-1.58.35-1.99a3.35 3.35 0 0 0 .06-.46.12.12 0 0 0-.02-.04.14.14 0 0 0-.1-.03c-.47 0-1.47 2.48-1.62 2.94l-.95.13.51-3.32ZM29.49 24.35h-.86l-.28 2.04c-.04.22-.06.44-.07.66 0 .14.06.33.25.33.35 0 .6-.37.83-.57l.14.13c-.36.37-.89 1.06-1.5 1.06s-.83-.43-.83-.95c0-.17.01-.34.04-.51l.28-2.19h-.52l.05-.37h.53l.14-1.04 1.2-.44-.2 1.47h.86l-.06.38ZM34.07 26.63c-.32.34-.75.8-1.27.8a.77.77 0 0 1-.55-.22.69.69 0 0 1-.2-.53c0-.07 0-.13.03-.2.9-.17 2.41-.76 2.41-1.79 0-.49-.4-.69-.83-.69-1.24 0-2.73 1.24-2.73 2.59 0 .84.56 1.41 1.46 1.41.75 0 1.43-.65 1.82-1.2l-.14-.17Zm-.6-1.66c0 .51-.85 1.11-1.34 1.2.07-.33.3-1.23.55-1.49a.35.35 0 0 1 .3-.12c.3 0 .49.1.49.4ZM39.15 25.2a1.79 1.79 0 0 0-.36-.05c-.94 0-1.43 2.21-1.6 2.72l-1.02.13.5-3.32-.45.08.03-.2c.62-.2 1.13-.34 1.67-.56l-.4 1.98h.02c.49-1.12.72-1.8 1.46-1.8h.4l-.25 1.02ZM43.72 25.2a1.87 1.87 0 0 0-.37-.05c-.95 0-1.43 2.21-1.6 2.72l-1.03.13.5-3.32-.44.08.03-.2c.62-.2 1.13-.34 1.66-.56l-.39 1.98h.02c.48-1.12.72-1.8 1.46-1.8h.41l-.25 1.02ZM48.87 27.24a.82.82 0 0 1-.35.15c-.18 0-.21-.14-.21-.28 0-.48.23-2.03.29-2.39l.11-.72-.35.2a3.1 3.1 0 0 0-.59-.1 2.88 2.88 0 0 0-2.7 2.7c0 .51.1 1.2.8 1.2.82 0 1.25-1.03 1.5-1.6h.02c-.06.26-.1.54-.1.82 0 .5.08.78.53.78.46 0 .97-.44 1.18-.62l-.13-.14Zm-1.51-2.63c.1 0 .23.01.23.06 0 .55-.75 2.72-1.23 2.72-.13 0-.18-.18-.18-.35.01-.54.11-1.07.29-1.58.2-.64.37-.85.89-.85M13.33 33.04v-.1c.29 0 .31-.1.31-.37v-2.72c0-.36-.02-.43-.3-.43v-.1h2.85c0 .3 0 .6.03.89h-.1c-.1-.47-.23-.55-.61-.55H14.2v1.31h.89c.25 0 .34-.11.36-.34h.1c-.02.18-.03.35-.03.53 0 .14 0 .32.03.48h-.1c-.03-.31-.18-.34-.36-.34h-.89v1.4h1.35c.6 0 .65-.26.76-.61h.08c-.04.31-.07.63-.08.95h-2.98ZM19.2 30.52l-.02.2-.28 1.57c-.02.14-.07.34-.07.4 0 .08.02.15.13.15a.71.71 0 0 0 .25-.09l.03.07c-.19.15-.41.26-.65.31-.14 0-.25-.1-.25-.33 0-.19.03-.37.07-.56l.25-1.4v-.04a.07.07 0 0 0-.02-.05.07.07 0 0 0-.05-.03c-.15 0-.66.71-1.25 2.32l-.4.1.34-2.59-.29.07.02-.12.81-.24-.28 1.77c.08-.1.19-.38.32-.62.39-.7.78-1.15 1.1-1.15.12 0 .23.08.23.27M21.02 30.6c-.2 0-.33.12-.43.4-.1.24-.18.5-.21.76a1.13 1.13 0 0 0 .94-.93c0-.13-.09-.23-.3-.23m-.67 1.34v.24c0 .2.04.6.36.6.13 0 .34-.03.85-.51l.05.06c-.11.16-.25.3-.4.43-.36.32-.55.36-.72.36-.4 0-.67-.35-.67-.9 0-1.17.85-1.98 1.6-1.98a.37.37 0 0 1 .3.12.36.36 0 0 1 .09.3c0 .72-.97 1.16-1.45 1.27M23.15 30.25l-.2 1.35c.47-1.12.68-1.35.98-1.35l.13.02-.11.52h-.15c-.66 0-1.04 1.88-1.1 2.26l-.44.1.34-2.6-.28.07.02-.11.81-.26ZM24.8 32.75c.2 0 .75-.69 1.15-2.17a.7.7 0 0 0-.23-.03c-.4 0-.56.15-.76.59-.18.42-.3.86-.32 1.32 0 .29.12.29.16.29m-.6 1.24.12-.41c.17.07.35.11.54.13.63 0 .7-.68.75-1.03l.13-.97c-.2.49-.65 1.41-1.14 1.41-.36 0-.45-.46-.45-.72 0-.93.77-2.16 1.7-2.16.12 0 .24.02.35.06l.25-.13-.28 2.1c-.05.45-.23.88-.52 1.25a1.32 1.32 0 0 1-.97.58c-.17-.01-.33-.05-.48-.12M28.68 31.57c-.12.34-.29.67-.5.97-.22.32-.4.6-.68.6-.29 0-.38-.22-.38-.55 0-.14 0-.27.03-.4l.29-1.63-.3.05.03-.1c.28-.07.56-.16.83-.26-.12.63-.4 2-.4 2.35 0 .2.07.2.11.2.03 0 .18-.03.5-.56a6.4 6.4 0 0 0 .68-1.78l.45-.11-.32 2.46c-.04.26-.17.5-.36.7a1.55 1.55 0 0 1-1.1.6c-.16 0-.32-.04-.47-.1l.09-.39c.18.08.38.11.58.11.78 0 .71-.56.78-1l.14-1.16ZM34.73 30.3c-.07-.25-.3-.71-1.06-.71s-1.39.6-1.39 1.48c0 .73.55 1.64 1.47 1.64.42 0 .83-.13 1.17-.38l-.05.36c-.36.28-.81.43-1.27.42-1.36 0-1.85-1.14-1.85-1.85 0-1.38 1.12-2.03 2.1-2.03.31-.01.62.05.9.19.01.3.03.59.07.88h-.1ZM36.54 30.57c-.56 0-.7 1.37-.7 1.62 0 .37.14.61.41.61.32 0 .43-.23.53-.57.11-.34.17-.69.18-1.04 0-.5-.18-.62-.43-.62m-1.2 1.6a2.1 2.1 0 0 1 .65-1.55c.23-.2.51-.33.82-.37.31 0 .67.25.67.85 0 1.25-.92 2.03-1.45 2.03-.34 0-.7-.2-.7-.97M38.92 30.25l-.2 1.35c.46-1.12.67-1.35.97-1.35l.13.02-.1.52h-.15c-.65 0-1.04 1.88-1.09 2.26l-.44.1.34-2.6-.29.07.02-.11.8-.26ZM41.77 30.6c-.32 0-1.02 1.29-1.02 1.88a.28.28 0 0 0 .17.32.3.3 0 0 0 .13.02c.3 0 .39-.15.6-.59a3 3 0 0 0 .32-1.25c0-.09 0-.39-.2-.39m-1.68.14.02-.11a4.84 4.84 0 0 0 .94-.37l-.2 1.27c.25-.54.64-1.27 1.1-1.27.24 0 .53.18.53.76 0 .93-.95 2.12-1.57 2.12a.61.61 0 0 1-.24-.05c-.06.37-.15.74-.25 1.1l-.25.04a4.07 4.07 0 0 1-.04-.5c.01-.36.04-.71.1-1.06l.27-2.03-.41.1ZM43.3 32.81a.3.3 0 0 1 .09-.2.3.3 0 0 1 .21-.1.3.3 0 0 1 .2.1.3.3 0 0 1-.2.5.3.3 0 0 1-.21-.1.3.3 0 0 1-.09-.2" fill="#231F20"/></svg>