<!-- by TradeStack --><svg width="56" height="56" viewBox="0 0 56 56" xmlns="http://www.w3.org/2000/svg"><path fill="#264B81" d="M0 0h56v56H0z"/><path fill-rule="evenodd" d="M9 18v-1h3v1h-1v5h-1v-5H9Zm5 5v-2.09c0-.65.11-.91.53-.91.47 0 .47.37.47.85V23h1v-2.32c0-.83-.35-1.68-1.17-1.68-.51 0-.67.12-.83.63V17l-1 .35V23h1Zm3.5-1.75h2.47c.12-.75-.04-2.25-1.6-2.25-1.9 0-1.87 1.85-1.87 2.13v.03c0 .2 0 1.84 1.86 1.84.32 0 1.06-.08 1.46-.33v-.8c-.14.12-.56.37-1.13.37-.7 0-1.19-.35-1.19-.99Zm.78-1.75c-.38 0-.7.33-.7.73v.27h1.4v-.27c0-.4-.32-.73-.7-.73Zm27.19 1.75H43c0 .64.49 1 1.2 1 .56 0 .98-.26 1.12-.39v.8c-.4.26-1.14.34-1.46.34C42 23 42 21.37 42 21.16v-.03c0-.28-.03-2.13 1.86-2.13 1.57 0 1.73 1.5 1.6 2.25Zm-2.38-1.02c0-.4.3-.73.69-.73.38 0 .7.33.7.73v.27h-1.4v-.27ZM23 23h1.9c.9 0 1.6-.6 1.6-1.63 0-.66-.34-1.43-1-1.48v-.06c.53-.16.8-.68.8-1.27 0-.99-.66-1.56-1.5-1.56H23v6Zm1.53-1H24v-1.5h.55c.49 0 .95.24.95.78 0 .57-.5.72-.97.72Zm-.05-2.5H24V18h.53c.44 0 .77.2.77.7 0 .5-.38.8-.82.8ZM27 23v-4h1v.74c.12-.41.61-.74 1.04-.74a1.62 1.62 0 0 1 .34.04V20a1.9 1.9 0 0 0-.46-.06c-.47 0-.92.35-.92.82V23h-1ZM12 40v-4h1v.74c.12-.41.61-.74 1.04-.74a1.62 1.62 0 0 1 .34.04V37a1.9 1.9 0 0 0-.46-.06c-.47 0-.92.35-.92.82V40h-1Zm34-21v4h1v-2.23c0-.47.53-.82 1.02-.82a2.09 2.09 0 0 1 .48.06v-.97a1.35 1.35 0 0 0-.36-.04c-.44 0-1.01.33-1.14.74V19h-1Zm-14 2.28V19h1v4h-1v-.75c-.15.47-.39.75-.88.75a.98.98 0 0 1-.59-.18c-.17-.12-.3-.29-.4-.51a2 2 0 0 1-.13-.8V19h1v2.32c0 .48.11.68.48.68.44 0 .52-.33.52-.72ZM10 25H9v6h1v-6Zm18 2.68V27h-1v-1l-1 .23V27h-.5v.68h.5v2.22c0 .25.02.46.14.62.12.17.28.3.48.37.2.08.44.12.69.1a2.04 2.04 0 0 0 .52-.05l.17-.03v-.83c-.17.04-.63.15-.8.1a.33.33 0 0 1-.16-.14c-.04-.07-.04-.17-.04-.3v-2.06h1Zm17-.66v.66h-1v2.06c0 .13.06.23.1.3.05.06.1.1.18.13.15.05.45-.02.64-.07l.08-.02v.83a2.56 2.56 0 0 1-.62.09c-.26 0-.5-.03-.71-.1-.21-.09-.38-.21-.5-.38a1 1 0 0 1-.17-.62v-2.22h-.5v-.66h.5v-.8l1-.22v1.02h1ZM16.3 31l1.2-4h-1.02l-.71 2.86h-.04L15.01 27H14l1.21 4h1.08Zm2.7-1.75h2.47c.12-.75-.04-2.25-1.6-2.25-1.9 0-1.87 1.85-1.87 2.13v.03c0 .2 0 1.84 1.86 1.84.32 0 1.06-.08 1.46-.33v-.8c-.14.12-.56.37-1.13.37-.7 0-1.19-.35-1.19-.99Zm.73-1.57c-.4 0-.71.3-.71.67v.24h1.42v-.24c0-.37-.32-.67-.7-.67Zm18.24 1.57H35.5c0 .64.49 1 1.2 1 .56 0 .98-.26 1.12-.39v.8c-.4.26-1.14.34-1.46.34-1.86 0-1.86-1.63-1.86-1.84v-.03c0-.28-.03-2.13 1.86-2.13 1.57 0 1.73 1.5 1.6 2.25Zm-2.45-.9c0-.37.32-.67.71-.67.4 0 .71.3.71.67v.24h-1.42v-.24ZM23.31 31c-.62 0-1.13-.17-1.31-.26v-.78c.1.06.8.35 1.15.35.35 0 .75-.1.75-.35 0-.24-.37-.4-.6-.5a4.98 4.98 0 0 1-.06-.03l-.1-.04c-.33-.12-1.08-.4-1.08-1.23 0-.95 1.1-1.16 1.65-1.16.45 0 .92.2 1.1.3v.86a1.54 1.54 0 0 0-1.05-.44c-.5 0-.62.22-.6.33 0 .3.46.49.7.55.38.1 1.14.5 1.14 1.22 0 .94-.92 1.18-1.69 1.18ZM9 35v-1h3v1h-1v5h-1v-5H9Zm16 1.68V36h-1v-1l-1 .23V36h-.44v.68H23v2.22a1.05 1.05 0 0 0 .68 1c.2.07.44.1.69.1.14 0 .26-.02.36-.04l.1-.01.17-.04v-.83l-.05.01c-.19.05-.53.13-.68.08a.33.33 0 0 1-.17-.13.54.54 0 0 1-.1-.3v-2.06h1Zm-8 1.6V36h1v4h-1v-.38c-.33.35-.39.38-.88.38a.98.98 0 0 1-.59-.18c-.17-.12-.3-.29-.4-.51a2 2 0 0 1-.13-.8V36h1v2.32c0 .48.11.68.48.68.44 0 .52-.33.52-.72Zm2 1.46c.18.08.69.26 1.31.26.77 0 1.69-.25 1.69-1.2 0-.74-.76-1.15-1.14-1.26-.24-.06-.7-.26-.7-.56-.02-.11.1-.33.6-.33.51 0 .9.3 1.04.44v-.87c-.17-.1-.64-.31-1.09-.31-.56 0-1.65.22-1.65 1.18 0 .85.75 1.14 1.07 1.26l.1.04.08.04c.22.1.6.26.6.5 0 .27-.41.36-.76.36-.35 0-1.05-.3-1.15-.36v.8ZM27 34v6h1v-2h.86c.93 0 1.64-.95 1.64-2s-.7-2-1.64-2H27Zm1.62 3H28v-2h.62c.5 0 .88.44.88 1s-.38 1-.88 1ZM31 34h1v5h2v1h-3v-6Zm5.65 1c.69 0 1.19.34 1.35.51v-1.05c-.09-.16-.48-.46-1.35-.46-1.08 0-2.65.51-2.65 2.99 0 2.48 1.4 3.01 2.5 3.01.87 0 1.36-.3 1.5-.44v-1.08c-.14.2-.6.52-1.35.52-.93 0-1.65-.6-1.65-2s.8-2 1.65-2ZM35 20.72V23h-1v-4h1v.75c.15-.47.39-.75.88-.75.22 0 .42.06.59.18.17.12.3.29.4.51a2 2 0 0 1 .13.8V23h-1v-2.32c0-.48-.11-.68-.48-.68-.44 0-.52.33-.52.72ZM12 31v-2.28c0-.39.08-.72.52-.72.37 0 .48.2.48.68V31h1v-2.51a2 2 0 0 0-.14-.8c-.1-.22-.22-.4-.4-.51a.98.98 0 0 0-.58-.18c-.5 0-.73.28-.88.75V27h-1v4h1Zm18-2.28V31h-1v-4h1v.75c.15-.47.39-.75.88-.75.22 0 .42.06.59.18.16.11.29.28.38.5.15-.46.55-.68 1.03-.68.22 0 .42.06.59.18.17.12.3.29.4.51a2 2 0 0 1 .13.8V31h-1v-2.32c0-.48-.11-.68-.48-.68-.44 0-.52.33-.52.72V31h-1V28.65c0-.46-.12-.65-.48-.65-.44 0-.52.33-.52.72Zm10 0V31h-1v-4h1v.75c.15-.47.39-.75.88-.75.22 0 .42.06.59.18.17.12.3.29.4.51a2 2 0 0 1 .13.8V31h-1v-2.32c0-.48-.11-.68-.48-.68-.44 0-.52.33-.52.72ZM39 23v-2.28c0-.39.08-.72.52-.72.37 0 .48.2.48.68V23h1v-2.51a2 2 0 0 0-.14-.8c-.1-.22-.22-.4-.4-.51a.98.98 0 0 0-.58-.18c-.5 0-.73.28-.88.75V19h-1v4h1Z" fill="#fff"/></svg>