<?xml version='1.0' encoding='utf-8'?>
<!-- by TradeStack -->
<svg width="56" height="56" viewBox="0 0 56 56" xmlns="http://www.w3.org/2000/svg"><path fill="#F0F3FA" d="M0 0h56v56H0z" /><path d="M42.3 29H42l-.11.03c-.4 0-.66.32-.75.64-.07.23-.09.49-.11.72-.03.24-.08.52-.04.77.05.29.26.56.53.7.36.17.95.18 1.35.07.3-.09.56-.31.67-.59.14-.34.02-.94-.03-1.3a1.9 1.9 0 0 0-.08-.41c-.05-.15-.14-.3-.26-.42-.2-.19-.53-.21-.85-.21Zm-.1.72c.12 0 .24 0 .32.09.15.15.14.5.15.73 0 .1.02.2 0 .3a.93.93 0 0 1-.1.37c-.05.09-.13.12-.2.18-.13 0-.23 0-.32-.09-.2-.2-.16-.63-.15-.92.01-.2.02-.42.13-.56.04-.06.1-.07.17-.1ZM38.98 26c-.13.16-.25.27-.4.4l-.54.53v.02h-.02v.01c.08 0 .13.12.15.18.02.08 0 .2 0 .29V30.9c0 .22.04.94-.05 1.07v.02h-.02V32h.97c0-.03-.02-.06-.03-.08a.64.64 0 0 1-.04-.18c-.02-.41 0-.62 0-1.05.05 0 .14.08.19.11.32.25.52.39.58.8.02.11.03.28-.02.37l-.01.02V32h.97c0-.15-.03-.29-.05-.42-.1-.52-.3-.83-.68-1.19-.05-.05-.1-.1-.17-.13v-.03c.05 0 .12-.1.16-.12.36-.32.56-.58.57-1.1h-.63c-.08 0-.2-.01-.25.03 0 .05 0 .1.02.14v.18c-.03.25-.43.44-.65.53v.02H39v-2.93c0-.16.03-.91-.02-.98ZM44.98 26c-.14.16-.18.27-.34.4l-.62.53v.02H44v.01c.09 0 .15.12.17.18.02.08 0 .2 0 .29V30.9c0 .22.05.94-.06 1.07v.02h-.01V32h.99c0-.03-.03-.06-.04-.08a.59.59 0 0 1-.04-.18c-.02-.41 0-.62 0-1.05.06 0 .15.08.2.11.37.25.68.39.75.8.02.11.03.28-.02.37 0 .02 0 .02-.02.02V32H47c0-.15-.02-.29-.05-.42-.1-.52-.33-.83-.75-1.19-.06-.05-.13-.1-.2-.13v-.03c.06 0 .14-.1.18-.12.4-.32.62-.58.64-1.1h-.71c-.09 0-.22-.01-.28.03l.02.14v.18c-.03.25-.56.44-.8.53v.02H45v-2.93c0-.16.04-.91-.02-.98ZM36.32 29h-.27l-.18.05a.75.75 0 0 0-.32.26c-.24.36-.24.85-.33 1.29-.04.23-.1.53-.07.78.01.11.07.21.13.3.25.32.67.36 1.1.33.17-.02.32-.07.48-.1v1.01a.24.24 0 0 1-.07.12c-.1.1-.19.1-.3.15-.3 0-.85.03-1.03-.18V33c-.04 0-.02.08-.02.1v1.06h.01c0-.18.52-.15.65-.16.26-.03.53-.01.77-.06a.99.99 0 0 0 .7-.54c.18-.43.15-.97.15-1.49V29.59l.01-.32c.02-.09.08-.16.11-.24.03 0 .02 0 .02-.03h-.64c-.09 0-.2 0-.27.02-.06.02-.09.08-.1.14-.04 0-.09-.06-.12-.08l-.14-.05a1.08 1.08 0 0 0-.27-.03Zm.16.71c.12 0 .29 0 .36.1.04.07.04 1.29 0 1.38-.06.15-.17.2-.3.3-.14 0-.25-.02-.33-.14-.2-.27-.03-1.32.14-1.56.04-.04.08-.06.13-.08ZM33.86 29c-.09.03-.18.04-.26.08-.07.02-.13.06-.2.1h-.01c0-.04-.08-.14-.12-.15-.07-.03-.18-.02-.26-.02h-.67c-.01.02-.03.02-.05.03 0 .04.07.14.08.18V32h.02c0 .02.06 0 .08 0h.81v-1.44c0-.13-.03-.38.02-.48a.42.42 0 0 1 .45-.2c.32.06.25.36.25.6v1.01c0 .12-.01.28.03.38.02.06.08.11.15.13.08.02.19 0 .28 0h.6c-.08 0-.12-.14-.13-.2V30.3c0-.34 0-.65-.15-.9a.89.89 0 0 0-.2-.22.69.69 0 0 0-.3-.16C34.13 29 34 29 33.85 29ZM30.44 29h-.28l-.18.05a.74.74 0 0 0-.3.24c-.26.35-.26.85-.35 1.29l-.05.37c-.01.1-.03.22-.01.32.02.17.12.32.26.44.26.23.7.33 1.09.27.05 0 .1-.02.15-.05.04-.02.08-.08.14-.08.05 0 .08.06.12.09.03.03.08.05.13.05h.83c-.15 0-.16-.5-.15-.63.02-.2.01-.41.01-.62v-.95c0-.17-.03-.4.01-.55a.56.56 0 0 1 .13-.22V29h-.68c-.08 0-.18 0-.25.02-.06.02-.08.08-.1.13h-.01v-.01c-.03 0-.06-.04-.08-.05a.72.72 0 0 0-.17-.07 1.31 1.31 0 0 0-.26-.02Zm.16.68c.15 0 .32 0 .4.1v1.29c-.04.1-.16.2-.26.25l-.1.04c-.17 0-.3-.06-.37-.2-.04-.1-.03-.19-.03-.3 0-.34.05-.86.24-1.1.03-.05.08-.06.12-.08ZM25 24.14v8.09c.09 0 .29-.12.38-.16.12-.06.24-.05.38-.06h1c.6 0 1.1-.15 1.52-.53.2-.17.33-.39.44-.6.54-.96.24-2.02-.43-2.77a2.18 2.18 0 0 0-.56-.52c0-.03.08-.13.1-.17.04-.08.06-.16.07-.24a1.8 1.8 0 0 0-.38-1.43 2.22 2.22 0 0 0-1.04-.69c-.31-.1-.69-.16-.96-.34-.13-.08-.24-.2-.34-.32a.96.96 0 0 1-.15-.26H25Zm1 1.95c.35.2.97.52.89 1.02a.71.71 0 0 1-.19.38c-.09.09-.2.15-.32.2l-.15.05c-.02 0 0 .03 0 .05.02.17.08.33.19.45.08.09.19.13.28.2.3.2.68.35.88.68.29.46.22 1.31-.22 1.64-.1.07-.2.12-.32.16l-.2.06-.1.02h-.7c-.04 0-.04-.1-.04-.15v-4.76ZM40.53 35l-.15.06-.1.02h-.82a.91.91 0 0 0-.7.33c-.32.39-.03.83.33 1.1.23.18.49.26.58.56.02.07 0 .14-.05.2-.13.11-.53-.06-.65-.13l-.18-.15v-.01c-.04 0-.03.05-.03.07V38h.03l.01-.02c.12-.07.27-.07.43-.07H40a.9.9 0 0 0 .52-.33c.44-.58-.11-1.06-.56-1.44-.1-.09-.3-.16-.3-.3 0-.06.02-.09.06-.11a.2.2 0 0 1 .16-.03c.16.04.21.13.43.13.05 0 .1 0 .14-.02a.15.15 0 0 0 .1-.11 2.7 2.7 0 0 0-.02-.7ZM37.55 35c-.22 0-.43.02-.48.06-.1.1-.06.3-.06.44v1.1c0 .22.03.5-.06.68-.08.15-.14.15-.28.24-.21 0-.33-.21-.39-.38s-.05-.45-.07-.64l-.11-1.28c0-.09.04-.17.12-.2v-.01h-.92c-.06.04-.12.08-.14.15-.04.1-.01.22 0 .32l.1.7c.1.5.09 1.37.48 1.71.07.07.15.1.24.15.11.06.24.1.39.12.19 0 .44.03.61-.06h.03v.46c0 .22-.01.4-.2.52-.07.06-.17.06-.26.1-.27 0-.62.01-.78-.21h-.01v-.02c-.03 0-.01.08-.01.1V40h.02c0-.02.03-.02.04-.03.09-.03.2-.02.3-.02l.51-.02c.12 0 .25 0 .36-.03.33-.09.78-.39.92-.72.15-.35.1-.82.1-1.26v-2.48c0-.1-.01-.23.02-.32a.17.17 0 0 1 .08-.1v-.01l-.55-.01ZM33.95 35c-.06 0-.1 0-.15.03-.05.02-.07.07-.1.1v.02c0-.02-.05-.04-.07-.05-.2-.11-.45-.1-.72-.1l-.19.06a.77.77 0 0 0-.28.2c-.08.1-.15.23-.18.36-.1.37-.15.76-.2 1.15-.03.17-.08.4-.04.57.05.17.18.32.33.44.22.17.72.27 1.03.2a.4.4 0 0 0 .15-.06c.04-.02.07-.06.12-.07.06 0 .08.06.11.09a.3.3 0 0 0 .13.05l.31.01h.53v-.01c-.03 0-.04-.03-.05-.05-.11-.17-.1-.41-.1-.64v-1.35l.02-.68a.59.59 0 0 1 .13-.25V35h-.78Zm-.6.68c.12 0 .27 0 .34.09a.2.2 0 0 1 .04.1v.82c0 .12.03.3-.02.4a.5.5 0 0 1-.22.23l-.1.05c-.13 0-.24-.03-.31-.12-.2-.26-.04-1.26.13-1.48.04-.05.09-.07.14-.09ZM28.23 35l.09.11c.04.12.02.26.03.38 0 .24.02.48.04.72.04.68.27 1.14.8 1.56.1.07.18.17.29.21 0 .03 0 .02.03.02l.1-.28c.1-.2.17-.4.26-.6l.13-.27a.12.12 0 0 1 .11-.06c.04 0 .06.03.08.06.08.12.13.27.18.4.11.24.24.5.31.75h.03c0-.02.01-.02.03-.03.13-.08.25-.2.37-.29l.2-.18c.12-.13.21-.3.3-.45.21-.4.21-1.06.24-1.56 0-.13 0-.25.02-.36.01-.05.04-.09.09-.11V35h-.82c-.12 0-.26-.01-.35.03-.01.01.03.04.04.06.1.1.07.68.04.84l-.06.3h-.02l-.1-.2c-.11-.19-.22-.38-.36-.56l-.21-.24c-.2 0-.61.83-.72.98v.01h-.02l-.07-.3c-.03-.2-.02-.45 0-.65l.02-.12c.01-.04.05-.09.1-.12v-.01h.01V35h-1.2ZM26.1 35c.1.14.05.58.05.79v2.05c0 .05-.02.1-.05.13V38h-.02V38h1v-.02c-.1 0-.08-.51-.08-.62v-.62c0-.13-.01-.28.02-.4.06-.24.26-.4.5-.47.17-.04.4.03.52.12h.01l-.1-.69c0-.05 0-.13-.03-.18-.04-.05-.11-.08-.18-.1-.29-.08-.49.09-.67.26-.14 0-.1-.18-.1-.28h-.87ZM25.18 35c-.16.1-.17.24-.18.4v1.9c0 .22 0 .56-.06.69h-.02V38h1.12v-.02c-.21 0-.16-.45-.16-.62v-1.5c0-.21-.05-.48-.01-.7.01-.06.03-.12.09-.14V35h-.78ZM25.41 33v.01a.38.38 0 0 0-.22.1c-.38.3-.15.95.36.89.54-.07.62-.82.11-.98a.89.89 0 0 0-.25-.02ZM24.09 29.92c-.04.1-.1.19-.17.27-.29.4-.72.51-1.14.68-.27.1-.53.24-.77.42-.8.58-1.1 1.55-1.25 2.5-.05.3-.1.61-.1.93h-.01c0 .02-.17.01-.2.03-.07 0-.16-.02-.22 0-.26 0-.49.01-.7-.06-.15-.05-.27-.15-.4-.2v-.01h-.02c0 .49.18.82.58 1.06.12.08.26.15.42.16h.4c0 .09-.09.3-.12.39-.24.65-.7 1.15-1.3 1.46-.14.08-.28.16-.44.21v.03l.12.06.19.06a3 3 0 0 0 .87.07c1.2-.1 1.72-1.23 1.79-2.36.24 0 .49-.06.73-.04.1.01.21.03.3.06l.2.08c0-.11-.06-.24-.1-.34-.17-.47-.54-.6-1-.66l.1-.68c.1-.6.39-2.09 1.14-2.11V37.32c0 .13-.05.3-.08.41a.38.38 0 0 1-.17.24c0 .03.13.02.15.02h1.36v-.02c-.06 0-.12-.1-.13-.14-.05-.15-.13-.36-.13-.54V30.47c0-.16.14-.4.1-.55Z" fill="#254AA5" /><path d="M23 21.87v4.55a5.18 5.18 0 0 1-1.6 3.45c-.27.23-.54.43-.84.6l-.28.14h-.07l-.46-.29c-.33-.18-.7-.32-1.08-.38-.19-.03-.4-.05-.6-.03a4.24 4.24 0 0 0-3.38 3.21 4.06 4.06 0 0 0 1.18 3.5c.4.39.8.7 1.22.99l.47.3c.02 0 .03 0 .03.03h.02v.01a3.86 3.86 0 0 1-1.85-.72c-.36-.25-.7-.49-1.01-.81a4 4 0 0 1-.46-.57c-.15-.23-.32-.45-.44-.7a5.04 5.04 0 0 1-.15-3.93c.1-.26.24-.49.38-.72.71-1.17 1.97-1.9 3.06-2.64l2.1-1.42c.67-.45 1.34-.9 1.92-1.5.53-.57.95-1.22 1.26-1.9.13-.28.47-.87.58-1.17Z" fill="#ED1C24" /><path d="M22.98 19c.03.08.02.19.02.29v.62a5.35 5.35 0 0 1-1 3.44c-.15.23-.32.45-.48.68-.14.2-.3.4-.47.58-.3.29-.61.55-.93.79-.51.37-1 .74-1.55 1.05-.55.33-1.07.7-1.6 1.04-1.14.74-2.3 1.6-3.1 2.73a4.96 4.96 0 0 0-.81 2.95c.03.63.23 1.2.46 1.72a5.16 5.16 0 0 0 1.52 2c.37.3.73.58 1.13.84.05.03.56.27.61.27l-.35-.05a5.73 5.73 0 0 1-4.2-5.16c-.03-.6 0-1.18.2-1.68.8-2.03 2.77-3.6 4.54-4.89l1.86-1.37 1.2-.88.35-.35c.64-.62 1.2-1.28 1.66-2 .13-.21.26-.42.37-.63.2-.4.35-.83.44-1.27.05-.24.12-.47.13-.72Z" fill="#B49142" /><path d="M22.66 8c.11 0 .23 0 .29.1.08.1.05.43.05.59V17a7.3 7.3 0 0 1-1.17 3.7c-.25.44-.45.9-.8 1.3a12.99 12.99 0 0 1-2.5 2.22l-1.8 1.5c-.42.31-.84.63-1.24.99l-.77.7c-.26.24-.5.52-.75.78a6.88 6.88 0 0 0-1.73 2.63c-.11.34-.2.68-.24 1.05-.05.33-.02.69 0 1.01.1 1.67.88 3.14 2.19 4.15.4.32.83.6 1.3.8.09.04.26.15.36.15v.01a8.6 8.6 0 0 1-4.18-1.64 7.18 7.18 0 0 1-2.64-6.43c.1-1.07.36-2.05.78-2.96a12.5 12.5 0 0 1 3.15-3.92 150.13 150.13 0 0 0 2.96-2.48c.65-.6 1.32-1.2 1.92-1.86 3.49-3.95 4.05-5.58 4.63-10.5.01-.1.1-.16.19-.2Z" fill="#254AA5" /></svg>