<?xml version='1.0' encoding='utf-8'?>
<!-- by TradeStack -->
<svg width="56" height="56" viewBox="0 0 56 56" xmlns="http://www.w3.org/2000/svg"><path fill="#F0F3FA" d="M0 0h56v56H0z" /><path d="M37.61 22.76a.08.08 0 0 1 .06.1l-.47 1.46c-.02.06-.05.08-.1.07-2.38-.47-3.55-.93-4.15 2.01a670.87 670.87 0 0 1-1.41 6.58.09.09 0 0 1-.06.02h-2.03a.09.09 0 0 1-.08-.07v-.04c.78-2.74 1.7-5.5 2.37-8.2.5-2.03-4.69-1.82-5.73-1.68l-.03-.01a.05.05 0 0 1 0-.08c1.57-.8 3.57-.96 5.3-.91 2.08.05 4.2.3 6.33.75Z" fill="#60604C" /><path d="M37.25 32.85c-1.42-.34-2.32-1.7-2.4-3.09-.17-3.26 2.28-6.46 5.93-5.63 3.2.74 3.13 4.53 1.7 6.7a4.75 4.75 0 0 1-5.23 2.02Zm.63-1.5c.27.12.58.16.9.13.32-.04.65-.15.96-.33.31-.18.6-.43.86-.73a4.1 4.1 0 0 0 .95-2.18c.05-.4.03-.77-.05-1.12a2.35 2.35 0 0 0-.42-.9 1.78 1.78 0 0 0-1.62-.69c-.32.03-.65.15-.96.33-.31.18-.6.43-.87.73a4.1 4.1 0 0 0-.95 2.18c-.04.39-.02.77.06 1.12.08.35.22.65.42.9.2.26.44.45.72.56ZM10.73 28.33c1.1.4 1.5 1.37 1.19 2.5-.45 1.62-1.68 2.03-3.27 2.1-1.54.08-3.05.09-4.55.04-.08 0-.11-.05-.1-.13l1.81-8.75c0-.02.02-.04.03-.05a3.97 3.97 0 0 1 5.24.26c1.76.82 1.5 3.39-.35 3.94a.04.04 0 0 0-.02.07l.02.02Zm-3.37-2.74-.4 1.92c-.01.05 0 .08.06.08a12 12 0 0 0 2.36-.06c1.23-.18 1.57-1.91-.06-1.97a26.82 26.82 0 0 0-1.95 0l-.01.03Zm2.03 5.73c.7-.35 1.1-1.35.34-1.88-.53-.37-2.11-.25-3.07-.21-.04 0-.06.02-.07.06l-.44 2.13a.05.05 0 0 0 .03.05h.02c.74.04 2.56.17 3.2-.15ZM14.95 27.46h4.42a.05.05 0 0 1 .05.05v.02l-.28 1.43-.02.03a.05.05 0 0 1-.04.01h-4.5a.06.06 0 0 0-.01.04l-.55 2.36v.02a.06.06 0 0 0 .03.04h5.02l.02.01a.05.05 0 0 1 .03.04v.02l-.3 1.43-.03.03a.05.05 0 0 1-.03.01H11.94a.05.05 0 0 1-.03-.04v-.03l1.83-8.89s0-.02.02-.03l.03-.01h6.45a.05.05 0 0 1 .05.02.06.06 0 0 1 0 .05L20 25.49a.06.06 0 0 1-.05.05h-4.66a.06.06 0 0 0-.02.04l-.37 1.82a.06.06 0 0 0 .03.06h.02ZM21.1 33h-1.63a.05.05 0 0 1-.03-.02.05.05 0 0 1 0-.04l1.82-8.9.01-.03.03-.01h1.68l.02.03 2.3 5.77a.05.05 0 0 0 .05.03l.03-.01.01-.03 1.18-5.75c0-.01 0-.02.02-.03l.02-.01h1.64a.04.04 0 0 1 .04.04v.02l-1.83 8.9c0 .01 0 .02-.02.03l-.02.01h-1.65a.04.04 0 0 1-.05-.03l-2.3-5.83a.05.05 0 0 0-.04-.02h-.03l-.01.03-1.19 5.81c0 .01 0 .02-.02.03l-.02.01ZM50.33 24H51.97a.05.05 0 0 1 .03.04v.03l-1.82 8.89-.02.03-.04.01H48.5a.05.05 0 0 1-.05-.03l-2.29-5.79a.05.05 0 0 0-.1.01l-1.18 5.77-.02.03-.03.01H43.2a.05.05 0 0 1-.05-.02.05.05 0 0 1 0-.05l1.82-8.89.02-.03.03-.01h1.68c0 .02.01.02.02.03L49 29.78c0 .01 0 .02.02.03a.05.05 0 0 0 .06-.01l.02-.03 1.17-5.73.02-.03.03-.01Z" fill="#044579" /></svg>