<!-- by TradeStack --><svg width="56" height="56" viewBox="0 0 56 56" xmlns="http://www.w3.org/2000/svg"><path fill="#F0F3FA" d="M0 0h56v56H0z"/><path d="M12 32.22c0 4.95 3.82 7.8 6.2 8.74.06.03.13.04.2.04a.6.6 0 0 0 .54-.35c.05-.1.07-.2.06-.3a.72.72 0 0 0-.24-.5A8.38 8.38 0 0 1 16 33.9c0-4.05 5.5-7.89 6.61-7.89 1.79 0 2.39.39 2.39 1.74s-3 3.02-3 4.87 3.53-.61 5.6-.61c2.06 0 2.4 1.57 2.4 2.42 0 2.09-3.44 4.44-5.67 5.5-.2.1-.33.17-.33.39 0 .32.28.71.6.69 12.34-.93 14.96-8.8 14.96-10.24 0-1.46-.56-1.84-.56-3.26 0-.75.57-1.5.94-1.86.26-.25.52-.48.34-.8-.15-.25-.58-.44-.82-.27-1.08.76-3.5 2.43-4.21 2.43-.86 0-1.25-.53-1.25-1.88 0-4.68 5.78-8.6 9.52-10.5.4-.2.6-.7.4-1.12a.85.85 0 0 0-1.1-.43A318.05 318.05 0 0 1 25 20.06c-7.2 2.49-13 5.51-13 12.16Z" fill="url(#a4bdxfzxt)"/><defs><linearGradient id="a4bdxfzxt" x1="43.98" y1="14.14" x2="15.78" y2="39.92" gradientUnits="userSpaceOnUse"><stop stop-color="#F46E18"/><stop offset="1" stop-color="#BD6022"/></linearGradient></defs></svg>