<!-- by TradeStack --><svg width="56" height="56" viewBox="0 0 56 56" xmlns="http://www.w3.org/2000/svg"><path fill="#7A853B" d="M0 0h56v56H0z"/><path d="M38.48 22.15c-1.27 1.07-2.67 1.74-4.48 2.7a15.75 15.75 0 0 0-5.07 4.27h-.04a.06.06 0 0 1-.02-.04v-.04c1.69-2.95 2.9-5.04 5.25-7.17a43.16 43.16 0 0 1 7.98-5.71 9.62 9.62 0 0 1 2.87-1 .05.05 0 0 1 .03.05l-.02.03c-1.75 1.13-2.05 2.75-2.67 4.76-.4 1.33-.97 2.6-1.68 3.82a8.25 8.25 0 0 1-3.2 3c-1.44.8-3.45 1.85-5.55 2.73a8.57 8.57 0 0 0-4.58 4.3A80.27 80.27 0 0 0 22.96 45c-.1.31-.24.6-.43.85a.36.36 0 0 1-.31.15.38.38 0 0 1-.3-.17c-.16-.24-.02-.5.06-.76a391.1 391.1 0 0 1 4.08-12.1c.68-1.91.68-4.14-1-5.5-1.4-1.11-3.4-1.89-4.85-2.67a7.51 7.51 0 0 1-3.76-4.83c-.33-1.2-.65-2.6-.97-4.23-.12-.56-.36-1.2-.48-1.67v-.04l.03-.02a.06.06 0 0 1 .06 0c.91.84 2.01 1.65 3.3 2.42.65.39 1.53 1.09 2.65 2.1 1.5 1.35 3 3.22 4.52 5.58 1.07 1.68 2.08 3.73 2.05 5.6a19.47 19.47 0 0 1-.12 1.88l.03.02a.05.05 0 0 0 .05-.02c1.5-2.93 4.04-5.14 6.9-6.73 1.62-.9 3.11-1.55 4.03-2.7v-.01h-.02Z" fill="#fff"/><path d="M27.4 29.25a9.64 9.64 0 0 0-1.96-3.44c-.99-1.16-2.75-2.18-4.07-2.94a4.46 4.46 0 0 1-1.54-1.48c.63.76 1.32 1.3 2.25 1.75a12.9 12.9 0 0 1 3.25 2.16 7.69 7.69 0 0 1 2.13 3.96l-.02.02h-.03l-.01-.03Z" fill="#7A853B"/></svg>