<!-- by TradeStack --><svg width="56" height="56" viewBox="0 0 56 56" xmlns="http://www.w3.org/2000/svg"><path fill="#F0F3FA" d="M0 0h56v56H0z"/><path fill-rule="evenodd" d="M27.69 11c-4.6 0-8.24.4-9.5.61C17.47 14.92 16 22.72 16 27.47c0 4.74 1.46 13.26 2.2 16.93 1.28.2 4.98.6 9.49.6 4.5 0 8.66-.4 10.17-.6A79.04 79.04 0 0 0 40 27.47a64.6 64.6 0 0 0-2.14-15.86c-1.48-.2-5.58-.61-10.17-.61Zm.77 2c-3.87 0-6.77.52-7.74.78A54.58 54.58 0 0 0 19 27.63c0 6.46 1.1 12.5 1.64 14.71.86.22 3.58.66 7.57.66 4 0 7.02-.44 8.03-.66.72-2.52.8-5.56.74-6.76-2.84-1.05-8.8-3.28-9.91-3.81l-.24-.1c-1.37-.65-3.2-1.5-3.2-3.67 0-2.3 2.78-3.6 5.08-4.59 1.83-.79 6.27-2.38 8.27-3.07.16-2.46-.59-5.4-.99-6.56-.9-.26-3.66-.78-7.53-.78Zm-6.18 9 .65-5h7.12c.13 0 .24.11.24.25v.58c0 .1-.05.19-.13.23L22.28 22Zm.65 17-.65-5 7.88 3.94c.08.04.13.13.13.23v.58c0 .14-.1.25-.24.25h-7.12ZM37 25v-2.74c0-.26-.24-.7-1.14-.46-1.11.31-6.38 2.17-9.04 3.63A2.7 2.7 0 0 0 25 27.9c0 .49.19 1.36 1.72 2.1 1.53.76 6.3 2.67 8.48 3.54.6.24 1.8.51 1.8-.33v-2.59l-6.23-2.4a.36.36 0 0 1 0-.66L37 25.01Z" fill="#90615C"/></svg>