<!-- by TradeStack --><svg width="56" height="56" viewBox="0 0 56 56" xmlns="http://www.w3.org/2000/svg"><path fill="#F0F3FA" d="M0 0h56v56H0z"/><path d="m19 40-3 3V14h18.3c2.89 0 6.74 1.03 6.74 7.24 0 4.97-3.21 7.59-4.82 8.28 3.37.51 5.78 3.62 5.78 7.24 0 2.9-1.6 4.72-2.4 5.24h-.49l-1.92-2h-.97l-.96-1.69-1.93 2.07L30.44 37h-.96l-1.44-2.31L23.5 40l-1.72-2.2L19.5 40H19Z" fill="#0E0E41"/><path d="M21.78 39.34 17.44 44l5.3-3.62-.96-1.04ZM28.04 37.28l-4.34 4.65 5.3-3.62-.96-1.03Z" fill="#ED8131"/></svg>