<?xml version='1.0' encoding='utf-8'?>
<!-- by TradeStack -->
<svg width="56" height="56" viewBox="0 0 56 56" xmlns="http://www.w3.org/2000/svg"><path fill="#F0F3FA" d="M0 0h56v56H0z" /><path d="M26.78 12c.8.33 1.1.91.9 1.75a21.1 21.1 0 0 0-.68 4.92c-.01 1.65.7 2.83 2.13 3.55.03.12.03.2 0 .22a5.04 5.04 0 0 1-3.65-2.36C24.29 18.11 23 12 26.78 12Z" fill="#002E6E" /><path d="m19.71 17.33-.24 4.16c-1.24-.69-2.46-1.39-3.66-2.1-1.93-1.15-2.32-2.2-1.16-3.13.22-.18.54-.28.96-.3 1.49-.05 2.86.4 4.1 1.37Z" fill="#F7911D" /><path d="M22.74 20.2c-.02.2.09.45.31.76l.04 3.18c0 .17-.06.2-.2.1l-3.42-2.75.24-4.16c1.15.8 2.16 1.77 3.03 2.88Z" fill="#FDB912" /><path d="M29.12 22.44c.04-.02.04-.1.01-.22.03.06.07.08.12.04.04-.03.04-.06 0-.1l-1.28-1.26c-.18-.17-.15-.27.11-.3a9.63 9.63 0 0 0 5.25-2.03c.1-.08.53-.2 1.28-.35.51-.1.87.03 1.09.4.2.34.2.73.02 1.17a3.2 3.2 0 0 1-1.27 1.54 7.81 7.81 0 0 1-5.33 1.11Z" fill="#F7911D" /><path d="M23.05 20.96c-.22-.31-.33-.57-.31-.75a5.77 5.77 0 0 1 1.37 2.08c1.52 4.52.43 8.28-3.25 11.29-.7.57-1.43.94-2.2 1.11-.93.2-1.69.04-2.28-.5-.67-.6-.89-1.26-.64-1.98.21-.63.7-1.17 1.47-1.62l.42-.24a30 30 0 0 0 3.27-2.09 8.95 8.95 0 0 0 2.41-2.85c.68-1.3.59-2.78-.26-4.45Z" fill="#242021" /><path d="M32.6 28.01c.25-1.42.27-2.84.06-4.28a14.56 14.56 0 0 1 7.81-.65c1.53.3 2.6.97 3.22 2.04.38.66.41 1.32.1 1.98-.4.85-1.47 1.2-3.23 1.04-1.93-.16-3.85-.26-5.77-.31-.72-.02-1.46.04-2.2.18Z" fill="#F7911D" /><path d="M32.66 23.73c.21 1.44.19 2.86-.07 4.28l-3.05.7a.17.17 0 0 1-.18-.06.17.17 0 0 1-.04-.17 8.32 8.32 0 0 1 3.34-4.75Z" fill="#FDB912" /><path d="M31.3 24.38c-.54.48-1 .94-1.36 1.36a6.94 6.94 0 0 0-1.74 5.71c.2 1.57.95 3.51 2.23 5.82 1.5 2.74 2.35 4.4 2.52 5a2 2 0 0 1-.42 1.83c-.33.44-.83.72-1.5.84a3.25 3.25 0 0 1-3.08-1.1c-1.6-1.69-2.62-4.02-3.07-7-.35-2.3-.11-4.48.7-6.54a11.41 11.41 0 0 1 5.63-6.04c.33-.17.36-.13.08.12Z" fill="#B01116" /></svg>