<!-- by TradeStack --><svg xmlns="http://www.w3.org/2000/svg" width="56" height="56" viewBox="0 0 56 56"><path fill="#F0F3FA" d="M0 0h56v56H0z"/><ellipse cx="28.28" cy="27.33" rx="15.17" ry="15.33" fill="#231F20"/><ellipse cx="28.28" cy="27.33" rx="14.03" ry="14.17" fill="url(#aism1cyhf)"/><ellipse cx="28.28" cy="27.33" rx="12.81" ry="12.93" fill="#ED1C24"/><ellipse cx="28.21" cy="27.74" rx="9.39" ry="9.48" fill="#918F91"/><path d="M35.99 17.26a7.58 7.58 0 0 0-5.54-1.48l.16.41c2.94-.33 4.7 1.15 5.2 1.92.22-.35.21-.71.18-.85z" fill="url(#bism1cyhf)"/><path d="M35.2 19.07c.4-.43.59-.93.63-1.13a6.01 6.01 0 0 0-4.04-1.8c-2-.05-3.21.78-3.57 1.2v1.28a7.72 7.72 0 0 1 3.24-.96c1.96.04 3.31.96 3.75 1.41z" fill="url(#cism1cyhf)"/><path d="M30.95 16.62l-.6.04.04.6.6-.03-.04-.6zm1.59.06l-.6-.05-.04.6.6.05.04-.6zm-3.66.46l.57-.18.18.57-.56.18-.19-.57zm5.21.02l-.55-.22-.22.56.56.22.21-.56zm.85.5l.49.35-.34.5-.5-.36.35-.49z" fill="#F5F5F6"/><path d="M32.52 26.4a15.72 15.72 0 0 1 2.69-7.35 6.05 6.05 0 0 0-3.63-1.39c-1.32 0-2.9.64-3.54.96v17.07c.55.24 2.11.67 4.04.53a8.93 8.93 0 0 0 4.22-1.52c-1.4-1.28-4.14-4.74-3.78-8.3z" fill="url(#dism1cyhf)"/><path d="M30.9 25.57c-.07-4.36.7-7.1 1.1-7.92h-.62c-.65 1.15-.78 5.76-.76 7.92h.29z" fill="url(#eism1cyhf)"/><path d="M31.6 31.03c.57 2.21 1.61 4.19 2.07 4.9l-.47.11a19.58 19.58 0 0 1-1.86-5h.27z" fill="#323232"/><path d="M46.98 19.17L8 29.05v7.04l.5-.12v3.23l.87.88 1.62-.46.43-.93V35.8l-.43-.46.6-.13v4.22l2.9-.74-.08-4.12.5-.13-.31 4.25 3.03-.86-.46-4.08.55-.11.09 4.2 3.57-.88v-4.3h.25v4.23l13.95-3.51.56-.87v-3.08l-.37-.4.6-.09v4.27l2.86-.84v-4.18h.2v4.18l2.1-.54-.15-4.19h.26l.19 4.1 1.85-.47v-1.1h.28l.55-.88v-1.92l-.31-.44.53-.14v3.26l.8.76 1.45-.3.65-1.02v-2.92l-.41-.45.78-1.2v-4.58l-1.02-1.17z" fill="#231F20"/><path d="M28.1 13.96c1.87.03 2.51.2 2.6.3v.33c-.3.11-1.25.34-2.6.33a10.36 10.36 0 0 1-2.71-.33v-.34c.12-.1.82-.32 2.7-.3z" fill="#212222"/><ellipse cx="28.09" cy="14.37" rx="1.3" ry=".09" fill="#ED1C24"/><path d="M25.85 14.43c0 .09-.07.16-.16.16a.15.15 0 0 1-.15-.16c0-.08.07-.15.15-.15.09 0 .16.07.16.15zm1.04.23c0 .09-.07.16-.16.16a.15.15 0 0 1-.15-.16c0-.08.07-.15.15-.15.09 0 .16.07.16.15zm1.14.2c.09 0 .16-.07.16-.15a.15.15 0 0 0-.16-.16.15.15 0 0 0-.15.16c0 .08.07.15.15.15zm1.51-.2c0 .09-.07.16-.15.16a.15.15 0 0 1-.16-.16c0-.08.07-.15.16-.15.08 0 .15.07.15.15zm.89-.04c.08 0 .15-.07.15-.16a.15.15 0 0 0-.15-.15.15.15 0 0 0-.16.15c0 .09.07.16.16.16z" fill="#F5F5F6"/><path d="M20.21 17.3a7.59 7.59 0 0 1 5.54-1.49l-.15.41c-2.95-.33-4.7 1.15-5.21 1.92-.22-.35-.2-.71-.18-.85z" fill="url(#fism1cyhf)"/><path d="M21 19.1c-.4-.43-.58-.93-.62-1.13a6.01 6.01 0 0 1 4.03-1.8c2-.05 3.22.78 3.57 1.2v1.28a7.72 7.72 0 0 0-3.24-.96A5.63 5.63 0 0 0 21 19.1z" fill="url(#gism1cyhf)"/><path d="M25.25 16.65l.6.03-.03.6-.6-.03.03-.6zm-1.58.06l.6-.05.04.6-.6.05-.04-.6zm3.65.46l-.57-.19-.18.58.57.18.18-.57zm-5.2.02l.55-.22.21.56-.55.22-.22-.56zm-.86.5l-.48.35.34.49.49-.35-.35-.49z" fill="#F5F5F6"/><path d="M23.69 26.43A15.72 15.72 0 0 0 21 19.08a6.05 6.05 0 0 1 3.63-1.39c1.32 0 2.9.64 3.53.96v17.07c-.54.24-2.1.67-4.04.53a8.94 8.94 0 0 1-4.22-1.52c1.41-1.28 4.14-4.74 3.79-8.3z" fill="url(#hism1cyhf)"/><path d="M25.3 25.6c.08-4.36-.7-7.1-1.09-7.92h.61c.65 1.15.78 5.76.77 7.92h-.3z" fill="url(#iism1cyhf)"/><path d="M24.6 31.06c-.56 2.2-1.6 4.19-2.06 4.9l.47.11a19.59 19.59 0 0 0 1.85-5h-.26z" fill="#323232"/><path d="M27.77 18.78c0 .14-.11.26-.25.26a.26.26 0 0 1-.26-.26c0-.14.12-.26.26-.26s.25.12.25.26zm.06 1.66c0 .15-.11.26-.25.26a.26.26 0 0 1-.26-.26c0-.14.12-.25.26-.25s.25.11.25.25zm-.31 2.03c.14 0 .25-.11.25-.26a.26.26 0 0 0-.25-.25.26.26 0 0 0-.26.25c0 .15.12.26.26.26zm0 1.51c0 .14-.12.26-.26.26a.26.26 0 0 1-.25-.26c0-.14.11-.26.25-.26s.26.12.26.26zM27 31.32c.14 0 .25-.11.25-.26a.26.26 0 0 0-.25-.26.26.26 0 0 0-.26.26c0 .15.12.26.26.26zm.31 1.75c0 .15-.11.26-.25.26a.26.26 0 0 1-.26-.26c0-.14.11-.25.26-.25.14 0 .25.11.25.25zm-.31 1.96c.14 0 .25-.12.25-.26a.26.26 0 0 0-.25-.26.26.26 0 0 0-.26.26c0 .14.12.26.26.26z" fill="#fff"/><path d="M27.5 24.3l.66-.7v6.9l-.65-.57V24.3z" fill="#B0AFAF"/><path d="M28.02 22a2.56 2.56 0 0 1-.55-1.48h.17c.2.94.47 1.15.57 1.22L28 22zM28.02 23.72a2.56 2.56 0 0 1-.55-1.47h.17c.2.94.47 1.15.57 1.22l-.2.25z" fill="#313131"/><path d="M28.05 25.36c-.39-.4-.79-.8-.81-1.2h.2c.33.68.7.94.86 1.04l.05.03-.18.25-.12-.12zm-.03 1.7c-.37-.37-.53-.54-.55-.93h.17c.27.55.41.6.5.65l.07.04-.2.25zm-.52.86c.02.4.28.68.65 1.06l.12-.28a.61.61 0 0 0-.04-.03c-.1-.07-.27-.17-.56-.75h-.17z" fill="#050708"/><path d="M25.97 38.26c-.46.07-.67.3-.71.42-.1-.5.37-.73.62-.79.05-.14-.23-.12-.38-.1 0-.28-.2-.4-.3-.43 0-.25.41-.5.61-.58-.06 0-.2-.06-.31-.3-.1-.24.39-.55.65-.67-.7 0-.98-.36-1.03-.54-.26-.05-.2-.28-.14-.38.84-.45 2.47.06 3.18.38.03.2.08.61 0 .62-.07 0-.2-.05-.25-.08-.34.53-1.25.87-1.67.97.15-.02.46-.01.5.17.03.19-.32.49-.5.62.4.02.3.6-.27.69z" fill="url(#jism1cyhf)"/><path d="M30.17 38.26c.46.07.66.3.7.42.1-.5-.37-.73-.61-.79-.06-.14.23-.12.38-.1 0-.28.2-.4.3-.43 0-.25-.42-.5-.62-.58.06 0 .21-.06.32-.3.1-.24-.4-.55-.66-.67.7 0 .99-.36 1.04-.54.25-.05.2-.28.14-.38-.85-.45-2.48.06-3.19.38-.03.2-.07.61 0 .62.07 0 .2-.05.26-.08.33.53 1.25.87 1.67.97-.16-.02-.47-.01-.5.17-.04.19.31.49.5.62-.4.02-.3.6.27.69z" fill="url(#kism1cyhf)"/><path d="M28.99 18.76c0 .14-.12.26-.26.26a.26.26 0 0 1-.25-.26c0-.14.11-.26.25-.26s.26.12.26.26zm.06 1.67c0 .14-.12.25-.26.25a.26.26 0 0 1-.26-.25c0-.15.12-.26.26-.26s.26.11.26.26zm-.32 2.02c.14 0 .26-.11.26-.26a.26.26 0 0 0-.26-.25.26.26 0 0 0-.25.25c0 .15.11.26.25.26zm.36 1.53c0 .14-.11.26-.25.26a.26.26 0 0 1-.26-.26c0-.14.12-.26.26-.26s.25.12.25.26zm-.15 7.32c.14 0 .25-.12.25-.26a.26.26 0 0 0-.25-.26.26.26 0 0 0-.26.26c0 .14.12.26.26.26zm.31 1.75c0 .15-.11.26-.25.26a.26.26 0 0 1-.26-.26c0-.14.12-.26.26-.26s.25.12.25.26zm-.31 1.96c.14 0 .25-.12.25-.26a.26.26 0 0 0-.25-.26.26.26 0 0 0-.26.26c0 .14.12.26.26.26z" fill="#fff"/><path d="M28.17 20c.31-.36.41-.88.42-1.1l.23.2a1.66 1.66 0 0 1-.65 1.27V20zm-.09 1.7a2.7 2.7 0 0 0 .53-1.26l.23.2a2.13 2.13 0 0 1-.76 1.44v-.38zm.49.51c-.02.22-.12.75-.43 1.1v.38c.2-.12.61-.55.66-1.28l-.23-.2z" fill="#323332"/><path d="M27.45 25.52l1.29-1.59.19.18c-.08.2-.4.6-.7.98.11.12.36.33.6.44v.4a2.7 2.7 0 0 1-.82-.6l.02-.02a3.5 3.5 0 0 1-.54.52l-.04-.31zm.03 1.78l1.38-1.24.19.17c-.08.2-.4.5-.73.8.13.11.32.26.49.35v.39a2.6 2.6 0 0 1-.71-.57c-.26.21-.5.38-.59.43l-.03-.33zm1.38.6l-.78.77.05.31c.24-.13.76-.5.92-.9l-.2-.17z" fill="#2D2D2D"/><path d="M47.16 21.65v-1l-.55-.6-1.46.37-.45.72.06 4.22.5.5 1.44-.42.46-.67v-2.8c0 .06-.93.29-1.39.4v1.11c.08 0 .35-.1.48-.15v1.17l-.6.15v-3.22c.2-.09.6-.24.6-.2v.82l.9-.4zm-5.54 5.14l-.08-5.41.95-.28.96 2.57V20.9l.83-.26.1 5.43-1.02.23-.87-2.55v2.78l-.87.26zm-1.35-5.13l.82-.21v5.4l-.82.29v-5.48zm-15.88 4l-.82.21v5.48l.82-.28v-5.4zM11.04 29.1l.82-.2v5.4l-.82.28V29.1zm-2.13.56v5.42l1.94-.48v-1.26l-1.07.36v-4.27l-.87.23zm23.2-5.9l-.83.2v5.49l.82-.28v-5.41zM12.26 28.8l.08 5.41.86-.25v-2.78l.88 2.54 1-.22-.08-5.44-.83.26v2.78l-.97-2.58-.94.28zm5.65.31v-1l-.54-.6-1.47.37-.45.72.06 4.22.5.5 1.44-.42.46-.67v-2.8c0 .06-.92.29-1.39.4v1.11c.08 0 .35-.1.48-.15v1.17l-.6.15v-3.22c.2-.08.6-.24.6-.2v.82l.91-.4zm17.04-5.34v1l-.91.4v-.82c0-.04-.4.12-.6.2v3.22l.6-.15v-1.17c-.13.05-.4.15-.48.15v-1.12c.47-.1 1.39-.32 1.39-.38v2.79l-.46.67-1.44.42-.5-.5-.06-4.22.45-.72 1.47-.38.54.61zm-16.69 3.52l2.1-.53v1.15l-1.11.35v.86l1.02-.3V30l-1.02.29v1.01l1.1-.33v1.19l-1.98.55-.1-5.41zm8.63-2.18l-2.1.53.12 5.42 1.98-.55v-1.2l-1.1.34v-1.01l1.02-.3v-1.16l-1.02.3v-.87l1.1-.34v-1.16zm1.9-.5l2.09-.54v1.16l-1.1.34v.86l1.02-.3v1.18l-1.03.28V29.77l-.88.25-.1-5.42zm-6.2 1.55c-.62.19-1.86.55-1.88.52v5.43l1-.26v-2.24l.48-.14v2.26l.91-.26.06-2.3-.39-.4.33-.5v-1.5l-.51-.6zm-1 1.38l.59-.16v.94l-.58.19v-.97zm13.69.83V23l.93-.25v1.9l.57-.17v-1.85l.88-.28v5.39l-.88.22v-2.2l-.57.14v2.2l-.93.27zm4.17-1.06v-4.26l.68-.21V21.7l-2.3.6v1.18l.69-.18v4.27l.93-.26z" fill="url(#lism1cyhf)"/><path fill-rule="evenodd" d="M46.83 27.48v-.6l-.31-.33-.88.28-.24.35v1.09l.86.45v.43l-.27.13v-.56l-.54.22v.78l.33.3.83-.3.27-.38V28.2l-.89-.5v-.31l.27-.1v.44l.57-.25zm-4.56.23l.06 3.2.56-.18V29.7l.58-.21.25-.37V27.7l-.29-.35-1.16.35zm.56.53l.32-.13v.79l-.32.12v-.78zm-5.74.73v3.25l.6-.17v-1.3l.32-.11v1.3l.57-.17v-3.13l-.57.16v1.01l-.32.13v-1.07l-.6.1zm-24.8 9.51v-3.25l.6-.1v1.08l.32-.13v-1.01l.56-.17v3.14l-.56.16v-1.3l-.33.1v1.31l-.6.17zm-1.66-2.38v.68l-.47.29v-.57l-.36.1v1.88l.36-.14v-.62l.53-.26v1.07l-.2.4-.89.3-.36-.37v-2.48l.2-.4.88-.27.31.39zm4.69 1.59l.38-3.25.81-.25.46 3.1-.62.16v-.63l-.38.1v.6l-.65.17zm.7-1.5l.08-.87.2.86h-.29zm2.48.68v-3.2l.77-.17.32 1.57.24-1.72.82-.23v3.22l-.5.14v-1.6l-.26 1.68-.55.13-.33-1.7v1.78l-.5.1zm3.87-.92l-.06-3.2 1.16-.36.29.35v1.41l-.25.37-.58.21v1.04l-.56.18zm.81-2.8l-.31.12v.78l.31-.11v-.8zm2.2-1.2l.53-.16v3.2l-.53.16v-3.2zm15.3-3.88l-.54.16v3.2l.54-.16v-3.2zM29 31.41l-.35-.33-.79.2-.31.47v2.46l.36.34.82-.25.27-.45v-2.44zm-.55.43v1.87l-.3.12v-1.86l.3-.13zm2.24 2v-3.27l.62-.17.48 1.45v-1.6l.54-.13v3.24l-.54.18c-.19-.52-.57-1.56-.57-1.51v1.61l-.53.2zm4.72-4.07v.6l-.57.25v-.44l-.27.1v.31l.9.5v1.14l-.28.39-.83.3-.33-.3v-.78l.54-.23v.56l.27-.12v-.44l-.86-.45v-1.09l.24-.35.88-.27.3.32z" fill="#EDEDED"/><path d="M28.3 40.19c-6.67-.11-7.92-2.76-7.96-2.85.86.75 2.6 2.14 7.95 2.3 4.28.14 7.1-1.48 7.98-2.3a9.6 9.6 0 0 1-7.98 2.85z" fill="#191A1A"/><path d="M28.16 44c-1.56-.97-5.17-4.63-5.21-4.72 4.33 1.45 8.87.68 10.58.07A50.14 50.14 0 0 1 28.16 44z" fill="url(#mism1cyhf)"/><path d="M28.18 43.38l-4.05-3.59c3.32.7 6.84.3 8.18 0l-4.13 3.59z" fill="url(#nism1cyhf)"/><path d="M25.16 39.56c0 .13-.1.23-.23.23a.23.23 0 0 1-.23-.23c0-.13.1-.23.23-.23.12 0 .23.1.23.23zm-.57.85c0 .13-.1.24-.23.24a.23.23 0 0 1-.23-.24c0-.12.1-.23.23-.23.12 0 .23.1.23.23zm1.23 1.55c.12 0 .23-.1.23-.24 0-.12-.1-.23-.23-.23s-.23.1-.23.23.1.24.23.24zm1.2-2.17c0 .13-.1.23-.23.23a.23.23 0 0 1-.22-.23c0-.13.1-.23.22-.23.13 0 .23.1.23.23zm1.5.32c.12 0 .22-.1.22-.23 0-.12-.1-.23-.23-.23a.23.23 0 1 0 0 .46zm-1.18 2.68c0 .13-.1.23-.23.23a.23.23 0 0 1-.23-.23c0-.13.1-.23.23-.23s.23.1.23.23zm1.82.32a.23.23 0 1 0 0-.46c-.13 0-.23.1-.23.23s.1.23.23.23zm1.56-1.3c0 .13-.1.24-.23.24a.23.23 0 0 1-.23-.23c0-.13.1-.23.23-.23s.23.1.23.23zm1.17-1.09c.12 0 .22-.1.22-.23s-.1-.23-.22-.23c-.13 0-.23.1-.23.23s.1.23.23.23zm.22-1.16c0 .13-.1.23-.22.23a.23.23 0 0 1-.23-.23c0-.13.1-.23.23-.23.12 0 .22.1.22.23zm-1.91.52c.13 0 .23-.1.23-.23s-.1-.23-.23-.23-.23.1-.23.23.1.23.23.23z" fill="#fff"/><defs><linearGradient id="aism1cyhf" x1="14.25" y1="25.78" x2="42.31" y2="26.61" gradientUnits="userSpaceOnUse"><stop stop-color="#D5D1CF"/><stop offset=".29" stop-color="#7F797D"/><stop offset=".51" stop-color="#F3F3F4"/><stop offset=".75" stop-color="#918B8D"/><stop offset="1" stop-color="#999496"/></linearGradient><linearGradient id="bism1cyhf" x1="30.65" y1="16.06" x2="35.75" y2="17.36" gradientUnits="userSpaceOnUse"><stop stop-color="#050708"/><stop offset=".7" stop-color="#2F3030"/></linearGradient><linearGradient id="cism1cyhf" x1="28.22" y1="17.61" x2="35.41" y2="18.41" gradientUnits="userSpaceOnUse"><stop stop-color="#111213"/><stop offset=".36" stop-color="#2C2D2D"/><stop offset="1" stop-color="#050708"/></linearGradient><linearGradient id="dism1cyhf" x1="34.01" y1="24.34" x2="28.04" y2="24.2" gradientUnits="userSpaceOnUse"><stop stop-color="#323232"/><stop offset=".35" stop-color="#0B0C0C"/><stop offset=".8" stop-color="#454646"/><stop offset="1" stop-color="#121313"/></linearGradient><linearGradient id="eism1cyhf" x1="30.62" y1="20.95" x2="31.37" y2="21.01" gradientUnits="userSpaceOnUse"><stop stop-color="#474848"/><stop offset="1" stop-color="#212323"/></linearGradient><linearGradient id="fism1cyhf" x1="25.55" y1="16.09" x2="20.45" y2="17.39" gradientUnits="userSpaceOnUse"><stop stop-color="#050708"/><stop offset=".7" stop-color="#2F3030"/></linearGradient><linearGradient id="gism1cyhf" x1="27.98" y1="17.64" x2="20.8" y2="18.43" gradientUnits="userSpaceOnUse"><stop stop-color="#111213"/><stop offset=".36" stop-color="#2C2D2D"/><stop offset="1" stop-color="#050708"/></linearGradient><linearGradient id="hism1cyhf" x1="22.19" y1="24.37" x2="28.16" y2="24.23" gradientUnits="userSpaceOnUse"><stop stop-color="#323232"/><stop offset=".35" stop-color="#0B0C0C"/><stop offset=".8" stop-color="#454646"/><stop offset="1" stop-color="#121313"/></linearGradient><linearGradient id="iism1cyhf" x1="25.59" y1="20.98" x2="24.84" y2="21.04" gradientUnits="userSpaceOnUse"><stop stop-color="#474848"/><stop offset="1" stop-color="#212323"/></linearGradient><linearGradient id="jism1cyhf" x1="25.22" y1="36.69" x2="27.77" y2="36.69" gradientUnits="userSpaceOnUse"><stop offset=".15" stop-color="#313131"/><stop offset="1" stop-color="#050708"/></linearGradient><linearGradient id="kism1cyhf" x1="30.91" y1="36.69" x2="28.36" y2="36.69" gradientUnits="userSpaceOnUse"><stop offset=".15" stop-color="#313131"/><stop offset="1" stop-color="#050708"/></linearGradient><linearGradient id="lism1cyhf" x1="26.25" y1="24.93" x2="27.53" y2="30" gradientUnits="userSpaceOnUse"><stop stop-color="#ED1C24"/><stop offset=".54" stop-color="#F4B9A3"/><stop offset=".82" stop-color="#F5F4F3"/><stop offset="1" stop-color="#8D868A"/></linearGradient><linearGradient id="mism1cyhf" x1="25.07" y1="40.98" x2="31.34" y2="42" gradientUnits="userSpaceOnUse"><stop stop-color="#050708"/><stop offset="1" stop-color="#323332"/></linearGradient><linearGradient id="nism1cyhf" x1="28.22" y1="40.57" x2="28.22" y2="42.95" gradientUnits="userSpaceOnUse"><stop stop-color="#2C2C2C"/><stop offset="1" stop-color="#0B0D0D"/></linearGradient></defs></svg>