<!-- by TradeStack --><svg viewBox="0 0 56 56" xmlns="http://www.w3.org/2000/svg"><path fill="#F0F3FA" d="M0 0h56v56H0z"/><path fill-rule="evenodd" d="M28 45a17 17 0 1 0 0-34 17 17 0 0 0 0 34Zm-8-22h-2v10h2v-4.5h2V33h2V23h-2v4h-2v-4Zm5 0h2.57c1.74 0 3.31.68 3.31 2.6 0 .98-.64 1.84-1.67 2.03C30.47 27.81 31 28.82 31 30c0 1.86-1.13 3-2.97 3H25V23Zm2 8.5h.64c.98 0 1.36-.58 1.36-1.5 0-.96-.36-1.5-1.4-1.5H27v3Zm0-4.5h.58c.93 0 1.3-.45 1.3-1.36 0-.9-.6-1.14-1.44-1.14H27V27Zm5 2.63c0 1.86.75 3.37 2.79 3.37.74 0 1.39-.33 1.7-1.02l.13 1.02H38v-5h-2.98v1H36v1.1c0 .67-.07 1.46-.9 1.46-.81 0-1.1-.71-1.1-1.4v-4.31c0-.66.23-1.43 1.04-1.43.8 0 .96.66.96 1.3v.7h1.97v-.57c0-1.86-1.12-2.85-2.95-2.85-2.13 0-3.02 1.37-3.02 3.38v3.25Z" fill="#013A65"/></svg>