<!-- by TradeStack --><svg viewBox="0 0 56 56" xmlns="http://www.w3.org/2000/svg"><path fill="#F0F3FA" d="M0 0h56v56H0z"/><path d="M28 11.35a16.66 16.66 0 0 0 0 33.3 16.66 16.66 0 0 0 0-33.3ZM28 45a16.99 16.99 0 1 1 0-34c9.4 0 17 7.6 17 17 .07 9.34-7.6 17-17 17Z" fill="#14133B"/><path d="M25.6 25.32c0 2.05-1.62 2.68-4.85 2.68v-.07c1.62 0 2.9-.85 2.9-2.6 0-1.7-1.28-2.4-2.83-2.4v-.07c1.75 0 2.49-.85 2.49-2.47 0-1.69-.88-2.25-2.56-2.25v-.07c2.9 0 4.51.5 4.51 2.4 0 1.47-1.34 2.39-3.36 2.53 2.08-.07 3.7.56 3.7 2.32ZM16.91 18H20v10h-3.09v-.07c.88 0 1.09-.35 1.09-.78v-8.3c0-.36-.21-.78-1.09-.85ZM30.74 24.06c1.57 0 2.6-1.13 2.6-3.1 0-1.9-1.03-2.89-2.6-2.89V18c2.8 0 4.6.63 4.6 2.96 0 2.4-1.86 3.17-4.6 3.1ZM26.9 28c.9 0 1.1-.42 1.1-.85v-8.3c0-.43-.2-.78-1.1-.78V18H30v9.15c0 .43.19.78 1.08.78V28H26.9ZM38 29.84v8.25c0 .42.14.77 1.03.77V39h-4.18v-.14c.9 0 1.15-.35 1.15-.77V29h3.03v.07c-.82 0-1.03.35-1.03.77ZM29.23 39h-3.08v-.14c.89 0 1.37-.56 1.37-1.12l.14-6.5.13.28.14 6.22c-.07.63.34 1.26 1.3 1.26Zm6.17-7.76L32.04 39h-.2l-4.25-9.16c-.2-.49-.76-.7-1.44-.7V29h3.29l3.42 7.34 2.54-5.31v.2Z" fill="#14133B"/></svg>