<?xml version='1.0' encoding='utf-8'?>
<!-- by TradeStack -->
<svg width="56" height="56" viewBox="0 0 56 56" xmlns="http://www.w3.org/2000/svg"><path fill="#F0F3FA" d="M0 0h56v56H0z" /><circle cx="14.16" cy="22.03" r="1.22" fill="#49A385" /><path d="M17.81 18.71a1.71 1.71 0 0 1-1.8 1.71c-.36 0-.59-.08-.84-.17-.2-.07-.4-.14-.7-.2a2.2 2.2 0 0 0-2.03.63c-.7.64-.66 1.57-.43 2.32.19.6.83 1.04 1.13 1.18a1.21 1.21 0 1 1-1.48.71c.12-.3.3-1.09 0-1.79a1.8 1.8 0 0 0-1.3-.98 1.35 1.35 0 1 1 1.02-2.26c.79.41 1.15.25 1.66.02l.18-.08c.26-.12.59-.63.71-.84l.6-.95a1.71 1.71 0 0 1 3.28.7Z" fill="#6A8CC4" /><path d="M5 22v11h2.43A3.59 3.59 0 0 0 11 29.11c0-3.14-3.31-3.66-5-3.54V22H5Zm1 4.06c1.3-.12 3.93.35 4 3.12.09 3.47-3.32 3.42-4 3.2v-6.32ZM12 27h1v6h-1zM44 27h1v6h-1z" fill="#49A385" /><path fill-rule="evenodd" d="M17 33a3 3 0 1 0 0-6 3 3 0 0 0 0 6Zm0-.53c1.1 0 2-1.1 2-2.47 0-1.36-.9-2.47-2-2.47s-2 1.1-2 2.47c0 1.36.9 2.47 2 2.47Z" fill="#49A385" /><path d="M21 27v9h1v-3.84c.15.17.75.51 1.58.54 1.47.05 2.42-1.5 2.42-3s-.9-2.7-2.32-2.7c-.4.01-1.37.17-1.68.74V27h-1Zm1 1.37c.13-.2.59-.59 1.33-.55.93.05 1.7.8 1.67 2.03-.04 1.24-.67 2.1-1.67 2.16-.8.06-1.22-.44-1.33-.7v-2.94ZM27 33V21h1v7.04c.57-.69 1.8-1.03 2.24-1.04 1.44-.07 1.77 1.29 1.76 1.9V35h-1v-5.78c-.02-.65-.3-1.35-1.21-1.4a2.72 2.72 0 0 0-1.79.71V33h-1ZM35.27 31.87 33.1 27h1.25l1.48 3.54L37.3 27h.88l-3.67 9h-.86l1.63-4.13Z" fill="#49A385" /><circle cx="44.5" cy="25.68" r=".68" fill="#49A385" /><path d="M40 27v-1h1v1h1.4v.7H41v3.98c0 .7.59.7.89.62l.17.55c-.35.15-.86.16-1.07.15-.94-.1-1-.92-.99-1.32V27.7h-1V27h1ZM49.01 27a2 2 0 0 1 1.85 1.13l-.5.48c-.25-.43-.77-1-1.35-1.07-.57-.06-1.02.31-1 .6.03.27-.01.61 1.18 1.16 1.18.54 1.8 1.08 1.81 2.01.01.94-.7 1.66-1.99 1.69A2.48 2.48 0 0 1 47 31.89l.53-.58c.27.5.91 1.13 1.48 1.1.58-.03.95-.38.99-.72.04-.35-.3-.85-1.13-1.08-.83-.23-1.73-.9-1.73-1.86 0-.95.57-1.7 1.87-1.75Z" fill="#49A385" /></svg>