<!-- by TradeStack --><svg width="56" height="56" viewBox="0 0 56 56" xmlns="http://www.w3.org/2000/svg"><path fill="#F0F3FA" d="M0 0h56v56H0z"/><path d="M8.5 18A2.54 2.54 0 0 0 6 20.57V30a7 7 0 1 0 5-6.71v-2.72A2.54 2.54 0 0 0 8.5 18ZM15 30a2 2 0 1 1-4 0 2 2 0 0 1 4 0Z" fill="#FC5200"/><path fill-rule="evenodd" d="M24.5 36a5.5 5.5 0 1 0 0-11 5.5 5.5 0 0 0 0 11Zm0-4a1.5 1.5 0 1 0 0-3 1.5 1.5 0 0 0 0 3Z" fill="#F9AD32"/><path fill-rule="evenodd" d="M35 32.66A5.99 5.99 0 1 1 39 27v6.74c0 1.25-.9 2.26-2 2.26s-2-1.01-2-2.26v-1.08ZM35 27a2 2 0 1 1-4 0 2 2 0 0 1 4 0Z" fill="#97C939"/><path d="M45 23a2 2 0 1 1-4 0 2 2 0 0 1 4 0Zm-2 3c-1.1 0-2 .85-2 1.9v6.2c0 1.05.9 1.9 2 1.9s2-.85 2-1.9v-6.2c0-1.05-.9-1.9-2-1.9Zm5 0c-1.1 0-2 .85-2 1.9v6.2c0 1.05.9 1.9 2 1.9s2-.85 2-1.9v-6.2c0-1.05-.9-1.9-2-1.9Zm0-1a2 2 0 1 0 0-4 2 2 0 0 0 0 4Z" fill="#53B3FF"/></svg>