<!-- by TradeStack --><svg width="56" height="56" viewBox="0 0 56 56" xmlns="http://www.w3.org/2000/svg"><path fill="#F0F3FA" d="M0 0h56v56H0z"/><path d="M34.93 34c.05.18.07.4.07.63.4-.41.71-.63 1.3-.63 1.23 0 1.95 1.07 1.95 2.23 0 1.2-.72 2.36-2.04 2.36-.63 0-.85-.17-1.21-.56v1.42c0 .7 0 1.25.69 1.25v.3h-2.44v-.3h.14c.64 0 .61-.5.61-1.02v-4.33c0-.51-.05-.77-.6-.77h-.15v-.32A12.7 12.7 0 0 0 34.7 34h.23Zm.07 3.57c.4.46.59.64 1.04.64 1.08 0 1.28-1.17 1.28-2.02 0-1.2-.42-1.8-1.25-1.8-.46 0-.7.23-1.07.67v2.5ZM30 37.24c0 .7 0 1.4.71 1.4h.3V39H28v-.36c.81 0 1-.57 1-1.4v-1.2c0-.29 0-1.24-.29-1.31a5.43 5.43 0 0 0-.71-.04v-.35c.51-.07 1.27-.28 1.78-.34.11.32.22.55.22 1 .23-.55.57-1 1.18-1 .42 0 .82.31.82.76 0 .3-.16.5-.37.5a.5.5 0 0 1-.28-.06c-.17-.12-.18-.36-.35-.48-.74 0-1 .86-1 1.47v1.05ZM22 35.97v2.69h-.4a2.01 2.01 0 0 0-.35-.76c-.68.8-1.48 1.1-2.52 1.1-2.2 0-3.73-1.7-3.73-3.86 0-2.18 1.4-4.14 3.71-4.14 1.12 0 1.96.36 2.54 1.08.2-.4.3-.71.34-.93H22v2.93h-.4a3.37 3.37 0 0 0-.89-1.97 2.4 2.4 0 0 0-1.75-.68C17 31.43 16 33.46 16 35.1c0 1.62 1 3.4 3.02 3.43 1.47 0 2.43-1.17 2.59-2.56H22ZM48 24v2.36c0 .5 0 1.16.54 1.16.3 0 .6-.23.75-.46l.21.16a1.4 1.4 0 0 1-1.32.78c-.96 0-1.18-.72-1.18-1.57V24h-.63v-.35c.67-.14 1.17-1.02 1.34-1.65H48v1.58h1V24h-1ZM43 26.4h.3c.05.22.13.43.25.61.25.38.6.6 1.02.6.42 0 .8-.25.8-.7 0-.61-.63-.87-1.09-1.1-.63-.34-1.27-.74-1.27-1.54 0-.72.5-1.27 1.23-1.27.39 0 .73.17 1.03.5.05-.07.1-.2.15-.43h.29v1.48h-.29a1.76 1.76 0 0 0-.44-.84.94.94 0 0 0-.69-.32c-.48 0-.71.26-.71.6 0 .55.64.79 1.06.98.7.31 1.36.77 1.36 1.61 0 .82-.57 1.42-1.39 1.42-.48 0-.82-.2-1.14-.54-.09.1-.15.26-.17.5H43V26.4ZM38.02 25l-.02.35c0 1.53.8 2.23 1.9 2.23.73 0 1.27-.27 1.6-.91h.5c-.26.92-1.4 1.33-2.26 1.33-1.43 0-2.74-.97-2.74-2.48 0-1.49 1.24-2.52 2.68-2.52 1.09 0 2.27.81 2.3 2h-3.96Zm2.96-.44a.91.91 0 0 0 .02-.22c0-.63-.8-1.01-1.4-1.01-.73 0-1.42.4-1.55 1.23h2.93ZM36 26.1c0 .58.01.92.04 1.04s.09.2.17.24c.08.04.5.06.79.06v.36c-.62 0-1.34.07-1.6.2h-.2c-.13-.25-.2-.62-.2-1.1-.38.7-.86 1.1-1.4 1.1-.99 0-1.6-.56-1.6-1.56v-1.7c0-.81.12-1.4-.81-1.4V23H33v3.25c0 .68.17 1.23.94 1.23.72 0 1.06-1.1 1.06-1.68v-1.05c0-.35 0-1.29-.36-1.37-.1-.02-.22-.03-.47-.03V23H36v3.1Z"/><path d="M25.78 29.18h.26c.48 0 .95.04 1.43.13.87.18 1.7.55 2.57.7.22.04.42.06.6.06.56 0 .91-.24 1.04-.72H32c-.07.5-.28.91-.62 1.2-.35.3-.79.45-1.33.45-1.3 0-2.17-.95-3.33-1.35a2.68 2.68 0 0 0-1.28-.14c-.42.09-.78.49-1.2.49-.16 0-.24-.07-.24-.2 0-.14.06-.18.3-.32L26.32 28l-.38.01A3.94 3.94 0 0 1 22 23.98 4.04 4.04 0 0 1 26 20c2.3 0 4 1.74 4 4 0 2.59-2.32 4.12-4.22 5.18ZM23 24c0 2.25 1.19 3.6 2.97 3.6 1.85 0 3.03-1.93 3.03-3.59 0-1.68-1.08-3.6-2.97-3.6-1.53 0-3.03.91-3.03 3.59Z" fill="url(#azcwjqxfi)"/><path d="M16 25.48c0-1.4 1.1-2.48 2.5-2.48s2.5 1.08 2.5 2.5c0 1.43-1.07 2.5-2.5 2.5a2.44 2.44 0 0 1-2.5-2.52Zm1 .03c0 1 .32 2.06 1.5 2.06 1.19 0 1.5-1.04 1.5-2.05 0-1-.3-2.09-1.5-2.09S17 24.51 17 25.51ZM23 36.48c0-1.4 1.1-2.48 2.5-2.48s2.5 1.08 2.5 2.5c0 1.43-1.07 2.5-2.5 2.5a2.44 2.44 0 0 1-2.5-2.52Zm1 .03c0 1 .32 2.06 1.5 2.06 1.19 0 1.5-1.04 1.5-2.05 0-1-.3-2.09-1.5-2.09S24 35.51 24 36.51ZM15 26.23v.68c0 .65.43.73 1 .73V28h-3v-.36c.75 0 1-.14 1-.93V25c0-.4-.01-.68-.03-.82-.04-.28-.04-.42-.23-.48a3.5 3.5 0 0 0-.74-.05v-.35c.2 0 .47-.04.83-.1.37-.07.62-.14.9-.21H15v3.25ZM14.14 21.15a.5.5 0 0 0 .37.85.48.48 0 0 0 .5-.5.5.5 0 0 0-.15-.35.45.45 0 0 0-.35-.15.49.49 0 0 0-.37.15ZM6 28v-.4c.7 0 .97-.06 1-.85l.02-.92V22.2c0-.38-.02-1.7-.37-1.66-.1-.04-.18-.06-.57-.06v-.4c.9-.05 1.74-.08 2.52-.08h.25c1.21 0 2.65.43 2.65 1.9 0 1-.63 1.64-2.04 1.84 1.23.08 2.54.7 2.54 2.09C12 27.39 10.67 28 9.27 28H6Zm2-2.44.01 1.09c.02.63.4.93 1.07.93 1.1 0 1.92-.52 1.92-1.75 0-1.37-1.08-1.84-2.37-1.84L8 24v1.56Zm0-2h.51c1.14 0 1.99-.42 1.99-1.6 0-1.01-.6-1.55-1.62-1.56-.2 0-.64.01-.88.03v3.12Z"/><defs><linearGradient id="azcwjqxfi" x1="21.98" y1="23.05" x2="31.19" y2="30.6" gradientUnits="userSpaceOnUse"><stop offset=".12" stop-color="#B29715"/><stop offset=".29" stop-color="#DBC471"/><stop offset=".44" stop-color="#D0A613"/><stop offset=".53" stop-color="#F1D964"/><stop offset=".63" stop-color="#DABD4E"/><stop offset=".8" stop-color="#F9E67D"/><stop offset=".96" stop-color="#CA9819"/></linearGradient></defs></svg>