<!-- by TradeStack --><svg width="56" height="56" viewBox="0 0 56 56" xmlns="http://www.w3.org/2000/svg"><path fill="#F0F3FA" d="M0 0h56v56H0z"/><path d="M33.02 19.47c-.55 0-.95-.52-.95-1.07a4.2 4.2 0 0 0-4.11-4.27 4.2 4.2 0 0 0-4.12 4.27c0 .55-.4 1.07-.94 1.07h-.19c-.48 0-.9-.35-.92-.84v-.23c0-3.53 2.76-6.4 6.17-6.4a6.29 6.29 0 0 1 6.17 6.63c-.02.49-.44.84-.92.84h-.19Z" fill="#DF5F1A"/><path d="M25.54 18.12c-.37.39-1 .3-1.37-.09a4.01 4.01 0 0 0-5.82 0 4.38 4.38 0 0 0 0 6.04c.37.38.45 1.03.08 1.42l-.16.17c-.34.35-.88.4-1.23.06l-.15-.14a6.57 6.57 0 0 1 0-9.05 6.02 6.02 0 0 1 8.87.15c.33.36.28.92-.06 1.27l-.16.17Z" fill="#21A7CA"/><path d="M24.73 15.76a4.33 4.33 0 0 0-.84 2.01 4.03 4.03 0 0 0-1.92-.92c.17-.72.46-1.4.85-2 .67.19 1.32.49 1.9.9Z" fill="#1C8FBC"/><path d="M19.2 22.25c0 .54-.5.94-1.03.94a4.2 4.2 0 0 0-4.11 4.27 4.2 4.2 0 0 0 4.11 4.26c.53 0 1.03.4 1.03.95v.24c0 .5-.35.93-.83.94h-.2a6.29 6.29 0 0 1-6.17-6.4 6.29 6.29 0 0 1 6.37-6.39c.48.02.83.45.83.95v.24Z" fill="#259D33"/><path d="M15.77 23.99a6.55 6.55 0 0 1-.63-2.1 5.99 5.99 0 0 1 2-.74c.02.71.2 1.43.57 2.07a4 4 0 0 0-1.94.77Z" fill="#1A8324"/><path d="M25.04 36.9c-.37-.39-1-.3-1.37.08a4.01 4.01 0 0 1-5.82 0 4.38 4.38 0 0 1 0-6.03c.37-.39.46-1.04.08-1.42l-.16-.17c-.34-.35-.88-.4-1.23-.06l-.15.14a6.57 6.57 0 0 0 0 9.05 6.02 6.02 0 0 0 8.87-.15c.33-.36.28-.92-.06-1.27l-.16-.17Z" fill="#FAB006"/><path d="M16.65 33.66c-.7-.18-1.36-.5-1.95-.91.13-.72.39-1.43.77-2.08.51.47 1.15.8 1.84.96-.39.62-.6 1.32-.66 2.03Z" fill="#F0990B"/><path d="M32.98 36.53c-.52 0-.9.52-.9 1.07a4.2 4.2 0 0 1-4.12 4.27 4.2 4.2 0 0 1-4.12-4.27c0-.55-.38-1.07-.9-1.07h-.23a.9.9 0 0 0-.92.86v.21c0 3.53 2.76 6.4 6.17 6.4a6.29 6.29 0 0 0 6.17-6.6.9.9 0 0 0-.92-.87h-.23Z" fill="#DE6014"/><path d="M24.18 39.3a4.39 4.39 0 0 1-.34-1.7c0-.22-.06-.44-.17-.61-.54.55-1.18.92-1.86 1.1.05.74.22 1.43.5 2.07.65-.17 1.29-.46 1.87-.87Z" fill="#D8460D"/><path d="M30.96 37.45c.37-.39 1-.3 1.37.08a4.01 4.01 0 0 0 5.82 0 4.38 4.38 0 0 0 0-6.03c-.37-.39-.46-1.04-.08-1.42l.16-.17c.34-.35.88-.4 1.23-.06l.15.14a6.57 6.57 0 0 1 0 9.05 6.02 6.02 0 0 1-8.87-.15c-.33-.36-.28-.92.06-1.28l.16-.16Z" fill="#24A9C9"/><path d="M33.4 40.63a6.05 6.05 0 0 1-1.84-.97c.33-.61.51-1.31.51-2.06 0-.08.01-.17.03-.25.08.05.16.11.23.18.5.52 1.1.88 1.73 1.07-.11.72-.34 1.4-.66 2.03Z" fill="#1A92B5"/><path d="M36.8 22.8c0 .54.5.94 1.03.94a4.2 4.2 0 0 1 4.11 4.27 4.2 4.2 0 0 1-4.11 4.26c-.53 0-1.03.4-1.03.95v.23c0 .5.35.94.83.95h.2c3.4 0 6.17-2.86 6.17-6.4a6.29 6.29 0 0 0-6.37-6.39c-.48.02-.83.45-.83.95v.24Z" fill="#279B38"/><path d="M41.3 33.3a6.51 6.51 0 0 0-.77-2.08c-.51.47-1.15.8-1.84.96.39.62.6 1.32.66 2.03.7-.18 1.36-.5 1.95-.91Z" fill="#1E821D"/><path d="M30.46 18.67c.37.39 1 .3 1.37-.09a4.01 4.01 0 0 1 5.82 0 4.38 4.38 0 0 1 0 6.04c-.37.38-.45 1.03-.08 1.42l.16.17c.34.35.88.4 1.23.06l.15-.14a6.57 6.57 0 0 0 0-9.06 6.02 6.02 0 0 0-8.87.15c-.33.37-.28.93.06 1.28l.16.17Z" fill="#F8B106"/><path d="M33.39 15.35c.33.63.55 1.32.67 2.04-.72.13-1.4.45-1.99.96 0-.8-.22-1.54-.6-2.18.6-.39 1.25-.66 1.92-.82Z" fill="#DA4411"/><path d="M40.86 22.43a5.99 5.99 0 0 0-2-.74c-.02.72-.2 1.44-.57 2.08a4 4 0 0 1 1.94.77c.33-.67.54-1.38.63-2.1Z" fill="#F69B06"/></svg>