<!-- by TradeStack --><svg width="56" height="56" viewBox="0 0 56 56" xmlns="http://www.w3.org/2000/svg"><path fill="#F0F3FA" d="M0 0h56v56H0z"/><path d="m18.5 35.5-3.25-1.93L14 40.43 17.76 43h17.55c1.68 0 2.37-1.71 2.51-2.57L39.5 29.7l-2.09-1.28 2.93-2.14L42 16l-4-3H22.36a3.72 3.72 0 0 0-3.76 3l-2.93 16.71 11.29 6.86L31.13 37l2.1-13.29-2.1-1.71 2.1-1.29.41-3.71h-5.43c-1.67 0-2.65 2.57-2.93 3.71L23.2 32.3 26.12 34l2.5-14.14 2.51-1.72-.83 4.29-2.1 1.28L29.89 25 27.8 36.57 19 31l3-15h17l-2.43 12.86-2.1 1.28 1.68.86-1.67 9H17.5l1-4.5Z"/></svg>