<!-- by TradeStack --><svg width="56" height="56" viewBox="0 0 56 56" xmlns="http://www.w3.org/2000/svg"><path fill="#F0F3FA" d="M0 0h56v56H0z"/><path d="M44.81 21.65c.89-1.05 1.91-2.59 2.05-3.98.22-2.08-2.27-1.8-3.51-1.36-2.03.73-4.08 1.4-6.16 2-1.22.35-2.49.61-3.8.77-4.79.58-8.64 4.28-9.3 8.8a13.9 13.9 0 0 0 3.13 11.09c.09.1.17.1.26 0 3.22-3.62 7.04-7.4 11.46-11.33 2.15-1.91 4.1-3.9 5.87-5.99Zm-20.16 16.9c.29.11.57.22.85.35.36.18.73.34 1.09.48.24.1.28.05.1-.15a14.05 14.05 0 0 1-3.81-9.88c.16-4.2 2.14-7.45 5.96-9.73.2-.12.18-.2-.05-.22-1.43-.17-2.9-.5-4.42-.96-2.6-.81-5.3-1.63-8-2a16.85 16.85 0 0 0-3.52-.18c-3.36.25-4.03 3.47-3.43 6.18 1.54 6.94 8.04 12.8 14.44 15.8.26.12.53.22.8.32Z" fill="url(#aiweaml3i)"/><path d="M26.34 17.6c3.65-.88 7.28-1.09 10.9-.63.11.01.2.06.26.14l.03.08a.16.16 0 0 1-.06.14 51.36 51.36 0 0 1-5.67.98c-1.8.21-3.62.05-5.46-.48-.28-.08-.28-.16 0-.23ZM41.33 35.53A36.55 36.55 0 0 1 26.63 43c-.07.02-.12 0-.15-.08l-.03-.08v-.07a.1.1 0 0 1 .06-.04 35.67 35.67 0 0 0 12.61-7.3c2.7-2.43 4.9-5.88 3.72-9.48a.74.74 0 0 1 .17-.75l2.65-2.75c.13-.14.24-.13.34.03 1.28 2.2 1.33 4.54.16 7.01a18.26 18.26 0 0 1-4.83 6.05ZM13.22 32.87a5.47 5.47 0 0 0 1.55 4.19c2.2 2.45 5.36 3.59 8.7 3.8.06 0 .08.03.08.08v.08c0 .07-.04.1-.1.1-3.96.08-7.4-.85-10.33-2.8a9.08 9.08 0 0 1-3.96-5.24c-.4-1.66-.06-3.42 1.01-5.3a.2.2 0 0 1 .08-.08.21.21 0 0 1 .28.07c.7 1.17 1.48 2.27 2.35 3.32.48.58.4 1.11.34 1.78Z" fill="#BABABA"/><defs><linearGradient id="aiweaml3i" x1="28.05" y1="16" x2="28.05" y2="39.43" gradientUnits="userSpaceOnUse"><stop offset=".01" stop-color="#248913"/><stop offset=".44" stop-color="#409631"/><stop offset="1" stop-color="#99C98D"/></linearGradient></defs></svg>