<?xml version='1.0' encoding='utf-8'?>
<!-- by TradeStack -->
<svg width="56" height="56" viewBox="0 0 56 56" xmlns="http://www.w3.org/2000/svg"><path fill="#9B952D" d="M0 0h56v56H0z" /><path fill-rule="evenodd" d="M26.83 27.94c-.13-.13-.1-.2.08-.23 3.5-.48 7.08-2.62 5.36-6.66a5.37 5.37 0 0 0-2.43-2.32.19.19 0 0 1-.1-.16.2.2 0 0 1 .1-.17c1.43-.81 2.97-.83 4.57-.85 1.8-.03 3.7.1 5.41.65a.26.26 0 0 1 .07.46c-2.41 1.7-4.82 3.62-6.3 6.18a86.93 86.93 0 0 0-2.8 5.17 39.6 39.6 0 0 1-2.6 4.53c-1.3 1.96-3.15 3.92-5.62 4.12-.17.01-.05.34.1.34 2.34.03 4.46-.65 6.35-2.03a16.46 16.46 0 0 0 5.16-6.02c1.35-2.7 2.73-5.24 4.13-7.63.8-1.36 1.83-2.91 2.76-4.21.05-.07.13-.11.21-.11.08 0 .15.03.2.09a4.22 4.22 0 0 1 .92 3.66 5.73 5.73 0 0 1-2.4 3.68c-.97.67-2.18.65-3.3.74-.2.02-.36.41-.13.42 1.93.06 2 1.65 1.3 3.02-.48.96-1.06 1.94-1.5 2.93a4.33 4.33 0 0 0-.37 1.72c-.01 1.72 1.19 2.73 2.87 2.74 2.04.01 3.76-1.35 5.09-2.76.03-.04.04-.07.04-.1 0-.08-.13-.14-.26-.14-.08 0-.15.02-.2.06-.63.72-2.04 1.94-2.98 1.94-.63-.02-.83-.86-.7-1.34.46-1.6 1.1-2.78 1.16-4.46.06-1.5-1.1-2.84-2.47-3.4-.15-.07-.15-.14 0-.2 1.1-.23 2.7-.31 3.85-.67 1.78-.56 3.45-2.04 3.5-3.95.03-1.56-.15-2.66-1.45-3.72-.5-.4-1.02-.73-1.56-1-.19-.09-.18-.17 0-.25a5.57 5.57 0 0 1 2.91-.53c.14.02.2-.1.2-.2 0-.14-.08-.28-.22-.28-1.3-.02-2.52.24-3.67.57-.46.13-.94.15-1.44.07-1.88-.3-4.1-.63-6.26-.64-1.82-.01-3.6.2-5.11.81-.4.16-.77.31-1.24.2-2.49-.55-4.91-.7-7.28-.42-5.11.59-11.04 3.3-12.6 8.45-.27.92-.25 2.81.14 3.7a4 4 0 0 0 3.63 2.6 6 6 0 0 0 3.98-1.27.2.2 0 0 0 .07-.15c0-.13-.1-.26-.26-.18C13.57 31.76 11 31 11 28.56c0-6.06 5.91-10.51 12.06-10.54 1.25-.01 2.44.1 3.63.43.47.14.49.31.05.52-1.83.88-3.37 2.55-4.56 4.13-.72.95-1.36 1.95-1.94 3-1.06 1.96-2.2 4.04-3.43 6.25-.9 1.62-3.02 4.77-5.07 5.04l-1.29.18c-.12.01-.1.13-.08.22.03.15.08.21.28.21 1.7 0 3.25-.44 4.6-.95.4-.16.78-.37 1.16-.64.13-.1.23-.07.3.07.63 1.18 1.98 1.49 3.29 1.52 1.43.03 2.92-.3 4.28-.86 2.19-.9 4.24-3.34 4.3-5.8a4.23 4.23 0 0 0-.42-2c-.29-.58-.86-.96-1.33-1.4Zm-3.1.24c-.06-.04-.08-.1-.07-.17a.18.18 0 0 1 .14-.14 11.4 11.4 0 0 0 3.02-1.1c2.45-1.22 3.4-4.75 1.84-6.96a.23.23 0 0 0-.35-.02 14.6 14.6 0 0 0-2.32 3.03 212 212 0 0 0-4.14 7.54 22.83 22.83 0 0 1-2.65 3.9c-.9 1.1-.68 3.2 1.05 3.22.74 0 1.55-.27 2.02-.74A8.52 8.52 0 0 0 25 30.66c0-1.04-.33-1.9-1.26-2.48Z" fill="#01050A" /></svg>