<!-- by TradeStack --><svg viewBox="0 0 56 56" xmlns="http://www.w3.org/2000/svg"><path fill="#F0F3FA" d="M0 0h56v56H0z"/><path d="M21.55 24v-2h-2.34c-3.75 0-7.04 4.11-8.21 6 1.37 1.89 5.28 5 9.5 5s6.33-1.22 6.91-2.17l-1.17-1.7c-.58.76-2.46 1.87-5.74 1.87-3.28 0-6.22-1.87-7-3 1.88-2.27 4.73-3.81 5.7-4h2.35Z" fill="url(#a)"/><path d="M25.07 28 23 29.7V18.93c0-4.08 3.24-6.99 5-7.93 4.22 2.72 5 6.42 5 7.93v2.84c0 2.26-2.07 5.1-3.24 6.23C32.1 29.36 33 33.1 33 34.8v2.27c0 4.08-3.44 6.99-5 7.93-2.34-1.7-5-4.53-5-6.8v-3.4l2-1.13v4.53c.59 1.7 1.83 3.92 3 4.3 2.34-1.7 3-4.68 3-5.43V34.8c0-3.63-2.8-6.04-4.17-6.8l1.76-2.27C30.34 23.47 31 21.77 31 21.2v-2.27c0-2.26-2.02-4.36-3-4.93-2.34 1.36-2.93 4.74-2.93 6.07V28Z" fill="url(#b)"/><path d="M36.8 24h-2.94l1.17-2h1.76c3.75 0 7.04 4.11 8.21 6-2.34 4.53-6.24 6-8 6a6.3 6.3 0 0 1-3.14-1l-.36-2c.94.45 2.91 1 3.5 1 2.34 0 4.52-2.87 5.5-4-2.34-2.72-4.73-4-5.7-4Z" fill="url(#c)"/><defs><linearGradient id="a" x1="30.34" y1="14.97" x2="22.05" y2="35.57" gradientUnits="userSpaceOnUse"><stop stop-color="#3C6CCE"/><stop offset="1" stop-color="#35568C"/></linearGradient><linearGradient id="b" x1="30.34" y1="14.97" x2="22.05" y2="35.57" gradientUnits="userSpaceOnUse"><stop stop-color="#3C6CCE"/><stop offset="1" stop-color="#35568C"/></linearGradient><linearGradient id="c" x1="30.34" y1="14.97" x2="22.05" y2="35.57" gradientUnits="userSpaceOnUse"><stop stop-color="#3C6CCE"/><stop offset="1" stop-color="#35568C"/></linearGradient></defs></svg>