<!-- by TradeStack --><svg width="56" height="56" viewBox="0 0 56 56" xmlns="http://www.w3.org/2000/svg"><path fill="#F0F3FA" d="M0 0h56v56H0z"/><path d="M15 33v10l8-10h-8ZM33 33v10l8-10h-8Z" fill="#42DFFF"/><path d="M24 21v10l8-10h-8Z" fill="#1E75ED"/><path d="M24 44V34l8 10h-8Z" fill="#42DFFF"/><path d="M15 32V22l8 10h-8Z" fill="#334ECF"/><path d="M33 32V22l8 10h-8ZM23 44V34l-8 10h8ZM41 44V34l-8 10h8Z" fill="#1E75ED"/><path d="M32 32V22l-8 10h8Z" fill="#42DFFF"/><path d="M32 33v10l-8-10h8Z" fill="#334ECF"/><path d="M23 21v10l-8-10h8Z" fill="#42DFFF"/><path d="M41 21v10l-8-10h8Z" fill="#334ECF"/><path d="m28.5 19.43 7.72-7.62A13.3 13.3 0 0 0 28.5 9v10.42Z" fill="#42DFFF"/><path d="M27.5 9a13.3 13.3 0 0 0-7.67 2.77l7.67 7.5V9ZM41 20H29.07l7.88-7.58A12.6 12.6 0 0 1 41 20Z" fill="#1E75ED"/><path d="M19.06 12.41 27 20H15a12.6 12.6 0 0 1 4.06-7.59Z" fill="#334ECF"/></svg>