<!-- by TradeStack --><svg width="56" height="56" viewBox="0 0 56 56" xmlns="http://www.w3.org/2000/svg"><path fill="#F0F3FA" d="M0 0h56v56H0z"/><path d="M33.74 16.08a14.2 14.2 0 0 0-10.64 1.4c-6.47 3.65-8.87 11.44-5.36 17.38 3.52 5.95 11.62 7.81 18.1 4.16 2.23-1.25 3.97-3 5.16-4.99a13.57 13.57 0 0 1-5.73 6.21 14.03 14.03 0 0 1-18.9-4.94 13.35 13.35 0 0 1 5.06-18.47 14.1 14.1 0 0 1 12.3-.75Z" fill="#D2B04C"/><path d="M28.92 21a7.55 7.55 0 0 1 5.25 2.5 5.27 5.27 0 0 0-2.57-.66c-2.77 0-5 2.08-5 4.65 0 2.57 2.23 4.65 5 4.65 1.9 0 3.55-.99 4.4-2.44a7.5 7.5 0 0 1-3.09 4.92L34.4 46l-5.38-10.01-.47.01a7.55 7.55 0 0 1-6.43-3.57L10 33.87l11-5.32v-.05a7.49 7.49 0 0 1 3.79-6.5l-1.7-12 5.83 11Z" fill="#01438D"/></svg>