<!-- by TradeStack --><svg width="56" height="56" viewBox="0 0 56 56" xmlns="http://www.w3.org/2000/svg"><path fill="url(#a)" d="M0 0h56v56H0z"/><path d="M20.07 30h-1.14l.34-.32V26.3h-.8l-.47.43V26h3v.73l-.46-.43h-.8v3.38l.33.32Z" fill="#fff"/><path fill-rule="evenodd" d="M4.77 27.44v2.27h.9c.44 0 .85-.31.85-.75a.84.84 0 0 0-.85-.82h-.45v-.3h.3c.43 0 .79-.33.79-.74 0-.42-.35-.8-.79-.8h-.75v1.14Zm0-1.44H4l.32.32v3.36L4 30h1.67C6.32 30 7 29.74 7 28.96c0-.47-.4-.95-.92-1.03.4-.13.72-.51.72-.83 0-.82-.62-1.1-1.28-1.1h-.75Z" fill="#fff"/><path d="M26.8 26.3v3.38l.33.32H26l.33-.32v-3.36L26 26h1.51c.7 0 1.37.43 1.37 1.1 0 .38-.32.8-.8.94l.95 1.64.33.32h-.7l-1.03-1.86h-.38v-.3h.26c.45 0 .81-.33.81-.74a.8.8 0 0 0-.8-.8h-.73ZM49.33 26.3v3.38l.35.32H48.5l.34-.32v-3.36L48.5 26h1.58c.73 0 1.42.43 1.42 1.1 0 .38-.34.8-.83.94l.99 1.64.34.32h-.73l-1.07-1.86h-.4v-.3h.28c.46 0 .84-.33.84-.74 0-.44-.37-.8-.84-.8h-.75ZM44 26l.38.32v3.36L44 30h3v-.73l-.52.43h-1.57V28.13h1.2l.38.32v-.93l-.38.32h-1.2V26.3h1.57l.52.43V26h-3ZM33 26a2 2 0 0 0-.21 4v-.3c-.72-.13-1.28-.84-1.28-1.7 0-.93.67-1.7 1.49-1.7s1.49.77 1.49 1.7c0 .86-.56 1.57-1.28 1.7v.3a2 2 0 0 0-.21-4ZM10.21 26v.3c.72.13 1.28.84 1.28 1.7 0 .93-.67 1.7-1.49 1.7s-1.49-.77-1.49-1.7c0-.86.56-1.57 1.28-1.7V26a2 2 0 0 0 .21 4 2 2 0 0 0 .21-4ZM16.68 29.67 17 30h-1.13l.31-.31-.41-1.02h-1.7l-.42 1.02.3.31H13l.32-.33 1.6-3.67h.2l1.56 3.67Zm-2.47-1.3h1.44l-.71-1.74-.73 1.74ZM38.14 26c.31 0 .62.1.86.23v.68l-.45-.42a.6.6 0 0 0-.5-.19c-.84.06-1.5.8-1.5 1.7 0 .9.66 1.64 1.5 1.7 0 0 .32 0 .5-.17l.45-.41v.65a1.7 1.7 0 0 1-.9.23c-1.16-.02-2.1-.91-2.1-2 0-1.1.96-2 2.14-2ZM40.75 29.68l.31.32H40l.31-.32v-3.36L40 26h1.06l-.31.32v1.46l1.52-1.5L42 26h.92l-1.73 1.74L43 30h-.8v-.35l-1.45-1.76v1.8Z" fill="#fff"/><defs><linearGradient id="a" x1="10.42" y1="9.71" x2="68.15" y2="76.02" gradientUnits="userSpaceOnUse"><stop stop-color="#1A1E21"/><stop offset="1" stop-color="#06060A"/></linearGradient></defs></svg>