<!-- by TradeStack --><svg viewBox="0 0 56 56" xmlns="http://www.w3.org/2000/svg"><path fill="#F0F3FA" d="M0 0h56v56H0z"/><path d="M12.93 20H7v16h5.95c4.99 0 8.05-3.9 8.05-8 0-3.77-2.5-8-8.07-8Zm-.25 14H9V22h3.57c4.14 0 6.42 2.88 6.43 6a6.16 6.16 0 0 1-6.32 6ZM26 36h-2V20h2v16ZM31 28.02c0 3.4 2.94 5.97 6.56 5.98 1.97 0 3.81-.78 5.44-1.84v2.44c-1.76.93-3.64 1.4-5.64 1.4-5.8 0-8.36-4.5-8.36-7.77 0-4.75 3.58-8.23 8.49-8.23 1.9 0 3.76.57 5.51 1.3v2.39c-1.7-1-3.54-1.69-5.53-1.69-3.43 0-6.47 2.7-6.47 6.02Z"/><path d="M52 26h-4v4h4v-4Z" fill="#ACA9AA"/></svg>