<?xml version='1.0' encoding='utf-8'?>
<!-- by TradeStack -->
<svg width="56" height="56" viewBox="0 0 56 56" xmlns="http://www.w3.org/2000/svg"><path fill="#F0F3FA" d="M0 0h56v56H0z" /><path d="M29.5 16.5c0 .8 1.17 1.33 1.5 1.5-.5-.5-.5-1.1-.5-1.5 0-.5 1.5-3.5 1.5-5 0-1.2-1.67-2.83-2.5-3.5.33.67 1 2.3 1 3.5 0 1.5-1 4-1 5Z" fill="url(#apkpw4bsa)" /><path d="M28.5 12.5c-.67.83-2 2.8-2 4 0 .58.15 1.25.3 1.92.25 1.06.5 2.16.2 3.08-.2.62-1.27 1.93-2.52 3.46a69.81 69.81 0 0 0-2.9 3.74 9 9 0 1 0 8.63-2.43C30.9 27.24 32 29.2 32 31c0 .92-.77 2.1-1.63 3.4C29.27 36.1 28 38.04 28 40c-.83-.83-2.5-3-2.5-5 0-1.32 1.25-3.2 2.44-4.97.87-1.3 1.7-2.56 1.97-3.49.59-1.54.59-1.94.59-2.54 0-.83-.76-2.86-1.44-4.7C28.51 17.8 28 16.45 28 16c0-1 0-2.5.5-3.5Z" fill="url(#bpkpw4bsa)" /><defs><linearGradient id="apkpw4bsa" x1="30.75" y1="8" x2="30.75" y2="18" gradientUnits="userSpaceOnUse"><stop stop-color="#FB4802" /><stop offset="1" stop-color="#F8C338" /></linearGradient><linearGradient id="bpkpw4bsa" x1="28" y1="12.5" x2="28" y2="44" gradientUnits="userSpaceOnUse"><stop stop-color="#FE4200" /><stop offset=".58" stop-color="#FF3E00" /><stop offset=".83" stop-color="#FDD700" /><stop offset="1" stop-color="#FFF400" /></linearGradient></defs></svg>