<?xml version='1.0' encoding='utf-8'?>
<!-- by TradeStack -->
<svg width="56" height="56" viewBox="0 0 56 56" xmlns="http://www.w3.org/2000/svg"><path fill="#F0F3FA" d="M0 0h56v56H0z" /><path d="M50.12 25c.19 0 .34.04.47.11.14.08.24.18.3.3.07.1.11.24.11.38a.7.7 0 0 1-.17.47.56.56 0 0 1-.45.2.64.64 0 0 1-.42-.15.48.48 0 0 1-.16-.39c0-.13.03-.25.1-.34.08-.1.17-.18.27-.24a.33.33 0 0 0-.24-.07c-.73.03-.93.93-.93 1.59v2.17c0 .6.46.77 1 .77v.2h-3v-.2c.47 0 1-.2 1-.68v-2.96c0-.57-.47-.83-1-.83v-.2c.58.05 1.44.05 2-.1v1.08c.24-.56.47-1.11 1.12-1.11ZM44.2 25c.56 0 1 .16 1.3.49.32.32.48.8.48 1.51h-3.27l-.02-.14h2.29c0-.3-.02-.58-.08-.83a1.52 1.52 0 0 0-.26-.62.57.57 0 0 0-.48-.23c-.27 0-.5.14-.71.43-.2.27-.32.72-.36 1.33l.03.05a22.27 22.27 0 0 0-.03.57c0 .43.07.78.2 1.07.13.29.3.5.52.65.22.14.43.21.65.21.18 0 .34-.02.5-.07a1.42 1.42 0 0 0 .85-.79l.19.07c-.08.21-.2.42-.35.62-.16.2-.36.37-.6.5-.25.12-.54.18-.87.18-.44 0-.83-.1-1.16-.28-.32-.2-.58-.48-.75-.84a2.9 2.9 0 0 1-.27-1.29c0-.54.1-1 .27-1.4A2.02 2.02 0 0 1 44.2 25Z" fill="#322C2E" /><path d="M21.2 25c.56 0 1 .16 1.3.49.32.32.48.8.48 1.51h-3.27l-.02-.14h2.29c0-.3-.02-.58-.08-.83a1.52 1.52 0 0 0-.26-.62.57.57 0 0 0-.48-.23c-.27 0-.5.14-.71.43-.2.27-.32.72-.36 1.33l.03.05a22.27 22.27 0 0 0-.03.57c0 .43.07.78.2 1.07.13.29.3.5.52.65.22.14.43.21.65.21.18 0 .34-.02.5-.07a1.42 1.42 0 0 0 .85-.79l.19.07c-.08.21-.2.42-.35.62-.16.2-.36.37-.6.5-.25.12-.54.18-.87.18-.44 0-.83-.1-1.16-.28-.32-.2-.58-.48-.75-.84a2.9 2.9 0 0 1-.27-1.29c0-.54.1-1 .27-1.4A2.02 2.02 0 0 1 21.2 25Z" fill="#00B1EA" /><path d="M41 25v.2a.67.67 0 0 0-.36.18c-.1.1-.21.29-.3.54L38.74 30h-.33l-1.83-4.26c-.1-.25-.21-.4-.32-.45a.55.55 0 0 0-.26-.09V25h2.37v.2c-.16 0-.3.01-.43.03-.12.02-.2.08-.24.17-.03.1-.01.25.07.48l1.24 2.98-.08.07 1.03-2.62c.1-.26.14-.46.12-.62a.47.47 0 0 0-.2-.35c-.13-.09-.3-.13-.53-.15V25H41ZM34.4 22c.22 0 .4.07.55.2.15.13.22.29.22.48 0 .2-.07.36-.22.5a.8.8 0 0 1-.54.18.8.8 0 0 1-.54-.19.64.64 0 0 1-.22-.49c0-.2.07-.35.22-.48.14-.13.32-.2.54-.2Zm.6 2.58v4.35c0 .5.5.86 1 .86V30h-2.68v-.21c.5 0 .68-.36.68-.86v-3.15c0-.61-.1-.88-.68-.88v-.21c.62.05 1.07.05 1.68-.11ZM27 23l2.68.01c1.07 0 2.32.51 2.32 1.8 0 1.39-1.34 1.8-2.53 1.8h-.64v-.2h.55c1.03 0 1.62-.6 1.62-1.6 0-.95-.52-1.62-1.52-1.62-.56 0-.48.33-.48.84v4.94c0 .59.4.8 1 .84V30h-3v-.2c.6-.03 1-.23 1-.83v-4.94c0-.58-.4-.82-1-.84V23Zm1.85 3.44c.32.01.32.03.51.05a16 16 0 0 1 .86.09c.47.06.8.2 1.02.39.22.19.37.49.45.89l.24.99c.05.27.11.47.18.59.07.11.17.17.3.17.1 0 .18-.03.24-.09.07-.05.14-.13.22-.23l.13.1c-.14.2-.3.36-.45.46-.16.1-.37.15-.63.15-.27 0-.5-.07-.7-.21-.19-.15-.32-.43-.4-.84l-.19-.97a5.73 5.73 0 0 0-.19-.71c-.07-.21-.16-.37-.29-.49-.12-.12-.3-.17-.53-.17h-.75l-.02-.17Z" fill="#322C2E" /><path d="M18 25v3.87c0 .55 0 .82.5.82V30H17v-1.03c-.15.37-.36.64-.63.8-.3.17-.6.22-.87.23-.84.02-1.5-.65-1.5-1.56V26.1c0-.56-.5-.81-1-.81v-.2c.67.05 1.47.05 2-.1v3.7c0 .47.06.97.64.97.21 0 .65-.07.82-.2.17-.13.3-.3.4-.52.1-.23.14-.47.14-.75v-2.1c0-.55-.15-.8-.65-.8v-.2c.54.05 1.12.05 1.65-.1ZM12 22.03v7.05c0 .57.47.7 1 .7V30h-3v-.21c.52 0 1-.18 1-.74v-5.83c0-.57-.4-.9-1-.9v-.2c.71.05 1.3.08 2-.09ZM4 23h3c.98 0 2.5.33 2.5 1.56 0 1-1 1.53-1.86 1.73v.02c1.03.1 2.36.52 2.36 1.77C10 29.52 8.5 30 7.3 30H4v-.2c.63-.03 1-.25 1-.9V24c0-.61-.36-.78-1-.8V23Zm2.83.2c-.6 0-.83.28-.83.85v4.9c0 .6.26.82.86.82C7.96 29.77 9 29.14 9 28c0-1.13-1.13-1.55-2.17-1.55H5.79V26.28h.92c1 0 1.79-.76 1.79-1.72 0-.98-.7-1.36-1.67-1.36Z" fill="#00B1EA" /><path d="M4 35.59V32.4A26.03 26.03 0 0 1 12.04 31c4.23 0 8.04 2.82 11.84 4.24 3.05 1.12 4.94 1.4 5.5 1.4-.42.12-1.77.36-3.8.36-2.54 0-8.04-3.88-12.27-3.88-3.39 0-7.62 1.64-9.31 2.47ZM33.81 37c-.95 0-2.78-.2-3.58-.3 1.91 0 5.31-1.21 6.77-1.82-.66.7-2.23 2.12-3.19 2.12Z" fill="#01B1EA" /></svg>