<?xml version='1.0' encoding='utf-8'?>
<!-- by TradeStack -->
<svg width="56" height="56" viewBox="0 0 56 56" xmlns="http://www.w3.org/2000/svg"><path fill="#F0F3FA" d="M0 0h56v56H0z" /><path fill="#00A7D4" d="M5 22h18v1H5z" /><path fill="#02AEAC" d="M22 32h30v1H22z" /><path fill="#EC4C5D" d="M21.5 27h2v1h-2z" /><path d="M20.5 25H19v5h1.5v-5ZM12 30v-5h4c1 0 2 .5 2 2 0 1-1 1.5-1.5 1.5L18 30h-1.75L15 28.5h-.5v-1h1c.8 0 1-.58 1-.75 0-.8-.67-.75-1-.75h-2v4H12Z" fill="#363936" /><path d="M31.5 25H33v2h2v1h-2v2h-1.5v-5Zm6 0H36v5h1.5v-5ZM43.5 25h-5v5h5v-1H40v-1h2.5v-1H40v-1h3.5v-1ZM46.5 25H45v5h1.5v-3l2 2 2-2v3H52v-5h-1.5l-2 2-2-2ZM29.71 28.21c-.07.1-.16.18-.27.27-.4.3-1 .52-1.69.52-.84 0-1.75-.44-1.75-1.5s.9-1.5 1.75-1.5c.7 0 1.29.22 1.69.52.1.09.2.18.27.27l.71-.71A3.6 3.6 0 0 0 27.75 25c-1.8 0-3.25 1.12-3.25 2.5s1.46 2.5 3.25 2.5a3.6 3.6 0 0 0 2.67-1.08l-.7-.7Z" fill="#393937" /><path d="M5 25h4.5c.67 0 1.5.3 1.5 1.5 0 .33-.2 1-1 1 .33 0 1 .2 1 1 0 1-.5 1.5-1.5 1.5H5v-5Zm1.5 4H9c.17 0 .5-.1.5-.5S9.17 28 9 28H6.5v1Zm0-2H9c.17 0 .5-.1.5-.5S9.17 26 9 26H6.5v1Z" fill="#363936" /></svg>