<?xml version='1.0' encoding='utf-8'?>
<!-- by TradeStack -->
<svg width="56" height="56" viewBox="0 0 56 56" xmlns="http://www.w3.org/2000/svg"><path fill="#181B1E" d="M0 0h56v56H0z" /><path d="M34 40 24 11 14 40h3.47L24 21.07 30.53 40H34Z" fill="#F2BA40" /><path d="M44 40 33.5 11 23 40h3.65l6.85-18.93L40.35 40H44Z" fill="#BABCBB" /><path d="m11.9 20 .92.59c-.91.88-1.64 3.38-1.64 5.3 0 1.52 1.21 2.5 1.82 2.79V29h29.5a1.5 1.5 0 0 1 0 3H13v.35c-.48.15-1.45.74-1.45 1.91 0 .78.3 1.56.59 2.29.25.66.5 1.28.5 1.83 0 1.18-.19 1.62-.73 1.62-2-1.62-2.64-5.78-2.83-9H9a1 1 0 1 1 0-2v-.62c0-4.23 1.94-7.35 2.9-8.38Z" fill="#707070" /></svg>