<!-- by TradeStack --><svg width="56" height="56" viewBox="0 0 56 56" xmlns="http://www.w3.org/2000/svg"><path fill="url(#at3rjaa4p)" d="M0 0h56v56H0z"/><path d="M25.82 16.12c-6 .25-13.6 2.44-16.43 3.31l-.39.12V23h1v-2.63c3-.9 9.86-2.91 15.84-3.15a2.18 2.18 0 0 1-.02-1.1ZM30.17 16.12c6.02.25 13.61 2.44 16.44 3.31l.39.12V23h-1v-2.63c-3-.9-9.86-2.91-15.84-3.15a2.18 2.18 0 0 0 .01-1.1ZM25.82 41.43c-6-.25-13.6-2.44-16.43-3.31L9 38v-4h1v3.18c3 .9 9.86 2.91 15.84 3.15a2.18 2.18 0 0 0-.02 1.1ZM30.17 41.43c6.02-.25 13.61-2.44 16.44-3.31L47 38v-4h-1v3.18c-3 .9-9.86 2.91-15.84 3.15a2.18 2.18 0 0 1 .01 1.1Z" fill="#D50"/><path fill-rule="evenodd" d="M28 42a1.5 1.5 0 1 0 0-3 1.5 1.5 0 0 0 0 3Zm.24-1.74L28 39.5l-.24.76H27l.62.48-.24.76.62-.47.62.47-.24-.76.62-.48h-.76ZM28 18a1.5 1.5 0 1 0 0-3 1.5 1.5 0 0 0 0 3Zm.24-1.74L28 15.5l-.24.76H27l.62.48-.24.76.62-.47.62.47-.24-.76.62-.48h-.76Z" fill="#fff"/><path d="m48.45 32-1.48-2.73h-.47V32H45v-7h2.51c1.28 0 2.41.78 2.41 2.15 0 .96-.6 1.75-1.52 2.01L50 32h-1.55Zm-1.95-3.78h.96c.74 0 1.08-.4 1.08-1.04 0-.65-.36-1.18-1.08-1.18h-.96v2.22ZM16.45 32l-1.48-2.73h-.47V32H13v-7h2.51c1.28 0 2.41.78 2.41 2.15 0 .96-.6 1.75-1.52 2.01L18 32h-1.55Zm-1.95-3.78h.96c.74 0 1.08-.4 1.08-1.04 0-.65-.36-1.18-1.08-1.18h-.96v2.22ZM40.5 26v2H43v1h-2.5v2H43v1h-4v-7h4v1h-2.5ZM27.5 26v2H30v1h-2.5v2H30v1h-4v-7h4v1h-2.5ZM21.5 26v2H24v1h-2.5v2H24v1h-4v-7h4v1h-2.5ZM33.7 31H37v1h-5v-1l3.28-5H32v-1h5v1l-3.3 5ZM9.73 28.41c.78.16 1.27.93 1.27 1.7C11 31.32 9.96 32 8.83 32H6v-7h2.71c1.1 0 2.14.61 2.14 1.8a1.6 1.6 0 0 1-1.12 1.61ZM7.5 28h1.02c.64 0 .98-.43.98-.98 0-.57-.35-1.02-.98-1.02H7.5v2Zm1.15 3c.64 0 1.01-.48 1.01-1.07 0-.6-.4-.93-1.04-.93H7.5v2h1.15ZM38 23H18v.5h20V23ZM38 34.5H18V34h20v.5ZM33.8 37.37l.02.05a.73.73 0 0 1 .03.1c.03.12.1.2.18.26a.55.55 0 0 0 .5.06c.06-.02.1-.06.14-.1a.26.26 0 0 0 0-.33.61.61 0 0 0-.14-.14 3.38 3.38 0 0 0-.24-.15 3.59 3.59 0 0 1-.29-.18.8.8 0 0 1-.19-.2.43.43 0 0 1-.07-.24c0-.12.03-.21.09-.29a.52.52 0 0 1 .23-.16c.1-.03.2-.05.3-.05a1.07 1.07 0 0 1 .54.14l.02.42h-.09a.76.76 0 0 1-.04-.1l-.01-.05a.4.4 0 0 0-.17-.22.48.48 0 0 0-.42-.05.33.33 0 0 0-.14.09.2.2 0 0 0-.05.14c0 .06.02.1.05.15l.14.13.23.14.3.2a.8.8 0 0 1 .2.2c.05.07.08.16.08.26 0 .13-.03.23-.1.31a.56.56 0 0 1-.25.18.91.91 0 0 1-.32.06c-.1 0-.21-.01-.33-.04a.9.9 0 0 1-.29-.11v-.48h.09ZM33.32 37.98h-.12c-.04-.02-.07-.02-.09-.02h-1.43v-.07a.36.36 0 0 1 .08-.04.6.6 0 0 1 .08-.02l.08-.02c.02-.01.03-.04.04-.07l.02-.17v-1.12l-.02-.17c-.01-.04-.03-.06-.05-.08a2.27 2.27 0 0 0-.23-.09v-.07h1.47a1.43 1.43 0 0 0 .1-.02.2.2 0 0 1 .06 0v.47h-.07a.23.23 0 0 1-.04-.06 1.04 1.04 0 0 1-.04-.08.57.57 0 0 0-.05-.11.15.15 0 0 0-.08-.06 4.23 4.23 0 0 0-.75-.03v.75h.4c.07 0 .13 0 .16-.02a.16.16 0 0 0 .09-.05l.08-.15.02-.04h.08v.64h-.08a.53.53 0 0 0-.11-.2.24.24 0 0 0-.19-.07h-.45v.5c0 .1 0 .18.03.23.02.05.06.08.1.1l.18.02h.14c.12 0 .22-.02.3-.04a.31.31 0 0 0 .2-.18l.02-.04.04-.09a.27.27 0 0 1 .03-.05h.1l-.1.52ZM30.54 37.16a.54.54 0 0 0-.05-.08.15.15 0 0 0-.06-.04.27.27 0 0 0-.09-.01h-.08v.56l.01.16.05.06.1.03.07.02.07.02v.08h-.89v-.08a.3.3 0 0 1 .07-.03.6.6 0 0 1 .07-.01l.09-.03c.02-.01.03-.04.04-.07l.02-.19v-1.12l-.02-.16-.05-.07a.42.42 0 0 0-.1-.04.85.85 0 0 1-.12-.05v-.07h.65c.17 0 .32 0 .45.02s.25.06.35.13c.1.08.16.19.16.34a.4.4 0 0 1-.08.24.5.5 0 0 1-.19.16.83.83 0 0 1-.24.08 32.75 32.75 0 0 1 .5.73l.09.08c.02.02.05.03.1.04.03.02.07.02.13.02v.08a1 1 0 0 1-.25.04.44.44 0 0 1-.27-.1 1.03 1.03 0 0 1-.21-.22 5.04 5.04 0 0 1-.32-.52Zm-.21-.24c.12 0 .22 0 .3-.02a.44.44 0 0 0 .23-.1c.06-.06.1-.14.1-.25 0-.13-.04-.22-.1-.28a.44.44 0 0 0-.24-.1c-.1-.02-.2-.02-.33-.02h-.03v.77h.07ZM28.25 36.11a1 1 0 0 1-.15.05.37.37 0 0 0-.11.03c-.02.01-.04.04-.05.08a.7.7 0 0 0-.02.18v.63a1 1 0 0 0 .14.56c.09.13.24.2.46.2.4 0 .6-.26.6-.78v-.59c0-.08 0-.15-.02-.19 0-.04-.03-.07-.05-.08a.44.44 0 0 0-.12-.05c-.06-.01-.1-.02-.13-.04v-.07h.75v.07a.22.22 0 0 1-.04.02l-.07.02a.77.77 0 0 0-.08.02.16.16 0 0 0-.06.03.12.12 0 0 0-.04.06 13.42 13.42 0 0 0-.02.64c0 .23-.02.42-.05.58a.67.67 0 0 1-.24.37c-.12.1-.3.15-.52.15-.14 0-.26-.02-.38-.07a.68.68 0 0 1-.28-.2.66.66 0 0 1-.14-.36 3.7 3.7 0 0 1-.01-.66 17.92 17.92 0 0 0-.01-.43.13.13 0 0 0-.07-.1.69.69 0 0 0-.15-.05l-.07-.02v-.07h.92v.07ZM25.94 36.15h-.2a.18.18 0 0 0-.1.05.4.4 0 0 0-.06.08l-.07.11a.89.89 0 0 1-.07.12h-.07l.04-.48h1.78l.05.48h-.07a2.36 2.36 0 0 0-.18-.28.18.18 0 0 0-.11-.07l-.1-.01H26.45v1.46c0 .07 0 .13.03.17.03.03.06.06.1.07l.18.03v.08h-.93v-.08l.08-.02.13-.05a.2.2 0 0 0 .07-.07.24.24 0 0 0 .04-.13v-1.46h-.2ZM23.37 36.35a.44.44 0 0 0-.08-.1.32.32 0 0 0-.08-.06 1.07 1.07 0 0 0-.1-.04 1.87 1.87 0 0 1-.1-.04v-.07h.49l1.32 1.44v-.93c0-.1-.02-.18-.04-.26a.18.18 0 0 0-.04-.07.16.16 0 0 0-.06-.04.78.78 0 0 0-.13-.04.36.36 0 0 1-.06-.02v-.08h.74v.08l-.08.03a.77.77 0 0 0-.14.08.17.17 0 0 0-.06.1l-.01.21a12.49 12.49 0 0 1 0 .5 49.02 49.02 0 0 0 0 .69c.02.1.02.19.02.24a.28.28 0 0 1-.15 0 5.84 5.84 0 0 0-.23-.27l-1.1-1.23v1.04c0 .06 0 .13.02.2l.04.08c.02.01.04.03.07.03l.1.03c.04 0 .09.02.11.03v.08h-.8v-.08l.07-.02.14-.04a.22.22 0 0 0 .1-.07.25.25 0 0 0 .04-.14v-1.26ZM22.72 37.98h-.13c-.03-.02-.06-.02-.08-.02h-1.43v-.07a.36.36 0 0 1 .07-.04.6.6 0 0 1 .09-.02l.08-.02c.02-.01.03-.04.04-.07l.01-.17v-1.12c0-.08 0-.14-.02-.17 0-.04-.02-.06-.05-.08a2.27 2.27 0 0 0-.23-.09v-.07h1.48a1.43 1.43 0 0 0 .1-.02.2.2 0 0 1 .06 0v.47h-.08a.23.23 0 0 1-.04-.06 1.04 1.04 0 0 1-.03-.08.57.57 0 0 0-.06-.11.15.15 0 0 0-.08-.06 4.23 4.23 0 0 0-.75-.03v.75h.4c.08 0 .13 0 .17-.02a.16.16 0 0 0 .08-.05l.09-.15.02-.04h.08v.64h-.08a.53.53 0 0 0-.12-.2.24.24 0 0 0-.18-.07h-.46v.5c0 .1.01.18.04.23.02.05.05.08.1.1l.18.02h.14c.12 0 .22-.02.3-.04a.32.32 0 0 0 .2-.18l.01-.04.04-.09a.28.28 0 0 1 .04-.05h.09l-.1.52ZM20.1 37.59l.16-.4.22-.57c.05-.14.07-.24.07-.3 0-.04 0-.07-.02-.1a.16.16 0 0 0-.07-.04.73.73 0 0 0-.1-.03.64.64 0 0 1-.08-.02v-.09H21v.08a4.73 4.73 0 0 1-.15.08l-.03.02a.23.23 0 0 0-.08.08 5.08 5.08 0 0 0-.13.31l-.05.12a30.46 30.46 0 0 0-.47 1.25h-.03l-.04.01a.4.4 0 0 1-.06 0 114.76 114.76 0 0 0-.75-1.76.24.24 0 0 0-.08-.06.93.93 0 0 0-.13-.05v-.08h.83a.18.18 0 0 0 0 .04.86.86 0 0 1 0 .05.76.76 0 0 0-.2.07c-.04.01-.05.04-.05.08l.06.2a43.89 43.89 0 0 0 .46 1.11ZM28.29 20.77a.75.75 0 0 1 .39-.66c.12-.07.28-.11.46-.11s.34.04.47.11a.74.74 0 0 1 .4.66.74.74 0 0 1-.39.66.93.93 0 0 1-.47.11.95.95 0 0 1-.47-.1.74.74 0 0 1-.4-.67Zm.34 0c0 .1.02.2.06.3.03.1.09.17.16.23a.4.4 0 0 0 .26.09.49.49 0 0 0 .48-.32.87.87 0 0 0 0-.62.59.59 0 0 0-.17-.25.38.38 0 0 0-.25-.09.47.47 0 0 0-.3.1.58.58 0 0 0-.18.24c-.04.1-.06.2-.06.32ZM27.08 22c.1-.34.22-.67.35-.99.13-.32.27-.59.42-.8l-.75.05c-.06 0-.1.02-.14.04a.22.22 0 0 0-.07.08.64.64 0 0 0-.03.11.43.43 0 0 1-.03.1l-.05.02h-.04l.04-.55.02-.02h1.27l.03.09a5.7 5.7 0 0 0-.37.86c-.1.31-.2.65-.28 1.01h-.37ZM25.6 22c.1-.34.21-.67.34-.99.13-.32.27-.59.42-.8l-.75.05c-.06 0-.1.02-.14.04a.22.22 0 0 0-.06.08.65.65 0 0 0-.04.11.42.42 0 0 1-.03.1l-.05.02h-.04l.04-.55.02-.02h1.27l.03.09a5.7 5.7 0 0 0-.37.86c-.1.31-.2.65-.28 1.01h-.37ZM24.68 21.3c0 .05.02.08.06.1l.16.03.1.01c.03 0 .04.02.04.04l-.01.03H24a.1.1 0 0 1-.01-.02c0-.02.01-.04.03-.04l.1-.02.11-.02c.03 0 .05-.02.07-.04a.09.09 0 0 0 .04-.07v-1.04a.09.09 0 0 0-.04-.08.16.16 0 0 0-.07-.03 1.4 1.4 0 0 0-.1-.02.66.66 0 0 1-.1-.02c-.03 0-.04-.02-.04-.04v-.03h1.03v.03c0 .03 0 .04-.03.05a.57.57 0 0 1-.1.01.54.54 0 0 0-.16.03c-.04.01-.06.05-.06.1v1.04Z" fill="#fff"/><defs><linearGradient id="at3rjaa4p" x1="10.42" y1="9.71" x2="68.15" y2="76.02" gradientUnits="userSpaceOnUse"><stop stop-color="#1A1E21"/><stop offset="1" stop-color="#06060A"/></linearGradient></defs></svg>