<?xml version='1.0' encoding='utf-8'?>
<!-- by TradeStack -->
<svg width="56" height="56" viewBox="0 0 56 56" xmlns="http://www.w3.org/2000/svg"><path fill="#F0F3FA" d="M0 0h56v56H0z" /><path d="M28 11c-1.59 0-3 1.26-3 2.8 0 1.55 1.41 3.2 3 3.2s3-1.65 3-3.2c0-.72-.31-1.42-.87-1.95A3.25 3.25 0 0 0 28 11ZM42.83 21.83c-.97-.07-2.4-.2-4.28-.37a.1.1 0 0 1-.06-.03.1.1 0 0 1-.03-.06c0-.02 0-.05.02-.07a.13.13 0 0 1 .06-.05c1.6-.63 3.2-1.6 4.37-2.84a.23.23 0 0 0 .04-.33.24.24 0 0 0-.34-.03c-2.95.95-8.56.96-14.5.95h-.22c-5.94 0-11.56 0-14.5-.95a.24.24 0 0 0-.34.04.23.23 0 0 0 .04.33 12.47 12.47 0 0 0 4.38 2.83c.02 0 .04.03.06.05.01.02.02.05.01.07a.1.1 0 0 1-.02.06.1.1 0 0 1-.06.03c-1.9.16-3.32.3-4.3.37a.2.2 0 0 0-.1.05.18.18 0 0 0 .08.31c.53.11 1.22.24 2.04.37 0 0 6.71.88 9.53 3.38.04.03.1.06.15.06.07 0 .15-.05.14-.26v-1.37c.02-1.96-4.5-2.41-6.12-2.68l-.35-.06a.14.14 0 0 1-.08-.05.13.13 0 0 1 .08-.21c2.65-.21 5.93-.36 9.46-.37h.04c3.54 0 6.82.16 9.46.37.03 0 .06.02.08.04a.13.13 0 0 1-.08.22l-.35.06c-1.31.22-6.16.67-6.14 2.66v1.4c0 .19.06.25.14.25.05 0 .11-.03.14-.06 2.81-2.49 9.53-3.38 9.53-3.38.83-.13 1.52-.26 2.05-.37a.19.19 0 0 0 .1-.07.18.18 0 0 0-.01-.24.2.2 0 0 0-.12-.05Z" fill="#58B947" /><path d="M37.93 42.39a43.44 43.44 0 0 1-6.32-13.16.32.32 0 0 0-.33-.22.32.32 0 0 0-.28.28l.02 6.42c0 .1-.12.1-.16.04-.7-.9-1.78-2.38-2.49-3.42-.1-.16-.21-.32-.37-.33-.16 0-.28.17-.38.33a79.44 79.44 0 0 1-2.46 3.42c-.05.06-.16.06-.16-.04l-.02-6.42a.3.3 0 0 0-.08-.2.31.31 0 0 0-.53.14 43.3 43.3 0 0 1-6.3 13.16.39.39 0 0 0 .04.49.4.4 0 0 0 .49.07c1.4-.82 2.94-1.9 5.75-5.49.21-.26.41-.53.6-.8a.07.07 0 0 1 .08-.03.07.07 0 0 1 .04.06c-.14 3.67-.04 6.5-.07 9 0 .4.63.4.66 0l2.34-10 2.34 10c.03.4.66.42.66 0-.03-2.5.07-5.33-.07-9l.01-.04a.07.07 0 0 1 .07-.02l.04.02c.19.28.39.55.6.81 2.8 3.6 4.35 4.67 5.75 5.5a.4.4 0 0 0 .5-.08.4.4 0 0 0 .03-.5Z" fill="#005CB9" /></svg>