<!-- by TradeStack --><svg viewBox="0 0 56 56" xmlns="http://www.w3.org/2000/svg"><path fill="#F0F3FA" d="M0 0h56v56H0z"/><path d="M36.99 26.55c-.17 2.78-2.25 4.93-4.71 6-1.04.46-2.13.74-3.27.85H29V10.01c0-.02.01-.03.03-.01L37 14.55l.01.02a70992.66 70992.66 0 0 1-.01 11.98Zm-13.26 6c-2.46-1.07-4.55-3.22-4.72-6V26a70991.74 70991.74 0 0 1 0-11.45L26.98 10c.02-.02.03-.01.03.01V33.4c-1.14-.1-2.23-.38-3.27-.84Zm-2.83.75A8.73 8.73 0 0 1 17 27V16c-.6.34-1.24.67-1.86 1-.6.3-1.17.6-1.69.9A2.44 2.44 0 0 0 12 20.1a103330.45 103330.45 0 0 0 .02 15.65c.1.75.56 1.43 1.23 1.8A1941.7 1941.7 0 0 0 15.83 39H27v-3.6l-.01-.02a12.6 12.6 0 0 1-6.09-2.08ZM39 27V16c.6.34 1.24.67 1.86 1 .6.3 1.17.6 1.69.9A2.44 2.44 0 0 1 44 20.1a144742.89 144742.89 0 0 1-.02 15.65c-.1.75-.56 1.43-1.23 1.8A1727.09 1727.09 0 0 1 40.17 39H29v-3.6a12.6 12.6 0 0 0 6.1-2.1A8.73 8.73 0 0 0 39 27Zm-1.58 14a17183.68 17183.68 0 0 0-18.84.01l8 4.61c.44.25.92.38 1.42.38.5 0 .98-.13 1.41-.38a38735.9 38735.9 0 0 0 8-4.62Z" fill="url(#a)"/><defs><linearGradient id="a" x1="23.68" y1="15.73" x2="39.31" y2="42.59" gradientUnits="userSpaceOnUse"><stop stop-color="#14C39A"/><stop offset="1" stop-color="#1F7BFA"/></linearGradient></defs></svg>