<?xml version='1.0' encoding='utf-8'?>
<!-- by TradeStack -->
<svg width="56" height="56" viewBox="0 0 56 56" xmlns="http://www.w3.org/2000/svg"><path fill="#01559E" d="M0 0h56v56H0z" /><path fill-rule="evenodd" d="M25.14 29.25 19.5 25h6.71l1.84-6 1.65 6h6.8l-5.52 4.25L33.33 35l-5.28-3.76L22.73 35l2.4-5.75ZM4 31v-4h2.88c.31.01.94.24.94 1.03 0 .52-.44.83-.66.92.28.04.84.3.84.96C8 30.74 7.22 31 6.97 31H4Zm1.33-3.22h.72c.22 0 .4.2.4.43 0 .23-.18.42-.4.42h-.72v-.85Zm0 1.56h.9c.22 0 .4.19.4.42 0 .23-.18.42-.4.42h-.9v-.84ZM9 27v4h3v-1h-1.8v-3H9Zm3 2.4V27h1.25v2.5c0 .4.3.72.66.72h.13c.37 0 .66-.33.66-.73V27H16v2.4c0 .88-.7 1.6-1.5 1.6h-1.05c-.8 0-1.45-.72-1.45-1.6Zm5-2.4v4h3.47v-1h-2.23v-.69h1.98v-.84h-1.98V28h2.23v-1H17Zm18.95 2.63h-1.27c0 .99 1.05 1.37 1.97 1.37.92 0 1.88-.3 1.88-1.3 0-.9-.92-1.12-1.61-1.29l-.27-.06c-.69-.19-.7-.68-.15-.68.44 0 .6.28.63.43h1.2c-.08-.36-.34-1.1-1.59-1.1s-1.87.37-1.87 1.1c0 .73.7 1.15 1.63 1.26.93.1.68.85.15.85-.42 0-.64-.39-.7-.58ZM40 28h-1.19v-1h3.9v1H41.4v3H40v-3Zm2.8 3 1.57-4h1.41l1.59 4h-1.39l-.19-.59h-1.47l-.19.59H42.8Zm1.82-1.5h.87l-.44-1.32-.43 1.32ZM48 31v-4h2.7c.57 0 1.04.53 1.04 1.18 0 .56-.34 1.03-.81 1.15L52 31h-1.4l-.94-1.64h-.42V31H48Zm2.09-3.2h-.85v.87h.85c.21 0 .39-.2.39-.44s-.18-.43-.4-.43Z" fill="#fff" /></svg>