<?xml version='1.0' encoding='utf-8'?>
<!-- by TradeStack -->
<svg width="56" height="56" viewBox="0 0 56 56" xmlns="http://www.w3.org/2000/svg"><path fill="url(#amcalxqc3)" d="M0 0h56v56H0z" /><path d="M7.3 32c1.5 0 2.52-1.15 2.52-2.97 0-1.75-1.06-2.97-2.56-2.97-.82 0-1.33.36-1.65.83h-.04V24H4v8h1.52v-.87h.02c.35.53.94.87 1.77.87Zm-.34-1.25c-.88 0-1.42-.66-1.42-1.69 0-1.04.37-1.8 1.36-1.8.88 0 1.32.73 1.32 1.77 0 1.09-.45 1.72-1.26 1.72ZM13.94 31.87h1.52v-.06c-.14-.1-.2-.36-.2-.8v-2.9c0-1.34-.73-2.11-2.5-2.11-1.74 0-2.52.88-2.57 1.88h1.4c.05-.54.41-.8 1.15-.8.66 0 1 .27 1 .68 0 .44-.46.52-1.44.65-1.32.18-2.38.58-2.38 1.84 0 1.14.85 1.75 2.07 1.75 1.02 0 1.44-.33 1.75-.77h.02c.03.26.1.52.18.64Zm-1.57-.93c-.56 0-.93-.19-.93-.72 0-.54.4-.72 1.23-.9.4-.09.82-.18 1.1-.33v.86c0 .56-.5 1.09-1.4 1.09ZM16 32h1.55v-3.4c0-.77.42-1.27 1.05-1.27.57 0 .9.34.9 1V32H21v-3.4c0-.77.45-1.27 1.1-1.27.56 0 .9.34.9 1V32h1.54v-3.93c0-1.27-.7-2.07-1.92-2.07-.74 0-1.36.39-1.76 1.02h-.02A1.74 1.74 0 0 0 19.22 26c-.8 0-1.37.41-1.7.95h-.03V26H16v6ZM28.3 32c1.5 0 2.52-1.15 2.52-2.97 0-1.75-1.06-2.97-2.56-2.97-.82 0-1.33.36-1.65.83h-.04V24H25V32h1.52v-.87h.02c.35.53.94.87 1.77.87Zm-.34-1.25c-.88 0-1.42-.66-1.42-1.69 0-1.04.37-1.8 1.36-1.8.88 0 1.32.73 1.32 1.77 0 1.08-.45 1.72-1.26 1.72ZM36.68 32v-6H35v3.37c0 .77-.35 1.32-1.09 1.32-.67 0-.91-.38-.91-1.06V26h-1.63v3.9c0 1.27.74 2.1 2.06 2.1.83 0 1.3-.3 1.7-.84h.03V32h1.52ZM39.76 32c1.48 0 2.5-.69 2.5-1.83 0-1.33-1.1-1.6-2.1-1.79-.84-.17-1.63-.21-1.63-.7 0-.4.4-.63 1.02-.63.67 0 1.07.22 1.14.83h1.43C42 26.74 41.13 26 39.57 26c-1.35 0-2.42.59-2.42 1.82 0 1.24 1.04 1.51 2.1 1.71.82.16 1.57.21 1.57.75 0 .4-.4.66-1.09.66-.7 0-1.19-.3-1.3-.94h-1.45c.1 1.2 1.05 2 2.78 2ZM45.46 32c1.53 0 2.47-.85 2.69-1.86H46.6c-.18.43-.53.7-1.15.7-.89 0-1.4-.54-1.51-1.42h4.3c0-2.03-1.02-3.42-2.93-3.42a2.87 2.87 0 0 0-2.92 2.99c0 1.7 1.1 3.01 3.07 3.01Zm-.12-4.84c.71 0 1.21.5 1.26 1.22h-2.64c.14-.74.54-1.22 1.38-1.22ZM50 26h-1.58v6H50v-2.89c0-1.25.94-1.8 1.97-1.69H52v-1.37a1.79 1.79 0 0 0-2 .97V26Z" fill="#fff" /><defs><linearGradient id="amcalxqc3" x1="10.42" y1="9.71" x2="68.15" y2="76.02" gradientUnits="userSpaceOnUse"><stop stop-color="#1A1E21" /><stop offset="1" stop-color="#06060A" /></linearGradient></defs></svg>