<!-- by TradeStack --><svg width="56" height="56" viewBox="0 0 56 56" xmlns="http://www.w3.org/2000/svg"><path fill="#164734" d="M0 0h56v56H0z"/><path d="M51.32 26.28a.74.74 0 0 0-.38-.56c-.21-.13-.48-.2-.8-.2-.23 0-.43.04-.6.1a.96.96 0 0 0-.4.3.65.65 0 0 0-.05.74c.07.1.16.17.26.23s.22.1.33.15l.32.1.53.12.46.14c.16.06.32.14.48.24.15.1.28.23.38.38.1.16.15.35.15.58 0 .26-.07.5-.22.7-.15.22-.36.39-.64.51a2.5 2.5 0 0 1-1.03.19c-.37 0-.7-.06-.97-.17a1.53 1.53 0 0 1-.64-.47c-.15-.2-.24-.43-.26-.7h.65c.02.19.08.34.2.46.12.12.26.2.44.26a1.92 1.92 0 0 0 1.23-.02c.2-.07.35-.18.46-.3a.7.7 0 0 0 .17-.47c0-.16-.05-.3-.15-.4-.1-.1-.22-.18-.38-.24a4.22 4.22 0 0 0-.51-.17l-.64-.17c-.41-.1-.73-.26-.97-.46a1 1 0 0 1-.36-.8c0-.27.08-.5.24-.7.16-.21.37-.37.64-.48.27-.11.57-.17.9-.17.34 0 .64.06.9.17.26.1.47.26.62.45.16.2.24.41.25.66h-.61ZM41.59 30v-5h3.15v.54h-2.52v1.69h2.36v.53h-2.36v1.7h2.56V30h-3.2ZM35.57 30H34v-5h1.64c.5 0 .92.1 1.27.3.35.2.62.48.8.86.2.37.29.81.29 1.33s-.1.97-.28 1.35a2 2 0 0 1-.83.86c-.36.2-.8.3-1.32.3Zm-.95-.54h.91c.42 0 .77-.08 1.05-.24.28-.16.48-.38.62-.68.13-.3.2-.64.2-1.05 0-.4-.06-.75-.2-1.04-.13-.3-.33-.52-.6-.68-.27-.15-.6-.23-1-.23h-.98v3.92ZM30 25v5h-.6l-2.74-3.93h-.05V30H26v-5h.6l2.75 3.94h.05V25h.6ZM18.64 30h-.66l1.91-5h.66l1.91 5h-.66l-1.56-4.2h-.04L18.64 30Zm.24-1.95h2.68v.53h-2.68v-.53ZM11.25 30v-5h1.77c.4 0 .74.07 1 .2s.45.31.58.54c.13.24.19.5.19.8 0 .29-.06.55-.19.78-.13.22-.32.4-.58.53-.26.13-.59.2-1 .2H11.6v-.55H13c.28 0 .5-.04.68-.12.17-.08.3-.19.37-.33.08-.14.12-.32.12-.52s-.04-.37-.12-.52a.78.78 0 0 0-.37-.35c-.18-.08-.4-.12-.69-.12h-1.1V30h-.64Zm2.46-2.25L14.99 30h-.73l-1.27-2.25h.72ZM4 30v-5h1.82c.37 0 .67.06.9.18a1.22 1.22 0 0 1 .7 1.15c0 .21-.03.39-.11.53a.9.9 0 0 1-.32.33c-.12.08-.26.14-.41.18v.05c.16.01.32.07.48.16.16.1.3.24.4.42.11.19.17.4.17.67 0 .25-.06.48-.18.68-.12.2-.3.36-.56.47-.26.12-.6.18-1 .18H4Zm.63-.54H5.9c.4 0 .7-.07.88-.23a.72.72 0 0 0 .26-.56.86.86 0 0 0-.14-.47.96.96 0 0 0-.38-.34 1.25 1.25 0 0 0-.6-.14H4.64v1.74Zm0-2.26H5.8c.2 0 .37-.04.52-.11a.89.89 0 0 0 .37-.3c.09-.13.13-.29.13-.46 0-.22-.08-.4-.24-.56-.16-.16-.4-.23-.76-.23H4.63v1.66ZM4 31.5h48v.5H4z" fill="#fff"/></svg>