<?xml version='1.0' encoding='utf-8'?>
<!-- by TradeStack -->
<svg width="56" height="56" viewBox="0 0 56 56" xmlns="http://www.w3.org/2000/svg"><path fill="#F0F3FA" d="M0 0h56v56H0z" /><path d="M41 28.58v3.34c0 .05 0 .07-.04.07h-.83c-.09 0-.13-.04-.13-.12v-9.74c0-.13.06-.16.17-.1l.66.54a.4.4 0 0 1 .14.14c.04.06.03.13.03.2v5.07c0 .05.1.09.16.05 1.03-.83 2.35-1.67 3.39-2.5.3-.24.7-.22 1.07-.2.17 0 .18.05.05.15L42 28.03c-.08.06-.1.2-.02.27l3.97 3.55c.09.1.06.15-.07.15H45a.51.51 0 0 1-.39-.19l-3.43-3.29c-.1-.12-.18-.1-.18.06ZM19.7 25.86c-1.33 1.17 1.5 2.22 2.23 2.62.7.37 1.04.95 1.07 1.52.03.72-.44 1.43-1.36 1.77-1.01.36-2.15.3-3.41-.2-.15-.06-.23-.16-.23-.31v-.19c0-.14.07-.17.2-.12 1.1.46 2.03.54 2.78.25 1.26-.49.92-1.78 0-2.2-1.1-.51-2.82-1-2.82-2.3.02-.47.25-.94.68-1.26.9-.69 2.62-.44 3.63-.13.05.02.1.05.13.1.03.04.04.09.03.14l-.1.7a.1.1 0 0 1-.01.04.12.12 0 0 1-.05.04.13.13 0 0 1-.1 0c-.6-.3-2.1-.97-2.67-.47ZM32.27 30.02a3.23 3.23 0 0 0 3.23 1.97 3.63 3.63 0 0 0 2.47-1.15c.33-.35.59-.75.76-1.18.36-.88.36-1.84 0-2.68a3.23 3.23 0 0 0-3.23-1.97 3.78 3.78 0 0 0-3.23 2.33 3.49 3.49 0 0 0 0 2.68Zm3.12 1.45c-1.12-.04-2.46-1.36-2.39-2.97.07-1.6 1.5-2.9 2.62-2.86 1.12.04 2.42 1.25 2.35 2.86-.06 1.6-1.47 3.01-2.58 2.97Z" /><path fill-rule="evenodd" d="M15.18 31.12c-1.85.15-3.06-.74-3.18-2.69-.01-.15.06-.22.21-.22h4.61c.1 0 .18-.08.18-.17 0-.54-.11-1.06-.33-1.55A2.39 2.39 0 0 0 14.4 25c-.94 0-1.92.43-2.56 1.15-1.22 1.41-1.21 4.45.7 5.42 1.3.66 2.65.56 4.08-.29l.01-.02c.03-.15.03-.3 0-.44-.02-.04-.04-.05-.08-.03-.43.18-.89.3-1.37.33Zm-2.94-3.4h3.7c.06 0 .06-.06.06-.1 0-.93-.97-1.84-1.95-1.84-.85 0-1.88.96-1.88 1.83 0 .05.01.1.07.1ZM50.18 31.12c-1.85.15-3.06-.74-3.18-2.69-.01-.15.06-.22.21-.22h4.61c.1 0 .18-.08.18-.17 0-.54-.11-1.06-.33-1.55A2.39 2.39 0 0 0 49.4 25c-.94 0-1.92.43-2.56 1.15-1.22 1.41-1.21 4.45.7 5.42 1.3.66 2.65.56 4.08-.29l.01-.02c.03-.15.03-.3 0-.44-.02-.04-.04-.05-.08-.03-.43.18-.89.3-1.37.33Zm-2.94-3.4h3.7c.06 0 .06-.06.06-.1 0-.93-.97-1.84-1.95-1.84-.85 0-1.88.96-1.88 1.83 0 .05.01.1.07.1ZM26 34.85v-3.28c0-.14.1-.17.24-.1.6.33 1.2.5 1.76.53 1.1.04 2.06-.55 2.64-1.85.22-.52.36-1.05.36-1.74 0-1.12-.36-2.29-1.25-2.92a2.5 2.5 0 0 0-2.2-.39 2.6 2.6 0 0 0-1.07.72l-.18.17c-.21.2-.35-.4-.3-.68.02-.16-.03-.31-.19-.31h-1.16c-.32 0-.37.1-.12.31.38.34.47 1.37.47 1.84v6.91c0 .15.1.3.23.38l.6.52c.14.08.17.04.17-.1Zm0-4.17c0 .13.1.22.23.27 2.45 1 3.74-.9 3.77-2.45.01-.93-.33-2.7-2.3-2.7-.53.17-1.7.78-1.7 1.46v3.42ZM5.1 25.88c-.03.03-.1 0-.1-.04V22.8c0-.11-.05-.2-.16-.26l-.66-.52a.13.13 0 0 0-.06-.02.12.12 0 0 0-.12.12v9.1c0 .18.09.3.25.37 3.41 1.4 6.48-.98 5.6-4.57A2.64 2.64 0 0 0 7 25c-.69.05-1.37.33-1.9.87ZM9 28.5c0-2.5-2.45-3.76-3.92-1.92a.36.36 0 0 0-.08.23v4.05c0 .1.04.16.13.2.41.19.93.31 1.44.3C7.95 31.37 9 29.84 9 28.5Z" /></svg>