<!-- by TradeStack --><svg viewBox="0 0 56 56" xmlns="http://www.w3.org/2000/svg"><path fill="#F0F3FA" d="M0 0h56v56H0z"/><path d="M18.14 37.4c.4-.28.96-.63 1.5-.96.54-.33 1.05-.65 1.36-.88a91.64 91.64 0 0 0 10.97-9.26 51.78 51.78 0 0 0 10.26-13.9c.02-.04.03-.09.02-.14a.26.26 0 0 0-.19-.22c-.73-.2-2.21.37-3.44.84-.57.22-1.08.42-1.44.5-1.2.3-2.41.4-3.64.46-1.05.03-2 .65-1.68 1.82.6 2.18.4 4.58-.59 7.2a.22.22 0 0 1-.19.14.21.21 0 0 1-.2-.12 7.3 7.3 0 0 1-.56-1.64 32.94 32.94 0 0 0-1-3.6 5.66 5.66 0 0 0-.66-1.41c-.09-.13-.22-.23-.37-.23-.29 0-.64.25-.78.54-.41.8-.8 1.86-1.14 2.88-.1.29-.27.56-.55.72l-.33.18c-1.03.56-1.84 1-1.5 2.49l.65 2.97c.17.76.37 2.2-.34 2.78-.08.07-.2.1-.3.06a.34.34 0 0 1-.24-.2l-.22-.58c-.27-.72-.52-1.4-.77-2.3-.07-.26-.27-.54-.63-.54-1.14 0-1.47 4.01-1.46 4.95 0 .3.03.58.05.88.05.72.1 1.44-.11 2.13-.3.97-.74 2.05-1.57 2.72l-1.11.7-.48.3c-2.19-2.4-3.96-5.18-3.96-8.68a14.53 14.53 0 0 1 17.48-14.37l.78-1.18a16 16 0 0 0-15.59 26.34l1.61-1.13.02-.01.02-.02.32-.23Zm1.56 1.8.07-.04c.29-.16.6-.24.96-.23.33 0 .67-.01 1-.03.75-.03 1.5-.07 2.24.15l.3.1c.85.25 1.73.51 2.6.3.94-.24 1.87-.34 2.8-.31.46.02 1.6-.15 1.75-.71a.38.38 0 0 0-.03-.27c-.15-.33-.74-.68-1.2-.96l-.39-.23c-.58-.4-.99-.92-1.21-1.58-.08-.2-.13-.5-.18-.72l-.01-.05c-.09-.42-.02-.63.2-.63.12 0 .27.05.46.15l.32.17c1.32.71 4.1 2.22 4.98.89.18-.28.33-.55.48-.8.46-.83.87-1.55 1.95-2.03 1.05-.46 2.08-.91 3.1-1.34.36-.15 1.11-.55 1.11-.9 0-.36-.45-.63-.7-.75-.18-.1-.5-.22-.88-.37-1.32-.51-3.43-1.34-3.42-2.14.01-.66 1.4-.75 1.84-.7l3.11.36c1.84.2 3.04-.6 3.05-2.16 0-.24-.02-.5-.07-.77a51.7 51.7 0 0 0-.13-.7 9.74 9.74 0 0 1-.25-3.6c.15-.84.29-1.7.41-2.57.12-.9-.05-1.64-.27-2.6l-.18-.78c-.03-.17-.19-.35-.37-.35a.3.3 0 0 0-.27.16 43.37 43.37 0 0 1-4.35 7.1 68.45 68.45 0 0 1-6.53 7.15c-3.86 3.7-7.83 7.12-12.14 10.12-1.25.87-2.5 1.76-3.74 2.68-.16.13-.15.17.06.13.17-.03.33-.1.49-.18.1-.06.2-.1.32-.11l.42-.07a16 16 0 0 0 26.55-13.24l-1.3.28.02.98c0 8.1-6.57 14.5-14.67 14.5-4.52 0-6.65-1.48-8.3-3.3Z" fill="url(#akav3i3c2)"/><defs><linearGradient id="akav3i3c2" x1="43.36" y1="13.21" x2="14.68" y2="37.85" gradientUnits="userSpaceOnUse"><stop stop-color="#57AC2C"/><stop offset="1" stop-color="#366720"/></linearGradient></defs></svg>