<!-- by TradeStack --><svg viewBox="0 0 56 56" xmlns="http://www.w3.org/2000/svg"><path fill="#F0F3FA" d="M0 0h56v56H0z"/><path d="M19.36 13.22c-2.9.62-2.7.7 1.12.5 4.72-.23 8.43.5 12.65 2.58 5.53 2.73 9.16 6.89 9.67 11.08.65 5.7-5.5 12.89-13.8 16.08l-1.36.54 1.35-.23c3.83-.7 7.93-3.12 11.49-6.81 3.17-3.27 4.52-5.93 4.52-8.93.08-7.58-9.36-14.54-20.26-15-2.01-.08-4.45 0-5.38.2Z" fill="#6B0851"/><path d="M19.34 15.59c-6.04 2.03-9.14 6.37-8.16 11.48.8 4.02 4.08 9.68 6.92 11.95 2.94 2.36 4.42 2.91 8.08 2.91 3.18 0 3.6-.12 6.24-1.47 3.4-1.8 6.99-5.34 8.43-8.37a9.42 9.42 0 0 0 .22-7.82c-1.55-3.58-6.5-7.29-11.52-8.64-2.69-.72-8.1-.76-10.2-.04Zm11.57 2.75c3.06 1.35 4.72 2.87 5.85 5.3 1.25 2.67 1.14 4.82-.41 8.45-1.21 2.87-4.27 6.1-6.46 6.85-1.93.68-5.33.32-7.52-.8-2.27-1.15-6.96-5.97-7.94-8.16-1.74-3.95-.8-7.66 2.6-10.09 2.5-1.75 4.77-2.43 8.55-2.43 2.53 0 3.66.16 5.33.88Z" fill="#6B0851"/><path d="M23.98 19.34c-5.16.67-8.73 3.6-8.73 7.15 0 2.29.58 3.37 2.99 5.62 4.8 4.5 10 4.83 14.4.9a12.68 12.68 0 0 0 3.75-6.1c1.01-4.61-5.39-8.5-12.41-7.57Zm4.7 2.8c.73.35 1.82 1.2 2.48 1.88 1.98 2.2 1.47 5.47-1.28 7.98-3.07 2.8-7.5 1.5-10.44-3.15-.85-1.39-.9-3.86-.08-4.98 1.55-2.13 6.44-3.03 9.31-1.72Z" fill="#6B0851"/><path d="M23.07 22.94c-1.7.86-2.83 2.69-2.43 4.05a8.1 8.1 0 0 0 3.11 4c2.57 1.44 5.47.24 6.84-2.8.76-1.7.76-1.86.18-3.15-1.12-2.53-4.77-3.5-7.7-2.1Z" fill="#6B0851"/></svg>