<!-- by TradeStack --><svg width="56" height="56" viewBox="0 0 56 56" xmlns="http://www.w3.org/2000/svg"><path fill="#F0F3FA" d="M0 0h56v56H0z"/><path fill-rule="evenodd" d="M15 18.13 28 10l13 8.13v10.06l-3.15 1.94L41 32.06v6.97L28 46l-13-6.97v-20.9Zm5 7.72v-5.3L28 16l8 4.55v5.3l-8 4.54-1.52-.75-4.2 2.65 5.72 3.6 8-4.74v4.93L28 40l-8-3.92v-4.93l8-4.92 2.29 1.13 4.19-2.65-6.48-3.4-8 4.54Z" fill="url(#aacyrmbye)"/><defs><linearGradient id="aacyrmbye" x1="28" y1="10" x2="28" y2="46" gradientUnits="userSpaceOnUse"><stop stop-color="#FDC412"/><stop offset="1" stop-color="#C45367"/></linearGradient></defs></svg>