<!-- by TradeStack --><svg width="56" height="56" viewBox="0 0 56 56" xmlns="http://www.w3.org/2000/svg"><path fill="#F0F3FA" d="M0 0h56v56H0z"/><path d="M13.92 34 11 39h8.3l2.65-5h-8.03Z" fill="#D79F40"/><path d="M22 34h-8.06l4.1-7L22 34Z" fill="#BFC6D6"/><path d="M26 27h-7.96L22 34l4-7Z" fill="#8596B0"/><path d="M26 27h-7.96l4.01-6.84L26 27Z" fill="#002C4B"/><path d="M37.98 27H26l6.14-10 5.84 10Z" fill="#8596B0"/><path d="M30.27 34H22l4-7 4.27 7Z" fill="#D79F40"/><path d="M42.1 34H30.25L26 27h11.98l4.11 7Z" fill="#002C4B"/><path d="m24.61 39-2.65-5-2.66 5h5.31Z" fill="#8696B0"/><path d="m24.58 39-2.62-5h8.3L33 39h-8.4Z" fill="#002C4B"/><path d="m32.95 39-2.69-5h11.82L45 39H32.95Z" fill="#526D8B"/><path d="m26 27-3.95-6.85L28 10l4.14 7L26 27Z" fill="#D79F40"/></svg>