<!-- by TradeStack --><svg width="56" height="56" viewBox="0 0 56 56" xmlns="http://www.w3.org/2000/svg"><path fill="#F0F3FA" d="M0 0h56v56H0z"/><path d="M17.88 21.9a2 2 0 0 1 1.66 1.94c0 1.52-1.5 2.16-2.83 2.16H13v-7.99h3.55c1.26 0 2.8.57 2.8 2.06 0 .9-.63 1.59-1.47 1.83Zm-3.38-.65h1.8c.83 0 1.28-.3 1.28-.94 0-.64-.46-.81-1.28-.81h-1.8v1.75Zm1.96 3.25c.85 0 1.54-.2 1.54-.86 0-.75-.9-.89-1.58-.89H14.5v1.75h1.96ZM22.5 19.5v1.75H26v1.5h-3.5v1.75H26V26h-5v-8h5v1.5h-3.5ZM29 18v8h-1.5v-8H29ZM37 18v1.3h-2.5V26H33v-6.7h-2.5V18H37ZM39.5 19.5v1.75H43v1.5h-3.5v1.75H43V26h-5v-8h5v1.5h-3.5ZM8.5 31.25V29.5H12V28H7v8h5v-1.5H8.5v-1.75H12v-1.5H8.5ZM18.5 36H20v-8h-1.5v5.48l-4-5.48H13v8h1.5v-5.44l4 5.44ZM23 29.5v1.75h3v1.5h-3v1.75h3V36h-4.5v-8H26v1.5h-3ZM29.5 33h.95l1.8 3h1.9l-1.95-3.24c1.07-.28 1.85-1.12 1.85-2.26 0-1.62-1.49-2.5-2.94-2.5H28v8h1.5v-3Zm1.55-1.5H29.5v-2h1.55c.88 0 1.32.31 1.32 1.04 0 .72-.42.96-1.32.96ZM40.9 30.46c-.37-.66-1.04-1.01-1.9-1.01-1.48 0-2.49 1.11-2.49 2.56 0 1.49 1.05 2.58 2.55 2.58 1.08 0 1.94-.58 2.26-1.59H39v-1.42h4v1.37C42.63 34.8 40.84 36 39 36c-2.28 0-4.17-1.66-4.17-4 0-2.32 1.88-4 4.16-4 1.65 0 3.26.82 3.8 2.46h-1.88ZM47.25 33.2 50 28h-1.82l-1.75 3.68L44.68 28h-1.85l2.92 5.2V36h1.5v-2.8Z"/></svg>