<!-- by TradeStack --><svg viewBox="0 0 56 56" xmlns="http://www.w3.org/2000/svg"><path fill="#1694AA" d="M0 0h56v56H0z"/><path d="M26 29h1v.96a2.41 2.41 0 0 1 1.98-.96c1.42 0 2.02.93 2.02 2.24V35h-1v-3.7c0-.95-.44-1.3-1.21-1.3-1.18 0-1.79.8-1.79 1.93V35h-1v-6ZM31 27h-1v-.96c-.58.68-1.19.96-1.98.96-1.42 0-2.02-.93-2.02-2.24V21h1v3.7c0 .95.44 1.3 1.21 1.3 1.18 0 1.79-.8 1.79-1.93V21h1v6ZM21.45 33.3c0 .53.36.7.88.7.87 0 1.67-.4 1.67-1.3v-.78c-.41.29-1 .3-1.49.37-.58.08-1.06.33-1.06 1.01ZM24 30.73c0-.56-.44-.73-1.25-.73-.7 0-1.12.32-1.2 1h-.83c.03-1.2.88-2 2.05-2 1.01 0 2.23.4 2.23 1.57v3.27c0 .2.06.32.3.32.08 0 .18 0 .29-.03v.77a3 3 0 0 1-.75.1c-.53 0-.78-.47-.84-.94-.42.6-1.16.94-1.88.94-.95 0-1.67-.73-1.67-1.68 0-1 .7-1.63 1.66-1.76.65-.08 1.89.1 1.89-.83ZM21.45 25.3c0 .53.36.7.88.7.87 0 1.67-.4 1.67-1.3v-.78c-.41.29-1 .3-1.49.37-.58.08-1.06.33-1.06 1.01ZM24 22.73c0-.56-.44-.73-1.25-.73-.7 0-1.12.32-1.2 1h-.83c.03-1.2.88-2 2.05-2 1.01 0 2.23.4 2.23 1.57v3.27c0 .2.06.32.3.32.08 0 .18 0 .29-.03v.77a3 3 0 0 1-.75.1c-.53 0-.78-.47-.84-.94-.42.6-1.16.94-1.88.94-.95 0-1.67-.73-1.67-1.68 0-1 .7-1.63 1.66-1.76.65-.08 1.89.1 1.89-.83ZM8 33c.08.87.74 1.2 1.57 1.2.59 0 1.43-.21 1.43-.94 0-.6-.77-.71-1.22-.82l-1.02-.19C8 32.07 7 31.75 7 30.8 7 29.55 8.36 29 9.45 29c1.06 0 2.37.52 2.35 1.77h-.97c-.06-.75-.8-.96-1.45-.96-.77 0-1.38.3-1.38.75 0 .54.63.72 1.06.82l.88.15c.93.21 2.06.45 2.06 1.62C12 34.5 10.65 35 9.52 35c-1.3 0-2.45-.58-2.52-2h1ZM13.1 29l1.17 4.73L15.44 29h1.14l1.18 4.7 1.23-4.7H20l-1.75 6H17.2l-1.23-4.64L14.8 35h-1.05L12 29h1.1ZM47 20h1v1h1v1h-1v3.78c0 .38.32.43.62.43l.38-.01v.71c-.25.06-.5.09-.83.09-.77 0-1.17-.36-1.17-1.17V22h-1v-1h1v-1ZM43 20h1v1h1v1h-1v3.78c0 .38.32.43.62.43l.38-.01v.71c-.25.06-.5.09-.83.09-.77 0-1.17-.36-1.17-1.17V22h-1v-1h1v-1ZM39.52 21C41.4 21 42 22.73 42 24.27h-4c.03.96.43 1.73 1.52 1.73.72 0 1.3-.3 1.48-1h.92c-.14 1.24-1.24 2-2.4 2C37.9 27 37 25.53 37 24.07c0-1.54.83-3.07 2.52-3.07ZM41 23.51c-.08-.9-.48-1.51-1.48-1.51-.92 0-1.49.66-1.52 1.51h3ZM39.52 29C41.4 29 42 30.73 42 32.27h-4c.03.96.43 1.73 1.52 1.73.72 0 1.3-.3 1.48-1h.92c-.14 1.24-1.24 2-2.4 2C37.9 35 37 33.53 37 32.07c0-1.54.83-3.07 2.52-3.07ZM41 31.51c-.08-.9-.48-1.51-1.48-1.51-.92 0-1.49.66-1.52 1.51h3ZM32 19h1v4.65L35.7 21H37l-2.44 2.35L37 27h-1.3l-1.88-2.94-.82.75V27h-1v-8ZM32 27h1v4.65L35.7 29H37l-2.44 2.35L37 35h-1.3l-1.88-2.94-.82.75V35h-1v-8Z" fill="#F6FBFC"/></svg>