<!-- by TradeStack --><svg width="56" height="56" viewBox="0 0 56 56" xmlns="http://www.w3.org/2000/svg"><path fill="url(#aby3zmfwa)" d="M0 0h56v56H0z"/><path d="M46 30.64v-.5c.86.24 1.86.37 3 .37 1.68 0 2.47-.08 2.47-.41 0-.32-.64-.34-1.98-.37h-1.07c-1.59 0-2.37-.1-2.37-.79 0-.7.97-.94 2.97-.94 1.12 0 2.08.12 2.88.3v.5l-.19-.04a14 14 0 0 0-2.73-.26c-1.6 0-2.4.14-2.4.43 0 .28.61.3 1.84.3h1.03c1.7 0 2.55.17 2.55.85 0 .77-.98.92-2.97.92-1.18 0-2.18-.12-3.03-.36Z" fill="#30A6D6"/><path d="M40 30.64v-.5c.86.24 1.86.37 3 .37 1.68 0 2.47-.08 2.47-.41 0-.32-.64-.34-1.98-.37h-1.07c-1.59 0-2.37-.1-2.37-.79 0-.7.97-.94 2.97-.94 1.12 0 2.08.12 2.88.3v.5l-.19-.04a14 14 0 0 0-2.73-.26c-1.6 0-2.4.14-2.4.43 0 .28.61.3 1.84.3h1.03c1.7 0 2.55.17 2.55.85 0 .77-.98.92-2.97.92-1.18 0-2.18-.12-3.03-.36ZM39.38 31l-.69-.8h-3.4l-.68.8H34l2.56-3h.88L40 31h-.62Zm-2.54-2.6-1.1 1.27h2.5l-1.1-1.28h-.3ZM34 31h-6v-3h.58v2.43H34V31ZM27.95 28.4v.53c-1-.29-2.1-.43-3.28-.43-2.03 0-3.09.45-3.09 1.05 0 .66 1.04.96 3.12.96a10 10 0 0 0 2.79-.27v-.35H24.4v-.5H28v1.18c-.72.3-1.88.43-3.5.43-2.34 0-3.5-.45-3.5-1.43 0-.97 1.26-1.57 3.69-1.57 1.14 0 2.22.14 3.26.4Z" fill="#30A6D6"/><path d="M15 28h.53v1.34c0 .44.07.68.31.83.48.3 1.18.31 2.14.31.88 0 1.56 0 2.06-.23.34-.17.44-.42.44-.9V28H21v1.34c0 .63-.16 1.02-.56 1.27-.55.35-1.34.39-2.44.39-.98 0-1.73-.04-2.24-.28-.55-.26-.76-.66-.76-1.38V28ZM4 31v-3h4.88c.72 0 1.08.23 1.08.77 0 .33-.15.57-.45.71a.7.7 0 0 1 .49.7.8.8 0 0 1-.4.71c-.15.1-.38.11-.72.11H4Zm.52-.53h4.37c.39 0 .57-.08.57-.36 0-.25-.18-.37-.57-.37H4.52v.73Zm0-1.25h4.37c.37 0 .55-.11.55-.36 0-.27-.19-.34-.54-.34H4.52v.7Z" fill="#FFFEFF"/><path d="M15 31h-5v-3h.48v2.43H15V31Z" fill="#FFFEFF"/><circle cx="43.5" cy="26.5" r=".5" fill="#FFFEFF"/><circle cx="44.5" cy="25.5" r=".5" fill="#FFFEFF"/><circle cx="46.5" cy="25.5" r=".5" fill="#FFFEFF"/><path d="M49 26.37c0 .2-.17.37-.38.37a.37.37 0 0 1-.37-.37.37.37 0 0 1 .75 0Z" fill="#FFFEFF"/><circle cx="49.72" cy="26.44" fill="#FFFEFF" r=".28"/><ellipse cx=".38" cy=".37" rx=".38" ry=".37" transform="matrix(-1 0 0 1 42.75 26)" fill="#FFFEFF"/><ellipse cx=".37" cy=".38" rx=".37" ry=".38" transform="matrix(0 -1 -1 0 45.86 23.85)" fill="#FFFEFF"/><path d="M43.1 24.1a.37.37 0 0 0 .01.53c.15.15.39.15.53 0a.37.37 0 0 0 0-.52.38.38 0 0 0-.53 0Z" fill="#FFFEFF"/><circle cx=".28" cy=".28" transform="matrix(-1 0 0 1 41.56 26.17)" fill="#FFFEFF" r=".28"/><path d="M47.89 24.1a.37.37 0 0 1 0 .53.38.38 0 0 1-.53 0 .37.37 0 0 1 0-.52.38.38 0 0 1 .53 0Z" fill="#FFFEFF"/><circle cx=".28" cy=".28" transform="matrix(0 -1 -1 0 45.77 22.56)" fill="#FFFEFF" r=".28"/><path d="M42.19 23.3c-.11.1-.11.28 0 .39.1.1.29.1.4 0a.27.27 0 0 0 0-.4.29.29 0 0 0-.4 0ZM48.59 23.3c.11.1.1.28 0 .39-.11.1-.3.1-.4 0a.27.27 0 0 1 0-.4c.11-.1.29-.1.4 0Z" fill="#FFFEFF"/><ellipse cx="47.5" cy="26.49" rx=".5" ry=".49" fill="#FFFEFF"/><circle cx="45.5" cy="24.5" r=".5" fill="#FFFEFF"/><defs><linearGradient id="aby3zmfwa" x1="56" y1="28" x2="0" y2="28" gradientUnits="userSpaceOnUse"><stop stop-color="#192651"/><stop offset="1" stop-color="#10101C"/></linearGradient></defs></svg>