<!-- by TradeStack --><svg width="56" height="56" viewBox="0 0 56 56" xmlns="http://www.w3.org/2000/svg"><path fill="#F0F3FA" d="M0 0h56v56H0z"/><path d="M19.78 11c-3.7 0-5.4 3.13-5.78 4.69v24.62c0 3.28 3.85 4.5 5.78 4.69h12.7c11.56 0 10.21-13.1 6.94-17 6.93-11.26-1.73-17-6.93-17H19.78Z" fill="#2FC7FA"/><path d="M24.78 11c-3.7 0-5.4 3.13-5.78 4.69v24.62c0 3.28 3.85 4.5 5.78 4.69h7.7c11.56 0 10.21-13.1 6.94-17 6.93-11.26-1.73-17-6.93-17h-7.71Z" fill="#2681FA"/><path d="M32.67 11c-3.63 0-5.3 3.13-5.67 4.69v24.62c0 3.28 3.78 4.5 5.67 4.69 11.33 0 10.01-13.1 6.8-17 6.8-11.26-1.7-17-6.8-17Z" fill="#185FCF"/></svg>