<?xml version='1.0' encoding='utf-8'?>
<!-- by TradeStack -->
<svg width="56" height="56" viewBox="0 0 56 56" xmlns="http://www.w3.org/2000/svg"><path fill="#52627C" d="M0 0h56v56H0z" /><path d="M9.32 23c1.38 0 2.51.22 3.2.65.7.43 1.04 1.07 1.04 1.92 0 .3-.06.6-.17.87-.1.26-.26.48-.47.65a4.84 4.84 0 0 1-.6.38 15.62 15.62 0 0 1-.93.28 9 9 0 0 1 1.17.34 2.41 2.41 0 0 1 .76.5c.52.43.78 1 .78 1.7 0 .42-.09.8-.26 1.14-.18.33-.43.62-.77.86-.33.23-.73.4-1.2.52-.47.13-1 .19-1.59.19H5v-.28c.32 0 .48-.03.67-.06.2-.05.36-.12.47-.22.11-.1.19-.22.22-.4.04-.17.06-.4.06-.67v-6.72c0-.28-.02-.5-.06-.67a.65.65 0 0 0-.2-.4.95.95 0 0 0-.47-.2c-.2-.03-.36-.06-.69-.08V23h4.32Zm-1.31 8.82c0 .25.07.42.2.5.14.08.4.12.77.12h.83l.6-.07a3.34 3.34 0 0 0 .9-.32c.65-.36.98-.94.98-1.75 0-.95-.46-1.6-1.37-1.93a3.45 3.45 0 0 0-1.07-.21 16.42 16.42 0 0 0-1.84-.08v3.74Zm1.52-4.35c.75 0 1.42-.15 1.82-.46.4-.32.6-.78.6-1.38 0-.69-.23-1.2-.7-1.55a3.88 3.88 0 0 0-2.2-.51h-.68c-.24 0-.36.15-.36.45v3.45h1.52ZM23.97 33h-8.34v-.28c.28-.02.51-.05.69-.09a.82.82 0 0 0 .41-.21c.1-.1.17-.23.2-.4.05-.17.07-.38.07-.65v-6.72c0-.26-.02-.48-.06-.64a.68.68 0 0 0-.2-.4.91.91 0 0 0-.42-.21c-.18-.05-.4-.08-.7-.1V23h8.21l.03 2.17h-.37a4.13 4.13 0 0 0-.25-.82c-.1-.21-.23-.38-.4-.49-.17-.11-.4-.19-.68-.23a8.85 8.85 0 0 0-1.08-.05h-1.96c-.2 0-.35.03-.43.1-.06.06-.1.2-.1.42v3.28h2.25c.33 0 .59-.02.8-.05.2-.04.36-.1.48-.2.13-.1.22-.25.29-.44.06-.18.12-.38.18-.69H23v3.46h-.41a4.99 4.99 0 0 0-.18-.76.92.92 0 0 0-.28-.43.96.96 0 0 0-.48-.21c-.2-.04-.47-.06-.8-.06H18.6v3.8c0 .15 0 .26.03.33.01.07.05.12.1.16.07.04.24.08.52.11s.45.04.83.04h.45c.56 0 1.03-.02 1.4-.07.4-.06.72-.16.99-.3.28-.16.51-.36.72-.62.2-.25.4-.59.6-1h.45L23.97 33ZM35.87 23.3c-.24.01-.46.04-.65.08-.18.04-.36.1-.52.2-.17.1-.34.24-.53.43-.17.17-.39.41-.65.71l-2.3 2.75 3.04 4.13c.16.22.3.4.43.54a1.42 1.42 0 0 0 .79.49l.53.1V33h-4.68v-.28l.41-.04c.53 0 .79-.15.79-.43 0-.23-.27-.73-.8-1.49l-1.5-2.11-1.9 2.23c-.28.36-.48.63-.61.84-.13.2-.2.35-.2.46 0 .18.09.3.25.38.18.07.5.13.96.16V33h-3.68v-.28l.5-.06c.12-.04.26-.11.41-.22.15-.11.32-.28.53-.5l.84-.94 2.47-2.92-1.7-2.4-.96-1.26c-.25-.31-.47-.55-.67-.7-.2-.17-.38-.28-.56-.32-.19-.06-.41-.09-.67-.1V23h4.77v.3h-.44c-.5.01-.76.16-.76.45 0 .17.1.43.3.78.21.35.57.84 1.05 1.49l.65.88 1.79-2.09c.24-.28.4-.5.48-.63.1-.15.14-.28.14-.4 0-.18-.07-.3-.22-.36a2.46 2.46 0 0 0-.87-.12V23h3.74v.3ZM38 24.65c0-.28-.02-.5-.06-.67a.65.65 0 0 0-.2-.4.95.95 0 0 0-.47-.2c-.2-.03-.47-.06-.8-.08V23h4.68v.3c-.33.01-.6.04-.8.08-.2.04-.36.1-.47.2a.72.72 0 0 0-.22.41c-.04.17-.06.39-.06.66v6.72c0 .28.02.5.06.68.05.17.12.3.23.4.11.1.27.16.47.2.2.04.47.06.8.07V33h-4.7v-.28c.34 0 .6-.03.8-.06.21-.05.36-.12.46-.22.11-.1.19-.22.22-.4.04-.16.06-.38.06-.67v-6.72ZM51 30.38 50.23 33h-8.6v-.28c.3-.02.52-.05.7-.09a.82.82 0 0 0 .41-.21c.1-.1.17-.23.21-.4.04-.17.05-.38.05-.65v-6.72c0-.26-.01-.48-.05-.64a.68.68 0 0 0-.2-.4.91.91 0 0 0-.42-.21c-.18-.05-.4-.08-.7-.1V23H46v.3c-.31.02-.5.05-.69.1-.19.03-.34.1-.44.2-.1.1-.17.24-.2.4a3.1 3.1 0 0 0-.06.65v7.15c0 .13.01.24.04.33.04.08.1.14.2.18.1.05.25.08.42.1H47.14c.68 0 1.23-.07 1.68-.22.45-.15.82-.38 1.1-.68a10.74 10.74 0 0 0 .68-1.12h.4Z" fill="#DAD9B9" /></svg>