<?xml version='1.0' encoding='utf-8'?>
<!-- by TradeStack -->
<svg width="56" height="56" viewBox="0 0 56 56" xmlns="http://www.w3.org/2000/svg"><path fill="#F0F3FA" d="M0 0h56v56H0z" /><path d="M13.2 27H11v-5h2.36c.8.01 1.48.44 1.48 1.3 0 .45-.2.8-.59 1.02.5.18.75.6.75 1.17 0 1.06-.86 1.51-1.8 1.51Zm-.03-2H12v1h1.16c.46 0 .84 0 .84-.5 0-.48-.42-.5-.83-.5Zm.7-1.5c0-.49-.45-.5-.84-.5H12v1h1.16c.42 0 .71-.08.71-.5ZM19.5 25H17v1h3v1h-4v-5h4v1h-3v1h2.5v1ZM26 27h-1.43l-1.07-1.7-1.13 1.7H21l1.81-2.55L21 22h1.5l1 1.62L24.53 22H26l-1.83 2.41L26 27ZM27 22h1v5h-1v-5ZM30 27h-1v-5h1.57l.94 3.93.94-3.93H34v5h-1v-4l-.98 4h-1.05L30 23l.01 4ZM34 34h-1v-5h1.57l.94 3.93.94-3.93H38v5h-1v-4l-.98 4h-1.05L34 30l.01 4ZM37.08 27c-1.4 0-2.08-1.2-2.08-2.48 0-1.24.64-2.52 2.03-2.52.98 0 1.92.64 1.97 1.68h-.94c-.13-.5-.44-.68-1-.68-.68 0-1.06.46-1.06 1.53 0 .7.22 1.47 1.07 1.47.57 0 .86-.25.99-.76h.93c-.15 1-.87 1.76-1.9 1.76ZM42 27c-1.4 0-2-1.24-2-2.5s.6-2.5 2-2.5 2 1.24 2 2.5-.6 2.5-2 2.5Zm1-2.5c0-1.06-.3-1.5-1-1.5-.69 0-1 .44-1 1.5s.31 1.5 1 1.5c.7 0 1-.43 1-1.5ZM13.2 32H12v2h-1v-5h2.28c.99 0 1.72.55 1.72 1.58 0 1.13-.74 1.42-1.8 1.42Zm.8-1.5c0-.5-.38-.5-.9-.5H12v1h1.1c.52 0 .9 0 .9-.5ZM20 34v-2h-2v2h-1v-5h1v2h2v-2h1v5h-1ZM25.46 33h-1.94l-.37 1H22l1.88-5h1.25L27 34h-1.2l-.34-1Zm-.3-1-.66-2-.68 2h1.34ZM42.46 33h-1.94l-.37 1H39l1.88-5h1.25L44 34h-1.2l-.34-1Zm-.3-1-.66-2-.68 2h1.34ZM30.01 32H29v2h-1v-5h2.35c.86.02 1.58.5 1.58 1.42 0 .51-.25 1.01-.75 1.2.22.08.38.22.47.39.1.17.14.43.14.78v.33c0 .25-.03.6.21.75V34h-1.1c-.07-.23-.1-.46-.11-.7v-.46c-.01-.32-.07-.53-.18-.64-.1-.1-.3-.2-.6-.2Zm.99-1.43c0-.5-.4-.57-.86-.57H29v1h1.11c.44 0 .89 0 .89-.43Z" fill="#046AB1" /><path fill-rule="evenodd" d="M10.33 17A2.32 2.32 0 0 0 8 19.3v17.4c0 1.27 1.04 2.3 2.33 2.3h35.34A2.32 2.32 0 0 0 48 36.7V19.3c0-1.27-1.04-2.3-2.33-2.3H10.33Zm.56 2C9.85 19 9 19.9 9 21.03v13.94C9 36.1 9.85 37 10.9 37h34.2c1.05 0 1.9-.9 1.9-2.03V21.03c0-1.12-.85-2.03-1.9-2.03H10.9Z" fill="#046AB1" /></svg>