<?xml version='1.0' encoding='utf-8'?>
<!-- by TradeStack -->
<svg width="56" height="56" viewBox="0 0 56 56" xmlns="http://www.w3.org/2000/svg"><path fill="url(#atqrp23fd)" d="M0 0h56v56H0z" /><path fill-rule="evenodd" d="M6.1 27H4v-5h2.12C7.65 22 9 22.85 9 24.5 9 26.16 7.64 27 6.1 27ZM5 26h1.05C7.08 26 8 25.56 8 24.5S7.08 23 6.05 23H5v3Zm6-3v4h-1v-4h1Zm2.64 3.04L12.67 23h-.94l1.38 4h1.09l1.38-4h-.94l-.97 3.04h-.03ZM23 27v-4h2.5v.7H24v.95h1.36v.7H24v.95h1.5v.7H23Zm8-4v4h-.87l-2.08-2.52H28V27h-1v-4h.89l2.06 2.52H30V23h1Zm-14 4v-4h-1v4h1Zm1 0h1.56c1.22 0 2.16-.74 2.16-2s-.94-2-2.15-2H18v4Zm1.52-.72H19v-2.56h.53c.8 0 1.26.47 1.26 1.28 0 .8-.46 1.28-1.27 1.28Zm14.16.72H32v-4h1.7c1.22 0 2.3.68 2.3 2 0 1.32-1.09 2-2.32 2Zm-.68-.73h.64c.82 0 1.36-.42 1.36-1.27 0-.85-.54-1.28-1.36-1.28H33v2.55Zm5 .73h.94l.34-1h1.44l.34 1H42l-1.43-4h-1.14L38 27Zm2.5-1.66-.48-1.43h-.04l-.48 1.43h1ZM47 27v-4h-1v2.52h-.05L43.9 23H43v4h1v-2.52h.05L46.13 27H47Zm2.68 0H48v-4h1.7c1.22 0 2.3.68 2.3 2 0 1.32-1.09 2-2.32 2Zm-.68-.72h.64c.82 0 1.36-.43 1.36-1.28 0-.85-.54-1.28-1.36-1.28H49v2.56ZM33 29v5h1v-2h2v-1h-2v-1h2v-1h-3Zm8 1h-1v2.49a.8.8 0 0 1-.48.68c-.15.06-.32.1-.52.1s-.37-.04-.52-.1a.82.82 0 0 1-.34-.28.71.71 0 0 1-.14-.4V30h-1v2.56c0 .29.08.54.25.76.17.21.4.38.7.5.3.12.65.18 1.05.18s.75-.06 1.05-.18c.3-.12.53-.29.7-.5.17-.22.25-.47.25-.76V30Zm5 4h-.87l-2.08-2.52H43V34h-1v-4h.89l2.06 2.52H45V30h1v4Zm1 0h1.68c.48 0 .9-.08 1.24-.24.35-.16.61-.39.8-.69.19-.3.28-.66.28-1.07 0-.42-.1-.78-.28-1.07a1.8 1.8 0 0 0-.8-.69A2.9 2.9 0 0 0 48.7 30H47v4Zm1.64-.72H48v-2.56h.64c.3 0 .55.05.75.14.2.09.35.22.45.41.1.19.16.43.16.73s-.05.54-.16.73a.93.93 0 0 1-.45.41c-.2.1-.45.14-.75.14ZM6 34v-5H5v5h1Zm6 0v-4h-1v2.52h-.05L8.9 30H8v4h1v-2.52h.05L11.13 34H12Zm9-2c0 1.16-.84 2-2 2-1.16 0-2-.84-2-2 0-1.16.83-2 2-2 1.16 0 2 .84 2 2Zm-1 0c0-.67-.27-1.27-1-1.27s-1 .6-1 1.27.27 1.27 1 1.27 1-.6 1-1.27Zm2-2h1.2l1.27 1.85h.06L25.8 30H27v4h-1v-2.6h-.03L24.82 33h-.64l-1.14-1.61H23V34h-1v-4Zm6 0h2.5v.7H29v.95h1.36v.7H29v.95h1.5v.7H28v-4Zm-11.72.15c-.3-.1-.61-.15-.95-.15-1.2 0-2.33.7-2.33 2s1.13 2 2.33 2c.34 0 .66-.05.95-.14v-.95c-.08.09-.18.16-.29.22-.19.1-.41.14-.66.14-.77 0-1.33-.51-1.33-1.27s.56-1.27 1.33-1.27c.25 0 .47.05.66.14.11.06.2.13.29.22v-.94Z" fill="#fff" /><defs><linearGradient id="atqrp23fd" x1="0" y1="28" x2="56" y2="28" gradientUnits="userSpaceOnUse"><stop stop-color="#2960C7" /><stop offset="1" stop-color="#2250B6" /></linearGradient></defs></svg>