<?xml version='1.0' encoding='utf-8'?>
<!-- by TradeStack -->
<svg width="56" height="56" viewBox="0 0 56 56" xmlns="http://www.w3.org/2000/svg"><path fill="#F0F3FA" d="M0 0h56v56H0z" /><path d="M18.64 12.54c-.05.24-.09 1-.09 1.67a4.1 4.1 0 0 1-.11 1.3c-.07.04-.2 2.06-.3 4.48-.11 2.43-.24 4.41-.3 4.41-.05 0-.14 1.27-.2 2.82a24.81 24.81 0 0 1-.22 3.04c-.12.22-.42 6.53-.42 8.63 0 1.16 0 1.16.46 1.16 1.44 0 1.92.15 1.97.6.05.5.45.63 1.98.65.44 0 .83.06.88.13.04.07 1.15.17 2.48.22 1.32.06 2.43.16 2.48.23.1.16 7.78.16 7.88 0 .04-.06 1.54-.15 3.34-.2 3.84-.11 3.95-.15 3.1-1-.31-.31-.57-.67-.57-.8a.6.6 0 0 0-.21-.4c-.12-.09-.21-.23-.21-.3 0-.44-.5-.6-1.83-.6-1.26 0-1.36-.02-1.49-.31-.08-.18-.19-.32-.25-.32-.05 0-.1-.1-.1-.2 0-.24-1.35-1.61-1.6-1.62-.53 0-2.09-2.01-2.29-2.96a2.06 2.06 0 0 0-.2-.6 2.2 2.2 0 0 1-.22-.63 2.33 2.33 0 0 0-.2-.63 4.99 4.99 0 0 1-.3-1c-.1-.53-.25-.88-.35-.88-.74 0-2.87-2.71-2.96-3.78-.06-.67-.18-1.16-.3-1.26-.1-.1-.2-.23-.2-.3 0-.08-.18-.37-.4-.65a2.49 2.49 0 0 1-.5-1.2c-.1-.8-.64-1.58-1.18-1.7-.21-.04-.51-.13-.67-.2a4.75 4.75 0 0 0-.91-.24c-.64-.11-.64-.11-.65-2.41 0-1.27-.02-2.38-.03-2.47-.04-.2-.71-.54-1.34-.68-.32-.07-.77-.43-1.56-1.27-1.31-1.38-2.22-1.66-2.4-.73Z" fill="#D77E00" /></svg>