<?xml version='1.0' encoding='utf-8'?>
<!-- by TradeStack -->
<svg width="56" height="56" viewBox="0 0 56 56" xmlns="http://www.w3.org/2000/svg"><path fill="#F0F3FA" d="M0 0h56v56H0z" /><path d="M11 22H4c.5.5 1 1 1 1.5v8c0 .5-.5 1-1 1.5h4.38C7.5 32.5 7 31.8 7 31.5v-3h1.5c.7 0 1.2 1.2 1.5 1.5v-4c-.35 1.1-1.06 1.5-1.5 1.5H7V23h2.25c1.05 0 1.6.7 1.75 1v-2Z" fill="#014785" /><path fill-rule="evenodd" d="M13.56 26.88c.3 0 .94.17.94.87V28a4.26 4.26 0 0 1-2 1.5c-1.2.45-2 .77-2 2.14 0 1.36 1.6 1.36 2 1.36.4 0 1.2 0 2-1.82V33h3s-1-.8-1-1.5v-4c0-.44-.05-1.5-2.5-1.5s-3.06.88-3.06 1.31c0 .44 0 1.32.87 1.32 1.05 0 1.16-.48 1.26-.95.07-.32.14-.63.5-.8Zm.94 3.4v-.92c-1.28.73-2 1.52-2 1.82 0 .82.5.82 1 .82.26 0 .62-.85.89-1.47l.11-.26Z" fill="#014785" /><path d="M18 26h3v.8c.4-.44.8-.8 1-.8.5 0 1 0 1 1s-.5 1-1 1h-1v3.5c0 .73.27.93.6 1.18.13.09.27.19.4.32h-4l.14-.1c.29-.2.86-.59.86-1.4v-4c0-.5-.67-1.5-1-1.5ZM41 26h3v.8c.4-.44.8-.8 1-.8.5 0 1 0 1 1s-.5 1-1 1h-1v3.5c0 .73.27.93.6 1.18.13.09.27.19.4.32h-4l.14-.1c.29-.2.86-.59.86-1.4v-4c0-.5-.67-1.5-1-1.5ZM26.86 26H23c.5.5 1 1 1 1.5v4c0 .68-.86 1.5-1 1.5h3.5c-.34-.34-.5-.86-.5-1v-3.5a1 1 0 0 1 1-1 1 1 0 0 1 1 1V32c0 .68-.36 1-.5 1h3c-.34-.34-.5-.86-.5-1v-3.5a1 1 0 0 1 1-1 1 1 0 0 1 1 1V33h3c-.34 0-1-.72-1-1v-4.35c0-1.35-.57-1.65-1.14-1.65H32c-.69 0-.57-.6-.43-.88.57-.15 1.72-.41 1.72-1.43 0-1.01-.86-1.55-1.29-1.69.29.42.6 1.44-.43 2.12-1.03.67-2.57 1.11-2.57 2.61 0-1.7-1.29-2.2-2.14-2.61-.69-.34-.86-1.56-.86-2.12-.29.14-.86.68-.86 1.7 0 1.26 1.29 1 1.72 1.42.34.33.14.74 0 .88Z" fill="#004983" /><path d="M32 21.44c0 1.78-2.5 2.23-3 3.56-.5-1.33-3-1.78-3-3.56 0-1.77 2.5-3.1 3-4.44.5 1.33 3 2.67 3 4.44Z" fill="#2EA443" /><path fill-rule="evenodd" d="M39 32c-1.2 0-2-1.69-2-3h4c0-.88-.88-3-2.8-3-2.4 0-3.2 2.19-3.2 3.5s.7 3.5 3.5 3.5c.4 0 1.14-.17 2.1-.88L41 31c-.27.3-1.04 1-2 1Zm-2-4h1.2c.8 0 .8-1 0-1-.71 0-1.2.42-1.2 1Z" fill="#004983" /><path d="M52 26.88v1.3c-.38-.87-1.06-1.18-2-1.18-.38 0-1.02.64-.3 1.19 1.15.87 2.3.62 2.3 2.81 0 1.75-1.92 2-3.08 2-.92 0-1.66-.3-1.92-.44V31h.38c.26.44 1 1 1.62 1 .62 0 .77-.3.77-.44 0-1.31-2.39-1.62-2.39-3.37S48.92 26 50.08 26c.92 0 1.66.58 1.92.88Z" fill="#004983" /></svg>