<!-- by TradeStack --><svg viewBox="0 0 56 56" xmlns="http://www.w3.org/2000/svg"><path fill="#F0F3FA" d="M0 0h56v56H0z"/><path d="m23.5 41.58-9.15-5.23c-.17-.09-.35-.23-.35-.42v-4.2c.22-.02.48.07.69.26 2.26 2.1 5.48 6 8.8 9.59ZM42 31.9v4.03c0 .2-.12.34-.28.43l-9.24 5.07L42 31.9ZM42 24.14l-8.97-9.03 8.83 4.8c.12.07.14.17.14.31v3.92ZM22.62 15.2c-2.52 2.76-5.42 6.3-8.03 8.8-.09.08-.33.11-.59.09v-3.73c0-.2.13-.34.3-.43l8.32-4.73Z" fill="#1B9286"/><path d="M28 46c-6.11-5.8-11.86-11.97-17.92-17.84a.27.27 0 0 1 0-.37c5.81-5.93 11.61-11.87 17.57-17.65A.54.54 0 0 1 28 10v36Z" fill="#9F8730"/><path d="m28 10 17.9 17.74c.13.13.13.27 0 .4L28 46V10Z" fill="#D5B33F"/></svg>