<!-- by TradeStack --><svg viewBox="0 0 56 56" xmlns="http://www.w3.org/2000/svg"><path fill="#F0F3FA" d="M0 0h56v56H0z"/><path d="M6 34H5v-5.02C5 27.16 5.79 26 7.76 26c1.25 0 1.91.5 2.24 1.33.33-.8 1.02-1.33 2.24-1.33 2 0 2.76 1.12 2.76 2.98V34h-1v-5.02c0-1.16-.41-1.82-1.76-1.82-1.38 0-1.74.66-1.74 1.82V34h-1v-5.02c0-1.16-.39-1.82-1.74-1.82S6 27.82 6 28.98V34ZM22.08 31.78c-.4 1.68-.8 2.22-2.08 2.22-1.29 0-1.69-.54-2.08-2.22L16 24h1.19l1.92 7.96c.2.84.4 1.04.89 1.04.5 0 .7-.2.9-1.04L22.8 24H24l-1.92 7.78ZM25 24h1v10h-1V24ZM29 31c0 1.32.72 2 2.52 2 1.76 0 2.48-.49 2.48-1.42 0-.9-.83-1.19-1.88-1.75l-2.15-1.13c-.95-.5-1.47-1.16-1.47-2.42 0-1.62.8-2.28 3.05-2.28C34.1 24 35 25.18 35 27h-1c0-1.16-.83-2-2.45-2-1.47 0-2.05.4-2.05 1.32 0 .73.47 1.06 1.24 1.45l2.18 1.16c1.17.63 2.08 1.2 2.08 2.62 0 1.59-.88 2.45-3.48 2.45-2.54 0-3.52-1.11-3.52-3h1ZM38 32.29c0 .5.2.71.69.71H43v1h-4.43c-1.11 0-1.57-.48-1.57-1.67v-6.66c0-1.2.43-1.67 1.57-1.67H43v1h-4.31c-.5 0-.69.2-.69.75v2.75h4v1h-4v2.79Z" fill="#717375"/><path d="m43 19 3.98 3.78L52 21.45 43 19Z" fill="#A7A9AC"/><path d="m43 19 2.28 9 1.7-5.22L43 19Z" fill="#00ABE6"/><path d="M46.98 22.78 45.28 28 52 21.45l-5.02 1.33Z" fill="#FCAF17"/></svg>