<!-- by TradeStack --><svg viewBox="0 0 56 56" xmlns="http://www.w3.org/2000/svg"><path fill="#F0F3FA" d="M0 0h56v56H0z"/><path d="M4 31.22A35.5 35.5 0 0 1 31.87 18c6.68 0 12.9 1.39 18.13 3.77v2.7c-5.45-2.94-12.26-4.68-19.64-4.68A34.7 34.7 0 0 0 4.23 31.22H4Z" fill="#FF990D"/><path d="M11.8 33h.74l.89-2.16h3.02l.9 2.16h1.23l-2.9-7h-2.23v.23c.48.06.92.08.92.5 0 .06-.13.43-.2.6L11.8 33Zm3.1-5.69 1.35 3.04h-2.62l1.27-3.04ZM19.4 33h.83l2.06-3.02L24.33 33h1.5l-2.57-3.74L25.6 26h-.88l-1.84 2.72L21 26h-2.24v.23c.96.13 1.1.27 1.52.88l1.61 2.32L19.4 33ZM26.4 33h.82l2.05-3.03L31.31 33h1.5l-2.56-3.74L32.6 26h-.88l-1.84 2.72-1.9-2.72h-2.24v.23c.96.13 1.1.27 1.52.88l1.61 2.31L26.4 33ZM34 33v-7h1v7h-1ZM39.65 33c2.47 0 3.22-1.34 3.22-3.47 0-2.17-.75-3.53-3.22-3.53-2.57 0-3.28 1.36-3.28 3.53 0 2.15.78 3.47 3.28 3.47Zm-1.98-3.47c0-1.36.14-3.05 1.98-3.05 1.8 0 1.91 1.73 1.91 3.05 0 1.29-.07 3-1.9 3-1.81 0-1.99-1.75-1.99-3ZM44.26 33H45V27.1L48.86 33H50v-7h-.75v5.66h-.02L45.58 26h-2.5v.23c1.01.18 1.18.14 1.18 1.1V33Z" fill="#2E2F31"/></svg>