<?xml version='1.0' encoding='utf-8'?>
<!-- by TradeStack -->
<svg width="56" height="56" viewBox="0 0 56 56" xmlns="http://www.w3.org/2000/svg"><path fill="#F0F3FA" d="M0 0h56v56H0z" /><path d="M33.47 27.33c-.48-.06-.97-.1-1.46-.15-.55-.05-.89-.06-1.02-.03-.43.1-.67.42-.72.97-.08.7-.19 2.37-.33 5-.01.16-.08.78.06.99.59.85 1.23 1.65 1.87 2.46.45.58.67.97.52 1.68a.03.03 0 0 1-.02.02h-.02c-1.35-.44-2.74-.94-4.13-1.26-.26-.06-.64.06-.85.12-1.41.4-2.56.76-3.45 1.07a.47.47 0 0 1-.23.03c-.03 0-.04-.02-.04-.04-.1-.5 0-.91.26-1.25l1.94-2.5c.32-.42.3-.86.27-1.35-.1-1.68-.21-3.37-.35-5.05a1 1 0 0 0-1.08-.92 53.52 53.52 0 0 0-2.18.24l-.01.04c.01.57.05 1.36-.16 1.83-.28.63-1.05.92-1.65.56-.76-.45-.7-1.3-.67-2.1a.1.1 0 0 0-.03-.08.1.1 0 0 0-.07-.03l-4.77.42c-.02 0-.03 0-.04-.02a.06.06 0 0 1-.02-.03c-.28-1.44.08-2.82 1.3-3.61 1.2-.78 2.44-1.48 3.71-2.12 1.54-.76 3.17-1.54 4.55-2.4.52-.33.59-.6.65-1.19.3-2.72.57-5.45.83-8.19.08-.79.23-1.45.83-1.98 1-.9 2.18-.38 2.7.77.2.43.25 1.13.3 1.57l.62 6.25c.09.85.19 1.59.31 2.2.09.42.73.73 1.02.9 2.1 1.13 4.24 2.13 6.31 3.3 1.21.67 2.78 1.5 2.78 3.21a57.16 57.16 0 0 1-.04 1.28.08.08 0 0 1-.05.03c-1.6-.07-3.19-.3-4.78-.39-.03 0-.04.01-.04.04-.02.89.02 1.8-.77 2.2-.8.39-1.64-.15-1.72-1.07-.05-.45-.07-.91-.09-1.37 0-.03-.01-.04-.04-.05ZM27.22 46.97c-3.47-.3-6.34-3.22-7.22-6.92 0-.03 0-.05.03-.05h2s.05.02.06.05c.2.48.34.83.45 1.05 1.98 4.04 6.92 4.95 9.87 1.6a7.5 7.5 0 0 0 1.48-2.6c.02-.07.06-.1.12-.1h1.95c.04 0 .05.06.04.1l-.06.2c-.93 3.56-3.68 6.31-7.07 6.65-.63.06-1.18.07-1.65.02Z" fill="#F26628" /></svg>