<!-- by TradeStack --><svg width="56" height="56" viewBox="0 0 56 56" fill="none" xmlns="http://www.w3.org/2000/svg">
<rect width="56" height="56" fill="#F0F3FA"/>
<path fill-rule="evenodd" clip-rule="evenodd" d="M29.3914 19.7329L25.7674 14L25.3437 14L29.1378 19.8932L29.3914 19.7329Z" fill="black"/>
<path fill-rule="evenodd" clip-rule="evenodd" d="M21 14.375C21 14.375 21.644 14 22.289 14C22.5056 14 22.7839 14.0899 22.967 14.1499C24.0637 14.5093 24.5257 14.4216 25.5938 14.375L26.3125 15.5085L27.2969 17H26.5149C25.9957 17 25.4776 16.9422 25.0325 16.7986C24.1274 16.5064 23.3351 16.7638 22.9761 16.9224C22.8451 16.9802 22.6875 17 22.6875 17L21 14.375ZM22.5938 15.4308C22.4075 15.4511 22.2297 15.551 22.0938 15.5721L22.8585 16.7484C22.9835 16.6928 23.1573 16.6259 23.3688 16.5711C23.8151 16.4554 24.4372 16.3922 25.1178 16.6118C25.529 16.7446 26.0168 16.8249 26.5149 16.8249L26.9062 16.7986L26.1094 15.5721C25.6254 15.5884 25.3639 15.6312 24.875 15.496C23.9362 15.2364 23.4254 15.3403 22.5938 15.4308Z" fill="#EB040D"/>
<path fill-rule="evenodd" clip-rule="evenodd" d="M26.6086 19.7329L30.2326 14L30.6563 14L26.8622 19.8932L26.6086 19.7329Z" fill="black"/>
<path fill-rule="evenodd" clip-rule="evenodd" d="M35 14.2632C35 14.2632 34.356 14 33.711 14C33.4944 14 33.2161 14.0899 33.033 14.1499C31.9363 14.5093 31.4743 14.4216 30.4062 14.375L29.6875 15.5085L28.7031 17H29.4851C30.0043 17 30.5224 16.9422 30.9675 16.7986C31.8726 16.5064 32.6649 16.7638 33.0239 16.9224C33.1549 16.9802 33.3125 17 33.3125 17L35 14.2632ZM33.4062 15.4308C33.5925 15.4511 33.7703 15.551 33.9062 15.5721L33.1415 16.7484C33.0165 16.6928 32.8427 16.6259 32.6312 16.5711C32.1849 16.4554 31.5628 16.3922 30.8822 16.6118C30.471 16.7446 29.9832 16.8249 29.4851 16.8249L29.0938 16.7986L29.8906 15.5721C30.3746 15.5884 30.6361 15.6312 31.125 15.496C32.0638 15.2364 32.5746 15.3403 33.4062 15.4308Z" fill="#EB040D"/>
<path fill-rule="evenodd" clip-rule="evenodd" d="M10.7812 28.1563C11.1363 27.5359 12.6193 26.9438 12.6193 26.9438C13.1217 26.5791 14.6103 25.0077 13.8873 24.379C13.4519 24.0004 12.3572 24.7449 11.6869 25.2564C10.1916 26.3977 7.02402 30.7019 9.59844 32.2757C11.5922 33.4946 14.5104 31.0641 16.1425 29.4907C16.4598 28.5498 17.2624 27.5178 18.0936 27.5C18.5073 27.4911 19 27.8434 19 28.3124C18.9979 28.463 18.8057 28.7641 18.6875 28.9219C18.1536 29.6346 17.6843 30.2758 17.6843 31.1571C17.6843 31.5332 17.96 32 18.3086 32C19.9152 32 21.4703 28.6289 22.0911 27.2832L22.0912 27.2831C22.1225 27.215 22.1515 27.1522 22.178 27.0952C22.178 27.0952 22.4031 26.9978 22.6248 27C22.9173 27.003 23.0937 27.2185 23.224 27.4713L22.3437 29.8783L22.4187 29.7793C22.9622 29.0605 24.5201 27 25.6274 27C26.3437 27 26.3465 28.0047 26.1681 28.5244C25.8873 29.3424 25.4127 30.4801 25.4127 30.4801L27.7128 28.2188C27.7128 28.2188 28.0332 28 28.3908 28C28.5534 28 28.7237 28.0718 28.875 28.2188C29.3592 28.6889 29.1268 29.1402 29.1268 29.1402L28.5506 30.4801C28.5506 30.4801 28.1777 31.0136 28.5506 31.3263C28.8889 31.6102 29.9167 30.7538 30.5053 30.2119C30.5234 30.056 30.5532 29.9014 30.5951 29.7506C30.9977 28.3006 32.1562 27 33.6803 27C34.2344 27 33.7961 27.7039 33.6803 27.6813C34.4896 27.8173 35.0549 28.3558 35.276 29.0518L36.1734 28.5496C36.1734 28.5496 36.5536 26.9991 37.1719 27C37.4568 27.0004 37.5647 27.2501 37.6725 27.4994C37.7803 27.749 37.8881 27.9982 38.1731 27.9964C38.3678 27.998 38.5258 27.8591 38.6896 27.7151C38.8888 27.54 39.0965 27.3575 39.3887 27.4116C39.9756 27.5202 40.5122 28.3427 40.5122 28.3427C40.5122 28.3427 39.1861 30.0236 39.3887 30.9028L39.4018 30.9604C39.4455 31.154 39.476 31.2891 39.6212 31.4546C40.1417 32.0479 41.5581 30.1015 41.5581 30.1015C41.5581 30.1015 41.4922 29.4338 41.9068 28.5496C42.2157 27.8908 43.1077 27 43.1077 27C43.1077 27 43.3 27 43.65 27.294C44 27.6669 44 28.3427 44 28.3427L42.9062 29.9063C42.9062 29.9063 42.5367 30.3509 42.8209 30.5938C43.16 30.8835 43.8281 30.1015 43.8281 30.1015L46.2072 27C46.2072 27 46.6513 27.1315 46.8386 27.3298C46.9534 27.4513 47 27.6313 47 27.8125C47 28.1383 46.8386 28.4679 46.8386 28.4679L45.4062 32C45.4062 32 46.8464 31.82 47.6562 31.4546C48.5532 31.0499 49.5 30 49.5 30C49.5 30 49.191 31.4755 48.5698 32.1017C47.7459 32.9324 45.1562 33.3088 45.1562 33.3088C45.1562 33.3088 44.8125 34.6875 43.8281 36.125C43.4015 36.748 42.9315 37.0043 42.3125 37C41.0671 37 40.417 36.039 40.7812 34.8438C40.9915 34.1539 41.4597 33.7396 42.1005 33.3088C42.7861 32.8477 44.1875 32.4375 44.1875 32.4375L45.1562 29.9063C45.1562 29.9063 44.0761 32 43.1077 32C41.9068 32 41.7812 30.8125 41.7812 30.8125C41.6253 30.9867 41.4617 31.2115 41.2879 31.4507C40.7702 32.1624 40.1611 33 39.3887 33C38.357 33 38 31.9293 38 30.9028C38 29.8763 38.642 29 38.642 29H38.0312C37.6796 29 37.2861 28.8106 37.2861 28.8106C37.2861 28.8106 36.6574 29.4012 36.1734 29.6877C35.9369 29.8277 35.6294 29.9764 35.3508 30.1024C35.3348 30.2061 35.3121 30.3106 35.2824 30.4153C34.8832 31.8234 33.6941 33.0003 32.4545 33.0003C31.3687 33.0003 30.6939 32.1166 30.5258 31.0888C30.4799 31.1381 30.4333 31.1884 30.386 31.2395L30.3859 31.2396L30.3858 31.2396C29.6499 32.0339 28.7548 33 28.0781 33C27.245 33 27 32.5625 27 32.1996C27 31.6045 27.1291 31.0773 27.2524 30.5736L27.2524 30.5736C27.31 30.3382 27.3664 30.108 27.4078 29.8783L25.4127 32.1996C25.4127 32.1996 24.8455 33 24.4636 33C23.4564 33 23.9375 31.3263 23.9375 31.3263C23.9375 31.3263 24.8957 29 24.3437 29C24.0469 29 22.8125 31.1571 22.8125 31.1571C22.8125 31.1571 22.0663 33 21.5625 33C20.6715 33 20.6285 31.0819 20.6285 31.0819C20.5646 31.1511 20.4989 31.2233 20.4315 31.2976C19.7488 32.0487 18.8843 33 17.8437 33C16.5844 33 16.0538 31.5976 16.0039 30.4354C15.3287 31.209 14.2948 32.2418 13.0295 33.0181C12.1075 33.5837 11.0099 34 9.90907 34C7.99686 34 7 32.2331 7.00004 30.469C6.98626 27.1804 10.1816 23 13.5889 23C16.8708 23 14.8772 27.2112 13.5889 28.3948C13.4279 28.5428 13.2612 28.7141 13.0915 28.8884L13.0915 28.8885C12.5653 29.4292 12.0098 30 11.5014 30C10.4579 29.981 10.4295 28.7708 10.7812 28.1563ZM18.3168 25.8079C18.1791 26.3346 18.4623 27 19.0774 27C19.6339 27 19.995 26.4322 20 25.9217C20.0044 25.4679 19.7092 25 19.2189 25C18.821 25 18.4395 25.3387 18.3168 25.8079ZM44 33.6875C44 33.6875 43.6563 34.5412 43.2199 35.2715C43.0312 35.5873 42.6562 35.9977 42.2213 35.9977C41.5 35.9977 41.6985 35.1237 41.9836 34.742C42.5836 33.9386 44 33.6875 44 33.6875ZM31.7648 29.9447C31.9659 29.2205 32.5387 28.709 33.1578 28.709C33.3139 28.709 33.3404 28.8606 33.3706 29.0334C33.4048 29.2288 33.4437 29.4512 33.6803 29.5117C34.3051 29.6716 34.2469 29.8461 34.1508 30.1342C34.1359 30.1789 34.1201 30.2262 34.1058 30.2767C33.9065 30.9799 33.3126 31.5677 32.6935 31.5677C31.9196 31.5677 31.5637 30.6689 31.7648 29.9447Z" fill="#ED1C24"/>
<path fill-rule="evenodd" clip-rule="evenodd" d="M16.4609 24.7794L25.1771 19H26.6562L27.3125 20C27.3125 20 27.7279 19 28.1213 19H29.051L30 18C30 18 33.125 20.5625 36.179 22.75C38.3171 24.2815 41.125 26.0625 41.125 26.0625C41.125 26.0625 41.5312 25 43.375 25C44.6875 25 44.9375 25.9062 44.9375 25.9062C44.9375 25.9062 45.4062 25 46.8125 25C48.75 25 48.6875 27.125 48.3125 28.25C48.0367 29.0773 47.6972 29.9082 47.5972 30.1492C47.757 29.7767 48.5611 28.0312 49.5957 28.0312C50.5938 28.0312 51 29.2188 51 30.6103C51 32.75 49.1469 34.3354 47 34.5C47 34.5 45.4062 39 42.3125 39C39.875 39 39.0013 37.3763 39 35.9687C38.9997 35.6134 39.0859 35.2755 39.2295 34.9594C39.1601 34.9853 39.0838 35 39 35C37.2812 35 36.625 34 36.625 32.9688V32L36.179 32.4375C36.179 32.4375 35.0625 35 32.4688 35C31.1563 35 30.4062 34 30.4062 34C30.4062 34 29.6283 35 28.1562 35C26.6842 35 26.1562 34.1875 26.1562 34.1875C26.1562 34.1875 25.6562 35 24.4375 35C23.4688 35 23 34.375 23 34.375C23 34.375 22.4062 35 21.4688 35C20.3841 35 20 34 20 34C20 34 18.9571 35 17.5625 35C15.6562 35 15.0625 33.8438 15.0625 33.8438C15.0625 33.8438 13.0625 36 9.62501 36C6.5 36 5 33.125 5 29.875C5 25.4688 9.0734 21 13.4006 21C16.9578 21 16.4609 24.7794 16.4609 24.7794ZM24.4706 21.2991C23.0588 22.1838 20.1882 23.9701 20 24H20.7843L23.5294 22.7944L24.2745 23.9907L25.6078 23.2056L24.4706 24.6636L24.8627 25L28 22.3084L27.6863 22.0093L26.4706 22.3084L27.4902 21L26.4706 21.6355H25.4118L24.4706 21.2991ZM15.4375 31.9062C15.4375 31.9062 15.5572 34 17.401 34C19.2447 34 20.2188 32.9125 20.2188 32.9125C20.2188 32.9125 20.4244 34 21.6875 34C22.7209 34 23.1563 33.1 23.1563 33.1C23.1563 33.1 23.3438 34 24.5313 34C25.7188 34 26.1875 33.1 26.1875 33.1C26.1875 33.1 26.7783 34 28.0938 34C29.2884 34 30.3438 32.6938 30.3438 32.6938C30.3438 32.6938 31 34 32.5051 34C35.0313 34 35.7702 31.3947 35.7702 31.3947C36.1652 31.2512 36.526 31.033 36.8866 30.8151C37.1 30.6861 37.3133 30.5571 37.5335 30.4438V32.0222C37.5335 33.0487 38.0938 34 39.3324 34C40.7969 34 41.5781 32.1719 41.5781 32.1719L42.2795 32.4487C42.2795 32.4487 40.3517 33.8896 40.0213 35.3816C39.7534 36.5915 40.672 38 42.2795 38C44.4229 38 45.3798 35.3816 45.3798 35.3816L46.0304 33.9152C46.0304 33.9152 48.3207 33.4581 49.2073 32.4487C50 31.5461 50 30.139 50 30.139C50 30.139 49.9798 29 49.4375 29C48.9174 29 48.6877 29.4018 48.4446 29.8272C48.2429 30.1801 48.0318 30.5493 47.638 30.7188C47.2409 30.8896 46.3125 31 46.3125 31C46.3125 31 47.2445 29.445 47.638 27.976C47.8724 27.101 47.8293 26 46.5663 26C45.3798 25.9891 44.7813 27.3307 44.7813 27.3307C44.7813 27.3307 44.4709 26 43.4375 26C42.0213 26 41.3992 27.976 41.3992 27.976C41.3992 27.976 40.9219 26.5158 39.7969 26.5158C39.0688 26.5158 38.6052 26.9862 38.6052 26.9862C38.6052 26.9862 38.1841 26.0158 37.5335 26.0158C36.0025 26.0158 35.5432 27.976 35.5432 27.976C35.5432 27.976 35.133 27.2167 34.5132 26.9862C34.4195 26.8695 34.3533 26.7375 34.2889 26.609C34.131 26.2943 33.9834 26 33.4672 26C31.2856 26 30.1847 28.2326 30.1847 28.2326C30.1847 28.2326 29.7732 27.0158 28.625 27.0158C27.4767 27.0158 26.7783 27.4994 26.7783 27.4994C26.7783 27.4994 26.7701 26.4158 25.4687 26.4158C24.625 26.4158 23.9459 26.9495 23.9459 26.9495C23.9459 26.9495 23.7546 26 22.9891 26C22.1132 26 21.2723 27.531 20.5211 28.8986C19.9147 30.0025 19.3669 31 18.9063 31C17.875 31 19.1002 28.9071 20.0312 28.0783C20.3733 27.6282 20.3212 27.4171 20.2835 27.2642C20.2558 27.1517 20.2359 27.0708 20.3864 26.9495C20.7899 26.6243 21 26.2183 21 25.8272C21 24.9533 20.625 24.34 19.4687 24.34C18.3125 24.34 17.6011 25.3412 17.401 26.1875C17.3316 26.4807 17.401 26.9495 17.401 26.9495C17.401 26.9495 16.0747 27.9375 14.0312 30.3954C13.4487 31.0961 12.0495 32.0158 10.8124 32.0158C9.57522 32.0158 8.90625 30.3283 9.375 29.4845C9.35635 30.3282 10.1527 31.0133 11.0313 31.0158C13.185 31.0158 15.5498 26.8681 15.7934 25.7345C15.8852 25.3077 16 24.7372 16 24.1715C16 23.0849 15.5378 22 13.75 22C9.32842 22 6.00825 26.2671 5.99898 30.3954C5.99898 32.6708 6.8125 35 10.0012 35C12.656 35 15.4375 31.9062 15.4375 31.9062Z" fill="#2A2D8D"/>
</svg>
