<!-- by TradeStack --><svg viewBox="0 0 56 56" xmlns="http://www.w3.org/2000/svg"><path fill="#F0F3FA" d="M0 0h56v56H0z"/><path d="M28 14.2c-9.12 0-16.46 6.2-16.46 13.8 0 7.6 7.34 13.8 16.46 13.8 9.12 0 16.46-6.2 16.46-13.8 0-7.6-7.43-13.8-16.46-13.8Zm10.53 20c-.37-.4-.84-.4-1.5.1a16.82 16.82 0 0 1-8 2.8c-3.85.2-7.14-.6-9.87-2.9a7.94 7.94 0 0 1-1.98-9.9c1.88-3.6 6.78-5.5 11.2-5.4 2.82.1 5.64.7 8.27 1.9.38.1.76 0 .94-.3l.38.2-2.07 3.4-.56-.3c.37-.5.1-1.3-2.45-2.1a17.6 17.6 0 0 0-7.9-.3c-2.16.5-5.93 2-6.11 6.3-.2 4.3 3.57 7.3 8.74 7.3 5.18 0 7.43-2.1 8-2.6.28-.3.38-.8.19-1.2l.28-.2c.56.7 2.73 3 2.73 3l-.29.2Z" fill="#455560"/><path d="M27.4 16.12c-6.2 0-11.56 2.8-14.1 7.2 2.16-5.1 8-8.7 14.86-8.7 8.65 0 15.71 5.9 15.71 13.2 0 2.1-.56 4.1-1.6 5.8.66-1.4.94-2.9.94-4.5 0-7.3-7.05-13-15.8-13Z" fill="#7B8B96"/><path d="M14.64 39.4A14.78 14.78 0 0 1 9 28c.1-4.5 2.16-8.7 5.64-11.4A20.6 20.6 0 0 1 28 12c4.8-.1 9.5 1.6 13.36 4.6C44.84 19.3 46.9 23.4 47 28c-.1 4.5-2.16 8.7-5.64 11.4A20.6 20.6 0 0 1 28 44c-4.8.1-9.5-1.6-13.36-4.6Zm.76-21.8c-3.1 2.5-5.08 6.3-5.18 10.4.1 4.1 1.98 7.9 5.18 10.4 3.57 2.9 8 4.4 12.6 4.4 4.51.1 8.94-1.5 12.6-4.4 3.1-2.4 4.99-6.3 5.08-10.4-.1-4.1-1.97-7.9-5.17-10.4-3.57-2.9-8-4.4-12.51-4.3-4.6-.1-9.03 1.4-12.6 4.3Z" fill="#455560"/></svg>