<?xml version='1.0' encoding='utf-8'?>
<!-- by TradeStack -->
<svg width="56" height="56" viewBox="0 0 56 56" xmlns="http://www.w3.org/2000/svg"><path fill="#181B1E" d="M0 0h56v56H0z" /><path fill="#fff" d="M21 21h2v13h-2zM16 25h2v9h-2zM9 25h2l3 9h-2l-3-9ZM4 25h2l3 9H7l-3-9ZM44 25h2l3 9h-2l-3-9ZM39 25h2l3 9h-2l-3-9ZM25 21h2v13h-2z" /><circle cx="17" cy="23" r="1" fill="#fff" /><circle cx="51" cy="26" r="1" fill="#fff" /><path fill-rule="evenodd" d="M33.5 34a4.5 4.5 0 1 0 0-9 4.5 4.5 0 0 0 0 9Zm0-2a2.5 2.5 0 1 0 0-5 2.5 2.5 0 0 0 0 5Z" fill="#fff" /></svg>