<?xml version='1.0' encoding='utf-8'?>
<!-- by TradeStack -->
<svg width="56" height="56" viewBox="0 0 56 56" xmlns="http://www.w3.org/2000/svg"><path fill="#F0F3FA" d="M0 0h56v56H0z" /><path d="M45 21v6h-1v-6h1ZM21 21v6h-1v-6h1ZM10 23H9c-.11-.67-.71-1-1.39-1C6.5 22 6 23.02 6 24s.49 2 1.61 2c.66 0 1.27-.34 1.39-1h1c-.17 1.2-1.2 2-2.4 2C5.92 27 5 25.55 5 24s.92-3 2.6-3c1.23 0 2.24.76 2.4 2ZM24 31h-1c-.11-.67-.71-1-1.39-1C20.5 30 20 31.02 20 32s.49 2 1.61 2c.66 0 1.27-.34 1.39-1h1c-.17 1.2-1.2 2-2.4 2-1.68 0-2.6-1.45-2.6-3s.92-3 2.6-3c1.23 0 2.24.76 2.4 2ZM10.98 27H10l1.9-6h1.2l1.9 6h-.9l-1.6-5-1.52 5Zm.1-2h2.84v1h-2.84v-1ZM46.98 27H46l1.9-6h1.2l1.9 6h-.9l-1.6-5-1.52 5Zm.1-2h2.84v1h-2.84v-1ZM31.98 35H31l1.9-6h1.2l1.9 6h-.9l-1.6-5-1.52 5Zm.1-2h2.84v1h-2.84v-1ZM16 27v-6h1v5h2v1h-3ZM22 27v-6h4v1h-3v1.5h2.5v1H23V27h-1ZM32 24c0 1.5-.85 3-2.5 3S27 25.5 27 24s.84-3 2.5-3c1.65 0 2.5 1.5 2.5 3Zm-1 0c0-.94-.4-2-1.5-2S28 23.06 28 24s.4 2 1.5 2 1.5-1.06 1.5-2ZM13 32c0 1.5-.85 3-2.5 3S8 33.5 8 32s.84-3 2.5-3c1.65 0 2.5 1.5 2.5 3Zm-1 0c0-.94-.4-2-1.5-2S9 31.06 9 32s.4 2 1.5 2 1.5-1.06 1.5-2ZM33 27v-6h1.96c1.14 0 2.04.8 2.04 1.92 0 1.15-.84 2.08-2.05 2.08h-1.4v-1h1.27c.63 0 1.18-.45 1.18-1.08 0-.64-.55-.92-1.18-.92H34v5h-1Zm2.7-2.72L37 27h-1.06l-1.27-2.72h1.03ZM37 35v-6h1.96c1.14 0 2.04.8 2.04 1.92 0 1.15-.84 2.08-2.05 2.08h-1.4v-1h1.27c.63 0 1.18-.45 1.18-1.08 0-.64-.55-.92-1.18-.92H38v5h-1Zm2.7-2.72L41 35h-1.06l-1.27-2.72h1.03ZM14 35v-6h1.96c1.14 0 2.04.8 2.04 1.92 0 1.15-.84 2.08-2.05 2.08h-1.4v-1h1.27c.63 0 1.18-.45 1.18-1.08 0-.64-.55-.92-1.18-.92H15v5h-1Zm2.7-2.72L18 35h-1.06l-1.27-2.72h1.03ZM43 21v6h-.98l-3.03-4.26V27H38v-6h.99l3.03 4.28V21H43ZM25 35v-6h1v2.54h3V29h1v6h-1v-2.55h-3V35h-1ZM44.06 35H42v-6h2.1c1.77 0 2.9 1.25 2.9 3 0 1.76-1.16 3-2.94 3ZM43 34h1c1.27 0 1.91-.79 1.91-2 0-1.2-.63-2-1.88-2H43v4Z" /></svg>