<?xml version='1.0' encoding='utf-8'?>
<!-- by TradeStack -->
<svg width="56" height="56" viewBox="0 0 56 56" xmlns="http://www.w3.org/2000/svg"><path fill="#F0F3FA" d="M0 0h56v56H0z" /><path d="m48.25 32-1.33-2.64h-.42V32H45v-7h2.6c1.32 0 2.35.85 2.35 2.2 0 .93-.53 1.74-1.42 2.03L50 32h-1.75Zm-1.75-3.85h1.01c.58 0 .86-.32.86-.88 0-.52-.28-.85-.86-.85H46.5v1.73ZM39.74 25v2.15c0 .83.43 1.29 1.25 1.29.82 0 1.27-.46 1.27-1.3V25H44v2.14c0 1.74-1.35 2.86-3.04 2.86-1.71 0-2.96-1.12-2.96-2.86V25h1.74ZM35.79 30.76h-2.6L32.77 32H31l2.52-7h1.96L38 32h-1.8l-.41-1.24Zm-.44-1.31-.86-2.57-.85 2.57h1.71ZM30.5 25v1.37h-2V32H27v-5.63h-2V25h5.5ZM24 32h-1.5l-3-4.32V32H18v-7h1.5l3 4.5V25H24v7ZM13.5 26.37v1.31H17V29h-3.5v1.63H17V32h-5v-7h5v1.37h-3.5ZM4 28.5C4 26.47 5.6 25 7.6 25c1.56 0 2.98.86 3.4 2.4H9.08a1.6 1.6 0 0 0-1.5-.87c-1.12 0-2.08.63-2.08 1.97 0 1.34.96 1.98 2.08 1.98a1.6 1.6 0 0 0 1.5-.88H11c-.42 1.55-1.84 2.4-3.4 2.4-2 0-3.6-1.45-3.6-3.5Z" fill="#172F34" /><path d="M52 24h-2l2 2v-2Z" fill="#DC3B41" /></svg>