<!-- by TradeStack --><svg width="56" height="56" viewBox="0 0 56 56" fill="none" xmlns="http://www.w3.org/2000/svg">
<rect width="56" height="56" fill="#F0F3FA"/>
<path d="M19.7466 30.0002C22.8078 29.9733 23.1588 33.3077 22.9517 35H20.4334C20.4988 34.1034 20.453 32.3537 19.7466 32.3537C18.8635 32.3537 18.7 32.7571 18.7327 37.2287C18.7654 41.7004 19.1579 41.7004 19.7466 41.6667C20.2175 41.6398 20.4007 41.0504 20.4334 40.759V38H22.9517V40.5909C22.9517 44.5582 18.1767 44.8608 16.9012 42.5409C15.8808 40.685 15.931 36.6908 16.0836 34.7744C16.4502 30.1716 18.3729 30.0002 19.7466 30.0002Z" fill="#646464"/>
<path fill-rule="evenodd" clip-rule="evenodd" d="M28.4885 30H24.001V44H28.3185C29.1684 43.8363 30.8478 42.8561 30.7662 40.2456C30.6846 37.6351 29.5537 36.7251 28.9984 36.5965C29.4744 36.5497 30.4399 35.8316 30.4942 33.3333C30.5486 30.8351 29.1797 30.0702 28.4885 30ZM27.2985 32.5965H26.5166V35.4737H27.2985C27.5364 35.4386 28.0056 35.1088 27.9784 34.0702C27.9512 33.0316 27.5138 32.655 27.2985 32.5965ZM26.5166 37.8947H27.4069C27.6521 37.9667 28.1501 38.4306 28.1811 39.7098C28.2121 40.9891 27.6779 41.3953 27.4069 41.4386H26.5166V37.8947Z" fill="#646464"/>
<path fill-rule="evenodd" clip-rule="evenodd" d="M32 30H35.4336C37.4054 30 38.9352 32.065 38.7992 37.105C38.6292 43.405 37.1334 44 35.4336 44H32V30ZM34.5836 32.66C35.0709 32.5084 36.0726 32.723 36.1814 34.795V39.905C36.2154 40.4533 35.9434 41.557 34.5836 41.585V32.66Z" fill="#646464"/>
<path fill-rule="evenodd" clip-rule="evenodd" d="M21.0308 13.1647L22.8257 10L23.2563 10.2593L21.4622 13.4224L23.3309 16.7598L21.7339 19.4656L23.1725 18.9913L23.3245 19.4807L21.7733 19.9922L24.6119 21.7541L27.5218 19.7815V17.8679H28.0205V19.7857L31.0079 21.9233V25.6718L33.9103 27.4031L36.9833 25.5205L40.013 27.4021L43.1317 25.5169L46 27.4873L45.7234 27.9148L43.1148 26.1229L40.0096 28L36.9815 26.1194L33.9137 27.9989L30.762 26.1189L27.7746 28L24.6261 26.1218L23.1781 27.1034L22.904 26.6741L24.3684 25.6814V22.2029L21.1046 20.177H17.7908L16.5103 22.4561L17.8612 24.7905L17.4329 25.0537L16.2242 22.9652L16.1063 23.1751L17.2453 25.4008L16.8041 25.6405L15.671 23.4262H13V22.9123H15.6777L17.2146 20.177H15.2406V19.6631H17.2087L15.5333 16.7597L17.5014 13.1647H21.0308ZM21.0298 13.6786H17.7927L16.1096 16.7529L17.7889 19.6631H21.0337L22.7512 16.7529L21.0298 13.6786ZM24.8671 22.1962V25.6718L27.7677 27.4021L30.5092 25.6758V22.1921L27.7674 20.2302L24.8671 22.1962ZM21.87 16.8834L20.5008 14.4037L20.9342 14.1496L22.3035 16.6293L21.87 16.8834ZM29.7102 22.6738L27.6356 21.2901L27.9067 20.8587L29.9813 22.2424L29.7102 22.6738ZM25.1152 25.2641V22.4581H25.614V25.2641H25.1152ZM27.6367 26.4158L29.7113 25.0477L29.9802 25.4806L27.9056 26.8486L27.6367 26.4158Z" fill="#638E73"/>
</svg>
