<?xml version='1.0' encoding='utf-8'?>
<!-- by TradeStack -->
<svg width="56" height="56" viewBox="0 0 56 56" xmlns="http://www.w3.org/2000/svg"><path fill="#F0F3FA" d="M0 0h56v56H0z" /><path d="M20.52 36.27c-1.96-.04-5.74-.53-7.42-2.2.74 0 3.1.22 6.62 1.1a15.9 15.9 0 0 0-3.3-5.51c-2.21-2.21-3.32-7.73-3.32-8.83 0-.89-.73-1.84-1.1-2.2 1.47 1.1 4.63 3.96 5.52 6.61 1.1 3.31 2.2 6.62 2.2 7.73 0 .88.74 1.83 1.1 2.2 0-1.47-.21-5.3-1.1-8.83-.7-2.85.88-7.08 2.1-10.31.66-1.78 1.21-3.25 1.21-4.03.37 1.84 1.1 6.4 1.1 9.93 0 2.94-.97 5.89-1.63 7.85a9.64 9.64 0 0 0-.57 2.08c0 .42-.16 1-.3 1.5-.22.8-.38 1.4.3.7 1.1-1.1 4.41-7.72 5.52-9.92.52-1.05 3.04-2.84 5.77-4.8 3.02-2.15 6.31-4.5 7.47-6.24-2.2 4.05-6.84 12.58-7.72 14.35-.6 1.19-3.43 3.01-5.91 4.62-2.14 1.38-4.03 2.6-4.03 3.1 0 1.1 6.63-2.2 8.83-3.3 1.77-.9 8.83-1.11 12.14-1.11-1.84 1.1-6.18 3.53-8.83 4.41-1.65.55-4.69.55-7.3.55-2.63 0-4.84 0-4.84.56 0 .48.84.54 2.14.64 1.7.13 4.2.31 6.7 1.56a80.93 80.93 0 0 1 7.72 4.42c-2.58-.37-8.17-1.33-9.93-2.21-.5-.25-1.16-.6-1.9-1-2.51-1.37-5.83-3.17-5.83-2.31 0 .46.38.72.82 1.04.63.44 1.39.98 1.39 2.27V44a15.18 15.18 0 0 0-2.2-3.31c-.82-.8-1.07-2.91-1.1-4.1l-2.06 2.05-.32-.31 2.06-2.06Z" fill="#C8DCC3" /></svg>