<!-- by TradeStack --><svg width="56" height="56" viewBox="0 0 56 56" fill="none" xmlns="http://www.w3.org/2000/svg">
<rect width="56" height="56" fill="#F0F3FA"/>
<path d="M15 26H12.3858C12.1909 24.6812 11.0292 24 9.75366 24C7.60984 24 7 26.0663 7 28C7 29.9378 7.58048 32 9.73576 32C10.9856 32 12.139 31.289 12.3858 30L15 30.0114C14.6689 32.636 12.178 34 9.69398 34C6.23679 34 4 31.3588 4 28C4 24.6565 6.25069 22 9.69398 22C12.306 22 14.6645 23.2829 15 26Z" fill="black"/>
<path d="M16 34V22H21.1899C23.1286 22 25.4937 22.7641 25.4937 25.0762C25.4937 26.4646 24.4465 27.3855 23.1519 27.6543V27.7715C24.7391 27.8343 26 29.0869 26 30.6836C26 33.0831 23.588 34 21.538 34H16ZM19 32H21.3038C22.2812 32 23.5 31.625 23.5 30.4316C23.5 29.2743 22.3912 29 21.3671 29H19V32ZM19 27H21.0443C21.9624 27 23 26.546 23 25.498C23 24.4591 21.9932 24 21.0949 24H19V27Z" fill="black"/>
<path d="M37.0275 26C36.6326 24.7911 35.7056 24 34.5 24C32.3084 24 31 25.9321 31 28C31 30.101 32.0402 32 34.2623 32C35.7078 32 37 31.5 37.0275 30H34V28H40V29.0608C40 32.2645 37.2254 34 34.2623 34C30.7199 34 28 31.6358 28 28.0114C28 24.4531 30.7005 22 34.204 22C36.6492 22 39.4589 23.335 39.877 26H37.0275Z" fill="black"/>
<path d="M41 34V22H44V27H49V22H52V34H49V29H44V34H41Z" fill="black"/>
</svg>
