<!-- by TradeStack --><svg width="56" height="56" viewBox="0 0 56 56" xmlns="http://www.w3.org/2000/svg"><path fill="#F0F3FA" d="M0 0h56v56H0z"/><path d="m22 34 3.63-9.14L35.9 22l-2.67 7.57c-.15.43.26.85.72.74l10.53-2.6c.96-.24 1.8.65 1.44 1.52L42.32 38l-.3-2.77c-.05-.34-.4-.58-.76-.5l-12.2 3.02c-.46.11-.87-.28-.74-.7l1.25-4.33c.12-.44-.31-.83-.77-.7L22 34Z" fill="#4D4E72"/><path d="M38.75 13.1c3.7 2.64 2.04 7.58.62 9.9.4-1.94.52-5.28-1.84-6.4-3.67-1.75-11.95 3.2-17.13 8.74-4.9 5.24-7.33 10.96-4.9 12.81 3.07 2.33 7.96.2 11.63-1.16-4.28 4.07-10.4 5.82-13.46 4.66-3.05-1.17-6.72-7.58.62-16.9 7.95-10.1 19.57-15.14 24.46-11.65Z" fill="url(#attza3ebz)"/><defs><linearGradient id="attza3ebz" x1="35.08" y1="12.52" x2="18.62" y2="42.92" gradientUnits="userSpaceOnUse"><stop stop-color="#B9D5EC"/><stop offset="1" stop-color="#607992"/></linearGradient></defs></svg>