<!-- by TradeStack --><svg width="56" height="56" viewBox="0 0 56 56" xmlns="http://www.w3.org/2000/svg"><path fill="url(#ae5nxjrvc)" d="M0 0h56v56H0z"/><path d="M50.48 31 49 25.5V31h-1v-7h1.5l1.5 5.5V24h1v7h-1.52ZM45.5 31v-1h.5v-5h-.5v-1h2v1H47v5h.5v1h-2ZM44.01 31l-.42-1.77h-2.17L41 31H40l1.88-7h1.28L45 31h-.99Zm-1.51-6-.9 3.48h1.81L42.5 25ZM38.5 31v-3h-2v3h-1v-7h1v3h2v-3h1v7h-1ZM33.96 31l-1.66-3.18-.3.6V31h-1v-7h1v3.02L33.89 24H35l-2 3.02L35 31h-1.04ZM28.79 31c-1.15 0-1.79-.57-1.79-1.7v-3.6c0-1.15.65-1.7 1.79-1.7H30v1h-1.31c-.43 0-.69.06-.69.51v3.98c0 .45.26.51.69.51H30v1h-1.21ZM26 29.06c0 1.12-.64 1.94-1.83 1.94h-.34c-1.18 0-1.83-.8-1.83-1.94v-3.12c0-1.15.66-1.94 1.83-1.94h.34c1.18 0 1.83.8 1.83 1.94v3.12Zm-1-3.31c0-.46-.3-.75-.73-.75h-.54c-.43 0-.73.29-.73.75v3.5c0 .46.3.75.73.75h.54c.43 0 .73-.29.73-.75v-3.5ZM18 31v-7h1v6h2v1h-3ZM17 29.17c0 1.18-.8 1.83-1.89 1.83H13v-7h1.98c1.06 0 2.02.55 2.02 1.72v.32c0 .51-.31.99-.72 1.25.48.24.72.94.72 1.52v.36Zm-.97-3.45c0-.5-.35-.72-.92-.72H14v2h1.11c.43 0 .92-.32.92-.77v-.51Zm-.03 3c0-.45-.3-.72-.78-.72H14v2h1.21c.57 0 .79-.23.79-.73v-.55ZM8 30c.68-1.1 2-2.42 2-3.79v-.7c0-.43-.36-.51-.78-.51H8v-1h1.13c1.08 0 1.87.45 1.87 1.58V26c0 1-1 2.8-1.75 4H11v1H8v-1ZM5.79 31C4.64 31 4 30.2 4 29.06v-3.12C4 24.79 4.65 24 5.79 24H7v1H5.69c-.43 0-.69.3-.69.76v3.5c0 .45.26.74.69.74H7v1H5.79Z" fill="#E2E2E2"/><defs><linearGradient id="ae5nxjrvc" x1="10.42" y1="9.71" x2="68.15" y2="76.02" gradientUnits="userSpaceOnUse"><stop stop-color="#1A1E21"/><stop offset="1" stop-color="#06060A"/></linearGradient></defs></svg>