<!-- by TradeStack --><svg width="56" height="56" viewBox="0 0 56 56" fill="none" xmlns="http://www.w3.org/2000/svg">
<rect width="56" height="56" fill="url(#paint0_linear_229_10923)"/>
<path fill-rule="evenodd" clip-rule="evenodd" d="M43.9606 26.8296L43.9605 26.8296C43.9091 26.8947 43.8581 26.9592 43.805 27.0188C43.7415 27.0901 43.6984 27.0793 43.6758 26.9863C43.6247 26.7815 43.6205 26.5632 43.6164 26.3515V26.3514C43.6125 26.1543 43.6088 25.9628 43.5675 25.7933C43.1942 24.263 41.727 21.8136 40.4941 20.8896C39.0349 19.7954 37.2396 19.9235 35.3781 20.1666C34.3191 20.3053 33.6516 20.6106 32.6859 21.0524L32.6698 21.0598C31.9039 21.411 30.6263 21.866 28.8369 22.4247C28.5897 22.5025 28.3667 22.629 28.134 22.7635C28.0812 22.7949 28.029 22.7938 27.9773 22.7603C27.6541 22.5538 27.338 22.3152 27.0214 22.0761C26.3135 21.5416 25.6025 21.0047 24.802 20.8199C22.7999 20.3579 20.7122 20.353 19.0542 21.7439C18.577 22.1448 18.4397 22.6187 18.6422 23.1655C18.6982 23.3179 18.7483 23.3158 18.7925 23.1591C18.8592 22.9159 18.8878 22.6652 18.8781 22.4069C18.8759 22.3507 18.8937 22.3021 18.9314 22.261C19.4668 21.6688 20.0755 21.2803 20.7574 21.0955C22.1875 20.7064 24.6033 20.7032 25.9445 21.5769C27.0099 22.2696 28.0618 22.9861 29.1003 23.7264C29.1316 23.748 29.1499 23.7399 29.1553 23.7021C29.1727 23.571 28.757 23.2823 28.4948 23.1002L28.4947 23.1002L28.4947 23.1001C28.4164 23.0458 28.3519 23.001 28.3166 22.9726C28.252 22.9218 28.259 22.884 28.3376 22.8592C28.5248 22.801 28.7119 22.7437 28.8988 22.6865C30.0084 22.3467 31.1088 22.0097 32.1738 21.5088C32.3438 21.4291 32.5163 21.3422 32.6913 21.2541L32.6913 21.2541C33.3378 20.9286 34.0168 20.5868 34.7188 20.5281C35.7476 20.4406 36.778 20.3692 37.81 20.3141C38.9169 20.2574 40.5167 21.0112 41.176 21.9676C41.2768 22.1136 41.3783 22.2587 41.4795 22.4033C42.4529 23.7942 43.4025 25.1512 43.4625 27.0042C43.5009 28.2165 42.8026 29.0528 42.0973 29.8973C41.9426 30.0827 41.7875 30.2684 41.6397 30.4586C41.4976 30.6419 41.2929 30.8036 41.0807 30.9713L41.0807 30.9713C40.8611 31.1448 40.6335 31.3247 40.4585 31.5415C39.6796 32.5011 38.8873 33.45 38.0815 34.388C37.8908 34.6096 37.7341 34.8965 37.6113 35.2488C37.5607 35.3925 37.5763 35.4001 37.6581 35.2715C38.1805 34.4449 38.8218 33.7417 39.4635 33.0381L39.4635 33.038C39.8977 32.5619 40.3322 32.0855 40.73 31.5707C40.8704 31.3886 41.0721 31.2367 41.2809 31.0795C41.4997 30.9147 41.7263 30.744 41.8983 30.5267C42.0171 30.3773 42.1388 30.2305 42.2604 30.084C42.8811 29.3356 43.4955 28.5948 43.6725 27.5537C43.6833 27.4932 43.7102 27.4408 43.7533 27.3965L44.5451 26.607C44.5771 26.5752 44.6197 26.5563 44.6646 26.5543C44.7094 26.5522 44.7532 26.5669 44.7875 26.5957C44.9126 26.6988 45.1491 27.0249 45.3982 27.3684C45.7446 27.8459 46.1154 28.3572 46.2451 28.3496C46.2925 28.3475 46.3 28.3291 46.2677 28.2945C46.0738 28.0914 45.924 27.8568 45.8185 27.591C45.7958 27.5337 45.8055 27.4824 45.8476 27.437C46.1115 27.1474 46.4449 27.0555 46.8478 27.1614C46.8941 27.1733 46.9087 27.2025 46.8914 27.2489L46.7573 27.6056C46.7511 27.6212 46.7508 27.6383 46.7563 27.654C46.7619 27.6697 46.773 27.6828 46.7876 27.6911C46.8023 27.6993 46.8195 27.702 46.8361 27.6989C46.8528 27.6957 46.8678 27.6867 46.8785 27.6737L46.933 27.6037C47.4587 26.928 48.4534 25.6497 49.3395 26.44C50.1259 27.1403 51.0012 27.6067 51.9654 27.839C51.9723 27.8404 51.9796 27.8391 51.9857 27.8355C51.9918 27.8319 51.9964 27.8261 51.9986 27.8193C52.0008 27.8126 52.0004 27.8052 51.9976 27.7987C51.9947 27.7922 51.9896 27.7869 51.9831 27.7839C51.1375 27.4175 50.4114 26.9842 49.8049 26.4838C48.7513 25.6117 48.1809 25.9586 47.318 26.821C47.2782 26.8599 47.2308 26.8788 47.1758 26.8777L46.0802 26.8518C46.0253 26.8496 45.9784 26.868 45.9397 26.9069L45.7102 27.1371C45.651 27.1965 45.6014 27.1895 45.5615 27.116C45.3903 26.8037 45.1581 26.5443 44.8651 26.3379C44.8188 26.3055 44.7671 26.2915 44.71 26.2958C44.3604 26.324 44.157 26.5813 43.9606 26.8296ZM7.22907 23.1477C8.47763 23.031 9.58291 23.3909 10.5449 24.2273C10.6203 24.2933 10.6203 24.3592 10.5449 24.4251C10.4103 24.5431 10.1006 24.7816 9.7375 25.0612L9.73749 25.0613L9.73747 25.0613C8.95805 25.6615 7.93246 26.4513 7.86412 26.6459C7.82857 26.7464 7.85604 26.7686 7.94653 26.7124C9.07659 26.0078 10.1016 25.1762 11.0216 24.2176C11.6321 23.5817 12.2834 23.1937 12.9956 22.7693C13.0732 22.7231 13.1515 22.6764 13.2305 22.629C13.2779 22.5998 13.328 22.5928 13.3808 22.6079C13.9658 22.7714 14.3434 23.1345 14.7199 23.4965C15.2316 23.9884 15.7412 24.4783 16.7661 24.4624C16.8114 24.4624 16.8313 24.4397 16.8259 24.3943C16.8216 24.3597 16.8006 24.3392 16.7629 24.3327C16.0988 24.2257 15.6738 24.1447 15.1906 23.6292C14.6849 23.0861 14.2276 22.6047 13.5166 22.3307C13.4595 22.3091 13.4034 22.3107 13.3485 22.3356C12.4242 22.7614 11.6076 23.3385 10.8988 24.0668C10.86 24.1068 10.8185 24.1106 10.7744 24.0782C10.7129 24.0337 10.6522 23.9891 10.592 23.9448L10.592 23.9448L10.592 23.9448C10.1636 23.6297 9.75902 23.3322 9.23764 23.2028C8.00147 22.8932 6.86388 22.9143 5.62609 23.3374C5.38532 23.42 3.96979 23.9128 4.00049 24.1252C4.00911 24.1857 4.04197 24.2041 4.09906 24.1803C4.18723 24.1433 4.27697 24.1054 4.36799 24.0669L4.368 24.0668C5.28951 23.6771 6.34227 23.2318 7.22907 23.1477ZM16.9568 26.5049C16.0842 26.3347 16.4155 25.1011 16.8889 24.7218C17.0295 24.6091 17.1663 24.4951 17.3007 24.383L17.3007 24.383C17.9498 23.8418 18.5458 23.345 19.2659 23.2563C19.4437 23.2347 19.4512 23.2617 19.2885 23.3374C19.2163 23.3708 19.1464 23.4022 19.0782 23.4327C18.7195 23.5937 18.4111 23.7321 18.0879 24.0182C17.9745 24.1186 17.8462 24.2169 17.7148 24.3176L17.7148 24.3177L17.7148 24.3177L17.7147 24.3177C17.1668 24.7377 16.5645 25.1994 16.7548 26.0218C16.7666 26.0759 16.799 26.1105 16.8518 26.1256C17.4276 26.2993 17.7898 25.9799 18.1686 25.6458L18.1686 25.6458C18.3128 25.5186 18.4594 25.3893 18.6212 25.2843C18.703 25.2302 18.7095 25.2383 18.6406 25.3086C18.3065 25.6522 17.9814 25.94 17.6719 26.2139C17.0909 26.7283 16.5651 27.1938 16.1391 27.8877C15.83 28.3902 15.5154 28.8895 15.1955 29.3855C15.1361 29.4773 15.0718 29.565 15.0073 29.6529L15.0073 29.653C14.8156 29.9144 14.6225 30.1778 14.5523 30.5575C14.246 32.2129 14.5401 33.8452 14.8388 35.5029C14.8662 35.6552 14.8937 35.8077 14.9207 35.9604C14.9228 35.9717 14.9217 35.9832 14.9176 35.9938C14.9135 36.0044 14.9065 36.0137 14.8975 36.0206C14.8884 36.0275 14.8777 36.0317 14.8664 36.0328C14.8551 36.0339 14.8437 36.0319 14.8335 36.0269C14.2146 35.7222 14.1338 31.8009 14.1887 31.1297C14.2547 30.3182 14.5464 29.9139 14.8844 29.4455C15.0433 29.2253 15.2125 28.9909 15.3732 28.6933C15.7987 27.9076 16.3341 27.2036 16.9794 26.5811C17.0214 26.5411 17.0139 26.5157 16.9568 26.5049ZM25.1026 26.3298C24.5672 26.0694 24.0458 25.7835 23.5384 25.4723C23.4878 25.442 23.4759 25.3999 23.5029 25.3459C23.6596 25.0298 23.9876 24.6602 24.3787 24.7834C24.6642 24.8739 24.6653 25.1679 24.6663 25.4496C24.6668 25.5967 24.6673 25.7404 24.7083 25.85C24.7546 25.9743 24.7961 25.9727 24.8327 25.8451C24.9523 25.4301 24.9038 24.7218 24.4191 24.5467C23.8535 24.344 23.582 24.7704 23.3251 25.1756C23.3037 25.2095 23.2893 25.2473 23.2826 25.2868C23.2759 25.3263 23.2771 25.3667 23.2862 25.4057C23.2952 25.4446 23.3118 25.4813 23.3352 25.5136C23.3585 25.5459 23.3881 25.5732 23.4221 25.5939L25.1495 26.6508C25.1969 26.6789 25.2308 26.7183 25.2513 26.7691C25.5147 27.4172 25.3899 28.0457 25.2642 28.6786L25.2642 28.6787C25.2364 28.8183 25.2087 28.9582 25.185 29.0986C25.1835 29.1106 25.1863 29.1228 25.1928 29.133C25.1993 29.1432 25.2092 29.1508 25.2207 29.1544C25.2322 29.1581 25.2447 29.1576 25.2559 29.153C25.267 29.1484 25.2763 29.1401 25.282 29.1294C25.6116 28.4194 26.0527 26.7918 25.1026 26.3298ZM19.3273 26.4611C18.8577 27.0166 18.8857 27.5845 19.4114 28.1648C19.4383 28.194 19.434 28.2162 19.3984 28.2313C19.3737 28.2421 19.3559 28.2437 19.3451 28.2362C18.3255 27.4111 18.744 25.7106 20.2678 26.0607C20.2863 26.0648 20.3038 26.0729 20.3189 26.0844C20.334 26.0959 20.3465 26.1105 20.3554 26.1273C20.3643 26.1441 20.3695 26.1627 20.3705 26.1817C20.3716 26.2007 20.3685 26.2197 20.3615 26.2374L20.3114 26.3639C20.2791 26.4428 20.2296 26.4563 20.1628 26.4044C19.8767 26.1839 19.5778 26.1661 19.3273 26.4611ZM36.136 32.3342L33.1675 32.3585C33.104 32.3585 33.0894 32.332 33.1239 32.2791C33.8812 31.0914 34.1958 29.7848 34.0676 28.3594C34.059 28.2621 34.0455 28.2616 34.0272 28.3577C33.8753 29.1942 33.7035 30.0301 33.5117 30.8655C33.2839 31.8592 32.1382 32.9226 31.3739 33.5581C31.3265 33.597 31.2721 33.6207 31.2107 33.6294C30.2929 33.758 29.3696 33.8153 28.441 33.8012C28.3893 33.8001 28.3414 33.8136 28.2972 33.8417C28.2067 33.899 28.1044 33.9298 27.9902 33.9341C27.9256 33.9363 27.8992 33.905 27.911 33.8401C28.0613 33.0231 28.0112 31.8657 27.4052 31.24C27.3977 31.2324 27.3885 31.2286 27.3778 31.2286C27.3594 31.2286 27.3449 31.2308 27.3341 31.2351C27.3061 31.247 27.3029 31.2643 27.3244 31.287C27.6961 31.6841 27.7397 32.5271 27.7381 33.0328C27.7349 33.7331 27.4699 34.2551 27.0045 34.7447C26.9411 34.8116 26.7415 35.0011 26.4819 35.2476L26.4819 35.2476C25.7363 35.9556 24.4953 37.1339 24.5612 37.2313C24.5882 37.2702 24.6205 37.2756 24.6582 37.2475C25.4786 36.6417 26.1764 35.9023 27.0474 34.9792C27.2624 34.7514 27.4879 34.5125 27.7284 34.2616C27.7661 34.2216 27.8124 34.1978 27.8674 34.1903C28.2804 34.1317 28.6959 34.1075 29.1056 34.0837H29.1056C30.4076 34.0081 31.6514 33.9359 32.5745 32.7718C32.6101 32.7265 32.6558 32.7011 32.7119 32.6957C33.2366 32.6436 33.7573 32.6202 34.2774 32.5968C34.8914 32.5692 35.5046 32.5417 36.123 32.4671C36.1769 32.4606 36.1968 32.4838 36.1828 32.5368C35.976 33.3073 35.8316 34.0908 35.7498 34.8873C35.7336 35.0397 35.7514 35.044 35.8031 34.9003C36.0099 34.321 36.1651 33.7342 36.2685 33.1398C36.3606 32.6162 36.8437 32.0651 37.3398 31.7165C38.374 30.9887 39.224 30.2998 39.3807 28.9429C39.4841 28.0579 39.4798 27.1706 39.3678 26.2812C39.3656 26.265 39.3602 26.2553 39.3516 26.252C39.3398 26.2477 39.3252 26.2499 39.308 26.2585C39.3037 26.2607 39.3021 26.2644 39.3031 26.2698C39.3268 27.2425 39.2617 28.2097 39.1076 29.1715C38.9371 30.2434 37.9613 30.9754 37.1077 31.6157L37.1077 31.6158C36.8046 31.8431 36.517 32.0589 36.2862 32.2742C36.2442 32.3142 36.1941 32.3342 36.136 32.3342ZM25.004 32.1996C24.9598 31.4637 25.2712 30.9482 25.938 30.6531C25.9897 30.6294 26.0301 30.6423 26.0592 30.6921C26.1195 30.7936 26.0866 30.8785 25.9606 30.9466C25.4683 31.2092 25.2738 31.6101 25.3773 32.1494C25.388 32.2088 25.422 32.2472 25.4791 32.2645C25.7753 32.3552 26.0118 32.2618 26.1884 31.984C26.4254 31.6155 26.4922 31.2146 26.3888 30.7812C26.3576 30.6526 26.3829 30.6407 26.4648 30.7455C26.9318 31.3453 26.4599 32.553 25.618 32.5352C25.409 32.5309 25.0492 32.4633 24.5386 32.3325C24.2505 32.2586 23.9332 32.0503 23.6232 31.8466C23.2532 31.6037 22.8935 31.3675 22.606 31.3745C21.5476 31.4021 20.1821 31.2805 19.3225 30.5932C18.9476 30.2917 18.6729 30.0712 18.1929 29.7373C17.2363 29.071 17.3915 27.6688 17.5369 26.6654C17.5399 26.6522 17.5475 26.6405 17.5584 26.6324C17.5693 26.6244 17.5826 26.6205 17.5961 26.6215C17.6096 26.6225 17.6222 26.6282 17.6318 26.6378C17.6414 26.6473 17.6473 26.66 17.6484 26.6735C17.6493 26.8152 17.6456 26.9644 17.6418 27.1181C17.6246 27.8117 17.6053 28.5948 17.9942 29.1748C18.265 29.5806 18.7824 29.9305 19.2696 30.26L19.2697 30.26C19.4713 30.3964 19.6678 30.5293 19.8396 30.6613C20.2768 30.9973 21.4927 31.1226 22.3243 31.2082C22.5315 31.2296 22.7149 31.2484 22.8565 31.2675C23.2447 31.3201 23.5262 31.5095 23.8128 31.7023C24.0033 31.8305 24.1961 31.9602 24.4239 32.0521C24.5909 32.1191 24.7573 32.1877 24.9232 32.258C24.9814 32.2818 25.0083 32.2623 25.004 32.1996ZM24.3577 28.6819C24.2025 28.5663 24.1567 28.3426 24.2203 28.0108C24.23 27.9589 24.2569 27.9195 24.3011 27.8925C24.4121 27.8233 24.5095 27.7401 24.5936 27.6428C24.6862 27.5358 24.6636 27.4975 24.5257 27.5277C24.0355 27.6369 23.8249 27.9168 23.8939 28.3674C23.9523 28.7498 24.3713 29.07 24.7245 29.3399C24.8206 29.4133 24.9117 29.483 24.9895 29.5492C25.148 29.6837 25.2934 29.856 25.4421 30.0321C25.5692 30.1828 25.6988 30.3363 25.8411 30.4715C25.9811 30.6056 26.0026 30.5883 25.9057 30.4197C25.5071 29.7324 24.9911 29.1531 24.3577 28.6819ZM24.3415 29.8799C24.2388 29.8001 24.1421 29.7203 24.0492 29.6435C23.4568 29.1544 23.0195 28.7933 22.1633 29.4001C22.1051 29.4411 22.0577 29.4433 22.0211 29.4065C21.9844 29.3676 21.9839 29.3287 22.0195 29.2898C22.9985 28.1988 24.0131 29.2226 24.7945 30.0112C24.9559 30.174 25.1073 30.3268 25.2464 30.4489C25.2787 30.4781 25.2739 30.498 25.2319 30.5089C25.1543 30.528 24.6591 30.1328 24.4346 29.9536L24.4345 29.9535C24.3926 29.9201 24.3601 29.8942 24.3415 29.8799ZM22.9017 33.8352C23.4043 34.3539 22.8339 35.5357 22.3329 35.8777C21.8207 36.2279 20.8609 37.1551 20.8318 37.8862C20.8264 38.0256 20.8619 38.0369 20.9384 37.9202C21.0361 37.773 21.1278 37.6205 21.2193 37.4684C21.4442 37.0946 21.6676 36.7232 21.9742 36.4386C22.0738 36.3461 22.173 36.2582 22.2699 36.1722C22.8749 35.636 23.3912 35.1784 23.3397 34.1934C23.3164 33.7501 22.4447 32.9916 21.8816 32.5016C21.7405 32.3788 21.6188 32.273 21.5347 32.1931C21.1512 31.8289 20.8135 31.5998 20.5215 31.5058C19.7362 31.2512 18.7828 31.415 18.3223 32.1866C18.1328 32.5031 17.9363 32.7974 17.7447 33.0845C17.0933 34.0608 16.4978 34.9533 16.4203 36.3462C16.4171 36.3948 16.4397 36.4164 16.4882 36.411C16.687 36.3916 16.8179 35.5551 16.8534 35.2974C16.9826 34.3948 17.6914 33.4403 18.3885 32.5017C18.4501 32.4186 18.5117 32.3358 18.5727 32.2531C19.2546 31.3291 20.7025 31.4636 21.4248 32.2595C21.9096 32.7945 22.4019 33.3197 22.9017 33.8352Z" fill="#3291C9"/>
<defs>
<linearGradient id="paint0_linear_229_10923" x1="10.4178" y1="9.71163" x2="68.1465" y2="76.0166" gradientUnits="userSpaceOnUse">
<stop stop-color="#1A1E21"/>
<stop offset="1" stop-color="#06060A"/>
</linearGradient>
</defs>
</svg>
