<!-- by TradeStack --><svg width="56" height="56" viewBox="0 0 56 56" xmlns="http://www.w3.org/2000/svg"><path fill="#F0F3FA" d="M0 0h56v56H0z"/><path d="m35.03 20.5 4.77-2.87a.68.68 0 0 0-.02-1.18l-11.27-6.32a1.05 1.05 0 0 0-1.02 0l-14.96 8.41c-.33.18-.53.53-.53.9V36.4c0 .37.2.7.52.9l14.96 8.56c.32.19.72.19 1.04 0l14.96-8.57c.32-.18.52-.52.52-.89v-5.45a.7.7 0 0 0-1.04-.6l-14.44 8.27c-.32.19-.72.19-1.04 0l-8.58-4.89c-.73-.41-.9-1.38-.9-2.21V23.1c0-.37.58-.7.9-.9l8.57-4.88c.33-.19.73-.19 1.05 0l5.44 3.18c.33.2.74.19 1.07 0Z" fill="#28589A"/><path d="M22 33v-5.57c0-.52.58-.85 1.05-.6l4.42 2.38c.27.15.6.14.86 0l14.61-8.23c.47-.26 1.06.07 1.06.6v5.54c0 .3-.17.6-.44.74l-15.22 8.61a.9.9 0 0 1-.88 0l-5-2.73a.86.86 0 0 1-.46-.75Z" fill="#5588C7"/></svg>