<!-- by TradeStack --><svg width="56" height="56" viewBox="0 0 56 56" fill="none" xmlns="http://www.w3.org/2000/svg">
<rect width="56" height="56" fill="#048ABD"/>
<path fill-rule="evenodd" clip-rule="evenodd" d="M21.4784 20.7317C20.428 21.6733 19.7063 22.6033 19.174 23.8578C19.1483 23.9177 19.1137 23.924 19.07 23.8766C18.606 23.374 18.1904 22.6685 18.3868 21.9572C18.9106 20.0524 21.9282 17.9273 23.5181 16.8669C26.9584 14.5723 30.8058 12.5921 34.7671 11.4246C35.9304 11.0817 37.118 10.9465 38.3298 11.0189C39.1328 11.0668 39.8065 11.6498 40.4046 12.1674L40.4049 12.1676L40.406 12.1686L40.4065 12.1691L40.4067 12.1692L40.407 12.1695L40.4084 12.1707C40.461 12.2162 40.513 12.2612 40.5645 12.3053C40.611 12.3459 40.6034 12.3647 40.5417 12.3618C38.0551 12.2459 35.6054 12.8775 33.2896 13.7437C29.0152 15.3459 24.9059 17.6564 21.4784 20.7317ZM40.0393 16.034L38.7511 15.9558C38.7094 15.9529 38.6932 15.9306 38.7027 15.8891L39.2948 13.3599C39.31 13.2952 39.3499 13.2652 39.4144 13.2701L40.8947 13.3744C40.9877 13.3811 41.019 13.4294 40.9887 13.5192L40.1631 15.95C40.1432 16.0098 40.1019 16.0378 40.0393 16.034ZM38.2857 13.4005L35.8446 13.9669C35.8238 13.9715 35.8051 13.9832 35.7916 14C35.7782 14.0169 35.7708 14.0379 35.7706 14.0596L35.7464 16.428C35.7463 16.4425 35.7493 16.4569 35.7554 16.47C35.7615 16.4831 35.7705 16.4946 35.7816 16.5037C35.7927 16.5127 35.8056 16.5191 35.8195 16.5223C35.8334 16.5255 35.8478 16.5255 35.8617 16.5222L37.8957 16.0427C37.9137 16.0384 37.93 16.0289 37.9427 16.0152C37.9553 16.0016 37.9637 15.9844 37.9669 15.9659L38.3982 13.5106C38.4009 13.4951 38.3998 13.4792 38.395 13.4643C38.3902 13.4494 38.3819 13.4359 38.3708 13.425C38.3597 13.4141 38.3461 13.4062 38.3313 13.4019C38.3164 13.3976 38.3008 13.3972 38.2857 13.4005ZM34.4852 14.5086L34.4888 14.5333C34.595 15.2521 34.7277 16.1505 34.6532 16.8408C34.6484 16.8824 34.6271 16.9104 34.5891 16.9249L32.1153 17.9186C32.0688 17.9369 32.0379 17.9225 32.0228 17.8751L31.3424 15.753C31.3225 15.6931 31.3414 15.6516 31.3993 15.6284L34.3713 14.442C34.3831 14.4373 34.3957 14.4353 34.4083 14.4362C34.4209 14.4372 34.4331 14.441 34.444 14.4474C34.455 14.4538 34.4644 14.4626 34.4715 14.4732C34.4786 14.4838 34.4833 14.4959 34.4852 14.5086ZM27.0467 18.0026L28.4089 19.7684C28.4215 19.7848 28.4395 19.7962 28.4595 19.8004C28.4796 19.8046 28.5005 19.8015 28.5185 19.7916L30.8955 18.4893C30.915 18.4788 30.9299 18.4611 30.937 18.4398C30.9441 18.4186 30.943 18.3954 30.934 18.3749L30.0543 16.357C30.0495 16.3458 30.0424 16.3358 30.0335 16.3275C30.0247 16.3192 30.0143 16.3129 30.0029 16.309C29.9915 16.305 29.9795 16.3035 29.9675 16.3046C29.9555 16.3056 29.9439 16.3091 29.9333 16.315L27.0738 17.8708C27.0627 17.8769 27.0531 17.8854 27.0456 17.8957C27.0381 17.906 27.0329 17.9178 27.0303 17.9303C27.0277 17.9429 27.0279 17.9558 27.0307 17.9683C27.0335 17.9808 27.039 17.9925 27.0467 18.0026ZM38.1448 19.4874L37.3064 19.4396C37.2609 19.4367 37.2476 19.414 37.2666 19.3715L38.3156 17.0683C38.3355 17.0248 38.3692 17.0046 38.4167 17.0075L39.5269 17.077C39.5414 17.0778 39.5556 17.0824 39.5678 17.0904C39.5801 17.0985 39.5901 17.1096 39.5968 17.1228C39.6036 17.1359 39.6069 17.1506 39.6063 17.1655C39.6058 17.1803 39.6015 17.1947 39.5938 17.2074L38.2715 19.4208C38.2421 19.4691 38.1998 19.4913 38.1448 19.4874ZM37.5954 17.0959L35.7008 17.5188C35.6912 17.521 35.6824 17.526 35.6756 17.5332C35.6687 17.5404 35.6642 17.5495 35.6624 17.5594L35.2781 19.7642C35.2767 19.7725 35.2773 19.781 35.2799 19.7891C35.2826 19.7971 35.2872 19.8043 35.2932 19.8101C35.2993 19.8158 35.3067 19.8199 35.3148 19.822C35.3228 19.8241 35.3313 19.8242 35.3393 19.8221L36.747 19.486C36.7549 19.4843 36.7623 19.4806 36.7685 19.4753C36.7747 19.47 36.7796 19.4632 36.7826 19.4556L37.6523 17.1639C37.6556 17.1554 37.6566 17.1461 37.6551 17.1371C37.6536 17.128 37.6497 17.1195 37.6439 17.1125C37.638 17.1056 37.6304 17.1003 37.6219 17.0974C37.6133 17.0944 37.6042 17.0939 37.5954 17.0959ZM34.5337 20.0727L32.8897 20.7361C32.8784 20.7406 32.8663 20.7426 32.8542 20.742C32.8422 20.7414 32.8303 20.7381 32.8196 20.7325C32.8088 20.7269 32.7993 20.719 32.7918 20.7094C32.7843 20.6998 32.7788 20.6886 32.7758 20.6767L32.3146 18.8805C32.3093 18.8599 32.3116 18.8381 32.3211 18.8191C32.3305 18.8002 32.3464 18.7854 32.3659 18.7776L34.6048 17.8766C34.6183 17.8712 34.6328 17.8693 34.6472 17.8711C34.6615 17.873 34.6751 17.8785 34.6868 17.8872C34.6985 17.8959 34.7078 17.9075 34.7138 17.9208C34.7199 17.9341 34.7226 17.9488 34.7216 17.9635L34.5878 19.9973C34.5867 20.0138 34.5811 20.0297 34.5715 20.043C34.5619 20.0563 34.5488 20.0666 34.5337 20.0727ZM25.4368 21.8776L27.4267 20.4609C27.4356 20.4547 27.443 20.4466 27.4485 20.4372C27.454 20.4277 27.4574 20.4172 27.4585 20.4063C27.4595 20.3954 27.4583 20.3844 27.4548 20.3741C27.4512 20.3637 27.4455 20.3543 27.4381 20.3464L25.8652 18.6834C25.8531 18.6705 25.8369 18.6624 25.8194 18.6605C25.8019 18.6587 25.7844 18.6632 25.7699 18.6733L23.3814 20.3739C23.3718 20.381 23.364 20.3903 23.3587 20.4011C23.3534 20.4119 23.3506 20.4238 23.3508 20.4359C23.3509 20.448 23.3539 20.4598 23.3595 20.4705C23.3651 20.4811 23.3731 20.4902 23.3829 20.4971L25.3514 21.879C25.364 21.8878 25.379 21.8924 25.3943 21.8921C25.4096 21.8918 25.4245 21.8868 25.4368 21.8776ZM29.1148 20.4609L31.2414 19.2962C31.2513 19.2906 31.2622 19.2872 31.2735 19.2861C31.2847 19.2851 31.2961 19.2864 31.3068 19.2901C31.3175 19.2938 31.3274 19.2997 31.3357 19.3075C31.3441 19.3153 31.3507 19.3248 31.3552 19.3353L32.0641 21.023C32.0721 21.0421 32.0728 21.0636 32.066 21.0832C32.0591 21.1028 32.0452 21.1191 32.0271 21.1287L30.4457 21.995C30.4298 22.0036 30.4115 22.0066 30.3937 22.0034C30.3759 22.0003 30.3596 21.9912 30.3475 21.9776L29.0935 20.5898C29.0851 20.5806 29.0788 20.5694 29.0753 20.5573C29.0717 20.5452 29.071 20.5325 29.073 20.52C29.0751 20.5076 29.0799 20.4958 29.0872 20.4855C29.0944 20.4753 29.1039 20.4668 29.1148 20.4609ZM28.3833 23.3986L29.6928 22.4715C29.7025 22.4646 29.7105 22.4554 29.7161 22.4448C29.7217 22.4342 29.7249 22.4224 29.7253 22.4103C29.7257 22.3983 29.7234 22.3863 29.7185 22.3753C29.7136 22.3643 29.7062 22.3546 29.697 22.347L28.2011 21.0881C28.1881 21.0769 28.1718 21.0704 28.1548 21.0696C28.1378 21.0688 28.1211 21.0738 28.1071 21.0838L26.335 22.3325C26.324 22.3403 26.3153 22.351 26.3096 22.3634C26.3039 22.3758 26.3015 22.3895 26.3027 22.4032C26.3038 22.4168 26.3085 22.4299 26.3161 22.4411C26.3238 22.4524 26.3343 22.4613 26.3464 22.4672L28.3064 23.4059C28.3187 23.4117 28.3323 23.4141 28.3458 23.4128C28.3593 23.4115 28.3722 23.4066 28.3833 23.3986ZM24.6369 22.5497L23.3231 23.8882C23.288 23.9229 23.2481 23.9312 23.2035 23.9128L20.8777 22.9307C20.8684 22.9269 20.8601 22.921 20.8534 22.9133C20.8468 22.9056 20.842 22.8964 20.8395 22.8864C20.837 22.8764 20.8369 22.8659 20.8391 22.8557C20.8412 22.8455 20.8457 22.836 20.8521 22.8278C21.3228 22.232 21.8485 21.6912 22.4292 21.2054C22.4388 21.1969 22.4508 21.1917 22.4636 21.1907C22.4764 21.1897 22.4893 21.1928 22.5004 21.1996L24.6283 22.4816C24.6596 22.5009 24.6625 22.5236 24.6369 22.5497ZM27.004 24.7168L27.8124 23.8781C27.8195 23.8708 27.8246 23.8618 27.8273 23.8519C27.83 23.8421 27.8302 23.8317 27.828 23.8217C27.8257 23.8118 27.821 23.8026 27.8143 23.7949C27.8076 23.7873 27.7991 23.7815 27.7897 23.7781L25.6646 22.9771C25.6124 22.9577 25.5668 22.9684 25.5279 23.0089L24.4163 24.1562C24.3422 24.2325 24.3569 24.2803 24.4604 24.2996L26.8588 24.7632C26.9148 24.7738 26.9632 24.7583 27.004 24.7168ZM22.909 24.5488C22.7353 24.8443 22.6798 25.0341 22.5887 25.4846C22.5754 25.5512 22.537 25.5754 22.4734 25.557L20.0465 24.8936C19.9887 24.8772 19.9607 24.8385 19.9626 24.7777C19.9787 24.3508 20.0973 23.9588 20.3184 23.6014C20.345 23.5589 20.3815 23.5464 20.428 23.5638L22.8762 24.4547C22.9246 24.473 22.9355 24.5044 22.909 24.5488ZM23.8356 25.7612L26.372 25.8829C26.4261 25.8858 26.4617 25.8607 26.4788 25.8076L26.6738 25.1963C26.6899 25.1461 26.6719 25.1171 26.6197 25.1094L24.0946 24.7588C24.0538 24.753 24.0215 24.768 23.9978 24.8037C23.8337 25.0596 23.7459 25.3416 23.7345 25.6497C23.7316 25.7202 23.7653 25.7574 23.8356 25.7612Z" fill="url(#paint0_linear_229_6020)"/>
<path fill-rule="evenodd" clip-rule="evenodd" d="M16.5238 23.5536L16.9038 24.3242C16.9199 24.3571 16.91 24.3749 16.8739 24.3778L14.3602 24.6125C14.3137 24.6164 14.28 24.5971 14.2592 24.5546L13.7966 23.6275C13.7851 23.605 13.7797 23.5799 13.7807 23.5547C13.7817 23.5294 13.7892 23.5049 13.8025 23.4835C13.8157 23.4621 13.8342 23.4447 13.8562 23.4328C13.8781 23.421 13.9027 23.4152 13.9275 23.416L16.4156 23.4841C16.4649 23.485 16.501 23.5082 16.5238 23.5536ZM12.6266 23.613L13.2259 24.8081C13.2372 24.8313 13.2306 24.8462 13.2059 24.853L10.7421 25.6019C10.6975 25.6154 10.6623 25.6029 10.6367 25.5642C10.3435 25.1258 10.1162 24.6531 9.95493 24.1461C9.95109 24.1335 9.94987 24.1203 9.95136 24.1072C9.95286 24.0941 9.95702 24.0815 9.96359 24.0702C9.97016 24.0589 9.97899 24.0491 9.98951 24.0414C10 24.0338 10.012 24.0285 10.0247 24.0258L12.4999 23.5493C12.5578 23.5386 12.6 23.5599 12.6266 23.613ZM16.1124 26.7173L18.1735 25.9394C18.1807 25.9367 18.1871 25.9322 18.1922 25.9264C18.1973 25.9206 18.2009 25.9136 18.2027 25.906C18.2045 25.8984 18.2045 25.8905 18.2026 25.883C18.2008 25.8754 18.1971 25.8684 18.192 25.8626L17.2269 24.7834C17.2216 24.7776 17.2149 24.7732 17.2074 24.7706C17.1999 24.7681 17.192 24.7675 17.1842 24.7689L14.7659 25.1543C14.7575 25.1556 14.7497 25.1593 14.7431 25.1649C14.7366 25.1704 14.7317 25.1777 14.729 25.1859C14.7262 25.194 14.7256 25.2028 14.7274 25.2113C14.7291 25.2198 14.7331 25.2276 14.7389 25.2339L16.0612 26.7057C16.0676 26.7126 16.0759 26.7174 16.0851 26.7195C16.0942 26.7215 16.1037 26.7208 16.1124 26.7173ZM22.1945 36.0824C24.3097 37.1298 27.4098 38.5523 29.7228 38.0873C29.7731 38.0776 29.792 38.0979 29.7797 38.1481C29.374 39.8024 28.2481 40.0052 26.7422 39.7155C24.7409 39.3287 22.7809 38.3756 20.7498 37.3021C17.3764 35.5204 14.3313 33.3702 11.6145 30.8516C10.5755 29.8883 9.06386 28.1702 9.00123 26.6217C8.98984 26.3494 9.05769 25.8201 9.20477 25.034C9.21236 24.9944 9.22565 24.992 9.24462 25.0268C10.1831 26.741 11.365 28.2596 12.7903 29.5826C15.6237 32.2152 18.7585 34.3818 22.1945 36.0824ZM13.0422 28.3919L15.1616 27.1809C15.1677 27.1775 15.173 27.1727 15.177 27.1669C15.181 27.1611 15.1837 27.1545 15.1848 27.1475C15.1859 27.1405 15.1854 27.1333 15.1833 27.1266C15.1813 27.1198 15.1778 27.1136 15.173 27.1084L13.6998 25.4744C13.6939 25.4677 13.6861 25.4628 13.6775 25.4605C13.6689 25.4582 13.6598 25.4585 13.6514 25.4614L11.226 26.345C11.2188 26.3475 11.2124 26.3518 11.2073 26.3575C11.2022 26.3632 11.1985 26.3701 11.1967 26.3776C11.1948 26.3851 11.1949 26.3929 11.1967 26.4004C11.1986 26.4078 11.2023 26.4147 11.2075 26.4203L12.9867 28.3817C12.9935 28.3895 13.0026 28.3948 13.0127 28.3966C13.0228 28.3984 13.0332 28.3968 13.0422 28.3919ZM18.7855 29.0032L16.9209 27.4952C16.9085 27.485 16.8988 27.4718 16.8927 27.4568C16.8866 27.4418 16.8843 27.4255 16.886 27.4094C16.8877 27.3932 16.8933 27.3778 16.9024 27.3644C16.9115 27.3511 16.9237 27.3403 16.938 27.333L18.7072 26.4348C18.7233 26.4267 18.7413 26.4233 18.7592 26.4251C18.7771 26.4269 18.7941 26.4338 18.8083 26.445L20.1975 27.5546C20.2081 27.5631 20.2168 27.5737 20.2231 27.5859C20.2293 27.598 20.233 27.6114 20.2338 27.6251C20.2346 27.6388 20.2325 27.6525 20.2277 27.6653C20.223 27.6781 20.2156 27.6898 20.2061 27.6995L18.9108 28.996C18.8943 29.0124 18.8725 29.0222 18.8495 29.0235C18.8265 29.0248 18.8037 29.0176 18.7855 29.0032ZM16.7003 31.4585L18.2133 29.7434C18.2179 29.7383 18.2215 29.7323 18.2237 29.7257C18.2259 29.7191 18.2268 29.7121 18.2262 29.7052C18.2257 29.6983 18.2238 29.6916 18.2206 29.6854C18.2174 29.6793 18.213 29.6739 18.2076 29.6695L16.0412 27.9138C16.0329 27.9074 16.0228 27.9038 16.0123 27.9035C16.0018 27.9033 15.9915 27.9064 15.9829 27.9124L14.0428 29.2741C14.0365 29.2786 14.0312 29.2845 14.0275 29.2914C14.0238 29.2983 14.0217 29.306 14.0215 29.3139C14.0212 29.3218 14.0227 29.3296 14.0259 29.3368C14.0291 29.3439 14.034 29.3503 14.04 29.3552L16.632 31.4643C16.6419 31.4725 16.6545 31.4764 16.6672 31.4753C16.68 31.4742 16.6918 31.4682 16.7003 31.4585ZM22.5247 29.1857L21.9739 30.9762C21.9701 30.9884 21.9636 30.9996 21.955 31.009C21.9463 31.0183 21.9356 31.0254 21.9238 31.0299C21.912 31.0344 21.8993 31.0361 21.8868 31.0348C21.8742 31.0335 21.8621 31.0293 21.8514 31.0225L19.7975 29.7318C19.7878 29.7257 19.7794 29.7176 19.7729 29.708C19.7664 29.6984 19.762 29.6875 19.7598 29.6761C19.7577 29.6646 19.7579 29.6529 19.7605 29.6415C19.763 29.6302 19.7679 29.6195 19.7747 29.6102L20.8608 28.1427C20.873 28.1258 20.8911 28.1142 20.9114 28.1101C20.9317 28.1061 20.9527 28.11 20.9704 28.121L22.4891 29.0887C22.5048 29.0985 22.5169 29.1134 22.5234 29.1309C22.5298 29.1485 22.5303 29.1678 22.5247 29.1857ZM24.9388 32.448L24.7552 30.2649C24.754 30.2507 24.7492 30.2371 24.7412 30.2254C24.7332 30.2137 24.7223 30.2043 24.7097 30.1983L23.2806 29.5146C23.2694 29.5092 23.2571 29.5066 23.2448 29.507C23.2325 29.5073 23.2203 29.5105 23.2094 29.5164C23.1985 29.5223 23.1891 29.5307 23.182 29.541C23.1748 29.5512 23.1701 29.563 23.1681 29.5754L22.8464 31.531C22.8436 31.5486 22.8465 31.5666 22.8548 31.5823C22.863 31.598 22.8761 31.6105 22.892 31.6179L24.8249 32.5291C24.8377 32.5353 24.8519 32.538 24.866 32.5368C24.8801 32.5357 24.8936 32.5307 24.9052 32.5224C24.9168 32.5142 24.926 32.5029 24.9319 32.4898C24.9378 32.4767 24.9402 32.4623 24.9388 32.448ZM17.903 32.2364L19.1641 30.4662C19.1787 30.4462 19.2001 30.4326 19.2241 30.428C19.2482 30.4234 19.273 30.4283 19.2937 30.4416L21.5725 31.8887C21.5917 31.901 21.6061 31.9198 21.6132 31.9417C21.6202 31.9637 21.6194 31.9875 21.6109 32.009L20.7982 34.0616C20.7928 34.0749 20.7847 34.0869 20.7744 34.0966C20.764 34.1064 20.7517 34.1137 20.7383 34.1182C20.7249 34.1226 20.7107 34.124 20.6967 34.1222C20.6827 34.1204 20.6692 34.1156 20.6572 34.108L17.9301 32.3784C17.9187 32.3712 17.909 32.3617 17.9014 32.3506C17.8938 32.3394 17.8886 32.3267 17.886 32.3134C17.8835 32.3001 17.8837 32.2863 17.8866 32.2731C17.8895 32.2598 17.8951 32.2473 17.903 32.2364ZM27.4624 33.2693L26.6283 30.8125C26.626 30.8048 26.6217 30.7978 26.616 30.7923C26.6103 30.7867 26.6033 30.7827 26.5956 30.7806L25.3886 30.4518C25.3809 30.4497 25.3728 30.4496 25.3651 30.4515C25.3574 30.4535 25.3503 30.4574 25.3444 30.4629C25.3386 30.4684 25.3343 30.4753 25.3318 30.483C25.3293 30.4907 25.3287 30.4989 25.3302 30.5068L25.7359 32.8608C25.7376 32.8699 25.7419 32.8783 25.7482 32.885C25.7545 32.8917 25.7626 32.8964 25.7715 32.8984L27.4055 33.3316C27.4138 33.334 27.4226 33.334 27.431 33.3316C27.4393 33.3292 27.4468 33.3246 27.4527 33.3181C27.4586 33.3117 27.4626 33.3037 27.4643 33.2951C27.466 33.2865 27.4654 33.2776 27.4624 33.2693ZM27.0838 30.8081L27.7172 30.6792C27.7694 30.6686 27.8074 30.6874 27.8311 30.7357L29.0168 33.0332C29.0471 33.0921 29.0334 33.1375 28.9755 33.1693C28.7098 33.3132 28.427 33.3755 28.1271 33.3562C28.0702 33.3533 28.0308 33.3248 28.009 33.2707L27.0454 30.8806C27.0292 30.841 27.0421 30.8168 27.0838 30.8081ZM22.0195 34.8758L24.6171 36.11C24.6304 36.1161 24.6449 36.1188 24.6595 36.118C24.674 36.1172 24.6881 36.1128 24.7007 36.1053C24.7132 36.0978 24.7238 36.0873 24.7316 36.0748C24.7393 36.0622 24.744 36.048 24.7452 36.0332L24.9345 33.6503C24.9361 33.6316 24.932 33.6128 24.9228 33.5965C24.9137 33.5802 24.8999 33.5672 24.8833 33.559L22.7183 32.5276C22.7064 32.5218 22.6934 32.5188 22.6802 32.5186C22.667 32.5185 22.6539 32.5212 22.6418 32.5268C22.6298 32.5323 22.619 32.5404 22.6104 32.5505C22.6017 32.5607 22.5953 32.5726 22.5917 32.5856L21.9696 34.7657C21.9636 34.7871 21.9653 34.81 21.9744 34.8302C21.9836 34.8504 21.9995 34.8666 22.0195 34.8758ZM25.9109 33.9516L27.6816 34.4267C27.6976 34.4311 27.7119 34.4402 27.7227 34.4528C27.7336 34.4655 27.7406 34.4811 27.7428 34.4977L28.0759 37.053C28.0777 37.0669 28.0762 37.081 28.0714 37.0941C28.0666 37.1072 28.0588 37.1189 28.0485 37.1282C28.0383 37.1375 28.0259 37.1441 28.0126 37.1474C27.9992 37.1507 27.9853 37.1506 27.972 37.1472L25.8583 36.5938C25.8404 36.589 25.8245 36.5783 25.8132 36.5634C25.8018 36.5485 25.7957 36.5301 25.7957 36.5113L25.8056 34.0342C25.8056 34.0211 25.8086 34.0082 25.8143 33.9965C25.8199 33.9848 25.8282 33.9745 25.8384 33.9665C25.8485 33.9586 25.8604 33.9531 25.8729 33.9505C25.8855 33.9479 25.8985 33.9483 25.9109 33.9516ZM29.3754 34.25C29.0803 34.389 28.7705 34.4624 28.4459 34.4702C28.4355 34.4705 28.4252 34.473 28.4158 34.4776C28.4064 34.4823 28.3981 34.4889 28.3914 34.497C28.3848 34.5051 28.38 34.5145 28.3774 34.5247C28.3748 34.5348 28.3744 34.5454 28.3762 34.5556L28.8317 37.1225C28.8393 37.1631 28.863 37.1853 28.9028 37.1892C29.3299 37.2297 29.7317 37.1457 30.1084 36.9371C30.1625 36.9072 30.1815 36.8618 30.1654 36.801L29.495 34.3065C29.4769 34.2398 29.4371 34.221 29.3754 34.25Z" fill="url(#paint1_linear_229_6020)"/>
<path fill-rule="evenodd" clip-rule="evenodd" d="M37.3107 40.2748C38.1989 35.9739 38.4181 31.5311 37.9085 27.1636C37.6836 25.2413 37.231 22.9323 36.0225 21.4054C35.9912 21.3659 35.9993 21.3383 36.0467 21.3229C36.6142 21.1442 37.1508 21.163 37.6566 21.3794C39.0785 21.9863 39.571 26.1394 39.6792 27.3461C40.0559 31.5325 39.8713 35.6924 39.1255 39.8257C38.912 41.0078 38.5675 42.2096 38.0921 43.4313C37.4772 45.0117 36.7356 45.4404 35.2197 45.9895C35.1514 46.0146 35.1353 45.9953 35.1714 45.9315C36.1839 44.1642 36.897 42.2787 37.3107 40.2748ZM33.5601 24.3417C33.3551 24.0143 33.2327 23.8999 32.9338 23.6334C32.8902 23.5947 32.8868 23.5527 32.9238 23.5073C33.4742 22.8313 34.0801 22.2113 34.7415 21.6473C34.7852 21.6097 34.8302 21.6073 34.8767 21.6401C35.2126 21.8748 35.4755 22.1761 35.6653 22.544C35.689 22.5894 35.6819 22.6285 35.6439 22.6614L33.6668 24.3577C33.6251 24.3934 33.5895 24.3881 33.5601 24.3417ZM35.9428 23.3726L33.953 24.9255C33.9159 24.9544 33.9036 24.9916 33.9159 25.037L34.4099 26.8608C34.4118 26.8681 34.4153 26.8749 34.4202 26.8806C34.425 26.8863 34.4311 26.8909 34.4378 26.8938C34.4446 26.8967 34.4519 26.898 34.4591 26.8976C34.4664 26.8971 34.4734 26.895 34.4796 26.8912L36.6147 25.6555C36.6621 25.6285 36.6787 25.5879 36.6645 25.5339L36.0966 23.4262C36.0923 23.4104 36.0844 23.396 36.0734 23.3841C36.0625 23.3722 36.0488 23.3632 36.0336 23.3579C36.0185 23.3527 36.0023 23.3512 35.9865 23.3538C35.9706 23.3563 35.9556 23.3628 35.9428 23.3726ZM31.1375 27.3736L30.7062 26.8709C30.6721 26.8313 30.6688 26.7888 30.6963 26.7435L32.0741 24.53C32.1121 24.4682 32.1605 24.4585 32.2193 24.501C32.4632 24.6816 32.6544 24.9057 32.7929 25.1732C32.8176 25.2205 32.8138 25.2649 32.7815 25.3065L31.2172 27.3707C31.1916 27.4045 31.165 27.4055 31.1375 27.3736ZM31.7639 29.0496L33.526 27.5575C33.564 27.5257 33.5763 27.4851 33.563 27.4359L33.1417 25.883C33.1375 25.8667 33.129 25.852 33.1171 25.8403C33.1052 25.8287 33.0903 25.8205 33.0741 25.8168C33.0579 25.8131 33.0409 25.8139 33.025 25.8192C33.0091 25.8245 32.9948 25.834 32.9837 25.8468L31.4023 27.7082C31.3672 27.7497 31.3568 27.7975 31.371 27.8516L31.6813 29.0221C31.6956 29.0752 31.7231 29.0844 31.7639 29.0496ZM34.6191 27.8299L36.7783 26.797C36.7885 26.7921 36.7997 26.7897 36.811 26.7901C36.8223 26.7905 36.8333 26.7937 36.8431 26.7994C36.8529 26.8051 36.8612 26.8131 36.8673 26.8228C36.8733 26.8325 36.877 26.8435 36.878 26.855L37.1242 29.8057C37.1257 29.8226 37.1213 29.8395 37.1116 29.8533C37.1019 29.8671 37.0877 29.877 37.0716 29.8811L34.8781 30.4344C34.8684 30.437 34.8581 30.4374 34.8482 30.4355C34.8383 30.4337 34.8288 30.4296 34.8206 30.4237C34.8123 30.4178 34.8054 30.4101 34.8004 30.4012C34.7953 30.3923 34.7922 30.3824 34.7913 30.3721L34.5792 27.9008C34.5779 27.8863 34.581 27.8716 34.5881 27.8589C34.5952 27.8462 34.6061 27.8361 34.6191 27.8299ZM33.6541 28.3876L31.8237 29.687C31.8174 29.6915 31.8123 29.6976 31.8091 29.7047C31.8059 29.7118 31.8045 29.7197 31.8052 29.7275L31.9489 31.4035C31.9496 31.4104 31.9518 31.4171 31.9554 31.423C31.9589 31.4289 31.9638 31.4338 31.9696 31.4375C31.9754 31.4411 31.982 31.4434 31.9887 31.444C31.9955 31.4446 32.0023 31.4437 32.0087 31.4412L33.8833 30.7328C33.8921 30.7294 33.8997 30.7232 33.9048 30.7152C33.9099 30.7071 33.9124 30.6975 33.9118 30.6879L33.7239 28.4209C33.7233 28.4129 33.7207 28.4052 33.7162 28.3986C33.7118 28.3921 33.7057 28.3868 33.6986 28.3834C33.6915 28.38 33.6836 28.3786 33.6758 28.3793C33.668 28.3801 33.6605 28.3829 33.6541 28.3876ZM36.9705 34.731L34.7785 34.505C34.7625 34.5032 34.7478 34.4953 34.7373 34.483C34.7267 34.4706 34.7211 34.4547 34.7216 34.4384L34.8269 31.6513C34.8274 31.6361 34.8331 31.6216 34.8429 31.6102C34.8528 31.5989 34.8663 31.5913 34.881 31.589L37.0915 31.2689C37.1007 31.2676 37.1101 31.2684 37.119 31.2712C37.1279 31.274 37.1361 31.2787 37.143 31.285C37.1499 31.2914 37.1554 31.2992 37.159 31.3079C37.1627 31.3166 37.1644 31.326 37.1641 31.3355L37.0417 34.6687C37.0414 34.6777 37.0392 34.6864 37.0354 34.6945C37.0316 34.7026 37.0261 34.7098 37.0194 34.7156C37.0128 34.7215 37.005 34.7259 36.9966 34.7285C36.9881 34.7311 36.9793 34.732 36.9705 34.731ZM33.8277 31.7758L32.0456 32.1945C32.0264 32.1989 32.0091 32.2097 31.9965 32.2252C31.9839 32.2406 31.9767 32.2599 31.9759 32.2799L31.9147 34.0805C31.9138 34.1034 31.9213 34.1257 31.9358 34.1431C31.9503 34.1605 31.9707 34.1718 31.993 34.1747L33.758 34.3949C33.7703 34.3963 33.7828 34.3951 33.7947 34.3913C33.8065 34.3875 33.8175 34.3813 33.8269 34.373C33.8362 34.3647 33.8438 34.3545 33.8491 34.343C33.8544 34.3316 33.8573 34.3192 33.8576 34.3065L33.9373 31.8685C33.9379 31.8545 33.9353 31.8406 33.9297 31.8277C33.9241 31.8149 33.9156 31.8036 33.905 31.7946C33.8944 31.7856 33.8819 31.7793 33.8685 31.776C33.8551 31.7728 33.8411 31.7727 33.8277 31.7758ZM33.7481 35.5596L33.3837 38.0106C33.382 38.0222 33.3775 38.0331 33.3705 38.0424C33.3636 38.0518 33.3544 38.0592 33.3439 38.0639C33.3334 38.0687 33.3219 38.0707 33.3104 38.0697C33.299 38.0687 33.2879 38.0649 33.2784 38.0584L31.5888 36.9241C31.5777 36.917 31.5689 36.9068 31.5633 36.8948C31.5578 36.8827 31.5558 36.8693 31.5575 36.8561L31.8251 35.0279C31.8266 35.0183 31.83 35.009 31.8352 35.0008C31.8404 34.9926 31.8473 34.9856 31.8554 34.9802C31.8634 34.9749 31.8725 34.9714 31.882 34.9699C31.8915 34.9683 31.9012 34.9689 31.9105 34.9714L33.6983 35.4828C33.7143 35.4872 33.7282 35.4975 33.7374 35.5116C33.7466 35.5257 33.7504 35.5428 33.7481 35.5596ZM34.6064 35.7928L34.1978 38.5147C34.1949 38.5328 34.198 38.5514 34.2065 38.5676C34.2149 38.5839 34.2284 38.5968 34.2448 38.6045L36.3073 39.604C36.3189 39.6099 36.3317 39.6128 36.3447 39.6127C36.3576 39.6126 36.3704 39.6094 36.3819 39.6033C36.3934 39.5972 36.4033 39.5885 36.4109 39.5778C36.4184 39.5671 36.4234 39.5547 36.4254 39.5417L36.908 36.278C36.911 36.257 36.906 36.2356 36.8941 36.2181C36.8823 36.2007 36.8643 36.1884 36.8439 36.1839L34.7046 35.7232C34.6936 35.7209 34.6823 35.7209 34.6713 35.7232C34.6604 35.7255 34.65 35.7301 34.6408 35.7366C34.6316 35.7431 34.6238 35.7514 34.6179 35.7611C34.612 35.7707 34.6081 35.7815 34.6064 35.7928ZM31.4535 37.6441L33.1061 39.0492C33.1383 39.0762 33.1483 39.11 33.136 39.1506L32.5865 40.97C32.5823 40.9848 32.5742 40.9981 32.563 41.0085C32.5519 41.0189 32.5381 41.026 32.5233 41.029C32.5085 41.0319 32.4931 41.0307 32.4789 41.0254C32.4647 41.0202 32.4522 41.011 32.4428 40.999L30.9895 39.1549C30.9572 39.1144 30.9487 39.069 30.9639 39.0188L31.3681 37.6687C31.3707 37.6601 31.3753 37.6522 31.3816 37.6459C31.3879 37.6396 31.3957 37.635 31.4042 37.6326C31.4127 37.6301 31.4217 37.6299 31.4303 37.6319C31.4389 37.6339 31.4469 37.6381 31.4535 37.6441ZM32.2251 41.6668L30.7746 39.5635C30.7528 39.5316 30.7315 39.5321 30.7106 39.5649L30.2437 40.3066C30.2171 40.3491 30.2157 40.392 30.2394 40.4355L31.4735 42.733C31.4796 42.7445 31.4886 42.7542 31.4995 42.7612C31.5105 42.7681 31.523 42.7721 31.536 42.7726C31.549 42.7732 31.562 42.7704 31.5737 42.7645C31.5854 42.7586 31.5955 42.7497 31.603 42.7388L32.2265 41.8073C32.2578 41.76 32.2573 41.7132 32.2251 41.6668ZM35.197 43.5109L33.3423 41.916C33.3034 41.8832 33.2911 41.8416 33.3053 41.7914L33.9316 39.7199C33.9449 39.6736 33.972 39.663 34.0128 39.6881L36.0539 40.9165C36.1032 40.9464 36.1194 40.9894 36.1023 41.0454L35.365 43.4617C35.36 43.4786 35.3509 43.494 35.3385 43.5065C35.3262 43.5189 35.3109 43.528 35.2942 43.5329C35.2775 43.5378 35.2598 43.5384 35.2428 43.5345C35.2259 43.5307 35.2101 43.5226 35.197 43.5109ZM32.9537 42.5939L32.2235 43.7122C32.196 43.7537 32.1984 43.7938 32.2306 43.8324L33.8903 45.7793C33.9415 45.8392 33.9928 45.8397 34.044 45.7808C34.3885 45.381 34.6751 44.9425 34.9037 44.4655C34.9199 44.4326 34.9147 44.4037 34.8881 44.3786L33.0178 42.5867C32.9941 42.5644 32.9727 42.5669 32.9537 42.5939Z" fill="url(#paint2_linear_229_6020)"/>
<defs>
<linearGradient id="paint0_linear_229_6020" x1="31.7091" y1="12.303" x2="39.3911" y2="17.515" gradientUnits="userSpaceOnUse">
<stop stop-color="#274F72"/>
<stop offset="1" stop-color="white"/>
</linearGradient>
<linearGradient id="paint1_linear_229_6020" x1="15.7928" y1="23.4159" x2="15.6054" y2="33.2871" gradientUnits="userSpaceOnUse">
<stop stop-color="white"/>
<stop offset="1" stop-color="#274F72"/>
</linearGradient>
<linearGradient id="paint2_linear_229_6020" x1="38.1301" y1="35.4962" x2="30.1323" y2="40.9787" gradientUnits="userSpaceOnUse">
<stop stop-color="#274F72"/>
<stop offset="1" stop-color="white"/>
</linearGradient>
</defs>
</svg>
