<?xml version='1.0' encoding='utf-8'?>
<!-- by TradeStack -->
<svg viewBox="0 0 56 56" xmlns="http://www.w3.org/2000/svg"><path fill="#FF3F4A" d="M0 0h56v56H0z" /><path d="M8 32.83V33H4v-.17c1.16-.5 1.7-1.5 2.6-3.62l2.31-5.37.29.66-1.73 4.05c-.62 1.45-.8 2.18-.8 2.84 0 .83.53 1.23 1.33 1.44zm9.35 0V33H12v-.17c.52-.21 1.13-.51 1.13-.91-.02-.35-.12-.7-.28-1.01l-.82-1.9h-3.8l.24-.53h3.33l-2.44-5.69L10.57 20h.62l4.69 10.9c.5 1.16.8 1.66 1.47 1.93zm29.14-6.88l2.15 4.66-2.12 5.13c-.3.74-.78 1.26-1.5 1.26a1.16 1.16 0 01-.9-.35 1.27 1.27 0 01-.37-.91 1.32 1.32 0 01.37-.92 1.2 1.2 0 011.61-.08c.2.18.34.42.4.69l1-2.46-3.2-6.97c-.54-1.15-.73-1.51-1.29-1.82V24h4.07v.18c-.4.18-.51.36-.51.74.03.36.13.71.29 1.03zM52 24v.18c-.73.36-1.06.83-1.54 2l-1.42 3.42-.28-.62.83-2.04c.21-.49.33-1.01.35-1.55 0-.27-.09-.54-.25-.76a1.2 1.2 0 00-.64-.45V24H52zm-12.4 7.05c0 1.13-.17 1.43-.99 1.78V33H43v-.17c-.82-.35-1-.65-1-1.78V20h-3.4v.17c.82.35.98.65.98 1.78v9.1zm-6.26 1.76c.1-.01.2-.07.27-.16.06-.08.1-.19.09-.3-.11-.5-.32-.97-.63-1.37l-3.11-4.96c-.62-1-1.07-1.56-1.96-1.84V24h4.54v.18c-.1.02-.2.08-.26.16-.07.09-.1.2-.1.3.11.5.32.97.63 1.38l3.11 4.96c.63.99 1.07 1.56 1.96 1.83V33h-4.54v-.19zm-5.16 0c1.2-.55 2.03-1.56 3.17-3.03l.28.43c-.66.86-.92 1.5-.92 1.94 0 .17.05.33.16.46.11.12.26.2.42.2V33h-3.11v-.19zm5.94-6.13c.65-.83.88-1.34.88-1.74a.74.74 0 00-.19-.53.69.69 0 00-.49-.23V24h3.03v.18c-.93.46-1.44 1.03-2.94 2.94l-.29-.44zM18 26.01v4.38c0 1.88.92 2.61 2.34 2.61A3.51 3.51 0 0023 31.91v-.53a2.22 2.22 0 01-1.41.63c-.8 0-1.16-.63-1.16-1.71V24H17v.18c.82.36 1 .67 1 1.83zm5-1.83c.82.36 1 .67 1 1.83V33h3.4v-.19c-.83-.36-.99-.66-.99-1.83V24H23v.18z" fill="#fff" /></svg>