<?xml version='1.0' encoding='utf-8'?>
<!-- by TradeStack -->
<svg width="56" height="56" viewBox="0 0 56 56" xmlns="http://www.w3.org/2000/svg"><path fill="url(#anse40gru)" d="M0 0h56v56H0z" /><path d="M27.7 33.6a8 8 0 1 1-.05-11.26l1.42-1.41a10 10 0 1 0 .16 13.98l-1.52-1.3Z" fill="#fff" /><path fill-rule="evenodd" d="M38 18c2.82 0 5 2.18 5 5a5.82 5.82 0 0 1-2.26 4.7C42.5 28.45 44 29.94 44 32c0 3.63-2.38 6-6 6h-9v-9h-5v-2h5v-9h9Zm-7 2h7c1.74 0 3 1.27 3 3 0 2.45-1.98 3.67-3.13 4H31v-7Zm0 9v7h7c2.53 0 4-1.46 4-4 0-1.96-2.44-2.82-4.05-3H31Z" fill="#fff" /><defs><linearGradient id="anse40gru" x1="10.42" y1="9.71" x2="68.15" y2="76.02" gradientUnits="userSpaceOnUse"><stop stop-color="#1A1E21" /><stop offset="1" stop-color="#06060A" /></linearGradient></defs></svg>