<!-- by TradeStack --><svg width="56" height="56" viewBox="0 0 56 56" xmlns="http://www.w3.org/2000/svg"><path fill="#F0F3FA" d="M0 0h56v56H0z"/><path fill-rule="evenodd" d="M32.32 19.44c.03-.06.03-.11 0-.15-.28-.14-.7-.06-1.26.24-.3.17-.4.08-.3-.25a.32.32 0 0 0-.02-.22c-.05-.13-.14-.18-.28-.12-.3.11-.6.17-.91.15-.22 0-.25-.08-.07-.22l.69-.56c.22-.18.2-.23-.08-.16a4 4 0 0 0-1.73.95c-.12.12-.24.12-.36 0-.54-.48-1.1-.79-1.67-.93-.22-.05-.24 0-.08.14l.7.63c.2.17.17.23-.09.19l-1.09-.18c-.13-.02-.18.03-.16.17l.06.27c.05.23-.02.28-.22.16-.64-.4-1.25-.45-1.83-.12.35-.05.67-.03.96.06.13.05.13.1.01.16-.44.24-.88.17-1.32-.21-.64.24-1.06.61-1.28 1.1-.14.32-.07.37.2.15.34-.27.72-.4 1.12-.4.23.01.24.06.03.15-1.75.73-2.62 2.12-2.61 4.19 0 .03.01.05.04.07l.13.07c.02.02.04.02.05 0a3.5 3.5 0 0 1 1.68-2.56c.2-.11.22-.08.08.09-1.55 1.88-1.97 3.9-1.25 6.06.28.85.4.83.37-.07a6.55 6.55 0 0 1 1.1-3.9c.01-.03.04-.04.07-.02.06.03.07.07.05.12-1.04 2.58-.97 5.22.64 7.43.19.27.26.24.22-.09-.1-.7-.1-1.39-.02-2.06.03-.26-.03-.52-.08-.77l-.06-.3c-.03-.2 0-.21.11-.05.17.25.27.49.3.7.19 1.88.48 3.67 2.22 4.7.25.16.3.11.14-.14-.37-.6-.87-1.55-.56-2.26a.48.48 0 0 0 .02-.34c-.17-.6-.39-1.2-.64-1.8-.16-.38-.23-.37-.23.05l.05 1.34c0 .03-.01.04-.03.05h-.04l-.03-.01-.02-.03a21.63 21.63 0 0 0-1.47-4.22.42.42 0 0 0-.1-.01c.12.37.13.66.06.89-.05.14-.1.14-.17 0a2 2 0 0 1-.1-1.1c.06-1.1.39-2 1-2.72.22-.26.27-.23.15.1a3.52 3.52 0 0 0 .32 3.26.18.18 0 0 0 .15.08.18.18 0 0 0 .15-.08c.11-.17.24-.31.4-.43.4-.33.47-.26.21.19a2.63 2.63 0 0 0-.32.9.23.23 0 0 0 .14.2c.03.02.06.03.1.03.27-.01.5.07.7.25.12.12.1.15-.06.09a.66.66 0 0 0-.6.01c-.2.12-.2.21.04.27.28.07.46.22.56.46.06.14.15.16.26.06.13-.11.33-.2.54-.3.55-.27 1.17-.56.79-1.29a.66.66 0 0 0-.38-.33 1.6 1.6 0 0 1-.77-.56c-.11-.15-.08-.2.1-.15.89.26 1.79.27 2.7.04.15-.04.2.01.13.16a.48.48 0 0 1-.2.22c-.25.14-.49.28-.73.44a.68.68 0 0 0-.3.64.7.7 0 0 0 .42.57c.35.15.7.34 1.02.57.14.1.23.07.28-.1.06-.24.24-.37.53-.38.05 0 .09-.02.12-.05a.18.18 0 0 0-.1-.3c-.13-.04-.3-.04-.47-.02-.19.03-.2-.01-.06-.12a.74.74 0 0 1 .52-.16c.19.01.28-.08.28-.28 0-.38-.13-.73-.38-1.04a.12.12 0 0 1-.01-.12l.01-.03h.02c.05-.03.1-.03.15 0 .2.16.4.33.56.54.12.13.22.12.31-.03.63-1.03.71-2.15.24-3.36-.07-.2-.04-.23.1-.06a4.52 4.52 0 0 1 1.03 3.91c-.04.25-.08.25-.13 0l-.1-.62c-.05-.23-.1-.23-.18-.02l-1.34 3.84-.02.02h-.03l-.09-.02-.01-.02c.08-.36.13-.74.17-1.12.07-.72-.03-.74-.28-.07-.06.18-.14.34-.21.51-.26.59-.52 1.17-.3 1.85.04.1.04.22.02.34-.1.54-.32 1.06-.64 1.55-.26.4-.2.47.2.21 1.52-.99 1.73-2.27 1.98-3.76.06-.35.12-.72.2-1.1.04-.2.12-.39.25-.57.1-.13.13-.11.1.04-.07.48-.07.97-.06 1.46 0 .52.02 1.05-.08 1.55-.1.6 0 .65.33.13a7.39 7.39 0 0 0 .44-7.33c-.02-.05 0-.07.05-.07a.1.1 0 0 1 .04.01 6.27 6.27 0 0 1 1.18 4.44c-.03.21.02.23.12.04a5.67 5.67 0 0 0-1.14-6.63l.1-.09h.03c.91.62 1.5 1.39 1.75 2.3.15.56.24.56.24-.03.03-1.63-1.03-3.66-2.78-3.93-.19-.03-.2-.07 0-.12.41-.11.81-.02 1.2.27.52.4.61.3.27-.26a2.75 2.75 0 0 0-.98-.83c-.2-.05-.37.02-.52.2-.32.11-.6.11-.86-.02-.1-.05-.1-.12-.02-.19s.25-.1.51-.07Zm-2.43.18a.04.04 0 0 1 .04 0h.01l.01.02c.07.16.05.33-.04.5a.98.98 0 0 1-.45.4l-.12.06a1.06 1.06 0 0 1-.42.09c-.06 0-.12 0-.18-.02a.61.61 0 0 1-.24-.1.47.47 0 0 1-.15-.2v-.04a.05.05 0 0 1 .02-.02l1.52-.7Zm-1.9.66a.04.04 0 0 1 .02 0 .05.05 0 0 1 .01.04.05.05 0 0 1 0 .02.63.63 0 0 1-.4.36.85.85 0 0 1-.6-.05l-.1-.04a.9.9 0 0 1-.44-.41.7.7 0 0 1-.06-.28c0-.1 0-.18.04-.26v-.01a.05.05 0 0 1 .03-.02.04.04 0 0 1 .02-.01.05.05 0 0 1 .02 0l1.47.66Zm-3.62.44a7.7 7.7 0 0 1 2.67 1.16c.17.11.35.16.55.14.22-.03.24-.1.05-.23a6.37 6.37 0 0 0-3.3-1.1c0 .02.01.03.03.03Zm7.14-.03c.04 0 .06.01.06.05l.03.1h-.01c-.8.13-1.52.44-2.18.92-.18.14-.46.23-.7.25-.29.01-.31-.07-.07-.24.85-.58 1.81-.94 2.87-1.08Zm-7.56 2.53c.43-.3.64-.63.63-1 0-.09.04-.14.12-.17l.52-.12c.35-.09.36-.2.03-.34a2.31 2.31 0 0 0-1.29-.16.52.52 0 0 0-.34.22v.01l-.02.02a.53.53 0 0 0-.05.45c.12.32.19.65.2 1 .02.14.08.17.2.09Zm7.65-1.15-.64-.17c-.33-.1-.34-.2 0-.31.45-.17 1.3-.36 1.67.07.08.09.11.2.08.32l-.26 1.18a.11.11 0 0 1-.09.08.11.11 0 0 1-.1-.05 1.71 1.71 0 0 0-.59-.54c-.16-.1-.16-.2 0-.3a.13.13 0 0 0 .05-.1c.01-.1-.03-.15-.12-.18Zm-6.28 1.7c.33.47.72.69 1.17.66a.19.19 0 0 1 .16.06l.02.03a.2.2 0 0 1 .03.14c-.02.13-.02.26-.01.39.01.2.06.2.13.02l.36-.86c.06-.12.02-.18-.11-.2a1.86 1.86 0 0 1-.92-.3.87.87 0 0 0-.46-.1c-.08 0-.17-.01-.25-.03-.18-.03-.22.03-.12.18Zm4.2.98c.04.11.05.23.03.34-.03.17-.07.17-.13 0a3.5 3.5 0 0 0-.36-.8c-.06-.1-.04-.17.08-.22l1.38-.47c.46-.16.54-.04.24.35-.26.33-.6.5-1 .48a.24.24 0 0 0-.2.1.24.24 0 0 0-.03.22Z" fill="#613D35"/><path d="M28.87 29.3c.39.16.57.42.54.8 0 .09-.04.16-.1.22a.33.33 0 0 1-.19.1c-.3.04-.57.17-.8.38a.28.28 0 0 1-.38 0c-.21-.18-.46-.3-.75-.35a.48.48 0 0 1-.38-.35.5.5 0 0 1 .13-.5c.51-.5 1.15-.6 1.93-.3ZM29.73 32.2c.06-.1.09-.2.1-.3.02-.2.1-.22.22-.09.06.05.09.12.09.2 0 .13-.03.24-.1.34-.57.81-1.15 1.67-1.73 2.57-.11.16-.22.16-.33 0l-1.72-2.5c-.13-.18-.11-.35.06-.5a.6.6 0 0 0 .18-.59c-.05-.24.01-.28.18-.1l1.36 1.39c.06.06.11.06.17 0l1.4-1.44c.13-.15.2-.12.19.08-.01.28-.1.53-.27.77-.04.05-.04.1 0 .17.07.1.13.1.2 0Z" fill="#613D35"/><path d="M31.22 13.66c.06.06.11.17.14.32-.24.24-.43.5-.54.77-.08.18-.04.22.13.12 1.05-.64 1.95-1.86.88-3.01A3.06 3.06 0 0 0 30.7 11a.03.03 0 0 0-.02.03v.01l.01.02.93 1.13c-.08.5-.25.72-.5.68a.56.56 0 0 0-.12-.02l-.12.01c-.14.04-.18.12-.12.25.08.2.23.38.46.55Z" fill="url(#a1dfe4k4p)"/><path d="M25.08 14.29a.4.4 0 0 1 .06.14c.03.1-.01.16-.12.16a.65.65 0 0 1-.57-.31c-.65-.97-.58-2.4.55-2.97.18-.08.21-.04.1.12-.23.38-.3.74-.21 1.1.03.11.09.22.18.3.23.22.25.47.06.74a.74.74 0 0 0-.13.37c-.01.13.02.25.08.35Z" fill="url(#b1dfe4k4p)"/><path d="M27.64 12.12c0 .06.04.1.1.11.15.03.15.06.01.1l-.3.04c-.64.04-.82.67-.53 1.2.25.43.63.67 1.14.7a.1.1 0 0 0 .06-.01.1.1 0 0 0 .03-.12.1.1 0 0 0-.05-.05 2.17 2.17 0 0 1-1.02-.82c-.08-.12-.06-.21.06-.28l1.09-.59a.57.57 0 0 0 .3-.5.58.58 0 0 0-.07-.28.8.8 0 0 0-.25-.28c-.13-.08-.24-.07-.34.04a.83.83 0 0 0-.23.74Z" fill="url(#c1dfe4k4p)"/><path d="M28.8 12.65c.03.09.09.13.17.14a.19.19 0 0 1 .15.1.2.2 0 0 1 .02.07c.05.42-.15.74-.6.95-.03.01-.04.03-.03.06.01.05.04.07.09.05.61-.14.9-.5.87-1.1-.02-.33-.2-.48-.56-.45-.12.01-.16.07-.11.18Z" fill="url(#d1dfe4k4p)"/><path d="M24.39 15.17c-.87-1.15-1.75-2.09-3.24-1.93-.6.07-.94.39-1 .96-.04.31.2.6.5.65.07.02.14 0 .2-.04s.1-.1.11-.17a.78.78 0 0 1 .1-.26.38.38 0 0 1 .4-.17c.07.01.14.05.2.1.05.06.09.12.1.2.29 1.35-2.2 1.3-2.04-.26.08-.82.86-1.25 1.59-1.33 1.1-.12 2.16 1.04 2.87 1.83l.15.17c.6.64 1.23.72 1.9.25a.4.4 0 0 0 .2-.35c0-.17-.08-.25-.24-.24-.08 0-.16 0-.23-.02a.3.3 0 0 1-.21-.24c-.04-.2 0-.36.12-.5.06-.06.13-.09.23-.07.51.1.77.38.75.87-.05 1.44-1.77 1.47-2.46.55Z" fill="url(#e1dfe4k4p)"/><path d="M33.02 13.66c1.17-.75 2.41-1.11 3.4.07.46.54.2 1.36-.42 1.6-.59.24-1.77 0-1.34-.95v-.01l.01-.02a.2.2 0 0 1 .08-.07h.01a.21.21 0 0 1 .18 0c.19.08.27.23.24.43-.02.11.03.16.13.16.27 0 .47-.1.61-.31a.78.78 0 0 0-.12-.99c-.82-.78-1.71-.4-2.7.13-.45.49-.86 1.03-1.23 1.63-.26.41-.69.57-1.3.49-.95-.13-1.29-.7-1-1.7a.45.45 0 0 1 .13-.22c.06-.05.14-.09.22-.1.54-.07.74.14.59.61l-.01.03-.01.02a.24.24 0 0 1-.26.11c-.02 0-.03 0-.05-.02a.3.3 0 0 0-.15-.03H30a.26.26 0 0 0-.1.04.26.26 0 0 0-.12.16.27.27 0 0 0 .03.2c.57.93 1.44.55 2.05-.14.37-.4.75-.78 1.16-1.12Z" fill="url(#f1dfe4k4p)"/><path d="M28.32 14.87a.32.32 0 0 1 .13.39c-.1.2-.26.27-.52.22a.33.33 0 0 1-.24-.21.34.34 0 0 1-.02-.08v-.02a.32.32 0 0 1 0-.07c0-.05.03-.1.06-.15.14-.2.34-.22.59-.08Z" fill="url(#g1dfe4k4p)"/><path d="M20.4 16.26a.84.84 0 0 1-.45-.62.23.23 0 0 0-.17-.19.23.23 0 0 0-.16.02.42.42 0 0 0-.23.32c-.03.14.02.25.13.33.24.19.53.29.85.29.2 0 .2-.05.04-.15Z" fill="url(#h1dfe4k4p)"/><path d="M36.52 16.18a.18.18 0 0 1-.13.01c-.11.02-.2.06-.3.09-.18.06-.35.12-.58.1a.51.51 0 0 1-.36-.2c-.16-.18-.13-.23.1-.14.46.2.79.18 1-.04l.13-.33c.05-.12.14-.18.27-.17.16.01.26.1.3.3.03.17-.1.3-.41.37h-.02Z" fill="url(#i1dfe4k4p)"/><path d="M21.68 18.87c.3-.27.61-.37.92-.3.14.04.27 0 .37-.1l.71-.76a.7.7 0 0 1 .4-.22c.94-.15 2.26-.4 2.65-1.4.08-.22.03-.25-.15-.11-.35.25-.83.58-1.27.58-.4 0-.8-.06-1.16-.12-.98-.16-1.85-.3-2.7.8-.7.87-1.46 1.08-2.28.63-.1-.06-.13-.04-.07.07.21.42.55.75 1 1 .51.27 1.04.25 1.58-.07Z" fill="url(#j1dfe4k4p)"/><path d="m32.32 17.64-.3-.08c-1-.24-2.05-.5-2.38-1.4-.04-.13 0-.16.1-.09.7.46 1.22.58 2.3.33.91-.27 1.56-.22 1.95.15l.35.34c.71.7 1.6 1.58 2.57.98.54-.32.61-.24.22.26-.87 1.1-1.85 1.24-2.93.43a.26.26 0 0 0-.28-.03l-.1.05a.32.32 0 0 1-.35-.05l-1.15-.9Z" fill="url(#k1dfe4k4p)"/><path d="M28.37 16.48c.05 0 .09.02.12.05.11.1.11.2 0 .28-.24.16-.47.19-.69.08a.3.3 0 0 1-.08-.06.26.26 0 0 1-.05-.08.28.28 0 0 1 .09-.33c.24-.2.44-.17.6.06Z" fill="url(#l1dfe4k4p)"/><path d="M28.38 18.02c-.05.14-.24.2-.42.12-.17-.08-.27-.25-.21-.39.06-.14.24-.19.42-.12.17.08.27.25.21.39Z" fill="url(#m1dfe4k4p)"/><path d="M18.3 20.59c.3-.5.6-.97.9-1.42.04-.07.1-.07.15-.01l.12.13c.03.04.03.08 0 .12-2.14 2.52-2.63 6.65-1.78 9.66.15.56.32 1.12.5 1.7.01.04 0 .06-.05.06l-.13.01a.14.14 0 0 1-.14-.08c-1.42-3.06-1.34-7.25.43-10.17Z" fill="url(#n1dfe4k4p)"/><path d="M38.3 22.4c.9 2.45.75 5.79-.28 8.28-.02.05 0 .07.04.08h.13c.04 0 .07-.01.09-.05 1.82-3.96 1.1-7.73-1.1-11.4-.08-.12-.18-.16-.32-.1l-.1.03a.1.1 0 0 0-.03.02l-.02.01a.11.11 0 0 0-.03.1 16 16 0 0 1 1.62 3.03Z" fill="url(#o1dfe4k4p)"/><path d="M19.86 20.1a.4.4 0 0 1 .02-.18.26.26 0 0 1 .13-.16c.18-.1.36-.1.54 0a.2.2 0 0 1 .11.16.21.21 0 0 1-.06.17l-.01.01c-.55.46-.95 1-1.2 1.62a11.93 11.93 0 0 0-.26 8.07c.13.46.32.86.56 1.2.08.12.05.17-.08.15a1.24 1.24 0 0 1-.96-.7c-.78-1.6-1.04-3.58-.77-5.95.17-1.49.67-3.2 1.83-4.03a.37.37 0 0 0 .15-.35Z" fill="url(#p1dfe4k4p)"/><path d="M35.61 20.15c1.9 2.44 2.36 4.83 1.95 7.93a7.09 7.09 0 0 1-1.22 2.95c-.13.2-.08.25.13.15.56-.25.96-.65 1.2-1.2 1.01-2.38 1.19-5.59-.1-7.95a31.3 31.3 0 0 1-1-2.05c-.13-.3-.35-.4-.65-.3l-.18.05a.25.25 0 0 0-.1.07.27.27 0 0 0-.08.13.27.27 0 0 0 .05.22Z" fill="url(#q1dfe4k4p)"/><path d="M14.07 29.37c1.44.23 2.22 1.1 2.33 2.63.27.13.5-.02.67-.45a.1.1 0 0 1 .02-.04h.02v-.01h.02a.1.1 0 0 1 .03 0l.18.02c.08.02.1.06.06.14a3.07 3.07 0 0 0-.1 2.98c.25.5.75.83 1.22 1.14l.3.2c.27.2.25.27-.09.22a3.75 3.75 0 0 1-2.4-1.16c-1.3-1.06-1.36-2.25-1.42-3.65l-.03-.6c-.04-.6-.4-.88-.81-1.21l-.07-.05c-.17-.14-.15-.2.07-.16Z" fill="url(#r1dfe4k4p)"/><path d="M38.95 31.53c.15.12.27.37.36.75a.11.11 0 0 1 .09-.07c.06-.01.09-.05.1-.11.2-1.48 1.07-2.42 2.63-2.85.01 0 .02 0 .03.02l.06.14v.04l-.03.03c-.7.28-1.06.71-1.06 1.3-.01 1.75-.14 3.39-1.66 4.39-.6.63-1.3.95-2.11.96-.22 0-.24-.06-.05-.2 1.46-1 2.22-2.37 1.34-4.14-.28-.54-.17-.63.3-.26Z" fill="url(#s1dfe4k4p)"/><path d="m20.94 33.3-.19.12c-.18.12-.3.08-.37-.14-.3-1.09-.87-1.69-2.05-1.81-.22-.02-.24.03-.06.16a2 2 0 0 1 .87 1.73c.01 2.3 1.51 3.33 3.51 3.76.06.01.1 0 .11-.07l.03-.08-.01-.03a4.51 4.51 0 0 1-1.23-.66c-.8-.6-.74-2.05-.44-2.85.08-.21.02-.26-.17-.13Z" fill="url(#t1dfe4k4p)"/><path d="M37.63 31.52c-1.05.18-1.71.86-2 2.05-.05.16-.1.17-.18.02-.1-.18-.24-.32-.4-.43-.3-.2-.38-.13-.23.2.69 1.53.26 2.68-1.27 3.44-.38.19-.36.28.06.27a2.53 2.53 0 0 0 1.46-.47c1.35-.96 1.98-2.15 1.9-3.55-.04-.58.25-1.03.73-1.33.33-.2.3-.26-.07-.2Z" fill="url(#u1dfe4k4p)"/><path d="m20.57 38.15-.01-.01c-2.7-1-4.72-.36-6.1 1.92-.06.1-.13.1-.2 0a2.1 2.1 0 0 1-.23-.96c-1.62.92-3.24 1-4.85.2-.25-.11-.24-.15.03-.1 1.15.2 1.84-.14 2.8-.82.64-.45 1.31-.83 2.03-1.15a8.89 8.89 0 0 1 6.61.79c.25-.24.48-.3.71-.17.16.1.16.18 0 .27l-.2.1c-.14.08-.19.2-.12.37.1.3.33.43.65.37 1.11-.2 1.75-.82 1.9-1.88.1-.55-.06-.97-.21-1.4-.09-.26-.18-.52-.23-.82-.22-1.35 1.6-2 2.2-.73a.72.72 0 0 1-.17.83.7.7 0 0 1-.26.15c-.39.12-.62-.08-.7-.61-.04-.2-.13-.24-.28-.1-.56.47-.06 1.94.22 2.53.71 1.5-.8 2.32-1.98 2.46-1.01.12-1.54-.3-1.6-1.24h-.01Z" fill="url(#v1dfe4k4p)"/><path d="M40.26 37.06a8.34 8.34 0 0 0-4.76.7.45.45 0 0 1-.35.03 2.58 2.58 0 0 0-.37-.08.23.23 0 0 0-.2.2c-.02.16.05.26.2.3.14.03.2.15.2.36a.3.3 0 0 1-.1.2.28.28 0 0 1-.2.08c-1.35-.06-2.09-.7-2.2-1.94-.04-.36.1-.79.24-1.21.23-.71.46-1.43-.1-1.93-.38-.34-.85-.39-1.42-.16a.72.72 0 0 0-.44.58c-.06.46.1.77.48.91.2.08.35.03.47-.13.1-.14.16-.3.17-.47.01-.25.1-.28.27-.1.54.6.02 1.99-.27 2.75l-.05.14c-.6 1.66 2.94 3.13 3.68 1.44.04-.08.05-.17.04-.25a.5.5 0 0 1 .05-.33c.06-.1.18-.18.35-.22 1.17-.3 2.3-.25 3.38.17.83.3 1.42.8 1.77 1.49.22.44.38.41.5-.07a.16.16 0 0 0 0-.07.18.18 0 0 0-.06-.09.16.16 0 0 1-.03-.02.2.2 0 0 1-.03-.14.2.2 0 0 1 .09-.15c.15-.1.3-.1.42.01 1.18.93 3.23.92 4.5.37.7-.3.68-.4-.07-.31-1.1.13-1.84-.16-2.76-.8a6.95 6.95 0 0 0-3.4-1.26Z" fill="url(#w1dfe4k4p)"/><path d="M28.52 36.7a.37.37 0 0 1-.22.05l-.22.12c-.12.09-.22.13-.3.1-.38-.1-.53-.39-.46-.83a.51.51 0 0 1 .19-.31.5.5 0 0 1 .34-.1c.5.02.77.26.81.69a.3.3 0 0 1-.14.27Zm-.24-.35Z" fill="url(#x1dfe4k4p)"/><path d="M26.66 36.25a.14.14 0 0 0-.12-.07.27.27 0 0 1-.15-.05c-.33-.23-.7-.24-1.1-.02-.13.07-.16.17-.1.3.12.23.31.37.59.43.12.02.22-.01.3-.1.13-.15.3-.24.49-.27a.14.14 0 0 0 .1-.09.14.14 0 0 0-.01-.13Z" fill="url(#y1dfe4k4p)"/><path d="m30.42 36.13.25.05c.27.06.28.16.03.29l-.35.17-.08.04-.15.08c-.3.16-.66-.03-.84-.28-.08-.11-.07-.22.03-.32.26-.26.55-.3.85-.13.08.04.17.08.26.1Z" fill="url(#z1dfe4k4p)"/><path d="M28.1 38.84c.07-.1.1-.23.09-.4.05.13.13.19.22.17.1-.02.16-.06.17-.12.03-.11 0-.19-.12-.22-.14-.05-.23-.16-.28-.32-.03-.25-.07-.38-.12-.37a.59.59 0 0 0-.32.2c-.1.1-.2.25-.25.42-.13.34-.02.58.32.72.11.05.2.02.28-.08Z" fill="url(#aa1dfe4k4p)"/><path d="M32.44 40.6a.42.42 0 0 1-.23-.08c-.53-.4-.6-1.29-.67-1.95l-.02-.22c-.02-.13-.07-.16-.18-.09l-1.01.66c-.1.06-.13.15-.1.26.37 1.36 1.21 1.98 2.53 1.84.64-.07.95-.66.58-1.18a.28.28 0 0 0-.19-.12l-.12.01c-.1.04-.14.1-.1.21.07.24 0 .44-.25.59a.42.42 0 0 1-.24.06Z" fill="url(#ab1dfe4k4p)"/><path d="M24.81 39.37c-.07-.25-.1-.5-.06-.75.02-.11.08-.15.18-.11.34.1.6.23.8.4.1.08.14.19.11.32-.24.94-.92 1.57-2.02 1.91-.72.23-1.35-.38-1.2-1.14a.36.36 0 0 1 .27-.27l.35-.08a.14.14 0 0 1 .09 0l.07.06a.15.15 0 0 1-.01.17c-.27.36-.28.54-.02.54.36 0 .68-.14.95-.41a.4.4 0 0 0 .11-.2c.03-.16.12-.24.27-.26.1-.01.14-.07.11-.18Z" fill="url(#ac1dfe4k4p)"/><path d="M34.47 41.83c.04.07.07.14.08.22a.44.44 0 0 1-.11.38c-.1.1-.2.13-.33.06a2.47 2.47 0 0 0-.39-.17c-.26-.1-.32-.01-.2.23.47.9 1.44.26 1.5-.57a.75.75 0 0 0-.17-.52.73.73 0 0 0-.47-.27 1.3 1.3 0 0 0-.93.23c-.68.46-1.74.43-2.33-.08a4.5 4.5 0 0 1-1.28-2.06.24.24 0 0 0-.11-.14.24.24 0 0 0-.18-.02l-1.05.26c-.15.03-.2.13-.13.27 1.23 2.8 2.78 3.11 5.5 2a.5.5 0 0 1 .6.18Z" fill="url(#ad1dfe4k4p)"/><path d="M24.05 41.6c1.26-.06 2-.81 2.19-2.24.02-.14.1-.2.25-.18l1.2.18a.15.15 0 0 1 .12.07.16.16 0 0 1 0 .15c-1.14 2.64-3.04 3.34-5.68 2.1a.4.4 0 0 0-.45.06c-.18.17-.21.38-.1.64a.31.31 0 0 0 .27.19.3.3 0 0 0 .29-.16l.05-.1c.1-.18.23-.2.38-.03.05.06.08.13.08.21 0 .07-.01.14-.04.2a.36.36 0 0 1-.15.14c-1.07.57-1.74-.77-1.04-1.49a.67.67 0 0 1 .58-.2c.27.05.54.14.8.23.41.13.82.26 1.25.24Z" fill="url(#ae1dfe4k4p)"/><path d="m27.45 41.97.5.89c.11.2.2.19.23-.04.06-.3.2-.58.4-.8a.26.26 0 0 0-.08-.41.61.61 0 0 1-.34-.45c-.05-.22-.14-.24-.28-.06l-.41.57a.24.24 0 0 0-.02.3Z" fill="url(#af1dfe4k4p)"/><defs><linearGradient id="a1dfe4k4p" x1="13.22" y1="29.67" x2="41.19" y2="30.19" gradientUnits="userSpaceOnUse"><stop offset=".54" stop-color="#E4C284"/><stop offset=".7" stop-color="#AD885C"/></linearGradient><linearGradient id="b1dfe4k4p" x1="13.22" y1="29.67" x2="41.19" y2="30.19" gradientUnits="userSpaceOnUse"><stop offset=".19" stop-color="#D3BC92"/><stop offset=".41" stop-color="#AE8255"/><stop offset=".7" stop-color="#AD885C"/></linearGradient><linearGradient id="c1dfe4k4p" x1="13.22" y1="29.67" x2="41.19" y2="30.19" gradientUnits="userSpaceOnUse"><stop offset=".41" stop-color="#AE8255"/><stop offset=".54" stop-color="#E4C284"/></linearGradient><linearGradient id="d1dfe4k4p" x1="13.22" y1="29.67" x2="41.19" y2="30.19" gradientUnits="userSpaceOnUse"><stop offset=".54" stop-color="#E4C284"/><stop offset=".7" stop-color="#AD885C"/></linearGradient><linearGradient id="e1dfe4k4p" x1="13.22" y1="29.67" x2="41.19" y2="30.19" gradientUnits="userSpaceOnUse"><stop offset=".19" stop-color="#D3BC92"/><stop offset=".41" stop-color="#AE8255"/><stop offset=".54" stop-color="#E4C284"/></linearGradient><linearGradient id="f1dfe4k4p" x1="13.22" y1="29.67" x2="41.19" y2="30.19" gradientUnits="userSpaceOnUse"><stop offset=".54" stop-color="#E4C284"/><stop offset=".7" stop-color="#AD885C"/><stop offset=".84" stop-color="#FACA7E"/></linearGradient><linearGradient id="g1dfe4k4p" x1="13.22" y1="29.67" x2="41.19" y2="30.19" gradientUnits="userSpaceOnUse"><stop offset=".41" stop-color="#AE8255"/><stop offset=".54" stop-color="#E4C284"/></linearGradient><linearGradient id="h1dfe4k4p" x1="13.22" y1="29.67" x2="41.19" y2="30.19" gradientUnits="userSpaceOnUse"><stop offset=".19" stop-color="#D3BC92"/><stop offset=".41" stop-color="#AE8255"/></linearGradient><linearGradient id="i1dfe4k4p" x1="13.22" y1="29.67" x2="41.19" y2="30.19" gradientUnits="userSpaceOnUse"><stop offset=".7" stop-color="#AD885C"/><stop offset=".84" stop-color="#FACA7E"/></linearGradient><linearGradient id="j1dfe4k4p" x1="13.22" y1="29.67" x2="41.19" y2="30.19" gradientUnits="userSpaceOnUse"><stop offset=".19" stop-color="#D3BC92"/><stop offset=".41" stop-color="#AE8255"/><stop offset=".54" stop-color="#E4C284"/></linearGradient><linearGradient id="k1dfe4k4p" x1="13.22" y1="29.67" x2="41.19" y2="30.19" gradientUnits="userSpaceOnUse"><stop offset=".54" stop-color="#E4C284"/><stop offset=".7" stop-color="#AD885C"/><stop offset=".84" stop-color="#FACA7E"/></linearGradient><linearGradient id="l1dfe4k4p" x1="13.22" y1="29.67" x2="41.19" y2="30.19" gradientUnits="userSpaceOnUse"><stop offset=".41" stop-color="#AE8255"/><stop offset=".54" stop-color="#E4C284"/></linearGradient><linearGradient id="m1dfe4k4p" x1="13.22" y1="29.67" x2="41.19" y2="30.19" gradientUnits="userSpaceOnUse"><stop offset=".41" stop-color="#AE8255"/><stop offset=".54" stop-color="#E4C284"/></linearGradient><linearGradient id="n1dfe4k4p" x1="13.22" y1="29.67" x2="41.19" y2="30.19" gradientUnits="userSpaceOnUse"><stop stop-color="#9C784D"/><stop offset=".19" stop-color="#D3BC92"/><stop offset=".41" stop-color="#AE8255"/></linearGradient><linearGradient id="o1dfe4k4p" x1="13.22" y1="29.67" x2="41.19" y2="30.19" gradientUnits="userSpaceOnUse"><stop offset=".84" stop-color="#FACA7E"/><stop offset="1" stop-color="#AD9674"/></linearGradient><linearGradient id="p1dfe4k4p" x1="13.22" y1="29.67" x2="41.19" y2="30.19" gradientUnits="userSpaceOnUse"><stop stop-color="#9C784D"/><stop offset=".19" stop-color="#D3BC92"/><stop offset=".41" stop-color="#AE8255"/></linearGradient><linearGradient id="q1dfe4k4p" x1="13.22" y1="29.67" x2="41.19" y2="30.19" gradientUnits="userSpaceOnUse"><stop offset=".7" stop-color="#AD885C"/><stop offset=".84" stop-color="#FACA7E"/><stop offset="1" stop-color="#AD9674"/></linearGradient><linearGradient id="r1dfe4k4p" x1="13.22" y1="29.67" x2="41.19" y2="30.19" gradientUnits="userSpaceOnUse"><stop stop-color="#9C784D"/><stop offset=".19" stop-color="#D3BC92"/><stop offset=".84" stop-color="#FACA7E"/></linearGradient><linearGradient id="s1dfe4k4p" x1="13.22" y1="29.67" x2="41.19" y2="30.19" gradientUnits="userSpaceOnUse"><stop offset=".84" stop-color="#FACA7E"/><stop offset="1" stop-color="#AD9674"/></linearGradient><linearGradient id="t1dfe4k4p" x1="13.22" y1="29.67" x2="41.19" y2="30.19" gradientUnits="userSpaceOnUse"><stop stop-color="#9C784D"/><stop offset=".19" stop-color="#D3BC92"/><stop offset=".41" stop-color="#AE8255"/></linearGradient><linearGradient id="u1dfe4k4p" x1="13.22" y1="29.67" x2="41.19" y2="30.19" gradientUnits="userSpaceOnUse"><stop offset=".7" stop-color="#AD885C"/><stop offset=".84" stop-color="#FACA7E"/><stop offset="1" stop-color="#AD9674"/></linearGradient><linearGradient id="v1dfe4k4p" x1="13.22" y1="29.67" x2="41.19" y2="30.19" gradientUnits="userSpaceOnUse"><stop stop-color="#9C784D"/><stop offset=".19" stop-color="#D3BC92"/><stop offset=".41" stop-color="#AE8255"/><stop offset=".54" stop-color="#E4C284"/></linearGradient><linearGradient id="w1dfe4k4p" x1="13.22" y1="29.67" x2="41.19" y2="30.19" gradientUnits="userSpaceOnUse"><stop offset=".54" stop-color="#E4C284"/><stop offset=".7" stop-color="#AD885C"/><stop offset=".84" stop-color="#FACA7E"/><stop offset="1" stop-color="#AD9674"/></linearGradient><linearGradient id="x1dfe4k4p" x1="13.22" y1="29.67" x2="41.19" y2="30.19" gradientUnits="userSpaceOnUse"><stop offset=".41" stop-color="#AE8255"/><stop offset=".54" stop-color="#E4C284"/><stop offset=".7" stop-color="#AD885C"/></linearGradient><linearGradient id="y1dfe4k4p" x1="13.22" y1="29.67" x2="41.19" y2="30.19" gradientUnits="userSpaceOnUse"><stop offset=".41" stop-color="#AE8255"/><stop offset=".54" stop-color="#E4C284"/></linearGradient><linearGradient id="z1dfe4k4p" x1="13.22" y1="29.67" x2="41.19" y2="30.19" gradientUnits="userSpaceOnUse"><stop offset=".54" stop-color="#E4C284"/><stop offset=".7" stop-color="#AD885C"/></linearGradient><linearGradient id="aa1dfe4k4p" x1="13.22" y1="29.67" x2="41.19" y2="30.19" gradientUnits="userSpaceOnUse"><stop offset=".41" stop-color="#AE8255"/><stop offset=".54" stop-color="#E4C284"/></linearGradient><linearGradient id="ab1dfe4k4p" x1="13.22" y1="29.67" x2="41.19" y2="30.19" gradientUnits="userSpaceOnUse"><stop offset=".54" stop-color="#E4C284"/><stop offset=".7" stop-color="#AD885C"/><stop offset=".84" stop-color="#FACA7E"/></linearGradient><linearGradient id="ac1dfe4k4p" x1="13.22" y1="29.67" x2="41.19" y2="30.19" gradientUnits="userSpaceOnUse"><stop offset=".19" stop-color="#D3BC92"/><stop offset=".41" stop-color="#AE8255"/><stop offset=".54" stop-color="#E4C284"/></linearGradient><linearGradient id="ad1dfe4k4p" x1="13.22" y1="29.67" x2="41.19" y2="30.19" gradientUnits="userSpaceOnUse"><stop offset=".54" stop-color="#E4C284"/><stop offset=".7" stop-color="#AD885C"/><stop offset=".84" stop-color="#FACA7E"/></linearGradient><linearGradient id="ae1dfe4k4p" x1="13.22" y1="29.67" x2="41.19" y2="30.19" gradientUnits="userSpaceOnUse"><stop offset=".19" stop-color="#D3BC92"/><stop offset=".41" stop-color="#AE8255"/><stop offset=".54" stop-color="#E4C284"/></linearGradient><linearGradient id="af1dfe4k4p" x1="13.22" y1="29.67" x2="41.19" y2="30.19" gradientUnits="userSpaceOnUse"><stop offset=".41" stop-color="#AE8255"/><stop offset=".54" stop-color="#E4C284"/></linearGradient></defs></svg>