<?xml version='1.0' encoding='utf-8'?>
<!-- by TradeStack -->
<svg width="56" height="56" viewBox="0 0 56 56" xmlns="http://www.w3.org/2000/svg"><path fill="#F0F3FA" d="M0 0h56v56H0z" /><path d="m41.47 27.64-.45-.11c.24-.82.37-1.68.36-2.53 0-2.55-2.43-4.57-5.03-4.57-5.76 0-8.47 9.95-8.47 13.84 0 2.25.96 5.3 4.78 5.3 4.57 0 6.7-3.83 7.32-4.81l.45.21c-.51.9-2.91 5.03-7.91 5.03A7.45 7.45 0 0 1 25 32.28C25 24.84 31.39 20 36.53 20c2.88 0 4.07 1.93 5 1.93.8 0 .83-.65 1.02-1L43 21l-1.53 6.63Z" fill="#A6AFB5" /><path d="M43 17.64c-.62.68-1.04.78-1.83.32-.77-.43-1.49-.95-2.24-1.4a7.87 7.87 0 0 0-5.88-.75 16.9 16.9 0 0 0-12.97 14.62c-.21 1.99-.23 3.97.44 5.88a9.73 9.73 0 0 0 6.32 6.4c.17.06.32.16.44.29H13V13h30v4.64Z" fill="#3A4D80" /></svg>