<!-- by TradeStack --><svg width="56" height="56" viewBox="0 0 56 56" xmlns="http://www.w3.org/2000/svg"><path fill="#F0F3FA" d="M0 0h56v56H0z"/><path fill-rule="evenodd" d="M38 27h1.46l.63-2h2.82l.63 2H45l-2.66-8h-1.69L38 27Zm4.6-3-1.07-3.36h-.06L40.4 24h2.18Zm-.6 5v8h5v-1.21h-3.62V33.6h3.33V32.4h-3.33V30.2h3.59V29H42Zm-9 0h1.7l2.26 5.8h.08l2.27-5.8H41v8h-1.33v-5.5h-.07l-2.1 5.48h-1l-2.1-5.49h-.07V37H33v-8Zm-8 7.79h1.46l.62-1.92h2.84l.62 1.92H32L29.34 29h-1.69L25 36.79Zm4.55-3.06-1.02-3.13h-.06l-1.02 3.13h2.1Zm-7.07-2.14a2 2 0 0 0-.67-.97c-.15-.12-.33-.2-.53-.26a2.24 2.24 0 0 0-1.78.22c-.33.21-.6.52-.78.93-.2.4-.28.9-.28 1.48 0 .59.09 1.09.28 1.5.18.4.44.72.78.93.33.2.72.31 1.16.31.4 0 .75-.07 1.04-.22.3-.16.52-.37.68-.65.15-.27.23-.58.24-.94H20.8v-1.1H24v.93c0 .67-.14 1.25-.43 1.73-.29.49-.68.86-1.19 1.13-.5.26-1.08.39-1.73.39a3.36 3.36 0 0 1-3.2-1.86c-.3-.6-.45-1.31-.45-2.13 0-.63.09-1.2.27-1.69.18-.5.44-.91.76-1.26.33-.34.7-.6 1.15-.79.44-.18.91-.27 1.43-.27.44 0 .84.06 1.22.19a3.25 3.25 0 0 1 1.73 1.35c.2.32.32.67.37 1.05h-1.45Zm-7.93.14H16a3.15 3.15 0 0 0-.38-1.15c-.2-.34-.44-.63-.73-.86-.3-.24-.64-.42-1.02-.54a4.02 4.02 0 0 0-3.1.3c-.54.31-.97.77-1.3 1.37-.31.6-.47 1.31-.47 2.15 0 .84.16 1.55.47 2.15.32.6.75 1.06 1.3 1.37.55.32 1.17.48 1.87.48.47 0 .9-.07 1.29-.2A3.08 3.08 0 0 0 16 34.31l-1.45-.01a1.68 1.68 0 0 1-.66 1.05c-.17.13-.36.22-.57.28a2.35 2.35 0 0 1-1.8-.21c-.34-.21-.6-.52-.79-.92-.19-.41-.28-.91-.28-1.51 0-.59.1-1.08.28-1.49.19-.4.45-.71.78-.92.34-.22.72-.32 1.15-.32.24 0 .47.03.68.1a1.74 1.74 0 0 1 .98.74c.11.18.19.4.23.62ZM37 19v8h-1.18l-3.44-5.45h-.06V27H31v-8h1.18l3.44 5.45h.06V19H37Zm-8 8v-8h-1.3v8H29Zm-9 0v-8h1.32v3.5h3.36V19H26v8h-1.32v-3.5h-3.36V27H20Zm-2.68-5.27h1.4a3.25 3.25 0 0 0-.37-1.15 2.84 2.84 0 0 0-1.68-1.4 3.72 3.72 0 0 0-2.97.3c-.52.31-.94.77-1.24 1.37-.3.6-.46 1.31-.46 2.15 0 .84.15 1.55.45 2.15A3.29 3.29 0 0 0 15.5 27c.45 0 .87-.07 1.24-.2a3.09 3.09 0 0 0 1.99-2.48l-1.4-.01a1.72 1.72 0 0 1-.63 1.05c-.16.13-.34.22-.54.28a2.17 2.17 0 0 1-1.74-.21 2.1 2.1 0 0 1-.75-.92 3.7 3.7 0 0 1-.27-1.51c0-.59.09-1.08.27-1.49a1.94 1.94 0 0 1 1.85-1.25c.24 0 .45.04.65.1a1.65 1.65 0 0 1 1.16 1.37Z"/></svg>