<?xml version='1.0' encoding='utf-8'?>
<!-- by TradeStack -->
<svg width="56" height="56" viewBox="0 0 56 56" xmlns="http://www.w3.org/2000/svg"><path fill="#F0F3FA" d="M0 0h56v56H0z" /><path d="M28.79 11c6.07.45 10.3 3.81 12.05 5.88.23.28.2.7-.04.96l-4.65 5.01a.76.76 0 0 1-.85.19l-6.83-2.9a.77.77 0 0 1-.47-.71v-7.67c0-.44.36-.79.79-.76Z" fill="#143648" /><path d="M27.21 45a17.97 17.97 0 0 1-12.05-5.88.73.73 0 0 1 .04-.96l4.65-5.01c.21-.24.55-.31.85-.19l6.83 2.9c.29.12.47.4.47.71v7.67c0 .44-.36.79-.79.76Z" fill="#8BC5AC" /><path d="M30 34.63v10.24c2.36 0 10.32-2.38 10.32-10.72 0-6.46-9.41-10.03-14.04-12.08-.28-.12-.28-.4-.28-.7V11.24c-3.3-.07-10.14 1.74-10.5 9.44-.36 7.5 8.4 10.45 14.06 13.15.26.12.44.5.44.8Z" fill="url(#a5bgdwwto)" /><defs><linearGradient id="a5bgdwwto" x1="19.69" y1="14.38" x2="34.9" y2="41.68" gradientUnits="userSpaceOnUse"><stop offset=".04" stop-color="#486B70" /><stop offset=".5" stop-color="#CDE2CB" /><stop offset=".95" stop-color="#A5D1B9" /></linearGradient></defs></svg>