<?xml version='1.0' encoding='utf-8'?>
<!-- by TradeStack -->
<svg width="56" height="56" viewBox="0 0 56 56" xmlns="http://www.w3.org/2000/svg"><path fill="#885E3B" d="M0 0h56v56H0z" /><path d="M28 43a15 15 0 1 0 0-30 15 15 0 0 0 0 30Zm0 2a17 17 0 1 0 0-34 17 17 0 0 0 0 34Z" fill="url(#a3to41crw)" /><circle cx="28" cy="28" r="15" fill="url(#b3to41crw)" /><path d="m43.97 29.05-.5-.03a15.73 15.73 0 0 0 0-2.04l.5-.03a16.3 16.3 0 0 1 0 2.1Zm-.82-6.2-.47.17a15.4 15.4 0 0 0-.78-1.88l.45-.22c.31.62.58 1.27.8 1.94Zm-3.12-5.4-.38.33c-.44-.5-.92-.99-1.43-1.43l.33-.38c.52.46 1.02.96 1.48 1.48Zm-4.95-3.8-.22.45c-.6-.3-1.23-.56-1.88-.78l.16-.47c.67.22 1.32.49 1.94.8Zm-6.03-1.62-.03.5a15.73 15.73 0 0 0-2.04 0l-.03-.5a16.3 16.3 0 0 1 2.1 0Zm-6.2.82.17.47c-.65.22-1.27.48-1.88.78l-.22-.45c.62-.31 1.27-.58 1.94-.8Zm-5.4 3.12.33.38c-.5.44-.99.92-1.43 1.43l-.38-.33c.46-.52.96-1.02 1.48-1.48Zm-3.8 4.95.45.22c-.3.6-.56 1.23-.78 1.88l-.47-.16c.22-.67.49-1.32.8-1.94Zm-1.62 6.03a16.3 16.3 0 0 0 0 2.1l.5-.03a15.73 15.73 0 0 1 0-2.04l-.5-.03Zm.82 6.2.47-.17c.22.65.48 1.27.78 1.88l-.45.22a15.9 15.9 0 0 1-.8-1.94Zm3.12 5.4.38-.33c.44.5.92.99 1.43 1.43l-.33.38c-.52-.46-1.02-.96-1.48-1.48Zm4.95 3.8.22-.45c.6.3 1.23.56 1.88.78l-.16.47a15.9 15.9 0 0 1-1.94-.8Zm6.03 1.62.03-.5a15.73 15.73 0 0 0 2.04 0l.03.5a16.3 16.3 0 0 1-2.1 0Zm6.2-.82-.17-.47a15.4 15.4 0 0 0 1.88-.78l.22.45c-.62.31-1.27.58-1.94.8Zm5.4-3.12-.33-.38c.5-.44.99-.92 1.43-1.43l.38.33c-.46.52-.96 1.02-1.48 1.48Zm3.8-4.95-.45-.22c.3-.6.56-1.23.78-1.88l.47.16c-.22.67-.49 1.32-.8 1.94Z" fill="#89672A" /><path d="M39.3 30v-7h.7v7h-.7ZM38.02 30a.84.84 0 0 1-.58-.2 1.27 1.27 0 0 1-.34-.6 3.9 3.9 0 0 1-.1-.97v-1.46c0-.39.03-.71.1-.97.08-.27.19-.46.34-.6.15-.13.35-.2.58-.2.25 0 .45.07.59.22.14.14.24.36.3.64.06.27.09.6.09 1v.69h-1.26v.96c0 .15 0 .28.03.38.02.1.05.18.1.22.04.05.1.07.15.07a.2.2 0 0 0 .16-.07.49.49 0 0 0 .1-.2l.02-.36v-.4h.7v.32c0 .5-.09.87-.25 1.14a.8.8 0 0 1-.73.39Zm-.28-3.01h.56v-.46c0-.17-.01-.3-.03-.4a.46.46 0 0 0-.09-.23.2.2 0 0 0-.17-.08.2.2 0 0 0-.16.08.55.55 0 0 0-.08.25c-.02.12-.03.28-.03.5V27ZM35.24 30c-.25 0-.43-.14-.56-.42a3.57 3.57 0 0 1-.18-1.34v-1.51c0-.35.02-.65.07-.93.05-.27.12-.49.23-.65.1-.16.25-.24.43-.24.1 0 .2.03.3.1.1.08.18.17.25.28V23h.72v7h-.72v-.43c-.08.13-.16.24-.25.32a.45.45 0 0 1-.3.11Zm.26-.8c.04 0 .08-.02.13-.05.05-.02.1-.06.15-.12v-3.17a.6.6 0 0 0-.13-.1.26.26 0 0 0-.16-.06c-.1 0-.17.08-.21.23-.04.15-.06.33-.06.55v1.84c0 .17 0 .32.02.45s.04.24.08.32c.04.07.1.1.18.1ZM32.67 30a.46.46 0 0 1-.36-.17c-.1-.12-.18-.26-.23-.43a2.37 2.37 0 0 1 .03-1.32 1.62 1.62 0 0 1 .68-.88l.45-.29v-.42c0-.14 0-.25-.02-.35a.47.47 0 0 0-.07-.22c-.03-.05-.08-.07-.15-.07a.19.19 0 0 0-.15.06.46.46 0 0 0-.08.2c-.02.08-.03.17-.03.27v.3l-.7-.04c.01-.56.1-.97.26-1.24.17-.27.42-.4.76-.4.31 0 .53.13.67.4.15.27.22.63.22 1.1v2.23a19.85 19.85 0 0 0 .02.88L34 30h-.65l-.04-.45-.04-.32c-.03.2-.1.37-.2.54a.46.46 0 0 1-.4.23Zm.26-.85a.2.2 0 0 0 .13-.05.72.72 0 0 0 .18-.27v-1.35l-.22.22a1.16 1.16 0 0 0-.34.87c0 .18.02.33.07.43.04.1.1.15.18.15ZM31.05 30a.67.67 0 0 1-.45-.14.79.79 0 0 1-.23-.41c-.05-.18-.07-.4-.07-.65V26H30v-.71h.3V24h.7v1.29h.47V26H31v2.71c0 .16.03.27.08.34.04.06.11.1.2.1l.11-.01.11-.02v.82a4.8 4.8 0 0 1-.45.06ZM29 30v-5h.71v5H29Zm0-6v-1h.71v1H29ZM27.28 30c-.33 0-.59-.1-.78-.3-.18-.2-.31-.46-.39-.8a5.61 5.61 0 0 1-.11-1.18V25.3c0-.47.04-.88.11-1.22.08-.34.2-.6.4-.8.18-.18.44-.27.77-.27.31 0 .56.08.73.24.18.16.3.39.38.69.07.3.11.64.11 1.04v.57h-.8v-.6l-.01-.51a.77.77 0 0 0-.1-.38c-.06-.1-.16-.14-.3-.14-.14 0-.25.05-.32.15a.9.9 0 0 0-.12.4c-.02.16-.03.35-.03.56v2.96c0 .25.02.46.04.62.03.16.08.28.14.36.07.08.17.12.29.12.13 0 .23-.05.29-.14.06-.1.1-.24.1-.4.02-.16.03-.34.03-.55v-.61h.79v.55c0 .4-.04.76-.1 1.07-.08.31-.2.56-.38.74-.17.17-.42.26-.74.26ZM22.5 30v-5h.73v.57c.1-.17.22-.3.34-.4a.6.6 0 0 1 .4-.17c.13 0 .24.05.31.15.08.1.13.23.17.4.03.16.05.34.05.53V30h-.73v-3.69c0-.15-.01-.26-.04-.34-.03-.08-.08-.12-.17-.12-.05 0-.1.02-.16.07s-.12.1-.17.17V30h-.73ZM21.3 30v-5h.7v5h-.7Zm0-6v-1h.7v1h-.7ZM20 30a.81.81 0 0 1-.56-.2 1.25 1.25 0 0 1-.33-.57c-.07-.25-.11-.56-.11-.92V26.7c0-.36.04-.67.1-.92.08-.25.2-.44.34-.57A.8.8 0 0 1 20 25a.8.8 0 0 1 .55.2c.16.13.27.32.34.57.07.25.11.56.11.92v1.62c0 .36-.04.67-.11.92s-.18.44-.34.58A.81.81 0 0 1 20 30Zm0-.79a.2.2 0 0 0 .18-.1.76.76 0 0 0 .08-.3l.02-.42V26.6c0-.15 0-.29-.02-.41a.76.76 0 0 0-.08-.3c-.03-.07-.1-.11-.18-.11-.08 0-.14.04-.18.12a.82.82 0 0 0-.08.29l-.02.41v1.78c0 .15 0 .29.02.42.01.12.04.22.08.3.04.07.1.1.18.1ZM17.28 30c-.33 0-.59-.1-.78-.3-.18-.2-.31-.46-.39-.8a5.61 5.61 0 0 1-.11-1.18V25.3c0-.47.04-.88.11-1.22.08-.34.2-.6.4-.8.18-.18.44-.27.77-.27.31 0 .56.08.73.24.18.16.3.39.38.69.07.3.11.64.11 1.04v.57h-.8v-.6l-.01-.51a.77.77 0 0 0-.1-.38c-.06-.1-.16-.14-.3-.14-.14 0-.25.05-.32.15a.9.9 0 0 0-.12.4c-.02.16-.03.35-.03.56v2.96c0 .25.02.46.04.62.03.16.08.28.14.36.07.08.17.12.29.12.13 0 .23-.05.29-.14.06-.1.1-.24.1-.4.02-.16.03-.34.03-.55v-.61h.79v.55c0 .4-.04.76-.1 1.07-.08.31-.2.56-.38.74-.17.17-.42.26-.74.26Z" fill="#49361C" /><path fill="#49361C" fill-opacity=".6" d="M16 31h24v1H16z" /><defs><linearGradient id="a3to41crw" x1="28" y1="11" x2="28" y2="45" gradientUnits="userSpaceOnUse"><stop stop-color="#E5C98A" /><stop offset="1" stop-color="#FAF7D0" /></linearGradient><linearGradient id="b3to41crw" x1="28" y1="13" x2="28" y2="43" gradientUnits="userSpaceOnUse"><stop stop-color="#FFFEE5" /><stop offset="1" stop-color="#FFFFE2" /></linearGradient></defs></svg>