<!-- by TradeStack --><svg width="56" height="56" viewBox="0 0 56 56" xmlns="http://www.w3.org/2000/svg"><path fill="#F0F3FA" d="M0 0h56v56H0z"/><path d="M9.86 28.88 10 30.4c-.73.47-1.5.6-2.56.6C5.32 31 4 29.43 4 27.5S5.32 24 7.43 24c1.02 0 1.95.1 2.57.6l-.14 1.51H9.7c-.55-1.3-1.13-1.95-2.25-1.95-1.1 0-1.44.68-1.44 3.34 0 2.65.37 3.34 1.43 3.34 1.2 0 2-.9 2.26-1.96h.17ZM20 30.83V31h-.92c-1.77-.01-1.5-.01-2.2-2.17-.33-1.03-1.25-1.03-1.25-1.03H15v2c0 .67.32 1.03.73 1.03V31H13v-.17c.43 0 .55-.36.55-1.03v-4.75c0-.61-.11-.88-.55-.88V24h2.47c1.98 0 3.03.24 3.03 1.9 0 1.21-.41 1.66-1.6 1.8.65-.07 1.45.36 1.94 2.16.2.75.9.95 1.16.97Zm-2.78-4.93c0-1.73-.78-1.73-1.75-1.73H15v3.47h.47c.97 0 1.75-.01 1.75-1.74ZM29 27.55c0 1.93-1.27 3.45-3.5 3.45S22 29.48 22 27.55C22 25.6 23.27 24 25.5 24s3.5 1.63 3.5 3.55Zm-2 0c0-2.66-.3-3.39-1.5-3.39s-1.5.73-1.5 3.39.3 3.29 1.5 3.29 1.5-.63 1.5-3.3ZM42 24v.17c-.46 0-1.13.24-2.05 2.37L38.2 31h-.18l-1.8-4.3-1.6 4.3h-.18l-2.52-6.02c-.33-.8-.67-.8-.93-.8V24h3.21v.17c-.89 0-.45 1.15-.45 1.15l1.44 3.63.94-2.5-.57-1.47c-.31-.8-.66-.8-.92-.8V24h3.2v.17c-.9 0-.45 1.15-.45 1.15L38.83 29l.96-2.5s.92-2.32-.79-2.32V24h3ZM52 24v.17c-1.48-.01-1.46 2.36-1.46 2.36V31H50l-4.3-5.46v2.92s-.07 2.37 1.29 2.37V31h-3v-.17c1.48 0 1.55-2.37 1.55-2.37v-3.1l-.38-.48c-.63-.8-.92-.7-1.17-.71V24h2.4l3.97 4.94v-2.41s-.01-2.37-1.37-2.36V24h3Z"/></svg>