<!-- by TradeStack --><svg width="56" height="56" viewBox="0 0 56 56" xmlns="http://www.w3.org/2000/svg"><path fill="#F0F3FA" d="M0 0h56v56H0z"/><path d="M43 36h-1.5l-3-4.8V36H37v-7h1.5l3 4.8V29H43v7ZM33.5 30v2H36v1h-2.5v2H36v1h-4v-7h4v1h-2.5ZM31 29v7l-1.5.05v-3l-3-.05v3H25v-7h1.5v3l3 .05v-3L31 29ZM21.56 36c-.48 0-.92-.08-1.3-.24-.39-.17-.69-.4-.91-.71-.23-.3-.34-.63-.35-1.05h1.48c.02.28.12.47.3.63.18.16.43.24.75.24s.58-.07.76-.22a.76.76 0 0 0 .28-.6.7.7 0 0 0-.2-.5 1.26 1.26 0 0 0-.46-.31 6.52 6.52 0 0 0-.78-.26 9.27 9.27 0 0 1-1.1-.38 2.03 2.03 0 0 1-.71-.57c-.2-.27-.3-.61-.3-1.04 0-.4.1-.76.3-1.06.21-.3.5-.53.87-.69a3.1 3.1 0 0 1 1.26-.24c.71 0 1.29.17 1.73.52.45.34.7.87.74 1.48H22.4a.87.87 0 0 0-.3-.63 1.1 1.1 0 0 0-.75-.23.99.99 0 0 0-.65.2c-.16.14-.24.34-.24.6 0 .18.06.33.18.46.13.12.28.21.45.3l.78.25c.44.13.8.26 1.1.39.28.13.52.32.72.59a1.92 1.92 0 0 1 .02 2.05c-.19.3-.47.56-.84.75-.37.18-.8.27-1.31.27ZM16.25 34.67h-2.5L13.32 36H12l2.26-7h1.48L18 36h-1.34l-.41-1.33Zm-.34-1.12L15 30.62l-.92 2.93h1.83ZM50.78 31c-.5-1.32-1.83-2-3.21-2A3.49 3.49 0 0 0 44 32.5c0 2.02 1.59 3.5 3.58 3.5 1.6 0 3.1-1.06 3.42-2.67V32h-4v1h2.62c-.23 1.06-.86 1.76-1.99 1.76-1.3 0-2.13-.97-2.13-2.26 0-1.24.8-2.23 2.07-2.23.68 0 1.22.25 1.55.73h1.66ZM7.4 29c2.05 0 3.6 1.42 3.6 3.51S9.44 36 7.4 36H5v-7h2.4Zm-.06 6c1.39 0 2.16-1.12 2.16-2.49S8.73 30 7.34 30H6.5v5h.84ZM40.25 25.67h-2.5L37.32 27H36l2.26-7h1.48L42 27h-1.34l-.41-1.33Zm-.34-1.12L39 21.62l-.92 2.93h1.83ZM35 27h-1.5l-3-4.8V27H29v-7h1.5l3 4.8V20H35v7ZM27.5 20v7H26v-7h1.5ZM25 20v7h-1.5v-3h-3v3H19v-7h1.5v3h3v-3H25ZM14.63 20C12.64 20 11 21.48 11 23.5c0 2.04 1.64 3.5 3.63 3.5 1.41 0 2.73-.7 3.29-2h-1.7c-.34.5-.9.77-1.6.77-1.3 0-2.12-1-2.12-2.27 0-1.25.83-2.26 2.12-2.26.7 0 1.25.26 1.6.76h1.7c-.56-1.3-1.89-2-3.29-2Z"/></svg>