<?xml version='1.0' encoding='utf-8'?>
<!-- by TradeStack -->
<svg width="56" height="56" viewBox="0 0 56 56" xmlns="http://www.w3.org/2000/svg"><path fill="#08471E" d="M0 0h56v56H0z" /><path fill-rule="evenodd" d="m10.67 26.82 1.03-3.43A5.69 5.69 0 0 0 4 29.03c0 4.2 3.32 4.25 4.99 3.76l.99-3.3c-.21.16-.8.47-1.44.47-.81 0-1.6-.6-1.6-1.51 0-.92.94-2.14 2.32-2.14.2-.01 1 .06 1.4.5ZM12.73 23l-2.61 10h2.74l.77-3.09.62 3.09h2.94l-1.25-3.9c.99 0 3.18-.84 3.18-3.35 0-2-1.68-2.67-2.51-2.75h-3.88Zm2.2 2.35-.47 1.83c.42 0 1.76-.13 1.76-1.1 0-.76-.86-.8-1.3-.73ZM20.77 23l-2.63 10h5.57l.79-2.5h-2.57l.4-1.5h2.29l.47-2h-2.35l.32-1h2.53l.86-3h-5.68Zm12.39 10 2.63-10h5.68l-.86 3H38.1l-.32 1h2.35l-.47 2h-2.3l-.4 1.5h2.58l-.79 2.5h-5.57Zm-8.59 0 2.59-10h3.2c1.1-.06 3.31.65 3.31 4 0 4.2-3.78 6-5 6h-4.1Zm3.59-3 .95-4h.47c.4-.02.98.1.98 1.45 0 1.67-1.15 2.55-1.6 2.55h-.8Zm11.68 3 2.67-10H46v4.42L48.54 23H52l-2.62 10h-2.7l1.13-4.94-2.5 4.94h-1.97l.58-4.94-1.4 4.94h-2.67Z" fill="#F6EB5D" /></svg>