<!-- by TradeStack --><svg width="56" height="56" viewBox="0 0 56 56" xmlns="http://www.w3.org/2000/svg"><path fill="#25165B" d="M0 0h56v56H0z"/><path d="M8.18 23H5v10h14v-2.5H9V29h8.13c.48 0 .87-.34.87-.76V27H9v-1.5h10V23H8.18ZM37 33V23h12.08A1.9 1.9 0 0 1 51 24.9v2.2a1.9 1.9 0 0 1-1.92 1.9h-.37L51 33h-4.13l-2.3-4H41v4h-4Zm4-6h5a1 1 0 1 0 0-2h-5v2ZM22.27 23c-.7 0-1.27.6-1.27 1.33v7.34c0 .73.57 1.33 1.27 1.33H35v-6h-8v1.17c0 .64.5 1.16 1.1 1.16h2.35c.3 0 .55.26.55.59v.75h-5.45a.57.57 0 0 1-.55-.59v-4c0-.32.25-.58.55-.58H35V23H22.27Z" fill="#CCD7CF"/></svg>