<!-- by TradeStack --><svg width="56" height="56" viewBox="0 0 56 56" xmlns="http://www.w3.org/2000/svg"><path fill="#F0F3FA" d="M0 0h56v56H0z"/><path d="M43 33c-2.79 0-5-2.22-5-5 0-2.79 2.23-5 5-5 2.78 0 5 2.21 5 5 0 2.78-2.2 5-5 5Zm0-1.75c1.86 0 3-1.48 3-3.25 0-1.76-1.15-3.24-3-3.24-1.84 0-3 1.47-3 3.24 0 1.78 1.15 3.25 3 3.25ZM37 33h-2l-5-6.85V33h-2V23h2l5 6.87V23h2v10ZM21.59 23c2.97 0 5.41 1.92 5.41 5.01 0 3.1-2.45 4.99-5.41 4.99H18V23h3.59Zm-.08 8.3c2 0 3.49-1.27 3.49-3.3s-1.48-3.31-3.49-3.31H20v6.6h1.51ZM12.7 23C9.91 23 8 25.34 8 28c0 2.68 1.91 5 4.7 5a4.34 4.34 0 0 0 4.3-3h-2.17c-.2.38-.47.68-.82.9-.38.23-.82.35-1.32.35-1.82 0-2.68-1.59-2.68-3.24 0-1.65.87-3.24 2.68-3.24.5 0 .94.11 1.32.35.35.2.62.5.82.88H17a4.35 4.35 0 0 0-4.3-3Z"/></svg>