<!-- by TradeStack --><svg width="56" height="56" viewBox="0 0 56 56" fill="none" xmlns="http://www.w3.org/2000/svg">
<rect width="56" height="56" fill="#F0F3FA"/>
<path d="M27 19.39L26.9951 21.9516C26.9951 21.9847 26.9781 22.0013 26.9442 22.0013H25.0671C25.0243 22.0013 25.0028 21.9801 25.0028 21.9377L25 18.7349C25 18.6952 25.0202 18.6614 25.0487 18.6336C30.94 12.7887 40.6781 14.1891 44.5765 21.4413C48.6379 28.9934 43.5611 37.9072 35.0162 38.9123C34.5343 38.9693 33.8557 38.9977 32.9804 38.9977C28.361 39.0004 23.7416 39.0007 19.1221 38.9987C15.2381 38.9967 11.7282 36.5575 10.4814 32.9522C8.74428 27.9277 11.879 22.5805 17.1414 21.4274C21.7839 20.4094 26.2735 23.0761 27.7976 27.4024C27.8098 27.4368 27.7979 27.459 27.7619 27.4689L25.7233 27.8719C25.692 27.8806 25.671 27.87 25.6601 27.8402C25.0005 25.9978 23.6559 24.5736 21.8301 23.8098C18.8625 22.5694 14.8431 23.9397 13.0795 26.5686C10.4422 30.5026 13.0504 35.8942 17.7286 36.8675C18.2057 36.9668 18.8493 36.998 19.6594 37H31.3809C32.7585 37.0139 33.729 37.0195 34.2924 36.9877C41.9779 36.5527 46.6601 27.6179 42.2592 21.4413C38.8614 16.673 31.6159 15.5335 27.0682 19.2976C27.039 19.3215 27 19.3523 27 19.39Z" fill="#00A4E1"/>
</svg>
