<!-- by TradeStack --><svg viewBox="0 0 56 56" xmlns="http://www.w3.org/2000/svg"><path fill="#F0F3FA" d="M0 0h56v56H0z"/><path fill="#353A42" d="M23 22h2v12h-2zM5 22h7v2H7v4h4v2H7v4H5V22ZM13 34V22h3.99a4 4 0 0 1 2.4 7.2L21 34h-2.32l-1.35-4.01L17 30H15v4h-2Zm2-6h2a2 2 0 1 0 0-4h-2v4Z"/><path fill-rule="evenodd" d="M46.9 22c-2.15 0-3.9 2.13-3.9 4.45v3.23C43 32 44.75 34 46.9 34h1.2c2.15 0 3.9-2 3.9-4.32v-3.23c0-2.32-1.75-4.45-3.9-4.45h-1.2Zm.18 2C45.93 24 45 25.42 45 26.51v2.92c0 1.1.93 2.57 2.08 2.57h.84c1.15 0 2.08-1.48 2.08-2.57V26.5c0-1.1-.93-2.51-2.08-2.51h-.84Z" fill="#353A42"/><path d="M27 22h2.47l1.42 10h.27l2.04-10h2.6l2.04 10h.27l1.42-10H42l-2.17 12h-3.58l-1.75-9.05L32.75 34h-3.58L27 22Z" fill="#353A42"/></svg>