<!-- by TradeStack --><svg width="56" height="56" viewBox="0 0 56 56" fill="none" xmlns="http://www.w3.org/2000/svg">
<rect width="56" height="56" fill="#F0F3FA"/>
<path d="M10.5129 26C10.7917 26 10.9311 26.1628 10.9311 26.4696C10.9311 26.7764 10.7917 27 10.5129 27H6.35021C5.49378 27 5 27.1138 5 27.482V29.4353C5 29.8546 5.55353 30 6.52946 30H10.5527C10.8216 30 10.951 30.2432 10.951 30.5807C10.951 30.8568 10.7817 31 10.4531 31H6.49959C5.74274 31 5.19502 30.9182 4.85643 30.7648C4.2888 30.5398 4 30.1103 4 29.4864V27.5229C4 26.5105 4.75685 26 6.2805 26H10.5129ZM12.5367 28H17V27.4718C17 27.0934 15.8354 27 14.3914 27C14.0488 27 12.5367 26.9323 12.5367 27.5127V28ZM15.9104 26C16.7976 26 18 26.3052 18 27.39V28.5967C18 28.8933 17.8124 29 17.6133 29H12.5738C12.5738 29.7628 13.2375 29.9613 13.8784 30H17.6133C17.8722 30 18.0116 30.2432 18.0116 30.5807C18.0116 30.8568 17.8822 31 17.6133 31H13.8784C12.8545 30.9522 11.5367 30.671 11.5367 29.4046V27.5843C11.5367 26.2845 13.0057 25.9991 14.0377 25.9991L15.9104 26ZM19.3077 24.9993C19.0487 24.9993 19 25.1322 19 25.4083V30.5909C19 30.7852 19.0772 30.9386 19.2266 31H19.6921C19.9511 31 20 30.867 20 30.5909V25.3981C20 25.1936 19.9616 25.0511 19.8222 25L19.3077 24.9993ZM21.3243 24.9993C21.0654 24.9993 21 25.1322 21 25.4083V30.5909C21 30.7852 21.0471 30.9386 21.1965 31H21.7075C21.9664 31 22 30.867 22 30.5909V25.3981C22 25.1936 21.9832 25.0511 21.8438 25L21.3243 24.9993Z" fill="#008EC8"/>
<path d="M46.5249 28.0009H50.9882V27.4726C50.9882 27.0943 49.8237 27.0009 48.3797 27.0009C48.037 27.0009 46.5249 26.9332 46.5249 27.5136V28.0009ZM49.8986 26.0009C50.7858 26.0009 51.9882 26.3061 51.9882 27.3908V28.5976C51.9882 28.8942 51.8007 29.0009 51.6015 29.0009H46.5621C46.5621 29.7637 47.2257 29.9621 47.8666 30.0009H51.6015C51.8604 30.0009 51.9999 30.2441 51.9999 30.5816C51.9999 30.8577 51.8704 31.0009 51.6015 31.0009H47.8666C46.8428 30.9531 45.5249 30.6719 45.5249 29.4055V27.5851C45.5249 26.2854 46.9939 26 48.026 26L49.8986 26.0009Z" fill="#353D46"/>
<path d="M29.5494 26C29.8298 26 29.97 26.154 29.97 26.462C29.97 26.77 29.8298 27 29.5494 27H25.3734C24.5122 27 24 27.1088 24 27.4784V29.4394C24 29.8604 24.5722 30 25.5536 30H29.5994C29.8698 30 30 30.2505 30 30.5893C30 30.8665 29.8298 31 29.4993 31H25.5136C24.7525 31 24.2017 30.9281 23.8612 30.7741C23.2804 30.538 23 30.1068 23 29.4805V27.5195C23 26.5031 23.7611 26 25.2933 26H29.5494Z" fill="#353D46"/>
<path d="M36.6388 26.0103C36.4097 26.0103 36.2687 26.0205 36.2335 26.0513C36.1101 26.1027 35.9998 26.2259 35.9998 26.4312V29.5318C35.9998 29.9117 35.5991 30 34.7004 30H33.2996C32.3921 30 31.9998 29.9117 31.9998 29.5318V26.4209C31.9998 26.2259 31.8811 26.1027 31.7577 26.0411C31.7225 26.0205 31.5815 26 31.3524 26C31.1233 26 31 26.1335 31 26.4107V29.5113C31 30.5072 31.7665 31 33.2996 31H34.7269C36.2423 30.9897 37 30.4969 37 29.5113V26.4209C36.9824 26.1437 36.8678 26.0103 36.6388 26.0103Z" fill="#353D46"/>
<path d="M38.6887 25C38.9662 25 39 25.1262 39 25.3883V26H42.3891C44.1263 26 45 26.7959 45 27.7764V29.5141C45 30.5043 44.1263 30.9994 42.3891 30.9994H40.6931C39.7972 31.0142 38 30.7257 38 29.5335V25.3883C38 25.1942 38.072 25.0777 38.2159 25.0291C38.257 25.0097 38.4112 25 38.6887 25ZM40.8164 30H42.3891C42.863 30 44 29.9871 44 29.2714V27.7958C44 27.3881 43.3965 27 42.3994 27H39V29.2714C39 29.871 40.36 30 40.8164 30Z" fill="#353D46"/>
</svg>
