<?xml version='1.0' encoding='utf-8'?>
<!-- by TradeStack -->
<svg width="56" height="56" viewBox="0 0 56 56" fill="none" xmlns="http://www.w3.org/2000/svg">
<rect width="56" height="56" fill="#F0F3FA" />
<path fill-rule="evenodd" clip-rule="evenodd" d="M11.099 37.8073C14.3085 38.9075 18.6569 35.1846 20.8113 29.492C22.9658 23.7995 22.1106 18.2929 18.901 17.1927C15.6915 16.0925 11.3431 19.8154 9.18866 25.508C7.03417 31.2005 7.88944 36.7071 11.099 37.8073ZM12.8266 37C15.5426 37.0138 18.6987 33.7996 20.1984 28.9933C21.852 23.6934 20.8651 18.9361 17.9942 18.1157C17.7151 18.0359 17.4285 17.9983 17.137 18.0001C14.4292 18.017 11.2945 21.2376 9.80165 26.0224C8.14801 31.3223 9.13486 36.0639 12.0058 36.8843C12.2733 36.9608 12.5476 36.9986 12.8266 37Z" fill="url(#paint0_linear_228_4809)" />
<path fill-rule="evenodd" clip-rule="evenodd" d="M5.50204 32.6738C7.26861 36.2593 13.1769 37.0733 18.6987 34.492C24.2204 31.9107 27.2645 26.9116 25.498 23.3262C23.7314 19.7407 17.8231 18.9267 12.3013 21.508C6.77962 24.0893 3.73546 29.0884 5.50204 32.6738ZM6.5575 32.781C8.31847 35.8984 13.9359 36.2944 18.8413 33.6653C22.7046 31.5947 25.0141 28.2655 25 25.4215C24.9962 24.6544 24.8166 23.9226 24.4425 23.2603C22.6815 20.1429 17.3697 19.747 12.4643 22.376C8.60185 24.4461 5.98702 27.7743 6 30.6178C6.00351 31.3857 6.18308 32.1182 6.5575 32.781Z" fill="url(#paint1_linear_228_4809)" />
<path fill-rule="evenodd" clip-rule="evenodd" d="M21.5 32C23.9853 32 26 29.9853 26 27.5C26 25.0147 23.9853 23 21.5 23C19.0147 23 17 25.0147 17 27.5C17 29.9853 19.0147 32 21.5 32ZM21.5 31C23.433 31 25 29.433 25 27.5C25 25.567 23.433 24 21.5 24C19.567 24 18 25.567 18 27.5C18 29.433 19.567 31 21.5 31Z" fill="url(#paint2_linear_228_4809)" />
<path d="M12 27V30H11V23H12.4711C13.8322 23 15 23.3418 15 25C15 26.3725 13.8438 27 12.5751 27H12ZM12 26H12.5173C13.5058 26 14 25.7465 14 25C14 24.2776 13.4904 24 12.4711 24H12V26Z" fill="#072C7E" />
<path d="M16 25H17V25.5694C17.2928 25.2438 17.6702 25 18.124 25C18.4035 25 18.6954 25.0966 19 25.2897L18.5149 26.2298C18.314 26.0766 18.1177 26 17.9262 26C17.3485 26 17 26.5518 17 27.4775V30H16V25Z" fill="#072C7E" />
<path d="M33 25H34V25.5694C34.2928 25.2438 34.6702 25 35.124 25C35.4035 25 35.6954 25.0966 36 25.2897L35.5149 26.2298C35.314 26.0766 35.1177 26 34.9262 26C34.3485 26 34 26.5518 34 27.4775V30H33V25Z" fill="#072C7E" />
<path d="M37 25H38V25.5694C38.2928 25.2438 38.6702 25 39.124 25C39.4035 25 39.6954 25.0966 40 25.2897L39.5149 26.2298C39.314 26.0766 39.1177 26 38.9262 26C38.3485 26 38 26.5518 38 27.4775V30H37V25Z" fill="#072C7E" />
<path d="M24 27.7551H20C20.0609 28.4982 20.7484 29 21.5 29C22.1551 29 22.6369 28.6179 22.9915 28.1098L24 28.6249C23.4332 29.5094 22.6166 30 21.5584 30C20.0918 30 19 28.9879 19 27.5024C19 26.0453 20.0359 25 21.4947 25C22.9782 25 24.0053 26.0259 24.0053 27.4976L24 27.7551ZM23 27C22.8337 26.4169 22.4374 26 21.5212 26C20.5 26 20.1535 26.4635 20 27H23Z" fill="#B79706" />
<path d="M32 27.7551H28C28.0609 28.4982 28.7484 29 29.5 29C30.1551 29 30.6369 28.6179 30.9915 28.1098L32 28.6249C31.4332 29.5094 30.6166 30 29.5584 30C28.0918 30 27 28.9879 27 27.5024C27 26.0453 28.0359 25 29.4947 25C30.9782 25 32.0053 26.0259 32.0053 27.4976L32 27.7551ZM31 27C30.8337 26.4169 30.4374 26 29.5212 26C28.5 26 28.1535 26.4635 28 27H31Z" fill="#072C7E" />
<path d="M45 27.7551H41C41.0609 28.4982 41.7484 29 42.5 29C43.1551 29 43.6369 28.6179 43.9915 28.1098L45 28.6249C44.4332 29.5094 43.6166 30 42.5584 30C41.0918 30 40 28.9879 40 27.5024C40 26.0453 41.0359 25 42.4947 25C43.9782 25 45.0053 26.0259 45.0053 27.4976L45 27.7551ZM44 27C43.8337 26.4169 43.4374 26 42.5212 26C41.5 26 41.1535 26.4635 41 27H44Z" fill="#072C7E" />
<path d="M26.0001 27V30H25.0001V27H24.7097L24.7097 26H25.0001V24.493C25.0001 23.7229 25.4525 23 26.3413 23C26.4864 23 26.7799 23.0476 27.0001 23.1428V24.081L26.9166 24.0321C26.7399 23.9314 26.484 23.8811 26.3703 23.8811C25.9598 23.8811 26.0001 24.4349 26.0001 24.7174V26H27.0001V27H26.0001Z" fill="#072C7E" />
<path d="M49 23H50L50 30H49V29.4314C48.6418 29.8105 48.3232 30 47.8707 30C46.6554 30 46 28.5975 46 27.5C46 26.4278 46.6643 25 47.8505 25C48.3111 25 48.6364 25.2041 49 25.6124L49 23ZM47 27.5C47 28.1474 47.278 29 48.0161 29C48.7631 29 49 28.1981 49 27.5219C49 26.854 48.7666 26 48.0242 26C47.3109 26 47 26.8616 47 27.5Z" fill="#072C7E" />
<path d="M27 31.2545L26.8905 31.5491C26.6934 31.4747 26.4507 31.4375 26.1624 31.4375C25.7427 31.4405 25.3869 31.5938 25.0949 31.8973C24.8248 32.1801 24.6898 32.4955 24.6898 32.8437C24.6898 33.0699 24.7591 33.25 24.8978 33.3839C25.0401 33.5179 25.2482 33.5848 25.5219 33.5848C25.8358 33.5848 26.1934 33.5283 26.5949 33.4152L26.5237 33.7857C26.1624 33.9286 25.7555 34 25.3029 34C24.8942 34 24.573 33.8899 24.3394 33.6696C24.1131 33.4583 24 33.1845 24 32.8482C24 32.378 24.1916 31.9568 24.5748 31.5848C24.9799 31.1949 25.4653 31 26.031 31C26.4069 31 26.7299 31.0848 27 31.2545Z" fill="#B79706" />
<path d="M30 32.0848C30 32.5789 29.8339 33.0149 29.5016 33.3929C29.1431 33.7976 28.699 34 28.1694 34C27.7944 34 27.5049 33.9003 27.301 33.7009C27.1003 33.5015 27 33.2307 27 32.8884C27 32.4062 27.1694 31.9762 27.5082 31.5982C27.8668 31.1994 28.3076 31 28.8306 31C29.2056 31 29.4934 31.0967 29.6941 31.2902C29.898 31.4807 30 31.7455 30 32.0848ZM29.3734 32.1295C29.3734 31.6652 29.1595 31.433 28.7319 31.433C28.3799 31.433 28.0987 31.5997 27.8882 31.933C27.7138 32.2128 27.6266 32.5253 27.6266 32.8705C27.6266 33.3467 27.8355 33.5848 28.2533 33.5848C28.602 33.5848 28.8849 33.4152 29.102 33.0759C29.2829 32.7872 29.3734 32.4717 29.3734 32.1295Z" fill="#B79706" />
<path d="M34 31L33.3164 34H32.761L33.3324 31.4781C33.0191 32.0031 32.5421 32.7891 31.9012 33.8359H31.4152L31.0788 31.6797L30.5501 34H30L30.6836 31H31.6075L31.8959 33.0719L33.1509 31H34Z" fill="#B79706" />
<path d="M38 31L37.3164 34H36.761L37.3324 31.4781C37.0191 32.0031 36.5421 32.7891 35.9012 33.8359H35.4152L35.0788 31.6797L34.5501 34H34L34.6836 31H35.6075L35.8959 33.0719L37.1509 31H38Z" fill="#B79706" />
<path d="M41 31L40.8937 31.4453H39.3097L39.1138 32.2563H40.5243L40.4235 32.6781H39.0131L38.806 33.5594H40.4123L40.306 34H38L38.7164 31H41Z" fill="#B79706" />
<path d="M44 31.6094C44 31.875 43.8934 32.1063 43.6801 32.3031C43.4706 32.4969 43.2096 32.6125 42.8971 32.65L43.7132 34H42.864L42.1526 32.7063H41.9926L41.6893 34H41L41.7059 31H43.1618C43.3971 31 43.5919 31.05 43.7463 31.15C43.9154 31.2594 44 31.4125 44 31.6094ZM43.2776 31.7359C43.2776 31.5297 43.1158 31.4266 42.7923 31.4266C42.7298 31.4266 42.6471 31.4297 42.5441 31.4359C42.4118 31.4422 42.3272 31.4453 42.2904 31.4453L42.0699 32.35C42.2904 32.3656 42.4246 32.3734 42.4724 32.3734C42.6857 32.3734 42.8732 32.3125 43.0349 32.1906C43.1967 32.0688 43.2776 31.9172 43.2776 31.7359Z" fill="#B79706" />
<path d="M47 31.2545L46.8905 31.5491C46.6934 31.4747 46.4507 31.4375 46.1624 31.4375C45.7427 31.4405 45.3869 31.5938 45.0949 31.8973C44.8248 32.1801 44.6898 32.4955 44.6898 32.8437C44.6898 33.0699 44.7591 33.25 44.8978 33.3839C45.0401 33.5179 45.2482 33.5848 45.5219 33.5848C45.8358 33.5848 46.1934 33.5283 46.5949 33.4152L46.5237 33.7857C46.1624 33.9286 45.7555 34 45.3029 34C44.8942 34 44.573 33.8899 44.3394 33.6696C44.1131 33.4583 44 33.1845 44 32.8482C44 32.378 44.1916 31.9568 44.5748 31.5848C44.9799 31.1949 45.4653 31 46.031 31C46.4069 31 46.7299 31.0848 47 31.2545Z" fill="#B79706" />
<path d="M50 31L49.8937 31.4453H48.3097L48.1138 32.2563H49.5243L49.4235 32.6781H48.0131L47.806 33.5594H49.4123L49.306 34H47L47.7164 31H50Z" fill="#B79706" />
<path d="M13 32H24.5V33H13V32Z" fill="url(#paint3_linear_228_4809)" />
<defs>
<linearGradient id="paint0_linear_228_4809" x1="22.983" y1="31.687" x2="8.01725" y2="30.8727" gradientUnits="userSpaceOnUse">
<stop stop-color="#ECF2FD" />
<stop offset="0.255208" stop-color="#929BB6" />
<stop offset="1" stop-color="#304C8B" />
</linearGradient>
<linearGradient id="paint1_linear_228_4809" x1="25.4824" y1="24.2489" x2="12.2327" y2="29.6709" gradientUnits="userSpaceOnUse">
<stop stop-color="#FCFEFF" />
<stop offset="1" stop-color="#6075A8" />
</linearGradient>
<linearGradient id="paint2_linear_228_4809" x1="22.961" y1="23" x2="20.3896" y2="32" gradientUnits="userSpaceOnUse">
<stop stop-color="#F4F6F3" />
<stop offset="1" stop-color="#8190B4" />
</linearGradient>
<linearGradient id="paint3_linear_228_4809" x1="25" y1="32.5714" x2="13" y2="32.5714" gradientUnits="userSpaceOnUse">
<stop stop-color="#B79706" />
<stop offset="1" stop-color="white" stop-opacity="0" />
</linearGradient>
</defs>
</svg>