<?xml version='1.0' encoding='utf-8'?>
<!-- by TradeStack -->
<svg width="56" height="56" viewBox="0 0 56 56" xmlns="http://www.w3.org/2000/svg"><path fill="#F0F3FA" d="M0 0h56v56H0z" /><path d="M11 21v10l8-5-8-5Z" fill="#E32C2E" /><path d="M45 21v10l-8-5 8-5Z" fill="#3383C0" /><path d="m19 16-8 5 8 5V16Z" fill="#A91D26" /><path d="m19 33-8 5 8 5V33ZM37 16l8 5-8 5V16Z" fill="#3CC0F0" /><path d="m37 33 8 5-8 5V33Z" fill="#E8292E" /><path d="M19 26V16l9 4.5-9 5.5Z" fill="#FFC73C" /><path d="M19 43V33l9 4.5-9 5.5Z" fill="#3384C6" /><path d="M37 26V16l-9 4.5 9 5.5Z" fill="#273E84" /><path d="M37 43V33l-9 4.5 9 5.5Z" fill="#A51F26" /><path d="m28 11-9 5 9 4.5V11ZM28 28l-9 5 9 4.5V28Z" fill="#F48534" /><path d="m28 11 9 5-9 4.5V11Z" fill="#54A74D" /><path d="m28 28 9 5-9 4.5V28Z" fill="#FDC83A" /></svg>