<?xml version='1.0' encoding='utf-8'?>
<!-- by TradeStack -->
<svg width="56" height="56" viewBox="0 0 56 56" xmlns="http://www.w3.org/2000/svg"><path fill="url(#a)" d="M0 0h56v56H0z" /><path d="m22.77 24.53-2.6-1.91a67.57 67.57 0 0 1-5.73-4.63c-3.24-2.94-4.05-4.51-2.43-4.72a7.33 7.33 0 0 1 2.09.04 40.22 40.22 0 0 1 4.19.88v-.01l-.02-.02a20.38 20.38 0 0 0-3.85-1c-2.03-.33-3.16-.15-3.38.55-.31.99 1.3 2.96 4.84 5.93l.2.17c2.31 1.85 4.7 3.6 7.17 5.25.09.06.18.08.29.05l-.77-.58Zm12.49-9.65a15.13 15.13 0 0 0-5.43-1.62 15.08 15.08 0 0 0-12.27 4.6c-.3.3-.63.7-.99 1.22-.07.1-.06.19.04.27l.07.05c.1.07.18.06.25-.04a14.85 14.85 0 0 1 5.32-4.3 13.11 13.11 0 0 1 6.72-1.38c2.11.12 4.07.63 5.89 1.53.13.06.25.05.37-.03l.05-.04c.13-.1.12-.18-.02-.26Zm1.28 2.44c-.02.04-.05.07-.1.07a.1.1 0 0 1-.09-.06 2.58 2.58 0 0 0-1.47-1.36c-.04-.01-.07-.04-.07-.08 0-.05.02-.08.06-.1a2.63 2.63 0 0 0 1.37-1.5.09.09 0 0 1 .08-.05c.05 0 .07.01.1.05.29.64.79 1.1 1.49 1.39.04.01.06.04.06.08s-.02.07-.06.09c-.64.29-1.1.78-1.37 1.47Zm3.43.46c.18-.3.42-.54.7-.72.1-.06.09-.11 0-.15a1.68 1.68 0 0 1-.74-.69c-.05-.09-.1-.09-.16 0-.16.3-.39.55-.67.75-.08.05-.08.1 0 .15.3.16.55.38.73.66.05.08.1.08.14 0Zm2.1 4.5a13.86 13.86 0 0 1 1.05 4.77c0 .07 0 .07-.02 0a15.3 15.3 0 0 0-4.6-9.3l-1.11-.96c-.07-.05-.07-.11-.03-.19l.05-.06c.08-.13.17-.14.29-.05a14.6 14.6 0 0 1 4.38 5.79Zm-25.91-1.89a.35.35 0 0 0-.25-.23.29.29 0 0 0-.19.13 14.5 14.5 0 0 0-1.53 12.67c1.81 4.96 5.3 8.17 10.48 9.63a15.42 15.42 0 0 0 7.14-.04c0-.01 0-.02-.02-.02-2.7.42-5.2.27-7.5-.45a14.5 14.5 0 0 1-6.33-4.03 14.46 14.46 0 0 1-3.79-8.42c-.33-3.19.33-6.2 1.97-9.02a.25.25 0 0 0 .02-.22Zm18.64 7.93a1.9 1.9 0 0 0 .53-.51c.1-.12.18-.11.25.01.14.24.33.42.56.54.07.04.07.08 0 .13-.25.16-.45.36-.61.6a.1.1 0 0 1-.1.04.1.1 0 0 1-.08-.05 1.4 1.4 0 0 0-.55-.55c-.12-.07-.12-.14 0-.2Zm7.6 1.43c.28.15.51.37.69.66.06.1.13.1.18-.01.15-.3.37-.52.66-.7.1-.05.1-.1 0-.15a1.6 1.6 0 0 1-.7-.66c-.07-.11-.13-.11-.19 0-.15.3-.37.52-.65.7-.1.05-.1.1 0 .16Z" fill="#fff" /><path d="M21.47 24.39c-.3.46-.47 1.02-.47 1.61v5a3 3 0 0 0 3 3h10a3 3 0 0 0 3-3v-1h-3.02c-.12.85-.96 1.5-1.98 1.5h-6c-1.1 0-2-.77-2-1.71V27.2c0-.42.18-.8.47-1.1l-3-1.72Zm.76-.81 2.52 2.3A2.2 2.2 0 0 1 26 25.5h6c1.02 0 1.86.65 1.98 1.5H37v-1a3 3 0 0 0-3-3H24c-.66 0-1.27.21-1.77.58Z" fill="#fff" /><defs><linearGradient id="a" x1="5.67" y1="7.63" x2="42.83" y2="47.65" gradientUnits="userSpaceOnUse"><stop stop-color="#7F05F4" /><stop offset="1" stop-color="#280DEC" /></linearGradient></defs></svg>