<?xml version='1.0' encoding='utf-8'?>
<!-- by TradeStack -->
<svg width="56" height="56" viewBox="0 0 56 56" xmlns="http://www.w3.org/2000/svg"><path fill="#F0F3FA" d="M0 0h56v56H0z" /><path d="M11 24c-3.87 0-7 2.24-7 5s3.13 5 7 5v-1c-1.75 0-3.29-.5-4.37-1.28C5.55 30.95 5 29.97 5 29c0-.97.55-1.95 1.63-2.72A7.58 7.58 0 0 1 11 25v-1ZM31 24c-3.87 0-7 2.24-7 5s3.13 5 7 5v-1c-1.75 0-3.29-.5-4.37-1.28C25.55 30.95 25 29.97 25 29c0-.97.55-1.95 1.63-2.72A7.58 7.58 0 0 1 31 25v-1Z" /><path fill-rule="evenodd" d="M18.5 22 13 34h11l-5.5-12Zm0 2.4L14.56 33h7.88l-3.94-8.6Z" fill="#A59D3B" /><path d="M34 24h1v4.5h7V24h1v10h-1v-4.5h-7V34h-1V24ZM45 24h7v1h-6v3.5h6v1h-6V33h6v1h-7V24Z" /></svg>