<!-- by TradeStack --><svg width="56" height="56" viewBox="0 0 56 56" xmlns="http://www.w3.org/2000/svg"><path fill="#40547A" d="M0 0h56v56H0z"/><path d="m33.78 17-3.72 4.6c-2.65.51-8.18 1.74-9.03 2.56-.85.81-2.83 7.83-3.72 11.24 3.9-.51 11.9-1.64 12.75-2.04.85-.41 3.19-4.49 4.25-6.36h4.25l-3.72 1.24 2.66.52-2.66.5 2.66.52-3.72.5 2.66.52-3.19.51 2.13.51-3.2.51 2.66.51-3.18.52 2.12.5-5.31.52 4.78.5-11.16.52 9.57.51-14.88.51 12.75.51-13.81.51 10.62.52-10.62.5 4.78.52L12 40l1.06-4.09 3.19-.51-2.66-.51 2.13-.51-2.13-.51 2.66-.51-2.13-.52 2.66-.5-2.66-.52 3.2-.5-2.66-.52 3.18-.51-2.65-.51 2.65-.51-2.65-.51 2.65-.52-2.12-.5 2.65-.52-2.12-.5 2.66-.52-2.66-.51 2.66-.51-2.13-.51 2.66-.51-2.13-.52 3.72-.5-3.19-.52 6.38-.5-4.78-.52 7.97-.51-6.91-.51 9.56-.51-7.43-.51 8.5-.52-5.32-.5 6.38-.52-3.19-.5 4.78-.52Zm-5.84 14 1.6-.5 6.9-11c.17-.33 1.38-1.5 2.65-1.5h5.32c-.53 1.67-2.34 5.6-3.2 6-.84.4-4.24.83-5.84 1l-.53 1.5c1.95-.17 6.06-.6 6.91-1 .85-.4 3.19-5.83 4.25-8.5h-7.97c-.7 0-2.16.57-3.19 2.5-1.06 2-4.95 8.5-6.9 11.5Z" fill="#FEFEFE"/></svg>