<!-- by TradeStack --><svg xmlns="http://www.w3.org/2000/svg" width="56" height="56" viewBox="0 0 56 56"><path fill="#F0F3FA" d="M0 0h56v56H0z"/><path d="m21.86 42.79 1.45-3.48L28 44h-.21c-2.3 0-4.3-.51-5.93-1.21Z" fill="#1E779F"/><path d="m34.62 21.37 4.68-1.07v3.02l-4.68-1.95Z" fill="#539AC8"/><path d="m28 37.37 4.68 1.95L28 44v-6.63Z" fill="#005480"/><path d="m32.68 39.32-.5 4.12c-1.33.36-2.73.56-4.18.56l4.68-4.68Z" fill="#0073AD"/><path d="M32.68 39.32H39a14.8 14.8 0 0 1-4.9 3.46l-1.42-3.46ZM21.87 13.21C23.77 12.43 25.83 12 28 12l-4.69 4.69-1.44-3.48Z" fill="#268CC0"/><path d="M16.68 16.69a16.04 16.04 0 0 1 5.18-3.46l.01-.01 1.44 3.47h-6.63ZM13.2 34.12c.82 1.96 2 3.72 3.48 5.2v-6.64l-3.47 1.44Z" fill="#0073AD"/><path d="m13.21 21.87.06.03 3.4 1.42L12 27.99c0-2.15.42-4.23 1.21-6.12Z" fill="#005480"/><path d="m16.68 23.32-2.97-2.53c.77-1.52 1.78-2.9 2.97-4.1v6.63Z" fill="#1E779F"/><path d="M39 32.66 44 28c0 2.17-.46 4.29-1.23 6.17L39 32.67Z" fill="#539AC8"/><path d="m28 12 3.51 3.53-3.51 3.1V12Z" fill="#0073AD"/><path d="m34.12 13.21-1.44 3.48-4.69 1.95 6.13-5.43ZM21.36 21.37l-4.68-4.68v3.18l4.68 1.5Z" fill="#005480"/><path d="M34.62 34.63 39 39.3V32.7l-4.38 1.94Z" fill="#0073AD"/><path d="M12 28h6.62l-1.94 4.68L12 28Z" fill="#C1CC23"/><path d="m31.31 36-2.06-4.95 4.9 4.72-1.47 3.54L31.3 36Z" fill="#005480"/><path d="m36 24.69 3.3-1.37-4.68-1.95L36 24.7Z" fill="#0073AD"/><path d="M23.31 16.69 24.68 20l-3.32 1.37 1.95-4.68Z" fill="#C1CC23"/><path d="M28 37.37 31.3 36l1.37 3.32-4.69-1.95Z" fill="#539AC8"/><path d="m20 31.32-3.32 1.37 4.68 1.94L20 31.32Z" fill="#0073AD"/><path d="m24.68 20 1.66-.69.35 5.54-2-4.85Z" fill="#0080B7"/><path d="M23.31 16.69 28 18.64 24.7 20l-1.38-3.31Z" fill="#005480"/><path d="m24.68 36 3.31 1.37-4.68 1.95L24.68 36Z" fill="#268CC0"/><path d="m31.31 20 1.37-3.31 1.94 4.68-3.3-1.37ZM36 31.32l3 1.35L37.36 28 36 31.32ZM20 24.69l1.36-3.32-4.68 1.95L20 24.69Z" fill="#C1CC23"/><path d="m28 18.64 4.68-1.95L31.3 20 28 18.64Z" fill="#268CC0"/><path d="m24.68 36-3.32-1.37 1.94 4.68L24.68 36ZM20 31.32l1.36 3.3 3.66-5.39L20 31.32Z" fill="#C1CC23"/><path d="m17.83 26.07-1.15-2.75 3.3 1.37-.76 1.87-1.4-.49Z" fill="#005480"/><path d="m18.62 28-.8-1.93 1.4.49L23.4 28h-4.78Z" fill="#0080B7"/><path d="M21.36 34.63 24.68 36l2.1-5.08-5.42 3.7ZM31.05 26.73 37.36 28 36 24.69l-4.94 2.04Z" fill="#005480"/><path d="m29.34 24.78.97-2.35 4.31-1.06-5.28 3.4Z" fill="#0073AD"/><path d="m44 28-4.7-4.68-1.24 3L44 28Z" fill="#C1CC23"/><path d="m38.06 26.32-.7 1.68H44l-5.94-1.68ZM21.86 42.79a16.2 16.2 0 0 1-5.2-3.49l6.65.02-1.45 3.47Z" fill="#005480"/><path d="M34.12 13.23s2.3.58 5.2 3.46h-5.2v-3.46Z" fill="#539AC8"/><path d="M42.79 21.9c-.81-1.96-2-3.73-3.49-5.21v6.63l3.49-1.42Z" fill="#0073AD"/></svg>