<!-- by TradeStack --><svg width="56" height="56" viewBox="0 0 56 56" fill="none" xmlns="http://www.w3.org/2000/svg">
<rect width="56" height="56" fill="#F0F3FA"/>
<path fill-rule="evenodd" clip-rule="evenodd" d="M39 13H17C14.7909 13 13 14.7909 13 17V39C13 41.2091 14.7909 43 17 43H39C41.2091 43 43 41.2091 43 39V17C43 14.7909 41.2091 13 39 13ZM17 12C14.2386 12 12 14.2386 12 17V39C12 41.7614 14.2386 44 17 44H39C41.7614 44 44 41.7614 44 39V17C44 14.2386 41.7614 12 39 12H17ZM29.3984 28.441C29.1182 28.9529 28.5746 29.3 27.95 29.3C27.4575 29.3 27.0154 29.0842 26.7131 28.7421C26.8991 29.2941 27 29.8852 27 30.5C27 33.5376 24.5376 36 21.5 36C19.6907 36 18.0854 35.1264 17.0831 33.7779C17.3577 33.9198 17.6695 34 18 34C19.1046 34 20 33.1046 20 32C20 30.8954 19.1046 30 18 30C17.0903 30 16.3224 30.6074 16.0798 31.4388C16.0273 31.1337 16 30.8201 16 30.5C16 27.4624 18.4624 25 21.5 25C23.5687 25 25.3707 26.1421 26.3097 27.8302C26.3033 27.771 26.3 27.7109 26.3 27.65C26.3 26.7387 27.0387 26 27.95 26C28.8613 26 29.6 26.7387 29.6 27.65C29.6 27.832 29.5705 28.007 29.5161 28.1707C30.3931 26.2976 32.295 25 34.5 25C37.5376 25 40 27.4624 40 30.5C40 30.8201 39.9727 31.1337 39.9202 31.4388C39.6776 30.6074 38.9097 30 38 30C36.8954 30 36 30.8954 36 32C36 33.1046 36.8954 34 38 34C38.3305 34 38.6423 33.9198 38.9169 33.7779C37.9146 35.1264 36.3093 36 34.5 36C31.4624 36 29 33.5376 29 30.5C29 29.772 29.1415 29.077 29.3984 28.441ZM25.9809 16C25.9809 17.1046 26.8763 18 27.9809 18C29.0855 18 29.9809 17.1046 29.9809 16C29.9809 15.6499 29.8909 15.2862 29.7329 15C31.9375 16 33.5 17.8847 33.5 20.3697C33.5 23.4735 31.0376 25.9895 28 25.9895C24.9624 25.9895 22.5 23.4735 22.5 20.3697C22.5 17.9025 23.9375 16 26.22 15C26.0675 15.2824 25.9809 15.6565 25.9809 16ZM17.0501 39.9974H16.5V41H16V38H17.0938C17.6895 38 18 38.4459 18 39C18 39.5932 17.6739 39.9985 17.0501 39.9974ZM17.0501 38.5H16.5V39.5H17.0501C17.2539 39.5 17.5 39.3346 17.5 39C17.5 38.6638 17.2461 38.5 17.0501 38.5ZM19.3842 38H18.7666L17.8345 41H18.3997L18.5776 40.3833H19.5547L19.7422 41H20.3068L19.3842 38ZM19.4123 39.8663H18.7266L19.0697 38.6719L19.4123 39.8663ZM24 38H24.5398L25.5 39.9844V38H26V41H25.4847L24.5 39.0781V41H24V38ZM23 41H23.5V38H23V41ZM30.3125 40.8163C30.0331 40.9345 29.6823 40.9965 29.3869 41C28.9339 41 28.5923 40.8618 28.3458 40.5739C28.1259 40.3196 28 39.9451 28 39.5284C28 38.6531 28.5539 38 29.4477 38C29.782 38 30.0442 38.084 30.1671 38.1557L30.0523 38.6562C29.9013 38.576 29.7282 38.5 29.4326 38.5C28.8587 38.5 28.5 38.8559 28.5 39.4899C28.5 40.1169 28.8394 40.5 29.4132 40.5C29.6014 40.5 29.7829 40.4592 29.85 40.4188V39.8125H29.3353V39.3398H30.3125V40.8163ZM31.406 38.0001C31.1509 37.9983 30.896 38.0204 30.6438 38.0662V41H31.1451V39.7824H31.3911C31.6701 39.7918 31.7971 39.9176 31.8766 40.3051C31.9551 40.6835 32.0169 40.9135 32.0577 41H32.5438C32.5043 40.9111 32.4559 40.6978 32.3978 40.4416L32.3977 40.4416C32.3771 40.3504 32.3551 40.2538 32.3319 40.1555C32.2664 39.8874 32.1565 39.68 31.9741 39.5962V39.5822C32.2046 39.4972 32.4491 39.2381 32.4491 38.8431C32.4491 38.5847 32.362 38.3763 32.2252 38.2471C32.0504 38.0783 31.7971 38.0001 31.406 38.0001ZM31.4405 39.373H31.1451V38.4541C31.2551 38.4298 31.337 38.4194 31.4488 38.4231C31.7556 38.4231 31.9773 38.5606 31.9773 38.8941C31.9773 39.1875 31.7733 39.373 31.4405 39.373ZM35.1637 39.4726C35.1637 40.4036 34.6462 41 33.9427 41C33.2391 41 32.7656 40.3701 32.7656 39.53C32.7656 38.6332 33.2704 38 33.976 38C34.7039 38 35.1637 38.6284 35.1637 39.4726ZM33.2293 39.5142C33.2293 40.0925 33.5115 40.5 33.9661 40.5C34.4208 40.5 34.7033 40.1076 34.7033 39.4921C34.7033 38.9377 34.4425 38.5 33.9684 38.5C33.4944 38.5 33.2293 38.9226 33.2293 39.5142ZM36 39.644V38H35.5006V39.6207C35.5006 40.6129 35.9483 41 36.5 41C37.0906 41 37.5 40.5803 37.5 39.6237V38H37.0041V39.644C37.0041 40.2557 36.8409 40.5 36.5 40.5C36.1776 40.5 36 40.2523 36 39.644ZM39.0501 39.9974H38.5V41H38V38H39.0938C39.6895 38 40 38.4459 40 39C40 39.5932 39.6739 39.9985 39.0501 39.9974ZM39.0501 38.5H38.5V39.5H39.0501C39.2539 39.5 39.5 39.3346 39.5 39C39.5 38.6638 39.2461 38.5 39.0501 38.5ZM21.0398 38H20.5V41H21V39.0781L21.9847 41H22.5V38H22V39.9844L21.0398 38Z" fill="#007DC5"/>
</svg>
