<!-- by TradeStack --><svg width="56" height="56" viewBox="0 0 56 56" xmlns="http://www.w3.org/2000/svg"><path fill="#F0F3FA" d="M0 0h56v56H0z"/><path d="M41.88 40c.61 0 2.08.02 2.12-.67a.87.87 0 0 0-.14-.45c-1.3-1.24-1.86-2.18-3.2-3.38-.6-.55-5.44-.5-9.99-.5a23.8 23.8 0 0 1-7.24-.92C19.7 32.84 17 30 17 26.62c0-3.12 1.72-5.48 4.19-7.35.34-.26.94-.6 1.07-.98.1-.35 0-.6-.17-.77-.69-.56-1.68-1.67-2.33-2.32-1.2-1.2-4.96 3.26-5.39 3.9C13.04 21.07 12 23.5 12 26c0 11 8.84 13.74 18.34 14h11.54Z" fill="#E10145"/><path d="M27 31a5 5 0 1 0 0-10 5 5 0 0 0 0 10Z" fill="#E30045"/></svg>