<?xml version='1.0' encoding='utf-8'?>
<!-- by TradeStack -->
<svg width="56" height="56" viewBox="0 0 56 56" fill="none" xmlns="http://www.w3.org/2000/svg">
<rect width="56" height="56" fill="#F0F3FA" />
<path fill-rule="evenodd" clip-rule="evenodd" d="M20.6632 15.2945L22.3781 12H22.3815L29.7156 25.8288L28 29L20.6632 15.2945ZM32.0833 15.1383L33.7982 12.0014L33.8016 12.0016L41.1357 25.6725L39.4397 29L32.0833 15.1383ZM22.5883 19H19.1011L11 31.9999H14.5755L22.5898 19H22.5883ZM21.8055 24H25.2927H25.2942L17.28 37H13.767L21.8055 24ZM28.0578 29L28.0561 29.0029L43.1312 29L45 32H29.8241L28.0279 29.0496L25.0402 33.9999L40.1318 34L42.0006 37H26.8246L25.0211 34.0317L22.0208 39.0029L37.1318 39L39.0006 42H23.8246L22.0105 39.02L20.2119 42.0001L16.7196 42.0001L24.5894 29H28.0563H28.0578ZM28.088 12.0014L26.3731 15.1383L33.7295 29L35.4255 25.6725L28.0914 12.0016L28.088 12.0014Z" fill="#0077B4" />
</svg>