<!-- by TradeStack --><svg width="56" height="56" viewBox="0 0 56 56" xmlns="http://www.w3.org/2000/svg"><path fill="#F0F3FA" d="M0 0h56v56H0z"/><path d="M38.88 34.88c-7.17-10.5-8.96-18.96-8.96-21.88-1.02 2-1.28 3.75-1.28 4.38 0 6.5 6.83 14.37 10.24 17.5ZM28 20.5c.43 2.08 2.95 7.88 9.6 14.38-4.26-2.71-12.16-9.38-9.6-14.38Zm-1.92 4.38c1.07 1.87 4.61 6.5 10.24 10-4.05-1.67-11.77-6-10.24-10Zm9.6 10C33.12 34.24 27.23 32 24.16 28c.43 1.88 3.33 5.88 11.52 6.88ZM30 38.95V36c-4.6 0-7-1-8.4-2.38 1.55 1.16 5.27 1.59 7.4 1.38-2.56-.5-5.05-2.83-6.12-3.88 1.54 1.5 8.32 3.13 11.52 3.75A5.67 5.67 0 0 1 32 36v3.22c4.02.26 7.57-1.09 9.43-4 2.07-3.24 1.56-7.64-.92-11.61 3.74 4.7 4.67 10.41 1.84 14.59-2.47 3.64-7.2 5.25-12.35 4.7v-3.94Zm-7.24-3.02a20.38 20.38 0 0 0 6.24 2.8v4.02a21.9 21.9 0 0 1-8.08-3.07C13 34.74 9.75 26.06 13.66 20.29a9.9 9.9 0 0 1 2.6-2.6c-.14.2-.28.39-.41.6-3.25 5.07-.15 12.98 6.91 17.65Z" fill="#8EC63F"/></svg>