<!-- by TradeStack --><svg xmlns="http://www.w3.org/2000/svg" width="56" height="56"><path fill="#F0F3FA" d="M0 0h56v56H0z"/><path d="M46.98 23.73C50.24 25.6 52 27.9 50.43 30c-2.77 3.7-15.3 5.3-23.68 3.84a29.9 29.9 0 01-5.75-1.6c2.38 1.36 6 2.36 10.7 2.66 9.15.58 18.08-1.72 19.94-5.14 1.2-2.19-.69-4.5-4.66-6.04zm-6.7-2.63h-.08c-.3-.02-.4.12-.3.25.14.14.36.23.77.4.4.16 4.15 1.33 4.15 1.33.61.17 1.45.4 1.63.35.03 0 .04-.03.02-.06-.08-.14-.38-.29-.65-.42l-.17-.09-.57-.28-.07-.03-.1-.03-.46-.22.05.01.06.02c-.53-.26-1.14-.54-1.57-.73a6.65 6.65 0 00-1.78-.58c-.3-.04-.47-.01-.62.02l.64.24-.94-.18zm4.63 1.35l.1.03.07.02.05.02c.5.17 1.05.34 1.46.6l1.32-.69s-.44-.14-.67-.16a1.9 1.9 0 00-.64.06l-.35.07c-.59.1-.92.04-1.69-.13l-.05-.02h-.06l.46.2zm-5.21 1.6l.04-.03.5-.4-.1.4.02.02.02.03.08-.01.27-.11-.6.65-.02.02-.01.01v.02l.01.01h.04l.02-.01.03-.01.5-.3-.03.12v.05h.08l.36-.04-.36.34-.03.04v.03l.01.02.12.04-.99.44-.05.03-.05.08-.03.15-.51-.1h-.05l-.04.02h-.02l-.12.22h-.16l.18-.21v-.01l-.03-.01h-.05l-.64.1.18-.16.03-.05.02-.03v-.03l-.38-.44.19-.04.02-.02.05-.03.03-.04.12-.34.2.03c.17.04.18.04.4-.16l.07.3.01.01h.01l.02.01h.04l.02-.01.01-.02.01-.01.01-.02.31-.65.12.1.06.02.06-.03z" fill="#ED1B2D"/><path d="M6.7 30.14c-1.09 0-1.48-.5-.94-1.25.54-.74 1.44-1.02 2.55-1.02.63 0 1.2.18 1.45.45l.69-.96c-.43-.33-1.09-.36-1.6-.36-.65 0-1.28.1-1.9.3-1.17.36-1.98.82-2.54 1.6-.3.42-.43.79-.41 1.1.05.62.72 1 1.9 1a7.2 7.2 0 002.34-.42l.7-.95a7 7 0 01-2.25.5zM13.59 27l-5.06 4h1.39l.99-.83h2.34l-.16.83h1.4l.61-4h-1.5zm-.2 2.44h-1.61L13.64 28l-.24 1.43zm6.49.38c.07-.43-.19-.48-.38-.6a2.84 2.84 0 001.64-1.01c.28-.4.29-.79.03-1-.22-.17-.47-.21-1.23-.21h-2.01l-2.83 4h1.32l1.04-1.52c.34 0 1.07-.04.98.48-.04.33-.13.71-.16 1.04h1.44l.16-1.18zM18 28.72l.7-.96h.65c.49 0 .62.16.39.48-.2.27-.57.46-.92.47H18zm6.83.03l-.55.77h.74l-.35.49c-.37.1-.71.14-1.03.14-1 0-1.35-.5-.83-1.22.58-.8 1.48-1.07 2.65-1.07.58 0 1.14.12 1.66.38l.65-.9a4.3 4.3 0 00-1.8-.34c-1.87 0-3.57.62-4.48 1.89-.9 1.25-.26 2.1 1.55 2.1.87 0 1.86-.19 2.63-.53l1.23-1.71h-2.07zm8.58.35c.87-1.2.23-2.1-1.44-2.1-1.69 0-3.64.9-4.51 2.1-.86 1.2-.03 1.9 1.63 1.9 1.7 0 3.46-.7 4.32-1.9zm-1.35.03c-.53.73-1.39 1.05-2.33 1.05-.98 0-1.49-.3-.95-1.06a3.2 3.2 0 012.55-1.27c1 0 1.3.5.73 1.28zm9.6 1.16h-2.75l.8-1.03h2.42l.5-.71h-2.42l.6-.84h2.64l.5-.71h-3.71l-2.92 4h3.84l.5-.71zm5.33-2.59h1.5l.5-.7h-4.04l-.5.7h1.42L43.56 31h1.12L47 27.7zm-10.72 1.74l1.7-2.44h.96l-1.84 2.77c-.55.79-1.67 1.23-3.23 1.23a5.9 5.9 0 01-1.7-.22l.7-.7c.39.12.87.18 1.43.18.99 0 1.58-.26 1.98-.82z" fill="#050000"/></svg>