<!-- by TradeStack --><svg width="56" height="56" viewBox="0 0 56 56" xmlns="http://www.w3.org/2000/svg"><path fill="#F0F3FA" d="M0 0h56v56H0z"/><path fill-rule="evenodd" d="M22 25v-6h4v1.43h-2.42v.83h2.2v1.43h-2.2v.85H26V25h-4Zm6-4h-1.5v4H28v-2.58a.77.77 0 0 1 .52-.24c.42 0 .46.38.48.56V25h1.5v-2.47c0-.82-.42-1.53-1.43-1.53-.54 0-.88.18-1.07.37V21Zm6.74 2.24h-2.69c0 .44.23.79.7.79.4 0 .52-.22.54-.33h1.4c-.08.43-.58 1.3-1.93 1.3-1.59 0-2-1.25-2-1.88-.05-.7.28-2.12 2-2.12s2.04 1.5 1.98 2.24Zm-1.32-.77H32.1c.02-.22.18-.66.67-.66.5 0 .64.44.65.66ZM36.5 21H35v4h1.5v-2.25c.27-.4.75-.45 1.03-.4-.07.22-.1.45-.1.7 0 1.09.67 1.95 2.02 1.95 1.36 0 2.02-.8 1.98-2.3H39.5v.83h.53a.57.57 0 0 1-.58.5c-.5 0-.72-.47-.72-1.02 0-.56.24-1 .72-1 .39 0 .6.29.65.43l1.12-.48c-.13-.32-.67-.96-1.77-.96-1.05 0-1.68.57-1.92 1.33V21c-.5 0-.83.16-1.03.35V21Zm6.25-.5a.75.75 0 1 0 0-1.5.75.75 0 0 0 0 1.5Zm.75 4.5v-4H42v4h1.5Zm2.08 0c.34 0 .66-.12.92-.34V25H48v-4h-1.5v.34a1.47 1.47 0 0 0-.92-.34c-.93 0-1.67.9-1.67 2s.74 2 1.67 2Zm.2-1.2c.4 0 .71-.36.71-.8 0-.44-.32-.8-.72-.8-.4 0-.72.36-.72.8 0 .44.33.8.72.8Z"/><path d="M9 33.96V39l17-14h-4l-4.96 2.43L9 33.95Z" fill="#5286C5"/><path d="m9 39 13-20v6l-9.12 14H9Z" fill="#EB5532"/><path d="M23.11 32a6.23 6.23 0 0 1-5.88 4A6.12 6.12 0 0 1 11 30c0-3.31 2.8-6 6.23-6 .5 0 .98.06 1.44.16l-.53.84a5.18 5.18 0 0 0-6.17 5c0 2.8 2.35 5.08 5.26 5.08A5.28 5.28 0 0 0 22.08 32h1.03Z" fill="#5286C5"/></svg>