<?xml version='1.0' encoding='utf-8'?>
<!-- by TradeStack -->
<svg width="56" height="56" viewBox="0 0 56 56" xmlns="http://www.w3.org/2000/svg"><path fill="#032A45" d="M0 0h56v56H0z" /><path fill-rule="evenodd" d="M9.76 28a12.5 12.5 0 0 0-.48 1.53L10.6 28h34.94l1.24 1.52c-.12-.53-.26-1.04-.4-1.52H51c-1.12-.1-2.75-.22-4.74-.34A16.7 16.7 0 0 0 42.23 21c-.19-.16-.08-.5 0-.66-.02-.06-.05-.18.09-.2.14-.02.27-.32.32-.46a7.5 7.5 0 0 0-.86-.92c-.49-.45-.5-.45-.5-.4-.01.03-.02.05-.04.06-.09.05-.15.25-.17.34l.56.92a8.54 8.54 0 0 0-.8-.78c-.24-.2-.58-.13-.72-.07a16.6 16.6 0 0 0-8.52-4.64c1.13.74 5.05 4.33 6.86 6.04l.1.82.77.83-1-.54-1.4 1.5-3.92-3.7-1.57 1.34-3.32-3.59-4.42 5.32-1.75-1.53-2.2 2.71a55.53 55.53 0 0 0-1.84-1.8c-.19-.14-.26-.16-.27-.15-.27.11-.84.34-.9.34-.02 0 .06-.06.18-.15.19-.14.49-.36.64-.55.2-.26.03-.67-.08-.84L24.7 14c-4 .79-7.29 3.7-8.34 4.63-.2.18-.33.29-.35.29h-.63l-.87.73.5-.65c.08-.14.21-.45.06-.58-.15-.13-.4-.01-.5.06-.24.23-.76.76-.97 1.03-.2.28.12.6.3.74v.84c-1.92 2-3.24 4.58-3.99 6.5-2.14.15-3.84.3-4.91.41h4.76Zm1.26-.48c2.55-.16 5.62-.32 8.98-.42l-3.82-4.6h-.8l-4.36 5.02Zm25.15-.35c3.32.11 6.43.27 9.04.42l-4.14-5.07h-.96l-3.94 4.65Zm-19.73-8.04.42.44 5.27-4.3c-1.27.67-4.18 2.4-5.7 3.86Zm23.55 0-.42.44-5.27-4.3c1.27.67 4.18 2.4 5.7 3.86Zm-16.13 4.44-1.73-1.67v.46l.2.72c.4.44 1.2 1.3 1.26 1.3h-.8l1.5 2.38 3.43-.15.88-1.58v-2.3l-1.87 2.18 1.45-3v-1.42l-1.06.9.8-1.52.1-1.58-4.16 5.28Zm12.44-.01-3.18-3.06v1.22l1.66 1.61-1.44-.84-.37 2.16.61 1.58 2.72-2.67ZM22.62 40l-1.22-1.3 2.71-2.72C15.46 35.88 7.91 35.3 5 35h20.1l.12-.13h5.82l.12.13H51c-3.25.28-10.85.78-18.92.94l2.67 2.77-1.3 1.29-3.82-4.02-2.69.02h-.28l-4.04 4Z" fill="url(#amqawcsrw)" /><path fill-rule="evenodd" d="M10 31H9v-.86c0-.08-.15-.14-.24-.14h-.54c-.09 0-.22.06-.22.14v2.73c0 .08.13.13.22.13h.54c.09 0 .24-.05.24-.13V32h1v1.13c0 .48-.46.87-1.02.87h-.96C7.46 34 7 33.6 7 33.13v-3.26c0-.48.46-.87 1.02-.87h.96c.56 0 1.02.4 1.02.87V31Zm.7 3h1.16l.18-1h.98l.18 1h1l-1.11-5h-1.23l-1.16 5Zm2.14-2-.3-1.73-.32 1.73h.62Zm13.04 2h-1.15l1.15-5h1.23l1.12 5h-1l-.18-1h-.99l-.18 1Zm.68-3.73.3 1.73h-.61l.31-1.73ZM15 33.2v-.93h1v.52c0 .12.21.22.35.22h.33c.14 0 .32-.1.32-.22v-.66l-1.68-.47c-.19-.05-.32-.2-.32-.38V29.8c0-.45.43-.81.96-.81h1.08c.53 0 .96.36.96.81v.9h-1v-.5c0-.12-.18-.21-.32-.21h-.33c-.14 0-.35.1-.35.2v.7l1.7.55c.18.07.3.21.3.38v1.36c0 .45-.43.81-.96.81h-1.08c-.53 0-.96-.36-.96-.81Zm4-.93v.93c0 .45.43.81.96.81h1.08c.53 0 .96-.36.96-.81v-1.36c0-.17-.12-.31-.3-.38L20 30.9v-.69c0-.1.21-.2.35-.2h.33c.14 0 .32.1.32.2v.5h1v-.89c0-.45-.43-.81-.96-.81h-1.08c-.53 0-.96.36-.96.81v1.46c0 .17.13.33.32.38l1.68.47v.66c0 .12-.18.22-.32.22h-.33c-.14 0-.35-.1-.35-.22v-.52h-1ZM23 29h1v5h-1v-5Zm6 5v-5h2.09c.5 0 .91.37.91.84v1.85c0 .36-.25.66-.6.77l.5 1.54h-1.06l-.36-1.5H30V34h-1Zm1.76-4H30v1.5h.76c.13 0 .24-.1.24-.2v-1.1c0-.1-.1-.2-.24-.2Zm4.24-.3c0-.39.32-.7.72-.7h1.56c.4 0 .72.31.72.7v.8h-1v-.2c0-.16-.15-.3-.34-.3h-.32c-.19 0-.34.14-.34.3v2.4c0 .16.15.3.34.3h.32c.19 0 .34-.14.34-.3v-.2h-.5v-1H38v1.8a.7.7 0 0 1-.72.7h-1.56a.7.7 0 0 1-.72-.7v-3.6Zm4 0c0-.39.32-.7.72-.7h1.56c.4 0 .72.31.72.7v3.6a.7.7 0 0 1-.72.7h-1.56a.7.7 0 0 1-.72-.7v-3.6Zm1 .6c0-.16.15-.3.34-.3h.32c.19 0 .34.14.34.3v2.4c0 .16-.15.3-.34.3h-.32c-.19 0-.34-.14-.34-.3v-2.4Zm9.24-1.3H47v5h2.24c.42 0 .76-.31.76-.7v-3.6c0-.39-.34-.7-.76-.7Zm-.9 1c-.19 0-.34.14-.34.3v2.4c0 .16.15.3.34.3h.32c.19 0 .34-.14.34-.3v-2.4c0-.16-.15-.3-.34-.3h-.32ZM44 29h-1v5h3v-1h-2v-4Z" fill="#fff" /><defs><linearGradient id="amqawcsrw" x1="6.37" y1="28.62" x2="44.62" y2="28.62" gradientUnits="userSpaceOnUse"><stop stop-color="#C29163" /><stop offset=".41" stop-color="#F9C07F" /><stop offset="1" stop-color="#B9875A" /></linearGradient></defs></svg>