<!-- by TradeStack --><svg width="56" height="56" viewBox="0 0 56 56" xmlns="http://www.w3.org/2000/svg"><path fill="#F0F3FA" d="M0 0h56v56H0z"/><path d="M11.75 30.59c-.45.33-1.18.43-1.75.41-1.64 0-3-1.1-3-3s1.35-3 3-3c.54-.02 1.23.06 1.67.35l1.22-1.57A4.69 4.69 0 0 0 10 23c-3.15 0-5 2-5 5 0 3.08 1.94 5 5 5 1.96 0 2.65-.63 3-.86l-1.25-1.55ZM34.78 30.57c-.46.34-1.2.44-1.78.43-1.64 0-3-1.12-3-3 0-1.92 1.36-3 3-3 .54-.02 1.23.06 1.67.35l1.22-1.57A4.7 4.7 0 0 0 33 23c-3.14 0-5 2-5 5 0 3.08 1.88 5 4.94 5 1.95 0 2.71-.63 3.06-.86l-1.22-1.57ZM22 23c2.5 0 3.5 1 3.5 2.5 0 1-.67 1.7-1.5 2 .97.25 2 .91 2 2.5 0 1.5-.5 3-4 3h-3V23h3Zm0 6h-1v2h1c1.1 0 2-.13 2-1 0-.92-.87-1-2-1Zm0-4h-1v1.98l1 .02c.96 0 1.5-.2 1.5-1 0-.54-.27-1-1.5-1ZM15 33h2V23h-2v10ZM47.82 22.46c-.22-.3-.59-.47-.97-.46H42.8c.39-.01.76.16.98.47L47.95 28l-4.17 5.53c-.22.3-.6.48-.98.47h4.05c.38.01.74-.16.97-.46L52 28l-4.18-5.54Z" fill="#C41F3E"/><path d="m44.82 23.85-1.04-1.38c-.22-.3-.6-.48-.98-.47-.38-.01-.75.16-.98.46L37.64 28l4.18 5.54c.23.3.6.47.98.46.39.01.76-.16.98-.47l1.04-1.38L41.7 28l3.13-4.15Z" fill="#8B1D41"/></svg>