<?xml version='1.0' encoding='utf-8'?>
<!-- by TradeStack -->
<svg width="56" height="56" viewBox="0 0 56 56" xmlns="http://www.w3.org/2000/svg"><path fill="#F0F3FA" d="M0 0h56v56H0z" /><path d="M28.05 19.94a2.5 2.5 0 0 0-.59-.69c-.02-.02-.03-.04 0-.07l.03-.04c.04-.06.08-.06.13-.02.17.15.41.4.71.72a5.88 5.88 0 0 0 1.46 1.23c1.31.68 2.57 1.3 3.78 1.89.08.04.15.03.23 0l.19-.11a.42.42 0 0 1 .23-.06c.35.02.53.2.54.57 0 .11.06.19.16.23l4.93 1.95c.37.14.46.04.27-.31a26.41 26.41 0 0 0-4.46-5.8c-.02-.02-.02-.04 0-.06l.02-.05c.05-.09.1-.1.17-.03 2.2 2.16 3.72 4.2 4.58 6.16.1.22.26.36.48.43l2.77.83c.19.06.36.03.5-.1.14-.1.28-.12.43-.06.16.05.25.16.3.32.05.24-.03.43-.24.59-.17.13-.34.11-.5-.03a5.86 5.86 0 0 1-.13-.14c-.21-.22-.4-.35-.57-.4a27 27 0 0 1-2.3-.71c-.26-.1-.33-.02-.2.24a16.2 16.2 0 0 0 2.95 4.08c.03.03.02.05-.01.07l-.06.04c-.06.04-.12.03-.17-.02a12.8 12.8 0 0 1-3-4.3.87.87 0 0 0-.69-.53 3.13 3.13 0 0 1-.4-.1 60.06 60.06 0 0 1-4.72-1.85.59.59 0 0 0-.3-.05.77.77 0 0 1-.78-.35.22.22 0 0 0-.09-.08l-4.02-2.02c-.17-.09-.2-.05-.09.1l1.4 2.02a49.59 49.59 0 0 0 4.66 5.45c.13.15.3.23.49.24 1.03.08 1.99.2 2.89.37 2.67.5 4.88 1.8 6.64 3.93.04.05.04.1-.01.14l-.06.06c-.04.04-.08.03-.12-.01-2.14-2.6-5.15-3.99-9.03-4.18-.18 0-.21.06-.08.19a24.6 24.6 0 0 0 6.03 4.61c.8.42 1.65.76 2.54 1.02.06.02.07.05.05.1l-.04.09c-.04.08-.1.1-.19.08a19.37 19.37 0 0 1-6.61-3.9 88.7 88.7 0 0 1-2.39-2.2.5.5 0 0 0-.32-.14 7.05 7.05 0 0 0-1.38.02 1.2 1.2 0 0 1-.64-.14 1.67 1.67 0 0 0-.45-.15c-1.12-.14-2.23-.4-3.35-.78-.04-.02-.08 0-.1.03-.03.04-.02.07 0 .1a61.5 61.5 0 0 0 3.61 3.75c.23.22.45.33.66.32.4-.02.8 0 1.17.07 2.94.47 6.3 1.74 10.08 3.83.06.04.12.04.2.03a.3.3 0 0 0 .14-.1c.06-.07.13-.09.22-.06.11.05.2.12.26.22.08.12.1.24.08.38-.05.25-.15.4-.32.45-.26.08-.43-.01-.51-.27l-.08-.23a.4.4 0 0 0-.2-.25 30.33 30.33 0 0 0-10.33-3.77c-.2-.03-.4-.04-.61-.03a.06.06 0 0 0-.06.05c0 .02 0 .05.02.07a20.14 20.14 0 0 0 9.36 5c1.14.28 2.1.65 2.86 1.14a.4.4 0 0 0 .18.05l.37.02c.26.01.39.15.38.41 0 .29-.14.47-.4.54a.37.37 0 0 1-.32-.04.38.38 0 0 1-.18-.25c-.11-.57-.72-1-1.83-1.3a60.81 60.81 0 0 1-3.92-1.18c-2.07-.7-4.36-2.16-6.86-4.37a1.3 1.3 0 0 0-.72-.3 16.98 16.98 0 0 1-4.98-1.39 1.41 1.41 0 0 0-.73-.03h-.1a.28.28 0 0 1-.27-.11 1.65 1.65 0 0 0-.56-.54l-.93-.45c-.7-.34-1.23-.61-1.57-.82a26.11 26.11 0 0 1-5.14-4.1c-.15-.16-.4-.27-.76-.34l-.12-.03c-.14-.03-.21-.11-.23-.25l-.04-.48c0-.11-.05-.2-.12-.29a49.5 49.5 0 0 1-3.35-4.05.05.05 0 0 1 0-.07l.04-.04c.06-.08.12-.08.18 0a63.65 63.65 0 0 0 3.23 3.88c.18.2.4.37.63.5.15.09.29.25.41.5.09.17.17.3.24.37a23.31 23.31 0 0 0 7.8 5.52c.07.03.15.03.22 0 .13-.05.26-.08.39-.09.13 0 .23.06.3.17.2.28.46.48.77.61 1.38.55 2.89.98 4.52 1.3.1.01.15-.03.12-.14a.44.44 0 0 0-.12-.2 65.68 65.68 0 0 1-3.6-3.84.88.88 0 0 0-.38-.26c-3.43-1.21-6.06-2.62-7.88-4.2a30.5 30.5 0 0 1-4.24-4.53c-.04-.07-.03-.1.05-.1h.17l.04.01a35.89 35.89 0 0 0 4.03 4.31c.76.7 1.52 1.25 2.28 1.68 1.52.87 3.21 1.67 5.06 2.4.25.1.3.04.13-.17L26.49 25c-.2-.27-.48-.43-.82-.49a.2.2 0 0 1-.18-.16 1.43 1.43 0 0 1-.02-.58.32.32 0 0 0-.06-.25c-.56-.79-1.1-1.57-1.6-2.36-.16-.23-.35-.35-.6-.35a.41.41 0 0 1-.36-.2.42.42 0 0 1-.03-.42c.14-.33.02-.67-.37-1.02-.05-.04-.04-.07 0-.1l.1-.06c.05-.04.1-.03.15.03l.46.62a.6.6 0 0 0 .25.2c.26.14.38.35.36.65 0 .12.03.23.1.32l1.77 2.57c.06.09.15.15.25.2.34.1.5.34.5.7 0 .1.03.2.1.28.72.94 1.44 1.87 2.18 2.79.23.3.56.5.97.62 1.2.34 2.39.6 3.55.8.1 0 .17-.02.22-.1l.14-.18a.38.38 0 0 1 .2-.14c.3-.1.51.01.62.33.03.1.1.17.2.2.22.08.45.1.67.1.15 0 .17-.07.07-.17a42.13 42.13 0 0 1-6.14-7.58c-.19-.28-.42-.5-.71-.67a38.9 38.9 0 0 1-2.2-1.4c-.14-.1-.12-.13.05-.1.27.07.65.26 1.14.59.23.15.4.27.53.33.12.07.14.04.07-.07Z" fill="#4C5681" /><path d="M17.77 19.16c-.08-.1-.05-.16.09-.16h3.43c.18 0 .32.08.42.24a91.66 91.66 0 0 0 4.27 6.15c.14.18.1.22-.1.14a13.9 13.9 0 0 1-2.36-1.24 22.54 22.54 0 0 1-5.75-5.13Zm.43 3.07a29.37 29.37 0 0 0 5.05 3.9 25.19 25.19 0 0 0 4.68 2.03c.17.07.32.16.45.3l2.48 2.67c.2.2.15.26-.11.18a27.52 27.52 0 0 1-8.73-4.39 29.97 29.97 0 0 1-3.75-3.46c-.88-.96-2-2.3-3.35-4.02-.1-.13-.08-.21.08-.26l.35-.1c.17-.04.3 0 .4.16a20.3 20.3 0 0 0 2.44 2.99Zm10.34-.67c.78 1.05 1.58 2.1 2.4 3.15.3.39.77.95 1.42 1.68.54.62.94 1.08 1.2 1.4.14.17.1.23-.1.2-1.3-.2-2.63-.55-3.98-1.07a1.1 1.1 0 0 1-.5-.38 82.84 82.84 0 0 1-5.3-7.43c-.05-.07-.03-.11.06-.11h1.49a.5.5 0 0 1 .3.14c.22.18.57.43 1.05.76a8.4 8.4 0 0 1 1.96 1.66Zm10.2 2.49a52.5 52.5 0 0 1-9.5-4.35 2.2 2.2 0 0 1-.65-.6c-.05-.07-.03-.1.04-.1h5.93c.23 0 .42.18.57.34a30.9 30.9 0 0 1 3.73 4.57c.1.15.06.2-.12.14Zm-1.21-4.29a8.17 8.17 0 0 1-.13-.14c-.17-.22-.13-.3.14-.23a6.1 6.1 0 0 1 3.26 2 5.36 5.36 0 0 1 1.38 3.59c0 .1-.04.14-.14.14-.3 0-.52-.05-.68-.14-.17-.1-.33-.27-.47-.54a20.75 20.75 0 0 0-3.36-4.68Z" fill="#9A3334" /><path d="M35.97 36H18c-3.18-.1-7.1-2.68-7-6.27v-5.36a5.5 5.5 0 0 1 2.14-4.25c.07-.06.14-.05.2.03l.74.91c2 2.5 3.57 4.28 4.69 5.32a28.5 28.5 0 0 0 11.26 6.42c.96.3 1.94.48 2.94.57.16.01.3.07.4.17.93.82 1.91 1.58 2.96 2.26.06.04.06.09 0 .14a.12.12 0 0 1-.1.02c-.09-.03-.17.04-.26.04Zm-3.94-12.49a.5.5 0 0 1-.1-.18c-.06-.19 0-.24.17-.15a57.38 57.38 0 0 0 7.6 3.02.8.8 0 0 1 .49.42c.41.82.86 1.66 1.33 2.5.09.15.05.2-.13.15a17.62 17.62 0 0 0-4.6-.9.94.94 0 0 1-.67-.32 354.81 354.81 0 0 1-4.1-4.54Zm6.17 8.81c.04.04.03.06-.03.05a8.78 8.78 0 0 1-1.1-.23 14 14 0 0 0-3-.43.61.61 0 0 1-.43-.2l-2.04-2.05c-.03-.03-.03-.06-.02-.09a.1.1 0 0 1 .08-.04c1.19.25 2.36.42 3.52.51.25.02.47.12.66.3l2.36 2.18Zm3.82-.65-.14.85a.17.17 0 0 1-.1.14.17.17 0 0 1-.18-.01 31.37 31.37 0 0 1-2.93-2.19c-.18-.15-.16-.2.07-.16 1.03.19 2.06.52 3.09 1 .16.08.22.2.2.37Z" fill="#9A3334" /><path d="M36.5 33.7c1.28.32 2.47.68 3.57 1.08.3.11.31.26.04.43l-.25.16a.69.69 0 0 1-.7.04c-.98-.45-1.89-.98-2.73-1.59-.2-.14-.18-.19.06-.13Z" fill="#7E0A07" /></svg>