<!-- by TradeStack --><svg viewBox="0 0 56 56" xmlns="http://www.w3.org/2000/svg"><path fill="#014A3F" d="M0 0h56v56H0z"/><path d="M9.5 33c2.16 0 3.5-1.67 3.48-3.28-.32.86-.72 1.61-1.98 1.61-2 0-3-1.32-3-3.33 0-1.73.5-4.44 2-4.44h1c-.5 0-1 .82-1 1.44 0 .77.67 1.5 1.5 1.5s1.48-.57 1.48-1.5c0-1.4-.9-2-2.98-2-2.6 0-5 1.79-5 4.98C5 30.83 6.66 33 9.5 33Z" fill="#E48F92"/><path d="M18.64 37c3.43 0 5.36-1 5.36-3 0-1.57-1.66-3-3.93-3h-2.1c-.86 0-1.22-.06-1.22-.56 0-.3.14-.37.49-.58.43.09.89.14 1.4.14 2.41 0 4.36-1.37 4.36-3.37 0-1-.35-1.9-1-2.41v-.54c.25.3.58.32 1 .32.42 0 1-.32 1-.85 0-.74-.53-1.15-1.24-1.15-1.09 0-1.45.36-1.58 1.68-.46-.49-1.46-.68-2.68-.68-2.42 0-4.5 1.63-4.5 3.63 0 1.36 1.3 2.52 2.5 3v.08c-1.03.24-1.86.58-1.86 1.68 0 .96.5 1.93 1.36 2.11-1.15.18-2 .6-2 1.5 0 1.28 1.05 2 4.64 2Zm-.14-8c-.93 0-1.5-1.23-1.5-2.37v-.43c0-1.14.57-2.2 1.5-2.2s1.5 1.06 1.5 2.2v.43c0 1.14-.57 2.37-1.5 2.37ZM16 35c0-.52.5-1 .9-1H20c1.04 0 1.45-.2 1.45.6 0 .83-.7 1.4-2.09 1.4H18.2c-1.36 0-2.2-.24-2.2-1Z" fill="#E38F96"/><path d="M27.85 33c1.6 0 2.3-.86 2.63-1.66 0 .91.47 1.66 1.76 1.66.67 0 1.35-.15 1.76-.38V32h-1v-5.75C33 24.2 31.75 23 29.2 23c-2.56 0-3.9 1.17-3.9 2.35 0 .79.53 1.35 1.23 1.35.88 0 1.34-.56 1.34-1.3 0-.52-.28-.83-.51-.96v-.09c.26-.13.65-.35 1.14-.35 1.32 0 1.5.92 1.5 2.4v.6h-.97C26.37 27 25 28.4 25 30.26c0 1.72.86 2.74 2.85 2.74ZM29 31.5c-.72 0-1-.5-1-1.28 0-1.5.88-2.22 2-2.22v1.97c0 1.02-.14 1.53-1 1.53ZM35 33h5v-1h-1v-5.66c0-1 .67-1.34 1.5-1.34.5 0 1 .4 1 1.71V32h-1v1h5v-1h-1v-5.66c0-1 .7-1.34 1.5-1.34s1 .78 1 1.71V32h-1v1h5v-1h-1v-5.4c0-2.4-.87-3.6-3.07-3.6-1.48 0-2.54.7-2.93 1.67-.33-1.22-1.09-1.67-2.67-1.67-1.47 0-2.22.86-2.56 1.85H39V23l-4 .8v1.07l1 .13v7h-1v1Z" fill="#FEFCF8"/></svg>