<!-- by TradeStack --><svg width="56" height="56" viewBox="0 0 56 56" xmlns="http://www.w3.org/2000/svg"><path fill="#B5E345" d="M0 0h56v56H0z"/><path d="M26.57 47h.99L28 34.46 28.44 47h1.06l2.74-2.35L34 35.37 28 27l-6 8.37 1.76 9.28 2.8 2.35Z" fill="url(#aha0dzuzv)"/><path d="M29.72 20.68c0-4.92-3.8-10.5-5.7-12.68.34.43.98 2.74.98 8.53 0 7.24-7 9.4-7 17.26 0 6.28 5.81 11.55 8.53 13.21-.97-1.16-2.9-4.26-2.9-7.35 0-5.42 6.1-12.83 6.1-18.97Z" fill="#66871F"/><path d="M26.28 20.68c0-4.92 3.8-10.5 5.7-12.68-.34.43-.98 2.74-.98 8.53 0 7.24 7 9.4 7 17.26 0 6.28-5.81 11.55-8.53 13.21.97-1.16 2.9-4.26 2.9-7.35 0-5.42-6.1-12.83-6.1-18.97Z" fill="#66871F"/><path d="M28 14.15a15.73 15.73 0 0 1 1.72 6.53c0 2.16-.75 4.47-1.72 6.8-.97-2.33-1.72-4.64-1.72-6.8S27 16.23 28 14.15Z" fill="#364B11"/><path d="M27.97 27.54v-5.35C24.03 28.71 23 33.66 23 39.9c0 3.31 1.3 5.2 2.83 6.16a12.4 12.4 0 0 1-1.83-6.4c0-2.63 1.06-5.71 2.54-8.9.49-1.07.98-2.14 1.43-3.21ZM28 27.54v-5.35c3.93 6.52 5 11.47 5 17.7 0 3.31-1.34 5.2-2.87 6.16.98-1.5 1.87-4.1 1.87-6.55 0-2.62-1.1-5.56-2.57-8.75-.5-1.07-.99-2.14-1.44-3.21Z" fill="#5B5C1E"/><defs><linearGradient id="aha0dzuzv" x1="28" y1="27" x2="28" y2="47" gradientUnits="userSpaceOnUse"><stop stop-color="#CCB166"/><stop offset="1" stop-color="#F6F3E2"/></linearGradient></defs></svg>