<!-- by TradeStack --><svg width="56" height="56" viewBox="0 0 56 56" xmlns="http://www.w3.org/2000/svg"><path fill="#F0F3FA" d="M0 0h56v56H0z"/><path fill-rule="evenodd" d="M27 22v19.55c0 .4-.39.6-.67.31l-18.2-19.1a.45.45 0 0 1 .32-.76H27Zm2 0v19.55c0 .4.39.6.67.31l18.2-19.1a.45.45 0 0 0-.32-.76H29Zm-4 6v2.34c-.66 1.19-1.98 1.66-3.28 1.66-2.7-.02-4.72-1.73-4.72-4.5 0-2.79 2.06-4.5 4.76-4.5 1 0 2.04.18 2.91.68l.02 2.11h-.11c-.34-1.32-1.27-2.27-2.7-2.27-2.14 0-2.88 2.11-2.88 3.97 0 1.78.62 3.93 2.72 4 2.02 0 2.9-1.67 3.19-3.49H25Zm14 0v2.34c-.66 1.19-1.98 1.66-3.28 1.66-2.7-.02-4.72-1.73-4.72-4.5 0-2.79 2.06-4.5 4.76-4.5 1 0 2.04.18 2.91.68l.02 2.11h-.11c-.34-1.32-1.27-2.27-2.7-2.27-2.14 0-2.88 2.11-2.88 3.97 0 1.78.62 3.93 2.72 4 2.02 0 2.9-1.67 3.19-3.49H39Z" fill="#084975"/></svg>