<!-- by TradeStack --><svg width="56" height="56" viewBox="0 0 56 56" xmlns="http://www.w3.org/2000/svg"><path fill="#F0F3FA" d="M0 0h56v56H0z"/><path d="M20.34 16.76c0-.46.8-.7 1.19-.76 1.59 0 2.19 1.14 1.99 1.52-.2.38-.8.57-1.99.38-1.2-.19-1.2-.57-1.2-1.14ZM14.58 23.99c0-1.37 2.78-2.22 4.17-2.48 1-.23 1.99.39 2.18 1.53.2 1.14-1.19 1.7-2.18 2.09-1 .38-4.17.57-4.17-1.14ZM12.79 28.36c.48-.76 1.59-.76 2.18-.76 2.19 0 2.39 1.52 2.39 2.1 0 .56-1.4.75-1.79 1.32-.35.5-.6 1.9-1.99 2.1-1.39.19-2.58-.39-2.58-1.34 0-.95 1.2-2.47 1.79-3.42ZM28.68 18.66c0-.76 1.33-1.2 1.99-1.33 2.38-.19 4.37.95 4.17 1.71-.2.76-1.79 1.14-3.18.95-1.39-.19-2.98-.38-2.98-1.33ZM23.52 25.13c0-1.37 2.25-1.97 3.37-2.1 3.98 0 5.17 1.72 5.17 2.67s-2.38 1.9-3.77 1.9c-1.4 0-4.77-.76-4.77-2.47ZM19.94 31.6c1.27-1.83 2.65-2.16 3.18-2.1 2.18 0 2.78.95 3.58 1.71.8.76-.4 2.29-1.2 2.86-.8.57-.4 1.9-.99 2.28-.6.38-1.4-.2-2.19-.38-.79-.2-2.38 0-3.57-.38-1.2-.38-.4-1.71 1.2-4Z" fill="#003B69"/><path d="M38.62 21.51c-1.12-.6-.2-1.64.4-2.09 1.19-.95 1.38.57 2.97.38 1.6-.19 2.79.38 2.98 1.33.2.96-.79 1.53-1.98 1.72-1.2.19-2.98-.57-4.37-1.34ZM33.85 27.6c0-1.67 1.99-2.47 2.98-2.66 1.79-.2 3.18.57 3.97.95.8.38.8 1.71.8 2.66 0 .95-1.2 1.71-2.19 1.33a8.1 8.1 0 0 0-2.78-.57c-.8 0-2.78.38-2.78-1.71ZM36.63 32.66c-.64-.51-1.99-.5-2.98-.5-2.58 0-3.58.96-3.97 1.53-.4.57-2.39 3.6 1.39 5.13 3.77 1.52 4.77 1.33 5.36.76.5-.48.6-1.9.8-3.04.2-1.14.2-3.23-.6-3.88Z" fill="#69A1C0"/></svg>