<!-- by TradeStack --><svg width="56" height="56" viewBox="0 0 56 56" fill="none" xmlns="http://www.w3.org/2000/svg">
<rect width="56" height="56" fill="#F0F3FA"/>
<path d="M17.897 25.6163H15.7964C15.4832 23.8976 13.8835 23 12.2212 23C9.47352 23 8 25.4666 8 27.9977C8 30.5287 9.46376 33 12.2145 33C13.8883 33 15.4654 32.1053 15.7964 30.4189L17.897 30.4256C17.7848 31.0952 17.5671 31.7116 17.2439 32.2748C16.9253 32.8335 16.5145 33.3169 16.0118 33.7249C15.5136 34.1284 14.9435 34.441 14.3017 34.6628C13.6598 34.8845 12.9596 34.9954 12.201 34.9954C11.007 34.9954 9.94324 34.716 9.00961 34.1572C8.07598 33.594 7.33985 32.7892 6.80122 31.7426C6.26707 30.6961 6 29.4478 6 27.9977C6 26.5432 6.26932 25.2948 6.80795 24.2527C7.34658 23.2062 8.08271 22.4035 9.01634 21.8448C9.94997 21.2816 11.0115 21 12.201 21C12.9326 21 13.6149 21.1042 14.2478 21.3126C14.8852 21.5166 15.4575 21.8182 15.9647 22.2173C16.4719 22.6119 16.8916 23.0953 17.2237 23.6674C17.5559 24.235 17.7803 24.8846 17.897 25.6163Z" fill="black"/>
<path d="M20 35V21H22V27H29.003V21H31V35H29.003V29H22V35H20Z" fill="black"/>
<path d="M40 21H42V30.8446C42 33.2611 40.0758 34.9954 37.6968 34.9954C35.3131 34.9954 33.6099 33.468 33.6099 31H35.6769C35.6769 32.312 36.4152 33.2526 37.7507 33.2526C39.0357 33.2526 40 32.126 40 30.8446V21Z" fill="black"/>
<path d="M47 21V35H45V21H47Z" fill="black"/>
</svg>
