<?xml version='1.0' encoding='utf-8'?>
<!-- by TradeStack -->
<svg width="56" height="56" viewBox="0 0 56 56" xmlns="http://www.w3.org/2000/svg"><path fill="#F0F3FA" d="M0 0h56v56H0z" /><path d="M11 23h5v-6h6v-6h12v6h6v6h5v11h-5v6h-6v5H22v-5h-6v-6h-5V23Zm17 10a5 5 0 1 0 0-10 5 5 0 0 0 0 10Z" fill="#E1BE04" /><path fill-rule="evenodd" d="M17 24h-5v9h5v6h6v5h10v-5h6v-6h5v-9h-5v-6h-6v-6H23v6h-6v6Zm5-13h12v6h6v6h5v11h-5v6h-6v5H22v-5h-6v-6h-5V23h5v-6h6v-6Zm12 17a6 6 0 1 1-12 0 6 6 0 0 1 12 0Zm-1 0a5 5 0 1 1-10 0 5 5 0 0 1 10 0Z" fill="#1A0A15" /></svg>