<?xml version='1.0' encoding='utf-8'?>
<!-- by TradeStack -->
<svg width="56" height="56" viewBox="0 0 56 56" xmlns="http://www.w3.org/2000/svg"><path fill="#F0F3FA" d="M0 0h56v56H0z" /><path d="m25 22.7-1.96-.07a8.94 8.94 0 0 0-3.67.6c-.37.15-.88-.06-1.24-.19-.4-.14-1.5-.15-2.04.11-.09.05-.13.09-.13.12 0 .04.03.07.07.1a.3.3 0 0 0 .13.06l1.2.22c.13.02.13.05 0 .09l-.25.06a.15.15 0 0 0-.1.19c0 .02.02.04.04.06.52.49 1.1.5 1.83.38a12.9 12.9 0 0 1 5.26-.03c.17.05.17.1 0 .16-.57.24-1.07.62-1.46 1.15a18.7 18.7 0 0 1-1.26 1.52c-.53.57-1 1.93-.3 2.58.17.14.54.45 1.14.92.36.28.67.38 1.1.43 1.17.13 2.25.7 3.15 1.45l.42.34c.03.03.07.04.12.03.13-.03.27-.1.41-.19a.1.1 0 0 1 .1-.01l.21.07c.04.02.05.04.02.08l-1.08 1.26c-.9-.34-1.8-.68-2.68-1.03-.3-.12-.59-.2-.86-.22a.32.32 0 0 0-.32.44c.07.2.34.52.7.99a.31.31 0 0 1-.05.42c-.16.13-.3.32-.42.57l-.8-.76c-.01-.01-.02-.02-.03-.01h-.04a.03.03 0 0 0-.03.04v.02c.35.6.65 1.02.9 1.28a8.91 8.91 0 0 0 3.78 2.25c-.75-.11-1.47-.27-2.18-.48-.2-.06-.21-.04-.04.07 2.17 1.32 4.76 1.83 7.33 2.16 2.77.35 5.55.08 8.22-.75a6.79 6.79 0 0 0 1.6-.74.98.98 0 0 0 .42-.33.16.16 0 0 0-.06-.25c-.38-.17-.77-.3-1.18-.39-1.19-.27-2.35-.5-3.48-.7a1.8 1.8 0 0 0-.7-.6c-.19-.09-.31-.16-.38-.23a5.51 5.51 0 0 1-1.02-1.91l-.7-1.84c.2.06.39.12.56.2.85.33 1.81.27 2.65.68.69.33 1.44.62 2.25.86.3.08.82.16 1.56.23.47.04 3.5.24 2.97 1.06a.21.21 0 0 1-.14.1c-.22.05-.4.05-.57 0a8.05 8.05 0 0 0-1.78-.31c-.17 0-.3 0-.4.03-.06.02-.06.04-.01.07.23.11.4.19.52.22.78.23 1.55.5 2.28.84.5.23 1.2.66 1.12 1.29-.13 1.1-.95 1.48-1.64 2.2-.37.4-.72.9-1.44 1.03-.42.08-.91.11-1.47.1-.1 0-.2.01-.3.04a.15.15 0 0 0-.1.09.14.14 0 0 0 .02.13c.22.33.77.43 1.12.4.58-.06 1.16-.2 1.51-.02.29.15.27.57.05.75-.08.05-.21.1-.4.1-.43.04-.78.06-1.2.23-.6.23-1.28.32-2.04.28l-1.97-.12c-1.02-.05-2.07 0-3.12.18a9.57 9.57 0 0 1-2.65.13 4.92 4.92 0 0 1-1.69-.55 1.02 1.02 0 0 0-.38-.06c-.67-.01-1.38.3-1.95.01a.14.14 0 0 1-.04-.22c.35-.36 1.41-.19 1.88-.22.65-.05 1.2-.14 1.67-.28.6-.18 1.04-.16 1.74-.2.26 0 .48-.05.66-.13.26-.12.26-.22-.02-.3a3.3 3.3 0 0 0-1.41-.06c-.69.1-2.5.45-3.78.48-.33.01-1.12-.03-2.37-.12-.43-.04-1.3 0-2.59.08-1.54.1-3.54 0-4.84-.96a5.06 5.06 0 0 0-.68-.46 5.1 5.1 0 0 0-.75-.28c-.32-.1-.58-.27-.45-.62a.1.1 0 0 1 .1-.07c.14-.02.29.01.43.1 1.06.64 2.2.94 3.45.9.49-.01.78 0 1.12-.16a.15.15 0 0 0 .02-.25c-.15-.1-.32-.18-.52-.22-1.63-.37-2.84-.62-4.21-1.08a8.3 8.3 0 0 1-1.27-.6l-1.2-.66c-.43-.25-.78-.57-.74-1.05.06-.72.69-1.02-.02-1.7-.57-.54-1.69-1.35-2.36-2.2a.94.94 0 0 1-.22-.83c.06-.24.35-.5.48-.66a.22.22 0 0 0 .06-.11c.13-.91-.15-1.9-.35-2.9-.17-.78-.17-1.4-.24-2.12a6.58 6.58 0 0 0-.43-1.76c-.33-.89-.77-1.97.12-2.68.34-.27.52-.35.74-.64.14-.17.3-.56.47-1.16.04-.15.22-.36.54-.63a176 176 0 0 0 2.95-2.59 8.14 8.14 0 0 1 3.55-1.87 8.44 8.44 0 0 0 2.86-1.05c1.07-.7 2.03-1.23 3.34-1.07a.19.19 0 0 1 .1.33c-.17.15-.4.21-.65.24-.6.08-1.57.56-1.65 1.26a.1.1 0 0 0 .09.11c.5.06.85-.42 1.17-.65.58-.42 1.57-.24 2.27-.03.16.04.3.11.41.22a.08.08 0 0 1 .03.07.08.08 0 0 1-.04.06c-.44.22-.97.48-1.17.89a.17.17 0 0 0 .12.24c.34.07.81-.24 1.1-.4a3.2 3.2 0 0 1 2.63.02c.43.2.71.36 1.23.38.14 0 .3.1.49.3a30.12 30.12 0 0 1 .6.64h.07a.12.12 0 0 0 .09-.08c.17-.48-.1-.98-.45-1.33a.2.2 0 0 1 .11-.36c.23-.03.36.1.58.25a4 4 0 0 1 1.5 2.01c.03.13.16.23.38.32.22.1.44.08.65.24.55.41.94.91 1.17 1.5a.1.1 0 0 0 .09.07 2.73 2.73 0 0 1 .91.16l.03-.01a.07.07 0 0 0 .04-.05c.15-.62.04-1.14-.34-1.54-.06-.07-.05-.1.04-.08 1.13.19 1.69.85 1.68 2 0 .05.02.08.06.1.96.36 1.77 1.42 1.57 2.5-.01.08.01.13.08.16.67.3 1 .8 1.01 1.48.01.46-.15.84-.47 1.11-.05.05-.08.04-.07-.03.07-1.02-.39-1.74-1.36-2.13-.04-.02-.06-.05-.05-.1.08-.65-.14-1.19-.66-1.6-.47-.39-1-.52-1.59-.41-.08.01-.08.04 0 .06 1.12.38 1.54 1.18 1.26 2.42 0 .05 0 .08.05.1 1 .5 1.6 1.72 1.09 2.8-.05.12-.1.11-.11-.01-.17-.91-.72-1.39-1.66-1.42-.05 0-.07-.03-.08-.07-.13-.87-.93-1.32-1.77-1.3-.05 0-.06-.02-.05-.07.3-1.33-.6-2.34-1.95-2.31-.05 0-.07-.02-.09-.06-.2-.56-.58-.78-1.18-.66-.04.01-.07 0-.1-.04-.31-.5-.78-.64-1.4-.42a.05.05 0 0 0-.03.04v.04c.23.3.28.63.16 1.02a.05.05 0 0 1-.1.01c-.53-.76-1.16-1.16-1.9-1.2-.23-.02-.25-.08-.03-.18.3-.15.64-.2 1-.16.06 0 .07-.01.06-.06-.13-.57-.75-.95-1.3-1.06-2.69-.51-5.21 1.29-6.1 3.73-.1.26-.07.27.08.04.51-.82 1.52-2 2.48-2.4.07-.04.08-.02.02.03a3.62 3.62 0 0 0-.9 3.94Zm-2.73-7.5c-1.9 1.24-2.24 3.39-2.02 5.48.02.21.05.22.07 0a11.7 11.7 0 0 1 1.99-5.44c.06-.09.05-.1-.04-.04Zm-.23 3.72a12.43 12.43 0 0 1 3.5-3.36v-.03l-.02-.01h-.02a4.87 4.87 0 0 0-3.57 3.43c-.02.1 0 .1.06.04l.05-.07Zm-3-.8a5.3 5.3 0 0 0 .25 2.84c.05.15.07.15.07-.01a11.23 11.23 0 0 1 1.05-5.31c.07-.15.05-.16-.05-.04a5.3 5.3 0 0 0-1.31 2.53Zm4.17-1.93a.46.46 0 0 0-.47-.46.47.47 0 0 0-.46.46.46.46 0 0 0 .64.43.47.47 0 0 0 .29-.43Zm-5.37 2.41c-.08.84.07 1.67.46 2.5.06.14.08.13.06-.01a10.01 10.01 0 0 1 .48-4.82c.05-.14.03-.15-.05-.03a4.74 4.74 0 0 0-.95 2.36Zm4.66 1.52c1.1-2.05 3.68-3.37 5.87-3.78.2-.04.2-.07 0-.1a5.16 5.16 0 0 0-4.6 1.68 6 6 0 0 0-1.3 2.2c.01.02.02.01.03 0Zm-4.57 11.36a18.82 18.82 0 0 1-2.45-5.33 9.6 9.6 0 0 1-.36-1.93c-.02-.37-.07-.37-.13 0-.36 2.16-.16 4.31.6 6.43.05.14.04.15-.03.02a11.8 11.8 0 0 1-1.61-5.79 10.6 10.6 0 0 1 2.32-7.05c.2-.26.18-.28-.07-.08-2.68 2.22-3.14 6.34-2.64 9.6.17 1.11.55 2.2 1.15 3.26 1.3 2.31 3 4.3 5.11 5.94a10.13 10.13 0 0 0 2.5 1.43c-3.13-2.02-5.88-5.39-6.63-9.1-.1-.54-.06-.56.15-.04 1.09 2.67 2.94 5.25 5.48 6.68.1.06.12.04.04-.05a15.82 15.82 0 0 1-3.53-6.19c-.03-.11-.02-.12.04-.02a10.94 10.94 0 0 0 2.38 2.87 19.77 19.77 0 0 1-3.33-6.53c-.04-.13-.06-.13-.06 0a14.2 14.2 0 0 0 1.07 5.88Z" fill="#3AB9D0" /><path d="M28.55 12.96a.2.2 0 0 1-.06 0c-.08-.04-.07-.06.02-.09.84-.2 1.55-.11 2.13.25.22.13.31.28.3.45a.25.25 0 0 1-.26.22c-.04 0-.08 0-.12-.02-.75-.36-1.4-.63-1.95-.8h-.06ZM34.84 14.42c-.37-.57-.78-1-1.36-1.26-.06-.03-.06-.05.01-.06.25-.04.4-.06.48-.05.75.11 1.06.57.94 1.36a.04.04 0 0 1-.03.03.04.04 0 0 1-.04-.02ZM37.8 15.3c.24.2.55.25.69.1.14-.16.05-.46-.2-.67-.24-.22-.55-.26-.69-.1-.14.15-.05.45.2.66ZM35.46 15.84c.29.27.68.32.88.11.2-.2.13-.6-.16-.87-.28-.27-.68-.32-.88-.11-.2.2-.12.6.16.87ZM40.8 18.94a3.84 3.84 0 0 0-1.29-2.25l.01-.01h.02c1.36-.15 1.65 1.27 1.35 2.27-.03.1-.06.1-.08 0ZM28.08 18.65c.21 0 .38-.11.38-.24 0-.14-.17-.25-.38-.25-.2 0-.38.1-.38.24 0 .14.17.24.38.25ZM41.98 20.49c.27.18.6.15.74-.05.14-.21.03-.52-.23-.7-.27-.18-.6-.16-.74.05-.14.21-.04.52.23.7ZM26.73 22.64l-1.35.06c-.08-.88 0-2.68 1.04-3.01 1-.32 1.26 1.28.05 1.29-.05 0-.07.02-.06.07l.32 1.6ZM30.32 20.83c.25 0 .45-.18.45-.4 0-.23-.2-.41-.44-.41-.25 0-.45.17-.45.4 0 .22.2.4.44.4ZM28.08 20.93a.41.41 0 1 0 0-.82.41.41 0 0 0 0 .82Z" fill="#3AB9D0" /><path d="M33.72 30.2c.09.43.24.79.46 1.08l.51.91.7 1.84c.21.59.56 1.47 1.02 1.91.07.07.2.14.38.24.3.14.53.34.7.59l-1.16-.19c-.11-.02-.13 0-.04.05l.14.13c.03.04.05.08.05.12 0 .05-.02.07-.07.07a1.24 1.24 0 0 1-1.02-.57c0-.3-.04-.5-.15-.62-.95-.95-1.7-2.04-2.25-3.27-.12-.26-.18-.54-.26-.82a2.45 2.45 0 0 0-.26-.58 7.57 7.57 0 0 1-.92-2.23l-.13-.7c0-.05-.04-.07-.08-.08l-1-.06a9.6 9.6 0 0 0-2.94.17c-.2.05-.2.09 0 .13.74.14 1.9.4 2.46.93.25.25.44.57.55.97a30.25 30.25 0 0 0 2.22 5.58 2.7 2.7 0 0 0 2.05 1.1l1.06.07c.13 0 .23.05.3.12a.25.25 0 0 1 0 .32.74.74 0 0 1-.43.29c-.74.16-1.6.44-2.61.83-.35.13-.67.13-.96-.01-.3-.14-.29-.37-.35-.72a3.1 3.1 0 0 0-.44-1c-.36-.57-.73-1.11-1.12-1.63l-.52-1.04c-.02-.03-.04-.04-.08-.01l-.88.66-1.17.7c-.06.04-.06.07 0 .1l1.21.42c.04.02.07.03.1.06a.3.3 0 0 1 .08.08l.03.09-.01.08c-.07.16-.25.22-.43.2-.85-.03-1.73-.12-2.62-.27-.37-.05-.63-.17-.45-.6.09-.21.24-.4.45-.58.33-.26.62-.55.87-.87l1.08-1.26c.03-.04.02-.06-.02-.08l-.21-.07a.1.1 0 0 0-.1.01c-.14.1-.28.16-.41.19a.13.13 0 0 1-.12-.03l-.42-.34a6.04 6.04 0 0 0-3.15-1.45 1.95 1.95 0 0 1-1.1-.43c-.6-.47-.97-.78-1.13-.92-.72-.65-.24-2 .3-2.58.4-.44.82-.95 1.25-1.52.4-.53.89-.91 1.47-1.15.16-.06.16-.11-.01-.16a12.9 12.9 0 0 0-5.26.03c-.73.12-1.3.1-1.83-.38a.14.14 0 0 1 0-.2.15.15 0 0 1 .06-.05l.25-.06c.13-.04.13-.07 0-.1l-1.2-.21a.3.3 0 0 1-.13-.06.15.15 0 0 1-.06-.1c0-.03.03-.07.12-.12a3.57 3.57 0 0 1 2.04-.11c.36.13.87.34 1.24.2a8.94 8.94 0 0 1 3.67-.6 74 74 0 0 0 2.34.06l1.35-.06.7-.04c.21 0 .45 0 .7.02l2.69.23c.04 0 .06-.01.07-.05.14-.86.51-1.54 1.1-2.04.76-.63 1.47-.31 1.98.41.47.68.74 1.28.8 1.8 0 .13-.08.29-.27.48-.32.33-.64.64-.95.92-.3.27-.46.56-.72.84a.2.2 0 0 1-.1.07l-.15.05c-.04.01-.06.04-.04.09.14.4.35.85.62 1.36.1.2.18.57.18.84.01.89.14 1.74.38 2.58Z" fill="#154B63" /><path d="M43.43 23a2.15 2.15 0 0 0-1.52-1.05.08.08 0 0 1-.03-.04.08.08 0 0 1 .01-.07c.2-.3.47-.41.8-.33.68.15.93.85.8 1.48 0 .07-.03.07-.06.02ZM29.09 22.29c.27 0 .48-.15.48-.33 0-.2-.21-.34-.48-.34s-.48.15-.48.33c0 .19.21.34.48.34ZM37.92 25.67c1.06.04 1.78.88 1.55 1.97 0 .06-.03.06-.06.01a2.55 2.55 0 0 0-.46-.61 2.4 2.4 0 0 0-1.97-.38c-.06.02-.08 0-.07-.07.18-1 .01-1.75-.52-2.25-.06-.06-.05-.09.04-.07.65.1 1.1.54 1.36 1.3.02.07.07.1.13.1ZM35.18 25.4c.26 0 .46-.19.46-.42 0-.23-.2-.42-.46-.42-.25 0-.46.19-.46.42 0 .23.2.42.46.42ZM41.12 25c1.15-.5 1.8.56 1.56 1.56-.02.1-.05.1-.09 0-.26-.8-.75-1.28-1.45-1.43-.15-.03-.15-.07-.02-.13ZM11.24 28.92c.18.3.4.85.26 1.16a.25.25 0 0 1-.39.1c-.17-.15-.3-.3-.36-.49l-.67-1.89c-.14-.39-.16-1.15.5-1.11.65.04.55 1.37.54 1.9 0 .1.04.2.12.33ZM30.33 28.02l1.22.84c.18.78.49 1.53.92 2.23.12.2.2.4.26.58.08.28.14.56.26.82.55 1.23 1.3 2.32 2.25 3.27.1.11.16.32.15.62l-2.76-.58a30.25 30.25 0 0 1-2.22-5.58c-.11-.4-.3-.72-.55-.97-.56-.53-1.72-.79-2.45-.93-.21-.04-.21-.08 0-.13.93-.2 1.9-.26 2.92-.17ZM34.18 31.28c-.22-.3-.37-.65-.46-1.08.85.42 1.7.82 2.56 1.2.25.1.52.14.8.1.26-.04.53.02.48.34-.11.68-.89.56-1.32.26-.61-.44-1.3-.71-2.06-.82ZM40.26 32.26c.17.02.26.14.25.35 0 .01 0 .03-.03.07a.4.4 0 0 1-.35.22c-.65 0-1.22-.13-1.7-.42a.23.23 0 0 1-.1-.18.22.22 0 0 1 .07-.19c.07-.05.18-.07.3-.04.25.06.77.12 1.56.2Z" fill="#3AB9D0" /><path d="M26.71 34.2c-.25.3-.54.6-.87.86-.21.17-.36.37-.45.58-.18.43.09.55.45.6.9.15 1.77.24 2.62.28.18 0 .36-.05.43-.2a.16.16 0 0 0 0-.1.22.22 0 0 0-.02-.08.3.3 0 0 0-.08-.08.37.37 0 0 0-.1-.06l-1.2-.43c-.07-.02-.07-.05 0-.09l1.16-.7 1.48.4c.4.5.76 1.05 1.12 1.63.25.4.4.73.44 1 .06.34.06.57.35.7.3.15.61.15.96.02 1-.39 1.87-.67 2.6-.83a.74.74 0 0 0 .44-.3.26.26 0 0 0 0-.31c-.07-.07-.17-.12-.3-.12l-1.06-.07a2.7 2.7 0 0 1-2.05-1.1l2.76.58c.23.35.57.54 1.02.57.05 0 .07-.02.07-.07a.22.22 0 0 0-.05-.12.54.54 0 0 0-.14-.13c-.09-.05-.07-.07.04-.05l1.16.19c1.13.2 2.3.43 3.49.7a6.13 6.13 0 0 1 1.22.44.16.16 0 0 1 .01.2.98.98 0 0 1-.42.33c-.86.27-1.44.45-1.75.52-3.55.81-7.09.8-10.62-.06-.29-.06-.28-.1.01-.13l.87-.05c.12-.01.12-.03 0-.07a29.22 29.22 0 0 1-5-1.94c-.79-.39-1.53-.84-2.22-1.35.12-.25.26-.44.42-.57a.31.31 0 0 0 .05-.42c-.36-.47-.63-.79-.7-1a.32.32 0 0 1 .32-.43c.27.03.56.1.86.22.89.35 1.78.7 2.68 1.03Z" fill="#FFB935" /><path d="m30.13 35.18-1.48-.4.88-.66c.04-.03.06-.02.08.01l.52 1.05ZM44.67 40.74c.3-.05.49-.5.8-.59.32-.08.59.13.52.44-.13.62-1.32.82-1.74.47a.15.15 0 0 1 .06-.25l.36-.07Z" fill="#3AB9D0" /></svg>