<!-- by TradeStack --><svg xmlns="http://www.w3.org/2000/svg" width="56" height="56"><path fill="#F0F3FA" d="M0 0h56v56H0z"/><path d="M44.72 27.84c0 .06 0 .14.07.12.05.09.12.01.14-.03.13-.13.2-.3.28-.47.07-.17.13-.33.26-.46a.25.25 0 00.02-.1v-.06l.05-.01.04-.07.03-.05c.33-.5.6-1.16.87-1.8.2-.49.4-.97.63-1.38.04-.02.04-.06.04-.1.2-.28.3-.64.38-.98l.11-.11.1-.12c.05-.06.06.03.03.06-.17.33.09.9.27 1.17.11.16.28.32.46.47.18.15.37.24.57.34a10.99 10.99 0 01.37.2c.2.1.4.2.61.28.12.07.25.12.37.17.13.05.25.1.37.17l.04.01c.3.15 1.51.73 1.58.25 0-.4-.3-.77-.59-1-.34-.28-.7-.55-1.05-.81l-.65-.5-.5-.47-.37-.34-.35-.4a9.62 9.62 0 00-.44-.5c-.01-.04-.01-.07.03-.08.08.13.2.21.32.3l.1.07c.24.17.47.33.7.51a3.33 3.33 0 001.37.6c.36.08.7.15 1.07.15h.23c.31.01.64.01.93-.04a1.6 1.6 0 00.5-.1c.1-.03.2-.06.26-.16.03-.03.03-.06.03-.09.01-.16-.11-.29-.27-.4a1.51 1.51 0 00-.25-.16c-.19-.09-.37-.12-.53-.14h-.02c-.2-.05-.43-.09-.63-.12l-.17-.03a6.56 6.56 0 01-.7-.13l-.27-.08-.06-.02-.16-.05-.17-.05c-.15-.05-.3-.1-.44-.17-.3-.1-.59-.22-.87-.27a4.1 4.1 0 00-.6-.09.73.73 0 00.06-.46c-.01-.1-.03-.23.08-.2.08.04.1.04.16-.02.07 0 .13-.01.17-.08.06-.1.07-.26.02-.38-.03-.04-.06-.09-.12-.13.1-.19.03-.33-.22-.46s-.4-.1-.5.1l-.02-.01a.27.27 0 00-.14 0 .42.42 0 00-.28.22c-.03.08-.02.13.03.2 0 .07.01.1.1.14.1.06-.04.14-.12.19a.94.94 0 00-.3.33l-.23-.22-.23-.22c-.22-.2-.5-.38-.78-.56l-.36-.23c-.09-.08-.2-.15-.3-.22l-.26-.19-.6-.56-.52-.5-.06-.05c-.21-.17-.4-.33-.67-.4-.19-.07-.35-.1-.48.02-.1.11-.08.27-.03.4.1.35.32.65.53.94l.13.18c.1.1.19.23.27.35l.28.35c.11.13.26.25.4.36l.2.17a3.36 3.36 0 001.56.74l.22.08c.13.06.27.11.4.14.1.04.25.06.35.03.02.04 0 .06-.05.07a10.4 10.4 0 01-3.13-.52l-.24-.07c-.33-.1-.66-.2-.99-.28a1.57 1.57 0 00-.62-.04c-.17.01-.4.03-.52.16-.05.07-.07.16-.03.23.13.26.47.48.7.64l.54.3a10.62 10.62 0 01.73.4c.23.14.45.27.7.37.46.23.98.49 1.5.45.34-.03.91-.16 1.06-.51 0-.04.07-.07.06-.01l-.02.13c0 .06 0 .12-.02.17-.06.11-.12.22-.2.33-.12.2-.24.42-.3.64a.08.08 0 00-.04.09c-.3.74-.66 1.44-1.02 2.15a67.12 67.12 0 00-.55 1.14c.01.01.03.02.03.04l-.04.04c-.02.02-.05.04-.06.07 0 .19-.1.34-.18.5-.1.16-.19.32-.19.5v.03zm3.04-7.53s-.07.16-.1.29a.34.34 0 00-.18-.04c-.11 0-.21-.04-.31-.08a2.5 2.5 0 00-.1-.04l-.39-.12-.38-.13c-.4-.12-.8-.28-1.11-.58l-.3-.26a3.96 3.96 0 01-.81-.94 3.17 3.17 0 01-.55-.8c-.05-.08-.23-.38-.14-.47.05-.06.15-.06.34 0l.06.03c.07.03.14.07.19.07.16.08.3.2.42.33l.2.2c.14.1.27.23.39.35.17.18.36.34.55.5.13.11.28.2.43.3l.16.12.38.24c.27.18.54.35.74.54.08.06.14.13.21.2l.3.29zm-2.69.33c.44.12.87.2 1.31.26.17 0 .33.03.5.05.23.03.47.06.71.03l-.17.82a.15.15 0 00-.15 0l-.02.02c-.03.03-.07.07-.08.11-.07.14-.24.2-.37.26l-.04.02c-.39.14-.72.14-1.12.04a4.6 4.6 0 01-1.17-.5c-.19-.1-.36-.21-.54-.32a6.66 6.66 0 00-.53-.32 4.84 4.84 0 01-.9-.58c-.14-.1-.35-.26-.25-.36.25-.17.68-.13.96-.06.37.09.73.2 1.1.31l.76.22zm2.83 1.4l.52-.64a13.8 13.8 0 001.4 1.46l.08.07.1.09.06.07.03.03.07.06.07.06.07.05c.15.11.3.24.48.35l1.03.78c.12.12.24.24.35.41.02.04.3.5.17.5-.23.07-.43-.02-.63-.1l-.24-.1a4.09 4.09 0 01-.68-.29c-.2-.1-.4-.2-.62-.27-.31-.1-.66-.28-.98-.45a33.7 33.7 0 00-.17-.09c-.3-.1-.63-.43-.8-.68-.15-.25-.4-.7-.25-1.01.02-.05.04-.12.02-.16 0-.06-.04-.1-.08-.13zm.73-.92s.08-.09.18-.26l.07-.01.33.05c.1 0 .19.01.28.03a4 4 0 01.83.26 7.16 7.16 0 00.77.26c.15.06.3.11.45.14.23.05.47.08.7.12.23.03.47.07.7.12.23 0 .56.13.75.28.15.11.21.18.21.27 0 .14-.31.2-.44.22-.26.05-.5.07-.77.07a5.27 5.27 0 00-.67.03 4.53 4.53 0 01-1.9-.46c-.17-.1-.33-.21-.49-.33a12.54 12.54 0 00-.45-.3c-.11-.06-.22-.12-.31-.21-.09-.05-.14-.13-.19-.2a1.62 1.62 0 00-.05-.08zM17.1 32v-3.3c0-.8-.38-1.2-1.02-1.2s-1.04.4-1.04 1.2v3.28h-1.66V24h1.67v2.95c.38-.5.88-.93 1.73-.93 1.26 0 2 .83 2 2.18V32H17.1v-.01zM10 32c-1.73 0-3-1.33-3-2.97V29c0-1.65 1.27-3 3.03-3 1.09 0 1.77.37 2.3.97l-1 1.07c-.36-.38-.72-.64-1.31-.64-.82 0-1.4.72-1.4 1.57V29c0 .88.58 1.6 1.48 1.6.55 0 .92-.25 1.33-.62l.96.97A2.97 2.97 0 0110 32zm9.77-2.97a3 3 0 003.1 2.97A3.03 3.03 0 0026 29v-.03A3 3 0 0022.9 26a3.02 3.02 0 00-3.13 3v.03zm3.09-1.63c.9 0 1.52.76 1.52 1.6v.03c0 .85-.56 1.57-1.5 1.57-.9 0-1.52-.74-1.52-1.6v-.03c0-.85.57-1.57 1.5-1.57zm7.64.35c-1.1 0-1.85.66-1.85 2.07V32H27v-6h1.65v1.3c.33-.81.87-1.3 1.85-1.3v1.75zm5.23 3.3V32h1.68v-6h-1.67v3.3c0 .8-.4 1.2-1.05 1.2-.64 0-1.02-.4-1.02-1.2V26H32v3.8c0 1.36.73 2.2 2 2.2.85 0 1.35-.44 1.73-.94zm5.47.95a4.1 4.1 0 01-2.5-.87l.71-1.08c.63.45 1.29.7 1.83.7.47 0 .69-.18.69-.45v-.02c0-.32-.43-.44-.96-.6l-.24-.07c-.8-.24-1.73-.62-1.73-1.75v-.02c0-1.18.95-1.84 2.12-1.84.73 0 1.54.24 2.16.67l-.63 1.13a3.45 3.45 0 00-1.57-.54c-.4 0-.6.17-.6.4v.02c0 .3.45.45 1 .64l.18.06c.8.27 1.75.65 1.75 1.72v.02c.01 1.29-.95 1.88-2.21 1.88z" fill="#544F21"/></svg>