<?xml version='1.0' encoding='utf-8'?>
<!-- by TradeStack -->
<svg width="56" height="56" viewBox="0 0 56 56" xmlns="http://www.w3.org/2000/svg"><path fill="#F0F3FA" d="M0 0h56v56H0z" /><path d="M16.36 33C9.38 33 5.21 29.44 4 27.67 5.45 30.1 9.96 35 16.36 35c8 0 12-2.26 16-6.67 3.64-4 8.73-6 10.91-6 1.91 0 5.24.67 5.1 2.67-.24 3.16-5.82 2.67-7.28 5.33-1.16 2.14 0 4 .73 4.67 0-1.33 0-4 3.63-5.33 3.64-1.34 6.55-2 6.55-4 0-1.34-1.45-4.67-8.73-4.67-7.27 0-9.45 2-11.63 4-1.86 1.7-6.55 8-15.28 8Z" fill="#B20A6C" /><path d="M11 21c3 0 3.75 2.14 3.75 3.21 0-1.28-2.25-1.92-3.75-1.92s-4.5.64-4.5 2.57c0 1.93 3 3.85 9 3.85 4.8 0 9-3 10.5-4.5-.75 1.93-3.9 5.79-10.5 5.79C7.25 30 5 26.79 5 24.86 5 22.93 7.25 21 11 21Z" fill="#B20A6C" /></svg>