<?xml version='1.0' encoding='utf-8'?>
<!-- by TradeStack -->
<svg width="56" height="56" viewBox="0 0 56 56" xmlns="http://www.w3.org/2000/svg"><path fill="#F0F3FA" d="M0 0h56v56H0z" /><path d="M41.89 16.7c.2-.34.11-.58-.18-.81l-6.16-4.79a.35.35 0 0 0-.58.15L29.3 29.67a.59.59 0 0 0 .05.5l1.91 3.3a.23.23 0 0 0 .22.13.24.24 0 0 0 .21-.14L41.9 16.71Z" fill="#E50012" /><path d="M27.27 36.26a.3.3 0 0 0 .16-.2.3.3 0 0 0-.06-.25l-1.93-3.35c-.1-.2-.24-.24-.5-.18L13.26 35.1c-.27.06-.3.18-.22.42l2.62 7.32c.06.17.2.2.39.1l11.22-6.68Z" fill="#BF1920" /></svg>