<?xml version='1.0' encoding='utf-8'?>
<!-- by TradeStack -->
<svg width="56" height="56" viewBox="0 0 56 56" xmlns="http://www.w3.org/2000/svg"><path fill="#F0F3FA" d="M0 0h56v56H0z" /><path fill-rule="evenodd" d="M28.05 15 40 37H16.09l11.96-22ZM28 18l9 17h-.56l-5.88-10.74c-.13.56-.47 1.74-.78 2.02-.03-2.82-1.25-6.03-1.86-7.28l-.46 2.86-.4-.8c-.12-.05-.38.32-.38 2.12s-.75 3.04-1.12 3.44l-.4-2.59-.88 2.25L19.56 35H19l9-17Zm-4.9 17h9.8a5.02 5.02 0 0 0-4.9-6 5 5 0 0 0-4.9 6Z" fill="#9F2521" /><path d="M19.95 25.02a9 9 0 1 1 16.1 0 8.2 8.2 0 0 1 3.76.62 8.55 8.55 0 0 1 4.56 11.08A8.31 8.31 0 0 1 30 38.67l2.19-.3a6.5 6.5 0 1 0 4.75-11.35l-2.46-3.37a7 7 0 1 0-13-.07c-.87 1.56-1.39 2.08-2.42 3.43a6.5 6.5 0 1 0 4.75 11.35l2.19.3a8.31 8.31 0 0 1-14.37-1.95 8.55 8.55 0 0 1 4.56-11.07 8.2 8.2 0 0 1 3.76-.62Z" fill="#9F2521" /></svg>