<?xml version='1.0' encoding='utf-8'?>
<!-- by TradeStack -->
<svg width="56" height="56" viewBox="0 0 56 56" xmlns="http://www.w3.org/2000/svg"><path fill="#F0F3FA" d="M0 0h56v56H0z" /><path fill-rule="evenodd" d="M32.55 25.7c2.7 5.45 8.4 8.93 10.9 9.98l-1.51 2.3C36.73 34.1 30.52 33.5 28 33.5c-2.38 0-8.6.6-13.8 4.5l-1.52-2.31c2.51-1.05 8.2-4.53 10.9-9.98 3.2-6.47 2.85-9.86 2.5-13.1l-.06-.52c.37-.03 1.28-.09 2.01-.09.74 0 1.7.05 2.07.08l-.06.53c-.34 3.23-.7 6.63 2.5 13.09Zm1.73 6.33a27.03 27.03 0 0 0-12.43 0c3.63-3.43 5.64-8.96 6.2-11.31.57 2.36 2.62 7.88 6.23 11.31ZM21.36 13.31c.42-.17 1.43-.55 2.17-.74.38 2.2.48 7.7-2.17 12.12-2.93 4.9-6.03 6.68-9.01 8.39l-.54.3-.56-2.16c1.81-.8 6-3.5 8.29-8.03 2.28-4.53 2.06-9.12 1.82-9.88Zm-4.78 2.94c.5-.43 1.67-1.36 2.32-1.67.18 3.19-1.16 10.42-7.9 13.87.01-.63.08-2.07.25-2.7a13.16 13.16 0 0 0 5.33-9.5Zm18.06-2.94c-.42-.17-1.43-.55-2.17-.74-.38 2.2-.48 7.7 2.17 12.12 2.93 4.9 6.03 6.68 9.01 8.39l.54.3.56-2.16c-1.81-.8-6-3.5-8.29-8.03-2.28-4.53-2.06-9.12-1.82-9.88Zm4.78 2.94c-.5-.43-1.67-1.36-2.32-1.67-.18 3.19 1.16 10.42 7.9 13.87-.01-.63-.08-2.07-.25-2.7a13.16 13.16 0 0 1-5.33-9.5ZM28.25 35.98c-6.54.16-11 2.7-12.41 3.96l1.74 1.45c9.14-5.83 17.72-2.43 20.87 0l1.88-1.45c-4.28-3.3-9.84-4.01-12.07-3.96Zm7.88 6.9a15.81 15.81 0 0 0-16.16 0L22.73 44a13.83 13.83 0 0 1 10.78 0l2.62-1.12Z" fill="url(#a55rufwjn)" /><defs><linearGradient id="a55rufwjn" x1="39.32" y1="17.4" x2="15.49" y2="38.79" gradientUnits="userSpaceOnUse"><stop stop-color="#81CFCF" /><stop offset=".4" stop-color="#4AC5DE" /><stop offset="1" stop-color="#2694CD" /></linearGradient></defs></svg>