<!-- by TradeStack --><svg width="56" height="56" viewBox="0 0 56 56" xmlns="http://www.w3.org/2000/svg"><path fill="url(#adwzkp4e4)" d="M0 0h56v56H0z"/><path fill-rule="evenodd" d="M28 45a17 17 0 1 0 0-34 17 17 0 0 0 0 34Zm0-1a16 16 0 1 0 0-32 16 16 0 0 0 0 32Z" fill="#799251"/><path d="M28.18 24.02c-5.27 1.95-12.87 3.42-16.02 3.91 16.89 2.55 27.36-2.94 30.49-6-.53-1.77-2.2-3.85-2.97-4.67-2.04 2.56-4.93 4.33-11.5 6.76Zm-3.23 10.13c-5.77 0-10.77-2.8-12.54-4.19 18.05 4.3 28.36-1.38 31.26-4.76.44 2.33.18 4.83 0 5.78-4.47 1.8-11.52 3.17-18.73 3.17Zm-12.27-2.04c2.87 1.53 10.5 4.59 18.14 4.59 6.23 0 10.57-1.72 11.96-2.57-.21.77-1.3 2.96-4 5.58-6.13 1.05-19.94 1-26.1-7.6Z" fill="#474946"/><path d="M18 21.5v.67c1.07-.1 1.84-.4 2.3-.6.21-.08.36-.14.44-.14.2 0 .26.36.26.54v15.49c0 1.27-.42 1.56-.86 1.76a4.1 4.1 0 0 1-1.22.24V40h12.15v-.73h-.02c-.2 0-.73 0-1.5-.36-.52-.25-.53-1.1-.54-1.75l-.01-.42V29h5.5c1.74.22 2.08 2.25 2.04 3H37v-7h-.46c-.08 2.1-1.39 3-2.03 3H29v-9h4.71c.8 0 2.18.14 2.81.57.51.34.92 1.79 1.06 2.43H38v-4H22.68c-1.17 1.76-3.6 3.06-4.68 3.5Zm5 14.92v-17.4a3.3 3.3 0 0 1 2.17.55c.72.56.85 1.74.83 2.26v14.51c0 2.1-1.34 2.65-2.01 2.66-.9-.03-1.03-1.73-.98-2.58Z" fill="#fff"/><defs><linearGradient id="adwzkp4e4" x1="10.42" y1="9.71" x2="68.15" y2="76.02" gradientUnits="userSpaceOnUse"><stop stop-color="#1A1E21"/><stop offset="1" stop-color="#06060A"/></linearGradient></defs></svg>