<!-- by TradeStack --><svg width="56" height="56" viewBox="0 0 56 56" xmlns="http://www.w3.org/2000/svg"><path fill="#F0F3FA" d="M0 0h56v56H0z"/><path d="M8.72 30c.88 0 1.6-.61 1.94-1.41l1.34.46C11.41 30.4 10.13 31 8.72 31 6.55 31 5 29.69 5 27.47 5 25.27 6.5 24 8.65 24c1.38 0 2.76.5 3.26 1.9l-1.36.34c-.26-.78-1.1-1.24-1.87-1.24-1.42 0-2.18 1.13-2.18 2.47 0 1.36.78 2.53 2.22 2.53ZM13 31v-7h1.5v7H13Zm10-2c0 1.6-1.77 2-3.05 2H16v-7h3.61c1.17 0 2.94.25 2.94 1.76 0 .79-.49 1.37-1.51 1.56 1.28.13 1.96.73 1.96 1.68Zm-2-3.04c0-.63-.45-.96-1.35-.96H17.5v2h2.17c.94 0 1.33-.47 1.33-1.04Zm.5 3.04c0-.83-.94-1-1.6-1h-2.4v2h2.47c.7 0 1.53-.15 1.53-1Zm2.5 2v-7h1.5v6H30v1h-6Zm9-.32c0 .71-.22 1.05-.74 1.32h-.76c.35-.41.43-.58.5-1h-.5v-1H33v.68Zm3 .32v-7h1.5v7H36Zm6.58 0v-2.7c0-.65-.23-1.3-.97-1.3-.78 0-1.11.73-1.11 1.41V31H39v-5h1.4l.08 1.07c.38-.75.92-1.07 1.72-1.07 1.15 0 1.8.77 1.8 1.89V31h-1.42Zm4.99 0c-1.5 0-2.57-.94-2.57-2.47 0-1.56 1.06-2.53 2.6-2.53 1.04 0 2.13.5 2.36 1.6l-1.42.07c-.08-.5-.4-.67-.98-.67-.75 0-1.06.43-1.06 1.48 0 1.1.35 1.52 1.08 1.52.54 0 .92-.16 1-.75l1.42.06c-.17 1.16-1.36 1.69-2.43 1.69ZM51 31v-1h1v1h-1Z" fill="#B31424"/></svg>