<!-- by TradeStack --><svg width="56" height="56" viewBox="0 0 56 56" xmlns="http://www.w3.org/2000/svg"><path fill="#F0F3FA" d="M0 0h56v56H0z"/><path d="M51 25v4.81C51 32.5 49.54 34 47.5 34c-2.06 0-3.5-1.51-3.5-4.19V25h1.5v5.1c0 1.43.84 2.4 2 2.4 1.18 0 2.04-.97 2.04-2.4V25H51ZM37 34v-9h1.5v1.48c.57-1.1 1.48-1.48 3.02-1.48H43v1.48h-1.31c-2.2 0-3.23 1.05-3.23 3.35V34H37Z" fill="#F29206"/><path fill-rule="evenodd" d="M31.5 34c2.28 0 4.05-1.5 4.5-4l-1.62-.24c-.26 1.71-1.38 2.74-2.87 2.74a3.1 3.1 0 0 1-2.5-1.28l6.67-3.51A4.53 4.53 0 0 0 27 29.49c0 2.45 2.07 4.51 4.5 4.51Zm2-6.63a2.63 2.63 0 0 0-2-.87 2.98 2.98 0 0 0-2.97 3.43l4.97-2.56Z" fill="#F29206"/><path d="M24 34V21h1.5v13H24ZM14 34V21h1.5v6.5h6V21H23v13h-1.5v-5h-6v5H14ZM13 22.5h-.63c-3.54 0-5.87 2-5.87 5 0 2.98 2.33 5 5.87 5H13V34h-.5C8.6 34 5 31.83 5 27.5c0-4.34 3.6-6.5 7.5-6.5h.5v1.5Z" fill="#F29206"/></svg>