<?xml version='1.0' encoding='utf-8'?>
<!-- by TradeStack -->
<svg fill="none" viewBox="0 0 56 56" xmlns="http://www.w3.org/2000/svg"><path fill="url(#paint0_linear_6163_249045)" d="M0 0h56v56H0z" /><path d="M35 16.155V11l6 3.991v4.989l-6-3.825zM41 21.976l-6-3.991V36h6V21.976zM33 11v10l-6 2.5v-2.522l-7 2.993V30h7v-3.5l6-2.5v12H14V19l19-8zM18 40.5h-1c0-.12-.074-.5-.5-.5h-1c-.5 0-.5.313-.5.5V42c0 .574 0 1 .5 1h1c.5 0 .5-.5.5-.5V42h-1v-1h2v2c0 .72-.586 1-1 1h-2c-.5 0-1-.527-1-1v-3c0-.5.5-1 1-1h2c1 0 1 1 1 1.5z" fill="#FEFEFE" /><path fill-rule="evenodd" clip-rule="evenodd" d="M19 44h1.058l.43-1h1.99l.416 1H24l-2.02-5h-.96L19 44zm3.062-2l-.562-1.35-.581 1.35h1.143z" fill="#FBF9FC" /><path d="M26 39h-1v5h1v-3.5l1.5 2 1.5-2V44h1v-5h-1l-1.5 2-1.5-2zM35 39h-4v5h4v-1h-3v-1h3v-1h-3v-1h3v-1zM41 40.5h-.997c0-.5-.4-.5-.498-.5H37.56c-.33 0-.56 0-.56.25v.45c0 .24.334.3.51.3h2.493c.99 0 .997.648.997 1v1c0 .64-.615 1-.997 1h-2.991C36 44 36 43 36 42.6h1c0 .16.012.4.51.4h1.995c.498 0 .498-.267.498-.4v-.25c0-.35-.263-.35-.499-.35H37c-.896 0-1-.7-1-1v-1c0-.5.502-1 1-1h3.003C41 39 41 40 41 40.5z" fill="#FEFEFE" /><defs><linearGradient id="paint0_linear_6163_249045" x1="10.418" y1="9.712" x2="68.147" y2="76.017" gradientUnits="userSpaceOnUse"><stop stop-color="#1A1E21" /><stop offset="1" stop-color="#06060A" /></linearGradient></defs></svg>