<?xml version='1.0' encoding='utf-8'?>
<!-- by TradeStack -->
<svg width="56" height="56" viewBox="0 0 56 56" xmlns="http://www.w3.org/2000/svg"><path fill="#F0F3FA" d="M0 0h56v56H0z" /><path d="M38 26h-.5v5h.5v-5ZM9.3 26l-2.1 4.13c-.03.07-.13.1-.23.1-.07 0-.2-.03-.24-.1L4.71 26H4l2.46 5h1.08L10 26h-.7ZM35.29 26l-2.1 4.13c-.04.07-.14.1-.24.1-.07 0-.2-.03-.24-.1L30.68 26H30l2.47 5h1.09L36 26h-.71ZM29 26h-.67v4.2c0 .1-.06.16-.16.16h-3.3c-.1 0-.17-.06-.17-.13V26H24v4.33c0 .37.3.64.63.67h3.67c.37 0 .7-.34.7-.7V26ZM45 26h-.7v4.2c0 .1-.07.16-.17.16h-3.3c-.1 0-.16-.06-.16-.13V26H40v4.33c0 .37.3.64.63.67h3.67c.7 0 .7-.5.7-.77V26ZM11.87 26.67H16V26h-5v5h5v-.67h-4.13c-.1 0-.17-.06-.17-.16V29c0-.1.07-.13.17-.17h2.52v-.66h-2.52c-.07 0-.17-.07-.17-.17v-1.17c0-.06.07-.13.17-.16ZM22 26.67c0-.37-.3-.67-.67-.67h-3.7c-.36.03-.63.3-.63.67v1.63c0 .37.3.67.64.7h3.52c.1 0 .17.07.17.17v1c0 .1-.07.16-.17.16h-3.32c-.1 0-.17-.06-.17-.16V30a.34.34 0 0 0-.67 0v.33c0 .37.3.64.64.67h3.69c.37 0 .67-.33.67-.7V29c0-.37-.3-.63-.67-.67h-3.5c-.1 0-.16-.06-.16-.16v-1.34c0-.1.07-.16.17-.16h3.32c.07 0 .14.06.14.16V27c0 .2.16.33.33.33.2 0 .37-.16.37-.33v-.33ZM52 26.67c0-.37-.3-.67-.67-.67h-3.7c-.36.03-.63.3-.63.67v1.63c0 .37.3.67.64.7h3.52c.1 0 .17.07.17.17v1c0 .1-.07.16-.17.16h-3.32c-.1 0-.17-.06-.17-.16V30a.34.34 0 0 0-.67 0v.3c0 .37.3.67.64.7h3.69c.37 0 .67-.33.67-.7V29c0-.37-.3-.63-.67-.67h-3.5c-.1 0-.16-.06-.16-.16v-1.34c0-.1.07-.16.17-.16h3.32c.1 0 .14.06.17.16V27a.34.34 0 0 0 .67 0v-.33Z" fill="#4B4B4D" /></svg>