<?xml version='1.0' encoding='utf-8'?>
<!-- by TradeStack -->
<svg width="56" height="56" viewBox="0 0 56 56" xmlns="http://www.w3.org/2000/svg"><path fill="#F0F3FA" d="M0 0h56v56H0z" /><path fill-rule="evenodd" d="M12.16 22.4h1.35a2.65 2.65 0 0 0-1.98-2.24 3.95 3.95 0 0 0-2.88.26c-.5.27-.91.67-1.2 1.2-.3.52-.45 1.15-.45 1.88s.15 1.36.44 1.88a3 3 0 0 0 1.2 1.2c.51.28 1.1.42 1.74.42.44 0 .84-.06 1.2-.18s.68-.29.95-.5a2.74 2.74 0 0 0 .98-1.67h-1.35a1.48 1.48 0 0 1-.62.92c-.15.1-.33.19-.52.24a2.32 2.32 0 0 1-1.68-.19c-.31-.18-.55-.45-.73-.8-.18-.36-.27-.8-.27-1.32 0-.51.1-.95.27-1.3.17-.36.42-.63.73-.81a2.21 2.21 0 0 1 1.7-.2c.2.06.37.14.52.25a1.5 1.5 0 0 1 .6.95ZM43 27v-7h2.94c.6 0 1.11.1 1.52.28.41.19.72.45.93.79.22.33.32.72.32 1.17 0 .45-.1.84-.32 1.17a2.06 2.06 0 0 1-1.09.82L49 27h-1.59l-1.54-2.56h-1.45V27H43Zm2.73-3.62h-1.3v-2.32h1.3c.35 0 .64.05.87.14.22.1.39.23.5.4.1.18.16.39.16.64s-.05.46-.16.63a1 1 0 0 1-.5.38c-.22.09-.51.13-.87.13ZM41 29h1.58l1.88 3.1h.3l1.89-3.1H48l-2.7 4.39V36H44v-2.61L41 29Zm-1.88 1.79c.1.14.19.3.25.48h1.36a2.4 2.4 0 0 0-.35-.92c-.18-.28-.4-.52-.68-.72-.27-.2-.59-.36-.94-.46a3.8 3.8 0 0 0-2.48.07 3.05 3.05 0 0 0-1.79 1.8c-.16.43-.25.92-.25 1.47 0 .72.14 1.34.43 1.86s.69.92 1.2 1.2c.51.29 1.11.43 1.79.43.6 0 1.15-.11 1.62-.34.47-.23.84-.56 1.1-.99.28-.42.41-.93.41-1.51v-.82H37.8v.97h1.7a1.48 1.48 0 0 1-.86 1.39c-.27.13-.6.2-.97.2a1.89 1.89 0 0 1-1.82-1.1c-.18-.36-.26-.8-.26-1.3 0-.52.08-.95.26-1.3a1.9 1.9 0 0 1 1.79-1.1c.22 0 .42.03.61.09a1.56 1.56 0 0 1 .87.6ZM28 36v-7h2.77c.56 0 1.04.1 1.42.28.39.19.68.45.88.79.2.33.3.72.3 1.17a1.96 1.96 0 0 1-1.32 1.99L33.63 36h-1.5l-1.44-2.56h-1.36V36H28Zm1.34-5.94v2.32h1.23c.33 0 .6-.04.81-.13a.95.95 0 0 0 .47-.38c.1-.17.15-.38.15-.63s-.05-.46-.15-.64a.97.97 0 0 0-.47-.4c-.21-.1-.49-.14-.82-.14h-1.22ZM22 29v7h5v-1h-3.66v-2h3.2v-1h-3.2v-2H27v-1h-5Zm-2 0v7h-1.18l-3.44-4.77h-.06V36H14v-7h1.18l3.44 4.77h.06V29H20ZM8 29v7h5v-1H9.38v-2h3.33v-1H9.38v-2H13v-1H8Zm29-2v-7h5v1h-3.66v2h3.21v1h-3.21v2H42v1h-5Zm-6-7v7h2.99c.56 0 1.03-.08 1.4-.25.38-.17.66-.4.84-.68.19-.29.28-.61.28-.98a1.63 1.63 0 0 0-.83-1.49c-.24-.14-.49-.21-.75-.23v-.06c.24-.06.46-.15.65-.27.2-.13.35-.3.47-.5.11-.2.17-.44.17-.73 0-.34-.09-.65-.27-.92a1.75 1.75 0 0 0-.8-.65c-.35-.16-.8-.24-1.32-.24H31Zm2.78 5.94h-1.44v-2.05h1.47c.28 0 .52.05.72.15.2.1.35.22.46.4a1 1 0 0 1 .16.55c0 .28-.1.51-.33.69-.2.17-.56.26-1.04.26Zm-.12-2.96h-1.32v-1.93h1.35c.4 0 .69.08.89.26.2.17.3.4.3.67 0 .2-.05.38-.16.53-.1.15-.25.27-.44.35-.18.08-.39.12-.62.12ZM29 20v7h-1.3v-7H29Zm-7 0v7h4.59v-1h-3.25v-6H22Zm-6.41 7h-1.43l2.6-7h1.65l2.6 7H19.6l-.71-2H16.3l-.71 2Zm2.03-5.56.9 2.56h-1.87l.9-2.56h.07Z" /></svg>