<?xml version='1.0' encoding='utf-8'?>
<!-- by TradeStack -->
<svg width="56" height="56" viewBox="0 0 56 56" xmlns="http://www.w3.org/2000/svg"><path fill="#0B235A" d="M0 0h56v56H0z" /><path fill-rule="evenodd" d="M6.36 25 4 31h6.13c.63 0 1.98-.26 2.36-1.29.38-1.02.16-1.57 0-1.71a3.11 3.11 0 0 0 1.42-1.71C14.38 25 12.96 25 12.49 25H6.36Zm2.36 2.57.47-1.71h.94c.32 0 .85.17.47.85-.37.69-.47.86-.94.86h-.94Zm-.95 2.57.48-1.71h.94c.31 0 .85.17.47.86-.38.68-.47.85-.94.85h-.95Zm7.06.86h4.7c.37 0 .7-.23.82-.57l1.56-4.28a.86.86 0 0 0-.82-1.15h-4.7c-.37 0-.7.23-.82.57l-1.56 4.28a.86.86 0 0 0 .82 1.15Zm3.22-1.15 1.06-3.46a.41.41 0 0 0-.4-.53.42.42 0 0 0-.4.29l-1.06 3.46c-.08.27.12.53.4.53.18 0 .35-.12.4-.29Zm8.75-2.7h2.62l.88-1.3c.14-.28.09-.85-1.31-.85h-3.5c-.58 0-1.84.34-2.19 1.71-.14.58-.17 1.72.88 1.72h1.75c.29 0 .78.17.43.86-.28.55-.38.75-.54.82-.08.03-.18.03-.33.03-.35 0-.15-.57 0-.85h-3.06c-.15.57-.18 1.71.87 1.71h3.94c.43 0 1.4-.34 1.75-1.71.35-1.38-.44-1.72-.88-1.72h-2.18l.43-1.28s0-.43.44-.43c.35 0 .15.85 0 1.28Z" fill="url(#a)" /><path fill-rule="evenodd" d="M41.25 26.71c.5 0 .5.43 0 1.72l-.18.27c-.32.48-.39.59-.82.59-.59 0-.5-.98 0-1.72l.18-.27c.32-.48.39-.59.82-.59Zm1.85 2.51c-1.03 1.52-2.92 2.2-4.22 1.52-1.3-.68-1.51-2.45-.48-3.96 1.03-1.52 2.92-2.2 4.22-1.52 1.3.68 1.51 2.45.48 3.96ZM33.56 25c-1.07 0-1.63 1.14-1.78 1.71h2.66a2.31 2.31 0 0 0-2.22 1.72h1.34c.44 0 .88 0 .88.43s-.44.85-1.33.85c-.71 0-.89-.28-.89-.42H30c0 1.28 1.78 1.71 3.11 1.71 1.33 0 2.67 0 3.56-1.71.7-1.38-.6-1.72-1.34-1.72L38 25h-4.44Zm14 0c-1.07 0-1.63 1.14-1.78 1.71h2.66a2.31 2.31 0 0 0-2.22 1.72h1.34c.44 0 .88 0 .88.43s-.44.85-1.33.85c-.71 0-.89-.28-.89-.42H44c0 1.28 1.78 1.71 3.11 1.71 1.33 0 2.67 0 3.56-1.71.7-1.38-.6-1.72-1.34-1.72L52 25h-4.44Z" fill="url(#b)" /><defs><linearGradient id="a" x1="19.53" y1="25" x2="19.53" y2="31" gradientUnits="userSpaceOnUse"><stop stop-color="#CCB44B" /><stop offset=".26" stop-color="#F8F092" /><stop offset=".48" stop-color="#FFF9A5" /><stop offset=".84" stop-color="#FDF8A7" /><stop offset="1" stop-color="#DBC357" /></linearGradient><linearGradient id="b" x1="39.17" y1="25.43" x2="39.17" y2="31" gradientUnits="userSpaceOnUse"><stop stop-color="#8F9092" /><stop offset=".48" stop-color="#EFEFEF" /><stop offset="1" stop-color="#BABBBD" /></linearGradient></defs></svg>