<?xml version='1.0' encoding='utf-8'?>
<!-- by TradeStack -->
<svg width="56" height="56" viewBox="0 0 56 56" xmlns="http://www.w3.org/2000/svg"><path fill="#F0F3FA" d="M0 0h56v56H0z" /><path d="M43 13H27.97C19.67 13 13 19.72 13 28v15h14.98c8.25 0 14.95-5.78 15.02-14h-3c-.05 6.69-5.28 11-12.02 11H17.65l3.33-3h7A9.03 9.03 0 0 0 37 28.13V25h-9v3.01h6A5.96 5.96 0 0 1 27.98 34H22v-5.99A5.89 5.89 0 0 1 27.98 22H37v-3h-9.02A8.98 8.98 0 0 0 19 27.94V35L16 38v-9.99C16 21.28 21.2 16 27.98 16H43v-3Z" fill="#74B651" /><path d="M43 28h-3V17h3v11Z" fill="#74B651" /></svg>