<?xml version='1.0' encoding='utf-8'?>
<!-- by TradeStack -->
<svg width="56" height="56" viewBox="0 0 56 56" xmlns="http://www.w3.org/2000/svg"><path fill="#F0F3FA" d="M0 0h56v56H0z" /><path d="M30.92 28.39H34v.64h-3.08v-.64ZM31 32h-.7v-7h4.08v.64H31V32ZM25.37 32v-7h2.23c1.43 0 2.2.64 2.2 1.85.01 1.2-.78 1.84-2.2 1.84h-1.88l.28-.34V32h-.63Zm4.06 0-2.15-3.6h.68l2.16 3.6h-.69ZM26 28.4l-.28-.4h1.86c1.07 0 1.58-.37 1.58-1.15 0-.78-.5-1.21-1.58-1.21h-1.86l.28-.35v3.12ZM41.7 32v-7h2.23c1.44 0 2.2.64 2.2 1.85.02 1.2-.77 1.84-2.2 1.84h-1.88l.28-.34V32h-.63Zm4.07 0-2.15-3.6h.68l2.16 3.6h-.69Zm-3.44-3.6-.28-.34h1.87c1.07 0 1.58-.43 1.58-1.21s-.5-1.21-1.58-1.21h-1.87l.28-.35v3.12ZM18.95 32l2.8-7h.63l2.8 7h-.68l-2.57-6.57h.26L19.62 32h-.67Zm1.1-1.87.19-.6h3.56l.19.6h-3.94ZM14.9 28H18v.63h-3.1V28Zm.1 3.36h3.7V32h-4.46v-7h4.3v.64H15v5.72ZM10.26 32v-7H11v6.36h3V32h-3.74ZM7.52 32A3.37 3.37 0 0 1 4 28.5 3.45 3.45 0 0 1 5 26a3.65 3.65 0 0 1 2.53-1c.49 0 .94.09 1.37.26.43.16.8.4 1.09.74l-.45.46c-.28-.28-.58-.49-.92-.61-.33-.14-.69-.2-1.07-.2a2.9 2.9 0 0 0-2.03.81 2.82 2.82 0 0 0-.82 2.04c0 .41.07.8.21 1.14a2.78 2.78 0 0 0 2.63 1.71c.4 0 .75-.06 1.08-.2.34-.13.64-.34.92-.62l.45.46c-.3.33-.66.58-1.09.75-.43.17-.89.26-1.38.26ZM46.61 32v-7h1.98c.68 0 1.28.15 1.78.45.52.3.92.7 1.2 1.23.29.53.43 1.13.43 1.82 0 .69-.14 1.3-.43 1.82-.28.53-.68.94-1.2 1.24-.5.3-1.1.44-1.78.44h-1.98Zm.67-.64h1.28c.56 0 1.05-.12 1.46-.36.42-.25.74-.58.97-1.01.23-.43.35-.93.35-1.49a3.1 3.1 0 0 0-.35-1.49 2.5 2.5 0 0 0-.97-1 2.8 2.8 0 0 0-1.46-.37h-1.28v5.72Z" fill="#0B527E" /><path fill-rule="evenodd" d="M37.97 32a3.5 3.5 0 1 0 0-7 3.5 3.5 0 0 0 0 7Zm0-1.59a1.91 1.91 0 1 0 0-3.82 1.91 1.91 0 0 0 0 3.82Z" fill="#0B527E" /><circle cx="37.97" cy="28.5" r="1.38" fill="#86C6EA" /></svg>