<!-- by TradeStack --><svg width="56" height="56" viewBox="0 0 56 56" xmlns="http://www.w3.org/2000/svg"><path fill="#F0F3FA" d="M0 0h56v56H0z"/><path d="M10 26.35v-2.11h-.22c0 .07-.05.23-.22.23-.45 0-.56-.47-1.9-.47C6.23 24 4 24.82 4 28s2.33 4 3.78 4c1.15 0 1.96-.55 2.22-.82v-1.36h-.22c-.11.61-.67 1.8-2 1.7C6.1 31.43 5 29.54 5 28s1-3.53 2.67-3.53c1.33 0 1.96 1.26 2.1 1.88H10ZM20 24h-3v.24c.68 0 1 .37 1 .73v4.12c0 .97.8 2.91 3 2.91 2.56 0 3-1.5 3-2.9v-4.13c0-.58.33-.73.56-.73 1.47 0 1.94.78 1.94 1.26 0 1.65-.97 2.3-1.5 2.26V28c.69-.04 2 .05 2 1.5s-.86 2.22-1.4 2.26H24V32h1.6c1.4 0 2.4-.8 2.4-2.5 0-1.36-1.22-1.78-1.83-1.86.45-.08 1.33-.78 1.33-2.14S26.17 24 25.48 24H22v.24h.23c.73 0 .77.56.77.88V29c0 1.65-.88 2.23-1.42 2.27C19.75 31.27 19 30 19 29.1v-4.12c0-.58.47-.73.77-.73H20V24ZM14 24h-3v.25c.86.1 1 .7 1 1v5.25c0 1-.5 1.25-.79 1.25H11V32h5.46l.54-2h-.21c-.26 1.1-1.11 1.46-1.5 1.5h-1.72c-.34 0-.57-.33-.57-.5v-5.75c0-.7.71-.96 1-1V24ZM31 23h-3v.28c1 .11 1 .8 1 1.13v5.9c0 1.13-.42 1.4-.75 1.4H28V32h6.38l.62-2.25h-.25A2.14 2.14 0 0 1 33 31.44h-2c-.4 0-1 .06-1-.57v-6.46c0-.8.67-1.08 1-1.13V23ZM38 24h-3v.25c.8 0 1 .58 1 .88v5.62c0 .8-.67 1-1 1V32h3v-.25c-.8 0-1-.67-1-1v-5.63c0-.7.67-.87 1-.87V24ZM42 24h-3v.24c1.04 0 1 .67 1 1.06v5.67c0 .68-.6.79-1 .79V32h3v-.24c-.76 0-1-.5-1-.79V26l4.5 6h.5v-7.03c0-.49.63-.69 1.27-.73V24H44v.24c.95 0 1 .49 1 .73v4.73a38.41 38.41 0 0 1-3.52-5.22c0-.19.32-.24.52-.24V24Z" fill="#162B68"/><path d="M52 24h-3v.24c.24 0 .64.07.64.37 0 .36-3.14 2.89-3.14 2.89.87 1.05 2.8 3.6 2.9 3.9.1.28-.2.36-.4.36V32h3v-.24c-1.23 0-3.35-3.07-4.25-4.49 1.65-1.57 3.3-3.03 4.01-3.03H52V24Z" fill="#162B68"/></svg>