<?xml version='1.0' encoding='utf-8'?>
<!-- by TradeStack -->
<svg width="56" height="56" viewBox="0 0 56 56" xmlns="http://www.w3.org/2000/svg"><path fill="#192853" d="M0 0h56v56H0z" /><path d="M13.51 34h-2.03l-.3 1H9.5l2.09-6h1.83l2.08 6h-1.68l-.3-1ZM13 32.5l-.5-1.7-.5 1.7h1ZM18.05 33.5H20V35h-4v-6h2.05v4.5ZM24.6 31c-.19-.3-.53-.49-1-.49-.86 0-1.1.66-1.1 1.49 0 1.01.26 1.55 1.26 1.55.6 0 .84-.11 1.28-.55H23.5v-1.5h3v1.68A3.11 3.11 0 0 1 23.6 35c-1.76 0-3.1-1.22-3.1-3 0-1.77 1.36-3 3.1-3 1.29 0 2.56.64 2.83 2H24.6ZM30.1 35l-1.22-2.21H29V35h-2v-6h2.54C31 29 32 29.72 32 31c0 .85-.58 1.42-1.38 1.66L32 35h-1.9ZM29 31.65h.45c.47 0 .55-.24.55-.65 0-.39-.1-.6-.55-.6H29v1.25ZM35.5 35c-1.67 0-3-1.33-3-3 0-1.68 1.33-3 3-3 1.68 0 3 1.32 3 3 0 1.67-1.32 3-3 3Zm0-1.51c.86 0 1-.68 1-1.49 0-.81-.14-1.5-1-1.5s-1 .68-1 1.5.14 1.49 1 1.49ZM48 29v6h-2v-3.31L45 35h-1l-1-3v3h-2v-6h2.5l1 3 1-3H48Z" fill="#F9FFFF" /><path d="M48.06 31c.02-.6.2-1.2.54-1.51.34-.33.82-.49 1.43-.49.4 0 .73.07 1.01.22a1.47 1.47 0 0 1 .86 1.38 1.28 1.28 0 0 1-.84 1.3v.03c.63.24.94.7.94 1.37 0 .34-.07.63-.22.89-.15.25-.37.45-.65.6-.29.14-.63.21-1.02.21a2.3 2.3 0 0 1-1.53-.48c-.37-.32-.56-.86-.58-1.52h1.48c-.01.21.03.42.13.53.1.12.24.18.44.18.15 0 .27-.05.35-.14.09-.1.13-.23.13-.39 0-.2-.06-.35-.2-.44-.12-.1-.32-.15-.6-.15h-.28v-1.26h.27c.2 0 .36-.03.5-.1.13-.07.2-.22.2-.44 0-.16-.04-.28-.11-.36a.4.4 0 0 0-.32-.13c-.15 0-.26.05-.33.17-.07.1-.11.37-.12.53h-1.48ZM50 19 8 20.5 21 26l29-7Z" fill="#F9FFFF" /><path d="M38 21 8 22l9 4 21-5Z" fill="#FAE56C" /><path d="M19.27 25.4 37.71 21 11 21.89l8.27 3.5Z" fill="#CBB866" /><path d="M9 30.94v-1.82A8.85 8.85 0 0 0 7.53 29C5.73 29 4 29.95 4 32c0 2.06 1.69 3 3.5 3a9.4 9.4 0 0 0 1.5-.11v-1.83c-.1.1-.23.2-.37.26a3.6 3.6 0 0 1-1.16.18C6.57 33.5 6 32.94 6 32c0-.93.61-1.5 1.5-1.5.32 0 .89.07 1.13.19.14.06.26.15.37.25Z" fill="#F9FFFF" /></svg>