<!-- by TradeStack --><svg width="56" height="56" viewBox="0 0 56 56" xmlns="http://www.w3.org/2000/svg"><path fill="#F0F3FA" d="M0 0h56v56H0z"/><path d="M35.5 34c-3.2 0-5.33-1-6-1.5l-.5 1c.4 2.4 3.17 4 4.5 4.5-.4.4-1.17.17-1.5 0 .5.33 2.2 1 5 1 3.5 0 6-1.5 4.5-1.5H40c1.2-.4 2.5-1.17 3-1.5h-1.5c2.4-.4 4.67-2.5 5.5-3.5l-2.5 1c1-.67 3.1-2.2 3.5-3 .4-.8-.17-.67-.5-.5 0-.4.23-.45.5-1 .4-.8 1-1.67 1-2-3.5 4.5-9.5 7-13.5 7Z" fill="#102948"/><path fill-rule="evenodd" d="M26.45 17.98c.28-.22.57-.5.8-.78.13-.17.28-.22.48-.2.5 0 1.11.6 1.6 1.08l.3.3c.3.3.59.62.84.91.28.32.52.6.74.8.29.33.6.63.94.91a43.1 43.1 0 0 1 4.2 5.12l.87 1.15A17.08 17.08 0 0 1 40 31.73c-.6-.03-.96-.33-1.3-.6-.18-.16-.36-.3-.57-.4-.31-.16-.65-.28-1-.4-.42-.16-.84-.31-1.24-.52l-.53-.3c-.54-.29-1.08-.58-1.48-.85-.19-.12-.31-.26-.42-.38-.15-.16-.27-.29-.46-.32-.46-.06-.88.22-1.33.53-.43.28-.85.56-1.28.53-.68-.03-.98-.63-1.25-1.18a2.5 2.5 0 0 0-.48-.75c-2.15.79-3.57 2.27-4.99 3.78a.74.74 0 0 1-.34.15l-.23.07-.18.24c-.7.92-1.49 1.94-3.13 1.6-.64-.12-1.13-.58-1.6-1.02-.24-.23-.48-.45-.73-.62a5.22 5.22 0 0 0-.8-.79c-.12-.08-.25-.2-.38-.31-.23-.22-.48-.45-.77-.47-.45-.04-.8.27-1.14.56-.29.25-.57.49-.88.5-.2.02-.42-.16-.63-.35-.2-.16-.4-.33-.58-.35-.24-.01-.38.1-.56.23-.12.1-.27.2-.47.28-.1.04-.23.05-.36.07-.12.01-.24.02-.34.07-.22.08-.4.23-.58.37-.16.13-.32.26-.5.33-.18.06-.38.07-.57.08-.17 0-.32.02-.45.06-.22.05-.4.16-.58.27-.26.16-.51.32-.87.28-.05-.87.68-1.67 1.26-2.3l.24-.27c.94-1.06 1.89-2.03 2.9-3.07l1.22-1.26.43-.5c.52-.61 1.2-1.42 1.72-1.48.82-.11 1.52.5 2.2 1.08h.01c.65.6 1.28 1.15 1.99 1.13.6-.02.95-.48 1.3-.94.2-.3.42-.59.7-.77.6-.53 1.2-1.12 1.74-1.7a525.59 525.59 0 0 0 3.74-4.06Zm2.01.9c.45.38.02 1.65-.97 2.83-1 1.19-2.16 1.84-2.61 1.47-.46-.38-.02-1.65.97-2.83 1-1.19 2.16-1.84 2.61-1.47Z" fill="#FBA31C"/></svg>