<!-- by TradeStack --><svg width="56" height="56" viewBox="0 0 56 56" xmlns="http://www.w3.org/2000/svg"><path fill="#F0F3FA" d="M0 0h56v56H0z"/><path d="M12 27.9c0 8.76 7.18 15.89 16 15.89s16-7.13 16-15.9C44 19.13 36.82 12 28 12s-16 7.13-16 15.9Z" fill="#454545"/><path d="M28 12.31c-8.65 0-15.69 7-15.69 15.58 0 8.6 7.04 15.8 15.69 15.8 8.65 0 15.69-7.2 15.69-15.8 0-8.59-7.04-15.58-15.69-15.58ZM28 44c-8.82 0-16-7.34-16-16.1C12 19.12 19.18 12 28 12s16 7.13 16 15.9C44 36.65 36.82 44 28 44ZM13.77 28c0-7.85 6.38-14.23 14.23-14.23 7.85 0 14.23 6.38 14.23 14.23 0 7.85-6.38 14.23-14.23 14.23A14.25 14.25 0 0 1 13.77 28ZM13 28a15 15 0 1 0 30 0 15 15 0 0 0-30 0Zm1.31 0A13.7 13.7 0 0 1 28 14.31 13.7 13.7 0 0 1 41.69 28 13.7 13.7 0 0 1 28 41.69 13.7 13.7 0 0 1 14.31 28ZM14 28a14 14 0 1 0 28 0 14 14 0 0 0-28 0Z" fill="url(#avhalzjgo)"/><path d="M40 30H16v1h24v-1ZM18.22 29c-1.27 0-2.22-.89-2.22-2v-.01c0-1.1.93-1.99 2.26-1.99.82 0 1.3.24 1.7.6l-.6.62a1.69 1.69 0 0 0-1.1-.44 1.22 1.22 0 1 0 0 2.44c.5 0 .8-.18 1.13-.46l.61.55c-.45.42-.94.69-1.78.69M23.13 29l-.34-.89h-1.6l-.34.89H20l1.62-4h.76L24 29h-.87ZM22 26.05l-.5 1.3h1l-.5-1.3ZM26.13 29c-.6 0-1.16-.22-1.6-.62l.48-.6c.35.28.7.47 1.14.47.34 0 .55-.14.55-.37v-.01c0-.22-.13-.33-.77-.5-.76-.2-1.26-.42-1.26-1.19 0-.71.56-1.18 1.33-1.18.51 0 1.01.17 1.41.5l-.44.64a1.76 1.76 0 0 0-.98-.38c-.32 0-.49.15-.49.34 0 .26.16.34.82.52.77.2 1.2.49 1.2 1.16v.01c0 .77-.57 1.2-1.4 1.2M30 25.81V29h-1v-3.19h-1V25h3v.81h-1ZM33 25h-1v4h1v-4ZM34 29v-4h1v3.2h1.5v.8H34ZM37 29v-4h3v.78h-2v.81h1.72v.79H38v.84h2V29h-3Z" fill="#D5C264"/><defs><linearGradient id="avhalzjgo" x1="12.09" y1="27.98" x2="44.09" y2="27.98" gradientUnits="userSpaceOnUse"><stop stop-color="#00FF8F"/><stop offset="1" stop-color="#00A1FF"/></linearGradient></defs></svg>