<?xml version='1.0' encoding='utf-8'?>
<!-- by TradeStack -->
<svg width="56" height="56" viewBox="0 0 56 56" xmlns="http://www.w3.org/2000/svg"><path fill="#F0F3FA" d="M0 0h56v56H0z" /><path d="M44.15 20a13.44 13.44 0 0 1 3.85.63 85.1 85.1 0 0 1-.27 3.7l-.2.03v-.01l-.1-.42a3.87 3.87 0 0 0-1.18-2.1 3.58 3.58 0 0 0-2.14-.85 5.01 5.01 0 0 0-3.71 1.04 6.86 6.86 0 0 0-1.79 2c0 .01 0 0 0 0a6.68 6.68 0 0 1 2.67-2.1 5.23 5.23 0 0 1 3.09-.26c.6.13 1.1.4 1.51.8.5.5.8 1.14.97 1.78a10.01 10.01 0 0 1 .18.8l-.38.05-.01-.01-.1-.45c-.14-.6-.36-1.2-.75-1.7a2.6 2.6 0 0 0-1.7-.94 4.81 4.81 0 0 0-3.15.51c-.63.34-1.18.78-1.65 1.3a8.46 8.46 0 0 0-1.92 4.27c-.03.5-.02.99.02 1.47a7 7 0 0 0 .59 2.33c.18.4.41.75.7 1.07a3.37 3.37 0 0 0 2.17 1.12 5.56 5.56 0 0 0 2.56-.47 6.9 6.9 0 0 0 1.93-1.31 10.31 10.31 0 0 0 1.4-1.56l.22.08c.01 0 .02 0 .01.02l-.42.93a27.49 27.49 0 0 1-1.48 2.7 17.51 17.51 0 0 1-3.44.56 11.79 11.79 0 0 1-2.7-.19 7.58 7.58 0 0 1-2.47-1 5.5 5.5 0 0 1-2.18-2.81h-.01a5.26 5.26 0 0 0 2.4 3.5 6.2 6.2 0 0 0 2.35.92 9.46 9.46 0 0 0 2.81.16 14.92 14.92 0 0 0 2.8-.44h.01l-.29.45c0 .01 0 .02-.02.02-1.12.25-2.23.37-3.34.38-.67 0-1.33-.06-1.97-.18a7.79 7.79 0 0 1-2.01-.66 6.08 6.08 0 0 1-1.73-1.28 5.75 5.75 0 0 1-1.36-2.58 8.81 8.81 0 0 1 .22-4.58l.1-.42a7.91 7.91 0 0 1 2.98-4.23 10.08 10.08 0 0 1 2.34-1.28A11.91 11.91 0 0 1 43.7 20h.44Zm-25.7 0a13.48 13.48 0 0 1 3.84.63 81.47 81.47 0 0 1-.27 3.7l-.19.03-.01-.01c-.05-.26-.1-.5-.17-.7-.09-.33-.22-.65-.4-.95a3.21 3.21 0 0 0-.96-1.07c-.43-.3-.91-.49-1.46-.59a5.12 5.12 0 0 0-3.47.55 6.44 6.44 0 0 0-2.46 2.44h.01a6.67 6.67 0 0 1 2.67-2.11 5.06 5.06 0 0 1 3.08-.26c.87.2 1.53.67 1.98 1.4.16.25.28.53.39.82a7.34 7.34 0 0 1 .28 1.16l-.37.06-.01-.02-.13-.55a5 5 0 0 0-.34-.98 2.69 2.69 0 0 0-2.03-1.54 4.8 4.8 0 0 0-2.46.17 5.38 5.38 0 0 0-2.41 1.66 8.55 8.55 0 0 0-1.9 4.23c-.04.8 0 1.56.14 2.32.07.35.17.72.3 1.1.19.48.43.91.73 1.3a3.3 3.3 0 0 0 2.67 1.3 5.48 5.48 0 0 0 3.15-1.03 10.57 10.57 0 0 0 2.38-2.34l.23.08a.01.01 0 0 1 0 .01 28.31 28.31 0 0 1-1.9 3.65c-.71.19-1.43.33-2.17.44-.97.14-1.93.16-2.87.09a8.8 8.8 0 0 1-2.62-.65c-.46-.2-.88-.45-1.28-.75a5.41 5.41 0 0 1-1.85-2.57 5.53 5.53 0 0 0 1.82 3.07c.35.3.71.53 1.1.72.85.43 1.82.67 2.8.76.6.05 1.22.06 1.88.01a15.89 15.89 0 0 0 2.76-.42l-.29.45a.02.02 0 0 1-.01 0 15.9 15.9 0 0 1-4.18.36 9.99 9.99 0 0 1-2.23-.43 6.4 6.4 0 0 1-2.5-1.5 5.72 5.72 0 0 1-1.44-2.46A7.4 7.4 0 0 1 8 29.66v-.38a8.99 8.99 0 0 1 .43-2.54l.06-.25a7.89 7.89 0 0 1 3-4.4 9.94 9.94 0 0 1 2.39-1.3 11.89 11.89 0 0 1 4.14-.79h.43Zm8.64 1.58v.01h3.16c.35 0 .68.02.97.06.61.07 1.06.38 1.34.92.09.17.16.33.22.5a5.9 5.9 0 0 1 .24 1.17l-.38.04a.02.02 0 0 1-.02-.02l-.07-.43a4.28 4.28 0 0 0-.28-.94 1.26 1.26 0 0 0-.83-.77 3.24 3.24 0 0 0-.97-.13h-.42a2197.74 2197.74 0 0 1-3.06 0l-.9 4.57c0 .02.01.02.02.02h1.65a30.7 30.7 0 0 0 1.58-.07c.3-.03.61-.09.9-.17.47-.12.87-.33 1.2-.63.23-.2.42-.48.57-.82l.02-.02h.16c.02 0 .02 0 .02.02l-.95 4.73h-.22l-.03-.27c-.04-.49-.25-.9-.67-1.17-.16-.1-.3-.17-.45-.21a4.9 4.9 0 0 0-1.08-.21c-.23-.02-.62-.04-.94-.04a1550.7 1550.7 0 0 0-1.98.01l-.12.58.02.01h2c.32 0 .63.03.95.06.15.01.33.05.54.1.34.1.64.26.9.5.18.18.26.4.3.65a7.06 7.06 0 0 1 .02.66h-.38c-.01 0-.02 0-.02-.02a60.41 60.41 0 0 1-.03-.67.59.59 0 0 0-.13-.28 1.58 1.58 0 0 0-.64-.4 3.97 3.97 0 0 0-1.22-.17l-.38-.01a1131.09 1131.09 0 0 0-2 0 557.27 557.27 0 0 0-.62 3.3c-.05.3-.07.57-.07.84 0 .2.04.44.16.61.1.16.26.28.45.35.3.11.64.15.97.16.26.02.57.02.9.02.6-.01 1.24-.05 1.9-.11.37-.04.76-.1 1.18-.19.24-.05.47-.13.7-.23l.15-.12.38-.35a7.58 7.58 0 0 0 1.38-1.73l.14.04v.02a61.43 61.43 0 0 1-1.42 3.63H21.37a.01.01 0 0 1-.01 0 .01.01 0 0 1 0-.02l3.07-14.95.01-.01h9.6l.01.02-.39 3.6h-.01l-.19.02-.01-.01a3.9 3.9 0 0 0-.88-2.16c-.17-.2-.45-.3-.73-.37l-.63-.1-.67-.03h-2.46a3 3 0 0 0-.47.04.57.57 0 0 0-.44.33l-.08.24ZM21.13 36l.08-.38v-.01h10.42v.01l-.17.39H21.12v-.01Z" fill="#5330C1" /></svg>