<!-- by TradeStack --><svg width="56" height="56" viewBox="0 0 56 56" fill="none" xmlns="http://www.w3.org/2000/svg">
<rect width="56" height="56" fill="#F0F3FA"/>
<path d="M39.6897 26.5451C39.306 26.6568 38.7412 26.4895 38.5403 26.1994C38.4923 26.1296 38.4545 26.0531 38.4281 25.972C38.334 25.6811 38.4913 25.5031 38.784 25.5631C39.1487 25.6378 39.6183 26.1473 39.6897 26.5451Z" fill="#B1171E"/>
<path fill-rule="evenodd" clip-rule="evenodd" d="M32.5139 33.1509C33.1717 31.0705 34.6931 29.9876 36.6009 29.3438L36.6003 29.343C36.4227 29.0843 36.422 29.0833 36.1162 29.1849C34.5477 29.7105 33.8089 30.5628 32.7842 31.7451L32.7831 31.7463L32.7773 31.753C32.7147 31.8252 32.651 31.8987 32.586 31.9734C32.7526 31.2337 33.1592 30.6202 33.7188 30.11C34.4226 29.4685 35.2517 29.0517 36.1143 28.6707C36.005 28.4107 35.8887 28.1573 35.7739 27.9073L35.7738 27.9071L35.7737 27.9069L35.7737 27.9069C35.3756 27.0399 34.9967 26.2147 35 25.3043C35.001 25.0456 35.118 24.6951 35.241 24.327C35.4718 23.6358 35.7235 22.8821 35.2672 22.5551C34.9095 22.3006 34.4916 22.1604 34.0732 22.0201C33.5988 21.861 33.1237 21.7016 32.7344 21.375C32.1684 20.8981 31.6943 20.4668 31.5339 19.7285C31.4118 19.1709 29.6582 20.0808 29.4033 20.2391C27.9512 21.1415 26.4066 22.4839 26.0938 24.3073C25.9986 24.8607 25.9993 25.4052 25.9999 25.9344V25.9344L26 26.0628C26 26.9933 26.0745 27.8743 26.7969 28.6707C26.8679 28.7498 26.9376 28.8261 27.0061 28.9011C27.327 29.2523 27.6193 29.5722 27.875 30C27.7423 29.9476 27.6112 29.9 27.4816 29.853C27.1764 29.7423 26.879 29.6345 26.5855 29.4718C25.415 28.8227 25 27.6665 25 26.4518C25 25.6543 25.0977 24.8316 25.1867 24.1105C25.4502 21.9017 27.904 20.3995 29.7017 19.5035C30.2766 19.2168 31.1285 19 31.7838 19C31.9816 19 32.0702 19.0728 32.125 19.2921C32.6699 21.4598 35.409 22.4017 37.057 21.1567C37.126 21.4432 36.9752 21.7631 36.5851 22.2217C36.9132 22.517 37.4904 22.1422 37.8547 21.3562L38.3266 21.8434C37.6824 22.3235 37.3932 23.8729 37.8393 24.376C37.8804 24.3434 37.9208 24.3072 37.9617 24.2705C38.1618 24.0912 38.3739 23.9011 38.7315 24.0703C37.8851 24.9525 37.9241 27 39.2345 27.0044C39.3848 27.0014 39.5519 26.9708 39.7362 26.9074C40.7143 26.5739 39.0645 25.212 38.5938 25C39.7921 25.0533 40.3424 25.7053 40.5579 26.9531C40.7863 28.2602 41.1446 29.4151 42.2455 30.3127C42.4105 30.4477 42.5969 30.3821 42.8038 30.3093C43.0848 30.2104 43.4035 30.0982 43.7577 30.4573C43.8763 30.5771 44.0039 30.6805 44.1315 30.7839L44.1315 30.7839C44.3348 30.9486 44.5382 31.1133 44.7061 31.3447C45.0886 30.8762 45.3647 30.391 45.266 29.7702C45.1895 29.2782 44.7808 29.2519 44.3597 29.2247C44.1493 29.2112 43.9359 29.1974 43.7592 29.1253C42.9796 28.8074 42.4186 27.6986 42.626 26.8641C42.7679 26.2946 43.1338 25.8861 43.6003 25.5809C43.7912 25.4561 43.8502 25.3182 43.8486 25.0993C43.8387 23.6295 42.712 23.2007 41.4925 22.9418C41.9337 22.5153 42 22.1196 42 21.7528C42 20.5628 40.3225 19.6757 39.0786 19.0179L39.0785 19.0179L39.0784 19.0179L39.0782 19.0178C38.8323 18.8877 38.6033 18.7666 38.4076 18.6539C37.7367 18.268 36.9995 18.1301 36.26 17.9938C35.7821 17.9055 35.1713 18.0976 34.7355 18.3102C35.2132 18.4355 35.5793 18.7101 35.9446 18.984C36.2587 19.2196 36.5722 19.4547 36.9556 19.5942C37.2278 19.6931 37.4364 19.8366 37.4425 20.1505C37.4652 21.2829 35.5115 21.4975 34.7513 21.2934C32.4958 20.688 31.9203 17.1994 34.3662 16.3955C34.2617 16.5634 34 17.0394 34 17.3507C34.005 17.5172 34.1099 17.6366 34.3191 17.6366C34.6438 17.6366 34.9527 17.611 35.2546 17.5859C35.9652 17.527 36.6375 17.4713 37.3878 17.7598C37.4786 17.7946 37.7001 17.8897 37.9645 18.0034C38.6324 18.2904 39.5745 18.6954 39.38 18.543C38.3869 17.8582 37.8234 15.2411 39.3299 14.7086C39.4672 15.4538 40.0759 15.9932 40.6774 16.5262C41.3431 17.1161 42 17.6982 42 18.543C42 19.126 41.6652 19.2961 41.2307 19.4976C42.3857 20.0047 42.9641 21.469 42.7024 22.6537C43.8629 22.9295 44.4424 23.7314 44.5916 24.9423C45.4699 24.4711 45.6977 23.721 45.9773 22.8007L46.022 22.6537C46.3336 21.6368 46.4076 20.5896 46.3482 19.5314C46.3285 19.1857 46.2942 18.853 46.2595 18.5164L46.2594 18.5162C46.2419 18.3459 46.2242 18.1745 46.2083 18C46.2174 18 46.2264 17.9975 46.2353 17.995C46.2525 17.9901 46.2693 17.9854 46.2854 18C47.4006 19.1306 48 20.4777 48 22.0006C48 24.2277 47.3517 26.6159 45.9642 28.348C45.8719 28.4633 45.785 28.5835 45.6927 28.7109L45.6925 28.7111L45.6924 28.7112C45.6437 28.7786 45.5934 28.848 45.5401 28.9198C45.5463 28.9291 45.5539 28.94 45.5624 28.9522C45.5847 28.9846 45.6133 29.0258 45.6396 29.0684C45.911 29.5087 45.8162 29.8615 45.7284 30.1881C45.6659 30.4207 45.607 30.64 45.6862 30.8682C45.8698 31.3996 45.7309 31.8538 45.3165 32.2019C44.8121 32.6327 44.175 32.8634 43.5201 32.8524C43.1242 32.8524 42.8836 32.7658 42.6889 32.343C42.4655 31.8578 42.1406 31.4187 41.8195 30.9847C41.7737 30.9228 41.7279 30.8609 41.6826 30.7991C41.4647 30.5026 40.585 29.777 40.3096 30.3759C40.0028 31.0493 40.3946 31.1436 40.8092 31.2434C41.031 31.2968 41.2593 31.3517 41.3907 31.4977C41.5862 31.7146 41.81 31.9391 42.0397 32.1696L42.0398 32.1696L42.0398 32.1696L42.0398 32.1696L42.0398 32.1696L42.0398 32.1696C42.3085 32.4392 42.5853 32.7168 42.8345 33H42.4529C42.0431 32.8381 41.6535 32.5786 41.2798 32.3297C41.1942 32.2728 41.1095 32.2163 41.0256 32.1618C41.0024 32.1467 40.9492 32.1056 40.8773 32.0501C40.5765 31.8177 39.95 31.3337 39.8481 31.4612C39.7582 31.5756 40.2584 32.1024 40.5839 32.4452C40.7092 32.5772 40.8087 32.6819 40.8386 32.7253C41.2354 33.3012 41.4676 33.8323 41.7214 34.4128C41.8695 34.7515 42.0249 35.1069 42.2247 35.4979C42.4849 35.8432 42.4525 36.4262 41.9505 36.7791C41.859 36.84 41.7705 36.8996 41.6843 36.9576C40.786 37.5626 40.1344 38.0014 38.856 38C38.3216 37.9994 37.8132 37.7494 37.6241 37.25C37.5024 36.9219 37.6632 36.5312 37.7888 36.226L37.7888 36.226L37.7888 36.226L37.7976 36.2045C37.9796 35.7602 37.8748 35.2452 37.4873 34.9725C37.2452 34.8011 36.9753 34.6758 36.6903 34.6026L36.5547 34.5688C35.7185 34.3596 34.5235 34.0607 33.8618 34.7126C33.7014 34.8716 33.4902 34.9745 33.25 34.8319C33.0401 34.7129 32.4273 34.9896 32.0112 35.1774C31.8721 35.2402 31.7549 35.2931 31.6823 35.3179C31.6699 35.2996 31.6772 35.3179 31.6907 35.329C31.9543 35.5125 32.0022 35.8371 32 36.1407C31.9986 36.3248 31.9703 36.5053 31.875 36.6794C31.6551 37.0807 31.346 37.1924 30.9541 37.3339L30.954 37.3339C30.8773 37.3616 30.7975 37.3905 30.7145 37.4229C30.7255 37.4748 30.7375 37.5245 30.7491 37.5725C30.8151 37.8454 30.8684 38.0661 30.6559 38.3413C30.5538 38.4731 30.4268 38.5304 30.3041 38.5858C30.1582 38.6517 30.0184 38.7148 29.9341 38.8972C32.8127 38.4899 35.1681 37.376 37.0327 35.1327C37.4992 35.3787 37.6531 35.7105 37.4294 36.1604C36.9653 37.0945 37.5943 38.4458 38.7215 38.4382C40.1807 38.4293 41.1178 37.9417 42.126 37H42.4529C40.2656 42.375 33.3919 45 28.625 45C18.25 45 11 37.875 11 27.75C11 18.875 18.6875 11 28.0576 11C33.2414 11 37.1318 13.0654 38.5429 14.4089C38.4382 14.6691 38.2718 14.9473 38.0991 15.2359C37.6917 15.917 37.2499 16.6557 37.5031 17.3507C37.3104 17.3072 37.1299 17.2593 36.9566 17.2133L36.9566 17.2133C36.5338 17.1012 36.1538 17.0004 35.744 17.0014C35.3823 17 34.9974 17.0379 34.5393 17.1955C34.5971 16.9757 34.6514 16.7877 34.7058 16.5991L34.7058 16.5991C34.7602 16.4107 34.8148 16.2217 34.8732 16C33.762 16 32.6124 16.4117 32.3173 17.7598C31.0452 17.3215 30.0729 17.0014 28.2109 17.0014C22.5 17.0014 17 21.125 17 28.0408C17 31.375 18.312 33.5836 19.7514 35.3179C19.3188 33.1493 19.5224 30.8047 20.3317 28.7358C19.5105 28.2912 19 27.4862 19 26.5782C19.0031 26.1838 19.1167 25.8137 19.2308 25.4417C19.3377 25.0931 19.4451 24.7429 19.4627 24.3696C19.4903 23.7912 20.4688 23 21.028 23C21.54 23 21.1916 24.1211 21.028 24.3073C20.891 24.4623 20.66 24.6254 20.4293 24.7883L20.4293 24.7884C20.143 24.9905 19.857 25.1924 19.7514 25.3782C19.249 26.3436 19.4198 27.8684 20.6968 28.0408C21.4899 26.2156 22.4886 24.8656 23.9698 23.5758C24.2637 23.3184 24.6271 23.1098 25 23C24.9837 23.077 24.9717 23.1606 24.9593 23.2466L24.9593 23.2466L24.9593 23.2466L24.9593 23.2466L24.9593 23.2466L24.9593 23.2466C24.9188 23.5275 24.8747 23.8326 24.6684 24.0094C22.7936 25.5946 21.025 27.462 20.533 29.9487C19.9963 32.6587 20.6709 34.295 21.9453 36.6046L20.8923 35.7427C20.9259 35.8172 20.9572 35.892 20.9883 35.9663C21.1205 36.2822 21.2486 36.5882 21.5258 36.8176C22.4217 37.5592 23.511 38.1109 24.6544 38.4666C24.4816 37.7023 24.2626 37.5811 23.9118 37.3871C23.7236 37.283 23.4975 37.1579 23.2203 36.9015L24.3817 37.136C24.389 36.216 24.8301 35.5007 25.2935 34.7969C27.0014 32.2017 26.8993 31.6456 24.5447 29.7011C24.4554 29.6265 24.3481 29.4366 24.446 29.3577C24.4979 29.3798 24.55 29.401 24.6022 29.4222L24.6023 29.4222C24.7146 29.4679 24.827 29.5136 24.9357 29.5676C25.0365 29.6175 25.1375 29.6664 25.2383 29.7152L25.2385 29.7153C25.9215 30.0461 26.592 30.3709 27.1026 30.9589C28.2024 32.224 26.815 33.9093 25.9423 34.9694C25.882 35.0427 25.8241 35.113 25.7697 35.18C28.1316 35.7129 30.3872 35.2634 32.6196 34.4369C30.4718 32.4571 28.948 30.0414 28.6147 27.1105C28.441 25.6454 28.9275 24.3188 29.4661 23C29.5186 23.5535 29.4854 24.1551 29.4496 24.8025C29.325 27.0607 29.1697 29.8763 32.5139 33.1509ZM26.9186 38.9103C26.1821 38.848 25.4306 38.7043 24.7004 38.4808C24.851 38.2108 24.894 37.812 24.9385 37.3991C25.0326 36.5249 25.1335 35.5881 26.2782 35.6803C27.1321 35.748 26.3459 37.0866 26.0207 37.6403C25.9738 37.7201 25.9365 37.7836 25.915 37.8246C25.7666 38.1088 25.7824 38.1259 26.0307 38.3246C26.1813 38.4445 26.3148 38.501 26.4384 38.5532C26.6113 38.6264 26.7648 38.6913 26.9186 38.9103ZM37.837 34.5986C37.2194 32.4523 34.4589 31.7404 33.0136 33.6023C33.0382 33.6285 33.0639 33.6542 33.0897 33.6799C33.2509 33.841 33.4142 34.0043 33.3348 34.3017C34.5813 33.8833 35.8081 33.8376 37.0396 34.2843C36.9079 34.1813 36.7711 34.0874 36.6348 33.9938C36.3769 33.8167 36.1208 33.6408 35.9042 33.4076C36.4226 33.1562 37.7153 34.4984 37.8886 34.8974C38.093 35.3695 38.4226 35.7479 38.7754 36.1353C38.8509 36.0237 38.9163 35.9217 38.9753 35.8296C39.3789 35.2004 39.4833 35.0378 40.4422 35.4605C40.4895 35.3903 40.509 35.305 40.528 35.2213C40.5652 35.0583 40.6008 34.9017 40.8386 34.8768C41.0327 34.8563 41.1341 34.9691 41.2428 35.09C41.3067 35.1611 41.3731 35.235 41.4624 35.2861C41.5063 34.9425 41.4774 34.6706 41.3456 34.3395C41.0609 33.6817 40.5638 32.6811 39.9383 32.2806C39.5311 32.7436 38.8309 32.9848 38.408 32.8012C38.4397 32.7917 38.4751 32.7816 38.5131 32.7708L38.5132 32.7707C38.9459 32.6472 39.7239 32.425 39.4162 31.89C39.1377 31.4085 38.7667 31.7493 38.4523 32.0381C38.2394 32.2336 38.0525 32.4054 37.9376 32.2822C38.1497 32.0003 38.3615 31.7184 38.573 31.4365C38.0064 31.0699 35.6249 30.5819 34.9349 32.0016C36.309 32.1924 37.7728 33.1078 37.837 34.5986ZM41.0792 29.773C41.0094 29.6586 40.9392 29.5429 40.8685 29.4263L40.8683 29.426C40.6309 29.0347 40.3876 28.6338 40.1372 28.2383C39.8756 27.8871 39.4363 27.6707 39 27.4557C38.5386 27.2284 38.0805 27.0027 37.8393 26.6209C37.401 25.9319 37.0212 24.1546 37.1318 23.3758C37.3223 22.0437 35.6929 23.1072 36.041 23.6198C36.3967 24.1295 36.2619 24.781 36.1311 25.4126C36.0637 25.7382 35.9974 26.0585 36 26.3515C36.0153 28.09 37.4684 29.4892 38.9381 30.1919C39.0403 30.2408 39.1519 30.3109 39.2663 30.3827C39.4656 30.5078 39.6734 30.6383 39.855 30.6719C39.7929 30.2912 39.7451 29.9169 40.1072 29.6761C40.3706 29.5008 40.6061 29.5962 40.8307 29.6872C40.9148 29.7212 40.9973 29.7546 41.0792 29.773ZM26.6784 38.0285C27.2547 38.7353 28.0781 39.0156 29.0624 39.0156C29.7195 39.0156 30.3821 37.3435 29.803 37.5421C29.3966 37.6814 29.0105 37.8797 28.639 38.0933L28.6148 38.0644C28.5975 38.0437 28.5801 38.0228 28.5619 38.0019C28.6651 37.9275 28.7685 37.8534 28.872 37.7792L28.872 37.7792L28.8721 37.7791L28.8721 37.7791L28.8722 37.7791L28.8722 37.779C29.479 37.344 30.0863 36.9085 30.6598 36.4302C31.0107 36.1359 30.8867 35.8275 30.4612 35.753C29.6577 35.6118 28.8269 35.7262 28.0184 35.8376H28.0183L28.018 35.8376C27.8949 35.8546 27.7723 35.8715 27.6504 35.8873C27.9023 36.8663 27.3227 37.4167 26.7294 37.9801L26.6784 38.0285ZM46.8722 19.6251C47.7057 22.8466 46.6692 24.2266 44.9352 26.5351L44.8075 26.7051C44.6147 26.9734 44.5068 27.2519 44.5916 27.5781C44.7102 28 44.945 28 45.153 28C45.9527 28 47.2046 24.7314 47.304 24.4618C47.9008 22.8448 47.8757 21.0698 46.8722 19.6251ZM36.8758 20.3194C36.5591 20.19 36.3208 19.9316 36.0858 19.6767C35.7487 19.3112 35.4184 18.953 34.8732 18.9933C34.4593 19.0235 33.5295 17.9706 33.5299 17.5456C31.9762 19.2606 35.2442 22.1299 36.8758 20.3194ZM32.276 16.6535C32.4068 16.1662 32.5241 15.6884 32.6411 15.2114L32.6411 15.2113L32.6411 15.2112C32.7567 14.7403 32.8721 14.2702 33 13.7927L32.3173 13.5773L32.2756 13.7291L32.2747 13.7325L32.2725 13.7407C32.1932 14.0293 32.1171 14.307 32.0382 14.5962L31.835 14.5338L32.1049 13.5169L31.3758 13.3098L31.0511 14.5222C30.9033 15.0742 30.7559 15.6248 30.6069 16.1802L31.3349 16.3861L31.5965 15.424L31.6607 15.1879L31.8635 15.2503L31.8031 15.4805C31.7186 15.8029 31.6349 16.1224 31.5489 16.4481L32.276 16.6535ZM26.6435 13.9094L26.6436 13.9095L26.6436 13.9095C26.6833 14.2353 26.7266 14.5908 26.7691 14.8906C26.8398 15.3906 26.8626 15.607 26.7969 15.6254C26.705 15.6512 26.6523 15.5122 26.6376 15.3906C26.6126 15.184 26.588 14.9772 26.5634 14.7705L26.5634 14.7699L26.5633 14.7694L26.5632 14.7689L26.5632 14.7684C26.534 14.5228 26.5048 14.2772 26.4749 14.0319C26.4504 13.8306 26.4249 13.6294 26.399 13.4254L26.3989 13.4248L26.3615 13.129L25.6047 13.2284C25.6315 13.4309 25.6577 13.632 25.6838 13.832L25.6838 13.832L25.6838 13.832L25.6838 13.8321L25.6838 13.8321C25.7627 14.4373 25.8403 15.0323 25.9289 15.6254C26.0138 16.1961 26.8422 16.2346 27.2383 16.0129C27.5213 15.8539 27.6316 15.5793 27.5818 15.1601C27.5613 14.9867 27.5411 14.8129 27.5209 14.6391L27.5209 14.639L27.5209 14.6389L27.5209 14.6388C27.4923 14.3924 27.4636 14.1458 27.4338 13.8996C27.3987 13.6067 27.3594 13.3056 27.3181 13L26.539 13.102C26.5671 13.2822 26.6034 13.5806 26.6435 13.9094ZM24.6373 15.2092C24.7703 15.1604 24.9866 15.0662 25.0977 15.0162C25.3761 14.8906 25.3841 14.7765 25.3159 14.4629C25.2577 14.2123 25.1849 13.9656 25.0977 13.7242C25.0229 13.5096 24.8559 13.3701 24.6385 13.4062C24.3522 13.4547 24.0693 13.5236 23.7815 13.5938L23.7814 13.5938L23.7812 13.5938L23.7812 13.5939L23.7812 13.5939L23.781 13.5939C23.6605 13.6233 23.5391 13.6529 23.4162 13.6812C23.5036 13.9919 23.5895 14.2975 23.6745 14.6004L23.6747 14.6011C23.86 15.2611 24.0417 15.9081 24.2282 16.5655L24.9527 16.347C24.8479 15.9732 24.7498 15.6197 24.6483 15.2535L24.6358 15.2084L24.6373 15.2092ZM37.8601 30.3C37.7822 30.2433 37.7043 30.1877 37.627 30.1324C37.4391 29.9981 37.2538 29.8657 37.0755 29.7241C36.9897 29.6474 36.865 29.6229 36.7578 29.6618C36.294 29.7985 32.3427 32.3532 33.2376 32.9514C33.7514 32.5042 34.2018 32.1086 34.6746 31.6305C35.4439 30.7754 36.5179 30.5638 37.5858 30.3534C37.6768 30.3354 37.7678 30.3175 37.8586 30.2992L37.8601 30.3ZM29 16V13.584H29.5V13H27.6953V13.584H28.2109V16H29ZM40.6103 19.4153C41.5854 18.4941 40.5957 17.3109 39.8777 16.6411C39.6147 16.3978 39.4696 16.1377 39.3195 15.8687L39.3195 15.8687C39.2407 15.7274 39.1605 15.5837 39.0611 15.4386C38.9163 15.8273 38.8855 16.2311 39.1325 16.5954C39.2689 16.8018 39.4235 17.0076 39.58 17.2161L39.58 17.2161L39.58 17.2161L39.58 17.2161L39.58 17.2161L39.58 17.2161C40.0852 17.8891 40.6103 18.5885 40.6103 19.4153ZM30.3371 16.1552L30.4476 15.3502C30.5462 14.6329 30.6435 13.9245 30.7419 13.2061L29.992 13.1004L29.5871 16.0447L30.3371 16.1552ZM43.4454 26.2612C42.3621 27.0935 43.617 28.9772 44.7991 28.8547C45.1383 28.8196 45.556 28.631 45.6511 28.2741C44.3778 28.8216 43.3979 27.3979 43.4454 26.2612ZM42.5104 31.0654C42.6802 31.1702 42.8448 31.3065 43.0104 31.4437C43.4681 31.8228 43.9334 32.2082 44.5392 31.9523C44.3541 31.8149 44.2076 31.6334 44.0619 31.453C43.871 31.2165 43.6816 30.982 43.4091 30.8512C43.1076 30.6974 42.7158 30.7908 42.5104 31.0654ZM40.6527 36.2498C40.3875 35.7673 40.0139 35.5718 39.678 35.7189C39.3873 35.846 39.2601 36.2049 39.3773 36.5816L40.6527 36.2498ZM42.126 36.247C42.045 35.8289 41.7211 35.5798 41.3367 35.6298C40.9966 35.6739 40.7908 35.908 40.8127 36.247H42.126ZM38.0818 37.2647L39.1575 36.6718C38.861 36.3098 38.5383 36.1993 38.2569 36.3539C37.9121 36.54 37.9917 36.956 38.0818 37.2647ZM21.6584 16.2108L22.242 17.3012L22.9062 16.9296L21.5224 14.3152L20.8574 14.6875L21.3427 15.6147L21.1599 15.7243L20.6599 14.7952L19.9968 15.1676L21.3818 17.7825L22.0457 17.4105L21.4745 16.3192L21.6584 16.2108ZM15.5601 22.0882L15.5466 22.1172L14.3873 21.7536L13.9062 22.6637L16.524 23.9844L16.8728 23.3198L15.3711 22.625L15.3908 22.5949C15.8801 22.7185 16.9844 23.0625 16.9844 23.0625L17.1862 22.6271L15.8337 21.723L15.8526 21.69L17.3014 22.3891C17.3842 22.2096 17.4591 22.0466 17.5355 21.8804L17.5356 21.8802L17.5364 21.8783L17.5846 21.7735L14.9654 20.5018C14.873 20.7027 14.7836 20.8969 14.694 21.0915L14.6939 21.0915L14.5445 21.4158L15.5601 22.0882ZM18.1898 18.8038L18.1602 18.8438L19.1246 19.7682L18.6037 20.3341L16.4686 18.2657C16.5556 18.1805 16.6408 18.0958 16.7252 18.0121L16.7254 18.0118L16.7255 18.0118L16.7256 18.0117C16.9204 17.8183 17.1107 17.6294 17.3072 17.4479C17.522 17.2495 17.7574 17.2368 17.9966 17.4041C18.1213 17.4968 18.2378 17.6008 18.3444 17.7149C18.4885 17.8599 18.5658 18.0273 18.4112 18.2812C18.7432 18.0968 18.9352 18.2705 19.1257 18.4592C19.2635 18.5965 19.4035 18.7313 19.5487 18.871L19.5488 18.8711L19.5495 18.8717L19.5496 18.8719C19.6181 18.9378 19.6877 19.0047 19.7587 19.0736L19.2757 19.6009C19.1732 19.5021 19.0725 19.4047 18.9727 19.3082L18.9701 19.3056L18.969 19.3046L18.9686 19.3042C18.8347 19.1747 18.7026 19.0469 18.5704 18.9198C18.5612 18.911 18.5519 18.9019 18.5426 18.8928C18.4949 18.846 18.4452 18.7972 18.3876 18.7779L18.3726 18.7726C18.318 18.7532 18.252 18.7296 18.1898 18.8038ZM19.2038 15.7339L18.3401 16.4222C18.8313 17.2913 19.3143 18.1457 19.8086 19.0188L20.4269 18.5272L20.1537 18.0749L20.3538 17.9136L20.707 18.3046L21.3199 17.8194L19.2038 15.7339ZM18.5013 20.4784L17.7493 21.58L15.5044 19.961C15.4862 19.9476 15.4685 19.9328 15.4487 19.9163C15.4296 19.9003 15.4085 19.8827 15.3831 19.8632C15.6219 19.5135 15.8565 19.1694 16.1015 18.8097L16.5784 19.1551C16.5147 19.2504 16.4547 19.3399 16.3918 19.4337L16.297 19.5751L16.7306 19.893L17.0061 19.5024L17.4552 19.8271C17.3808 19.9395 17.3148 20.0404 17.2423 20.1512L17.1943 20.2244L17.6967 20.5908L18.0298 20.1362L18.5013 20.4784ZM13.3581 24.3362L16.3127 24.8544L16.1485 25.5078C16.1485 25.5078 15.338 25.6106 14.986 25.6822L16.1041 25.9162L15.9766 26.5183C15.9766 26.5183 14.4813 26.248 13.8146 26.1113C13.6479 26.0768 13.4811 26.0431 13.3028 26.007L13.3027 26.0069L13.3007 26.0065L13.3005 26.0065L13.1511 25.9762C13.1896 25.7783 13.2668 25.3594 13.2668 25.3594L14.4948 25.1536L13.2668 24.9375C13.3053 24.73 13.3581 24.3362 13.3581 24.3362ZM14.2904 29.6966H13.1175V29.6954L13.0722 29.2988L13.0722 29.2986C13.0488 29.093 13.0259 28.893 13.0023 28.6873L14.2002 28.541C14.3435 28.5235 14.5041 28.5052 14.6721 28.4861L14.6722 28.4861L14.6722 28.4861L14.6733 28.486L14.6747 28.4859L14.6751 28.4858C15.0902 28.4386 15.5496 28.3864 15.9017 28.3281C15.9017 28.3281 15.9267 28.8291 15.9456 29.0147L14.3506 29.2134V29.2531H15.973C15.9878 29.3642 15.9998 29.4637 16.0122 29.5659C16.0195 29.6265 16.0269 29.6881 16.0351 29.7535L14.4423 30.1986L14.4473 30.2264L16.0667 30.034L16.1438 30.7096L13.2756 31.0581C13.2378 30.7398 13.1511 30.1362 13.1511 30.1362C13.4669 30.0309 14.2904 29.6966 14.2904 29.6966ZM14.8445 33.2811C14.2122 33.5045 14.0672 33.8466 14.3305 34.4475C14.3386 34.4658 14.3467 34.4837 14.3552 34.5015C14.5245 34.8544 14.7045 34.9983 15.0492 34.9983C15.3939 34.9983 15.8277 34.6597 15.9055 34.3072C15.9513 34.1077 15.987 33.9058 16.0123 33.7024C16.042 33.4496 16.2051 33.3376 16.4141 33.2823C16.4685 33.268 16.5884 33.2811 16.6069 33.3519C16.6254 33.4226 16.5606 33.4886 16.5143 33.5184C16.4276 33.5744 16.3343 33.6194 16.2368 33.6665L16.2368 33.6665L16.2368 33.6665C16.196 33.6861 16.1546 33.7061 16.1126 33.7274L16.4087 34.3883C16.4634 34.3576 16.5166 34.3284 16.5686 34.2999L16.5689 34.2997L16.5689 34.2997L16.5689 34.2997L16.569 34.2997L16.5691 34.2996L16.5692 34.2996C16.6761 34.2409 16.7781 34.1849 16.8775 34.1248C17.4109 33.8042 17.1059 32.9883 16.7268 32.6755C16.3056 32.3241 15.5204 32.7471 15.3939 33.2239C15.3509 33.3873 15.3262 33.5559 15.3016 33.7244L15.3016 33.7245C15.2917 33.7917 15.2819 33.8589 15.2709 33.9257C15.2385 34.1244 15.1078 34.2957 14.9297 34.3072C14.8788 34.3104 14.8141 34.2961 14.7782 34.2067C14.7514 34.1402 14.8102 34.0982 14.8492 34.0703L14.8553 34.066C14.9431 34.01 15.0344 33.9601 15.1286 33.9166L14.8445 33.2811ZM16.5884 32.1502L13.8173 32.9974L13.8158 32.9966C13.694 32.5754 13.5779 32.1736 13.4576 31.7559L14.0155 31.5874L14.1346 31.9806L14.1632 32.0751L14.669 31.9209C14.6305 31.7639 14.5946 31.6204 14.5534 31.4571L15.0708 31.2981C15.1194 31.446 15.1656 31.5871 15.2192 31.7516L15.8084 31.5747L15.7774 31.4612L15.6607 31.0327L16.2175 30.8602L16.3607 31.3586L16.3609 31.3594L16.3614 31.3611C16.4365 31.6225 16.5112 31.8826 16.5884 32.1502ZM16 26.8186L15.926 28.1494L13.1461 27.938C13.124 27.9361 13.1038 27.9326 13.0811 27.9288C13.0581 27.9248 13.0326 27.9205 13 27.9168C13.012 27.7008 13.0218 27.4866 13.0316 27.2708L13.0316 27.2707L13.0316 27.2707C13.0409 27.0644 13.0504 26.8567 13.062 26.6445L13.6477 26.6947C13.6426 26.809 13.6375 26.9163 13.6322 27.0288L13.6322 27.0292L13.6322 27.0294L13.6242 27.1993L14.1588 27.2483L14.1926 26.7718L14.7439 26.8186C14.7384 26.9532 14.734 27.0736 14.7293 27.2058L14.7261 27.2933L15.3445 27.3484L15.3945 26.7875L16 26.8186ZM17.516 18.1415C17.7088 18.0171 17.769 18.0413 17.9841 18.2857C18.0693 18.3823 18.1044 18.4709 17.9718 18.583L17.516 18.1415ZM19.9615 17.3766L19.2795 16.6283L19.249 16.6478C19.3514 16.8238 19.4539 16.9984 19.5586 17.177L19.5586 17.177L19.5592 17.1779C19.6279 17.295 19.6975 17.4137 19.7688 17.5355L19.9615 17.3766ZM24.4928 14.6653L24.29 13.9743C24.4567 13.8809 24.5249 13.9619 24.574 14.0867C24.72 14.4654 24.7103 14.5743 24.4928 14.6653ZM45.9849 28.6998C45.9338 28.7779 45.8872 28.8491 45.8453 28.9044C46.0914 29.4031 46.0645 29.7141 46.0293 30.1208C46.0153 30.2824 46 30.4591 46 30.6687C46 31.0289 46 31.6172 45.7812 31.6834C46.2088 31.8897 46.6529 32.0026 47.1329 32C47.8327 31.9962 49 31.8886 49 30.9908C48.9936 30.7595 48.8516 30.6025 48.7051 30.4406C48.5695 30.2908 48.4302 30.1367 48.3911 29.9156C48.3663 29.7879 48.3539 29.6525 48.3415 29.5158C48.3082 29.1505 48.2741 28.7765 47.9988 28.5197C47.6595 28.202 47.1875 28.0023 46.7543 28.0023C46.4417 28.0022 46.1804 28.4013 45.9849 28.6998ZM47.9415 30.41C47.4066 30.1052 46.8944 30.4119 46.5057 30.793C46.515 30.685 46.5233 30.5814 46.5315 30.4807C46.5479 30.2779 46.5633 30.087 46.583 29.8957C46.6015 29.7193 46.5293 29.5174 46.4588 29.3204C46.3767 29.0908 46.2968 28.8677 46.3657 28.699C46.3722 28.683 46.9062 28.5093 46.9424 28.5197C47.7223 28.7451 47.8789 28.8525 47.906 29.621C47.9119 29.7865 47.9553 29.8895 47.9913 29.975C48.0468 30.1066 48.0848 30.1968 47.9415 30.41ZM47.2605 30.8386C47.2859 30.8707 47.3113 30.9027 47.3381 30.9309L46.3957 31.2481C46.4129 30.9125 46.8177 30.5563 47.08 30.6687C47.1492 30.6984 47.2048 30.7685 47.2605 30.8386ZM48.2844 30.5921C48.4328 30.6433 48.5186 30.8839 48.4603 31.0678L47.5842 30.9403C47.6884 30.6994 48.0524 30.5124 48.2844 30.5921Z" fill="#B1171E"/>
</svg>
