<?xml version='1.0' encoding='utf-8'?>
<!-- by TradeStack -->
<svg width="56" height="56" viewBox="0 0 56 56" xmlns="http://www.w3.org/2000/svg"><path d="M0 28a28 28 0 1 1 56 0 28 28 0 1 1-56 0Z" fill="#F0F3FA" /><path d="M43.9 25.34a16.5 16.5 0 0 1-1.42 5.72 16.76 16.76 0 0 1-4.85 6.03 33.93 33.93 0 0 1-10.73 6.1c-1.41.47-2.85.83-4.37.78-.14-.24.05-.4.14-.58a46.63 46.63 0 0 0 4.46-13.3c.04-.23.07-.46.18-.67.04-.06.08-.1.14-.14a34.51 34.51 0 0 1 5.13-2c3-.98 6.1-1.57 9.23-1.94.5-.06 1-.07 1.48-.15.21-.03.44-.03.61.15Z" fill="#AF005B" /><path d="M43.9 25.34c-2.44.12-4.84.5-7.22 1.02a46.33 46.33 0 0 0-9.17 3.02c-.18-.14-.17-.34-.14-.53.52-3.5.93-7.03 1.54-10.53.05-.13.12-.25.26-.3a36.11 36.11 0 0 1 6.54-2.41c2.4-.59 4.82-.9 7.28-.96.23 0 .32.06.35.27.48 3.46.84 6.93.56 10.42Z" fill="#F37A27" /><path d="m29.17 18.01-.08.22c-.82.61-1.76 1.04-2.61 1.6A29.42 29.42 0 0 0 13.9 37.06c-.05.2-.08.42-.2.6a.13.13 0 0 1-.16.03c-.4-.83-.47-1.74-.66-2.62-.48-2.2-.8-4.42-.88-6.68-.19-5.32 2.34-9.09 6.95-11.7a51.78 51.78 0 0 1 8.9-3.82c.84-.29 1.69-.56 2.63-.87-.54 2.04-1.02 4-1.32 6.01Z" fill="#642E8E" /><path d="M13.55 37.69h.1c.72-.78 1.64-1.33 2.5-1.94a67.4 67.4 0 0 1 10.5-6.13c.21-.1.43-.37.73-.16-.2 1.77-.64 3.49-1.11 5.2a43.92 43.92 0 0 1-3.74 9.31c-2.99.2-5.53-.67-7.43-3.01a6.78 6.78 0 0 1-1.55-3.27Z" fill="#005D6F" /><path d="M27.38 29.46a48.14 48.14 0 0 0-5.17 2.61 72.3 72.3 0 0 0-8.2 5.43c-.1.08-.24.13-.37.2a23.55 23.55 0 0 1 1.81-5.39 29.82 29.82 0 0 1 13.3-14c.11-.05.23-.05.35-.08L27.5 29.1c-.01.09 0 .19 0 .28l-.13.08Z" fill="#00AD9A" /><path d="M42.25 31.52c-1.1 2.2-2.7 4.02-4.62 5.57a35.5 35.5 0 0 1-9.15 5.53v-.1c0-6.2 5.14-11.22 11.48-11.22.79 0 1.55.08 2.3.22Z" fill="#E20867" /></svg>