<?xml version='1.0' encoding='utf-8'?>
<!-- by TradeStack -->
<svg width="56" height="56" viewBox="0 0 56 56" xmlns="http://www.w3.org/2000/svg"><path fill="#F0F3FA" d="M0 0h56v56H0z" /><path d="M18 19c0-.34.02-.67.05-1h2.01A8 8 0 1 0 31 11.58V18h4l-7 8-7-8h6v2h-2l3 3 3-3h-2V9a10.05 10.05 0 0 1 3.36 19 10 10 0 0 1 5.6 10h-2.02A8 8 0 1 0 25 44.42V38h-4l7-8 7 8h-6v-2h2l-3-3-3 3h2v11a10.05 10.05 0 0 1-3.36-19A10 10 0 0 1 18 19Z" fill="url(#amivpl1zw)" /><defs><linearGradient id="amivpl1zw" x1="28" y1="46.98" x2="28" y2="9" gradientUnits="userSpaceOnUse"><stop stop-color="#1662A3" /><stop offset="1" stop-color="#17305E" /></linearGradient></defs></svg>