<!-- by TradeStack --><svg width="56" height="56" viewBox="0 0 56 56" fill="none" xmlns="http://www.w3.org/2000/svg">
<rect width="56" height="56" fill="#F0F3FA"/>
<path fill-rule="evenodd" clip-rule="evenodd" d="M44 33H12V23H48V26H15V30H44V33ZM8 22L11 19H48V22H12L11 23V33L12 34H17V37H11L8 34V22ZM44 34L45 33V30H48V34L45 37H40V34H44ZM19.1313 37C18.9701 37.0021 18.831 36.9737 18.6813 36.9167C18.5321 36.8544 18.3971 36.7651 18.2836 36.6538C18.161 36.5395 18.0782 36.3919 18.0463 36.2312C18.0118 35.9887 17.9966 35.7439 18.001 35.4992C17.9957 35.2554 18.012 35.0116 18.0498 34.7704C18.0801 34.6073 18.163 34.4572 18.287 34.3412C18.3991 34.2306 18.5331 34.1424 18.6813 34.0816C18.9837 33.9728 19.3173 33.9728 19.6197 34.0816C19.7613 34.1451 19.89 34.2318 20 34.3378L19.5988 34.7172C19.5365 34.6542 19.4648 34.6004 19.386 34.5575C19.3084 34.5238 19.2235 34.5078 19.1383 34.5109C19.0641 34.5096 18.9904 34.5232 18.922 34.5508C18.855 34.5775 18.7953 34.6185 18.7476 34.6706C18.6886 34.7443 18.6513 34.8315 18.6394 34.9235C18.6104 35.113 18.5988 35.3045 18.6045 35.4958C18.5989 35.6882 18.6094 35.8807 18.6359 36.0715C18.6573 36.1776 18.7078 36.2764 18.7824 36.3577C18.828 36.4007 18.8827 36.434 18.9429 36.4552C19.0031 36.4765 19.0673 36.4852 19.1313 36.4808C19.2167 36.4855 19.3019 36.4695 19.379 36.4342C19.4594 36.3935 19.5314 36.3394 19.5918 36.2745L19.993 36.6572C19.8829 36.7622 19.7542 36.8478 19.6128 36.91C19.4672 36.9693 19.2896 37 19.1313 37ZM22.7365 36.6777C22.644 36.7794 22.5342 36.8605 22.4133 36.9166C22.285 36.9752 22.1391 37.0034 22 36.9995C21.8579 37.0041 21.7241 36.9759 21.5928 36.9166C21.4626 36.856 21.3453 36.7668 21.2482 36.6545C21.1401 36.5413 21.0675 36.3939 21.0408 36.2332C21.009 35.9916 20.9958 35.7475 21.0012 35.5035C20.9959 35.2605 21.0091 35.0175 21.0408 34.777C21.0686 34.6148 21.1409 34.4656 21.2482 34.3491C21.3466 34.2393 21.4636 34.1514 21.5928 34.0903C21.7863 34.0003 22.0005 33.9769 22.2066 34.0231C22.4126 34.0694 22.6008 34.1831 22.7457 34.3491C22.8551 34.4657 22.9287 34.6164 22.9561 34.7803C22.9888 35.0197 23.0031 35.2615 22.9988 35.5035C23.0042 35.7475 22.991 35.9916 22.9592 36.2332C22.927 36.4021 22.8495 36.5568 22.7365 36.6777ZM22.0076 34.5315C21.7731 34.5255 21.5884 34.713 21.5623 34.9395C21.5407 35.1299 21.5325 35.3217 21.5379 35.5134C21.5332 35.7072 21.5403 35.9011 21.5593 36.0939C21.5972 36.3089 21.7586 36.5082 21.9924 36.4953C22.2356 36.5125 22.3889 36.301 22.4255 36.0807C22.4481 35.8926 22.4573 35.703 22.4529 35.5134C22.4567 35.3217 22.4486 35.13 22.4285 34.9395C22.4127 34.7151 22.2384 34.5229 22.0076 34.5315ZM24.5103 35.1567L25.4897 37H26V34H25.5L25.4897 35.8365L24.5103 34H24V37H24.5L24.5103 35.1567ZM28.7195 36.7159C28.6312 36.8105 28.5251 36.8832 28.4085 36.9289C28.2763 36.9771 28.1376 37.0011 27.9981 37H27V34.0001H27.9919C28.1304 33.9984 28.2681 34.0224 28.3992 34.0711C28.5303 34.1215 28.6486 34.2049 28.7444 34.3146C28.8477 34.4225 28.9191 34.5615 28.9496 34.7137C28.987 34.906 29.0037 35.1023 28.9993 35.2988V35.6776C29.0035 35.8796 28.9868 36.0816 28.9496 36.2796C28.9139 36.4464 28.8339 36.5982 28.7195 36.7159ZM28.3464 34.7069C28.3005 34.6478 28.2431 34.6004 28.1784 34.5683C28.1032 34.5364 28.0228 34.5214 27.9421 34.5243H27.5441V36.4791H27.9484C28.0159 36.4873 28.0842 36.4788 28.1483 36.4542C28.2124 36.4296 28.2705 36.3896 28.3184 36.3371C28.3881 36.2506 28.4324 36.1434 28.4459 36.0293C28.464 35.8497 28.4713 35.6689 28.4676 35.4882C28.4714 35.3142 28.4641 35.1402 28.4459 34.9674C28.4341 34.8726 28.3998 34.7828 28.3464 34.7069ZM30.2882 36.7115C30.4845 36.9052 30.7359 37.0086 31.0007 37C31.2614 37.0058 31.5204 36.9025 31.7132 36.7115C31.8083 36.6156 31.8831 36.4985 31.9326 36.3682C31.9822 36.2379 32.0051 36.1414 32 36.0005V34.0005H31.5007V36.0005C31.5134 36.2236 31.2357 36.5144 31.0007 36.5005C30.7572 36.5156 30.4867 36.2344 30.5007 36.0005V34.0005H30.0014V36.0005C29.9963 36.1414 30.0193 36.2379 30.0688 36.3682C30.1183 36.4985 30.1932 36.6156 30.2882 36.7115ZM34.4 37L33.8839 35.8032H33.5V37H33V34.0013H34.0327C34.0255 34.0013 34.0327 34.002 34.0495 34.0035C34.1083 34.0087 34.2846 34.0245 34.3679 34.0598C34.4749 34.1051 34.5725 34.175 34.6548 34.265C34.7306 34.35 34.7904 34.4517 34.8303 34.5639C34.8703 34.6762 34.8895 34.7965 34.8869 34.9175C34.8929 35.0971 34.8446 35.2737 34.75 35.4178C34.6627 35.5505 34.5425 35.6506 34.4048 35.7052L35 37H34.4ZM34 34.5H33.5V35.3029H34C34.0962 35.3057 34.1898 35.267 34.2619 35.1947C34.3268 35.1179 34.3631 35.0155 34.3631 34.909C34.3631 34.8025 34.3268 34.7002 34.2619 34.6234C34.1892 34.5525 34.0958 34.4966 34 34.5ZM35.5 34V37H36V34H35.5ZM37 37V34H37.5V36.5H39V37H37Z" fill="#282878"/>
</svg>
