<!-- by TradeStack --><svg width="56" height="56" viewBox="0 0 56 56" xmlns="http://www.w3.org/2000/svg"><path fill="#F0F3FA" d="M0 0h56v56H0z"/><path d="M35 26.19h-2.67v1.38h1.17v1h-1.17v1.23H35V31h-4v-6h4v1.19ZM21.75 25H23v6l-3.75-3.34V31H18v-6l3.75 3.33V25ZM11 24.88A4.5 4.5 0 0 0 8.31 24C5.94 24 4 25.8 4 28.01 4 30.21 5.94 32 8.3 32c1.02 0 1.96-.33 2.7-.87v-1.77a4.24 4.24 0 0 1-2.7 1.07c-1.44 0-2.62-1.09-2.62-2.43s1.18-2.44 2.63-2.44c.9 0 2 .43 2.69 1.08v-1.76Z" fill="#6D6E71"/><path d="M21.78 28.38h3.32v-.64h-4.02l.7.64ZM19.31 27.7h-3.84v.68h4.59l-.75-.68ZM47.08 25h-1.93l3.02 3.09L45.32 31h1.93l2.85-2.91L47.08 25Zm.78 6 2.86-2.91L47.69 25H51A1 1 0 0 1 52 26v4a1 1 0 0 1-1 1h-3.14Zm-5.18-6h1.86l3.02 3.09L44.71 31h-2.03c-1.97 0-3.41-.68-4.66-1.28l-.74-.34a10.62 10.62 0 0 0-3.78-.81v-1.01c.5.03 2.34-.38 3.78-1.01l.6-.28a10.8 10.8 0 0 1 4.8-1.27Z" fill="#E08253"/><path d="m16.42 31-.83-1.29h-2.22L12.58 31H11l3.48-6h.04L18 31h-1.58Zm-2.48-2.25h1.09l-.53-1.18-.56 1.18Z" fill="#6D6E71"/><path d="M14.57 27.68c-1.13 0-3.84.03-4.37-.08-.23-.05-.5-.13-.79-.22-.55-.18-.77-.38-1.33-.38-.86 0-1.08.43-1.08 1.02 0 .6.26.98 1.08.98.5 0 .9-.2 1.64-.4 1.07-.26 1.97-.2 3.07-.22h2.07l-.3-.7Z" fill="#E08253"/><path d="M27 31a3 3 0 1 1 .01-6 3 3 0 0 1-.02 6Zm0-1.17a1.83 1.83 0 1 0 0-3.66 1.83 1.83 0 0 0 0 3.66Z" fill="#6D6E71"/><path d="M25.19 27.74H31v.64h-5.79s-.04-.2-.04-.3c-.01-.2.02-.34.02-.34Z" fill="#E08253"/></svg>