<!-- by TradeStack --><svg width="56" height="56" viewBox="0 0 56 56" fill="none" xmlns="http://www.w3.org/2000/svg">
<rect width="56" height="56" fill="#F0F3FA"/>
<path d="M9 27H8C7.90843 26.3182 7.17693 26 6.6153 26C5.61139 26 5 26.9514 5 28C5 29.0486 5.59806 30 6.60716 30C7.19322 30 7.89105 29.6204 8 28.9943L9 29C8.85397 30.2732 7.75599 31 6.58817 31C4.96406 31 4 29.6193 4 28C4 26.3882 4.97055 25 6.58817 25C7.81527 25 8.85213 25.6825 9 27Z" fill="black"/>
<path fill-rule="evenodd" clip-rule="evenodd" d="M9 31H10.1932L10.5489 30H13.4892L13.8542 31H15L12.8508 25H11.1522L9 31ZM13.1241 29L12 25.9207L10.9047 29H13.1241Z" fill="black"/>
<path fill-rule="evenodd" clip-rule="evenodd" d="M41 31H42.1932L42.5489 30H45.4892L45.8542 31H47L44.8508 25H43.1522L41 31ZM45.1241 29L44 25.9207L42.9047 29H45.1241Z" fill="black"/>
<path fill-rule="evenodd" clip-rule="evenodd" d="M31 31C32.8681 31 34 29.6196 34 28C34 26.3821 32.8672 25 31 25C29.1285 25 28 26.378 28 28C28 29.6206 29.1305 31 31 31ZM31 26C29.5711 26 29 27.0263 29 28C29 28.9737 29.5711 30 31 30C32.4007 30 33 28.9757 33 28C33 27.0272 32.4264 26 31 26Z" fill="black"/>
<path d="M21 25V31H19.9083L17 26.5L17 31H16V25H17.1092L20 29.5L20 25H21Z" fill="black"/>
<path d="M27 25V31H25.9083L23 26.5L23 31H22V25H23.1092L26 29.5L26 25H27Z" fill="black"/>
<path d="M40 25V31H38.9083L36 26.5L36 31H35V25H36.1092L39 29.5L39 25H40Z" fill="black"/>
<path d="M51 25H52V28.8421C52 30.2147 50.8067 31 49.5 31C48.1902 31 47 30.2174 47 28.8421V25H48L48 28.5C48 29.5 48.8124 30 49.5 30C50.1859 30 51 29.5 51 28.5L51 25Z" fill="black"/>
</svg>
