<!-- by TradeStack --><svg width="56" height="56" viewBox="0 0 56 56" xmlns="http://www.w3.org/2000/svg"><path fill="url(#ag2xvo3mh)" d="M0 0h56v56H0z"/><path d="M11.04 21H8v12h9v-3h-5.96v-9ZM16 24h3.12l2.52 5.35L23.88 24H27l-5.43 13h-3.13l1.72-4.1L16 24ZM44.62 24c.47-.66 1.42-2.16 1.42-3.16s-.5-1.64-.74-1.84c.79.53 2.36 1.84 2.36 2.9 0 .31-.1.57-.18.81-.08.22-.16.42-.16.63 0 .37.45.57.68.66l-3.31 4.5L48 33h-3.38L43 30.8 41.38 33H38l3.31-4.5L38 24h3.38L43 26.2l1.62-2.2ZM31 24h-3v9h3v-5.95c.35-.23.78-.4 1.28-.4 1.24 0 1.7 1 1.72 1.5V33h3v-5.6c0-2.24-2.43-3.4-3.98-3.4-.77 0-1.5.27-2.02.55V24Z" fill="#fff"/><defs><linearGradient id="ag2xvo3mh" x1="8.5" y1="8.5" x2="45" y2="49" gradientUnits="userSpaceOnUse"><stop stop-color="#2CA5DC"/><stop offset="1" stop-color="#63349A"/></linearGradient></defs></svg>