<!-- by TradeStack --><svg width="56" height="56" viewBox="0 0 56 56" xmlns="http://www.w3.org/2000/svg"><path fill="#F0F3FA" d="M0 0h56v56H0z"/><path d="M27.18 17c-9.46 0-15.29 1.29-17.01 1.93 3.01 0 4.67.12 5.12.18L39.25 23l2.44-1.78C40.8 19.82 36.65 17 27.2 17Z" fill="#B8E1B5"/><path d="M41.05 22.49c-3.49-6.43-22.42-4.24-31.45-2.35 20.31-.6 24.63 4.44 24.26 7.03l.25.26C41 24 47.57 22.62 50 22.36l-3.57-1.4c-2.14.3-9.1 4.26-12.32 6.21l6.94-4.68Z" fill="#47A147"/><path fill-rule="evenodd" d="M9.9 26.98c.6 0 1.19.15 1.7.4v1.5a4 4 0 1 1 0 4.24v1.45c-.51.26-1.1.4-1.7.4-2.16 0-3.9-1.78-3.9-4 0-2.2 1.74-4 3.9-4ZM19 31v-4h2.57l1.93 3.85V27H26v8h-2.33l-2.17-3.87V35H19v-4Zm-7.78 1.32a4 4 0 0 1 .02-2.68 1.53 1.53 0 0 0-.88-.27c-.86 0-1.57.72-1.57 1.6 0 .9.7 1.62 1.57 1.62.32 0 .62-.1.86-.27ZM16.5 31a1.5 1.5 0 1 1-3 0 1.5 1.5 0 0 1 3 0Zm25.5.02a4 4 0 1 1 0-.04V27h4.1c1.36 0 2.4 1.19 2.4 2.65a2.2 2.2 0 0 1-1.39 2.16L49 35h-3.03l-1.47-2.86V35H42v-3.98Zm-4 1.48a1.5 1.5 0 1 0 0-3 1.5 1.5 0 0 0 0 3ZM27 35v-8h3.48c1.95 0 3.52 1.8 3.52 4s-1.57 4-3.52 4H27Zm2.9-5.5h-.4v3h.4c.88 0 1.6-.67 1.6-1.5s-.72-1.5-1.6-1.5Zm15.24-.5h-.64v2h.64c.47 0 .86-.45.86-1s-.39-1-.86-1Z" fill="#231F20"/></svg>