<!-- by TradeStack --><svg width="56" height="56" viewBox="0 0 56 56" xmlns="http://www.w3.org/2000/svg"><path fill="#F0F3FA" d="M0 0h56v56H0z"/><path d="M13.95 31.65h-.03a3.1 3.1 0 0 1-2.29-.95l-.13-.13a3.59 3.59 0 0 1-1-3.07c.06-.32.06-.65 0-.98a3.67 3.67 0 0 1 1-3.06l.17-.17a3.2 3.2 0 0 1 2.28-.95h.03c.42 0 .83-.13 1.18-.37a2.16 2.16 0 0 0 .9-2.23c-.09-.42-.29-.8-.59-1.1a2.11 2.11 0 0 0-2.3-.48 2.2 2.2 0 0 0-1.32 2v.03a3.29 3.29 0 0 1-.94 2.33l-.17.17a3.46 3.46 0 0 1-3 1.01 3.24 3.24 0 0 0-2.77.94 3.38 3.38 0 0 0-.01 4.72 3.24 3.24 0 0 0 2.79.95 3.45 3.45 0 0 1 3 1.02l.13.13a3.27 3.27 0 0 1 .93 2.34v.03a2.2 2.2 0 0 0 1.32 2 2.09 2.09 0 0 0 2.31-.47 2.19 2.19 0 0 0 .47-2.36 2.1 2.1 0 0 0-1.96-1.34Z" fill="url(#abxujlra0)"/><path d="M13.97 22.32a2.14 2.14 0 1 0-.01-4.28 2.14 2.14 0 0 0 0 4.28Z" fill="url(#bbxujlra0)"/><path d="M13.97 36a2.14 2.14 0 1 0-.01-4.28 2.14 2.14 0 0 0 0 4.28Z" fill="url(#cbxujlra0)"/><path d="M26.4 35h-.56l-.65-1.93-.65 1.93H24L23 32.02h.68l.6 2 .65-2.02h.54l.65 2.02.6-2h.66L26.4 35ZM30.4 35l-.26-.67h-1.23l-.26.67H28l1.24-3h.59l1.24 3h-.66Zm-.87-2.22-.39.97h.77l-.38-.97ZM33 32.61V35h-.64v-2.39h-.88V32h2.4v.61H33ZM35 35v-3h2.18v.59h-1.55v.6H37v.6h-1.37v.62h1.58V35H35ZM40.75 35l-.62-.96h-.5V35H39v-3h1.32c.68 0 1.1.38 1.1.99 0 .2-.05.41-.17.58a.91.91 0 0 1-.46.36L41.5 35h-.75Zm.01-1.98c0-.29-.19-.43-.5-.43h-.63v.86h.65c.3 0 .48-.16.48-.42v-.01ZM13 27.52v-.02c0-1.37.97-2.5 2.35-2.5.85 0 1.36.3 1.78.74l-.63.79c-.35-.34-.7-.55-1.15-.55-.76 0-1.31.68-1.31 1.5v.02c0 .84.53 1.53 1.3 1.53.52 0 .84-.23 1.2-.58l.63.69c-.47.53-.98.86-1.85.86-1.33 0-2.32-1.1-2.32-2.48ZM18 25h1v4h2v1h-3v-5ZM22 25h3.4v1H23v1h2v1h-2v1h2.5v1H22v-5ZM28.2 25h.91l1.94 5H30l-.42-1h-1.9l-.41 1h-1.02l1.94-5Zm1.04 3-.6-1.69-.6 1.69h1.2ZM36 29.08l-1-.94v.6l-2-1.92V30h-1v-5h.91L35 26.99V25h1v4.08ZM35 30v-1.23l1 .92V30h-1Z"/><path d="M50 27.55v1.4a1.5 1.5 0 0 1-2-1.44v-.02c0-.83.64-1.5 1.46-1.5s1.4.68 1.4 1.52V27.72l.87.77c.14-.3.2-.64.2-.98v-.02c0-1.38-1.02-2.49-2.46-2.49A2.45 2.45 0 0 0 47 27.5v.02A2.41 2.41 0 0 0 49.46 30c.49 0 .97-.12 1.38-.4L52 30.72v-1.38l-2-1.8Z" fill="url(#dbxujlra0)"/><path d="M44 28h2v-1h-2v-1h2.5v-1H43v5h3.5v-1H44v-1Z" fill="url(#ebxujlra0)"/><path d="M38.5 25h4v1H41v4h-1v-4h-1.5v-1Z" fill="url(#fbxujlra0)"/><path d="M7.28 30.36c1.8 0 3.27-1.5 3.27-3.35a3.31 3.31 0 0 0-3.27-3.34C5.47 23.67 4 25.17 4 27a3.31 3.31 0 0 0 3.28 3.35Z" fill="url(#gbxujlra0)"/><defs><linearGradient id="abxujlra0" x1="4" y1="26.99" x2="16.1" y2="26.99" gradientUnits="userSpaceOnUse"><stop stop-color="#00BCFF"/><stop offset="1" stop-color="#017FFF"/></linearGradient><linearGradient id="dbxujlra0" x1="37.66" y1="27.86" x2="52" y2="27.86" gradientUnits="userSpaceOnUse"><stop stop-color="#00BCFF"/><stop offset="1" stop-color="#017FFF"/></linearGradient><linearGradient id="ebxujlra0" x1="37.69" y1="27.87" x2="52.72" y2="27.87" gradientUnits="userSpaceOnUse"><stop stop-color="#00BCFF"/><stop offset="1" stop-color="#017FFF"/></linearGradient><linearGradient id="fbxujlra0" x1="38.42" y1="27.87" x2="53.46" y2="27.87" gradientUnits="userSpaceOnUse"><stop stop-color="#00BCFF"/><stop offset="1" stop-color="#017FFF"/></linearGradient><linearGradient id="gbxujlra0" x1="4" y1="26.99" x2="10.54" y2="26.99" gradientUnits="userSpaceOnUse"><stop stop-color="#00BCFF"/><stop offset=".4" stop-color="#00B7FF"/><stop offset=".86" stop-color="#01AAFF"/><stop offset="1" stop-color="#01A4FF"/></linearGradient><radialGradient id="bbxujlra0" cx="0" cy="0" r="1" gradientUnits="userSpaceOnUse" gradientTransform="matrix(2.14167 0 0 2.1499 14 20.19)"><stop stop-color="#0199FF"/><stop offset=".48" stop-color="#019CFF"/><stop offset=".81" stop-color="#00A5FF"/><stop offset="1" stop-color="#00AEFF"/></radialGradient><radialGradient id="cbxujlra0" cx="0" cy="0" r="1" gradientUnits="userSpaceOnUse" gradientTransform="matrix(2.14167 0 0 2.1499 14 33.9)"><stop stop-color="#0199FF"/><stop offset=".48" stop-color="#019CFF"/><stop offset=".81" stop-color="#00A5FF"/><stop offset="1" stop-color="#00AEFF"/></radialGradient></defs></svg>