<!-- by TradeStack --><svg width="56" height="56" viewBox="0 0 56 56" xmlns="http://www.w3.org/2000/svg"><path fill="#F0F3FA" d="M0 0h56v56H0z"/><path d="M34.28 42.32C41.68 40.26 47 34.66 47 28.08c0-2.99-1.1-5.77-2.98-8.12l-1.4 3.06c-.52-2.2-2.74-6.59-7.5-6.59-5.98 0-12.36 9.17-12.36 16.17 0 7.01 10.76 6.11 13.83 4.32l-2.31 5.4ZM25.2 43a8.99 8.99 0 0 1-5.1-8.24c0-6.95 2.86-14.76 13.21-19.02v-.28c-7.83.97-18.17 10.38-18.17 20.44 0 1.6.78 3.32 2.27 4.7a22 22 0 0 0 7.8 2.4Zm13.46-27.4A22.52 22.52 0 0 0 28 13C17.5 13 9 19.75 9 28.08c0 1.7.36 3.35 1.02 4.88C12 26 18.89 14.88 34.34 14.88c1.51 0 2.98.28 4.32.71Z" fill="#1D57A5"/></svg>