<!-- by TradeStack --><svg width="56" height="56" viewBox="0 0 56 56" xmlns="http://www.w3.org/2000/svg"><path d="M0 28a28 28 0 1 1 56 0 28 28 0 1 1-56 0Z" fill="#F0F3FA"/><path fill-rule="evenodd" d="M34.56 16.73 21.15 30.35l13.44 13.64L48 30.37 34.56 16.73Zm0 7.15-6.75 6.54 6.66 6.8 6.43-6.52-6.35-6.82Z" fill="#CCCDD2"/><path fill-rule="evenodd" d="M21.41 16.74 8 30.36 21.44 44l13.38-13.71-13.4-13.55Zm-.35 7.18-6.31 6.4 6.69 6.8 6.47-6.56-6.85-6.64Z" fill="#91C4E9"/><path fill-rule="evenodd" d="M27.92 10 14.5 23.64l13.43 13.64 13.44-13.64L27.92 10Zm0 6.88-6.66 6.76 6.66 6.76 6.48-6.57-6.48-6.95Z" fill="#006CB5"/><path d="m27.99 23.41-3.43 3.57 3.35 3.61 3.54-3.73-3.46-3.45Z" fill="#8FA8BB"/><path d="m17.94 27.15 6.82-7.04-3.38-3.47-6.9 7 3.46 3.5Z" fill="#005FA9"/><path d="m34.57 16.75-3.55 3.46 3.33 3.57 3.41 3.52 3.6-3.66-6.79-6.9ZM24.6 33.93l3.31-3.37-3.36-3.58-3.4 3.43 3.45 3.52Z" fill="#005292"/><path d="m28 37.34 3.28-3.42-3.4-3.4-3.38 3.31 3.5 3.51Z" fill="#00437C"/><path d="m34.83 30.27-3.38-3.41-3.57 3.66 3.37 3.39 3.58-3.64Z" fill="#005FA9"/></svg>