<!-- by TradeStack --><svg width="56" height="56" viewBox="0 0 56 56" fill="none" xmlns="http://www.w3.org/2000/svg">
<rect width="56" height="56" fill="#F0F3FA"/>
<path fill-rule="evenodd" clip-rule="evenodd" d="M14.1718 31.9967L14 32.3171H23.0179L41.1371 27.1487L39.5438 24.9851L14.1718 31.9967ZM15.8709 28.827L37.9501 22.821L36.5737 20.952L17.349 26.0697L15.8709 28.827ZM18.8887 23.1974L34.9856 18.7955L33.6416 16.9705L20.3461 20.4788L18.8887 23.1974ZM22.1777 17.062L31.7243 14.367L27.0354 8L22.1777 17.062ZM42.7862 29.3879L32.6727 32.3171H39.1112C40.4373 32.0003 42.4186 31.501 44.0378 31.0876L42.7862 29.3879Z" fill="#FFC222"/>
<path d="M43 40V30H45V40H43Z" fill="black"/>
<path d="M43.9617 28.8737C43.6864 28.8737 43.4502 28.7412 43.2532 28.4763C43.059 28.2072 42.962 27.8855 42.962 27.5113C42.962 27.1412 43.059 26.8237 43.2532 26.5588C43.4502 26.2897 43.6864 26.1552 43.9617 26.1552C44.2369 26.1552 44.4717 26.2897 44.6658 26.5588C44.8628 26.8237 44.9614 27.1412 44.9614 27.5113C44.9614 27.8855 44.8628 28.2072 44.6658 28.4763C44.4717 28.7412 44.2369 28.8737 43.9617 28.8737Z" fill="black"/>
<path d="M24 40V34.2098C24.0056 33.4097 23.9303 32.2292 25.0489 32.2292C26.161 32.2292 26.0037 33.3618 26 34.1215V40H28V33.6421C28 32.1865 27.6976 29.9964 25.7835 29.9964C24.5828 29.9964 24.2595 30.8426 24 31.8319V30H22V40H24Z" fill="black"/>
<path fill-rule="evenodd" clip-rule="evenodd" d="M31.2346 39.9937C30.8087 39.9937 30.4291 39.8865 30.0959 39.672C29.7626 39.4534 29.4989 39.1317 29.3048 38.707C29.1135 38.2781 29.0179 37.7441 29.0179 37.1049C29.0179 36.5667 29.086 36.1146 29.2222 35.7488C29.3584 35.383 29.5438 35.0886 29.7786 34.8657C30.0133 34.6429 30.2799 34.4747 30.5783 34.3612C30.8797 34.2476 31.1955 34.1677 31.5259 34.1215C31.9141 34.0626 32.2271 34.0079 32.4647 33.9575C32.7023 33.9028 32.8747 33.8229 32.9819 33.7178C33.0892 33.6127 33.1428 33.4571 33.1428 33.251V33.2132C33.1428 32.8137 33.0558 32.5047 32.882 32.286C32.711 32.0673 32.4676 31.958 32.1518 31.958C31.8185 31.958 31.5534 32.0652 31.3563 32.2797C31.1593 32.4899 31.0289 32.7549 30.9652 33.0744L29.2526 32.8726C29.3396 32.2839 29.5105 31.7751 29.7655 31.3462C30.0205 30.9131 30.3494 30.5809 30.7522 30.3496C31.1579 30.1141 31.6273 29.9964 32.1604 29.9964C32.5314 29.9964 32.8863 30.0595 33.2254 30.1856C33.5673 30.3118 33.8701 30.5073 34.1338 30.7722C34.4004 31.0371 34.6104 31.3777 34.764 31.794C34.9176 32.2061 35 32.7002 35 33.2763V40H33V38.4673C32.8928 38.7701 32.9356 39.0371 32.7559 39.2684C32.5763 39.4954 32.3604 39.6741 32.1083 39.8045C31.8562 39.9306 31.565 39.9937 31.2346 39.9937ZM31.7649 38.1393C32.8673 38.1393 33 37.1751 33 36.348V35.3199C32.7632 35.5432 32.519 35.6123 32.2083 35.6857C32.0837 35.7109 31.9707 35.7341 31.8692 35.7551C31.6519 35.8014 31.4621 35.8749 31.2998 35.9759C31.1376 36.0768 31.0115 36.2134 30.9217 36.3858C30.8319 36.554 30.787 36.7643 30.787 37.0166C30.787 37.3824 30.8782 37.6621 31.0608 37.8555C31.2462 38.0447 31.4809 38.1393 31.7649 38.1393Z" fill="black"/>
<path d="M40.2631 33.0366L41.9582 32.8852C41.8771 31.9938 41.5931 31.2894 41.1063 30.7722C40.6224 30.255 39.9588 29.9964 39.1156 29.9964C38.5448 29.9964 38.0464 30.1183 37.6204 30.3622C37.1973 30.6061 36.8684 30.953 36.6337 31.403C36.4019 31.8529 36.286 32.389 36.286 33.0114C36.286 33.7346 36.4439 34.3296 36.7598 34.7964C37.0785 35.2631 37.5639 35.5911 38.2159 35.7803L39.372 36.1146C39.6618 36.1987 39.8762 36.3207 40.0153 36.4805C40.1544 36.636 40.2254 36.8358 40.2283 37.0797C40.2254 37.3698 40.124 37.6074 39.9241 37.7924C39.727 37.9732 39.4662 38.0636 39.1417 38.0636C38.8113 38.0636 38.5404 37.9627 38.3289 37.7609C38.1173 37.5548 37.9841 37.2563 37.929 36.8652L36.1078 37.004C36.1976 37.9291 36.5033 38.6607 37.0249 39.199C37.5494 39.733 38.2535 40 39.1373 40C39.7169 40 40.2283 39.8676 40.6717 39.6026C41.1179 39.3335 41.4685 38.9593 41.7235 38.4799C41.9814 38.0006 42.1104 37.4434 42.1104 36.8084C42.1104 36.1104 41.951 35.547 41.6322 35.118C41.3135 34.6891 40.8296 34.378 40.1805 34.1845L38.9722 33.8313C38.6621 33.7346 38.4433 33.6064 38.3158 33.4466C38.1883 33.2868 38.1246 33.0913 38.1246 32.86C38.1246 32.5698 38.2231 32.3386 38.4202 32.1662C38.6172 31.9895 38.8592 31.9012 39.146 31.9012C39.3605 31.9012 39.5445 31.9538 39.698 32.0589C39.8545 32.1599 39.9806 32.2965 40.0762 32.4689C40.1718 32.6371 40.2341 32.8263 40.2631 33.0366Z" fill="black"/>
<path d="M46 40H48V27H46V40Z" fill="black"/>
<path fill-rule="evenodd" clip-rule="evenodd" d="M17.2323 39.9937C16.8064 39.9937 16.4268 39.8865 16.0936 39.672C15.7603 39.4534 15.4966 39.1317 15.3025 38.707C15.1112 38.2781 15.0156 37.7441 15.0156 37.1049C15.0156 36.5667 15.0837 36.1146 15.2199 35.7488C15.3561 35.383 15.5416 35.0886 15.7763 34.8658C16.011 34.6429 16.2776 34.4747 16.576 34.3612C16.8774 34.2476 17.1932 34.1677 17.5236 34.1215C17.9119 34.0626 18.2248 34.0079 18.4624 33.9575C18.7 33.9028 18.8724 33.8229 18.9796 33.7178C19.0869 33.6127 19.1405 33.4571 19.1405 33.251V33.2132C19.1405 32.8137 19.0535 32.5047 18.8797 32.286C18.7087 32.0673 18.4653 31.958 18.1495 31.958C17.8162 31.958 17.5511 32.0652 17.3541 32.2797C17.157 32.4899 17.0266 32.7549 16.9629 33.0744L15.2503 32.8726C15.3373 32.2839 15.5082 31.7751 15.7632 31.3462C16.0182 30.9131 16.3471 30.5809 16.7499 30.3496C17.1556 30.1141 17.625 29.9964 18.1582 29.9964C18.5291 29.9964 18.884 30.0595 19.2231 30.1856C19.565 30.3118 19.8678 30.5073 20.1315 30.7722C20.3981 31.0371 20.6081 31.3777 20.7617 31.794C20.9153 32.2061 20.9977 32.7002 20.9977 33.2763V40H18.9977V38.4673C18.8905 38.7701 18.9333 39.0371 18.7536 39.2684C18.574 39.4954 18.3581 39.6741 18.106 39.8045C17.8539 39.9306 17.5627 39.9937 17.2323 39.9937ZM17.7626 38.1393C18.865 38.1393 18.9977 37.1751 18.9977 36.348V35.3199C18.7609 35.5432 18.5167 35.6123 18.206 35.6857C18.0814 35.711 17.9684 35.7341 17.8669 35.7551C17.6496 35.8014 17.4598 35.8749 17.2975 35.9759C17.1353 36.0768 17.0092 36.2134 16.9194 36.3859C16.8296 36.5541 16.7847 36.7643 16.7847 37.0166C16.7847 37.3824 16.8759 37.6621 17.0585 37.8555C17.2439 38.0447 17.4787 38.1393 17.7626 38.1393Z" fill="black"/>
<path d="M13.6328 36.8239C13.5621 36.9153 13.4854 36.9998 13.4028 37.0775C13.2055 37.2587 12.9794 37.3967 12.7243 37.4914C12.4726 37.5862 12.1988 37.6336 11.9029 37.6336C11.3757 37.6336 10.9114 37.477 10.5101 37.164C10.1087 36.8509 9.79581 36.3875 9.57133 35.7738C9.35025 35.16 9.23971 34.4021 9.23971 33.5C9.23971 32.6226 9.35025 31.8771 9.57133 31.2633C9.7924 30.6454 10.1036 30.1759 10.505 29.8546C10.9063 29.5292 11.3774 29.3664 11.9182 29.3664C12.2175 29.3664 12.4947 29.4179 12.7498 29.5209C13.0083 29.6239 13.2361 29.7722 13.4334 29.9658C13.6307 30.1594 13.7922 30.3942 13.9181 30.6702C13.9436 30.7253 13.9674 30.782 13.9894 30.8403L14.4108 27.7732C14.1449 27.5854 13.8582 27.4306 13.5508 27.3089C13.0338 27.103 12.4726 27 11.8672 27C10.9488 27 10.1223 27.2554 9.38766 27.7662C8.65299 28.2728 8.07139 29.0101 7.64283 29.9781C7.21428 30.9461 7 32.1201 7 33.5C7 34.8758 7.21088 36.0477 7.63263 37.0157C8.05778 37.9837 8.63599 38.7231 9.36725 39.2338C10.1019 39.7446 10.9352 40 11.8672 40C12.5372 40 13.1375 39.8785 13.6681 39.6355C14.1481 39.4133 14.5677 39.1212 14.9268 38.7592L13.6328 36.8239Z" fill="black"/>
</svg>
