<?xml version='1.0' encoding='utf-8'?>
<!-- by TradeStack -->
<svg width="56" height="56" viewBox="0 0 56 56" xmlns="http://www.w3.org/2000/svg"><path fill="#F0F3FA" d="M0 0h56v56H0z" /><path d="M16 20h-3v1h2v5h1v-5h2v-1h-2zm12 0h-5v1h2v5h1v-5h2v-1zm-7 0h-1v6h1v-6zm16 0h1v.07V20l3 4.16V20h1v6h-1v-.02l-3-4.1V26h-1v-6zm-5.62 0L29 26h1.17l.38-1h1.46l.49-1h-1.57l1-2.59L33.7 26h1.12l-2.34-6h-1.1z" fill="#103F83" /><path fill-rule="evenodd" d="M9 29h1v.03l1.99 3L14 29.07V29h1v6h-1v-3.8l-2.01 2.66L10 31.2V35H9v-6zm8 5v-5h4.5v1H18v1.5h3v1h-3V34h3.5v1H17v-1zm12-5h1v6h-1v-6zm17 0h-1v6h4v-1h-3v-5zm-6.64 0h1.32l2.82 6h-1.35l-2.13-4.59-1.2 2.59h1.79l-.43 1h-1.81l.01-.03L37.9 35h-1.4l2.86-6zM23 35v-6h2.17c1.56 0 2.83 1.34 2.83 3s-1.27 3-2.83 3H23zm1-1v-4h.97c1.12 0 2.03.9 2.03 2s-.9 2-2.03 2H24zm10 1a3 3 0 0 0 2.42-1.23l-.76-.66a2 2 0 1 1 0-2.23l.73-.7A3 3 0 1 0 34 35z" fill="#7A888B" /></svg>