<?xml version='1.0' encoding='utf-8'?>
<!-- by TradeStack -->
<svg width="56" height="56" viewBox="0 0 56 56" xmlns="http://www.w3.org/2000/svg"><path fill="#F0F3FA" d="M0 0h56v56H0z" /><path d="m28 52 1.38-7.58A16.71 16.71 0 0 0 44.74 29.7L49 28l-4.26-1.77a16.71 16.71 0 0 0-15.36-14.72L28 4l-1.38 7.5a16.71 16.71 0 0 0-15.36 14.73L7 28l4.26 1.7a16.68 16.68 0 0 0 15.36 14.72L28 52Zm-7.4-16.02-4 1.9a14.58 14.58 0 0 1-3.76-8.3L17 28l-4.16-1.66a14.67 14.67 0 0 1 3.71-8.26l4.08 1.9-1.43-4.21a15.33 15.33 0 0 1 8.78-2.75c3.27 0 6.32 1.01 8.78 2.75l-1.47 4.11 4.08-1.84a14.86 14.86 0 0 1 3.75 8.23L39 28l4.12 1.66a14.7 14.7 0 0 1-3.71 8.2L35.29 36l1.51 4.19a15.33 15.33 0 0 1-8.78 2.74c-3.27 0-6.32-1-8.78-2.74l1.36-4.22ZM28 17c5.99 0 11 5.08 11 11s-4.97 11-11 11-11-5.12-11-11 5.01-11 11-11Z" /><path d="M24.38 22h7.24A3.29 3.29 0 0 1 35 25.2v1.53h-5v-1.39a.35.35 0 0 0-.36-.34h-3.28c-.2 0-.36.15-.36.34v5.33c0 .19.16.34.36.34h3.28c.2 0 .36-.15.36-.34V28.5h5v2.3A3.3 3.3 0 0 1 31.62 34h-7.24A3.3 3.3 0 0 1 21 30.78v-5.55A3.3 3.3 0 0 1 24.38 22ZM26.7 13h2.53c.66 0 1.18.5 1.18 1.14v.54h-1.77v-.57c0-.08-.03-.11-.1-.11h-1.11c-.07 0-.11.03-.11.1v2.03c0 .07.04.1.11.1h1.1c.08 0 .11-.03.11-.1v-.8h1.77v.83c0 .65-.52 1.16-1.18 1.16H26.7c-.67 0-1.18-.5-1.18-1.16v-2.02c0-.61.55-1.14 1.18-1.14ZM26.7 38.57h2.53c.66 0 1.18.51 1.18 1.16v.54h-1.77v-.58c0-.07-.03-.1-.1-.1h-1.11c-.07 0-.11.03-.11.1v2.2c0 .07.04.11.11.11h1.1c.08 0 .11-.04.11-.1v-.98h1.77v.83c0 .65-.52 1.25-1.18 1.25H26.7c-.67 0-1.18-.6-1.18-1.25v-2.02c0-.61.55-1.16 1.18-1.16Z" fill="#3F7BC2" /></svg>