<!-- by TradeStack --><svg viewBox="0 0 56 56" xmlns="http://www.w3.org/2000/svg"><path fill="#5E6983" d="M0 0h56v56H0z"/><path d="M5.6 23.52c.01 1.8 1.95 2.56 3.28 1.34.09-.09.17-.08.25.02l.17.22c.04.05.03.1-.02.14A2.49 2.49 0 0 1 5 23.52a2.49 2.49 0 0 1 4.25-1.8c.05.04.05.1.01.15l-.16.22c-.08.1-.16.1-.25.03-1.35-1.2-3.27-.4-3.26 1.4ZM45.32 23.83H44c-.1 0-.16-.05-.16-.15v-.2c0-.09.05-.13.14-.13h1.9c.08 0 .12.03.12.1v1.76l-.02.06a3.22 3.22 0 0 1-3.08.56c-1.55-.49-2.03-2.41-1.2-3.67.89-1.33 2.74-1.47 4.02-.58.02 0 .04.02.05.04a.14.14 0 0 1 0 .12c0 .02-.01.04-.03.05l-.2.2c-.07.05-.13.06-.2.01-1.68-1.11-3.67-.07-3.4 1.84.24 1.61 2.02 2.06 3.36 1.28a.26.26 0 0 0 .1-.1.24.24 0 0 0 .03-.12v-.97c0-.06-.04-.1-.11-.1ZM12.86 21c.06 0 .12 0 .2.02.06.01.11.05.14.11l2.13 4.7c.05.11.02.17-.11.17h-.28a.26.26 0 0 1-.25-.17l-.46-1.04c-.02-.05-.08-.08-.16-.1a52.37 52.37 0 0 0-2.41 0c-.09.02-.14.05-.16.1l-.46 1.04a.26.26 0 0 1-.26.17h-.27c-.13 0-.17-.06-.12-.18l2.14-4.69c.03-.06.08-.1.15-.11l.18-.02Zm-1.05 3.05a.07.07 0 0 0 0 .06l.03.03h.03l1.97.01a.07.07 0 0 0 .06-.06v-.03l-.98-2.23a.06.06 0 0 0-.12 0l-1 2.22ZM18.97 23.65l.03-.01.03-.02a386 386 0 0 1 1.65-2.53.2.2 0 0 1 .18-.09h.37c.08 0 .12.04.12.11v4.74c0 .1-.05.15-.15.15h-.3a.14.14 0 0 1-.1-.04.14.14 0 0 1-.04-.1v-3.67c0-.14-.03-.15-.1-.04A173.45 173.45 0 0 1 19 24.57l-.03.01h-.03l-.02-.02a172.6 172.6 0 0 1-1.64-2.4c-.07-.12-.1-.1-.1.03v3.67c0 .04-.02.07-.05.1a.14.14 0 0 1-.1.04h-.3c-.09 0-.14-.05-.14-.15v-4.74c0-.07.04-.11.12-.11h.37a.2.2 0 0 1 .18.1 442.07 442.07 0 0 1 1.68 2.54h.03ZM26.27 23.48c.82.3 1.17.97.77 1.74-.3.6-1.06.77-1.82.77h-2.07a.16.16 0 0 1-.1-.04.15.15 0 0 1-.05-.1v-4.73c0-.07.04-.1.11-.1.63-.02 1.3-.02 2-.02.44 0 .78.05 1 .16.75.32.98 1.03.62 1.73-.04.07-.2.22-.48.46-.07.06-.06.1.02.13Zm-2.68-1.87.01 1.51a.08.08 0 0 0 .03.06.09.09 0 0 0 .06.03l1.53-.02c.14 0 .28-.02.4-.06.13-.04.25-.1.35-.18.1-.07.17-.16.23-.26.05-.1.08-.2.07-.3v-.09a.72.72 0 0 0-.31-.56c-.2-.15-.47-.23-.76-.23l-1.52.01a.1.1 0 0 0-.06.03.09.09 0 0 0-.03.06Zm0 2.22v1.54a.1.1 0 0 0 .04.07.1.1 0 0 0 .07.03l1.71-.01c.3 0 .6-.09.82-.24.22-.16.34-.37.34-.58v-.1c0-.1-.03-.2-.1-.3a.87.87 0 0 0-.24-.27c-.11-.08-.24-.14-.38-.18-.14-.04-.3-.06-.45-.06H23.7a.1.1 0 0 0-.07.04.09.09 0 0 0-.02.06ZM29 24.15v1.72c0 .08-.04.13-.12.13h-.37c-.08 0-.12-.04-.12-.12v-4.76c0-.06.03-.1.1-.1 1.4-.04 2.31-.02 2.75.04.73.1 1.27.74 1.26 1.47-.02.71-.44 1.18-1.26 1.4-.09.02-.1.07-.05.14l1.42 1.8c.07.08.05.13-.07.13h-.38a.36.36 0 0 1-.3-.14l-1.36-1.72a.22.22 0 0 0-.17-.08H29.1c-.06 0-.1.03-.1.1Zm0-2.54v1.88l.03.03.04.02 1.62-.02c.16 0 .32-.02.47-.07.14-.05.28-.13.4-.22.1-.09.2-.2.25-.31a.8.8 0 0 0 .1-.37v-.07c-.01-.25-.14-.5-.37-.67a1.4 1.4 0 0 0-.87-.28l-1.62.02h-.02l-.02.02-.02.01.01.03ZM34.15 21h-.43a.09.09 0 0 0-.1.09v4.82c0 .05.05.09.1.09h.43c.05 0 .09-.04.09-.09V21.1a.09.09 0 0 0-.1-.09ZM35.63 21.11a.1.1 0 0 1 .03-.07.11.11 0 0 1 .08-.03l1.83-.01c.7 0 1.36.25 1.85.71.5.46.77 1.08.77 1.73v.09c0 .65-.27 1.28-.76 1.74a2.7 2.7 0 0 1-1.84.72l-1.83.01a.11.11 0 0 1-.08-.03.1.1 0 0 1-.03-.07l-.02-4.79Zm.6.48v3.8l.01.04.05.02h1.2a2.17 2.17 0 0 0 1.46-.55 1.92 1.92 0 0 0 .6-1.36v-.08c0-.51-.2-1-.59-1.36-.38-.36-.9-.57-1.45-.57h-1.23a.07.07 0 0 0-.04.04v.02ZM50.62 23.5c0 .18-.15.27-.44.26-.91-.03-1.71-.02-2.42.02-.08 0-.12.04-.12.12v1.49c0 .06.03.1.1.1h3.03c.13 0 .2.06.2.18v.13a.2.2 0 0 1-.07.14.23.23 0 0 1-.15.06h-3.63a.11.11 0 0 1-.08-.03c-.02-.02-.04-.04-.04-.07v-4.79a.1.1 0 0 1 0-.04.1.1 0 0 1 .03-.03.1.1 0 0 1 .04-.02l.04-.02h3.63c.05 0 .11.02.15.06a.2.2 0 0 1 .07.14v.13c0 .12-.07.18-.2.18l-3.02.02c-.07 0-.11.03-.11.1v1.48c0 .08.05.12.13.12.7.04 1.5.04 2.42.01.29 0 .44.08.44.26ZM6.27 32.26c.02 1.57 1.71 2.12 2.82 1.09.08-.08.16-.08.23 0l.57.6c.08.08.08.16 0 .24-1.76 1.66-4.85.66-4.89-1.91-.04-2.57 3-3.67 4.82-2.07.08.07.09.15 0 .24l-.54.61c-.07.09-.15.09-.23.02-1.14-1-2.81-.4-2.78 1.18ZM16.4 32.18a2.67 2.67 0 0 1-.8 1.97 2.88 2.88 0 0 1-2.02.85 2.98 2.98 0 0 1-2.05-.78 2.76 2.76 0 0 1-.88-1.93 2.67 2.67 0 0 1 .8-1.97 2.88 2.88 0 0 1 2.02-.85 2.98 2.98 0 0 1 2.05.77 2.76 2.76 0 0 1 .88 1.94Zm-2.73 1.71a1.57 1.57 0 0 0 1.1-.57 1.66 1.66 0 0 0 .38-1.2 1.69 1.69 0 0 0-.56-1.14 1.6 1.6 0 0 0-2.59.73 1.7 1.7 0 0 0 .5 1.78c.32.29.74.43 1.17.4ZM20.9 32.83h-.95a.11.11 0 0 1-.08-.03.1.1 0 0 1-.03-.08v-.76c0-.08.05-.13.13-.13h2.14c.09 0 .14.05.14.14v2.08a.2.2 0 0 1-.09.17c-1.1.8-2.26.98-3.49.54-1.68-.6-2.14-2.72-1.16-4.1.99-1.4 3.08-1.5 4.41-.55.1.07.11.15.03.24l-.49.59c-.08.1-.18.12-.3.05-1.16-.66-2.43-.57-2.83.86-.39 1.4.94 2.38 2.3 1.96.44-.13.58-.43.4-.88-.02-.07-.07-.1-.14-.1ZM45.15 32.14a2.67 2.67 0 0 1-.77 1.98 2.88 2.88 0 0 1-2.01.88c-.76.02-1.5-.25-2.06-.75a2.71 2.71 0 0 1-.72-2.98 2.75 2.75 0 0 1 1.5-1.55 2.98 2.98 0 0 1 3.15.5c.56.5.89 1.19.91 1.92Zm-2.8 1.75a1.6 1.6 0 0 0 1.13-.53 1.68 1.68 0 0 0-.1-2.35 1.6 1.6 0 0 0-2.29.1 1.68 1.68 0 0 0 .1 2.34c.32.3.74.46 1.17.44ZM25.98 31.94c.37.48.6.76.67.83.08.1.12.09.12-.04V29.7c0-.1.05-.14.14-.14h.99c.07 0 .1.03.1.1v5.19c0 .07-.04.1-.1.12a2.8 2.8 0 0 1-.91-.02.33.33 0 0 1-.18-.1c-.11-.11-.7-.86-1.8-2.25l-.66-.83c-.08-.1-.12-.08-.12.05v3.03c0 .1-.05.14-.14.14h-.99c-.07 0-.1-.04-.1-.1v-5.2c0-.06.04-.1.1-.11.28-.04.58-.04.91.02.07 0 .13.04.18.1.11.11.7.86 1.8 2.24ZM48.98 31.94c.37.48.6.76.67.83.08.1.12.09.12-.04V29.7c0-.1.05-.14.14-.14h.99c.07 0 .1.03.1.1v5.19c0 .07-.04.1-.1.12a2.8 2.8 0 0 1-.91-.02.33.33 0 0 1-.18-.1c-.11-.11-.7-.86-1.8-2.25l-.66-.83c-.08-.1-.12-.08-.12.05v3.03c0 .1-.05.14-.14.14h-.99c-.07 0-.1-.04-.1-.1v-5.2c0-.06.04-.1.1-.11.28-.04.58-.04.91.02.07 0 .13.04.18.1.11.11.7.86 1.8 2.24ZM30.56 29.57h-1.03a.09.09 0 0 0-.1.1v5.24c0 .05.05.09.1.09h1.03c.05 0 .09-.04.09-.1v-5.24a.09.09 0 0 0-.1-.09ZM33.95 29.57h2.12c.07 0 .1.04.1.12v.87a.13.13 0 0 1-.12.12h-1.4c-.07 0-.1.04-.1.12v4.05c0 .07-.04.12-.11.13a4.07 4.07 0 0 1-.99 0c-.07-.02-.1-.06-.1-.13V30.8c0-.08-.04-.12-.12-.12h-1.4a.13.13 0 0 1-.12-.13v-.87c0-.07.04-.1.11-.1h2.13ZM38.17 29.6h-1.08a.1.1 0 0 0-.09.1v5.2c-.01.06.03.1.09.1h1.07a.1.1 0 0 0 .1-.09V29.7a.1.1 0 0 0-.1-.1Z" fill="#fff"/></svg>