<?xml version='1.0' encoding='utf-8'?>
<!-- by TradeStack -->
<svg width="56" height="56" viewBox="0 0 56 56" xmlns="http://www.w3.org/2000/svg"><path fill="#F0F3FA" d="M0 0h56v56H0z" /><path fill-rule="evenodd" d="M27.56 45h.86a4.63 4.63 0 0 0 1.63-.43l10.62-5.89a8.92 8.92 0 0 0 2.12-1.47c1.06-1.17 1.22-2.52 1.2-4.08-.03-3.36-.02-6.97.01-10.85a5.02 5.02 0 0 0-1.3-3.56 7.19 7.19 0 0 0-1.78-1.27l-10.57-5.86a5.11 5.11 0 0 0-3.22-.54c-.56.08-1.52.5-2.88 1.3-.71.41-3.51 1.97-8.4 4.66a11.54 11.54 0 0 0-2.66 1.77 4.7 4.7 0 0 0-1.18 3.17v11.39c-.03 1.63.2 2.76 1.21 3.9.31.36.92.79 1.84 1.3l10.86 6.02c.36.2.91.35 1.64.44Zm.87-15.35h-.05a.07.07 0 0 1-.04-.03.06.06 0 0 1-.01-.03l.01-.04c.38-.48.92-.7 1.64-.68.56.03 1.07.06 1.5.1.07 0 .14-.01.2-.04a.3.3 0 0 0 .13-.13l.16-.3a.22.22 0 0 1 .08-.09.26.26 0 0 1 .13-.03h.62l.04.01.03.03v.04l-.01.04c-.13.13-.22.25-.26.35a.07.07 0 0 0 .01.07l.03.02a.1.1 0 0 0 .04.01l.25.02c1.18.07 2.13.12 2.98-.25a.1.1 0 0 1 .05 0c.02 0 .04 0 .05.02l.02.04v.04c-.33.53-.84.8-1.54.81-.73 0-1.44 0-2.11-.02-.05 0-.09 0-.12.03a.2.2 0 0 0-.08.07c-.53.9-1.02 1.8-1.47 2.72-.08.17-.11.3-.08.42 0 .04.03.09.06.12l.12.1a.43.43 0 0 0 .32.03c.52-.15.86-.42 1.08-.92.37-.88 1.03-2.01 2.25-2.09.38-.02.62.12.7.42 0 .02.02.03.03.04l.05.02.04-.01c.02-.01.03-.02.03-.04l.14-.32c0-.02.03-.04.05-.06a.15.15 0 0 1 .08-.02h.67l.03.03v.05c-.57.8-1.03 1.64-1.37 2.51a.24.24 0 0 0 0 .14c0 .05.03.1.06.13l.13.08h.17c.15-.03.3-.09.42-.17a.9.9 0 0 0 .28-.32l2.07-4.03c.03-.06.08-.1.14-.14a.4.4 0 0 1 .2-.05h.5c.03 0 .05 0 .07.02.02 0 .03.02.05.04a.1.1 0 0 1 .01.05.1.1 0 0 1-.01.06l-.98 1.47a.15.15 0 0 0-.02.1c0 .04.03.07.06.1a.21.21 0 0 0 .23.03c.56-.3 1.24-.07 1.26.54 0 .05 0 .1-.03.16-.1.23-.25.47-.4.72-.25.4-.5.83-.6 1.25v.08l.05.07a.2.2 0 0 0 .09.04h.1c.43-.1.72-.44 1.03-.8l.06-.08a.09.09 0 0 1 .05-.03.1.1 0 0 1 .05 0l.04.04v.04c-.05.23-.19.47-.4.73l-.02.02c-.45.51-.86 1-1.66.92a.31.31 0 0 1-.12-.03.26.26 0 0 1-.1-.08c-.2-.27-.22-.57-.06-.91.22-.5.57-1.08 1.04-1.77a.24.24 0 0 0 .03-.22.26.26 0 0 0-.06-.1.3.3 0 0 0-.1-.06h-.01a.5.5 0 0 0-.28-.04.44.44 0 0 0-.24.13 9.75 9.75 0 0 0-1.68 2.9.2.2 0 0 1-.06.07.25.25 0 0 1-.1.05c-.3.07-.6.06-.93-.03a.25.25 0 0 0-.15 0c-.52.19-.87.06-1.06-.4a.08.08 0 0 0-.02-.02.1.1 0 0 0-.04-.02.1.1 0 0 0-.04 0 .1.1 0 0 0-.04.02l-.16.12c-.25.21-.58.48-1 .38-.35-.09-.55-.34-.61-.76l-.02-.02c0-.01-.01-.02-.03-.02h-.03a3.8 3.8 0 0 1-.62.52c-.48.35-1.51.5-1.72-.2l-.01-.03-.03-.01h-.04l-.03.01a2.4 2.4 0 0 1-1.88.58c-.54-.08-.86-.36-.98-.86l-.01-.03-.03-.01h-.04a.06.06 0 0 0-.02.02c-.76.95-2.9 1.49-3.17-.17l-.01-.03a.08.08 0 0 0-.08-.01.07.07 0 0 0-.03.02c-.24.37-.56.64-.96.83-.51.24-1.17.24-1.18-.43 0-.52.51-1.29.93-1.9l.22-.33c.03-.04.05-.1.05-.15v-.14a.18.18 0 0 0-.04-.07.22.22 0 0 0-.06-.06.28.28 0 0 0-.18-.03c-.81.13-1.59 1.87-1.98 2.76l-.15.34a.17.17 0 0 1-.06.07.2.2 0 0 1-.08.03 1.6 1.6 0 0 1-.9-.05.2.2 0 0 0-.17 0c-.86.42-2.04.24-2.53-.54-.18-.29-.27-.67-.25-1.16.06-1.31.64-2.4 1.75-3.27.73-.57 1.45-.97 2.42-.75 1.7.38.37 2.94-1.23 2.52a.56.56 0 0 1-.23-.12.46.46 0 0 1-.13-.2l-.04-.12v-.08c0-.02.02-.04.04-.06a.17.17 0 0 1 .07-.04.2.2 0 0 1 .08-.01c.68.08 1.16-.2 1.43-.84.05-.12.02-.23-.1-.33-.3-.25-1.02.03-1.27.2-1.16.73-2.25 2.3-1.54 3.55.47.83 1.64.44 2.25-.03.21-.16.43-.48.67-.97.43-.89.96-1.92 1.6-3.08a.26.26 0 0 1 .1-.1.3.3 0 0 1 .15-.04h.6a.1.1 0 0 1 .05 0l.03.04a.07.07 0 0 1 0 .08l-1 1.52a.14.14 0 0 0 .02.18c.02.03.05.04.09.05a.2.2 0 0 0 .1 0c.94-.35 1.67.14 1.15 1a18.77 18.77 0 0 0-.89 1.67c0 .03.02.06.03.08a.2.2 0 0 0 .07.06c.03.02.07.03.1.03.48.05 1.09-.69 1.21-1.1.26-.85.93-1.63 1.89-1.82.95-.19 1.3.42 1 1.13-.3.69-.92 1.03-1.89 1.03-.05 0-.1 0-.14.03a.3.3 0 0 0-.12.09.24.24 0 0 0-.03.25h.01c.05.12.13.2.24.28.1.07.23.12.36.13.85.1 1.68-.28 1.9-1.04.26-.83.9-1.64 1.81-1.89.55-.15 1.22.06 1.22.65 0 .96-1.01 1.55-2 1.5-.04 0-.09 0-.13.03a.3.3 0 0 0-.12.07.25.25 0 0 0-.06.12l.01.13.01.03c.04.1.12.2.22.27.1.08.22.12.34.14 1.16.12 1.68-.39 2.17-1.3l1.09-2.01a.12.12 0 0 0-.01-.13.15.15 0 0 0-.05-.04.17.17 0 0 0-.07-.02c-.17 0-.34-.02-.5-.03a6.8 6.8 0 0 0-2.3.13Zm4.7 3.34c-.31-.15-.24-.78.16-1.42.4-.63.97-1.03 1.27-.88.3.15.23.78-.16 1.41-.4.64-.97 1.03-1.28.89Zm-7.65-1.56c.34-.24.52-.54.4-.67s-.5-.03-.84.21c-.34.24-.51.55-.4.68.13.12.5.03.84-.22Zm3.24.01c.34-.24.52-.55.4-.67-.12-.13-.5-.04-.83.21-.34.25-.52.55-.4.68.12.12.5.03.83-.22Zm-8.36 3.57a10.76 10.76 0 0 0-1.32.05.19.19 0 0 0-.04.12v.1c0 .03.02.06.04.1l.09.04.22.02c.03 0 .06.02.08.05.03.03.04.07.04.1a12.68 12.68 0 0 1 0 .81c0 .04-.01.08-.03.1a.14.14 0 0 1-.1.06l-.21.02a.13.13 0 0 0-.09.05.17.17 0 0 0-.03.1v.16c0 .02.02.04.03.05l.05.04.05.01h.61a9.47 9.47 0 0 0 .67-.02l.04-.03a.19.19 0 0 0 .04-.12v-.1a.17.17 0 0 0-.04-.1.13.13 0 0 0-.09-.04l-.21-.02a.14.14 0 0 1-.1-.05.17.17 0 0 1-.03-.1 12.44 12.44 0 0 1 0-.82c0-.03.01-.07.04-.1a.14.14 0 0 1 .08-.05l.22-.03c.03 0 .06-.02.09-.04a.17.17 0 0 0 .03-.1v-.1a.18.18 0 0 0-.03-.11.15.15 0 0 0-.05-.04.13.13 0 0 0-.05-.01Zm8.39 0a10.76 10.76 0 0 1 .66.01l.05.04.03.05v.16c0 .03-.01.07-.03.1a.13.13 0 0 1-.09.04l-.22.03a.14.14 0 0 0-.08.05.17.17 0 0 0-.04.1 11.32 11.32 0 0 0 .04.92c.02.02.05.04.09.05l.21.02c.04 0 .07.02.09.05l.04.1v.15l-.04.06a.15.15 0 0 1-.04.03 9.53 9.53 0 0 1-1.33 0 .15.15 0 0 1-.05-.03.17.17 0 0 1-.03-.05v-.16c0-.04.01-.07.03-.1a.13.13 0 0 1 .09-.05l.22-.02c.03 0 .06-.02.09-.05a.17.17 0 0 0 .03-.1 24.72 24.72 0 0 0 0-.81.17.17 0 0 0-.04-.1.14.14 0 0 0-.08-.06l-.22-.02a.13.13 0 0 1-.09-.05.17.17 0 0 1-.03-.1l-.01-.09a.19.19 0 0 1 .04-.12.14.14 0 0 1 .04-.04l.06-.01h.6Zm-6.4.5.02.11v.72a.3.3 0 0 1-.03.13.15.15 0 0 1-.07.07l-.18.1a.15.15 0 0 0-.06.07.27.27 0 0 0-.02.13c0 .04.02.08.04.1.02.04.05.05.08.05l1.73.01a.1.1 0 0 0 .07-.03.2.2 0 0 0 .04-.09c.04-.14.04-.32 0-.52a.19.19 0 0 0-.02-.07.1.1 0 0 0-.05-.04h-.05a.1.1 0 0 0-.05.04l-.13.2a.17.17 0 0 1-.06.06.11.11 0 0 1-.06.02h-.67l-.04-.02a.12.12 0 0 1-.03-.03.2.2 0 0 1-.03-.06V35.6c0-.04 0-.08.02-.1.02-.04.04-.05.07-.06l.18-.03a.16.16 0 0 0 .07-.09.3.3 0 0 0 .02-.14c0-.05-.02-.1-.04-.12-.03-.03-.06-.05-.09-.05h-.9c-.02 0-.05.03-.07.06a.28.28 0 0 0-.02.25c.02.04.05.07.07.08l.18.05c.03.01.05.03.07.07Zm4.1.12c.07.17.08.4.03.7 0 .03 0 .05-.02.07a.1.1 0 0 1-.04.04h-.05a.1.1 0 0 1-.04-.04c-.13-.2-.27-.28-.44-.23-.04.01-.06.04-.08.08a.29.29 0 0 0-.02.14c0 .05.02.1.04.14.02.03.06.05.09.06a.3.3 0 0 1 .19.08c.02.02.03.05.04.09v.11a.2.2 0 0 1-.04.1.1.1 0 0 1-.07.03h-.9c-.02 0-.05-.02-.08-.06a.26.26 0 0 1-.03-.13c0-.05 0-.1.02-.13.02-.04.05-.06.08-.07l.15-.02c.03 0 .05-.03.07-.06a.22.22 0 0 0 .03-.11v-.84c0-.04-.01-.07-.03-.1l-.05-.04c-.2-.01-.3-.11-.3-.3 0-.04.01-.07.03-.1.02-.03.04-.04.07-.04h1.77c.02 0 .03 0 .04.02.1.08.11.27.06.58a.2.2 0 0 1-.03.07.1.1 0 0 1-.05.04h-.05a.11.11 0 0 1-.05-.04l-.14-.22c-.02-.03-.05-.05-.08-.05h-.68c-.01 0-.03 0-.04.02a.13.13 0 0 0-.04.04.21.21 0 0 0-.02.07c0 .02-.01.05 0 .07v.08c0 .05.03.1.06.13.03.04.07.05.1.05.18-.02.3-.1.38-.23l.03-.03.03-.01.03.01.02.03Zm6.06.62a26.25 26.25 0 0 0-.02-.57.13.13 0 0 0-.03-.06.07.07 0 0 0-.05-.01c-.02 0-.04 0-.05.02-.16.15-.3.22-.46.21-.03 0-.06-.02-.09-.05a.24.24 0 0 1-.03-.13v-.08c0-.04.01-.09.03-.12.03-.04.06-.05.09-.05h.62c.03 0 .06 0 .08.02.03.01.05.04.07.06l.11.18.05.04h.06c.02 0 .04-.02.05-.04a.2.2 0 0 0 .03-.08.97.97 0 0 0 0-.45c-.03-.1-.11-.14-.27-.14-1 0-1.53.01-1.58.02-.03 0-.06.02-.08.05a.27.27 0 0 0-.02.25c.02.03.04.06.07.07l.2.09a.1.1 0 0 1 .06.05 10.18 10.18 0 0 1 0 .96.1.1 0 0 1-.05.04l-.2.1a.14.14 0 0 0-.08.07.27.27 0 0 0 .02.24c.02.03.05.05.08.05l1.59.01c.15 0 .24-.05.26-.14a.99.99 0 0 0 0-.46.2.2 0 0 0-.03-.07.11.11 0 0 0-.05-.05h-.05a.11.11 0 0 0-.05.05l-.12.18a.22.22 0 0 1-.07.06.15.15 0 0 1-.07.03h-.63c-.03 0-.06-.02-.08-.05a.23.23 0 0 1-.04-.13v-.08c0-.04.01-.09.04-.12.02-.04.05-.06.08-.06.15 0 .3.06.46.21.01.02.03.02.05.02l.05-.01a.13.13 0 0 0 .03-.06l.02-.07Zm1.77-.8-.18-.06a.14.14 0 0 1-.08-.07.28.28 0 0 1 .02-.26c.02-.03.05-.05.08-.05l.9-.01c.02 0 .05.01.08.05.02.03.04.07.04.12.01.05 0 .1-.01.14a.16.16 0 0 1-.08.09.86.86 0 0 1-.18.04c-.03 0-.05.02-.07.05a.2.2 0 0 0-.02.1V36.46l.03.06c0 .02.02.03.03.04h.78a.17.17 0 0 0 .05-.06l.13-.21a.1.1 0 0 1 .05-.04h.05a.1.1 0 0 1 .05.04l.03.07c.03.2.03.38 0 .52a.2.2 0 0 1-.05.09.1.1 0 0 1-.07.03h-1.72c-.03 0-.06-.02-.08-.05a.23.23 0 0 1-.05-.1c0-.05 0-.1.02-.14a.14.14 0 0 1 .07-.07l.18-.1a.15.15 0 0 0 .06-.07.3.3 0 0 0 .03-.12v-.73a.25.25 0 0 0-.03-.11.12.12 0 0 0-.06-.06ZM18 36a1 1 0 1 1-2 0 1 1 0 0 1 2 0Zm-1 .55c.3 0 .55-.25.55-.56a.56.56 0 0 0-.54-.58c-.3 0-.55.25-.55.57 0 .31.24.57.54.57Zm21.04.45c.47 0 .96-.2.96-1s-.5-1-.96-1a12.06 12.06 0 0 0-.98.06.18.18 0 0 0-.04.06.28.28 0 0 0-.01.16c.02.1.1.16.24.17a.1.1 0 0 1 .07.03.2.2 0 0 1 .04.09l.01.43v.44a.2.2 0 0 1-.05.09.1.1 0 0 1-.06.03c-.15.01-.23.07-.25.18a.28.28 0 0 0 .01.16l.04.05a.1.1 0 0 0 .05.03c.06.01.36.02.93.02Zm-.22-1.52a.27.27 0 0 0-.04.15v.73c0 .05.01.1.04.15.02.03.06.06.1.06h.18c.06 0 .12-.01.17-.04.06-.03.1-.06.15-.12a.56.56 0 0 0 .1-.17.65.65 0 0 0 .03-.21v-.06a.62.62 0 0 0-.13-.38.41.41 0 0 0-.31-.17h-.2c-.03 0-.06.02-.09.06Z" fill="#D07E38" /><path fill-rule="evenodd" d="M29.98 12.52A3.97 3.97 0 0 0 28 12c-.71 0-1.37.17-1.98.52a1584.8 1584.8 0 0 1-10.3 5.79c-.9.49-1.52.94-1.86 1.35a3.8 3.8 0 0 0-.86 2.5l.01 12.25c0 .94.3 1.79.88 2.53.32.4 1.07.91 2.26 1.55.48.25 1.88 1.04 4.2 2.34.19.1.51.16.97.17.4 0 .98-.13 1.75-.4.59-.2 1.65-.6 3.2-1.2a4.82 4.82 0 0 1 1.73-.28c.7 0 1.28.1 1.74.27 1.55.6 2.61 1 3.2 1.21.76.27 1.35.4 1.75.4.46 0 .78-.06.97-.17 2.32-1.31 3.72-2.1 4.2-2.35a7.91 7.91 0 0 0 2.25-1.55c.59-.74.88-1.58.88-2.52V22.15c0-.97-.28-1.8-.85-2.5-.34-.41-.96-.86-1.85-1.35-1.15-.63-4.6-2.56-10.31-5.78Zm-1.55 17.13h-.05a.07.07 0 0 1-.04-.03.06.06 0 0 1-.01-.03l.01-.04c.38-.48.92-.7 1.64-.68.56.03 1.07.06 1.5.1.07 0 .14-.01.2-.04a.3.3 0 0 0 .13-.13l.16-.3a.22.22 0 0 1 .08-.09.26.26 0 0 1 .13-.03h.62l.04.01.03.03v.04l-.01.04c-.13.13-.22.25-.26.35a.07.07 0 0 0 .01.07l.03.02a.1.1 0 0 0 .04.01l.25.02c1.18.07 2.13.12 2.98-.25a.1.1 0 0 1 .05 0c.02 0 .04 0 .05.02l.02.04v.04c-.33.53-.84.8-1.54.81-.73 0-1.44 0-2.11-.02-.05 0-.09 0-.12.03a.2.2 0 0 0-.08.07c-.53.9-1.02 1.8-1.47 2.72-.08.17-.11.3-.08.42 0 .04.03.09.06.12l.12.1a.43.43 0 0 0 .32.03c.52-.15.86-.42 1.08-.92.37-.88 1.03-2.01 2.25-2.09.38-.02.62.12.7.42 0 .02.02.03.03.04l.05.02.04-.01c.02-.01.03-.02.03-.04l.14-.32c0-.02.03-.04.05-.06a.15.15 0 0 1 .08-.02h.67l.03.03v.05c-.57.8-1.03 1.64-1.37 2.51a.24.24 0 0 0 0 .14c0 .05.03.1.06.13l.13.08h.17c.15-.03.3-.09.42-.17a.9.9 0 0 0 .28-.32l2.07-4.03c.03-.06.08-.1.14-.14a.4.4 0 0 1 .2-.05h.5c.03 0 .05 0 .07.02.02 0 .03.02.05.04a.1.1 0 0 1 .01.05.1.1 0 0 1-.01.06l-.98 1.47a.15.15 0 0 0-.02.1c0 .04.03.07.06.1a.21.21 0 0 0 .23.03c.56-.3 1.24-.07 1.26.54 0 .05 0 .1-.03.16-.1.23-.25.47-.4.72-.25.4-.5.83-.6 1.25v.08l.05.07a.2.2 0 0 0 .09.04h.1c.43-.1.72-.44 1.03-.8l.06-.08a.09.09 0 0 1 .05-.03.1.1 0 0 1 .05 0l.04.04v.04c-.05.23-.19.47-.4.73l-.02.02c-.45.51-.86 1-1.66.92a.31.31 0 0 1-.12-.03.26.26 0 0 1-.1-.08c-.2-.27-.22-.57-.06-.91.22-.5.57-1.08 1.04-1.77a.24.24 0 0 0 .03-.22.26.26 0 0 0-.06-.1.3.3 0 0 0-.1-.06h-.01a.5.5 0 0 0-.28-.04.44.44 0 0 0-.24.13 9.75 9.75 0 0 0-1.68 2.9.2.2 0 0 1-.06.07.25.25 0 0 1-.1.05c-.3.07-.6.06-.93-.03a.25.25 0 0 0-.15 0c-.52.19-.87.06-1.06-.4a.08.08 0 0 0-.02-.02.1.1 0 0 0-.04-.02.1.1 0 0 0-.04 0 .1.1 0 0 0-.04.02l-.16.12c-.25.21-.58.48-1 .38-.35-.09-.55-.34-.61-.76l-.02-.02c0-.01-.01-.02-.03-.02h-.03a3.8 3.8 0 0 1-.62.52c-.48.35-1.51.5-1.72-.2l-.01-.03-.03-.01h-.04l-.03.01a2.4 2.4 0 0 1-1.88.58c-.54-.08-.86-.36-.98-.86l-.01-.03-.03-.01h-.04a.06.06 0 0 0-.02.02c-.76.95-2.9 1.49-3.17-.17l-.01-.03a.08.08 0 0 0-.08-.01.07.07 0 0 0-.03.02c-.24.37-.56.64-.96.83-.51.24-1.17.24-1.18-.43 0-.52.51-1.29.93-1.9l.22-.33c.03-.04.05-.1.05-.15v-.14a.18.18 0 0 0-.04-.07.22.22 0 0 0-.06-.06.28.28 0 0 0-.18-.03c-.81.13-1.59 1.87-1.98 2.76l-.15.34a.17.17 0 0 1-.06.07.2.2 0 0 1-.08.03 1.6 1.6 0 0 1-.9-.05.2.2 0 0 0-.17 0c-.86.42-2.04.24-2.53-.54-.18-.29-.27-.67-.25-1.16.06-1.31.64-2.4 1.75-3.27.73-.57 1.45-.97 2.42-.75 1.7.38.37 2.94-1.23 2.52a.56.56 0 0 1-.23-.12.46.46 0 0 1-.13-.2l-.04-.12v-.08c0-.02.02-.04.04-.06a.17.17 0 0 1 .07-.04.2.2 0 0 1 .08-.01c.68.08 1.16-.2 1.43-.84.05-.12.02-.23-.1-.33-.3-.25-1.02.03-1.27.2-1.16.73-2.25 2.3-1.54 3.55.47.83 1.64.44 2.25-.03.21-.16.43-.48.67-.97.43-.89.96-1.92 1.6-3.08a.26.26 0 0 1 .1-.1.3.3 0 0 1 .15-.04h.6a.1.1 0 0 1 .05 0l.03.04a.07.07 0 0 1 0 .08l-1 1.52a.14.14 0 0 0 .02.18c.02.03.05.04.09.05a.2.2 0 0 0 .1 0c.94-.35 1.67.14 1.15 1a18.77 18.77 0 0 0-.89 1.67c0 .03.02.06.03.08a.2.2 0 0 0 .07.06c.03.02.07.03.1.03.48.05 1.09-.69 1.21-1.1.26-.85.93-1.63 1.89-1.82.95-.19 1.3.42 1 1.13-.3.69-.92 1.03-1.89 1.03-.05 0-.1 0-.14.03a.3.3 0 0 0-.12.09.24.24 0 0 0-.03.25h.01c.05.12.13.2.24.28.1.07.23.12.36.13.85.1 1.68-.28 1.9-1.04.26-.83.9-1.64 1.81-1.89.55-.15 1.22.06 1.22.65 0 .96-1.01 1.55-2 1.5-.04 0-.09 0-.13.03a.3.3 0 0 0-.12.07.25.25 0 0 0-.06.12l.01.13.01.03c.04.1.12.2.22.27.1.08.22.12.34.14 1.16.12 1.68-.39 2.17-1.3l1.09-2.01a.12.12 0 0 0-.01-.13.15.15 0 0 0-.05-.04.17.17 0 0 0-.07-.02c-.17 0-.34-.02-.5-.03a6.8 6.8 0 0 0-2.3.13Zm4.7 3.34c-.31-.15-.24-.78.16-1.42.4-.63.97-1.03 1.27-.88.3.15.23.78-.16 1.41-.4.64-.97 1.03-1.28.89Zm-7.65-1.56c.34-.24.52-.54.4-.67s-.5-.03-.84.21c-.34.24-.51.55-.4.68.13.12.5.03.84-.22Zm3.24.01c.34-.24.52-.55.4-.67-.12-.13-.5-.04-.83.21-.34.25-.52.55-.4.68.12.12.5.03.83-.22Zm-8.36 3.57a10.76 10.76 0 0 0-1.32.05.19.19 0 0 0-.04.12v.1c0 .03.02.06.04.1l.09.04.22.02c.03 0 .06.02.08.05.03.03.04.07.04.1a12.68 12.68 0 0 1 0 .81c0 .04-.01.08-.03.1a.14.14 0 0 1-.1.06l-.21.02a.13.13 0 0 0-.09.05.17.17 0 0 0-.03.1v.16c0 .02.02.04.03.05l.05.04.05.01h.61a9.47 9.47 0 0 0 .67-.02l.04-.03a.19.19 0 0 0 .04-.12v-.1a.17.17 0 0 0-.04-.1.13.13 0 0 0-.09-.04l-.21-.02a.14.14 0 0 1-.1-.05.17.17 0 0 1-.03-.1 12.56 12.56 0 0 1 0-.82c0-.03.01-.07.04-.1a.14.14 0 0 1 .08-.05l.22-.03c.03 0 .06-.02.09-.04a.17.17 0 0 0 .03-.1v-.1a.18.18 0 0 0-.03-.11.15.15 0 0 0-.05-.04.13.13 0 0 0-.05-.01Zm8.39 0a10.76 10.76 0 0 1 .66.01l.05.04.03.05v.16c0 .03-.01.07-.03.1a.13.13 0 0 1-.09.04l-.22.03a.14.14 0 0 0-.08.05.17.17 0 0 0-.04.1 11.32 11.32 0 0 0 .04.92c.02.02.05.04.09.05l.21.02c.04 0 .07.02.09.05l.04.1v.15l-.04.06a.15.15 0 0 1-.04.03 9.53 9.53 0 0 1-1.33 0 .15.15 0 0 1-.05-.03.17.17 0 0 1-.03-.05v-.16c0-.04.01-.07.03-.1a.13.13 0 0 1 .09-.05l.22-.02c.03 0 .06-.02.09-.05a.17.17 0 0 0 .03-.1 24.72 24.72 0 0 0 0-.81.17.17 0 0 0-.04-.1.14.14 0 0 0-.08-.06l-.22-.02a.13.13 0 0 1-.09-.05.17.17 0 0 1-.03-.1l-.01-.09a.19.19 0 0 1 .04-.12.14.14 0 0 1 .04-.04l.06-.01h.6Zm-6.4.5.02.11v.72a.3.3 0 0 1-.03.13.15.15 0 0 1-.07.07l-.18.1a.15.15 0 0 0-.06.07.27.27 0 0 0-.02.13c0 .04.02.08.04.1.02.04.05.05.08.05l1.73.01a.1.1 0 0 0 .07-.03.2.2 0 0 0 .04-.09c.04-.14.04-.32 0-.52a.19.19 0 0 0-.02-.07.1.1 0 0 0-.05-.04h-.05a.1.1 0 0 0-.05.04l-.13.2a.17.17 0 0 1-.06.06.11.11 0 0 1-.06.02h-.67l-.04-.02a.12.12 0 0 1-.03-.03.2.2 0 0 1-.03-.06V35.6c0-.04 0-.08.02-.1.02-.04.04-.05.07-.06l.18-.03a.16.16 0 0 0 .07-.09.3.3 0 0 0 .02-.14c0-.05-.02-.1-.04-.12-.03-.03-.06-.05-.09-.05h-.9c-.02 0-.05.03-.07.06a.28.28 0 0 0-.02.25c.02.04.05.07.07.08l.18.05c.03.01.05.03.07.07Zm4.1.12c.07.17.08.4.03.7 0 .03 0 .05-.02.07a.1.1 0 0 1-.04.04h-.05a.1.1 0 0 1-.04-.04c-.13-.2-.27-.28-.44-.23-.04.01-.06.04-.08.08a.29.29 0 0 0-.02.14c0 .05.02.1.04.14.02.03.06.05.09.06a.3.3 0 0 1 .19.08c.02.02.03.05.04.09v.11a.2.2 0 0 1-.04.1.1.1 0 0 1-.07.03h-.9c-.02 0-.05-.02-.08-.06a.26.26 0 0 1-.03-.13c0-.05 0-.1.02-.13.02-.04.05-.06.08-.07l.15-.02c.03 0 .05-.03.07-.06a.22.22 0 0 0 .03-.11v-.84c0-.04-.01-.07-.03-.1l-.05-.04c-.2-.01-.3-.11-.3-.3 0-.04.01-.07.03-.1.02-.03.04-.04.07-.04h1.77c.02 0 .03 0 .04.02.1.08.11.27.06.58a.2.2 0 0 1-.03.07.1.1 0 0 1-.05.04h-.05a.11.11 0 0 1-.05-.04l-.14-.22c-.02-.03-.05-.05-.08-.05h-.68c-.01 0-.03 0-.04.02a.13.13 0 0 0-.04.04.21.21 0 0 0-.02.07c0 .02-.01.05 0 .07v.08c0 .05.03.1.06.13.03.04.07.05.1.05.18-.02.3-.1.38-.23l.03-.03.03-.01.03.01.02.03Zm6.06.62a26.25 26.25 0 0 0-.02-.57.13.13 0 0 0-.03-.06.07.07 0 0 0-.05-.01c-.02 0-.04 0-.05.02-.16.15-.3.22-.46.21-.03 0-.06-.02-.09-.05a.24.24 0 0 1-.03-.13v-.08c0-.04.01-.09.03-.12.03-.04.06-.05.09-.05h.62c.03 0 .06 0 .08.02.03.01.05.04.07.06l.11.18.05.04h.06c.02 0 .04-.02.05-.04a.2.2 0 0 0 .03-.08.97.97 0 0 0 0-.45c-.03-.1-.11-.14-.27-.14-1 0-1.53.01-1.58.02-.03 0-.06.02-.08.05a.27.27 0 0 0-.02.25c.02.03.04.06.07.07l.2.09a.1.1 0 0 1 .06.05 10.18 10.18 0 0 1 0 .96.1.1 0 0 1-.05.04l-.2.1a.14.14 0 0 0-.08.07.27.27 0 0 0 .02.24c.02.03.05.05.08.05l1.59.01c.15 0 .24-.05.26-.14a.99.99 0 0 0 0-.46.2.2 0 0 0-.03-.07.11.11 0 0 0-.05-.05h-.05a.11.11 0 0 0-.05.05l-.12.18a.22.22 0 0 1-.07.06.15.15 0 0 1-.07.03h-.63c-.03 0-.06-.02-.08-.05a.23.23 0 0 1-.04-.13v-.08c0-.04.01-.09.04-.12.02-.04.05-.06.08-.06.15 0 .3.06.46.21.01.02.03.02.05.02l.05-.01a.13.13 0 0 0 .03-.06l.02-.07Zm1.77-.8-.18-.06a.14.14 0 0 1-.08-.07.28.28 0 0 1 .02-.26c.02-.03.05-.05.08-.05l.9-.01c.02 0 .05.01.08.05.02.03.04.07.04.12.01.05 0 .1-.01.14a.16.16 0 0 1-.08.09.86.86 0 0 1-.18.04c-.03 0-.05.02-.07.05a.2.2 0 0 0-.02.1V36.46l.03.06c0 .02.02.03.03.04h.78a.17.17 0 0 0 .05-.06l.13-.21a.1.1 0 0 1 .05-.04h.05a.1.1 0 0 1 .05.04l.03.07c.03.2.03.38 0 .52a.2.2 0 0 1-.05.09.1.1 0 0 1-.07.03h-1.72c-.03 0-.06-.02-.08-.05a.23.23 0 0 1-.05-.1c0-.05 0-.1.02-.14a.14.14 0 0 1 .07-.07l.18-.1a.15.15 0 0 0 .06-.07.3.3 0 0 0 .03-.12v-.73a.25.25 0 0 0-.03-.11.12.12 0 0 0-.06-.06ZM18 36a1 1 0 1 1-2 0 1 1 0 0 1 2 0Zm-1 .55c.3 0 .55-.25.55-.56a.56.56 0 0 0-.54-.58c-.3 0-.55.25-.55.57 0 .31.24.57.54.57Zm21.04.45c.47 0 .96-.2.96-1s-.5-1-.96-1a12.06 12.06 0 0 0-.98.06.18.18 0 0 0-.04.06.28.28 0 0 0-.01.16c.02.1.1.16.24.17a.1.1 0 0 1 .07.03.2.2 0 0 1 .04.09l.01.43v.44a.2.2 0 0 1-.05.09.1.1 0 0 1-.06.03c-.15.01-.23.07-.25.18a.28.28 0 0 0 .01.16l.04.05a.1.1 0 0 0 .05.03c.06.01.36.02.93.02Zm-.22-1.52a.27.27 0 0 0-.04.15v.73c0 .05.01.1.04.15.02.03.06.06.1.06h.18c.06 0 .12-.01.17-.04.06-.03.1-.06.15-.12a.56.56 0 0 0 .1-.17.65.65 0 0 0 .03-.21v-.06a.62.62 0 0 0-.13-.38.41.41 0 0 0-.31-.17h-.2c-.03 0-.06.02-.09.06Z" /><path d="M28 13c.49 0 1.04.17 1.64.5 2.47 1.36 5.94 3.25 10.4 5.67 1.29.7 1.95 1.24 1.95 2.61a4189.27 4189.27 0 0 0 0 6.19.05.05 0 0 1-.04.02h-.03A30.5 30.5 0 0 0 28 24.87 30.51 30.51 0 0 0 14.03 28c-.01 0-.02 0-.02-.02l-.01-.02v-6.16c0-1.37.67-1.92 1.95-2.62 4.47-2.42 7.94-4.3 10.4-5.67.6-.33 1.15-.5 1.65-.5Z" fill="#D07E38" /><path d="m24.23 21.58.01-.02v-.04l-.03-.01c-2.11 0-4.21-.14-6.3-.45-.54-.08-1.41-.36-1.54-.92a.4.4 0 0 1 .03-.28.43.43 0 0 1 .21-.2c.62-.26 1.14.14 1.63.33.13.05.26.08.4.1 1.28.24 2.51.07 4.22-.1 1.17-.12 2.37-.3 3.62-.58.16-.03.31-.02.46.03l1.6.57.1.01h1.98c.11 0 .22-.03.3-.1a5.57 5.57 0 0 1 3.25-1.26c.55 0 1.4.44 2.14.68a.2.2 0 0 0 .17-.02l.56-.36a.1.1 0 0 1 .08-.02.1.1 0 0 1 .03.02.1.1 0 0 1 .03.03l.28.6a.48.48 0 0 0 .28.24l.57.2a.2.2 0 0 1 .08.06c.02.03.04.06.04.09.05.3.23.56.54.77a.1.1 0 0 1 .04.07v.04a2.16 2.16 0 0 1-1.44.58 211.24 211.24 0 0 0-1.2.02.05.05 0 0 0-.01.04v.8l.01.03.03.01 2.87.3a.4.4 0 0 1 .18.06c.06.04.1.09.13.15l.58 1.22a.04.04 0 0 1 0 .04l-.03.01h-.03c-1.69-.74-3.33-.4-4.97.33a.14.14 0 0 1-.1 0 .13.13 0 0 1-.07-.06l-.68-1.43a.3.3 0 0 0-.11-.12A.3.3 0 0 0 34 23c-.86 0-1.7.1-2.52.3a.68.68 0 0 1-.37-.01 18.35 18.35 0 0 0-3.6-.8.39.39 0 0 0-.3.1l-.97.93a.26.26 0 0 1-.22.07l-3.62-.62a.27.27 0 0 0-.24.08c-1.42 1.52-3.56 2.4-4.86.08a.07.07 0 0 1 0-.07l.03-.03h.04c.55.08 1.14.2 1.72.13a3.9 3.9 0 0 0 2.38-1.12.49.49 0 0 1 .41-.14c.87.1 1.65 0 2.35-.32Z" /><path d="m33 21.6.74.7c.02.03.04.06.04.09v.08a.16.16 0 0 1-.06.07 10.2 10.2 0 0 0-2.32.51.32.32 0 0 1-.2 0 19.16 19.16 0 0 0-2.95-.93l-.02-.04a.07.07 0 0 1 .02-.06c.2-.17.46-.28.77-.35.01 0 .02 0 .03-.02l.01-.04v-.01a.03.03 0 0 0-.03-.02h-.01a2.4 2.4 0 0 0-.54.14c-.89.33-1.72.76-2.5 1.28a.27.27 0 0 1-.18.05l-3.51-.36a.4.4 0 0 0-.31.11c-.8.78-2.34 1.9-3.4.96a.05.05 0 0 1-.01-.06c0-.01 0-.02.02-.02l.03-.01a4.28 4.28 0 0 0 3.02-1.48.3.3 0 0 1 .27-.09 5.02 5.02 0 0 0 4.76-1.95.21.21 0 0 1 .1-.07.23.23 0 0 1 .1-.01 9.3 9.3 0 0 1 2.25.54l1.26-.02c.11 0 .22-.04.32-.1.83-.57 1.65-.98 2.45-1.25 2.53-.84 2.95 1.9 2.85 3.52a.1.1 0 0 0 .03.07.1.1 0 0 0 .07.04l3.03.14c.07 0 .13.02.18.05.05.04.1.08.12.14l.26.55a.09.09 0 0 1-.06.13 24.6 24.6 0 0 1-4.2.04.2.2 0 0 1-.1-.01.19.19 0 0 1-.1-.07 9.05 9.05 0 0 0-2.2-2.3l-.02.01a.04.04 0 0 0 0 .06Z" fill="#D07E38" /><path d="M36.7 20v-.16c-.02-.23.1-.4.3-.55a.1.1 0 0 1 .07-.02.1.1 0 0 1 .06.04l.47.65c.04.05.09.08.15.1l.39.1c.04 0 .07.03.1.06s.05.06.06.1c.05.23.19.44.42.62a.09.09 0 0 1 .04.08l-.02.04a.1.1 0 0 1-.04.03l-.65.27a.13.13 0 0 1-.07.01l-1.49-.15a.17.17 0 0 1-.09-.03.16.16 0 0 1-.05-.08l-.48-1.43a.04.04 0 0 1 .01-.05.05.05 0 0 1 .05-.01c.33.05.54.18.65.37l.02.03a.07.07 0 0 0 .07 0l.02-.03ZM25.8 20.17a.1.1 0 0 1 .05.01.1.1 0 0 1 .04.04v.05c0 .02 0 .04-.02.05l-.42.41a.55.55 0 0 1-.33.15c-2.01.2-4 .13-5.99-.08-.74-.08-1.97-.2-2.31-.67a.13.13 0 0 1 0-.17.15.15 0 0 1 .17-.04l1.26.53.04.02c.8.17 1.8.2 3 .1l4.5-.4Z" fill="#D07E38" /><path d="M27.63 40.11a.1.1 0 0 1 0-.06l.05-.04h.05a12.54 12.54 0 0 1 1.05 1.8c.29.59.31 1.25-.04 1.76-.38.53-1.01.59-1.4.07-.61-.81-.3-1.51.18-2.26a.9.9 0 0 0 .12-.27c.05-.23.05-.57-.01-1Z" /></svg>