<?xml version='1.0' encoding='utf-8'?>
<!-- by TradeStack -->
<svg width="56" height="56" viewBox="0 0 56 56" xmlns="http://www.w3.org/2000/svg"><path fill="#F0F3FA" d="M0 0h56v56H0z" /><path d="M21.55 16.38a11.4 11.4 0 0 0-4.1 1.85 14.34 14.34 0 0 0-5.21 6.11 13.32 13.32 0 0 0 .07 11.36c.82 1.78 1.28 2.12 1.06.78-.54-3.28-.54-4.34.02-6.63.4-1.65 1.47-3.75 2.37-4.7a5.72 5.72 0 0 1 4.08-1.87c1.47.02 2.62.54 4.54 2.06 2.42 1.9 4.28 2.34 6.23 1.49.7-.31 1.1-.67 1.66-1.48.83-1.23 1.11-3.27.38-4.65a8.16 8.16 0 0 0-3.4-3.54 10.72 10.72 0 0 0-7.7-.78Zm24.42 1.12c-.59 1.3-.55 1.23-2.34 4.05-4.77 7.48-11.08 12.87-16.61 14.19-2.08.5-4.85.54-6.31.1a8.96 8.96 0 0 1-4.8-4.06c-.77-1.45-.73-1.4-.95-1.06-.27.42-.01 3.53.44 5.27.2.83.68 2 1.05 2.62.75 1.23.72 1.27 1.68 2.17 1.65 1.54 3.65 2.21 6.57 2.22 2.91 0 5.7-.9 8.37-2.72.65-.44.8-.64 1.4-1.01.68-.43 3.3-3.11 4.37-4.48a43.55 43.55 0 0 0 5.73-10.17c1-2.55 2.43-7.1 2.43-7.8 0-.79-.51-.45-1.03.68Z" fill="#E00034" /></svg>