<!-- by TradeStack --><svg xmlns="http://www.w3.org/2000/svg" width="56" height="56"><path fill="#F0F3FA" d="M0 0h56v56H0z"/><path d="M35.34 38.37c-.46-.37-1-.65-1.57-.8a4.1 4.1 0 00-1.81-.13v.01a10.5 10.5 0 01-4.11.81 11 11 0 01-4.2-.8 11.24 11.24 0 01-3.44-2.2 10.38 10.38 0 01-2.33-3.27 9.67 9.67 0 010-7.97 10.42 10.42 0 012.33-3.25 11.26 11.26 0 017.64-3.01 10.66 10.66 0 014.2.84h.01a4.25 4.25 0 004.45-2.18l.97-1.67a20.03 20.03 0 00-3.28-1.48A16.35 16.35 0 0027.85 12c-2.98 0-5.9.74-8.5 2.18a16.66 16.66 0 00-6.06 5.74 15.33 15.33 0 00-.97 14.32 15.99 15.99 0 003.61 5.08 17.3 17.3 0 0018.02 3.5l.1-.02c1.15-.4 2.26-.9 3.33-1.5l-.98-1.67c-.27-.48-.63-.9-1.06-1.26z" fill="#172A76"/><path d="M43.8 29.12a1.7 1.7 0 100-3.4 1.7 1.7 0 000 3.4z" fill="#9D1B87"/><path d="M42.3 23.32a1.36 1.36 0 100-2.71 1.36 1.36 0 000 2.71zm0 10.84a1.36 1.36 0 100-2.71 1.36 1.36 0 000 2.71zm-2.66-5.42a1.36 1.36 0 10-.02-2.63l-1.14-2.73.57-3.1h.02a1.38 1.38 0 10-.44-.08l-.6 3.23 1.2 2.85a1.35 1.35 0 00.01 2.3l-1.2 2.92.58 3.18a1.34 1.34 0 00-.7 1.99l-1.72 1.49.29.32L38.2 37a1.35 1.35 0 10.86-2.4l-.03.01-.56-3.06 1.16-2.8z" fill="#00B9AC"/><path d="M38.26 33.18a1.7 1.7 0 100-3.41 1.7 1.7 0 000 3.41zm0-8.08a1.7 1.7 0 100-3.41 1.7 1.7 0 000 3.4z" fill="#9D1B87"/></svg>