<?xml version='1.0' encoding='utf-8'?>
<!-- by TradeStack -->
<svg width="56" height="56" viewBox="0 0 56 56" xmlns="http://www.w3.org/2000/svg"><path fill="url(#a)" d="M0 0h56v56H0z" /><path fill-rule="evenodd" d="M28 44a16 16 0 1 0 0-32 16 16 0 0 0 0 32ZM17.5 25c-.4 0-.5.33-.5.5V27c0 .4.33.5.5.5h.5l.9 5.4c.03.18.35.26.5.15.6-.43 1.58-.55 2.1-.55 2.8 0 3.5 2.33 3.5 3.5v.5c0 .4.33.5.5.5h5c.4 0 .5-.33.5-.5V36c0-3 2-3.5 3.5-3.5.94 0 1.74.41 2.2.75.13.1.34.03.36-.13L38 27.5h.5c.4 0 .5-.33.5-.5v-1.5c0-.4-.33-.5-.5-.5h-21Zm13.69 5.29V28H32v4h-.79v-.75h-.03c-.08.22-.2.4-.38.54s-.4.21-.65.21c-.23 0-.43-.06-.6-.17-.17-.12-.3-.29-.4-.5-.1-.23-.15-.5-.15-.82V28h.81v2.37c0 .25.06.45.18.6.12.14.27.22.47.22.12 0 .23-.04.35-.1.1-.07.2-.17.27-.3.07-.13.11-.3.11-.5Zm-4.02-1.58H28a2.1 2.1 0 0 0-.22-.72 1.76 1.76 0 0 0-1-.88 2.12 2.12 0 0 0-1.77.19c-.3.2-.56.48-.74.85-.18.38-.27.83-.27 1.35 0 .52.09.97.27 1.35a1.96 1.96 0 0 0 1.8 1.15c.28 0 .52-.04.75-.13a1.83 1.83 0 0 0 .98-.9 2 2 0 0 0 .2-.65h-.83a1.1 1.1 0 0 1-.38.66c-.1.07-.2.13-.32.17a1.24 1.24 0 0 1-1.03-.13 1.3 1.3 0 0 1-.45-.58c-.1-.25-.16-.57-.16-.94s.05-.68.16-.93c.1-.25.26-.45.45-.58a1.18 1.18 0 0 1 1.04-.14.97.97 0 0 1 .56.47c.06.11.1.24.13.39ZM21.5 38a2.5 2.5 0 1 0 0-5 2.5 2.5 0 0 0 0 5ZM37 35.5a2.5 2.5 0 1 1-5 0 2.5 2.5 0 0 1 5 0ZM19 24l2-3c.5 0 1.6-.1 2-.5l1.5 1 3-1.5.5.5 2.5-1.5 3.5 3 1.5.5L37 24H19Z" fill="url(#b)" /><defs><linearGradient id="a" x1="10.42" y1="9.71" x2="68.15" y2="76.02" gradientUnits="userSpaceOnUse"><stop stop-color="#1A1E21" /><stop offset="1" stop-color="#06060A" /></linearGradient><linearGradient id="b" x1="44" y1="28" x2="12" y2="28" gradientUnits="userSpaceOnUse"><stop stop-color="#B0B0B0" /><stop offset="1" stop-color="#E5E5E5" /></linearGradient></defs></svg>