<!-- by TradeStack --><svg width="56" height="56" viewBox="0 0 56 56" xmlns="http://www.w3.org/2000/svg"><path fill="#F0F3FA" d="M0 0h56v56H0z"/><path d="M26 18.69a7.26 7.26 0 0 0-1 3.93 5.44 5.44 0 0 0 3.28 5.14l.1 2.5c2.85 1.57 1.47 2.6 3.49 3.67 2.54 1.43 4.12-.35 5.3-1.71l-.44-.1c-5.63 3.1-4.33-1.22-7.24-2.65 0-3.13-3.09-3.53-3.05-6.77.04-4.24 4.56-6.63 8.06-6.63 3.5 0 6.78 2.56 6.89 7.15.07 2.82-.86 6.58-4.03 11.36-.63.96-1.27 1.6-1.94 2.57-1.24 1.78-6.3 6.42-7.44 6.46-3.86-1.47-9.92-8.93-11.7-13.64a17.81 17.81 0 0 1-1.23-6.05c-.04-5.2 3.45-8.49 10.15-6.48.8.04.63.29.57-.57-4.13-4.75-13.67-3.25-13.77 5.85-.02 2.06.42 4.5 1.5 7.36C15.76 36 19.94 40.25 24.94 43.5c2.31 1.54 2.58 2.07 5.16.75C37.39 40.5 44.02 31.74 44 22.94c-.01-5.8-4.09-8.8-8.74-8.93-3.54-.11-7.46 1.4-9.26 4.68Z" fill="#F35921"/><path d="M30 26.83c2.52-.25 2.09-.59 3-2.14-2.36.15-2.14.73-3 2.14Z" fill="#EF5314"/></svg>