<!-- by TradeStack --><svg width="56" height="56" viewBox="0 0 56 56" xmlns="http://www.w3.org/2000/svg"><path fill="#F0F3FA" d="M0 0h56v56H0z"/><path d="M19.53 36.7a9.98 9.98 0 0 1-5.98-.35c-3.65-1.4-5.8-5.21-5.53-9.05a8.86 8.86 0 0 1 8.86-8.3c2.46 0 5.43.55 7.08 2.58a.15.15 0 0 1 0 .2c-.2.23-.44.43-.63.68-.33.47-.74.8-1.08 1.27a4.62 4.62 0 0 1-.72.72 5.84 5.84 0 0 0-4.07-1.9c-2.49 0-4.63 1.33-5.24 3.94-.84 3.57 1.52 6.87 5.2 6.97 1.6.05 3.11-1.01 4.24-2.03.03-.02.06-.02.08 0l2.38 2.38.02.03a.1.1 0 0 1 0 .07.1.1 0 0 1-.02.04c-1.34 1.26-2.75 2.33-4.6 2.76Z" fill="#14345C"/><path d="M40.1 21.06c-.03.36.11.75.12 1.07 0 .42-.1.8 0 1.24a.07.07 0 0 1-.04.08h-.03c-.23 0-.45.03-.66.1-.14.05-.4.32-.54.31a6.26 6.26 0 0 1-1.09-.15l-.46-.27a6.1 6.1 0 0 0-6.47-.11 5.28 5.28 0 0 0-2.39 3.25c-.17.63-.08 1.27-.1 1.92-.03.89.43 1.9.91 2.6.3.45.75.86 1.15 1.27l-.43.05a9.63 9.63 0 0 0-1.63.1c-.13.01-.19.08-.2.2 0 .27.02.52.06.74.06.28.1.49.1.62l.05.61c0 .07 0 .13-.03.18a.95.95 0 0 1-.12.14c-.63-.51-1.12-1-1.49-1.44a9.08 9.08 0 0 1-1.85-4.23c-.02-.32-.11-.61-.11-.94 0-.48-.04-.97.06-1.46.05-.3.07-.6.14-.9a8.9 8.9 0 0 1 5.33-6.37 8.56 8.56 0 0 1 3.1-.67c.83 0 1.65-.04 2.47.13.83.17 1.6.42 2.28.74.69.32 1.31.72 1.88 1.19Z" fill="#4EABE9"/><path d="M40.1 21.06a8.77 8.77 0 0 1 3.25 7.22c-.07 4.47-3.9 8.68-8.53 8.72a10.27 10.27 0 0 1-6.52-1.99l-.22-2.55 2.42-.1c1.51.77 2.88 1.37 4.65 1.08a5.5 5.5 0 0 0 4.48-3.82 5.8 5.8 0 0 0-1.77-5.91l2.25-.31v-2.34ZM46.67 35.47a44.06 44.06 0 0 1 3.33 0v1.41c0 .08-.04.12-.12.12H44.1a.1.1 0 0 1-.08-.03.1.1 0 0 1-.03-.07v-1.13a.34.34 0 0 1 .13-.27l2.18-1.73c.55-.44 1.06-.87 1.51-1.38.22-.25.4-.71.29-1.05-.2-.6-.62-.85-1.28-.75-.58.1-1.03.55-1.4.96-.04.04-.08.04-.12 0a8.87 8.87 0 0 0-.7-.5 1.4 1.4 0 0 1-.4-.39.1.1 0 0 1 0-.1 3.39 3.39 0 0 1 3.28-1.53c1.73.25 2.7 1.46 2.33 3.22-.14.65-.72 1.27-1.3 1.7l-1.88 1.44c-.08.06-.07.09.03.08Z" fill="#14345C"/></svg>