<!-- by TradeStack --><svg width="56" height="56" viewBox="0 0 56 56" xmlns="http://www.w3.org/2000/svg"><path fill="#F0F3FA" d="M0 0h56v56H0z"/><path d="M47 22.95V23h-1.82l-.02-.02a10.83 10.83 0 0 0-2.34-2.9 10.37 10.37 0 0 0-6.88-2.47c-2.57.03-4.85.9-6.82 2.6l-1.1 1.1a.07.07 0 0 0-.01.05l-.01.03c-.03 0-.04 0-.05.02a11.47 11.47 0 0 0-1.05 1.57.14.14 0 0 1-.07.02h-1.74a.03.03 0 0 1-.02-.01.02.02 0 0 1 0-.03c.48-.97 1.06-1.95 1.75-2.77l1.12-1.14A12.07 12.07 0 0 1 35.81 16c.47 0 .93-.01 1.39.04 1.04.1 1.94.29 2.72.56A12.2 12.2 0 0 1 47 22.95Z" fill="#BAC100"/><path d="m27.94 19.05-1.12 1.14-.51-.39a10.3 10.3 0 0 0-7.16-2.13c-1.2.09-2.35.37-3.43.85a10.7 10.7 0 0 0-4.92 4.47.07.07 0 0 1-.03.01H9.02L9 22.95s0 .01 0 0a12.27 12.27 0 0 1 9.65-6.87c.53-.06 1.13-.05 1.7-.05a12.12 12.12 0 0 1 7.49 2.88l.1.14ZM29.12 20.2A12.6 12.6 0 0 1 30.88 23h-.01l-.02.01h-1.73a.1.1 0 0 1-.08-.04L28 21.4v-.03c0-.02.01-.04.03-.05l1.1-1.1ZM26.85 35.83 28 36.98a11.99 11.99 0 0 1-6.72 2.97c-.61.07-1.27.05-1.88.05a12.02 12.02 0 0 1-9.32-4.93c-.03-.04-.02-.07.02-.07h1.98c.04 0 .07.03.09.05a10.39 10.39 0 0 0 6.94 3.32 10.4 10.4 0 0 0 7.73-2.54Z" fill="#D1D004"/><path d="M28.34 35a10.37 10.37 0 0 0 7.54 3.36c3.02.06 5.8-1.12 7.87-3.3a.14.14 0 0 1 .1-.06h1.99c.04 0 .05.02.03.06a12.11 12.11 0 0 1-8.65 4.88c-.53.05-1.08.03-1.62.03a12.1 12.1 0 0 1-7.59-3l-1.16-1.14-.64-.8a.02.02 0 0 1 0-.01V35l.01-.01h2.12Z" fill="#BAC100"/><path d="M28.34 35h1.42l.01.01v.02l-.63.76a4.6 4.6 0 0 1-.8-.79Z" fill="#D1D004"/></svg>