<?xml version='1.0' encoding='utf-8'?>
<!-- by TradeStack -->
<svg width="56" height="56" viewBox="0 0 56 56" xmlns="http://www.w3.org/2000/svg"><path fill="#F0F3FA" d="M0 0h56v56H0z" /><path d="M43.67 23.89 21.62 13.36a4 4 0 0 0-3.83.28l-.96.62A3.98 3.98 0 0 0 15 17.6v20.66a3.97 3.97 0 0 0 1.82 3.34l1.17.76a4 4 0 0 0 3.9.25L43.7 31.73a3.99 3.99 0 0 0 2.27-3.5l.02-.63a3.97 3.97 0 0 0-2.33-3.71Zm-23.5 14.9L19 38.15V16.77L42.21 27.8 20.18 38.8Z" fill="url(#ake5ikkxf)" /><path d="M43.67 23.89 21.62 13.36a4 4 0 0 0-3.82.28l-.97.62c-.42.27-.79.61-1.08 1.02l30.01 14.16c.14-.39.21-.8.22-1.2l.02-.64a3.97 3.97 0 0 0-2.33-3.71Z" fill="#485AF7" style="mix-blend-mode:color-burn" /><defs><linearGradient id="ake5ikkxf" x1="36.5" y1="16.39" x2="15.03" y2="40.75" gradientUnits="userSpaceOnUse"><stop stop-color="#B4EEFA" /><stop offset=".32" stop-color="#5DDBEC" /><stop offset=".62" stop-color="#51CCE8" /><stop offset="1" stop-color="#38ABE0" /></linearGradient></defs></svg>