<!-- by TradeStack --><svg width="56" height="56" viewBox="0 0 56 56" fill="none" xmlns="http://www.w3.org/2000/svg">
<rect width="56" height="56" fill="#F0F3FA"/>
<path fill-rule="evenodd" clip-rule="evenodd" d="M9.62178 25H9.60485L9.09013 25.3288C9.06937 25.3424 9.05898 25.3631 9.05898 25.3909V26.0224C9.05911 26.0301 9.06114 26.0376 9.06481 26.044C9.06849 26.0504 9.07367 26.0554 9.07973 26.0584C9.08579 26.0615 9.09248 26.0625 9.09901 26.0613C9.10553 26.06 9.11162 26.0567 9.11655 26.0515C9.40777 25.7354 9.74459 25.5083 10.127 25.3704C10.1315 25.3689 10.1354 25.3659 10.1384 25.3617C10.1413 25.3575 10.1431 25.3524 10.1435 25.3469C10.144 25.3415 10.143 25.3359 10.1408 25.331C10.1386 25.3261 10.1352 25.3221 10.1311 25.3193L9.62178 25ZM7.58594 25.5396V26.0665C7.58591 26.0861 7.59042 26.1054 7.599 26.1222C7.60758 26.1391 7.61991 26.153 7.6347 26.1625L8.05595 26.4314C8.0698 26.4404 8.08538 26.4452 8.10124 26.4454C8.11711 26.4455 8.13275 26.441 8.14671 26.4322L8.56931 26.1656C8.58423 26.1563 8.59669 26.1424 8.6054 26.1255C8.6141 26.1086 8.61871 26.0893 8.61875 26.0697V25.5388C8.61878 25.5192 8.61427 25.4999 8.60569 25.483C8.59711 25.4662 8.58478 25.4523 8.56999 25.4428L8.14806 25.1754C8.13416 25.1665 8.11855 25.1619 8.10268 25.1619C8.08682 25.1619 8.07121 25.1665 8.05731 25.1754L7.6347 25.4436C7.61991 25.453 7.60758 25.4669 7.599 25.4838C7.59042 25.5007 7.58591 25.52 7.58594 25.5396ZM6.21869 26.1199V25.636C6.21867 25.618 6.22281 25.6003 6.23069 25.5848C6.23857 25.5693 6.24989 25.5566 6.26347 25.5479L6.65158 25.3016C6.66434 25.2934 6.67868 25.2892 6.69325 25.2892C6.70782 25.2892 6.72215 25.2934 6.73492 25.3016L7.1224 25.5472C7.13599 25.5559 7.14731 25.5686 7.15519 25.5841C7.16307 25.5996 7.16721 25.6173 7.16719 25.6353V26.1228C7.16715 26.1409 7.16291 26.1586 7.15492 26.1741C7.14693 26.1897 7.13548 26.2024 7.12178 26.211L6.73368 26.4558C6.72086 26.4639 6.7065 26.468 6.69192 26.4679C6.67735 26.4678 6.66305 26.4634 6.65033 26.4551L6.26347 26.2081C6.24989 26.1994 6.23857 26.1866 6.23069 26.1711C6.22281 26.1556 6.21867 26.138 6.21869 26.1199ZM5.01917 25.7097V26.1377C5.01914 26.1536 5.02281 26.1692 5.02978 26.1829C5.03674 26.1966 5.04676 26.2079 5.05877 26.2156L5.4009 26.434C5.41215 26.4414 5.4248 26.4452 5.43768 26.4454C5.45057 26.4455 5.46327 26.4418 5.47461 26.4347L5.81784 26.2181C5.82995 26.2106 5.84008 26.1993 5.84715 26.1856C5.85421 26.1719 5.85796 26.1562 5.85799 26.1402V25.709C5.85802 25.6931 5.85435 25.6775 5.84738 25.6638C5.84042 25.6501 5.8304 25.6388 5.81839 25.6311L5.47571 25.4139C5.46442 25.4067 5.45174 25.4029 5.43886 25.4029C5.42597 25.4029 5.41329 25.4067 5.402 25.4139L5.05877 25.6317C5.04676 25.6394 5.03674 25.6507 5.02978 25.6644C5.02281 25.6781 5.01914 25.6938 5.01917 25.7097ZM4.4975 27.2355V26.8581C4.49748 26.8441 4.50071 26.8303 4.50685 26.8182C4.513 26.8061 4.52182 26.7962 4.53241 26.7894L4.83502 26.5974C4.84498 26.591 4.85615 26.5877 4.86752 26.5877C4.87888 26.5877 4.89005 26.591 4.90001 26.5974L5.20213 26.7889C5.21272 26.7956 5.22155 26.8056 5.22769 26.8177C5.23383 26.8298 5.23707 26.8435 5.23705 26.8576V27.2377C5.23702 27.2518 5.23371 27.2656 5.22748 27.2777C5.22125 27.2898 5.21233 27.2997 5.20165 27.3064L4.89904 27.4973C4.88904 27.5036 4.87784 27.5069 4.86648 27.5068C4.85512 27.5067 4.84397 27.5032 4.83405 27.4968L4.53241 27.3042C4.52182 27.2974 4.513 27.2875 4.50685 27.2754C4.50071 27.2633 4.49748 27.2495 4.4975 27.2355ZM4 27.9227V28.3C3.99998 28.314 4.00321 28.3278 4.00936 28.3399C4.0155 28.352 4.02433 28.3619 4.03492 28.3687L4.33656 28.5613C4.34647 28.5678 4.35762 28.5712 4.36899 28.5713C4.38035 28.5714 4.39154 28.5681 4.40154 28.5619L4.70415 28.371C4.71483 28.3643 4.72375 28.3543 4.72999 28.3423C4.73622 28.3302 4.73952 28.3163 4.73955 28.3022V27.9221C4.73957 27.9081 4.73634 27.8943 4.73019 27.8822C4.72405 27.8701 4.71522 27.8602 4.70463 27.8534L4.40251 27.6619C4.39256 27.6556 4.38138 27.6522 4.37002 27.6522C4.35866 27.6522 4.34748 27.6556 4.33753 27.6619L4.03492 27.854C4.02433 27.8607 4.0155 27.8707 4.00936 27.8828C4.00321 27.8949 3.99998 27.9086 4 27.9227ZM5.05273 28.3158V27.9385C5.05272 27.9245 5.05595 27.9107 5.06209 27.8986C5.06823 27.8865 5.07706 27.8766 5.08765 27.8698L5.39026 27.6777C5.40021 27.6714 5.41139 27.6681 5.42275 27.6681C5.43411 27.6681 5.44529 27.6714 5.45524 27.6777L5.75737 27.8692C5.76796 27.876 5.77679 27.8859 5.78293 27.898C5.78907 27.9101 5.7923 27.9239 5.79228 27.9379V28.3181C5.79226 28.3322 5.78895 28.346 5.78272 28.3581C5.77649 28.3702 5.76756 28.3801 5.75688 28.3868L5.45427 28.5777C5.44428 28.584 5.43308 28.5872 5.42172 28.5871C5.41036 28.587 5.3992 28.5836 5.38929 28.5771L5.08765 28.3845C5.07706 28.3778 5.06823 28.3678 5.06209 28.3557C5.05595 28.3436 5.05272 28.3299 5.05273 28.3158ZM6.11682 27.9327V28.3892C6.1168 28.4062 6.12071 28.4229 6.12814 28.4375C6.13557 28.4521 6.14625 28.4642 6.15907 28.4724L6.52402 28.7054C6.53602 28.7132 6.54951 28.7173 6.56326 28.7175C6.577 28.7176 6.59055 28.7137 6.60265 28.7061L6.96877 28.4751C6.9817 28.467 6.9925 28.455 7.00003 28.4404C7.00757 28.4257 7.01157 28.409 7.01161 28.392V27.932C7.01163 27.915 7.00772 27.8984 7.00029 27.8837C6.99285 27.8691 6.98217 27.8571 6.96936 27.8489L6.60382 27.6172C6.59178 27.6095 6.57825 27.6055 6.56451 27.6055C6.55076 27.6055 6.53724 27.6095 6.5252 27.6172L6.15907 27.8496C6.14625 27.8578 6.13557 27.8698 6.12814 27.8844C6.12071 27.899 6.1168 27.9157 6.11682 27.9327ZM4.57629 29.3617V29.0079C4.57628 28.9948 4.57931 28.9819 4.58506 28.9705C4.59082 28.9592 4.5991 28.9499 4.60903 28.9435L4.8927 28.7635C4.90203 28.7575 4.91251 28.7544 4.92316 28.7544C4.93381 28.7544 4.94429 28.7575 4.95362 28.7635L5.23684 28.943C5.24677 28.9493 5.25505 28.9587 5.2608 28.97C5.26656 28.9813 5.26959 28.9943 5.26957 29.0074V29.3638C5.26955 29.377 5.26645 29.3899 5.26061 29.4013C5.25477 29.4126 5.2464 29.4219 5.23639 29.4282L4.95271 29.6072C4.94334 29.613 4.93284 29.6161 4.92219 29.616C4.91154 29.6159 4.90109 29.6127 4.89179 29.6066L4.60903 29.4261C4.5991 29.4197 4.59082 29.4104 4.58506 29.3991C4.57931 29.3877 4.57628 29.3748 4.57629 29.3617ZM5.13062 30.0347V30.3884C5.1306 30.4016 5.13363 30.4145 5.13939 30.4258C5.14514 30.4372 5.15342 30.4465 5.16335 30.4528L5.44611 30.6334C5.45541 30.6394 5.46586 30.6426 5.47652 30.6427C5.48717 30.6428 5.49766 30.6398 5.50703 30.6339L5.79071 30.4549C5.80072 30.4487 5.80909 30.4394 5.81493 30.428C5.82077 30.4167 5.82387 30.4037 5.8239 30.3905V30.0342C5.82391 30.021 5.82088 30.0081 5.81513 29.9968C5.80937 29.9854 5.80109 29.9761 5.79116 29.9698L5.50794 29.7903C5.49861 29.7843 5.48813 29.7812 5.47748 29.7812C5.46683 29.7812 5.45635 29.7843 5.44702 29.7903L5.16335 29.9703C5.15342 29.9766 5.14514 29.986 5.13939 29.9973C5.13363 30.0086 5.1306 30.0215 5.13062 30.0347ZM6.18646 30.5029V30.1174C6.18644 30.1031 6.18974 30.089 6.19602 30.0767C6.2023 30.0643 6.21132 30.0542 6.22214 30.0472L6.53131 29.851C6.54148 29.8445 6.5529 29.8411 6.5645 29.8411C6.57611 29.8411 6.58753 29.8445 6.5977 29.851L6.90638 30.0467C6.9172 30.0536 6.92622 30.0637 6.93249 30.0761C6.93877 30.0884 6.94207 30.1025 6.94205 30.1169V30.5052C6.94202 30.5196 6.93865 30.5338 6.93228 30.5461C6.92591 30.5585 6.91679 30.5686 6.90588 30.5754L6.59671 30.7705C6.5865 30.7769 6.57506 30.7802 6.56345 30.7801C6.55184 30.78 6.54045 30.7765 6.53032 30.7699L6.22214 30.5731C6.21132 30.5662 6.2023 30.5561 6.19602 30.5437C6.18974 30.5314 6.18644 30.5173 6.18646 30.5029ZM5.60272 29.0039V29.4037C5.6027 29.4185 5.60613 29.4331 5.61263 29.4459C5.61914 29.4587 5.62849 29.4693 5.63971 29.4764L5.95924 29.6805C5.96974 29.6873 5.98155 29.6909 5.99359 29.691C6.00562 29.6911 6.01749 29.6877 6.02807 29.6811L6.34863 29.4788C6.35994 29.4717 6.3694 29.4612 6.376 29.4484C6.3826 29.4356 6.3861 29.421 6.38613 29.406V29.0034C6.38615 28.9885 6.38273 28.9739 6.37622 28.9611C6.36971 28.9483 6.36036 28.9377 6.34914 28.9306L6.0291 28.7277C6.01856 28.721 6.00672 28.7175 5.99468 28.7175C5.98265 28.7175 5.97081 28.721 5.96026 28.7277L5.63971 28.9312C5.62849 28.9383 5.61914 28.9489 5.61263 28.9617C5.60613 28.9745 5.6027 28.9891 5.60272 29.0039ZM5.57495 27.2702V26.8422C5.57493 26.8263 5.5786 26.8107 5.58556 26.797C5.59253 26.7832 5.60254 26.772 5.61456 26.7643L5.95779 26.5465C5.96908 26.5393 5.98176 26.5355 5.99464 26.5355C6.00753 26.5355 6.0202 26.5393 6.03149 26.5465L6.37418 26.7637C6.38619 26.7713 6.3962 26.7826 6.40317 26.7963C6.41014 26.81 6.4138 26.8257 6.41378 26.8416V27.2728C6.41375 27.2887 6.41 27.3044 6.40293 27.3181C6.39587 27.3319 6.38574 27.3431 6.37363 27.3507L6.03039 27.5672C6.01906 27.5743 6.00636 27.578 5.99347 27.5779C5.98058 27.5778 5.96793 27.5739 5.95669 27.5666L5.61456 27.3481C5.60254 27.3405 5.59253 27.3292 5.58556 27.3155C5.5786 27.3018 5.57493 27.2861 5.57495 27.2702ZM6.8208 26.7983V27.2951C6.82078 27.3135 6.82503 27.3317 6.83312 27.3476C6.84121 27.3635 6.85283 27.3766 6.86677 27.3855L7.26389 27.6391C7.27694 27.6476 7.29163 27.6521 7.30658 27.6522C7.32154 27.6523 7.33628 27.6481 7.34944 27.6398L7.74784 27.3885C7.7619 27.3797 7.77365 27.3666 7.78186 27.3507C7.79006 27.3348 7.79441 27.3166 7.79445 27.298V26.7975C7.79447 26.7791 7.79022 26.7609 7.78213 26.745C7.77404 26.7291 7.76242 26.716 7.74848 26.7071L7.35072 26.455C7.33762 26.4466 7.3229 26.4422 7.30794 26.4422C7.29299 26.4422 7.27827 26.4466 7.26517 26.455L6.86677 26.7078C6.85283 26.7167 6.84121 26.7298 6.83312 26.7458C6.82503 26.7617 6.82078 26.7798 6.8208 26.7983ZM11.3785 26.6123C10.3985 26.6517 9.99016 27.682 10.2949 28.6745C10.5875 29.6286 11.7097 29.6899 12.2806 29.0442C12.3252 28.9934 12.3528 28.9318 12.3814 28.8679L12.3814 28.8679C12.3989 28.8288 12.4168 28.7888 12.4391 28.75C12.4545 28.7228 12.4761 28.711 12.5041 28.7146L13.7659 28.8656C13.7911 28.8688 13.7997 28.8843 13.7916 28.9121C13.574 29.6482 13.1529 30.1201 12.5285 30.3277C10.9458 30.8555 8.64377 30.4033 8.7203 27.9281C8.74943 26.9859 9.22825 26.2065 9.9651 25.851C10.7033 25.4939 11.8919 25.4695 12.6816 25.7889C13.1809 25.9907 13.5268 26.3811 13.7191 26.96C13.7215 26.9671 13.7225 26.9748 13.7221 26.9825C13.7216 26.9901 13.7197 26.9976 13.7165 27.0043C13.7132 27.011 13.7087 27.0167 13.7034 27.0212C13.698 27.0256 13.6918 27.0286 13.6853 27.03L12.4621 27.2785C12.4405 27.2832 12.424 27.2746 12.4127 27.2525C12.1847 26.8074 11.84 26.594 11.3785 26.6123ZM23.745 26.8271C23.2486 26.7563 22.7616 26.8467 22.3566 27.1983C22.3535 27.2011 22.3497 27.2028 22.3458 27.2033C22.3419 27.2037 22.3379 27.2029 22.3344 27.2008C22.3308 27.1988 22.3278 27.1956 22.3258 27.1917C22.3237 27.1877 22.3227 27.1832 22.3227 27.1786L22.3187 25.8054C22.3187 25.7797 22.3076 25.7669 22.2855 25.7669H21.0333C21.0243 25.7669 21.0157 25.771 21.0093 25.7784C21.003 25.7857 20.9994 25.7957 20.9994 25.8062V30.3128C20.9994 30.3385 21.0105 30.3514 21.0326 30.3514L22.2882 30.3466C22.2937 30.3467 22.2991 30.3453 22.3041 30.3428C22.3092 30.3402 22.3137 30.3365 22.3175 30.3317C22.3212 30.327 22.3241 30.3214 22.3259 30.3153C22.3278 30.3092 22.3285 30.3028 22.3282 30.2963L22.3173 30.1178C22.3151 30.0748 22.33 30.064 22.362 30.0855C23.2221 30.6604 24.6281 30.4992 24.9566 29.2212C25.2356 28.1342 24.7778 26.9757 23.745 26.8271ZM23.6522 28.3298C23.686 28.4263 23.7028 28.5294 23.7016 28.6331C23.699 28.8428 23.6232 29.0426 23.4908 29.1887C23.3583 29.3348 23.18 29.4152 22.9952 29.4122C22.9037 29.4107 22.8134 29.3888 22.7293 29.3477C22.6452 29.3066 22.5691 29.2472 22.5053 29.1727C22.4415 29.0983 22.3912 29.0103 22.3573 28.9139C22.3235 28.8174 22.3067 28.7143 22.3079 28.6105C22.3104 28.4009 22.3863 28.2011 22.5187 28.055C22.6512 27.9089 22.8294 27.8285 23.0142 27.8315C23.1058 27.833 23.1961 27.8549 23.2802 27.896C23.3643 27.9371 23.4404 27.9965 23.5042 28.071C23.568 28.1454 23.6183 28.2334 23.6522 28.3298ZM39.3462 27.4909L38.4529 30.3002C38.443 30.3322 38.4234 30.3482 38.394 30.3482H37.3734C37.3481 30.3482 37.3312 30.3343 37.3226 30.3065L36.4401 27.5262C36.4207 27.4644 36.411 27.4665 36.411 27.5325V30.3081C36.411 30.3343 36.4 30.3474 36.3778 30.3474L35.0551 30.3498C35.0424 30.3498 35.0302 30.3439 35.0211 30.3334C35.0121 30.3229 35 30.3087 35 30.2939V27.03L35.0003 25.877C34.9967 25.8036 35.0267 25.7669 35.0904 25.7669H36.8675C36.8874 25.7669 36.9009 25.7776 36.9081 25.7991L37.8752 28.7123C37.8768 28.7173 37.8797 28.7216 37.8834 28.7247C37.8872 28.7277 37.8917 28.7293 37.8962 28.7293C37.9008 28.7293 37.9053 28.7277 37.909 28.7247C37.9128 28.7216 37.9157 28.7173 37.9172 28.7123L38.8816 25.7975C38.8847 25.7885 38.89 25.7807 38.8969 25.7752C38.9037 25.7698 38.9119 25.7668 38.9202 25.7669H40.7285C40.7511 25.7669 40.7624 25.78 40.7624 25.8062V30.3215C40.7624 30.329 40.7599 30.3362 40.7554 30.3415C40.751 30.3468 40.745 30.3498 40.7387 30.3498H39.4086C39.3855 30.3498 39.374 30.3364 39.374 30.3097V27.4964C39.3741 27.4924 39.373 27.4885 39.3708 27.4854C39.3686 27.4823 39.3656 27.4803 39.3622 27.4796C39.3588 27.4789 39.3553 27.4797 39.3524 27.4818C39.3495 27.4838 39.3473 27.4871 39.3462 27.4909ZM47.2988 29.0654C47.2979 28.7104 47.2977 28.3562 47.2982 28.0028C47.2986 27.9672 47.3142 27.9494 47.3449 27.9494H47.7384C47.7609 27.9494 47.7722 27.9363 47.7722 27.91V27.0976C47.7722 27.0918 47.7712 27.086 47.7692 27.0807C47.7672 27.0753 47.7643 27.0705 47.7607 27.0664C47.757 27.0624 47.7527 27.0592 47.7479 27.0572C47.7431 27.0551 47.738 27.0541 47.733 27.0543L47.3429 27.0685C47.3131 27.0695 47.2982 27.0528 47.2982 27.0181V25.9265C47.2982 25.9154 47.2944 25.9048 47.2876 25.897C47.2809 25.8892 47.2718 25.8848 47.2623 25.8848H46.0479C46.0276 25.8848 46.0004 25.8969 46 25.921L45.9971 27.0134C45.9967 27.0501 45.9807 27.068 45.9491 27.0669L45.6267 27.0551C45.6195 27.0549 45.6123 27.0564 45.6055 27.0594C45.5988 27.0625 45.5927 27.0671 45.5875 27.073C45.5823 27.0788 45.5782 27.0858 45.5754 27.0936C45.5726 27.1013 45.5712 27.1096 45.5712 27.118L45.5718 27.9077C45.5718 27.9187 45.5755 27.9293 45.5821 27.9372C45.5888 27.945 45.5977 27.9494 45.6071 27.9494H45.9599C45.9838 27.9494 45.9956 27.9633 45.9951 27.991L46 29.3485C45.9864 29.789 45.9755 30.1665 46.3622 30.3033C46.5847 30.382 47.0195 30.3695 47.3929 30.3588C47.5162 30.3553 47.6329 30.3519 47.733 30.3521C47.7591 30.3521 47.7722 30.3369 47.7722 30.3065V29.4398C47.7722 29.4031 47.7564 29.3847 47.7248 29.3847L47.7088 29.3848C47.5004 29.3858 47.3002 29.3867 47.2988 29.0654ZM8.83009 26.4086C8.63978 26.735 8.49282 27.063 8.40545 27.4452C8.39823 27.4756 8.38175 27.4861 8.35601 27.4767C8.14847 27.3996 8.20105 26.97 8.2276 26.7531L8.23207 26.7161C8.23523 26.6899 8.24675 26.6705 8.26661 26.6579L8.7732 26.3355C8.78171 26.3299 8.79154 26.3279 8.80112 26.3298C8.8107 26.3316 8.81947 26.3372 8.82603 26.3457C8.83259 26.3541 8.83656 26.3649 8.83729 26.3763C8.83803 26.3877 8.83549 26.3991 8.83009 26.4086ZM48.5386 30.3073C49.1683 30.6235 49.9883 30.3899 50.6154 30.0517C50.6443 30.0359 50.6618 30.0472 50.6678 30.0855L50.7008 30.3018C50.7051 30.3317 50.7198 30.3466 50.7448 30.3466L51.968 30.3521C52.0034 30.3521 52.0094 30.3359 51.9861 30.3034C51.9059 30.1911 51.866 30.0488 51.8664 29.8763C51.8694 29.2088 51.8684 28.5421 51.8632 27.8762C51.8535 26.5376 49.7967 26.7688 49.1521 26.8876C48.6078 26.9883 48.2234 27.2635 48.1373 27.9273C48.1364 27.9347 48.1367 27.9423 48.1384 27.9495C48.14 27.9567 48.1429 27.9633 48.1469 27.969C48.1508 27.9747 48.1557 27.9792 48.1612 27.9824C48.1667 27.9855 48.1727 27.9871 48.1787 27.9871C48.542 27.9897 48.9036 27.9897 49.2634 27.9871C49.3365 27.9863 49.3696 27.9423 49.3941 27.8668C49.4019 27.8411 49.4161 27.823 49.4369 27.8125C49.7106 27.6686 50.6102 27.49 50.6413 28.0901C50.6418 28.0989 50.6409 28.1076 50.6385 28.1159C50.6362 28.1242 50.6325 28.1318 50.6276 28.1383C50.6228 28.1447 50.6169 28.1499 50.6104 28.1536C50.6038 28.1572 50.5967 28.1592 50.5895 28.1594C50.0709 28.1756 49.5657 28.2155 49.0738 28.2789C48.6363 28.3347 48.1871 28.4889 48.0454 29.0402C47.916 29.546 48.1367 30.1052 48.5386 30.3073ZM49.5553 28.8924C49.8983 28.8129 50.2789 28.7768 50.618 28.7933C50.6383 28.7943 50.6471 28.8072 50.6445 28.8318C50.5914 29.3792 49.9507 29.5853 49.5909 29.5365C49.2466 29.4893 49.1553 28.9844 49.5553 28.8924ZM16.69 30.0407C16.0669 30.3936 15.454 30.5204 14.8513 30.4213C14.218 30.3175 13.7263 29.5711 14.067 28.868C14.2742 28.4409 14.7341 28.3025 15.1316 28.2608C15.645 28.2079 16.1595 28.1746 16.6751 28.161C16.7026 28.1604 16.7169 28.1444 16.7178 28.113C16.7394 27.505 15.5983 27.5758 15.3517 27.9572C15.3382 27.9782 15.3201 27.9887 15.2976 27.9887H14.1334C14.1058 27.9887 14.0943 27.973 14.0988 27.9415C14.2593 26.8483 15.3104 26.7696 16.0845 26.7948C16.1215 26.796 16.1601 26.797 16.1999 26.7981C16.892 26.8167 17.9799 26.8459 17.9985 27.925L18 29.9557C18.0005 30.102 18.0565 30.22 18.1305 30.3097C18.1545 30.338 18.1493 30.3521 18.115 30.3521L16.8322 30.3466C16.8042 30.3466 16.788 30.3306 16.7835 30.2987L16.7496 30.0769C16.7433 30.0339 16.7234 30.0218 16.69 30.0407ZM16.6954 28.7846C16.35 28.7878 15.9924 28.8145 15.6524 28.8688C15.4439 28.9018 15.1967 29.1008 15.3389 29.3399C15.6348 29.837 16.6406 29.4107 16.7293 28.8303C16.7343 28.7993 16.723 28.7841 16.6954 28.7846ZM25.2979 28.4401C25.0588 30.8075 28.5657 30.9648 29.4502 29.568C29.8423 28.9482 29.7475 27.9486 29.2402 27.4201C28.2711 26.4102 25.4869 26.5659 25.2979 28.4401ZM28.1176 27.9789C28.2479 28.1312 28.3207 28.3374 28.32 28.552L28.3196 28.703C28.3193 28.8093 28.3009 28.9145 28.2656 29.0125C28.2303 29.1106 28.1787 29.1996 28.1138 29.2745C28.0488 29.3493 27.9718 29.4086 27.8871 29.449C27.8025 29.4893 27.7118 29.5099 27.6203 29.5095L27.3683 29.5085C27.1835 29.5077 27.0065 29.4217 26.8763 29.2694C26.746 29.1171 26.6732 28.911 26.6739 28.6963L26.6743 28.5453C26.6746 28.4391 26.693 28.3339 26.7283 28.2358C26.7636 28.1378 26.8152 28.0488 26.8802 27.9739C26.9451 27.899 27.0221 27.8397 27.1068 27.7994C27.1914 27.7591 27.2821 27.7385 27.3736 27.7389L27.6256 27.7399C27.8104 27.7406 27.9874 27.8266 28.1176 27.9789ZM42.4565 28.8924C42.6515 29.6529 43.4453 29.7843 43.9227 29.3021C43.9403 29.2843 43.9609 29.2762 43.9844 29.2778L45.2766 29.3446C45.2828 29.3449 45.2888 29.347 45.2941 29.3509C45.2993 29.3547 45.3036 29.3601 45.3065 29.3665C45.3094 29.3729 45.3108 29.38 45.3105 29.3872C45.3103 29.3944 45.3084 29.4015 45.305 29.4075C44.7273 30.4528 43.5143 30.5684 42.5614 30.3914C41.7 30.231 41.0396 29.5806 41.0857 28.5015C41.1609 26.7437 43.1459 26.628 44.2031 26.9804C44.9178 27.2179 45.3219 27.7897 45.4154 28.6957C45.4174 28.7156 45.4158 28.7358 45.4107 28.7548C45.4055 28.7739 45.397 28.7915 45.3856 28.8065C45.3742 28.8214 45.3602 28.8333 45.3446 28.8415C45.3289 28.8497 45.312 28.8539 45.2948 28.8538H42.4809C42.4769 28.8539 42.4729 28.855 42.4694 28.8571C42.4658 28.8592 42.4627 28.8623 42.4604 28.866C42.458 28.8698 42.4564 28.8741 42.4557 28.8787C42.4551 28.8832 42.4553 28.8879 42.4565 28.8924ZM42.5377 28.2443H43.9654C43.9677 28.2443 43.97 28.2432 43.9716 28.2413C43.9733 28.2394 43.9742 28.2368 43.9742 28.2341V28.2309C43.9742 28.0918 43.8991 27.9584 43.7655 27.86C43.6319 27.7616 43.4507 27.7063 43.2617 27.7063H43.2414C43.0524 27.7063 42.8712 27.7616 42.7376 27.86C42.604 27.9584 42.5289 28.0918 42.5289 28.2309V28.2341C42.5289 28.2368 42.5299 28.2394 42.5315 28.2413C42.5332 28.2432 42.5354 28.2443 42.5377 28.2443ZM20.7722 26.8522C20.3722 26.8658 20.0523 27.0546 19.8125 27.4185C19.8111 27.4211 19.8089 27.4231 19.8063 27.4241C19.8038 27.4251 19.8011 27.4251 19.7985 27.4241C19.796 27.4231 19.7938 27.4212 19.7923 27.4186C19.7908 27.416 19.79 27.4129 19.7902 27.4098L19.7841 26.956C19.7836 26.9235 19.7694 26.9073 19.7414 26.9073H18.4905C18.4834 26.9073 18.4765 26.9107 18.4714 26.9167C18.4663 26.9228 18.4634 26.931 18.4634 26.9395V30.3081C18.4634 30.3137 18.4644 30.3192 18.4663 30.3243C18.4682 30.3295 18.4709 30.3342 18.4744 30.3381C18.4778 30.3421 18.4819 30.3452 18.4864 30.3473C18.491 30.3495 18.4958 30.3506 18.5007 30.3506L19.7489 30.3466C19.7701 30.3466 19.7807 30.3343 19.7807 30.3097C19.7861 29.7979 19.7888 29.2867 19.7888 28.776C19.7882 28.1373 20.4011 28.1429 20.779 28.2026C20.7837 28.2034 20.7886 28.203 20.7931 28.2014C20.7977 28.1999 20.802 28.1971 20.8056 28.1935C20.8092 28.1898 20.8121 28.1853 20.814 28.1802C20.816 28.1752 20.817 28.1696 20.8169 28.1641V26.9025C20.8169 26.8685 20.802 26.8517 20.7722 26.8522ZM31.388 27.2997C32.1707 26.676 33.9622 26.5085 34 28.1098L33.996 30.3144C33.996 30.3359 33.9868 30.3466 33.9683 30.3466L32.7187 30.3553C32.6971 30.3553 32.686 30.3427 32.6856 30.3175C32.6784 29.7476 32.6773 29.1821 32.6822 28.621C32.6896 27.7952 31.6626 27.5338 31.3333 28.2291V30.2963C31.3334 30.303 31.3324 30.3096 31.3303 30.3158C31.3281 30.322 31.325 30.3276 31.3209 30.3324C31.3169 30.3371 31.3121 30.3409 31.3068 30.3435C31.3016 30.3461 31.2959 30.3474 31.2902 30.3474L30.0216 30.3545C30.0188 30.3546 30.016 30.354 30.0134 30.3528C30.0108 30.3516 30.0084 30.3497 30.0064 30.3474C30.0044 30.345 30.0028 30.3422 30.0017 30.3391C30.0006 30.336 30 30.3327 30 30.3293V26.9466C30 26.9362 30.0036 26.9262 30.0099 26.9188C30.0162 26.9114 30.0248 26.9073 30.0337 26.9073H31.2989C31.3214 26.9073 31.3327 26.9204 31.3327 26.9466V27.2659C31.3327 27.3178 31.3511 27.3291 31.388 27.2997ZM7.46741 28.0076V28.4645C7.46739 28.4823 7.47146 28.4998 7.4792 28.5151C7.48694 28.5305 7.49806 28.5431 7.51143 28.5518L7.86631 28.7799C7.87898 28.788 7.89318 28.7922 7.90762 28.7922C7.92206 28.7922 7.93627 28.788 7.94894 28.7799L8.30991 28.5495C8.32359 28.5406 8.33491 28.5275 8.34267 28.5117C8.35043 28.4959 8.35432 28.478 8.35394 28.4598L8.34581 27.9997C8.3454 27.9822 8.34106 27.9652 8.33322 27.9503C8.32538 27.9354 8.3143 27.9231 8.30111 27.9148L7.95232 27.6922C7.93966 27.6841 7.92545 27.6799 7.91101 27.6799C7.89657 27.6799 7.88236 27.6841 7.8697 27.6922L7.51211 27.9203C7.49861 27.9288 7.48735 27.9415 7.47949 27.9568C7.47163 27.9722 7.46745 27.9897 7.46741 28.0076ZM7.53581 29.0701L7.53445 29.428C7.53438 29.4491 7.52944 29.4697 7.52015 29.4879C7.51086 29.506 7.49756 29.5209 7.48163 29.531L7.19312 29.7135C7.17817 29.723 7.1614 29.7279 7.14435 29.7279C7.12731 29.7279 7.11054 29.723 7.09559 29.7135L6.80911 29.531C6.79308 29.5208 6.77971 29.5058 6.77041 29.4875C6.76112 29.4693 6.75624 29.4484 6.75629 29.4272V29.0748C6.75629 29.0538 6.76113 29.0332 6.7703 29.0151C6.77946 28.997 6.79263 28.982 6.80844 28.9718L7.09288 28.787C7.10764 28.7774 7.12422 28.7722 7.14114 28.7719C7.15805 28.7716 7.17475 28.7763 7.18973 28.7854L7.48163 28.9663C7.49791 28.9763 7.51156 28.9912 7.5211 29.0095C7.53064 29.0278 7.53573 29.0487 7.53581 29.0701ZM8.8727 29.8244C8.66411 29.5074 8.53611 29.218 8.44942 28.89C8.43994 28.8544 8.4212 28.8457 8.39321 28.8641L8.09183 29.0615C8.07061 29.0751 8.06 29.0961 8.06 29.1244V29.6883C8.06 29.7182 8.07106 29.7402 8.09318 29.7544L8.53611 30.0383C8.56094 30.054 8.58577 30.0543 8.61061 30.0391L8.85984 29.8904C8.88693 29.8747 8.89122 29.8527 8.8727 29.8244ZM7.33197 30.5354V30.1696C7.33194 30.1507 7.33626 30.1322 7.34447 30.1159C7.35269 30.0996 7.3645 30.0861 7.3787 30.0768L7.67128 29.8873C7.68462 29.8787 7.69961 29.8741 7.71487 29.874C7.73013 29.8739 7.74518 29.8782 7.75864 29.8865L8.06273 30.0753C8.07728 30.0844 8.08943 30.0979 8.0979 30.1144C8.10637 30.1308 8.11083 30.1497 8.11081 30.1689V30.5377C8.11083 30.5569 8.10637 30.5758 8.0979 30.5922C8.08943 30.6087 8.07728 30.6222 8.06273 30.6313L7.75864 30.8217C7.74501 30.8303 7.72972 30.8347 7.71419 30.8346C7.69867 30.8345 7.68344 30.8297 7.66992 30.8209L7.37802 30.6274C7.36405 30.6181 7.35244 30.6047 7.34435 30.5886C7.33627 30.5724 7.33199 30.5541 7.33197 30.5354ZM9.83511 30.6832C9.66354 30.5888 9.50054 30.4795 9.34613 30.3553C9.31328 30.3289 9.28093 30.2946 9.24764 30.2593C9.20336 30.2124 9.15741 30.1636 9.10638 30.1295C9.09308 30.1205 9.07796 30.1157 9.06256 30.1157C9.04715 30.1157 9.03202 30.1204 9.01868 30.1293C9.00534 30.1382 8.99427 30.1511 8.9866 30.1666C8.97893 30.1821 8.97492 30.1997 8.97499 30.2176L8.97432 30.6699C8.97386 30.7055 8.98696 30.732 9.0136 30.7493L9.37999 30.9884C9.40302 31.0036 9.42605 31.0039 9.44907 30.9892L9.83646 30.7406C9.84095 30.7378 9.84468 30.7336 9.84723 30.7284C9.84978 30.7233 9.85106 30.7174 9.85092 30.7114C9.85078 30.7055 9.84923 30.6997 9.84644 30.6947C9.84365 30.6898 9.83973 30.6858 9.83511 30.6832Z" fill="url(#paint0_linear_229_5326)"/>
<defs>
<linearGradient id="paint0_linear_229_5326" x1="4" y1="28" x2="51.7032" y2="28" gradientUnits="userSpaceOnUse">
<stop stop-color="#010101"/>
<stop offset="1" stop-color="#5CAD55"/>
</linearGradient>
</defs>
</svg>
