<?xml version='1.0' encoding='utf-8'?>
<!-- by TradeStack -->
<svg width="56" height="56" viewBox="0 0 56 56" xmlns="http://www.w3.org/2000/svg"><path fill="#F0F3FA" d="M0 0h56v56H0z" /><path fill-rule="evenodd" d="m18.63 23.1 1.97-3.29c-.53-.6-2.31-1.81-5.17-1.81-3.57 0-7.65 2.84-7.42 11.23.14 2.59 1.82 7.77 7.42 7.77 1.31-.01 4.32-.45 5.84-2.08 0-.02.13-.17.34-.4A7.33 7.33 0 0 0 27 37c4.42 0 8-4.25 8-9.5 0-1.7-.37-3.29-1.03-4.66l.3-.3c.22-.2.83-.41 1.5.28.25.27 1.24 1.93 2.5 4.13l-5.46 8.64L36.12 38l4.41-7.1c1.45 2.57 2.92 5.22 3.96 7.1L48 35.98 42.96 27l4.27-6.86L43.94 18l-3.2 5.05-1.58-2.84a5.14 5.14 0 0 0-3.8-2.21c-1.44 0-2.76.56-3.95 1.57A7.1 7.1 0 0 0 27 18c-4.42 0-8 4.25-8 9.5 0 1.18.18 2.3.51 3.35l-1.5 1.3c-.39.3-1.45.89-2.58.89-1.41 0-3.5-2.04-3.5-4.77 0-2.73.54-6.2 3.5-6.43a3.72 3.72 0 0 1 3.2 1.26Zm8.6.84 1.52-1.6a3.2 3.2 0 0 0-1.75-.53c-2.28 0-4.13 2.55-4.13 5.69v.4l.61-.52L26 30l-1.74 1.76A3.57 3.57 0 0 0 27 33.2c2.28 0 4.13-2.55 4.13-5.69a7.7 7.7 0 0 0-.17-1.65l-.84.85-2.9-2.76Z" fill="#AF2749" /></svg>