<?xml version='1.0' encoding='utf-8'?>
<!-- by TradeStack -->
<svg width="56" height="56" viewBox="0 0 56 56" xmlns="http://www.w3.org/2000/svg"><path fill="#35B5BE" d="M0 0h56v56H0z" /><path d="M43.5 18.37c.32-2.74-2.02-4.33-4.35-4.33-4.32 0-8.64 0-12.97-.04-3.29-.02-6.46 1.77-8.7 4.2-.57.63-1.22 1.58-1.94 2.85-1.26 2.2-2.52 4.42-3.76 6.63-1 1.78-1.6 2.94-1.7 3.37-.34 1.39.44 2.65 1.57 3.88.08.08.12.06.13-.05.06-.88.28-1.67.67-2.37a4990 4990 0 0 0 5.83-10.35c1.37-2.43 3.26-4.18 5.9-4.9.69-.19 1.82-.26 3.23-.26h12.31a4.87 4.87 0 0 1 3.76 1.4l.02-.01v-.02ZM27.5 22h10.4c.07 0 .09 0 .05.08l-1.38 2.63c-.07.14 0 .29.17.29h2.3c.46 0 .54-.16.73-.51l.05-.1c.48-.88.95-1.78 1.4-2.69.93-1.89.16-2.7-1.6-2.7H27.2c-2.23 0-3.85.52-5.42 2.13-.57.58-1.32 1.75-2.27 3.52a1826.6 1826.6 0 0 0-5.03 9.5c-1.03 1.95.5 2.85 2.02 2.85h12.74c3.95-.05 5.2-2.32 6.89-5.82a.13.13 0 0 0 0-.12.11.11 0 0 0-.05-.04.1.1 0 0 0-.05-.02h-2.72c-.08 0-.14.04-.18.11l-.06.11c-.58 1.07-1.39 2.55-2.62 2.7-.59.06-1.18.08-1.77.08h-10.6c-.05 0-.08-.04-.06-.08 1.27-2.42 2.55-4.82 3.85-7.23l.13-.24c1.57-2.93 2.37-4.42 5.5-4.45Zm16.2 1.08a5 5 0 0 0 .61-2.44c0-.17.07-.2.2-.1 2.8 2.2 1.05 4.97-.38 7.22l-.1.14c-.03.06-.08.1-.14.1h-2.76l-.05-.02h-.01a.12.12 0 0 1-.05-.05.13.13 0 0 1 0-.13 128.9 128.9 0 0 0 2.69-4.72ZM32.88 41.5c4.03-1.14 5.68-3.81 7.7-7.19a.2.2 0 0 0-.16-.3h-2.62a.2.2 0 0 0-.19.11c-2.44 4.13-4.56 4.84-9.37 4.89H17.22a7.43 7.43 0 0 1-4.38-1.14l-.03.01a.05.05 0 0 0-.02.06 5.29 5.29 0 0 0 3.45 3.82c1.14.25 4.25.25 4.25.25h8.65c1.64-.04 2.88-.27 3.73-.51Z" fill="#fff" /></svg>