<!-- by TradeStack --><svg viewBox="0 0 56 56" xmlns="http://www.w3.org/2000/svg"><path fill="#F0F3FA" d="M0 0h56v56H0z"/><path fill-rule="evenodd" d="M27 11h2v5.76l1.28.75 5.2-3.06.94 1.69-4.92 2.9v2.12l5.5 3.27v4.73l1.38.81 4.67-2.74.95 1.68-4.5 2.65v2.62l4.5 2.65-.95 1.68-4.96-2.91-1.09.64V42h-2v-5.76l-1.58-.93-5.39 3.17-.01.03h-.04l-.01-.03-5.4-3.17-1.57.93V42h-2v-5.76l-1.1-.64-4.95 2.91-.95-1.68 4.5-2.65v-2.62L12 28.91l.95-1.68 4.67 2.74 1.38-.81v-4.73l5.5-3.33v-2l-5.05-2.96.96-1.69 5.25 3.1 1.34-.8V11Zm1 25.26 4.5-2.65v-1.48l-4.3-2.53h-.4l-4.3 2.53v1.48l4.5 2.65Zm1-8.43 4.13 2.43 1.87-1.1v-3.67l-4.38-2.6-1.62.95v3.99Zm-2-3.99v3.99l-4.13 2.43-1.87-1.1v-3.68l4.33-2.62 1.67.98Z" fill="#133B7E"/></svg>