<!-- by TradeStack --><svg width="56" height="56" viewBox="0 0 56 56" fill="none" xmlns="http://www.w3.org/2000/svg">
<rect width="56" height="56" fill="#F0F3FA"/>
<path d="M26.9444 26L26 25.3956L33 15L30.8333 22.3736L26.9444 26Z" fill="#012C25"/>
<path d="M16.0878 27H8L16.0878 25.5787L18.3986 24H22.777L27 26.5L44 12L32.5068 29.7306L36 34L27 44L29.5878 35.9241L16.0878 27Z" fill="#00B783"/>
<path fill-rule="evenodd" clip-rule="evenodd" d="M44.0001 12L31.0474 27.9696L32.5068 29.7306L44.0001 12Z" fill="#52D4B2"/>
<path d="M16 27L22 31L23.5 29L21 27.5L16 27Z" fill="#52D4B2"/>
<path d="M27 44L31.2905 37.1385L22 31L36 34L27 44Z" fill="#52D4B2"/>
</svg>
