<?xml version='1.0' encoding='utf-8'?>
<!-- by TradeStack -->
<svg width="56" height="56" viewBox="0 0 56 56" xmlns="http://www.w3.org/2000/svg"><path fill="#F0F3FA" d="M0 0h56v56H0z" /><path d="M12 28a6.89 6.89 0 0 1 12.07-4.65l2.81-2.8a10.8 10.8 0 0 0-8-3.55C12.87 17 8 21.92 8 28s4.87 11 10.88 11c3.25 0 6.32-1.52 8.82-4l8.3-8.44-2.86-2.75-8.33 8.44c-1.48 1.47-3.5 2.75-5.93 2.75-4.44 0-6.88-3.5-6.88-7Zm32 0a6.89 6.89 0 0 1-12.07 4.65l-2.81 2.8a10.8 10.8 0 0 0 8 3.55C43.13 39 48 34.08 48 28s-4.87-11-10.88-11c-3.25 0-6.32 1.52-8.82 4L20 29.44l2.86 2.75 8.33-8.44c1.48-1.47 3.5-2.75 5.93-2.75 4.44 0 6.88 3.5 6.88 7Z" fill="#FF6443" /></svg>