<!-- by TradeStack --><svg width="56" height="56" viewBox="0 0 56 56" xmlns="http://www.w3.org/2000/svg"><path fill="#1565D8" d="M0 0h56v56H0z"/><path d="M8.78 30a6.2 6.2 0 0 0 2.22-.49v-1.4c-.71.43-1.54.68-2.18.68-1.42 0-2.57-1.25-2.57-2.79s1.15-2.8 2.57-2.8c.73 0 1.52.23 2.18.61v-1.37l.04-.01A6.59 6.59 0 0 0 8.78 22 3.9 3.9 0 0 0 5 26c0 2.2 1.7 4 3.78 4Zm3.7-5.44v1.19c.24-.21.94-.63 1.75-.63 1.27 0 1.57.85 1.57 1.27h-1.94c-.99 0-1.8.81-1.8 1.8v.05c0 .97.79 1.76 1.75 1.76.48.01 1.5-.17 1.99-.94V30h1.23v-3.32c0-1.25-.63-2.68-2.27-2.68-1.32 0-2.07.37-2.29.56Zm1.59 2.8h1.73v.34c-.08.5-.47 1.24-1.56 1.24h-.17a.78.78 0 0 1-.78-.79c0-.43.35-.78.78-.78Zm32.34-1.61v-1.2c.21-.18.98-.55 2.3-.55 1.65 0 2.29 1.43 2.29 2.68V30h-1.24v-.94c-.5.77-1.52.95-2 .94-.97 0-1.76-.79-1.76-1.75v-.05c0-1 .8-1.8 1.8-1.8h1.96c0-.43-.3-1.28-1.58-1.28a3 3 0 0 0-1.77.63Zm3.35 1.62h-1.74a.78.78 0 1 0 0 1.57h.17c1.1 0 1.49-.75 1.57-1.24v-.33Zm-28.35-2v-1.36c-1.07-.1-1.79.63-2.11 1.18V24H18v6h1.3v-2.94.12c.35-1.86 1.55-1.98 2.11-1.81ZM23.3 22H22v8h1.3v-.94c.5.58 1.2.94 1.98.94 1.5 0 2.72-1.34 2.72-3s-1.22-3-2.72-3a2.6 2.6 0 0 0-1.98.94V22Zm0 5.17v-.34c.07-.93.78-1.66 1.65-1.66.92 0 1.66.82 1.66 1.83 0 1.01-.74 1.83-1.66 1.83-.87 0-1.58-.73-1.65-1.66Zm10.23 2.11v-1.25a3.1 3.1 0 0 1-1.98.8c-1.34 0-1.77-.94-1.81-1.4h4.11c.2-2.58-1.54-3.43-2.5-3.43-.95 0-2.79.56-2.79 2.88S30.28 30 31.45 30a3.7 3.7 0 0 0 2.08-.72Zm-.92-2.86H29.8c.1-.67.58-1.33 1.47-1.33s1.27.89 1.35 1.33Zm7.02 1.61v1.25a3.7 3.7 0 0 1-2.08.72c-1.17 0-2.89-.8-2.89-3.12 0-2.32 1.84-2.88 2.8-2.88.94 0 2.68.85 2.5 3.43h-4.13c.05.46.47 1.4 1.81 1.4a3.1 3.1 0 0 0 1.99-.8Zm-3.74-1.61h2.82c-.08-.45-.47-1.33-1.35-1.33-.89 0-1.38.66-1.47 1.33ZM41 24v1.18h2.96L41 28.79V30h4.6v-1.2h-3.06l2.94-3.62V24H41Z" fill="#fff"/></svg>