<!-- by TradeStack --><svg width="56" height="56" viewBox="0 0 56 56" xmlns="http://www.w3.org/2000/svg"><path fill="#F0F3FA" d="M0 0h56v56H0z"/><path d="M28.41 10h.71l.16 11.04a6.93 6.93 0 0 0-1.13-.03L28.4 10Zm-1.52 11.21-3.9-10.27-.68.24 3.5 10.4c.35-.15.71-.28 1.08-.37Zm-2.24 1.02-7.16-8.26-.55.46 6.84 8.52c.27-.26.56-.5.87-.72Zm-1.72 1.73-9.52-5.3-.36.61 9.3 5.67c.17-.35.36-.67.58-.98Zm-1.02 2.2L11.17 24.4l-.13.7 10.67 2.17c.04-.38.1-.75.2-1.11Zm-.2 2.42L11 30.6l.11.71 10.8-1.6c-.1-.37-.16-.74-.2-1.13Zm.65 2.35-9.41 5.6.35.63 9.63-5.24c-.22-.31-.4-.64-.57-.99Zm1.46 2.02-6.89 8.6.55.47 7.22-8.35a6.9 6.9 0 0 1-.88-.72Zm2 1.34-3.56 10.5.67.25 3.96-10.38c-.37-.1-.73-.22-1.08-.37Zm2.32.56L28.41 46h.71l.16-11.17a6.91 6.91 0 0 1-1.14.02Zm2.28-.23L34.3 45.1l.67-.24-3.48-10.64c-.34.16-.7.3-1.07.4Zm2.14-1.03 7.26 8.52.54-.46-6.93-8.8c-.27.27-.56.51-.87.74Zm.99-10.45 7.02-8.61-.54-.47-7.34 8.32c.3.23.6.48.86.76ZM31.6 21.7l3.65-10.46-.66-.25-4.04 10.3c.36.1.72.25 1.05.41Z" fill="#B49964"/><path d="m25.8 12.38.7-.11 1.63 8.75c-.38.02-.75.07-1.1.16l-1.23-8.8Zm-.07 9.24-4.55-7.58-.61.36 4.19 7.76c.3-.2.63-.39.97-.54Zm-1.94 1.33-6.76-5.61-.46.54 6.48 5.9c.23-.3.47-.57.74-.83ZM22.33 25l-8.26-2.84-.24.67 8.11 3.22c.1-.36.23-.71.39-1.05Zm-.63 2.46-8.71.27v.71l8.72.13a7.08 7.08 0 0 1-.01-1.11Zm.23 2.32-8.15 3.11.24.67 8.29-2.73a6.9 6.9 0 0 1-.38-1.05Zm1.1 2.27L16.5 37.9l.46.55 6.79-5.57a6.95 6.95 0 0 1-.74-.84Zm1.76 1.68-4.14 7.79.62.35 4.5-7.6a6.86 6.86 0 0 1-.98-.54Zm2.26.97-1.19 8.8.7.11 1.6-8.75a6.85 6.85 0 0 1-1.11-.16Zm2.27.13 1.73 8.75.7-.12-1.33-8.84c-.36.1-.72.17-1.1.2Zm2.34-.7 4.7 7.63.61-.36-4.35-7.85c-.3.22-.62.42-.96.59Zm1.84-1.35 6.98 5.65.46-.55-6.72-5.98c-.21.31-.45.6-.72.88Zm.74-8.79L41 18.07l-.46-.55-7 5.61c.25.27.49.57.7.88Zm-1.66-1.7 4.3-7.88-.6-.35-4.66 7.66c.34.16.66.36.96.58Zm-2.19-1.04 1.3-8.86-.7-.11-1.7 8.76c.38.04.75.1 1.1.2Z" fill="#A7A5B6"/></svg>