<!-- by TradeStack --><svg viewBox="0 0 56 56" xmlns="http://www.w3.org/2000/svg"><path fill="#F0F3FA" d="M0 0h56v56H0z"/><path d="M20.04 12.66c0 .37-.29.66-.64.66a.66.66 0 0 1-.65-.66c0-.36.29-.66.65-.66.35 0 .64.3.64.66Zm3.45 0c0 .37-.3.66-.65.66a.66.66 0 0 1-.65-.66c0-.36.29-.66.65-.66.36 0 .65.3.65.66Zm3.2.66c.35 0 .64-.3.64-.66a.66.66 0 0 0-.65-.66c-.35 0-.64.3-.64.66 0 .37.29.66.64.66Zm4.08-.66c0 .37-.29.66-.64.66a.66.66 0 0 1-.65-.66c0-.36.29-.66.65-.66.35 0 .64.3.64.66Zm2.43.66c.36 0 .65-.3.65-.66a.66.66 0 0 0-.65-.66c-.35 0-.64.3-.64.66 0 .37.29.66.64.66Zm4.1-.66c0 .37-.3.66-.65.66a.66.66 0 0 1-.65-.66c0-.36.29-.66.65-.66.35 0 .64.3.64.66Zm1.09 3.73c.36 0 .65-.3.65-.66a.66.66 0 0 0-.65-.67c-.36 0-.65.3-.65.67 0 .36.29.66.65.66Zm-20.09-.66c0 .36-.29.66-.65.66a.66.66 0 0 1-.64-.66c0-.37.29-.67.64-.67.36 0 .65.3.65.67Zm2.93.79c.43 0 .78-.36.78-.8 0-.43-.35-.79-.78-.79a.78.78 0 0 0-.77.8c0 .43.35.79.77.79Zm-1.06 2.33c0 .44-.35.8-.77.8a.78.78 0 0 1-.78-.8c0-.44.35-.8.78-.8.42 0 .77.36.77.8Zm2.8.8c.42 0 .77-.36.77-.8 0-.44-.35-.8-.78-.8a.78.78 0 0 0-.77.8c0 .44.35.8.77.8Zm-1.06 2.28c0 .44-.35.8-.77.8a.78.78 0 0 1-.78-.8c0-.43.35-.79.78-.79.42 0 .77.36.77.8Zm1.05 3.77c.43 0 .78-.35.78-.8 0-.43-.35-.78-.78-.78a.78.78 0 0 0-.77.79c0 .44.35.8.77.8Zm2.56-3.77c0 .44-.35.8-.77.8a.78.78 0 0 1-.78-.8c0-.43.35-.79.78-.79.42 0 .77.36.77.8Zm.96 3.77c.43 0 .78-.35.78-.8 0-.43-.35-.78-.78-.78a.78.78 0 0 0-.77.79c0 .44.34.8.77.8Zm-.96 2.39c0 .44-.35.8-.77.8a.78.78 0 0 1-.78-.8c0-.44.35-.8.78-.8.42 0 .77.36.77.8ZM23 31.99c.43 0 .78-.36.78-.8 0-.43-.35-.79-.78-.79a.78.78 0 0 0-.77.8c0 .43.35.79.77.79Zm4.26-.8c0 .44-.35.8-.78.8a.78.78 0 0 1-.77-.8c0-.43.34-.79.77-.79s.78.36.78.8Zm.99-2.3c.43 0 .77-.36.77-.8 0-.44-.34-.8-.77-.8a.78.78 0 0 0-.78.8c0 .44.35.8.78.8Zm-6.34 5.35c0 .44-.35.8-.77.8a.78.78 0 0 1-.78-.8c0-.43.35-.79.78-.79.42 0 .77.36.77.8Zm-2.51 3.87c.42 0 .77-.35.77-.8 0-.43-.35-.78-.77-.78a.78.78 0 0 0-.78.79c0 .44.35.8.78.8Zm2.64 2.16c0 .44-.35.8-.78.8a.78.78 0 0 1-.77-.8c0-.44.35-.8.77-.8.43 0 .78.36.78.8Zm2.66 1.03c.56 0 1-.46 1-1.03 0-.57-.44-1.03-1-1.03s-1 .46-1 1.03c0 .57.44 1.03 1 1.03Zm4.54-1.03c0 .57-.46 1.03-1.01 1.03-.56 0-1-.46-1-1.03 0-.57.44-1.03 1-1.03.55 0 1 .46 1 1.03Zm2.48 1.03c.56 0 1.01-.46 1.01-1.03 0-.57-.45-1.03-1-1.03-.56 0-1.01.46-1.01 1.03 0 .57.45 1.03 1 1.03Zm-4.19-3.98c0 .57-.45 1.03-1 1.03-.56 0-1.01-.46-1.01-1.03 0-.57.45-1.03 1-1.03.56 0 1.01.46 1.01 1.03Zm.53-2.05c.55 0 1-.46 1-1.03 0-.56-.45-1.03-1-1.03-.56 0-1.01.47-1.01 1.03 0 .57.45 1.03 1 1.03Zm2.83-4.31c0 .56-.45 1.03-1 1.03-.56 0-1.01-.47-1.01-1.03 0-.57.45-1.03 1-1.03.56 0 1.01.46 1.01 1.03Zm.65-1.84c.55 0 1-.46 1-1.03 0-.57-.45-1.03-1-1.03-.56 0-1 .46-1 1.03 0 .57.44 1.03 1 1.03Zm-.65-4.21c0 .57-.45 1.03-1 1.03-.56 0-1.01-.46-1.01-1.03 0-.57.45-1.03 1-1.03.56 0 1.01.46 1.01 1.03Zm-2.77-2.02c.55 0 1-.46 1-1.03 0-.57-.45-1.03-1-1.03-.56 0-1.01.46-1.01 1.03 0 .57.45 1.03 1 1.03Zm-.79-4.17c0 .57-.45 1.03-1 1.03-.56 0-1.01-.46-1.01-1.03 0-.57.45-1.03 1-1.03.56 0 1.01.46 1.01 1.03Zm-2.58-1.97c.55 0 1-.46 1-1.02 0-.57-.45-1.03-1-1.03-.56 0-1.01.46-1.01 1.03 0 .56.45 1.02 1 1.02Zm4.49-1.02c0 .56-.45 1.02-1.01 1.02s-1-.46-1-1.02c0-.57.44-1.03 1-1.03s1 .46 1 1.03Zm2.47 1.02c.56 0 1.01-.46 1.01-1.02 0-.57-.45-1.03-1-1.03-.56 0-1.01.46-1.01 1.03 0 .56.45 1.02 1 1.02Zm-.53 1.97c0 .74-.58 1.33-1.3 1.33-.72 0-1.3-.6-1.3-1.33 0-.73.58-1.33 1.3-1.33.72 0 1.3.6 1.3 1.33Zm2.26 1.4c.72 0 1.3-.6 1.3-1.34 0-.73-.58-1.33-1.3-1.33-.72 0-1.3.6-1.3 1.33 0 .74.58 1.33 1.3 1.33Zm-.43 1.74c0 .74-.58 1.33-1.3 1.33-.72 0-1.3-.6-1.3-1.33 0-.73.58-1.33 1.3-1.33.72 0 1.3.6 1.3 1.33Zm2.34 1.33c.71 0 1.3-.6 1.3-1.33 0-.73-.59-1.33-1.3-1.33-.72 0-1.3.6-1.3 1.33 0 .74.58 1.33 1.3 1.33Zm-.61 1.72c0 .73-.58 1.33-1.3 1.33-.72 0-1.3-.6-1.3-1.33 0-.74.58-1.33 1.3-1.33.72 0 1.3.6 1.3 1.33Zm2.22 1.33c.72 0 1.3-.6 1.3-1.33 0-.74-.58-1.33-1.3-1.33-.71 0-1.3.6-1.3 1.33 0 .73.59 1.33 1.3 1.33Zm-.5 1.85c0 .73-.59 1.33-1.3 1.33-.73 0-1.3-.6-1.3-1.33 0-.74.57-1.33 1.3-1.33.71 0 1.3.6 1.3 1.33Zm-3.02 4.43c.72 0 1.3-.6 1.3-1.33 0-.73-.58-1.33-1.3-1.33-.72 0-1.3.6-1.3 1.33 0 .74.58 1.33 1.3 1.33Zm-.55 1.84c0 .73-.58 1.33-1.3 1.33-.72 0-1.3-.6-1.3-1.33 0-.73.58-1.33 1.3-1.33.72 0 1.3.6 1.3 1.33Zm-2.94 4.3c.72 0 1.3-.6 1.3-1.33 0-.73-.58-1.33-1.3-1.33-.72 0-1.3.6-1.3 1.33 0 .73.58 1.33 1.3 1.33ZM40 28.09c0 .73-.59 1.33-1.3 1.33-.72 0-1.3-.6-1.3-1.33 0-.74.58-1.33 1.3-1.33.71 0 1.3.6 1.3 1.33Zm-3.02 4.43c.72 0 1.3-.6 1.3-1.33 0-.73-.58-1.33-1.3-1.33-.72 0-1.3.6-1.3 1.33 0 .74.58 1.33 1.3 1.33Zm-.55 1.84c0 .73-.58 1.33-1.3 1.33-.72 0-1.3-.6-1.3-1.33 0-.73.58-1.33 1.3-1.33.72 0 1.3.6 1.3 1.33Zm-2.94 4.3c.72 0 1.3-.6 1.3-1.33 0-.73-.58-1.33-1.3-1.33-.72 0-1.3.6-1.3 1.33 0 .73.58 1.33 1.3 1.33Zm-9.8-1.33c0 .44-.35.8-.78.8a.78.78 0 0 1-.78-.8c0-.44.35-.8.78-.8.43 0 .77.36.77.8Zm1.05-2.3c.42 0 .77-.35.77-.79 0-.43-.35-.79-.77-.79a.78.78 0 0 0-.78.8c0 .43.35.79.78.79ZM36 15.74c0 .43-.35.79-.78.79a.78.78 0 0 1-.77-.8c0-.43.35-.79.77-.79.43 0 .78.36.78.8Zm.96 3.84c.43 0 .78-.35.78-.79 0-.43-.35-.79-.78-.79a.78.78 0 0 0-.77.8c0 .43.35.78.77.78Zm2.52 2.36c0 .44-.35.8-.77.8a.78.78 0 0 1-.78-.8c0-.43.35-.79.78-.79.42 0 .77.36.77.8Zm.77 3.9c.43 0 .78-.35.78-.8 0-.43-.35-.78-.78-.78a.78.78 0 0 0-.77.79c0 .44.35.79.77.79Zm2.52 2.26c0 .44-.35.8-.77.8a.78.78 0 0 1-.78-.8c0-.44.35-.8.78-.8.42 0 .77.36.77.8Zm-2.52 3.9c.43 0 .78-.36.78-.8 0-.43-.35-.79-.78-.79a.78.78 0 0 0-.77.8c0 .43.35.79.77.79Zm-.88 2.25c0 .44-.35.8-.78.8a.78.78 0 0 1-.77-.8c0-.43.35-.79.77-.79.43 0 .78.36.78.8Zm-2.72 3.87c.43 0 .78-.35.78-.8 0-.43-.35-.78-.78-.78a.78.78 0 0 0-.77.79c0 .44.34.8.77.8Zm-.89 2.29c0 .44-.35.8-.77.8a.78.78 0 0 1-.78-.8c0-.44.35-.8.78-.8.42 0 .77.36.77.8ZM15.91 19.57c.36 0 .65-.3.65-.66a.66.66 0 0 0-.65-.66c-.36 0-.65.3-.65.66 0 .37.3.66.65.66Zm-1.13 2.36c0 .37-.3.67-.65.67a.66.66 0 0 1-.65-.67c0-.36.3-.66.65-.66.36 0 .65.3.65.66Zm-2.35 3.77c.36 0 .65-.3.65-.66a.66.66 0 0 0-.65-.66c-.36 0-.65.3-.65.66 0 .36.3.66.65.66ZM11.3 28.1c0 .36-.3.66-.65.66a.66.66 0 0 1-.65-.66c0-.37.29-.66.65-.66.36 0 .65.3.65.66Zm1.13 3.77c.36 0 .65-.3.65-.67a.66.66 0 0 0-.65-.66c-.36 0-.65.3-.65.66 0 .37.3.67.65.67Zm2.35-3.77c0 .36-.3.66-.65.66a.66.66 0 0 1-.65-.66c0-.37.3-.66.65-.66.36 0 .65.3.65.66Zm1.13-2.39c.36 0 .65-.3.65-.66a.66.66 0 0 0-.65-.66c-.36 0-.65.3-.65.66 0 .36.3.66.65.66Zm2.4-3.77c0 .37-.3.67-.66.67a.66.66 0 0 1-.64-.67c0-.36.29-.66.64-.66.36 0 .65.3.65.66Zm1.08 3.77c.36 0 .65-.3.65-.66a.66.66 0 0 0-.65-.66c-.35 0-.64.3-.64.66 0 .36.29.66.64.66ZM18.3 28.1c0 .36-.29.66-.65.66a.66.66 0 0 1-.64-.66c0-.37.29-.66.64-.66.36 0 .65.3.65.66Zm-2.39 3.77c.36 0 .65-.3.65-.67a.66.66 0 0 0-.65-.66c-.36 0-.65.3-.65.66 0 .37.3.67.65.67Zm-1.13 2.38c0 .37-.3.67-.65.67a.66.66 0 0 1-.65-.67c0-.36.3-.66.65-.66.36 0 .65.3.65.66Zm2.87.67c.36 0 .65-.3.65-.67a.66.66 0 0 0-.65-.66c-.35 0-.64.3-.64.66 0 .37.29.67.64.67Zm2.4-3.72c0 .37-.3.67-.65.67a.66.66 0 0 1-.65-.67c0-.36.29-.66.65-.66.35 0 .64.3.64.66Zm1.09-2.44c.35 0 .64-.3.64-.66a.66.66 0 0 0-.64-.66c-.36 0-.65.3-.65.66 0 .36.29.66.65.66Zm-4.58 8.57c0 .37-.29.66-.65.66a.66.66 0 0 1-.65-.66c0-.37.3-.66.65-.66.36 0 .65.3.65.66Zm1.1 3.74c.35 0 .64-.3.64-.66a.66.66 0 0 0-.65-.66c-.35 0-.64.3-.64.66 0 .36.29.66.64.66Zm2.38 2.28c0 .36-.29.66-.65.66a.66.66 0 0 1-.64-.66c0-.37.29-.66.64-.66.36 0 .65.3.65.66Zm2.88.66c.36 0 .65-.3.65-.66a.66.66 0 0 0-.65-.66c-.36 0-.65.3-.65.66 0 .36.29.66.65.66Zm4.13-.66c0 .36-.3.66-.65.66a.66.66 0 0 1-.65-.66c0-.37.3-.66.65-.66.36 0 .65.3.65.66Zm2.83.66c.36 0 .65-.3.65-.66a.66.66 0 0 0-.65-.66c-.35 0-.64.3-.64.66 0 .36.29.66.64.66Zm4.13-.66c0 .36-.29.66-.64.66a.66.66 0 0 1-.65-.66c0-.37.29-.66.65-.66.35 0 .64.3.64.66Zm2.84.66c.36 0 .65-.3.65-.66a.66.66 0 0 0-.65-.66c-.36 0-.65.3-.65.66 0 .36.29.66.65.66Zm2.27-3.6c0 .36-.3.66-.65.66a.66.66 0 0 1-.65-.66c0-.37.29-.66.65-.66.36 0 .65.3.65.66Zm1.09-2.42c.36 0 .65-.3.65-.66a.66.66 0 0 0-.65-.66c-.36 0-.65.3-.65.66 0 .37.3.66.65.66Zm2.3-3.74c0 .37-.28.67-.64.67a.66.66 0 0 1-.65-.67c0-.36.3-.66.65-.66.36 0 .65.3.65.66Zm1.1-2.38c.36 0 .65-.3.65-.67a.66.66 0 0 0-.65-.66c-.36 0-.65.3-.65.66 0 .37.3.67.65.67ZM46 28.09c0 .36-.29.66-.65.66a.66.66 0 0 1-.65-.66c0-.37.3-.66.65-.66.36 0 .65.3.65.66Zm-2.39-2.39c.36 0 .65-.3.65-.66a.66.66 0 0 0-.65-.66c-.36 0-.65.3-.65.66 0 .36.3.66.65.66Zm-1.1-3.77c0 .37-.28.67-.64.67a.66.66 0 0 1-.65-.67c0-.36.3-.66.65-.66.36 0 .65.3.65.66Zm-2.38-2.36c.36 0 .65-.3.65-.66a.66.66 0 0 0-.65-.66c-.36 0-.65.3-.65.66 0 .37.29.66.65.66Z" fill="url(#a)"/><defs><linearGradient id="a" x1="10" y1="28" x2="44.39" y2="28" gradientUnits="userSpaceOnUse"><stop stop-color="#00598F"/><stop offset="1" stop-color="#00A5BF"/></linearGradient></defs></svg>