<!-- by TradeStack --><svg width="56" height="56" viewBox="0 0 56 56" xmlns="http://www.w3.org/2000/svg"><path fill="#F0F3FA" d="M0 0h56v56H0z"/><path d="M18.03 25.26 20 24.9c-.44-1.64-2.2-4.91-5.79-4.91-4.36 0-7.23 3.85-7.21 8-.02 4.15 2.85 8 7.21 8 3.58 0 5.35-3.27 5.79-4.9l-1.97-.36C17.38 32.84 15.97 34 14 34c-3.8 0-4.98-3.92-5-6 .02-2.08 1.2-6 5-6 1.97 0 3.38 1.15 4.03 3.26Z" fill="#87AABC"/><path fill-rule="evenodd" d="M31.06 20H22v16h2.02v-7h3.68c.6 0 2.11.39 3.36 2.45A129.9 129.9 0 0 0 33.98 36H37a61.5 61.5 0 0 1-2.94-3.94c-.87-1.33-1.78-2.57-3.23-3.06h.23c2.35 0 3.94-2.11 3.94-4.56 0-2.45-1.59-4.44-3.94-4.44Zm-.62 2h-6.42v5h6.42A2.46 2.46 0 0 0 33 24.45c0-1.42-.98-2.44-2.56-2.44Z" fill="#87AABC"/><path d="M38 20h11v2h-9v5h8v2h-8v7h-2V20Z" fill="#87AABC"/></svg>