<?xml version='1.0' encoding='utf-8'?>
<!-- by TradeStack -->
<svg width="56" height="56" viewBox="0 0 56 56" xmlns="http://www.w3.org/2000/svg"><path fill="#952939" d="M0 0h56v56H0z" /><path d="M29.77 19.79a4.07 4.07 0 0 1-2.89 2.23h-.64a.23.23 0 0 1-.1-.04c-.15-.09-.29-.06-.41.08a.22.22 0 0 1-.06.05l-.46.25-1.68.61-.88.17h-.3a.11.11 0 0 0-.1.04c-.42.59-.82 1.4-.8 2.13-.08.8.28 1.27 1.09 1.41.44.08 1.02-.05 1.47-.23a4.73 4.73 0 0 0 2.28-1.94c.22-.36.43-.7.29-1.07a.22.22 0 0 0-.08-.16.72.72 0 0 0-.78-.16c-.38.13-.71.33-1 .6a6.69 6.69 0 0 0-1.53 2.1h-.03v-.03c-.01-.26 0-.47.05-.63.3-1.1.99-1.84 2.06-2.24.13-.05.34-.08.62-.1.42-.02.72.14.88.5l.02.05c.06.38 0 .73-.17 1.06a5.3 5.3 0 0 1-1.44 1.62 5.26 5.26 0 0 1-1.05.63c-.12.02-.22.07-.33.12a3.61 3.61 0 0 1-.55.14c-.39.03-.74.05-1.07-.06-.45-.15-.8-.45-1.06-.9a2.91 2.91 0 0 1-.16-.9c0-.49.1-.95.29-1.39l.2-.5.08-.08a.03.03 0 0 0 0-.04l-.01-.01a1.87 1.87 0 0 1-1.15-1.08c-.4-2.05 1.47-3.51 3.3-3.76h.02l.01.02v.03l-.01.02c-.25.05-.46.16-.65.33a4.8 4.8 0 0 0-2.29 2.52 1.2 1.2 0 0 0-.06.28c-.08.37-.02.7.2.99.15.2.37.33.64.39.1.02.16 0 .2-.05a12.64 12.64 0 0 1 4.58-4.1 6.22 6.22 0 0 1 2.11-.68c.26-.03.56 0 .8.1.51.18.74.58.68 1.2a2 2 0 0 1-.13.48Z" fill="#fff" /><path d="M29.7 19.03v.02l-.01.01h-.02a.95.95 0 0 0-.53-.51c-.44-.17-1.06-.05-1.5.14-.28.12-.57.27-.89.45-.8.48-1.56 1.06-2.28 1.73-.65.62-1.26 1.3-1.83 2.03-.04.02-.07.02-.1-.01a.04.04 0 0 1 0-.05 15.9 15.9 0 0 1 3.23-3.27 8.26 8.26 0 0 1 1.87-1.1c.28-.1.64-.17.85-.21.24-.05.4.03.62.08.13.03.22.08.28.13.17.14.27.32.3.56Z" fill="#010101" /><path d="M29.7 19.03v.13a3.11 3.11 0 0 1-1 1.69c-.63.55-1.46.98-2.33.9a.15.15 0 0 1 .05-.02l-.01-.02a2.07 2.07 0 0 0 .4-.55.05.05 0 0 0-.06-.04l-.05.01c.1-.14.13-.32.1-.52a.13.13 0 0 0-.02-.05c-.18-.25-.41-.31-.7-.18a.92.92 0 0 0-.57.6 3.3 3.3 0 0 0-.06.35c-.02.1.03.2.14.28-.06 0-.1.02-.09.07 0 .1.05.15.13.16a.19.19 0 0 1-.08.08c-.68.43-1.45.74-2.3.92-.23.05-.43.07-.6.06a17.1 17.1 0 0 1 1.82-2.03c.72-.67 1.47-1.25 2.28-1.73.32-.18.61-.33.88-.45.45-.19 1.07-.3 1.51-.14a.94.94 0 0 1 .53.52h.02v-.04Z" fill="#952939" /><path d="M29.77 19.79c-.04.26-.15.51-.32.76a3.9 3.9 0 0 1-2.5 1.64c-.35.07-.62.05-.94-.03a.22.22 0 0 0-.17.02 7.4 7.4 0 0 1-3.57 1.2 8.98 8.98 0 0 0-.62 1.15c-.06.12-.12.38-.2.78a3.87 3.87 0 0 1 .84-2.17h.36l.88-.17a3.48 3.48 0 0 0 1.68-.61l.46-.25a.22.22 0 0 0 .06-.05c.12-.14.26-.17.4-.08.03.02.07.03.1.03.36.02.58.02.65 0a4.07 4.07 0 0 0 2.89-2.22Z" fill="#010101" /><path d="M15.91 20.2c-.42.03-.72.03-.89.01-.54-.04-1.08-.09-1.63-.12-.36-.02-.73.02-1.1.04l-.6.02a.04.04 0 0 0-.04.03.04.04 0 0 0 0 .04c.32.45.4.95.23 1.52-.31.67-.8 1.1-1.48 1.27-.31 0-.58-.06-.82-.19l-.15-.22-.1-.13a.14.14 0 0 1-.02-.08c-.02-.52.14-.96.49-1.32a3.62 3.62 0 0 1 1.42-.93.04.04 0 0 0-.02-.03 2.68 2.68 0 0 0-1.6-.08c-.57.15-1 .42-1.3.8a1.8 1.8 0 0 0-.37.56c-.08.17-.15.35-.21.52h-.06a.05.05 0 0 1-.03-.02v-.03c.03-.35.15-.65.35-.9a2.92 2.92 0 0 1 3.45-.9.2.2 0 0 0 .13 0 8.65 8.65 0 0 1 2.8-.19c.27.05.5.04.8.08a6.83 6.83 0 0 0 1.26.09v.02h-.01l-.5.14Z" fill="#fff" /><path d="m7.72 21.91.2-.52c.1-.21.22-.4.38-.56.33-.25.64-.44.95-.56a2.85 2.85 0 0 1 1.58-.12.02.02 0 0 1 0 .02l-.02.01a.07.07 0 0 1-.06.03 4.35 4.35 0 0 0-.6-.03c-.78.04-1.4.34-1.9.9a2.62 2.62 0 0 0-.52 1.1l-.04.02a.07.07 0 0 1-.06-.03v-.07a.27.27 0 0 0 .09-.19ZM15.92 20.2l.43.1a.02.02 0 0 1 .01.03v.01h-.01a9 9 0 0 1-2 .03c-.16-.02-.33-.01-.48 0l-.16-.03-.15-.05a.26.26 0 0 0-.08-.01h-1.16l-.09.02c-.12.04-.24.06-.34.06a.07.07 0 0 1-.07-.07v-.03l.01-.02.03-.01h.27a.06.06 0 0 0 .05-.03.15.15 0 0 1 .1-.07c.38-.02.75-.06 1.11-.04.55.03 1.1.08 1.63.12.17.02.47.02.9 0ZM11.53 20.31l.04.11-.01.1h-.01a.03.03 0 0 1-.03.01h-.01c-.07-.06-.14-.07-.2-.05-.42.16-.8.4-1.17.7-.18.17-.37.4-.57.73a.58.58 0 0 1 .14-.43c.22-.28.42-.49.6-.63a.98.98 0 0 0 .29-.13c.3-.23.62-.36.93-.4Z" fill="#010101" /><path d="M9.57 21.9a3.15 3.15 0 0 1 1.74-1.42c.06-.02.13 0 .2.05a.03.03 0 0 0 .05-.01v-.1h.03c.09.25.1.48.06.68-.13.6-.43 1.1-.91 1.48-.37.3-.87.48-1.17-.02a.89.89 0 0 1 0-.65Z" fill="#952939" /><path d="M26.55 20.7v.12l-.01.01-.02.01a.04.04 0 0 1-.03 0c-.32-.14-.46 0-.67.21a.04.04 0 0 1-.04.01l-.02-.01-.01-.02-.01-.05c.06-.1.13-.2.23-.27.13-.12.42-.23.55-.04h.02c.01 0 .02.02.01.03Z" fill="#010101" /><path d="M13.81 20.89c-.43.48-.8.99-1.13 1.51l-1.14 1.87a7.92 7.92 0 0 1-1.14 1.5c-.28.27-.6.52-.98.73-.18.03-.35.07-.52.13l-.5.16c-.86.19-1.7.1-2.5-.28-.17-.1-.27-.17-.3-.22-.13-.2-.3-.43-.5-.66a1.94 1.94 0 0 1 .46-2.02c.17-.19.38-.34.6-.47.38-.22.77-.32 1.26-.4a2.02 2.02 0 0 1 1.91.76l.06.04.3.13c.3.17.45.42.47.76 0 .07 0 .22-.03.46l-.53.73-.19.02a.03.03 0 0 1-.02-.02.02.02 0 0 1 0-.02c.14-.13.25-.27.36-.42.17-.26.25-.52.23-.8a.46.46 0 0 0-.18-.36c-.13-.1-.25-.18-.35-.22-.06.04-.08.08-.07.12.05.24.02.5-.08.74a2.06 2.06 0 0 1-1.42 1.2c-.17.05-.44.06-.59.05a1.12 1.12 0 0 1-.8-.52 1.06 1.06 0 0 1-.07-.39c.05-.73.8-1.24 1.48-1.4.3-.09.61-.13.9-.15a.2.2 0 0 0 .2-.04.03.03 0 0 0 0-.02.03.03 0 0 0 0-.02.25.25 0 0 0-.1-.06.33.33 0 0 0-.14-.18c-.76-.47-1.81-.3-2.53.13a.19.19 0 0 0-.07.08c-.2.13-.36.26-.5.39-.2.19-.32.43-.38.72-.24.96.1 1.65 1 2.08.15.07.39.13.72.18a3.38 3.38 0 0 0 3.53-1.65c.94-1.6 1.88-3.1 3.17-4.36a.35.35 0 0 1 .3-.1l.01.01a.02.02 0 0 1 .01.01v.01l-.21.26Z" fill="#fff" /><path d="M25.74 20.98v.05l.02.02a.04.04 0 0 0 .04.01h.02c.2-.22.35-.36.67-.22a.04.04 0 0 0 .03 0 .04.04 0 0 0 .03-.02.25.25 0 0 0 0-.12c.05.06.07.11.04.16-.13.28-.3.52-.52.7-.1.09-.18.08-.26-.02a.48.48 0 0 1-.07-.56Z" fill="#952939" /><path d="M5.1 25.63c.2.23.37.45.5.66.03.05.13.12.3.22.1.13.23.22.4.29 1.1.38 2.13.28 3.12-.3.38-.21.7-.46.98-.74.41-.42.8-.91 1.14-1.49l1.14-1.87c.33-.52.7-1.03 1.13-1.51.06-.04.1-.05.14-.04a.04.04 0 0 1 .03.02.04.04 0 0 1 0 .05c-.62.66-1.1 1.34-1.59 2.18-.42.71-.83 1.37-1.23 1.97a4.18 4.18 0 0 1-4.44 1.95 2.9 2.9 0 0 1-1.12-.52c-.28-.2-.44-.5-.5-.87Z" fill="#010101" /><path d="m16.83 21.66-.45.58c-.33.4-.78.77-1.34 1.13-.3.2-.59.37-.88.52a1.6 1.6 0 0 0-.62.32.78.78 0 0 0-.56.4.03.03 0 0 0 0 .03h.04c.29-.2.58-.35.89-.42.43.14.53.4.3.76l-1.05 1.48c-.06.14-.05.23.03.27.33.18 1.27-.75 1.49-1l.64-.64c.41-.42.9-.79 1.48-.88a.5.5 0 0 1 .38.08.13.13 0 0 1 .05.11l-.01.27-.02.05-.09.13c-.09.18-.2.32-.36.43l-1.1.6a.9.9 0 0 0-.28.13.09.09 0 0 0-.03.04.4.4 0 0 0-.02.2v.37l.03.02c.17.13.37.14.59.04.32-.15.57-.3.76-.44a6.73 6.73 0 0 0 1.3-1.28.15.15 0 0 1 .07-.01h.01a.05.05 0 0 1 .04.03.05.05 0 0 1 0 .05l-.08.14-.55.59a.6.6 0 0 1-.04.03l-.47.41-.73.46c-.27.17-.59.24-.96.2l-.2-.2-.18-.28a.08.08 0 0 1-.01-.04v-.52a.03.03 0 0 0-.02-.02h-.02c-.05.01-.1.05-.13.13l-.35.3c-.37.33-.78.55-1.24.68l-.36-.19a.87.87 0 0 1 0-.49c.04-.15.13-.31.27-.48.17-.2.45-.58.85-1.13-.01-.06-.06-.09-.13-.09s-.13 0-.17.03c-.2 0-.35.08-.45.23-.6.45-1.12 1-1.59 1.66-.18.25-.43.4-.75.44-.1-.05-.12-.1-.07-.18 1.1-1.43 2.28-2.8 3.52-4.12a6.56 6.56 0 0 1 2.17-1.65c.2-.08.35-.03.45.15l.02.05a.9.9 0 0 1-.07.52Z" fill="#fff" /><path d="M13.75 23.86c.65-.88 1.34-1.62 2.07-2.22a2.35 2.35 0 0 1 .85-.41.04.04 0 0 0 0-.03v-.02a.04.04 0 0 0-.01-.02h-.04c-.38.1-.74.28-1.08.53.24-.3.54-.52.92-.64.2-.06.36.05.29.27-.06.17-.15.35-.27.52-.12.17-.29.36-.49.55a7.54 7.54 0 0 1-2.24 1.47Z" fill="#952939" /><path d="M26.37 21.76a.14.14 0 0 1-.11 0 .04.04 0 0 1-.03-.04.04.04 0 0 1 .02-.03c.04-.04.08-.1.1-.16a.1.1 0 0 1 .03-.03l.08-.07.02-.02.22-.28h.07a.05.05 0 0 1 .03.03v.03a2.07 2.07 0 0 1-.4.52l.02.01v.01a.15.15 0 0 0-.05.03ZM13.75 23.86a.75.75 0 0 1-.23.12h-.02v-.01a.02.02 0 0 1 0-.03l1.16-1.37a7.7 7.7 0 0 1 .88-.88 3.3 3.3 0 0 1 1.12-.53l.02.02v.03l-.01.02h-.02c-.36.1-.63.25-.83.41-.73.6-1.42 1.34-2.07 2.22ZM25.59 21.6c.07.05.1.12.09.21 0 .02-.02.03-.05.03-.08-.01-.12-.06-.13-.16 0-.05.03-.07.09-.07ZM16.83 21.66c-.03.24-.14.47-.36.69a8.97 8.97 0 0 1-2.56 1.87 2.47 2.47 0 0 0-.9.43.03.03 0 0 1-.03-.03v-.02a.78.78 0 0 1 .56-.4c.22-.02.42-.12.62-.3.29-.16.58-.33.88-.53a6.13 6.13 0 0 0 1.79-1.71ZM9.43 22.6l.15.22c.16.3.44.37.82.19.68-.17 1.17-.6 1.48-1.27-.07.47-.3.86-.71 1.15-.42.3-1.18.49-1.61.15a.93.93 0 0 1-.25-.4.04.04 0 0 1 .04-.04h.08ZM20.37 22.02a1.87 1.87 0 0 0 1.16 1.09.03.03 0 0 1 0 .04l-.08.08-.33-.15a1.3 1.3 0 0 1-.75-1.06Z" fill="#010101" /><path d="M25.21 22.36c-.5.35-1.06.55-1.68.61l1.68-.61Z" fill="#952939" /><path d="M39.4 22.97c-.1.15-.27.18-.48.09a.42.42 0 0 1-.02-.31c.11-.4.85-.32.5.22Z" fill="#fff" /><path d="M10.4 23c-.38.2-.66.13-.82-.18.24.13.5.2.82.19ZM8.9 23.31a6.82 6.82 0 0 0-.27-.13c-.1-.04-.2-.08-.29-.1a3.24 3.24 0 0 0-2.11.26.12.12 0 0 1-.07 0 .19.19 0 0 1 .07-.08c.72-.43 1.77-.6 2.53-.13.06.04.1.1.13.18Z" fill="#952939" /><path d="M38.92 23.06c.21.09.37.06.48-.09h.06a.07.07 0 0 1 .02.1c-.1.15-.31.35-.5.22-.08-.05-.1-.13-.06-.23Z" fill="#010101" /><path d="M35.92 23.59a.6.6 0 0 0-.09.13c0 .02 0 .05.05.08l.95-.12a.08.08 0 0 1 .09.07c0 .02 0 .03-.02.04l-.1.2c-.64.65-1.23 1.34-1.77 2.07a.84.84 0 0 0-.11.29.31.31 0 0 0-.03.1l-.01.02-.02.02c-.05.04-.05.1 0 .16.1.18.3.1.44.01a7.69 7.69 0 0 0 2.45-2.45c.26-.37.48-.58.92-.62.03 0 .05 0 .08.02.02 0 .04.03.05.05.02.06 0 .12-.03.18l-1.8 2.48c-.03.09-.12.35 0 .4.38.17 1.23-.6 1.53-.89.32-.3.67-.67 1.03-1.1a3.85 3.85 0 0 1 2.12-1.24c.36-.07.66.01.82.33a.08.08 0 0 0 .06.05.08.08 0 0 0 .07-.03c.17-.23.5-.43.71-.11a.06.06 0 0 1 .01.05l-.03.07a361.47 361.47 0 0 0-1.7 2.26.82.82 0 0 0-.14.35c-.03.06-.04.13-.02.22.01.02.02.04.05.06.02.02.04.03.07.03.47 0 1.05-.57 1.42-.9.19-.18.5-.5.92-1a3.74 3.74 0 0 1 2.37-1.4c.3-.04.65.02.72.36a.07.07 0 0 0 .12.03.31.31 0 0 0 .07-.1l.03-.03c.13-.09.47-.24.6-.11a.3.3 0 0 1 .07.21l-.01.05-.23.32-2.03 2.56v.02a.01.01 0 0 0 .02 0l.13-.04a6.81 6.81 0 0 0 2.42-1.6c.49-.74 1.2-1.4 2.07-1.64.3-.08.7-.03.68.39 0 .15-.03.27-.08.36l-.43.52c-.11.1-.22.2-.33.26l-.77.44-.67.27c-.05.02-.08.08-.1.18-.06.17-.07.36-.02.57.1.47.86.18 1.1.05.5-.28.92-.6 1.26-.92a876.97 876.97 0 0 1 1.1-1.06.02.02 0 0 1 .02.02c0 .08-.02.17-.08.24-.23.3-.4.48-.48.56-.3.26-.56.5-.82.75a2.7 2.7 0 0 1-.6.4l-.05.05a.74.74 0 0 1-.18.12c-.64.3-1.23.54-1.75-.16l-.05-.9c-.67.53-1.39.96-2.14 1.28-.17.07-.35.1-.5.18a6.28 6.28 0 0 1-3.62 3.4.89.89 0 0 1-.48 0 .1.1 0 0 1-.05-.03l-.19-.17-.1-.15a.08.08 0 0 1 0-.05c.01-.37.14-.68.37-.91a8.19 8.19 0 0 1 2.78-1.85l.52-.19c.07-.03.14-.1.19-.23l.04-.04h.02l.01-.01.28-.37a.02.02 0 0 0 .01-.02.02.02 0 0 0 0-.02.02.02 0 0 0-.02 0 .02.02 0 0 0-.02 0l-.5.38a.98.98 0 0 1-.7.15.17.17 0 0 1-.07-.02c-.16-.1-.3-.24-.43-.43l-.02-.64a.2.2 0 0 0 .05-.08.04.04 0 0 0-.02-.04.04.04 0 0 0-.04 0l-.78.67c-.23.2-.47.35-.74.46-.34.15-.59.12-.86-.09l-.04-.5.06-.18a.02.02 0 0 0-.01-.02h-.02c-.4.42-1.2 1.17-1.82.77-.04-.03-.12-.1-.23-.23a1.3 1.3 0 0 1-.08-.63c.04-.05.05-.1.05-.15a.04.04 0 0 0-.02-.04.04.04 0 0 0-.05 0 9.3 9.3 0 0 1-1.12.92c-.33.23-.78.37-1.11.04a.94.94 0 0 1-.06-.64l.1-.24a.01.01 0 0 0 0-.01h-.02l-.7.6-.81.46a.6.6 0 0 1-.68-.17.66.66 0 0 1-.1-.42c.04-.33.19-.67.44-1 .28-.38.65-.73 1.12-1.05l.15-.16v-.03l-.02-.01c-.4-.12-.74.06-.98.36l-.76.93c-.31.4-.74.78-1.3 1.17l-.63.35a.53.53 0 0 1-.5.02 1.6 1.6 0 0 1-.26-.17c-.1-.3-.07-.63.12-.99.24-.46.57-.86 1-1.18a8.53 8.53 0 0 0 .5-.44.07.07 0 0 0-.02-.07.07.07 0 0 0-.03-.01c-.56-.08-.86.3-1.21.7a3.17 3.17 0 0 1-2.54 2.14.7.7 0 0 1-.74-.09c-.13-.17-.09-.31-.1-.5l.08-.2v-.02a.03.03 0 0 0-.03-.02l-.02.01c-.3.35-.65.62-1.04.8-.42.21-.8.04-1.05-.32a.49.49 0 0 1-.03-.17c0-.55.16-1.06.5-1.52a3.7 3.7 0 0 1 2.37-1.43c.38-.07.64.05.79.37a.04.04 0 0 0 .05.02l.02-.01c.16-.25.39-.33.69-.25l.06.05c.02.02.02.04.02.07 0 .07-.02.13-.04.18-.67.76-1.27 1.57-1.8 2.43l-.17.32a.03.03 0 0 0 .01.04H29c.49.06.87-.17 1.2-.48.73-.68 1.15-1.1 1.27-1.24l.25-.3a.26.26 0 0 1 .06-.06c.36-.25.63-.58.8-1l.18-.4c.08-.18.2-.25.4-.2l.02.02.01.02c.08.16.08.3.01.42-.22.2-.24.3-.05.33l.83-.15a.1.1 0 0 1 .12.1.3.3 0 0 1-.08.2c-.55.55-1.1 1.2-1.67 1.93-.13.16-.22.32-.27.47-.05.1-.06.2-.04.3l.06.07c.02.02.06.03.09.02.27 0 .58-.23.8-.4a7.02 7.02 0 0 0 1.65-1.71l.53-.58c.06-.06.1-.14.13-.22.08-.27.23-.62.45-.82a.1.1 0 0 1 .06-.03c.25-.01.28.21.24.4a.1.1 0 0 1-.02.04.36.36 0 0 0-.1.16Z" fill="#fff" /><path d="m8.9 23.31.1.06a.03.03 0 0 1 0 .04.2.2 0 0 1-.2.04 1.07 1.07 0 0 0-.64-.31 2.7 2.7 0 0 0-2.88 1.3c.06-.28.19-.52.38-.71.14-.13.3-.26.5-.39.03.01.05 0 .07 0 .68-.32 1.38-.4 2.11-.26a6.82 6.82 0 0 1 .55.23ZM26.58 23.48v.05a.03.03 0 0 1-.03.03h-.02l-.02-.01c-.2-.25-.43-.28-.73-.19-1.15.34-2.03 1.54-2.48 2.57-.03.07-.07.11-.15.08a.04.04 0 0 1-.02-.02v-.03l.06-.1.2-.37c.34-.64.78-1.21 1.33-1.72.29-.28.62-.48 1-.61.3-.1.56-.05.78.16.05.05.07.1.08.16ZM33.14 23.81c-.19-.02-.17-.13.05-.33.03.1.01.2-.05.33ZM35.88 23.8c-.04-.03-.06-.06-.05-.08a.6.6 0 0 1 .1-.13c.05-.06.1-.06.12-.01v.04l-.17.18Z" fill="#010101" /><path d="M8.9 23.65c-.23.08-.46.13-.7.15a2 2 0 0 0-.3.04c-.13.03-.23.07-.29.1-.15.1-.31.18-.49.23a1.99 1.99 0 0 1 1.78-.52Z" fill="#952939" /><path d="M9.15 23.75c-.15.06-.3.1-.47.1l-.39.01c-.68.1-1.23.44-1.64 1.04.03-.3.19-.54.47-.73.18-.05.34-.12.5-.22.05-.04.15-.08.28-.11.07-.02.17-.03.3-.04.24-.02.47-.07.7-.15a.6.6 0 0 1 .17 0c.06 0 .08.03.08.1ZM29.91 23.87c.02.05.02.08.01.1 0 .02-.04.03-.09 0-.57-.2-1.29.42-1.67.78-.46.45-.84.96-1.13 1.54 0-.15.04-.3.14-.46.26-.4.46-.68.6-.85.35-.42 1.53-1.6 2.13-1.15l.01.02v.02ZM42.28 23.86c0 .05 0 .1-.02.13a.03.03 0 0 1-.03.01h-.01c-.17-.1-.35-.1-.56 0-.29.12-.5.23-.64.33a4.76 4.76 0 0 0-1.6 1.97c-.03.02-.05.02-.08.01.04-.19.08-.32.12-.4.36-.63.82-1.18 1.38-1.64.26-.23.56-.4.9-.51.2-.08.39-.05.54.1ZM46.84 23.92v.04a.05.05 0 0 1-.08.04c-.2-.14-.38-.07-.63.03a4.35 4.35 0 0 0-2.12 2.16c-.04.07-.09.09-.16.05a5.96 5.96 0 0 1 1.97-2.29c.24-.14.86-.41 1.02-.03Z" fill="#010101" /><path d="M6.65 24.9c.41-.6.96-.95 1.64-1.04h.4c.16-.01.31-.05.46-.11-.02.34-.12.66-.32.95-.23.34-.54.6-.93.8-.35.17-.79.27-1.1 0-.16-.15-.21-.34-.15-.6Z" fill="#952939" /><path d="M50.67 23.97c-.14-.07-.25-.08-.35-.01-.55.37-1 .83-1.33 1.38-.03.03-.08.05-.15.05a.04.04 0 0 1-.04-.04v-.02c.4-.58.82-1.12 1.37-1.49a.56.56 0 0 1 .29-.09c.15 0 .23.07.21.22ZM9.98 24.39a3.5 3.5 0 0 0-.51-.4c-.05-.04-.06-.1-.02-.19.1.04.22.12.35.22.12.1.17.22.18.37Z" fill="#010101" /><path d="M27.03 26.3c.3-.59.67-1.1 1.13-1.55.38-.36 1.1-.98 1.67-.77.05.02.08.01.1 0 0-.03 0-.06-.02-.1l.01-.02c.06.06.07.12.05.17a9.45 9.45 0 0 1-2 2.38 1.5 1.5 0 0 1-.61.33.36.36 0 0 1-.2-.03c-.25-.09-.29-.23-.13-.42Z" fill="#952939" /><path d="m36.98 26.32 1.79-2.48c.03.1.01.19-.06.29l-1.63 2.22a.05.05 0 0 1-.06.03c-.02 0-.04-.03-.04-.06ZM43.3 23.85h.01a.02.02 0 0 1 .03.02v.01a.77.77 0 0 1-.15.34l-1.65 2.23a.1.1 0 0 1-.07.04c-.01 0-.02 0-.02-.03a.82.82 0 0 1 .15-.34 353.13 353.13 0 0 1 1.7-2.27Z" fill="#010101" /><path d="M39.34 26.31c.03.01.05 0 .08-.01l.02-.03c.31-.76.92-1.45 1.58-1.94.14-.1.35-.21.64-.34.2-.08.4-.08.56.01a.03.03 0 0 0 .04-.01.24.24 0 0 0 .02-.13c.06.06.07.12.04.17-.07.13-.16.31-.26.45-.26.36-2.2 2.94-2.72 2.11a.08.08 0 0 1-.01-.05l.01-.23ZM50.67 23.97c-.04.25-.18.47-.4.67-.38.32-.81.56-1.28.7.33-.55.78-1.01 1.33-1.38.1-.07.21-.06.35 0Z" fill="#952939" /><path d="M29.13 26.34c.53-.86 1.13-1.67 1.8-2.43.04.05.03.1 0 .15-.57.74-1.12 1.49-1.67 2.24-.03.04-.07.05-.13.04Z" fill="#010101" /><path d="M46.84 23.92c.03 0 .04.04.03.1 0 .01 0 .03-.02.05-.15.23-.29.48-.47.7a33 33 0 0 1-1.04 1.21c-.27.3-.58.53-.92.71-.22.12-.4.1-.54-.08a.1.1 0 0 1-.03-.07v-.3c.07.04.12.02.16-.05a4.35 4.35 0 0 1 2.12-2.16c.25-.1.42-.17.63-.03a.05.05 0 0 0 .08-.04v-.04Z" fill="#952939" /><path d="M32.07 26.36c.05-.15.14-.3.27-.47A20.7 20.7 0 0 1 34 23.96c.06.02.09.05.09.09v.02l-.01.01c-.26.28-.6.65-1 1.12a10.32 10.32 0 0 0-.97 1.22c-.01 0-.03-.02-.05-.06ZM36.8 23.99h.07a.06.06 0 0 1 .04.04.06.06 0 0 1 0 .06 21.05 21.05 0 0 0-1.94 2.26h-.05a.84.84 0 0 1 .1-.3c.55-.72 1.14-1.41 1.77-2.06ZM33.08 24.3a.99.99 0 0 0-.72.27c-.28.26-.7.7-1.1 1.12-.3.32-.64.63-1 .91-.4.32-.73.56-1.18.61-.27.03-.44-.07-.5-.3a.04.04 0 0 1 .02-.05h.06c.23.17.48.2.74.09.31-.14.63-.32.9-.58l.65-.56c.1-.1.3-.31.6-.66a3.62 3.62 0 0 1 .39-.34c.35-.4.65-.8 1.2-.71a.07.07 0 0 1 .06.08l-.01.03a.33.33 0 0 1-.1.1Z" fill="#010101" /><path d="M35.88 24.33a.8.8 0 0 0-.75.26l-.3.37a9.3 9.3 0 0 1-2.19 2.06c-.1.07-.27.13-.51.17-.3.06-.5-.05-.6-.32a.05.05 0 0 1 .01-.05.09.09 0 0 1 .04-.03c.12.1.2.15.25.17.19.08.36.07.5-.02.3-.02.51-.14.64-.35.56-.39.99-.78 1.3-1.17l.76-.93c.24-.3.58-.48.98-.36a.03.03 0 0 1 .02.02v.02l-.15.16ZM47.63 24.2a18.37 18.37 0 0 1-1.88 2.54l-.13.04h-.02a.01.01 0 0 1 0-.02l2.03-2.56ZM50.84 24.25a.89.89 0 0 1-.31.63c-.57.5-1.24.86-2 1.04.03-.1.06-.16.11-.18l.67-.27c.31-.06.57-.2.77-.44a2.7 2.7 0 0 0 .33-.26l.43-.52Z" fill="#010101" /><path d="M17.08 24.43c-.29.02-.53.1-.72.23.26-.34.5-.42.72-.23Z" fill="#952939" /><path d="M17.08 24.43a.14.14 0 0 0-.02.1c-.2 0-.38.07-.53.21a7.66 7.66 0 0 0-.78.75l-.02-.01v-.02l.2-.35c.11-.16.26-.31.43-.45.2-.14.43-.21.72-.23ZM26.62 24.47c-.07.27-.21.55-.43.82-.87 1.12-2.32 2.13-3.82 1.88-.69-.12-1.1-.5-1.25-1.15.26.45.61.75 1.06.9.33.11.68.09 1.07.07a3.62 3.62 0 0 0 .55-.15c.1-.05.21-.1.33-.12.03 0 .05-.02.08-.03a5.25 5.25 0 0 0 1.82-1.4c.17-.18.36-.45.59-.82Z" fill="#010101" /><path d="M17.06 24.54c0 .13-.2.37-.27.44a3.24 3.24 0 0 1-1.18.71l-.03-.01a.05.05 0 0 1 0-.07l.34-.5-.19.35v.02l.02.01a.02.02 0 0 0 .02 0c.11-.14.36-.4.76-.75.15-.14.33-.2.53-.2ZM13.6 24.56c-.08.15-.23.23-.45.23.1-.15.25-.23.45-.23Z" fill="#952939" /><path d="M6.5 25.4c.2.3.47.47.8.5.14.02.41.01.58-.03a2.06 2.06 0 0 0 1.42-1.2h.02a.02.02 0 0 1 .03.02 1.94 1.94 0 0 1-1.54 1.42c-.27.05-.55.02-.82-.08-.34-.13-.5-.34-.5-.64ZM48.04 26.54c.52.7 1.1.47 1.75.16a.73.73 0 0 0 .18-.12l.06-.05.02-.02c.25-.13.44-.26.57-.38.26-.24.53-.5.82-.75.09-.08.25-.27.48-.56.09.04.1.1.02.2a8.2 8.2 0 0 1-2.14 1.88c-.4.24-1.14.49-1.55.1a.68.68 0 0 1-.2-.46ZM10.13 24.89a1.53 1.53 0 0 1-.63.98.06.06 0 0 1-.06 0l-.02-.02a.02.02 0 0 1 0-.02.6.6 0 0 0 .18-.21l.53-.73ZM13.16 26.46l1.06-1.48c-.22.5-.51.98-.88 1.43-.06.07-.12.09-.18.05Z" fill="#010101" /><path d="M50.08 25.03c-.2.23-.46.38-.77.44l.77-.44Z" fill="#952939" /><path d="m15.09 26.65.2.2c.16.18.38.21.67.09.17-.08.38-.2.62-.36.18-.12.32-.25.4-.38l.47-.41a.57.57 0 0 0 .04-.03l.55-.59c.04.01.06.04.06.08 0 .03-.02.07-.04.1-.5.6-1.07 1.1-1.72 1.5-.47.3-1.13.41-1.41-.18a.03.03 0 0 1 0-.04.03.03 0 0 1 .03 0l.13.02Z" fill="#010101" /><path d="M16.75 25.28c-.29.35-.66.55-1.1.6l1.1-.6Z" fill="#952939" /><path d="M47.99 25.65c0 .1 0 .16-.05.19a7.64 7.64 0 0 1-2.48 1.43.47.47 0 0 0-.21.14c-.61.75-1.25 1.47-1.92 2.18-.5.52-1.12 1.08-1.81 1.14-.32.03-.52-.1-.6-.4a.03.03 0 0 1 .03-.03H41l.2.17a.1.1 0 0 0 .04.03.9.9 0 0 0 .48 0c.15-.06.37-.18.67-.35.2-.1.4-.26.6-.46.37-.36.62-.62.76-.78a86.12 86.12 0 0 0 1.59-1.81c.15-.09.33-.1.5-.18a9.87 9.87 0 0 0 2.14-1.27ZM43.37 25.9c-.42.52-1.15 1.18-1.84 1.3-.15.02-.3.04-.44-.06a.28.28 0 0 1-.11-.32c.27.21.52.24.86.1.27-.12.51-.28.74-.47a87.13 87.13 0 0 1 .8-.68h.02l.01.03v.02a.2.2 0 0 1-.04.08ZM38.84 26.03c-.43.44-1.33 1.32-2 1.16-.18-.05-.28-.16-.33-.35v-.02l.02-.01h.01l.05-.01c.33.33.78.2 1.1-.04a9.3 9.3 0 0 0 1.15-.93.04.04 0 0 1 .05.05c0 .05-.01.1-.05.15ZM36.53 26.16c-.42.42-1.71 1.67-2.22.7a.03.03 0 0 1 .01-.04h.01l.1-.02c.18.2.4.26.67.17.33-.03.6-.18.8-.47l.71-.6a.02.02 0 0 1 .02 0 .02.02 0 0 1 0 .02l-.1.24ZM12.78 26.72l.36.19c.2.24.61-.1.78-.23l.02-.02c.06-.06.15-.13.27-.2a.44.44 0 0 0 .17-.23l.35-.3c.07-.01.09.01.07.08a.1.1 0 0 1-.03.04c-.34.37-1.24 1.24-1.8 1-.18-.07-.24-.18-.19-.33ZM28.56 26.35c-.22.24-.47.45-.75.63-.25.15-.47.23-.67.23-.32 0-.54-.19-.66-.55-.01-.03 0-.06.02-.06.25.36.63.53 1.05.33a3.34 3.34 0 0 0 1.06-.82.03.03 0 0 1 .03.02v.02l-.08.2ZM40.94 26.31c-.26.3-.55.55-.85.74-.41.25-1 .25-1.22-.27-.03-.09-.02-.12.05-.12.11.13.2.2.23.23.62.4 1.42-.35 1.81-.77H41v.02l-.05.17Z" fill="#010101" /><path d="M16.98 26.2a1.4 1.4 0 0 1-.4.38c-.24.17-.45.28-.62.36-.29.12-.5.1-.67-.09.37.05.69-.02.96-.2l.73-.45ZM14.38 26.23c-.04.1-.1.18-.17.22a1.42 1.42 0 0 0-.29.23c-.17.13-.58.46-.78.23.46-.13.87-.35 1.24-.68ZM44.81 26.88v-.05l-.01-.01h-.03l-.19.02.51-.38a.02.02 0 0 1 .02 0 .02.02 0 0 1 .02.03l-.29.38h-.03ZM9.42 26.5c-.99.58-2.02.68-3.12.3a.79.79 0 0 1-.4-.3 3.82 3.82 0 0 0 3 .13c.17-.06.34-.1.52-.13ZM35.9 26.5c-.2.29-.47.44-.8.47l.8-.47Z" fill="#952939" /><path d="M43.39 26.54c.12.2.27.34.43.43l.06.02c.26.04.5-.01.7-.15l.2-.03a.03.03 0 0 1 .03.03v.04l-.04.04c-.2.16-.4.25-.59.27-.46.06-.73-.16-.8-.65Z" fill="#010101" /><path d="M32.97 26.59c-.13.2-.34.33-.63.35l.63-.35Z" fill="#952939" /><path d="M44.13 27.75a6.65 6.65 0 0 0-2.95 2.01l-.01-.05c.14-.28.3-.5.46-.64a8.8 8.8 0 0 1 2.76-1.62.02.02 0 0 1 0 .03l-.26.27Z" fill="#010101" /><path d="M44.13 27.75c.01.03 0 .07-.05.12l-.1.1c-.48.62-1 1.2-1.58 1.75-.23.21-.82.73-1.15.48-.16-.11-.19-.28-.08-.5l.01.06h.01a.02.02 0 0 0 .02 0 6.65 6.65 0 0 1 2.92-2.01Z" fill="#952939" /><path d="M29.26 29.64c-.16.18-.25.4-.41.61a11.9 11.9 0 0 1-4.14 2.8c-.15.07-.3.1-.45.13a.15.15 0 0 0-.1.05c-.83.98-1.54 2.03-2.11 3.18-.12.23-.19.44-.2.63-.03.05-.03.12 0 .22.14.5.8.2 1.1.02a6.65 6.65 0 0 0 1.32-1.17c.5-.8 1.2-1.47 2.1-1.77.37-.12.84-.18 1.04.23.1.24.1.47-.01.7a1.75 1.75 0 0 0-.34.66c.12.15.29.18.51.1.15-.05.28-.12.4-.2.42-.34.68-.63 1.09-1.12.1-.12.18-.2.24-.24.23-.14.5-.17.62.1a.05.05 0 0 1 0 .05l-.11.17c-.6.63-1.16 1.3-1.66 2l-.2.33a.33.33 0 0 0-.04.28c0 .02.02.03.03.04.13.1.26.1.41.03.15-.08.38-.27.7-.56a15 15 0 0 0 1.9-2.13.8.8 0 0 1 .66-.34c.1 0 .22 0 .25.1 0 .05 0 .08-.03.1a70.8 70.8 0 0 0-1.73 2.24c-.08.1-.14.2-.17.3-.06.09-.08.17-.06.25.01.03.04.05.07.07.03.02.06.03.1.02.32-.05.61-.26.86-.46.22-.18.49-.43.8-.74a3.47 3.47 0 0 0 .68-.88l.76-.9c.11-.13.19-.24.23-.34.06-.15.11-.4.21-.58.04-.07.1-.1.2-.1.05.01.1.06.13.15.03.11.02.22-.04.32-.11.1-.13.2-.05.31.17.3.29.58.36.85.05.24.04.5-.04.76-.2.35-.36.7-.69.96a5.06 5.06 0 0 1-.61.46v.02l.02.02c.02.02.05.02.09 0l.38-.15a5.73 5.73 0 0 0 2.43-1.84l.15-.1a2.94 2.94 0 0 1 1.79-1.04.4.4 0 0 1 .4.17c.02.01.02.03.03.05.06.2.05.37-.03.52l-.4.54-.04.03c-.2.18-.4.32-.6.42a14.97 14.97 0 0 1-1.26.62c-.07.28-.08.5-.04.68.02.07.09.15.2.24a.1.1 0 0 0 .07.02c.33 0 .64-.1.94-.27a9.62 9.62 0 0 0 2.22-1.92h.03a.06.06 0 0 1 .05.08.62.62 0 0 1-.1.2c-.4.45-.83.88-1.3 1.27-.37.32-.78.58-1.23.77-.37.16-.74.17-1.08-.06l-.26-.28a.1.1 0 0 1-.02-.04.97.97 0 0 1-.04-.22 3.35 3.35 0 0 1 .06-.74.06.06 0 0 0-.05-.03.06.06 0 0 0-.05.02c-.4.39-.76.65-1.27.94-.29.17-.53.26-.83.38a31.92 31.92 0 0 1-1.08.14.76.76 0 0 1-.56-.2l-.15-.17a.08.08 0 0 1-.01-.05v-.29a4.8 4.8 0 0 0-.61.38c-.3.22-.82.54-1.14.2l-.11-.17a.1.1 0 0 1-.02-.05l-.02-.34.1-.25v-.04h-.04a6.4 6.4 0 0 1-.7.65c-.09.08-.24.17-.46.27-.3.14-.55.1-.76-.14-.23-.36 0-.77.17-1.12l.16-.21a.03.03 0 0 0-.01-.04h-.02a1.7 1.7 0 0 1-.48.13.44.44 0 0 1-.4-.15.1.1 0 0 0-.13 0l-.19.2c-.39.56-1.03 1.21-1.71 1.38a.67.67 0 0 1-.72-.23l-.12-.2a.15.15 0 0 1-.02-.06l-.05-.44a.2.2 0 0 0 .04-.1.04.04 0 0 0-.02-.04H24c-.53.49-1.03.95-1.75 1.1-.29.05-.55-.08-.78-.38a.91.91 0 0 1-.06-.34c.01-.4.1-.8.29-1.2.33-.73.74-1.42 1.24-2.06l.1-.17a.03.03 0 0 0-.01-.04H23l-.4.1a.12.12 0 0 0-.07.06c-.13.28-.35.49-.64.62-.18-.03-.05-.27 0-.36a.21.21 0 0 0 .09-.12.06.06 0 0 0-.02-.05.06.06 0 0 0-.06-.02l-.44.12a.06.06 0 0 0-.03.03c-.3.55-.72 1.15-1.27 1.78a5.68 5.68 0 0 1-3.2 1.98c-.43.08-.86.07-1.3-.02-.18-.1-.38-.16-.6-.18a2.63 2.63 0 0 1-1.1-1.11 2.52 2.52 0 0 1 .04-1.51 2.9 2.9 0 0 1 2.55-1.87c.51-.05 1.17.04 1.59.34.31.22.52.53.63.92 0 .01 0 .02.02.03l.04.01.6-.1c.26-.08.5-.09.76-.17.11-.03.25-.05.42-.05.11 0 .19-.08.24-.17a7.49 7.49 0 0 1 .96-1.39 7.59 7.59 0 0 1 1.4-1.37l.12-.1a.02.02 0 0 0 0-.04h-.02c-.3.02-.54.02-.72 0-.52-.03-1-.19-1.44-.46-.43-.27-.74-.46-.93-.55-.35-.18-.62-.3-.8-.34-.23-.07-.38-.1-.43-.09l-.44.06a.87.87 0 0 0-.58.23l-.02.05v.03c-.26.16-.4.4-.44.71-.08.28-.07.56.04.83.27.63.94.9 1.6.9l.05.02a.08.08 0 0 1 0 .14l-.11.08c-.76.03-1.34-.3-1.75-.98a1.52 1.52 0 0 1-.1-.7 1.6 1.6 0 0 1 1.16-1.47c.8-.28 1.63-.11 2.36.3l1.21.68c.43.24.97.4 1.44.3.26-.06.5-.15.75-.26a.13.13 0 0 1 .1 0 .04.04 0 0 1 .02.02v.04l-.2.2a14.85 14.85 0 0 0-2.37 2.9.05.05 0 0 0 .04.02l.04.01a.5.5 0 0 0 .43-.12.12.12 0 0 0 .03-.04c.1-.28.28-.5.53-.66l.04-.02c.07-.02.11 0 .14.05l.03.14c-.01.05-.03.1-.06.13a.8.8 0 0 0-.16.23.05.05 0 0 0 0 .05.05.05 0 0 0 .06.02l.46-.12a.08.08 0 0 0 .05-.04l.52-.64c.15-.18.32-.36.5-.54l.43-.45c.6-.62 1.22-1.2 1.87-1.73.4-.33.91-.68 1.34-.88.35-.17.97-.37 1.25-.04a.2.2 0 0 1 .04.07c.06.2.05.4-.04.6Z" fill="#fff" /><path d="M29.12 29.27c-.48 0-.9.16-1.29.5a43.76 43.76 0 0 0-2.18 2.03c-.29.3-.57.62-.84.95l-.24.1h-.03a.02.02 0 0 1 0-.04 30.99 30.99 0 0 1 2.8-2.85c.32-.28 1.21-1.05 1.62-.92.09.02.14.1.16.23Z" fill="#010101" /><path d="M29.12 29.27c-.07.4-.26.76-.56 1.07-.4.42-.85.8-1.33 1.14-.72.5-1.53.94-2.42 1.27.27-.33.55-.65.84-.95a30.76 30.76 0 0 1 2.18-2.04c.38-.33.81-.5 1.3-.49Z" fill="#952939" /><path d="m23.23 31.1-.13.05a.31.31 0 0 1-.14.04 2.91 2.91 0 0 1-1.68-.42c-.62-.37-1.1-.63-1.42-.78-.25-.12-.48-.16-.7-.24a.35.35 0 0 0-.1-.01c-.67-.04-1.18.25-1.54.86a.96.96 0 0 1 .43-.71l.01-.03h.06c.19-.07.37-.16.54-.28l.44-.06c.05 0 .2.02.43.09.18.05.45.16.8.34.19.1.5.28.93.55.45.27.92.43 1.44.47a5.53 5.53 0 0 0 .74 0V31l-.11.1Z" fill="#010101" /><path d="M18.56 29.58c-.18.12-.35.21-.54.28h-.06c0-.02 0-.04.02-.05a.87.87 0 0 1 .58-.23Z" fill="#952939" /><path d="M21.86 37.04c0-.19.07-.4.19-.63.57-1.15 1.28-2.2 2.11-3.18a.16.16 0 0 1 .1-.05c.15-.02.3-.06.45-.12a11.9 11.9 0 0 0 3.76-2.4c.15-.14.28-.28.38-.4.16-.22.25-.44.41-.62-.09.34-.22.6-.4.8a10.85 10.85 0 0 1-4.57 2.95.4.4 0 0 0-.18.12 14.5 14.5 0 0 0-2.25 3.53ZM21.8 33.63h-.04l-.02-.02a.06.06 0 0 1-.03-.04l.01-.03c.68-1.04 1.46-1.99 2.36-2.83l.1-.02h.04a.05.05 0 0 1 .02.06l-.01.03c-.92.85-1.73 1.8-2.43 2.85ZM17.35 31.6c.41.67 1 1 1.75.97l.12.1a.03.03 0 0 1 0 .05c-.27.12-.65.03-.92-.07a1.38 1.38 0 0 1-.95-1.06ZM17.23 33.3c.4.1.75.23 1.06.38l.15.21c0 .05-.02.08-.03.1l-.07-.01a1.58 1.58 0 0 1-.1-.12c-.22-.3-.79-.38-1.13-.37a3.95 3.95 0 0 0-2.32.97c-.28.26-.48.57-.6.93.03-.38.2-.72.5-1.03a3.58 3.58 0 0 1 2.54-1.05Z" fill="#010101" /><path d="M18.29 33.68c-.31-.15-.67-.27-1.06-.37.14-.02.3-.01.49.02.26.05.45.17.57.35Z" fill="#952939" /><path d="M18.44 33.9c.04.07.04.16.02.27a.08.08 0 0 1-.06.07c-.45.07-.86.19-1.23.36-.57.26-1.06.63-1.07 1.3l.01.04.08.12c-.03 0-.05.01-.06.03v.06a.5.5 0 0 0 .3.32c.41.18.96 0 1.33-.23.52-.32.86-.8 1.04-1.36.02-.1.02-.16-.03-.18-.05-.25.15-.32.36-.36a69.31 69.31 0 0 0 1.37-.25.09.09 0 0 1 .05.08v.05a9.85 9.85 0 0 1-1.87 2.35c-.82.74-2.06 1.19-3.16.86-.66-.19-1.3-.7-1.37-1.41-.02-.2 0-.42.05-.63.1-.36.3-.67.6-.93a3.95 3.95 0 0 1 2.32-.97c.33-.01.9.07 1.13.37l.1.12c.01.02.03.02.06 0 .01-.01.03-.04.03-.09Z" fill="#952939" /><path d="M22.94 33.81a.72.72 0 0 0-.32.1.13.13 0 0 0-.04.04c-.17.25-.33.49-.63.62a.12.12 0 0 1-.08.01.1.1 0 0 1-.06-.03c-.04-.05-.01-.1.09-.17.3-.13.5-.34.64-.62a.12.12 0 0 1 .08-.06l.39-.1a.03.03 0 0 1 .03.04l-.1.17ZM21.9 34.02c-.2.04-.4.08-.5.24-.23.39-.48.76-.74 1.12-1 1.35-2.47 2.58-4.24 2.62-.43 0-.84-.06-1.23-.2a1.82 1.82 0 0 1-1.23-1.37c.3.52.67.9 1.11 1.1.18.17.38.23.6.19.44.09.87.1 1.3.02a5.68 5.68 0 0 0 3.2-1.98 10.14 10.14 0 0 0 1.3-1.81l.44-.12a.06.06 0 0 1 .06.02.06.06 0 0 1 .02.05.21.21 0 0 1-.09.12ZM33.64 34.75a.35.35 0 0 0-.14-.07h-.03l-.02.02-.79.93v.02c-.17.3-.3.47-.37.55l-.38.36c-.05 0-.08-.01-.1-.03-.02-.02 0-.05.03-.09a4.57 4.57 0 0 0 .92-1.13l.7-.83a.06.06 0 0 1 .08-.01l.02.02c.05.06.07.15.08.26ZM18.4 34.64l-.66.23c-.34.1-.56.19-.65.24a3.28 3.28 0 0 0-.64.46h-.03v-.02a.02.02 0 0 1-.01-.02l.15-.28c.13-.12.28-.21.44-.29a.47.47 0 0 0 .08-.04c.1-.07.18-.12.27-.15a6.25 6.25 0 0 1 1.03-.26c.02 0 .03.04.02.13ZM27.26 34.8c0 .04-.02.05-.05.03a.47.47 0 0 0-.6-.04c-.22.14-.43.3-.62.49-.52.48-1 1.03-1.43 1.63.1-.3.25-.57.43-.8.27-.34 1.68-2.04 2.23-1.48.04.04.05.1.04.17ZM37.92 34.63c.03.08-.06.1-.28.07-.29.17-.58.42-.88.73-.23.25-.41.48-.54.7-.02.02-.07.03-.14.04h-.02l-.02-.02a.03.03 0 0 1 0-.03c.29-.42.61-.81.98-1.17.15-.15.76-.67.9-.32Z" fill="#010101" /><path d="M18.4 34.64c0 .02 0 .06-.03.1-.3.55-.97 1.31-1.62 1.31-.25 0-.4-.04-.4-.32 0-.2.07-.35.2-.48l-.14.28v.02l.01.01.03.01h.02c.18-.17.38-.32.62-.46.1-.05.31-.14.65-.24l.66-.23ZM36.22 36.13c.13-.22.3-.45.54-.7.3-.31.59-.56.88-.73.22.04.3.01.28-.07.03.06.04.1.03.12-.1.3-.26.53-.52.73a4 4 0 0 1-1.2.65Z" fill="#952939" /><path d="M31.83 34.64c.03.1.02.2-.05.28a57.5 57.5 0 0 0-1.83 2.34c-.02-.02-.02-.05-.02-.08.03-.1.09-.2.17-.3a70.8 70.8 0 0 1 1.73-2.24Z" fill="#010101" /><path d="M33.64 34.75c.07.35.04.69-.1 1.01-.06.16-.2.39-.38.68-.3.45-.8 1-1.35 1.1a.27.27 0 0 1-.2-.05c-.13-.1-.14-.21-.05-.36.02.03 0 .08-.02.12a.04.04 0 0 0 0 .06h.05l.43-.24.02-.02v-.02c0-.05-.02-.1-.08-.13.12-.1.1-.2-.05-.34l.38-.36a2.74 2.74 0 0 0 .37-.57l.8-.93a.05.05 0 0 1 .04-.02l.14.07Z" fill="#952939" /><path d="m16.2 36.06.29.24.06.02h.53c.8-.24 1.36-.74 1.67-1.51a.33.33 0 0 0 .02-.11c.05.02.05.08.03.18a2.42 2.42 0 0 1-1.04 1.36c-.37.23-.92.4-1.34.23a.5.5 0 0 1-.3-.32l.01-.06a.09.09 0 0 1 .06-.03Z" fill="#010101" /><path d="M27.26 34.8c.02 0 .03.03.02.07-.12.44-.33.85-.62 1.23-.24.3-1.68 1.93-2.12 1.32a.24.24 0 0 1-.02-.06c-.08-.2-.06-.35.04-.45.44-.6.91-1.15 1.43-1.63.2-.18.4-.35.63-.49.2-.12.4-.11.6.04.02.02.03.01.04-.03Z" fill="#952939" /><path d="M27.96 37.12c.07-.14.14-.25.2-.33.5-.7 1.04-1.37 1.65-2a27.15 27.15 0 0 1-1.77 2.36.08.08 0 0 1-.08-.03ZM38.1 34.98c.04.1.01.2-.08.33-.13.19-.23.31-.29.36a4.33 4.33 0 0 1-1.8 1.02l-.05.04-.01.01h-.02a.03.03 0 0 1-.02-.02l-.03-.13.43-.2.84-.42a3.48 3.48 0 0 0 .62-.45l.41-.54ZM27.06 35.93l.09-.25c.06-.14.14-.27.25-.4.01.24-.1.46-.34.65ZM39.17 35.61c.06-.01.09 0 .1.05 0 .03-.01.06-.04.1a8.34 8.34 0 0 1-2 1.8c-.54.35-1.6.8-1.92-.1a.01.01 0 0 1 .01-.01l.24.15c.34.23.7.22 1.08.06.45-.2.86-.45 1.23-.77.47-.39.9-.82 1.3-1.28ZM34.14 35.91c-.05.4-.23.72-.55.98-.07.05-.16.16-.26.33l-.38.15c-.04.02-.07.02-.1 0a.05.05 0 0 1-.01-.04.04.04 0 0 1 .02-.03c.16-.1.35-.24.6-.43.32-.27.48-.6.68-.96ZM27.7 36.45c-.2.09-.4.1-.57.06a.2.2 0 0 1-.07-.03l-.16-.13a.07.07 0 0 0-.1.02c-.28.42-.61.8-1.01 1.13-.47.4-1.33.85-1.7.07a.03.03 0 0 1 .01-.04H24.21c.19.22.43.3.72.23.68-.17 1.32-.82 1.71-1.37.06-.08.14-.17.2-.22a.1.1 0 0 1 .13 0c.1.12.23.17.39.16a1.7 1.7 0 0 0 .5-.13h.01a.03.03 0 0 1 0 .04l-.16.2Z" fill="#010101" /><path d="M35.28 36.41c-.81.9-2.11 1.66-3.38 1.56-.27-.02-.52-.13-.62-.4a.04.04 0 0 1 0-.03l.03-.01h.02l.13.04c.16.15.36.22.57.2a32.63 32.63 0 0 0 1.07-.14c.3-.12.54-.21.83-.38a5.75 5.75 0 0 0 1.32-.96.06.06 0 0 1 .05.03c.01.03 0 .06-.02.1ZM29.4 37.08c-.38.34-.7.69-1.2.86-.36.13-.62.02-.76-.32v-.04h.1c.21.23.47.27.76.13.22-.1.37-.2.47-.27a6.4 6.4 0 0 0 .73-.65.03.03 0 0 1 0 .04l-.1.25ZM31.96 36.9c.06.04.09.08.08.13v.02l-.02.02-.43.24h-.03a.04.04 0 0 1-.03-.03v-.03c.04-.04.05-.09.03-.12.12-.11.25-.19.4-.23ZM31.3 37.06l-.18.23c-.29.33-.74.66-1.18.7-.24.02-.41-.08-.51-.29v-.01a.04.04 0 0 1 .03-.04l.1-.02c.3.35.84.03 1.13-.19.18-.13.39-.26.6-.38Z" fill="#010101" /><path d="M15.67 37.72a.66.66 0 0 1-.6-.18c.22.02.42.08.6.18Z" fill="#952939" /></svg>