<!-- by TradeStack --><svg viewBox="0 0 56 56" xmlns="http://www.w3.org/2000/svg"><path fill="#F0F3FA" d="M0 0h56v56H0z"/><path d="M4 28.29v-.57l.05-.44A2.49 2.49 0 0 1 6.7 25c.55.02 1.09.13 1.47.53.28.3.42.64.4 1.05v.04a.05.05 0 0 1-.05.02h-.91l-.02-.02a.04.04 0 0 1 0-.03c.02-.36-.15-.58-.5-.67-.5-.13-1.16-.04-1.5.38-.7.85-.7 2.68.07 3.47.35.36.94.42 1.4.31.37-.08.54-.3.53-.66 0-.05.01-.07.05-.07h.88c.04 0 .05.02.06.06.05.73-.52 1.32-1.15 1.48-1.62.42-3.17-.4-3.39-2.26L4 28.29ZM24.29 29.91v-.87c0-.03-.01-.04-.04-.04h-1.2c-.02 0-.05-.02-.05-.05v-.92l.02-.02h2.25v2.49c0 .02 0 .03-.02.04-1 .49-2.49.72-3.46 0-1-.75-1.18-2.02-1.02-3.26a2.5 2.5 0 0 1 1.2-1.94c.83-.5 2.21-.48 2.93.23.26.26.4.57.38.95 0 .02 0 .04-.02.05a.07.07 0 0 1-.05.02h-.88c-.03 0-.05-.02-.04-.05.05-.45-.44-.63-.76-.66-.88-.07-1.43.35-1.64 1.26a3.68 3.68 0 0 0-.01 1.64c.28 1.34 1.25 1.55 2.37 1.19.03-.01.04-.03.04-.06ZM38.5 25c1.64 0 2.5 1.3 2.5 3 0 1.69-.85 3-2.5 3-1.64 0-2.5-1.3-2.5-3 0-1.69.85-3 2.5-3Zm-1.45 3c0 1 .36 2.13 1.45 2.13 1.1 0 1.46-1.12 1.46-2.13 0-1-.37-2.13-1.46-2.13-1.1 0-1.45 1.12-1.45 2.13ZM50.76 26.27c0-.41-.66-.4-.94-.39a.9.9 0 0 0-.5.17c-.3.23-.35.63-.08.91.1.12.25.22.44.3.53.23 1.17.44 1.7.81.68.5.8 1.38.35 2.12-.48.77-1.37.86-2.23.8-.52-.05-1.03-.19-1.33-.55a1.5 1.5 0 0 1-.34-1.05c0-.02 0-.04.02-.06a.07.07 0 0 1 .05-.02h.93c.04 0 .06.02.06.07-.03.36.06.55.38.66.51.17 1.3.18 1.6-.4.2-.4-.04-.7-.4-.9-.44-.25-1.16-.44-1.72-.8a1.55 1.55 0 0 1-.32-2.4c.45-.47 1.2-.57 1.8-.53.5.03.9.1 1.24.42.24.23.35.53.34.88a.1.1 0 0 1-.03.07.1.1 0 0 1-.07.03h-.9c-.03 0-.05-.02-.05-.05v-.1ZM10.6 28.63v2.32l-.01.04-.03.01H9.55c-.03 0-.05-.02-.05-.05v-5.9c0-.03.02-.05.05-.05l2.22.01c1.9.04 2.26 2.47.64 3.29a.03.03 0 0 0-.01.02v.02c.16.17.3.36.43.6A148.64 148.64 0 0 1 14 30.98h-.01l-.02.01H12.8a.08.08 0 0 1-.07-.04l-.9-1.63a3.2 3.2 0 0 0-.62-.73.1.1 0 0 0-.08-.03h-.47c-.03 0-.05.02-.05.06Zm0-2.69v1.68l.01.02H11.43a.9.9 0 0 0 .62-.24.84.84 0 0 0 .26-.6v-.04c0-.23-.1-.44-.26-.6a.89.89 0 0 0-.62-.25H10.61v.02l-.01.01ZM16.03 30h2.52V31l-.02.01h-3.52l-.01-.03V25l.03-.01h3.33V25.98l-.02.03H16V27.39l.03.01h1.95l.02.01v.9h-1.97l-.01.01H16V29.98a.03.03 0 0 0 0 .02h.02ZM19.97 25h-.94c-.02 0-.03.01-.03.03v5.94c0 .01.01.03.03.03h.94c.02 0 .03-.02.03-.03v-5.94c0-.02-.01-.03-.03-.03ZM28.25 27.54a139.08 139.08 0 0 1 1.25-.01.05.05 0 0 0 .01-.03v-2.45c0-.03.02-.05.04-.05h.9c.03 0 .05.02.05.05v5.9c0 .03-.02.05-.05.05h-.9c-.03 0-.04-.02-.04-.05V28.5a.05.05 0 0 0-.01-.03l-.02-.01h-.01a126 126 0 0 1-2.46 0v2.49c0 .03-.02.05-.05.05h-.9c-.04 0-.05-.02-.06-.05v-5.9c0-.03.02-.05.05-.05h.91c.03 0 .04.02.04.05v2.46l.01.02.02.01h1.22ZM35.95 25c.03 0 .05.02.05.05v.9c0 .03-.01.05-.04.05H34L34 26V31h-.97v-.01l-.01-.01-.02-.01V26h-1.95c-.03 0-.05-.02-.05-.05v-.89c0-.03.02-.06.05-.06h4.9ZM43.84 28.33l-.8-1.25c-.04-.06-.04-.05-.04.02v3.87l-.03.02-.01.01h-.93l-.02-.01-.01-.03v-5.92l.01-.03h.89c.03 0 .06 0 .08.04a4581.75 4581.75 0 0 0 2.48 3.87c.04.06.06.06.06-.02V25.01a.02.02 0 0 1 .02 0H46.5l.01.03v5.92l-.01.03h-.89a.09.09 0 0 1-.08-.03l-1.68-2.63Z" fill="#4C4D4F"/></svg>