<!-- by TradeStack --><svg width="56" height="56" viewBox="0 0 56 56" xmlns="http://www.w3.org/2000/svg"><path fill="#F0F3FA" d="M0 0h56v56H0z"/><path d="M6 19h6a249614.4 249614.4 0 0 1-.02 12.53c-.1.36-.44.61-.76.78-.53.27-1.17.41-1.77.45-.63.05-1.27 0-1.88-.15-.58-.15-1.5-.53-1.57-1.22V19Z" fill="#44B855"/><path d="M13.62 19h5.98a60413.08 60413.08 0 0 1 0 12.19l-.03.2a.84.84 0 0 1-.17.44c-.17.22-.4.38-.66.5-.22.11-.44.2-.67.26a5.39 5.39 0 0 1-1.72.18c-.42 0-.86-.07-1.3-.2a2.6 2.6 0 0 1-1.2-.65.82.82 0 0 1-.25-.64l.02-.21V19Z" fill="#FFE65C"/><path d="M21.2 19h6v12.21c0 .15 0 .25-.03.32-.13.52-.8.85-1.28 1a5.74 5.74 0 0 1-3.26.04c-.26-.08-.5-.18-.72-.3-.3-.16-.61-.43-.69-.76A124986.76 124986.76 0 0 1 21.2 19Z" fill="#FFAD50"/><path d="M28.82 19h5.98v12.38c0 .1-.03.2-.09.31-.13.26-.39.46-.64.6a3.6 3.6 0 0 1-.77.3 5.6 5.6 0 0 1-3.22-.07 2.2 2.2 0 0 1-1.14-.75.76.76 0 0 1-.13-.37v-.2a12051.17 12051.17 0 0 0 0-12.2h.01Z" fill="#FFAFBA"/><path d="M36.4 19h6v12.21c0 .15-.01.26-.03.32-.13.47-.68.78-1.12.94-.5.2-1.05.29-1.6.3a5.1 5.1 0 0 1-2.43-.44c-.39-.2-.82-.53-.82-1V19Z" fill="#F9657B"/><path d="M44 19h6v12.41c-.07.52-.6.85-1.05 1.02-.27.12-.56.2-.86.25-.7.13-1.4.13-2.11.02a4.42 4.42 0 0 1-.99-.29c-.39-.16-.88-.48-.97-.92a1.44 1.44 0 0 1-.02-.26V19Z" fill="#5ED4E4"/><path d="M8.19 30.71a2.54 2.54 0 0 1-1.51-3.25c.16-.48.48-.91.91-1.22.6-.42 1.32-.56 2.06-.48a2.75 2.75 0 0 1 1.78.89v.01l-.94 1.04a.02.02 0 0 1-.02 0h-.01c-.37-.34-.73-.6-1.25-.6-.71.02-1.14.61-1.12 1.25.01.62.45 1.17 1.13 1.18.23 0 .47-.05.67-.16a3.45 3.45 0 0 0 .61-.46l.97.93v.02l-.21.21c-.42.43-.95.7-1.57.8a3.1 3.1 0 0 1-1.5-.16ZM46.51 27.23c-.02.11.04.17.14.21.1.05.2.08.3.1.54.15 1.1.26 1.55.58.32.23.5.57.54.95.02.24 0 .48-.08.72-.3.84-1.21 1.13-2.06 1.09a3.34 3.34 0 0 1-2.16-.94l.89-1.02h.01c.46.4 1.02.72 1.65.62l.15-.05c.08-.04.11-.1.1-.18 0-.08-.1-.13-.18-.16a227.5 227.5 0 0 0-1.22-.36 2.32 2.32 0 0 1-.52-.25c-.3-.18-.48-.44-.56-.76a1.73 1.73 0 0 1-.04-.65c.11-.83.86-1.32 1.7-1.37a3.13 3.13 0 0 1 2.25.76l-.78 1.08h-.02c-.4-.27-.9-.58-1.42-.51-.07 0-.22.05-.24.14ZM22.14 29.76a2.54 2.54 0 0 1-.24-1.12 1574.5 1574.5 0 0 0 .01-2.86h1.48l.01.01v2.82c0 .35.12.74.52.84.16.04.32.04.5.01.43-.07.58-.45.58-.82a2702.84 2702.84 0 0 0 .01-2.86h1.49a776.36 776.36 0 0 0 0 2.76 2.4 2.4 0 0 1-.48 1.57c-.39.47-.97.7-1.6.73-.4.03-.8 0-1.17-.13-.51-.17-.88-.49-1.11-.95ZM30.68 28.41v.26a1087.24 1087.24 0 0 0-.02 2.15H29.2l-.01-.02V25.82h1.48l.02.02 1.1 1.69h.02l1.1-1.69a.05.05 0 0 1 .04-.02h1.42c.03 0 .04 0 .04.03v.27a856.52 856.52 0 0 1-.01 4.7h-1.48l-.01-.01a444.83 444.83 0 0 1-.02-2.43 246.53 246.53 0 0 1-.99 1.4h-.25a556.6 556.6 0 0 1-.97-1.37ZM41 28.18c.29.16.5.38.6.68.07.2.08.45.06.66-.04.34-.19.62-.45.84-.44.38-1.07.46-1.63.46a1379.86 1379.86 0 0 0-2.42-.01v-4.98l.01-.01h2.32a3 3 0 0 1 .78.07c.77.2 1.23.78 1.12 1.56a1.19 1.19 0 0 1-.39.72Z" fill="#F0F3FA"/><path d="M9.9 27.03a1.47 1.47 0 0 0-1.46.1c-.56.42-.7 1.16-.46 1.78.16.4.51.7.93.8.44.1.9 0 1.26-.25a3.07 3.07 0 0 0 .33-.24l.65.63v.02l-.3.27c-.49.4-1.07.55-1.7.53a2.36 2.36 0 1 1-.02-4.71c.24-.01.48 0 .72.04a2.4 2.4 0 0 1 1.27.67l-.65.72a.02.02 0 0 1-.02 0 2.19 2.19 0 0 0-.54-.36ZM46.79 25.97a2.86 2.86 0 0 1 1.89.6l-.54.73a.02.02 0 0 1-.02 0 2.13 2.13 0 0 0-1.36-.43c-.27.03-.52.18-.47.48.04.17.17.26.33.31.18.07.39.13.6.18.25.06.48.13.68.2.41.17.77.42.88.85.05.18.06.38.03.58-.11.78-.8 1.14-1.56 1.19a3.13 3.13 0 0 1-2.2-.74l.61-.7h.01c.45.35.95.58 1.53.55.3-.02.65-.17.57-.53-.04-.16-.2-.25-.36-.3a2.94 2.94 0 0 0-.36-.12 23.7 23.7 0 0 1-.62-.17c-.5-.14-1-.37-1.14-.9a1.55 1.55 0 0 1-.04-.55c.08-.77.77-1.2 1.54-1.23ZM23.17 30.45c-.63-.28-.94-.82-1.02-1.47a838.83 838.83 0 0 0-.01-2.98h1.03l.01.01v2.63c0 .25.07.52.22.72.25.32.72.4 1.11.3.53-.11.72-.56.72-1.04v-2.6c0-.01 0-.02.02-.02h1.03V28.56c0 .4-.06.81-.26 1.17-.28.5-.78.79-1.36.87-.49.07-1.04.04-1.49-.15ZM33.14 27.64l-1.33 1.92a.02.02 0 0 1-.03 0 9948.64 9948.64 0 0 1-1.33-1.9v2.93h-1.02v-4.55H30.56l1.24 1.9a.01.01 0 0 0 .01 0l1.24-1.9H34.2v4.55h-1.04v-2.95ZM40.58 28.22c.47.17.82.46.86.98v.34c-.12.8-.97 1.06-1.7 1.06H37.4l-.01-.01v-4.55h2.25c.7 0 1.43.29 1.52 1.03a1.07 1.07 0 0 1-.6 1.14Z" fill="#855236"/><path d="M38.42 26.94v-.01l.02-.01h1.07l.24.03a.7.7 0 0 1 .2.1c.06.04.1.08.14.14.03.05.05.1.05.16v.1c0 .06-.02.11-.05.16a.47.47 0 0 1-.14.15.7.7 0 0 1-.2.09.88.88 0 0 1-.24.03h-1.08l-.01-.02v-.92Z" fill="#F0F3FA"/><path d="m38.64 27.14.01-.01h.8l.17.01.15.05a.3.3 0 0 1 .1.07l.03.09v.09c0 .06-.04.11-.13.15a.76.76 0 0 1-.32.07h-.8a.01.01 0 0 1-.01-.01v-.5Z" fill="#F9657B"/><path d="M15.9 29.37v1.41c0 .02-.01.03-.03.03H14.4l-.02-.01V25.82h.02a1276.3 1276.3 0 0 0 2.38 0c.56 0 1.15.13 1.55.52.4.38.53.91.47 1.45a1.59 1.59 0 0 1-.88 1.27.02.02 0 0 0 0 .01 232.43 232.43 0 0 0 1.22 1.74h-1.73a.06.06 0 0 1-.05-.02l-.99-1.41c0-.01 0-.02-.02-.02h-.45l-.01.01Z" fill="#F0F3FA"/><path d="M15.69 29.14h-.01v1.45h-1.05v-4.55h2.24c.38 0 .8.09 1.11.3.5.32.67.85.6 1.4-.05.6-.42 1.02-.98 1.22h-.01v.01l1.14 1.6v.01a.01.01 0 0 1 0 .01 1172.68 1172.68 0 0 1-1.23-.01l-1-1.43a.04.04 0 0 0-.03-.01h-.78Z" fill="#855236"/><path d="M15.68 26.95h1.14c.19 0 .37.06.5.17.14.12.22.27.22.43v.09c0 .16-.08.31-.22.43a.8.8 0 0 1-.5.18h-1.14v-1.3Z" fill="#F0F3FA"/><path d="M15.9 27.18v-.01h.92c.07 0 .13 0 .19.02a.5.5 0 0 1 .15.09.4.4 0 0 1 .1.12c.03.05.04.1.04.15v.09c0 .1-.05.2-.14.27a.54.54 0 0 1-.34.12h-.92v-.85Z" fill="#FFE65C"/><path d="M38.42 28.72h1.35c.09 0 .17.01.24.03.08.03.15.06.2.1.07.05.11.1.14.15.04.06.05.12.05.18v.08c0 .12-.07.24-.18.32a.77.77 0 0 1-.45.13h-1.35v-.99Z" fill="#F0F3FA"/><path d="M38.64 28.94h1.08a.8.8 0 0 1 .17.01l.15.05a.3.3 0 0 1 .1.08c.02.03.03.06.03.1v.08c0 .03-.01.06-.04.1a.3.3 0 0 1-.1.07.58.58 0 0 1-.14.05.8.8 0 0 1-.17.02h-1.08v-.56Z" fill="#F9657B"/><path d="M32.96 36.81c.03-.08-.05-.11-.12-.14a2.17 2.17 0 0 0-.23-.07c-.61-.16-1.4-.26-1.66-.89a1.21 1.21 0 0 1 .14-1.13c.19-.26.5-.44.85-.52a2.67 2.67 0 0 1 2.3.55l-.7.88h-.02c-.3-.2-.66-.4-1.04-.41-.08 0-.3 0-.3.1-.01.05 0 .08.05.1a.7.7 0 0 0 .06.03c.23.08.5.13.74.2.22.05.42.12.6.21a1.07 1.07 0 0 1 .64 1.1c-.05.63-.56 1.04-1.22 1.14a2.95 2.95 0 0 1-2.42-.7v-.02l.77-.81h.04c.18.15.36.26.53.34.24.12.55.18.82.14.06-.01.16-.04.17-.1Z" fill="#FFAFBA"/><path d="M31.75 36.15c-.35-.13-.58-.34-.63-.67a.97.97 0 0 1 .42-1.03c.37-.25.87-.28 1.31-.23.4.05.75.19 1.07.41.02.01.02.02.01.03l-.43.56h-.01a.02.02 0 0 1-.01 0c-.32-.2-.75-.38-1.15-.33-.19.02-.37.12-.37.3 0 .16.1.24.26.3.1.04.23.08.37.11.55.13 1.31.28 1.44.87.04.14.04.29.01.44-.11.63-.75.9-1.42.9a2.7 2.7 0 0 1-1.67-.57v-.01l.49-.52h.03c.36.26.78.43 1.24.4.18 0 .43-.06.48-.25.04-.16-.04-.28-.21-.35-.1-.05-.21-.08-.32-.1-.3-.09-.62-.15-.91-.26Z" fill="#855236"/><path d="m18.1 35.24 1.24-1.21a.1.1 0 0 1 .07-.03h1.62l-1.82 1.73v.03a712.94 712.94 0 0 0 1.8 2.24h-1.56l-.03-.01-1.11-1.4h-.01l-.18.16a.09.09 0 0 0-.03.07V38h-1.3l-.01-.02v-.57a1380.74 1380.74 0 0 1 .01-3.4l1.29-.01.01.01v1.22c0 .02 0 .02.02 0Z" fill="#FFAFBA"/><path d="M17.88 35.76h.01l1.57-1.54.02-.01h1.03l-1.57 1.5v.03l1.65 2.05h-1.05l-1.2-1.5v-.01a.02.02 0 0 0-.01 0 25.9 25.9 0 0 1-.45.45 414.06 414.06 0 0 1-.01 1.07h-.85l-.01-.01V34.2h.87a1585.63 1585.63 0 0 0 0 1.55Z" fill="#855236"/><path d="M23.1 36.9h2.11V38h-3.44v-4h.44a1836.4 1836.4 0 0 0 2.98.01v1.1H23.1c-.02 0-.03.01-.03.03V35.43h.01a976.68 976.68 0 0 1 1.83 0h.01v1.11h-1.85v.34l.02.01Z" fill="#FFAFBA"/><path d="M22.86 36.36v.73H25V37.8l-.01.01H22V34.2h2.96v.7h-2.1v.73h1.84l.01.01V36.34h-1.85v.02Z" fill="#855236"/><path d="M37.74 35.4v-1.39h1.31a.01.01 0 0 1 .01 0v.15a846.15 846.15 0 0 0-.02 3.84h-1.3v-1.44H36.6V38l-.01.01h-1.3l-.01-.01V34L36.6 34a.01.01 0 0 1 .01 0v.08a389.2 389.2 0 0 0 0 1.34h1.13l.01-.01Z" fill="#FFAFBA"/><path d="M37.97 36.36h-1.58v1.43h-.87V34.2h.86v1.41h1.59v-1.4l.01-.01h.86v3.58h-.86v-1.43h-.01Z" fill="#855236"/><path d="m29.2 36.2-.17.58a.47.47 0 0 1-.2.3c-.31.2-.72.24-1.09.18-.22-.03-.5-.13-.64-.32a.56.56 0 0 1-.08-.2 20.15 20.15 0 0 0-.19-.6c-.12-.11-.23-.24-.25-.4 0-.06 0-.16.03-.28l.08-.47c.01-.11.04-.2.07-.28.25-.56 1.14-.58 1.67-.51.4.05.84.25.92.69a285.57 285.57 0 0 0 .13.88.64.64 0 0 1-.25.37.1.1 0 0 0-.04.05Z" fill="#FFAFBA"/><path d="m27.92 35.19-.1.22c-.03.07-.1.1-.18.09-.03 0-.06-.02-.07-.04-.05-.09-.08-.2-.1-.3a.39.39 0 0 0-.26-.26l-.17-.07c-.05-.04-.03-.11 0-.15.25-.26.7-.3 1.05-.29.2 0 .39.03.55.08.14.04.33.13.38.26.06.13-.07.16-.16.2a.4.4 0 0 0-.19.19c-.03.06-.09.08-.14.02-.08-.08-.13-.16-.26-.17-.17 0-.29.08-.35.22Z" fill="#F0F3FA"/><path d="M42.53 38h-.27a2.1 2.1 0 0 1-1.39-.6 2 2 0 0 1-.6-1.36A2.05 2.05 0 0 1 42 33.9c.97-.17 1.95.26 2.36 1.17.19.4.22.85.14 1.28-.09.46-.35.88-.71 1.17a2.1 2.1 0 0 1-1.26.48Z" fill="#FFAFBA"/><path d="M43.75 34.56a1.86 1.86 0 0 1-1.33 3.24l-.22-.01a1.86 1.86 0 0 1-1.25-3.1 2.04 2.04 0 0 1 2.8-.13Z" fill="#855236"/><path d="M41.37 36.3c-.13-.44-.04-.91.3-1.23.3-.27.76-.34 1.14-.2.75.3.92 1.3.4 1.86a1.1 1.1 0 0 1-1.84-.43Z" fill="#FFAFBA"/><path d="M41.6 36.32a1 1 0 0 1-.03-.72c.09-.28.27-.46.54-.55a.94.94 0 0 1 .52-.02c.27.07.46.24.58.5.22.5 0 1.15-.57 1.3a.88.88 0 0 1-1.05-.5Z" fill="#F0F3FA"/><path d="m47.07 36.92-.01.01V38l-.01.01h-1.3a.01.01 0 0 1 0-.01v-.26a2889.67 2889.67 0 0 1 0-3.73h1.89c.17 0 .35.02.54.07.66.17 1.1.66 1.12 1.29a1.36 1.36 0 0 1-.85 1.37c-.3.15-.66.2-1.02.2h-.36Z" fill="#FFAFBA"/><path d="M46.85 36.74v1.04c0 .01 0 .02-.02.02H46l-.01-.01V34.2h1.62c.71 0 1.36.32 1.48 1.01.03.24.02.5-.08.72-.24.55-.86.78-1.48.78a75.43 75.43 0 0 1-.67.02Z" fill="#855236"/><path d="M46.85 34.93v-.01h.74c.17 0 .32.05.44.15.12.1.18.23.18.36v.07c0 .13-.06.27-.18.36a.69.69 0 0 1-.44.15h-.74v-1.08Z" fill="#FFAFBA"/><path d="M47.05 35.13h.02l.49-.01c.05 0 .1 0 .16.02l.14.07c.04.03.07.06.09.1l.03.12v.07c0 .04 0 .08-.03.12a.32.32 0 0 1-.09.1.46.46 0 0 1-.14.07.56.56 0 0 1-.16.02h-.5v-.68ZM29.23 35.55c.02.1.04.2-.03.3a.7.7 0 0 1-.19.17c-.43.27-1 .32-1.49.2-.02 0-.02-.01 0-.02 0 0 .02 0 .02-.02a1.95 1.95 0 0 0 .12-.15v-.01c-.01-.03-.03-.04-.06-.03l-.01.02-.11.13c-.02.01-.02.04 0 .06h-.01a1.23 1.23 0 0 1-.6-.35c-.06-.08-.07-.15-.05-.26a6.77 6.77 0 0 0 .06-.25l.15.13a.03.03 0 0 0 .03 0c.04-.02.02-.06-.04-.11l-.04-.04-.02-.02a.1.1 0 0 0-.07-.03h-.01l.04-.24v-.01h.01c.05.03.11.06.18.08.07.01.11.05.13.13.08.22.11.47.42.5.16 0 .3-.09.36-.22l.1-.23a.22.22 0 0 1 .07-.1.06.06 0 0 1 .05 0 .06.06 0 0 1 .04.02c.07.09.13.17.25.19.14.01.25-.03.32-.14.03-.05.07-.12.12-.14a.52.52 0 0 0 .16-.07h.01l.09.5Z" fill="#F0F3FA"/><path d="M27.16 35.24h-.01a.03.03 0 0 0-.04.03v.2l.04.02h.01c.02 0 .03-.01.03-.03v-.19a.03.03 0 0 0-.03-.03ZM29.07 35.24l-.18.08a.04.04 0 0 0-.02.05c0 .02.03.03.05.02l.18-.07c.02-.01.03-.03.02-.05a.04.04 0 0 0-.05-.03ZM28.24 35.4a.04.04 0 0 0-.03.05l.08.17c0 .02.03.03.05.02.02-.01.03-.03.02-.05l-.07-.17a.04.04 0 0 0-.05-.02ZM29.19 35.52l-.18-.06c-.02 0-.04 0-.05.02v.01c0 .02 0 .04.02.04l.18.06c.02.01.04 0 .05-.02 0-.02 0-.04-.02-.05ZM14.42 37.2h-1.37l-.32.72-.03.07h-.01l-1.36.01v-.01l1.86-3.97.01-.01.02-.01h1.07l.01.01.02.04A1268.86 1268.86 0 0 0 16.15 38h-1.37l-.36-.8Z" fill="#FFAFBA"/><path d="m12.9 37-.35.8h-.88v-.01l1.68-3.58.8-.01 1.69 3.58v.01h-.01v.01h-.9l-.36-.8H12.9Z" fill="#855236"/><path d="m13.23 36.29.5-1.12h.01l.52 1.12v.01h-1.03v-.01ZM27.04 35.56l-.16.1a.04.04 0 0 0-.01.05c.01.02.04.02.05.01l.16-.1a.04.04 0 0 0 .01-.05.04.04 0 0 0-.05-.01ZM28.63 35.61l-.18-.05c-.02 0-.04 0-.05.02 0 .02 0 .04.03.05l.18.05c.02 0 .04 0 .05-.02 0-.02 0-.04-.03-.05ZM27.25 35.57l-.15.1a.04.04 0 0 0 0 .06c.01.02.04.02.05.01l.15-.1a.04.04 0 0 0 0-.06.04.04 0 0 0-.05-.01ZM28.97 35.6a.04.04 0 0 0-.01.06l.1.15c.01.01.04.02.06 0a.04.04 0 0 0 0-.05l-.1-.15a.04.04 0 0 0-.05 0ZM28.83 35.66a.04.04 0 0 0-.06.01l-.09.16c-.01.02 0 .04.02.05.02.02.04 0 .05-.01l.1-.16a.04.04 0 0 0-.02-.05ZM27.94 35.7l-.18.06a.04.04 0 0 0-.02.05c0 .02.03.03.05.02l.18-.05c.02 0 .03-.03.02-.05a.04.04 0 0 0-.05-.02ZM27.21 35.77c-.02 0-.04 0-.05.02l-.08.17c0 .01 0 .03.02.04h.01c.02.01.04 0 .05-.02l.07-.16c0-.02 0-.04-.02-.05ZM27.51 35.8l-.2.03a.03.03 0 0 0-.02.03c0 .03.02.04.04.04l.2-.03c.01 0 .03-.02.02-.04a.04.04 0 0 0-.04-.04ZM27.85 35.93l-.18-.06c-.02-.01-.04 0-.05.02 0 .02 0 .04.02.05l.18.06c.02.01.04 0 .05-.02 0-.02 0-.04-.02-.05ZM28.54 36.06l-.16-.1a.04.04 0 0 0-.06.01c-.01.02 0 .04.01.06l.16.1c.02 0 .04 0 .06-.02a.04.04 0 0 0-.01-.05ZM27.95 36.04a.04.04 0 0 0-.02.05l.09.16c0 .02.03.03.05.02.02-.01.03-.04.02-.05l-.08-.16a.04.04 0 0 0-.06-.02Z" fill="#FFAFBA"/><path d="m27.27 36.8-.13-.47h.01l.24.08.06.53h-.01l-.17-.13ZM28.78 36.8a.34.34 0 0 1-.15.13h-.01v-.01l.05-.5v-.01l.02-.01a1.27 1.27 0 0 0 .23-.08l-.05.18c-.03.1-.04.2-.09.3Z" fill="#F0F3FA"/><path d="M10.27 35.87v.02c.31.18.48.44.52.77.04.4-.09.77-.44 1.02a2.1 2.1 0 0 1-1.2.32A3667.23 3667.23 0 0 0 7 38v-4h2.13l.33.03c.44.07.85.3 1.03.69.1.22.11.5.04.73a.95.95 0 0 1-.26.42Z" fill="#FFAFBA"/><path d="M9.87 35.93c.3.1.55.26.66.54.05.13.06.28.05.44-.07.66-.76.89-1.4.89a591.4 591.4 0 0 1-1.95-.01V34.2h.01a1016.79 1016.79 0 0 0 2.08 0c.57.06 1.05.37 1.04.95a.8.8 0 0 1-.4.7 2.6 2.6 0 0 1-.1.05l.01.02Z" fill="#855236"/><path d="M8.08 34.9H9c.13 0 .26.04.35.1.1.07.15.16.15.25v.06c0 .04-.02.09-.04.13a.37.37 0 0 1-.1.11.55.55 0 0 1-.17.08.68.68 0 0 1-.19.02h-.92v-.74ZM8.08 36.33l.02-.01h1.07c.15 0 .29.03.39.1.1.07.16.16.16.26v.07c0 .1-.06.19-.16.25-.1.07-.24.1-.39.1H8.08v-.77Z" fill="#FFAFBA"/><path d="M8.3 36.53v-.01h.86l.13.01.1.03.07.06a.1.1 0 0 1 .03.06v.06a.1.1 0 0 1-.03.06.22.22 0 0 1-.07.05.45.45 0 0 1-.1.04.64.64 0 0 1-.13.01H8.3v-.37ZM28.43 36.48l-.05.54h-.01l-.22.04v-.55l.28-.04ZM27.92 36.5v.55a.01.01 0 0 1-.01.01l-.22-.03v-.01l-.07-.54h.01l.28.02Z" fill="#F0F3FA"/></svg>