<?xml version='1.0' encoding='utf-8'?>
<!-- by TradeStack -->
<svg width="56" height="56" viewBox="0 0 56 56" xmlns="http://www.w3.org/2000/svg"><path fill="#F0F3FA" d="M0 0h56v56H0z" /><path d="M30.6 16.87A2.26 2.26 0 0 1 32.85 15H44l-1.6 10.13A2.26 2.26 0 0 1 40.15 27H29l1.6-10.13Z" fill="#93832F" /><path d="M30.6 39.13A2.26 2.26 0 0 0 32.85 41H44l-1.6-10.13A2.26 2.26 0 0 0 40.15 29H29l1.6 10.13ZM25.4 16.87A2.26 2.26 0 0 0 23.15 15H12l1.6 10.13A2.26 2.26 0 0 0 15.85 27H27l-1.6-10.13Z" fill="#106488" /><path d="M25.4 39.13A2.26 2.26 0 0 1 23.15 41H12l1.6-10.13A2.26 2.26 0 0 1 15.85 29H27l-1.6 10.13Z" fill="#93832F" /></svg>