<!-- by TradeStack --><svg width="56" height="56" viewBox="0 0 56 56" xmlns="http://www.w3.org/2000/svg"><path fill="#F0F3FA" d="M0 0h56v56H0z"/><path fill-rule="evenodd" d="M7 39h42V17.13c0-.09-.02-.13-.1-.13H7.12a.12.12 0 0 0-.08.04.14.14 0 0 0-.04.1V39Zm41.55-.59V17.56l-.01-.02h-.02l-.02-.01H7.53l-.04.01a.06.06 0 0 0-.01.04v20.83l.01.04.04.01H48.5a.05.05 0 0 0 .04-.02.06.06 0 0 0 .01-.03Z"/><path d="m15.3 19.34.14-.2c.14-.18.2-.16.2.1v1.58c0 .06-.02.09-.07.08l-.06-.01a.12.12 0 0 1-.06-.04.15.15 0 0 1-.03-.08c-.11-.71-.44-1.14-1-1.28-.96-.24-1.4.66-1.52 1.58-.1.8-.06 1.57.12 2.31.4 1.64 1.84 1.24 2.48.16.04-.07.09-.08.15-.04l.1.06c.07.04.08.1.03.17-.41.65-.89 1.05-1.42 1.18a2.27 2.27 0 0 1-2.58-.94 3.8 3.8 0 0 1-.47-2.93c.2-.91.84-1.67 1.66-1.92a2.47 2.47 0 0 1 1.6.02l.6.21c.07.02.12.01.14-.01ZM27.7 20h1.24c.04 0 .06.02.06.06v.05a.1.1 0 0 1-.03.07.1.1 0 0 1-.06.03c-.3.04-.47.2-.49.5a112.65 112.65 0 0 0 0 3.58c.02.3.18.46.5.5a.1.1 0 0 1 .05.03.1.1 0 0 1 .03.07v.05c0 .04-.02.06-.06.06a46.62 46.62 0 0 0-2.47 0c-.04 0-.06-.02-.06-.06v-.05c0-.02.01-.05.03-.07a.1.1 0 0 1 .06-.03c.3-.04.48-.2.5-.5V20.7c-.02-.3-.2-.46-.5-.5a.1.1 0 0 1-.06-.03.1.1 0 0 1-.03-.07v-.05c0-.04.02-.06.06-.06h1.24Z"/><path fill-rule="evenodd" d="M38.69 24.32c.4-.43.63-1 .63-1.61v-.45c0-.6-.24-1.18-.65-1.6a2.13 2.13 0 0 0-1.54-.66h-.58c-.58 0-1.13.25-1.54.68-.4.43-.63 1-.63 1.61v.45c0 .6.24 1.18.65 1.6.4.43.96.66 1.54.66h.58c.58 0 1.13-.25 1.54-.68Zm-.84-1.82c0-1.45-.34-2.18-1-2.18-.66 0-1 .73-1 2.18 0 1.46.34 2.18 1 2.18.67 0 1-.73 1-2.18ZM44.43 24.33c.4-.43.64-1 .64-1.61v-.44c0-.6-.23-1.18-.64-1.61-.41-.43-.96-.67-1.54-.67h-.59c-.57 0-1.13.24-1.54.67-.4.43-.63 1-.63 1.61v.44c0 .6.23 1.18.63 1.61.41.43.97.67 1.54.67h.59c.58 0 1.13-.24 1.54-.67Zm-.84-1.83c0-1.45-.33-2.18-1-2.18-.67 0-1 .73-1 2.18 0 1.46.34 2.19 1 2.19.67 0 1-.73 1-2.19ZM22.83 23.8a7.62 7.62 0 0 1 .01-.97c.02-.17.07-.18.14-.03l1.16 2.17a.06.06 0 0 0 .05.03h1.56l.04-.01.02-.03a.09.09 0 0 0 .02-.08c-.01-.03-.04-.05-.07-.07-.25-.1-.35-.16-.48-.41a114.8 114.8 0 0 0-.93-1.8l.01-.02.03-.02c.55-.23.83-.62.84-1.17a1.26 1.26 0 0 0-1-1.3 3.34 3.34 0 0 0-.52-.09h-2.67c-.3 0-.32.07-.05.23l.15.05c.2.06.29.3.29.5v3.4c0 .38-.17.59-.51.62a.09.09 0 0 0-.06.03.1.1 0 0 0-.03.07v.04c0 .04.02.06.06.06h2.53c.03 0 .05-.02.05-.05v-.07c0-.02 0-.04-.02-.06a.07.07 0 0 0-.05-.02c-.55-.03-.56-.38-.56-.8v-.2Zm.03-3.48a.09.09 0 0 0-.02.05l-.01 1.96a.09.09 0 0 0 .02.06l.02.02h.09c.21 0 .41-.09.56-.25a.95.95 0 0 0 .23-.63v-.35a.99.99 0 0 0-.22-.63.79.79 0 0 0-.26-.19.7.7 0 0 0-.3-.07h-.06c-.02 0-.04.01-.05.03ZM16.77 24.36l.28-.88c.02-.06.05-.08.1-.08h1.03c.06 0 .1.03.12.1l.32.98a.21.21 0 0 1-.02.16.19.19 0 0 1-.05.06.17.17 0 0 1-.07.03l-.38.07c-.01 0-.02 0-.03.02l-.02.02-.01.06c-.03.07 0 .1.06.1a34.07 34.07 0 0 1 2.33-.02.1.1 0 0 0 .04-.07c0-.07-.02-.1-.07-.12-.17-.07-.26-.12-.33-.31l-1.58-4.4c-.02-.05-.05-.08-.11-.08h-.34a.1.1 0 0 0-.07.02 1711.72 1711.72 0 0 1-1.6 4.33c-.09.26-.2.35-.42.45-.06.02-.08.06-.07.12.02.05.05.07.1.07a12.54 12.54 0 0 1 1.29 0v-.03l.01-.02v-.04c0-.04-.02-.07-.05-.08l-.31-.12a.24.24 0 0 1-.08-.05.29.29 0 0 1-.07-.29Zm.87-2.53-.42 1.19a.06.06 0 0 0 0 .05l.02.01h.02l.84.01h.02l.02-.02a.06.06 0 0 0 0-.05l-.41-1.2-.02-.01a.05.05 0 0 0-.05 0s-.02 0-.02.02ZM32.87 22.39c.02.03.1.08.24.13.57.23.74.96.58 1.53-.21.78-.85.94-1.6.94l-2.63.01c-.04 0-.06-.02-.05-.07l.03-.07c.01-.03.04-.06.07-.06.39-.03.49-.3.49-.7v-3.34c0-.34-.17-.52-.5-.55a.07.07 0 0 1-.05-.02.08.08 0 0 1-.02-.06v-.07c0-.04.02-.06.05-.06h2.72c.4 0 .92.18 1.18.52.14.19.21.45.2.79 0 .5-.24.82-.69.97-.06.02-.07.06-.02.1Zm-1.47-2.03v-.04h.07c.1 0 .19.01.27.05.09.04.17.1.23.18.07.08.12.17.16.27.03.1.05.2.05.3v.32c0 .22-.08.43-.21.58a.67.67 0 0 1-.5.23h-.05a.05.05 0 0 1-.03-.03v-1.86Zm.38 2.26-.04-.02c-.26-.13-.38-.05-.36.27.02.26.02.68.01 1.27 0 .16.04.32.1.45.03.05.07.09.12.1.7.2.77-.93.67-1.42a.89.89 0 0 0-.5-.65Z"/><path d="M47.77 33.7s0 .02-.02.03H8.3l-.01-.04v-7.63l.01-.03.03-.02h39.4c.02 0 .03 0 .03.02l.02.03v7.63Z" fill="#007B3B"/><path d="M32.7 27.77c.06-.04.1-.12.12-.24 0-.06.04-.1.1-.1h.06l.04.02.02.02.02.03a7.23 7.23 0 0 0 .02 1.44c0 .09-.03.12-.1.1l-.06-.01a.1.1 0 0 1-.06-.03.12.12 0 0 1-.03-.05 1.27 1.27 0 0 0-.2-.51c-.54-.63-1.19-.82-1.93-.56-.22.07-.33.25-.34.54 0 .05.02.1.05.14.16.2.34.33.56.43l1.43.62c1.02.49 1.24 1.9.28 2.58-.95.67-1.95.43-3 .09a.16.16 0 0 0-.12 0 .18.18 0 0 0-.09.07.77.77 0 0 1-.25.26c-.07.03-.1 0-.1-.08v-1.38c0-.58.1-.6.29-.03.28.86 1.52 1.53 2.4 1.01.3-.18.44-.55.16-.84-.58-.6-1.48-.66-2.27-1.25-.97-.72-.55-1.94.37-2.39.77-.36 1.62-.2 2.41.11.1.04.16.04.22 0ZM36 28v1.67c0 .1.04.14.14.14.51-.04.79-.36.82-.96 0-.03.02-.05.05-.07l.04-.02a.08.08 0 0 1 .09 0 .1.1 0 0 1 .03.04l.01.05v2.28l-.03.03a.07.07 0 0 1-.06.01l-.06-.01c-.04-.01-.07-.04-.07-.09-.05-.64-.34-.95-.9-.95l-.04.02a.07.07 0 0 0-.02.05v1.65c0 .19.08.29.26.3.88.09 1.76 0 2.05-1.08l.01-.02.03-.03.1-.1a.08.08 0 0 1 .04-.03h.04l.04.04v.05l-.26 1.4c0 .03-.02.06-.05.08a.14.14 0 0 1-.1.04h-4.4c-.04 0-.07-.03-.07-.08 0-.02 0-.04.02-.06a24.38 24.38 0 0 0 .4-.15.36.36 0 0 0 .2-.14.4.4 0 0 0 .06-.23v-3.6c0-.1-.03-.2-.09-.27a.36.36 0 0 0-.22-.13.58.58 0 0 1-.23-.07c-.2-.14-.18-.2.05-.2l4.33-.01c.02 0 .03 0 .04.02l.02.04v1.28c0 .04-.02.06-.06.05l-.04-.01a.14.14 0 0 1-.08-.05.16.16 0 0 1-.04-.08c-.05-.44-.22-.7-.52-.81a5.4 5.4 0 0 0-1.44-.1c-.06 0-.1.04-.1.1Z" fill="#fff"/><path fill-rule="evenodd" d="m20.82 29.95.02-.01c.3-.1.53-.23.7-.4.48-.5.5-1.3-.06-1.77-.46-.4-1.16-.5-1.68-.5h-3.16c-.05 0-.07.02-.08.08 0 .06.02.1.08.11l.14.04c.15.04.31.08.38.18.1.15.14.3.14.45 0 1.99-.01 3.2-.03 3.63-.01.4-.3.46-.58.52a5.97 5.97 0 0 0-.12.04.08.08 0 0 0-.01.05v.06c0 .04.02.06.06.06h3.1c.02 0 .04-.01.04-.04l.02-.05c0-.05-.01-.08-.06-.1l-.15-.03c-.3-.07-.57-.13-.57-.6v-1.31c0-.38.08-.4.27-.08l1.22 2.1c.01.04.04.07.07.09a.2.2 0 0 0 .1.02h1.85l.04-.01a.1.1 0 0 0 .04-.05c.02-.07 0-.11-.07-.14a.98.98 0 0 1-.62-.5 74.66 74.66 0 0 0-1.09-1.82l.01-.02Zm-1.8-2.36a.08.08 0 0 0-.02.06v2.05c0 .02 0 .04.02.06l.06.02h.15c.23 0 .45-.1.61-.26.16-.17.26-.4.26-.64v-.4c0-.25-.1-.48-.26-.65a.84.84 0 0 0-.6-.26h-.16c-.02 0-.04 0-.06.02ZM28.47 30.02c0-1.78-1.36-2.58-2.85-2.58s-2.84.8-2.84 2.6c0 1.77 1.36 2.57 2.85 2.56 1.49 0 2.84-.8 2.84-2.58Zm-1.7.01c0-1.5-.38-2.24-1.15-2.24-.77 0-1.15.75-1.15 2.24 0 1.5.39 2.25 1.16 2.25.76 0 1.15-.75 1.15-2.25Z" fill="#fff"/><path d="M19.3 35.71a.16.16 0 0 0 0 .2l.06.03.79.28c.1.03.18.13.25.29.21.45-.15.85-.57.92-.48.09-.81-.1-1-.53a.17.17 0 0 1-.01-.13l.03-.06a.14.14 0 0 1 .05-.03c.2-.07.33 0 .4.2.01.06.05.1.1.12.25.11.44.08.6-.08a.2.2 0 0 0 0-.26 25.65 25.65 0 0 0-.77-.29.6.6 0 0 1-.18-.14.5.5 0 0 1-.13-.17c-.35-.91 1.23-1.2 1.47-.3.02.04 0 .08-.05.1-.2.1-.34.05-.42-.13a.18.18 0 0 0-.12-.1c-.24-.09-.4-.06-.5.08ZM28.25 36.34c0 .32.08.52.2.61.3.2.55.13.74-.24.02-.04.05-.05.09-.05l.27.06c.05.01.06.05.04.1-.1.24-.2.4-.3.45-.75.45-1.43-.04-1.46-.92-.02-.88.64-1.41 1.42-1 .1.05.2.2.32.43.02.05 0 .09-.05.1l-.26.08c-.04 0-.07 0-.1-.05-.2-.35-.44-.42-.73-.2-.13.1-.19.3-.18.63ZM33.18 37.02c.3-.24.26-.4-.11-.47a3.1 3.1 0 0 1-.48-.18c-.2-.1-.32-.22-.35-.38-.07-.33.02-.56.28-.67.52-.23.91-.12 1.19.34a.15.15 0 0 1-.02.18.13.13 0 0 1-.05.04l-.04.01a.27.27 0 0 1-.19 0 .3.3 0 0 1-.14-.12c-.15-.22-.35-.26-.6-.1a.15.15 0 0 0-.06.06.17.17 0 0 0 .03.18c.01.02.04.04.07.05.31.08.54.16.67.22.37.16.52.55.31.91-.14.25-.38.37-.73.36-.44-.01-.71-.22-.82-.64-.01-.06 0-.1.06-.12a.47.47 0 0 1 .25-.02c.05 0 .09.03.12.08.2.35.4.44.61.27ZM17.3 36.09h.86c.02 0 .04 0 .05.02.02.01.02.03.02.05v.23c0 .02 0 .04-.02.05a.07.07 0 0 1-.05.03l-.86-.01c-.02 0-.03 0-.05.02a.08.08 0 0 0-.02.05v.43c0 .02 0 .04.02.05.01.02.03.03.05.03h.98c.02 0 .04 0 .05.02.02.01.02.03.02.05v.23l-.01.05a.07.07 0 0 1-.05.02h-1.43a.07.07 0 0 1-.03-.05l-.01-.03v-2l.01-.06a.07.07 0 0 1 .05-.02h1.39l.02.01.03.02a.08.08 0 0 1 .02.06l-.03.21-.02.05a.07.07 0 0 1-.05.02h-.93l-.05.01a.08.08 0 0 0-.02.06V36a.08.08 0 0 0 .01.06.07.07 0 0 0 .05.02ZM24.2 37.06c.26 0 .4-.13.4-.4l-.01-1.31c0-.07.03-.1.09-.1h.26l.05.02.02.05c0 .62 0 1.12-.02 1.48 0 .45-.39.65-.78.65-.4 0-.77-.2-.79-.64a50.87 50.87 0 0 1 0-1.53l.02-.02H23.73c.06 0 .09.03.09.1v1.3c0 .27.13.4.39.4ZM30.62 37.03h1l.03.01.02.02.02.03v.03l-.02.22c0 .02 0 .04-.02.05a.07.07 0 0 1-.05.02H30.2a.07.07 0 0 1-.03-.05v-2.03l.01-.06a.07.07 0 0 1 .05-.02h1.37l.03.01.02.02a.08.08 0 0 1 .02.06l-.02.21c0 .02 0 .04-.02.05a.07.07 0 0 1-.05.02h-.93c-.02 0-.04 0-.05.02a.08.08 0 0 0-.02.05l-.01.32v.03l.02.02.02.02h.9c.02 0 .04.01.05.03l.02.05v.23c0 .02 0 .04-.02.05a.07.07 0 0 1-.05.03l-.86-.01c-.02 0-.04 0-.05.02a.08.08 0 0 0-.02.05l-.02.42v.03l.02.03.02.02h.03ZM36.2 37.03h.88a.07.07 0 0 1 .05.03l.02.03v.03l-.02.22-.02.05a.07.07 0 0 1-.05.02h-1.27c-.02 0-.04 0-.05-.02a.08.08 0 0 1-.02-.05v-2a.08.08 0 0 1 .02-.06l.02-.02h.03l.28.01c.02 0 .04.01.05.03l.02.05-.01 1.6c0 .03 0 .05.02.06.01.02.03.02.05.02ZM38.1 35.26h.68c.08 0 .12.04.12.12v.1c0 .1-.05.14-.13.14h-.4c-.05 0-.07.03-.07.09v1.59l-.02.07a.1.1 0 0 1-.06.03.72.72 0 0 1-.13.01h-.13a.1.1 0 0 1-.06-.05.11.11 0 0 1-.02-.06v-1.6c0-.05-.02-.08-.07-.08h-.4c-.08 0-.12-.05-.12-.14v-.1c0-.09.04-.13.12-.13h.68Z"/><path fill-rule="evenodd" d="M16.31 37.27c-.12-.23-.3-.48-.52-.75-.04-.05-.03-.08.03-.1.26-.09.4-.28.4-.58 0-.23-.18-.5-.36-.54a5.4 5.4 0 0 0-1.23-.03c-.04 0-.06.02-.06.07v1.96c0 .03.01.06.03.08a.1.1 0 0 0 .08.03h.18c.08 0 .12-.04.12-.13v-.67c0-.06.03-.09.08-.1.32-.03.56.42.71.72l.01.02c.03.05.07.1.11.12.05.03.1.05.16.05h.18c.11 0 .14-.05.08-.15ZM15 35.63l-.02.04v.45a.06.06 0 0 0 .02.03.05.05 0 0 0 .03.02h.38c.1 0 .2-.03.28-.08.07-.04.11-.1.11-.17v-.06a.17.17 0 0 0-.03-.1.27.27 0 0 0-.08-.08.44.44 0 0 0-.13-.05.58.58 0 0 0-.15-.02h-.38c-.01 0-.02 0-.03.02Z"/><path d="M21.2 37.14c.2.21.45.33.71.33a1 1 0 0 0 .7-.34 1.28 1.28 0 0 0-.02-1.6.93.93 0 0 0-.7-.34.89.89 0 0 0-.38.1 1 1 0 0 0-.32.25c-.1.1-.17.23-.22.37a1.28 1.28 0 0 0 .23 1.23Zm.7-.06c-.31 0-.56-.34-.56-.76 0-.41.25-.75.56-.75.31 0 .56.34.56.76 0 .41-.25.75-.56.75Z"/><path fill-rule="evenodd" d="M27.4 37.3c-.16-.31-.34-.57-.53-.79-.06-.06-.05-.1.03-.11.22-.04.35-.17.4-.38.1-.49-.23-.77-.69-.77h-.87c-.06 0-.09.02-.09.09v1.96c0 .07.04.1.1.1h.23c.05 0 .08-.02.08-.08v-.72c0-.06.03-.09.09-.09.15 0 .25.03.3.1.08.08.22.3.44.66a.3.3 0 0 0 .1.1c.05.03.1.04.15.05l.2.01c.09 0 .11-.04.06-.14Zm-1.32-1.66a.08.08 0 0 0-.02.05v.4l.02.06c.02.02.04.02.06.02h.31c.12 0 .23-.03.31-.07.09-.05.13-.11.13-.18v-.06a.16.16 0 0 0-.03-.1.3.3 0 0 0-.1-.08.55.55 0 0 0-.14-.05.76.76 0 0 0-.17-.02h-.32c-.02 0-.04.01-.05.03ZM39.38 35.27a.07.07 0 0 0-.02.05v2.03l.01.03.02.02a.06.06 0 0 0 .04.02h.78a.8.8 0 0 0 .6-.29 1 1 0 0 0 .25-.67v-.27a1.04 1.04 0 0 0-.26-.67.85.85 0 0 0-.27-.2.77.77 0 0 0-.33-.07h-.78c-.02 0-.03 0-.04.02Zm.42.37a.08.08 0 0 0-.02.05v1.28c0 .02 0 .04.02.05.01.02.03.02.05.02h.29a.47.47 0 0 0 .35-.15.53.53 0 0 0 .14-.37v-.38a.54.54 0 0 0-.14-.37.48.48 0 0 0-.35-.15h-.29c-.02 0-.03 0-.05.02Z"/><path d="M41.58 36.98h-.2c-.06 0-.1.05-.1.1v.22c0 .06.04.11.1.11h.2c.05 0 .1-.04.1-.1v-.22c0-.06-.04-.1-.1-.1Z"/></svg>