<!-- by TradeStack --><svg width="56" height="56" viewBox="0 0 56 56" xmlns="http://www.w3.org/2000/svg"><path fill="#F0F3FA" d="M0 0h56v56H0z"/><path d="M50 31.74c0 .16-.09.26-.25.26h-1.14c-.16 0-.25-.1-.25-.26v-.97c-.6 1-1.73 1.23-2.42 1.23-2.21 0-3.42-1.89-3.42-3.93 0-2.55 1.67-4.07 3.78-4.07 2.08 0 3.7 1.36 3.7 4.08v3.66Zm-3.7-6.07c-.92 0-2.12.56-2.12 2.34 0 1.74 1 2.35 1.9 2.4.9.06 2.28-.47 2.28-2.34 0-1.95-1.16-2.4-2.06-2.4ZM41.77 20c.15 0 .23.1.23.25v7.9c0 2.53-1.53 3.85-3.5 3.85S35 30.5 35 28.16c0-2.53 1.53-4.14 3.5-4.14.57 0 1.51.28 1.95.89v-4.66c0-.16.08-.25.24-.25h1.08Zm-1.32 8.16c0-1.82-1.09-2.54-1.95-2.54-.86 0-1.95.72-1.95 2.54 0 1.81 1.09 2.25 1.95 2.25.86 0 1.95-.44 1.95-2.25ZM29.01 27.88v3.85c0 .17-.09.27-.25.27h-1c-.17 0-.26-.1-.26-.27v-3.85C27.5 25.3 29.02 24 31 24s3.5 1.3 3.5 3.88v3.85c0 .17-.09.27-.25.27h-1.01c-.17 0-.26-.1-.26-.27v-3.85c0-1.78-1.18-2.17-1.98-2.17s-1.99.39-1.99 2.17ZM27.41 28.06c0 .15-.12.26-.27.26h-5.5c.14 1.63 1.2 2.02 2.06 2.02.48 0 1.04-.1 1.45-.54.12-.1.26-.16.4-.08l1.06.49c.12.05.17.2.1.34a3.46 3.46 0 0 1-3 1.45C21.6 32 20 30.62 20 28s1.62-4 3.7-4c2.09 0 3.71 1.38 3.71 4v.06Zm-1.77-1c-.31-1.1-1.2-1.4-1.94-1.4-.72 0-1.62.3-1.94 1.4h3.88ZM12 27.84c0-2.52 1.64-3.84 3.75-3.84 2.11 0 3.75 1.5 3.75 3.84 0 2.53-1.64 4.16-3.75 4.16-.61 0-1.62-.35-2.09-.97v4.72c0 .16-.09.25-.25.25h-1.16c-.16 0-.25-.1-.25-.25v-7.9Zm3.75 2.55c.92 0 2.09-.73 2.09-2.55 0-1.81-1.17-2.25-2.1-2.25-.91 0-2.08.44-2.08 2.25 0 1.82 1.17 2.55 2.09 2.55Z" fill="#444"/><path d="M7.3 29.57c.14-.04.24.01.33.19.27.43.86.62 1.37.62.7 0 1.37-.3 1.37-.84 0-1.39-4.37.03-4.37-3.03C6 24.66 7.51 24 9 24c1.22 0 2.44.44 2.87 1.85.05.13-.04.27-.18.32l-.95.25c-.12.03-.23-.02-.32-.17-.27-.52-.86-.63-1.42-.63-.68 0-1.37.2-1.37.84 0 1.37 4.37-.04 4.37 3.08C12 31.37 10.44 32 9 32c-1.22 0-2.55-.44-2.9-1.85-.02-.17.04-.27.2-.32l1-.26Z" fill="#444"/><path d="m14.3 37.7-1.18-1.17c-.07-.07-.18-.07-.25 0L11.7 37.7a.17.17 0 0 0 0 .26c.03.03.08.05.13.05h2.33c.1 0 .18-.08.18-.18a.18.18 0 0 0-.05-.13Z" fill="#CB972E"/><path d="m42.72 19.21-1.16-1.16a.19.19 0 0 0-.26 0l-1.16 1.16a.19.19 0 0 0 0 .26c.03.03.08.05.12.05h2.33c.1 0 .18-.08.18-.18a.18.18 0 0 0-.05-.13Z" fill="#2D82B3"/></svg>