<?xml version='1.0' encoding='utf-8'?>
<!-- by TradeStack -->
<svg width="56" height="56" viewBox="0 0 56 56" fill="none" xmlns="http://www.w3.org/2000/svg">
<rect width="56" height="56" fill="#F0F3FA" />
<path d="M23.9334 36.5425C23.8563 36.5959 23.8327 36.6278 23.8626 36.6382C21.3333 37.3745 18.977 37.6224 16.7937 37.3819C16.1519 37.3107 14.9061 37.0316 13.0564 36.5447C12.9337 36.5121 12.9061 36.5469 12.9738 36.6494C13.7633 37.1303 14.0686 37.2149 14.6891 37.3819C19.4835 38.6777 24.2542 38.6622 29.0014 37.3351C29.2153 37.2758 29.4112 37.2594 29.5889 37.2862C29.7022 37.3025 29.7045 37.3277 29.596 37.3619C24.5869 38.9605 20.0238 38.838 14.9274 37.7092C14.8692 37.6973 14.8417 37.7196 14.8448 37.776C14.8464 37.7983 14.8472 37.8198 14.8472 37.8406C14.8487 37.8955 14.8771 37.9319 14.9321 37.9497C20.3321 39.6389 25.7957 39.955 31.3231 38.8982C33.121 38.5531 34.7584 37.9786 36.554 37.3307C36.609 37.3114 36.6507 37.324 36.679 37.3685C36.6844 37.3773 36.6878 37.387 36.6888 37.3971C36.6898 37.4072 36.6885 37.4174 36.6849 37.4271C36.6813 37.4368 36.6756 37.4457 36.6681 37.4532C36.6605 37.4608 36.6514 37.4669 36.6413 37.471C29.8791 40.2452 23.0792 40.4033 15.9821 38.5931C15.9726 38.591 15.9628 38.5909 15.9534 38.5929C15.944 38.5949 15.9353 38.5989 15.9279 38.6045C15.9206 38.6101 15.9148 38.6173 15.9111 38.6254C15.9074 38.6335 15.9058 38.6423 15.9066 38.651C15.9081 38.6777 15.9089 38.7022 15.9089 38.7245C15.9089 38.7408 15.9168 38.752 15.9325 38.7579C24.7356 41.7437 35.7636 41.3919 44.0523 37.1258C44.0837 37.108 44.1089 37.1058 44.1278 37.1192C44.1561 37.1399 44.1553 37.1585 44.1254 37.1748C34.992 42.2892 21.4347 42.1623 12.2777 37.4687C7.87267 35.211 3.72479 30.8448 5.36695 25.7127C7.13181 20.1975 14.019 17.0693 19.6887 15.8603C25.6864 14.58 32.9252 14.649 38.8355 16.6084C38.8477 16.6119 38.858 16.6199 38.8639 16.6305C38.8699 16.6412 38.8712 16.6536 38.8674 16.6651C38.8636 16.6767 38.8552 16.6863 38.8439 16.6919C38.8326 16.6976 38.8194 16.6987 38.8072 16.6952C37.6417 16.4191 36.4006 16.074 35.3271 15.8937C28.5673 14.7559 22.303 15.2257 16.0056 17.1806C15.96 17.1954 15.949 17.2221 15.9726 17.2607L16.0292 17.3498C16.0366 17.3619 16.048 17.3713 16.0617 17.3766C16.0754 17.3818 16.0905 17.3826 16.1047 17.3787C22.6899 15.5485 30.8347 15.6888 37.0919 18.7792C37.0975 18.7814 37.1018 18.7854 37.1038 18.7905C37.1058 18.7955 37.1053 18.8012 37.1025 18.8062C37.0997 18.8112 37.0948 18.8152 37.0888 18.8172C37.0828 18.8193 37.0763 18.8192 37.0707 18.8171C30.7332 16.1497 23.7234 15.8291 17.0296 17.401C16.1626 17.6056 15.1125 17.9852 14.2337 18.2671C14.2189 18.2719 14.2065 18.2819 14.1992 18.295C14.1919 18.308 14.1901 18.3233 14.1944 18.3376C14.1986 18.3518 14.2085 18.364 14.2219 18.3716C14.2354 18.3792 14.2514 18.3817 14.2667 18.3785C16.251 17.9821 18.3863 17.4968 20.255 17.3943C24.5822 17.1516 29.8154 18.0912 33.4537 20.536C33.4578 20.5382 33.4607 20.5417 33.4616 20.5457C33.4625 20.5498 33.4615 20.554 33.4587 20.5576C33.4558 20.5611 33.4515 20.5636 33.4466 20.5646C33.4417 20.5656 33.4366 20.5649 33.4324 20.5627C28.0435 17.3988 21.6447 17.0626 15.614 18.3629C14.774 18.5432 13.6076 18.9327 13.1531 19.1399C13.1327 19.1462 13.1154 19.1594 13.1047 19.177C13.0939 19.1945 13.0904 19.2152 13.0948 19.235C13.0992 19.2549 13.1111 19.2725 13.1284 19.2845C13.1457 19.2966 13.1671 19.3022 13.1885 19.3002C14.1417 19.1889 15.1987 18.8037 15.9608 18.6991C19.861 18.158 24.4194 18.9128 27.7368 21.1394C27.74 21.1423 27.7421 21.1462 27.7425 21.1504C27.743 21.1547 27.7419 21.1589 27.7393 21.1624C27.7367 21.1659 27.7329 21.1684 27.7286 21.1695C27.7242 21.1706 27.7196 21.1702 27.7155 21.1683C23.0934 18.4675 17.9835 18.3329 12.8234 19.6621C12.5921 19.7217 12.1118 19.9348 11.8412 20.1886C11.7217 20.3 11.7421 20.3296 11.9026 20.2777C15.2483 19.1756 18.6246 19.6498 21.6447 21.4911C21.6481 21.4943 21.6503 21.4984 21.6509 21.5029C21.6515 21.5074 21.6504 21.5119 21.648 21.5157C21.6455 21.5196 21.6418 21.5225 21.6373 21.5241C21.6329 21.5257 21.628 21.5259 21.6235 21.5245C17.6171 19.445 12.4335 19.3826 8.68432 22.099C4.44913 25.1672 4.39958 30.5554 8.54747 33.7415C12.2966 36.6204 17.8271 36.656 21.8594 34.2714C21.8661 34.2675 21.8743 34.266 21.8823 34.2674C21.8903 34.2688 21.8975 34.2729 21.9022 34.2788C21.9068 34.2847 21.9087 34.2919 21.9073 34.2989C21.9059 34.3059 21.9014 34.312 21.8948 34.316C19.2522 36.3555 15.0147 36.6449 11.9474 35.7677C11.7964 35.7246 11.7807 35.7521 11.9002 35.85C12.1016 36.0178 12.3336 36.1395 12.5963 36.2152C15.0375 36.9336 17.5259 37.2387 20.0615 37.1303C21.279 37.0769 22.638 36.754 23.9334 36.5425Z" fill="#1798D4" />
<path d="M43.7121 34.8478C43.5517 35.1517 42.4811 37 42.4811 37H41.9287L43.6673 34.0907C43.6835 34.063 43.7064 34.0401 43.7339 34.0242C43.7614 34.0083 43.7925 34 43.8243 34C43.856 34 43.8873 34.0083 43.9152 34.0242C43.9431 34.0401 43.9666 34.063 43.9835 34.0907L45.7256 37L45.1043 36.994C44.8731 36.4362 44.3846 36.3453 43.7711 36.3453C43.4074 36.3453 43.2726 36.0039 43.5588 35.8703H44.3057C44.43 35.8976 44.4475 35.814 44.3846 35.7015L43.9056 34.8454C43.8958 34.828 43.8816 34.8135 43.8644 34.8035C43.8473 34.7936 43.8279 34.7885 43.8082 34.7887C43.7885 34.7889 43.7692 34.7946 43.7523 34.8049C43.7354 34.8153 43.7216 34.8301 43.7121 34.8478Z" fill="#0F9D98" />
<path d="M23.8662 36.989L24.6809 34.21C24.6976 34.1521 24.7311 34.1009 24.7766 34.0634C24.8222 34.026 24.8777 34.004 24.9356 34.0005C24.9935 33.997 25.0511 34.0122 25.1005 34.0439C25.1499 34.0757 25.1887 34.1225 25.2118 34.178L25.9833 36.0266C25.9904 36.0435 26.002 36.0579 26.0167 36.0681C26.0314 36.0782 26.0486 36.0838 26.0663 36.0841C26.084 36.0843 26.1013 36.0793 26.1163 36.0695C26.1313 36.0598 26.1433 36.0457 26.1508 36.029L26.9695 34.1509C26.9898 34.1032 27.0236 34.0633 27.0665 34.0367C27.1094 34.01 27.1592 33.9979 27.2092 34.0019C27.2593 34.006 27.307 34.026 27.346 34.0592C27.385 34.0925 27.4134 34.1374 27.4273 34.1879L28.1775 37H27.604L27.1701 35.138C27.1668 35.1227 27.159 35.1088 27.1477 35.0985C27.1363 35.0881 27.1222 35.0818 27.1072 35.0804C27.0922 35.079 27.0771 35.0827 27.0643 35.0908C27.0514 35.099 27.0414 35.1112 27.0356 35.1257L26.2971 36.8364C26.2761 36.8851 26.242 36.9264 26.199 36.9555C26.1561 36.9845 26.106 37 26.055 37C26.004 37 25.9543 36.9845 25.9118 36.9555C25.8693 36.9264 25.8359 36.8851 25.8158 36.8364L25.0914 35.1306C25.0411 35.0092 24.9939 35.0108 24.9499 35.1355C24.8009 35.5489 24.4918 37 24.4918 37L23.8662 36.989Z" fill="#0F9D98" />
<path d="M32.4502 34.18C32.4502 34.1323 32.4687 34.0865 32.5015 34.0527C32.5344 34.019 32.579 34 32.6255 34H34.1737C34.363 34 34.5504 34.0379 34.7252 34.1115C34.9001 34.1851 35.0589 34.293 35.1928 34.4291C35.3266 34.5651 35.4327 34.7266 35.5052 34.9044C35.5776 35.0821 35.6149 35.2726 35.6149 35.465V35.535C35.6149 35.7274 35.5776 35.9179 35.5052 36.0956C35.4327 36.2734 35.3266 36.4349 35.1928 36.5709C35.0589 36.7069 34.9001 36.8149 34.7252 36.8885C34.5504 36.9621 34.363 37 34.1737 37H32.6255C32.579 37 32.5344 36.981 32.5015 36.9473C32.4687 36.9135 32.4502 36.8677 32.4502 36.82V34.18ZM32.9979 34.7275V36.3075C32.9979 36.3552 33.0164 36.401 33.0493 36.4348C33.0821 36.4685 33.1267 36.4875 33.1732 36.4875H34.2492C34.4674 36.4875 34.6767 36.403 34.831 36.2525C34.9853 36.102 35.072 35.8978 35.072 35.685V35.35C35.072 35.1372 34.9853 34.933 34.831 34.7825C34.6767 34.632 34.4674 34.5475 34.2492 34.5475H33.1732C33.1267 34.5475 33.0821 34.5665 33.0493 34.6002C33.0164 34.634 32.9979 34.6798 32.9979 34.7275Z" fill="#0F9D98" />
<path d="M37.0976 33.9957L36.8353 33.9985C36.7542 33.9993 36.6891 34.0635 36.69 34.1419L36.7184 36.858C36.7192 36.9363 36.7856 36.9991 36.8668 36.9983L37.129 36.9956C37.2101 36.9947 37.2752 36.9305 37.2744 36.8521L37.246 34.1361C37.2451 34.0577 37.1787 33.9949 37.0976 33.9957Z" fill="#0F9D98" />
<path d="M38.7338 35.4331C38.6772 36.7355 40.0669 36.4998 41.0389 36.475C41.1727 36.4701 41.2246 36.5362 41.1947 36.6735L41.1593 36.8322C41.1388 36.9265 41.083 36.9745 40.9918 36.9761C39.9418 36.9885 38.4822 37.2454 38.2666 35.8003C37.9939 33.972 39.8191 33.8976 41.1168 34.0539C41.1923 34.0638 41.2238 34.1085 41.2112 34.1879L41.1805 34.3789C41.1616 34.4979 41.0948 34.5583 40.98 34.56C40.2179 34.5624 38.7881 34.2077 38.7338 35.4331Z" fill="#0F9D98" />
<path d="M47.1907 36.5109H48.8878C48.9418 36.5109 49.0004 36.4899 49.0004 36.568V36.9181C49.0004 36.9398 48.9922 36.9606 48.9776 36.976C48.963 36.9914 48.9432 37 48.9225 37H46.707C46.6864 37 46.6666 36.9914 46.652 36.976C46.6374 36.9606 46.5938 36.9398 46.5938 36.9181V34.0829C46.5932 34.0353 46.6387 33.9937 46.6834 34.0009H47.0444C47.07 34.0042 47.113 34.0548 47.1128 34.0829V36.429C47.1128 36.472 47.1498 36.5109 47.1907 36.5109Z" fill="#0F9D98" />
<path fill-rule="evenodd" clip-rule="evenodd" d="M31.6137 36.4907H29.7871C29.7468 36.4924 29.7065 36.4856 29.6688 36.4708C29.631 36.4559 29.5966 36.4334 29.5675 36.4044C29.5384 36.3755 29.5153 36.3407 29.4995 36.3023C29.4837 36.2639 29.4756 36.2225 29.4756 36.1807V34.6284C29.4756 34.6109 29.479 34.5935 29.4856 34.5773C29.4922 34.5612 29.502 34.5466 29.5142 34.5344C29.5264 34.5222 29.5408 34.5127 29.5567 34.5065C29.5725 34.5002 29.5894 34.4974 29.6064 34.498H31.2392C31.5665 34.5154 31.7961 34.1539 31.4017 34H29.1522C29.0808 34.0049 29 34.1438 29 34.2176V36.8425C29 36.8634 29.004 36.8841 29.0116 36.9034C29.0193 36.9226 29.0306 36.9401 29.0447 36.9547C29.0589 36.9694 29.0757 36.9809 29.0941 36.9887C29.1126 36.9965 29.1323 37.0003 29.1522 37L31.4944 37C31.5926 37.0001 31.7257 36.9547 31.7257 36.7312C31.7257 36.6017 31.6686 36.547 31.6353 36.515C31.6252 36.5053 31.6172 36.4977 31.6137 36.4907ZM30.0859 35.253L31.2986 35.2486C31.4077 35.2482 31.4963 35.3393 31.4967 35.4521L31.497 35.5358C31.4974 35.6485 31.4093 35.7403 31.3003 35.7407L30.0876 35.745C29.9786 35.7454 29.8899 35.6543 29.8895 35.5416L29.8892 35.4579C29.8889 35.3451 29.9769 35.2534 30.0859 35.253Z" fill="#0F9D98" />
<path fill-rule="evenodd" clip-rule="evenodd" d="M48.3972 32.8855L45.219 29.7382C45.2004 29.7199 45.1856 29.698 45.1755 29.674C45.1654 29.65 45.1603 29.6244 45.1605 29.5989C45.1607 29.5734 45.1663 29.5486 45.1768 29.5262C45.1873 29.5037 45.2025 29.4841 45.2214 29.4686C47.5454 27.6218 47.1962 23.4414 44.3578 22.3438C43.746 22.1084 42.604 21.9939 40.9319 22.0003C38.9752 22.0066 37.0255 22.0066 35.0829 22.0003C35.0597 22.0003 35.0375 22.0093 35.0212 22.0254C35.0048 22.0415 34.9956 22.0634 34.9956 22.0861V32.8282C34.9956 32.9284 35.0444 33 35.1419 33L37.8531 33C37.9522 33 38.0018 32.9284 38.0018 32.8282L37.9998 24.9709C37.9998 24.8802 38.0395 24.8333 38.1292 24.8301C39.7823 24.7665 41.2631 24.7824 42.9162 24.8778C43.5084 24.9112 43.7444 25.1904 43.8553 25.7416C44.0881 26.9203 43.6552 27.5248 42.551 27.555H39.2139C39.14 27.555 39.0018 27.6592 39.0018 27.734V29.8769C39.0018 29.9085 39.0142 29.9389 39.0364 29.9612C39.0585 29.9836 39.0885 29.9962 39.1198 29.9962L41.8097 29.9962C41.8883 29.9962 41.9544 30.0256 42.0078 30.0845L44.339 32.8783C44.365 32.9069 44.3965 32.9297 44.4314 32.9453C44.4438 32.9509 44.4566 32.9594 44.4696 32.968C44.4931 32.9838 44.5174 33 44.5419 33L48.35 33C48.3632 33.0002 48.3762 32.9964 48.3872 32.989C48.3983 32.9817 48.4069 32.9712 48.412 32.9589C48.417 32.9466 48.4183 32.933 48.4157 32.9199C48.4131 32.9068 48.4066 32.8948 48.3972 32.8855ZM10.605 32.7331C4.6828 31.5486 5.22273 22.103 11.9518 22.0183C13.8614 21.9931 15.7899 21.9939 17.7372 22.0206C17.8127 22.0222 17.8504 22.0607 17.8504 22.136L17.8575 24.6393C17.8575 24.7272 17.8135 24.7719 17.7254 24.7735C16.1917 24.7798 14.666 24.7798 13.1481 24.7735C12.176 24.7704 11.5075 24.8261 11.1426 24.9407C8.29944 25.8426 9.04738 30.0382 12.3105 29.9958L17.862 30C17.9249 30.0016 17.9996 30.0217 17.9996 30.083V32.8987C18.0012 32.9647 17.9635 32.9984 17.8974 33H11.9518C11.9518 33 11.0795 32.9108 10.605 32.7331ZM26.4624 28.7934C26.4749 28.8143 26.4927 28.8317 26.514 28.8438C26.5353 28.8558 26.5594 28.8622 26.5839 28.8622C26.6084 28.8622 26.6324 28.8558 26.6537 28.8438C26.675 28.8317 26.6928 28.8143 26.7054 28.7934L30.6055 22.1784C30.6357 22.1268 30.679 22.0839 30.7312 22.0542C30.7834 22.0244 30.8426 22.0088 30.9028 22.0089H33.8332C33.9433 22.0089 33.9701 22.056 33.9135 22.1502C32.007 25.2728 30.1085 28.3954 28.2178 31.518C27.2976 33.0346 26.158 33.7481 25.0255 31.883C23.1395 28.773 21.1717 25.531 19.1222 22.1572C19.1135 22.1423 19.1089 22.1253 19.1089 22.108C19.1088 22.0907 19.1133 22.0737 19.1219 22.0587C19.1305 22.0437 19.1429 22.0312 19.1579 22.0224C19.1728 22.0137 19.1898 22.009 19.2071 22.0089H22.2885C22.3352 22.0089 22.3811 22.0211 22.4216 22.0442C22.4622 22.0674 22.496 22.1006 22.5197 22.1407L26.4624 28.7934Z" fill="#1A80C2" />
<path d="M46.5936 24.8513C46.2806 23.7496 45.5345 22.7907 44.3682 22.3456C43.7563 22.1133 42.6144 21.9937 40.9423 22H35.0933C35.0701 22 35.0479 22.0154 35.0315 22.0313C35.0152 22.0472 34.9996 22.0688 34.9996 22.0913V27.4347C35.988 27.2624 37.1032 27.0884 37.9996 26.9147V25.1256C37.9996 25.0361 38.0532 25.0031 38.1429 25H42.8953C43.4496 25.0309 43.7231 25.1207 43.8427 25.5978C44.9172 25.3295 45.8381 25.0774 46.5936 24.8513Z" fill="#1798D4" />
<path d="M30.1797 28.2874C31.4208 26.2434 32.6653 24.1995 33.9132 22.1556C33.9698 22.0614 33.9431 22.0054 33.833 22.0054H30.9026C30.8423 22.0053 30.7831 22.0298 30.7309 22.0596C30.6788 22.0893 30.6354 22.1322 30.6053 22.1838L26.7382 28.7426C27.9229 28.5971 29.0708 28.4447 30.1797 28.2874Z" fill="#1798D4" />
<path d="M26.4497 28.7778L22.5195 22.1462C22.4957 22.106 22.4619 22.0728 22.4214 22.0497C22.3808 22.0265 22.335 22.0055 22.2883 22.0054H19.2068C19.1895 22.0056 19.1725 22.0191 19.1576 22.0279C19.1427 22.0366 19.1303 22.0491 19.1217 22.0641C19.1131 22.0791 19.1086 22.0961 19.1086 22.1134C19.1087 22.1307 19.1132 22.1477 19.1219 22.1626C20.5725 24.5505 21.9822 26.8723 23.3508 29.1281C24.409 29.0171 25.4425 28.9 26.4497 28.7778Z" fill="#1798D4" />
<path d="M11.7294 30.0051C9.16054 29.4065 8.54776 25.9794 11.1423 25.1564C11.5072 25.0418 12.1757 25.0023 13.1478 25.0054H17.8671C17.9552 25.0038 17.9992 24.9429 17.9992 24.8549L17.9996 22.1414C17.9996 22.0661 17.9544 22.007 17.8789 22.0054H11.9516C7.11688 22.0663 5.4399 26.9915 7.14135 30.1769C8.58437 30.1432 10.3372 30.0673 11.7294 30.0051Z" fill="#1798D4" />
</svg>