<!-- by TradeStack --><svg width="56" height="56" viewBox="0 0 56 56" xmlns="http://www.w3.org/2000/svg"><path fill="#F0F3FA" d="M0 0h56v56H0z"/><path d="M44.89 32.4a.64.64 0 0 0-.3-.48c-.17-.12-.39-.17-.66-.17-.19 0-.35.02-.49.08a.73.73 0 0 0-.31.22.53.53 0 0 0-.04.6c.05.07.11.13.2.18.08.05.17.1.28.13l.3.09.48.11c.2.04.37.1.55.18.18.07.34.16.48.27a1.17 1.17 0 0 1 .46.95c0 .29-.08.54-.23.75a1.5 1.5 0 0 1-.66.51c-.28.12-.63.18-1.03.18s-.74-.06-1.03-.18a1.52 1.52 0 0 1-.68-.5c-.16-.23-.25-.5-.26-.83h.9c.02.17.07.31.17.42.1.12.22.2.37.25.16.06.33.09.52.09.2 0 .37-.03.52-.09a.85.85 0 0 0 .36-.24c.09-.1.13-.23.13-.37a.45.45 0 0 0-.12-.3.85.85 0 0 0-.31-.22l-.48-.15-.58-.14c-.41-.1-.74-.26-.98-.47a1.06 1.06 0 0 1-.37-.84c0-.28.09-.53.25-.75.16-.21.38-.38.66-.5s.6-.18.95-.18c.36 0 .68.06.95.18.27.12.48.28.64.5.15.2.23.45.24.72h-.88ZM40.52 32.62a1.24 1.24 0 0 0-.43-.6c-.1-.08-.21-.14-.34-.17a1.48 1.48 0 0 0-1.15.14c-.2.13-.38.32-.5.58-.12.25-.18.56-.18.93 0 .36.06.67.18.93.12.25.29.45.5.58.22.13.47.2.75.2.26 0 .48-.05.67-.14.19-.1.33-.23.44-.4.1-.18.15-.39.15-.63l.2.04h-1.37v-.7h2.06v.59c0 .42-.1.78-.28 1.08-.18.3-.44.54-.76.7-.32.17-.7.25-1.11.25-.47 0-.88-.1-1.23-.3-.35-.2-.63-.5-.83-.86-.2-.38-.29-.82-.29-1.34a3 3 0 0 1 .17-1.05c.12-.3.28-.57.5-.78.2-.22.45-.39.73-.5a2.5 2.5 0 0 1 1.7-.05c.24.08.46.19.65.33a1.77 1.77 0 0 1 .7 1.17h-.93ZM36 31v5h-.78L33 32.92V36h-1v-5h.79L35 34.17V31h1ZM31 31v5h-1v-5h1ZM26.64 36H25v-5h1.68c1.46 0 2.32 1.09 2.32 2.5 0 1.04-.38 1.8-1.09 2.2-.35.2-.77.3-1.27.3ZM26 35h.6c1.04 0 1.4-.68 1.4-1.5 0-.83-.34-1.5-1.37-1.5H26v3ZM48 28v-5h1.96c.4 0 .74.07 1.02.2.27.13.48.32.62.56.14.24.2.52.2.84 0 .32-.06.6-.2.83a1.4 1.4 0 0 1-.63.55c-.28.13-.62.19-1.02.19h-1.4v-.95h1.27c.54 0 1.02-.02 1.02-.62 0-.45-.5-.6-1.02-.6H49v4h-1Zm2.7-2.27L52 28h-1.16l-1.27-2.27h1.13ZM32 28v-5h1.96c.4 0 .74.07 1.02.2.27.13.48.32.62.56.14.24.2.52.2.84 0 .32-.06.6-.2.83a1.4 1.4 0 0 1-.63.55c-.28.13-.62.19-1.02.19h-1.4v-.95h1.27c.54 0 1.02-.02 1.02-.62 0-.45-.5-.6-1.02-.6H33v4h-1Zm2.7-2.27L36 28h-1.16l-1.27-2.27h1.13ZM44 28v-5h3.3v1H45v1h2.12v1H45v1h2.31v1H44ZM39.71 23l1.21 3.67L42.21 23h1.1l-1.8 5h-1.13l-1.78-5h1.11ZM38 23v5h-1v-5h1ZM29.3 25.5c0 .52-.12.97-.34 1.35a2.2 2.2 0 0 1-.89.85c-.38.2-.8.3-1.28.3-.47 0-.9-.1-1.28-.3-.37-.2-.67-.48-.9-.85a2.63 2.63 0 0 1-.32-1.35c0-.52.11-.97.33-1.35.22-.37.52-.65.9-.85.37-.2.8-.3 1.27-.3.48 0 .9.1 1.28.3.38.2.67.48.9.85.21.38.32.83.32 1.35Zm-1 0c0-.37-.06-.68-.2-.93-.12-.26-.3-.45-.52-.58-.23-.13-.5-.2-.79-.2-.3 0-.55.07-.78.2-.23.13-.4.32-.54.58-.12.25-.19.56-.19.93s.07.68.2.94c.12.25.3.44.53.57.23.13.49.2.78.2.3 0 .56-.07.79-.2.22-.13.4-.32.53-.57.13-.26.2-.57.2-.94ZM20.5 33.5c0 .52-.11.97-.33 1.35a2.2 2.2 0 0 1-.9.85c-.37.2-.8.3-1.27.3-.48 0-.9-.1-1.28-.3-.38-.2-.67-.48-.9-.85a2.63 2.63 0 0 1-.32-1.35c0-.52.1-.97.33-1.35.22-.37.51-.65.89-.85.38-.2.8-.3 1.28-.3s.9.1 1.28.3c.38.2.67.48.9.85.21.38.32.83.32 1.35Zm-1 0c0-.37-.06-.68-.18-.93-.13-.26-.31-.45-.54-.58-.22-.13-.48-.2-.78-.2-.3 0-.56.07-.78.2-.23.13-.4.32-.54.58-.13.25-.19.56-.19.93s.06.68.2.94c.12.25.3.44.53.57.22.13.48.2.78.2.3 0 .56-.07.78-.2.23-.13.4-.32.54-.57.12-.26.19-.57.19-.94ZM23.91 24.7h-.97a1.05 1.05 0 0 0-.42-.67 1.19 1.19 0 0 0-.38-.18 1.59 1.59 0 0 0-1.22.14c-.22.13-.4.33-.52.58-.12.25-.18.56-.18.93s.06.69.18.94a1.35 1.35 0 0 0 1.29.77c.15 0 .3-.02.44-.06.14-.04.26-.1.37-.17a1.06 1.06 0 0 0 .44-.66h.97c-.04.23-.11.45-.23.65-.12.2-.28.39-.47.54-.2.15-.42.27-.68.36-.26.09-.54.13-.86.13-.46 0-.88-.1-1.24-.3-.37-.2-.65-.48-.86-.85a2.7 2.7 0 0 1-.32-1.35c0-.52.1-.97.32-1.35.21-.37.5-.65.86-.85a2.83 2.83 0 0 1 2.06-.18c.26.07.48.18.68.33a1.83 1.83 0 0 1 .74 1.26ZM16 28v-5h1v4h2v1h-3ZM21 36v-5h1v4h2v1h-3ZM15 23v5h-1v-5h1ZM9 28v-5h1v2h2v-2h1v5h-1v-2h-2v2H9ZM11 36v-5h1v2h2v-2h1v5h-1v-2h-2v2h-1ZM8.55 24.7h-.94a1.07 1.07 0 0 0-.79-.85 1.52 1.52 0 0 0-1.19.14c-.21.13-.38.33-.5.58-.13.25-.19.56-.19.93s.06.69.19.94c.12.25.29.45.5.58a1.6 1.6 0 0 0 1.18.14c.14-.05.26-.1.37-.18a1.04 1.04 0 0 0 .43-.66h.94a1.95 1.95 0 0 1-1.35 1.55 2.6 2.6 0 0 1-.83.13c-.46 0-.86-.1-1.22-.3-.36-.2-.64-.48-.84-.85-.2-.38-.31-.83-.31-1.35 0-.52.1-.97.31-1.35.2-.37.49-.65.85-.85a2.72 2.72 0 0 1 2.01-.18c.25.07.47.18.66.33a1.92 1.92 0 0 1 .72 1.26Z"/></svg>