<?xml version='1.0' encoding='utf-8'?>
<!-- by TradeStack -->
<svg width="56" height="56" viewBox="0 0 56 56" xmlns="http://www.w3.org/2000/svg"><path fill="#F0F3FA" d="M0 0h56v56H0z" /><path d="M34 34.5c-.35.52-.85.6-1.33.78-.02 0-.73.57-.75.57-4.23 0-2.95-.66-6.42-.24-.05 0-.1-.01-.13-.04-.03-.02-.51.86-.87.93-.02.04-.81-.8-.84-.8-.58-.25-.95-.94-1.33-1.48a.18.18 0 0 1-.02-.07c-.22-1.1-.8-2.7-.31-4.15.7-2.06 1.52-4.26.65-6.25-.03-.06 0-.09.06-.08C31 23 34.27 23.42 34 24c-.47 1-.42 1.58-.42 2.68 0 .34.03.61.08.82.74 2.92 1.49 3.09.84 5-.08.24-.47 1.96-.5 2Z" fill="#83CAE5" /><path fill-rule="evenodd" d="M45.76 32.44c-.84-.4-1.4-1.7-2.1-2.32a1.8 1.8 0 0 1-.5-.85 7.74 7.74 0 0 1-.04-1.79c.02-.21.36-.18.36-.4 0-.52.36-.9.76-1.35.18-.2.36-.4.53-.64.43-.6.6-1.77.4-2.5a3.95 3.95 0 0 0-1.97-2.44c-.64-.37-1.2 0-1.58.53a.16.16 0 0 1-.14.07c-.57-.03-1.3.29-1.89.36-.17.03-.25.12-.24.3.03.34.13.66.3.95.06.1.07.16.07.28-.02.17.04.2.18.1.17-.15.37-.16.57-.03.06.04.27.72.25.75v.02c-.1.2-.24.49-.48.34-.18-.1-1.65-.28-1.82-.33a7.18 7.18 0 0 1-1.84-.84c-.45-.29-1.37-1.01-1.84-1.05a1.88 1.88 0 0 0-.63.03c-.42.15-.91.29-1.47.4-3.8.77-7.36.16-10.7-.4-.1-.03-.2-.03-.3-.04-.6-.07-1.56.57-2.06.92-.6.43-1.3.75-2.08.98a2 2 0 0 0-.8.46.09.09 0 0 1-.1.01c-.3-.18-.64-.23-1.04-.14h-.1c-.1-.06-.13-.29.02-.24.24.08.4 0 .47-.24.08-.27-.01-.36-.28-.27-.08.02-.2.1-.25-.01a.25.25 0 0 1 .03-.28c.49-.59.54.24.9-.41.16-.3.26-.6.3-.9a.34.34 0 0 0-.32-.38c-.53-.03-.9-.3-1.38-.38-.17-.03-.36.17-.52.08a.11.11 0 0 1-.04-.05 1.2 1.2 0 0 0-1.42-.7c-.3.09-.5.35-.78.5-.57.3-1.54 1.71-1.45 2.4.12.82.07 1.55.57 2.26.27.38.5.72.46 1.21 0 .12.12.1.16.02.04-.1.07-.2.08-.3 0-.08.05-.1.12-.05.46.34.24.94.68 1.26.03.03.05.06.05.1.05.45.06.93.04 1.44-.04.94-.93 1.45-1.45 2.13-.31.42-.64.73-.99 1.13-.29.53-1.08.85-1.42.36-1.44-.59.57-2.7 1.16-3.12 1-.71.64-1.88.53-2.91l-.19-.37c-.4.03-.83-.45-1.15-.67-.4.06-.76.14-1.2.14-.05 0-.09.08-.05.12.12.17.3.27.56.3.24.82.78 1.24 1.63 1.26.1 0 .16.05.18.15.13.5-.25 1.1-.58 1.47-.16.2-.28.3-.35.35-.54.3-.98.72-1.3 1.27a2.63 2.63 0 0 0-.2 1.83c.1.39.33.66.69.83.68.33 1.6.03 2.23-.34.03-.02.08 0 .08.05.02.39.02.77.01 1.14 0 .16-.06.31-.17.45-.54.7-1.07 1.3-1.85 1.65-.65.29-.64.89-.53 1.49.03.12.02.26-.03.4-.1.29-.02.55.27.78.2.15.4.12.6.09a16 16 0 0 1 1.04-.13c.03 0-.4-.64-.52-.8a.2.2 0 0 0-.26-.04c-.11.07-.15.14-.1.2.03.06.07.08.13.07.23-.03.53.07.5.37-.03.2-.36.18-.53.16-.22-.01-1.04-.18-.9-.51.1-.28.55.13.6-.25a.5.5 0 0 1 .17-.34l.25-.22c.27-.25.53-.48.88-.63.78-.31 1.49-.6 2.2-1.22.15-.13.43-.16.57 0 .09.1.1.26.1.4 0 .22.28.44.38.17.13-.4.1-.74.08-1.09 0-.1-.07-.96.1-.85.21.14.23.54.25.84 0 .1 0 .19.02.25.01.1.16-.02.16-.08 0-.25.03-.9.04-.9.1.05.19.17.28.29.06.08.12.15.18.2a2.5 2.5 0 0 1-.44 1.05c-.15.2-.24.37-.27.5-.12.55.42 1.73.97 2.04h.16c.23 0 .58-.02.47.2a.17.17 0 0 1-.15.1l-.87.03c-1.28.04-.25-.3-.19-.3.13-.03.17-.21.06-.29-.36-.24-1.23-2.24-1.25-1.14 0 .09-.03.1-.08.03l-.26-.3a.12.12 0 0 1-.02-.14c.13-.29.16-.55.1-.8-.08-.28-.16-.02-.2.1-.16.48-.35 1.04.1 1.42.27.23.47.5.61.81.28.64.7.93 1.24.88.45-.05.93-.15 1.44-.3a.08.08 0 0 0 .06-.08c0-.02-.22-.63-.26-.62-.2.04-.63-.47-.72-.02-.01.06-1.26-1.43-.72-2.16.06-.08.14-.1.22-.03.39.28.81.3 1.28.06.25-.13.76-.33.76-.33s-.14.2-.1.35c.37 1.25 1.61 1.58 2.63.87.19-.13.3-.3.35-.5.1-.47.04-.87-.2-1.2-.09-.1-.06-.17.07-.19.2-.03.45-.05.74-.04.2 0 .46.42.7.8.1.18.45.43.42.65-.07.56.52 1.07.94 1.35.2.13.37.1.52-.1l-.22.54c-.8.56-.52 1.63.31 1.92.5.17.95-.22 1.11-.67-.2-1.01.12-1.07.1-.05.1.31.26.55.47.72.16.14.22.1.18-.1l-.1-.47c.02-.03.03-.08.04-.13.06-.23.14-.59.38-.6.05 0 .09.03.1.08.34.95 1.07 1.31 2.18 1.1.33-.06.66-.06.98.02.63.15 1.27 0 1.73-.47.1-.12.18-.27.26-.43.06-.12.12-.25.2-.36l.47.82c.08.14-.15.25-.15.4 0 .28.09.3.26.07.1-.13.43-.75.54-.48.08.19.2.33.35.44.21.13.44.23.68.13.78-.31 1.02-.83.72-1.56-.05-.12-.7-.7-.4-.73.58-.06 1.12-.64 1.26-1.18.07-.34.31-.64.54-.94.15-.19.29-.37.38-.55a.45.45 0 0 1 .45-.24l.23.03c.22.02.27.13.15.32-.17.25-.23.55-.19.9.08.62.52.84 1.05 1.02.57.2 1.3-.1 1.63-.54.27-.35.42-.72.44-1.12.03-.53-.24-.93-.53-1.34h.36c.13.1.41.33.4.52v.05c-.14.37-.1 1.01.32 1.23.37.19.59.1.83.01.13-.05.27-.1.45-.11.02 0 .04 0 .06.03.8.87.32 1.65-.45 2.26-.17.14-.45.05-.7.25-.14.13-.29.25-.42.25-.08 0-.14.12-.04.15l1.3.33c.55.12 1-.18 1.3-.64.2-.3.3-.6.56-.85.29-.28.57-.56.47-1.02a3.74 3.74 0 0 0-.29-.85 7.4 7.4 0 0 0 2.49 1.17l.09.03c.21.07.4.16.58.28.16.1.45.41.54.59l.17.36c.05.1.17.13.26.06.16-.1.38.07.26.24a.17.17 0 0 1-.06.05c-.18.1-.52.47-.76.34a.63.63 0 0 0-.43-.07.13.13 0 0 1-.15-.1.42.42 0 0 1 .02-.25c.06-.16.33-.17.46-.18.05 0 .09-.03.1-.08 0-.06.02-.26-.09-.2l-.93.47c-.16.08-.09.39.09.37.19-.01.3.07.35.26.01.06.04.07.1.04.2-.13.4-.17.58-.12.69.15 1.19-.33.92-1a.31.31 0 0 1-.01-.18c.14-.62.17-1.27-.53-1.57a4.87 4.87 0 0 1-1.86-1.68.77.77 0 0 1-.15-.5c.01-.33.02-.68 0-1.06 0-.04.05-.07.09-.05.83.5 2.04.83 2.72-.1.21-.29.3-.65.29-1.08a2.68 2.68 0 0 0-1.27-2.16c-.49-.33-1.7-1.43-1.18-2.2a.11.11 0 0 1 .11-.06c.4.02.73-.07 1.02-.3-.09-.15-.1-.28-.05-.4.18-.35.41-.5.7-.49.2-.08.86-.44.3-.48a6.66 6.66 0 0 1-.98-.12l-1.27.8a5.3 5.3 0 0 0-.28 1.9c.05.78.6 1.21 1.2 1.62.48.33 1 1.03 1.08 1.65.22 1.52-.79 1.4-1.62 1.03Zm-6-1.73c-.1.01-.14-.03-.13-.12a2.82 2.82 0 0 1-.96-1.26 1.82 1.82 0 0 1-.08-.48 2.16 2.16 0 0 0-.07-.42c-.02-.07-.1-.1-.15-.06-.67.42-1.33.4-1.98-.07a3.59 3.59 0 0 0-1.26-.53.07.07 0 0 0-.03.08l1.07 1.84c.13.14.32.2.55.2.7 0 1.14.36 1.32 1.06 0 .05.03.1.06.15.83.6 1.42 1.72 1.66-.39ZM18.18 32h1.22c.18-.5.4-1.01.96-1.62.14-.16.17-.32.2-.5v-.02l.02-.06.54-1.92c.11-.42-1.26.22-1.43.36a1.75 1.75 0 0 1-2.06.1.12.12 0 0 0-.16.1 2.63 2.63 0 0 1-1.06 2.07c-.04.03-.04.06 0 .1.42.5 1.26.82 1.77 1.39Zm15.48 1.95c-.37-.27-.5-.6-.36-1 .12-.34.4-.49.7-.64l.25-.14a.14.14 0 0 0 .05-.05c.08-.14-.17-.3-.35-.4a.96.96 0 0 1-.16-.12c-.37-.41-.22-.92.1-1.36a.16.16 0 0 0 .02-.15c-.27-.9-.5-1.72-.7-2.47a3.5 3.5 0 0 1-.07-.83c0-1.1.06-2.03.53-3.04.13-.27-.26-.08-.39-.05-3.53.73-7.05.72-10.57-.03-.07-.01-.09.02-.06.08.87 1.99.4 4.16-.3 6.22-.1.27-.01.47.09.71.2.49-.07.85-.42 1.16a.3.3 0 0 0 .07.5c.53.26.77.45.67 1.1a.73.73 0 0 1-.37.53.18.18 0 0 0-.05.25c.37.54.85.93 1.43 1.18.3.65.74.6.06-.07a.99.99 0 0 1-.15-.55c0-.77.41-1.22 1.24-1.35.65-.1 1.2.55 1.1 1.19-.06.3-.28.54-.49.76-.1.09-.36-.16-.47-.18-.28-.05-.3-.01-.05.13.13.08.32.3.49.28a3.89 3.89 0 0 0 2.47-1.08.24.24 0 0 1 .3.02c.58.58 1.28.9 2.1.94l.36.11h.13c.16-.09.31-.2.45-.31.12-.1.1-.15-.06-.12-.08.01-.16.05-.24.1-.16.07-.32.15-.48 0-.3-.35-.38-.75-.26-1.18.14-.55.84-.74 1.31-.61.29.07.52.24.72.5.25.34.32.72.22 1.16-.03.09.06.17.15.14.48-.18.89-.53 1.24-1.05.04-.07.03-.13-.04-.17l-.2-.11Zm-1.94-11.38c.73-.1 1.46-.27 2.2-.51.18-.07.67.19.43.25a22.72 22.72 0 0 1-12.65.02.1.1 0 0 1-.05-.15c.05-.06.1-.1.17-.14.1-.05.22-.05.33-.02 1.19.4 2.56.65 3.83.7 2.06.08 3.88.1 5.74-.15Zm-9.69 3.5c.03-.68-1.01-2.3-.65-2.77l.47-.6a.07.07 0 0 0-.01-.1.11.11 0 0 0-.14 0c-.3.22-.53.5-.68.82-.22.48.56 1.61.64 2.11a1 1 0 0 1 .01.08l.01.1c.01.22.02.41.3.42l.05-.06Zm-4.26-.19a.2.2 0 0 1 .07-.3c.5-.25.93-.63 1.32-1.13.23-.3.59-.58 1.07-.84.04-.02.1-.02.14 0 .7.3.97 1.57.96 2.24 0 .04-.02.07-.05.1l-.5.51a.23.23 0 0 1-.15.07c-1.01.1-2.14.3-2.86-.65Zm17.44-2.23c-.11.1-.31.1-.4.23-.4.57-.55 1.35-.64 2.04-.01.09.06.18.21.26.2 0 .62-1.88.94-2.36.1-.14.03-.19-.11-.17Zm2.99 2.02c.07.08.07.17 0 .25-.7.87-1.7.82-2.7.7a.7.7 0 0 1-.6-.76c.12-.86.38-1.4.81-2.08a.16.16 0 0 1 .2-.05 8.93 8.93 0 0 1 2.29 1.94ZM27.28 38.01c.3.34.3.79.7 1.12H28c.09.06.2.05.27-.01.38-.35.44-.67.59-1.08.01-.03.1-.05.25-.05.12.27.14.53.06.8-.1.38-.42.53-.73.67-.34.16-.36.14-.7-.03-.2-.1-.4-.2-.53-.4-.2-.27-.25-.59-.16-.96.03-.1.17-.14.24-.06Z" fill="#1F1514" /><path d="M44.86 32.32c-.2-.15-.36-.2-.5-.12a.22.22 0 0 1-.13.03c-.15-.01-.3-.05-.47-.1-.57-.2-1.23.1-1.57.58-.12.18-.3.31-.53.4-.53.2-.7.8-.58 1.32.01.05.05.09.1.09s.1-.01.12-.05c.04-.04.05-.1.03-.15v-.04c.08-.1.12-.1.12.04l.06.84c0 .04.03.07.07.1h.03c.02.01.03 0 .03-.01.03-.59.11-.95.26-1.1.05-.05.08-.04.1.04.05.32.06.64.02.97-.04.26-.04 1.06.36 1.07.07 0 .12-.06.11-.13-.05-.34.1-.81.54-.63-.08 0-.14.04-.17.14-.1.25-.1.52-.04.8.07.3-.01.44-.25.58a.06.06 0 0 1-.09-.04c0-.06 0-.12.03-.18a.13.13 0 0 0-.08-.17c-.14-.05-.23-.01-.29.11-.07.2-.11.36-.26.52-.16.19-.3.4-.4.62-.07.17.17.16.25.16.06 0 .1.03.11.08.02.08 0 .15-.08.2a.6.6 0 0 0-.23.25.19.19 0 0 1-.1.1c-.19.07-.38.1-.59.07l-.63-.08c-.2-.02-.16-.28.02-.3.1-.02.22 0 .32.04.08.03.14.01.2-.06.19-.28.4-.55.6-.8.19-.22.3-.45.33-.72.1-.73-.35-.91-.56-1.47-.2-.54-.24-1.05-.32-1.6l.01-.13c.16-.43.13-.96.51-1.29.33-.27.76-.67.44-1.12a.22.22 0 0 0-.13-.08 1.46 1.46 0 0 1-1.07-.95c-.03-.07-.11-.15-.24-.22v-.1c.32-.02.6.09.8.32a.8.8 0 0 0 .54.27c.06 0 .1-.06.07-.11-.4-.74-1.03-1.22-1.67-1.75a.3.3 0 0 1-.1-.15c-.07-.28-.1-.6-.1-.95 0-.07.04-.09.1-.06.06.03.1.08.12.16.06.27.08.54.3.75.2.2.46.37.77.51.06.03.12.03.17-.01l.33-.24a.13.13 0 0 1 .2.07l.1.35.03.06c.07.08.16.06.25.03.08-.04.1-.1.08-.18l-.14-.42a.3.3 0 0 1 .18-.37c.44-.17.6.38.34.58a.16.16 0 0 0-.03.23c.2.21.29.45.25.72 0 .05.02.1.06.12.4.25.83.64 1.3 1.17.16.18.25.36.29.56 0 .04.03.08.06.11.3.3.38.53.24.72ZM15.2 33.6c0 .33-.06.7-.2 1.1l-.01-.1c0-.04-.03-.06-.08-.07h-.08c.18-.85.13-1.1-.65-1.53-.17-.09-.3-.2-.41-.34a1.77 1.77 0 0 0-.8-.57c-.55-.21-.97.27-1.48.05a.14.14 0 0 0-.14.02l-.2.14a.18.18 0 0 1-.1-.03.11.11 0 0 1-.04-.13c.06-.22.18-.41.35-.57a.17.17 0 0 0 .06-.1c.06-.5.8-1.13 1.16-1.48.04-.04.1-.07.15-.08.17-.03.32-.15.32-.34 0-.23.08-.42.23-.57a.3.3 0 0 0-.01-.42c-.1-.08-.11-.18-.05-.29.04-.08.1-.15.17-.2a.19.19 0 0 1 .13-.05c.15.01.25.22.29.35.02.05.01.1 0 .16l-.15.31c-.05.11.04.21.15.22.12.01.2-.05.24-.17l.12-.35a.08.08 0 0 1 .11-.04l.37.25c.05.03.1.04.16.02.35-.13.65-.33.92-.6.04-.04.07-.1.07-.15.01-.18.06-.34.14-.49.1-.2.16-.18.18.04.02.35.02.84-.32 1.07a5 5 0 0 0-1.56 1.62.09.09 0 0 0 0 .09c.06.11.26.03.33-.03.42-.32.62-.55 1.23-.58.08 0 .15-.03.2-.08.08-.05.14-.1.21-.12h.03c.02.01.03.03.03.05l-.02.03c-.17.12-.25.28-.24.46 0 .04-.01.08-.05.12 0 .01-.02.02-.04.01-.14-.05-.03-.29-.2-.32-.1-.02-.17.02-.21.12-.28.57-.65.92-1.1 1.04-.34.08-.38.49-.19.73.24.3.55.5.7.88.1.3.2.6.28.93Z" fill="#FACCA6" /><path d="M35.58 29.48c.06-.03.1-.03.15 0 .02.06.03.12.1.16.22.15.53.43.81.42h.26c.34-.02.7.3.83.58a5.15 5.15 0 0 1 .28.69c.01.02.04.03.06.04a.3.3 0 0 0 .2 0c.06 0 .07.05.05.12a.87.87 0 0 0-.19.25c-.03.08-.01.1.06.06.27-.13.45-.3.55-.54.1-.25-.06-.42.15-.65a.06.06 0 0 1 .1.01c.29.56-.1 1.26-.66 1.45a.08.08 0 0 0 0 .16c.12.06.25.05.38-.01a.1.1 0 0 1 .1 0c.4.23.82.26 1.26.11.39-.13.7-.47.43-.88-.07-.11-.16-.16-.27-.14-.2.04-.24.13-.1.28.12.13.12.25 0 .35-.21.19-.49.32-.77.2a.62.62 0 0 0-.49-.02h-.03a.06.06 0 0 1-.05-.08.7.7 0 0 1 .49-.46l.06.39c0 .05.06.08.1.06.14-.07.16-.17.08-.3-.04-.07-.12-.12-.24-.15 0-.44.18-.58.48-.87.43.22.8.53 1.1.9.14.16.12.3.13.47 0 .04.01.07.04.1.05.07.06.13.01.2-.18.3-.28.6-.3.9 0 .08-.03.09-.09.03-.13-.17-.3-.3-.51-.39-.1-.03-.1-.07 0-.11.23-.11.7-.3.81-.57.06-.13.03-.15-.08-.06-.28.24-.84.59-1.23.55-.17 0-.2.04-.06.15.05.05.11.07.18.06.07-.01.14 0 .2.04l.57.37a.26.26 0 0 1 .12.22c0 .2.03.4.09.57a1 1 0 0 1 .04.47l.01.15.23.73c.03.06 0 .1-.06.12-.25.07-.44.22-.72.16-.66-.12-.84-.65-.6-1.2a.2.2 0 0 0-.02-.19 1.67 1.67 0 0 0-.9-.76c0 .03-.03.02-.08-.03-.06-.06-.08-.12-.07-.17.01-.04.04-.07.09-.07a1.8 1.8 0 0 1 1.51.89c.03.04.04.08.02.13a.26.26 0 0 1-.11.14.17.17 0 0 0-.08.1c-.03.13.02.24.16.34.1.07.18.06.26-.02.09-.1.13-.18.11-.31a1.44 1.44 0 0 0-.22-.63c-.29-.4-.97-.88-1.53-.84-.17.01-.33 0-.49-.05a.28.28 0 0 0-.17 0 1 1 0 0 1-.65.02c-.1-.03-.2.14-.1.17.48.19.82.38 1.03.58.25.24.47.62.65 1.11.07.2.07.43-.02.7-.19.57-.54.96-1.07 1.16-.49.2-.8 0-1.21-.22-.6-.3-.53-1.13-.2-1.6a.14.14 0 0 0 .02-.13c-.08-.2-.26-.35-.49-.33-.28.02-.55.03-.83.03a.28.28 0 0 0-.16.04.45.45 0 0 1-.34.06.14.14 0 0 1-.1-.15l.03-.5c.01-.15-.15-.25-.28-.18-.23.12-.44.12-.63 0-.3-.18-.44-.43-.39-.73.07-.5.64-.7 1.06-.77a.52.52 0 0 0 .4-.31l.08-.19c.07-.18.02-.24-.17-.18-.42.14-.73.03-.94-.31-.26-.45 0-1 .49-1.15.11-.03.21-.08.31-.13.05-.02.1-.03.14-.01.32.09.61.22.88.37.04.03.07.07.09.12.08.23.17.46.14.72-.04.32-.09.61-.17.87-.04.17 0 .2.14.1.22-.13.4-.34.59-.6.12-.19.15-.41.1-.68-.04-.3-.2-.54-.46-.73-.03-.01-.06.08-.03.1.3.27.4.6.34 1.02a.56.56 0 0 1-.3.41c-.1.05-.14.02-.13-.08 0-.13.02-.26.04-.39.06-.28-.07-.62-.15-.89a.26.26 0 0 1 0-.15c0-.02.01-.03.03-.04.04-.04.06-.08.03-.13l-.3-.62ZM46.93 32.96l-.23-.02c-.07 0-.08-.03-.03-.08l.05-.04c.42-.05.68-.3.8-.72.2-.82-.21-1.5-.74-2.09-.05-.06.1-.12.16-.08.62.52.88 1.2.78 2.07-.06.48-.32.8-.79.96Z" fill="#FACCA6" /><path d="M9.04 32.5c.5.11.98.02 1.43-.29 0 .13.13.11.38-.06.05.05.07.1.06.16-.7.73-1.82 1.04-2.52.14-.1-.13-.14-.34-.15-.63 0-.44.02-.74.09-.9.1-.28.26-.5.48-.65.07-.05.09-.04.05.04-.14.26-.26.52-.39.79a1.6 1.6 0 0 0-.1.74c0 .16.05.3.15.41l.29.37c.08.1.18.14.3.1.05-.01.06-.04.03-.09l-.1-.13Z" fill="#E3D1A7" /><path d="M39.63 30.6c0 .08.04.12.13.11-.3.29-.48.43-.48.87a.7.7 0 0 0-.49.46.06.06 0 0 0 .02.07.06.06 0 0 0 .06.01.62.62 0 0 1 .49.02c.28.12.56-.01.78-.2.1-.1.1-.22 0-.35-.15-.15-.11-.24.09-.28.1-.02.2.03.27.14.27.41-.04.75-.43.88-.44.15-.86.12-1.25-.1a.1.1 0 0 0-.11-.01.43.43 0 0 1-.39.01.08.08 0 0 1 0-.16c.58-.19.96-.89.66-1.45a.06.06 0 0 0-.1-.01c-.2.23-.04.4-.14.65-.1.23-.28.41-.55.54-.07.03-.1.01-.06-.06.04-.09.1-.17.2-.25.1-.07.1-.2-.02-.38.24-.2.38-.4.43-.63.05-.25.14-.27.28-.05.09.14.16.29.21.44.02.05.05.07.1.04a.64.64 0 0 0 .3-.32Z" fill="#1F1514" /><path d="M39.28 31.58c.12.03.2.08.24.15.08.13.06.23-.08.3a.07.07 0 0 1-.09-.03.07.07 0 0 1-.01-.03l-.06-.39Z" fill="#1F1514" /><path d="M46.2 32.95c-.41-.1-.77-.3-1.05-.58 0-.05 0-.09.02-.1.02-.02.05-.03.07-.01.16.08.3.18.44.3l.11.05c.24.04.45.11.65.23.06.03.06.06 0 .1a.36.36 0 0 1-.23.01Z" fill="#FACCA6" /><path d="m20.58 29.8-.2-.03c-.1.24-.21.46-.37.65-.18.25-.3.44-.32.57-.08.44.1.75.54.92a.25.25 0 0 1 .17.21v.02c0 .07.01.17-.09.17-.01 0-.03 0-.04-.02a2.34 2.34 0 0 1-.6-.61c-.3-.43-.15-.98.2-1.33.11-.1.2-.23.26-.38.1-.2.05-.25-.14-.13-.23.14-.47.21-.71.22-.55.02-1 .37-1.05.95-.02.29-.17.41-.44.37-.08 0-.1.02-.06.09l.1.19c.05.08.03.1-.06.07-.35-.14-.48-.4-.48-.76 0-.14-.1-.24-.3-.29-.06.09-.16.13-.3.13.08.03.15.07.2.12.04.03.06.07.06.12.04.49.29.83.75 1.01.03.01.05.03.06.05.02.02.02.05.02.08-.02.05-.05.08-.11.07l-.34-.03c-.05 0-.1 0-.13.03-.38.2-.83.21-1.32.02-.42-.17-.62-.62-.2-.93.1-.07.2-.07.29-.02.05.02.06.06.04.12l-.15.28c-.02.05-.02.1.02.14.25.27.51.36.8.27.14-.05.3-.07.47-.05.06 0 .08-.02.06-.08a1.25 1.25 0 0 0-.35-.5c-.04-.03-.06-.02-.06.02l-.09.44-.01.03a.07.07 0 0 1-.1 0 .23.23 0 0 1-.04-.25l.16-.44a.28.28 0 0 0-.1-.32l-.36-.25a.1.1 0 0 0-.12 0c-.39.2-.73.5-1.03.86-.1.14-.1.31.02.44.43.45.87.69 1.32.7h.04c.05.03.05.08.04.13 0 .04-.02.06-.06.06h-.3a.16.16 0 0 0-.12.04c-.17.16-.36.3-.58.4a.23.23 0 0 0-.1.1l-.05.08.01.12c.02.11.04.21 0 .33-.08.2-.12.4-.14.62-.01.17-.06.32-.12.48l-.1.3c0 .06 0 .1.05.14.54.42 1.28.29 1.52-.35a.2.2 0 0 0 0-.13v-.05c-.08-.27-.16-.53.01-.8.2-.3.47-.5.83-.61a.57.57 0 0 1 .23-.07c.1-.01.21-.02.3-.13.05-.04.04-.07-.02-.09a.52.52 0 0 0-.36.04.28.28 0 0 1-.16.03c-.59-.07-1.07.34-1.44.76a.2.2 0 0 0-.05.16c0 .1.05.17.13.23.05.04.07.08.07.14 0 .15-.07.25-.2.3a.24.24 0 0 1-.32-.14.64.64 0 0 1 0-.44 2 2 0 0 1 1.16-1.14c.22-.1.42-.1.64-.1.12 0 .25 0 .38-.03.14-.02.27 0 .4.01.14.03.3.05.46 0a.1.1 0 0 1 .11.05c.03.04.02.07-.02.09-.18.1-.37.19-.56.27-.52.2-.94.92-1.08 1.39-.1.32-.25.2-.26.2l.23.28.02.05c.05.62.36 1.06.93 1.31.5.22 1 .13 1.49-.27.43-.37.33-1.1.03-1.5a.14.14 0 0 1-.01-.15c.14-.3.55-.29.88-.28h.29c.32-.02.48.11.5.4a.5.5 0 0 1 .17-.1c-.04-.06-.03-.13.03-.23a.2.2 0 0 0 .03-.13l-.04-.42c.05 0 .08.03.08.09 0 .04.02.09.05.13.16.26.35.5.55.75.03.03.06.02.1-.04a2.4 2.4 0 0 0-.73-1.07c.07-.11.21-.14.32-.08.26.13.5.08.72-.12.38-.37.3-.89-.14-1.15a1.47 1.47 0 0 0-.7-.23.2.2 0 0 1-.1-.04.98.98 0 0 1-.36-.55c-.03-.09.07-.17.16-.13.37.17.68.09.92-.26.3-.42.1-.93-.35-1.16a.95.95 0 0 0-.68-.1c-.21.06-.41.14-.6.25-.36.21-.47.65-.31 1.3.01.06-.1.07-.14.04a.07.07 0 0 1-.02-.04c-.14-.54-.06-.97.25-1.3.14-.16.17-.32.2-.5l.02-.08ZM34.35 35.7l.12.17c.03.05.04.09.03.14-.1.4-.25.7-.44.9-.25.25-.38.27-.4.06.37-.3.6-.65.69-1.07.01-.07 0-.12-.06-.15.03-.04.05-.06.06-.04Z" fill="#E3D1A7" /><path d="M28.25 38.33c-.04.06-.04.11 0 .16l.05.08c.03.11 0 .22-.09.3-.04.04-.09.05-.14.02-.14-.08-.16-.2-.04-.37a3.52 3.52 0 0 1-.02-1.9.1.1 0 0 1 .03-.05.14.14 0 0 1 .11-.03c.06 0 .09.03.1.09a5.5 5.5 0 0 1 0 1.7ZM24.1 38.19c-.26.12-.4.33-.45.64-.24.03-.38.19-.44.48-.13.02-.2-.02-.23-.12-.23-.78.02-1.16.75-1.14.18-.1.37-.12.57-.05.09.03.09.06 0 .1l-.2.09Z" fill="#FACCA6" /><path d="m24.42 39.2-.1.04a.83.83 0 0 0-.32-.51.12.12 0 0 1-.05-.12c.01-.14.13-.24.34-.3a.19.19 0 0 1 .07-.06c.05-.02.07 0 .07.05l-.01.9ZM43.74 21.22c.03-.06-.04-.09-.2-.07a.81.81 0 0 0-.45-.57c-.04-.02-.08 0-.1.07a.37.37 0 0 1-.2-.04c.26-.05.24-.13-.04-.25a.14.14 0 0 0-.14.02l-.42.3c-.12.1-.17.06-.15-.09.06-.45.73-.45 1-.27.25.16.46.34.64.56.1.12.22.22.34.3.27.16.47.38.62.64v.06c0 .02 0 .04-.02.05l-.04.02c-.03.03-.06.02-.08-.02a1.2 1.2 0 0 0-.76-.71ZM12.47 21.18c.14.16.12.34-.05.54a.05.05 0 0 1-.05.01l-.04-.01c-.06-.02-.07-.05-.03-.1a.5.5 0 0 0 .1-.38.11.11 0 0 0-.08-.1.11.11 0 0 0-.12.04c-.08.1-.19.17-.31.22-.25.11-.26.33-.38.54h-.02l-.08.04c-.03 0-.04 0-.05-.03-.01-.16.04-.3.18-.43l.55-.48.67-.61a.73.73 0 0 1 .43-.2c.35-.04.77-.05.83.41.01.08-.02.1-.09.07a.15.15 0 0 0-.05 0 .16.16 0 0 1-.12-.07c-.23-.25-.5-.35-.8-.13-.21.15-.38.33-.5.55-.03.04-.02.08 0 .12Z" fill="#FACCA6" /><path d="M42.8 20.6c.04.04.1.05.19.05.03.12.1.23.19.33.03.04.04.08.03.13-.03.16-.08.3-.05.46a.6.6 0 0 1-.05.39.22.22 0 0 1-.14.11.76.76 0 0 0-.41.26.13.13 0 0 0-.03.09c0 .1.07.14.18.15-.02.07.01.1.09.1l-.15.33a.11.11 0 0 1-.16.05.22.22 0 0 1-.1-.15c-.02-.06 0-.08.06-.07h.11a.08.08 0 0 0 .05-.12.07.07 0 0 0-.06-.04c-.03 0-.05-.02-.05-.05-.06-.55.14-.6.48-.92a.12.12 0 0 0-.02-.19l-.2-.12a.1.1 0 0 1 .04-.18c.13-.02.21-.1.23-.23.01-.05 0-.09-.06-.1-.34-.06-.34.16-.56.29-.04.02-.08.02-.11-.02a.07.07 0 0 1-.02-.05c0-.03 0-.06.03-.08.14-.17.3-.31.49-.41Z" fill="#E3D1A7" /><path d="M13.03 21.51a.2.2 0 0 0 .04.28l.34.25c.04.04.07.08.09.14v.05c-.01.1-.05.1-.1.02a.49.49 0 0 0-.36-.24.2.2 0 0 1-.17-.18l-.06-.88c0-.03 0-.06.04-.08l.03-.02h.03v.01l.01.01c.03.16.12.28.26.37a.09.09 0 0 1 .03.12c0 .02-.02.03-.03.03a.4.4 0 0 0-.15.12ZM14.5 21.63c-.04.1-.1.17-.2.2a.13.13 0 0 1-.15-.03.19.19 0 0 1-.04-.13c0-.05.01-.1.05-.15a.9.9 0 0 0 .22-.45.13.13 0 0 1 .09-.1.8.8 0 0 1 .48-.03c.17.05.18.12.03.21a.21.21 0 0 0-.1.13c-.02.07 0 .11.06.14.15.09.19.21.11.38a.14.14 0 0 0 .06.17l.48.29a.09.09 0 0 1 .04.06v.04l-.02.03-.25.24a.13.13 0 0 1-.19-.01.13.13 0 0 1-.03-.07 1.86 1.86 0 0 0-.53-.94c-.05-.05-.09-.05-.11.02ZM40.97 21.98c.01-.06-.02-.17-.1-.32a.11.11 0 0 1 .13-.16c.04.01.09 0 .12-.05.03-.04.03-.08 0-.12l-.2-.23c-.05-.06-.03-.1.04-.12.17-.06.34-.08.5-.07a.1.1 0 0 1 .1.08c.06.22.16.43.29.6l.03.08c.02.1 0 .17-.06.22a.13.13 0 0 1-.09.02.12.12 0 0 1-.07-.04l-.23-.24a.08.08 0 0 0-.03-.02.08.08 0 0 0-.1.05c-.06.18-.16.29-.33.32ZM15.67 21.96a1.6 1.6 0 0 1-.44-.7c-.02-.06 0-.1.08-.1.05-.01.1 0 .13.04.1.1.2.17.31.22a.17.17 0 0 0 .16-.01.44.44 0 0 1 .28-.07.1.1 0 0 1 .1.06c.2.41.1.7-.32.89a.17.17 0 0 1-.24-.16v-.05a.17.17 0 0 0-.06-.12Z" fill="#FACCA6" /><path d="M43.54 21.15c.16-.02.23 0 .2.07a.08.08 0 0 0-.08-.04.1.1 0 0 0-.08.1c0 .12.03.23.1.34.03.04.02.07-.02.1l-.03.01c-.04.03-.07.02-.1-.02-.13-.2-.13-.39.01-.56Z" fill="#E3D1A7" /><path d="M40.4 22.24c-.04-.03-.07 0-.09.07h-.27a.2.2 0 0 1-.13-.03c-.3-.24-.37-.52-.2-.85a.18.18 0 0 1 .21-.08l.32.08a.14.14 0 0 0 .14-.04.6.6 0 0 1 .23-.17c.07-.02.11 0 .14.07l.02.05c.03.06 0 .1-.05.13-.1.05-.16.12-.17.23-.02.12-.08.19-.2.21a.12.12 0 0 0-.1.1c-.02.1.03.18.15.23ZM20.68 22.3c.18-.21.39-.36.62-.44.2-.07.24-.02.12.15a4.3 4.3 0 0 1-.26.34c-.03.03-.03.07 0 .1.03.04.09.05.18.04.1 0 .12.02.03.09-.34.24-.53.53-.58.89a.09.09 0 0 1-.06.07.09.09 0 0 1-.09-.02l-.27-.22a.17.17 0 0 0-.19-.02c-.3.14-.56.3-.8.48-.22.18-.5.27-.84.27a.26.26 0 0 0-.16.06l-.38.3a.33.33 0 0 1-.22.06c-.1 0-.19-.03-.27-.08-.07-.05-.07-.1 0-.13.31-.15.6-.34.86-.58.05-.04.1-.06.16-.07.05-.01.07-.04.08-.09.01-.17.11-.3.29-.38.48-.22.93-.47 1.34-.74a.4.4 0 0 1 .33-.05.1.1 0 0 0 .1-.04ZM35.37 23.63l-.16.02c-.04-.05-.1-.07-.18-.06a.2.2 0 0 1-.16-.06 3.85 3.85 0 0 1-.62-.83c-.03-.05-.01-.08.04-.09.06 0 .13 0 .2.03l.18-.11c.23-.01.26-.1.1-.25-.1-.08-.17-.17-.23-.27-.08-.13-.04-.17.1-.14.22.06.41.19.58.39a.16.16 0 0 0 .14.05c.32-.02.57.17.83.35.34.24.73.36 1.08.6.12.08.04.25.16.32a5 5 0 0 1 .74.54c.08.07.17.1.27.12.04 0 .07.05.06.09l-.02.03c-.26.26-.52.02-.73-.14-.34-.25-.78-.15-1.13-.42a9.72 9.72 0 0 0-.76-.5.19.19 0 0 0-.25.05c-.09.13-.2.2-.32.18-.09 0-.1.01-.02.06l.1.04ZM12 22.77c.08.08.13.18.16.29v.03l-.02.03c-.1.04-.15.02-.16-.06a.91.91 0 0 0-.1-.33.1.1 0 0 1 .01-.12c.11-.14.15-.29.13-.45-.02-.13.03-.18.16-.15l.18.04c.15.04.2.13.16.27-.06.24-.2.34-.44.31a.08.08 0 0 0-.08.04.08.08 0 0 0 0 .1Z" fill="#FACCA6" /><path d="M40.97 21.98c0 .07-.1 1.08-.42.64l-.24-.31c.02-.07.05-.1.09-.07l.57-.26ZM42.8 22.67c-.08 0-.1-.03-.09-.1l.35-.38c.06-.08.11-.07.14.03l.03.15c.03.1 0 .16-.1.19l-.33.1ZM39.27 24.53l.05-.17a.12.12 0 0 1 .1-.09c.16-.02.3-.09.41-.19a.4.4 0 0 1 .2-.08c.19-.03.27 0 .26.11a.1.1 0 0 1-.06.1c-.6.26-.95.71-1.5 1.02-.1.05-.19.03-.27-.05a.09.09 0 0 1 .03-.14l.25-.07c.13-.04.5-.3.53-.44ZM16.74 24.53c.24.22.48.39.72.5.04.02.06.05.06.1-.01.05-.04.08-.1.09-.26.02-.5-.14-.65-.34-.22-.3-.57-.53-1.05-.67-.2-.06-.2-.12 0-.2.36-.12.57.19.89.23.05 0 .08.03.06.09a.2.2 0 0 0 .07.2ZM12 25.76a.04.04 0 0 1-.04 0l-.32-.49c-.04-.06-.52-.74-.43-.8l.09-.06c.08-.06.53.65.57.7l.32.49-.01.05-.17.11Z" fill="#FACCA6" /><path d="M19.07 26.75h.96c.48-.07 1.21.29 1.31-.51.02-.1.13-.16.22-.1.1.06.14.32.3.23.12-.07.16-.15.11-.24l.06-.06c.28.2.17.32.33.23.06-.03.19-.03.17.08l-.07.4c0 .06-.04.1-.1.1h-.16c-.1.01-.11.05-.04.12.05.04.11.07.18.07.12 0 .16.05.12.17-.04.12-.1.21-.24.24-.32.07-.51.05-.56-.05-.02-.04-.14-.33-.15-.3a.6.6 0 0 1-.37.39.26.26 0 0 1-.16.01 1.88 1.88 0 0 0-1.1.1c-.3.12-.56.1-.87.04a.2.2 0 0 1-.15-.1.1.1 0 0 1 .08-.15c.38 0 .73-.03 1.06-.05.2 0 .34-.13.5-.22.1-.05.1-.08-.02-.08a.87.87 0 0 0-.37.09.29.29 0 0 1-.16.02c-.25-.03-.5-.04-.76-.02-.45.03-.9-.08-1.36-.11-.5-.03-.42-.56-.78-.8-.04-.03-.05-.06-.02-.1.06-.1.08-.2.08-.32a.18.18 0 0 0-.1-.15c-.1-.07-.31-.02-.4-.13-.17-.23-.2-.44-.51-.56-.1-.03-.17-.14-.2-.33a.23.23 0 0 1-.05-.14c0-.03.03-.06.07-.06h.03c.3.19.5.44.65.78.02.04.05.07.09.1.21.1.35 0 .54.22.25.28.47.6.77.82.36.26.7.25 1.07.37ZM43.8 25.68c-.02-.02-.01-.06 0-.08l.62-.87c.17-.22.28-.34.3-.33l.1.07c.02.01-.06.16-.2.4l-.59.89c-.01.02-.02.04-.05.03h-.02l-.16-.11ZM12.68 26.44a3.3 3.3 0 0 1-.28-.53c-.08-.18-.05-.2.09-.06l.24.24c.04.05.06.1.06.15 0 .03 0 .06-.02.08a.16.16 0 0 0 .03.16c.15.2.31.32.5.4a.28.28 0 0 1 .15.15l.1.27c.05.1.03.12-.07.06a4.32 4.32 0 0 1-.66-.56.33.33 0 0 1-.1-.22c0-.05 0-.1-.04-.14ZM43.21 26.38c0-.2.09-.37.28-.48.13-.08.16-.06.07.08-.12.19-.2.4-.23.62a.26.26 0 0 1-.09.16l-.65.57c-.13.11-.17.09-.12-.08l.1-.25a.19.19 0 0 1 .1-.1 1 1 0 0 0 .5-.39.22.22 0 0 0 .04-.13ZM16.74 27.56c.03-.1.1-.12.17-.05l.33.27a.15.15 0 0 0 .12.03c.16-.03.32-.03.49 0 .17.04.3-.02.47-.03.05 0 .1 0 .14.03.25.17.53.04.82.17.1.04.1.2-.01.23-.4.13-1.15.28-1.44-.15a.3.3 0 0 0-.47-.03l-.33.35c-.05.06-.08.05-.09-.03 0-.07.01-.13.03-.2.07-.2 0-.27-.2-.2-.11.04-.15 0-.11-.1l.08-.29ZM38.98 28.02l.04.2c.05.23 0 .25-.16.1l-.29-.31a.14.14 0 0 0-.12-.04c-.29.05-.43.4-.72.4-.28-.01-.84 0-1.04-.2-.08-.08-.03-.22.08-.23l.53-.02c.05 0 .1-.02.14-.05.15-.1.3-.12.48-.03.05.02.1.03.15.02l.21-.06h.13c.24.07.46-.02.67-.26a.12.12 0 0 1 .06-.04c.07-.02.14.03.15.1a3 3 0 0 0 .06.39c.02.08 0 .1-.05.02-.08-.11-.17-.15-.26-.1-.05.02-.07.06-.06.1Z" fill="#FACCA6" /><path d="m25.25 25.34.21-.41.04-.05c.1-.07.21.02.25.12.02.05 0 .1-.03.13-.1.09-.1.18-.04.29.05.06.1.1.19.13a3.5 3.5 0 0 1 .53.19.1.1 0 0 1 0 .1.1.1 0 0 1-.04.04l-.4.15a.33.33 0 0 0-.14.1c-.25.32-.53.61-.84.88-.23.21-.51.65-.53.99-.05.9.15 1.75.6 2.53.12.18.28.32.48.41.35.16.57.42.93.53.42.13.38.74.36 1.06 0 .07-.03.1-.09.13-.32.1-1.53-.36-1.85-.73-.63-.72-1.56-1.32-1.48-2.44 0-.05 0-.1-.03-.15-.13-.24-.21-.48-.1-.74.36-.92.39-1.54.86-2.48a.27.27 0 0 1 .1-.1c.32-.22.66-.42.96-.62a.17.17 0 0 0 .06-.06ZM30.92 25.34l-.21-.41a.13.13 0 0 0-.04-.05c-.1-.07-.22.02-.25.12-.02.05 0 .1.03.13.1.09.1.18.03.29a.29.29 0 0 1-.18.13 3.5 3.5 0 0 0-.49.15c-.08.03-.08.15 0 .18l.4.15c.06.02.1.06.14.1.25.32.53.61.84.88.23.21.51.65.53.99.05.9-.15 1.75-.6 2.53-.12.18-.28.32-.48.41-.35.16-.57.42-.94.53-.4.13-.37.74-.36 1.06 0 .07.04.1.1.13.32.1 1.53-.36 1.85-.73.63-.72 1.55-1.32 1.48-2.44 0-.05 0-.1.03-.15.13-.24.21-.48.1-.74-.36-.92-.39-1.54-.86-2.48a.27.27 0 0 0-.1-.1c-.32-.22-.66-.42-.96-.62a.17.17 0 0 1-.06-.06Z" fill="#E3D1A7" /><path d="M30.08 29.63c-.01-.01 0 0 0 0-.05.18-.14.37-.25.42-.23.11-.63.24-1.18.39-.05 0-.1 0-.13-.03l-.2-.15a.14.14 0 0 0-.16-.01l-.2.1a.18.18 0 0 1-.15.01l-1.1-.39a.17.17 0 0 0-.13 0 .84.84 0 0 1-.32.08.15.15 0 0 1-.12-.06.7.7 0 0 0-.65-.25.2.2 0 0 1-.21-.2v-1.1c0-.07.06-.14.13-.15.25-.04.5-.05.76-.05.4.02.71-.18 1-.42.72-.59 1.78-.57 2.57-.08.27.17.6.23 1.02.18.09 0 .16.06.16.15v1.33a.16.16 0 0 1-.14.15l-.7.08Z" fill="#1F1514" /><path d="M30.08 29.63c.01.02.01.04 0 .07-.03-.05-.07-.07-.15-.06-.05 0-.1-.01-.15-.04-.17-.12-.27-.29-.48-.38-.08-.03-.11 0-.11.08v.06c0 .04.02.07.05.1l.41.27a.1.1 0 0 1 .03.03c.05.08-.05.2-.14.2a.1.1 0 0 1-.07-.04l-.28-.3a.24.24 0 0 0-.28-.07c-.1.04-.1.1-.02.17l.3.24.02.03c.01.07-.07.14-.14.12a.08.08 0 0 1-.03-.02l-.18-.22a.11.11 0 0 0-.13-.03.14.14 0 0 0-.09.06.12.12 0 0 0 0 .15c.03.03.05.07.06.11 0 .05-.04.09-.08.08-.1-.02-.17-.07-.2-.17-.17-.56-.56-.87-1.18-.93-.16-.02-.3.05-.43.13a.13.13 0 0 1-.15-.01c-.08-.06-.17-.06-.26 0-.2.14-.34.36-.62.33a.44.44 0 0 1-.25-.1.2.2 0 0 1-.07-.15v-.69l.02-.06c.03-.07.1-.1.16-.1.3 0 .58-.02.87-.08a.1.1 0 0 1 .1.04c.41.49.79.11 1.17-.13a.19.19 0 0 1 .18-.02c.2.09.41.16.64.2.52.12 1.1.76 1.48 1.13ZM46.48 36.83l.1.16c.06.07.09.16.09.25 0 .03 0 .07-.02.1a.06.06 0 0 1-.1.01c-.29-.4-.68-.5-1.07-.77-.35-.23-.74-.47-1.18-.72a.57.57 0 0 1-.26-.31c-.03-.09 0-.11.08-.08.3.13.5.34.85.34.1 0 .13-.07.11-.2 0-.04-.03-.08-.06-.12l-.77-.76a.08.08 0 0 1 0-.1l.02-.03c.06-.06.12-.06.2-.01.33.25.65.54.96.85.15.17.32.31.5.44.27.18.57.5.87.6.14.06.23.15.26.28.03.15-.02.19-.15.11l-.3-.17c-.09-.05-.18.05-.13.13Z" fill="#FACCA6" /><path d="m43.4 31 .64.2c.1.02.14.16.07.23l-.28.3a.15.15 0 0 1-.17.02l-.77-.38c-.12-.06-.1-.24.03-.27l.42-.1h.07Z" fill="#271C13" /><path d="m13.16 31.32-.86.42a.11.11 0 0 1-.13-.02l-.31-.32a.11.11 0 0 1 .04-.18l.69-.25a.1.1 0 0 1 .07 0l.49.14c.09.03.1.16.01.2ZM35.74 32.94h-.01l-.03-.05c-.01-.02 0-.04.01-.05.3-.2.59-.46.87-.78.44-.51.47-1.01.08-1.51-.03-.05-.02-.08.03-.1.04 0 .07 0 .1.03.33.34.5.77.26 1.25-.27.56-.7.96-1.3 1.21ZM34.7 30.94l-.15.24c-.07.1-.15.11-.24.04l-.1-.08a.23.23 0 0 1-.07-.29.53.53 0 0 1 .4-.3c.6-.12.98.36.88.94-.06.39-.22.73-.46 1.01-.05.06-.08.05-.07-.03 0-.08.03-.15.08-.21a.4.4 0 0 0 .09-.18c.07-.35.24-1.06-.2-1.19-.07-.02-.12 0-.15.05ZM37.72 32.54l.94.03c.1 0 .2.03.27.1.05.04.05.06-.02.07-.53.08-1.04.1-1.52.05a.2.2 0 0 0-.14.04c-.38.27-.77.46-1.2.58-.1.03-.1.01-.01-.05l.83-.57c.24-.16.52-.45.84-.87a.14.14 0 0 1 .12-.05h.05v.02l-.25.5c-.05.1-.02.14.09.15Z" fill="#1F1514" /><path d="M34.73 33.4c-.1-.06-.17-.04-.23.05-.16.27-.5.36-.72.12-.19-.21-.16-.6.12-.72.6-.27 1.1.1 1.07.74 0 .07-.02.07-.05.02a.63.63 0 0 0-.2-.2Z" fill="#271C13" /><path d="M37.85 33.85c.51.2.7.62.9 1.09.1.18.11.36.07.54-.13.56-.49.9-1.08 1.04-.18.04-.4-.05-.58-.13-.3-.14-.42-.38-.33-.73.04-.19.07-.19.09 0 .03.33.25.47.53.6.11.05.22.06.34.03.6-.2 1.03-.79.77-1.4-.14-.32-.42-.84-.75-.95-.03-.04-.01-.07.04-.09Z" fill="#1F1514" /><path d="M37.92 36.01c-.24.13-.48.06-.72-.2a.14.14 0 0 1-.03-.05c0-.04 0-.27.09-.17.27.32.8.38.86-.14.13-1.01-1.25-1.48-2.06-1.32a1.6 1.6 0 0 1-.52.02c-.2-.02-.2-.05 0-.07.25-.02.5-.07.74-.13a2 2 0 0 1 1.16.1c.54.2.85.58.92 1.15.05.37-.1.65-.44.81ZM19.45 30.56c-.9.75.28 1.87.92 2.28.04.02.02.06 0 .09h-.01c-.57-.22-1-.58-1.3-1.08-.26-.43-.22-1.18.33-1.38l.06.01c.03.03.03.05 0 .08ZM21.4 31a.26.26 0 0 0-.44.12c-.1.44-.03.88.2 1.3.03.05-.06.09-.1.07l-.01-.02c-.34-.44-.57-1.17-.26-1.67.36-.59 1.46-.1 1.05.38a.21.21 0 0 1-.36-.06.36.36 0 0 0-.07-.12ZM18.31 32.53c.12-.02.15-.08.09-.18a.9.9 0 0 1-.12-.44c0-.1.02-.1.07-.02.32.54.84.99 1.55 1.33.28.14.27.18-.04.12-.35-.07-.7-.24-1.05-.5a.24.24 0 0 0-.14-.05c-.25 0-.48.07-.72.04a28.5 28.5 0 0 0-.81-.1c-.08 0-.04-.16.03-.16.4.01.79 0 1.14-.04ZM21.3 33.42a.6.6 0 0 0-.13.35c0 .07-.02.07-.04 0a.89.89 0 0 1 .13-.77c.31-.44 1.37-.21 1.1.41-.13.33-.6.4-.78.04a.16.16 0 0 0-.27-.03ZM18.72 33.7c-.05.07-.12.12-.23.12-.05 0-.1.02-.13.05-.6.36-1.23 1.26-.71 1.95.35.46.75.56 1.2.31.2-.1.28-.28.24-.53a.03.03 0 0 1 .02-.02h.03c.2.23.2.45 0 .65-.3.3-.82.34-1.2.17a1.18 1.18 0 0 1-.65-.77c-.1-.31-.06-.62.1-.92.23-.41.7-.97 1.19-1.04a.6.6 0 0 0 .31-.13.08.08 0 0 1 .07-.01.04.04 0 0 1 0 .07l-.13.01a.14.14 0 0 0-.11.08Z" fill="#1F1514" /><path d="M18.81 35.78c-.12.35-.53.3-.82.19-.45-.2-.36-.99-.16-1.26.47-.65 1.1-.9 1.92-.76l.89.15c.1.02.1.03 0 .05-.35.06-.66-.05-1-.04-.74.03-1.7.42-1.74 1.18-.02.26.1.44.37.54.15.05.29-.08.4-.16.16-.1.2-.06.14.11Z" fill="#1F1514" /><path d="M9.47 36.7c-.17.03-.33.1-.49.2-.1.06-.11-.11-.1-.17a.3.3 0 0 1 .15-.18 6.66 6.66 0 0 0 1.54-1.15 4.87 4.87 0 0 1 1.05-.85c.06 0 .17.08.14.15l-.02.03-.8.78c-.11.1 0 .27.12.27.15 0 .28-.04.38-.1.15-.1.29-.17.42-.23.2-.1-.1.35-.2.4L9.92 36.9c-.22.12-.4.32-.53.6-.03.06-.05.06-.06-.01a.85.85 0 0 1 .2-.7c.02-.04 0-.1-.05-.09ZM33.2 36.22c.1.32-.51.53-.72.6l-.05.02c-.17.06-.83.28-.93 0a9.47 9.47 0 0 1 1.7-.62ZM33.23 39.27c-.05.06-.09.08-.13.07a.12.12 0 0 1-.1-.08c-.1-.41-.6-.92-.95-1.12-.07-.05-.06-.15.02-.18.23-.07.37.17.65.1.05-.01.1 0 .13.02.22.14.4.24.42.54.02.23 0 .45-.04.65ZM24.57 36.86c-.1.26-.71.05-.88-.01-.16-.07-.73-.31-.63-.57.01-.03 1.54.47 1.51.58ZM28.16 28.13c-.28-.17-.57-.08-.88.27a.2.2 0 0 1-.27.03l-.06-.04a.08.08 0 0 1-.01-.12c.91-.79 1.79-.9 2.63-.34.28.19.64.24.95.2.17-.02.24.06.22.23-.04.24-.04.5 0 .76.01.15-.05.23-.2.23-.27 0-.48-.05-.66-.23a8.59 8.59 0 0 0-.72-.66c-.28-.23-.66-.14-1-.33Z" fill="#FACCA6" /><path d="M31.53 36.34c-1.1.62-2.33.09-3.02-.87-.05-.06.03-.13.08-.09.38.28.73.5 1.2.65.8.27 1.6.07 2.11-.63.34-.46.15-1.25-.56-1.16-.07 0-.14.04-.2.06-.07.03-.14.06-.21.07-.06 0-.1-.02-.09-.08.01-.1.05-.16.13-.22.36-.25.75-.23 1.17.08.05.04.07.03.04-.04a.3.3 0 0 0-.13-.14c-.63-.35-1.66-.24-1.38.77.04.16.13.2.28.12.1-.07.21-.06.3-.06l.17-.01c.06-.03.06-.07.02-.12-.08-.09-.15-.33.06-.25.38.13.52.5.25.81-.29.37-.65.55-1.09.56-1.15.04-1.68-.55-2.47-1.07a.27.27 0 0 0-.2 0c-.84.59-1.77 1.55-3.09.87-.18-.09-.34-.25-.49-.47-.19-.3 0-.6.28-.7a.15.15 0 0 1 .1 0c.03 0 .05.03.06.06.06.29.2.27.48.42.06.02.11.01.15-.04.2-.33.17-.77-.2-.99-.41-.24-.82-.19-1.22.16-.06.05.08.09.05.06l.05-.02c.4-.18.78-.35 1.11.09.15.2.11.25-.12.16-.24-.08-.56-.17-.76.03-.2.2-.35.49-.22.77.36.77.96 1.11 1.8 1.01a3.02 3.02 0 0 0 1.66-.79c.05-.04.12.07.09.12-.7.93-1.85 1.47-2.94.92-.16-.08-.33-.12-.5-.15a1.99 1.99 0 0 1-.5-.17c-.17-.1-.32-.15-.44-.17 0 .11.08.2.23.27.26.12.52.2.76.23.22.03.48.13.62.31.13.15.1.25-.1.3-.88.24-1.57.02-2.08-.65-.04-.06 0-.1.05-.11a.33.33 0 0 0 .16-.1l.27-.33c-.1-.6-.43-.84-1.01-.72-.16.02-.2.2-.28.32a.9.9 0 0 0-.19.43c-.08.71.35 1.05.83 1.43l.12.1c.08.06.16-.12.09-.19-.2-.16-.4-.34-.58-.54-.34-.36-.5-.94.06-1.19.15-.07.26-.02.33.13.02.03.02.07.01.11a.39.39 0 0 1-.25.3c-.17.06-.2.17-.1.33.27.47.67.75 1.2.87.82.17 1.53.09 2.13-.25.16-.1.18-.07.06.07l-.82.94c-.24.34-.37 1.07-.12 1.42.06.1.1.09.1-.03l.04-1.01a9.8 9.8 0 0 1 2.22-1.79c.05-.03.2-.05.16.05 0 .01 0 .02-.02.03-.66.54-1.37 1.85-.52 2.53.05.04 0 .12-.05.1-.6-.38-.57-.65-.78-1.2-.09.01-.15.04-.18.09-.04.05-.04.1-.02.15.16.44.38 1.05.86 1.18.21.06.44.11.68.15.32.05.35-.02.1-.22-.65-.5-.7-1.1-.17-1.82.1-.15.35-.18.38-.36.16-.41.37-1.35.37-1.83 0-.16.2-.25.33-.18.25.14.24.8.26 1.04.01.14.05.4.13.77.08.45.03.9-.16 1.35.01.04.04.15.08.06l.23-.56c.03-.16.03-.26.03-.3-.03-.3.05-.33.23-.09.53.69.54 1.52-.22 2-.06.03-.04.15.03.16.11.02.75-.07.84-.13.27-.18.47-.38.6-.6.13-.23.2-.52.23-.87-.14.13-.25.29-.33.49-.06.16-.12.29-.19.36-.1.11-.2.21-.33.3-.2.13-.22.1-.07-.09.14-.17.24-.37.26-.6.08-.78-.26-1.3-.8-1.82-.22-.23-.2-.26.08-.09.55.35 1.12.74 1.7 1.18.36.26.59.7.68 1.3.1-.24.22-1.14-.19-1.15l-.75-.86c-.12-.14-.1-.17.07-.09.77.39 1.6.42 2.5.1.39-.15.67-.45.83-.83.14-.34-.3-.17-.38-.35a.36.36 0 0 1-.01-.28.27.27 0 0 1 .08-.11c.12-.1.3-.08.4.03.05.07.13.14.23.22.03-.04.05-.06.06-.04.03-.16-.16-.53-.34-.58-.35-.1-.63-.04-.84.17-.15.17-.19.34-.1.53.09.18.2.32.35.42.04.03.05.07.02.11-.57.71-1.29.93-2.17.64a.15.15 0 0 1-.06-.04.15.15 0 0 1 .01-.21l.42-.37c.43-.04.77-.13 1.03-.27.45-.26.43-.32-.08-.2-.25.07-.6.2-1.06.43Z" fill="#FACCA6" /><path d="M35.17 17.65c.08 0 .13.08.12.16l-.17.8c-.01.06.04.11.1.1l.23-.03c.06-.01.09.01.09.07.01.26-.27.28-.46.34-.05.02-.06.09-.02.12l.22.16c.05.03.07.08.08.13 0 .04 0 .07-.03.1a.11.11 0 0 1-.11.04.67.67 0 0 0-.22 0 .09.09 0 0 0-.07.08l.01.34c0 .07-.07.14-.15.14-.46 0-.86-.13-1.3-.16-.95-.08-1.87-.18-2.84-.2-.56 0-1.15-.02-1.76-.04-1.27-.06-2.52.03-3.8.05-.79 0-1.57.14-2.34.17-.36.02-.76.07-1.2.16a.96.96 0 0 1-.41-.01.13.13 0 0 1-.06-.03.12.12 0 0 1-.04-.06.97.97 0 0 1-.01-.45c0-.06-.02-.08-.07-.07a.43.43 0 0 0-.23.08c-.13.1-.14-.18-.07-.25l.23-.2c.07-.05.04-.16-.04-.18a.9.9 0 0 1-.3-.13c-.06-.03-.09-.09-.08-.15 0-.06.04-.09.1-.09h.19c.06 0 .09-.02.09-.08 0-.28-.05-.52-.16-.72a.13.13 0 0 1-.02-.07c0-.06.05-.12.12-.13 1.45-.22 2.88-.36 4.27-.44l4.55-.06c1.85 0 3.72.33 5.56.51Z" fill="#1F1514" /><path d="M24.77 16.97c-1.34.03-2.68.16-4 .37-.07.01-.13-.03-.13-.08-.2-1.12-.37-2.24-.54-3.35-.02-.08 0-.23-.04-.3.09 0 .16.05.22.12l.6.78c.45.58-.24.86.08 1.35.27.4.73.2 1.05.08a.91.91 0 0 0-.13.43c0 .07.06.13.14.12l.75-.09c.07 0 .08-.04.06-.1a1.39 1.39 0 0 0-.25-.4c.24.08.62.03.83-.15.2-.16.27-.35.2-.59a.24.24 0 0 0-.05-.09.25.25 0 0 0-.08-.06c-.32-.14-.25-.48-.12-.72a99.22 99.22 0 0 0 .65-1.12.11.11 0 0 1 .15.04c.22.36.44.7.67 1.03.19.27.06.57-.09.82-.12.2 0 .4.13.57.28.36.71 0 1-.06l-.23.48c-.04.07.02.15.1.15l.8-.06c.06 0 .1-.07.06-.1a1.74 1.74 0 0 1-.29-.44c.49.21.9.06 1.1-.32a.28.28 0 0 0-.02-.34c-.22-.27-.43-.4-.18-.77.22-.34.45-.7.67-1.08.08-.12.15-.12.22 0l.62 1.08c.06.11.1.23.1.35 0 .05-.02.09-.05.13-.17.2-.38.53-.19.78.25.34.74.29 1.06.13l-.23.46c-.04.07.02.16.1.16l.71.03c.13 0 .2-.13.15-.23l-.23-.4.6.13c.05.02.1.01.14 0a.9.9 0 0 0 .43-.4.27.27 0 0 0-.07-.34c-.24-.2-.28-.4-.12-.63.24-.38.52-.76.83-1.16.05-.06.16-.05.19.02.14.34.31.7.51 1.06.28.5-.17.65-.25 1.05-.05.24.04.41.27.52.22.1.57.12.78.03l-.26.45c-.02.05.01.12.08.12.08 0 .94.2.9-.03a2.92 2.92 0 0 0-.15-.5c.34.29 1.05.18 1.11-.34.05-.38-.35-.58-.08-.97.26-.38.52-.73.8-1.04.1-.11.15-.1.15.05 0 .12-.08.25-.1.37-.17 1.14-.34 2.23-.53 3.29-.02.1-.09.16-.2.14l-3.2-.35a39.2 39.2 0 0 0-7.2-.08Z" fill="#1F1514" /><path d="M30.1 17.36c-.06.33-.35.93-.77.96-.05 0-.08.03-.08.08 0 .06.04.1.1.13.44.22.7.57.77 1.05.01.05-.01.08-.06.09-.52.07-.95-.1-1.3-.52a.24.24 0 0 1-.03-.26.77.77 0 0 0 0-.75c-.28-.54.62-.83 1-.85.32 0 .31.01.37.07Z" fill="#FACCA6" /><path d="M24.31 20.64c-.87.06-2 .17-3.4.33-.07.01-.12-.02-.14-.09a.62.62 0 0 1 0-.31c.01-.04.04-.06.08-.07 2.95-.4 5.88-.56 8.78-.47.7.02 1.37.11 2.06.14.25 0 .51.02.8.06l2.68.29c.03 0 .06.01.08.04.02.02.03.05.03.07v.2c0 .1-.05.17-.17.17-.24 0-.47-.09-.72-.1l-1.72-.17c-2.7-.25-5.48-.28-8.36-.09Z" fill="#1F1514" /><path d="M26.83 18.33c-.37-.04-.64-.32-.8-.85-.03-.08.04-.17.13-.18.53-.05.95.12 1.25.53a.14.14 0 0 1 0 .16.89.89 0 0 0-.03.98.13.13 0 0 1 0 .14c-.29.4-.72.6-1.32.56a.1.1 0 0 1-.04 0 .1.1 0 0 1-.04-.1c.1-.37.25-.73.59-.93.1-.06.2-.14.29-.22.05-.06.04-.09-.03-.1ZM24.99 18.46c-.24-.02-.33-.26-.44-.43a.55.55 0 0 1-.1-.26c0-.03.02-.06.05-.07l.03-.01c.96-.05 1.46.81.91 1.57-.18.25-.57.3-.87.32-.06 0-.08-.02-.07-.08.1-.35.29-.62.55-.81.19-.13.17-.2-.06-.23ZM30.9 18.56c.07.17.26.19.37.33.12.17.2.36.27.57.01.05 0 .08-.06.09-1.48.1-1.41-1.99.1-1.86.07 0 .09.04.06.1-.12.21-.33.75-.67.68-.08-.01-.1.02-.07.1ZM32.17 18.78c.04.05.1.07.17.07.1 0 .17.04.2.13l.19.4c.04.1 0 .14-.1.14-.4 0-.8-.22-.86-.63-.1-.62.21-.95.9-1 .07 0 .1.02.09.08-.05.31-.24.55-.58.72a.06.06 0 0 0-.03.07l.02.02ZM23.87 18.79a.05.05 0 0 0 0-.08c-.3-.17-.49-.4-.6-.7 0-.06.01-.1.07-.1.75 0 1.21.5.9 1.18-.12.28-.4.44-.83.46-.06 0-.1-.05-.09-.1.1-.3.28-.52.55-.66Z" fill="#FACCA6" /><path d="M27.58 18.4c-.05.26.12.5.37.55.25.04.5-.13.55-.38a.46.46 0 0 0-.37-.55.48.48 0 0 0-.55.38Z" fill="#FFFFFE" /><path d="M33.31 18.68a.08.08 0 0 0-.04.15c.24.17.38.4.44.68 0 .03 0 .05-.04.05-.62-.03-.96-.49-.8-1.03.1-.3.36-.44.82-.45.05 0 .08.03.06.08-.07.32-.22.49-.44.52ZM22.85 18.77a.18.18 0 0 0-.1-.05c-.2-.05-.36-.31-.42-.5-.02-.06 0-.09.06-.1 1.12-.06 1.17 1.3.12 1.46-.07.01-.14-.05-.13-.11.04-.25.2-.45.45-.6a.06.06 0 0 0 .02-.1ZM21.74 18.88c-.2-.14-.36-.17-.37-.45 0-.05.03-.08.09-.07.25.02.43.09.55.21.2.22.23.45.11.68a.63.63 0 0 1-.26.27.6.6 0 0 1-.3.1c-.11 0-.15-.06-.1-.16.07-.15.17-.27.3-.38.08-.07.08-.14-.02-.2Z" fill="#FACCA6" /><path d="M34.3 18.87a.1.1 0 0 0 0 .15c.14.12.25.25.31.41.04.1-.05.2-.16.17-.84-.23-.67-1.25.17-1.25.05 0 .07.02.07.07 0 .29-.19.31-.38.45Z" fill="#FACCA6" /></svg>