<!-- by TradeStack --><svg viewBox="0 0 56 56" xmlns="http://www.w3.org/2000/svg"><path fill="#F0F3FA" d="M0 0h56v56H0z"/><path d="M18.36 23h2.88c.44 0 .84-.21 1.06-.56l2.77-4.56c.24-.39-.05-.88-.53-.88h-9.26c-.44 0-.85.22-1.07.58l-6.04 9.84c-.23.36-.23.8 0 1.16l6.04 9.84c.22.36.63.58 1.07.58h11.1c.48 0 .78-.5.53-.88l-2.77-4.56A1.25 1.25 0 0 0 23.1 33h-4.73c-.44 0-.86-.23-1.07-.6l-2.4-3.84a1.1 1.1 0 0 1 0-1.12l2.4-3.84c.21-.37.63-.6 1.07-.6Z" fill="#2B42E7"/><path d="m24.07 22.95 2.9-5.62a.58.58 0 0 1 1.06 0l2.9 5.62c.1.2.1.44-.02.63l-2.9 5.11a.58.58 0 0 1-1.02 0l-2.9-5.1a.66.66 0 0 1-.02-.64ZM30.21 38.69l-2.14-4.27a.67.67 0 0 1 0-.6l8.76-16.52c.21-.4.75-.4.96.01l2.14 4.27c.1.19.1.42 0 .6L31.16 38.7c-.21.4-.75.4-.96-.01ZM38.21 38.69l-2.14-4.27a.67.67 0 0 1 0-.6l8.76-16.52c.21-.4.75-.4.96.01l2.14 4.27c.1.19.1.42 0 .6L39.16 38.7c-.21.4-.75.4-.96-.01Z"/></svg>