<?xml version='1.0' encoding='utf-8'?>
<!-- by TradeStack -->
<svg width="56" height="56" viewBox="0 0 56 56" xmlns="http://www.w3.org/2000/svg"><path fill="#F0F3FA" d="M0 0h56v56H0z" /><path d="M47 39.96V40l-.03.01H9.04L9 39.99 9 39.96V16.04l.01-.03.03-.01h37.93l.02.01.01.03v23.92Z" fill="#183F93" /><path d="M13.5 22.54c.02.97.46 1.83 1.17 2.38.68.53 1.44.65 2.28.38.03-.01.05 0 .05.04v.48c0 .04-.02.06-.05.07-2.07.57-3.92-1.16-3.95-3.34-.03-2.18 1.77-3.97 3.86-3.46.03 0 .05.03.05.06l.01.48c0 .04-.02.06-.05.05-.85-.25-1.6-.1-2.27.45a3.05 3.05 0 0 0-1.1 2.41ZM36.96 19h-.5c-.02 0-.04.02-.04.05v6.9c0 .03.02.05.05.05h.49c.03 0 .05-.02.05-.05v-6.9c0-.03-.02-.05-.05-.05ZM40.94 19h2.13c.02 0 .03.02.03.04V19.63l-.04.01h-1.81l-.01.02h-.01v6.27l-.01.03-.04.02a1.71 1.71 0 0 1-.5 0c-.01 0-.02 0-.03-.02a.06.06 0 0 1-.01-.03v-6.27l-.03-.02h-1.8l-.03-.01-.01-.04v-.55c0-.03.01-.04.03-.04h2.14ZM25.12 21.7h2.78l.03.01V22.28H25.12l-.02.01-.01.01a.04.04 0 0 0-.01.03v3.04l.01.03h2.84l.03.02.01.03v.54l-.04.01h-3.39l-.02-.01-.02-.03v-6.92c0-.01 0-.02.02-.03l.02-.01h3.37l.02.01.02.03v.53s0 .02-.02.03h-2.82l-.02.02-.01.03v2l.01.04.03.01Z" fill="#F4F4F4" /><path fill-rule="evenodd" d="M30.03 19.02a.09.09 0 0 0-.02.06L30 25.91v.04l.02.02.03.02h.03l1.5.01c.4 0 .81-.09 1.2-.26.37-.17.71-.42 1-.73a3.67 3.67 0 0 0 .92-2.4v-.2a3.67 3.67 0 0 0-.9-2.4 3.12 3.12 0 0 0-1.02-.75 2.9 2.9 0 0 0-1.2-.26h-1.5c-.01 0-.03 0-.05.02Zm.5.6a.06.06 0 0 0 0 .04v5.67c0 .02 0 .04.02.05l.04.01h1.07c.34 0 .66-.07.97-.22.3-.14.58-.35.82-.62a3.2 3.2 0 0 0 .74-2.02v-.08c0-.76-.28-1.48-.75-2.02a2.38 2.38 0 0 0-1.79-.83h-1.07c-.02 0-.03 0-.04.02ZM21.44 23.05l.01-.01c1.75-.52 1.92-3.2.19-3.93-.17-.07-.43-.1-.79-.1a139.17 139.17 0 0 0-1.85.02v6.92c0 .03.01.05.04.05h.45l.03-.01.01-.04v-2.84a.05.05 0 0 1 .01-.03h.02l.01-.01h1.2l.04.01.02.03 1.28 2.86.01.02H22.72l-1.29-2.9a.03.03 0 0 1 0-.03v-.01Zm-1.89-3.43-.01.04-.01 2.75.01.04.04.02h1.45c.17 0 .34-.03.5-.1.16-.07.3-.17.42-.3a1.42 1.42 0 0 0 .38-1v-.05a1.51 1.51 0 0 0-.37-1 1.3 1.3 0 0 0-.42-.3 1.2 1.2 0 0 0-.5-.11H19.6l-.04.01Z" fill="#F4F4F4" /><path d="M46 38.94a.06.06 0 0 1-.03.06H10.05a.05.05 0 0 1-.05-.03V28.06c0-.02 0-.03.02-.04a.05.05 0 0 1 .03-.02h35.9c.01 0 .02 0 .03.02l.02.04v10.88Z" fill="#43954E" /><path d="M13.92 30.75c-.55-.34-1.3-.16-1.68.35-.39.53-.32 1.28.17 1.7.13.1.38.21.77.32.42.13.8.2 1.07.35a1.8 1.8 0 0 1 .82 2.35 2.16 2.16 0 0 1-2.34 1.14 2.27 2.27 0 0 1-1.66-1.4c-.03-.06-.02-.1.05-.13l.33-.14c.06-.02.1 0 .13.06.07.2.17.35.28.48.6.64 1.28.78 2.06.41.72-.34 1.04-1.27.5-1.95-.32-.4-.76-.43-1.23-.56-.53-.15-.93-.27-1.28-.63a1.7 1.7 0 0 1-.4-.69c-.2-.62-.08-1.2.34-1.74a1.88 1.88 0 0 1 1.7-.65c.62.1 1.1.46 1.4 1.08.04.07.03.12-.05.15l-.27.11c-.06.03-.11.01-.15-.05a1.69 1.69 0 0 0-.56-.56ZM28.89 30.75c-.55-.34-1.3-.16-1.68.35-.4.53-.33 1.28.17 1.7.12.1.38.21.77.32.42.13.8.2 1.07.35a1.8 1.8 0 0 1 .81 2.35 2.16 2.16 0 0 1-2.33 1.14 2.27 2.27 0 0 1-1.67-1.4c-.03-.06-.01-.1.05-.13l.33-.14c.06-.02.1 0 .13.06.08.2.17.35.28.48.6.64 1.28.78 2.06.41.73-.34 1.05-1.27.5-1.95-.31-.4-.76-.43-1.22-.56-.53-.15-.93-.27-1.28-.63a1.7 1.7 0 0 1-.41-.69c-.2-.62-.08-1.2.35-1.74a1.88 1.88 0 0 1 1.7-.65c.62.1 1.1.46 1.4 1.08.04.07.02.12-.05.15l-.27.11c-.07.03-.11.01-.15-.05a1.69 1.69 0 0 0-.56-.56ZM42.28 33.68l-1.61-1.98c-.07-.08-.1-.07-.1.04v5.2l-.01.02h-.54c-.01 0-.02 0-.02-.02v-6.9c0-.05.02-.05.05-.01a1165.93 1165.93 0 0 0 4.28 5.27c.07.08.1.07.1-.04v-5.2l.01-.02h.54c.01 0 .02 0 .02.02v6.9c0 .05-.02.05-.05.01l-2.67-3.3ZM23.93 30h-.44c-.03 0-.04.02-.04.05v6.9c0 .03.01.05.04.05h.44c.02 0 .04-.02.04-.05v-6.9c0-.03-.02-.05-.04-.05Z" fill="#F4F4F4" /><path fill-rule="evenodd" d="m19.02 30.02-.03-.02a1004.6 1004.6 0 0 1-2.73 6.93c-.02.05 0 .07.04.07h.44c.05 0 .08-.03.1-.07l.84-2.14c0-.02.02-.04.04-.05a103.33 103.33 0 0 0 2.54 0l.04.05.83 2.14c.02.05.05.07.1.07h.44c.05 0 .06-.02.05-.06-.98-2.48-1.88-4.79-2.7-6.92Zm-.08 1.52-1 2.57a.05.05 0 0 0 .03.07H20a.05.05 0 0 0 .04-.02.05.05 0 0 0 0-.05l-1-2.57-.02-.03a.05.05 0 0 0-.05 0l-.02.03ZM38.51 33.5c0 .93-.36 1.82-1 2.47a3.4 3.4 0 0 1-4.85 0 3.54 3.54 0 0 1 1.1-5.7 3.37 3.37 0 0 1 3.75.76 3.5 3.5 0 0 1 1 2.47Zm-.54 0c0 .78-.3 1.53-.85 2.08a2.86 2.86 0 0 1-4.08 0 2.98 2.98 0 0 1 0-4.17 2.86 2.86 0 0 1 4.08 0c.54.56.85 1.3.85 2.09Zm-1.58 0c0 .36-.13.7-.38.95a1.3 1.3 0 0 1-1.86 0 1.36 1.36 0 0 1 0-1.9 1.3 1.3 0 0 1 1.86 0c.25.25.38.6.38.95Zm-1.31.79c.42 0 .77-.36.77-.8a.78.78 0 0 0-.77-.78.78.78 0 0 0-.77.79c0 .43.34.79.77.79Z" fill="#F4F4F4" /></svg>