<?xml version='1.0' encoding='utf-8'?>
<!-- by TradeStack -->
<svg width="56" height="56" viewBox="0 0 56 56" xmlns="http://www.w3.org/2000/svg"><path fill="#F0F3FA" d="M0 0h56v56H0z" /><path d="M8.45 25.48c-1.64 0-3.42-.2-4.25-.34a.18.18 0 0 0-.12.33l.37.24c-.06.1-.01.49.68 1.2.7.7 2.33.63 3.06.52a.72.72 0 0 0-.4.67c.05.5 1.44.49 2.13.42-.08.1-.18.39.03.7.2.3 1.02.15 1.4.04.06.4.17 1.07.92 1.07.6 0 1.26-.35 1.5-.52.35.78.6.91 1.03.91.34 0 .65-.17.76-.25.1.19.42.57.9.57.46 0 .8-.23.92-.34.1.3.4.88.89.88.5 0 .82-.29.93-.43.1.31.45.95.98.95s.93-.48 1.07-.73c.11.26.46.78.97.78s.84-.35.94-.52c.04.13.25.4.77.4s.88-.23 1-.34c-.4.48-1.22 1.5-1.4 1.77-.2.27-.13.4-.07.43l.52.52c.14.15.28.07.33 0 .12-.23.4-.71.5-.77.11-.07.12.07.11.15-.06.13-.24.44-.38.6a.32.32 0 0 0-.06.38c.13.14.43.45.61.54.18.1.33 0 .38-.07l.37-.7c.03-.03.1-.17.18-.13.06.04.02.11 0 .14-.07.15-.24.51-.32.72-.08.2-.04.32 0 .35.08.04.32.14.61.21.3.07.4 0 .42-.06.04-.28.1-.87.12-.94.02-.08.06-.13.13-.13.05 0 .06.1.05.16-.03.14-.08.49-.08.76 0 .34.35.38.75.38.32 0 .4-.17.4-.25 0-.23-.02-.71 0-.8.01-.12-.05-.15.07-.15.1 0 .1.07.1.11v.64c0 .12-.05.45.21.45s.3-.03.62-.1c.26-.06.28-.24.26-.32l-.2-.72c0-.03-.08-.25 0-.25.05-.01.09.08.1.12.06.18.19.6.27.8.08.2.27.17.36.13a11 11 0 0 1 .57-.28c.16-.07.1-.24.05-.32-.13-.2-.4-.62-.4-.65-.03-.03-.06-.17.01-.16.06 0 .12.08.14.12l.4.63c.1.15.28.12.37.09l.4-.36c.12-.12.04-.26 0-.32l-.57-.62c-.05-.04-.12-.15-.07-.16.05-.02.13.02.16.05.12.15.4.48.57.62.16.14.31.06.37 0 .07-.07.23-.25.34-.45.1-.21.02-.4-.03-.46L31 31.69c1 .6 1.67.25 1.88 0 1.06.9 1.68.21 1.86-.24 1.3 1.28 1.93.34 2.08-.3 1.23.92 1.74.09 1.83-.44.93.64 1.6.11 1.83-.23 1.16.62 1.67-.21 1.78-.7 2 1.13 2.45.16 2.42-.47 1.63.37 1.67-.35 1.5-.76 2.65.1 2.25-.7 1.73-1.12 2.74.34 3.6-1 3.69-1.72l.32-.24a.16.16 0 0 0 .07-.13c0-.11-.1-.19-.21-.17-.58.13-1.93.31-4.14.31-2.55 0-6.32-.7-7.89-1.06A7 7 0 0 0 37.1 24c-1.81 0-3.68 1.68-4.62 2.72-.75.84-1.82.87-2.26.78h-4.59c-1.38.17-2.62-1.34-3.9-2.41a4.57 4.57 0 0 0-3.1-1.09c-.54 0-1.1.04-2.45.42a41.56 41.56 0 0 1-7.73 1.06Z" fill="#521729" /><path d="M13.97 25.82c-1.35.1-5.92.2-8.04.24v.12c1.03.01 3.37.03 4.41 0 1.31-.02 7.74-.43 8.78-.42 1.04.01 2.51 1.6 3.12 2.27.6.66 1.57 1.15 2.26 1.27.55.1.55.59.48.82h.17c.17-.76-.14-.95-.92-1.15-.77-.21-1.21-.7-2-1.47-.77-.75-2.21-1.97-3.1-1.97-.9 0-3.46.15-5.16.29ZM41.87 25.82c1.36.1 5.93.2 8.05.24v.12c-1.04.01-3.37.03-4.42 0-1.3-.02-7.73-.43-8.77-.42-1.04.01-2.52 1.6-3.12 2.27a4.42 4.42 0 0 1-2.26 1.27c-.55.1-.55.59-.48.82h-.17c-.17-.76.13-.95.91-1.15.78-.21 1.22-.7 2-1.47.78-.75 2.22-1.97 3.12-1.97.9 0 3.45.15 5.14.29ZM27.87 28.61c-1.45 0-2.17-.76-2.35-1.14.46-.12.72-1.13.8-1.62a1.88 1.88 0 0 0-1.23-.22c-.07-.87.52-1 .93-1 .41 0 .48-.26.57-.34.1-.08.1-.2 1.22-.2 1.1 0 .94.81 1.4 1.92.36.88.88 1.35 1.1 1.48-.2.37-.99 1.13-2.44 1.13Z" fill="#802B4C" /></svg>