<!-- by TradeStack --><svg xmlns="http://www.w3.org/2000/svg" width="56" height="56" viewBox="0 0 56 56"><path fill="#D12267" d="M0 0h56v56H0z"/><path d="M23.45 22.71h-.84l-.4 1.23h.76l.35-.88h.88c.41 0 .69.12.46.52-.18.33-1.5 1.34-2.14 1.8h1.1a5.75 5.75 0 0 0 1.99-1.63c.55-.8-.01-1.03-.36-1.04h-.9l.05-.54h-.79l-.16.54Zm-4.45.32h.57a7.46 7.46 0 0 1-1.26 2.04l-.26.26c.49 0 1.67-.45 2.47-2.3h.41c.07.07.2.26.1.52a8.28 8.28 0 0 1-1.46 1.85h1.36c.5-.73 1.41-2.28 1.04-2.64-.04-.04-.33-.13-1.2-.13l.16-.43H19.9l-.23.43h-.59l-.07.4Zm-6.68-.63H9.8l-.22.62h2.74v-.62Zm-2.93.93-.35.6h1.19c-.18.65-.87.96-1.19 1.03v.35c1.58 0 2.29-.92 2.44-1.37h1.13l-.16-.6H9.39Zm3.39 1.2h.72v.87H14l1-2.05h-.78a4.23 4.23 0 0 1-1.45 1.18Zm3.56-2.09c-.39 0-.63.4-.7.6h1.82c-.4 1.35-1.95 1.82-2.68 1.88v.45h.43c.74 0 1.44-.36 1.7-.54l.55.54.51-.22c-.21-.33-.1-.59.14-1.16l.26-.62c.32-.84-.13-.97-.4-.93h-1.63Zm-3.68.02-.08.84h.38l.1-.84h-.4Zm.52.84.08-.84h.4l-.1.84h-.38Zm13-.28.2-.56h1.35v.56h-1.55Zm.29 1.3-.7 1.05c2.85-.48 3.46-2.15 3.41-2.93-.57 1.33-2.05 1.8-2.71 1.88Zm2.47 1h1.01l.35-.84h1.63l.17-.66h-1.67l.38-1.38h-.95l-.92 2.89Zm5.21 0h-1l.91-2.88h.95l-.38 1.38h2.24l-.17.66h-2.2l-.35.85Zm1.98-1.77h-.49l.32-1.1h.56l-.39 1.1Zm4.1.73h.5l.38-1.09h-.56l-.32 1.09Zm6.44-.73h-.5l.33-1.1h.55l-.38 1.1Zm-10.15 0H37l.38-1.1h-.55l-.32 1.1Zm5.08.73h-.5l.33-1.09h.55l-.38 1.09Zm5.45-.73h.49l.38-1.1h-.55l-.32 1.1Zm-9.3-.5.22-.58h2.49l-.2.58h-2.5Zm-.22.29-.15.55h1.54a2.46 2.46 0 0 1-2.07 1l-.18.53h.63a3 3 0 0 0 2.84-2.08h-2.61Zm4.7-.13h.65c-.18.69-.9 2.06-2.35 2.06h-.57l.17-.49h.8a1.87 1.87 0 0 0 1.3-1.57Zm1.61-.77-.79 1.08h.7l.54-.5h.63c-.39 1.41-1.79 1.77-2.44 1.78l-.38.57h.79c2.27 0 3.07-1.95 3.19-2.93h-2.24ZM16.64 26h-6.26l-.47 1.55h4.75L13.3 32.4H8.5L8 34h6.69c.66 0 1.24-.44 1.45-1.09l1.67-5.25c.26-.82-.33-1.66-1.16-1.66Zm4.05 0-.54 1.45h4.12c-1.16 3.37-4.01 5.1-5.3 5.4L18.46 34c2.2-.06 4.14-1.04 4.9-1.42l.07-.03L25.56 34l.89-2.09-1.3-.76c1.14-.94 2.07-2.61 2.65-3.91A.88.88 0 0 0 27 26h-6.31Zm9.67 0h6.5c.29.04.76.4.29 1.52h-2.72L34 29h2.16c.3.1.83.63.46 1.55h-3.09l-.51 1.9h3.14l-.5 1.55h-3.81c-.98 0-1.71-.97-1.5-2l.32-1.45h-2.03l.41-1.55h2.08l.44-1.48h-1.64l.44-1.52Zm15.46 0h-5.68l-.57 1.52h4.14c-1.49 3.63-4.42 5.28-5.7 5.43V34c1.2 0 2.87-.7 4-1.17l.8-.33 2.32 1.5.69-2.22-1.18-.55c3.61-3.88 2.3-5.1 1.18-5.23Z" fill="#fff"/><path fill-rule="evenodd" d="M49 21H7v14h42V21ZM6 20v16h44V20H6Z" fill="#fff"/></svg>