<!-- by TradeStack --><svg width="56" height="56" viewBox="0 0 56 56" xmlns="http://www.w3.org/2000/svg"><path fill="#F0F3FA" d="M0 0h56v56H0z"/><path d="M45 28.24v5.52c0 1.41.11 1.52.99 1.64l.44.07c.05.03.07.09.07.16 0 .16-.09.37-.09.37h-5.93s-.16-.44 0-.53l.53-.07c.88-.12.99-.23.99-1.64v-5.52c0-1.41-.11-1.52-1-1.64l-.52-.07c-.16-.1 0-.53 0-.53h5.95s.06.17.07.32c0 .09 0 .17-.07.2l-.44.08c-.88.12-.99.23-.99 1.64Z" fill="#1B3C64"/><path d="M30 32.9v-7.52c0-2.1-.27-2.34-1.16-2.46l-.57-.09c-.2-.1-.2-.72.05-.83h5.56c2.56 0 5.63.34 5.63 3.78 0 1.88-1.26 2.68-2.23 3.16-.21.1-.21.23-.1.47 1.38 2.82 2.25 4.4 3.26 5.26.54.45 1.09.57 1.4.6.2.1.2.41.09.54-.34.15-1.01.19-1.66.19h-2.4a77.84 77.84 0 0 1-2.98-5.48c-.25-.57-.59-.74-1.11-.74-.74 0-.78.05-.78.47v2.65c0 1.94.13 2.09 1.07 2.26l.57.1c.15.1.15.61 0 .74h-6.51c-.17-.13-.17-.63 0-.74l.56-.1c.95-.17 1.31-.32 1.31-2.26Zm3-8.95v4.1c0 .74.06.8 1.3.8.76 0 .85-.18 1.25-.58.36-.36.76-1.03.76-2.28 0-1.9-.76-3.12-2.4-3.12-.87 0-.87.07-.91 1.08Z" fill="#1B3C64"/><path d="M29 31.9c0 2.48-2.22 4.1-5.55 4.1a8.2 8.2 0 0 1-3.75-.77c-.41-.44-.7-1.9-.7-3.28.15-.26.66-.28.84-.06.44 1.32 1.91 3.11 3.79 3.11 1.63 0 2.37-.96 2.37-1.97 0-1.64-1.67-2.61-3-3.22-1.58-.73-3.3-1.94-3.32-3.95 0-2.28 1.92-3.86 5.11-3.86.73 0 1.63.08 2.51.32.29.08.49.13.75.17.18.44.4 1.53.4 2.89-.11.24-.66.26-.86.06-.37-1.03-1.32-2.44-2.9-2.44-1.46 0-2.25.8-2.25 1.81 0 .93.9 1.78 2 2.3l1.45.72c1.37.66 3.11 1.84 3.11 4.06Z" fill="#1B3C64"/><path d="M15.12 22c2.08 0 3.6.49 4.2.53 0 .36.07 1.98.25 3.15-.08.24-.63.33-.77.14-.56-1.88-1.86-2.82-3.84-2.82-2.27 0-4.96 1.85-4.96 5.88C10 32.9 12.61 35 15.06 35c2.47 0 3.61-1.7 4.16-3.07.17-.16.66-.1.78.15a8.91 8.91 0 0 1-.78 3.17c-1.1.3-2.55.75-4.14.75C10.95 36 7 33.7 7 29.16 7 24.64 10.9 22 15.12 22Z" fill="#1B3C64"/><path d="M14.44 27.08c.2 0 .49-.46.56-1.08.07.62.35 1.08.56 1.08.17 0 .43-.21.53-.32-.2.6-.56 2.05-.38 2.05.14 0 .74-.76 1.02-1.15-.04.17-.07.52.07.63.14.11.7-.14.95-.28-.1.19-.28.63-.28.9 0 .28.35.26.53.21a11.8 11.8 0 0 0-1.55 1.39l.03.35c-1.13-.34-1.36-.24-1.34-.14V32h-.28v-1.28c.02-.1-.21-.2-1.34.14l.03-.35c0-.11-1.03-.97-1.55-1.39.18.05.53.07.53-.2 0-.28-.19-.72-.28-.9.26.13.8.38.95.27.14-.11.1-.46.07-.63.28.39.88 1.15 1.02 1.15.18 0-.17-1.46-.38-2.05.1.1.36.32.53.32ZM44.18 20.86c-.86-.39-1.22-.74-1.27-.86.3 1.01 1.27.64 1.27 1.99 0 1.68-2.18 1.84-2.18 2.7 0 .85.8 1.31 1.68 1.31C45.2 26 46 24.65 46 23.61s-.7-2.26-1.82-2.75Z" fill="#B33D32"/><path d="M42 20.09c0-.96.78-1.8 1.17-2.09-.21.22-.65.83-.71 1.45 0 .86 1.54 1.5 1.54 2.57 0 1.08-1.17 1.77-1.75 1.98.28-.3.83-1.09.83-1.86 0-1.3-1.08-1.2-1.08-2.05Z" fill="#1B3C64"/></svg>