<?xml version='1.0' encoding='utf-8'?>
<!-- by TradeStack -->
<svg width="56" height="56" viewBox="0 0 56 56" xmlns="http://www.w3.org/2000/svg"><path fill="#F0F3FA" d="M0 0h56v56H0z" /><path fill-rule="evenodd" d="M28 26.17A3.77 3.77 0 0 1 24.73 28C22.67 28 21 26.43 21 24.5s1.67-3.5 3.73-3.5c1.4 0 2.64.74 3.27 1.83l-1.52.71a1.91 1.91 0 0 0-1.62-.88c-1.05 0-1.9.82-1.9 1.84s.85 1.84 1.9 1.84c.67 0 1.26-.34 1.6-.85l1.54.68ZM29 23v3.76c.04.41.4 1.24 1.58 1.24a2.5 2.5 0 0 0 1.78-.7v.7H34v-5h-1.64v3.15c-.16.21-.49.47-.99.47-.79 0-.79-.6-.79-.71V23H29Zm13-9H14v28h28V14Zm-2 2H16v24h24V16ZM20.31 32.32l.5-.8a2.25 2.25 0 0 0-1.37-.52c-.6 0-1.37.28-1.37 1.2 0 .92.91 1.18 1.37 1.26.46.08.54.21.54.34 0 .12-.04.35-.57.35-.43 0-.8-.35-.93-.53l-.48.75c.2.2.79.63 1.4.63.63 0 1.47-.33 1.47-1.2 0-.87-.6-1.15-1.23-1.25-.51-.08-.67-.26-.68-.35-.03-.13.04-.4.48-.4.45 0 .77.35.87.52Zm.99.4v1.5c.01.26.17.78.7.78.35 0 .56-.2.62-.3l-.14-.67a.32.32 0 0 1-.23.12c-.14 0-.25-.14-.25-.3v-1.13h.56V32H22v-1h-.7v1h-.46v.72h.46Zm2.24.36-.35-.53c.14-.19.58-.55 1.15-.55.9 0 1.15.7 1.16 1.05V35h-.78v-.34a.99.99 0 0 1-.75.34c-.7 0-.97-.41-.97-.92 0-.5.29-.91.97-.91.3 0 .57.13.75.34v-.33c0-.16-.14-.47-.57-.47a.68.68 0 0 0-.6.37Zm.74 1.36c.22 0 .4-.16.4-.36 0-.2-.18-.36-.4-.36-.3 0-.42.16-.42.36 0 .2.12.36.42.36Zm7.5-1.9.34.54a.65.65 0 0 1 .58-.37c.42 0 .55.3.55.47v.33a.93.93 0 0 0-.72-.34c-.66 0-.93.4-.93.91s.26.92.93.92a.9.9 0 0 0 .72-.34V35H34v-1.95c-.01-.35-.25-1.05-1.11-1.05-.55 0-.97.36-1.11.55Zm1.44 1.54c0 .2-.18.36-.4.36-.28 0-.4-.16-.4-.36 0-.2.12-.36.4-.36.22 0 .4.16.4.36ZM26 32h.8v.43c.13-.2.4-.43.83-.43.6 0 .78.55.8.82v2.16h-.75v-1.81c0-.14-.1-.41-.43-.41-.22 0-.36.17-.45.34V35H26v-3Zm10 0a.92.92 0 0 0-.7.43V32h-.8v3h.8v-1.9c.09-.18.23-.34.45-.34.1 0 .19.03.25.07v-.82Zm-5.49-1h.8v4h-.8v-.43c-.22.26-.5.43-.81.43-.61 0-1.03-.67-1.03-1.5s.42-1.5 1.03-1.5c.3 0 .6.17.81.43V31Zm0 2.92v-.84c-.11-.22-.31-.37-.52-.37-.32 0-.55.35-.55.79 0 .44.23.8.55.8.2 0 .4-.16.52-.38ZM39 31h-.75v1.48c-.24-.3-.56-.48-.9-.48-.64 0-1.08.67-1.08 1.5s.44 1.5 1.08 1.5c.34 0 .66-.18.9-.48V35H39v-4Zm-.75 2.84c-.12.27-.35.45-.6.45-.33 0-.56-.35-.56-.79 0-.44.23-.8.57-.8.24 0 .47.2.59.46v.68Z" fill="url(#a)" /><defs><linearGradient id="a" x1="42.64" y1="16.1" x2="14.72" y2="36.91" gradientUnits="userSpaceOnUse"><stop stop-color="#7D3E2C" /><stop offset="1" stop-color="#DD8458" /></linearGradient></defs></svg>