<!-- by TradeStack --><svg width="56" height="56" viewBox="0 0 56 56" fill="none" xmlns="http://www.w3.org/2000/svg">
<rect width="56" height="56" fill="#F0F3FA"/>
<path fill-rule="evenodd" clip-rule="evenodd" d="M20.5369 37.046C20.6343 37.0572 20.6586 37.1052 20.6099 37.19C19.5536 39.0246 18.6942 40.9457 18.0319 42.9533C18.0297 42.9594 18.0293 42.966 18.0307 42.9724C18.0321 42.9787 18.0353 42.9846 18.0399 42.9892C18.0445 42.9939 18.0503 42.9973 18.0567 42.9989C18.063 43.0005 18.0698 43.0004 18.0761 42.9984C20.4673 42.3479 22.6881 41.4423 24.7385 40.0786C24.7449 40.0745 24.7514 40.0701 24.758 40.0658C24.8024 40.0361 24.8502 40.0042 24.9015 40.0042H31.1292C31.1726 40.0042 31.2132 40.0323 31.2511 40.0584C31.2587 40.0636 31.2662 40.0688 31.2735 40.0736C33.316 41.4384 35.5283 42.3434 37.9105 42.9918C37.9637 43.0051 37.9818 42.9862 37.9648 42.9348C37.3149 40.9295 36.4601 39.014 35.4004 37.1883C35.3924 37.1744 35.3881 37.1587 35.3878 37.1427C35.3875 37.1267 35.3912 37.1109 35.3986 37.0966C35.406 37.0824 35.4169 37.0701 35.4302 37.061C35.4436 37.0519 35.459 37.0462 35.4751 37.0444C39.1893 36.6359 42.6589 35.3437 45.9672 33.6965C45.9771 33.6912 45.9854 33.6834 45.9912 33.6738C45.9969 33.6642 46 33.6533 46 33.6421C46 33.631 45.9969 33.6201 45.9912 33.6105C45.9854 33.6009 45.9771 33.5931 45.9672 33.5877C43.3258 32.2107 40.5519 31.1812 37.6455 30.4994C37.6317 30.4963 37.6188 30.4897 37.6084 30.4802C37.5979 30.4707 37.5901 30.4586 37.5858 30.4453C37.5815 30.4319 37.5809 30.4177 37.5839 30.4039C37.5869 30.3902 37.5935 30.3776 37.6031 30.3671C40.8587 26.6829 42.9306 22.1684 44.415 17.5517C44.4331 17.4948 44.4133 17.4753 44.3555 17.4931C40.0464 18.7497 36.061 20.6563 32.3995 23.2129C32.3508 23.2464 32.3219 23.2346 32.3129 23.1777C31.5928 18.8607 30.0728 14.9187 28.0671 11.0352C28.0618 11.0246 28.0535 11.0157 28.0433 11.0095C28.0331 11.0033 28.0214 11 28.0094 11C27.9974 11 27.9857 11.0033 27.9755 11.0095C27.9653 11.0157 27.957 11.0246 27.9517 11.0352C25.9664 14.8735 24.3852 18.8473 23.7212 23.1275C23.7185 23.1461 23.7109 23.1638 23.6992 23.1786C23.6875 23.1935 23.6721 23.2052 23.6545 23.2124C23.6368 23.2197 23.6176 23.2223 23.5986 23.22C23.5797 23.2178 23.5616 23.2107 23.5463 23.1995C19.9561 20.5848 15.887 18.8005 11.6395 17.4597C11.6316 17.4575 11.6232 17.4575 11.6153 17.4596C11.6073 17.4617 11.6001 17.4659 11.5944 17.4717C11.5886 17.4776 11.5846 17.4848 11.5827 17.4927C11.5808 17.5006 11.581 17.5088 11.5835 17.5166C13.1391 22.2269 15.1363 26.6042 18.4378 30.404C18.4831 30.4564 18.4718 30.4905 18.4038 30.5061C15.4703 31.1756 12.6772 32.2107 10.0244 33.6112C10.017 33.6149 10.0107 33.6206 10.0064 33.6276C10.002 33.6347 9.99983 33.6428 10 33.651C10.0002 33.6593 10.0027 33.6673 10.0074 33.6742C10.012 33.6811 10.0185 33.6865 10.0261 33.6899C13.399 35.3269 16.7361 36.6091 20.5369 37.046ZM26 26H30V30H34V34H30V38H26V34H22V30H26V26Z" fill="#348E7D"/>
</svg>
