<!-- by TradeStack --><svg width="56" height="56" viewBox="0 0 56 56" xmlns="http://www.w3.org/2000/svg"><path fill="#F0F3FA" d="M0 0h56v56H0z"/><path d="M20 20v4h-3.72a4.07 4.07 0 0 0-4.1 4c0 2.18 1.83 4 4.1 4H20v4h-4.71A8.17 8.17 0 0 1 7 27.98c0-4.4 3.71-7.98 8.29-7.98H20Zm27 4v-4h-4.71C37.7 20 34 23.58 34 28s3.71 8 8.29 8H47v-4h-6.9c-.66 0-1.19-.51-1.19-1.14 0-.63.53-1.36 1.18-1.36H47v-3h-6.86c-.68 0-1.23-.6-1.23-1.25S39.46 24 40.14 24H47ZM22 36v-4h6.73c.66 0 1.19-.5 1.19-1.18 0-.66-.53-1.32-1.19-1.32h-3.02c-2.6 0-4.71-2.04-4.71-4.69 0-2.66 2.1-4.8 4.7-4.8H33V24h-6.8a1.2 1.2 0 0 0-1.17 1.22c0 .66.53 1.28 1.17 1.28h3.1c2.6 0 4.7 2.06 4.7 4.7 0 2.65-2.1 4.8-4.7 4.8H22Z" fill="#A30D22"/></svg>