<?xml version='1.0' encoding='utf-8'?>
<!-- by TradeStack -->
<svg width="56" height="56" viewBox="0 0 56 56" xmlns="http://www.w3.org/2000/svg"><path fill="#F0F3FA" d="M0 0h56v56H0z" /><path d="M10.67 30.5a3 3 0 1 1 0-4.99c.34-.6.79-1.1 1.33-1.51a5 5 0 1 0 0 8c-.54-.4-1-.92-1.33-1.5Z" fill="#5FA845" /><path d="M16 30a1 1 0 1 1-2 0 1 1 0 0 1 2 0Zm0-2.83a3 3 0 1 0 0 5.66V33h2v-6h-2v.17Z" fill="#5FA845" /><path d="M40 30a1 1 0 1 1-2 0 1 1 0 0 1 2 0Zm0-2.83a3 3 0 1 0 0 5.66V33h2v-6h-2v.17ZM45 30a1 1 0 1 1 2 0 1 1 0 0 1-2 0Zm0 2.83a3 3 0 1 0 0-5.66V23l-2 1v9h2v-.17Z" fill="#0081BE" /><path d="M21 27h-2v6h2v-3.54c.1-.07.2-.15.33-.22.29-.17.53-.24.67-.24.35 0 .6.09.73.2.11.1.27.3.27.8v3h2v-3c0-1-.34-1.8-.98-2.33a3.12 3.12 0 0 0-3.02-.48V27ZM28 27h-2v6h2v-3.54c.1-.07.2-.15.33-.22.29-.17.53-.24.67-.24.35 0 .6.09.73.2.11.1.27.3.27.8v3h2v-3c0-1-.34-1.8-.98-2.33a3.12 3.12 0 0 0-3.02-.48V27Z" fill="#5FA845" /><path d="m35 23-2 1v2h-1v2h1v5h2v-5h1v-2h-1v-3Z" fill="#0081BE" /><circle cx="51" cy="32" r="1" fill="#5FA845" /></svg>