<!-- by TradeStack --><svg width="56" height="56" viewBox="0 0 56 56" xmlns="http://www.w3.org/2000/svg"><path fill="#F0F3FA" d="M0 0h56v56H0z"/><path d="M13.95 40h22.07c.76 0 1.22-.87.85-1.53l-1.76-2.95a.97.97 0 0 0-.86-.52H18.8c-.53 0-.8-.9-.8-1.5V21.95c0-.55.27-.95.8-.95h7.1c.4 0 .76-.24.95-.6l1.7-2.87c.37-.7-.1-1.53-.85-1.53H13.95c-.52 0-.95.45-.95 1.01V38.99c0 .56.43 1.01.95 1.01Z" fill="#0C79A8"/><path d="m30.34 20.4-6.2 10.98c-.4.73.1 1.62.88 1.62h3.54c.36 0 .69-.2.85-.52l2.96-4.96a1 1 0 0 1 1.77 0L40.85 40h4.16c.75 0 1.24-.86.85-1.55L36.2 20.4l-2.1-3.88a.93.93 0 0 0-1.67 0l-2.1 3.88Z" fill="#0CB4FF"/></svg>