<!-- by TradeStack --><svg viewBox="0 0 56 56" xmlns="http://www.w3.org/2000/svg"><path fill="#F0F3FA" d="M0 0h56v56H0z"/><path d="M28.92 26.93c.21-.25.44-.26.68-.03l.26.26c.24.22.25.46.04.7-1.1 1.3-2.7 2.59-4.48 2.7-1.5.08-2.46-1.07-2.66-2.41a6 6 0 0 1 .02-1.6c.4-3.19 1.74-5.91 3.99-8.17.6-.6 1.44-1.06 2.5-1.37.04-.01.1-.04.13-.08 1.84-2 5.18-2.73 7.9-2.93.2-.02.23-.08.06-.2a17.03 17.03 0 0 0-24.71 6.86c-1.75 3.49-2.02 7.42-1.23 11.16a16.08 16.08 0 0 0 5.18 8.77c4 3.6 8.7 5 14.14 4.19a15.7 15.7 0 0 0 8.9-4.39c4.52-4.42 6.18-9.73 4.98-15.95a14.9 14.9 0 0 0-1.15-3.51c-.03-.05-.06-.06-.11-.04-.71.34-1.34.27-1.89-.2-.33-.28-.52-.35-.91-.15a.29.29 0 0 0-.13.13.28.28 0 0 0-.03.18c.65 3.1-.95 6.58-4.38 7.26-.6.11-.99.22-1.16.3-.43.21-.8.52-1.11.91a.4.4 0 0 0-.01.48c.15.22.34.4.57.53.45.27 1.8 1.16 4.03 2.66 2.03 1.36 2.9 3.38 1.23 5.42a4.74 4.74 0 0 1-1.96 1.42 9.9 9.9 0 0 1-7.3.08c-2.27-.84-4.45-3.27-2.42-5.54 1.02-1.13 2.54-1.92 4.05-2.54l.03-.03a.08.08 0 0 0 .01-.07.08.08 0 0 0-.02-.04c-.93-.81-1.24-1.93-.15-2.8a11.92 11.92 0 0 1 1.5-1.01.08.08 0 0 0-.04-.11c-1.54-.96-2.08-2.35-1.87-4.14a6.4 6.4 0 0 1 3.27-4.88c.12-.07.2-.2.22-.3a107.77 107.77 0 0 1 1.12-3.03.12.12 0 0 0-.07-.09 12.62 12.62 0 0 0-3.83.83 4.94 4.94 0 0 0-1.36.86.07.07 0 0 0 .01.08l.03.02c1.38.6 1.68 2.53.23 3.22-.6.3-1.16.16-1.49-.4a1.63 1.63 0 0 1-.1-.26c-.05-.14-.1-.28-.19-.38-.94-1-2.18.88-2.51 1.61a15.5 15.5 0 0 0-1.32 5.2c-.06.8.03 1.45.27 1.97.2.42.57.56 1.11.4a4.44 4.44 0 0 0 2.13-1.55Zm9.83-12.08v.01l-1.25 3.21a.08.08 0 0 0 0 .07.08.08 0 0 0 .06.03 3.33 3.33 0 0 1 2.1 1.22.13.13 0 0 0 .09 0l.04-.01a4.83 4.83 0 0 1 2.16-.94c.05 0 .06-.03.04-.08-.05-.1-.14-.22-.26-.4a17.72 17.72 0 0 0-2.98-3.1Zm-4.91 7.7c.29-.9.71-1.7 1.29-2.44.44-.56 1.25-1.14 1.99-.94.7.18 1.02.89 1.06 1.53.11 1.81-.3 3.52-1.25 5.12-.46.78-1.44 1.5-2.37 1.31-1.78-.36-1.13-3.3-.72-4.59Zm2.08 16.59c2.56-.66 2.64-3.12.67-4.49a62.38 62.38 0 0 0-3.2-2.1.46.46 0 0 0-.4-.05c-1.09.4-2.02.95-2.8 1.66-1.15 1.05-1.21 2.7-.04 3.76a6.36 6.36 0 0 0 5.77 1.22Z" fill="#5D0749"/></svg>