<?xml version='1.0' encoding='utf-8'?>
<!-- by TradeStack -->
<svg width="56" height="56" viewBox="0 0 56 56" xmlns="http://www.w3.org/2000/svg"><path fill="#F0F3FA" d="M0 0h56v56H0z" /><path d="M39.8 38.7c2.76-3.75-17.35-4.55-16.85 2.8 1.46-5.38 7.36-1.32 10.85-.9 2.17.26 2.72.02 2.84-.28.3-.64 3.16-1.63 3.16-1.63v.01Zm1.7-19.62c-6.63-6.73-22.86.08-22.84 3.82 3.59-3.94 10.1-3.14 14.66-2.12 1.99.42 3.87 1.24 5.54 2.4h1.8c.41-1.13.83-2.85.84-4.1Zm2.49 8.32c.1 1.82-.53 4.6-1 5.52-.46.91-.08.15-.12.22-1.69-1.57-4.47-2.85-7.64-3.36-5.02-.8-12.18-.93-15.8 3.58 1.68-5.41 18.37-12.44 24.56-5.96Z" fill="url(#ag3rkwx1m)" /><path d="M41.9 35.77c-3.2-.06-6.4-.59-9.46-1.56-10.63-3.3-17.47-10.8-15.28-16.75.9-2.44 3.2-4.24 6.33-5.28.21-.07.44-.13.67-.18-1.78.66-3.08 1.69-3.67 3.04-1.7 3.96 3.47 9.27 11.13 11.7 4.56 1.46 9.09 1.6 12.37.66v.38c0 2.8-.71 5.55-2.08 7.99Zm-10 7.73c-.08 0 .78-.2.7-.2-8.46 1.03-16.42-2.03-19.94-10.44a16.22 16.22 0 0 0 5.85 8.06A15.99 15.99 0 0 0 31.9 43.5ZM12.27 31.52l-.03-.16c0 .06.02.11.03.16Zm-.09-.4-.03-.13.03.14Zm22.86 11.21c1.81-.9 3.44-2.15 4.8-3.66-2.64.22-5.3.08-7.88-.43-6.9-1.23-13.05-4.54-16.35-8.73-3.3-4.19-2.7-9.16.88-13.16-2.33 2.38-4.34 5.9-4.48 9.4-.1 2.5.9 5.04 2.72 7.37 3.42 4.34 9.33 7.46 16.48 8.74 1.27.23 2.55.38 3.83.46v.01Zm8.57-18.05a16.22 16.22 0 0 0-2.16-5.25c-2.2.7-5.87.35-9.12-1-3.25-1.33-5.07-3.29-4.61-4.73.19-.53.56-.97 1.05-1.25-.83.19-1.62.55-2.3 1.06-2.77 2.2-.1 6.18 5.94 8.87a25.64 25.64 0 0 0 11.2 2.29v.01Zm-7.9-10.93c-.52-.25-1.07-.45-1.64-.61.17.05.32.12.48.18 1.23.54 1.74 1.2 1.13 1.46-.6.27-2.1.04-3.32-.5-1.23-.53-1.74-1.19-1.13-1.45l.16-.05v-.03c-.27.01-.53.06-.78.16-.95.4-.2 1.44 1.67 2.3 1.87.87 4.15 1.23 5.1.83.96-.4.21-1.43-1.66-2.3Z" fill="url(#bg3rkwx1m)" /><defs><linearGradient id="ag3rkwx1m" x1="20.38" y1="25.25" x2="38.97" y2="32.42" gradientUnits="userSpaceOnUse"><stop stop-color="#B46F00" /><stop offset=".37" stop-color="#B57E00" /><stop offset=".63" stop-color="#F7E28F" /><stop offset=".68" stop-color="#F7E28F" /><stop offset=".85" stop-color="#B57E00" /><stop offset="1" stop-color="#B46F00" /></linearGradient><linearGradient id="bg3rkwx1m" x1="15.83" y1="23.4" x2="37.51" y2="31.06" gradientUnits="userSpaceOnUse"><stop stop-color="#325A5D" /><stop offset=".2" stop-color="#3B9DA5" /><stop offset=".38" stop-color="#B1DDE2" /><stop offset=".68" stop-color="#69B4A8" /><stop offset="1" stop-color="#003876" /></linearGradient></defs></svg>