<!-- by TradeStack --><svg width="56" height="56" viewBox="0 0 56 56" xmlns="http://www.w3.org/2000/svg"><path fill="#F0F3FA" d="M0 0h56v56H0z"/><path d="M19.42 20.52c3.09-2.27 3.66-5.3 3.56-6.52.85 2.1 2.55 7.6 2.55 12.7 0 6.4-3.5 10.3-7.45 10.3S11 34.59 11 30.13s4.56-6.76 8.42-9.6Z" fill="url(#a)"/><path d="M28.05 20.52c3.09-2.27 3.66-5.3 3.56-6.52.85 2.1 2.55 7.6 2.55 12.7 0 6.4-3.5 10.3-7.45 10.3s-7.08-2.41-7.08-6.87 4.56-6.76 8.42-9.6Z" fill="url(#b)"/><path d="M36.89 20.52c3.08-2.27 3.65-5.3 3.55-6.52.86 2.1 2.56 7.6 2.56 12.7 0 6.4-3.51 10.3-7.46 10.3-3.94 0-7.07-2.41-7.07-6.87s4.55-6.76 8.42-9.6Z" fill="url(#c)"/><path d="M33.86 22.66c.19 1.33.3 2.7.3 4.05 0 4-1.38 7.04-3.38 8.74-1.43-1.16-2.31-2.95-2.31-5.32 0-3.31 2.51-5.43 5.39-7.47Z" fill="url(#d)"/><path d="M25.2 22.53c.2 1.37.33 2.79.33 4.18 0 4.08-1.43 7.14-3.49 8.82-1.48-1.15-2.4-2.97-2.4-5.4 0-3.38 2.61-5.52 5.57-7.6Z" fill="url(#e)"/><path d="M17.4 23.28c.13.65.62 2.22 1.63 3.51a35.66 35.66 0 0 0 2.17-3.55 5.88 5.88 0 0 1-.76-2.5c.35.8.82 1.4 1.14 1.73 1.71-3.53 1.96-6.18 1.46-8.3l-.06-.17c.1 1.23-.47 4.25-3.56 6.52-.63.47-1.27.92-1.92 1.36-3.3 2.3-6.5 4.52-6.5 8.25 0 2.97 1.39 5.03 3.48 6.08.2-.92.62-2.3 1.42-4.04a11.16 11.16 0 0 1-1.88-6.08c.65 2.36 1.6 4.36 2.19 5.44a36 36 0 0 1 2.4-4.1 7.61 7.61 0 0 1-1.2-4.15Z" fill="url(#f)"/><path d="M14.3 43a29.6 29.6 0 0 1 .27-6.8c.2-.17.65-.52.82-.52-.59 3.93-.09 6.52.24 7.32H14.3Z" fill="#5C942D"/><defs><linearGradient id="a" x1="18.27" y1="14" x2="18.27" y2="37" gradientUnits="userSpaceOnUse"><stop stop-color="#B7CA22"/><stop offset="1" stop-color="#5A922D"/></linearGradient><linearGradient id="b" x1="26.9" y1="14" x2="26.9" y2="37" gradientUnits="userSpaceOnUse"><stop offset=".25" stop-color="#9BBEE6"/><stop offset="1" stop-color="#007EC4"/></linearGradient><linearGradient id="c" x1="35.17" y1="25.92" x2="40" y2="33.47" gradientUnits="userSpaceOnUse"><stop stop-color="#FFC804"/><stop offset="1" stop-color="#F98C18"/></linearGradient><linearGradient id="d" x1="31.32" y1="22.66" x2="31.32" y2="35.45" gradientUnits="userSpaceOnUse"><stop stop-color="#F6B621"/><stop offset="1" stop-color="#F5871D"/></linearGradient><linearGradient id="e" x1="27.1" y1="15.84" x2="26.9" y2="37" gradientUnits="userSpaceOnUse"><stop stop-color="#9BBEE6"/><stop offset=".59" stop-color="#0B83C7"/></linearGradient><linearGradient id="f" x1="10" y1="23.24" x2="16.27" y2="34.11" gradientUnits="userSpaceOnUse"><stop stop-color="#78A536"/><stop offset="1" stop-color="#598F32"/></linearGradient></defs></svg>