<?xml version='1.0' encoding='utf-8'?>
<!-- by TradeStack -->
<svg width="56" height="56" viewBox="0 0 56 56" xmlns="http://www.w3.org/2000/svg"><path fill="#F0F3FA" d="M0 0h56v56H0z" /><path d="m28 20.38-.87.04c-.64.1-1.25.27-1.84.5l-.88.44-.76.49a9.5 9.5 0 0 0-1.3 1.2c-.62.34-1.18.59-1.7.72-1.53.4-3.14.04-4.21-1.13a4.38 4.38 0 0 1-.96-3.63c.06-.39.13-.77.22-1.16a16 16 0 0 1 4.84-3.93A15.69 15.69 0 0 1 28 12v8.37Z" fill="url(#a)" /><path d="M15.7 17.85c-.09.39-.16.77-.22 1.16a4.38 4.38 0 0 0 .96 3.63 4.17 4.17 0 0 0 4.21 1.13 7.15 7.15 0 0 0 1.7-.73 8.05 8.05 0 0 0-1.57 2.87 7.8 7.8 0 0 0-.22 4.12c-.45 1.23-1.03 2.4-2.2 3.07-1.4.82-3.27.72-4.57-.23a6.6 6.6 0 0 1-1.6-1.85L12 29.56v-2.41l.2-1.64c.31-1.7.83-3.22 1.6-4.78.51-1.03 1.14-2 1.9-2.88Z" fill="#9FF337" /><path d="m20.76 30.75-.2-.72c-.45 1.23-1.03 2.4-2.2 3.07-1.4.82-3.27.72-4.57-.23a6.6 6.6 0 0 1-1.6-1.85 14.83 14.83 0 0 0 3.78 7.8c1.9 1.91 4.22 3.44 6.79 4.32 1.38.05 2.74-.11 3.8-1.07a3.8 3.8 0 0 0 1.23-2.36 4.16 4.16 0 0 0-.91-3.36c-.23-.28-.53-.6-.91-.96a9.04 9.04 0 0 1-3.69-2.13c-.7-.7-1.2-1.54-1.52-2.5Z" fill="url(#b)" /><path d="M41.42 37.1a14.54 14.54 0 0 1-3.05 3.34c-1.12.9-2.35 1.64-3.66 2.23-.44.2-.89.36-1.36.5a19.53 19.53 0 0 1-6.2.8l-.78-.07a15.64 15.64 0 0 1-3.61-.76c1.38.05 2.74-.11 3.8-1.07a3.8 3.8 0 0 0 1.23-2.36 4.16 4.16 0 0 0-.91-3.36c-.23-.28-.53-.6-.91-.96a8.3 8.3 0 0 0 4.12 0c.62-.11 1.17-.3 1.67-.56.57-.3 1.1-.68 1.61-1.12.42-.38.77-.8 1.06-1.25.62-1.03.99-2.1 1.09-3.19l.07-.72c.02-.16.02-.28.02-.41V28c-.01 0 .01 0 0 0H44a16.45 16.45 0 0 1-2.58 9.1Z" fill="url(#c)" /><defs><linearGradient id="a" x1="26.49" y1="14.22" x2="19.6" y2="24.43" gradientUnits="userSpaceOnUse"><stop stop-color="#3FCEEF" /><stop offset="1" stop-color="#9FF337" /></linearGradient><linearGradient id="b" x1="18.58" y1="33.08" x2="27.79" y2="39.53" gradientUnits="userSpaceOnUse"><stop stop-color="#9FF337" /><stop offset="1" stop-color="#30DA76" /></linearGradient><linearGradient id="c" x1="44" y1="34.26" x2="27.72" y2="38.63" gradientUnits="userSpaceOnUse"><stop stop-color="#1BA299" /><stop offset="1" stop-color="#30DA76" /></linearGradient></defs></svg>