<!-- by TradeStack --><svg width="56" height="56" viewBox="0 0 56 56" xmlns="http://www.w3.org/2000/svg"><path fill="#F0F3FA" d="M0 0h56v56H0z"/><path d="M52 23v10h-1.57l-4.59-6.81h-.24V33H44V23h1.58l4.58 6.82h.24V23H52ZM42.68 28a5.9 5.9 0 0 1-.57 2.7 4.12 4.12 0 0 1-1.54 1.7c-.65.4-1.38.6-2.2.6-.83 0-1.56-.2-2.21-.6a4.2 4.2 0 0 1-1.54-1.71 5.93 5.93 0 0 1-.57-2.69c0-1.05.19-1.95.57-2.69.37-.75.89-1.32 1.54-1.72.65-.4 1.38-.59 2.2-.59a4.11 4.11 0 0 1 3.74 2.31c.39.74.58 1.64.58 2.69Zm-1.71 0c0-.74-.11-1.36-.34-1.87-.22-.5-.52-.9-.91-1.15-.4-.27-.85-.4-1.36-.4a2.37 2.37 0 0 0-2.27 1.55 4.7 4.7 0 0 0-.33 1.87c0 .74.11 1.36.33 1.87.22.51.53.9.92 1.16.4.26.84.39 1.35.39.51 0 .97-.13 1.36-.4.39-.26.7-.64.91-1.15.23-.5.34-1.13.34-1.87ZM26 33V23h3.52c.72 0 1.33.13 1.82.4s.86.64 1.1 1.12c.26.48.39 1.04.39 1.68 0 .64-.13 1.2-.39 1.67a2.6 2.6 0 0 1-1.12 1.09c-.5.25-1.1.38-1.82.38h-2.51V28h2.28c1.02 0 1.83-.81 1.83-1.8 0-.36-.07-.66-.2-.91a1.29 1.29 0 0 0-.6-.58c-.27-.13-.62-.2-1.04-.2H27.7V33H26Zm4.85-4.53L33.17 33h-1.9L29 28.47h1.86ZM17 24.52V23h7.49v1.52h-2.9V33H20v-8.48h-3ZM15.6 23v10H14V23h1.6ZM12.27 26.42h-1.71c-.05-.3-.14-.55-.27-.78a2.06 2.06 0 0 0-1.16-.93 2.52 2.52 0 0 0-.8-.13c-.51 0-.97.14-1.36.4-.4.26-.7.65-.93 1.16A4.6 4.6 0 0 0 5.71 28c0 .74.11 1.37.33 1.88.23.5.54.9.93 1.15a2.64 2.64 0 0 0 2.14.27 2.13 2.13 0 0 0 1.17-.9c.13-.23.23-.48.28-.76h1.71a3.93 3.93 0 0 1-1.24 2.38c-.35.3-.75.55-1.2.72-.46.17-.97.26-1.53.26a4.1 4.1 0 0 1-3.74-2.31A5.97 5.97 0 0 1 4 28c0-1.05.19-1.95.56-2.69.38-.75.9-1.32 1.54-1.72a4.52 4.52 0 0 1 3.66-.37 3.7 3.7 0 0 1 2.51 3.2Z"/></svg>