<?xml version='1.0' encoding='utf-8'?>
<!-- by TradeStack -->
<svg width="56" height="56" viewBox="0 0 56 56" xmlns="http://www.w3.org/2000/svg"><path fill="#6E8A94" d="M0 0h56v56H0z" /><path fill-rule="evenodd" d="M13.26 22.85a2.4 2.4 0 0 0 1.36.08 1.92 1.92 0 0 0 .86-.47l-.17-.24a.97.97 0 0 1-.3.26 1.82 1.82 0 0 1-.9.24 1.8 1.8 0 0 1-1.29-.49 1.65 1.65 0 0 1-.37-.55 1.8 1.8 0 0 1-.13-.7c0-.24.04-.47.12-.68a1.6 1.6 0 0 1 .9-.9 1.87 1.87 0 0 1 1.2-.04c.16.05.31.12.45.22.14.09.25.19.34.31l.22-.22c-.1-.13-.24-.24-.4-.35a2.17 2.17 0 0 0-2.58.24 1.93 1.93 0 0 0-.57 1.43c0 .29.05.56.16.8a1.94 1.94 0 0 0 1.1 1.06ZM20 19v4h.27v-1.97a9.16 9.16 0 0 0-.02-.6v-.48l-.02-.45v-.04L22.75 23H23v-4h-.27v1.99a24.32 24.32 0 0 1 .02 1.1v.45L20.25 19H20Zm5 4v-3.71h-1.3V19h2.95v.29h-1.33V23H25Zm2.66-4v4H28v-1.65h1.41L30.49 23h.38l-1.12-1.69c.1-.02.2-.06.3-.1.2-.1.35-.23.47-.4.11-.18.17-.38.17-.6 0-.23-.06-.44-.18-.62a1.27 1.27 0 0 0-.5-.43c-.2-.1-.45-.16-.71-.16h-1.64Zm1.74 2.07H28v-1.78h1.28c.2 0 .39.04.55.12a.87.87 0 0 1 .52.81.8.8 0 0 1-.13.44.8.8 0 0 1-.33.3c-.14.07-.3.1-.5.1ZM31.6 23l1.68-4h.43l1.66 4h-.36l-.5-1.2h-2.08l-.5 1.2h-.33Zm2.27-2.77.53 1.28h-1.85l.51-1.24.14-.32a76.95 76.95 0 0 1 .28-.72l.06.16a9.7 9.7 0 0 0 .33.84ZM36 23v-4h.32v3.71h2.18V23H36Zm-19.32-.06v-3.9h2.73v.27H17v1.48h2.03v.28H17v1.6h2.39v.27h-2.71Zm3.66 13.98a2.21 2.21 0 0 0 1.4-.06c.22-.1.4-.23.53-.4a.9.9 0 0 0 .2-.56.81.81 0 0 0-.39-.71 1.97 1.97 0 0 0-.44-.22 4.7 4.7 0 0 0-.57-.15l-.52-.14c-.15-.04-.27-.1-.37-.15a.64.64 0 0 1-.2-.21.57.57 0 0 1-.07-.27c0-.15.05-.29.14-.4a.9.9 0 0 1 .38-.27c.16-.07.34-.1.54-.1a1.36 1.36 0 0 1 .87.3c.11.08.22.2.31.32l.24-.2a2 2 0 0 0-.36-.37c-.13-.1-.28-.18-.46-.24a1.8 1.8 0 0 0-.6-.09c-.2 0-.38.03-.54.08a1.4 1.4 0 0 0-.44.21.87.87 0 0 0-.4.75c0 .16.02.29.08.4.06.1.14.2.25.28.12.08.25.14.41.2a6.95 6.95 0 0 0 .96.27 2.27 2.27 0 0 1 .62.27.56.56 0 0 1 .23.46c0 .15-.05.3-.15.41-.1.12-.25.22-.42.29-.18.07-.38.1-.61.1-.26 0-.5-.05-.73-.15-.23-.1-.44-.28-.63-.52l-.23.21c.13.16.27.3.43.41a2 2 0 0 0 .54.25ZM25 37a2.05 2.05 0 0 1-1.44-.56 1.87 1.87 0 0 1-.41-.63 2.15 2.15 0 0 1 0-1.6 1.85 1.85 0 0 1 1.04-1.06c.25-.1.52-.15.8-.15a2.09 2.09 0 0 1 1.45.56A2.06 2.06 0 0 1 27 35c0 .3-.05.56-.15.8a1.87 1.87 0 0 1-1.05 1.05c-.24.1-.51.15-.8.15Zm0-.28a1.61 1.61 0 0 0 1.22-.48A1.8 1.8 0 0 0 26.7 35a1.8 1.8 0 0 0-.49-1.23 1.74 1.74 0 0 0-1.22-.49 1.67 1.67 0 0 0-1.21.49 1.68 1.68 0 0 0-.47 1.23c0 .25.04.48.12.7.09.2.2.38.35.54a1.63 1.63 0 0 0 1.22.48Zm13.34.13a2.71 2.71 0 0 0 1.46.08 2.23 2.23 0 0 0 .91-.47l-.18-.24c-.08.1-.18.18-.32.26a2.01 2.01 0 0 1-.96.24c-.28 0-.54-.04-.77-.13a1.65 1.65 0 0 1-1.14-1.6c0-.25.04-.48.13-.69.1-.2.22-.39.38-.54.17-.15.36-.27.59-.35a2.1 2.1 0 0 1 1.27-.05c.17.05.33.12.48.22.15.09.27.19.36.3l.24-.2a1.7 1.7 0 0 0-.43-.36 2.4 2.4 0 0 0-1.18-.32c-.31 0-.6.05-.87.15a1.86 1.86 0 0 0-1.3 1.84 1.95 1.95 0 0 0 1.33 1.86Zm8.14.15a2 2 0 0 1-1.15-.33 1.9 1.9 0 0 1-.43-.4l.23-.22c.2.24.4.41.63.52a1.8 1.8 0 0 0 1.34.05c.17-.07.31-.17.42-.29a.62.62 0 0 0 .1-.68.56.56 0 0 0-.18-.2 2.27 2.27 0 0 0-.62-.26l-.41-.1-.55-.17a1.5 1.5 0 0 1-.4-.2.84.84 0 0 1-.26-.28.87.87 0 0 1-.09-.4.87.87 0 0 1 .4-.75 1.85 1.85 0 0 1 .99-.3c.23.01.43.04.6.1.18.06.33.14.46.24a2 2 0 0 1 .36.37l-.24.2a1.8 1.8 0 0 0-.31-.33 1.36 1.36 0 0 0-.87-.3c-.2.01-.38.04-.54.11a.9.9 0 0 0-.38.27.61.61 0 0 0-.14.4c0 .1.02.2.06.27.05.08.12.15.21.2a3.99 3.99 0 0 0 .9.3c.2.04.4.1.56.15a2 2 0 0 1 .44.22.81.81 0 0 1 .39.72c0 .2-.07.4-.2.56-.13.16-.3.3-.54.39-.23.1-.49.14-.78.14ZM42 36.92V33h2.6v.28h-2.28v1.48h1.9v.28h-1.9v1.6h2.25v.28H42ZM33 37v-4h1.6c.27 0 .5.05.7.16.21.1.38.25.5.43a1.18 1.18 0 0 1 0 1.22c-.1.17-.26.3-.46.4-.1.04-.19.08-.29.1l1.1 1.69h-.37l-1.06-1.65h-1.4V37H33Zm.32-1.93h1.39c.18 0 .34-.04.48-.11a.82.82 0 0 0 .45-.74.88.88 0 0 0-.51-.81 1.18 1.18 0 0 0-.54-.12h-1.27v1.78Zm-4.5 1.73c.25.13.55.2.87.2.34 0 .64-.07.9-.2a1.52 1.52 0 0 0 .83-1.35V33h-.31v2.4a1.28 1.28 0 0 1-.68 1.15 1.61 1.61 0 0 1-1.44 0 1.26 1.26 0 0 1-.67-1.16V33H28v2.44a1.5 1.5 0 0 0 .82 1.36ZM16 37v-4h2.6v.29h-2.28v1.5h1.9v.29h-1.9v1.63h2.25V37H16Zm-4-4v4h.3v-1.65h1.34l1 1.65H15l-1.04-1.69c.1-.02.18-.06.27-.1a1.1 1.1 0 0 0 .6-1c0-.23-.05-.44-.16-.62a1.22 1.22 0 0 0-.47-.43c-.2-.1-.42-.16-.67-.16H12Zm1.63 2.07H12.3v-1.78h1.21c.2 0 .37.04.52.12a.88.88 0 0 1 .48.8.85.85 0 0 1-.42.75.95.95 0 0 1-.46.1ZM12 30v-4h.27L15 29.5V26h.3v4h-.28l-2.76-3.54v.49l.02.47a15.85 15.85 0 0 1 .01.61V30H12Zm5.73-4-1.9 4h.37l.47-1h2.57l.47 1h.4l-1.89-4h-.49Zm1.36 2.7-.68-1.47a27.83 27.83 0 0 1-.38-.84l-.07-.16a4.74 4.74 0 0 1-.2.45l-.12.27-.15.32-.67 1.43h2.27ZM21 30v-3.71h-1.26V26h2.92v.29h-1.33V30H21Zm2.72-.2c.22.13.48.2.77.2a1.47 1.47 0 0 0 1.32-.75c.12-.24.19-.5.19-.8V26h-.27v2.4c0 .25-.06.48-.17.68a1.17 1.17 0 0 1-1.07.64 1.15 1.15 0 0 1-1.05-.64c-.1-.2-.16-.43-.16-.69V26H23v2.44c0 .3.06.57.19.8.13.24.3.43.53.56ZM27 30v-4h1.7c.27 0 .52.05.73.16.22.1.4.25.52.43a1.04 1.04 0 0 1 0 1.22c-.1.17-.27.3-.48.4-.1.04-.2.08-.3.1L30.32 30h-.39l-1.12-1.65h-1.47V30H27Zm.34-1.93h1.46c.2 0 .37-.04.51-.11a.82.82 0 0 0 .47-.74.84.84 0 0 0-.14-.48.95.95 0 0 0-.4-.33 1.3 1.3 0 0 0-.57-.12h-1.33v1.78ZM32.86 26 31 30h.36l.56-1.2h2.3l.55 1.2h.4l-1.84-4h-.47Zm1.23 2.5-.58-1.27a30.27 30.27 0 0 1-.37-.84l-.06-.16a4.89 4.89 0 0 1-.2.45l-.12.27-.14.32-.57 1.24h2.04ZM36 26v4h2.5v-.29h-2.18V26H36Z" /></svg>