<?xml version='1.0' encoding='utf-8'?>
<!-- by TradeStack -->
<svg width="56" height="56" viewBox="0 0 56 56" xmlns="http://www.w3.org/2000/svg"><path fill="#262265" d="M0 0h56v56H0z" /><path d="M25.55 14h4.9L32 17h-8l1.55-3ZM25.55 22h4.9L32 25h-8l1.55-3ZM15.55 22h4.9L22 25h-8l1.55-3ZM35.55 22h4.9L42 25h-8l1.55-3ZM20.55 18h4.9L27 21h-8l1.55-3ZM30.55 18h4.9L37 21h-8l1.55-3ZM20.55 26h4.9L27 29h-8l1.55-3ZM10.55 26h4.9L17 29H9l1.55-3ZM30.55 26h4.9L37 29h-8l1.55-3ZM40.55 26h4.9L47 29h-8l1.55-3Z" fill="#FFD400" /><path fill="#fff" d="M14 34h1v5h-1zM14 32h1v1h-1zM22 34h1v5h-1zM21 32h-5v1h2v6h1v-6h2v-1ZM22 32h1v1h-1zM10.1 32c-1.16 0-2.1.93-2.1 2.08v2.84c0 1.15.94 2.08 2.1 2.08H13v-1h-2.84C9.52 38 9 37.5 9 36.86v-2.72c0-.63.52-1.14 1.16-1.14H13v-1h-2.9Z" /><path d="M44 32h-1v7h1v-7Zm4 2.08c0-1.15-.75-2.08-1.67-2.08H44v1h2.03c.54 0 .97.5.97 1.14v2.72c0 .63-.43 1.14-.97 1.14H44v1h2.33c.92 0 1.67-.93 1.67-2.08v-2.84ZM39 32h-1v5.83c0 .65.55 1.17 1.23 1.17H42v-1h-3v-6Z" fill="#FFD400" /><path fill-rule="evenodd" d="M33.05 32c-1.13 0-2.05.89-2.05 1.98v3.04c0 1.1.92 1.98 2.05 1.98h1.9c1.13 0 2.05-.89 2.05-1.98v-3.04c0-1.1-.92-1.98-2.05-1.98h-1.9ZM33 33c-.55 0-1 .38-1 .85v3.3c0 .47.45.85 1 .85h2c.55 0 1-.38 1-.85v-3.3c0-.47-.45-.85-1-.85h-2Z" fill="#FFD400" /><path d="M25.9 32H29v1h-2.84c-.64 0-1.16.42-1.16.94v3.24c0 .45.46.82 1.02.82h1.96c.56 0 1.02-.37 1.02-.82V36h-2v-1h3v2.24c0 .97-.85 1.76-1.9 1.76h-2.2c-1.05 0-1.9-.79-1.9-1.76v-3.48c0-.97.85-1.76 1.9-1.76Z" fill="#FFD400" /></svg>