<!-- by TradeStack --><svg width="56" height="56" viewBox="0 0 56 56" xmlns="http://www.w3.org/2000/svg"><path fill="#E94F1D" d="M0 0h56v56H0z"/><path fill-rule="evenodd" d="M17 15h-3v10h3v-.9c.53.56 1.23.9 2 .9 1.66 0 3-1.57 3-3.5S20.66 18 19 18c-.77 0-1.47.34-2 .9V15Zm0 6.5a1.5 1.5 0 1 0 3 0 1.5 1.5 0 0 0-3 0Zm8.07-3.5H22l2.89 6.04L23.86 27h2.5L30 18h-2.39l-1.43 3.34L25.07 18Zm-1.3 18.5a5 5 0 1 1 0-3h-3.12c-.32-.6-.83-1-1.4-1-.97 0-1.75 1.12-1.75 2.5s.78 2.5 1.75 2.5c.57 0 1.08-.4 1.4-1h3.12ZM33 30h-9v2.5h3V40h3v-7.5h3V30Zm1 0h5.71c1.82 0 3.29 1.57 3.29 3.5S41.53 37 39.71 37H37v3h-3V30Zm5.27 4.5H37v-2h2.27c1 0 1.23.6 1.23 1s-.3 1-1.23 1ZM43 37h3v3h-3v-3Z" fill="#fff"/></svg>