<?xml version='1.0' encoding='utf-8'?>
<!-- by TradeStack -->
<svg width="56" height="56" viewBox="0 0 56 56" xmlns="http://www.w3.org/2000/svg"><path fill="#F0F3FA" d="M0 0h56v56H0z" /><path d="M28.11 33.9c11.4 0 20.66-3.12 20.66-6.96 0-2.36-3.49-4.45-8.82-5.7C46.57 22.53 51 24.88 51 27.57 51 31.68 40.7 35 28 35S5 31.68 5 27.58c0-2.86 5-5.34 12.33-6.58-5.92 1.22-9.88 3.42-9.88 5.94 0 3.84 9.25 6.95 20.66 6.95Z" fill="#1882A1" /><path d="M28.08 22.14c8.03 0 14.55 2.22 14.55 4.95 0 1.68-2.46 3.16-6.21 4.05 4.66-.92 7.78-2.6 7.78-4.5 0-2.92-7.25-5.28-16.2-5.28s-16.2 2.36-16.2 5.27c0 2.03 3.52 3.8 8.68 4.68-4.17-.87-6.95-2.43-6.95-4.22 0-2.73 6.51-4.95 14.55-4.95Z" fill="#184377" /><path d="M28.12 29.2c3.92 0 7.1-1.17 7.1-2.62 0-.76-.9-1.45-2.31-1.93 3.08.56 5.17 1.63 5.17 2.86 0 1.82-4.51 3.29-10.08 3.29s-10.08-1.47-10.08-3.29c0-1.3 2.31-2.41 5.67-2.95-1.57.48-2.57 1.2-2.57 2.02 0 1.45 3.18 2.62 7.1 2.62Z" fill="#1882A1" /><path d="M28.06 25.78c1.87 0 3.4.56 3.4 1.25 0 .37-.43.7-1.11.93 1.47-.27 2.47-.78 2.47-1.37 0-.87-2.16-1.57-4.82-1.57s-4.82.7-4.82 1.57c0 .62 1.1 1.15 2.7 1.4-.74-.22-1.22-.57-1.22-.96 0-.69 1.52-1.25 3.4-1.25Z" fill="#184377" /></svg>