<!-- by TradeStack --><svg width="56" height="56" viewBox="0 0 56 56" fill="none" xmlns="http://www.w3.org/2000/svg">
<rect width="56" height="56" fill="#892332"/>
<path fill-rule="evenodd" clip-rule="evenodd" d="M44 28C44 37.3888 36.8366 45 28 45C19.1634 45 12 37.3888 12 28C12 18.6112 19.1634 11 28 11C36.8366 11 44 18.6112 44 28ZM43 28C43 36.8366 36.2843 44 28 44C19.7157 44 13 36.8366 13 28C13 19.1634 19.7157 12 28 12C36.2843 12 43 19.1634 43 28ZM25 32.728V41H20.8573C21.1357 41.1586 21.4995 41.3809 21.8906 41.6199L21.891 41.6201L21.8912 41.6202C22.9246 42.2517 24.1492 43 24.4952 43H27V13H25V19.6179L20.4906 14.8973L19.0649 16.2352L25 21.923V28.7808L16.2763 19.8601C15.8764 20.3635 15.0459 21.389 14.9228 21.4629L22.7054 29.0766L14 27.7511V29.7856L23.1975 30.8952L25 32.728ZM24 13.2126C23.3139 13.6055 21.9752 14.4074 21.8885 14.4717L24 16.3469V13.2126ZM17.0038 18.547L18.4331 16.9667L24 23.2124V25.4348L17.0038 18.547ZM14.3678 24.8498C14.4652 24.4176 14.5715 23.9455 14.646 23.5883L17.9682 26H14.1231C14.1231 25.9362 14.2374 25.4289 14.3678 24.8499L14.3678 24.8498ZM31 32.728V41H35.1427C34.8642 41.1587 34.5003 41.3811 34.1089 41.6202L34.1089 41.6202L34.1088 41.6202C33.0754 42.2517 31.8508 43 31.5048 43H29V13H31V19.6179L35.5094 14.8973L36.9351 16.2352L31 21.923V28.7808L39.7237 19.8601C40.1236 20.3635 40.9541 21.389 41.0772 21.4629L33.2946 29.0766L42 27.7511V29.7856L32.8025 30.8952L31 32.728ZM33.2794 13.9267L33.2795 13.9267C33.7755 14.201 34.2039 14.438 34.2494 14.4717L32 16.3469V13.2126C32.3259 13.3993 32.8302 13.6782 33.2791 13.9265L33.2794 13.9267ZM38.9962 18.547L37.5669 16.9667L32 23.2584V25.4808L38.9962 18.547ZM41.6322 24.8499C41.5348 24.4177 41.4285 23.9456 41.354 23.5883L38.0318 26H41.8769C41.8769 25.9362 41.7626 25.4289 41.6322 24.8499Z" fill="white"/>
</svg>
