<!-- by TradeStack --><svg width="56" height="56" viewBox="0 0 56 56" xmlns="http://www.w3.org/2000/svg"><path fill="url(#aw0rutujp)" d="M0 0h56v56H0z"/><path d="M35.1 15.6a14.25 14.25 0 0 0-14.13.29 13.68 13.68 0 0 0-6.74 9.42 12.78 12.78 0 0 0-.08 4.95A14.35 14.35 0 0 0 26.9 42.1a14.8 14.8 0 0 0 11.48-3.76c.02 0 .04 0 .05.02l1.1 1.24.02.03a.08.08 0 0 1 0 .06l-.02.02c-3.74 3.39-8.2 4.7-13.16 4.2-5.51-.55-10.39-4-12.78-9.05a15.34 15.34 0 0 1-.9-11.35 16.1 16.1 0 0 1 11.14-10.88c5.46-1.56 11.2-.1 15.53 3.52.13.1.14.22.04.35l-.84 1.1c-.1.13-.2.14-.33.05a26.4 26.4 0 0 0-3.13-2.03Z" fill="#fff"/><path d="M38.35 27.04c1.27.09 2.66.28 3.7 1 3.2 2.2 2.15 6.7-.91 8.3-2.5 1.32-5.74.5-8.08-1-.06-.03-.07-.08-.04-.14l.73-1.46a.1.1 0 0 1 .06-.05.09.09 0 0 1 .07.01c1.66 1.08 4.13 1.97 6.07 1.16 1.64-.68 2.31-2.04 2.01-4.06-.23-1.62-2.27-1.8-3.58-1.8h-2.22c-.07 0-.16-.06-.16-.13v-1.44c0-.12.07-.23.14-.31l4.56-5.04c.03-.03 0-.08-.04-.08h-6.6a.07.07 0 0 1-.06-.07v-1.86l.02-.05a.06.06 0 0 1 .05-.02h8.85c.08 0 .12.04.12.12.04.48.12 1.21-.22 1.58a151.5 151.5 0 0 0-4.53 5.2c-.08.08-.06.13.06.14ZM28.5 25a1.5 1.5 0 1 0 0-3 1.5 1.5 0 0 0 0 3ZM28.5 30a1.5 1.5 0 1 0 0-3 1.5 1.5 0 0 0 0 3ZM28.5 35a1.5 1.5 0 1 0 0-3 1.5 1.5 0 0 0 0 3Z" fill="#fff"/><defs><linearGradient id="aw0rutujp" x1="10.42" y1="9.71" x2="68.15" y2="76.02" gradientUnits="userSpaceOnUse"><stop stop-color="#1A1E21"/><stop offset="1" stop-color="#06060A"/></linearGradient></defs></svg>