<!-- by TradeStack --><svg width="56" height="56" viewBox="0 0 56 56" xmlns="http://www.w3.org/2000/svg"><path fill="#F0F3FA" d="M0 0h56v56H0z"/><path d="M10.14 22A6.07 6.07 0 0 0 4 28c0 3.31 2.75 6 6.14 6h3.76l2.25-3h-5.48C9.2 31 8 29.44 8 28s1.2-3 2.67-3h4.08L17 22h-6.86Z" fill="#00539B"/><path d="M18.91 22H22l-3.91 6H15l3.91-6Z" fill="#E4031B"/><path d="m24 22-8 12h4.15L24 28v6l4-.07L32 28v6h4V22h-4l-4 6v-6h-4ZM39 22h-1v12h4v-9h3.86c1.47 0 2.13.8 2.13 2s-.79 2-2.26 2H43v3h3.27c3.39 0 5.73-2.24 5.73-5s-2.34-5-5.73-5H39Z" fill="#00539B"/></svg>