<!-- by TradeStack --><svg width="56" height="56" viewBox="0 0 56 56" xmlns="http://www.w3.org/2000/svg"><path fill="#00833F" d="M0 0h56v56H0z"/><path d="M23.68 13C17.78 13 13 17.78 13 23.68v7.64C13 37.22 17.78 42 23.68 42H42v-6H23.77A4.76 4.76 0 0 1 19 31.24v-7.48A4.76 4.76 0 0 1 23.76 19h7.48a4.76 4.76 0 0 1 4.63 3.64l5.71-1.93A10.68 10.68 0 0 0 31.32 13h-7.64ZM42 24.87V32h-6v-5.17l6-1.96ZM25.38 23A2.38 2.38 0 0 0 23 25.38v4.24A2.38 2.38 0 0 0 25.38 32h4.24A2.38 2.38 0 0 0 32 29.62v-4.24A2.38 2.38 0 0 0 29.62 23h-4.24Z" fill="#fff"/></svg>