<!-- by TradeStack --><svg width="56" height="56" viewBox="0 0 56 56" xmlns="http://www.w3.org/2000/svg"><path fill="url(#arwagsx0t)" d="M0 0h56v56H0z"/><path d="M14.5 30.5a2 2 0 0 0 2-2.03c0-1.05-.84-1.97-2-1.97-1.19 0-2 .95-2 2-.03 1.05.81 2 2 2Zm0-5.5a3.4 3.4 0 0 1 3.5 3.5 3.4 3.4 0 0 1-3.5 3.5 3.4 3.4 0 0 1-3.5-3.5 3.4 3.4 0 0 1 3.5-3.5ZM8.84 27.15c-.38-.41-.8-.65-1.25-.65-1.21 0-2.09.95-2.09 2s.9 2 2.1 2c.5 0 .97-.2 1.27-.62l1.1 1.2a3.7 3.7 0 0 1-2.38.92C5.6 32 4 30.6 4 28.5S5.6 25 7.6 25c.83 0 1.75.3 2.4 1.02l-1.16 1.13ZM19 25h1.8l1.73 4.9h.03l1.76-4.9H26l-2.59 7h-1.73L19 25ZM31.5 28.86h-.48c-.9 0-2.42.06-2.42 1.02 0 .6.61.86 1.13.86 1.11 0 1.77-.6 1.77-1.52v-.36Zm0 2.06A2.45 2.45 0 0 1 29.36 32c-1.2 0-2.36-.69-2.36-2 0-2.16 2.44-2.3 4.07-2.3h.43v-.19c0-.8-.63-1.25-1.5-1.25-.67 0-1.28.27-1.72.68l-.84-.86A3.76 3.76 0 0 1 30.2 25c2.76 0 2.8 2.07 2.8 3v4h-1.5v-1.08ZM36.5 22H35v10h1.5V22ZM41.5 30.5a2 2 0 0 0 2-2.03c0-1.05-.81-1.97-2-1.97s-1.9.92-1.9 1.97c0 1.05.71 2.03 1.9 2.03Zm0-5.5a3.4 3.4 0 0 1 3.5 3.5 3.4 3.4 0 0 1-3.5 3.5 3.4 3.4 0 0 1-3.5-3.5 3.4 3.4 0 0 1 3.5-3.5ZM46 25h1.5v1.26c0-.68 1.03-1.26 2.12-1.26 1.76 0 2.38 1.29 2.38 2.7V32h-1.5v-3.47c0-.77-.2-2-1.35-2-1.1 0-1.65.83-1.65 1.76V32H46v-7Z" fill="#F0F3FA"/><defs><linearGradient id="arwagsx0t" x1="11" y1="6" x2="43" y2="49" gradientUnits="userSpaceOnUse"><stop stop-color="#273863"/><stop offset="1" stop-color="#30679E"/></linearGradient></defs></svg>