<!-- by TradeStack --><svg xmlns="http://www.w3.org/2000/svg" width="56" height="56" viewBox="0 0 56 56"><path fill="#F0F3FA" d="M0 0h56v56H0z"/><path d="M39.35 16.6a16.36 16.36 0 0 0-9.9-4.6c-.28 0-.5.25-.5.56 0 .12.03.21.12.3l5.84 5.71c0 .1 0 .1-.1.1a11.1 11.1 0 0 0-5.46-2.07c-.18-.03-.34.09-.37.27 0 .1.03.19.1.28l3.97 3.95s0 .1-.1 0a8.22 8.22 0 0 0-3.6-1.23c-.18 0-.28.18-.18.37l6.7 6.66c.19.18.47 0 .38-.19A7.51 7.51 0 0 0 35 23.14c-.09 0 0-.1 0 0l3.88 3.76c.2.18.56 0 .56-.28a11.9 11.9 0 0 0-2.08-5.52c-.09 0 0-.1 0 0l5.87 5.7c.16.2.4.22.6.1.15-.1.2-.28.15-.46a15.92 15.92 0 0 0-4.63-9.84Z" fill="#00ADFF"/><path d="M16.63 16.6a16.7 16.7 0 0 1 9.9-4.6c.28 0 .5.19.53.46 0 .13-.03.28-.16.37l-5.74 5.74c-.1.1 0 .1 0 .1a11.42 11.42 0 0 1 5.56-2.07c.27 0 .46.37.27.55l-3.94 3.95c-.1 0 0 .1 0 0a8.63 8.63 0 0 1 3.6-1.23c.19 0 .38.18.19.37L20.1 26.9c-.18.18-.37 0-.37-.19.12-1.26.59-2.5 1.34-3.57 0 0-.1-.1-.1 0l-3.79 3.76c-.27.18-.65 0-.55-.28.18-2 .9-3.92 2.08-5.52 0 0-.1-.1-.1 0l-5.77 5.7c-.37.38-.84.1-.84-.36a16.5 16.5 0 0 1 4.63-9.84Z" fill="#F05245"/><path d="M16.63 39.4a15.79 15.79 0 0 0 9.9 4.59c.25.03.46-.12.5-.37.03-.15-.04-.28-.13-.4l-5.74-5.8c-.1 0 0-.1 0 0a11.08 11.08 0 0 0 5.56 2.03c.27 0 .46-.37.27-.55l-3.94-3.92c-.1-.09 0-.09 0-.09a7.8 7.8 0 0 0 3.57 1.3c.19 0 .37-.28.19-.38l-6.7-6.66c-.2-.18-.38-.1-.38.19.12 1.26.59 2.5 1.34 3.58 0 0-.1.09-.1 0l-3.79-3.77c-.27-.18-.65-.1-.55.28.18 1.97.9 3.86 2.08 5.43 0 .06-.04.1-.1.1l-5.77-5.8a.5.5 0 0 0-.72.08c-.06.1-.09.19-.12.31.34 3.7 1.99 7.19 4.63 9.84Z" fill="#1CEBCF"/><path d="M39.35 39.4a15.47 15.47 0 0 1-9.9 4.59c-.38.1-.65-.46-.38-.74l5.84-5.8s0-.1-.1 0a11.1 11.1 0 0 1-5.46 2.07c-.18.03-.34-.13-.37-.31 0-.1.03-.19.1-.28l3.97-3.95c0-.09 0-.09-.1-.09a7.17 7.17 0 0 1-3.56 1.3c-.16-.04-.25-.16-.22-.28 0-.03 0-.06.03-.1l6.7-6.66c.2-.18.47-.1.38.19a7.51 7.51 0 0 1-1.24 3.58c-.1 0 0 .09 0 0l3.88-3.77a.34.34 0 0 1 .46 0c.06.06.1.19.1.28a11.55 11.55 0 0 1-2.09 5.43c-.09.1 0 .1 0 .1l5.84-5.8c.28-.29.84 0 .75.36a15.75 15.75 0 0 1-4.63 9.87Z" fill="#FFE300"/></svg>