<!-- by TradeStack --><svg width="56" height="56" viewBox="0 0 56 56" xmlns="http://www.w3.org/2000/svg"><path fill="#F0F3FA" d="M0 0h56v56H0z"/><path d="M47.56 36c-.48 0-.92-.08-1.3-.24-.39-.17-.69-.4-.91-.71-.23-.3-.34-.67-.35-1.09h1.48c.02.28.12.5.3.67.18.16.43.24.75.24s.58-.07.76-.22a.76.76 0 0 0 .28-.6.7.7 0 0 0-.2-.5 1.26 1.26 0 0 0-.46-.31 6.54 6.54 0 0 0-.78-.26 9.29 9.29 0 0 1-1.1-.38 2.03 2.03 0 0 1-.71-.57c-.2-.27-.3-.61-.3-1.04 0-.4.1-.76.3-1.06.21-.3.5-.53.87-.69.36-.16.79-.24 1.26-.24.71 0 1.29.17 1.73.52.45.34.7.81.74 1.43H48.4a.76.76 0 0 0-.3-.58 1.1 1.1 0 0 0-.75-.23.99.99 0 0 0-.65.2c-.16.14-.24.34-.24.6 0 .18.06.33.18.46.13.12.28.21.45.3l.78.25c.44.13.8.26 1.1.39.28.13.52.32.72.59a1.92 1.92 0 0 1 .02 2.05c-.19.3-.47.56-.84.75-.37.18-.8.27-1.31.27ZM42.06 36c-.48 0-.92-.08-1.3-.24-.39-.17-.69-.4-.91-.71-.23-.3-.34-.67-.35-1.09h1.48c.02.28.12.5.3.67.18.16.43.24.75.24s.58-.07.76-.22a.76.76 0 0 0 .28-.6.7.7 0 0 0-.2-.5 1.26 1.26 0 0 0-.46-.31 6.54 6.54 0 0 0-.78-.26 9.29 9.29 0 0 1-1.1-.38 2.03 2.03 0 0 1-.71-.57c-.2-.27-.3-.61-.3-1.04 0-.4.1-.76.3-1.06.21-.3.5-.53.87-.69.36-.16.79-.24 1.26-.24.71 0 1.29.17 1.73.52.45.34.7.81.74 1.43H42.9a.76.76 0 0 0-.3-.58 1.1 1.1 0 0 0-.75-.23.99.99 0 0 0-.65.2c-.16.14-.24.34-.24.6 0 .18.06.33.18.46.13.12.28.21.45.3l.78.25c.44.13.8.26 1.1.39.28.13.52.32.72.59a1.92 1.92 0 0 1 .02 2.05c-.19.3-.47.56-.84.75-.37.18-.8.27-1.31.27ZM31.51 35H34v1h-4v-7h1.51v6ZM26.38 30v2H29v1h-2.62v2H29v1h-4v-7h4v1h-2.62ZM36.38 30v2H39v1h-2.62v2H39v1h-4v-7h4v1h-2.62ZM22.45 36l-1.48-2.73h-.63V36H19v-7h2.51c.52 0 .96.1 1.32.3.37.18.64.44.82.76.18.32.27.69.27 1.09a1.97 1.97 0 0 1-1.52 2.02L24 36h-1.55Zm-2.1-3.78h1.11c.37 0 .64-.1.82-.27.17-.19.26-.45.26-.77s-.09-.57-.26-.75c-.18-.18-.45-.27-.82-.27h-1.12v2.06ZM17.34 29v7H16v-7h1.34ZM15 29l-1.8 6.99h-1.5l-1.2-4.98L9.22 36l-1.5.01L6 29h1.38l1.13 5.43L9.8 29h1.43l1.23 5.4 1.14-5.4H15ZM46.51 25.89H49V27h-4v-7h1.51v5.89ZM42.25 25.67h-2.5L39.32 27H38l2.26-7h1.48L44 27h-1.34l-.41-1.33Zm-.34-1.12L41 21.62l-.92 2.93h1.83ZM35.45 27l-1.48-2.73h-.63V27H32v-7h2.51c.52 0 .96.1 1.32.3.37.18.64.44.82.76.18.32.27.69.27 1.09a1.97 1.97 0 0 1-1.52 2.02L37 27h-1.55Zm-2.1-3.78h1.11c.37 0 .64-.1.82-.27.17-.19.26-.45.26-.77s-.09-.57-.26-.75c-.18-.18-.45-.27-.82-.27h-1.12v2.06ZM31.32 20v1.13h-1.95V27H28v-5.87h-1.82V20h5.14ZM25 27h-1.4l-3.2-4.8V27H19v-7h1.4l3.2 4.8V20H25v7ZM15.38 21v2H18v1h-2.62v2H18v1h-4v-7h4v1h-2.62ZM6 23.5a3.34 3.34 0 0 1 1.78-3.05c.55-.3 1.17-.45 1.85-.45.8 0 1.5.2 2.1.59.61.4 1.03.93 1.27 1.63h-1.65c-.17-.33-.4-.57-.7-.74-.3-.16-.64-.24-1.03-.24-.41 0-.79.1-1.12.28-.32.18-.57.45-.76.79-.17.34-.26.74-.26 1.2 0 .45.09.85.26 1.2.19.33.44.6.76.79.33.18.7.27 1.12.27.4 0 .74-.08 1.03-.24.3-.17.53-.42.7-.75H13a3.1 3.1 0 0 1-1.26 1.64c-.6.39-1.3.58-2.1.58a3.9 3.9 0 0 1-1.86-.44c-.55-.3-.99-.72-1.3-1.25a3.47 3.47 0 0 1-.48-1.8Z"/></svg>