<?xml version='1.0' encoding='utf-8'?>
<!-- by TradeStack -->
<svg width="56" height="56" viewBox="0 0 56 56" xmlns="http://www.w3.org/2000/svg"><path fill="#F0F3FA" d="M0 0h56v56H0z" /><path d="M31.19 12.2a1.42 1.42 0 0 0-1.36.58 5.9 5.9 0 0 0-1.2-1.07.23.23 0 0 1-.08-.3c.09-.17.05-.43-.16-.5a1.69 1.69 0 0 1-.2-.1.81.81 0 0 0-.32-.1c-.3-.01-.64 0-1.01.08a.42.42 0 0 0-.24.13.2.2 0 0 1-.09.06c-.38.13-.68.36-.88.68a.08.08 0 0 0-.02.05c0 .02 0 .03-.03.03-.03.01-.05.03-.05.07l-.02.74c-.13-.3-.05-.63-.05-.88a6.18 6.18 0 0 1 .07-1 .2.2 0 0 1 .06-.06c.11-.08.24-.15.38-.19.12-.03.23-.1.35-.15.03-.02.03-.04 0-.05a.23.23 0 0 0-.12-.01 4.6 4.6 0 0 1 2.8.02c.06.02.13.06.2.12.15.16.12.38.29.53.44.4 1 .84 1.68 1.32Z" fill="#45883E" /><path d="M26.22 10.21h.11c.04.02.04.04 0 .06-.11.06-.22.12-.34.15-.14.04-.27.1-.38.2a.2.2 0 0 0-.08.13c-.04.3-.06.6-.05.92 0 .25-.08.57.05.88l.02.23-.16-.3c-.03-.04-.05-.04-.06 0-.85 2.27-1.89 1.64-3.04 1.8l.02-.25c0-.04-.01-.06-.05-.08A.26.26 0 0 0 22 14c-.2.15-.34.32-.46.52a.6.6 0 0 0-.09.33c0 .03-.01.06-.04.08-.08.04-.1.1-.05.2a.06.06 0 0 1 0 .04c-.02.03-.03.05-.05.04-.03 0-.05-.01-.05-.05v-.37c0-.04-.02-.07-.06-.08-.04-.02-.07 0-.08.04a19.52 19.52 0 0 0-.26.07.13.13 0 0 0-.08.04.18.18 0 0 1-.19.06c-.03 0-.06 0-.08.02a.98.98 0 0 1-.27.12.62.62 0 0 0-.23.12l-.25.2a.12.12 0 0 0-.05.06l-.07.38a14.9 14.9 0 0 0-6.9 9.93 15.1 15.1 0 0 0 2.8 11.93c.02.1.05.17.12.22a.1.1 0 0 1 .04.1c0 .03.01.05.04.06.04.02.05.05.03.09-.02.03 0 .04.02.05a.1.1 0 0 1 .04.02c.06.03.05.06-.01.07l-.16.03c-.04 0-.04.01 0 .03l.01.02c0 .04-.01.05-.04.04l-.13-.04a15.49 15.49 0 0 1-2.7-14.7c1.24-3.59 3.5-6.37 6.8-8.36.16-.09.26-.18.31-.27.1-.16.24-.3.4-.39.49-.25 1.02-.53 1.59-.85.1-.06.21-.1.33-.11 1.06-.18 2.1-.9 3.05-1.38a.17.17 0 0 0 .1-.16c-.03-.48-.02-.94.03-1.39.04-.35.52-.48.8-.55Z" fill="#224A1E" /><path d="M29.83 12.78c-.32.33-.45.69-.4 1.06a.5.5 0 0 1 0 .22c-.02.05-.04.05-.04 0a1.47 1.47 0 0 1-.02-.4c0-.04 0-.07-.03-.09a.25.25 0 0 0-.13-.09.11.11 0 0 1-.07-.05.25.25 0 0 1-.03-.04.15.15 0 0 0-.06-.08l-.42-.27a.1.1 0 0 1-.04-.07c-.01-.05-.05-.08-.1-.07-.02 0-.02 0-.02-.02-.02-.07-.06-.1-.12-.1-.03 0-.05 0-.07-.02l-.03-.03c-.03-.03-.05-.03-.06.02l-.02.07v-.35l-.01-.02h-.02a.04.04 0 0 0-.03.03c-.1.4.01.87.13 1.28.06.2.17.35.28.52.02.03.02.06.02.09-.05.26-.08.53-.1.8-.02.16-.07.32-.1.47-.03.17-.11.26-.24.36-.09.07-.19.07-.24.18a.1.1 0 0 1-.07.05l-.03.01a.22.22 0 0 0-.13.27c.01.04.03.07.06.1.07.06.1.15.1.25l-.03.04c-.05.05-.05.1-.02.16.03.07.02.13-.05.17a.09.09 0 0 0-.04.07l-.03.27c0 .03-.02.05-.06.04-.04-.02-.07-.05-.09-.1a5.07 5.07 0 0 0-.5-1.24c-.06-.03-.08-.01-.06.04l-.34-.3c-.05-.1-.09-.2-.13-.34l-.12-.35a4.02 4.02 0 0 1-.22-1.03 8.02 8.02 0 0 0 .19.3l.02-.02h.04c.27.19.56.4.9.38a.1.1 0 0 1 .05.01c.03.02.04.04.03.06 0 .03.01.04.04.05.01 0 .03 0 .05-.02.02.2-.05.35-.19.45-.04.02-.04.05-.01.09l.04.02c.04.02.1 0 .18-.03l.24-.13a.11.11 0 0 0 .06-.08c.04-.2.06-.36.05-.52l-.01-1.54c0-.11.01-.22.04-.33.03-.1.05-.2.06-.31a.74.74 0 0 1 .2-.46.08.08 0 0 1 .05-.02c.03 0 .05-.02.06-.05.07-.19.07-.3 0-.32a.44.44 0 0 1 .1-.18.19.19 0 0 0 .05-.08c.03-.15-.03-.24-.18-.28a1.97 1.97 0 0 0-1.57.17.6.6 0 0 0-.16.13.12.12 0 0 1-.06.04c-.2.07-.33.2-.38.37a.19.19 0 0 1-.06.08.4.4 0 0 0-.14.22c-.06.25-.1.52-.1.81l-.14-.32-.02-.23.02-.74c0-.04.02-.06.05-.07.02 0 .03-.01.03-.03 0-.02 0-.04.02-.05.2-.32.5-.55.88-.68a.2.2 0 0 0 .09-.06.42.42 0 0 1 .24-.13c.37-.07.7-.1 1-.08.11.01.22.04.33.1l.2.1c.21.07.25.33.16.5a.23.23 0 0 0 .08.3c.48.33.88.68 1.2 1.07Z" fill="#67B349" /><path d="M28.2 11.82c-.37.35-.61.74-.73 1.2-.06.2-.08.53-.06 1v1.03c-.01.02-.03.02-.04.02-.03 0-.04-.02-.04-.05 0-.02 0-.04-.03-.06a.1.1 0 0 0-.05-.01c-.34.02-.63-.19-.9-.38a.04.04 0 0 0-.04 0c-.02 0-.02.01-.02.03 0 .02 0 .02-.01 0l-.18-.3c-.08-.4-.22-.8-.41-1.2 0-.3.04-.56.1-.81a.4.4 0 0 1 .14-.22.19.19 0 0 0 .06-.08c.05-.18.18-.3.38-.37.02 0 .04-.02.06-.04a.6.6 0 0 1 .16-.13c.48-.28 1-.33 1.57-.17.15.04.2.13.18.28l-.05.08a.44.44 0 0 0-.1.18Z" fill="#AAD04F" /><path d="M28.2 11.82c.06.03.06.13-.01.32a.08.08 0 0 1-.06.05.08.08 0 0 0-.04.02.74.74 0 0 0-.21.46c-.01.1-.03.21-.06.31s-.04.22-.04.33l.01 1.54c0 .16-.01.33-.05.52 0 .03-.03.06-.06.08l-.24.13c-.08.03-.14.05-.18.03a.08.08 0 0 1-.04-.02c-.03-.04-.03-.07.01-.1.14-.09.2-.23.19-.44l-.01-1.02c-.02-.48 0-.81.06-1.02.12-.45.36-.84.72-1.2Z" fill="#45883E" /><path d="M31.19 12.2c.28.02.52.15.72.38a.2.2 0 0 0 .08.05l.62.22c0 .08 0 .1-.03.04l-.5.01c-.07 0-.16-.05-.26-.15a.12.12 0 0 0-.1-.03l-.38.02-.08-.01c-.2-.1-.38-.07-.52.09-.25.17-.41.38-.5.64-.15.4-.12.78.09 1.12 0 .07.05.1.14.12.03 0 .06.02.08.04.18.2.2.28.05.28a1.01 1.01 0 0 1-.63-.64c-.13-.4-.1-.76.06-1.1l.21-.27a1.28 1.28 0 0 1 1.37-.5.04.04 0 0 0 .02-.03v-.02a.07.07 0 0 0-.04-.05c-.09-.04-.16-.09-.26-.1a2.07 2.07 0 0 0-.8.05c-.36.13-.67.43-.92.89l-.17.59c-.06-.37.07-.73.39-1.06.34-.44.8-.64 1.36-.58Z" fill="#224A1E" /><path d="M30.03 13.28c.06-.16-.08-.17-.42-.03.25-.46.56-.76.92-.89.17-.06.43-.07.8-.04.1 0 .17.05.26.09.02 0 .04.03.04.05a.03.03 0 0 1 0 .03.03.03 0 0 1-.04.01 1.28 1.28 0 0 0-1.35.5l-.2.28Z" fill="#45883E" /><path d="m25.55 12.78.14.32c.2.4.33.8.41 1.2.03.36.1.7.22 1.02l.12.35c.04.13.08.25.13.34-.66.32-1.24.81-1.73 1.48-.13.17-.25.36-.38.55-.04.06-.07.23-.08.5 0 .04.02.06.06.04a.09.09 0 0 0 .06-.06.12.12 0 0 1 .08-.08l.34-.14a.14.14 0 0 0 .06-.05.65.65 0 0 1 .09-.11c.09-.1.25-.13.37-.19l.2-.12a.45.45 0 0 1 .2-.08c.08-.02.09 0 .04.07-.02.03-.03.07-.04.14l-.35.28a.97.97 0 0 0-.28.33c-.16.38-.07.8.02 1.2v.08l-.03.04-.48.32c-.04 0-.07 0-.09.03a.18.18 0 0 1-.3-.07 18.92 18.92 0 0 0-.36-1.1l.03-.03c.03-.02.06-.02.09 0a.07.07 0 0 0 .11-.05 1.98 1.98 0 0 1 .32-1.32.1.1 0 0 0-.02-.08.1.1 0 0 0-.04-.02c-.07-.02-.09-.06-.06-.13.04-.09.04-.16-.01-.23a.24.24 0 0 0-.18-.09l-.58-.03c-.04 0-.05.02-.05.06-.01.48-.03.94.1 1.4l.23 1c.06.24.14.49.27.72.12.25.42.13.59-.01l.45-.31c.44-.28.86-.56 1.28-.85.5-.34.63-.83.83-1.37a.61.61 0 0 0 0-.36c-.03-.17-.1-.34-.17-.53l-.25-.53c-.02-.05 0-.07.06-.04.02 0 .04.01.05.03.2.4.36.8.45 1.2 0 .12 0 .23-.02.35l.01.34c.03.22.04.44.02.67 0 .08.02.14.07.2a.8.8 0 0 0 .41.07c.33 0 .6.06.85.17l-5.58 3.32a.3.3 0 0 1-.26.02c-.25-.08-.58-.27-.66-.55a7.31 7.31 0 0 1-.13-3.45c.13-.03.19 0 .17.1-.03.22-.05.45-.06.67 0 .25.1.41.31.5 0 .19.02.33.04.43.04.17.08.17.12 0l.28-1.15c.03-.1.02-.18-.04-.24a.12.12 0 0 0-.07-.04.52.52 0 0 1-.2-.07.06.06 0 0 1-.03-.07c0-.05.05-.09.11-.13.09.04.16.04.24.02a.07.07 0 0 0 .05-.07v-.26l-.06-.72-.06-.9-.01-.03a.05.05 0 0 0-.07-.02l-1.65.59c-.16.05-.37.04-.62-.04-.08 0-.16-.1-.23-.28.1-.1.2-.15.34-.17.03 0 .06-.02.09-.04.14-.1.3-.06.42-.2a.2.2 0 0 1 .1-.05h.08c.04 0 .07-.01.1-.03a.5.5 0 0 1 .52.05 1 1 0 0 0 .45.16l.08-.01c.05-.03.05-.06 0-.1a.42.42 0 0 0-.2-.07.1.1 0 0 1-.07-.03l-.02-.02c-.06-.03-.06-.05 0-.06l.08.01c.17.08.34.12.52.14.03 0 .05-.02.06-.05a.45.45 0 0 0-.03-.26.12.12 0 0 0-.07-.07.2.2 0 0 1-.12-.11.03.03 0 0 1 0-.03.03.03 0 0 1 .03-.02c.01 0 .02 0 .03-.02a.07.07 0 0 0-.02-.08 1.55 1.55 0 0 1-.48-1.58c1.38-.85 2.7-1.19 2.95-1.67a.33.33 0 0 0 .09-.13c.01-.05.03-.05.06 0l.16.29Z" fill="#252A2D" /><path d="M28.17 12.82c.02.58.18 1.06.48 1.42.17.22.49.4.94.54.04.01.07.03.1.06.24.27.55.43.92.47.08 0 .16-.02.23-.08.03-.03.03-.06-.01-.09l-.23-.12c.15 0 .13-.09-.05-.28a.14.14 0 0 0-.08-.04c-.09-.01-.14-.05-.14-.12a.35.35 0 0 1 .18-.06c.04 0 .06.02.07.05.02.1.07.2.14.3.05.05.15.1.3.15.22.09.37.25.43.5l-.44-.17a.17.17 0 0 0-.1-.01l-.26.04c-.04 0-.07.03-.07.08-.02.24-.13.63-.43.67-.02 0-.04 0-.06.02a.1.1 0 0 0-.05.08c-.1.74-.32 1.58-.68 2.52a.7.7 0 0 1-.3.35l.5-1.29.27-1c.03-.09 0-.16-.08-.22-.02-.02-.07-.03-.14-.03-.04 0-.09 0-.13-.02a.85.85 0 0 0-.8.08.13.13 0 0 0-.05.07.55.55 0 0 1-.1.17c-.01.03-.03.02-.04-.01a.28.28 0 0 1 .04-.2.11.11 0 0 0 .02-.06l-.01-.03a.09.09 0 0 1-.01-.08c.06-.15.08-.32.07-.5-.02-.14.04-.27 0-.42l-.03-.01c-.04-.03-.06-.02-.07.02-.06.27-.05.53-.12.8a47.86 47.86 0 0 1-.42 1.52l-.11.33c-.03.13-.08.25-.16.37-.09.14-.1.3-.14.46a.24.24 0 0 1-.07-.19c.02-.23.01-.45-.02-.67a1.6 1.6 0 0 1 0-.34 5 5 0 0 0 .01-.35c.02.06.05.1.1.1.03.02.05 0 .05-.03l.03-.27c0-.03.02-.05.04-.07.07-.04.08-.1.05-.17-.03-.06-.02-.11.02-.16a.09.09 0 0 0 .02-.04.28.28 0 0 0-.1-.26.22.22 0 0 1 .08-.36l.03-.01a.1.1 0 0 0 .07-.05c.05-.1.15-.11.24-.18.13-.1.21-.19.24-.36.03-.15.08-.3.1-.46.02-.28.05-.55.1-.81 0-.03 0-.06-.02-.09-.1-.17-.22-.32-.28-.52-.12-.41-.23-.87-.13-1.28 0-.02.02-.03.03-.04h.02l.01.03v.35Z" fill="#45883E" /><path d="M32.58 12.9c-.16 0-.3.05-.45.13a.2.2 0 0 1-.12.02 1.5 1.5 0 0 1-.44-.1c-.14-.06-.33-.06-.49-.08a1.1 1.1 0 0 1-.17-.04.47.47 0 0 0-.17-.01c.14-.16.32-.19.52-.1.02.02.05.03.08.02l.39-.02c.03 0 .06 0 .09.03.1.1.19.15.26.15h.5Z" fill="#F5C326" /><path d="m29.44 13.84.17-.6c.34-.13.48-.12.42.04-.17.34-.19.7-.06 1.1.1.3.3.5.63.64l.23.12c.04.03.04.06 0 .1a.28.28 0 0 1-.22.07c-.37-.04-.68-.2-.92-.47a.22.22 0 0 0-.1-.06 1.95 1.95 0 0 1-.94-.54c-.3-.36-.46-.84-.48-1.42l.02-.07c0-.05.03-.05.06-.02l.03.03c.02.02.04.02.07.02.06 0 .1.03.12.1 0 .01 0 .02.02.02.05 0 .09.02.1.07 0 .03.02.05.04.07l.42.27c.03.02.05.04.06.08l.03.04c.01.03.04.05.07.05.05.02.1.04.13.1.02.01.03.04.03.07-.02.14-.01.27.02.41 0 .05.02.05.03 0a.5.5 0 0 0 .02-.22Z" fill="#AAD04F" /><path d="m30.74 12.82.17.01.17.04c.16.02.35.02.49.07.15.06.3.1.44.11a.2.2 0 0 0 .12-.02c.14-.08.3-.13.45-.14.02.05.03.04.03-.04l.05.05c.03.03.06.04.09.04a.7.7 0 0 1 .57.43c-.26-.28-.52-.4-.76-.37-.4.05-.71.29-.96.71a1.8 1.8 0 0 0-.21 1.23c0 .05 0 .1.02.15v.01a.03.03 0 0 1 0 .03h-.11a23.27 23.27 0 0 1-.1-.37c-.04-.23.01-.48 0-.73 0-.04-.02-.06-.06-.07a.08.08 0 0 1-.07-.05.46.46 0 0 0-.28-.2.1.1 0 0 1-.06-.04c-.05-.08-.05-.15-.02-.22.01-.03 0-.05-.03-.05a.11.11 0 0 0-.1.06.1.1 0 0 1-.07.04.1.1 0 0 0-.07.03.21.21 0 0 0-.06.07.1.1 0 0 1-.08.07c-.05 0-.07-.02-.06-.06v-.15c.09-.26.25-.47.5-.64Z" fill="#AAD04F" /><path d="m33.32 13.37.23.17c-.03-.01-.05-.01-.07 0-.02 0-.02.02 0 .03.28.16.56.27.85.34.12.03.23.08.33.14.12.08.25.13.38.15.02 0 .04.02.05.03a20.75 20.75 0 0 1 6.79 5.6c.01.02.03.03.06.03h.03c.03 0 .05.01.06.05 0 .06.05.09.1.1l.38-.01c.07 0 .08-.03.02-.08a.4.4 0 0 1-.13-.22c.1.07.21.2.35.41.04.07.15.16.34.3a.93.93 0 0 0-.46-.1.1.1 0 0 0-.06.18c.12.12.23.2.33.25.03.02.05.04.06.08.02.06.06.1.12.1.02 0 .03.01.03.04v.03c.01.03.03.05.06.07a.3.3 0 0 1 .11.12.14.14 0 0 1-.1.2l-.29.05a.73.73 0 0 0-.34-.57l-.18-.15a.55.55 0 0 0-.2-.12c-.2-.05-.32-.01-.4.13a.76.76 0 0 1-.21.18.68.68 0 0 0-.3.5c0 .04 0 .07.03.1l.57.52a.1.1 0 0 1 .03.07.7.7 0 0 1-.15.47c-.05.06-.06.18-.03.35-.05-.01-.08-.06-.07-.15v-.25a.11.11 0 0 0-.05-.08.66.66 0 0 1-.17-.17.1.1 0 0 0-.07-.05.12.12 0 0 1-.1-.07.55.55 0 0 0-.23-.25.1.1 0 0 0-.11.01.25.25 0 0 1-.1.06c-.04 0-.05.03-.05.06l.02.12-.24-.26c.05-.09.05-.2 0-.34a.7.7 0 0 0-.16-.28c-.45-.48-1-.87-1.3-1.48a.57.57 0 0 0-.1-.14c-.54-.57-.53-.73-1.07-1.34h-.07l-.64-.57c-.14-.13-.3-.25-.45-.36-.68-.48-1.39-.67-2.1-1.08a.12.12 0 0 0-.09-.02c-.05.01-.1 0-.12-.04-.02-.03-.05-.03-.07-.02a.18.18 0 0 1-.1.02v.01c0 .01.01.02.02.01l.05.01c.03.03.05.07.06.12l-1.47-.64c-.03 0-.05 0-.06-.02v-.03l.02-.02c0-.03 0-.04-.02-.03-.03.01-.06 0-.08-.01a.74.74 0 0 0-.39-.2.2.2 0 0 1-.1-.05.2.2 0 0 0-.14-.05c-.06 0-.07.02-.02.05.03.02.05.05.04.07 0 .04-.03.05-.06.05-.38-.03-.62-.22-.73-.56-.07-.44 0-.85.21-1.23.25-.42.56-.66.96-.71.24-.04.5.09.76.37Z" fill="#697577" /><path d="M32.45 13.22c-.17.07-.31.16-.42.28-.04.03-.03.06.01.07.05.01.07.05.07.1s.02.06.05.01a.46.46 0 0 1 .13-.1c1.32.1 3.14 1.13 4.24 1.84 1 .66 2 1.27 2.8 2.14.1.1.19.18.3.25.89.65 2.4 2.11 1.6 2.83l-.33.33a.18.18 0 0 1-.23.02c-.21-.15-.4-.33-.55-.54a.15.15 0 0 0-.06-.05c-.7-.28-1.46-1.98-2-2.4a7.49 7.49 0 0 1-.48-.42 6.26 6.26 0 0 0-1.2-.86.5.5 0 0 1-.14-.13.43.43 0 0 0-.13-.1c-1.03-.58-2.18-.82-3.2-1.34a.26.26 0 0 0-.08-.02l-.46-.05c-.02 0-.05 0-.06.03h-.04a.1.1 0 0 1-.04 0 1.4 1.4 0 0 0-.26-.16.12.12 0 0 1-.07-.07l-.07-.24c-.01-.03-.04-.05-.08-.04a.86.86 0 0 1-.22.01c-.03 0-.05-.01-.05-.04 0-.48.13-.86.41-1.14.19-.18.37-.25.56-.2Z" fill="#AFB5B8" /><path d="M31.4 14.94c.1.34.34.53.72.56.03 0 .05-.01.06-.05 0-.02 0-.05-.04-.07-.05-.03-.04-.05.02-.05.05 0 .1.01.15.05a.2.2 0 0 0 .1.04c.14.03.27.1.38.2.02.03.05.03.08.02.02 0 .03 0 .02.03l-.02.02v.03c.01.02.03.03.06.02l-.27-.06h-.1c-.25.09-.46.12-.61.09-.15-.03-.32-.11-.5-.24a.66.66 0 0 0-.44-.5.69.69 0 0 1-.29-.17.65.65 0 0 1-.14-.29c0-.03-.03-.05-.07-.05a.35.35 0 0 0-.18.06c-.2-.34-.24-.72-.1-1.12v.15c0 .04.02.06.07.06a.1.1 0 0 0 .08-.07.21.21 0 0 1 .06-.07.1.1 0 0 1 .07-.03.1.1 0 0 0 .07-.04.11.11 0 0 1 .1-.06c.03 0 .04.02.03.05-.03.07-.03.14.02.22a.1.1 0 0 0 .06.04c.1.03.23.1.28.2.01.03.04.05.07.05.04 0 .06.03.06.07.01.25-.04.5 0 .73a23.27 23.27 0 0 0 .1.37h.09a.04.04 0 0 0 .02-.01.03.03 0 0 0 0-.03.3.3 0 0 1-.02-.15Z" fill="#F5C326" /><path d="M33.55 13.53c4.32 1.08 6.02 3.47 8.85 6.17a.4.4 0 0 0 .13.22c.06.05.05.08-.02.08h-.37c-.47-.01-1.42-1.28-1.7-1.6-1.1-1.22-2.29-2.08-3.6-3.13-.66-.52-1.49-.76-2.18-1.22-.1-.06-.21-.11-.33-.14a3.32 3.32 0 0 1-.85-.34c-.02-.01-.02-.02 0-.03.02-.01.04-.01.07 0Z" fill="#252A2D" /><path d="M22.3 14.29c-.15.62 0 1.15.47 1.58.02.02.03.05.02.08l-.03.02a.03.03 0 0 0-.03.03v.02c.02.05.06.09.12.1l.07.08c.03.09.04.18.03.26-.01.03-.03.05-.06.05a1.61 1.61 0 0 1-.52-.14.12.12 0 0 0-.07 0c-.07 0-.07.02-.01.05l.02.02a.1.1 0 0 0 .07.03c.08 0 .14.03.2.08.05.03.05.06 0 .09a.13.13 0 0 1-.08.01 1 1 0 0 1-.45-.16.5.5 0 0 0-.51-.05.26.26 0 0 1-.11.03h-.08a.2.2 0 0 0-.1.06c-.13.12-.28.1-.42.2a.21.21 0 0 1-.1.03.62.62 0 0 0-.33.17c-.33-.04-.52-.2-.58-.48-.06-.13-.1-.26-.11-.4a.12.12 0 0 0-.05-.1.06.06 0 0 1-.02-.05c0-.02.02-.04.04-.04s.03-.01.03-.03a.04.04 0 0 0-.03-.04c-.03 0-.04 0-.04.03l.07-.38c0-.03.02-.05.05-.07.08-.06.16-.12.24-.2.07-.05.15-.09.24-.11.1-.03.18-.07.27-.12a.11.11 0 0 1 .08-.02c.08.02.14 0 .19-.06a.13.13 0 0 1 .08-.04l.21-.04c.03 0 .04-.01.05-.03.01-.04.04-.06.08-.04.04.01.06.04.06.08v.37c0 .04.02.05.05.05.02 0 .03 0 .05-.04v-.05c-.05-.08-.03-.15.05-.2a.08.08 0 0 0 .04-.07.6.6 0 0 1 .1-.33c.1-.2.26-.37.45-.52a.26.26 0 0 1 .26-.05c.04.02.05.04.05.08l-.02.26Z" fill="#AFB5B8" /><path d="M41.01 19.93a.2.2 0 0 0 .04 0 3.76 3.76 0 0 1 .37.38.14.14 0 0 1-.04.16l-.07.06c-.07.05-.13.05-.2-.01a82.68 82.68 0 0 1-2.12-2.2l-.46-.46c-.42-.42-.93-.9-1.55-1.45a.25.25 0 0 0-.13-.07.2.2 0 0 1-.09-.03 4.1 4.1 0 0 0-.6-.37l-1.04-.53a18.36 18.36 0 0 0-2.24-.86c-.27-.12-.55-.21-.82-.28-.09-.02-.13-.08-.11-.17v-.04c.03-.09.09-.11.17-.07l.46.18.46.18c.15.06.33.11.53.16.04 0 .06.02.08.04a.1.1 0 0 0 .05.03c.18.04.35.11.5.2.1.07.2.11.33.15l.36.16c.06.03.14.06.23.08l.24.08.84.41a6.74 6.74 0 0 1 1.4.95 39.21 39.21 0 0 0 1.03.92l.3.28c.47.4.93.9 1.4 1.5.07.08.18.12.23.2.01.03.04.05.07.06.15.07.27.18.35.34l.03.02Z" fill="#F0F3FA" /><path d="M29.56 17.81c.01-.18-.03-.29-.13-.32a.86.86 0 0 0-.4-.03 3.52 3.52 0 0 0-.42.11.96.96 0 0 1-.2.07.07.07 0 0 0-.06.06 1.1 1.1 0 0 1-.11.32c-.1.2-.19.42-.24.68a.28.28 0 0 1-.07.13c-.16.17-.15.27.03.3a.8.8 0 0 1-.4-.08c.03-.16.04-.32.13-.46.08-.12.13-.24.16-.37l.11-.33.11-.33.31-1.2c.06-.26.06-.52.12-.79.01-.04.03-.05.07-.02h.02l.02.01c.03.15-.03.28-.01.41.01.2-.01.36-.07.51a.09.09 0 0 0 0 .08l.02.03-.02.05a.28.28 0 0 0-.04.2c.01.04.03.05.05.02.04-.05.07-.11.09-.17a.12.12 0 0 1 .05-.07c.25-.16.52-.19.8-.08l.13.02c.07 0 .12 0 .14.03.08.06.1.13.08.22l-.27 1Z" fill="#67B349" /><path d="M24.93 15.78c-.11.07-.16.17-.14.31v.48c0-.1 0-.2-.04-.27a.07.07 0 0 0-.07-.04c-.27.02-.6.01-.96-.02a.29.29 0 0 1-.2-.1c-.1-.11-.13-.25-.05-.42a.07.07 0 0 1 .1-.03 1.87 1.87 0 0 0 1.36.09Z" fill="#AFB5B8" /><path d="M19.64 15.82c0-.03.01-.04.04-.02a.04.04 0 0 1 .03.03c0 .02-.01.03-.03.03-.02 0-.04.02-.04.04 0 .03 0 .04.02.06.03.02.04.05.05.08.01.15.05.28.1.4.02.1.02.17 0 .22 0 .02-.01.03-.03.02v-.03c0-.02 0-.02-.02-.02-.3.13-.56.28-.79.48-.18.15-.39.24-.56.4l-.7.64c-.45.4-.87.88-1.29 1.34-.5.55-.85 1.18-1.33 1.74-.03.02-.05.03-.08.01a.52.52 0 0 1-.1-.08c-.03-.03-.06-.03-.1 0 0 .02-.01.02-.03 0a.12.12 0 0 1-.04-.04.33.33 0 0 1 0-.32c.08-.15.13-.26.15-.35a14.9 14.9 0 0 1 4.75-4.63Z" fill="#AAD04F" /><path d="m26.57 16.01.34.3.25.53-1.32 1.12c0-.07.02-.11.04-.14.05-.06.04-.09-.05-.07a.45.45 0 0 0-.2.08 1.3 1.3 0 0 1-.2.12c-.11.06-.27.1-.36.19a.65.65 0 0 0-.09.1.14.14 0 0 1-.06.06l-.34.14a.12.12 0 0 0-.08.08.09.09 0 0 1-.06.06c-.04.02-.07 0-.06-.05.01-.26.04-.43.08-.5l.38-.54A4.73 4.73 0 0 1 26.57 16Z" fill="#AFB5B8" /><path d="M40.54 21.88a250.7 250.7 0 0 1-2.86-3.07 13.9 13.9 0 0 0-1.38-1.4c-.6-.44-1.23-.73-1.9-1.03a.24.24 0 0 0-.06-.12c-.02-.01-.03-.02-.05 0 0 0-.02 0-.02-.02v-.01c.04 0 .07 0 .1-.02.02-.01.05 0 .07.02 1.18.01 1.8.79 2.3 1.14.17.11.32.23.46.36a23.93 23.93 0 0 0 .67.57h.04c.8.92 1.53 1.95 2.47 2.96a.7.7 0 0 1 .17.28c.04.14.04.25 0 .34Z" fill="#252A2D" /><path d="M19.82 16.45c.06.28.25.44.58.48.07.18.15.28.23.28a.34.34 0 0 0-.21.05 13.38 13.38 0 0 0-6.23 9.66 2.2 2.2 0 0 1-.03-.94c0-.03 0-.06-.02-.1l-.1-.24a3.6 3.6 0 0 1 .26-1.27l.1-.3.09-.3c.1-.3.22-.57.33-.84.15-.36.34-.73.58-1.11l.38-.61.39-.6a13.67 13.67 0 0 1 3.76-3.6.11.11 0 0 0 .06-.1v-.03a.04.04 0 0 0-.03-.03h-.04a13.78 13.78 0 0 0-5.9 7.84c-.05.22-.07.43-.14.64-.1.29-.15.6-.21.9a19.46 19.46 0 0 0-.15 3.39c.04.76.18 1.56.4 2.38a13.9 13.9 0 0 0 8.41 9.57 32.02 32.02 0 0 0 .88.29 21.02 21.02 0 0 0 2.3.55c.58.09 1.35.13 2.32.14-.21 0-.42.02-.61.07a.14.14 0 0 0-.06.04.5.5 0 0 0-.05.06.11.11 0 0 1-.08.04 7.05 7.05 0 0 1-2.29-.19 1.09 1.09 0 0 0-.24-.05c-.1 0-.19-.03-.28-.06-.36-.1-.74-.16-1.09-.28-.33-.12-.68-.2-1-.34-.37-.14-.7-.26-1.06-.45-.35-.2-.7-.38-1.04-.55-.08-.04-.13-.02-.15.06a.56.56 0 0 0 0 .27c0 .03.02.06.04.09l.33.43c-1.84-1-3.4-2.34-4.7-4a15.1 15.1 0 0 1-2.81-11.93c.07-.4.23-1.02.5-1.85.4-1.23.94-2.38 1.65-3.46-.02.09-.07.2-.15.35-.05.1-.06.2 0 .32 0 .02.02.04.04.05h.04c.03-.04.06-.04.09-.01l.1.08c.03.02.05.01.08-.01.48-.56.83-1.19 1.33-1.74.42-.46.84-.94 1.29-1.34l.7-.64c.17-.16.38-.25.56-.4.23-.2.5-.35.8-.48v.02l.01.03c.02 0 .03 0 .04-.02a.43.43 0 0 0 0-.21Z" fill="#67B349" /><path d="M14.19 26.92a13.3 13.3 0 0 0 4.8 12c.13.16.28.31.45.46v.03l-.01.01.01.04.26.26c.1.08.18.16.25.26.11.13.25.25.41.34a19.83 19.83 0 0 1 .91.52c.13.05.25.11.36.19.39.25.83.46 1.34.6l.1.07a12.49 12.49 0 0 0 4.13.68c.19.02.4.03.63.02a8.86 8.86 0 0 1 .71-.02c.05-.03.1-.04.15-.04a7.95 7.95 0 0 0 2.11-.38c.14-.05.29-.04.43-.08l1.65-.57h.03l.02.02v.04c-.02 0-.02 0-.03.02-.99.42-2 .74-3.07.96a5.19 5.19 0 0 1-1.03.13.16.16 0 0 1-.08.03l-.9.04c-.96 0-1.73-.05-2.3-.14a21.02 21.02 0 0 1-2.31-.55 13 13 0 0 1-3.47-1.63 13.9 13.9 0 0 1-6.22-10.62 19.47 19.47 0 0 1 .15-3.39c.06-.3.1-.6.2-.9.08-.2.1-.41.16-.63.19-.64.4-1.25.66-1.83.23-.54.5-1.06.83-1.56a13.78 13.78 0 0 1 4.46-4.44v.05c.01.04 0 .08-.05.1a13.67 13.67 0 0 0-5.63 7.36 3.6 3.6 0 0 0-.26 1.27l.1.25c.02.03.02.06.02.1-.06.32-.05.63.03.93Z" fill="#45883E" /><path d="M24.72 20.2c.03.01.04.03.05.06-.17.14-.47.26-.6.01-.12-.23-.2-.48-.26-.72-.07-.34-.15-.67-.24-1-.12-.46-.1-.92-.1-1.4 0-.04.02-.06.06-.06l.58.03c.08.01.13.04.18.1.05.06.05.13.01.22-.03.07-.01.11.06.13a.1.1 0 0 1 .06.1 1.98 1.98 0 0 0-.32 1.31.07.07 0 0 1-.07.08c-.02 0-.03 0-.04-.02-.03-.02-.06-.02-.1 0a.06.06 0 0 0-.02.08 18.92 18.92 0 0 1 .42 1.13.18.18 0 0 0 .24-.01c.02-.02.05-.03.1-.03Z" fill="#697577" /><path d="m29.56 17.81-.5 1.29-.25.2c-.24-.1-.52-.16-.85-.17-.18-.03-.19-.13-.03-.3a.28.28 0 0 0 .07-.13c.05-.26.14-.49.24-.68.05-.1.09-.2.11-.32 0-.03.03-.05.06-.06a.95.95 0 0 0 .2-.07 3.46 3.46 0 0 1 .41-.11.86.86 0 0 1 .4.03c.1.03.15.14.14.32Z" fill="#AAD04F" /><path d="M22.81 18.64c-.06.04-.1.08-.1.13-.01.03 0 .06.03.07.06.04.12.06.19.07.03 0 .05.02.07.04.06.06.07.14.04.24-.04-.13-.13-.17-.29-.13a.15.15 0 0 0-.11.14l-.04.7c-.21-.07-.32-.24-.3-.48 0-.23.02-.46.05-.68.02-.1-.04-.13-.17-.1.24-.05.45-.05.63 0Z" fill="#697577" /><path d="M43.1 20.4c.4.4.66.67.76.8.17.2.19.44.05.71-.26.52-.63.95-1.1 1.28l-.11-.36c.03.06.07.09.14.1.05 0 .1-.02.13-.06a4.76 4.76 0 0 1 .28-.25.17.17 0 0 0-.04-.2l-.45-.42c-.1-.1-.2-.12-.33-.06-.04.02-.06.01-.06-.03-.01-.06.01-.11.06-.14l.3-.27.16-.07.3-.05a.14.14 0 0 0 .1-.14v-.06a.3.3 0 0 0-.12-.12.1.1 0 0 1-.05-.07v-.03c0-.03-.02-.04-.04-.04a.14.14 0 0 1-.12-.1.13.13 0 0 0-.06-.08c-.1-.05-.2-.13-.33-.25a.1.1 0 0 1 .06-.18c.13-.01.28.02.46.1Z" fill="#252A2D" /><path d="m42.9 21.43-.16.07c-.06-.21-.2-.4-.4-.57a.17.17 0 0 0-.08-.04.17.17 0 0 1-.14-.12.1.1 0 0 0-.06-.07.3.3 0 0 0-.28.02c.07-.14.2-.18.38-.13.08.03.16.07.21.12l.18.15c.22.15.33.34.34.57ZM41.56 20.9c.24.37.53.66.87.87-.05.03-.07.08-.06.14 0 .04.02.05.06.03.12-.06.23-.04.33.06a7.81 7.81 0 0 0 .5.48.17.17 0 0 1-.06.2l-.23.2a.18.18 0 0 1-.13.04.16.16 0 0 1-.14-.09l-.43-.56a.07.07 0 0 0-.12 0l-.37.65c-.03-.01-.05-.02-.07-.01-.03-.17-.02-.29.03-.35a.7.7 0 0 0 .15-.47.1.1 0 0 0-.03-.07l-.57-.53a.1.1 0 0 1-.03-.09.68.68 0 0 1 .3-.5Z" fill="#AFB5B8" /><path d="M33.2 25.32v-.1c-.02-.02-.04-.03-.06 0l-.1.15c-.32.02-.53-.06-.65-.25-.34-.54-.18-1.08.05-1.62.04-.09.1-.12.2-.1.25.05.55.66.63.88.05.14.09.14.13-.01l.08-.35a.06.06 0 0 0-.03-.07h-.03a.42.42 0 0 1-.37-.17c-.4-.5-.2-.92.02-1.42a.12.12 0 0 1 .09-.07.13.13 0 0 1 .1.03c.22.18.37.4.45.67.01.03.03.04.06.02a.14.14 0 0 0 .04-.2c-.22-.35-.22-.73-.01-1.14.14-.28.46-.47.72-.63a.08.08 0 0 1 .06-.01.08.08 0 0 1 .05.04c.28.57.3 1.54-.43 1.79a.35.35 0 0 0-.26.35v.02l.03.02a.04.04 0 0 0 .04-.01c.2-.22.48-.36.84-.42.12-.02.17.03.17.15-.04.52-.23.89-.58 1.1-.22.12-.54.22-.68-.07a.05.05 0 0 0-.04-.03l-.03.01-.02.02c-.08.2-.14.39-.18.58-.01.1.01.1.08.03a.86.86 0 0 1 .38-.28 9.68 9.68 0 0 1 .73-.18.15.15 0 0 1 .11.16c-.07.62-.32 1.18-.95 1.4-.25.1-.47 0-.65-.29Z" fill="#F5C326" /><path d="m41.7 22.91.08.01c-.13.01-.17.18-.13.5l-.04-.26a.17.17 0 0 0-.04-.09l-.8-.93v-.12c-.01-.03 0-.06.04-.06a.25.25 0 0 0 .1-.06.1.1 0 0 1 .11-.01c.1.05.18.13.24.25.02.04.05.06.09.07a.1.1 0 0 1 .07.05c.05.06.1.12.17.17a.12.12 0 0 1 .05.08v.25c0 .09.02.14.07.15Z" fill="#252A2D" /><path d="m42.7 22.83.11.36c.13.6-.06 1.08-.55 1.46-.38-.05-.54-.25-.5-.58l-.1-.65c-.05-.32-.01-.49.12-.5l.37-.64a.07.07 0 0 1 .12-.01l.43.56Z" fill="#224A1E" /><path d="M31.99 24.9c-.04 0-.08 0-.1.05-.12.16-.2.34-.25.53l-.03.1c0 .03-.02.04-.04.02l-.03-.02a9.64 9.64 0 0 0-.75-2.96c-.05-.1-.02-.13.08-.07.67.43 1.02 1.6 1.12 2.35ZM41.75 24.07c-.03.33.13.53.5.58-.28.28-.43.62-.43 1.02l-.07.64c0 .03-.02.04-.05.02l-.21-.14a8.17 8.17 0 0 1-.47-.1.46.46 0 0 0-.3.04c-.06.03-.09.01-.07-.06.03-.08.01-.15-.05-.2-.05-.03-.1-.03-.16 0-.16.07-.21.19-.16.34 0 .02 0 .03-.02.04a.24.24 0 0 0-.16.09c-.23.3-.3.63-.2.98.02.1.08.19.17.26.1.08.2.12.3.15.22.04.4.04.53 0l.4-.26.33-.37c-.1.33-.3.56-.57.7-.54.26-1.27.05-1.36-.61-.1-.75.27-1.25.9-1.58.26-.15.64-.33.81-.6.18-.3.3-.6.34-.94ZM34.26 26.44c.12-.35.15-.64.1-.87.58-.6 1.39-1.17 2.26-1.19.02 0 .03.02.03.04v.02l-.02.02a10.1 10.1 0 0 0-2.37 1.98Z" fill="#45883E" /><path d="M32.8 26.02v.32c0 .03 0 .04.03.01a.4.4 0 0 0 .11-.2c.04.07.1.03.18-.11.04-.06.12-.12.25-.18.31-.14.64-.24.99-.3.05.24.02.53-.1.88l-.57.71c-.33.17-.61.19-.86.07-.02-.14-.07-.22-.17-.22v-.06c.02-.04 0-.06-.04-.06s-.07.04-.09.09c-.05-.05-.14-.03-.28.05-.2-.02-.35-.1-.44-.26a3.4 3.4 0 0 0-.22-.35l-.05-.83c.05-.27.24-.64.45-.7.07-.03.17.08.22.13.27.24.46.58.59 1.01Z" fill="#F5C326" /><path d="m33.2 25.32-.26.84a.4.4 0 0 1-.1.2c-.03.02-.05.01-.05-.02v-.32l.24-.65.1-.15c.03-.03.05-.02.07 0v.1Z" fill="#45883E" /><path d="M41.82 25.67c0 .32-.01.65-.03.97-.01.22-.07.38-.16.46l-.34.37.14-.2a.7.7 0 0 0 .17-.32c.02-.1-.01-.19-.1-.27a.11.11 0 0 0-.08-.04.13.13 0 0 1-.1-.04.1.1 0 0 0-.07-.04 3.1 3.1 0 0 0-.48 0c-.2.02-.35.13-.45.34-.17.35-.15.62.05.83a.69.69 0 0 1-.3-.15.51.51 0 0 1-.17-.26c-.1-.35-.03-.68.2-.98a.24.24 0 0 1 .16-.1c.02 0 .03 0 .02-.03-.05-.15 0-.27.16-.34.06-.03.11-.03.16 0 .06.05.08.12.05.2-.02.07 0 .09.07.06a.46.46 0 0 1 .3-.03 8.17 8.17 0 0 0 .47.1l.21.13c.03.02.05.01.05-.02l.07-.64Z" fill="#67B349" /><path d="m31.6 26.41.21.35c.09.15.24.24.44.26l-.03.63c0 .01 0 .02.02.02h.02c.03.01.05 0 .06-.03l.21-.67c.02-.05.05-.08.09-.09.04 0 .06.02.05.06l-.01.06-.24.7v.01l.03.02a.02.02 0 0 0 .03 0l.35-.51c.25.12.53.1.86-.07-.3.35-.53.73-.7 1.13l-.38 1.24a5291.68 5291.68 0 0 1-2.75 8.78.13.13 0 0 1-.07.03h-.34a.13.13 0 0 1-.13-.08l-2.76-7.72c-.03-.08-.05-.08-.08 0l-2.58 7.7a.15.15 0 0 1-.14.1h-.3a.17.17 0 0 1-.16-.11l-3.72-11.54c-.02-.04.03-.07.07-.07h1.57c.04 0 .07.02.08.05l2.35 7.89c.02.06.04.06.05 0l2.56-7.84a.14.14 0 0 1 .12-.1h.41c.05 0 .09.02.1.07l2.52 7.78c.03.1.06.1.1 0 .6-2.08 1.22-4.17 1.85-6.28.19-.65.27-1.24.23-1.77Z" fill="#45883E" /><path d="M41.43 27.26c-.05-.2-.2-.32-.43-.4a.47.47 0 0 0-.26-.01c-.08.02-.14.07-.2.16-.26.42-.14.66.36.72-.13.04-.3.04-.53 0-.2-.21-.22-.48-.05-.83.1-.2.25-.32.45-.34h.48a.1.1 0 0 1 .07.04c.02.03.06.04.1.04.03 0 .06.02.08.04.09.08.12.17.1.27a.7.7 0 0 1-.17.31Z" fill="#AAD04F" /><path d="m41.43 27.26-.14.2-.39.27c-.5-.06-.62-.3-.35-.72.05-.09.11-.14.18-.16a.47.47 0 0 1 .27.01c.24.07.38.2.43.4Z" fill="#F0F3FA" /><path d="m32.53 26.97-.21.67c-.01.03-.03.04-.06.04h-.02c-.02 0-.02-.02-.02-.03l.03-.63c.14-.08.23-.1.28-.05Z" fill="#AAD04F" /><path d="M32.66 27c.1 0 .15.08.17.22l-.35.5a.02.02 0 0 1-.03.01l-.02-.02.23-.71Z" fill="#F0F3FA" /><path d="M40.33 29.28a.78.78 0 0 1-1.33.55.78.78 0 1 1 1.1-1.1c.15.14.23.34.23.55Z" fill="#67B349" /><path d="M39.7 29.35h-.1a.2.2 0 0 0-.2.2v.1c0 .11.1.2.2.2h.1a.2.2 0 0 0 .2-.2v-.1a.2.2 0 0 0-.2-.2Z" fill="#AAD04F" /><path d="M15.55 37.68c1.3 1.67 2.86 3 4.7 4l1.82.87c-.04.02-.04.06 0 .11.03.03.03.06 0 .09a.17.17 0 0 0-.05.09c0 .03-.02.04-.05.03a.07.07 0 0 1-.03-.02s-.01 0 0 0c0 .02 0 .02-.02.03h-.01l-.35-.05a15.37 15.37 0 0 1-6.06-4.46l.13.04c.03 0 .04 0 .04-.04l-.01-.02c-.04-.02-.04-.03 0-.03l.16-.03c.06-.01.07-.04.01-.07a.1.1 0 0 0-.04-.02c-.03 0-.04-.02-.02-.05.02-.04.01-.07-.03-.09-.03 0-.04-.03-.04-.07a.1.1 0 0 0-.04-.09.3.3 0 0 1-.11-.22Z" fill="#45883E" /><path d="M34.42 42.5c-.04-.02-.06-.04-.06-.06 0-.03.01-.06.05-.08l.34-.11c.1-.03.19-.06.28-.11a8.23 8.23 0 0 0 .7-.42l.49-.05-.42-.22c-.04-.02-.03-.03 0-.03.09 0 .16.02.22.04.21.09.47.02.66-.08.1-.05.1-.08-.01-.1a.6.6 0 0 1-.3-.14c-.42-.35-.71-.8-.88-1.33 0-.19-.05-.4-.14-.6-.01-.04-.04-.05-.07-.04a.86.86 0 0 0-.14.04.29.29 0 0 0-.11.1c-.1.1-.15.23-.19.36a2.9 2.9 0 0 0-.09.67c0 .04-.01.06-.05.06h-.04a.78.78 0 0 1-.06-.33c0-.03-.01-.05-.05-.06a.2.2 0 0 0-.19.06 18.07 18.07 0 0 0-.64.32.93.93 0 0 0-.22.16c-.07.06-.13.12-.19.2l-.02.01a.05.05 0 0 1-.07-.04l.01-.12c.1-.2.19-.4.37-.54.52-.4 1.04-.77 1.58-1.14.23-.15.48-.18.72-.31.4-.23.91.18 1.16.5.34.44.48.92.41 1.44-.05.47-.32.8-.79 1-.14.07-.29.14-.42.22-.56.32-.99.54-1.3.67-.12.06-.3.08-.54.06Z" fill="#252A2D" /><path d="M18.99 38.92a13.38 13.38 0 0 0 14.24 1.68.2.2 0 0 0-.01.12.05.05 0 0 0 .07.04c.01 0 .02 0 .02-.02l.19-.2.22-.15a18.3 18.3 0 0 1 .64-.32.2.2 0 0 1 .2-.06c.03.01.04.03.04.06 0 .12.02.23.06.33-.02.02-.01.03 0 .05.02.02.04.02.07.02-.09.02-.14 0-.15-.07-.02-.15-.07-.17-.17-.04s-.23.08-.34.2a.22.22 0 0 1-.08.05c-.2.07-.4.18-.58.3-.1.08-.13.18-.18.3a.12.12 0 0 1-.06.06l-.24.1v-.02a.04.04 0 0 0-.02-.03.04.04 0 0 0-.03 0c-.55.2-1.1.38-1.65.56-.14.04-.3.03-.43.08-.78.24-1.48.36-2.1.38-.06 0-.1.01-.16.04a5.14 5.14 0 0 1-1.34.01 9.74 9.74 0 0 0-.65-.04 12.49 12.49 0 0 1-3.48-.65.22.22 0 0 0-.1-.06c-.5-.15-.95-.36-1.34-.61a1.94 1.94 0 0 0-.36-.19 1.8 1.8 0 0 1-.34-.18 24.93 24.93 0 0 0-.57-.34c-.16-.1-.3-.2-.4-.34l-.26-.26a2.18 2.18 0 0 1-.27-.3c.02-.02.02-.03 0-.04-.16-.15-.3-.3-.44-.46Z" fill="#67B349" /><path d="M35.5 39.8c-.21.17-.41.28-.61.33a.13.13 0 0 0-.08.21c.03.04 0 .09-.08.13-.03 0-.05 0-.07-.02-.01-.01-.02-.03 0-.05h.04c.04 0 .05-.02.05-.06 0-.23.04-.46.1-.67.03-.13.09-.25.18-.37a.29.29 0 0 1 .12-.09.86.86 0 0 1 .13-.04c.04-.01.06 0 .07.04.1.2.14.41.14.6Z" fill="#697577" /><path d="M35.49 39.8c.17.55.46.99.88 1.34.1.08.2.13.3.15.11.01.12.04.01.1-.2.09-.45.16-.66.07a.57.57 0 0 0-.21-.04c-.05 0-.05.01 0 .03l.4.22c-.28.02-.5-.02-.68-.1-.12-.06-.28-.07-.4.01a.93.93 0 0 1-.3.16l-.85.62a.4.4 0 0 0-.15-.2.07.07 0 0 0-.08 0l-.16.08-.35-.76a.17.17 0 0 0-.1-.1.32.32 0 0 0-.24.01c0-.02.01-.03.03-.02l.24-.1a.12.12 0 0 0 .06-.07c.05-.1.07-.21.18-.28.19-.13.38-.24.58-.31a.22.22 0 0 0 .08-.05c.11-.12.24-.07.34-.2.1-.13.15-.1.17.04.01.07.06.09.15.07.09-.04.11-.09.08-.13a.14.14 0 0 1 .02-.18.13.13 0 0 1 .06-.03c.2-.05.4-.16.6-.32Z" fill="#AFB5B8" /><path d="m27.83 42.55.89-.04c.03 0 .06 0 .08-.03a16.65 16.65 0 0 0 4.1-1.09.32.32 0 0 1 .25 0c.04.01.07.05.09.09l.35.76c-1.65.7-3.32 1.1-5 1.24-1.05.08-2.09.05-3.12-.1-.9-.13-1.51-.24-1.82-.31a16.8 16.8 0 0 1-1.58-.52l-1.82-.86-.33-.43a.22.22 0 0 1-.04-.1.56.56 0 0 1 0-.26c.02-.08.07-.1.15-.06.34.17.69.35 1.04.55.35.2.7.3 1.05.45.33.14.68.22 1.01.34.35.12.73.18 1.09.28l.28.06c.08 0 .17.02.24.05a7.04 7.04 0 0 0 2.33.18l.04-.03a.47.47 0 0 1 .05-.06.14.14 0 0 1 .06-.04c.2-.05.4-.07.6-.07Z" fill="#AAD04F" /><path d="m36.22 41.67-.48.05a8.23 8.23 0 0 1-.7.42c-.1.05-.2.08-.29.1l-.34.12a.08.08 0 0 0-.05.08c0 .02.02.04.06.06a.73.73 0 0 0-.46 0c-.03-.04-.02-.1.02-.14l.85-.62.02-.01c.1-.03.2-.08.29-.15.11-.08.27-.07.4-.01.17.08.4.12.68.1Z" fill="#697577" /><path d="M33.98 42.36c-.04.05-.05.1-.02.14a2.2 2.2 0 0 1-.45.25 15.46 15.46 0 0 1-11.95.08l.35.05h.01l.01-.02c0-.01 0-.01 0 0l.04.01c.03.01.05 0 .05-.03 0-.04.03-.07.05-.1.03-.02.03-.05 0-.08-.04-.05-.04-.1 0-.11.72.26 1.24.43 1.58.52.3.07.92.18 1.82.3 1.03.16 2.07.2 3.11.11 1.7-.13 3.36-.55 5-1.24l.17-.09a.07.07 0 0 1 .08 0 .4.4 0 0 1 .15.2Z" fill="#67B349" /></svg>