<?xml version='1.0' encoding='utf-8'?>
<!-- by TradeStack -->
<svg fill="none" viewBox="0 0 56 56" xmlns="http://www.w3.org/2000/svg"><path fill="#F0F3FA" d="M0 0h56v56H0z" /><path d="M17.82 26.27a3.75 3.75 0 0 1 .158-1.967 3.977 3.977 0 0 1 1.143-1.655c.149-.158.31-.305.483-.44 4.09-3.574 13.597-3.488 19.044-1.69L43 15.037a42.006 42.006 0 0 0-14.812-1.996C22.478 13.382 11 15.558 11 22.628c0 6.464 11.292 9.506 17.102 9.719 2.131.127 4.27.127 6.4 0-4.535.143-9.04-.73-13.141-2.55l-.32-.113a16.032 16.032 0 0 1-.903-.54l-.228-.159a7.896 7.896 0 0 1-.71-.586l-.172-.16a5.493 5.493 0 0 1-.455-.459l-.142-.2a4.056 4.056 0 0 1-.32-.559 3.323 3.323 0 0 1-.291-.752Z" fill="#7C878E" /><path d="M17.812 26.25c.063.229.152.452.264.665 1.123-3.222 8.81-6.937 20.494-3.681L43 17.768V16.47l-4.388 5.459c-6.52-2.23-19.008-1.917-20.8 4.32Z" fill="#5B6770" /><path d="M19.078 28.22c2.589-2.73 9.557-4.907 19.563-2.097L43 20.65v-1.397l-4.36 5.472c-6.03-2.044-17.066-2.05-20.18 2.829l.12.16c.155.178.321.347.498.506Z" fill="#5B6770" /><path d="M21.04 29.617c3.471-1.93 9.572-2.989 17.6-.732L43 23.413V22.01l-4.36 5.472c-5.304-1.791-14.463-1.911-18.73 1.43l.228.16c.29.197.592.379.903.546Z" fill="#5B6770" /><path d="M30.385 34.244c-10.297 0-18.29-4.6-19.285-8.554-.1-.2-.1-.2-.1-.073v1.49c0 3.383 7.367 8.888 19.285 8.888A47.21 47.21 0 0 0 43 34.345v-1.712a49.918 49.918 0 0 1-12.615 1.611Z" fill="#5B6770" /><path d="M11.17 29.205c-.12-.36-.099 0-.099 0v1.411c0 3.382 7.367 8.887 19.285 8.887A46.906 46.906 0 0 0 43 37.9v-1.77a49.71 49.71 0 0 1-12.587 1.59c-10.304 0-18.282-4.513-19.242-8.514Z" fill="#5B6770" /><path d="M11.17 32.713c-.07-.24-.1-.166-.106-.093v1.491c-.008 3.382 7.36 8.887 19.285 8.887a47.149 47.149 0 0 0 12.65-1.61v-1.752a49.976 49.976 0 0 1-12.615 1.645c-10.26 0-18.254-4.614-19.214-8.568Z" fill="#5B6770" /></svg>