<?xml version='1.0' encoding='utf-8'?>
<!-- by TradeStack -->
<svg width="56" height="56" viewBox="0 0 56 56" xmlns="http://www.w3.org/2000/svg"><path fill="#F0F3FA" d="M0 0h56v56H0z" /><path d="M28 37.79 18 41l9-8.57-3-9.64L28 11l4 11.79-3 9.64L38 41l-10-3.21Z" fill="#16341A" /><path d="m22.5 22.79 2 8.57L15 29.2V18.5l7.5 4.29ZM33.5 22.79l-2 8.57L41 29.2V18.5l-7.5 4.29Z" fill="#328535" /><path d="M14.5 29.75 10 32.43l7 7.5 7.5-6.43-10-3.75ZM41.5 29.75l4.5 2.68-7 7.5-7.5-6.43 10-3.75Z" fill="#9EC246" /></svg>