<!-- by TradeStack --><svg width="56" height="56" viewBox="0 0 56 56" xmlns="http://www.w3.org/2000/svg"><path fill="#F0F3FA" d="M0 0h56v56H0z"/><path d="M42.74 38a17.7 17.7 0 0 1-14.2 7C18.87 45 11 37.39 11 28s7.86-17 17.55-17c6.11 0 11.5 3.03 14.64 7.63l-2.59 1.66A14.63 14.63 0 0 0 28.5 14c-8 0-14.5 6.27-14.5 14s6.5 14 14.5 14c4.89 0 9.21-2.34 11.84-5.92L39 35.01 44 33v6l-1.26-1Z" fill="#0083CB"/><path d="M22.93 20H20v16h3V24.56l5 7.41 5-7.41V36h3V20h-2.93L28 27.44 22.93 20Z" fill="#0083CB"/></svg>