<?xml version='1.0' encoding='utf-8'?>
<!-- by TradeStack -->
<svg width="56" height="56" viewBox="0 0 56 56" xmlns="http://www.w3.org/2000/svg"><path fill="#F0F3FA" d="M0 0h56v56H0z" /><path fill-rule="evenodd" d="M42.76 21.49a2.3 2.3 0 0 0 .05-4.06l-12.1-6.87a4.34 4.34 0 0 0-4.25 0l-12.34 6.93A4.1 4.1 0 0 0 12 21.06v13.88c0 1.48.8 2.84 2.12 3.58l12.33 6.93c1.32.74 2.95.73 4.27-.02l12.1-6.9a2.3 2.3 0 0 0-.07-4.05l-6.6-3.5a3.02 3.02 0 0 0-2.78-.03L28.63 33 24 30.27v-4.54L28.59 23l4.77 2.05c.88.44 1.92.43 2.79-.03l6.6-3.53Zm-7.14 12.15a1.51 1.51 0 0 0-1.49 0l-4.34 2.04a2.45 2.45 0 0 1-2.41 0l-5.2-3.03A2.32 2.32 0 0 1 21 30.64v-5.28c0-.83.45-1.6 1.19-2l5.19-3.04a2.45 2.45 0 0 1 2.42 0l4.25 2c.46.26 1.03.26 1.49 0l4.96-2.81L28.59 13 15 20.38v15.24L28.59 43l11.99-6.55-4.96-2.81Z" fill="url(#au355a1py)" /><defs><linearGradient id="au355a1py" x1="12" y1="28" x2="44.07" y2="28" gradientUnits="userSpaceOnUse"><stop stop-color="#2BB2DF" /><stop offset="1" stop-color="#3EB98A" /></linearGradient></defs></svg>