<!-- by TradeStack --><svg width="56" height="56" viewBox="0 0 56 56" xmlns="http://www.w3.org/2000/svg"><path fill="#F0F3FA" d="M0 0h56v56H0z"/><circle cx="28" cy="28" r="17" fill="#A49352"/><path d="M14.5 32c-.4.4-1.5 1.17-2 1.5l3 5 2 2.5 3.5 2 4.5 1.5H30l3.5-1L38 41l2.5-2 2-3.5 1-2.5c-.33-.5-1.1-1.6-1.5-2-.5-.5-1.5-1-2.5-2s-1.5-1-2-1.5-2-.5-2.5-1-2.5-1-3-2-1.5-2-2-2.5-1-1-2-1-2.5 1.5-3 2-1.5 1-2 1-1.5 1-2 1-1 2-1.5 2.5-1.5 1.5-2.5 2-2 2-2.5 2.5Z" fill="#1B1B1B"/><path d="M28 29.5c-.33-.17-1-.6-1-1 0-.17.06-.33.11-.5.11-.33.22-.67-.11-1-.4-.4-.17-1.17 0-1.5-.33.33-1 1.1-1 1.5 0 .2.15.38.27.55.2.26.35.45-.27.45-1 0-1.5 0-1.5.5s.5 1.5.5 1 .5-.5 1 .5c.25.5.25.88.25 1.19 0 .31 0 .56.25.81s.13.63 0 1c-.13.38-.25.75 0 1s.25.38.25.38 0-.13.25-.38c.5-.5 1-1.5.5-2s-.5-1 0-1.5c.25-.25.5-.38.75-.5.25-.13.5-.25.75-.5.5-.5 1-.5 1.5 0s1 1 1 .5c0-.22-.2-.34-.37-.45-.22-.15-.41-.27-.13-.55.23-.23.67-.35 1.08-.47.48-.14.92-.26.92-.53 0-.25-.25-.25-.5-.25s-.5 0-.5-.25c0-.5 0-1 .5-1 .22 0 .44.4.67.79.27.5.55.99.83.71.11-.11.2-.22.27-.32.28-.35.45-.57 1.23-.18.5.25 1 .25 1.38.25.37 0 .62 0 .62.25v1c0 .2-.07.38-.14.55-.1.26-.17.45.14.45.17 0 .29 0 .38.04.18.08.3.3.62.96.2.38.38.7.55.95.26.43.45.74.45 1.05 0 .5-.5 1-1 0l-.31-.66c-.53-1.14-1.28-2.75-1.69-2.34-.22.22-.15.25-.05.29.14.06.33.14.05.71-.28.55-.1 1.26.04 1.78.1.42.18.72-.04.72-.5 0-1.5 0-1 .5.2.2.47.24.73.28.4.06.77.11.77.72 0 .4 0 .48.03.5h.03c.06 0 .19 0 .44.5.2.38.38.62.55.82.26.33.45.56.45 1.18 0 .8.33 1.67.5 2l1-1-.44-1.75c.07.13.2.25.44.25.25 0 .13-.13-.06-.31-.19-.19-.44-.44-.44-.69 0-.19-.14-.58-.29-1-.25-.71-.52-1.5-.21-1.5.5 0 1 0 1-1 0-.59-.17-1.17-.31-1.66-.1-.34-.19-.63-.19-.84v-.14l.02.03c.04.11.15.44.48.11.4-.4-.5-1.5-1-2-.5-.17-1.6-.6-2-1-.18-.18-.43-.23-.75-.3-.55-.1-1.3-.25-2.25-1.2-.17 0-.6-.1-1-.5a3.05 3.05 0 0 0-.5-.39 2.5 2.5 0 0 1-1-1.11c-.5-1-2-2.5-2.5-2.5-.17-.17-.6-.4-1 0-.33.33-.22.67-.11 1 .05.17.11.33.11.5 0 .25-.13.75-.25 1.25-.13.5-.25 1-.25 1.25 0 .17-.06.39-.11.61-.11.45-.22.89.11.89.5 0 1 .5.5 1-.25.25-.13.5 0 .75s.25.5 0 .75ZM19.5 32v-1.5c0-.5 0-1 .5-1.5.13-.13.25-.28.38-.44.37-.47.75-.93 1.12-.56.5.5 0 1-.5 1.5s-.5 1-.5 1.5 0 1-1 1ZM13 34.5c.33-.33 1.1-.9 1.5-.5.4.4-.5.83-1 1l-.5-.5Zm3 .5c-.8-.8-.67-2-.5-2.5.26-.26.66.02 1.12.36.43.3.9.64 1.38.64 1 0 1.5 0 2 1 .37.74.2 1.74.08 2.42-.05.25-.08.45-.08.58 0 .14-.04.28-.09.44-.11.42-.27.98.09 2.06.3.87.92 1.07 1.6 1.28.48.15.98.3 1.4.72.8.8.67 1.33.5 1.5A29 29 0 0 0 21 42c-.56-.28-.8-.72-1.1-1.23-.22-.4-.46-.83-.9-1.27-.38-.38-.7-.62-.95-.82a2.98 2.98 0 0 1-1.33-2.2c-.06-.45-.11-.87-.72-1.48Zm15-.5c0 .33.1 1 .5 1h.14l-.03.02c-.11.04-.44.15-.11.48.5.5.5.5.5 1.5V39c0 1 1 2 1 1.5s.5-1.5.5-.5c0 .58 0 .82.1 1.02.07.15.19.27.4.48.4.4.83 1.17 1 1.5l1-.5c-.33-.5-1.1-1.6-1.5-2-.3-.3-.24-.43-.14-.59.07-.1.14-.22.14-.41 0-.4-.67-1.17-1-1.5.17 0 .5-.1.5-.5 0-.22-.1-.25-.24-.29-.2-.06-.48-.14-.76-.71-.5-1-1.5-2.5-2-2ZM42 32c0-.59-.17-.66-.31-.72-.1-.04-.19-.07-.19-.28.8 0 1.67 1.33 2 2l-.5 1.5c-.17.17-.5.4-.5 0 0-.2-.09-.5-.19-.84-.14-.49-.31-1.07-.31-1.66Zm-11-4c-.33-.17-1-.6-1-1 0-.2.07-.3.14-.41.1-.16.17-.28-.14-.59-.25-.25-.25-.5-.25-.75s0-.5-.25-.75c-.5-.5-1-1-.5-1 .25 0 .38 0 .44-.06.06-.07.06-.19.06-.44 0-.34-.23-.45-.22-.48 0-.02.06-.02.22-.02.5 0 1.5 1 1.5 1.5 0 .25.25.38.5.5.25.13.5.25.5.5s.25.5.44.69c.19.18.31.31.06.31s-.5-.25-.75-.5-.5-.5-.75-.5-.25-.13-.25-.25c0-.13 0-.25-.25-.25-.16 0-.22 0-.22.02-.01.03.22.14.22.48v1.5c0 .2.16.4.32.6.24.3.48.6.18.9Z" fill="#E4E1CB"/><path fill-rule="evenodd" d="M28 44a16 16 0 1 0 0-32 16 16 0 0 0 0 32Zm0 1a17 17 0 1 0 0-34 17 17 0 0 0 0 34Z" fill="#352F28"/></svg>