<?xml version='1.0' encoding='utf-8'?>
<!-- by TradeStack -->
<svg width="56" height="56" viewBox="0 0 56 56" xmlns="http://www.w3.org/2000/svg"><path fill="#F0F3FA" d="M0 0h56v56H0z" /><path d="M10.9 24.39a2.94 2.94 0 0 0-2.96 3.03 2.96 2.96 0 0 0 2.96 3.07c.91 0 1.96-.5 2.72-1.26L15.3 31a6.58 6.58 0 0 1-4.54 2C7.45 33 5 30.63 5 27.45 5 24.35 7.51 22 10.86 22c1.62 0 3.32.7 4.42 1.85l-1.66 1.95a3.74 3.74 0 0 0-2.72-1.41ZM22 29.48V33h-3v-3.44L15 22h2.9l2.59 5.1 2.6-5.1H26l-4 7.48ZM29.73 22 35 28.62V22h3v11h-2.71L30 26.4V33h-3V22h2.73ZM51 27.5c0 3.27-2.5 5.5-6.2 5.5H40V22h4.92c3.62 0 6.08 2.23 6.08 5.5Zm-3.05.02c0-1.9-1.28-3.18-3.1-3.18H43v6.34h2c1.73 0 2.95-1.27 2.95-3.16Z" fill="#084E9B" /></svg>