<!-- by TradeStack --><svg width="56" height="56" viewBox="0 0 56 56" xmlns="http://www.w3.org/2000/svg"><path fill="#F0F3FA" d="M0 0h56v56H0z"/><path d="M49.9 30.7a.77.77 0 0 0-.34-.59 1.3 1.3 0 0 0-.77-.2c-.22 0-.41.03-.57.1a.84.84 0 0 0-.36.27.65.65 0 0 0-.05.7c.06.09.14.17.23.23a3.52 3.52 0 0 0 .68.26l.55.13c.23.05.44.12.64.21.21.09.4.2.56.33.16.13.3.3.39.48.1.19.14.4.14.66a1.57 1.57 0 0 1-1.03 1.5 3 3 0 0 1-1.2.22c-.45 0-.85-.07-1.19-.21-.33-.14-.6-.34-.78-.61a1.8 1.8 0 0 1-.3-.99h1.04c.02.2.08.37.19.5a1 1 0 0 0 .43.31c.18.07.38.1.6.1.24 0 .44-.03.61-.1a.98.98 0 0 0 .41-.3.7.7 0 0 0 .16-.43.55.55 0 0 0-.14-.37.99.99 0 0 0-.37-.25 3.58 3.58 0 0 0-.55-.19l-.67-.17a2.7 2.7 0 0 1-1.14-.56 1.29 1.29 0 0 1-.42-1c0-.34.1-.64.28-.9.19-.26.45-.46.77-.6.33-.14.7-.21 1.1-.21.42 0 .79.07 1.1.21.31.14.56.34.74.6.18.25.27.54.28.86H49.9ZM41.3 31.06h-1.08a1.31 1.31 0 0 0-.48-.81c-.12-.1-.26-.17-.42-.21a1.65 1.65 0 0 0-1.35.16c-.24.16-.43.39-.57.7-.14.3-.21.67-.21 1.1 0 .45.07.82.2 1.13.15.3.34.53.58.69a1.72 1.72 0 0 0 1.34.16c.16-.05.3-.12.42-.21a1.22 1.22 0 0 0 .49-.79h1.07a2.27 2.27 0 0 1-.78 1.43 2.4 2.4 0 0 1-.75.43c-.29.1-.6.15-.95.15a2.49 2.49 0 0 1-2.34-1.38 3.44 3.44 0 0 1-.35-1.6c0-.63.12-1.17.35-1.61a2.5 2.5 0 0 1 2.34-1.38c.32 0 .63.04.9.13.29.1.54.23.76.4.22.18.4.39.54.64.14.26.24.54.28.87ZM29 29h1v3.86a2 2 0 0 1-1.19 1.87c-.37.18-.8.27-1.31.27-.5 0-.94-.09-1.32-.27A2.02 2.02 0 0 1 25 32.86V29h1v3.77c0 .79.75 1.27 1.5 1.27s1.5-.48 1.5-1.27V29ZM24.38 32c0 .63-.11 1.17-.35 1.62A2.5 2.5 0 0 1 21.69 35a2.55 2.55 0 0 1-2.34-1.39 3.44 3.44 0 0 1-.36-1.61c0-.63.12-1.17.35-1.61A2.53 2.53 0 0 1 21.7 29c.51 0 .97.12 1.38.36.4.23.72.58.96 1.03.23.44.35.98.35 1.61Zm-1.07 0c0-.44-.07-.82-.2-1.12-.14-.3-.33-.54-.58-.7a1.52 1.52 0 0 0-.84-.23c-.32 0-.6.08-.85.24-.24.15-.44.38-.57.69-.14.3-.21.68-.21 1.12 0 .44.07.82.2 1.12.14.3.34.54.58.7.25.15.53.23.85.23.32 0 .6-.08.84-.23.25-.16.44-.4.58-.7.13-.3.2-.68.2-1.12ZM17.27 30.68a.78.78 0 0 0-.34-.58 1.3 1.3 0 0 0-.77-.2c-.22 0-.4.03-.57.1a.84.84 0 0 0-.36.26.66.66 0 0 0-.05.71c.06.09.14.17.24.23a3.5 3.5 0 0 0 .68.26l.55.13c.22.06.43.12.64.21.2.09.39.2.55.33.16.14.3.3.39.48.1.2.14.41.14.66a1.57 1.57 0 0 1-1.02 1.51 3 3 0 0 1-1.2.22c-.46 0-.86-.07-1.2-.21-.33-.14-.59-.35-.78-.62-.18-.27-.29-.6-.3-.98h1.04c.02.2.08.37.2.5a1 1 0 0 0 .43.3c.18.07.38.1.6.1.23 0 .43-.03.6-.1a.99.99 0 0 0 .42-.29.7.7 0 0 0 .15-.43.56.56 0 0 0-.13-.38.99.99 0 0 0-.37-.25 3.58 3.58 0 0 0-.55-.18l-.67-.17a2.7 2.7 0 0 1-1.15-.56 1.29 1.29 0 0 1-.42-1.01c0-.34.1-.64.28-.9.2-.26.45-.46.78-.6.32-.15.69-.22 1.1-.22.41 0 .78.07 1.1.22.3.14.56.34.74.6.17.24.27.53.27.86h-1.02ZM4 35v-6h2.2c.45 0 .83.08 1.14.24.3.16.54.39.7.67.15.3.23.63.23 1C8.27 32 7.3 33 6.19 33H4.62v-1h1.42c.64 0 1.15-.32 1.15-1 0-.78-.5-1-1.15-1H5v5H4Zm3.03-2.72L8.48 35H7.3l-1.43-2.72h1.16ZM31 35v-6h2.2c.45 0 .83.08 1.14.24.3.16.54.39.7.67.15.3.23.63.23 1 0 1.08-.97 2.09-2.08 2.09h-1.57v-1h1.42c.64 0 1.15-.32 1.15-1 0-.78-.5-1-1.15-1H32v5h-1Zm3.03-2.72L35.48 35H34.3l-1.43-2.72h1.16ZM38 21v6h-.98l-2.87-4.09H34V27h-1v-6h.99l2.86 4.09H37V21h1ZM44 21v6h-.98l-2.87-4.09H40V27h-1v-6h.99l2.86 4.09H43V21h1ZM21.8 21H23l1.44 2.65h.05L25.93 21h1.2L25 24.76V27h-1v-2.24L21.8 21ZM17 27v-6h4v1h-3v1.54h2.77v.91H18V26h3v1h-4ZM9 35v-6h4v1h-3v1.54h2.77v.91H10V34h3v1H9ZM28 27v-6h4v1h-3v1.54h2.77v.91H29V26h3v1h-4ZM42 35v-6h4v1h-3v1.54h2.77v.91H43V34h3v1h-4ZM45 27v-6h4v1h-3v1.54h2.77v.91H46V26h3v1h-4ZM11 27v-6h1v2.54h3V21h1v6h-1v-2.55h-3V27h-1ZM10.32 23.05H9.25a1.32 1.32 0 0 0-.48-.81c-.12-.1-.26-.17-.42-.22a1.64 1.64 0 0 0-1.34.17c-.25.16-.44.39-.58.7-.14.3-.21.67-.21 1.11 0 .45.07.82.2 1.13.15.3.34.53.59.69a1.72 1.72 0 0 0 1.34.16 1.35 1.35 0 0 0 .72-.54c.09-.14.15-.29.18-.46h1.07a2.29 2.29 0 0 1-.78 1.43 2.4 2.4 0 0 1-.75.44c-.29.1-.6.15-.95.15-.52 0-.98-.12-1.39-.36a2.5 2.5 0 0 1-.95-1.03A3.46 3.46 0 0 1 5.15 24c0-.63.12-1.17.35-1.61A2.51 2.51 0 0 1 7.84 21c.32 0 .63.05.9.14a2.14 2.14 0 0 1 1.3 1.05c.14.25.24.54.28.86Z"/></svg>