<?xml version='1.0' encoding='utf-8'?>
<!-- by TradeStack -->
<svg width="56" height="56" viewBox="0 0 56 56" xmlns="http://www.w3.org/2000/svg"><path fill="#F0F3FA" d="M0 0h56v56H0z" /><path fill-rule="evenodd" d="M28 43c12.15 0 22-6.72 22-15 0-8.28-9.85-15-22-15S6 19.72 6 28c0 8.28 9.85 15 22 15Zm0-.44c11.8 0 21.36-6.52 21.36-14.56 0-8.04-9.56-14.56-21.36-14.56-11.8 0-21.36 6.52-21.36 14.56 0 8.04 9.56 14.56 21.36 14.56Z" fill="#90492E" /><path d="M21.84 18.25c-.92 1.26-3.6 3.02-4.84 3.75h22c-.7-.5-2.28-1.56-2.98-1.76-.86-.25-2.39-2-3.14-2.35-.76-.35-3-1.21-3.92-1.57-.92-.36-1.04-1.32-1.85-1.32-.8 0-4.12 1.68-5.27 3.25Z" fill="url(#abasjrn0a)" /><path d="M10 29c.6 4.47 8.44 8 18.04 8s17.45-3.53 18.04-8h-.49c-.28 1.94-2.08 3.76-5 5.14-3.2 1.51-7.63 2.45-12.55 2.45-4.92 0-9.36-.94-12.54-2.45-2.93-1.38-4.73-3.2-5.01-5.14H10Z" fill="#945533" /><path d="M11 28h10.97l.3.3H11.05L11 28Zm.18.83.15.4 8.92-.35-9.07-.05Zm.4.9c.12.23.26.44.41.65l8.26-1.1-8.67.46Zm.8 1.14c.18.2.37.4.59.6l8.57-1.84-9.16 1.24Zm1.08 1.04c.33.27.7.53 1.08.78l8.8-2.9-9.88 2.12Zm1.68 1.15c.41.24.85.46 1.31.68l8.2-3.82-9.51 3.14Zm1.97.97c.5.2 1 .4 1.54.57l7.25-4.67-8.79 4.1Zm2.23.78c.76.23 1.56.43 2.39.6l4.85-5.26-7.24 4.66Zm3.05.72c1 .17 2.05.3 3.13.38l1.63-5.54-4.76 5.16Zm3.73.42a34.14 34.14 0 0 0 3.48.01l-1.74-5.9-1.74 5.89Zm4.08-.02a31.9 31.9 0 0 0 3.09-.35l-4.68-5.07 1.6 5.42Zm3.75-.47c.85-.15 1.67-.35 2.45-.57l-7.36-4.75 4.9 5.32Zm3.15-.78a21.9 21.9 0 0 0 1.59-.57l-8.97-4.18 7.38 4.75Zm2.25-.85c.49-.22.94-.45 1.37-.7l-9.74-3.2 8.37 3.9Zm1.98-1.05c.4-.26.78-.53 1.13-.8l-10.18-2.2 9.05 3Zm1.63-1.24c.23-.2.43-.41.62-.63l-9.5-1.28 8.88 1.91Zm1.01-1.1c.17-.23.31-.46.44-.69l-9.04-.48 8.6 1.16Zm.69-1.2.16-.42-10.08.06 9.92.37Zm.3-.95L45 28H34.05l-.3.3h11.2Z" fill="url(#bbasjrn0a)" /><path d="M13.65 23.36v1.35h-.26c-.2-.8-.79-1.39-1.86-1.39-1.43 0-2.14 1.05-2.14 2.12 0 1.03.81 2.24 2.21 2.24 1.18 0 1.75-.75 2.14-1.54l.26.07-.54 1.47c-.62.22-1.26.32-1.93.32C9.7 28 8 27.18 8 25.57 8 23.92 9.74 23 11.6 23c.7 0 1.42.1 2.05.36ZM15.49 24c.81 0 1.51.51 1.51 1.48 0 .94-.65 1.52-1.5 1.52s-1.5-.56-1.5-1.5c0-.9.65-1.5 1.49-1.5Zm-.05.2c-.6 0-.81.71-.81 1.24 0 .59.26 1.37.91 1.37.62 0 .83-.68.83-1.23 0-.6-.26-1.39-.93-1.39ZM20.66 26.07l-.1-1.5-1.2 2.43h-.15l-1.16-2.34-.13 1.7c-.03.4.21.4.6.47v.13H17v-.13c.38-.1.48-.1.54-.45l.3-1.86c.04-.32-.24-.33-.54-.4V24h1.34v.09c-.13.15.08.48.15.62l.72 1.4.82-1.61c.06-.12.18-.3.04-.41V24h1.44v.12c-.5.1-.59.16-.56.58l.08 1.4c.04.5.05.65.67.73v.13h-1.96v-.13c.7-.06.65-.2.62-.76ZM26.66 26.07l-.1-1.5-1.2 2.43h-.15l-1.16-2.34-.13 1.7c-.03.4.21.4.6.47v.13H23v-.13c.38-.1.48-.1.54-.45l.3-1.86c.04-.32-.24-.33-.54-.4V24h1.34v.09c-.13.15.08.48.15.62l.72 1.4.82-1.61c.06-.12.18-.3.04-.41V24h1.44v.12c-.5.1-.59.16-.56.58l.08 1.4c.04.5.05.65.67.73v.13h-1.96v-.13c.7-.06.65-.2.62-.76ZM30.5 24.12V24H32v.12c-.46.1-.46.17-.5.9l-.03.64c-.02.34-.03.72-.3.98-.3.27-.73.36-1.13.36-.38 0-.83-.09-1.11-.31-.34-.28-.3-.7-.3-1.05v-.68c0-.78-.06-.75-.63-.84V24h1.9v.12c-.66.05-.63.25-.63.84v.6c0 .25-.01.59.14.8.2.27.59.37.92.37.8 0 .92-.52.9-1.05l-.03-1.04c-.02-.46-.25-.44-.7-.52ZM32.63 26.27v-1.32c0-.43-.01-.74-.63-.83V24h1.12c.6.7 1.45 1.4 2.15 2.11h.01l-.03-1.36c0-.5-.15-.56-.73-.63V24H36v.12c-.43.03-.45.21-.45.9v1.89l-.22.09c-.48-.5-1.63-1.53-2.43-2.28-.02.47 0 1.04.03 1.5.02.52.12.56.7.66V27h-1.6v-.12c.36-.06.6-.04.6-.61ZM38.33 24.98v1.04c0 .8.07.77.67.86V27h-2v-.12c.6-.1.67-.06.67-.86v-1.04c0-.8-.07-.77-.67-.86V24h2v.12c-.6.1-.67.06-.67.86ZM40.12 24.97l-.12-.02.1-.95h.1c.03.08.1.11.16.13h2.06c.15 0 .3.03.39-.13h.09l.1.95-.12.02c-.18-.6-.5-.66-1.1-.66v1.75c0 .77.06.74.66.82V27h-1.88v-.12c.6-.08.65-.05.65-.82v-1.75c-.6 0-.91.06-1.09.66Z" fill="#945533" /><path d="M45.48 25.88v.49c0 1-.05 1.34 1.22 1.42V28h-3.55v-.2c1.1-.15 1.22-.1 1.22-1.43v-.34l-.95-1.67c-.38-.67-.48-.98-1.42-1.15V23h2.92v.2c-.59.14-.86.08-.38.98l.74 1.34.45-.8c.72-1.28.57-1.34-.18-1.51V23H48v.2c-.72.14-1.06.3-1.4.84l-.97 1.56-.15.27ZM7.32 28.28c.01.1.03.16.06.2.05.07.12.1.22.08l1.73-.2c.1-.02.17-.06.2-.13a.55.55 0 0 0 .01-.22l.1-.01.12 1.1c.03.22.02.4 0 .55-.07.27-.22.43-.46.46a.43.43 0 0 1-.37-.12.79.79 0 0 1-.2-.33h-.04c0 .14-.04.26-.09.36-.1.2-.24.32-.46.35a.56.56 0 0 1-.5-.22 1.3 1.3 0 0 1-.28-.7l-.13-1.16.09-.01Zm1.34.74c.02.22.08.36.16.43s.21.09.4.07a.73.73 0 0 0 .33-.12c.08-.06.12-.16.1-.3 0-.08-.02-.13-.05-.15-.03-.03-.08-.04-.14-.03l-.8.1Zm-1 .12c-.06 0-.1.02-.13.04-.05.04-.07.1-.06.18.02.17.08.28.18.34.1.05.23.07.4.05.25-.03.41-.12.48-.28.04-.1.05-.25.02-.44l-.89.1Zm1.46 3.06.57-.7-.02-.02-.88.1.33.62Zm-1.3-.83c.05.07.11.11.2.13l.34-.02 2.1-.21.05.08-1.3 1.6c-.14.18-.22.3-.26.38a.21.21 0 0 0 .01.2l-.08.05-.54-1.03.08-.05.13.2c.03.02.08.02.13-.01a.47.47 0 0 0 .1-.09l.09-.1.15-.18-.38-.72a26.7 26.7 0 0 0-.5.1c-.04.02-.06.07-.04.14 0 .05.03.1.06.18l-.08.04-.34-.65.08-.04Zm1.66 2.85c.09.1.17.15.23.15s.12-.04.2-.1l1.25-1.15.03-.3a.2.2 0 0 0-.04-.1l.06-.06.51.57-.3 1.94h.02l.79-.7c.09-.1.14-.17.15-.23 0-.07-.03-.16-.11-.27l.07-.06.51.58-.06.06a.5.5 0 0 0-.21-.12c-.05 0-.11.03-.2.1l-1.56 1.43-.07-.08.37-2.47-.02-.02-1.04.95c-.09.07-.13.14-.15.2-.02.08.02.18.11.3l-.07.05-.54-.6.07-.07Zm2.33 2.4a.5.5 0 0 0 .2.09c.07 0 .14-.03.2-.12l.96-1.45c.06-.09.07-.17.04-.23a.55.55 0 0 0-.16-.16l.06-.08 1 .68-.05.08c-.1-.06-.19-.09-.25-.08-.05 0-.12.06-.2.18l-.42.64 1.08-.22.15-.04a.14.14 0 0 0 .06-.06c.03-.03.03-.07 0-.1a1.21 1.21 0 0 0-.18-.16l.05-.08.86.58-.05.08a.88.88 0 0 0-.47-.13c-.15 0-.47.06-.94.16l.15 1.75c0 .03.02.06.03.08l.08.08-.05.07-1-.67.05-.08.2.12c.03.01.06 0 .07-.02l.02-.06v-.12l-.09-1.05-.13.03-.39.59c-.05.08-.06.16-.03.23.02.04.07.1.15.15l-.05.08-1-.68.05-.08Zm4.93 2.86c.25.1.48.03.69-.23.12-.14.23-.34.33-.6.15-.36.2-.65.17-.87-.03-.22-.14-.37-.32-.45-.25-.1-.48-.02-.7.24-.11.14-.22.34-.32.6-.1.25-.17.47-.19.65-.02.34.09.56.34.66Zm.92-2.26a1.24 1.24 0 0 1 .69 1.67c-.14.35-.37.6-.7.72-.3.13-.62.12-.96-.02a1.24 1.24 0 0 1-.7-1.65c.14-.35.37-.6.68-.73.3-.14.64-.13.99.01Zm1.13 2.99c.1.02.18.03.23.02.07-.02.12-.08.15-.18l.48-1.68c.03-.1.02-.17-.04-.23a.58.58 0 0 0-.2-.1l.03-.09 1.95.57-.2.7-.08-.03c.02-.23-.01-.4-.09-.51-.07-.12-.25-.22-.52-.3-.1-.02-.17-.03-.2-.02-.04.02-.06.06-.08.12l-.23.8c.19.06.32.06.41 0a.94.94 0 0 0 .26-.36l.1.03-.34 1.17-.1-.03a.83.83 0 0 0-.02-.45c-.04-.1-.16-.18-.34-.24l-.24.81c-.03.1-.01.19.04.23.05.05.14.09.27.12l-.02.1-1.24-.37.02-.08Zm3.74.16.1.01c.02.28.09.48.2.62.1.14.25.23.41.25.16.03.28 0 .37-.07a.41.41 0 0 0 .14-.25c.01-.1-.01-.2-.07-.28a1.35 1.35 0 0 0-.26-.21l-.22-.15a1.54 1.54 0 0 1-.43-.41.63.63 0 0 1-.08-.43.76.76 0 0 1 .26-.46c.14-.14.34-.18.6-.15.13.02.25.06.37.12l.2.09c.04 0 .07 0 .09-.02a.29.29 0 0 0 .05-.09l.1.02-.11.78-.1-.02a1.1 1.1 0 0 0-.18-.5.58.58 0 0 0-.41-.26.4.4 0 0 0-.3.05.32.32 0 0 0-.14.23c-.02.11 0 .2.06.27.06.06.2.17.4.31l.24.17c.11.08.2.16.26.24.11.16.15.33.12.52a.76.76 0 0 1-.28.48c-.17.14-.4.19-.72.14a1.19 1.19 0 0 1-.42-.15l-.06-.03-.05-.02a.2.2 0 0 0-.04-.01c-.03 0-.06 0-.08.02a.33.33 0 0 0-.05.09l-.1-.02.13-.88Zm3.9.42-.3-.85h-.03l-.37.82.7.03Zm-1.38.7c.09 0 .16-.05.22-.12l.15-.3.9-1.92h.1l.7 1.93c.08.22.14.36.18.42.05.07.1.1.19.1v.1l-1.16-.06v-.1l.23-.01c.04-.02.06-.05.06-.12 0-.02 0-.07-.02-.13a2.6 2.6 0 0 0-.04-.12l-.08-.22-.8-.04a24.18 24.18 0 0 0-.18.47c0 .05.03.1.1.12l.18.03v.09l-.73-.04v-.09Zm3.3.12c.14 0 .22-.04.26-.09.03-.05.05-.12.04-.21l-.08-1.7a3.36 3.36 0 0 0-.21-.21.2.2 0 0 0-.1-.04l-.01-.1.76-.03 1.3 1.46h.02l-.05-1.07c-.01-.12-.04-.21-.08-.26-.05-.05-.14-.08-.27-.08v-.1l.76-.03v.1a.5.5 0 0 0-.21.08c-.04.03-.06.1-.05.21l.1 2.12-.1.01-1.67-1.85h-.02l.07 1.42c0 .1.02.18.05.23.06.07.16.1.3.1v.1l-.8.03v-.09Zm3-2.53 2.14-.32.1.72-.1.02c-.07-.26-.19-.42-.36-.48a.88.88 0 0 0-.41-.03l.28 1.88c.01.13.05.22.1.25.05.04.15.05.3.03l.01.09-1.26.18-.02-.09c.14-.02.23-.05.27-.1.04-.05.05-.14.03-.27l-.28-1.88a.9.9 0 0 0-.38.14c-.16.12-.23.3-.21.56l-.1.02-.1-.72Zm4.25.81-.54-.73-.03.01-.1.9.67-.18Zm-1.12 1.07a.27.27 0 0 0 .17-.17l.07-.33.3-2.1.09-.03 1.23 1.64c.14.18.24.3.3.35.06.05.12.06.2.04l.03.09-1.13.28-.02-.09a.82.82 0 0 0 .21-.08c.04-.03.04-.07.03-.13a.47.47 0 0 0-.06-.12 2.32 2.32 0 0 0-.07-.1l-.15-.2-.78.2a22.92 22.92 0 0 0-.02.5c0 .06.05.09.12.1l.19-.03.02.09-.71.18-.02-.1Zm3.85-1.06c.12-.05.2-.11.21-.17.02-.06 0-.14-.03-.22l-.7-1.56c-.04-.1-.1-.14-.15-.15-.05-.01-.14 0-.25.05l-.04-.09.83-.37 1.33 1.22h.02l-.04-1.82.82-.38.04.09c-.11.06-.18.11-.2.16-.03.05-.01.14.04.27l.66 1.45c.05.12.1.2.17.21.05.02.14 0 .25-.04l.04.08-1.08.5-.04-.08c.1-.05.16-.1.2-.15.03-.05.02-.13-.02-.23l-.72-1.6h-.03l.07 2.3-.08.04-1.67-1.52h-.01l.67 1.5c.05.1.1.17.17.2.06.03.16.02.3-.04l.04.09-.76.35-.04-.09Zm4.41-3.17-.75-.5-.02.02.2.87.57-.39Zm-.7 1.39c.07-.06.1-.13.11-.22 0-.06-.01-.17-.05-.33l-.43-2.09.09-.06 1.7 1.13c.2.13.33.2.4.23s.14.02.21-.03l.05.08-.96.65-.05-.08.17-.15c.02-.04.02-.08-.02-.13a.47.47 0 0 0-.1-.1 2.37 2.37 0 0 0-.1-.07l-.2-.13-.66.45a24.16 24.16 0 0 0 .14.49c.03.04.08.05.15.03l.16-.08.05.07-.6.41-.06-.07Zm2.69-1.93c.08-.09.12-.17.12-.23s-.04-.13-.13-.23L43.6 34.6c-.1-.1-.18-.14-.25-.13-.04 0-.11.04-.2.12l-.07-.06.82-.82c.17-.17.32-.3.46-.36.28-.13.5-.1.7.08.13.14.19.3.17.49a.83.83 0 0 1-.14.36l1.23.21h.09a.28.28 0 0 0 .07-.05l.06.06-.52.52-1.32-.27-.07.07.5.5c.09.09.16.14.22.14s.14-.04.23-.13l.07.06-.86.86-.06-.06Zm-.18-1.45c.17-.17.26-.31.29-.43.03-.12-.04-.26-.2-.42a.78.78 0 0 0-.27-.2c-.14-.04-.28 0-.4.12-.07.07-.1.12-.11.16 0 .04.01.08.05.12l.64.65Zm2.38-1.01a.56.56 0 0 0 .08-.21c0-.08-.03-.15-.12-.2l-1.48-.93c-.09-.05-.17-.06-.23-.02a.58.58 0 0 0-.16.17l-.07-.05.65-1.07.08.05a.63.63 0 0 0-.09.22c0 .08.04.14.13.2l1.48.92c.08.05.15.06.21.03a.5.5 0 0 0 .18-.19l.07.05-.65 1.07-.08-.04Zm.73-3.34-.9.1v.04l.71.54.19-.68Zm.36 1.5a.27.27 0 0 0-.05-.23 1.6 1.6 0 0 0-.26-.22l-1.67-1.3.03-.1 2.03-.26c.22-.03.37-.06.44-.09a.21.21 0 0 0 .14-.16l.09.03-.31 1.12-.1-.02c.03-.12.05-.2.04-.23 0-.04-.04-.07-.1-.09a.47.47 0 0 0-.13 0h-.13l-.23.04-.22.78a23.97 23.97 0 0 0 .42.27c.05.01.1 0 .14-.07l.07-.17.09.02-.2.71-.09-.02Z" fill="#945533" /><path d="M15.08 19.86c-.58.71-2.3 1.72-3.08 2.14h14c-.45-.29-1.45-.9-1.9-1-.55-.15-1.52-1.14-2-1.35-.48-.2-1.9-.7-2.49-.9-.59-.2-.66-.75-1.17-.75-.52 0-2.63.96-3.36 1.86Z" fill="url(#cbasjrn0a)" /><path d="M42.48 19.86c.67.71 2.63 1.72 3.52 2.14H30c.51-.29 1.66-.9 2.16-1 .63-.15 1.74-1.14 2.3-1.35.54-.2 2.17-.7 2.84-.9.67-.2.75-.75 1.34-.75.6 0 3 .96 3.84 1.86Z" fill="url(#dbasjrn0a)" /><defs><linearGradient id="abasjrn0a" x1="33.15" y1="19.56" x2="23.05" y2="19.29" gradientUnits="userSpaceOnUse"><stop offset=".06" stop-color="#C9912C" /><stop offset=".5" stop-color="#D7CE4F" /><stop offset="1" stop-color="#52813A" /></linearGradient><linearGradient id="bbasjrn0a" x1="11" y1="28" x2="45" y2="28" gradientUnits="userSpaceOnUse"><stop stop-color="#E7E069" /><stop offset=".5" stop-color="#66893B" /><stop offset="1" stop-color="#DDD623" /></linearGradient><linearGradient id="cbasjrn0a" x1="21.9" y1="19.48" x2="15.09" y2="22" gradientUnits="userSpaceOnUse"><stop stop-color="#C9912C" /><stop offset=".43" stop-color="#D7CE4F" /><stop offset="1" stop-color="#52813A" /></linearGradient><linearGradient id="dbasjrn0a" x1="38" y1="23.23" x2="35.64" y2="19.19" gradientUnits="userSpaceOnUse"><stop stop-color="#D7CE4F" /><stop offset=".59" stop-color="#C9912C" /><stop offset="1" stop-color="#52813A" /></linearGradient></defs></svg>