<?xml version='1.0' encoding='utf-8'?>
<!-- by TradeStack -->
<svg width="56" height="56" viewBox="0 0 56 56" xmlns="http://www.w3.org/2000/svg"><path fill="#F0F3FA" d="M0 0h56v56H0z" /><path d="M8.43 34.8c.85 2.06 3.44 1.97 4.63 1.67C9.55 38.13 7 36.47 7 32.9c0-3.55.67-7.5 5.04-12.14 3.5-3.7 6.72-2.9 7.9-2.05-6.51-.65-10.38 6.34-11.19 8.17-.8 1.84-1.38 5.35-.32 7.92Zm12.93-13.73c-.81-1.89-3.3-1.88-4.43-1.64 1.38-.61 3.93-.9 5.13 1.03.96 1.54.6 4.25.29 5.42 0-.82-.19-2.92-1-4.8ZM10.28 37.38c.96.16 3.47 0 5.92-1.96a15.62 15.62 0 0 0 4.8-6.3c.09.16.35.45.69.34-.36.86-1.36 2.9-2.53 4.26-1.45 1.7-4.07 4.28-6.88 4.28a3.06 3.06 0 0 1-2-.62Z" fill="#E32227" /><path d="M18 26h-2v-1.55a.96.96 0 0 0-.97-.98c-.56 0-1.03.44-1.03.98v6.16c0 .54.47.98 1.03.98.55 0 .97-.44.97-.98V29h2v1.78A2.26 2.26 0 0 1 15.7 33h-1.4c-1.27 0-2.3-1-2.3-2.22V24.2a2.26 2.26 0 0 1 2.3-2.2h1.4c1.27 0 2.3.99 2.3 2.21V26Zm3.56 1c-.16 0-.3.13-.3.28v.04a.28.28 0 0 0-.2.27v.23h-.23v-.4H19.8v.4h-.18v-.4H18.6v1.16h1.02v-.4h.18v.4h1.03v-.4h.22v.12c0 .13.1.24.22.27v.8h.58v-.8a.28.28 0 0 0 .22-.27v-.12h.23v.4h1.02v-.4h.18v.4h1.03v-1.17H23.5v.4h-.18v-.4H22.3v.4h-.23v-.22a.28.28 0 0 0-.21-.27v-.04a.29.29 0 0 0-.3-.28Z" /><path fill-rule="evenodd" d="M32 26h-2v-1.55a.96.96 0 0 0-.97-.98c-.56 0-1.03.44-1.03.98v6.16c0 .54.47.98 1.03.98.55 0 .97-.44.97-.98V29h2v1.78A2.26 2.26 0 0 1 29.7 33h-1.4c-1.27 0-2.3-1-2.3-2.22V24.2a2.26 2.26 0 0 1 2.3-2.2h1.4c1.27 0 2.3.99 2.3 2.21V26Zm7 .07V24.2a2.26 2.26 0 0 0-2.3-2.2h-1.4c-1.27 0-2.3.99-2.3 2.21v6.57A2.26 2.26 0 0 0 35.3 33h1.4c1.27 0 2.3-1 2.3-2.22v-4.71Zm-2-.29v-1.33a.96.96 0 0 0-.97-.98c-.56 0-1.03.44-1.03.98v6.16c0 .54.47.98 1.03.98.55 0 .97-.44.97-.98v-4.83ZM40 33V22h3.23l1.3 7.43L45.78 22H49v11h-2v-9.21L45.47 33h-1.85L42 23.79V33h-2Z" /></svg>