<!-- by TradeStack --><svg width="56" height="56" viewBox="0 0 56 56" xmlns="http://www.w3.org/2000/svg"><path fill="url(#a)" d="M0 0h56v56H0z"/><path d="M18 23h-2l3.5 10-1.5 5h2l5-15h-2l-2.5 7-2.5-7ZM28 23h-2l3.5 10h2L35 23h-2l-2.5 7-2.5-7ZM38 20h2l-.77 2h-2l.77-2ZM36.85 23 33 33h2l3.85-10h-2ZM47 23h-7v2h4.5L40 31v2h7v-2h-4.5l4.5-6v-2ZM14.39 29.87A3.02 3.02 0 0 1 9 28a3 3 0 0 1 5.4-1.84L16 24.93A5.03 5.03 0 0 0 7 28a5.01 5.01 0 0 0 8.96 3.12l-1.57-1.25Z" fill="#fff"/><defs><linearGradient id="a" x1="10.42" y1="9.71" x2="68.15" y2="76.02" gradientUnits="userSpaceOnUse"><stop stop-color="#1A1E21"/><stop offset="1" stop-color="#06060A"/></linearGradient></defs></svg>