<!-- by TradeStack --><svg width="56" height="56" viewBox="0 0 56 56" xmlns="http://www.w3.org/2000/svg"><path fill="#00546D" d="M0 0h56v56H0z"/><path d="M13 21.6h.82c.27-1.63 1.63-4.6 4.86-4.6H23v1.05c.76-.26 2.38-.67 4-.66V17h5.45c1.87-.06 5.6.9 5.6 5.24 0 5.35-5.21 5.34-7.41 5.34h-.09c-1.72 0-3.14-.14-3.55-.21v-8.51c-.9.02-2.41.28-4 1.23v17.12l.01-.07A12.6 12.6 0 0 0 27 38.33v-8.89a6.7 6.7 0 0 1 2.33-.36h.25c1.9-.02 8.8-.1 8.8 6.29 0 5.02-4.7 6.11-7.04 6.03-1.36.02-4.23-.24-4.34-1.49-1.91.2-3.33-.05-4.05-.28-.19.91-.84 1.86-2.95 1.86V43h12.77c3.4-.09 10.23-1.81 10.23-8 0-4.21-3.8-6.18-5.7-6.64a6.69 6.69 0 0 0 4.4-6.5c0-5.13-3.54-6.86-6.56-6.86H14.12L13 21.6Zm22.32 12.6.4.44c-.74 1.72-3.75 5.15-9.8 5.15C18.35 39.79 15 33.43 15 29c0-4.4 3.62-11.31 11.78-11.31 1.1 0 3.7.29 5.3 1.36.14.08.51.25.9.25.48 0 1.3-.85 1.3-1.61h.49l.57 6.98h-.57a7.2 7.2 0 0 0-7.49-5.99c-6.61 0-8.28 5.55-8.28 10.75s2.48 9.14 9.25 9.14c3.46 0 6.15-2.92 7.07-4.38Z" fill="#fff"/></svg>