<!-- by TradeStack --><svg width="56" height="56" viewBox="0 0 56 56" xmlns="http://www.w3.org/2000/svg"><path fill="#F0F3FA" d="M0 0h56v56H0z"/><path d="M9.53 20h.32c-.2 1.16-.18 2.36-.15 2.82h-.24c0-.88-.36-2.16-2.03-2.24-1.67-.07-2.2 1.39-2.27 3.05-.07 1.67.93 3 2.35 2.93a2.94 2.94 0 0 0 2.2-1.24l.2.14A3.44 3.44 0 0 1 7.3 27c-.55-.01-3.23-.33-3.3-3.18-.08-2.79 2.2-3.59 3.42-3.58.98.01 1.76.36 2.03.53l.07-.77Z" fill="#356A57"/><path d="M9.8 23.36v.35h.8v2.3c0 .4-.15.56-.23.6h-.58V27h2.58v-.4h-.47c-.25-.06-.3-.33-.3-.46V23l-1.8.36ZM15.19 23.36v.35h.8v2.3c0 .4-.15.56-.23.6h-.57V27h2.57v-.4h-.46c-.25-.06-.3-.33-.3-.46V23l-1.81.36Z" fill="#356A57"/><circle cx="10.99" cy="21.5" fill="#356A57" r=".61"/><circle cx="16.48" cy="21.5" fill="#356A57" r=".61"/><path d="M14 23.47v-2.03l-1 .62v1.41h-.78V24H13v1.77c.02.54.15 1.28.93 1.23.62-.04 1.13-.57 1.31-.83l-.18-.26c-.77.75-1 .22-1.06-.14V24h1.24v-.21l-.35-.32h-.9ZM44.54 32.6v-1.82l-1.02.59v1.22h-.68V33h.68v1.85c.02.5.25 1.2 1.02 1.15.62-.04 1.14-.53 1.32-.77l-.18-.26c-.77.7-1.08.21-1.14-.12V33h1.32v-.1l-.35-.3h-.97ZM17.51 22.72v2.1h.35c-.07-.85.4-1.11.65-1.14h1.06L17.5 27h2.96v.74h.35l.26-2.38h-.44v.52c-.08.52-.6.72-.86.75h-.84l2.14-3.33h-3.13v-.58h-.44ZM22.07 24.85h2.69c-.07-1.04-.87-1.85-1.84-1.85-1.01 0-1.84.9-1.84 2s.83 2 1.84 2c.9 0 1.64-.7 1.8-1.62h-.24c-.38.65-1 .81-1.21.8-.93-.02-1.19-.9-1.2-1.33Zm0-.32c.02-.37.24-1.1.92-1.12.68-.03.78.73.74 1.12h-1.66Z" fill="#356A57"/><path d="M24.5 26.64V27h2.35v-.36l-.58-.23v-2.2c.12-.16.47-.46.98-.46.52 0 .7.3.75.45v2.2l-.58.24V27h2.17v-.36l-.6-.23V24c0-.34-.23-1.01-.97-1.01s-1.47.44-1.75.65V23c-.42.26-1.36.36-1.78.38v.37h.82v2.66l-.82.23ZM42.61 29.68V30h2.3v-.32l-.56-.2v-1.9c.11-.13.46-.4.96-.4.5 0 .65.27.69.4v1.9l-.53.2V30h2.18v-.32l-.65-.2v-2.07a.9.9 0 0 0-.95-.87c-.72 0-1.43.38-1.7.57v-.57a5.3 5.3 0 0 1-1.74.33v.32h.8v2.3l-.8.2ZM39.81 32.85v-.32h-2.29v.32l.48.2v1.9c-.11.14-.38.4-.88.4s-.7-.26-.74-.4v-1.9l.58-.2v-.32h-2.12v.32l.61.2v2.08c0 .29.2.87.93.87.72 0 1.43-.38 1.7-.57V36a5.27 5.27 0 0 1 1.73-.33v-.32H39v-2.3l.81-.2ZM32.52 24.33l.1-1.71h-.26c0 .88-.09.46-1.06.4-.97-.06-1.39.6-1.39.96-.02.48.14 1.44 1 1.44.87 0 1.23.3 1.31.45.05.16-.02.5-.74.5s-1.4-.63-1.65-.95v1.87h.15l.23-.59c1.8.67 2.51-.3 2.48-1.1-.02-.8-.75-1.27-1.47-1.27-.71 0-.96-.22-.94-.35.01-.14-.02-.47.63-.48.52-.01 1.29.55 1.6.83ZM42.5 33.6l.1-1.37h-.26c0 .7-.08.37-1.05.32-.98-.05-1.4.49-1.4.77-.02.39.14 1.17 1 1.17.87 0 1.24.24 1.31.36.06.13-.02.4-.74.4s-1.4-.51-1.65-.76v1.5h.15l.23-.48c1.8.54 2.51-.24 2.49-.89-.03-.64-.76-1.01-1.48-1.01-.71 0-.95-.18-.94-.29.01-.1-.01-.37.63-.38.52-.01 1.3.44 1.61.67Z" fill="#356A57"/><path fill-rule="evenodd" d="M36.91 23.7h-3.94v.45h.84v5.45h-.84v.4h3.2c.98-.04 2.42-.34 2.44-1.7.02-1.1-1.12-1.4-1.7-1.41.53-.07 1.58-.5 1.58-1.67s-1.05-1.5-1.58-1.52Zm.52 1.8c.04-1.57-1.69-1.5-2.56-1.27v2.52h1.16c1.1-.1 1.4-.87 1.4-1.25Zm-2.56 1.8c.91-.21 2.72-.28 2.68 1.18 0 .35-.3 1.08-1.46 1.17h-1.22V27.3ZM39.21 27.44l-.21-.28c.2-.2.83-.63 1.79-.68.95-.05 1.21.72 1.21 1.1v1.7l.54-.35h.34c-.14.32-.63.98-1.46 1.06a.63.63 0 0 1-.44-.58c-.2.16-.72.5-1.19.58-.58.09-1-.53-1.02-1.06 0-.52.56-1.27 2.23-.98v-.36c-.08-.32-.57-.79-1.79-.15Zm1.23.81c.2.05.6.22.59.55-.03.4-.5.56-.75.59-.25.02-.54-.26-.49-.6.05-.33.2-.54.65-.54Z" fill="#356A57"/><path d="M47.2 23.34v.29l.8-.1v6.14h-.4V30h2.09v-.43h-.7v-6.65l-1.78.42Z" fill="#356A57"/><path d="M49.28 26.97v.39c.8-.6 1.38-.25 1.45.1.05.3-.32.69-.52.85l-.4-.36c-.16.22-.6.33-.8.36.44.45 1.44 1.4 1.82 1.58.38.2.65.08.75 0l.42-.43c-.03-.07-.13-.18-.3-.06a.47.47 0 0 1-.42.06l-.93-.99c2.29-.87 1.45-1.93.48-1.96-.78-.02-1.36.3-1.55.46ZM32.4 31.32v-2.1c-.25 0-.38.35-.4.52h-5.24l.26.64a9.9 9.9 0 0 1 1.98-.23v5.4h-1V36h3v-.46h-1v-5.4c1.79.02 2.15.43 2.12.64v.54h.29Z" fill="#356A57"/><path d="M31.33 35.62V36h2.47v-.47H33v-1.5l.64-.81c.17.33.98.64.95-.26-.03-.72-.64-.46-.95-.25l-.64.72v-1.02l-1.76.3v.36H32v2.55h-.67ZM23.31 27.13c.84.01 1.54.79 1.79 1.17.33.4-.02.36-.23.29-.3-.46-.85-.72-1.1-.79-.5-.02-1.58.18-1.72 1.2-.17 1.26 1 1.63 1.44 1.84.35.17.34.28.29.3a5.57 5.57 0 0 0-1.28-.3A2.44 2.44 0 0 0 20 33.2c-.09 1.25.95 2.6 2.75 2.46 1.8-.13 2.5-1.4 2.48-2.13a1.59 1.59 0 0 0-.36-1.06c-1.51.3-1.94 1.38-1.97 1.88-.12.11-.37.2-.4-.3-.04-.64.25-1.62 2.11-2.41 1.5-.63 2.05-1.07 2.14-1.21-.32 0-.96-.1-1-.6-.02-.5.37-.64.57-.65.23-.04.72.1.86.98s-1.14 1.75-1.79 2.08c.23.69.25 1.27.23 1.48-.33 1.9-2.3 2.27-2.87 2.29-.56.02-4.12 0-4.1-2.97.02-2.37 2.16-2.9 3.23-2.88-.26-.14-.77-.64-.72-1.56.06-1.15 1.1-1.48 2.15-1.46Z" fill="#356A57"/><path d="M22.95 27.13c.83.01 1.54.79 1.78 1.17.33.4-.02.36-.23.29-.3-.46-.85-.72-1.09-.79-.52-.02-1.59.18-1.73 1.2-.17 1.26 1 1.63 1.44 1.84.36.17.34.28.3.3a5.57 5.57 0 0 0-1.29-.3 2.44 2.44 0 0 0-2.5 2.35c-.08 1.25.95 2.6 2.75 2.46 1.8-.13 2.5-1.4 2.49-2.13a1.59 1.59 0 0 0-.37-1.06c-1.5.3-1.94 1.38-1.96 1.88-.13.11-.38.2-.41-.3-.04-.64.25-1.62 2.12-2.41 1.49-.63 2.04-1.07 2.13-1.21-.31 0-.96-.1-.99-.6-.03-.5.36-.64.57-.65.22-.04.71.1.85.98s-1.13 1.75-1.79 2.08c.24.69.26 1.27.24 1.48-.33 1.9-2.31 2.27-2.88 2.29-.56.02-4.11 0-4.1-2.97.02-2.37 2.16-2.9 3.23-2.88-.26-.14-.77-.64-.72-1.56.06-1.15 1.1-1.48 2.16-1.46Z" fill="#BC9F5B"/></svg>