<?xml version='1.0' encoding='utf-8'?>
<!-- by TradeStack -->
<svg width="56" height="56" viewBox="0 0 56 56" xmlns="http://www.w3.org/2000/svg"><path fill="#F0F3FA" d="M0 0h56v56H0z" /><path d="m36.4 33 2.1-10h6.7l-.41 2h-4.33l-.39 2h4l-.48 2h-3.9l-.4 2h4.23l-.43 2h-6.68ZM8.19 33H4l1.23-6H7.7l-.7 4h1.57c.98 0 2.95-1.11 2.95-3.66-.02-.78-.46-2.34-2.05-2.34H5.64l.4-2h3.91c3.14 0 4 2.6 4.05 3.9 0 4.25-3.9 6.1-5.82 6.1Zm4.4 0h2.45l3.9-7.22L20.48 33h2.4l-2.23-10h-2.48l-5.58 10ZM25.7 23l-2.13 10h2.46l2.05-10h-2.38Zm9.1 10 .42-2h-2.6c-.72-.05-2.17-.59-2.17-2.3 0-2.16 1.59-3.7 3.43-3.7h2.6l.43-2h-2.85a6.01 6.01 0 0 0-5.97 6.16c0 2.86 2.52 3.75 3.78 3.84h2.93Zm10.02 0 2.1-10h2.36l-1.57 8H52l-.48 2h-6.69Z" fill="#009DE6" /><circle cx="20.25" cy="20.25" fill="#E60020" r="1.25" /><ellipse cx="23.74" cy="20.25" rx="1.24" ry="1.25" fill="#E60020" /><circle cx="27.25" cy="20.25" fill="#E60020" r="1.25" /></svg>