<?xml version='1.0' encoding='utf-8'?>
<!-- by TradeStack -->
<svg width="56" height="56" viewBox="0 0 56 56" xmlns="http://www.w3.org/2000/svg"><path fill="#F0F3FA" d="M0 0h56v56H0z" /><path d="m30.85 12.92 2.54 1.53a19.42 19.42 0 0 1 3.85 4.14l-2-.15c-.35-.03-.7-.02-1.07 0l-1.08.1c-1.27-1.36-3.12-2.63-4.94-2.8-3.95-.35-5.71 2.67-6.75 5.85a45.16 45.16 0 0 0-1.97 11.54c-.03.57-.1.57-.22.02a41.15 41.15 0 0 1-.89-11.23c.2-3.39 1.27-7.87 4.76-9.36 1.66-.7 3.9-.67 5.58-.3.55.13 1.28.35 2.2.66Z" fill="#A6D04B" /><path d="m33.39 14.45-2.54-1.53c3.8-1.41 7.38-.05 9.5 3.26 1.43 2.23 1.9 4.7 1.43 7.39 0 .02-.01.03-.03.02-.03 0-.05-.02-.05-.05.1-2.02-.25-3.9-1.02-5.62a5.6 5.6 0 0 0-4.76-3.54c-.83-.09-1.69 0-2.53.07Z" fill="#D3E490" /><path d="M37.24 18.59c.26.19.56.4.91.63a6.71 6.71 0 0 1 2.88 4.33.1.1 0 0 1-.14.05 46.82 46.82 0 0 0-9.82-4.11c-.33-.1-.33-.2 0-.31l2.02-.65 1.08-.08c.36-.03.72-.04 1.07-.01l2 .15Z" fill="#D3E490" /><path d="m37.16 40.23-2.76.5c-1.47.06-2.8.12-4.17-.38a.11.11 0 0 1-.07-.09.11.11 0 0 1 .04-.1c1.45-1.04 2.8-2.01 4.07-2.9.32-.24.74-.42 1.25-.56 3.18-.87 6.35-3.7 5.06-7.26-1.08-3-4.65-5.3-7.57-6.88a64.87 64.87 0 0 0-6.8-3.16c-.06-.02-.08-.06-.08-.1 0-.03.02-.04.05-.04h.03l1.59.27a41.6 41.6 0 0 1 9.6 2.78c4.67 2.03 8.66 5.37 7.35 10.92-.7 2.96-2.84 5.1-5.61 6.27-.7.3-1.35.54-1.98.73Z" fill="#2397D3" /><path d="m13.9 32.64.1 2.85c-2.28-1.23-3.58-3.02-3.9-5.35-.75-5.49 2.71-9.3 7.87-10.63.04-.01.07 0 .08.04l.02.05c0 .02 0 .03-.02.03a14 14 0 0 0-4.11 2.13c-2.22 1.82-2.83 4.17-2.12 6.85.24.92.64 1.82 1.2 2.72.26.41.55.85.89 1.31Z" fill="#F6B1D0" /><path d="m14 35.49-.1-2.84c.29-3.41 1.42-7.08 3.74-9.65.13-.15.2-.12.2.07l.08 4.27c0 .48-.06.96-.2 1.44-.9 3.33-.96 8.58 3.3 9.64 2.6.66 5.61.05 8.2-.81a44.5 44.5 0 0 0 7.83-3.5c.42-.23.45-.2.1.13a44.13 44.13 0 0 1-7.55 5.46 20.76 20.76 0 0 1-6.19 2.39c-.83.17-1.9.22-2.74.12a7.04 7.04 0 0 1-6.17-4.8 16.1 16.1 0 0 1-.5-1.92Z" fill="#8E5290" /><path d="M34.47 28.48c-.48.18-1.07.31-1.77.4-2.25.29-4.43.15-6.53-.4a8.23 8.23 0 0 1-2.17-.8V24.4c.02-.67.4-1.04 1.09-1.13 1.2-.15 2.68.69 3.68 1.25 1.76.99 3.39 2 4.9 3.01.32.22.59.53.8.94Z" fill="#8E5290" /><path d="M24 27.67c.42.27 1.16.54 2.2.81 2.1.55 4.27.69 6.52.4.7-.09 1.3-.22 1.78-.4.15.4.05.76-.31 1.1-.45.43-1.05.88-1.8 1.34-1.2.73-2.35 1.42-3.48 2.07-1 .57-3.78 2.13-4.69.82a1.7 1.7 0 0 1-.22-.93v-5.2Z" fill="#A378A6" /><path d="M37.16 40.23a6.23 6.23 0 0 1-1.2 2 7.34 7.34 0 0 1-5.43 2.75 10.13 10.13 0 0 1-7.54-2.52v-.07l.02-.06a.05.05 0 0 1 .03-.03h.05c.94.64 1.78 1.1 2.51 1.41 2.82 1.16 5.28.68 7.39-1.47.45-.46.92-.96 1.4-1.51l2.77-.5Z" fill="#F6B1D0" /></svg>