<!-- by TradeStack --><svg width="56" height="56" viewBox="0 0 56 56" xmlns="http://www.w3.org/2000/svg"><path fill="#F0F3FA" d="M0 0h56v56H0z"/><path d="M14 18H8v20h6V18ZM28 18H15.06v6H22v8h-6.94v6H28V18Z" fill="#AAAFB5"/><path d="M14 35.5 8 38h6v-2.5Z" fill="#192026"/><path d="M22 38h-7v-3l7-3v6Z" fill="#3E4C57"/><path d="m28 36-6-4v6h2l4-2Z" fill="#192026"/><path d="M28 38h-4l4-2v2Z" fill="#3E4C57"/><path d="M48 18H29v20h19V25h-9v5h3v2h-6.94v-8H48v-6Z" fill="#F2E694"/><path d="M31.5 38 29 36.5V38h2.5Z" fill="#36473D"/><path d="m40 32-7.5 6H43l-3-6Z" fill="#E99A01"/><path d="M42 32h-2l3 6-1-6Z" fill="#36473D"/><path d="m42 32 1 6 5-10-6 4Z" fill="#E99A01"/><path d="M48 38V28l-5 10h5Z" fill="#36473D"/></svg>