<?xml version='1.0' encoding='utf-8'?>
<!-- by TradeStack -->
<svg width="56" height="56" viewBox="0 0 56 56" xmlns="http://www.w3.org/2000/svg"><path fill="#F0F3FA" d="M0 0h56v56H0z" /><path d="M33.6 13.77c-.55-.11-1.07.37-1.35.8-.3.48-.67.9-1.2 1.07-.21.06-.25.01-.11-.15.34-.41.73-.76 1.16-1.05.37-.25.55-.6.96-.8a6.98 6.98 0 0 1 1.78-.62c.42-.07.47.04.17.33-.4.38-.87.52-1.4.42ZM35.73 13.05l1.3-.03a.1.1 0 0 1 .08.06.09.09 0 0 1-.02.1l-.65.67a.1.1 0 0 1-.07.03l-1.28-.08a.1.1 0 0 1-.06-.16l.64-.57a.1.1 0 0 1 .06-.02Z" fill="#6BA3CF" /><path d="m37.7 13.15 1.22.22a.17.17 0 0 1 .12.1.17.17 0 0 1-.01.16l-.43.62a.17.17 0 0 1-.18.07l-1.34-.29a.17.17 0 0 1-.12-.11.17.17 0 0 1 .04-.17l.55-.55a.17.17 0 0 1 .15-.05ZM39.74 13.6l1.17.38a.24.24 0 0 1 .16.22c0 .04 0 .07-.02.1l-.21.52a.24.24 0 0 1-.3.13l-1.3-.39a.24.24 0 0 1-.15-.14.24.24 0 0 1 .03-.22l.35-.5a.24.24 0 0 1 .27-.1Z" fill="#2576B7" /><path d="m34.06 14.19-.75.95a.1.1 0 0 1-.06.03l-1.08.11a.1.1 0 0 1-.1-.05.1.1 0 0 1 .01-.11l.84-.9a.1.1 0 0 1 .06-.03l.98-.16a.1.1 0 0 1 .1.05.1.1 0 0 1 0 .1Z" fill="#A8CAE5" /><path d="m33.84 15 .72-.91a.14.14 0 0 1 .12-.05l1.3.1a.14.14 0 0 1 .1.08.13.13 0 0 1 0 .14l-.64.9a.14.14 0 0 1-.12.06l-1.38-.1a.14.14 0 0 1-.12-.09.13.13 0 0 1 .02-.14Z" fill="#6BA3CF" /><path d="m36.75 14.28 1.41.32a.16.16 0 0 1 .12.16c0 .02 0 .05-.02.07l-.46.86a.16.16 0 0 1-.17.08l-1.54-.32a.16.16 0 0 1-.12-.1.16.16 0 0 1 .02-.14l.6-.86a.16.16 0 0 1 .16-.07ZM42.66 15.84l-1.3-.58a.2.2 0 0 1-.1-.25l.2-.56a.2.2 0 0 1 .19-.13.2.2 0 0 1 .08.02l1.16.52a.2.2 0 0 1 .11.2l-.06.62a.2.2 0 0 1-.28.16Z" fill="#83C053" /><path d="m39.03 14.8 1.38.45a.24.24 0 0 1 .17.22c0 .04 0 .07-.02.1l-.31.8a.24.24 0 0 1-.3.14l-1.48-.5a.24.24 0 0 1-.15-.13.24.24 0 0 1 0-.2l.42-.76a.24.24 0 0 1 .3-.12Z" fill="#2576B7" /><path d="m44.66 16.95-1.28-.76a.14.14 0 0 1-.07-.14l.1-.8a.14.14 0 0 1 .07-.1.14.14 0 0 1 .14 0l1.11.69a.14.14 0 0 1 .07.1l.08.88a.14.14 0 0 1-.07.13.14.14 0 0 1-.15 0Z" fill="#0762A9" /><path d="m33.02 15.7-.64 1.25a.12.12 0 0 1-.1.07l-1.1.1a.12.12 0 0 1-.12-.04.12.12 0 0 1 0-.13l.64-1.22a.12.12 0 0 1 .09-.06l1.1-.14a.12.12 0 0 1 .12.05.12.12 0 0 1 0 .13Z" fill="#A8CAE5" /><path d="m32.92 16.8.57-1.12a.18.18 0 0 1 .17-.1l1.33.08a.18.18 0 0 1 .16.17l-.01.08-.52 1.13a.18.18 0 0 1-.18.1l-1.37-.07a.18.18 0 0 1-.15-.1.18.18 0 0 1 0-.16Z" fill="#83C053" /><path d="m42.24 17.47-1.39-.6a.27.27 0 0 1-.14-.35l.3-.8a.27.27 0 0 1 .26-.17c.03 0 .07.01.1.03l1.29.6a.27.27 0 0 1 .15.3l-.2.8a.27.27 0 0 1-.14.18.27.27 0 0 1-.23 0Z" fill="#0762A9" /><path d="m36.79 17.6-1.48-.3a.23.23 0 0 1-.19-.23l.03-.1.5-1.07a.23.23 0 0 1 .25-.12l1.45.31a.23.23 0 0 1 .18.22c0 .03 0 .06-.02.1l-.47 1.06a.23.23 0 0 1-.25.13Z" fill="#6BA3CF" /><path d="m31.26 15.95-.7 1.29-.03.03-.7.26a.08.08 0 0 1-.1-.02.08.08 0 0 1 0-.09l.75-1.2c0-.02.01-.03.03-.03l.64-.34a.08.08 0 0 1 .1.01.07.07 0 0 1 0 .09Z" fill="#A8CAE5" /><path d="m46.26 18.12-.99-.81a.1.1 0 0 1-.04-.08l-.1-.93a.1.1 0 0 1 .07-.1.11.11 0 0 1 .12 0l.83.7a.1.1 0 0 1 .03.06l.26 1.05a.1.1 0 0 1-.05.11.11.11 0 0 1-.13 0Z" fill="#0762A9" /><path d="m39.73 16.83-1.4-.48a.32.32 0 0 0-.4.2l-.33.95c-.06.17.03.34.2.4l1.39.48c.16.06.34-.03.4-.19l.33-.96a.31.31 0 0 0-.19-.4Z" fill="#2576B7" /><path d="m44.45 18.68-1.36-.83a.18.18 0 0 1-.09-.18l.21-.97a.17.17 0 0 1 .1-.12.18.18 0 0 1 .17 0l1.3.77a.18.18 0 0 1 .08.18l-.14 1.02a.18.18 0 0 1-.19.16.18.18 0 0 1-.08-.03Z" fill="#0762A9" /><path d="m41.61 19.37-1.4-.64a.28.28 0 0 1-.15-.35l.39-1a.28.28 0 0 1 .26-.17c.04 0 .08 0 .11.02l1.35.62a.28.28 0 0 1 .15.34l-.33 1.01a.28.28 0 0 1-.38.17Z" fill="#83C053" /><path d="M46.8 18.44c.29.56.63.97.75.9.13-.06 0-.57-.3-1.13-.29-.57-.63-.97-.75-.9-.13.06 0 .57.3 1.13Z" fill="#0762A9" /><path d="m30.4 19.05.4-1.37a.15.15 0 0 1 .12-.1l1.07-.13a.15.15 0 0 1 .13.06.15.15 0 0 1 .03.14l-.4 1.37a.15.15 0 0 1-.14.1l-1.05.12a.15.15 0 0 1-.17-.2ZM32.23 18.83l.38-1.18a.26.26 0 0 1 .26-.19l1.2.07a.27.27 0 0 1 .26.22l-.01.12-.38 1.17a.26.26 0 0 1-.26.19l-1.2-.06a.27.27 0 0 1-.25-.22v-.12Z" fill="#A8CAE5" /><path d="m35.14 17.7 1.4.28a.28.28 0 0 1 .21.36l-.42 1.17a.27.27 0 0 1-.32.18l-1.37-.3a.28.28 0 0 1-.22-.24c0-.04 0-.08.02-.11l.39-1.16a.27.27 0 0 1 .31-.18Z" fill="#6BA3CF" /><path d="M29.05 19.63c-.01.02-.35.07-.39.05.2-.5.99-1.86 1.62-1.9.12 0 .15.05.11.15a5 5 0 0 0-.28 1.04c-.05.37-.52.5-1.06.66ZM45.4 17.77l1.04.88a.1.1 0 0 1 .03.08l-.05 1.16a.1.1 0 0 1-.07.09.11.11 0 0 1-.11-.02l-1.1-.9a.1.1 0 0 1-.04-.1l.12-1.12a.1.1 0 0 1 .06-.1.1.1 0 0 1 .11.03Z" fill="#83C053" /><path d="m43.85 20.6-1.33-.8a.24.24 0 0 1-.1-.29l.36-1.1a.24.24 0 0 1 .15-.14.25.25 0 0 1 .21.02l1.3.79a.24.24 0 0 1 .1.27l-.33 1.1a.24.24 0 0 1-.25.18.25.25 0 0 1-.1-.03Z" fill="#0762A9" /><path d="m39.01 18.78-1.37-.47a.31.31 0 0 0-.4.2l-.38 1.08c-.06.17.03.34.2.4l1.37.47c.16.06.34-.03.4-.2l.38-1.08a.31.31 0 0 0-.2-.4Z" fill="#83C053" /><path d="M47.62 19.98c.37.73.47 1.48.3 2.25-.06.25-.02.33.01.57.05.33-.15.96-.2 1.3-.04.32-.15.35-.31.07a1.1 1.1 0 0 1-.13-.82c.12-.4.26-.79.42-1.18a.75.75 0 0 0 .02-.49c-.07-.24-.13-.48-.35-.63-.26-.18-.47-.4-.63-.67a.4.4 0 0 1-.06-.22l.07-.96c.01-.21.1-.24.24-.08.26.27.47.55.62.86Z" fill="#0762A9" /><path d="m41.55 19.78-1.44-.63a.28.28 0 0 0-.37.14l-.5 1.14c-.07.14 0 .3.14.37l1.44.63c.14.06.3 0 .37-.15l.5-1.14c.07-.14 0-.3-.14-.36Z" fill="#2576B7" /><path d="m45.7 21.91-1.08-.86a.19.19 0 0 1-.06-.2l.36-1.22a.19.19 0 0 1 .22-.13c.03 0 .06.02.09.04l1.02.86a.19.19 0 0 1 .06.2l-.3 1.2a.19.19 0 0 1-.22.15.2.2 0 0 1-.09-.04Z" fill="#0762A9" /><path d="m30.18 21.17.1-1.24a.23.23 0 0 1 .2-.22l.89-.14a.24.24 0 0 1 .2.06.24.24 0 0 1 .07.2l-.13 1.3a.23.23 0 0 1-.22.2l-.85.1a.24.24 0 0 1-.25-.16.23.23 0 0 1-.01-.1Z" fill="#A8CAE5" /><path d="m31.91 21.02.17-1.16a.3.3 0 0 1 .33-.26l1.06.09a.31.31 0 0 1 .27.23.3.3 0 0 1 0 .13l-.22 1.15a.3.3 0 0 1-.32.24l-1-.08a.31.31 0 0 1-.28-.22.3.3 0 0 1 0-.12Z" fill="#83C053" /><path d="m35.8 20.1-1.21-.28a.31.31 0 0 0-.38.23l-.26 1.15a.3.3 0 0 0 .23.37l1.22.28c.17.04.33-.07.37-.23l.26-1.15a.3.3 0 0 0-.23-.37Z" fill="#6BA3CF" /><path d="m29.91 19.98-.04 1.47a.12.12 0 0 1-.06.1l-.54.26a.12.12 0 0 1-.17-.1l.04-1.41a.12.12 0 0 1 .06-.1l.54-.33a.12.12 0 0 1 .17.1Z" fill="#A8CAE5" /><path d="m42.98 22.63-1.26-.75a.29.29 0 0 1-.12-.36l.49-1.13a.29.29 0 0 1 .18-.16.3.3 0 0 1 .23.03l1.25.73a.29.29 0 0 1 .12.36l-.47 1.14a.29.29 0 0 1-.18.17.3.3 0 0 1-.24-.03Z" fill="#0762A9" /><path d="m38.24 20.85-1.28-.45a.31.31 0 0 0-.4.2l-.4 1.1a.3.3 0 0 0 .2.4l1.28.45c.17.05.34-.03.4-.2l.4-1.1a.3.3 0 0 0-.2-.4Z" fill="#6BA3CF" /><path d="M28.52 22.36v-1.32l.24-.44a.08.08 0 0 1 .1-.04l.04.03.01.05-.04 1.43-.02.04-.18.29a.08.08 0 0 1-.09.03.08.08 0 0 1-.06-.07Z" fill="#A8CAE5" /><path d="m47.46 21.86-.27 1.23a.15.15 0 0 1-.1.11.15.15 0 0 1-.16-.04l-.66-.73a.15.15 0 0 1-.04-.14l.35-1.26a.15.15 0 0 1 .12-.11.15.15 0 0 1 .15.06l.58.76a.15.15 0 0 1 .03.12Z" fill="#83C053" /><path d="m39.33 21.23 1.3.57a.31.31 0 0 1 .2.3.3.3 0 0 1-.04.12l-.52 1.09a.31.31 0 0 1-.41.15l-1.22-.54a.31.31 0 0 1-.16-.4l.43-1.12a.3.3 0 0 1 .17-.17.31.31 0 0 1 .25 0Z" fill="#2576B7" /><path d="m44.65 21.55.99.8a.25.25 0 0 1 .07.3l-.53 1.18a.25.25 0 0 1-.17.14.26.26 0 0 1-.22-.05l-1.01-.79a.25.25 0 0 1-.07-.3l.54-1.18a.25.25 0 0 1 .3-.15l.1.05Z" fill="#0762A9" /><path d="m30.43 23.39-.2-1.2a.26.26 0 0 1 .13-.27.26.26 0 0 1 .1-.04l.75-.1a.26.26 0 0 1 .3.25l.06 1.24a.26.26 0 0 1-.24.27l-.62.06a.26.26 0 0 1-.29-.21ZM33.13 21.84l-.9-.05a.3.3 0 0 0-.31.28l-.07 1.15c0 .17.12.3.28.31l.9.05a.3.3 0 0 0 .32-.27l.06-1.16a.3.3 0 0 0-.28-.31Z" fill="#A8CAE5" /><path d="m29.94 22.24.19 1.35a.22.22 0 0 1-.12.23l-.23.11a.22.22 0 0 1-.26-.05.22.22 0 0 1-.05-.09l-.32-1.21a.22.22 0 0 1 .09-.23l.36-.26a.22.22 0 0 1 .34.15ZM34.18 22.04l1.13.25a.29.29 0 0 1 .22.34l-.25 1.14a.29.29 0 0 1-.35.22l-1-.25a.29.29 0 0 1-.2-.3l.1-1.16a.28.28 0 0 1 .23-.25h.12Z" fill="#83C053" /><path d="m41.66 22.32 1.14.65a.33.33 0 0 1 .15.2.33.33 0 0 1-.03.26l-.6 1a.33.33 0 0 1-.45.12l-1.07-.62a.33.33 0 0 1-.13-.44l.52-1.03a.33.33 0 0 1 .47-.14Z" fill="#0762A9" /><path d="m36.34 22.55 1.12.37a.33.33 0 0 1 .23.28c0 .05 0 .09-.02.13l-.34 1.02a.33.33 0 0 1-.41.2l-1-.31a.33.33 0 0 1-.22-.38l.22-1.07a.32.32 0 0 1 .29-.26c.04 0 .09 0 .13.02Z" fill="#6BA3CF" /><path d="m28.93 24.4-.29-1.26v-.07l.11-.28a.12.12 0 0 1 .2-.05c.02.01.03.04.04.06l.3 1.32v.1l-.13.2a.12.12 0 0 1-.13.06.12.12 0 0 1-.1-.09Z" fill="#A8CAE5" /><path d="M19.56 32H17.8l-.04.01a.07.07 0 0 0-.03.04l-.32.88-.02.03c-.02.01-.03.04-.05.04h-2.81a.07.07 0 0 1-.06-.03.07.07 0 0 1 0-.07l3.44-7.85.02-.04h.04L21 25c.02 0 .03 0 .05.02l.02.04 1.37 7.85a.07.07 0 0 1-.04.07l-.03.02H19.7c-.02 0-.04-.02-.05-.03a.07.07 0 0 1-.03-.05v-.84c0-.02 0-.04-.02-.05-.01-.01-.03-.03-.05-.03Zm-.24-1.84a.25.25 0 0 0 .1-.1.18.18 0 0 0 .02-.11c-.1-.72-.13-1.47-.08-2.25 0-.05 0-.09-.04-.1a.07.07 0 0 0-.09 0l-.01.03-.8 2.36c-.04.12 0 .17.12.17h.78ZM42.4 30.86l-.99 1.89a.44.44 0 0 1-.15.17.44.44 0 0 1-.22.08h-2.9a.1.1 0 0 1-.05-.02.12.12 0 0 1-.03-.17l2.96-3.99a.17.17 0 0 0 .01-.2l-1.93-3.43c-.07-.13-.04-.2.1-.19h2.75c.05 0 .1.03.15.06.04.03.08.08.1.13l.47 1.38c.07.2.15.2.23 0l.55-1.26c.1-.23.27-.33.52-.3l2.85-.01.04.02a.07.07 0 0 1 .03.07l-.01.04-2.76 3.64a.15.15 0 0 0 0 .17l2.12 3.85c.07.13.03.21-.11.21h-2.65a.21.21 0 0 1-.11-.04.21.21 0 0 1-.08-.1l-.81-2-.02-.02a.05.05 0 0 0-.07.02ZM11.2 30.79l-.23 2.05c0 .04-.02.08-.05.1-.03.03-.07.06-.1.06h-2.5c-.1 0-.14-.05-.13-.15l.5-4.12c.01-.1.07-.15.17-.15h3.1a.5.5 0 0 0 .3-.11c.37-.27.54-.54.5-.8-.05-.38-.24-.67-.6-.67H8.94c-.04 0-.06-.02-.06-.06l.22-1.86c0-.04.02-.08.06-.08 0 0 2.8-.08 3.86 0 2.17.17 3.12 2.82 1.78 4.54-.85 1.1-2.1 1.05-3.35 1.01-.16 0-.25.07-.27.24ZM28.75 29.36c.15.43.2.42.17-.04-.1-1.17-.04-2.57.16-4.19.01-.09.06-.13.15-.13h2.54l.04.01a.08.08 0 0 1 .04.05.1.1 0 0 1 0 .04l-.89 7.75c0 .04-.02.07-.05.1-.03.03-.06.05-.1.05h-2.38a.28.28 0 0 1-.15-.05.28.28 0 0 1-.1-.11c-.49-.98-.97-2.02-1.44-3.1a6.95 6.95 0 0 1-.32-.97c-.08-.3-.14-.3-.2.01-.06.47.05.94 0 1.42l-.24 2.64c0 .04-.02.08-.05.1-.03.03-.07.06-.1.06h-2.5a.08.08 0 0 1-.07-.03l-.02-.03v-.04l.88-7.74c0-.04.03-.08.06-.11a.17.17 0 0 1 .12-.05h2.47c.04 0 .07.01.1.03a.2.2 0 0 1 .08.08 39.8 39.8 0 0 1 1.8 4.25ZM35.92 28h1.76c.08 0 .14.06.13.14l-.19 1.7c0 .06-.07.16-.13.16h-1.83a.13.13 0 0 0-.1.03.14.14 0 0 0-.04.09l-.09.72a.15.15 0 0 0 .04.11.14.14 0 0 0 .1.05h2.09a.14.14 0 0 1 .07.1v.05l-.2 1.72c0 .03-.01.06-.04.08-.02.03-.05.05-.09.05h-4.8a.13.13 0 0 1-.1-.05.14.14 0 0 1-.04-.1l.92-7.72c0-.04.02-.07.05-.1a.13.13 0 0 1 .09-.03h4.7a.13.13 0 0 1 .1.05.14.14 0 0 1 .03.1l-.2 1.73c0 .03-.02.06-.04.08a.13.13 0 0 1-.09.04h-2a.13.13 0 0 0-.1.04.14.14 0 0 0-.04.09l-.1.7a.15.15 0 0 0 .04.12l.05.03.05.02Z" fill="#0762A9" /><path d="M15.67 35.77c.3.17.66.21.92.45.55.52.15 1.52-.5 1.7-.5.12-1.06.1-1.71-.06-.25-.06-.31-.2-.2-.42l.23-.43c.1-.18.21-.2.36-.07.22.19.46.26.73.2.08 0 .12-.05.14-.12 0-.05 0-.1-.02-.14a.22.22 0 0 0-.19-.14c-2.12-.24-.75-3.05 1.42-1.9.1.05.12.13.07.22l-.29.57c-.04.1-.11.11-.2.06-.15-.1-.32-.17-.5-.24a.24.24 0 0 0-.2.01.44.44 0 0 0-.08.06c-.1.1-.1.18.02.25ZM20.9 36.54a1.54 1.54 0 0 1-1.04 1.37c-.2.07-.4.1-.6.09l-.49-.03a1.57 1.57 0 0 1-1.38-1.03c-.07-.2-.1-.4-.09-.6l.02-.29a1.54 1.54 0 0 1 1.04-1.37c.2-.07.4-.1.6-.09l.49.03a1.57 1.57 0 0 1 1.39 1.04c.06.19.1.4.08.6l-.02.28Zm-1.95.5a.6.6 0 0 0 .25 0 .64.64 0 0 0 .24-.11.77.77 0 0 0 .21-.98.64.64 0 0 0-.17-.2.6.6 0 0 0-.48-.1.64.64 0 0 0-.24.1.77.77 0 0 0-.21.98.6.6 0 0 0 .4.3ZM31.2 34.78l-.06.97a.07.07 0 0 1-.03.05h-.06c-1.94-.73-1.56 1.91-.19 1.02.12-.08.16-.05.14.09l-.13.91c-.02.1-.07.15-.17.15-.6 0-1.32.17-1.73-.38-.6-.78-.62-1.54-.09-2.28.5-.69 1.24-.9 2.25-.62a.09.09 0 0 1 .06.09ZM35.56 35.78c.77.34 1.58.54 1.01 1.58-.45.83-1.1.6-1.87.61-.1 0-.2-.02-.29-.06l-.31-.14c-.1-.05-.12-.11-.08-.2l.33-.68c.04-.08.1-.1.17-.03.22.2.49.31.8.3a.2.2 0 0 0 .19-.11.2.2 0 0 0-.06-.24.2.2 0 0 0-.08-.03c-.64-.13-1.26-.45-1.06-1.24.29-1.11 1.54-1.13 2.42-.71.1.04.12.11.08.2l-.3.61c-.05.1-.12.12-.22.05-.32-.25-.57-.3-.77-.13a.13.13 0 0 0 .04.22ZM45.7 35.93c-.17.18-.22.39-.14.6.2.53.6.62 1.2.27l.03-.01a.05.05 0 0 1 .04.03v.02l-.15 1.08c0 .05-.03.08-.09.08h-1.31a.22.22 0 0 1-.14-.06c-1.75-1.49-.3-4.08 1.88-3.2.03.02.04.04.04.07l-.1 1.02c0 .03-.03.04-.05.02-.5-.26-.9-.24-1.2.08Z" fill="#83C053" /><path d="m13.02 35.87.74.02a.08.08 0 0 1 .08.1l-.1.64a.08.08 0 0 1-.07.07l-.79.03a.08.08 0 0 0-.07.09l.02.24a.08.08 0 0 0 .08.07l.8-.03a.08.08 0 0 1 .08.09l-.08.73c0 .02 0 .04-.02.05l-.06.03h-2.06a.08.08 0 0 1-.08-.09l.37-3.19a.08.08 0 0 1 .08-.07h2.03a.08.08 0 0 1 .08.09l-.08.7a.08.08 0 0 1-.09.07l-.81-.02a.08.08 0 0 0-.08.06l-.05.22a.08.08 0 0 0 .04.09h.04ZM22.85 37.1c.15.07.28-.17.41-.7.06-.25.1-.5.14-.76l.1-.81a.22.22 0 0 1 .22-.2l.85.01c.12 0 .17.06.16.18a41.2 41.2 0 0 1-.27 2.02c-.09.56-.5 1.2-1.15 1.16h-.93c-.62 0-1.02-.67-.97-1.18l.17-1.87c.03-.2.14-.3.34-.3l.65-.03c.2 0 .3.09.27.29l-.22 1.77c-.02.2.05.33.23.42ZM32.85 37.13h.67a.15.15 0 0 1 .11.04.15.15 0 0 1 .04.12l-.07.5c-.02.14-.1.21-.25.21h-1.77c-.13 0-.18-.07-.17-.2l.33-2.9a.31.31 0 0 1 .31-.27l1.73.04a.16.16 0 0 1 .15.18l-.09.51c-.02.11-.08.17-.2.16-.15 0-.3-.02-.47-.06-.19-.03-.3.03-.34.2a.18.18 0 0 0 .17.22h.57c.1 0 .14.05.13.14l-.06.53a.18.18 0 0 1-.13.15c-.17.04-.34.04-.5 0-.13-.03-.22.01-.28.12a.34.34 0 0 0-.04.1c-.03.14.02.2.16.2ZM38.38 37.82l.38-3.05a.14.14 0 0 1 .14-.13h.91a.14.14 0 0 1 .14.17l-.38 3.07a.14.14 0 0 1-.14.12h-.91l-.06-.03a.14.14 0 0 1-.08-.15ZM42.85 34.63l1.08.02a.07.07 0 0 1 .07.05v.03l-.38 3.19c0 .01 0 .03-.02.04l-.04.04h-1.1l-.03-.01a.07.07 0 0 1-.03-.03l-.75-1.67a.07.07 0 0 0-.08-.04.07.07 0 0 0-.05.07l-.03 1.6c0 .01 0 .03-.02.04-.01.02-.03.04-.05.04h-1.1c-.02 0-.03-.01-.03-.02a.07.07 0 0 1-.05-.07l.4-3.2c0-.02 0-.03.02-.04a.07.07 0 0 1 .04-.02l1.12-.01a.07.07 0 0 1 .06.04l.74 1.73a.07.07 0 0 0 .13-.02l.03-1.69a.07.07 0 0 1 .07-.07ZM9.24 37.83l.05-.8c.02-.2.06-.2.12-.02l.28.8c.04.12.13.19.26.19h.9c.15 0 .19-.07.1-.2l-.55-.92a.15.15 0 0 1 .08-.22c.85-.32.91-1.3.22-1.78-.41-.28-1.17-.26-1.77-.25h-.38c-.1 0-.15.06-.16.15L8 37.84c-.01.1.03.16.14.16h.9c.12 0 .19-.06.2-.17Zm.71-2.2c.1.1.05.3-.1.42-.16.13-.36.14-.45.02-.1-.11-.04-.3.1-.43.16-.12.36-.13.45-.02ZM26.25 37.78c-.03-.28-.01-.55.05-.81.03-.14.07-.14.11 0l.3.84c.04.13.13.2.27.19h.85c.16 0 .2-.12.11-.25l-.52-.88c-.05-.08-.04-.14.05-.19l.4-.22c.08-.04.14-.1.17-.19.22-.64.1-1.11-.36-1.41-.36-.24-.9-.23-1.4-.22h-.6a.25.25 0 0 0-.28.21l-.35 2.9c-.02.16.05.25.2.25h.8c.03 0 .05 0 .06-.02h.02a.2.2 0 0 0 .12-.2Zm.23-1.63c-.13-.08-.14-.29-.03-.46.11-.16.31-.23.44-.14.13.08.14.29.03.46-.11.17-.3.23-.44.14Z" fill="#83C053" /></svg>