<?xml version='1.0' encoding='utf-8'?>
<!-- by TradeStack -->
<svg width="56" height="56" viewBox="0 0 56 56" xmlns="http://www.w3.org/2000/svg"><path fill="#F0F3FA" d="M0 0h56v56H0z" /><path d="M28 41.5V47c6.34-4.61 14-13.92 14-22.27 0-6.68-2.05-10.8-5.08-9.48 2.2-.4 3.43 3.25 2.14 8.4 0 7.77-7.37 15.1-11.06 17.85Z" fill="url(#axhl445zc)" /><path d="M38.58 27.2a5.01 5.01 0 0 0 3.38-4.08c-.04-.78-.12-1.52-.22-2.21a5.02 5.02 0 0 0-2.27-2.75c.23 1.44.13 3.34-.4 5.5 0 1.19-.18 2.38-.5 3.54Z" fill="#028BC5" /><path d="M28 41.5V47c-6.34-4.7-14-14.17-14-22.67 0-6.8 1.47-10.4 4.5-9.05-2.2-.41-3.06 4.15-1.56 7.96 0 7.9 7.37 15.46 11.06 18.26Z" fill="#00B6D7" /><path d="M16.24 18.34c-.15 1.47.05 3.26.7 4.9 0 1.35.21 2.7.59 4a5 5 0 0 1-3.5-4.3c0-.5.03-.99.07-1.45a4.99 4.99 0 0 1 2.14-3.15Z" fill="#028BC5" /><path d="M33.23 12.04a13.86 13.86 0 0 0-10.56 0A7.98 7.98 0 0 0 14 20c0 4.4 3.56 7.99 7.96 7.99A7.92 7.92 0 0 0 28 25.2a7.92 7.92 0 0 0 6.04 2.8c4.4 0 7.96-3.58 7.96-8a7.98 7.98 0 0 0-8.77-7.96Z" fill="#00B6D7" /><circle cx="22" cy="20" r="5" fill="#fff" /><path fill-rule="evenodd" d="M22 23a3 3 0 1 0 0-6 3 3 0 0 0 0 6Zm0-3a1 1 0 1 0 0-2 1 1 0 0 0 0 2Z" /><circle cx="34" cy="20" r="5" fill="#fff" /><path fill-rule="evenodd" d="M34 22.92c1.66 0 3-1.33 3-2.96A2.98 2.98 0 0 0 34 17c-1.66 0-3 1.32-3 2.96a2.98 2.98 0 0 0 3 2.96ZM34 20a1 1 0 1 0 0-2 1 1 0 0 0 0 2Z" /><path d="M25 25.62c0 1.3 2 3.46 3 4.38 1-.92 3-3.09 3-4.38S29 24 28 24s-3 .33-3 1.62Z" fill="#F1C530" /><path d="M26 27a10.6 10.6 0 0 0 2 2 10.6 10.6 0 0 0 2-2c-.73.52-1.64.88-2 .99a8.04 8.04 0 0 1-2-.99Z" /><defs><linearGradient id="axhl445zc" x1="42.58" y1="26.99" x2="28" y2="26.99" gradientUnits="userSpaceOnUse"><stop offset=".37" stop-color="#04AFDB" /><stop offset=".93" stop-color="#0292AD" /></linearGradient></defs></svg>