<!-- by TradeStack --><svg width="56" height="56" viewBox="0 0 56 56" xmlns="http://www.w3.org/2000/svg"><path fill="#F0F3FA" d="M0 0h56v56H0z"/><path d="M49 36a21 21 0 0 0-42 0h42Z" fill="url(#armeqpnde)"/><path fill-rule="evenodd" d="M26.1 10h3.38l1.79 26-3.43-2.28L24.42 36l.87-13.24L26.1 10Zm-.5 13.13-.23 3.54 2.2-1.9-1.96-1.64ZM27.86 25l-2.2 1.88 4.35-.07-2.15-1.8Zm2.12 2.16-4.3.07 2.13 1.7 2.17-1.77Zm-2.45 2-2.2-1.75-.24 3.75 2.44-2Zm-2.48 2.7-.23 3.46 2.72-1.81-2.5-1.66Zm3.11 1.65 2.72 1.81-.23-3.47-2.49 1.66Zm2.44-2.35-2.51-2 2.24-1.84.27 3.84Zm-.3.2-2.49-1.98-2.43 1.99h4.92Zm-.08.36-2.37 1.58-2.38-1.58h4.75Zm.06-5.14-2.16-1.8 1.93-1.65.23 3.45Zm-.29-4.23-.23-3.4-1.68 1.6 1.91 1.8Zm-2.17-2.04 1.65-1.56h-3.3l1.65 1.56Zm-1.73-1.9h3.45l-1.73-2.18-1.72 2.17Zm1.95-2.46 1.65 2.09-.26-3.84-1.4 1.75Zm1.33-2.69-.19-2.67-1.14 1.24 1.33 1.43Zm-1.56-1.69 1.12-1.22h-2.25l1.13 1.22Zm-1.38-.98 1.14 1.24-1.32 1.43.18-2.67Zm-.24 3.6 1.4 1.77-1.65 2.08.25-3.84Zm.22-.27 1.4 1.76 1.4-1.76h-2.8Zm.03-.35 1.37-1.49 1.36 1.49h-2.73Zm-.56 5.38 1.7 1.6-1.91 1.8.21-3.4Zm.07 4 1.9 1.6 1.87-1.6h-3.77Zm-.05-.35 1.92-1.82 1.94 1.82h-3.86Z" fill-opacity=".7"/><path d="M13.9 33.84h-2.73v-7.68h2.78c.8 0 1.48.16 2.06.47.57.3 1.02.74 1.32 1.31.31.57.47 1.26.47 2.05 0 .8-.16 1.49-.47 2.06-.3.58-.75 1.02-1.34 1.32-.58.31-1.28.47-2.1.47Zm-1.27-1.2h1.2c.55 0 1.02-.1 1.4-.3.37-.2.65-.49.84-.88.19-.4.28-.88.28-1.47 0-.58-.1-1.07-.28-1.46a1.87 1.87 0 0 0-.84-.87c-.36-.2-.82-.3-1.36-.3h-1.24v5.27Z" fill="url(#brmeqpnde)"/><path d="M19.96 33.84v-7.68h3.08c.58 0 1.06.1 1.44.27.4.17.68.4.87.7.2.3.3.64.3 1.02a1.54 1.54 0 0 1-.7 1.34 2.2 2.2 0 0 1-.71.3v.07c.28.02.56.1.82.25a1.78 1.78 0 0 1 .9 1.64c0 .4-.1.75-.3 1.07-.2.31-.51.56-.92.74-.4.18-.91.28-1.53.28h-3.25Zm1.45-1.17h1.57c.53 0 .91-.1 1.14-.28.24-.2.36-.45.36-.75 0-.23-.06-.44-.18-.62a1.2 1.2 0 0 0-.5-.43c-.22-.1-.48-.16-.78-.16h-1.6v2.24Zm0-3.24h1.44c.26 0 .48-.05.68-.13.2-.1.36-.22.48-.38a.98.98 0 0 0 .18-.59c0-.3-.11-.54-.33-.73-.22-.2-.54-.29-.97-.29H21.4v2.12Z" fill="url(#crmeqpnde)"/><path d="M28 33.84v-7.68H31c1.53 0 2.84.86 2.84 2.46 0 1.56-1.3 2.4-2.86 2.4h-2.14v-1.15h1.95c.83 0 1.56-.34 1.56-1.25 0-.89-.7-1.3-1.57-1.3h-1.34v6.52H28Zm4.15-3.48 2 3.48h-1.63l-1.96-3.48h1.6Z" fill="url(#drmeqpnde)"/><path d="M35.96 26.16h1.79l2.38 5.56h.1l2.39-5.56h1.78v7.68H43v-5.27h-.07L40.7 33.8h-1.04l-2.22-5.26h-.08v5.29h-1.4v-7.68Z" fill="url(#ermeqpnde)"/><path fill-rule="evenodd" d="M11 34v-8h2.95c.82 0 1.54.16 2.14.48.6.32 1.07.78 1.4 1.38.32.6.48 1.32.48 2.13 0 .82-.16 1.54-.49 2.14-.32.6-.8 1.07-1.4 1.39-.62.32-1.34.48-2.18.48H11Zm5-.63c.58-.3 1.02-.74 1.33-1.32.31-.57.47-1.26.47-2.06s-.16-1.48-.46-2.05A3.15 3.15 0 0 0 16 26.63a4.3 4.3 0 0 0-2.06-.47h-2.78v7.68h2.73c.81 0 1.51-.16 2.1-.47Zm-.08-4.77a1.7 1.7 0 0 0-.77-.8 2.71 2.71 0 0 0-1.28-.27H12.8v4.94h1.03c.54 0 .97-.1 1.32-.27.34-.18.6-.45.77-.8.17-.37.26-.84.26-1.4 0-.58-.09-1.04-.26-1.4Zm-3.3 4.03v-5.26h1.25c.54 0 1 .1 1.37.29.36.2.64.48.83.87.19.39.28.88.28 1.46 0 .59-.09 1.08-.28 1.47a1.9 1.9 0 0 1-.84.88c-.38.2-.84.3-1.4.3h-1.2ZM19.8 34v-8h3.25c.6 0 1.1.09 1.52.28a2 2 0 0 1 1.26 1.88c0 .33-.07.62-.21.87a1.7 1.7 0 0 1-.57.6l-.3.16a2.09 2.09 0 0 1 1.11.88c.19.3.28.66.28 1.08 0 .42-.11.8-.33 1.15a2.2 2.2 0 0 1-.98.81c-.44.2-.98.29-1.6.29h-3.43Zm5.27-3.89a1.85 1.85 0 0 0-.8-.25h-.02v-.07a2.36 2.36 0 0 0 .7-.3c.22-.14.39-.32.52-.53.12-.23.18-.5.18-.8 0-.39-.1-.73-.29-1.03-.19-.3-.48-.53-.86-.7a3.5 3.5 0 0 0-1.45-.27h-3.08v7.68h3.25c.62 0 1.13-.1 1.53-.28.41-.18.71-.43.92-.74.2-.32.3-.68.3-1.07a1.78 1.78 0 0 0-.9-1.63Zm-.9 1c-.1-.16-.25-.28-.44-.37-.19-.1-.42-.15-.7-.15h-1.43v1.92h1.4c.5 0 .84-.1 1.02-.25.2-.16.3-.37.3-.62 0-.2-.05-.38-.15-.53Zm-.04 1.28c-.23.19-.61.28-1.14.28h-1.57v-2.24h1.61c.3 0 .56.05.78.16.22.1.38.25.5.43s.18.39.18.62c0 .3-.12.55-.36.75Zm-.25-3.57c.1-.13.15-.3.15-.49 0-.25-.1-.45-.28-.6-.17-.16-.45-.25-.85-.25h-1.3v1.78h1.27c.23 0 .43-.04.6-.11.18-.08.31-.19.4-.33Zm-.34.48c-.2.08-.42.13-.67.13H21.4V27.3h1.48c.43 0 .75.1.97.29.22.2.33.44.33.73 0 .23-.06.42-.18.59-.12.16-.27.29-.48.38Zm4.3 4.7v-8H31c.8 0 1.55.22 2.1.67.56.44.91 1.1.91 1.95a2.35 2.35 0 0 1-1.4 2.22L34.43 34h-2.01l-1.58-2.8h-1.21V34h-1.8Zm1.63-2.97h1.48l1.58 2.8h1.62l-1.75-3.06.15-.07a2.22 2.22 0 0 0 1.31-2.08c0-1.6-1.31-2.46-2.84-2.46H28v7.68h1.46v-2.81Zm1.34-1.16c.83 0 1.57-.34 1.57-1.25 0-.89-.7-1.3-1.58-1.3h-1.33v2.55h1.34Zm-1.17-.16h1.17c.4 0 .75-.09 1-.26.23-.16.4-.43.4-.83a1 1 0 0 0-.4-.85c-.25-.18-.6-.28-1-.28h-1.17v2.22ZM35.79 26h2.07l2.32 5.4L42.5 26h2.07v8h-1.74v-4.77l-2.01 4.75h-1.27l-2.02-4.76V34H35.8v-8Zm1.57 2.55h.08l2.22 5.26h1.04l2.23-5.24H43v5.27h1.4v-7.68h-1.78l-2.39 5.56h-.1l-2.38-5.56h-1.78v7.68h1.4v-5.29Z"/><defs><linearGradient id="armeqpnde" x1="28" y1="15" x2="28" y2="36" gradientUnits="userSpaceOnUse"><stop stop-color="#FFF799"/><stop offset="1" stop-color="#EA6C3B"/></linearGradient><linearGradient id="brmeqpnde" x1="27.78" y1="26.16" x2="27.78" y2="33.84" gradientUnits="userSpaceOnUse"><stop stop-color="#E45D3F"/><stop offset="1" stop-color="#FFF6A4"/></linearGradient><linearGradient id="crmeqpnde" x1="27.78" y1="26.16" x2="27.78" y2="33.84" gradientUnits="userSpaceOnUse"><stop stop-color="#E45D3F"/><stop offset="1" stop-color="#FFF6A4"/></linearGradient><linearGradient id="drmeqpnde" x1="27.78" y1="26.16" x2="27.78" y2="33.84" gradientUnits="userSpaceOnUse"><stop stop-color="#E45D3F"/><stop offset="1" stop-color="#FFF6A4"/></linearGradient><linearGradient id="ermeqpnde" x1="27.78" y1="26.16" x2="27.78" y2="33.84" gradientUnits="userSpaceOnUse"><stop stop-color="#E45D3F"/><stop offset="1" stop-color="#FFF6A4"/></linearGradient></defs></svg>