<!-- by TradeStack --><svg width="56" height="56" viewBox="0 0 56 56" xmlns="http://www.w3.org/2000/svg"><path fill="#F0F3FA" d="M0 0h56v56H0z"/><path fill-rule="evenodd" d="M43.7 34.5a17 17 0 1 0-31.4-13 17 17 0 0 0 31.4 13ZM27.86 13a16.37 16.37 0 0 1 2.81.22.05.05 0 0 1 .02.05l-.01.02a4.02 4.02 0 0 1-2.8 1.46 4.02 4.02 0 0 1-2.84-1.42.05.05 0 0 1 .02-.05l.02-.01c.92-.17 1.84-.26 2.78-.27Zm-9.5 4.6c-.11.02-.13.07-.07.15l.8 1.04c.1.14.08.17-.08.11l-2.13-.85a.06.06 0 0 1-.04-.04.06.06 0 0 1 .02-.06 15.33 15.33 0 0 1 5.99-4.05.21.21 0 0 1 .25.08c.49.74 1.08 1.33 1.78 1.78a5.1 5.1 0 0 0 5.6.2 6.31 6.31 0 0 0 2.23-2.14c.03-.05.07-.06.12-.04a15.2 15.2 0 0 1 6.5 4.37.08.08 0 0 1 0 .07l-.03.02c-1.15.56-2.26 1-3.34 1.35a.49.49 0 0 1-.4-.02 21.5 21.5 0 0 0-10.75-2.72c-2.19.03-4.34.27-6.46.74Zm17.74 4.17-.48.6c-.13.19-.43.47-.9.87-.2.16-.52.42-.99.76a21.29 21.29 0 0 1-4.98 2.76.24.24 0 0 0-.11.09.1.1 0 0 0 .03.14.1.1 0 0 0 .05.01h14.12a.17.17 0 0 0 .12-.05.16.16 0 0 0 .04-.12 14.32 14.32 0 0 0-2.35-6.78.12.12 0 0 0-.15-.04c-1.4.7-2.81 1.25-4.26 1.67a.27.27 0 0 0-.14.09Zm-15.64 4.3c.05.04.25.14.61.31a.1.1 0 0 1 .06.06.1.1 0 0 1 0 .08c-.15.3-.33.47-.72.47a560.22 560.22 0 0 1-7.34-.01.1.1 0 0 1-.05-.09c.17-2.37.99-4.62 2.43-6.75.1-.15.23-.18.38-.1 1.26.68 2.59 1.19 4 1.53.05.02.09.05.11.1.14.31.19.6.16.85l-.3 1.86c-.1.6.12 1.17.66 1.68Zm6.93-2.76c-1.34.31-2.24.6-2.7.88-.53.33-1.1.6-1.67.83a1.9 1.9 0 0 1-.88.13c-.53-.05-.77-.36-.71-.92.04-.33.08-.66.15-1a3.21 3.21 0 0 0-.06-1.49.11.11 0 0 1 .13-.09c1.87.3 3.74.3 5.6 0 .3-.04.41-.22.36-.53-.01-.08-.06-.12-.14-.13a24.03 24.03 0 0 1-2.97-.34 12.15 12.15 0 0 1-3.6-1.52c-.2-.12-.2-.2.05-.23 2.43-.3 4.9-.28 7.39.09a17.24 17.24 0 0 1 5.72 1.95.12.12 0 0 1 .02.11c0 .02-.02.04-.03.05-1 1.14-2.2 2.05-3.57 2.72l-2.5 1.2c-.79.4-1.4.9-1.82 1.53-.2.3-.3.7-.32 1.22-.02.98.29 1.86 1.2 2.35.9.47 1.95.74 2.94 1l.55.14c.71.19 1.24.37 1.6.55a9.53 9.53 0 0 1 4.26 4.71.13.13 0 0 1-.08.12c-.97.4-1.9.43-3.03.4a10.97 10.97 0 0 1-5.98-1.96c-.39-.26-.9-.74-1.04-1.2-.21-.74.02-1.31.7-1.7.1-.07.17-.13.19-.2a.16.16 0 0 0-.11-.2h-.08c-.81.17-1.33.59-1.56 1.25-.39 1.12.14 2.4.97 3.26a9.3 9.3 0 0 0 2.73 1.64c.22.1.2.16-.02.2-1.13.2-2.2.1-3.21-.32-1.76-.72-2.63-2.71-2.53-4.58a.26.26 0 0 0-.1-.22 4.53 4.53 0 0 1-1.31-1.56c-.8-1.55-.17-3.4.98-4.6a17.6 17.6 0 0 1 4.3-2.96l.08-.04c.19-.1.28-.27.23-.46-.02-.07-.06-.1-.13-.08Zm3.06-.96a.87.87 0 1 0 0-1.74.87.87 0 0 0 0 1.74ZM19.92 29.2a5.33 5.33 0 0 0 1.33 4.5c.12.12.16.3.12.5-.01.05-.05.09-.11.1-2.04.27-3.92.94-5.65 2a.14.14 0 0 1-.2-.04 15.19 15.19 0 0 1-2.4-7.24.06.06 0 0 1 .05-.02h6.77c.07 0 .1.13.1.2Zm9.68-.2c-.18 0-.18.03-.02.08.5.16 1.02.29 1.53.36.28.05.76.23 1.43.55a13.5 13.5 0 0 1 5.53 5.05c.04.05.1.1.17.13.79.37 1.51.74 2.17 1.12a.14.14 0 0 0 .19-.05c1.4-2.13 2.19-4.5 2.4-7.1 0-.1-.03-.14-.12-.14H29.6Zm-7.62 7.35a6.15 6.15 0 0 0 3.65 3.4.08.08 0 0 1-.03.13 6.2 6.2 0 0 0-2.61 2.2.12.12 0 0 1-.14.04 15.35 15.35 0 0 1-6.13-4.23.05.05 0 0 1 .02-.03 13 13 0 0 1 5.06-1.62.18.18 0 0 1 .18.1Zm8.17 3.58a5.76 5.76 0 0 1 2.33 1.88c.1.14.2.26.3.35.04.04.09.05.14.03a14.96 14.96 0 0 0 6.3-4.25.11.11 0 0 0-.04-.1.11.11 0 0 0-.05-.03c-.2-.04-.45-.02-.64.06-2.11.93-4.28 1.3-6.5 1.1-.07 0-.14 0-.22.02a.7.7 0 0 0-.2.06 8.16 8.16 0 0 1-1.45.78.07.07 0 0 0 .03.1Zm-2.27 1.48a3.73 3.73 0 0 1 2.85 1.3.07.07 0 0 1-.02.06l-.03.01a16.44 16.44 0 0 1-5.65-.07l-.02-.02a.07.07 0 0 1 .02-.07 3.73 3.73 0 0 1 2.85-1.2Z" fill="#00A556"/></svg>