<!-- by TradeStack --><svg width="56" height="56" viewBox="0 0 56 56" xmlns="http://www.w3.org/2000/svg"><path fill="#F0F3FA" d="M0 0h56v56H0z"/><path d="M46.58 22h.76l-1.42 6.98V29h-.74a.02.02 0 0 1-.02 0v-.02L46.58 22ZM51.24 22H52v.03l-1.41 6.95-.01.02h-.75a.01.01 0 0 1-.01-.01L51.24 22Z" fill="#C8252B"/><path d="M19.3 24.65h-.75c-.01 0-.02 0-.01-.01l.11-.58.01-.01h.76v-.02l.2-.91.01-.02.8-.35a.01.01 0 0 1 .02 0l-.26 1.28a.01.01 0 0 0 .02.01h.99v.01l-.11.6h-1.02l-.63 3.1c-.05.24-.02.47.23.55a1.4 1.4 0 0 0 .68 0v.01a.02.02 0 0 1 0 .02l-.1.58h-.02l-.55.08a1.6 1.6 0 0 1-.75-.08c-.34-.13-.4-.45-.33-.8a5007.21 5007.21 0 0 0 .7-3.46Z" fill="#808183"/><path d="M32.39 25.35c-.1.2-.16.42-.22.64-.1.44-.18.85-.22 1.24-.01.17-.02.35 0 .51.02.25.12.48.36.56.18.07.34.07.5.02.35-.1.59-.46.69-.83l.04-.17c0-.01 0-.02.02-.02h.77a.01.01 0 0 1 .01.01c-.07.35-.2.72-.42.99-.44.51-1 .75-1.67.7a1.7 1.7 0 0 1-.6-.16c-.56-.27-.58-1.05-.52-1.57a8.2 8.2 0 0 1 .44-1.89c.21-.6.63-1.1 1.22-1.28.29-.08.58-.11.9-.1.39.02.76.17.94.53.15.32.11.75.02 1.1l-.01.01h-.77v-.01c.04-.24.1-.59-.06-.8a.46.46 0 0 0-.4-.19c-.47-.01-.83.28-1.02.71Z" fill="#C8252B"/><path fill-rule="evenodd" d="M8.57 22h-.76a2199.45 2199.45 0 0 0-.53 2.55h-.03c-.21-.46-.59-.6-1.05-.57-.4.03-.76.15-1.05.43-.24.25-.43.54-.55.89-.2.58-.35 1.23-.44 1.95-.03.22-.04.44-.02.67 0 .17.05.35.11.51.09.21.22.36.42.45.29.13.63.15.93.08.3-.07.58-.26.79-.5l.1-.12v.01l-.1.54a.01.01 0 0 0 0 .01h.74l.02-.01L8.57 22Zm-2.31 6.1c.23-.26.37-.6.46-.96a13.46 13.46 0 0 0 .31-1.6c.02-.24-.01-.45-.1-.63-.11-.24-.37-.3-.62-.29a.91.91 0 0 0-.77.46c-.2.36-.32.78-.41 1.19l-.15.76c-.05.33-.09.66.04.97a.5.5 0 0 0 .32.3.9.9 0 0 0 .5.03.8.8 0 0 0 .42-.24ZM12.62 28.98c.46-.07.78-.35 1.04-.75.02-.02.02-.02.01.01l-.13.64c0 .02 0 .03.02.03h.8c.01 0 .02 0 .02-.02.02-.39.06-.75.13-1.08l.5-2.45c.1-.4.05-.94-.34-1.16-.1-.06-.2-.1-.28-.12-.4-.1-.8-.1-1.2-.02-.22.04-.42.12-.6.24-.38.25-.58.68-.7 1.13 0 .02 0 .02.02.02h.8l.02-.01c.06-.48.35-.8.83-.84.11 0 .23 0 .35.04.29.08.37.36.34.64a4.37 4.37 0 0 1-.13.64h-.23c-.29 0-.57.01-.86.05-.32.04-.6.14-.89.3-.38.23-.6.56-.73 1-.11.4-.16.84-.03 1.22.07.21.22.36.45.43.24.08.5.1.8.06Zm.79-.95c.17-.19.3-.42.4-.68a4.64 4.64 0 0 0 .19-.83c-.25 0-.5 0-.76.03-.4.03-.81.2-1 .58-.14.3-.21.68-.06.98.14.25.49.28.73.22.2-.06.37-.16.5-.3ZM26.05 28.23c.02-.03.03-.03.02.01l-.14.65c0 .01 0 .02.02.02h.8c.02 0 .02 0 .02-.02.02-.39.07-.76.14-1.12l.5-2.4c.07-.35.06-.8-.2-1.06a1.03 1.03 0 0 0-.55-.26 2.68 2.68 0 0 0-1.3.06c-.4.14-.7.4-.89.8a2.62 2.62 0 0 0-.18.54h.81l.02-.01c.04-.34.22-.63.51-.76.23-.1.5-.1.73-.02.2.08.29.3.29.5a3.14 3.14 0 0 1-.14.76 6 6 0 0 0-1.2.07c-.28.04-.54.14-.8.3-.55.33-.77.97-.81 1.6-.02.27.02.62.2.82.16.19.42.26.65.28a1.48 1.48 0 0 0 1.5-.76Zm-1.25-1.32c-.26.27-.39.79-.25 1.13.05.14.14.23.27.27.39.13.8-.04 1.05-.36.12-.15.2-.3.27-.44a3.93 3.93 0 0 0 .26-1c-.26 0-.51.01-.77.04-.29.02-.63.14-.83.36Z" fill="#808183"/><path fill-rule="evenodd" d="M39.5 28.97c.42-.08.75-.36.99-.74.01-.03.02-.03.01 0l-.13.66v.01H41.2c.02-.36.06-.72.14-1.08l.5-2.47c.05-.18.05-.36.02-.55-.05-.34-.22-.57-.51-.68a2.4 2.4 0 0 0-.96-.11c-.46.02-.91.16-1.22.5a2.17 2.17 0 0 0-.44.94H39.55v-.01a.9.9 0 0 1 .72-.82c.22-.05.58-.03.71.19.08.12.11.26.1.42a3.73 3.73 0 0 1-.13.7c-.43-.03-.83 0-1.22.06-.27.05-.54.15-.79.3-.39.24-.6.6-.72 1.04-.1.38-.14.8 0 1.17.08.26.3.4.54.45.25.06.5.06.74.02Zm1.32-2.45c-.27 0-.55 0-.82.03-.31.04-.67.19-.86.46-.17.27-.28.68-.17 1 .05.14.13.24.26.29.32.13.71.02.95-.22.4-.38.57-1 .66-1.55l-.02-.01Z" fill="#C8252B"/><path d="M14.5 33a1.2 1.2 0 0 0 1.21-1.19 1.2 1.2 0 0 0-1.22-1.18 1.2 1.2 0 0 0-1.21 1.18c0 .66.54 1.19 1.21 1.19Z" fill="#C8252B"/><path d="M18.59 33a1.2 1.2 0 0 0 1.21-1.19 1.2 1.2 0 0 0-1.21-1.18 1.2 1.2 0 0 0-1.22 1.18c0 .66.54 1.19 1.22 1.19Z" fill="#808183"/><path d="M10.9 32.84c.57 0 1.03-.45 1.03-1 0-.56-.46-1-1.03-1-.57 0-1.03.44-1.03 1 0 .55.46 1 1.03 1Z" fill="#DB7F68"/><path d="M22.55 32.84c.57 0 1.03-.45 1.03-1 0-.56-.46-1-1.03-1-.57 0-1.03.44-1.03 1 0 .55.46 1 1.03 1Z" fill="#A7A8AC"/><path d="M26.14 32.56c.47 0 .85-.37.85-.82a.83.83 0 0 0-.85-.82.83.83 0 0 0-.84.82c0 .45.38.82.84.82Z" fill="#C6C7C9"/><path d="M7.71 32.6c.47 0 .85-.37.85-.82a.83.83 0 0 0-.85-.82.83.83 0 0 0-.84.82c0 .45.38.82.84.82Z" fill="#E5A48E"/><path d="M29.36 32.4c.35 0 .65-.28.65-.63s-.3-.63-.65-.63a.64.64 0 0 0-.66.63c0 .35.3.63.66.63Z" fill="#C6C7C9"/><path d="M4 31.99v-.2a.9.9 0 0 1 .04-.13.66.66 0 0 1 .9-.34c.36.18.47.63.23.94A.66.66 0 0 1 4 32Z" fill="#F1CDC1"/><path fill="#808183" fill-opacity=".8" d="M32 31h19v1H32z"/></svg>