<?xml version='1.0' encoding='utf-8'?>
<!-- by TradeStack -->
<svg width="56" height="56" viewBox="0 0 56 56" xmlns="http://www.w3.org/2000/svg"><path fill="#F0F3FA" d="M0 0h56v56H0z" /><path d="M43 12H13c1 2.84 1.7 8.93 1.7 16S14 41.16 13 44h30c-1.01-2.84-1.7-8.92-1.7-16 0-7.07.7-13.16 1.7-16Z" fill="#322702" /><path d="M18 41.44h.64c.23 0 .36-.06.36-.25V37.8c0-.2-.13-.25-.36-.25H18V37h4c2.02 0 3.35.84 3.35 2.5 0 1.65-1.33 2.5-3.35 2.5h-4v-.56Zm2.48 0h1.23c1.16 0 2.07-.46 2.07-1.94 0-1.49-.9-1.94-1.97-1.94h-1.33v3.88ZM32 41.4l4.26-3.84h-1.5c-1.24 0-1.71.14-1.75 1.54h-.8V37H38v.6l-4.25 3.84h1.3c1.62 0 2.1-.16 2.17-1.68H38V42h-6v-.6Z" fill="#fff" /><path d="M28.45 40.5a.98.98 0 0 1-.93-.6.95.95 0 0 1 .22-1.06 1 1 0 0 1 1.09-.21 1 1 0 0 1 .45.36.96.96 0 0 1-.13 1.23c-.18.18-.44.28-.7.28" fill="#C1122E" /><path d="M28.45 38.71c.16 0 .32.05.46.14.14.1.25.22.3.37a.8.8 0 0 1-.17.88.84.84 0 0 1-.91.18.83.83 0 0 1-.38-.3.8.8 0 0 1 .38-1.2c.1-.05.2-.07.32-.07Zm0-.32c-.23 0-.46.07-.65.2a1.11 1.11 0 0 0-.18 1.75 1.17 1.17 0 0 0 1.27.24c.2-.09.4-.23.52-.42a1.12 1.12 0 0 0-.14-1.43 1.18 1.18 0 0 0-.82-.34Z" fill="#fff" /><path d="M28.2 31.84v-2.27h2.45c.65 0 .65-.15.65-.22a2 2 0 0 0-.1-.58l-.96-2.72a17.8 17.8 0 0 1-5.42-.1l-.96 2.82c-.06.16-.1.33-.1.5 0 .1 0 .3.67.3h2.35v2.27h-8.62v-2.27h.17c1.4 0 2.19-.2 2.59-1.3L22 25.22a13.5 13.5 0 0 1-2.88-1.45l-.17-.12 1.72-1.6.1.06c.63.38 1.3.7 2 .95l3.17-8.9h3.88l3.27 8.78c.72-.28 1.41-.63 2.06-1.05l.11-.08 1.58 1.68-.15.1c-.87.61-1.8 1.11-2.8 1.5l1.2 3.18c.42 1.1 1.17 1.3 2.59 1.3h.16v2.27H28.2Zm-2.63-8.1a15.45 15.45 0 0 0 3.87.07l-2-5.54-1.87 5.47Z" fill="#C1122E" /><path d="m29.71 14.32 3.3 8.83c.78-.3 1.53-.67 2.23-1.13l1.35 1.44c-.9.63-1.87 1.15-2.9 1.54l1.25 3.32c.47 1.24 1.36 1.42 2.74 1.42v1.93h-9.35v-1.93h2.32c.6 0 .81-.13.81-.4 0-.2-.03-.42-.1-.62l-1.02-2.85a17.49 17.49 0 0 1-5.63-.1l-1 2.95c-.07.17-.1.36-.11.55 0 .36.34.47.83.47h2.24v1.93h-8.35v-1.93c1.39 0 2.3-.19 2.75-1.42l1.14-3.2a13.32 13.32 0 0 1-3-1.49l1.48-1.38c.69.41 1.42.75 2.18 1.01l3.19-8.94h3.66m-1.94 9.75c.63 0 1.26-.04 1.88-.12l-2.2-6.1h-.05l-2.05 6.02c.8.13 1.6.2 2.42.2M29.94 14h-4.11l-3.15 8.85c-.64-.24-1.25-.53-1.83-.88l-.2-.12-1.66 1.54-.3.28.34.23c.87.57 1.8 1.05 2.77 1.4l-1.04 2.92c-.37 1.01-1.08 1.2-2.44 1.2H18V32h9V29.4h-2.57c-.33 0-.5-.05-.5-.14 0-.16.03-.3.08-.45l.92-2.68a17.5 17.5 0 0 0 5.2.09l.92 2.6c.06.17.09.34.09.52-.03.02-.15.06-.49.06H28V32h10v-2.59h-.32c-1.37 0-2.05-.17-2.44-1.2l-1.13-3.03c.94-.38 1.84-.87 2.67-1.46l.3-.21-.26-.27-1.34-1.44-.19-.2-.22.15c-.6.39-1.22.71-1.87.98L29.94 14Zm-4.15 9.61 1.66-4.85 1.77 4.91a14.95 14.95 0 0 1-3.43-.06ZM38 35H18v-1h20v1Z" fill="#fff" /></svg>