<!-- by TradeStack --><svg width="56" height="56" viewBox="0 0 56 56" xmlns="http://www.w3.org/2000/svg"><path fill="url(#arlsay2oo)" d="M0 0h56v56H0z"/><ellipse cx="47.37" cy="27.77" rx="4.09" ry="4.15" fill="#FFCE29"/><path fill-rule="evenodd" d="M4 22v12h5.4c3.09 0 5.6-2.69 5.6-6s-2.51-6-5.6-6H4Zm4 3.5v5h.44c1.76 0 2.56-1.07 2.56-2.47 0-1.4-.87-2.53-2.56-2.53H8Zm8 8.5h9v-3.5h-5v-1h4v-3h-4v-1h5V22h-9v12Zm14-12h-4v12h9v-3.5h-5V22Zm6 0h4v12h-4V22Zm10.86 12A5.84 5.84 0 0 0 52 30.87l-3.19-1.81c-.32.85-1 1.44-1.81 1.44-1.1 0-2-1.12-2-2.5s.9-2.5 2-2.5c.77 0 1.44.55 1.78 1.35l3.15-1.84c-1-1.8-2.9-3.01-5.07-3.01A5.93 5.93 0 0 0 41 28c0 3.31 2.62 6 5.86 6Z" fill="#fff"/><defs><linearGradient id="arlsay2oo" x1="10.42" y1="9.71" x2="68.15" y2="76.02" gradientUnits="userSpaceOnUse"><stop stop-color="#1A1E21"/><stop offset="1" stop-color="#06060A"/></linearGradient></defs></svg>