<!-- by TradeStack --><svg width="56" height="56" viewBox="0 0 56 56" xmlns="http://www.w3.org/2000/svg"><path fill="#F0F3FA" d="M0 0h56v56H0z"/><path d="M27 11.73c0-.4.45-.73 1-.73s1 .33 1 .73v4.54c0 .4-.45.73-1 .73s-1-.33-1-.73v-4.54ZM27 19.73c0-.4.45-.73 1-.73s1 .33 1 .73v4.54c0 .4-.45.73-1 .73s-1-.33-1-.73v-4.54ZM15.27 18.5a.93.93 0 0 1-.1-1.19c.25-.36.72-.41 1.03-.12l3.53 3.31c.31.3.36.83.1 1.19-.25.36-.72.41-1.03.12l-3.53-3.31ZM19.09 41.85c-.2.4-.04.87.38 1.07.41.2.92.03 1.13-.36l2.31-4.41c.2-.4.04-.87-.38-1.07a.87.87 0 0 0-1.13.36l-2.31 4.41ZM36.91 41.85c.2.4.04.87-.38 1.07a.87.87 0 0 1-1.13-.36l-2.31-4.41a.77.77 0 0 1 .38-1.07.87.87 0 0 1 1.13.36l2.31 4.41ZM12.93 32.97c-.4.12-.81-.16-.9-.63-.1-.46.14-.93.54-1.04l4.5-1.27c.4-.12.81.16.9.63.1.46-.14.93-.54 1.04l-4.5 1.27ZM43.07 32.97c.4.12.81-.16.9-.63.1-.46-.14-.93-.54-1.04l-4.5-1.27c-.4-.12-.81.16-.9.63-.1.46.14.93.54 1.04l4.5 1.27ZM21.27 23.5a.93.93 0 0 1-.1-1.19c.25-.36.72-.41 1.03-.12l3.53 3.31c.31.3.36.83.1 1.19-.25.36-.72.41-1.03.12l-3.53-3.31ZM23.09 34.85c-.2.4-.04.87.38 1.07.41.2.92.03 1.13-.36l2.31-4.41c.2-.4.04-.87-.38-1.07a.87.87 0 0 0-1.13.36l-2.31 4.41ZM19.93 30.97c-.4.12-.81-.16-.9-.63-.1-.46.14-.93.54-1.04l4.5-1.27c.4-.12.81.16.9.63.1.46-.14.93-.54 1.04l-4.5 1.27ZM32.91 34.85c.2.4.04.87-.38 1.07a.87.87 0 0 1-1.13-.36l-2.31-4.41a.77.77 0 0 1 .38-1.07.87.87 0 0 1 1.13.36l2.31 4.41ZM36.07 30.97c.4.12.81-.16.9-.63.1-.46-.14-.93-.54-1.04l-4.5-1.27c-.4-.12-.81.16-.9.63-.1.46.14.93.54 1.04l4.5 1.27ZM40.73 18.5c.31-.3.36-.83.1-1.19-.25-.36-.72-.41-1.03-.12l-3.53 3.31a.93.93 0 0 0-.1 1.19c.25.36.72.41 1.03.12l3.53-3.31ZM34.73 23.5c.31-.3.36-.83.1-1.19-.25-.36-.72-.41-1.03-.12l-3.53 3.31a.93.93 0 0 0-.1 1.19c.25.36.72.41 1.03.12l3.53-3.31ZM27 36.85c0-.47.45-.85 1-.85s1 .38 1 .85v5.3c0 .47-.45.85-1 .85s-1-.38-1-.85v-5.3ZM21.08 15.13c-.2-.4-.02-.87.41-1.05a.9.9 0 0 1 1.15.37l2.28 4.42c.2.4.02.87-.41 1.05a.9.9 0 0 1-1.15-.37l-2.28-4.42ZM14.58 25.75c-.4-.11-.65-.59-.56-1.06.1-.48.5-.78.9-.67l4.5 1.23c.4.11.65.59.56 1.06-.1.48-.5.78-.9.67l-4.5-1.23ZM17.26 36.54a.9.9 0 0 0-.08 1.17.7.7 0 0 0 1.05.1l3.5-3.35a.9.9 0 0 0 .1-1.17.7.7 0 0 0-1.06-.1l-3.5 3.35ZM38.74 36.54c.31.3.35.82.08 1.17a.7.7 0 0 1-1.05.1l-3.5-3.35a.9.9 0 0 1-.1-1.17.7.7 0 0 1 1.06-.1l3.5 3.35ZM41.42 25.75c.4-.11.65-.59.56-1.06-.1-.48-.5-.78-.9-.67l-4.5 1.23c-.4.11-.65.59-.56 1.06.1.48.5.78.9.67l4.5-1.23ZM34.92 15.13c.2-.4.02-.87-.41-1.05a.9.9 0 0 0-1.15.37l-2.28 4.42c-.2.4-.02.87.41 1.05a.9.9 0 0 0 1.15-.37l2.28-4.42Z" fill="#26B6E0"/></svg>