<!-- by TradeStack --><svg width="56" height="56" viewBox="0 0 56 56" xmlns="http://www.w3.org/2000/svg"><path fill="#F0F3FA" d="M0 0h56v56H0z"/><path d="M16.7 27.37c0-1.3 4.24-3.66 7.33-3.3 6.08-9.33 15.82-10.98 17.54-9.68 1.49 1.12-.69 12.27-9.4 17.7.34 2.59-1.15 6.01-1.83 6.72-.64.65-1.84 1.3-1.84-.83a3.13 3.13 0 0 0-2.06-3.06h-1.15l-1.26 2.12c.65 2.17-.72 5.54-1.49 6.96-1.37-1.04-2.48-3.03-2.86-3.9-1.1 1.61-4.2 2.01-5.62 2.01 0-2.07 1.3-4.24 1.95-5.07-1.2 0-3.17-.79-4.01-1.18 3.03-3.78 6.23-3.85 7.45-3.42l1.95-1.3v-1.18c0-.59-1.5-2-3.21-2-1.15 0-1.5-.12-1.5-.6Z"/><path d="M40.08 22.3c-4.68-1.05-6.23-4.77-6.42-6.5 2.02-.86 6.37-2.36 7.56-1.41 1.2.94-.26 5.66-1.14 7.9Z" fill="#E53935"/><path d="M39.96 22.65c-4.95-1.04-6.41-5-6.53-6.85-6.76 3.3-9.63 9.2-9.97 9.56-.34.35-3.32 6.25-.57 8.5 2.75 2.24 6.64-.48 10.77-3.2 3.3-2.16 5.58-6.24 6.3-8.01Z" fill="#BEBDBD"/><path d="M31.94 32.2c-1.28.85-3.9 2.17-5.04 2.6.61.31 1.83 1.32 1.83 2.83 0 1.18 0 1.65.46 1.65 1.72-.35 2.87-4.95 2.75-7.08ZM21.51 29.6c.46-2.54 1.8-4.6 2.41-5.3-3.78-.47-7.22 2.71-7 3.18.24.48 1.61.12 2.64.48a4.88 4.88 0 0 1 1.95 1.65Z" fill="#0388D1"/><path d="M25.07 34.92a3.71 3.71 0 0 1-3.67-3.54l-1.84 1.18c.28 3.58 2.95 4.4 4.24 4.36l1.27-2Z" fill="#526A75"/><path d="M12.34 35.74a7.79 7.79 0 0 1 7-3.18c0 3.58 2.97 4.56 4.46 4.6.46 2.55-.72 5.39-1.37 6.49-1.2-.95-2.25-3-2.64-3.9-1.37 1.7-4.24 2.13-5.5 2.13.37-2.74 1.53-4.45 2.06-4.96-.64 0-2.94-.79-4-1.18Z" fill="url(#a3cukrtsw)"/><path d="M13.6 35.39c2.57-2.08 4.9-2.44 5.73-2.36.28 2.92 2.8 3.97 4.01 4.13.28 1.7-.42 4-.8 4.95a8.5 8.5 0 0 1-2.06-3.3c-1.2.85-4.01 2-5.27 2.48.18-1.6 1.53-3.98 2.18-4.96a6.4 6.4 0 0 1-3.79-.94Z" fill="#3F5C02"/><path d="M15.2 35.27a10.4 10.4 0 0 1 4.02-1.77c0 .1.23.67.34.94a8.32 8.32 0 0 0-1.94 1.54c-1.01-.1-2.03-.51-2.41-.71ZM16.58 39.75c1.2-3.4 2.64-4.72 3.21-4.95.28.85 1.26 1.57 1.72 1.77-1.28 1.8-3.82 2.83-4.93 3.18ZM22.89 37.16l-1.03-.36-.8 1.42c.18.94.91 1.89 1.25 2.24.37-.94.54-2.6.58-3.3Z" fill="#87C608"/><path d="m29.54 30.38-4.4-4.17.68-.75c.23-.26.46-.41.69-.46a1 1 0 0 1 .72.12c.25.13.54.35.87.66l1.6 1.52c.32.3.57.6.72.85.16.26.22.5.19.74a1.4 1.4 0 0 1-.4.73l-.67.76Zm-.09-1.3.1-.1c.08-.1.13-.19.12-.27a.45.45 0 0 0-.12-.27l-.3-.33-1.92-1.81a2.53 2.53 0 0 0-.34-.28c-.09-.06-.17-.09-.25-.08-.07.01-.15.06-.24.16l-.09.1 3.04 2.89ZM31.46 28.24l-4.39-4.17 1.2-1.34.66.63-.61.68 1.09 1.03.46-.51.67.63-.46.52 1.31 1.25.62-.69.65.63-1.2 1.34ZM35.15 25.9c-.08.02-.2.02-.35.02a2.92 2.92 0 0 1-1-.18l-.01.04-.03.03a.98.98 0 0 1-.65.36 1.3 1.3 0 0 1-.75-.2 4.37 4.37 0 0 1-.85-.64l-1.63-1.55a4.4 4.4 0 0 1-.7-.82c-.16-.26-.24-.51-.24-.75s.1-.47.3-.69c.2-.22.42-.35.65-.37.23-.02.48.04.74.19.26.14.55.36.85.65l1.63 1.55c.2.2.38.38.52.57.15.18.26.36.33.53.07.18.1.35.09.5a3.4 3.4 0 0 0 .65.07l.45.69Zm-2.08-.74c.06-.07.08-.15.06-.23a.68.68 0 0 0-.14-.24 2.83 2.83 0 0 0-.23-.25l-2.12-2a2.7 2.7 0 0 0-.26-.23.65.65 0 0 0-.25-.12c-.08-.01-.15.01-.2.08-.07.07-.09.14-.07.22.03.08.08.16.15.25l.23.24 2.12 2c.08.09.16.16.25.23.09.06.17.1.25.12.08.02.15 0 .2-.07ZM34.86 24.45l-4.4-4.17.6-.66 4.38 4.17-.58.66Z" fill="#009135"/><defs><linearGradient id="a3cukrtsw" x1="14.98" y1="33.26" x2="24" y2="40.09" gradientUnits="userSpaceOnUse"><stop stop-color="#FFEA00"/><stop offset=".29" stop-color="#DBC10E"/><stop offset=".63" stop-color="#F0901D"/><stop offset=".83" stop-color="#D5BB10"/><stop offset="1" stop-color="#D7BF16"/></linearGradient></defs></svg>