<!-- by TradeStack --><svg width="56" height="56" viewBox="0 0 56 56" xmlns="http://www.w3.org/2000/svg"><path fill="#F0F3FA" d="M0 0h56v56H0z"/><ellipse cx="33.72" cy="24.05" rx="7.76" ry="7.89" fill="url(#a)"/><path fill-rule="evenodd" d="M40.35 19.8a7.29 7.29 0 0 0-.43-.6 3 3 0 0 1-.38-.36 2.37 2.37 0 0 0-.3-.3 8.62 8.62 0 0 0-.48-.34 3.12 3.12 0 0 1-.38-.31 15.37 15.37 0 0 0-1.3-.74 8.35 8.35 0 0 0-1.4-.48c-.2-.03-.36-.06-.47-.1a3.1 3.1 0 0 0-.59-.08c-.37-.02-.89-.01-1.56.01l-.56.08-.56.1c-.17.03-.33.07-.5.13l-.47.17a.32.32 0 0 0-.12.08c-.01 0-.02.02 0 .04l.03.05c.11.07.23.08.37.03l.2-.14c.09-.06.18-.1.27-.12.08-.01.17 0 .28.04.22.09.48.14.77.14.19.01.46 0 .81-.03.17-.02.37-.09.61-.21.1-.05.21-.06.32-.02.07.03.18.09.32.19h.01l.28.21a6.66 6.66 0 0 0 .83.53.6.6 0 0 1 .12.1c.08.1.1.19.05.3-.03.06-.12.09-.27.07l-.11-.02a1.43 1.43 0 0 0-.29-.04c-.11 0-.2.04-.27.1-.06.05-.07.12-.04.21.01.06.05.14.12.24l.23.24c.06.06.17.15.33.26l.22.17c.03.02.05.02.07-.01.09-.17.2-.25.3-.24.02 0 .04 0 .05.02.07.08.12.18.14.3 0 .06 0 .17-.02.32l-.02.08a.8.8 0 0 0 .03.3l.04.3c0 .04-.01.08-.05.12l-.17.17a.06.06 0 0 0 0 .07c0 .02.02.04.05.04l.36.02c.05 0 .07.03.08.07 0 .1 0 .18-.02.25-.04.09-.1.14-.17.15l-.23.05c-.06.01-.1.04-.12.07a.28.28 0 0 0-.05.17c0 .06.05.1.11.14.1.04.2.1.28.18l.1.15c.07.08.15.08.23.01a.53.53 0 0 0 .15-.22.65.65 0 0 0 0-.28 2.32 2.32 0 0 1-.01-.42.99.99 0 0 1 .11-.4c.04-.05.1-.1.2-.1a.5.5 0 0 0 .26-.11.06.06 0 0 1 .04-.02c.08.01.15.05.23.1l.19.2.04.05c.04.04.1.07.2.1.05 0 .08-.01.09-.06l.02-.07c.04-.2.1-.34.16-.4.1-.1.18-.2.27-.34.02-.03.05-.04.09-.02.22.13.46.25.72.37.06.02.13.07.23.14l.05.03a.6.6 0 0 1 .1.08c.17.19.32.31.44.38.07.04.13.03.17-.01.03-.03.04-.08.03-.15v-.27a5.37 5.37 0 0 0-.46-.9Zm-1.86.3a.43.43 0 0 0 .11-.14l.12-.2c.03-.05.03-.1-.01-.16a.66.66 0 0 0-.14-.13c-.2-.15-.38-.16-.54-.03a.27.27 0 0 0-.1.17c0 .07 0 .12.05.17l.34.31c.06.05.12.05.17 0Zm-6.98 2.04c.11.06.23.05.35-.05.06-.11.04-.2-.05-.26l-.39-.3a.08.08 0 0 1-.03-.07c.01-.2.1-.38.26-.51.12-.1.23-.08.33.04.05.06.08.13.1.2.01.06.02.14 0 .24 0 .11.06.18.18.2.26.02.4-.1.43-.36v-.05a12.2 12.2 0 0 0-.6-.91c-.15-.21-.33-.36-.53-.45-.16-.07-.27-.05-.33.04a.63.63 0 0 0-.07.27 7.6 7.6 0 0 0-.03.33c-.01.19-.1.3-.29.34a.6.6 0 0 1-.23.01c-.09-.01-.14-.06-.17-.13v-.03a.89.89 0 0 1-.04-.4l.03-.19.06-.31c.04-.12.09-.21.16-.29.03-.03.06-.03.09 0 .1.1.2.15.31.16.08 0 .12-.01.15-.06l.2-.38c.04-.07.1-.11.18-.12.07-.01.12.01.14.07.03.06.04.12.02.18l-.01.02-.16.13a.1.1 0 0 0-.04.08c0 .04 0 .06.03.09.1.08.23.12.42.12.2 0 .31-.06.36-.16a.27.27 0 0 0 0-.22.91.91 0 0 0-.43-.49 1.8 1.8 0 0 0-.37-.11 2 2 0 0 1-.36-.12c-.1-.04-.15-.1-.16-.19a3.3 3.3 0 0 1-.03-.55.6.6 0 0 0-.1-.34c-.05-.07-.09-.11-.12-.12a.9.9 0 0 0-.47.01l-.48.14a1 1 0 0 0-.3.16.89.89 0 0 0-.16.16.28.28 0 0 0-.04.2c0 .04.02.07.05.1l.08.03c.1.04.16.09.18.14.03.09.02.16-.02.21a2.11 2.11 0 0 1-.45.38l-.31.22c-.34.23-.62.5-.86.79-.27.32-.46.66-.6 1.03-.15.43-.24.89-.26 1.38-.01.15 0 .27.02.36.03.1.05.22.07.36 0 .01.01.02.03.02h.02v-.44a1.36 1.36 0 0 1 .04-.4.8.8 0 0 1 .08-.24c.05-.07.12-.1.23-.1.06-.01.09.02.1.08.01.19-.02.47-.11.83l-.05.21c-.05.25-.04.5.04.73.05.11.11.21.19.3.05.06.14.16.27.28l.07.06c.05.06.1.15.12.3.05.21.15.42.3.6.29.33.63.57 1.02.7.03.02.08.05.15.12.04.04.06.09.06.15a.8.8 0 0 1-.08.33c-.03.07-.1.16-.19.27a20.29 20.29 0 0 0-.17.37c.17.37.42.68.76.94.14.1.27.16.4.17.14 0 .27.03.38.06.17.05.25.16.26.34v.1c0 .19.01.33.03.4.04.14.13.25.25.34.12.07.26.14.44.21h.06c.01 0 .03-.02.03-.04l.03-.13.07-.24c.04-.08.1-.14.17-.2.4-.25.93-.52 1.57-.81a3.93 3.93 0 0 0 .65-.4.68.68 0 0 0 .03-.45 1 1 0 0 0-.2-.4 1.92 1.92 0 0 0-.23-.24 4.73 4.73 0 0 0-1.63-.57c-.63-.13-1.26-.23-1.9-.31-.35-.05-.62-.1-.82-.17a3.07 3.07 0 0 1-.6-.32 1.2 1.2 0 0 1-.46-.45.54.54 0 0 1 0-.5 5 5 0 0 0 .17-.38c.02-.06.03-.1 0-.14a.1.1 0 0 0-.08-.05c-.03 0-.06 0-.1.03a1 1 0 0 0-.1.1.14.14 0 0 1-.1.05.2.2 0 0 1-.1-.01.7.7 0 0 1-.36-.44.39.39 0 0 1 .03-.25.72.72 0 0 1 .15-.22c.14-.14.28-.25.44-.33.2-.1.38-.13.52-.07.05.02.11.08.17.18.06.08.09.16.1.22l.02.14c.02.16.06.27.1.32.01.01.03.02.04.01.01 0 .02 0 .03-.02a.54.54 0 0 0 .03-.19c0-.08 0-.24-.03-.48 0-.03.01-.06.03-.08a.12.12 0 0 1 .07-.05c.44-.08.76-.2.97-.39.06-.05.14-.15.24-.3l.22-.32c.04-.06.1-.08.18-.06.04 0 .09.04.13.1.04.06.08.1.1.1Zm.84-4.26c-.18.12-.31.19-.39.2-.07 0-.18-.03-.31-.11a.47.47 0 0 0-.17-.04h-.03c-.02-.01-.04 0-.05.02a.06.06 0 0 0-.01.06c.02.06.05.11.08.15l.13.12c.1.08.17.2.2.33 0 .02.01.03.03.04.05.04.1.04.16.02a.25.25 0 0 0 .12-.13c.08-.18.22-.33.4-.46.06-.04.07-.08.05-.13a.26.26 0 0 0-.02-.03c-.06-.08-.12-.09-.2-.04Zm.65 1.2a.11.11 0 0 0-.07-.09 7.65 7.65 0 0 0-.1-.05c-.22-.1-.35-.18-.4-.25-.03-.05-.02-.1.02-.15.04-.04.13-.1.27-.17l.21-.12c.11-.08.21-.17.3-.27.04-.04.08-.05.12 0a2 2 0 0 1 .1.2l.16.26c.11.12.24.24.4.36l.04.07c0 .03 0 .06-.02.09-.02.04-.11.11-.26.22l-.16.1a.32.32 0 0 0-.12.22l-.05.27a.45.45 0 0 1-.1.21.11.11 0 0 1-.1.04.11.11 0 0 1-.08-.04 3.1 3.1 0 0 0-.4-.39.1.1 0 0 1-.04-.07c0-.03 0-.05.02-.07l.22-.26a.13.13 0 0 0 .04-.11Zm1.35.6.4-.32c.03-.02.03-.05.02-.08-.01-.03-.04-.05-.07-.04l-.21.02-.03.01-.33.2a.07.07 0 0 0-.03.07c0 .02 0 .04.03.06l.15.08c.02.01.05.01.07 0Zm1.56.7a.08.08 0 0 1-.07 0l-.16-.05h-.03c-.01.01-.02.02-.01.03.01.11.09.18.22.21a1 1 0 0 0 .25 0c.11 0 .18-.02.21-.06.04-.05.06-.1.05-.16a.28.28 0 0 0-.06-.17c-.08-.1-.2-.2-.34-.27a4.88 4.88 0 0 0-.35-.17c-.09-.04-.14-.02-.17.05-.02.07 0 .13.06.18.02.01.07.02.16.02.08 0 .15.02.22.05l.04.04c.02.05.03.13.02.24 0 .02-.02.05-.04.06Zm4.5 4.97a3 3 0 0 1-.4.87.7.7 0 0 1-.28.23h-.03a7.42 7.42 0 0 1-.03-.16l-.06-.38-.08-.4c-.04-.2-.09-.33-.14-.4a.51.51 0 0 0-.28-.2c-.14-.04-.25-.02-.35.04a.76.76 0 0 0-.15.15l-.42.53c-.34.42-.75.51-1.25.3a.95.95 0 0 1-.5-.48 5.21 5.21 0 0 1-.1-.23c-.03-.16-.04-.3-.03-.43.03-.2.1-.42.2-.68a4.88 4.88 0 0 0 .26-.92l.1-.32c.03-.06.1-.15.2-.27a2.3 2.3 0 0 0 .35-.57.97.97 0 0 1 .25-.42c.05-.05.13-.07.22-.05l.19.03c.26.05.44.07.56.06.2-.03.32-.14.35-.34l.02-.26c0-.1.05-.15.14-.18a.3.3 0 0 1 .23 0c.14.07.26.17.37.3a4.95 4.95 0 0 1 .63 1.55c.07.33.12.72.16 1.17.04.44 0 .93-.14 1.46Zm-10.62-.84c.07.04.1.08.11.14 0 .07-.02.12-.06.16a.56.56 0 0 1-.16.07l-.05.01c-.09.03-.09.06 0 .1.1.03.2 0 .31-.1a.57.57 0 0 0 .15-.26c.03-.08-.03-.2-.18-.37a3.77 3.77 0 0 1-.05-.06c-.1-.11-.18-.18-.26-.2a.38.38 0 0 0-.36.12.1.1 0 0 0-.02.1c0 .04.03.07.06.08.27.1.44.17.51.21Z" fill="#0E6CA9"/><path d="M25.83 23.62c0 1.52.34 2.4.5 2.64-1.16-3.66 1.48-9.77 7.05-9.77a8.2 8.2 0 0 1 7.52 4.7c-.54-1.73-2.72-5.19-7.06-5.19-6.41 0-8.01 5.73-8.01 7.62Z" fill="#8C8581"/><path fill-rule="evenodd" d="M36.45 35h2.1v-.26h-.68c-.14 0-.23-.15-.18-.28l.71-1.73h2.73l.71 1.73c.06.13-.04.28-.17.28h-.76V35h2.6v-.26h-.7L40.08 28h-.26l-2.77 6.74h-.61V35Zm4.53-2.61-1.23-2.97-1.2 2.97h2.43ZM5 28.27V28h4.01c1.47 0 2.99 1.27 2.99 2.83v.33C12 33.28 10.05 35 8.06 35H5v-.27h1v-6.46H5Zm2 6.25v-6.09h1.31c1.36 0 2.69 1.18 2.69 2.63v.43c0 1.67-1.5 3.03-3.07 3.03H7ZM12.25 28v.31H13v6.41h-.75V35h4.92l.17-1.7h-.32l-.12.67a.78.78 0 0 1-.74.67H14V31.6h1.5c.32 0 .5.27.5.62v.33h.4V30.3H16v.35c0 .34-.18.61-.5.61H14v-2.84h2.02c.32 0 .57.28.57.62v.5h.35L17.1 28h-4.85Zm7.99 0H18v.22h.6L20.02 35h.56l1.91-5.5 1.7 5.5h.49l1.84-6.78H27V28h-1.92v.22h1l-1.55 5.42L22.81 28h-.32l-2 5.5-1.04-5.28h.79V28Zm7.32.23V28h1.81l2.5 5.61L33.92 28H36v.23h-1v6.08c0 .23.3.41.52.41H36V35h-2.85v-.28h.54c.21 0 .31-.18.31-.41v-5.54L31.72 35 29 29.1v5.21c0 .23.06.41.27.41h.57V35h-2.28v-.28h.49c.2 0 .38-.18.38-.41v-6.08h-.87ZM44 35h2.97v-.3h-.6c-.2 0-.37-.2-.37-.42v-5.97h.97c.75 0 1.36.66 1.36 1.48s-.6 1.48-1.36 1.48h-.86v.2l2.6 3.53H50v-.3h-.51l-2.19-3.15.8-.26c.65-.21 1.1-.87 1.1-1.6 0-.94-.7-1.69-1.56-1.69H44v.31h1v5.97c0 .23-.25.41-.45.41H44V35Z" fill="#807C7D"/><defs><linearGradient id="a" x1="33.72" y1="16.16" x2="33.72" y2="31.94" gradientUnits="userSpaceOnUse"><stop stop-color="#A5D8F3"/><stop offset="1" stop-color="#fff" stop-opacity="0"/></linearGradient></defs></svg>