<?xml version='1.0' encoding='utf-8'?>
<!-- by TradeStack -->
<svg width="56" height="56" viewBox="0 0 56 56" xmlns="http://www.w3.org/2000/svg"><path fill="#F0F3FA" d="M0 0h56v56H0z" /><path d="M34.5 23.35v5.83l.44 1.55c1.03-1.5 3.28-4.64 4.02-5.25a24.1 24.1 0 0 0 2.23-2.26c.49-.57 1.62-1.71 2.25-1.71.78 0 1.21.5 2 1.16.78.66.54 1.82.54 2.91 0 1.1.73 1.87 1.45 3.54A18.2 18.2 0 0 1 48.5 33h1.96c.51-.54 1.55-2.39 1.55-5.47 0-3.85-3.2-8.53-8.93-8.53-4.59 0-7.62 2.9-8.57 4.35Z" fill="#597791" /><path fill-rule="evenodd" d="M4 23v9h4.33c1.39.02 4.17-.83 4.17-4.46A4.35 4.35 0 0 0 8.33 23H4Zm2 1.5v6h2.3c.73.02 2.2-.55 2.2-2.98 0-2.3-1.47-2.97-2.2-3.02H6Zm7.21 3.1.53.9c.19-.14.76-.5 1.56-.5 1 0 1.2.65 1.2 1h-2c-.5.03-1.52.42-1.52 1.54 0 1.4 1.9 1.46 2.02 1.46.82 0 1.34-.46 1.5-.7v.7H18v-3.24c-.02-.59-.56-1.76-2.52-1.76-1.02 0-1.94.4-2.27.6Zm3.26 2.4v.55c-.07.15-.41.45-1.17.45-.74 0-.91-.3-.91-.45 0-.18.15-.55.8-.55h1.28Zm9.3-1.5-.54-.9c.33-.2 1.25-.6 2.28-.6 1.96 0 2.47 1.17 2.49 1.76V32h-1.5v-.7c-.16.24-.66.7-1.48.7-.11 0-2.02-.05-2.02-1.46 0-1.12 1.02-1.5 1.52-1.54h1.98c0-.35-.18-.93-1.18-.93-.8 0-1.37.29-1.55.43Zm2.73 2.05V30h-1.23c-.62 0-.77.37-.77.55 0 .15.17.45.87.45.73 0 1.06-.3 1.13-.45Zm8.73-2.95.54.9c.18-.14.75-.5 1.55-.5 1 0 1.18.65 1.18 1h-1.98c-.5.03-1.52.42-1.52 1.54 0 1.4 1.9 1.46 2.02 1.46.82 0 1.32-.46 1.48-.7v.7H42v-3.24c-.02-.59-.53-1.76-2.5-1.76-1.02 0-1.94.4-2.27.6ZM40.5 30v.55c-.07.15-.4.45-1.13.45-.7 0-.87-.3-.87-.45 0-.18.15-.55.77-.55h1.23Zm-20-5H19v7h1.5v-7ZM36 25h-1.5v2.5a2.5 2.5 0 1 0 0 4v.5H36v-7Zm-1.5 4.5c0-.83-.56-1.5-1.25-1.5S32 28.67 32 29.5s.56 1.5 1.25 1.5 1.25-.67 1.25-1.5Zm-13-2.5H23v.55c.34-.37.86-.55 1.55-.55v1.3a1.47 1.47 0 0 0-1.55.5V32h-1.5v-5Z" fill="#36526A" /></svg>