<?xml version='1.0' encoding='utf-8'?>
<!-- by TradeStack -->
<svg width="56" height="56" viewBox="0 0 56 56" xmlns="http://www.w3.org/2000/svg"><path fill="#F0F3FA" d="M0 0h56v56H0z" /><path d="M18.36 14.79a1.56 1.56 0 0 1-1.9 1.52c-3.23 4.15-6.93 13.48-.1 23.5a1.56 1.56 0 0 1 2 1.5 1.56 1.56 0 1 1-3.07-.4c-7.58-10.86-3.52-21.08.04-25.6a1.56 1.56 0 0 1 1.47-2.09c.86 0 1.56.7 1.56 1.57Z" fill="url(#a)" /><path d="M32.06 11.56a1.56 1.56 0 0 1-2.8.95 18.2 18.2 0 0 0-7.55 3.74 14.75 14.75 0 0 0-5.48 11.7c0 5.16 2.3 9.01 5.27 11.65a17.87 17.87 0 0 0 7.66 4.05 1.56 1.56 0 0 1 2.9.79 1.56 1.56 0 0 1-2.92.75 19.24 19.24 0 0 1-8.65-4.46 16.76 16.76 0 0 1-5.77-12.78c0-5.9 2.72-10.1 6.03-12.86a19.67 19.67 0 0 1 8.3-4.08 1.56 1.56 0 0 1 3.01.55Z" fill="url(#b)" /><path d="M31.91 19.58a8.42 8.42 0 0 0-8.38 8.45 8.42 8.42 0 0 0 8.38 8.46c2.53 0 4.8-1.13 6.34-2.92l.19-.21a1.56 1.56 0 1 1 1.18.94l-.24.26A9.84 9.84 0 0 1 31.91 38a9.93 9.93 0 0 1-9.89-9.97c0-5.5 4.43-9.96 9.9-9.96a9.84 9.84 0 0 1 7.46 3.43l.05.05a1.56 1.56 0 1 1-1.18.96v-.01a8.33 8.33 0 0 0-6.34-2.92Z" fill="url(#c)" /><path d="M31.75 15.82a12.08 12.08 0 0 0-12.07 12.1 12.08 12.08 0 0 0 20.26 8.88 1.57 1.57 0 0 1 1.5-1.98 1.56 1.56 0 1 1-.45 3.06 13.59 13.59 0 0 1-22.82-9.96 13.59 13.59 0 0 1 22.84-9.95 1.56 1.56 0 0 1 1.99 1.5 1.56 1.56 0 1 1-3.06-.43 12 12 0 0 0-8.2-3.22Z" fill="url(#d)" /><path d="M30.6 37.91a9.9 9.9 0 0 0 8.78-3.35l.24-.26a1.56 1.56 0 1 0-1.18-.94l-.19.2a8.33 8.33 0 0 1-7.65 2.83v1.52Zm0-18.23v-1.53a9.91 9.91 0 0 1 8.78 3.35l.05.05a1.56 1.56 0 1 1-1.18.96v-.01a8.33 8.33 0 0 0-7.65-2.82Z" fill="#189CD8" /><path d="M30.6 41.47A13.51 13.51 0 0 0 41 37.87 1.55 1.55 0 0 0 43 36.4a1.56 1.56 0 1 0-3.06.42 12 12 0 0 1-9.34 3.16v1.51Zm0-25.6v-1.51a13.51 13.51 0 0 1 10.4 3.6 1.56 1.56 0 1 1-1.06 1.08 12 12 0 0 0-9.34-3.16Z" fill="#189CD8" /><defs><linearGradient id="a" x1="14.68" y1="13.22" x2="14.68" y2="42.87" gradientUnits="userSpaceOnUse"><stop stop-color="#159CD8" /><stop offset=".5" stop-color="#C95197" /><stop offset="1" stop-color="#159CD8" /></linearGradient><linearGradient id="b" x1="23.39" y1="10" x2="23.39" y2="46" gradientUnits="userSpaceOnUse"><stop stop-color="#159CD8" /><stop offset=".51" stop-color="#C95197" /><stop offset="1" stop-color="#159CD8" /></linearGradient><linearGradient id="c" x1="31.73" y1="19.4" x2="31.73" y2="36.62" gradientUnits="userSpaceOnUse"><stop stop-color="#159CD8" /><stop offset=".5" stop-color="#C95197" /><stop offset="1" stop-color="#159CD8" /></linearGradient><linearGradient id="d" x1="30.59" y1="16.05" x2="30.59" y2="40.13" gradientUnits="userSpaceOnUse"><stop stop-color="#159CD8" /><stop offset=".52" stop-color="#C95197" /><stop offset="1" stop-color="#159CD8" /></linearGradient></defs></svg>