<?xml version='1.0' encoding='utf-8'?>
<!-- by TradeStack -->
<svg width="56" height="56" viewBox="0 0 56 56" xmlns="http://www.w3.org/2000/svg"><path fill="#181B1E" d="M0 0h56v56H0z" /><path d="M18.19 12 16 14.31l7.16 7.57a6.59 6.59 0 0 0 9.68 0L40 14.31 37.81 12l-8.29 8.76c-.84.89-2.2.89-3.04 0L18.18 12ZM44 37.81 41.69 40l-7.57-7.16a6.59 6.59 0 0 1 0-9.68L41.69 16 44 18.19l-8.76 8.29c-.89.84-.89 2.2 0 3.04l8.76 8.3ZM12 18.19 14.31 16l7.57 7.16a6.59 6.59 0 0 1 0 9.68L14.31 40 12 37.81l8.76-8.29c.89-.84.89-2.2 0-3.04L12 18.18ZM37.81 44 40 41.69l-7.16-7.57a6.59 6.59 0 0 0-9.68 0L16 41.69 18.19 44l8.29-8.76c.84-.89 2.2-.89 3.04 0l8.3 8.76Z" fill="#fff" /></svg>