<!-- by TradeStack --><svg viewBox="0 0 56 56" xmlns="http://www.w3.org/2000/svg"><path fill="#F0F3FA" d="M0 0h56v56H0z"/><path d="M20 14h16c4.5 0 6.71 5.28 5.8 9.25C39.5 33.38 34.9 40.6 28 48c-7.18-6.6-11.57-14.74-13.78-24.27C13.27 19.65 15.5 14 20 14Zm-4.08 9.36C17.86 31.7 21.72 40.02 28 46c.03.02-.02-.02 0 0 6.45-6.03 10.17-14.63 12.1-23.11.71-3.12-.61-6.92-4.1-6.92H20c-3.68 0-4.83 4.18-4.08 7.4Z" fill="#1A4F83"/><path d="M20.8 17c-3.1 0-4.36 3.8-3.57 7.12 2.91 12.18 8.72 17.87 10.6 19.7L28 44c1.73-1.62 7.82-7.44 10.82-20.27.74-3.12-.85-6.73-3.89-6.73H28.5l.5 12.53c.01.16.2.2.27.06l3.46-8.09c.08-.16.3-.07.27.12L29.9 37a4.68 4.68 0 0 0-3.76 0l-3.14-15.39c-.04-.19.18-.28.26-.1l3.46 8.08c.07.14.26.1.27-.06L27.56 17h-6.75Z" fill="#1A4F83"/></svg>