<?xml version='1.0' encoding='utf-8'?>
<!-- by TradeStack -->
<svg width="56" height="56" viewBox="0 0 56 56" xmlns="http://www.w3.org/2000/svg"><path fill="#F0F3FA" d="M0 0h56v56H0z" /><path d="M26 12h5v3.22c.98.17 1.92.43 2.81.76l2.34-3.04 3.88 2.96-1.91 2.49c.5.4.98.82 1.41 1.28l2.5-1.62 2.63 3.81-6 3.17-1.44-1.81c-1.92-2.44-5.22-4.2-9.37-4.2-6.72 0-11.2 4.63-11.2 9.23 0 4.6 4.48 9.23 11.2 9.23 6.34 0 10.67-4.12 11.15-8.44V27h8v4h-4.2l-.12.48 3.25 2.79-3.18 3.7-2.4-2.06c-.59.72-1.26 1.4-2 2l1.68 2.2-3.88 2.95-2.04-2.66c-.99.38-2.03.68-3.11.88V44h-5v-2.54a17.02 17.02 0 0 1-3.76-.83l-1.86 2.43-3.88-2.96 1.36-1.78c-.78-.59-1.5-1.24-2.12-1.96l-2.15 1.84-3.18-3.7 2.8-2.4c-.12-.37-.22-.73-.31-1.1H9v-5h3.79c.13-.68.32-1.34.57-1.98L10.4 21.5l3.18-3.7 2.4 2.05c.63-.67 1.34-1.3 2.11-1.86l-1.6-2.1 3.88-2.96 2.16 2.83c1.1-.36 2.26-.6 3.46-.73V12Z" fill="#003492" /><path fill-rule="evenodd" d="M29 22h-6v12h6a6 6 0 0 0 0-12Zm0 3h-3v6h3a3 3 0 1 0 0-6Z" fill="#09A63D" /></svg>