<!-- by TradeStack --><svg width="56" height="56" viewBox="0 0 56 56" xmlns="http://www.w3.org/2000/svg"><path fill="#F0F3FA" d="M0 0h56v56H0z"/><path d="m29.08 44.85-.1.02a15.04 15.04 0 0 1-5.46-8.38l-.05-.22a5.6 5.6 0 0 0 3.55 1.26h.13a15.19 15.19 0 0 0 1.92 7.32Z" fill="#004EF0"/><path d="M36.66 40.69a13.02 13.02 0 0 1-7.59 4.16 15.03 15.03 0 0 1-1.92-7.32c.2 0 .4-.02.6-.05a14.77 14.77 0 0 0 8.9 3.2Z" fill="#0A7AE9"/><path d="M39.86 33.8a13.07 13.07 0 0 1-3.2 6.89 14.77 14.77 0 0 1-8.9-3.2 5.58 5.58 0 0 0 1.8-.56 14.77 14.77 0 0 0 10.31-3.13Z" fill="#14A5E2"/><path d="M40 28.08v4.03c0 .26-.1 1.41-.1 1.41l-.04.28a14.77 14.77 0 0 1-10.3 3.13l.13-.07A14.88 14.88 0 0 0 40 28.08Z" fill="#21C5C8"/><path d="M39.72 10a6.99 6.99 0 0 0-3.56 1 7.14 7.14 0 0 0-3.48 6.17v1.7l-.01 6.95-.01 6.46a5.69 5.69 0 0 1-2.97 4.58 16.03 16.03 0 0 0 1.29-.37l.21-.07a15.07 15.07 0 0 0 8.7-8.09l.1-.25V10h-.27Z" fill="#01EABD"/><path d="M27.52 19.02c-6.72 1.24-11.83 6.81-11.83 13.1 0 6.02 4.1 11.67 10.09 12.85l-.23-.03A13.38 13.38 0 0 1 14 31.91v-.04c0-6.56 5.25-12.4 12-13.03.51-.05 1.03.02 1.52.18Z" fill="#050577"/><path d="M28.98 44.87C21.92 46 15.37 39.7 15.37 32.37V32.08c0-7.08 5.36-12.41 12-13.03l.15-.01a3.67 3.67 0 0 1 2.39 3.46 3.72 3.72 0 0 1-2.39 3.47l-.05.02c-.27.09-.55.15-.84.18h-.01l-.24.02h-.1c-2.38.2-4.36 2.27-4.8 4.56l-.04.21a5.78 5.78 0 0 0 2.04 5.3 7.94 7.94 0 0 0 .2.77 15.04 15.04 0 0 0 5.3 7.84Z" fill="#020261"/></svg>