<!-- by TradeStack --><svg width="56" height="56" viewBox="0 0 56 56" xmlns="http://www.w3.org/2000/svg"><path fill="#F0F3FA" d="M0 0h56v56H0z"/><path fill="#2C3868" d="M42 20h3v17h-3z"/><path fill-rule="evenodd" d="M26 20h8c1.67 0 5 1.1 5 5.5 0 1.67-.5 4-3 5.5l4 6h-3.5l-4-6H29v6h-3V20Zm3 8v-5h4c1 0 3 .5 3 2.5S34 28 33 28h-4Zm-19-1h3v7h3c1.67 0 5-1.1 5-5.5 0-1.33-.8-4.1-4-4.5v-3c2.33 0 7 1.5 7 7.5 0 7.5-6 8.5-8 8.5h-6V27Z" fill="#2C3868"/><path d="M10 17v3H7v3h3v3h3v-3h3v-3h-3v-3h-3Z" fill="#3AC7D8"/></svg>