<!-- by TradeStack --><svg width="56" height="56" viewBox="0 0 56 56" xmlns="http://www.w3.org/2000/svg"><path fill="#F0F3FA" d="M0 0h56v56H0z"/><path fill-rule="evenodd" d="M15.61 30.5c.73 0 1.36-.09 1.89-.24V28.5H16V28h2v2.66c-.68.22-1.46.34-2.28.34-1.78 0-3.22-1.34-3.22-3s1.44-3 3.22-3c.83 0 1.6.12 2.28.33v.59a6.15 6.15 0 0 0-2.39-.42A2.56 2.56 0 0 0 13 28c0 1.38 1.17 2.5 2.61 2.5ZM4 31v-6h2.63C8.5 25 10 26.34 10 28s-1.5 3-3.37 3H4Zm.5-.5v-5h1.93c1.7 0 3.07 1.12 3.07 2.5s-1.37 2.5-3.07 2.5H4.5ZM11 25h.5v6H11v-6Zm16.5 0H27v6h.5v-6Zm-8 6v-6h.62l5.38 5.13V25h.5v6h-.54L20 25.7V31h-.5Zm20 0h.5v-5.35L45 31h.5v-6H45v5.28L40.08 25h-.58v6ZM28 25.5V25h5.5v.5H31V31h-.5v-5.5H28Zm4.31 5.5h.55l1-2h3.02l1 2h.62l-2.97-6h-.35l-2.87 6Zm4.32-2.5-1.27-2.52-1.26 2.52h2.53Zm9.9 2.5H46l2.78-6h.34L52 31h-.6l-.98-2H47.5l-.96 2Zm2.42-5.02 1.23 2.52h-2.45l1.22-2.52Z" fill="#00165D"/></svg>