<!-- by TradeStack --><svg width="56" height="56" viewBox="0 0 56 56" xmlns="http://www.w3.org/2000/svg"><path fill="#F0F3FA" d="M0 0h56v56H0z"/><path d="M38.88 26.27a13.23 13.23 0 0 0 2.37-4.37c.64-2.04.48-4.53-.99-6.06-1.6-1.66-4.38-1.1-6.25-.07a15.27 15.27 0 0 0-4.35 3.62.4.4 0 0 0-.1.2c-.02.16-.12.25-.28.27-.08.01-.13-.02-.13-.1a2.38 2.38 0 0 0-.2-.87l.02-.04.03-.02a.1.1 0 0 1 .04 0c.05 0 .1-.04.18-.12l.02-.02a16.94 16.94 0 0 1 4.14-3.95c2.08-1.4 4.99-2.38 7.31-1.24 2.36 1.15 2.63 4.38 2.05 6.79a12.7 12.7 0 0 1-1.86 4.29 28.61 28.61 0 0 1-5.72 6.15c-.44.34-1 .66-1.71.96-1.34.56-2.43.27-3.27-.88-.76-1.03-1.62-2.23-2.57-3.6a.24.24 0 0 1-.04-.21l.35-1.38c.02-.08-.01-.12-.1-.12h-2.78c-.08 0-.09-.02-.02-.07 1.1-.72 2.1-1.51 2.96-2.37.06-.05.07-.04.06.03l-.12.45c-.04.17.02.22.17.16l2.83-1.04h.01l.02.01v.03l-1.58 6.26a.1.1 0 0 0 .02.09l.03.02a.1.1 0 0 0 .05.01h3.64c.06 0 .1-.03.11-.09l.76-3c.04-.15.12-.17.22-.04.59.74 1.49 1.58 2.45 1.52a.2.2 0 0 0 .16-.1 6.07 6.07 0 0 0 .95-4c-.2-1.43-1.02-2.22-2.44-2.37h-.02a.06.06 0 0 1-.03-.05v-.02l.34-1.32a.1.1 0 0 1 .03-.05.09.09 0 0 1 .05-.02c3.07-.08 3.63 2.6 2.98 5.1-.18.67-.43 1.35-.75 2.04l.01.05c.02.01.04 0 .06-.01 1.13-1.8 2.36-4.68 1.29-6.78-.6-1.19-1.67-1.77-3.2-1.77-.07 0-.1-.04-.08-.12l.23-.9c.02-.08-.01-.12-.09-.12H35c-.16 0-.17-.03-.02-.1 1.35-.57 2.9-.76 4.22.03 1.98 1.2 1.87 3.7 1.26 5.68a17.51 17.51 0 0 1-1.61 3.64.02.02 0 0 0 .03 0Z" fill="#02A463"/><path d="M17.1 18.94a12.63 12.63 0 0 0-2.39 4.46 6.55 6.55 0 0 0 .57 5.37c.21.36.55.69 1 .98 1.72 1.07 4.05.57 5.7-.39.34-.2.64-.29.9-.28h1.28c.12 0 .14.05.05.13a11.75 11.75 0 0 1-5.07 2.75c-2.45.57-5-.07-5.84-2.82-.89-2.9.3-6.4 1.96-8.77a31.72 31.72 0 0 1 4.76-5.27 7.3 7.3 0 0 1 3.3-1.86c.96-.2 1.78.15 2.47 1.06a85.7 85.7 0 0 1 2.84 4 3.1 3.1 0 0 0-1.32-.94 5.65 5.65 0 0 0-5.88 1.27c-.05.05-.1.05-.15 0-.45-.49-1.28-1.09-1.92-.97a.25.25 0 0 0-.17.12c-.94 1.52-1.49 3.8-.45 5.33.5.73 1.3 1.08 2.44 1.03v.01l-1.58 1.47a.1.1 0 0 1-.1.03 2.58 2.58 0 0 1-2.11-1.72c-.66-1.7-.08-3.85.7-5.47v-.04l-.02-.01-.03.01c-.5.73-.96 1.7-1.37 2.93-.74 2.2-.38 4.7 1.95 5.55.03.01.04.03.02.06l-.7 1.54c-.01.02-.03.03-.06.02a3.47 3.47 0 0 1-2.31-1.93c-.4-.91-.49-1.96-.25-3.14.25-1.3.85-2.8 1.8-4.5.05-.09.04-.1-.03-.01Z" fill="#02A463"/><path d="m31.77 21.48-2.81 1.24c-.18.09-.25.02-.2-.18l.47-1.9a.5.5 0 0 1 .36-.37 7.45 7.45 0 0 0 3.66-2.68c.04-.06.1-.09.17-.09h2.03a.04.04 0 0 1 .04.03v.02l-2.7 10.8c-.03.1-.09.15-.18.15h-2.37c-.1 0-.13-.05-.11-.15l1.7-6.81c.02-.07 0-.08-.06-.06ZM23.22 26h3.9l.05.15-.56 2.24c-.02.07-.06.11-.13.11h-7.7c-.17 0-.21-.08-.14-.23a9.6 9.6 0 0 1 2.85-3.63c.51-.4 1.5-1.1 2.94-2.14.46-.33.85-.72 1.16-1.16.5-.72.26-1.82-.74-1.7-.8.08-1.27.77-1.52 1.5-.02.07-.07.1-.14.1l-2.4-.2c-.07 0-.1-.05-.07-.12a4.7 4.7 0 0 1 4.39-3.4 3.91 3.91 0 0 1 2.71.69c.58.42.82 1.08.74 1.97-.27 2.93-3.5 4.2-5.39 5.76-.1.1-.1.06.05.06Z" fill="#0E3A57"/><path d="M24.25 21.98c-.12.1-.19.14-.2.14a.29.29 0 0 1-.28-.08.25.25 0 0 1-.06-.12c0-.05 0-.1.02-.14l.44-.94a.7.7 0 0 1 .56-.43l.29-.03c.24.01.32.14.24.38-.14.4-.48.81-1 1.22Z" fill="#02A463"/><path d="M24.5 33h1.35c.1 0 .15.05.15.17v1.01c0 .12-.05.17-.15.17h-.33c-.07 0-.1.04-.11.13a276.58 276.58 0 0 0 0 5.05c0 .08.04.12.1.12h.34c.1 0 .15.05.15.17v1.01c0 .12-.05.17-.15.17h-2.7c-.1 0-.15-.05-.15-.17v-1.01c0-.12.05-.17.15-.17h.33c.07 0 .1-.04.11-.13a266.29 266.29 0 0 0 0-5.04c0-.09-.04-.13-.1-.13h-.34c-.1 0-.15-.05-.15-.17v-1.01c0-.12.05-.17.15-.17h1.35ZM29.7 37.68c-.1-.15-.16-.14-.16.04v3.13a.15.15 0 0 1-.14.14h-2.5c-.11 0-.16-.05-.16-.16v-1.02a.18.18 0 0 1 .18-.19h.4c.07 0 .1-.03.1-.1v-5.07a.12.12 0 0 0-.12-.12h-.37c-.14 0-.2-.06-.2-.2v-.94c0-.14.06-.2.2-.2h2.51a.09.09 0 0 1 .06.02.08.08 0 0 1 .03.06c-.03.5.04.92.34 1.34.75 1.08 1.48 2 1.97 2.77.1.16.16.15.16-.05v-4.05a.09.09 0 0 1 .09-.1h2.45c.12 0 .18.07.18.19v.98c0 .12-.05.18-.17.18h-.38c-.09 0-.17.04-.17.14v5.02c0 .09.08.13.17.13h.37c.12 0 .18.06.18.18v1.03c0 .11-.06.17-.18.17h-2.27a.64.64 0 0 1-.57-.3l-2-3.02ZM38.87 34.46h-1.82s-.02 0-.03.02a.05.05 0 0 0-.02.03v1.75c0 .03.12.04.15.04h3.1c.2 0 .4.08.53.21a.7.7 0 0 1 .22.5v3.12c0 .58-.3.87-.9.87h-5.02c-.02 0-.04 0-.05-.02a.07.07 0 0 1-.02-.05v-1.99c0-.08.04-.13.13-.13h1.97c.08 0 .12.04.12.12v.38c0 .07.04.1.11.1h1.3a.09.09 0 0 0 .09-.09V38.1a.08.08 0 0 0-.03-.06.08.08 0 0 0-.06-.03H37c-.86 0-1.41 0-1.81-.58a1.37 1.37 0 0 1-.18-.74 61.5 61.5 0 0 1 .01-2.71c0-.26.12-.5.32-.69.19-.18.45-.28.72-.28h4.8c.1 0 .14.04.14.13v2.1c0 .14-.08.21-.22.21h-1.6c-.12 0-.18-.06-.18-.17v-.69c0-.08-.05-.12-.13-.12ZM22 38.99a383.33 383.33 0 0 0 0-3.97c0-.63-.08-1.05-.23-1.29-.29-.47-.73-.71-1.33-.71L15.17 33c-.11 0-.17.05-.17.16v1.02c0 .12.06.17.18.17h.64c.08 0 .18.04.18.12v1.3a246.86 246.86 0 0 0 0 3.77c0 .07-.1.11-.18.11h-.65c-.11 0-.17.05-.17.17v1.02c0 .1.06.16.17.16l5.27-.01c.6 0 1.04-.24 1.33-.72.15-.23.22-.66.22-1.28Zm-3.9-4.66h1.35c.05 0 .1.06.1.12v5.09c0 .06-.05.1-.11.1h-1.35c-.05 0-.1-.05-.1-.1l.01-5.1c0-.06.05-.1.1-.1Z" fill="#0E3A57"/></svg>