<?xml version='1.0' encoding='utf-8'?>
<!-- by TradeStack -->
<svg width="56" height="56" viewBox="0 0 56 56" xmlns="http://www.w3.org/2000/svg"><path fill="#F0F3FA" d="M0 0h56v56H0z" /><path fill-rule="evenodd" d="M28 12h1v9.87c-1.35-3.18-3.12-4.04-3.97-4.04-1.19 0-1.78.84-1.78.84.93.68 1.86 1.57 1.86 1.57l1.87-.26-1.1 1.03 1.01 1.66h1.95s-1.53.48-1.27.91c.25.52 1 4.03 1 4.03l.43.43s-.08.43 0 .95c-.5.43.25 1.28.42 1.71l-.42.95V34c-.08 0-.09-.16-.17-.25-2.29-6.35-9.72-7.42-9.72-7.42-4.57-.17-4.53 2.98-4.44 3.67.59-.94 2.15-.58 2.66-.75.09-.77 1.02-1.46 1.02-1.46s-.17 1.54.25 1.54c.42 0 2.03.09 2.03-.08 0-.17.6-.69 1.02-.86.08.26-.17 1.2-.09 1.29.09.08 3.64 1.54 3.64 1.54s.3-.27 1.35-.22c.93.17 1 1.33 1.68 2.28A13.73 13.73 0 0 0 20.97 31c-5 0-5.92 2.1-5.92 3.05 0 .6.25 1.2.59 1.46 0-.17 1.78-.6 1.78-1.29 0-.69.42-1.37.76-1.8-.09.51.42 1.37.42 1.37s1.7-.26 2.11-.51c.09-.35.77-1.28.77-1.28s.17 1.36.33 1.45c.17.08 3.05.17 3.22.26.08 0 .76-.6 1.01-.7.77-.33 2.54 1.21 2.96 1.55V44h-1c-9.05 0-16-7.2-16-16.04C12 19 19.5 12 28 12Zm1 10.04c1.35-3.18 4.15-4.04 5-4.04 1.18 0 1.77.67 1.77.67-3.21 1.97-4.57 5.51-5.41 8.34 0-2.06-.85-3.69-1.36-4.97Zm1.44 6.26.17-.26c2.29-4.54 6.1-6.7 8.12-6.7 2.12 0 2.97 1.9 2.63 2.16-.93-.43-2.2.42-2.37.25-.17-.17-1.66-1.08-1.66-1.08s.3.83.64 1.51c-.54.24-1.77 1.14-2.16 1.15-.45.02-1.12-.41-1.56-.55 0 0 .6.53.76 1.22-.67.26-3.64 3.67-3.64 3.67l-1.01.09c0-.43 0-.86.08-1.46ZM28.83 32l-1.08-3h-.94c-1.27-2.57-6.1-5.42-9.14-5.59-.34-.26.42-2.08 2.54-2.08 2.11 0 5.33 1.3 7.61 5.94 0 .17 1.68 4.73 1 4.73Z" fill="#B90F2C" /><path d="M29 35s2.35-2.08 3.23-1.7c.87.4.77.7 1.04.7.18-.1 4.28-.12 4.45-.21.18-.1.28-1.79.28-1.79s.77 1.12.85 1.6c.44.28 1.84.4 1.84.4s.43-.79.43-1.37c.35.49.88 1.16.88 2.02 0 .77 1.39 1.16 1.39 1.35a3.3 3.3 0 0 0 .61-1.63c0-.97-.96-3.37-6.1-3.37-5.06 0-8.9 3.33-8.9 3.33V35Z" fill="#B90F2C" /><path d="M40.08 25s-9 1.2-11.08 9c1.39-1.09 1.47-3.26 2.77-3.56 1.04-.2 1.39.2 1.39.2s4.07-1.78 4.15-1.78c.09-.1-.17-1.18-.08-1.48.43.2 1.03.89 1.03.99 0 .1 1.74-.2 2.17-.2.43 0 .26-1.78.26-1.78s.95.8 1.04 1.68c.6.2 1.47-.3 2.08.8.26-.8.95-4.06-3.73-3.86Z" fill="#B90F2C" /></svg>