<!-- by TradeStack --><svg width="56" height="56" viewBox="0 0 56 56" xmlns="http://www.w3.org/2000/svg"><path fill="#F0F3FA" d="M0 0h56v56H0z"/><path d="m27.94 13.2-.03-.64a.19.19 0 0 0-.12-.17.2.2 0 0 0-.08-.01c-.56.02-1.7.27-1.74-.66-.02-.35-.03-.68-.02-1 0-.16.07-.33.2-.45.11-.12.28-.2.45-.2l1.12-.07c.63-.04.92.52.81 1.08a.17.17 0 0 1-.14.14c-.15.02-.3.02-.45-.01-.07-.02-.1-.06-.1-.14v-.2c0-.12-.06-.17-.17-.16l-.87.05c-.11 0-.16.06-.15.17l.03.6c.01.12.07.17.18.18.3 0 .62 0 .93-.03 1.02-.07.85 1.14.84 1.72 0 .17-.07.33-.2.45a.65.65 0 0 1-.44.19c-.45 0-1.3.17-1.66-.11-.26-.2-.35-.5-.27-.88.01-.07.05-.11.13-.12l.37-.04c.11 0 .17.04.18.15l.01.25a.12.12 0 0 0 .12.1l.92-.03c.1 0 .16-.06.15-.16ZM31.38 12.85l-.36 1.4a.12.12 0 0 1-.1.09h-.04l-.46-.13a.12.12 0 0 1-.08-.14l.96-3.68a.12.12 0 0 1 .1-.09h.04l.46.12a.12.12 0 0 1 .08.05.11.11 0 0 1 0 .1l-.36 1.38a.11.11 0 0 0 .08.14l.92.25a.12.12 0 0 0 .14-.09l.37-1.39.05-.06a.12.12 0 0 1 .09-.02l.46.1a.12.12 0 0 1 .09.1v.04l-.97 3.69a.12.12 0 0 1-.13.08l-.46-.09a.12.12 0 0 1-.1-.14l.37-1.42a.11.11 0 0 0-.04-.12.12.12 0 0 0-.05-.02l-.92-.23a.12.12 0 0 0-.14.08ZM35.44 15.34l1.12.68a.14.14 0 0 1 .06.08.13.13 0 0 1-.01.1l-.22.36a.14.14 0 0 1-.19.05l-1.72-1.03a.14.14 0 0 1-.05-.19l1.96-3.22a.14.14 0 0 1 .2-.05l1.71 1.03a.14.14 0 0 1 .05.19l-.22.36a.14.14 0 0 1-.14.07l-.05-.02-1.12-.68a.14.14 0 0 0-.19.05l-.36.6a.14.14 0 0 0 .04.2l.85.5a.14.14 0 0 1 .05.2l-.23.36a.14.14 0 0 1-.2.04l-.82-.51a.14.14 0 0 0-.1-.02.14.14 0 0 0-.1.06l-.37.6a.14.14 0 0 0 .05.2ZM20.5 16l-.6-1.02c-.05-.09-.03-.15.06-.2.26-.16.52-.3.77-.43.38-.2.48-.69.27-1.04l-.56-.95a.72.72 0 0 0-.96-.25l-1.4.8a.15.15 0 0 0-.07.08.14.14 0 0 0 .01.12l1.86 3.23a.17.17 0 0 0 .22.06l.33-.17c.1-.05.12-.13.07-.22Zm-1.47-2.85.68-.37a.16.16 0 0 1 .2.06l.43.76c.04.07.01.17-.06.2l-.68.38a.16.16 0 0 1-.2-.07l-.43-.75a.15.15 0 0 1 .06-.2ZM39.64 19.07l-.33.31a.13.13 0 0 1-.09.03.13.13 0 0 1-.09-.04l-1.54-1.63a.13.13 0 0 1 0-.18l2.8-2.58a.13.13 0 0 1 .18 0l.31.33a.13.13 0 0 1 0 .18l-2.28 2.1a.13.13 0 0 0-.01.18l1.06 1.12a.12.12 0 0 1 0 .18ZM16.86 19.06c.2 0 .37-.09.5-.22l.8-.83a.71.71 0 0 0-.03-1l-1.9-1.8a.73.73 0 0 0-1.03.02l-.79.83a.71.71 0 0 0 .03 1l1.9 1.8c.14.13.33.2.52.2Zm-1-3.24 1.67 1.58c.07.07.08.18 0 .26l-.56.58a.19.19 0 0 1-.26.01l-1.67-1.57a.18.18 0 0 1-.01-.26l.56-.59a.19.19 0 0 1 .27 0ZM12.22 20.57l-.27.54a.15.15 0 0 1-.21.07l-.36-.2a.15.15 0 0 1-.06-.2l1-1.93a.15.15 0 0 1 .2-.07l.38.19a.15.15 0 0 1 .08.1.15.15 0 0 1-.02.11l-.3.5a.15.15 0 0 0 .07.2l2.75 1.4a.15.15 0 0 1 .07.09.15.15 0 0 1 0 .12l-.19.35a.15.15 0 0 1-.09.07.16.16 0 0 1-.12 0l-2.72-1.4a.16.16 0 0 0-.18.02.15.15 0 0 0-.03.04ZM41.76 20.62l-1.26.65a.14.14 0 0 1-.16-.02.14.14 0 0 1-.03-.04l-.2-.39a.14.14 0 0 1 .06-.18l3.39-1.72a.14.14 0 0 1 .19.06l.91 1.77a.13.13 0 0 1-.02.16.14.14 0 0 1-.04.03l-.39.2a.14.14 0 0 1-.18-.07l-.59-1.15a.14.14 0 0 0-.14-.08l-.05.02-.63.32a.14.14 0 0 0-.07.08.13.13 0 0 0 0 .1l.48.88a.14.14 0 0 1 0 .1.14.14 0 0 1-.07.09l-.4.19a.14.14 0 0 1-.18-.07l-.44-.87a.14.14 0 0 0-.13-.08c-.02 0-.04 0-.05.02Z" fill="#010101"/><path fill-rule="evenodd" d="m22.35 35.2 5.33 2.66a.73.73 0 0 0 .65 0l5.28-2.66a.66.66 0 0 0 .39-.63V20.61c0-.4-.2-.61-.61-.61H22.46c-.18 0-.45.19-.46.38v14.27c0 .12.04.23.1.32.06.1.15.18.25.23ZM23 21.18v13.04a.18.18 0 0 0 .1.16l4.82 2.47a.17.17 0 0 0 .16 0l4.81-2.46a.18.18 0 0 0 .07-.06.2.2 0 0 0 .04-.1V21.2c0-.04-.02-.1-.05-.12-.03-.04-.08-.07-.13-.07h-9.64c-.05 0-.1.02-.13.05a.18.18 0 0 0-.05.13Z" fill="#59958F"/><path d="M27.4 22.67h-.88V22h2.96v.67h-.94c-.08 0-.13.15-.14.23V27h-.84v-4c0-.1-.03-.31-.16-.33Z" fill="#59958F"/><path d="M11.64 28.64c.35 0 .64-.28.64-.63a.64.64 0 0 0-.64-.63.64.64 0 0 0-.64.63c0 .35.29.63.64.63ZM44.36 28.64c.35 0 .64-.28.64-.63a.64.64 0 0 0-.64-.64.64.64 0 0 0-.64.64c0 .35.28.63.64.63Z" fill="#010101"/><path d="M31.7 28.01 24.3 28c-.16 0-.3.16-.3.36v.28c0 .2.13.36.3.36l7.4.01c.16 0 .3-.16.3-.35v-.3c0-.19-.14-.35-.3-.35ZM28.43 30.88h-.92a.2.2 0 0 0-.12.04.22.22 0 0 0-.08.12 1.9 1.9 0 0 0-.02.86c.02.08.06.13.14.14.7.07 1.93-.27 1.97.92.03.73.2 2.09-.9 2.04-.52-.02-1.48.06-1.8-.27-.25-.27-.33-.64-.24-1.1l.04-.08a.16.16 0 0 1 .08-.05.77.77 0 0 1 .53.02.2.2 0 0 1 .08.06.2.2 0 0 1 .04.09l.06.3c0 .04.03.08.07.11.03.03.08.05.12.05l.81-.02c.22 0 .33-.12.33-.35l.01-.57c0-.18-.08-.27-.25-.26-.6 0-1.85.23-1.92-.76-.06-.68-.2-2.08.7-2.12.87-.04 2.62-.36 2.22 1.33-.02.1-.08.15-.16.17-.44.07-.65-.1-.64-.52 0-.1-.05-.15-.15-.15Z" fill="#59958F"/><path d="M40.7 35.45c-.1.17-.06.3.1.4l.52.29c.2.11.36.07.48-.14l.46-.84a.73.73 0 0 1 .72-.37c.1 0 .2.04.28.08.52.28 1.5.65 1 1.47a10 10 0 0 0-.47.84c-.28.54-.9.55-1.34.17-.07-.06-.08-.13-.03-.21l.12-.2a.14.14 0 0 1 .1-.07.14.14 0 0 1 .11.03c.25.2.46.17.62-.1l.37-.68c.1-.2.06-.35-.14-.45l-.46-.25c-.21-.11-.37-.07-.48.14l-.48.87a.67.67 0 0 1-.9.28c-.5-.25-1.6-.68-1.09-1.48.4-.61.8-1.93 1.85-1 .05.04.07.1.05.16a.45.45 0 0 1-.15.24c-.08.06-.16.06-.24.01l-.21-.12a.22.22 0 0 0-.3.08l-.5.85Z" fill="#010101"/><path fill-rule="evenodd" d="M14.29 36.72c-.35.54-1.59 1.37-2.11.39a41.5 41.5 0 0 0-.74-1.35.1.1 0 0 1 .02-.08.1.1 0 0 1 .03-.03l3.36-1.84a.13.13 0 0 1 .18.06l.79 1.4a.7.7 0 0 1-.24.94c-.26.16-.53.3-.82.44-.1.04-.19.04-.28 0-.08-.03-.15 0-.2.07Zm.36-2.19a.12.12 0 0 1 .14.02l.03.03.44.8a.35.35 0 0 1-.03.39.35.35 0 0 1-.1.09l-.46.24a.36.36 0 0 1-.48-.14l-.45-.8a.12.12 0 0 1 0-.08.12.12 0 0 1 .05-.08l.86-.47Zm-1.44.83a.1.1 0 0 0-.08 0l-.91.5a.1.1 0 0 0-.04.13l.46.84a.34.34 0 0 0 .21.16.35.35 0 0 0 .26-.03l.48-.26a.35.35 0 0 0 .16-.2.33.33 0 0 0-.02-.26l-.47-.83a.1.1 0 0 0-.05-.05Z" fill="#010101"/><path d="m16.6 41.95.65-.88c.09-.12.2-.13.31-.04l.46.33c.1.07.12.16.1.27l-.34 1.19a.32.32 0 0 0 .13.34l.1.07c.12.09.2.06.24-.08l.34-1.27c.02-.08.08-.13.16-.14l.28-.02c.1 0 .18-.05.25-.13l.77-1.01a.7.7 0 0 0-.13-.99l-1.34-1a.1.1 0 0 0-.14.03l-2.3 3.02a.16.16 0 0 0-.03.12.15.15 0 0 0 .06.1l.2.13c.08.06.16.05.22-.04Zm2.15-2.55.81.6c.09.06.1.18.04.26l-.67.88a.19.19 0 0 1-.26.04l-.82-.6a.18.18 0 0 1-.03-.26l.67-.89c.06-.08.18-.1.26-.03ZM35.6 40.07c0 .02.01.05.03.06l2.24 2.97a.18.18 0 0 0 .25.03l1.19-.88a.82.82 0 0 0 .32-.53.79.79 0 0 0-.15-.6L38 39.18a.8.8 0 0 0-.54-.32.83.83 0 0 0-.6.16l-1.2.88a.17.17 0 0 0-.06.18Zm.84-.08.8-.58a.2.2 0 0 1 .28.04l1.55 2.05a.2.2 0 0 1-.04.27l-.8.59a.2.2 0 0 1-.27-.04l-1.56-2.05a.2.2 0 0 1 .04-.28ZM30.62 43.15l.57 2.53c.03.14-.03.22-.17.23l-.14.02c-.13.01-.2-.05-.24-.18l-.78-3.57c-.01-.04 0-.08.02-.12a.17.17 0 0 1 .09-.07c.15-.05.3-.08.45-.08.07 0 .13.03.17.09l1.57 2.11c.15.2.2.18.14-.07l-.51-2.25a.19.19 0 0 1 .13-.22l.16-.05c.13-.04.21 0 .24.14l.8 3.62c.01.05 0 .1-.05.14-.2.17-.5.13-.66-.1l-1.68-2.22c-.11-.16-.15-.14-.11.05Z" fill="#010101"/><path fill-rule="evenodd" d="m23.65 44.56 1.32.29a.1.1 0 0 1 .08.09l.07.9a.1.1 0 0 0 .09.1l.3.06a.1.1 0 0 0 .1-.03.1.1 0 0 0 .03-.08l-.29-3.97a.1.1 0 0 0-.08-.1l-.63-.12a.1.1 0 0 0-.11.05l-1.94 3.49a.1.1 0 0 0 .02.13.1.1 0 0 0 .05.02l.33.06a.1.1 0 0 0 .11-.05l.43-.79a.1.1 0 0 1 .12-.05Zm1.09-2.13-.84 1.53a.08.08 0 0 0 .02.1h.03l.96.22a.08.08 0 0 0 .07-.02.08.08 0 0 0 .03-.06l-.12-1.74-.02-.05a.08.08 0 0 0-.13.02Z" fill="#010101"/></svg>