<?xml version='1.0' encoding='utf-8'?>
<!-- by TradeStack -->
<svg width="56" height="56" viewBox="0 0 56 56" xmlns="http://www.w3.org/2000/svg"><path fill="#F0F3FA" d="M0 0h56v56H0z" /><path d="M44.2 34H40V22h4.24c1.19 0 2.21.24 3.07.72a4.83 4.83 0 0 1 1.99 2.06c.47.9.7 1.96.7 3.2a6.9 6.9 0 0 1-.7 3.23 4.84 4.84 0 0 1-2 2.07c-.86.48-1.9.72-3.1.72Zm-1.7-2h1.6c2.31 0 3.4-1.94 3.4-4.01S46.4 24 44.1 24h-1.6v8ZM29.6 34h-2.74l4.18-12h3.3l4.16 12h-2.74l-3.03-9.26h-.1L29.6 34Zm-.14-5h6.47v2h-6.47v-2ZM18 34V22h2.64v10H26v2h-8ZM10.2 34H6V22h4.24c1.19 0 2.21.24 3.07.72a4.83 4.83 0 0 1 1.99 2.06c.47.9.7 1.96.7 3.2a6.9 6.9 0 0 1-.7 3.23 4.84 4.84 0 0 1-2 2.07c-.86.48-1.9.72-3.1.72Zm-1.7-2h1.6c2.31 0 3.4-1.94 3.4-4.01S12.4 24 10.1 24H8.5v8Z" /></svg>