<?xml version='1.0' encoding='utf-8'?>
<!-- by TradeStack -->
<svg width="56" height="56" viewBox="0 0 56 56" xmlns="http://www.w3.org/2000/svg"><path fill="#17343C" d="M0 0h56v56H0z" /><path d="m26.8 25-.73-.32-6.19-5.51-.38-.7v-4.13l.38-.34h1.55l6.18 5.86h.78L34.57 14h1.55l.38.34v4.14l-.38.69-6.19 5.5-.72.33a3.4 3.4 0 0 0-1.2-.16c-.57 0-1.04.07-1.21.16ZM25 29.2l-.32.73-5.51 6.19-.7.38h-4.13l-.34-.38v-1.55l5.86-6.19v-.77L14 21.43v-1.55l.34-.38h4.14l.69.38 5.5 6.19.33.72a3.4 3.4 0 0 0-.16 1.21c0 .56.07 1.04.16 1.2Zm17-7.77v-1.55l-.34-.38h-4.14l-.69.38-5.5 6.19-.33.72c.09.17.16.65.16 1.21a3.4 3.4 0 0 1-.16 1.2l.32.73 5.51 6.19.7.38h4.13l.34-.38v-1.55l-5.86-6.19v-.77L42 21.43ZM29.06 31l.72.32 6.19 5.51.38.7v4.13l-.38.34h-1.55l-6.18-5.86h-.77L21.28 42h-1.55l-.38-.34v-4.14l.38-.69 6.19-5.5.72-.33c.17.09.65.16 1.21.16.56 0 1.04-.07 1.2-.16Z" fill="#FC6317" /></svg>