<!-- by TradeStack --><svg width="56" height="56" viewBox="0 0 56 56" xmlns="http://www.w3.org/2000/svg"><path fill="#F0F3FA" d="M0 0h56v56H0z"/><path fill-rule="evenodd" d="m36.1 23.15-11.34 4.68L18 30.6c-.62.26-1.29.39-2 .39H9.56c-.45 0-.67-.44-.52-.85l5.04-13.97c.13-.35.26-.6.41-.76.27-.28.6-.42.99-.42h6.33a4.36 4.36 0 0 1 2.36.64l11.89 6.74c.35.2.5.57.03.77Zm-20.25 2.87 1.2-3.33 1.08-2.95c.09-.26.19-.46.3-.6.23-.3.52-.48.88-.52.98-.12 1.9.05 2.75.51l5.56 2.98c.13.07.23.17.3.3v.08a.5.5 0 0 1-.3.37l-8.4 3.59c-.62.26-1.26.46-1.9.48l-.85.02a.71.71 0 0 1-.45-.11c-.28-.22-.29-.5-.17-.82Zm22.12 8.12c-.41.16-.72.5-.9 1l-.35.97-.35.97c-.28.75-.92.95-1.65.92h-1.57c-.37-.1-.69-.27-.97-.49l-5.19-3.91c-.23-.18-.38-.36-.3-.68a.48.48 0 0 1 .29-.34L32 30.34c2.16-.95 4.34-1.91 6.34-2.81a5.3 5.3 0 0 1 2.22-.53h4.57c.62 0 1.06-.06 1.3-.7l.53-1.44c.14-.39-.08-.86-.5-.86h-7.67c-.82 0-1.52.06-2.22.36l-17.83 7.63c-.41.18-.57.68-.2 1l7.99 7.06c.68.6 1.22.95 2.06.95h11.06c.79 0 1.22-.44 1.49-1.17l.5-1.4 1.33-3.62c.1-.27-.04-.6-.28-.72-.12-.06-.3-.1-.52-.09a92.5 92.5 0 0 1-2.99 0c-.56-.01-.96.04-1.21.14Z"/></svg>