<?xml version='1.0' encoding='utf-8'?>
<!-- by TradeStack -->
<svg width="56" height="56" viewBox="0 0 56 56" fill="none" xmlns="http://www.w3.org/2000/svg">
<rect width="56" height="56" fill="#F0F3FA" />
<path d="M13.1002 14L31.7762 14C37.1293 13.9971 41.9874 15.5047 43.8748 20.8962C43.9268 21.0472 43.8708 21.1189 43.7067 21.1111C35.9171 20.7567 28.5875 22.3186 21.718 25.7967C21.662 25.8246 21.5992 25.8369 21.5367 25.8323C21.4742 25.8276 21.4143 25.8063 21.3639 25.7705C17.4211 22.9877 13.7453 18.8628 13.0011 14.1133C12.999 14.0991 12.9999 14.0847 13.0039 14.0709C13.0079 14.0572 13.0148 14.0445 13.0242 14.0337C13.0337 14.0229 13.0453 14.0143 13.0585 14.0085C13.0716 14.0027 13.0858 13.9998 13.1002 14Z" fill="#00AE3F" />
<path d="M44.2344 33.1838C37.3869 33.1257 30.4014 31.3915 24.4872 28.0363C24.4676 28.0258 24.4515 28.0103 24.4404 27.9916C24.4292 27.9728 24.4235 27.9514 24.4238 27.9295C24.4241 27.9076 24.4304 27.8861 24.4421 27.8671C24.4538 27.8481 24.4703 27.8323 24.4902 27.8214C30.6015 24.504 37.1789 22.8037 44.2224 22.7204C44.3344 22.7185 44.4024 22.7708 44.4264 22.8773C45.1906 26.2663 45.1906 29.6534 44.4264 33.0385C44.4173 33.0804 44.3932 33.1178 44.3581 33.1443C44.323 33.1709 44.2792 33.1848 44.2344 33.1838Z" fill="#7AC200" />
<path d="M41.2461 34.7755C42.0663 34.7774 42.8685 34.7871 43.6527 34.8045C43.6867 34.8054 43.7201 34.8141 43.7501 34.8298C43.7801 34.8456 43.8057 34.8679 43.8251 34.8951C43.8444 34.9223 43.8568 34.9536 43.8612 34.9863C43.8657 35.019 43.8621 35.0523 43.8507 35.0834C41.9783 40.2308 37.4803 41.9448 32.2052 42L13.2741 41.9999C13.0881 42.0018 13.0081 41.9127 13.0341 41.7326C13.7302 36.9803 17.5531 32.8554 21.3939 30.1016C21.4759 30.0435 21.5619 30.0377 21.6519 30.0841C27.7632 33.2001 34.2946 34.7639 41.2461 34.7755Z" fill="#008452" />
</svg>