<!-- by TradeStack --><svg viewBox="0 0 56 56" xmlns="http://www.w3.org/2000/svg"><path fill="#F0F3FA" d="M0 0h56v56H0z"/><path d="M32.37 23 28.5 11l-3.75 12H12l9.94 8.4-.46 1.49A44.2 44.2 0 0 1 35 23h-2.63Z" fill="#2D6DB9"/><path d="M39.14 23C28.97 26.66 22.42 34.04 20.2 36.96 18 39.87 18 44 18 44c6.7-11.36 14.65-14.25 18.54-14L45 23h-5.86Z" fill="#C10000"/><path d="M34.8 31.74c-3.19.45-8.3 2.71-13.24 9.57l7.46-4.56a17.01 17.01 0 0 1 6.65-2.2l-.87-2.81Z" fill="#2D6DB9"/><path d="M36.18 36.18c-1.48.07-3.42.5-5.7 1.66L38.62 44l-2.45-7.82Z" fill="#C2241A"/><path d="M15.14 21.94A14.45 14.45 0 0 1 27 13.07v-1.04a15.48 15.48 0 0 0-12.85 9.63l1 .28ZM14.14 25.94l-1-.28c-.08.58-.1 1.17-.1 1.77 0 4.85 1.91 8.92 5.41 11.76l.58-.86c-3.22-2.65-4.97-6.4-4.97-10.9 0-.5.03-1 .08-1.49ZM23.32 40.9l-.6.88c1.9.83 3.57 1.19 5.78 1.19a12 12 0 0 0 5.8-1.2l-.56-.88c-1.83.84-3.1 1.05-5.24 1.05-2 0-3.46-.3-5.18-1.03Z" fill="#899798"/></svg>