<!-- by TradeStack --><svg viewBox="0 0 56 56" xmlns="http://www.w3.org/2000/svg"><path fill="#F0F3FA" d="M0 0h56v56H0z"/><path fill-rule="evenodd" d="M4 30v-6h4.15c2.12 0 3.85 1.8 3.85 4s-1.73 4-3.85 4H6v-2h4v-4H6v4H4Zm11-6h-2v2h2v-2Zm0 3h-2v5h2v-5Zm35-3h2v2h-2v-2Zm0 3h2v5h-2v-5Zm-33.1-1v-2h3.2c1.6 0 2.9 1.35 2.9 3v5h-4.65A2.4 2.4 0 0 1 16 29.56v-.33C16 27.9 17.05 27 18.35 27H21v-1h-4.1Zm4.1 3h-3v1h3v-1Zm3 3v-4.76c0-1.8 1.14-3.24 2.75-3.24h.45c1.62 0 2.8 1.45 2.8 3.24V32h-2v-6h-2v6h-2Zm16 0v-4.76c0-1.8.89-3.24 2.33-3.24h.7c.57 0 1.08.23 1.48.61.37-.38.85-.61 1.42-.61h.74C48.1 24 49 25.45 49 27.24V32h-2v-6h-1.5v6h-2v-6H42v6h-2Zm-1-4a4 4 0 1 1-8 0 4 4 0 0 1 8 0Zm-6-2h4v4h-4v-4Z"/></svg>