<!-- by TradeStack --><svg width="56" height="56" viewBox="0 0 56 56" xmlns="http://www.w3.org/2000/svg"><path fill="#1F5AA3" d="M0 0h56v56H0z"/><path d="M9.99 25H6.16L4 31h3.84c3.05 0 3.71-1.43 4.28-3 .56-1.57.92-3-2.13-3Zm-2.42 5h-.52l1.34-4h.53c1.02 0 1.06.38.48 2-.59 1.62-.8 2-1.83 2Zm25.14-3.22.05-.14c.13-.34 0-.64-.52-.64-.57 0-.93.27-1.03.53-.18.48.54.66 1.36.87 1.12.27 2.44.6 1.99 1.82-.47 1.23-1.95 1.78-4.3 1.78-2.2 0-3.27-.43-2.83-1.63l.14-.37h2.58l-.11.3c-.19.5.1.7.62.7.54 0 .95-.26 1.07-.58.18-.48-.52-.66-1.32-.86-1.07-.27-2.32-.59-1.88-1.76.44-1.16 1.78-1.8 4.03-1.8 2.32 0 3.11.54 2.64 1.78h-2.5ZM41.89 25H38.5l-4.7 6h2.86l.65-1h2.14l-.11 1h2.86l-.32-6Zm-2.15 1.23h.03l-.2 2.77h-1.73l1.9-2.77ZM47.73 25h-3l-2.2 6h2.52l1.35-3.7h.03l.44 3.7h2.94L52 25h-2.51l-1.35 3.7h-.03l-.38-3.7Zm-20.06 3c.81-2.16.2-3-2.54-3-2.73 0-3.98.84-4.8 3-.81 2.16-.2 3 2.54 3 2.73 0 3.98-.84 4.8-3Zm-2.76 0c-.6 1.56-.84 2-1.66 2s-.74-.44-.16-2c.6-1.56.84-2 1.66-2s.75.44.16 2Zm-7.47-3c2.73 0 3.35.84 2.53 3-.82 2.16-2.07 3-4.8 3s-3.35-.84-2.53-3c.81-2.16 2.07-3 4.8-3Zm-1.88 5c.82 0 1.06-.44 1.65-2 .59-1.56.66-2-.16-2-.82 0-1.06.44-1.65 2-.59 1.56-.66 2 .16 2Z" fill="#fff"/></svg>