<!-- by TradeStack --><svg width="56" height="56" viewBox="0 0 56 56" xmlns="http://www.w3.org/2000/svg"><path fill="#F0F3FA" d="M0 0h56v56H0z"/><path d="M37 25h7v5h-7v-5Zm4.08 1.59-.47-1.09-.48 1.1-1.12-.31.54 1.06-.94.72 1.15.23-.03 1.2.88-.78.9.78-.04-1.2 1.14-.24-.93-.71.54-1.06-1.14.3Z" fill="#C42A2A"/><path d="M50 32h2v-9h-2v5l-3-5h-2v9h2v-5l3 5ZM9 32h2v-9H9v5l-3-5H4v9h2v-5l3 5Zm22-8h1c1.5 0 2 2 2 3.5 0 2-1.5 3.5-2 3.5h-1v-7Zm-2 8h3.55C35 32 36 29.5 36 27.5c.1-2.26-1-4.5-3.5-4.5H29v9Zm-6-8h1c1 0 2 0 2 1.5S24.9 27 24 27h-1v-3Zm2-1h-4v9h2v-4h.8l2 4H28l-2-4c.97-.33 2-.5 2-2.5s-1.5-2.44-3-2.5Zm-9 1c1.42 0 2 2 2 3.5s-.5 3.5-2 3.5c-1.31 0-2-1.5-2-3.5 0-1.5.5-3.5 2-3.5Zm-4 3.5c-.02 2.43 1.5 4.5 4 4.5s4-2 4-4.5-1.44-4.44-3.97-4.5c-2.51-.06-4.01 2.1-4.03 4.5ZM37 24h7v-1h-7v1Zm0 7h7v1h-7v-1Z"/></svg>