<!-- by TradeStack --><svg width="56" height="56" viewBox="0 0 56 56" xmlns="http://www.w3.org/2000/svg"><path fill="#F0F3FA" d="M0 0h56v56H0z"/><path d="M22 15.51V26.5c0-1.67-2.49-2.5-3.5-2.5H14v5.05l-1.67-5.73c-1.21-3.75 1.19-5.38 2.54-5.73L22 15.51Z" fill="#75A835"/><path d="M16 30v-4h2c.67 0 2 .4 2 2s-1.33 2-2 2h-2ZM18.5 32h-3.56l2.97 9.03c1.52 3.64 5.07 3.12 6.6 2.6L34 41v-9H22v-2c0 1.25-2.5 2-3.5 2Z" fill="#75A835"/><path d="M24 15v9h15.2c2.03 0 2.5.72 2.54.88l-2.53-8.85c-1.22-4.58-5.58-4.34-7.6-3.64L24 15ZM24 27v-1h5v4h-5v-1h3v-2h-3ZM31 27v-1h5v4h-5v-1h3v-2h-3ZM38 27v-1h2c.33 0 1 .1 1 .5s-.67.5-1 .5h-2ZM40 29h-2v3h-2v8.5l4.22-1.56a4.83 4.83 0 0 0 3.55-6.24l-1.52-5.21C42.25 28.32 41 29 40 29Z" fill="#8CC63F"/></svg>