<?xml version='1.0' encoding='utf-8'?>
<!-- by TradeStack -->
<svg width="56" height="56" viewBox="0 0 56 56" xmlns="http://www.w3.org/2000/svg"><path fill="url(#a)" d="M0 0h56v56H0z" /><path d="M37.03 24.2c.95-1.48 2.98-2.2 4.7-2.2C45.7 22 48 25.55 48 29.22c0 3.68-2.29 7.27-6.26 7.27-1.71 0-3.75-.72-4.71-2.17V43H33V22h4.03v2.2ZM44 29.24a3.62 3.62 0 0 0-3.56-3.48 3.49 3.49 0 0 0 0 6.97A3.6 3.6 0 0 0 44 29.24ZM30 22v14h-4V22h4ZM30.5 18.5a2.5 2.5 0 1 1-5 0 2.5 2.5 0 0 1 5 0ZM8 29.07c0-3.65 2.42-6.88 6.26-6.88 1.66 0 3.76.66 4.74 2.04V18h4v18h-4v-2.12c-.93 1.47-3.06 2.12-4.74 2.12C10.4 36 8 32.72 8 29.07Zm11 .02c0-1.79-1.6-3.32-3.46-3.32-1.87 0-3.54 1.52-3.54 3.32 0 1.82 1.64 3.32 3.54 3.32A3.45 3.45 0 0 0 19 29.1Z" fill="#fff" /><defs><linearGradient id="a" x1="10.42" y1="9.71" x2="68.15" y2="76.02" gradientUnits="userSpaceOnUse"><stop stop-color="#1A1E21" /><stop offset="1" stop-color="#06060A" /></linearGradient></defs></svg>