<!-- by TradeStack --><svg width="56" height="56" viewBox="0 0 56 56" xmlns="http://www.w3.org/2000/svg"><path fill="#F0F3FA" d="M0 0h56v56H0z"/><path d="M27.51 14a7.7 7.7 0 0 1 8.15 7c-2.6-2.54-6.33-3-8.97-3-1.18 0-2.15.09-2.69.19 10.44 1.7 13.87 7.7 14 8.3.1.59-.96.55-1.24.46-.27-.08-1.1-3.45-3.63-3.45-1.86 0-3.64 1.55-7 1.55-3.96 0-7.32-5.93-7.12-7.62.51-.8 5.26-3.43 8.5-3.43ZM4 36v-.44l.12-.02c.94-.1.88-.66.88-1.52v-6.13c0-.77.17-1.35-.8-1.43l-.2-.02V26h4.48c3.2 0 5.52 1.52 5.52 5.07C14 34.63 11.65 36 8.48 36H4Zm3-7.87v5.8c0 1.2.59 1.45 1.73 1.45 2.64 0 3.27-1.7 3.27-4.45 0-2.49-.68-4.36-3.28-4.36-.37 0-1.29.05-1.53.4-.15.23-.19.87-.19 1.16ZM14.52 29l-.17-.3c.51-.3.9-.7.94-1.27-.17.13-.29.2-.52.2a.75.75 0 0 1-.77-.78c0-.46.4-.85.92-.85.69 0 1.08.6 1.08 1.16 0 .78-.68 1.56-1.48 1.84ZM23.38 26.24l.9 2.53-.47.17c-.84-1.26-2.03-2.24-3.71-2.24-.94 0-2.1.46-2.1 1.48 0 1.12 1.27 1.4 2.17 1.61l1.52.34c1.62.36 3.31.8 3.31 2.72 0 2.03-2.08 3.15-4.02 3.15a5.26 5.26 0 0 1-3.18-.95l-.29.71h-.54l-.97-3.2.55-.17c.77 1.54 2.35 2.91 4.26 2.91 1.3 0 2.19-.7 2.19-2.07 0-1.23-.61-1.44-1.65-1.7l-1.65-.37c-1.33-.33-3.7-.85-3.7-2.56 0-1.84 2.38-2.6 3.94-2.6.93 0 1.96.21 2.73.74l.18-.5h.53Z" fill="#FA392F"/><path d="m32.27 34.61 1.41-3.57c.09-.25.16-.5.16-.77 0-.62-.5-.84-1.06-.84V29H36v.43c-.93.16-1.24.78-1.57 1.6L32.46 36h-.95l-1.46-4.17-1.8 4.17h-.97l-1.92-5.44c-.25-.6-.5-1.1-1.36-1.13V29h3.48v.43c-.4.02-.88.02-.88.48 0 .22.07.45.14.65l1.46 4.12 1.54-3.67-.11-.26c-.32-.8-.38-1.17-1.37-1.32V29h3.3v.43c-.36.02-.84.02-.84.48 0 .22.07.45.13.65l1.42 4.05Z" fill="#FA392F"/><path d="M38 29v5.16c0 .87.1 1.4 1 1.4V36h-3.5v-.43c.94 0 1-.51 1-1.4v-3.02c0-.8.18-1.34-.76-1.4h-.24v-.43l2.02-.32H38ZM44.09 29.14l.43 2.13h-.43a2.68 2.68 0 0 0-2.35-1.7c-.6 0-1.24.27-1.24 1 0 .69.62.83 1.12.95 1.3.33 3.38.5 3.38 2.24 0 1.56-1.5 2.24-2.8 2.24-.8 0-1.52-.2-2.15-.7l-.15.59h-.43L39 33.4h.47c.38 1.25 1.48 2 2.72 2 .69 0 1.37-.36 1.37-1.22 0-1.05-1.41-1.14-2.18-1.36-1-.26-2.18-.55-2.18-1.86 0-1.3 1.4-1.97 2.47-1.97.66 0 1.37.2 1.9.63l.14-.5h.38ZM51.09 29.14l.43 2.13h-.43a2.68 2.68 0 0 0-2.35-1.7c-.6 0-1.24.27-1.24 1 0 .69.62.83 1.12.95 1.3.33 3.38.5 3.38 2.24 0 1.56-1.5 2.24-2.8 2.24-.8 0-1.52-.2-2.15-.7l-.15.59h-.43L46 33.4h.47c.38 1.25 1.48 2 2.72 2 .69 0 1.37-.36 1.37-1.22 0-1.05-1.41-1.14-2.18-1.36-1-.26-2.18-.55-2.18-1.86 0-1.3 1.4-1.97 2.47-1.97.66 0 1.37.2 1.9.63l.14-.5h.38Z" fill="#FA392F"/></svg>