<!-- by TradeStack --><svg width="56" height="56" viewBox="0 0 56 56" xmlns="http://www.w3.org/2000/svg"><path fill="#173F36" d="M0 0h56v56H0z"/><path fill-rule="evenodd" d="m28.67 29.41.48.73c.13.2.09.25-.13.15l-.6-.26a.7.7 0 0 0-.3-.06.85.85 0 0 0-.51.2c-.09.06-.08.11.03.14.4.1.79.27 1.17.48.3.15.28.26-.05.3-.3.04-.58.13-.85.26a.52.52 0 0 0-.27.31l-.05.16c-.04.11 0 .15.11.1a5.2 5.2 0 0 1 1.49-.32c.14 0 .19.06.15.2l-.32 1c-.06.18 0 .23.17.13.35-.2.57-.55.66-1.02.06-.27.16-.3.3-.06l.46.76c.04.06.1.09.17.07.03 0 .06-.02.09-.04.07-.09.1-.19.06-.3l-.24-.71a.34.34 0 0 1 .07-.35c.18-.22.46-.29.81-.2.15.04.22.13.2.29-.06.92.21 1.67.82 2.26.58.55 1.35.82 2.3.8a5.3 5.3 0 0 0 2.4-.63c1.2-.63 2.5-1.33 3.88-2.1 2.28-1.25 3.65-1.28 4.12-.07.35.9.06 1.71-.87 2.45-.4.31-.83.54-1.3.66-.5.14-.95.15-1.35.03-1-.29-1.98-.33-2.95-.12-.72.15-1.64.51-2.76 1.07-.22.1-.56.18-1 .21-.17.01-.3.02-.38.04-.2.02-.2.08-.03.17.41.23.87.34 1.38.33.07 0 .12.04.15.1.02.07.01.13-.04.18a1.8 1.8 0 0 1-1.21.46c-.46.02-.48.1-.03.25.7.23 1.43.23 2.17 0 .13-.03.19.02.18.15 0 .14-.06.26-.18.36a1.7 1.7 0 0 1-.5.3c-.34.15-.32.24.04.28a2.3 2.3 0 0 0 1.94-.65c.48-.45.65-.35.53.3-.04.2-.15.4-.32.6-.13.15-.1.2.1.14a3 3 0 0 0 1.81-1.4.35.35 0 0 1 .32-.17c.18 0 .27.1.27.28 0 .12-.01.24-.03.35-.07.39.05.46.36.23.52-.38.89-.87 1.1-1.46.11-.31.32-.5.63-.58 2.1-.54 3.51-1.44 4.22-2.7a3.19 3.19 0 0 0 0-3.29 3.08 3.08 0 0 0-2.77-1.73c-.27-.01-.44-.14-.5-.4-.03-.12-.1-.17-.23-.13a7 7 0 0 0-1.39.52.64.64 0 0 1-.36.07c-.21-.02-.31-.15-.3-.39.02-.18-.06-.23-.21-.13-.54.34-1.05.73-1.52 1.18-.09.1-.2.11-.31.06a.68.68 0 0 1-.31-.25c-.1-.15-.22-.16-.35-.04l-.52.49c-1.02.99-1.79 1.55-2.3 1.69-.44.12-.73 0-.88-.35-.14-.34-.09-.67.17-1 .63-.8 1.18-1.68 1.63-2.6.05-.1.13-.15.25-.13.44.05.8 0 1.09-.13a3.89 3.89 0 0 0 .9-.76.82.82 0 0 1 .99-.17c.32.14.64.2.95.2.39-.01.4-.1.06-.28l-.77-.4c-.13-.06-.15-.15-.04-.26L42.04 24c.08-.09.07-.16-.03-.21a.28.28 0 0 0-.24-.02 2 2 0 0 0-.77.48c-.33.33-.43.27-.3-.18l.3-1.1c.04-.14-.01-.19-.14-.12l-.24.1a.16.16 0 0 0-.09.09l-.45 1.07c-.06.14-.1.14-.14-.02l-.25-1.12c-.06-.27-.14-.27-.24-.02-.13.35-.14.74-.01 1.18.05.2 0 .24-.17.12a1.86 1.86 0 0 1-.53-.6c-.02-.03-.05-.04-.09-.02l-.15.08c-.03.01-.04.04-.02.07l.58 1.14a.4.4 0 0 1 0 .4c-.09.14-.2.2-.35.21h-.63c-.15 0-.23-.07-.22-.23.07-1.4-.32-2.5-1.19-3.3a4.88 4.88 0 0 0-3.26-1.2c-1.8-.08-3.5.5-5.09 1.76-.1.09-.22.1-.34.03l-.2-.12c-.13-.08-.24-.05-.32.08-.3.51-.62 1.04-.98 1.58-.23.33-.51.42-.85.26-.1-.05-.18-.02-.23.08-.24.44-.46.92-.65 1.42-.16.4-.4.47-.74.22a.28.28 0 0 0-.26-.04.28.28 0 0 0-.18.17l-.64 1.73c-.05.13-.14.18-.28.16a.36.36 0 0 1-.27-.22c-.05-.1-.12-.12-.2-.04-.2.18-.35.4-.46.64A7.97 7.97 0 0 1 20 31.03c-.89.86-1.76 1.18-2.62.98-.63-.16-.92-.62-.87-1.4.04-.7.28-1.25.71-1.66a.22.22 0 0 1 .26-.04c.45.22.79.08 1.01-.43.24-.53.45-1.06.64-1.57.13-.35.3-.37.5-.06l.06.08c.1.17.18.15.23-.04l.5-1.82c.02-.1.08-.16.18-.18.1-.03.18 0 .24.07.06.06.12.1.19.13.1.04.17 0 .2-.1.17-.55.2-1.12.07-1.72a.2.2 0 0 1 .05-.2.2.2 0 0 1 .2-.06l.32.05c.17.03.23-.04.17-.2l-.24-.63c-.04-.13 0-.2.13-.2l.34-.01c.95-.03 1.67-.1 2.15-.2.84-.2 1.36-.54 1.56-1.05.07-.18.02-.22-.14-.13a5 5 0 0 1-2.89.45c-.19-.02-.2-.08-.03-.17.23-.12.47-.32.72-.58a.07.07 0 0 0 .02-.07l-.04-.09c-.01-.04-.04-.05-.08-.04-.86.36-1.66.49-2.42.4-.05 0-.08-.03-.08-.08 0-.07.04-.12.1-.13l.56-.1a8.72 8.72 0 0 0 1.6-.42c.58-.24.96-.57 1.15-1.01.14-.32.07-.38-.22-.18a4.4 4.4 0 0 1-2.72.68c-.14 0-.16-.05-.06-.15a4.39 4.39 0 0 1 .73-.6l-.05-.1c-.06-.1-.13-.11-.23-.06-1.78.97-3.86.77-6.24-.6a1.6 1.6 0 0 0-1-.25 3 3 0 0 0-.87.28c-.42.18-.75.29-1 .32-.77.1-1.27-.19-1.5-.87-.09-.27-.22-.3-.4-.08a.22.22 0 0 0-.05.1c-.1.37-.23.38-.4.03a.66.66 0 0 0-.24-.28c-.13-.07-.23-.05-.31.08-.12.2-.28.37-.47.49-.12.07-.12.14.01.21.42.22.67.59.76 1.1.02.18.1.2.22.08a.43.43 0 0 1 .15-.1.37.37 0 0 1 .34.02c.96.54 2.02.77 3.16.7.18-.02.34.03.48.16.14.12.22.28.23.46.03.45-.16.7-.57.75a.4.4 0 0 1-.27-.06 5 5 0 0 0-1.26-.66c-.36-.1-.8-.08-1.3.05a.43.43 0 0 1-.33-.04c-.17-.1-.32-.22-.44-.37-.13-.17-.22-.15-.27.05-.04.15-.13.23-.27.24a.23.23 0 0 1-.24-.14.43.43 0 0 0-.18-.2.14.14 0 0 0-.15 0 .14.14 0 0 0-.07.14c.07.53.38.96.92 1.3.32.2.55.4.7.57.11.12.18.1.2-.06.01-.1 0-.19-.01-.28-.03-.15.03-.2.18-.18.77.12 1.63.57 2.58 1.34l.64.5c.12.1.23.08.33-.02.3-.33.62-.32.97.04.06.06.13.08.21.06a.21.21 0 0 0 .17-.14.41.41 0 0 1 .15-.19c.16-.1.27-.07.34.11.2.47.17.98-.06 1.54-.2.48-.5.9-.92 1.28l-.26.23a22.09 22.09 0 0 0-2.3 2.3 6.53 6.53 0 0 0-1.42 2.89c-.06.3-.21.36-.46.18-.17-.12-.3-.28-.4-.5a.97.97 0 0 1-.03-.76l.37-1a.22.22 0 0 0-.02-.2c-.02-.03-.05-.04-.1-.04-.1 0-.19.06-.24.16l-.2.42c-.22.44-.37.42-.44-.06a2.21 2.21 0 0 0-.39-.95c-.04-.07-.1-.09-.18-.07l-.1.02c-.05.02-.07.06-.05.12.15.35.24.72.26 1.13.01.17-.05.2-.19.1l-.94-.7a.14.14 0 0 0-.15-.03l-.2.08c-.07.02-.08.07-.03.12l1.03 1.06c.12.12.1.18-.08.17a3.08 3.08 0 0 0-1.25.17l-.03.13c-.02.07 0 .1.07.1l1.4.17a.2.2 0 0 1 .17.12.2.2 0 0 1 0 .2l-.4.67c-.18.29-.11.38.2.27a.8.8 0 0 0 .46-.4c.05-.1.13-.14.23-.13.1.01.17.07.2.17.36 1.08.93 1.63 1.72 1.65a.4.4 0 0 1 .33.2 4.8 4.8 0 0 0 3.93 2.2c1.6.1 3.06-.36 4.39-1.36a.54.54 0 0 1 .52-.09c.19.06.31.19.37.38.18.55.1.97-.25 1.26a.37.37 0 0 1-.23.09l-.94.03a.44.44 0 0 0-.38.21l-.08.14a.11.11 0 0 0-.01.12c.02.04.06.06.1.06l1.05.01c.13 0 .2.07.2.2.02.5 0 .98-.06 1.46-.07.52.05.57.37.15.18-.25.27-.55.27-.9 0-.34.1-.37.3-.11l.74.97c.08.1.14.1.18-.03l.06-.15c.04-.1.03-.2-.02-.3l-.4-.72c-.08-.13-.04-.18.1-.14.35.1.68.24 1 .44.04.02.08.02.13 0 .01 0 .02 0 .02-.02.07-.1.07-.2 0-.28a2.14 2.14 0 0 0-.89-.63c-.18-.07-.18-.15 0-.23.3-.15.63-.24 1-.3.04 0 .07-.02.1-.05a.11.11 0 0 0 .01-.1c0-.06-.04-.1-.1-.12a2.13 2.13 0 0 0-1.1.02c-.06.02-.11 0-.15-.05a.14.14 0 0 1-.02-.16c.38-.76.4-1.54.05-2.32a.36.36 0 0 1 .07-.42c1.84-1.96 3.62-3.82 5.35-5.59 2.86-2.92 4.84-3.75 5.94-2.49.37.42.34 1.13-.08 2.15a4.64 4.64 0 0 1-3.96 2.95.35.35 0 0 1-.28-.13l-.7-.83c-.06-.06-.12-.07-.2-.03l-.07.05c-.08.06-.1.13-.05.21ZM14.32 18.55l.65.03a.1.1 0 0 0 .1-.06.1.1 0 0 0 0-.1.52.52 0 0 0-.4-.26.49.49 0 0 0-.43.17c-.13.14-.1.21.08.22Z" fill="#fff"/></svg>