<!-- by TradeStack --><svg width="56" height="56" viewBox="0 0 56 56" xmlns="http://www.w3.org/2000/svg"><path fill="#323232" d="M0 0h56v56H0z"/><path fill-rule="evenodd" d="M38 25.77V11.26a.27.27 0 0 0-.27-.26h-6.54c-.15 0-.19.12-.19.26v12.48c0 .15-.2.26-.36.26H14.27a.27.27 0 0 0-.27.26V37.2c0 1.58 1.35 2.81 3.02 2.81h13.62c.15 0 .36.17.36.31v4.43c0 .14.04.26.19.26h6.54c.15 0 .27-.12.27-.26v-6.48a.27.27 0 0 0-.27-.26h-4.47a.25.25 0 0 1-.26-.26V26.3c0-.14.1-.29.26-.29h4.47c.15 0 .27-.08.27-.23ZM33.25 13c-.14 0-.25.1-.25.24v10.52c0 .13.11.24.25.24h2.5c.14 0 .25-.1.25-.24V13.24a.24.24 0 0 0-.25-.24h-2.5ZM33 40.23c0-.13.11-.23.25-.23h2.5c.14 0 .25.1.25.23v2.54c0 .13-.11.23-.25.23h-2.5c-.14 0-.25-.1-.25-.23v-2.54ZM16.27 26a.27.27 0 0 0-.27.26v10.42c0 .73.62 1.32 1.38 1.32h13.35c.15 0 .27-.12.27-.26V26.26a.27.27 0 0 0-.27-.26H16.27Z" fill="#fff"/></svg>