<!-- by TradeStack --><svg xmlns="http://www.w3.org/2000/svg" width="56" height="56" viewBox="0 0 56 56"><path fill="#F0F3FA" d="M0 0h56v56H0z"/><path d="M25 18h-7v5.63a8.85 8.85 0 0 0-3.43-.63C10.33 23 7 26.62 7 31.07A7.73 7.73 0 0 0 14.69 39c1.63 0 3.03-.15 4.04-.9l.3.9H25V18Zm-2 19h-3l-.38-.84c-.28-.52-.46-.52-.66-.52-.23 0-.45.14-.65.33-.98.9-2.14 1.03-3.62 1.03A5.64 5.64 0 0 1 9 31.07c0-3.95 3.11-6.71 7.33-5.94a6.1 6.1 0 0 1 1.97.6c.33.21.54.29.87.27 0 0 .83-.01.83-.73V20h3v17Z" fill="#F46329"/><path d="M16 27c-2.28 0-4 1.72-4 4 0 2.24 1.76 4 4 4s4-1.76 4-4-1.76-4-4-4Zm0 6c-1.3 0-2-1-2-2 0-1.03.7-2 2-2 1.13 0 2 .82 2 2 0 1-.7 2-2 2Z" fill="#F46329"/><path d="M47.03 39H26.96a.98.98 0 0 1-.96-1c0-.55.43-1 .96-1h20.07c.54 0 .97.45.97 1s-.43 1-.97 1Z" fill="#3BAC49"/><path d="M44.52 29H28.54a2.54 2.54 0 0 1-.88-4.93 4.1 4.1 0 0 1 3.74-3.25 5.94 5.94 0 0 1 8-3.31 5.96 5.96 0 0 1 2.46 2.01h.15a3.48 3.48 0 0 1 3.37 2.62A3.5 3.5 0 0 1 48 25.52 3.48 3.48 0 0 1 44.52 29Zm-12.85-6.26c-1.19 0-2.15.96-2.16 2.15a.96.96 0 0 1-.97.95c-.33 0-.54.29-.54.62 0 .34.2.54.54.54h15.98c.41 0 .8-.1 1.1-.39.29-.29.38-.68.38-1.09 0-.86-.62-1.55-1.48-1.55a.96.96 0 0 1-.96-.97 1.55 1.55 0 0 0-1.94-1.5.97.97 0 0 1-1.08-.46 4.06 4.06 0 0 0-1.49-1.54 4.02 4.02 0 0 0-2.07-.5 4 4 0 0 0-2.52.8 4.03 4.03 0 0 0-1.42 2.24.96.96 0 0 1-1.08.73h-.05a1.87 1.87 0 0 0-.24-.03Z" fill="#1974BB"/></svg>