<?xml version='1.0' encoding='utf-8'?>
<!-- by TradeStack -->
<svg width="56" height="56" viewBox="0 0 56 56" xmlns="http://www.w3.org/2000/svg"><path fill="#F0F3FA" d="M0 0h56v56H0z" /><path d="M15 24h-4v13h8.31c4.74 0 8.41-1.83 8.95-6.75-1.42-.78-2.76-2-3.97-3.08l-.34-.3c.02.27.03.56.03.86 0 3.05-2.03 5.27-4.87 5.27H15v-9ZM33 31v6h4v-6h-4ZM37 24.62c-1.31 0-2.92-.23-4-.62v-5h15l-2 4h-9v1.62Z" fill="#23283C" /><path d="M21 23H8l2-4h13.18c4.32 0 8.32 7 11.82 7h12l-2 4H34c-5.06 0-9.76-7-13-7Z" fill="#3AB4C9" /></svg>