<!-- by TradeStack --><svg width="56" height="56" viewBox="0 0 56 56" xmlns="http://www.w3.org/2000/svg"><path fill="#F0F3FA" d="M0 0h56v56H0z"/><path d="M26.54 15c-5.5.68-6.65 6.28-6.53 9 7.09 0 8.95-4.15 8.99-6.22a4.1 4.1 0 0 1-4 1.04A5.98 5.98 0 0 1 26.55 15Z" fill="#F8AA00"/><path d="M39.2 12H42c-2.24 20.16-19.6 27.06-28 28V30c19.38-.62 24.87-12.33 25.2-18Z" fill="#F8AA00"/><path d="M35.3 12H38a15.68 15.68 0 0 1-8 12c4.43-4.74 5.38-9.98 5.3-12ZM14 41.27V44c5.32-1.43 10.68-5.18 12-7-5.03 2.78-10.08 4.35-12 4.27Z" fill="#016FBA"/><path d="M26 18c0-1.66 1.11-3 2.48-3H29c0 1.66-.83 3-2.2 3H26Z" fill="#F8AA00"/></svg>