<?xml version='1.0' encoding='utf-8'?>
<!-- by TradeStack -->
<svg width="56" height="56" viewBox="0 0 56 56" xmlns="http://www.w3.org/2000/svg"><path fill="#F0F3FA" d="M0 0h56v56H0z" /><path fill-rule="evenodd" d="M10.9 23H6.48L4 33h4.42c1.5 0 3.03-1.27 3.42-2.83l1.07-4.34c.39-1.56-.51-2.83-2-2.83Zm-.76 1.98H7.97l-1.5 6.04h2.17c.6 0 1.21-.5 1.37-1.13l.93-3.78c.16-.62-.2-1.13-.8-1.13Z" fill="#231815" /><path d="M17.36 23h-1.82l-1.43 6.32c-.46 2.03.6 3.68 2.39 3.68 1.78 0 3.6-1.65 4.06-3.68L22 23h-1.82l-1.52 6.7c-.2.88-1 1.6-1.77 1.6-.78 0-1.25-.72-1.05-1.6l1.52-6.7ZM29.97 26.38h-2.08c.27-1.11-.87-1.48-1.4-1.48-.53 0-1.12.04-1.29.74-.17.7.37 1.02 1.74 1.76s2.31 1.94 2.02 3.15c-.3 1.2-1.26 2.45-3.38 2.45-3.18 0-3.7-2.22-3.56-3.33H24c-.26 1.06.7 1.48 1.5 1.48.79 0 1.2-.42 1.3-.88.12-.46.1-.93-1.68-1.76-1.79-.83-2.18-2.13-1.96-3.06A3.53 3.53 0 0 1 26.68 23c3.04 0 3.46 2.25 3.29 3.38ZM45.41 23h2.07l1.17 5.53L49.98 23H52l-2.41 10h-2.02l-1.2-5.63L45.03 33H43l2.41-10ZM39.59 30.83h2.28L41.28 33H39l.59-2.17Z" fill="#231815" /><path d="M41.72 23H44l-2.03 7.45H39.7L41.72 23Z" fill="#E50045" /><path d="M32.5 23h2.1l-2.5 10H30l2.5-10ZM40 23h-2.47l-4.15 4.9L35 33h2.5l-1.63-5.1L40 23Z" fill="#231815" /></svg>