<?xml version='1.0' encoding='utf-8'?>
<!-- by TradeStack -->
<svg viewBox="0 0 56 56" xmlns="http://www.w3.org/2000/svg"><path d="M0 28a28 28 0 1156 0 28 28 0 01-56 0z" fill="#F0F3FA" /><path d="M34.91 32.25c-.59.43-1.63.53-2.24-.05-.35-.35-.45-.82-.16-1.24.35-.5 1.1-.57 1.66-.67.47-.07.9-.25 1.33-.46 0 .67.22 1.83-.59 2.42zm.91 1.75h2.21v-.36c-.53-.17-.53-.82-.53-1.29v-4.27c0-2.01-1.46-3.08-3.33-3.08-1.88 0-3.66.87-3.79 3h2.13c.11-.86.78-1.25 1.6-1.25.66 0 1.39.55 1.39 1.33 0 .7-.82.68-1.33.73-1.2.11-2.72.2-3.47 1.12a2.5 2.5 0 00-.27 2.83c.47.91 1.5 1.24 2.46 1.24 1.1 0 1.98-.22 2.72-1.03 0 .41.05.72.21 1.03zM4 22h4.59c6.93 0 6.96 12 0 12H4V22zm2 10h2.59c3.9 0 4-8 0-8H6v8z" fill="#017CC4" /><path d="M23 34h-2.21a2.1 2.1 0 01-.22-1.03c-.74.8-1.61 1.03-2.72 1.03-.96 0-1.98-.33-2.45-1.24a2.5 2.5 0 01.27-2.83c.7-.87 2.07-1 3.23-1.1l.23-.02.19-.02c.5-.04 1.15-.08 1.15-.71 0-.78-.73-1.33-1.39-1.33-.82 0-1.49.4-1.6 1.25h-2.13c.13-2.13 1.9-3 3.78-3s3.34 1.07 3.34 3.08v4.27c0 .47 0 1.12.53 1.29V34zm-5.36-1.8c.6.58 1.65.27 2.24-.16.68-.49.63-1.17.6-1.84l-.01-.37c-.43.2-.87.39-1.34.46l-.19.03c-.52.09-1.15.2-1.46.64-.29.42-.2.9.16 1.24zM28.5 32v2c-1.31.16-3.5.13-3.5-1.65V27h-1v-2h1v-2h2v2h2v2h-2v4.23c0 .8.68.78 1.29.77h.21zm14-8.2h.97l-.22.78h-.96l-.37 1.28h.96l-.21.78h-.96l-.48 1.8h-.91l.48-1.8h-.75l-.48 1.8h-.9l.48-1.8h-.96l.21-.78h.96l.37-1.28h-.96l.22-.78h.96l.48-1.8h.9l-.48 1.8h.75l.48-1.8h.9l-.47 1.8zm-1.49 2.06l.38-1.28h-.75l-.37 1.28H41zm10.67-.41c0 1.02-.55 1.84-1.44 2.32.32.1.59.26.75.41a3.3 3.3 0 01-.11 4.84c-.75.67-1.76.98-3.04.98-1.04 0-2.21-.27-2.93-1.08a3.85 3.85 0 01-.91-2.63h2.3c.08 1.06.53 1.9 1.7 1.9.48 0 .9-.15 1.23-.46.57-.55.68-1.74.16-2.37-.52-.62-1.55-.61-2.3-.61H47V27.2c.59 0 1.1-.05 1.37-.1a1.43 1.43 0 001.07-1.44c0-.42-.1-.78-.37-1.03-.54-.52-1.74-.53-2.24.05-.26.3-.42.74-.43 1.32h-2.13c.15-1.41.7-2.72 2.13-3.28a4.59 4.59 0 013.52.1 2.83 2.83 0 011.76 2.63z" fill="#017CC4" /></svg>