<?xml version='1.0' encoding='utf-8'?>
<!-- by TradeStack -->
<svg width="56" height="56" viewBox="0 0 56 56" xmlns="http://www.w3.org/2000/svg"><path fill="url(#af5kcq4km)" d="M0 0h56v56H0z" /><path d="M8 21h7.7c2.33 0 6.3 1.4 6.3 7s-3.97 7-6.3 7H8v-1h1l1-1V23l-1-1H8v-1Zm5 1v12h3c1 0 3-1.33 3-6s-2.25-6-3.75-6H13ZM41 21h-7v1h1l1 1v10l-1 1h-1v1h12.5l1.5-4h-.5L44 34h-5V23l1-1h1v-1ZM27 25h-3c0-3 2.77-4 4.15-4 1.39 0 4.35 0 4.35 3 0 2.44-3.65 5.19-5.5 6h4.5l1.5-1.5-1 3.5h-8v-1.5c4.43-3.42 5.5-5.98 5.5-7 0-.61-.24-1.89-1.35-1.89-1.1 0-1.15 1.22-1.15 1.83V25Z" fill="#fff" /><path d="M23 34.5v.5h8.3l.7-.5V34h-8.3l-.7.5Z" fill="#35E82A" /><defs><linearGradient id="af5kcq4km" x1="10.42" y1="9.71" x2="68.15" y2="76.02" gradientUnits="userSpaceOnUse"><stop stop-color="#1A1E21" /><stop offset="1" stop-color="#06060A" /></linearGradient></defs></svg>