<!-- by TradeStack --><svg width="56" height="56" viewBox="0 0 56 56" xmlns="http://www.w3.org/2000/svg"><path fill="url(#aw5m5je52)" d="M0 0h56v56H0z"/><path d="M28 42a14 14 0 1 0-7-1.87V29a1 1 0 1 1 2 0v12.82c0 .68-.67 1.16-1.3.9a16 16 0 1 1 5.18 1.24A.96.96 0 0 1 26 43V26a1 1 0 0 1 2 0v7h3a6 6 0 0 0 0-12H20.5a1 1 0 1 1 0-2H31a8 8 0 1 1 0 16h-3v7Z" fill="#FCFCFC"/><defs><linearGradient id="aw5m5je52" x1="10.42" y1="9.71" x2="68.15" y2="76.02" gradientUnits="userSpaceOnUse"><stop stop-color="#1A1E21"/><stop offset="1" stop-color="#06060A"/></linearGradient></defs></svg>