<!-- by TradeStack --><svg width="56" height="56" viewBox="0 0 56 56" fill="none" xmlns="http://www.w3.org/2000/svg">
<rect width="56" height="56" fill="#F0F3FA"/>
<path d="M7.00431 25.0961C6.82496 20.7651 12.1345 19.9132 15.5 20C19.4476 20.1018 21.4924 21.1574 24 23C23.5184 23.3892 21.2445 23.7427 19.9247 22.9239C17.9421 21.6943 16.4972 21.0205 14.1665 21C11.4397 20.976 9.36548 21.9011 9.0492 23.0012C9.01215 23.1294 8.99626 23.2531 9.00004 23.3722C9.05017 24.9546 12.4382 25.9681 15.8547 26C24.697 26.0825 31.7814 19.0264 40.6054 19.0001C45.9182 18.9842 48.6835 21.5802 48.9878 24.5777C49.0324 25.7861 48.3759 26.9795 47.3041 27.6384C48.3605 28.4075 49.0001 29.6418 48.9958 30.9027C49.1463 34.5395 45.2987 36 41.6193 36C37 36 34.7378 35.0101 32 33C32.4877 32.6108 34.7561 32.2573 36.076 33.075C38.1306 34.3482 39.595 35.0335 42 35C44.0729 34.9711 47 34.3769 47 32.5806C47 31.16 43.3995 30.0267 39.9246 30C31.0823 29.932 23.8529 37.1024 15 36.9989C9.84349 36.9387 7.30968 34.3739 7.011 31.4205C6.98854 30.8171 7.13165 30.2185 7.4264 29.6829C7.72115 29.1473 8.15752 28.6931 8.69297 28.3644C7.63707 27.594 6.99769 26.3597 7.00125 25.0984M46.6877 27.2382C47.1518 24.682 44.4289 23.0106 40.5 23C31.9353 22.9769 24.916 30 16.1821 30C12.8511 30 10.6364 29.5373 9.30502 28.7703C8.84883 31.2985 11.5173 32.9633 15.3872 33C24.0842 33.0826 31.1553 25.8844 39.9246 25.8901C43.2543 25.8901 45.3581 26.4702 46.6877 27.2382Z" fill="#ED1D24"/>
</svg>
