<!-- by TradeStack --><svg width="56" height="56" viewBox="0 0 56 56" xmlns="http://www.w3.org/2000/svg"><path fill="#F0F3FA" d="M0 0h56v56H0z"/><path d="M27.97 21h-2.44a.03.03 0 0 0-.03.03v12.94c0 .01.01.03.03.03h2.44c.02 0 .03-.02.03-.03V21.03a.03.03 0 0 0-.03-.03ZM30 24.7v-2.66c0-.03 0-.04.02-.04h2.4c.05 0 .07.02.07.07v2.62a.05.05 0 0 0 .05.05h1.76c.02 0 .03.01.03.03v1.62c0 .02-.02.03-.04.03h-1.8v4.59c0 .48.08.91.65.98.37.05.76.03 1.15-.04.02 0 .04 0 .04.03v1.9c0 .02-.02.04-.04.04-.93.1-1.76.1-2.5 0-1.1-.16-1.79-.87-1.79-2v-5.47c0-.02-.03-.03-.04-.03h-1.49v-.02l-.01-1.63c0-.02 0-.03.03-.03h1.44c.04 0 .07-.02.07-.05Z" fill="#05539C"/><path fill-rule="evenodd" d="M11.88 33.48c1.86-.87 2.8-2.72 3.04-4.8a9.16 9.16 0 0 0-.45-4.35A5.17 5.17 0 0 0 9.37 21a11851.7 11851.7 0 0 1-5.36.01l-.01.04v12.94h.03l5 .01c1.01 0 1.94-.1 2.85-.52Zm.46-7.52c-.37-1.65-1.66-2.51-3.37-2.55-.7-.01-1.5-.02-2.41 0-.02 0-.04 0-.04.03v8.12l.01.02.03.01h2.6c1.7 0 2.91-1 3.23-2.59.2-.99.18-2-.05-3.04Z" fill="#05539C"/><path d="m47.23 30.88-1.88 3.1-.01.02H42.56a.02.02 0 0 1-.01-.03l3.26-5.22v-.02l-2.97-4.7a.03.03 0 0 1 0-.02H45.68l1.59 2.57a.02.02 0 0 0 .01.01h.02L48.87 24h.01l2.73-.01.02.01v.02l-2.98 4.64a.03.03 0 0 0 0 .02L52 33.97V34h-.01l-.01.01h-2.82l-.01-.01-1.88-3.11h-.01a.02.02 0 0 0-.03 0Z" fill="#05539C"/><path fill-rule="evenodd" d="M20.46 32.03c-1.55.09-2.4-.8-2.44-2.36 0-.02 0-.03.03-.03h6.65c.02 0 .04-.02.04-.04.16-2.47-.99-4.99-3.55-5.5a4.99 4.99 0 0 0-2.02.01c-3.04.63-4.27 3.76-3.5 6.59.7 2.54 3.04 3.59 5.46 3.23A3.94 3.94 0 0 0 24.55 31s-2.07-.02-2.28 0c-.27.73-1.08.99-1.8 1.03Zm-1.18-5.88c-.77.3-1.2 1.02-1.27 1.83 0 .01 0 .02.02.02h4.1c.03 0 .04-.01.03-.04-.1-.66-.38-1.38-.97-1.71a2.43 2.43 0 0 0-1.91-.1ZM39.24 32.03c-1.55.09-2.4-.8-2.44-2.36 0-.02 0-.03.03-.03h6.64c.03 0 .04-.02.05-.04.16-2.47-1-4.99-3.55-5.5a4.99 4.99 0 0 0-2.03.01c-3.03.63-4.26 3.76-3.48 6.59.7 2.54 3.03 3.59 5.45 3.23A3.94 3.94 0 0 0 43.32 31s-2.06-.02-2.27 0c-.27.73-1.08.99-1.8 1.03Zm-1.18-5.88c-.77.3-1.2 1.02-1.27 1.83 0 .01 0 .02.02.02h4.1c.03 0 .04-.01.03-.04-.1-.66-.39-1.38-.97-1.71a2.43 2.43 0 0 0-1.91-.1Z" fill="#05539C"/></svg>