<!-- by TradeStack --><svg width="56" height="56" viewBox="0 0 56 56" xmlns="http://www.w3.org/2000/svg"><path fill="#013660" d="M0 0h56v56H0z"/><path d="M14.84 20.14a8.09 8.09 0 0 1-5.63 2.33c-.13 0-.2-.07-.2-.21v-.14c-.02-.13.04-.2.16-.22 2.75-.38 4.3-1.99 4.62-4.82.01-.08.05-.1.11-.06l9.01 4.68c.13.07.21.14.26.21.05.1.08.21.08.33 0 .16-.08.22-.23.18l-7.92-2.35a.25.25 0 0 0-.26.07Z" fill="#fff"/><path d="m30.24 22.6-.27.26c-.84.77-1.47 1.3-1.9 1.58-2.75 1.8-5.44 2.76-8.07 2.9-1.2.07-4.83.08-10.88.04-.06 0-.12-.04-.12-.1v-1.65c0-.08.06-.1.14-.1 3.21.67 6.17 1.08 8.88 1.25a8.56 8.56 0 0 0 4.09-.75c3.03-1.36 4.93-3.75 5.69-7.17.05-.22.1-.62.14-1.2l.05-.5c.01-.13.08-.17.2-.1 3.54 1.86 9.7 5.05 18.46 9.55.22.11.34.3.35.57 0 .16-.07.22-.22.18l-16.25-4.82c-.11-.03-.2 0-.29.07ZM41.98 19.4l.76-.5a.3.3 0 0 1 .26-.04l3.71 1.1c.15.04.22-.01.21-.17v-.2a.32.32 0 0 0-.19-.29l-4.38-2.28c-.1-.04-.15-.01-.16.1a2.38 2.38 0 0 1-.73 1.57c-.28.26-.78.52-1.5.79-.07.03-.13.07-.15.13-.04.08-.05.15-.04.22.02.13.1.19.22.18a3.7 3.7 0 0 0 1.99-.6ZM27.97 28.02c1.27 0 2.53.1 3.8.3 3.5.55 7.24 1.17 11.2 1.84.43.07 1.68.18 3.77.32.13.01.27.09.26.22v.19c0 .08-.05.1-.2.11H9.25c-.14 0-.25-.06-.25-.15v-.15c0-.13.07-.2.2-.22 2.09-.14 3.35-.25 3.77-.32 3.96-.67 7.7-1.29 11.21-1.84 1.26-.2 2.53-.3 3.8-.3ZM9.07 36h37.85c.05 0 .08-.02.08-.07v-1.7c0-.05-.04-.08-.09-.09-3.66-.61-5.9-.96-6.6-1.03a28.03 28.03 0 0 0-8.04.33c-2.38.43-5.86 1-10.44 1.7-1.69.25-3.3.31-4.83.2a82.04 82.04 0 0 1-7.88-1.18c-.06-.01-.1.02-.1.09v1.7c0 .03.02.05.05.05Z" fill="#fff"/></svg>