<!-- by TradeStack --><svg width="56" height="56" viewBox="0 0 56 56" xmlns="http://www.w3.org/2000/svg"><path fill="#F0F3FA" d="M0 0h56v56H0z"/><path d="m40.85 22.9-.1 4.95-.16 2.13-.38 2.26-1.88-3.95a51.25 51.25 0 0 0-2.93-4.92.58.58 0 0 1-.08-.28l.66-2.9.19-1.49c0-.08-.02-.1-.08-.06l-1.61.95-2.44-.77a3 3 0 0 1-.25-.12.82.82 0 0 1-.22-.16 82.17 82.17 0 0 0-2.1-2.16 24.3 24.3 0 0 1 5.97-3.4.58.58 0 0 1 .52.05c1.64 1 3.11 2.29 4.43 3.89.07.08.11.2.12.31l.34 5.68ZM21.61 15.61l.12 1.56a33.02 33.02 0 0 0 2.23 7.8c.03.06.07.1.13.1l4.17.13-2.52 3.36a.22.22 0 0 0-.05.18c.04.2.13.41.29.6-.08.01-.13 0-.16-.02a42.2 42.2 0 0 1-8.27-8.4c-.12-.15-.2-.38-.27-.67l.39-3.1c.19-1.06.47-2.1.84-3.1a.37.37 0 0 1 .16.01c1 .32 1.95.78 2.83 1.39.02.01.06.07.11.16Z" fill="#0B75B3"/><path d="m17.67 17.15-.39 3.1c-.02.06-.07.08-.14.04a.24.24 0 0 1-.1-.09c-.61-.91-1.2-1.87-1.79-2.87l2.3-.18c.02 0 .04-.01.05-.03a.07.07 0 0 0 .02-.04c0-.04.02 0 .05.07ZM23.67 17.26c.47.45.82.8 1.05 1.08a37 37 0 0 1 4.15 6.26c0 .02.05.07.12.18.08.11.08.24 0 .39l-.73.03-4.17-.13a.15.15 0 0 1-.13-.1c-.06-.1-.14-.3-.25-.57a33.03 33.03 0 0 1-1.98-7.23l1.94.1Z" fill="#C9A1CC"/><path d="M15.25 17.33c.58 1 1.18 1.96 1.78 2.87.03.05.07.08.1.1.08.03.13.01.15-.05.06.3.15.52.27.67 2.37 3.2 5.13 6 8.27 8.4.03.02.08.03.16.03.05.09.13.17.22.24a38.76 38.76 0 0 0 5.1 3.24 38.03 38.03 0 0 1-5.45 7.43 32.1 32.1 0 0 1-6.37-4.19 27.1 27.1 0 0 1-3.35-3.35c-.08-.1-.16-.12-.24-.08v-.1a.2.2 0 0 0-.05-.14 25.09 25.09 0 0 1-3.7-6.06c-.12-.3-.17-.6-.13-.93a16.67 16.67 0 0 1 3.24-8.08Z" fill="#CF4C9A"/><path d="m32.04 18.82 2.44.77 1.5.6-.66 2.9h-.06a.15.15 0 0 1-.12-.07 44.2 44.2 0 0 0-3.09-3.91c-.06-.07-.07-.17-.01-.3ZM40.85 22.9c.28.11.5.23.65.35a16.5 16.5 0 0 1 2.24 1.87c.17.2.2.36.1.48a49.03 49.03 0 0 0-1.58 2.58.45.45 0 0 1-.3.24l-1.21-.57.1-4.94Z" fill="#C9A1CC"/><path d="M43.84 25.6c.07.16.11.35.12.58.23 3.68-.6 7.07-2.5 10.17l-1.24-4.11.37-2.26 1.39-1.44a.07.07 0 0 0 .02-.07c0-.03-.02-.05-.03-.05.12-.03.22-.11.3-.24.35-.65.88-1.5 1.57-2.58Z" fill="#F0ABCC"/><path d="M22.98 12.1c9.79 3.5 16.19 14.8 18.47 24.25a16.12 16.12 0 0 1-7.82 6.58c.4-10.2-7.01-26.32-14.96-28.87a.37.37 0 0 0-.16 0c.01 0 .02-.02 0-.05 0-.03 0-.06.03-.08.2-.2.43-.36.7-.49.26-.12.51-.26.76-.42.82-.55 1.99-1.28 2.98-.93Z" fill="url(#akczlvn5l)"/><path d="m31.86 31.77.35 1.04c.28 1 .54 2 .77 3.02.53 2.32.74 4.69.65 7.1a15.37 15.37 0 0 1-11 .11 25.17 25.17 0 0 0 3.22-2.78 38.03 38.03 0 0 0 5.45-7.43l.56-1.06Z" fill="#086AA8"/><path d="M15.9 32.64c.07-.04.15-.01.23.08a27.12 27.12 0 0 0 3.35 3.35l-5.19-.09c-.04-.04-.05-.1-.03-.15.42-1.03.96-2.1 1.63-3.19Z" fill="#0B75B3"/><path d="M19.48 36.07a32.1 32.1 0 0 0 6.37 4.2c-1 1.01-2.07 1.94-3.22 2.77a16.13 16.13 0 0 1-8.26-6.81.51.51 0 0 1-.08-.25l5.19.09Z" fill="#C9A1CC"/><defs><linearGradient id="akczlvn5l" x1="21.4" y1="13.22" x2="36.71" y2="36.85" gradientUnits="userSpaceOnUse"><stop stop-color="#88D3ED"/><stop offset="1" stop-color="#389DD9"/></linearGradient></defs></svg>