<?xml version='1.0' encoding='utf-8'?>
<!-- by TradeStack -->
<svg width="56" height="56" viewBox="0 0 56 56" xmlns="http://www.w3.org/2000/svg"><path fill="#F0F3FA" d="M0 0h56v56H0z" /><path d="M33.78 19a.2.2 0 0 0-.19.08c-.18.24-.23.61-.3.9l-.01.14c-.1.29-.14.56-.18.86-.04.24-.13.38-.38.36a.64.64 0 0 1-.54-.33c-.7-1.17-1.28-2.08-1.62-3.26a1.79 1.79 0 0 0-.1-.27c-.24-.48-.48-.94-.7-1.44-.13-.3-.29-.6-.47-.89-.06-.1-.13-.23-.25-.26-.17-.04-.27.03-.37.18-.56.85-1.03 1.77-1.57 2.79-.23.42-.42.84-.58 1.26-.31.84-.66 1.6-.87 2.53-.09.4-.15.85-.2 1.33a6.1 6.1 0 0 1-.34 1.58c-.1.3-.16.5-.4.62-.3.15-.72.13-.91-.2l-.52-.86c-.38-.64-.82-1.22-1.34-1.94a.24.24 0 0 0-.05-.06c-.24-.15-.54-.34-.84-.32-.08 0-.2.04-.34.1-.42.18-.82.36-1.23.6-.41.24-.83.48-1.26.7a.42.42 0 0 1-.29.02c-.19-.04-.2-.26-.06-.37l.6-.45c.1-.06.16-.18.24-.25.43-.4.88-.8 1.29-1.24.4-.45.83-.88 1.2-1.35.75-1 1.31-1.75 1.68-2.27.26-.37.66-1 1.01-1.5.4-.57.8-1.14 1.18-1.73l.79-1.21c.21-.32.56-.7.91-.8.23-.07.54-.03.78-.05.12 0 .24.06.36.09.13.04.28.13.45.26.5.41.9.9 1.28 1.47.27.42.55.8.83 1.13.72.86 1.64 1.48 2.57 2.12 1.14.79 2.38 1.22 3.74 1.58 1.3.34 2.6.74 3.86 1.22a8.23 8.23 0 0 1 3.03 1.94c.27.3.62.73.99 1.18.48.58.86 1.2 1.18 1.87.3.6.59 1.18.93 1.68.32.47.8.8 1.21 1.22a6.2 6.2 0 0 0 1.13.9c.7.41 1.26.76 1.73 1.05.42.26.83.59 1.07 1.05.1.2.14.53-.03.7-.16.16-.5.2-.74.17-.09 0-.22-.04-.38-.1-.46-.16-.94-.3-1.33-.6-.2-.13-.39-.3-.59-.5-.45-.45-.85-.94-1.21-1.46l-.94-1.35a6.77 6.77 0 0 0-1.18-1.31c-.3-.25-.82-.63-1.11-.13-.17.3-.3.58-.39.94-.25.9-.46 1.67-.65 2.46-.06.23-.07.49-.04.77.03.24-.13.43-.24.62-.1.17-.18.27-.35.32a.3.3 0 0 1-.29-.06c-.15-.12-.25-.23-.26-.42 0-.2-.02-.4-.01-.62.02-.3 0-.64.06-.92.09-.43.34-.79.43-1.23l.2-.96c.04-.15.05-.3.1-.46.05-.2.14-.43.15-.64 0-.2.02-.42.04-.63a.32.32 0 0 0-.06-.2l-.02-.01c-.15-.05-.24-.02-.36.07-.26.2-.52.4-.8.55-.29.17-.55.31-.87.51-.32.2-1.07.64-1.32.09-.12-.28-.02-.66.02-.95.07-.4.2-.75.35-1.1.07-.15.1-.36.19-.48.34-.42.59-.77.8-1.18.19-.33.28-.76.36-1.1.01-.05 0-.1-.03-.14l-.03-.01c-.14-.02-.27-.01-.41-.02-.08 0-.14 0-.2.02-.37.14-.62.48-.9.76-.46.45-.73 1.01-.99 1.59-.15.34-.35.67-.6 1-.16.18-.65.38-.74.02l-.02-.03c-.18-.18-.2-.38-.23-.65a1.7 1.7 0 0 1 .02-.5c.1-.56.18-1.14.4-1.68.15-.36.3-.7.22-1.1l-.02-.02c-.27-.23-.62-.28-.82.06l-.55.98c-.27.48-.57.88-.92 1.3-.1.14-.23.23-.36.3-.34.16-1.2.52-1.3-.14a7.34 7.34 0 0 1-.06-.57c-.02-.3.05-.6.13-.9.02-.09.01-.18.03-.26.05-.25.17-.73.19-1.1l.02-.35c.02-.29 0-.62-.03-.85-.04-.22-.28-.25-.46-.26Z" fill="#D91023" /><path d="M10.71 34.9c-.12.2-.52.76-.78.78-.12.01-.29-.05-.28-.21l.06-.62c.04-.31-.25-.65-.47-.8-.29-.19-.67-.14-1-.13-.08 0-.19 0-.33-.02a3.3 3.3 0 0 0-.68.01.46.46 0 0 1-.33-.1 2.57 2.57 0 0 1-.87-1.28 6.39 6.39 0 0 0-.2-.56c-.1-.22-.48-.32-.69-.36-.19-.04-.41-.02-.62-.02-.12 0-.56 0-.52-.21l.01-.03.4-.6.15-.17.65-.56.18-.14a19.27 19.27 0 0 1 2.3-1.56c.15-.1.3-.23.43-.38a7.95 7.95 0 0 0 1.41-2.4 59.85 59.85 0 0 1 1.14-2.57c.35-.68.83-1.2 1.37-1.75l.43-.38c.05-.05.11-.1.18-.13.45-.28.81-.65 1.3-.75.13-.02.27-.02.42 0 .64.1 1.05.36 1.32.98l.41.98c.27.65.7.97 1.25 1.33l.5.29c.53.28 1.08.57 1.57.9.25.18.61.55.42.87-.14.24-.54.16-.8.13-.48-.07-1.01-.36-1.4-.63-.19-.14-.48-.34-.67-.53-.48-.46-.87-1.03-1.3-1.55-.11-.12-.2-.23-.26-.4a3.99 3.99 0 0 0-.9-1.45c-.12-.12-.3-.14-.43-.03-.13.12-.23.53-.27.69a13.95 13.95 0 0 0-.18 1.37c.01.08 0 .15.02.21.1.52.72.91 1.14 1.14.44.24.7.84.4 1.3-.12.17-.47-.09-.57-.17-.45-.37-.93-.9-1.54-.95-.17-.01-.72-.05-.84.07-.27.27-.55.52-.85.76-.27.2-.44.43-.65.68-.25.3-.4.67-.54 1.03-.07.2-.08.4-.1.6-.02.34.06.68.33.89.26.2.76.25 1.1.27.24.02.54 0 .82 0l1.11-.09c.2-.02.47-.03.65.03.26.1.49.23.67.46.36.45.7.9 1.05 1.37.33.44.62.75 1.2.76.15 0 .35.02.59.05.1 0 .2-.02.28 0 .15.02.3.02.44 0 .15 0 .29 0 .44-.02.3-.03.6-.03.9-.07.28-.03.64-.13.65.3 0 .2.02.38.05.57.03.28.13.42.36.54.32.17.63.35.94.54.05.03.09.07.12.12.08.1.23.24.14.38-.15.22-.42.49-.69.53l-1.04.16c-.25.03-.31.21-.32.44 0 .19-.02.37-.04.56-.04.44.01.83-.15 1.27-.14.41-.32.8-.52 1.19-.14.27-.4.5-.61.72-.11.12-.26.15-.38.26-.13.12-.31.13-.48.15-.07 0-.16.04-.25.04a3.92 3.92 0 0 0-.67 0c-.18.02-.42-.17-.54-.3-.28-.3.19-.58.4-.7.15-.1.28-.2.4-.32.22-.23.34-.34.53-.5.16-.12.28-.29.41-.44.2-.24.52-.46.68-.75l.36-.63c.1-.17.04-.36.05-.54l.06-.8c.03-.32.03-.65.02-.98 0-.13-.28-.15-.38-.15l-.03.01c-.27.3-.15 1.1-.1 1.48.05.4.01.75-.23 1.08-.47.64-1.07 1.18-1.64 1.79-.35.38-.83.7-1.24 1.04-.2.17-.33.43-.62.35-.3-.08-.26-.5-.16-.72.06-.12.2-.25.28-.39.23-.4.44-.82.63-1.27.05-.12.09-.25.12-.39.1-.4.23-.86.3-1.3.04-.3.04-.68.06-1.02.03-.41-.07-.75-.4-1.01-.18-.16-.58-.68-.82-.53-.14.09-.14.3-.11.45.02.07.07.17.15.3.25.36.46.74.7 1.1.04.07.07.16.07.28l.01.03c.22.33-.02.84-.2 1.12-.33.47-.6.86-.71 1.4-.07.32-.24.85-.52 1.05-.48.33-.95.23-1.46.07-.19-.06-.29-.2-.34-.39-.19-.66.18-1.14.57-1.61.2-.26.54-.61.75-.88.27-.36.58-.79.57-1.26 0-.38-.08-.78-.14-1.16a1.02 1.02 0 0 1-.01-.22c0-.17-.05-.3-.17-.43-.15-.15-.2.3-.2.36-.02.17.02.4.04.61.03.34 0 .67-.1.97-.1.29-.3.6-.46.9-.2.33-.42.64-.68.92-.38.4-.3.99-1 1.05-.48.05-.92.06-1.32.03a.62.62 0 0 1-.28-.06c-.15-.1-.3-.32-.12-.48.3-.27.58-.57.82-.9.07-.09.14-.17.21-.23.14-.13.3-.24.4-.4.31-.39.57-.88.8-1.26.17-.3.3-.62.46-.91.15-.29.19-.74-.06-.98a1.8 1.8 0 0 0-.97-.48 1.8 1.8 0 0 1-.35-.09 2.2 2.2 0 0 1-.76-.8c-.17-.26-.34-.38-.65-.36-.32 0-.63 0-.94-.03-.15-.01-.3 0-.44.04-.14.03-.37.17-.35.34.03.22.64.26.83.26.74 0 1.72-.14 1.94.86.04.15.11.28.23.38.29.23.55.49.78.76.36.41-.06.62-.23.95a3.8 3.8 0 0 0-.18.37c-.05.12-.16.22-.24.32-.15.16-.27.34-.37.54l-.19.36ZM24.72 26.3c-.21-.05-.58-.36-.22-.56.04-.02.1-.03.17-.04.37-.02.74-.02 1.1 0 .17 0 .33-.02.54-.01.35 0 .7.03 1.05.01.09 0 .17 0 .26.02.58.1 1.17.18 1.74.35.57.17 1.15.28 1.71.48.57.2 1.07.38 1.58.67.58.32 1.1.7 1.6 1.13a9.35 9.35 0 0 0 2.38 1.51c.4.19.95.41 1.63.68.4.16.84.18 1.13.56v.02c-.62.22-1.33 0-1.9-.24-.43-.18-.9-.28-1.32-.46a9.12 9.12 0 0 1-1.04-.53c-.16-.1-.3-.2-.4-.32a.27.27 0 0 0-.1-.1c-.24-.06-.15.47-.13.59.04.25-.13.3-.34.34-.83.17-1.67.32-2.52.44-.35.05-.71.02-1.08.05a.9.9 0 0 1-.47-.1 5.1 5.1 0 0 1-.57-.32c-.18-.12-.18-.4.03-.5.08-.04.19-.04.3-.04.85-.05 1.43-.07 1.74-.07.22 0 .48.02.77.06.2.03.33.03.4.02.32-.04.58-.24.79-.45.22-.22.28-.48.18-.8-.04-.14-.14-.18-.26-.08-.35.32-.7.57-1.04.76-.33.18-.67.23-1.07.24l-1.74.02c-.39 0-.78-.06-1.16-.1-.3-.02-.7-.09-1.17-.2-.17-.03-.26-.12-.37-.25-.1-.1.24-.18.3-.18.39-.02.77-.05 1.16-.04.86.03 1.63.04 2.32.03.38 0 .77-.15 1.12-.36.2-.12.3-.41.17-.62-.07-.12-.26-.12-.38-.1l-.69.15c-.08.02-.16.03-.25.03l-1.42-.02-.45.03c-.38.05-.74.08-1.12.04l-1.2-.12a.93.93 0 0 1-.3-.07l-.02-.02a.37.37 0 0 1 0-.2l.03-.03c.18-.06.4-.09.56-.12.6-.14 1.23-.11 1.87-.1.43.02.82.01 1.23.01.1 0 .2-.03.31-.05h.01v-.01a.43.43 0 0 0-.2-.2l-.77-.37c-.1-.05-.22-.05-.31-.06l-.15-.02c-.63-.02-1.3.03-1.96.04-.2 0-.4-.03-.6-.09-.06-.02-.13 0-.2-.02l-1.26-.3Z" fill="#141414" /><path d="M26.83 34.33V36H26l-.01-.02V32.01h1.35c.81 0 .97.93.83 1.6-.16.72-.78.7-1.34.7l-.01.02Zm0-1.7v1.06H27.12c.08 0 .17-.04.23-.1.06-.07.1-.17.1-.26v-.35c0-.1-.04-.19-.1-.26a.31.31 0 0 0-.23-.1h-.28a.01.01 0 0 0-.01 0v.01ZM39.25 32h-.82l-.02.02v.56c0 .01 0 .02.02.02h.82c.01 0 .02 0 .02-.02v-.56l-.02-.02ZM29.41 34.56c0 .25-.03.6.05.74.08.13.24.1.32 0 .06-.08.04-.36.04-.47l.01-.01h.72c.01 0 .02 0 .02.02.02.54-.05.99-.64 1.12-.51.12-1.14-.03-1.3-.6a2.08 2.08 0 0 1-.03-.46v-.99c.01-.7.59-.98 1.2-.9.87.12.79.87.77 1.52a.02.02 0 0 1-.01.02h-1.13l-.02.01Zm.02-.41h.37a.02.02 0 0 0 .01 0V33.84a.28.28 0 0 0-.05-.16.16.16 0 0 0-.12-.07h-.05c-.02 0-.05 0-.07.02a.19.19 0 0 0-.06.05.25.25 0 0 0-.04.07v.37a.02.02 0 0 0 .01.02ZM32 33.48h.02c.1-.24.35-.56.64-.46.02 0 .02 0 .02.02v.7l-.01.02c-.26-.06-.5.1-.63.3a.23.23 0 0 0-.04.14v1.79l-.01.01h-.77c-.02 0-.02 0-.02-.02V33h.8V33.48ZM41.03 35.6c-.1.2-.22.37-.45.4-.78.1-.97-.85-.52-1.33.22-.24.62-.38.93-.49l.01-.02c0-.12.06-.53-.16-.54-.2-.02-.19.28-.2.4 0 .01 0 .02-.02.02h-.71c-.02 0-.02 0-.02-.02-.02-.47.2-.89.67-.98.46-.1 1-.02 1.18.5.03.1.04.26.04.5 0 .64-.02 1.3.05 1.94l-.01.02h-.72v-.02l-.05-.37c0-.03-.01-.03-.02 0Zm-.44-.63c-.12.3.14.7.4.34l.01-.03v-.73h-.01a.84.84 0 0 0-.4.42ZM43.11 33.3a.02.02 0 0 0 .01 0 .02.02 0 0 0 .02 0c.49-.48 1.23-.42 1.23.42a749.37 749.37 0 0 1 0 2.28h-.82l-.02-.01V33.8c0-.31-.26-.23-.4-.1l-.02.03V36l-.02.01h-.81c-.02 0-.02 0-.02-.02v-2.96a.02.02 0 0 1 .01-.02h.82c.01 0 .02.01.02.03v.26ZM34.4 35.72a.01.01 0 0 0 0-.02h-.01c-.46.45-1.21.46-1.21-.37v-2.31l.01-.02h.8l.01.02v2.19c0 .31.21.23.4.14v-2.33l.01-.02h.79c.02 0 .03 0 .03.02V36h-.8c-.01 0-.02 0-.02-.02v-.26ZM37 34.86l.22-1.84c0-.01 0-.02.02-.02H38c.02 0 .02 0 .02.03l-.6 2.95a.03.03 0 0 1-.03.02h-.84c-.01 0-.02 0-.02-.02l-.6-2.96c0-.01 0-.02.03-.02h.77c.01 0 .02 0 .02.02l.23 1.84ZM39.23 33h-.8l-.01.02v2.97l.01.01h.8l.02-.01v-2.97c0-.01 0-.02-.02-.02Z" fill="#D91023" /><path d="M45.53 36.3h-.51c-.01 0-.02 0-.02.02v2.66c0 .01 0 .02.02.02h.51c.01 0 .02 0 .02-.02v-2.66c0-.01 0-.02-.02-.02ZM38 37.35c-.23.41-.5.84-.72 1.24-.11.2-.45.21-.57 0L36 37.36V39h-.55l-.02-.01V36.4h.6c.05 0 .1.05.12.1a119.88 119.88 0 0 1 .85 1.59c.25-.54.55-1.06.83-1.58.04-.08.07-.11.18-.12a15.61 15.61 0 0 1 .56.03V39H38v-1.65ZM41.91 37h.42l.01.02v.38l-.01.01h-.41a49.67 49.67 0 0 0-.01.95c0 .37.24.05.32.2a22.33 22.33 0 0 0 .16.28c-.29.2-.83.26-.99-.14a1.4 1.4 0 0 1-.05-.45 85.43 85.43 0 0 1-.02-.83h-.04a.22.22 0 0 1-.18-.05l-.01-.03v-.28h.02l.24-.06c.02 0 .03 0 .03-.02.02-.1.08-.49.15-.53.05-.04.27-.02.35-.02l.01.02v.54l.01.01ZM40.66 38.72c-.67.57-1.7.25-1.67-.77.01-.59.4-1 .97-.95.52.05.81.5.73 1.03 0 .02-.01.03-.03.04a.06.06 0 0 1-.04.02h-1.07a.01.01 0 0 0-.01 0v.01c.04.41.33.57.67.39.29-.15.29-.1.46.14a.06.06 0 0 1-.01.09Zm-1.1-.97h.64l.01-.01a.34.34 0 0 0-.1-.23.3.3 0 0 0-.2-.1h-.06a.3.3 0 0 0-.21.1.33.33 0 0 0-.09.23l.01.01ZM43.89 37.83c0-.23-.03-.4-.28-.4-.32.01-.47.4-.69-.12v-.03c.42-.34 1.25-.47 1.46.19.03.09.04.22.04.4a231.17 231.17 0 0 1 0 1.1c-.17 0-.42.06-.45-.2a.02.02 0 0 0-.03 0c-.36.35-1.1.35-1.11-.34 0-.48.72-.6 1.04-.59l.02-.01Zm-.53.66c.01.06.06.11.12.12.16.02.3-.03.4-.15v-.26c-.18-.02-.56.01-.52.29ZM46.56 38.14c-.56-.23-.4-1 .14-1.11a1 1 0 0 1 .83.18l.02.03v.05c-.07.1-.13.28-.3.21-.12-.06-.4-.16-.5 0a.13.13 0 0 0 .05.18c.3.17.74.16.77.63.03.4-.27.65-.63.68a1.06 1.06 0 0 1-.78-.23v-.02l.12-.21c.11-.19.28 0 .41.03.11.04.34.05.36-.12.03-.17-.37-.26-.49-.3Z" fill="#141414" /></svg>