<!-- by TradeStack --><svg width="56" height="56" viewBox="0 0 56 56" xmlns="http://www.w3.org/2000/svg"><path fill="#F0F3FA" d="M0 0h56v56H0z"/><path d="M48.65 22.11a.15.15 0 0 1 .1-.02.8.8 0 0 0 .36-.03c.34-.13.68-.31 1.03-.54a.81.81 0 0 0 .2-.18c.07-.09.07-.15 0-.19 0-.15.49-.46.63-.93a.1.1 0 0 0-.01-.04.1.1 0 0 0-.12-.03l-2.72 1.2a19.98 19.98 0 0 1-3.35 1.07.1.1 0 0 0-.04.09c0 .02 0 .03.02.05.06.1.05.18-.02.26a.04.04 0 0 0-.01.04v.01l.02.02h.02a.05.05 0 0 0 .05 0c1.6-.39 2.1-.39 3.84-.78Z" fill="#173060"/><path d="M50.3 22.39c.26-.06.43-.1.5-.13a.2.2 0 0 0 .1-.09l.04-.03a.1.1 0 0 1 .04-.01c.42-.02.75-.21 1-.58a.1.1 0 0 0 0-.12.11.11 0 0 0-.05-.04.12.12 0 0 0-.06 0c-.05 0-.14.03-.26.07-1 .32-2 .64-3 .9l-.49.12c-.52.16-1.39.3-2.61.44a.17.17 0 0 0-.11.05.15.15 0 0 0-.04.12v.03c-.05.1.03-.12-.31.4a.04.04 0 0 0 0 .04l.02.02h.02c.07.01.14 0 .22-.03a.18.18 0 0 1 .1-.01c.2.03.37 0 .54-.07a.3.3 0 0 1 .11-.03c2.55-.35 2.2-.55 4.25-1.05Z" fill="#173060"/><path d="m50.95 22.69.06-.04.22-.18a.1.1 0 0 0-.01-.16.25.25 0 0 0-.2-.03l-1.13.34c-1.15.35-2.31.64-3.47.87l-.52.08a.28.28 0 0 0-.17.07c-.25.22-.4.53-.23.84.4.52.08.28-.36.64a.13.13 0 0 1-.07.05c-.24.05-.43.06-.58.02h-.06l-.25.06a.1.1 0 0 0-.05.02.1.1 0 0 0-.03.1c0 .02.01.03.03.04.08.09.1.18.06.28a.07.07 0 0 0 .01.07l.03.02h.04c.29-.01.5-.04.64-.07.66-.4 1.8-.44 3.3-.8l.01-.01c.23-.15.42-.14.65-.25.25-.12.54-.21.65-.4.32-.6-1.59 0 .25-.45.28-.14.58-.24.77-.48a2.44 2.44 0 0 1 .4-.64ZM42.98 22.9l-.02.03v.05l.02.02.02.02.03.01h.03l.32-.18.04-.01a.6.6 0 0 1 .38.07c.25.12.48.04.68-.09l.03-.02.17-.3a.1.1 0 0 0-.01-.12.11.11 0 0 0-.13-.01c-.35.2-.74.32-1.19.36a.7.7 0 0 0-.37.18ZM41.2 25.66c.24-.17.18-1.03.16-1.4a.86.86 0 0 1 .47-.86c.26-.16.53-.25.79-.3l.08-.03c.14-.1.23-.21.26-.31v-.05a.08.08 0 0 0-.03-.04.08.08 0 0 0-.1 0l-.33.25a.3.3 0 0 1-.14.06c-.61.1-1.4.45-1.23 1.17l.1.58a2.05 2.05 0 0 1-.07.92l.01.01a.03.03 0 0 0 .03 0ZM42.95 24.14a.04.04 0 0 0 .02.03.04.04 0 0 0 .04.01c.45-.16.86-.18 1.21-.55a.13.13 0 0 0 .04-.1l-.02-.06a.16.16 0 0 0-.04-.04.56.56 0 0 1-.14-.2.03.03 0 0 1 0-.03.04.04 0 0 1 .05-.01c.1.03.18.08.26.15a.08.08 0 0 1 .03.08.38.38 0 0 0-.01.15v.02a.06.06 0 0 0 .04.03h.03c.36-.1.64-.29.84-.58.03-.04.03-.08 0-.12a.15.15 0 0 0-.16-.05.16.16 0 0 0-.06.02l-.18.12a.28.28 0 0 1-.1.03l-1.07.1a.17.17 0 0 0-.12.05l-.28.32-.02.02-.23.1a.05.05 0 0 0-.03.02.04.04 0 0 0 0 .04c.14.25-.07.25-.1.45Z" fill="#173060"/><path d="m44.07 23.89-.1.07a.05.05 0 0 0-.03.04v.03l.04.03H44l.54-.11a.15.15 0 0 1 .11.02l.04.04.02.06.02.25.01.02.02.02a.05.05 0 0 0 .05 0l.45-.22a.16.16 0 0 0 .06-.05c.12-.14.19-.24.2-.3a.15.15 0 0 0-.03-.16.17.17 0 0 0-.17-.03.6.6 0 0 1-.33.02h-.02l-.86.24a.15.15 0 0 0-.05.03Z" fill="#173060"/><path d="m42.92 24.36.04.42a.02.02 0 0 0 .01.01h.01l.58-.08c.37-.04.83-.22 1.02-.42a.12.12 0 0 0 .03-.07l-.01-.07a.15.15 0 0 0-.05-.06.19.19 0 0 0-.15-.03 1.49 1.49 0 0 1-.53.06l-.93.2-.01.02v.02ZM44.24 24.59a.1.1 0 0 0-.04.04.1.1 0 0 0 .02.1.1.1 0 0 0 .06.03c.15.03.23.1.22.23a.07.07 0 0 0 .02.05.07.07 0 0 0 .05.02c.32 0 .54-.19.76-.35a.15.15 0 0 0 .06-.08v-.1c-.11-.22-.41-.06-.6-.07-.2 0-.38.03-.55.13ZM45.93 25.7a.04.04 0 0 1 .02.01.03.03 0 0 1 .02.03v.06l-.44.05a.1.1 0 0 0-.06.03.09.09 0 0 0-.02.07V26c0 .02 0 .03.02.04l.05.02c.33-.01.62 0 .77-.12a.13.13 0 0 1 .08-.03c.53 0 .74-.16 1.18-.31.1-.04.16-.1.17-.17v-.08a.16.16 0 0 0-.05-.06.2.2 0 0 0-.15-.05c-.56.08-1.16.17-1.8.3-.22.04-.42-.04-.59.17a.13.13 0 0 1-.05.04.13.13 0 0 1-.06.01H45a.06.06 0 0 0-.05.02.05.05 0 0 0-.01.04c0 .04.04.07.1.1h.03l.86-.2ZM35.68 35.69l.01-.02.03-.01h.02l.02.02c.06.18.14.28.36.29.39.01.68.02.88.01.8-.03.85-.29.8-1v-.3c.04-.2.08-.41.08-.61.04-1.27.08-2.16.12-2.67 0-.05 0-.1-.02-.14-.08-.2-.29-.37-.37-.6a1.81 1.81 0 0 1-.1-.42.16.16 0 0 0-.04-.09.18.18 0 0 0-.1-.05 4.24 4.24 0 0 1-1.02-.4.14.14 0 0 0-.17.03l-.15.19a.23.23 0 0 0-.03.07l-.17.52a.18.18 0 0 0 0 .1c.33 1.06.5 1.6.56 2.51.02.27.07.43.14.66.02.05.02.1.01.16-.14.73-.45 1.02-1.17 1.2a.18.18 0 0 0-.09.05.17.17 0 0 0-.04.1c-.05.24.02.44.21.6l.06.02h.06l.05-.04a.1.1 0 0 0 .03-.05l.03-.13Z" fill="#173060"/><path fill-rule="evenodd" d="M46.7 29.13c-.19.37-.1.65.27.84.15.08.3.13.46.15a.18.18 0 0 1 .12.07.17.17 0 0 1 .03.14c-.04.19-.48.12-.58.06-.63-.4-.75-.9-.38-1.55v-.01c-.68.6-.36 1.19.22 1.66a.3.3 0 0 1 .08.1c.15.3.07.55-.25.74a.07.07 0 0 1-.08-.01.06.06 0 0 1-.02-.03v-.04c.08-.13.1-.26.08-.4a.17.17 0 0 0-.05-.08c-.32-.3-.51-.66-.58-1.1-.02-.14-.22-.1-.18 0l.03.03c.05.03.08.08.07.16 0 .12.04.22.13.28.02.01.04.03.04.05l.1.38v.02l-.01.01a.04.04 0 0 1-.04 0c-.81-1-.4-1.35.03-1.73a4.18 4.18 0 0 0 .23-.24.02.02 0 0 0-.02 0 .74.74 0 0 1-.46.12l-.04-.02a.06.06 0 0 1 0-.09.07.07 0 0 1 .04-.02c.12-.02 1.53-1.25.18-.21-.2.16-.4.18-.58.05-.22-.15-.32-.4-.1-.61.12-.12.32-.14.44-.04a.2.2 0 0 1 .05.25.23.23 0 0 1-.06.08.3.3 0 0 1-.14.05h-.03v.06l.03.02c.38.09.58-.34.3-.56-.28-.23-.64-.04-.79.23a.3.3 0 0 1-.07.1l-.34.26c-.43.5-.54 1.05-.26 1.67.17.38.38.68.63.9l1.07.9A3.34 3.34 0 0 1 47.6 35c-.04.3-.2.55-.47.76-.6.46-1.73.15-2.32-.24a.06.06 0 0 0-.05 0 .06.06 0 0 0-.04.03c-.13.31-.39.45-.77.43a7.6 7.6 0 0 1-1.1-.17c-.1-.02-.21-.02-.32 0-.1 0-.21.02-.32.04-.46.07-.92.13-1.48.1a.6.6 0 0 0-.13.01l-.06.01-.2.03a2940.58 2940.58 0 0 0-2.08-.02.07.07 0 0 1-.02-.04c-.14-.45.1-.68.48-.96a.35.35 0 0 1 .18-.07c.5-.04.93 0 1.31.12a2.84 2.84 0 0 0 1.24-.18c.05-.02.1-.05.12-.1.03-.04.04-.1.03-.15-.02-.2-.2-.39-.4-.58l-.07-.07a.48.48 0 0 1-.08-.11c-.1-.2-.14-.4-.18-.59-.01-.1-.03-.2-.06-.28-.13-.42-.63-.67-1.02-.84a6.8 6.8 0 0 1-1.16-.65c-.51-.35-.82-.8-.92-1.36a.23.23 0 0 0-.07-.12.25.25 0 0 0-.13-.07 3.85 3.85 0 0 1-1.32-.52l-.03.01-.3.36a.3.3 0 0 0-.06.16l-.03.42-.02.05a.1.1 0 0 1-.14 0c-.62-.58-.76-1.2-.45-1.86a.4.4 0 0 0 .04-.16c0-1.02.14-1.44.65-2.27.35-.57.88-1.14 1.2-1.46a1 1 0 0 1 .34-.16c.45-.15.86-.4 1.24-.77.05-.04.1-.08.16-.1.24-.11.31-.27.42-.5l.06-.11c.03-.07.12-.16.26-.28.28-.24.38-.57.3-.98v-.02h-.04l-.03.01-.01.03c.02.35-.1.64-.34.88a.1.1 0 0 1-.04.03.1.1 0 0 1-.1-.02.1.1 0 0 1-.03-.05l-.08-.27a.05.05 0 0 0-.02-.03.05.05 0 0 0-.06 0l-.01.04c0 .12.02.25.08.4.02.04.02.07 0 .1a5 5 0 0 0-.01.06c-.08.22-.2.59-.47.46a.05.05 0 0 0-.04 0 .05.05 0 0 0-.03.02c-.04.14-.15.23-.27.32-.07.06-.15.12-.2.2a.37.37 0 0 1-.13.1c-.17.08-.35.18-.56.31a.3.3 0 0 1-.19.06l-.04-.02a.09.09 0 0 1-.03-.03.08.08 0 0 1 0-.08 1.9 1.9 0 0 1 .58-.56v-.02h-.02l-.41.23c-.18.09-.21.24-.25.39-.02.1-.05.2-.12.3a35.7 35.7 0 0 1-.4.41.08.08 0 0 1-.08 0 .08.08 0 0 1-.03-.03l-.01-.02a.1.1 0 0 1 0-.13l.35-.42a.1.1 0 0 0 .02-.07l-.02-.22.01-.08c.11-.2.22-.32.32-.37.37-.18.72-.5.4-.9-.2-.27-.48-.24-.8-.2l-.23.01c-.39.02-1.03-.2-1.04-.65v-.04l.04-.03a.1.1 0 0 1 .09 0c.16.08.27.1.35.09l.2-.08a.2.2 0 0 1 .12 0l.75.17a.06.06 0 0 0 .04 0l.02-.02V22l.02-.03-.01-.06a.08.08 0 0 0-.05-.04 1.3 1.3 0 0 1-.33-.13c-.38-.32-.92-.42-1.34-.08a.07.07 0 0 1-.1-.01.06.06 0 0 1-.02-.04c0-.59.39-.93 1.02-.86.18.01.33-.05.44-.2.28-.34 1.4-.22 1.8-.1a.1.1 0 0 0 .08-.02l.02-.04.01-.04-.02-.23.01-.06a.11.11 0 0 1 .05-.05.12.12 0 0 1 .13.02c.2.17.36.35.46.52a.6.6 0 0 0 .15.17c.63.5 1.04 1.05 1.12 1.86a6.06 6.06 0 0 1-.46 3.02.09.09 0 0 1-.06.01 1.1 1.1 0 0 0-.95.2c-.23.17-.47.37-.71.6v.01h.01l.22-.1.02-.02c.27-.26.47-.42.6-.49.43-.21.9-.1 1.37.03.53.14.94.04.98-.58.02-.2.02-.55 0-1.07 0-.35.17-.6.53-.74.3-.12.54-.19.72-.2a.1.1 0 0 1 .05 0l.03.02a.09.09 0 0 0 .08 0l.5-.27a.07.07 0 0 1 .08 0l.02.04v.05a.6.6 0 0 1-.48.34c-.13.02.82 2.07 2.05 2.58a.1.1 0 0 1 .04-.03.1.1 0 0 1 .06 0c.19.02.32.11.4.26v.1a.15.15 0 0 1-.06.09c-.79.52-1.21.6-1.47.65-.15.03-.25.05-.32.14-.18.2-1.48.77-1.87.93l-.1.05c-.09.04-.22.04-.4 0-.04-.01-.08 0-.11.02-.23.12-.51.01-.75-.12a.03.03 0 0 0-.03 0l-.01.01v.09l.01.01.46.25a.2.2 0 0 0 .2 0l.1-.05a.1.1 0 0 1 .1 0c.53.39.9.84 1.13 1.37.12.3.26.5.45.7.37.36.72.73 1.06 1.1.44.47.71.95.75 1.49v.01c.06.84.12 1.63 1.11 1.9.4.11.94-.03 1-.47.1-.82-.46-1.55-1.04-2.12-.55-.52-1-.99-1.37-1.39-.21-.23-.39-.48-.51-.73-.22-.43-.18-1.07-.04-1.53.2-.68.62-1.14 1.32-1.38 1-.34 2.09.19 2.13 1.26 0 .04 0 .08-.03.12l-.08.13c-.06.1-.13.2-.13.32 0 .13.02.23.08.3.35.45 1.04-.16.5-.43a.03.03 0 0 0-.03 0v.04c.15.14.13.28-.04.44a.16.16 0 0 1-.18.02c-.74-.43.33-1.04.71-.4.18.3.1.58-.27.86-.1.07-.2.1-.3.07l-.02-.01c-.24-.07-.51-.15-.68-.36a.65.65 0 0 1-.15-.59h-.01Zm-9.43-7.97v-.03l.15-.32.01-.01a.04.04 0 0 1 .03-.01h.01l.08.04c.06.02.1.05.15.08l.12.1.06.1v.09c-.03.05-.1.08-.19.08a.82.82 0 0 1-.32-.07l-.08-.03-.02-.02Z" fill="#173060"/><path d="M7.35 22.11a.15.15 0 0 0-.1-.02.8.8 0 0 1-.36-.03 5.89 5.89 0 0 1-1.03-.54.81.81 0 0 1-.2-.18c-.07-.09-.07-.15 0-.19 0-.15-.5-.46-.63-.93a.1.1 0 0 1 .01-.04.1.1 0 0 1 .12-.03l2.72 1.2a19.98 19.98 0 0 0 3.35 1.07.1.1 0 0 1 .04.09.1.1 0 0 1-.02.05c-.06.1-.05.18.02.26a.04.04 0 0 1 .01.04v.01l-.02.02h-.02a.05.05 0 0 1-.05 0c-1.6-.39-2.1-.39-3.84-.78Z" fill="#173060"/><path d="M5.7 22.39c-.26-.06-.43-.1-.5-.13a.2.2 0 0 1-.1-.09.09.09 0 0 0-.04-.03.1.1 0 0 0-.04-.01c-.42-.02-.75-.21-1-.58a.1.1 0 0 1 0-.12.11.11 0 0 1 .05-.04h.06c.05 0 .14.03.26.07 1 .32 2 .64 3 .9l.49.12c.52.16 1.39.3 2.61.44.04 0 .08.02.11.05.03.03.04.08.04.12v.03c.05.1-.03-.12.31.4a.04.04 0 0 1 0 .04l-.02.02h-.02c-.07.01-.14 0-.22-.03a.18.18 0 0 0-.1-.01c-.2.03-.37 0-.54-.07a.3.3 0 0 0-.11-.03c-2.55-.35-2.2-.55-4.25-1.05Z" fill="#173060"/><path d="M5.05 22.69a.25.25 0 0 1-.06-.04l-.22-.18a.1.1 0 0 1-.03-.04.1.1 0 0 1 .05-.12.25.25 0 0 1 .2-.03l1.12.34c1.15.35 2.31.64 3.47.87l.52.08c.07 0 .13.03.17.07.25.22.4.53.23.84-.4.52-.08.28.36.64l.07.05c.24.05.43.06.58.02h.06l.25.06a.1.1 0 0 1 .05.02.1.1 0 0 1 .03.1.1.1 0 0 1-.03.04c-.08.09-.1.18-.06.28a.07.07 0 0 1-.01.07l-.03.02h-.04c-.29-.01-.5-.04-.64-.07-.66-.4-1.8-.44-3.3-.8l-.01-.01c-.23-.15-.42-.14-.65-.25-.25-.12-.54-.21-.65-.4-.32-.6 1.59 0-.25-.45-.28-.14-.58-.24-.77-.48a2.44 2.44 0 0 0-.4-.64ZM13.02 22.9l.02.03v.05l-.02.02-.02.02-.03.01h-.03l-.32-.18a.13.13 0 0 0-.04-.01.6.6 0 0 0-.38.07c-.25.12-.48.04-.68-.09a.09.09 0 0 1-.03-.02l-.17-.3a.1.1 0 0 1 .01-.12.11.11 0 0 1 .13-.01c.35.2.74.32 1.19.36a.7.7 0 0 1 .37.18ZM14.8 25.66c-.24-.17-.18-1.03-.16-1.4a.86.86 0 0 0-.47-.86 2.31 2.31 0 0 0-.79-.3.19.19 0 0 1-.08-.03.71.71 0 0 1-.26-.31v-.05c0-.02.01-.03.03-.04a.08.08 0 0 1 .1 0l.33.25a.3.3 0 0 0 .14.06c.61.1 1.4.45 1.23 1.17l-.1.58a2.05 2.05 0 0 0 .07.92l-.01.01a.03.03 0 0 1-.03 0ZM13.05 24.14a.04.04 0 0 1-.02.03.04.04 0 0 1-.04.01c-.45-.16-.86-.18-1.21-.55a.13.13 0 0 1-.04-.1l.02-.06.04-.04c.05-.05.1-.11.14-.2a.03.03 0 0 0 0-.03.04.04 0 0 0-.05-.01.75.75 0 0 0-.26.15.08.08 0 0 0-.03.08c.02.06.02.1.01.15v.02a.06.06 0 0 1-.04.03h-.03c-.36-.1-.64-.29-.84-.58-.03-.04-.03-.08 0-.12a.15.15 0 0 1 .16-.05l.06.02.18.12c.03.02.07.03.1.03l1.07.1a.17.17 0 0 1 .12.05l.28.32.02.02.23.1a.05.05 0 0 1 .03.02.04.04 0 0 1 0 .04c-.14.25.07.25.1.45Z" fill="#173060"/><path d="m11.93 23.89.1.07.03.04v.03l-.04.03H12l-.54-.11a.15.15 0 0 0-.11.02.14.14 0 0 0-.04.04.13.13 0 0 0-.02.06l-.02.25-.01.02-.02.02a.05.05 0 0 1-.05 0l-.45-.22a.16.16 0 0 1-.06-.05 1.4 1.4 0 0 1-.21-.3.15.15 0 0 1 .04-.16.17.17 0 0 1 .17-.03c.1.04.2.04.33.02h.02l.86.24c.02 0 .04.02.05.03Z" fill="#173060"/><path d="m13.08 24.36-.04.42a.02.02 0 0 1-.01.01h-.01l-.58-.08a1.87 1.87 0 0 1-1.02-.42.12.12 0 0 1-.03-.07l.01-.07a.15.15 0 0 1 .05-.06.19.19 0 0 1 .15-.03 1.49 1.49 0 0 0 .53.06l.93.2.01.02v.02ZM11.76 24.59a.1.1 0 0 1 .04.04.1.1 0 0 1-.02.1.1.1 0 0 1-.06.03c-.15.03-.23.1-.22.23a.07.07 0 0 1-.02.05.07.07 0 0 1-.05.02c-.32 0-.54-.19-.76-.35a.15.15 0 0 1-.06-.08v-.1c.11-.22.41-.06.6-.07.2 0 .38.03.55.13ZM10.07 25.7a.04.04 0 0 0-.03.01.03.03 0 0 0-.01.03v.06l.44.05a.1.1 0 0 1 .06.03c.02.02.03.05.02.07V26c0 .02 0 .03-.02.04a.07.07 0 0 1-.05.02c-.33-.01-.62 0-.77-.12a.13.13 0 0 0-.08-.03c-.52 0-.74-.16-1.18-.31-.1-.04-.16-.1-.17-.17v-.08l.05-.06a.2.2 0 0 1 .15-.05c.56.08 1.16.17 1.8.3.22.04.42-.04.59.17l.05.04.06.01H11a.06.06 0 0 1 .05.02.05.05 0 0 1 .01.04c0 .04-.04.07-.1.1h-.03l-.86-.2ZM20.32 35.69l-.01-.02-.03-.01h-.02l-.02.02c-.06.18-.14.28-.36.29-.39.01-.68.02-.88.01-.8-.03-.86-.29-.8-1v-.3c-.04-.2-.08-.41-.08-.61A69.74 69.74 0 0 0 18 31.4c0-.05 0-.1.02-.14.08-.2.29-.37.37-.6.05-.12.08-.26.1-.42 0-.03.02-.06.04-.09a.18.18 0 0 1 .1-.05c.34-.08.68-.22 1.02-.4a.14.14 0 0 1 .17.03l.15.19c.01.02.03.04.03.07l.17.52v.1c-.33 1.06-.5 1.6-.56 2.51-.02.27-.07.43-.14.66a.33.33 0 0 0-.01.16c.14.73.45 1.02 1.17 1.2a.17.17 0 0 1 .13.14.58.58 0 0 1-.21.6.13.13 0 0 1-.11.02.12.12 0 0 1-.06-.03.1.1 0 0 1-.03-.05l-.03-.13Z" fill="#173060"/><path fill-rule="evenodd" d="M9.3 29.13c.19.37.1.65-.27.84-.15.08-.3.13-.46.15a.18.18 0 0 0-.12.07.17.17 0 0 0-.03.14c.04.19.48.12.58.06.63-.4.75-.9.38-1.55v-.01c.68.6.36 1.19-.22 1.66a.3.3 0 0 0-.08.1c-.15.3-.07.55.25.74a.07.07 0 0 0 .08-.01l.02-.03v-.04a.58.58 0 0 1-.08-.4c0-.03.02-.06.05-.08.32-.3.51-.66.58-1.1.02-.14.22-.1.18 0l-.03.03c-.05.03-.08.08-.07.16a.3.3 0 0 1-.13.28.09.09 0 0 0-.04.05l-.1.38v.02l.01.01a.04.04 0 0 0 .04 0c.81-1 .4-1.35-.03-1.73a4.2 4.2 0 0 1-.23-.24h.02c.15.08.3.12.46.12l.04-.02a.06.06 0 0 0 0-.09.07.07 0 0 0-.04-.02c-.12-.02-1.53-1.25-.18-.21.2.16.4.18.58.05.22-.15.32-.4.1-.61-.12-.12-.32-.14-.44-.04a.2.2 0 0 0-.05.25l.06.08a.3.3 0 0 0 .14.05h.03v.06l-.03.02c-.38.09-.58-.34-.3-.56.28-.23.64-.04.79.23a.3.3 0 0 0 .07.1l.34.26c.43.5.54 1.05.26 1.67-.17.38-.38.68-.63.9l-1.07.9A3.34 3.34 0 0 0 8.4 35c.04.3.2.55.47.76.6.46 1.73.15 2.32-.24a.06.06 0 0 1 .05 0 .06.06 0 0 1 .04.03c.13.31.39.45.77.43a7.6 7.6 0 0 0 1.1-.17c.1-.02.21-.02.32 0 .1 0 .21.02.32.04.46.07.92.13 1.48.1a.6.6 0 0 1 .13.01l.06.01.2.03a2940.58 2940.58 0 0 1 2.08-.02l.02-.04c.14-.45-.1-.68-.48-.96a.35.35 0 0 0-.18-.07c-.5-.04-.93 0-1.31.12a.54.54 0 0 1-.16.02c-.39 0-.75-.06-1.08-.2a.25.25 0 0 1-.12-.1.23.23 0 0 1-.03-.15c.02-.2.2-.39.4-.58a16.78 16.78 0 0 0 .15-.18c.1-.2.14-.4.18-.59.01-.1.03-.2.06-.28.13-.42.63-.67 1.02-.84a6.8 6.8 0 0 0 1.16-.65c.51-.35.82-.8.92-1.36.01-.05.04-.09.07-.12a.25.25 0 0 1 .13-.07 3.85 3.85 0 0 0 1.32-.52l.03.01.3.36c.03.05.05.1.06.16l.03.42.02.05a.1.1 0 0 0 .14 0c.62-.58.76-1.2.45-1.86a.4.4 0 0 1-.04-.16c0-1.02-.14-1.44-.65-2.27a8.06 8.06 0 0 0-1.2-1.46 1 1 0 0 0-.34-.16 3.41 3.41 0 0 1-1.24-.77.56.56 0 0 0-.16-.1c-.24-.11-.31-.27-.42-.5l-.06-.11a1.14 1.14 0 0 0-.26-.28c-.28-.24-.38-.57-.3-.98v-.02h.04l.03.01.01.03c-.02.35.1.64.34.88a.1.1 0 0 0 .04.03.1.1 0 0 0 .1-.02.1.1 0 0 0 .03-.05l.08-.27c0-.01 0-.02.02-.03a.05.05 0 0 1 .06 0l.01.04c0 .12-.02.25-.08.4a.13.13 0 0 0 0 .1 5 5 0 0 1 .01.06c.08.22.2.59.47.46a.05.05 0 0 1 .04 0 .05.05 0 0 1 .03.02c.04.14.15.23.27.32.07.06.15.12.2.2l.13.1c.17.08.35.18.56.31a.3.3 0 0 0 .19.06l.04-.02.03-.03a.08.08 0 0 0 0-.08 1.9 1.9 0 0 0-.58-.56v-.02h.02l.41.23c.18.09.21.24.25.39.02.1.05.2.12.3a35.7 35.7 0 0 0 .4.41.08.08 0 0 0 .08 0l.03-.03.01-.02a.1.1 0 0 0 0-.13l-.35-.42a.1.1 0 0 1-.02-.07l.02-.22-.01-.08c-.11-.2-.22-.32-.32-.37-.37-.18-.72-.5-.4-.9.2-.27.48-.24.8-.2l.23.01c.39.02 1.03-.2 1.04-.65v-.04a.09.09 0 0 0-.04-.03.1.1 0 0 0-.09 0c-.16.08-.27.1-.35.09l-.2-.08a.2.2 0 0 0-.12 0l-.75.17a.06.06 0 0 1-.04 0l-.02-.02V22l-.02-.03.01-.06a.08.08 0 0 1 .05-.04c.18-.06.29-.1.33-.13.39-.32.92-.42 1.34-.08a.07.07 0 0 0 .1-.01l.02-.04c0-.59-.39-.93-1.02-.86a.48.48 0 0 1-.44-.2c-.28-.34-1.4-.22-1.8-.1a.1.1 0 0 1-.08-.02.08.08 0 0 1-.03-.07l.02-.24a.1.1 0 0 0-.01-.06.11.11 0 0 0-.05-.05.12.12 0 0 0-.13.02c-.2.17-.36.35-.46.52a.6.6 0 0 1-.15.17 2.62 2.62 0 0 0-1.12 1.86 6.06 6.06 0 0 0 .46 3.02c.02.01.04.02.06.01.34-.08.65-.01.95.2.23.17.47.37.71.6v.01h-.01l-.22-.1-.02-.02a3.08 3.08 0 0 0-.6-.49c-.43-.21-.9-.1-1.37.03-.53.14-.94.04-.98-.58-.02-.2-.02-.55 0-1.07 0-.35-.17-.6-.53-.74-.3-.12-.54-.19-.72-.2a.1.1 0 0 0-.05 0l-.03.02a.09.09 0 0 1-.08 0l-.5-.27a.07.07 0 0 0-.08 0 .07.07 0 0 0-.02.08c.1.2.26.32.48.35.13.02-.82 2.07-2.05 2.58a.1.1 0 0 0-.04-.03.1.1 0 0 0-.06 0c-.19.02-.32.11-.4.26a.14.14 0 0 0 0 .1c0 .04.03.07.06.09.79.52 1.21.6 1.47.65.15.03.25.05.32.14.18.2 1.48.77 1.87.93l.1.05c.09.04.22.04.4 0 .04-.01.08 0 .11.02.23.12.51.01.75-.12a.03.03 0 0 1 .03 0l.01.01v.09l-.01.01-.46.25a.2.2 0 0 1-.2 0l-.1-.05a.1.1 0 0 0-.1 0c-.53.39-.9.84-1.13 1.37-.12.3-.26.5-.45.7-.37.36-.72.73-1.06 1.1-.44.47-.71.95-.75 1.49v.01c-.06.84-.12 1.63-1.11 1.9-.4.11-.94-.03-1-.47-.1-.82.46-1.55 1.04-2.12.55-.52 1-.99 1.37-1.39.21-.23.39-.48.51-.73.22-.43.18-1.07.04-1.53a1.95 1.95 0 0 0-1.32-1.38c-1-.34-2.09.19-2.13 1.26 0 .04 0 .08.03.12l.08.13c.06.1.13.2.13.32 0 .13-.02.23-.08.3-.35.45-1.04-.16-.5-.43a.03.03 0 0 1 .03 0 .02.02 0 0 1 0 .04c-.15.14-.13.28.04.44a.16.16 0 0 0 .19.01c.73-.42-.33-1.03-.72-.4-.18.3-.1.6.27.87.1.07.2.1.3.07l.02-.01c.24-.07.51-.15.68-.36a.65.65 0 0 0 .15-.59h.01Zm9.43-7.97v-.03l-.15-.32-.01-.01a.04.04 0 0 0-.03-.01h-.01l-.08.04a.94.94 0 0 0-.15.08.63.63 0 0 0-.12.1.29.29 0 0 0-.06.1.12.12 0 0 0 0 .09c.03.05.1.08.19.08.1 0 .21-.02.32-.07l.08-.03.02-.02Z" fill="#173060"/><path d="M31.68 27.5c-.25 2.77-6.4 6.79-9.43 8.45h3.41c4.68-2.51 6.83-5.98 6.83-6.93 0-.96-.9-1.6-.8-1.52ZM24.17 28.45c.25-2.77 6.4-6.79 9.44-8.45h-3.42c-4.67 2.51-6.83 5.98-6.83 6.94 0 .95.9 1.6.8 1.51Z" fill="#081A48"/><path d="M27.73 22.12v4.33l-1.98-1.99-.32.3 2.3 2.3v1.38l-3.26-3.17-.32.3 3.58 3.5v1.2l-3.26-3.18-.32.3 3.58 3.5v1.85h.45v-1.86l3.62-3.49-.32-.3-3.3 3.18v-1.2l3.62-3.5-.32-.3-3.3 3.18v-1.38l2.43-2.3-.32-.3-2.11 1.99v-4.34h-.45Z" fill="#081A48"/><path d="M26.02 20h-3.64c.63.5 2.67 2.05 5.8 4.16 3.13 2.12 4.15 4.18 4.27 4.94 1.47-2.84-3.67-7.25-6.43-9.1ZM29.83 35.95h3.64c-.63-.5-2.67-2.05-5.8-4.16-3.12-2.12-4.14-4.18-4.26-4.94-1.48 2.84 3.67 7.25 6.42 9.1Z" fill="#1E376D"/></svg>