<!-- by TradeStack --><svg width="56" height="56" viewBox="0 0 56 56" xmlns="http://www.w3.org/2000/svg"><path fill="#F0F3FA" d="M0 0h56v56H0z"/><path d="m18.66 28.54.37-.54h5l.35.54h-5.72Zm-.19.28-.36.54h6.81l-.35-.54h-6.1Zm6.63.82h-7.18l-.36.54h7.9l-.36-.54Zm.54.82h-8.27L17 31h9l-.36-.54Z" fill="#84BF44"/><path d="M20.03 27.06 17.72 24l4.25 3.52L27 24.75l-4.47 3.7-2.5-1.39Z" fill="#A6AAAE"/><path d="M21.5 29 17 24.18l4.8 3.2 4.78-3.2L22.11 29h-.62Z" fill="#0A75BA"/><path fill-rule="evenodd" d="M4 31v-7h2.63A3.39 3.39 0 0 1 10 27.4v.2c0 1.88-1.51 3.4-3.37 3.4H4Zm.75-.75v-5.5h1.84a2.7 2.7 0 0 1 2.66 2.75 2.7 2.7 0 0 1-2.66 2.75H4.75ZM16 31h-5v-7h5v.66h-4.3V27h3.8v.7h-3.8v2.64H16V31Zm11 0h4.59v-.66H27.7v-2.6H31V27h-3.3v-2.34h3.89V24H27v7Zm5.98 0h-.68v-7h3.02c.69.02 2.05.42 2.05 1.86 0 1.07-.8 1.52-1.48 1.7L37.73 31h-.82l-1.74-3.3.05-.01-.28.01h-1.96V31Zm.02-4v-2.3h2.25c.46.03 1.39.3 1.39 1.23 0 .93-.8 1.07-1.4 1.07H33Zm8.5 4a3.5 3.5 0 1 0 0-7 3.5 3.5 0 0 0 0 7Zm0-.7a2.8 2.8 0 1 0 0-5.6 2.8 2.8 0 0 0 0 5.6Zm5.2.7H46v-7h.75l4.55 5.84V24h.7v7h-.76l-4.54-5.72V31Z" fill="#0A75BA"/></svg>