<?xml version='1.0' encoding='utf-8'?>
<!-- by TradeStack -->
<svg width="56" height="56" viewBox="0 0 56 56" xmlns="http://www.w3.org/2000/svg"><path fill="url(#ac2t0nw22)" d="M0 0h56v56H0z" /><path d="M27.13 12h-9.42A3.75 3.75 0 0 0 14 15.8v4.05c5.38-1.06 9.38 2.41 10.74 4.33 1.84-3.35 2.35-9.25 2.4-12.18ZM14 21.94v6.64a7.22 7.22 0 0 0 9.59-2.56A8.63 8.63 0 0 0 14 21.94Zm0 9.08v9.18c0 2.1 1.66 3.8 3.71 3.8H27c-.17-7.57-1.56-13.78-2.25-15.97-3.4 4.06-8.32 3.75-10.74 2.99ZM28.86 44h9.43c2.05 0 3.71-1.7 3.71-3.8v-9.23c-2.37.8-7.43 1.2-10.89-2.94-.69 2.19-2.07 8.4-2.25 15.97ZM42 28.5v-6.52a8.63 8.63 0 0 0-9.73 4.04c1.15 1.9 4.68 4.99 9.73 2.49Zm0-8.62c-5.45-1.15-9.52 2.36-10.89 4.3-1.84-3.35-2.35-9.25-2.4-12.18h9.58c2.05 0 3.71 1.7 3.71 3.8v4.08Zm-16.16 6.14c.46-.83 1.5-3.03 2.09-5.47A24.19 24.19 0 0 0 30 26.02c-.83 2.1-1.7 5.83-2.08 7.71a57.52 57.52 0 0 0-2.09-7.71Z" fill="#A8A8AA" /><defs><linearGradient id="ac2t0nw22" x1="10.42" y1="9.71" x2="68.15" y2="76.02" gradientUnits="userSpaceOnUse"><stop stop-color="#1A1E21" /><stop offset="1" stop-color="#06060A" /></linearGradient></defs></svg>