<?xml version='1.0' encoding='utf-8'?>
<!-- by TradeStack -->
<svg width="56" height="56" viewBox="0 0 56 56" xmlns="http://www.w3.org/2000/svg"><path fill="#F0F3FA" d="M0 0h56v56H0z" /><path d="M31.07 18.63c.27-.31.56-.59.88-.84A24.4 24.4 0 0 1 34.51 16h.04a.12.12 0 0 1 .1.12l-.02.06-1.84 3.14a.13.13 0 0 1-.16.05l-1.55-.67-.01-.02-.01-.02v-.03ZM31.7 16.52l-2.25 1.65a.09.09 0 0 1-.07.02l-2.77-.4a.09.09 0 0 1-.06-.14.09.09 0 0 1 .06-.04l5-1.25h.07l.04.05a.09.09 0 0 1-.03.1ZM35.25 21l-1.4-.94a.12.12 0 0 1-.05-.15 18.5 18.5 0 0 1 2.1-3.39h.04l.02.03v.03l-.65 4.4a.04.04 0 0 1-.04.03h-.02Z" fill="#002148" /><path d="M28.18 18.95a.07.07 0 0 1 .05.05v.04l-.02.03-3.13 2.32a.19.19 0 0 1-.16.03 37.28 37.28 0 0 0-7.33-1.32.1.1 0 0 1-.03-.1.1.1 0 0 1 .03-.05 323.72 323.72 0 0 0 5.76-1.47 6.1 6.1 0 0 1 2.5.06c.26.06 1.03.2 2.33.4Z" fill="#235788" /><path d="M38.21 24.45a.03.03 0 0 1-.02.04.03.03 0 0 1-.04-.01l-1.64-2.15a.57.57 0 0 1-.12-.37 8.94 8.94 0 0 1 .46-2.5.05.05 0 0 1 .06.01l.02.03 1.28 4.95Z" fill="#002148" /><path d="M26.5 21.92a.04.04 0 0 1-.02-.03.04.04 0 0 1 .01-.04l2.9-2.2c.2-.14.45-.15.77-.03a29.5 29.5 0 0 1 1.67.75v.04l-1.74 2.96a.14.14 0 0 1-.16.06c-.6-.23-1.08-.57-1.75-.81-.37-.14-.93-.37-1.68-.7Z" fill="#235788" /><path d="M8.1 22.47a.11.11 0 0 1-.07-.03.11.11 0 0 1 .05-.19c3.58-.91 5.6-1.42 6.07-1.52.13-.03.33-.04.62-.03a34.84 34.84 0 0 1 8.83 1.59.13.13 0 0 1 .02.13c0 .02-.02.04-.04.05l-2.8 2.09a.7.7 0 0 1-.63.1 48.8 48.8 0 0 0-12.05-2.2Z" fill="#78B6E2" /><path d="m35.1 22.38-.57 3.82a.05.05 0 0 1-.03.04.05.05 0 0 1-.05 0l-3.21-2.17a.05.05 0 0 1-.01-.07l1.86-2.94a.05.05 0 0 1 .03-.03h.02l.02.01 1.92 1.3a.05.05 0 0 1 .03.04Z" fill="#235788" /><path d="M22.03 25.2H22a.05.05 0 0 1 0-.08l3.07-2.27a.23.23 0 0 1 .2-.03 25.85 25.85 0 0 1 4.1 1.78v.06l-1.7 2.9a.14.14 0 0 1-.18.05l-5.47-2.4Z" fill="#78B6E2" /><path d="M40.56 33.55c0 .02 0 .03-.02.04a.06.06 0 0 1-.06.01 24.12 24.12 0 0 0-4.69-6.12c-.15-.13-.2-.35-.15-.65a185.56 185.56 0 0 0 .48-3.12.2.2 0 0 1 .26-.06c.12.06.23.16.33.3.24.32.94 1.3 2.09 2.94.07.1.12.2.15.32l1.59 6.13c.02.07.02.14.02.21Z" fill="#235788" /><path d="m28.89 28.21 1.74-2.97a.06.06 0 0 1 .03-.03.06.06 0 0 1 .05.01l3.23 2.24c.24.17.34.37.3.62a105.97 105.97 0 0 1-.53 3.38.12.12 0 0 1-.1.04c-.03 0-.05 0-.06-.02l-4.63-3.11a.12.12 0 0 1-.05-.07c0-.03 0-.06.02-.09ZM43 42.96a.03.03 0 0 1-.01.03.03.03 0 0 1-.03 0l-.12-.03c-.2-.43-.32-.84-.62-1.26-.11-.15-.63-.95-1.56-2.4a29.13 29.13 0 0 0-5.27-6.15 1.34 1.34 0 0 1-.48-1.35 15.7 15.7 0 0 0 .34-2.35l.13-.6a.08.08 0 0 1 .06-.07.08.08 0 0 1 .08.02 24.38 24.38 0 0 1 5.82 7.72L43 42.96Z" fill="#78B6E2" /></svg>