<?xml version='1.0' encoding='utf-8'?>
<!-- by TradeStack -->
<svg width="56" height="56" viewBox="0 0 56 56" xmlns="http://www.w3.org/2000/svg"><path fill="#F0F3FA" d="M0 0h56v56H0z" /><path d="M14 22h15.38L39 26v15h-4.93V26h-4.7c.59.6 1.63 2.25 1.63 5.23 0 3.71-.54 9.77-9.86 9.77H14V22Zm5 3.55v12h2.41c2.54 0 4.59-2.25 4.59-5.04V30.6c0-2.79-2.05-5.04-4.59-5.04H19ZM29.37 21l-9.22-3.58 9-5.42L44 21H29.37Z" fill="#333" /><path d="M26.7 21H14l5.05-3 7.65 3Zm17.29 1H31.94l9.11 4H44v-4Z" fill="#FAD406" /></svg>