<!-- by TradeStack --><svg width="56" height="56" viewBox="0 0 56 56" xmlns="http://www.w3.org/2000/svg"><path fill="#F0F3FA" d="M0 0h56v56H0z"/><path d="M13 33v4h-1v-4h1Z" fill="#011B26"/><circle cx="12.5" cy="31.5" r=".5" fill="#011B26"/><path d="M20 33v4h-1v-4h1Z" fill="#011B26"/><circle cx="19.5" cy="31.5" r=".5" fill="#011B26"/><path d="M24.66 25.51H25V13l-2 2.5v9.2c.52.33 1.07.6 1.66.81Z" fill="url(#as4jvjiof)"/><path d="M33.96 23.01c.03-.19.04-.36.04-.5v-2c-.17-1.17-.6-3.5-3-3.5-.67 0-1.5 0-2 .5V15h5V13h-7v7h2c.17-.33.7-1 1.5-1s1.5 1 1.5 2v1.5c0 .5-.3 1.51-1.5 1.51S29 22.5 29 22h-2c0 1.13 0 3.23 2.13 3.84a8.5 8.5 0 0 0 4.83-2.83Z" fill="url(#bs4jvjiof)"/><path d="M27.5 27a8.5 8.5 0 0 0 7.22-13 9 9 0 1 1-15.69 5.23A8.5 8.5 0 0 0 27.5 27Z" fill="url(#cs4jvjiof)"/><path d="M8 37H6.59v-.5H8c1.1 0 2-1.1 2-2.5s-.87-2.52-1.98-2.52H6.56V31h1.46C9.68 31 11 32.3 11 34s-1.33 3-3 3Zm-1-6v6H6v-6h1ZM32 37h-1v-4h1v4Zm-.28-2h-.33c0-1.07 1.05-2 2.11-2 .93 0 1.5.57 1.5 1.5V37h-1v-2.5c0-1-.55-1-1-1-.62 0-1.28.91-1.28 1.5ZM16.5 36l1-3h.5l-1.45 4h-.38l.33-1Zm-1.3-3 1.35 4h-1.1L14 33h1.2ZM39 31h1v6h-1v-6Zm-3 4c0-1.07.8-2 2-2 .81 0 1.5 1 1.5 2s-.37 2-1.5 2a2 2 0 0 1-2-2Zm1 0c0 .56.36 1.5 1.04 1.5.59 0 .94-.4.96-1.5.02-1-.39-1.5-1-1.5-.6 0-1 .5-1 1.5ZM24 31h1v6h-1v-6Zm-3 4c0-1.07.8-2 2-2 .81 0 1.5 1 1.5 2s-.37 2-1.5 2a2 2 0 0 1-2-2Zm1 0c0 .56.36 1.5 1.04 1.5.59 0 .94-.4.96-1.5.02-1-.39-1.5-1-1.5-.6 0-1 .5-1 1.5ZM28 37c-1.1 0-2-.8-2-2.01 0-1.2.83-1.99 2-1.99 1.13 0 2 .85 2 2h-3.5v-.37H29c0-.46 0-1.13-1-1.13s-1 .95-1 1.5c0 1 .5 1.5 1.5 1.5.5 0 .73-.2 1.07-.44l.33.24c-.4.5-1.28.7-1.9.7ZM45 31v6h-1v-5l-1 .5V32l1.85-1H45ZM46.5 34h-.48L46 31h3.5v1h-3v1.5S47 33 48 33c1.17 0 2 .91 2 2.02 0 1.17-.84 1.98-2 1.98-.5 0-1.5 0-2-1h.48c.52.5 1.02.5 1.52.5.63 0 1-.5 1-1.5s-.5-1.5-1-1.5c-1 0-1.5.5-1.5.5ZM6 29.5h44v.5H6v-.5ZM6 38h44v.5H6V38Z" fill="#011B26"/><defs><linearGradient id="as4jvjiof" x1="22.67" y1="20.01" x2="25" y2="20.01" gradientUnits="userSpaceOnUse"><stop stop-color="#A77707"/><stop offset="1" stop-color="#E8AA30"/></linearGradient><linearGradient id="bs4jvjiof" x1="26.5" y1="19" x2="34.5" y2="19" gradientUnits="userSpaceOnUse"><stop stop-color="#B4810F"/><stop offset="1" stop-color="#E6A82F"/></linearGradient><linearGradient id="cs4jvjiof" x1="24" y1="28.01" x2="38.01" y2="17.52" gradientUnits="userSpaceOnUse"><stop stop-color="#000415"/><stop offset=".53" stop-color="#3C6A7A"/><stop offset=".72" stop-color="#AEC5CE"/><stop offset=".85" stop-color="#426D7F"/><stop offset="1" stop-color="#022430"/></linearGradient></defs></svg>