<!-- by TradeStack --><svg width="56" height="56" viewBox="0 0 56 56" xmlns="http://www.w3.org/2000/svg"><path fill="#F0F3FA" d="M0 0h56v56H0z"/><path d="M25.52 11.58a5.61 5.61 0 0 1 5 .01l10.35 5.2A5.53 5.53 0 0 1 44 21.52v12.5c.02 2-1.1 3.85-2.9 4.8l-10.47 5.52c-1.63.87-3.6.87-5.23 0l-10.5-5.54a5.37 5.37 0 0 1-2.9-4.74V21.58c0-2.03 1.17-3.9 3.02-4.8l10.5-5.2Zm4.53.88a4.6 4.6 0 0 0-4.08 0l-10.5 5.19A4.4 4.4 0 0 0 13 21.58v12.49c0 1.62.91 3.1 2.37 3.88l10.5 5.54c1.34.7 2.95.7 4.28 0l10.48-5.53A4.4 4.4 0 0 0 43 34.04v-12.5a4.53 4.53 0 0 0-2.59-3.88l-10.36-5.2Z" fill="#0A195D"/><path fill-rule="evenodd" d="M15 22.84v10.04c0 1.72.96 3.31 2.5 4.14l8.2 4.4c1.44.77 3.19.77 4.63 0l8.17-4.38a4.7 4.7 0 0 0 2.5-4.2l-.1-10.06a4.7 4.7 0 0 0-2.6-4.13l-8.07-4.12a4.91 4.91 0 0 0-4.43 0l-8.18 4.1a4.7 4.7 0 0 0-2.62 4.2ZM23.98 20l-.5 3h6.47c3.19 0 4.42 1.82 3.98 4-1 5-4.97 6-6.96 6H21.5l-.5 3h5.97c3.98 0 8.95-2 9.95-9 .8-5.6-4.31-7-6.97-7h-5.97Zm2.52 7H21l.5-3H27l-.5 3Zm-1 5H20l.5-3H26l-.5 3Z" fill="#2EA4FE"/></svg>