<!-- by TradeStack --><svg width="56" height="56" viewBox="0 0 56 56" xmlns="http://www.w3.org/2000/svg"><path fill="url(#aaf0db2ik)" d="M0 0h56v56H0z"/><path d="M5.85 21c1.8 0 3.16 1.17 3.16 3.01 0 1.86-1.36 2.99-3.16 2.99H4v-6h1.85Zm0 5C7 26 8 25.45 8 24.01 8 22.58 7 22 5.85 22H5v4h.85ZM11 22v1.5h1.99v1H11V26h1.99v1H10v-6h2.99v1H11ZM17 27l-1.42-2H15v2h-1v-6h2c1.07 0 2 .6 2 2 0 .87-.6 1.76-1.43 1.94l1.5 2.06H17Zm-2-3h1c.5 0 1-.5 1-1s-.35-1-1-1h-1v2ZM26.5 21 25 27h-1l-1.5-4.5L21 27h-1l-1.5-6h.98l1.02 4.5L22 21h1l1.5 4.5 1-4.5h1ZM28 22v1.5h2v1h-2V26h2v1h-3v-6h3v1h-2ZM36.01 27H35l-3-4.5V27h-1v-6h1l3 4.5V21h1.01v6ZM42 21v1h-2v5h-1v-5h-2v-1h5ZM19 34.05h2V35h-3v-6h1v5.05ZM33 35h-1l-3-4.5V35h-1v-6h1l3 4.5V29h1v6ZM36 29a2.9 2.9 0 0 1 3.04 3.02c0 1.8-1.28 2.98-3.04 2.98h-2v-6h2Zm0 5c1-.05 2-.5 2-1.98 0-1.43-1-2.02-2-2.02h-1v4h1ZM52 35h-1l-3-4.5V35h-1v-6h1l3 4.5V29h1v6Z" fill="#F0F3FA"/><path fill-rule="evenodd" d="M43 34a2 2 0 1 0 0-4 2 2 0 0 0 0 4Zm0 1a3 3 0 1 0 0-6 3 3 0 0 0 0 6ZM24 34a2 2 0 1 0 0-4 2 2 0 0 0 0 4Zm0 1a3 3 0 1 0 0-6 3 3 0 0 0 0 6Z" fill="#F0F3FA"/><defs><linearGradient id="aaf0db2ik" x1="15.5" y1="6" x2="38" y2="44.5" gradientUnits="userSpaceOnUse"><stop stop-color="#304E6A"/><stop offset="1" stop-color="#5B7185"/></linearGradient></defs></svg>