<!-- by TradeStack --><svg width="56" height="56" viewBox="0 0 56 56" xmlns="http://www.w3.org/2000/svg"><path fill="#F0F3FA" d="M0 0h56v56H0z"/><path d="M38 41.59a16.33 16.33 0 0 1-20 0c2.1-.62 4-1.74 5.56-3.22a10.84 10.84 0 0 0 8.88 0A13.74 13.74 0 0 0 38 41.6ZM38 14.41c-2.1.62-4 1.74-5.56 3.22a10.84 10.84 0 0 0-8.88 0A13.74 13.74 0 0 0 18 14.4a16.33 16.33 0 0 1 20 0Z" fill="#806434"/><path d="M16 40v-6.3c6.03-.18 9.11-5.2 9.9-7.7 1.03 10.22-6.17 13.6-9.9 14Z" fill="url(#a)"/><path d="M16 16.01v6.27c5.75.65 5.06 6.09 4 8.72 3.83-2.47 4.93-5.93 5-7.34-1.88-6.46-6.79-7.8-9-7.65Z" fill="url(#b)"/><path d="M40 16v6.3c-6 .18-9.11 5.2-9.9 7.7-1.03-10.22 6.18-13.6 9.9-14Z" fill="url(#c)"/><path d="M40 39.99v-6.27c-3.59-.41-4.83-2.71-4.86-5.02-.02-1.36.32-2.72.71-3.7-3.8 2.47-4.78 5.93-4.85 7.34 1.87 6.46 6.8 7.8 9 7.65Z" fill="url(#d)"/><defs><linearGradient id="a" x1="26" y1="33" x2="16" y2="33" gradientUnits="userSpaceOnUse"><stop stop-color="#C2AB79"/><stop offset="1" stop-color="#9B8556"/></linearGradient><linearGradient id="b" x1="16" y1="16.82" x2="21.4" y2="28.97" gradientUnits="userSpaceOnUse"><stop stop-color="#D3C17E"/><stop offset="1" stop-color="#8A703D"/></linearGradient><linearGradient id="c" x1="30" y1="23" x2="39.97" y2="23" gradientUnits="userSpaceOnUse"><stop stop-color="#C2AB79"/><stop offset="1" stop-color="#9B8556"/></linearGradient><linearGradient id="d" x1="39.93" y1="39.18" x2="34.5" y2="27.06" gradientUnits="userSpaceOnUse"><stop stop-color="#D3C17E"/><stop offset="1" stop-color="#8A703D"/></linearGradient></defs></svg>