<?xml version='1.0' encoding='utf-8'?>
<!-- by TradeStack -->
<svg width="56" height="56" viewBox="0 0 56 56" xmlns="http://www.w3.org/2000/svg"><path fill="#F0F3FA" d="M0 0h56v56H0z" /><path fill-rule="evenodd" d="M9 21h2v10H9v-.9c-.53.56-1.23.9-2 .9-1.66 0-3-1.2-3-3.5S5.34 24 7 24c.77 0 1.47.34 2 .9V21Zm-1.5 4.8c.83 0 1.5.76 1.5 1.7s-.67 1.7-1.5 1.7S6 28.62 6 27.5s.67-1.7 1.5-1.7Zm6.24-1.8h-2.26l2.76 6.45-.42 1.18c-.3.78-.78 1.63-1.44 1.63-.52 0-.8-.26-.89-.4l-.26 1.86c.25.1.92.28 1.55.28 1.54 0 2.23-1.42 2.38-2.13l3.29-8.84H16.5L15 28.31 13.74 24ZM21 24h-2v7h2v-4.16c.2-.52.58-1.13 1.14-1.13.74 0 .82.77.86 1.15V31h2v-4.84c0-.8-.49-2.16-2.03-2.16-.97 0-1.63.65-1.97 1.19V24Zm6.3 2.29-.99-1A3.3 3.3 0 0 1 28.98 24c2.36 0 3 1.45 3.02 2.17V31h-2v-.98c-.4.52-1.03.98-1.93.98-1.57 0-2.03-1.3-2.07-1.94 0-2.15 2.52-2.58 4-2.53-.01-.54-.14-1.1-1.02-1.1-.75 0-1.43.58-1.68.86Zm2.7 1.4v1.14c-.24.33-.65.7-1.15.7-.85 0-.97-.65-.97-.82 0-.18.08-.8 1.26-.95.35-.05.63-.07.86-.07Zm5.47 2.54c-.75 0-1.56-.83-1.87-1.25l-.6.68c.34.44 1.32 1.34 2.53 1.34 1.72-.03 2.19-1.31 2.2-1.96 0-1.42-1.38-1.76-2.26-1.88-.88-.11-1.48-.62-1.48-1.19s.33-1.27 1.38-1.27c.83 0 1.38.72 1.54 1.07l.65-.53A2.45 2.45 0 0 0 35.53 24c-.76-.02-2.27.32-2.27 1.85 0 1.69 1.24 1.9 2.2 2.06l.3.06c.97.19 1.15.6 1.15 1.07 0 .47-.5 1.2-1.44 1.2Zm3.68-.46v-4.92h-1.5V24h1.5v-2H40v2h1.65v.85H40v4.52c0 .35.2.72.86.72.54 0 .79-.29.85-.43v1.01c-.18.11-.63.33-1.05.33-1.22 0-1.5-.82-1.51-1.23ZM43.19 25l.5.54c.23-.27.92-.8 1.96-.8 1.3 0 1.53.85 1.53 1.3v.62c-.26.13-.81.33-1.47.33-.94 0-2.71.33-2.71 2.19.03.6.47 1.83 1.98 1.83 1.13 0 1.84-.57 2.2-1.07v1.05H48v-5.12c-.05-.62-.58-1.86-2.35-1.86-1.13 0-2.11.66-2.46.99Zm4 3.8V27.5c-.4.12-1.27.26-2.21.4-1.03.14-1.25.88-1.23 1.27.08.37.45 1.13 1.33 1.13 1.2 0 1.85-.88 2.1-1.51ZM49 24h.8v1.15c.27-.48.96-1.15 2.2-1.15v.96c-.52-.11-1.64.06-2.2 1.54V31H49v-7Z" fill="#050708" /></svg>