<!-- by TradeStack --><svg xmlns="http://www.w3.org/2000/svg" width="56" height="56" viewBox="0 0 56 56"><path fill="#F0F3FA" d="M0 0h56v56H0z"/><path d="M27 16v3H15v18h12v3h-5.45L17 44v-4h-5V16h15Z" fill="#ED1B5E"/><path d="M28 16v3h11.27v17.02l-.21.8L28 37v3h16V16H28Z" fill="#99005A"/><path d="M28 15.82V19l11-2.71v17.44L28 37v3l14-3.82V12l-14 3.82Z" fill="#ED1B5E"/><path fill-rule="evenodd" d="M18 23v4h1.65c1.02 0 1.85-.84 1.85-1.88v-.24c0-1.04-.83-1.88-1.85-1.88H18Zm.84.71v2.58h.83c.52 0 .93-.55.93-1.22v-.14c0-.67-.41-1.22-.93-1.22h-.83ZM32 27h-1.17l-.27-.38c-.2.12-.7.38-1.18.38-.6 0-1.38-.3-1.38-1.02 0-.57.56-.98.83-1.12-.09-.06-.26-.31-.26-.76 0-.56.5-1.1 1.16-1.1.54 0 .96.45 1.1.68l-.56.42c-.1-.14-.36-.42-.54-.42a.43.43 0 0 0-.43.42c0 .22.08.39.12.44l1.14 1.17c.18-.16.26-.66.27-.89h.7c0 .7-.31 1.15-.47 1.3L32 27Zm-1.84-.82-.99-.96c-.15.16-.45.55-.23.92.23.37.9.27 1.22.04ZM18 32v-4h1.65c1.02 0 1.85.84 1.85 1.88v.24c0 1.04-.83 1.88-1.85 1.88H18Zm.85-.71V28.7h.83c.51 0 .93.55.93 1.22v.14c0 .67-.42 1.22-.93 1.22h-.83Zm2.7-7.29h.88l.57 1.47.57-1.47h.83l-1.52 3.5h-.8l.52-1.28L21.55 24ZM27 26.44l-.43-.42c-.09.12-.34.36-.65.36-.38 0-.7-.26-.7-.73H27c.02-.55-.19-1.65-1.24-1.65s-1.28 1.1-1.26 1.65c.02.45.32 1.35 1.37 1.35.27 0 .87-.1 1.13-.56Zm-1.79-1.25h1.1c0-.33-.24-.6-.53-.6h-.03c-.3 0-.54.27-.54.6ZM22.92 32h.09c.14 0 .48-.08.74-.36V32h.75v-3h-.75v2.08c-.03.1-.18.3-.57.3a.35.35 0 0 1-.34-.35V29H22v2.04c0 .53.41.96.92.96Zm5.84-2.89h.08c.52 0 .93.42.93.93V32H29v-1.95c0-.19-.22-.34-.4-.34-.4 0-.58.2-.6.29v2h-.73v-4H28v1.46c.26-.27.62-.34.76-.35Zm5.67-.11h.08c.3 0 .58.17.74.44l.08-.08c.24-.28.57-.36.7-.36h.09c.48 0 .88.43.88.96V32h-.8v-2.03c0-.2-.14-.35-.32-.35-.28 0-.43.1-.5.2l.01.14V32h-.8v-2.03c0-.2-.15-.35-.32-.35-.39 0-.53.2-.55.3V32H33v-3h.72v.36c.24-.28.57-.36.7-.36Zm-8.73 3H25v-3h.7v.41c.34-.32.92-.4 1.08-.41v.73c-.47 0-1.01.21-1.08.32V32Zm5.15-2.01-.55-.54a2.6 2.6 0 0 1 1.25-.45c.93 0 1.18.66 1.19.99V32H32v-.31c-.21.24-.7.3-.9.31-.29 0-.86-.13-.86-.74 0-.75 1.23-.9 1.41-.9.19 0 .35-.15.35-.34 0-.19-.19-.42-.53-.42-.27 0-.53.26-.62.39ZM32 31.07v-.33c-.8 0-1 .27-1 .41 0 .26.24.34.36.35.41 0 .6-.28.64-.43Z" fill="#99005A"/></svg>