<?xml version='1.0' encoding='utf-8'?>
<!-- by TradeStack -->
<svg width="56" height="56" viewBox="0 0 56 56" xmlns="http://www.w3.org/2000/svg"><path fill="#F0F3FA" d="M0 0h56v56H0z" /><path d="M4 31v-.12l2.25-7.75c.02-.07.07-.11.15-.11C7.64 23 8.87 23 10.1 23c1.59 0 2.54.04 2.86.1 1.99.38 3.48 2.18 2.95 4.3-.58 2.35-2.17 3.55-4.76 3.58C10.08 31 7.7 31 4 31Zm5.55-6.37a.16.16 0 0 0-.15.12l-1.36 4.5a.07.07 0 0 0 .01.07.08.08 0 0 0 .06.03c.8.06 2.11.11 2.75-.36.88-.65 1.22-1.84 1.3-2.84.12-1.5-1.45-1.66-2.61-1.52Zm20.94.96c.87-.46 1.85-.79 2.79-.45 1.05.38.94 1.18.67 2.1a118.12 118.12 0 0 1-1.2 3.74.1.1 0 0 1-.05.02h-2.93a.06.06 0 0 1-.05-.02.06.06 0 0 1-.01-.06l1.06-3.45c.11-.35-.03-.54-.42-.56h-.03c-.37 0-.61.17-.72.51l-1.1 3.43a.17.17 0 0 1-.06.09.19.19 0 0 1-.1.03h-2.8c-.08 0-.12-.04-.09-.12l1.87-5.75c.02-.06.07-.1.14-.1h2.66c.05 0 .1.02.15.06a.2.2 0 0 1 .07.13c0 .03 0 .09-.02.14-.02.08-.03.16 0 .2.03.08.1.1.17.06Zm20.45 4.15c.77-.64 1.15-1.45 1.04-2.23-.1-.79-.67-1.49-1.58-1.95a5.96 5.96 0 0 0-3.28-.52 5.8 5.8 0 0 0-3.06 1.22c-.77.64-1.15 1.45-1.04 2.23.1.79.67 1.49 1.58 1.95.91.46 2.1.65 3.28.52a5.8 5.8 0 0 0 3.06-1.22Zm-3.12-.16c-.38.24-.78.31-1.11.19a.95.95 0 0 1-.42-.31c-.12-.15-.2-.33-.24-.54-.05-.2-.05-.43-.02-.67a2.65 2.65 0 0 1 1.1-1.83c.39-.25.79-.32 1.12-.2.16.07.3.17.42.32.11.14.2.33.24.53.04.21.05.44.02.68a2.65 2.65 0 0 1-1.11 1.83ZM19.4 28.13c-.46 1.34 1.3 2.32 2.09 1.2.1-.15.16-.24.19-.26a.32.32 0 0 1 .09-.06.23.23 0 0 1 .1-.02h2.81l.03.03a.06.06 0 0 1 0 .07c-1.22 1.8-3.17 2.17-5.4 1.75-1.8-.34-3.28-1.88-2.46-3.6.9-1.87 3.21-2.43 5.38-2.18 1.73.2 3.24 1.07 2.83 2.81-.02.09-.08.13-.17.13h-5.3a.21.21 0 0 0-.12.03.18.18 0 0 0-.07.1Zm.43-1.23c-.04.07-.01.1.07.1h2.07c.03 0 .07 0 .1-.02a.16.16 0 0 0 .06-.1c.12-.4-.17-.66-.63-.73-.76-.11-1.31.07-1.67.75Zm23.3-1.85h-3.19a.08.08 0 0 0-.07.04l-1.33 2.46a.08.08 0 0 1-.08.04.08.08 0 0 1-.06-.06l-.68-2.47a.08.08 0 0 0-.07-.06h-2.87a.08.08 0 0 0-.07.03l-.01.03v.04l1.76 6.42-.01.06-1.25 2.3a.08.08 0 0 0 0 .08.08.08 0 0 0 .06.04h3.1a.08.08 0 0 0 .07-.04l4.77-8.8a.08.08 0 0 0-.03-.1.08.08 0 0 0-.03-.01Z" fill="#E60014" /></svg>