<!-- by TradeStack --><svg width="56" height="56" viewBox="0 0 56 56" xmlns="http://www.w3.org/2000/svg"><path fill="#F0F3FA" d="M0 0h56v56H0z"/><path d="M22.94 25H4.06c-.03 0-.06.04-.06.09v.83c0 .04.03.08.06.08h18.88c.03 0 .06-.04.06-.08v-.83c0-.05-.03-.09-.06-.09ZM51.94 25H28.06c-.03 0-.06.04-.06.08v.84c0 .04.03.08.06.08h23.88c.03 0 .06-.04.06-.08v-.84c0-.04-.03-.08-.06-.08Z" fill="#0E0B0C"/><path fill-rule="evenodd" d="m12.9 30.12-.7-1.38c-.04-.06-.02-.1.04-.1.49-.07.74-.35.76-.86.03-.71-.3-1.07-1.02-1.07a343.41 343.41 0 0 1-2.91 0 .1.1 0 0 0-.06.05L9 26.8v3.32c0 .07.04.1.1.1h.5c.06 0 .09-.02.09-.08l-.01-1.4c0-.04.02-.07.07-.07h1.63c.02 0 .05 0 .07.02l.04.05.7 1.36c.04.08.1.12.19.13h.45l.03-.01a.08.08 0 0 0 .03-.1Zm-3.2-2.87-.01.03V28.12l.04.02h2.21c.05 0 .1 0 .15-.02a.4.4 0 0 0 .12-.07.33.33 0 0 0 .09-.1.28.28 0 0 0 .03-.13v-.25a.28.28 0 0 0-.03-.12.33.33 0 0 0-.08-.1.4.4 0 0 0-.13-.08.45.45 0 0 0-.15-.02H9.7ZM4.02 26.73a.09.09 0 0 0-.02.06v3.36l.03.06c.02.02.04.02.06.02h3.34a1 1 0 0 0 .69-.27.9.9 0 0 0 .28-.65v-1.7a.88.88 0 0 0-.29-.65.97.97 0 0 0-.68-.26H4.08l-.06.03Zm.67.54a.08.08 0 0 0-.02.06v2.28c0 .02 0 .04.02.06l.06.02H7.3c.11 0 .22-.05.3-.14a.5.5 0 0 0 .13-.33v-1.5a.5.5 0 0 0-.13-.33.41.41 0 0 0-.3-.14H4.75c-.02 0-.04 0-.06.02ZM25.81 28.9c-.05-.06-.04-.1.05-.1h1.71a.1.1 0 0 1 .07.03c.02.02.04.05.04.08v.44c-.03.54.4.87.89.87h2.84c.06 0 .09-.03.09-.09v-.33c0-.07-.04-.11-.1-.11h-2.8a.24.24 0 0 1-.15-.06.25.25 0 0 1-.08-.16l-.06-.47c-.02-.14.04-.2.16-.2l4.04.03c.08 0 .1.03.05.1l-.74 1.15c-.07.1-.04.15.08.15h.4c.11 0 .2-.05.26-.15l.75-1.19a.14.14 0 0 1 .12-.07h1.54c.04 0 .08 0 .12.03.04.02.07.05.09.08l.74 1.2a.22.22 0 0 0 .17.1h.5c.1 0 .11-.04.06-.12l-.78-1.2c-.05-.08-.03-.11.05-.11l1 .01c.05 0 .07.03.07.08v1.24c0 .07.03.1.1.1h.42l.05-.02a.06.06 0 0 0 .01-.05v-1.34a.03.03 0 0 1 .02-.02h1.54c.1 0 .2.03.27.1l1.78 1.32a.2.2 0 0 0 .3-.06.22.22 0 0 0 .02-.11l-.01-1.18v-.03l.02-.03.03-.02h.5c.05 0 .08.02.08.08v1.27c0 .06.02.08.07.08h.43c.06 0 .08-.02.08-.07v-1.31l.01-.05a.06.06 0 0 1 .05-.02h1.5a.3.3 0 0 1 .18.06 660 660 0 0 1 1.74 1.3c.12.09.24.12.37.1.05-.01.08-.04.08-.1l-.01-1.32c0-.02 0-.03.02-.05a.07.07 0 0 1 .05-.02l1.12-.02c.06 0 .08.03.04.09L47 30.1c-.05.07-.03.12.07.12h.45c.1 0 .17-.04.22-.12a81.4 81.4 0 0 1 1.24-1.98 24.87 24.87 0 0 1 .42-.65.07.07 0 0 1 .07 0l.02.03 1.57 2.56c.04.05.08.1.13.13.06.03.11.05.18.05h.37c.14 0 .18-.06.1-.19l-2.08-3.2a.4.4 0 0 0-.14-.14.39.39 0 0 0-.52.14l-1.07 1.67a.13.13 0 0 1-.05.04.12.12 0 0 1-.06.02l-1.25-.01-.03-.02a.06.06 0 0 1-.02-.04l.01-1.71c0-.08-.03-.11-.1-.11h-.38c-.07 0-.1.03-.1.1v1.7c0 .04-.02.06-.06.06h-.82a.25.25 0 0 1-.16-.05l-2.04-1.59c-.28-.21-.55-.29-.8-.22-.05.01-.07.04-.07.09v1.66a.08.08 0 0 1-.02.06.07.07 0 0 1-.05.02h-.46c-.04 0-.06-.03-.06-.08v-1.62c0-.1-.04-.14-.13-.14l-.36.01c-.07 0-.11.04-.11.11v1.62c0 .06-.03.1-.1.1h-.22c-.32 0-.67.01-.92-.19a89.94 89.94 0 0 0-1.95-1.5c-.18-.14-.4-.18-.67-.13-.04 0-.06.03-.06.07v1.6a.1.1 0 0 1-.1.11H35.7l-.09-.03a.2.2 0 0 1-.07-.06l-.97-1.53a.4.4 0 0 0-.69 0l-.98 1.52a.15.15 0 0 1-.12.07l-4.28.03c-.11 0-.17-.06-.17-.17v-.74c0-.22.1-.33.31-.33h2.76c.06 0 .1-.03.1-.1l-.02-.37c0-.06-.03-.09-.09-.09h-2.64c-.45 0-1.02.17-1.07.73a6.87 6.87 0 0 0-.02.97.15.15 0 0 1-.07.08.14.14 0 0 1-.06.01l-1.68.01c-.06 0-.07-.02-.03-.07l1.4-1.6c.02-.01.01-.02 0-.03l-.02-.03h-.04c-.56.46-1.07.93-1.53 1.4-.08.09-.12.07-.11-.04 0-.91-.03-1.8-.12-2.64-.02-.26-.05-.26-.08 0-.11.88-.1 1.83-.08 2.7v.06a.04.04 0 0 1-.03.03h-.02a.03.03 0 0 1-.02 0 20.16 20.16 0 0 0-1.66-1.5l-.02.02v.02c.45.56.93 1.1 1.45 1.63.04.04.03.07-.03.07l-3.61.03c-.13 0-.14-.04-.04-.12.53-.4 1.05-.77 1.55-1.1.2-.14.24-.33.15-.55a.13.13 0 0 0-.04-.06.12.12 0 0 0-.07-.02H18.5c-.05 0-.08.03-.08.1v.42c0 .02.01.04.03.05.01.02.03.03.05.03l3.12.01c.13 0 .14.04.04.12l-1.5 1.09a.2.2 0 0 1-.12.04l-2.79.03c-.02 0-.04 0-.07-.02a.14.14 0 0 1-.05-.05l-1.06-1.65a.39.39 0 0 0-.66 0l-2.1 3.24c-.05.09-.02.13.07.13h.46c.09 0 .15-.04.2-.11l1.64-2.6a.08.08 0 0 1 .04-.04h.02a.08.08 0 0 1 .06.02l.01.01 1.6 2.6c.05.08.12.12.22.12h.45c.1 0 .12-.04.07-.13l-.84-1.3a.05.05 0 0 1 0-.03v-.01a.05.05 0 0 1 .04-.03l2.32.05c.09 0 .1.03.02.08l-1.13.8c-.17.12-.16.3-.14.49 0 .05.04.08.09.08h4.39c.07 0 .11-.04.11-.12v-.35a.1.1 0 0 0-.03-.07.1.1 0 0 0-.07-.03h-3.24c-.09 0-.1-.03-.02-.08l1.08-.77a.2.2 0 0 1 .12-.04l4.1.04h.02l.02.02a.04.04 0 0 1-.01.04L23.99 30v.02l.03.03c.02.01.03.02.05 0L25.21 29h.02a.04.04 0 0 1 .02 0h.01l.01.01v.02c.02.5.05.94.1 1.35.03.22.06.22.08 0a15.96 15.96 0 0 0 .08-1.33l.02-.01a.04.04 0 0 1 .03 0h.02a8.42 8.42 0 0 0 1.2 1.05l.03-.02v-.01l-1.02-1.17Zm8.38-1.42-.58.92a.05.05 0 0 0 0 .05l.02.02h1.18a.05.05 0 0 0 .04-.02v-.05l-.58-.92-.02-.02a.04.04 0 0 0-.04 0 .05.05 0 0 0-.02.02Zm3.44.08 1.16.88.01.02a.04.04 0 0 1-.01.05h-.02l-1.16-.02c-.01 0-.02 0-.03-.02v-.88a.04.04 0 0 1 .01-.04.04.04 0 0 1 .04 0Zm6.36.92-1.23-.91a.04.04 0 0 0-.05 0v.03l-.01.9.01.03.03.01h1.25l.01-.02v-.04Zm2.01.78-.59-.43-.02-.03v-.03l.02-.02.03-.01.58.04.03.01.01.04.02.39v.02l-.03.02H46Zm-5.64-.38.49.36a.06.06 0 0 0 .08-.02v-.03l.01-.32-.01-.04a.06.06 0 0 0-.04-.02l-.5-.04-.03.01a.06.06 0 0 0-.02.03.06.06 0 0 0 .02.07Z" fill="#0E0B0C"/><path d="M51.92 31H4.08c-.04 0-.08.05-.08.1v.8c0 .05.04.1.08.1h47.84c.04 0 .08-.05.08-.1v-.8c0-.05-.04-.1-.08-.1Z" fill="#0E0B0C"/></svg>