<!-- by TradeStack --><svg viewBox="0 0 56 56" xmlns="http://www.w3.org/2000/svg"><path fill="#F0F3FA" d="M0 0h56v56H0z"/><path d="M40.07 20c1.07.07 2.1.28 3.08.62a7.19 7.19 0 0 1 3.1 2c.78.89 1.3 1.97 1.55 3.26.08.42.12 1.1.13 2.02l.07 8.07c0 .02-.01.03-.03.03H10.78c-.72 0-1.24-.06-1.53-.17a1.79 1.79 0 0 1-1.1-1.13c-.1-.27-.15-.75-.15-1.45V20h32.07Z" fill="#AE9A63"/><path d="M9 21.06c0-.02.02-.03.04-.04a9.12 9.12 0 0 1 33.52.45c.9.3 1.68.75 2.35 1.33.67.6 1.18 1.3 1.54 2.11.37.85.55 1.78.55 2.8l-.04 7.25c0 .03-.02.04-.04.04H10.59c-.43 0-.71-.03-.84-.08a1.1 1.1 0 0 1-.59-.58c-.1-.23-.16-.5-.16-.81C9 26 9.02 21.85 9 21.06Z" fill="#009A3E"/><path d="M31.88 25.19a2.4 2.4 0 0 1-.5.29c-.17.06-.32.03-.43-.1-.33-.34-.7-.63-1.1-.86-.43-.24-.86-.4-1.29-.46-2.22-.33-3.46 1.67-3.56 3.47-.1 1.79.98 3.7 2.93 4.11.66.14 1.3.13 1.9-.03a3 3 0 0 0 1.56-.94c.14-.16.3-.17.5-.04.09.07.12.15.07.25l-.58 1.3c-.12.26-.34.43-.66.5a8.95 8.95 0 0 1-5.5-.23 4.76 4.76 0 0 1-2.74-6.6 5.38 5.38 0 0 1 2.7-2.27 8.24 8.24 0 0 1 3.73-.56c1.02.07 1.96.3 2.82.67.18.08.27.22.27.42 0 .24 0 .5-.02.8-.01.15-.04.24-.1.28ZM15 24.09v2.88c0 .02.01.03.03.03h3.7c.28 0 .35.11.22.34l-.22.41a.7.7 0 0 1-.64.35h-2.84a.22.22 0 0 0-.15.06c-.05.04-.1.1-.1.15V30.84c0 .32.04.54.08.66.06.2.2.34.42.43.14.06.35.07.63.07h1.36c.5 0 .85-.05 1.07-.15.36-.17.63-.44.84-.82a.17.17 0 0 1 .09-.07c.17-.07.34-.03.5.12.02.02.03.05.03.09v1.5a.3.3 0 0 1-.1.23.35.35 0 0 1-.25.1h-6.84c-.35 0-.59-.11-.7-.33a1.71 1.71 0 0 1-.13-.78v-7.11c0-.32-.1-.55-.29-.7-.11-.1-.34-.2-.68-.31a9.47 9.47 0 0 1-.29-.1c-.06-.02-.08-.06-.06-.1l.21-.48c.03-.06.08-.09.15-.09h8.03c.07 0 .13.02.18.07.05.05.07.1.07.17v1.2c.02.33-.12.5-.4.53-.05 0-.08 0-.11-.03a3.25 3.25 0 0 1-.21-.25 1.8 1.8 0 0 0-.67-.59c-.14-.06-.34-.1-.6-.1h-2.25c-.05 0-.08.04-.08.09Z" fill="#F0F3FA"/><path fill-rule="evenodd" d="M39.96 32.8a4.87 4.87 0 0 0 2.73-1.7 5.93 5.93 0 0 0 1.24-2.65c.18-1 .01-1.94-.5-2.81a5.15 5.15 0 0 0-1.96-1.96 5.57 5.57 0 0 0-2.78-.68c-.86 0-1.68.16-2.47.47a4.9 4.9 0 0 0-3.2 4.98 4.52 4.52 0 0 0 1.04 2.73c.64.75 1.5 1.28 2.59 1.58 1.11.3 2.22.32 3.31.04Zm-3.39-7.45C36.17 26.13 36 27 36 28c0 .7.1 1.38.28 2.02.13.47.3.84.53 1.13.27.33.63.58 1.09.73.56.2 1.08.15 1.56-.14.4-.23.72-.6.97-1.09.4-.78.58-1.66.57-2.65 0-.7-.1-1.38-.28-2.03a3.1 3.1 0 0 0-.53-1.12 2.3 2.3 0 0 0-1.09-.73 1.79 1.79 0 0 0-1.56.14c-.4.23-.72.6-.97 1.09Z" fill="#F0F3FA"/></svg>