<!-- by TradeStack --><svg width="56" height="56" viewBox="0 0 56 56" xmlns="http://www.w3.org/2000/svg"><path fill="#F0F3FA" d="M0 0h56v56H0z"/><path d="M21.74 31.87c-5.99 0-8.51-4.73-9.24-7.87a16.05 16.05 0 0 0 15.58 20c4.97 0 9.41-2.24 12.36-5.76.91-1.63 1.56-3.3 1.56-4.73 0-1.79-.6-3.34-1.56-4.56.01 4.23-4.03 11.93-13.44 11.93-8.27 0-11.9-4.96-12.69-7.44 1.76 3.5 5.58 6.4 11.6 6.4 6.03 0 12.16-4.55 12.16-9.27 0-2.8-1.88-4.09-3.55-4.57-3.64.02-4.94 1.46-6.24 2.9-1.33 1.48-2.67 2.97-6.54 2.97Z" fill="url(#a)"/><path d="M12.6 24.37c.3 4.15 2.77 10.84 11 11.38 2.47 0 4.22-.68 5.82-1.3 1.35-.53 2.6-1.01 4.1-1.01 1.75 0 2.59.7 2.94 1.38a7.03 7.03 0 0 0 1.61-4.25c0-2.8-1.88-4.09-3.55-4.57-3.64.02-4.94 1.46-6.24 2.9-1.33 1.48-2.67 2.97-6.54 2.97-5.76 0-8.32-4.37-9.15-7.5Z" fill="url(#b)"/><path d="M43.5 32c-.73-3.14-3.25-7.87-9.24-7.87-3.87 0-5.2 1.49-6.54 2.97-1.31 1.46-2.62 2.9-6.33 2.9C17.86 30 14 27 14 22.5c0-1.43.65-3.1 1.56-4.73A16.08 16.08 0 0 1 27.9 12 16.05 16.05 0 0 1 43.5 32Z" fill="url(#c)"/><path d="M34.54 16.08c1.27 3.48-2 7.87-7.31 9.8-5.3 1.92-10.64.65-11.91-2.84-1.27-3.48 2-7.87 7.3-9.8 5.31-1.92 10.65-.65 11.92 2.84Z" fill="url(#d)"/><path d="M30.43 15.08c.79 2.16-1.59 5.01-5.3 6.36-3.72 1.34-7.37.68-8.16-1.48-.79-2.17 1.58-5.01 5.3-6.36 3.72-1.35 7.37-.68 8.16 1.48Z" fill="url(#e)"/><defs><linearGradient id="a" x1="42" y1="34" x2="12" y2="34" gradientUnits="userSpaceOnUse"><stop stop-color="#47AA4B"/><stop offset="1" stop-color="#AACC37"/></linearGradient><linearGradient id="b" x1="38.07" y1="30.06" x2="12.59" y2="30.06" gradientUnits="userSpaceOnUse"><stop stop-color="#40AD42"/><stop offset="1" stop-color="#71BB3E"/></linearGradient><linearGradient id="c" x1="29" y1="12" x2="29" y2="32" gradientUnits="userSpaceOnUse"><stop stop-color="#30ABE9"/><stop offset="1" stop-color="#0F95CA"/></linearGradient><linearGradient id="d" x1="20.73" y1="14.1" x2="28.13" y2="24.95" gradientUnits="userSpaceOnUse"><stop stop-color="#7ACDEF"/><stop offset="1" stop-color="#2FA6E0"/></linearGradient><linearGradient id="e" x1="21.71" y1="13.89" x2="25.52" y2="21.2" gradientUnits="userSpaceOnUse"><stop stop-color="#ECF3F9"/><stop offset="1" stop-color="#72C8E6"/></linearGradient></defs></svg>