<?xml version='1.0' encoding='utf-8'?>
<!-- by TradeStack -->
<svg width="56" height="56" viewBox="0 0 56 56" xmlns="http://www.w3.org/2000/svg"><path fill="#F0F3FA" d="M0 0h56v56H0z" /><path d="M26.86 45.95A13.12 13.12 0 0 1 15 32.8c0-4.94 4.88-11.45 8.77-16.63 1.85-2.46 3.47-4.62 4.23-6.17.76 1.55 2.38 3.7 4.23 6.17a260 260 0 0 1 2.14 2.88L25 34h5.9l-4.04 11.95Z" fill="url(#amotjzjsd)" /><path d="M38.37 40.76a13.27 13.27 0 0 0 2.6-8.55c-.77.31-1.8.59-2.92.59a16 16 0 0 0 2.4-3.14c-.7-2.22-2-4.6-3.54-6.95-.7.72-1.82 1.39-2.41 1.69.35-.71.94-2.13 1.38-3.22l-1.34-1.9L27.02 33h5.32l-5.32 12.96a12.84 12.84 0 0 0 9.61-3.3A4.19 4.19 0 0 1 34.5 40c.62.32 2.1.8 3.87.76Z" fill="url(#bmotjzjsd)" /><path d="M20.36 30.97c0-4.54 5.46-12.1 8.19-15.3-6 5.1-10.37 12.46-10.37 14.73 0 1.81 1.46 1.13 2.18.57Z" fill="url(#cmotjzjsd)" /><defs><linearGradient id="amotjzjsd" x1="29.18" y1="11.8" x2="15.85" y2="40.45" gradientUnits="userSpaceOnUse"><stop stop-color="#12B8D2" /><stop offset="1" stop-color="#C9EAF3" /></linearGradient><linearGradient id="bmotjzjsd" x1="39.23" y1="25.6" x2="28.98" y2="39.85" gradientUnits="userSpaceOnUse"><stop stop-color="#CBE091" /><stop offset="1" stop-color="#92C63D" /></linearGradient><linearGradient id="cmotjzjsd" x1="26.91" y1="16.23" x2="18.8" y2="31.28" gradientUnits="userSpaceOnUse"><stop stop-color="#72C8DF" /><stop offset="1" stop-color="#C3E6EF" /></linearGradient></defs></svg>