<!-- by TradeStack --><svg width="56" height="56" viewBox="0 0 56 56" xmlns="http://www.w3.org/2000/svg"><path fill="url(#abm54l5p5)" d="M0 0h56v56H0z"/><path d="M49.07 34c-.34 0-.68-.04-1-.13-.32-.09-.58-.2-.76-.34l.4-.9a2.65 2.65 0 0 0 1.4.42c.28 0 .47-.04.59-.1.11-.08.17-.17.17-.3 0-.1-.05-.17-.14-.22a1 1 0 0 0-.35-.12l-.48-.08a6.42 6.42 0 0 1-.52-.1 1.82 1.82 0 0 1-.49-.22c-.15-.09-.26-.21-.36-.37a1.25 1.25 0 0 1-.12-.6c0-.28.07-.52.22-.73.15-.2.36-.37.65-.49.28-.12.62-.18 1.01-.18.28 0 .56.03.85.1.3.06.53.15.72.28l-.4.89c-.19-.12-.39-.2-.59-.25-.2-.05-.39-.07-.58-.07-.26 0-.45.04-.57.11-.12.08-.18.17-.18.3 0 .1.04.18.12.23.1.06.21.1.36.13l.48.09c.18.02.35.06.53.1.18.05.34.12.48.21.14.09.26.21.35.37.1.15.14.35.14.6 0 .26-.08.5-.23.7-.15.21-.37.37-.66.5a2.7 2.7 0 0 1-1.04.17ZM45.04 34c-.46 0-.87-.1-1.23-.29-.34-.2-.62-.46-.8-.79a2.3 2.3 0 0 1-.3-1.15c0-.44.1-.82.29-1.15.19-.34.45-.6.78-.8.32-.19.7-.28 1.11-.28.4 0 .76.09 1.08.27.32.18.58.44.76.77a2.41 2.41 0 0 1 .26 1.54h-3.31v-.73h2.69l-.46.22c0-.23-.04-.42-.12-.59a.97.97 0 0 0-.89-.53 1 1 0 0 0-.54.14.94.94 0 0 0-.36.4c-.08.16-.13.36-.13.6v.19c0 .23.05.44.15.63.1.17.24.3.42.4.18.1.39.14.63.14.22 0 .41-.03.57-.1.17-.07.32-.18.46-.32l.63.73c-.2.22-.43.4-.7.52-.3.12-.62.18-.99.18ZM40 34v-4.4h1v1.24l-.03-.35c.12-.32.32-.55.58-.7.27-.17.6-.25.98-.25v1.17h-.13l-.13-.01c-.63 0-1.27.57-1.27 1.22V34h-1ZM34 25v-4.4h1v1.25l-.03-.36c.12-.32.32-.55.58-.7.27-.17.6-.25.98-.25v1.17h-.13l-.13-.01c-.63 0-1.27.57-1.27 1.22V25h-1ZM32.38 29.58c.3 0 .58.08.83.22.24.13.44.34.58.63.14.28.21.64.21 1.08V34h-1v-2.42c0-.5-.41-1.02-.93-1.02-.57 0-1.07.6-1.07 1.17V34h-1v-6h1v2.85l-.12-.36c.14-.29.34-.51.6-.67.27-.16.56-.24.9-.24ZM27.14 34c-.37 0-.72-.04-1.05-.13-.33-.08-.6-.2-.8-.32l.42-.88a2.85 2.85 0 0 0 1.47.4c.29 0 .49-.03.6-.1.12-.06.18-.16.18-.28 0-.1-.04-.17-.14-.22-.09-.05-.2-.09-.36-.12l-.5-.07a7.06 7.06 0 0 1-.55-.1 1.96 1.96 0 0 1-.5-.2c-.16-.1-.28-.22-.38-.37a1.15 1.15 0 0 1-.13-.59c0-.26.08-.5.23-.7.16-.2.38-.36.68-.48.3-.12.64-.18 1.05-.18.3 0 .59.03.89.1.3.06.55.15.75.27l-.41.87a2.68 2.68 0 0 0-1.22-.31c-.28 0-.48.03-.6.1-.13.08-.2.17-.2.29 0 .1.05.18.14.23.1.05.22.1.37.13l.5.08c.18.02.36.06.55.1.18.05.35.12.5.2a1 1 0 0 1 .37.36c.09.15.14.34.14.58 0 .26-.08.5-.24.7-.16.2-.39.35-.68.47-.3.11-.66.17-1.08.17ZM22.83 34c-1.28 0-2.14-.97-2.14-2.23s.86-2.23 2.14-2.23c.42 0 .78.1 1.1.29.3.19.54.46.68.81l-.9.52c-.1-.2-.23-.35-.38-.45a1 1 0 0 0-1.41.41c-.1.18-.14.4-.14.65s.04.47.13.64a1 1 0 0 0 .91.56c.18 0 .35-.05.5-.14.16-.1.3-.25.4-.46l.9.53c-.15.35-.38.62-.7.82-.3.19-.67.28-1.1.28ZM18.38 29.54c.3 0 .58.07.83.21.24.14.44.35.58.64.14.28.21.65.21 1.1V34h-1v-2.32c0-.5-.4-1.04-.93-1.04-.57 0-1.07.62-1.07 1.19V34h-1v-4.4h1v1.22l-.12-.37c.14-.3.34-.52.6-.68.27-.15.56-.23.9-.23ZM6 34v-6h2.34c.6 0 1.06.14 1.36.43.3.28.46.66.46 1.13 0 .31-.06.59-.19.82a1.34 1.34 0 0 1-1.24.72l.13-.35c.3 0 .57.06.8.19.23.12.41.3.54.54.13.24.2.53.2.88 0 .52-.16.92-.49 1.21-.32.29-.8.43-1.43.43H6Zm1-1h1.4c.29 0 .5-.1.65-.22.15-.12.22-.3.22-.56 0-.25-.07-.44-.22-.56-.15-.13-.36-.19-.65-.19H6.82v-1.01h1.39c.27 0 .47-.06.61-.17.15-.12.22-.3.22-.54 0-.24-.07-.41-.22-.52a.94.94 0 0 0-.61-.23H7v4ZM39.35 25c-.44 0-.83-.1-1.17-.29-.33-.2-.59-.46-.77-.79a2.39 2.39 0 0 1-.27-1.15c0-.44.09-.82.26-1.15a2.02 2.02 0 0 1 3.55-.04 2.52 2.52 0 0 1 .25 1.54h-3.15v-.73h2.56l-.44.22c0-.23-.04-.42-.12-.59a.93.93 0 0 0-1.69 0c-.08.17-.12.37-.12.6v.2c0 .23.04.44.14.63.1.17.22.3.4.4.16.1.37.14.6.14.2 0 .38-.03.54-.1.15-.07.3-.18.43-.32l.6.73c-.18.22-.4.4-.68.52-.26.12-.57.18-.92.18ZM32 25v-4h1v4h-1Zm.47-4.63a.74.74 0 0 1-.53-.2.64.64 0 0 1-.2-.48c0-.2.06-.35.2-.48.13-.14.31-.21.53-.21.22 0 .4.07.53.2.14.12.2.27.2.47 0 .2-.06.37-.2.5-.13.14-.3.2-.53.2ZM29.41 24.98a1.7 1.7 0 0 1-.9-.24c-.26-.15-.46-.4-.6-.71a3.11 3.11 0 0 1-.22-1.24c0-.5.07-.91.2-1.23.14-.32.34-.56.6-.72.25-.16.56-.24.92-.24a1.94 1.94 0 0 1 1.76 1.04c.18.32.27.7.27 1.15 0 .45-.09.84-.27 1.16a1.9 1.9 0 0 1-.73.76c-.3.18-.64.27-1.03.27ZM27 26.45v-5.78h1v.86l.1 1.27-.1 1.26v2.4h-1Zm2.41-2.42c.65 0 1.03-.53 1.03-1.24 0-.7-.38-1.25-1.03-1.25-.66 0-1.26.4-1.24 1.25.01.86.58 1.24 1.24 1.24ZM24.3 20.6c.33 0 .62.07.88.21.25.14.45.35.6.63.15.28.22.64.22 1.08V25h-1v-2.29c0-.7-.48-1.02-1-1.02-.63 0-1 .57-1 1.14V25h-1v-2.29c0-.69-.38-1.02-.89-1.02-.8 0-1.11.63-1.11 1.14V25h-1v-4.33h1v1.18l-.07-.35c.15-.3.35-.51.61-.66.27-.16.57-.24.9-.24.39 0 .72.1 1 .3.29.2.48.51.57.93l-.42-.12c.14-.34.36-.61.66-.81.3-.2.66-.3 1.06-.3ZM15.96 21.42h2.18v1.08h-2.18v-1.08ZM16 24h2.5v1H15v-6h3.42v1H16v4Z" fill="#F0E665"/><path fill-rule="evenodd" d="M14.34 33.37c-.38.4-.9.63-1.48.63-1.18 0-2.14-1-2.14-2.23s.96-2.23 2.14-2.23c.57 0 1.1.24 1.48.63v-.63h1V34h-1v-.63Zm-.02-1.6c0 .77-.58 1.4-1.3 1.4-.72 0-1.3-.63-1.3-1.4 0-.77.58-1.4 1.3-1.4.72 0 1.3.63 1.3 1.4ZM38 33.37c-.38.39-.91.63-1.49.63-1.18 0-2.13-1-2.13-2.23s.95-2.23 2.13-2.23c.58 0 1.1.24 1.49.63v-.63h1V34h-1v-.63Zm-.03-1.6c0 .77-.58 1.4-1.3 1.4-.71 0-1.3-.63-1.3-1.4 0-.77.59-1.4 1.3-1.4.72 0 1.3.63 1.3 1.4Z" fill="#F0E665"/><defs><linearGradient id="abm54l5p5" x1="10.42" y1="9.71" x2="68.15" y2="76.02" gradientUnits="userSpaceOnUse"><stop stop-color="#1A1E21"/><stop offset="1" stop-color="#06060A"/></linearGradient></defs></svg>