<!-- by TradeStack --><svg width="56" height="56" viewBox="0 0 56 56" xmlns="http://www.w3.org/2000/svg"><path fill="#1A2733" d="M0 0h56v56H0z"/><path d="M12 28.16v-1.98c.12-.5.23-1 .32-1.5.92-5.15 4.74-9.36 9.4-11.39a15.97 15.97 0 0 1 18.25 4.16c2.55 2.84 3.9 6.39 4.03 10.64 0 .08-.03.1-.1.1L42.7 28c-.06 0-.1-.05-.1-.12-.3-5.59-2.8-9.79-7.53-12.6a14.39 14.39 0 0 0-10.18-1.53A14.66 14.66 0 0 0 13.35 27.8c0 .12-.07.2-.2.21l-1.15.15Zm15.77 5.4a15.83 15.83 0 0 0-9.56-5.43c-.14-.02-.21-.1-.21-.25v-7.25c0-.15.06-.26.2-.32l9.63-5.2a.11.11 0 0 1 .15.05l.02.06v18.25c0 .24-.08.27-.23.1ZM30 16.06V31.9c0 .02 0 .04.02.06.01.01.03.03.05.03a.13.13 0 0 0 .12 0l1.76-1.22a.11.11 0 0 0 .04-.04.1.1 0 0 0 .01-.05V16.84a.1.1 0 0 0-.02-.05.12.12 0 0 0-.05-.04l-1.75-.78a.13.13 0 0 0-.12 0 .11.11 0 0 0-.04.05.1.1 0 0 0-.02.05Zm5 2.59v10.23c0 .02 0 .05-.02.07a.14.14 0 0 1-.06.05l-1.72.72a.16.16 0 0 1-.13-.01.13.13 0 0 1-.05-.05.12.12 0 0 1-.02-.06V17.82c0-.02 0-.04.02-.06a.14.14 0 0 1 .05-.04.16.16 0 0 1 .14 0l1.71.81.06.05.02.07Zm3 9.32v-7.53c0-.02 0-.04-.02-.06a.13.13 0 0 0-.05-.05l-1.72-.82a.15.15 0 0 0-.14 0 .13.13 0 0 0-.05.05.12.12 0 0 0-.02.06v8.67l.01.05.04.04.06.03h.06l1.72-.31c.03 0 .06-.02.08-.05a.12.12 0 0 0 .03-.08ZM12 29.7v-.54c5.76-.94 10.78.7 15.06 4.91a.53.53 0 0 1 .06.71 16.78 16.78 0 0 0-3.3 8.5c0 .13-.07.17-.18.14a13.43 13.43 0 0 1-3.73-1.52c-4.54-2.75-7.18-6.82-7.91-12.2ZM26.25 44h3.42c7.88-1.15 13.43-6.77 14.24-14.63 0-.05-.01-.1-.04-.14a.2.2 0 0 0-.12-.08c-9.53-1.76-17.92 4.83-19 14.35-.01.13.05.21.17.24l1.33.26Z" fill="#DAE3EB"/></svg>