<!-- by TradeStack --><svg viewBox="0 0 56 56" xmlns="http://www.w3.org/2000/svg"><path fill="#F0F3FA" d="M0 0h56v56H0z"/><path fill-rule="evenodd" d="M44.67 21.08a5.8 5.8 0 0 0-.54-.08H9c-.3.03-.6.08-.9.17A2.9 2.9 0 0 0 6 23.83v.42l.08.46a885.9 885.9 0 0 0 1.43 6.6 4.88 4.88 0 0 0 4.36 3.7H47c.47-.05.86-.13 1.17-.27A2.98 2.98 0 0 0 50 32.1v-.27a5.2 5.2 0 0 0-.08-.52l-1.42-6.56a4.89 4.89 0 0 0-3.83-3.66Zm-2.97 9.89v-6.43c0-.28.14-.45.44-.52.24-.04.51-.02.82.08.03 0 .04.02.04.04v6.83c0 .02-.01.03-.04.03h-1.22c-.03 0-.04-.01-.04-.03Zm2.6.01v-6.24c0-.24.02-.4.07-.48.1-.17.3-.25.58-.26.22 0 .42.03.63.1.01 0 .02.01.02.03v6.84c0 .02-.01.03-.04.03h-1.23c-.02 0-.03 0-.03-.02Zm-21.09-.02v-2.8c.02-1.07.78-1.4 1.7-.97l.04-.01c.18-.19.25-.4.2-.65a.4.4 0 0 0-.06-.14c-.1-.15-.3-.26-.58-.33-.2-.04-.43-.06-.69-.06-.44.01-.8.11-1.09.31a1.5 1.5 0 0 0-.57.69c-.1.27-.16.56-.16.88v3.08c0 .03.01.04.04.04h1.16l.01-.02v-.02Zm10.14-3.95c-.38.08-.68.29-.9.61-.15.24-.23.53-.23.87 0 .34.07.63.22.87.26.4.67.63 1.24.68.53.05 1-.04 1.43-.27.04-.02.06-.02.09.02l.44.7c.01.03 0 .04-.01.05a3.74 3.74 0 0 1-3.36.13 2.27 2.27 0 0 1-.58-.42c-.17-.16-.31-.35-.42-.57a2.6 2.6 0 0 1-.25-1.53c.07-.58.31-1.06.73-1.44a2.7 2.7 0 0 1 1.38-.65 4 4 0 0 1 1.92.12c.15.05.28.13.41.24.15.13.21.28.18.47-.02.15-.14.31-.35.48-.02.02-.05.02-.07 0a2.3 2.3 0 0 0-1.87-.36Zm-15.44 2.9c-.5-.17-.75-.63-.75-1.37v-2.4c0-.02 0-.04-.03-.05-.24-.07-.46-.1-.67-.07-.3.04-.45.2-.46.5v2.41c.01.53.19.98.54 1.36.3.32.7.53 1.24.64.6.11 1.18.1 1.7-.07 1-.31 1.5-1 1.52-2.03v-2.69c0-.02-.01-.04-.03-.04a1.4 1.4 0 0 0-.67-.09c-.32.04-.48.22-.47.53v2.13c0 .48-.15.84-.44 1.08-.11.1-.27.16-.47.2-.35.08-.68.06-1-.04Zm-6.64-.85c0-.02 0-.03.03-.03.6.02 1.13.02 1.6-.02a3.28 3.28 0 0 0 1.7-.52c.17-.13.29-.31.35-.55a1.3 1.3 0 0 0-.24-1.2c-.16-.2-.39-.37-.68-.5a3.18 3.18 0 0 0-2.87.2c-.57.36-.93.86-1.08 1.48a2.5 2.5 0 0 0 .17 1.75c.22.42.54.75.97.98.45.23.94.35 1.48.35a4.16 4.16 0 0 0 2.08-.45c.04-.02.04-.04.02-.07l-.42-.67c0-.01-.02-.02-.03-.01-.52.24-1.06.34-1.63.3-.3-.03-.55-.09-.76-.18a1.16 1.16 0 0 1-.7-.86Zm2-2.16c-.35-.09-.68-.08-1.01.02-.3.1-.55.26-.73.51-.17.23-.28.5-.32.81 0 .03 0 .04.04.05.58 0 1.04 0 1.38-.02.25-.01.47-.05.67-.11.29-.09.46-.2.52-.36.08-.23.07-.43-.06-.6-.09-.13-.25-.23-.5-.3Zm23.99 2.17c.13.5.46.81.98.94.7.18 1.4.1 2.1-.22.03-.01.05 0 .06.02l.38.67c.02.04 0 .07-.03.09-.79.37-1.62.5-2.5.4a2.56 2.56 0 0 1-1.65-.8c-.32-.35-.5-.76-.57-1.25-.07-.49-.01-.95.17-1.4a2.38 2.38 0 0 1 .82-1c.48-.32 1.01-.5 1.61-.52.79-.03 1.41.15 1.88.53.24.2.4.45.46.76s.03.6-.11.87c-.16.29-.43.5-.82.62-.38.13-.82.2-1.31.24-.46.02-.93.03-1.44 0-.03 0-.04.02-.03.05Zm1.8-2.22c.18.03.33.08.47.16.3.17.4.41.3.73a.52.52 0 0 1-.3.33 2.4 2.4 0 0 1-.86.2c-.47.02-.95.02-1.43.01-.03 0-.04-.01-.04-.04.03-.28.12-.53.27-.75.37-.52.9-.73 1.6-.64Zm-8.78 2.64a2.28 2.28 0 0 0 .02-1.92c-.13-.3-.33-.58-.58-.82a2.95 2.95 0 0 0-3.89-.04c-.26.23-.46.5-.6.8a2.28 2.28 0 0 0-.03 1.92c.13.3.33.58.58.82a2.95 2.95 0 0 0 3.89.04c.26-.23.46-.5.6-.8Zm-2.53.56a1.56 1.56 0 1 1 0-3.11 1.56 1.56 0 0 1 0 3.11Z" fill="#E52713"/></svg>