<?xml version='1.0' encoding='utf-8'?>
<!-- by TradeStack -->
<svg width="56" height="56" viewBox="0 0 56 56" xmlns="http://www.w3.org/2000/svg"><path fill="#F0F3FA" d="M0 0h56v56H0z" /><path fill-rule="evenodd" d="M36.02 16.58a24.43 24.43 0 0 1 3.68 5.87c.54 1.2 1 2.33 1.39 3.4 2.1-2.78 2.5-5.42 2.22-6.94 2.87 5.03 1.75 9.3-.85 12.6 1.06 9.21-5.33 12.6-11.06 13.49 1.9-.85 4.55-3.47 4.98-8.4-1.44.84-2.86 1.5-4.1 1.95a33.42 33.42 0 0 1-8.5 2.02 17.72 17.72 0 0 0 2.81 2.85 11.7 11.7 0 0 1-5.27-2.79c-7.78-.26-10.8-5.29-11.32-8.65.1.07.2.17.36.3.94.8 3.08 2.63 7.3 3.05-1.64-3.69-2.28-8-2.4-11.71-.94.6-1.86 1.24-2.74 1.93.56-1.14 1.46-2.49 2.72-3.83.02-1.07.08-2.07.17-2.94.1.83.2 1.64.33 2.43a20.97 20.97 0 0 1 11.08-5.7c-3.1-2.45-6.18-3.5-7.92-3.45a14.78 14.78 0 0 1 15.99 3.32c1.47.2 3.02.52 4.64.97-.94 0-2.13.07-3.51.23Zm-6.73 1.2a26.05 26.05 0 0 1 5.32 8.64c.55 1.43.96 2.77 1.25 4.03-1.52.93-3.3 1.82-5.43 2.63a32.72 32.72 0 0 1-10.05 2.31 44.11 44.11 0 0 1-4.3-12.28 47.92 47.92 0 0 1 13.21-5.33Z" fill="#50B150" /></svg>