<?xml version='1.0' encoding='utf-8'?>
<!-- by TradeStack -->
<svg width="56" height="56" viewBox="0 0 56 56" xmlns="http://www.w3.org/2000/svg"><path fill="#F0F3FA" d="M0 0h56v56H0z" /><path d="M50 30v-5h-1v6h3v-1h-2ZM46.68 29l.31-2.35.31 2.35h-.62Zm-.24-3.98L45.17 31h1.17l.18-1h.94l.18 1h1.28l-1.33-6-1.15.02ZM44 31h1v-6h-1v6ZM27 27.3 26.3 25H25v6h1l.01-4h.1c.15.9.56 1.84.82 2.73h.14c.26-.9.67-1.8.83-2.73h.1v4h1v-6h-1.31L27 27.3ZM31.5 27.3 30.8 25H29.5v6h1l.01-4h.1c.15.9.56 1.84.82 2.73h.14c.26-.9.67-1.8.83-2.73h.1v4h1v-6h-1.31l-.69 2.3ZM18.3 28.03c0 1.12.37 2.97 1.81 2.97.26 0 .6-.08.89-.24v-1.1c-.2.28-.5.35-.7.34-.76-.02-1-1.38-1-1.92 0-.55.18-2.08 1-2.08a.9.9 0 0 1 .7.33v-1.12a1.97 1.97 0 0 0-.86-.21c-1.47.03-1.84 1.87-1.84 3.03ZM40.5 28.03c0 1.12.37 2.97 1.81 2.97.26 0 .6-.08.89-.24v-1.1c-.2.28-.5.35-.7.34-.76-.02-1-1.38-1-1.92 0-.55.18-2.08 1-2.08a.9.9 0 0 1 .7.33v-1.12a1.98 1.98 0 0 0-.86-.21c-1.47.03-1.84 1.87-1.84 3.03ZM16.15 30c-.6 0-.85-1.26-.85-2 0-.7.25-1.98.88-2 .64 0 .81 1.62.82 2 0 .42-.17 2-.85 2Zm-.1-5c-.31 0-.6.12-.88.37s-.5.6-.65 1.07c-.15.47-.22 1-.22 1.59 0 .84.16 1.55.48 2.12.32.57.77.85 1.35.85.55 0 1.01-.28 1.36-.83.34-.55.52-1.29.51-2.21 0-.92-.18-1.64-.53-2.17a1.6 1.6 0 0 0-1.43-.79ZM22.85 30c-.6 0-.85-1.26-.85-2 0-.7.25-1.98.88-2 .64 0 .81 1.62.82 2 0 .42-.17 2-.85 2Zm-.1-5c-.31 0-.6.12-.88.37s-.5.6-.65 1.07c-.15.47-.22 1-.22 1.59 0 .84.16 1.55.48 2.12.32.57.77.85 1.35.85.55 0 1.01-.28 1.36-.83.34-.55.52-1.29.51-2.21 0-.92-.18-1.64-.53-2.17a1.6 1.6 0 0 0-1.43-.79ZM12.42 27.5H12V26h.47c.34 0 .53.3.53.71 0 .35-.2.77-.58.79Zm.67.5c.7-.32.91-.74.91-1.5 0-.82-.37-1.5-1.22-1.5H11v6h1v-2.5h.5c.16 0 .3.1.38.22.08.13.18.36.2.64l.26 1.64h.92l-.35-1.92c-.1-.6-.38-1-.82-1.08Z" fill="#939595" /><path d="M38.92 27.45h-.42V26h.47c.34 0 .62.3.62.71 0 .35-.3.73-.67.74Zm.67.6c.7-.31.91-.84.91-1.6 0-.83-.37-1.45-1.22-1.45H37.5l.02 6h.98v-2.47h.53c.16 0 .27.07.35.2.08.12.14.33.17.6l.2 1.67h1.01l-.35-1.92c-.1-.6-.38-.95-.82-1.02ZM9.51 29.21c0 .57-.18.79-.51.79-.31 0-.5-.16-.5-.78L8.55 25H7.5v4.21c0 1.08.38 1.79 1.53 1.79 1.13 0 1.49-.63 1.47-1.72V25h-1l.01 4.21ZM4 31h3v-1H5v-1.5h2v-1H5V26h2v-1H4v6ZM34.03 31l2.97-.02V30h-2v-1.5h1.88v-1H35V26h2v-1l-3 .02.03 5.98Z" fill="#939595" /></svg>