<!-- by TradeStack --><svg width="56" height="56" viewBox="0 0 56 56" xmlns="http://www.w3.org/2000/svg"><path fill="#F0F3FA" d="M0 0h56v56H0z"/><path d="M41.99 22.6a.06.06 0 0 0-.06-.07h-.04l-.26.16c-1.45.78-2.94 1.4-4.48 1.89-.4.13-.93.2-1.56.23-1.59.05-3.2-.18-4.85-.69l-1.5-.45a21.14 21.14 0 0 0-5.14-.83c-2.57-.1-5.14.44-7.01 2.2a5.2 5.2 0 0 0-1.42 5.79c.04.13.01.22-.1.28l-2.88 1.67c-.11.07-.2.04-.23-.09a15.94 15.94 0 0 1 6.68-18.15 15.89 15.89 0 0 1 9.7-2.51 16.08 16.08 0 0 1 15.01 18.02 16 16 0 0 1-12.81 13.63 16.13 16.13 0 0 1-16.16-6.2.05.05 0 0 0-.04.03l-2.14 2.32a.15.15 0 0 1-.12.05.15.15 0 0 1-.11-.07l-1.44-2.27a.18.18 0 0 1 .02-.22 20.26 20.26 0 0 1 4.47-4c2-1.22 4.06-2.33 6.24-3.13 1.7-.63 3.45-1.17 5.26-1.62 1.7-.41 3.38-.8 5.02-1.18.42-.1.83-.18 1.24-.26a.2.2 0 0 1 .1.02c.06.02.06.03 0 .04-.22.03-.44.05-.66.11l-1.87.5a39.23 39.23 0 0 0-7.68 2.92 18.9 18.9 0 0 0-3.97 2.64c-.53.46-.96.96-1.4 1.5-.11.13-.09.23.07.32l.13.07c1.02.59 2.1.96 3.23 1.13 2.41.34 4.84.12 7.29-.68.55-.18 1.1-.42 1.64-.72a33.1 33.1 0 0 0 4.15-2.76c.74-.57 1.38-1.13 1.94-1.7.6-.61 1.2-1.3 1.82-2.08.9-1.12 1.79-2.23 2.63-3.32A5.97 5.97 0 0 0 42 22.6Z" fill="url(#a2b1buugh)"/><defs><linearGradient id="a2b1buugh" x1="11" y1="27.27" x2="44" y2="27.27" gradientUnits="userSpaceOnUse"><stop stop-color="#3F722D"/><stop offset="1" stop-color="#96BF4D"/></linearGradient></defs></svg>