<!-- by TradeStack --><svg width="56" height="56" viewBox="0 0 56 56" xmlns="http://www.w3.org/2000/svg"><path fill="#F0F3FA" d="M0 0h56v56H0z"/><path d="m36.29 23.56-1-.47c-.46-.22-.96-.08-1.15.28-.2.38.05.85.5 1.07l.99.47c.46.22.96.08 1.15-.28.17-.38-.05-.85-.5-1.07Zm1.93-1.34c-4.69-2.75-9.93-4.3-11.86-4.18-.5.19-2.26 3.35-2.15 4.07.05.33 2.54 1.07 5.24 2.6 2.23 1.27 2.9 2.45 4.36 3.2 1.95.98 3.88.43 6.56 1.8a67.53 67.53 0 0 1 8.63 5.7s-3.3-8.82-10.78-13.2Zm-1.13 4.26c-.44-.06-.94.4-2.62-.36-1.22-.55-1.6-1.24-1.93-1.76-.94-1.4-3.37-2.61-5.99-3.38 0-.28.2-.63.36-.83 1.85.14 4.44.94 6.2 2.31 0 0 1.03-1.07 3.12-.16 1.4.6 1.82 1.78 1.88 2.47 0 0 4.05 1.05 6.1 5.58.02-.03-3.87-3.52-7.12-3.87Z" fill="#007C51"/><path d="M31.13 27.03a8.42 8.42 0 0 0-2.37-1.85c-1.43-.77-4.69-2.03-5.4-2.55L14.71 39H24.9l2.78-5.35 3.45-6.62ZM35.38 29.64l-.22.4-4.7 8.96h9.96l-5.04-9.36ZM26.25 17.13c.41 0 1.32.11 2.56.41-.6-1.12-1.1-2-1.4-2.6l-1.16 2.19Z" fill="#C28B0D"/><path d="m36.43 29.44-.89-.16-.19.36c2.48 4.62 4.66 8.65 5.05 9.36H29.94l5.13-9.8s-1.87-.03-3.2-1.51L26.04 39h-12c.97-1.81 12.6-23.93 13.05-24.73l.33.63 1.4 2.61 1.44.36-3.7-6.87-.27.52L11 40h31.1l-5.67-10.56Z" fill="#007C51"/></svg>