<?xml version='1.0' encoding='utf-8'?>
<!-- by TradeStack -->
<svg width="56" height="56" viewBox="0 0 56 56" xmlns="http://www.w3.org/2000/svg"><path fill="#F0F3FA" d="M0 0h56v56H0z" /><path d="M41 13H14v30h27v-7.92a26 26 0 0 1-7 .92c-8.28 0-15-3.58-15-8s6.72-8 15-8a26 26 0 0 1 7 .92V13Z" fill="#DF001B" /><ellipse cx="38.5" cy="28" rx="5.5" ry="3" fill="#DF001B" /><path d="M41 21.65a21.58 21.58 0 0 0-5.33-.65c-7 0-12.67 3.13-12.67 7s5.67 7 12.67 7c1.9 0 3.71-.23 5.33-.65v-1.8c-1.07.3-2.25.45-3.5.45-4.7 0-8.5-2.24-8.5-5s3.8-5 8.5-5c1.25 0 2.43.16 3.5.44v-1.8Z" fill="#DF001B" /></svg>