<?xml version='1.0' encoding='utf-8'?>
<!-- by TradeStack -->
<svg width="56" height="56" viewBox="0 0 56 56" fill="none" xmlns="http://www.w3.org/2000/svg">
<rect width="56" height="56" fill="#1B3D6D" />
<path d="M44.1917 23.2846C42.7314 18.6402 39.0144 14.977 34.3017 13.6033C34.3017 13.6033 33.2396 13.0145 29.4562 13.0145H25.6728C25.6728 13.0145 19.9644 12.4912 15.0526 17.7244C10.1408 22.9576 11.07 28.5832 11.07 28.5832C11.2028 32.4427 12.8622 36.1713 15.7164 38.8533C18.4378 41.4699 22.1548 42.9744 25.9383 42.909L29.1907 42.9744C29.1907 42.9744 37.4213 43.7594 42.2004 36.6292C46.9795 29.499 44.1917 23.2846 44.1917 23.2846ZM28.0623 37.2834C20.8273 35.1247 21 27.9945 21 27.9945C21.4646 20.0139 28.0623 18.9042 28.0623 18.9042C35.2309 21.4554 35 27.7328 35 27.7328C34.8009 35.5826 28.0623 37.2834 28.0623 37.2834ZM29.9208 42C29.9208 42 40 39.115 40 28.1907C40 28.1907 40.4746 18.5117 30.3191 17.9884C24.5783 17.5499 20.0741 22.5986 20 27.9945C19.9704 30.1482 20.952 34.9027 26.7348 37.4796C26.7348 37.4796 18.3714 38.4608 16.5129 29.4336C16.5129 29.4336 15.119 22.4997 21.823 16.6778C24.4121 14.6168 27.711 13.8339 31.0191 14C38.2852 14.3648 44.0404 20.7189 44 27.9945C43.9762 32.2743 41.3076 41.6301 29.9208 42Z" fill="white" />
</svg>