<!-- by TradeStack --><svg width="56" height="56" viewBox="0 0 56 56" xmlns="http://www.w3.org/2000/svg"><path fill="#F0F3FA" d="M0 0h56v56H0z"/><path d="M46.72 23.02c1.4.07 2.82.76 3.18 2.36.08.4.11.75.1 1.08a60.34 60.34 0 0 1-1.16 7.92c-.07.39-.33.6-.77.62H46.2c-.24 0-.4-.15-.47-.35-.04-.1-.04-.27 0-.5l1.06-6.7c.05-.85-.33-1.3-1.13-1.33-.5-.02-1.03.02-1.6.14-.23.04-.31.2-.36.42l-1.27 7.53c-.04.4-.27.77-.65.79h-2c-.4-.02-.57-.27-.51-.69.38-2.89.94-5.77 1.42-8.65.04-.24.15-.55.31-.92.8-1.79 4.06-1.8 5.72-1.72Z" fill="#224E78"/><path fill-rule="evenodd" d="M7.3 29.2v.03l-.03.3c-.07.8-.16 1.72-.05 2.47a3.26 3.26 0 0 0 2.56 2.77c1.2.3 2.42.3 3.62.02.21-.05.42-.13.63-.21l.3-.12a4.6 4.6 0 0 0 1.91-1.44c.28-.33.6-.75.15-1.13-.4-.34-.87-.64-1.42-.9-.38-.2-.72.15-.98.42l-.06.07c-.69.68-1.63.87-2.56.75-1.16-.16-1.24-1.11-.96-2.13 0-.03.02-.06.05-.07a.11.11 0 0 1 .08-.02c1.61.32 3.44.32 4.95-.25.87-.33 1.5-.9 1.87-1.71.29-.61.34-1.26.3-1.94a3.1 3.1 0 0 0-1.9-2.65 6.87 6.87 0 0 0-5.19.1c-.96.4-1.7 1.05-2.19 1.94-.23.43-.39.9-.54 1.38l-.1.33-.04.04a7.94 7.94 0 0 1-2.6-.87l-.05.02a.12.12 0 0 0-.04.05L5 26.5c0 1.27 1.25 2.34 2.27 2.66l.02.02Zm4.36-3.13c-.48.36-.75.93-.89 1.54 0 .05.01.07.06.08 1.08.07 1.9.1 2.49.07.57-.03 1.4-.47 1.27-1.22-.06-.38-.29-.64-.69-.76a2.54 2.54 0 0 0-2.24.3ZM32.53 32.13c-.85-.36-.78-1.28-.56-2.06.02-.05.05-.07.1-.06 1.58.31 3.17.3 4.73-.15a3.32 3.32 0 0 0 2.44-2.98c.1-1.01-.14-1.84-.68-2.5a4.1 4.1 0 0 0-2.83-1.35c-2.35-.2-5.04.5-6 2.94a15.2 15.2 0 0 0-.99 5.51 3.35 3.35 0 0 0 2.67 3.34c1.58.33 3.34.22 4.85-.48.68-.32 1.25-.8 1.7-1.45.32-.47.27-.85-.14-1.13a17.3 17.3 0 0 0-1.13-.7.7.7 0 0 0-.9.15 2.87 2.87 0 0 1-2.21 1.05h-.11c-.32 0-.64 0-.94-.13Zm3.57-5.1a.9.9 0 0 0-.46-1.18 2.64 2.64 0 0 0-1.45-.17c-.98.15-1.6.78-1.83 1.9-.02.07.01.11.08.12.77.03 1.47.06 2.12.07.53.01 1.3-.17 1.54-.73ZM25.5 22.8l-.07.24c0 .01 0 .02-.02.02l-.02.01a27.1 27.1 0 0 0-1.96-.06c-.89 0-1.7.17-2.41.48-1.24.53-1.9 1.5-2.24 2.82a27.27 27.27 0 0 0-.9 5.65c-.08 1.9 1.47 2.86 3.08 3 1.31.11 2.63 0 3.94-.35.5-.13.86-.29 1.09-.48.42-.37.7-.86.82-1.45.93-4.28 1.65-8.72 2.21-13.06.05-.36-.1-.59-.44-.62h-1.71c-.51.02-.82.19-.92.77l-.46 3.03Zm-4.58 7.95c-.13.77.41 1.3 1.09 1.38.44.06.92.05 1.46-.03.26-.04.4-.15.46-.43.13-.64.23-1.28.33-1.92l.31-1.8c.08-.41.14-.86.17-1.36a.2.2 0 0 0-.03-.12.19.19 0 0 0-.1-.07c-.16-.07-.32-.1-.5-.12-1.38-.13-2.45.1-2.73 1.71l-.46 2.76Z" fill="#224E78"/></svg>