<!-- by TradeStack --><svg xmlns="http://www.w3.org/2000/svg" width="56" height="56"><path fill="#1D99D5" d="M0 0h56v56H0z"/><path fill-rule="evenodd" d="M35.17 41a9.47 9.47 0 01-7.1-3 9.6 9.6 0 01-7.16 3C15.99 41 12 37.7 12 33.61c0-2.54 1.55-4.78 3.9-6.11l2.9 1.45c-.32.04-.57.14-.7.22a6.51 6.51 0 00-2.53 4.67c.2 3.37 3.62 4.18 5.3 4.16 2.1 0 5.44-.88 5.44-4.16 0-2.13-2.39-3.4-4.31-4.1l-6.56-3.28a6.19 6.19 0 01-2.37-4.75c0-3.7 3.61-6.71 8.07-6.71 2.9 0 5.45 1.28 6.87 3.2a8.51 8.51 0 016.87-3.2c4.45 0 8.06 3 8.06 6.71 0 1.86-.9 3.53-2.36 4.75l-6.45 3.21.03.05c-1.92.7-4.34 1.98-4.34 4.12 0 3.28 3.32 4.16 5.4 4.16 1.68.02 5.08-.8 5.29-4.16-.01-.9-.53-3.1-2.52-4.67-.14-.08-.42-.2-.77-.23l2.9-1.45c2.34 1.33 3.88 3.58 3.88 6.12C44 37.7 40.05 41 35.17 41zM21.14 18c1.44-.01 4.37.73 4.54 3.82 0 .83-.45 2.85-2.16 4.28-.21.13-.79.35-1.43.13l-.33-.1c-1.34-.42-5.27-1.61-5.27-4.31 0-3 2.86-3.82 4.65-3.82zm13.68 0c-1.43-.01-4.35.73-4.53 3.82.01.83.45 2.85 2.16 4.28.2.13.79.35 1.42.13l.33-.1c1.34-.41 5.26-1.61 5.26-4.31 0-3-2.85-3.82-4.64-3.82zM28 30a2.5 2.5 0 002.5-2.5c0-1.26-1.68-3.43-2.3-4.23L28 23l-.17.22c-.59.76-2.33 3.01-2.33 4.28A2.5 2.5 0 0028 30z" fill="#fff"/></svg>