<!-- by TradeStack --><svg width="56" height="56" viewBox="0 0 56 56" xmlns="http://www.w3.org/2000/svg"><path fill="#F0F3FA" d="M0 0h56v56H0z"/><path d="M27 27.27 13.56 17.02l.58-.78 13.02 9.93-2.25-7.96.92-.26 1.83 6.44 2.53-7.91.92.3L28.46 25l-.7-.22.6 2.13 4.13-1.08 8.92-.5.06.98-8.84.48-3.46.91 14.48 11.04-.58.77-14.2-10.82 3.2 11.27-.93.27-3.44-12.14-5.07 1.34-8.13 3.37-.36-.9 8.19-3.4L27 27.28Z" fill="#EDE14F"/><circle cx="43.5" cy="39.5" r="2.5" fill="#2445A8"/><circle cx="31.5" cy="40.5" r="2.5" fill="#CE2E24"/><ellipse cx="12.64" cy="15.66" rx="2.64" ry="2.66" fill="#CE2E24"/><circle cx="42" cy="25" r="3" fill="#CE2E24"/><circle cx="28" cy="28" r="6" fill="#B3AA36"/><circle cx="26.5" cy="26.5" r="3.5" fill="#EDE24D"/><ellipse cx="31" cy="15.98" rx="2" ry="2.02" fill="#B3AA36"/><circle cx="30" cy="15" r="1" fill="#EDE24D"/><ellipse cx="26" cy="17.95" rx="2" ry="2.05" fill="#B3AA36"/><circle cx="25" cy="17" r="1" fill="#EDE24D"/><circle cx="13.5" cy="32.5" r="1.5" fill="#2445A8"/></svg>