<!-- by TradeStack --><svg width="56" height="56" viewBox="0 0 56 56" xmlns="http://www.w3.org/2000/svg"><path fill="#F0F3FA" d="M0 0h56v56H0z"/><path d="M41 44c-1.44-1.77-2-5.7-2-8.04v-8.02C39 18.5 31.68 12 21.5 12c-1.5 0-3.1.14-4.5.33 0 0 2 3.26 2 6.76v6.78c0 2.5.35 6.05 2.5 9.18 2.68 3.8 8.08 5.41 12.5 5.45a23.42 23.42 0 0 1-7.1-14.71c-.2-2.54-.8-7.28-4.9-10.79 5.63 2.37 6.3 9.17 6.54 10.79A27.63 27.63 0 0 0 37 41.73c-1.03.2-2.15.27-3.31.27-5.07.02-10.37-1.75-13.4-6.04a15.35 15.35 0 0 1-2.29-7.4V24c-.65 2.06-1 4.12-1 6.16 0 1.84.54 3.66 1.37 5.46C20.66 40.58 26.9 44 32.62 44H41Z" fill="url(#asws53zgn)"/><defs><linearGradient id="asws53zgn" x1="19.11" y1="13.68" x2="41.7" y2="43.96" gradientUnits="userSpaceOnUse"><stop offset=".18" stop-color="#BECC4D"/><stop offset=".43" stop-color="#9DB027"/><stop offset=".86" stop-color="#1F4D29"/></linearGradient></defs></svg>