<?xml version='1.0' encoding='utf-8'?>
<!-- by TradeStack -->
<svg width="56" height="56" viewBox="0 0 56 56" xmlns="http://www.w3.org/2000/svg"><path fill="#F0F3FA" d="M0 0h56v56H0z" /><path d="M29.54 15c-5.25.42-8.34 5.47-8.27 10.1.1 6.49 6.44 9.38 8.3 14.9-.36-5.9-6.25-9.95-6.22-16.31.01-3.73 1.81-7.09 6.19-8.69Z" fill="#AA3A24" /><path d="M26.71 15a12.01 12.01 0 0 0-9.57 12.5c.57 9.4 10.63 11.36 14.51 18.5-1.18-8.07-11.6-11.61-11.89-20.52A10.57 10.57 0 0 1 26.71 15Z" fill="#D5AF34" /><path d="M37.72 21.48c-.11-.38.17-.42.16-.95 0-.35-.12-.93-.58-2a19.1 19.1 0 0 0-1.39-2.75c-.43-1.66-1.18-3.85-1.14-4.78-.78.2-1.21 1.1-1.47 2.38A19 19 0 0 1 31.7 10c-.6.35-1.08 1.37-1.08 2.47 0 .93.59 1.82 1.03 2.53-.89.25-1.96.66-2.8 1.04-3 1.3-4.46 4.46-4.46 7.99 0 2.47.92 4.79 3.11 6.97a11.21 11.21 0 0 1-1.77-5.7c-.1-3.16 1.3-5.53 3.85-6.3-1.3.42-2.51 2.52-2.6 4.53-.07 1.7.9 3.53 3.92 4.67 2.95 3.06 3.64 4.91 3.64 4.91s.06 1.02.75 1.24c.48.56 1.2 1.58 1.93 1.65.22.02.43-.05.64-.23 1.56-1.37 3.14-.98 3.14-2.71s-3.1-10.95-3.28-11.58ZM33.73 21c.2.39 1.53.36 1.82 1-1.05.94-2.3 0-1.82-1ZM17.73 21a12.76 12.76 0 0 0-1.65 6.98c.1 4.47 2.35 8.3 5.96 10.97 4.23 3.15 9.12 5 9.61 11.05-.84-4.49-5.55-6.34-9.9-8.8-4.18-2.36-7.54-5.57-7.74-10.51-.13-3.27.8-7.17 3.72-9.69Z" fill="#AA3A24" /></svg>