<!-- by TradeStack --><svg width="56" height="56" viewBox="0 0 56 56" xmlns="http://www.w3.org/2000/svg"><path fill="#F0F3FA" d="M0 0h56v56H0z"/><path fill-rule="evenodd" d="M9 21v5h3v-.76H9.83v-1.36h2v-.76h-2v-1.36h2.15V21H9Zm4.37 5h-.88l1.6-5h1.01l1.6 5h-.87l-.38-1.23h-1.7L13.36 26Zm1.24-3.97.62 2.01h-1.26l.6-2.01h.04ZM17.14 21v5H18v-1.83h.8l.89 1.83h.92l-.99-1.98a1.32 1.32 0 0 0 .63-.59c.13-.23.19-.51.19-.83 0-.32-.06-.6-.18-.84a1.3 1.3 0 0 0-.54-.56c-.24-.13-.53-.2-.88-.2h-1.7Zm.86 2.42h.72c.2 0 .37-.03.5-.1a.62.62 0 0 0 .29-.27 1 1 0 0 0 .1-.45 1 1 0 0 0-.1-.46.63.63 0 0 0-.3-.28 1.1 1.1 0 0 0-.5-.1H18v1.66Zm2.78-1.66V21h3.61v.76H23V26h-.82v-4.24h-1.4ZM25 21v5h.88v-2.12h2.24V26H29v-5h-.88v2.12h-2.24V21H25Zm5 5v-5h3v.76h-2.15v1.36h1.94v.76h-1.94V26H30Zm4.82 0v-5H34v5h.82ZM36 26v-5h1.7c.35 0 .64.07.88.2s.41.32.54.56c.12.24.18.52.18.84 0 .32-.06.6-.19.83a1.28 1.28 0 0 1-.63.59l.99 1.98h-.92l-.9-1.83h-.83V26H36Zm1.58-2.58h-.76v-1.66h.75a1 1 0 0 1 .5.1.6.6 0 0 1 .3.29 1 1 0 0 1 .1.45 1 1 0 0 1-.1.45.62.62 0 0 1-.3.27 1 1 0 0 1-.5.1Zm4.71-1.02a.66.66 0 0 0-.26-.48.95.95 0 0 0-.6-.17.97.97 0 0 0-.43.08.66.66 0 0 0-.28.22.58.58 0 0 0-.04.6c.04.07.1.13.18.18.08.05.16.1.25.13l.28.09.42.11a2.3 2.3 0 0 1 .92.45 1.21 1.21 0 0 1 .42.95c0 .29-.07.54-.2.75-.14.22-.34.39-.6.51-.25.12-.56.18-.93.18-.35 0-.65-.06-.91-.18a1.39 1.39 0 0 1-.61-.5 1.6 1.6 0 0 1-.24-.83h.81c.01.17.06.31.15.42.08.12.2.2.33.25.14.06.3.09.47.09.18 0 .33-.03.47-.09a.77.77 0 0 0 .32-.24c.07-.1.11-.23.11-.37a.49.49 0 0 0-.1-.3.76.76 0 0 0-.29-.22l-.42-.15-.52-.14c-.37-.1-.67-.26-.88-.47a1.12 1.12 0 0 1-.33-.84c0-.28.08-.53.22-.75.15-.21.35-.38.6-.5s.53-.18.85-.18c.32 0 .6.06.84.18a1.35 1.35 0 0 1 .79 1.22h-.79Zm1.26-.64V21h3.62v.76h-1.4V26H45v-4.24h-1.45ZM4 29.76V29h3.58v.76H6.19V34h-.8v-4.24H4ZM8 29v5h2.93v-.76H8.81v-1.36h1.96v-.76H8.8v-1.36h2.1V29H8Zm7.5 1.7h-.83a1.16 1.16 0 0 0-.13-.38.97.97 0 0 0-.56-.47 1.18 1.18 0 0 0-.39-.06c-.24 0-.46.07-.65.2-.2.13-.34.33-.45.58-.1.25-.16.56-.16.93s.05.69.16.94a1.14 1.14 0 0 0 1.1.77c.14 0 .26-.02.38-.06a1.02 1.02 0 0 0 .56-.45.96.96 0 0 0 .14-.38h.83a2.01 2.01 0 0 1-.6 1.2 1.83 1.83 0 0 1-1.32.48 1.96 1.96 0 0 1-1.81-1.15 3.07 3.07 0 0 1-.27-1.35c0-.52.1-.97.27-1.35a1.95 1.95 0 0 1 1.8-1.15c.26 0 .5.04.71.11a1.77 1.77 0 0 1 1 .88c.11.2.19.45.22.72Zm1.38-1.7H16v5h.88v-2.12h2.24V34H20v-5h-.88v2.12h-2.24V29Zm7.24 0H25v5h-.78l-2.3-3.4h-.04V34H21v-5h.79l2.29 3.4h.04V29Zm5.73 3.85c.18-.38.27-.83.27-1.35 0-.52-.09-.97-.27-1.35A1.91 1.91 0 0 0 28.06 29a1.92 1.92 0 0 0-1.8 1.15c-.17.38-.26.83-.26 1.35 0 .52.09.97.27 1.35a1.92 1.92 0 0 0 1.8 1.15 1.91 1.91 0 0 0 1.78-1.15Zm-.7-2.28c.1.25.15.56.15.93s-.05.68-.16.94c-.1.25-.25.44-.43.57-.19.13-.4.2-.65.2a1.1 1.1 0 0 1-.65-.2 1.3 1.3 0 0 1-.44-.57c-.1-.26-.15-.57-.15-.94s.05-.68.15-.93c.11-.26.26-.45.44-.58.2-.13.4-.2.65-.2.24 0 .46.07.65.2.18.13.33.32.43.58ZM33.78 34H31v-5h.81v4.24h1.98V34Zm3.95-1.15c.17-.38.26-.83.26-1.35 0-.52-.09-.97-.26-1.35a2.01 2.01 0 0 0-.72-.85c-.3-.2-.64-.3-1.02-.3s-.72.1-1.02.3c-.3.2-.54.48-.72.85-.17.38-.26.83-.26 1.35 0 .52.09.97.26 1.35.18.37.42.65.72.85.3.2.64.3 1.02.3s.72-.1 1.02-.3c.3-.2.54-.48.72-.85Zm-.69-2.28c.1.25.16.56.16.93s-.05.68-.16.94c-.1.25-.24.44-.42.57-.18.13-.4.2-.63.2-.24 0-.45-.07-.63-.2a1.3 1.3 0 0 1-.42-.57c-.1-.26-.16-.57-.16-.94s.05-.68.16-.93c.1-.26.24-.45.42-.58.18-.13.4-.2.63-.2.24 0 .45.07.63.2s.32.32.42.58Zm4.58.05a1.3 1.3 0 0 0-.15-.34 1 1 0 0 0-.23-.27.9.9 0 0 0-.3-.16 1.18 1.18 0 0 0-1.02.14 1.3 1.3 0 0 0-.45.58c-.1.25-.16.56-.16.93 0 .36.05.67.16.93.1.25.26.45.45.58a1.27 1.27 0 0 0 1.26.06c.16-.1.3-.23.38-.4.1-.18.14-.43.14-.67h-1.04v-.61h1.83v.58c0 .42-.08.78-.25 1.08-.16.3-.39.54-.67.7-.3.17-.62.25-1 .25-.4 0-.77-.1-1.09-.3-.3-.2-.55-.5-.73-.86a3.12 3.12 0 0 1-.26-1.34c0-.39.05-.74.15-1.05.1-.3.25-.57.44-.78a1.86 1.86 0 0 1 1.47-.67 2 2 0 0 1 1.27.45 1.82 1.82 0 0 1 .63 1.17h-.83ZM43.2 34h.8v-5h-.8v5Zm4.8 0h-3v-5h2.98v.76h-2.15v1.36h2v.76h-2v1.36H48V34Zm3.16-3.6a.66.66 0 0 0-.26-.48.94.94 0 0 0-.59-.17.94.94 0 0 0-.43.08.65.65 0 0 0-.28.22.58.58 0 0 0-.04.6c.05.07.1.13.18.18.07.05.16.1.25.13l.27.09.42.11a2.22 2.22 0 0 1 .91.45 1.21 1.21 0 0 1 .41.95c0 .29-.07.54-.2.75-.14.22-.33.39-.58.51-.26.12-.56.18-.92.18-.35 0-.65-.06-.91-.18a1.38 1.38 0 0 1-.6-.5 1.6 1.6 0 0 1-.23-.83h.8a.73.73 0 0 0 .47.67c.14.06.3.09.46.09.18 0 .33-.03.47-.09a.76.76 0 0 0 .31-.24c.08-.1.12-.23.12-.37a.49.49 0 0 0-.1-.3.76.76 0 0 0-.29-.22l-.42-.15-.5-.14a2 2 0 0 1-.88-.47 1.12 1.12 0 0 1-.32-.84 1.33 1.33 0 0 1 .8-1.25c.25-.12.53-.18.84-.18.32 0 .6.06.84.18s.43.28.57.5c.13.2.2.45.2.72h-.77Z"/></svg>