<?xml version='1.0' encoding='utf-8'?>
<!-- by TradeStack -->
<svg width="56" height="56" viewBox="0 0 56 56" xmlns="http://www.w3.org/2000/svg"><path fill="#F0F3FA" d="M0 0h56v56H0z" /><path d="m31.39 28.4-1.13.01a.04.04 0 0 1-.03 0 .04.04 0 0 1-.01-.03v-.85l.01-.04a.06.06 0 0 1 .05-.02h2.17a.05.05 0 0 1 .05.06v2.77a.17.17 0 0 1-.1.16c-1.14.53-2.71.73-3.86.15-1.3-.65-1.8-2.15-1.42-3.5.36-1.31 1.42-2.05 2.76-2.1a3.6 3.6 0 0 1 2.46.66.1.1 0 0 1-.02.12l-.64.65a.12.12 0 0 1-.16 0 2.29 2.29 0 0 0-2.8-.07c-.4.34-.63.8-.67 1.35-.04.42.02.9.22 1.27.61 1.13 2.02 1.23 3.13.79a.09.09 0 0 0 .06-.09v-1.22c0-.04-.03-.07-.07-.07ZM8.72 27.47v.9c0 .01 0 .02-.02.03l-.03.01H6.05c-.01 0-.03 0-.03.02l-.02.03v1.5c0 .03.02.04.05.04h2.9c.03 0 .05.04.05.06v.9l-.01.03-.03.01H5.04c-.02 0-.04-.03-.04-.05v-5.9c0-.03.02-.05.05-.05h3.9a.04.04 0 0 1 .04.02.05.05 0 0 1 0 .03v.88c0 .03-.01.07-.04.07h-2.9l-.04.01-.01.04v1.33l.01.03.03.02h2.63l.03.01.02.03ZM20.72 27.47v.9c0 .01 0 .02-.02.03l-.03.01h-2.62c-.01 0-.03 0-.03.02l-.02.03v1.5c0 .03.02.04.05.04h2.9c.03 0 .05.04.05.06v.9l-.01.03-.03.01h-3.92a.04.04 0 0 1-.03-.02v-.01l-.01-.02v-5.9c0-.02 0-.03.02-.04l.03-.01h3.9a.04.04 0 0 1 .04.02.05.05 0 0 1 0 .03v.88c0 .03-.01.07-.04.07h-2.9l-.04.01-.01.04v1.33l.01.03.03.02h2.63l.03.01.02.03ZM14.5 29.33v-4.26a.07.07 0 0 1 .07-.07h.86c.02 0 .04.01.05.03l.02.05v5.86c0 .04-.02.06-.05.06h-1.29a.15.15 0 0 1-.13-.1 15.6 15.6 0 0 0-2.92-4.6c-.06-.06-.1-.05-.1.04v4.61c0 .03 0 .05-.03.05h-.92a.06.06 0 0 1-.04-.02.06.06 0 0 1-.02-.04v-5.87a.07.07 0 0 1 .07-.07h1.07c.1 0 .2.03.27.1a17.3 17.3 0 0 1 3.08 4.25h.01v-.02ZM45 30.05v.9l-.02.03-.04.02h-3.89l-.03-.01-.02-.04v-5.92l.02-.02a.05.05 0 0 1 .03-.01h.9l.04.02.01.04v4.9c0 .01 0 .02.02.03l.03.01h2.9l.04.02.01.03ZM36.72 26.44l1.37-1.35c.09-.08.18-.1.28-.02l.27.2c.1.07.1.15.02.23l-2 1.9c-.02.02-.05.02-.07 0l-2.04-1.95c-.07-.06-.07-.12.01-.18l.35-.23c.09-.06.17-.05.24.02l1.46 1.38c.04.03.07.03.11 0Z" fill="#6D757B" /><path d="M38.18 28.94c.52-.62.55-1.46.11-2.14a.12.12 0 0 1 .02-.15l.83-.8a.09.09 0 0 1 .07-.02.09.09 0 0 1 .06.03c.79 1.06.92 2.36.25 3.5a3.41 3.41 0 0 1-4.37 1.32 3.15 3.15 0 0 1-1.19-4.84.08.08 0 0 1 .07 0l.03.01.83.79c.02.02.04.05.04.08s0 .06-.02.1c-.65 1.09-.15 2.36 1.1 2.79.8.27 1.64-.03 2.17-.67Z" fill="#3069A7" /><path fill-rule="evenodd" d="M23 30.93v-2.39c0-.04.02-.06.06-.07.18-.03.47-.02.6.13.64.72 1.18 1.49 1.65 2.3.03.07.09.1.16.1h1.05v-.01l.02-.02a.05.05 0 0 0 0-.04c-.08-.2-.17-.4-.28-.6a14.44 14.44 0 0 0-1.28-1.93.06.06 0 0 1 .02-.05l.02-.02c.94-.2 1.3-1.01 1.18-1.94-.16-1.12-1.23-1.39-2.18-1.39a199.73 199.73 0 0 1-2.01 0l-.01.03v5.9c0 .02 0 .04.02.05l.04.02h.88l.04-.02a.06.06 0 0 0 .02-.05Zm.03-4.91c-.02 0-.03.02-.03.04v1.48a.06.06 0 0 0 .02.04.06.06 0 0 0 .04.02h1.08c.28 0 .54-.07.74-.2.19-.14.3-.33.3-.52v-.14c0-.1-.02-.2-.08-.28a.77.77 0 0 0-.22-.24c-.1-.07-.2-.12-.33-.16a1.41 1.41 0 0 0-.4-.06h-1.08c-.02 0-.03 0-.04.02ZM46.01 25.01l-.01.02v5.96h.03l2.23.01a2.64 2.64 0 0 0 1.94-.83 2.86 2.86 0 0 0 .8-2.02v-.29c0-.75-.29-1.48-.8-2.02a2.68 2.68 0 0 0-1.93-.84h-2.25v.01Zm1 1.03-.01.02v3.9l.02.02V30l.04.01h1.04a1.95 1.95 0 0 0 1.35-.55 1.85 1.85 0 0 0 .55-1.31v-.3c0-.48-.2-.95-.56-1.3a1.93 1.93 0 0 0-1.35-.54h-1.06l-.02.02v.02Z" fill="#6D757B" /></svg>