<!-- by TradeStack --><svg width="56" height="56" viewBox="0 0 56 56" xmlns="http://www.w3.org/2000/svg"><path fill="#F0F3FA" d="M0 0h56v56H0z"/><path d="M27.52 13.02C18.2 13.42 13.29 20.51 12 24h3.88v-5.49c.97 1.5 3 4.5 3.4 4.5.38 0 1.77-5.33 2.42-8 .48 2.67 1.74 8 2.9 8 1.17 0 2.75-6.33 3.4-9.5.16 3.17.68 9.6 1.45 10 .97.49 4.85-2.5 7.76-2.5 2.33 0 5.5 1.66 6.79 2.5-.48-2-4.85-10.99-16.48-10.49Z" fill="url(#apkmi1qum)"/><path d="M7.5 28v1l2.5-.01V30H7.5v1H10v1H6v-5h4v1H7.5ZM19.5 28v1l2.5-.01V30h-2.5v1H22v1h-4v-5h4v1h-2.5ZM35.5 28v1l2.5-.01V30h-2.5v1H38v1h-4v-5h4v1h-2.5ZM17 27v5h-1.5v-3l-.98 3h-1.04l-.98-3v3H11v-5h2l1.01 3.46L15 27h2ZM25.6 32l-1.1-2v2H23v-5h2.08c.96 0 1.92.45 1.92 1.5 0 .7-.51 1.21-1.18 1.4L27 32h-1.4Zm-1.1-3h.5s.5 0 .5-.5-.51-.5-.5-.5h-.5v1ZM31.5 28.5c-.18-.32-.47-.5-.93-.5-.8 0-1.07.72-1.07 1.5 0 .85.14 1.5 1 1.5s1-.5 1-1h-1v-1H33v1c0 1-1 2-2.5 2a2.41 2.41 0 0 1-2.5-2.5c0-1.45 1.13-2.5 2.56-2.5 1.06 0 2.15.43 2.44 1.5h-1.5ZM44 32h-1.5l-2-3.08V32H39v-5h1.5l2 3.1V27H44v5ZM50 27v1h-1.75v4h-1.5v-4H45v-1h5Z" fill="#F7B74C"/><path d="M15.73 35v3h-.8v-1.79L14.19 38h-.65l-.74-1.79V38H12v-3h.95l.92 2.07.91-2.07h.95ZM17.1 35.61v.6h1.08v.55H17.1v.64h1.2v.6h-2v-3h2v.61h-1.2ZM21.2 35v.61h-.86V38h-.8v-2.39h-.88V35h2.55ZM23.66 37.45h-1.23l-.2.55h-.84l1.2-3h.92l1.2 3h-.86l-.2-.55Zm-.2-.55-.42-1.07-.4 1.07h.81ZM25.87 37.42h1.05V38h-1.85v-3h.8v2.42ZM28.5 38c-.25 0-.47-.03-.66-.1-.19-.07-.34-.18-.46-.31a.79.79 0 0 1-.17-.5h.85c.01.11.05.2.13.25.07.06.16.09.28.09.12 0 .21-.03.28-.07.07-.05.1-.12.1-.2a.22.22 0 0 0-.08-.19.64.64 0 0 0-.2-.11c-.08-.03-.2-.07-.34-.1a4 4 0 0 1-.52-.18.94.94 0 0 1-.35-.26.67.67 0 0 1-.14-.45c0-.27.1-.48.33-.64.22-.15.5-.23.87-.23.36 0 .65.08.87.23a.8.8 0 0 1 .36.65h-.87c0-.1-.04-.17-.12-.22a.44.44 0 0 0-.27-.09c-.1 0-.18.03-.24.07-.06.05-.09.11-.09.2 0 .1.05.17.15.22.1.05.26.11.47.17.22.06.39.13.52.18.13.06.25.15.35.26.1.11.14.25.14.43 0 .17-.05.32-.14.45a.96.96 0 0 1-.42.33c-.18.08-.4.12-.64.12ZM31.04 36.5a1.43 1.43 0 0 1 .8-1.3c.25-.13.54-.2.86-.2.39 0 .72.1 1 .28.28.19.46.44.56.75h-.88a.66.66 0 0 0-.29-.27.85.85 0 0 0-.4-.1.81.81 0 0 0-.6.23.83.83 0 0 0-.23.61c0 .26.07.46.23.62.15.15.35.22.6.22.15 0 .29-.03.4-.1a.66.66 0 0 0 .29-.27h.88c-.1.32-.28.57-.56.75a1.8 1.8 0 0 1-1 .27c-.32 0-.6-.06-.86-.19a1.43 1.43 0 0 1-.8-1.3ZM36.3 38c-.3 0-.59-.06-.85-.2-.25-.12-.46-.3-.61-.53a1.4 1.4 0 0 1-.23-.77c0-.29.08-.55.23-.77.15-.23.36-.41.61-.54.26-.13.55-.19.85-.19.31 0 .6.06.85.2.26.12.47.3.61.53.15.22.23.48.23.77 0 .28-.08.54-.23.77-.15.23-.35.41-.6.54-.26.13-.55.19-.86.19Zm0-.65c.27 0 .48-.08.63-.23a.82.82 0 0 0 .24-.62.82.82 0 0 0-.24-.62.85.85 0 0 0-.63-.23.88.88 0 0 0-.63.23.83.83 0 0 0-.24.62c0 .26.08.46.24.62.16.15.37.23.63.23ZM40.11 38l-.68-1.13h-.2V38h-.8v-3h1.35c.57 0 1.2.3 1.2.96a.8.8 0 0 1-.18.53 1 1 0 0 1-.54.32l.76 1.19h-.9Zm-.87-1.64h.5c.14 0 .25-.03.32-.1a.34.34 0 0 0 .11-.27c0-.1-.03-.2-.11-.26-.07-.06-.18-.1-.33-.1h-.5v.73ZM44 35.98c0 .17-.04.33-.13.47a.93.93 0 0 1-.4.34c-.19.09-.41.13-.68.13h-.5V38h-.8v-3h1.3c.59 0 1.21.32 1.21.98Zm-1.27.37c.15 0 .27-.03.34-.1a.34.34 0 0 0 .11-.27c0-.11-.03-.2-.1-.27-.08-.06-.2-.1-.35-.1h-.44v.74h.44Z"/><defs><linearGradient id="apkmi1qum" x1="13.45" y1="22.5" x2="41.58" y2="20.62" gradientUnits="userSpaceOnUse"><stop stop-color="#EF8E45"/><stop offset="1" stop-color="#F8C93D"/></linearGradient></defs></svg>