<!-- by TradeStack --><svg viewBox="0 0 56 56" xmlns="http://www.w3.org/2000/svg"><path fill="#21424B" d="M0 0h56v56H0z"/><path d="M30.64 21.72c.86-.57 1.8-.94 2.8-1.12.02 0 .03 0 .03.03l-.24 1.41c0 .02 0 .03.02.02l7.16-2.32c.01 0 .02 0 .02-.02v-.02l-5.97-4.69c-.02-.02-.04-.01-.04.02l-.33 1.9-.02.01a11.08 11.08 0 0 0-5.89 2.18c.94.73 1.74 1.59 2.4 2.6.01.02.03.02.06 0Zm-8.04.5-.24-1.45c0-.02 0-.03.02-.02A7.49 7.49 0 0 1 28.42 27h-.64c-.02 0-.04 0-.04.02a8.01 8.01 0 0 0 .32 3.45c0 .02.02.03.05.03h3.72c.02 0 .04-.01.04-.03l.04-.18c.21-1.2.25-2.39.1-3.57a11.1 11.1 0 0 0-5.25-8.12 10.84 10.84 0 0 0-4.98-1.6c-.03 0-.04 0-.05-.03L21.41 15h-.02l-5.98 4.82c-.03.02-.03.03 0 .04l7.15 2.38.03-.01v-.03Zm-2.88 12.9c.03 0 .05 0 .04-.04l-.24-1.4c0-.02 0-.03.03-.02l7.17 2.32c.02 0 .02.02 0 .03l-5.97 4.7a.03.03 0 0 1-.04-.02l-.32-1.88c0-.02-.02-.03-.04-.04a11.1 11.1 0 0 1-9.25-6.13 10.86 10.86 0 0 1 2.02-12.33c0-.02.02-.02.03 0l2.93 2.05c.02.01.02.03 0 .04a7.18 7.18 0 0 0-2.47 5.35 7.2 7.2 0 0 0 1.68 4.79 7.37 7.37 0 0 0 4.43 2.58Zm10.09-1.79a7.32 7.32 0 0 1-2.1-7.83 6.82 6.82 0 0 0-2.4-3.24c-.03 0-.04 0-.05.02-.86 1.44-1.37 2.99-1.5 4.65a10.8 10.8 0 0 0 3.32 8.74c.02.02.04.02.06 0l2.67-2.3v-.04Zm12.12-2.72c.03-.03.02-.05-.02-.05h-4.85c-.03 0-.06-.01-.06-.04v-3.49c0-.02.02-.03.04-.03h8.88a10.75 10.75 0 0 1-5.14 10.33 11.11 11.11 0 0 1-4.97 1.6c-.02 0-.04.02-.04.04l-.34 2c0 .03-.02.04-.05.02l-6.37-5v-.02l7.65-2.46c.03 0 .04 0 .03.03l-.24 1.4c0 .03 0 .04.04.04a7.57 7.57 0 0 0 4.68-3.3l.3-.43c.22-.34.38-.56.46-.64ZM23.27 27h-4.74c-.02 0-.03.01-.03.03v3.43c0 .03.01.04.04.04h4.94c.02 0 .02 0 .02-.02-.23-1.13-.3-2.28-.2-3.45 0-.02 0-.03-.03-.03Z" fill="#fff"/></svg>