<?xml version='1.0' encoding='utf-8'?>
<!-- by TradeStack -->
<svg width="56" height="56" viewBox="0 0 56 56" xmlns="http://www.w3.org/2000/svg"><path fill="#F0F0FA" d="M0 0h56v56H0z" /><path d="M28.29 43.32 25 37l3.15-2.6 2.73 2.36-2.6 6.57Zm10.85-4.53-6.5-2.03c.33-1.85.53-2.39.58-4.38l3.82-.3 2.1 6.71Zm-21.94.03 2.06-6.71 4.24.31.36 4.28-6.66 2.12Zm12.47-7.22 1.69.43c.35 1.18.09 2.57-.18 3.73l-2.54-2 1.03-2.16Zm-4.96 4.6-.38-3.85 2.35-.8.98 2.2-2.95 2.45Zm-4.93-4.9 2.61-3 2.05 1.02-.7 2.3-3.96-.32Zm16.78-.09-3.43.32c-.38-1.69-.6-1.68-.96-2.36l1.76-.9c2.63 2.94 0 .02 2.63 2.94Zm7.1-3.54-6.2 3.28-2.7-3.15 2.54-3.17 6.35 3.04Zm-12.53 3.6-1.78-.39-1.14 2.36-1.18-2.37-2.58.68.65-2.47-2.1-1.25 1.47-.9c1.15.57 2.16 1.2 3.3 1.8 1.35.56 2.72 1.2 3.36 2.55Zm-18.42-3.46 6.24-3.18c.63.8 2.25 2.57 2.61 3.2l-2.69 3.12-6.16-3.14Zm19.9-3.85 3.84.45-2.53 2.91-2.07-1.02.76-2.34Zm-9.44.05c.23 1.41.82 1.96.97 2.42l-1.9.87-2.46-3 3.4-.29Zm10.26 3.82-1.76.84c-1.12-.56-2.16-1.32-3.54-1.98-1.29-.6-2.46-1.26-2.95-2.39l1.71.38 1.26-2.1 1.18 2.12 2.56-.66-.7 2.53c2.2 1.24 0 .03 2.24 1.26Zm-4.76-5.93 2.98-2.42.29 3.8-2.28.74-1-2.13Zm-3.55-2.22c2.67 2.21.05.09 2.67 2.21-1.19 2.27 0 0-1.12 2.2l-1.68-.52.13-3.9Zm3.04 1.48-2.83-2.4c.1-1.08 2.08-5.74 2.83-6.46.54.74 3.1 5.84 3.16 6.22l-3.16 2.64Zm10.98-4.35-2.06 6.63-4.3-.37-.33-4.17 6.69-2.1Zm-16.03 6.38-3.84.3-2.06-6.7 6.44 2.06c-.33 1.74-.53 4.33-.54 4.34Zm17.1 16.38c.54-.7-.62-3.4-2.13-7.73 1.29-.53 6.9-3.15 6.92-4.15.01-.92-6.44-3.64-6.9-4.03.14-1.05.93-3.07 1.25-4.14 1.22-3.87 2.04-4.61-1.14-3.54l-5.91 1.87c-2.1-4.14-3.63-9.06-5.4-5.78a62.96 62.96 0 0 0-2.89 5.72c-5.57-1.72-7.04-2.6-8.08-2.22-.32.97.59 2.82 2.26 8.1-1.82 1.02-7.18 3.05-7.19 4.22 0 .73 5.02 3.1 7.17 4.08-1.85 5.89-.87 2.98-1.2 3.94-1.63 4.76-1.57 4.53 1 3.75 1.68-.52 4.67-1.62 6.03-1.9 2.83 5.8 3.61 7.28 4.4 7.24 1.16-.08 3.1-5.1 3.89-7.22 3.68 1.26 7.22 2.74 7.92 1.8Z" fill="#C4AD65" /></svg>