<?xml version='1.0' encoding='utf-8'?>
<!-- by TradeStack -->
<svg width="56" height="56" viewBox="0 0 56 56" xmlns="http://www.w3.org/2000/svg"><path fill="#71C043" d="M0 0h56v56H0z" /><path d="M26.79 26.01c.54 0 .78-.05.9-.13a.47.47 0 0 0 .2-.39c0-.67-.43-1.21-1.23-1.21-1.25 0-1.82 1.21-1.82 1.6 0 .08.04.13.26.13h1.69Zm-1.71.75c-.35 0-.39.02-.39.24 0 1.68 1.15 3.02 2.8 3.02.74 0 1.36-.24 1.78-.93.2-.05.4.13.41.3-.63 1.5-2 2.05-3.13 2.05-2.16 0-3.59-1.6-3.59-3.73 0-2.1 1.43-4.14 3.92-4.14 1.37 0 2.78.9 2.78 2.52 0 .16-.01.28-.09.43-.1.16-.54.24-1.28.24M34.2 29.42c-.02.45-.23.9-.9.9-.7 0-1.04-.6-1.04-1.08 0-.8.49-1.06 1-1.25.34-.13.68-.22.82-.22.1 0 .15.1.15.31l-.04 1.34Zm3.1.94-.1-.05c-.05 0-.17.05-.26.05-.67 0-.95-.56-.89-1.64l.13-2.91c.07-1.64-.84-2.33-2.3-2.33-.95 0-2.28.63-2.86 1.17-.61.58-.72.97-.72 1.2 0 .16.1.3.35.3.4 0 .93-.18 1.19-.34.2-.13.31-.32.35-.67.07-.54.46-.83.98-.83.91 0 1.17.83 1.14 1.78l-.02.48c0 .19-.06.36-.43.49-.69.26-1.4.52-2.04.74-1.28.45-1.54 1.07-1.54 1.74 0 .93.63 1.8 1.9 1.8a3 3 0 0 0 1.57-.48c.28-.17.4-.26.5-.26.1 0 .17.1.3.22.35.4.87.53 1.33.53.4 0 1.1-.12 1.38-.4.2-.21.16-.5.04-.59ZM37.86 30.75a5.4 5.4 0 0 1-.26-2.1c.12-.16.4-.18.53-.05.33 1.05 1.02 2.04 2 2.04a1 1 0 0 0 1.04-1.05c0-.69-.61-1.13-1.26-1.45-.97-.47-1.97-1.16-1.97-2.35-.02-1.46 1.22-2.31 2.76-2.31a4 4 0 0 1 1.73.37c.19.39.28.97.28 1.8-.06.16-.37.21-.5.1-.28-.86-.88-1.57-1.6-1.57-.6 0-1.04.43-1.04.97s.54.94 1.25 1.27c1 .49 2.06 1.12 2.06 2.6 0 1.62-1.43 2.33-2.9 2.33-.76 0-1.52-.15-2.12-.6ZM51.85 23.5a20.8 20.8 0 0 1-3.25 0c-.14.1-.16.39-.03.54l.63.13c.28.05.35.15.35.31 0 .08-.22.8-.66 1.8l-.56 1.25a5.57 5.57 0 0 1-.6 1.15 5.89 5.89 0 0 1-.63-1.41l-.82-2.14a6.5 6.5 0 0 1-.14-.41l-.06-.13c-.29-.75-.84-1.01-1.2-1.04-.28-.01-1.24-.01-1.6-.03-.37-.02-.47.5 0 .6.66.15.79.44 1.23 1.57l1.5 3.9c.27.7.31 1.1.31 1.38 0 .78-.51 1.76-.9 2.32-.2.26-.53.35-.79.37l-.4.02c-.53.02-.95.22-.95.83 0 .54.32.99 1.02.99.61 0 1.1-.3 1.41-1 .78-1.71 2.43-5.02 3.06-6.28l.95-1.9a8.2 8.2 0 0 1 1.13-1.87c.26-.26.84-.36 1.06-.41.13-.13.13-.49-.06-.54ZM17.92 30.37c-1.42 0-2.57-1.28-2.57-2.86 0-1.59 1.15-2.87 2.57-2.87s2.57 1.28 2.57 2.87c0 1.58-1.15 2.86-2.57 2.86Zm0-6.9a3.94 3.94 0 0 0-3.85 4.04 3.94 3.94 0 0 0 3.85 4.03c2.12 0 3.85-1.8 3.85-4.03a3.94 3.94 0 0 0-3.85-4.03ZM9.42 30.37c-1.42 0-2.57-1.28-2.57-2.86 0-1.59 1.15-2.87 2.57-2.87S12 25.92 12 27.51c0 1.58-1.15 2.86-2.57 2.86Zm0-6.9a3.94 3.94 0 0 0-3.84 4.04 3.94 3.94 0 0 0 3.84 4.03c1 0 1.9-.4 2.57-1.04v.46c0 1.58-1.15 2.86-2.57 2.86-.88 0-1.66-.5-2.12-1.25H5.73c.38 1.56 1.8 2.53 3.6 2.53 2.35 0 3.94-1.67 3.94-4.13V27.5a3.94 3.94 0 0 0-3.85-4.03Z" fill="#4A872A" /><path d="M26.21 25.48c.54 0 .78-.05.9-.13a.48.48 0 0 0 .2-.4c0-.68-.43-1.23-1.23-1.23-1.24 0-1.82 1.23-1.82 1.63 0 .08.04.13.26.13h1.7Zm-1.7.76c-.36 0-.4.02-.4.25 0 1.7 1.15 3.07 2.8 3.07.75 0 1.36-.25 1.79-.95.18-.06.39.13.4.3A3.34 3.34 0 0 1 25.98 31c-2.15 0-3.58-1.63-3.58-3.8 0-2.13 1.43-4.2 3.91-4.2 1.38 0 2.79.9 2.79 2.56 0 .17-.02.28-.1.43-.1.18-.53.25-1.28.25M33.62 29.05c-.02.45-.22.9-.9.9-.7 0-1.03-.6-1.03-1.1 0-.8.48-1.07 1-1.26.33-.14.67-.23.82-.23.1 0 .15.11.15.32l-.04 1.37Zm3.1.95-.1-.05c-.05 0-.16.05-.25.05-.68 0-.95-.57-.9-1.67l.13-2.96c.08-1.67-.84-2.37-2.3-2.37-.94 0-2.28.64-2.86 1.2-.61.58-.72.98-.72 1.2 0 .18.11.31.35.31.41 0 .93-.17 1.19-.34.2-.13.32-.32.35-.68.08-.55.47-.84.99-.84.9 0 1.17.84 1.13 1.8l-.02.5c0 .19-.05.36-.43.49-.68.27-1.39.53-2.04.76-1.28.45-1.54 1.08-1.54 1.76 0 .95.63 1.84 1.9 1.84.66 0 1.22-.27 1.57-.5.28-.16.41-.26.5-.26.1 0 .17.1.3.23.35.4.87.53 1.34.53.4 0 1.1-.12 1.38-.4.2-.22.16-.5.04-.6ZM37.29 30.4a5.58 5.58 0 0 1-.26-2.15c.1-.15.39-.17.52-.04.33 1.06 1.02 2.07 2 2.07a1 1 0 0 0 1.04-1.06c0-.7-.6-1.16-1.26-1.48-.96-.48-1.97-1.18-1.97-2.39-.02-1.48 1.23-2.35 2.77-2.35.76 0 1.47.23 1.72.38.2.4.28.99.28 1.84-.05.15-.37.2-.5.1-.28-.88-.87-1.6-1.6-1.6-.59 0-1.03.44-1.03.99 0 .54.53.94 1.24 1.29 1 .49 2.06 1.13 2.06 2.63 0 1.65-1.43 2.37-2.9 2.37-.76 0-1.52-.15-2.11-.6ZM51.28 23a20.8 20.8 0 0 1-3.25 0c-.15.1-.17.39-.04.54l.63.13c.28.05.35.15.35.31 0 .08-.22.8-.66 1.8l-.56 1.25a5.57 5.57 0 0 1-.6 1.15 5.89 5.89 0 0 1-.62-1.41l-.82-2.14a6.5 6.5 0 0 1-.15-.41l-.06-.13c-.29-.75-.83-1.01-1.19-1.04-.29-.01-1.24-.01-1.6-.03-.37-.02-.48.5-.01.6.66.15.8.44 1.23 1.57l1.5 3.9c.28.7.32 1.1.32 1.38 0 .78-.52 1.76-.91 2.32-.19.26-.52.35-.78.37l-.4.02c-.53.02-.96.22-.96.83 0 .54.32.99 1.02.99.62 0 1.1-.3 1.41-1 .78-1.71 2.44-5.02 3.06-6.28l.95-1.9a8.2 8.2 0 0 1 1.13-1.87c.26-.26.84-.36 1.06-.41.13-.13.13-.49-.05-.54ZM17.34 29.85c-1.42 0-2.57-1.28-2.57-2.85s1.15-2.84 2.57-2.84 2.57 1.27 2.57 2.84c0 1.57-1.15 2.85-2.57 2.85Zm0-6.85a3.93 3.93 0 0 0-3.85 4c0 2.21 1.73 4 3.85 4a3.93 3.93 0 0 0 3.85-4c0-2.2-1.73-4-3.85-4ZM8.85 29.9c-1.42 0-2.57-1.29-2.57-2.87s1.15-2.86 2.57-2.86c1.41 0 2.57 1.28 2.57 2.86 0 1.58-1.16 2.87-2.57 2.87Zm0-6.9A3.94 3.94 0 0 0 5 27.03 3.89 3.89 0 0 0 8.85 31c.99 0 1.88-.34 2.57-.98v.46c0 1.58-1.16 2.86-2.57 2.86-.89 0-1.67-.58-2.13-1.34H5.15c.39 1.57 1.8 2.63 3.6 2.63 2.35 0 3.94-1.68 3.94-4.14v-3.46A3.94 3.94 0 0 0 8.85 23Z" fill="#fff" /></svg>