<?xml version='1.0' encoding='utf-8'?>
<!-- by TradeStack -->
<svg width="56" height="56" viewBox="0 0 56 56" xmlns="http://www.w3.org/2000/svg"><path fill="#F0F3FA" d="M0 0h56v56H0z" /><path fill-rule="evenodd" d="M27.54 37.68a35.59 35.59 0 0 0 8.33 3.92l.01-.04-.01-.03c-3.28-1.39-5.85-3.14-7.71-5.24a15.31 15.31 0 0 1-3.83-8.8c-.2-1.96-.14-3.91.19-5.84a34.4 34.4 0 0 1 4.15-11.47c.1-.17.05-.22-.13-.15-2.5.94-4.55 2.34-6.16 4.2a13.91 13.91 0 0 0-3.17 6.59 14.09 14.09 0 0 0 1.82 10.47 20.98 20.98 0 0 0 6.5 6.39Zm6.32 3.8v-.01c-.51-.07-1.05-.2-1.63-.37-4.68-1.41-8.36-3.55-11.05-6.4a16.11 16.11 0 0 1-4.46-11.65c0-.08 0-.17-.03-.25-.02-.1-.06-.1-.1-.02a11.03 11.03 0 0 0-1.87 5.16 8.34 8.34 0 0 0 1.24 5.26c1.87 3 5.66 5.3 11.38 6.92a50.92 50.92 0 0 0 6.52 1.4v-.04ZM31.1 27.91c-.22.01-.24.08-.05.2.4.25.57.55.48.88-.05.2-.24.48-.56.86-.18.2-.3.34-.35.44l-1.9 2.95a.33.33 0 0 0-.04.27 8.49 8.49 0 0 0 2.74 4.57 9.08 9.08 0 0 0 4.93 2.16c.03 0 .06 0 .09-.04a.09.09 0 0 0 0-.09 9.26 9.26 0 0 1-.75-3.79c.03-1.97 1.01-3.25 2.95-3.83.6-.18 1.1-.27 1.5-.27.66-.01 1 .23 1 .71 0 .21.06.22.16.05.44-.75.68-1.54.7-2.38.06-1.32-.95-1.9-3.02-1.75a.23.23 0 0 1-.2-.09c-.3-.36-.74-.6-1.3-.7a24.52 24.52 0 0 0-6.38-.15Zm4.87 1.43c.12.03.2.1.24.22.07.19.17.36.3.5.08.12.19.14.31.09.47-.2.9-.5 1.27-.89a.06.06 0 0 0 .02-.07c-.01-.03-.03-.04-.06-.04l-3-.18c-.04 0-.06.02-.05.06a75.07 75.07 0 0 0 .97.31ZM21.1 41.53c2.37.52 5.34.6 8.91.26.22-.02.22-.05 0-.08l-1.16-.16a32.49 32.49 0 0 1-7.41-1.86c-3.74-1.44-6.17-3.48-7.28-6.14-.05-.1-.1-.1-.13 0a7.1 7.1 0 0 0 1.99 5.38 9.91 9.91 0 0 0 5.08 2.6Z" fill="#93818D" /></svg>