<?xml version='1.0' encoding='utf-8'?>
<!-- by TradeStack -->
<svg width="56" height="56" viewBox="0 0 56 56" xmlns="http://www.w3.org/2000/svg"><path fill="#F0F3FA" d="M0 0h56v56H0z" /><path d="m37.46 13.32.25 1.26c0 .05.02.1.05.13.73 1.11 1.6 2.14 2.6 3.07.26.3.44.73.57 1.3 1.06 4.95-.96 10.25-6.1 11.63-.72.19-1.8.28-3.27.28-1.14 0-3.1-.1-5.9-.31a10.1 10.1 0 0 0-3.4.45c-.23.05-.43.06-.59.01l-.03-.01-.01-.03c-.2-.94 25.14-6.34 10.89-10.98 0 .02-.02.03-.03.04a.08.08 0 0 1-.04.02.65.65 0 0 1-.25-.05 8.36 8.36 0 0 0-4.04-.97c-3.32.05-6.61 1.84-8.82 4.31-.87.96-1.6 2.14-2.17 3.54a9.38 9.38 0 0 0-.39 4.24 12.45 12.45 0 0 0 2.37 5.6c.57.77.92 1.21 1.04 1.34a12.5 12.5 0 0 0 6.6 3.66c3.2.52 6.12.34 8.95-1.26.5-.27 1.54-.7 3.13-1.25.2-.07.4-.15.58-.25l1.14-.6c.27-.11.5-.26.7-.44a49.59 49.59 0 0 0 .73-.64c.07-.01.17.07.14.15l-.02.03a.91.91 0 0 0-.3.57 10.2 10.2 0 0 1-3.74 2.2c-.1.04-.44.21-.3.28l1.98-.62a5.21 5.21 0 0 0 1.47-.7h.02a.04.04 0 0 1 0 .07c-3 3.6-9.5 3.88-13.56 3.2a.39.39 0 0 0-.18.02.07.07 0 0 0-.04.02.07.07 0 0 0 .04.11l.41.14-.66.22a.08.08 0 0 0-.04.03.08.08 0 0 0 0 .1l.04.02c1.2.4 3.27-.13 2.41.74a36.14 36.14 0 0 1-10.25-2.87c-.45-.2-.86-.5-1.22-.87a.12.12 0 0 0-.2.1c.03.25.69 1.76.58 1.74-.5-.08-1.96-2.04-2.37-2.48a17.93 17.93 0 0 1-2.9-4.79 15.17 15.17 0 0 1-1.15-8.53c.58-1.5 1.07-3.37 1.69-4.6 4.41-8.69 14.21-11 22.09-6.65a.24.24 0 0 0 .27-.03.25.25 0 0 0 .07-.27c-.1-.32-.17-.61-.19-.87-.04-.8.01-1.64.17-2.52a.35.35 0 0 1 .08-.16c.15-.17.2-.35.15-.54l.23-.6c0-.02.02-.03.04-.04a.07.07 0 0 1 .09.02l.01.05c-.12 1.13.08 2.2.58 3.24Z" fill="#F3782E" /><path d="M36.5 10.65c.35 1.35-.68 2.7-.2 4.09a.25.25 0 0 1-.2.32c-.05 0-.1 0-.14-.02A16.34 16.34 0 0 0 28 13a15.79 15.79 0 0 0-14.13 8.7c-.62 1.22-1.1 3.08-1.69 4.59.6-4.7 3.45-9.16 7.35-11.66.4-.27.78-.54 1.2-.77a15.2 15.2 0 0 1 7.2-1.86 16.3 16.3 0 0 1 7.85 2.16c.06.03.14-.02.13-.1-.03-.32-.2-.67-.15-1.09a8.16 8.16 0 0 1 .6-2.27.13.13 0 0 1 .06-.03l.09-.02ZM40.37 17.78c-1.01-.93-1.88-1.96-2.61-3.07a.33.33 0 0 1-.05-.13l-.25-1.26a19.5 19.5 0 0 0 2.05 2.95c.35.42.63.92.86 1.5Z" fill="#FAA131" /><path d="m22.26 31.13-.9.62a.11.11 0 0 1-.13 0 .12.12 0 0 1-.05-.13c.09-.37.15-.73.2-1.06.16-1.4.91-2.61 2-3.4 1.64-1.18 3.57-1.02 5.45-.84a5.6 5.6 0 0 0 4.24-1.15c.39-.33.66-.71.83-1.14.77-1.93-.43-2.87-1.7-3.9.05.02.37.12.32-.05a7.49 7.49 0 0 0-3.62-1.44 7.33 7.33 0 0 0-3.17.22c-2.21.7-4.37 1.53-5.98 3.29-.9.98-1.6 1.82-2.37 2.91a.12.12 0 0 1-.15.04.13.13 0 0 1-.06-.06.13.13 0 0 1 0-.1c1.5-4.5 4.58-7.62 9.08-8.81 1.17-.31 2.52-.43 4.06-.35 2.68.14 5.1 1.08 7.27 2.84 1.18.96 2.13 2.09 2.85 3.39a.6.6 0 0 1 .07.22c.4 3.87-2.94 7.19-6.32 8.07-1.1.29-2.53.21-3.66.15-1.41-.08-3.15-.14-5.2-.19-2.17 0-4.57.94-3.06.87Z" fill="#FAA131" /><path d="M21.57 25.04c.23.63.64 1.74.3 2.41-.53 1.07-1.18 2.19-1.09 3.39 0 .03 0 .06-.02.09a.14.14 0 0 1-.06.06.12.12 0 0 1-.08 0 .13.13 0 0 1-.07-.04c-.94-1.11-.54-2.44.17-3.7a5.83 5.83 0 0 0 .75-2.23.06.06 0 0 1 .07-.01l.03.03Z" fill="#FAA131" /><path d="m44.9 28.9-.11-.82a.04.04 0 0 0-.03-.03h-.03l-.01.02c-.23.55-.3 1.19-.54 1.74-.46 1.03-1 1.91-1.63 2.66.32 1.9-3.49 4.25-5.42 6.17l-1.85.95h-.01c-.03.06.03.14.09.12 1-.31 2-.64 3.03-.98.8-.27 1.53-.6 2.2-.98l2.09-1.22c.09-.05.18-.17.28-.34l.01-.02a.06.06 0 0 1 .05-.02l.02.01.06.04c.02 0 .03.02.03.03v.04a4.67 4.67 0 0 1-1.3 1.9c.02-.17-4.97 2.24-6.1 2.42-2.82 1.6-5.75 1.78-8.94 1.26-3.55-.59-6.86-3.2-8.57-6.42-.8-1.51-1.28-2.9-1.44-4.18-.2-1.48-.06-2.9.4-4.24-.17.74-.26 1.49-.3 2.24-.04.85.04 1.6.24 2.24.66 2.16 2.2 3.7 4.02 4.88.92.6 2.38 1.1 3.23 1.34 5.03 1.5 11.55.26 15.55-3.3l1.13-1.02c.29-.27.74-.77 1.37-1.52a9.84 9.84 0 0 0 2.34-6.3.06.06 0 0 1 .04-.02l.05.01.03.05c.15 1.1.16 2.2.03 3.29Z" fill="#FAA131" /><path d="M44.9 28.9c-.57 3.14-2 5.17-4.22 7.32a15.01 15.01 0 0 1-3.55 2.42c-.38-.06-1.51.29-1.87.42A.25.25 0 0 1 35 39a.1.1 0 0 1 .02-.17c.7-.33 1.52-.74 2.47-1.23 2.18-1.14 3.5-3.29 5.05-5.14.63-.75 1.17-1.63 1.63-2.66.24-.55.3-1.19.54-1.74l.01-.01a.04.04 0 0 1 .06.02l.12.82Z" fill="#F3782E" /><path d="M29.7 44c.85-.88-1.21-.36-2.42-.75-.08-.02-.08-.13 0-.15l.66-.22c2 .38 4.03.54 6.07.5.07 0 .16.05.27.13a.07.07 0 0 1 .02.1l-.03.02c-.39.2-.65.3-.8.31-.56.02-1.06.08-1.67.05-.7-.03-1.4-.03-2.1 0Z" fill="#FAA131" /><path d="M24.04 28.74a.98.98 0 0 0 .68 1.23c.53.14 1.08-.18 1.24-.71a.98.98 0 0 0-.68-1.23 1.02 1.02 0 0 0-1.24.71Z" fill="#C01C2D" /></svg>