<!-- by TradeStack --><svg width="56" height="56" viewBox="0 0 56 56" xmlns="http://www.w3.org/2000/svg"><path fill="#F0F3FA" d="M0 0h56v56H0z"/><path d="M30 12a2 2 0 1 1-4 0 2 2 0 0 1 4 0ZM19 17a2 2 0 1 1-4 0 2 2 0 0 1 4 0ZM41 17a2 2 0 1 1-4 0 2 2 0 0 1 4 0ZM39 24a2 2 0 1 1-4 0 2 2 0 0 1 4 0ZM34 19a2 2 0 1 1-4 0 2 2 0 0 1 4 0ZM26 19a2 2 0 1 1-4 0 2 2 0 0 1 4 0ZM21 24a2 2 0 1 1-4 0 2 2 0 0 1 4 0ZM21 32a2 2 0 1 1-4 0 2 2 0 0 1 4 0ZM14 28a2 2 0 1 1-4 0 2 2 0 0 1 4 0Z" fill="#497693"/><path d="M46 28a2 2 0 1 1-4 0 2 2 0 0 1 4 0Z" fill="#F28C00"/><path d="M41 39a2 2 0 1 1-4 0 2 2 0 0 1 4 0ZM19 39a2 2 0 1 1-4 0 2 2 0 0 1 4 0ZM30 44a2 2 0 1 1-4 0 2 2 0 0 1 4 0ZM39 32a2 2 0 1 1-4 0 2 2 0 0 1 4 0ZM34 37a2 2 0 1 1-4 0 2 2 0 0 1 4 0ZM26 37a2 2 0 1 1-4 0 2 2 0 0 1 4 0Z" fill="#497693"/><path d="M27.67 26.49V15h.6v11.43L30 21.98l.56.22-1.78 4.6 7.93-8.05.42.42-7.9 8.01 4.5-1.87.23.55-5.2 2.17 5.2 2.13-.23.56-4.5-1.84 7.9 7.93-.42.43-7.9-7.94 1.75 4.34-.56.23-1.73-4.29V41h-.6V29.53l-1.81 4.34-.56-.23 1.8-4.32-7.9 7.92-.43-.43 7.91-7.9-4.33 1.8-.23-.55 4.38-1.83-11.5-.04v-.6l11.5.04-4.38-1.87.23-.55 4.33 1.85-7.91-8 .43-.42 7.94 8.03-1.84-4.57.56-.22 1.81 4.5Z" fill="#497693"/><path d="M41 28.38H28.5v-.6H41v.6Z" fill="#F28C00"/></svg>