<!-- by TradeStack --><svg viewBox="0 0 56 56" xmlns="http://www.w3.org/2000/svg"><path fill="#F0F3FA" d="M0 0h56v56H0z"/><path d="M51.95 26.8c-.1-.14-.34-.1-.67.09a62.31 62.31 0 0 1-10.68 4.45c-1.85.57-4.51.8-6.02.11-1.25-.55-2.74-2.21-4.16-3.82l-.38-.43-.36-.41c-1.25-1.41-3.57-4.04-4.93-4.49-1.88-.61-3.62-.33-7.16 1.17a55.95 55.95 0 0 0-7.56 4.06c-2.94 1.85-5.6 3.87-5.9 4.26-.2.3-.13.46-.08.52.12.18.44.15.84-.06l1.37-.72c1.78-.94 4-2.11 4.97-2.54a144.2 144.2 0 0 1 9.73-3.93c4.36-1.47 5.51-.23 7.28 1.64l.81.84c.35.34.74.82 1.2 1.38 1.63 2 3.87 4.75 7.08 5.01.51.05.97.07 1.42.07 1.55 0 2.86-.28 5.1-1a16.25 16.25 0 0 0 5.11-2.54c1.07-.9 2.03-1.92 2.86-3.04.18-.3.23-.5.13-.63Z" fill="#A1C63C"/><path d="M17 30.78c-.3.15-.64.23-.98.22-.93 0-1.68-.63-1.68-2.17 0-1.06.38-1.83 1.44-1.83s1.3.83 1.3 1.57h-2.04c0 .74.3 2 1.31 2 .23 0 .45-.05.65-.16m-.64-2.21c0-.3-.09-.86-.62-.86-.54 0-.66.64-.68.86h1.3ZM18 27h.74v1.09h.02c.25-.53.57-1.03 1.24-1.09v.86c-.75.03-1.26.3-1.26 1.35V31H18M23 30.72c0 1.05-.32 1.88-1.67 1.88-.33 0-.66-.05-.98-.15v-.77c.23.15.63.46 1.09.46.75 0 .84-.58.84-1.4v-.42h-.02a.91.91 0 0 1-.88.52c-.9 0-1.27-.81-1.27-1.92 0-1.06.3-1.92 1.27-1.92.2 0 .4.08.55.2.16.13.28.3.33.5h.02V27H23m-1.43 3.38c.63 0 .68-.8.68-1.42 0-.62-.08-1.47-.68-1.47-.6 0-.68.82-.68 1.42 0 .61.1 1.47.68 1.47ZM24 27h.76v4H24m0-5.5h.77v.8H24v-.8ZM28.44 30.78c-.31.15-.65.23-.99.22-.94 0-1.68-.63-1.68-2.17 0-1.06.38-1.83 1.44-1.83s1.3.83 1.3 1.57h-2.03c0 .74.3 2 1.3 2 .23 0 .45-.05.65-.16m-.63-2.22c0-.3-.1-.86-.63-.86s-.66.64-.67.86h1.3ZM29.5 25.5h.79v2.43h.01l1.6-2.43h.8L30.96 28l1.91 3h-.92l-1.66-2.67h-.01V31h-.78M33 29c0-1.3.5-2 1.5-2s1.5.7 1.5 2-.5 2-1.5 2-1.5-.7-1.5-2Zm1.5 1.67c.64 0 .72-.97.72-1.67s-.08-1.67-.72-1.67c-.65 0-.73.97-.73 1.67s.1 1.66.73 1.66ZM37 27h.76v1.02h.02c.12-.29.5-1.02 1.3-1.02.65 0 .92.57.92 1.14V31h-.73v-2.45c0-.49-.12-.93-.5-.93-.79 0-1 1.27-1 1.76V31H37M10.73 27h.76v1.02h.01c.13-.29.5-1.02 1.3-1.02.65 0 .93.57.93 1.14V31H13v-2.45c0-.49-.12-.93-.5-.93-.79 0-1.01 1.27-1.01 1.76V31h-.76M42.56 30.94c-.16.04-.33.06-.5.06-.67 0-1.06-.23-1.06-.98V27.5h-.54V27H41v-.83l.72-.5V27h.92v.48h-.92v2.2c0 .57.05.85.5.85.12 0 .24-.02.34-.07M43.22 29c0-1.3.5-2 1.49-2 1 0 1.5.7 1.5 2s-.5 2-1.5 2-1.5-.7-1.5-2Zm1.49 1.67c.64 0 .72-.97.72-1.67s-.08-1.67-.72-1.67S44 28.3 44 29s.08 1.66.7 1.66ZM47 27h.72v1.09h.02c.25-.53.59-1.03 1.26-1.09v.86c-.75.03-1.28.3-1.28 1.35V31H47M7 31h2.64v-.57H7.8V28.4h1.7v-.52h-1.7V26h1.8v-.5H7V31Z" fill="#1A1A18"/></svg>