<!-- by TradeStack --><svg viewBox="0 0 56 56" xmlns="http://www.w3.org/2000/svg"><path fill="#F0F3FA" d="M0 0h56v56H0z"/><path d="M4 28.5C4 26.63 5.04 25 7 25s3 1.7 3 3.36c0 .15-.02.36-.05.64H5.5c.1 1.03.96 1.5 2 1.5.63 0 1.23-.01 1.8-.5l.63 1.04c-.67.64-1.62.96-2.53.96A3.39 3.39 0 0 1 4 28.5Zm1.5-.5h3c-.01-.74-.5-1.5-1.5-1.5-.82 0-1.37.73-1.5 1.5ZM12 29.94V23h1.5v6.7c0 .55.21.88.8.88l.28-.01v1.4l-.6.03C12.6 32 12 31.43 12 29.94ZM16 29.4V25h1.5v4.05c0 .7.28 1.4 1.1 1.4 1.17 0 1.9-1.25 1.9-2.31V25H22v7h-1.5v-1.43A2.55 2.55 0 0 1 18.24 32c-1.5 0-2.24-.87-2.24-2.6ZM24 32v-7h1.44v1.45A2.64 2.64 0 0 1 27.7 25c.99 0 1.62.47 1.9 1.4a2.64 2.64 0 0 1 2.25-1.4c1.43 0 2.14.87 2.14 2.6V32h-1.5v-4.08c0-.62-.25-1.36-1.01-1.36-1.21 0-1.49 1.36-1.49 2.37V32h-1.5v-4.08c0-.63-.42-1.36-1.2-1.36-1.2 0-1.8 1.36-1.8 2.37V32H24Z" fill="#002315"/><path fill-rule="evenodd" d="M48.49 25A3.47 3.47 0 0 0 45 28.5c0 1.96 1.53 3.5 3.5 3.5s3.5-1.54 3.5-3.5c0-1.95-1.56-3.5-3.51-3.5Zm0 1.44c-1.15 0-2.05.91-2.05 2.06 0 1.16.9 2.06 2.06 2.06 1.16 0 2.06-.9 2.06-2.06 0-1.15-.92-2.06-2.07-2.06Z" fill="#002315"/><path d="M37.03 29H36v-1h1.03c.16-1.65 1.18-3 2.97-3 1.96 0 3 1.7 3 3.36 0 .15-.02.36-.05.64H38.5c.1 1.03.96 1.5 2 1.5.63 0 1.23-.01 1.8-.5l.63 1.04c-.67.64-1.62.96-2.53.96-1.8 0-3.15-1.3-3.37-3Zm4.47-1c-.01-.74-.5-1.5-1.5-1.5-.82 0-1.37.73-1.5 1.5h3Z" fill="#002315"/></svg>