<?xml version='1.0' encoding='utf-8'?>
<!-- by TradeStack -->
<svg width="56" height="56" viewBox="0 0 56 56" xmlns="http://www.w3.org/2000/svg"><path fill="#F0F3FA" d="M0 0h56v56H0z" /><path d="m24.72 26.97-6.6 8.53c-.32.42-.3.83.06 1.21 2.7 2.86 6.19 4.32 10.48 4.39.1 0 .16-.04.2-.13.05-.09.05-.17-.01-.25l-5.57-7.46c-.2-.27-.2-.55 0-.82l1.17-1.5c.24-.31.48-.31.71 0l6.73 9.02c.18.24.41.32.7.22 2.1-.76 3.83-1.95 5.18-3.55.25-.3.27-.59.05-.88l-8.05-10.67c-.55-.74-.46-1.41.29-2.01.06-.05.17-.12.34-.2.65-.34 1.2-.21 1.63.37l9.21 12.34c.34.46.35.92.02 1.38a15.03 15.03 0 0 1-3.8 3.81c-5.6 3.86-11.33 4.26-17.18 1.2A15.25 15.25 0 0 1 14.85 37a15.07 15.07 0 0 1-2.31-12.87 15.6 15.6 0 0 1 8.05-10.29c4.22-2.26 8.78-2.44 13.68-.52 2.45.95 4.66 2.73 6.63 5.33.33.42.4.88.22 1.38-.17.47-.29.73-.34.76-.8.47-1.45.38-1.97-.27a14.6 14.6 0 0 0-6.96-5.03c-2.78-.9-5.6-.8-8.44.26a12.48 12.48 0 0 0-7.4 7.07 13.31 13.31 0 0 0-.1 10.31c.08.24.21.26.37.06l7.7-9.95c.24-.3.55-.46.95-.46.4 0 .7.17.94.48l6.33 8.51c.48.64.37 1.27-.32 1.92l-.21.08c-.82.28-1.5.07-2.02-.62l-4.6-6.18c-.1-.14-.22-.14-.33 0Z" fill="#4BA095" /></svg>