<!-- by TradeStack --><svg width="56" height="56" viewBox="0 0 56 56" xmlns="http://www.w3.org/2000/svg"><path fill="#F0F3FA" d="M0 0h56v56H0z"/><path d="M42 27h2a15.9 15.9 0 0 0-15-15v2a14.09 14.09 0 0 1 13 13ZM27 14v-2a15.9 15.9 0 0 0-15 15h2a14.07 14.07 0 0 1 13-13ZM14 29h-2a15.9 15.9 0 0 0 15 15v-2a14.07 14.07 0 0 1-13-13Z" fill="#48BDE7"/><path d="M23.03 29.49C25.25 28.25 27 27.47 27 25c0-2.25-1.98-4-4.5-4-2.62 0-4.47 1.86-4.5 4.52V26h2l.01-.47c.05-2.3 1.81-2.53 2.49-2.53 2 0 2.5 1.57 2.5 2 0 1.02-.52 1.37-3 2.7-2.02 1.08-4 2.38-4 5.24V34h9v-2h-6.72c.26-.92 1.27-1.69 2.75-2.51ZM34 25c-.66 0-1.57.2-2.14.5l.33-2.5H37v-2h-6.68l-.88 6.86 1.8.69c.53-.78 1.23-1.55 2.26-1.55 1.36 0 2.5 1.06 2.5 2.51 0 1.44-1.1 2.49-2.52 2.49-1.49 0-2.33-.98-2.44-1.76L31 30h-2l.03.32c.2 2.28 2.27 3.68 4.45 3.68A4.36 4.36 0 0 0 38 29.51c-.02-2.58-1.55-4.51-4-4.51Z" fill="#48BDE7"/></svg>