<!-- by TradeStack --><svg width="56" height="56" viewBox="0 0 56 56" xmlns="http://www.w3.org/2000/svg"><path fill="#F0F3FA" d="M0 0h56v56H0z"/><path d="M23.5 19a1.5 1.5 0 1 0 0-3 1.5 1.5 0 0 0 0 3Zm-2.5-.5a1.5 1.5 0 1 1-3 0 1.5 1.5 0 0 1 3 0ZM15.5 23a1.5 1.5 0 1 0 0-3 1.5 1.5 0 0 0 0 3ZM14 24.5a1.5 1.5 0 1 1-3 0 1.5 1.5 0 0 1 3 0Zm-2 4a1.5 1.5 0 1 1-3 0 1.5 1.5 0 0 1 3 0Zm17.5-11a1.5 1.5 0 1 1-3 0 1.5 1.5 0 0 1 3 0Zm3 1.5a1.5 1.5 0 1 0 0-3 1.5 1.5 0 0 0 0 3Zm5.5.5a1.5 1.5 0 1 1-3 0 1.5 1.5 0 0 1 3 0Zm1.5 3.5a1.5 1.5 0 1 0 0-3 1.5 1.5 0 0 0 0 3Zm4.5 1.5a1.5 1.5 0 1 1-3 0 1.5 1.5 0 0 1 3 0Zm1.5 5.5a1.5 1.5 0 1 0 0-3 1.5 1.5 0 0 0 0 3ZM20 23a1 1 0 1 1-2 0 1 1 0 0 1 2 0Zm-4 3a1 1 0 1 0 0-2 1 1 0 0 0 0 2Zm-1 2a1 1 0 1 1-2 0 1 1 0 0 1 2 0Zm2 1a1 1 0 1 0 0-2 1 1 0 0 0 0 2Zm3-3a1 1 0 1 1-2 0 1 1 0 0 1 2 0Zm2-1a1 1 0 1 0 0-2 1 1 0 0 0 0 2Zm1-4a1 1 0 1 1-2 0 1 1 0 0 1 2 0Zm3 0a1 1 0 1 0 0-2 1 1 0 0 0 0 2Zm5-1a1 1 0 1 1-2 0 1 1 0 0 1 2 0Zm3 2a1 1 0 1 0 0-2 1 1 0 0 0 0 2Zm6 3a1 1 0 1 1-2 0 1 1 0 0 1 2 0Zm2 4a1 1 0 1 0 0-2 1 1 0 0 0 0 2Zm-2-1a1 1 0 1 1-2 0 1 1 0 0 1 2 0Zm-3-1a1 1 0 1 0 0-2 1 1 0 0 0 0 2Zm-2-3a1 1 0 1 1-2 0 1 1 0 0 1 2 0Zm-4 0a1 1 0 1 0 0-2 1 1 0 0 0 0 2Zm-2-1.5a1 1 0 1 1-2 0 1 1 0 0 1 2 0Zm8 1.5a1 1 0 1 0 0-2 1 1 0 0 0 0 2Zm-11-1a1 1 0 1 1-2 0 1 1 0 0 1 2 0Zm-4.5 6a.5.5 0 1 0 0-1 .5.5 0 0 0 0 1Zm-1.5-.5a.5.5 0 1 1-1 0 .5.5 0 0 1 1 0Zm1.5-1.5a.5.5 0 1 0 0-1 .5.5 0 0 0 0 1Zm3.16-1.97a.5.5 0 1 1-1 0 .5.5 0 0 1 1 0ZM26.5 25a.5.5 0 1 0 0-1 .5.5 0 0 0 0 1Zm3.5-.5a.5.5 0 1 1-1 0 .5.5 0 0 1 1 0Zm2.5 1.5a.5.5 0 1 0 0-1 .5.5 0 0 0 0 1Zm2.5.5a.5.5 0 1 1-1 0 .5.5 0 0 1 1 0Zm1.5 2.5a.5.5 0 1 0 0-1 .5.5 0 0 0 0 1ZM24 27a.5.5 0 1 1-1 0 .5.5 0 0 1 1 0Zm1.5 0a.5.5 0 1 0 0-1 .5.5 0 0 0 0 1Zm3.5-.5a.5.5 0 1 1-1 0 .5.5 0 0 1 1 0Zm1.5.5a.5.5 0 1 0 0-1 .5.5 0 0 0 0 1Zm2.5.5a.5.5 0 1 1-1 0 .5.5 0 0 1 1 0Zm1.5 1.5a.5.5 0 1 0 0-1 .5.5 0 0 0 0 1Z" fill="url(#aflhqvkgf)"/><path d="M28 28c-9.04 0-19.76 2-24 3 9-1 14.5-1.5 24-1.5 9 0 18.35 1 24 1.5-4.24-1-14.96-3-24-3Z" fill="#266280"/><path d="M43.36 32.65v1H45v.64h-1.64v1.06H45V36h-2.5v-4H45v.65h-1.64ZM38 34a1.9 1.9 0 0 1 1.01-1.74c.32-.17.68-.26 1.07-.26.45 0 .85.11 1.2.34.34.22.58.53.72.93h-.94a.95.95 0 0 0-.4-.42c-.17-.1-.37-.14-.59-.14-.24 0-.45.05-.64.16-.18.1-.33.25-.43.45-.1.2-.16.42-.16.68 0 .26.06.49.16.69.1.2.25.34.43.45.19.1.4.16.64.16.22 0 .42-.05.59-.14.17-.1.3-.24.4-.43H42c-.14.4-.38.71-.72.94-.34.22-.74.33-1.2.33-.4 0-.75-.08-1.07-.25a1.96 1.96 0 0 1-.74-.71c-.18-.3-.27-.65-.27-1.04ZM37.5 36h-.7l-1.6-2.74V36h-.7v-4h.7l1.6 2.75V32h.7v4ZM31.86 32.65v1h1.45v.64h-1.45v1.06h1.64V36H31v-4h2.5v.65h-1.64ZM29.48 33.23a.93.93 0 0 0-.38-.38 1.17 1.17 0 0 0-.56-.13c-.24 0-.45.06-.63.16s-.33.26-.43.45c-.1.2-.15.42-.15.67 0 .26.05.5.15.69.1.2.25.34.44.45.19.1.4.15.65.15.31 0 .56-.08.76-.23.19-.16.32-.39.38-.67h-1.38v-.6h2.17v.68c-.05.28-.17.53-.34.76a1.95 1.95 0 0 1-1.61.77c-.39 0-.74-.08-1.05-.25a1.93 1.93 0 0 1-1-1.75c0-.38.09-.73.26-1.03.18-.3.43-.54.74-.71.31-.17.66-.26 1.04-.26.45 0 .84.1 1.17.33.34.2.57.51.7.9h-.93ZM25.07 36l-.89-1.56h-.38V36H23v-4h1.5c.32 0 .58.06.8.17.22.1.38.25.49.44.1.18.16.39.16.62 0 .26-.07.5-.23.71-.15.21-.38.36-.68.44L26 36h-.93Zm-1.27-2.16h.68c.22 0 .38-.05.49-.16a.6.6 0 0 0 .16-.44c0-.18-.06-.32-.16-.42-.11-.1-.27-.16-.5-.16h-.67v1.18ZM20.86 32.65v1h1.64v.64h-1.64v1.06h1.64V36H20v-4h2.5v.65h-1.64ZM19.5 32v4h-.74v-2.6l-.98 2.6h-.56l-.98-2.6V36h-.74v-4h.84l1.16 2.97L18.67 32h.83ZM12.86 32.65v1h1.64v.64h-1.64v1.06h1.64V36H12v-4h2.5v.65h-1.64Z" fill="#23607E"/><defs><linearGradient id="aflhqvkgf" x1="12" y1="26.5" x2="42.5" y2="27" gradientUnits="userSpaceOnUse"><stop stop-color="#4699AB"/><stop offset=".54" stop-color="#AFCAD5"/><stop offset="1" stop-color="#4699AB"/></linearGradient></defs></svg>