<!-- by TradeStack --><svg width="56" height="56" viewBox="0 0 56 56" xmlns="http://www.w3.org/2000/svg"><path d="M0 28a28 28 0 1 1 56 0 28 28 0 1 1-56 0Z" fill="#D40086"/><path d="M30 32h-6.7c-.81 0-1.3-.97-1.3-1.65V16h-2v16.63c0 .82.72 1.36 1.25 1.36H30v-2Zm0 3v2H18.46C17.6 37 17 36.35 17 35.5V16h2v17.38c0 .88.47 1.62 1.53 1.62H30ZM16 16h-2v20.91A3.1 3.1 0 0 0 17.04 40H30v-2H17.85A1.8 1.8 0 0 1 16 36.16V16Zm7 0h2v11.92c0 .49.35 1.08 1.04 1.08H30v2h-5.77c-.89 0-1.23-.58-1.23-1.24V16Zm17 24h2V19.08A3.07 3.07 0 0 0 38.96 16H26v2h12.16A1.8 1.8 0 0 1 40 19.84V40ZM26 21v-2h11.55c.86 0 1.45.65 1.45 1.48V40h-2V22.6c0-.87-.47-1.61-1.53-1.61H26Zm0 3h6.7c.81 0 1.3.96 1.3 1.64V40h2V23.37c0-.82-.72-1.37-1.24-1.37H26v2Zm7 16h-2V28.07c0-.5-.34-1.08-1.03-1.08H26v-2h5.77c.89 0 1.23.58 1.23 1.24v13.75Z" fill="#fff"/></svg>