<?xml version='1.0' encoding='utf-8'?>
<!-- by TradeStack -->
<svg width="56" height="56" viewBox="0 0 56 56" xmlns="http://www.w3.org/2000/svg"><path fill="#F0F3FA" d="M0 0h56v56H0z" /><path d="M27.37 12.03c-1.3.05-2.57.26-3.82.62l1.02 2.81c.98-.26 2-.41 3.01-.44 6.43.2 12.34 4.85 13.17 11.4h-2.23l.85 2.58h3.04c.89 0 1.59-.14 1.59-1.03-.03-8.83-7.2-16-16.03-15.97-.21 0-.42.03-.6.03Z" fill="url(#aghupk1yq)" /><path d="M27.37 12.03a16.03 16.03 0 0 0-15.36 15.35 15.91 15.91 0 0 0 3.74 10.9L18 36.04A12.9 12.9 0 0 1 15 28.1 13.15 13.15 0 0 1 27.63 15c.99-.03 1.97.22 2.94.43l.23-3.17c-1.12-.2-2.29-.29-3.43-.23Z" fill="url(#bghupk1yq)" /><path d="M28 44c1.37 0 2.72-.2 4.02-.62.83-.29 1.25-1.2.96-2a1.56 1.56 0 0 0-2-.96h-.02C29.99 40.7 29 41 28 41c-4.52 0-8.71-2.53-11.05-6.43l-2.6 1.77A16.02 16.02 0 0 0 28 44Z" fill="url(#cghupk1yq)" /><path d="M40.5 25.1c.1.43.17.46.23.9H28.75l-2.85-3.92a1.58 1.58 0 1 0-2.62 1.77L27.1 29h15.3c.89 0 1.59-.12 1.59-1 0-1.06-.1-2.1-.31-3.14l-3.2.23Z" fill="#009580" /><defs><linearGradient id="aghupk1yq" x1="27.54" y1="15.03" x2="43.2" y2="25.56" gradientUnits="userSpaceOnUse"><stop stop-color="#6CA733" /><stop offset=".14" stop-color="#66A637" /><stop offset=".31" stop-color="#55A343" /><stop offset=".52" stop-color="#3A9F57" /><stop offset=".74" stop-color="#149872" /><stop offset=".84" stop-color="#009580" /></linearGradient><linearGradient id="bghupk1yq" x1="29.38" y1="13.81" x2="14.38" y2="29.48" gradientUnits="userSpaceOnUse"><stop stop-color="#6CA733" /><stop offset=".14" stop-color="#72A933" /><stop offset=".34" stop-color="#83AE33" /><stop offset=".55" stop-color="#9EB733" /><stop offset=".79" stop-color="#C4C333" /><stop offset=".84" stop-color="#CDC633" /></linearGradient><linearGradient id="cghupk1yq" x1="14.35" y1="39.28" x2="33.08" y2="39.28" gradientUnits="userSpaceOnUse"><stop offset=".18" stop-color="#CDC633" /><stop offset=".37" stop-color="#D5CE4F" /><stop offset=".79" stop-color="#E8E397" /><stop offset="1" stop-color="#F2EEBE" /></linearGradient></defs></svg>