<!-- by TradeStack --><svg width="56" height="56" viewBox="0 0 56 56" xmlns="http://www.w3.org/2000/svg"><path fill="#F0F3FA" d="M0 0h56v56H0z"/><path d="M33.61 30s1.92-5-3.12-5a7.05 7.05 0 0 0-6.96 5.1c-.58 2.12.44 3.9 3.1 3.9h4l.87-2h-3.9s-2.8.16-1.73-2h7.74Zm-3.4-3.33c2.02 0 1.5 1.65 1.5 1.65h-5c.95-1.46 2.9-1.65 3.5-1.65ZM37.58 20l-4.42 14h2.3l4.41-14h-2.3Zm2.25 5-2.87 9h2.3l2.86-9h-2.3Zm2.8-2h-2.3l.76-2.48h2.3L42.64 23Zm3.5 4.02 4.1-.02.6-2-4.32-.01s-2.66-.14-3.84 2.05c-1.23 2.27.73 3.18 2.13 3.18h1.84c.23 0 .95.08.68.85-.23.65-1.02.91-1.52.93h-4.76l-.63 2h5c.41 0 3.28-.03 3.99-2.96.6-2.5-2.08-2.56-2.49-2.56h-1.45c-.48 0-.76-.1-.87-.27-.11-.18-.04-.41.2-.65.36-.33.85-.55 1.34-.54" fill="#4F657A"/><path d="m24.74 23.27-.02-.02-.13-.14a1055.5 1055.5 0 0 1-4.04-3.91c-.2-.13-.44-.2-.68-.2h-7.42a.44.44 0 0 0-.35.18.61.61 0 0 0 .08.76l3.07 3.15c.52.53.49.88.5.9 0 .1-.02.2-.06.29-.1.23-.24.43-.41.6l-.3.32-.13.13-2.32 2.37-.34.36a.6.6 0 0 0-.05.81c.08.08.19.13.3.13h7.43c.23 0 .46-.07.67-.2l.15-.12c.27-.28 3.85-3.75 3.9-3.79l.12-.13c.18-.21.28-.47.29-.74v-.04c0-.26-.1-.52-.27-.72" fill="#E3000B"/><path d="M12.5 30h-.25c-.72-.03-1.23-.77-1.25-1.3-.02-.58.32-1 .7-1.4l.1-.1 2.36-2.37.1-.1.01-.01-.4-.4a.98.98 0 0 0-.15-.12c-.21-.12-.45-.19-.69-.2H5.45a.45.45 0 0 0-.34.17l-.02.02a.6.6 0 0 0 .1.76l3.3 3.14c.54.53.5.87.51.9 0 .1-.01.2-.06.29-.1.23-.24.43-.41.6-.1.12-.26.27-.44.46L5.54 32.7l-.34.36a.59.59 0 0 0-.06.8c.09.09.2.14.31.14h7.58c.24 0 .48-.07.68-.2a1 1 0 0 0 .16-.12c.28-.28 3.84-3.48 3.88-3.52l.13-.13.03-.03H12.5Z" fill="#00A5AA"/></svg>