<!-- by TradeStack --><svg width="56" height="56" viewBox="0 0 56 56" xmlns="http://www.w3.org/2000/svg"><path fill="#F0F3FA" d="M0 0h56v56H0z"/><path d="M12.73 28.2a.06.06 0 0 0-.02.04.06.06 0 0 0 .02.04L27.2 44c.05.06.05.11 0 .17-.67.8-1.36 1.02-2.07.66a6.8 6.8 0 0 1-1.33-1.24L10.66 29.32c-.25-.27-.41-.5-.49-.68-.24-.57-.27-1.26.23-1.72l13.86-12.77c.4-.37.69-.6.86-.67.7-.3 1.46.12 1.96.67l10.48 11.41c.77.84 1.28 1.73.3 2.63l-6 5.52c-.03.02-.05.02-.08 0l-7.5-8.12a.07.07 0 0 0-.06-.03l-.05.02-3.84 3.54c-.02.02-.02.04 0 .06l9.76 10.66a.07.07 0 0 0 .1 0l13.1-12.08c.02-.02.02-.04 0-.06L28.76 11.96a.06.06 0 0 1 0-.08c.27-.33.58-.7 1-.8 1.02-.29 1.48.27 2.2 1.05L45.28 26.6c.53.57.77.97.71 1.71-.02.36-.16.56-.43.81L31.62 41.96c-.32.3-.57.48-.73.55-.66.28-1.36-.07-1.84-.58l-10.79-11.7c-.66-.73-.96-1.66-.13-2.42a875.43 875.43 0 0 0 6.03-5.54.07.07 0 0 1 .05.03l7.5 8.1a.06.06 0 0 0 .08 0l3.87-3.58v-.02a.02.02 0 0 0 0-.01l-9.7-10.58a.05.05 0 0 0-.03-.01h-.04l-13.16 12Z" fill="url(#aspm350am)"/><defs><linearGradient id="aspm350am" x1="37.11" y1="18.2" x2="17.24" y2="35.88" gradientUnits="userSpaceOnUse"><stop stop-color="#8F6B07"/><stop offset=".51" stop-color="#E9D895"/><stop offset="1" stop-color="#916E0A"/></linearGradient></defs></svg>