<?xml version='1.0' encoding='utf-8'?>
<!-- by TradeStack -->
<svg width="56" height="56" viewBox="0 0 56 56" xmlns="http://www.w3.org/2000/svg"><path fill="#F0F3FA" d="M0 0h56v56H0z" /><path d="M51.58 26.53c.56.02.56 0 0-.05A80.19 80.19 0 0 0 8.28 34c-1.43.68-2.84 1.38-4.24 2.1-.06.03-.05.05.01.05.08 0 .15-.01.22-.04a106.2 106.2 0 0 1 47.31-9.58ZM38.09 28.8l-.03-.02c-7.6-.47-14.73 1-21.38 4.4-.38.19-.37.2.02.03a53.5 53.5 0 0 1 21.39-4.35l.01-.03v-.03Z" fill="#B69033" /><path d="M31.85 20.94c-.84.36-1.72.56-2.63.62-.08 0-.12-.03-.12-.11.01-.43.13-.83.37-1.2.04-.07.1-.12.18-.15a7.45 7.45 0 0 1 2.67-.48.2.2 0 0 0 .2-.12l.7-1.4a.06.06 0 0 0-.05-.1h-.03c-1.6.48-3.23.72-4.9.73-.1 0-.15.05-.19.13l-2.83 8.03c-.04.12 0 .16.12.12 1.72-.56 3.49-1 5.28-1.28a.23.23 0 0 0 .18-.14l.7-1.45c.05-.11.02-.14-.1-.1a8 8 0 0 1-3.4.6.1.1 0 0 1-.05-.07.1.1 0 0 1 0-.04v-.01c.1-.4.35-1.54.77-1.66a8.94 8.94 0 0 1 2.38-.35.2.2 0 0 0 .19-.11l.68-1.34a.09.09 0 0 0-.12-.12Zm-5.9 17.34h-.46c-.26 0-.34-.13-.26-.38l2.2-6.3c.04-.1 0-.14-.1-.13l-2.64.37a.14.14 0 0 0-.03.28l.4.14a.2.2 0 0 1 .11.25l-2.26 6.38c-.03.08 0 .11.08.11H23c.6-.03 2.94-.13 3.07-.55.04-.11 0-.16-.11-.17Z" fill="#B1141E" /></svg>