<?xml version='1.0' encoding='utf-8'?>
<!-- by TradeStack -->
<svg width="56" height="56" viewBox="0 0 56 56" xmlns="http://www.w3.org/2000/svg"><path fill="#F0F3FA" d="M0 0h56v56H0z" /><path d="m19.15 24.72 3.56.73C22.17 24.42 21 22.72 21 21c0-2 .86-5 3.57-5S28 19.66 28 21.05c0 1.45-.83 2.66-1 3.95 1.6-2.65 3.4-4 4.78-4 1.4 0 2.22.78 2.22 2.43 0 3.08-3 4.6-5 5.53 4.4.33 8-1.46 8-5.53s-3.83-4.87-4.6-4.87c-.79 0-1.18.08-2.4.44.03-1.3-1.8-6-6.07-6-4.27 0-5.93 5.23-5.93 7.35 0 1.7.77 3.62 1.15 4.37Z" fill="#008D46" /><path d="M20.6 26c1.18 0 1.92.3 2.34.43-8.1 1.3-8.94 4.57-8.94 5.8 0 1.22 1.2 2.77 2.58 2.77 3.62 0 6.63-4.24 7.42-5-.6 1.1-2.25 8 .84 8 2.48 0 3.83-5.05 4.16-7.5h2c1.15 4.8 6.09 6.5 11.22 6.5 5.14 0 7.7-1.17 9.78-2-1.19 1.23-4.54 4-12.05 4-7.5 0-9.41-1.97-10.56-3-.4 1.82-2.57 5-6.13 5-2.84 0-4.12-3.2-4.4-4.8-.83.55-3 1.8-5.14 1.8-2.67 0-3.72-1.87-3.72-3.66C10 28.22 18.33 26 20.6 26Z" fill="#005C28" /></svg>