<?xml version='1.0' encoding='utf-8'?>
<!-- by TradeStack -->
<svg width="56" height="56" viewBox="0 0 56 56" xmlns="http://www.w3.org/2000/svg"><path fill="#F0F3FA" d="M0 0h56v56H0z" /><path fill="#181617" d="M13 14h29v29H13z" /><path fill-rule="evenodd" d="M42.83 19.62C41.6 16.82 37.81 11 31.27 11 23.09 11 19 18.85 19 24.11S22.72 39 31.78 39c8.47 0 12.7-4.46 13.22-12h-.51c.14 3.11-2.74 10.92-9.24 11-1.63-.08-6.07-1.4-8.29-7.15-.68-1.76-1.03-3.45-1.46-4.85 5.98-2.24 11.39-4.11 17.33-6.38Zm-5.33 1.35-.16-.49C36.17 17 34.24 12 29.96 12c-4.75 0-6.46 3.52-6.46 5.6 0 1.49.66 3.86 1.83 7.83l12.17-4.46Z" fill="#008CBD" /><path d="M15.55 30c.24 0 .46.05.68.14.22.1.39.22.5.37.11.14.18.3.22.5.03.13.05.34.05.62h-2.4c0 .3.08.52.23.7.15.17.37.26.68.26a1 1 0 0 0 .7-.25c.1-.1.16-.2.2-.33h.54a1.26 1.26 0 0 1-.41.66c-.17.14-.38.24-.62.29-.14.03-.29.04-.45.04-.41 0-.76-.13-1.04-.38a1.38 1.38 0 0 1-.43-1.08A1.47 1.47 0 0 1 15.55 30Zm.88 1.26a1.1 1.1 0 0 0-.15-.5c-.16-.23-.4-.34-.76-.34a.9.9 0 0 0-.64.23.83.83 0 0 0-.27.6h1.82ZM20 30.07h.5v.41c.11-.14.22-.25.32-.31a.98.98 0 0 1 .56-.17c.23 0 .42.06.57.17a.9.9 0 0 1 .22.3 1.06 1.06 0 0 1 .9-.47c.4 0 .67.14.81.43.08.15.12.36.12.62V33h-.52v-2.04c0-.2-.05-.33-.15-.4a.59.59 0 0 0-.36-.11c-.2 0-.37.06-.5.2-.15.12-.22.34-.22.64V33h-.5v-1.92a.9.9 0 0 0-.08-.43c-.07-.14-.22-.2-.42-.2a.74.74 0 0 0-.52.21c-.15.14-.23.4-.23.78V33H20v-2.93Zm7 0h.5v.41c.11-.14.22-.25.32-.31a.98.98 0 0 1 .56-.17c.23 0 .42.06.57.17a.9.9 0 0 1 .22.3 1.06 1.06 0 0 1 .9-.47c.4 0 .67.14.81.43.08.15.12.36.12.62V33h-.52v-2.04c0-.2-.05-.33-.15-.4a.59.59 0 0 0-.36-.11c-.2 0-.37.06-.5.2-.15.12-.22.34-.22.64V33h-.5v-1.92a.9.9 0 0 0-.08-.43c-.07-.14-.22-.2-.42-.2a.74.74 0 0 0-.52.21c-.15.14-.23.4-.23.78V33H27v-2.93Zm7 .93h.58v2H34v-2Zm0-1h.58v.48H34V30Zm4.59 2a.6.6 0 0 0 .15.37c.15.15.42.23.8.23.23 0 .43-.04.6-.11.17-.08.26-.2.26-.36 0-.12-.07-.21-.21-.27a2.97 2.97 0 0 0-.52-.14l-.49-.1a2.81 2.81 0 0 1-.68-.2c-.27-.12-.4-.3-.4-.53 0-.26.13-.48.37-.64.25-.17.58-.25 1-.25.55 0 .95.12 1.19.37a.7.7 0 0 1 .22.51h-.58a.48.48 0 0 0-.14-.29c-.15-.12-.39-.18-.73-.18-.24 0-.41.03-.53.1-.12.07-.18.16-.18.27 0 .12.08.22.24.3.09.04.22.08.4.11l.4.08c.44.08.73.16.88.24a.6.6 0 0 1 .36.57c0 .25-.12.46-.37.65-.24.18-.62.27-1.12.27-.54 0-.92-.1-1.15-.28A.97.97 0 0 1 38 32h.59Z" fill="#fff" /></svg>