<?xml version='1.0' encoding='utf-8'?>
<!-- by TradeStack -->
<svg width="56" height="56" viewBox="0 0 56 56" xmlns="http://www.w3.org/2000/svg"><path fill="#F0F3FA" d="M0 0h56v56H0z" /><path d="M10 22h4l-.5 4H17l-.42 3h-3.52l-.57 4H20l-.43 3H7.9L9 29H5l.42-3h4l.58-4Zm.18-1h11.39l.43-3H10.62l-.44 3Z" fill="#FE000B" /><path d="m38 22-.5 14h-4l.5-8-3.63 8H27.5L26 28l-1 8h-4l2-14h6l1 7 3-7h5ZM46.55 26H50v-.43c-.02-1.04-.51-3.57-4.95-3.57-4.53 0-5.02 2.8-5.05 4-.06 2.41 2.47 3.64 4.48 4.2 1.02.3 1.55.93 1.52 1.53-.03.7-.77 1.27-1.58 1.27-.9 0-1.76-.56-1.82-2h-3.56s-.82 5 5.32 5c4.86 0 5.64-3.08 5.64-4.5 0-2.39-2.28-3.72-4.4-4.46-1.1-.38-1.58-.91-1.6-1.38-.02-.54.58-1 1.22-1 .56 0 1.3-.04 1.33 1.34Z" /></svg>