<?xml version='1.0' encoding='utf-8'?>
<!-- by TradeStack -->
<svg width="56" height="56" viewBox="0 0 56 56" xmlns="http://www.w3.org/2000/svg"><path fill="#F0F3FA" d="M0 0h56v56H0z" /><path d="M50.21 32H52v-.01l-.45-.64-.17-.24c-.2-.31-.63-.92-1.88-2.72l.38-.55.17-.25 1.8-2.59h-1.8l-.5.78c-.45.68-1.01 1.55-1.05 1.58l-1.24-1.83-.13-.2-.22-.33h-1.76l1.99 2.88.35.51L45 32h1.76a61.38 61.38 0 0 1 .4-.57l1.34-1.94.86 1.26.85 1.25ZM9 32H4v-7h5v1.28H5.51v1.5H9V29H5.51v1.72H9V32Zm2.6-3.8h1.78c.34 0 .74-.25.88-.54.3-.65-.11-1.38-1.09-1.38H11.6v1.92Zm0 3.8H10v-7h3.6c1.3 0 2.4.91 2.4 2.25a2.1 2.1 0 0 1-1.65 2.1l.19.29L16 32h-1.83c-.02-.06-.1-.21-.18-.34l-.09-.15-.52-.9a23 23 0 0 1-.64-1.11H11.6V32Zm31.02 0H41v-5.68h-2V25h5.5v1.32h-1.88V32Zm-8.28-1.38a3.42 3.42 0 0 1-1.48-.8l-.64.8-.22.28c.55.86 2.21 1.1 3.06 1.1 1.08 0 2.58-.34 2.87-1.58.07-.27.1-.66.04-.97-.19-.96-1.4-1.29-2.47-1.58-.92-.24-1.73-.46-1.66-1.02a.56.56 0 0 1 .25-.38c.58-.41 1.85-.14 2.52.27l.37.26a.8.8 0 0 0 .18-.19l.04-.06.65-.79a4.82 4.82 0 0 0-2.83-.96c-1.2 0-2.37.48-2.74 1.69-.3 1.43 1.28 1.95 2.58 2.38.94.31 1.73.57 1.53 1.09-.24.64-1.4.62-2.05.46ZM26 29.95c.3.27.93.59 1.33.67.64.16 1.81.18 2.05-.46.2-.52-.59-.78-1.53-1.09-1.3-.43-2.88-.95-2.58-2.38.37-1.2 1.55-1.69 2.74-1.69.85 0 2.18.36 2.83.96l-.65.8-.04.05a.8.8 0 0 1-.18.2l-.37-.27c-.67-.41-1.94-.68-2.52-.27a.56.56 0 0 0-.25.38c-.07.56.74.78 1.66 1.02 1.06.29 2.28.62 2.47 1.58.05.31.03.7-.04.97-.3 1.24-1.79 1.58-2.87 1.58-.85 0-2.51-.24-3.06-1.1l.22-.28.64-.8a2.54 2.54 0 0 0 .15.13Z" fill="url(#ardp4vf4u)" /><path d="M20.5 32a3.5 3.5 0 1 0 0-7 3.5 3.5 0 0 0 0 7Z" fill="url(#brdp4vf4u)" /><path d="M19.5 26.47c-.04-.26-.7-.25-.93-.01-.33.14-.2.2-.25.46l.03.13c-.68.1-.7.8-.7.83-.04.04-.12.08-.16.1v.1c-.06.04-.14.07-.18.12-.17.27-.2.52-.01.75.04.06.04.1.08.14.14.14.16.14.24.12 1.08-.2.58 1.23 1.22 1.53 0 .14 0 .15.1.2l.05-.02c.05-.01.1 0 .14.01.05-.15.15-.04.14-.31 0-.1-.04-.03.05-.08-.03-.19.03-.8.19-.99.11-.14.05.04.18-.26.63-.3.76.26 1.07-.36.56-.33.4-.24.8.27.03-.04.17-.14.13-.3-.07-.28.17-.24.32-.4.9-.95.55-2.26 1.06-1.41.15-.34.05-.32.09-.48.23-.09.24-.04.04-.3a1.4 1.4 0 0 0-.2-.2h-.06c-.12-.13-.14-.02-.27-.06-.15-.06.04-.05-.33-.05-.03.09 0 .03-.01.09-.4-.03-.87-.23-.95-.22-.05 0-.11-.03-.18-.04l-.02.05c-.06.09-2.34 1-1.68.59Z" fill="#D4E7D1" /><path d="m22.25 29.93-.08.02c.03.06-.22.25-.31.34-.08.07-.33 0-.26.35.01.05.02.07.01.11-.02.1-.02.02-.02.1.12.03.04.01.11-.02.08-.02.06 0 .12-.03.33-.2.3.05.4.13.15.06.22-.02.29-.12l.04-.07c.18-.2.08-.61 0-.84-.31.34-.05.31-.3.03Z" fill="#CAE3E9" /><defs><linearGradient id="ardp4vf4u" x1="4" y1="29" x2="53" y2="28.5" gradientUnits="userSpaceOnUse"><stop stop-color="#1793BC" /><stop offset=".56" stop-color="#085080" /><stop offset=".59" stop-color="#047A33" /><stop offset="1" stop-color="#87BD40" /></linearGradient><linearGradient id="brdp4vf4u" x1="18" y1="25.5" x2="24" y2="32" gradientUnits="userSpaceOnUse"><stop stop-color="#9BCA43" /><stop offset=".74" stop-color="#6AADC4" /></linearGradient></defs></svg>