<!-- by TradeStack --><svg xmlns="http://www.w3.org/2000/svg" width="56" height="56" viewBox="0 0 56 56"><path fill="#F0F3FA" d="M0 0h56v56H0z"/><path d="M40.74 25h.49a.27.27 0 0 1 .23.13.26.26 0 0 1 0 .26l-2.77 5.2a.78.78 0 0 1-.7.41.8.8 0 0 1-.7-.41l-2.76-5.17a.29.29 0 0 1 .12-.38.3.3 0 0 1 .14-.04h.46a.33.33 0 0 1 .3.17l2.32 4.34c.05.09.1.14.14.14.04 0 .09-.05.13-.14l2.33-4.35a.31.31 0 0 1 .27-.16Zm-35 5c-.2 0-.39-.04-.53-.18a.79.79 0 0 1-.21-.54v-.86h3.7c.17 0 .3-.15.3-.31v-.32c0-.17-.13-.32-.3-.32H5V26h4.56c.17 0 .32-.14.32-.32v-.35a.33.33 0 0 0-.1-.23.31.31 0 0 0-.22-.1H4.35c-.1 0-.18.04-.25.1a.36.36 0 0 0-.1.26v3.88c0 .46.18.91.5 1.24.33.33.76.52 1.22.52h3.97a.3.3 0 0 0 .22-.1c.06-.05.09-.13.09-.22v-.32a.32.32 0 0 0-.09-.22c-.06-.06-.13-.14-.22-.14H5.75Zm20.63-.64-.5-.23a.24.24 0 0 0-.31.06c-.4.6-1.08.81-2.04.81-1.6 0-2.52-.67-2.52-2s.92-2 2.52-2c.96 0 1.62.2 2.02.78.04.06.1.1.16.11.07.02.13.01.2-.02a26.63 26.63 0 0 1 .51-.28.27.27 0 0 0 .06-.1.23.23 0 0 0-.04-.18c-.57-.86-1.57-1.3-2.9-1.3C21.35 25 20 26.14 20 28c0 1.85 1.34 3 3.5 3 1.31 0 2.36-.48 2.96-1.34a.19.19 0 0 0 .03-.16.23.23 0 0 0-.13-.14ZM43.69 25h-.37a.32.32 0 0 0-.32.32v5.37a.32.32 0 0 0 .31.31h.37a.32.32 0 0 0 .32-.32v-5.37a.31.31 0 0 0-.31-.31Zm3.41 1.72c0 .54.98.66 2.07.75 1.47.12 2.83.4 2.83 1.66 0 1.14-1.1 1.87-2.82 1.87a4.72 4.72 0 0 1-3.16-1.17.22.22 0 0 1-.02-.1.22.22 0 0 1 .06-.15l.35-.37a.2.2 0 0 1 .13-.08.2.2 0 0 1 .17.06c.7.62 1.5.9 2.5.9 1.16 0 1.79-.34 1.79-.92 0-.51-.6-.66-1.98-.78-1.33-.12-2.86-.41-2.86-1.65 0-.84.87-1.74 2.78-1.74a4.08 4.08 0 0 1 2.74 1c.02.03.03.07.03.1 0 .07-.03.13-.07.18l-.37.33a.18.18 0 0 1-.12.05.28.28 0 0 1-.2-.08 3 3 0 0 0-1.98-.68h-.04c-.59 0-1.34.12-1.68.46a.49.49 0 0 0-.15.36ZM17.7 25h-.32c-.16 0-.38.15-.38.31v4.22l-4.03-4.34a.55.55 0 0 0-.63-.15c-.1.05-.2.12-.25.22-.07.1-.1.22-.09.34v5.08c0 .09.03.17.1.23.05.06.13.09.2.09h.32c.16 0 .38-.15.38-.32v-4.2l3.86 4.16v.01l.08.08.04.03.05.06c.12.11.27.18.43.18.08 0 .15-.02.22-.05.1-.05.19-.12.24-.22.06-.1.08-.2.08-.32v-5.1a.31.31 0 0 0-.19-.29.3.3 0 0 0-.11-.02Zm13.21.11c.12.07.22.18.3.3l2.76 5.17a.29.29 0 0 1-.26.42h-.46a.33.33 0 0 1-.3-.17l-2.32-4.34c-.04-.09-.09-.14-.13-.14-.04 0-.1.05-.13.14l-2.33 4.35a.31.31 0 0 1-.28.16h-.5a.27.27 0 0 1-.22-.13.26.26 0 0 1 0-.26l2.77-5.2a.78.78 0 0 1 .7-.41.8.8 0 0 1 .4.11Z" fill="#005E72"/></svg>