<?xml version='1.0' encoding='utf-8'?>
<!-- by TradeStack -->
<svg width="56" height="56" viewBox="0 0 56 56" xmlns="http://www.w3.org/2000/svg"><path fill="#F0F3FA" d="M0 0h56v56H0z" /><path d="M39 30c1.75 0 3 1.26 3 3 0 1.76-1.26 3-3 3h-2v-6h2Zm-.05 5c1.18 0 2.05-.85 2.05-2s-.87-2-2.05-2H38v4h.95ZM34 35h2v1h-3v-6h1v5ZM30.76 36l-1.18-2.34H29V36h-1v-6h2c1.1 0 1.94.73 1.94 1.84 0 .8-.44 1.5-1.22 1.73L32 36h-1.24ZM29 32.76h.97c.59 0 .87-.34.87-.9 0-.55-.3-.86-.87-.86H29v1.76Z" /><path fill-rule="evenodd" d="M24 35a2 2 0 1 0 0-4 2 2 0 0 0 0 4Zm0 1a3 3 0 1 0 0-6 3 3 0 0 0 0 6Z" /><path d="m21 30-1.6 6h-1.34L17 31.72l-1.12 4.26-1.34.01L13 30h1.22l1 4.65L16.4 30h1.27l1.1 4.63 1-4.63H21ZM49 22c1.75 0 3 1.26 3 3 0 1.76-1.26 3-3 3h-2v-6h2Zm-.05 5c1.18 0 2.05-.85 2.05-2s-.87-2-2.05-2H48v4h.95ZM44.01 23 44 24.5H46v1h-2V27h2v1h-3v-6h3v1h-1.99ZM42 22v1h-1.5v5h-1v-5H38v-1h4ZM37 28h-1l-3-4.5V28h-1v-6h1l3 4.5V22h1v6Z" /><path fill-rule="evenodd" d="m29.58 27 .3 1H31l-1.89-6H27.9L26 28h1.1l.3-1h2.18Zm-.32-1-.76-2.6-.76 2.6h1.52Z" /><path d="M25 22v6h-1v-2.5h-3V28h-1v-6h1v2.5h3V22h1ZM13 28h-1l-3-4.5V28H8v-6h1l3 4.5V22h1v6ZM18.23 26a2 2 0 1 1 0-2h1.1a3 3 0 1 0 0 2h-1.1ZM5 23v1.48h2v1.02H5V27h2v1H4v-6h3v.98L5 23Z" /></svg>