<?xml version='1.0' encoding='utf-8'?>
<!-- by TradeStack -->
<svg width="56" height="56" viewBox="0 0 56 56" xmlns="http://www.w3.org/2000/svg"><path fill="#F0F3FA" d="M0 0h56v56H0z" /><path d="M29.2 43.8A15.98 15.98 0 0 1 12 27.93C12 19.13 19.18 12 28.04 12c5.96 0 11.17 3.23 13.93 8.02l-4.52-1.39-.98 3C34.7 18.23 31.57 16 28 16c-5.52 0-10 5.37-10 12s4.48 12 10 12c.9 0 1.76-.14 2.59-.4l-1.38 4.2Z" fill="#32B146" /><path d="M27.46 43.85c.2-.2.52-.42.52-.97 0-.22-.2-.8-.48-1.6-.6-1.67-1.5-4.25-1.5-6.3 0-3.02.67-6.2 5.23-11.25 1.81-2.22 2.7-4.4 2.7-6.73 0-1.87-1.04-4.11-1.56-5C36.24 12.89 44 17.35 44 28.09c0 10.2-7.44 14.74-12.64 15.91 6.8-6.45 8.74-14.54 8.85-17.89-.75 1.99-2.3 6.24-2.58 6.89-2.78-.36-4.21-2.71-5.01-4 0 2.46 3.12 4.73 3.96 5.25-3.31 5.08-5.85 8.05-7.33 9.52-.55.08-1.36.08-1.79.08Z" fill="url(#a5xnvqdt0)" /><path d="M40 25.62c0-5.49-4.15-11.1-5.97-13.09C36.56 13.71 43 20.27 43 27.56 43 37.4 36.28 42.14 33 43c2.28-3.32 7-11.9 7-17.38Z" fill="#32B146" /><defs><linearGradient id="a5xnvqdt0" x1="26.04" y1="34.17" x2="44" y2="34.17" gradientUnits="userSpaceOnUse"><stop stop-color="#069043" /><stop offset="1" stop-color="#02561B" /></linearGradient></defs></svg>