<!-- by TradeStack --><svg width="56" height="56" viewBox="0 0 56 56" fill="none" xmlns="http://www.w3.org/2000/svg">
<rect width="56" height="56" fill="#0051A4"/>
<path d="M22.3846 27H24.9615L24.5 28.5C25.1923 27.9815 26.2615 27 27.9231 27C29.5846 27 30 28.037 30 28.5556L29 34H26.5L27.2656 29.3333C27.2656 29.0741 27.6077 28.5 26.5 28.5C25.3923 28.5 24.7308 29.2407 24.5 29.5L23.5 34H21L22.3846 27Z" fill="#FBFDFE"/>
<path fill-rule="evenodd" clip-rule="evenodd" d="M36.5 32H39C38.5 33 36.2692 34 34 34C30.8462 34 30.6293 31.3385 31 30C31.3077 28.8889 32.1769 27 35.5 27C38.8231 27 39 29.7037 39 31H33C32.5 31.5 33.5 32.5 34.5 32.5C36 32.5 36.5 32 36.5 32ZM35 28.5556C33.8923 28.5556 33.1875 29.3333 33 30H36.5C36.5 29.4815 36.1077 28.5556 35 28.5556Z" fill="#FBFDFE"/>
<path d="M21.4667 27L22 25H12.5L10 34H19.5L20.0296 32H13.5157L14 30.5H17.5L18.0312 28.5H14.3333L14.8 27H21.4667Z" fill="#FEFFFF"/>
<path fill-rule="evenodd" clip-rule="evenodd" d="M20.9787 18.3333C13.6422 18.3333 7.73608 22.6626 6 25C7.06383 21.9412 13.0641 17 20.9787 17C28.822 17 35.648 21.594 38 23.6667C36.9096 23.2396 33.1156 23 30.5106 23C27.9649 23 24.7901 24.3608 23.7021 25C24.383 23.6667 27.6095 21.6667 30.5106 21.6667C31.6091 21.6667 32.7372 21.804 33.776 21.9992C30.7095 20.2072 26.1125 18.3333 20.9787 18.3333Z" fill="#FBFDFE"/>
<path fill-rule="evenodd" clip-rule="evenodd" d="M40.9903 29.006L42.9707 29C43.342 28.7612 43.4659 28 45.4464 28C46.2419 28 47 28.4269 47 29C47 29.5 46.4366 29.5 46 29.5C46 29.5 44.626 29.5022 44.5 29.5C43.0905 29.4754 39.726 29.779 40.0181 32.015C40.3363 34.4508 43.2002 34.021 43.8367 33.8777C44.3458 33.7631 45.6399 33.2568 46.2233 33.018L45.9051 34H47.6394C48.0106 32.6149 48.7849 29.5791 48.9122 29.006C49.0713 28.2896 49.2463 27 47.1779 27H43.6776C42.7759 27.0955 41.4854 27.5 40.9903 29.006ZM46 31C46 31.4861 45.125 32.5 44 32.5C43.5 32.5 42.5 32.515 42.5 32.015C42.5 31.515 43 31 44 31C45 31 46 31 46 31Z" fill="#FEFFFF"/>
</svg>
