<?xml version='1.0' encoding='utf-8'?>
<!-- by TradeStack -->
<svg width="56" height="56" viewBox="0 0 56 56" xmlns="http://www.w3.org/2000/svg"><path fill="#F0F3FA" d="M0 0h56v56H0z" /><path d="M46.9 25.32H48v5.43c0 .93.03.88-1 .99V32h3v-.26c-1.04-.11-1-.06-1-.99v-5.43h1.08c1 0 1.24.55 1.62 1.21h.3L51.69 25H45.3L45 26.53h.29c.38-.66.6-1.2 1.61-1.2ZM32.45 25.35c1.18 0 2.52.96 2.52 3.26 0 1.3-.59 3.04-2.4 3.04-1.25 0-2.57-1.32-2.57-3.65 0-1.31.8-2.64 2.45-2.64M32.3 32c2.15 0 3.69-1.65 3.69-3.69a3.55 3.55 0 0 0-1.03-2.39 3.13 3.13 0 0 0-2.31-.92 3.58 3.58 0 0 0-2.67 6.03 3.19 3.19 0 0 0 2.32.97ZM38.9 25.32H40v5.43c0 .93.04.88-1 .99V32h3v-.26c-1.04-.11-1-.06-1-.99v-5.43h1.1c1 0 1.23.55 1.61 1.21H44L43.7 25H37.3L37 26.53h.29c.38-.66.6-1.2 1.61-1.2M24 30.2h-.29c-.53 1.07-.46 1.48-2.13 1.48-1.02 0-1.58-.07-1.58-.77v-4.65c0-.93-.03-.88 1-1V25h-3v.26c1.04.11 1 .06 1 1v4.5c0 .92.04.87-1 .98V32h5.66l.34-1.8ZM10 30.21h-.29c-.52 1.07-.44 1.48-2.11 1.48-1.04 0-1.6-.07-1.6-.92V28.5h1.07c.76 0 1.03.36 1.06.94h.3V27.3h-.3c-.03.63-.33.88-1.06.88H5.99v-2.86h1.68c.82 0 .92.55 1.03 1.29H9V25H4v.26c1.04.1 1 .06 1 .99v4.5c0 .93.04.88-1 1V32h5.66l.34-1.79ZM17 30.2h-.3c-.52 1.07-.45 1.48-2.12 1.48-1.03 0-1.58-.07-1.58-.77v-4.65c0-.93-.04-.88 1-1V25h-3v.26c1.04.11 1 .06 1 1v4.5c0 .92.04.87-1 .98V32h5.65l.35-1.8ZM28 31.74c-1-.11-1-.06-1-1v-4.49c0-.93 0-.88 1-.99V25h-3v.26c1 .11 1 .06 1 1v4.49c0 .93 0 .88-1 .99V32h3v-.26Z" fill="#2A8045" /></svg>