<!-- by TradeStack --><svg width="56" height="56" viewBox="0 0 56 56" xmlns="http://www.w3.org/2000/svg"><path fill="#F0F3FA" d="M0 0h56v56H0z"/><path d="M15.23 20.12c-2.07-.35-4 .07-5.8 1.26-4.41 2.94-4.58 9.62-.45 12.87a7.97 7.97 0 0 0 6.94 1.49 7.85 7.85 0 0 0 3.15-1.67 7.71 7.71 0 0 0 2.23-2.9c.04-.1 0-.17-.1-.17h-4.51a.39.39 0 0 0-.24.1 3.85 3.85 0 0 1-5.83-.9c-.08-.14-.04-.2.12-.2H21.5c.12 0 .19-.07.2-.2.39-2.51-.1-4.84-1.46-6.62a7.76 7.76 0 0 0-5.01-3.06Zm1.9 5.88H10.7c-.24 0-.04-.28.02-.35.1-.14.22-.26.33-.38A3.84 3.84 0 0 1 14.14 24a4 4 0 0 1 2.96 1.63c.08.1.12.19.13.28.01.1-.02.08-.1.08ZM38.75 25.8a.13.13 0 0 0 0 .13c.02.05.06.07.12.07h10.75c.12 0 .19.06.21.18a8.59 8.59 0 0 1-.52 5.08 7.8 7.8 0 0 1-3.25 3.65 7.8 7.8 0 0 1-6.33.74 8 8 0 0 1-4-2.79.22.22 0 0 1-.03-.25l.75-1.55c.03-.07.09-.06.18-.06h2.65c.07 0 .21.07.26.11a3.71 3.71 0 0 0 3.27.8 3.98 3.98 0 0 0 2.54-1.88.13.13 0 0 0 0-.14.13.13 0 0 0-.12-.07h-8.28c-.1 0-.15-.05-.14-.15l.07-.99a8.63 8.63 0 0 0-1.17-5.18.3.3 0 0 1 .03-.37 8.2 8.2 0 0 1 4.23-2.83 7.7 7.7 0 0 1 5.02.28c2 .8 3.48 2.1 4.45 4.26.05.1.02.16-.1.16H44.9a.42.42 0 0 1-.25-.08l-.03-.02a5.07 5.07 0 0 0-1.6-.84c-1.8-.37-3.22.21-4.27 1.73Z"/><path d="m24.12 28.27-1.36 1.64c-.02.03-.05.04-.08.02-.04-.01-.05-.04-.04-.08.47-2.27.13-4.4-1.01-6.39a.24.24 0 0 1 .02-.3c2.3-2.79 5.23-3.72 8.8-2.8.06.02.1.05.12.11.01.06 0 .1-.04.15l-2.83 3.4c-.04.05-.03.08.03.08l1.2.12c.03 0 .07 0 .1-.04l2.53-3.05c.12-.13.25-.15.4-.06l.5.34c.14.08.16.19.06.3l-2.4 2.87c-.06.08-.05.15.03.22l.63.54c.05.05.06.1.01.17l-4.72 5.66c-.09.1-.07.19.05.24l.7.32c.1.05.2.03.28-.06l4.24-5.09c.04-.05.1-.07.16-.05.06.02.1.06.11.12l.19.85c0 .04.03.07.07.08a.1.1 0 0 0 .1-.04l2.76-3.3c.05-.05.1-.08.17-.07.07.01.12.05.15.11a8.23 8.23 0 0 1 .35 6.59 7.88 7.88 0 0 1-3.52 4.1 8.03 8.03 0 0 1-6.32.68.17.17 0 0 1-.12-.12.17.17 0 0 1 .03-.18l2.78-3.33a.43.43 0 0 1 .25-.14 3.9 3.9 0 0 0 3.33-3.9c-.02-.17-.08-.18-.18-.06l-3.2 3.84a.31.31 0 0 1-.23.11c-.38.04-.74.01-1.07-.08a.2.2 0 0 0-.21.07l-2.54 3.05c-.07.08-.15.1-.25.05l-.64-.3c-.17-.07-.2-.18-.08-.32l2.42-2.9c.09-.1.07-.19-.04-.25a1.96 1.96 0 0 1-.59-.5c-.05-.08-.05-.16.01-.23l4.64-5.57c.1-.12.08-.22-.06-.29l-.62-.29c-.14-.06-.25-.03-.35.08l-4.21 5.06a.13.13 0 0 1-.15.04.14.14 0 0 1-.1-.1l-.26-1.12Zm0 0 3.3-3.98c.06-.08.05-.1-.05-.09-2.1.43-3.2 1.78-3.25 4.07Z"/><path d="m33.41 22.37-2.47 2.97c-.06.07-.06.13 0 .2l.47.64c.08.11.17.11.25.01l2.48-2.97c.05-.07.05-.14 0-.2l-.48-.65c-.08-.1-.16-.11-.25 0ZM22.55 33.67l2.5-3c.03-.05.04-.1 0-.15l-.51-.73c-.06-.08-.12-.08-.2 0l-2.56 3.24c-.05.06-.04-.06 0 0l.6.64c.05.07.11.07.17 0Z"/></svg>