<?xml version='1.0' encoding='utf-8'?>
<!-- by TradeStack -->
<svg width="56" height="56" viewBox="0 0 56 56" xmlns="http://www.w3.org/2000/svg"><path fill="#F0F3FA" d="M0 0h56v56H0z" /><path d="M24.3 46a9.38 9.38 0 0 1-9.3-9.46v-2.08A9.38 9.38 0 0 1 24.3 25H32a3 3 0 1 1 0 6h-6.8c-2.47 0-4.2 1.98-4.2 4.5s1.73 4.5 4.2 4.5H34v6h-9.7Z" fill="#D2CBB8" /><path d="M33.7 39c5.14 0 9.3-4.44 9.3-9.91V26.9c0-5.47-4.16-9.91-9.3-9.91h-7.2a3.5 3.5 0 1 0 0 7h6.3c2.47 0 4.2 1.36 4.2 4 0 2.64-1.73 4-4.2 4h-6.3a3.5 3.5 0 1 0 0 7h7.2Z" fill="#AC976A" /><path d="M24.3 10a9.38 9.38 0 0 0-9.3 9.46v2.08A9.38 9.38 0 0 0 24.3 31H32a3 3 0 1 0 0-6h-6.8c-2.47 0-4.2-1.98-4.2-4.5s1.73-4.5 4.2-4.5H34v-6h-9.7Z" fill="#1D1D1B" /></svg>