<!-- by TradeStack --><svg width="56" height="56" viewBox="0 0 56 56" xmlns="http://www.w3.org/2000/svg"><path fill="#F0F3FA" d="M0 0h56v56H0z"/><path fill-rule="evenodd" d="M28 42a14 14 0 1 0 0-28 14 14 0 0 0 0 28Zm0 3a17 17 0 1 0 0-34 17 17 0 0 0 0 34Z" fill="#BE3326"/><path d="M28.03 34a6.01 6.01 0 0 0 5.93-5H37a9.02 9.02 0 0 1-18-1 9.02 9.02 0 0 1 17.83-2H33.7a6.02 6.02 0 0 0-11.35 0h7.68v3H22.1c.48 2.84 2.96 5 5.94 5Z" fill="#40347C"/><path d="M33.57 29.1c-1.89 5.45-4.32 10.11-6.7 13.25a14.75 14.75 0 0 1-3.44 3.42c-1.07.7-1.96.87-2.65.63-.7-.24-1.3-.93-1.7-2.14-.23-.64-.38-1.42-.48-2.3l-.53-.32c.24 2.82 1.09 4.73 2.54 5.23 3.61 1.25 9.63-6.64 13.43-17.61 3.8-10.97 3.96-20.88.35-22.13-1.74-.6-4.04.91-6.37 3.87h.63c1.02-1.24 2-2.18 2.92-2.77 1.07-.7 1.96-.87 2.65-.63.7.24 1.3.93 1.7 2.14.41 1.2.61 2.83.58 4.8-.06 3.94-1.04 9.1-2.93 14.56Z" fill="#858585"/><path d="M34.5 30c-.4 1.6-.17 4.67 0 6 .67-.17 2.3-1.2 3.5-4 1.2-2.8 1.17-4.83 1-5.5l-2-.5c-.67.67-2.1 2.4-2.5 4Z" fill="url(#ag34vruby)"/><path d="m39 26.5-2-.5 1-3.5 2 .5-1 3.5Z" fill="url(#bg34vruby)"/><path d="m40 23-2-.5 3-9c.33-1 1.2-2.9 2-2.5.8.4.33 2.17 0 3l-3 9Z" fill="url(#cg34vruby)"/><path d="M43.36 12.79c-.08.38-.2.76-.3 1.06l-1.95-.65c.11-.31.27-.67.45-1.01l1.8.6Z"/><defs><linearGradient id="ag34vruby" x1="35" y1="28.5" x2="38" y2="33" gradientUnits="userSpaceOnUse"><stop stop-color="#D7C353"/><stop offset=".34" stop-color="#F7E045"/><stop offset="1" stop-color="#FFFC94"/></linearGradient><linearGradient id="bg34vruby" x1="37.5" y1="24" x2="39.5" y2="25" gradientUnits="userSpaceOnUse"><stop stop-color="#2A1F19"/><stop offset="1" stop-color="#A2A391"/></linearGradient><linearGradient id="cg34vruby" x1="40" y1="16.5" x2="42" y2="17" gradientUnits="userSpaceOnUse"><stop stop-color="#9B98A3"/><stop offset="1" stop-color="#DDE8EA"/></linearGradient></defs></svg>