<?xml version='1.0' encoding='utf-8'?>
<!-- by TradeStack -->
<svg width="56" height="56" viewBox="0 0 56 56" fill="none" xmlns="http://www.w3.org/2000/svg">
<rect width="56" height="56" fill="#F0F3FA" />
<path d="M4 28.0241C4 26.8737 4.6855 26 6.04025 26C7.4231 26 8 26.7939 8 27.9358V28L4.7 28C4.7216 28.6502 5.29152 29.3573 6.0671 29.3573C6.68498 29.3573 7.00995 29.0756 7.31997 28.6265L8 29C7.60564 29.6544 6.88441 30 6.05822 30C4.77438 30 4 29.1345 4 28.0241ZM4.7 27.5663H7.3C7.2051 26.9906 6.69353 26.6265 6.03137 26.6265C5.40472 26.6265 4.79533 27.0201 4.7 27.5663Z" fill="#191516" />
<path d="M21 28.0241C21 26.8737 21.6855 26 23.0402 26C24.4231 26 25 26.7939 25 27.9358V28L21.7 28C21.7216 28.6502 22.2915 29.3573 23.0671 29.3573C23.685 29.3573 24.0099 29.0756 24.32 28.6265L25 29C24.6056 29.6544 23.8844 30 23.0582 30C21.7744 30 21 29.1345 21 28.0241ZM21.7 27.5663H24.3C24.2051 26.9906 23.6935 26.6265 23.0314 26.6265C22.4047 26.6265 21.7953 27.0201 21.7 27.5663Z" fill="#7E8981" />
<path d="M11.1474 26C12.2883 26 13 26.9354 13 27.96C13 29.0376 12.3251 29.984 11.1137 29.984C10.5505 29.984 9.7 29.8371 9.7 29.5V32H9V26C9.76159 26 10.4004 26 11.1474 26ZM9.7 27.984C9.7 28.686 10.1506 29.4286 10.962 29.4286C11.7899 29.4286 12.3 28.7227 12.3 27.984C12.3 27.2499 11.7676 26.64 10.9536 26.64C10.1858 26.64 9.7 27.2935 9.7 27.984Z" fill="#191516" />
<path d="M14.7 26V30H14V26H14.7Z" fill="#191516" />
<path d="M42.7 26V30H42V26H42.7Z" fill="#7E8981" />
<path d="M16 27.96C16 26.9417 16.7149 26 17.8525 26C18.9611 26 18.4775 26 20 26V29.832C20 31.1137 19.5618 32 18.0799 32C16.9827 32 16.1996 31.3705 16.1768 30.304H16.9347C16.9347 30.9891 17.4159 31.36 18.1136 31.36C19.0239 31.36 19.3 30.7925 19.3 30.024V29.272C19.2771 29.272 18.7404 29.984 17.8863 29.984C16.6875 29.984 16 29.0497 16 27.96ZM18.0042 29.3439C18.84 29.3439 19.3 28.7139 19.3 27.984C19.3 27.241 18.8009 26.64 17.9958 26.64C17.2223 26.64 16.7 27.2997 16.7 27.984C16.7 28.6797 17.2135 29.3439 18.0042 29.3439Z" fill="#7E8981" />
<path d="M27.7519 26C28.7075 26 29 26.6851 29 27.6432V30H28.3V27.7344C28.3 27.0781 28.2162 26.6639 27.5489 26.6639C26.7534 26.6639 26.7 27.3787 26.7 28.0913V30H26V26C27.2219 26 26.9854 26 27.7519 26Z" fill="#7E8981" />
<path d="M30 28C30 26.868 30.8764 26 32 26C33.1188 26 34 26.8738 34 28C34 29.1261 33.1186 30 32 30C30.8766 30 30 29.1319 30 28ZM30.7 28C30.7 28.7079 31.2879 29.3092 32 29.3092C32.712 29.3092 33.3 28.7079 33.3 28C33.3 27.2754 32.7186 26.6907 31.9919 26.6907C31.2824 26.6907 30.7 27.2925 30.7 28Z" fill="#7E8981" />
<path d="M35 26C36.3019 26 36.336 26 36.9938 26C37.562 26 37.9579 26.2588 38.24 26.6888C38.5151 26.2615 39.0202 26 39.5693 26C40.6785 26 41 26.7593 41 27.6348V30H40.3V27.7677C40.3 27.256 40.0749 26.6639 39.3662 26.6639C38.5078 26.6639 38.3072 27.4481 38.3072 28.0498V30H37.6072V27.9004C37.6072 27.392 37.5353 26.6639 36.7908 26.6639C35.9259 26.6639 35.7 27.4412 35.7 28.0498V30H35V26.1162V26Z" fill="#7E8981" />
<path d="M44 28.0241C44 26.8574 44.8838 26 46.0211 26C46.3543 26 46.7114 26.0749 47 26.2489V27.1807C46.7158 26.8434 46.3631 26.6747 45.9421 26.6747C45.2454 26.6747 44.7 27.3016 44.7 27.992C44.7 28.7595 45.227 29.3253 45.9894 29.3253C46.4092 29.3253 46.7244 29.139 47 28.8272V29.751C46.6708 29.9291 46.3533 30 45.9816 30C44.8886 30 44 29.1481 44 28.0241Z" fill="#7E8981" />
<path d="M48 29.1566L48.7152 28.8754C48.8913 29.1584 49.1119 29.3573 49.5046 29.3573C49.8646 29.3573 50.1641 29.152 50.1641 28.8272C50.1641 28.0877 48.2043 28.2229 48.2043 27.0923C48.2043 26.4855 48.7804 26 49.4861 26C50.0197 26 50.4391 26.2506 50.6749 26.6586L49.9969 26.9718C49.8951 26.7849 49.6847 26.6426 49.4397 26.6426C49.2005 26.6426 48.9846 26.7973 48.9846 27.012C48.9846 27.677 51 27.5587 51 28.755C51 29.4682 50.3123 30 49.5046 30C48.8653 30 48.2303 29.6873 48 29.1566Z" fill="#7E8981" />
</svg>