<!-- by TradeStack --><svg width="56" height="56" viewBox="0 0 56 56" xmlns="http://www.w3.org/2000/svg"><path fill="#F0F3FA" d="M0 0h56v56H0z"/><path d="M16 24v7h-1v-7h1ZM4 31v-7h4v1H5v2h2.5v1H5v2h3v1H4ZM9 31v-7h2.45c1.35 0 2.31.63 2.31 2 0 1.34-.8 2-2.32 2H9.69v-1h1.71c.74 0 1.28-.22 1.28-1s-.54-1-1.28-1H10v6H9ZM47 31v-7h2.7c1.34 0 2.3.63 2.3 2 0 1.34-.8 2-2.32 2h-1.99v-1h1.95c.74 0 1.28-.22 1.28-1s-.54-1-1.28-1H48v6h-1ZM33 26.4h-1c-.14-.81-1.07-1.4-1.86-1.4-1.32 0-2.14 1.33-2.14 2.5s.8 2.5 2.13 2.5c.78 0 1.72-.57 1.87-1.36l1 .01C32.8 30.1 31.52 31 30.12 31 28.14 31 27 29.36 27 27.5c0-1.85 1.15-3.5 3.12-3.5 1.45 0 2.68.92 2.88 2.4ZM23 26.4h-1c-.14-.81-1.07-1.4-1.86-1.4-1.32 0-2.14 1.33-2.14 2.5s.8 2.5 2.13 2.5c.78 0 1.72-.57 1.87-1.36l1 .01C22.8 30.1 21.52 31 20.12 31 18.14 31 17 29.36 17 27.5c0-1.85 1.15-3.5 3.12-3.5 1.45 0 2.68.92 2.88 2.4Z"/><path fill-rule="evenodd" d="M37 31c1.66 0 3-1.57 3-3.5S38.66 24 37 24s-3 1.57-3 3.5 1.34 3.5 3 3.5Zm0-1c1.1 0 2-1.12 2-2.5s-.9-2.5-2-2.5-2 1.12-2 2.5.9 2.5 2 2.5Z"/><path d="M41 31v-7h2.45c1.35 0 2.31.63 2.31 2 0 1.34-.8 2-2.32 2h-1.75v-1h1.71c.74 0 1.28-.22 1.28-1s-.54-1-1.28-1H42v6h-1Zm3.38-3.17L46 31h-1.15l-1.59-3.17h1.12Z"/></svg>