<!-- by TradeStack --><svg width="56" height="56" viewBox="0 0 56 56" xmlns="http://www.w3.org/2000/svg"><path fill="#F0F3FA" d="M0 0h56v56H0z"/><path d="M10.6 31.15A30.4 30.4 0 0 0 7.87 36c.12-.28 7.94-11.7 17.13-17-5.08 1.98-9.14 5.56-12.09 9.08L15.48 22h-3.91l-2.73 6.09a.94.94 0 0 1-.86.55c-.33 0-.56-.33-.43-.63L8.85 25H5.4l-1.18 2.78A3.08 3.08 0 0 0 7.17 32h.49c1.07 0 2.09-.3 2.94-.85Z" fill="#E60020"/><path fill-rule="evenodd" d="m46.05 31.96 2.18-5.46c.04-.09.1-.13.2-.13l1.02.05a.3.3 0 0 1 .21.1c.23.24.24.53.04.88-.3.5-.82.72-1.55.64a.14.14 0 0 0-.11.04.17.17 0 0 0-.05.11l-.15 3.75c0 .03.01.06.04.06h1.92c.04 0 .05-.03.05-.07l-.16-2.7c0-.12.04-.2.14-.23a3.28 3.28 0 0 0 2.05-2.09c.24-.69.16-1.49-.62-1.72a3.6 3.6 0 0 0-.95-.17c-.95-.03-2.08-.03-3.37 0-.07 0-.11.03-.14.1l-2.73 6.84a.03.03 0 0 0 0 .03l.02.01H46c.03 0 .05-.01.06-.04Zm-12.63-3.7 1.73-3.08c.03-.06.08-.1.13-.13a.33.33 0 0 1 .17-.05h1.65c.08 0 .1.04.1.12l-.43 3.02c-.03.21.01.23.13.05l2-3.15a.07.07 0 0 1 .07-.04h1.64l.01.01v.01l-4.37 6.87a.2.2 0 0 1-.19.1h-1.44c-.06 0-.08-.02-.07-.07l.5-3.58c.03-.2 0-.22-.12-.04l-2.15 3.6a.23.23 0 0 1-.08.07.2.2 0 0 1-.1.03h-1.52c-.08 0-.1-.04-.1-.12l.96-6.82.02-.04a.06.06 0 0 1 .05-.02h1.73a.04.04 0 0 1 .03.02.05.05 0 0 1 .01.04l-.44 3.17c-.02.15 0 .16.08.04Zm10.48 2.39-.52 1.3-.03.04a.08.08 0 0 1-.04.01h-4.76l-.04-.01a.08.08 0 0 1-.02-.03.09.09 0 0 1-.01-.08l2.72-6.83.03-.04.05-.01h4.7l.03.01.03.03a.09.09 0 0 1 0 .08l-.5 1.27-.03.03a.07.07 0 0 1-.04.02h-2.85l-.04.01a.08.08 0 0 0-.03.04l-.44 1.1a.09.09 0 0 0 0 .09l.03.03h2.24l.04.02.03.03a.09.09 0 0 1 0 .08L44 28.97l-.03.03h-2.34l-.02.02-.02.01a.08.08 0 0 0-.03.04l-.53 1.34a.09.09 0 0 0 0 .08l.03.03h2.77l.04.02s.02.01.02.03a.09.09 0 0 1 .01.08Zm-12.98-2.82c.21-.9.06-1.71-.42-2.23a1.84 1.84 0 0 0-.92-.53c-.37-.1-.78-.1-1.23 0-.44.08-.9.26-1.35.51a6.13 6.13 0 0 0-2.84 3.59c-.22.9-.07 1.71.41 2.23.24.26.56.44.92.53.37.1.8.1 1.24 0 .44-.08.9-.26 1.35-.51a6.13 6.13 0 0 0 2.84-3.59Zm-4.46 2.8c-.45-.25-.35-1.4.24-2.57.6-1.17 1.44-1.92 1.9-1.68.46.25.36 1.4-.23 2.57-.6 1.17-1.45 1.92-1.9 1.67Zm-6.32-1.2-.09.03a.16.16 0 0 0-.06.07l-.95 2.4-.05.05a.1.1 0 0 1-.06.02h-1.9l-.02-.02-.01-.03v-.02l2.7-6.71c.01-.05.04-.1.08-.13a.5.5 0 0 0 .04-.03c.03-.03.07-.06.1-.06h3.5c.97.1 1.4.94 1.1 1.91A3.5 3.5 0 0 1 23 28.94c-.86.54-1.86.56-2.86.5Zm1.07-2.96a.1.1 0 0 1 .09-.07c.4-.05.72-.03.96.08.06.03.11.07.15.12a.5.5 0 0 1 .13.36c0 .06-.01.13-.04.19-.32.72-.9 1.02-1.78.88-.09-.01-.11-.06-.08-.15l.57-1.41Z" fill="#717070"/></svg>