<?xml version='1.0' encoding='utf-8'?>
<!-- by TradeStack -->
<svg width="56" height="56" viewBox="0 0 56 56" xmlns="http://www.w3.org/2000/svg"><path fill="#F0F3FA" d="M0 0h56v56H0z" /><path d="M7 23.59C7 22.7 7.7 22 8.58 22H16v2H9.9c-.5 0-.9.4-.9.91V27h6v2H9v2.09c0 .5.4.91.9.91H16v2H8.58C7.71 34 7 33.29 7 32.41V23.6ZM17 22h6.5a3.5 3.5 0 1 1 0 7H19v5h-2v-7h6.5a1.5 1.5 0 0 0 0-3H17v-2ZM28 22h2v9l2.09-2.68a1.88 1.88 0 0 1 2.82 0L37 31v-9h2v10.48A1.5 1.5 0 0 1 37.53 34c-.41 0-.8-.18-1.08-.49l-2.95-3.3-2.95 3.3c-.28.31-.67.49-1.08.49A1.5 1.5 0 0 1 28 32.48V22Z" fill="#E43837" /><path d="M49 22h-3.16L40 28l5.84 6H49l-5.84-6L49 22Z" fill="#EF9400" /></svg>