<!-- by TradeStack --><svg width="56" height="56" viewBox="0 0 56 56" xmlns="http://www.w3.org/2000/svg"><path fill="#172843" d="M0 0h56v56H0z"/><path d="M12 16H9v18h6v-3h-3V16Z" fill="url(#alka4m2lq)"/><path d="M21 25.5 18 28v6h15V16l-3 2.5V31h-3V20.5L24 23v8h-3v-5.5Z" fill="url(#blka4m2lq)"/><path d="m38 32-3 2V19.5l6-3.5 6 3.5V25l-1.5 1.5L47 28v6l-3-2.5V28h-4v-3h4v-4l-3-1.5-3 1.5v11Z" fill="url(#clka4m2lq)"/><path d="M47 36H9l3 3h32l3-3Z" fill="url(#dlka4m2lq)"/><defs><linearGradient id="alka4m2lq" x1="9" y1="27.69" x2="47.5" y2="26.5" gradientUnits="userSpaceOnUse"><stop stop-color="#E8B238"/><stop offset="1" stop-color="#FFA"/></linearGradient><linearGradient id="blka4m2lq" x1="9" y1="27.69" x2="47.5" y2="26.5" gradientUnits="userSpaceOnUse"><stop stop-color="#E8B238"/><stop offset="1" stop-color="#FFA"/></linearGradient><linearGradient id="clka4m2lq" x1="9" y1="27.69" x2="47.5" y2="26.5" gradientUnits="userSpaceOnUse"><stop stop-color="#E8B238"/><stop offset="1" stop-color="#FFA"/></linearGradient><linearGradient id="dlka4m2lq" x1="9" y1="27.69" x2="47.5" y2="26.5" gradientUnits="userSpaceOnUse"><stop stop-color="#E8B238"/><stop offset="1" stop-color="#FFA"/></linearGradient></defs></svg>