<?xml version='1.0' encoding='utf-8'?>
<!-- by TradeStack -->
<svg width="56" height="56" viewBox="0 0 56 56" xmlns="http://www.w3.org/2000/svg"><path fill="#F0F3FA" d="M0 0h56v56H0z" /><path d="M26 28c0 .95-13.35 1.97-18 2l13.47-14 6.73 6.99c.27.26.8.88.8 1.26 0 1.49-7 1.22-7 2.6 0 .76 4 .76 4 1.16Z" fill="url(#aw0s3n5sq)" /><path d="M29 21.12 33.79 16 47 30H35c1-.26 3-.88 3-1.24 0-.44-1.54-.75-3.78-1.19h-.07C31.88 27.1 30 26.8 30 26.51c0-.27 2-.92 2-1.72 0-.63-.83-1.4-1.16-1.71L29 21.12Z" fill="url(#bw0s3n5sq)" /><path d="m27.5 13 3.5 3.5-3.5 3.5-3.5-3.5 3.5-3.5Z" fill="url(#cw0s3n5sq)" /><path d="M11 32H8v5h9v-1h-6v-1h5v-1h-5v-1h6v-1h-6ZM32 32h3v5h-3zM37 32h3.83L45 35.02V32h3v5h-3.84L40 33.79V37h-3v-5Z" fill="#07183B" /><path fill-rule="evenodd" d="M19 32v5h3v-2h3.4c.74 0 1.03 1.5 1.08 2h3.33c-.06-.35-.2-1.27-.27-1.62-.04-.25-.27-.41-.47-.55-.16-.13-.31-.23-.31-.36 0-.1.15-.15.34-.24.37-.15.9-.37.9-1 0-.79-1.5-1.23-1.98-1.23H19Zm3 1v1h3.78c.29 0 .52-.2.52-.48a.52.52 0 0 0-.52-.52H22Z" fill="#07183B" /><defs><linearGradient id="aw0s3n5sq" x1="18.5" y1="16" x2="18.5" y2="30" gradientUnits="userSpaceOnUse"><stop offset=".61" stop-color="#0D1742" /><stop offset="1" stop-color="#3B67B6" /></linearGradient><linearGradient id="bw0s3n5sq" x1="38" y1="16" x2="38" y2="30" gradientUnits="userSpaceOnUse"><stop offset=".61" stop-color="#0D1742" /><stop offset="1" stop-color="#3B67B6" /></linearGradient><linearGradient id="cw0s3n5sq" x1="27.5" y1="13" x2="27.5" y2="20" gradientUnits="userSpaceOnUse"><stop offset=".61" stop-color="#0D1742" /><stop offset="1" stop-color="#3B67B6" /></linearGradient></defs></svg>