<?xml version='1.0' encoding='utf-8'?>
<!-- by TradeStack -->
<svg width="56" height="56" viewBox="0 0 56 56" xmlns="http://www.w3.org/2000/svg"><path fill="#F0F3FA" d="M0 0h56v56H0z" /><path d="M31 34V22h8v2h-6v3h5v2h-5v5h-2ZM40 34V22h8v2h-6v3h5v2h-5v5h-2ZM30 22v12h-2V22h2ZM24 25.37c-.13-1.2-1.49-1.37-2.41-1.37-.85 0-2.11.13-2.13 1.3 0 .8.68 1.2 1.28 1.4 1.01.36 2.1.48 3.09.9C25 28.1 26 29.07 26 30.55c0 2.6-2.52 3.45-4.45 3.45-2.09 0-4.44-.94-4.55-3.62h2c.1 1.36 1.48 1.81 2.53 1.81.93 0 2.46-.37 2.47-1.66 0-.6-.5-.99-1.13-1.25-.77-.34-1.62-.5-2.43-.7-1.46-.38-3.13-1.23-3.13-3.14 0-2.46 2.45-3.44 4.3-3.44 1.84 0 4.35.96 4.39 3.37h-2ZM8 34V22h8v2h-6v3h5.54v2H10v3h6v2H8Z" /></svg>