<?xml version='1.0' encoding='utf-8'?>
<!-- by TradeStack -->
<svg width="56" height="56" viewBox="0 0 56 56" xmlns="http://www.w3.org/2000/svg"><path fill="#F0F3FA" d="M0 0h56v56H0z" /><path d="M25.68 12.54c.14-1.65 1.42-1.56 1.63-1.51l.7.7c.08 3.9.69 6.78.98 7.73a45.77 45.77 0 0 0-1.89 3.78c-.92-3.3-1.57-9.04-1.43-10.7Z" fill="url(#a)" /><path d="M26.94 11c.58.23 1.73 1.42 1.73 4.35 0 10.03-8.74 18.4-15.76 23.45.13.6.6 1.74 1.5 1.53 7.2-2.27 16.67-15.1 16.67-23.9 0-3.65-1.1-5.14-1.64-5.43h-2.5Z" fill="url(#b)" /><path d="M13.25 39.67c-.1-.66.26-2.35 2.58-3.81 7.93-5.01 18.93-.91 26.43 3.2.41-.4 1.08-1.43.46-2.17-5.4-5.7-20.28-8.26-27.24-3.86-2.89 1.83-3.52 3.61-3.48 4.28l1.25 2.36Z" fill="url(#c)" /><path d="M28.18 26.39c.6-1.16 1.13-2.33 1.56-3.48 2.43 8.49 4.94 11.83 5.9 12.45.5.63 1.92 2.07 3.57 2.74 1.65.66 3.68-.32 3.79-.6l-.45 1.31-.19.24c-.18.22-.39.47-.71 1.1-.44.83-1.19.9-1.5.83-1.43 0-3.31-1.13-4.07-1.7-3.76-2.42-6.55-8.75-7.9-12.9Z" fill="url(#d)" /><defs><linearGradient id="a" x1="24.9" y1="11.58" x2="27.78" y2="23.12" gradientUnits="userSpaceOnUse"><stop stop-color="#056805" /><stop offset="1" stop-color="#0ACE0A" /></linearGradient><linearGradient id="b" x1="34.13" y1="14.05" x2="16.3" y2="38.87" gradientUnits="userSpaceOnUse"><stop stop-color="#FFC800" /><stop offset="1" stop-color="#E24D00" /></linearGradient><linearGradient id="c" x1="12.07" y1="31.33" x2="40.78" y2="32.83" gradientUnits="userSpaceOnUse"><stop stop-color="#50D4F7" /><stop offset="1" stop-color="#024F91" /></linearGradient><linearGradient id="d" x1="28.6" y1="26.37" x2="41.58" y2="38.67" gradientUnits="userSpaceOnUse"><stop stop-color="#3DAB3D" /><stop offset="1" stop-color="#C9E504" /></linearGradient></defs></svg>