<?xml version='1.0' encoding='utf-8'?>
<!-- by TradeStack -->
<svg width="56" height="56" viewBox="0 0 56 56" xmlns="http://www.w3.org/2000/svg"><path fill="#F0F3FA" d="M0 0h56v56H0z" /><path d="M28 16H12v24h16v-7.31L24 31l4-6.52V16Z" fill="url(#ahfbnbg5b)" /><path d="M44 16H29v8.34L25 31l4 1.41V40h15V16Z" fill="url(#bhfbnbg5b)" /><circle cx="16.5" cy="31.5" r=".5" fill="#fff" /><circle cx="18.5" cy="32.5" r=".5" fill="#fff" /><circle cx="19.5" cy="34.5" r=".5" fill="#fff" /><circle cx="21.5" cy="35.5" r=".5" fill="#fff" /><circle cx="23.5" cy="36.5" r=".5" fill="#fff" /><circle cx="25.5" cy="35.5" r=".5" fill="#fff" /><circle cx="26.5" cy="33.5" r=".5" fill="#fff" /><circle cx="27.5" cy="30.5" r=".5" fill="#fff" /><circle cx="28.5" cy="28.5" r=".5" fill="#fff" /><circle cx="29.5" cy="26.5" r=".5" fill="#fff" /><circle cx="31.5" cy="25.5" r=".5" fill="#fff" /><path d="M35.09 21c.13 0 .23.1.24.22l.71 10.69.91-8.53a.24.24 0 0 1 .25-.22c.12 0 .23.1.24.21a829.5 829.5 0 0 0 .68 5.65 1534.66 1534.66 0 0 0 .83-2.96c.03-.11.13-.18.25-.18.11 0 .2.08.23.2l.74 3.5 1-2.5c.04-.1.14-.16.24-.16h3.35a.24.24 0 0 1 0 .48h-3.18l-1.26 3.1a.25.25 0 0 1-.25.16c-.1-.01-.2-.09-.22-.2l-.7-3.3a432.76 432.76 0 0 1-.9 3.16.25.25 0 0 1-.44-.03 201.14 201.14 0 0 1-.6-4.68l-.98 9.17a.24.24 0 0 1-.25.22.24.24 0 0 1-.24-.22l-.7-10.63-1 9.67a.24.24 0 0 1-.26.22.24.24 0 0 1-.24-.23L33 24.9l-.71 6.62a.24.24 0 0 1-.24.21.24.24 0 0 1-.25-.2l-.8-5.83.49-.06.53 3.83.8-7.53a.24.24 0 0 1 .26-.21c.13 0 .23.1.24.23l.53 8.83.99-9.56a.24.24 0 0 1 .25-.22Z" fill="#fff" /><path d="M35.28 21c.13 0 .23.1.24.22l.72 10.69.9-8.53a.24.24 0 0 1 .25-.22c.13 0 .23.1.25.21a829.5 829.5 0 0 0 .67 5.65 546.98 546.98 0 0 0 .84-2.96c.03-.11.13-.18.24-.18.12 0 .21.08.23.2l.74 3.5 1.01-2.43c.04-.09.13-.15.23-.15h3.35c.13 0 .24.1.24.24 0 .13-.1.24-.24.24h-3.18l-1.25 3.03a.25.25 0 0 1-.25.15c-.11-.01-.2-.09-.22-.2l-.7-3.3a432.76 432.76 0 0 1-.9 3.16.25.25 0 0 1-.44-.03 200.61 200.61 0 0 1-.6-4.68l-.98 9.17a.24.24 0 0 1-.25.22.24.24 0 0 1-.25-.22l-.7-10.63-1 9.67a.24.24 0 0 1-.25.22.24.24 0 0 1-.24-.23l-.54-8.92-.72 6.62a.24.24 0 0 1-.24.21.24.24 0 0 1-.25-.2l-.8-5.83.5-.06.52 3.83.81-7.53a.24.24 0 0 1 .25-.21c.13 0 .23.1.24.23l.54 8.83.98-9.56a.24.24 0 0 1 .25-.22Z" fill="#ED1C24" /><defs><linearGradient id="ahfbnbg5b" x1="12" y1="27.98" x2="28" y2="27.98" gradientUnits="userSpaceOnUse"><stop stop-color="#FAC7C7" /><stop offset="1" stop-color="#CE3234" /></linearGradient><linearGradient id="bhfbnbg5b" x1="44" y1="23.99" x2="25" y2="23.99" gradientUnits="userSpaceOnUse"><stop stop-color="#C8CACB" /><stop offset="1" stop-color="#11699C" /></linearGradient></defs></svg>