<?xml version='1.0' encoding='utf-8'?>
<!-- by TradeStack -->
<svg width="56" height="56" viewBox="0 0 56 56" xmlns="http://www.w3.org/2000/svg"><path fill="#F0F3FA" d="M0 0h56v56H0z" /><path d="M20.75 24.89c.47.57.75 1.28.75 2.02v2.9c0 .74-.28 1.45-.75 2.02-1.05 1.26-2.25 2.96-2.25 4.09 0 1.99 1.68 3.6 3.75 3.6a3.68 3.68 0 0 0 3.75-3.6c0-1.13-1.2-2.83-2.25-4.09a3.18 3.18 0 0 1-.75-2.02v-2.9c0-.74.28-1.45.75-2.02C24.8 23.63 26 21.93 26 20.8c0-1.99-1.68-3.6-3.75-3.6a3.68 3.68 0 0 0-3.75 3.6c0 1.13 1.2 2.83 2.25 4.09Z" fill="url(#alh3ugswg)" /><path d="M35.75 24.89c.47.57.75 1.28.75 2.02v2.9c0 .74-.28 1.45-.75 2.02-1.05 1.26-2.25 2.96-2.25 4.09 0 1.99 1.68 3.6 3.75 3.6a3.68 3.68 0 0 0 3.75-3.6c0-1.13-1.2-2.83-2.25-4.09a3.18 3.18 0 0 1-.75-2.02v-2.9c0-.74.28-1.45.75-2.02C39.8 23.63 41 21.93 41 20.8c0-1.99-1.68-3.6-3.75-3.6a3.68 3.68 0 0 0-3.75 3.6c0 1.13 1.2 2.83 2.25 4.09Z" fill="url(#blh3ugswg)" /><ellipse cx="14.75" cy="28" rx="3.75" ry="3.6" fill="url(#clh3ugswg)" /><path d="M28.25 23.91c.47-.57.75-1.28.75-2.02v-2.18c0-.74-.28-1.45-.75-2.02C27.2 16.43 26 14.73 26 13.6c0-1.99 1.68-3.6 3.75-3.6a3.68 3.68 0 0 1 3.75 3.6c0 1.13-1.2 2.83-2.25 4.09a3.18 3.18 0 0 0-.75 2.02v2.18c0 .74.28 1.45.75 2.02 1.05 1.26 2.25 2.96 2.25 4.09 0 1.06-1.07 2.42-2.06 3.46-.58.6-.94 1.4-.94 2.24v2.15c0 .66.22 1.3.6 1.83 1.08 1.48 2.4 3.54 2.4 4.72 0 1.99-1.68 3.6-3.75 3.6A3.68 3.68 0 0 1 26 42.4c0-1.18 1.32-3.24 2.4-4.72.38-.53.6-1.17.6-1.83V33.7c0-.84-.36-1.63-.94-2.24-1-1.04-2.06-2.4-2.06-3.46 0-1.13 1.2-2.83 2.25-4.09Z" fill="url(#dlh3ugswg)" /><defs><linearGradient id="alh3ugswg" x1="22.25" y1="17.2" x2="22.25" y2="39.52" gradientUnits="userSpaceOnUse"><stop stop-color="#C6D195" /><stop offset=".26" stop-color="#ACBB54" /><stop offset=".77" stop-color="#9AB236" /><stop offset="1" stop-color="#869D55" /></linearGradient><linearGradient id="blh3ugswg" x1="37.25" y1="17.2" x2="37.25" y2="39.52" gradientUnits="userSpaceOnUse"><stop stop-color="#C9E0D6" /><stop offset=".34" stop-color="#87B6A6" /><stop offset=".53" stop-color="#42776D" /><stop offset="1" stop-color="#166B64" /></linearGradient><linearGradient id="clh3ugswg" x1="14.75" y1="24.4" x2="14.75" y2="31.6" gradientUnits="userSpaceOnUse"><stop stop-color="#EED5AC" /><stop offset=".55" stop-color="#B06F69" /><stop offset=".98" stop-color="#C3A29C" /></linearGradient><linearGradient id="dlh3ugswg" x1="29.75" y1="10" x2="29.75" y2="46" gradientUnits="userSpaceOnUse"><stop stop-color="#C58792" /><stop offset=".41" stop-color="#FFB991" /><stop offset=".61" stop-color="#CBC3B6" /><stop offset=".8" stop-color="#E7A875" /><stop offset="1" stop-color="#A26E47" /></linearGradient></defs></svg>