<?xml version='1.0' encoding='utf-8'?>
<!-- by TradeStack -->
<svg width="56" height="56" viewBox="0 0 56 56" xmlns="http://www.w3.org/2000/svg"><path fill="#F0F3FA" d="M0 0h56v56H0z" /><path d="M4 25.7c0 1.08 3.38 1.97 5.07 2.28-.93-.28-2.8-1.02-2.8-1.81 0-1.63 5.56-2.17 8.34-2.23C10.9 23.7 4 24.36 4 25.7Z" fill="#2F9947" /><circle cx="15" cy="24" r="1" fill="#0B0C0C" /><circle cx="15" cy="24" r=".79" fill="url(#a)" /><path d="M14 29v1h-3.78C9.55 30 9 29.41 9 28.68v-1.36c0-.73.55-1.32 1.22-1.32h2.82c.53 0 .96.46.96 1.04V28c0 .26-.2.47-.44.47H10v.2c0 .21.24.33.43.33H14Zm-4-1.5h3v-.12c0-.2-.2-.38-.45-.38h-2.1c-.25 0-.45.17-.45.38v.12ZM25 29v1h-3.78c-.67 0-1.22-.59-1.22-1.32v-1.36c0-.73.55-1.32 1.22-1.32h2.82c.53 0 .96.46.96 1.04V28c0 .26-.2.47-.44.47H21v.2c0 .21.24.33.43.33H25Zm-4-1.5h3v-.12c0-.2-.2-.38-.45-.38h-2.1c-.25 0-.45.17-.45.38v.12ZM41.5 30v-1h-3.57c-.2 0-.43-.12-.43-.33v-.2h3.56c.25 0 .44-.21.44-.47v-.96c0-.58-.43-1.04-.96-1.04h-2.82c-.67 0-1.22.59-1.22 1.32v1.36c0 .73.55 1.32 1.22 1.32h3.78Zm-1-2.44h-3v-.14c0-.26.2-.47.45-.47h2.1c.25 0 .45.2.45.47v.14Zm-26-.59V30h1v-2.7c0-.16.23-.23.33-.1l1.97 2.44c.18.23.46.36.74.36.53 0 .96-.44.96-.98V26h-1v2.54c0 .16-.25.24-.35.12l-2-2.33a.94.94 0 0 0-.7-.33.96.96 0 0 0-.95.97Zm11 .03v-1h4.07c.45 0 .93.36.93.8v.74c0 .44-.48.96-.93.96h-.05L31.9 31h-1.45l-2.32-2.5H26.5V30h-1v-2.5h3.46c.15 0 .28-.14.28-.29 0-.15-.13-.21-.28-.21H25.5ZM36 26h-5v1h2v3h1v-3h2v-1Zm10.5 0h-3.3c-.66 0-1.2.54-1.2 1.2v1.6c0 .66.54 1.2 1.2 1.2h3.3v-1h-2.86a.65.65 0 0 1-.64-.66v-.77c0-.36.28-.57.64-.57h2.86v-1Zm.5 0h1v4h-1v-4Zm4.75 0h-1.47l-1.78 1.5v.92L50.35 30H52l-2.4-1.99v-.1L51.75 26Z" fill="#2F9947" /><defs><linearGradient id="a" x1="15" y1="23.21" x2="15" y2="24.79" gradientUnits="userSpaceOnUse"><stop stop-color="#384433" /><stop offset=".32" stop-color="#2E7034" /><stop offset=".51" stop-color="#5DBA48" /><stop offset=".78" stop-color="#30763A" /><stop offset="1" stop-color="#111610" /></linearGradient></defs></svg>