<!-- by TradeStack --><svg width="56" height="56" viewBox="0 0 56 56" xmlns="http://www.w3.org/2000/svg"><path fill="#F0F3FA" d="M0 0h56v56H0z"/><path fill-rule="evenodd" d="M38 15H18a3 3 0 0 0-3 3v20a3 3 0 0 0 3 3h20a3 3 0 0 0 3-3V18a3 3 0 0 0-3-3Zm-20-2a5 5 0 0 0-5 5v20a5 5 0 0 0 5 5h20a5 5 0 0 0 5-5V18a5 5 0 0 0-5-5H18Z" fill="#731615"/><path d="M28.37 23.74c-2.7 0-3.43-.88-3.8-1.4.46.26 1.57.88 2.31.96.75.1 1.12-.79 2.79-.7 1.33.07 1.73.38 1.76.53-.25.23-1.2.61-3.06.61Z" fill="#A72227"/><path d="M28.09 23.74a4.86 4.86 0 0 1-3.52-1.4c.12 1.55 1.1 4.57 3.43 4.57 2.45 0 3.3-2.5 3.43-3.78-.34.2-1.49.61-3.34.61Z" fill="url(#ay34dlvhc)"/><path d="M26.05 24.89c-.45-.21-.93-1.56-1.11-2.2.58.32 1.94 1.05 3.15 1.05 1.12 0 2.57-.29 2.97-.44-.06.18-.61.69-.84.97-.28.35-.28.8-.55.97-.28.18-.47.35-.84.44-.37.09-.55.18-.93.18-.37 0-1.3-.7-1.85-.97Z" fill="url(#by34dlvhc)"/><path d="m26.6 33.07 1.4.53 1.39-.53-.65 1.32.65 1.32-1.4-.53-1.38.53.65-1.32-.65-1.32ZM28 35a.5.5 0 1 0 0-1 .5.5 0 0 0 0 1Z" fill="#6D6D6F"/><path d="m28 33.6-1.4-.53 1.03.88.37-.35ZM28.83 34.3l.56-1.23-.93.88.37.35ZM28 35.18l.46-.35.92.87-1.38-.52Z" fill="#393738"/><path fill-rule="evenodd" d="M25.68 16c-.53 1-1.6 3.5-1.67 5.54-.1 2.56.46 4.84 3.52 6.08.07.03.19.12.19.26v5.2c.03.23-.11.73-.93.87l-1.22.25c-.62.13-1.23.27-1.57.3 1.05.09 3.35.29 3.5.5.08.12.14.55.22 1.17.07.51.15 1.15.28 1.83.14-.7.2-1.33.24-1.83.06-.62.1-1.05.26-1.17.29-.2 2.42-.4 3.42-.5H32l-2.61-.46c-.37-.03-1.1-.26-1.07-.97.04-.7-.01-3.7-.04-5.1 0-.09.03-.28.18-.35l.1-.03c.61-.17 3.68-1 3.42-6.05A12.86 12.86 0 0 0 30.47 16c.38.94 1.02 3.26 1.14 5.02C31.8 23.66 30.6 27 28 27c-1.4 0-3.53-1.06-3.62-5.98-.01-.8.33-2.7 1.3-5.02ZM28 35a.5.5 0 1 0 0-1 .5.5 0 0 0 0 1Z" fill="#231F20"/><path fill-rule="evenodd" d="M27.96 37.31a2.81 2.81 0 1 0 0-5.62 2.81 2.81 0 0 0 0 5.62Zm0 .19a3 3 0 1 0 0-6 3 3 0 0 0 0 6Z" fill="#231F20"/><path fill-rule="evenodd" d="M28 36.8a2.3 2.3 0 1 0 0-4.6 2.3 2.3 0 0 0 0 4.6Zm0 .2a2.5 2.5 0 1 0 0-5 2.5 2.5 0 0 0 0 5Z" fill="#231F20"/><path d="m21.93 37-.59-1.71a.38.38 0 0 0-.08-.15.28.28 0 0 0-.15-.06l-.11-.03V35h.87v.05l-.18.04c-.06.01-.1.03-.11.05-.01.02 0 .06.02.12l.42 1.27.44-1.24.03-.14c-.01-.03-.05-.05-.12-.06l-.16-.04V35h.74v.05l-.18.04a.25.25 0 0 0-.1.03l-.01.06.03.1.42 1.25.45-1.27c.02-.06.02-.1 0-.12 0-.02-.04-.04-.1-.05l-.17-.04V35H24v.05l-.14.03a.25.25 0 0 0-.15.06.44.44 0 0 0-.08.15l-.6 1.71h-.01l-.52-1.6-.55 1.6h-.02ZM32 37v-.05l.2-.04a.44.44 0 0 0 .17-.05c.03-.02.04-.06.04-.12v-1.48c0-.06-.01-.1-.04-.12a.42.42 0 0 0-.17-.05l-.2-.04V35h1.88l-.02.08a1.05 1.05 0 0 0 .02.3l.03.15h-.06a1.2 1.2 0 0 0-.12-.24.45.45 0 0 0-.17-.16.56.56 0 0 0-.27-.06h-.58v.83h.53c.11 0 .19-.01.23-.05.04-.04.07-.1.08-.18l.03-.14h.06v.83h-.06l-.03-.14a.33.33 0 0 0-.08-.18c-.04-.04-.12-.05-.23-.05h-.53v.74l.02.12c.02.03.04.05.08.06l.16.02h.3a.72.72 0 0 0 .58-.3l.09-.16H34a1.71 1.71 0 0 0-.09.53H32ZM28.02 40a2.62 2.62 0 0 1-1-.18.87.87 0 0 0-.02-.52h.12c.03.12.08.23.15.32.08.1.18.17.3.23.14.05.3.08.48.08.12 0 .23-.01.32-.05.1-.03.17-.07.23-.13a.26.26 0 0 0 .08-.2.26.26 0 0 0-.07-.18.55.55 0 0 0-.23-.13 3.9 3.9 0 0 0-.48-.14 2.32 2.32 0 0 1-.59-.2.38.38 0 0 1-.2-.35c0-.1.03-.19.1-.27a.69.69 0 0 1 .3-.2 1.45 1.45 0 0 1 1.04.03l.12.02.11-.02.02.01a5.44 5.44 0 0 1-.01.14.87.87 0 0 0 .07.35h-.1a2 2 0 0 0-.18-.27.71.71 0 0 0-.24-.2.77.77 0 0 0-.37-.07c-.1 0-.18.02-.26.04a.49.49 0 0 0-.2.12.26.26 0 0 0-.08.2c0 .06.02.13.05.17.04.05.11.1.21.13.1.04.26.08.47.13.2.05.37.1.5.15.12.05.2.11.26.18.05.07.08.15.08.24 0 .11-.04.2-.12.3a.86.86 0 0 1-.35.2c-.15.05-.32.07-.51.07Z" fill="#731615"/><defs><linearGradient id="ay34dlvhc" x1="28" y1="23.66" x2="28" y2="27" gradientUnits="userSpaceOnUse"><stop stop-color="#642E2E"/><stop offset="1" stop-color="#A24347"/></linearGradient><linearGradient id="by34dlvhc" x1="27.81" y1="23.58" x2="27.81" y2="25.86" gradientUnits="userSpaceOnUse"><stop stop-color="#5B1515"/><stop offset="1" stop-color="#80191C"/></linearGradient></defs></svg>