<!-- by TradeStack --><svg viewBox="0 0 56 56" xmlns="http://www.w3.org/2000/svg"><path fill="#F0F3FA" d="M0 0h56v56H0z"/><path d="M15.93 31.65a9.95 9.95 0 0 1-2.35-3.95c-.55-1.7-.7-3.42-.48-5.15a10.99 10.99 0 0 1 5.2-7.97c1.5-.9 3.15-1.41 4.96-1.55 1.72-.12 3.35.09 4.9.63a10.87 10.87 0 0 1 6.54 6.27c.6 1.54.85 3.19.75 4.94a11.02 11.02 0 0 1-3.13 7.07.17.17 0 0 1-.2.05 31.71 31.71 0 0 0-6-1.92c-.1-.02-.1-.05-.02-.1l.47-.23a5.97 5.97 0 0 0 3.33-4.04c.46-2.1.08-3.94-1.13-5.52a5.65 5.65 0 0 0-4.41-2.25 5.69 5.69 0 0 0-4.52 2.01 6.17 6.17 0 0 0-1.5 4.42 6.27 6.27 0 0 0 3.38 5.38c.07.05.07.07-.02.08-2.04.17-3.95.78-5.72 1.84l-.05-.01Z" fill="#163F90"/><path d="m40.65 34.62 2.33 5.26c.04.08.02.15-.05.2a10.75 10.75 0 0 1-7.61 1.83 20.07 20.07 0 0 1-3.83-.88c-.98-.31-2.25-.8-3.81-1.44a13.5 13.5 0 0 0-4.2-1.13c-1.56-.09-2.9.39-4.01 1.43-.04.03-.07.03-.1-.02l-2.3-5.2c-.04-.11-.02-.2.08-.26 3.2-2.06 6.98-2.29 11.33-.67l5.2 1.93c1.35.48 2.55.66 3.6.53a5.62 5.62 0 0 0 3.24-1.6c.06-.06.1-.05.13.02Z" fill="#00A9E3"/></svg>