<?xml version='1.0' encoding='utf-8'?>
<!-- by TradeStack -->
<svg width="56" height="56" viewBox="0 0 56 56" xmlns="http://www.w3.org/2000/svg"><path fill="#F0F3FA" d="M0 0h56v56H0z" /><path d="M4 23v6l2.5-3.47L10 23H4Z" fill="#F0B11D" /><path d="M4 23h48v10H4V23Zm1 1v8h46v-8H5Z" fill="#701113" /><path d="M30 31v-6h4v.65h-3.2v2.02h2.9v.65h-2.9V31H30ZM36.41 29.34V27H37v3.95h-.59v-.67h-.04c-.09.2-.23.37-.42.51-.19.14-.43.21-.71.21a1.12 1.12 0 0 1-1.08-.66c-.1-.22-.16-.5-.16-.83V27h.59v2.47c0 .29.08.52.23.69.16.17.36.25.6.25a.98.98 0 0 0 .83-.47c.11-.16.16-.36.16-.6ZM38.58 28.62V31H38v-3.95h.56v.62h.05c.1-.2.23-.36.4-.49.19-.12.42-.18.7-.18.26 0 .49.05.68.16.2.11.34.28.45.5.1.22.16.5.16.83V31h-.58v-2.47c0-.3-.08-.55-.23-.72a.8.8 0 0 0-.64-.26.98.98 0 0 0-.5.12.87.87 0 0 0-.34.37c-.08.16-.13.36-.13.59ZM43.92 31c-1.27 0-1.93-.83-1.93-1.99 0-1.16.67-2.01 1.94-2.01.6 0 1.03.28 1.35.76V25h.71v6h-.71v-.77c-.32.49-.76.77-1.36.77Zm.1-.62c.83 0 1.26-.37 1.26-1.38 0-.82-.36-1.4-1.27-1.4-.92 0-1.32.58-1.32 1.4 0 .81.4 1.38 1.32 1.38ZM49.72 27.84l-.53.15a1 1 0 0 0-.15-.26.76.76 0 0 0-.27-.2.96.96 0 0 0-.42-.1c-.24 0-.44.06-.6.17-.16.1-.23.25-.23.41 0 .15.05.27.16.35.1.09.27.16.5.22l.58.14c.35.08.6.2.78.38.17.17.25.4.25.66 0 .23-.06.42-.19.6-.12.17-.3.31-.53.41-.23.1-.5.15-.8.15-.4 0-.72-.08-.98-.26a1.14 1.14 0 0 1-.5-.75l.57-.14c.06.21.16.37.3.47.16.1.36.16.6.16.28 0 .5-.06.67-.18.16-.12.24-.26.24-.43a.45.45 0 0 0-.14-.34.92.92 0 0 0-.43-.2l-.65-.15a1.54 1.54 0 0 1-.79-.4.93.93 0 0 1-.24-.66c0-.22.06-.41.18-.58.12-.17.3-.3.5-.4.22-.1.47-.14.74-.14.39 0 .7.09.91.25.22.17.38.4.47.67Z" fill="#701113" /><path fill-rule="evenodd" d="M5 27.23V32h23v-8H8.69C6.65 24 5 25.45 5 27.23Zm4.08 3.55c.3-.15.53-.35.69-.6.15-.25.23-.54.23-.85a1.37 1.37 0 0 0-.56-1.16 2.2 2.2 0 0 0-.52-.28 4.5 4.5 0 0 0-.48-.17l-.56-.16c-.1-.03-.22-.06-.34-.11a1.8 1.8 0 0 1-.36-.18.9.9 0 0 1-.27-.28.73.73 0 0 1-.1-.4c0-.18.04-.35.15-.5.1-.14.24-.25.42-.34.19-.08.4-.12.65-.12.33 0 .62.08.85.24a.9.9 0 0 1 .4.67h.65c-.01-.3-.1-.56-.26-.8A1.7 1.7 0 0 0 9 25.2c-.28-.13-.6-.2-.95-.2-.36 0-.68.07-.96.2-.29.14-.52.33-.69.57-.16.25-.25.53-.25.86 0 .39.13.7.38.95.25.24.6.43 1.03.56l.68.2c.2.06.38.13.55.2.17.08.3.18.4.3.1.12.16.27.16.47a.9.9 0 0 1-.18.55c-.12.16-.28.28-.48.37-.2.09-.44.13-.7.13a1.8 1.8 0 0 1-.61-.1 1.13 1.13 0 0 1-.47-.32.92.92 0 0 1-.22-.54H6c.02.32.12.6.28.84.17.24.4.42.68.56.3.13.64.2 1.03.2.43 0 .8-.07 1.1-.22Zm6.54.22H15v-6h.62v6ZM14 29.19h-3.3c.02.25.07.48.18.66.12.2.28.35.5.46.2.1.46.16.74.16.18 0 .35-.03.5-.07.14-.04.27-.11.38-.2.1-.1.2-.2.25-.34l.68.16c-.07.2-.2.37-.36.52-.17.14-.37.26-.62.34-.25.08-.53.12-.83.12-.44 0-.82-.08-1.13-.25-.32-.16-.56-.4-.73-.7-.17-.29-.26-.64-.26-1.03 0-.4.09-.75.26-1.05.17-.3.4-.54.71-.71a2.48 2.48 0 0 1 1.78-.15c.23.06.44.17.63.32s.34.35.45.6c.11.24.17.54.17.9v.26Zm-1.95-1.57c.25 0 .46.05.64.14.18.1.32.22.42.38.1.17.15.35.15.56h-2.52c.01-.17.06-.33.15-.48.1-.18.26-.32.46-.43.2-.11.43-.17.7-.17Zm4.65 1.57H20v-.26c0-.36-.06-.66-.17-.9a1.56 1.56 0 0 0-.45-.6c-.2-.15-.4-.26-.63-.33a2.48 2.48 0 0 0-1.78.16c-.3.17-.54.4-.71.7-.17.31-.26.66-.26 1.06s.09.74.26 1.04c.17.3.41.53.73.7.31.16.69.24 1.13.24.3 0 .58-.04.83-.12.25-.08.45-.2.62-.34.17-.15.29-.32.36-.52l-.68-.16a.91.91 0 0 1-.25.34c-.1.09-.24.16-.38.2-.15.04-.32.07-.5.07-.28 0-.53-.06-.74-.16-.22-.1-.38-.26-.5-.46a1.4 1.4 0 0 1-.18-.66Zm2-1.43c-.19-.1-.4-.14-.65-.14-.27 0-.5.06-.7.17-.2.1-.35.25-.46.43a1.1 1.1 0 0 0-.15.48h2.52c0-.2-.05-.4-.15-.56-.1-.16-.24-.28-.42-.38Zm3.69 2.52c-.21-.12-.38-.3-.5-.52h.01a1.68 1.68 0 0 1-.17-.78c0-.29.06-.54.17-.76.12-.22.29-.39.5-.5.21-.13.46-.19.74-.19.32 0 .58.07.77.2.19.15.3.3.36.48H25a1.22 1.22 0 0 0-.32-.64 1.7 1.7 0 0 0-.65-.42c-.27-.1-.57-.15-.9-.15-.43 0-.8.09-1.12.26-.32.17-.57.4-.74.7-.18.3-.27.66-.27 1.04 0 .4.09.73.26 1.04.17.3.42.53.74.7.31.17.7.26 1.14.26.35 0 .65-.05.92-.16.26-.1.47-.25.63-.43.16-.19.27-.39.3-.62h-.72a.85.85 0 0 1-.23.36c-.1.1-.23.18-.39.24-.15.05-.32.08-.51.08-.29 0-.54-.07-.75-.19Zm3.61-.3v-2.46h-.56V27H26v-1h.57v1h.87v.52h-.87v2.28c0 .34.13.6.5.6l.3-.02v.55a1 1 0 0 1-1.38-.96Z" fill="#701113" /></svg>