<?xml version='1.0' encoding='utf-8'?>
<!-- by TradeStack -->
<svg width="56" height="56" viewBox="0 0 56 56" xmlns="http://www.w3.org/2000/svg"><path fill="#1BC392" d="M0 0h56v56H0z" /><path fill-rule="evenodd" d="M13 22H4v.69h1V33.3H4V34h10v-3.36h-1.03l-.74 2.67H8V22.7h3.67l.7 2.67H13V22Zm-2.54 5.83H8.08v.6h2.38l.32 1.58h.73V25.9h-.73l-.32 1.94Zm4.21-5.29V22h6.05v.54l-1.72.2v7.13c0 1.54 1.34 2.78 3 2.78 1.67 0 3-1.24 3-2.78v-7.14l-1.97-.19V22h4.58v.54l-1.61.2v6.8C26 32 23.63 34 20.96 34 18.28 34 16 32 16 29.53v-6.8l-1.33-.19Zm13.9-.54v.46l1.43.25v10.6l-1.44.14V34h6.14c1.52 0 4.57-.72 4.57-3.6 0-2.08-2.59-2.76-3.88-2.84 1.05-.1 3.15-.85 3.15-3.07 0-2.22-2.68-2.49-4.2-2.49h-5.78Zm4.43.5v4.9h.87c1.17 0 2.13-.97 2.13-2.15v-.6c0-1.2-.96-2.15-2.13-2.15H33Zm0 5.5v5.5h1.01a2.45 2.45 0 0 0 2.49-2.4v-.7c0-1.32-1.11-2.4-2.49-2.4H33Zm16.08-2H50v-3.18a8.07 8.07 0 0 0-3.43-.82C44.62 22 40 23.07 40 28.08c0 5 4.88 5.92 6.57 5.92 1.68 0 3.92-.66 4.43-.99v-4.23l1-.16V28h-6v.62l2 .16v4.47c-1.64.48-5 .04-5-5.6 0-5.07 3.48-5.33 5.25-4.83l.83 3.18Z" fill="#fff" /></svg>