<!-- by TradeStack --><svg width="56" height="56" viewBox="0 0 56 56" xmlns="http://www.w3.org/2000/svg"><path fill="#F0F3FA" d="M0 0h56v56H0z"/><path d="M15 41c10.4-1.6 16.67 1.33 18.5 3h.5c-.8-2-4.33-4.17-6-5l3-1v-2l-9-1 8.5-4-6.5-.5 7-3.5-5.5-1 6.5-2h5.5L35 26.5l6 1.5-2.5 2H41l3-2.5-2-1.5h-2.5l2.5-1.5-2-2.5-8-1 4-1 1.5-2L26 16l-8 2.5 9 1.5-10 1-2 2 12 .5-9 1.5-3 3h9.5L14 30l-2 2 11 .5L13 34l-1 2.5 12 1-9 1V41Z" fill="url(#aphbg440v)"/><path d="M31.5 36 13 38.5c.8 1.2 1.67 2.17 2 2.5l17.5-2.5c-.4-.8-.83-2-1-2.5Z" fill="url(#bphbg440v)"/><path d="M12.5 34c-.4.8-.5 2-.5 2.5 3.2.4 14-1.83 19-3-.4-1.2-.5-2.17-.5-2.5l-18 3Z" fill="url(#cphbg440v)"/><path d="M13 30c-.4.4-.83 1.5-1 2 4.4.4 14.17-1.5 18.5-2.5L31 27l-18 3Z" fill="url(#dphbg440v)"/><path d="M17 24.5 14 28c1.2.4 19.5-2.17 28.5-3.5l-2-3-23.5 3Z" fill="url(#ephbg440v)"/><path d="M16 20c-.8.8-1 2.33-1 3 2.8.4 17.5-1.5 24.5-2.5l-2-2.5L16 20Z" fill="url(#fphbg440v)"/><path d="m19.5 17.5-1.5 1c2.8.4 13.17-1.5 18-2.5-1.2-1.2-1.83-1.5-2-1.5.8-.8 1-2.67 1-3.5a3.7 3.7 0 0 1-1.5 1.5A3.7 3.7 0 0 0 32 14h-1a5 5 0 0 1 .5-2c.4-.8-.17-1.67-.5-2-.5 1-.5 1-1.5 2-.8.8-1 2-1 2.5-.8-.4-1.33-.5-1.5-.5-2 0-4.5 2-5.5 2-.8 0-2-.67-2.5-1-.4 1.2.17 2.17.5 2.5Z" fill="url(#gphbg440v)"/><path d="m43 25-8 1.5c.8.4 2 1.5 2.5 2l6.5-1-1-2.5Z" fill="url(#hphbg440v)"/><path d="m44 29-5.5 1c1 .5 1.5.5 3 .5 1.2 0 2.17-1 2.5-1.5Z" fill="url(#iphbg440v)"/><defs><linearGradient id="aphbg440v" x1="13" y1="31.5" x2="44" y2="31.5" gradientUnits="userSpaceOnUse"><stop stop-color="#7A7987"/><stop offset=".6" stop-color="#B9B9BB"/><stop offset=".8" stop-color="#6E6C6D"/><stop offset="1" stop-color="#B4B4B4"/></linearGradient><linearGradient id="bphbg440v" x1="13.61" y1="38.77" x2="32.5" y2="38.77" gradientUnits="userSpaceOnUse"><stop stop-color="#F8A73B"/><stop offset="1" stop-color="#F55B37"/></linearGradient><linearGradient id="cphbg440v" x1="13.61" y1="38.77" x2="32.5" y2="38.77" gradientUnits="userSpaceOnUse"><stop stop-color="#F8A73B"/><stop offset="1" stop-color="#F55B37"/></linearGradient><linearGradient id="dphbg440v" x1="13.61" y1="38.77" x2="32.5" y2="38.77" gradientUnits="userSpaceOnUse"><stop stop-color="#F8A73B"/><stop offset="1" stop-color="#F55B37"/></linearGradient><linearGradient id="ephbg440v" x1="16.24" y1="25.17" x2="42.5" y2="25.17" gradientUnits="userSpaceOnUse"><stop stop-color="#FCAD48"/><stop offset="1" stop-color="#EF672D"/></linearGradient><linearGradient id="fphbg440v" x1="16.24" y1="25.17" x2="42.5" y2="25.17" gradientUnits="userSpaceOnUse"><stop stop-color="#FCAD48"/><stop offset="1" stop-color="#EF672D"/></linearGradient><linearGradient id="gphbg440v" x1="16.24" y1="25.17" x2="42.5" y2="25.17" gradientUnits="userSpaceOnUse"><stop stop-color="#FCAD48"/><stop offset="1" stop-color="#EF672D"/></linearGradient><linearGradient id="hphbg440v" x1="36.5" y1="29" x2="44" y2="28" gradientUnits="userSpaceOnUse"><stop stop-color="#F89D44"/><stop offset="1" stop-color="#F76637"/></linearGradient><linearGradient id="iphbg440v" x1="36.5" y1="29" x2="44" y2="28" gradientUnits="userSpaceOnUse"><stop stop-color="#F89D44"/><stop offset="1" stop-color="#F76637"/></linearGradient></defs></svg>