<!-- by TradeStack --><svg width="56" height="56" viewBox="0 0 56 56" xmlns="http://www.w3.org/2000/svg"><path fill="#F0F3FA" d="M0 0h56v56H0z"/><path fill-rule="evenodd" d="M8 27v-6h3.34v.91H9v1.63h2.16v.91H9v1.64h2.36V27H8Zm6.3-1.28L12.97 21h-1.02l1.8 6h1.15l1.81-6h-1.02l-1.33 4.72h-.06ZM21.7 24c0 .63-.11 1.17-.32 1.62-.2.44-.48.79-.84 1.02-.35.24-.75.36-1.2.36-.45 0-.86-.12-1.21-.36a2.45 2.45 0 0 1-.84-1.03c-.2-.44-.31-.98-.31-1.61 0-.63.1-1.17.3-1.61.21-.45.5-.8.85-1.03.35-.24.76-.36 1.2-.36.46 0 .86.12 1.21.36.36.23.64.58.84 1.03.2.44.31.98.31 1.61Zm-.94 0c0-.44-.06-.82-.18-1.12-.12-.3-.3-.54-.5-.7a1.21 1.21 0 0 0-.74-.23c-.28 0-.53.08-.74.24-.22.15-.38.38-.5.69-.13.3-.19.68-.19 1.12 0 .44.06.82.18 1.12.13.3.3.54.5.7.22.15.47.23.75.23.27 0 .52-.08.73-.23.22-.16.39-.4.5-.7.13-.3.19-.68.19-1.12ZM23 27h3v-1h-2v-5h-1v6Zm7-6h1v3.86c0 1.18-.78 2.14-2 2.14s-2-.96-2-2.14V21h1v3.77c0 .66.3 1.23 1 1.23.71 0 1-.57 1-1.23V21Zm1.5 0v1H33v5h1v-5h1.5v-1h-4Zm5.5 0v6h-1v-6h1Zm3.5 6c1.65 0 2.5-1.5 2.5-3s-.85-3-2.5-3c-1.66 0-2.5 1.5-2.5 3s.85 3 2.5 3Zm0-5.05c1.1 0 1.5 1.11 1.5 2.05 0 .94-.4 2.05-1.5 2.05S39 24.95 39 24c0-.94.4-2.05 1.5-2.05ZM47.12 27H48v-6h-1v4.09h-.03L44.39 21h-.89v6h1v-4.09h.04L47.12 27ZM5 35v-6h2.05c.39 0 .71.07.97.2.26.14.45.32.58.56.13.23.2.5.2.8 0 .24-.05.45-.14.62-.08.17-.2.31-.33.42-.14.1-.3.19-.48.23v.06c.2.01.38.08.55.2.18.12.32.28.43.5.11.21.17.47.17.78 0 .3-.07.59-.2.83-.14.25-.34.44-.6.59-.28.14-.62.21-1.03.21H5Zm1-.9h1.02c.35 0 .6-.08.76-.23a.78.78 0 0 0 .23-.59.98.98 0 0 0-.11-.48.85.85 0 0 0-.34-.34 1.02 1.02 0 0 0-.52-.13H6v1.76Zm0-2.55h.93c.17 0 .32-.03.45-.1a.8.8 0 0 0 .32-.3.86.86 0 0 0 .12-.45.79.79 0 0 0-.22-.58c-.15-.15-.36-.22-.65-.22H6v1.65ZM10 29v6h3v-.91h-2V29h-1Zm8 3c0 1.42-.73 3-2.35 3-.45 0-.85-.12-1.2-.36a2.45 2.45 0 0 1-.84-1.03c-.2-.44-.31-.98-.31-1.61 0-.63.1-1.17.3-1.61.21-.45.5-.8.85-1.03.35-.24.75-.36 1.2-.36 1.62 0 2.35 1.58 2.35 3Zm-1 0c0-.89-.27-2.05-1.35-2.05-.28 0-.52.08-.74.24-.21.15-.38.38-.5.69-.12.3-.18.68-.18 1.12 0 .44.06.82.18 1.12.12.3.29.54.5.7.22.15.46.23.74.23 1.08 0 1.35-1.16 1.35-2.05Zm5.58-1h.95a2.32 2.32 0 0 0-.24-.82 2.1 2.1 0 0 0-1.15-1.04c-.25-.1-.52-.14-.8-.14-1.63 0-2.39 1.56-2.39 3s.75 3 2.38 3c1.17 0 2.06-.86 2.2-2h-.95a1.21 1.21 0 0 1-1.24 1.05C20.27 34.05 20 32.91 20 32c0-.9.27-2.05 1.35-2.05.16 0 .3.02.44.07s.27.12.37.22c.11.1.2.2.27.35.08.13.13.24.15.41ZM25 35h-1v-6h1v2.76L27.04 29h1.15l-2 2.7L28.2 35h-1.13l-1.55-2.57-.52.78V35Zm7.03-3.95H33a2.56 2.56 0 0 0-.26-.87 2.1 2.1 0 0 0-1.17-1.04 2.44 2.44 0 0 0-2.08.22c-.37.23-.66.58-.87 1.03-.21.44-.32.98-.32 1.61 0 .63.1 1.17.32 1.61A2.26 2.26 0 0 0 30.74 35a2.14 2.14 0 0 0 2.02-1.23c.12-.25.2-.5.24-.78h-.97c-.03.16-.09.31-.17.45a1.19 1.19 0 0 1-.66.54 1.42 1.42 0 0 1-1.21-.16c-.22-.16-.4-.39-.53-.7-.13-.3-.19-.67-.19-1.12 0-.44.06-.81.2-1.11.12-.31.3-.54.52-.7.22-.16.48-.24.77-.24.16 0 .31.02.45.07a1.13 1.13 0 0 1 .66.57c.08.13.13.29.16.46ZM35 35h-1v-6h1v2.54h2.51V29h.99v6h-.99v-2.55H35V35Zm3.73 0h1.01l.43-1.48h1.95l.44 1.48h1l-1.83-6h-1.16l-1.84 6Zm3.14-2.35-.7-2.42h-.04l-.7 2.42h1.44ZM44 29h1v6h-1v-6Zm6 0h1v6h-.88l-2.58-4.09h-.05V35h-.99v-6h.89l2.58 4.09H50V29Z"/></svg>