<?xml version='1.0' encoding='utf-8'?>
<!-- by TradeStack -->
<svg width="56" height="56" viewBox="0 0 56 56" xmlns="http://www.w3.org/2000/svg"><path fill="#F0F3FA" d="M0 0h56v56H0z" /><path d="M30 24h-1.18l-.01.01V31l.01.01H30l.01-.01V24ZM33.52 26.69v-2.66c0-.02 0-.03.03-.03h1.14c.02 0 .03.01.03.03v6.95c0 .02-.01.02-.03.02h-1.15a.02.02 0 0 1-.01 0l-.01-.01v-.67l-.01-.01h-.02c-.71.92-2.05.9-2.79.04-.55-.65-.65-1.74-.5-2.58.21-1.08 1.02-1.87 2.1-1.76a1.66 1.66 0 0 1 1.2.7h.01v-.01l.01-.01Zm-1.5 3.09c.52.24 1.11.05 1.49-.4l.01-.04v-1.66l-.01-.04c-.21-.28-.49-.44-.82-.5-1.47-.25-1.78 2.11-.67 2.64Z" fill="#D0A152" /><path d="M5.25 29c.1.58.48.87 1.03.96.53.1 1.01-.05 1.45-.42h.03l.5.78v.04c-.6.52-1.41.7-2.18.62C4.85 30.84 4 29.87 4 28.55c-.01-1.36.89-2.5 2.22-2.55 1.6-.05 2.44 1.44 2.34 3H5.25Zm-.04-1h2.23c0-.57-.56-.99-1.1-.98H6.3c-.43 0-.85.27-1 .65-.06.12-.1.2-.1.33ZM13.45 29c.1.58.48.87 1.04.96.52.1 1-.05 1.44-.42h.03l.5.78v.04c-.6.52-1.41.7-2.18.62-1.23-.14-2.07-1.11-2.08-2.43-.01-1.36.9-2.5 2.22-2.55 1.6-.05 2.44 1.44 2.34 3h-3.31Zm-.04-1h2.23c0-.57-.56-.99-1.1-.98h-.03c-.43 0-.84.27-1 .65-.06.12-.1.2-.1.33Z" fill="#59622B" /><path d="M19.83 27.28c.18-.57.81-1.09 1.1-1.18.74-.24 1.36-.04 1.87.61.02.02.02.02.02 0v-.55c0-.02 0-.03.02-.03h1.08a1155.5 1155.5 0 0 1 0 5.02 1.94 1.94 0 0 1-1.5 1.75c-.53.14-1.07.13-1.6-.01-.36-.1-.7-.3-.99-.61v-.04l.47-.88c0-.02.02-.02.03 0 .34.37.73.57 1.19.58.63.02 1.24-.24 1.29-1.08a17.37 17.37 0 0 0-.01-.6c-.12.14-.25.3-.4.4-.5.38-1.06.43-1.64.16-1.17-.55-1.31-2.36-.93-3.54Zm.97 1.4c.12 1.3 1.33 1.53 2 .65a.08.08 0 0 0 .02-.04v-1.56c0-.02 0-.03-.02-.04-.28-.43-.8-.62-1.24-.49-.6.19-.82.84-.76 1.49ZM24.14 27.85c.27-1.18 1.14-1.86 2.28-1.85.66 0 1.2.25 1.62.71.81.9.85 2.45.13 3.42-.41.54-.97.83-1.68.87-1.03.05-1.9-.5-2.27-1.55a2.89 2.89 0 0 1-.08-1.6Zm2.34-.73c-1.1-.11-1.5 1.29-1.04 2.18.37.7 1.3.79 1.77.15.54-.76.29-2.21-.73-2.33Z" fill="#D0A152" /><path d="M37.36 27.14c-1.54-.18-1.85 2.22-.55 2.67.5.18 1.02.03 1.35-.42h.04l.73.72c.01.02.02.03 0 .04-.57.77-1.44.97-2.34.78-1.25-.26-1.94-1.48-1.79-2.8a2.38 2.38 0 0 1 3.39-1.91c.3.13.54.35.74.64v.04l-.74.72h-.03a1.1 1.1 0 0 0-.8-.48Z" fill="#59622B" /><path d="M43.25 28.4c.04 1.19-.58 2.22-1.65 2.51a2.25 2.25 0 0 1-2.58-.98c-.57-.96-.5-2.34.23-3.18.44-.5 1-.75 1.7-.75 1.3 0 2.26.96 2.3 2.4Zm-1.66-1.06a1.02 1.02 0 0 0-1.54.29c-.37.64-.29 1.75.4 2.12.35.2.8.16 1.11-.08.67-.5.65-1.81.03-2.33ZM47.4 30.34V33H46.26v-.01l-.01-6.85c0-.01 0-.02.02-.02h1.1c.02 0 .03 0 .03.03v.52c0 .03 0 .03.02.01.23-.28.5-.5.84-.6.7-.22 1.46.03 1.91.65.44.6.55 1.45.46 2.22-.12 1.12-.76 2.04-1.86 2.05-.55 0-.98-.22-1.34-.67-.02-.03-.03-.02-.03.01Zm.01-.99c.69.88 1.95.6 2.05-.64.04-.5-.04-.96-.38-1.3-.47-.47-1.26-.35-1.67.22a.08.08 0 0 0-.01.05v1.63l.01.04ZM19.63 27.22v.04c-.5-.08-1.09.07-1.42.5l-.01.05v3.16c0 .02-.01.03-.03.03h-1.15c-.01 0-.02 0-.02-.02v-4.95c0-.02 0-.03.02-.03h1.14c.02 0 .03 0 .03.03l-.01.7c0 .03 0 .03.02.01l.26-.24c.3-.28.68-.44 1.11-.5.05 0 .07.02.07.06v1.16ZM44.57 26.73a1.9 1.9 0 0 1 1.4-.73c.02 0 .03 0 .03.03v1.2c0 .02-.01.02-.03.02-.47-.08-1.08.07-1.4.5v3.22c0 .02-.01.03-.03.03h-1.15c-.01 0-.02 0-.02-.03v-4.94c0-.02 0-.03.02-.03h1.14c.01 0 .02 0 .02.02v.7c0 .03 0 .03.02.01ZM11.5 26h1.21a.02.02 0 0 1 0 .02L10.99 31l-.02.01H9.74v-.01L8 26.02a.02.02 0 0 1 0-.01h.01V26h1.22v.01l1.11 3.4v.02a.01.01 0 0 0 .02 0l.01-.01 1.11-3.4V26h.01ZM51.27 31a.73.73 0 1 0 0-1.46.73.73 0 0 0 0 1.46Z" fill="#59622B" /></svg>