<!-- by TradeStack --><svg width="56" height="56" viewBox="0 0 56 56" fill="none" xmlns="http://www.w3.org/2000/svg">
<rect width="56" height="56" fill="#F0F3FA"/>
<path d="M19.9068 37.9066C21.1384 35.94 22.3613 33.969 23.5756 31.9937C24.4992 30.492 27.0648 31.2777 26.8231 33.0725C26.7892 33.3253 26.647 33.6548 26.3963 34.0609C24.777 36.6901 23.1476 39.3134 21.508 41.931C20.6532 43.2964 19.113 43.4021 18.2334 41.968C15.6468 37.7471 13.0677 33.5222 10.4962 29.2933C9.98468 28.4531 9.78594 27.9202 10.302 27.0833C12.9571 22.7738 15.6171 18.4667 18.2819 14.1623C18.7449 13.4147 19.1864 13.005 20.0762 13.0039C22.7659 13.0003 25.4568 12.9992 28.1488 13.0006C29.7443 13.0006 30.502 14.4413 29.6969 15.7348C27.0252 20.0283 24.3457 24.3168 21.6582 28.6002C21.1614 29.3925 20.7752 29.9014 19.8594 29.9144C18.7426 29.9297 17.9579 29.0187 18.1543 27.9605C18.2033 27.6975 18.3474 27.3739 18.5868 26.9896L25.4209 16H21.3002C21.3002 16 15.4127 25.4567 14.209 27.4146C14.0102 27.7382 13.781 28.0412 13.9752 28.3605C15.9159 31.5498 17.8694 34.7318 19.8357 37.9066C19.8598 37.9443 19.8835 37.9443 19.9068 37.9066Z" fill="url(#paint0_linear_229_5606)"/>
<path d="M36.272 18.0966C36.2328 18.1286 36.1993 18.1671 36.1715 18.2121C33.9522 21.8337 31.73 25.4545 29.5048 29.0746C28.5337 30.6537 25.9411 29.8974 26.2448 28.0012C26.2847 27.7528 26.4127 27.4531 26.6287 27.1022C29.3373 22.6931 32.0481 18.2859 34.7611 13.8804C35.1179 13.2999 35.634 13.0101 36.3092 13.0108C37.2216 13.0108 37.6247 13.5295 38.0877 14.3C40.4379 18.2049 42.7829 22.113 45.1225 26.0244C45.6096 26.8388 45.8738 27.3158 45.9152 27.4553C46.1704 28.3031 45.8125 28.8065 45.3224 29.6772C43.052 33.7115 40.7763 37.742 38.4953 41.769C38.268 42.1707 38.052 42.4497 37.8472 42.6059C36.6288 43.5311 34.8571 42.5558 35.0671 41.0628C35.1055 40.7918 35.22 40.4882 35.4104 40.1518C37.6673 36.1597 39.9204 32.1655 42.1697 28.1691C42.2804 27.9729 42.1404 27.8051 42.0342 27.6318C41.4613 26.6866 40.8915 25.7375 40.3246 24.7843C40.3218 24.7795 40.3176 24.7755 40.3126 24.7728C40.3076 24.7701 40.3019 24.7687 40.2961 24.7689C40.2902 24.769 40.2845 24.7706 40.2794 24.7735C40.2743 24.7764 40.27 24.7805 40.267 24.7854C36.9073 30.4375 33.5506 36.0933 30.197 41.7526C29.778 42.4588 29.3354 42.9219 28.5201 42.9873C27.4621 43.0712 26.5632 42.0414 26.727 41.0519C26.7639 40.8245 26.946 40.4348 27.2735 39.8826C30.9253 33.7278 34.5778 27.5711 38.2311 21.4127C38.2407 21.3964 38.2458 21.378 38.2458 21.3593C38.2458 21.3406 38.2407 21.3222 38.2311 21.3059L36.325 18.1053C36.3225 18.101 36.319 18.0973 36.3147 18.0945C36.3105 18.0917 36.3057 18.0898 36.3006 18.089C36.2956 18.0881 36.2904 18.0884 36.2854 18.0897C36.2805 18.091 36.2759 18.0934 36.272 18.0966Z" fill="url(#paint1_linear_229_5606)"/>
<defs>
<linearGradient id="paint0_linear_229_5606" x1="10" y1="26.9432" x2="28.5101" y2="26.7736" gradientUnits="userSpaceOnUse">
<stop stop-color="#697B30"/>
<stop offset="0.751154" stop-color="#70962F"/>
<stop offset="1" stop-color="#74A52E"/>
</linearGradient>
<linearGradient id="paint1_linear_229_5606" x1="40.7829" y1="19.2055" x2="30.2268" y2="37.3822" gradientUnits="userSpaceOnUse">
<stop stop-color="#C1C3C5"/>
<stop offset="0.439075" stop-color="#9D9FA1"/>
<stop offset="1" stop-color="#6E7073"/>
</linearGradient>
</defs>
</svg>
