<?xml version='1.0' encoding='utf-8'?>
<!-- by TradeStack -->
<svg width="56" height="56" viewBox="0 0 56 56" xmlns="http://www.w3.org/2000/svg"><path fill="#841910" d="M0 0h56v56H0z" /><path d="M5 33h8.22l.7-2.67h-.45c-.19.44-.38.79-.57 1.05a2.3 2.3 0 0 1-1.64.96c-.37.05-.82.08-1.36.08h-.43c-.37 0-.57-.01-.85-.04a1.53 1.53 0 0 1-.5-.13.3.3 0 0 1-.1-.16 1.7 1.7 0 0 1-.02-.35v-4.12h2.2c.32 0 .58.02.78.06.2.04.35.11.46.22.12.1.2.25.27.46.06.19.12.45.17.78h.36v-3.66h-.36c-.05.32-.1.58-.17.78a1 1 0 0 1-.28.45.96.96 0 0 1-.47.21c-.2.04-.45.08-.76.08H8v-3.88c0-.23.03-.37.09-.44.07-.06.2-.1.41-.1h1.84c.43 0 .77.02 1.04.06.28.04.5.12.65.23.17.12.3.3.39.52.09.2.17.5.24.85H13V22H5v.3c.28.01.62.05.8.1.17.04.3.11.4.21.1.1.17.24.2.42.03.17.05.4.05.67v7.6c0 .28-.02.5-.06.68a.82.82 0 0 1-.2.41.78.78 0 0 1-.4.22c-.17.05-.51.08-.79.1V33Zm16.08-6.7c.08-.02.17-.04.29-.05V26h-2.1v.25c.45.04.69.2.69.5 0 .07 0 .15-.02.23 0 .09-.03.17-.06.24l-1.51 3.76-1.55-3.7a2.67 2.67 0 0 1-.1-.32l-.03-.3c0-.12.05-.22.14-.28.11-.07.29-.1.54-.13V26h-2.98v.25c.15.01.28.03.38.07.1.04.19.12.28.24.1.12.2.3.3.54l.43.96 1.83 4.2.06.2.06.13c.04.15.09.26.13.31.05.07.1.1.15.1.04 0 .1-.06.16-.18.06-.11.15-.3.26-.6l1.95-4.74c.1-.26.2-.48.27-.63.08-.17.15-.3.21-.38a.56.56 0 0 1 .22-.16Zm7.1 4c-.63 1.73-1.74 2.7-3.22 2.7-1.61 0-2.86-1.5-2.86-3.1 0-2.5 1.12-3.92 3.2-3.92 1.68 0 2.39 1.58 2.6 3.02H23.2c.03 1.98.84 2.85 2.38 2.85.48 0 .9-.12 1.26-.37a4.1 4.1 0 0 0 1.1-1.27l.24.1Zm-1.83-1.94a2.86 2.86 0 0 0-.48-1.4c-.22-.28-.56-.41-1.02-.41-.47 0-.84.14-1.1.43-.26.28-.43.74-.51 1.38h3.1Zm2.93-1.73-.61.22v.24a2.27 2.27 0 0 1 .53-.07c.19 0 .32.07.4.22.08.14.12.38.12.73v3.7c0 .2-.01.36-.04.49a.48.48 0 0 1-.15.29.88.88 0 0 1-.33.2 5 5 0 0 1-.57.13V33h3.67v-.22c-.26-.01-.47-.04-.64-.08-.17-.05-.3-.11-.4-.2a.7.7 0 0 1-.2-.36 2.41 2.41 0 0 1-.06-.55v-3.31c0-.13.04-.27.1-.42.08-.14.17-.28.28-.41l.09-.13c.05-.07.1-.14.17-.19A.6.6 0 0 1 32 27c.04 0 .1.02.17.06.07.03.15.09.23.16.12.13.23.22.32.27.1.03.2.05.3.05.17 0 .31-.06.42-.18.1-.13.16-.3.16-.54a.8.8 0 0 0-.23-.6.81.81 0 0 0-.61-.23c-.16 0-.31.03-.45.07-.14.05-.28.13-.42.25a2.61 2.61 0 0 0-.68.83l-.2.33v-1.45l-.1-.03a79.82 79.82 0 0 0-1.09.45l-.53.2Zm10.57 3.88c-.13.25-.24.47-.35.65-.56 1-1.45 1.84-2.67 1.84-1.6 0-2.88-1.7-2.88-3.25 0-2.27 1.26-3.75 3.34-3.75.92 0 2.34.48 2.34 1.61 0 .19-.07.35-.21.49-.13.14-.3.2-.5.2a.59.59 0 0 1-.45-.2 1.33 1.33 0 0 1-.28-.55l-.1-.35c-.06-.3-.16-.5-.3-.6-.12-.1-.32-.15-.6-.15-1.44 0-2.07 1.54-2.07 2.8 0 1.72 1.05 2.6 2.35 2.6a2 2 0 0 0 1.14-.31c.32-.22.66-.61 1.02-1.16l.22.13Zm8.35-7.98-.7.16v.26h.1l.23-.01.24-.01c.24 0 .4.07.5.2.1.13.14.38.14.75v7.74c0 .21-.02.39-.05.52a.67.67 0 0 1-.17.35.9.9 0 0 1-.37.2l-.58.09V33H51v-.22c-.2-.02-.3-.04-.41-.07l-.06-.01a.77.77 0 0 1-.34-.17.63.63 0 0 1-.16-.32 3.05 3.05 0 0 1-.03-.54v-9.63l-.07-.04a10.08 10.08 0 0 1-1.12.36l-.6.17ZM43.64 33c1.49 0 2.6-.97 3.23-2.7l-.24-.1a4.1 4.1 0 0 1-1.1 1.28c-.35.25-.77.37-1.26.37-1.54 0-2.35-.87-2.37-2.85h4.68c-.2-1.44-.91-3.02-2.6-3.02-2.07 0-3.2 1.42-3.2 3.93 0 1.6 1.25 3.09 2.86 3.09Zm.91-6.05c.22.26.38.73.48 1.41h-3.1c.07-.64.24-1.1.5-1.38.27-.29.64-.43 1.1-.43.47 0 .8.13 1.02.4Z" fill="#fff" /></svg>