<?xml version='1.0' encoding='utf-8'?>
<!-- by TradeStack -->
<svg width="56" height="56" viewBox="0 0 56 56" xmlns="http://www.w3.org/2000/svg"><path fill="#F0F3FA" d="M0 0h56v56H0z" /><path fill="#E20613" d="M38 29v-7h2v7z" /><path fill="#5FBFED" d="M50 27v7h-2v-7z" /><path fill="#93C01F" d="M6 22h12v2H6z" /><path fill="#5C2482" d="M50 32H38v2h12z" /><path fill="#D4112A" d="M38 27h12v2H38z" /><path fill="#7F5BA1" d="M45 27h5v2h-5z" /><path fill="#E26CA5" d="M40 27h8v2h-8z" /><path fill="#941B80" d="M48 32H38v2h10z" /><path fill="#F29100" d="M6 27h12v2H6z" /><path fill="#D4112A" d="M38 22h12v2H38z" /><path fill="#F29100" d="M50 22H40v2h10z" /><path fill="#0069B3" d="M6 32h12v2H6z" /><path d="M22.8 22H20l6.57 12h2.84l-6.6-12Z" fill="#5FBFED" /><path d="M29.4 34h-2.8l6.56-12H36l-6.6 12Z" fill="#9878B3" /><path d="M29.4 34 28 31.43 26.57 34h2.84Z" fill="#575EA5" /></svg>