<!-- by TradeStack --><svg width="56" height="56" viewBox="0 0 56 56" xmlns="http://www.w3.org/2000/svg"><path fill="#181B1E" d="M0 0h56v56H0z"/><path d="M43.85 30c.39-.75 1.15-3.02 1.15-5.03C45 22.47 43.38 14 30.87 14 18.35 14 11 24.3 11 31.74 11 39.18 18.4 42 26.28 42c7.87 0 13.71-3.2 16.43-9h-9.44c-.92 1.1-3.61 3-7 3-4.21 0-7.27-2-7.27-5.08 0-.26.02-.58.07-.92h24.78ZM30.87 19c3.52 0 5.73 2.64 6.09 6H20.84c1.77-3.07 4.93-6 10.03-6Z" fill="url(#awnfaxwbb)"/><defs><linearGradient id="awnfaxwbb" x1="43.75" y1="20" x2="11.27" y2="36.33" gradientUnits="userSpaceOnUse"><stop offset=".07" stop-color="#FFF795"/><stop offset=".17" stop-color="#FFF441"/><stop offset=".69" stop-color="#FFF200"/><stop offset=".89" stop-color="#FFF795"/></linearGradient></defs></svg>