<!-- by TradeStack --><svg width="56" height="56" viewBox="0 0 56 56" xmlns="http://www.w3.org/2000/svg"><path fill="#F0F3FA" d="M0 0h56v56H0z"/><path fill-rule="evenodd" d="M13.98 15.76a4.75 4.75 0 0 0-4.75 4.75V35.5a4.75 4.75 0 0 0 4.75 4.75h28.04a4.75 4.75 0 0 0 4.75-4.75v-15a4.75 4.75 0 0 0-4.75-4.75H13.98ZM28 39.02c9.39 0 17-4.93 17-11 0-6.08-7.61-11-17-11s-17 4.92-17 11c0 6.07 7.61 11 17 11Z" fill="#F8C800"/><path fill-rule="evenodd" d="M14.29 15A5.35 5.35 0 0 0 9 20.41v15.18A5.35 5.35 0 0 0 14.29 41H41.7a5.35 5.35 0 0 0 5.3-5.41V20.41A5.35 5.35 0 0 0 41.71 15H14.3Zm.26 1A4.6 4.6 0 0 0 10 20.66v14.68A4.6 4.6 0 0 0 14.55 40h26.9A4.6 4.6 0 0 0 46 35.34V20.66A4.6 4.6 0 0 0 41.45 16h-26.9Z" fill="#815700"/><path d="M44.5 28c0 5.8-7.39 10.5-16.5 10.5S11.5 33.8 11.5 28 18.89 17.5 28 17.5 44.5 22.2 44.5 28Z" fill="#005FF8"/><path fill-rule="evenodd" d="M38.04 35.23a11.07 11.07 0 0 0 2.71-2.8c-.77-.15-1.7-.31-2.8-.45a10.61 10.61 0 0 1-2.17 3.32c.55.17 1.02.34 1.42.5.29-.18.57-.37.84-.57Zm4.86-2.25c-.37-.13-.97-.3-1.8-.48a11.7 11.7 0 0 1-3.53 3.46c.35.16.62.31.8.44l-.19.27c-.2-.13-.52-.3-.95-.5-1.07.66-2.27 1.2-3.57 1.6l.25.15-.22.32a3.53 3.53 0 0 0-.6-.3 19.11 19.11 0 0 1-10.23-.03c-.36.13-.62.25-.8.34l-.18-.34.37-.18a15.98 15.98 0 0 1-3.55-1.62c-.41.15-.73.3-.95.41l-.16-.29c.18-.1.44-.22.76-.35a11.66 11.66 0 0 1-3.38-3.33c-.82.16-1.45.32-1.87.44l-.08-.38c.4-.11.98-.25 1.74-.4a8.25 8.25 0 0 1-1.18-4.12h-2.4v-.34h2.4a8.25 8.25 0 0 1 1.1-3.83 20.4 20.4 0 0 1-1.83-.37l.09-.32a30 30 0 0 0 1.93.38 11.6 11.6 0 0 1 3.56-3.55 7.92 7.92 0 0 1-.75-.35l.16-.3c.23.12.55.27.95.43 1.2-.74 2.58-1.33 4.07-1.75 1.6-.46 3.34-.7 5.16-.7 3.52 0 6.74.92 9.25 2.46.35-.17.62-.31.8-.44l.2.29c-.17.1-.38.23-.66.36a11.9 11.9 0 0 1 3.59 3.58c.82-.15 1.42-.3 1.78-.4l.1.31c-.36.11-.93.25-1.7.4a8.24 8.24 0 0 1 1.08 3.8h2.3v.34h-2.3a8.24 8.24 0 0 1-1.15 4.07c.77.17 1.34.33 1.7.46l-.1.36Zm-27.8-.84a7.95 7.95 0 0 1-1.19-4.05h3.42c0 1.26.24 2.47.66 3.6-1.12.14-2.08.3-2.88.45Zm3.23-.5c-.42-1.1-.66-2.3-.67-3.55h4.65c0 1.1.1 2.15.27 3.14-1.58.11-3 .25-4.25.41Zm-.66-3.89h4.64c.02-1.04.11-2.05.27-3a87 87 0 0 1-4.27-.34 10.01 10.01 0 0 0-.64 3.34Zm5.25 3.46a18.3 18.3 0 0 1-.27-3.12h5.18v2.95c-1.77.01-3.41.08-4.91.17Zm5.24.21a109.82 109.82 0 0 1 4.9.12c-.2 1.1-.51 2.1-.9 2.98a28 28 0 0 0-4-.27v-2.83Zm-.33 0v2.84c-1.41.02-2.74.13-3.94.3-.38-.88-.69-1.88-.9-2.97 1.48-.09 3.1-.15 4.84-.16Zm0 3.17a32.6 32.6 0 0 0-3.8.28l.25.48c.33.61.7 1.14 1.09 1.57.73-.11 1.55-.18 2.46-.2V34.6Zm0 2.52c-.77.01-1.48.07-2.12.15a3.5 3.5 0 0 0 2.12 1.01v-1.16Zm.33 1.16v-1.16c.82 0 1.55.06 2.19.14a3.5 3.5 0 0 1-2.19 1.02Zm0-1.55V34.6h.14c1.36 0 2.6.1 3.72.24l-.25.52c-.33.6-.7 1.13-1.08 1.56-.73-.11-1.58-.18-2.53-.19Zm0-5.68v-2.95h5.24c0 1.07-.1 2.1-.26 3.07a85.23 85.23 0 0 0-4.98-.12Zm0-3.29h5.24c-.02-1.02-.1-2-.27-2.93a99.76 99.76 0 0 1-4.97.1v2.83Zm0-3.16a117.24 117.24 0 0 0 4.91-.1 14.5 14.5 0 0 0-.9-2.98 30.4 30.4 0 0 1-4 .24v2.84Zm-.33-2.85v2.85c-1.74-.02-3.36-.07-4.85-.15.22-1.1.53-2.1.91-3 1.18.17 2.5.28 3.94.3Zm.33-.34h.16c1.37 0 2.61-.08 3.71-.22l-.26-.53a7.81 7.81 0 0 0-1.12-1.6c-.7.1-1.53.18-2.49.19v2.16Zm-.33-2.16v2.16a31.7 31.7 0 0 1-3.79-.28l.24-.47c.34-.63.72-1.17 1.12-1.6.7.1 1.52.18 2.43.19Zm.33-.3c.86 0 1.6-.06 2.23-.15a3.52 3.52 0 0 0-2.23-1.06v1.22Zm-.33-1.21v1.21a17.9 17.9 0 0 1-2.18-.15c.68-.64 1.42-1 2.18-1.06Zm0 7.19v2.83h-5.18c.01-1.04.1-2.04.27-2.97 1.5.08 3.15.13 4.9.14Zm5.64 6.26c.17-.98.26-2.02.26-3.1h4.65c0 1.23-.23 2.4-.64 3.48a64.93 64.93 0 0 0-4.27-.38Zm.26-3.43h4.65a10.17 10.17 0 0 0-.63-3.28 76.6 76.6 0 0 1-4.28.33c.16.94.25 1.93.26 2.95Zm4.35 3.86c.4-1.1.63-2.29.64-3.52h3.41a7.94 7.94 0 0 1-1.16 4c-.78-.17-1.75-.33-2.89-.48Zm.63-3.86h3.42a7.94 7.94 0 0 0-1.1-3.74c-.8.14-1.78.29-2.93.42.37 1.04.59 2.16.61 3.32Zm-24.8 0h3.42c.03-1.18.25-2.32.64-3.38a61.1 61.1 0 0 1-2.93-.4 7.95 7.95 0 0 0-1.12 3.78Zm26.93-4.04a10.98 10.98 0 0 0-3.59-3.48c-.39.17-.86.35-1.42.52.91.97 1.65 2.1 2.14 3.36 1.13-.13 2.09-.27 2.87-.4Zm-3.21.44a10.28 10.28 0 0 0-2.16-3.3c-.83.24-1.81.45-2.95.61.38.9.68 1.91.89 3 1.6-.07 3-.18 4.22-.31Zm-14.99.28c.22-1.11.52-2.13.91-3.03a26.6 26.6 0 0 1-2.92-.6c-.93.93-1.68 2.05-2.2 3.29 1.25.13 2.65.25 4.21.34Zm-4.55-.38c.51-1.25 1.25-2.4 2.18-3.36-.56-.16-1.04-.32-1.45-.47a11 11 0 0 0-3.59 3.45c.8.13 1.76.26 2.86.38Zm2.83-3.54c.8.21 1.73.4 2.78.56a8.9 8.9 0 0 1 1.3-2.08c-.52-.1-.98-.2-1.35-.31a10.8 10.8 0 0 0-2.73 1.83Zm11.46.62c1.08-.14 2.01-.34 2.8-.56a10.38 10.38 0 0 0-2.84-1.92c-.34.12-.78.23-1.3.33.5.59.95 1.31 1.34 2.15Zm3.18-.66c.5-.15.95-.31 1.33-.46A16.03 16.03 0 0 0 33 18.38c-.06.04-.14.07-.23.11 1.04.5 1.97 1.18 2.79 1.98Zm-16.37-.48c.4.14.85.28 1.36.42.77-.75 1.66-1.38 2.63-1.88l-.29-.1a16 16 0 0 0-3.7 1.56Zm4.38-1.64a8.1 8.1 0 0 1-.18-.06l.7-.16-.52.22Zm1.67.38c-.44-.07-.82-.16-1.16-.24.72-.3 1.47-.5 2.26-.63a4.9 4.9 0 0 0-1.1.87Zm6.68-.26c-.31.1-.68.18-1.12.26a4.96 4.96 0 0 0-1.1-.87c.78.12 1.52.33 2.22.61Zm.62-.2-.14.05-.45-.2.6.14ZM18.01 35.22c-1.1-.8-2-1.72-2.68-2.74.78-.15 1.72-.3 2.8-.44.5 1.2 1.22 2.3 2.1 3.23-.56.15-1.07.3-1.49.46-.25-.16-.5-.33-.73-.5Zm2.6-.05c-.9-.91-1.62-1.98-2.13-3.17a74.4 74.4 0 0 1 4.17-.4c.21 1.1.52 2.1.9 2.99-1.1.16-2.09.36-2.94.58Zm11.9-.61c.38-.9.68-1.91.9-3.01 1.58.1 2.98.22 4.19.37a10.29 10.29 0 0 1-2.18 3.26c-.83-.23-1.8-.45-2.91-.62Zm4.33 1.45c-.38-.15-.82-.3-1.32-.45a10.9 10.9 0 0 1-2.62 1.88l.3.11c1.32-.38 2.55-.9 3.64-1.54Zm-4.47-1.14c1.04.16 1.98.36 2.77.58-.79.75-1.7 1.37-2.7 1.84-.38-.12-.84-.23-1.37-.33.49-.57.93-1.28 1.3-2.09Zm-11.48.57a30 30 0 0 1 2.8-.53c.37.8.8 1.5 1.29 2.06-.53.09-1 .2-1.4.3-1-.46-1.9-1.08-2.69-1.83Zm-1.78.51c.4-.13.87-.27 1.4-.41.76.75 1.63 1.38 2.59 1.87l-.34.12a15.9 15.9 0 0 1-3.65-1.58Zm12.77 1.58c-.33-.08-.7-.16-1.12-.23-.33.34-.68.62-1.05.83a9.96 9.96 0 0 0 2.17-.6Zm-6.6-.22c-.4.06-.78.14-1.12.22a9.9 9.9 0 0 0 2.18.6 4.91 4.91 0 0 1-1.05-.82Zm-1.66.35-.18.05.65.15-.47-.2Zm8.33.2.6-.13-.15-.05-.45.18Z" fill="#F4F7FE"/><path d="m39.45 20.34.42.26.33.3c-.1.13-.31.4-.42.5-.13.12-.38.46-.54.74l-.13.26c-.14.31-.32.7-.48.7-.2 0-.3-.55-.36-.96-.04-.33-.57.03-.82.25.14.16.45.53.57.7.16.22.61 1.4.61 1.73 0 .32-.23.5-.51.65-.23.12-.66-.5-.84-.83-.04.13-.06.5.17.83.23.33.1.75 0 .92h-.69c-.11 0-.11.7-.11.91 0 .15-.11.29-.22.41l-.13.18c-.07.14-.03.42 0 .54.1-.08.38-.33.75-.7.3-.32.45-.02.6.26.07.14.14.28.22.32.2.1.18.44.15.6 0 0-.46.38-.4.59.05.18-.03.28-.14.4l-.01.02-.02.02c-.11.14-.36.08-1.15-.3-.43-.22-.46-.39-.49-.54-.02-.12-.04-.24-.27-.36-.33-.18-.32-.46-.3-.77 0-.17.01-.36-.04-.54a2.64 2.64 0 0 0-.67-1.04c-.15-.15-.2.01-.3.29-.03.12-.08.26-.14.4-.1.24-.1.48-.1.68-.01.21-.01.38-.13.43-.23.11-.44-.27-.7-1.1-.23-.7-.62-.82-.83-.88-.05-.01-.09-.02-.11-.04-.08-.04-.26.22-.44.48-.12.17-.24.34-.33.43-.17.17-.16.3-.15.63v.37c0 .36-.2.45-.41.53-.15.07-.3.13-.39.3-.2.39-.22.52-.23.9 0 .37.08.47.5.31.2-.07.31-.16.38-.21.1-.08.12-.1.16.03.05.18-.15.64-.28.94-.04.1-.07.19-.1.23-.06.2-.36.25-.5-.2-.1-.35-.19-.46-.22-.48a4.3 4.3 0 0 1-.44.93.77.77 0 0 0-.15.16c-.21.27-.63.78-1.03.83-.4.04-.6-.98-.77-1.88a8.5 8.5 0 0 0-.22-.97c-.09-.28-.14-.52-.19-.71-.1-.42-.14-.64-.34-.6a4.18 4.18 0 0 1-2.06-.47c-.3-.24-.24-.39-.08-.8l.16-.45c.2-.57.42-.88.71-1.3l.37-.53.34-.5c.15-.21.17-.24.25-.52.1-.32-.11-.38-.36-.45a1.89 1.89 0 0 1-.23-.08c-.3-.13-.44-.74-.48-.95-.04-.2-.83.5-1.07.7l-.03.03c-.2.18-.57 0-.66-.73-.09-.74-.35-1.37-.53-1.24-.18.13-.24 1.67-.15 1.97.09.31.15 1.02.15 1.32 0 .31-.68.45-1.34.45-.53 0-1.3.56-1.63.83-.13.18-.4.62-.37.92.02.24.17.27.36.32.13.03.27.06.41.15.26.17.13.2-.04.26l-.21.08c-.14.08-.21.08-.35.07a2.6 2.6 0 0 0-.27 0c-.2 0-.2-.06-.23-.17a.67.67 0 0 0-.17-.34c-.21-.23-.24-.19-.3-.1-.03.03-.06.07-.11.1-.18.12.03.96.17 1.16.08.1.15.06.26-.02a.9.9 0 0 1 .53-.18c.19 0 .33-.02.44-.03.2-.02.33-.04.55.03.2.07.38.32.56.57.14.19.27.37.4.45a4 4 0 0 0 1.34.55c.42.07.24.35.09.58l-.1.15c-.04.09-.06.2-.08.34-.04.23-.1.54-.3 1-.22.55-.18.82-.15 1 .01.08.02.14.01.2-.01.1-.14.36-.28.64-.12.24-.24.5-.3.66-.08.23.08.56.2.8.06.13.11.24.12.3.03.2-.17.56-.55.47-.38-.09-.84-1.2-.96-1.57-.07-.22-.15-.67-.22-1.08l-.13-.72a7.92 7.92 0 0 0-.9-1.46l-.26-.24c-.3-.28-.77-.7-.79-.86-.02-.19.34-.7.52-.93l-.7-.64a9.36 9.36 0 0 1-.75-.85 3.2 3.2 0 0 0-.55-.61c-.13-.1-.25-.53-.38-1.02-.07-.27-.15-.57-.23-.81-.19-.52.1-.76.26-.91a.56.56 0 0 0 .11-.11c.1-.15.67-1.48.61-1.78-.04-.23-.67-.1-.98 0-.35.22-1.05.57-1.02.3.02-.24.29-1 .5-1.54.6-.4 1.27-.78 1.98-1.12.2.14.54.37.98.64.58.37.84.22 1.3-.07.15-.08.3-.18.5-.27.48-.24.56-.13.66.04.07.12.16.26.45.3.33.05.38 0 .47-.08.1-.08.22-.2.72-.26.88-.12.97-.03 1.24.24a6 6 0 0 0 .1.1c.3.29 1.41.1 2.13-.03l.35-.06c.62-.1.53.87 0 1.37-.44.42-.26.65-.1.86l.1.13.01.02c.16.25.3.46.52.1.13-.2.18-.39.24-.59.05-.16.1-.32.2-.52.13-.29.6-.2 1.12-.1.28.05.59.1.86.1.65 0 .86-.13 1.03-.24l.1-.07.06-.03c.26-.14.83-.46 1-.44.08 0 .16.07.24.13.12.1.26.2.42.15.26-.1.28-.6.28-.78 0-.17.71.17.94.38.23.21.44.21.93.21.26 0 .4-.08.54-.18.14-.08.29-.18.57-.24.35-.06.38-.05.56.06.12.07.33.2.76.36.72.29.84.19.96.1.05-.05.1-.1.22-.1.26 0 .63-.22.82-.37Zm-2.06 6.91c-.44-.34-.19-.6 0-.67.3-.11.63.34.84.64.07.09.13.17.17.2.17.18.04.57-.18.61-.1.02-.18-.07-.3-.23a2.94 2.94 0 0 0-.53-.55Zm.7 2.86c-.1.07-1.14.78-1.42.95-.3.17-.5.6-.4.85.03.09.01.17 0 .24-.02.13-.04.23.24.31.27.08.56.02.82-.04.15-.03.3-.06.42-.06h.15c.29-.02.55-.03.5.47-.06.6-.05 1.17.34.99.22-.1.33-.28.44-.44a.97.97 0 0 1 .3-.34c.3-.2.94-.88.76-1.43a5.37 5.37 0 0 0-.18-.51c-.07-.18-.1-.28-.1-.4 0-.08-.04-.18-.07-.29-.05-.15-.1-.3-.04-.37.07-.09.16-.06.26-.03l.13.03c.13 0 .4-.62.35-.72a8.5 8.5 0 0 0-1.29-.57c-.27-.1-.49-.2-.56-.23-.2-.1-.72.07-.53.44.1.19.2.24.33.3.11.06.24.13.4.3l.08.08c.32.33.5.52.37.66l-.09.1c-.1.15-.2.28-.36 0-.2-.36-.57-.48-.85-.3Zm2.02 3.7c-.42.28-.3.33-.15.4.06.01.12.04.15.08.75.2 1.66-.98 1.7-1.07.02-.08-.02-.49-.11-.66-.09-.17-.29.07-.46.4-.13.24-.35.38-.69.58l-.44.28Z" fill="#F8F8D0"/></svg>