<!-- by TradeStack --><svg width="56" height="56" viewBox="0 0 56 56" xmlns="http://www.w3.org/2000/svg"><path fill="#F0F3FA" d="M0 0h56v56H0z"/><path d="M35.32 14c5 0 9.68 4.57 9.68 9.86 0 3.27-1.87 8.14-5.64 8.14-2.1 0-3.47-.76-4-1.31L24.76 19.95a6.9 6.9 0 0 0-10.26.38 7.98 7.98 0 0 0 .26 10.59l10.1 10.59 3.03.8c.43.12.7.58.6 1.04a.82.82 0 0 1-1.01.62l-3.44-.91-10.41-10.92a9.78 9.78 0 0 1-.32-12.97 8.44 8.44 0 0 1 12.56-.46l10.63 10.75c.16.17 1.1.82 2.87.82 2.8 0 4.03-4.13 4.03-6.42 0-4.37-3.97-8.15-8.07-8.15-1.6 0-3.8.88-4.32 2.67-.13.44-.47.82-.92.82-.44 0-.81-.37-.73-.83.49-2.8 3.43-4.37 5.97-4.37ZM16.3 21.94a4.8 4.8 0 0 1 7.08-.26l10.47 10.97 2.61.9c.41.15.64.6.5 1.03a.78.78 0 0 1-1 .53l-2.93-1.02L22.3 22.87a3.29 3.29 0 0 0-4.85.18 3.7 3.7 0 0 0 .17 5l10.9 10.88 2 .52c.41.11.67.55.56 1-.1.43-.53.7-.95.59l-2.38-.63-11.2-11.17a5.4 5.4 0 0 1-.25-7.3Zm2.9 2.73a.82.82 0 0 0 .01 1.09L29.8 37.3l2.22.61c.42.12.86-.15.96-.6a.82.82 0 0 0-.56-.98l-1.88-.52-10.23-11.15a.74.74 0 0 0-1.11 0Z" fill="url(#akidye431)"/><path d="M35.12 20.6c-.63.09-1.23.32-1.71.58-.38.2-.87.18-1.17-.12-.36-.35-.32-.92.12-1.16a7.22 7.22 0 0 1 2.48-.84c1.43-.2 3.04.1 4.35 1.43 1.48 1.49 2.03 3.05 1.73 4.33a2.89 2.89 0 0 1-2.28 2.16c-.44.1-.81-.26-.81-.7 0-.43.4-.75.77-.98.27-.16.47-.43.55-.78.15-.68-.1-1.76-1.33-3.01a3.01 3.01 0 0 0-2.7-.9Z" fill="#898D9E"/><path d="M35 25v-2h2v2h-2Z" fill="#898D9E"/><defs><linearGradient id="akidye431" x1="12.95" y1="19.32" x2="32.93" y2="38.25" gradientUnits="userSpaceOnUse"><stop stop-color="#D2E099"/><stop offset=".28" stop-color="#888C9D"/></linearGradient></defs></svg>