<!-- by TradeStack --><svg width="56" height="56" viewBox="0 0 56 56" xmlns="http://www.w3.org/2000/svg"><path fill="#F0F3FA" d="M0 0h56v56H0z"/><path d="M7.99 23H15v3H9v2.5h5V31H9v3h6v.9c0 1.16-.89 2.1-1.99 2.1H8C6.89 37 6 36.06 6 34.9v-9.8c0-1.16.89-2.1 1.99-2.1Zm9.6 0h1.85l2.51 3.89 2.1-3.89h1.71c.8 0 1.3.91.88 1.63l-3.06 5.23 3.4 5.5c.44.7-.05 1.64-.87 1.64h-1.65l-2.5-4.17L19.43 37h-1.9c-.8 0-1.3-.92-.87-1.63l3.25-5.51-3.2-5.21c-.44-.72.05-1.65.86-1.65ZM29 35.41V23h1.53c.82 0 1.47.71 1.47 1.59V34h5v1.41c0 .88-.67 1.59-1.49 1.59H30.5c-.82 0-1.49-.71-1.49-1.59Zm13.06-12.05L37.73 36.3c-.11.34.14.7.49.7h2.35c.23 0 .43-.16.5-.39l.7-2.61h4.36l.76 2.62c.07.23.27.38.5.38h2.1c.34 0 .6-.35.48-.7L45.9 23.38a.52.52 0 0 0-.5-.37h-2.85a.51.51 0 0 0-.49.36Zm3.35 8.2h-2.96l1.43-5.27 1.53 5.26Z" fill="url(#a)"/><path d="m17.64 17.05-1.92 2.33 4.07-.31.47-2.02h1.38l2.52-4.13 4.1 2.32-2.6 4.14 3.13-1.13v-1.2l1.55-.34.8-2.7 6.22 5.06-2.86-4.2-.77.82-2.25-3.18-2.69 1.81-2.85-2.12-.81.48-1.31-.68-.98 1.5-1.2-.58-2.96 4.13h-1.04Z" fill="url(#b)"/><defs><linearGradient id="a" x1="6" y1="30" x2="50" y2="30" gradientUnits="userSpaceOnUse"><stop stop-color="#8E6530"/><stop offset=".49" stop-color="#E3DFA4"/><stop offset="1" stop-color="#976D2E"/></linearGradient><linearGradient id="b" x1="16.9" y1="17.76" x2="36.39" y2="17.81" gradientUnits="userSpaceOnUse"><stop stop-color="#707070"/><stop offset=".52" stop-color="#E6E6E6"/><stop offset="1" stop-color="#7D7D7D"/></linearGradient></defs></svg>