<?xml version='1.0' encoding='utf-8'?>
<!-- by TradeStack -->
<svg width="56" height="56" viewBox="0 0 56 56" xmlns="http://www.w3.org/2000/svg"><path fill="#F0F3FA" d="M0 0h56v56H0z" /><path d="M42.3 35.19a16 16 0 1 0-3.17 4.31c.63-6.14-1.68-7.5-2.63-7.5-.8 0-1.67.33-1.5.5a2.1 2.1 0 0 0-.23.61c-.12.45-.24.89-.77.89-1 0-1.5 0-2-1s.5-1.5 1.5-1.5c.8 0 .67-1 .5-1.5-3.2-.4-7-4.5-8.5-6.5-1 1.5-2.5 1.5-3 1.5-.2 0-.5.09-.84.19-.49.14-1.07.31-1.66.31-1 0-1-2.5 0-3s2 .5 2.5 1 3-1 2.5-3a3.8 3.8 0 0 0-1.07-1.7c-.48-.52-.93-1-.93-1.8 0-2.8 1-4.17 1.5-4.5 4.5.5 4 4.5 3.5 5.5s.5 1.5 1.5 1.5c.52 0 .58-.21.69-.63.06-.23.13-.52.31-.87 2-2 3 1 2.5 2-.25.5-1.15.5-1.97.5H31c-1.6.4-1.33.83-1 1 3.34.74 5.58 2.59 6.92 3.7.47.38.82.67 1.08.8.8.4 1.67-.67 2-1.5 1-1 3 1 1.5 2-1.67.42-1.6.83-1.53 1.25.02.08.03.17.03.25 1.24 1.55 1.96 4.8 2.3 7.19Z" fill="#7C0041" /></svg>