<!-- by TradeStack --><svg width="56" height="56" viewBox="0 0 56 56" xmlns="http://www.w3.org/2000/svg"><path fill="#F0F3FA" d="M0 0h56v56H0z"/><path fill-rule="evenodd" d="M8.17 24.37H9a1.45 1.45 0 0 0-.64-1.01c-.17-.12-.36-.2-.58-.27a2.6 2.6 0 0 0-1.77.15 1.8 1.8 0 0 0-.74.68c-.18.3-.27.66-.27 1.08 0 .42.09.78.27 1.08.18.3.43.52.74.68.31.16.67.24 1.07.24.27 0 .52-.03.74-.1.22-.07.41-.17.58-.3.16-.12.3-.26.4-.42.1-.16.17-.34.2-.52h-.83a.78.78 0 0 1-.14.3.88.88 0 0 1-.24.22c-.1.06-.2.11-.32.14a1.53 1.53 0 0 1-1.03-.1c-.2-.11-.34-.26-.45-.47a1.6 1.6 0 0 1-.16-.75c0-.3.05-.54.16-.74.1-.2.26-.36.45-.47a1.46 1.46 0 0 1 1.04-.11c.12.03.23.08.32.15a.8.8 0 0 1 .37.54ZM43 27v-4h2.81v.6h-2.03v1.1h1.89v.6h-1.89v1.1h2.05v.6H43ZM7 29v4h2.82v-.6H7.78v-1.1h1.88v-.6H7.78v-1.1h2.03V29H7Zm7.3 1.37h-.8a.83.83 0 0 0-.34-.54.98.98 0 0 0-.31-.15 1.32 1.32 0 0 0-1 .11c-.17.1-.32.26-.42.47-.1.2-.15.45-.15.74 0 .3.05.55.15.75a1.09 1.09 0 0 0 1.05.62c.13 0 .25-.02.36-.05.11-.03.22-.08.3-.14a.85.85 0 0 0 .37-.53h.78c-.03.2-.09.37-.19.53-.1.16-.22.3-.38.43-.16.12-.34.22-.55.29-.21.07-.44.1-.7.1-.38 0-.72-.08-1.02-.24-.3-.16-.53-.38-.7-.68-.17-.3-.26-.66-.26-1.08 0-.42.09-.78.26-1.08.17-.3.41-.52.7-.68a2.36 2.36 0 0 1 1.68-.15c.21.06.4.15.56.27a1.47 1.47 0 0 1 .6 1Zm4.4 1.7c.18-.3.26-.65.26-1.07 0-.42-.08-.78-.26-1.08-.17-.3-.4-.52-.7-.68-.3-.16-.64-.24-1.02-.24s-.71.08-1.01.24c-.3.16-.54.38-.71.68-.17.3-.26.66-.26 1.08 0 .42.09.78.26 1.08.17.3.4.52.7.68.3.16.64.24 1.02.24s.72-.08 1.01-.24c.3-.16.54-.38.71-.68Zm-.68-1.82c.1.2.16.45.16.75s-.05.55-.16.75c-.1.2-.24.36-.42.46-.18.1-.38.16-.62.16-.23 0-.44-.05-.62-.16-.18-.1-.32-.26-.42-.46-.1-.2-.15-.45-.15-.75s.05-.54.15-.75c.1-.2.24-.36.42-.46.18-.1.39-.16.62-.16.24 0 .44.06.62.16s.32.26.42.46Zm5.48-.13a.51.51 0 0 0-.25-.39c-.14-.09-.33-.13-.56-.13-.17 0-.3.02-.42.06-.12.05-.2.1-.27.18a.41.41 0 0 0-.1.26c0 .08.03.15.07.21.04.06.1.11.17.16l.24.1.26.07.4.09c.17.03.32.08.47.14.15.06.29.13.4.22a.89.89 0 0 1 .4.76c0 .23-.06.43-.2.6-.12.17-.3.3-.55.4-.25.1-.54.15-.89.15-.33 0-.62-.05-.87-.14-.25-.1-.44-.23-.58-.41-.13-.18-.2-.4-.22-.66h.77c.01.14.06.25.14.34.08.09.19.16.32.2.13.05.28.07.44.07.17 0 .32-.02.44-.07a.73.73 0 0 0 .3-.2.44.44 0 0 0 .12-.29c0-.1-.04-.18-.1-.25a.73.73 0 0 0-.27-.16 2.81 2.81 0 0 0-.4-.13l-.5-.1c-.35-.1-.63-.22-.84-.38a.82.82 0 0 1-.3-.67c0-.23.06-.43.2-.6.14-.18.33-.31.57-.4.24-.1.5-.15.8-.15.31 0 .58.05.81.14.23.1.42.23.55.4.13.17.2.36.2.58h-.75ZM25.51 29h-.88l1.57 2.5V33h.8v-1.5l1.55-2.5h-.88l-1.06 1.77h-.04L25.5 29Zm5.99 1.12a.51.51 0 0 0-.25-.39c-.14-.09-.33-.13-.56-.13-.17 0-.3.02-.42.06-.12.05-.2.1-.27.18a.41.41 0 0 0-.1.26c0 .08.03.15.07.21.04.06.1.11.17.16l.24.1.26.07.4.09c.17.03.32.08.47.14.15.06.29.13.4.22a.89.89 0 0 1 .4.76c0 .23-.06.43-.2.6-.12.17-.3.3-.55.4-.25.1-.54.15-.89.15-.33 0-.62-.05-.87-.14-.25-.1-.44-.23-.58-.41-.13-.18-.2-.4-.22-.66h.77c.01.14.06.25.14.34.08.09.19.16.32.2.13.05.28.07.44.07.17 0 .32-.02.44-.07a.73.73 0 0 0 .3-.2.44.44 0 0 0 .12-.29c0-.1-.04-.18-.1-.25a.73.73 0 0 0-.27-.16 2.81 2.81 0 0 0-.4-.13l-.5-.1c-.35-.1-.63-.22-.84-.38a.82.82 0 0 1-.3-.67c0-.23.06-.43.2-.6.14-.18.33-.31.57-.4.24-.1.5-.15.8-.15.31 0 .58.05.81.14.23.1.42.23.55.4.13.17.2.36.2.58h-.75ZM32.68 29v.6H34V33h.79v-3.4h1.33V29h-3.44Zm7.14 4H37v-4h2.8v.6h-2.02v1.1h1.88v.6h-1.88v1.1h2.04v.6Zm1.63-4h-.95v4h.75v-2.75h.04l1.18 2.74h.56l1.18-2.74h.04V33H45v-4h-.95l-1.27 2.9h-.06L41.45 29Zm6.5.73c.14.1.22.23.24.4h.75a.95.95 0 0 0-.2-.59 1.3 1.3 0 0 0-.55-.4c-.23-.1-.5-.14-.8-.14-.3 0-.58.05-.81.14-.24.1-.43.23-.57.4a.94.94 0 0 0-.2.6c0 .29.1.5.3.68.2.16.49.29.84.37l.5.11c.15.04.28.08.4.13.11.04.2.1.27.16.06.07.1.15.1.25 0 .12-.04.21-.11.3a.73.73 0 0 1-.3.19c-.13.05-.28.07-.45.07-.17 0-.31-.02-.45-.07a.74.74 0 0 1-.31-.2.56.56 0 0 1-.14-.34h-.77c.01.26.08.48.22.66.14.18.33.32.58.4.25.1.54.15.87.15.35 0 .64-.05.89-.14.24-.1.43-.24.56-.4.13-.18.19-.38.19-.61a.89.89 0 0 0-.4-.76 1.7 1.7 0 0 0-.4-.22c-.15-.06-.3-.1-.47-.14l-.4-.1a2.73 2.73 0 0 1-.5-.16.54.54 0 0 1-.17-.16.36.36 0 0 1-.07-.2c0-.1.04-.2.1-.27a.62.62 0 0 1 .27-.18c.11-.04.25-.06.42-.06.23 0 .42.04.56.13ZM47 27h1.44c.43 0 .8-.08 1.1-.24.31-.16.55-.39.71-.69.17-.3.25-.66.25-1.07 0-.42-.08-.78-.24-1.07-.17-.3-.4-.53-.7-.69a2.3 2.3 0 0 0-1.1-.24H47v4Zm1.4-.63h-.63v-2.74h.65c.3 0 .53.05.73.15.2.1.34.25.44.45.1.2.15.46.15.77 0 .3-.05.56-.15.76a1 1 0 0 1-.45.46c-.2.1-.44.15-.74.15Zm-9.74-2.76V23h3.45v.6h-1.34V27H40v-3.4h-1.34ZM34.64 27h.84l.35-.99h1.63l.36.99h.84l-1.53-4h-.97l-1.52 4Zm2.6-1.57-.58-1.61h-.03l-.59 1.61h1.2ZM32.48 27H31v-4h1.5c.43 0 .8.08 1.1.24.31.16.55.39.72.69.16.3.25.65.25 1.07 0 .41-.09.77-.25 1.07-.17.3-.41.53-.73.69-.3.16-.68.24-1.12.24Zm-.69-.63h.65c.3 0 .55-.05.75-.15a1 1 0 0 0 .46-.46c.1-.2.15-.46.15-.76 0-.31-.05-.56-.15-.77a1 1 0 0 0-.45-.45 1.6 1.6 0 0 0-.74-.15h-.67v2.74ZM30 27v-4h-.7v4h.7Zm-3.72 0v-4H27v3.4h1.97v.6h-2.69Zm-.54-.92c.17-.3.26-.66.26-1.08 0-.42-.09-.78-.26-1.08-.18-.3-.42-.52-.72-.68-.3-.16-.64-.24-1.02-.24s-.72.08-1.02.24c-.3.16-.54.38-.72.68-.17.3-.26.66-.26 1.08 0 .42.09.78.26 1.08.18.3.42.52.72.68.3.16.64.24 1.02.24s.72-.08 1.02-.24c.3-.16.54-.38.72-.68Zm-.69-1.83c.1.2.16.45.16.75s-.05.55-.16.75c-.1.2-.24.36-.42.46-.18.1-.4.16-.63.16-.24 0-.45-.05-.63-.16a1.1 1.1 0 0 1-.42-.46c-.1-.2-.16-.45-.16-.75s.05-.54.16-.75c.1-.2.24-.36.42-.46.18-.1.4-.16.63-.16.24 0 .45.06.63.16s.32.26.42.46Zm-4.15-.13a.51.51 0 0 0-.25-.39c-.14-.09-.33-.13-.56-.13-.17 0-.3.02-.42.06-.12.05-.2.1-.27.18a.4.4 0 0 0-.1.26c0 .08.02.15.06.21.05.06.1.11.18.16l.23.1.27.07.4.09c.17.03.33.08.48.14.15.06.28.13.4.22a.88.88 0 0 1 .4.76c0 .23-.07.43-.2.6-.13.17-.31.3-.56.4-.24.1-.54.15-.89.15-.33 0-.62-.05-.87-.14a1.3 1.3 0 0 1-.58-.41c-.14-.18-.21-.4-.23-.66h.78c0 .14.05.25.14.34.08.09.18.16.31.2.14.05.29.07.45.07.17 0 .32-.02.45-.07a.73.73 0 0 0 .3-.2.44.44 0 0 0 .11-.29c0-.1-.03-.18-.1-.25a.74.74 0 0 0-.27-.16 2.83 2.83 0 0 0-.4-.13l-.5-.1c-.35-.1-.64-.22-.84-.38a.82.82 0 0 1-.31-.67c0-.23.07-.43.2-.6.15-.18.34-.31.57-.4.24-.1.52-.15.82-.15.3 0 .57.05.8.14.24.1.42.23.55.4.14.17.2.36.2.58h-.75ZM17.83 27v-4H17v2.73h-.05L14.75 23H14v4h.84v-2.72h.04l2.2 2.72h.75Zm-4.33-2c0 .42-.09.78-.26 1.08-.18.3-.42.52-.72.68-.3.16-.64.24-1.02.24s-.72-.08-1.02-.24a1.8 1.8 0 0 1-.72-.68A2.1 2.1 0 0 1 9.5 25c0-.42.09-.78.26-1.08.18-.3.42-.52.72-.68.3-.16.64-.24 1.02-.24s.72.08 1.02.24c.3.16.54.38.72.68.17.3.26.66.26 1.08Zm-.8 0c0-.3-.04-.54-.15-.75-.1-.2-.24-.36-.42-.46-.18-.1-.4-.16-.63-.16-.24 0-.45.06-.63.16s-.32.26-.42.46c-.1.2-.16.45-.16.75s.05.55.16.75c.1.2.24.36.42.46.18.1.4.16.63.16.24 0 .45-.05.63-.16.18-.1.32-.26.42-.46.1-.2.16-.45.16-.75Z"/></svg>