<!-- by TradeStack --><svg width="56" height="56" viewBox="0 0 56 56" xmlns="http://www.w3.org/2000/svg"><path fill="#F0F3FA" d="M0 0h56v56H0z"/><path d="m25.29 21.56-8.82 9.54-2.1-2.41c.31-.46.91-1 1.46-1.6l7.55-8.05c1.31-1.4 2.5-1.39 3.81.02l6.53 7c.2.22.36.5.74.65l7.25-7.9 2.17 2.5c-.68.7-1.5 1.53-2.3 2.38l-5.43 5.78c-1.2 1.27-2.43 1.28-3.63 0l-6.64-7.13c-.19-.2-.33-.43-.6-.78Z" fill="url(#a)"/><path d="m15.67 19 2.07 2.28c-.03.18-.25.31-.41.48l-5.57 5.92c-.84.9-.83 1.7.01 2.6 1.17 1.25 2.34 2.5 3.52 3.73.88.94 1.62.95 2.5.02l6.88-7.27c.2-.22.37-.47.65-.6l2 2.26c.1.14-.08.24-.2.38a4885 4885 0 0 1-7.25 7.69 4.41 4.41 0 0 1-6.64.02L9.5 32.55a5.03 5.03 0 0 1 0-7.14l5.58-5.91c.17-.18.3-.4.6-.5Z" fill="url(#b)"/><path d="M48 25.37c-.05.13-.22.26-.37.41l-9.74 10.7A4.18 4.18 0 0 1 34.47 38a3.98 3.98 0 0 1-2.8-1.24c-1.42-1.51-2.8-3.06-4.16-4.56l2.07-2.22c.67.7 1.43 1.47 2.15 2.28.66.73 1.27 1.5 2.01 2.13a1.44 1.44 0 0 0 1.98-.16l6.67-7.27c1.2-1.3 2.38-2.62 3.59-3.95L48 25.37Z" fill="url(#c)"/><defs><linearGradient id="a" x1="14.37" y1="24.55" x2="43.88" y2="24.55" gradientUnits="userSpaceOnUse"><stop stop-color="#8E2BF8"/><stop offset="1" stop-color="#47CCF9"/></linearGradient><linearGradient id="b" x1="8" y1="28.5" x2="27.35" y2="28.5" gradientUnits="userSpaceOnUse"><stop stop-color="#8E2BF8"/><stop offset="1" stop-color="#7470FF"/></linearGradient><linearGradient id="c" x1="27.51" y1="30.5" x2="48" y2="30.5" gradientUnits="userSpaceOnUse"><stop stop-color="#62DDFF"/><stop offset="1" stop-color="#86ACFF"/></linearGradient></defs></svg>