<?xml version='1.0' encoding='utf-8'?>
<!-- by TradeStack -->
<svg width="56" height="56" viewBox="0 0 56 56" xmlns="http://www.w3.org/2000/svg"><path fill="#F0F3FA" d="M0 0h56v56H0z" /><path d="M27.6 14 26 17.6C35.32 31.7 43.4 34.73 45 35c-8.6-4.46-15.19-16.2-17.4-21Z" fill="url(#a00nv4n4j)" /><path d="M20 13c-3.08 12.64-9.28 22.86-12 26 6.03-4.4 11.18-13.65 13-18 13.04 17.24 24.92 21.64 27 22-13.92-6.32-26.55-27.26-28-30Z" fill="url(#b00nv4n4j)" /><path d="M21.47 25c-1.91 4.5-4.44 8.2-5.47 9 1.26-.46 4.2-1.38 5.95-1.38 2.17 0 3.13.06 6.05.55-2.34-1.76-5.95-7.5-6.53-8.17Z" fill="url(#c00nv4n4j)" /><defs><linearGradient id="a00nv4n4j" x1="35.5" y1="15" x2="35.5" y2="35" gradientUnits="userSpaceOnUse"><stop stop-color="#C6C5C5" /><stop offset=".93" stop-color="#4E4E4E" /></linearGradient><linearGradient id="b00nv4n4j" x1="28" y1="14" x2="28" y2="43" gradientUnits="userSpaceOnUse"><stop stop-color="#EEE211" /><stop offset="1" stop-color="#B7922E" /></linearGradient><linearGradient id="c00nv4n4j" x1="22" y1="26" x2="22" y2="34" gradientUnits="userSpaceOnUse"><stop stop-color="#C6C5C5" /><stop offset=".93" stop-color="#4E4E4E" /></linearGradient></defs></svg>