<!-- by TradeStack --><svg viewBox="0 0 56 56" xmlns="http://www.w3.org/2000/svg"><path fill="#F0F3FA" d="M0 0h56v56H0z"/><path d="M22.55 13H27v7h-3.92a3.7 3.7 0 0 0-3.52 3.58c0 1.83 1.56 3.33 3.52 3.42H27v6.5c-3.8.7-6.68 3.8-6.68 7.5H11v-.5L22.55 13Z" fill="#124C7A"/><path d="M21.15 13 11 38.04v-14.7h.01l-.01-.48c0-5.38 4.53-9.76 10.15-9.86ZM29 13h5.27C40.19 13 45 17.42 45 22.86a9.53 9.53 0 0 1-3.72 7.47L45 40.78V41h-9.31c0-3.7-2.88-6.8-6.69-7.5V27h3.72c2.06 0 3.73-1.53 3.73-3.42a3.71 3.71 0 0 0-3.7-3.58H29v-7Z" fill="#192E59"/></svg>