<!-- by TradeStack --><svg width="56" height="56" viewBox="0 0 56 56" xmlns="http://www.w3.org/2000/svg"><path fill="#181B1E" d="M0 0h56v56H0z"/><path d="M21.95 22c1.2 0 3.2 2.67 4.05 4-2.25-2.89-3.67-3.65-4.11-3.65-.44 0-.64.36-.64.77 0 .75.41 1.74.97 2.8a4.91 4.91 0 0 1-1.22-2.8c0-.39.28-1.12.95-1.12Z" fill="#FCFCFC"/><path d="M27.05 21c-1.2 0-3.2 2.67-4.05 4 2.25-2.89 3.67-3.65 4.11-3.65.44 0 .64.36.64.77 0 .75-.41 1.74-.97 2.8a4.91 4.91 0 0 0 1.22-2.8c0-.39-.28-1.12-.95-1.12ZM42.17 31.04l.01.29v.04c.06-.11.15-.2.27-.27.12-.07.25-.1.4-.1.17 0 .31.04.43.12.12.08.2.19.25.33a.72.72 0 0 1 .29-.33.8.8 0 0 1 .44-.12c.22 0 .4.07.53.21.14.15.21.34.21.59V33h-.18v-1.18c0-.2-.06-.35-.17-.47a.58.58 0 0 0-.44-.17c-.3 0-.5.16-.62.47V33h-.18v-1.18c0-.2-.05-.35-.16-.46a.58.58 0 0 0-.45-.18c-.3 0-.5.16-.62.48V33H42v-1.96h.17ZM39 31h.2v1.05c0 .23.08.41.23.55a.8.8 0 0 0 .57.22c.19 0 .36-.05.5-.15.15-.1.25-.24.3-.42V31h.2v1.96h-.17a3.66 3.66 0 0 1-.03-.39.76.76 0 0 1-.34.32c-.15.07-.32.11-.5.11a.95.95 0 0 1-.7-.26.89.89 0 0 1-.26-.66V31ZM38 30.17c0-.05.02-.09.05-.12a.2.2 0 0 1 .14-.05c.05 0 .1.02.13.05.04.03.06.07.06.12 0 .05-.02.09-.06.12a.2.2 0 0 1-.13.05.2.2 0 0 1-.14-.05.16.16 0 0 1-.05-.12ZM38.23 33v-2H38v2h.23ZM35.18 31.04l.02.39c.08-.14.2-.25.35-.32.15-.07.31-.11.5-.11.28 0 .5.08.69.25.17.17.26.39.26.66V33h-.2v-1.07c0-.22-.07-.4-.23-.54a.83.83 0 0 0-.57-.2.86.86 0 0 0-.5.14.78.78 0 0 0-.3.42V33H35v-1.96h.18ZM32.24 31.9c.16-.11.39-.17.67-.17.35 0 .65.1.88.28v-.29a.55.55 0 0 0-.15-.35.56.56 0 0 0-.24-.14c-.1-.04-.24-.06-.38-.06-.29 0-.55.05-.8.16l-.02-.18c.29-.1.57-.15.83-.15.65 0 .97.24.97.72v1.23h-.19a1.8 1.8 0 0 1-.03-.32.8.8 0 0 1-.35.27c-.16.07-.34.1-.54.1-.27 0-.49-.06-.65-.17a.55.55 0 0 1-.24-.47c0-.19.08-.34.24-.46Zm-.03.45c0 .15.07.27.2.36.13.1.3.14.52.14.18 0 .34-.04.5-.1a.85.85 0 0 0 .36-.32v-.27c-.22-.19-.5-.28-.85-.28-.23 0-.41.04-.54.13a.38.38 0 0 0-.19.34ZM30 33v-1.95h.21l.02.49c.08-.17.2-.3.35-.4.16-.1.33-.14.54-.14.08 0 .17 0 .26.02l-.01.2a1.01 1.01 0 0 0-.27-.02c-.23 0-.4.06-.54.18s-.25.3-.33.53V33H30ZM27 31h.2v1.05c0 .23.08.41.23.55a.8.8 0 0 0 .57.22c.19 0 .36-.05.5-.15.15-.1.25-.24.3-.42V31h.2v1.96h-.17a3.66 3.66 0 0 1-.03-.39.76.76 0 0 1-.34.32c-.15.07-.32.11-.5.11a.95.95 0 0 1-.7-.26.89.89 0 0 1-.26-.66V31ZM51.48 28.74V27.5c0-.58-.33-1.03-1.02-1.03-.7 0-.94.45-.94 1.03v1.24c0 .17-.1.26-.26.26-.17 0-.26-.1-.26-.26V27.5c0-.84.5-1.5 1.5-1.5s1.5.66 1.5 1.5v1.24c0 .17-.1.26-.26.26-.17 0-.26-.1-.26-.26ZM29 29a.25.25 0 0 1-.25-.26v-1.4c-.02-.5-.18-.87-.65-.87-.53 0-.57.45-.57 1.03v1.24c0 .17-.15.26-.28.26a.25.25 0 0 1-.25-.26V27.5c0-.84.38-1.5 1.13-1.5.4 0 .68.18.87.48.19-.3.48-.48.87-.48.75 0 1.13.66 1.13 1.5v1.24c0 .17-.13.26-.25.26-.13 0-.25-.1-.25-.26V27.5c0-.58-.14-1.03-.66-1.03s-.56.3-.56.88v1.39c0 .17-.16.26-.28.26ZM40 26.25c0-.16.09-.25.26-.25s.26.1.26.25v2.5c0 .16-.1.25-.26.25-.17 0-.26-.1-.26-.25v-2.5ZM8 26.25c0-.16.09-.25.26-.25s.26.1.26.25v2.5c0 .16-.1.25-.26.25-.17 0-.26-.1-.26-.25v-2.5ZM14.9 27.73c-.6 0-.9-.38-.9-.86 0-.49.3-.87.9-.87h2.75c.14 0 .22.06.24.18v.23c0 .13-.1.24-.24.24a.24.24 0 0 1-.23-.18h-2.45c-.28 0-.43.16-.43.4 0 .23.15.4.43.4h2.12c.61 0 .91.38.91.86 0 .49-.3.87-.9.87h-2.86c-.15 0-.23-.07-.24-.21v-.23c0-.13.1-.24.24-.24.12 0 .22.1.24.21h2.55c.28 0 .43-.16.43-.4 0-.23-.15-.4-.43-.4h-2.12ZM47.95 28.57c.13.19-.01.43-.25.43-.1 0-.2-.05-.26-.13L46 26.8l-1.44 2.07a.31.31 0 0 1-.28.13H42.6c-1.07 0-1.6-.66-1.6-1.5s.53-1.5 1.6-1.5h1.65c.16 0 .25.08.25.23 0 .15-.09.24-.25.24h-1.59c-.74 0-1.1.45-1.1 1.03 0 .58.36 1.03 1.1 1.03h1.41l1.67-2.4c.12-.17.4-.17.52 0l1.7 2.44Zm-14.32-2.1h1.63c.16 0 .24-.09.24-.24s-.08-.23-.24-.23h-1.68c-1.06 0-1.58.66-1.58 1.5s.52 1.5 1.58 1.5h1.68c.16 0 .24-.09.24-.23 0-.16-.08-.24-.24-.24h-1.63c-.64 0-1.09-.43-1.09-1.03 0-.6.45-1.03 1.1-1.03Zm-.62.8a.49.49 0 0 0-.06.23c0 .08.02.16.06.23h1.18c.15 0 .24-.08.24-.23 0-.15-.09-.23-.24-.23H33ZM5.69 26.47c-.56 0-.91.25-1.05.61h-.6c.17-.63.7-1.08 1.59-1.08h1.62c.16 0 .25.08.25.23 0 .15-.1.24-.25.24H5.69ZM4 27.35H6.88c.17 0 .26.09.26.24s-.09.24-.26.24H4v-.48ZM4 28.1v.64c0 .17.1.26.28.26.18 0 .28-.1.28-.26v-.64H4ZM11.61 27.92H9.53v.82c0 .17-.1.26-.27.26S9 28.9 9 28.74v-1.29h2.97c.34 0 .5-.22.5-.49 0-.28-.16-.5-.5-.5H9.53v.2H9v-.4c0-.17.09-.26.26-.26h2.85c.6 0 .89.39.89.87 0 .36-.16.7-.46.84-.3.15-.61.2-.93.2ZM11.85 28.06l.57.83c.08.12.25.15.37.06a.26.26 0 0 0 .07-.36l-.46-.66a12.26 12.26 0 0 1-.55.13ZM37.96 27.92h-1.57v.82c0 .17-.07.26-.2.26-.12 0-.19-.1-.19-.26v-1.29h2.23c.25 0 .37-.22.37-.49 0-.28-.12-.5-.37-.5h-1.84v.2H36v-.4c0-.17.07-.26.2-.26h2.13c.45 0 .67.39.67.87 0 .36-.12.7-.35.84-.22.15-.45.2-.7.2ZM38.14 28.06l.43.83c.06.12.18.15.27.06.1-.08.12-.24.05-.36l-.34-.66a7.42 7.42 0 0 1-.4.13ZM20.52 26H20v2.74c0 .17.09.26.26.26s.26-.1.26-.26V26ZM20.9 26.47h.87c.15 0 .23-.09.23-.24s-.08-.23-.23-.23h-.87v.47ZM18.73 26h.89v.47h-.89c-.15 0-.23-.09-.23-.24s.08-.23.23-.23ZM25.95 28.43c.13.24-.01.57-.25.57-.1 0-.2-.06-.26-.17l-.83-1.6h.72l.62 1.2Z" fill="#FCFCFC"/><path d="m25.09 26.77-.83-1.6c-.12-.23-.4-.23-.52 0l-.83 1.6h.72l.37-.7.37.7h.72ZM23.39 27.23l-.83 1.6c-.06.1-.15.17-.26.17-.24 0-.38-.33-.25-.57l.62-1.2h.72Z" fill="#FCFCFC"/></svg>