<?xml version='1.0' encoding='utf-8'?>
<!-- by TradeStack -->
<svg width="56" height="56" viewBox="0 0 56 56" xmlns="http://www.w3.org/2000/svg"><path fill="url(#a2hadeqpq)" d="M0 0h56v56H0z" /><path d="M29.5 21.49c.03.17.1.42.35.65.14.12.37.17.71.87.02.07.09.22.19.05l.26-.47.4-.5c.39-.48.2-.97.04-1.03-.03-.02-.06-.07-.08-.16-.02-.08-.02-.16-.02-.23.02-.3-.02-.49-.15-.67-.14-.18-.28.02-.38-.2-.1-.22-.2-.45-.4-.5-.2-.05-.3.28-.36.52-.02.08-.05.13-.09.13-.05 0-.2-.05-.27.13-.16.4.09.82-.04.86-.13.06-.22.27-.17.55Zm-.1 6.28c.7-.56.94-.49 1.14-.54.36-.1.57-.32.67-.47.2-.27.21-.48.09-.62-.09-.08.34-.38.4-.85.01-.23-.16-.23-.21-.27-.04-.02-.04-.08-.02-.17.05-.25.1-.62-.1-.67-.2-.05-.41.14-.64.3-.2.17-.24-.08-.46.04-.2.12-.35.28-.48.59a.63.63 0 0 1-.14.21c-.07.09-.12.12-.17.12-.2-.02-.6.38-.47 1.04l.16.68.03.57c0 .22.15.1.2.04Zm-5.67-3.12.51-.2c.12-.03.33-.06.64-.15.62-.15.8-.63.72-.78-.01-.04-.01-.1.04-.19a.6.6 0 0 1 .13-.2c.21-.22.31-.4.31-.62.02-.23-.22-.17-.15-.4.05-.25.14-.49.02-.64-.12-.15-.42.04-.62.19-.07.05-.12.06-.16.05-.05-.04-.12-.17-.3-.07-.39.24-.47.69-.6.65-.15-.05-.34.05-.5.32-.08.15-.18.4-.13.74.03.18.19.35-.02 1.14-.05.08-.1.25.1.16Zm5.02-2.19c-.1-.22-.27-.03-.34-.28s-.12-.5-.31-.59c-.2-.08-.36.23-.48.45-.04.09-.09.12-.12.12-.07-.02-.21-.1-.31.08-.25.39-.09.86-.21.87-.17.04-.3.22-.3.52 0 .19.02.45.25.74.12.15.34.23.55 1.04 0 .06.05.25.19.08l.36-.42.52-.43c.5-.44.4-.97.25-1.06-.03-.01-.05-.08-.06-.18l.01-.24c.1-.28.1-.5 0-.7Zm1.33-6.06c-.05.2 0 .39.14.64.01.05.05.13.06.2.02.08.02.15-.01.17-.12.11-.07.6.46.88.28.14.45.22.55.29 0-.02.23.15.42.3.15.12.15-.05.15-.12 0-.75.19-.88.26-1.04.14-.3.1-.55.05-.7-.07-.28-.22-.42-.38-.4-.1 0-.07-.44-.38-.74-.13-.15-.24-.03-.3-.01-.04.01-.08-.02-.14-.09-.16-.18-.38-.42-.54-.3-.15.12-.14.35-.14.59.04.23-.15.1-.2.33Zm1.86 6.46c-.07.2.1.39.24.6.14.2-.1.22 0 .44.08.2.26.33.53.47l.2.13c.06.07.1.12.1.17-.04.17.32.57.98.49.32-.05.53-.09.67-.09-.02 0 .29 0 .56.02.21 0 .1-.14.06-.19-.49-.67-.4-.88-.45-1.07a1.15 1.15 0 0 0-.41-.65c-.25-.2-.47-.22-.59-.12-.09.07-.34-.33-.8-.41-.22-.04-.23.11-.27.16-.01.04-.07.04-.17 0-.26-.06-.6-.13-.65.05Zm-1.35 6.35.06.77c.05.75.62 1.03.8.97.06-.02.13 0 .21.06.09.05.17.14.2.19.23.28.44.43.7.48.27.05.24-.22.51-.11.3.11.55.25.78.13.2-.12.03-.49-.1-.75-.06-.1-.06-.17-.04-.19.05-.05.24-.12.14-.35-.2-.48-.74-.67-.7-.79.1-.16 0-.41-.28-.63-.18-.12-.45-.3-.86-.3-.23 0-.47.15-1.36-.24-.07-.05-.26-.13-.21.1.09.34.17.67.15.66Zm2.33-8.47.07.53c.01.2.15.09.19.04.62-.56.84-.5 1.03-.57.34-.12.52-.34.6-.49.17-.25.17-.47.05-.58-.08-.09.3-.39.31-.82 0-.22-.15-.22-.2-.24-.04-.02-.04-.07-.04-.15.04-.25.07-.58-.14-.62-.2-.03-.37.15-.58.32-.2.17-.24-.07-.45.05-.19.12-.3.28-.41.59l-.1.21c-.06.09-.1.12-.16.12-.17 0-.53.39-.36 1 .1.29.17.49.19.6Zm.29-3.55c0 .07 0 .23.16.12l.43-.36.56-.33c.55-.33.57-.85.45-.97-.03-.03-.03-.08-.03-.18a.65.65 0 0 1 .07-.22c.12-.27.17-.49.1-.69-.07-.23-.26-.08-.28-.33-.01-.25-.01-.5-.19-.62-.17-.12-.4.15-.53.35-.05.07-.1.1-.14.1-.05-.02-.17-.13-.32.03-.3.34-.25.8-.35.8-.17 0-.33.16-.38.46-.03.17-.05.43.1.75.1.15.3.29.35 1.09Zm-12.29 5.24c.05.13.14.35.4.52.13.08.34.1.72.68.02.05.1.19.17.02.09-.2.17-.44.17-.44l.3-.48c.27-.47.07-.87-.09-.9-.03 0-.07-.06-.1-.14a.5.5 0 0 1-.05-.2.91.91 0 0 0-.21-.57c-.16-.15-.24.03-.36-.13-.12-.19-.23-.37-.42-.39-.17-.01-.22.29-.25.49-.02.08-.04.11-.06.11-.05.02-.19-.03-.22.16-.09.36.17.7.09.75-.12.08-.18.27-.09.52Zm21.8 2.56c.2-.15.4-.29.4-.49s-.34-.21-.6-.23c-.08 0-.14-.02-.15-.05-.02-.05.01-.2-.2-.24-.46-.05-.82.25-.87.17-.09-.13-.3-.17-.58-.05-.16.07-.4.2-.57.49-.09.15-.09.38-.73.87-.06.03-.2.13 0 .18l.52.15.59.27c.58.27 1.03-.02 1.05-.18 0-.04.05-.09.13-.12a.67.67 0 0 1 .23-.07c.29-.05.5-.13.63-.28.18-.19-.05-.27.14-.42Zm-4.1-5.78c-.14-.03-.33.07-.43.34-.07.15-.16.38-.07.68.03.17.19.32.07 1.04-.02.07-.06.22.12.14l.44-.22c.12-.03.3-.08.59-.19.57-.18.69-.65.6-.77-.02-.03-.02-.08.02-.16l.1-.19c.17-.21.26-.38.24-.58 0-.22-.2-.14-.17-.35.03-.24.09-.46-.03-.59-.14-.13-.38.07-.56.22-.06.05-.12.07-.13.05-.05-.04-.12-.15-.3-.04-.34.2-.4.64-.5.62Zm.55 4.09c-.16-.12-.4-.04-.64.03s-.17-.17-.41-.15c-.23.02-.4.12-.62.32a.9.9 0 0 1-.2.13c-.08.04-.15.05-.18.04-.16-.09-.66.1-.78.7l-.13.62-.2.5c-.06.18.1.13.16.12.78-.22.96-.07 1.15-.05.35.05.59-.07.74-.15.26-.15.37-.34.31-.49-.03-.1.43-.2.66-.57.1-.18-.04-.25-.07-.3-.02-.02 0-.08.05-.15.14-.2.33-.49.16-.6Zm.43-.99c-.14.13.01.17.08.15.78.12.88.32 1.04.4.27.17.55.17.7.15.3-.03.45-.15.47-.3.01-.1.46-.01.8-.25.18-.12.07-.23.06-.28 0-.04.03-.07.1-.12.2-.12.48-.3.4-.47-.09-.17-.33-.18-.59-.22-.24-.03-.09-.2-.3-.28-.2-.07-.39-.05-.66.05a.78.78 0 0 1-.23.03c-.08 0-.15-.01-.17-.03-.1-.14-.6-.17-.96.32-.2.23-.3.4-.38.5l-.36.35Zm-10.26 7.15c-.04-.25-.17-.46-.43-.69a1.24 1.24 0 0 1-.17-.22c-.06-.08-.07-.16-.06-.2.09-.18-.17-.73-.9-.83l-.77-.1-.62-.19c-.22-.07-.15.12-.12.18.31.88.16 1.1.14 1.33-.03.4.12.67.24.83.2.29.45.39.62.32.12-.05.28.49.76.7.22.1.3-.06.36-.1.04-.01.09-.01.19.04.26.15.62.33.74.13.14-.2.02-.45-.09-.73-.13-.27.16-.2.1-.47ZM20.6 31c.17.17.47.1.78.07.29-.03.17.22.46.23.26.02.5-.08.8-.28.04-.03.15-.1.25-.13.1-.04.19-.04.22-.02.18.12.8-.02 1.05-.72.14-.35.21-.59.26-.72-.02 0 .16-.28.31-.55.12-.22-.08-.19-.17-.15-.96.13-1.15-.07-1.38-.14a1.4 1.4 0 0 0-.91.07c-.34.13-.48.35-.45.54.04.13-.55.16-.88.58-.15.2 0 .3.04.37.02.03 0 .1-.09.17-.19.2-.46.52-.29.68Zm5.85-5.42c-.03-.2-.4-.17-.65-.13-.09.01-.16 0-.17-.04-.04-.05-.02-.21-.26-.2-.47.02-.78.4-.86.32-.12-.12-.35-.12-.62.05-.16.1-.38.27-.5.6-.07.19-.02.42-.59 1.02-.05.05-.19.17.04.2l.57.07.65.19c.64.16 1.05-.2 1.05-.37 0-.04.03-.1.12-.15.07-.05.16-.1.22-.12.3-.1.49-.22.6-.4.14-.2-.11-.25.06-.44.19-.21.38-.4.34-.6Zm8.7-3.6c.06.17.25.3.24 1.09-.02.07-.02.23.15.12.2-.15.45-.32.45-.3l.58-.29c.57-.27.64-.79.52-.9-.03-.04-.03-.1-.02-.19a.65.65 0 0 1 .09-.21c.15-.25.2-.46.17-.67-.03-.24-.24-.1-.24-.35 0-.26.03-.49-.14-.62-.15-.12-.4.11-.55.3-.05.06-.1.1-.14.08-.05-.02-.15-.13-.3 0-.33.3-.3.77-.42.75-.15-.01-.33.14-.41.42a1 1 0 0 0 .02.77Zm1.01-3.55c.24-.08.53-.16.52-.15.12-.01.32-.05.65-.08.64-.08.86-.55.78-.7-.02-.04 0-.1.05-.19l.15-.18c.23-.2.35-.37.38-.59.04-.23-.2-.18-.12-.4.09-.23.19-.45.07-.62-.1-.17-.41 0-.64.12-.07.05-.13.05-.15.03-.05-.03-.1-.18-.3-.08-.4.18-.53.64-.63.6-.16-.07-.35.02-.52.27-.1.13-.22.38-.2.72.01.18.15.37-.13 1.12-.05.03-.1.18.1.13Zm-1.7 10.13c.17-.07.32-.25 1.15-.18.07.01.24.03.14-.16l-.3-.45-.27-.6c-.26-.59-.8-.67-.93-.55-.03.03-.1.03-.19 0a.68.68 0 0 1-.22-.1 1.05 1.05 0 0 0-.7-.2c-.23.03-.11.23-.37.23-.26-.02-.52-.05-.65.1-.14.15.1.4.29.57.07.07.08.12.08.13-.03.05-.15.16 0 .32.3.34.8.34.78.44-.02.15.12.33.41.42.16.08.43.15.78.03Zm-15.12.99c-.34.06-.74.15-.72.15l-.9.03c-.85.05-1.22.65-1.13.87.02.05-.02.14-.09.24a.9.9 0 0 1-.22.21c-.33.24-.5.46-.57.74-.07.3.26.27.12.57-.13.3-.3.6-.17.84.14.23.57.05.86-.09.1-.05.2-.07.22-.03.06.05.13.25.4.15.57-.2.8-.8.93-.72.19.1.48.02.74-.3.16-.19.36-.49.36-.94 0-.25-.15-.52.31-1.49.05-.08.14-.3-.14-.23Zm2.35-2c.18-.26.2-.48.08-.61-.08-.09.35-.39.38-.86.02-.23-.16-.23-.2-.27-.04-.01-.04-.08-.02-.16.05-.25.1-.62-.1-.67-.21-.05-.42.13-.63.3-.2.17-.24-.08-.46.03-.2.12-.35.29-.47.59a.63.63 0 0 1-.13.22c-.07.08-.12.11-.18.11-.19-.01-.6.39-.44 1.04l.15.67.04.57c.01.22.15.1.2.05.67-.55.93-.49 1.12-.54.35-.1.55-.31.66-.46Zm-5.98 1.03c-.86.01-1.01-.17-1.19-.25a1.24 1.24 0 0 0-.8-.04c-.31.09-.47.25-.45.42.02.12-.5.1-.83.44-.15.16-.03.26 0 .31.02.04-.02.09-.08.14-.21.16-.47.42-.33.57.14.16.4.13.67.13.26 0 .12.2.38.25.22.03.45-.02.72-.17a.66.66 0 0 1 .24-.08c.1-.02.17-.02.2.02.13.11.68.05.97-.54l.31-.6.33-.45c.12-.17-.07-.17-.14-.15ZM14.53 18.5s.99-1.72 2.45-1.99c0 0 1.15-.18 2.1-1.74.1-.17.2-.34.33-.49.36-.43.74-.28.74-.28-.4-.55-.95-.62-1.31-.45-.24.11-.35.23-.5.37a.28.28 0 0 0-.04-.09l-.06-.27c-.02-.08-.02-.16-.02-.25.02-.23.08-.4.24-.62 0 0-.67-.1-1.22.96.27.3.55.45.75.48-.34.14-.7-.15-.7-.15-.9-.68-.93-1.86-.93-1.86-1.22 1.23-.17 2.77-.17 2.77s.6.68-.21 1.23c-.84.57-1.58.8-1.58.8l-.98.3c1.08.13 1.98-.26 1.98-.26-.66.52-.87 1.54-.87 1.54Zm19.9 13.57c-.96 0-1.95.38-2.85.67-.1.05-.28.07-.28.07.02-.03.07-.18.15-.23.66-.34.71-.56.71-.56-.22-.16-.33-.01-.69-.31-1.23.86-1.68 1.58-2.56 2.66-.16.2-.07-.59-.07-.59 0-.3-.2-2.44-.28-2.38-.1.09-.75-.05-1.01-.13-.2-.07-.38-.02-.54.13-.32.36-.19 2.08-.01 2.55.07.18-.09.42-.07.3 0-1.24-2.54-2.71-3.48-2.9-.05.17-.36.34-.36.34.22.05.48.32.64.45.24.19.24.17.36.3l.1.15s-.19.02-.65-.13a9.1 9.1 0 0 0-3.1-.19l.1.47s.78.02 1 .12c.22.1.8.3 1.62.44 1.15.16 1.6 1.2 2.58 1.62.19.08.43.9.43.9s-.36-.48-.36-.43c0 .31-.07 2.31.14 2.5.06.05.12-.33.29-.06 0 0-.17.2-.28.4-.17.3-.15.74-.15.74 0 .62-.62 1.77-.33 2.34.05.12-.08.17-.08.17-1.29.42-2.13 1.18-3.53 1.3-.2.04-.24.22-.2.34.17.31 2.4-.11 2.56-.13.65-.1 1.29-.26 1.72-.46.87-.43 1.29.4 1.89.62.3.12 1.69 1.1 1.91.77.32-.48-1.26-1.09-1.26-1.49-.01-.15.26-.13.26-.13 1.08.02 2 .57 3.13.65.93.07 1.75-.01 1.98-.05 0 0 .08-.05.07-.13-.07-.28-1.51-.34-2.97-1.14a9.46 9.46 0 0 1-.9-.55c.25-.47-.18-2.48-.4-3.1-.03-.08-.08.07-.08.07s0 .08-.12.23c-.09.12-.07-.6.12-1.05.19-.45 0-1.2.03-1.37.02-.1.2-.54.3-.86.19-.59 1.13-1.23 1.65-1.44.88-.33 1.73-.62 2.63-.87.12-.01.14-.01.12-.2-.02-.18.26-.5.26-.5s0 .08-.14.08Zm9.54-4.41c-.14-.2-.45-.22-.76-.26-.3-.03-.12-.26-.41-.33-.26-.08-.52-.03-.86.1a.66.66 0 0 1-.28.07c-.12.01-.19 0-.22-.04-.14-.16-.8-.16-1.22.49l-.43.67-.45.48c-.17.19.05.2.14.2 1 .09 1.15.34 1.36.44.37.2.72.18.93.15.37-.05.56-.23.58-.43 0-.14.59-.05 1.02-.39.2-.17.06-.3.05-.37-.02-.03.03-.1.12-.15.22-.18.57-.43.43-.63Zm-24.34-3.38c.22.01.22-.16.24-.2.02-.04.07-.04.16-.04.25.03.6.08.63-.12.04-.2-.14-.36-.3-.57-.18-.18.08-.21-.06-.43-.12-.18-.3-.3-.58-.42a.9.9 0 0 1-.21-.12c-.07-.05-.12-.1-.12-.15.02-.16-.38-.53-1.02-.38l-.65.17-.55.05c-.2.01-.09.15-.04.18.55.6.5.84.55 1 .1.34.33.5.49.6.25.17.48.17.6.07.1-.05.41.34.86.36ZM41.87 32c.03-.05.19-.12.08-.3-.2-.39-.67-.5-.63-.6.05-.15-.04-.34-.3-.5-.15-.09-.4-.22-.74-.19-.18.02-.37.15-1.15-.08-.07-.04-.22-.09-.15.1.08.23.19.5.17.5.03.12.05.32.1.64.1.61.6.82.76.73.03-.02.1 0 .19.04.07.03.15.1.19.13.2.22.4.32.6.33.24.04.17-.2.41-.13.24.07.49.17.66.05.17-.12-.02-.4-.14-.6-.05-.04-.07-.09-.05-.12ZM28.03 15.35c0-.02.09.3.14.58.05.22.17.09.22.02.59-.65.84-.62 1.02-.7.34-.15.5-.4.58-.57.14-.3.1-.54-.03-.65-.1-.09.26-.44.22-.94-.02-.24-.19-.22-.26-.25-.03-.02-.05-.07-.05-.17 0-.27-.02-.65-.24-.67-.22-.02-.4.2-.57.4-.17.2-.26-.06-.46.1-.2.14-.3.35-.36.67l-.09.24c-.05.08-.1.13-.14.13-.19 0-.53.47-.26 1.12l.28.69Zm9.57 16.13c-.05-.1-.07-.18-.03-.22.1-.18-.13-.78-.92-.95l-.8-.17c.01.02-.33-.11-.64-.23-.24-.1-.2.12-.14.18.27.96.09 1.17.05 1.4-.07.43.09.73.19.91.19.32.43.45.62.39.14-.05.26.53.74.8.24.13.33-.05.38-.08.03-.02.1 0 .19.05.26.16.62.4.77.2.16-.2.05-.49-.03-.79-.09-.28.2-.2.19-.5-.02-.27-.16-.49-.42-.75-.03-.05-.1-.14-.15-.24Zm1.3-4.92c-.72.3-.9.19-1.08.19-.32 0-.55.13-.69.23-.22.17-.29.37-.22.5.05.1-.38.25-.55.64-.07.18.07.23.1.27.02.01.02.06-.01.15-.1.2-.24.5-.07.6.17.1.38-.02.62-.1.22-.09.19.13.41.08.2-.05.36-.17.55-.38l.17-.15c.07-.05.14-.07.18-.05.15.06.6-.19.65-.77l.03-.6.12-.5c0-.2-.15-.14-.2-.1ZM16.66 27.7c.09.22.28.07.31.3.04.25.07.5.24.6.2.1.38-.18.5-.4.05-.08.09-.12.12-.1.05.02.2.12.31-.07.26-.35.16-.82.28-.83.17-.02.3-.19.34-.49a1.1 1.1 0 0 0-.17-.73c-.1-.16-.31-.27-.45-1.06 0-.07-.02-.23-.17-.1l-.4.39-.53.38c-.52.37-.5.9-.34 1 .03.02.05.09.05.19a.8.8 0 0 1-.05.23c-.1.29-.12.49-.04.69Zm7.89-12.34c.05.17.17.42.46.6.15.1.4.12.84.8.04.06.12.21.2.01l.18-.5c.05-.12.17-.29.33-.57.33-.55.07-1.02-.1-1.05a.3.3 0 0 1-.12-.16.64.64 0 0 1-.06-.23c-.01-.3-.08-.5-.25-.65-.18-.17-.28.05-.42-.15-.14-.22-.27-.44-.48-.45-.2-.02-.26.31-.3.56 0 .09-.03.14-.06.15-.05.02-.22-.03-.26.19-.09.43.2.82.1.87-.1.08-.17.3-.06.58Zm2 3.92.18.64c0-.02.04.28.05.53.02.2.16.09.2.04.61-.54.85-.49 1.03-.56.34-.11.51-.31.61-.46.18-.26.18-.47.06-.6-.09-.07.3-.36.32-.81.02-.22-.15-.22-.2-.23-.04-.02-.04-.07-.04-.16.04-.25.07-.58-.12-.63-.19-.05-.38.13-.58.32-.2.16-.23-.09-.45.05-.19.11-.31.28-.41.57a.87.87 0 0 1-.12.2c-.06.06-.1.11-.16.11-.14-.01-.52.37-.36 1Zm-4.69-3.5c.02.09 0 .14-.02.17-.12.1-.1.59.45.89.28.15.45.23.55.3 0-.02.22.17.41.32.16.11.16-.04.16-.1.03-.74.22-.84.3-1a.93.93 0 0 0 .1-.68c-.07-.27-.21-.42-.38-.42-.1 0-.07-.43-.35-.73-.14-.15-.26-.05-.3-.04-.04.02-.08-.01-.13-.08-.14-.18-.36-.43-.51-.33-.16.1-.16.33-.18.55-.01.22-.2.1-.25.3-.06.18-.02.38.12.64 0 .06.03.13.03.21Zm1.77 3.97c.12.27.23.45.26.55l.14.49c.05.18.15.05.19 0 .48-.6.7-.59.86-.67.3-.15.41-.39.48-.54.12-.27.09-.47-.05-.55-.09-.07.22-.4.17-.8-.02-.2-.17-.17-.22-.19-.04 0-.05-.05-.05-.13 0-.24-.04-.55-.23-.55s-.33.2-.48.38c-.15.19-.22-.03-.4.12-.15.13-.24.32-.29.58-.02.05-.03.14-.07.2a.24.24 0 0 1-.12.14c-.17.02-.45.43-.19.97Zm-3.99-2.24c.03.08.05.13.03.15-.03.03-.19.1-.1.28.17.4.62.55.57.65-.07.14 0 .34.24.52.14.1.38.25.72.25.2 0 .4-.11 1.14.19.05.03.22.1.17-.08a3.03 3.03 0 0 1-.12-.52c-.02-.12-.02-.32-.05-.64-.05-.62-.52-.87-.69-.8-.03.01-.1 0-.17-.05a1.7 1.7 0 0 1-.17-.15 1.03 1.03 0 0 0-.57-.4c-.24-.06-.2.18-.43.1-.26-.1-.48-.22-.66-.12-.17.1-.03.4.09.62Zm-3 2.32c.14.17.35.27.64.32.05.02.16.03.23.09.08.05.13.08.13.13.02.17.47.47 1.07.23.31-.11.5-.21.62-.25l.55-.13c.2-.05.07-.17 0-.2-.64-.52-.62-.76-.7-.92-.16-.3-.4-.45-.57-.52-.28-.14-.5-.1-.6.03-.07.1-.44-.23-.88-.2-.23.02-.2.18-.23.24-.01.03-.07.05-.15.05-.26 0-.62.01-.62.21 0 .2.2.35.4.52.18.15-.04.22.11.4Zm-.1 4.05c.22 0 .1-.13.05-.18-.5-.67-.41-.9-.46-1.09a1.05 1.05 0 0 0-.43-.65c-.24-.2-.48-.22-.6-.12-.1.07-.37-.33-.83-.42-.22-.03-.24.14-.28.19-.01.03-.08.03-.17.01-.26-.06-.6-.13-.67.07-.07.2.1.4.26.6.15.2-.1.22 0 .46.1.2.26.35.55.48l.2.13c.07.07.1.12.1.17-.03.17.35.59 1 .49l.7-.1c0-.05.3-.05.58-.04Zm-2.84 3c.17.05.43.12.76.02.17-.05.33-.24 1.13-.17.07.02.25.03.14-.14-.14-.21-.29-.45-.27-.45l-.24-.58c-.25-.57-.78-.67-.9-.56-.03.04-.1.02-.19 0a.47.47 0 0 1-.2-.1c-.26-.16-.45-.23-.68-.2-.24.04-.12.24-.38.22-.25-.02-.5-.07-.63.08-.16.14.08.39.26.56.07.06.08.11.07.13-.04.05-.16.15-.02.3.3.34.77.34.76.45-.02.17.12.34.4.44Z" fill="#F0F3FA" /><defs><linearGradient id="a2hadeqpq" x1="28" y1="0" x2="28" y2="56" gradientUnits="userSpaceOnUse"><stop stop-color="#5BB106" /><stop offset="1" stop-color="#167016" /></linearGradient></defs></svg>