<!-- by TradeStack --><svg width="56" height="56" viewBox="0 0 56 56" xmlns="http://www.w3.org/2000/svg"><path d="M0 28a28 28 0 1 1 56 0 28 28 0 1 1-56 0Z" fill="#F0F3FA"/><path d="M41.38 23.55s.62-.04.97 0c.12 0 .2-.08.12-.12l-.5-.13-.55-.12a4.96 4.96 0 0 1-1.36.12 8.15 8.15 0 0 0-2.54-.17c-.15.01-.26.02-.34 0a19.2 19.2 0 0 0-2.24-.07.62.62 0 0 0-.16-.04s-.31-.21-.94-.37c-.11-.04-.38-.2-.42-.3-.04-.03-.08-.28-.04-.36h.04c.13 0 .42.02.42-.12v-.25l.08-.12-.04-.04c.12 0 .04-.13.04-.13v-.16l.16-.04s.04 0 .04-.04 0-.04-.04-.08l-.12-.21-.12-.2c.04-.3.02-.54-.15-.78-.28-.4-.87-.52-1.32-.41-.35.04-.74.24-.86.82-.03.16 0 .9.47 1.3.08.09.04.79 0 .87-.04.08-.35.25-.47.29-.62.16-.93.37-.93.37s-.81.12-.74 1.3c0 0-.03.17-.03.38l-.04.16c-.08.95-.08 1.36-.04 2.05l-.03.27c-.06.41-.18 1.21.07 2.56 0 0 .04.5 0 .58l-.16.74v.2c0 .28.22.56.33.7l.06.08c.04.08.2.04.12-.08-.24-.29-.16-.9-.16-.9s.12-.25.12-.08c0 .16.04.32.04.32s.07.25.15.04v-.24l.04-.41c0-.08-.08-.54-.08-.54s.04-.65.16-1.1c.23-.82.2-1.4.15-1.77v-.28c.16-.37.2-1.85.2-1.97.08-.3.15 0 .15 0l.04 2.3-.35 1.8c-.17.93-.07 1.88.03 2.81l.05.47s.2.86.43 1.52c0 .2.02.38.04.57.02.2.04.38.04.58a7.1 7.1 0 0 0 .42 2.91c.08.16.05.44.02.69l-.02.3c-.12.17-.55.79-.3.98H10V16h36v24H35.13s.11-.37-.08-.37c-.2 0-.41-.14-.61-.28a2 2 0 0 0-.36-.21c-.13-.03-.28-.23-.35-.32l-.04-.05c-.12-.16-.04-.7 0-.82l.1-.43c.15-.57.36-1.36.33-2.48 0-.2.02-.37.04-.56l.03-.55c.24-.66.43-1.52.43-1.52l.06-.51a9.04 9.04 0 0 0 0-2.93l.06.24c.11.45.15 1.1.15 1.1s-.07.42-.07.54l.03.37s-.03.16 0 .25c.08.2.16-.04.16-.04s.04-.2.04-.33.12.04.12.04.07.61-.16.9c-.12.08.04.17.12.08 0 0 .38-.45.38-.78l.12-.16-.15-.74v-.57c.21-1.36.11-2.16.06-2.57l-.03-.26c.03-.43 0-.76-.02-1.2l-.05-.86-.04-.57-.93.78.02.76c0 .53.01 1.02.1 1.2v.3c-.03.27-.06.62 0 1.06-.1-.55-.24-1.19-.24-1.19l.12-2.34s0-.04.07-.08l.9-.79v.01c.58 0 1.55 0 1.78-.08h.39c.38.05.94.11 1.71-.08.47-.12 1.13-.12 1.13-.12.34.05.63.08.97.04 0 0 .2.04.27 0 .2-.09-.04-.17-.04-.17s-.23-.04-.35-.04c-.12 0 .08-.12.08-.12Zm-6.7 5.42Zm.76-4.86c-.07-.41-.18-.9-.62-1.05h.12c.21.08.55.3.57.98l-.07.07Zm4.54 4.85c.23.05.66.58.66.58.12.04.12 0 .12-.12 0 0-.04-.13-.27-.41l-.24-.33a7.3 7.3 0 0 1-1.05-.82c-.8-1.07-1.44-1.56-1.78-1.82a2.2 2.2 0 0 1-.3-.27c-.43-.5-.75-.85-1.45-1.4l-.23-.2.07 1.51.3.26c.31.27.62.54.8.6l.1.1c.06.05.1.09.13.1.23.34.62.75 1.35 1.16.4.2.9.65.9.65.18.28.37.53.66.7 0 0 .11.12.2.17.19.08.07-.13.07-.13l-.2-.28c-.07-.13 0-.13.16-.05Zm-7.34 1.8c0-.07-.04-.07-.04-.07s-.04 0-.08.12v.06c.01.38.03 2.3-.07 2.9v1.35s.11.65.11 1.1l-.04 1.12c-.03.62-.06 1.26-.03 1.3.02.07.01.18 0 .24v.05c-.04.13.03.58.11.54.04-.04.12-.5.12-.62.03-.18.01-.3 0-.37v-.08c-.04-.37-.08-1.68-.08-2.17 0-.46.12-1.11.12-1.11v-.7l-.02-.24-.02-.17v-.29c-.08-.33-.08-2.87-.08-2.95Z" fill="#E82429"/></svg>