<?xml version='1.0' encoding='utf-8'?>
<!-- by TradeStack -->
<svg width="56" height="56" viewBox="0 0 56 56" xmlns="http://www.w3.org/2000/svg"><path fill="#F0F3FA" d="M0 0h56v56H0z" /><path d="M14.88 37c-3.41-4.4 3.98-12.86 7.32-15.9 3.34-3.04 12.51-9.65 16.8-6.06-5.16-1.16-11.78 2.67-16.07 6.82-4.54 3.89-8.9 10.05-8.05 15.14Z" fill="url(#arxe4eqr5)" /><path d="M41.12 37c3.41-4.4-3.98-12.86-7.32-15.9-3.34-3.04-12.51-9.65-16.8-6.06 5.16-1.16 11.78 2.67 16.07 6.82 4.54 3.89 8.9 10.05 8.05 15.14Z" fill="url(#brxe4eqr5)" /><path d="M12 28c.59-4.87 11.57-6 16-6s15.41 1.13 16 6c-2.86-3.8-10.14-5.23-16-5.07-5.86-.16-13.14 1.26-16 5.07Z" fill="url(#crxe4eqr5)" /><path d="M40.35 15c1.44 3.7-2.04 10.84-8.27 16.72-6.23 5.89-13.51 8.92-17.08 7.22.38.41.75.8 1.13 1.23 3.52 3.8 12.05 1.5 19.05-5.1 7-6.62 9.82-15.05 6.3-18.85L40.35 15Z" fill="url(#drxe4eqr5)" /><path d="M15.65 15c-1.44 3.7 2.04 10.84 8.27 16.72 6.23 5.89 13.51 8.92 17.08 7.22-.38.41-.75.8-1.13 1.23-3.52 3.8-12.05 1.5-19.05-5.1-7-6.62-9.82-15.05-6.3-18.85L15.65 15Z" fill="url(#erxe4eqr5)" /><path d="M45 29c-1.43 3.67-8.64 6.46-17 6.46S12.43 32.67 11 29v1.66C11 35.82 18.61 40 28 40s17-4.18 17-9.34V29Z" fill="url(#frxe4eqr5)" /><defs><linearGradient id="arxe4eqr5" x1="35.17" y1="11.06" x2="11.68" y2="33.68" gradientUnits="userSpaceOnUse"><stop stop-color="#815B33" /><stop offset=".08" stop-color="#724D2F" /><stop offset=".29" stop-color="#E9C37E" /><stop offset=".58" stop-color="#7A5538" /><stop offset=".69" stop-color="#F9E788" /><stop offset=".91" stop-color="#65481D" /></linearGradient><linearGradient id="brxe4eqr5" x1="20.83" y1="11.06" x2="44.32" y2="33.68" gradientUnits="userSpaceOnUse"><stop stop-color="#815B33" /><stop offset=".08" stop-color="#724D2F" /><stop offset=".29" stop-color="#E9C37E" /><stop offset=".58" stop-color="#7A5538" /><stop offset=".69" stop-color="#F9E788" /><stop offset=".91" stop-color="#65481D" /><stop offset="1" stop-color="#7A512A" /></linearGradient><linearGradient id="crxe4eqr5" x1="44" y1="23.15" x2="12" y2="23.15" gradientUnits="userSpaceOnUse"><stop stop-color="#815B33" /><stop offset=".08" stop-color="#724D2F" /><stop offset=".29" stop-color="#E9C37E" /><stop offset=".58" stop-color="#7A5538" /><stop offset=".69" stop-color="#F9E788" /><stop offset=".91" stop-color="#65481D" /><stop offset="1" stop-color="#7A512A" /></linearGradient><linearGradient id="drxe4eqr5" x1="41.79" y1="16.55" x2="16.23" y2="40.26" gradientUnits="userSpaceOnUse"><stop stop-color="#815B33" /><stop offset=".08" stop-color="#724D2F" /><stop offset=".29" stop-color="#E9C37E" /><stop offset=".58" stop-color="#7A5538" /><stop offset=".69" stop-color="#F9E788" /><stop offset=".91" stop-color="#65481D" /><stop offset="1" stop-color="#7A512A" /></linearGradient><linearGradient id="erxe4eqr5" x1="14.21" y1="16.55" x2="39.77" y2="40.26" gradientUnits="userSpaceOnUse"><stop stop-color="#815B33" /><stop offset=".08" stop-color="#724D2F" /><stop offset=".29" stop-color="#E9C37E" /><stop offset=".58" stop-color="#7A5538" /><stop offset=".69" stop-color="#F9E788" /><stop offset=".91" stop-color="#65481D" /><stop offset="1" stop-color="#7A512A" /></linearGradient><linearGradient id="frxe4eqr5" x1="45" y1="31.11" x2="11" y2="31.11" gradientUnits="userSpaceOnUse"><stop stop-color="#815B33" /><stop offset=".08" stop-color="#724D2F" /><stop offset=".29" stop-color="#E9C37E" /><stop offset=".58" stop-color="#7A5538" /><stop offset=".69" stop-color="#F9E788" /><stop offset=".91" stop-color="#65481D" /><stop offset="1" stop-color="#7A512A" /></linearGradient></defs></svg>