<?xml version='1.0' encoding='utf-8'?>
<!-- by TradeStack -->
<svg width="56" height="56" viewBox="0 0 56 56" fill="none" xmlns="http://www.w3.org/2000/svg">
<rect width="56" height="56" fill="#F0F3FA" />
<path d="M8 34V23H15V25H10V28H15V30H10V34H8Z" fill="black" />
<path d="M26.4936 27H24.4269C24.2403 25.9849 23.7223 25.171 22.7028 24.8769C22.4044 24.7863 22.082 24.741 21.7357 24.741C21.1205 24.741 20.5753 24.8874 20.1001 25.1801C19.6248 25.4694 19.2527 25.8946 18.9838 26.4558C18.7149 27.0135 18.5804 27.6949 18.5804 28.5C18.5804 29.3191 18.7149 30.0092 18.9838 30.5703C19.2564 31.128 19.6285 31.5497 20.1001 31.8356C20.5753 32.1179 21.1187 32.259 21.7302 32.259C22.0691 32.259 22.386 32.2172 22.6807 32.1336C23.7196 31.8302 24.2207 31.0326 24.4269 30H26.4936C26.2265 31.757 25.2854 33.1131 23.5427 33.7177C22.9901 33.9059 22.3768 34 21.7026 34C20.7079 34 19.8201 33.7822 19.0391 33.3465C18.2581 32.9108 17.6429 32.2817 17.1934 31.4591C16.744 30.6366 16.5192 29.6502 16.5192 28.5C16.5192 27.3463 16.7458 26.3599 17.1989 25.5409C17.6521 24.7183 18.2691 24.0892 19.0501 23.6535C19.8311 23.2178 20.7153 23 21.7026 23C22.3325 23 22.9183 23.0837 23.4598 23.251C25.2018 23.7891 26.2392 25.2104 26.4936 27Z" fill="black" />
<path d="M37.7468 27H35.6801C35.4935 25.9849 34.9755 25.171 33.956 24.8769C33.6576 24.7863 33.3352 24.741 32.989 24.741C32.3737 24.741 31.8285 24.8874 31.3533 25.1801C30.878 25.4694 30.506 25.8946 30.237 26.4558C29.9681 27.0135 29.8336 27.6949 29.8336 28.5C29.8336 29.3191 29.9681 30.0092 30.237 30.5703C30.5096 31.128 30.8817 31.5497 31.3533 31.8356C31.8285 32.1179 32.3719 32.259 32.9834 32.259C33.3224 32.259 33.6392 32.2172 33.9339 32.1336C34.9728 31.8302 35.4739 31.0326 35.6801 30H37.7468C37.4805 31.7515 36.4803 33.1334 34.7959 33.7177C34.2433 33.9059 33.63 34 32.9558 34C31.9611 34 31.0733 33.7822 30.2923 33.3465C29.5113 32.9108 28.8961 32.2817 28.4466 31.4591C27.9972 30.6366 27.7725 29.6502 27.7725 28.5C27.7725 27.3463 27.999 26.3599 28.4521 25.5409C28.9053 24.7183 29.5223 24.0892 30.3033 23.6535C31.0843 23.2178 31.9685 23 32.9558 23C33.5858 23 34.1715 23.0837 34.713 23.251C36.5105 23.8062 37.4918 25.2063 37.7468 27Z" fill="black" />
<path d="M49 27H46.9333C46.7467 25.9849 46.2287 25.171 45.2092 24.8769C44.9108 24.7863 44.5885 24.741 44.2422 24.741C43.6269 24.741 43.0817 24.8874 42.6065 25.1801C42.1312 25.4694 41.7592 25.8946 41.4902 26.4558C41.2213 27.0135 41.0868 27.6949 41.0868 28.5C41.0868 29.3191 41.2213 30.0092 41.4902 30.5703C41.7629 31.128 42.1349 31.5497 42.6065 31.8356C43.0817 32.1179 43.6251 32.259 44.2366 32.259C44.5756 32.259 44.8924 32.2172 45.1871 32.1336C46.226 31.8302 46.7271 31.0326 46.9333 30H49C48.7337 31.7515 47.7335 33.1334 46.0491 33.7177C45.4966 33.9059 44.8832 34 44.209 34C43.2143 34 42.3265 33.7822 41.5455 33.3465C40.7645 32.9108 40.1493 32.2817 39.6998 31.4591C39.2504 30.6366 39.0257 29.6502 39.0257 28.5C39.0257 27.3463 39.2522 26.3599 39.7054 25.5409C40.1585 24.7183 40.7755 24.0892 41.5565 23.6535C42.3376 23.2178 43.2217 23 44.209 23C44.839 23 45.4247 23.0837 45.9663 23.251C47.7637 23.8062 48.745 25.2063 49 27Z" fill="black" />
</svg>