<!-- by TradeStack --><svg width="56" height="56" viewBox="0 0 56 56" fill="none" xmlns="http://www.w3.org/2000/svg">
<rect width="56" height="56" fill="#F0F3FA"/>
<path d="M16.5 11.5V47C24.6564 39.8827 35.8985 39.0823 40.5 39.5718V14.4791C40.5 12.8338 39.1067 11.5 37.3881 11.5H16.5Z" fill="#052148"/>
<path fill-rule="evenodd" clip-rule="evenodd" d="M16 11H37.3881C39.3621 11 41 12.5373 41 14.4791V40.1278L40.4471 40.069C35.924 39.5879 24.8421 40.3843 16.8287 47.3767L16 48V11ZM17 12V45.9293C24.8959 39.5849 35.1943 38.6589 40 39.0245V14.4791C40 13.1303 38.8514 12 37.3881 12H17Z" fill="#AF8900"/>
<path d="M19 18.6123V35.7926L30.0833 38.3173L38 36.4083V21.3833H36.6146L34.8333 17.7502L32.4583 19.105L27.6424 16.5187L24.9375 20.706V18.6123L22.3646 15.4719V13.1319H21.5069V15.4719L19 18.6123Z" fill="white"/>
<path fill-rule="evenodd" clip-rule="evenodd" d="M27.8343 24.2643H27.2866V27.7487H27.8343V24.2643ZM24.783 24.952H24.2353V28.1349H24.783V24.952ZM22.4589 25.2534H21.9112V28.4363H22.4589V25.2534ZM24.2353 30H24.783V33.2519H24.2353V30ZM27.2866 30H27.8343V33.6563H27.2866V30ZM31.426 24.2643H30.8783V27.7487H31.426V24.2643ZM30.8783 30H31.426V33.6563H30.8783V30ZM34.1278 30H33.5801V33.6563H34.1278V30ZM33.5801 25H34.1278V28.4363H33.5801V25ZM36.2892 25.2534H35.7414V28.7378H36.2892V25.2534ZM35.7414 30H36.2892V33.6563H35.7414V30ZM22.4589 30H21.9112V33.2519H22.4589V30ZM20.5107 25.2534H21.0585V28.4363H20.5107V25.2534ZM21.0585 30H20.5107V33.2519H21.0585V30ZM22.8348 25.2534H23.3826V28.4363H22.8348V25.2534ZM25.7067 24.952H25.1589V28.1349H25.7067V24.952ZM25.1589 30H25.7067V33.2519H25.1589V30ZM29.0477 24.2643H28.5V27.7487H29.0477V24.2643ZM28.5 30H29.0477V33.6563H28.5V30ZM32.6394 24.2643H32.0917V27.7487H32.6394V24.2643ZM32.0917 30H32.6394V33.6563H32.0917V30ZM35.0516 30H34.5039V33.6563H35.0516V30ZM34.5039 25H35.0516V28.4363H34.5039V25ZM37.213 25.2534H36.6653V28.7378H37.213V25.2534ZM36.6653 30H37.213V33.6563H36.6653V30ZM23.3826 30H22.8348V33.2519H23.3826V30Z" fill="#052148"/>
<path d="M29.5419 28.0118L19 29.1716V29.9623L29.5419 29.1716L38 29.9623V29.1716L29.5419 28.0118Z" fill="#052148" fill-opacity="0.7"/>
<path d="M30.1476 34.3904L19 33.7578V35.2339L29.8723 37.3425L38 36.0246V33.7578L30.1476 34.3904Z" fill="#052148" fill-opacity="0.7"/>
<path d="M29.5419 19.629L19 23.3571V23.9785L29.5419 20.8717L38 23.9785V23.0021L29.5419 19.629Z" fill="#052148" fill-opacity="0.7"/>
<path d="M29.8723 21.9813L19 24.9105V25.5319L29.8723 23.0021L38 25.7538V24.9105L29.8723 21.9813Z" fill="#052148" fill-opacity="0.7"/>
</svg>
