<?xml version='1.0' encoding='utf-8'?>
<!-- by TradeStack -->
<svg width="56" height="56" viewBox="0 0 56 56" xmlns="http://www.w3.org/2000/svg"><path fill="#F0F3FA" d="M0 0h56v56H0z" /><path fill-rule="evenodd" d="M9.63 18c-.9 0-1.63.75-1.63 1.67V28h40v-8.33c0-.92-.73-1.67-1.63-1.67H9.63Zm5.1 5H11v-1h4.72c.19 0 .28-.1.28-.3v-.4c0-.2-.1-.3-.28-.3h-5.44c-.19 0-.28.1-.28.3v4.4c0 .2.1.3.28.3h.44c.19 0 .28-.1.28-.3V24h3.72c.19 0 .28-.1.28-.3v-.32c0-.2-.1-.38-.28-.38Zm4.65 3C17.8 26 17 25.16 17 23.5c0-1.67.8-2.5 2.38-2.5h2.24c1.58 0 2.38.84 2.38 2.5 0 1.65-.79 2.5-2.38 2.5h-2.24Zm2.06-1c1 0 1.56-.44 1.56-1.5s-.56-1.5-1.56-1.5h-1.88c-1 0-1.56.44-1.56 1.5s.56 1.5 1.56 1.5h1.88ZM25 23.5c0 1.66.75 2.5 2.25 2.5h3.48c.18 0 .27-.1.27-.3v-.4c0-.2-.09-.3-.27-.3h-3.31c-.95 0-1.42-.44-1.42-1.5s.47-1.5 1.42-1.5h3.31c.18 0 .27-.1.27-.3v-.4c0-.2-.09-.3-.27-.3h-3.48c-1.49 0-2.25.83-2.25 2.5Zm9.5 2.5c-.84 0-1.46-.2-1.88-.62-.41-.42-.62-1.05-.62-1.88v-2.2c0-.2.1-.3.3-.3h.4c.2 0 .3.1.3.3v2.2c0 1.06.6 1.5 1.65 1.5h1.72c1.05 0 1.63-.44 1.63-1.5v-2.2c0-.2.1-.3.3-.3h.4c.2 0 .3.1.3.3v2.2c0 .83-.2 1.46-.63 1.88-.41.41-1.03.62-1.86.62h-2.02Zm11.3-4.7c0-.2-.08-.3-.26-.3H41.6c-1.03 0-1.59.56-1.59 1.58 0 .9.4 1.42 1.18 1.42h3.39c.3 0 .43.12.43.48 0 .4-.18.52-.58.52h-4.16c-.17 0-.26.1-.26.3v.4c0 .2.09.3.26.3h4.13c1.03 0 1.61-.56 1.61-1.6 0-.91-.4-1.4-1.2-1.4h-3.38c-.3 0-.42-.15-.42-.48 0-.4.17-.52.56-.52h3.98c.18 0 .27-.1.27-.3v-.4Z" fill="#D32633" /><path fill-rule="evenodd" d="M8 36.33c0 .92.73 1.67 1.63 1.67h36.74c.9 0 1.63-.75 1.63-1.67V28H8v8.33ZM11.37 34c-.46 0-.8-.12-1.03-.37-.23-.26-.34-.63-.34-1.13 0-.5.11-.87.34-1.12.23-.25.57-.38 1.03-.38h2.47c.1 0 .16.06.16.18v.14c0 .12-.05.18-.16.18h-2.37c-.57 0-.97.37-.97 1s.4 1 .97 1h.75c.43 0 1.04-.21 1.28-.62v-.1h-1.34c-.1 0-.16-.06-.16-.18v-.2c0-.11.05-.17.16-.17h1.68c.1 0 .16.06.16.18v1.41c0 .12-.05.18-.16.18h-.14c-.11 0-.17-.06-.17-.18v-.44a1.5 1.5 0 0 1-1.02.58 3 3 0 0 1-.49.04h-.65Zm7.03 0h.49c.03 0 .06-.01.08-.03a.13.13 0 0 0 .03-.08.15.15 0 0 0-.05-.12l-.86-.8v-.01c.55-.04.91-.38.91-1 0-.64-.39-.96-1-.96h-2.83c-.11 0-.17.06-.17.18v2.64c0 .12.06.18.17.18h.16c.11 0 .17-.06.17-.18V33h1.83l.86.88.07.06.06.04.08.02Zm-.03-2c0 .31-.23.5-.5.5H15.5v-1h2.36c.28 0 .5.2.5.5Zm6.15 2a.45.45 0 0 1-.2-.03.38.38 0 0 1-.1-.12l-.36-.46h-2.75l-.35.46-.06.08a.27.27 0 0 1-.14.07h-.41c-.06 0-.1-.01-.12-.04a.14.14 0 0 1-.03-.09c0-.03.01-.06.03-.08l2-2.64c.04-.06.08-.1.12-.12.04-.02.1-.03.19-.03h.33a.55.55 0 0 1 .18.03c.03.01.05.03.06.05l.06.07 2 2.64c.02.03.03.05.03.08s-.01.06-.04.09c-.02.03-.05.04-.1.04h-.34Zm-1.04-1.17-.99-1.3-1 1.3v.01h2Zm3.02.99V33h2.49c.67 0 1.01-.3 1.01-1s-.34-1-1.01-1h-2.81c-.12 0-.18.06-.18.18v2.64c0 .12.06.18.18.18h.15c.11 0 .17-.06.17-.18Zm0-1.32v-1h2.53c.31 0 .47.17.47.5 0 .33-.16.5-.47.5H26.5Zm8.17 1.5c-.11 0-.17-.06-.17-.18v-1.07h-3v1.07c0 .12-.06.18-.17.18h-.16c-.11 0-.17-.06-.17-.18v-2.64c0-.12.06-.18.17-.18h.16c.11 0 .17.06.17.18v1.02h3v-1.02c0-.12.06-.18.17-.18h.16c.11 0 .17.06.17.18v2.64c0 .12-.06.18-.17.18h-.16Zm1.33-.18c0 .12.05.18.15.18h.2c.1 0 .15-.06.15-.18v-2.64c0-.12-.05-.18-.14-.18h-.21c-.1 0-.15.06-.15.18v2.64Zm3.17.18c-.11 0-.17-.06-.17-.18v-2.27h-1.33c-.11 0-.17-.06-.17-.18v-.19c0-.12.06-.18.17-.18h3.16c.11 0 .17.06.17.18v.19c0 .12-.06.18-.17.18H39.5v2.27c0 .12-.06.18-.17.18h-.16ZM46 31.18c0-.12-.06-.18-.18-.18h-3.64c-.12 0-.18.06-.18.18v2.64c0 .12.06.18.18.18h3.64c.12 0 .18-.06.18-.18v-.14c0-.12-.06-.18-.18-.18H42.5v-1h2.75c.12 0 .18-.06.18-.18v-.14c0-.12-.06-.18-.18-.18H42.5v-.5h3.32c.12 0 .18-.06.18-.18v-.14Z" fill="#211E1F" /></svg>