<!-- by TradeStack --><svg width="56" height="56" viewBox="0 0 56 56" xmlns="http://www.w3.org/2000/svg"><path fill="#F0F3FA" d="M0 0h56v56H0z"/><path d="m40.9 38.82-.14-.07-.68.66-.2.2-.07.06.13.13c.14-.13.28-.06.28-.06.06.13 0 .26-.07.33-.07.06-.07.13-.14.13-.27.2-.61.2-.81-.07-.2-.26-.2-.6.06-.79.14-.13.28-.13.41-.13l.07-.07.75-.65-.07-.07c-.14-.13-.27-.13-.4-.06l-1.84 1.7c-.14.14-.14.27 0 .4l.74.72c.14.14.34.14.48 0 0 0 1.43-1.38 1.7-1.57l.07-.07.2-.2-.48-.52ZM38.18 41.32l-.27-.4-.14-.2c-.07-.13-.27-.2-.4-.13l-2.18 1.32c-.14.06-.14.26-.07.4 0 0 .41.58.55.85.13.13.34.2.47.06l2.04-1.25c.13-.06.27-.26.13-.4l-.13-.25Zm-.82.92-.54.26c-.14.07-.34.07-.4-.07-.08-.13-.14-.26-.28-.4-.13-.12-.07-.32 0-.39l.54-.32c.14-.07.34 0 .41.13l.27.33c.07.13.07.32 0 .46ZM31.39 44.14l-.07-.46-.07-.26c0-.13-.13-.26-.27-.26l-2.58.26c-.14 0-.27.13-.27.33 0 0 .07.72.13.99.07.2.2.26.41.26 0 0 1.97-.2 2.38-.26.2 0 .34-.13.34-.33v-.27Zm-1.22.47s-.28 0-.62.06c-.2 0-.34-.06-.34-.26a.82.82 0 0 0-.02-.19c-.02-.08-.04-.16-.04-.27-.07-.13.06-.33.2-.33l.61-.07c.14 0 .27.13.27.27l.07.46c.14.06 0 .26-.13.33ZM32.61 42.76l.48 1.32 1.96-.66.07.26-2.92 1-.54-1.59.95-.33ZM26.43 43.88s.2.07.2-.13l.14-.53 1.02.14-.2 1.64-1.02-.07-.89-.65s-.2-.07-.2.06l-.07.53-1.02-.13.14-1.65 1.02.13.88.66ZM21.95 43.03l1.08.33.2-.66.96.33-.54 1.58-.95-.33.2-.66-1.09-.33-.2.66-.95-.33.54-1.58.95.33-.2.66ZM18.42 40.33l2.17 1.31c.14.14.2.33.07.47l-.14.2-.81-.47c.07-.13.07-.33-.07-.4l-.54-.32c-.14-.07-.27-.07-.41.06-.2.27-.27.4-.27.4-.07.13 0 .33.13.4.28.13.62.32.62.32.13.07.33 0 .4-.13l.75.46-.14.26c-.13.14-.34.2-.47.07l-2.04-1.25c-.13-.13-.2-.33-.13-.46.13-.26.54-.86.54-.86.07-.13.2-.13.34-.06ZM16.04 38.82l-.13.13c-.07.06-.07.13.06.13l1.16 1.12-.2.2-1.16-1.12c0-.07-.07-.07-.14-.07l-.2.2v.13l1.43 1.38-.2.2-2.18-2.1 1.15-1.13L17.81 40l-.2.2-1.43-1.38c0-.07-.07-.07-.14 0ZM15.5 37.57l-.27.13-.55-.86-1.15.66-.54-.86 1.15-.65-.54-.86.27-.13.81 1.28.82 1.29ZM41.71 36.05l.48-.72.27 1.38.54.4-.54.78-.55-.32-1.42.26.54-.8.82-.19-.14-.79ZM40.17 17.43l-.7.6-.92-.94 1.76-1.35.85.94-.7.61.99 1.09.7-.61.85.8L41.3 20l-.84-.95.7-.54-.99-1.08ZM37.42 15.94c-.43-.2-2.76-1.49-2.76-1.49-.21-.13-.35-.4-.21-.6l.7-1.16c.07-.13.36-.2.5-.13l2.9 1.62c.14.14.2.34.07.54l-.14.27-1.06-.6c.07-.21 0-.41-.15-.55l-.7-.4c-.21-.07-.43-.07-.57.13-.21.27-.35.48-.35.48-.07.2 0 .47.21.6.35.14.78.41.78.41.21.07.42 0 .56-.14l1.06.61-.2.34c-.15.2-.43.2-.64.07ZM31.4 13.57l-1.34-.2.29-1.7-1.35-.26.07-.34 4.1.67-.07.34-1.41-.2-.28 1.7ZM26.81 13.1l-3.32.54c-.21.07-.42-.07-.5-.27l-.28-1.7 1.13-.06s.14.74.21 1.22c.08.2.29.34.5.34l1.13-.2a.57.57 0 0 0 .28-.48l-.2-1.29 1.12-.2.29 1.7c0 .2-.08.4-.36.4ZM21.93 14.11l-2.4 1.29-1.13.6-1.13-1.89 1.13-.6.92 1.55 2.4-1.29.21.34ZM14.23 19.53c-.28-.27-1.06-.88-1.06-.88-.21-.14-.21-.4-.07-.48l2.26-2.43c.21-.2.42-.14.57 0l.28.2-.85.88c-.21-.07-.42-.07-.56.07l-.57.6a.4.4 0 0 0 0 .55l.42.4c.22.14.5.14.64-.06l.64-.68c.14-.14.07-.4-.07-.54l.77-.81.36.27c.14.2.14.47 0 .6-.36.34-2.12 2.24-2.12 2.24-.15.2-.43.2-.64.07ZM42 21.49l1.3-.49a15.24 15.24 0 0 1 0 14l-1.3-.49a14.2 14.2 0 0 0 0-13.02ZM14 21.49 12.7 21a15.24 15.24 0 0 0 0 14l1.3-.49a14.2 14.2 0 0 1 0-13.02ZM21 22v2.65h-3.5v1.74H20V29h-2.5v4H15V22h6ZM27.48 33A5.52 5.52 0 0 1 22 27.46a5.44 5.44 0 0 1 7-5.25v2.8a3.1 3.1 0 0 0-3.12 0 3.03 3.03 0 0 0-.9 4.07 2.96 2.96 0 0 0 4.02.9v2.81c-.49.14-1.04.21-1.52.21ZM37.48 33A5.52 5.52 0 0 1 32 27.46a5.44 5.44 0 0 1 7-5.25v2.8a3.1 3.1 0 0 0-3.12 0 3.03 3.03 0 0 0-.9 4.07 2.96 2.96 0 0 0 4.02.9v2.81c-.49.14-1.04.21-1.52.21ZM22 31.97c0 .57-.41 1.03-.97 1.03-.57 0-.98-.46-1.03-.97 0-.57.41-1.03.97-1.03.57 0 1.03.41 1.03.97ZM30.97 33a1 1 0 0 1-.97-1c0-.55.46-1 1.03-1a1 1 0 0 1 .97 1c0 .55-.46 1-1.03 1ZM40.97 33c-.5 0-.97-.46-.97-1.02a.95.95 0 0 1 1.03-.98c.5 0 .97.46.97 1.03 0 .5-.46.97-1.03.97Z" fill="#003087"/></svg>