<!-- by TradeStack --><svg width="56" height="56" viewBox="0 0 56 56" xmlns="http://www.w3.org/2000/svg"><path fill="#F0F3FA" d="M0 0h56v56H0z"/><path d="M37.6 24.03c-.87 2.75-2.93 4.44-7.65 6.28-2.64 1.03-3.64 1.43-4.51 2.31-1.92 1.95-1.78 5.13-.07 7.2.22.26.22.26.07 0-1.78-3.12.24-6.33 5.07-8.06 4.12-1.46 6.06-3.42 7.03-7.08.26-.96.3-1.41.06-.65Z" fill="#6874A6"/><path d="M26.17 12.1a15.7 15.7 0 0 0-5.32 1.56C6.05 21 10.87 43.14 27.44 43.93l1.44.07-.89-.83c-2.56-2.4-4.08-5.38-3.78-7.41.35-2.44 1.68-3.64 5.74-5.17 5.34-2.02 7.33-3.86 8.01-7.42.22-1.15.2-1.17-.41-.49-1.28 1.41-2.65 2.15-7.4 3.95-5.85 2.24-7.48 3.18-8.75 5.07-2.25 3.35-.93 7.06 3.58 10.03.9.6.96.76.22.62a14.65 14.65 0 0 1-10.18-21.17 14.76 14.76 0 0 1 15.95-7.53l1.33.28c.16.03.57-.1 1.07-.33l.81-.37-.66-.26a17.9 17.9 0 0 0-7.35-.88Zm13.74 5.44c-.02.07-.13.4-.25.7-.2.58-.2.58.34 1.37 6.01 8.6 1.05 20.83-9.21 22.7l-1.15.2c-.24.05-.22.08.38.65.63.59.63.59 1.48.39a16 16 0 0 0 10.73-22.89c-.78-1.53-2.22-3.47-2.32-3.12Z" fill="#1C3D82"/><path d="M38.76 11.22c-.03.11-.12.23-.07.2.12-.07.16-.14.03.91-.53 4.64-2.78 6.68-11.47 10.42-8.84 3.73-10.59 6.1-9.07 9.9.03.09.16-.2.29-.66.81-2.91 2.72-4.52 8.01-6.75a365.63 365.63 0 0 0 3.62-1.54c6.02-2.52 8.38-4.67 9-8.23.28-1.56-.03-5.43-.34-4.25Z" fill="#E5CB98"/><path d="M38.57 11.67c-.7 1.44-3.8 3.23-9.74 5.62-8.85 3.55-12 7.15-11.23 12.86.17 1.3.3 1.51.28.48-.03-2.91 2.23-4.82 9.37-7.88 8.7-3.75 10.94-5.78 11.48-10.46.12-1.02.08-1.14-.16-.62Z" fill="#D5AF5E"/></svg>