<?xml version='1.0' encoding='utf-8'?>
<!-- by TradeStack -->
<svg width="56" height="56" viewBox="0 0 56 56" xmlns="http://www.w3.org/2000/svg"><path fill="#F0F3FA" d="M0 0h56v56H0z" /><path d="M29.56 25 14.69 39.64l-.33-1.14 1.23-3.2L19 26l1-1h9.56Z" fill="url(#aeruw4d0f)" /><path d="M14 14.04v26.42l1-1.18V14.5l-1-.47Z" fill="url(#beruw4d0f)" /><path d="m20 25-1 1v-8l1 .76V25Z" fill="url(#ceruw4d0f)" /><path d="M35.3 19H20l-1-1 17.8-3.18 3.83-.82-5.33 5Z" fill="url(#deruw4d0f)" /><path d="M40.66 14.04H14l1 .72V38.4L27.5 26H19v-8h15.85l4.37-3.56 1.44-.4Z" fill="url(#eeruw4d0f)" /><path fill-rule="evenodd" d="m41.48 38.74-4.96-4.87V21.5l4.96-5.2v22.43ZM36 34.1V21.3l6-6.3v25l-6-5.9Zm5 7.9H15l13.02-13L41 42Zm-1.33-.55H16.33l11.7-11.67 11.64 11.67Z" fill="#505050" /><defs><linearGradient id="aeruw4d0f" x1="18.89" y1="27.14" x2="27.25" y2="27.14" gradientUnits="userSpaceOnUse"><stop stop-color="#5F350B" /><stop offset=".58" stop-color="#D7B1A4" /><stop offset="1" stop-color="#99724B" /></linearGradient><linearGradient id="beruw4d0f" x1="14.5" y1="14.04" x2="14.5" y2="40.46" gradientUnits="userSpaceOnUse"><stop stop-color="#A16728" /><stop offset=".5" stop-color="#DEAC93" /><stop offset="1" stop-color="#A27C50" /></linearGradient><linearGradient id="ceruw4d0f" x1="19.5" y1="18" x2="19.5" y2="26" gradientUnits="userSpaceOnUse"><stop stop-color="#7C5325" /><stop offset=".53" stop-color="#E0B396" /><stop offset="1" stop-color="#85592C" /></linearGradient><linearGradient id="deruw4d0f" x1="20.18" y1="19.37" x2="35.97" y2="19.37" gradientUnits="userSpaceOnUse"><stop stop-color="#57300F" /><stop offset=".48" stop-color="#825919" /><stop offset=".91" stop-color="#5E391E" /><stop offset="1" stop-color="#57300F" /></linearGradient><linearGradient id="eeruw4d0f" x1="15.83" y1="23.75" x2="36.8" y2="23.75" gradientUnits="userSpaceOnUse"><stop stop-color="#A26B2A" /><stop offset=".47" stop-color="#E8B0A3" /><stop offset="1" stop-color="#9F6520" /></linearGradient></defs></svg>