<?xml version='1.0' encoding='utf-8'?>
<!-- by TradeStack -->
<svg width="56" height="56" viewBox="0 0 56 56" xmlns="http://www.w3.org/2000/svg"><path fill="#F0F3FA" d="M0 0h56v56H0z" /><path d="m12.5 14 1-1 9 7.5-6.5 5L12.5 14Zm7 3.5 1-1L26 19h4l5.5-2.5 1 1-4 3L30 32l-2-3.5-2 3.5-2.5-11.5-4-3Zm20.5 8-6.5-5 9-7.5 1 1L40 25.5ZM23 21l1 7h-2l-3 1 .5 1 2.5-1h2.5v.5h-2l-8 2.5-3.5-2 12-9Zm-1 11-1-1.5-5 1.5 3.5.5 1.5 2h4l.5-1L24 32h-2Zm-2.5 1.5-4.5-1v2l9 6v.5l-.5 1 1.5 2h2.5l-1-1.5L26 41l-6.5-7.5Zm6 1.5H22l4 5 2-.5 2 .5 4-5h-3.5L28 29.5 25.5 35Zm3 9H31l1.5-2-.5-1v-.5l9-6v-2l-4 1-6.5 7.5-.5 1.5-1.5 1.5ZM40 32l-3.5.5-1.5 2h-4l-.5-1L32 32h2l1-1.5 5 1.5Zm1.5 0 3.5-2-12-9-1 7h2l3 1-.5 1-2.5-1h-2.5v.5H34l7.5 2.5Zm-24-1.5 1-.5-.48-.98-1.02.48.5 1Zm21 0-1-.5.48-.98 1.02.48-.5 1Z" fill="url(#astyendeh)" /><defs><linearGradient id="astyendeh" x1="28" y1="13" x2="28" y2="44" gradientUnits="userSpaceOnUse"><stop stop-color="#D2AC28" /><stop offset="1" stop-color="#B39322" /></linearGradient></defs></svg>