<?xml version='1.0' encoding='utf-8'?>
<!-- by TradeStack -->
<svg width="56" height="56" viewBox="0 0 56 56" xmlns="http://www.w3.org/2000/svg"><path fill="#F0F3FA" d="M0 0h56v56H0z" /><path d="m9.82 26.84 2.1.34c2 .32 3.08 1.56 3.08 3.27C15 32.6 13.28 34 10.6 34c-2.64 0-4.43-1.41-4.6-3.6v-.08h1.87v.05c.32 1.03 1.1 1.63 2.7 1.63 1.54 0 2.43-.62 2.43-1.46 0-.53-.15-.87-.49-1.06a3.07 3.07 0 0 0-1.2-.44l-2.08-.34c-2.08-.37-3.13-1.52-3.13-3.2 0-2.09 1.72-3.5 4.28-3.5 2.56 0 4.3 1.44 4.3 3.6v.05h-1.83v-.05c-.3-1.2-1.15-1.6-2.65-1.6-1.4 0-2.2.6-2.2 1.33 0 .86.65 1.31 1.82 1.5ZM40 22h4.13c3.63 0 5.9 2.3 5.87 5.99 0 3.76-2.2 6.01-5.87 6.01H40V22Zm2 10h2.25c2.54 0 3.75-1.47 3.75-3.99 0-2.64-1.39-4.01-3.75-4.01H42v8ZM25 22h-8v2h8v-2Zm-3 5h-5v2h5v-2Zm-5 5h8v2h-8v-2Zm12-10h8v2h-8v-2Zm0 5h5v2h-5v-2Zm8 5h-8v2h8v-2Z" fill="#225139" /></svg>