<!-- by TradeStack --><svg width="56" height="56" viewBox="0 0 56 56" xmlns="http://www.w3.org/2000/svg"><path fill="#051A45" d="M0 0h56v56H0z"/><path d="M51 36h-.48v-2.19c0-1.08-.47-1.44-1.36-1.44-.94 0-1.67.62-1.68 1.66V36H47v-3.95h.47l.01 1.04c.18-.67.93-1.09 1.8-1.09 1.17 0 1.72.55 1.72 1.79V36ZM46 34c0 1.14-.76 2-2 2s-2-.87-2-2c0-1.14.76-2 2-2s2 .87 2 2Zm-.44 0c0-1-.64-1.66-1.56-1.66S42.44 33 42.44 34c0 1 .64 1.65 1.56 1.65S45.56 35 45.56 34ZM40.34 31.58c-.2 0-.34-.12-.34-.29 0-.16.14-.29.34-.29s.34.13.34.29c0 .17-.14.29-.34.29ZM40 36h.5v-4H40v4ZM39 32.12v.34h-1.06v2.55c0 .5.26.64.56.66.15 0 .3-.01.5-.09l-.02.31c-.21.07-.37.11-.6.11-.4 0-.86-.23-.86-.93v-2.6H37v-.35h.52v-1.05l.42-.07v1.12H39ZM29 34c0 1.14-.76 2-2 2s-2-.87-2-2c0-1.14.76-2 2-2s2 .87 2 2Zm-.44 0c0-1-.64-1.66-1.56-1.66S25.44 33 25.44 34c0 1 .64 1.65 1.56 1.65S28.56 35 28.56 34ZM22.08 32c1.18 0 1.92.72 1.92 1.82s-.74 1.82-1.92 1.82c-.8 0-1.35-.33-1.65-.94V37H20v-4.96h.43v.89c.3-.61.9-.93 1.65-.93ZM22 35.32c.9 0 1.57-.53 1.57-1.5 0-.98-.66-1.5-1.57-1.5-.9 0-1.55.57-1.56 1.47v.06c0 .89.68 1.47 1.56 1.47ZM15 34c0 1.14-.76 2-2 2s-2-.87-2-2c0-1.14.76-2 2-2s2 .87 2 2Zm-.44 0c0-1-.64-1.66-1.56-1.66S11.44 33 11.44 34c0 1 .64 1.65 1.56 1.65S14.56 35 14.56 34ZM7.63 35.66c1 0 1.64-.45 1.96-1.1l.41.13C9.63 35.47 8.83 36 7.63 36 5.9 36 5 34.88 5 33.5S5.9 31 7.63 31c1.2 0 2 .53 2.37 1.3l-.41.13c-.32-.64-.96-1.09-1.96-1.09-1.45 0-2.17.97-2.17 2.16 0 1.19.72 2.16 2.17 2.16ZM48.98 25.97 50.52 22H51l-1.68 4.22c-.62 1.57-1.2 1.92-2.05 1.74l-.05-.37c.62.15 1.12-.1 1.55-1.07L47 22h.49l1.5 3.97ZM42 22h4v.36l-3.36 3.28H46V26h-4v-.36l3.35-3.28H42V22ZM41 26h-.48v-2.19c0-1.08-.47-1.44-1.36-1.44-.94 0-1.67.62-1.68 1.66V26H37v-3.95h.47l.01 1.04c.18-.67.93-1.09 1.8-1.09 1.17 0 1.72.55 1.72 1.79V26ZM34 22c1.24 0 2.1.79 1.99 2.1h-3.55c.05.97.68 1.56 1.7 1.56.48 0 1.08-.25 1.31-.74l.37.16c-.3.57-1 .92-1.68.92-1.38 0-2.14-.86-2.14-2 0-1.14.76-2 2-2Zm-1.55 1.77h3.1c.06-.87-.64-1.43-1.55-1.43-.84 0-1.46.54-1.55 1.43ZM32 22v.4c-1.13-.06-2.48.55-2.48 1.63V26H29v-3.95h.5l.02 1.18c.1-.7 1.5-1.23 2.48-1.23ZM19 32v.4c-1.13-.06-2.48.55-2.48 1.63V36H16v-3.95h.5l.02 1.18c.1-.7 1.5-1.23 2.48-1.23ZM33 32v.4c-1.13-.06-2.48.55-2.48 1.63V36H30v-3.95h.5l.02 1.18c.1-.7 1.5-1.23 2.48-1.23ZM28 21v.34h-3.5v2.02h3.21v.32H24.5V26H24v-5h4ZM22.96 22.85l-.3.15c-.17-.38-.62-.66-1.15-.66-.67 0-1.03.38-1.02.73.01.45.62.61 1.26.8.62.16 1.25.4 1.25 1.06 0 .58-.43 1.07-1.5 1.07-.62 0-1.32-.36-1.5-.93l.32-.15c.14.49.74.74 1.17.74.8 0 1.15-.3 1.14-.74-.01-.47-.6-.65-1.24-.8-.65-.16-1.27-.4-1.27-1.05 0-.51.46-1.07 1.4-1.07.68 0 1.23.36 1.44.85ZM19 26h-.48v-2.19c0-1.08-.47-1.44-1.36-1.44-.94 0-1.67.62-1.68 1.66V26H15v-3.95h.47l.01 1.04c.18-.67.93-1.09 1.8-1.09 1.17 0 1.72.55 1.72 1.79V26ZM13.6 25.65a.8.8 0 0 0 .4-.07v.3a.96.96 0 0 1-.5.12c-.35 0-.45-.18-.5-.64-.11.27-.81.64-1.55.64-.84 0-1.45-.45-1.45-1.14 0-.73.62-1.17 1.54-1.2a8.4 8.4 0 0 1 1.46.1v-.4c0-.53-.49-1.01-1.3-1.01-.52 0-.96.27-1.09.75l-.36-.14c.16-.6.73-.96 1.45-.96 1.11 0 1.7.67 1.7 1.37v1.79c0 .35-.02.48.2.5Zm-2.08.01c.84 0 1.4-.42 1.48-.76v-.82a6.28 6.28 0 0 0-1.42-.09c-.63.05-1.18.27-1.18.85 0 .53.51.81 1.12.82ZM36.6 35.65a.8.8 0 0 0 .4-.07v.3a.96.96 0 0 1-.5.12c-.35 0-.45-.18-.5-.64-.11.27-.81.64-1.55.64-.84 0-1.45-.45-1.45-1.14 0-.73.62-1.17 1.54-1.2a8.4 8.4 0 0 1 1.46.1v-.4c0-.53-.49-1.01-1.3-1.01-.52 0-.96.27-1.09.75l-.36-.14c.16-.6.73-.96 1.45-.96 1.11 0 1.7.67 1.7 1.37v1.79c0 .35-.02.48.2.5Zm-2.08.01c.84 0 1.4-.42 1.48-.76v-.82a6.28 6.28 0 0 0-1.42-.09c-.63.05-1.18.27-1.18.85 0 .53.51.81 1.12.82ZM9 21v.34H5.5v2.02H8.7v.32H5.5V26H5v-5h4Z" fill="#fff"/></svg>