<?xml version='1.0' encoding='utf-8'?>
<!-- by TradeStack -->
<svg width="56" height="56" viewBox="0 0 56 56" xmlns="http://www.w3.org/2000/svg"><path fill="#F0F3FA" d="M0 0h56v56H0z" /><path d="M27.64 12.26c-.25.3-.03.8.41.88.43.09.69-.56.36-.88-.32-.35-.48-.35-.77 0ZM21.54 12.34c-.26.26-.08.66.3.66.37 0 .54-.4.28-.66-.1-.1-.24-.19-.29-.19-.05 0-.19.09-.29.2ZM24.52 12.37c-.13.36.14.67.5.6.46-.08.43-.71-.03-.78-.2-.04-.41.05-.47.18ZM30.86 12.26c-.06.06-.12.27-.12.44 0 .24.1.32.4.27.24-.03.38-.17.38-.4 0-.33-.43-.54-.66-.31ZM33.9 12.4c-.07.16-.04.37.07.47.25.25.75.02.68-.33-.07-.39-.61-.49-.75-.13ZM15.42 12.46c-.05.1-.01.24.09.29.26.17.43-.05.2-.27-.12-.12-.22-.12-.29-.02ZM18.4 12.56c0 .14.07.3.14.34.23.14.6-.19.48-.39-.17-.27-.61-.24-.61.05ZM37.09 12.56c0 .14.06.3.15.34.19.12.57-.3.41-.46-.2-.2-.56-.12-.56.12ZM40.34 12.58c0 .14.09.25.17.25.1 0 .17-.11.17-.25s-.06-.26-.17-.26c-.08 0-.17.12-.17.26ZM24.32 15.29c-.38.56-.09 1.12.56 1.12.84 0 1.19-.71.62-1.26-.4-.4-.87-.34-1.18.14ZM27.28 15.32c-.36.77.36 1.48 1.13 1.12.48-.22.62-.98.24-1.36-.37-.37-1.14-.24-1.37.24ZM30.6 15.08c-.22.22-.27.8-.06 1.1.4.55 1.4.2 1.4-.52 0-.48-.3-.78-.77-.78-.2 0-.44.08-.56.2ZM21.52 15.2c-.13.07-.2.33-.17.55.04.3.16.4.48.4.33 0 .45-.1.48-.4.05-.34-.19-.7-.48-.7a.83.83 0 0 0-.3.15ZM33.85 15.29c-.33.39-.07.95.43.95.48 0 .71-.43.46-.83-.24-.38-.64-.43-.9-.12ZM18.29 15.5c-.06.13.03.38.18.54.26.25.3.25.55 0 .36-.36.2-.82-.27-.82-.19 0-.4.12-.46.27ZM37.03 15.34c-.22.2-.12.7.18.8.34.13.75-.33.61-.68-.08-.24-.6-.33-.79-.12ZM15.35 15.66c.07.36.38.4.45.02.03-.17-.05-.3-.22-.3-.17 0-.26.11-.23.28ZM40.2 15.68c.07.36.57.42.57.05 0-.14-.14-.27-.3-.3-.25-.06-.32.01-.27.25ZM27.66 17.55a1.28 1.28 0 0 0-.5 2.11c.84.84 2.38-.03 2.13-1.19a1.28 1.28 0 0 0-1.63-.92ZM24.23 18.11c-.44.45-.43.74.07 1.32.36.4.46.44.9.3.66-.24.9-.93.5-1.51-.34-.55-.99-.58-1.47-.1ZM30.52 18.08a.98.98 0 0 0 .16 1.52c.4.25.5.25.9.03a.97.97 0 0 0 .5-.73c.12-.94-.96-1.48-1.56-.82ZM21.27 18.25c-.41.44-.36.83.13 1.16.4.25.47.25.86 0 .52-.33.55-.79.12-1.18-.41-.37-.77-.35-1.11.02ZM33.7 18.15c-.45.44-.06 1.5.56 1.5.36 0 .77-.5.77-.94 0-.63-.9-1-1.34-.56ZM18.32 18.39c-.3.3-.27.56.12.8.6.37 1.13-.36.62-.87-.28-.27-.4-.26-.74.07ZM37 18.35c-.2.16-.26.33-.17.6.15.5 1.01.44 1.08-.1.07-.5-.48-.8-.91-.5ZM15.32 18.45c-.3.2-.07.69.34.69.23 0 .35-.12.35-.33 0-.37-.36-.56-.69-.36ZM40.22 18.47c-.27.27-.08.67.33.67.24 0 .32-.1.27-.38-.07-.42-.32-.56-.6-.29ZM26.96 20.82c-.67.68-.67 1.4 0 2.08.46.44.48.51.2.65-.15.08-.4.34-.51.58l-.22.4-.48-.49c-.64-.61-1.4-.65-1.97-.05-.7.7-.45 1.94.5 2.3.33.13.33.13-.1.3a1.55 1.55 0 0 0-.34 2.71c.38.3 1.4.28 1.84-.03.32-.22.4-.2.73.15.38.4.38.43.1.85l-.28.43-.4-.46c-.53-.61-1.68-.65-2.16-.05-.51.63-.43 1.43.23 1.97.65.55 1.4.5 1.93-.15l.34-.4.52.55.51.57-.37.34c-1.17 1.04-.12 3.03 1.4 2.65 1.06-.25 1.46-1.7.7-2.57l-.4-.48.39-.34c.2-.2.4-.47.46-.6.05-.18.19-.11.51.26.83.94 2.21.55 2.47-.71.09-.46.02-.63-.41-1.07-.3-.28-.69-.52-.87-.52-.54 0-1.2.36-1.3.72-.16.43-.3.4-.6-.15-.25-.43-.25-.5.11-.89.38-.37.41-.4.7-.14.45.4 1.45.36 2-.06.34-.28.44-.5.44-1.03 0-.88-.2-1.24-.86-1.51l-.55-.22.5-.2c.7-.3 1.03-1.11.74-1.8-.26-.6-.64-.85-1.32-.85-.57 0-1.25.43-1.25.79 0 .13-.07.24-.17.24-.09 0-.17-.1-.17-.24 0-.14-.2-.41-.43-.58l-.45-.34.45-.45c.61-.6.6-1.66-.02-2.23-.65-.6-1.5-.58-2.14.07Zm-.38 5.86-.38.4-.58-.4c-.34-.22-.46-.4-.3-.4.13 0 .44-.21.66-.47l.4-.5.29.5c.29.46.29.48-.09.87Zm4.28-.4c.2.03.06.14-.36.35l-.68.34-.4-.38c-.35-.32-.35-.39-.13-.64.14-.16.26-.38.26-.5s.22.02.5.31c.27.29.63.53.81.53Z" /><path d="M24.13 20.89c-1.15.99.02 2.76 1.39 2.13.92-.43.92-1.9-.02-2.33-.62-.28-.86-.24-1.37.2ZM30.33 20.86c-.94.73-.37 2.26.84 2.26 1.2 0 1.73-1.34.86-2.2-.51-.5-1.1-.54-1.7-.06ZM21.15 21.18c-.2.19-.35.5-.35.68 0 .19.16.5.35.68.19.19.5.34.68.34.2 0 .5-.15.69-.34.19-.19.34-.5.34-.68 0-.19-.15-.5-.34-.68-.19-.19-.5-.34-.69-.34-.19 0-.5.15-.68.34ZM33.7 21.11c-.56.38-.52 1.18.06 1.55.41.26.5.26.9.03.63-.34.71-1.2.16-1.58-.48-.34-.65-.34-1.13 0ZM18.23 21.43c-.44.55.23 1.38.83 1.01.58-.38.37-1.26-.31-1.26-.17 0-.4.12-.52.25ZM36.95 21.38c-.4.4-.12 1.16.41 1.16.24 0 .75-.46.75-.68 0-.22-.51-.68-.75-.68-.1 0-.3.08-.41.2ZM15.22 21.59c-.16.4.07.82.4.75.2-.04.3-.2.3-.48 0-.5-.55-.7-.7-.27ZM40.17 21.62c-.19.2-.17.3.05.55.28.25.31.25.58 0 .23-.24.24-.34.06-.55-.12-.15-.28-.27-.35-.27-.07 0-.22.12-.34.27ZM21.01 24.13c-.74.76-.22 1.99.82 1.99 1.08 0 1.6-1.28.8-2.01-.5-.48-1.16-.48-1.62.02ZM33.47 24.04c-.79.65-.3 2.08.7 2.08.7 0 1.25-.53 1.25-1.2 0-.64-.53-1.19-1.16-1.19-.22 0-.57.14-.79.31ZM18.23 24.38c-.3.24-.36.43-.27.77.15.64.9.81 1.34.29.4-.48.4-.6-.04-1.03-.43-.42-.55-.42-1.03-.03ZM36.85 24.4c-.43.46-.3 1.09.27 1.28.33.11.53.1.72-.07.4-.3.34-1.14-.05-1.37-.46-.23-.6-.22-.94.16ZM15.17 24.65c-.28.34-.05.79.4.79.23 0 .45-.12.5-.28.12-.32-.17-.75-.5-.75-.11 0-.3.1-.4.24ZM40.07 24.65c-.17.45.07.82.48.75.29-.03.4-.17.4-.47 0-.31-.11-.45-.4-.48-.23-.03-.43.05-.48.2ZM20.89 27.05c-.9.89-.3 2.3.98 2.3 1.2 0 1.76-1.46.9-2.3a1.34 1.34 0 0 0-.94-.42c-.32 0-.68.15-.94.42ZM33.44 26.97c-.57.44-.7 1.07-.4 1.69.3.54.58.7 1.3.7 1.24 0 1.75-1.5.8-2.32-.57-.5-1.12-.51-1.7-.07ZM18.1 27.34c-.36.36-.24 1.13.22 1.43.4.26.46.26.86 0 .5-.32.56-.95.15-1.36-.3-.32-.94-.36-1.23-.07ZM36.66 27.55c-.33.48-.12 1.2.37 1.33.9.24 1.6-.75 1-1.4-.43-.46-1.05-.43-1.37.07ZM15.18 27.68c-.51.52.16 1.18.76.74.25-.19.29-.3.13-.55-.24-.39-.61-.46-.89-.19ZM40.12 27.58c-.2.2-.14.7.14.92.34.3.8-.08.73-.58-.05-.35-.63-.58-.87-.34ZM21.37 30.04c-1.18.47-.82 2.2.46 2.2 1.12 0 1.61-1.34.76-2.02-.5-.39-.65-.4-1.22-.18ZM33.78 29.98c-.4.1-.84.97-.69 1.37.43 1.2 1.9 1.22 2.33 0 .16-.43-.19-1.08-.68-1.3-.43-.19-.46-.2-.96-.07ZM18.06 30.72c-.24.46-.07.97.36 1.1.8.26 1.4-.4 1.01-1.1-.25-.46-1.11-.46-1.37 0ZM36.78 30.58a.87.87 0 0 0-.2.56c0 .2.08.44.2.56.12.12.36.2.56.2.5 0 .77-.32.77-.86 0-.63-.87-.92-1.33-.46ZM15.15 30.87c-.24.48.22.94.7.7.38-.2.43-.51.12-.82-.3-.3-.62-.26-.82.12ZM40.2 30.75c-.27.27-.25.56.07.82.38.32.93-.2.65-.63-.24-.38-.46-.45-.72-.19ZM24.18 33.13a1.36 1.36 0 0 0-.38 1.6c.24.58.55.75 1.29.75.58 0 1.2-.68 1.2-1.3 0-.9-1.37-1.59-2.1-1.05ZM30.26 33.27c-.84.78-.24 2.21.93 2.21.63 0 1.27-.64 1.27-1.27 0-.2-.16-.58-.36-.84-.45-.56-1.29-.6-1.84-.1ZM21.03 33.71c-.26.41-.26.5-.04.9.35.62 1.22.7 1.6.16.36-.5.34-.87-.04-1.21a1 1 0 0 0-1.52.15ZM33.59 33.54c-.62.62-.15 1.6.75 1.6.55 0 .86-.39.86-1.09 0-.71-1.06-1.05-1.61-.5ZM18.15 33.93c-.16.52.08.87.6.87.56 0 .84-.54.51-.93-.3-.36-.97-.33-1.11.06ZM36.81 33.85c-.17.46.02.87.45.92.53.08.9-.4.67-.84-.21-.37-.98-.42-1.12-.08ZM15.22 34.02c-.14.36.05.61.46.61.26 0 .34-.1.3-.37-.08-.46-.6-.63-.76-.24ZM40.07 34.04c-.07.15-.04.35.07.46.27.27.8.08.8-.3 0-.44-.72-.57-.87-.16ZM27.25 36.35c-.91.7-.4 2.2.75 2.2.65 0 1.37-.66 1.37-1.28 0-.56-.7-1.27-1.25-1.27-.22 0-.61.15-.87.35ZM24.11 36.78c-.25.4-.25.5-.03.9.48.84 1.87.55 1.87-.4 0-.93-1.32-1.28-1.84-.5ZM30.54 36.52c-.36.2-.41 1.18-.1 1.49.34.34 1.3.25 1.5-.12.55-1.04-.39-1.96-1.4-1.37ZM21.25 36.78c-.33.3-.34.48-.1.94.36.66 1.54.27 1.54-.52 0-.27-.51-.7-.86-.7a.93.93 0 0 0-.58.28ZM33.7 36.71a.87.87 0 0 0-.21.56c0 .2.08.45.2.56.12.12.36.2.57.2.2 0 .44-.08.56-.2.12-.11.2-.35.2-.56 0-.2-.08-.44-.2-.56a.88.88 0 0 0-.56-.2c-.2 0-.45.08-.57.2ZM18.25 37c-.12.22-.1.4.05.61.3.41.86.26.93-.23.1-.67-.67-.96-.98-.38ZM36.9 36.95c-.3.36 0 .83.55.83.46 0 .63-.47.32-.85-.27-.32-.58-.32-.87.02ZM15.22 37.1c-.07.16-.04.36.07.46.25.26.75.02.68-.32-.07-.4-.62-.5-.75-.14ZM40.22 37.03c-.25.26-.08.67.3.67.37 0 .54-.41.28-.67-.1-.1-.24-.18-.29-.18-.05 0-.19.08-.29.18ZM24.32 39.98c-.48.72.17 1.45.96 1.07.5-.25.61-.83.24-1.2-.4-.4-.9-.35-1.2.13ZM27.28 40.01c-.36.77.36 1.49 1.13 1.13.48-.22.62-.99.24-1.36-.37-.38-1.14-.24-1.37.23ZM30.59 39.81c-.33.38-.15 1.16.26 1.31.82.3 1.52-.97.77-1.38-.46-.24-.79-.22-1.03.07ZM21.52 39.9c-.13.06-.2.32-.17.54.04.3.16.4.48.4.33 0 .45-.1.48-.4.05-.34-.19-.7-.48-.7a.83.83 0 0 0-.3.16ZM33.83 40c-.33.39-.14.85.38.9.32.03.48-.03.56-.3.2-.67-.5-1.13-.94-.6ZM18.29 40.19c-.06.13.03.39.18.54.24.26.31.26.54.02.15-.16.22-.4.15-.55-.14-.36-.74-.37-.87-.01ZM37.03 40.03c-.22.2-.12.7.18.8.39.16.8-.37.54-.7-.2-.23-.54-.29-.72-.1ZM15.32 40.32c0 .36.36.53.51.26.09-.12.1-.3.07-.36-.15-.24-.58-.15-.58.1ZM40.24 40.27c-.17.29.22.61.46.37.2-.2.07-.56-.19-.56-.08 0-.2.09-.27.19ZM21.61 43.1c-.26.24-.12.73.2.73.45 0 .62-.29.37-.6-.24-.27-.4-.32-.57-.13ZM24.57 43.25c-.18.2-.17.3.06.55.27.25.3.25.56 0 .33-.31.2-.82-.15-.82-.14 0-.34.12-.46.27ZM27.56 43.23c-.16.4.05.77.43.77.44 0 .77-.55.5-.82-.3-.29-.83-.25-.93.05ZM30.86 43.08c-.17.17-.15.72.04.82.3.18.72-.1.67-.48-.05-.36-.48-.56-.7-.34ZM34 43.15c-.3.19-.07.71.3.65.16-.04.32-.17.35-.33.07-.32-.32-.53-.65-.32ZM18.47 43.34c-.17.29.23.6.47.37.2-.2.07-.56-.2-.56-.08 0-.2.08-.27.19ZM37.12 43.44c.09.42.48.47.48.07 0-.2-.1-.36-.27-.36-.16 0-.24.12-.21.29ZM15.32 43.49c0 .08.12.17.26.17.13 0 .25-.09.25-.17 0-.1-.12-.17-.25-.17-.14 0-.26.07-.26.17ZM40.34 43.49c0 .08.09.17.17.17.1 0 .17-.09.17-.17 0-.1-.06-.17-.17-.17a.17.17 0 0 0-.17.17Z" /></svg>