<!-- by TradeStack --><svg width="56" height="56" viewBox="0 0 56 56" xmlns="http://www.w3.org/2000/svg"><path fill="#F0F3FA" d="M0 0h56v56H0z"/><path d="M11 29v-9h6v1.25h-4.58V24H16v1.22h-3.58V29H11ZM19 20h1.47v9H19v-9ZM23 29v-9h4.06c.4 0 .8.08 1.17.25a2.98 2.98 0 0 1 1.51 1.6 2.79 2.79 0 0 1 .09 1.95c-.09.28-.21.54-.37.78a2.53 2.53 0 0 1-1.33 1l2.2 3.42h-1.67l-2.03-3h-2.16v3H23Zm1.47-4.39h2.58c.2 0 .4-.04.57-.13.18-.09.33-.22.44-.37a1.85 1.85 0 0 0 .4-1.18 1.84 1.84 0 0 0-.45-1.18c-.14-.15-.3-.27-.48-.36a1.25 1.25 0 0 0-.56-.14h-2.5v3.36ZM37.26 22.14a2 2 0 0 0-.38-.3 3.95 3.95 0 0 0-1.32-.51 3.86 3.86 0 0 0-.82-.09c-.48-.03-.97.08-1.38.33-.14.1-.26.24-.33.4-.08.15-.11.32-.1.5-.01.18.03.36.13.53.11.15.26.27.43.36.23.11.47.2.72.27l1.02.26c.43.1.86.21 1.28.36.34.11.67.28.97.48a2 2 0 0 1 .6.7c.16.33.24.68.22 1.03a2.22 2.22 0 0 1-1 1.95c-.33.2-.7.36-1.09.45a6.96 6.96 0 0 1-3.39-.16c-.64-.2-1.25-.5-1.8-.9l.68-1.2a4.7 4.7 0 0 0 1.24.73c.3.12.61.22.93.3.34.07.69.11 1.04.11.46.03.93-.07 1.34-.29a.97.97 0 0 0 .36-.36.9.9 0 0 0 .11-.48c.01-.2-.05-.4-.17-.57-.14-.16-.31-.3-.51-.39a4.58 4.58 0 0 0-.8-.3c-.32-.1-.68-.2-1.08-.29-.41-.1-.82-.22-1.22-.37-.31-.1-.6-.27-.86-.47-.22-.17-.4-.39-.52-.64a2.46 2.46 0 0 1 .8-2.9 3.2 3.2 0 0 1 1.08-.5 5.16 5.16 0 0 1 3.1.11c.49.17.96.4 1.4.7l-.68 1.15ZM47 21.25h-3V29h-1.5v-7.75h-3.04V20H47v1.25ZM15.68 31v6h-.43v-2.87h-3.82V37H11v-6h.43v2.74h3.82V31h.43ZM22 36.61V37h-4v-6h4v.39h-3.57v2.36h3.05v.37h-3.05v2.49H22ZM24 37v-6h.43v5.61H28V37h-4ZM29.57 31H30v6h-.43v-6ZM34.5 36.6c.35.02.7-.06 1-.22.27-.14.49-.35.64-.6.16-.26.27-.54.33-.84.07-.3.1-.63.1-.94v-3H37v3c0 .38-.04.76-.13 1.14-.08.34-.22.67-.43.96-.2.28-.46.5-.77.66a2.93 2.93 0 0 1-2.36-.02c-.31-.16-.58-.39-.78-.68-.2-.29-.33-.61-.4-.96A4.96 4.96 0 0 1 32 34v-3h.43v3c0 .32.03.64.1.96.06.3.17.58.34.84a1.8 1.8 0 0 0 1.63.8M45 37V31.8l-2.35 4.2h-.27L40 31.8V37h-.42v-6h.43l2.5 4.44 2.5-4.44h.43v6H45Z" fill="#00A1ED"/><path d="M27.8 12c-2.53 0-5.03.58-7.3 1.69a1.33 1.33 0 0 0-1.68-.27c-.27.16-.47.4-.57.7-.1.29-.09.6.03.89-1.14.8-2.17 1.74-3.07 2.8h.43c.83-.95 1.77-1.8 2.8-2.52.19.27.48.46.8.53.33.06.68 0 .96-.16a1.27 1.27 0 0 0 .49-1.7A16.31 16.31 0 0 1 31 12.64c3.5.7 6.65 2.5 8.97 5.16h.43a16.29 16.29 0 0 0-5.64-4.28c-2.17-1-4.55-1.52-6.96-1.52ZM27.8 43.68c-4.03 0-7.91-1.49-10.87-4.18h-.48A16.52 16.52 0 0 0 27.8 44c4.24 0 8.32-1.61 11.36-4.5h-.48a16.16 16.16 0 0 1-10.88 4.18Z" fill="#E0007A"/></svg>