<?xml version='1.0' encoding='utf-8'?>
<!-- by TradeStack -->
<svg width="56" height="56" viewBox="0 0 56 56" fill="none" xmlns="http://www.w3.org/2000/svg">
<rect width="56" height="56" fill="#76226D" />
<path fill-rule="evenodd" clip-rule="evenodd" d="M22 14H24V29H22V14Z" fill="#F0F3FA" />
<path fill-rule="evenodd" clip-rule="evenodd" d="M30 13H32V29H30V13Z" fill="#F0F3FA" />
<path fill-rule="evenodd" clip-rule="evenodd" d="M17 13C17 12.4444 17.4832 12 18.0872 12H27.9127C28.5168 12 29 12.4444 29 13C29 13.5556 28.5168 14 27.9127 14H18.047C17.4832 14 17 13.5556 17 13Z" fill="#F0F3FA" />
<path fill-rule="evenodd" clip-rule="evenodd" d="M30 13C30 12.4444 30.4716 12 31.0611 12H37.9389C38.5284 12 39 12.4444 39 13C39 13.5556 38.5284 14 37.9389 14H31.0611C30.4716 14 30 13.5556 30 13Z" fill="#F0F3FA" />
<path fill-rule="evenodd" clip-rule="evenodd" d="M30 20C30 19.4444 30.4352 19 30.9793 19H36.0207C36.5648 19 37 19.4444 37 20C37 20.5556 36.5648 21 36.0207 21H30.9793C30.4352 20.963 30 20.5185 30 20Z" fill="#F0F3FA" />
<path fill-rule="evenodd" clip-rule="evenodd" d="M28 37C28 36.4444 28.4746 36 29.0678 36H33.9322C34.5254 36 35 36.4444 35 37C35 37.5556 34.5254 38 33.9322 38H29.0678C28.4746 37.963 28 37.5185 28 37Z" fill="#F0F3FA" />
<path fill-rule="evenodd" clip-rule="evenodd" d="M33 37H35V42.5H33V37Z" fill="#F0F3FA" />
<path fill-rule="evenodd" clip-rule="evenodd" d="M34.9913 42.3012C34.9913 42.3012 35.1483 43.1578 34.128 43.7418C33.1077 44.3258 30.8318 46 27.5748 46C24.3178 46 18 44.1701 18 36.5779C18 28.9857 24.5532 27 27.1039 27C28.4451 27 32.083 26.901 32 29C31.9823 29.4478 31.5606 29.7644 31 29.7644C29.9405 29.7644 30.2432 29 27.1824 29C24.1216 29 20 31.9057 20 36.5389C20 41.1721 23.1798 44 27.5355 44C31.8913 44 34.5597 40.4324 34.5597 40.4324L34.9913 42.3012Z" fill="#F0F3FA" />
</svg>