<!-- by TradeStack --><svg width="56" height="56" viewBox="0 0 56 56" xmlns="http://www.w3.org/2000/svg"><path fill="#F0F3FA" d="M0 0h56v56H0z"/><path fill-rule="evenodd" d="M15.33 13A2.33 2.33 0 0 0 13 15.33v25.34A2.33 2.33 0 0 0 15.33 43h2.08c-.59-1.1-1.47-3.15-1.2-4.45L18.77 43h6.54c.32-1 .9-2.61 1.34-3.05L32.27 43h3.64l1.35-8.11 5.74.64V27.1h-2.4l-2.18 7.47-1.16-.47 2.46-7.98H43v-10.8A2.33 2.33 0 0 0 40.67 13H15.33ZM43 36.57l-4.58-.73L37.1 43h3.56A2.33 2.33 0 0 0 43 40.67v-4.1ZM29.3 43l-2.03-1.46-.4 1.46h2.43Zm5.06-26.44c1.44-.24 2.9.89 3.46 1.49H31.7c.44-.62.87-1.18 2.66-1.49Zm3.46 0h-1.36l2.41 1.73-1.05-1.73Zm.68 0 1.67.31v1.42l-1.67-1.73Zm2.1.31 1.74 1.18-1.73.62v-1.8Zm-8.9-.3c-1.68-.05-5.77.6-8.59 3.52v1.36c1.38-1.14 4.89-3.4 7.85-3.4l.74-1.49ZM18.17 25.9c.54-2.13 2.99-4.43 4.14-5.32v1.49c-1.13.5-3.23 2.76-4.14 3.83Zm20.7-6.88c-.65-.12-3-.35-7.17-.35-.07.36.02 1.33.94 2.25l.22-1.15 6.01-.75Zm-5.52 2.43c1.56-1.38 4.9-1.7 6.37-1.68-1.17.5-2.13 1-2.9 1.41-.98.52-1.68.89-2.14.89-.67 0-1.17-.42-1.33-.62Zm6.82-1.36.74.5-3.32 3.82-1.13-.62 3.71-3.7Zm2.17 1.1-.6-.27-2.02 4.29 1.19.35 1.43-4.38Zm-11.38-2.35a17.72 17.72 0 0 0-7.85 3.23c.01.4.18 1.42.78 2.34l.22-1.55c.96-.78 3.73-2.49 7.12-3.09l-.27-.93Zm-13.7 9.99c.78-2.62 3.7-5.19 5.05-6.14l.48 1.1a13.88 13.88 0 0 0-4.86 6.32l-.67-1.28Zm-1.06 7.96c-.18-1.57-.3-5.09.71-6.68l2.74 4.07-.7.7-1.69-2.6-.35 4.5h-.7Zm2.74 5.26c-.3-1.52-.53-5.08 1.06-7.16l6.01 4.77-.61.93-5.04-4.07c-.47 1.43-1.42 4.53-1.42 5.52Zm5.88-14.94c-2.3 1.52-4.17 5.34-4.82 7.07l.98.7c1.8-3.81 3.58-5.62 4.24-6.05l4.55 3.14.62-.8-5.57-4.06Zm-1.7-2.7 1.7 2.03-.7.4c-.64-.55-1.72-1.81-1-2.43Zm9.52-2.74c-1.37-.3-5.52 3.06-7.42 4.77l.97.67 6.45-4.42 2.4 1.72.43-.62-2.83-2.12Zm-1.69 9.87-4.3 7.62 1.2.8 3.82-6.83 4.8 1.76.58-.31-6.1-3.04Zm.28-.37 4.84-6.76 3.25 1.72-.22.31-2.34-.63-4.33 5.95-1.2-.59Z" fill="#A77F05"/></svg>