<?xml version='1.0' encoding='utf-8'?>
<!-- by TradeStack -->
<svg width="56" height="56" viewBox="0 0 56 56" xmlns="http://www.w3.org/2000/svg"><path fill="#F0F3FA" d="M0 0h56v56H0z" /><path d="M40.87 28a23.4 23.4 0 0 1 1.46 4.74c.52 3.67 1.07 7.35 1.67 11.03.02.13-.04.19-.17.17-3.62-.6-7.24-1.14-10.86-1.65-1.03-.14-2.6-.6-4.74-1.4a.5.5 0 0 0-.36 0c-5.1 1.94-10.5 2.14-15.73 3.1a.11.11 0 0 1-.1-.02.12.12 0 0 1-.04-.1c.6-3.41 1.11-6.83 1.55-10.27.18-1.44.7-3.24 1.54-5.42a.52.52 0 0 0 0-.36c-1.84-5.01-2.12-10.41-3.06-15.64-.02-.14.03-.2.17-.18l11.54 1.76c.74.1 2.16.57 4.28 1.37.12.04.25.04.37 0a30.17 30.17 0 0 1 5.85-1.5c4.3-.6 7.43-1.07 9.35-1.4.13-.02.18.03.16.16l-1.6 10.4c-.25 1.7-.76 3.26-1.3 4.84a.5.5 0 0 0 .02.37Zm-18.45-9.06c.97-1 2.06-1.84 3.27-2.53.16-.1.15-.17-.03-.23-3.65-1.14-7.13-1.33-11.16-1.95-.11-.02-.16.03-.15.14.31 3.7.9 7.35 1.73 10.96.09.36.23.38.42.07 3.72-5.94 9.49-6.62 15.37-3.33a.72.72 0 0 0 1.05-.8c-.4-1.57-3.2-3.36-4.58-4.03a.4.4 0 0 0-.35 0c-1.14.51-1.97 1.25-3.22 1.45-.75.13-1.5.27-2.25.43-.24.06-.27 0-.1-.18Zm12.86 2.02c1.94.8 3.2 2.14 4.33 3.92a.15.15 0 0 0 .22.03 78.42 78.42 0 0 0 1.62-10.18c.02-.14-.05-.2-.18-.2-3.41.31-6.79.84-10.12 1.59-.18.04-.2.12-.06.23 1.69 1.39 3.15 2.17 3.96 4.37.04.12.12.2.23.24ZM23.32 23.3c2.37.2 4.74.14 7.1-.2.18-.03.2-.09.03-.18a9.77 9.77 0 0 0-7.84-.92.56.56 0 0 0-.32.25c-1.28 2.15-.6 5.76.52 7.78.11.2.18.18.2-.05.27-2.15.3-4.31.1-6.48 0-.15.06-.21.21-.2Zm10.5.6c1.34 2.81 2.24 4.82 2.07 8.06-.01.18.05.2.18.07a13.82 13.82 0 0 0 2.69-4.01.38.38 0 0 0 0-.32 11.5 11.5 0 0 0-3.89-4.7.36.36 0 0 0-.44.03l-.52.45c-.14.12-.17.26-.1.43Zm-11.9 8.32c-1.36-2.72-2.2-4.82-2.01-7.96 0-.18-.05-.2-.17-.08a13.41 13.41 0 0 0-2.5 3.58.42.42 0 0 0 0 .35 11.15 11.15 0 0 0 3.9 4.79.54.54 0 0 0 .78-.68Zm2.54-.6c2.15-.44 4.32-.6 6.52-.47.14 0 .22-.06.2-.21-.1-2.16.05-4.3.48-6.43.02-.14-.03-.2-.17-.17a25.7 25.7 0 0 1-6.42.48c-.15-.01-.22.06-.21.21a25.43 25.43 0 0 1-.49 6.54.07.07 0 0 0 .05.05h.04Zm8.32 1.24a30.48 30.48 0 0 0-7.15.23.07.07 0 0 0 .01.12 9.71 9.71 0 0 0 7.9.95.53.53 0 0 0 .31-.27c1.2-2.27.6-5.62-.56-7.73-.1-.17-.16-.16-.18.03-.24 2.15-.28 4.3-.1 6.46 0 .16-.07.23-.23.21Zm.77 4.2c-.9.98-1.92 1.8-3.07 2.48-.16.1-.15.18.03.25 3.34 1.2 7.54 1.5 11.06 1.89.12 0 .17-.04.16-.16-.43-3.8-.73-8.05-1.95-11.22-.07-.18-.15-.18-.24-.02-3.3 6.28-9.84 7.38-15.75 3.77a.53.53 0 0 0-.72.76 11.1 11.1 0 0 0 4.86 3.98.36.36 0 0 0 .31-.01c1.1-.58 1.99-1.41 3.24-1.57.66-.09 1.31-.2 1.97-.33.23-.05.26.01.1.18Zm-13.1-2.4a9.37 9.37 0 0 1-4.06-3.96c-.1-.16-.17-.15-.23.02-1.2 3.17-1.47 7.38-1.86 10.75-.02.14.05.2.18.2 3.65-.3 7.25-.89 10.8-1.75.2-.04.22-.13.04-.24-1.74-1.15-3.6-2.58-4.15-4.5a.42.42 0 0 0-.21-.26l-.5-.26Z" /></svg>