<!-- by TradeStack --><svg width="56" height="56" viewBox="0 0 56 56" fill="none" xmlns="http://www.w3.org/2000/svg">
<rect width="56" height="56" fill="#F0F3FA"/>
<path opacity="0.69" d="M31.0642 23.7413C30.446 22.3549 28.5301 22.8258 27.5001 23.4256C26.2645 24.1451 25.4285 25.3781 24.8928 26.6572C24.425 27.7742 24.0191 29.8512 25.6482 30.2654C27.1081 30.6365 28.6753 29.5704 29.5685 28.5445C30.5796 27.3832 31.7466 25.2964 31.0642 23.7413ZM29.1438 24.5501C29.0456 25.6049 28.6007 26.6745 28.0952 27.6002C27.8375 28.0721 27.548 28.5853 27.1442 28.9544C27.055 29.0359 26.8253 29.2517 26.674 29.1689C26.507 29.0776 26.5605 28.6647 26.5718 28.5321C26.6627 27.4654 27.1917 26.321 27.7152 25.3959C27.9676 24.9501 28.2539 24.4575 28.6562 24.1243C28.7249 24.0674 28.9246 23.8812 29.0425 23.9363C29.2073 24.0135 29.1569 24.4165 29.1438 24.5501ZM50.8178 25.8583C50.3711 24.3442 48.6868 23.1558 47.1335 24.0366C47.2011 22.8856 46.3161 22.1505 45.1695 22.2905C45.4604 21.8645 45.7189 21.225 45.5013 20.7208C45.2582 20.1575 44.5224 20.2752 44.0678 20.5065C43.5119 20.7895 43.0867 21.3728 42.888 21.9466C42.719 22.4348 42.7054 23.3248 43.4034 23.4003C43.863 23.45 44.7492 22.7685 44.98 23.4718C45.1511 23.9935 44.8194 24.7282 44.6281 25.1948C44.3777 25.8057 44.0226 26.4446 43.5207 26.8944C43.2056 27.1768 42.1875 27.7442 42.1649 26.9372C42.9818 26.9453 43.6307 26.2334 43.95 25.5666C44.238 24.9653 44.3815 23.8068 43.3697 23.8702C42.5269 23.9231 41.9055 24.8027 41.5479 25.4619C41.1711 26.1563 40.8439 27.1729 41.3491 27.8933C41.8995 28.6783 43.0408 28.3963 43.8138 28.1538C44.9419 27.8144 45.8923 27.0608 46.4664 26.0506C46.7082 25.627 46.8582 25.2202 47.2778 24.9258C48.0162 24.4077 48.9726 24.6954 49.4345 25.43C50.4395 27.0285 48.7905 29.0327 47.527 29.9246C45.9659 31.0265 44.0843 31.4367 42.1853 31.4597C40.2454 31.4832 38.4148 30.9113 36.5092 30.6772C34.6057 30.449 32.6755 30.571 30.8177 31.0369C26.7723 32.0448 23.7652 34.9173 21.1588 37.9559C22.729 37.2741 24.3117 36.7102 26.0537 36.7102C27.0016 36.7102 27.9969 36.8826 28.8232 37.3585C29.5058 37.7517 29.9148 38.2997 30.2129 39C30.8664 37.5255 31.8241 36.4009 33.3305 35.7119C34.9212 34.9844 36.7187 34.7426 38.4525 34.6049C40.3656 34.4531 42.2841 34.5252 44.1545 34.034C45.9064 33.5738 47.5986 32.73 48.898 31.4778C50.3493 30.0792 51.4494 27.872 50.8178 25.8583ZM33.9114 21.6277C34.996 22.5575 36.73 20.8843 35.737 19.8318C34.6459 18.6755 32.6953 20.603 33.9114 21.6277ZM22.4388 35.1813C23.7341 35.022 24.7312 33.7928 25.2843 32.7263C25.4091 32.4856 25.6538 32.1137 25.6641 31.8333C25.6685 31.7139 25.6538 31.7345 25.5787 31.6212C25.4232 31.3863 25.2275 31.1707 25.0539 30.948C24.8011 31.5731 24.4317 32.2052 23.7863 32.5134C22.859 32.9564 22.7294 31.8592 22.6527 31.204C22.4561 29.5271 22.6563 27.3251 21.2166 26.0955C22.821 24.7119 24.227 23.1234 25.8054 21.7113C26.533 21.0603 27.2907 20.4133 28.1646 19.9556C28.8924 19.5744 29.8608 19.1874 30.606 19.7209L31.0388 19.0576C31.0958 18.9703 31.2531 18.806 31.27 18.7033C31.2898 18.5833 31.1821 18.4842 31.0901 18.3753C30.2185 17.3436 28.6708 17.2846 27.4507 17.6494C24.6833 18.4769 23.2566 21.394 21.745 23.576C21.3231 24.2254 20.8386 24.8337 20.2982 25.3925C20.1227 25.5638 20.0857 25.5037 19.8683 25.4573C19.3104 25.342 18.7306 25.3838 18.196 25.5777C18.762 24.4241 19.3307 23.2576 20.0089 22.1624C20.1614 21.9162 20.3207 21.6741 20.4868 21.4363C20.5664 21.3227 20.6477 21.2104 20.7307 21.0992C20.8575 20.9297 20.9526 20.9138 21.1557 20.8547C21.7347 20.6907 22.29 20.4547 22.8078 20.1525C23.2574 19.8859 23.7827 19.531 23.9754 19.0284C24.1781 18.4998 23.7432 18.1349 23.2305 18.0825C22.1755 17.9748 20.9919 18.6409 20.1775 19.2271C19.9499 19.3909 19.7309 19.5657 19.5189 19.7485C19.2971 19.9398 19.0891 20.2089 18.8214 20.3156C18.2943 20.5259 17.6326 20.5464 17.0743 20.6311C15.7761 20.828 14.4526 21.0029 13.1905 21.3706C11.0494 21.9942 8.64523 23.6002 9.25228 26.1295C9.39669 26.7125 9.70479 27.2442 10.1417 27.6645C10.5786 28.0847 11.1269 28.3767 11.7244 28.5074C12.0827 28.5867 12.545 28.7097 12.8075 28.4306C13.0012 28.2247 13.1837 28.0075 13.3715 27.7964C11.4847 27.3201 11.6001 25.2622 12.6743 24.0121C13.9045 22.5805 16.0412 21.9885 17.8188 21.5434C15.8482 24.0361 14.4835 26.9943 13.0849 29.8167C12.4111 31.1765 11.7248 32.5535 10.8258 33.7874C10.1267 34.7469 8.98326 36.0481 7.61578 35.456C6.0787 34.7904 6.67397 32.5063 7.40569 31.4892C7.63746 32.7578 9.21367 32.1221 9.81518 31.5336C10.4371 30.925 11.1259 29.2361 9.80672 28.9484C8.74391 28.7166 7.57739 29.484 6.9026 30.2051C6.08417 31.0903 5.57826 32.21 5.45973 33.3987C5.35722 34.4608 5.65487 35.5731 6.55112 36.2421C7.40001 36.8757 8.53104 36.9024 9.54055 36.6999C11.8712 36.2323 13.5306 34.1466 14.7235 32.277C15.4602 31.076 16.1342 29.8391 16.7431 28.5712C16.8128 28.4325 16.882 28.2937 16.9509 28.1547C17.07 27.9141 17.0307 27.879 17.2829 27.9401C17.5779 27.9973 17.8822 27.9889 18.1735 27.9155C18.8182 27.7796 19.4071 27.4346 19.9439 27.071C20.6297 29.3087 17.9139 35.6768 22.4388 35.1813ZM32.0702 24.8549C31.8007 25.542 31.5254 26.227 31.2392 26.9076C30.9866 27.5081 30.6079 28.2584 30.8337 28.9206C31.0753 29.6294 31.9022 29.7188 32.5486 29.574C33.4197 29.379 34.2074 28.7937 34.7519 28.1143C35.1054 29.3084 36.5955 29.2269 37.541 28.896C38.6882 28.4945 39.5979 27.6199 40.2659 26.6436C40.9523 25.6402 41.5806 24.251 41.356 23.0169C41.1328 21.7912 39.9815 21.5028 38.8807 21.7593C37.7238 22.0288 36.7594 22.7681 36.0564 23.6895C35.7005 24.1628 35.3997 24.6736 35.1594 25.2123C35.0299 25.4913 34.9187 25.7782 34.8265 26.0711C34.7423 26.3461 34.7232 26.6473 34.5769 26.8967C34.3686 27.2521 33.809 27.8983 33.3199 27.832C32.9707 27.7846 33.2642 27.3054 33.3471 27.0986C33.7624 26.0624 34.3255 24.9876 34.5695 23.8966C34.6671 23.4603 34.7069 22.9126 34.3119 22.6006C33.8854 22.2636 33.195 22.3539 32.7037 22.4736C32.301 22.5718 32.1105 22.5998 31.9454 22.9469L31.5605 23.756C31.7268 23.7358 32.1343 23.6264 32.283 23.7179C32.5946 23.9096 32.1659 24.61 32.0702 24.8549ZM36.7195 27.3985C36.798 26.4217 37.2565 25.3758 37.7059 24.5135C37.9564 23.9903 38.2823 23.5052 38.6738 23.073C38.7721 22.9724 39.0082 22.7046 39.1745 22.7501C39.3572 22.8001 39.3132 23.1661 39.3055 23.3021C39.2436 24.3837 38.7447 25.5245 38.217 26.46C37.9919 26.8981 37.7108 27.3063 37.3803 27.6748C37.2786 27.7794 37.0585 28.0261 36.8902 27.9884C36.6758 27.9404 36.7092 27.5561 36.7195 27.3985Z" fill="black"/>
<path d="M25.7153 29.9003C24.7958 29.9003 24.1525 29.2871 24.0502 28.4035C23.9382 27.4359 24.3151 26.4545 24.7488 25.6043C25.5482 24.0374 26.916 22.6433 28.7716 22.4329C29.6304 22.3185 30.4541 22.6872 30.7102 23.5375C31.0035 24.5115 30.6288 25.5925 30.2087 26.4734C29.4025 28.1635 27.7674 29.9003 25.7153 29.9003ZM28.5838 23.5066C28.5759 23.5067 28.5681 23.5082 28.5607 23.511C28.1534 23.543 27.7747 24.1852 27.5819 24.4772C27.2688 24.9572 27.0008 25.464 26.7812 25.9914C26.672 26.2501 25.7157 28.8103 26.3254 28.758C26.7325 28.7152 27.089 28.1047 27.2852 27.8059C27.8634 26.9098 28.2949 25.9305 28.564 24.9037C28.6658 24.5087 28.8107 24.0012 28.6817 23.5978C28.6506 23.5066 28.6132 23.5066 28.5838 23.5066Z" fill="#15BEF0"/>
<path d="M8.00424 36.3834C6.83363 36.3834 5.7381 35.8391 5.26804 34.7461C4.75829 33.561 5.0352 32.1481 5.59975 31.0312C6.14507 29.9525 7.06908 28.9669 8.27839 28.6257C8.80031 28.4785 9.49632 28.3655 9.89326 28.8259C10.2967 29.2939 10.1213 29.9907 9.85519 30.4797C9.54531 31.0672 9.01382 31.513 8.37368 31.7226C7.75411 31.9053 7.10098 31.7783 6.97071 31.0653C6.40798 31.8482 6.07311 32.9076 6.29489 33.8609C6.50319 34.7563 7.24733 35.2684 8.17775 35.1299C9.45097 34.9868 10.3403 33.5071 10.9417 32.5443C11.6988 31.3319 12.3193 30.051 12.957 28.7765C14.2665 26.159 15.5524 23.4336 17.3848 21.1195C15.6069 21.5646 13.4708 22.156 12.2405 23.5881C11.1626 24.8427 11.0551 26.888 12.9365 27.3732L12.2444 28.1516C9.70348 28.3116 8.0764 25.8002 9.05475 23.5771C9.76187 22.0491 11.476 21.2775 13.044 20.8673C14.8374 20.3979 16.7211 20.3429 18.5064 19.8608C19.2176 19.1307 20.0528 18.5273 20.9747 18.0773C20.9786 18.0767 20.9824 18.0761 20.9863 18.0756C21.5649 17.8465 22.1602 17.6208 22.7955 17.6577C23.1673 17.6913 23.5989 17.9181 23.6026 18.3301C23.6063 18.7384 23.2316 19.1039 22.9366 19.3445C22.221 19.9279 21.3116 20.2851 20.4196 20.5131C19.3257 21.928 18.5427 23.5606 17.761 25.1538C17.8977 25.1045 18.0377 25.0645 18.18 25.0339C18.4962 24.9619 18.8232 24.9469 19.145 24.9896C19.3395 25.0075 19.5311 25.0478 19.7161 25.1095C20.727 24.1753 21.4491 22.9612 22.2084 21.8327C22.9296 20.7609 23.6472 19.6482 24.5708 18.7302C26.0905 17.2197 29.3859 15.9809 30.8658 18.2337L30.172 19.2978C29.9897 19.1553 29.7703 19.0656 29.5387 19.0389C29.3277 19.0233 29.1156 19.038 28.9089 19.0824C27.2452 19.4122 25.8551 20.8191 24.678 21.9217C23.3624 23.1543 22.1485 24.4907 20.7835 25.6724C21.7786 26.5172 21.9973 27.9851 22.1027 29.199C22.1571 29.826 22.1629 30.4555 22.2574 31.0792C22.3244 31.5221 22.4126 32.2361 23.0019 32.2033C23.1239 32.183 23.2421 32.1447 23.3523 32.0895C23.9966 31.7689 24.3657 31.1573 24.6189 30.5232L25.2523 31.3363C24.8891 32.503 24.1286 33.6641 23.081 34.349C22.1239 34.9747 20.5906 35.0211 19.8485 34.0535C19.084 33.0567 19.2753 31.5876 19.3697 30.4295C19.4248 29.7542 19.5052 29.0811 19.5583 28.4056C19.6036 27.8287 19.6835 27.211 19.5088 26.6471C18.7722 27.1515 17.5828 27.8625 16.6536 27.4515C15.6663 29.4653 14.6654 31.5179 13.27 33.2969C11.9693 34.9553 10.2419 36.3834 8.00424 36.3834Z" fill="#15BEF0"/>
<path d="M34.2078 21.4687C34.053 21.4686 33.8999 21.4366 33.7586 21.3747C33.6173 21.3128 33.4909 21.2224 33.3876 21.1095C33.2843 20.9965 33.2065 20.8635 33.1592 20.7191C33.1119 20.5747 33.0961 20.4221 33.113 20.2714C33.1546 19.9402 33.3173 19.635 33.5709 19.4122C33.8245 19.1895 34.1518 19.0643 34.4924 19.0598C34.6567 19.0618 34.8185 19.0996 34.9661 19.1703C35.1138 19.241 35.2436 19.3429 35.3461 19.4687C35.4487 19.5944 35.5215 19.741 35.5593 19.8976C35.5971 20.0543 35.599 20.2173 35.5647 20.3748C35.4979 20.6805 35.3274 20.955 35.081 21.1537C34.8346 21.3523 34.5268 21.4634 34.2078 21.4687Z" fill="#15BEF0"/>
<path d="M31.5621 29.2132C30.1318 29.2132 30.253 27.844 30.633 26.8972C31.0478 25.8637 31.4464 24.8159 31.8939 23.796C32.1383 23.1495 31.5619 23.2802 31.1272 23.3321L31.6386 22.254L31.6983 22.2332C31.7854 22.1993 31.8859 22.1663 32.0016 22.1272C32.6373 21.8995 33.8269 21.7385 34.1325 22.5252C34.4325 23.2975 33.8745 24.2709 33.5973 24.9757L33.5822 25.0104C33.4656 25.3032 33.342 25.609 33.2015 25.9512C33.16 26.0576 32.5579 27.2473 32.7363 27.3707C33.2833 27.689 34.0566 26.6724 34.2395 26.2918C34.4454 25.0113 35.1595 23.6996 36.0567 22.7548C36.9163 21.8494 38.3225 21.0188 39.6403 21.2629C41.2091 21.5534 41.0862 23.3798 40.6841 24.5167C40.2251 25.8145 39.3997 27.0597 38.2536 27.8726C37.2295 28.5989 35.0383 29.3457 34.3596 27.7964C34.3428 27.7629 34.3291 27.728 34.3187 27.6921C33.6663 28.4945 32.6495 29.2132 31.5621 29.2132ZM38.7403 22.326C38.7307 22.3256 38.7211 22.3265 38.7118 22.3286C38.2113 22.3839 37.7613 23.2408 37.5434 23.6068C37.2407 24.1259 36.9815 24.6682 36.7683 25.2284C36.6914 25.4369 36.6155 25.6457 36.545 25.8565C36.5353 25.8886 36.5237 25.9215 36.513 25.952C36.4916 26.025 36.4712 26.0901 36.4499 26.1527C36.4013 26.3188 36.0586 27.5953 36.4845 27.5643C36.9236 27.4971 37.2927 26.8478 37.5004 26.5168C37.7768 26.0772 38.0198 25.6182 38.2273 25.1436C38.3281 24.9126 39.2491 22.326 38.7403 22.326Z" fill="#15BEF0"/>
<path d="M29.6426 38.2556C28.9335 36.5951 26.7312 36.2082 25.11 36.3028C23.5529 36.3937 22.1354 36.9182 20.7246 37.532C22.3298 35.6645 24.0287 33.8597 26.1191 32.5021C28.4368 30.9963 31.1483 30.1769 33.929 30.1419C36.5851 30.0582 39.1002 31.066 41.7503 31.035C44.2762 31.0054 47.0684 30.2155 48.5553 28.0572C49.2659 27.0258 49.7575 25.3018 48.4685 24.4797C48.2811 24.3463 48.0618 24.2623 47.8318 24.2358C47.6017 24.2094 47.3686 24.2413 47.1547 24.3285C46.8114 24.4873 46.5204 24.7375 46.3151 25.0504C46.0773 25.6334 45.7208 26.1628 45.2674 26.6064C44.8139 27.0499 44.273 27.3984 43.6777 27.6305L43.6608 27.6565L43.5958 27.6582C42.6838 27.9823 41.154 28.3509 40.7521 27.1431C40.74 27.1085 40.7326 27.0726 40.7299 27.0362C40.7272 27.0215 40.7255 27.0075 40.7237 26.9954C40.5719 26.3785 40.7473 25.7199 41.0439 25.1711C41.3868 24.4958 41.9493 23.6547 42.7552 23.4714C43.7124 23.2537 43.8751 24.2173 43.6234 24.8966C43.3193 25.6611 42.6549 26.5124 41.7306 26.5124C41.7293 26.6224 41.7611 26.7303 41.8222 26.8225C41.8688 26.8696 41.9271 26.9039 41.9913 26.9222C42.0556 26.9405 42.1236 26.942 42.1886 26.9268C43.2897 26.7877 43.9811 25.404 44.2967 24.4987C44.4642 24.0493 44.9686 22.5685 43.9587 22.7474C43.5927 22.7925 43.1682 23.0956 42.8015 22.9368C42.3076 22.7371 42.2951 22.0881 42.4164 21.6616C42.4204 21.6485 42.4231 21.6352 42.4244 21.6216C42.4332 21.5956 42.4413 21.5608 42.4537 21.5217C42.5935 21.1479 42.8055 20.804 43.0781 20.5088C43.0905 20.497 43.1018 20.4843 43.112 20.4706C43.1377 20.4445 43.1627 20.4158 43.1938 20.3889C43.572 20.0469 44.3231 19.6749 44.8225 19.9973C45.2725 20.2877 45.1559 20.9432 45.0057 21.3584L45.0039 21.3627V21.3671C44.9359 21.5117 44.863 21.6532 44.7833 21.7919C44.7673 21.8179 44.7521 21.8431 44.7352 21.8666C45.8729 21.7292 46.7715 22.4604 46.6984 23.6127C46.8149 23.5461 46.9368 23.4891 47.063 23.4424C48.5435 22.9459 49.967 24.0169 50.3728 25.3996C50.5316 25.9011 50.5897 26.428 50.5436 26.9512C50.541 27.0302 50.5348 27.1067 50.5276 27.1883C50.0737 30.6754 46.6345 32.9352 43.3948 33.69C41.5809 34.1127 39.7242 34.0383 37.8789 34.1927C36.2722 34.3271 34.623 34.5575 33.1308 35.185C31.5101 35.8664 30.4747 37.0115 29.7786 38.5761L29.6426 38.2556Z" fill="#15BEF0"/>
</svg>
