<!-- by TradeStack --><svg width="56" height="56" viewBox="0 0 56 56" xmlns="http://www.w3.org/2000/svg"><path fill="#181B1E" d="M0 0h56v56H0z"/><path d="M18.67 14c.15.46.5 1.2 1.05 1.62-.94.36-3.72 2.37-3.72 4.11 0 1.4 1.19 3.08 1.76 3.75-1.12.8-3.35 3.04-3.35 5.5 0 3.07 4.43 6.58 8.3 7.8-1.25.63-4.97 3.4-7.36 5.22H14V14h4.67Zm1.4 0c.23.47.58.9.74 1.06L22.38 14h-2.3Zm6.3 0-4.33 1.77a55.5 55.5 0 0 0 6.1 2.37c5.39-1.78 8.22-3.39 9.2-4.14H26.39Zm13.35 0c-1.28 1.7-7.96 4.56-9.17 4.93C38.9 21.35 41 24.28 41 26.35c0 1.9-1.46 3.45-2.7 4.76l-.32.35c1.97 1.38 3.46 3.19 3.46 6.11 0 2.19-.82 3.79-1.31 4.43H42V14h-2.28Zm-6.75 28a78.51 78.51 0 0 0-6.06-3.37L22.43 42h10.54ZM20.22 23.33l7.6-3.63c1.59.58 5.22 1.93 7.08 2.69 2.32.94 4.1 2.48 4.1 3.84 0 1.08-2.58 2.8-3.8 3.51-4.64-1.72-14.1-5.41-14.98-6.4Zm3.85 4.23a19.26 19.26 0 0 1-5.46-3.16c-1.08.76-3.23 2.66-3.23 4.1 0 3.29 6.77 5.8 10.15 6.65L32.61 31a489.9 489.9 0 0 0-8.54-3.45ZM30 37l5.8-4.1c1.1.61 3.2 2.31 3.2 4.23a6.04 6.04 0 0 1-1.93 4.13C35.82 40.24 32.84 38.04 30 37Zm-4-18.04c-2.48-.64-4.61-2-5.37-2.6-2.96 1.86-3.46 2.6-3.46 3.58 0 .91 1.5 2.2 2.02 2.64l.1.07A47 47 0 0 1 26 18.96Z" fill="url(#ainahiwsc)"/><defs><linearGradient id="ainahiwsc" x1="28" y1="14" x2="28" y2="42" gradientUnits="userSpaceOnUse"><stop stop-color="#574308"/><stop offset=".37" stop-color="#FFB21E"/></linearGradient></defs></svg>