<?xml version='1.0' encoding='utf-8'?>
<!-- by TradeStack -->
<svg width="56" height="56" viewBox="0 0 56 56" xmlns="http://www.w3.org/2000/svg"><path fill="#F0F3FA" d="M0 0h56v56H0z" /><g opacity=".7"><path d="M42 18.9c0-4.26-2.79-6.37-4.18-6.9-4.46 2.62-12.09 5.7-15.34 6.9C19.23 22.07 14 29.22 14 35.77 14 42.3 19.34 44 21.78 44 32.58 44 42 24.24 42 18.9Z" fill="#FFC417" /><path d="M37.79 30.27c-2.94 5.22-7.68 7.98-10.6 6.18-2.93-1.81-2.92-7.5.02-12.72 2.94-5.22 7.69-7.98 10.6-6.18 2.93 1.81 2.92 7.5-.02 12.72Z" fill="#FFE18F" /></g></svg>