<?xml version='1.0' encoding='utf-8'?>
<!-- by TradeStack -->
<svg width="56" height="56" viewBox="0 0 56 56" xmlns="http://www.w3.org/2000/svg"><path fill="#F0F3FA" d="M0 0h56v56H0z" /><path d="M17 16h11.72L18.15 26.61A8.6 8.6 0 0 0 17 28.78V16Zm2.86 15.89c-.34-.33-.6-.74-.77-1.19a3 3 0 0 1 .54-2.74L31.6 16h2.86L21.3 29.07a.94.94 0 0 0-.1 1.06c.36.58.84.58 1.42.42L37.14 16h3.03L24.03 32.19a3.42 3.42 0 0 1-2.97.44c-.45-.16-.86-.41-1.2-.74ZM43 16 35 24l-9 9h9v-9h8v-8ZM18.41 33.24c.7.71 1.58 1.2 2.54 1.42 1.72.4 3.8-.43 5.05-1.66v9h-9V30.66c.22.98.71 1.88 1.41 2.58Z" fill="#0092D7" /></svg>