<?xml version='1.0' encoding='utf-8'?>
<!-- by TradeStack -->
<svg width="56" height="56" viewBox="0 0 56 56" fill="none" xmlns="http://www.w3.org/2000/svg">
<rect width="56" height="56" fill="#F0F3FA" />
<path d="M4 24H8.99729V25.5342H5.66903V27H8.53164V28.5122H5.66903V31H4" fill="#161616" />
<path d="M14.7013 30.222C14.4515 30.4686 14.1543 30.6653 13.8264 30.801C13.4741 30.9344 13.0983 31 12.7201 30.994C12.3835 31.0171 12.0457 30.9732 11.7273 30.8652C11.4089 30.7571 11.1166 30.5871 10.8684 30.3656C10.4938 30.0432 10.2304 29.6171 10.1138 29.1448C10.0263 28.6 9.98915 28.0487 10.0027 27.4975C9.99003 26.9421 10.0241 26.3867 10.1046 25.8367C10.1786 25.4532 10.3745 25.1016 10.6647 24.8313C10.9282 24.5643 11.2426 24.3494 11.5905 24.1984C11.9413 24.065 12.3156 23.9994 12.6923 24.0054C13.2827 23.9673 13.8681 24.1317 14.3462 24.4697C14.8243 24.8077 15.1647 25.298 15.3078 25.8547C15.3974 26.3978 15.4392 26.9474 15.4328 27.4975C15.4447 28.0544 15.4091 28.6114 15.3263 29.1627C15.237 29.5704 15.0185 29.9408 14.7013 30.222ZM13.4191 25.8098C13.3406 25.713 13.2367 25.6385 13.1182 25.5943C12.9885 25.5387 12.8479 25.5112 12.7062 25.5135C12.5659 25.5112 12.4269 25.5388 12.2988 25.5943C12.1801 25.6488 12.0768 25.7305 11.9979 25.8322C11.8971 25.9738 11.8335 26.1371 11.8127 26.308C11.7611 26.7024 11.741 27.1001 11.7526 27.4975C11.7408 27.8949 11.761 28.2925 11.8127 28.6869C11.8349 28.8484 11.8968 29.0024 11.9933 29.1358C12.0743 29.2385 12.1789 29.3215 12.2988 29.3782C12.4251 29.4395 12.5649 29.4703 12.7062 29.4679C12.8258 29.4799 12.9467 29.4646 13.0592 29.4233C13.1717 29.382 13.2728 29.3158 13.3543 29.23C13.4808 29.0641 13.5664 28.8721 13.6042 28.669C13.6536 28.2744 13.6737 27.8769 13.6644 27.4795C13.6731 27.0836 13.653 26.6877 13.6042 26.2945C13.5807 26.1216 13.5174 25.9559 13.4191 25.8098Z" fill="#161616" />
<path d="M20.253 31L18.6189 28.2237L17.9999 28.8767V31H16.3789V24H17.9999V26.4749L20.0725 24H22.2019L19.7855 26.8311L22.2806 31H20.253Z" fill="#161616" />
<path d="M25.4892 30.9987C24.8374 31.0176 24.2037 30.7708 23.7205 30.3097C23.4825 30.0808 23.2949 29.8 23.1708 29.4868C23.0466 29.1736 22.9889 28.8357 23.0017 28.4965V24H24.6199V28.4648C24.6051 28.7339 24.6865 28.9991 24.848 29.2082C24.9294 29.3 25.0291 29.3717 25.14 29.4179C25.2509 29.4642 25.3702 29.4839 25.4892 29.4756C25.609 29.4819 25.7286 29.4617 25.8405 29.4165C25.9524 29.3712 26.0541 29.3018 26.1391 29.2127C26.224 29.1109 26.2891 28.9924 26.3304 28.8641C26.3718 28.7357 26.3887 28.6001 26.3801 28.4648V24H27.9982V28.5011C28.0112 28.841 27.9527 29.1798 27.827 29.4932C27.7012 29.8067 27.5114 30.087 27.2709 30.3142C26.7828 30.7753 26.1446 31.0205 25.4892 30.9987Z" fill="#161616" />
<path d="M31.4777 30.998C31.0018 31.0068 30.5273 30.9402 30.0702 30.8004C29.6649 30.6595 29.2987 30.4157 29.0039 30.0906L30.0318 29.0081C30.208 29.1846 30.4237 29.3113 30.6588 29.3764C30.9299 29.4535 31.2097 29.4913 31.4905 29.4887C32.1133 29.4887 32.4246 29.2866 32.4246 28.8733C32.4366 28.742 32.4016 28.6106 32.3265 28.505C32.2718 28.4404 32.205 28.3884 32.1303 28.3523C32.0463 28.3146 31.957 28.2918 31.8659 28.2849L31.0768 28.1681C30.5862 28.1238 30.1231 27.9107 29.7589 27.5617C29.4498 27.1809 29.2965 26.6867 29.3323 26.1872C29.3184 25.8937 29.3662 25.6005 29.4724 25.3287C29.5786 25.0569 29.7405 24.8132 29.9465 24.615C30.4315 24.1853 31.0539 23.9667 31.6867 24.0041C32.1117 23.9952 32.5352 24.0589 32.9407 24.1928C33.2986 24.3239 33.6228 24.5407 33.8876 24.8261L32.8895 25.8862C32.7682 25.7576 32.623 25.6567 32.463 25.5898C32.2478 25.5116 32.0209 25.4751 31.7934 25.4819H31.6526C31.441 25.4655 31.2311 25.5328 31.064 25.6706C31.0013 25.7254 30.9509 25.794 30.9162 25.8717C30.8816 25.9493 30.8636 26.034 30.8635 26.1198C30.8631 26.1815 30.8747 26.2427 30.8977 26.2995C30.9233 26.3535 30.958 26.4022 31 26.4432C31.0476 26.4957 31.104 26.5383 31.1664 26.569C31.2541 26.6099 31.3479 26.6342 31.4436 26.6409L32.2327 26.7576C32.6691 26.7833 33.0875 26.9495 33.4312 27.2338C33.6363 27.4345 33.7928 27.684 33.8876 27.9615C33.9691 28.2438 34.008 28.5379 34.0028 28.8329C34.0131 29.1389 33.953 29.4429 33.8274 29.7191C33.7019 29.9952 33.5147 30.2352 33.2819 30.4185C32.7589 30.8186 32.1237 31.0226 31.4777 30.998Z" fill="#161616" />
<path d="M40.9945 22L43.6558 24.6639L43.3023 25.0227L40.9945 22.7127L35.7171 28L40.9945 33.2822L43.3023 30.9773L43.6558 31.3361L40.9945 34L35 28L40.9945 22Z" fill="#17C599" />
<path fill-rule="evenodd" clip-rule="evenodd" d="M51.8912 27.3455C51.7906 27.4487 51.6558 27.5064 51.5155 27.5064C51.3751 27.5064 51.2403 27.4487 51.1397 27.3455C51.0012 27.1995 51.0012 27.0378 51.0012 26.751C51.0012 26.4642 51.0012 26.3025 51.1397 26.1617C51.1868 26.1096 51.2436 26.0683 51.3066 26.0405C51.3695 26.0127 51.4373 25.9989 51.5056 26.0001C51.627 25.9991 51.7446 26.0454 51.8358 26.1301C51.927 26.2147 51.9854 26.3318 52 26.459H51.7874C51.7765 26.3853 51.7402 26.3185 51.6854 26.2713C51.6307 26.2242 51.5613 26.2 51.4907 26.2034C51.4132 26.2032 51.3386 26.2351 51.2831 26.2921C51.2138 26.3755 51.199 26.4538 51.199 26.751V26.751C51.199 27.0482 51.199 27.1317 51.2831 27.2151C51.3386 27.2722 51.4132 27.304 51.4907 27.3038C51.5334 27.3041 51.5757 27.2949 51.6149 27.277C51.6541 27.259 51.6892 27.2326 51.7182 27.1995C51.7678 27.1329 51.7925 27.0493 51.7874 26.9648V26.8918H51.4907V26.7041H51.9852V26.9283C51.9984 27.0009 51.9969 27.0756 51.9807 27.1475C51.9645 27.2195 51.934 27.2869 51.8912 27.3455ZM41.0728 27.5017V26.5109L40.7514 27.2306H40.5932L40.2866 26.5109V27.5017H40.074V26.0259H40.2866L40.6921 26.9437L41.0926 26.0259H41.2755V27.5017H41.0728ZM42.759 27.5018V26.026H42.9707V27.5018H42.759ZM44.5834 26.4588L45.2312 27.5018H45.4438V26.026H45.2312V27.069L44.5884 26.026H44.3906V27.5018H44.5834V26.4588ZM46.8925 27.5018V26.026H47.1042V27.5018H46.8925ZM48.7664 26.4588L49.4091 27.5018H49.6069V26.026H49.3943V27.069L48.7466 26.026H48.5538V27.5018H48.7664V26.4588ZM40.3059 29.9618C40.3689 29.9887 40.4364 30.0017 40.5043 29.9998C40.625 30.0009 40.742 29.9554 40.8331 29.8718C40.9241 29.7882 40.9831 29.6724 40.9988 29.5461H40.7862C40.7755 29.618 40.7406 29.6833 40.6879 29.7303C40.6353 29.7772 40.5683 29.8025 40.4994 29.8017C40.4218 29.8019 40.3473 29.7701 40.2917 29.713C40.2077 29.6348 40.2077 29.5514 40.2077 29.2541C40.2077 28.9569 40.2225 28.8682 40.2917 28.79C40.3473 28.733 40.4218 28.7011 40.4994 28.7013C40.568 28.6995 40.6349 28.7246 40.687 28.7718C40.7391 28.819 40.7726 28.885 40.7812 28.9569H40.9988C40.9831 28.8306 40.9241 28.7148 40.8331 28.6312C40.742 28.5476 40.625 28.5021 40.5043 28.5032C40.4364 28.5013 40.3689 28.5143 40.3059 28.5412C40.243 28.5681 40.186 28.6084 40.1384 28.6596C40 28.8056 40 28.9725 40 29.2541C40 29.5357 40 29.6974 40.1384 29.8434C40.186 29.8946 40.243 29.9349 40.3059 29.9618ZM43.1891 29.8433C43.0898 29.9431 42.9579 29.9988 42.8208 29.9988C42.6836 29.9988 42.5517 29.9431 42.4524 29.8433C42.3186 29.7022 42.3187 29.5466 42.3189 29.2822L42.3189 29.254V29.254C42.3189 28.9724 42.3189 28.8056 42.4524 28.6596C42.5517 28.5598 42.6836 28.5041 42.8208 28.5041C42.9579 28.5041 43.0898 28.5598 43.1891 28.6596C43.3229 28.8006 43.3228 28.9563 43.3226 29.2254L43.3226 29.254L43.3226 29.2827C43.3228 29.5514 43.3229 29.7022 43.1891 29.8433ZM43.0309 28.8004C43.0034 28.7703 42.9703 28.7465 42.9338 28.7303C42.8972 28.7142 42.8579 28.7061 42.8183 28.7065C42.7795 28.7065 42.741 28.7148 42.7053 28.7309C42.6696 28.7471 42.6374 28.7707 42.6106 28.8004C42.5414 28.8786 42.5315 28.962 42.5315 29.2593V29.2593C42.5315 29.5565 42.5315 29.6347 42.6106 29.7129C42.6374 29.7426 42.6696 29.7662 42.7053 29.7824C42.741 29.7985 42.7795 29.8068 42.8183 29.8068C42.8579 29.8072 42.8972 29.7991 42.9338 29.783C42.9703 29.7668 43.0034 29.743 43.0309 29.7129C43.0952 29.6347 43.11 29.5513 43.11 29.2593C43.11 28.9672 43.0952 28.8734 43.0309 28.7951V28.8004ZM45.1965 29.3687L45.4932 29.9893H45.7256L45.4339 29.3374C45.5157 29.3159 45.5879 29.2652 45.6384 29.1939C45.6888 29.1226 45.7144 29.0352 45.7108 28.9463C45.7124 28.8868 45.702 28.8275 45.6804 28.7725C45.6587 28.7175 45.6263 28.6679 45.5852 28.627C45.5441 28.5861 45.4953 28.5549 45.4419 28.5353C45.3886 28.5158 45.3319 28.5083 45.2756 28.5135H44.7367V29.9893H44.9345V29.3687H45.1965ZM44.9345 28.7169H45.2312C45.2888 28.7169 45.3442 28.741 45.385 28.7841C45.4258 28.8271 45.4487 28.8855 45.4487 28.9463C45.4487 29.0072 45.4258 29.0655 45.385 29.1086C45.3442 29.1516 45.2888 29.1758 45.2312 29.1758H44.9345V28.7169ZM47.6193 29.4106H47.3028V29.9894H47.0902V28.5136H47.6193C47.7321 28.5136 47.8402 28.5609 47.92 28.645C47.9997 28.7291 48.0445 28.8431 48.0445 28.9621C48.0445 29.081 47.9997 29.1951 47.92 29.2792C47.8402 29.3633 47.7321 29.4106 47.6193 29.4106ZM47.6193 28.717H47.3127V29.2072H47.6193C47.6498 29.2072 47.68 29.2008 47.7082 29.1885C47.7364 29.1762 47.762 29.1581 47.7836 29.1354C47.8052 29.1126 47.8223 29.0856 47.834 29.0559C47.8457 29.0261 47.8517 28.9943 47.8517 28.9621C47.8517 28.9299 47.8457 28.898 47.834 28.8683C47.8223 28.8385 47.8052 28.8115 47.7836 28.7888C47.762 28.766 47.7364 28.748 47.7082 28.7356C47.68 28.7233 47.6498 28.717 47.6193 28.717ZM49.1866 29.739V29.9894H49.4226V29.739H49.1866Z" fill="#161616" />
</svg>