<!-- by TradeStack --><svg width="56" height="56" viewBox="0 0 56 56" xmlns="http://www.w3.org/2000/svg"><path fill="#F0F3FA" d="M0 0h56v56H0z"/><path d="M43 22h-3.52c-4.24.5-5.13 4.88-4.07 8 .2.62.57 1.18 1.08 1.66.02.02.02.04.01.06L35.2 34h.05l2.57-1.44a.07.07 0 0 1 .06 0c.74.31 1.35.44 2.23.44h7.33c.56 0 1.06-.18 1.51-.46.03 0 .03-.03.02-.05l-2.6-3.83h-.04l-1.68 2.67a.06.06 0 0 1-.06.03h-1.56a.02.02 0 0 1 0-.03l2.45-3.92a.04.04 0 0 0 0-.04l-2.44-3.59a.13.13 0 0 1-.02-.07L43 22Zm-5.68 7.36c-1.1-2.85.55-6.6 4.47-5.54.34.09.63.2.86.35.02.01.03.03.02.06l-.35 1c-.01.02-.03.03-.05.02a3.18 3.18 0 0 0-2.57-.26c-1.4.57-1.5 2.4-1.22 3.55.45 1.82 2.39 2 3.9 1.25a.04.04 0 0 1 .03 0l.01.02.31.96c.02.08 0 .13-.08.16-1.97.82-4.5.59-5.33-1.57ZM47.76 22h-4.09l2.66 3.94c.02.03.04.03.06 0l1.21-1.9a.06.06 0 0 1 .06-.04h1.59v.03l-2.02 3.18a.05.05 0 0 0 0 .06l3.01 4.41a.06.06 0 0 0 .05.03.07.07 0 0 0 .05-.02A5.68 5.68 0 0 0 52 27.94v-1.07c-.13-2.46-1.41-4.5-4.24-4.87Z" fill="#71A624"/><path d="M4 30.56v-5.43l.08-.47c.4-1.7 2.1-1.89 3.43-1.48.06.01.08.05.07.11l-.2 1.02c0 .04-.01.05-.04.04-1.25-.34-2.17.06-1.96 1.62 0 .02.01.03.04.03H7.3c.03 0 .05.02.05.05v1.1l-.02.02H5.4c-.03 0-.04.02-.04.05v4.77h-.02c-.82.01-1.26-.62-1.34-1.43ZM10.85 30.83h.02l.01.01a.05.05 0 0 1 .01.04l-.18 1.09c0 .02-.02.03-.04.03-.75 0-1.62-.19-1.91-.98-.08-.2-.12-.61-.12-1.22v-6.54c0-.02.01-.04.03-.04l1.3-.22H10v.03l.01 6.91c0 .57.3.86.85.89ZM30.66 26.22V23.3a.06.06 0 0 1 .04-.06L32 23v8.63c0 .02 0 .04-.02.04-1.1.34-2.69.53-3.74 0-1.57-.77-1.8-2.81-1.2-4.26.6-1.42 2.26-1.75 3.57-1.16a.03.03 0 0 0 .03 0 .03.03 0 0 0 .02-.03Zm-1.52.96c-.96.23-1.08 1.53-.95 2.28.25 1.3 1.28 1.53 2.43 1.28.02-.01.03-.03.03-.05v-3.2a.06.06 0 0 0-.03-.05 1.93 1.93 0 0 0-1.48-.26ZM24.66 25.1c.47.01.86-.36.86-.82a.84.84 0 0 0-.84-.83.84.84 0 0 0-.86.82c0 .46.37.83.84.84ZM16.98 27.88v.01h.03l.01-.01c.48-1.37 1.66-2.02 3.07-1.84.93.12 1.6.6 2.03 1.4.43.85.49 2 .12 2.86-.96 2.33-4.4 2.26-5.21-.17l-.01-.01a.03.03 0 0 0-.03 0h-.01a2.68 2.68 0 0 1-2.7 1.88 2.68 2.68 0 0 1-2.67-2.28c-.24-1.21.09-2.62 1.23-3.3 1.53-.91 3.6-.3 4.14 1.46Zm3.48-.46c-.5-.38-1.12-.31-1.62.04-.5.36-.82 1.12-1.44 1.3-1.16.36-1.53-.78-2.25-1.31-.53-.39-1.22-.4-1.7.06-.7.66-.71 2.51.11 3.1.73.5 1.55.12 2.05-.5.26-.33.57-.71.96-.86 1.61-.6 1.81 2 3.45 1.55 1.31-.36 1.36-2.68.44-3.38ZM26.27 30.9l-.18 1.06c0 .03-.02.04-.05.04-1.39.03-2.04-.54-2.04-1.99a10588.79 10588.79 0 0 1 .02-4.01h1.32c.03 0 .04.01.04.04v3.6c0 .69.05 1.2.84 1.2h.02a.05.05 0 0 1 .03.04v.02Z" fill="#101211"/></svg>