<?xml version='1.0' encoding='utf-8'?>
<!-- by TradeStack -->
<svg width="56" height="56" viewBox="0 0 56 56" xmlns="http://www.w3.org/2000/svg"><path fill="#F0F3FA" d="M0 0h56v56H0z" /><path fill-rule="evenodd" d="M13 16.64v12.44c0 2.17.8 7.06 3.97 9.28l2.12 1.45c3.53 2.42 7.37 5.05 8.89 7.19a37.7 37.7 0 0 1 8.38-6.54c5.09-2.9 6.64-6.7 6.64-11.38V16.64c-2.56.21-9.15-.8-15.02-6.64-5.3 5.68-12.2 6.79-14.98 6.64Zm2 1.62V29c0 1.88.69 6.1 3.44 8.01l1.83 1.26c3.07 2.09 6.4 4.36 7.71 6.2a32.64 32.64 0 0 1 7.27-5.64C39.65 36.33 41 33.04 41 29V18.26c-2.22.18-7.93-.7-13.02-5.74-4.6 4.9-10.57 5.87-12.98 5.74Z" fill="#0199EC" /><path d="M16.03 19.04v9.93c0 1.72.64 5.62 3.17 7.4l1.69 1.16c2.82 1.93 5.88 4.02 7.1 5.73.87-.97 3.44-3.37 6.68-5.22.69-.39 1.3-.6 1.83-1.04H28V26h-5v5h-2V18.35a16 16 0 0 1-4.97.69Z" fill="#082247" /><path d="M30 18h-8.11c2.01-.8 4.18-2.21 6.1-4.26 4.67 4.65 9.97 5.47 12.01 5.3v9.93c0 3.06-.46 5.65-3 7.76V35h-7V24h-7v-4h7v-2Zm6.65 3-.54-1.65-.54 1.65h-1.75l1.41 1.03-.54 1.66 1.42-1.03 1.41 1.03-.54-1.66L38.39 21h-1.74Z" fill="#0199EC" /></svg>