<?xml version='1.0' encoding='utf-8'?>
<!-- by TradeStack -->
<svg width="56" height="56" viewBox="0 0 56 56" xmlns="http://www.w3.org/2000/svg"><path fill="#F0F3FA" d="M0 0h56v56H0z" /><path d="M9 17v23h5v-9h7.73v-4H14v-6h9v-4H9ZM40.12 17C32.07 17 29.96 24.96 30 28.84 30 31.8 32.23 40 40.12 40c6.3 0 8.55-6.01 8.88-9h-4.53c0 2.2-1.56 5-4.35 5-2.8 0-5.12-2.27-5.12-7.16 0-4.88 1.76-7.84 5.12-7.84 2.68 0 4.01 2.75 4.35 4H49c0-6.02-5.92-7.96-8.88-8Z" fill="#064D76" /><path d="m30.96 39-1.48-2.2c-.13.21-.37.47-.7.74A7.4 7.4 0 0 1 24.11 39C20.25 39 18 36.5 18 32.78c0-2.44 2.3-4.08 4.06-4.88a9 9 0 0 1 1.06-.4 7.11 7.11 0 0 1-.81-.78c-.82-.92-1.74-2.33-1.74-3.84 0-2.58 1.75-4.88 4.72-4.88a4.84 4.84 0 0 1 5.07 5.06c0 1.94-1.59 3.8-2.83 4.87-.3.26-.56.46-.8.62l3.1 3.67 1.13-2.53h3.22l-2.65 4.95L36 39h-5.04Zm1.8-4.55 5.7 5.55h-8.03l-1.1-1.63A8.43 8.43 0 0 1 24.12 40c-2.16 0-3.97-.7-5.23-2.02a7.34 7.34 0 0 1-1.89-5.2c0-1.9 1.1-3.35 2.28-4.33.66-.55 1.39-.99 2.06-1.32a9.28 9.28 0 0 1-.65-.88 6.28 6.28 0 0 1-1.12-3.37c0-3.04 2.1-5.88 5.72-5.88 1.72 0 3.25.6 4.35 1.7a6.04 6.04 0 0 1 1.72 4.36c0 1.52-.76 2.9-1.57 3.94a12.1 12.1 0 0 1-1.62 1.7l1.4 1.65.74-1.66h5.54l-3.08 5.76Zm-7.2-8.38c.65-.73 1.93-2.4 1.93-3.14 0-.93-.63-2.07-1.92-2.07-1.3 0-2.38.6-2.38 2.07 0 1.17 1.58 2.59 2.38 3.14Zm-.72-2c.18.22.38.42.58.6a14.06 14.06 0 0 0 .96-1.47c.09-.2.1-.29.1-.29v.02m-1.64 1.15c-.47-.55-.65-.95-.65-1.15l.65 1.15Zm1.4-1.91a.8.8 0 0 0-.67-.3c-.52 0-.87.11-1.07.27-.15.12-.3.32-.3.79m2.03-.76c.16.2.25.49.26.74l-.26-.74Zm-2.43 8.76a5.37 5.37 0 0 0-1.47 1.47c-.26.42-.28.75-.28 1.13 0 .26.11.79.44 1.23.29.4.73.71 1.48.71.68 0 1.43-.21 2.13-.52.24-.11.47-.23.67-.34a461.53 461.53 0 0 0-2.97-3.68Zm3.81 3.13a116.05 116.05 0 0 0-3.64-4.45c-2.77 1.78-2.92 3-2.92 3.92 0 .93.72 2.94 2.92 2.94 1.26 0 2.55-.55 3.43-1.07.35-.2.64-.4.84-.55l-.63-.79Z" fill="#064D76" /><path fill-rule="evenodd" d="M26.74 28.55c1.2-.83 3.62-3.1 3.62-5.5 0-2.99-2.1-5.05-5.07-5.05s-4.72 2.3-4.72 4.88c0 2.06 1.7 3.93 2.55 4.61-1.7.53-5.12 2.32-5.12 5.3 0 3.7 2.25 6.21 6.12 6.21 3.1 0 4.87-1.46 5.36-2.2l1.48 2.2H36l-4.47-4.36 2.65-4.95h-3.22l-1.13 2.53-3.1-3.67Zm-3.55-5.62c0 1.17 1.58 2.59 2.38 3.14.64-.73 1.92-2.4 1.92-3.14 0-.93-.63-2.07-1.92-2.07-1.3 0-2.38.6-2.38 2.07Zm5.05 11.92a152.2 152.2 0 0 0-4.27-5.24c-2.77 1.78-2.92 3-2.92 3.92 0 .93.72 2.94 2.92 2.94 1.75 0 3.58-1.08 4.27-1.62Z" fill="#F0F3FA" /><path d="M25.41 24.66c-.95-.76-1.23-1.45-1.25-1.7 0-.82.37-1.13 1.21-1.13s1.14.5 1.14 1.03c0 .42-.73 1.38-1.1 1.8Z" fill="#F0F3FA" /></svg>