<?xml version='1.0' encoding='utf-8'?>
<!-- by TradeStack -->
<svg width="56" height="56" viewBox="0 0 56 56" xmlns="http://www.w3.org/2000/svg"><path fill="#F0F3FA" d="M0 0h56v56H0z" /><path d="M26.45 21.98c.09.56-.14.94-.69 1.14-2.94 1.08-5.9.92-8.96.24-2.63-.6-4.79.18-5.16 3.13-.06.53-.37.8-.92.8a.95.95 0 0 1-.84-.56.71.71 0 0 1-.05-.3 5.2 5.2 0 0 1 6.04-5c.9.13 1.82.29 2.76.48 2.3.47 4.52.3 6.68-.52a.76.76 0 0 1 .55 0c.36.14.55.34.6.6Z" fill="#010101" /><path fill-rule="evenodd" d="M45.4 23.39c-1.48.76-2.02 1.92-1.63 3.48.03.12 0 .2-.1.27l-.57.33a.22.22 0 0 0-.09.12.24.24 0 0 0 .01.17l.05.1c.02.06.06.1.11.12.05.02.1.03.15 0 .23-.07.45-.2.68-.36a.32.32 0 0 1 .24-.07c2.05.27 3.27-.66 3.65-2.8a6.2 6.2 0 0 0-.12-2.69.18.18 0 0 0-.07-.05.17.17 0 0 0-.17.03c-.66.5-1.38.96-2.14 1.35Zm-.67 2.73.04-.97c0-.03.01-.06.03-.08a.17.17 0 0 1 .05-.06A.16.16 0 0 1 45 25l.09.04c.04.02.06.05.08.08.02.04.02.08 0 .12a.55.55 0 0 0 .02.38c.05.12.12.13.21.05.35-.3.47-.67.37-1.12a.52.52 0 0 1 .02-.3.39.39 0 0 1 .13-.18.14.14 0 0 1 .18 0l.05.05c.03.08.05.16.05.25 0 .23.06.25.18.06.14-.25.26-.5.36-.75a.26.26 0 0 1 .07-.1.23.23 0 0 1 .1-.05h.11l.1.06c.16.16.2.33.1.52-.27.48-.56.92-.86 1.3-.08.1-.08.2 0 .3.05.05.1.1.17.12.09.05.12.13.1.24a.18.18 0 0 1-.08.12.34.34 0 0 1-.26.05c-.48-.08-.88.11-1.22.6a.1.1 0 0 0 0 .09l.02.03.05.01c1.86-.08 2.43-2.08 2.3-3.79 0-.13-.07-.17-.18-.12-.74.34-1.4.7-2 1.09-.84.54-1.18 1.3-1.02 2.24.02.16.1.2.23.11l.08-.05a.38.38 0 0 0 .13-.14.43.43 0 0 0 .05-.18Z" fill="#9ECF6C" /><path fill-rule="evenodd" d="M45.13 29.86c.13.24.18.57.14.98a5.21 5.21 0 0 1-1.8 2.43 4.52 4.52 0 0 1-3.42.94 2.57 2.57 0 0 1-1.9-1.08 7.59 7.59 0 0 1-.34-.51c-.09-.16-.2-.17-.33-.04a5.25 5.25 0 0 1-3.63 1.69c-1.75.09-3.22-.11-4.1-1.68a.22.22 0 0 0-.08-.08.23.23 0 0 0-.28.04 4.79 4.79 0 0 1-2.59 1.56c-1.04.22-2.91.28-3.83-.23-1.5-.83-1.97-2.16-1.42-4 .3-1 .42-2.15.95-3.07a3.72 3.72 0 0 1 2.45-1.84c2.02-.47 3.74.99 3.16 3.02-.49 1.71-1.77 2.54-3.84 2.48-.5-.01-.84.2-1.02.65-.13.3-.01.62.33.99.13.13.3.23.48.26 2.38.43 3.93-.29 4.65-2.15.15-.4.44-.63.86-.7.15-.02.24-.1.27-.25l.02-.05c.4-1.72.76-3.31 2.61-4.06 1.93-.78 4.22.28 3.8 2.5a3.19 3.19 0 0 1-2.42 2.67c-.46.14-.93.13-1.4.12h-.13c-1.25-.01-1.38 1.62-.24 1.9 2.07.48 3.94-.13 4.69-2.1.16-.42.46-.7.92-.7.16 0 .26-.07.3-.21.7-2.3 1.14-3.8 1.31-4.54a77.5 77.5 0 0 1 1.65-6.08.99.99 0 0 1 .8-.7.59.59 0 0 1 .45.06c.47.3.63.7.48 1.22-.72 2.55-1.4 5.02-2.04 7.41l-.3 1.06a20.3 20.3 0 0 0-.54 1.97c-.18.7-.34 1.36-.29 2.13 0 .1.05.19.13.26 1.22 1.01 3.34-.38 3.75-1.62.25-.77.93-1.35 1.74-.65Zm-11.48-3.2c-.88.2-1.43.72-1.65 1.54-.06.25.04.4.3.44.92.15 1.59-.1 2-.75.17-.3.2-.58.1-.85a.63.63 0 0 0-.3-.33.66.66 0 0 0-.45-.05Zm-7.3.3c.26.39-.04 1.04-.68 1.46-.64.41-1.38.44-1.64.05-.27-.38.04-1.03.68-1.45.64-.42 1.37-.44 1.64-.06Z" fill="#010101" /><path d="M21.65 28.83c.12-.35-.5-.76-1.18-.72-1.18.07-1.61-.93-1.04-1.82.2-.3.36-.6.5-.9a.95.95 0 0 0-.14-1.08.52.52 0 0 0-.36-.19c-.54-.05-.93.16-1.2.61a17.36 17.36 0 0 0-1.77 4.25c-.41 1.58-.8 3.17-1.14 4.77-.06.28-.15.56-.27.81-.66 1.35-1.14 2.3-2.7 2.63-2.35.51-3.64-2.79-.96-3.62.15-.2.4-.03.73.49.27.42.65.55 1.14.39a.86.86 0 0 0 .47-1.11c-.84-2.52-3.95-1.56-5.12.05-1.65 2.3.27 5.41 3.05 5.6 2.5.17 4.48-1.8 5.15-4 .4-1.33.73-2.64.97-3.91.1-.59.42-1.07 1.1-1.1.74-.01.96.04 1.62.02.66-.02.86-.32.86-.32l.3-.85Z" fill="#010101" /></svg>