<?xml version='1.0' encoding='utf-8'?>
<!-- by TradeStack -->
<svg width="56" height="56" viewBox="0 0 56 56" xmlns="http://www.w3.org/2000/svg"><path fill="#F0F3FA" d="M0 0h56v56H0z" /><path d="M7 27v-5h3v1H8v1h2v1H8v2H7ZM14 22h1v3.22c0 1.12-.94 1.78-2 1.78s-2-.66-2-1.78V22h1v2.94c0 .63.38 1.06 1 1.06s1-.43 1-1.06V22ZM16 27v-5h1v4h2v1h-3ZM20 27v-5h1v4h2v1h-3ZM46 27v-5h1v4h2v1h-3ZM25 22h1.27L28 25.62 29.73 22H31v5h-1v-3.44L28.37 27h-.74L26 23.56V27h-1v-5ZM10 29h1.27L13 32.62 14.73 29H16v5h-1v-3.44L13.37 34h-.74L11 30.56V34h-1v-5ZM32 27v-5h2.98v1H33v1h2v1h-2v1h2v1h-3ZM24 34v-5h2.98v1H25v1h2v1h-2v1h2v1h-3ZM35.5 23v-1h4v1H38v4h-1v-4h-1.5ZM41.16 27H40l1.9-5h1.2l1.9 5h-1.18l-1.32-3.74L41.16 27Z" /><path d="M44 25h-3v1h3v-1ZM18 29v5h-1v-5h1ZM23 29v5h-.78L20 31v3h-1v-5h.79L22 32v-3h1ZM28 34v-5h2.2c.98 0 1.8.44 1.8 1.5 0 1.07-.84 1.5-1.81 1.5h-1.64v-1H30c.54 0 1 0 1-.5s-.46-.5-1-.5h-1v4h-1Zm2.7-2.27L32 34h-1.06l-1.27-2.27h1.03ZM39 34v-5h1v4h2v1h-3Z" /><path fill-rule="evenodd" d="M33 34h1.16l.36-1h1.95l.35 1H38l-1.9-5h-1.2L33 34Zm3.11-2-.61-1.74-.62 1.74h1.23Z" /><path d="M46.02 30.55c-.05-.4-.42-.55-.98-.55-.6 0-1.03.17-1.04.53 0 .76 3 0 3 1.86 0 1.06-1.09 1.61-1.98 1.61-.96 0-1.97-.64-2.02-1.73h1c.04.55.53.73 1.02.73.42 0 1-.15 1-.67 0-.57-3.02-.14-3.02-1.9 0-1 1.2-1.43 2.05-1.43.85 0 1.86.58 1.88 1.55h-.91Z" /></svg>