<?xml version='1.0' encoding='utf-8'?>
<!-- by TradeStack -->
<svg width="56" height="56" viewBox="0 0 56 56" xmlns="http://www.w3.org/2000/svg"><path fill="#F0F3FA" d="M0 0h56v56H0z" /><ellipse cx="28" cy="28" rx="23" ry="9" fill="#63636A" /><path d="M16.8 24.56c1.2-.54 2.63-3.93 3.2-5.56-5.33 2.87-11.78 5.05-11.78 7.26 0 .8 2.53 1.63 4.27 2.93-1.3-.94-4.87-2.08-6.49-2.53l.97 1.83c.65.26 2.43 1.1 4.34 2.4 1.9 1.29 1.36 3.94.85 5.11.65-1.25 1.95-3.93 1.95-4.63 0-2.78-3.36-3.16-3.36-4.39 0-1.23 4.56-1.74 6.06-2.42ZM43.03 26h2.94l.03 1.03h-.12c-.07-.33-.14-.54-.24-.63-.1-.1-.29-.15-.6-.15h-.28v3.1c0 .23.03.37.1.43.06.06.2.1.4.11V30h-1.51v-.1c.22-.03.36-.07.4-.14.06-.06.1-.22.1-.49v-3.02h-.3c-.29 0-.48.05-.59.15-.1.1-.18.3-.23.63H43l.03-1.03ZM36.46 27.41c.76-.02 1.7-.1 1.7-1.1 0-.78-.56-1.02-1.22-1.02-.22 0-.36.01-.4.05-.06.03-.08.1-.08.21v1.86ZM35 29.86c.3-.02.49-.08.56-.17.07-.08.1-.28.1-.6v-3.27c0-.27-.03-.44-.12-.52-.08-.08-.26-.14-.54-.16V25h2.15c1.3 0 1.85.46 1.85 1.32 0 .75-.41 1.14-1.28 1.27l1.6 1.91c.1.12.2.2.3.26.1.05.23.09.38.1V30h-1.25l-1.86-2.32-.43.01v1.5c0 .27.04.45.13.53.09.07.28.12.57.14V30H35v-.14Z" fill="#EF1821" /><path d="M32 29.9c.19-.03.31-.07.37-.13.05-.05.08-.2.08-.43v-2.68c0-.22-.03-.36-.08-.42-.06-.07-.18-.11-.37-.13V26h2.72l.02.87h-.13c-.05-.27-.11-.44-.2-.52-.08-.08-.28-.12-.58-.12h-.66c-.08 0-.13.02-.15.04a.34.34 0 0 0-.02.16v1.35h.76c.22 0 .36-.04.42-.11.06-.08.1-.23.14-.47h.12v1.4h-.12a1.1 1.1 0 0 0-.15-.46c-.05-.08-.2-.12-.41-.12H33v1.5c0 .12.03.19.1.21.06.02.23.03.55.03.34 0 .6-.04.76-.13.17-.09.32-.3.45-.65H35L34.77 30H32v-.1Z" fill="#F7F7FF" /><path d="M40 29.9c.19-.03.31-.07.37-.13.05-.05.08-.2.08-.43v-2.68c0-.22-.03-.36-.08-.42-.06-.07-.18-.11-.37-.13V26h2.72l.02.87h-.13c-.05-.27-.11-.44-.2-.52-.08-.08-.28-.12-.58-.12h-.66c-.08 0-.13.02-.15.04a.34.34 0 0 0-.02.16v1.35h.76c.22 0 .36-.04.42-.11.06-.08.1-.23.14-.47h.12v1.4h-.12a1.1 1.1 0 0 0-.15-.46c-.05-.08-.2-.12-.41-.12H41v1.5c0 .12.03.19.1.21.06.02.23.03.55.03.34 0 .6-.04.76-.13.17-.09.32-.3.45-.65H43L42.77 30H40v-.1Z" fill="#EF1821" /><path d="M26 29.9c.24-.03.4-.1.47-.18.07-.09.1-.29.1-.6v-2.46c0-.22-.03-.36-.1-.43s-.22-.1-.46-.12V26h1.16l1.36 3.05L29.95 26H31v.11c-.22.02-.24.06-.3.13-.07.06-.1.2-.1.42v2.68c0 .23.03.37.1.43.06.06.08.1.3.12V30h-1.53v-.1c.24-.03.38-.07.44-.14s.09-.23.09-.49v-2.71L28.38 30h-.08l-1.47-3.3v2.41c0 .33.04.55.14.65.06.06.2.1.4.13V30H26v-.1ZM24.5 28.47l-.67-1.63-.66 1.63h1.33ZM22 30v-.1a.46.46 0 0 0 .33-.18c.08-.1.2-.37.39-.8l1.2-2.92h.12l1.44 3.37c.1.22.17.36.23.42.06.05.15.08.29.1V30h-1.47v-.1c.17-.02.28-.04.33-.06.04-.03.07-.08.07-.17l-.03-.15a1.72 1.72 0 0 0-.08-.23l-.24-.57h-1.51l-.28.7a.69.69 0 0 0-.04.21c0 .1.04.17.12.21.05.02.14.04.28.05V30H22ZM18 29.9c.4-.05.6-.12.6-.56v-2.68c0-.22-.04-.36-.11-.42-.07-.07-.24-.11-.49-.13V26h1.93v.11c-.25.01-.42.05-.5.11-.1.06-.14.2-.14.4v2.9c0 .34.46.24.69.24.6 0 1.02-.04 1.23-.13.21-.09.42-.31.62-.68H22L21.67 30H18v-.1ZM14 29.84c.3-.04.48-.1.55-.2.07-.1.1-.34.1-.73v-3.93c0-.32-.03-.53-.11-.63-.08-.1-.26-.16-.54-.18V24h3.97l.03 1.3h-.2c-.06-.41-.15-.68-.3-.79-.14-.1-.41-.16-.83-.16h-1.02c-.1 0-.16.02-.2.06-.02.04-.03.12-.03.24v2.02h1.08c.31 0 .52-.05.6-.17.1-.11.16-.35.22-.7h.17v2.1h-.17a1.68 1.68 0 0 0-.22-.7c-.09-.1-.29-.17-.6-.17h-1.08v1.99c0 .33.04.54.12.64.09.1.27.15.55.18V30H14v-.16ZM43.21 30.99c.11 0 .22.01.34.04l.19.05c.03 0 .05 0 .08-.02a.12.12 0 0 0 .05-.07h.06l.03.65h-.07a.94.94 0 0 0-.15-.31.6.6 0 0 0-.5-.23c-.2 0-.38.08-.51.24-.13.17-.2.39-.2.67 0 .26.07.47.2.63.15.15.33.23.54.23.15 0 .3-.04.43-.11.07-.04.16-.1.24-.19l.06.06a1 1 0 0 1-.8.37 1 1 0 0 1-.76-.3.97.97 0 0 1-.26-.7 1 1 0 0 1 .28-.71 1 1 0 0 1 .75-.3ZM39.98 32.9c.13-.01.2-.04.24-.08.03-.04.05-.14.05-.3v-1.28l-.04-.05a.32.32 0 0 0-.11-.1.42.42 0 0 0-.14-.02v-.05h.51l1.16 1.4v-.97c0-.16-.03-.27-.08-.31-.03-.04-.1-.06-.21-.07v-.05h.7v.05c-.11.02-.19.04-.23.09-.03.04-.05.14-.05.29v1.54h-.05l-1.33-1.6v1.13c0 .16.03.27.07.31.04.04.1.06.21.07v.05h-.7v-.05ZM39 32.9c.12-.01.2-.03.24-.05.03-.03.05-.1.05-.22v-1.3c0-.1-.02-.17-.05-.2-.04-.03-.12-.05-.24-.06v-.05h.88v.05c-.12.01-.2.03-.23.06-.04.03-.06.1-.06.2v1.3c0 .12.02.19.06.22.03.02.11.04.23.05v.05H39v-.05Z" fill="#F7F7FF" /></svg>