<!-- by TradeStack --><svg viewBox="0 0 56 56" xmlns="http://www.w3.org/2000/svg"><path fill="#F0F3FA" d="M0 0h56v56H0z"/><path d="M17.96 26.9 25.57 15h.01a23.23 23.23 0 0 0 2.05 2.63c.19.2.39.38.6.54.16.12.32.21.48.27a3.75 3.75 0 0 0 1.42.13l.15-.02a20.23 20.23 0 0 1 .9-.07c.2 0 .38.03.53.08.26.08.38.27.38.54 0 .15-.03.29-.08.42a.92.92 0 0 1-.56.56c-.23.09-.5.12-.81.09a3.24 3.24 0 0 1-.84-.2 3.03 3.03 0 0 1-.42-.25c-.4-.26-.79-.55-1.18-.85a242.9 242.9 0 0 1-2.43-1.95l-3.01 3.98v.01a73.3 73.3 0 0 1 2.2.95 57.33 57.33 0 0 1 1.9 1.12l-.5.55h-.01c-.58-.34-1.19-.65-1.82-.93a13.87 13.87 0 0 0-2.45-.8L17.9 27.3a8.15 8.15 0 0 0-.88-1.23c-.1-.1-.25-.18-.43-.23a1.79 1.79 0 0 0-.67-.05c.2-.05.4-.05.6-.03a1.48 1.48 0 0 1 .94.5 5.3 5.3 0 0 1 .5.63Z" fill="#6FBA2C"/><path d="M21.53 17.2a1.24 1.24 0 0 1-.73.72c.2-.1.36-.25.47-.44a1.66 1.66 0 0 0 .19-1.2 4.58 4.58 0 0 1 .94 1.37c.04.13.07.24.08.33a1.03 1.03 0 0 1-.13.63.74.74 0 0 1-.27.28.87.87 0 0 1-.39.11c-.17.01-.34 0-.5-.04a3.9 3.9 0 0 1-1-.42c.31.13.64.22 1 .25.16.02.32.01.47-.02a.64.64 0 0 0 .32-.16.52.52 0 0 0 .15-.3.75.75 0 0 0-.06-.4 1.56 1.56 0 0 0-.2-.36 3.44 3.44 0 0 0-.34-.36ZM14.71 20.6v-.01l-2.08-.14a845.78 845.78 0 0 0 3.15-.22 6.18 6.18 0 0 1 2.6-.01l.13.03a4.16 4.16 0 0 1 .96.34A6.13 6.13 0 0 0 14 21.9a6.42 6.42 0 0 0-1.09 1.31l-.03.06-.12.2a5.68 5.68 0 0 0 1.37 7.09 5.66 5.66 0 0 0 5.25 1.04 6.13 6.13 0 0 0 3.22-2.25 5.77 5.77 0 0 1-4.24 3.18 6.34 6.34 0 0 1-3.07-.25 6.33 6.33 0 0 1-2.33-1.44l-.07-.07a15.78 15.78 0 0 1-.51-.58 6.71 6.71 0 0 1-1.28-3.11 5.3 5.3 0 0 1-.04-1.15 6.27 6.27 0 0 1 1.76-4.03L8 21.62l5.48-.3.03-.02.28-.2c.29-.2.6-.36.92-.5Z" fill="#4F4644"/><path d="M27.65 31.22c-.74-.93-1.4-1.82-1.98-2.69-.26-.38-.48-.76-.68-1.13a4.21 4.21 0 0 1-.3-.7 1.18 1.18 0 0 1-.06-.36c0-.08.03-.17.08-.25.1-.13.18-.25.27-.35a27.21 27.21 0 0 1 1.38-1.6 199.62 199.62 0 0 1 3.38-3.65l-.1 3.16-.02.02a52.36 52.36 0 0 0-2.14 1.77 11.79 11.79 0 0 0-.75.74.62.62 0 0 0-.14.34c-.02.15 0 .31.03.48.05.23.13.46.23.69a7.48 7.48 0 0 0 .59 1.09 205.66 205.66 0 0 1 .05.85 178.94 178.94 0 0 0 .24.77 40.01 40.01 0 0 1-.08.82Z" fill="#6FBA2C"/><path d="M38.04 31.67a1.1 1.1 0 0 1 .1-.03h.1a.46.46 0 0 1 .3.05h.02l.72-.4v.01l.14.28-.62.34a1.67 1.67 0 0 1 .26.5l.59-.32.14.28v.01l-.67.36v.01a.67.67 0 0 1-.3.55l-.3.16a38.81 38.81 0 0 1-1.1.49c-.2-.11-.4-.2-.63-.24a1.77 1.77 0 0 0-.98.07c-.31.1-.64.18-.98.26a8.71 8.71 0 0 1-2.16.22A8.45 8.45 0 0 1 30.8 34a16.72 16.72 0 0 1-2.42-.86c-.75.36-1.52.6-2.32.75a6.08 6.08 0 0 1-2.75-.14c-.66-.18-1.12-.47-1.38-.87a1.59 1.59 0 0 1-.28-.9c0-.3.1-.59.28-.83.19-.24.43-.4.73-.5.2-.06.4-.1.62-.1.25 0 .48.02.7.06.26.05.51.13.76.22.47.18.97.4 1.5.65l.39.2a104.11 104.11 0 0 0 1.87.87 11 11 0 0 0 2.35-1.63 20.87 20.87 0 0 0 2.22-2.3 6.36 6.36 0 0 0-1.02-1.73c-.31-.39-.68-.82-1.1-1.29a79.79 79.79 0 0 0-1.2-1.29l.43.1c.45.13.9.27 1.35.44a9.13 9.13 0 0 1 2.37 1.3c.3.18.6.31.95.4.4.11.88.18 1.46.2a234.75 234.75 0 0 0 1.48.08 6.7 6.7 0 0 1 1.12.18 6.31 6.31 0 0 1 2.48 1.31c.02.02.02.02 0 0a3.27 3.27 0 0 0-.73-.3 6.77 6.77 0 0 0-2.49-.23c-.36.03-.72.09-1.1.16a24.12 24.12 0 0 0-3.2.92c-.55.61-1.09 1.17-1.62 1.68a14.92 14.92 0 0 1-1.98 1.57 19.63 19.63 0 0 1-1.2.7c.7.31 1.42.59 2.14.82.34.11.7.2 1.1.26.3.05.64.07 1 .04.3-.01.62-.06 1-.13a4.23 4.23 0 0 0 1.74-.75 1.86 1.86 0 0 0 .6-.75l.36-.17h.01l.6 1.4a8.94 8.94 0 0 0 1.12-.43c.05-.03.1-.07.13-.12.11-.2.13-.42.05-.67a1.48 1.48 0 0 0-.39-.57.34.34 0 0 0-.12-.08.51.51 0 0 0-.14-.02h-.06l-.06.01-.06.01-.05.01Zm-10.2 1.22-1.9-.9c-.4-.2-.85-.4-1.36-.64a3.2 3.2 0 0 0-1.02-.3c-.15 0-.28 0-.4.04a.78.78 0 0 0-.36.2.73.73 0 0 0-.2.59c0 .14.04.29.1.43a2.01 2.01 0 0 0 1.11 1.08 3.64 3.64 0 0 0 2.69.07 10 10 0 0 0 1.34-.57Z" fill="#6FBA2C"/><path d="M32.19 28.9a45.08 45.08 0 0 0-1.79-2.2 18.17 18.17 0 0 0-1.73-1.67l.44-.34c.7.72 1.32 1.48 1.85 2.27a59.2 59.2 0 0 1 1.23 1.93Z" fill="#6FBA2C"/><path d="M20.1 28.66a2.44 2.44 0 0 0 .76-2.14 4.13 4.13 0 0 0-.02-.2c.2.37.26.78.17 1.2-.05.2-.13.38-.24.56-.17.26-.39.46-.66.59-.03.01-.03 0-.01-.01ZM40.38 36.4a830.83 830.83 0 0 0 1.93.15 1407.73 1407.73 0 0 0-2.95.22l-.15.03a3.98 3.98 0 0 1-3.33-.89 4.58 4.58 0 0 0 2.42.61 3.97 3.97 0 0 0 3.33-2.22 3.77 3.77 0 0 0 .1-3.1 3.9 3.9 0 0 0-4.04-2.43 4.21 4.21 0 0 0-2.07.8 3.92 3.92 0 0 1 3.48-1.14 4.14 4.14 0 0 1 3.02 2.16 4.4 4.4 0 0 1 .51 2.22 4.3 4.3 0 0 1-.78 2.3l4.4.28a2773.42 2773.42 0 0 0-4.92.31 3.02 3.02 0 0 1-.52.44 5.17 5.17 0 0 1-.43.27Z" fill="#4F4644"/><path d="M44.74 32.07a2.25 2.25 0 0 1-.15-.57c-.03-.2-.02-.39.01-.57.03-.1.08-.2.18-.3a.98.98 0 0 1 .28-.2.45.45 0 0 1 .13-.04c.01 0 .02 0 .02.02l.05.13.06.16.03.15c.04.38-.07.7-.34.95l-.27.27ZM48.4 32.2c.14.18.25.39.33.6a61 61 0 0 1 .26.81c-.2.02-.42 0-.64-.02-.4-.05-.79-.2-1.13-.42-.12-.08-.2-.16-.27-.25a1.47 1.47 0 0 1-.2-.38c-.1-.28-.14-.56-.13-.84l.03-.12c0-.02.02-.03.04-.02h.23l.23-.01c.16-.01.34.03.57.12.28.12.5.3.68.53ZM46.17 34.36a3.3 3.3 0 0 1-.28-.25 2.15 2.15 0 0 1-.55-.9.79.79 0 0 1-.02-.35c.03-.21.11-.41.23-.59a.44.44 0 0 1 .09-.1h.02c.08.1.17.16.27.23l.13.13c.08.1.15.22.2.35.12.29.14.62.04 1a43.94 43.94 0 0 0-.13.48ZM42.96 32.88c.24-.2.48-.3.72-.34.1-.02.2-.03.26-.02.1 0 .2.05.3.14.08.07.16.16.22.27.03.04.05.09.06.13l-.01.03a26.98 26.98 0 0 0-.3.2.81.81 0 0 1-.56.07.85.85 0 0 1-.33-.16 7.03 7.03 0 0 1-.36-.32Z" fill="#6FBA2C"/><path d="M21.02 36.1a979.88 979.88 0 0 1 13 .1 529.52 529.52 0 0 1-13 .11 972.75 972.75 0 0 1-13-.1 533.73 533.73 0 0 1 13-.11ZM35.5 36.55a109.63 109.63 0 0 1-2.38.03h-.17a4806.68 4806.68 0 0 1-8.9.03 3837.26 3837.26 0 0 1-11.78-.06h.03l2.07-.02h.34a904.6 904.6 0 0 1 9.65-.04 7299.38 7299.38 0 0 1 11.14.06ZM15.35 36.88a241.39 241.39 0 0 1 5.44.06l-.65.01a240.63 240.63 0 0 1-10.24-.01l.66-.01c1.6-.04 3.2-.05 4.79-.05Z" fill="#4F4644"/></svg>