<?xml version='1.0' encoding='utf-8'?>
<!-- by TradeStack -->
<svg width="56" height="56" viewBox="0 0 56 56" xmlns="http://www.w3.org/2000/svg"><path fill="#F0F3FA" d="M0 0h56v56H0z" /><path d="M10 18v20h7v-8h5v-5h-5v-2h6v-5H10Zm27.22 20h-1.9c.36-.3.59-.67.68-.91h-.47a.88.88 0 0 1-.76.42c-.65 0-1.9-1.22-2.45-1.83.54-.84.87-1.64 1.18-2.4l.35-.84c.36-.8 1.27-.97 1.68-.96V31H32v.48c.3-.03 1.03.1 1.04.85 0 .75-.73 2.24-1.1 2.9L29 31.96c.77-.45 2.3-1.65 2.3-2.82 0-1.46-1.48-2.15-2.4-2.15-.94 0-2.69.72-2.69 2.55 0 1.47.9 2.34 1.36 2.58-.1.1-.57.48-1.67 1.33-1.1.85-.95 2.45-.73 3.15.2.37.67.97 1.34 1.39H22l3.21-20h7.08l2.64 9.71L37.68 18h7.1L48 38h-6.82l-.9-11.11L37.23 38Zm-4.58-.29c.08.08.2.19.34.29h-3.1a6.16 6.16 0 0 0 1.73-1.45l1.03 1.16Zm-5.2-8 1.12 1.56c1.07-.6 1.68-1.36 1.68-2.05 0-.7-.27-1.8-1.42-1.8-1.14 0-1.6.83-1.6 1.37 0 .43.15.8.23.93Zm3.96 6.31-3.56-3.76c-.46.35-1.4 1.28-1.4 2.19 0 1.14 1.19 2.8 2.46 2.8 1.02 0 2.1-.82 2.5-1.23Z" fill="#21529A" /></svg>