<!-- by TradeStack --><svg width="56" height="56" viewBox="0 0 56 56" xmlns="http://www.w3.org/2000/svg"><path fill="#F0F3FA" d="M0 0h56v56H0z"/><path fill-rule="evenodd" d="M28 24.38C26.65 22.26 22.59 18 17.1 18 10.24 18 7 23.5 7 28.02 7 32.55 10.45 38 16.64 38c5.82 0 10.12-4.99 11.2-6.24l.16-.19v-7.19Zm-2.48 3.6C24.32 25.9 20.89 22 16.85 22A5.94 5.94 0 0 0 11 27.98c0 3.25 2.94 6.02 5.85 6.02 2.9 0 6.35-2.43 8.67-6.02Z" fill="url(#abjjkyvkm)"/><path d="M25.27 27.58C21.88 21.7 18.33 21 16.77 21c-4.87.35-5.83 4.38-5.77 6.6.2-3.1 2.73-5.6 5.85-5.6 3.8 0 7.04 3.42 8.42 5.58Z" fill="url(#bbjjkyvkm)"/><path fill-rule="evenodd" d="M28 31.62C29.35 33.74 33.41 38 38.9 38 45.76 38 49 32.5 49 27.98c0-4.53-3.45-9.98-9.64-9.98-5.82 0-10.12 4.99-11.2 6.24l-.16.19v7.19Zm2.48-3.6c1.2 2.07 4.63 6.22 8.67 6.22 3.24 0 5.85-2.96 5.85-6.22 0-3.25-2.94-6.02-5.85-6.02-2.9 0-6.35 2.43-8.67 6.02Z" fill="url(#cbjjkyvkm)"/><path d="M27.92 31.66C26.84 32.9 22.47 38 16.66 38c-6.07 0-9.5-5.29-9.62-9.78 1.01 4.3 4.67 7.45 8.53 7.45 6.15 0 10.86-7.45 12.43-11.24 1.08-1.25 5.53-6.39 11.34-6.39 6.07 0 9.5 5.26 9.62 9.72-1.01-4.26-4.67-7.4-8.53-7.4-6.15 0-10.95 7.53-12.51 11.3Z" fill="url(#dbjjkyvkm)"/><path d="M30.73 28.42c3.39 5.88 6.94 6.58 8.5 6.58 4.87-.35 5.83-4.38 5.77-6.6a5.93 5.93 0 0 1-5.85 5.6c-3.8 0-7.04-3.42-8.42-5.58Z" fill="url(#ebjjkyvkm)"/><defs><linearGradient id="abjjkyvkm" x1="25.94" y1="21.72" x2="10.06" y2="33.07" gradientUnits="userSpaceOnUse"><stop stop-color="#434B5C"/><stop offset=".79" stop-color="#21293A"/></linearGradient><linearGradient id="bbjjkyvkm" x1="22.99" y1="24.47" x2="10.91" y2="24.47" gradientUnits="userSpaceOnUse"><stop stop-color="#3C4555"/><stop offset=".4" stop-color="#757D8D"/></linearGradient><linearGradient id="cbjjkyvkm" x1="29.26" y1="33.48" x2="47.27" y2="23.91" gradientUnits="userSpaceOnUse"><stop stop-color="#2F3748"/><stop offset="1" stop-color="#727A8A"/></linearGradient><linearGradient id="dbjjkyvkm" x1="47.82" y1="22.06" x2="8.28" y2="33.29" gradientUnits="userSpaceOnUse"><stop stop-color="#21293A"/><stop offset="1" stop-color="#737B8B"/></linearGradient><linearGradient id="ebjjkyvkm" x1="31.41" y1="32.76" x2="45.09" y2="32.46" gradientUnits="userSpaceOnUse"><stop stop-color="#61697A"/><stop offset="1" stop-color="#222A3B"/></linearGradient></defs></svg>