<!-- by TradeStack --><svg width="56" height="56" viewBox="0 0 56 56" xmlns="http://www.w3.org/2000/svg"><path fill="#F0F3FA" d="M0 0h56v56H0z"/><path d="M45.83 26.78h-1.2c0-.8-.22-1.2-.64-1.2-.4 0-.47.33-.47.59 0 .26.2.52.89 1.2.7.67 1.59 1.48 1.59 2.38 0 .89-.7 1.72-1.81 1.72-1.77 0-2.2-1.67-2.19-2.51h1.39c0 .92-.02 1.37.6 1.37.5 0 .63-.29.63-.43 0-.4-.08-.72-.9-1.4-.83-.67-1.61-1.57-1.61-2.27s.65-1.83 2.08-1.83c1.61 0 1.76 1.59 1.64 2.38ZM50.57 25.3v-1.23L47 24.4v7.03l3.57.3V30.6l-2.17-.22v-1.99h1.58v-1.18H48.4v-1.7l2.17-.22Z" fill="#020202"/><path fill-rule="evenodd" d="M4.42 22.08 4 22v12l.4-.06c3.93-.57 14.36-1.72 23.6-1.72 9.24 0 19.67 1.15 23.6 1.72l.4.06V22l-.42.08c-7.4 1.38-14.35 1.59-23.58 1.59-9.23 0-16.18-.2-23.58-1.6ZM28 24.32c-9.12 0-15.81-.19-23.3-1.52v10.44c4.2-.6 14.12-1.67 23.3-1.67 9.18 0 19.1 1.08 23.3 1.67V22.8c-7.49 1.33-14.18 1.52-23.3 1.52Z" fill="#020202"/><path d="M5.37 31.7v-7.56a46 46 0 0 0 3.53.24v1.15l-2.13-.21v1.98H8.4v1.16H6.77v3l-1.4.25ZM9.51 31.38l1.38-6.93 1.63.2 1.48 6.6-1.36.04-.26-1.26h-1.3l-.26 1.31-1.3.04Zm1.8-2.53h.83l-.43-2.1-.4 2.1Z" fill="#020202"/><path fill-rule="evenodd" d="M15 25v6h1.33v-2.46h.33l.88 2.46H19l-1.08-2.46c.3-.07.89-.52.89-1.72 0-1.5-1.1-1.82-2.24-1.82H15Zm1.35.98v1.7c.35.02 1.06.03 1.06-.75 0-.8-.65-.95-1.06-.95Z" fill="#020202"/><path d="M20 25h1.6l1.37 3.71h.06l1.36-3.52H26V31h-1.26v-3.69h-.05l-1.29 3.65h-.8l-1.3-3.67h-.04V31H20v-6ZM27 31v-6h1.34v2.4h1.32V25H31v6h-1.34v-2.41h-1.32V31H27Z" fill="#020202"/><path fill-rule="evenodd" d="M33.44 25c-.8 0-1.44.62-1.44 1.38v3.24c0 .76.64 1.38 1.44 1.38h1.3c.7 0 1.26-.54 1.26-1.2v-3.6c0-.66-.56-1.2-1.26-1.2h-1.3Zm.6 1c-.31 0-.56.24-.56.54v2.92c0 .3.25.55.55.55.27 0 .49-.22.49-.49v-3.04a.48.48 0 0 0-.49-.49Z" fill="#020202"/><path d="M38.48 25.3H37v4.39c0 .72.64 1.31 1.44 1.31h1.3c.7 0 1.26-.51 1.26-1.15V25h-1.48v4.62c0 .24-.22.44-.49.44-.3 0-.55-.23-.55-.5V25.3Z" fill="#020202"/></svg>