<?xml version='1.0' encoding='utf-8'?>
<!-- by TradeStack -->
<svg viewBox="0 0 56 56" xmlns="http://www.w3.org/2000/svg"><path fill="#009BDF" d="M0 0h56v56H0z" /><path d="M32 19a4 4 0 11-8 0 4 4 0 018 0zm-13.5 1a2.5 2.5 0 11-5 0 2.5 2.5 0 015 0zm9.56 19c.95 0 1.72-.4 1.72-.9s-.77-.9-1.72-.9-1.72.4-1.72.9.77.9 1.72.9zm7.14-1.01c-.03.45-.82.77-1.77.72-.94-.05-1.7-.47-1.67-.92.03-.45.82-.78 1.77-.72.95.05 1.7.46 1.67.92zm3.07-.07c.94.1 1.74-.15 1.78-.55.05-.4-.69-.82-1.63-.91-.95-.1-1.75.15-1.79.55-.04.4.7.81 1.64.91zm-22.33-.55c.05.4.85.65 1.8.55.94-.1 1.67-.5 1.63-.9-.04-.41-.84-.66-1.79-.57-.94.1-1.68.51-1.64.92zm26.18-.56c.9.13 1.67-.06 1.73-.42.05-.37-.64-.77-1.54-.9s-1.68.06-1.73.43c-.05.36.63.76 1.54.9zm-29.97-.42c.06.36.83.55 1.73.42.9-.13 1.6-.53 1.54-.9-.05-.36-.82-.55-1.73-.42-.9.13-1.59.53-1.54.9zm32.62-.88c.86.12 1.6-.04 1.65-.36.05-.32-.62-.69-1.49-.81-.86-.12-1.6.04-1.65.36-.04.32.62.68 1.49.8zm-35.19-.36c.05.32.79.48 1.65.36.87-.13 1.53-.49 1.49-.81-.05-.32-.79-.48-1.65-.36-.87.12-1.54.49-1.49.8zm36.61-1c.82.12 1.52-.01 1.56-.3.04-.27-.6-.59-1.42-.7-.82-.13-1.52 0-1.56.28-.04.28.6.6 1.42.72zm-37.94-.3c.04.29.74.42 1.56.3.82-.12 1.45-.44 1.41-.72-.03-.27-.73-.4-1.55-.29-.83.12-1.46.44-1.42.72zm38.35-1c.74.09 1.37-.04 1.4-.27.03-.24-.56-.5-1.3-.6-.75-.08-1.38.04-1.4.28-.03.24.55.5 1.3.59zM8 32.58c.03.23.66.36 1.4.27.75-.09 1.33-.35 1.3-.59-.02-.24-.65-.36-1.4-.27-.74.09-1.33.35-1.3.59zm38.13-.92c.69.08 1.27-.02 1.3-.23.02-.2-.52-.44-1.22-.52-.69-.08-1.27.02-1.3.23-.02.2.52.44 1.22.52zm-37.56-.23c.03.2.61.3 1.3.23.7-.08 1.24-.32 1.21-.52-.02-.2-.6-.31-1.3-.23-.69.08-1.23.31-1.2.52zm36.49-.8c.64.08 1.17-.01 1.2-.2.01-.2-.48-.4-1.12-.48-.64-.07-1.18.02-1.2.21-.02.2.48.4 1.12.48zm-35.31-.2c.02.19.55.28 1.2.2.63-.07 1.13-.28 1.1-.47-.01-.19-.55-.28-1.19-.21-.64.07-1.13.29-1.11.48zm25.38-2.84c.32 0 .6-.11.6-.25 0-.13-.27-.24-.6-.24-.33 0-.6.1-.6.24 0 .14.27.25.6.25zm-13.59-.25c0 .14-.26.25-.6.25-.32 0-.59-.11-.59-.25s.27-.25.6-.25c.33 0 .6.11.6.25zm1.02 11.37c-.95.05-1.74-.27-1.76-.72-.03-.46.72-.87 1.67-.92.95-.06 1.74.27 1.76.72.03.45-.72.87-1.67.92zM42.5 20a2.5 2.5 0 11-5 0 2.5 2.5 0 015 0zM16 31a4 4 0 100-8 4 4 0 000 8zm28-4a4 4 0 11-8 0 4 4 0 018 0zm-16 9.5a6.5 6.5 0 100-13 6.5 6.5 0 000 13z" fill="#fff" /></svg>