<!-- by TradeStack --><svg width="56" height="56" viewBox="0 0 56 56" xmlns="http://www.w3.org/2000/svg"><path fill="#F0F3FA" d="M0 0h56v56H0z"/><ellipse cx="28" cy="28" rx="22" ry="10" fill="url(#agkykatjh)"/><ellipse cx="28" cy="28" rx="17" ry="8"/><path fill-rule="evenodd" d="m10 32.9 1.05-1.18.44-.32h.17l1.93-1.63h.2l1.2.84.47.26h.21l1.1-1.1 1.57-.06.73-.5.46-.17.76-.08.88-.66h.35l.7.44.93-.93.69-.34L25.58 26h.22l.35.17 1.87 1.64.32-.18 1.9-1.46h.29l1.83 2.2 1.04.7.58.07 1.38-.14 1.57-.81 3.28 1.75.9.04 4.54 2.45.35.33-.06.16h-.75l-2.56-1.11-1.19-.1v.32l-.34.26-.45.13-.38-.04-.5-.35-1.34-.27-.06.5.06.4-.6.22-.33-.27h-.35l-.3-.2.12.97-.11.17-.42-.2-.78-.7-.82-.17-.6-.45-.44-.83-.8-.23.2.32.32.44.48.83 1.3 1.22v.13l-.26.09-1.04-.14-.8-.8a2.1 2.1 0 0 0-.75-.24.6.6 0 0 0-.2.32l.32.41v.31l-.6-.08-.7-.48c-.24-.36-.82-1.13-1.27-1.27a3.1 3.1 0 0 0-.2-.2 2.48 2.48 0 0 0-.64-.14c.1.25.25.7.24.72v.2l-.24.05-.5-.25-.3-.04-.04.13c.14.22.48.7.7.86v.16l-.2.07c-.4-.1-1.22-.35-1.36-.46 0 .06-.08.14-.11.17l-.42.03-1.39-.67-.34.34-.56-.47h-.62l-.62-.4h-.8l-.57.16-.18.16.09.3.35.58-.35-.05-1.59-1.09-.33-.87h-.27l-.35.34-.27-.19-.43-.15c-.05-.13-.16-.39-.22-.4a4.2 4.2 0 0 0-.22-.06l-.1.18c-.07.04-.25.13-.35.13.08.11.32.3.5.46l.21.18.75.8-.14.17h-.2l-.48-.37-.19-.28h-.38l-.67.55-.14-.14v-.56l-.25-.22-.18.09-.04.17-.17.1c-.41-.21-1.24-.65-1.27-.65-.03 0-.56-.2-.82-.3a2.88 2.88 0 0 0-.23-.41 3 3 0 0 0 0 .28l.19.33.08.39c.38.32 1.2.98 1.37 1.02.19.04 1.22.37 1.7.53l.07.15c-.03.02-.11.06-.26.03a11.45 11.45 0 0 1-1.66-.15c-.13.02-.23.05-.32.08-.13.04-.26.07-.51.07a.4.4 0 0 1-.27-.12c-.08-.2-.26-.63-.33-.7-.07-.05-.2-.06-.27-.06l-.22.3-.24.05-.34-.62-.12-.03-.2.37-.15.07-.65-.48h-.32l-1.14.69-.25.03-.27-.09Zm27.19-4.11c.1.04.34.14.44.22.12.1.46.34.64.37.1.02.18.12.28.23.08.1.17.21.29.28.23.14.9.47 1.04.51.08.03.15.02.23 0h.4c.14 0 .29 0 .38.06l.16.16c.09.09.17.18.27.22l.02.01c.14.06.2.08.2.15 0 .07-.1.06-.28 0-.1-.03-.2-.04-.3-.05-.1-.02-.18-.03-.23-.06-.03-.01-.06-.05-.1-.09-.05-.07-.13-.16-.26-.16l-.2.02a.71.71 0 0 1-.26 0c-.09 0-.14-.02-.18-.03a.6.6 0 0 0-.18-.03c-.12 0-.12.09-.12.15v.03c0 .02.08.09.16.16.12.11.26.23.21.28-.08.07-.14.08-.23.04l-.11-.04c-.18-.05-.5-.15-.62-.33a1.7 1.7 0 0 1-.12-.19c-.05-.1-.08-.16-.18-.16-.08 0-.2-.1-.32-.2-.13-.1-.26-.21-.35-.21-.08 0-.16-.03-.26-.07-.11-.04-.25-.1-.42-.12-.2-.03-.3-.1-.37-.14-.05-.04-.1-.07-.16-.08h-.09c-.1-.02-.16-.02-.16-.11 0-.08.08-.08.16-.09h.09a.6.6 0 0 1 .07-.03c.1-.02.24-.06.24-.14 0-.06-.02-.1-.03-.16a.7.7 0 0 1-.02-.16c0-.12.1-.24.27-.24Zm-10.07-.84c.16.1.18.27.18.35.04.21-.06.3-.11.3-.06 0-.12-.04-.17-.1a.4.4 0 0 0-.13-.08l-.07-.04a1.7 1.7 0 0 0-.34-.26c-.2-.12-.22-.32-.23-.43l-.01-.07a.51.51 0 0 0-.05-.1l-.07-.15c-.01-.06-.1-.14-.17-.2-.07-.07-.13-.12-.13-.15 0-.07 0-.1.16-.1.14 0 .22.22.27.35l.01.04c.03.07.1.1.19.14.05.02.1.04.13.07.12.16.34.32.54.43Zm-2.23.36c-.04.01-.13.07-.17.21l-.01.06c-.05.16-.09.33-.21.33-.14 0-.21-.17-.28-.32-.07-.15-.6-.11-.74-.09-.14.02-.43.27-.45.32l-.08.07c-.08.06-.2.15-.2.23 0 .13.12.28.48.28.22 0 .31-.04.39-.08.05-.03.1-.05.17-.05.1 0 .13.05.16.1.02.05.04.08.1.08.05 0 .16-.06.27-.14.13-.09.28-.18.4-.21l.08-.02c.23-.05.55-.11.51-.26-.03-.12-.35-.5-.42-.5Zm-3.26 1.92c.25.17.41.4.46.49a6.2 6.2 0 0 1-.63-.3c-.16-.1-.17-.28-.17-.41v-.06c0-.06-.07-.12-.15-.18-.1-.09-.24-.2-.24-.37 0-.15.15-.22.23-.26l.04-.02c.02 0 .03-.04.04-.07.03-.05.05-.12.12-.12.07 0 .12.05.25.17l.14.14c.62.5.82.54 1.31.64l.23.04c.67.15.78.2.78.5 0 .46.17.58.41.75l.07.05c.72.37.87.66.87.74 0 .08-.02.25-.2.25-.12 0-.2-.09-.3-.2a2.24 2.24 0 0 0-.12-.13c-.1-.08-.18-.1-.28-.11a.78.78 0 0 1-.34-.12.83.83 0 0 1-.27-.35c-.05-.08-.08-.15-.13-.15l-.12.01c-.06.01-.14.03-.34.03-.23 0-.2-.17-.18-.35l.02-.2c0-.25-.22-.35-.57-.35s-.93-.61-.96-.76c-.03-.16-.2-.3-.27-.3-.08 0-.16.05-.16.25s.16.53.46.75Zm11.52 2c.02 0 .06-.04.06-.13 0-.05-.04-.1-.09-.16a1.04 1.04 0 0 1-.2-.32 1.94 1.94 0 0 0-.22-.4c-.07-.09-.12-.17-.15-.25-.06-.17-.2-.45-.34-.57a.84.84 0 0 0-.2-.12c-.13-.06-.28-.14-.28-.26V30c0-.2 0-.5-.21-.5-.22 0-.4-.02-.5-.23a.9.9 0 0 0-.07-.1c-.03-.04-.05-.06-.05-.11 0-.08.06-.11.17-.11.12 0 .4.05.6.16.1.04.14.08.18.1.04.04.06.06.13.06.11 0 .13-.1.13-.14 0-.03-.09-.09-.19-.14a1.6 1.6 0 0 1-.16-.11A8.23 8.23 0 0 1 31 27.8c0-.09-.1-.29-.19-.34-.08-.05-.14-.12-.14-.2 0-.08-.03-.26-.15-.26-.1 0-.09.09-.08.15v.03c0 .03-.03.07-.06.12-.04.07-.08.14-.09.2l.05.15c.03.1.08.22.07.36 0 .07.03.11.07.16.05.05.1.11.1.23 0 .2-.07.29-.26.29-.1 0-.22-.04-.32-.07l-.17-.04c-.02 0-.06 0-.1-.02-.14-.03-.37-.07-.37.13 0 .13.21.23.43.34.19.1.38.19.41.3.06.24.25.7.61.8l.15.05c.23.06.24.06.24.15 0 .06-.06.1-.11.13-.06.05-.11.09-.11.15 0 .08.06.1.17.15l.17.09c.12.06.24.19.34.3.08.08.16.16.22.2l.18.09c.17.07.38.15.48.32.11.18.2.23.28.27l.06.04.07.05c.06.06.11.1.2.1Z" fill="url(#bgkykatjh)"/><path d="M33.22 22C32 22 31 22.84 31 24.03c0 1.23 1.05 1.97 2.27 1.97.35 0 .66-.07.96-.2l.32-.06c.08 0 .14.03.19.08.05.06.08.11.09.17H35v-1.32h-.16c-.27.52-.83 1.05-1.47 1.05-.81 0-1.37-.57-1.37-1.73 0-.76.31-1.71 1.3-1.71.76 0 1.2.43 1.54 1.05H35V22h-.18a.37.37 0 0 1-.09.17c-.23.27-1.2-.18-1.51-.18ZM26 25.85c.27 0 .48-.04.56-.12.08-.07.12-.19.12-.33v-2.84c-.2-.17-.41-.39-.67-.41V22h1.55l2.57 2.43h.04V22.7c0-.2-.05-.33-.14-.41-.09-.09-.33-.14-.6-.15V22H31v.15a.87.87 0 0 0-.4.12c-.07.05-.11.16-.11.34V26h-.2l-3.24-3.08H27v2.37c0 .17.03.3.1.37.09.12.25.18.55.2V26H26v-.15ZM22 25.85c.2 0 .35-.03.43-.07.13-.06.2-.18.2-.35v-2.86c0-.17-.07-.29-.2-.35a1.33 1.33 0 0 0-.43-.07V22h4v1.2h-.17c-.09-.37-.24-.63-.44-.78-.21-.15-.6-.22-1.15-.22-.2 0-.34.02-.4.06-.05.04-.08.11-.08.22v1.37c.39 0 .64-.06.78-.2.13-.14.23-.37.3-.68h.18v2h-.18a1.23 1.23 0 0 0-.3-.7c-.14-.14-.4-.22-.78-.22v1.38c0 .19.07.3.2.35.12.05.32.07.58.07V26H22v-.15Z" fill="#CAAA5F"/><defs><linearGradient id="agkykatjh" x1="50" y1="27.99" x2="6" y2="27.99" gradientUnits="userSpaceOnUse"><stop stop-color="#DDD"/><stop offset=".5" stop-color="#6A6A6A"/><stop offset="1" stop-color="#DEDEDE"/></linearGradient><linearGradient id="bgkykatjh" x1="46.01" y1="32.81" x2="10.01" y2="32.81" gradientUnits="userSpaceOnUse"><stop stop-color="#C89D40"/><stop offset=".14" stop-color="#D0AE4E"/><stop offset=".45" stop-color="#B58C32"/><stop offset=".65" stop-color="#C2A03F"/><stop offset="1" stop-color="#B58F37"/></linearGradient></defs></svg>