<?xml version='1.0' encoding='utf-8'?>
<!-- by TradeStack -->
<svg width="56" height="56" viewBox="0 0 56 56" fill="none" xmlns="http://www.w3.org/2000/svg"><path fill="#F0F3FA" d="M0 0h56v56H0z" /><circle cx="28" cy="28" r="27.88" stroke="#E0E3EB" stroke-width=".25" /><rect x="4.05" y="20.05" width="47.9" height="15.9" rx="1.95" stroke="#E0E3EB" stroke-width=".1" /><rect x="8.05" y="16.05" width="39.9" height="23.9" rx="1.95" stroke="#E0E3EB" stroke-width=".1" /><rect x="12.05" y="12.05" width="31.9" height="31.9" rx="1.95" stroke="#E0E3EB" stroke-width=".1" /><rect x="16.05" y="8.05" width="23.9" height="39.9" rx="1.95" stroke="#E0E3EB" stroke-width=".1" /><rect x="20.05" y="4.05" width="15.9" height="47.9" rx="1.95" stroke="#E0E3EB" stroke-width=".1" /><circle cx="28" cy="28" r="15.88" stroke="#C1C4CD" stroke-width=".25" /><circle cx="20" cy="22" r="11" fill="#FFE082" /><path d="M44 28.5a15.5 15.5 0 1 1-31 0 15.5 15.5 0 0 1 31 0Z" fill="#05BFA5" /><path d="M20 33a11 11 0 0 0 6.5-19.87A15.5 15.5 0 0 0 13.15 30.6C15.02 32.1 17.41 33 20 33Z" fill="#05A854" /><path d="M39.48 24.76h-1.34l-2.48-3.1-.25-1.99a1.09 1.09 0 0 0-.57-.81 1.02 1.02 0 0 0-.97.01l-3.7 2.07H26.4c-7.9.1-8.48 9.08-5.3 12.17.68.7 1.15 1.61 1.33 2.6l.27 1.35c.04.22.15.41.32.55.17.14.38.22.6.22h3.07a1 1 0 0 0 .57-.23c.17-.13.28-.32.34-.53l.47-1.22h2.34l.47 1.22c.06.2.18.4.34.53a1 1 0 0 0 .58.23h2.58c.18 0 .37-.05.52-.15.16-.1.28-.26.35-.44l1.64-3.97 3.14-1.56c.22-.1.4-.27.53-.48.13-.21.2-.45.2-.7v-4.45a1.34 1.34 0 0 0-.38-.93 1.28 1.28 0 0 0-.9-.39Zm-7.75-.25a.56.56 0 0 1-.19.3c-.09.07-.2.1-.32.11a.44.44 0 0 1-.19-.04 4.16 4.16 0 0 0-3.42 0 .51.51 0 0 1-.57-.12.54.54 0 0 1-.13-.25.7.7 0 0 1 0-.47.67.67 0 0 1 .31-.35 5.08 5.08 0 0 1 4.2 0c.14.07.25.2.3.35.06.15.07.32.01.47m2.67 2.62a.81.81 0 0 1-.45-.14.87.87 0 0 1-.12-1.3.82.82 0 0 1 .89-.19c.15.07.28.17.37.31a.86.86 0 0 1-.1 1.07.82.82 0 0 1-.59.25Z" fill="#F0F3FA" /></svg>