<!-- by TradeStack --><svg width="56" height="56" viewBox="0 0 56 56" xmlns="http://www.w3.org/2000/svg"><path fill="#F0F3FA" d="M0 0h56v56H0z"/><path fill-rule="evenodd" d="M13 13v18.64a21 21 0 0 1 8.22 2.07c-1.82.33-3.28.62-4.63 1.17 1.32-.43 6.4-1.25 11.8-1.25a54.5 54.5 0 0 1 11.92 1.45c-3.48-1.55-10.86-1.83-13.42-1.83 5.83-3.85 13.17-4.9 16.11-4.93V13H13Zm9.08 16.54c-3.7 0-6.86 1.28-7.97 1.92 4.42.48 7.05 1.85 7.59 2.18.67-.14 4.1-.33 4.52-.33.32-.38 2.79-1.72 3.98-2.34a23.91 23.91 0 0 0-8.12-1.43Zm15.4-7.61a3.38 3.38 0 1 0-3.38-3.37 3.38 3.38 0 0 0 3.39 3.37Z" fill="url(#a1zhuncby)"/><path fill-rule="evenodd" d="M11 36.13v5.74c.3.04 1.02.12 1.49.12 2.12 0 2.51-.93 2.51-1.86s-.72-1.28-.93-1.38c.23-.15.55-.54.55-1.26 0-1.32-1.35-1.49-2.15-1.49a8.6 8.6 0 0 0-1.47.13Zm1.5 2.09V37c.48 0 .8.07.8.6 0 .62-.49.65-.8.62Zm0 1.22v1.38c.41.04 1.08.06 1.08-.71 0-.57-.45-.67-1.08-.67Z" fill="url(#b1zhuncby)"/><path d="M37.5 40.5v-4.41c-.09-.03-.38-.09-.78-.09s-.65.06-.72.09V42H39.9c.03-.1.1-.38.1-.79a2 2 0 0 0-.1-.71h-2.4Z" fill="url(#c1zhuncby)"/><path d="M42.25 36H41v6h3.9c.04-.1.1-.38.1-.79 0-.4-.06-.64-.1-.71h-2.4v-1h1.85c.03-.1.1-.38.1-.78s-.07-.65-.1-.72H42.5v-.5h2.4c.04-.1.1-.38.1-.78s-.06-.65-.1-.72h-2.65Z" fill="url(#d1zhuncby)"/><path d="M32.25 36H31v6h3.9c.04-.1.1-.38.1-.79 0-.4-.06-.64-.1-.71h-2.4v-1h1.85c.03-.1.1-.38.1-.78s-.07-.65-.1-.72H32.5v-.5h2.4c.04-.1.1-.38.1-.78s-.06-.65-.1-.72h-2.65Z" fill="url(#e1zhuncby)"/><path d="M29.8 36.32c-.04.48-.23.98-.33 1.17-.27-.14-.8-.3-1.13-.3-.33 0-.72.07-.72.44 0 .38.16.46 1.22.87 1.07.42 1.16 1.02 1.16 1.68 0 1.58-1.58 1.82-2.32 1.82-.75 0-1.35-.23-1.68-.34.06-.5.24-1.03.33-1.23.2.1.7.31 1.23.31.66 0 .92-.2.92-.56 0-.36-.3-.5-.86-.68-1.27-.4-1.46-1.13-1.46-1.76 0-1.45 1.32-1.74 2.01-1.74.7 0 1.42.24 1.63.32Z" fill="url(#f1zhuncby)"/><path fill-rule="evenodd" d="M18.62 41.93a3.7 3.7 0 0 0 1.38 0l-1.8-5.85a6.03 6.03 0 0 0-.7-.08c-.16.01-.53.04-.7.08L15 41.93a3.7 3.7 0 0 0 1.38 0l.28-1.04c.26.09.54.11.8.11.4 0 .72-.08.87-.14l.29 1.07Zm-.58-2.2-.54-2.08-.55 2.1c.17.08.4.12.51.13.13-.01.4-.06.58-.16Z" fill="url(#g1zhuncby)"/><path d="M21 41.9v-5.77c.18-.04.91-.13 1.5-.13 1.56 0 2.5.81 2.5 1.88a1.9 1.9 0 0 1-.7 1.54l.7 2.53a6.31 6.31 0 0 1-1.44 0c-.32-.8-.75-2.47-.83-2.7.23-.1.77-.58.77-1.24s-.62-.77-.79-.77c-.13 0-.2.03-.21.04v4.65c-.09.03-.56.07-.87.07a2 2 0 0 1-.63-.1Z" fill="url(#h1zhuncby)"/><defs><linearGradient id="a1zhuncby" x1="12.99" y1="22.91" x2="43" y2="22.91" gradientUnits="userSpaceOnUse"><stop stop-color="#563F93"/><stop offset="1" stop-color="#05A09C"/></linearGradient><linearGradient id="b1zhuncby" x1="13" y1="36" x2="13" y2="41.99" gradientUnits="userSpaceOnUse"><stop stop-color="#555658"/><stop offset="1" stop-color="#404042"/></linearGradient><linearGradient id="c1zhuncby" x1="38" y1="36" x2="38" y2="42" gradientUnits="userSpaceOnUse"><stop stop-color="#555658"/><stop offset="1" stop-color="#404042"/></linearGradient><linearGradient id="d1zhuncby" x1="43" y1="36" x2="43" y2="42" gradientUnits="userSpaceOnUse"><stop stop-color="#555658"/><stop offset="1" stop-color="#404042"/></linearGradient><linearGradient id="e1zhuncby" x1="33" y1="36" x2="33" y2="42" gradientUnits="userSpaceOnUse"><stop stop-color="#555658"/><stop offset="1" stop-color="#404042"/></linearGradient><linearGradient id="f1zhuncby" x1="28" y1="36" x2="28" y2="42" gradientUnits="userSpaceOnUse"><stop stop-color="#555658"/><stop offset="1" stop-color="#404042"/></linearGradient><linearGradient id="g1zhuncby" x1="17.5" y1="36" x2="17.5" y2="42" gradientUnits="userSpaceOnUse"><stop stop-color="#555658"/><stop offset="1" stop-color="#404042"/></linearGradient><linearGradient id="h1zhuncby" x1="23" y1="36" x2="23" y2="42" gradientUnits="userSpaceOnUse"><stop stop-color="#555658"/><stop offset="1" stop-color="#404042"/></linearGradient></defs></svg>