<?xml version='1.0' encoding='utf-8'?>
<!-- by TradeStack -->
<svg width="56" height="56" viewBox="0 0 56 56" xmlns="http://www.w3.org/2000/svg"><path fill="#0059A9" d="M0 0h56v56H0z" /><path fill-rule="evenodd" d="M36.77 12.68a61.79 61.79 0 0 0-6.75-.68h-4.31c-2.08.15-4.14.37-6.19.66-.65.1-1.05.51-1.19 1.25a73.56 73.56 0 0 0 .13 28.54c.1.52.36.8.76.87 5.5.88 11.23.9 17.18.07.57-.08 1.02-.32 1.13-.87a72.5 72.5 0 0 0 0-29.01c-.1-.48-.35-.76-.76-.83Zm-13.63 16.2 4.77-.82-.35.52c-.47.7-.95 1.42-1.24 2.12-1.82 4.4-1.34 8.57 1.45 12.53a.25.25 0 0 0 .2.1.26.26 0 0 0 .21-.1 12.3 12.3 0 0 0 .89-13.67c-.04-.06-.03-.11.04-.15l3.88-2.18c.2-.1.18-.14-.04-.1l-5.04.93a11.54 11.54 0 0 0 2.67-6.04 12 12 0 0 0-2.52-9.38.19.19 0 0 0-.24.07c-3.1 4.39-3.41 8.96-.94 13.7.05.1.03.17-.07.23l-3.73 2.09c-.28.15-.26.2.06.15Z" fill="#fff" /></svg>