<!-- by TradeStack --><svg xmlns="http://www.w3.org/2000/svg" width="56" height="56" viewBox="0 0 56 56"><path fill="#F0F3FA" d="M0 0h56v56H0z"/><path d="M28.62 11h-1.13v9h1.13v-9z" fill="url(#a0q3pof1k)"/><path d="M34.07 14.93l-1.04-.42-3.39 8.25 1.04.42 3.4-8.25z" fill="url(#b0q3pof1k)"/><path d="M41.3 15.78l-.78-.8-6.46 6.16.78.81 6.45-6.17z" fill="url(#c0q3pof1k)"/><path d="M43.1 22.45l-.41-1.04-8.3 3.31.41 1.04 8.3-3.31z" fill="url(#d0q3pof1k)"/><path d="M45 28.44v-1h-9v1h9z" fill="url(#e0q3pof1k)"/><path d="M41.06 33.94l.42-1.03-8.27-3.4-.43 1.04 8.28 3.4z" fill="url(#f0q3pof1k)"/><path d="M39.44 40.07l.79-.8-6.38-6.25-.78.8 6.37 6.25z" fill="url(#g0q3pof1k)"/><path d="M33.65 42.64l1.03-.44-3.53-8.2-1.03.45 3.53 8.19z" fill="url(#h0q3pof1k)"/><path d="M27.5 45h1.12v-9h-1.13v9z" fill="url(#i0q3pof1k)"/><path d="M21.57 41.98l1.03.44 3.56-8.18-1.03-.45-3.56 8.19z" fill="url(#j0q3pof1k)"/><path d="M14.97 40.27l.79.8 6.38-6.25-.8-.8-6.37 6.25z" fill="url(#k0q3pof1k)"/><path d="M14.5 33.02l.43 1.03 8.26-3.42-.44-1.03-8.25 3.42z" fill="url(#l0q3pof1k)"/><path d="M11 28.44v-1h9v1h-9z" fill="url(#m0q3pof1k)"/><path d="M14.46 23l.43-1.04 8.26 3.43-.43 1.03L14.46 23z" fill="url(#n0q3pof1k)"/><path d="M15.29 16.09l.8-.8 6.33 6.29-.79.8-6.34-6.3z" fill="url(#o0q3pof1k)"/><path d="M21.63 14.04l1.03-.44 3.51 8.2-1.03.44-3.5-8.2z" fill="url(#p0q3pof1k)"/><defs><linearGradient id="a0q3pof1k" x1="28.06" y1="19.98" x2="28.06" y2="11.05" gradientUnits="userSpaceOnUse"><stop stop-color="#FFF100"/><stop offset=".5" stop-color="#00A0E9"/><stop offset=".65" stop-color="#00A0E9"/><stop offset=".8" stop-color="#007CC9"/><stop offset=".92" stop-color="#0064B4"/><stop offset="1" stop-color="#005BAC"/></linearGradient><linearGradient id="b0q3pof1k" x1="30.17" y1="22.95" x2="33.52" y2="14.76" gradientUnits="userSpaceOnUse"><stop stop-color="#FFF100"/><stop offset=".5" stop-color="#00A0E9"/><stop offset=".65" stop-color="#00A0E9"/><stop offset=".8" stop-color="#007CC9"/><stop offset=".92" stop-color="#0064B4"/><stop offset="1" stop-color="#005BAC"/></linearGradient><linearGradient id="c0q3pof1k" x1="34.46" y1="21.53" x2="40.85" y2="15.39" gradientUnits="userSpaceOnUse"><stop stop-color="#FFF100"/><stop offset=".5" stop-color="#00A0E9"/><stop offset=".65" stop-color="#00A0E9"/><stop offset=".8" stop-color="#007CC9"/><stop offset=".92" stop-color="#0064B4"/><stop offset="1" stop-color="#005BAC"/></linearGradient><linearGradient id="d0q3pof1k" x1="34.61" y1="25.23" x2="42.85" y2="21.93" gradientUnits="userSpaceOnUse"><stop stop-color="#FFF100"/><stop offset=".5" stop-color="#00A0E9"/><stop offset=".65" stop-color="#00A0E9"/><stop offset=".8" stop-color="#007CC9"/><stop offset=".92" stop-color="#0064B4"/><stop offset="1" stop-color="#005BAC"/></linearGradient><linearGradient id="e0q3pof1k" x1="36.02" y1="27.94" x2="44.95" y2="27.94" gradientUnits="userSpaceOnUse"><stop stop-color="#FFF100"/><stop offset=".5" stop-color="#00A0E9"/><stop offset=".65" stop-color="#00A0E9"/><stop offset=".8" stop-color="#007CC9"/><stop offset=".92" stop-color="#0064B4"/><stop offset="1" stop-color="#005BAC"/></linearGradient><linearGradient id="f0q3pof1k" x1="33.02" y1="30.04" x2="41.22" y2="33.43" gradientUnits="userSpaceOnUse"><stop stop-color="#FFF100"/><stop offset=".5" stop-color="#00A0E9"/><stop offset=".65" stop-color="#00A0E9"/><stop offset=".8" stop-color="#007CC9"/><stop offset=".92" stop-color="#0064B4"/><stop offset="1" stop-color="#005BAC"/></linearGradient><linearGradient id="g0q3pof1k" x1="33.47" y1="33.43" x2="39.78" y2="39.66" gradientUnits="userSpaceOnUse"><stop stop-color="#FFF100"/><stop offset=".5" stop-color="#00A0E9"/><stop offset=".65" stop-color="#00A0E9"/><stop offset=".8" stop-color="#007CC9"/><stop offset=".92" stop-color="#0064B4"/><stop offset="1" stop-color="#005BAC"/></linearGradient><linearGradient id="h0q3pof1k" x1="30.65" y1="34.24" x2="34.12" y2="42.38" gradientUnits="userSpaceOnUse"><stop stop-color="#FFF100"/><stop offset=".5" stop-color="#00A0E9"/><stop offset=".65" stop-color="#00A0E9"/><stop offset=".8" stop-color="#007CC9"/><stop offset=".92" stop-color="#0064B4"/><stop offset="1" stop-color="#005BAC"/></linearGradient><linearGradient id="i0q3pof1k" x1="28.06" y1="36.02" x2="28.06" y2="44.95" gradientUnits="userSpaceOnUse"><stop stop-color="#FFF100"/><stop offset=".5" stop-color="#00A0E9"/><stop offset=".65" stop-color="#00A0E9"/><stop offset=".8" stop-color="#007CC9"/><stop offset=".92" stop-color="#0064B4"/><stop offset="1" stop-color="#005BAC"/></linearGradient><linearGradient id="j0q3pof1k" x1="25.63" y1="34.03" x2="22.13" y2="42.16" gradientUnits="userSpaceOnUse"><stop stop-color="#FFF100"/><stop offset=".5" stop-color="#00A0E9"/><stop offset=".65" stop-color="#00A0E9"/><stop offset=".8" stop-color="#007CC9"/><stop offset=".92" stop-color="#0064B4"/><stop offset="1" stop-color="#005BAC"/></linearGradient><linearGradient id="k0q3pof1k" x1="21.73" y1="34.44" x2="15.42" y2="40.66" gradientUnits="userSpaceOnUse"><stop stop-color="#FFF100"/><stop offset=".5" stop-color="#00A0E9"/><stop offset=".65" stop-color="#00A0E9"/><stop offset=".8" stop-color="#007CC9"/><stop offset=".92" stop-color="#0064B4"/><stop offset="1" stop-color="#005BAC"/></linearGradient><linearGradient id="l0q3pof1k" x1="22.95" y1="30.12" x2="14.76" y2="33.54" gradientUnits="userSpaceOnUse"><stop stop-color="#FFF100"/><stop offset=".5" stop-color="#00A0E9"/><stop offset=".65" stop-color="#00A0E9"/><stop offset=".8" stop-color="#007CC9"/><stop offset=".92" stop-color="#0064B4"/><stop offset="1" stop-color="#005BAC"/></linearGradient><linearGradient id="m0q3pof1k" x1="19.98" y1="27.94" x2="11.05" y2="27.94" gradientUnits="userSpaceOnUse"><stop stop-color="#FFF100"/><stop offset=".5" stop-color="#00A0E9"/><stop offset=".65" stop-color="#00A0E9"/><stop offset=".8" stop-color="#007CC9"/><stop offset=".92" stop-color="#0064B4"/><stop offset="1" stop-color="#005BAC"/></linearGradient><linearGradient id="n0q3pof1k" x1="22.91" y1="25.9" x2="14.73" y2="22.47" gradientUnits="userSpaceOnUse"><stop stop-color="#FFF100"/><stop offset=".5" stop-color="#00A0E9"/><stop offset=".65" stop-color="#00A0E9"/><stop offset=".8" stop-color="#007CC9"/><stop offset=".92" stop-color="#0064B4"/><stop offset="1" stop-color="#005BAC"/></linearGradient><linearGradient id="o0q3pof1k" x1="22.01" y1="21.96" x2="15.74" y2="15.7" gradientUnits="userSpaceOnUse"><stop stop-color="#FFF100"/><stop offset=".5" stop-color="#00A0E9"/><stop offset=".65" stop-color="#00A0E9"/><stop offset=".8" stop-color="#007CC9"/><stop offset=".92" stop-color="#0064B4"/><stop offset="1" stop-color="#005BAC"/></linearGradient><linearGradient id="p0q3pof1k" x1="25.65" y1="22" x2="22.19" y2="13.86" gradientUnits="userSpaceOnUse"><stop stop-color="#FFF100"/><stop offset=".5" stop-color="#00A0E9"/><stop offset=".65" stop-color="#00A0E9"/><stop offset=".8" stop-color="#007CC9"/><stop offset=".92" stop-color="#0064B4"/><stop offset="1" stop-color="#005BAC"/></linearGradient></defs></svg>