<?xml version='1.0' encoding='utf-8'?>
<!-- by TradeStack -->
<svg width="56" height="56" viewBox="0 0 56 56" xmlns="http://www.w3.org/2000/svg"><path fill="url(#a03z13ljd)" d="M0 0h56v56H0z" /><path d="M22.71 26.02V24.5h-.4v1.52a1 1 0 0 0-.78.74h-.56a1 1 0 1 0 .01.41h.54a1 1 0 1 0 1.2-1.15ZM20 33a1 1 0 0 0 .2-1.98v-.54a1 1 0 1 0-1.18-1.19h-1.4v.42h1.4a1 1 0 0 0 .78.77v.54A1 1 0 0 0 20 33Zm3.48-.79a1 1 0 0 1-.78.77v1.34h-.4v-1.34a1 1 0 1 1 1.18-1.18h.54a1 1 0 1 1 0 .41h-.54ZM26 27a1 1 0 0 1-.8.98v.54a1 1 0 0 1 .75.68h1.54v.41H26a1 1 0 0 1-.99.92 1 1 0 0 1-1-1.01c0-.5.34-.9.8-1v-.54A1 1 0 1 1 26 27Z" fill="#00B6D7" /><path d="M23.52 24.04c0 .58-.46 1.05-1.03 1.05-.56 0-1.02-.47-1.02-1.05 0-.57.46-1.04 1.02-1.04.57 0 1.03.47 1.03 1.04ZM23.5 35a1 1 0 1 1-2 0 1 1 0 0 1 2 0Zm-3.75.5a.75.75 0 1 0 0-1.5.75.75 0 0 0 0 1.5Zm.75-11.25a.75.75 0 1 1-1.5 0 .75.75 0 0 1 1.5 0Zm4.75 11.25a.75.75 0 1 0 0-1.5.75.75 0 0 0 0 1.5ZM26 24.25a.75.75 0 1 1-1.5 0 .75.75 0 0 1 1.5 0Zm2.5 2.5a.75.75 0 1 1-1.5 0 .75.75 0 0 1 1.5 0ZM18.05 29.5c0 .58-.46 1.04-1.02 1.04-.57 0-1.03-.46-1.03-1.04 0-.58.46-1.04 1.03-1.04.56 0 1.02.46 1.02 1.04Zm10.45 2.75a.75.75 0 1 1-1.5 0 .75.75 0 0 1 1.5 0ZM17.25 33a.75.75 0 1 0 0-1.5.75.75 0 0 0 0 1.5Zm0-5.5a.75.75 0 1 0 0-1.5.75.75 0 0 0 0 1.5Zm11.75 2c0 .58-.46 1.04-1.03 1.04-.56 0-1.02-.46-1.02-1.04 0-.58.46-1.04 1.02-1.04.57 0 1.03.46 1.03 1.04Z" fill="#fff" /><path fill-rule="evenodd" d="M7 35.67V28c.14-2.6 1.9-7.38 8.7-7.99.16 0 .3.14.3.32v1.24c0 .25-.2.43-.45.44-1.65.04-4.7 1.4-6.19 5h3.27c.2 0 .37.17.37.38v1.25c0 .2-.17.37-.37.37H9v6.67c0 .18-.13.33-.3.33H7.31a.32.32 0 0 1-.31-.33ZM31.38 20c-.2 0-.38.19-.38.42v9.08a6.5 6.5 0 1 0 2-4.7v-4.38c0-.23-.17-.42-.38-.42h-1.24ZM33 29.5a4.5 4.5 0 1 0 9 0 4.5 4.5 0 0 0-9 0ZM48 21a1 1 0 1 1-2 0 1 1 0 0 1 2 0Zm-1.65 15c-.2 0-.35-.2-.35-.46V23.46c0-.25.16-.46.35-.46h1.3c.2 0 .35.2.35.46v12.08c0 .25-.16.46-.35.46h-1.3Z" fill="#fff" /><defs><linearGradient id="a03z13ljd" x1="10.42" y1="9.71" x2="68.15" y2="76.02" gradientUnits="userSpaceOnUse"><stop stop-color="#1A1E21" /><stop offset="1" stop-color="#06060A" /></linearGradient></defs></svg>