<!-- by TradeStack --><svg width="56" height="56" viewBox="0 0 56 56" xmlns="http://www.w3.org/2000/svg"><path fill="#F0F3FA" d="M0 0h56v56H0z"/><path d="M36.1 31a13.74 13.74 0 0 1-13.32 10C15.18 41 9 34.96 9 27.5S15.17 14 22.78 14c6.38 0 11.75 4.24 13.32 10h-5.85a8.5 8.5 0 1 0 0 7h5.85Z" fill="url(#agfbutgg2)"/><path d="m30.16 42-8.39-11h6.5l8.71 11h-6.82Z" fill="url(#bgfbutgg2)"/><path fill-rule="evenodd" d="M15 27.05c0-1.13.89-2.05 1.98-2.05h3.04c1.1 0 1.98.92 1.98 2.05v.9c0 .47-.15.9-.41 1.25h.74v.8H17c-1.1 0-1.99-.92-1.99-2.05v-.9Zm.78.16c0-.79.59-1.42 1.31-1.42h2.76c.73 0 1.31.63 1.31 1.42v.55c0 .79-.58 1.42-1.3 1.42h-2.77c-.72 0-1.3-.63-1.3-1.42v-.55ZM22.25 25v2.91c0 1.16.92 2.09 2.06 2.09H28v-5h-.74v4.23h-2.9c-.76 0-1.36-.62-1.36-1.39V25h-.75Zm13.06 0v2.91c0 1.16.83 2.09 1.84 2.09h3.25v-.77h-3.2c-.68 0-1.2-.62-1.2-1.39V25h-.69Zm-2.08 0h-3.17v.85h3.23c.49 0 .71.42.71.95v.19h-3.68c-.73 0-1.32.64-1.32 1.42v.16c0 .8.6 1.43 1.32 1.43h4.46v-3.34c0-.92-.7-1.66-1.55-1.66Zm.77 2.77h-3.54a.78.78 0 0 0-.77.79c0 .43.35.78.77.78H34v-1.57ZM41 25h.72v5H41v-5Zm6.68.68h-4.24c-.24 0-.43.22-.43.49v.37c0 .26.2.46.43.46h3.48c.6 0 1.08.56 1.08 1.23v.56c0 .67-.48 1.21-1.08 1.21h-4.39v-.77h4.55c.12 0 .21-.1.21-.24v-.96c0-.13-.1-.24-.21-.24h-3.62c-.6 0-1.18-.54-1.18-1.2v-.38c0-.67.59-1.21 1.18-1.21h4.22v.68Z" fill="#5055A1"/><defs><linearGradient id="agfbutgg2" x1="9.31" y1="27.5" x2="32.93" y2="27.5" gradientUnits="userSpaceOnUse"><stop stop-color="#4E57A2"/><stop offset=".99" stop-color="#0D4A77"/></linearGradient><linearGradient id="bgfbutgg2" x1="23.7" y1="32.36" x2="29.88" y2="41.67" gradientUnits="userSpaceOnUse"><stop stop-color="#C02492"/><stop offset="1" stop-color="#782479"/></linearGradient></defs></svg>