<!-- by TradeStack --><svg width="56" height="56" viewBox="0 0 56 56" xmlns="http://www.w3.org/2000/svg"><path fill="#F0F3FA" d="M0 0h56v56H0z"/><path d="M29.81 28.43a5.3 5.3 0 0 0-1.8.03c.66-.29 1.37-.4 2.12-.36a5.6 5.6 0 0 1 2.11.6c.55.27 1.13.57 1.72.9.55.3 1.14.47 1.76.5.37.03.9-.05 1.6-.23.69-.18 1.34-.3 1.96-.35.9-.08 1.73.1 2.5.54.7.41 1.42 1 2.14 1.76a22.36 22.36 0 0 1 3.07 4.17h-.02a31.72 31.72 0 0 0-3.88-4.04 8.35 8.35 0 0 0-1.67-1.14 3.65 3.65 0 0 0-1.86-.39c-.44.03-1.1.14-1.96.33l-.94.19c-.9.16-1.78.02-2.62-.43-.37-.2-.75-.42-1.14-.68a8.08 8.08 0 0 0-3.09-1.4ZM16.21 31c-.91.11-1.74.38-2.49.8-.8.44-1.61 1.03-2.45 1.76-.6.53-1.33 1.25-2.18 2.14-.1.1-.11.09-.06-.04a10.48 10.48 0 0 1 2.74-3.63 6.36 6.36 0 0 1 4.04-1.68c.92-.02 1.82.11 2.69.39.18.06.18.09-.02.09-.73 0-1.5.06-2.27.16Z"/><path fill-rule="evenodd" d="M21.12 30.9c.04-.14 0-.22-.1-.26-.04 0-.05-.03-.05-.06v-4.7c0-.06.03-.15.08-.27a.81.81 0 0 0 .07-.3v-.72c0-.03.02-.05.04-.07l2.79-1.27c.03-.01.05 0 .05.04v2.04c0 .04-.02.07-.06.07-.17 0-.3.01-.39.05a.48.48 0 0 0-.25.3c-.02.04-.04.06-.08.06l-.15-.01c-.05 0-.07.02-.07.06l.01 2.21c0 .06.03.1.08.08h.12c.05-.02.07.01.07.07v.57c0 .05.02.07.07.06l.08-.02c.04 0 .07.02.07.06 0 .13 0 .3-.04.53l-.03.24a952 952 0 0 1-.61 5.97c0 .08.02.13.1.13h.33c.03 0 .04-.01.05-.04l.2-1.97c0-.1.05-.13.14-.07l2.84 2.02c.11.08.3.09.58.03.04 0 .06-.04.06-.08a.77.77 0 0 0-.03-.15 114.38 114.38 0 0 0-.54-5.1v-.17c-.01-.13-.02-.23-.04-.29a2.9 2.9 0 0 1-.07-.54 3.28 3.28 0 0 0-.05-.48c-.01-.06 0-.09.06-.08h.14c.04 0 .05 0 .05-.05v-.58c0-.06.03-.08.08-.06.06.02.11.02.15-.02a.08.08 0 0 0 .04-.07v-2.2c0-.04-.02-.06-.06-.06h-.14c-.04 0-.06-.02-.08-.05-.1-.26-.31-.37-.64-.35-.07 0-.1-.03-.1-.1v-2.86c0-.05.02-.09.07-.1l4.9-2.24c.04-.02.07 0 .08.03l.76 1.72c.02.04.04.05.08.03l.5-.25h.06l.03.06v5.47c0 .05.02.07.06.06l.05-.01c.03 0 .04-.02.04-.06V21.6c0-.04.02-.07.06-.08l.29-.13c.04-.02.06-.05.06-.1a51.69 51.69 0 0 1 .06-2.24c.03-.53 0-.9-.1-1.1l-.83-1.9c-.01-.04-.04-.05-.08-.03l-2.32 1.06c-.03.01-.04.03-.02.06l.74 1.71c.02.05.01.08-.03.1l-4.68 2.14a.84.84 0 0 1-.38.08l-.54-.02c-.37 0-.62.2-.74.63a.16.16 0 0 1-.1.1l-4.87 2.24c-.04.01-.05.04-.03.08l.46 1.04c.01.04.04.05.08.04l.34-.17.06.01c.02.02.03.04.02.06a.9.9 0 0 0 .11.56.2.2 0 0 1 .03.1 271.81 271.81 0 0 0 .01 4.72c0 .04 0 .06-.03.08-.1.05-.13.14-.13.26 0 .03.01.05.05.05h.33c.04 0 .06.01.06.06v4.23c0 .03.01.05.04.05h.2c.03 0 .05-.03.05-.06L20.68 31c0-.04.02-.05.05-.05h.33c.03 0 .05-.02.06-.05Zm-.35-4.99h-.45c-.02 0-.03.01-.03.03v4.67c0 .02.01.03.03.03h.45s.02-.01.02-.03v-4.67c0-.02-.01-.03-.02-.03Zm3.69 2.93h1.42c.01 0 .03 0 .03.03l.14 1.27c0 .01 0 .02-.02.03H26l-1.56-1.27a.03.03 0 0 1-.01-.04c0-.02.01-.02.03-.02Zm1.23 1.53-1.66-1.33c-.03-.02-.05-.02-.05.02l-.13 1.34c0 .03 0 .04.03.04h1.8s.02-.01.02-.03v-.04Zm0 .4h.05c.07.01.08.04.02.09l-2.08 1.86c-.07.06-.1.05-.08-.05.03-.13.05-.33.07-.6l.04-.39c.04-.25.06-.51.07-.78 0-.07.04-.1.1-.1.6.01 1.2 0 1.8-.02Zm-1.8 2.38h2.43c.02 0 .03-.02.03-.04l-.21-2c0-.04-.02-.05-.05-.02l-2.22 2c-.01 0-.02.02-.01.04 0 .01.01.02.03.02Zm2.64 2.14-2.48-1.77c-.01 0-.02-.02-.01-.03 0-.02 0-.03.02-.03h2.3s.02.01.02.03l.2 1.76-.02.04h-.03Z"/></svg>