<!-- by TradeStack --><svg width="56" height="56" viewBox="0 0 56 56" xmlns="http://www.w3.org/2000/svg"><path fill="#F0F3FA" d="M0 0h56v56H0z"/><path d="M33.13 16.5c-.03-.03-.07-.03-.1.01L31 18.97c-.02.03-.06.04-.1.02l-2.15-1a.19.19 0 0 0-.23.04 85.25 85.25 0 0 1-7.56 7.04c-.12.1-.24.11-.38.05l-1.88-.84a.16.16 0 0 0-.2.06c-.4.66-.9 1.3-1.51 1.93a33.17 33.17 0 0 1-1.85 1.7.08.08 0 0 1-.1.02.08.08 0 0 1-.05-.08V13.12c0-.07.04-.11.11-.11L40.93 13c.05 0 .07.02.07.07v8.09c0 .03-.01.05-.04.07a.1.1 0 0 1-.1.01 29.13 29.13 0 0 1-7.73-4.74Z" fill="url(#abiljsy3x)"/><path d="M38 24.78a.05.05 0 0 0 .02-.06l-.67-3.16c-.03-.14.01-.17.12-.09l3.09 2.27c.08.06.15.06.23 0a.37.37 0 0 1 .06-.03c.1-.05.15-.02.15.1v8.94c0 .08-.04.12-.12.13-4.88.6-9.59 1.9-14.14 3.93a42.6 42.6 0 0 0-7.33 4.17c-.04.03-.08.03-.12 0-.9-.85-1.69-1.72-2.34-2.61a10.85 10.85 0 0 1-1.62-3.06 7.74 7.74 0 0 1-.33-2.46l.03-3.2c0-.07.04-.11.1-.14a52.8 52.8 0 0 0 4.5-1.8.1.1 0 0 1 .1.01.1.1 0 0 1 .05.1l-.02.56c0 .05.02.08.06.1a.1.1 0 0 0 .12 0l4.48-3a.15.15 0 0 1 .2 0c.46.36.97.33 1.52-.07a16.23 16.23 0 0 0 3.43-3.95.14.14 0 0 1 .12-.07c.05 0 .09.02.12.05l.52.59c.06.06.12.1.2.11.08.02.16.01.23-.02l2.44-1.1a.22.22 0 0 1 .24.04l4.48 3.72c.03.03.05.02.08 0Z" fill="url(#bbiljsy3x)"/><path d="M27.8 46.95a45.62 45.62 0 0 1-7.82-5.38c-.18-.16-.17-.29.04-.4a25.8 25.8 0 0 1 3.56-1.54c2.84-1 5.58-1.76 8.2-2.28 2.75-.54 5.51-.85 8.29-.93.05 0 .09.02.11.06.03.05.03.09 0 .13a18.3 18.3 0 0 1-3.91 4.73 46.25 46.25 0 0 1-8.07 5.6.4.4 0 0 1-.4 0Z" fill="#D5AA5F"/><ellipse opacity=".1" cx="5.99" cy="2.97" rx="5.99" ry="2.97" transform="matrix(.92128 -.3889 .4057 .914 23.3 41.05)" fill="#fff"/><ellipse opacity=".2" cx="4.29" cy="2.13" rx="4.29" ry="2.13" transform="matrix(.92128 -.3889 .4057 .914 25.22 41.16)" fill="#fff"/><ellipse opacity=".2" cx="3.2" cy="1.59" rx="3.2" ry="1.59" transform="matrix(.92128 -.3889 .4057 .914 26.43 41.23)" fill="#fff"/><ellipse opacity=".2" cx="1.94" cy=".96" rx="1.94" ry=".96" transform="matrix(.92128 -.3889 .4057 .914 27.85 41.31)" fill="#fff"/><defs><linearGradient id="abiljsy3x" x1="16.59" y1="17.39" x2="41" y2="17.39" gradientUnits="userSpaceOnUse"><stop stop-color="#2587C7"/><stop offset="1" stop-color="#0E4F79"/></linearGradient><linearGradient id="bbiljsy3x" x1="16.1" y1="31.82" x2="41" y2="31.82" gradientUnits="userSpaceOnUse"><stop stop-color="#B75939"/><stop offset="1" stop-color="#9E4A38"/></linearGradient></defs></svg>