<!-- by TradeStack --><svg xmlns="http://www.w3.org/2000/svg" width="56" height="56" viewBox="0 0 56 56"><path d="M56 0H0v56h56V0Z" fill="#64C400"/><path fill-rule="evenodd" d="M50 23.5c0 .93-.4 1.63-.95 2.37L43 34h9v-2h-5l.95-1.26c1.34-1.77 3.13-4.14 3.67-5.58.42-1.11.44-2.45-.15-3.5C50.77 20.38 49.3 20 48 20c-1.32 0-2.62.52-3.37 1.73-.28.46-.63 1.54-.63 3.27h2c0-2 .68-3 2-3 1.32 0 2 .5 2 1.5ZM4 34h2v-4h4v-2H6v-3c0-1.22.84-2 2-2 1 0 2 .66 2 1.99h2C12 22.64 10.36 21 8 21a4 4 0 0 0-4 3.99V34Zm14-11c2.76 0 5 2.46 5 5.5S20.76 34 18 34s-5-2.46-5-5.5 2.24-5.5 5-5.5Zm0 2c1.93 0 3 1.38 3 3.5S19.93 32 18 32s-3-1.38-3-3.5 1.07-3.5 3-3.5Zm6 9h2v-6c0-1.39.79-3 2.5-3s2.5 1.5 2.5 3v6h2v-6c0-3-2.23-5-4.5-5-2.37 0-4.5 2-4.5 5v6Zm12.04-11H34v7c0 2.35 2 4 4 4s4-1.62 4-4v-3h-2v3c0 1-.4 2-2 2-1.58 0-1.96-1-1.96-2v-7Z" fill="#FEFEFE"/></svg>