<!-- by TradeStack --><svg width="56" height="56" viewBox="0 0 56 56" xmlns="http://www.w3.org/2000/svg"><path fill="#F0F3FA" d="M0 0h56v56H0z"/><path fill-rule="evenodd" d="M4 31v-6h6v1H6v2h3v1H6v2H4Zm16-3.1c0 1.61-1.5 2.91-5 2.91s-5-1.3-5-2.9c0-1.6 1.64-2.91 5-2.91 3.29 0 5 1.3 5 2.9Zm-2 .1c0 1.1-.9 2-3 2s-3-.9-3-2 .98-2 3-2c1.97 0 3 .9 3 2Zm4 3v-6h4.45c.85-.02 2.55.43 2.55 1.65 0 1.04-1.26 1.75-2.66 2.1 1.16 1.76 3.81 1.68 4.7 1.65h.19c.62 0 2.95-.18 2.95-.94 0-.62-1.22-1.04-1.83-1.17-.9-.2-2.71-.83-2.71-1.72 0-1.13 1.58-1.57 3.39-1.57 1.44 0 2.3.18 2.56.27v1.07l-.12-.08c-2.11-.65-3.85-.3-3.85.28 0 .46.68.63 1.94.96l.95.24c1.5.4 1.8 1.11 1.76 1.41 0 1.46-3.19 1.84-4.78 1.85-3.7 0-5.77-1.08-6.74-2H24v2H22Zm2-5v2h.92c.7-.02 2.08-.28 2.08-1.16 0-.65-.94-.83-1.4-.84H24Zm15 2.49L36 25h2.2l2.29 2.6L43.3 25H45l-4 3.49V31h-2v-2.51Zm12.36-3.27v.92a9.98 9.98 0 0 0-2.41-.38c-1.14 0-1.53.27-1.53.72 0 .36 1.32.82 1.98 1 .87.17 2.6.79 2.6 1.94 0 1.45-3.06 1.58-3.82 1.58-.6 0-2.09-.15-2.75-.22v-.97c.4.15 1.5.46 2.67.46 1.47 0 1.82-.45 1.82-.85 0-.36-.71-.61-1.9-1.04l-.33-.12c-1.38-.5-2.26-.84-2.26-1.67S46.44 25 48.95 25c1.21 0 2.11.15 2.41.22Z" fill="#00649F"/><path d="M20.45 22.77 19.81 21l1.1 1.5a1.7 1.7 0 0 0-.46.27Zm-.22.21-1.06-.39.8.77c.07-.14.16-.26.26-.38Zm-.38.7-3.37.12 3.3.36c0-.16.03-.32.07-.47Zm-.06.77c-1.97.56-4.7 1.9-5.82 2.5 2.16-.83 4.78-1.67 5.94-2.03a1.9 1.9 0 0 1-.12-.47Zm3.45-.44c4.67-1.03 16.84-2.49 28.4-.16-10.1-2.78-23.2-1.32-28.49-.25v.01c.05.13.07.26.09.4Zm-.15-.57L27 21.26l-4.16 1.77c.1.12.18.26.25.4Zm-.45-.62.7-1.72-1.24 1.4c.2.07.38.18.54.32Zm-.76-.4-.27-1.16-.27 1.13a1.66 1.66 0 0 1 .54.04Z" fill="#BC930C"/></svg>