<?xml version='1.0' encoding='utf-8'?>
<!-- by TradeStack -->
<svg width="56" height="56" viewBox="0 0 56 56" xmlns="http://www.w3.org/2000/svg"><path fill="#F0F3FA" d="M0 0h56v56H0z" /><path d="M31.17 16.27c4-3.78 12.22-4.4 15.83-4.25-10.33.9-14.86 6.16-15.83 8.67l-2.85 5.49c2.14-3.35 7.71-6.35 10.23-7.43-7.14 5.25-8.63 8.55-12.08 16.7C23.71 41.94 18.34 45.18 16 46c5.71-4.01 7.74-12.39 7.74-16.16 0-3.02-1.23-5.2-1.85-5.9 4.4.12 6.13-4.49 9.28-7.67Z" fill="url(#a)" /><circle cx="22.5" cy="17.5" r="3.5" fill="#ED8269" /><defs><linearGradient id="a" x1="44.08" y1="12.02" x2="16.22" y2="45.47" gradientUnits="userSpaceOnUse"><stop stop-color="#E5BED5" /><stop offset=".24" stop-color="#D4D952" /><stop offset=".66" stop-color="#58B1CA" /><stop offset="1" stop-color="#4CA7E2" /></linearGradient></defs></svg>