<!-- by TradeStack --><svg width="56" height="56" viewBox="0 0 56 56" xmlns="http://www.w3.org/2000/svg"><path fill="#F0F3FA" d="M0 0h56v56H0z"/><path d="M44.85 20.03v.02h.01v.03h-.01c-.3.19-.61.35-.94.5-2.29 1-4.47 1.92-6.56 2.79l-2.46 1.03c-1.5.6-3.1 1.3-4.72 1.96-.63.26-1.05.47-1.61.65h-.02a.03.03 0 0 1-.02-.02v-.02a.15.15 0 0 1 .08-.1l2.15-.94 3.61-1.57c.81-.35 1.87-.82 2.82-1.22l1.13-.48c1.82-.79 3.2-1.37 4.13-1.75a161.82 161.82 0 0 1 2.36-.9c.02 0 .03 0 .05.02Z" fill="#2985BA"/><path d="m12.26 23 .2.03a.1.1 0 0 1 .04.03c.02.02.02.04.02.06-.09.62-.06 1.04-.06 1.88 0 .84-.02 1.26.06 1.88l-.01.06a.09.09 0 0 1-.05.03.74.74 0 0 1-.2.03c-.06 0-.12 0-.2-.03a.1.1 0 0 1-.04-.03.08.08 0 0 1-.02-.06c.09-.62.06-1.04.06-1.88 0-.84.03-1.26-.06-1.88l.01-.06a.1.1 0 0 1 .05-.03.74.74 0 0 1 .2-.03ZM9.03 23h2.29a.14.14 0 0 1 .1.04.12.12 0 0 1 .03.08v.07l-.01.05c0 .02-.02.04-.03.05a.15.15 0 0 1-.11.04l-1.36-.05c-.1 0-.2 0-.29.02a.1.1 0 0 0-.05.03.09.09 0 0 0-.03.06v1.24c0 .03.01.05.03.07a7.19 7.19 0 0 0 1.56 0 .14.14 0 0 1 .1.04.11.11 0 0 1 .03.08v.1a.1.1 0 0 1-.03.08.11.11 0 0 1-.08.03H9.64a.07.07 0 0 0-.05.02.06.06 0 0 0-.02.04l.03 1.2c0 .19.02.38.06.59v.05a.08.08 0 0 1-.06.04c-.17.04-.35.04-.54 0a.09.09 0 0 1-.05-.04 61.19 61.19 0 0 0 .05-3.37c0-.16-.06-.4-.06-.54l.01-.01.02-.01ZM19.54 24.19a.1.1 0 0 1 .03-.07.1.1 0 0 1 .07-.03h.24c.02 0 .04 0 .06.02a.1.1 0 0 1 .03.07V24.51l.03.02h.03l.03-.01c.18-.2.43-.47.75-.52.03 0 .06 0 .09.02l.05.08c.04.11.04.25 0 .4v.03l-.03.02c-.2.01-.35-.13-.57.02-.27.18-.34.42-.35.76a14.76 14.76 0 0 0 .01 1.55l-.03.06a.16.16 0 0 1-.13.06h-.15a.16.16 0 0 1-.12-.06.18.18 0 0 1-.04-.13c.04-.87 0-1.74 0-2.62ZM14.93 26.6v-.02l-.02-.02a.04.04 0 0 0-.05 0l-.27.26c-.25.24-.71.2-.98.11a.85.85 0 0 1-.52-.49 1.66 1.66 0 0 1-.07-.69l.02-1.12a2.75 2.75 0 0 0-.04-.52c0-.02.02-.03.03-.05a.12.12 0 0 1 .1-.05l.21-.01a.13.13 0 0 1 .1.04.15.15 0 0 1 .04.12c-.04.93-.06 1.55-.04 1.85.02.35.2.58.54.67.33.1.72-.16.87-.44.06-.12.1-.32.1-.6a21.28 21.28 0 0 0-.02-1.56.1.1 0 0 1 .02-.04.1.1 0 0 1 .07-.03h.29a.1.1 0 0 1 .04.01c.02 0 .03.02.04.03a.13.13 0 0 1 .03.1c-.06.7-.08 1.4-.05 2.07 0 .2.05.4.04.6a.1.1 0 0 1-.02.05l-.03.03c-.27.12-.45.04-.43-.3Z" fill="#025299"/><path fill-rule="evenodd" d="M18.83 26.1a1.52 1.52 0 0 0-.3-1.65 1.46 1.46 0 0 0-2.41.46 1.52 1.52 0 0 0 .3 1.64 1.46 1.46 0 0 0 2.4-.46Zm-.46-1.11a.91.91 0 0 0-.9-.77c-.44 0-.8.32-.89.77a2.83 2.83 0 0 0 0 1.04c.09.44.45.76.9.76.44 0 .8-.32.89-.77a2.83 2.83 0 0 0 0-1.03ZM23.97 25.2c-.1-.72-.77-1.2-1.48-1.2s-1.38.5-1.47 1.22c-.09.75.12 1.39.85 1.7.2.09.36.08.55.08a9.4 9.4 0 0 1 .19 0c.19 0 .35 0 .54-.09.73-.32.93-.96.82-1.72Zm-2.4-.2a2.75 2.75 0 0 0 0 1.05.94.94 0 0 0 1.86 0 2.83 2.83 0 0 0 0-1.04.94.94 0 0 0-1.86-.01Z" fill="#025299"/><path d="M28.45 27.76a1.42 1.42 0 0 1-.93 1.31 1.48 1.48 0 0 1-1.9-.82 1.43 1.43 0 0 1 .83-1.87 1.48 1.48 0 0 1 1.9.82c.07.18.1.37.1.56Z" fill="#025299"/><path d="M26.94 28.92a1.2 1.2 0 1 0 .09-2.41 1.2 1.2 0 1 0-.09 2.41Z" fill="#DA5552"/><path d="M30.58 27.93c.33 0 .79-.07 1.1-.09.52-.03 1.49-.03 2.23-.06a528.44 528.44 0 0 1 12.1-.31h3.36c.53.01 1.04.03 1.54.08.05 0 .08.02.08.04a.1.1 0 0 1 0 .08.1.1 0 0 1-.08.05c-2.12.1-3.91.15-5.39.15-.48 0-.97.05-1.55.05a595.9 595.9 0 0 1-10.86.04c-.2 0-.4 0-.63-.02-.13 0-.33 0-.63.02a7.85 7.85 0 0 1-1.27-.02ZM23.07 27.9c.04.04.05.08.05.12a.04.04 0 0 1-.05.04 29.85 29.85 0 0 0-1.85.1 175.79 175.79 0 0 1-4.97.2 294.4 294.4 0 0 0-3.84.16c-1.18.03-2.32.09-3.5.08H6.09a7.92 7.92 0 0 1-1.07-.09.06.06 0 0 1 0-.1.26.26 0 0 1 .15-.04A160.46 160.46 0 0 1 15.52 28a505.6 505.6 0 0 0 2.5-.05c.37 0 .7 0 1.02-.03.34-.03.8 0 1.1-.03.22-.02.55.04.83 0l.33-.02a23.59 23.59 0 0 0 1.59-.01 8.1 8.1 0 0 1 .18.04Z" fill="#2985BA"/><path d="M32.45 30.38v.02l.02.02h.04c.19-.08.34-.26.51-.34.23-.1.47-.1.72-.02a.96.96 0 0 1 .66.76l-.01 2.07c0 .03-.01.06-.03.08a.1.1 0 0 1-.08.03h-.27a.11.11 0 0 1-.08-.04.12.12 0 0 1-.03-.1c.06-.45.08-1.04.07-1.66 0-.19-.04-.34-.09-.47-.14-.34-.44-.46-.78-.37-.46.12-.59.46-.6.91a12.78 12.78 0 0 0 .04 1.64l-.03.05a.11.11 0 0 1-.09.04h-.3a.11.11 0 0 1-.09-.04.12.12 0 0 1-.02-.1l.05-.49c.01-.45 0-1.56-.01-3.35 0-.16-.04-.32-.05-.44a.13.13 0 0 1 .03-.1.12.12 0 0 1 .1-.05h.28a.1.1 0 0 1 .08.04.12.12 0 0 1 .04.08l-.04 1.4v.02c-.03.14-.04.28-.04.4Z" fill="#025299"/><path d="M24.57 28.68a.86.86 0 0 0 .3-.09c.13-.07.25-.12.38-.15a.06.06 0 0 1 .07.03v.01a.04.04 0 0 1 0 .03h-.02a.53.53 0 0 0-.2.08c-.14.09-.34.2-.6.31a40.96 40.96 0 0 0-1.33.62c-.6.3-1.54.7-2.07.95a972.99 972.99 0 0 1-9.77 4.46A49.06 49.06 0 0 1 8.7 36a.07.07 0 0 1-.04-.03v-.06l.04-.04a85.13 85.13 0 0 1 4.48-2.09l2.63-1.17a1733.02 1733.02 0 0 0 8.72-3.9l.04-.02Z" fill="#2985BA"/><path fill-rule="evenodd" d="m29 32.94.04.02c.18.05.37.05.58.02a.06.06 0 0 0 .05-.06l-.08-1.87a.09.09 0 0 1 .09-.09c.63.03 1.17.01 1.74-.34.34-.22.53-.51.57-.88.08-.7-.3-1.13-.98-1.26a4.58 4.58 0 0 0-1.43 0l-.46-.03a.1.1 0 0 0-.1.06.41.41 0 0 0-.01.17 23 23 0 0 1 .07 2.32v.6a9.06 9.06 0 0 1-.07 1.34Zm.63-2.36c.02.03.04.05.07.06.05.02.1.04.14.04.85.09 1.65-.22 1.55-1.23a.79.79 0 0 0-.35-.6c-.26-.18-.82-.16-1.2-.14h-.07c-.07 0-.13.03-.16.09v1.7c0 .03 0 .06.02.08Z" fill="#025299"/><path d="M38.44 30.51v.02c.03.02.06.02.08 0 .24-.26.44-.5.78-.53a.1.1 0 0 1 .07.02c.03.02.04.05.05.07a1.14 1.14 0 0 1-.01.43.05.05 0 0 1-.04.02h-.02l-.3-.06a.1.1 0 0 0-.06 0 .78.78 0 0 0-.53.76c-.01.56-.04 1.1.03 1.62a.13.13 0 0 1-.03.1.12.12 0 0 1-.04.03.11.11 0 0 1-.05.01h-.24l-.06-.01a.13.13 0 0 1-.04-.04.14.14 0 0 1-.03-.1c.03-.16.05-.3.05-.48v-1.49c0-.24-.04-.46-.04-.69 0-.02 0-.05.02-.06a.08.08 0 0 1 .06-.03l.24-.02c.03 0 .05.01.06.03a.1.1 0 0 1 .03.05l.02.35ZM43.48 32.84c.03-.2.06-.38.07-.59V31.1a.9.9 0 0 0-.11-.52c-.28-.4-.74-.28-1.04-.01-.13.11-.17.34-.18.54a12.37 12.37 0 0 0 .01 1.8l-.02.04a.1.1 0 0 1-.04.03.1.1 0 0 1-.04.01h-.26a.1.1 0 0 1-.05 0 .1.1 0 0 1-.03-.04.13.13 0 0 1-.03-.1c.05-.45.07-1.01.05-1.68 0-.27-.03-.45-.1-.53-.16-.23-.3-.34-.58-.3-.4.04-.66.4-.66.85v.24a11.46 11.46 0 0 0 .04 1.47c0 .02-.02.03-.03.05a.12.12 0 0 1-.04.03.11.11 0 0 1-.05.01h-.27a.1.1 0 0 1-.05-.01.12.12 0 0 1-.04-.04.14.14 0 0 1-.02-.11c.04-.18.06-.35.06-.5v-1.5a5.2 5.2 0 0 0-.06-.72l.02-.01.03-.01.3-.02s.02 0 .03.02c.01 0 .02.01.02.03l.08.24.01.02.02.02a.05.05 0 0 0 .05-.01l.21-.19c.41-.35.97-.22 1.27.21.04.05.1.08.16.08l.03-.01.02-.02c.3-.41.68-.55 1.15-.4.5.16.62.64.59 1.17a19.49 19.49 0 0 0-.02 1.7.08.08 0 0 1-.05.04.77.77 0 0 1-.36.01.1.1 0 0 1-.07-.05.13.13 0 0 1-.02-.09Z" fill="#025299"/><path fill-rule="evenodd" d="M37.34 32.81a.06.06 0 0 0-.02-.03l-.1-.04c-.18-.08-.23-.2-.22-.42.02-.84 0-1.32 0-1.44v-.03a.7.7 0 0 0-.13-.41c-.32-.46-.93-.55-1.41-.32l-.03.02c-.17.08-.45.21-.4.42a.1.1 0 0 0 .08.07.1.1 0 0 0 .06 0c.02 0 .03-.02.04-.03a.88.88 0 0 1 .95-.28c.19.05.32.19.38.41.07.22.04.38-.09.49-.07.05-.2.1-.37.12-.33.04-.66.12-.94.31-.31.21-.46.67-.2.99.31.37.71.46 1.2.25l.04-.02.24-.2a.13.13 0 0 1 .2.04c.15.22.38.28.69.18l.02-.02a.06.06 0 0 0 .01-.06Zm-.79-.63.03-.66a.06.06 0 0 0-.02-.04.05.05 0 0 0-.04-.02c-.31.04-.8.13-1.05.34-.3.25-.23.76.14.9.33.12.8-.1.93-.44l.01-.08ZM46.78 32.81a.06.06 0 0 0-.02-.03l-.1-.04c-.18-.08-.26-.2-.25-.42l.04-1.47a.72.72 0 0 0-.15-.41c-.32-.46-.93-.55-1.4-.32l-.04.02c-.17.08-.45.21-.39.42l.03.05a.1.1 0 0 0 .05.02.1.1 0 0 0 .05 0c.02 0 .04-.02.05-.03a.88.88 0 0 1 .95-.28c.18.05.31.19.38.41.06.22.03.38-.1.49-.07.05-.19.1-.36.12-.33.04-.66.13-.94.31-.32.21-.47.67-.2.99.3.37.7.46 1.2.25l.03-.02.24-.2a.14.14 0 0 1 .1-.02.14.14 0 0 1 .1.06c.16.22.39.28.7.18l.02-.02a.06.06 0 0 0 0-.06Zm-.78-.63.01-.67a.06.06 0 0 0-.01-.04.05.05 0 0 0-.04-.01c-.31.03-.8.13-1.05.33-.3.26-.23.76.13.9.33.12.8-.1.93-.44l.01-.02.02-.05Z" fill="#025299"/></svg>