<!-- by TradeStack --><svg viewBox="0 0 56 56" xmlns="http://www.w3.org/2000/svg"><path fill="#F0F3FA" d="M0 0h56v56H0z"/><path fill-rule="evenodd" d="M11 19v7h1.55v-2.5H15V22h-2.45v-1.57H15V19h-4Zm6 2h-1.5v5H17v-2.57l.02.11c.45-.96.97-1.2 1.18-1.18V21c-.59 0-.98.38-1.2.75V21Zm3.38 5c.45 0 .87-.13 1.22-.35v.34H23V21h-1.4v.35a2.29 2.29 0 0 0-1.22-.35A2.44 2.44 0 0 0 18 23.5c0 1.38 1.07 2.5 2.38 2.5Zm0-1.24c.67 0 1.2-.56 1.2-1.26s-.53-1.26-1.2-1.26c-.66 0-1.2.56-1.2 1.26s.54 1.26 1.2 1.26ZM35 25.7c-.33.18-.71.29-1.12.29a2.44 2.44 0 0 1-2.38-2.5c0-1.38 1.07-2.5 2.38-2.5.4 0 .79.1 1.12.3V21h1.5v5H35v-.3Zm0-1.75c-.18.47-.61.8-1.12.8-.66 0-1.2-.56-1.2-1.26s.54-1.26 1.2-1.26c.51 0 .94.33 1.12.8v.92Zm-7.9 1.69c-.35.22-.77.35-1.22.35a2.44 2.44 0 0 1-2.38-2.5c0-1.38 1.07-2.5 2.38-2.5.45 0 .87.13 1.22.35V21h1.4v4.99c-.04 1.11-.91 2-1.98 2h-.44c-.49.05-1.6-.14-2.08-1.2l1.05-.67c.1.2.43.57 1.03.57.75 0 .96-.4 1.02-.79v-.25Zm-.02-2.15c0 .7-.53 1.26-1.2 1.26-.66 0-1.2-.56-1.2-1.26s.54-1.26 1.2-1.26c.67 0 1.2.56 1.2 1.26ZM30.5 21H29v5h1.5v-2.62c.45-.72.97-.95 1.22-.97V21c-.56 0-.96.32-1.22.66V21Zm6.5 0h1.5v.54c.3-.28.7-.54 1.18-.54.98 0 1.82.66 1.82 1.87V26H40v-2.91c-.02-.25-.14-.73-.8-.73-.3 0-.52.16-.7.38V26H37v-5Zm5.5 1.33v2.42c.04.41.52 1.25 1.58 1.25H45v-1.48h-.64a.37.37 0 0 1-.36-.37v-1.82h1v-1.35h-1V19.5l-1.5.67v.8H42v1.36h.5Zm-2.82 6.55c0 .48-.4.88-.89.88a.88.88 0 0 1-.88-.88.88.88 0 0 1 1.77 0ZM38 30h1.5v5H38v-5ZM8 28v7h1.5v-2.17h.87c1.18 0 2.13-1.06 2.13-2.37v-.1c0-1.3-.95-2.36-2.13-2.36H8Zm1.5 1.5h.72c.43 0 .78.45.78 1s-.35 1-.78 1H9.5v-2Zm31 4.25v-2.42H40v-1.35h.5v-.81l1.5-.67v1.48h1v1.35h-1v1.82c0 .2.04.37.23.37h.64V35h-.92a1.4 1.4 0 0 1-1.45-1.25ZM43 30h1.53l1 2.87.99-2.87H48l-1.8 5c-.57 1.6-1.9 2-2.5 2v-1.52c.65 0 1-.32 1.08-.48l.08-.22L43 30Zm-30 0h1.5v.68c.26-.35.67-.68 1.25-.68v1.39c-.25.01-.8.25-1.25.98V35H13v-5Zm5 5a2.5 2.5 0 1 1 0-5 2.5 2.5 0 0 1 0 5Zm0-1.24a1.26 1.26 0 1 1 0-2.52 1.26 1.26 0 0 1 0 2.52Zm8.4.8c.35.22.77.35 1.22.35 1.31 0 2.38-1.1 2.38-2.46A2.42 2.42 0 0 0 27.62 30c-.45 0-.87.13-1.22.35V30H25v7h1.4v-2.44Zm.02-2.1c0 .68.53 1.23 1.2 1.23.66 0 1.2-.55 1.2-1.24 0-.68-.54-1.23-1.2-1.23-.67 0-1.2.55-1.2 1.23ZM36.38 30H35v5h1.38v-2.42c.48-.9 1.1-1.17 1.37-1.2V30c-.68 0-1.13.45-1.37.85V30Zm-3.88 5a2.5 2.5 0 1 1 2.45-2H31.35a1.26 1.26 0 0 0 2.01.42l1.17.54A2.5 2.5 0 0 1 32.5 35Zm0-3.76c-.52 0-.96.31-1.16.76h2.32c-.2-.45-.64-.76-1.16-.76ZM22.57 30c1.12 0 1.59.55 1.68.83l-.83.75c-.14-.15-.5-.47-.78-.47-.37 0-.47.2-.47.47 0 .2.34.33.76.48l.49.19c.62.26 1.08.67 1.08 1.26 0 .58-.33 1.49-1.93 1.49-1.29 0-1.92-.6-2.07-.9l1.2-.74c.72.9 1.47.59 1.47.25 0-.28-.17-.35-.68-.55l-.32-.14c-.75-.32-1.33-.89-1.33-1.34 0-.58.33-1.58 1.73-1.58Z" fill="#072173"/></svg>