<!-- by TradeStack --><svg viewBox="0 0 56 56" xmlns="http://www.w3.org/2000/svg"><path fill="#023E84" d="M0 0h56v56H0z"/><path d="M14 24h3.5v.5H14V24Zm-1.74.5a2.77 2.77 0 0 0-1.76-.5c-.62 0-1.18.06-1.88.14l-.12.01v.35h3.76ZM8.5 25h4.2c.08.15.15.32.2.5H8.5V25Zm-1.02-.5.02-.5H4v.5h3.48ZM4 25h3.46l-.02.5H4V25Zm0 1v.5h1.5V26H4Zm4.5 0v.5h1.48V26H8.5Zm2.88 0c.08.14.12.3.12.5h1.53A7.28 7.28 0 0 0 13 26h-1.62ZM14 26v.5h1.5V26H14Zm4.32 0-.14.5h1.52c.06-.18.14-.35.23-.5h-1.61Zm3.2 0c.1.15.18.32.24.5h1.62a5.29 5.29 0 0 0-.12-.5h-1.73Zm1.56-.5h-4.56c.08-.18.18-.35.29-.5h4c.1.15.2.32.27.5Zm.92.5v.5h1.5V26H24Zm1.5-.5H24V25h1.5v.5Zm2 .5v.5H29V26h-1.5Zm1.5-.5h-1.5V25H29v.5Zm1 .5v.5h1.5V26H30Zm1.5-.5H30V25h4v.5h-2.5Zm3.5.5v.5h2.44l-.19-.5H35Zm2.06-.5H35V25h1.88l.18.5Zm.94.5v.5h1.5V26H38Zm1.5-.5H38V25h1.5v.5Zm.5 0h5V25h-5v.5Zm0-1h5V24h-5v.5Zm5.5.5v.5h1.53V25H45.5Zm1.53-.5H45.5V24h1.53v.5Zm1.2.5c-.09.15-.15.32-.2.5h3.56l.05-.5h-3.42Zm3.45-.5h-3.06c.32-.27.76-.43 1.36-.43.7 0 1.26.1 1.7.3v.13Zm-.16 1.5h-.34l.34.03V26Zm-1.98 0h-1.6a4.8 4.8 0 0 0-.02.5h1.63a.6.6 0 0 1-.05-.25c0-.1 0-.19.04-.25Zm.53 1h-2.13c.05.38.15.7.3 1h3.35a1.64 1.64 0 0 0-.42-.43c-.14-.1-.34-.2-.55-.3a6.34 6.34 0 0 1-.55-.27Zm1.76 1.5H48.6a3.05 3.05 0 0 0 1.3.79c.16.05.32.1.4.21H52a3.44 3.44 0 0 0-.17-1Zm.16 1.5h-1.63c-.04.13-.13.21-.32.21a8.7 8.7 0 0 1-1.7-.21h-.29a12.45 12.45 0 0 0-.13 1h3.84a3 3 0 0 0 .23-1Zm-.59 1.5h-3.52l-.01.15c.6.2 1.25.35 1.88.35.73 0 1.28-.15 1.65-.5Zm-4.37-.5v-1H45.5v1h1.53Zm-1.53.5h1.53v.5H45.5v-.5Zm-2.25-.5v-1h-1.5v1h1.5Zm-1.5.5h1.5v.5h-1.5v-.5ZM39.5 31v-1h-2.25l.38 1h1.87Zm-1.69.5h1.69v.5H38l-.19-.5ZM36.5 31v-1H35v1h1.5Zm-1.5.5h1.5v.5H35v-.5Zm-1-.5v-.5h-2.5V30H30v1h4Zm-4 .5h4v.57h-4v-.57Zm-1.4-.5c.16-.29.26-.62.32-1h-1.58c-.14.3-.39.5-.84.5-.4 0-.64-.2-.79-.5h-1.65c.07.38.17.72.34 1h4.2Zm-3.78.5h3.39c-.38.32-.92.5-1.71.5-.74 0-1.29-.18-1.68-.5Zm-1.95-.5c.16-.29.3-.62.4-1h-1.68c-.18.35-.45.6-.83.6-.37 0-.63-.25-.82-.6h-1.7c.1.37.25.7.45 1h4.18Zm-3.71.5h3.83l.78.8-.82 1.7-1.41-2.1c-.26.07-.5.1-.74.1a2.6 2.6 0 0 1-1.64-.5ZM17.5 31v-.5h-2V30H14v1h3.5Zm-3.5.5h3.5v.5H14v-.5Zm-.96-.5-.18-1h-1.61c.05.32.09.68.12 1h1.67Zm-1.63.5h1.72l.1.5h-1.77l-.05-.5ZM9.98 31v-1H8.5v1h1.48Zm-1.48.5h1.48v.5l-1.48-.01v-.49Zm-3-.5v-1H4v1h1.5Zm-1.5.5h1.5v.5H4v-.5Zm0-2h1.5V29h1.94v-.5H4v1ZM4 28h3.44v-.59H5.5V27H4v1Zm4.5-1v1h4.1c.21-.23.34-.57.4-1h-1.57c-.14.34-.47.43-1.04.43-.17 0-.35 0-.4-.02V27H8.5Zm5.5 0v1h3.5v-.5h-2V27H14Zm4.1 0a8.6 8.6 0 0 0-.08 1h1.48c0-.26.02-.63.08-1H18.1Zm3.8 0c.07.39.1.76.1 1h1.5c0-.36-.02-.69-.05-1H21.9Zm2.1 0v1h1.5v-1H24Zm3.5 0v1H29v-1h-1.5Zm2.5 0v1h4v-.5h-2.5V27H30Zm5 0v1h4.5v-1H38v1l-.38-1H35Zm6.75 0v1h1.5v-1h-1.5Zm3.75 0v1h1.53v-1H45.5Zm1.53-.5H45.5V26h1.53v.5Zm-3.78-.5v.5h-1.5V26h1.5Zm3.78 2.5H45.5v1h1.53v-1Zm-3.78 1v-1h-1.5v1h1.5Zm-3.75 0v-1h-2.81l.37 1h2.44Zm-3 0v-1H35v1h1.5Zm-5 0V29H34v-.5h-4v1h1.5Zm-2.53 0c.02-.3.03-.61.03-.94v-.06h-1.5v.5c0 .17 0 .34-.03.5h1.5Zm-3.41 0a5.34 5.34 0 0 1-.06-.91v-.09H24v.62l.01.38h1.55Zm-2.18 0c.05-.3.09-.64.1-1h-1.5c-.03.3-.09.66-.19 1h1.59Zm-3.65 0a5.7 5.7 0 0 1-.2-1h-1.5c.01.34.04.68.1 1h1.6Zm-4.23 0V29h2v-.5H14v1h1.5Zm-2.72 0-.02-.06c-.05-.28-.14-.5-.3-.68a.83.83 0 0 0-.3-.26H8.5v1h1.48V29l.84-.01c.14.05.24.24.31.51h1.64Zm26.72-5V24H38v.5h1.5Zm-2.81 0-.19-.5H35v.5h1.69Zm-2.69 0V24h-4v.5h4Zm-5 0V24h-1.5v.5H29Zm-3.5 0V24H24v.5h1.5Zm-3.14 0a2.4 2.4 0 0 0-1.55-.5c-.64 0-1.14.19-1.53.5h3.08Zm-4.86.5H14v.5h3.5V25Z" fill="#F0F3FA"/></svg>