<?xml version='1.0' encoding='utf-8'?>
<!-- by TradeStack -->
<svg width="56" height="56" viewBox="0 0 56 56" xmlns="http://www.w3.org/2000/svg"><path fill="#F0F3FA" d="M0 0h56v56H0z" /><path d="M5.49 26.78c0-2.58-.1-3.95-.22-4.9-.03-.3-.7-.35-1.22-.35-.12 0 0-.53 0-.53h2.17c-.03.64-.18 3.84-.18 6.1v1.28c0 2.06.21 5.49.33 6.62H4.3c-.1.03-.12-.38 0-.41.4-.03.94-.03 1-.38.16-.96.19-2.61.19-5.57v-1.86Zm1.95.75c0-3.22-.24-5.9-.3-6.53h6.46c.19 0 .25.15.25.32.06.44.15 1.34.15 1.69 0 .14-.37.14-.43 0-.24-1.28-.42-1.43-2.44-1.43H8.3c-.15 0-.2.06-.2.27l-.1 5.95 3.6-.06c.88-.03 1.46-.09 1.77-.09.18 0 0 .7-.24.7-.25 0-1.01-.09-2.54-.09H8v2.2c0 .76.12 3.14.21 3.66.03.26.67.35 1.62.44.15.03.12.44.03.44H7.23c.06-.9.21-3.78.21-6.01v-1.46ZM15.46 26.46c0-2.55-.08-3.69-.19-4.61-.03-.3-.62-.35-1.07-.35-.11 0-.08-.5 0-.5h1.96c-.06.7-.22 2.56-.22 5.34v2.21c0 2.64.16 5.67.24 6.45h-1.82c-.11 0-.11-.41 0-.44.45-.03.88-.06.94-.38.08-.93.16-2.99.16-4.93v-2.79Zm1.69-.14c0-2.47-.21-4.42-.27-5.32h2.28c2.23 0 3.44 1.37 3.44 3.6a3.9 3.9 0 0 1-2.66 3.78v.03c.57.23 1.05.75 1.35 1.42.45 1.13 1.15 3.98 2.14 5.17h-.64c-.24 0-.4-.18-.51-.38-.43-.64-1-3.46-1.48-4.59-.27-.52-.64-1.13-1.23-1.33-.2-.1-.43-.1-.8-.1h-1.14v1.75c0 2.26.08 3.4.22 3.83.05.26.5.32 1 .35.13.03.1.5 0 .47-.6-.03-1.27 0-1.97 0 .06-.81.3-3.52.3-5.87v-2.81h-.03Zm.48 1.53c0 .3.22.35 1.02.35 2.26 0 3.17-1.88 3.17-3.6 0-1.8-.8-3.16-2.68-3.16-.94 0-1.45.26-1.45.5l-.06 5.91Zm7.01-3.28c0 2.1-1.66 3.43-2.76 3.86v.03c.45.2.88.76 1.12 1.28.6 1.28 1.24 3.4 1.94 4.47.13.17.5.26.88.3.14.02.11.49 0 .49-.37-.03-.94 0-1.55 0-.62-.9-1.32-3.95-1.78-4.97a3 3 0 0 0-1.29-1.57v-.05c1.62-.7 2.66-1.95 2.66-3.8 0-1.69-.75-2.82-1.93-3.32-.1-.03.08-.11.19-.11 1.37.29 2.52 1.33 2.52 3.4ZM27.37 26.78c0-2.58-.09-3.95-.2-4.9-.03-.3-.67-.35-1.17-.35V21c.64.03 1.34 0 2.07 0-.03.64-.18 3.84-.18 5.95v1.63c0 1.89.2 5.32.33 6.42h-1.99c-.08.03-.11-.38 0-.41.38-.03.9-.03.97-.38.14-.96.17-2.61.17-5.57v-1.86ZM28.94 21c2.08.03 4.47.03 6.1 0 .17 0 .23.12.26.26.09.41.18 1.34.18 1.75 0 .14-.38.14-.41 0-.24-1.25-.44-1.43-2.33-1.43h-2.66c-.17 0-.23.06-.23.27l-.09 5.65 3.53-.05c.84-.03 1.17-.09 1.49-.09.17 0-.03.7-.24.7-.2 0-.5-.1-2.33-.1h-2.42v2.48c0 .78.12 3.13.2 3.62.03.3.1.38.38.38H33c2 0 2.21-.17 2.6-1.54.02-.17.4-.14.4 0a38.6 38.6 0 0 1-.23 1.83c-.03.15-.3.27-.3.27h-6.4a83.34 83.34 0 0 0-.13-14Z" fill="#2F4A59" /><path d="M36.12 21.85c-.03-.3-.62-.35-1.12-.35V21c.88.03 1.38 0 2.09 0-.09 1.1-.24 3.34-.24 5.87v2.09c0 2.06.24 5.26.3 6.04-.65-.03-1.36-.06-2.03 0v-.41c.5-.03 1.03-.06 1.06-.38.11-1.02.17-2.44.17-5.34 0-2.32.1-4.69-.23-7.02Zm2.06 5.13c0-2.17-.24-5.02-.3-5.98.7.03 1.33.06 2.1 0v.47c-.54.03-1.07.06-1.1.35-.09.58-.17 2.9-.17 4.93v2.2c0 1.92.08 4.39.23 5.2.03.35.56.35 1.06.38V35c-.77-.03-1.35 0-2.03 0 .06-.9.24-3.4.24-6.25v-1.77h-.03ZM44.88 27.22c0-2.21-.03-4.45-.09-5.37-.02-.24-.2-.3-.34-.3h-1.6c-1.86 0-2.27.35-2.44 1.54-.03.15-.41.15-.41 0 0-.29.06-1.33.15-1.74.02-.17.23-.35.23-.35 1.71.03 5.26 0 5.26 0-.1.7-.24 4.18-.24 6.33v1.34c0 2.2.2 5.55.3 6.33h-1.95v-.41c.5-.03.96-.06.99-.38.11-1.02.17-2.99.17-5.4v-1.6h-.03Zm1.86-.32c0-2.1-.2-5.2-.29-5.9h5.23c.12 0 .2.2.23.35.06.32.09 1.45.09 1.8 0 .12-.38.12-.4 0-.12-1.22-.59-1.6-2.42-1.6h-1.54c-.17 0-.32.06-.35.27-.05.7-.05 2.72-.05 4.96v2.15c0 2.09.08 4.38.23 5.22.03.35.55.35 1.04.38V35h-2c.09-.9.23-3.75.23-6.91v-1.2Z" fill="#2F4A59" /></svg>