<?xml version='1.0' encoding='utf-8'?>
<!-- by TradeStack -->
<svg width="56" height="56" viewBox="0 0 56 56" xmlns="http://www.w3.org/2000/svg"><path fill="#F0F3FA" d="M0 0h56v56H0z" /><path d="M9 28 28 9l19 19-19 19L9 28Z" fill="#EE3B33" /><path d="m27.82 9.18-18.6 18.6h4.34l14.26-14.26V9.18ZM9.12 28.12l18.7 18.7v-4.34L13.47 28.12H9.12Zm19.04 18.72 18.72-18.72h-4.35L28.16 42.5v4.34Zm18.62-19.06L28.16 9.16v4.34l14.28 14.28h4.34Z" fill="#0053A0" /><path d="M27.5 17.96a.36.36 0 0 1-.73-.04l.07-1.15a.36.36 0 1 1 .72.04l-.07 1.15Zm.46-.25a.14.14 0 0 1-.3 0l.02-.69a.14.14 0 0 1 .29 0l-.01.69Zm-2.88 1.25a.36.36 0 1 0 .69-.2l-.32-1.11a.36.36 0 0 0-.7.2l.33 1.1ZM22 20.46a.36.36 0 1 0 .56-.46l-.73-.9a.36.36 0 1 0-.56.45l.73.9Zm-.33.09a.14.14 0 0 1-.2-.03l-.4-.55a.14.14 0 0 1 .23-.17l.4.55c.05.06.04.15-.03.2Zm4.71-2.34-.62 1.74-1.71-1.56.18 2.07-1.4-.66.16 1.5-2.16-.35.62 1.92-1.39-.37.83 1-1.8-.14 1.2 1.16-1.6.72 1.21 1.05-2.25.71 1.78.82-1.27.63 1.27.4-1.61 2.09 2.02 1.34-.64 1.56 1.73-.17-.52 1.1 1.11-.5-.17 2.1 1.95-.58.17 1.14.95-.74 1.03 2.2 1.5-1.57.81 1.66.68-1.55.82.95.56-1.17L32 37.82l.77-2.24.97.37v-1l1.24.07.09-1.43 1.32.59-.76-1.35h1.9l-.96-1.55 1.22-.2-.76-.93 1.63-.82-1.39-.89 1.02-.38-1.02-.42 1.26-1.73-1.8-.98 1.26-1.43h-1.9l.76-1.6-1.45.52v-2.47l-2.04 1.08V19.4l-.98.65-1.18-2.01-1.21 1.46-.37-.76-.9.87-.36-1.57-.65 1.46-1.33-1.3Zm3.63.38c.2.01.37-.14.38-.34l.07-1.16a.36.36 0 1 0-.72-.04l-.07 1.16c0 .2.15.37.34.38Zm.7-.46c.08 0 .15-.06.15-.14l.01-.68a.14.14 0 1 0-.29 0v.68c-.01.08.05.14.13.14Zm3.54 1.65a.36.36 0 1 1-.5-.53l.85-.8a.36.36 0 0 1 .5.53l-.85.8Zm.51.13a.14.14 0 1 1-.2-.2l.47-.49a.14.14 0 0 1 .21.2l-.48.49Zm1.14 1.14c.14.14.36.15.5.01l.85-.8a.36.36 0 1 0-.5-.52l-.84.8a.36.36 0 0 0-.01.5Zm.82.15c.06.05.15.05.2 0l.48-.5a.14.14 0 0 0-.2-.2l-.48.5a.14.14 0 0 0 0 .2Zm1.59 3.46a.36.36 0 1 1-.04-.72l1.15-.06a.36.36 0 1 1 .04.72l-1.15.06Zm.3.44a.14.14 0 0 1-.02-.29l.67-.06a.14.14 0 1 1 .03.28l-.68.07Zm-.49 1.83c.01.2.18.35.38.34l1.16-.07a.36.36 0 0 0-.04-.72l-1.16.07a.36.36 0 0 0-.34.38Zm.53.64c.01.08.08.14.16.13l.68-.06a.14.14 0 0 0-.03-.3l-.68.07a.14.14 0 0 0-.13.16Zm-.76 4.34a.36.36 0 1 1 .34-.63l1.02.55a.36.36 0 0 1-.35.64l-1.01-.56Zm.03.53a.14.14 0 1 1 .12-.26l.61.3a.14.14 0 0 1-.13.26l-.6-.3Zm-1.5 3.83c.18-.09.26-.3.17-.48l-.53-1.03a.36.36 0 1 0-.64.32l.52 1.04c.1.17.3.24.49.15Zm.38-.74c.07-.04.1-.12.06-.2l-.33-.59a.14.14 0 0 0-.25.14l.33.6c.04.07.12.1.2.05Zm-2.83 2.04a.36.36 0 0 1-.64.32l-.52-1.03a.36.36 0 0 1 .64-.32l.52 1.03Zm.28-.46a.14.14 0 1 1-.26.14l-.33-.6a.14.14 0 0 1 .26-.13l.33.6Zm-3.56 2.05c.18-.09.25-.3.16-.48l-.52-1.03a.36.36 0 1 0-.64.32L30.2 39c.09.18.3.25.48.16Zm.38-.74c.07-.04.1-.13.06-.2l-.33-.59a.14.14 0 1 0-.26.14l.33.6c.04.06.13.09.2.05Zm-8.92-.4a.36.36 0 1 1-.52-.5l.8-.83a.36.36 0 0 1 .52.5l-.8.83Zm.52.1a.14.14 0 1 1-.22-.18l.45-.51a.14.14 0 1 1 .22.19l-.45.5Zm-5.2-4.99c.11.17.34.22.5.1l.97-.63a.36.36 0 1 0-.4-.6l-.96.64a.36.36 0 0 0-.1.5Zm.79.3c.04.06.13.08.2.03l.55-.4a.14.14 0 0 0-.17-.23l-.55.4a.14.14 0 0 0-.03.2Zm-1.3-3.98a.36.36 0 0 1 .01-.72h1.16a.36.36 0 1 1 0 .73l-1.16-.01Zm.29.45a.14.14 0 0 1-.01-.29l.68-.02a.14.14 0 0 1 0 .3l-.67.01Zm-.23-4.15c-.02.2.13.37.33.39l1.15.1a.36.36 0 1 0 .07-.71l-1.16-.1a.36.36 0 0 0-.39.32Zm.43.71c0 .08.06.15.14.15l.68.04a.14.14 0 0 0 .01-.3l-.68-.03a.14.14 0 0 0-.15.14Zm.5-2.47a.36.36 0 0 1 .44-.56l.9.72a.36.36 0 1 1-.45.56l-.9-.72Zm8.99 13.66c-.2-.01-.37.15-.38.34l-.03 1.16a.36.36 0 1 0 .72.03l.03-1.16c.01-.2-.15-.37-.34-.37Zm-.7.47a.14.14 0 0 0-.13.14v.68a.14.14 0 0 0 .29 0v-.68a.14.14 0 0 0-.15-.14Z" fill="#FFF200" /><circle cx="28" cy="28" r="7" fill="#F79239" /></svg>