<?xml version='1.0' encoding='utf-8'?>
<!-- by TradeStack -->
<svg width="56" height="56" viewBox="0 0 56 56" xmlns="http://www.w3.org/2000/svg"><path fill="#F0F3FA" d="M0 0h56v56H0z" /><path d="M28 42.52c0 .28-.23.48-.49.48h-2.95c-.5 0-.84-.14-1.02-.5L20.01 35v7.52c0 .28-.2.48-.47.48h-3.05a.47.47 0 0 1-.49-.48V29.48c0-.26.22-.48.49-.48H20c.27 0 .5.08.66.4L24 36v-6.52c0-.26.22-.48.47-.48h3.04a.5.5 0 0 1 .49.48v13.04ZM29.47 32c-.26 0-.47-.22-.47-.5v-2c0-.28.2-.5.47-.5h11.06c.26 0 .47.22.47.5v2c0 .28-.2.5-.47.5H37v10.5c0 .28-.2.5-.47.5h-3.06c-.26 0-.47-.22-.47-.5V32h-3.53ZM20 27.46c0 .28-.2.54-.48.54h-2.99a.56.56 0 0 1-.53-.54V14.44c0-.26.26-.44.53-.44h11c.28 0 .47.18.47.46v2c0 .28-.2.54-.47.54H20v3h5.56c.28 0 .44.17.44.45v1.98c0 .28-.16.57-.44.57H20v4.46ZM29.47 28a.46.46 0 0 1-.47-.48V14.48c0-.22.15-.48.47-.48h6.42c2.82 0 4.11 2.1 4.11 4.36 0 1.26-.18 2.7-1.72 3.58l2.63 5.38c.05.1.09.22.09.32 0 .2-.13.36-.4.36H37.8c-.42 0-.57-.08-.75-.52L35.18 23H33v4.5c0 .28-.2.5-.47.5h-3.06ZM33 17v3h1.44c.85 0 1.56-.68 1.56-1.62 0-.94-.71-1.38-1.52-1.38H33Z" fill="#23262F" /></svg>