<?xml version='1.0' encoding='utf-8'?>
<!-- by TradeStack -->
<svg width="56" height="56" viewBox="0 0 56 56" xmlns="http://www.w3.org/2000/svg"><path fill="#181B1E" d="M0 0h56v56H0z" /><path fill-rule="evenodd" d="M28 45a17 17 0 1 0 0-34 17 17 0 0 0 0 34Zm0-1a16 16 0 1 0 0-32 16 16 0 0 0 0 32Zm6.6-22.85c.22-.21.57-.2.77.03l.5.54c.18.21.17.53-.02.73l-.26.26 1.01 1.03L38 28l-5.03-1.99-.3-.3-3.72 3.82 5.9 5.7c.2.2.2.53 0 .73l-.9.9a.5.5 0 0 1-.71-.02l-5.7-5.86-5.7 5.86a.53.53 0 0 1-.75 0l-.93-.91a.53.53 0 0 1 0-.76l5.9-5.72-3.57-3.66-2.33 3a.52.52 0 0 1-.73.1l-2.23-1.72a.52.52 0 0 1-.1-.71l2.89-4.14 4.37-3.22a.52.52 0 0 1 .71.1l1.82 2.27c.18.23.14.56-.1.73l-3.02 2.33 3.69 3.56 3.84-3.73-2.14-2.1a.55.55 0 0 1-.01-.75l2.2-2.34c.2-.22.54-.23.75-.01l2.23 2.26.28-.27Z" fill="#fff" /></svg>