<?xml version='1.0' encoding='utf-8'?>
<!-- by TradeStack -->
<svg width="56" height="56" viewBox="0 0 56 56" xmlns="http://www.w3.org/2000/svg"><path fill="#F0F3FA" d="M0 0h56v56H0z" /><path fill-rule="evenodd" d="M40.9 19H39v8h1.5v-5.5h.07l2.37 5.48h1.12l2.37-5.48h.07V27H48v-8h-1.9l-2.55 5.8h-.1L40.9 19ZM9 29h1.8l2.4 5.8h.1l2.4-5.8h1.8v8H16v-5.46l-2.22 5.44h-1.06l-2.22-5.45V37H9v-8Zm16.5 6.16c.34-.6.5-1.32.5-2.16 0-.84-.16-1.56-.5-2.15a3.4 3.4 0 0 0-1.33-1.37 3.84 3.84 0 0 0-1.92-.48c-.71 0-1.35.16-1.92.48-.56.31-1.01.77-1.34 1.37-.33.6-.49 1.31-.49 2.15 0 .84.16 1.55.49 2.15.33.6.78 1.06 1.34 1.37.57.32 1.2.48 1.92.48.71 0 1.35-.16 1.92-.48a3.4 3.4 0 0 0 1.34-1.36Zm-1.28-3.65c.2.4.3.9.3 1.49 0 .6-.1 1.09-.3 1.5-.19.4-.45.71-.8.92-.33.21-.73.31-1.17.31-.44 0-.84-.1-1.18-.3-.34-.22-.6-.53-.8-.93-.19-.41-.28-.9-.28-1.5s.1-1.09.28-1.5c.2-.4.46-.71.8-.92.34-.2.74-.31 1.18-.31.44 0 .84.1 1.18.31.34.21.6.52.8.93ZM30.26 37H27v-8h3.08c.58 0 1.06.1 1.45.27.38.18.67.43.87.74.19.31.29.67.29 1.06 0 .33-.07.6-.2.84-.12.23-.29.42-.5.56-.21.14-.45.24-.71.3v.09a1.82 1.82 0 0 1 1.47.93c.17.28.25.62.25 1.03 0 .41-.1.79-.3 1.12-.2.33-.5.58-.91.77-.4.2-.92.29-1.53.29Zm-1.8-1.21h1.56c.53 0 .91-.1 1.15-.3.23-.2.35-.47.35-.78a1.2 1.2 0 0 0-.68-1.1 1.68 1.68 0 0 0-.78-.16h-1.6v2.34Zm0-3.39h1.44c.25 0 .48-.04.68-.13.2-.1.36-.23.47-.4.12-.17.18-.37.18-.6a.99.99 0 0 0-.33-.77c-.22-.2-.54-.3-.97-.3h-1.47v2.2ZM34.5 37H36v-8h-1.5v8Zm8 0h-5v-8H39v6.79h3.5V37Zm5.5 0h-5v-8h4.97v1.21h-3.59v2.18h3.33v1.21h-3.33v2.19H48V37ZM36 19h1.5v5.15c0 .56-.14 1.06-.4 1.49-.28.43-.65.76-1.14 1-.49.24-1.06.36-1.71.36-.65 0-1.23-.12-1.71-.36a2.73 2.73 0 0 1-1.14-1c-.27-.43-.4-.93-.4-1.5V19h1.45v5.03c0 .33.07.62.22.88.15.25.36.45.63.6a2 2 0 0 0 .95.22 2 2 0 0 0 .95-.22c.28-.15.48-.35.63-.6.15-.26.17-.55.17-.88V19Zm-12.44.11v8.03H25V24.2h1.47l1.56 2.94h1.61l-1.72-3.18.15-.06c.42-.21.74-.5.95-.88.22-.38.33-.83.33-1.34 0-.51-.1-.96-.32-1.35a2.19 2.19 0 0 0-.95-.9 3.33 3.33 0 0 0-1.53-.32h-2.99ZM25 22.99h1.33c.36 0 .65-.05.88-.15.23-.1.4-.25.5-.44.12-.2.17-.44.17-.72 0-.29-.05-.53-.16-.73-.12-.2-.29-.36-.51-.46-.23-.11-.53-.16-.89-.16H25v2.66Zm-2.5.01a4.4 4.4 0 0 1-.5 2.16 3.4 3.4 0 0 1-1.33 1.36c-.57.32-1.2.48-1.92.48-.71 0-1.35-.16-1.92-.48a3.47 3.47 0 0 1-1.34-1.37A4.43 4.43 0 0 1 15 23c0-.84.16-1.56.49-2.15.33-.6.78-1.06 1.34-1.37.57-.32 1.2-.48 1.92-.48.71 0 1.35.16 1.92.48A3.4 3.4 0 0 1 22 20.85c.33.6.49 1.31.49 2.15Zm-1.49 0c0-.6-.1-1.09-.29-1.5a2.08 2.08 0 0 0-1.97-1.23c-.44 0-.84.1-1.18.31-.34.21-.6.52-.8.93-.19.4-.28.9-.28 1.49 0 .6.1 1.09.28 1.5.2.4.46.71.8.92.34.21.74.31 1.18.31.44 0 .84-.1 1.18-.3.34-.22.6-.53.8-.93.19-.41.28-.9.28-1.5ZM9 19v8h1.41v-3.4h3.25V22.4H10.4V20.2H14V19H9Z" /></svg>