<?xml version='1.0' encoding='utf-8'?>
<!-- by TradeStack -->
<svg width="56" height="56" viewBox="0 0 56 56" xmlns="http://www.w3.org/2000/svg"><path fill="#F0F3FA" d="M0 0h56v56H0z" /><path d="M18 20v3h-7v4h7v3h-7v6H8V20h10Z" fill="url(#ab41q2xuy)" /><path d="M20 20h7a5 5 0 0 1 .38 9.99L32 36h-2.63L24 29v-1h2a3 3 0 1 0 0-6h-3v14h-3V20Z" fill="url(#bb41q2xuy)" /><path d="M42.63 36A8.07 8.07 0 0 0 49 28.08 8.04 8.04 0 0 0 41 20a8.04 8.04 0 0 0-8 8.43 7.59 7.59 0 0 1 7.55-7.4 7.59 7.59 0 0 1 7.55 7.64A7.62 7.62 0 0 1 42.63 36Z" fill="url(#cb41q2xuy)" /><path d="M35.87 20h-2.73l4.71 6.78 2.02-1.03-4-5.75Zm6.48 9.32-2.02 1.03L44.27 36H47l-4.65-6.68Z" fill="url(#db41q2xuy)" /><path d="M40.24 24.65c4.02-1.35 5.9-2.93 6.32-3.55-.45 1.76-1.62 3.7-7.16 6.65-5.55 2.95-4.86 5.72-4.86 6.64-.35-1.2-.52-2.25-.54-3.17-.06-3.54 2.26-5.24 6.24-6.57Z" fill="#08A408" /><path d="M44.47 28.2c2.58-1.81 2.7-5.55 2.43-7.2-1.7 5-6.94 6.25-9.83 8.52A5.85 5.85 0 0 0 34.84 35c.11-.62.7-2.13 2.11-3.2 1.77-1.33 4.29-1.33 7.52-3.6Z" fill="#08A408" /><defs><linearGradient id="ab41q2xuy" x1="8" y1="24.43" x2="17.6" y2="24.43" gradientUnits="userSpaceOnUse"><stop stop-color="#302929" /><stop offset="1" stop-color="#5D5C5C" /></linearGradient><linearGradient id="bb41q2xuy" x1="19.99" y1="24.43" x2="32" y2="24.43" gradientUnits="userSpaceOnUse"><stop stop-color="#302929" /><stop offset="1" stop-color="#5D5C5C" /></linearGradient><linearGradient id="cb41q2xuy" x1="46.66" y1="22.5" x2="35.02" y2="34.24" gradientUnits="userSpaceOnUse"><stop stop-color="#FA6217" /><stop offset=".3" stop-color="#F74711" /><stop offset=".63" stop-color="#FE831F" /><stop offset="1" stop-color="#F64210" /></linearGradient><linearGradient id="db41q2xuy" x1="40.07" y1="20" x2="40.07" y2="36" gradientUnits="userSpaceOnUse"><stop stop-color="#302929" /><stop offset="1" stop-color="#5D5C5C" /></linearGradient></defs></svg>