<?xml version='1.0' encoding='utf-8'?>
<!-- by TradeStack -->
<svg width="56" height="56" viewBox="0 0 56 56" xmlns="http://www.w3.org/2000/svg"><path fill="#F0F3FA" d="M0 0h56v56H0z" /><path d="M30 28h1.7l2.3 5.5 2.3-5.5H38v8h-1.5v-5l-2 5h-1l-2-5.01V36H30v-8ZM22.5 18v8H21v-8h1.5ZM22.5 28v8H21v-8h1.5ZM40.5 28v8H39v-8h1.5ZM15 26v-8h5v1.5h-3.5v1.89H19V23h-2.5v3H15Z" /><path fill-rule="evenodd" d="M24 18v8h1.5v-2.5h1.57L28.5 26H30l-1.6-2.8a2.77 2.77 0 0 0 1.6-2.55c0-1.68-1.32-2.65-2.9-2.65H24Zm1.5 4h1.37c.9 0 1.63-.4 1.63-1.35 0-.95-.74-1.15-1.64-1.15H25.5V22Z" /><path d="M12.5 30.24c-.08-.74-.77-1.05-1.44-1.05-.63 0-1.55.28-1.56 1.02 0 .5.56.77 1 .93.15.05.3.1.47.14l.73.18c1.14.26 2.3.93 2.3 2.24 0 1.62-1.55 2.3-2.97 2.3-1.81 0-2.97-.86-3.03-2.41h1.5c.06.85.75 1.2 1.52 1.2.68 0 1.47-.3 1.48-1.1 0-.71-.76-.94-1.32-1.08l-.89-.23C9.24 32.11 8 31.5 8 30.3 8 28.76 9.72 28 11.08 28c1.34 0 2.79.75 2.81 2.24H12.5ZM35.5 20.24c-.08-.74-.77-1.05-1.44-1.05-.63 0-1.55.28-1.56 1.02 0 .5.56.77 1 .93.15.05.3.1.47.14l.73.18c1.14.26 2.3.93 2.3 2.24 0 1.62-1.55 2.3-2.97 2.3-1.81 0-2.97-.86-3.03-2.41h1.5c.06.85.75 1.2 1.52 1.2.68 0 1.47-.3 1.48-1.1 0-.71-.76-.94-1.32-1.08l-.89-.23C32.24 22.11 31 21.5 31 20.3c0-1.53 1.72-2.29 3.08-2.29 1.34 0 2.79.75 2.81 2.24H35.5ZM27.5 30.24c-.08-.74-.77-1.05-1.44-1.05-.63 0-1.55.28-1.56 1.02 0 .5.56.77 1 .93.15.05.3.1.47.14l.73.18c1.14.26 2.3.93 2.3 2.24 0 1.62-1.55 2.3-2.97 2.3-1.81 0-2.97-.86-3.03-2.41h1.5c.06.85.75 1.2 1.52 1.2.68 0 1.47-.3 1.48-1.1 0-.71-.76-.94-1.32-1.08l-.89-.23C24.24 32.11 23 31.5 23 30.3c0-1.53 1.71-2.29 3.08-2.29 1.34 0 2.79.75 2.81 2.24H27.5ZM38 19.5V18h5.5v1.5h-2V26H40v-6.5h-2ZM15 36v-8h5v1.5h-3.5v1.89H19v1.21h-2.5v1.9H20V36h-5ZM48 30.73h-1.45c-.17-.93-.98-1.23-1.89-1.23-1.52 0-2.16 1.14-2.16 2.5 0 1.37.63 2.5 2.16 2.5.89 0 1.71-.28 1.89-1.2l1.45.02c-.24 1.66-1.74 2.68-3.36 2.68-2.27 0-3.64-1.84-3.64-4 0-2.15 1.37-4 3.64-4 1.67 0 3.13 1.02 3.36 2.73Z" /></svg>