<?xml version='1.0' encoding='utf-8'?>
<!-- by TradeStack -->
<svg width="56" height="56" viewBox="0 0 56 56" xmlns="http://www.w3.org/2000/svg"><path fill="#F0F3FA" d="M0 0h56v56H0z" /><path d="M9.13 24.62c.03-.06.02-.08-.05-.05-1.11.42-2.23.8-3.35 1.1-.08.02-.1-.01-.09-.1l.57-1.9c0-.03.01-.05.03-.06a27.27 27.27 0 0 0 8.54-3.4c.22-.14.4-.2.55-.2.3-.01.58 0 .82.03.06.01.08.04.05.1L9.5 33.86a.25.25 0 0 1-.1.1.23.23 0 0 1-.12.04H4.04a.04.04 0 0 1-.03-.02.04.04 0 0 1 0-.04l5.12-9.32ZM28.16 24.22c0-.09-.03-.1-.1-.03a5 5 0 0 0-1.1 2.13.05.05 0 0 0 .03.02h1.1c.1 0 .11.04.07.12l-.25.44a.24.24 0 0 1-.22.13H26.75a7.36 7.36 0 0 1-4.05 6.33c-.63.35-1.86.6-2.32-.14-.18-.3-.13-.57.16-.82.33-.29.75-.38 1.25-.28.34.07.54.27.6.6.02.1.06.12.12.02.27-.41.47-.9.59-1.45a43.46 43.46 0 0 1 1.15-4.25.03.03 0 0 0-.03-.01h-1.04c-.04 0-.05-.02-.03-.06l.31-.54a.13.13 0 0 1 .12-.07h.96a.1.1 0 0 0 .08-.05c.15-.22.32-.46.52-.7a6.87 6.87 0 0 1 2.42-1.94c.62-.3 1.72-.6 2.32-.15.19.14.3.32.33.56.17 1.08-2.02 1.2-2.05.14ZM19.61 27.28h-.49c-.09 0-.1-.04-.07-.11l.12-.2c.05-.1.13-.15.24-.17.96-.19 1.63-1 1.95-1.9.03-.09.09-.1.16-.06l.08.04c.08.05.1.11.08.2l-.49 1.6c-.01.04 0 .06.06.06h.68c.06 0 .07.03.04.08l-.2.36a.2.2 0 0 1-.18.1h-.5a.08.08 0 0 0-.07.06 97.1 97.1 0 0 0-.79 2.67.94.94 0 0 0-.02.4.13.13 0 0 0 .06.08.13.13 0 0 0 .1.02c.34-.1.61-.61.75-.93.04-.07.09-.09.16-.05l.1.06a.12.12 0 0 1 .05.15c-.31.78-.88 1.57-1.77 1.37-1.49-.34-.33-2.93 0-3.75.02-.05 0-.08-.05-.08ZM43.15 26.57a.04.04 0 0 0 .02.04.04.04 0 0 0 .04 0l.35-.2c.8-.4 1.44.4.98 1.13-.18.27-.44.38-.78.3a.41.41 0 0 1-.3-.21.89.89 0 0 1-.08-.53.06.06 0 0 0-.09-.05c-.23.17-.41.37-.53.62l-.25.76c-.3.92-.5 1.58-.62 1.99-.01.03-.03.05-.07.05h-1.26a.02.02 0 0 1-.02-.03l.97-3.16a.46.46 0 0 0 .01-.24.13.13 0 0 0-.06-.09.48.48 0 0 0-.3-.06.06.06 0 0 1-.07-.05v-.03l.14-.27c.03-.06.08-.09.15-.08a4.9 4.9 0 0 0 1.72-.18c.03 0 .05 0 .05.04v.25ZM14.28 30.25a.85.85 0 0 0-.8-.2c-.38.1-.62.36-.7.79-.08.35.03.71.31 1.08.6.76 1.66.83 2.58.6.67-.17 1.57-.84 1.08-1.62-.06-.08-.2-.21-.45-.37-.72-.49-1.6-.92-2.22-1.6-.3-.32-.4-.7-.3-1.14.2-.98 1.24-1.47 2.2-1.48.7-.01 1.5.12 2.05.55.35.27.5.7.22 1.07-.31.4-.92.44-1.33.21a.61.61 0 0 1-.32-.64c.01-.1.09-.22.11-.31 0-.04 0-.07-.05-.07a2.22 2.22 0 0 0-.84.04.66.66 0 0 0-.38.27c-.26.4.3.75.62.89.6.26.98.42 1.12.5 1.09.59 1.47 1.49 1.13 2.7-.3 1.12-1.27 1.8-2.36 2.08-1.3.32-2.84.17-3.81-.82a2.08 2.08 0 0 1-.59-1.27c-.1-.95.3-1.6 1.18-1.96.98-.39 1.9.06 2.5.88.22.32.34.8.03 1.1-.74.72-2.06-.64-1-1.2.05-.03.05-.05.02-.08Z" fill="#A41E37" /><path fill-rule="evenodd" d="M28.85 29.7c-.11-.29-.11-.64.01-1.04.01-.04.04-.06.07-.06.87.07 1.95-.03 2.45-.75.13-.2.18-.43.14-.7-.08-.5-.38-.79-.91-.86a2.62 2.62 0 0 0-2.77 1.27c-.49.77-.7 1.9.11 2.5a2 2 0 0 0 1.22.4 2.4 2.4 0 0 0 1.95-.92.09.09 0 0 0-.04-.1l-.32-.19c-.04-.02-.08-.01-.1.02-.32.36-.72.6-1.2.7-.32.06-.53-.03-.61-.26Zm1.34-2.95c-.63-.37-1.1.98-1.2 1.37-.01.04 0 .06.04.06.41-.01.75-.14 1.03-.39.24-.22.51-.82.13-1.04ZM34.54 29.67a.03.03 0 0 0 0-.02l-.02-.01a.03.03 0 0 0-.03 0l-.01.01c-.42.57-.96.84-1.64.81-.92-.04-1.22-1.1-1.13-1.9.1-.89.5-1.57 1.2-2.04.34-.24.68-.36 1.02-.38.41-.02.78.08 1.12.31.03.03.05.02.06-.02l.55-1.8a.15.15 0 0 0-.06-.16.58.58 0 0 0-.27-.1c-.1-.01-.12-.06-.07-.14l.1-.2c.03-.06.09-.09.16-.07.57.1 1.08.03 1.55-.23a.18.18 0 0 1 .11-.02c.14.02.19.1.15.23-.56 1.93-1.09 3.74-1.6 5.43a.98.98 0 0 0 0 .35.14.14 0 0 0 .05.1.14.14 0 0 0 .1.02.4.4 0 0 0 .21-.12c.36-.36.56-.78.6-1.25.02-.18.12-.44.32-.79a2.66 2.66 0 0 1 2.66-1.42c.56.03 1.06.37 1.09.98.04 1.09-1.23 1.36-2.13 1.38l-.49-.01c-.04 0-.06.01-.07.05-.1.4-.09.76.01 1.09.03.08.1.15.22.2.12.06.3.05.54-.02.42-.13.76-.34 1.01-.63.05-.06.11-.07.18-.03l.26.16c.08.04.09.1.03.16-.51.59-1.16.88-1.95.87a1.8 1.8 0 0 1-1.63-.92c-.02-.04-.05-.04-.07 0-.32.63-.92 1.1-1.63.81-.28-.11-.45-.34-.5-.68Zm.07-2.93c.2.09.3.26.28.5a4.06 4.06 0 0 1-.85 2.33c-.27.34-.54.46-.8.34-.28-.12-.38-.4-.31-.82.13-.83.5-1.56 1.11-2.2.18-.2.37-.24.57-.15Zm4.9.08c-.29-.3-.64-.05-.82.23a3.66 3.66 0 0 0-.47 1.12.03.03 0 0 0 .02.01c.42 0 .79-.15 1.1-.43.18-.17.4-.7.17-.93Z" fill="#A41E37" /><path d="M46.56 30.13c.18-.13.33-.28.46-.46.04-.05.06-.05.07.02.1.84 1.1.94 1.63.4l.23-.24c.03-.03.06-.03.07.01.2.38.53.58 1 .6.77.04 1.26-.67 1.5-1.3.03-.07.01-.11-.05-.14l-.1-.05c-.06-.03-.1-.02-.14.05-.16.31-.34.68-.66.85a.14.14 0 0 1-.2-.1.7.7 0 0 1 .02-.37l1.6-5.48c.02-.07 0-.12-.07-.15-.1-.03-.15-.05-.26.01-.45.28-1.02.3-1.52.22-.06-.01-.1 0-.14.06l-.11.23a.07.07 0 0 0 0 .07.08.08 0 0 0 .06.04c.28.02.4.1.35.26A363.4 363.4 0 0 1 49 29c-.08.27-.3.7-.6.83a.15.15 0 0 1-.2-.14c0-.17.04-.38.11-.64a298.18 298.18 0 0 0 .78-2.78.05.05 0 0 0-.04-.02h-1.31c-.03 0-.05.01-.06.04l-.05.15c-.01.03-.03.04-.06.02-.58-.39-1.15-.43-1.72-.14a2.8 2.8 0 0 0-1.33 3.38c.33.93 1.34.94 2.04.43Zm-.73-.17c-.37-.15-.36-1 0-1.89.36-.89.95-1.49 1.31-1.34.37.15.37.99 0 1.88-.36.9-.95 1.5-1.31 1.35Z" fill="#A41E37" /><path fill="#5C5C5C" d="M27 32h23v1H27z" /></svg>