<!-- by TradeStack --><svg width="56" height="56" viewBox="0 0 56 56" xmlns="http://www.w3.org/2000/svg"><path fill="#002B5C" d="M0 0h56v56H0z"/><path d="M9 31.75a24.99 24.99 0 0 1 19-8.5 25 25 0 0 1 19 8.5A20.7 20.7 0 0 0 28 19 20.7 20.7 0 0 0 9 31.75Z" fill="#FAD902"/><path d="M13.22 33.87A24.2 24.2 0 0 1 28 28.57a24.2 24.2 0 0 1 14.77 5.3A18.06 18.06 0 0 0 28 26.45c-6.17 0-11.6 2.95-14.78 7.43Z" fill="#FAD902"/><path d="M18.5 36c2.77-1.62 6.02-2.13 9.5-2.13 3.47 0 6.72.51 9.5 2.13a12.61 12.61 0 0 0-9.5-4.25A12.6 12.6 0 0 0 18.5 36Z" fill="#FAD902"/></svg>