<?xml version='1.0' encoding='utf-8'?>
<!-- by TradeStack -->
<svg width="56" height="56" viewBox="0 0 56 56" xmlns="http://www.w3.org/2000/svg"><path fill="#F0F3FA" d="M0 0h56v56H0z" /><path d="M39 29v6h-1v-6h1ZM13 29v6h-1v-6h1ZM10 21v6H9v-6h1ZM4 27v-6h4v1H5v1.5h2.5v1H5V27H4ZM7 35v-6h4v1H8v1.5h2.5v1H8V35H7ZM11 27v-6h1.96c1.14 0 2.04.8 2.04 1.92 0 1.15-.84 2.08-2.05 2.08h-1.4v-1h1.27c.63 0 1.18-.45 1.18-1.08 0-.64-.55-.92-1.18-.92H12v5h-1Zm2.7-2.72L15 27h-1.06l-1.27-2.72h1.03ZM19.02 22.68c-.05-.5-.42-.68-.98-.68-.46 0-.94.14-.95.65 0 .36.26.58.57.7.1.04.21.08.32.1l.49.14c.2.06.38.12.57.21.59.28.96.81.96 1.47 0 1.13-.93 1.73-1.98 1.73-1.11 0-1.98-.65-2.02-1.81h.93c.04.6.52.81 1.09.81.5 0 1-.17 1-.73 0-.5-.49-.7-.9-.81l-.6-.17c-.76-.22-1.38-.72-1.38-1.57 0-1.06.9-1.72 1.91-1.72.99 0 1.86.65 1.88 1.68h-.91ZM31.02 22.68c-.05-.5-.42-.68-.98-.68-.46 0-.94.14-.95.65 0 .36.26.58.57.7.1.04.21.08.32.1l.49.14c.2.06.38.12.57.21.59.28.96.81.96 1.47 0 1.13-.93 1.73-1.98 1.73-1.11 0-1.98-.65-2.02-1.81h.93c.04.6.52.81 1.09.81.5 0 1-.17 1-.73 0-.5-.49-.7-.9-.81l-.6-.17c-.76-.22-1.38-.72-1.38-1.57 0-1.06.9-1.72 1.91-1.72.99 0 1.86.65 1.88 1.68h-.91ZM20 22v-1h5v1h-2v5h-1v-5h-2ZM32 22v-1h5v1h-2v5h-1v-5h-2ZM42 22v-1h5v1h-2v5h-1v-5h-2ZM37.98 27H37l1.9-6h1.2l1.9 6h-.9l-1.6-5-1.52 5Zm.1-2h2.84v1h-2.84v-1ZM40.98 35H40l1.9-6h1.2l1.9 6h-.9l-1.6-5-1.52 5Zm.1-2h2.84v1h-2.84v-1ZM20.98 35H20l1.9-6h1.2l1.9 6h-.9l-1.6-5-1.52 5Zm.1-2h2.84v1h-2.84v-1ZM48 27v-6h4v1h-3v1.5h2.5v1H49V26h3v1h-4ZM19 29v6h-.98l-3.03-4.26V35H14v-6h.99l3.03 4.28V29H19ZM31 29v6h-.98l-3.03-4.26V35H26v-6h.99l3.03 4.28V29H31ZM37 31h-1c-.11-.67-.71-1-1.38-1C33.5 30 33 31.02 33 32s.49 2 1.61 2c.66 0 1.27-.34 1.39-1h1c-.17 1.2-1.2 2-2.4 2-1.68 0-2.6-1.45-2.6-3s.92-3 2.6-3c1.23 0 2.24.76 2.4 2ZM46 35v-6h1v5h2v1h-3Z" /></svg>