<?xml version='1.0' encoding='utf-8'?>
<!-- by TradeStack -->
<svg width="56" height="56" viewBox="0 0 56 56" xmlns="http://www.w3.org/2000/svg"><path fill="#F0F3FA" d="M0 0h56v56H0z" /><path d="m38.85 35-9.01-9.72a.08.08 0 0 0-.12 0l-5.3 5.18c-.04.05-.09.05-.13 0l-5.96-6.31 10.7-11.1c.06-.07.12-.07.19 0L50 35H38.85Z" fill="#005582" /><path d="m18.32 24.15 5.97 6.3c.04.06.09.06.13 0l5.3-5.17a.08.08 0 0 1 .12 0L38.87 35c-.21.49-.55.65-.93 1a.43.43 0 0 0-.1-.17c-2.97-3.14-5.92-6.25-8.86-9.32-.09-.1-.17-.1-.26 0l-5.13 5.34a596.07 596.07 0 0 1-6.7-7.03.56.56 0 0 1-.07-.15l1.5-.52Z" fill="#F6B80F" /><path d="m16.82 24.67.07.15c2.22 2.36 4.45 4.7 6.7 7.03L27.5 36h-5.37a142.8 142.8 0 0 0-5.36-5.73c-.05-.05-.1-.05-.14 0l-2.52 2.47c-.05.05-.05.1 0 .16l2.95 3.1H6l10.82-11.33Z" fill="url(#acft2zaui)" /><path d="M37.94 36h-10.5l-3.85-4.15 5.13-5.34c.09-.1.18-.1.27 0l8.86 9.32c.04.04.07.1.09.17Z" fill="url(#bcft2zaui)" /><path d="M22.12 36h-5.07l-2.97-3.05c-.06-.06-.03-.16.02-.21l2.52-2.47c.05-.05.1-.05.14 0 1.84 1.84 3.62 3.78 5.36 5.73Z" fill="#F6B80F" /><path d="m23.72 31.72 2.4-2.51L32.78 36h-5.1l-3.95-4.28ZM8.8 33.02l2.66-2.77 5.58 5.74h-5.36L8.8 33.02Z" fill="#83AFC3" /><defs><linearGradient id="acft2zaui" x1="16.72" y1="24.67" x2="16.72" y2="35.99" gradientUnits="userSpaceOnUse"><stop stop-color="#78A8BD" /><stop offset="1" stop-color="#659CB4" /></linearGradient><linearGradient id="bcft2zaui" x1="30.77" y1="26.44" x2="30.77" y2="36" gradientUnits="userSpaceOnUse"><stop stop-color="#73A4BB" /><stop offset="1" stop-color="#689DB4" /></linearGradient></defs></svg>