<!-- by TradeStack --><svg width="56" height="56" viewBox="0 0 56 56" xmlns="http://www.w3.org/2000/svg"><path fill="#F0F3FA" d="M0 0h56v56H0z"/><path d="M15.99 28.33c0-6.78 11.33-11.71 17-13.33-4.01.64-13.27 3.25-18.16 8.58l-1.57 4.75C13.26 40.9 36.42 42.6 48 41.86c-15.52-.33-32.01-5.04-32.01-13.53Z" fill="#C1AE84"/><path d="M10.46 28.46c0 9.06 13.04 12.76 19.57 13.49-3.94-1.12-15.46-5.32-15.46-13.49 0-6.53 8.1-11.25 12.15-12.8-5.42.5-16.26 3.75-16.26 12.8Z" fill="#172E4D"/><path d="M8 28.5c0 7.94 7.86 11.19 11.79 11.82-2.37-.98-9.31-4.66-9.31-11.81 0-5.72 4.88-9.86 7.32-11.22-3.27.44-9.8 3.28-9.8 11.22Z" fill="#C1AE84"/><path d="M17.75 32 19 23h4.26L23 24.46h-2.4l-.28 2.04h2.35l-.29 1.5h-2.27l-.56 4h-1.8ZM27.7 24.5h1.53l.31-1.5H24.6l-.2 1.5h1.53l-1.1 7.5h1.8l1.08-7.5Z" fill="#172E4D"/><path d="M32 23h-1.9l.58 9h1.98L34 26.67V32h2l2.9-9h-1.64l-1.84 6.21V23H33.8L32 29.21V23Z" fill="#BCB086"/><path d="m39.04 30.52-.2 1.48c2.8 0 3.86-.98 4-2.1.16-1.13-.52-2.63-1.06-4.07-.43-1.15.78-1.34 1.44-1.3l.19-1.52c-.64-.04-2.12.04-2.94.68-.82.65-.7 1.95-.53 2.52.2.52.65 1.75.95 2.51.38.95-.08 1.35-.44 1.53-.3.14-1.06.24-1.41.27Z" fill="#172E4D"/></svg>