<?xml version='1.0' encoding='utf-8'?>
<!-- by TradeStack -->
<svg width="56" height="56" viewBox="0 0 56 56" xmlns="http://www.w3.org/2000/svg"><path fill="#F0F3FA" d="M0 0h56v56H0z" /><path d="M12 23H4v9h3v-3h4v-2H7v-2h5v-2ZM15 25h-3v4.38c0 2.1 2 2.62 3 2.62h5v-7h-3v5.25h-1c-.8 0-1-.58-1-.88V25ZM20 26h1v4.2c0 1.44 1.43 1.8 2 1.8h3v-2h-.86c-.68 0-1.14-.4-1.14-.7V27h1.5v-2H24v-2l-4 3Z" fill="#FF5F03" /><path fill-rule="evenodd" d="M44.47 25v2h3.77c.3 0 .76.3.76 1h-3.12c-.94 0-1.88.6-1.88 2 0 1.75 1.41 2 2.35 2H52v-4.38c0-1.3-1.32-2.62-2.82-2.62h-4.7ZM49 31v-2h-1c-.31 0-1 .3-1 1s.69 1 1 1h1ZM26.47 25v2h3.77c.3 0 .76.3.76 1h-3.12c-.94 0-1.88.6-1.88 2 0 1.75 1.41 2 2.35 2H34v-4.38c0-1.3-1.32-2.62-2.82-2.62h-4.7ZM31 31v-2h-1c-.31 0-1 .3-1 1s.69 1 1 1h1Z" fill="#FF5F03" /><path d="M35 23h3v2h3.29c.57 0 1.71.4 1.71 2v3c0 .67-.34 2-1.71 2H35v-9Zm3 7h1.14c.29 0 .86-.2.86-1v-1c0-.33-.17-1-.86-1H38v3Z" fill="#FF5F03" /></svg>