<!-- by TradeStack --><svg width="56" height="56" viewBox="0 0 56 56" xmlns="http://www.w3.org/2000/svg"><path fill="#F0F3FA" d="M0 0h56v56H0z"/><path d="M25.94 30c-.46 0-.94-.52-.94-1.06v-3.88c0-.54.48-1.06.94-1.06h5.1c.46 0 .94.52.94 1.06V26h-2.75s0-.63-.74-.63c-.75 0-.76.62-.76.62v2.14s0 .69.77.69c.76 0 .76-.76.76-.76v-.42h-.73V26.6H32V30h-2.52l-.25-.5s-.28.5-.7.5h-2.6ZM33 30v-6h6.83s.94.1.94 1.12v1.43c0 1.02-.94 1.12-.94 1.12h-.54L41 30h-3.5L36 27.92V30h-3Zm4.19-3s.56-.19.56-.94-.56-.83-.56-.83H36V27h1.19ZM49 28.91c0 .54-.49 1.06-.95 1.06l-.24.03h-4.86c-.46 0-.95-.52-.95-1.06v-3.88c0-.54.49-1.06.95-1.06h5.1c.46 0 .95.52.95 1.06v3.85Zm-2.7-2.85s0-.75-.76-.75-.77.81-.77.81v2s0 .7.78.7c.77 0 .76-.76.76-.76v-2ZM12.02 21H19v2h-4.7c-.16 0-.3.17-.3.34V24h6v3.95s-.1.55.48.55c.59 0 .52-.55.52-.55V24h3v4.83c0 .5-.53 1.17-1 1.17h-5.02c-.48 0-.98-.65-.98-1.16V26H14v12.48L12.52 41 11 38.48V26H6v-2h5v-2c0-.51.5-1 .97-1" fill="#041E41"/></svg>