<?xml version='1.0' encoding='utf-8'?>
<!-- by TradeStack -->
<svg width="56" height="56" viewBox="0 0 56 56" xmlns="http://www.w3.org/2000/svg"><path fill="#F0F3FA" d="M0 0h56v56H0z" /><path d="m39 27.9-2.3 6.89a5.46 5.46 0 0 0-2.3-.79C27.73 34 25 44 25 46c0 1 0 2-1.5 2S22 46.12 22 44.87C23.86 31.21 34.95 27 36.48 27a4 4 0 0 1 2.52.9Z" fill="#005CAA" /><circle cx="25.5" cy="11.5" r="3.5" fill="#EE1C25" /><path d="m39 14.67-2.78 7a6.44 6.44 0 0 0-2.44-.67C25.88 21 21 36.33 21 37.33c0 1 .78 1.67 1.44 1.67.54 0 1.34-.3 1.56-.44v.55c-.44.3-1.8.89-2.78.89-2.55 0-4.22-2.22-4.22-4.33C17 24.22 30.44 12.78 35.33 13c2.22.1 3.37 1.11 3.67 1.67Z" fill="#005CAA" /></svg>