<!-- by TradeStack --><svg width="56" height="56" viewBox="0 0 56 56" xmlns="http://www.w3.org/2000/svg"><path fill="#F0F3FA" d="M0 0h56v56H0z"/><path fill="#3665A2" d="M49 23h3v9h-3zM31 23h3v9h-3zM4 23h3v9H4zM16 23h-3v6.58c0 1.76 1.45 2.42 3.24 2.42h3.52c1.8 0 3.24-.66 3.24-2.42V23h-3v5.92c0 .79-.58 1.08-1.3 1.08h-1.4c-.72 0-1.3-.3-1.3-1.08V23Z"/><path fill="#3665A2" d="M6 23h6v2H6zM30 23h-3v6.32a.7.7 0 0 1-.71.68h-2.63L23 32h3.96c1.68 0 3.04-1.3 3.04-2.9V23ZM8 27h6v2H8zM39.18 23c-.93 0-1.77.62-2.14 1.57l-1.4 3.46A9.62 9.62 0 0 0 35 31.5v.5h3v-.95c0-.2.04-.42.1-.61l1.9-5.02a.6.6 0 0 1 .56-.42h1.88a.6.6 0 0 1 .56.42l1.9 5.02c.06.2.1.4.1.61V32h3v-.5c0-1.2-.22-2.38-.64-3.47l-1.4-3.46A2.34 2.34 0 0 0 43.82 23h-4.64Z"/><path d="M40.84 26.42c.19-.56 1.13-.56 1.32 0L44 32h-5l1.84-5.58Z" fill="#3665A2"/></svg>