<?xml version='1.0' encoding='utf-8'?>
<!-- by TradeStack -->
<svg width="56" height="56" viewBox="0 0 56 56" xmlns="http://www.w3.org/2000/svg"><path fill="#F0F3FA" d="M0 0h56v56H0z" /><circle cx="28" cy="28" r="16" /><path d="M41.6 25.07c.35-.37-.05-.53 1.4-.22-.01-1.7-.75-3.14-1.51-4.44-1.03-1.76-1.92-2.5-2.28-3.4-.35-.07-.76.26-1.59.58l-.4.16c-.5.2-.08.08-.6.22-.52.13-.9.1-1.55.18l-.56 1.19c-.96-.41-.27.08-.85-.92-.59.6-3.03 1.4-3.1 1.4-.28.03-.42-.36-1.37-.64-1.8-.55-3 .87-3.35 2.02l1.35.21c.28-1.06-.11-.54.56-1.27.45.54.42.97.43 1.8-.87.32-.91.26-1.42.38-.63.13-.52.18-1.26.57-.39-.36-.53-.86-1.05-1.06-.71.92-.37.35.44 1.77-.43 1.38-.7-.02-1 1.48 2.24 1.2-.79-1.1 4.43-.17 1.2-.86.06-.6 1.12-1.17.99.32.6.03 1.1.78-.27.2-.07.1-.56.28-.4.14-.54.13-.88.23 1.04.78 1 .04 1.12 1.15-2.15 1.68-4.67-1.72-6.45.5a3.24 3.24 0 0 0-.65 2.94c.44 1.6 1.32.64 3.15 1.08 2.1 4.81-.23 2.88 2.05 6.3 3.15-.8 1.48-3.43 2.65-4.89.68-.84.7-.06 1.04-1.5-.26-1.2-1.6-1.76-2.01-3.87 1.48.68.67 1.17 1.97 2.33 1.26-.22 1.17-.2 1.58-1.23-.45-.31-.34-.13-.66-.33l-.66-.5c2.22-1.02 3.75 2.2 3.97 2.47 1.64-2.62 2.33-.43 3.94.17.53-.83 0-1.19 1.14-2.06 1.25-.97 1.02-.06.8-2.3l-.49-.22ZM12.34 24.37 12 25.6l.32 2.13c1.99.15.05-1.24 1.47.05.34.3.7.85 1.16 1.23.75-.17.39.06.46-.39-.53-.8-.39-.45-.1-1.49 1.99-.02 2.06.2 2.53-.62 1.5-2.6-.06-.83 2.2-2.22.68-.41 1.1-.88.92-1.61-.28-1.2-.75-.72-2-1.16-.32.89-.12.88-.83 1.68-.54-.13-1.25-.9-1.54-1.41.38-.55.13-.2.54-.62l.83-.8-.67-.36-2.95.63a9.3 9.3 0 0 0-1.14 2c-.31.75-.2 1.43-.65 2.23l-.21-.49ZM19.14 35.93c0 4.48-.43 4.29.9 5.07l.25-2.88c2.24-1.93 1-1.24 1.66-2.47.3-.6.4-.05.8-1.2.22-.64.28-1.38.24-2.12-1.04-.5-1.15.09-2.08-1.1-.67-.86-.6-1.3-2.04-1.22-2.1 2.84.26 3.11.27 5.92ZM20 16.74c.89.98 1.24-.07 1.77 1.3.36.93 0 1.81.6 2.96 1.55-.32.2-.72 1.9-1.71 1.12-.65.85.45 1.73-3.7-1.82-.73-1-.72-3.1-.3-1.41.3-2.1.36-2.9 1.45ZM39.25 38.92l1.46-1.44c.78-.8.57-.61.96-1.9-1.05.11-3.46-1.48-3.61-1.47-1.1.48-1.42.93-2.4 1.57l.1 2.02c1.06 0 1.06-.31 2.02-.27 1.9.1 1.47 1.49 1.47 1.49ZM24 42.87c.64.8 1.14.7 2.36.94 1.87.38 3.46.15 5.32-.32.44-.11.85-.24 1.23-.39l1.09-.56c-1.35-.17-1.94-.97-4.41-.23-2.14.65-2.19-.58-4.31-.22-.47.8-.23.51-.45 1l-.83-.22ZM33 14.13c.37 1.53.9 1.41 2 1.87-.08-.53-.02-.83-.83-1.58-.47-.43-.73-.53-1.17-.3ZM24 13.87c.85.36 1.5-.07 3-.67-.23-.16-.23-.33-1.44-.05-.71.16-1.07.3-1.56.72ZM18.02 18.5l1.1.28c-.03 1.5-.18 1.1 0 2.11l.71.11c.25-1.22.42-2.14-1.03-2.75-1.28-.55-.59-.06-.78.25ZM16.63 18.68c.46-.17.24-.05.6-.3l.3-.25-.8-1.15c-.34.75 0 .27-.7 1.01-.34.37-.49.5-.69 1.18l1.29-.5ZM17.75 17.03c.32.22.2.76 1.2.12.4-.25.62-.71.8-1.02-1.26 0-1.8-.05-2 .9ZM41 31.54l2 .46-.63-2c-.99.44-1.33.55-1.37 1.54Z" fill="#65A576" /><path d="M15.06 28.96c.06.04.15.03.18.11s.14.08.18.1l1.66.82-.59-1.41-1-.03c-.06.47.28.23-.43.4Z" fill="#65A576" /></svg>