<!-- by TradeStack --><svg width="56" height="56" viewBox="0 0 56 56" xmlns="http://www.w3.org/2000/svg"><path fill="#017CC1" d="M0 0h56v56H0z"/><path d="M11.6 31v-6h2.58c1.3 0 2.58.6 2.58 2.1 0 1.57-1.25 1.9-2.58 1.9h-1.81l.63-.52V31h-1.4Zm1.4-2.36-.63-.64h1.73c.66 0 1.27-.08 1.27-.9 0-.69-.62-1.1-1.27-1.1h-1.73l.63-.57v3.2ZM20 31v-3c0-.57-.62-1-1.14-1-.43 0-.97.2-1.31.47l-.48-.92c.25-.18.55-.31.9-.4.35-.1.71-.15 1.07-.15.7 0 1.24.16 1.62.49.39.33.58.83.58 1.53V31H20Zm-1.39 0c-1.08 0-1.7-.6-1.7-1.38 0-1.23.84-1.62 1.95-1.62h1.22v.7H19c-.31 0-.53.06-.65.16-.11.1-.17.55-.17.7 0 .17.07.3.2.41.13.1.32.14.55.14.22 0 .42-.05.6-.15.17-.1.38-.26.46-.46l.12.6c-.2.6-.7.9-1.51.9ZM24.77 26c.36 0 .69.07.97.22.29.14.51.36.68.66.16.29.24.67.24 1.13V31h-1.32v-2.79c0-.37-.08-.64-.25-.81-.16-.17-.38-.26-.68-.26-.2 0-.4.04-.57.13a.92.92 0 0 0-.39.4c-.09.18-.13.41-.13.7V31H22v-5h1.26v1.32l-.24-.38c.17-.3.4-.53.7-.7.31-.16.66-.24 1.05-.24ZM30.28 31c-1.73 0-3.24-1.24-3.24-3.05 0-1.75 1.6-2.95 3.26-2.95 1.06 0 1.92.36 2.5 1.02l-.9.81a2.04 2.04 0 0 0-1.53-.67c-1 0-1.94.72-1.94 1.79s.84 1.89 1.93 1.89c.55 0 1.06-.17 1.54-.58l.78.99c-.68.5-1.56.75-2.4.75Zm1.14-.93V28h1.26v2.25l-1.26-.18ZM33.4 31v-7h1.32v7H33.4ZM50.68 31v-7H52v7h-1.32ZM49 31v-3c0-.57-.63-1-1.14-1-.43 0-.97.2-1.31.47l-.48-.92c.25-.18.55-.31.9-.4.35-.1.7-.15 1.07-.15.7 0 1.24.16 1.62.49.39.33.58.83.58 1.53V31H49Zm-1.4 0c-1.07 0-1.7-.6-1.7-1.38 0-1.23.84-1.62 1.96-1.62h1.22v.7H48c-.32 0-.53.06-.65.16-.11.1-.17.55-.17.7 0 .17.07.3.2.41.13.1.32.14.55.14.22 0 .42-.05.6-.15.17-.1.38-.26.46-.46l.12.6c-.2.6-.7.9-1.51.9ZM37.64 31a2.44 2.44 0 0 1-2.19-1.2c-.22-.39-.32-.82-.32-1.3 0-.49.1-.92.32-1.3.22-.37.52-.66.9-.88.37-.21.8-.32 1.29-.32.48 0 .91.1 1.3.32.37.22.67.5.88.88.22.37.32.8.32 1.3a2.36 2.36 0 0 1-1.21 2.18c-.38.21-.8.32-1.29.32Zm0-1.16a1.1 1.1 0 0 0 1.01-.62c.1-.2.15-.44.15-.72 0-.28-.05-.52-.15-.72a1.1 1.1 0 0 0-1.01-.62 1.1 1.1 0 0 0-1.02.62c-.1.2-.15.44-.15.72 0 .28.05.52.15.72.1.2.25.35.43.46.17.11.37.16.59.16ZM11.01 22.08c-2.6.46-4.58 2.94-4.58 5.92s1.98 5.46 4.58 5.92A6.02 6.02 0 0 1 4 28a6.02 6.02 0 0 1 7.01-5.92Z" fill="#fff"/><path d="M16.87 24.51a4.76 4.76 0 0 0-8 3.4 4.76 4.76 0 0 0 8.1 3.3 5.36 5.36 0 0 1-4.4 2.31c-3 0-5.42-2.5-5.42-5.6 0-3.1 2.43-5.6 5.42-5.6 1.75 0 3.31.86 4.3 2.2ZM41.74 24H40.5v4.31l-.01.19a2.5 2.5 0 0 0 2.48 2.5 2.5 2.5 0 0 0 2.49-2.5 2.5 2.5 0 0 0-3.73-2.16V24Zm2.25 4.5a1.12 1.12 0 1 1-2.23 0c0-.62.5-1.12 1.11-1.12.62 0 1.12.5 1.12 1.12Z" fill="#fff"/></svg>