<!-- by TradeStack --><svg width="56" height="56" viewBox="0 0 56 56" xmlns="http://www.w3.org/2000/svg"><path fill="#F0F3FA" d="M0 0h56v56H0z"/><path d="M35.57 41.83c.37.04.5-.35.22-.56l-7.55-5.66a1.66 1.66 0 0 0-1.97 0l-5.58 4.2c-.33.25-.25.56.14.6l14.74 1.42Z" fill="#094"/><path d="M16.85 41.7c0 .08.04.15.1.2.05.06.12.1.2.1.08 0 .16-.02.22-.06a.3.3 0 0 0 .12-.2L20.9 31.7c.12-.35.12-.72 0-1.07a1.76 1.76 0 0 0-.66-.88l-6.68-4.63c-.35-.25-.65-.06-.55.34l3.83 16.26Z" fill="#6FBA2C"/><path d="M11.2 23.4a.3.3 0 0 0-.16.14.32.32 0 0 0-.03.23.3.3 0 0 0 .12.18c.06.04.14.06.2.05h11.13c.35 0 .7-.13.98-.34.28-.22.5-.53.61-.88l2.57-8.3c.12-.39-.13-.6-.47-.4L11.2 23.4Z" fill="#FABE00"/><path d="M27.27 10.11c-.28-.26-.6-.02-.49.33l3.71 12.31c.12.36.33.68.62.9.28.22.62.35.97.35h9.01c.4 0 .52-.33.23-.6L27.27 10.1Z" fill="#E60012"/><path d="M44.96 22.3c.15-.36-.16-.61-.45-.4l-10.45 7.86a1.81 1.81 0 0 0-.6 1.94l3 9.54c.12.4.45.41.6.04l7.9-18.99Z" fill="#0075C2"/></svg>