<?xml version='1.0' encoding='utf-8'?>
<!-- by TradeStack -->
<svg width="56" height="56" viewBox="0 0 56 56" xmlns="http://www.w3.org/2000/svg"><path fill="#C72128" d="M0 0h56v56H0z" /><path d="M9 27v3.93c0 .05-.02.07-.06.07H7.08c-.05 0-.08-.03-.08-.08v-7.2c0-1.57.7-2.99 2.26-3.5.4-.12.96-.21 1.66-.22h7c.04 0 .08.04.08.09V22h-7.13c-.79 0-1.66.34-1.82 1.22-.07.34-.08 1.25-.05 1.78h9v2H9ZM43.06 25.55l5.9 5.38c.05.04.04.07-.02.07H46.2a.59.59 0 0 1-.4-.17 925.75 925.75 0 0 0-4.28-3.9l-.04.03a433.19 433.19 0 0 1-4.01 3.65c-.44.4-.87.38-1.52.39h-1.76c-.02 0-.03 0-.05-.02a.09.09 0 0 1-.03-.03c-.01-.03-.01-.06.01-.08a1317.4 1317.4 0 0 1 5.87-5.34v-.02l-.01-.01L34 20.04c-.02-.02-.01-.04.02-.04h2.64c.17 0 .3.07.42.17a5324 5324 0 0 1 4.37 3.94c.03.02.06.02.09 0l4.2-3.8c.22-.22.5-.32.81-.31h2.4c.05 0 .05.02.02.05l-5.92 5.44c-.02.02-.02.04 0 .06Z" fill="#fff" /><path fill-rule="evenodd" d="M22.85 20.07A3.1 3.1 0 0 0 20 23.2v4.29c.07 2.07 1.42 3.46 3.53 3.5H29a6 6 0 0 0 1.65-.3c1.59-.49 2.39-1.82 2.35-3.42v-3.52c.01-.6-.02-1.06-.11-1.4-.37-1.32-1.46-2.09-2.82-2.28a7.1 7.1 0 0 0-1.06-.08h-4.8c-.45 0-.92.02-1.36.07Zm8.15 3.9c0-1.24-.6-1.94-1.99-1.97h-5.65c-1.08.12-1.37.99-1.36 1.88v3.28c-.01 1.01.4 1.8 1.65 1.84h5.77c1.2-.04 1.58-.84 1.58-1.8v-3.22Z" fill="#fff" /><path d="M18 38.13v-1.08c0-.03-.03-.05-.07-.05H16.7c-.13 0-.19-.07-.19-.2v-.36c0-.15.08-.23.23-.23h2c.18 0 .26.09.26.26v2.08c0 .13-.06.22-.2.24-.65.14-1.36.2-2.13.21-.86 0-1.9-.1-2.22-1.01-.12-.33-.12-.63-.13-.99-.02-.57 0-1.07.04-1.5.09-.97.84-1.39 1.72-1.46.84-.08 1.73-.04 2.66.11.13.02.2.1.2.23v.27c0 .14-.08.2-.22.2a264 264 0 0 0-2.05-.03c-.53 0-1.25 0-1.26.71v1.72c0 .2.02.4.06.56.09.34.56.39.85.4l1.6-.01c.04 0 .08-.03.08-.07ZM32 37.34c0 .63.18.75.77.82.34.03.71.03 1.12 0 .31-.03.65-.13.65-.51v-3.42c0-.15.08-.23.23-.23h.61c.05 0 .09.02.12.05.03.04.05.08.05.13v3.26c0 .79-.4 1.27-1.16 1.44-.7.15-1.38.16-2.14.02-.83-.16-1.24-.65-1.25-1.5v-3.23c0-.04.02-.08.05-.12a.17.17 0 0 1 .12-.05h.65c.16 0 .18.08.18.23v3.11ZM27.06 34.02c-.98.06-1.8.44-1.98 1.5-.1.67-.1 1.31 0 1.94.23 1.2 1.11 1.5 2.22 1.54 1.44.04 2.51-.38 2.67-2 .05-.56.04-1.08-.05-1.55-.27-1.43-1.68-1.5-2.86-1.43Zm-.07.78H28c.55 0 1 .44 1 .98v1.43c0 .55-.45.99-1 .99H27a.98.98 0 0 1-.99-.98v-1.44c0-.54.44-.98.99-.98Z" fill="#fff" /><path fill-rule="evenodd" d="M21 38.79v-1.76c0-.04.02-.04.07-.03h.5c.06 0 .1 0 .14.04l1.43 1.76c.1.12.23.19.38.2a9.3 9.3 0 0 0 .94-.03.09.09 0 0 0 .04-.06v-.04a1670.61 1670.61 0 0 0-1.68-1.91.03.03 0 0 1 .02-.02c.64-.1 1.2-.4 1.29-1.1.14-1.17-.4-1.84-1.56-1.84H20.2a.2.2 0 0 0-.15.06.21.21 0 0 0-.06.15v4.57c0 .15.07.22.22.22h.58a.2.2 0 0 0 .14-.06.2.2 0 0 0 .06-.15Zm.01-4.01v.02L21 36.18v.01l.03.01h1.65c.07 0 .14 0 .2-.03a.56.56 0 0 0 .18-.1c.06-.05.1-.1.12-.16a.41.41 0 0 0 .05-.18v-.48a.44.44 0 0 0-.16-.34.6.6 0 0 0-.4-.13h-1.66ZM38 38.78v-1.79c0-.04.04-.05.07-.04.52.08 1.07.1 1.67.02 1-.12 1.37-.82 1.23-1.82-.11-.79-.74-1.14-1.45-1.15H37.2c-.13 0-.2.08-.2.22v4.54c0 .16.08.24.23.24h.58c.14 0 .19-.08.19-.22Zm.01-4-.01.02v1.44h.02l1.49.02a.49.49 0 0 0 .45-.3.48.48 0 0 0 .04-.18v-.52a.48.48 0 0 0-.48-.48l-1.48-.01h-.02v.01Z" fill="#fff" /></svg>