<!-- by TradeStack --><svg viewBox="0 0 56 56" xmlns="http://www.w3.org/2000/svg"><path fill="#F0F3FA" d="M0 0h56v56H0z"/><path d="M23.51 24.96a4 4 0 0 1 5.99.04H34c-.17-.5-.4-1-.66-1.44-.03-.04-.06-.07-.11-.07a.14.14 0 0 0-.14.03c-.3.23-.68.36-1.08.36-.46 0-.9-.18-1.24-.5a1.68 1.68 0 0 1-.13-2.27.24.24 0 0 0 .04-.13.17.17 0 0 0-.08-.11 8.02 8.02 0 0 0-2.13-.87.17.17 0 0 0-.14.03.22.22 0 0 0-.07.1 1.77 1.77 0 0 1-3.5 0 .18.18 0 0 0-.07-.1c-.04-.03-.08-.04-.13-.03-.75.18-1.46.47-2.13.87-.03.02-.07.06-.07.1-.01.06 0 .1.03.14a1.7 1.7 0 0 1-.18 2.26 1.76 1.76 0 0 1-2.29.15c-.04-.02-.09-.03-.14-.02a.18.18 0 0 0-.1.07c-.29.46-.5.94-.68 1.43h4.51v-.04ZM29.1 31a3.91 3.91 0 0 1-5.21 0H19c.14.37.31.72.5 1.05.03.04.06.08.11.08.05.01.1 0 .14-.02a1.74 1.74 0 0 1 2.34.18c.63.66.7 1.72.16 2.47a.19.19 0 0 0-.03.15c.01.05.04.09.08.12.67.43 1.4.75 2.16.96.05.01.1 0 .14-.03a.24.24 0 0 0 .08-.12c.12-.93.89-1.63 1.79-1.63s1.67.71 1.78 1.65c0 .05.04.09.07.11.03.03.07.03.1.03h.04c.77-.2 1.5-.51 2.18-.93.04-.03.08-.07.08-.12 0-.06 0-.1-.04-.15a1.96 1.96 0 0 1 .16-2.48 1.71 1.71 0 0 1 2.37-.14c.04.02.09.03.14.03a.18.18 0 0 0 .11-.08c.21-.37.39-.74.54-1.13h-4.9Z" fill="#9A999A"/><path d="M52 28.7a2.4 2.4 0 0 1-2.38 1.8c-.7 0-1.26-.25-1.74-.77a2.6 2.6 0 0 1-.68-1.76c0-.66.26-1.26.71-1.74a2.3 2.3 0 0 1 1.71-.73c1.16 0 2.01.65 2.38 1.85h-1.44c-.18-.33-.5-.5-.95-.5-.61 0-1.06.46-1.06 1.12 0 .72.45 1.17 1.1 1.17.37 0 .68-.15.9-.47l1.45.03ZM45.51 25v-1H47v1h-1.49Zm-.01 5.5.01-4.91H47l-.01 4.91H45.5ZM44.47 27.04c-.27-.33-.84-.5-1.28-.5-.33 0-.58.12-.58.36 0 .81 2.73.15 2.73 1.92 0 1.25-1.08 1.7-2.09 1.68-1 0-1.57-.3-2.25-.94l.84-.75c.4.4.84.67 1.45.67.22 0 .73-.05.75-.48 0-.74-2.73-.17-2.73-1.85 0-1.2 1.01-1.65 1.96-1.65.7 0 1.41.27 2.03.69l-.83.85ZM41 25.5l-.01 5h-1.37v-.75c-.31.51-.8.75-1.43.75-1.03 0-1.69-.64-1.69-1.77l.01-3.23h1.47l-.01 2.66c0 .68.14 1 .71 1s.88-.35.88-1l.01-2.66H41ZM29 30.5l.01-5h1.26v.75c.3-.5.72-.75 1.29-.75.57 0 1 .26 1.31.79.5-.54.87-.79 1.47-.79 1.07 0 1.66.63 1.66 1.77l-.01 3.23h-1.36v-2.66c0-.68-.13-1-.65-1-.53 0-.97.35-.98 1v2.66h-1.21l.01-2.66c0-.68-.14-1-.66-1-.53 0-.8.35-.82 1v2.66H29ZM26.63 31v-1H24v-1.2l2.64-4.3H28v4.25h.69V30H28v1h-1.37Zm.17-4.59-1.34 2.38h1.28l.06-2.38ZM22.84 25.5v.73c.23-.5.62-.73 1.4-.73v1.34h-.26c-.88 0-.98.31-.98 1.22v2.44h-1.5l.05-5h1.3ZM19.65 29.93c-.4.41-.83.57-1.38.57-.56 0-1.06-.2-1.46-.57a2.57 2.57 0 0 1-.81-1.94c0-.7.26-1.33.76-1.82.44-.45.97-.67 1.56-.67.56 0 1 .2 1.3.63v-.63H21v5h-1.35v-.57Zm-1.08-.74c.6 0 1.08-.5 1.1-1.18 0-.7-.5-1.23-1.14-1.24-.65 0-1.16.54-1.16 1.21-.01.7.5 1.21 1.2 1.21Z" fill="#F08000"/><path d="M16 28.5v-.15c0-1.76-1.02-2.85-2.53-2.85A2.51 2.51 0 0 0 11 27.97a2.51 2.51 0 0 0 2.47 2.53c1.06 0 1.84-.5 2.3-1.49h-1.53c-.21.19-.44.27-.71.27-.6 0-.97-.27-1.09-.77l3.56-.02Zm-2.51-1.75c.55 0 .94.27 1.12.76h-2.2c.08-.46.5-.76 1.08-.76ZM10.44 26.82H6.37v1.25h2.84a2.07 2.07 0 0 1-1.96 1.63c-1.12 0-2.03-.99-2.03-2.2 0-1.21.92-2.18 2.04-2.18.7 0 1.29.37 1.66.93h1.37A3.26 3.26 0 0 0 7.26 24C5.47 24 4.01 25.56 4 27.49c0 1.93 1.45 3.5 3.24 3.51 1.79 0 3.25-1.56 3.26-3.49 0-.22-.02-.46-.06-.69Z" fill="#F08000"/></svg>