<?xml version='1.0' encoding='utf-8'?>
<!-- by TradeStack -->
<svg width="56" height="56" viewBox="0 0 56 56" xmlns="http://www.w3.org/2000/svg"><path fill="#004B85" d="M0 0h56v56H0z" /><path d="M16.62 15h9.8c.2 0 .58-.73.58-1.66 0-.93-.77-1.4-1.15-1.6.38-.58 1.38-1.74 2.3-1.74 1.16 0 1.73.58 1.73 1.74 0 .93-.38 2.68-.57 3.26h8.65c1.35 0 4.04.46 4.04 3.71s-1.23 4.84-2 5.23v12.19c0 1.35-1.23 4.3-4.92 5.22-4.62 1.17-6.93 3.49-6.93 4.65-1.34-1.55-4.61-4.65-6.92-4.65-2.88 0-6.23-2.32-6.23-5.22v-12.2c-1.15-.38-3-1.97-3-5.22S15.08 15 16.62 15Zm-2.46 4H14c0 .68.59 1.74 1.03 2.54.15.27.28.5.37.7 0 .9.37 1.88.55 2.26a6.13 6.13 0 0 0 2.18 4.53 9.98 9.98 0 0 0-2.18 1.7c.87.9 2.18 1.5 2.73 1.7-.87.45-1.46 2.08-1.64 2.83 1.31.45 3.46.57 4.37.57 0 1.36.37 2.45.55 2.83 1.31 0 2.5-1.13 3.04-1.7v3.4c0 .73-.42 1.1-.77 1.42L24 42h6c-.87-.45-1-1.45-1-2.2v-3.4c.87.9 2.62 1.5 3.35 1.7a4.16 4.16 0 0 0 0-2.84c.87.9 3.64.76 4.92.57 0-2.27-1.1-3.59-1.64-3.97.87 0 1.82-1.13 2.18-1.7-.43-1.36-2-1.7-2.73-1.7 1.75-.45 2.92-3.58 3.28-5.1.87-.9 1.43-3.23 1.61-4.36H37c0-.9 0-1.5-.28-1.87-2.19 0-3.46 1.14-3.83 1.7 0-1.36-.36-2.07-.54-2.26-1.32 0-2.74 1.5-3.28 2.26 0-1.36-1.46-2.45-2.19-2.83-1.31 1.36-1.64 2.45-1.64 2.83a8.02 8.02 0 0 0-3.28-1.7l-.55 1.14c-.43-.46-2.36-.95-3.28-1.14-.43.9-.54 1.9-.54 2.27-1.2-.42-2.76-.4-3.43-.4ZM27 23a5.58 5.58 0 0 1 0-6c1.5 2 1.5 4 0 6Zm-5.04.36c-.91-.18-2.84-1.47-3.28-5.1 1.16.2 3.44 1.48 3.28 5.1Zm-2.73.57c-.91 0-2.95-.8-3.83-3.96 1.16.03 3.54.88 3.83 3.96ZM20.5 28c-1.1-.02-3.57-.92-4-4.5 1.43.57 4.4 2.23 4 4.5Zm3.5 2c-.91-.76-3.88-1.31-6.5.5 1.1.76 4.31 1.31 6.5-.5Zm2 0h.5v11H26V30Zm1.5 4h.5v7h-.5v-7ZM25 32c-.91.38-2.5 1.79-2.5 4.96 1.1-.38 2.94-1.79 2.5-4.96Zm-7 2.7a7.26 7.26 0 0 1 6-3.2c-1.18 3.27-3.08 3.24-5.28 3.2H18Zm6-5.67c-1.5-.53-3-2.03-3.5-5.53 1.28.76 3.5 2.81 3.5 5.53Zm1.24-5.67c-1.1-.37-3.17-1.92-2.73-5.1 1.27.38 3.6 1.93 2.73 5.1Zm3.83 0c-.19-1.13.3-4 2.93-5.36.18 1.32-.3 4.46-2.93 5.36ZM26.5 28.5c-1.02-.25-2.82-1.5-3-5 1.28.76 3.5 2.5 3 5Zm1 0c0-1.32.38-4.1 3-5 .18 1.32-.5 4-3 5Zm4.85-6.27c0-.94 1.03-3.32 3.65-4.23 0 1.13-1.03 3.78-3.65 4.23Zm2.18 1.13A4.79 4.79 0 0 1 38.5 20c0 .94-.9 2.91-3.97 3.36ZM30 29.03c0-1.51.88-4.62 3.5-5.53 0 1.7-1 4.5-3.5 5.53ZM33.5 28c-.18-1.13 0-3.6 3.5-4.5-.2 1.32-.9 4.05-3.5 4.5ZM30 30c1.28-.76 4.31-1.81 6.5 0-.96.76-3.56 1.81-6.5 0Zm1 2a4.8 4.8 0 0 1 5.17 2.7c-1.27.37-3.86.47-5.17-2.7Zm-2.5 0c1.1.38 3.3 1.79 3.3 4.96A5.09 5.09 0 0 1 28.5 32Z" fill="#fff" /></svg>