<!-- by TradeStack --><svg viewBox="0 0 56 56" xmlns="http://www.w3.org/2000/svg"><path fill="#6800D2" d="M0 0h56v56H0z"/><path d="M22 22a4 4 0 1 0 0-8 4 4 0 0 0 0 8Zm6 2c1.13 0 2.18.42 2.95 1.2 2.08 2.08 3.85 2.1 5.93.02A4.07 4.07 0 0 1 39.83 24c2.31 0 4.17 1.67 4.17 3.98A4.04 4.04 0 0 1 39.83 32a4.15 4.15 0 0 1-2.95-1.22c-2.08-2.08-3.85-2.08-5.93 0A4.07 4.07 0 0 1 28 32a3.9 3.9 0 0 1-4-4.02A3.86 3.86 0 0 1 28 24Zm-2 14a4 4 0 1 1-8 0 4 4 0 0 1 8 0Zm-10-6a4 4 0 1 0 0-8 4 4 0 0 0 0 8Zm22-14a4 4 0 1 1-8 0 4 4 0 0 1 8 0Zm-4 24a4 4 0 1 0 0-8 4 4 0 0 0 0 8Z" fill="#fff"/></svg>