<?xml version='1.0' encoding='utf-8'?>
<!-- by TradeStack -->
<svg width="56" height="56" viewBox="0 0 56 56" xmlns="http://www.w3.org/2000/svg"><path fill="#F0F3FA" d="M0 0h56v56H0z" /><path d="m39.02 12.38-.24-1.2c.65-.3 1.58-.23 2.08.24l1.08 1.81c.2.4.42.88.47 1.3l.16.78a14.04 14.04 0 0 1 .2 3.03l.16.58c.12.41.06.4-.04.4-.09 0-.21-.02-.29.22-.13.41.01 1.6.08 1.94.02.14.01.16-.01.18-.03.04-.09.1-.1.52L42.58 35h-.36l.01-12.09c0-.22 0-.46-.02-.69-.01-.37-.03-.74 0-1.08a9.6 9.6 0 0 0 0-1.77 2.95 2.95 0 0 0-.09-.05c-.24-.14-.59-.34.04-.51 0-.26-.07-.35-.32-.45-.63-.24-.66-.36-.7-.5-.02-.1-.05-.22-.39-.42-1.1-.68-2.67-1.97-4-1.54l-1.51.53c0 .11 0 .23-.02.36-.02.38-.05.8.1 1.11l.18.3.94.03c.06.33.05.73.04 1.12-.01.6.14 1.16.13 1.75v.7c-.04 2.02-.07 4.2.5 6.07.2.67.2 1.27.22 1.9 0 .38 0 .77.05 1.2.93.1 1.7-.36 2.62-.3V33h-6v-1.15c-.64-.07-3.4-.14-3.87-.01-.56.33-1.21.89-1.9.89h-3.95c-.53 0-.54 0-.88-.26-.33-.2-.9-.71-1.32-.75-.72-.08-4.61-.03-5.08.02v1.29L11 33v-2.6c.06-.07.32-.08.62-.11.21-.45.26-.45.7-.42.53.02 1.13.1 1.65 0 .4-.05.46-.24.56-.53l.1-.29c.3-.64.64-1.28.69-1.98 0-.13.02-.27.04-.4a2 2 0 0 0 .4-.17c.27-.15.54-.29.8-.08l.12.1c.31.26.56.01.87-.15l2.55-1.54c.61-.38 1.25-.72 2.05-.53.34.08.47.15.55.19.27.13 1.18-.01 1.51-.1.02-.11.02-.24.03-.36l.04-.5.17-1.63.07-.39c.08-.4.17-.88.02-1.25a.15.15 0 0 0-.06-.07c-.04-.03-.08-.06 0-.21a.4.4 0 0 1 .15-.17c.12-.08.2-.14.03-.6l-.17-.5c-.03-.11-.05-.13-.06-.16v-.23c.49-.03.79-.14 1.12-.27l.48-.16c3.85-1.3 7.65-2.66 11.53-3.87l1.83-.73c-.15-.3-.26-.6-.37-.9ZM32.44 26.8c-.25-.33-.38-.5-.66-.51-.04.2-.14.51-.25.89-.3 1-.7 2.41-.63 2.78h3.96c.02-.23-.02-.27-.17-.4a3.31 3.31 0 0 1-.22-.24c-.68-.83-1.39-1.65-2.03-2.52Zm4.16.67h-1.03c-.03.47-.01.48.16.61.14.1.26.2.37.32.18.17.33.32.6.4l-.1-1.33Zm-15.91.37c.2.17.44.16.7.14.1-.14.21-.38.19-.58l-.18-.6-.16.05c-.3.19-.9.7-.55 1Zm9.7-.4h.4c.2-.28.28-.75.3-1.2-.23.03-.3.02-.33.04l-.07.21-.3.94Zm5.64-2.55h-.48l.03 1.9.82-.03c0-.1-.34-1.8-.37-1.87Zm-15.53.72c-.77-.61-.71 1.14-.39 1.53.28-.04.32-.16.52-.36.34-.3.51-.42.5-.53 0-.22-.44-.49-.63-.64Zm12.5.74a3.07 3.07 0 0 0-.73-.59c.04.23.12.33.24.47l2.41 2.88.15.18c.18.23.46.58.58.63a3 3 0 0 0 1.15.01c-.03-.18-.06-.21-.15-.3-.16-.18-.65-.53-.93-.78a92 92 0 0 0-2.6-2.39l-.11-.1Zm-11.93 2.09c-.05-.1-.09-.12-.16-.15a1.36 1.36 0 0 1-.15-.07c-.2-.12-.4-.2-.59-.39-.34-.32-.48-.77-.57-1.04-.12-.36-.07-.56 0-.78.03-.13.07-.26.08-.43-.3.03-.3.04-.34.07-.26.25-.68.44-1 .61-.49.27-1.79.98-1.22.71l.02.1c.02.01.06 0 .34.13l.24.13c.42.27.41.57.4 1.03 0 .18 0 .38.03.61.89.07 2.05-.38 2.92-.53Zm12.69-3.53c-.48-.03-1.12-.08-1.47.06.01.14.01.19.03.21.03.04.1.05.34.26l.22.2c.32.31.77.75 1.12.8l.01-.32c.02-.4.04-.86-.05-1.2h-.2Zm-12.9-.14c-.09.05-.18.1-.28.12 0 .13 0 .18.02.22.02.06.1.08.27.22.14.13.3.24.4.38.05.06.09.1.25.04.1-.04.1-.04.12-.09.07-.18.17-.31.31-.44.22-.2.3-.24.34-.3.03-.04.03-.1.04-.24-.23-.1-.69-.12-1-.07-.18.02-.32.1-.47.16Zm3.78-.21h1.96a4.85 4.85 0 0 0 .06-.37c.2-.85.38-1.68.4-2.61-1.44.02-1.86-.07-2.02.08-.07.08-.1.2-.13.42-.1.5-.34 2.14-.27 2.48Zm11.63-3.48-.64.01c-.1.37 0 .72.08 1.05l.08.35.04.23c.09.51.15.65.43 1.02.14-.31.1-2.26.01-2.66Zm-3.74 2.56c-.07.24-.13.45-.06.8l.27.02c.43.04 1.08.1 1.21-.1.09-.14.06-2.86.03-3.03-.05-.26-.08-.34-.02-.54.05-.2.1-.5 0-.69a.37.37 0 0 0-.59-.1c-.13.12-.17.35-.2.52l-.6 2.96-.04.16Zm3.04-2.93.24.02c.66.1.49-.64.4-1.05l-.05-.2-.02-.36c0-.14 0-.29-.02-.44h-.71l.02 1.56c.02.2.08.3.14.47Zm-7.14 8.95c.24.13.77.42 1.02-.01.1-.18.16-.51.2-.81.04-.23.1-.44.17-.67 1-3.42 2.02-6.69 2.64-10.13l.05-.13c.39-.22.17-.35-.13-.46-.27-.1-.43 0-.66.1l-3.12 1.08-1.33.5c-.02.37.2.4.5.42l.27.04.03.03v.02c.22.36.15.36.1.36h-.01c-.08.11-.12.13-.15.14-.09.03-.14.05-.45 1.06-.2.65-.26 1.15-.34 1.9l-.02.18c-.13 1.25-.25 1.41-.2 1.52.03.09.18.13.53.77l.35.8.03.16c.08.47.4.39.77.46.12.22.32 1.62-.05 2.17-.04.05-.3.45-.2.5Zm11.85-13.53-.1-.18-.44-.95c-.4-.02-.64.21-1 .31.03.42.15.49.43.64.33.18.7.44 1 .68.13.11.23.2.45.21-.04-.15-.21-.47-.34-.71Z" fill="#4D4D4F" /><path d="M36 34h3.34c.66 0 1.15.03 1.48.08a2.07 2.07 0 0 1 1.52 1c.16.28.25.59.25.93a1.92 1.92 0 0 1-1.17 1.74c.5.14.9.38 1.17.72.27.35.41.75.41 1.21a2.3 2.3 0 0 1-1 1.89c-.3.2-.67.33-1.12.38-.28.02-.96.04-2.04.05H36v-8Zm1.69 1.33v1.85h1.1c.66 0 1.07 0 1.23-.03.29-.03.51-.12.68-.28a.83.83 0 0 0 .25-.63.84.84 0 0 0-.22-.6.97.97 0 0 0-.63-.28c-.17-.02-.65-.03-1.44-.03h-.97Zm0 3.18v2.14h1.56c.6 0 1-.01 1.16-.05.25-.04.45-.15.6-.31.17-.17.25-.4.25-.69 0-.24-.07-.44-.19-.6-.12-.17-.3-.3-.53-.37a5.94 5.94 0 0 0-1.49-.12h-1.36ZM28 42v-8h3.3c1.48 0 3.07.6 3.07 2.48 0 1.27-.45 2.29-1.62 2.46.8 1.08 1.55 1.91 2.25 3.06h-1.88c-.64-.98-1.3-1.77-1.97-2.72h-1.58V42H28Zm1.57-4h1.17c.8 0 2-.28 2-1.42 0-1.11-1.18-1.23-1.94-1.23h-1.23V38ZM27 42h-1.75l-.63-1.65h-3.2L20.72 42H19l3.1-8h1.79L27 42Zm-2.9-3L23 36l-1.08 3h2.18ZM15 37.72V39h2.26v1c-.57.4-1.3.66-2.03.66-1.73 0-2.45-1.36-2.45-2.75 0-1.4.8-2.57 2.47-2.57.85 0 1.6.4 1.89 1.12l1.21-1.27c-.68-.83-1.86-1.19-3.1-1.19C12.7 34 11 35.75 11 37.97 11 40.3 12.74 42 15.34 42c1.26 0 2.74-.39 3.66-1.2v-3.08h-4Z" fill="#4D4D4F" /></svg>