<?xml version='1.0' encoding='utf-8'?>
<!-- by TradeStack -->
<svg width="56" height="56" viewBox="0 0 56 56" xmlns="http://www.w3.org/2000/svg"><path fill="#F0F3FA" d="M0 0h56v56H0z" /><path d="M40 20h1.13l1.37 2.65L43.87 20H45l-2 3.76V26h-1v-2.24L40 20ZM14.96 22a1.4 1.4 0 0 0-1.37-1C12.5 21 12 22.03 12 23c0 .98.48 2 1.61 2 .83 0 1.4-.39 1.4-1.21l.23.04h-1.52V23H16v.7c0 1.4-.98 2.3-2.4 2.3-1.68 0-2.6-1.42-2.6-3 0-1.5.91-3 2.58-3 1.16 0 2.25.82 2.42 2h-1.04ZM17.98 26H17l1.9-6h1.2l1.9 6h-.9l-1.6-5-1.52 5Zm.1-2h2.84v1h-2.84v-1ZM23 26v-6h1v5h2v1h-3ZM27 26v-6h1v5h2v1h-3ZM31 26v-6h4v1h-3v1.5h2.5v1H32V25h3v1h-4ZM10 34v-6h4v1h-3v1.5h2.5v1H11V33h3v1h-4ZM43 34v-6h4v1h-3v1.5h2.5v1H44V33h3v1h-4ZM36 26v-6h1.96c1.14 0 2.04.8 2.04 1.92 0 1.15-.84 2.08-2.05 2.08h-1.4v-1h1.27c.63 0 1.18-.45 1.18-1.08 0-.64-.55-.92-1.18-.92H37v5h-1Zm2.7-2.72L40 26h-1.06l-1.27-2.72h1.03ZM5 34v-6h1.96C8.1 28 9 28.8 9 29.92 9 31.07 8.16 32 6.95 32h-1.4v-1h1.27C7.45 31 8 30.55 8 29.92c0-.64-.55-.92-1.18-.92H6v5H5Zm2.7-2.72L9 34H7.94l-1.27-2.72H7.7ZM32 34v-6h1.96c1.14 0 2.04.8 2.04 1.92 0 1.15-.84 2.08-2.05 2.08h-1.4v-1h1.27c.63 0 1.18-.45 1.18-1.08 0-.64-.55-.92-1.18-.92H33v5h-1Zm2.7-2.72L36 34h-1.06l-1.27-2.72h1.03ZM18.02 29.68c-.05-.5-.42-.68-.98-.68-.46 0-.94.14-.95.65 0 .36.26.58.57.7.1.04.21.08.32.1l.49.14c.2.06.38.12.57.21.59.28.96.81.96 1.47 0 1.13-.93 1.73-1.98 1.73-1.11 0-1.98-.65-2.02-1.81h.93c.04.6.52.81 1.09.81.5 0 1-.17 1-.73 0-.5-.49-.7-.9-.81l-.6-.17c-.76-.22-1.38-.72-1.38-1.57 0-1.06.9-1.72 1.91-1.72.99 0 1.86.65 1.88 1.68h-.91ZM25 31c0 1.5-.85 3-2.5 3S20 32.5 20 31s.84-3 2.5-3c1.65 0 2.5 1.5 2.5 3Zm-1 0c0-.94-.4-2-1.5-2S21 30.06 21 31s.4 2 1.5 2 1.5-1.06 1.5-2ZM30 28h1v3.86c0 1.39-1.22 2.14-2.5 2.14s-2.5-.75-2.5-2.14V28h1v3.77c0 .79.75 1.27 1.5 1.27s1.5-.48 1.5-1.27V28ZM42 30h-1c-.11-.67-.71-1-1.38-1C38.5 29 38 30.02 38 31s.49 2 1.61 2c.66 0 1.27-.34 1.39-1h1c-.17 1.2-1.2 2-2.4 2-1.68 0-2.6-1.45-2.6-3s.92-3 2.6-3c1.23 0 2.24.76 2.4 2ZM51.02 29.68c-.05-.5-.42-.68-.98-.68-.46 0-.94.14-.95.65 0 .36.26.58.57.7.1.04.21.08.32.1l.49.14c.2.06.38.12.57.21.59.28.96.81.96 1.47 0 1.13-.93 1.73-1.98 1.73-1.11 0-1.98-.65-2.02-1.81h.93c.04.6.52.81 1.09.81.5 0 1-.17 1-.73 0-.5-.49-.7-.9-.81l-.6-.17c-.76-.22-1.38-.72-1.38-1.57 0-1.06.9-1.72 1.91-1.72.99 0 1.86.65 1.88 1.68h-.91Z" /></svg>