<?xml version='1.0' encoding='utf-8'?>
<!-- by TradeStack -->
<svg width="56" height="56" viewBox="0 0 56 56" xmlns="http://www.w3.org/2000/svg"><path fill="#F0F3FA" d="M0 0h56v56H0z" /><path d="M25 30c-.91 4-4.72 7-9 7a9 9 0 1 1 5.45-16.16l-2.12 2.17A6 6 0 1 0 16 34a6.3 6.3 0 0 0 5.88-4.01H25Z" fill="#D19429" /><path d="M33.86 29.6a9 9 0 1 1-2.32-7.78l-2.1 2.14A5.98 5.98 0 0 0 19 28a6 6 0 0 0 11.78 1.6h3.08Z" fill="#554744" /><path fill="#D19429" d="M14 27h11v3H14z" /><path fill="#554744" d="M27 27h7v3h-7z" /><path d="M33.95 20h2.17L40 30.4 43.88 20h2.17L49 37h-3.41l-1.4-10.07-.02-.48L40.77 37h-1.55l-3.39-10.55-.02.48L34.41 37H31l2.95-17Z" fill="#D19429" /></svg>