<?xml version='1.0' encoding='utf-8'?>
<!-- by TradeStack -->
<svg width="56" height="56" viewBox="0 0 56 56" xmlns="http://www.w3.org/2000/svg"><path fill="#F0F3FA" d="M0 0h56v56H0z" /><path d="m18.48 34.73 2.04-3.24 3.56-5.65 2.01-3.2 1.54-2.45c.11-.18.26-.33.44-.43l-1.16-2.28a3.9 3.9 0 0 0-1.43 1.35l-.61.97-10.22 16.25-1.06 1.68c-.28.46-.3 1.03-.04 1.5l3.22-1.78 1.71-2.72Z" fill="url(#ahq5lw2uz)" /><path d="M14.84 40h11c.3 0 .57-.09.8-.24l-1.38-2.3h-8.49l-3.22 1.77c.26.48.75.77 1.3.77Z" fill="url(#bhq5lw2uz)" /><path d="M48 24.18c0-2.16-.68-3.97-1.97-5.23a7.49 7.49 0 0 0-5.5-1.95H28.78c-.66 0-1.3.17-1.87.48l1.16 2.28c.2-.14.45-.2.71-.2h11.8c.88-.04 2.53.1 3.68 1.21.8.78 1.2 1.93 1.2 3.41v.03H48v-.03Z" fill="url(#chq5lw2uz)" /><path d="M38.36 31.49h-6.32L30.43 34h7.93c2.5 0 4.93-1.05 6.82-3.03a9.63 9.63 0 0 0 2.82-6.5v-.26h-2.54v.25c0 3.19-3.17 7.03-7.1 7.03Z" fill="url(#dhq5lw2uz)" /><path d="M11.65 28.27 9.6 25.52h11.67l1.6-2.52H7.48c-.56 0-1.07.29-1.32.8s-.19 1.1.15 1.55l3.33 4.46.01.02c1.94 2.48 4.06 3.87 6.3 4.15l1.58-2.49h-.7c-1.78 0-3.47-1.05-5.17-3.22Z" fill="url(#ehq5lw2uz)" /><path d="M36 25.25c.29-.46.3-1.04.04-1.51a1.45 1.45 0 0 0-1.29-.74h-8.87l-1.6 2.52h8.53l-1.89 2.98-1.15 1.83-2.35 3.7-.47.75-.25.39-1.44 2.28 1.39 2.3c.17-.1.32-.26.44-.44l3.34-5.27 1.61-2.55L36 25.25Z" fill="url(#fhq5lw2uz)" /><path d="m27.42 34 1.61-2.51h-8.5L18.91 34h8.5Z" fill="url(#ghq5lw2uz)" /><defs><linearGradient id="ahq5lw2uz" x1="20.72" y1="39.23" x2="20.72" y2="17.48" gradientUnits="userSpaceOnUse"><stop offset=".2" stop-color="#201EF5" /><stop offset=".8" stop-color="#7221D3" /></linearGradient><linearGradient id="bhq5lw2uz" x1="13.55" y1="38.73" x2="26.64" y2="38.73" gradientUnits="userSpaceOnUse"><stop offset=".2" stop-color="#201EF5" /><stop offset=".8" stop-color="#4276F8" /></linearGradient><linearGradient id="chq5lw2uz" x1="26.91" y1="20.6" x2="48" y2="20.6" gradientUnits="userSpaceOnUse"><stop offset=".2" stop-color="#7221D3" /><stop offset=".9" stop-color="#201EF5" /></linearGradient><linearGradient id="dhq5lw2uz" x1="30.43" y1="29.12" x2="48" y2="29.12" gradientUnits="userSpaceOnUse"><stop stop-color="#4276F8" /><stop offset=".9" stop-color="#201EF5" /></linearGradient><linearGradient id="ehq5lw2uz" x1="6" y1="28.48" x2="22.88" y2="28.48" gradientUnits="userSpaceOnUse"><stop offset=".1" stop-color="#69D772" /><stop offset=".9" stop-color="#70ECFC" /></linearGradient><linearGradient id="fhq5lw2uz" x1="30.25" y1="39.76" x2="30.25" y2="22.97" gradientUnits="userSpaceOnUse"><stop offset=".2" stop-color="#4276F8" /><stop offset=".9" stop-color="#70ECFC" /></linearGradient><linearGradient id="ghq5lw2uz" x1="18.92" y1="32.76" x2="29.03" y2="32.76" gradientUnits="userSpaceOnUse"><stop offset=".1" stop-color="#70ECFC" /><stop offset="1" stop-color="#4276F8" /></linearGradient></defs></svg>