<?xml version='1.0' encoding='utf-8'?>
<!-- by TradeStack -->
<svg width="56" height="56" viewBox="0 0 56 56" xmlns="http://www.w3.org/2000/svg"><path fill="url(#av4mpavvz)" d="M0 0h56v56H0z" /><path d="M20 19.42c.16.24.41.6.68.92.13.15.28.3.42.42.07.06.15.11.24.16.08.04.19.08.32.08.1 0 .23-.03.34-.06l.4-.11h.01a18.82 18.82 0 0 1 9.91-.34c.53.12.95.24 1.27.34l.41.11c.1.03.23.06.34.06.13 0 .24-.04.32-.08.09-.05.17-.1.24-.16.14-.12.29-.27.42-.42.27-.31.52-.68.68-.92l-.66-.21c-.14.22-.38.35-.61.62a2.69 2.69 0 0 1-.41.39l-.12-.03-.39-.11a19.57 19.57 0 0 0-5.75-.87h-.12a19.57 19.57 0 0 0-5.75.87 12.84 12.84 0 0 1-.51.14 2.69 2.69 0 0 1-.4-.39c-.24-.27-.48-.4-.62-.62l-.66.2ZM22.2 28.05c.18-.11.41-.03.51.18l.43.9h9.72l.43-.9c.1-.21.33-.3.51-.18.19.12.25.38.15.59l-.46.97a.65.65 0 0 1-.58.39H23.1a.65.65 0 0 1-.58-.4l-.46-.96c-.1-.21-.04-.47.15-.59Z" fill="#99D1A1" /><path fill-rule="evenodd" d="M9.74 27c0 .14.05.18.07.2.04.04.11.07.25.08.3.02.7-.08 1.04-.23h.02l.02-.01a66.94 66.94 0 0 1 16.67-2.38h.08c3 0 10.47.49 16.93 2.38h.03l.02.01c.35.15.76.25 1.06.23.14 0 .22-.04.26-.08.02-.02.06-.07.07-.2l-.05-.09c-.05-.08-.12-.2-.23-.34a10.3 10.3 0 0 0-1-1.06 23.88 23.88 0 0 0-3.81-2.87 25.68 25.68 0 0 0-13.32-3.93c-5.33.01-9.88 1.91-13.1 3.93-1.61 1-2.88 2.04-3.75 2.87a10.25 10.25 0 0 0-1.21 1.4.64.64 0 0 0-.05.1Zm18.07-9a25.75 25.75 0 0 0-13.46 4.04A24.27 24.27 0 0 0 10.47 25c-.45.43-.8.82-1.05 1.13-.12.16-.22.3-.29.43A.9.9 0 0 0 9 27c0 .3.1.56.31.74.2.18.46.25.7.27.46.03.98-.12 1.37-.29a66.19 66.19 0 0 1 16.47-2.34c2.94 0 10.34.48 16.74 2.34.4.17.93.32 1.4.29.23-.02.49-.09.7-.26a.95.95 0 0 0 .31-.75c0-.16-.07-.3-.13-.42a3.49 3.49 0 0 0-.3-.43c-.25-.31-.6-.7-1.07-1.13a24.61 24.61 0 0 0-3.93-2.97A26.45 26.45 0 0 0 27.89 18h-.08Z" fill="#99D1A1" /><path d="M13.36 29a.4.4 0 0 1 .43.35 13.97 13.97 0 0 0 10.87 11.9c.2.05.35.25.3.45a.39.39 0 0 1-.47.29c-6.13-1.4-10.8-6.42-11.49-12.58-.02-.2.14-.4.36-.4Zm17.68 12.7c-.05-.2.1-.4.3-.45a13.97 13.97 0 0 0 10.87-11.9.4.4 0 0 1 .43-.35c.22.02.38.2.36.41-.68 6.16-5.36 11.17-11.5 12.58a.39.39 0 0 1-.46-.29ZM28 13.79c-4.67 0-8.8 2.38-11.3 6.04a.38.38 0 0 1-.53.1.4.4 0 0 1-.1-.54C18.7 15.53 23.07 13 28 13s9.3 2.53 11.93 6.4a.4.4 0 0 1-.1.53.38.38 0 0 1-.53-.1A13.68 13.68 0 0 0 28 13.79ZM18.33 28c.2-.02.37.14.4.35.37 3.35 2.38 6.4 5.14 7.93.18.1.26.32.17.5-.09.2-.3.28-.48.18-3-1.64-5.16-4.94-5.56-8.55a.36.36 0 0 1 .33-.4Zm13.66 8.78a.4.4 0 0 1 .17-.5 10.5 10.5 0 0 0 5.12-7.94c.02-.2.2-.36.4-.34.2.02.34.2.32.4-.4 3.61-2.54 6.9-5.52 8.55-.18.1-.4.02-.49-.17ZM34 23.4c-.03.26.1.52.31.57L42.54 26c.21.05.41-.12.45-.39.04-.26-.1-.52-.3-.57L34.46 23c-.21-.05-.41.12-.45.39ZM22 23.4c.03.26-.1.52-.31.57L13.46 26c-.21.05-.41-.12-.45-.39-.04-.26.1-.52.3-.57L21.54 23c.21-.05.41.12.45.39Z" fill="#99D1A1" /><path d="M15.34 28a.4.4 0 0 1 .42.36c.29 2.68 1.42 5.1 3.11 6.97.14.16.14.4 0 .56a.36.36 0 0 1-.54 0c-1.81-2-3.02-4.6-3.33-7.47a.38.38 0 0 1 .34-.42Zm20.8 7.89a.41.41 0 0 1-.01-.56 12.36 12.36 0 0 0 3.11-6.97.4.4 0 0 1 .42-.36c.2.02.36.2.34.42a13.15 13.15 0 0 1-3.33 7.46.36.36 0 0 1-.54 0ZM24.22 31.01c-.16.05-.25.24-.21.42l2.9 12.6c.3 1.3 1.89 1.3 2.18 0l2.9-12.6c.04-.18-.05-.37-.21-.42-.16-.05-.32.06-.37.25l-2.9 12.6a.62.62 0 0 1-.18.33V31.36c0-.2-.14-.35-.3-.35-.16 0-.3.16-.3.35v12.87a.6.6 0 0 1-.25-.38l-2.9-12.6c-.04-.18-.2-.29-.36-.24ZM26 27.5a.5.5 0 1 1-1 0 .5.5 0 0 1 1 0ZM31 27.5a.5.5 0 1 1-1 0 .5.5 0 0 1 1 0ZM20 27.5a.5.5 0 1 1-1 0 .5.5 0 0 1 1 0ZM21 29.5a.5.5 0 1 1-1 0 .5.5 0 0 1 1 0ZM22 31.5a.5.5 0 1 1-1 0 .5.5 0 0 1 1 0ZM23 33.5a.5.5 0 1 1-1 0 .5.5 0 0 1 1 0ZM36 27.5a.5.5 0 1 0 1 0 .5.5 0 0 0-1 0ZM35 29.5a.5.5 0 1 0 1 0 .5.5 0 0 0-1 0ZM34 31.48a.48.48 0 1 0 .97 0 .48.48 0 0 0-.97 0ZM33 33.5a.5.5 0 1 0 1 0 .5.5 0 0 0-1 0ZM28.48 27.48a.48.48 0 1 1-.96 0 .48.48 0 0 1 .96 0Z" fill="#99D1A1" /><path fill-rule="evenodd" d="M25.45 15c-1.46.11-2.9.82-3.55 1.97-.61.12-1.2.26-1.68.43-.19.06-.27.25-.19.41.1.16.31.23.5.17.48-.16 1.07-.3 1.72-.42 1.89-.36 3.83-.57 5.75-.68 1.92.11 3.86.32 5.75.68.65.12 1.24.26 1.71.42.2.06.42-.01.5-.17.1-.16.01-.35-.18-.41a14.5 14.5 0 0 0-1.68-.43c-.66-1.15-2.1-1.86-3.55-1.97h-5.1Zm-.6 1.52c-.64.08-1.29.16-1.92.27.4-.43 1.08-.9 2.08-1.09l-.16.82Zm.77-.08.17-.8h1.82v.63a56 56 0 0 0-1.99.17Zm5.53.08c.64.08 1.29.16 1.92.27-.4-.43-1.08-.9-2.08-1.09l.16.82Zm-.77-.08-.17-.8H28.4v.63a56 56 0 0 1 1.99.17Z" fill="#99D1A1" /><defs><linearGradient id="av4mpavvz" x1="10.5" y1="7" x2="43" y2="51" gradientUnits="userSpaceOnUse"><stop stop-color="#4AA0F1" /><stop offset="1" stop-color="#2D55D7" /></linearGradient></defs></svg>