<?xml version='1.0' encoding='utf-8'?>
<!-- by TradeStack -->
<svg width="56" height="56" viewBox="0 0 56 56" xmlns="http://www.w3.org/2000/svg"><path fill="#F0F3FA" d="M0 0h56v56H0z" /><path d="M31.79 24.03c0 .19.06.46.2.82.09.26.12.61.1 1.07 0 .07-.04.1-.11.1l-3.04.03c-.15-.03-.24-.25-.27-.66-.7-.78-1.45-.97-2.25-.55-.53.28-.97.78-1.32 1.5a4.35 4.35 0 0 0-.02 4c.92.54 1.82.5 2.7-.11.24-.14.41-.34.52-.6.02-.08 0-.12-.08-.12h-1.3l.32-2.26c0-.08.05-.11.13-.11l4.68.01-.72 4.16a.47.47 0 0 1-.17.3 8.23 8.23 0 0 1-4.55 1.72c-.87.08-1.61.06-2.22-.04a4.82 4.82 0 0 1-2.15-1 3.98 3.98 0 0 1-1.14-2.44c-.11-1.16.02-2.27.4-3.33a6.9 6.9 0 0 1 1.65-2.66 6.26 6.26 0 0 1 2.65-1.58 6.78 6.78 0 0 1 3.38-.12 4 4 0 0 1 2.6 1.87ZM48.5 22.16l-1.83 11.07c-.01.07-.05.1-.13.1l-3.39-.01 1.86-11.22c.01-.07.05-.1.11-.1h3.27c.06 0 .1.03.1.08.04.1.04.12.01.08Z" fill="#010101" /><path d="m43.15 33.32 3.4.02c.07 0 .1-.04.12-.11l1.83-11.07c.41.06.57.38.47.96L47.18 33.9c0 .07-.04.1-.1.1h-3.24a.33.33 0 0 1-.2-.08 1.54 1.54 0 0 1-.49-.6ZM28.94 26.05l3.04-.02c.07 0 .1-.04.11-.11.02-.46-.01-.81-.1-1.07-.14-.36-.2-.63-.2-.82.59.68.86 1.5.82 2.49 0 .07-.04.1-.12.1h-3.08c-.22 0-.38-.2-.47-.57ZM28.68 25.4c-1.24-.32-2.14-.02-2.7.9a6.93 6.93 0 0 0-.9 4.04 4.35 4.35 0 0 1 .02-4c.35-.72.79-1.22 1.32-1.5.8-.42 1.55-.23 2.26.55ZM22.24 32.29c.66.53 1.38.86 2.15 1 .6.1 1.35.12 2.22.04a8.23 8.23 0 0 0 4.55-1.73c.1-.07.15-.17.17-.3l.72-4.15c.37.3.54.57.5.8-.25 1.36-.49 2.68-.7 3.97a.52.52 0 0 1-.2.34 8.36 8.36 0 0 1-3.41 1.52 8.94 8.94 0 0 1-3.73.04c-1-.2-1.76-.72-2.27-1.53Z" fill="#A3A3A3" /><path d="M43.04 23.34a3.33 3.33 0 0 1-.69 3.12c-.26.3-.55.56-.86.8-.05.03-.05.07 0 .1l.71.48.44.64c.17 1.13 0 2.12-.49 2.94a3.75 3.75 0 0 1-2.33 1.66c-.72.2-1.68.3-2.88.29l-4.61-.01 1.85-11.23c.01-.08.05-.12.13-.12 2.88-.02 4.87-.01 5.98.03.62.03 1.2.16 1.72.41.36.17.7.47 1.03.9Z" fill="#010101" /><path d="m42.2 27.84-.7-.47c-.06-.04-.06-.08-.01-.12.31-.23.6-.5.86-.8.74-.84.97-1.87.7-3.1.78.9.87 1.94.27 3.1a5.78 5.78 0 0 1-1.12 1.4ZM39.77 25.4l-1.83-.1c-.08 0-.13.04-.15.11-.13.36-.17.73-.14 1.1-.2.06-.39.06-.58.01-.08-.02-.1-.07-.1-.15l.26-1.57c.02-.08.07-.13.14-.13.56-.03 1.15-.02 1.76.03.47.04.68.27.64.7Z" fill="#A3A3A3" /><path d="M39.77 25.4c-.12.94-.83 1.32-2.12 1.12-.03-.38.01-.75.13-1.1.03-.08.08-.11.16-.11l1.83.08Z" fill="#fff" /><path d="M32.33 33.36h4.61c1.2.02 2.16-.08 2.88-.28a3.75 3.75 0 0 0 2.33-1.66c.5-.82.66-1.8.5-2.94.52.55.7 1.3.5 2.23-.16.8-.43 1.4-.8 1.82-.86.98-2.28 1.47-4.25 1.47h-4.95a.63.63 0 0 1-.44-.17 2.49 2.49 0 0 1-.38-.47ZM39.47 29.31l-2.22-.02c-.07 0-.12.03-.13.1l-.26 1.28a.74.74 0 0 1-.47.01c-.08-.03-.1-.08-.1-.17l.3-1.75c.01-.1.07-.15.16-.15.64-.02 1.28 0 1.92.07.5.04.77.25.8.63Z" fill="#A3A3A3" /><path d="M39.47 29.31c.04 1.12-.83 1.57-2.6 1.36l.25-1.27c.01-.08.05-.12.13-.11l2.22.02Z" fill="#fff" /><path d="M27.78 30.23c-.4-.13-.69-.37-.87-.72h1.3c.09 0 .11.04.09.11-.1.27-.28.47-.52.6Z" fill="#A3A3A3" /><path d="M19.94 21.5c-.92 2.17-1.81 4.35-2.68 6.55-.32.82-.59 1.43-.8 1.84a5.41 5.41 0 0 1-1.18 1.61c-.29.26-.58.33-.86.21-.27-.1-.47-.34-.6-.7a8.1 8.1 0 0 1-.39-2.14c0-.07.02-.13.07-.18 1.24-1.1 2.53-2.3 3.87-3.59.28-.27.5-.54.64-.83.1-.21.07-.24-.1-.09a36.57 36.57 0 0 1-3.59 2.87l.01-.02c.24-.2.47-.42.69-.65a.28.28 0 0 0 .08-.2l.26-4.7 1.94-2.45c.02-.04.05-.04.08 0l2.56 2.48Z" fill="#0762AF" /><path d="M6 34v-.89l9.36-11.62-.26 4.7c0 .07-.03.14-.08.2a8.42 8.42 0 0 1-.7.67h.03a36.6 36.6 0 0 0 3.56-2.88c.18-.15.2-.12.1.09-.15.29-.36.56-.64.83-1.34 1.3-2.63 2.5-3.87 3.6a.21.21 0 0 0-.07.17c.07.92.2 1.63.39 2.14.13.36.33.6.6.7.28.12.57.05.86-.2.42-.37.8-.9 1.18-1.62.21-.4.48-1.02.8-1.84.87-2.2 1.76-4.38 2.68-6.54.31-.12.6-.39.9-.8.05-.08.1-.08.16 0l1.7 2.17c.08.1.07.19-.04.27-1.16.83-2 1.9-2.5 3.2-.88 2.27-.93 5.37 1.03 7.14.12.1.21.23.28.38.03.07.01.1-.06.1L6 34Z" fill="#026BB5" /><path d="M19.73 25.44c-.04.22-.02.41.06.43.08.02.18-.15.22-.38.04-.22.02-.42-.06-.43-.08-.02-.18.15-.22.38ZM17.51 33.06c.02 0 .03.02.03.04v.01c0 .08-.16.16-.49.22-.32.05-.71.08-1.18.08h-.33c-.46 0-.85-.03-1.18-.1-.32-.05-.48-.12-.48-.2v-.02c0-.02 0-.03.03-.03h3.6Z" fill="#A3A3A3" /></svg>