<?xml version='1.0' encoding='utf-8'?>
<!-- by TradeStack -->
<svg width="56" height="56" viewBox="0 0 56 56" xmlns="http://www.w3.org/2000/svg"><path fill="#F0F3FA" d="M0 0h56v56H0z" /><path d="M33 30.77c0 5.34-5.46 13.71-8 17.23l.06-.04C28.69 45.78 38 40.2 38 30.76 38 21.3 34.14 20 32.8 20c-1.35 0-1.8.65-1.8 2.15 0 1.51 2 4.1 2 8.62Z" fill="#0E8DC0" /><path d="M24.22 18.46C22.2 23.4 21.97 31.86 23.01 36c-2.53-3.24-7.52-9.41-3.5-19.25 3.58-8.77 8.07-9.08 9.32-8.62 1.26.47 1.43 1.22.86 2.62-.57 1.4-3.76 3.53-5.47 7.71Z" fill="#3FA93A" /></svg>