<!-- by TradeStack --><svg width="56" height="56" viewBox="0 0 56 56" xmlns="http://www.w3.org/2000/svg"><path fill="#F0F3FA" d="M0 0h56v56H0z"/><path d="M32.33 31.39a8.38 8.38 0 0 0-1.3-.45l-2.8-.7a25.9 25.9 0 0 1-3.1-1.02 9.37 9.37 0 0 1-2.43-1.37 4.84 4.84 0 0 1-1.63-2.16c-.12-.34-.09-.7.09-1.05.16-.33.41-.59.76-.8.4-.23.84-.41 1.35-.55.23-.07.43-.18.6-.33 2.54.03 4.76 0 6.65-.1a24 24 0 0 0 2.48-.3c1.07-.16 2.04-.45 2.91-.85.3-.13.56-.31.82-.55.62-.56.82-1.2.6-1.9-.31-.95-1.46-1.74-3.44-2.36-1.5-.48-3.02-.8-4.58-.95a34.32 34.32 0 0 0-2.8-.2 79.37 79.37 0 0 0-3.92.07 4.5 4.5 0 0 1-.57.04c-.25 0-.5.01-.73.06-.16.03-.18 0-.07-.12a12.17 12.17 0 0 1 10.1-3.72 12.16 12.16 0 0 1 7.46 3.51 11.87 11.87 0 0 1 3.47 7.4c.27 3.48-.78 6.54-3.16 9.18a.44.44 0 0 1-.4.15c-2.13-.27-4.25-.58-6.36-.93Z" fill="#737373"/><path d="M15 21.82c0-.02 0-.03-.02-.03h-.04s-1.02.61-1.27.96a4.75 4.75 0 0 0-.82 4.02c.28 1.24.5 2.46 1.6 3.67 1.2 1.33 3.18 2.55 5.03 3.67a32.6 32.6 0 0 0 5.44 2.6 52.15 52.15 0 0 0 13.5 2.96c1.47.1 3 .19 4.58.24.65.02 1.3 0 1.93-.06l.07.01c-.21.05-.47.09-.65.1-1.6.12-2.77.18-4.28.18-.05 0-.07.02-.07.07v2.67c0 .06-.03.12-.09.12h-.81c-.06 0-.1-.04-.1-.1v-2.72c0-.02 0-.03-.03-.03-2.65 0-5.32-.22-7.95-.63-.03-.01-.05 0-.06.04l.01.03.03.05v4.3c0 .02-.03.04-.05.04-.22.02-.57.02-.9.01-.04 0-.05-.02-.05-.05v-4.55c0-.03-.02-.05-.05-.06a34.28 34.28 0 0 1-8.87-2.87c-.04-.01-.08 0-.08.04V43h-.97c-.02 0-.03-.01-.03-.03v-6.9a.12.12 0 0 0-.07-.1c-1.88-.98-4.33-2.22-5.9-3.7a.03.03 0 0 0-.04-.01l.01.03v5.58c0 .08-.07.13-.15.13h-.63c-.07 0-.22-.03-.22-.1v-6.45c0-.13.07-.25-.01-.35-1.17-1.44-1.48-2.88-1.85-4.35a6.24 6.24 0 0 1-.14-1.48c0-1.74.66-3.27 2.12-4.29.6-.4 1.28-.73 2.06-.95a9.05 9.05 0 0 1 2.32-.35c.43 0 .85-.07 1.27-.2a.27.27 0 0 0 .18-.15 13.38 13.38 0 0 1 1.78-2.88c.1-.11.09-.17-.07-.17a37.59 37.59 0 0 0-2.12-.01v-.03c0-.02 0-.03.03-.03 1.34-.08 2.36-.12 3.05-.1 1.77.06 3.38.16 4.84.3l1.27.19c.82.13 1.53.28 2.15.45 1.9.5 2.58 1.07 2.04 1.7-.42.48-1.16.78-2.23.9-.73.07-1.4.1-2 .11h-4.76a30.48 30.48 0 0 0-3.14.2 9.98 9.98 0 0 0-3.7 1 .12.12 0 0 0-.07.12V28c0 .02 0 .01-.03.01h-.85c-.02 0-.14 0-.14-.02v-6.16Z" fill="#95C83F"/><path d="M23.95 22.96c-.16.15-.36.26-.59.33-.5.14-.95.32-1.35.56-.35.2-.6.46-.76.8-.18.35-.2.7-.08 1.04.27.8.81 1.5 1.62 2.16.68.54 1.49 1 2.43 1.37 1.04.4 2.08.75 3.1 1.01l2.8.71c.45.11.89.26 1.3.45a98.49 98.49 0 0 1-8.03-1.78c-.64-.17-1.18-.33-1.6-.47-.92-.33-1.67-.65-2.25-.97a6.75 6.75 0 0 1-1.91-1.52c-.67-.78-.8-1.46-.42-2.04.32-.48.96-.85 1.9-1.1 1.24-.34 2.52-.52 3.84-.55Z" fill="#08A8B1"/><path d="M43.01 33.2c.12 0 .12.01 0 .04-.28.05-.7.09-1.25.1l-.56.03c-1.09.07-2.2.1-3.3.08a.3.3 0 0 0-.16.04 12.4 12.4 0 0 1-13.25 1.16 12.14 12.14 0 0 1-5.02-4.87c-.06-.1-.03-.14.09-.1 1.77.56 3.56 1.02 5.37 1.38 3.97.8 7.97 1.36 12 1.71l2.08.19c1.34.12 2.67.2 4 .24Z" fill="#95C83F"/></svg>