<?xml version='1.0' encoding='utf-8'?>
<!-- by TradeStack -->
<svg width="56" height="56" viewBox="0 0 56 56" xmlns="http://www.w3.org/2000/svg"><path fill="#F0F3FA" d="M0 0h56v56H0z" /><path fill-rule="evenodd" d="M14 33.16v2.13c-.02.34-.1 1.03-.77 1.03-.66 0-.9-.94-.93-1.32H8v2.7c.5.44 2.45 1.3 5.23 1.3 3.48 0 5.27-.95 5.27-4.15V25.22c.06-.21.15-.61.5-.7V22h-5v.95a4.78 4.78 0 0 0-2.91-.95C8.97 22 8 23.28 8 25.45v5.38c.02 1.06.69 3.17 3.2 3.17 1.28 0 2.19-.38 2.8-.84Zm0-2.65v-5.15c-.2-.12-.45-.2-.73-.2-.82 0-1.29.67-1.27 1v3.36c0 .73.6 1.23 1.27 1.23.34 0 .58-.12.73-.24ZM20 18v2.55c.18.16.44.63.44 1.31v10.6c.53.5 2.48 1.54 5.62 1.54C30 34 31 32.57 31 29.98v-4.62c.04-1.16-.46-3.36-3.39-3.36-1.49 0-2.4.46-2.65.75V18H20Zm5 7.34v5.46c.09.08.4.23.97.23.71 0 1.03-.38 1.03-1.13v-3.74c0-.35-.2-1.06-1.06-1.06a2 2 0 0 0-.94.24Z" fill="#6B727C" /><path d="M32 22v2.73c.48.16.98.63 1 .86v4.7c0 .48-.63.85-.92 1.02l-.08.05V34h6v-2.64c-.45-.24-.99-.81-1-1.06v-4.75a1.7 1.7 0 0 1 1.02-.39c.78 0 .99.76.98 1.14v4.89c0 1.3.15 2.42.24 2.81H44v-2.58c-.33-.1-.45-.56-.5-.77V25.9c0-.19 0-.37-.02-.55.2-.1.44-.18.69-.18.78 0 .84.76.83 1.14v4.89c0 1.21.26 2.25.37 2.71l.02.1H50v-2.58c-.3-.1-.39-.48-.44-.71l-.01-.06V25.9c0-2.57-1.1-3.89-3.32-3.89-1.5 0-2.85.72-3.44 1.2-.58-.8-1.49-1.2-2.7-1.2A4.7 4.7 0 0 0 37 23.06V22h-5Z" fill="#F18B1D" /></svg>