<!-- by TradeStack --><svg width="56" height="56" viewBox="0 0 56 56" xmlns="http://www.w3.org/2000/svg"><path fill="#F0F3FA" d="M0 0h56v56H0z"/><path d="M25.27 12.05c.34.14.5.53.37.88a3.3 3.3 0 0 0-.31 1.45 4 4 0 0 0 .59 1.61c.17.33.06.74-.26.92a.66.66 0 0 1-.9-.26 5.3 5.3 0 0 1-.75-2.17c-.05-.7.12-1.34.4-2.06a.66.66 0 0 1 .86-.37Zm2.76.06c.24-.16.6-.14.82.03.21.17.2.44-.04.6-.32.21-.5.35-.6.47-.07.09-.07.14-.03.22.1.22-.05.46-.35.54-.3.08-.63-.03-.74-.25-.17-.34-.1-.66.13-.93.19-.25.5-.47.81-.68Zm-6.16 2a.73.73 0 0 0-.7-.03c-.4.23-.7.52-.88.8-.19.28-.29.57-.29.81 0 .17.22.31.5.31s.5-.14.5-.31c0-.14.06-.35.21-.57.15-.22.36-.43.63-.58.2-.12.22-.31.03-.44Zm-6.78 4.37c.05-.13.2-.2.34-.14s.2.2.14.34c-.2.49-.33 1.14-.33 1.5 0 .15-.12.26-.27.26a.26.26 0 0 1-.26-.26c0-.43.15-1.15.38-1.7Zm-1.21 4c0-.27-.2-.48-.44-.48s-.44.21-.44.47a9.21 9.21 0 0 0 1.2 4.33c.14.21.42.26.62.11a.5.5 0 0 0 .1-.66 8.22 8.22 0 0 1-1.04-3.78Zm9.08 3.45c.3-.2.7-.15.92.14 1.53 2.01 5.03 6.05 9.04 8.25.32.17.43.57.26.88a.66.66 0 0 1-.9.24c-4.26-2.33-7.89-6.55-9.45-8.6a.64.64 0 0 1 .13-.9Zm9.24 4.25a.62.62 0 0 1 .91.03c.9 1 2.49 2.34 4.1 3.29.82.47 1.6.83 2.3 1.02.71.18 1.24.16 1.58 0 .32-.16.7 0 .85.33.15.34 0 .74-.31.9-.74.35-1.6.3-2.43.07-.85-.22-1.75-.64-2.61-1.14a19.82 19.82 0 0 1-4.42-3.54.7.7 0 0 1 .03-.96Zm3.86 6.39a.66.66 0 0 0-.9.21c-.2.3-.1.7.21.89a11.15 11.15 0 0 0 3.5 1.25c.4.06.84.08 1.22-.02.35-.1.56-.45.47-.8a.66.66 0 0 0-.8-.45c-.14.03-.37.04-.7 0a9.87 9.87 0 0 1-3-1.08Zm-6 4.68c.14-.25.42-.32.63-.17.7.5 1.91.88 2.86.88.25 0 .45.23.45.52 0 .29-.2.52-.45.52-1.1 0-2.47-.42-3.33-1.03-.22-.15-.28-.47-.15-.72Zm-12.71-11.1c.29-.21.7-.15.92.13 1.53 2 4.97 5.97 9.17 8.7.3.2.39.6.19.9-.2.3-.61.38-.91.18a41.24 41.24 0 0 1-9.5-9 .64.64 0 0 1 .13-.91Zm-4.23-2.62a.44.44 0 0 0-.54-.29.43.43 0 0 0-.3.54 16.45 16.45 0 0 0 2.59 4.52 45.5 45.5 0 0 0 5.07 5.64c.17.17.45.16.62 0a.42.42 0 0 0-.01-.61 44.63 44.63 0 0 1-4.97-5.54 15.7 15.7 0 0 1-2.46-4.26Zm1 5.53a.3.3 0 0 1 .4.15c.85 1.92 2.68 3.82 4.61 5.53.13.12.14.3.02.43a.31.31 0 0 1-.43.02c-1.93-1.72-3.86-3.7-4.77-5.74a.3.3 0 0 1 .16-.4Zm-.7 1.01a.27.27 0 0 0-.36-.1.26.26 0 0 0-.11.34c1.12 2.1 2.68 3.72 4.62 5.45.1.1.27.09.37-.02.1-.1.09-.27-.02-.36-1.92-1.72-3.43-3.28-4.5-5.3Zm-1.24-4.65c.11-.02.23.05.25.17.16.76.5 1.5.86 2.18.06.1.01.24-.1.3a.22.22 0 0 1-.29-.1 8.97 8.97 0 0 1-.9-2.3.22.22 0 0 1 .18-.25Zm20.65-16.28a.86.86 0 0 0-.9-.03c-.36.23-.67.46-.83.73-.17.3-.1.6.04.87.13.23.5.35.83.26.33-.08.5-.33.38-.56-.09-.16-.07-.22-.05-.25.04-.07.15-.18.5-.4.25-.16.27-.44.03-.62Zm2.55.98a.66.66 0 0 1 .8.03c.2.18.19.46-.03.63 0 0-.03.06-.02.2.02.18.1.43.24.7.3.56.81 1.15 1.4 1.5.25.15.3.44.12.64-.19.2-.54.24-.8.09a5 5 0 0 1-1.76-1.87 2.7 2.7 0 0 1-.32-1c-.03-.29.02-.67.37-.92Zm5.7 6.52a5 5 0 0 0-.22-.88c-.1-.28.01-.6.24-.72.23-.11.5.02.59.3.14.42.24.8.28 1.11.04.31.05.62-.03.88a.9.9 0 0 1-.5.61.88.88 0 0 1-.6 0 2.62 2.62 0 0 1-1.06-.75c-.3-.35-.6-.8-.75-1.3-.09-.29.03-.6.26-.7.23-.11.49.03.58.32a2.46 2.46 0 0 0 1.2 1.38l.03.01-.01-.26ZM40.8 18c.24.2.27.56.07.8a.55.55 0 0 1-.8.06c-.37-.32-.6-.56-.86-.83l-.08-.08c-.23-.25-.5-.54-.96-.97a.58.58 0 0 1-.02-.8.55.55 0 0 1 .8-.02c.46.44.75.75.98 1l.08.08c.25.26.46.46.8.76ZM19.07 40.07c.09-.1.23-.1.33 0 1.01 1 2.27 1.8 3.48 2.47.11.07.15.21.1.33a.23.23 0 0 1-.33.1 16.3 16.3 0 0 1-3.58-2.55.25.25 0 0 1 0-.35Zm5.26 2.94c-.13-.04-.27.03-.32.14-.04.12.03.25.16.3l.33.1c.8.26 1.41.45 2.25.45.14 0 .25-.1.25-.23s-.11-.23-.25-.23c-.75 0-1.27-.16-2.09-.42l-.33-.1Zm-2.08-3.75a.44.44 0 0 1 .62 0 18.64 18.64 0 0 0 5.62 3.52c.65.23 1.22.36 1.66.36.24 0 .44.2.44.43 0 .24-.2.43-.44.43-.6 0-1.27-.16-1.96-.42a19.5 19.5 0 0 1-5.93-3.71.42.42 0 0 1 0-.6Zm5.69-3.72a.67.67 0 0 0-.93 0 .64.64 0 0 0 0 .92c.91.9 2.78 2.2 4.68 3.22.95.52 1.94.98 2.84 1.28.87.3 1.76.5 2.49.36.35-.06.59-.4.53-.75a.66.66 0 0 0-.77-.52c-.37.07-1-.02-1.82-.3-.8-.28-1.72-.7-2.64-1.2-1.84-1-3.59-2.23-4.38-3Zm-6.54-18.5c.33-.12.7.03.84.34a28.8 28.8 0 0 0 3.2 5.08 27.07 27.07 0 0 0 5.3 5.44c.29.2.34.59.13.86a.67.67 0 0 1-.9.12c-2-1.44-3.98-3.62-5.57-5.7a29.88 29.88 0 0 1-3.35-5.34.6.6 0 0 1 .35-.8Zm-5.24 4.35a.66.66 0 0 0-.86-.35.64.64 0 0 0-.36.84 35.6 35.6 0 0 0 3.73 6.05c1.77 2.4 3.94 4.91 6 6.43.29.22.7.16.92-.12a.64.64 0 0 0-.13-.9c-1.9-1.4-3.97-3.8-5.72-6.17a34.57 34.57 0 0 1-3.58-5.78Zm12.17-6.3c.31-.19.7-.06.87.27a23.92 23.92 0 0 0 5.58 7.42c.27.25.3.7.06.98a.6.6 0 0 1-.9.07 25.27 25.27 0 0 1-5.86-7.8.73.73 0 0 1 .25-.94Zm5.24 1.7a.67.67 0 0 0-.91-.15c-.3.2-.36.6-.15.9 1.63 2.22 3.08 3.55 5.66 5.47.29.21.7.16.92-.13a.64.64 0 0 0-.13-.9c-2.5-1.87-3.86-3.11-5.39-5.2Zm2.87 7.6a.67.67 0 0 1 .93.02c.88.9 2.08 1.79 3.2 2.35.58.27 1.1.46 1.54.52.44.07.72.01.88-.09.31-.18.72-.1.91.21.2.3.1.7-.2.89-.55.33-1.2.36-1.8.27a6.86 6.86 0 0 1-1.9-.65c-1.29-.63-2.6-1.6-3.58-2.6a.64.64 0 0 1 .02-.92Zm3.52 5.69a.67.67 0 0 0-.87.21c-.18.28-.08.64.23.8.58.32 1.33.62 2.08.78.72.16 1.57.22 2.25-.1.31-.14.44-.49.28-.78a.67.67 0 0 0-.86-.26c-.26.12-.73.14-1.37 0a7.1 7.1 0 0 1-1.74-.65Zm2.32-5.57a.83.83 0 0 0-1.05.06c-.3.29-.3.76 0 1.05.23.21.51.3.75.35.24.04.5.04.73 0 .45-.09 1.07-.37 1.26-1.03a.74.74 0 0 0-.55-.91.8.8 0 0 0-.95.46.38.38 0 0 1-.14.02h-.05Zm-23.93-7.8a.65.65 0 0 0-.57-.7.65.65 0 0 0-.73.56c-.2 1.68.2 3.06 1.09 4.6.17.32.57.43.89.25a.64.64 0 0 0 .25-.87 5.87 5.87 0 0 1-.93-3.83Zm8.92 2.63a.69.69 0 0 0-.91-.26.64.64 0 0 0-.28.88c2.06 3.7 5.76 6.94 9.84 9.9.3.23.72.17.94-.12a.64.64 0 0 0-.13-.91c-4.04-2.95-7.55-6.05-9.46-9.49Z" fill="url(#an2y2b3os)"/><defs><linearGradient id="an2y2b3os" x1="17.22" y1="15.48" x2="40.62" y2="38.59" gradientUnits="userSpaceOnUse"><stop stop-color="#EFD224"/><stop offset=".2" stop-color="#B84DAC"/><stop offset=".54" stop-color="#3E09F1"/><stop offset="1" stop-color="#0076EE"/></linearGradient></defs></svg>