<?xml version='1.0' encoding='utf-8'?>
<!-- by TradeStack -->
<svg width="56" height="56" viewBox="0 0 56 56" xmlns="http://www.w3.org/2000/svg"><path fill="#F0F3FA" d="M0 0h56v56H0z" /><path d="M38.75 40.98c-8.36 3.8-13.36-1.58-14.82-4.75 10.94-2.54 14.82-9.66 14.82-15.2 0-4.44-3.47-7.84-5.2-8.98C41.43 14.65 45 22.15 45 29.09c0 5.56-4.16 10.24-6.25 11.89Z" fill="url(#ahsswb40s)" /><path d="M33.7 12.17c7.47 5.37 5.32 12.41 3.32 15.26-7.66-8.24-15.75-8.05-20.53-5.28-3.82 2.21-5.02 6.93-5.13 9.02-1.71-8.17 2.98-15.02 8.97-18.49 4.8-2.78 10.91-1.5 13.38-.51Z" fill="url(#bhsswb40s)" /><path d="M11.37 30.95c.9-9.17 8.05-10.83 11.5-10.51-3.27 10.78.93 17.72 5.71 20.49 3.83 2.21 8.5.9 10.35-.05-6.18 5.57-14.44 4.92-20.43 1.44-4.8-2.77-6.75-8.74-7.13-11.37Z" fill="url(#chsswb40s)" /><defs><linearGradient id="ahsswb40s" x1="40.53" y1="20.12" x2="31.25" y2="40.78" gradientUnits="userSpaceOnUse"><stop stop-color="#FAD719" /><stop offset="1" stop-color="#D88410" /></linearGradient><linearGradient id="bhsswb40s" x1="14.82" y1="21.06" x2="37.28" y2="18.75" gradientUnits="userSpaceOnUse"><stop stop-color="#FAD719" /><stop offset="1" stop-color="#D88410" /></linearGradient><linearGradient id="chsswb40s" x1="28.48" y1="42.93" x2="15.17" y2="24.61" gradientUnits="userSpaceOnUse"><stop stop-color="#FAD719" /><stop offset="1" stop-color="#D88410" /></linearGradient></defs></svg>