<?xml version='1.0' encoding='utf-8'?>
<!-- by TradeStack -->
<svg width="56" height="56" viewBox="0 0 56 56" xmlns="http://www.w3.org/2000/svg"><path fill="#F0F3FA" d="M0 0h56v56H0z" /><path d="M18 23.3 10 21l2.04 8L18 23.3Z" fill="#23426D" /><path d="M44 28a16 16 0 0 1-28.76 9.65l1.75-1a14 14 0 1 0-2.96-9.55l-2 1.79L12 28a16 16 0 1 1 32 0Z" fill="#23426D" /><path d="M12.15 30.2a15.9 15.9 0 0 0 2.47 6.58l1.75-1A13.93 13.93 0 0 1 14 28.55l-1.86 1.66Z" fill="#757577" /><path d="M29.87 30.35a2.99 2.99 0 0 1-3.77-.02L16 36l-1.13-1.91 10.15-5.7a3 3 0 1 1 5.95.03L40 34l-1.13 1.91-9-5.56Z" fill="#757577" /><path fill="#757577" d="M26 34h1v1h-1zM26 36h1v1h-1zM29 34h1v1h-1zM29 36h1v1h-1z" /></svg>