<?xml version='1.0' encoding='utf-8'?>
<!-- by TradeStack -->
<svg width="56" height="56" viewBox="0 0 56 56" xmlns="http://www.w3.org/2000/svg"><path fill="#F0F3FA" d="M0 0h56v56H0z" /><path d="M34.08 13c5.6 0 8.53 3.7 9.3 5.56-9.65-9.23-22.46 3.12-22.46 9.7 0 6.59 6.34 6.84 7.86 6.84 1.51 0 11.3-1.19 11.3-6.83 0-5.65-9.56-4.93-9.56-7.64a3.25 3.25 0 0 1 2.5-3.25c-2.34 3.07 1.69 3.63 4 3.52 2.32.13 6.98 1.35 6.98 5.25s-5.12 9.77-7.67 12.22l-20.77-5.3 18.09 6.66-18.1-4.63 16.97 5.93-16.15-4.45 13.97 5.07L16.37 38l11.85 4.39-11.3-2.66 9.12 3.15C15.1 44.02 12.12 36.81 12 33.06 12 20.84 27.1 13 34.08 13Z" fill="#CF2021" /></svg>