<?xml version='1.0' encoding='utf-8'?>
<!-- by TradeStack -->
<svg width="56" height="56" viewBox="0 0 56 56" fill="none" xmlns="http://www.w3.org/2000/svg">
<rect width="56" height="56" fill="#F0F3FA" />
<path d="M23.7328 16C17.7084 16 15.4008 21.9603 15 25C19.9148 21.0144 22.4461 22 31.3055 22C38.393 22 41.3883 16.083 42 13C38.5088 15.4647 35.6366 16.0996 32.5289 16.1665C29.9286 16.2225 27.1634 16 23.7328 16Z" fill="black" />
<path d="M26.1606 35C17.5188 35 14.4528 40.2647 14 43C21.6974 40.2078 22.9695 40.9964 33.0386 40.9964C43.1078 40.9964 43 32.7478 43 31C39.5933 35.2202 36.9628 35 26.1606 35Z" fill="black" />
<path d="M24.4897 33.3703C16.6392 33.3703 12.9981 39.7901 12.1588 43C10.8092 25.8041 18.2829 24.0076 25.7214 24C27.8905 23.9978 30.0566 24 32 24C40.608 24 42.9108 15.7307 43.6425 14C46.2248 36.7651 34.3028 33.3703 24.4897 33.3703Z" fill="url(#paint0_linear_228_4234)" />
<defs>
<linearGradient id="paint0_linear_228_4234" x1="41.7487" y1="29.5096" x2="18.1858" y2="19.7996" gradientUnits="userSpaceOnUse">
<stop stop-color="#D3744E" />
<stop offset="0.206482" stop-color="#DE8550" />
<stop offset="0.387126" stop-color="#DE734C" />
<stop offset="0.703725" stop-color="#DF8855" />
<stop offset="0.923146" stop-color="#CC6843" />
</linearGradient>
</defs>
</svg>