<?xml version='1.0' encoding='utf-8'?>
<!-- by TradeStack -->
<svg width="56" height="56" viewBox="0 0 56 56" xmlns="http://www.w3.org/2000/svg"><path fill="#979972" d="M0 0h56v56H0z" /><path d="M35.44 42a.75.75 0 0 1-.5-.2l-6.55-6.11-6.54 6.12a.75.75 0 0 1-1.06-.05.74.74 0 0 1 .04-1.05l5.29-5.18H12.75a.74.74 0 0 1-.75-.74c0-.4.34-.77.75-.77h13.21l-10.7-10.06a.74.74 0 0 1-.04-1.05.75.75 0 0 1 1.05-.05l11 10.2V11.74c0-.4.34-.74.75-.74s.75.33.75.74v21.4L40.5 22.87a.75.75 0 0 1 1.06.05c.28.3.26.77-.04 1.05L30.19 34.02h13.06c.42 0 .75.37.75.77 0 .41-.33.74-.75.74H30.44l5.5 5.18c.31.28.33.75.05 1.05a.75.75 0 0 1-.55.24Z" fill="#fff" /></svg>