<?xml version='1.0' encoding='utf-8'?>
<!-- by TradeStack -->
<svg width="56" height="56" viewBox="0 0 56 56" xmlns="http://www.w3.org/2000/svg"><path fill="#F0F3FA" d="M0 0h56v56H0z" /><path d="M50.28 26c1.12 0 1.72.77 1.72 2.2v2.22c0 .36-.17.58-.47.58-.28 0-.53-.22-.53-.58v-2.11c0-.85-.29-1.31-.95-1.31-.7 0-1.05.55-1.05 1.46v1.96c0 .36-.24.58-.53.58-.3 0-.47-.22-.47-.58v-5.84c0-.36.18-.58.47-.58.3 0 .53.22.53.58v2.09h.02c.28-.42.67-.67 1.26-.67ZM47 29.83c0 .12-.03.23-.1.32-.38.54-.98.85-1.69.85C43.9 31 43 29.99 43 28.5s.9-2.5 2.21-2.5c.62 0 1.16.24 1.57.7.1.1.13.23.13.37 0 .31-.17.52-.43.52a.43.43 0 0 1-.31-.14 1.25 1.25 0 0 0-.96-.45c-.74 0-1.25.61-1.25 1.5s.51 1.5 1.25 1.5c.41 0 .77-.17.98-.5.09-.11.2-.19.35-.19.28 0 .46.2.46.52ZM37.5 26c.34 0 .5.23.5.59v3.82c0 .37-.16.59-.5.59-.32 0-.5-.22-.5-.59v-.1h-.02c-.36.44-1 .69-1.7.69-1.37 0-2.28-1-2.28-2.5s.9-2.5 2.29-2.5c.7 0 1.33.25 1.7.7h.01v-.11c0-.36.18-.59.5-.59Zm-2 4c.84 0 1.5-.62 1.5-1.5s-.66-1.5-1.5-1.5c-.83 0-1.5.61-1.5 1.5s.67 1.5 1.5 1.5Z" fill="#316DC4" /><path d="M11.5 28.5c0-1.49 1.01-2.5 2.5-2.5 1.48 0 2.5 1.01 2.5 2.5S15.48 31 14 31a2.37 2.37 0 0 1-2.5-2.5Zm1 0c0 .89.66 1.5 1.5 1.5.85 0 1.5-.61 1.5-1.5S14.85 27 14 27c-.84 0-1.5.61-1.5 1.5ZM17 28.5c0-1.49 1.01-2.5 2.5-2.5 1.48 0 2.5 1.01 2.5 2.5S20.98 31 19.5 31a2.37 2.37 0 0 1-2.5-2.5Zm1 0c0 .89.66 1.5 1.5 1.5.85 0 1.5-.61 1.5-1.5s-.65-1.5-1.5-1.5c-.84 0-1.5.61-1.5 1.5ZM11 28.15v.1C11 30.05 9.62 31 7.6 31 5.46 31 4 29.58 4 27.5S5.47 24 7.6 24c1.2 0 2.18.43 2.76 1.13.1.11.14.25.14.41 0 .35-.24.59-.6.59a.59.59 0 0 1-.46-.2A2.38 2.38 0 0 0 7.6 25 2.56 2.56 0 0 0 5 27.5C5 28.92 6.22 30 7.6 30c1.17 0 1.99-.44 2.17-1.4H8.6c-.37 0-.6-.2-.6-.56 0-.34.23-.54.6-.54h1.73c.42 0 .67.24.67.65Z" fill="#3B3E40" /><path d="M42.78 30.74c.23-.14.28-.43.16-.66-.16-.3-.52-.29-.81-.14a.5.5 0 0 1-.2.06c-.52 0-.93-.42-.93-1.03V27h1.09c.36 0 .58-.15.58-.48 0-.34-.22-.52-.58-.52H41v-1.37c0-.4-.13-.63-.48-.63-.36 0-.52.23-.52.63V26h-.5c-.28 0-.5.25-.5.53s.22.47.5.47h.5v1.94c0 1.3.66 2.06 1.87 2.06.37 0 .66-.1.91-.26Z" fill="#316DC4" /><path d="M26.5 24c-.3 0-.5.25-.5.56V26h-.55A2.5 2.5 0 0 0 23 28.52c0 1.37 1.1 2.48 2.45 2.48h1.05a.5.5 0 0 0 .5-.5.5.5 0 0 0-.5-.5h-1.05c-.8 0-1.45-.67-1.45-1.48 0-.81.65-1.52 1.45-1.52h1.05c.28 0 .5-.18.5-.46v-1.98c0-.31-.2-.56-.5-.56Z" fill="#3B3E40" /><path d="M28.5 33c.3 0 .5-.25.5-.56V31h.55A2.5 2.5 0 0 0 32 28.48c0-1.37-1.1-2.48-2.45-2.48H28.5a.5.5 0 0 0-.5.5c0 .29.22.5.5.5h1.05c.8 0 1.45.67 1.45 1.48 0 .81-.65 1.52-1.45 1.52H28.5c-.28 0-.5.18-.5.46v1.98c0 .31.2.56.5.56Z" fill="#316DC4" /><path d="M26 28.5c0-.28.23-.5.52-.5h1.96c.29 0 .52.22.52.5s-.23.5-.52.5h-1.96a.51.51 0 0 1-.52-.5Z" fill="#316DC4" /></svg>