<!-- by TradeStack --><svg width="56" height="56" viewBox="0 0 56 56" xmlns="http://www.w3.org/2000/svg"><path fill="#F0F3FA" d="M0 0h56v56H0z"/><path d="M12.12 34.98s-1.33.08-2.44-.07a6.32 6.32 0 0 1-5.14-3.54c-.56-.85-.86-4.1 0-6 1.31-2.92 3.87-4.57 6.86-4.35.78.06 1.67.35 2.5.5.05 0 .09 0 .13-.02 2.12-1.22 3.53 2.83 2.4 4.26-.6.76-1.8.84-2.46.15-.81-.86-1.27-1.79-2.46-2.08-.52-.13-1.01-.02-1.48.33-1.77 1.33-1.16 4.8-.2 6.37.46.76 1.14 1.45 2.11 1.45.8 0 1.2-1.68.15-1.62-.55.04-1.02-.1-1.19-.73-.56-2.1 3.26-2.16 4.3-2.08.74.02 1.73.23 2.25.44 1.57.63.53 2.99-.3 2.15a.02.02 0 0 0-.02 0c-.72 2.87-2.38 4.44-5 4.84ZM38.81 34.85c-.65.16-3.77.47-5.49-.83-.96-.53-1.35-2.67-1.32-3.64.03-.83.44-1.2 1.25-1.1.35.03.89.97 1.17 1.45.64 1.07 2.2 1.9 3.3 1.2.6-.4.06-1.1-.38-1.24-.79-.27-1.55-.59-2.3-.96-.67-.34-1.22-1.06-1.73-1.64a3.98 3.98 0 0 1 .24-5.5c1.74-1.73 3.5-1.89 5.7-1.23.37.1.64.23.82.35.04.03.07.02.1 0 .48-.48.97-.45 1.48.1.88.96 2.01 3.57.09 4.07-.48.13-.81-.05-1.19-.43-.96-.96-1.69-1.75-2.82-1.75-.95.26-.43 1.47.46 1.77 2.2.73 4.54 1.46 4.8 4.35.24 2.8-2 4.5-4.18 5.03ZM43.73 33.78c-.3-1 1.21-1.41 1.27-2.39v-4.64c0-1.18-.11-1.97-.22-2.38-.17-.65-.79-.78-1.1-1.27-.31-.5-.22-.98.28-1.43.9-.82 3.66-.68 4.85-.61 1.02.06 2.3.27 2.18 1.73a.2.2 0 0 1-.06.13c-.25.28-.6.34-.81.6-.51.61-.5 1.49-.5 2.41v5.23c.04 1.1 1.52 1.45 1.37 2.42-.15.94-1.37 1.29-2.09 1.36-.32.03-4.6.4-5.17-1.16Z" fill="#2A4C7C"/><path d="M25.85 21c4.23 0 6.57 3.52 6.07 7.9-.37 3.16-2.4 5.84-5.36 6.1h-6.2c-1.36 0-3.01 0-2.74-1.79.06-.38.63-.43.89-.47.04-.01.07-.03.09-.08.2-.43.4-.95.4-1.09v-7.65c-.02-.8-1.78-.75-.97-2.33a.23.23 0 0 1 .09-.1 3 3 0 0 1 1.25-.49h6.48ZM27 28.9c.08-2.35 0-5.35-2.82-5.47-.05 0-.07.02-.08.06-.08.34-.1.57-.1.7v7.68c0 .1.02.22.08.37l.08.1c.68.44 1.07.4 1.63-.14A4.75 4.75 0 0 0 27 28.9Z" fill="#2A4C7C"/></svg>