<!-- by TradeStack --><svg width="56" height="56" viewBox="0 0 56 56" xmlns="http://www.w3.org/2000/svg"><path fill="#F0F3FA" d="M0 0h56v56H0z"/><path fill="#0094B5" d="M8 19h5v18H8z"/><circle cx="18" cy="22" r="3" fill="#0094B5"/><circle cx="26" cy="22" r="3" fill="#F9941C"/><circle cx="26" cy="34" r="3" fill="#F9941C"/><path fill-rule="evenodd" d="M48.96 30c.3-3.53-1.03-11-8.65-11C34.2 19 31 24 31 28.04 31 32.5 33.98 37 40.75 37c3.72 0 6.1-1.3 6.83-1.96l-1.89-3.3c-.56.47-2.33 1.26-4.94 1.26-3.28 0-4.53-1.95-4.75-3h12.96ZM36 27h9c-.27-1.33-1.55-4-4.42-4-2.88 0-4.25 2.67-4.58 4Z" fill="#0FAF4B"/></svg>