<!-- by TradeStack --><svg width="56" height="56" viewBox="0 0 56 56" xmlns="http://www.w3.org/2000/svg"><path fill="#F0F3FA" d="M0 0h56v56H0z"/><path d="m14.2 34-2.12-4h-.58v4H9V23h4.17c2.07 0 3.83 1.3 3.83 3.46 0 1.47-.95 2.73-2.35 3.18L17 34h-2.8Zm-2.7-6h1.52c.92 0 1.48-.56 1.48-1.43 0-.83-.66-1.57-1.48-1.57H11.5v3ZM21.5 25v2.5H26v2h-4.5V32H26v2h-7V23h7v2h-4.5ZM37 26.54c0 2.2-1.76 3.46-3.86 3.46H31.5v4H29V23h4.14C35.3 23 37 24.3 37 26.54ZM32.95 28c.97 0 1.55-.58 1.55-1.46S33.92 25 32.95 25H31.5v3h1.45ZM44.01 34c-3 0-5.01-2.65-5.01-5.5 0-2.86 2.02-5.5 5.01-5.5 3 0 4.99 2.65 4.99 5.5 0 2.83-1.99 5.5-4.99 5.5Zm0-2c2.02 0 2.49-1.95 2.49-3.5s-.47-3.5-2.49-3.5c-2.01 0-2.51 1.92-2.51 3.5S42 32 44.01 32Z"/></svg>