<!-- by TradeStack --><svg width="56" height="56" viewBox="0 0 56 56" xmlns="http://www.w3.org/2000/svg"><path fill="#F0F3FA" d="M0 0h56v56H0z"/><path d="m33.27 12.97.05.04c.04.02.04.05.01.08a.18.18 0 0 1-.13.06c-.45.03-.91.09-1.38.17a18.4 18.4 0 0 0-4.87-.4 13.55 13.55 0 0 0-6.99 2.56 9.03 9.03 0 0 0-1.57 1.4 8.62 8.62 0 0 0-1.37 1.6c-.07.1-.16.23-.27.42-.14.23-.26.4-.35.5-.18.19-.32.42-.41.7a6.4 6.4 0 0 0-.29 1.18c-.4.57-.7 1.2-.89 1.92a9.14 9.14 0 0 0-.22 4.9c.17.73.43 1.42.8 2.07.7 1.22 1.39 2.43 2.05 3.64-.12.16-.1.33.08.51.14.16.24.28.29.36l.77 1.38c.05.08.1.21.15.4.06.18.1.32.16.41l.78 1.34c.04.07.1.16.2.28.12.17.2.3.25.4.1.22.26.44.5.65a6.89 6.89 0 0 0 .75.57c.5.36 1.13.56 1.86.62.67.05 1.33-.03 1.98-.24.32-.1.81-.32 1.48-.66 0 .06-.03.1-.1.12a.16.16 0 0 0-.07.03c-.06.06-.08.13-.04.22.02.06.06.08.12.08l3.83-.15c.44-.01.88-.07 1.32-.16l1.09-.24c.32-.08.63-.2.92-.34.27-.14.56-.26.84-.36a10.03 10.03 0 0 0 2.83-1.57h.06l.43-.43.51-.49c.25-.2.47-.44.68-.7.03-.03.02-.05 0-.08-.01 0-.02-.02-.01-.03a2.9 2.9 0 0 0 .7-1.02c.01-.05.02-.1 0-.16-.03-.12 0-.2.1-.24.37-.2.52-.42.47-.67.66-.22 1.1-.67 1.28-1.34.03-.1.04-.2.04-.3l-.04-.29a1.87 1.87 0 0 1-.03-.42c0-.05-.02-.1-.07-.11a.22.22 0 0 0-.13-.01c.01 0 .03 0 .05-.04.42-.44.5-.9.23-1.38-.42-.78-.69-1.3-.8-1.58 0-.03.03-.03.07 0 .02 0 .03.02.04.04.02.07.03.07.04 0 0-.05.02-.1.05-.2a.92.92 0 0 0 .05-.2c.1-1.1.11-2.03.06-2.8a11.38 11.38 0 0 0-1.36-4.67l-.37-.74.39.02c.15.01.37.08.65.2.27.1.48.17.64.19.18.01.33.08.45.21.03.04.07.04.11.01.04-.03.07-.08.1-.17l1.65 3.29.27 1.4c-.03-.07-.07-.11-.1-.13-.06-.02-.1 0-.1.06a3.8 3.8 0 0 0-.05.68c0 .07.03.14.08.2.04.04.07.1.07.16 0 .12.02.28.05.5.05.28.06.5.06.66-.03.83-.11 1.63-.25 2.4-.03.19-.09.36-.17.53-.12.24-.19.48-.21.72-.03.26-.08.53-.17.8-.1.31-.2.63-.28.95 0 .03-.03.06-.06.08a10.35 10.35 0 0 1-.24.59c-.07.17-.12.34-.15.5-.05.24-.14.45-.25.65a.24.24 0 0 0-.03.14.87.87 0 0 1-.13.5c-.1.15-.17.31-.23.48-.06.18-.15.35-.25.52l-.04.03a.09.09 0 0 0-.07.07.64.64 0 0 1-.22.36.21.21 0 0 0-.08.11.34.34 0 0 1-.23.23.23.23 0 0 0-.13.12c-.1.17-.22.32-.36.45-.14.13-.25.26-.33.4a.93.93 0 0 1-.14.2.96.96 0 0 0-.16.23c-.06.12-.14.23-.24.33-.4.42-.8.75-1.2 1-.6.35-1.1.7-1.54 1.02-.19.13-.39.24-.6.3v.01c.02.01.03.03.03.05 0 .02-.02.03-.04.04-.21.09-.42.2-.6.35-.04.03-.05.02-.05-.02 0-.03-.04-.03-.12 0a12.24 12.24 0 0 1-4.03 1.38c-.16.03-.34.08-.56.16-.17.06-.36.1-.57.12-.18.02-.34.05-.5.1-.15.04-.3.07-.45.08-.68.03-1.35.04-2 .02-.04 0-.09 0-.14.02a.37.37 0 0 1-.17.01c-.67-.13-1.35-.26-2.05-.37-.65-.1-1.25-.25-1.81-.45a9 9 0 0 1-1.02-.47c-.32-.17-.66-.33-1.02-.49a6.69 6.69 0 0 1-1.12-.59c0 .02-.01.02-.03.03-.03.02-.06 0-.08-.02a.96.96 0 0 0-.25-.2c-.43-.26-.88-.51-1.32-.75a7.86 7.86 0 0 1-1.21-.79 12.56 12.56 0 0 1-1.92-1.91 4.68 4.68 0 0 1-.35-.53l-.33-.54a2.65 2.65 0 0 0-.19-.23 1.55 1.55 0 0 1-.2-.36c-.06-.14-.1-.23-.15-.3-.22-.34-.42-.7-.58-1.07-.17-.42-.34-.86-.5-1.33-.01-.05 0-.1.05-.12.02 0 .03-.02.03-.03a.24.24 0 0 0 0-.15c-.15-.5-.3-1-.48-1.5a9.03 9.03 0 0 1-.37-2.03c0-.14-.03-.28-.09-.4a.22.22 0 0 1-.01-.14c.06-.3.09-.61.1-.95 0-.17 0-.43.02-.77.02-.48.03-.84.02-1.09a2.96 2.96 0 0 1 .1-.65c.03 0 .04 0 .04-.04 0-.18.01-.34.04-.49 0-.02 0-.03-.02-.04-.03 0-.04-.02-.04-.05 0-.3.06-.64.14-1.04.03-.1-.02-.16-.14-.16a16.38 16.38 0 0 1 6.14-7.98 17.6 17.6 0 0 1 3.38-1.8c1.52-.63 3.08-.98 4.67-1.07a28 28 0 0 1 2.96 0c1.3.07 2.65.38 4.07.93Z" fill="#22672C"/><path d="m31.82 13.32-.3.08c-1.69.27-2.78.49-3.28.65a41.99 41.99 0 0 0-5.4 2.08c-1.87.88-3.9 2.17-6.11 3.88-.08.06-.15.13-.21.21l-.82 1.06c.06-.4.16-.8.29-1.18.09-.28.23-.51.4-.7.1-.1.22-.27.36-.5.11-.19.2-.33.27-.41.17-.2.32-.42.48-.64.17-.23.47-.56.89-.98l.37-.37c.33-.34.73-.68 1.2-1.02.36-.26.8-.55 1.33-.87.44-.27.99-.53 1.63-.76a13.54 13.54 0 0 1 4.03-.93c1.34-.1 2.96.02 4.87.4Z" fill="#59B02A"/><path d="M33.27 12.97c.13 0 .25.03.37.09.04.03.09.04.14.03a8.62 8.62 0 0 1 .54-.03c.73.05 1.5.05 2.29-.03.56-.05 1.16.01 1.77.19.1.02.26.05.46.07.3.03.5.07.63.13.1.05.28.1.51.17l.38.11c.73.27 1.26.5 1.6.69.5.28.92.65 1.27 1.1a.34.34 0 0 1-.36-.08c-.03-.02-.06-.02-.1 0a.06.06 0 0 1-.04.02.22.22 0 0 1-.1-.05c-.31-.25-.63-.41-.96-.47a.75.75 0 0 0-.82.35c-.27.41-.58.78-.95 1.12-.02.02-.02.02 0 .03l.04.01c.02.02.02.03 0 .05l-.6.82-2.08.02c-.2-.18-.45-.41-.72-.7-.41-.43-.85-.8-1.31-1.09l-.64-.41c-.57-.38-1-.65-1.3-.8-.2-.12-.51-.23-.94-.35l-.46-.13a.11.11 0 0 1-.07-.06.12.12 0 0 1 0-.1l.04-.1c.04-.1 0-.15-.1-.16l-.24-.01.3-.08c.47-.08.93-.14 1.38-.17.06 0 .1-.02.13-.06.03-.03.03-.06 0-.08l-.06-.04Z" fill="#E1E5E2"/><path d="m31.52 13.4.24.01c.1.01.14.06.1.15l-.05.11a.12.12 0 0 0 .08.16l.46.13c.43.12.74.23.95.34.3.16.72.43 1.3.8.27.2.48.33.63.42.46.3.9.66 1.31 1.1.27.28.51.51.72.69-1.64.15-2.96.3-3.95.46-1.43.22-2.7.51-3.8.87-1.17.38-2.11.71-2.83 1-.47.19-1 .43-1.56.72a66.45 66.45 0 0 0-2.07 1.13c-.64.35-1.25.75-1.81 1.19-.2.16-.5.34-.88.54a4.7 4.7 0 0 0-1.04.75c-.33.33-.56.7-.67 1.1-.44-.25-.9-.45-1.38-.61a3.05 3.05 0 0 0-.67-.1c-.3-.03-.51-.12-.64-.3.05-.54.13-1.05.25-1.54.05-.22.1-.45.12-.67.06-.36.2-.7.45-1a.07.07 0 0 0 .02-.05.07.07 0 0 0-.03-.05l-.04-.03h-.05c-.38.47-.68.9-.9 1.3-.15.27-.32.54-.5.79a.96.96 0 0 0-.17.44c0 .05-.03.08-.09.08-.11.02-.18-.03-.2-.13.17-.71.47-1.35.88-1.92l.82-1.06c.06-.08.13-.15.2-.2 2.21-1.72 4.25-3.01 6.11-3.9a41.98 41.98 0 0 1 5.4-2.07c.5-.16 1.6-.38 3.3-.65Z" fill="#fff"/><path d="M43.23 15.48a3.14 3.14 0 0 1 .88.91c.26.5.45.88.55 1.13.17.4.28.8.32 1.17.04.3 0 .77-.11 1.4a3.98 3.98 0 0 0-1.12-1.65c-.33-.29-.64-.42-.94-.4a7.63 7.63 0 0 0-1.54-.47 6.27 6.27 0 0 0-1.36-.04c0-.17-.2-.25-.58-.24l.62-.82v-.05a.07.07 0 0 0-.05-.01 5.68 5.68 0 0 0 .95-1.14c.2-.3.47-.42.82-.36.33.06.65.22.95.47.03.03.07.04.1.05.03 0 .04 0 .06-.02.03-.02.06-.02.09 0 .1.1.22.12.36.07Z" fill="#C4CDC8"/><path d="M39.33 17.3c.39-.02.58.06.59.23a10.1 10.1 0 0 1 1.52 2c.05.1.13.17.24.21.08.13.12.23.14.32-.03.09-.06.14-.1.17-.04.03-.08.03-.11 0a.68.68 0 0 0-.45-.22 2.26 2.26 0 0 1-.64-.2 2.22 2.22 0 0 0-1.04-.21c-1.3-.16-2.3-.24-3.02-.22l-3 .08c-1.63.05-3.4.39-5.3 1-2 .66-3.35 1.18-4.04 1.55l-1.58.87-.93.4c-.3.13-.6.3-.88.52-.44.28-.79.59-1.05.93-.31.4-.45.8-.4 1.2.04.35.2.8.5 1.34.12.2.27.52.47.94.27.6.5 1.03.68 1.3.13.2.3.52.48.94.2.44.36.76.5.96.23.34.4.66.5.98.05.14-.01.21-.2.2-.2-.34-.51-.87-.9-1.58l-.6-1.07c-.19-.34-.38-.68-.55-1.02l-.57-1.03c-.32-.54-.54-.96-.68-1.24a2.58 2.58 0 0 1-.26-1.59c.11-.4.34-.76.67-1.09a4.7 4.7 0 0 1 1.04-.75c.38-.2.68-.38.88-.54a14.09 14.09 0 0 1 2.36-1.5l1.52-.82c.57-.3 1.09-.53 1.56-.72.72-.29 1.66-.62 2.84-1 1.1-.36 2.36-.65 3.8-.87.98-.15 2.3-.3 3.94-.46l2.07-.02Z" fill="#374723"/><path d="M42.81 18.05a4.92 4.92 0 0 1-1.13 1.7.48.48 0 0 1-.24-.21c-.44-.75-.95-1.42-1.52-2.01a6.27 6.27 0 0 1 1.35.03c.42.08.93.24 1.54.49Z" fill="#fff"/><path d="M44.87 20.08a7.95 7.95 0 0 1-1.4 3.27l-1.65-3.29a.83.83 0 0 0-.14-.32c.48-.46.86-1.03 1.13-1.7.3-.02.61.11.94.4.53.48.9 1.03 1.12 1.64Z" fill="#374247"/><path d="M39.48 19.6a10.87 10.87 0 0 1 .56 1.16A11.38 11.38 0 0 1 41.21 25c.05.77.03 1.7-.06 2.8 0 .05-.02.12-.05.2a.84.84 0 0 0-.05.2c-.01.07-.02.07-.04 0a.08.08 0 0 0-.04-.04c-.04-.03-.06-.03-.07 0l-2.22-3.77c-.16-.32-.34-.63-.53-.92l-.52-.81-.58-1.06c-.24-.46-.43-.8-.57-1.03a.37.37 0 0 0-.2-.16.48.48 0 0 0-.24-.03c-2.07.33-4.03.8-5.9 1.44-.64.22-1.33.5-2.07.85-.25.12-.72.3-1.4.54a10.4 10.4 0 0 0-1.4.65.3.3 0 0 1 0 .04c-.12.02-.15.12-.08.28.11.29.38.78.81 1.46.25.4.55.96.9 1.68-.04.16 0 .27.1.33.04.02.05.05.02.1l-.02.04c-.03.05-.07.06-.11.01-.05-.04-.1-.04-.15 0-.04.04-.08.05-.12.02a3.98 3.98 0 0 0-.49-.23.91.91 0 0 1-.26-.16.48.48 0 0 0-.29-.12.2.2 0 0 1-.12-.06c-.18-.16-.38-.3-.59-.41-.7-.37-1.36-.76-1.98-1.19a3.4 3.4 0 0 1-.7-.65c-.25-.3-.55-.54-.9-.7-.2-.1-.37-.23-.5-.39v.02l-.03.02c-.02 0-.02 0-.03-.02a.2.2 0 0 1 0-.14c.28-.21.57-.39.88-.52l.93-.4c.52-.3 1.05-.58 1.58-.87.7-.37 2.04-.89 4.05-1.54 1.9-.62 3.66-.96 5.28-1.01l3.01-.08c.72-.02 1.73.06 3.02.22Z" fill="#8ECB38"/><path d="M38.68 24.4c-.1.12-.26.17-.44.14-.05 0-.1 0-.14.02a.54.54 0 0 0-.26.22c-.06.1-.14.2-.24.28-.17.15-.4.4-.7.73-.27.3-.48.51-.63.65-.31.3-.63.57-.95.85a.55.55 0 0 1-.15.07c-.04.01-.06.04-.06.09 0 .06-.04.1-.1.13l-1.12-1.96c-.05-.09-.12-.12-.22-.09a33.49 33.49 0 0 0-5.54 2.34c-.12.06-.3.13-.55.21l-.14-.06-2.18-4.11a.3.3 0 0 0 .02-.04l.03-.03c.48-.25.93-.46 1.37-.62.67-.24 1.14-.42 1.39-.54a19.8 19.8 0 0 1 2.08-.85 35.27 35.27 0 0 1 5.89-1.44c.08-.01.17 0 .25.03.08.03.15.08.2.16l.56 1.03a18.3 18.3 0 0 0 1.1 1.87c.19.3.37.6.53.92Z" fill="#fff"/><path d="m15.96 24.06-.14.45c-.05.16-.06.31-.05.46l.08 1.16c0 .08.04.14.1.2.05.06.12.09.2.1a.1.1 0 0 1 .09.05c.05.08.13.15.22.21.4.24.8.48 1.2.7.35.2.72.38 1.1.52.05.01.1.02.15 0 .14-.01.24.04.3.17.14.27.29.53.45.76.07.1.14.2.19.3.05.11.11.21.18.31.1.15.18.31.25.47.13.3.3.58.52.84.17.19.3.4.42.64l.35.7c.06.12.1.25.13.38.03.14.08.25.18.35a.2.2 0 0 1 .06.14c0 .22-.04.42-.14.58-.33.53-.68 1.04-1.04 1.52a.18.18 0 0 0-.04.14c0 .03 0 .05-.02.08a7.6 7.6 0 0 1-.6.82c-.1.12-.18.28-.26.47a.34.34 0 0 1-.09.13.62.62 0 0 0-.19.69l-2.12-3.59a189.6 189.6 0 0 0-2.05-3.64 7.38 7.38 0 0 1-.8-2.06c-.37-1.66-.3-3.3.22-4.9.03.1.1.14.21.12.06 0 .09-.03.1-.08.01-.16.07-.31.17-.44.17-.25.34-.52.5-.8.2-.39.5-.82.9-1.29h.04l.04.03.03.05c0 .02 0 .04-.02.05-.25.3-.4.64-.45 1-.03.22-.07.45-.12.67-.12.49-.2 1-.25 1.54Z" fill="#C4CDC8"/><path d="M12.05 22.89c.12 0 .17.05.14.16-.08.4-.13.74-.14 1.04 0 .03 0 .05.04.05.02 0 .03.02.02.04-.03.15-.04.31-.04.5 0 .02-.01.03-.04.04v-.01c-.02-.02-.03-.02-.03 0l-.02.15c-.04.22-.06.39-.05.5 0 .25 0 .6-.02 1.09l-.03.77c0 .34-.03.65-.09.95l.01.13c.06.13.08.27.09.41l.03.36c.1.73.2 1.28.34 1.67l.48 1.5c.02.05.02.1 0 .15l-.03.03c-.05.03-.06.07-.04.12.15.47.32.91.5 1.33.15.38.35.73.57 1.08.04.06.1.15.15.29.08.17.14.3.2.36l.19.23.33.54c.12.2.24.38.35.53.57.7 1.2 1.34 1.92 1.91.33.27.73.53 1.2.79l1.33.74c.1.06.18.13.25.21.02.03.05.04.08.02.02 0 .03-.01.03-.03h.03c.34.23.7.43 1.1.6.35.15.69.3 1.01.48.45.23.8.39 1.02.47.56.2 1.16.35 1.81.45.7.11 1.38.24 2.05.37.04.01.1 0 .17-.01.05-.02.1-.03.14-.02.65.02 1.32 0 2-.02.15-.01.3-.04.45-.08.16-.05.33-.08.5-.1.21-.02.4-.06.57-.12.22-.08.4-.13.56-.16.36-.06.73-.12 1.08-.2.32-.06.8-.2 1.43-.43l.57-.2a3.6 3.6 0 0 0 .95-.55c.08-.03.12-.03.12 0 0 .04.01.05.05.02.18-.14.39-.26.6-.35l.04-.04c0-.02 0-.04-.03-.05.21-.07.41-.18.6-.31.43-.33.94-.67 1.53-1.02.4-.25.81-.58 1.21-1 .1-.1.18-.2.24-.33.04-.08.1-.16.16-.23.05-.06.1-.12.14-.2.08-.14.19-.27.33-.4s.26-.28.36-.45c.03-.06.07-.1.13-.12.12-.04.2-.11.23-.23a.21.21 0 0 1 .08-.1c.11-.1.19-.22.22-.37 0-.04.03-.06.07-.07.02 0 .03-.02.04-.03.1-.17.19-.34.25-.52.06-.17.14-.33.23-.48.1-.15.14-.32.13-.5 0-.05 0-.1.03-.14.11-.2.2-.41.25-.64.03-.17.08-.34.15-.51a10.31 10.31 0 0 0 .24-.6.13.13 0 0 0 .06-.07l.28-.95c.09-.27.14-.54.17-.8.02-.24.1-.48.2-.72.1-.17.15-.34.18-.52.14-.78.22-1.58.25-2.41 0-.16-.01-.38-.06-.66a5.39 5.39 0 0 1-.05-.5.26.26 0 0 0-.07-.16.29.29 0 0 1-.08-.2c0-.21.01-.44.05-.68 0-.06.04-.08.1-.06.03.02.07.06.1.12.59 2.64.56 5.3-.09 7.99a8.8 8.8 0 0 1-.7 1.99l-.54 1.14a16.14 16.14 0 0 1-4.19 5.27 16.08 16.08 0 0 1-4.81 2.77c-1.55.56-3 .9-4.38 1.03-1.69.16-3.38.04-5.06-.36-1.33-.31-2.6-.76-3.78-1.35a16.84 16.84 0 0 1-8.78-10.95c-.2-.74-.33-1.74-.41-2.97v-1.52c.07-.98.18-1.82.32-2.5.16-.86.41-1.66.73-2.4Z" fill="#0E4720"/><path d="M20.73 23.8a.2.2 0 0 0 0 .14c0 .02.02.02.03.02l.03-.02v-.02c.13.16.3.3.5.39.35.16.65.4.9.7.2.25.44.47.7.65.62.43 1.28.82 1.98 1.19.21.1.4.25.59.41a.2.2 0 0 0 .12.06c.11 0 .2.05.3.12.07.06.15.12.25.16l.5.23c.03.03.07.02.1-.01.06-.05.1-.05.16 0 .04.04.08.03.11-.02l.02-.04c.03-.05.02-.08-.02-.1-.1-.06-.14-.17-.1-.33.14.28.33.51.54.69l.14.06c-.1.09-.04.17.17.23.05.02.09.05.1.1l.28.6a.1.1 0 0 0 .07.06.1.1 0 0 0 .08 0A14 14 0 0 1 30.55 28c1.04-.37 2.13-.72 3.25-1.05.26-.07.46 0 .59.25l.65 1.2c-1.15.4-2.3.85-3.46 1.32-.47.2-1.13.53-1.99 1l-.72.4a16.45 16.45 0 0 0-1.68 1.02l-1 .68c-.37.26-.68.5-.95.74-.23.2-.51.4-.84.55-.51.26-.96.2-1.34-.18-.16-.16-.44-.6-.84-1.34.18.01.24-.06.2-.2-.11-.32-.28-.64-.51-.98-.14-.2-.3-.52-.5-.96a6.79 6.79 0 0 0-.48-.94c-.18-.27-.41-.7-.68-1.3a15 15 0 0 0-.46-.94c-.3-.55-.47-1-.51-1.34-.05-.4.09-.8.4-1.2.26-.34.61-.65 1.05-.93Z" fill="#77B841"/><path d="m25.26 23.9 2.18 4.12a2.2 2.2 0 0 1-.55-.69c-.34-.72-.64-1.28-.89-1.68-.43-.68-.7-1.17-.81-1.46-.07-.16-.04-.26.07-.28Z" fill="#22672C"/><path d="M15.96 24.06c.13.18.34.27.64.3.33.02.55.06.67.1.48.16.94.36 1.38.6-.09.53 0 1.06.26 1.59.14.28.36.7.68 1.25l.57 1.02c.17.34.36.68.55 1.02l.6 1.07c.39.71.7 1.24.9 1.58.41.74.7 1.18.85 1.34.38.38.83.44 1.34.19.33-.17.6-.35.84-.56.27-.23.58-.48.95-.74a36.87 36.87 0 0 1 3.4-2.1c.86-.47 1.52-.8 2-1 1.14-.47 2.3-.91 3.45-1.32l.26-.15a.13.13 0 0 0 .07-.1c0-.04 0-.08-.04-.1-.15-.15-.25-.3-.32-.47.06-.03.1-.07.1-.13 0-.05.02-.08.06-.1a.55.55 0 0 0 .15-.06l.95-.85c.15-.14.36-.35.63-.65.3-.34.53-.58.7-.73.1-.08.18-.18.24-.28.06-.1.14-.17.26-.22a.26.26 0 0 1 .14-.02c.18.03.33-.02.44-.14l2.22 3.77c.11.28.38.8.8 1.58.27.48.19.94-.23 1.38a.92.92 0 0 1-.03-.59.72.72 0 0 0 0-.45c-.09-.25-.2-.48-.34-.7a4.47 4.47 0 0 1-.35-.73c-.11-.3-.26-.6-.43-.9a.66.66 0 0 0-.34-.3.18.18 0 0 0-.14.01c-.43.2-.72.38-.85.52-.39.42-.77.77-1.15 1.06a.56.56 0 0 1-.22.1.3.3 0 0 0-.13.07c-.4.39-.73.66-.98.83-.35.22-.65.46-.92.7-.27.26-.56.48-.85.67a22.52 22.52 0 0 0-1.8 1.3.52.52 0 0 1-.12.12 81 81 0 0 0-1.4.97 7 7 0 0 0-.94.78l-.88.89c-.2.22-.4.45-.6.7-.18.25-.39.47-.63.67a.06.06 0 0 0-.02.05l.01.05c.04.05.02.08-.06.1-.1 0-.15.09-.14.22-.72.65-1.51 1.2-2.37 1.63-.58.3-1.15.49-1.7.58a6.1 6.1 0 0 1-1.76 0 3.3 3.3 0 0 1-1.6-.74 4.8 4.8 0 0 1-1.17-1.34.62.62 0 0 1 .2-.7.34.34 0 0 0 .08-.12c.08-.2.17-.35.26-.47.23-.27.43-.54.6-.82a.14.14 0 0 0 .02-.08c0-.05 0-.1.04-.14.36-.48.7-.99 1.04-1.52.1-.16.15-.36.14-.58a.2.2 0 0 0-.06-.14.63.63 0 0 1-.18-.35 1.37 1.37 0 0 0-.13-.38 28.7 28.7 0 0 1-.35-.7 2.82 2.82 0 0 0-.42-.64c-.22-.26-.4-.54-.52-.84a2.7 2.7 0 0 0-.25-.47 2.5 2.5 0 0 1-.18-.3 2.4 2.4 0 0 0-.19-.31 5.22 5.22 0 0 1-.45-.76c-.06-.13-.16-.18-.3-.16l-.14-.01c-.4-.14-.76-.31-1.12-.52l-1.18-.7a.66.66 0 0 1-.23-.21.1.1 0 0 0-.09-.05.31.31 0 0 1-.2-.1.32.32 0 0 1-.1-.2l-.08-1.16c-.01-.15 0-.3.05-.46l.14-.45Z" fill="#E1E5E2"/><path d="M35.01 27.58c.07.17.17.32.32.46.03.03.05.07.04.12 0 .04-.03.07-.07.1l-.26.14-.65-1.2c-.13-.24-.33-.32-.59-.25-1.12.33-2.2.68-3.25 1.05a14 14 0 0 0-2.27 1.06.1.1 0 0 1-.08.01.1.1 0 0 1-.07-.06l-.27-.6a.16.16 0 0 0-.1-.1c-.22-.06-.28-.14-.18-.23.25-.08.43-.15.55-.21a33.49 33.49 0 0 1 5.54-2.34c.1-.03.17 0 .22.09l1.12 1.96Z" fill="#374723"/><path d="M41.47 31.13a3 3 0 0 1-1.1.7 104 104 0 0 1-3.67 1.08c-.64.18-1.5.54-2.57 1.07-.2.1-.4.18-.63.24-.57.16-1.06.36-1.48.6l-1.24.7c-.37.21-.92.57-1.64 1.08l-.98.67c0-.13.04-.21.14-.23.08-.01.1-.04.06-.1a.1.1 0 0 1-.01-.04c0-.02 0-.04.02-.05.24-.2.45-.42.64-.67.18-.25.38-.48.6-.7l.87-.89a7 7 0 0 1 .93-.78 81 81 0 0 1 1.41-.97.52.52 0 0 0 .12-.11 22.5 22.5 0 0 1 1.8-1.3c.3-.2.57-.42.85-.67.27-.25.57-.49.92-.71.25-.17.58-.44.98-.83a.3.3 0 0 1 .13-.07.56.56 0 0 0 .22-.1c.38-.29.76-.64 1.15-1.06.13-.14.42-.32.85-.52.04-.02.1-.02.14 0 .14.05.26.15.34.29.17.3.32.6.43.9.1.26.22.5.35.73.14.22.25.45.34.7.05.13.05.28 0 .45a.92.92 0 0 0 .03.59Z" fill="#C4CDC8"/><path d="M41.42 31.17h.13c.05.03.08.07.07.12 0 .1 0 .25.03.42l.04.28a1.86 1.86 0 0 1-1.32 1.65c-.8.22-1.57.4-2.32.54l-1.22.24c-.43.1-.83.21-1.2.36a36.64 36.64 0 0 0-4.48 2.05c-.09.04-.2.12-.36.22-.17.12-.3.2-.4.25a11.38 11.38 0 0 0-1.72 1.14l-.48.36a12 12 0 0 1-1.5 1.03c-.67.34-1.16.56-1.48.66-.65.2-1.3.29-1.98.24a3.65 3.65 0 0 1-1.95-.68 6.9 6.9 0 0 1-.67-.5c-.23-.22-.4-.44-.49-.66-.04-.1-.13-.23-.25-.4-.1-.12-.16-.21-.2-.28l-.78-1.34c-.05-.09-.1-.23-.16-.42a2 2 0 0 0-.15-.4l-.77-1.37a2.1 2.1 0 0 0-.3-.36c-.17-.18-.2-.35-.07-.5l2.12 3.58c.3.52.7.97 1.17 1.34a3.3 3.3 0 0 0 1.6.74 6.1 6.1 0 0 0 1.76 0 5.73 5.73 0 0 0 1.7-.58c.86-.44 1.65-.98 2.37-1.63l.97-.67a23.55 23.55 0 0 1 2.89-1.78c.42-.24.91-.44 1.48-.6.23-.06.44-.15.63-.24 1.08-.53 1.93-.89 2.57-1.07 1.75-.49 2.97-.85 3.67-1.08a3 3 0 0 0 1.05-.66Z" fill="#293923"/><path d="M40.37 33.64c.05.25-.1.48-.48.67-.09.04-.12.12-.09.24.02.05.01.1 0 .16a2.9 2.9 0 0 1-.7 1.02v.03c.03.03.04.05.01.08-.2.26-.43.5-.68.7-.12.1-.29.27-.5.5a9.06 9.06 0 0 1-.46.42h-.06c-.88.7-1.81 1.21-2.81 1.57-.28.1-.57.22-.84.36-.29.15-.6.26-.92.34-.37.09-.73.17-1.1.24-.43.1-.87.15-1.31.16l-3.83.15a.12.12 0 0 1-.12-.08c-.04-.09-.02-.16.04-.22a.16.16 0 0 1 .06-.03c.08-.02.12-.06.1-.12a12 12 0 0 0 1.5-1.03 16.75 16.75 0 0 1 .85-.61c.6-.44 1.05-.73 1.37-.9.09-.04.22-.12.39-.24l.36-.23a36.61 36.61 0 0 1 4.48-2.04c.37-.15.77-.27 1.2-.36l1.22-.24a28 28 0 0 0 2.32-.54Z" fill="#398B35"/></svg>