<?xml version='1.0' encoding='utf-8'?>
<!-- by TradeStack -->
<svg width="56" height="56" viewBox="0 0 56 56" xmlns="http://www.w3.org/2000/svg"><path fill="#F0F3FA" d="M0 0h56v56H0z" /><path fill-rule="evenodd" d="m35.45 21.5.88.5 2.67-.8c-.08-.73-.68-2.2-2.39-2.2-2.04 0-2.61 1.43-2.61 2.5s.91 2.5 2.61 2.5c1.36 0 1.89-.5 1.98-.74l-.88-1.02c-.08.18-.42.54-1.1.54-.85 0-1.16-.6-1.16-1.28Zm.31-.68h1.64c0-.23-.29-.6-.79-.6s-.85.39-.85.6ZM41.45 21.5l.88.5 2.67-.8c-.08-.73-.68-2.2-2.39-2.2-2.04 0-2.61 1.43-2.61 2.5s.91 2.5 2.61 2.5c1.36 0 1.89-.5 1.98-.74l-.88-1.02c-.08.18-.42.54-1.1.54-.85 0-1.16-.6-1.16-1.28Zm.31-.68h1.64c0-.23-.29-.6-.79-.6s-.85.39-.85.6Z" fill="#E51205" /><path d="m22.57 17-.29 4.72 4.72-.9-3.93 2.72 3.67 3.06-4.62-1.33-.14 4.73-1.82-4.38-3.85 2.84 2.34-4.14L14 23.13l4.74-.77-1.95-4.33 3.57 3.17 2.21-4.2Z" fill="#E51205" /><path d="m19.96 29 1.35 3.39 2.98-2.15-1.84 3.16 3.55.97-3.65.54 1.45 3.35-2.7-2.47L19.35 39l.28-3.63-3.63.65 3.05-2.06-2.78-2.39 3.52 1.07.17-3.64ZM35.78 27.03l.82 2.46c-4.79 0-5.6 1.2-5.6 3.01 0 1.81 2.06 3.1 3.4 3.1 1.08 0 2.18-.08 2.6-.12-.2.45-.76 1.59-1.37 2.52-6.04 0-7.63-2.64-7.63-5.6 0-4.79 5.19-5.58 7.78-5.37Z" fill="#E51205" /><path d="m11.9 25 1.38 3.38 2.97-2.18-1.82 3.18 3.57.93-3.65.58 1.48 3.33-2.72-2.44L11.38 35l.25-3.63-3.63.68 3.03-2.08-2.8-2.37 3.54 1.04.13-3.64ZM38 27h7l1 2.5h-5v2h4.54L45 34h-4v4h-3V27ZM32.29 18l.5 1.13c-1.42 0-3.29.58-3.29 2.09 0 1.2 1.58 1.68 2.26 1.78v-1.3h-1.22l.54-.98H33V24c-1.5.01-5 .01-5-2.92 0-2.57 2.86-3.12 4.29-3.07Z" fill="#E51205" /></svg>