<?xml version='1.0' encoding='utf-8'?>
<!-- by TradeStack -->
<svg width="56" height="56" viewBox="0 0 56 56" xmlns="http://www.w3.org/2000/svg"><path fill="#F0F3FA" d="M0 0h56v56H0z" /><path d="M29 23v-5h1v4h2v1h-3ZM34.64 23H33v-5h1.68c1.46 0 2.32 1.09 2.32 2.5 0 1.42-.88 2.5-2.36 2.5ZM34 22h.47c1.05 0 1.53-.52 1.53-1.5 0-.97-.47-1.5-1.5-1.5H34v3ZM5 30v-5h4v1H6v1h2.5v1H6v1h3v1H5ZM20 30v-5h4v1h-3v1h2.5v1H21v1h3v1h-4ZM47 30v-5h4v1h-3v1h2.5v1H48v1h3v1h-4ZM14 25v5h-.78L11 27v3h-1v-5h.79L13 28v-3h1ZM14.5 26v-1h4v1H17v4h-1v-4h-1.5ZM25 30v-5h2.22c.98 0 1.78.44 1.78 1.5 0 1.07-.81 1.5-1.8 1.5h-1.65v-1h1.43c.54 0 1.02 0 1.02-.5s-.48-.5-1.02-.5H26v4h-1Zm2.7-2.27L29 30h-1.06l-1.27-2.27h1.03ZM21 37v-5h2.22c.98 0 1.78.44 1.78 1.5 0 1.07-.81 1.5-1.8 1.5h-1.65v-1h1.43c.54 0 1.02 0 1.02-.5s-.48-.5-1.02-.5H22v4h-1Zm2.7-2.27L25 37h-1.06l-1.27-2.27h1.03ZM35 30v-5h2.22c.98 0 1.78.44 1.78 1.5 0 1.07-.81 1.5-1.8 1.5h-1.65v-1h1.43c.54 0 1.02 0 1.02-.5s-.48-.5-1.02-.5H36v4h-1Zm2.7-2.27L39 30h-1.06l-1.27-2.27h1.03ZM30 30v-5h2.22c.98 0 1.78.44 1.78 1.5 0 1.07-.81 1.5-1.8 1.5h-1.65v-1h1.43c.54 0 1.02 0 1.02-.5s-.48-.5-1.02-.5H31v4h-1ZM37 37v-5h2.22c.98 0 1.78.44 1.78 1.5 0 1.07-.81 1.5-1.8 1.5h-1.65v-1h1.43c.54 0 1.02 0 1.02-.5s-.48-.5-1.02-.5H38v4h-1ZM41 25v5h-1v-5h1ZM45 26.6c-.05-.42-.4-.6-.96-.6-.4 0-1.03.03-1.04.5 0 .87 3 .29 3 2.06 0 1.06-1.09 1.44-1.98 1.44-.96 0-1.97-.67-2.02-1.76h1c.04.56.53.76 1.02.76.42 0 .98 0 .98-.45 0-.98-3-.35-3-2.12 0-1 1.14-1.43 2-1.43 1.12 0 1.98.62 2 1.6h-1ZM19 33.62c-.14-.5-.5-.62-.93-.62-.9 0-1.07.72-1.07 1.5 0 .79.16 1.5 1.1 1.5.7 0 .9-.32.9-1h-.93v-.69H20v.59c0 1.12-.75 2.1-1.91 2.1-1.4 0-2.09-1.23-2.09-2.5 0-1.23.69-2.5 2.06-2.5.96 0 1.77.67 1.9 1.62H19Z" /><path fill-rule="evenodd" d="M28.5 37c1.45 0 2.5-1.05 2.5-2.5S29.95 32 28.5 32a2.42 2.42 0 0 0-2.5 2.5c0 1.45 1.05 2.5 2.5 2.5Zm0-1c.87 0 1.5-.63 1.5-1.5s-.63-1.5-1.5-1.5-1.5.63-1.5 1.5.63 1.5 1.5 1.5Z" /><path d="M21 19.62c-.14-.5-.5-.62-.93-.62-.9 0-1.07.72-1.07 1.5 0 .79.16 1.5 1.1 1.5.7 0 .9-.32.9-1h-.93v-.69H22v.59c0 1.12-.75 2.1-1.91 2.1-1.4 0-2.09-1.23-2.09-2.5 0-1.23.69-2.5 2.06-2.5.96 0 1.77.67 1.9 1.62H21Z" /><path fill-rule="evenodd" d="M25.5 23c1.45 0 2.5-1.05 2.5-2.5S26.95 18 25.5 18a2.42 2.42 0 0 0-2.5 2.5c0 1.45 1.05 2.5 2.5 2.5Zm0-1c.87 0 1.5-.63 1.5-1.5s-.63-1.5-1.5-1.5-1.5.63-1.5 1.5.63 1.5 1.5 1.5Z" /><path d="M35 32h1v3.22c0 1.12-.94 1.78-2 1.78s-2-.66-2-1.78V32h1v2.94c0 .63.38 1.06 1 1.06s1-.43 1-1.06V32Z" /></svg>