<?xml version='1.0' encoding='utf-8'?>
<!-- by TradeStack -->
<svg width="56" height="56" viewBox="0 0 56 56" xmlns="http://www.w3.org/2000/svg"><path fill="url(#a)" d="M0 0h56v56H0z" /><path d="M49.35 32.9A8.64 8.64 0 0 0 50.93 28a8.64 8.64 0 0 0-1.58-4.9l.13-.11a6.31 6.31 0 0 1 1.85 2.26c.42.85.67 1.8.67 2.75 0 .94-.25 1.88-.67 2.74-.5 1-1 1.53-1.85 2.25l-.13-.1ZM47.54 28.15c.43 0 .79-.34.79-.75a.77.77 0 0 0-.8-.76c-.43 0-.79.34-.79.76 0 .41.36.75.8.75ZM47.54 31.42c.43 0 .79-.34.79-.76a.77.77 0 0 0-.8-.75c-.43 0-.79.33-.79.75s.36.76.8.76Z" fill="#C0A171" /><path d="M45.13 31.63c-.13-.1-.25-.24-.35-.43-.11-.2-.26-.5-.44-.95L41.75 24l-2.19 5.65c-.18.48-.34.84-.45 1.08-.11.24-.23.43-.35.58-.14.2-.28.33-.43.42-.15.08-.32.13-.52.14V32h2.5v-.13a1.13 1.13 0 0 1-.56-.18.83.83 0 0 1-.34-.67c0-.23.08-.56.25-.96l.26-.7h2.73l.47 1.18c.1.23.16.46.16.61 0 .26-.09.41-.32.56-.13.08-.34.13-.67.16V32h3.52v-.13a1.4 1.4 0 0 1-.68-.24Zm-5.14-2.43 1.26-3.28 1.32 3.28H40ZM33.58 24h-3.97v.13c.36.02.62.11.8.27.15.13.25.3.3.5.05.2.07.51.07.94v4.32c0 .4-.02.7-.06.89-.04.2-.12.35-.24.48-.1.1-.22.19-.35.24-.13.05-.3.08-.52.1V32h3.97c.9 0 2.4-.2 3.29-1.47.42-.6.75-1.4.75-2.53a4.2 4.2 0 0 0-.75-2.53c-.9-1.26-2.4-1.47-3.29-1.47Zm-.06 7.82h-.3c-.21 0-.43-.05-.56-.1a.95.95 0 0 1-.6-.72c-.03-.2-.06-.49-.06-.89v-5.93h1.52c1.8 0 2.71 1.88 2.71 3.82s-.91 3.82-2.71 3.82ZM18.84 30.5c-.08.22-.2.41-.32.58-.2.25-.44.43-.74.56-.3.11-.52.17-.96.17h-.6c-.21 0-.43-.04-.56-.1a.95.95 0 0 1-.6-.72c-.04-.19-.06-.48-.06-.88v-2.23h.65c.27 0 .5.03.68.08.18.06.32.15.43.28.12.13.2.29.27.47s.12.43.15.73h.13l.02-3.14-.13-.01c-.03.3-.07.53-.12.68-.05.16-.13.29-.23.4-.11.13-.25.2-.42.26-.17.04-.43.07-.76.07H15v-3.52h1.78c.4 0 .71.03.95.09a1.72 1.72 0 0 1 1.1.86c.11.2.15.48.2.8h.13L19.1 24h-6.5v.13c.22.02.39.05.52.1a.9.9 0 0 1 .35.24c.11.13.2.29.24.48.04.2.06.5.06.89v4.32c0 .4-.02.7-.06.89a1 1 0 0 1-.24.48c-.1.1-.22.19-.35.24-.14.05-.3.08-.52.1V32h6.52l.07-2.33h-.13c-.07.34-.15.63-.23.84ZM25.84 24.13c.21.02.38.05.52.1a.95.95 0 0 1 .59.72c.04.2.05.49.05.89v4.14L22.77 24H20.6v.13c.21.02.39.05.52.1a.9.9 0 0 1 .35.24 1 1 0 0 1 .24.48c.04.2.06.49.06.88v4.33c0 .4-.02.7-.06.89a1 1 0 0 1-.24.48c-.1.1-.22.19-.36.24-.13.05-.3.08-.51.1V32h2.57v-.13a1.73 1.73 0 0 1-.52-.1.95.95 0 0 1-.35-.24 1 1 0 0 1-.24-.48c-.04-.2-.05-.49-.05-.89v-5.1L26.99 32h.25v-6.17c0-.4.02-.69.06-.88a1 1 0 0 1 .24-.48c.2-.22.5-.34.87-.34V24h-2.57v.13ZM8.48 28.7c.46 0 .77.09.97.25.2.17.3.43.3.8v.85c0 .77-.6 1.22-1.59 1.22-1.82 0-2.75-1.88-2.75-3.82s.93-3.81 2.75-3.81c.62 0 1.18.2 1.59.6.4.4.83.92 1.12 1.84H11V24.2h-.14c-.04.27-.17.42-.36.42-.16 0-.32-.08-.4-.11l-.34-.15A4.29 4.29 0 0 0 8.1 24c-.91 0-2.43.2-3.33 1.47-.43.6-.77 1.4-.77 2.53s.33 1.92.77 2.53C5.67 31.79 7.19 32 8.1 32c1.25 0 1.84-.4 2.9-.57v-1.74c0-.61.27-.79.4-.85.14-.06.37-.1.7-.14v-.13H8.48v.13Z" fill="#F4F4F4" /><defs><linearGradient id="a" x1="10.42" y1="9.71" x2="68.15" y2="76.02" gradientUnits="userSpaceOnUse"><stop stop-color="#1A1E21" /><stop offset="1" stop-color="#06060A" /></linearGradient></defs></svg>