<!-- by TradeStack --><svg viewBox="0 0 56 56" xmlns="http://www.w3.org/2000/svg"><path fill="#F0F3FA" d="M0 0h56v56H0z"/><path d="M24.28 31h.54c.05 0 .1-.02.13-.06a.17.17 0 0 0 .05-.13V26.7c0-2.06-.9-2.69-2.66-2.69-.69 0-1.38.04-2.07.11-.2.03-.27.1-.27.33v6.37a.17.17 0 0 0 .05.13.18.18 0 0 0 .13.06h.53a.2.2 0 0 0 .13-.06.18.18 0 0 0 .05-.13v-6c.24-.03 1.02-.07 1.44-.07 1.2 0 1.79.33 1.79 1.95v4.12a.16.16 0 0 0 .04.13.18.18 0 0 0 .12.06Zm-5.38-.05c-.36.04-1.3.05-1.86.05-1.34 0-2.04-.5-2.04-1.72v-3.55c0-1.23.7-1.72 2.04-1.72.56 0 1.46.02 1.86.05.03.01.06.03.07.05.02.03.03.05.03.08v.46a.1.1 0 0 1-.03.08.1.1 0 0 1-.08.04h-1.84c-1.02 0-1.18.25-1.18.96V27h2.94c.05 0 .1.02.13.05.04.04.06.09.06.13v.36c0 .04-.02.1-.06.13a.2.2 0 0 1-.13.05h-2.94v1.55c0 .7.16.96 1.18.96h1.84a.1.1 0 0 1 .08.03.1.1 0 0 1 .03.08v.47c0 .03 0 .06-.03.08a.14.14 0 0 1-.07.05Zm-4.65-.09c-.61.1-1.23.15-1.85.14-1.16 0-2.4-.76-2.4-2.87v-1.24c0-2.25 1.3-2.88 2.49-2.88.59 0 1.18.04 1.76.13.08 0 .16.04.16.14v.46c0 .06-.04.09-.12.09h-.04c-.55-.05-.97-.06-1.76-.06-.87 0-1.65.46-1.65 2.12v1.24c0 1.52.7 2.12 1.56 2.12.52 0 .88-.03 1.11-.05h.06v-2.65a.17.17 0 0 1 .17-.18h.5a.18.18 0 0 1 .18.18v3.1a.2.2 0 0 1-.17.2v.01Z" fill="#005A8D"/><path d="M27.19 25.1h.48a.2.2 0 0 0 .13-.05.18.18 0 0 0 .06-.13v-.74c0-.04-.02-.1-.06-.13a.2.2 0 0 0-.13-.05h-.48a.2.2 0 0 0-.13.05.18.18 0 0 0-.06.13v.74c0 .05.02.1.06.13a.2.2 0 0 0 .13.06Zm0 5.9h.46a.2.2 0 0 0 .13-.05.18.18 0 0 0 .06-.13v-4.63c0-.05-.02-.1-.06-.13a.2.2 0 0 0-.13-.06h-.45a.2.2 0 0 0-.14.06.18.18 0 0 0-.05.13v4.63c0 .04.02.1.05.13a.2.2 0 0 0 .14.05Zm5.14 0h.5a.18.18 0 0 0 .13-.05.16.16 0 0 0 .04-.13v-3.2c0-1.39-1.02-1.62-1.66-1.62h-.68c-.64 0-1.66.23-1.66 1.62v3.2a.16.16 0 0 0 .04.13.17.17 0 0 0 .13.05h.5a.18.18 0 0 0 .12-.05.16.16 0 0 0 .04-.12v-3.21c0-.68.19-.94.83-.94h.68c.64 0 .82.26.82.94v3.2a.16.16 0 0 0 .05.13.17.17 0 0 0 .12.05Zm5.5-.12c-.5.1-.99.13-1.48.12-1.1 0-2.35-.61-2.35-2.86v-1.28c0-2.27 1.25-2.86 2.35-2.86.5 0 1 .06 1.49.15.08 0 .14.03.14.12v.47c0 .06-.02.1-.1.1h-.03c-.32-.03-.98-.08-1.5-.08-.87 0-1.54.53-1.54 2.1v1.28c0 1.55.67 2.1 1.55 2.1.5 0 1.14-.05 1.46-.07h.04c.1 0 .14.04.14.14v.38c0 .11-.08.17-.18.19Zm.17-2.04c0 1.3.67 2.16 2 2.16 1.32 0 2-.86 2-2.16v-.68c0-1.3-.68-2.16-2-2.16-1.33 0-2 .86-2 2.16v.68Zm2-2.16c.84 0 1.2.58 1.2 1.48v.68c0 .91-.37 1.48-1.2 1.48-.85 0-1.2-.58-1.2-1.48v-.68c0-.91.36-1.48 1.2-1.48Zm6.3 4.17c-.57.1-1.15.15-1.74.15-1.4 0-2.06-.86-2.06-2.18v-.63c0-1.39.68-2.16 2.06-2.16.37 0 .74.03 1.1.09v-1.94c0-.05.03-.1.06-.12a.2.2 0 0 1 .13-.06h.48c.02 0 .04 0 .05.02h.02a.17.17 0 0 1 .09.1l.01.06v6.47c0 .11-.03.17-.2.2Zm-.63-4.08a7.83 7.83 0 0 0-1.1-.06c-.94 0-1.24.53-1.24 1.48v.63c0 .96.3 1.5 1.23 1.5.32 0 .79-.03 1.1-.05v-3.5Zm2.13 1.98h3.03c.1 0 .17-.08.17-.2v-.48c0-1.25-.67-2.07-2-2.07-1.28 0-2 .8-2 2.07v.8c0 1.65 1.01 2.13 2.05 2.13.55 0 1.1-.05 1.62-.15.15-.03.18-.09.18-.2v-.3a.12.12 0 0 0-.04-.1.13.13 0 0 0-.1-.03h-.04c-.54.07-1.08.1-1.62.1-.83 0-1.25-.4-1.25-1.45v-.12Zm1.2-2.07c.8 0 1.2.4 1.2 1.4v.07h-2.4v-.08c0-.95.43-1.39 1.2-1.39ZM5.83 25.56a1 1 0 1 0-1.66-1.12 1 1 0 0 0 1.66 1.12Zm3 0a1 1 0 1 0-1.66-1.12 1 1 0 0 0 1.66 1.12ZM9 27.5a1 1 0 1 1-2 0 1 1 0 0 1 2 0Zm-3.17.56a1 1 0 1 0-1.66-1.12 1 1 0 0 0 1.66 1.12ZM9 30a1 1 0 1 1-2 0 1 1 0 0 1 2 0Zm-3.17.56a1 1 0 1 0-1.66-1.11 1 1 0 0 0 1.66 1.1Z" fill="#0094D4"/></svg>