<?xml version='1.0' encoding='utf-8'?>
<!-- by TradeStack -->
<svg width="56" height="56" viewBox="0 0 56 56" xmlns="http://www.w3.org/2000/svg"><path fill="#F0F3FA" d="M0 0h56v56H0z" /><path d="m5 28 8.84-9 1.75 1.79L8.51 28l5.33 5.42L19.16 28l-1.58-1.62-3.29 3.35-1.76-1.79 5.05-5.13 3.34 3.4L28 19l1.76 1.79L22.67 28l2.75 2.8V28l2.58-.02v-2.97l2.48-.02.02-2.65 2.02 1.83.01 2.84L30 27l.01 3H27v2.5l1 .92L42.16 19 51 28l-8.84 9-7.08-7.21L28 37l-7.08-7.21-3.54 3.6L13.84 37 5 28Zm31.84 0 5.32 5.42L47.5 28l-5.33-5.42L36.84 28Z" fill="#17264F" /></svg>