<?xml version='1.0' encoding='utf-8'?>
<!-- by TradeStack -->
<svg width="56" height="56" viewBox="0 0 56 56" xmlns="http://www.w3.org/2000/svg"><path fill="#232F40" d="M0 0h56v56H0z" /><path fill-rule="evenodd" d="M12.06 19.26c5.47-.68 10.76-3.1 15.87-7.24.05-.03.09-.03.13 0 5.26 4.24 10.56 6.65 15.9 7.23.03 0 .05.03.04.06-.65 3.46-1.3 6.8-1.97 10.04-.25 1.25-.57 2.51-.96 3.8a12.49 12.49 0 0 1-4.9 6.93 31.3 31.3 0 0 1-7.9 3.89c-.17.06-.41.03-.71-.07h-.03a30.52 30.52 0 0 1-7.8-3.88 11.52 11.52 0 0 1-4.54-6.1 51.1 51.1 0 0 1-1.48-5.8L12 19.36c-.02-.05 0-.08.05-.09Zm10.58 21.36c-1.25-.7-2.31-1.4-3.19-2.11a10.8 10.8 0 0 1-3.47-5.42c-.43-1.43-.78-2.8-1.04-4.08-.6-2.97-1.18-5.9-1.72-8.79-.01-.05 0-.07.06-.08 4.98-.83 9.85-3.09 14.62-6.78.07-.05.13-.05.2 0 4.71 3.65 9.58 5.91 14.6 6.78.07.01.1.05.09.12-.15.7-.36 1.8-.63 3.25-.68 3.56-1.23 6.17-1.64 7.84a22.6 22.6 0 0 1-1 3.09c-.88 2.17-2.54 4-4.98 5.48a31.55 31.55 0 0 1-6.4 3c-.09.03-.18.03-.28 0a29.75 29.75 0 0 1-5.22-2.3Zm4.12-6.16v-4.58a.16.16 0 0 0-.09-.15c-1.1-.61-1.78-1.26-2.02-1.96-.25-.7-.16-1.31.28-1.87.39-.5.95-.82 1.67-.98.11-.02.16-.09.16-.2v-.99c0-.07-.03-.11-.1-.11h-8.04c-.08 0-.12-.04-.12-.12v-1.89c0-.05.03-.07.08-.07h8.09c.03 0 .06-.02.07-.05.03-.08.01-.14-.06-.17a2.9 2.9 0 0 1-1.45-1.47c-.3-.68-.3-1.37.02-2.06a2.75 2.75 0 0 1 2.42-1.68c1.14-.1 2.06.27 2.74 1.12.53.67.69 1.44.47 2.3-.02.06 0 .12.04.17.47.53.82 1.12 1.03 1.78.02.04.05.06.1.06h5.35c.05 0 .08.03.08.09v1.9c0 .06-.03.09-.08.09h-5.67a.16.16 0 0 0-.15.1 3.5 3.5 0 0 1-2.26 1.83c-.06.01-.08.05-.08.11a264.21 264.21 0 0 0 .02 4.23c0 .05.03.09.07.12a4.07 4.07 0 0 1 1.62 2.23c.18.62.11 1.24-.2 1.87-.29.6-.72 1.05-1.3 1.34-.06.03-.08.08-.06.15l.25.84c.02.06.06.11.12.14.5.21 1.05.06 1.69-.44.76-.61 1.5-1.32 2.24-2.12.04-.05.04-.1.01-.15l-.13-.18-.14-.22c-.34-.65-.06-1.18.83-1.59a12.35 12.35 0 0 0 2.8-1.78c.28-.26.52-.42.71-.5.2-.06.34 0 .43.19.07.17.04.48-.1.95-.07.2-.11.34-.12.43a40.58 40.58 0 0 0-.36 3.26c-.04.65-.59.88-1.64.7l-.23-.03a.18.18 0 0 0-.18.06 14.57 14.57 0 0 1-2.82 2.69 16.8 16.8 0 0 1-3.06 1.65c-.41.18-.72.4-.93.7-.18.25-.4.46-.65.64a.14.14 0 0 1-.16.01 1.3 1.3 0 0 1-.5-.42c-.32-.44-.91-.84-1.77-1.21a12.5 12.5 0 0 1-4.09-2.78l-1.2-1.3a.15.15 0 0 0-.16-.05c-1.23.27-1.87-.01-1.9-.85a15.77 15.77 0 0 0-.57-4c-.08-.24-.02-.43.16-.57.18-.15.38-.12.58.06.94.86 1.96 1.54 3.06 2.06 1.27.6 1.5 1.28.7 2.07-.04.04-.04.1 0 .14l.24.25c1.07 1.1 1.9 1.83 2.5 2.19.38.22.77.27 1.18.16a.23.23 0 0 0 .17-.16l.22-.75c.02-.07 0-.12-.07-.14a8.23 8.23 0 0 1-3.07-1.93c-.22-.22-.23-.45-.06-.7a.35.35 0 0 1 .1-.08c.22-.14.43-.12.62.06.76.74 1.6 1.29 2.54 1.66.09.04.13 0 .13-.1Zm1.7-15.18c-.45-.16-.9-.08-1.34.23-.06.05-.12.04-.16-.02-.24-.33-.3-.65-.2-.98.1-.3.31-.52.63-.68a1.32 1.32 0 0 1 1.84.67c.05.1.02.14-.08.14-.4 0-.6.19-.6.57 0 .06-.02.09-.09.07Zm1.02 1.94c.3-.15.57-.36.8-.64.05-.05.1-.05.14.01.17.26.3.54.4.84.02.07 0 .11-.08.11h-1.4c-.16 0-.18-.06-.07-.17a.8.8 0 0 1 .2-.15Zm-.24 3.19c0 .1.05.13.14.09a3.1 3.1 0 0 0 1.1-.78c.05-.06.03-.1-.05-.1h-1.07c-.08 0-.12.04-.12.11v.68Zm-2.6 1.51c.08-.02.12.01.12.1v2.5c0 .08-.03.1-.1.06-.46-.27-.8-.57-1-.92-.28-.46-.24-.87.11-1.22.24-.24.53-.41.88-.52Zm2.7 8.47c1-.9 1-1.93.02-3.08-.08-.09-.11-.08-.11.04v3c0 .09.03.1.1.04Z" fill="#A29061" /></svg>