<!-- by TradeStack --><svg width="56" height="56" viewBox="0 0 56 56" xmlns="http://www.w3.org/2000/svg"><path fill="#F0F3FA" d="M0 0h56v56H0z"/><path d="M28 44c-4.42 0-8.19-1.56-11.31-4.69A15.42 15.42 0 0 1 12 28c0-4.42 1.56-8.19 4.69-11.31A15.42 15.42 0 0 1 28 12c4.42 0 8.19 1.56 11.31 4.69A15.42 15.42 0 0 1 44 28c0 4.42-1.56 8.19-4.69 11.31A15.42 15.42 0 0 1 28 44Zm.05-.85c4.18-.01 7.75-1.5 10.7-4.47a14.6 14.6 0 0 0 4.4-10.73 14.6 14.6 0 0 0-4.48-10.7 14.6 14.6 0 0 0-10.73-4.4c-4.18.01-7.74 1.5-10.7 4.47a14.6 14.6 0 0 0-4.39 10.73 14.6 14.6 0 0 0 4.47 10.7 14.6 14.6 0 0 0 10.73 4.4Z" fill="#91CD2E"/><path d="m34.77 28.73-1.24 1.63a20.35 20.35 0 0 0-4.16-11.76 9.87 9.87 0 0 0-2.46-2.26 5.52 5.52 0 0 0-4.8-.81l-.01-.05a5.67 5.67 0 0 1 5.4.3c1 .56 1.88 1.32 2.67 2.28a20.79 20.79 0 0 1 4.6 10.67Z" fill="#91CD2E"/><path d="m34.79 30.9-1.45 1.72a26.72 26.72 0 0 1-4.1 3.22l-1.95-.5 1.17-.77a20.88 20.88 0 0 0 5.06-4.21l1.25-1.63c2.15-2.77 3.07-5.56 2.77-8.38a4.76 4.76 0 0 0-1.3-2.86l-.29-.3c-.33-.4-.3-.43.1-.12 1.88 1.43 2.63 3.46 2.29 6.1a14.98 14.98 0 0 1-2.63 6.4l-.92 1.33Z" fill="#0D280B"/><path d="m27.3 35.34 1.93.5 3.46.47-.49 1.21c-1.7-.12-3.33-.39-4.9-.8l-1.8-.63a20.68 20.68 0 0 1-6.85-4.36 10.66 10.66 0 0 1-2.57-3.7 6.7 6.7 0 0 1-.35-4.39 5.89 5.89 0 0 1 4.05-4.05c.13-.03.14 0 .02.06l-.78.47a5.3 5.3 0 0 0-2.25 2.4 4.86 4.86 0 0 0-.25 3.28c.69 2.74 2.56 5.1 5.6 7.09a20.87 20.87 0 0 0 5.18 2.45Z" fill="#0B6826"/><path d="M34.79 30.9c0 1.86-.27 3.68-.8 5.47l-.41 1.1a7 7 0 0 1-1.87 2.76 5.73 5.73 0 0 1-3.78 1.54 6.54 6.54 0 0 1-3.96-1.28l.02-.04c.02-.03.05-.04.08-.02 2.3 1.31 4.33 1.25 6.07-.17a7.43 7.43 0 0 0 2.06-2.74l.49-1.21c.36-1.19.58-2.42.65-3.7l1.45-1.71Z" fill="#91CD2E"/><path d="m25.5 36.09 1.8.62c-1.57.8-3.12 1.27-4.67 1.4a7.22 7.22 0 0 1-4.66-1c-1.81-1.17-2.7-3.06-2.64-5.67 0-.03.02-.04.05-.04.03 0 .05.01.05.05.23 3.35 1.83 5.2 4.83 5.51 1.71.19 3.46-.1 5.24-.87Z" fill="#0D280B"/><path d="m33.58 37.47.42-1.1a9.98 9.98 0 0 0 3.69-.68c1.79-.68 3-1.9 3.64-3.65h.06c.04.02.06.04.05.08a6.1 6.1 0 0 1-3.61 4.41 10.3 10.3 0 0 1-4.25.94Z" fill="#0B6826"/></svg>