<?xml version='1.0' encoding='utf-8'?>
<!-- by TradeStack -->
<svg width="56" height="56" viewBox="0 0 56 56" xmlns="http://www.w3.org/2000/svg"><path fill="#F0F3FA" d="M0 0h56v56H0z" /><path d="M43 22.5V36h-3V22.5h-4V20h11v2.5h-4ZM27.03 22.56V26H34v3h-6.97v4.44H35V36H24V20h11v2.56h-7.97ZM15 28h7v2.62c0 2.27-.44 3.74-1.31 4.4-.87.65-2.82.98-5.84.98-2.77 0-4.6-.44-5.5-1.31C8.45 33.8 8 32.03 8 29.33c0-3.44.18-5.61.54-6.52a3.82 3.82 0 0 1 2.03-2.23c.9-.39 2.45-.58 4.62-.58 2.85 0 4.69.3 5.52.9.83.59 1.29 2.06 1.29 4.1h-3c-.05-1.03-.4-1.56-.81-1.8-.4-.26-1.41-.39-3.03-.39-1.76 0-2.88.22-3.36.65-.47.43-.79 1.18-.79 2.77L11 27.81l.02 2.02c0 1.55.32 2.1.8 2.54.46.42 1.55.63 3.26.63 1.65 0 2.7-.18 3.15-.54.78-.62.77-1.46.77-2.46h-4v-2Z" fill="#03623B" /></svg>