<!-- by TradeStack --><svg width="56" height="56" viewBox="0 0 56 56" xmlns="http://www.w3.org/2000/svg"><path d="M0 28a28 28 0 1 1 56 0 28 28 0 1 1-56 0Z" fill="#F0F3FA"/><ellipse cx="37.9" cy="29" rx="2.9" ry="3" fill="#003670"/><path fill-rule="evenodd" d="M14.94 32a2.97 2.97 0 0 0 2.95-3c0-1.66-1.32-3-2.95-3A2.97 2.97 0 0 0 12 29c0 1.66 1.32 3 2.94 3Zm0-1.57c.79 0 1.42-.65 1.42-1.44 0-.8-.63-1.45-1.42-1.45-.78 0-1.41.65-1.41 1.45 0 .8.63 1.44 1.41 1.44Z" fill="#003670"/><path d="M8 32c2.43.03 4-1.8 4-4 0-.2-.01-.38-.04-.57H8V29h1.82A2 2 0 0 1 8 30.29C6.9 30.29 6 29.26 6 28s.9-2.29 2-2.29c.68 0 1.28.38 1.65.97h2.15A3.86 3.86 0 0 0 8 24c-2.4-.01-4 1.8-4 4s1.57 3.97 4 4ZM18 24h1.5v8H18zM25.5 24H24v2.46a2.7 2.7 0 0 0-1.5-.46c-1.56 0-2.82 1.34-2.82 3s1.26 3 2.82 3c.55 0 1.07-.17 1.5-.46V32h1.5v-8ZM24 28.99c0 .8-.61 1.44-1.36 1.44-.75 0-1.36-.65-1.36-1.44 0-.8.6-1.45 1.36-1.45.75 0 1.36.65 1.36 1.45ZM46.5 34H48v-2.5c.38.21.8.33 1.26.33 1.51 0 2.74-1.3 2.74-2.91S50.77 26 49.26 26c-.45 0-.88.12-1.26.33V26h-1.5v8Zm1.51-5.07c0-.78.58-1.4 1.29-1.4.71 0 1.29.62 1.29 1.4 0 .77-.58 1.4-1.29 1.4-.71 0-1.29-.63-1.29-1.4Z" fill="#003670"/><path fill-rule="evenodd" d="M30 31.46c-.42.25-.9.39-1.41.39a2.88 2.88 0 0 1-2.84-2.93A2.88 2.88 0 0 1 28.6 26c.51 0 1 .14 1.41.39V26h1.5v5.7c-.02.52-.32 2.26-2.8 2.3a2.83 2.83 0 0 1-2.91-2h1.93c.1.5.72.67.99.67.88-.02 1.29-.63 1.29-1.05v-.16Zm0-2.25a1.38 1.38 0 0 1-1.33 1.1c-.75 0-1.36-.64-1.36-1.41 0-.78.6-1.41 1.36-1.41.65 0 1.19.46 1.33 1.09v.63Z" fill="#003670"/><path d="M33.5 26H32v6h1.5v-3.5c.23-.33.75-.79 1.5-.78V26c-.36-.02-1.15.13-1.5.81V26ZM44.5 32H46v-6h-1.5v3.42a1 1 0 1 1-2 0V26H41v4.02a1.98 1.98 0 0 0 3.5 1.27V32Z" fill="#003670"/><path d="m36.5 28.42-3.37-3.41 3.73 2.96c.11-.1.24-.17.38-.23l.12-9.74.8 9.68.19.06 5.22-5.95-4.77 6.25.17.2 12.97-1.36-12.72 2.26c-.02.19-.07.36-.14.51l5.55 5.05-6-4.52c-.14.1-.3.16-.46.2V42l-.8-11.62a1.43 1.43 0 0 1-.25-.1l-4.6 4.82 4.15-5.2a1.4 1.4 0 0 1-.2-.31L4 33.84l32.4-5.12c.02-.1.06-.2.1-.3Z" fill="#FDB304"/><circle cx="37.78" cy="29.06" r=".74" fill="#FFFFF9"/></svg>