<!-- by TradeStack --><svg width="56" height="56" viewBox="0 0 56 56" xmlns="http://www.w3.org/2000/svg"><path fill="#F0F3FA" d="M0 0h56v56H0z"/><path d="M28.82 12c5.91.49 10.37 3.33 13.38 8.52.01.02 0 .03-.02.03-.9.04-1.7.05-2.39.02a.13.13 0 0 1-.1-.06c-1.32-2-2.99-3.55-5-4.66a13.57 13.57 0 0 0-6.6-1.72 13.5 13.5 0 0 0-8.54 2.88 13.54 13.54 0 0 0-4.96 7.47 13.7 13.7 0 0 0-.15 6.45A13.92 13.92 0 0 0 25.4 41.65c.32.07.66.11 1 .12.08 0 .15-.03.21-.09 3.55-3.53 5.63-5.59 6.23-6.17a16.43 16.43 0 0 0 3.22-4.38c.04-.09.01-.13-.08-.13h-6.1c-.7 0-1.25-.15-1.65-.72-.08-.1-.18-.26-.3-.45-.37-.54-.22-.8.43-.8h10.28c.1 0 .14.04.13.14a11 11 0 0 1-3.18 6.57c-2.77 2.8-5.55 5.55-8.32 8.26h-.37c-5.34-.52-9.45-2.95-12.32-7.3A15.73 15.73 0 0 1 12 28.79v-1.55a15.83 15.83 0 0 1 4.1-9.93A15.9 15.9 0 0 1 27.2 12h1.62Zm-1.53 24.76-1.75 1.75c-.03.02-.05.03-.08.02-3.58-1-6.05-3.11-7.4-6.33a10.65 10.65 0 0 1-.49-7.03 10.69 10.69 0 0 1 11.24-7.95c2.64.2 4.95 1.26 6.93 3.2a.1.1 0 0 1 .03.1.1.1 0 0 1-.1.06c-1.05 0-1.9 0-2.54.02-.28.01-.66-.1-1.15-.32-2.83-1.31-5.53-1.28-8.09.1a8.4 8.4 0 0 0-4.12 4.88 8.27 8.27 0 0 0 .36 6.38c1.35 2.88 3.74 4.56 7.15 5.06.04.01.04.03.01.06ZM41.68 26c.05 0 .07.02.08.07.53 3.54-.13 6.83-1.98 9.63-.6.9-1.72 2.15-3.38 3.73-.95.9-2.34 2.29-4.16 4.13-.08.08-.06.11.05.1.53-.1 1.19-.33 1.98-.68 1.83-.8 3.44-1.87 4.84-3.21a15.72 15.72 0 0 0 4.8-9.87c.2-1.93.06-3.87-.44-5.8-.01-.07-.06-.1-.13-.1H30.22c-.05 0-.08.03-.08.08-.1 1.36.77 1.92 2.61 1.92h8.93Z" fill="#CCA271"/></svg>