<!-- by TradeStack --><svg width="56" height="56" viewBox="0 0 56 56" xmlns="http://www.w3.org/2000/svg"><path fill="#F0F3FA" d="M0 0h56v56H0z"/><path d="m29.22 17.92.01-.01 10 16.1c.05.08.11.15.18.2.02.03.04.02.04 0 .04-.15 0-.34-.06-.55l-.02-.12-4.95-21.44c-.02-.06-.05-.1-.12-.1H20.04a7.97 7.97 0 0 0-5.95 2.77c-.05.06-.05.11 0 .16l2.9 2.5L33.63 31.8a433.7 433.7 0 0 1 3.73 3.25c.09.09.2.15.3.2.03 0 .04 0 .04-.03-.01-.1-.03-.19-.06-.25a9199.32 9199.32 0 0 0-8.42-17.05Zm13.1 2.63a15.74 15.74 0 0 1 .1-1.23c.04.18.06.38.07.58l.14 2.54a2114.63 2114.63 0 0 1 .54 8.36l.15 2.39c.01.13.04.29.1.47 0 .02.01.03.03.01.14-.12.24-.5.31-.8.03-.1.05-.19.08-.25.1-.34.16-.61.16-.95V20.28c0-2.16-.7-4.02-2.13-5.6a7.83 7.83 0 0 0-5.25-2.61c-.61-.06-1.23-.08-1.86-.06-.1 0-.13.05-.1.14l6.63 21.4c.05.18.1.18.16 0l.03-.27c.28-4.13.55-8.26.81-12.4l.02-.33Zm-23.67 7.04c-.13-.06-.14-.05-.02.03l16.4 10.64c.05.03.12.1.2.18.02.01.02.03-.01.03a.8.8 0 0 1-.26 0l-22.74-5.7c-.09-.03-.21-.09-.22-.18V20.11a7.95 7.95 0 0 1 1.8-4.96.04.04 0 0 1 .04 0c5.68 5.42 11.35 10.86 17.02 16.3l4.61 4.41.2.18c.21.2.45.4.57.63.02.02 0 .03-.02.03l-.2-.06c-.5-.24-1-.51-1.5-.78l-.92-.48c-.52-.26-1.1-.56-1.73-.9-.3-.17-.63-.33-.96-.5l-1.16-.6c-.48-.27-1-.54-1.58-.82l-.74-.4c-.24-.13-.49-.27-.72-.38l-1.91-1-1.13-.58-1.26-.66c-.37-.2-.81-.43-1.34-.69-.32-.16-.65-.34-.97-.52-.48-.26-.96-.52-1.45-.74Zm16 14.84-19.8-.94h.96l.35-.03c.13-.02.27-.04.4-.04a16.5 16.5 0 0 0 1.93-.08l1.04-.04a7073.95 7073.95 0 0 1 14.95-.69c.1 0 .17-.06.24-.12l.01-.01c.02-.02.02-.04 0-.06a1.17 1.17 0 0 0-.57-.26l-.2-.05-.44-.14a12343.6 12343.6 0 0 0-21.35-6.78c-.1.02-.17.09-.17.2v2.42a8.04 8.04 0 0 0 2.24 5.64A8.21 8.21 0 0 0 20.22 44h9.72c.54 0 1.09-.2 1.6-.39l.33-.11.78-.25c.35-.1.68-.2.98-.32.34-.13.69-.24 1.04-.33.08-.02.1-.06.06-.12a.1.1 0 0 0-.08-.05Z" fill="#009171"/></svg>