<?xml version='1.0' encoding='utf-8'?>
<!-- by TradeStack -->
<svg width="56" height="56" viewBox="0 0 56 56" xmlns="http://www.w3.org/2000/svg"><path fill="url(#aafn0u5xh)" d="M0 0h56v56H0z" /><path d="m42.7 26-3.12-5.33 2.15-.97 1.18.97.35 3.8.62-5.32 3.2-1.77-7.84 2.32L37.5 17h11l-5.8 9Z" fill="#FEFFFF" /><path d="m45.3 21.96-1.62-1.03-.42 3.55-.35-3.81-1.14-.94-.04-.03-2.15.97L42.71 26l2.6-4.04Zm-4.37-2.76-3.4-2.15 1.7 2.65 1.7-.5Z" fill="#D4B52E" /><path d="m14.58 26.53 1.92-1.83a5.88 5.88 0 0 0-4.23-1.7C9.5 23 7 25.23 7 28.6c0 3.37 2.27 5.4 5.27 5.4 2.4 0 3.82-.75 4.23-1.12V28h-4.23l-.87 2H14v1.4c-.17.14-.65.42-1.52.42a3.23 3.23 0 0 1-3.04-3.22c0-2.2 1.58-3.22 2.83-3.22s1.94.42 2.3 1.15Zm11 0 1.92-1.83a5.88 5.88 0 0 0-4.23-1.7C20.5 23 18 25.23 18 28.6c0 3.37 2.27 5.4 5.27 5.4 2.4 0 3.82-.75 4.23-1.12V28h-4.23l-.87 2H25v1.4c-.17.14-.65.42-1.52.42a3.23 3.23 0 0 1-3.04-3.22c0-2.2 1.58-3.22 2.83-3.22s1.94.42 2.3 1.15ZM29 33.06v-2.8c.85.57 3.05 1.65 3.75 1.36.87-.37.75-1.37 0-1.67-.1-.04-.24-.1-.41-.15-1.09-.36-3.34-1.1-3.34-3.15 0-2.37 1.84-3.65 3.75-3.65 1.52 0 2.46.72 2.73 1.08v2.73c-1.35-2.28-3.76-1.5-3.76-.65 0 .68 1.18 1.12 1.78 1.26.92.33 2.75 1.42 2.75 3.18 0 2.2-1.82 3.4-3.93 3.4-1.68 0-3.02-.62-3.32-.94Zm8 .94 2.68-11 3.26 6 3.2-6L49 34h-2.65l-.97-4.75L42.94 34l-2.5-4.75-.76 4.75H37Z" fill="#fff" /><defs><linearGradient id="aafn0u5xh" x1="10.42" y1="9.71" x2="68.15" y2="76.02" gradientUnits="userSpaceOnUse"><stop stop-color="#1A1E21" /><stop offset="1" stop-color="#06060A" /></linearGradient></defs></svg>