<!-- by TradeStack --><svg width="56" height="56" viewBox="0 0 56 56" xmlns="http://www.w3.org/2000/svg"><path fill="#F0F3FA" d="M0 0h56v56H0z"/><path d="M7 29h9v2.93l4-3V26h-5.22v.6H16v2.06h-3.26s1.94-5.27 2.91-8.04H20v.43h1.27V20h-10.4L7 29ZM22.1 29H31v3l4-3.01V26h-5.12v.64H31v2h-3.15s1.94-5.23 2.9-8.01H35V21h1v-1H25.98l-3.87 9ZM39.3 20v.25h.46L43.5 29h5.1l-3.82-9h-5.48ZM41.27 24.93l-8.18 7.36 4.57-1.9 4.29-3.86-.68-1.6ZM46.03 22.61l-.65-1.56L46.46 20H49v.23h-.32l-2.65 2.38Z"/><path fill-rule="evenodd" d="M19.22 37.94c.49.04 1.46.06 1.88.06h1.36c.77 0 .99-.23 1.31-.61.32-.38 1-1.67 1.26-2.57.24-.85-.98-.82-1.33-.82h-.05c-.24 0-2.2 0-2.66.12-.46.12-1.04 1.13-1.46 1.9-.34.61-.53 1.05-.59 1.2-.1.22-.2.69.28.72Zm3.63-3.41c-.79 0-1.43.07-1.7.11a.11.11 0 0 0-.06.04c-.61.69-1.28 1.97-1.58 2.65-.03.06.01.13.1.13 1.08.07 2.62.03 3.34 0 .03 0 .06-.02.08-.05.58-.73 1.15-2 1.4-2.65.03-.06 0-.12-.08-.13-.27-.05-.8-.1-1.5-.1ZM12.28 34v.52H9.02c-.15.14-.52.6-.87 1.41-.43 1.02-.64 1.5-.37 1.5h3.73l.77-1.27h-1.55v-.5h1.35c.27-.01.8.07.8.5 0 .54-.88 1.84-1.46 1.84H7.54c-.25.02-.7-.13-.44-.9.32-.94.8-1.99 1.2-2.58.32-.47.72-.54.88-.52h3.1Zm19.48 3.1c.15-.55.93-2.3 1.3-3.1l.54.24-1.32 3.25h3.85V38h-3.7c-.5 0-.87-.23-.67-.9Zm12.97-3.02-2.1 3.8c1.21.14 3.36.12 3.79.11H46.54c.21.02.86.06 1.16-.48.33-.6 1.03-1.92 1.25-2.75.2-.77-.61-.76-1.6-.76h-.24c-.87 0-1.95.06-2.38.08Zm-1.15 3.35 1.52-2.8h3.32l-1.38 2.8h-3.46Z" fill="#B48231"/></svg>