<?xml version='1.0' encoding='utf-8'?>
<!-- by TradeStack -->
<svg width="56" height="56" viewBox="0 0 56 56" xmlns="http://www.w3.org/2000/svg"><path fill="#0053A1" d="M0 0h56v56H0z" /><path d="M16.99 23.99c.21 1.12-2.52 2.74-6.1 3.6-3.6.88-6.67.68-6.88-.44-.21-1.12 2.52-2.73 6.1-3.6 3.6-.88 6.67-.68 6.88.44Z" fill="#818286" /><path fill-rule="evenodd" d="M16.99 23.99c.21 1.12-2.52 2.74-6.1 3.6-3.6.88-6.67.68-6.88-.44-.21-1.12 2.52-2.73 6.1-3.6 3.6-.88 6.67-.68 6.88.44Zm-.46.07c.02.1-.02.3-.26.57-.23.27-.6.56-1.1.86l-3.22.33c.19-.13.32-.27.37-.41l4.2-1.4.01.05Zm-.23-.26-3.97 1.33a.48.48 0 0 0-.22-.23l2.55-1.46h.12a4.21 4.21 0 0 1 1.52.36Zm-2.15-.37-2.35 1.35a2.92 2.92 0 0 0-.92-.05l.56-1.03c1-.18 1.92-.27 2.71-.27Zm-3.06.34-.54 1h-.05a4.5 4.5 0 0 0-.62.16l-1.16-.54a20.83 20.83 0 0 1 2.37-.62Zm-2.73.74c-.85.3-1.6.62-2.21.96l3.32-.44-1.11-.52Zm-2.77 1.3a4.2 4.2 0 0 0-.86.7c-.13.15-.2.27-.23.37l4.31-1.35.2-.18-3.42.45Zm-1.1 1.34c.05.08.15.18.38.28l.21.08 3.6-1.47a.33.33 0 0 1-.04-.19l-4.15 1.3Zm1.03.46a10.05 10.05 0 0 0 1.66.1l1.8-1.42a.91.91 0 0 1-.1-.05L5.52 27.6Zm2.11.08c.45-.03.92-.09 1.42-.16l.6-1.1-.35-.05-1.67 1.3Zm1.77-.22c.44-.08.9-.17 1.36-.29h.02l-.3-.81-.52.06-.56 1.04Zm1.65-.36c.43-.1.84-.23 1.23-.36l-1.16-.53a4.4 4.4 0 0 1-.36.1l.29.8Zm1.6-.48c.73-.25 1.4-.54 1.95-.83l-3.07.32 1.11.51Z" fill="#FBFBFB" /><path fill-rule="evenodd" d="m15.2 25.57-3.57.37.27-.2c.17-.12.29-.24.34-.36l.01-.04 4.31-1.45.04.08.02.08c.03.14-.03.35-.28.64-.24.27-.61.57-1.11.87h-.02Zm1.3-1.75-4.22 1.42-.03-.08a.4.4 0 0 0-.19-.19l-.12-.07 2.7-1.55h.02l.13.01a4.3 4.3 0 0 1 1.56.37l.16.1Zm-2.02-.48-2.67 1.53h-.04a2.83 2.83 0 0 0-.88-.06l-.17.02.65-1.2.05-.01c1-.18 1.94-.27 2.73-.28h.33Zm-3.22.3-.65 1.2-.05.01a4.5 4.5 0 0 0-.65.16l-.04.01-1.4-.64.21-.07a20.92 20.92 0 0 1 2.39-.62l.19-.04Zm-2.9.78 1.42.65-3.62.48-.06-.15c.62-.34 1.38-.67 2.22-.97l.04-.01Zm-2.8 1.3 3.78-.5-.26.2c-.08.05-.14.1-.2.16l-.01.02-4.52 1.41.06-.16c.04-.11.12-.24.25-.4.2-.22.5-.47.88-.71l.01-.02Zm-1.2 1.38 4.4-1.37-.02.13v.03c0 .04 0 .08.02.11l.04.08-3.71 1.52h-.04a2.29 2.29 0 0 1-.22-.1c-.24-.1-.37-.21-.42-.31l-.05-.1Zm.85.55 3.67-1.51.05.02.1.05.12.06-1.94 1.52h-.03a10.13 10.13 0 0 1-1.68-.1l-.29-.04Zm2.15.14 1.91-1.5.05.01.33.04h.15l-.68 1.26-.05.01c-.5.08-.98.13-1.43.16l-.28.02Zm1.87-.2.67-1.25h.06c.16 0 .33-.02.51-.06h.08l.35.96-.11.03c-.47.11-.93.2-1.38.28l-.18.04Zm1.84-.4-.08.03-.35-.97.1-.02.35-.1h.04l1.4.64-.21.06c-.4.13-.82.25-1.25.37Zm-.29 0h-.02l-.07.01c-.4.1-.8.18-1.18.25l-.11.02.56-1.04.53-.06.29.81Zm1.86-.46-1.43-.66 3.38-.35.06.16c-.57.3-1.24.58-1.97.83l-.04.02ZM16.5 24l-4.19 1.4c-.04.11-.12.22-.24.32l-.13.1 3.22-.33c.5-.3.87-.6 1.1-.86.23-.26.27-.44.26-.54a.24.24 0 0 0-.02-.09Zm-.2-.2a1.26 1.26 0 0 0-.18-.09 4.21 4.21 0 0 0-1.47-.27L12.1 24.9a.7.7 0 0 1 .09.06c.06.05.1.1.13.17l3.97-1.33Zm-2.16-.37h-.18c-.75.02-1.6.1-2.53.27l-.56 1.03.1-.01c.32-.02.6 0 .82.06l2.35-1.35Zm-3.06.34a18.62 18.62 0 0 0-2.37.62l1.16.54a4.5 4.5 0 0 1 .67-.16l.54-1Zm-4.94 1.7 3.32-.44-1.11-.52a15.18 15.18 0 0 0-2.21.96Zm2.66.06L4.5 26.88a1.5 1.5 0 0 1 .24-.37c.18-.22.47-.46.85-.7l3.43-.46a1.57 1.57 0 0 0-.2.18ZM5.08 27.5a2.18 2.18 0 0 1-.21-.08.92.92 0 0 1-.32-.2.36.36 0 0 1-.06-.08l4.15-1.3a.36.36 0 0 0 0 .1.33.33 0 0 0 .04.09l-3.6 1.47Zm3.8-1.27a.88.88 0 0 0 .1.05l-1.8 1.42a10.05 10.05 0 0 1-1.66-.1l3.36-1.37Zm.17 1.29a16.85 16.85 0 0 1-1.42.16l1.67-1.3a2.43 2.43 0 0 0 .35.03l-.6 1.1Zm3.23-.78-1.16-.53a4.42 4.42 0 0 1-.36.1l.29.8a20.75 20.75 0 0 0 1.23-.37Zm2.32-.95-3.07.32 1.11.51a15.73 15.73 0 0 0 1.96-.83Zm1.96-.95c.27-.31.38-.6.34-.85-.05-.24-.25-.44-.61-.6a4.59 4.59 0 0 0-1.48-.3c-1.23-.07-2.88.1-4.67.53a16.96 16.96 0 0 0-4.45 1.7c-.55.32-.97.65-1.25.96-.27.32-.38.6-.34.85.05.24.25.44.61.6.36.16.86.26 1.48.3 1.23.08 2.88-.09 4.67-.52a16.96 16.96 0 0 0 4.45-1.7c.55-.33.97-.66 1.25-.97Zm-5.68 2.75c3.59-.87 6.32-2.49 6.1-3.61-.2-1.12-3.28-1.32-6.86-.45-3.59.88-6.32 2.5-6.1 3.61.2 1.12 3.28 1.32 6.86.45Z" /><path fill-rule="evenodd" d="M16.56 24.85c.27-.31.38-.6.34-.85-.05-.24-.25-.44-.61-.6a4.59 4.59 0 0 0-1.48-.3c-1.23-.07-2.88.1-4.67.53a16.96 16.96 0 0 0-4.45 1.7c-.55.32-.97.65-1.25.96-.27.32-.38.6-.34.85.05.24.25.44.61.6.36.16.86.26 1.48.3 1.23.08 2.88-.09 4.67-.52a16.96 16.96 0 0 0 4.45-1.7c.55-.33.97-.66 1.25-.97Zm-5.68 2.75c3.59-.87 6.32-2.49 6.1-3.61-.2-1.12-3.28-1.32-6.86-.45-3.59.88-6.32 2.5-6.1 3.61.2 1.12 3.28 1.32 6.86.45Z" fill="#00051B" /><path d="M11.6 27.76v2.47A2.97 2.97 0 0 1 9.02 32C6.6 31.96 6 28.87 6 27c0-1.86.6-5 3.02-5 .8 0 1.94.42 2.48 1v2h-.08a4.96 4.96 0 0 0-.42-1.46 2.29 2.29 0 0 0-1.98-1.13c-2.05 0-2.39 3.09-2.39 4.59 0 1.48.33 4.55 2.39 4.59.8 0 1.56-.54 1.98-1.2v-2.63c0-.42-.08-.62-.37-.62h-.13V27h1.65v.14h-.13c-.29 0-.43.2-.42.62ZM15.04 25l2.45 6.93h-.7l-1.9-5.92.15-1.01Zm-1.72 6.17c-.07.23-.06.4.03.53.08.13.17.19.28.19h.07V32H12v-.11h.07c.13 0 .25-.06.38-.16.14-.12.25-.3.34-.56h.53ZM15.04 25l.06.79-2.04 6.18h-.56l2.11-5.8.05-.13a5.89 5.89 0 0 0 .3-1.04h.08Zm1.05 4.34v.35h-2.36v-.35h2.36Zm.46 1.83h.67c.1.26.2.44.33.56.13.1.26.16.38.16H18V32h-1.83v-.11h.07c.1 0 .2-.06.28-.19.08-.13.1-.3.03-.53Z" fill="#FEFEFD" /><path fill-rule="evenodd" d="M17.19 31.07 15.04 25h-.08a1.21 1.21 0 0 1-.06.3l-.01.04a6.52 6.52 0 0 1-.23.7l-.05.13-1.86 5.1a1.3 1.3 0 0 1-.3.46.61.61 0 0 1-.38.16H12V32h1.7v-.11h-.07c-.1 0-.2-.06-.28-.19a.42.42 0 0 1-.06-.12.7.7 0 0 1 .01-.34l.51-1.55h2.26l.5 1.55v.03a.7.7 0 0 1 0 .32l.13.41h.92l-.05-.13.06.03m-.4-.73a1.4 1.4 0 0 0 .32.56c.13.1.26.16.38.16H18m-.78-.72Zm-.03-.1.03.1-.03-.1Zm-.11 0-1.88-5.32v.05l-.14.43.97 3.01h.16v.5l.43 1.33h.46Zm-.4.2h.47l.2.56h-.49l-.18-.56Zm-.72-1.93-1-3.11-1.03 3.11h2.03Zm-.08.1H14l-.05.15h1.98l-.05-.15Zm-2.03-.2 1-3.01-.06-.2v-.09c0 .05-.02.1-.04.13l-.04.13-1.78 4.87h.32l.43-1.28h-.05v-.55h.22Zm-1.42 2.63a.87.87 0 0 1-.05.03h.04v-.03Zm.21 0 .2-.56.02-.04h.33l-.2.6h-.35Zm.6-.14-.05.17h.2a.62.62 0 0 1-.13-.14l-.02-.03Zm3.28-.03.08.06-.08-.06Z" fill="#FEFEFD" /><path d="m23.6 25 .07.72-1.9 5.3-.06.19-.12.46c-.05.17-.07.17-.09.33h-.2v-.55L23.6 25Zm-4.76 6.25V32H18v-.11h.12c.14 0 .26-.06.37-.17.1-.1.17-.27.18-.47h.17Zm.25.17c0 .11.01.22.05.32.05.1.13.15.25.16h.11v.1h-.46v-.58h.05ZM19.3 25h.08l.16.66-.5 6.34h-.45l.7-7Zm.08 0 2.2 5.99-.3 1.01-2.06-5.78.16-1.22Zm4.28 0 .73 7h-.62l-.52-5.77.34-1.23h.07Zm.49 6.25h.16c.02.2.09.36.2.47.1.11.22.17.36.17H25V32h-.84v-.75Zm-.43.17h.05V32h-.47v-.1h.12c.13 0 .21-.06.25-.17.04-.1.06-.2.05-.3ZM26.18 25v7h-.56v-7h.56Zm2.51 6.64-.01.36h-2.52v-.36h2.53Zm-.5-3.32v.36h-2.03v-.36h2.02Zm.5-3.32v.36h-2.53V25h2.53Zm.49 5.33L28.7 32h-1.32l.3-.36c.29 0 .52-.06.7-.16.17-.12.32-.28.43-.47.1-.2.2-.43.28-.68h.09Zm-1-1.68v.67h-.1v-.16a.63.63 0 0 0-.08-.33.29.29 0 0 0-.27-.15v-.03h.45Zm0-.97v.67h-.45v-.03c.12 0 .21-.04.27-.14a.7.7 0 0 0 .09-.34v-.16h.1Zm.5-2.35v.8h-.09v-.17c0-.17-.04-.3-.12-.42a.35.35 0 0 0-.31-.18v-.03h.53Zm-3.04 5.92.11.75H25v-.12h.12c.15 0 .26-.06.36-.18.09-.13.14-.28.14-.45h.02Zm0-5.52h-.02a.73.73 0 0 0-.14-.44.43.43 0 0 0-.36-.17H25V25h.75l-.1.73ZM35.33 24v8h-.56v-8h.56Zm-4.1 0v8h-.56v-8h.56Zm3.62 3.87v.35h-3.7v-.35h3.7Zm-4.16 3.3V32H30v-.11h.11c.15 0 .28-.07.38-.21a.87.87 0 0 0 .18-.51h.02Zm0-6.34h-.02c0-.2-.07-.36-.18-.5-.1-.14-.23-.22-.38-.22H30V24h.7v.83Zm.51 6.34h.03c0 .2.06.37.16.51.11.14.24.2.4.2h.11V32h-.7v-.83Zm0-6.34V24h.7v.11h-.12c-.15 0-.28.08-.39.22-.1.14-.15.3-.16.5h-.03Zm3.6 6.34V32h-.7v-.11h.12c.15 0 .28-.07.39-.21a.83.83 0 0 0 .16-.51h.03Zm0-6.34h-.03c0-.2-.05-.36-.16-.5s-.24-.22-.4-.22h-.11V24h.7v.83Zm.5 6.34h.03c0 .2.06.37.17.51.1.14.24.2.39.2H36V32h-.7v-.83Zm0-6.34V24h.7v.11h-.11c-.15 0-.28.08-.4.22-.1.14-.15.3-.16.5h-.02ZM39 25c.41 0 .8.09 1.16.26.37.16.69.4.96.71.28.31.5.68.65 1.11.15.43.23.9.23 1.42 0 .52-.08 1-.23 1.43-.16.42-.37.79-.65 1.1A2.8 2.8 0 0 1 39 32a2.8 2.8 0 0 1-2.13-.97 3.45 3.45 0 0 1-.64-1.1c-.15-.43-.23-.91-.23-1.43 0-.52.08-1 .23-1.42.16-.43.37-.8.64-1.11A2.86 2.86 0 0 1 39 25Zm0 6.67c.43 0 .83-.14 1.19-.4.35-.27.63-.64.84-1.12.2-.48.31-1.03.31-1.65 0-.63-.1-1.18-.3-1.65-.22-.48-.5-.85-.85-1.11a1.93 1.93 0 0 0-2.38 0c-.35.26-.63.63-.84 1.11-.2.47-.31 1.02-.31 1.65 0 .62.1 1.17.3 1.65.22.48.5.85.85 1.11.36.27.75.4 1.19.4ZM44.52 25a3.4 3.4 0 0 1 .95.14l.18.07.01 1.1h-.1a1 1 0 0 0-.24-.7c-.16-.19-.4-.28-.74-.28-.28 0-.53.1-.73.32a1 1 0 0 0-.29.74c0 .1 0 .2.03.3.02.1.05.2.1.3.05.1.12.19.2.28l1.72 1.74c.13.14.23.33.29.55.06.21.1.43.1.65 0 .32-.06.62-.2.9-.13.27-.32.5-.55.66a1.3 1.3 0 0 1-.75.23 2.84 2.84 0 0 1-1.07-.22c-.16-.08-.3-.19-.4-.3a5.41 5.41 0 0 1 .09-1.38h.1c-.03.33 0 .61.1.85s.24.42.43.55c.18.12.4.17.65.17.35-.02.63-.13.83-.35.2-.22.3-.52.3-.88a1.4 1.4 0 0 0-.3-.9l-1.7-1.7a1.43 1.43 0 0 1-.33-.6 2.42 2.42 0 0 1-.08-.61c0-.3.06-.58.19-.83.12-.24.29-.44.5-.58.21-.15.45-.22.71-.22Zm1.12.1.01.2h-.6v-.2h.6ZM49.8 25.05V32h-.6v-6.95h.6ZM52 25v.35h-5V25h5Zm0 .33v.8h-.1v-.19c0-.16-.04-.3-.13-.4a.4.4 0 0 0-.33-.2v-.01H52Zm-2.78 5.92V32h-.66v-.12h.11c.14 0 .27-.06.37-.18.1-.13.16-.27.16-.45h.02Zm.55 0h.03c0 .18.06.32.16.45.1.12.23.18.37.18h.1V32h-.66v-.75Zm-2.21-5.92v.02a.43.43 0 0 0-.34.19.68.68 0 0 0-.12.4v.19H47v-.8h.56Z" fill="#FEFEFD" /><path d="M36 23h-6l3-3 3 3Z" fill="#fff" /></svg>