<!-- by TradeStack --><svg width="56" height="56" viewBox="0 0 56 56" xmlns="http://www.w3.org/2000/svg"><path fill="#F0F3FA" d="M0 0h56v56H0z"/><circle cx="28" cy="28" r="16" fill="#064274"/><path d="M36.01 14.15a15.9 15.9 0 0 0-5.56-1.96c-1.09.8-1.9 1.58-1.45 1.81.5.25.38.75.25 1.25s-.25 1 .25 1.25c.27.13.57.34.88.55.85.57 1.75 1.18 2.12.45.25-.5.63-.75 1-1 .38-.25.75-.5 1-1 .2-.4.66-.73 1.09-1.04l.42-.31Zm-21.28 22.8A16 16 0 0 1 27.96 12c-.05.82-.19 1.73-.46 2-.5.5-2 2-3.5 2.5l-.65.2c-1.12.34-1.77.53-1.35 1.8.23.68-.06.95-.3 1.18-.3.28-.52.5.3 1.32.71.71.86 1.31.98 1.8.13.54.23.94 1.02 1.2.46.15.93.26 1.38.37 1 .23 1.93.44 2.62 1.13.42.42.76.58 1 .7.33.15.5.22.5.8 0 .8-.67 1.67-1 2-.67.33-2.1 1.1-2.5 1.5-.5.5-2.5.5-2 0s2-3.5 1-3c-.5.25-.75.75-.94 1.12-.18.38-.31.63-.56.38-.13-.13-.25-.31-.38-.5-.37-.56-.74-1.13-1.12 0-.5 1.5-1.5 3.5-1.5 2.5 0-.73-.27-.66-.6-.57-.13.03-.27.07-.4.07-.2 0-.56.16-.92.32-.54.24-1.08.48-1.08.18 0-.5 0-1-.5-1.5-.22-.22-.34-.34-.45-.33-.14.02-.27.26-.55.83-.4.8-.83 3-1 4l-.27 2.95Zm23.05-21.61a15.97 15.97 0 0 1 6.03 15.16H43c-1.6 0-1.77-.4-1.94-.83-.1-.24-.2-.49-.56-.67a7.48 7.48 0 0 1-.91-.5c-.29-.2-.53-.44-1.09-1-.63-.63-.86-.66-1.33-.73A5.88 5.88 0 0 1 36 26.5c-1.22-.4-1.45-.15-2.03.5l-.47.5c-.45.45-.6.9-.71 1.26-.14.44-.24.74-.79.74-.73 0-.66-.54-.57-1.22.03-.24.07-.51.07-.78 0-.59-.51-1.17-.94-1.66-.3-.34-.56-.63-.56-.84 0-.29.65-.57 1.3-.86.5-.21.99-.43 1.2-.64.4-.4.83.17 1 .5.33-.33 1-1.1 1-1.5 0-.27-.43-.54-.98-.88A8.34 8.34 0 0 1 32 20.5c-.6-.6-.3-.66.05-.72.22-.04.45-.08.45-.28 0-.3 1.47.31 2.74.85.83.34 1.56.65 1.76.65.5 0 1-.5.5-1a5.43 5.43 0 0 0-.44-.38c-.47-.37-.94-.75-.56-1.12.25-.25.25-.63.25-1 0-.38 0-.75.25-1 .2-.2.5-.67.78-1.16Z" fill="url(#ahvksvpyx)"/><path d="m41 28.25-5 3.25V33l2-1v2.5l2-1v-2.75l1-.75v-1.75ZM40 34l-2 1v1l2-1v-1Zm-2 3v-.5l2-1v.5l-2 1Zm-16 0v-4.5l2 1v2c.8.4 2.33.5 3 .5v-2.5h2V38h-2v-.5c-.8 0-2.33-.33-3-.5v.5l-2-.5Zm2 1-2-.5v1l2 .5v-1Zm-2 1 2 .5v.5l-2-.5V39Zm5-.5h2v1h-2v-1Zm0 1.5v.5h2V40h-2Zm9-6.5c0-.33-.4-1-2-1s-3.33 1.33-4 2c-.67.67-.8 2.9 2 2.5.67-.17 2.1-.4 2.5 0l2-1c-.17-.33-.7-1-1.5-1-.33 0-.72.06-1.11.11-.78.11-1.56.22-1.89-.11-.17-.17-.3-.6.5-1s1.33.17 1.5.5l2-1Zm-6 5 2-.5c0 .17.3.4 1.5 0s1.17-.5 1-.5l2-1c.17 0 .3.2-.5 1L31.5 39c-.5 0-1.5-.1-1.5-.5Zm6-.5-4 1.5c.17.17 1.7-.1 2.5-.5s1.5-.83 1.5-1Zm-16.5-4.5 2 1c0-.83-.6-2.8-3-4-3-1.5-3.5-1.5-4 1v.5l2.5 2c0-1 .3-2.9 1.5-2.5 1.2.4 1.17 1.5 1 2Zm-1 1.25V34l3 1.5V37l-1.5-.5v-1l-1.5-.75Zm3 3.25v-.5c-3.2-1.2-6-3.5-7-4.5v.5c1.6 1.6 5.33 3.67 7 4.5Zm-6.2-2.68L15 35l5 3c-.33 0-.9-.2-2.5-1-1.28-.64-1.8-1.22-2.2-1.68Z" fill="#FFFDFF"/><defs><linearGradient id="ahvksvpyx" x1="12" y1="27" x2="44" y2="26.5" gradientUnits="userSpaceOnUse"><stop stop-color="#71503D"/><stop offset=".21" stop-color="#CFC8C2"/><stop offset=".33" stop-color="#717E60"/><stop offset=".64" stop-color="#546552"/><stop offset=".76" stop-color="#C5C0C2"/><stop offset="1" stop-color="#A66753"/></linearGradient></defs></svg>