<!-- by TradeStack --><svg width="56" height="56" viewBox="0 0 56 56" xmlns="http://www.w3.org/2000/svg"><path fill="#F0F3FA" d="M0 0h56v56H0z"/><path d="M30.02 35.85s-1.37-8.73 3.7-11.77c4.91-2.95 9.5-2.13 9.5-2.13s2.06 6.95-.52 11.76c-2.59 4.8-11.1 5.34-11.1 5.34s7.81-3.91 7.93-11.22c-2.33 6.2-9.5 8.02-9.5 8.02Z" fill="#75BD44"/><path d="M33.85 40.77c-9.12 1.84-17.66-3.43-19.08-11.78-1.18-6.93 2.91-13.8 9.55-16.99-8.18 2.5-13.5 10.65-12.1 18.95 1.52 8.86 10.13 14.55 19.24 12.7a17.63 17.63 0 0 0 10.87-7.07 18.37 18.37 0 0 1-8.48 4.2v-.01Z" fill="#0C6937"/><path d="M22.28 19.66c4.28-4.5 11.6-4.54 17.17-.42a21.7 21.7 0 0 1 3.28-.98 15.65 15.65 0 0 0-4.9-4.2c-7.18-3.95-15.97-1.63-19.62 5.19-3.39 6.32-1.16 14.28 4.92 18.55-4.88-5.55-5.33-13.44-.85-18.14Z" fill="#FEC60D"/></svg>