<!-- by TradeStack --><svg width="56" height="56" viewBox="0 0 56 56" xmlns="http://www.w3.org/2000/svg"><path fill="#F0F3FA" d="M0 0h56v56H0z"/><path d="m24.63 44 2.75-2.76v-6.1l-2.75-2.76V44Z" fill="#004DA0"/><path d="m21.85 25.3 2.47-2.47L30 28.7v4.94l-8.15-8.33ZM45 24.38 32.65 12.03 30 14.5l10.06 9.88L36 28.69v4.94l9-9.25Z" fill="#A2BBE1"/><path d="M15.94 25.87 27 14.47 24.55 12 11 25.87l11 10.85v-4.94l-6.06-5.9Z" fill="#A2BBE1"/><path d="m27 14.47-11.06 11.4 1.94 1.95L27 18.39v-3.92ZM45 24.38l-9 9.23v-9.64l-3-2.76V44l3-2.76V37.5l8.97-9.2.03-3.92Z" fill="#004DA0"/><path d="m11 25.87 11 10.85V25.3l8 8.33V14.5l10.06 9.88-1.85 2.04-5.2-5.21V44L30 41.2v-3.25l-5.37-5.57V44L11 30.25v-4.38Z" fill="#5E8FCB"/></svg>