<?xml version='1.0' encoding='utf-8'?>
<!-- by TradeStack -->
<svg width="56" height="56" viewBox="0 0 56 56" xmlns="http://www.w3.org/2000/svg"><path fill="#F0F3FA" d="M0 0h56v56H0z" /><path d="M15.26 22.53c1.56 0 3.2.9 3.7 2.47h2.9c-.48-3.14-3.68-5-6.64-5C10.7 20 8 23.75 8 28.02 8 32.37 10.74 36 15.3 36a7.4 7.4 0 0 0 3.47-.78c1-.53 1.8-1.28 2.37-2.25.57-.98.86-2.13.86-3.46V28h-6v2h3.23a3.83 3.83 0 0 1-.47 1.72c-.32.56-.77.99-1.36 1.3-.59.3-1.28.45-2.08.45-3.06 0-4.32-2.74-4.32-5.49 0-2.68 1.24-5.45 4.26-5.45ZM30 20h3v11.1c-.02 2.96-2.2 4.9-5.1 4.9-2.66 0-4.9-1.19-4.9-4h2.85c.01 1.24.94 1.65 2.16 1.65 1.49 0 1.98-1.19 1.99-2.55V20Zm5 2.5V20h13v2.5h-5V36h-3V22.5h-5Z" /></svg>