<?xml version='1.0' encoding='utf-8'?>
<!-- by TradeStack -->
<svg width="56" height="56" viewBox="0 0 56 56" xmlns="http://www.w3.org/2000/svg"><path fill="#F0F3FA" d="M0 0h56v56H0z" /><path d="M13 23v9h3v-3h1.4c.59.02.96.21 1.08.78.1.49.12 1.04.15 1.63 0 .2.02.39.03.59h2.62l-.03-.86a13.46 13.46 0 0 0-.05-1.08 3.6 3.6 0 0 0-.4-1.42c-.22-.39-.52-.66-.88-.81.89-.37 1.08-1.33 1.08-2.26C20.98 24 19.53 23 18 23h-5Zm3 2h1.24c.6 0 1.35.28 1.33 1.04-.03.67-.57.99-1.19.96H16v-2Zm6 7v-9h7v2h-4v1.5h3.5v2H25V30h4v2h-7Zm8-9v9h3v-3.5l2.52 3.5H38v-2.66l1.2-.84 2.27 3.5H52v-2h-4v-1.5h3.5v-2H48V25h3.87v-2H45v9l-3.87-5.48L44.46 23h-3.49L38 26.1V23h-3v4.02L32.9 23H30Zm-23.69.46A4.49 4.49 0 0 1 8.3 23c2.07.02 3.31 1.01 3.7 3H9.74c-.1-.52-.8-1-1.27-1-.97.03-1.62.77-1.73 1.73-.05.4-.07.7-.06.91-.02 1.22.72 2.33 1.97 2.36.55 0 1.25-.41 1.4-1H9v-2h3v5h-1.65v-.77c-.15.14-.42.35-.82.51a4.17 4.17 0 0 1-3.6-.34c-.61-.4-1.09-.92-1.42-1.58-.34-.67-.5-1.41-.51-2.24.02-1.08.24-1.96.68-2.64.43-.67.97-1.17 1.63-1.48Z" fill="#356178" /></svg>