<?xml version='1.0' encoding='utf-8'?>
<!-- by TradeStack -->
<svg width="56" height="56" viewBox="0 0 56 56" xmlns="http://www.w3.org/2000/svg"><path fill="#F0F3FA" d="M0 0h56v56H0z" /><path d="M38.44 14.01c.1.14.1.27.04.4a.25.25 0 0 1-.3.14c-.29-.07-.55-.16-.79-.29a20.73 20.73 0 0 0-7.16-2.36c-.87-.15-1.54-.23-2.01-.24a50.2 50.2 0 0 0-2.51-.02c-2.54.05-5 .63-7.42 1.75a20.5 20.5 0 0 0-3.61 2.11c-.67.5-1.34 1-2.02 1.54-.13.11-.3.3-.48.55-.13.2-.2.17-.18-.06a.54.54 0 0 1 .16-.36 21.36 21.36 0 0 1 7.65-5c1.46-.54 2.94-.9 4.44-1.06 1.56-.17 3.1-.14 4.63.1a28.01 28.01 0 0 1 7.45 2.1l1.38.56c.22.09.45.12.67.11.03 0 .05.01.06.03Z" fill="#96C158" /><path d="m28.87 18.32-.53-.2c-.13-.32-.38-.59-.73-.8-.03 0-.04-.03-.04-.07 0-.03.02-.05.05-.06.29-.1.4-.3.37-.6-.02-.1-.07-.16-.17-.18a.59.59 0 0 0-.63.29.1.1 0 0 1-.07.04.1.1 0 0 1-.09-.02 1 1 0 0 0-.44-.27c-.19-.04-.33.02-.44.2a.22.22 0 0 1-.16.11.22.22 0 0 1-.18-.05.46.46 0 0 0-.27-.11c-.06 0-.13 0-.24.03-.15.04-.27.03-.36-.02-.07-.04-.07-.07 0-.1a.63.63 0 0 1 .36-.05c.04 0 .07 0 .1-.03a.08.08 0 0 0 0-.1c-.1-.2-.23-.37-.4-.5a1.01 1.01 0 0 0-.57-.27.5.5 0 0 1-.42-.25c-.11-.19-.27-.25-.48-.2l-.16.05c-.2.06-.24.17-.13.34.28.41.57.76.87 1.04.08.07.07.12-.04.14l-.2.03a.38.38 0 0 1-.38-.17c-.2-.27-.47-.47-.83-.6a3.9 3.9 0 0 0-1.01-.2c-.32-.03-.55-.22-.68-.55-.04-.08-.01-.14.07-.18 1.25-.52 2.46-.87 3.65-1.04 1.77-.24 3.5-.2 5.2.13a14.66 14.66 0 0 1 11.05 9.5c.08.21.13.44.17.67.04.3-.05.34-.27.13a9.12 9.12 0 0 1-.27-.27 3.88 3.88 0 0 0-.76-.66 5.44 5.44 0 0 0-2.43-.71 6.8 6.8 0 0 0-2.54.33c-.6.2-1.28.66-2.05 1.39-.52.5-.62.42-.3-.22.2-.37.45-.73.74-1.08.06-.07.1-.15.1-.24a.45.45 0 0 0-.04-.26c-.1-.2-.14-.41-.14-.64a.2.2 0 0 0-.1-.17.2.2 0 0 0-.2 0c-.33.18-.52.47-.58.87 0 .03-.02.04-.05.05h-.06c-.05 0-.07-.02-.07-.06.05-.9.42-1.35 1.13-1.39.13 0 .24-.05.32-.14.22-.22.38-.5.46-.83a.2.2 0 0 0-.14-.25c-.5-.15-.88-.31-1.17-.47-.4-.22-.71-.5-.95-.83-.2-.27-.36-.25-.49.07-.06.15-.17.22-.33.2a.27.27 0 0 1-.19-.13 4.03 4.03 0 0 1-.09-.13c-.07-.12-.13-.2-.18-.25a.77.77 0 0 0-.27-.2c-.52-.22-.9-.3-1.13-.26-.2.03-.26.1-.19.2Z" fill="#3689C3" /><path d="m45.26 20.95-2.15-.3c-.74-.1-1.46-.5-2.14-1.2a6.08 6.08 0 0 1-1.35-2.15c-.21-.62-.4-1.19-.59-1.7-.13-.4-.15-.75-.04-1.02.13-.33.4-.47.85-.43.59.05 1.03.1 1.32.14.46.07.86.17 1.2.3.8.3 1.44.85 1.9 1.64.23.4.4.72.52.96.17.37.3.71.38 1.03a25 25 0 0 0 .83 2.74.1.1 0 0 1-.02.12.1.1 0 0 1-.12.02 3.28 3.28 0 0 0-.59-.15Z" fill="#96C158" /><path d="M42.43 18.2c-.5-.61-.94-1.11-1.32-1.5-.47-.5-.93-.9-1.38-1.25-.22-.17-.2-.25.09-.23.12 0 .25.04.38.11a5.69 5.69 0 0 1 2.53 2.85c.04.09.01.13-.09.12a.3.3 0 0 1-.21-.1Z" fill="#fff" /><path d="M12.67 25.85a.43.43 0 0 1-.1-.37c.29-1.56.9-3.1 1.86-4.62.9-1.42 1.99-2.68 3.27-3.76a.42.42 0 0 1 .57.02c.3.3.57.68.81 1.11.11.2.15.4.13.6-.12.87-.2 1.75-.24 2.65 0 .28 0 .57.05.88.01.1-.02.2-.09.27a.34.34 0 0 1-.27.12 8.43 8.43 0 0 0-2.7.28c-.9.27-1.63.76-2.22 1.48-.33.4-.67.85-1.03 1.34-.01.02-.02.02-.04 0ZM28.34 18.12l.53.2.76 1.7c.04.07.04.14 0 .21-.17.43-.19.89-.03 1.39.05.17-.01.23-.18.16a1.04 1.04 0 0 1-.16-.08.8.8 0 0 1-.33-.4l-.22-.55a.22.22 0 0 0-.18-.14 4.4 4.4 0 0 1-2-.9c-.33-.25-.42-.56-.28-.92.1-.24.3-.52.62-.83a.22.22 0 0 1 .2-.07l1.27.23Z" fill="#398AB1" /><path d="M17.94 32.3a3.4 3.4 0 0 0 1.6-.56c.69-.41 1.17-.98 1.45-1.7.1-.3-.21-.3-.38-.29l-3.2.01c-.33 0-.48-.18-.46-.53v-.44c0-.26.14-.4.4-.4l5.46-.02c.06 0 .1.02.14.06a.2.2 0 0 1 .05.13c0 .73-.15 1.5-.46 2.3a4.97 4.97 0 0 1-1.45 1.93 4.93 4.93 0 0 1-4.36 1.1 5.03 5.03 0 0 1-4.03-3.88 5.68 5.68 0 0 1 .17-3.57A5.4 5.4 0 0 1 17.93 23c.48 0 .84.01 1.08.06a4.9 4.9 0 0 1 3.34 2.6c.04.07.04.13.02.2-.02.08-.07.14-.14.14H20.7a.65.65 0 0 1-.52-.2c-1.89-1.94-4.78-.99-5.7 1.39a3.5 3.5 0 0 0-.2 1.83c.08.6.3 1.15.66 1.66.35.51.78.9 1.3 1.19.54.3 1.1.44 1.7.42ZM37.65 24.84a3.63 3.63 0 0 0-4.36 3.8c.02.64.18 1.23.48 1.77a3.3 3.3 0 0 0 1.3 1.33c1.46.81 2.82.7 4.07-.36.18-.15.38-.24.61-.29.14-.02.35-.03.64-.03.4 0 .7-.03.9-.1.05-.01.1 0 .14.02.04.03.06.07.07.12a.68.68 0 0 1-.16.5c-.29.37-.59.7-.9 1.02a4.6 4.6 0 0 1-3.04 1.36c-2 .15-3.6-.56-4.77-2.12a5.75 5.75 0 0 1-1.13-3.5c-.01-.94.27-1.87.85-2.8A5.49 5.49 0 0 1 36.8 23c.6-.02 1.19.07 1.76.25a5.31 5.31 0 0 1 2.9 2.43c.05.08.05.16.01.24a.22.22 0 0 1-.2.12l-.09.01c-.44.02-.76.02-.97 0a1.7 1.7 0 0 1-.88-.33 4.25 4.25 0 0 0-1.68-.88Z" fill="#5C895C" /><path d="M32.16 25.33a.24.24 0 0 1-.08.1c-.1.08-.17.08-.22.01-.08-.1-.07-.2.04-.27l.3-.23c.09-.07.11-.05.08.05l-.12.34ZM18.3 26.89c.04.12.1.23.21.32a2.18 2.18 0 0 0 .33.23c.07.05.1.11.09.2-.03.2-.16.36-.38.36-.6 0-1.17.03-1.73 0-.13 0-.24-.01-.33.08-.09.08-.13.19-.13.31l.04 1.5c0 .08.03.14.09.2.05.05.12.08.2.08.87 0 1.76 0 2.65.03.21 0 .39.1.54.27.05.07.07.14.06.22 0 .08-.04.14-.1.2-.6.5-1.27.75-2.02.74-1.44-.02-2.42-.74-2.94-2.16a2.67 2.67 0 0 1-.16-1.1c.02-.33.11-.69.27-1.08a2.9 2.9 0 0 1 2.89-1.95c.09 0 .16.03.23.1.06.06.09.14.08.23-.02.44.02.84.12 1.22Z" fill="#398AB1" /><path d="M34.09 29.82a3.53 3.53 0 0 1-.24-1.96c.1-.73.42-1.3.93-1.73a3.4 3.4 0 0 1 1.94-.8 2.65 2.65 0 0 1 2.1.71c.16.14.29.24.38.3.15.1.3.15.44.16.55.05 1.12.05 1.7 0 .07 0 .14.02.2.07.07.04.1.1.12.18.05.31.07.62.07.92 0 .85 0 1.72-.04 2.63a.21.21 0 0 1-.2.21c-.54.02-1.08.02-1.65-.02a1 1 0 0 0-.55.13 3 3 0 0 0-.45.33l-.23.18a2.8 2.8 0 0 1-2.22.48 2.86 2.86 0 0 1-2.3-1.8Z" fill="#3689C3" /><path d="M31.1 36.72c-.06 0-.09.03-.1.08-.43 0-.72-.16-.88-.48a2.17 2.17 0 0 1-.14-1.04c0-.16-.07-.25-.22-.26l-1.28-.07c-.33-.02-.42-.18-.29-.48l.03-.06a.61.61 0 0 1 .65-.39c.7.05 1.43.04 2.19-.02.1 0 .2-.05.28-.13a.43.43 0 0 0 .12-.3l.03-.52c0-.11.06-.16.16-.14l.63.1c.07 0 .13-.01.18-.07a.18.18 0 0 0 .03-.18.24.24 0 0 0-.18-.17c-.4-.1-.66-.28-.8-.55a.65.65 0 0 0-.22-.25.34.34 0 0 0-.23-.05 5.8 5.8 0 0 1-1.16.02c-.96-.07-1.87-.09-2.75-.04-.24 0-.36-.1-.36-.35v-1.02c0-.22.1-.31.33-.27.24.04.45 0 .63-.14.2-.14.48-.22.86-.23.27 0 .57.02.9.09.13.02.22.1.26.23.2.52.44.98.75 1.38.09.12.21.17.37.14.08 0 .11-.05.1-.13a3.69 3.69 0 0 0-.34-.97c-.16-.3-.23-.64-.22-1.03.02-.34.1-.68.24-1.02.05-.1.12-.19.22-.24a.17.17 0 0 1 .18 0c.06.04.08.09.08.15a6.16 6.16 0 0 0 1.73 4.33 1 1 0 0 1 .16.27l.05.1c.03.06.07.1.12.12l1.2.56c1.08.48 2.15.67 3.23.55a4.79 4.79 0 0 0 2.88-1.32l.6-.55c.12-.11.15-.09.1.07-.27.76-.6 1.54-.98 2.34-.08.17-.2.32-.38.44a3.94 3.94 0 0 1-.57.32c-.2.1-.25.05-.16-.15a.87.87 0 0 0 .08-.45.32.32 0 0 0-.18-.26.32.32 0 0 0-.32 0c-.22.11-.41.25-.58.42a.22.22 0 0 1-.23.05 9.8 9.8 0 0 1-.34-.1c-.26-.1-.46-.16-.6-.18a1.68 1.68 0 0 0-.66.04c-.68.17-1.38.3-2.1.37-.84.1-1.4.46-1.68 1.1a.43.43 0 0 1-.27.26.43.43 0 0 1-.37-.04c-.3-.18-.56-.14-.79.12Z" fill="#398AB1" /><path d="M31 36.8c.01-.05.04-.07.1-.08.7.05 1.01.4.96 1.04-.03.38-.3.77-.83 1.16-.15.1-.26.24-.34.4-.05.1-.1.26-.16.47l-.11.36a.18.18 0 0 0 .05.22l1.1 1.03c.05.05.11.09.18.1.3.05.61.06.94.03.03 0 .06.01.09.04s.04.06.03.1c0 .05-.03.08-.07.1a15.13 15.13 0 0 1-9.56.8c-.3-.06-.72-.2-1.27-.43l-.7-.26a11.6 11.6 0 0 1-3.1-1.71c-.96-.72-1.8-1.52-2.55-2.4a15.87 15.87 0 0 1-3.14-6.14c-.09-.32-.02-.35.2-.1l.27.31c.45.52.8.9 1.04 1.11.41.37.84.64 1.3.81.58.22 1.15.37 1.72.45.67.1 1.27.08 1.78-.05.62-.16 1.17-.35 1.65-.56.23-.1.52-.31.9-.63l.42-.34c.28-.21.38-.14.3.2a.87.87 0 0 0 .09.62c.09.17.23.32.43.44.54.33.96.57 1.27.72.5.24.95.38 1.35.43.1.01.23 0 .4-.03.16-.04.27-.05.35-.05a.3.3 0 0 1 .2.08c.27.23.57.42.92.54a8.11 8.11 0 0 0 1.2.32c.25.06.45.17.6.34.55.6 1.15.93 1.8 1 .22.02.28-.13.2-.44Z" fill="#3689C3" /><path d="M26 32.47H29.87c.37 0 .54.2.48.6l-.08.65c-.02.16-.11.28-.27.28h-5.7c-.12 0-.3-.1-.3-.22V23.22c0-.11.15-.2.26-.2l5.86-.02c.17 0 .26.09.25.27v1.05c-.01.17-.1.26-.26.26H26v2.82h3.24a.2.2 0 0 1 .16.08c.05.05.06.11.06.18l-.1 1.08c-.02.17-.1.26-.26.26H26v3.47Z" fill="#5C895C" /></svg>