<!-- by TradeStack --><svg width="56" height="56" viewBox="0 0 56 56" xmlns="http://www.w3.org/2000/svg"><path fill="url(#adp525ub3)" d="M0 0h56v56H0z"/><path d="M21 33.71c0 2.8-2.04 5.29-5 5.29s-5-2.48-5-5.29V27h5v3h-2v3.71c0 1.15.74 2.29 2 2.29s2-1.14 2-2.29V22.3c0-1.22-.72-2.29-2-2.29-1.27 0-2 1.08-2 2.29V23h-3v-.71c0-2.83 2.13-5.29 5-5.29 2.95 0 5 2.49 5 5.29V33.7ZM35 33.71c0 2.8 2.04 5.29 5 5.29s5-2.48 5-5.29V27h-5v3h2v3.71c0 1.15-.74 2.29-2 2.29s-2-1.14-2-2.29V22.3c0-1.22.72-2.29 2-2.29 1.27 0 2 1.08 2 2.29V23h3v-.71c0-2.83-2.13-5.29-5-5.29-2.95 0-5 2.49-5 5.29V33.7ZM24 39V17h9v3h-6v7h5v3h-5v9h-3Z" fill="#fff"/><defs><linearGradient id="adp525ub3" x1="10.42" y1="9.71" x2="68.15" y2="76.02" gradientUnits="userSpaceOnUse"><stop stop-color="#1A1E21"/><stop offset="1" stop-color="#06060A"/></linearGradient></defs></svg>