<!-- by TradeStack --><svg width="56" height="56" viewBox="0 0 56 56" xmlns="http://www.w3.org/2000/svg"><path fill="#F0F3FA" d="M0 0h56v56H0z"/><path d="M24.6 19.25h.04l2.7-1.56a.06.06 0 0 0 .03-.06v-6.6c0-.02-.02-.03-.04-.03a16.95 16.95 0 0 0-7.9 2.32v.02l5.13 5.9.04.01Zm6.76 0c.03.02.06.01.09-.02l5.12-5.89a.02.02 0 0 0 0-.02 16.98 16.98 0 0 0-7.9-2.31c-.02 0-.04 0-.04.03v6.6c0 .03.01.04.03.05l2.7 1.56Zm1.2.64 5.1-5.86a.03.03 0 0 1 .03 0c1.68 1.16 3.11 2.59 4.29 4.26.01.03 0 .04-.02.05l-6.72 3.1a.06.06 0 0 1-.05 0l-2.61-1.5c-.03-.02-.03-.03-.01-.05Zm-18.54-1.54 6.75 3.1h.06l2.62-1.51a.02.02 0 0 0 0-.04l-5.08-5.85a.04.04 0 0 0-.06 0 17.3 17.3 0 0 0-4.29 4.3Zm8.23 3.8v-.01a.02.02 0 0 1 0-.03l5.72-3.3a.07.07 0 0 1 .07 0l5.7 3.28c.03.02.03.04 0 .06l-3.69 1.7c-.54.25-.64.7-.65 1.25l-.02 2.88c0 .02 0 .02-.02.02H26.6c-.01-.97-.02-1.93-.01-2.88 0-.56-.1-1.01-.6-1.24-1.24-.58-2.49-1.16-3.75-1.73Zm-2.25.24-6.64-2.96h-.03a16.58 16.58 0 0 0-2.3 6.93H19.99l.01-.03v-3.94Zm22.67-2.97h.02a16.61 16.61 0 0 1 2.31 6.9c0 .03-.01.04-.04.04h-8.93c-.02 0-.03 0-.03-.03v-3.9c0-.02.01-.04.03-.05l6.64-2.96Zm-17.32 6.7-2.44-1.09h-.01V25l-.28-1.3-.01-.01-1.58-.7v-.01A.02.02 0 0 0 21 23v3.67l.06.06 2.94 1.6s-.03 3.38 0 4.1a40.3 40.3 0 0 0 1.26.95l2.1-2.16v-1.11l-1.99-.93v-3.06a.02.02 0 0 0-.02-.02Zm3.28 5.09v-1.08l.02-.01 1.97-.92.01-.01v-3.05l.01-.02h.01l2.45-1.09a.03.03 0 0 0 .01-.02l.27-1.3.01-.01 1.52-.7c.02-.01.09 0 .09.02v3.7l-.05.06-2.93 1.55-.01.01v.01L32 32.43v.02l-1.23.94h-.03l-2.1-2.16v-.02Zm-7.1-2.74c-.44-.26-.89-.53-1.34-.77a.63.63 0 0 0-.3-.07h-8.84c-.03 0-.05.02-.05.05a17.17 17.17 0 0 0 1.67 7.69c0 .03.03.03.05.01l9.24-6.57c.04-.03.04-.06 0-.08l-.43-.26Zm12.5.33c-.02 0-.02-.01-.01-.04 0-.01 0-.02.02-.03l1.87-1.08a.1.1 0 0 1 .05-.02h8.99c.03 0 .05.02.05.05a17.1 17.1 0 0 1-1.7 7.71h-.01l-9.25-6.58h-.01Zm-20.71 7.76a17.24 17.24 0 0 0 4.12 4.76c.04.03.08.03.11 0l6.74-6.94c.04-.04.04-.07 0-.1l-1.69-1.13a.06.06 0 0 1-.03-.06V30c0-.04-.01-.05-.04-.03l-9.2 6.55c-.02.01-.03.03-.01.05Zm25.15 4.78-6.8-7c-.02 0-.02-.02 0-.04l1.75-1.16a.05.05 0 0 0 .02-.05V30c0-.03.02-.04.05-.02l9.18 6.54c.02.01.02.03.01.05a17.04 17.04 0 0 1-4.15 4.79h-.06ZM28 32.41l-1.65 1.69a.02.02 0 0 0 0 .03l1.65 1.12a.02.02 0 0 0 .02 0l1.65-1.12h.01a.02.02 0 0 0 0-.02v-.01l-1.65-1.7a.02.02 0 0 0-.03 0Zm.64 12.53V36.4c0-.03.01-.05.03-.06l1.9-1.28c.02-.01.03 0 .05.01l6.84 7.04c.02.01.02.03 0 .04A16.95 16.95 0 0 1 28.69 45c-.04 0-.06-.02-.06-.06Zm-3.23-9.87-6.85 7.04c-.02.01-.01.03 0 .04a16.95 16.95 0 0 0 8.81 2.83V36.4a.1.1 0 0 0-.04-.09l-1.87-1.26-.05.01Z" fill="#CDAA20"/></svg>