<?xml version='1.0' encoding='utf-8'?>
<!-- by TradeStack -->
<svg width="56" height="56" viewBox="0 0 56 56" xmlns="http://www.w3.org/2000/svg"><path fill="#F0F3FA" d="M0 0h56v56H0z" /><path d="M31.24 17.99a4606.17 4606.17 0 0 0 3.72-9.19 3.1 3.1 0 0 0 .3-.79c-.23.27-.37.51-.45.73 0 .02-.02.05-.04.06a.84.84 0 0 0-.18.32l-.08.18-1.2 2.14-6.38 11.4a.28.28 0 0 1-.1.12c-.06.03-.14.01-.26-.05a737 737 0 0 0-4.5-2.55c-.14-.1-.27-.13-.37-.12 0 0-.01 0 0 0a5180.95 5180.95 0 0 1 5.74 6.9c.06.04.12 0 .16-.11l3.64-9.04Zm2.77-3.55a3516.46 3516.46 0 0 1-5.26 13.05c-.05.12-.03.18.04.19h.07c.36-.07.77-.13 1.23-.2a552.65 552.65 0 0 0 7.8-1.23h-.03a1.13 1.13 0 0 0-.2-.07c-1.79-.38-3.56-.75-5.32-1.1-.15-.03-.2-.1-.18-.23a11.15 11.15 0 0 1 .12-.58 928.47 928.47 0 0 1 1.9-9.56.7.7 0 0 1 .04-.15c.06-.13.1-.27.1-.44a6.64 6.64 0 0 1 .07-.53c-.13.1-.2.24-.2.42l-.01.02a.96.96 0 0 0-.13.27l-.04.14Zm-17 15c2-1.1 3.73-2 5.16-2.76.1-.05.15-.14.15-.25a6.27 6.27 0 0 1-1.67-5.33c.2.21.37.42.54.62l5.16 6.21c.08.1.08.16 0 .19a8181.64 8181.64 0 0 0-8.86 1.32 2.86 2.86 0 0 1-.48 0ZM38 27.66v-.08l-1.84.27a3570.91 3570.91 0 0 0-7.08 1.07c-.08 0-.13.04-.15.1-.02.05 0 .1.06.15l.13.14a2366.62 2366.62 0 0 0 5.51 6.56.31.31 0 0 0 0-.22 790.29 790.29 0 0 0-1.58-4.8c-.08-.22-.02-.39.18-.5 1.37-.76 2.96-1.66 4.77-2.7ZM22.11 40.63l-.44 1.1h-.01a.95.95 0 0 1-.02-.5l.08-.44 1.09-6.37.03-.17.15-.95c.05-.34.11-.67.19-.98.02-.1 0-.2-.08-.26a.53.53 0 0 0-.23-.08l-4.62-.88-.97-.19a.15.15 0 0 1-.1-.06v-.02c.4-.08.82-.16 1.26-.22l1.07-.15a854.87 854.87 0 0 1 6.92-1.03c.07 0 .12.01.14.04.01.02 0 .07-.01.14a22365.32 22365.32 0 0 0-4.44 11.02ZM20.48 48h.02l.03-.04a3.66 3.66 0 0 0 .48-.86 3399.14 3399.14 0 0 0 7.45-12.95c.04-.04.11-.03.2 0l.5.25a10087.03 10087.03 0 0 1 4.16 2.31c.11.08.24.13.38.15 0 0 .01 0 0 0l-.13-.22a.22.22 0 0 0-.1-.08 41353.08 41353.08 0 0 1-5.51-6.58c-.1-.1-.16-.1-.2.02a176.1 176.1 0 0 1-.55 1.32 3352.57 3352.57 0 0 1-6.68 16.38l-.11.26v.01l.06.03Z" fill="#9E7D23" /></svg>