<?xml version='1.0' encoding='utf-8'?>
<!-- by TradeStack -->
<svg width="56" height="56" viewBox="0 0 56 56" xmlns="http://www.w3.org/2000/svg"><path fill="#F0F3FA" d="M0 0h56v56H0z" /><path d="M19 35c1.53-4.63 6.33-8 12-8s10.47 3.37 12 8h-.84c-1.76-3.51-6.1-6-11.16-6-5.07 0-9.4 2.49-11.16 6H19Z" fill="#0B5537" /><path d="M6 35c2.36-6.94 9.75-12 18.5-12S40.64 28.06 43 35h-.9c-2.42-5.8-9.39-10-17.6-10S9.32 29.2 6.9 35H6Z" fill="#21A957" /><path d="M6 35c3.76-15.21 15.95-19 21.57-19a26.7 26.7 0 0 1 10.68 2.6c-3.36-.07-10.61-.13-12.7.2C14.83 20.21 8.6 30.2 6.82 35H6Z" fill="#71BA32" /><path d="M50 35c-2.3-10.4-9.49-18-18-18s-15.7 7.6-18 18h.93c2.4-8.72 9.13-15 17.07-15 7.94 0 14.68 6.28 17.07 15H50Z" fill="#0B5537" /></svg>