<!-- by TradeStack --><svg width="56" height="56" viewBox="0 0 56 56" xmlns="http://www.w3.org/2000/svg"><path fill="#F0F3FA" d="M0 0h56v56H0z"/><path fill-rule="evenodd" d="M22 27.97V16h2v12.02c0 .54.61.98 1.16.98h.36v2h-.43A3.06 3.06 0 0 1 22 27.97ZM20 20v4.97a3.52 3.52 0 0 1-3.63 3.53h-5.6a.75.75 0 0 0-.76.76c0 .42.34.74.75.74h6c1.8 0 3.24 1.68 3.24 3.5v1.2c0 1.82-1.45 3.3-3.24 3.3h-4.58a3.27 3.27 0 0 1-3.23-3.3V33h.34c.92 0 1.71.76 1.71 1.7v.2c0 .67.48 1.1 1.13 1.1h4.92c.65 0 .95-.43.95-1.1v-1.7c0-.66-.3-1.2-.95-1.2h-6.3C9.23 32 8 30.97 8 29.42v-.3c.02-.44.1-1.47 1-2.03v-3.6C9 21.56 10.72 20 12.61 20H20Zm-7.35 2c-.9 0-1.65.7-1.65 1.57v2.93h5.35c.9 0 1.65-.7 1.65-1.57V22h-5.35ZM26 23.16c0-1.74 1.4-3.16 3.13-3.16h3.74A3.15 3.15 0 0 1 36 23.16v4.68c0 1.74-1.4 3.16-3.13 3.16h-3.74A3.15 3.15 0 0 1 26 27.84v-4.68Zm2 .26c0-.78.66-1.42 1.48-1.42h3.04c.82 0 1.48.64 1.48 1.42v4.16c0 .78-.66 1.42-1.48 1.42h-3.04c-.82 0-1.48-.64-1.48-1.42v-4.16Zm9-.36V31h2v-7.9c0-.5.74-1.1 1.25-1.1H43v-2h-2.9c-1.71 0-3.1 1.37-3.1 3.06ZM46 20h-2v11h2V20Z" fill="#393536"/><path d="M44 18.95c0-1.08 1.03-1.95 2.3-1.95H48v.55c0 1.08-1.03 1.95-2.3 1.95H44v-.55ZM23 33v3h2v-.56h-1.26v-.77h1.11v-.55h-1.11v-.6H25V33h-2Zm9 0v3h2v-.56h-1.26v-.77h1.11v-.55h-1.11v-.6H34V33h-2Zm-5 0v3h.64v-1.84L28.82 36h.68v-3h-.68v1.83L27.78 33H27Zm9 3v-3h1.23c.45 0 .82.4.82.88 0 .36-.2.68-.51.81.06.07.11.14.13.19l.47 1.12h-.66l-.47-1.25h-.43V36H36Zm1.17-2.5h-.58v.79h.58c.2 0 .37-.18.37-.4 0-.22-.16-.4-.37-.4Zm5.13-.31v.58a1.14 1.14 0 0 0-.76-.25c-.16 0-.95.1-.95 1s.7 1 .92 1c.18 0 .27-.05.3-.08v-.62h-.53v-.55h1.15v1.37c-.08.12-.38.36-.89.36-1.24 0-1.54-.95-1.54-1.43 0-1.38 1.02-1.57 1.54-1.57.42 0 .68.13.76.19Zm1.93-.19 1.17 1.64V36h.6v-1.36L47 33h-.76l-.53 1.08-.64-1.08h-.84Z" fill="#59B255"/></svg>