<!-- by TradeStack --><svg width="56" height="56" viewBox="0 0 56 56" xmlns="http://www.w3.org/2000/svg"><path fill="#555" d="M0 0h56v56H0z"/><path fill-rule="evenodd" d="M8.75 23c3.25 0 4.24 1.93 4.33 3h-2.09c-.07-.46-.62-1.2-2.24-1.2-2.03 0-2.57 1.9-2.59 2.86-.02.83.41 2.49 2.35 2.49 1.33 0 2-.59 2.29-1.15H9v-2h4.1v5H11v-.78a4.1 4.1 0 0 1-2.49.78A4.29 4.29 0 0 1 4 27.66c0-1.7.69-4.66 4.75-4.66ZM16 23h-2v9h2v-9Zm15.21 5h-2.04c-.16-.8-.7-1.39-1.55-1.39-1.01 0-1.6.85-1.6 1.89s.6 1.89 1.6 1.89c.84 0 1.39-.6 1.55-1.39h2.04c-.2 1.7-1.52 3-3.59 3-2.27 0-3.62-1.57-3.62-3.5s1.32-3.5 3.62-3.5c2.1 0 3.39 1.3 3.6 3Zm7.02.5c0 1.93-1.3 3.5-3.5 3.5s-3.5-1.57-3.5-3.5 1.27-3.5 3.5-3.5c2.22 0 3.5 1.57 3.5 3.5Zm-1.96 0c0 1.04-.57 1.89-1.54 1.89-.97 0-1.54-.85-1.54-1.89s.56-1.89 1.54-1.89 1.54.85 1.54 1.89Zm15.73 0c0 .18-.01.35-.03.52H47c.16.79.7 1.37 1.49 1.37.57 0 1-.3 1.27-.76h2.07c-.41 1.38-1.6 2.37-3.34 2.37-2.2 0-3.5-1.57-3.5-3.5s1.28-3.5 3.5-3.5c2.22 0 3.5 1.57 3.5 3.5Zm-3.5-1.89c-.71 0-1.2.45-1.42 1.1h2.84c-.22-.65-.7-1.1-1.42-1.1Zm-5.64.62h1.95c-.03-.75-.7-2.23-3.15-2.23-3.08 0-3.2 1.75-3.2 2.47 0 .71.59 1.77 2.5 1.83 1.9.05 2.04.43 2.04.6 0 .18-.2.65-1.34.65-1.14 0-1.42-.6-1.5-.92h-1.91c-.08.79.5 2.37 3.4 2.37 2.91 0 3.42-1.8 3.32-2.7-.07-.47-.55-1.45-1.97-1.62l-.62-.07c-1.34-.16-1.97-.23-1.97-.65 0-.48.76-.53 1.25-.53s1.06.17 1.2.8Z" fill="#fff"/><path fill-rule="evenodd" d="M20.4 19c-.03.3.08.9.74.85.08-.1.18-.33 0-.51-.13-.13-.38-.2-.55-.26-.1-.03-.19-.05-.19-.08Zm.77 1.27c-.18.33 0 .72.1.87 0-.22.06-.72.45-.93.38-.2.81-.23.98-.22-.3.12-.96.4-1.15.61-.2.2-.18.58-.15.74.23.04.84.02 1.39-.43.55-.44.79-1.22.84-1.56-.2.2-.84.25-1.35.28-.5.04-.9.22-1.12.64Zm-1.5.95c.52 0 .94-.4.94-.9s-.42-.9-.94-.9c-.51 0-.93.4-.93.9s.42.9.93.9Zm0-.26c.37 0 .67-.29.67-.64 0-.36-.3-.65-.67-.65a.66.66 0 0 0-.67.65c0 .35.3.64.67.64Zm2.22 1.35c0 .41-.34.75-.77.75a.76.76 0 0 1-.78-.75c0-.41.35-.75.78-.75.43 0 .77.34.77.75Zm-.22 0c0 .3-.25.53-.55.53a.54.54 0 0 1-.56-.53c0-.3.25-.53.56-.53.3 0 .55.23.55.53ZM17.81 25l1.93.16c.23.14.29.35.16.75-.13.4-1.36 3.15-1.97 4.47h4.5L20.5 25.9c-.04-.2-.11-.54.12-.67a9.5 9.5 0 0 1 2.19-.24l.2 1.46-.7.16c.29.6.92 1.88 1.17 2.35.3.59.59 1.43.59 1.8 0 .36-.43 1.23-4.01 1.23-3.58 0-3.66-1.03-3.66-1.24 0-.2.03-1.03.6-2.05l1.18-2.09-.7-.16c-.04-.17-.04-.7.32-1.46Zm2.27-1.29c0 .27-.22.48-.5.48a.49.49 0 0 1-.49-.48c0-.26.22-.47.5-.47.27 0 .5.21.5.47Zm-.21 0c0 .15-.13.27-.28.27a.28.28 0 0 1-.28-.27c0-.15.12-.27.28-.27.15 0 .28.12.28.27Zm-.45-1.42c-.06-.15-.42-.42-.6-.54.39.12.6.35.74.49.08.08.13.13.17.11.1-.05 0-.55-.2-.68s-.62-.25-.98-.26c-.28 0-.59-.23-.7-.34 0 .15.09.55.29.9.25.43.68.68.96.72.28.03.4-.2.32-.4Zm1.67 1.26a.9.9 0 0 1-.43.33.58.58 0 0 0-.38.46c0 .12.34.2.6.07.2-.11.23-.63.22-.87l-.01.01Z" fill="#0F0"/></svg>