<!-- by TradeStack --><svg width="56" height="56" viewBox="0 0 56 56" xmlns="http://www.w3.org/2000/svg"><path fill="#F0F3FA" d="M0 0h56v56H0z"/><path fill-rule="evenodd" d="M27.47 10 44 22.8v8.87l-8 7.37v-9.77l1.27-1.26-9.76-8.75-9.77 9.56 9.74 8.4 1.77-1.76L27 33.68V24.8l7 6.94v8.35L27.5 46 12 32.17v-7.86L27.47 10Zm2.5 24.76L28 33.2v-6l4.8 4.75-2.84 2.8ZM33 33.15l-2.65 2.62L28 38.1v6.1l5-4.54v-6.51Zm-6 11.07L13 31.73V25.7l3.66 3.51L27 38.12v6.1Zm-13.77-19.7L17 28.16l10-9.78V11.8L13.23 24.53ZM28 11.68v6.69l10 8.96 4.72-4.25L28 11.67Zm15 12.49-4.65 4.19L37 29.68v7.08l6-5.52v-7.08Z" fill="#A48646"/></svg>