<?xml version='1.0' encoding='utf-8'?>
<!-- by TradeStack -->
<svg width="56" height="56" viewBox="0 0 56 56" fill="none" xmlns="http://www.w3.org/2000/svg">
<rect width="56" height="56" fill="#F0F3FA" />
<path fill-rule="evenodd" clip-rule="evenodd" d="M28 38C41.2548 38 52 35.6223 52 32.6894C52 32.1965 51.6966 31.7193 51.1288 31.2665C51.2628 31.4608 51.3319 31.659 51.3319 31.8604C51.3319 34.3355 40.8858 36.342 28 36.342C15.1141 36.342 4.66809 34.3355 4.66809 31.8604C4.66809 31.659 4.73721 31.4608 4.87113 31.2665C4.3034 31.7193 4 32.1965 4 32.6894C4 35.6223 14.7452 38 28 38Z" fill="#98012E" />
<ellipse cx="27.3189" cy="27.4892" rx="7.80123" ry="9.48913" fill="#4EBDEB" />
<path fill-rule="evenodd" clip-rule="evenodd" d="M23.9468 20.1942C23.7325 19.9095 23.3349 19.712 23.0932 19.6222C24.2965 18.598 25.7473 18 27.3091 18C31.4717 18 34.8461 22.2484 34.8461 27.4891C34.8461 29.8697 34.1498 32.0454 32.9997 33.7113L32.4938 33.5251C32.4836 33.2821 32.244 32.7096 32.1255 32.4538C32.4856 31.9769 31.8969 30.615 31.3127 30.9668C30.8453 31.2482 31.5074 32.1607 31.8969 32.5817L31.5413 33.5251L31.0587 33.3652C30.9655 32.9921 30.764 32.1308 30.7031 31.6703C30.6558 31.3134 30.3448 31.2393 30.0366 31.1658C29.8478 31.1208 29.6601 31.0761 29.5346 30.9668C29.2044 30.679 29.0647 31.3026 29.8648 31.9421C30.665 32.5817 30.2205 33.685 29.7378 33.8289C29.3518 33.944 29.1282 34.1221 29.0647 34.1967C29.0605 34.3353 28.9352 34.6476 28.4678 34.7883C28.0005 34.929 27.9429 35.2733 27.9725 35.4279C28.001 35.951 28.1463 36.4518 28.3353 36.891C27.9997 36.9486 27.6572 36.9783 27.3091 36.9783C23.1465 36.9783 19.7721 32.7298 19.7721 27.4891C19.7721 26.9206 19.8118 26.3638 19.8879 25.8228H20.8789V24.362C20.9798 24.6372 21.3296 25.1919 21.9215 25.2088C22.5134 25.2258 22.6726 25.7945 22.6782 26.0768C23.2028 26.1107 23.2219 27.093 23.1658 27.58C23.6647 27.5376 24.5716 27.6477 24.2084 28.4268C23.7544 29.4007 24.2757 30.3746 24.6624 30.4381C24.9719 30.4889 25.0234 29.6492 25.0105 29.223C25.0791 29.2086 25.3124 29.1193 25.6967 28.8774C26.081 28.6355 25.6624 27.567 25.405 27.063L25.5251 26.9118L25.9541 27.3438C26.0799 27.2502 26.3555 27.063 26.4516 27.063C26.6986 26.51 27.8241 25.4358 28.3559 24.9678C28.7277 24.9462 29.6495 24.7432 30.3632 24.1038C31.2553 23.3046 31.0838 21.5766 30.8436 20.6478C30.6514 19.9048 30.5119 20.3382 30.4662 20.6478C30.5119 21.0798 30.576 22.1728 30.4662 23.0886C30.3564 24.0044 29.5969 24.003 29.2309 23.8878C29.0307 23.7798 28.7505 23.3435 29.2309 22.4622C29.7776 21.4592 29.6132 21.4948 29.3204 21.5581C29.2917 21.5643 29.2616 21.5708 29.2309 21.5766C28.8878 21.6414 28.6476 21.231 28.3559 20.4102C28.1226 19.7536 27.8355 19.9926 27.7211 20.1942C26.8225 21.3256 25.3911 20.2621 25.1182 20.0593L25.0962 20.043C25.0559 20.0134 25.0149 19.978 24.9734 19.942L24.9734 19.942C24.803 19.7946 24.6236 19.6395 24.4443 19.8486C24.2659 20.0567 24.0383 20.1657 23.9468 20.1942ZM23.2077 29.6894C23.3512 29.835 23.6861 30.2977 23.8774 30.9843C24.1006 31.2553 24.5878 31.8696 24.7504 32.1587C24.9537 32.52 26.1615 33.4384 28.0151 33.3631C28.2982 33.3882 28.8714 33.1584 28.9001 32.0382C28.8427 32.0382 28.4297 31.2051 28.2304 30.7885L28.4457 30.5326L29.0795 31.8876L29.2588 31.5564L28.6609 30.2465H27.2737L27.3813 28.8162C27.5328 28.9166 27.8405 29.2046 27.8597 29.5539L28.2304 30.0207L28.7207 29.2378L27.3813 28.229L26.4485 28.7108L26.9747 29.7798C26.5602 29.8902 25.688 30.2465 25.5158 30.7885C25.5875 30.9843 26.0898 31.8876 26.4485 31.8876L25.5756 32.4748C25.3284 32.1235 24.8174 31.3938 24.7504 31.2854C24.6834 31.177 23.9731 30.0859 23.6263 29.5539L23.2077 29.6894Z" fill="url(#paint0_linear_5057_140773)" />
<path d="M15.7711 26.1108L15.5513 25.3276H14.1095L13.9005 26.0629C13.8665 26.1792 13.8496 26.2795 13.8496 26.3639C13.8496 26.5919 13.971 26.7059 14.214 26.7059H14.34V27H13V26.7059H13.1045C13.2207 26.7059 13.3037 26.666 13.3538 26.5862C13.4056 26.5041 13.4619 26.3616 13.5226 26.1587L14.7393 22H15.1681L16.4089 26.3331C16.45 26.4745 16.4974 26.5725 16.551 26.6272C16.6046 26.6797 16.6868 26.7059 16.7975 26.7059H16.8699V27H15.3611V26.7059H15.487C15.7068 26.7059 15.8167 26.5942 15.8167 26.3707C15.8167 26.332 15.8122 26.2921 15.8033 26.251C15.7961 26.21 15.7854 26.1632 15.7711 26.1108ZM14.214 25H15.4522L15.1118 23.751C15.0547 23.5435 15.002 23.3497 14.9537 23.1696C14.9073 22.9872 14.8688 22.8117 14.8385 22.643C14.817 22.7866 14.7822 22.953 14.734 23.1423C14.6875 23.3315 14.6384 23.5128 14.5866 23.686L14.214 25Z" fill="#98012E" />
<path d="M20 25.4952V27H16.9563V26.7059H17.0259C17.1635 26.7059 17.2725 26.674 17.3529 26.6101C17.4351 26.544 17.4762 26.4083 17.4762 26.2031V22.7969C17.4762 22.5917 17.4351 22.4571 17.3529 22.3933C17.2725 22.3272 17.1635 22.2941 17.0259 22.2941H16.9563V22H18.5535V22.2941H18.4812C18.349 22.2941 18.2409 22.3249 18.1569 22.3865C18.0729 22.4457 18 22.5734 18 22.7695V26.6512H19.1548C19.3102 26.6512 19.4255 26.5873 19.5005 26.4596C19.5755 26.332 19.6211 26.1849 19.6372 26.0185L19.6908 25.4952H20Z" fill="#98012E" />
<path d="M23.4788 25.4952V27H20.4986V26.7059H20.5683C20.7059 26.7059 20.8148 26.674 20.8952 26.6101C20.9774 26.544 21 26.4083 21 26.2031V22.7969C21 22.5917 20.9774 22.4571 20.8952 22.3933C20.8148 22.3272 20.7059 22.2941 20.5683 22.2941H20.4986V22H22.0959V22.2941H22.0235C21.8913 22.2941 21.7832 22.3249 21.6992 22.3865C21.6153 22.4457 21.5733 22.5734 21.5733 22.7695V26.6512H22.656C22.8114 26.6512 22.9267 26.5873 23.0017 26.4596C23.0768 26.332 23.1223 26.1849 23.1384 26.0185L23.192 25.4952H23.4788Z" fill="#98012E" />
<path d="M26.4803 26.1108L26.2606 25.3276H24.8187L24.6097 26.0629C24.5758 26.1792 24.5588 26.2795 24.5588 26.3639C24.5588 26.5919 24.6803 26.7059 24.9233 26.7059H25V27H23.7092V26.7059H23.8137C23.9299 26.7059 24.013 26.666 24.063 26.5862C24.1148 26.5041 24.1711 26.3616 24.2318 26.1587L25.4485 22H25.8773L27.1182 26.3331C27.1593 26.4745 27.2066 26.5725 27.2602 26.6272C27.3138 26.6797 27.396 26.7059 27.5068 26.7059H27.5791V27H26V26.7059H26.1963C26.416 26.7059 26.5259 26.5942 26.5259 26.3707C26.5259 26.332 26.5214 26.2921 26.5125 26.251C26.5054 26.21 26.4946 26.1632 26.4803 26.1108ZM24.9233 25H26.1614L25.8211 23.751C25.7639 23.5435 25.7112 23.3497 25.6629 23.1696C25.6165 22.9872 25.5781 22.8117 25.5477 22.643C25.5263 22.7866 25.4914 22.953 25.4432 23.1423C25.3967 23.3315 25.3476 23.5128 25.2958 23.686L24.9233 25Z" fill="#98012E" />
<path d="M31 22.7969V27H30.6195L28.6431 22.9644V26.2031C28.6431 26.4106 28.6842 26.5463 28.7664 26.6101C28.8486 26.674 28.9575 26.7059 29.0933 26.7059H29.1657V27H27.7882V26.7059H27.8579C27.9954 26.7059 28.1044 26.674 28.1848 26.6101C28.267 26.544 28.3081 26.4083 28.3081 26.2031V22.7695C28.3081 22.5734 28.2661 22.4457 28.1821 22.3865C28.0982 22.3249 27.9901 22.2941 27.8579 22.2941H27.7882V22H28.7932L30.6758 25.8714V22.7695C30.6758 22.5734 30.6338 22.4457 30.5499 22.3865C30.4659 22.3249 30.3578 22.2941 30.2256 22.2941H30.1532V22H31.5307V22.2941H31.461C31.3235 22.2941 31.2136 22.3272 31.1314 22.3933C31.051 22.4571 31 22.5917 31 22.7969Z" fill="#98012E" />
<path d="M34.0796 22.3488H33.5463V26.2031C33.5463 26.4106 33.5874 26.5463 33.6696 26.6101C33.7518 26.674 33.8608 26.7059 33.9965 26.7059H34.1225V27H32.4153V26.7059H32.5413C32.6771 26.7059 32.7861 26.6762 32.8683 26.617C32.9505 26.5577 33 26.4311 33 26.2373V22.3488H32.4663C32.3126 22.3488 32.2027 22.4024 32.1366 22.5096C32.0723 22.6167 32.0321 22.7547 32.016 22.9234L31.9865 23.2244H31.7025L31.7293 22H34.8193L34.8461 23.2244H34.562L34.5352 22.9234C34.5191 22.7547 34.478 22.6167 34.4119 22.5096C34.3458 22.4024 34.2351 22.3488 34.0796 22.3488Z" fill="#98012E" />
<path d="M29.4941 30.5202H28.0003V32.6622H29.2288C29.3932 32.6622 29.5164 32.6093 29.5986 32.5036C29.6808 32.3979 29.7317 32.2618 29.7514 32.0954L29.7889 31.7985H30V33H27V32.7162H26.9953C27.1311 32.7162 27.2401 32.6869 27.3223 32.6284C27.4044 32.57 27.4455 32.4451 27.4455 32.2539V28.7861C27.4455 28.5837 27.4044 28.451 27.3223 28.388C27.2419 28.3228 27.1329 28.2901 26.9953 28.2901H27V28H29.8881V29.2078H29.604L29.5772 28.9109C29.5611 28.7445 29.5155 28.6084 29.4405 28.5027C29.3655 28.397 29.2493 28.3441 29.0921 28.3441H28.0003V30.1829H29.4941V30.5202Z" fill="#98012E" />
<path d="M33.8196 28.7861V33H33.4283L31.3701 28.9514V32.2139C31.3701 32.4186 31.4112 32.5524 31.4934 32.6154C31.5756 32.6784 31.6846 32.7099 31.8203 32.7099H31.8927V33H30.5152V32.7099H30.5849C30.7224 32.7099 30.8314 32.6784 30.9118 32.6154C30.994 32.5502 31 32.4163 31 32.2139V28.7591C31 28.5657 30.9931 28.4397 30.9091 28.3812C30.8252 28.3205 30.7171 28.2901 30.5849 28.2901H30.5152V28H31.5202L33.4846 31.8866V28.7591C33.4846 28.5657 33.4426 28.4397 33.3587 28.3812C33.2747 28.3205 33.1666 28.2901 33.0344 28.2901H33V28H34.3395V28.2901H34.2698C34.1323 28.2901 34.0224 28.3228 33.9402 28.388C33.8598 28.451 33.8196 28.5837 33.8196 28.7861Z" fill="#98012E" />
<path d="M37.0813 28.3441H36.548V32.2139C36.548 32.4186 36.5891 32.5524 36.6712 32.6154C36.7534 32.6784 36.8624 32.7099 36.9982 32.7099H37.1242V33H35.417V32.7099H35.543C35.6788 32.7099 35.7877 32.6806 35.8699 32.6221C35.9521 32.5637 36 32.4388 36 32.2476V28.3441H35.4679C35.3143 28.3441 35.2044 28.397 35.1383 28.5027C35.074 28.6084 35.0338 28.7445 35.0177 28.9109L34.9882 29.2078H34.7041L34.7309 28H37.821L37.8478 29.2078H37.5637L37.5369 28.9109C37.5208 28.7445 37.4797 28.6084 37.4136 28.5027C37.3475 28.397 37.2367 28.3441 37.0813 28.3441Z" fill="#98012E" />
<path d="M39.8496 33C39.6334 33 39.4395 32.9708 39.268 32.9123C39.0965 32.8538 38.9518 32.7627 38.8339 32.639C38.7142 32.513 38.623 32.3522 38.5605 32.1565C38.498 31.9609 38.4667 31.7224 38.4667 31.4413V28.7591C38.4667 28.5657 38.4247 28.4397 38.3407 28.3812C38.2568 28.3205 38.1487 28.2901 38.0165 28.2901H38V28H39.5441V28.2901H39.4717C39.3359 28.2901 39.2269 28.3216 39.1447 28.3846C39.0626 28.4476 39 28.5814 39 28.7861V31.4818C39 31.682 39.0438 31.8529 39.0885 31.9946C39.1349 32.1341 39.1992 32.2476 39.2814 32.3354C39.3618 32.4231 39.4574 32.4872 39.5682 32.5277C39.6807 32.5682 39.804 32.5884 39.938 32.5884C40.097 32.5884 40.2337 32.5614 40.3481 32.5074C40.4642 32.4534 40.5607 32.3781 40.6375 32.2814C40.7125 32.1869 40.7679 32.0744 40.8037 31.944C40.8412 31.8113 40.8599 31.6662 40.8599 31.5088V28.7591C40.8599 28.5657 40.8179 28.4397 40.734 28.3812C40.65 28.3205 40.5419 28.2901 40.4097 28.2901H40.34V28H41.7175V28.2901H41.6452C41.5094 28.2901 41.4004 28.3216 41.3182 28.3846C41.236 28.4476 41.1949 28.5814 41.1949 28.7861V31.5223C41.1949 31.9879 41.0806 32.3489 40.8519 32.6053C40.6178 32.8684 40.2837 33 39.8496 33Z" fill="#98012E" />
<path d="M44.0116 30.5911L44.7647 32.1565C44.8576 32.341 44.9478 32.4793 45.0354 32.5715C45.1229 32.6637 45.2248 32.7099 45.3409 32.7099H45.357V33H45.2793C45.1077 33 44.9666 32.9921 44.8558 32.9764C44.7468 32.9606 44.6539 32.9303 44.5771 32.8853C44.5003 32.8403 44.4342 32.7773 44.3788 32.6964C44.3252 32.6154 44.2671 32.5097 44.2046 32.3792L43.4622 30.7564H43V32.2476C43 32.4388 43.0477 32.5637 43.1299 32.6221C43.2121 32.6806 43.3211 32.7099 43.4569 32.7099H43.5292V33H42V32.7099H42.0016C42.1374 32.7099 42.2464 32.6806 42.3286 32.6221C42.4108 32.5637 42.4519 32.4388 42.4519 32.2476V28.7591C42.4519 28.5657 42.4099 28.4397 42.3259 28.3812C42.2419 28.3205 42.1338 28.2901 42.0016 28.2901H42V28H43.4086C44.3484 28 44.8183 28.4442 44.8183 29.3327C44.8183 29.5171 44.7942 29.679 44.7459 29.8185C44.6995 29.9557 44.6378 30.0749 44.561 30.1761C44.4842 30.2773 44.3975 30.3617 44.3011 30.4291C44.2046 30.4966 44.1081 30.5506 44.0116 30.5911ZM43.3791 28.3306H43V30.4325H43.3925C43.7034 30.4325 43.9232 30.3426 44.0518 30.1626C44.1161 30.0726 44.1617 29.9602 44.1885 29.8252C44.2171 29.6903 44.2314 29.5328 44.2314 29.3529C44.2314 28.9818 44.1671 28.7186 44.0384 28.5634C43.908 28.4082 43.6882 28.3306 43.3791 28.3306Z" fill="#98012E" />
<path d="M47.8786 30.5202H46.5547V32.639H47.6133C47.7776 32.639 47.9009 32.5861 47.9831 32.4804C48.0653 32.3747 48.1162 32.2386 48.1359 32.0722L48.1734 31.7753H48.4601V33H45.48V32.693H45.5497C45.6855 32.693 45.7944 32.6637 45.8766 32.6053C45.9588 32.5468 45.9999 32.422 45.9999 32.2308V28.7861C45.9999 28.5837 45.9588 28.451 45.8766 28.388C45.7962 28.3228 45.6872 28.2901 45.5497 28.2901H45.48V28H48.2725V29.2078H47.9885L47.9617 28.9109C47.9456 28.7445 47.9 28.6084 47.825 28.5027C47.7499 28.397 47.6338 28.3441 47.4766 28.3441H46.5547V30.1829H47.8786V30.5202Z" fill="#98012E" />
<path d="M25.9994 29.1731L24.4166 35H23.8567L22.2068 28.9289C22.1545 28.731 22.0886 28.5953 22.009 28.5219C21.9318 28.4485 21.8173 28.4118 21.6655 28.4118H21.5648V28H23.6663V28.4118H23.4909C23.1848 28.4118 23.0318 28.5682 23.0318 28.881C23.0318 28.9352 23.0367 28.9911 23.0467 29.0486C23.0591 29.106 23.0753 29.1715 23.0952 29.2449L23.9351 32.4289C24.0123 32.7193 24.0782 33.0018 24.133 33.2763C24.1877 33.5477 24.2362 33.8014 24.2785 34.0376C24.3183 33.8014 24.3656 33.5508 24.4204 33.2859C24.4751 33.021 24.5448 32.7353 24.6294 32.4289L25.473 29.3119C25.5178 29.1395 25.5402 28.9991 25.5402 28.8906C25.5402 28.5714 25.3723 28.4118 25.0363 28.4118H24.8609V28H26.7235V28.4118H26.578C26.4137 28.4118 26.2955 28.466 26.2233 28.5746C26.1512 28.6831 26.0765 28.8826 25.9994 29.1731Z" fill="#98012E" />
<path d="M10.3248 27C9.88185 27 9.49488 26.9162 9.16391 26.7485C8.83542 26.5808 8.56292 26.3433 8.34641 26.0359C8.12742 25.7285 7.96442 25.3591 7.85741 24.9275C7.7504 24.4959 7.6969 24.0177 7.6969 23.493C7.6969 22.9776 7.75289 22.5057 7.86488 22.0772C7.97935 21.6487 8.14982 21.2808 8.37628 20.9734C8.60025 20.666 8.87897 20.4269 9.21243 20.2562C9.5459 20.0854 9.93287 20 10.3733 20C10.657 20 10.9034 20.0279 11.1124 20.0838C11.324 20.1366 11.5007 20.2111 11.6425 20.3074C11.9212 20.4968 12.0606 20.7514 12.0606 21.0712C12.0606 21.2792 11.9897 21.4422 11.8478 21.5602C11.7085 21.6782 11.543 21.7372 11.3513 21.7372C11.3513 21.5882 11.3339 21.4407 11.2991 21.2947C11.2642 21.1457 11.207 21.0138 11.1274 20.8989C11.0477 20.7809 10.9432 20.6862 10.8138 20.6148C10.6844 20.5434 10.5264 20.5077 10.3397 20.5077C10.0162 20.5077 9.74001 20.5744 9.51106 20.7079C9.2846 20.8383 9.0992 21.0293 8.95487 21.2808C8.81053 21.5354 8.70601 21.849 8.64131 22.2216C8.57661 22.591 8.54425 23.0149 8.54425 23.493C8.54425 23.9681 8.57785 24.3903 8.64504 24.7598C8.71223 25.1293 8.82173 25.4398 8.97353 25.6913C9.12533 25.9428 9.32193 26.1337 9.56332 26.2641C9.80471 26.3945 10.0996 26.4597 10.448 26.4597C10.5948 26.4597 10.7367 26.4504 10.8735 26.4318C11.0129 26.4132 11.1361 26.3837 11.2431 26.3433V24.8064C11.2431 24.5425 11.1846 24.3686 11.0677 24.2848C10.9532 24.2009 10.8026 24.159 10.616 24.159H10.5861V23.7585H12.572V24.159H12.5421C12.3754 24.159 12.246 24.2056 12.1539 24.2987C12.0618 24.3888 12 24.572 12 24.8483V26.5622C11.7437 26.7112 11.4957 26.8215 11.2244 26.8929C10.9532 26.9643 10.6533 27 10.3248 27Z" fill="#98012E" />
<defs>
<linearGradient id="paint0_linear_5057_140773" x1="27.3091" y1="18" x2="27.3091" y2="36.9783" gradientUnits="userSpaceOnUse">
<stop stop-color="#C7E4F4" />
<stop offset="0.492898" stop-color="#F3F9F6" />
<stop offset="1" stop-color="#C7E4F4" />
</linearGradient>
</defs>
</svg>