<!-- by TradeStack --><svg width="56" height="56" viewBox="0 0 56 56" xmlns="http://www.w3.org/2000/svg"><path fill="#F0F3FA" d="M0 0h56v56H0z"/><path d="M22.03 43.37c2.35 0 5.95-1.53 7.47-2.37-1.62 1.19-6.22 4-10.34 4-4.13 0-5.16-2.74-5.16-4.96C14 30.63 26.22 20.48 33 19c-13.4 7.78-16 17.26-16 20 0 2.74 2.08 4.37 5.03 4.37Z" fill="url(#a)"/><circle cx="39" cy="23" r="2" fill="#CD2429"/><path d="M37.07 16c3.4 0 3.86 2.7 3.66 4.02 1.03-.44 2.27-2.27 2.27-3.96 0-1.7-1.9-4.27-4.17-4.05-12.45 0-27.38 17.2-25.7 24.99 4.4-14.11 19.7-21 23.94-21Z" fill="#CD2429"/><defs><linearGradient id="a" x1="23.5" y1="19" x2="23.5" y2="45" gradientUnits="userSpaceOnUse"><stop stop-color="#2358A4"/><stop offset="1" stop-color="#148CBE"/></linearGradient></defs></svg>