<!-- by TradeStack --><svg width="56" height="56" viewBox="0 0 56 56" xmlns="http://www.w3.org/2000/svg"><path fill="#F0F3FA" d="M0 0h56v56H0z"/><path fill="url(#a12zbmb0n)" d="M36 26h3v4h-3z"/><path d="M14.24 13c-.68 0-1.24.56-1.24 1.24v27.52c0 .68.56 1.24 1.24 1.24h27.52c.68 0 1.24-.56 1.24-1.24v-14.3c0-.8-.66-1.46-1.47-1.46H39v13H17V17h22v5h4v-7.76c0-.68-.56-1.24-1.24-1.24H14.24Z" fill="#318CDB"/><path d="M20.17 19c-.65 0-1.17.52-1.17 1.17v15.66c0 .65.52 1.17 1.17 1.17h15.66c.65 0 1.17-.52 1.17-1.17V26.7a.7.7 0 0 0-.7-.7h-8.6a.7.7 0 0 0-.7.7v2.6c0 .39.31.7.7.7H34v4H22V22h12v1.42c0 .32.26.58.58.58h1.84c.32 0 .58-.26.58-.58v-3.25c0-.65-.52-1.17-1.17-1.17H20.17Z" fill="#94D40B"/><defs><linearGradient id="a12zbmb0n" x1="36" y1="28" x2="39" y2="28" gradientUnits="userSpaceOnUse"><stop stop-color="#1B5180"/><stop offset="1" stop-color="#318CDB"/></linearGradient></defs></svg>