<?xml version='1.0' encoding='utf-8'?>
<!-- by TradeStack -->
<svg width="56" height="56" viewBox="0 0 56 56" xmlns="http://www.w3.org/2000/svg"><path fill="#F0F3FA" d="M0 0h56v56H0z" /><path d="M6.61 32H6c.02.5.04 1 .04 1.5v1c0 .5-.02 1.02-.04 1.5h.61c-.02-.5-.04-1-.04-1.5v-1c0-.5.02-1.02.04-1.5ZM10.5 32h-.4c.03.82.03 2 .03 2.95l-2.48-2.68L7.4 32h-.14c.02.25.02.79.02 1.49S7.2 35.73 7.16 36h.45c-.02-.23-.04-1.46-.04-1.96s0-.84.02-1.05l.18.2c.88.94 1.77 1.9 2.53 2.81h.12l-.02-2.04c0-.58.08-1.63.1-1.96ZM24.13 32h-.41c.04.82.04 2 .04 2.95-.61-.64-1.65-1.77-2.48-2.68l-.25-.27h-.14c.02.25.02.79.02 1.49s-.08 2.24-.12 2.51h.45c-.03-.23-.05-1.46-.05-1.96s0-.84.02-1.05l.19.2c.87.94 1.77 1.9 2.52 2.81h.12l-.02-2.04c0-.58.09-1.63.1-1.96ZM14 32h-2.9v.41l1.16-.08c.02.4.02.79.02 1.18v1c0 .5-.02 1.01-.04 1.49h.61c-.02-.5-.04-1-.04-1.5v-.97c0-.4 0-.78.02-1.17l1.17.05V32ZM30.45 32h-2.9v.41l1.16-.08c.02.4.02.79.02 1.18v1c0 .5-.02 1.01-.04 1.49h.61c-.02-.5-.04-1-.04-1.5v-.97c0-.4 0-.78.02-1.17l1.17.05V32ZM16.73 35.57h-.02a9.1 9.1 0 0 1-1.45.06V34c0-.13.92.02 1.3.04h.05a.9.9 0 0 1-.02-.17c0-.06 0-.12.02-.17h-.04c-.33.02-.7.06-1.3.06l.01-1.45c.53 0 .82.02 1.12.05h.3a.9.9 0 0 1 0-.35h-2l.03 1.5v.99c0 .5-.02 1.01-.04 1.51h2.04a.84.84 0 0 1-.02-.15c0-.06 0-.12.02-.17v-.11ZM18.75 34.05c.42-.08 1.1-.38 1.1-1.1 0-.74-.41-.95-1.16-.95H17.4c.02.5.04.98.04 1.48v.98c0 .5-.02 1.07-.04 1.54h.6v-1.88h.14c.5.59.98 1.22 1.4 1.88h.7l-1.5-1.95Zm-.75-.17V32.3h.5c.25 0 .82.06.82.73 0 .66-.53.85-1.02.85H18ZM37.17 34.05c.43-.08 1.1-.38 1.1-1.1 0-.74-.4-.95-1.16-.95h-1.28c.02.5.04.98.04 1.48v.98c0 .5-.02 1.07-.04 1.54h.6v-1.88h.13c.51.59.98 1.22 1.4 1.88h.7l-1.49-1.95Zm-.74-.17V32.3h.5c.24 0 .81.06.81.73 0 .66-.53.85-1.02.85h-.3ZM27 35.57l-1.49.04v-1.62c0-.13 1.2.04 1.35.04a.83.83 0 0 1 0-.34c-.45 0-.9.06-1.35.06l.02-1.45c.49 0 1.47.05 1.47.05V32h-2.04c.02.45.04 1 .04 1.5v.99c0 .5-.02 1.01-.04 1.51H27v-.43ZM35 32.33a2.77 2.77 0 0 0-1.4-.33c-1.34 0-2.15.76-2.15 2 0 1.25.77 2 2.13 2 .48-.02.97-.11 1.42-.27V34h-.52v1.6a2 2 0 0 1-.84.16c-1 0-1.6-.64-1.6-1.7s.57-1.73 1.56-1.73a1.56 1.56 0 0 1 1.18.53h.13c.02-.14.06-.28.12-.4v-.03l-.02-.1ZM40.82 32c-1.27 0-2.08.78-2.08 2s.81 2 2.08 2c1.26 0 2.07-.78 2.07-2s-.81-2-2.07-2Zm0 3.71c-.94 0-1.49-.63-1.49-1.73s.53-1.74 1.49-1.74c.95 0 1.48.64 1.48 1.74s-.53 1.73-1.48 1.73ZM46.7 32.02h-.4c.03.21.03.76.03 1.83 0 .74 0 1.83-1.16 1.83S44 34.72 44 33.94V32h-.52v2.34c0 1.11.5 1.66 1.57 1.66 1.08 0 1.57-.61 1.59-1.66.02-1.06.06-1.8.1-2.34h-.04v.02ZM48.7 32h-1.3c.02.5.04 1 .04 1.5v1c0 .5-.02 1.02-.04 1.5h.6v-1.74h.42c.77 0 1.58-.33 1.58-1.26 0-.93-.98-1-1.3-1Zm.7 1.04c0 .83-.66.94-1.04.94l-.36-.05v-1.65h.47c.57 0 .93.13.93.79v-.03Z" fill="#595757" /><path d="m28.65 28 2.47-3.78L32.47 29h2.7l-2.74-9H31.3l-3.32 5.34L24.65 20h-1.12l-2.74 9h2.7l1.34-4.82L27.31 28h1.34ZM20.95 24h-7.8c-.32.07-.57.33-.57.66s.25.64.57.71c.11.02.22.02.33 0h4.41c-.54 1.4-2.3 2.4-4.41 2.4-2.12 0-4.48-1.5-4.48-3.31 0-1.82 1.96-3.28 4.48-3.28a5.42 5.42 0 0 1 3.47 1.14h3.1c-1.3-1.36-3.73-2.32-6.53-2.32C9.38 19.91 6 21.96 6 24.46S9.38 29 13.52 29c4.15 0 7.48-2 7.48-4.54 0-.17-.02-.3-.05-.46ZM42.5 20c-4.13 0-7.5 2.02-7.5 4.5s3.37 4.5 7.5 4.5 7.5-2.02 7.5-4.5-3.37-4.5-7.5-4.5Zm0 7.79c-2.52 0-4.5-1.49-4.5-3.29s1.98-3.24 4.5-3.24S47 22.74 47 24.5c0 1.75-1.98 3.29-4.5 3.29Z" fill="#005BAC" /></svg>