<?xml version='1.0' encoding='utf-8'?>
<!-- by TradeStack -->
<svg width="56" height="56" viewBox="0 0 56 56" xmlns="http://www.w3.org/2000/svg"><path fill="#F0F3FA" d="M0 0h56v56H0z" /><path d="M27.86 19.64c-.25-.08-.4-.16-.46-.24.56-.36 1.1-.73 1.6-1.1a13.82 13.82 0 0 0 5-6.73c.02-.04 0-.06-.03-.08l-.07-.02c-.03-.02-.05 0-.07.02-.29.7-.62 1.35-.99 1.97 0 .01-.02.02-.04 0-.03 0-.03-.03-.02-.05a18.03 18.03 0 0 0 1.62-4.25c.06-.22.1-.21.13.01.27 2.17.1 4.26-.53 6.27a11.7 11.7 0 0 1-3.3 5.3h-.03c-.02-.02-.02-.04 0-.06.64-.64 1.14-1.22 1.5-1.76a13.59 13.59 0 0 0 2.19-7.8c0-.16-.02-.31-.05-.47-.02-.08-.04-.08-.07 0l-.29.63c-.03.07-.02.13.04.18.1.09.12.2.08.33-1.14 3.64-3.21 6.26-6.21 7.85ZM35.2 19.55l-.41-.13c.8-1.52 1.26-3.14 1.36-4.86 0-.11-.02-.12-.08-.02l-.03.04c-.6.96-1.1 1.66-1.49 2.07-.17.18-.19.17-.04-.03.95-1.35 1.48-2.38 1.6-3.1l.17-1.15c.01-.12.03-.12.05 0a10.9 10.9 0 0 1-1.14 7.18Z" fill="#F6DE00" /><path d="M24.23 21.83c0 .1.04.12.13.08.32-.18.6-.25.82-.22.15.02.15.03 0 .04a1.2 1.2 0 0 0-1 .63c-.03.06-.06.06-.08-.01a1.9 1.9 0 0 1 .52-2c.47-.49 1.1-.84 1.9-1.06.4-.11.8-.28 1.17-.51a16.54 16.54 0 0 0 2.27-1.7l.03.04v.03l-1.01.81a7.57 7.57 0 0 1-2.6 1.5c-1.47.43-2.19 1.22-2.15 2.37Z" fill="#BFAF27" /><path d="M27.4 19.4c.05.08.2.16.46.24-.64.44-.9 1.08-.8 1.91-.07-.2-.1-.15-.1.15.01.03.03.04.06.03.03 0 .05 0 .06.03l.24.72c.02.07 0 .11-.05.15-.07.04-.14.03-.2-.02-.14-.15-.24-.16-.27-.03-.67-1.06-1.41-1.4-2.23-1.03-.22.1-.29.04-.19-.2.35-.79 1.25-1.4 2.7-1.85l.32-.1ZM34.79 19.42l.4.13A9.79 9.79 0 0 1 29.41 24c-.02.01-.03 0-.04-.02 0-.02 0-.03.02-.04a10.38 10.38 0 0 0 5.4-4.52Z" fill="#BFAF27" /><path d="M35.9 20.58c-.3.27-.63.5-.98.7-.03.01-.05 0-.07-.02-.01-.02 0-.04.01-.05.62-.37 1.1-.86 1.43-1.47a.13.13 0 0 1 .1-.06c.05-.02.1 0 .13.05.02.03.03.06.02.1a6.86 6.86 0 0 1-2.32 3.85A6.5 6.5 0 0 1 30 25.16a7.07 7.07 0 0 0 6-4.5c.07-.17.04-.2-.1-.08ZM27.06 21.55a13.43 13.43 0 0 1 1.48 3.73c-.12.03-.22.17-.32.45-.06-.25-.15-.1-.3.46A6.86 6.86 0 0 0 25.9 22l.03-.03h.03a7.43 7.43 0 0 1 1.94 3.15l.05.23c.03.11.05.1.06 0 0-.12 0-.25-.05-.37a6.9 6.9 0 0 0-1.16-2.4c.03-.13.13-.12.28.03.05.05.11.06.19.02.05-.04.07-.08.05-.15l-.24-.72c-.01-.03-.03-.04-.06-.03-.03.01-.05 0-.05-.03-.01-.3.02-.35.1-.15Z" fill="#7D7525" /><path d="M36.33 23.42c-.43.29-.91.5-1.44.65-.01 0-.02 0-.03-.02 0-.02 0-.03.02-.04a4.97 4.97 0 0 0 1.48-.76.94.94 0 0 0 .32-.44c0-.04.04-.05.07-.04l.05.02c.03 0 .04.03.03.06a4.63 4.63 0 0 1-2.7 3.07 6.63 6.63 0 0 1-4.16.2l.01-.02c3.1.47 5.25-.4 6.44-2.6.08-.14.05-.17-.09-.08Z" fill="#0F0F0D" /><path d="M28.54 25.28a8.04 8.04 0 0 1-1.46 6.86c-.08.11-.1.1-.07-.03.06-.2.16-.38.3-.52a.31.31 0 0 0 .09-.12l.27-.67.37-1.38c.1-.45.17-.92.17-1.41.02-.76.02-1.52 0-2.28.1-.28.21-.42.33-.45Z" fill="#4D4D4D" /><path d="M28.22 25.73V28c-.01.49-.07.96-.18 1.4l-.37 1.39-.08-.37c-.02-.09 0-.17.07-.23.1-.11.13-.24.08-.38a.31.31 0 0 1 0-.25c.1-.23.16-.6.17-1.09 0-.2 0-.36.02-.47.05-.64.05-1.25 0-1.82.14-.55.23-.71.29-.46Z" fill="#B3B3B3" /><path d="M23.92 26.4a.54.54 0 0 0-.29-.1 9.24 9.24 0 0 1-1.4-.2c-.63-.13-1.13-.04-1.49.27-.2.17-.17.25.1.24.07 0 .14.01.2.03.1.03.1.06.01.1-.22.11-.4.1-.53-.04a.16.16 0 0 0-.15-.04l-.52.1h-.04l-.01-.04c-.02-.05 0-.08.04-.08l.44-.09a.34.34 0 0 0 .18-.1c.4-.42.9-.58 1.47-.5l1.9.29c.26.03.47.1.64.2.07.05.06.07-.02.08a.73.73 0 0 1-.53-.12ZM35.21 26.73c-.53.12-1.07.14-1.61.05-.02 0-.02-.01-.02-.03h.02c.85.07 1.63-.1 2.33-.5.05-.03.09-.01.1.04v.05a6.25 6.25 0 0 1-3.09 1.7 4.4 4.4 0 0 1-3.36-.6c-.02-.01-.02-.03-.01-.05h.03c1.68.88 3.55.7 5.64-.58.14-.09.13-.11-.03-.08Z" fill="#0F0F0D" /><path d="M19.28 27c.02-.08 0-.17-.07-.27.1-.04.21-.05.3-.04.09 0 .1.04.03.09l-.26.22Z" fill="#4D4D4D" /><path d="M19.26 27.08c0 .03 0 .06.02.08.01.05.05.06.09.03.42-.21.76-.17 1.02.14.04.05.1.08.16.1.31.08.65.1 1.01.08.1 0 .13.03.1.13-.2.73.1 1.36.9 1.89-.08.06-.2.08-.37.05a6.82 6.82 0 0 1-.58-.87c-.1-.24-.22-.43-.34-.57-.57-.69-1.23-.94-1.99-.76-.07.02-.13 0-.17-.07a.22.22 0 0 1 .02-.27c.04-.05.08-.04.13.04ZM24.7 27.9a2.12 2.12 0 0 1-.53-.7c-.07-.17-.05-.18.04-.03l.49.74ZM24.23 28.7c-.2-.05-.31.13-.32.53 0 .03-.01.05-.04.06l-.05.01c.05-.3-.04-.75-.3-1.36l-.22-.58c0-.03 0-.05.03-.06.03 0 .05 0 .06.03.22.5.5.96.84 1.38ZM19.09 27.57l.02.52c0 .02 0 .02-.01 0l-.22-.5c.1-.04.16-.05.21-.02Z" fill="#0F0F0D" /><path d="M21.25 27.83a.16.16 0 0 1-.05-.04c-.04-.06-.03-.1.04-.1.06-.01.1 0 .15.04.05.06.07.13.06.2 0 .1-.05.11-.11.05a.3.3 0 0 1-.09-.15Z" fill="#4D4D4D" /><path d="m24.7 27.9.39.34c.1.09.1.1-.02.04a.8.8 0 0 1-.37-.37ZM34.44 29.35c.19-.09.18-.13-.03-.13-.45 0-.9-.1-1.34-.26-.02-.01-.03-.02-.02-.04 0-.02.02-.03.04-.02.94.32 1.82.22 2.62-.28.03-.02.05-.01.07.01.02.03.01.05-.01.07a19.37 19.37 0 0 1-1.18.8 4.3 4.3 0 0 1-4.87-.57c-.02-.02-.02-.04 0-.06h.03a4.53 4.53 0 0 0 4.69.48Z" fill="#0F0F0D" /><path d="M24.23 28.7c.17.12.3.25.37.37.15.21.37.39.64.53.06.03.06.06 0 .09-.28.15-.46.34-.56.57-.45.95-.41 1.9.13 2.87.39.7.97 1.34 1.75 1.93l.33.29c.11.09.1.12-.04.08a2.06 2.06 0 0 1-.37-.17l-.36-.2a.68.68 0 0 0-.18-.07c-.13-.03-.3-.11-.49-.25a6.93 6.93 0 0 1-1.41-1.22.98.98 0 0 0-.22-.48 4.18 4.18 0 0 1-.3-.4 22.11 22.11 0 0 1-1.35-3l.02-.06c.17.03.3.01.38-.05.52.24.94.16 1.25-.23l.05-.01c.03-.01.04-.03.04-.06 0-.4.11-.58.32-.52Z" fill="#4D4D4D" /><path d="M24.6 29.07c.43.27.87.42 1.32.44.05 0 .05.01.01.04l-1.25.7c.1-.22.28-.4.56-.56.06-.03.06-.06 0-.09a1.86 1.86 0 0 1-.64-.53Z" fill="#0F0F0D" /><path d="M27.25 31.4c0 .04 0 .09-.04.12-.02.02-.04.02-.05.01-.04-.01-.05-.03-.05-.07a4.1 4.1 0 0 0-.22-1.76h.04c.05-.02.07 0 .08.04.07.41.17.82.28 1.2.03.12.02.24-.03.36v.1Z" fill="#B3B3B3" /><path d="M33.39 31.23c-.4-.09-.76-.24-1.1-.47v-.03c.01-.02.03-.02.05-.01.53.3 1.11.41 1.74.37.1-.01.11.01.02.07-.78.46-1.56.65-2.32.57-.83-.1-1.48-.5-1.97-1.23-.1-.13-.08-.14.02-.02.95 1.03 2.14 1.3 3.57.83.09-.04.09-.06-.01-.08ZM32.42 32.9c-.2.14-.48.22-.83.25a2.86 2.86 0 0 1-2.38-1.5c-.02-.03-.01-.05.01-.07l.05-.04h.02c.51.8 1.23 1.27 2.14 1.4.11.01.12-.01.04-.08a2.93 2.93 0 0 1-.64-.68c.02-.02.04-.02.06 0 .4.49.9.73 1.53.72ZM28.82 33.4l-.53-.51-.25-.43.01-.04h.04c.39.57.9.95 1.56 1.14.4.12.43.06.1-.19a.86.86 0 0 1-.3-.37c-.04-.09-.03-.1.02-.02.32.4.75.6 1.3.6.13 0 .13.02.02.07-.62.27-1.28.19-1.97-.24Z" fill="#0F0F0D" /><path d="M25.51 38.42c-.03.1-.07.1-.1 0l-.28-1.05c-.4-1.6-1.1-4.3-1.5-4.32l-1.3-.02c-.08 0-.13.04-.15.12l-1.31 7.8c0 .03 0 .04.04.04h1.33c.04 0 .07-.01.07-.06l.8-4.7c.04-.18.08-.19.14-.02l1.52 4.68c.03.07.08.11.15.11H26c.07 0 .12-.04.14-.1l1.56-4.72c.05-.16.09-.16.11 0l.79 4.77c0 .03.02.05.06.05h1.33c.03 0 .04-.02.04-.05l-1.2-7.43-.53-.52-.9.03c-.08 0-.14.05-.16.13l-.67 2.03.33.3c.1.1.1.12-.04.08a2.04 2.04 0 0 1-.37-.17l-.97 3.02Zm-9.28-.13h2.05c.11 0 .14.05.09.15-.28.49-.61.8-1.02.96-.8.3-1.6.27-2.35-.08a2.4 2.4 0 0 1-1.44-1.76c-.18-.9 0-1.66.57-2.28.57-.61 1.32-.9 2.26-.85.77.04 1.45.35 2.05.95h.04c.16-.07.49-.36.98-.88.04-.04.04-.08 0-.12a3.76 3.76 0 0 0-2.31-1.28c-1.91-.32-3.4.22-4.44 1.62a3.59 3.59 0 0 0-.7 1.97c-.05.75.09 1.43.4 2.06.82 1.6 2.24 2.33 4.25 2.22a3.44 3.44 0 0 0 2.52-1.26c.64-.76.94-1.64.9-2.66 0-.07-.03-.1-.1-.1h-3.7c-.07 0-.1.03-.1.09v1.2c0 .04.01.05.05.05Zm26.8.23.95.97c.03.03.03.05 0 .08a4.63 4.63 0 0 1-5.1 1.09 3.85 3.85 0 0 1-2.36-3.1 3.9 3.9 0 0 1 2.47-4.24 4.48 4.48 0 0 1 4.95 1.09c.06.07.06.14-.01.2l-.8.76c-.1.1-.2.09-.28-.02-.13-.17-.3-.31-.5-.43-1.36-.79-2.57-.71-3.62.23a2.35 2.35 0 0 0-.78 1.82 2.53 2.53 0 0 0 2.19 2.58c1.1.17 2.02-.17 2.8-1.03.03-.02.05-.03.08 0ZM32.4 33.18c-.2.13-.47.21-.82.24-.32.37-.52.75-.61 1.15-.2.86.5 1.9 2.08 3.13l.4.31c.49.4.65.79.48 1.14a.74.74 0 0 1-.43.39c-.65.24-1.2-.05-1.67-.86-.03-.05-.06-.06-.1-.03l-1.14.68c-.03.02-.04.05-.02.08.66 1.21 1.63 1.73 2.91 1.56 1.05-.14 1.69-.67 1.9-1.58.23-.9-.06-1.68-.84-2.34l-1.91-1.66c-.28-.24-.33-.5-.16-.75.16-.25.4-.33.73-.25.35.1.66.32.92.68.05.08.11.09.18.02l.9-.77c.06-.06.07-.12 0-.19-.42-.5-.88-.83-1.37-1-.52-.19-1-.17-1.43.05Z" fill="#B3B3B3" /></svg>