<!-- by TradeStack --><svg width="56" height="56" viewBox="0 0 56 56" xmlns="http://www.w3.org/2000/svg"><path fill="#F0F3FA" d="M0 0h56v56H0z"/><path d="M26 25v2h3.82c-.46 1.8-2.05 3-3.82 3-2.54 0-5-1.87-5-4.53 0-2.52 2.23-4.47 4.68-4.47 1.72 0 3.16.89 4.35 2.07l1.47-1.42C29.9 20.09 27.96 19 25.68 19A6.56 6.56 0 0 0 19 25.5c0 3.8 3.2 6.5 6.85 6.5 3.62 0 6.12-2.63 6.15-6.26V25h-6Z" fill="#016474"/><path d="M35.4 32.81c3.1-.74 6.38-.63 9.5.36a1.58 1.58 0 0 1 1.03 1.98 1.56 1.56 0 0 1-1.96 1.02A14.77 14.77 0 0 0 25.4 45.9a1.57 1.57 0 1 1-3-.95c.85-2.69 2.28-5.03 4.17-7.01A12.5 12.5 0 0 1 13 25.47C13 18.6 18.56 13 25.4 13 32.23 13 38 18.6 38 25.47c0 2.75-1.1 5.28-2.6 7.34ZM25.5 35a9.5 9.5 0 1 0 0-19 9.5 9.5 0 0 0 0 19Z" fill="#0096AE"/></svg>