<?xml version='1.0' encoding='utf-8'?>
<!-- by TradeStack -->
<svg width="56" height="56" viewBox="0 0 56 56" xmlns="http://www.w3.org/2000/svg"><path fill="#F0F3FA" d="M0 0h56v56H0z" /><path d="M28 32.33h.66c.04 0 .08-.03.1-.06l2.74-4.61 1.5 5.28c0 .03.04.06.07.06h2.88c.04 0 .06-.03.05-.06l-3.04-9.88c-.01-.03-.05-.06-.08-.06H31.8a.13.13 0 0 0-.1.05l-3.7 5.9-3.7-5.9a.12.12 0 0 0-.1-.05h-1.08c-.03 0-.07.03-.08.06L20 32.94c0 .03.01.06.05.06h2.88c.03 0 .07-.03.08-.06l1.49-5.28 2.74 4.61c.02.03.06.06.1.06H28ZM19.95 27.42a.06.06 0 0 0-.06-.05H12a.77.77 0 0 0-.76.79c0 .43.34.84.76.84h4.69c-.56 1.53-2.45 2.6-4.69 2.6-2.68 0-5-1.6-5-3.6s2.32-3.6 5-3.6c1.47 0 2.78.47 3.67 1.24l.04.02h3.22c.04 0 .06-.03.06-.07l-.01-.04C17.6 24.03 14.98 23 12 23c-4.42 0-8 2.24-8 5s3.58 5 8 5 8-2.24 8-5c0-.2-.02-.39-.05-.58ZM44 31.6c-2.68 0-5-1.6-5-3.6s2.32-3.6 5-3.6 5 1.6 5 3.6-2.32 3.6-5 3.6Zm0-8.6c-4.42 0-8 2.24-8 5s3.58 5 8 5 8-2.24 8-5-3.58-5-8-5Z" fill="#005BAC" /></svg>