<?xml version='1.0' encoding='utf-8'?>
<!-- by TradeStack -->
<svg width="56" height="56" viewBox="0 0 56 56" xmlns="http://www.w3.org/2000/svg"><path fill="url(#aphlnfm51)" d="M0 0h56v56H0z" /><path fill-rule="evenodd" d="M12.4 21H10.1C8.39 21 7 22.57 7 24.5S8.38 28 10.09 28H18l-3.3-4h-3.36l.6 1h2.34l1.56 2h-5.76C8.92 27 8 25.78 8 24.47c0-1.31.92-2.47 2.08-2.47h3.13l-.8-1Zm1.6 0h11v1H14.9l-.9-1Zm2.15 3H24v1h-6.94l-.91-1ZM25 27h-6.58l.92 1H25v-1Zm1 1h1v-4.55l4.5 4.36 4.5-4.36V28h1v-7l-5.5 5.31L26 21v7Zm12-6v-1h11l-7.86 6H49v1H38l7.72-6H38Zm-22 7h-5.96A3.02 3.02 0 0 0 7 32c0 1.66 1.36 3 3.04 3H16v-1h-5.97a2.02 2.02 0 0 1-2.06-2c0-1.12.92-2 2.06-2H16v-1Zm1 1.53c0-.85.63-1.53 1.41-1.53h7.18c.78 0 1.41.68 1.41 1.53v2.94c0 .85-.63 1.53-1.41 1.53H18.4c-.78 0-1.41-.68-1.41-1.53v-2.94Zm1 .19c0-.4.31-.72.7-.72h6.6c.39 0 .7.32.7.72v2.56a.7.7 0 0 1-.7.72h-6.6a.7.7 0 0 1-.7-.72v-2.56ZM28 30v-1h8.2c.91 0 1.8.78 1.8 1.75s-.89 1.75-1.8 1.75h-.02l2 2.5h-1.12l-2.04-2.5H29V35h-1v-3.5h8.26c.4 0 .74-.32.74-.76a.73.73 0 0 0-.74-.74H28Zm11 0v-1h8.34c.92 0 1.66.78 1.66 1.75a1.7 1.7 0 0 1-1.66 1.75H40V35h-1v-3.5h8.4c.4 0 .6-.32.6-.76 0-.43-.2-.74-.6-.74H39Z" fill="#fff" /><defs><linearGradient id="aphlnfm51" x1="10.42" y1="9.71" x2="68.15" y2="76.02" gradientUnits="userSpaceOnUse"><stop stop-color="#1A1E21" /><stop offset="1" stop-color="#06060A" /></linearGradient></defs></svg>