<?xml version='1.0' encoding='utf-8'?>
<!-- by TradeStack -->
<svg width="56" height="56" viewBox="0 0 56 56" xmlns="http://www.w3.org/2000/svg"><path fill="#F0F3FA" d="M0 0h56v56H0z" /><path d="M41.18 19.01c.03.04.08.07.13.08.04.01.04.02 0 .02l-1.73.05-.84.02h-8.2l-4.44.03h-4.7l-10-.04a2.62 2.62 0 0 0-1.9.53.32.32 0 0 0-.18.15 1 1 0 0 0-.32.26l-.54.67c-.05.06-.08.05-.09-.03l-.02-.1c.05-.07.06-.1.05-.13a3.17 3.17 0 0 1 2.06-1.45 5.24 5.24 0 0 1 1.32-.06h29.4Z" fill="#0A020A" /><path d="m41.18 19.01 3.04-.01c.83 0 1.4.06 1.72.18.63.23 1.13.6 1.5 1.12.36.51.54 1.1.54 1.74L48 28.2l-.94-.13c-.04 0-.08.01-.1.05-.06.06-.11.1-.16.11-.2.03-.3-.04-.32-.24-.04-.38-.07-.74-.08-1.05 0-.07-.04-.11-.11-.12.05-.04.06-.09.03-.16-.05-.13-.31-.26-.32-.4-.02-.88.02-1.78 0-2.67 0-.38-.02-.55-.4-.6h-.75l.48-.11c.05 0 .07-.02.07-.06.02-.5.02-1.01 0-1.53-.01-.14-.06-.33-.16-.57-.07-.16-.12-.3-.14-.39-.05-.2.04-.32.26-.35a.37.37 0 0 0 .19-.08.18.18 0 0 1 .13-.04c.21.01.37 0 .47-.04.1-.04.22-.05.33-.02.11.03.14 0 .1-.1-.05-.1-.11-.14-.19-.11a.74.74 0 0 0-.38-.18c-.02-.04-.05-.05-.1-.02-.28-.13-.57-.2-.9-.2h-4.99c-.16.01-.3 0-.44-.04l1.73-.05c.04 0 .04 0 0-.02a.26.26 0 0 1-.13-.08Z" fill="#1A2029" /><path d="M11.4 19.17c-.26.2-.65.32-1.16.33-.13 0-.2.04-.19.13 0 .02-.02.03-.08.06l.05-.05c-.32.13-.5.15-.51.06a2.62 2.62 0 0 1 1.89-.53Z" fill="#ADB1BB" /><path d="m11.4 19.17 10 .05c.11.12.38.2.8.2-.23-.03-.33.05-.33.24 0 .05-.03.06-.07.05h-.06c-.06.01-.1 0-.12-.06-.05-.12-.14-.18-.27-.18a64.85 64.85 0 0 1-3.21-.04l-1.38.03-4.63-.02a4.74 4.74 0 0 0-1.43.26.34.34 0 0 1-.28.03.17.17 0 0 0-.13 0 .4.4 0 0 1-.32.02c-.05.01-.04-.02.04-.1l-.04.04c.15 0 .25-.04.29-.12.02-.03 0-.04-.03-.04a.31.31 0 0 0-.18.1c0-.09.06-.13.2-.13.5-.01.89-.12 1.15-.33Z" fill="#7E7B7E" /><path d="M26.1 19.2c0 .03.02.05.05.05.04 0 .05.02.05.05 0 .03 0 .06-.03.07l-.07.01c-.1 0-.16.02-.17.07l-1.25.02-2.49-.04c-.41-.01-.68-.09-.79-.21l4.7-.01Z" fill="#ADB1BB" /><path d="M30.55 19.18c-.11 0-.17.01-.17.04 0 .08.04.12.11.13.34.06.66.1.95.11h-5.5c0-.06.06-.09.16-.08h.07a.07.07 0 0 0 .03-.08c0-.03-.01-.05-.05-.05-.03 0-.05-.02-.05-.04l4.45-.03Z" fill="#7E7B7E" /><path d="M30.55 19.18h8.19a2.03 2.03 0 0 1-.67.03l1.95-.01h5c.32 0 .61.07.9.2l-.03.04a.08.08 0 0 1-.08.04l-.81-.02c-2.38 0-5.33 0-8.86.02l-.46-.03-.48-.03-1.57.03a32.41 32.41 0 0 1-2.19.01c-.29-.01-.6-.05-.95-.1-.08-.02-.11-.06-.1-.14 0-.03.05-.04.16-.04Z" fill="#9599A2" /><path d="M19.5 19.46c-.16-.02-.25.02-.26.1-.02.1-.06.1-.12.05a.19.19 0 0 0-.06-.04 25.14 25.14 0 0 0-1.54-.06 221.15 221.15 0 0 0-4.1.09c-.17.01-.29.02-.37 0a3.4 3.4 0 0 0-1.44.06c-.3.09-.63.15-.97.2a.08.08 0 0 0-.06.05c-.03.05-.02.05.02.02a.19.19 0 0 1 .13-.03c.06 0 .07.02.02.05a.6.6 0 0 1-.3.11.25.25 0 0 0-.12.04c-.12.07-.25.12-.4.16-.1.03-.11.02 0-.02l.13-.06c.04-.02.03-.03 0-.03a.97.97 0 0 0-.65.36c-.03.04-.03.08.02.12a.1.1 0 0 1 .04.09v.5c-.05.29-.02.58.07.89a.2.2 0 0 1-.02.15c-.06.14-.1.33-.09.58 0 .23-.02.41-.07.53-.05.11-.08.22-.1.33 0 .06 0 .1.03.15l.28.44c.12.19.14.38.06.58-.07.18-.21.4-.43.66-.3.36-.46.69-.48.99 0 .13.05.16.16.1a.5.5 0 0 1 .3-.08c.1.01.13.06.08.15-.2.33-.31.7-.3 1.13 0 .06.03.1.09.1l.17.04c.27.05.3.14.06.3l-.22.11a.78.78 0 0 0-.44.52c0 .3-.08.44-.21.43l-.13-.2-.1-.58c-.02-.04-.03-.04-.06-.02-.02.01-.03.02-.03.04.01.88-.04 1.76-.09 2.64V22.9c0-.66.01-1.1.04-1.3.03-.27.14-.59.31-.95l.02.11c.01.08.04.09.1.03L9 20.1a.17.17 0 0 0 0 .1c.01.05.05.06.1.04l.47-.29v-.02l-.02-.03.3-.01.1-.04c.03-.04.04-.07.02-.1a.4.4 0 0 0 .32-.02.17.17 0 0 1 .13-.01c.1.03.19.02.28-.03.08-.05.16-.08.24-.1.42-.1.82-.16 1.2-.16 1.37 0 2.92 0 4.62.02.4 0 .86 0 1.38-.03.45 0 .9 0 1.37.03ZM31.44 19.46h2.2a43.3 43.3 0 0 1 1.56-.04c.11 0 .27 0 .48.03l.46.03a6819.4 6819.4 0 0 1 9.75-.04l.02-.04c.05-.03.09-.02.1.02.06.05.08.1.07.14-.01.05-.04.07-.1.05a.88.88 0 0 0-.45-.02 2.41 2.41 0 0 1-.64.07c-.5.03-.87.03-1.13 0a9.84 9.84 0 0 0-1.86-.04c-.91.09-1.87.15-2.88.2-.1 0-.16.05-.18.15 0 .04.01.07.06.07.13.02.23.06.3.13.18.2.38.35.6.48.09.05.16.16.2.33l.06.19.33.7c.14.32.13.63-.03.91-.06.09-.13.11-.23.07-.1-.05-.24-.03-.44.04a1 1 0 0 1-.89-.18.15.15 0 0 0-.12-.04c-.05.01-.09.04-.12.09a.17.17 0 0 1-.1.08c-.14.05-.29.16-.45.16-.85.01-1.68.04-2.5 0-.06 0-.13-.14-.2-.15a.85.85 0 0 0-.2-.03c-.4-.36-.8-.22-1.18.18h-3.98l.38-.79c.06-.1.14-.13.24-.06.2.13.43.2.68.23.1.02.19-.02.24-.11l.04-.08c.05-.08.02-.13-.06-.16a.48.48 0 0 0-.32 0c-.06.02-.1 0-.14-.05-.14-.2-.32-.4-.53-.57-.3-.26-.54-.33-.7-.2-.1.06-.17.04-.22-.05l-.16-.24c-.04-.07-.08-.07-.13 0l-.02.03a.2.2 0 0 0-.01.23c.27.47.22.9-.14 1.33-.07.08-.05.12.06.11.08 0 .16-.03.26-.08a.13.13 0 0 1 .12 0c.1.05.16.28.18.46h-1.25c-.13 0-.2 0-.2.14l-.1 2.45c-.01.24-.02.61-.01 1.13 0 .6 0 1.05-.02 1.34 0 .03-.02.06-.06.07l-.06.02-.27-.03-.05-5.05c0-.1-.05-.08-.17-.07-.14.01-.31-.08-.5-.14l-.54-.09a.07.07 0 0 1-.05-.04c-.03-.07-.02-.13.05-.19a.15.15 0 0 1 .12-.03c.3.02.58.1.83.24.16.08.29.05.39-.09a.7.7 0 0 1 .52-.3c.06 0 .1-.03.14-.07.16-.24.27-.48.34-.73.03-.13-.02-.18-.16-.14-.36.1-.73-.04-1.11-.42-.05-.04-.04-.07.02-.08.35-.06.65.02.9.21.14.11.27.1.4-.01a.97.97 0 0 0 .27-.45.12.12 0 0 0-.02-.12.31.31 0 0 0-.2-.12c-.06-.01-.07-.05-.04-.1a.2.2 0 0 1 .13-.1.61.61 0 0 1 .39.02c.2.08.42-.02.67-.3l.1-.11c.11-.06.15-.14.1-.22a.1.1 0 0 0-.1-.07h-.89c-.05 0-.1 0-.15.04-.27.16-.62.16-1.04 0a.97.97 0 0 0-.37-.07c-.54.01-1.06.01-1.57 0-.1 0-.17.04-.2.12-.04.1-.11.16-.2.18-.06 0-.1 0-.13-.04l-.18-.16a.16.16 0 0 0-.12-.04c-.24.01-.46-.02-.64-.1l1.24-.03 5.51.01Z" fill="#404752" /><path d="m22.2 19.43 2.48.04c.2.09.4.12.65.1.04 0 .08.02.12.05l.18.16c.03.03.07.05.12.04.1-.02.17-.08.2-.18.04-.09.1-.13.2-.12h1.58c.12 0 .24.02.37.07.42.16.77.16 1.04 0 .04-.03.1-.05.15-.05l.9.01a.1.1 0 0 1 .1.07c.04.08 0 .16-.11.22l-.01-.15c0-.05-.04-.08-.1-.1a.15.15 0 0 0-.12.04.16.16 0 0 1-.13.04c-.08 0-.16.01-.22.05a.25.25 0 0 1-.2.05 1.68 1.68 0 0 0-.72.03c-.22.05-.43.08-.64.07l-1.8-.1a.77.77 0 0 0-.4.12.14.14 0 0 1-.13 0 .9.9 0 0 0-.49-.1 23.37 23.37 0 0 1-2.98 0c-.13-.02-.23-.02-.3.02a.27.27 0 0 1-.12.02l-2.1-.03a.44.44 0 0 0-.33-.2c-.05 0-.07.03-.05.07.03.1.08.17.14.24.11.34.34.54.68.6.36.07.53.3.53.67 0 .04.02.07.06.08a9.14 9.14 0 0 1 2.11.75c.36.16.51.37.46.62-.03.19.05.28.25.28 1.15 0 2.24.01 3.3.05.1 0 .15-.03.16-.1.19.06.36.15.5.14.12-.01.17-.04.17.07l.05 5.05c-.07.5-.1.96-.06 1.4.02.19.08.2.18.04.07-.1.14-.19.23-.26a.23.23 0 0 0 .08-.13c.07-.27.08-.56.05-.87 0-.06-.02-.1-.06-.12a.27.27 0 0 0-.15-.03l.06-.02c.04-.01.06-.04.06-.07.02-.3.03-.74.02-1.34v-1.13c.05-.82.08-1.64.1-2.45 0-.13.07-.13.21-.14H34c-.06 1.02-.15 1.95-.13 3.01 0 .18.05.31.12.38.11.1.23.17.37.2.05.02.07 0 .07-.04a37.77 37.77 0 0 1 0-3.52c0-.11.05-.15.16-.13.26.06.43.04.53-.08.05 0 .12 0 .2.03.06.01.13.15.2.15h2.5c.15 0 .3-.11.45-.16a.17.17 0 0 0 .1-.08.16.16 0 0 1 .11-.09c.05 0 .09 0 .12.04a1 1 0 0 0 .89.18c.25-.05.37 0 .35.16v.5c.02.15.1.22.26.23h.03c.13 0 .2-.06.2-.18l.02-.55c0-.06.04-.05.1-.05H45.6c.38.05.4.22.4.6.01.9-.02 1.79 0 2.68 0 .13.27.26.32.39.03.07.02.12-.03.16a.34.34 0 0 0-.1.2 5.66 5.66 0 0 0 .1 1.8c.1.33.13.58.12.74 0 .11.02.22.08.32.02.05.03.09.03.14l-.04.36c-.05.2-.1.12-.12-.24-.01-.08-.06-.13-.15-.13L44.55 30c-.06 0-.07.04-.03.07l.04.02c.17.06.21.18.11.35a.28.28 0 0 1-.1.1c-.22.13-.46.18-.74.16l-.4-.03c-.22-.02-.24.04-.06.17.22.16.32.32.32.49 0 .2-.05.39-.13.58-.03.07 0 .13.06.18.09.06.13.15.12.28 0 .04 0 .09.02.13a.9.9 0 0 0 .62.46c.04.02.07 0 .09-.04.03-.07.09-.1.17-.08.15.04.3.02.43-.06.1-.06.22-.06.34 0 .06.03.1.01.1-.06l-.01-.18c0-.08-.04-.1-.1-.06-.24.12-.5.21-.8.28-.04 0-.07 0-.09-.04-.04-.1-.11-.11-.2-.04-.07.06-.11.05-.13-.04-.02-.05 0-.1.03-.14.03-.03.07-.04.12-.03.06 0 .1.04.13.08a.1.1 0 0 0 .12.05c.29-.03.6-.16.92-.37.07-.05.13-.04.2.02.03.02.04.06.02.1a.54.54 0 0 0-.02.43c.04.1.08.1.13.01.04-.09.12-.12.22-.11.03 0 .06 0 .08-.04.02-.03.01-.06-.02-.09a.28.28 0 0 1-.08-.28c.05-.19.07-.39.07-.6 0-.1.02-.18.07-.26.05-.08.12-.1.2-.04.07.05.06.07-.02.08-.17 0-.2.12-.1.35l-.03.58c0 .09.03.15.12.2.08.03.15.03.23-.02.18-.13.3-.29.4-.49.02-.06 0-.1-.04-.15a.14.14 0 0 0-.16-.03.48.48 0 0 1-.2.04.11.11 0 0 1-.1-.08.35.35 0 0 1-.02-.2l.53.1c.05 0 .08.03.1.07.13.22.04.47-.28.73-.1.09-.12.18-.03.29.05.06.04.12-.02.18-.26.2-.46.46-.62.74a.8.8 0 0 1-.21.25 4 4 0 0 0-.23.18.12.12 0 0 0-.04.06v.03c.02.06 0 .08-.07.06h-.04c-.05.03-.06.02-.03-.02l.23-.39.07-.04a.34.34 0 0 0 .1-.08l.62-.79c.07-.1.05-.14-.08-.15a.86.86 0 0 0-.55.11c-.1.07-.22.12-.36.16-.22.06-.44.11-.67.15-.13-.2-.27-.24-.43-.12-.04.04-.09.04-.14 0a3.71 3.71 0 0 1-.7-.56.11.11 0 0 1-.02-.1.68.68 0 0 0-.04-.35c-.02-.05-.04-.06-.08-.01a.5.5 0 0 0-.12.21c-.02.06-.06.1-.13.1a.3.3 0 0 1-.19-.08.2.2 0 0 0-.17-.05l-.4.06c-.05 0-.1.03-.14.07-.13.12-.29.2-.48.21-.14.01-.22.09-.23.23 0 .1-.03.2-.08.28-.03.06-.05.05-.06 0-.07-.33.07-.54.4-.66.18-.05.3-.1.37-.15.28-.18.56-.32.85-.42.36-.12.49-.35.4-.71a.13.13 0 0 0-.1-.1c-.52-.12-1.12.21-1.81 1.02-.2.23-.38.63-.55 1.2l-.12.41c-.14.4-.42.76-.86 1.08-.06.04-.13.12-.22.22l-.18.2c-.1.07-.14.05-.14-.07 0-.17.09-.32.26-.47.57-.51.88-1.13.93-1.86.02-.44.2-.82.56-1.16.15-.13.2-.3.18-.48-.04-.34.27-.72.93-1.12l.01-.01c.18-.11.16-.1-.05-.1h-1.64c-.1 0-.14-.07-.14-.17l.02-.95c0-.04-.02-.07-.06-.1a.1.1 0 0 0-.12.02c-.08.07-.17.07-.25 0-.06-.03-.1-.02-.1.05l.03 1.01c0 .07-.03.14-.1.14h-5.45c-.07 0-.1-.07-.1-.14v-.7c.01-.07-.02-.08-.08-.06l-.3.14c-.18.09-.22.2-.12.37.27.4.52.82.76 1.23.1.2.17.47.18.82l.01.29c0 .07-.03.11-.1.11l-.06.02c-.06.04-.08.08-.04.14.02.04.02.1 0 .2a.56.56 0 0 0 0 .16l.07.27c.05.17.07.3.08.38.1.75.3 1.47.65 2.16.06.11.14.2.25.3l.33.23c.21.16.46.22.74.19.05 0 .16.02.34.07.43.12.81.07 1.16-.17l.1-.01c.16-.02.3 0 .39.05l.37.2-.5.08a1.6 1.6 0 0 1-.51.01c-.44-.07-.9-.08-1.37-.03a.16.16 0 0 0-.08.04.24.24 0 0 1-.15.05c-1.1.02-2.44.02-4.03 0-.15 0-.23-.08-.24-.22.01-.13-.04-.24-.16-.34-.06-.05-.07-.1-.03-.17l.32.24c-.07.03-.1.1-.07.21 0 .05.03.07.08.07l3.43-.04c.04.06.08.07.13.05.05-.03.06-.07.02-.12a.32.32 0 0 0-.13-.1.3.3 0 0 1-.11-.08c-.4-.47-.67-.95-.8-1.45-.17-.57-.3-1.27-.42-2.1-.01-.08-.05-.1-.12-.05-.17.13-.34.1-.52-.1a8.11 8.11 0 0 0-.53-.51c-.1-.1-.22-.18-.34-.25-.26-.17-.47-.63-.62-1.4-.02-.05-.05-.08-.1-.08h-3.95c-.07 0-.11-.03-.11-.1v-.33c-.01-.04-.03-.06-.06-.07-.03 0-.06 0-.08.03-.43.57-.89 1.11-1.37 1.63a5.87 5.87 0 0 1-.69.62l-.02-.03c-.02-.01-.02-.03 0-.05.5-.5.95-1 1.35-1.5a.35.35 0 0 0 .07-.15c.01-.06-.02-.1-.09-.08l-.58.03h-4.03c-.04 0-.07.03-.07.07l-.32 4.67c0 .03-.02.04-.04.03h-.05c-.02-.02-.03-.03-.03-.05.05-1.22.14-2.47.26-3.74.02-.24.03-.54.02-.89 0-.05-.03-.08-.09-.08h-.27c-.07 0-.14-.02-.14-.08v-4.23c0-.12 0-.18-.13-.2a.1.1 0 0 1-.07-.04c-.04-.06-.02-.07.04-.06.07.02.13.01.18-.03.03-.03-.02-.06-.02-.1V23.1c0-.12.13-.18.26-.19l.68-.03c.05 0 .1-.02.12-.06.18-.31.12-.53-.19-.64a2.38 2.38 0 0 1-.33-.17 7.85 7.85 0 0 0-1.82-.62.2.2 0 0 1-.16-.14l-.1-.32c-.05-.2-.19-.3-.4-.3-.26 0-.54-.27-.82-.77a1.03 1.03 0 0 0-.56-.1l-.53.05c-1.64 0-3.3.02-5 .06-.06.15-.13.33-.18.55l.01.1.07.1c.18.14.23.32.15.54a.92.92 0 0 0-.01.67c.04.12.19.23.44.33.34.14.45.35.32.62-.04.09-.01.22.1.22h1.21c.1 0 .13.06.13.15l-.01.4c0 .12.05.2.16.23l.26.09c.13.04.19 0 .18-.13l-.04-.72c0-.05.02-.08.08-.08l5.44-.03c.09 0 .13.04.13.12v2.12c0 .05.02.1.05.15.04.07.03.14 0 .22a.27.27 0 0 0-.05.14v4.23c0 .05-.02.07-.07.07h-3c-.13 0-.2.07-.17.2l-.01.15a45.08 45.08 0 0 0-.88 3.51c0 .04-.03.07-.05.1-.11.1-.1.17.06.2 1.47.33 2.88.56 4.25.7.1.02.21.02.32.02l.28.01.4.07c1 .08 2.01.12 3.05.14.06 0 .09-.03.09-.09l.06-2.66c0-.03.02-.04.05-.02l.05.02c.04.02.06.06.06.1.02.67 0 1.32-.05 1.96-.02.13.01.26.08.37a1.3 1.3 0 0 1 .16.49c0 .05.04.08.1.09l.58.02c.2.01.37.05.52.11l.55.24c.11.04.24.03.39-.05a.15.15 0 0 1 .13 0c.44.2.77.17.98-.08.17-.19.32-.38.46-.6a.16.16 0 0 1 .14-.07c.56.02.93.15 1.1.39-.4-.16-.74-.22-1.04-.17a.14.14 0 0 0-.1.06l-.35.54a.21.21 0 0 1-.13.1l-.55.13c-.06 0-.11 0-.16-.02a.77.77 0 0 0-.35-.06v.05c.02.04 0 .06-.04.06h-.2c-.02 0-.03 0-.02-.02v-.03c.03-.06.01-.08-.05-.08a.47.47 0 0 1-.35-.08.79.79 0 0 0-.24-.1c-.1-.02-.16-.05-.2-.07a2.08 2.08 0 0 0-.86-.15l-.37-.02c-.05 0-.07-.03-.06-.07a.26.26 0 0 0-.04-.21c-.05-.07-.1-.07-.15-.02-.04.05-.1.07-.2.06a45.65 45.65 0 0 1-6.46-.55c-.18-.05-.3-.07-.4-.08l-.56-.1a24.13 24.13 0 0 0-2.3-.43v-.04c0-.04-.02-.05-.06-.06-.14 0-.29-.03-.43-.08-.6-.21-1.26-.4-1.98-.58a1.27 1.27 0 0 1-.32-.13c-.1-.06-.22-.1-.35-.12a.05.05 0 0 1-.03-.03.07.07 0 0 0-.06-.05c-.25-.04-.5-.1-.75-.18a1.99 1.99 0 0 0-.36-.08.9.9 0 0 1-.43-.18.22.22 0 0 0-.12-.04 1.28 1.28 0 0 1-.51-.14c-.04-.02-.08-.01-.11.02a.05.05 0 0 1-.05.02.14.14 0 0 1-.1-.06c-.05-.1-.14-.11-.25-.05a.12.12 0 0 1-.1 0 .39.39 0 0 0-.28 0 .3.3 0 0 1-.13.01l-.58-.1a.56.56 0 0 0-.26 0c-.09.03-.17.05-.26.06-.17.03-.26-.05-.27-.22a17.21 17.21 0 0 1-.01-2.05l-.04-.01c-.02 0-.03-.01-.02-.04a.16.16 0 0 1 .09-.07c.1.09.2.2.26.34.03.05.03.1.02.15a.5.5 0 0 0 .15.5c.1.1.18.25.25.47l.06.16c.08.2.21.38.4.51a.1.1 0 0 0 .1.01c.05-.02.06-.05.06-.1A2.23 2.23 0 0 0 9.3 31c-.06-.1-.1-.24-.12-.44-.03-.2-.07-.34-.14-.43a2.16 2.16 0 0 0-.27-.3c-.19-.2-.3-.36-.36-.5.13.01.2-.13.2-.43 0 .07.02.14.06.2.02.05.06.07.1.09.18.05.3.16.36.33.05.14.19.31.4.51l.08.07c.09.08.11.18.07.29a.51.51 0 0 0 .07.44c.14.25.26.5.36.76.04.09.16.18.34.27h.02c1.18.56 2.59 1.07 4.22 1.55.06.01.09 0 .07-.06-.1-.3-.05-.6.11-.9.03-.04.02-.08-.02-.11l-.13-.12a.18.18 0 0 1-.06-.13 2.3 2.3 0 0 0-.6-1.45.58.58 0 0 1-.15-.5c0-.06-.02-.1-.08-.1a.18.18 0 0 1-.1-.03c-.04-.02-.09 0-.13 0H9.9c-.1 0-.14-.09-.15-.18l-.02-4.95c0-.06-.02-.07-.07-.03l-.03.03a.6.6 0 0 0-.06-.58c.05.07.1.1.14.1.05.01.08 0 .08-.05l-.03-1.12c0-.12.06-.22.18-.22h2.42c.16 0 .24-.04.33 0 .07.02.13.02.2 0 .15-.05.1-.08-.05-.14-.16-.06-.21-.21-.35-.3l-1.36-.78c-.07-.03-.17-.1-.3-.2l-.29-.19c-.08-.04-.19-.12-.33-.23-.2-.16-.37-.26-.5-.3a.12.12 0 0 0-.12 0c-.09.07-.13.19-.13.36l.01-.5a.1.1 0 0 0-.04-.09c-.05-.04-.05-.08-.02-.12.17-.2.38-.32.64-.36.04 0 .05 0 .01.03l-.14.06c-.1.04-.1.05.01.02.15-.04.28-.1.4-.16a.25.25 0 0 1 .11-.04.6.6 0 0 0 .31-.1c.05-.04.04-.06-.02-.06-.04 0-.09 0-.13.03-.04.03-.05.03-.02-.02a.08.08 0 0 1 .06-.05c.34-.05.66-.11.97-.19a3.4 3.4 0 0 1 1.44-.06c.08.01.2 0 .37-.02l.22-.01c1.32-.04 2.6-.06 3.87-.07a25.24 25.24 0 0 1 1.55.06l.06.04c.06.06.1.04.12-.05.01-.08.1-.12.27-.1h1.85c.12 0 .2.07.26.2.03.04.06.06.12.05h.06c.04.01.07 0 .07-.05 0-.2.1-.27.32-.23Z" fill="#38302E" /><path d="M46.01 19.42c.14.02.27.08.38.18.02.04.03.08.02.11-.01.05-.04.07-.1.07H45.02c-.46-.01-.96 0-1.5.04a.9.9 0 0 0-.22.06.84.84 0 0 1-.25.06c-.2 0-.37.1-.5.26a.14.14 0 0 0-.04.11c.03.28.14.55.32.8.3.42.41.88.35 1.38 0 .04 0 .08.03.11l.02.04c.03.04.02.08-.02.1l-.23.26h-2.32c-.06 0-.1 0-.1.05l-.02.55c0 .12-.07.18-.2.18h-.03c-.15 0-.24-.08-.25-.22a2.24 2.24 0 0 1 0-.51c.01-.16-.1-.21-.36-.16.2-.07.35-.09.44-.04.1.04.17.02.23-.07a.97.97 0 0 0 .03-.91 15 15 0 0 0-.33-.7.97.97 0 0 1-.06-.19c-.04-.17-.11-.28-.2-.33a2.6 2.6 0 0 1-.6-.48.45.45 0 0 0-.3-.13c-.05 0-.07-.03-.06-.07.02-.1.08-.14.18-.15 1.01-.05 1.97-.11 2.88-.2a9.84 9.84 0 0 1 1.86.05 7.36 7.36 0 0 0 1.77-.08c.15-.03.3-.03.45.02.06.02.09 0 .1-.05 0-.04-.01-.1-.07-.14Z" fill="#363D48" /><path d="m36.4 19.7-.55.1a1.8 1.8 0 0 1-1.23-.03 1.16 1.16 0 0 0-.39 0 .73.73 0 0 1-.55-.14.36.36 0 0 0-.32-.05.11.11 0 0 0-.08.06c-.02.06 0 .1.06.11a.2.2 0 0 1 .09.07.41.41 0 0 1-.24-.05c-.04-.03-.05-.06-.04-.1a.17.17 0 0 1 .09-.1.3.3 0 0 1 .14-.03c.58 0 1.16 0 1.74-.02.23 0 .44.01.65.05l.63.13Z" fill="#38302E" /><path d="M36.4 19.7c.05.08.14.14.27.17.18.05.3.14.38.27.11.18.23.37.37.56.05.07.04.12-.04.16-.17.08-.43.04-.76-.11-.37-.16-.65-.2-.85-.09-.11.07-.12.14-.02.22.19.14.52.29 1 .43l.24.07c.17.05.3.14.38.28.06.1.03.14-.1.12a1.61 1.61 0 0 0-.74.01c-.16.04-.29.06-.38.05a.26.26 0 0 1-.15-.06.68.68 0 0 0-.72-.12c-.14.05-.24 0-.29-.13-.05-.15-.17-.23-.36-.24-.13-.01-.23-.04-.29-.1a3.17 3.17 0 0 0-.5-.33.21.21 0 0 0-.15-.03c-.33.06-.58.17-.75.34a.52.52 0 0 1-.46.17.54.54 0 0 1-.4-.28c-.03-.05-.03-.09 0-.13l.32-.34a.22.22 0 0 1 .19-.07l.3.02a.2.2 0 0 0 .13-.04l.51-.4a.13.13 0 0 0 .06-.11c0-.09-.06-.14-.16-.17a.2.2 0 0 0-.1-.07c-.05-.02-.07-.05-.05-.1a.11.11 0 0 1 .08-.07.36.36 0 0 1 .32.05c.17.12.35.16.55.13.12-.01.26 0 .4.02.16.03.32.04.48.03a4.65 4.65 0 0 1 .74 0l.55-.1ZM30.18 19.84a3.3 3.3 0 0 0-.1.11c-.25.28-.47.38-.67.3a.61.61 0 0 0-.39-.02.2.2 0 0 0-.13.1c-.03.05-.02.09.05.1.08.02.14.06.19.12.02.04.03.08.02.12a.97.97 0 0 1-.28.45c-.12.11-.25.12-.38.01-.26-.2-.56-.27-.9-.2-.07 0-.08.03-.03.07.38.38.75.51 1.1.42.14-.04.2 0 .16.14-.06.25-.17.49-.33.73a.18.18 0 0 1-.14.07.7.7 0 0 0-.52.3c-.1.14-.23.17-.4.09a2.19 2.19 0 0 0-.82-.24c-.05 0-.09 0-.12.03-.07.06-.08.12-.05.2 0 .02.03.03.05.03l.54.09c0 .07-.06.14-.17.14h-3.29c-.2 0-.28-.18-.25-.37.05-.25-.1-.46-.46-.62a9.13 9.13 0 0 0-2.1-.75c-.05-.01-.07-.04-.07-.08 0-.38-.17-.6-.53-.67a.85.85 0 0 1-.68-.6.26.26 0 0 1-.03-.1c0-.06.03-.08.08-.07l.2.06 2.08.03c.05 0 .1 0 .13-.02.07-.04.17-.04.3-.02l.15.01.76.01c.93.02 1.62 0 2.07-.03a.9.9 0 0 1 .49.1c.04.03.09.03.13 0h.02c.14-.07.27-.1.37-.1l1.8.09c.22 0 .43-.02.65-.07.23-.07.48-.08.72-.03.07.01.14 0 .2-.05a.31.31 0 0 1 .22-.05c.05 0 .1 0 .13-.04a.15.15 0 0 1 .13-.03c.05 0 .08.04.08.09l.02.15Z" fill="#0A020A" /><path d="M46.4 19.6c.06-.03.12 0 .17.1.05.1.02.14-.09.11a.53.53 0 0 0-.33.02c-.1.04-.26.05-.47.04-.05 0-.1 0-.13.04a.37.37 0 0 1-.2.08c-.21.03-.3.15-.25.35.02.1.07.23.14.4.1.23.15.42.16.56.02.52.02 1.02 0 1.53 0 .04-.02.17-.07.17h-2.37l.24-.26c.04-.02.05-.06.02-.1l-.02-.04a.16.16 0 0 1-.03-.11c.06-.5-.06-.96-.35-1.38a1.69 1.69 0 0 1-.32-.8c0-.04 0-.08.03-.1.14-.17.31-.26.51-.27.07 0 .15-.02.25-.06a.9.9 0 0 1 .22-.06c.54-.04 1.04-.05 1.5-.03l.58-.01h.73c.05 0 .08-.02.09-.07 0-.03 0-.07-.02-.11Z" fill="#2C323C" /><path d="M9.5 19.7c.03.1.2.07.52-.06-.09.09-.1.12-.05.11a.83.83 0 0 0-.42.16c-.16.04-.24.02-.23-.06a.32.32 0 0 1 .19-.15Z" fill="#9599A2" /><path d="M9.97 19.75c.02.04 0 .07-.03.1a.17.17 0 0 1-.09.05c-.1.01-.2.02-.3.01a.83.83 0 0 1 .42-.16Z" fill="#7E7B7E" /><path d="M19.24 19.86a64.33 64.33 0 0 1-6.08.02c1.68-.05 3.35-.07 4.99-.07l.53-.04c.21-.02.4 0 .56.09Z" fill="#1A2029" /><path d="M9.32 19.85c0 .08.07.1.23.06l.02.03v.02l-.48.29c-.05.02-.08.01-.1-.04l.01-.1a1 1 0 0 1 .32-.26Z" fill="#7E7B7E" /><path d="M19.24 19.86c.28.5.56.76.83.77.2 0 .34.1.4.3l.09.32a.2.2 0 0 0 .16.14 7.85 7.85 0 0 1 1.82.62l.33.17c.3.11.37.33.19.64-.03.04-.07.18-.12.18h-.68c-.13 0-.26-.02-.26.1v2.13c0 .04.05.07.02.1a.18.18 0 0 1-.18.03c-.06-.01-.08 0-.04.06a.1.1 0 0 0 .07.05c.12.01.13.07.13.19v4.23c0 .06.07.09.14.09h.27c.06 0 .09.02.09.07 0 .35 0 .65-.02.89-.12 1.27-.2 2.52-.26 3.74 0 .02 0 .03.03.04l.04.01c.03.01.05 0 .05-.03l.32-4.67c0-.04.02-.07.07-.07h4.03c.2 0 .39 0 .58-.03.07-.01.1.02.09.08a.35.35 0 0 1-.07.15c-.4.5-.85 1-1.35 1.5-.02.02-.02.04 0 .05l.02.03h.01c.26-.2.49-.41.68-.62.48-.52.94-1.06 1.37-1.63.02-.03.05-.04.08-.03.03.01.05.03.05.07v.34c0 .06.04.1.12.1l3.94-.01c.06 0 .1.03.1.08.16.77.37 1.23.63 1.4.12.07.24.16.34.25.2.17.37.34.53.51.18.2.35.23.52.1.07-.05.1-.03.12.05.11.83.25 1.53.41 2.1.14.5.4.98.8 1.45a.3.3 0 0 0 .12.09c.05.02.1.05.13.1.04.04.03.08-.02.1-.05.03-.1.02-.13-.04a28.96 28.96 0 0 0-3.26-.08c-.04 0-.07-.02-.1-.06-.02-.05-.05-.08-.08-.1l-.32-.24c-.06-.06-.1-.1-.15-.09-.34.04-.58-.06-.7-.3-.17-.24-.54-.37-1.1-.39a.16.16 0 0 0-.14.08c-.14.2-.3.4-.46.6-.21.24-.54.26-.98.07a.15.15 0 0 0-.13 0c-.15.08-.28.1-.39.05a97.2 97.2 0 0 1-.55-.24c-.15-.06-.33-.1-.52-.1l-.58-.03c-.06 0-.1-.04-.1-.1l-.01-.05a1.3 1.3 0 0 0-.15-.43.57.57 0 0 1-.09-.37c.06-.64.08-1.29.06-1.95a.12.12 0 0 0-.06-.1l-.05-.03c-.03-.02-.05-.01-.05.02l-.06 2.66c0 .06-.03.09-.1.09a46.91 46.91 0 0 1-3.04-.14l-.4-.07c-.1-.01-.18-.02-.28-.01l-.32-.01a40.13 40.13 0 0 1-4.25-.7c-.15-.04-.18-.1-.06-.22a.17.17 0 0 0 .05-.09c.24-1.16.53-2.33.88-3.51.01-.05.02-.1 0-.15-.01-.13.05-.2.19-.2h2.99c.05 0 .08-.02.08-.07v-4.23c0-.05 0-.1.03-.14a.21.21 0 0 0 0-.22.34.34 0 0 1-.03-.15l-.01-2.12c0-.08-.04-.03-.13-.03h-5.4c-.06 0-.06-.03-.06.02v.72c0 .13-.07.17-.2.13l-.26-.09c-.11-.03-.17-.1-.16-.22l-.03-.32c0-.08 0-.24-.09-.24h-1.22c-.1 0-.13-.13-.09-.22.13-.27.02-.48-.32-.62-.25-.1-.4-.21-.44-.33a.92.92 0 0 1 0-.67c.09-.22.04-.4-.14-.55a.22.22 0 0 1-.07-.08.17.17 0 0 1 0-.11c.04-.22.1-.4.18-.55a64.5 64.5 0 0 0 6.08-.01Z" fill="#0A020A" /><path d="m10.51 20.37.25-.12c.17-.1.3-.15.37-.17.1 0 .2-.03.29-.05.34-.1.75-.14 1.24-.13.11 0 .17.05.2.15.04.23-.02.4-.18.5a.24.24 0 0 0-.1.28c0 .04.04.06.09.05l.2-.05c.13-.03.18.01.16.14-.04.3-.04.6 0 .85.03.17.18.31.48.44l.08.04c.18.08.26.21.24.4v.07c-.02.18-.12.23-.3.15-1.25-.59-2.4-1.25-3.43-1.98a.16.16 0 0 1-.06-.1.13.13 0 0 0-.09-.1c-.05-.01-.07-.05-.06-.09 0-.04.02-.07.07-.09.19-.06.37-.12.55-.2ZM9.57 24.29l-.28-.44a.2.2 0 0 1-.03-.15c.01-.1.05-.22.1-.33.05-.12.08-.3.07-.53 0-.25.02-.44.1-.58a.2.2 0 0 0 0-.15c-.08-.3-.1-.6-.07-.89 0-.17.04-.3.13-.35a.12.12 0 0 1 .12-.02c.13.05.3.15.5.31.14.11.25.19.33.23.07.04.17.1.29.2a3 3 0 0 0 .3.2c.43.23.89.5 1.36.77.14.09.28.24.44.3.16.06.15.11 0 .16a.28.28 0 0 1-.19 0c-.1-.03-.22-.03-.38-.02h-.11l-2.31.01c-.12 0-.18.13-.18.25l.03 1.08c0 .04-.03.06-.08.06-.04 0-.09-.04-.14-.11ZM30 23s-.28.02-.28 0c-.02-.18-.08-.41-.18-.46a.13.13 0 0 0-.12 0 .63.63 0 0 1-.26.08c-.11 0-.13-.03-.06-.1.36-.43.4-.87.14-1.34a.2.2 0 0 1 0-.23l.03-.04c.05-.06.09-.06.13 0l.16.25c.05.1.12.1.21.04.17-.12.4-.05.7.2.22.18.4.38.54.58.03.05.08.07.14.05a.48.48 0 0 1 .32 0c.08.03.1.08.06.16l-.04.08c-.05.09-.13.13-.24.11a1.6 1.6 0 0 1-.68-.23c-.1-.07-.18-.05-.24.06L30 23ZM35.12 22.82c-.1.12-.27.14-.53.08-.1-.02-.16.02-.17.13a37.8 37.8 0 0 0 0 3.52c0 .04-.01.06-.06.05a.9.9 0 0 1-.37-.2c-.07-.08-.12-.2-.12-.39-.02-1.07 0-2.1.06-3.13.38-.4.78-.42 1.19-.06ZM40.43 23.78c.03 0 .05 0 .05.03v.01c.15.99.16 1.49.02 1.5l-.02.01c-.13.02-.27-.46-.42-1.45v-.02c0-.02 0-.03.03-.04l.34-.04ZM14.98 32.52a.23.23 0 0 1 .07-.1c.04-.03.05-.06.04-.1a.28.28 0 0 0-.2-.2c-.07-.03-.11-.09-.12-.16a2.45 2.45 0 0 0-.54-1.37.85.85 0 0 1-.22-.53c0-.04.01-.06.05-.06h1.25c.05 0 .07-.02.07-.07v-5.87c0-.13.06-.18.2-.14l.18.06c.11.04.24.11.24.23v5.7c0 .07.05.09.12.09h2.02c.08 0 .1.04.1.11a48.7 48.7 0 0 1-.93 3.6.68.68 0 0 0-.03.25c0 .1-.04.13-.13.1l-2.18-.57c-.06-.02-.1-.05-.1-.1-.03-.28 0-.57.1-.87Z" fill="#0A020A" /><path d="M13.5 27.99v-1.26c0-.16-.08-.23-.24-.21a.28.28 0 0 1-.22-.07c-.07-.06-.06-.09.03-.09h1.37c.02 0 .03.01.04.03l.01.03c.02.05 0 .07-.05.07-.24-.02-.44.1-.44.35v1.18c0 .06-.03.11-.1.14-.57.3-1.07.4-1.63.34a2 2 0 0 1-1.45-.86c-.19-.27-.3-.6-.32-.98-.02-.39.05-.72.2-1.02.27-.53.66-.88 1.18-1.04a2.53 2.53 0 0 1 1.62.08c.13.05.23 0 .3-.12.03-.04.06-.06.1-.05l.06.03.02.08c0 .36 0 .7.04 1.03 0 .05-.01.08-.06.08-.05 0-.08-.01-.1-.06-.34-.8-.9-1.08-1.67-.86-.45.13-.75.45-.9.96-.13.42-.14.89-.02 1.4.1.48.38.8.81.98.42.17.86.16 1.34-.04a.12.12 0 0 0 .08-.12ZM42.46 28.28c-.08-.03-.14-.01-.16.07a.26.26 0 0 1-.1.12c-.07.05-.1.04-.12-.05a24.1 24.1 0 0 0-.15-1.12c0-.02 0-.03.02-.04.04-.06.08-.05.11.01.28.65.69.99 1.22 1 .43.02.68-.14.76-.48.08-.32-.05-.6-.4-.82l-1.05-.64a1 1 0 0 1-.5-.65.86.86 0 0 1 .2-.76c.4-.47.95-.55 1.66-.22.05.02.1.03.15.01.05 0 .1-.04.13-.08.12-.16.2-.14.21.06l.1 1.02c0 .02 0 .03-.03.04h-.04c-.05 0-.08-.01-.1-.06-.16-.6-.54-.9-1.13-.92-.36 0-.57.13-.61.42-.04.27.08.5.37.67.38.23.75.45 1.1.68.37.22.56.5.59.86.02.37-.14.66-.5.88-.46.3-1.04.3-1.73 0ZM25.97 27.25c.03 0 .03 0 .03-.04v-2.08a.56.56 0 0 0-.13-.37.18.18 0 0 0-.1-.06c-.11-.03-.18-.04-.2-.06-.2-.09-.2-.14.02-.14h1.2c.02 0 .04.02.04.05v.03c0 .04-.02.06-.06.06-.33 0-.5.16-.5.49v3.27c0 .12-.04.13-.12.04l-2.47-3.04c-.09-.1-.13-.1-.14.05l.01 2.47c0 .29.17.44.5.44.03 0 .04.02.04.05v.03c0 .04-.01.06-.05.06H22.8c-.02 0-.04-.02-.06-.04-.03-.02-.03-.03-.02-.05a9.7 9.7 0 0 0 .13-.05c.28-.08.43-.23.43-.45v-2.86c0-.23-.15-.37-.47-.42-.12-.02-.13-.06 0-.1.05-.03.2-.03.2-.03h.64c.05 0 .09.04.12.08a305.3 305.3 0 0 1 2.2 2.67ZM38.94 24.7c-.16.06-.24.17-.24.34l-.01 2.06c-.02.8-.42 1.26-1.19 1.37-.55.08-1 0-1.35-.2-.38-.25-.58-.63-.58-1.17v-2.18c0-.13-.07-.21-.2-.24l-.2-.05a.65.65 0 0 1-.06-.01c-.1-.04-.13-.07-.1-.1l.03-.01 1.67-.01c.03 0 .04 0 .06.03v.05l-.03.01-.35.09c-.12.03-.18.1-.18.23-.02.83-.02 1.62 0 2.37.02.7.45 1 1.27.94.6-.05.9-.37.92-.94.03-.72.04-1.45.01-2.2 0-.3-.19-.45-.53-.45-.03 0-.04 0-.04-.03v-.03c0-.04.03-.06.07-.06h1.2c.26 0 .27.04.02.12l-.2.07ZM18.01 26.61v1.5c0 .07.04.11.11.12.4.04.8.04 1.24 0 .3-.03.57-.2.79-.5l.12-.17c.15-.19.2-.17.15.06a5.8 5.8 0 0 1-.22.8c-.02.05-.06.08-.1.08h-3.06c-.31 0-.32-.05-.03-.14l.2-.06c.12-.03.18-.11.18-.24v-3.12c0-.14-.07-.22-.2-.25l-.29-.07c-.04 0-.06-.03-.05-.07 0-.02.01-.03.02-.03a335.51 335.51 0 0 1 3.17-.01c.06 0 .1.02.1.08l.01.69c0 .04-.01.07-.04.1a.05.05 0 0 1-.04 0c-.06 0-.1-.04-.1-.1-.06-.3-.2-.48-.4-.5a8.45 8.45 0 0 0-1.45-.04c-.07 0-.12.05-.12.12v1.35c0 .05.04.08.1.08l1.03-.01c.26 0 .43-.17.5-.51.02-.07.06-.08.12-.05a.1.1 0 0 1 .06.1c-.03.39-.03.79 0 1.21 0 .04-.02.06-.06.07h-.04c-.03.02-.05 0-.06-.02l-.12-.36c-.04-.13-.13-.2-.26-.2h-1.16c-.07 0-.1.03-.1.1ZM30.57 24.7l-.43-.1-.02-.04v-.03c0-.02 0-.03.02-.03h1.76c.02 0 .04.01.05.03v.04l-.04.03-.39.1c-.11.05-.17.13-.17.25v2.97c0 .31.18.46.55.44.03 0 .04.02.04.04v.04c0 .03-.02.05-.05.05h-1.6c-.27-.01-.28-.04-.02-.1.29-.07.43-.2.44-.37l.01-2.95a.8.8 0 0 0-.06-.3.12.12 0 0 0-.09-.07Z" fill="#fff" /><path d="M8.62 28.89c.06-.23.2-.4.44-.52.1-.04.17-.08.22-.12.23-.15.21-.24-.06-.3l-.17-.02c-.06-.01-.1-.05-.1-.11 0-.43.1-.8.3-1.13.06-.09.04-.14-.07-.15a.5.5 0 0 0-.3.07c-.11.07-.17.04-.16-.1.02-.3.17-.62.48-.98.22-.26.36-.48.43-.66l.03-.03c.05-.04.07-.03.07.03l.03 4.95c0 .1.04.18.13.18h3.7c.05 0 .1-.02.13 0 .03.03.07.04.11.04.06 0 .09.03.08.08-.03.2.02.37.15.51.36.39.55.87.6 1.45 0 .05.02.1.06.13l.13.12c.04.03.05.07.02.11-.16.3-.2.6-.11.9.02.05 0 .07-.06.06a29.6 29.6 0 0 1-4.24-1.55c-.2-.09-.3-.18-.35-.27-.1-.26-.22-.51-.36-.76a.51.51 0 0 1-.06-.44.25.25 0 0 0-.08-.3 2.78 2.78 0 0 0-.07-.06c-.22-.2-.36-.37-.4-.51a.5.5 0 0 0-.37-.33.18.18 0 0 1-.1-.09.36.36 0 0 1-.05-.2ZM40.27 25.37a.8.8 0 0 0 .11.12c.1.09.14.18.14.28v.7c0 .13-.06.22-.17.27l-.16.1c-.1.05-.16.02-.17-.1L40 24.86l.01-.02h.04c.02 0 .04.01.04.04.02.18.08.35.18.5ZM46.29 26.83c.07 0 .11.05.11.12.01.31.04.67.08 1.05.02.2.13.27.32.24.05 0 .1-.05.15-.11a.11.11 0 0 1 .11-.05l.94.13-.02 1.88-.02-.43c0-.11-.02-.11-.04 0l-.03.1a.17.17 0 0 1-.11.08c-.4.11-.72.32-.99.62-.1.11-.2.11-.29 0a.2.2 0 0 1-.02-.07l.04-.36c0-.05 0-.1-.03-.14a.57.57 0 0 1-.08-.32 2.58 2.58 0 0 0-.14-.85c-.1-.4-.12-.96-.07-1.7 0-.06.03-.13.09-.2ZM40.42 28.37c-.06-.17-.16-.25-.31-.26-.05 0-.1-.02-.1-.07v-.98c0-.06.04-.09.1-.08.11 0 .22 0 .32-.05.06-.03.1 0 .1.06v1.47c0 .14-.08.2-.22.17-.2-.04-.3-.14-.3-.3-.02-.13.02-.15.12-.04.06.07.13.12.2.16.1.04.13.01.1-.08ZM27.75 28.12l.27.03c.06 0 .11 0 .15.03.04.02.06.06.06.12.03.3.02.6-.05.87a.23.23 0 0 1-.08.13c-.09.07-.16.16-.23.26-.1.16-.16.15-.18-.04a6.4 6.4 0 0 1 .06-1.4Z" fill="#0A020A" /><path d="M8.28 29.11c-.23.07-.23.3-.01.7a.16.16 0 0 0-.09.08c-.01.03 0 .04.03.04l.03.01v.03c-.04.62-.04 1.3 0 2.02.02.17.1.25.28.22l.26-.05a.56.56 0 0 1 .26-.01l.58.1a.3.3 0 0 0 .13-.01c.1-.03.19-.03.27 0 .04.02.07.02.1 0 .12-.06.2-.05.27.05.02.03.05.05.1.06.01 0 .03 0 .04-.02.03-.03.07-.04.1-.02.17.09.34.13.52.14.04 0 .08.02.12.04.13.1.28.16.43.18.13.02.25.04.36.08.25.08.5.14.75.18.03 0 .05.02.06.05 0 .01.02.03.04.03.12.02.23.06.34.12.1.06.2.1.32.13.72.17 1.38.37 1.98.58.15.05.3.08.44.08.03 0 .05.02.05.06v.04l.01.01c.77.1 1.54.24 2.3.41.17.04.36.08.56.1l.39.09.37.07c2.05.3 4.07.46 6.09.48.1 0 .16-.01.2-.06.06-.05.1-.05.15.02.04.06.06.13.04.2 0 .05.01.07.06.08l.37.02c.4 0 .68.06.85.15l.21.07c.12.03.2.07.24.1.1.07.21.1.35.08.06 0 .08.02.05.08v.03c0 .02 0 .03.02.03l.2-.01c.04 0 .06-.02.05-.06l-.01-.04c.13-.01.25 0 .35.05.05.02.1.03.16.02l.55-.13c.06-.02.1-.05.13-.1l.35-.54a.14.14 0 0 1 .1-.06c.3-.05.64 0 1.05.17.12.24.35.34.7.3.04 0 .09.03.14.09-.04.06-.03.12.03.17.12.1.17.21.16.34-.04-.06-.1-.04-.2.06a8.5 8.5 0 0 1-1.3.05l-1.3-.06a92.1 92.1 0 0 0-4.27.15 180.83 180.83 0 0 0 2.61-.03c1.07-.04 1.88-.04 2.45-.02a19.33 19.33 0 0 0 .44.04c-1.44-.04-3.4 0-5.87.1l-11.44.01c0-.04-.02-.04-.02-.02 0-.04 0-.06-.04-.06h-.88c-.04 0-.06-.01-.06-.05 0-.03-.01-.04-.04-.05l-.17-.03c-.2-.05-.34-.07-.44-.07-.65 0-1.27 0-1.85.03l-.09-.03a.12.12 0 0 0-.11-.03c-.06.02-.08.05-.05.1.04.1.13.16.25.21l.7.24.96.03 16.9.02H43.2l.89-.02c.86.14 1.62.02 2.3-.37.34-.2.63-.46.84-.77.2-.2.3-.4.25-.58-.13.05-.24.04-.32-.02-.04-.03-.07-.02-.1 0a.74.74 0 0 1-.29.16.09.09 0 0 0-.04.03v.02c0 .06-.04.08-.1.07a.21.21 0 0 0-.21.08c-.05.06-.1.1-.18.13l-.62.26a.24.24 0 0 1-.1.01.11.11 0 0 0-.12.06.14.14 0 0 1-.09.07l-.74.18a.44.44 0 0 1-.11.02.31.31 0 0 0-.16.04.35.35 0 0 1-.18.05l-3.64.06a.1.1 0 0 1-.08-.04c-.02-.03-.02-.05 0-.06.08-.05.07-.08 0-.1a.27.27 0 0 0-.13-.02 7.72 7.72 0 0 0-.66.15v.03h.02c.18-.04.34-.05.5-.03.03 0 .05.02.05.06 0 .05.02.07.07.07l3.23-.01c.17 0 .34-.02.53-.06.15-.02.3-.04.46-.03.05 0 .1-.01.13-.03.17-.1.34-.12.5-.1-.67.17-1.35.25-2.05.25h-2.91a.22.22 0 0 1-.12-.04.41.41 0 0 0-.3-.06c-.09.02-.28.02-.58.02a6.16 6.16 0 0 0-.37-.2.77.77 0 0 0-.4-.05h-.08v-.03l.03-.02.8-.03c.04 0 .08 0 .12.02.39.2.85.16 1.39-.09.06-.03.09-.07.09-.14 0-.13.06-.22.2-.26a.23.23 0 0 0 .14-.16c.07-.18.08-.37.03-.56-.14-.62-.05-1.05.26-1.3.16-.12.34-.2.56-.21.04 0 .09 0 .13.03.23.13.37.33.42.6.04.21.1.41.2.6a.1.1 0 0 0 .08.06c.13 0 .22.06.29.17.02.03.06.05.1.05a1 1 0 0 0 .76-.34c.3-.33.53-.7.67-1.12.03-.07 0-.1-.07-.1h-.05c.16-.12.3-.08.43.12-.13 0-.17.11-.13.32.01.1.06.12.15.07a.85.85 0 0 1 .4-.12c.04 0 .07.01.09.05.02.04.01.07-.02.1l-.32.34a.16.16 0 0 1-.12.05h-.14c-.05 0-.08.03-.09.08a.67.67 0 0 1-.18.33c-.2.2-.26.47-.2.8.01.07.05.12.12.16.14.08.27.12.41.12.03 0 .06-.02.07-.04.2-.39.3-.76.3-1.1 0-.11.05-.18.17-.19.1 0 .17-.06.19-.15 0-.04.02-.07.05-.1l.12-.08-.23.39c-.03.04-.02.05.03.03h.04c.07.01.09-.01.07-.07v-.03c0-.02.02-.04.04-.06l.23-.18a.8.8 0 0 0 .2-.25c.17-.28.38-.53.63-.74.06-.06.07-.12.02-.18-.09-.1-.08-.2.03-.29.32-.26.41-.5.28-.73a.14.14 0 0 0-.1-.07l-.52-.1c-.03-.06-.06-.09-.12-.09-.05 0-.08.02-.08.07l-.02.17c-.1-.23-.06-.35.1-.35.1 0 .1-.03.03-.08-.08-.06-.15-.04-.2.04a.47.47 0 0 0-.07.26c0 .21-.02.41-.07.6-.03.1 0 .2.09.28.02.03.03.06.01.1-.02.02-.04.04-.08.03-.1-.01-.18.02-.22.11-.05.1-.1.09-.13 0a.54.54 0 0 1 .02-.45c.02-.03.01-.07-.02-.1-.07-.05-.13-.06-.2-.01-.33.21-.63.34-.92.37a.1.1 0 0 1-.11-.05.2.2 0 0 0-.14-.08c-.05-.01-.09 0-.12.03a.15.15 0 0 0-.03.14c.02.09.06.1.13.04.09-.07.16-.06.2.04.02.04.05.05.1.04.29-.07.55-.16.79-.28.07-.04.1-.02.1.06v.18c0 .07-.03.1-.1.06a.34.34 0 0 0-.33 0 .55.55 0 0 1-.43.06c-.08-.02-.14 0-.17.08-.02.04-.05.06-.1.04a.9.9 0 0 1-.6-.46.24.24 0 0 1-.03-.13c.01-.13-.03-.22-.12-.28-.07-.05-.08-.1-.05-.18.08-.2.12-.39.12-.58 0-.17-.1-.33-.32-.5-.18-.12-.16-.18.06-.16l.4.03c.28.02.52-.03.74-.15a.28.28 0 0 0 .1-.11c.1-.17.06-.29-.11-.35-.06-.02-.1-.1-.01-.09h1.66c.09 0 .14.07.15.15.03.36.07.44.12.24 0 .04.01.06.02.07.09.11.19.11.29 0 .27-.3.6-.5.99-.62a.17.17 0 0 0 .11-.09.34.34 0 0 0 .03-.09c.02-.11.04-.11.04 0l.02.43v3.08c-.01.94-.1 1.6-.25 1.97a3.08 3.08 0 0 1-2.95 1.83 11084.9 11084.9 0 0 0-32.3.01l-1.35-.02c-.4 0-.78-.06-1.15-.2a3.46 3.46 0 0 1-1.8-1.69C8.02 33.86 8 32.57 8 31.2c0-.88.1-1.76.1-2.64 0-.02 0-.03.02-.04.03-.02.05-.02.05.02l.1.57Z" fill="#1A2029" /><path d="M44.44 33.17h.05c.07 0 .1.03.07.1a3.3 3.3 0 0 1-.67 1.12 1 1 0 0 1-.76.34.11.11 0 0 1-.1-.05.34.34 0 0 0-.29-.17.1.1 0 0 1-.09-.06 2.48 2.48 0 0 1-.2-.6.84.84 0 0 0-.41-.6.22.22 0 0 0-.13-.03c-.22.02-.4.09-.56.21-.31.25-.4.68-.26 1.3.05.19.04.38-.03.56a.23.23 0 0 1-.15.16c-.13.04-.2.13-.2.26 0 .07-.02.11-.08.14-.54.25-1 .29-1.4.1a.26.26 0 0 0-.11-.03l-.8.03c-.01 0-.02 0-.03.02v.04a.69.69 0 0 1-.45 0 .42.42 0 0 0-.13-.03l-1.67-.06a15.2 15.2 0 0 0-.33-.24.8.8 0 0 1-.25-.3 6.57 6.57 0 0 1-.65-2.16 2.85 2.85 0 0 0-.08-.37 3.63 3.63 0 0 1-.07-.27v-.17c.02-.09.02-.15 0-.19-.04-.06-.02-.1.04-.14a.12.12 0 0 1 .05-.02c.08 0 .12-.04.11-.11l-.01-.29a1.76 1.76 0 0 0-.18-.82 26.8 26.8 0 0 0-.76-1.23c-.1-.16-.06-.28.11-.37l.31-.14c.06-.02.1 0 .09.06l-.01.7c0 .07.03.14.1.14h5.45c.07 0 .04-.07.04-.14v-1c0-.08.07-.1.13-.05.08.06.17.06.25 0a.1.1 0 0 1 .12-.02c.04.02.06.05.06.1l-.02.94c0 .1.04.17.14.17h1.64c.21 0 .23-.01.05.1h-.01c-.66.41-.97.79-.93 1.13a.54.54 0 0 1-.18.48 1.7 1.7 0 0 0-.56 1.16 2.63 2.63 0 0 1-.93 1.86c-.17.15-.26.3-.26.47 0 .12.05.14.14.06.05-.04.11-.1.18-.2.09-.1.16-.17.22-.21.44-.32.72-.68.86-1.08l.12-.41c.17-.57.35-.97.55-1.2.7-.8 1.3-1.14 1.8-1.01.05 0 .09.04.1.09.1.36-.03.6-.39.71-.3.1-.57.24-.85.42-.07.05-.2.1-.36.15-.34.12-.48.33-.41.66.01.05.03.06.06 0a.7.7 0 0 0 .08-.28c.01-.14.09-.22.23-.23.2-.02.35-.09.48-.21a.26.26 0 0 1 .15-.07l.39-.06a.2.2 0 0 1 .17.05.3.3 0 0 0 .2.07c.06 0 .1-.03.12-.09a.51.51 0 0 1 .12-.21c.04-.05.06-.04.08.01.04.12.05.23.04.34-.01.04 0 .08.03.1.25.26.48.45.69.58.05.03.1.03.14-.01ZM8.28 29.11l.13.2c.05.15.17.31.36.5l.27.3c.07.1.11.24.14.44.02.2.06.34.12.44.14.25.23.54.27.87 0 .05-.01.08-.05.1a.1.1 0 0 1-.12 0c-.18-.14-.3-.31-.39-.52a4.09 4.09 0 0 1-.06-.16 1.16 1.16 0 0 0-.25-.47.5.5 0 0 1-.15-.5c.01-.05 0-.1-.02-.15a.92.92 0 0 0-.26-.34c-.22-.4-.22-.64 0-.7ZM43.82 30.45c.37 0 .66-.06.66-.13s-.3-.13-.66-.13c-.37 0-.66.06-.66.13s.3.13.66.13ZM46.45 31.64a.35.35 0 0 0 .02.21c.02.05.05.07.1.08.06 0 .13-.01.2-.04a.14.14 0 0 1 .16.03c.05.04.06.1.03.15-.08.2-.21.36-.4.49a.21.21 0 0 1-.22.01.2.2 0 0 1-.12-.19l.02-.58.02-.17c0-.05.03-.07.08-.07s.1.03.11.08Z" fill="#0A020A" /><path d="M36.04 33.13c.2-.13.18-.23-.05-.29l-.16-.04c-.43-.08-.63-.24-.6-.47.02-.3.2-.44.55-.44.35 0 .56.12.65.4.01.04 0 .07-.05.08-.14.04-.24 0-.31-.11a.2.2 0 0 0-.11-.09c-.15-.05-.28-.03-.4.06-.11.1-.1.18.06.22.17.05.35.1.53.13.2.05.32.17.33.38 0 .2-.08.34-.27.41-.2.07-.4.09-.62.03-.25-.06-.38-.2-.38-.4 0-.04.02-.06.06-.06h.13c.05 0 .09.02.11.06.16.22.34.26.53.13ZM20.63 32.36c-.09.29-.15.57-.2.86-.02.09-.06.14-.13.17a.25.25 0 0 1-.2.01.1.1 0 0 1-.06-.08l-.23-.98-.02-.01h-.04v.01c.02.33.04.66.03 1 0 .04-.02.06-.07.06h-.16c-.05 0-.07-.03-.07-.08v-1.3c0-.06.03-.1.1-.1h.27c.06 0 .1.03.12.09l.22.95c.02.1.04.1.06 0l.23-.98c.01-.04.04-.06.09-.06h.33c.04 0 .05.02.05.05v1.31c0 .08-.03.12-.1.13h-.06c-.09.01-.13-.02-.13-.1l.01-.95c0-.1-.01-.1-.04 0ZM23.37 32.5H24c.03 0 .05.02.05.06l.01.14c0 .04-.02.06-.06.06h-.63c-.04 0-.06.01-.06.05v.27c0 .04.02.05.06.05h.72c.05 0 .07.02.07.05v.16c0 .04-.03.06-.07.06h-1.03c-.04 0-.06-.01-.06-.05v-1.37c0-.04.02-.06.06-.06h1c.04 0 .06.03.06.06v.16c0 .04-.02.06-.06.06l-.7-.01c-.03 0-.05.02-.05.06v.2c0 .03.02.05.06.05ZM26.8 32.28v1.02c0 .06-.04.1-.11.1h-.11c-.08 0-.12-.04-.12-.1l.01-1.04c0-.05-.02-.07-.08-.07h-.35c-.04 0-.05-.01-.05-.05L26 32c0-.04.02-.06.07-.06h1.07c.05 0 .09.01.1.06.05.1.03.16-.06.2a.12.12 0 0 1-.1.01.43.43 0 0 0-.22 0c-.04 0-.07.03-.07.08ZM29.4 33.18l-.06.14c-.02.05-.05.08-.1.08h-.2c-.04 0-.05-.02-.04-.06l.5-1.33a.11.11 0 0 1 .08-.07.6.6 0 0 1 .25-.01c.04 0 .07.03.09.07l.5 1.34c.01.05 0 .07-.06.07h-.2c-.07 0-.1-.03-.11-.09l-.04-.15c0-.04-.04-.07-.09-.07h-.38c-.07-.01-.11.02-.14.08ZM32.67 33.14l.64-.01c.04 0 .06.01.06.05v.16c0 .04-.02.06-.06.06h-.96c-.04 0-.06-.01-.06-.05v-1.36c0-.04.01-.06.05-.06h.2c.04-.01.06 0 .06.05v1.1c0 .04.03.06.07.06Z" fill="#fff" /><path d="m29.81 32.85-.23-.02c-.05 0-.07-.03-.05-.07l.12-.35c.04-.12.08-.12.12 0l.1.36c.02.06 0 .08-.06.08ZM45.74 33.93l-.12.08a.14.14 0 0 0-.05.1c-.02.1-.08.14-.2.15-.1.01-.17.08-.16.2 0 .34-.1.7-.3 1.09a.08.08 0 0 1-.07.04.74.74 0 0 1-.42-.12.24.24 0 0 1-.11-.16c-.07-.33 0-.6.2-.8.1-.09.15-.2.18-.33.01-.05.04-.07.09-.07h.14c.05 0 .09-.02.12-.06l.32-.34a.08.08 0 0 0 .02-.1c-.02-.04-.05-.05-.1-.05a.85.85 0 0 0-.4.12c-.08.05-.13.03-.14-.07-.04-.2 0-.32.13-.32.23-.04.45-.09.67-.15.14-.04.26-.09.36-.16.14-.09.32-.13.55-.11.13 0 .15.06.08.15l-.63.79a.34.34 0 0 1-.1.08l-.06.04Z" fill="#0A020A" /><path d="m47.48 35.03-.24.17a.56.56 0 0 1-.12.07l-2.02.82a.73.73 0 0 0-.5.09.26.26 0 0 1-.13.03c-.15 0-.3 0-.46.03-.19.04-.36.06-.53.06l-3.23.01c-.06 0-.08-.02-.07-.07 0-.04-.02-.06-.06-.06-.15-.02-.31 0-.5.04v-.01l-.01-.03.66-.15.12.01c.08.03.09.06.01.1-.02.02-.02.04 0 .07a.1.1 0 0 0 .08.04l3.64-.06c.07 0 .12-.02.18-.05.04-.03.1-.04.16-.04.03 0 .07 0 .1-.02l.75-.18a.14.14 0 0 0 .1-.07.11.11 0 0 1 .1-.06l.11-.01.62-.26a.44.44 0 0 0 .18-.13c.05-.07.12-.1.21-.08.06.01.1-.01.1-.07v-.02a.09.09 0 0 1 .04-.03c.12-.03.22-.09.3-.16.02-.02.05-.03.08 0 .09.06.2.07.33.02Z" fill="#2C323C" /><path d="M47.23 35.6c0-.06-.03-.1-.1-.09a.06.06 0 0 0-.04.03l-.14.2a.21.21 0 0 1-.1.07c-.1.03-.19.07-.28.12-.09.05-.19.1-.28.12l-1.58.46c-.3-.03-.58 0-.86.08l-.54.03-10.6-.04-.15-.01c-.1-.02-.25-.03-.43-.04-.84-.01-1.69 0-2.53.05l-4.79-.1a89.6 89.6 0 0 1 5.88-.11c.62.01 1.03 0 1.23-.02.05-.01.1-.05.14-.1.1-.11.16-.13.2-.07 0 .14.09.21.24.21 1.59.03 2.93.03 4.03.01.05 0 .1-.02.15-.05a.16.16 0 0 1 .08-.04c.48-.05.93-.04 1.37.03.16.03.33.02.5 0l.51-.1h.58c.12-.02.22 0 .3.05.03.02.07.03.12.03a3468.27 3468.27 0 0 0 2.91 0c.7 0 1.38-.07 2.05-.23l2.02-.82a.55.55 0 0 0 .12-.07l.24-.17c.04.18-.04.37-.25.58Z" fill="#404752" /><path d="M47.23 35.6c-.21.32-.5.57-.85.78.05-.07.07-.12.06-.13-.04-.07-.1-.08-.18-.04a.04.04 0 0 0-.02.03c0 .03-.02.05-.05.06-.56.22-1.15.33-1.77.34l.3-.13a196 196 0 0 1 1.57-.46c.1-.03.19-.07.28-.12l.28-.12a.21.21 0 0 0 .1-.08l.14-.2a.06.06 0 0 1 .04-.02c.07 0 .1.03.1.1Z" fill="#9599A2" /><path d="m36.04 35.92 1.66.05c.05 0 .1.02.13.03.14.05.29.05.45 0-.35.25-.74.3-1.16.18-.18-.05-.3-.08-.35-.07-.27.03-.52-.03-.73-.19ZM32.4 35.91c.03.02.05.05.08.1.02.04.05.06.1.06 1.08-.04 2.16 0 3.25.08l-3.43.04c-.05 0-.08-.02-.08-.07-.03-.11 0-.18.07-.2Z" fill="#1A2029" /><path d="m13.36 36.46-1.1-.02c-.14-.01-.28-.03-.4-.07a1.32 1.32 0 0 0-.43-.07 18.28 18.28 0 0 1-1.68-.03.1.1 0 0 0 0 .03c-.01.02 0 .02.01.02a.75.75 0 0 1 .37-.04c.01 0 .01 0 0 0a5.22 5.22 0 0 0 .03.03 2.9 2.9 0 0 0-.26-.01c-.06 0-.08.02-.07.08 0 .03.02.06.05.1a.45.45 0 0 1-.25-.2c-.03-.06-.01-.1.05-.1.04-.02.08-.01.11.02l.09.03c.58-.03 1.2-.03 1.85-.03.1 0 .25.02.44.07l.17.03c.03 0 .04.02.04.05 0 .04.02.05.06.05h.88c.03 0 .05.02.04.06Z" fill="#2C323C" /><path d="M46.38 36.38c-.67.39-1.43.51-2.3.37-.1-.03-.04-.06.17-.11a5.07 5.07 0 0 0 1.95-.34c.02-.01.04-.03.04-.06 0-.01 0-.02.02-.03.08-.04.14-.03.18.04.01.01 0 .06-.06.13Z" fill="#ADB1BB" /><path d="M13.36 36.46c0-.02.01-.02.02.02l-2.18.06c-.2-.05-.37-.06-.51-.04a.2.2 0 0 0-.1.05.08.08 0 0 0-.03.1l.02.07-.7-.24a.3.3 0 0 1-.05-.1c-.01-.06 0-.08.07-.08a2.87 2.87 0 0 1 .26.01l-.03-.02c.01 0 .01 0 0 0a.75.75 0 0 0-.37.03c-.02 0-.02 0-.02-.02l.01-.03.03-.02c.56.05 1.11.06 1.65.05.14 0 .28.02.42.07.13.04.27.06.41.07l1.1.02Z" fill="#404752" /><path d="M32.06 36.24c-.05.06-.1.1-.14.11-.37.02-.93.01-1.67-.02-.57-.02-1.38-.01-2.44.02a180.77 180.77 0 0 1-2.62.03c0-.02.01-.03.03-.03 1.41-.07 2.82-.11 4.24-.12l1.3.06c.42.01.86 0 1.3-.05Z" fill="#2C323C" /><path d="M13.38 36.48h11.43l4.79.1c.14 0 .22.03.23.06.01.08-.02.12-.11.12H11.54a.11.11 0 0 0-.05-.08c-.07-.04-.07-.07.01-.08h.16c.09 0 .15 0 .19-.02.06-.02.06-.03 0-.03l-.65-.01 2.18-.06Z" fill="#9599A2" /><path d="m11.2 36.54.64.01c.07 0 .07.01 0 .03a.61.61 0 0 1-.18.01h-.16c-.08.02-.08.05-.01.1.02 0 .04.03.05.06l-.96-.03-.02-.08a.08.08 0 0 1 .02-.09.2.2 0 0 1 .1-.05c.15-.02.32 0 .52.04ZM44.71 36.51l-.3.13a.4.4 0 0 0-.16 0l-.4-.05c.28-.09.56-.11.86-.08ZM43.31 36.62c-.1.07-.13.12-.11.15H28.44l1.28-.01c.09 0 .12-.04.1-.12 0-.03-.08-.05-.22-.06a32.62 32.62 0 0 1 2.96-.01l.15.01 10.6.04Z" fill="#7E7B7E" /><path d="m43.85 36.59.4.05c-.21.05-.27.08-.17.12l-.88.01c-.02-.03.01-.08.1-.15l.55-.03Z" fill="#9599A2" /></svg>