<?xml version='1.0' encoding='utf-8'?>
<!-- by TradeStack -->
<svg width="56" height="56" viewBox="0 0 56 56" xmlns="http://www.w3.org/2000/svg"><path fill="#465E82" d="M0 0h56v56H0z" /><path d="M16.02 17c.42.1.73.27.92.52.21.28.26.63.15 1.06-.23.84-.7 1.45-1.43 1.83-.09.04-.15.01-.18-.09a.13.13 0 0 1 0-.1c.04-.1.1-.18.17-.25a16.14 16.14 0 0 0 .62-.7c.17-.26.27-.5.3-.74a.65.65 0 0 0-.17-.5.57.57 0 0 0-.47-.21c-.4 0-.77.12-1.1.32-.39.23-.63.52-.73.88 0 .03 0 .06.02.08.02.02.04.03.07.03l.17-.01c.08-.01.14.02.19.1a.2.2 0 0 1 0 .22c-.22.35-.55.62-1 .83-.2.08-.36.07-.5-.03s-.2-.27-.21-.49c0-.28.05-.54.16-.77A3.41 3.41 0 0 1 15.68 17h.34Zm9.36 8.35h-1.15c-.2-.02-.33-.08-.42-.19-.1-.12-.1-.26-.02-.43a.63.63 0 0 1 .58-.39c.57-.02 1.19-.02 1.85 0 .42.02.6.28.52.8l-.23 1.42c-.05.34-.3.62-.76.85-.73.36-1.47.56-2.2.59-.9.03-1.62-.17-2.16-.6-.58-.46-.9-1.15-.93-2.05a4.7 4.7 0 0 1 .78-2.76c.4-.6.95-1.02 1.62-1.3a4.42 4.42 0 0 1 2.07-.27c.47.04.87.18 1.21.4.4.26.63.6.73 1.02a.8.8 0 0 1-.4.9c-.16.07-.3.09-.46.04-.16-.05-.28-.17-.37-.36a2 2 0 0 0-.45-.67c-.2-.17-.44-.27-.73-.29a2.16 2.16 0 0 0-2.01.92c-.45.6-.65 1.36-.61 2.24.03.95.45 1.5 1.23 1.67.65.14 1.38 0 2.18-.4a.12.12 0 0 0 .07-.1l.14-.95c.01-.06-.01-.1-.08-.1Zm-11.17-3.68.18-.07a.15.15 0 0 1 .17.04c.3.29.49.63.57 1.01.08.3.1.72.05 1.24-.03.42-.16.8-.38 1.13a2.5 2.5 0 0 1-.96.85c-.46.23-.85.18-1.16-.14-.42-.44-.59-1.07-.51-1.9a6.7 6.7 0 0 1 .54-1.99c.05-.12.15-.28.3-.49.1-.12.18-.22.22-.3.03-.04.03-.09.01-.14a.15.15 0 0 0-.1-.09c-.17-.04-.42.13-.74.52a5.01 5.01 0 0 0-.94 1.87c-.2.75-.24 1.46-.11 2.12.1.48.33.9.72 1.27.41.38.84.55 1.3.51a2.6 2.6 0 0 0 1.19-.48c.4-.28.73-.57.95-.89.36-.5.62-1.11.8-1.85.14-.64.18-1.17.1-1.6-.09-.54-.36-.99-.8-1.35-.32-.27-.64-.35-.96-.24-.3.1-.53.35-.66.75a.17.17 0 0 0 .04.19c.05.05.11.06.18.03Zm23.6 3.63c-.02.1 0 .11.08.05l2.34-2.2c.1-.08.22-.13.35-.14.14-.01.26.02.37.1.13.1.09.33-.12.72a.16.16 0 0 1-.04.05l-1.37 1.17c-.04.03-.05.08-.02.13.41.76.8 1.5 1.16 2.22.1.2.12.37.07.54a.5.5 0 0 1-.28.3.53.53 0 0 1-.42.03.58.58 0 0 1-.35-.33c-.28-.62-.61-1.32-.98-2.08-.02-.05-.05-.05-.09-.02l-.76.66a.45.45 0 0 0-.15.28l-.15.98a.59.59 0 0 1-.44.52c-.18.05-.32.02-.43-.09-.1-.1-.15-.25-.12-.44.2-1.44.42-2.85.63-4.23a.51.51 0 0 1 .08-.2c.14-.22.3-.33.48-.32.33.01.47.2.42.58-.08.62-.17 1.2-.26 1.72Zm-4.27-1.33a1.2 1.2 0 0 1 1.17-.09c.23.1.43.36.6.79.07.19.2.26.42.21a.5.5 0 0 0 .36-.28c.07-.14.08-.3.03-.46-.14-.51-.5-.86-1.08-1.03a2.4 2.4 0 0 0-1.54.04c-1 .35-1.6 1.09-1.84 2.2a2.7 2.7 0 0 0 .1 1.59c.22.54.6.87 1.17.99a2.8 2.8 0 0 0 1.69-.13 2.1 2.1 0 0 0 1.16-1.16.96.96 0 0 0 .07-.28c.02-.22-.07-.34-.28-.38-.21-.03-.37.03-.47.2l-.22.36a1.36 1.36 0 0 1-1.38.67c-.51-.06-.8-.36-.9-.9-.06-.4 0-.87.19-1.38.15-.43.4-.75.75-.96Zm-4.99 3.23h2.3c.2 0 .32.1.34.3.02.16-.09.3-.33.44a.37.37 0 0 1-.19.05h-2.8c-.34 0-.48-.2-.42-.59l.59-3.88c.02-.16.1-.3.21-.39.11-.09.25-.13.41-.13h2.76c.2 0 .31.1.32.32.01.16-.07.3-.25.4a.3.3 0 0 1-.16.06h-2.28c-.04 0-.07.02-.07.06l-.18 1.12c0 .03 0 .05.04.05h2.1c.19 0 .3.1.3.3.01.13-.03.25-.13.35a.33.33 0 0 1-.25.11h-2.12c-.04 0-.07.03-.07.07l-.2 1.27c0 .06.02.09.08.09Zm-10.9-3.32c.09.03.12.08.09.16-.03.1-.1.16-.22.2-.07.02-.19.03-.36.04-.16 0-.28.02-.35.04-.11.04-.18.1-.21.19-.04.1 0 .16.09.2.21.08.55.1 1 .06l.14-.02a2.7 2.7 0 0 0 1.08-.34c.39-.22.66-.49.81-.8a.34.34 0 0 0-.11-.44 1.58 1.58 0 0 0-.83-.18c-.56 0-1.04.14-1.44.44a.2.2 0 0 0-.08.2.2.2 0 0 0 .14.17l.26.08Zm27.7 3.06c.43-.58.64-1.28.61-2.1-.02-.72-.31-1.24-.87-1.55a2.65 2.65 0 0 0-1.85-.22c-.92.18-1.57.7-1.96 1.55-.2.43-.3.86-.31 1.28-.02.43.06.8.23 1.13.18.34.45.6.8.76.39.18.86.25 1.4.2a2.65 2.65 0 0 0 1.94-1.05Zm-2.55.24c-.73-.27-1-1.25-.64-2.17.38-.93 1.27-1.46 2-1.18.72.27 1 1.24.63 2.17-.38.92-1.27 1.45-2 1.18ZM8 32.78v.89l.13.99c.01.1.06.2.15.3.03.04.07.05.12.05.07-.02.1-.06.1-.13 0-.87.06-1.58.17-2.16a11.07 11.07 0 0 1 2.99-5.79c.04-.04.04-.08 0-.12a2.45 2.45 0 0 1-.57-.94c-.02-.06-.05-.06-.1-.02a11.64 11.64 0 0 0-2.8 5.82L8 32.77ZM9.81 36h-.34c.23-.2.44-.33.64-.38.35-.1.8-.19 1.34-.24l2-.23c.33-.04.61-.14.85-.3.29-.21.4-.47.36-.79a10.7 10.7 0 0 0-.11-.65c-.39-1.9-.65-3.3-.78-4.2-.1-.6.02-1.17.34-1.7a.23.23 0 0 1 .13-.1c.02 0 .05 0 .07.02.02.02.03.04.03.07-.04.5-.06.9-.06 1.15 0 .43.06.8.15 1.13.4 1.5.8 2.67 1.17 3.54.34.8.66 1.58.96 2.34a.1.1 0 0 1-.01.1.1.1 0 0 1-.09.05L9.81 36Zm9.7 0h.02l.63-.07c.65-.08 1.2-.32 1.65-.71.47-.42.75-.95.83-1.58.1-.8-.3-1.36-1.18-1.64-.48-.16-.97-.3-1.46-.43-.2-.06-.38-.14-.56-.27a.48.48 0 0 1-.21-.47c.02-.18.1-.34.25-.48.4-.35.91-.46 1.56-.32.16.03.3.12.4.27.06.09.13.23.22.44.07.19.14.32.19.38.08.11.19.17.31.16.42-.01.68-.22.76-.61.07-.37-.01-.7-.27-1-.34-.41-.87-.63-1.6-.66a4 4 0 0 0-1.74.29c-.42.17-.75.42-1 .77-.25.35-.39.75-.4 1.19 0 .32.1.6.3.85.2.22.45.4.77.5.47.17.95.32 1.44.43.27.07.5.19.68.38.17.18.2.4.1.68-.1.25-.25.44-.47.58-.47.3-.99.37-1.54.24a.78.78 0 0 1-.5-.36c-.06-.1-.13-.29-.2-.54-.06-.2-.1-.33-.15-.4a.39.39 0 0 0-.28-.2c-.32-.06-.56.05-.73.32-.15.24-.18.52-.1.83.15.53.43.9.86 1.12.3.15.77.25 1.43.31Zm5.5-3.02c.01.04.04.04.07 0l1.51-1.78c.09-.1.19-.15.31-.17.13-.03.25-.01.36.05l.06.05c.11.18.1.37-.07.56a88.2 88.2 0 0 1-1.75 2.02c-.1.1-.16.22-.19.36l-.26 1.35a.73.73 0 0 1-.44.54.38.38 0 0 1-.2.04c-.3-.02-.44-.2-.38-.51a31 31 0 0 1 .28-1.44.5.5 0 0 0-.04-.34c-.3-.61-.6-1.25-.89-1.91a.57.57 0 0 1-.02-.45.53.53 0 0 1 .25-.29.46.46 0 0 1 .36-.04c.13.04.23.13.3.28l.74 1.68ZM49 32.1v-.09a1.06 1.06 0 0 0-.77-.88 2.6 2.6 0 0 0-1.68.02c-.63.22-1.01.61-1.14 1.18-.1.45 0 .8.32 1.03.18.14.53.28 1.04.42.4.1.66.2.79.3.2.13.26.33.16.59-.12.3-.4.5-.83.58-.65.12-1.03-.12-1.12-.72a.48.48 0 0 0-.2-.34c-.12-.08-.25-.07-.39 0-.27.16-.37.4-.3.75.1.47.37.78.82.93.5.16 1.02.17 1.55.04a2 2 0 0 0 1.26-.87c.17-.27.26-.55.26-.85a.9.9 0 0 0-.37-.78 3.94 3.94 0 0 0-1.2-.48 14.3 14.3 0 0 1-.4-.11.83.83 0 0 1-.4-.24c-.12-.14-.12-.29-.02-.45.25-.37.65-.5 1.22-.4.22.05.39.26.52.65.04.13.12.21.23.25a.4.4 0 0 0 .35-.06c.15-.1.25-.25.3-.47Zm-19.16 2.5c.07-.23 0-.4-.2-.54a3.26 3.26 0 0 0-.77-.28c-.54-.15-.9-.3-1.09-.46-.31-.26-.38-.65-.22-1.15.18-.52.57-.87 1.19-1.05.55-.17 1.1-.16 1.62.03a1 1 0 0 1 .66.64c.06.19.06.37-.02.53a.55.55 0 0 1-.42.32c-.18.03-.3-.04-.36-.2l-.01-.05a2 2 0 0 0-.2-.43.54.54 0 0 0-.38-.24c-.3-.04-.56-.01-.8.09-.3.12-.44.33-.43.61 0 .04.02.08.04.11.13.15.3.26.5.31l.2.05c.68.17 1.13.35 1.35.53.39.32.46.78.21 1.39-.19.47-.55.81-1.08 1.01a2.9 2.9 0 0 1-1.53.13c-.57-.1-.93-.4-1.09-.9a.84.84 0 0 1 0-.57c.08-.19.23-.3.45-.33.08-.02.16 0 .23.05.07.04.11.1.13.19.05.18.1.35.17.51.08.2.24.31.48.36.2.04.4.03.63-.02.39-.1.63-.3.74-.64Zm6.53.6c-.05 0-.06-.03-.06-.07l.23-1.26c.01-.06.05-.09.1-.09h1.9c.05 0 .09-.01.13-.03.31-.11.46-.26.45-.43-.01-.2-.11-.3-.3-.3h-2.08c-.03 0-.04-.01-.03-.04l.21-1.14c.01-.03.03-.05.07-.05h2.2c.24 0 .4-.13.48-.37a.27.27 0 0 0 .01-.1c-.01-.2-.11-.3-.3-.3a85.6 85.6 0 0 0-2.72 0c-.37 0-.6.2-.67.6l-.71 3.77c-.03.15-.02.3.03.44.02.05.05.08.09.1.1.05.22.07.35.07h2.72c.26 0 .42-.13.5-.38a.27.27 0 0 0 0-.1c0-.22-.12-.33-.33-.33h-2.27Zm4.67-2.92c-.01-.16-.03-.16-.06 0-.19 1.1-.4 2.22-.64 3.34-.03.16-.17.28-.4.36-.16.05-.28.02-.38-.09-.08-.1-.11-.23-.08-.39.26-1.34.5-2.66.76-3.96.05-.28.23-.45.53-.52.18-.03.45-.03.79.02.16.02.24.11.25.28l.2 2.84c.02.14.05.15.1.02l1.22-2.69c.13-.3.32-.46.56-.47h.06c.3-.03.52-.02.66.01.24.07.34.23.3.48a2865.72 2865.72 0 0 0-.76 3.89c-.15.41-.34.6-.55.59-.29-.03-.4-.19-.35-.49a320.15 320.15 0 0 1 .63-3.34h-.04c-.46 1.08-.96 2.22-1.5 3.41a.71.71 0 0 1-.63.42c-.3 0-.46-.2-.48-.57a93 93 0 0 0-.19-3.14Zm-9.33-.46h1.06c.06 0 .08.03.07.1l-.67 3.53c-.04.17 0 .32.09.43.1.12.24.15.4.1a.65.65 0 0 0 .48-.54l.67-3.54c0-.05.04-.08.08-.08h1.13c.1 0 .19-.04.26-.1.18-.18.24-.37.16-.56a.24.24 0 0 0-.24-.16H31.9c-.06 0-.11.01-.16.04-.25.14-.37.3-.36.46.02.22.13.32.34.32Z" fill="#EFE5CD" /></svg>