<!-- by TradeStack --><svg width="56" height="56" viewBox="0 0 56 56" xmlns="http://www.w3.org/2000/svg"><path fill="#F0F3FA" d="M0 0h56v56H0z"/><path d="M27.86 45C37.33 45 45 37.39 45 28s-7.67-17-17.14-17c-6.24 0-11.7 3.3-14.7 8.23 2.26-.57 8.15-2.03 10.32-2.03.33 0 .77-.06 1.3-.13 3.4-.45 11.12-.43 15.43 10.93l-5.32 1.06c-4.48.28-15.43.15-22.89 5.4A17.15 17.15 0 0 0 27.86 45Z" fill="#F0CB20"/><path d="M25.95 42.88C34.2 42.88 41 36.17 41 28a15.02 15.02 0 0 0-27-8.9c1.7-.28 4.92-.66 7.58-.66-1.29.46-4.88 1.92-5.95 2.98 1.77-.67 6-1.64 8.02-1.92.89.12 2.98.45 4.32 1.06-2.46.66-8.2 2-10.77 3.6a59.1 59.1 0 0 1 13.96-2.54l3.04 1.57c-3.36.28-11.12 1.57-15.83 4.19A69.12 69.12 0 0 1 30.72 26h7.1l1.86 2h-5.1c-4.4.27-14.76 1.15-22.2 6.2a15 15 0 0 0 13.57 8.67Z" fill="url(#a)"/><defs><linearGradient id="a" x1="38.9" y1="35.43" x2="22.24" y2="20.25" gradientUnits="userSpaceOnUse"><stop stop-color="#6793B0"/><stop offset=".26" stop-color="#87AAC4"/><stop offset=".69" stop-color="#2C6E91"/><stop offset="1" stop-color="#015B7E"/></linearGradient></defs></svg>