<?xml version='1.0' encoding='utf-8'?>
<!-- by TradeStack -->
<svg width="56" height="56" viewBox="0 0 56 56" xmlns="http://www.w3.org/2000/svg"><path fill="#F0F3FA" d="M0 0h56v56H0z" /><path fill-rule="evenodd" d="M9.23 25.64c-.22-.21-.89-.64-1.74-.64C6.44 25 5 25.74 5 27.57 5 29.39 6.49 30 7.5 30c.8 0 1.49-.34 1.73-.5v-2.17H7.7V28h.75v1.1a2.5 2.5 0 0 1-.96.24c-.47 0-1.66-.33-1.66-1.77s.96-1.88 1.66-1.88c.57 0 1.1.32 1.3.48l.44-.53Zm.97-.64v5h.8v-2.02h.64l1.3 2.02h.93l-1.4-2.09c.58-.19 1-.75 1-1.42 0-.82-.64-1.49-1.42-1.49H10.2Zm1.72.74H11v1.63h.92a.8.8 0 0 0 .77-.82.8.8 0 0 0-.77-.81ZM14 30v-5h3v.72h-2.18v1.4h1.75v.64h-1.75v1.49H17V30h-3Zm4-5v5h3v-.75h-2.18v-1.49h1.75v-.63h-1.75v-1.41H21V25h-3Zm4 0v5h.75v-3.5L25.4 30H26v-5h-.73v3.5L22.65 25H22Zm6 0v5h1.76c.55-.02 1.64-.37 1.64-1.54 0-.69-.65-1-.97-1.06.27-.08.82-.44.82-1.18 0-.93-1.02-1.22-1.7-1.22H28Zm.79.74h1.05c.35 0 .64.31.64.7 0 .38-.29.69-.64.69h-1.05v-1.39Zm0 2.03h1.13c.39 0 .7.33.7.75 0 .41-.31.75-.7.75H28.8v-1.5ZM32.25 30v-5h1.8c.75 0 1.37.67 1.37 1.5 0 .65-.4 1.23-.95 1.43L35.8 30h-.9l-1.25-2H33v2h-.75Zm.75-4.26h.91c.42 0 .76.36.76.82 0 .45-.34.81-.76.81H33v-1.63ZM45.36 25c.8 0 1.43.43 1.64.64l-.41.53c-.2-.16-.7-.48-1.23-.48-.67 0-1.58.44-1.58 1.88s1.13 1.77 1.58 1.77c.35 0 .74-.16.9-.24V28h-.7v-.62H47v2.11c-.23.17-.89.51-1.64.51-.95 0-2.36-.6-2.36-2.43S44.36 25 45.36 25ZM48 30h3v-.75h-2.17v-1.49h1.75v-.63h-1.75v-1.41H51V25h-3v5Zm-11.2-5H36v5h.8v-5Zm1.4 0v5h1.73c1.25 0 2.27-1.12 2.27-2.5S41.18 25 39.93 25H38.2Zm.8.7v3.6h.9c.9 0 1.64-.81 1.64-1.8s-.73-1.8-1.63-1.8H39Z" /></svg>