<?xml version='1.0' encoding='utf-8'?>
<!-- by TradeStack -->
<svg width="56" height="56" viewBox="0 0 56 56" xmlns="http://www.w3.org/2000/svg"><path fill="#F0F3FA" d="M0 0h56v56H0z" /><path d="M11 29.86c0-1.75 1.28-3.68 1.92-4.42L11.17 24h7.03l3.18 6.46-1.83-1.3a85.9 85.9 0 0 0-1.98 2.06c-.54.6-.43 1.46-.31 1.82-3.27.17-6.26-1-6.26-3.18Z" fill="url(#anin2qt5j)" /><path d="M16.03 35c-2.34 0-3.62-1.6-3.96-2.03 1.32 2.43 4.07 7.38 5 8.28.93.9 2.36.75 2.7.75H27v-7H16.03Z" fill="url(#bnin2qt5j)" /><path d="m21.93 23.6-6.58-3.49c.9-1.2 2.88-3.9 3.64-5.12.94-1.52 1.75-2.6 3.35-2.6 1.27 0 3.9 2.37 5.06 3.56l-5.47 7.65Z" fill="url(#cnin2qt5j)" /><path d="M26.79 13.74c-1.32-1.37-2.44-1.73-2.83-1.74h8.21c1.78 0 2.68.66 2.9 1l2.4 3.41 2.52-1.81-3.63 6.4h-7.49s1.54-.71 2.32-1.33a53.1 53.1 0 0 0-4.4-5.93Z" fill="url(#dnin2qt5j)" /><path d="m39.92 33.82-5.72-8.17 6.2-4.1 4.2 6.56c.62.98.51 2.24-.27 3.1l-1.57 1.74c-.5.55-1.22.87-1.98.87h-.86Z" fill="url(#enin2qt5j)" /><path d="M40.52 35c2.26 0 2.27-.8 2.78-1.35-.7 1.48-2.38 4.9-3.55 6.7C38.6 42.18 37.7 42 36.85 42H34v2l-4.76-5.9L34 32.22V35h6.52Z" fill="url(#fnin2qt5j)" /><defs><linearGradient id="anin2qt5j" x1="11" y1="31.77" x2="20.09" y2="25.5" gradientUnits="userSpaceOnUse"><stop stop-color="#7BC2DE" /><stop offset="1" stop-color="#4D9EB9" /></linearGradient><linearGradient id="bnin2qt5j" x1="26.2" y1="37.66" x2="15.71" y2="37.66" gradientUnits="userSpaceOnUse"><stop stop-color="#54A3C7" /><stop offset="1" stop-color="#A0DCFE" /></linearGradient><linearGradient id="cnin2qt5j" x1="27.4" y1="16.17" x2="17.5" y2="20.72" gradientUnits="userSpaceOnUse"><stop stop-color="#50A4C4" /><stop offset="1" stop-color="#7AC9E8" /></linearGradient><linearGradient id="dnin2qt5j" x1="31.97" y1="12" x2="31.97" y2="21.52" gradientUnits="userSpaceOnUse"><stop stop-color="#4699BB" /><stop offset="1" stop-color="#489EB9" /></linearGradient><linearGradient id="enin2qt5j" x1="34.2" y1="26.57" x2="42.44" y2="28.8" gradientUnits="userSpaceOnUse"><stop stop-color="#3881A4" /><stop offset="1" stop-color="#7FCAE4" /></linearGradient><linearGradient id="fnin2qt5j" x1="30.35" y1="39.01" x2="43.28" y2="41.48" gradientUnits="userSpaceOnUse"><stop stop-color="#519EBC" /><stop offset="1" stop-color="#7ECBE7" /></linearGradient></defs></svg>