<?xml version='1.0' encoding='utf-8'?>
<!-- by TradeStack -->
<svg width="56" height="56" viewBox="0 0 56 56" xmlns="http://www.w3.org/2000/svg"><path fill="#F0F3FA" d="M0 0h56v56H0z" /><path d="M10.68 24H9l4.32 8H15l-4.32-8Zm-3.25 3H9l-2.43 5H5l2.43-5ZM16 24h1.5v6.5H24l-.83 1.5H16v-8Zm8.79 0L24 25.5h8.21l.8-1.5h-8.22ZM24 27l.79 1.5H33l-.79-1.5H24Zm0 5 .79-1.5h6.76v-2H33v2l-.79 1.5H24Zm10-7.18V24h8l-.77 1.5H35.5V27H40v1.5h-4.5v2h5.73L42 32h-8v-7.18Zm9.79-.82L43 25.5h3V32h1.5v-6.5h2.71L51 24h-7.21Z" fill="#1A1A1A" /></svg>