<?xml version='1.0' encoding='utf-8'?>
<!-- by TradeStack -->
<svg width="56" height="56" viewBox="0 0 56 56" xmlns="http://www.w3.org/2000/svg"><path fill="#F0F3FA" d="M0 0h56v56H0z" /><path d="M23 39.19c0-.1.08-.19.19-.19h4.62a.19.19 0 1 1 0 .37H23.2a.19.19 0 0 1-.19-.18ZM24 40.19c0-.1.08-.19.19-.19h2.62a.19.19 0 1 1 0 .37H24.2a.19.19 0 0 1-.19-.18ZM25 41.27c0-.1.08-.27.19-.27h.62c.1 0 .19.16.19.27 0 .1-.08.23-.19.23h-.62c-.1 0-.19-.13-.19-.23Z" fill="#FF8E3B" /><circle cx="39" cy="27" r="1" fill="#000359" /><circle cx="5" cy="27" r="1" fill="#000359" /><path d="M4.88 25.8c-.3.26-.4.5-.4.7 0 .2.1.44.4.7a5 5 0 0 0 1.32.76c1.18.5 2.9.95 5.04 1.34 4.28.77 10.2 1.25 16.76 1.25 6.55 0 12.48-.48 16.76-1.25 2.14-.39 3.86-.84 5.04-1.34a5 5 0 0 0 1.32-.77c.3-.25.4-.48.4-.69 0-.2-.1-.44-.4-.7a5 5 0 0 0-1.32-.76c-1.18-.5-2.9-.95-5.04-1.34A99.76 99.76 0 0 0 28 22.45c-6.55 0-12.48.48-16.76 1.25-2.14.39-3.86.84-5.04 1.34a5 5 0 0 0-1.32.77Zm6.27-2.54C15.47 22.48 21.43 22 28 22c6.57 0 12.53.48 16.85 1.26 2.15.38 3.91.85 5.14 1.37.61.26 1.1.54 1.45.84.34.3.56.65.56 1.03s-.22.73-.56 1.03c-.34.3-.84.58-1.45.84a25.3 25.3 0 0 1-5.14 1.37C40.53 30.52 34.57 31 28 31c-6.57 0-12.53-.48-16.85-1.26a25.3 25.3 0 0 1-5.14-1.37 5.45 5.45 0 0 1-1.45-.84c-.34-.3-.56-.65-.56-1.03s.22-.73.56-1.03c.34-.3.84-.58 1.45-.84a25.3 25.3 0 0 1 5.14-1.37Z" fill="#000359" /><path d="M9.7 25.64c-.2.16-.24.28-.24.36 0 .08.04.2.23.36.18.16.47.32.86.48.78.32 1.91.62 3.33.86 2.84.5 6.77.8 11.12.8s8.28-.3 11.12-.8c1.42-.24 2.55-.54 3.33-.86.39-.16.67-.32.86-.48.19-.16.23-.28.23-.36 0-.08-.04-.2-.23-.36a3.28 3.28 0 0 0-.86-.48c-.78-.32-1.91-.62-3.33-.86-2.84-.5-6.77-.8-11.12-.8s-8.28.3-11.12.8c-1.42.24-2.55.54-3.33.86-.39.16-.68.32-.86.48Zm4.11-1.83A68.5 68.5 0 0 1 25 23c4.36 0 8.32.3 11.19.81 1.43.25 2.6.55 3.42.89.41.17.75.35.98.55.24.2.41.45.41.75s-.17.55-.4.75c-.24.2-.58.38-.99.55-.82.34-1.99.64-3.42.89-2.87.5-6.83.81-11.19.81-4.36 0-8.32-.3-11.19-.81-1.43-.25-2.6-.55-3.42-.89a3.7 3.7 0 0 1-.98-.55C9.17 26.55 9 26.3 9 26s.17-.55.4-.75c.24-.2.58-.38.99-.55.82-.34 1.99-.64 3.42-.89Z" fill="#000359" /><circle cx="28" cy="24" r="1" fill="#FF8E3B" /><path d="M29.23 27H26.2L25 38l4.23-11ZM24.9 15 19 27h10.23l.77-2h-7.16l2.07-10Z" fill="#FF8E3B" /></svg>