<?xml version='1.0' encoding='utf-8'?>
<!-- by TradeStack -->
<svg width="56" height="56" viewBox="0 0 56 56" xmlns="http://www.w3.org/2000/svg"><path fill="#F0F3FA" d="M0 0h56v56H0z" /><path d="M26.08 31.7c-.03.01-.04.03-.02.06l.04.07h.01c1.78-.4 4.68-1.2 8.71-2.38a16 16 0 0 0 4.62-2.13 9.83 9.83 0 0 0 3.2-3.2c.78-1.46.52-2.82-.76-4.07a4.38 4.38 0 0 0-1.02-.75c-1.6-.84-3.36-1.4-5.25-1.65a34.24 34.24 0 0 0-10.33.25 49 49 0 0 0-5.43 1.18 29.74 29.74 0 0 0-7.79 3.45l-.04-.12c-.04-.08-.02-.15.06-.2 3.13-2 6.57-3.53 10.33-4.6a40.8 40.8 0 0 1 15.57-1.38c1.92.2 3.71.7 5.38 1.48.69.32 1.28.76 1.76 1.32.55.65.85 1.32.88 2.02.03.86-.17 1.62-.6 2.28a7.04 7.04 0 0 1-1.34 1.52 31.23 31.23 0 0 1-6.57 4.2.5.5 0 0 0-.28.37l-1.78 8.03a.25.25 0 0 1-.2.2c-3.43.7-6.94 1.14-10.55 1.3-3.1.16-5.64-.1-7.62-.8-3.03-1.05-4.37-3.22-4.01-6.5.34-3.12 1.57-5.58 3.7-7.37 1.93-1.64 4.5-2.63 7.68-3 2.84-.32 5.61-.27 8.32.15.9.14 1.79.4 2.66.78 1.92.84 2.74 2.57 2.45 4.64-.02.08-.06.15-.15.15h-7.59c-.07 0-.1-.06-.11-.13-.07-1.16-1.25-2.09-2.3-2.17-2.81-.23-4.87.84-6.16 3.2a7.4 7.4 0 0 0-.85 4.35c.25 1.73 1.2 2.73 2.86 3.01 1.55.27 3.13.16 4.74-.33a.36.36 0 0 0 .26-.29l.5-2.23c.02-.12-.03-.17-.14-.17h-3.93c-.17 0-.2-.06-.07-.17l3.65-3.36c.1-.09.2-.13.33-.13h4.47c.3 0 .32.06.03.17l-7.32 2.95Z" fill="#E21F25" /></svg>