<?xml version='1.0' encoding='utf-8'?>
<!-- by TradeStack -->
<svg width="56" height="56" viewBox="0 0 56 56" xmlns="http://www.w3.org/2000/svg"><path fill="#F0F3FA" d="M0 0h56v56H0z" /><path fill-rule="evenodd" d="M13.18 24c1.22 0 2.27.39 2.65 1.57h2.08c-.37-2.29-2.57-3.57-4.75-3.57C10.02 22 8 24.48 8 27.51 8 30.6 10.04 33 13.22 33c2.63 0 4.78-1.74 4.78-4.46V27h-4.57v2h2.58c-.15 1.4-1.34 2-2.78 2-2.14 0-3.23-1.56-3.23-3.51 0-1.9 1.08-3.49 3.18-3.49ZM19 33V22h3.93c2.12 0 3.57 1.34 3.57 3.52 0 1.5-.69 2.55-1.79 3.08L27 33h-2.12l-2.05-4.03H21V33h-2Zm3.64-5.68H21v-3.66h1.63c1.18 0 1.87.62 1.87 1.86 0 1.24-.69 1.8-1.86 1.8ZM29 33h3.7c3.26 0 5.3-2.31 5.3-5.51 0-3.15-2-5.49-5.23-5.49H29v11Zm3.6-1.72H31v-7.56h1.66c2.28 0 3.34 1.61 3.34 3.77 0 2.2-1.09 3.79-3.4 3.79Zm10.34-.62L40.14 22H38l3.8 11h2.4L48 22h-2.15l-2.8 8.66h-.1Z" /></svg>