<!-- by TradeStack --><svg width="56" height="56" viewBox="0 0 56 56" xmlns="http://www.w3.org/2000/svg"><path fill="#F0F3FA" d="M0 0h56v56H0z"/><path d="M35 26.17c-.02-.97-.35-3.17-3.25-3.17H28v11h1.5v-4.43h1.64L34.13 34H36l-3.37-4.73c1.36-.24 2.4-1.68 2.37-3.1ZM29.5 28v-3.52h1.88c.94 0 2.12.3 2.12 1.7 0 1.13-.73 1.82-2.12 1.82H29.5ZM52 23v1.5h-5.5v3H51V29h-4.5v3.5H52V34h-7V23h7ZM44 23v1.5h-5.5v3H43V29h-4.5v3.5H44V34h-7V23h7ZM24.5 29.5H23V28h3v5.03s-1.42.97-3.74.97C18.44 34 17 30.94 17 28.58 17 25.9 18.74 23 22.12 23c1.68 0 3.21.78 3.88 1.51l-1.05 1.06a4.23 4.23 0 0 0-2.93-1.06c-2.04 0-3.52 2.02-3.52 4.07 0 2.25 1.64 3.92 3.73 3.92.9 0 1.7-.18 2.27-.5v-2.5ZM4 31.75v-6.5L9.5 22l5.5 3.25v6.5L9.5 35 4 31.75Z" fill="#00A0DC"/></svg>