<?xml version='1.0' encoding='utf-8'?>
<!-- by TradeStack -->
<svg width="56" height="56" viewBox="0 0 56 56" xmlns="http://www.w3.org/2000/svg"><path fill="#F0F3FA" d="M0 0h56v56H0z" /><path fill-rule="evenodd" d="M13.18 24c1.22 0 2.27.39 2.65 1.57h2.08c-.37-2.29-2.57-3.57-4.75-3.57C10.02 22 8 24.48 8 27.51 8 30.6 10.04 33 13.22 33c2.63 0 4.78-1.74 4.78-4.46V27h-5v2h3.01c-.15 1.4-1.34 2-2.78 2-2.14 0-3.23-1.56-3.23-3.51 0-1.9 1.08-3.49 3.18-3.49ZM19 33V22h3.99c2.13 0 4.01 1.31 4.01 3.52a3.3 3.3 0 0 1-2.17 3.12l2.3 4.36h-2.15l-2.08-4H21v4h-2Zm3.7-5.68H21v-3.66h1.7c1.18 0 2.3.6 2.3 1.86 0 1.25-1.13 1.8-2.3 1.8ZM33.18 24c1.22 0 2.27.39 2.65 1.57h2.08c-.37-2.29-2.57-3.57-4.75-3.57-3.14 0-5.16 2.48-5.16 5.51C28 30.6 30.04 33 33.22 33c2.63 0 4.78-1.74 4.78-4.46V27h-4.57v2h2.58c-.15 1.4-1.34 2-2.78 2-2.14 0-3.23-1.56-3.23-3.51 0-1.9 1.08-3.49 3.18-3.49ZM40 22v11h2v-4h1.84l2.04 4H48l-2.26-4.35c1.3-.52 2.26-1.6 2.26-3.13 0-2.18-1.95-3.52-4.07-3.52H40Zm2 5.32h1.64c1.17 0 2.36-.56 2.36-1.8s-1.19-1.86-2.37-1.86H42v3.66Z" /></svg>