<!-- by TradeStack --><svg width="56" height="56" viewBox="0 0 56 56" xmlns="http://www.w3.org/2000/svg"><path fill="#F0F3FA" d="M0 0h56v56H0z"/><path fill-rule="evenodd" d="M43 13H12v24.36l1-.15c.62-.1 1.24-.21 1.84-.21 4.05 0 7.03 1.92 10.07 3.88C28.07 42.92 31.29 45 35.83 45c3.1 0 5.97-1.32 6.88-1.74l.29-.12V13Zm-15 7h-1.5v6H28v-6Zm0-2h-1.5v1H28v-1Zm-7 5.14V22h-3v1h1.5v.58c0 .86-.92 1.02-1.5 1.02-.39 0-.77-.1-1.04-.38-.3-.33-.46-.71-.46-2.22 0-1.52.15-1.88.46-2.21.27-.3.6-.39 1-.39.8 0 1.27.38 1.45 1.12h1.58A2.87 2.87 0 0 0 17.96 18c-.81 0-1.6.28-2.17.86-.8.78-.79 1.73-.79 3.04v.1c0 1.35 0 2.34.79 3.14a2.97 2.97 0 0 0 2.17.86c1.69 0 3.04-.94 3.04-2.64v-.22Zm5-2.58c-.39-.41-.6-.56-1.14-.56-.6 0-1.1.3-1.36.64V20H22v6h1.5v-3.58c0-.75.4-1.02.78-1.02.35 0 .43.06.65.29L26 20.56Zm11.49 4.04c.99 0 1.01-.92 1.01-1.7 0-.8-.12-1.5-1.01-1.5-.9 0-.99.7-.99 1.5 0 .78 0 1.7.99 1.7Zm2.5-4.6v5.82H40c0 1.43-.47 3.18-4 3.18v-1.4c2.49 0 2.5-.98 2.5-1.59v-.6c-.4.43-.86.6-1.45.6s-1.1-.2-1.44-.54c-.56-.56-.61-1.54-.61-2.58 0-1.05.05-1.8.61-2.36.34-.34.86-.53 1.46-.53.63 0 1.02.17 1.43.63V20H40Zm-8.5 1.3c-.71 0-.99.51-.99 1.15h2c-.01-.64-.28-1.15-1-1.15Zm2.51 1.5v.66h-3.5c0 .75.36 1.24 1.17 1.24.62 0 .93-.12 1.3-.49l.87.87a2.7 2.7 0 0 1-2.19.92C30.3 26 29 25.37 29 23c0-2 1.01-3 2.5-3 1.6 0 2.5 1.2 2.5 2.8Zm-12.75 6.06c-.1-.24-.33-.35-.58-.36a.62.62 0 0 0-.6.36.9.9 0 0 0-.07.4h1.33a.9.9 0 0 0-.08-.4Zm-1.25.8c0 .51.27.84.75.84.27 0 .54-.11.72-.31l.38.35c-.29.32-.69.46-1.11.46-.74 0-1.33-.39-1.33-1.5 0-.95.5-1.5 1.26-1.5.79 0 1.24.58 1.24 1.4v.27h-1.9Zm3.34.01H24v.24c0 .2-.03.32-.12.4-.15.15-.31.19-.53.19-.36 0-.53-.14-.53-.4 0-.27.18-.43.52-.43ZM24 30.7v.3h.6v-2c0-.66-.41-1-1.2-1-.47 0-.75.1-1.02.42l.38.37c.15-.21.3-.29.62-.29.44 0 .62.18.62.55v.21h-.75c-.65 0-.98.35-.98.84-.01.24.07.46.22.64.18.17.41.26.77.26a.9.9 0 0 0 .74-.3Zm2-2.2V31h-.6v-2.5H25V28h.4v-.21c0-.41.27-.79.81-.79h.39v.49h-.28c-.22 0-.32.12-.32.32V28h.6v.5H26Zm2.2.03a.6.6 0 0 1 .42.16c.18.18.2.49.2.8 0 .33-.02.63-.2.81a.6.6 0 0 1-.42.17.57.57 0 0 1-.42-.17c-.18-.18-.18-.48-.18-.8 0-.32 0-.63.18-.8a.57.57 0 0 1 .42-.17Zm0 2.47c.32.01.63-.12.86-.35.27-.29.34-.66.34-1.15 0-.5-.07-.86-.34-1.15a1.16 1.16 0 0 0-.86-.35c-.32-.01-.64.12-.86.35-.27.29-.34.65-.34 1.15 0 .5.07.86.34 1.15.23.23.54.36.86.35Zm3.22-2.3a.6.6 0 0 0-.42-.17c-.16 0-.31.05-.42.16-.18.18-.18.49-.18.8 0 .33 0 .63.18.81.1.11.26.18.42.17a.6.6 0 0 0 .42-.17c.18-.18.2-.48.2-.8 0-.32-.02-.63-.2-.8Zm.44 1.95c-.23.23-.54.36-.86.35-.32.01-.64-.12-.86-.35-.27-.29-.34-.65-.34-1.15 0-.5.07-.86.34-1.15.22-.23.54-.36.86-.35.32-.01.64.12.86.35.27.29.34.66.34 1.15 0 .49-.07.86-.34 1.15Zm1.44-1.1c0-.5.04-1.05.55-1.05.58 0 .58.55.58 1.05s-.07.95-.58.95c-.5 0-.55-.45-.55-.95Zm1.1 1.11V31h.6v-4h-.6v1.32a.8.8 0 0 0-.7-.32c-.87 0-1 .86-1 1.55 0 .69.18 1.45 1 1.45.3 0 .52-.1.7-.34Zm-18.04-.64-.36.46c.33.31.93.52 1.5.52.77 0 1.5-.35 1.5-1.16 0-.69-.5-1-1.13-1.1l-.15-.01c-.4-.05-1-.11-1-.6 0-.38.31-.63.8-.63.36 0 .66.1.92.32l.41-.37a1.83 1.83 0 0 0-1.3-.45c-.88 0-1.4.47-1.4 1.15-.05.63.53 1.02 1.1 1.07l.2.02c.42.03.95.08.95.62 0 .38-.35.64-.9.64-.43 0-.83-.19-1.14-.48Z" fill="#113870"/></svg>