<?xml version='1.0' encoding='utf-8'?>
<!-- by TradeStack -->
<svg width="56" height="56" viewBox="0 0 56 56" xmlns="http://www.w3.org/2000/svg"><path fill="#F0F3FA" d="M0 0h56v56H0z" /><path fill-rule="evenodd" d="M28 12c-1 1.1-3 4.18-3 7.68S26.96 25 28 25s3-1.82 3-5.32-2-6.58-3-7.68Zm0 5.44a6.38 6.38 0 0 0-1.38 3.77c0 1.71.9 2.6 1.38 2.6.48 0 1.38-.89 1.38-2.6 0-1.72-.92-3.23-1.38-3.77Z" fill="#0071BB" /><path d="M20.65 24a4.86 4.86 0 0 0-4.61 2.81c.29-.27 1.42-.81 3.62-.81C22.4 26 25 28.2 25 31c0 5.47-6.44 6.6-8.85 6.6-2.42 0-3.15-1.16-3.15-1.97 0-.82.51-1.16 1.72-1.16 3.18 0 4.83.7 6.26 1.16-1.54-1.86-3.85-2.63-6.7-2.63S10 34.23 10 35.4c0 1.97 2.41 3.6 6.04 3.6C24.7 39 28 34.47 28 31.1c0-3.38-3.73-7.1-7.35-7.1Zm14.7 0c2.9 0 4.28 1.96 4.61 2.81-.29-.27-1.42-.81-3.62-.81C33.6 26 31 28.2 31 31c0 5.47 6.44 6.6 8.85 6.6 2.42 0 3.15-1.16 3.15-1.97 0-.82-.51-1.16-1.72-1.16-3.18 0-4.83.7-6.26 1.16 1.54-1.86 3.85-2.63 6.7-2.63S46 34.23 46 35.4c0 1.97-2.41 3.6-6.04 3.6C31.3 39 28 34.47 28 31.1c0-3.38 3.73-7.1 7.35-7.1Z" fill="#79C041" /></svg>