<?xml version='1.0' encoding='utf-8'?>
<!-- by TradeStack -->
<svg width="56" height="56" viewBox="0 0 56 56" xmlns="http://www.w3.org/2000/svg"><path fill="#1CA148" d="M0 0h56v56H0z" /><path fill-rule="evenodd" d="M36.4 15.52a15.14 15.14 0 0 1 6.03 6.17l.02-.01a16.11 16.11 0 0 0-6.56-7.49 15.83 15.83 0 0 0-23.12 8.87 15.66 15.66 0 0 0-.56 7.4 15.71 15.71 0 0 0 2.84 6.88 15.82 15.82 0 0 0 9.3 6.16c.03 0 .06-.01.07-.04l.06-.1c.02-.03.01-.05-.02-.06a15.01 15.01 0 0 1-6.05-3.7A15.22 15.22 0 0 1 29.03 13.6c2.64 0 5.1.63 7.38 1.9ZM22.73 29.38a28.44 28.44 0 0 0-.18-2.18h.03c.2.9.32 1.69.36 2.37.04.8-.04 1.67-.25 2.6a.57.57 0 0 0 .04.37l.53 1.23c.03.05.05.05.08 0a7 7 0 0 0 .77-2.73l.1-1.39c0-.14.01-.14.03 0a9.73 9.73 0 0 1-.65 4.57c-.04.1-.04.2 0 .3l.54 1.18c.02.04.04.04.06 0 .58-1.06.94-2.3 1.1-3.73a40.67 40.67 0 0 0 .19-2.1l.02.02c.06 1.52.03 2.64-.08 3.35a12.8 12.8 0 0 1-.96 3.02.19.19 0 0 0 0 .17 89.32 89.32 0 0 0 .81 1.63c.02 0 .03 0 .03-.02.22-.87.54-1.68.95-2.43.07-.13.13-.32.17-.56.18-1.01.3-2.07.36-3.2.04-.53.07-.53.1 0 .04.95.02 1.87-.04 2.77 0 .05 0 .06.04.01a8.96 8.96 0 0 1 2.05-2.01c.03-.02.03-.05.01-.08a20.9 20.9 0 0 0-2.37-3.3l-2.56-3c-1.7-2.01-2.96-4.03-3.78-6.06 0-.03-.02-.03-.03 0-2.04 2.82-3.2 5.61-3.5 8.39-.22 2.1.07 4.14.86 6.1 1.28 3.17 3.63 5.93 7.05 8.27.03.02.05.01.07-.01a.78.78 0 0 0 .17-.48l.01-.95a.07.07 0 0 0-.04-.07c-.93-.42-1.78-.97-2.55-1.64a49.69 49.69 0 0 1-1.69-1.54l.02-.01a36.77 36.77 0 0 0 2.6 1.86 11 11 0 0 0 1.6.87c.05.02.08 0 .08-.06-.01-.28.02-.58.08-.87.02-.06 0-.1-.06-.12a11.2 11.2 0 0 1-3.3-1.82 27.8 27.8 0 0 1-1.96-1.79h.03c.98.76 1.83 1.38 2.56 1.85.85.56 1.76.98 2.75 1.28.04 0 .06 0 .06-.05.03-.19.01-.33-.04-.43-.2-.34-.38-.69-.52-1.04a.22.22 0 0 0-.14-.13c-.5-.16-1-.34-1.5-.54a10.99 10.99 0 0 1-3.2-2.03 74.72 74.72 0 0 1-1.4-1.31l.01-.02h.02c.62.49 1.34 1.01 2.15 1.58a11.2 11.2 0 0 0 3.66 1.7c.04 0 .05 0 .03-.04l-.62-1.43a.11.11 0 0 0-.07-.07 10.87 10.87 0 0 1-4.13-2.29 135.8 135.8 0 0 1-1.22-1.12l.02-.02h.02c.48.37 1.08.8 1.79 1.31 1 .72 2.1 1.25 3.27 1.57.05.02.07 0 .05-.05l-.6-1.45a.23.23 0 0 0-.13-.14 8.82 8.82 0 0 1-2.32-1.26 16.92 16.92 0 0 1-1.55-1.4l.02-.03c.5.43 1 .83 1.54 1.2.67.46 1.4.81 2.17 1.04.03 0 .04 0 .03-.03l-.5-1.35a.2.2 0 0 0-.1-.1 10.23 10.23 0 0 1-3.7-3.5h.02c.34.4.71.8 1.11 1.23a7.65 7.65 0 0 0 2.4 1.67l-.53-1.56a.15.15 0 0 0-.07-.08 6.37 6.37 0 0 1-2.22-2.1c-.07-.12-.06-.12.02-.03a6.96 6.96 0 0 0 2.03 1.73c.1.05.13.03.06-.07a6.5 6.5 0 0 1-.97-2.77h.02c.14.64.35 1.25.64 1.83 0 .02.02.02.04.02l.02-.01v-.01c-.19-.67-.32-1.32-.38-1.97-.01-.13 0-.26.03-.39s.04-.13.04 0c0 .3.05.62.15.98.12.44.24.83.36 1.2.05.16.08.15.09-.02a6.14 6.14 0 0 0-.4-2.46l.02-.01.03.01a6.94 6.94 0 0 1 .57 2.84c-.02.31 0 .54.06.69l.29.79c.02.07.05.07.07 0a8.03 8.03 0 0 0 .09-2.84l.01.01c.1.47.17.94.22 1.42.05.55 0 1.19-.17 1.9v.09l.61 1.52c.02.05.04.05.06 0 .24-.8.35-1.54.33-2.24Zm19.3-5.5c.45 0 .82-.38.82-.84a.83.83 0 0 0-.83-.82.83.83 0 0 0-.82.82c0 .46.37.83.82.83Zm-15.69 20.3c-.12.48-.29.94-.49 1.39-.16.37-.4.5-.68.4-.53-.2-.55-.81-.04-1.84.2-.4.4-.8.58-1.2.05-.1.07-.21.07-.32-.04-1.67.1-3.16.45-4.45a8.36 8.36 0 0 1 3.42-4.92 18.8 18.8 0 0 1 4.41-2.12c1.32-.46 2.52-.9 3.59-1.29a24.82 24.82 0 0 0 5.14-2.6c.36-.23.7-.49 1.03-.77.03-.02.05-.02.06.03.15 1.47.17 2.88.06 4.23-.38 4.51-2.3 7.94-5.73 10.28-.99.68-2.05 1.23-3.17 1.67a21.67 21.67 0 0 1-8.63 1.46c-.03 0-.06.02-.07.05Zm11.74-10.26c-.02.07 0 .08.05.03l.69-.57a.67.67 0 0 0 .18-.23 6.7 6.7 0 0 1 2.12-2.52l.01.01v.01c-.45.42-.79.77-1.01 1.05-.25.32-.45.65-.61 1-.04.08-.03.1.04.03.57-.5 1.08-1.03 1.55-1.6.1-.14.11-.13.04.02-.07.17-.18.34-.33.53a15.91 15.91 0 0 1-1.12 1.3l.01.01h.02a8.68 8.68 0 0 0 1.53-1.35l.02.02v.03c-.62.84-1.39 1.5-2.3 1.96-.06.03-.05.05 0 .06a5.82 5.82 0 0 0 2.67-.46v.02c-.86.44-1.84.68-2.94.72-.05 0-.1.02-.14.06l-1.15 1.01c-.05.05-.04.07.03.08l.17.01c.28.03.48.03.62.03a12.34 12.34 0 0 0 3.58-.82l-.01.03c-.74.37-1.5.66-2.3.87-.73.2-1.54.29-2.44.28a.49.49 0 0 0-.32.1l-1.06.88c-.03.02-.03.03 0 .04.38.08.8.14 1.27.19.31.03.7.02 1.19-.03a20.58 20.58 0 0 0 1.9-.25l-.01.02c-.85.26-1.65.42-2.4.48a9.1 9.1 0 0 1-2.26-.08.29.29 0 0 0-.24.06l-1.22.97c-.02.02-.02.03.01.04 1.14.3 2.3.39 3.47.29a36.59 36.59 0 0 0 2.44-.3V38c-.73.18-1.4.34-2.02.45-1.25.25-2.7.2-4.36-.12-.04 0-.07 0-.1.02l-1.21.91c-.04.03-.04.06.01.07a11.57 11.57 0 0 0 4.07.34 37.62 37.62 0 0 0 2.58-.29l-.01.03c-.73.2-1.5.37-2.28.51-1.47.27-3.05.22-4.74-.15a.62.62 0 0 0-.54.15c-.37.3-.81.56-1.33.79-.05.02-.05.04 0 .06 1.09.3 2.17.41 3.25.35a28.63 28.63 0 0 0 3.27-.33v.03l-.22.06c-1.86.44-3.25.65-4.17.63-.8-.02-1.73-.13-2.8-.36a.3.3 0 0 0-.2.04c-.36.19-.73.41-1.12.67-.05.03-.04.06.01.08 1.27.36 2.67.48 4.21.33a32.73 32.73 0 0 0 2.4-.28V42l-.01.03c-.65.16-1.3.3-1.95.44-.57.12-1.14.2-1.7.23-.97.05-2.13-.07-3.48-.36a.13.13 0 0 0-.13.04 8.15 8.15 0 0 0-1.68 3.05.39.39 0 0 1-.3.28c-.1.01-.16-.02-.2-.1a.7.7 0 0 1-.02-.43c.25-1.1.72-2.07 1.42-2.91a.3.3 0 0 0 .08-.17c.05-.42.1-.85.17-1.3.21-1.42.68-2.77 1.41-4.04a55.9 55.9 0 0 1 .94-1.57h.02v.03l-.03.08a48.51 48.51 0 0 0-1.2 2.74 10.79 10.79 0 0 0-.71 3.58l.96-.7.01-.02.16-1.14c.19-1.28.56-2.45 1.1-3.5a29.3 29.3 0 0 1 1.26-2.17l.03.02v.02a28.3 28.3 0 0 0-1.44 3.36 9.6 9.6 0 0 0-.44 1.9l-.11 1.16c0 .04 0 .05.04.03l1.24-.66a.08.08 0 0 0 .04-.07c.16-1.8.56-3.33 1.2-4.59a29.96 29.96 0 0 1 1.32-2.24l.02.01a57.8 57.8 0 0 0-.84 1.81c-.72 1.64-1.1 3.2-1.13 4.67 0 .05.01.06.05.03l1.56-1.07a.1.1 0 0 0 .05-.08c.16-1.69.55-3.11 1.17-4.27a31.85 31.85 0 0 1 1.1-1.9 89.49 89.49 0 0 0-.87 1.97 10.36 10.36 0 0 0-.9 3.8c0 .05.03.06.07.03l1.08-.78c.06-.05.1-.1.1-.18.14-1.05.41-2 .83-2.87a14.36 14.36 0 0 1 1.03-1.75v.02c-.44.86-.76 1.55-.95 2.07a6.73 6.73 0 0 0-.44 2.22c0 .04.01.04.04.02.38-.27.76-.56 1.14-.85a.37.37 0 0 0 .13-.2c.36-1.2.88-2.25 1.58-3.14a22.14 22.14 0 0 1 1.03-1.23v.03c-.03.07-.08.14-.12.2a9.98 9.98 0 0 0-1.94 3.74c-.01.06 0 .07.06.03l1.24-1a.2.2 0 0 0 .07-.1 6.68 6.68 0 0 1 1.7-2.82v.02c-.2.27-.4.54-.58.81-.34.5-.58 1.05-.73 1.65Z" fill="#fff" /></svg>