<!-- by TradeStack --><svg width="56" height="56" viewBox="0 0 56 56" xmlns="http://www.w3.org/2000/svg"><path fill="#F0F3FA" d="M0 0h56v56H0z"/><path d="m24.72 15 9.4 7.72 4.69-3.17L48 27.03l-.6.7-8.64-7.04-4.7 3.18-9.38-7.71L8.56 27.75 8 27.02 24.72 15Z" fill="#BE6418"/><path d="m24.72 19.9 9.4 7.72 4.69-3.17L48 31.93l-.6.7-8.64-7.04-4.7 3.18-9.38-7.71L8.56 32.65 8 31.92 24.72 19.9Z" fill="#42B455"/><path d="m24.72 25.25 9.4 7.73 4.69-3.18L48 37.3l-.6.7-8.64-7.04-4.7 3.17-9.38-7.7L8.56 38 8 37.27l16.72-12.02Z" fill="#95949A"/></svg>