<?xml version='1.0' encoding='utf-8'?>
<!-- by TradeStack -->
<svg width="56" height="56" viewBox="0 0 56 56" xmlns="http://www.w3.org/2000/svg"><path fill="#3F4E67" d="M0 0h56v56H0z" /><path fill-rule="evenodd" d="M10 28v3H6.35C5.05 31 4 29.88 4 28.5S5.05 26 6.35 26h3.86l-.95 1.32H6.59c-.62 0-1.13.54-1.13 1.2 0 .67.51 1.2 1.13 1.2H8.6V29H6.13l.94-1H10Zm13.98 0v3h3.67c1.3 0 2.35-1.12 2.35-2.5S28.95 26 27.65 26h-2.7l-.97 1.32h3.43c.62 0 1.13.54 1.13 1.2 0 .67-.51 1.2-1.13 1.2H25.4V28h-1.42Zm-10.82-2c-1.2 0-2.16 1.03-2.16 2.3v.4c0 1.27.97 2.3 2.16 2.3h2.56c1.2 0 2.16-1.03 2.16-2.3v-.4c0-1.27-.97-2.3-2.16-2.3h-2.56Zm.25 1.25c-.53 0-.96.45-.96 1.02v.46c0 .57.43 1.02.96 1.02h2.06c.53 0 .96-.45.96-1.02v-.46c0-.57-.43-1.02-.96-1.02h-2.06ZM18.6 26v5h4.11l.93-1.25H20V26h-1.4Z" fill="url(#ayfyovzpx)" /><path d="M30.42 31v-2.63h4.27c.29 0 .52-.24.52-.54 0-.3-.23-.55-.52-.55h-4.27l.94-1.28H35c.96 0 1.74.82 1.74 1.83 0 .7-.38 1.32-.93 1.63L37.06 31h-1.91l-1.07-1.33H32V31h-1.58ZM39 26h-1.5v5H39v-5Zm5.71 1.34.97-1.34h-3.77a2.46 2.46 0 0 0-2.41 2.5c0 1.38 1.08 2.5 2.41 2.5h2.8l.97-1.36h-3.5A1.2 1.2 0 0 1 41 28.49c0-.63.57-1.15 1.18-1.15h2.53Zm3.3-1.34h-1.5v5H48v-2h2.5v2H52v-5h-1.5v1.8H48V26Z" fill="#fff" /><defs><linearGradient id="ayfyovzpx" x1="16.88" y1="26.02" x2="16.88" y2="30.93" gradientUnits="userSpaceOnUse"><stop stop-color="#E6CA89" /><stop offset="1" stop-color="#C0963C" /></linearGradient></defs></svg>