<!-- by TradeStack --><svg width="56" height="56" viewBox="0 0 56 56" fill="none" xmlns="http://www.w3.org/2000/svg">
<rect width="56" height="56" fill="#008000"/>
<path d="M29.4274 14.5666L29.7401 13.4949C29.7823 13.3506 29.8783 13.2785 30.0282 13.2785H30.4604C30.608 13.2785 30.6818 13.3518 30.6818 13.4984V19.3633C30.6818 19.5192 30.6033 19.6019 30.4464 19.6112H29.725C29.5727 19.6205 29.4766 19.5518 29.4368 19.4052C28.6778 16.4844 26.9548 14.9285 24.2585 14.6539C21.5634 14.3816 19.181 15.6524 18.2253 18.1938C16.507 22.7636 16.7811 31.5086 23.7877 31.2642C26.2579 31.1804 27.9937 29.9481 28.1378 27.4101C28.2315 25.9737 27.4257 25.0975 25.7203 25.023C25.575 25.016 25.4591 24.9474 25.4497 24.8031V24.248C25.438 24.0781 25.5177 24 25.6887 24H32.4809C32.6285 24 32.7023 24.0653 32.7023 24.2096V24.7682C32.7023 24.9287 32.6215 25.009 32.4598 25.009C29.7331 25.016 30.3972 28.1851 30.4288 30.4159C30.4312 30.5485 30.3691 30.637 30.2426 30.6812C29.835 30.8278 29.4906 30.8697 29.1252 31.0966C25.6278 33.2704 21.9921 33.5822 18.2183 32.0322C13.2637 29.9969 11.9601 23.6258 13.7873 19.1015C15.7937 14.1338 21.0293 12.0741 26.0928 13.3867C26.6105 13.5217 27.626 13.958 29.1392 14.6958C29.2868 14.768 29.3829 14.7249 29.4274 14.5666Z" fill="white"/>
<path d="M37.2599 32.3105C40.338 32.7277 42.6958 33.7857 42.9839 36.9797C43.2966 40.404 39.0273 41.9433 36.1495 42H25.2812C25.1313 41.9978 25.0481 41.8981 25.0317 41.7557L24.9931 41.3752C24.9743 41.2172 25.0481 41.1293 25.2145 41.1115C26.8168 40.9413 27.9896 40.6743 28.0002 39.0623V33.4886C28.0002 33.3752 28.0275 33.2851 28.1259 33.2183C29.2538 32.4473 29.9862 31.7865 31.4585 31.8232C34.4031 31.9 37.5972 31.4861 37.2001 27.9784C37.0455 26.6056 36.3264 25.7667 35.0426 25.4619C34.9466 25.4397 34.8986 25.3807 34.8986 25.285V24.1436C34.8986 24.0457 34.9501 23.9978 35.0532 24.0001C36.8452 24.0223 38.3433 24.4295 39.5474 25.2216C41.6732 26.62 41.877 29.3201 39.8671 30.8921C39.1128 31.4795 38.2414 31.9156 37.2528 32.2004C37.0818 32.2493 37.0842 32.286 37.2599 32.3105ZM36.9676 33.8291C35.534 33.3051 32.8637 33.0114 31.2122 33.2517C31.1068 33.2673 31.0025 33.3251 31.0002 33.4252V38.2361C31.1302 41.4101 37.4139 41.2651 38.6613 39.0623C39.6451 37.3235 39.1954 34.6401 36.9676 33.8291Z" fill="white"/>
</svg>
