<!-- by TradeStack --><svg width="56" height="56" viewBox="0 0 56 56" xmlns="http://www.w3.org/2000/svg"><path fill="#F0F3FA" d="M0 0h56v56H0z"/><path d="M27.5 43.64c-2.84 0-5.07-1.36-5.07-3.1a.54.54 0 0 1 .18-.36.59.59 0 0 1 .79 0c.1.1.17.22.18.36 0 .97 1.57 2 3.92 2a.6.6 0 0 1 .43.15.55.55 0 0 1 .19.4.53.53 0 0 1-.19.4.58.58 0 0 1-.43.15Z" fill="#258D43"/><path d="M27.5 43.64a.58.58 0 0 1-.38-.17.54.54 0 0 1 0-.75c.1-.1.23-.17.38-.18 2.34 0 3.92-1.03 3.92-2a.54.54 0 0 1 .18-.36.59.59 0 0 1 .78 0c.11.1.18.22.19.36 0 1.74-2.23 3.1-5.07 3.1ZM27.5 46c-2.84 0-5.07-1.36-5.07-3.1a.54.54 0 0 1 .18-.37.59.59 0 0 1 .79 0c.1.1.17.23.18.37 0 .96 1.57 2 3.92 2a.6.6 0 0 1 .43.14.55.55 0 0 1 .19.4.53.53 0 0 1-.19.41.58.58 0 0 1-.43.15Z" fill="#258D43"/><path d="M27.5 46a.58.58 0 0 1-.38-.18.54.54 0 0 1 0-.75c.1-.1.23-.16.38-.17 2.34 0 3.92-1.04 3.92-2a.54.54 0 0 1 .18-.37.59.59 0 0 1 .78 0c.11.1.18.23.19.37 0 1.74-2.23 3.1-5.07 3.1Z" fill="#258D43"/><path d="M29.19 40.78a.3.3 0 0 1-.16-.04.28.28 0 0 1-.1-.12.28.28 0 0 1 0-.2.3.3 0 0 1 .14-.16c1.47-.64 1.5-1.98 1.5-3.16.02-1.05-.02-2.04-.06-3.84-.03-1.53-.06-3.1-.06-4.21 0-2.8 2.34-4.85 2.81-5.22a.3.3 0 0 1 .39.04.27.27 0 0 1-.02.38c-.27.21-2.6 2.2-2.6 4.81 0 1.1.02 2.67.06 4.2.04 1.8.08 2.8.06 3.86-.02 1.21-.05 2.87-1.85 3.65a.29.29 0 0 1-.11.01ZM26.17 40.92a.28.28 0 0 1-.16-.05 2.59 2.59 0 0 1-1.03-1.8c-.04-.38-.04-1.17-.05-2.39 0-1.34 0-2.3-.08-4.45-.1-3.32-.8-3.81-1.55-4.33l-.41-.3a.28.28 0 0 1 .03-.35.31.31 0 0 1 .34-.08l.38.3c.82.58 1.67 1.16 1.78 4.75.07 2.16.08 3.13.08 4.47 0 1.16 0 1.98.05 2.32a1.95 1.95 0 0 0 .78 1.42c.06.04.1.1.11.17.02.07 0 .15-.03.2a.29.29 0 0 1-.24.11Z" fill="#1D6E37"/><path d="M22.55 39.84c-1.23 0-2.09-1.86-2.09-2.86v-2.34c0-1.88-1.23-3.32-2.41-4.7l-.46-.54a11.66 11.66 0 0 1-1.3-12.67 12.24 12.24 0 0 1 4.63-4.91A12.92 12.92 0 0 1 27.54 10v.56c-3.17 0-6.22 1.22-8.46 3.37a11.3 11.3 0 0 0-3.51 8.14 11.1 11.1 0 0 0 2.92 7.51c1.2 1.4 2.55 2.98 2.55 5.06v2.35c0 .85.74 2.32 1.5 2.32v.53Z" fill="#B5B5B6"/><path d="M32.44 39.84v-.53c.77 0 1.51-1.45 1.51-2.32v-2.35c0-2.08 1.36-3.66 2.56-5.06l.53-.61a11.1 11.1 0 0 0 2.38-6.9 11.3 11.3 0 0 0-3.5-8.13 12.23 12.23 0 0 0-8.46-3.38V10c3.33 0 6.52 1.28 8.87 3.54A11.84 11.84 0 0 1 40 22.07a11.65 11.65 0 0 1-3.05 7.87c-1.2 1.38-2.41 2.82-2.41 4.7v2.35c-.02 1-.88 2.85-2.1 2.85Z" fill="#B5B5B6"/><path d="M28.69 28.57c4.26 2.03 8.15-1.61 8.75-5.71.6-4.06-1.89-6.24-3.3-12.6-1.08 2.7-2.51 3.7-4.99 5.3-4.66 3.03-5.27 10.72-.46 13.01Z" fill="#258D43"/><path d="M33.71 12.65c-1.73 2.19-2.71 6.88-3.14 8.86-.42 1.97-1.63 4.27-.87 6.56.21-2.81 1.2-3.96 1.84-6.36.65-2.4.43-4.79 2.17-9.06Z" fill="#fff"/><path d="M18.64 17.1c2.12.38 8.6 3.26 9.1 8.38.47 5.12-1.46 6.23-3.5 6.51-1.53.21-4.64-1.77-4.93-5.67-.29-3.91 1.26-6.98-.67-9.21Z" fill="#46B649"/><path d="M20.13 18.32a15 15 0 0 1 4.6 7.3c.53 1.78.7 3.65.48 5.49-.3-.93-.64-3.11-1.25-5.35a21.15 21.15 0 0 0-3.83-7.44Z" fill="#fff"/><path d="M27.5 41.29c-2.84 0-5.07-1.36-5.07-3.1a.54.54 0 0 1 .18-.37.59.59 0 0 1 .79 0c.1.1.17.23.18.36 0 .97 1.57 2 3.92 2a.6.6 0 0 1 .43.15.55.55 0 0 1 .19.4.53.53 0 0 1-.19.41.58.58 0 0 1-.43.15Z" fill="#258D43"/><path d="M27.5 41.29a.58.58 0 0 1-.38-.18.54.54 0 0 1 0-.75c.1-.1.23-.16.38-.17 2.34 0 3.92-1.04 3.92-2a.54.54 0 0 1 .18-.37.59.59 0 0 1 .78 0c.11.1.18.23.19.36 0 1.75-2.23 3.1-5.07 3.1Z" fill="#258D43"/></svg>