<?xml version='1.0' encoding='utf-8'?>
<!-- by TradeStack -->
<svg width="56" height="56" viewBox="0 0 56 56" xmlns="http://www.w3.org/2000/svg"><path fill="#F0F3FA" d="M0 0h56v56H0z" /><circle cx="27.5" cy="26.5" r="14.5" fill="url(#ax3usqhgi)" /><path d="M41 31.79a14.46 14.46 0 0 0-1.12-12.84c-.32-.01-.3.12-.28.28v.16c-.01.26-.32.08-.4-.17a2.44 2.44 0 0 0-.19-.36 1.01 1.01 0 0 1-.16-.35c0-.06.01-.05.06.01.06.08.18.25.41.42.42.3.25 0 .09-.2-.17-.2-.5-.56-.56-.61a.3.3 0 0 1-.05-.13.72.72 0 0 0-.03-.08 8.98 8.98 0 0 0-1.3-1.03c-.22-.11-.43.05-.51.14-.06.15-.24.5-.45.76-.18.2-.32.17-.48.14a.9.9 0 0 0-.29-.01c-.18.02-.13.2-.07.43.05.18.1.4.07.59-.06.35.31.27.54.22l.15-.03c.14 0 .35.48.35.74s.15.45.43.53c.22.07.26-.1.35-.46l.08-.33c.1-.36 0-.42-.12-.49-.07-.04-.14-.08-.17-.18-.05-.19.06-.18.18-.18.06 0 .12 0 .16-.02.05-.03.12-.13.19-.22.08-.12.17-.23.21-.22.08 0 .06.38 0 .44-.04.04-.09.25-.13.45l-.07.28c-.05.2.04.25.32.42l.08.05c.12.08.22.13.3.17.13.07.19.1.12.13-.1.05-.65.08-.7.08-.02 0-.04.08-.06.18-.04.16-.1.4-.21.52-.15.14-.3.06-.65-.14l-.31-.18c-.2-.1-.28-.13-.32-.14a.6.6 0 0 0-.03-.05c-.12-.1-.07-.25-.01-.43.04-.14.09-.3.09-.47 0-.33-.23-.2-.32-.16l-.05.02-.15.85c0 .09-.4.16-.82.25l-.64.13c-.46.13-.55.11-.78.07l-.12-.01c-.34-.06-.34.13 0 .5.26.3.22.45.16.67l-.05.23c-.06.37-.36.23-.86-.05l-.37-.24c-.2-.14-.32-.22-.6-.25-.26-.03-.2.06-.12.2.06.08.12.19.12.29 0 .2-.1.34-.24.55l-.15.24-.14.2c-.05.05-.07.09-.07.12 0 .05.07.1.25.2l.01.01c.24.16.25.23.26.3 0 .06 0 .11.08.2.16.18.87.07 1.26.01l.12-.01c.24-.04.27-.1.34-.26l.1-.24c.12-.2.25-.25.41-.32.12-.05.24-.1.39-.2.24-.19.37 0 .47.13.05.07.1.13.14.13.14 0 .53.1.6.34.03.1.13.3.24.51.18.35.39.77.45 1.05.05.3-.16.27-.36.25-.1 0-.2-.02-.25.02-.14.11.37.27.8 0 .3-.2.26-.33.2-.5-.01-.07-.04-.14-.04-.22-.02-.18-.2-.44-.36-.7a2.5 2.5 0 0 1-.28-.49c-.09-.29.2-.44.37-.26.17.18.64 1.45.59 1.9a2 2 0 0 0 .1 1.1c.14.22.39 0 .54-.56.08-.3.1-.27.17-.19.07.07.17.2.38.2.25 0 .25-.1.25-.25 0-.12-.01-.28.12-.44.09-.1.15-.2.2-.28.11-.2.16-.27.4-.1.17.12.25.28.32.42.06.14.13.27.27.32.28.1.4 1.04.39 1.32-.02.26-.38-.19-.75-.65l-.14-.16c-.27-.34-.38-.23-.5-.12-.05.06-.11.11-.19.12l-.17.01c-.11 0-.19 0-.34.12-.14.11-.08.46-.03.73.02.12.04.23.03.29-.01.12.4.26.75.37.14.05.28.09.36.13.22.09.06.35-.09.6-.06.1-.13.21-.16.3-.09.28-.3.33-.48.16-.13-.13-.18-.14-.32-.15l-.13-.01c-.25-.03-.34-.1-.6-.41l-.02-.04a2.6 2.6 0 0 0-.78-.73c-.24-.13-.27.09-.3.3a.7.7 0 0 1-.05.24c-.06.1-.16-.04-.28-.2-.07-.1-.15-.2-.23-.26-.12-.1-.11-.14-.1-.23.02-.06.03-.13.02-.26-.01-.16-.17-.23-.34-.3-.16-.07-.33-.14-.4-.3-.1-.24 0-.33.14-.44l.13-.1c.18-.19 0-.46-.13-.55a5.1 5.1 0 0 0-.97-.45c-.27-.1-.54-.1-.83-.11l-.53-.03c-.4-.05-.8-.31-.95-.43-.05.09-.19.27-.38.3a1.8 1.8 0 0 0-.71.27.98.98 0 0 0-.28.39c-.07.11-.13.23-.21.33-.13.14-.4.14-.61.14-.12 0-.22 0-.29.02-.08.03-.19.13-.34.27-.2.18-.47.43-.84.65-.49.3-.45.5-.43.6l-.01.06c-.24.48-.67 1.54-.48 1.9.22.42.2.58.15 1.08v.08c-.04.36.03.42.13.52a.8.8 0 0 1 .2.25c.19.38.26.48.55.56.23.07.65.17.83.21.07.07.29.22.58.26l.45.03c.23 0 .44 0 .6.07.12.06.13.22.13.36 0 .11 0 .21.08.22.17.02.4.22.53.57.1.25-.18.46-.43.64-.1.08-.2.16-.26.23-.1.11-.1.31-.1.57 0 .27-.01.6-.12.98-.15.58-.5.78-.85.97l-.31.19c-.39.27-.39.28-.44.56l-.02.1c-.04.23-.14.37-.28.54-.1.13-.22.28-.34.5-.18.34-.43.57-.61.75-.11.1-.2.19-.25.26-.08.12-.03.12.06.1a.6.6 0 0 1 .3.02c.23.08.62.05 1.44 0h.03c.6-.04.82-.22 1-.37.07-.06.14-.11.22-.15a.66.66 0 0 1 .37-.07.9.9 0 0 0 .32-.03c.16-.04.2-.09.27-.17.07-.08.16-.18.41-.34.29-.17.38-.17.53-.17.1 0 .25 0 .52-.07.42-.1.64-.33.82-.52.09-.09.17-.17.26-.23.19-.1.33-.35.47-.57l.2-.33c.14-.16.42-.28.86-.45l1.05-.45a5.44 5.44 0 0 0 1.82-1.62c-.07.02-.3.06-.58.05-.28 0-.28-.03-.3-.12v-.08c-.06-.16.09-1.26.34-1.97l.17-.53c.06-.17.06-.18.14-.26.06-.06.08-.43.1-.78.01-.39.03-.76.1-.74.08.16.06.36.04.7l-.04.65a10.1 10.1 0 0 1-.33 2.08c-.05.06-.16.28-.18.5-.02.14.01.13.2.07.13-.05.32-.11.6-.17a3.38 3.38 0 0 0 1.43-.95l.16-.15c.11-.06.06-.41-.04-.78-.05-.2-.06-.19-.1-.16-.03.02-.08.06-.2-.02-.18-.11-.12-.3-.06-.49a.9.9 0 0 0 .06-.22c.02-.22.18-.61.26-.68.08-.07.1.58 0 .87-.07.2.09.24.2.27.04.02.08.03.07.05-.03.06-.02.09 0 .19l.04.15c.03.14.09.15.2.17a.7.7 0 0 1 .24.06l.04.02Zm-9.06-15.94c-.11-.07-.3-.45-.37-.63 0-.05 0-.17.06-.25.05-.1.5.11.77.25l.27.12c.15.08.3.14.45.24.2.13.03.24-.09.31l-.04.03c-.08.06-.36.09-.5.1a1.83 1.83 0 0 1-.55-.17Zm2.6 4.69c-.1.07-.99-.2-1.2-.37.17-.24.53-.75.57-.91.05-.17-.05-.2-.14-.24l-.06-.03c-.04-.02-.07.03-.11.11-.06.1-.15.28-.35.41-.25.17-.34.12-.45.06-.04-.02-.08-.05-.14-.06-.2-.04.06-.58.2-.81.08-.14.1-.11.12-.07.01.03.03.07.07.07h.11c.1.02.24.03.38 0 .13-.02.1-.05.04-.1-.03-.03-.07-.06-.09-.12-.03-.12.1-.42.37-.47.27-.06.6.47.58.6 0 .13-.05.24-.1.38-.06.15.2.72.33.92.12.2-.03.56-.13.63Zm6.5 7.97c-.11-.1-.32-.35-.31-.57 0-.1.04-.16.09-.23.08-.12.18-.27.1-.68-.13-.64-.13-1.1 0-1.21l.02-.03c.13-.12.32-.32.4-.22.05.08-.02.4-.08.63l-.06.26c0 .06.02.14.06.22.03.1.08.2.08.35 0 .12-.03.28-.07.43-.03.17-.07.33-.07.48 0 .23-.1.48-.16.57Z" fill="url(#bx3usqhgi)" /><path d="M23.84 38.99c-1.4.81-3.63.2-4.56-.22-.78-.94-2.37-2.89-2.5-3.1-.13-.2-.62-2.92-.86-4.25l-1.51-5.09 1.51-5.06 4.15-4.94c2.41-1.14 7.74-3.43 9.75-3.43s4.4.95 5.33 1.42c-5.14.64-5.72 3.33-6.26 4.97-.53 1.63-.11 4.9-.49 8.91-.3 3.22-2.28 4.67-3.23 5 .83.16 2.49-.67 2.77-.67a9.04 9.04 0 0 1-4.1 6.46Z" fill="#292E65" /><path d="M23.27 38.34c-1.4.81-3.63.2-4.57-.21a124.9 124.9 0 0 1-2.49-3.1 49.4 49.4 0 0 1-.86-4.26l-1.51-5.08 1.51-5.07 4.15-4.94c2.41-1.14 7.74-3.43 9.75-3.43s4.4.95 5.33 1.42c-5.14.64-5.72 3.34-6.26 4.97s-.12 4.9-.49 8.91c-.3 3.22-2.28 4.67-3.24 5 .84.16 2.5-.67 2.78-.67a9.04 9.04 0 0 1-4.1 6.46Z" fill="url(#cx3usqhgi)" /><path d="M25.37 23.8c-1.16 1.34-5.54 4.43-6.08 4.49-.6.83-2.56-1.4-2.78-1.69-.22-.28 1.44-4.9 2.16-6.36.72-1.46 3.75-3.33 5.1-4.1 1.35-.76 4.04-.38 4.38.77.35 1.14-1.63 5.56-2.78 6.9Z" fill="#C6DA7E" /><path d="M28.15 17.54c-.05-1.07-1.42-1.53-4.86.34-3.37 1.83-4.02 7.52-4.12 8.04.84-.33 2.95-1.15 4.7-1.8 2.18-.8 4.34-5.52 4.28-6.59Z" fill="#EEF4D9" /><path d="M22.87 42.79h-1c-.23-.2-.93-1.04-1.84-2.86-1.13-2.27-1.86-5.18-2.13-9.1-.26-3.93.56-6.4 2.19-10.33 1.3-3.14 4.23-5.31 5.54-6a21.1 21.1 0 0 0-6.99 16.09 21.2 21.2 0 0 0 4.23 12.2Z" fill="url(#dx3usqhgi)" /><path d="m22.15 42.74-.58.16c-2.14-2.47-4.92-9-3.55-17.24 1.1-6.6 5.56-10.3 7.66-11.34a18.4 18.4 0 0 0-7.66 15.28c0 6.55 2.75 11.5 4.13 13.14Z" fill="#475F38" /><path d="M19.1 38.23c-4.62-2.06-6-7.64-6.1-10.18l1.27 1.04a16.31 16.31 0 0 1-.44-7.16c1.15-4.68 5.3-7.66 7.22-8.57l.29 1.42C22.36 12.93 24.97 12 27.5 12c2.02 0 4.2.56 5.02.85-.71.3-2.39.96-3.33 1.07-1.17.13-5.65.46-7 .86-1.34.4-4.38 2.59-5.79 5.31-1.4 2.73-1.53 7.25-1.02 9.72.41 1.97 2.64 6.44 3.7 8.42Z" fill="#3C6A35" /><path d="M19.65 42.87c-1.52-.18-5.35 0-6.2 0 .2.09.76.33 1.37.57.75.3-1.26.15-.76.43.5.29 6.67 0 8.82 0 2.16 0 3.83-.12 5.55 0 1.7.13 13.13.1 13.41 0 .29-.09-.1-.14-.93-.28-.83-.15 0-.35.83-.72.83-.38-.55 0-.83 0-.28 0-5.88.34-10.97.37-5.08.04-5.26-.26-5.94-.37-.7-.1-1.72-.15-2.02-.1-.3.03-.8.28-2.33.1Z" fill="url(#ex3usqhgi)" /><defs><linearGradient id="ax3usqhgi" x1="14.99" y1="20.4" x2="41.56" y2="28.06" gradientUnits="userSpaceOnUse"><stop offset=".01" stop-color="#282D64" /><stop offset=".29" stop-color="#5E7BBC" /><stop offset=".5" stop-color="#5071B6" /><stop offset="1" stop-color="#324899" /></linearGradient><linearGradient id="bx3usqhgi" x1="29.36" y1="27.09" x2="40.45" y2="27.3" gradientUnits="userSpaceOnUse"><stop stop-color="#DFECF6" /><stop offset="1" stop-color="#719FB3" /></linearGradient><linearGradient id="cx3usqhgi" x1="15.91" y1="22.33" x2="25.73" y2="26.11" gradientUnits="userSpaceOnUse"><stop stop-color="#5DA743" /><stop offset="1" stop-color="#95C243" /></linearGradient><linearGradient id="dx3usqhgi" x1="21.74" y1="14.49" x2="21.74" y2="42.79" gradientUnits="userSpaceOnUse"><stop stop-color="#6EB644" /><stop offset=".6" stop-color="#6BB444" /><stop offset="1" stop-color="#67974C" /></linearGradient><linearGradient id="ex3usqhgi" x1="27.73" y1="42.7" x2="27.73" y2="44" gradientUnits="userSpaceOnUse"><stop offset=".32" stop-color="#81B668" /><stop offset=".63" stop-color="#73B442" /><stop offset="1" stop-color="#6B9140" /></linearGradient></defs></svg>