<?xml version='1.0' encoding='utf-8'?>
<!-- by TradeStack -->
<svg width="56" height="56" viewBox="0 0 56 56" xmlns="http://www.w3.org/2000/svg"><path fill="#F0F3FA" d="M0 0h56v56H0z" /><path d="M26 41v-6c-2 0-2.83 1.33-3 2v4c0 .67-.4 2-2 2s-2-1.33-2-2V21c0-6.4 5.33-8 8-8h8c2 0 2 1 2 2 0 .8-1.33 1.67-2 2 2 0 4-1 4-4 0-2-2-3-3-3h-9c-8.8.4-11 7.5-11 11v20c0 1.67 1 5 5 5s5-3.33 5-5Z" fill="url(#a)" /><path d="M26 35c-1.6 0-2.67 1.33-3 2 0-4 3.33-5 5-5h5c.67 0 2-.5 2-2.5S33.67 27 33 27h-5c-1 0-5 0-5-5 0-4 3.33-5 5-5h7c3 0 3.5-3 3.5-5.5 1 1 1.5 2.5 1.5 3.5 0 3.6-3.33 5.17-5 5h-7c-.67 0-2 .4-2 2s1.33 2 2 2h5c1.5 0 5 .5 5 5.5 0 4-3.33 5.33-5 5.5h-7Z" fill="url(#b)" /><defs><linearGradient id="a" x1="27.5" y1="10" x2="27.5" y2="46" gradientUnits="userSpaceOnUse"><stop stop-color="#502BDD" /><stop offset=".4" stop-color="#7238E2" /><stop offset="1" stop-color="#592EDD" /></linearGradient><linearGradient id="b" x1="31.5" y1="10" x2="31.5" y2="37" gradientUnits="userSpaceOnUse"><stop stop-color="#41AFFC" /><stop offset="1" stop-color="#90D0FC" /></linearGradient></defs></svg>