<!-- by TradeStack --><svg viewBox="0 0 56 56" xmlns="http://www.w3.org/2000/svg"><path fill="#03222B" d="M0 0h56v56H0z"/><path d="M14 13h13c2.42 0 6.04.74 9.13 3 3.13 2.27 5.66 6.06 5.87 11.96V30c-1.93-1.58-3.27-3-6-3-1.65 0-2.7.47-3.75.94l-.22.1c-.56.25-1.2.52-1.92.63-.74.13-1.53.08-2.43-.22l-.06-.02-.07-.04A4.97 4.97 0 0 1 25 24h2a3 3 0 0 0 1.4 2.58c.56.17 1 .18 1.4.12.43-.07.86-.24 1.42-.49l.23-.1C32.53 25.62 33.92 25 36 25c1.58 0 2.83.3 3.77.74-.65-3.96-2.59-6.5-4.82-8.13A14.16 14.16 0 0 0 27 15h-5v10c0 .86.22 2.2.88 3.4a5.14 5.14 0 0 0 3.36 2.63c1.78.44 2.84.23 3.97-.11l.52-.16c1.1-.35 2.4-.76 4.27-.76 2.93 0 4.7 1.87 5.7 3.94C41.7 36 42 38.4 42 40v5h-2v-5c0-1.2-1.27-3-5-3-1.29 0-2.09.37-3.13.84l-.16.07C30.56 38.44 29.21 39 27 39c-4.98 0-8.23-2.37-10.22-5.32A17.37 17.37 0 0 1 14 25.04V13Zm25.37 22.98c-.14-.4-.29-.8-.47-1.17C38.1 33.13 36.87 32 35 32c-1.55 0-2.57.32-3.64.66l-.57.17c-1.37.41-2.8.7-5.03.14a7.14 7.14 0 0 1-4.64-3.62A9.47 9.47 0 0 1 20 25V15h-4v9.98c.08 2.03.75 5.07 2.44 7.59A9.76 9.76 0 0 0 27 37a8.4 8.4 0 0 0 3.89-.91l.2-.1c1.03-.46 2.18-.99 3.91-.99 1.74 0 3.22.36 4.37.98Z" fill="#2CCF3A"/></svg>