<?xml version='1.0' encoding='utf-8'?>
<!-- by TradeStack -->
<svg width="56" height="56" viewBox="0 0 56 56" xmlns="http://www.w3.org/2000/svg"><path fill="#F0F3FA" d="M0 0h56v56H0z" /><path d="M27.36 32.64 26.2 30.5l-.36-.66.37-.29a3.94 3.94 0 0 0 1.4-2.27 5.29 5.29 0 0 0-2-5.5c-.33-.23-.64-.4-.96-.5A8.02 8.02 0 0 0 22.6 21h-4.88c-.06 0-.17 0-.28.02-.68.1-1.24.62-1.39 1.3-.04.2-.04.36-.04.45V33.23A1.66 1.66 0 0 0 17.68 35h2.62a1.65 1.65 0 0 0 1.36-.81c.36.5.92.8 1.53.8l1.3.01H26.14a1.46 1.46 0 0 0 1.32-.78c.2-.37.22-.82.08-1.23-.07-.17-.13-.28-.17-.35Z" fill="#172554" /><path d="M24.56 29.23c.32-.17.62-.36.9-.58.18-.13.34-.29.47-.47.24-.33.4-.69.5-1.08a3.8 3.8 0 0 0-1.52-4.02 2.45 2.45 0 0 0-1.23-.46 7.3 7.3 0 0 0-1.07-.07h-5a.42.42 0 0 0-.35.33l-.01.15v10.32c.05.2.22.33.43.33h2.6c.2 0 .37-.14.4-.34l.01-.14v-3.05l.01-.16c.02-.07.07-.08.11-.03l.08.13.82 1.56.85 1.63c.14.25.36.4.64.4h2.92c.03 0 .07 0 .1-.02.14-.03.2-.14.16-.3l-.07-.12-1.51-2.7-.42-.74a.4.4 0 0 1-.03-.36.4.4 0 0 1 .21-.21Zm-1.62-2.88a.67.67 0 0 1-.55.5l-.3.03-.53.02h-.5a.42.42 0 0 1-.4-.31.56.56 0 0 1-.02-.15v-.98c0-.26.18-.45.45-.46a13.72 13.72 0 0 1 1.2.05c.36.05.6.29.68.64.04.22.04.44-.03.66Z" fill="#F0F3FA" /><path d="M51 22.37c.01-.81-.83-1.37-1.55-1.37H46.18c-.79 0-1.52.59-1.8 1.36l-1.08 3.08-.14-.42-.94-2.7a1.89 1.89 0 0 0-1.75-1.3l-2.08-.01-1.23-.01a1.66 1.66 0 0 0-1.68 1.55l-.01.2v.99l-.08 9.4c0 .09 0 .25.05.44.17.77.37 1.4 1.12 1.42h3.05c.5 0 .95-.3 1.25-.66.24.27.56.57.93.66h2.45c.5 0 .98-.26 1.32-.62.3.36.73.6 1.22.6l2.58.02c.6 0 1.6-.21 1.6-.84.02-.52.03-11.09.04-11.79Z" fill="#172554" /><path d="m49.82 22.91.08 10.33v.06l-.05.13a.42.42 0 0 1-.38.22l-2.16.02h-.41a.43.43 0 0 1-.4-.3c-.03-.05-.03-.11-.03-.17l-.04-4.61v-.13c0-.02-.01-.05-.05-.07l-.04.07a.41.41 0 0 0-.04.11l-.74 2.52-.65 2.17a.64.64 0 0 1-.58.44l-2.05.02h-.11a.61.61 0 0 1-.49-.46l-1.45-4.6-.05-.16-.04-.06c-.04.06-.04.11-.04.17v.58l.04 4.07-.01.16a.43.43 0 0 1-.42.33l-1.64.02h-.95a.42.42 0 0 1-.4-.32c-.02-.05-.02-.1-.02-.15l-.1-10.16v-.08l.02-.1c.05-.2.22-.31.44-.32l3.3-.03c.3-.01.55.22.63.43l1.33 3.57.83 2.22c.02.04.04.1.07.13.06.09.13.09.18 0l.07-.16 1.98-5.79a.68.68 0 0 1 .63-.46l3.26-.02h.12a.4.4 0 0 1 .34.35l.02.03Z" fill="#F0F3FA" /><path d="M18.18 28.07c0-.57-.2-1.08-.55-1.48.17-.3.27-.65.25-1.03 0-.22-.04-.43-.11-.62a6.28 6.28 0 0 0-1.04-1.91 4.6 4.6 0 0 0-1.44-1.2 6.43 6.43 0 0 0-1.85-.67 8.67 8.67 0 0 0-1.96-.16c-.91.04-1.72.2-2.47.5a6.19 6.19 0 0 0-3.54 3.7 7.4 7.4 0 0 0-.4 1.74 9.2 9.2 0 0 0 0 2.18c.17 1.37.7 2.7 1.61 3.74a6.14 6.14 0 0 0 2.55 1.72 7.03 7.03 0 0 0 2.56.42h.42a7.12 7.12 0 0 0 3.87-1.4 4.87 4.87 0 0 0 2.1-3.99v-1.54Z" fill="#172554" /><path d="M6.22 28.26c-.04-1.99.75-3.99 2.5-5.03a5.41 5.41 0 0 1 2.8-.78c.57-.02 1.13.02 1.7.13.52.1 1.02.28 1.5.54.4.22.77.48 1.05.85.43.55.65.98.85 1.54.03.08.04.16.05.24a.55.55 0 0 1-.4.57.88.88 0 0 1-.27.04h-1.56c-.41 0-.82-.02-1.2-.2-.3-.13-.55-.33-.87-.43a1.9 1.9 0 0 0-.87-.07 2 2 0 0 0-1.44.94c-.21.35-.3.75-.34 1.15a4.4 4.4 0 0 0 .15 1.53c.19.58.55 1.01 1.13 1.23.51.2 1.04.24 1.58.15.28-.04.54-.14.78-.3a.83.83 0 0 0 .21-.2l.07-.14c.03-.08 0-.16-.07-.2a.6.6 0 0 0-.14-.07l-.26-.02h-.92l-.17-.01a.9.9 0 0 1-.73-.89v-.66c0-.25.09-.47.27-.65a.87.87 0 0 1 .64-.26h3.84c.19.01.36.07.5.19a.9.9 0 0 1 .36.73v1.54c.02 2.45-2.68 3.95-4.8 4.04-.4.02-.8 0-1.2-.04-.45-.05-.9-.15-1.32-.3a4.96 4.96 0 0 1-2.05-1.36 5.46 5.46 0 0 1-1.32-3.02 7.9 7.9 0 0 1-.05-.78Z" fill="#F0F3FA" /><path d="M37.7 30.2c.37-.98.53-2.03.44-3.07a6.72 6.72 0 0 0-2.33-4.56 6.48 6.48 0 0 0-9.29.83 6.79 6.79 0 0 0 .82 9.47 6.44 6.44 0 0 0 6.14 1.28l2.73.8a1.47 1.47 0 0 0 1.37-.31c.39-.34.57-.84.5-1.34l-.38-3.1Z" fill="#172554" /><path d="M36.53 29.88c.38-.85.56-1.8.48-2.8a5.46 5.46 0 0 0-5.9-5.02 5.5 5.5 0 0 0-4.95 5.99 5.46 5.46 0 0 0 7.34 4.68l3.14.9c.19.06.36-.1.34-.28l-.45-3.47Z" fill="#E12472" /><path d="M35.7 27.65a1.06 1.06 0 0 0-.42-.65c-.17-.13-.4-.2-.63-.21-1.5-.13-2.9.7-4.4.75-.57.02-1.22-.15-1.77.1a.94.94 0 0 0-.2.1.96.96 0 0 0-.32.6c-.1.56.04 1.16.38 1.62.13.18.27.33.42.47 1 1.4 3.13 1.39 4.63 1.04 1.02-.23 1.95-.66 2.32-1.7.2-.6.4-1.56-.02-2.12Z" fill="#172554" /><path d="M28.67 28.04a.98.98 0 0 0-.31.59c-.1.56.04 1.16.36 1.63.96 1.42 3.08 1.42 4.56 1.07 1-.23 1.9-.67 2.27-1.7.23-.68.45-1.8-.2-2.31-.18-.14-.4-.2-.61-.22-1.44-.13-2.78.7-4.2.75-.55 0-1.18-.15-1.7.09a.6.6 0 0 0-.17.1Z" fill="#EDECED" /><path d="M29 30.43c.25-.13.54-.21.82-.28a19.56 19.56 0 0 1 2.52-.42 34.24 34.24 0 0 1 2.77-.18h.15c.05 0 .05-.07 0-.07a22.74 22.74 0 0 0-2.76.16 24.94 24.94 0 0 0-2.58.4 4.73 4.73 0 0 0-.96.33c-.05.02-.01.08.03.06Z" fill="#F0F3FA" /><path d="M28.89 30.46c1 1.26 3.01 1.24 4.43.9.99-.22 1.9-.66 2.26-1.7.22-.61.6-2.45-.83-2.58-1.43-.13-2.79.7-4.22.74-.55.02-1.17-.15-1.7.09a.9.9 0 0 0-.19.12.98.98 0 0 0-.3.58c-.11.56.03 1.16.35 1.64.02 0 .02.03.04.04 0 .03.03.05.04.07m6.57-1.07c-.36 1.04-1.28 1.47-2.27 1.7-1.34.32-3.22.35-4.27-.71-.14-.38-.2-.8-.12-1.19a1 1 0 0 1 .3-.59.75.75 0 0 1 .2-.11c.51-.24 1.14-.07 1.7-.1 1.41-.03 2.76-.86 4.19-.74.15.02.34 0 .45.14.1.14-.03 1.16-.18 1.6Z" fill="#D6D6D6" /><path d="m29.57 25.58.5-.68c.16-.2.11-.5-.08-.65a.45.45 0 0 0-.64.1l-.5.68-.68-.52a.45.45 0 0 0-.64.09c-.15.2-.1.49.09.65l.67.51-.5.69a.46.46 0 0 0 .42.73.46.46 0 0 0 .3-.18l.5-.68.68.51c.1.08.23.1.34.1a.46.46 0 0 0 .3-.19.46.46 0 0 0-.09-.64l-.67-.52Z" fill="#172554" /><path d="m28.95 25.1.5-.69a.44.44 0 0 1 .58-.13c-.02 0-.03-.02-.04-.03a.45.45 0 0 0-.64.1l-.5.67.1.08ZM27.9 26.52l.5-.69-.67-.51a.47.47 0 0 1-.1-.65.45.45 0 0 1 .59-.12l-.05-.04a.45.45 0 0 0-.64.09c-.15.2-.1.49.09.65l.67.51-.5.69c-.16.2-.11.49.08.64l.07.05a.48.48 0 0 1-.05-.62Z" fill="#07102E" /><path d="M33.66 23.39a.81.81 0 0 0-.57.34l-.07.13-.12-.1a.81.81 0 0 0-.63-.18.9.9 0 0 0-.6.36.9.9 0 0 0-.17.67c.03.25.16.46.35.6l1.35 1.05c.05.04.1.05.15.04.05 0 .1-.04.13-.07l1.03-1.4a.9.9 0 0 0 .17-.67.91.91 0 0 0-.35-.6.94.94 0 0 0-.67-.17Z" fill="#172554" /><path d="M31.54 24.69a.91.91 0 0 1 .77-1.03c.24-.03.45.03.64.18l.11.1.08-.13c.15-.2.32-.31.57-.35.24-.03.47.03.66.18l.11.1a.86.86 0 0 0-.23-.25.86.86 0 0 0-.67-.17.81.81 0 0 0-.56.34l-.08.13-.11-.1a.81.81 0 0 0-.64-.18.9.9 0 0 0-.6.35.9.9 0 0 0-.17.68c.03.2.1.37.24.5a.87.87 0 0 1-.12-.35Z" fill="#07102E" /></svg>