<?xml version='1.0' encoding='utf-8'?>
<!-- by TradeStack -->
<svg width="56" height="56" viewBox="0 0 56 56" xmlns="http://www.w3.org/2000/svg"><path fill="#181B1E" d="M0 0h56v56H0z" /><circle cx="28" cy="28" r="16" fill="url(#a)" /><circle cx="28" cy="28" r="15" fill="url(#b)" /><path d="M28.03 25.3c-4.33 0-8.28 1.6-10.13 2.62a.6.6 0 0 1-.82-.25c-.16-.3-.07-.7.22-.87 1.97-1.1 6.14-2.8 10.73-2.8 4.6 0 8.72 1.7 10.67 2.8.29.17.38.56.22.87a.6.6 0 0 1-.82.25 22.04 22.04 0 0 0-10.07-2.63Z" fill="#628A68" /><path d="M28.03 28.3c-4.33 0-8.28 1.6-10.13 2.62a.6.6 0 0 1-.82-.25c-.16-.3-.07-.7.22-.87 1.97-1.1 6.14-2.8 10.73-2.8 4.6 0 8.72 1.7 10.67 2.8.29.17.38.56.22.87a.6.6 0 0 1-.82.25 22.04 22.04 0 0 0-10.07-2.63Z" fill="#628A68" /><path d="M28.03 31.3c-4.33 0-8.28 1.6-10.13 2.62a.6.6 0 0 1-.82-.25c-.16-.3-.07-.7.22-.87 1.97-1.1 6.14-2.8 10.73-2.8 4.6 0 8.72 1.7 10.67 2.8.29.17.38.56.22.87a.6.6 0 0 1-.82.25 22.04 22.04 0 0 0-10.07-2.63Z" fill="#628A68" /><path d="M28.03 34.3c-4.33 0-8.28 1.6-10.13 2.62a.6.6 0 0 1-.82-.25c-.16-.3-.07-.7.22-.87 1.97-1.1 6.14-2.8 10.73-2.8 4.6 0 8.72 1.7 10.67 2.8.29.17.38.56.22.87a.6.6 0 0 1-.82.25 22.04 22.04 0 0 0-10.07-2.63ZM28 20.07c-.67.01-1.43.1-1.96.2l-.4 2.71-3.95.8c-.24.05-.48-.1-.51-.33l-.32-2.32L18 22v2.46c0 .3-.18.53-.5.53s-.5-.24-.5-.53v-2.8a.6.6 0 0 1 .44-.57l3.96-1.27c.17-.05.35.05.37.2l.36 2.55 2.46-.47.35-2.39c.03-.21.2-.39.44-.43.86-.16 1.74-.29 2.62-.29.88 0 1.76.13 2.62.3.23.03.41.2.44.42l.35 2.39 2.46.47.36-2.54c.02-.16.2-.26.37-.21l3.96 1.27a.6.6 0 0 1 .44.57v2.8c0 .3-.18.53-.5.53s-.5-.24-.5-.53V22l-2.86-.88-.32 2.32c-.03.22-.27.38-.51.33l-3.96-.8-.4-2.72c-.52-.08-1.28-.18-1.95-.2Z" fill="#628A68" /><defs><linearGradient id="a" x1="42.14" y1="19.86" x2="13.18" y2="34.01" gradientUnits="userSpaceOnUse"><stop stop-color="#081706" /><stop offset="1" stop-color="#B0D8B5" /></linearGradient><linearGradient id="b" x1="40.45" y1="20.25" x2="14.49" y2="33.25" gradientUnits="userSpaceOnUse"><stop stop-color="#0C3412" /><stop offset="1" stop-color="#B6DEBC" /></linearGradient></defs></svg>