<!-- by TradeStack --><svg width="56" height="56" viewBox="0 0 56 56" xmlns="http://www.w3.org/2000/svg"><path fill="#1C4862" d="M0 0h56v56H0z"/><path fill-rule="evenodd" d="M28 9c.05 0 .09 0 .13.02.11.04.17.12.18.24a6.7 6.7 0 0 0 1.48 3.86 8.19 8.19 0 0 0 3.35 2.47c1.38.57 2.75.78 4.12.62a6.73 6.73 0 0 0 3.77-1.68c.1-.08.2-.09.3-.04a.37.37 0 0 1 .18.18c.05.11.04.21-.04.3a6.7 6.7 0 0 0-1.68 3.77 8.17 8.17 0 0 0 .62 4.12 8.19 8.19 0 0 0 2.47 3.35c1.14.9 2.42 1.4 3.86 1.48.12.01.2.07.24.18L47 28c0 .05 0 .09-.02.13a.26.26 0 0 1-.24.18 6.72 6.72 0 0 0-3.86 1.48 8.15 8.15 0 0 0-2.47 3.35 8.16 8.16 0 0 0-.62 4.12 6.7 6.7 0 0 0 1.68 3.77c.08.09.09.19.04.3a.37.37 0 0 1-.18.18c-.1.05-.2.04-.3-.04a6.73 6.73 0 0 0-3.77-1.68 8.17 8.17 0 0 0-4.12.62 8.15 8.15 0 0 0-3.35 2.47 6.74 6.74 0 0 0-1.48 3.86c-.01.12-.07.2-.18.24A.35.35 0 0 1 28 47c-.05 0-.09 0-.13-.02a.26.26 0 0 1-.18-.24 6.72 6.72 0 0 0-1.48-3.86 8.15 8.15 0 0 0-3.35-2.47 8.15 8.15 0 0 0-4.11-.62c-1.45.16-2.7.72-3.78 1.67a.26.26 0 0 1-.3.05.36.36 0 0 1-.1-.08.33.33 0 0 1-.08-.1.26.26 0 0 1 .04-.3 6.7 6.7 0 0 0 1.68-3.78 8.15 8.15 0 0 0-.62-4.11 8.15 8.15 0 0 0-2.47-3.35 6.71 6.71 0 0 0-3.85-1.48.27.27 0 0 1-.25-.18.39.39 0 0 1 0-.26.27.27 0 0 1 .25-.18 6.71 6.71 0 0 0 3.85-1.48 8.19 8.19 0 0 0 2.48-3.35 8.2 8.2 0 0 0 .61-4.12 6.7 6.7 0 0 0-1.67-3.77.26.26 0 0 1-.05-.3.37.37 0 0 1 .18-.18c.11-.05.21-.04.3.04a6.7 6.7 0 0 0 3.78 1.68 8.15 8.15 0 0 0 4.11-.62 8.18 8.18 0 0 0 3.35-2.47 6.7 6.7 0 0 0 1.48-3.86c.01-.12.07-.2.18-.24A.37.37 0 0 1 28 9Zm0 2.43c.1 0 .24.22.41.66.35.88.96 1.7 1.83 2.46a9.42 9.42 0 0 0 5.68 2.36 6.6 6.6 0 0 0 3.03-.45c.44-.18.69-.24.76-.17.07.07.01.32-.17.75a6.58 6.58 0 0 0-.45 3.03 9.6 9.6 0 0 0 2.36 5.7 6.54 6.54 0 0 0 2.45 1.81c.44.18.66.32.66.42 0 .1-.22.24-.66.41-.88.36-1.7.97-2.45 1.83a9.4 9.4 0 0 0-1.65 2.65c-.4.98-.65 2-.71 3.04a6.52 6.52 0 0 0 .44 3.02c.19.44.25.69.18.76-.07.07-.33.01-.76-.17a6.52 6.52 0 0 0-3.03-.45 9.48 9.48 0 0 0-5.69 2.36 6.59 6.59 0 0 0-1.82 2.45c-.18.44-.32.66-.41.66-.1 0-.25-.22-.42-.66a6.54 6.54 0 0 0-1.82-2.45 9.54 9.54 0 0 0-5.69-2.36 6.62 6.62 0 0 0-3.03.44c-.44.19-.69.25-.76.18-.07-.07 0-.32.18-.76.37-.87.52-1.88.44-3.03a9.45 9.45 0 0 0-2.35-5.69 6.54 6.54 0 0 0-2.46-1.82c-.44-.18-.66-.32-.66-.41 0-.1.22-.24.66-.42.88-.35 1.7-.96 2.46-1.82a9.54 9.54 0 0 0 2.35-5.69 6.52 6.52 0 0 0-.44-3.03c-.19-.43-.25-.68-.17-.76.07-.07.32 0 .75.18.88.37 1.89.52 3.03.44a9.51 9.51 0 0 0 5.69-2.35 6.54 6.54 0 0 0 1.82-2.46c.18-.44.32-.66.42-.66ZM17.7 27.37c.03-1.8.5-3.45 1.4-4.93 1.84-3.04 4.63-4.75 8.36-5.13.11-.01.18-.07.19-.19l.28-3.44c0-.07.04-.1.09-.12.06 0 .09.01.09.05l.2 3.42c0 .17.1.26.26.27 1.29.1 2.4.35 3.31.75 4.02 1.74 6.23 4.86 6.61 9.38.01.14.1.22.23.23a34.93 34.93 0 0 0 3.62.16l.01.13c0 .07-.02.1-.09.1l-3.57.3c-.17.02-.26.11-.28.28a10.44 10.44 0 0 1-3.15 6.59 9.92 9.92 0 0 1-6.67 2.87c-.15 0-.24.08-.24.24l-.24 4.06c0 .07-.04.1-.1.07-.06-.03-.08-.05-.08-.07l-.32-4.07c-.02-.15-.1-.22-.24-.23-2.7-.2-4.98-1.26-6.84-3.2a9.99 9.99 0 0 1-2.82-6.3c-.01-.14-.09-.21-.23-.22l-3.9-.32c-.06 0-.1-.04-.1-.1l.02-.14.01-.02c1.23.05 2.54-.01 3.96-.17.14-.02.22-.1.22-.25Zm10.72-9.2.73 8.61c.01.13.08.2.2.2l8.05.66c.15 0 .27-.04.36-.14.1-.1.14-.23.12-.37-.83-5.35-3.9-8.42-9.18-9.21-.2-.03-.3.05-.28.25Zm-1.57 8.57.67-8.35c0-.04.02-.07.04-.1.04-.04.06-.07.05-.1-.07-.21-.21-.3-.43-.26-5.31.98-8.3 4.11-8.95 9.4-.02.2.06.28.25.26l8.21-.7c.1 0 .15-.06.16-.15ZM26.78 29c.04.04.06.09.07.14.36 4.37.57 7.04.64 8.03.01.2-.08.3-.28.27a9.86 9.86 0 0 1-8.88-8.78c-.02-.2.07-.3.27-.28.99.06 3.67.24 8.04.55.05.01.1.03.14.07Zm1.92 8.46a9.36 9.36 0 0 0 6.13-2.78 9.34 9.34 0 0 0 2.92-6.05c.01-.17-.07-.26-.24-.25a1358.9 1358.9 0 0 1-8.26.52.29.29 0 0 0-.06.06l-.02.05c-.1 1.35-.34 4.08-.7 8.2-.02.17.06.25.23.25Z" fill="#EFFBF8"/></svg>