<?xml version='1.0' encoding='utf-8'?>
<!-- by TradeStack -->
<svg width="56" height="56" viewBox="0 0 56 56" xmlns="http://www.w3.org/2000/svg"><path fill="#F0F3FA" d="M0 0h56v56H0z" /><path d="M37.28 24.05c-2.97.87-5.6 3.18-7.22 5.85-.02.03-.04.03-.05 0l-.54-1.24a.1.1 0 0 1 0-.08 11.68 11.68 0 0 1 4.8-4.82c2.48-1.34 5.43-1.78 8.2-2.19h.06c.5-.08.86-.17 1.1-.27 1.76-.79 2.92-3.43 3.35-5.13.05-.2 0-.22-.14-.08l-.22.22c-1.25 1.24-2.25 2.23-4.09 2.63l-5.01 1.1c-3.84.87-7.23 2.53-9.5 5.95L28 26a.03.03 0 0 1-.03 0l-.02-.01a12.9 12.9 0 0 0-6.06-4.88 37.26 37.26 0 0 0-6.02-1.65l-1.9-.42c-.78-.18-1.34-.33-1.66-.48a8.91 8.91 0 0 1-2.95-2.3 1.9 1.9 0 0 0-.33-.26.04.04 0 0 0-.04.03v.02c.49 1.84 1.6 4.47 3.44 5.27.23.1.55.17.98.23 5.16.67 9.97 1.7 12.88 6.6 1.12 1.88 1.9 4.01 2.47 6.13.05.2.07.4.07.6l-.06 1.44a12.54 12.54 0 0 0 1.3 5.69.02.02 0 0 0 .01-.02c.7-1.65 1-3.46 1.11-5.25l.01-.16c.12-2.03.25-4.28 1.45-5.93 1.59-2.2 3.92-4.01 6.63-4.4a32.44 32.44 0 0 0 1.38-.25 8.2 8.2 0 0 0 1.42-2.8.03.03 0 0 0-.03 0l-.67.09c-1.38.18-2.77.37-4.1.76Zm-12.46 4.3a12.62 12.62 0 0 0-5.96-4.26c-1.41-.43-2.89-.63-4.35-.82l-.51-.06c-.06-.01-.07.01-.06.06.3 1 .78 1.91 1.41 2.73.02.02.05.04.08.04a10.08 10.08 0 0 1 7 3.45 7.8 7.8 0 0 1 1.96 3.29c.31 1.3.38 2.59.45 3.92a18.73 18.73 0 0 0 3.13 9.3.05.05 0 0 0 .04-.02l1.4-2.5a.13.13 0 0 0 0-.13c-.83-1.46-1.66-3.06-1.83-4.78-.16-1.52-.32-3.05-.5-4.58-.26-2.13-.89-4-2.26-5.65Z" fill="#6095CF" /></svg>