<?xml version='1.0' encoding='utf-8'?>
<!-- by TradeStack -->
<svg width="56" height="56" viewBox="0 0 56 56" xmlns="http://www.w3.org/2000/svg"><path fill="#F0F3FA" d="M0 0h56v56H0z" /><path fill-rule="evenodd" d="M21.97 22.22h.67L22.1 25h-.61c.02-.81-.3-2.45-1.78-2.45-1.86 0-2.74 2.84-2.74 4.7 0 1.86 1.07 2.25 1.58 2.25.4 0 1.02-.16 1.27-.58l.34-1.67c.07-.37-.2-.72-.56-.72H19V26h3.94c.5-1.27 1.5-2 2.85-2 1.57 0 1.93.87 1.92 1.3 0 1.69-2.23 2.16-3.34 2.18 0 .8.2 1.61 1.14 1.61.76 0 1.46-.71 1.71-1.07.12.11.38.34.42.34-.33.55-1.36 1.64-2.8 1.64-1.78 0-2.23-1.32-2.24-1.98 0-.54.06-1.04.17-1.49h-.26a.75.75 0 0 0-.73.65l-.3 1.82a4.9 4.9 0 0 1-3.11 1c-2.04 0-3.4-.98-3.4-3.25A4.7 4.7 0 0 1 19.7 22c.92 0 1.74.37 2.03.55l.23-.33ZM14 34H4.16a11.37 11.37 0 0 1 2.53-9.11c2.87-3.4 7.4-3.11 9.31-2.54l-.26.49c-2.01-.48-6.62-.53-8.9 3.05-2.23 3.3-2.27 6.45-2.02 7.6-.15-3.49 1.78-10.4 9.13-9.65.08.01.06.09.05.16-.01.08-.02.15.06.17-2.86 0-8.4 1.86-7.65 9.33-.26-2.68.77-8.05 7.04-8.07v.46c-2.17.18-6.31 1.96-5.53 7.6-.15-2.37.75-7 5.53-6.57v.29c-1.74.2-5.05 1.62-4.29 5.68-.13-1.76.54-5.2 4.3-4.88v.6c-1.12-.07-3.34.59-3.34 3.83.02-.03.04-.15.06-.32.13-.85.45-3.13 3.27-3.13l.55.72V34Zm10.4-7.03c.55 0 1.66-.3 1.66-1.52.01-.29-.08-.87-.55-.87-.6 0-1.18 1.13-1.11 2.39Zm4.52-4.22v-.44L31.8 22l-1.57 6.29c-.15.38-.2 1.4 1.02.64h.42c-.38.8-1 1.07-1.95 1.07-1.2 0-1.3-.96-.93-2.64.27-1.17.76-3.1 1.05-4.21.06-.2-.1-.4-.31-.4h-.62Zm3.36 7.08h-.59l.6-2.54h.47c-.04 1.18.55 2.21 1.65 2.21 1.1 0 1.85-.69 1.85-1.46s-.47-1.19-.92-1.37a3.5 3.5 0 0 0-.28-.09c-.68-.2-2.05-.61-2.05-2.07C33 22.8 34.57 22 35.64 22c.85 0 1.48.4 1.69.6l.28-.37h.5l-.62 2.5H37v-1.28c-.32-.87-.98-.86-1.3-.85h-.06c-.3 0-1.53.2-1.53 1.34 0 .92 1.02 1.39 1.53 1.5.56.21 1.69.9 1.69 1.95 0 1.83-1.62 2.61-3.05 2.61-1.14 0-1.67-.43-1.79-.64l-.2.47Zm6.33-1.56.81-3.6h-1.14l.36-.67h.93l.22-1h.95l-.25 1h1.42l-.28.66h-1.3c-.3 1.2-.62 2.61-.8 3.56-.29 1.46.84 1.4 1.44 1.18-.11.2-.58.6-1.55.6-.97 0-.94-1.15-.8-1.73Zm10.35-3.6-.8 3.6c-.14.58-.17 1.73.8 1.73.97 0 1.44-.4 1.55-.6-.6.22-1.73.28-1.44-1.18.18-.95.51-2.37.8-3.56h1.3l.28-.66h-1.42l.25-1h-.95l-.22 1h-.93l-.36.66h1.14ZM43.27 30c.73 0 1.34-.46 1.7-.84.06.38.28.75.88.75.93 0 1.36-.53 1.45-.8-.53.26-1.5.4-1.18-1.02.32-1.42.7-3.22.85-3.94h-.5l-.45.32c-.22-.28-.6-.47-1.26-.47-2.1 0-3 2.58-3 3.68S42.11 30 43.27 30Zm.43-.77c.5 0 .98-.3 1.28-.57l.02-.07.78-3.53a1.27 1.27 0 0 0-1.02-.57c-.76 0-1.93 1.15-1.93 3.46.01.43.2 1.28.87 1.28Z" fill="url(#a51c5z5iu)" /><path opacity=".3" fill="#01436E" d="M16 31h36v3H16z" /><defs><linearGradient id="a51c5z5iu" x1="23.99" y1="23.31" x2="23.99" y2="33.15" gradientUnits="userSpaceOnUse"><stop stop-color="#0063A4" /><stop offset="1" stop-color="#013C62" /></linearGradient></defs></svg>