<?xml version='1.0' encoding='utf-8'?>
<!-- by TradeStack -->
<svg width="56" height="56" viewBox="0 0 56 56" xmlns="http://www.w3.org/2000/svg"><path fill="#2B323E" d="M0 0h56v56H0z" /><path d="M44 28a16 16 0 1 1-32 0 16 16 0 0 1 32 0Z" fill="#FDFDFD" /><path d="M42.84 28a14.84 14.84 0 1 1-29.68 0 14.84 14.84 0 0 1 29.68 0Z" fill="url(#alcjinfam)" /><path opacity=".7" d="M24.28 36.79A14.84 14.84 0 0 0 38.4 17.43a14.84 14.84 0 1 1-24.55 15.09 14.8 14.8 0 0 0 10.42 4.27Z" fill="#B0B0B0" /><path d="M41 28a5 5 0 1 1-10 0 5 5 0 0 1 10 0Z" fill="#1A2B4D" /><path d="M40 27.6a4.36 4.36 0 1 1-8.73 0 4.36 4.36 0 0 1 8.73 0Z" fill="#5473AD" /><path d="M38.15 25.7a3.25 3.25 0 0 0-4.46 4.46 3.25 3.25 0 1 1 4.46-4.47Z" fill="#A9BCE1" /><defs><linearGradient id="alcjinfam" x1="22.06" y1="23.69" x2="37.32" y2="39.27" gradientUnits="userSpaceOnUse"><stop stop-color="#FDFDFD" /><stop offset=".68" stop-color="#C9C9C9" /></linearGradient></defs></svg>