<?xml version='1.0' encoding='utf-8'?>
<!-- by TradeStack -->
<svg width="56" height="56" viewBox="0 0 56 56" xmlns="http://www.w3.org/2000/svg"><path fill="#F0F3FA" d="M0 0h56v56H0z" /><path d="M25.89 22.4c-3.8 0-5.15 2.23-5.36 3.35-1.26.5-3.17.24-.8-4.74 2.99-6.22 14.93-5.4 16.58-4.76 1.64.66 8.38 5.8 8.38 13.94 0 6.5-6.35 11.38-9.52 13 .68-1.2 2.04-4.53 2.04-8.25 0-9.17-6.58-12.55-11.32-12.55Z" fill="url(#az4ka0g1e)" /><path d="M18.8 27.78c-1.26 0-1.59-.35-1.6-.55-.03.66-.63 2.15-2.92 2.15-2.34 0-3.28-2.24-3.28-3.95S12.64 11 27.39 11C42.13 11 45 23.87 45 27.14c0 2.61-.46 4.63-.7 5.3 1.57-7.92-5.13-15.52-14.36-15.52-9.24 0-9.4 8-9.4 8.5 0 .51-.06 2.36-1.74 2.36Z" fill="url(#bz4ka0g1e)" /><path d="M22.9 33.86c-3.85 3.01-9.1 2.16-11.25 1.36 1.28 2.8 5.87 8.64 13.97 9.63 2.48-1.02 7.44-4.55 7.44-10.5 0-7.55-5.23-10.22-7.84-10.6 1.66 1.84 2.5 6.33-2.32 10.1Z" fill="url(#cz4ka0g1e)" /><path d="M32.77 44.15c-1.3.65-4.41.84-5.8.85 1.62-1.05 5.15-4.08 6.28-7.8 1.13-3.7.15-7.1-.48-8.32 1.02.73 3.07 3.14 3.07 6.95a14 14 0 0 1-3.07 8.32Z" fill="url(#dz4ka0g1e)" /><defs><linearGradient id="az4ka0g1e" x1="21.97" y1="22.05" x2="31.33" y2="43.34" gradientUnits="userSpaceOnUse"><stop stop-color="#21AFD1" /><stop offset="1" stop-color="#21AFD3" /></linearGradient><linearGradient id="bz4ka0g1e" x1="10.18" y1="25.88" x2="44.16" y2="25.88" gradientUnits="userSpaceOnUse"><stop offset=".08" stop-color="#2950A2" /><stop offset="1" stop-color="#1CDFEC" /></linearGradient><linearGradient id="cz4ka0g1e" x1="32.53" y1="29.47" x2="13.74" y2="33.79" gradientUnits="userSpaceOnUse"><stop stop-color="#0E179C" /><stop offset="1" stop-color="#2A6EF4" /></linearGradient><linearGradient id="dz4ka0g1e" x1="36.46" y1="32.03" x2="31.58" y2="45.07" gradientUnits="userSpaceOnUse"><stop stop-color="#131B9D" /><stop offset="1" stop-color="#2662E9" /></linearGradient></defs></svg>