<!-- by TradeStack --><svg width="56" height="56" viewBox="0 0 56 56" xmlns="http://www.w3.org/2000/svg"><path fill="#F0F3FA" d="M0 0h56v56H0z"/><path d="M13 17.5c0-2.01 1.51-3.5 3.68-3.5 1.2 0 2.3.59 2.88 1.54l-1.46 1c-.3-.52-.82-.8-1.42-.8-1 0-1.68.71-1.68 1.75 0 1.03.7 1.76 1.68 1.76.63 0 1.14-.27 1.32-.8h-1.5V17H20v2.46c-.66.86-1.4 1.54-3.32 1.54C14.5 21 13 19.5 13 17.5ZM24.51 21A3.37 3.37 0 0 1 21 17.49 3.36 3.36 0 0 1 24.51 14 3.35 3.35 0 0 1 28 17.5c0 2.06-1.46 3.5-3.49 3.5ZM23 17.5c0 1.02.6 1.72 1.52 1.72.9 0 1.48-.7 1.48-1.72s-.57-1.7-1.48-1.7c-.92 0-1.52.68-1.52 1.7ZM34 19.36V21h-5v-7h2v5.36h3ZM35 21v-7h3.24c2.09 0 3.76 1.56 3.76 3.5 0 1.93-1.67 3.5-3.76 3.5H35Zm3.32-5.35H37v3.7h1.3c1.01 0 1.7-.87 1.7-1.86 0-.97-.68-1.84-1.68-1.84Z" fill="#FFC220"/><path d="M18 22h1.52v2h1.96v-2H23v5h-1.52v-2h-1.96v2H18v-5ZM28.51 27A2.4 2.4 0 0 1 26 24.5a2.4 2.4 0 0 1 2.51-2.5A2.4 2.4 0 0 1 31 24.5a2.4 2.4 0 0 1-2.49 2.5Zm-1.1-2.5c0 .73.45 1.23 1.1 1.23.65 0 1.08-.5 1.08-1.23s-.43-1.22-1.07-1.22c-.66 0-1.11.5-1.11 1.22ZM35.33 27H34v-5h2.3c.88 0 1.6.68 1.6 1.66 0 .68-.34 1.2-.82 1.47L38 27h-1.42l-.8-1.68h-.45V27Zm.74-3.81h-.74v1h.74c.29 0 .47-.26.47-.53s-.17-.47-.47-.47ZM40 27v-5h4v1h-2.41v1h2.08v1h-2.08v1H44v1h-4Z" fill="#E4A023"/><path d="m30.45 32.52.4-.18.77.25c-.18.03-.37.12-.61.13a.75.75 0 0 1-.56-.2Zm6.02-2.05c-.11.05-.83-.13-1.12-.28-.3-1.1 1.22-.08 1.12.28Zm-1.12-.28c.24.57.81.45 1.22.8-.34.13-.58.02-.82-.13-.06.13-.2-.24 0 .22.12.3.47.26.7.42l-.47.05-.84-.21c.2.2.33.13.16.31-.25.26-1.4-.07-1.73-.17.05-.13.07.1.32-.36.43.2.36.27.96.23-.08-.3-.15-.23-.29-.42.32.05.4.12.66 0l-.45-.4.58-.34Zm-.2 3.4c-.74-.06-.86.1-1.25-.55a5.1 5.1 0 0 1 1.26.55Zm-15.4-1.63.34-.58c-.29.18-.56.37-.92.33.13-.2.02-.1.2-.23.58-.32.17-.4.57-.53.25.29-.3.21.56.36-.32.49-.69.16.38.5-.35.4-.59.27-1.13.15Zm.3-1.16.01-.27c.3 0 .57.01.74.3l-.76-.03Zm-.11-.54-.18.3c-.3.3-.73.54-1.14.25.52-.22.4-.02.2-.33.38.04.87-.41.82-.78-.42.48-.47.36-1 .48.18-.47.34-.26.45-.65-.22.1-.2.16-.5.14l.29-.27c.1-.09.22-.15.19-.3-.02 0-.04-.02-.05 0l-.37.1c.28-.7-.42-.12.29-.99-.02-.07-.34-.2-.38-.22 0-.34.09-.8-.06-1.08-.3.33-.08 1.01-.1 1.47-.04.01-.3-.13-.43-.07.12.25.14.18.25.35.26.38-.3.17-.08.47.21.3.2 0 .27.45a9.07 9.07 0 0 1-.97-.46c.04.27.29.5.5.65.16.12 0 .07.28.1-.3.13 0 .04 0 .41-.43-.16-.24-.4-.42-.07l-.6-.37c.12.54.69.55 1.02.85-.37.19-.6-.05-.86-.3l.15.27c.21.49.24.3.62.59-.67.1-.56-.1-1.12-.16l.23.47c.3.07.48.05.67.25-.23.12-.57-.12-.86-.13.14.36.18.38.45.6-.26.31-.16.38.26.43-.01.01-.07.47-.8-.05-.23-.17-.27-.31-.62-.36.26.4.3.44.6.78l-.3.23.47.02a.22.22 0 0 0-.09.27c.44-.02.68-.35.83.09-1.04.26-.78.2-1.77.02l.45.4c-.25.22-.14-.02-.44.16.54.15.16.4.7.17l.15.42v.04c.45-.1.45-.18.64-.16l.05.01c-.46.5-.74.25-1.4.22l.39.32-1.27-.04c.1.21.63.41.85.44l-.37.36c.4-.07.68-.35 1.02-.1-.26.18-.76.14-.72.25.04.1.21.07.32.15-.18.25-.09.02-.14.3.2.04.3.03.46.16-.47.21-.58.34-1.1.39-.61.06-.64.17-.96.52-.32.34-5.72 1.31-6.71 2.28 7.35-1.1 12.8-1.5 20.49-1.5 6.2 0 12.9.68 19.51 1.5-.37-.15-.77-.25-1.19-.42a35.32 35.32 0 0 0-5.53-1.73c-.56-.13-1.04-1.05-2.24-1.37l-1.3-.49c.42 0 .51.17 1 0-.2-.22-.28-.1-.5-.36.43.1.56.32 1.09.38.06-.15.02-.13-.08-.3.27.02.3.06.55-.05l.43-.2c-.34-.24-.65-.05-.97-.3.5-.13.73 0 1-.4-.27-.13-.27-.01-.56-.01-.86.01.28-.1-.45-.17-.68-.08-.65.06-1.39-.17.33-.16 1.11-.3 1.47-.34.22-.34.52-.47.61-.74-.29.06-.55.18-.86.22a4.1 4.1 0 0 1-1.46-.18c.56-.27.84.16 1-.32.26-.1.44-.15.64-.27-.37-.3-1.24.1-1.71.16l.85-.58-.32-.1c.38-.25.5-.24.68-.68l-1.1.51c-.23.04-.08.05-.2-.04.16-.47.67-.12.83-.62.1-.34.38-.45.47-.84-.75.2-.52.75-1.72.57.35-.34.38-.3.9-.69.25-.2.21-.06.3-.44-.57.38-.47.31-1.15.48 0-.43.24-.16.48-.62-.3.1-.34.21-.58.09.56-.37.38-.35.7-.72-.22.15-.35.3-.66.3l.18-.22c-.24-.15-.14 0-.27-.38l.46-.31c-.37-.25-.44.47-.45-.75 0-.33.06-.26-.11-.47-.43.73.33 1.37-.31 1.36l-.29-.14c.03.1.4.75.49.83-.27-.02-.12-.01-.37-.17.15.49.39.23.37.63-.06-.03-.37-.25-.38-.16l-.06.17a2.25 2.25 0 0 1-.37-.23c-.25-.18-.19-.06-.32-.35l-.14.09c-.32.05-1.7.65-1.69.66 0 .02.02 0 .07-.03.13-.06.29-.12.4-.2-.05-.24.03-.15-.01-.3-.08-.26-.08.02-.16-.33l.47-.11c-.06-.25-.04.01-.18-.3.17-.13.27-.15.3-.44-.35.05-.73.27-.87.27-.39.03-.19 0-.28-.07.22-.24.67-.27 1.02-.43.08-.45-.13-.02-.03-.32.05-.14.14-.1.25-.33-.57.05-1 .57-1.52.17.25-.12.44-.03.61-.28l.04-.08.02-.03c.37-.53-.07-.13.18-.47.08-.12.1-.11.17-.16l.08-.33c-.43.2-.23.33-.74.53l-.03.01c-.2.08-.07.24-.42.06.17-.26.5-.25.78-.52.41-.4.56-.48.58-.8-.25.23-.6.47-.99.65.13-.28.14-.07.23-.44l-.23.15c-.11.25-.15.32-.45.37l-.1-.24c.37-.26.47-.21.14-.46.86-.06.28-.13.63-.45.26-.23.38-.22.48-.68-.34.2-.45.5-.9.76.05-.36.29-.1 0-.43-.12.2-.15.33-.4.38-.02-.2.53-1.13.34-.95-.59.57-.1-.09-.06-.37 0-.07-.16-.08.3-.56l.01-.23-.42.49c.07-.18.12-.2.08-.45l-.28-.12c.05-.58.24-1.4-.08-1.9a.55.55 0 0 0-.12.32l-.02 1.5c-.2-.2-.11-.19-.23-.44-.04.56.48.86-.26.4.1.55.15.32.4.6.43.46-.24.2.04 1.16-.39-.1-.4-.28-.7-.46.17.32.14.19.04.52.35.11.37.16.6.46.1.13.03-.07.08.15-.3.14-.38-.1-.66-.21.09.52.58.45.6 1-.45-.07-.35-.26-.7-.14-.17.06-.3-.4-.66-.61.14.91.72.57.58 1.21.4.45.7.27.81.54-.28.21-.75.15-1.06-.02-.33-.18-.62-.67-.89-.86-.02.33.12.57.2.84l-.55.44-.08-.28c-.18.18-.16.28-.43.3.04-.45.35-.27.45-.81-.3.2-.08.16-.41.27.38-.72.15-.3.11-.54.26-.17.33-.21.44-.57-.32.2-.43.4-.93.62.07.14.06.16.08.25-.37-.05-.18.08-.01.33-.48-.1-.59-.42-.74-.37.03.03.73.95.73.97-.28 0-.38-.11-.61-.22.14.6.45.2.57.81-.2-.02-.51-.12-.54.05-.24-.2-.51-.54-.76-.66.03.39.33.56.51.76-.14.15-.37.3-.56.4-.7-.7-.09-.14-.9-.4-.34-.12-.32-.21-.34-.24l1.29-.12c-.2-.19-.35-.1-.59-.16l-.26-.12c.34-.08.9-.2 1.1-.47-.54-.3-1.76.59-2.5.12 1.87-.52 1.15-.56 1.6-.83l.38-.3c-.42-.07-.59.06-.93.14-.34.28-.96.24-1.25 0l.93-.24c-.07-.25.08-.05-.14-.23l.43-.12c-.06-.2-.09-.03-.18-.26.29-.23.4-.27.53-.62-.4.13-1.02.78-1.54.5.3-.2.84-.15 1.03-.34l.4-.53c.17-.17.31-.2.34-.53l-.41.23c-.2.21-.7.46-1.06.52.16-.16.33-.22.38-.52-.4.18-.5.6-.96.58.32-.1.4-.31-.16-.23.25-.12.36-.18.52-.35 0-.14-.2 0-.23-.22l.66-.03c-.03-.32-.31-.16.27-.53.36-.22.43-.22.56-.7-.53.28-.63.7-1.26.86l.23-.48c-.23.04-.28.1-.4.2-.27.26-.2.28-.42.16-.06-.32.38-.58.58-.7l.08-.41c-1.44.7.12-.51.19-1.25-.22.17-.33.37-.62.56.13-.27.16-.16.2-.5-.29.03-.29.05-.48.18.05-.47.36-2.5-.16-2.48-.02.99-.33 2.06-.18 2.37-.28-.05-.34-.2-.65-.33.18.84.63.3.79 1.06-.56.3.3 1.1-1.3.24.11.26.13.21.33.37-.04.2-.1.29-.1.33.36.3.6-.12.36.46.23 0 .51-.08.63.24-.32.35-.59-.06-.97-.2.07.76.88.49.82 1.15-.44.01-.54-.23-.95-.27.17.2.18.13.28.4-.39-.1-.74-.25-1.02-.49-.24-.04-.06-.03-.13.07l.12.32.65.25c.33.9 1.23-.15.4.63.6-.06.22-.07.7.25-.76.2-.42.13-1.32.04-.26-.03-.3-.08-.43-.2l-1-.43c.16.71.78.82 1.38 1.16l-.84.22c.22.2.37.15.72.16l.07.25c.06 0 .87.1.66.43l.4.07c-.78.17-.68-.01-1.24-.25-.32-.13-.86-.3-1.04-.6l-.16-.01.15.44c-.18.13-.27.23-.55.32.18-.48.28-.18.05-.75l-.11.05v-1.87c-.12-.19.1-.1-.22-.12-.1.66.06 1.09.02 1.7-.29-.27-.18-.12-.52-.28.02.2.38.9.48 1.16l-.37-.25c.13.68.36.27.42.83-.28-.07-.17-.12-.45-.3-.13.22.08.19 0 .33-.38-.24-.4-.46-.72-.61.13.43.2.32.41.57.23.26 0 .35.5.36-.25.6.42.31 0 .43-.2.06-.82-.45-.3.07-.34-.05-.67-.37-.88-.52.04.35.23.4.48.65.15.15.59.39.65.52-.28.11-.48-.07-.69-.24-.14-.12-.04-.07-.24-.19.44 1 .32.81.93 1-.47.36-1.34-.34-1.28-.08.02.12.2.13.17.35Zm1.39 2.18c.31.05.43.2.64.35.4.3.38.15.82.3.82.27.51.55 1.62.13.24.25 1.35.66 1.77.88-.52.12-.88-.35-1.06.23-.19-.24-.44-.58-.75-.67-.06.28-.03.52-.28.62v-.53c-.2.05-.38.2-.62.3-.01-.08-.04-.3-.08-.38-.46.15-.72 0-.79.02l-.45.25c0-.11.04-.22 0-.28-.36.04-.62.18-.96.03l.63-.23-.34-.11c.16-.08.38-.15.51-.27-.21-.2-.52-.35-.66-.64Zm1.53-.84.13.26c-.31.11-.59.12-.83.01.27-.07.45-.16.7-.27Zm8.39-.45-.35-.28.26-.11c.64-.17.34-.07.82-.02-.6.46-1.04-.2-.73.41Zm-3.63-.98c.3.15.45.25.73.42l-.36.17c.19.15.42.08.12.22-.2.08-1.14-.14-1.29-.5.44.06 1.67.46.87-.2-.24-.21.25.23-.07-.1Zm-4.9-.15c.74-.13.43-.24.88-.1.23.07.27-.01.58-.03-.09.12-.02.13-.26.23-.49.18-.9-.04-1.2-.1Zm5.16-.37c.43.14.9.47 1.2.42-.1.2-.06.23.01.43a3.39 3.39 0 0 1-1.21-.85Zm3.53-.62c-.12.15-.31.23-.15.4-.31.14-.7.44-1.15.12 1.13-.43.68-1.08 1.3-.52Zm-3.75-.34.17.42-.79.24c-.34-.02-.42-.12-.19-.23.72-.35-.3-.31.8-.43Zm-5.2.11c.44-.14.79-.16 1.03-.02-.1.34 0 .25-.42.2-.32-.04-.4-.02-.62-.18Zm6.73.17.33.15c-.33.17-.48.16-.9.05.05-.12.12-.23.2-.32.18-.19.12-.15.46-.16-.14.17-.41.2-.09.28Zm.82-.03c.2-.22.65-.37.97-.29-.16.21-.61.55-.97.3Zm2.13-.6c-.03.16-.07.3-.12.45-.2-.14-.66-.43-.83-.56.15-.2.06-.22.36-.24.11.36.28.43.6.35Zm-1.19-1.04a2 2 0 0 1 .34.46c-.32.2-.15.5-.59.16l-.26.28c-.13.13-.2.17-.36.25l-.01-.03c0 .02.01-.1-.2-.16.4-.15.45-.14.12-.35.65-.01.3-.16.96-.6Zm-8.6.24c.38.04.2-.03.55.32l.16.15c-.24.08-.52.08-.35.29.21.28.06-.14.07.07-.24.24-.35.23-.61.4-.11-.15.05-.18-.02-.28l-.5.2c0-.42.42-.38.5-.84-.26.13-.29.29-.57.15l.01-.03.25-.2c.27-.2.36-.56.39-.6.58.3-.02.02.11.37Z" fill="#0E423A"/><path d="m12 25.88 1-.71c.28.42.67.65 1.11.65.3 0 .54-.14.54-.32 0-.23-.26-.3-.89-.48-.78-.24-1.59-.56-1.59-1.54 0-.91.89-1.48 1.82-1.48.9 0 1.47.43 1.87 1.07l-.95.67a1.1 1.1 0 0 0-.93-.56c-.23 0-.46.1-.46.3 0 .23.29.34.65.44 1.07.3 1.83.66 1.83 1.58 0 1-1 1.5-1.9 1.5-.94 0-1.68-.41-2.1-1.12Z" fill="#E4A023"/></svg>