<!-- by TradeStack --><svg width="56" height="56" viewBox="0 0 56 56" xmlns="http://www.w3.org/2000/svg"><path fill="#F0F3FA" d="M0 0h56v56H0z"/><path fill-rule="evenodd" d="M13.47 21.79c.1.14.17.3.23.48h1.24a2.55 2.55 0 0 0-.94-1.64 3.2 3.2 0 0 0-4.12.3c-.28.3-.5.67-.65 1.1-.15.44-.23.93-.23 1.48 0 .72.13 1.34.4 1.86A2.91 2.91 0 0 0 12.12 27c.56 0 1.05-.11 1.48-.34.44-.23.77-.56 1.02-.99.25-.42.37-.93.37-1.51v-.82h-2.74v.97h1.56c-.01.3-.08.58-.2.82a1.4 1.4 0 0 1-.6.56c-.24.14-.54.2-.88.2-.38 0-.71-.09-1-.27-.29-.19-.5-.46-.67-.82-.16-.36-.24-.8-.24-1.3 0-.52.08-.95.24-1.3.16-.36.39-.63.67-.82.28-.18.6-.27.97-.27.2 0 .39.02.56.08a1.48 1.48 0 0 1 .8.6ZM38.16 27h1.1l.63-2h2.3l.62 2h1.2l-2.3-7h-1.3l-2.25 7Zm3.7-3-.8-2.56h-.05l-.8 2.56h1.66Zm-23.08 7.96a.92.92 0 0 0-.38-.67 1.4 1.4 0 0 0-.85-.25c-.25 0-.46.04-.64.12a.94.94 0 0 0-.4.32.79.79 0 0 0-.05.82c.06.1.15.2.26.26.1.08.23.14.36.18.13.05.26.1.4.13l.6.16c.25.06.49.14.71.24.23.1.44.23.62.38A1.7 1.7 0 0 1 20 35c0 .4-.1.75-.3 1.05-.19.3-.47.54-.84.7-.37.18-.81.26-1.33.26-.5 0-.95-.08-1.32-.25-.37-.16-.66-.4-.87-.71a2.2 2.2 0 0 1-.34-1.15h1.16c.02.23.09.43.21.59.12.16.28.27.48.35.2.08.42.12.67.12.26 0 .48-.04.67-.12.2-.08.35-.2.46-.34a.84.84 0 0 0 .17-.51.67.67 0 0 0-.15-.44 1.1 1.1 0 0 0-.41-.3 3.84 3.84 0 0 0-.61-.2l-.74-.2a2.94 2.94 0 0 1-1.27-.66c-.31-.3-.47-.69-.47-1.17 0-.4.1-.76.31-1.06.21-.3.5-.53.86-.7.36-.17.77-.25 1.22-.25.47 0 .87.08 1.22.25a2 2 0 0 1 .82.7c.2.3.3.63.31 1.01h-1.13ZM20 30v1h2v6h1.04v-6h2.04v-1H20Zm11 3.5c0 1.8-1.05 3.5-3 3.5s-3-1.7-3-3.5 1.05-3.5 3-3.5 3 1.7 3 3.5Zm-1 0c0-1.12-.7-2.5-2-2.5s-2 1.38-2 2.5c0 1.13.7 2.5 2 2.5s2-1.37 2-2.5Zm2 3.5h1v-2.56h1.4L35.7 37h1.33l-1.45-2.82c.6-.35.92-1.02.92-1.94 0-1.38-.68-2.24-2.03-2.24H32v7Zm1-3.62h1.3c.73 0 1.27-.36 1.27-1.14 0-.78-.54-1.24-1.28-1.24H33v2.38ZM38 37h4v-1h-3v-2h2.77v-1H39v-2h3v-1h-4v7Zm6.93-10v-7H46v6h3v1h-4.07ZM33 20v7h1v-2.56h1.4L36.67 27H38l-1.44-2.82c.62-.34.94-1.02.94-1.94 0-1.37-.7-2.24-2.05-2.24H33Zm2.28 3.38H34v-2.32h1.27c.75 0 1.23.4 1.23 1.18 0 .78-.48 1.14-1.22 1.14ZM28 27v-7h3.98v1H29v2h2.77v1H29v2h3v1h-4Zm-1 0v-7h-1v4.77h-.15L22.99 20H22v7h1v-4.77h.15L26.02 27H27Zm-11 0v-7h4.26v1.06H17v1.9h3.04v1.07H17v1.9h3.28V27H16Z"/></svg>