<!-- by TradeStack --><svg width="56" height="56" viewBox="0 0 56 56" xmlns="http://www.w3.org/2000/svg"><path fill="#F0F3FA" d="M0 0h56v56H0z"/><path d="M14 34v-7.05c0-.53.44-.95 1-.95v8h-1ZM20.16 33.95v-3.2c0-1.3-.52-1.87-1.59-1.87-.75 0-1.29.41-1.57 1.03V34h-1v-6h1v.62c.47-.41.92-.62 1.62-.62 1.5 0 2.38 1.03 2.38 2.74V34h-.84v-.05ZM25.14 34A3.1 3.1 0 0 1 22 30.97c0-1.62 1.46-2.98 3.14-2.98.75 0 1.37.2 1.86.55V26c.54 0 1 .42 1 .93V34h-1v-.56c-.49.36-1.16.56-1.86.56Zm0-5c-1.2 0-2.14.8-2.14 1.97 0 1.16 1 2.03 2.14 2.03.8 0 1.54-.31 1.86-.87v-2.2c-.32-.62-1.05-.93-1.86-.93ZM30.73 34c-1.08 0-1.73-.78-1.73-2.03V28c.54 0 1 .42 1 .94v3.03c0 .36.03 1.03.78 1.03H31v1h-.27ZM34.37 34a2.96 2.96 0 0 1-2.87-3.03A2.98 2.98 0 0 1 34.37 28c.7 0 1.18.2 1.63.55V28h1v6h-1v-.55c-.45.35-.98.55-1.63.55Zm0-5c-1.09 0-1.87.82-1.87 1.97 0 1.16.83 2.03 1.87 2.03.75 0 1.33-.31 1.63-.87v-2.31c-.3-.61-.88-.82-1.63-.82ZM42.5 33.95v-3.2c0-1.3-.62-1.75-1.77-1.75-.8 0-1.43.3-1.73.91V34h-1v-6h1v.62a2.6 2.6 0 0 1 1.78-.62c1.6 0 2.72 1.03 2.72 2.74V34h-1v-.05ZM47.37 34a2.96 2.96 0 0 1-2.87-3.03A2.98 2.98 0 0 1 47.37 28c.7 0 1.18.2 1.63.55V28h1v6h-1v-.55c-.45.35-.93.55-1.63.55Zm0-5c-1.09 0-1.87.82-1.87 1.97 0 1.16.83 2.03 1.87 2.03.75 0 1.33-.31 1.63-.87v-2.31c-.3-.61-.83-.82-1.63-.82ZM10.55 32.38a6.31 6.31 0 0 1 0-8.72 6.5 6.5 0 0 1 1.69-1.21c.6.6 1.28 1.11 2.03 1.52-.8.25-1.54.7-2.13 1.36a5.42 5.42 0 0 0-1.59 3.9v3.15Z" fill="#182A53"/><path d="M10.55 34c-.89-.4-1.63-.91-2.32-1.62A7.88 7.88 0 0 1 6 26.85c0-2.07.8-4.05 2.23-5.52a6.9 6.9 0 0 1 2.13-1.52c.3.66.69 1.32 1.14 1.88-.6.3-1.14.7-1.64 1.21a7.37 7.37 0 0 0 .74 10.85V34h-.05Z" fill="#2AACE2"/><path d="M20.6 26.4A5.4 5.4 0 0 0 17 23.76c-.05 0-.15-.05-.25-.05h-.05a7.7 7.7 0 0 1-3.9-2.13l-.1-.1a7.22 7.22 0 0 1-1.4-2.07c.1-.06.16-.06.25-.06.2.16.4.41.6.61a6.76 6.76 0 0 0 3.61 1.98c.1 0 .15.05.25.05 1.14.25 2.23.81 3.07 1.67.25.26.44.5.64.81.45.61.75 1.22.9 1.93Z" fill="#182A53"/><path d="M21 24.57a8.67 8.67 0 0 0-1.24-1.67 6.76 6.76 0 0 0-3.61-1.97c-.1 0-.15-.05-.2-.05a6.1 6.1 0 0 1-3.12-1.68l-.15-.15c.35-.05.65-.05 1-.05.39 0 .83.05 1.23.1h.05a7.43 7.43 0 0 1 4.16 2.18l.1.1c.7.76 1.24 1.62 1.63 2.59 0 .2.1.4.15.6Z" fill="#2AACE2"/></svg>