<!-- by TradeStack --><svg width="56" height="56" viewBox="0 0 56 56" fill="none" xmlns="http://www.w3.org/2000/svg">
<rect width="56" height="56" fill="#F0F3FA"/>
<path d="M27.6841 29.2188L18.8388 47C16.513 43.8485 12.4171 36.6236 14.6405 32.9364C16.8638 29.2491 24.2742 28.9233 27.6841 29.2188Z" fill="#0EA6B5"/>
<path d="M30.1327 24.3091L38.1154 8C37.719 8.53304 36.2609 9.70991 33.6 10.1531C30.2738 10.7071 27.0665 12.8834 26.7101 17.3944C26.425 21.0032 28.8731 23.5079 30.1327 24.3091Z" fill="#75CEDB"/>
<path d="M38.3178 15.5107L36.7946 10.6875L27.561 29.4477C34.3938 29.2246 36.8441 27.0268 38.3178 24.2133C39.507 21.9431 38.8984 17.3851 38.3178 15.5107Z" fill="#0098B1"/>
<path d="M35.481 37.3897C37.5222 32.4722 32.7285 26.6034 30.1011 24.2812L21.5386 41.4877C25.3355 42.1707 33.4397 42.3073 35.481 37.3897Z" fill="#003E51"/>
<path fill-rule="evenodd" clip-rule="evenodd" d="M33.6602 28.3888C32.5053 26.652 31.1381 25.1903 30.1052 24.2773L27.5386 29.4336C30.1558 29.348 32.1334 28.9748 33.6602 28.3888Z" fill="#005C74"/>
</svg>
