<!-- by TradeStack --><svg width="56" height="56" viewBox="0 0 56 56" xmlns="http://www.w3.org/2000/svg"><path fill="url(#ahx23up02)" d="M0 0h56v56H0z"/><path d="M30 27h-3v7.72c-.89.63-2.9 1.28-5.73 1.28-2.81 0-8.27-2.69-8.27-8 0-5.31 3.14-9 8-9 3.9 0 6.5 1.6 7.19 2.47L30 19.41C27.72 16.63 24.44 16 21 16c-3.44 0-11 3.03-11 11 0 7.97 5.06 12 11.27 12 4.98 0 7.9-2.06 8.73-3.1V27Z" fill="#A6CE3A"/><path d="M31.87 35.55 29 37.03c2.2 2.86 4.67 3.97 7.93 3.97 3.25 0 8.07-1.7 8.07-6.5 0-4.79-4.47-6.17-7.65-6.93-3.18-.76-4.85-2.09-4.85-3.45 0-1.37 1.23-3.12 4.36-3.12 2.51 0 4.15 1.26 4.66 1.92l2.56-1.58C42.18 18.56 38.74 18 37.2 18c-1.54 0-7.69.37-7.69 6.12s6.26 6.42 8.53 7.07c2.28.65 3.97 1.37 3.97 3.17 0 1.8-1.45 3.64-5.07 3.64a5.96 5.96 0 0 1-5.06-2.45Z" fill="#FFFEFF"/><defs><linearGradient id="ahx23up02" x1="28" y1="0" x2="28" y2="56" gradientUnits="userSpaceOnUse"><stop stop-color="#645C49"/><stop offset=".87" stop-color="#2D2D2B"/></linearGradient></defs></svg>