<!-- by TradeStack --><svg width="56" height="56" viewBox="0 0 56 56" xmlns="http://www.w3.org/2000/svg"><path fill="#F0F3FA" d="M0 0h56v56H0z"/><path d="M29.43 22.35c1.3-1.36 4.85-3.82 9.01-2.99l.22-1.2c-4.73-.93-8.69 1.86-10.1 3.38l-.04.05-5.84 9.48.95.68 5.8-9.4Z" fill="url(#al1u3f5qf)"/><path d="M18.12 14.75a28.8 28.8 0 0 1 7.28 3.9l-.67.98a27.66 27.66 0 0 0-6.97-3.74 11.05 11.05 0 0 0-3.78-.69c-1.15.03-2.1.36-2.84 1.05a3.38 3.38 0 0 0-.97 2.19c-.09 1.14.26 2.8 1.87 5.11 2.18 3.13 6.73 7.64 11.42 10.65 2.34 1.5 4.67 2.6 6.72 3 2.04.38 3.7.05 4.88-1.17.5-.65.92-2.17.07-4.58-.85-2.43-3-5.7-7.58-9.67l.75-.92c4.67 4.04 6.97 7.48 7.92 10.18.95 2.69.56 4.7-.27 5.77l-.02.02-.02.02c-1.55 1.62-3.67 1.95-5.93 1.52-2.26-.43-4.73-1.61-7.13-3.16-4.8-3.08-9.48-7.69-11.75-10.96-1.71-2.45-2.2-4.4-2.08-5.9.11-1.51.83-2.47 1.33-2.97a5.25 5.25 0 0 1 3.6-1.38c1.33-.04 2.77.27 4.17.75Z" fill="url(#bl1u3f5qf)"/><path d="M20.36 18.66c2.13-1.1 3.94-.75 5.02-.04l-.62 1.01c-.72-.48-2.1-.82-3.89.1-1.8.92-4.05 3.14-6.4 7.85a23.02 23.02 0 0 0-1.56 6.06c-.11 1.1-.08 2.13.14 2.98.21.84.6 1.47 1.2 1.85.55.35 1.18.33 1.94-.03a8.93 8.93 0 0 0 2.44-1.96c1.5-1.6 2.86-3.64 3.77-5l.3-.43.94.69-.28.42c-.9 1.35-2.33 3.48-3.9 5.15-.87.93-1.82 1.75-2.78 2.21-.98.47-2.05.6-3.03-.03a4.13 4.13 0 0 1-1.72-2.56 10.05 10.05 0 0 1-.18-3.41 24.25 24.25 0 0 1 1.67-6.43v-.02l.02-.02c2.4-4.84 4.8-7.31 6.92-8.4Z" fill="url(#cl1u3f5qf)"/><path d="M27.46 19.87c0 .56-.46 1.01-1.02 1.01-.57 0-1.03-.45-1.03-1 0-.57.46-1.02 1.03-1.02.56 0 1.02.45 1.02 1.01ZM44.02 19.47c0 .56-.47 1.01-1.03 1.01-.57 0-1.03-.45-1.03-1 0-.57.46-1.02 1.03-1.02.56 0 1.03.45 1.03 1.01ZM46.95 20.48c0 .7-.57 1.25-1.27 1.25-.7 0-1.26-.56-1.26-1.25 0-.68.57-1.24 1.26-1.24.7 0 1.27.56 1.27 1.24ZM50 22.5a1.5 1.5 0 1 1-3 0 1.5 1.5 0 0 1 3 0Z" fill="#88047C"/><path d="M28.96 32.82c0 .9-.73 1.62-1.64 1.62-.9 0-1.64-.72-1.64-1.62 0-.89.74-1.61 1.64-1.61.9 0 1.64.72 1.64 1.61Z" fill="url(#dl1u3f5qf)"/><path d="M41 39.5a1.5 1.5 0 1 1-3 0 1.5 1.5 0 0 1 3 0Z" fill="url(#el1u3f5qf)"/><path d="M38 36a3 3 0 1 1-6 0 3 3 0 0 1 6 0Z" fill="url(#fl1u3f5qf)"/><path d="M41.19 18.66c0 .45-.37.81-.83.81a.82.82 0 0 1-.83-.81c0-.45.37-.81.83-.81.46 0 .83.36.83.8Z" fill="#88047C"/><defs><linearGradient id="al1u3f5qf" x1="36.9" y1="18.59" x2="22.58" y2="30.71" gradientUnits="userSpaceOnUse"><stop stop-color="#860077"/><stop offset=".42" stop-color="#59A5CC"/><stop offset="1" stop-color="#811280"/></linearGradient><linearGradient id="bl1u3f5qf" x1="22.89" y1="14.6" x2="31.85" y2="37.75" gradientUnits="userSpaceOnUse"><stop stop-color="#6DC594"/><stop offset=".26" stop-color="#84C457"/><stop offset="1" stop-color="#55BBCA"/></linearGradient><linearGradient id="cl1u3f5qf" x1="25.41" y1="28.08" x2="14.04" y2="24.02" gradientUnits="userSpaceOnUse"><stop stop-color="#860077"/><stop offset="1" stop-color="#55A3CB"/></linearGradient><linearGradient id="dl1u3f5qf" x1="25.68" y1="32.82" x2="28.96" y2="32.82" gradientUnits="userSpaceOnUse"><stop stop-color="#AACAE3"/><stop offset="1" stop-color="#CD8CCC"/></linearGradient><linearGradient id="el1u3f5qf" x1="38" y1="39.5" x2="41" y2="39.5" gradientUnits="userSpaceOnUse"><stop stop-color="#AACAE3"/><stop offset="1" stop-color="#CD8CCC"/></linearGradient><linearGradient id="fl1u3f5qf" x1="32" y1="36" x2="38" y2="36" gradientUnits="userSpaceOnUse"><stop stop-color="#B9DEAA"/><stop offset="1" stop-color="#A5DFE7"/></linearGradient></defs></svg>