<!-- by TradeStack --><svg viewBox="0 0 56 56" xmlns="http://www.w3.org/2000/svg"><path fill="#F0F3FA" d="M0 0h56v56H0z"/><path d="m14.48 17.3-1.36.06a.16.16 0 0 0-.12.07l-.23.34-.03.02a.05.05 0 0 1-.05-.02v-.03l.16-.68c.01-.04.04-.06.08-.06h3.86c.06 0 .08.05.08.1v.74l-.04.02a.05.05 0 0 1-.05-.05c-.05-.62-1.17-.52-1.6-.49-.05 0-.09.04-.08.1l.02 4.22c0 .05.02.1.06.13.13.11.53.16.54.18.02.03.01.05-.02.05h-1.53l-.01-.03a.04.04 0 0 1 .02-.04l.29-.12a.12.12 0 0 0 .07-.11l.04-4.3a.1.1 0 0 0-.1-.1ZM21.35 19.48A1.84 1.84 0 0 1 21.1 21a2.31 2.31 0 0 1-2.99.73c-.5-.26-.85-.7-.98-1.21a1.84 1.84 0 0 1 .25-1.52c.15-.23.34-.43.57-.59a2.31 2.31 0 0 1 2.41-.14c.5.26.85.7.99 1.21Zm-1.22-.98c-.6-.45-1.6-.36-2.08.15-.6.64-.54 1.86 0 2.55.47.6 1.47.77 2.12.36 1-.64.85-2.41-.04-3.06ZM23.04 21.8l.37.1c.04.02.04.04.01.06-.03.02-1.03 0-1.19.02l-.04-.01a.06.06 0 0 1-.03-.03l-.01-.04c0-.01 0-.02.02-.02.27 0 .4-.1.4-.33a4663.24 4663.24 0 0 0 .03-3.51.1.1 0 0 1 .04-.03.1.1 0 0 1 .06 0 .1.1 0 0 1 .05.02l3.23 3.13.03.01h.03l.02-.02.01-.03c-.04-.85-.06-1.72-.05-2.6 0-.26-.14-.4-.42-.39-.03 0-.06 0-.08-.02a.07.07 0 0 1-.03-.04c0-.02 0-.03.03-.03l1.05.02c.16 0 .16.03.02.08l-.15.06c-.06.02-.08.06-.08.11l-.01 3.6a.1.1 0 0 1-.02.07l-.03.02h-.03l-.05-.01a91.57 91.57 0 0 1-3.27-3.08c-.06-.07-.1-.06-.1.03l.09 2.73c0 .03 0 .06.03.08.01.02.04.04.07.05ZM36.02 21.8l.37.1c.04.02.04.04.01.06-.03.02-1.02 0-1.19.02l-.04-.01a.06.06 0 0 1-.03-.03l-.01-.04c0-.01 0-.02.02-.02.27 0 .4-.1.4-.33a4657.46 4657.46 0 0 0 .03-3.51.1.1 0 0 1 .04-.03.1.1 0 0 1 .06 0 .1.1 0 0 1 .05.02l3.24 3.13.02.01h.03l.02-.02.01-.03a43.7 43.7 0 0 1-.05-2.6c0-.26-.13-.4-.41-.39-.04 0-.07 0-.09-.02a.07.07 0 0 1-.03-.04c0-.02 0-.03.03-.03l1.05.02c.16 0 .16.03.02.08l-.15.06c-.05.02-.08.06-.08.11v3.6a.1.1 0 0 1-.02.04l-.01.03-.03.02h-.03l-.05-.01a91.49 91.49 0 0 1-3.27-3.08c-.06-.07-.1-.06-.1.03l.09 2.73c0 .03 0 .06.03.08.01.02.04.04.07.05ZM40.38 21.44c.37.56 1.45.52 1.7-.1.42-1.02-2.05-1.34-1.75-2.58.2-.84 1.31-.85 2.06-.66.04 0 .05.03.05.06l-.03.5c0 .1-.03.11-.07.02l-.1-.22a.18.18 0 0 0-.07-.08c-.63-.4-1.88-.1-1.33.75.4.62 1.45.7 1.68 1.56.35 1.31-1.21 1.48-2.25 1.19-.07-.02-.1-.06-.1-.12l.05-.66c0-.01 0-.03.02-.04h.07l.02.04v.21c0 .05.02.09.05.13ZM28.37 21.8l.36.1c.04.01.05.07.03.1h-1.32c-.03 0-.06-.03-.07-.06l-.01-.03h.01l.28-.1c.05-.02.08-.05.08-.1.03-1.08.04-2.16.03-3.24 0-.26-.14-.38-.41-.37-.05 0-.07-.05-.04-.1a33.16 33.16 0 0 1 1.33.02l.03.04c0 .04 0 .05-.04.05-.22 0-.34.07-.35.28a10.12 10.12 0 0 0-.01 1.4l.03.02h.03c.02 0 .03 0 .04-.02l1.56-1.47a.1.1 0 0 0 .03-.05.1.1 0 0 0-.01-.06l-.05-.09c-.02-.04 0-.11.05-.11h.97l.01.01.01.02v.04c0 .01 0 .02-.03.03-.66.1-1.42.92-2.13 1.6-.04.03-.04.07 0 .1.68.7 1.75 1.84 2.72 2.1.07.02.06.04 0 .05-.64.12-1.08-.01-1.58-.45a31.57 31.57 0 0 1-1.6-1.5h-.04a.07.07 0 0 0-.03.02l-.01.03.05 1.65c0 .05.03.08.08.1ZM32.82 18.3v1.38c0 .05.02.07.08.08.41.05.82.03 1.21-.06.05-.01.07 0 .07.05l-.06.64c0 .02 0 .02-.02.02l-.05-.02v-.02c.07-.5-.82-.39-1.15-.4-.06 0-.08.02-.08.07v1.46c0 .06.02.12.06.16.04.05.1.08.16.1.41.07 1.3.15 1.3-.43 0-.02.02-.03.04-.03l.03.01c.02.01.02.02.02.04l-.06.49c0 .04-.03.08-.07.11a.2.2 0 0 1-.13.05h-2.2c-.04 0-.09-.05-.08-.07.01-.03.03-.05.07-.05.2-.01.29-.11.29-.29v-3.16c0-.16-.08-.26-.24-.3l-.16-.06-.03-.01v-.03l.01-.02.03-.01h2.28c.04 0 .13.06.13.1l-.05.47v.03l-.04.01h-.02l-.02-.03-.04-.15a.23.23 0 0 0-.09-.12.25.25 0 0 0-.14-.05l-.98-.02c-.05 0-.07.02-.07.07ZM23.64 25.73v-.53a.14.14 0 0 0-.06-.11l-.04-.03c-.03-.02-.03-.04 0-.04l.3-.03c.04 0 .06.02.06.06l-.02.75c0 .04-.02.07-.05.08-2.33.78-2.39-2.54-.01-1.76.04.02.07.05.07.1s0 .11-.03.17c-.04.07-.06.07-.08 0v-.04a.11.11 0 0 0-.08-.1c-1.97-.72-1.78 2-.12 1.57.04-.02.06-.04.06-.09ZM35.87 25.73v-.53a.14.14 0 0 0-.06-.11l-.04-.03c-.03-.02-.03-.04 0-.04l.3-.03c.04 0 .06.02.06.06l-.02.75c0 .04-.02.07-.05.08-2.33.78-2.39-2.54-.01-1.76.04.02.07.05.07.1s0 .11-.04.17c-.03.07-.05.07-.07 0v-.04a.11.11 0 0 0-.08-.1c-1.97-.72-1.78 2-.12 1.57.04-.02.06-.04.06-.09ZM20.46 25.33c-.1.17-.16.36-.18.56 0 .03-.02.05-.05.05l-.28.05h-.02v-.06l.09-.05a.16.16 0 0 0 .06-.07l.7-1.77a.06.06 0 0 1 .06-.04l.03.01.03.03c.2.52.49 1.5.88 1.88.07.07.06.1-.04.07l-.25-.05a.14.14 0 0 1-.1-.09l-.21-.52a.11.11 0 0 0-.1-.07h-.54c-.05 0-.05.02-.08.07Zm.6-.2a.05.05 0 0 0 .01-.05l-.21-.62a.05.05 0 0 0-.1 0l-.22.6v.04l.04.04h.48ZM32.69 25.33c-.1.17-.16.36-.18.56 0 .03-.02.05-.05.05l-.28.05h-.02a.03.03 0 0 1-.01-.04l.01-.02.09-.05a.16.16 0 0 0 .06-.07l.7-1.77a.06.06 0 0 1 .1-.03l.02.03c.2.52.48 1.5.88 1.88.07.07.06.1-.04.07l-.25-.05a.14.14 0 0 1-.1-.09l-.21-.52a.11.11 0 0 0-.1-.07h-.54c-.05 0-.05.02-.08.07Zm.6-.2a.05.05 0 0 0 .01-.05l-.21-.62a.05.05 0 0 0-.1 0l-.22.6v.04l.04.04h.48ZM26.79 25.97c-.95.08-.99-.19-1.51-.8h-.38c-.02.04-.02.1-.02.15v.47c0 .05.03.09.08.1l.08.04.02.01v.03l-.01.02-.02.01h-.44c-.04 0-.05-.03-.03-.06l.03-.04a.3.3 0 0 0 .04-.13v-1.53c0-.04.01-.09-.02-.1l-.06-.04c-.08-.05-.07-.07.01-.08.24-.01.47-.02.7 0 .63.03.73.64.28.99a.08.08 0 0 0-.04.06.08.08 0 0 0 .02.06l.64.66a.33.33 0 0 0 .3.1c.06 0 .23-.07.25-.13l.66-1.71c0-.02.02-.03.03-.04a.07.07 0 0 1 .1.03c.18.43.57 1.72.94 1.9V26l-.02.01-.35-.05a.08.08 0 0 1-.08-.06l-.21-.56a.1.1 0 0 0-.1-.07h-.54c-.06 0-.1.03-.1.08l-.2.59c0 .02-.02.04-.05.04Zm-1.9-1.8v.84a.06.06 0 0 0 .05.05h.19a.46.46 0 0 0 .42-.28.45.45 0 0 0 .04-.17v-.05a.45.45 0 0 0-.29-.41.46.46 0 0 0-.17-.04h-.19c-.02 0-.03 0-.04.02a.06.06 0 0 0-.02.04Zm2.26.88a.05.05 0 0 0 .01.05l.02.02H27.61a.06.06 0 0 0 .06-.05v-.02l-.22-.58a.06.06 0 0 0-.1 0l-.2.58ZM28.97 24.2c-.02-.07-.04-.11-.08-.12l-.01-.02a.03.03 0 0 1 0-.03l.02-.01c.4-.03 1.24-.08 1.29.44.02.2-.07.38-.27.55a.09.09 0 0 0-.03.05l.01.06c.22.34.5.62.85.83.06.04.05.05-.02.05-.7-.04-.9-1.02-1.43-.82a.11.11 0 0 0-.07.07.7.7 0 0 0 .15.7c.03.04.02.05-.03.05l-.4-.03c-.04 0-.05-.02-.03-.05l.04-.07a.22.22 0 0 0 .03-.11v-1.39c0-.05 0-.1-.02-.14Zm.24.04v.7c0 .03.01.06.03.08.03.02.06.04.09.04h.21a.4.4 0 0 0 .3-.14.46.46 0 0 0 .13-.32v-.03a.47.47 0 0 0-.13-.32.41.41 0 0 0-.3-.13h-.2a.12.12 0 0 0-.1.03.12.12 0 0 0-.03.09ZM45.3 29.73c-1.04-.19-2.36-.12-3.44-.03-.09 0-.1-.01-.02-.07.27-.2.48-.3.61-.33a7.64 7.64 0 0 0 2.9-1.06.1.1 0 0 1 .1.1l-.01 1.28a.12.12 0 0 1-.04.09.12.12 0 0 1-.1.02ZM41.07 29.57l-.01.05c-.01.04-.04.06-.08.06h-.09c-2.57-.12-4.78.04-7.76.25-2.22.16-4.57.53-6.77 1.24-1.92.62-3.46.71-5.66.62-3.29-.15-6.5-.39-9.83-.04-.2.02-.3-.07-.3-.28l.04-2.74c0-.04.03-.06.07-.06 1.41.07 2.4.19 2.96.36 2.1.63 4.26 1.07 6.46.95 2.44-.14 4.7-.76 7.1-1.17 1.02-.18 2.06-.14 3.11-.16.88-.02 1.79.19 2.73.12.57-.04 1.06.07 1.6.05 2.2-.12 4.28.4 6.43.75Z" fill="#377C14"/><path d="m41.54 29.78 3.78.08c.06 0 .09.03.08.09l-.03.12c0 .05-.03.07-.08.06-.1-.03-.19-.04-.3-.05a135.41 135.41 0 0 0-8.83 0c-2.7.23-5.46.62-8.2.93l-.04-.07c1.5-.36 3.11-.62 4.83-.78 2.79-.25 5.43-.38 7.93-.37l.86-.01Z" fill="#719D48"/><path d="M30.97 30.79a70.7 70.7 0 0 1 14.34-.56c.05 0 .08.03.08.08v.28c.01.06-.02.08-.07.07-.22-.03-.5-.04-.84-.05-3.07-.06-5.86-.24-8.66.08-3.31.37-6.63.7-9.95 1.02-.24.03-.56.1-.87.07h-.01a.02.02 0 0 1 0-.04c1.98-.51 3.95-.66 5.98-.95Z" fill="#719D48"/><path d="M15.34 31.8c3.66.08 6.92.43 10.9.06 4.14-.4 6.75-.66 7.83-.8 1.93-.26 3.45-.42 5.43-.39 1.9.04 3.8.05 5.72.13a.2.2 0 0 1 .12.04c.1.07.12.15.06.22a.16.16 0 0 1-.13.06c-2.37-.02-4.75-.02-7.13-.01-2.05 0-4.05.48-6.09.65-2.7.23-5.42.42-8.13.58-2.3.14-4.66-.05-6.99-.1-.6-.01-1.04-.19-1.6-.38l-.02-.01a.03.03 0 0 1 .01-.04h.02Z" fill="#719D48"/><path d="M26.96 32.9c2.1.1 4.28.09 6.36-.28 1.34-.24 2.72-.57 4.02-.63.64-.03 1.31-.04 2.03-.03.53.01 1.14-.07 1.67-.06a61.88 61.88 0 0 0 4.32-.11.1.1 0 0 1 .06.08l.02.41c0 .07-.03.1-.1.1-3.94.13-6.91.28-8.9.46-.7.06-1.85.27-3.44.6-.43.1-.94.12-1.42.07-1.5-.15-3-.3-4.51-.47-.22-.03-.38-.16-.66-.13-.34.03-.78.04-1.31.02-2.7-.12-5.4-.12-8.07-.48-.01 0-.02-.01-.01-.03v-.03c.01-.02.02-.02.03-.02 2.87.14 4.78.2 5.73.18 2.36-.06 5.44-.26 9.23-.6 1.96-.19 4.04-.67 6.08-.7 2.41-.05 4.83-.04 7.25.02.05 0 .08.03.09.08v.09a.23.23 0 0 1-.22.24l-7.57.14c-2.16.05-4.32.71-6.5.85a100.33 100.33 0 0 1-4.2.18v.04c0 .01 0 .02.02.02Z" fill="#719D48"/><path d="m45.48 38.13-.02 2.3a.07.07 0 0 1-.05.06h-.03a212.1 212.1 0 0 0-14.25-4.23c-1.18-.3-2.62-.62-4.33-.96-3.4-.68-7.03-.55-10.32-1.58a5.84 5.84 0 0 1-3.06-1.83v-.03a.05.05 0 0 1 .05-.03l.41-.04c.05 0 .1 0 .13.04 1.33 1.42 3.83 1.73 5.8 1.88 3.66.27 6.17.5 7.53.71 6.9 1.03 12.04 2.22 18 3.54.1.02.14.08.14.17Z" fill="#AEC693"/><path d="M45.48 37.38a.14.14 0 0 1-.1.14h-.07c-3.3-.8-6.63-1.52-10.01-2.17-3.28-.63-5.98-1.16-9-1.37-1.82-.12-3.62-.25-5.47-.35-2.27-.13-4.53-.28-6.45-1.69-.09-.06-.08-.1.03-.12a.9.9 0 0 1 .6.09c1 .54 2.07.86 3.24.94 2.48.19 4.82.23 7.23.33 2.46.1 4.94.45 7.4.71 4.2.46 8.38 1.11 12.53 1.97.04 0 .06.03.06.08l.01 1.44Z" fill="#AEC693"/><path d="M45.13 41.21c-1.84.1-3.68.12-5.5.09-.3 0-.57-.06-.84-.16a129.12 129.12 0 0 0-20.57-6.1c-2.04-.4-4.37-1.23-5.52-3.03-.03-.04-.02-.06.03-.07.23-.07.36-.07.52.13 1.04 1.24 2.66 1.8 4.13 2.12 2.04.44 4.1.78 6.19 1.03.5.06 1 .14 1.49.24 2.45.5 4.95.94 7.35 1.66l9.9 2.96c.53.15 1.47.51 2.83 1.07.1.04.1.06 0 .06Z" fill="#AEC693"/><path d="M11.63 32a8.12 8.12 0 0 0 4.1 3.6c3.91 1.64 7.97 2.85 11.83 4.59a55 55 0 0 0 3 1.24c.16.07.16.1-.02.08l-4.2-.3a2.38 2.38 0 0 1-.82-.2c-3.14-1.4-6.2-3-9.33-4.41-2.3-1.04-3.95-2.33-5.1-4.55-.03-.05-.02-.07.04-.08l.38-.04a.11.11 0 0 1 .12.06Z" fill="#AEC693"/><path d="M37.74 41.33c.13.05.13.07-.01.08-1.68.04-3.4.05-5.14.03-.27 0-.54-.06-.8-.16-1.74-.7-3.08-1.25-4-1.65-3.92-1.73-8.09-2.73-12.08-4.29a7.37 7.37 0 0 1-3.85-3.32c-.04-.07-.02-.1.06-.1l.37.01c.05 0 .09.03.12.07 1.74 2.7 5.22 3.3 8.26 3.91.7.15 2.13.53 4.27 1.16 4.3 1.26 8.56 2.75 12.8 4.26Z" fill="#AEC693"/><path d="M24.12 40.97a.05.05 0 0 1 .03.05l-.02.03h-.03l-4.3.25a.18.18 0 0 1-.13-.05c-.91-.87-1.8-1.73-2.8-2.51l-2.57-1.99a11.36 11.36 0 0 1-3.7-4.58.16.16 0 0 1 .02-.18c.05-.05.11-.06.18-.03.05.02.09.06.12.12a9.37 9.37 0 0 0 4.05 4.16c3.06 1.57 6.15 3.4 9.15 4.73Z" fill="#AEC693"/><path d="M37.37 32.96c2.51-.23 5.31-.34 7.96-.43.07 0 .1.03.1.1v.32c0 .06-.03.1-.09.1-2.89.19-5.74.2-8.67.87-1.03.24-2.58-.09-3.61-.22-.1-.02-.1-.03 0-.05 1.47-.33 2.9-.56 4.3-.69Z" fill="#719D48"/><path d="m10.77 33.61-.04.01a.05.05 0 0 0-.02.03v.04c.52 1.18 1.12 2.2 1.8 3.08a51.83 51.83 0 0 1 3.17 4.43c.04.06.02.1-.05.09l-1.75-.03a.12.12 0 0 1-.12-.09c-.51-1.4-1.12-2.76-1.83-4.08a24.07 24.07 0 0 1-1.36-2.8c-.07-.2-.05-.47.07-.78a.23.23 0 0 0 .01-.15 1.84 1.84 0 0 1-.04-.69.05.05 0 0 1 .07.02 10.15 10.15 0 0 0 2.5 3.43c1.9 1.7 4.06 3.27 5.72 5.13v.05a.04.04 0 0 1-.04.02h-2.55a.11.11 0 0 1-.1-.06c-1.63-2.67-4-4.8-5.39-7.6-.01-.03-.03-.04-.05-.05Z" fill="#AEC693"/><path d="M36.77 34.12c-.07-.01-.08-.03-.01-.07.21-.1.54-.1.7-.14 1.58-.3 3.18-.47 4.79-.52.98-.03 2.06-.18 3.1-.2.06 0 .08.03.08.08v.41c0 .05-.02.08-.07.08-2.02.19-3.63.14-5.4.6-.23.07-.47.1-.7.06l-2.5-.3Z" fill="#719D48"/><path d="M45.43 34.08v.47c0 .06-.03.1-.1.1-1.02.04-1.96 0-3.04.12-.76.08-1.48.01-2.15-.21-.14-.05-.13-.08 0-.1.56-.11 1.1-.2 1.6-.27.96-.13 2.15-.15 3.23-.25h.35c.08.02.11.06.11.14Z" fill="#719D48"/><path d="M12.1 41.26c-.13 0-.2-.06-.23-.19-.33-1.7-.64-3.43-1.2-5.08-.15-.4-.14-.77-.17-1.19a.06.06 0 0 1 .09-.05l.03.02c.38.72.7 1.5 1.06 2.2a28.53 28.53 0 0 1 1.7 4.17c.02.07 0 .1-.07.1l-1.2.02Z" fill="#AEC693"/><path d="M42.14 34.96c-.09-.02-.09-.03 0-.04 1-.17 2.17-.12 3.2-.1.05 0 .08.03.09.1l.02.55c0 .06-.02.08-.08.07l-3.23-.58Z" fill="#719D48"/><path d="M10.57 41.17v-4.8a.05.05 0 0 1 .05-.05.05.05 0 0 1 .05.05c.14.65.34 1.3.44 1.94.14.96.3 1.92.46 2.87.01.07-.01.1-.08.1h-.82c-.07 0-.1-.03-.1-.1Z" fill="#AEC693"/><path fill-rule="evenodd" d="M45 14.4H11a.6.6 0 0 0-.6.6v26c0 .33.27.6.6.6h34a.6.6 0 0 0 .6-.6V15a.6.6 0 0 0-.6-.6ZM11 14a1 1 0 0 0-1 1v26a1 1 0 0 0 1 1h34a1 1 0 0 0 1-1V15a1 1 0 0 0-1-1H11Z" fill="#377C14"/></svg>