<!-- by TradeStack --><svg width="56" height="56" viewBox="0 0 56 56" xmlns="http://www.w3.org/2000/svg"><path fill="#F0F3FA" d="M0 0h56v56H0z"/><path d="M28 36c2.24 0 4.27-.92 5.72-2.4.98.23 2.1 1 1.78 2.9-.29 1.74-1.3 3.93-2.15 5.52a15 15 0 0 1-18.77-7.3l7.48-1.37A7.98 7.98 0 0 0 28 36Zm9 .5c0-1.24-.68-3.16-2.33-4.08v-.01C33.05 31.53 30.3 31 27 31c-4.07 0-11.02 2.1-15.98 3.6L8 35.5v-1c6.17-2.67 20-8 29-8h.5c1.96 0 4.03.82 5.5 1.6a15 15 0 0 1-7.65 12.98C36.19 39.5 37 37.77 37 36.5ZM28 20c2.55 0 4.82 1.2 6.29 3.05a13.17 13.17 0 0 1 7.9.09 15 15 0 0 0-28.88 7.92l6.73-2.24A8 8 0 0 1 28 20Z" fill="#0F488F"/></svg>