<?xml version='1.0' encoding='utf-8'?>
<!-- by TradeStack -->
<svg width="56" height="56" viewBox="0 0 56 56" xmlns="http://www.w3.org/2000/svg"><path fill="#F0F3FA" d="M0 0h56v56H0z" /><ellipse cx="24.57" cy="26.2" rx="1.9" ry="1.92" fill="#E6F6F5" /><ellipse cx="26.48" cy="28.12" rx="2.29" ry="2.3" fill="#E7F5F6" /><path d="M24.57 28.12a1.91 1.91 0 0 0 1.87-2.3 2.3 2.3 0 0 0-2.25 2.26c.12.02.25.04.38.04Z" fill="#CCEEED" /><ellipse cx="25.33" cy="31.57" rx="2.67" ry="2.69" fill="#E7F5F6" /><path d="M24.39 29.06a2.64 2.64 0 0 1 3.2 1.07 2.29 2.29 0 0 1-3.2-1.07Z" fill="#CCEFEB" /><ellipse cx="23.05" cy="34.64" rx="3.43" ry="3.45" fill="#DCF0EF" /><path d="M22.7 31.2a3.44 3.44 0 0 1 3.72 2.82 2.68 2.68 0 0 1-3.73-2.82Z" fill="#C5E8E2" /><ellipse cx="18.1" cy="33.49" rx="3.81" ry="3.84" fill="#CDEDEA" /><path d="M20.26 36.65a3.84 3.84 0 0 0 1.15-5.05 3.46 3.46 0 0 0-1.15 5.05Z" fill="#AEE1DA" /><ellipse cx="15.81" cy="28.12" rx="3.81" ry="3.84" fill="#BFEAE3" /><path d="M19.22 29.82a3.8 3.8 0 0 1-4.54 1.96 3.8 3.8 0 0 1 4.54-1.96Z" fill="#9AD9D0" /><ellipse cx="18.1" cy="21.98" rx="4.57" ry="4.6" fill="#90DED4" /><path d="M14.32 24.58a3.8 3.8 0 0 1 4.91 1.86 4.54 4.54 0 0 1-4.9-1.86Z" fill="#73C9BE" /><ellipse cx="25.33" cy="18.52" rx="4.95" ry="4.99" fill="#7FDCBF" /><path d="M20.4 18a4.6 4.6 0 0 1 2.21 4.7 5 5 0 0 1-2.2-4.7Z" fill="#4CBE9D" /><ellipse cx="33.33" cy="18.91" rx="6.86" ry="6.91" fill="#66D5B4" /><path d="M27.73 22.89a6.91 6.91 0 0 1 .4-8.48 5 5 0 0 1-.4 8.48Z" fill="#34B886" /><ellipse cx="36.38" cy="27.35" rx="7.62" ry="7.67" fill="#34C79A" /><path d="M29.3 24.5A7.62 7.62 0 0 1 40 20.59a6.87 6.87 0 0 1-10.68 3.9Z" fill="#15A66D" /><ellipse cx="31.05" cy="36.56" rx="8.38" ry="8.44" fill="#02B980" /><path d="M28.83 28.41a8.4 8.4 0 0 1 10.34 6.08 7.64 7.64 0 0 1-10.34-6.08Z" fill="#00904D" /></svg>