<?xml version='1.0' encoding='utf-8'?>
<!-- by TradeStack -->
<svg width="56" height="56" viewBox="0 0 56 56" xmlns="http://www.w3.org/2000/svg"><path fill="#F0F3FA" d="M0 0h56v56H0z" /><path d="M13 26c-.47-1.32-2-2-3.39-2C7.43 24 6 25.98 6 28c0 2.07 1.48 4 3.7 4 1.71 0 3.3-1.24 3.3-3h-3v-1h4v1c0 2.43-1.98 4-4.3 4C6.82 33 5 30.78 5 28c0-2.72 1.77-5 4.61-5 2.11 0 3.98.98 4.39 3h-1ZM23 23h1v6.5c0 2.22-1.94 3.5-4 3.5s-4-1.28-4-3.5V23h1v6.41c0 1.56 1.53 2.59 3 2.59s3-1.03 3-2.59V23ZM50 23h1v6.5c0 2.22-1.94 3.5-4 3.5s-4-1.28-4-3.5V23h1v6.41c0 1.56 1.53 2.59 3 2.59s3-1.03 3-2.59V23ZM27 33V23h1v9h5v1h-6ZM34 24v-1h7v1h-3v9h-1v-9h-3Z" /></svg>