<!-- by TradeStack --><svg width="56" height="56" viewBox="0 0 56 56" xmlns="http://www.w3.org/2000/svg"><path fill="#F0F3FA" d="M0 0h56v56H0z"/><path d="M5.7 28.62a4.58 4.58 0 0 0 1.93 1.76c.88.44 1.87.65 2.86.62.65-.01 1.3-.09 1.94-.22.7-.15 1.4-.35 2.07-.58v-3.25h-2.4a.4.4 0 0 0 .1.16c.05.05.11.08.18.1.28.09.62.26.62.53v1.8c0 .75-1.04 1.1-2.6 1.1a3.7 3.7 0 0 1-2.72-1.36 4.93 4.93 0 0 1-1.11-3.26 4.88 4.88 0 0 1 1.15-3.35 3.5 3.5 0 0 1 2.81-1.32c1.85 0 3 .7 3.42 2.12l.08.06c.03.02.06.02.1.02.14 0 .23 0 .23-.08l-.1-.6c-.1-.58-.19-1.09-.22-1.52-.5-.01-1-.07-1.48-.17a11.8 11.8 0 0 0-1.75-.18c-1.04 0-2.07.22-3 .66a5.05 5.05 0 0 0-2.06 1.82c-.5.78-.76 1.67-.75 2.58 0 .9.24 1.78.7 2.56Zm15.08 2.3v-.63c-.54.42-1.23.67-1.95.7-.28.02-.56-.01-.82-.1-.27-.09-.5-.22-.7-.4a1.92 1.92 0 0 1-.57-1.37v-2.45c.03-.26-.04-.53-.2-.75a1.06 1.06 0 0 0-.71-.2h-.23c-.1-.01-.1-.05-.1-.18 0-.12.05-.2.1-.2.74-.05 1.47-.16 2.18-.34.1 0 .22.04.22.17v3.66c-.04.38 0 .77.26 1.08.12.13.28.22.45.28.17.06.36.08.55.06a1.73 1.73 0 0 0 1.47-.67v-2.96c.04-.27-.03-.55-.19-.79a.96.96 0 0 0-.62-.12h-.19c-.04 0-.1-.04-.1-.17 0-.12.06-.2.1-.2.74-.05 1.48-.16 2.2-.34.07 0 .07.03.07.12v4.34c-.02.21.1.43.2.62.16.13.36.2.58.2.04 0 .1.1.1.22 0 .08-.06.16-.1.16-.56.02-1.1.11-1.62.3-.05.04-.1.04-.2.04-.13 0-.18 0-.18-.09Zm7.13.08h3.01c.1 0 .14-.04.14-.17 0-.08-.04-.17-.14-.17-.28 0-.56-.09-.78-.25a1.18 1.18 0 0 1-.14-.8v-2.76c0-.5-.24-.98-.6-1.34a2.11 2.11 0 0 0-1.49-.5c-.7.03-1.38.29-1.91.7v-.62c0-.04-.04-.09-.18-.09-.05 0-.1.05-.14.09-.15.12-.32.22-.51.3-.36.14-.73.25-1.11.33-.05 0-.1.04-.1.16 0 .13 0 .17.1.17.23 0 .46.08.65.21.1.21.16.44.14.67v2.68c.02.28-.04.56-.2.8-.21.16-.5.25-.78.25-.1 0-.14.09-.14.17 0 .13.05.17.14.17h2.97c.05 0 .1-.04.1-.17 0-.08-.05-.17-.15-.17a1 1 0 0 1-.65-.25 1.3 1.3 0 0 1-.14-.84v-3.22c.19-.22.43-.39.7-.5.24-.1.49-.13.74-.13.18-.02.37 0 .54.06.17.06.32.15.44.27.25.3.36.68.32 1.05v2.47c.05.3 0 .58-.13.84a1 1 0 0 1-.65.25c-.1 0-.14.09-.14.17 0 .13 0 .17.09.17Zm4.01-.83A2.95 2.95 0 0 1 33 25.23a3.58 3.58 0 0 1 3.58.65c.6.59.93 1.36.93 2.16.02.4-.05.8-.21 1.16-.16.37-.4.7-.72.97-.63.53-1.46.83-2.32.83-.87 0-1.7-.3-2.33-.83Zm.83-4.09c-.41.59-.6 1.27-.55 1.96-.05.68.14 1.35.55 1.92.28.36.7.6 1.17.68.48.08.97-.01 1.36-.26.18-.12.33-.26.46-.42.39-.57.58-1.24.55-1.92a3.05 3.05 0 0 0-.55-1.96 1.8 1.8 0 0 0-1.1-.7c-.46-.09-.94-.02-1.34.2-.23.13-.42.3-.55.5Zm6.04 4.59.73.12.52.1.54.11c.62 0 1.22-.2 1.7-.54.22-.16.4-.36.53-.6.13-.23.2-.48.19-.73a.96.96 0 0 0-.08-.43 1.09 1.09 0 0 0-.26-.37 6 6 0 0 0-1.45-.83 4.1 4.1 0 0 1-1.21-.67.83.83 0 0 1-.22-.26.73.73 0 0 1-.07-.32c0-.62.38-.92 1.2-.92.3 0 .6.1.83.25.23.2.38.44.44.71 0 .04.04.09.19.09s.2-.05.2-.09a9.47 9.47 0 0 1-.1-1.16l-.23-.02-.3-.03a9.22 9.22 0 0 0-1.12-.08c-.6 0-1.18.18-1.65.5-.35.25-.58.6-.63.99-.06.39.07.78.34 1.1.42.37.93.65 1.5.83.41.13.79.33 1.12.58.16.15.24.34.24.54a.9.9 0 0 1-.06.4 1 1 0 0 1-.23.35 1.34 1.34 0 0 1-.87.3c-.19 0-.38-.04-.55-.1a1.42 1.42 0 0 1-.47-.28 1.82 1.82 0 0 1-.67-.92c0-.08-.1-.13-.2-.13-.14 0-.19 0-.19.09.14.62.24 1.12.29 1.41Zm6.69 2.05-.8 1.24c.13.05.26.05.38 0 .47 0 .88-.35 1.25-1.06l3.3-6.57c.14-.27.33-.53.55-.75.23-.14.48-.22.75-.22.04 0 .09-.05.09-.18s-.05-.18-.14-.18h-2.5c-.05 0-.1.05-.1.18s0 .18.1.18c.46.04.69.17.69.44-.04.18-.1.36-.19.53L47.52 29l-1.07-2.66c-.09-.2-.15-.4-.19-.62 0-.18.24-.31.75-.35.04 0 .09-.05.09-.18 0-.14 0-.18-.1-.18h-2.96c-.05 0-.1.09-.1.18s0 .18.1.18c.25.04.48.13.7.26.2.22.38.48.5.76l1.58 4.08-.88 1.73c-.19.3-.32.49-.46.53Z"/></svg>