<!-- by TradeStack --><svg width="56" height="56" viewBox="0 0 56 56" xmlns="http://www.w3.org/2000/svg"><path fill="#D50032" d="M0 0h56v56H0z"/><path d="m36.46 33.45-1.28-2.24c2.21-.6 3.27-2.15 3.27-3.92a2.93 2.93 0 0 0-.86-2.18c-.73-.71-1.93-1.11-3.75-1.11h-2.83a1.61 1.61 0 0 0-1.6 1.2l-2.57 9.66a.1.1 0 0 0 .06.12l.04.02h2.84l.06-.03a.1.1 0 0 0 .03-.05l2.23-8.36h1.6c.47-.05.95.08 1.33.37a1 1 0 0 1 .28.71c0 .91-.86 1.62-2.24 1.62h-.67a.87.87 0 0 0-.61.22.84.84 0 0 0-.29.57c0 .12.02.24.06.35l1.42 2.99A2.72 2.72 0 0 0 35.51 35h1.2a1.96 1.96 0 0 0 .87-.16.04.04 0 0 0 0-.04l-.01-.01a5.01 5.01 0 0 1-1.11-1.34ZM16.62 29h-3.58a1.61 1.61 0 0 0-1.6 1.2l-.2.65a.1.1 0 0 0 .05.12l.07.03h1.94l-.34 1.18c-.45.2-.95.3-1.44.29-1.34 0-2.44-.78-2.44-2.27a3.5 3.5 0 0 1 1.06-2.58 3.63 3.63 0 0 1 2.64-1.04 3.75 3.75 0 0 1 2.63 1.04.1.1 0 0 0 .12-.02l1.88-1.78a.09.09 0 0 0 0-.12c-.74-.94-2.32-1.7-4.43-1.7C8.83 24 6 26.9 6 30.3c0 3.27 2.64 4.7 5.24 4.7 1.38 0 2.74-.34 3.96-1a.34.34 0 0 0 .15-.2l1.36-4.66a.1.1 0 0 0-.04-.13.1.1 0 0 0-.05-.01Zm33.24-5H48.2c-.36 0-.72.12-1 .33-.29.22-.5.52-.59.86l-1.28 4.82a3.56 3.56 0 0 1-.92 1.76 2.03 2.03 0 0 1-1.46.56c-1.09 0-1.7-.59-1.7-1.55.01-.34.06-.67.16-1l1.64-5.64a.1.1 0 0 0-.05-.12l-.05-.02h-1.64a1.67 1.67 0 0 0-1.6 1.2l-1.27 4.36a6.72 6.72 0 0 0-.24 1.7c0 2.34 1.6 3.74 4.4 3.74 1.67 0 3.02-.44 4-1.38a6.86 6.86 0 0 0 1.7-3.18L50 24.08c-.01-.05-.1-.09-.14-.08Zm-10.28-3.93a8.38 8.38 0 0 1-3.21 2.87c-.03 0 0 .06 0 .06h3.6c1.97 0 3.95-1.74 4.59-3.88a.1.1 0 0 0-.02-.08.1.1 0 0 0-.08-.04H41.5a2.36 2.36 0 0 0-1.91 1.07Zm-10.66 4.06a.1.1 0 0 0-.1-.13h-1.65c-.36 0-.71.12-1 .33-.29.22-.5.52-.6.86l-1.37 4.82a3.59 3.59 0 0 1-.9 1.75 2.03 2.03 0 0 1-1.45.56c-1.09 0-1.7-.59-1.7-1.55 0-.33.04-.67.13-1l1.58-5.64a.1.1 0 0 0-.01-.1.1.1 0 0 0-.09-.03h-1.63c-.36 0-.71.12-1 .33-.29.22-.5.52-.59.86l-1.24 4.37a6.7 6.7 0 0 0-.25 1.7c0 2.34 1.6 3.74 4.4 3.74 1.67 0 3.03-.44 4-1.38a6.87 6.87 0 0 0 1.7-3.18l1.77-6.3Z" fill="#fff"/><path d="M33.15 23.32c4.93-.11 6.17-4.45 6.25-4.7l.7-2.49a.1.1 0 0 0-.01-.09A.1.1 0 0 0 40 16h-1.88c-1.9 0-3.29.66-3.74 2.26l-1.35 4.93a.1.1 0 0 0 .02.09.1.1 0 0 0 .09.04Z" fill="#fff"/></svg>