<!-- by TradeStack --><svg width="56" height="56" viewBox="0 0 56 56" xmlns="http://www.w3.org/2000/svg"><path fill="#02563E" d="M0 0h56v56H0z"/><path fill-rule="evenodd" d="M40.42 19.8a6.9 6.9 0 0 0-6.18-3.8c-1.53 0-3.58.7-5.6 2H7.54c-.3 0-.54.22-.54.5s.24.5.54.5h19.7c-.73.59-1.44 1.25-2.11 2h-14.6a.51.51 0 0 0-.53.5c0 .28.23.5.52.5H24.3c-.48.62-.92 1.29-1.32 2H13.5a.5.5 0 0 0-.51.5c0 .28.23.5.5.5h8.95c-.3.64-.57 1.3-.78 2h-6.11c-.3 0-.56.22-.56.5s.25.5.56.5h5.83c-.16.64-.28 1.31-.35 2H18.5a.5.5 0 0 0-.5.5c0 .28.22.5.5.5h2.46l-.01.71c0 3.19 1.3 5.9 3.67 7.28l-.59 1.5c-.76 2.05-2.2 2.54-2.82 2.51h-.69c-.29 0-.52.19-.52.48s.23.52.52.52h7.96c.29 0 .52-.23.52-.52 0-.3-.23-.48-.52-.48h-.78c-1.39 0-1.17-1.34-.88-1.98l.46-1.11a9 9 0 0 0 1.3.09 9.82 9.82 0 0 0 5.66-2c.14.12.52.36.89.34.35-.03 1.91-4.23 2.79-6.69h1c.33 0 .55.32.43.62l-.42 1.02c-.11.27.02.57.3.67.26.1.57-.02.68-.28l2.05-4.97a.51.51 0 0 0-.3-.67.54.54 0 0 0-.68.28l-.57 1.48a.33.33 0 0 1-.31.2h-8.7l2.7-6.46h4.5c-.04.55-.12 1.15-.23 1.81 0 .5.56.84.72.54.07-.12.54-1.13 1.1-2.35h2.8c1.07 0 1.05.72.91 1.08l-.58 1.64a.53.53 0 0 0 .95.44l1.66-3.76a.65.65 0 0 0-.59-.94H40.9l1-2.2c.11-.3.18-.9-.43-.9-.6 0-.95.6-1.05.9Zm-9.7 11.85-2.63 6.32.72.03c1.57 0 3.63-1.57 4.47-2.53l1.66-3.82h-4.22Zm-.16-7.03c-1.3 3.1-3.59 8.6-5.11 12.33-.85-.71-1.45-1.9-1.45-3.8C24 28.97 28.15 18 34.53 18c2.07 0 3.84.9 4.07 4h-8.78a.77.77 0 0 0-.7.42c-.25.51.13 1.1.69 1.24.9.22.91.69.75.96Z" fill="#F5FEFE"/></svg>