<!-- by TradeStack --><svg width="56" height="56" viewBox="0 0 56 56" xmlns="http://www.w3.org/2000/svg"><path fill="#F0F3FA" d="M0 0h56v56H0z"/><path fill-rule="evenodd" d="M25 25.7a2.7 2.7 0 1 0 0-5.4 2.7 2.7 0 0 0 0 5.4Zm0 1.3a4 4 0 1 0 0-8 4 4 0 0 0 0 8Z" fill="#122453"/><path d="M25.81 25.59c-.63 1.05-1.26 2.17-2.27 2.92-.23.17-.56.25-1.01.24-1.07-.01-1.39-1.24-1.15-2.09a.2.2 0 0 1 .15-.15.2.2 0 0 1 .2.07.2.2 0 0 1 .03.14c-.02.48.12.87.41 1.16a.37.37 0 0 0 .38.09c2.56-1.23 4.23-7.5 4.23-9.79a.55.55 0 0 0-.53-.44.55.55 0 0 0-.24.05l-.58.27a.23.23 0 0 1-.32-.2c0-.04 0-.09.03-.13.8-1.23 2.5-.85 2.54.7.06 2.62-.9 4.73-1.87 7.16Z" fill="#9FB9D8"/><path d="M39.82 18.76c.02 0 .04 0 .06.02.04.01.07.04.09.07l3.59 7.82a.24.24 0 0 1-.01.22.23.23 0 0 1-.2.11h-.73a.51.51 0 0 1-.47-.3l-.73-1.44a.43.43 0 0 0-.15-.18.42.42 0 0 0-.22-.08h-2.47a.41.41 0 0 0-.37.25l-.73 1.44a.52.52 0 0 1-.47.3h-.73a.23.23 0 0 1-.2-.1.24.24 0 0 1-.01-.23l3.6-7.81a.18.18 0 0 1 .1-.07l.05-.02Zm-.15 2.86-.92 2.05a.2.2 0 0 0-.01.2.2.2 0 0 0 .07.08c.03.02.06.05.1.05h1.76a.21.21 0 0 0 .2-.2.2.2 0 0 0-.01-.1l-.96-2.1a.12.12 0 0 0-.23.02ZM13.13 20.87a2.54 2.54 0 0 0-2.48-.61c-1.48.35-2.2 1.29-2.18 2.8a2.81 2.81 0 0 0 5.2 1.44.36.36 0 0 0-.14-.53.41.41 0 0 0-.2-.05H12a.19.19 0 0 1-.13-.05.17.17 0 0 1-.05-.12V23c0-.05.02-.1.05-.13a.2.2 0 0 1 .15-.06h2.64a.3.3 0 0 1 .2.07c.05.04.08.1.1.17.25 1.77-.4 2.99-1.96 3.64-2.63.95-5.33-.39-5.86-2.67-.3-1.32-.1-2.44.62-3.38 1.43-1.88 4.74-2.29 6.47-.46.03.03.05.07.06.11a.26.26 0 0 1-.05.25.3.3 0 0 1-.1.08l-.7.3a.29.29 0 0 1-.16.02.27.27 0 0 1-.14-.07Z" fill="#122453"/><path d="M13.21 37.27c.1 0 .16-.06.2-.17.63-1.9 1.31-3.86 2.03-5.88a.34.34 0 0 1 .14-.17.32.32 0 0 1 .2-.05h.04a.21.21 0 0 1 .2.2l-.01.09-2.6 7.4c-.07.2-.14.31-.2.31-.05 0-.12-.1-.2-.31a1207.24 1207.24 0 0 1-2.6-7.5.22.22 0 0 1 .19-.18h.03c.07-.01.15 0 .2.05.07.04.12.1.14.16.73 2.03 1.41 3.98 2.05 5.88.04.11.1.17.2.17ZM24.08 32.34c-.1-.04-.23-.13-.37-.28-.9-.96-2.14-.56-2.64.51a.99.99 0 0 0 .45 1.32c.1.04.7.36 1.81.94 1.21.63 1.87 1.38 1.32 2.68a2.3 2.3 0 0 1-1.72 1.41c-1.23.28-2.2-.18-2.9-1.37a.27.27 0 0 1 .13-.38l.11-.05a.2.2 0 0 1 .26.07c.88 1.3 2.13 1.88 3.33.5.96-1.11.2-1.9-.9-2.4-.27-.12-.87-.44-1.78-.95-.62-.35-.85-.94-.67-1.78.4-1.9 2.83-2.02 3.86-.6a.25.25 0 0 1-.13.39.26.26 0 0 1-.16-.01ZM36.39 35a4.03 4.03 0 0 1-2.45 3.7 3.94 3.94 0 0 1-5.2-2.17 4.03 4.03 0 0 1 .87-4.36A3.95 3.95 0 0 1 36.39 35Zm-.57 0a3.44 3.44 0 0 0-3.4-3.44 3.4 3.4 0 0 0-3.4 3.44 3.44 3.44 0 0 0 3.4 3.43 3.4 3.4 0 0 0 3.4-3.43Z" fill="#091217"/><path d="M20 25.91v.92c0 .04-.02.09-.05.12a.16.16 0 0 1-.11.05h-3.68a.16.16 0 0 1-.11-.05.18.18 0 0 1-.05-.12v-7.66c0-.04.02-.09.05-.12a.16.16 0 0 1 .11-.05h1c.04 0 .09.02.12.05.03.03.04.08.04.12v6.4c0 .04.02.09.05.12.03.03.07.05.12.05h2.35c.04 0 .08.02.11.05.03.03.05.08.05.12ZM34.2 22.89l.48.4c.17.14.28.33.34.53.38 1.29-.03 2.3-1.23 3a1.1 1.1 0 0 1-.37.18H30.3a.28.28 0 0 1-.27-.18.3.3 0 0 1-.02-.1v-7.4a.27.27 0 0 1 .26-.26c1.87-.02 4.8-.62 4.47 2.51-.03.33-.21.63-.53.89a.28.28 0 0 0 0 .43Zm-2.88-2.63-.02 1.88a.15.15 0 0 0 .15.16h.84a1.15 1.15 0 0 0 .8-.27c.1-.08.18-.18.24-.3a.83.83 0 0 0 .1-.36v-.29c0-.25-.12-.49-.33-.67-.2-.18-.49-.28-.79-.29h-.84a.15.15 0 0 0-.14.08l-.01.06Zm.02 3.3v2.14a.12.12 0 0 0 .12.12l1.05-.03c.33-.01.64-.14.87-.36.22-.23.34-.53.33-.83v-.08a1.1 1.1 0 0 0-.38-.8 1.25 1.25 0 0 0-.89-.32h-.98a.12.12 0 0 0-.1.08.3.3 0 0 0-.02.07ZM46.34 25.45c0 .24.15.27.34.27h2.12a.19.19 0 0 1 .14.06.22.22 0 0 1 .06.15v.84c0 .06-.03.12-.07.16a.21.21 0 0 1-.15.07h-3.62l-.06-.02a.16.16 0 0 1-.09-.1.18.18 0 0 1-.01-.06v-7.65c0-.05.02-.09.05-.12a.16.16 0 0 1 .12-.05h1c.05 0 .09.02.12.05.03.03.05.08.05.12v6.28Z" fill="#122453"/><path d="M18.39 31h-.16c-.13 0-.23.1-.23.23v7.53c0 .13.1.24.23.24h.16c.12 0 .23-.1.23-.24v-7.53c0-.13-.1-.23-.23-.23ZM26.78 31h-.13c-.12 0-.22.1-.22.22v7.57c0 .12.1.21.22.21h.13c.13 0 .22-.1.22-.21v-7.57c0-.12-.1-.22-.22-.22ZM41.7 34.81a112.82 112.82 0 0 0 2.7 2.84.08.08 0 0 0 .08-.03V31.2a.22.22 0 0 1 .22-.21h.16c.04 0 .07.01.1.04s.04.06.04.1v7.75a.1.1 0 0 1-.07.1.1.1 0 0 1-.12-.03c-1.23-1.29-2.4-2.54-3.52-3.77a118.17 118.17 0 0 0-2.68-2.84.08.08 0 0 0-.09.03v6.41a.22.22 0 0 1-.22.21h-.16a.14.14 0 0 1-.1-.04.14.14 0 0 1-.04-.1v-7.75a.1.1 0 0 1 .07-.1.1.1 0 0 1 .11.03c1.24 1.29 2.41 2.54 3.52 3.77Z" fill="#091217"/></svg>