<?xml version='1.0' encoding='utf-8'?>
<!-- by TradeStack -->
<svg width="56" height="56" viewBox="0 0 56 56" xmlns="http://www.w3.org/2000/svg"><path fill="#F0F3FA" d="M0 0h56v56H0z" /><path d="m28 44-.57-1.05C36.37 23.98 45.45 19.8 47 19.3 37.35 25.16 30.6 38.2 28 44Zm-1.97-4.1-.54-.94C33.9 21.73 42.54 17.46 44 17c-9.06 5.32-15.54 17.64-17.97 22.9ZM23.87 36l-.51-.9C31.43 18.94 39.6 15.43 41 15c-8.71 5-14.79 16.05-17.13 21Z" fill="#EAB800" /><path d="m27.55 40.86-.14.28-.38.77a84.7 84.7 0 0 0-1.3-2.58l.54-.94c.43.79.85 1.61 1.28 2.47Zm3.7-6.69c.19-.28.37-.53.55-.74-.43-.82-.86-1.61-1.3-2.37l-.47.83c.45.81.85 1.58 1.21 2.28Zm-2.9.62c.4.7.8 1.44 1.2 2.2-.18.31-.34.63-.5.94l-1.2-2.29.5-.85Zm.88-4.3.54-.68a57.8 57.8 0 0 0-1.44-2.3l-.45.79c.48.75.93 1.49 1.35 2.2Zm-3.02.7c.41.64.82 1.31 1.24 2.02l-.49.81-1.2-2.05.45-.79Zm.82-4.17c.19-.24.36-.46.53-.65C21.4 17.5 16.1 15.34 15 15c4.94 2.83 9.01 7.56 12.03 12.02Zm-1.78 2.69-.45.74C21.57 25.43 17.2 20.05 12 17c1.15.36 6.8 3.12 13.25 12.71Zm-2.02 3.51C16.3 22.45 10.24 19.7 9 19.3c5.66 3.44 10.33 9.36 13.75 14.83l.48-.9Zm.94 1.5c.4.67.82 1.36 1.23 2.09l-.51.96c-.4-.7-.8-1.42-1.24-2.16l.52-.9Z" fill="#EAB800" /></svg>