<?xml version='1.0' encoding='utf-8'?>
<!-- by TradeStack -->
<svg width="56" height="56" viewBox="0 0 56 56" xmlns="http://www.w3.org/2000/svg"><path fill="#F0F3FA" d="M0 0h56v56H0z" /><path d="M28 45a17 17 0 0 0 16.74-20H31.69l-1.66-1.66a2.87 2.87 0 0 0-4.06 0l-2.63 2.63a2.87 2.87 0 0 0 0 4.06l2.63 2.63a2.87 2.87 0 0 0 4.06 0l2.63-2.63.03-.03h4.36l-7.26 7.26c-.99.99-2.6.99-3.58 0l-7.47-7.47a2.53 2.53 0 0 1 0-3.58l7.47-7.47c.99-.99 2.6-.99 3.58 0L34.05 23h10.2A17 17 0 1 0 28 45Z" fill="#006BB5" /></svg>