<?xml version='1.0' encoding='utf-8'?>
<!-- by TradeStack -->
<svg width="56" height="56" viewBox="0 0 56 56" xmlns="http://www.w3.org/2000/svg"><path fill="#F0F3FA" d="M0 0h56v56H0z" /><path fill-rule="evenodd" d="M47 21h-2.03v.34l.5.07c.17.03.53.19.53.37v4.42c0 .2-.39.38-.6.38h-.14V27h2.27v-.42h-.17a.37.37 0 0 1-.36-.38V21Zm-36 0h-.66l-.17.62c-.15-.21-.62-.62-1.34-.62-1.3 0-2.83.7-2.83 3.13C6 26.56 7.57 27 8.67 27c.88 0 1.22-.4 1.29-.6l.38.6H11v-2.4h.6V24H9.5v.6h.5v1.14c-.04.26-.64.79-1.33.79-1.1 0-1.32-1.73-1.32-2.4 0-.67.09-2.7 1.48-2.7 1.11 0 1.47 1.2 1.51 1.8H11V21Zm3 6a2 2 0 1 0 0-4 2 2 0 0 0 0 4Zm0-.62c.55 0 1-.65 1-1.46 0-.8-.45-1.46-1-1.46s-1 .66-1 1.46c0 .8.45 1.46 1 1.46ZM16.14 21H18v5.2c0 .2.3.38.5.38h.16V27h-2.23v-.42h.15c.2 0 .42-.17.42-.38v-4.42c0-.18-.19-.34-.37-.37l-.49-.07V21Zm31.55 0h1.81v5.2c0 .2.13.38.33.38H50V27h-2.02v-.42h.15c.2 0 .37-.17.37-.38v-4.42a.38.38 0 0 0-.32-.37l-.49-.07V21Zm-18.4 2H31v.65c.2-.32.58-.65 1.22-.65.94 0 1.32.83 1.28 1.24v2.14c0 .13.13.23.26.23H34V27h-1.5v-2.76c.02-.22-.15-.66-.57-.66-.48 0-.76.27-.93.53v2.14c0 .2.15.35.36.35h.16v.4h-2.26v-.4h.14c.2 0 .6-.16.6-.35v-2.51c0-.18-.04-.33-.22-.35l-.5-.07V23ZM22 21v.45h.29c.3 0 .71.22.71.5v1.32a2 2 0 1 0 0 3.47V27h1.49v-.45a.48.48 0 0 1-.49-.48v-.96a2.03 2.03 0 0 0 0-.22V21h-2Zm0 2.46c.55 0 1 .68 1 1.53V25c0 .85-.45 1.53-1 1.53s-1-.7-1-1.54c0-.85.45-1.54 1-1.54ZM26 25h2.99c.08-.68-.2-2-1.93-2-.69 0-2.06.43-2.06 2.04 0 .8.62 1.96 2.16 1.96 1.07 0 1.66-.77 1.83-1.16h-.48c-.07.23-.39.68-1.14.68-.95 0-1.37-.8-1.37-1.52Zm.07-.42h1.98c-.02-.37-.26-1.1-1.05-1.1-.8 0-.95.73-.93 1.1Zm18.42.42H41.5c0 .71.42 1.52 1.37 1.52.75 0 1.07-.45 1.14-.68h.48A2.02 2.02 0 0 1 42.66 27c-1.54 0-2.16-1.16-2.16-1.96 0-1.61 1.37-2.03 2.06-2.04 1.73 0 2 1.32 1.93 2Zm-.94-.42h-1.98c-.02-.37.14-1.1.93-1.1s1.03.73 1.05 1.1ZM33.99 23h2.09v.48h-.43l.77 1.8.9-1.3-.2-.56h-.5V23h1.78v.42h-.38l.64 2.03.9-2.03h-.4V23h1.39v.42h-.47L38.4 27l-.9-2.5-1.42 2.5-1.62-3.52h-.47V23ZM12 30h3.75c.43.05 1.28.3 1.28 1.52 0 .96-.62 1.29-1.02 1.5l-.11.05c.5.03 1.52.37 1.52 1.47 0 1.37-1.39 1.46-2.07 1.46H12v-.51h1V30.6h-1V30Zm2 .88v1.97h.68c.73 0 1.32-.53 1.32-1.2v-.24c0-.52-.46-.93-1.03-.93h-.53c-.24 0-.44.17-.44.4Zm0 4.33v-1.98h1.06c.77 0 1.4.54 1.4 1.2v.25c0 .51-.5.93-1.1.93h-.9c-.25 0-.46-.18-.46-.4Zm6-4.71a.5.5 0 1 1-1 0 .5.5 0 0 1 1 0Zm0 1.5h-1.85v.32l.48.07c.18.03.37.17.37.35v2.5c0 .2-.22.36-.42.36h-.14v.4h2.24v-.4h-.17c-.2 0-.51-.16-.51-.36V32Zm19-2h-1.88v.33l.46.08c.17.03.42.19.42.37v4.42c0 .21-.28.38-.47.38h-.14V36h2.13v-.42h-.16a.37.37 0 0 1-.36-.38v-1.84c.18-.3.57-.78 1-.78.46 0 .53.44.5.66V36H42v-.3h-.04c-.15 0-.46-.1-.46-.23v-2.23c.04-.41.06-1.24-1-1.24-.91 0-1.35.55-1.5.94V30Zm-14 4a2 2 0 1 1-4 0 2 2 0 0 1 4 0Zm-1 .04c0 .87-.45 1.57-1 1.57s-1-.7-1-1.57c0-.87.45-1.58 1-1.58s1 .7 1 1.58Zm6-.04h2.8c.08-.68-.18-2-1.83-2-.66 0-1.97.43-1.97 2.04 0 .8.59 1.96 2.06 1.96 1.02 0 1.59-.77 1.75-1.16h-.46c-.06.23-.37.68-1.09.68-.9 0-1.26-.8-1.26-1.52Zm0-.42h2c-.02-.37-.26-1.1-1.06-1.1s-.96.73-.94 1.1Zm-4 1.41v-2.5h-1V32h1v-.9l1-1.1v2h1v.5h-1v2.3c0 .26.26.47.69.47.24 0 .43-.2.43-.47v-.44h.4v.63c-.02.34-.3 1.01-1.26 1.01-.97 0-1.24-.67-1.26-1Zm10.9.01h-.38c-.17.38-.65.57-.94.57-.29 0-1.1-.28-1.1-1.46s.53-1.61.96-1.61c.35 0 .54.07.76.25-.25.11-.4.36-.4.47 0 .2.02.6.53.6.5 0 .57-.33.57-.6 0-.26-.2-1.22-1.43-1.22s-2.1.72-2.1 2.11.77 1.89 2.1 1.89c1.06 0 1.4-.68 1.43-1Z" fill="#094B8F" /></svg>