<?xml version='1.0' encoding='utf-8'?>
<!-- by TradeStack -->
<svg width="56" height="56" viewBox="0 0 56 56" xmlns="http://www.w3.org/2000/svg"><path fill="#F0F3FA" d="M0 0h56v56H0z" /><circle cx="28" cy="28" r="16" fill="#39396E" /><circle cx="28" cy="28" r="14.96" fill="#405180" /><circle cx="28" cy="28" r="13.39" fill="#44628E" /><circle cx="28" cy="28" r="11.59" fill="#4E84A8" /><circle cx="28" cy="28" r="9.32" fill="#5FA9C5" /><circle cx="28" cy="28" r="5.14" fill="#6FC4D8" /><path d="M44 12H28v20h9.74l-1.67 5.7-1.24-3.7h-2.06l-1.6 3.7-1.5-3.7H28l2.03 6h1.82l1.71-4h.48l1.23 4h1.9L40 30H30v-2h14V12Z" fill="#F0F3FA" /><path d="M38.72 18.28c-2.32 4.84-7.17 7.98-9.31 8.94l.7.44 2.85-1.92c2.48-.3 7.51-1.98 7.82-6.22.32-4.24-.43-5.96-.85-6.3-.01.82-.72 2.75-3.42 3.92-3.38 1.46-5.5 2.67-5.5 4.93 0 1.81.78 2.7 1.17 2.92 1.5-1.18 4.89-4.16 6.54-6.71Z" fill="url(#a5sk03h0a)" /><defs><radialGradient id="a5sk03h0a" cx="0" cy="0" r="1" gradientUnits="userSpaceOnUse" gradientTransform="matrix(8.09416 -3.54803 2.81353 6.41854 32.18 20.95)"><stop stop-color="#8DBA55" /><stop offset="1" stop-color="#629748" /></radialGradient></defs></svg>