<!-- by TradeStack --><svg width="56" height="56" viewBox="0 0 56 56" xmlns="http://www.w3.org/2000/svg"><path fill="url(#afujoslo2)" d="M0 0h56v56H0z"/><path d="M20.68 13.43c.08.1.04.08-.12-.06l3.3-1.35c.11-.05.16-.01.16.1 0 .08-.04.12-.1.14-1.07.36-2.15.75-3.24 1.17ZM25.47 13.01c.05.12.03.11-.05-.03.32-.33.6-.43.86-.28.14.09.14.16-.01.22-.19.08-.45.1-.8.09Z" fill="#E17D1C"/><path d="M25.42 12.98c.08.14.1.15.05.03a4.25 4.25 0 0 1-.88 2.49.13.13 0 0 1-.14-.03.13.13 0 0 1-.04-.07l-.15-.6c-.04-.15-.13-.2-.27-.14a22.5 22.5 0 0 1-6.18 1.4.3.3 0 0 1-.33-.35.3.3 0 0 1 .09-.16c.84-.85 1.84-1.57 3-2.18.15.14.2.16.11.06.1.17.31.24.66.2a5.8 5.8 0 0 0 2.26-.67.5.5 0 0 1 .28-.07l1.54.1Z" fill="#D6D8CB"/><path d="M23.7 16.78a20.68 20.68 0 0 1-7.28 1.56 30.3 30.3 0 0 1 6.75-3.03.27.27 0 0 1 .24.21l.29 1.26Z" fill="#E17D1C"/><path d="M14.29 24.87c-.36.07-.55.06-.56-.05l-1.22-.41c-.14-.05-.19-.15-.14-.29l1.14-3.29c.82.27 1.63.36 2.43.26a46.41 46.41 0 0 0 12.97-3.7c.1-.04.12-.11.05-.2l-.61-.82c-.1-.11-.06-.16.08-.15l5.5.51a.25.25 0 0 1 .21.32 15.76 15.76 0 0 1-2.12 4.4c-.09.12-.17.12-.25 0l-.66-1.05c-.13-.2-.3-.25-.52-.16a68.79 68.79 0 0 1-16.3 4.63Z" fill="#D6D8CB"/><path d="m23.7 16.78.33.1c.13.04.17.13.1.25l-.12.18a.41.41 0 0 1-.18.11c-.8.26-1.48.51-2.02.75-2.42.51-4.63.83-6.64.94-.22-.36-.28-.63-.2-.8.06-.13.15-.16.27-.1.5.24.89.28 1.18.13 2.62-.1 5.04-.62 7.28-1.56Z" fill="#F6D5A5"/><path d="m21.81 18.17-5.87 2.92c-.8.1-1.61 0-2.43-.26.34-.76.89-1.34 1.66-1.72a43.7 43.7 0 0 0 6.64-.94Z" fill="#E17D1C"/><path d="M16.42 34.83a2.29 2.29 0 0 0-1.14.02c-.93-.12-1.54-.17-2-1.06-.5-.93-.83-1.94-1.02-3.04 1.6.24 3.23.24 4.9.01a85.79 85.79 0 0 0 22.8-7.97c.24-.13.3-.3.16-.53l-.66-1.1c-.14-.22-.08-.3.17-.23L43.5 22c.36.1.52.33.49.7a13.08 13.08 0 0 1-1.45 4.92c-.1.18-.17.17-.22-.03l-.35-1.21c-.05-.15-.14-.19-.27-.12a85.32 85.32 0 0 1-25.29 8.57ZM19.27 27.41c-1.86.47-3.7.76-5.5.86-.53-.06-1.81-.18-1.77-.88.01-.13.08-.18.2-.13 1.06.39 2.13.42 3.22.1l3.25-.48 7.78-2.18a.2.2 0 0 1 .23.1.2.2 0 0 1 .03.09v.24c.01.1-.03.16-.12.18l-7.32 2.1Z" fill="#D6D8CB"/><path d="M13.73 24.82c.01.1.2.12.56.05l-2 1.75a.14.14 0 0 1-.19 0 .14.14 0 0 1-.03-.18c.34-.59.9-1.13 1.66-1.62ZM18.6 26.91l-3.18.44 2.66-1.48a.23.23 0 0 1 .34.26l.18.78ZM18.8 27.5l.6 1.77c.04.13 0 .21-.14.25a4.9 4.9 0 0 0-2.1 1.24c-1.67.23-3.3.23-4.9 0-.22-1.17.84-1.74 1.52-2.5 1.9-.1 3.8-.45 5.02-.76ZM22.31 39.55c-1.72.25-3.33.3-4.85.12-.95-.7.37-1.66.88-2.15a57.66 57.66 0 0 0 11.2-2.8.19.19 0 0 0 .03-.23l-.1-.18c-.05-.1-.13-.13-.24-.1-2.83 1-5.8 1.73-8.91 2.2a46.57 46.57 0 0 1 9.02-4.14.18.18 0 0 1 .22.1l1.12 2.57a.35.35 0 0 1-.2.47 53.22 53.22 0 0 0-8.35 3.85.18.18 0 0 0-.08.1c-.02.04-.01.09 0 .13.02.03.1.05.26.06Z" fill="#E17D1C"/><path d="m23.79 42.02-.54-.01c-.05-.13-.17-.18-.34-.13-2.17.54-4.06-.89-5.45-2.2 1.52.16 3.13.12 4.85-.13a81.4 81.4 0 0 0 14.39-4.47.37.37 0 0 0 .21-.43l-.26-1.02c-.06-.2.02-.29.23-.25l4.64.8c.22.03.26.13.1.3l-3.97 4.28c-.18.2-.27.16-.27-.11v-.69c0-.16-.08-.21-.23-.15a61.85 61.85 0 0 1-10.78 3.5c-1.2.27-2.07.5-2.58.71Z" fill="#D6D8CB"/><path d="M18.34 37.52a8.42 8.42 0 0 1-2.94-.23.47.47 0 0 1-.26-.15.32.32 0 0 1-.07-.15c-.03-.12.02-.17.15-.15 1.9.28 3.6.14 5.1-.44 3.1-.46 6.08-1.19 8.9-2.18.12-.04.2-.01.26.1l.1.17a.19.19 0 0 1-.11.26 57.68 57.68 0 0 1-11.13 2.77Z" fill="#F6D5A5"/><path d="m16.42 34.83-1.53 1.59c-.1.09-.18.09-.26-.02a.44.44 0 0 1-.08-.33c0-.1.06-.2.15-.32.22-.27.41-.57.58-.9.3-.1.68-.1 1.14-.02ZM33.65 41.6l.01-.15a.3.3 0 0 0-.39-.3 35.22 35.22 0 0 1-6.51 1.59 30.93 30.93 0 0 1 8.34-3.7c.13-.03.2.01.2.15v1.69a.2.2 0 0 1-.31.17c-.19-.1-.34-.07-.46.1a.6.6 0 0 1-.26.19l-.62.26Z" fill="#E17D1C"/><path d="m33.65 41.6-1.79.7c-1.58-.16-3.54.77-5.71 1.17l-1.8-.02a.1.1 0 1 1 0-.2 5.78 5.78 0 0 0 2.4-.51c2.27-.33 4.44-.86 6.52-1.59a.3.3 0 0 1 .4.3l-.02.15Z" fill="#F6D5A5"/><path d="M28.83 43.9c.3-.35.8-.52 1.48-.51l4.23-1.15c.16-.05.2-.14.12-.28l-.11-.21c-.1-.17-.04-.25.15-.24l2.23.13a.14.14 0 0 1 .12.2.14.14 0 0 1-.06.06 14.6 14.6 0 0 1-8.16 2Z" fill="#D6D8CB"/><path d="m23.25 42 .54.02-.3.87c-.06.15-.15.18-.28.08l-.23-.18c-.12-.1-.14-.2-.05-.33l.32-.45ZM31.86 42.3l-1.55 1.09c-.68 0-1.18.16-1.48.5-1.24.23-2.13.09-2.68-.42 2.17-.4 4.13-1.33 5.71-1.17Z" fill="#E17D1C"/><defs><linearGradient id="afujoslo2" x1="10.42" y1="9.71" x2="68.15" y2="76.02" gradientUnits="userSpaceOnUse"><stop stop-color="#1A1E21"/><stop offset="1" stop-color="#06060A"/></linearGradient></defs></svg>