<?xml version='1.0' encoding='utf-8'?>
<!-- by TradeStack -->
<svg width="56" height="56" viewBox="0 0 56 56" xmlns="http://www.w3.org/2000/svg"><path fill="#F0F3FA" d="M0 0h56v56H0z" /><path d="M27.94 22.13c-6.88-1.46-7.55-7.22-7.2-10.13 3.6.67 10.13 3.46 9.04 9.36-.13.65-1.2.9-1.84.77Z" fill="#B3E369" /><path d="M28.8 22.1c6.64-1.5 6.92-7.2 6.58-10.1-3.54.67-9.92 3.45-8.88 9.3.12.68 1.6.96 2.3.8Z" fill="#0356B9" /><path d="m28.96 22.07-.15.03c-.26.06-.62.06-.98 0l-.56-.13c-.4-.14-.72-.36-.77-.66a6.33 6.33 0 0 1 1.63-5.58 6.25 6.25 0 0 1 1.65 5.63c-.07.35-.42.58-.82.7Z" fill="#0BB25F" /><path d="M21.91 26.55c-3.84 5.97-9.37 4.5-11.91 3.1 1.94-3.16 6.88-8.31 11.88-5.12.55.35.39 1.46.03 2.02Z" fill="#B3E369" /><path d="M22.2 25.72c1.05-6.82-4.08-9.17-6.85-9.9-.68 3.58-.47 10.63 5.29 11.8.66.13 1.46-1.18 1.57-1.9Z" fill="#0356B9" /><path d="m22.23 25.56-.02.16c-.04.26-.17.6-.36.92l-.33.48c-.27.33-.6.55-.88.5a6.18 6.18 0 0 1-4.52-3.59 6.02 6.02 0 0 1 5.76.5c.3.2.39.6.35 1.03Z" fill="#0BB25F" /><path d="M23.9 32.51c4.82 5.2 2.12 10.3.2 12.49-2.59-2.65-6.37-8.73-2.14-12.93.46-.46 1.49-.04 1.94.44Z" fill="#B3E369" /><path d="M23.17 32.03c-6.29-2.63-9.73 1.89-11.08 4.46 3.28 1.5 10.07 2.94 12.53-2.47.28-.62-.79-1.72-1.45-2Z" fill="#0356B9" /><path d="m23.02 31.97.15.06c.24.1.54.3.8.56l.38.44c.25.35.4.71.27.99a6.18 6.18 0 0 1-4.48 3.63 6.25 6.25 0 0 1 1.82-5.58c.25-.25.66-.24 1.06-.1Z" fill="#0BB25F" /><path d="M31.19 32.25c6.45-2.83 10.26 1.49 11.62 4.07-3.33 1.56-10.25 3.1-12.69-2.36-.27-.61.47-1.44 1.07-1.7Z" fill="#B3E369" /><path d="M30.5 32.78c-4.58 5.1-1.57 9.93.34 12.1 2.51-2.62 6.16-8.62 1.99-12.8-.48-.48-1.86.16-2.34.7Z" fill="#0356B9" /><path d="m30.39 32.9.1-.12c.18-.2.47-.4.8-.57l.53-.22c.4-.12.8-.13 1 .09a6.32 6.32 0 0 1 1.84 5.51 6.11 6.11 0 0 1-4.54-3.63c-.14-.33 0-.73.27-1.06Z" fill="#0BB25F" /><path d="M33.78 26.7c-1.71-6.93 3.1-10.05 5.84-11 .97 3.6 1.35 10.77-4.35 12.34-.63.17-1.33-.7-1.49-1.35Z" fill="#B3E369" /><path d="M34.18 27.48c4.23 5.4 9.4 3.17 11.82 1.6-2.14-2.94-7.38-7.56-12.12-4.06-.55.4-.14 1.89.3 2.46Z" fill="#0356B9" /><path d="m34.28 27.6-.1-.12a2.9 2.9 0 0 1-.42-.89l-.13-.57c-.05-.43 0-.82.25-1a6.09 6.09 0 0 1 5.65-.94 6.13 6.13 0 0 1-4.26 3.96c-.34.1-.7-.12-.99-.44Z" fill="#0BB25F" /></svg>