<?xml version='1.0' encoding='utf-8'?>
<!-- by TradeStack -->
<svg width="56" height="56" viewBox="0 0 56 56" xmlns="http://www.w3.org/2000/svg"><path fill="#F0F3FA" d="M0 0h56v56H0z" /><path d="m12 19.9 4 4.05L20 28l4-4.04 4-4.04-2.95-3a248.86 248.86 0 0 0-3.98-3.96L20.05 12l-.35.27c-.2.15-2 1.93-4.03 3.95L12 19.91Zm16 .12c0 .25 1.06 1.36 4.44 4.65L35.86 28l2.9-2.73c1.6-1.5 3.42-3.25 4.07-3.88L44 20.25l-.3-.3-1.9-2.02c-.88-.93-2.58-2.65-3.77-3.82L35.87 12l-3.02 2.97C29.52 18.23 28 19.82 28 20ZM30 36v-6h12v12H30v-6Zm-18 0 3.94 4c2.17 2.2 3.99 4 4.04 4 .05 0 1.88-1.81 4.06-4.03L28 35.94l-3.4-3.39a257.65 257.65 0 0 0-4.03-3.97l-.63-.58-3.97 4L12 36Z" fill="#EF4136" /></svg>