<?xml version='1.0' encoding='utf-8'?>
<!-- by TradeStack -->
<svg fill="none" viewBox="0 0 56 56" xmlns="http://www.w3.org/2000/svg"><path fill="#F0F3FA" d="M0 0h56v56H0z" /><path d="M35.749 22.615c.059 2.542-1.989 5.247-3.02 6.281-.884-4.966-5.23-6.06-7.292-5.985-7.955-.355-12.448 5.911-13.7 9.089-.172-.64-.737-3.058-.737-4.508 0-1.847.884-4.286 1.4-5.173.515-.886 4.366-8.977 14.142-8.276 7.218.517 9.133 5.394 9.207 8.572Z" fill="#0095DA" /><path d="M29.23 35.993c-2.267-1.139-5.036-3.997-4.811-7.326C28.015 32 33.172 30.5 34.719 27.5c4.125-6.5.578-12.993-1.584-15.5.65.159 3.065.827 4.34 1.504 1.626.863 3.325 2.723 3.844 3.559.52.835 5.688 7.758.12 15.415-4.113 5.653-9.375 4.94-12.209 3.515Z" fill="#41AD49" /><path d="M19.081 24.95c2.156-1.305 5.84-1.45 7.388-.95-3.803 3.17-2.826 7.506-1.67 9.136 3.91 6.603 11.68 7.135 15.076 6.575-.46.456-2.24 2.108-3.487 2.824-1.589.914-4.155 1.405-5.19 1.427-1.036.022-10.035.911-14.611-7.334-3.38-6.088-.2-10.047 2.494-11.678Z" fill="#FFC20E" /></svg>