<?xml version='1.0' encoding='utf-8'?>
<!-- by TradeStack -->
<svg width="56" height="56" viewBox="0 0 56 56" xmlns="http://www.w3.org/2000/svg"><path fill="#F0F3FA" d="M0 0h56v56H0z" /><path d="M25.34 13c.26 0 .52 0 .78.02l-.08.02-.24.08a5.1 5.1 0 0 0-.36.12l-.25.08-.36.13-.24.1-.34.14-.24.1-.34.17-.23.1-.35.18-.2.11-.37.21-.17.1a8.6 8.6 0 0 0-.53.33c-.35.23-.7.47-1.03.73l-.05.04-.44.35-.1.08-.36.33-.12.1c-.11.1-.23.2-.34.32l-.11.11-.33.34-.1.11-.32.36-.1.1a24.57 24.57 0 0 0-.39.47l-.34.45c0 .02-.02.03-.03.04-2.16 2.96-3.38 6.9-2.9 10.54.39 2.9 2.12 5.53 4.59 7.17a10.85 10.85 0 0 0 13.93-1.67A10.4 10.4 0 0 0 36.01 28c0-4.32-2.73-8.16-6.76-9.71l.05-.01.46-.05.22-.02a11.86 11.86 0 0 1 1.62.02l.11.01.35.04h.02a14.44 14.44 0 0 1 .88.16l.09.03c3.2.77 5.91 3.13 7.03 6.17 1.22 3.33.52 7.13-1.1 10.2a15.2 15.2 0 0 1-11.03 7.94c-.88.15-1.76.22-2.61.22C16.88 43 10 36.27 10 28s6.88-15 15.34-15Z" fill="#E19E65" /><path d="M46 28c0-8.27-6.88-15-15.34-15a15.65 15.65 0 0 0-8.79 2.7 15.13 15.13 0 0 0-5.5 6.87c-1.23 3.1-1.56 6.78 0 9.83a10.18 10.18 0 0 0 9.65 5.4l.22-.03.46-.05h.05A10.47 10.47 0 0 1 20 28a10.29 10.29 0 0 1 2.7-6.94 10.95 10.95 0 0 1 7.96-3.5c2.13 0 4.22.63 5.97 1.78a10.32 10.32 0 0 1 4.58 7.04c.53 3.7-.66 7.68-2.86 10.69l-.04.06a35.34 35.34 0 0 1-.72.9l-.1.12a10.85 10.85 0 0 1-.43.47l-.3.32-.14.13-.32.3-.13.12-.34.3-.13.1-.4.32-.08.08a17.13 17.13 0 0 1-1.55 1.05l-.2.1-.34.2-.22.12-.34.17-.23.11-.33.16a13.4 13.4 0 0 1-1.44.56l-.36.12-.24.08c-.03 0-.06 0-.08.02l.78.02C39.12 43 46 36.27 46 28Z" fill="#8DD3D1" /></svg>