<!-- by TradeStack --><svg width="56" height="56" viewBox="0 0 56 56" xmlns="http://www.w3.org/2000/svg"><path fill="#F0F3FA" d="M0 0h56v56H0z"/><path d="M29.32 22H18.17l-.36-.34a.05.05 0 0 1-.02-.03.06.06 0 0 1 .01-.04l5.51-6.58a.03.03 0 0 1 .04 0h.01L29.32 22Z" fill="#E01E25"/><path d="m37.96 21.97-.26-.3h-.04a.05.05 0 0 0-.04.01l-.21.27-2.9 3.54a.05.05 0 0 0 0 .06L37.32 29h6.69l-6.05-7.03ZM29.32 22l5.96 7h-6.2l-5.72-6.77a.05.05 0 0 0-.04-.02l-.03.01-2.54 2.43-.02.01h-.02L18.17 22h11.15ZM21.9 29H11.8l5.1-6.12a.02.02 0 0 1 .02 0L21.9 29Z" fill="#14499D"/><path d="M11.8 29h10.1l5.68 6.96V36H21.96a.2.2 0 0 1-.08-.02.22.22 0 0 1-.07-.05c-1.64-1.8-3.2-3.95-4.98-5.57a.06.06 0 0 0-.08 0c-1.7 1.63-3.17 3.8-4.72 5.6a.1.1 0 0 1-.07.03H6.01c0 .01 0 0 0 0H6a.03.03 0 0 1 0-.03L11.8 29ZM35.28 29c1.98 2.3 3.91 4.64 5.91 6.96v.01a.03.03 0 0 1 0 .03H35.04a.15.15 0 0 1-.12-.06c-1.96-2.3-3.87-4.65-5.83-6.94h6.2ZM37.32 29h6.69L50 35.97a.02.02 0 0 1 0 .02l-.02.01H43.1a.1.1 0 0 1-.07-.04L37.32 29Z" fill="#F3A727"/></svg>