<!-- by TradeStack --><svg width="56" height="56" viewBox="0 0 56 56" xmlns="http://www.w3.org/2000/svg"><path fill="#F0F3FA" d="M0 0h56v56H0z"/><path d="M17 18v13.53c0 .55.38.68.75.06 3.52-5.94 8.84-10.38 12.86-12.25V18H17Z" fill="#003E92"/><path d="M43.44 12.5c-2.27-1.87-8.5 1.82-13.03 5.6v1.32c2.1-.96 3.83-1.22 4.76-.63 2.1 1.32-2.68 11-9.9 16.2-.27.2-.27.57.24.27 12.46-7.36 20.78-20.4 17.93-22.76Z" fill="url(#amwkk0om1)"/><path d="M20.32 37.81c-2.16-2.37 2.6-9.89 8.8-14.53.27-.2.28-.55-.24-.27-9.29 5.11-18.87 17.34-16.52 20.4 1.35 1.75 6.5-.56 11.18-4.4v-.74c-1.4.38-2.55.28-3.22-.46Z" fill="url(#bmwkk0om1)"/><path d="M37.3 25.88c-2.78 5.42-9.54 11.22-13.84 12.4V39H38V26c0-.55-.38-.74-.7-.13Z" fill="#006E41"/><defs><linearGradient id="amwkk0om1" x1="34.54" y1="19.67" x2="34.54" y2="35.21" gradientUnits="userSpaceOnUse"><stop stop-color="#003E92"/><stop offset=".18" stop-color="#285AA3"/><stop offset=".46" stop-color="#5E81BB"/><stop offset=".7" stop-color="#869ECD"/><stop offset=".89" stop-color="#9FAFD8"/><stop offset="1" stop-color="#A8B6DC"/></linearGradient><linearGradient id="bmwkk0om1" x1="20.65" y1="37.31" x2="20.65" y2="23.03" gradientUnits="userSpaceOnUse"><stop stop-color="#006E41"/><stop offset=".22" stop-color="#338862"/><stop offset=".48" stop-color="#69A486"/><stop offset=".71" stop-color="#91B8A1"/><stop offset=".89" stop-color="#AAC5B1"/><stop offset="1" stop-color="#B3CAB7"/></linearGradient></defs></svg>