<?xml version='1.0' encoding='utf-8'?>
<!-- by TradeStack -->
<svg width="56" height="56" viewBox="0 0 56 56" fill="none" xmlns="http://www.w3.org/2000/svg">
<rect width="56" height="56" fill="#F0F3FA" />
<path d="M38.5527 27.3648L37.887 25.3766C37.8706 25.3252 37.8778 25.2774 37.9084 25.2334L39.0776 23.5553C39.0814 23.5498 39.0865 23.5453 39.0923 23.5421C39.0982 23.539 39.1047 23.5374 39.1113 23.5374C39.1178 23.5374 39.1243 23.539 39.1302 23.5421C39.136 23.5453 39.1411 23.5498 39.1449 23.5553L48.9913 37.9166C48.9965 37.9246 48.9996 37.934 49.0001 37.9436C49.0006 37.9533 48.9985 37.9629 48.9941 37.9715C48.9897 37.98 48.9831 37.9872 48.9751 37.9922C48.967 37.9973 48.9578 37.9999 48.9484 38H9.47123C9.40083 38 9.37889 37.9475 9.40542 37.8804C10.2425 35.7741 11.9076 32.7155 14.6194 33.5026C14.8897 33.5813 15.3646 33.8342 16.0441 34.2613C18.9947 36.1157 22.1533 37.3876 25.3793 35.3522C25.4012 35.3383 25.4257 35.3295 25.4511 35.3264C25.4766 35.3233 25.5024 35.326 25.5267 35.3342C25.5509 35.3425 25.5731 35.3562 25.5915 35.3742C25.61 35.3923 25.6243 35.4144 25.6334 35.4388L25.6747 35.5474C25.6971 35.6083 25.7395 35.6466 25.8017 35.6623L30.3469 36.8508C30.402 36.8655 30.4285 36.8435 30.4265 36.7847L30.2566 31.2074C30.2562 31.1957 30.2586 31.184 30.2636 31.1734C30.2686 31.1629 30.276 31.1537 30.2852 31.1467C30.2943 31.1398 30.305 31.1352 30.3163 31.1334C30.3276 31.1316 30.3391 31.1327 30.3499 31.1366L35.3282 32.8745C35.3381 32.878 35.347 32.8838 35.3543 32.8916C35.3615 32.8994 35.3669 32.9088 35.3698 32.9191C35.3728 32.9294 35.3734 32.9403 35.3715 32.9509C35.3696 32.9615 35.3652 32.9714 35.3588 32.9799L33.2637 35.7536C33.2583 35.761 33.2553 35.7698 33.2551 35.779C33.255 35.7881 33.2577 35.7971 33.2629 35.8047C33.2682 35.8124 33.2756 35.8182 33.2843 35.8215C33.2929 35.8247 33.3023 35.8252 33.3112 35.8229C35.417 35.1791 37.561 34.6281 39.6025 33.7875C39.6555 33.7654 39.7101 33.7602 39.7662 33.7717L43.5554 34.5368C43.6687 34.5588 43.685 34.5279 43.6044 34.4439L41.4726 32.1991C41.4389 32.1635 41.4241 32.1209 41.4282 32.0716L41.5568 30.318C41.5608 30.2645 41.543 30.2209 41.5032 30.1873L40.2621 29.1373C40.2527 29.1293 40.2414 29.124 40.2294 29.122C40.2173 29.1201 40.205 29.1215 40.1937 29.1262C40.1824 29.1309 40.1725 29.1386 40.1651 29.1486C40.1578 29.1586 40.1532 29.1705 40.1519 29.183L39.8657 31.7552C39.8586 31.8182 39.8259 31.8602 39.7678 31.8811L38.4241 32.3581C38.367 32.3791 38.3195 32.3655 38.2818 32.3172L34.4406 27.4577C34.4242 27.4365 34.402 27.4207 34.3768 27.4121C34.3516 27.4034 34.3243 27.4023 34.2983 27.4089L30.6254 28.3502C30.6179 28.3521 30.6102 28.3523 30.6026 28.3509C30.5951 28.3494 30.5879 28.3464 30.5816 28.3419C30.5752 28.3375 30.5699 28.3317 30.5658 28.325C30.5618 28.3183 30.5591 28.3108 30.5581 28.303L29.3215 20.4368C29.3199 20.427 29.3154 20.418 29.3087 20.4109C29.3019 20.4038 29.2932 20.399 29.2838 20.3971C29.2743 20.3952 29.2645 20.3963 29.2556 20.4003C29.2468 20.4043 29.2393 20.411 29.2343 20.4195L28.1921 22.2251C28.1585 22.2828 28.1182 22.2881 28.0712 22.2408C27.8248 21.9874 27.632 21.789 27.5478 21.4175C27.3897 20.7259 27.2112 20.0401 27.0122 19.3601C26.9908 19.2856 26.9638 19.2835 26.9311 19.3538L25.3043 22.8422C25.2965 22.8591 25.2852 22.8741 25.2712 22.8861C25.2571 22.898 25.2407 22.9067 25.2231 22.9115C25.2055 22.9163 25.187 22.9171 25.1691 22.9138C25.1511 22.9105 25.1341 22.9033 25.1192 22.8925C24.1902 22.2251 23.3332 21.575 22.2666 21.1704C22.2043 21.1463 22.1921 21.1058 22.2298 21.0492L27.6167 13.0444C27.6254 13.0312 27.6371 13.0202 27.6507 13.0125C27.6643 13.0048 27.6796 13.0005 27.6951 13C27.7107 12.9996 27.7261 13.0029 27.7402 13.0098C27.7542 13.0167 27.7664 13.027 27.7759 13.0397L38.4624 27.4136C38.5919 27.5878 38.622 27.5716 38.5527 27.3648Z" fill="#316734" />
<path d="M38.785 16.2038L37.4566 17.7434C37.4209 17.7843 37.3766 17.8048 37.3235 17.8048H37.0128C36.97 17.8048 36.9353 17.8216 36.9088 17.8551L34.5428 20.8067C34.4857 20.8781 34.4291 20.8771 34.373 20.8036L33.7669 20.0134C33.7513 19.9926 33.7429 19.967 33.7432 19.9407C33.7434 19.9144 33.7524 19.8889 33.7685 19.8685L36.1497 16.876C36.1813 16.8361 36.2002 16.7899 36.2063 16.7375C36.2614 16.2621 36.8613 15.6041 37.1383 15.1995C37.1679 15.1565 37.1649 15.1155 37.1291 15.0767C36.3318 14.203 35.1917 13.6993 34.1006 13.3404C33.969 13.2963 33.972 13.2774 34.1097 13.2837C37.3924 13.4175 40.6658 14.8532 41.9161 18.2078C41.9365 18.2623 41.9207 18.3001 41.8687 18.3211L40.7224 18.7823C40.6643 18.8054 40.6219 18.7881 40.5954 18.7304C40.1639 17.7838 39.5884 16.9405 38.8692 16.2007C38.8634 16.1949 38.8566 16.1904 38.8492 16.1874C38.8417 16.1844 38.8338 16.1831 38.8259 16.1834C38.818 16.1836 38.8103 16.1856 38.8033 16.1891C38.7962 16.1927 38.79 16.1977 38.785 16.2038Z" fill="#3A3A3C" />
<path d="M22.3783 19.7504L21.6131 21.1341C21.6054 21.1475 21.5932 21.1575 21.5788 21.1621C21.5644 21.1668 21.5488 21.1658 21.535 21.1593L19.896 20.4179C19.8877 20.414 19.8804 20.4084 19.8745 20.4012C19.8686 20.3941 19.8643 20.3857 19.8619 20.3766C19.8596 20.3676 19.8592 20.3581 19.8609 20.3489C19.8626 20.3397 19.8662 20.331 19.8715 20.3234L22.2727 16.9374C22.278 16.9297 22.2848 16.9234 22.2928 16.9188C22.3007 16.9142 22.3096 16.9116 22.3187 16.911C22.3278 16.9104 22.3369 16.9118 22.3453 16.9153C22.3538 16.9188 22.3614 16.9242 22.3676 16.9311L23.2751 17.9637C23.2817 17.971 23.2865 17.9798 23.2892 17.9894C23.2918 17.999 23.2922 18.009 23.2904 18.0188L22.9246 19.7394C22.9213 19.755 22.9123 19.7687 22.8995 19.7778C22.8868 19.7868 22.8711 19.7906 22.8557 19.7882L22.441 19.7189C22.4287 19.717 22.4161 19.719 22.4049 19.7246C22.3936 19.7302 22.3844 19.7392 22.3783 19.7504Z" fill="#316734" />
<path d="M26.4122 33.8284C25.6424 34.2692 24.8298 34.8296 24.0692 35.0799C21.3528 35.974 18.7083 34.5084 16.474 33.1405C15.8221 32.7417 15.3007 32.4993 14.91 32.4132C12.3359 31.8481 10.3694 34.1842 9.53995 36.3959C9.53274 36.4148 9.52085 36.4314 9.50548 36.4441C9.4901 36.4568 9.47177 36.4652 9.45229 36.4684C9.4328 36.4715 9.41285 36.4694 9.39441 36.4622C9.37596 36.4551 9.35966 36.443 9.34712 36.4274C7.09596 33.5639 6.31701 29.8064 7.65913 26.351C9.47567 21.6757 14.3269 19.2152 19.0573 20.4415C22.2848 21.279 24.4992 23.4136 26.1673 26.3085C27.3212 28.3093 27.9915 29.4081 29.2112 30.8327C29.6244 31.3165 29.6346 31.8297 29.2418 32.3723C28.5072 33.3861 27.9747 34.1543 26.5729 33.8048C26.5157 33.7911 26.4622 33.799 26.4122 33.8284ZM20.2632 24.2983C20.2693 24.3833 20.2545 24.4636 20.2188 24.5391C20.1964 24.5885 20.2091 24.6241 20.2571 24.6462C22.1991 25.5277 23.7754 26.7902 25.5215 27.9126C25.5457 27.9281 25.5735 27.9366 25.6019 27.9373C25.6304 27.938 25.6586 27.9308 25.6834 27.9165C25.7083 27.9022 25.7289 27.8813 25.7433 27.856C25.7576 27.8306 25.765 27.8018 25.7648 27.7725C25.7638 27.6581 25.7312 27.5332 25.6669 27.3979C23.6621 23.1712 19.169 20.4699 14.5565 21.6568C11.3305 22.488 8.99667 24.8256 8.24679 28.1204C8.00193 29.2003 7.64689 31.6875 8.45951 32.5801C8.5135 32.639 8.58772 32.6738 8.66616 32.677C8.74461 32.6803 8.82099 32.6517 8.87883 32.5974C9.80776 31.7347 9.81082 29.8567 10.2026 28.7721C11.2769 25.8126 13.9382 23.9583 17.0127 23.9236C17.0668 23.9226 17.1035 23.8963 17.1229 23.8449C17.4121 23.094 18.0028 21.9354 19.0205 22.3731C19.7857 22.7026 20.1999 23.3443 20.2632 24.2983ZM20.7238 27.4467C20.3948 28.9091 21.1845 29.1672 22.3445 28.7107C22.3955 28.6897 22.447 28.6892 22.499 28.7091L23.503 29.1043C23.6815 29.1746 23.6922 29.1536 23.5351 29.0413L20.3887 26.7823C20.2622 26.691 20.2469 26.7078 20.3428 26.8327L20.6886 27.2814C20.7264 27.3307 20.7381 27.3858 20.7238 27.4467ZM23.1219 32.2589C23.1157 32.2517 23.1122 32.2425 23.1119 32.2328C23.1117 32.2232 23.1148 32.2138 23.1207 32.2063C23.1265 32.1988 23.1348 32.1936 23.1439 32.1917C23.1531 32.1898 23.1627 32.1913 23.1709 32.196C23.8427 32.5738 25.8092 33.5781 26.5208 33.2617C26.8116 33.1337 27.0065 32.886 27.1054 32.5187C27.1187 32.4683 27.1039 32.43 27.061 32.4038C26.6917 32.1729 26.4841 31.8365 26.4382 31.3947C26.431 31.3317 26.3989 31.2882 26.3418 31.2641L24.4656 30.4754C24.4135 30.4533 24.3753 30.4686 24.3508 30.521C23.5672 32.2227 21.0743 30.8107 20 30.2456C17.0402 28.6871 12.5241 28.7753 11.1376 32.5533C11.1121 32.6215 11.1208 32.6268 11.1637 32.569C12.5379 30.7052 14.6988 31.0626 16.4434 32.0748C19.0986 33.6159 22.0307 35.3585 25.1343 33.874C25.1478 33.8673 25.1592 33.8568 25.1671 33.8437C25.175 33.8306 25.1791 33.8155 25.179 33.8002C25.1788 33.7849 25.1743 33.7701 25.1662 33.7575C25.158 33.7449 25.1464 33.7351 25.1328 33.7292C24.3605 33.3871 23.6902 32.897 23.1219 32.2589Z" fill="black" />
<path d="M23.1221 32.2589C23.6903 32.897 24.3606 33.3871 25.133 33.7292C25.1466 33.7351 25.1581 33.7449 25.1663 33.7575C25.1745 33.7701 25.179 33.7849 25.1791 33.8002C25.1793 33.8155 25.1752 33.8306 25.1672 33.8437C25.1593 33.8568 25.148 33.8673 25.1345 33.8741C22.0309 35.3585 19.0987 33.6159 16.4436 32.0748C14.699 31.0626 12.5381 30.7052 11.1638 32.5691C11.121 32.6268 11.1123 32.6215 11.1378 32.5533C12.5243 28.7753 17.0404 28.6871 20.0001 30.2456C21.0744 30.8107 23.5674 32.2227 24.3509 30.521C24.3754 30.4686 24.4137 30.4533 24.4657 30.4754L26.3419 31.2641C26.3991 31.2882 26.4312 31.3317 26.4384 31.3947C26.4843 31.8365 26.6919 32.1729 27.0612 32.4038C27.1041 32.43 27.1189 32.4683 27.1056 32.5187C27.0066 32.886 26.8118 33.1337 26.521 33.2617C25.8094 33.5781 23.8429 32.5738 23.171 32.196C23.1628 32.1913 23.1533 32.1898 23.1441 32.1917C23.1349 32.1936 23.1267 32.1988 23.1208 32.2063C23.115 32.2138 23.1119 32.2232 23.1121 32.2328C23.1123 32.2425 23.1159 32.2517 23.1221 32.2589Z" fill="#3A3A3C" />
</svg>