<?xml version='1.0' encoding='utf-8'?>
<!-- by TradeStack -->
<svg width="56" height="56" viewBox="0 0 56 56" xmlns="http://www.w3.org/2000/svg"><path fill="#F0F3FA" d="M0 0h56v56H0z" /><path d="M25.86 31.67h-.15a.43.43 0 0 1-.17-.04c-2.05-.94-1.82-2.59-1.36-4.7a6389.97 6389.97 0 0 1 3.43-15.9.06.06 0 0 0-.05-.03c-3.9.11-7.36 1.35-10.42 3.72a.19.19 0 0 0-.05.22l3.08 6.63c.72 1.56.8 2.87-.28 4.15a.22.22 0 0 0-.04.24l5.9 14.1c.17.36.25.35.25-.05v-8.2c0-.1-.05-.14-.14-.14ZM38.6 14.74c.06-.05.06-.1 0-.15a17.48 17.48 0 0 0-9.37-3.54c-.1-.01-.24.07-.24.17v29.14c0 .07.15.09.18.03l5.64-12.1a.9.9 0 0 0-.01-.78c-2.11-4.3.36-9.9 3.8-12.77Zm-23.44 3.18-.31-.74a.25.25 0 0 1 .04-.29l.9-1c.07-.08.14-.07.18.03l1.8 3.84.1.21c.3.62.5 1.07-.05 1.56a.5.5 0 0 1-.58.07c-.69-.38-1.54-2.4-2.08-3.68Zm-2.26 2.17 1.23 2.52a.65.65 0 0 0 .99.22c.33-.28.41-.62.24-1.03-.45-1.1-.94-2.21-1.45-3.31-.05-.12-.11-.12-.18-.01l-.81 1.33a.3.3 0 0 0-.02.28Zm4.05 7.06.08.03.05.06 8.12 17.5c.06.13.02.18-.12.16-11.05-1.86-16.44-12.53-13.12-22.91.07-.22.15-.23.25-.02.17.34.33.71.5 1.08.83 1.94 1.74 4.02 4.24 4.1Zm27.22-4.3v.01a11.96 11.96 0 0 1-4.36 5.35c-.55.36-.97.52-1.34.65-.7.25-1.18.42-1.85 1.86a16014.83 16014.83 0 0 1-6.56 14.19.1.1 0 0 0 .06.08.1.1 0 0 0 .05 0c10.81-1.44 17.12-11.78 14.04-22.12v-.02h-.04Z" fill="#F58227" /></svg>