<!-- by TradeStack --><svg width="56" height="56" viewBox="0 0 56 56" xmlns="http://www.w3.org/2000/svg"><path fill="#F0F3FA" d="M0 0h56v56H0z"/><path d="M29.06 11.31a.9.9 0 0 1 .43.03c.05.02.09.05.12.1a.22.22 0 0 1-.05.28.23.23 0 0 1-.15.05l-1.1-.06c-.07 0-.1-.04-.1-.12l.23-2.48c0-.08.05-.12.13-.1l.36.03c.08.01.12.06.11.14l-.15 1.99a.13.13 0 0 0 .05.11.14.14 0 0 0 .12.03ZM24.4 11.08l-.76.24c-.08.03-.1.08-.07.15.16.34.66 1.12-.16 1.13-.07 0-.11-.03-.14-.1-.19-.54-.65-1.53-.57-2.04.13-.78 1.28-1.14 1.84-.67.4.35.64 1.33.84 1.9a.31.31 0 0 1-.17.39.32.32 0 0 1-.4-.13c-.13-.2-.22-.47-.27-.78a.1.1 0 0 0-.09-.09.1.1 0 0 0-.04 0Zm-.88-.17.67-.25a.12.12 0 0 0 .07-.15l-.02-.05a.53.53 0 0 0-.24-.27.44.44 0 0 0-.17-.05.4.4 0 0 0-.17.02l-.07.03a.4.4 0 0 0-.15.1.43.43 0 0 0-.1.14.48.48 0 0 0-.03.18c0 .06.02.12.04.18l.01.05c.02.03.04.05.07.06.03.02.06.02.09 0ZM34 11.14l-.88 1.73a.15.15 0 0 1-.1.08h-.05l-.07-.01-.3-.18a.11.11 0 0 1-.05-.15l.86-1.7c.07-.15.03-.25-.13-.3-.3-.08-.36-.25-.21-.5a.15.15 0 0 1 .08-.07h.12l1.48.72c.08.04.1.1.06.18l-.12.23a.12.12 0 0 1-.15.05l-.37-.15c-.07-.03-.13 0-.17.07ZM19.34 13.31c.17-.15.35-.3.55-.42a.22.22 0 0 1 .3.05.21.21 0 0 1-.04.3l-.5.44c-.07.06-.08.13-.01.2l.29.29c.06.05.11.05.17 0a3.45 3.45 0 0 1 .54-.43.25.25 0 0 1 .3.17.24.24 0 0 1-.09.25l-.95.81c-.04.04-.09.04-.13 0l-1.68-1.93c-.05-.06-.05-.12.01-.17l1-.82c.06-.05.11-.05.17.01l.15.2c.05.05.05.1-.01.14l-.52.45c-.06.05-.06.1-.01.15l.26.3c.06.07.13.07.2.01Z" fill="#289C46"/><path d="M28 43.5c-3.45 0-6.75-1.63-9.2-4.54A17.13 17.13 0 0 1 15 28c0-4.11 1.37-8.05 3.8-10.96 2.45-2.9 5.75-4.54 9.2-4.54 3.45 0 6.75 1.63 9.2 4.54C39.62 19.94 41 23.89 41 28c0 4.11-1.37 8.05-3.8 10.96-2.45 2.9-5.75 4.54-9.2 4.54Zm.02-1.4c3.1 0 6.06-1.47 8.25-4.1a15.54 15.54 0 0 0 3.41-9.9c0-1.83-.3-3.65-.89-5.35a14.46 14.46 0 0 0-2.52-4.54 10.77 10.77 0 0 0-8.25-4.1c-3.1 0-6.06 1.47-8.25 4.1a15.54 15.54 0 0 0-3.41 9.9c0 3.71 1.23 7.27 3.41 9.9a10.77 10.77 0 0 0 8.25 4.1Z" fill="#471708"/><path d="m37.7 15.15-.53-.52a.13.13 0 0 0-.18 0l-.66.57a.13.13 0 0 1-.18 0l-.24-.23a.13.13 0 0 1-.04-.1.13.13 0 0 1 .04-.09l1.81-1.71a.13.13 0 0 1 .1-.04.13.13 0 0 1 .1.05l.25.29a.13.13 0 0 1 .02.14c0 .02-.02.03-.03.04l-.64.53a.13.13 0 0 0-.05.1.13.13 0 0 0 .04.09l.53.55a.13.13 0 0 0 .18 0l.68-.56a.13.13 0 0 1 .18.02l.23.25a.13.13 0 0 1 0 .18l-1.84 1.7a.13.13 0 0 1-.19 0l-.27-.27a.13.13 0 0 1-.03-.14l.03-.04.68-.63a.13.13 0 0 0 0-.18ZM24.73 38h1.16c.07 0 .11-.09.11-.15v-16.7a.15.15 0 0 0-.04-.1.16.16 0 0 0-.11-.05h-1.17c-.06 0-.09.04-.09.1v4.78c0 .06-.03.12-.1.12h-2.94c-.08 0-.12-.07-.12-.14v-7.34c0-.06.03-.11.07-.16a9.28 9.28 0 0 1 4.54-2.7c1.56-.4 2.12 2.27 2.23 3.3.18 1.66.11 3.27-.2 4.83-.91 4.68-2.84 10.53-1.4 15.73.17.6-.05 1.48-.96 1.18a9.86 9.86 0 0 1-4.14-2.51.28.28 0 0 1-.08-.19l-.07-10.42c0-.08.04-.08.12-.08h2.96c.06 0 .09-.01.09.05l.04 10.3c0 .07.04.15.1.15ZM16.2 16.69l-.78-.47a.1.1 0 0 1-.05-.14l.2-.38a.1.1 0 0 1 .06-.06.11.11 0 0 1 .09.02L17.9 17a.1.1 0 0 1 .04.14l-.2.34a.1.1 0 0 1-.06.05.11.11 0 0 1-.08-.01l-.79-.47a.11.11 0 0 0-.15.03l-.46.67a.1.1 0 0 0 0 .12c0 .02.02.03.03.03l.83.53a.1.1 0 0 1 .05.07.1.1 0 0 1-.02.08l-.22.32a.11.11 0 0 1-.15.03l-2.22-1.36a.11.11 0 0 1-.05-.08.1.1 0 0 1 .03-.08l.25-.31a.1.1 0 0 1 .14-.02l.77.47a.11.11 0 0 0 .15-.03l.45-.68a.1.1 0 0 0 .02-.08.1.1 0 0 0-.05-.07Z" fill="#289C46"/><path d="M32.48 36.46c.76.31 2.17.2 3.14.16.09 0 .11.03.06.1-1.35 1.95-3.88 4.08-6.43 4-.97-.03-1.23-1.62-1.33-2.5-.45-4.03.46-7.85 1.36-11.84.52-2.28 1-5.32.52-7.63-.14-.66-1.04-3.66.78-2.95 4.65 1.83 7.1 6.35 7.51 11.14 0 .06-.02.06-.08.06h-5.58c-.9 0-1.52.1-1.88.29-1.2.58-1.2 1.34-.86 2.55.45 1.63.96 3.25 1.54 4.85.29.81.38 1.4 1.25 1.77Zm2.57-13.24c.28.18.29.36.01.54-.45.31-.84.7-1.17 1.15a.23.23 0 0 0 0 .27c.36.49.84.77 1.45.84a.09.09 0 0 0 .1-.05.1.1 0 0 0-.03-.1l-.9-.75a.33.33 0 0 1 .02-.52l1.55-1.17a.29.29 0 0 0 .11-.27.28.28 0 0 0-.18-.23l-.9-.35c-.25-.1-.29-.24-.12-.44.64-.75.67-1.54.08-2.36a.72.72 0 0 0-.3-.25h-.03a.04.04 0 0 0-.03.04l.01.02c1.4 1.33-2.02 2.19.33 3.63Z" fill="#471708"/><path d="m41.12 19.04.8-.01c.1 0 .17.04.2.12l.19.38a.08.08 0 0 1-.04.11l-.04.01-1.52-.1a.4.4 0 0 0-.2.04l-.9.42a.13.13 0 0 1-.16-.06l-.15-.34c-.03-.07-.01-.13.07-.16 1.1-.47 1.25-.83 1.88-1.77a.09.09 0 0 1 .12-.02l.03.03.2.37c.04.07.04.13 0 .2l-.54.68a.07.07 0 0 0 0 .07.07.07 0 0 0 .06.03Z" fill="#289C46"/><path d="M15 19.6c.07-.16.15-.29.23-.39a.1.1 0 0 1 .17.03.1.1 0 0 1 0 .07 19.94 19.94 0 0 0 .2 18.32.09.09 0 0 1-.05.09.1.1 0 0 1-.07 0 5.71 5.71 0 0 1-.43-.73 19.69 19.69 0 0 1-.05-17.4Z" fill="#020101"/><path d="M19.44 27.5h.47c.06 0 .09 0 .09.07v8.76c0 .05-.09.06-.11.03-3.23-4.98-2.77-11.31.18-16.31a.07.07 0 0 1 .08-.03c.02 0 .03 0 .04.02l.02.05v5.74c0 .11-.05.17-.16.17h-1.01a.1.1 0 0 0-.1.04.1.1 0 0 0-.02.1l.41 1.24c.02.05.05.12.1.12ZM40.1 38.06a19.71 19.71 0 0 0 1.21-17.33c0-.02 0-.04.02-.06a.1.1 0 0 1 .17.02c2.45 6.4 1.9 12.51-1.64 18.33a.1.1 0 0 1-.13.04.1.1 0 0 1-.05-.12c.1-.28.24-.57.41-.88Z" fill="#289C46"/><path d="M32.97 35.62a1.2 1.2 0 0 1-.4-.56c-.5-1.75-1.01-3.5-1.56-5.24-.4-1.3-.18-1.8 1.45-1.82h5.64c.06 0 .09.02.09.08a13 13 0 0 1-1.9 7.72.17.17 0 0 1-.15.08c-.87.06-1.72.05-2.55-.02-.25-.02-.46-.1-.62-.24Z" fill="#471708"/><path d="M16.59 40.69c.2.12.23.3.09.52-.03.05-.07.06-.12.04-1.16-.5-1.5-2-.23-2.65 1.04-.53 2 .32 2.05 1.37 0 .08-.03.11-.11.11-.32 0-.48-.16-.48-.47a.29.29 0 0 0-.06-.17c-.92-1.17-2.43.43-1.14 1.25ZM39.15 41.28a.1.1 0 0 0 .08.02.1.1 0 0 0 .07-.04l.42-.5c.04-.05.1-.06.15-.02l.19.11c.1.06.1.13.03.21l-.82.95a.11.11 0 0 1-.12.04.11.11 0 0 1-.04-.02l-1.92-1.61c-.06-.05-.06-.1-.01-.15l.81-.96c.05-.06.1-.07.17-.02l.17.14c.06.05.06.1 0 .16l-.42.5a.1.1 0 0 0 .01.14l.38.31c.06.05.12.05.16-.01l.38-.48a.18.18 0 0 1 .12-.07.19.19 0 0 1 .14.04c.11.1.14.19.07.28l-.4.51c-.03.05-.03.1.02.15l.36.32ZM22.16 44.5c-.22.3-.56.49-.94.54a1.5 1.5 0 0 1-1.66-1.2 1.37 1.37 0 0 1 .25-1.05c.22-.3.56-.5.93-.54a1.5 1.5 0 0 1 1.67 1.2 1.37 1.37 0 0 1-.25 1.04Zm-.32-.86c0-.22-.09-.44-.25-.6a.87.87 0 0 0-1.22 0 .84.84 0 0 0 0 1.2.87.87 0 0 0 1.22 0 .84.84 0 0 0 .25-.6ZM35.55 44.49a3.17 3.17 0 0 0 .55-.32.13.13 0 0 1 .14.08l.08.2c.03.07.01.13-.05.17l-1.09.65c-.06.04-.1.03-.14-.03l-1.31-2.11c-.04-.07-.03-.12.04-.15l1.04-.63a.18.18 0 0 1 .2.01c.12.08.17.16.15.24 0 .05-.06.1-.15.15-.18.09-.32.17-.41.24a.32.32 0 0 0 .13.57c.08.02.16 0 .24-.04l.46-.26a.15.15 0 0 1 .2.04l.1.16a.12.12 0 0 1 0 .13l-.03.03-.46.28a.33.33 0 0 0-.12.43c.04.08.1.13.18.16.08.03.17.03.25 0ZM30.57 45.3l.75-.13a.09.09 0 0 1 .1.09v.25a.09.09 0 0 1-.08.08l-.66.13a.09.09 0 0 0-.05.03.09.09 0 0 0-.02.07l.18.97c0 .02 0 .04-.02.06a.09.09 0 0 1-.05.04l-.4.1a.09.09 0 0 1-.07 0 .09.09 0 0 1-.04-.06l-.53-2.5c0-.02 0-.04.02-.06a.09.09 0 0 1 .05-.04l1.33-.26a.09.09 0 0 1 .1.05v.32c0 .02 0 .04-.02.05a.09.09 0 0 1-.05.03l-.62.08a.09.09 0 0 0-.05.04.09.09 0 0 0-.02.06l.05.51a.09.09 0 0 0 .03.06.09.09 0 0 0 .07.02ZM25.97 45.37l.7.12c.02 0 .03 0 .04.02l.02.04-.03.3a.06.06 0 0 1-.02.05.07.07 0 0 1-.05 0l-.75-.11a.07.07 0 0 0-.07.05l-.17 1.02v.02l-.03.02a.07.07 0 0 1-.05.01l-.49-.1a.07.07 0 0 1-.04-.03.06.06 0 0 1-.01-.05l.47-2.54v-.03a.06.06 0 0 1 .05-.03h.03l1.34.25a.07.07 0 0 1 .04.03.07.07 0 0 1 .01.05l-.07.3a.07.07 0 0 1-.08.05l-.72-.15a.07.07 0 0 0-.05.01.06.06 0 0 0-.03.05l-.1.57a.06.06 0 0 0 .03.07h.03Z" fill="#2F1003"/></svg>