<!-- by TradeStack --><svg width="56" height="56" viewBox="0 0 56 56" xmlns="http://www.w3.org/2000/svg"><path fill="#F0F3FA" d="M0 0h56v56H0z"/><path fill-rule="evenodd" d="M22.4 22.07c-2.23.9-4.58 1.88-7.06 2.92h-.06c-.03-.01-.03-.03-.03-.06.69-3 2.17-5.51 4.46-7.5a13.72 13.72 0 0 1 7.78-3.4c.44-.04.82-.04 1.14 0 .87.15 1.63.46 2.3.96.86.64 1.06 1.36.62 2.15-.19.33-.54.7-1.05 1.08-.73.54-1.58 1.04-2.55 1.52-1.29.64-2.59 1.2-3.9 1.7l-1.66.63Zm9.57-7.58a8.4 8.4 0 0 1 3.18 1.58c.62.51 1.06 1.1 1.32 1.77.28.72.32 1.47.11 2.24-.3 1.1-.87 2-1.71 2.72-.85.7-1.83 1.32-2.96 1.84A118.15 118.15 0 0 1 19.9 29.3c-.64.21-1.19.43-1.66.65-.91.43-1.8.93-2.66 1.5-.06.05-.1.04-.14-.03a8.03 8.03 0 0 1-.68-3.45c.03-1.32.85-2.27 2.46-2.86l1.82-.66c2.32-.81 4.5-1.69 6.55-2.62a36.6 36.6 0 0 0 3.8-2c.58-.34 1.14-.74 1.69-1.18a4.76 4.76 0 0 0 1.53-1.88c.15-.4.16-.8.02-1.18a1.76 1.76 0 0 0-.74-.9c-.05-.03-.06-.08-.03-.14.02-.04.06-.06.11-.05ZM40.48 32a7.47 7.47 0 0 0 1.45-3.36c.12-.65.07-1.27-.16-1.85-.03-.07-.07-.09-.13-.04-2.38 2.01-4.83 3.65-7.34 4.9a91.98 91.98 0 0 1-15.65 6.15c-.08.03-.1.07-.04.13.41.44.82.84 1.22 1.22.68.63 1.4.99 2.13 1.06.3.02.73-.01 1.32-.1 4.8-.78 9.31-2.44 13.53-4.98A13.42 13.42 0 0 0 40.48 32Zm-1.12-12.62a.2.2 0 0 0-.12-.02 3.8 3.8 0 0 0-1.5.5c-.09.05-.14.02-.15-.1-.07-.58-.1-1.14-.09-1.67 0-.2.1-.32.3-.39a14.98 14.98 0 0 1 4.5-.58c2.19.07 3.4.67 3.65 1.8.13.6 0 1.32-.4 2.16-.3.63-.7 1.25-1.21 1.87-1 1.2-2.17 2.29-3.53 3.3a60.04 60.04 0 0 1-24.03 10.2c-1.12.2-2.2.32-3.24.37-.58.02-1.16 0-1.76-.07-1.01-.12-1.75-.41-2.22-.88-.97-1-.69-2.43.85-4.31a19.5 19.5 0 0 1 3.65-3.39c.06-.04.1-.03.13.05a3.29 3.29 0 0 0 .18 3.16c.4.85 1.32 1.07 2.77.67 1.41-.4 2.86-.91 4.35-1.54 3.23-1.36 5.73-2.48 7.5-3.35a51.38 51.38 0 0 0 7.05-4.13 12.3 12.3 0 0 0 3.34-3.57c.02-.03.01-.06-.02-.08Zm-3.82 6.81-.63.44c-.21.15-.36.1-.45-.16v-.03c-.03-.25.05-.44.23-.57.85-.63 1.69-1.24 2.52-1.83.1-.07.16-.04.19.07l.15.6c.03.1 0 .18-.08.23l-.86.6c-.08.05-.11.14-.09.24l.43 1.64c.02.1 0 .16-.09.2l-.49.23c-.1.05-.17.02-.2-.1l-.49-1.5c-.02-.09-.07-.1-.14-.06Zm-1.5 2.2c.15.15.1.38-.14.66-.17.2-.36.38-.58.52-.4.25-.83.49-1.31.7-.08.03-.12 0-.13-.08-.03-.37-.1-.73-.18-1.08-.1-.43-.32-.72-.65-.87-.09-.04-.1-.09-.02-.15l.16-.13c.5-.4.88-.68 1.15-.81.47-.23.92-.27 1.35-.13.07.03.1.08.09.16-.09.5 0 .9.27 1.2Zm-1.65-.1c-.12-.09-.1-.35.05-.57.15-.23.37-.34.49-.25.12.09.1.35-.05.57-.15.23-.37.34-.5.25Zm.86.3c.1.1.04.36-.15.56-.2.2-.44.26-.55.15-.1-.12-.04-.38.15-.57.2-.2.44-.26.55-.15Zm-4.57 2.5c.14-.49.02-.79-.36-.92-.26-.1-.61-.1-1.05-.01-.03 0-.06 0-.08-.04a.08.08 0 0 1 0-.09l.42-.77c.05-.09.11-.1.2-.05l.99.62c.1.06.17.04.24-.05l.8-1.08c.14-.2.29-.2.44-.01l.03.04c.16.18.16.37 0 .56l-.53.65c-.3.36-.37.8-.24 1.34.04.15-.04.28-.24.39-.2.1-.37.1-.5-.05a.53.53 0 0 1-.12-.54Zm-2.68.95c-.03-.58.06-1.15.26-1.7.05-.11 0-.18-.12-.19-.52-.03-.8.21-.84.73-.02.23-.13.36-.33.4l-1 .2c-.07 0-.12-.02-.15-.08-.04-.1-.1-.2-.16-.28-.15-.23-.35-.33-.6-.3-.24.03-.43.16-.55.41a.17.17 0 0 0 .02.2c.43.53.56 1.17.37 1.9-.04.17.01.22.16.17.18-.06.37-.14.57-.25a.3.3 0 0 0 .16-.23l.08-.62c0-.07.04-.11.11-.13l1.25-.3c.1-.03.14 0 .13.11l-.09.77c0 .04.01.07.04.1.04.02.07.03.1.02.35-.13.67-.26.98-.4.09-.03.1-.08.02-.15a1.21 1.21 0 0 0-.14-.09c-.17-.1-.26-.2-.27-.3Zm14.15 1.84c-3.18 2.98-7.56 5.17-13.15 6.57-.33.08-1.01.24-2.04.46-.25.06-.48.15-.67.27a.06.06 0 0 0-.02.06c0 .03.02.05.04.06 1.88.61 3.6.82 5.15.63a14.86 14.86 0 0 0 6.56-2.3 10.87 10.87 0 0 0 4.3-5.6c.03-.1 0-.15-.1-.17-.02 0-.05 0-.07.02Z" fill="url(#a0m22bhki)"/><defs><linearGradient id="a0m22bhki" x1="10.35" y1="35.94" x2="45.65" y2="20.27" gradientUnits="userSpaceOnUse"><stop offset=".27" stop-color="#129CD7"/><stop offset=".55" stop-color="#97E3FF"/><stop offset=".7" stop-color="#008EC8"/></linearGradient></defs></svg>