<!-- by TradeStack --><svg width="56" height="56" viewBox="0 0 56 56" xmlns="http://www.w3.org/2000/svg"><path fill="url(#am0k5jsju)" d="M0 0h56v56H0z"/><path d="M28.5 16a2.5 2.5 0 1 0 0-5 2.5 2.5 0 0 0 0 5Z" fill="#3F96CC"/><path d="M29.51 25.94c-2.86.37-2.76-.28-5.24 2.1a983.5 983.5 0 0 1-8.24-8.25c-1-1-1.2-2.06-.61-3.14.3-.57.74-.97 1.33-1.22a2.2 2.2 0 0 1 1.77-.05 4.9 4.9 0 0 1 1.63 1.13c2.93 2.99 6.37 6.42 9.36 9.43Z" fill="#125292"/><path d="m36.33 16-4.53 4.52a2.52 2.52 0 0 0 0 3.57l.12.12c.98.98 2.58.98 3.56 0l4.53-4.53c.99-.99.99-2.58 0-3.57L39.9 16a2.52 2.52 0 0 0-3.57 0ZM13.5 30a2.5 2.5 0 1 0 0-5 2.5 2.5 0 0 0 0 5Z" fill="#70BE4E"/><path d="M42.5 30a2.5 2.5 0 1 0 0-5 2.5 2.5 0 0 0 0 5ZM30.12 26.66c.72 1.25.57 2.39-.48 3.42a1045.5 1045.5 0 0 0-9.77 9.77c-.48.48-.94.8-1.39.94-1.27.39-2.26 0-2.98-1.16-.73-1.17-.61-2.22.33-3.15 2.84-2.82 5.66-5.63 8.44-8.43l1.88-1.83c1.14-1.14 3.15-.97 3.97.44Z" fill="#3F96CC"/><path d="m39.88 36.54-4.54-4.52a2.51 2.51 0 0 0-3.55 0l-.13.13a2.51 2.51 0 0 0 0 3.55l4.55 4.53c.98.98 2.57.97 3.55-.01l.12-.13c.98-.98.98-2.57 0-3.55Z" fill="#70BE4E"/><path d="M28.5 45a2.5 2.5 0 1 0 0-5 2.5 2.5 0 0 0 0 5Z" fill="#3F96CC"/><defs><linearGradient id="am0k5jsju" x1="10.42" y1="9.71" x2="68.15" y2="76.02" gradientUnits="userSpaceOnUse"><stop stop-color="#1A1E21"/><stop offset="1" stop-color="#06060A"/></linearGradient></defs></svg>