<!-- by TradeStack --><svg width="56" height="56" viewBox="0 0 56 56" xmlns="http://www.w3.org/2000/svg"><path fill="#F0F3FA" d="M0 0h56v56H0z"/><path fill-rule="evenodd" d="M4 21.1V21h2.79v.1h-.12c-.34 0-.67.28-.67.63v1.97h3v-1.97a.63.63 0 0 0-.63-.63h-.1V21h2.8v.1h-.12a.63.63 0 0 0-.63.63v4.52c0 .34.28.62.63.62h.11V27H8.27v-.13h.1c.35 0 .63-.28.63-.62V24H6v2.25c0 .34.33.62.67.62h.12V27H4v-.13h.1c.34 0 .62-.28.62-.62v-4.52a.63.63 0 0 0-.62-.63H4Zm19.31 0V21h2.8v.1h-.13a.63.63 0 0 0-.62.63v4.52c0 .34.28.62.62.62h.12V27h-2.79v-.13h.1c.34 0 .59-.28.59-.62v-4.52c0-.35-.25-.63-.6-.63h-.09Zm-5.28 0V21h2.8v.1h-.13c-.34 0-.7.28-.7.63v4.33l.02-.04c.02.24.15.7.54.7h.54a1.5 1.5 0 0 0 1.49-1.24h.12L22.49 27h-4.46v-.13h.1c.34 0 .62-.28.62-.62v-4.52a.63.63 0 0 0-.62-.63h-.1ZM30.6 21v1.36h.12c.1-.76.5-.96.68-.96h1.27v4.85c0 .34-.28.62-.63.62h-.1V27h2.8v-.13h-.12a.62.62 0 0 1-.62-.62V21.4h1.28c.47 0 .6.64.6.96H36V21H30.6Zm-4.02 5.96v-1.64h.18c0 1.15 1.37 1.4 1.54 1.4.17 0 1.01-.1 1.01-.8 0-.55-.76-1.04-1.44-1.47l-.48-.32a1.9 1.9 0 0 1-.8-1.22c0-1.45 1.19-1.91 1.77-1.91.36 0 .65.07.86.13.12.03.22.06.3.06.15 0 .26-.13.3-.19h.08v1.54h-.14c0-.14-.45-1.2-1.31-1.2-.7 0-.95.46-.99.69 0 .68.57 1 1.34 1.45l.51.3c.82.51 1 1.24 1 1.54 0 1.55-1.66 1.68-1.96 1.68-.3 0-.68-.07-.89-.13l-.04-.02a1.14 1.14 0 0 0-.44-.08.28.28 0 0 0-.26.19h-.14ZM37.4 27h-1.8v-.08c.45 0 .77-.5.88-.74L38.3 21h.8s1.84 4.83 2.04 5.32c.16.4.63.56.85.6V27h-2.78v-.08c.67 0 .6-.52.48-.78L39.26 25h-1.97l-.4 1.14c-.2.6.26.77.5.78V27Zm.84-4.64.9 2.34H37.4l.84-2.34ZM14.5 27c1.7 0 3.1-1.34 3.1-3s-1.4-3-3.1-3a3.05 3.05 0 0 0-3.1 3c0 1.66 1.39 3 3.1 3Zm0-.36c.94 0 1.7-.41 1.7-2.64 0-1.93-.76-2.64-1.7-2.64s-1.7.52-1.7 2.64.76 2.64 1.7 2.64Zm15.59 3.72V28.9l.29.09h4.35l.32-.09v1.45h-.12c0-.32-.1-.96-.54-.96h-1.05v4.85c0 .34.27.62.61.62h.12V35h-2.74v-.13h.1c.33 0 .57-.28.57-.62V29.4h-1.17c-.17 0-.53.2-.62.96h-.12Zm-8.77-1.26V29h2.77v.1h-.12a.62.62 0 0 0-.62.63v4.59c.08.2.22.4.48.4h.54c1 0 1.4-.83 1.48-1.24h.12L25.75 35h-4.43v-.13h.1c.33 0 .58-.28.58-.62v-4.52c0-.35-.25-.63-.59-.63h-.1Zm24.02-.1v.1h.1c.34 0 .56.28.56.63v4.52c0 .34-.22.62-.56.62h-.1V35h2.77v-.13H48a.62.62 0 0 1-.62-.62V32H50v2.25c0 .34-.14.62-.46.62h-.08V35H52v-.13h-.1c-.32 0-.58-.28-.58-.62v-4.52c0-.35.26-.63.57-.63H52V29h-2.54v.1h.08c.32 0 .46.28.46.63v1.97h-2.62v-1.97c0-.35.27-.63.62-.63h.11V29h-2.77Zm-19.37 0v.1h.1c.33 0 .61.28.61.63v4.52c0 .34-.28.62-.62.62h-.1V35H30.4l.22-1.52h-.12c-.08.41-.47 1.24-1.48 1.24h-.54c-.26 0-.4-.2-.47-.4v-4.59c0-.35.27-.63.61-.63h.12V29h-2.77ZM21 32c0 1.66-1.23 3-2.75 3s-2.75-1.34-2.75-3 1.23-3 2.75-3S21 30.34 21 32Zm-1.24 0c0 2.23-.67 2.64-1.51 2.64s-1.51-.52-1.51-2.64.67-2.64 1.51-2.64 1.51.7 1.51 2.64Zm-4.91-.94H15V29h-.15c0 .1-.08.28-.33.28-.12 0-.29-.05-.48-.1-.27-.08-.6-.18-.99-.18A2.94 2.94 0 0 0 10 32.02c0 1.56 1.05 2.98 2.7 2.98 1.34 0 2.1-.7 2.3-1.04v-.62c-.13.37-.68 1.11-1.82 1.11-1.42 0-1.88-1.27-1.88-2.5s.26-2.64 1.75-2.64c1.2 0 1.7 1.17 1.8 1.75Zm30.15 0h-.15c-.1-.58-.6-1.75-1.8-1.75-1.5 0-1.75 1.41-1.75 2.64 0 1.23.46 2.5 1.88 2.5 1.14 0 1.69-.74 1.82-1.1v.6c-.2.35-.96 1.05-2.3 1.05-1.65 0-2.7-1.42-2.7-2.98 0-1.57 1.1-3.02 3.05-3.02.39 0 .72.1 1 .18.18.05.35.1.47.1.25 0 .33-.19.33-.28H45v2.06Zm-9.68-1.95V29h3.95v1.34h-.08c-.02-.34-.2-1-.75-1h-1.2v2.55h1.06c.32 0 .58-.28.58-.63v-.14H39v1.79h-.12v-.1c0-.34-.26-.62-.58-.62h-1.06v1.8c0 .25.1.73.63.73h.73c.2-.02.63-.3.81-1.1h.12L39.41 35h-4.1v-.13c.24 0 .69-.13.69-.72v-4.46a.64.64 0 0 0-.68-.58Z" fill="#031D4F"/></svg>