<?xml version='1.0' encoding='utf-8'?>
<!-- by TradeStack -->
<svg width="56" height="56" viewBox="0 0 56 56" xmlns="http://www.w3.org/2000/svg"><path fill="#F0F3FA" d="M0 0h56v56H0z" /><path d="m25.87 23.2.4-2.29a.35.35 0 0 1 .1-.2.32.32 0 0 1 .21-.08c7.2-.14 20.08 7.45 15.63 16.67a.1.1 0 0 0 0 .07l.03.06.07.01a8.81 8.81 0 0 0 1.33-2.12 15.6 15.6 0 0 0 .53-11.37c-4.43-12.3-20.06-13.2-25.53-1.18-2.5 5.77-1.15 12.97 3.3 17.03 4.87 4.45 11.6 5.08 17.04 1.13-.1-.1-.24-.2-.39-.27a6.21 6.21 0 0 1-5.13.12c-6.29-2.5-8.17-11.39-7.6-17.57Z" fill="url(#a)" /><path d="M14.15 25.35c1.7-7.86 7.9-13.27 15.57-13.27 2.23 0 4.33.49 6.33 1.46a16.59 16.59 0 0 1 8.75 10.98h.04c.02 0 .03 0 .04-.02v-.03c-1.24-6.3-5.42-10.31-11.02-12.54-.85-.34-1.83-.47-2.67-.59l-.99-.15c-.84-.16-1.78-.22-2.8-.18A17.14 17.14 0 0 0 11.32 24.5c-1.03 5.86.43 10.9 4.4 15.1a16.66 16.66 0 0 0 9.22 5.08c1.54.3 2.8.4 3.78.3.03 0 .05-.02.06-.04a.1.1 0 0 0 .03-.06.1.1 0 0 0-.03-.07.09.09 0 0 0-.06-.03 15.5 15.5 0 0 1-9.2-3.91c-4.5-4.02-6.29-9.19-5.37-15.51Z" fill="url(#b)" /><path d="M38.98 40.93c-.1-.1-.24-.2-.39-.27.07-.1.07-.14-.01-.13-3.96.34-6.48-3.07-7.92-6.66a18.01 18.01 0 0 1-1.07-9 .15.15 0 0 1 .05-.04.13.13 0 0 1 .12-.02c4.06 1.05 7.78 3.05 10.4 6.42 2.5 3.2 2.55 7.49-1.18 9.7Z" fill="url(#c)" /><defs><linearGradient id="a" x1="30.03" y1="12.51" x2="35.87" y2="30.42" gradientUnits="userSpaceOnUse"><stop stop-color="#BB9368" /><stop offset=".93" stop-color="#8B5941" /></linearGradient><linearGradient id="b" x1="27.94" y1="11" x2="15.85" y2="35.51" gradientUnits="userSpaceOnUse"><stop stop-color="#B7D149" /><stop offset="1" stop-color="#309458" /></linearGradient><linearGradient id="c" x1="29.43" y1="24.8" x2="39.9" y2="36.69" gradientUnits="userSpaceOnUse"><stop stop-color="#9CC229" /><stop offset="1" stop-color="#31964A" /></linearGradient></defs></svg>