<?xml version='1.0' encoding='utf-8'?>
<!-- by TradeStack -->
<svg width="56" height="56" viewBox="0 0 56 56" xmlns="http://www.w3.org/2000/svg"><path fill="#F0F3FA" d="M0 0h56v56H0z" /><path d="m22.02 27.8 6.17 6.18-6.39 6.39-6.17-6.17 6.4-6.4ZM14.65 20.44l6.33 6.33-6.38 6.39a9.02 9.02 0 0 1 .05-12.72ZM35.56 41.35l-6.33-6.33-6.39 6.38a9.02 9.02 0 0 0 12.72-.05ZM21.78 13.31a4.48 4.48 0 0 1 6.33 6.34l-6.22 6.22-6.34-6.33 6.23-6.23ZM36.35 27.89a4.48 4.48 0 0 1 6.34 6.33l-6.23 6.23-6.33-6.34 6.22-6.22Z" fill="#40DEF7" /><path d="M25.87 23.41a4.56 4.56 0 1 1 6.44 6.45l-3.22 3.22-3.22-3.22a4.56 4.56 0 0 1 0-6.45Z" fill="#0160FA" /></svg>