<!-- by TradeStack --><svg width="56" height="56" viewBox="0 0 56 56" xmlns="http://www.w3.org/2000/svg"><path fill="#F0F3FA" d="M0 0h56v56H0z"/><path d="M4 33v-8h1.5v3h2v-3H9v8H7.5v-3.5h-2V33H4Zm17 0v-8h1.5v3h2v-3H26v8h-1.5v-3.5h-2V33H21Zm-10 0v-8h1.5v8H11Zm17 0v-8h1.5v6.5H32V33h-4Zm-11.02-4.5H20l.01.5c0 2.58-1.45 4-3 4-1.71 0-3-1.82-3-4.04 0-2.3 1.36-3.96 3.02-3.96 1.34 0 2.5 1.24 2.81 2.73h-1.61c-.22-.55-.63-1.23-1.24-1.23-.71 0-1.48.94-1.48 2.46 0 1.62.78 2.54 1.48 2.54.72 0 1.2-.75 1.35-1.5h-1.35v-1.5Zm20.07 3h-2.09l-.4 1.5H33l2.4-8h1.22L39 33h-1.6l-.35-1.5ZM36 27l-.62 3h1.26L36 27Z" fill="#D56F28"/><path d="M39.21 19c-4.63 0-9.4 3.33-11.21 5 2.4-1.37 6.1-4 10.97-4 3.78 0 10.42 3.75 11.03 4-.43-.5-5-5-10.79-5Z"/><path d="M40 33v-8h1.3l2.25 5.03L43.5 25H45v8h-1.31l-2.21-4.86.02 4.86H40Zm6 0v-8h2.3c2.36 0 3.7 1.7 3.7 3.98 0 2.18-.94 4.02-3.57 4.02H46Zm1.5-6.5v5h1.3c1.33 0 1.7-1.35 1.7-2.49 0-1.08-.45-2.51-1.69-2.51H47.5Z" fill="#D56F28"/></svg>