<!-- by TradeStack --><svg width="56" height="56" viewBox="0 0 56 56" xmlns="http://www.w3.org/2000/svg"><path fill="#F0F3FA" d="M0 0h56v56H0z"/><path d="M28 31.5a3.5 3.5 0 1 0 0-7 3.5 3.5 0 0 0 0 7Z" fill="#80D859"/><path fill-rule="evenodd" d="M29.23 36.44a42.4 42.4 0 0 0 3.23-1.92 38.2 38.2 0 0 0 7.12-5.94c3.14 3.54 4.48 6.93 3.13 8.9-1.7 2.5-7.26 1.94-13.48-1.04Zm-1.09-.54a42.5 42.5 0 0 0 3.75-2.2 38.16 38.16 0 0 0 7.03-5.84c-1.8-1.9-4.1-3.82-6.75-5.56a42.21 42.21 0 0 0-4.03-2.34 42.3 42.3 0 0 0-4.03 2.34 38.6 38.6 0 0 0-6.74 5.54c1.84 2 4.23 4.02 7.03 5.86a42.4 42.4 0 0 0 3.74 2.2Zm-11.43-7.35a38.1 38.1 0 0 0 7.13 5.97 42.3 42.3 0 0 0 3.21 1.92c-6.23 2.98-11.8 3.55-13.5 1.04-1.36-1.97 0-5.38 3.16-8.93Zm-.65-.73c-3.53 4-5.01 7.92-3.42 10.25 2.04 3 8.5 2.4 15.5-1.07 6.98 3.47 13.44 4.06 15.48 1.07 1.58-2.32.12-6.24-3.4-10.22 3.33-3.88 4.69-7.66 3.14-9.92-2.01-2.95-8.33-2.42-15.22.93-6.87-3.35-13.17-3.88-15.19-.93-1.54 2.26-.2 6.03 3.11 9.9Zm.66-.71a38.6 38.6 0 0 1 6.82-5.63 42.23 42.23 0 0 1 3.5-2.06c-6.1-2.86-11.5-3.37-13.18-.9-1.3 1.91-.08 5.16 2.86 8.59Zm12.53-7.7c6.1-2.85 11.52-3.36 13.2-.89 1.32 1.91.08 5.18-2.88 8.61a38.51 38.51 0 0 0-6.84-5.65 42.14 42.14 0 0 0-3.48-2.06Z"/><circle cx="14" cy="24" r="2" fill="#80D859"/><circle cx="43" cy="34" r="2" fill="#80D859"/></svg>