<?xml version='1.0' encoding='utf-8'?>
<!-- by TradeStack -->
<svg width="56" height="56" viewBox="0 0 56 56" xmlns="http://www.w3.org/2000/svg"><path fill="#670926" d="M0 0h56v56H0z" /><path d="M25.18 11.01a6.33 6.33 0 0 0-5.9 5.53l-.09.54-.64.26c-.7.29-2.26.95-2.43 1.09-.1.08-.1.12-.12.54a81.4 81.4 0 0 0 0 4.24c.12 2.36.51 4.73.96 7.05.2 1.05.22 1.14.2 1.15-.03.02-1.84.79-2.04.86l-.53.2a8.37 8.37 0 0 1-6.52-.06 20.71 20.71 0 0 0 6.33 3.82c1.18.43 2.47.5 3.7.23.7-.16.61-.19.8.25l.18.37-.27.13c-.51.23-1.39.56-2.02.77-1.5.5-2.69.7-3.76.62-.5-.04-.82-.13-1.51-.42a1.9 1.9 0 0 0-.94-.2c-.13.02-.12.03.62.58A28.52 28.52 0 0 0 14.99 41c2.56 1.28 4.68 1.49 6.75.65l.44-.18.24.23c.34.31 1.06.85 1.57 1.16.84.5 2.45 1.28 4.02 1.94l.5.21.33-.11a33.7 33.7 0 0 0 5.29-2.4c2.83-1.8 4.8-4.91 5.89-9.23a32.67 32.67 0 0 0 .97-7.99c.03-1.55-.02-3.27-.12-4.5l-.05-.54c0-.15-.04-.51-.08-.8-.11-1.01-.09-.93-.3-1.06a21.96 21.96 0 0 0-6.77-2.42c-.36-.07-.34-.01-.16-.67.1-.4.13-.75.05-1.03-.03-.15-.12-.28-.33-.52a8.03 8.03 0 0 0-3.68-2.27 13.44 13.44 0 0 0-2.15-.42c-.23-.03-2.19-.06-2.22-.03Zm1.29 2.44c.82.14 1.6.46 2.28.94.34.23 1.17.92 1.3 1.07.04.06.03.07-.13.05a42.85 42.85 0 0 0-3.23.05c-.28.01-.58.02-.67.04-.36.03-.96.1-1.37.16l-.57.08c-.08 0-.5.08-.94.16-.43.09-.8.15-.8.14-.04-.04.1-.61.2-.86a3.05 3.05 0 0 1 2.41-1.83c.08 0 .16-.02.23-.04.02-.03 1.07 0 1.29.04Zm3.7 3.24c1.34.1 1.18.06 1.41.27.57.5 1.02.87 1.37 1.1.39.26.93.54.97.5a4.9 4.9 0 0 0-.22-1.02c-.08-.25-.1-.4-.08-.4l.4.08a22.06 22.06 0 0 1 3.31 1.01c.7.29 1.99.92 2.1 1.04.06.07.15.66.2 1.33l.05.47a40.51 40.51 0 0 1 .1 5.15l-.22-.39a12.56 12.56 0 0 0-14.87-5.85l-.6.2-.33-.34a4.98 4.98 0 0 1-1.38-2.37l-.03-.15.65-.13.77-.16.49-.07c.63-.1 1.5-.2 2.47-.28.6-.04 2.83-.04 3.44 0ZM19.2 18.46a7.8 7.8 0 0 0 1.2 3.4l.23.32-.36.33c-1.03.94-1.9 2.02-2.53 3.13-.27.47-.32.54-.3.44l-.01-.4c-.13-1.44-.17-2.59-.17-4.64 0-1.58 0-1.69.08-1.76.1-.1 1.68-.9 1.78-.9.05 0 .08.03.08.08Zm9.52 1.34c-.01.07-.07.08-.38.09-.24 0-.38 0-.42-.04-.06-.05-.05-.05.03-.08l.44-.03c.3 0 .34 0 .33.06Zm1.21.02c.03 0 0 .04-.05.08-.08.07-.14.08-.35.06-.38-.04-.43-.05-.4-.13.02-.06.06-.06.8-.01Zm-2.52.07.1.08-.3.06c-.28.07-.29.07-.46-.02-.19-.1-.19-.1.14-.15.34-.05.42-.05.53.03Zm3.67.12c.27.04.26.06-.07.16-.26.07-.31.08-.4.03a.75.75 0 0 0-.14-.05c-.14 0-.16 0-.12-.05.06-.06.42-.16.5-.14l.23.05Zm-4.83.22.13.05-.16.07c-.15.06-.2.06-.51.01-.59-.1-.59-.1-.4-.16.2-.06.76-.05.94.03Zm2.33.17c-.03.14-.05.28-.05.43-.01.1-.03.09-.17-.19-.17-.34-.16-.36.12-.37.13 0 .13 0 .1.13Zm.76-.04c0 .03-.1.16-.22.3l-.22.24.04-.24c.06-.35.05-.35.24-.35.1 0 .16.02.16.05Zm-1.43.27c.14.3.15.3-.26-.03-.24-.2-.24-.24.01-.24.1 0 .13.03.25.27Zm4.77-.13.16.07-.68.03c-.55.02-.69.01-.77-.03-.04-.04-.08-.07-.07-.08l.23-.05c.33-.06.93-.03 1.13.06Zm-2.61-.03c.04.03-.01.08-.18.17-.14.07-.29.16-.34.2-.06.03 0-.04.12-.17.22-.23.3-.27.4-.2Zm-2.93.22.24.18a5.02 5.02 0 0 0-.48-.18c-.19-.06-.22-.12-.1-.14l.08-.03.26.17Zm-1.67.02c.01.01.01.05-.02.08-.07.09-.48.07-.64-.03-.07-.04-.13-.09-.13-.1 0-.03.74.02.79.05Zm5.34 0c.05.04.03.05-.06.07l-.32.09c-.27.07-.29.05-.04-.05.09-.03.17-.06.24-.1.05-.05.1-.05.18 0Zm-4.38.22c.15.06.1.07-.16.03-.13-.02-.23-.06-.22-.08.03-.04.2-.01.38.05Zm7.14.14c.35.08.47.13.64.27.08.07.09.09.02.06-.2-.06-1.26-.22-1.68-.25-.42-.02-.55-.06-.55-.15 0-.06 1.21 0 1.57.07Zm-2.1.02c.04.03 0 .04-.13.04a1 1 0 0 0-.27.03c-.04.02-.06.02-.04 0a1 1 0 0 1 .34-.1c.03 0 .07.01.1.03Zm-5.45.23c.01.01-.08.02-.2.02-.14 0-.25-.02-.26-.04-.03-.04.42-.01.46.02Zm5.92.23c.04.07.02.07-.26.05-.17-.02-.24-.04-.2-.06.07-.05.43-.04.46.01Zm1.31.08c.55.08 1.13.22 1.52.36.17.06.25.12.36.28.08.1.13.2.13.22-.01 0-.24-.07-.5-.17-.6-.23-1.21-.4-1.83-.53-.32-.07-.46-.12-.48-.17-.04-.07-.02-.07.11-.07.09 0 .4.03.7.08Zm-1.3.39c.2.02.3.08.24.13-.02.02-.64-.13-.67-.17-.02-.02.03-.02.1-.01l.33.05Zm1.46.29a8.3 8.3 0 0 1 2.12.8c.06.08.14.48.1.52a16.08 16.08 0 0 0-3.01-1.35.45.45 0 0 0-.03-.1c-.03-.08.06-.07.82.13Zm-1.8.13c.61.15.59.14.52.25-.02.03-.13 0-.42-.12-.52-.22-.54-.25-.1-.13Zm4.52.18c.47.28.9.62 1.24.95.3.31.37.45.1.23-.23-.2-.92-.64-1.29-.84-.25-.14-.31-.2-.38-.34l-.08-.2c0-.04.1 0 .41.2Zm-4.57.32c.31.13.31.14.25.23l-.06.1-.38-.25-.46-.3c-.09-.07.21.04.65.22Zm1.32-.12c.9.33 1.55.63 2.24 1.02.26.16.48.3.48.33 0 .1-.18.59-.21.59-.02 0-.15-.1-.3-.2-.68-.53-1.4-1-2.17-1.4l-.42-.23a.68.68 0 0 1 .05-.23l.33.12Zm-1.89.44c.22.14.4.27.4.28a.45.45 0 0 1-.13.1l-.13.06-.41-.4-.48-.47c-.09-.09.29.13.75.43Zm-1.57 0c.14.22.25.4.24.41-.02.01-.1-.03-.2-.08-.17-.1-.18-.12-.27-.44-.04-.18-.07-.31-.05-.3l.28.42Zm-8.2-.2-.04.18c-.01.07-.04.08-.61.46-.5.32-1.04.73-1.37 1.04-.24.23-.25.2-.04-.23.2-.4.98-1.06 1.81-1.53.23-.12.3-.1.25.08Zm7.54-.03c.04.14.03.17-.02.15a.48.48 0 0 0-.08-.03l-.01-.14c0-.2.06-.18.11.02Zm1.54.42.45.43-.16.07a.89.89 0 0 1-.2.07c-.03 0-.13-.14-.23-.3l-.35-.58c-.17-.25-.17-.28-.07-.2.06.04.32.28.56.51Zm2.64.18c.72.4 1.88 1.2 2.22 1.5.02.01-.09.17-.24.35l-.27.32-.56-.55a19.13 19.13 0 0 0-1.71-1.52l-.3-.22.1-.12c.05-.08.1-.11.14-.1l.62.34Zm3.55-.01c.5.31.97.68 1.4 1.09.39.37.4.4.47.96l.03.22-.52-.5a16.3 16.3 0 0 0-1.73-1.41c-.07-.05-.09-.12-.1-.35-.02-.32-.04-.32.45-.01ZM22 23.64c.1.09.18.17.16.18-.1.1-.54.37-.56.35a1.33 1.33 0 0 1-.04-.3c-.02-.27-.01-.3.08-.33.14-.07.16-.07.36.1Zm10.33.56c.6.49 1.5 1.31 1.78 1.63l.2.24-.17.14-.22.14c-.03.02-.23-.12-.45-.28l-.62-.46a2.55 2.55 0 0 1-.45-.45l-.6-.73c-.27-.32-.35-.43-.3-.46l.13-.1c.04-.03.1-.05.14-.06.04 0 .29.18.56.4Zm-11.16-.22.03.29.03.18-.48.4c-.27.2-.8.69-1.17 1.07a5 5 0 0 1-.71.65 2.65 2.65 0 0 1-.05-.43l-.02-.4.34-.35c.19-.19.51-.48.71-.65a7.5 7.5 0 0 1 1.27-.87c.02 0 .04.06.05.11Zm1.65.36.18.16-.12.1-.44.38c-.37.33-.35.33-.58-.1l-.14-.26.39-.26c.43-.29.4-.28.7-.02Zm8.4.06.25.27.08.1-.16-.09c-.6-.34-.6-.34-.5-.4.13-.08.16-.07.34.12Zm5.13.22c.7.52 1.59 1.33 1.9 1.71l.12.16-.07.27c-.04.17-.1.33-.17.5l-.1.22-.33-.42a21.95 21.95 0 0 0-1.76-1.83l-.2-.17.1-.26a9.24 9.24 0 0 0 .17-.41l.34.23Zm-12.69.36.3.22-.08.08c-.05.04-.25.27-.44.5l-.37.42c-.03 0-.7-.58-.7-.6 0-.02.95-.84.98-.84l.31.22Zm-2.2.03c.06.12.12.23.2.33l.13.21-.41.44a18.55 18.55 0 0 0-1.76 2.15c-.08 0-.57-.84-.57-.97 0-.1.81-1 1.26-1.4.4-.36 1.03-.89 1.07-.89.01 0 .05.06.08.13Zm-3 .42c-.01.05-.1.18-.2.3-.18.18-.19.19-.12.06.28-.5.4-.63.33-.36Zm17.96.83c.54.55 1.37 1.53 1.37 1.62 0 .12-.78 1.03-.85.99a18.8 18.8 0 0 0-1.86-2.57l-.16-.19.23-.25.3-.34.05-.1.18.13c.09.07.42.4.74.71Zm-11.77-.6.35.22c.03.02-.48 1-.55 1.05-.04.02-.82-.35-.95-.44-.07-.06-.04-.1.34-.55.22-.26.43-.48.45-.48.03 0 .19.09.36.2Zm14.53.53c.16.24.3.5.44.75.14.28.15.33.13.52l-.02.2-.07-.12c-.07-.14-.56-.82-.75-1.06-.1-.14-.12-.18-.12-.48 0-.4 0-.4.4.2Zm-16.47.27.11.1-.3.4a20.44 20.44 0 0 0-1.55 2.5c-.09 0-1.06-.89-1.06-.97 0-.13.95-1.32 1.64-2.08l.5-.54.27.24.39.35Zm3.22-.04c.14.07.26.15.38.23.01.02-.03.21-.09.42-.11.38-.12.39-.24.38a7.47 7.47 0 0 1-1.1-.34 2.9 2.9 0 0 1 .42-.84c.1-.15.1-.16.19-.1l.44.25Zm-7.49-.1c.01.15.03.29.07.43l.06.3-.18.25-.42.6c-.2.33-.28.42-.26.33 0-.15-.02-.3-.05-.45l-.05-.42.15-.26c.19-.31.6-.9.65-.9.02 0 .03.05.03.13Zm16.47.4c.45.55.87 1.12 1.25 1.71.45.7.47.72.4.8-.09.11-.15.07-.34-.26a9.06 9.06 0 0 0-1.98-2.31c-.01-.03.28-.25.34-.25.03 0 .18.14.33.31Zm-11.2.34.53.27-.27.6-.42.9-.13.32-.37.08c-.2.03-.67.16-1.03.27-.36.1-.66.2-.67.18a16.8 16.8 0 0 1 1.83-2.9l.54.28Zm3.63.11c.55.3.6.33.58.43-.01.1-.01.1-.28.1a5.7 5.7 0 0 1-1.1-.17 2.3 2.3 0 0 1 .18-.67l.62.31Zm11.7.16c.26.37.64 1.01.64 1.08 0 .23-.14 1.43-.18 1.5-.02.03-.05 0-.1-.13-.1-.27-.52-1.04-.82-1.5l-.27-.4.1-.22.26-.71c.03-.08.07-.04.36.38Zm-14.05.26.38.12c.05 0 .2.04.36.08.24.06.27.08.24.14a13.66 13.66 0 0 1-.2.76c-.13.52-.07.49-.68.4-.25-.03-.5-.05-.76-.04-.23.01-.4 0-.4-.01 0-.09.7-1.56.73-1.56l.33.1Zm-5.8.68.18.27-.26.45a17.33 17.33 0 0 0-.92 1.83 9.3 9.3 0 0 1-.26-1.32l-.1-.55.23-.4c.12-.21.32-.54.45-.72l.23-.32.13.24c.07.14.2.37.32.52Zm7.57-.27c.26.04.2.03.72.07l.42.04-.03.35a48.07 48.07 0 0 0-.09 1.68l-.02.17-.26-.2c-.36-.27-.76-.5-1.17-.68-.19-.08-.28-.14-.28-.18a30.5 30.5 0 0 0 .25-.96c.07-.3.1-.37.19-.34l.27.05Zm2.76.28c.3.15.37.2.39.3.09.43.4 2.87.37 2.9a6.3 6.3 0 0 1-1.02.07h-.34l-.13-.17-.39-.46-.25-.29.03-.54a176.39 176.39 0 0 0 .1-1.88c.02-.06.09-.07.44-.08.23 0 .42-.02.43-.03l.37.18Zm8.77.32c.35.54.65 1.11.9 1.7l.2.45-.04.26c-.05.31-.13.44-.58.92-.23.25-.33.33-.34.29-.41-1.17-.59-1.59-1-2.4l-.26-.53.3-.33a6.41 6.41 0 0 0 .6-.7c.08.1.15.22.22.34Zm-7 .66c.56.34 1.09.72 1.16.83.06.1.27.8.27.9 0 .05-.12.1-.39.16-.4.09-1.48.28-1.58.28-.06 0-.08-.08-.12-.44-.08-.67-.07-.67-.18-1.44l-.1-.79c0-.06.16.03.93.5Zm-10.76.39c.15.11.26.22.25.24a43.61 43.61 0 0 0-1.32.56c-.41.17-.76.3-.77.28-.01-.04.4-.89.7-1.41l.24-.44.32.28c.17.16.43.37.58.49Zm16.6.47a16.11 16.11 0 0 1 .97 2.45c-.07.07-.79.6-.8.6-.03 0-.04-.25-.04-.54-.02-.9-.2-1.79-.53-2.62l-.12-.3.11-.08c.13-.1.1-.13.41.49Zm-3.84.74c0 .02-.04.04-.08.05-.06.01-.09 0-.1-.07-.08-.26-.08-.26.05-.13.07.07.13.13.13.15Zm.73.9c.64.88.88 1.49.9 2.33l.02.25-.43.15c-.41.15-.6.19-.6.12a22.43 22.43 0 0 0-.52-2.64l-.14-.62c0-.02.07-.06.17-.1.2-.07.19-.08.6.5Zm-1.07.06c.16.66.49 2.26.56 2.79.03.18.02.2-.07.21l-.77.17a13.45 13.45 0 0 1-1.16.21l-.28.04-.19.03-.02-.18-.04-.53a65.87 65.87 0 0 0-.22-2.43c-.02-.22 0-.28.04-.3l.6-.1a14.32 14.32 0 0 0 1.4-.28c.03 0 .09.13.15.38Zm-2.6.16.01.17c.05.36.22 2.16.25 2.73.04.53.02.55-.37.28a6.04 6.04 0 0 0-1.75-.79l-.48-.11.03-.75c.01-.4.04-.75.05-.77.07-.07.56.06 1.09.3.34.14.55.22.55.19 0-.1-.17-.54-.35-.9l-.18-.38.35-.01a3.68 3.68 0 0 0 .59-.05c.18 0 .2 0 .2.09Zm8.6.94c-.08.34-.16.61-.17.6l-.11-.4-.1-.39.26-.26c.13-.14.25-.24.26-.21l-.14.66Zm-11.29.3-.03.73v.25l-.6.01c-.33.01-.67.03-.76.05-.09 0-.2.03-.26.04-.06 0-.28.05-.5.1a2 2 0 0 1-.43.07c-.02-.02.14-1.15.17-1.17.05-.05 1.03-.35 1.36-.42.53-.11.56-.12.84-.12h.24l-.03.46Zm10.72.38c.17.75.16.88-.1 1.56l-.4 1-.18.41-.33.2c-.18.1-.36.2-.4.2-.05 0-.07-.06-.1-.37 0-.2-.04-.54-.06-.75-.04-.39-.04-.4.1-.82.1-.3.17-.59.23-.89l.1-.45.32-.22.5-.34c.1-.09.16-.11.19-.08l.13.55Zm-13.65.47-.08.56-.36.12c-.38.12-.36.13-1.08-.1l-.37-.12c-.12-.04-.07-.07.88-.54l1.04-.5c.03 0 .02.18-.03.58Zm-2.06.82a4.17 4.17 0 0 0 .54.17c.1.04.08.06-.48.31l-.63.28c-.02 0-.04-.05-.03-.12.02-.2.1-.7.12-.73.03-.05.1-.03.48.1Zm12.24.18a5.07 5.07 0 0 1-.73 2.08 4.26 4.26 0 0 1-.05-.55l-.04-.6-.07-.5c-.02-.22-.04-.4-.03-.42 0 0 .83-.28.93-.3l-.01.29Zm-13.21.24-.06.42-.02.16-.76.37-.77.36c-.03 0-.3-.58-.3-.63 0-.03.2-.14.44-.24.25-.1.66-.3.93-.44.27-.13.5-.25.53-.25.02 0 .02.11 0 .25Zm11.97.49c.04.3.09.87.11 1.27l.05.7-.17.22c-.28.38-.3.38-.99.53-.5.1-1.39.25-1.49.25-.01 0-.02-.19-.02-.42v-.4l.12.02.27.1c.3.13.65.21.81.19.18-.04.18-.06.05-.27l-.39-.7a7.43 7.43 0 0 0-.96-1.52c-.02-.08 0-.1.1-.11.73-.11 1.5-.25 1.9-.35.27-.06.5-.1.52-.09.01.01.06.28.1.58Zm2.83.89.03.54-.37.16a3.2 3.2 0 0 1-.79.32l.2-.27a8.46 8.46 0 0 0 .89-1.3l.04.55Zm.65.95c-.12.22-.23.41-.25.42V37.5l.23-.12.24-.13-.22.4Zm-.65.27-.05.5-.04.37a9.28 9.28 0 0 1-1.33 1.62c-.28.27-.33.3-.68.42l-.39.13.03-.22c.08-.67.15-1.36.15-1.6v-.27l.26-.23c.21-.2.32-.25.77-.42a20.9 20.9 0 0 0 1.27-.51c.02 0 .03.1.01.21Zm-5.75.44v.45l-.13.02c-.23.05-1.29.1-2 .1h-.67v-.46l.56-.2.61-.19.47-.08c.26-.05.52-.07.79-.08h.37v.44Zm-3.19.42c0 .12 0 .12-.2.12-.27 0-.29-.04-.06-.15.26-.12.26-.12.26.03Zm4.97.44a80.16 80.16 0 0 1-1.27 1.23c0 .02.17-.04.37-.11.45-.17 1.36-.63 1.75-.9.47-.32.46-.32.42.04l-.04.43-.04.4-.08.51c-.04.23-.05.25-.19.29-.39.13-2.3.5-2.35.46-.01-.01 0-.56.03-1.2l.05-1.2.51-.07a14.16 14.16 0 0 0 1.1-.2c.04 0-.08.14-.26.32Zm-5.06.08.1.01v1.1c0 .6 0 1.13.02 1.19.02.09 0 .1-.1.1-.45 0-2.44-.25-2.51-.32-.03-.03-.1-.5-.14-1l-.03-.3.63-.35.78-.43c.14-.09.18-.09.65-.06.28.02.55.04.6.06Zm3.28.58c0 .6-.06 1.69-.1 1.72-.06.08-2.6.19-2.65.12a18.1 18.1 0 0 1-.05-1.23l-.03-1.18h.87c.49 0 1.05-.02 1.25-.03l.54-.04.17-.01v.65Zm-6.3.6.02.25c.06.47.06.56.02.56-.1 0-1.16-.3-1.19-.33-.02-.01.07-.07.18-.14a18.82 18.82 0 0 0 .94-.51c.03 0 .04.07.04.16Zm9.04 1.07c0 .18-.33.42-1.18.85-.49.25-1.4.67-1.42.65-.02-.02.14-1 .16-1.05a22.8 22.8 0 0 0 2.27-.45c.03-.02.17-.02.17 0Zm-9 .15c.1.03.2.22.16.27-.03.03-.56-.3-.56-.33 0-.02.22.01.4.06Zm1.05.19a16.29 16.29 0 0 0 2 .22c.04.01.06.22.08.52l.05.69c.02.18.02.2-.06.2-.11 0-.92-.4-1.8-.86-.65-.35-.66-.36-.7-.52l-.07-.24c-.03-.1 0-.1.5-.01Zm5.09.17c0 .07-.13.83-.17 1-.04.2-.04.2-.37.33-.34.14-.34.14-1.17.15l-.82.02-.03-.1a9.26 9.26 0 0 1-.05-.72l-.03-.63h.76c.75 0 1.52-.03 1.55-.06.03-.03.33-.02.33.01Z" fill="#fff" /></svg>