<!-- by TradeStack --><svg width="56" height="56" viewBox="0 0 56 56" xmlns="http://www.w3.org/2000/svg"><path fill="#F0F3FA" d="M0 0h56v56H0z"/><path fill-rule="evenodd" d="M38.73 20.65c.36-.04.69-.02.98.06.11.03.2.1.26.18.07.09.1.19.12.3.01.12 0 .23-.04.34a.6.6 0 0 1-.17.27.66.66 0 0 1-.36.14 2.8 2.8 0 0 1-.43.01h-.34a.1.1 0 0 0-.07.05.12.12 0 0 0-.03.08c.08 1.07.11 2.1.1 3.1 0 .2-.05.38-.14.53-.1.18-.23.27-.4.29a.56.56 0 0 1-.41-.13.49.49 0 0 1-.2-.41c.01-1.12 0-2.25-.05-3.39 0-.06-.03-.09-.08-.1l-.86-.1a.45.45 0 0 1-.28-.18.6.6 0 0 1-.12-.3.76.76 0 0 1 .04-.35c.04-.12.1-.2.19-.27a.7.7 0 0 1 .33-.13l.38-.01h.31c.02 0 .04-.02.06-.04a.1.1 0 0 0 .01-.07 4.4 4.4 0 0 1-.07-.6c0-.29.02-.48.08-.59.09-.15.2-.25.34-.3a.42.42 0 0 1 .41.06c.17.11.28.34.33.66.04.23.04.5.02.79 0 .03 0 .05.02.08.02.02.04.03.07.03Zm-16.81 1.14c-.01.08.02.09.08.04a2.32 2.32 0 0 1 1.66-.56c.3.04.53.15.7.34.2.22.31.51.32.9.03.96.12 1.9.28 2.8.06.34-.08.56-.4.67a.34.34 0 0 1-.14.02c-.29-.02-.46-.12-.52-.31a7.89 7.89 0 0 1-.26-2.74c0-.12 0-.25-.03-.4a.11.11 0 0 0-.08-.08c-.3-.1-.61-.01-.9.28a4.1 4.1 0 0 0-.61.85.25.25 0 0 0-.04.13c.01.5-.02 1.02-.1 1.59a.6.6 0 0 1-.23.43.57.57 0 0 1-.4.1.59.59 0 0 1-.37-.16.42.42 0 0 1-.12-.39c.04-.21.05-.43.05-.65 0-1.5 0-2.91.05-4.22 0-.16 0-.33-.03-.5-.04-.2-.05-.35-.03-.45.02-.17.1-.29.24-.37.28-.16.5-.14.7.05.07.08.13.19.17.32.04.12.07.25.07.38.02.67 0 1.31-.06 1.93Zm-10.38 1.56c0-.12-.06-.17-.17-.16-1.07.1-2.1.25-3.08.42-.05.01-.08.04-.08.1-.02.61-.05 1.2-.09 1.75-.02.36-.22.53-.58.52H7.5c-.37-.06-.54-.26-.5-.62.04-.59.08-1.15.1-1.69.05-1.23.09-2.58.1-4.05 0-.36.18-.56.54-.62h.03c.35.05.52.25.53.58 0 .92-.02 1.8-.1 2.66 0 .1.05.15.15.13a40.4 40.4 0 0 1 3.13-.43c.05 0 .07-.04.07-.09 0-.5.02-1 .05-1.52a2.54 2.54 0 0 1 .23-.88c.19-.38.4-.51.65-.41.21.08.33.2.37.35.02.1.01.25-.03.47-.03.15-.05.27-.05.34-.03.94-.07 1.85-.12 2.74-.01.33 0 .83.04 1.51l.04.95c0 .19-.05.34-.17.45-.1.1-.24.15-.4.15a.57.57 0 0 1-.4-.17.67.67 0 0 1-.2-.48l-.03-2Zm3.7-3.27c0 .35-.3.62-.65.61a.64.64 0 0 1-.64-.63c0-.35.3-.63.66-.62.36 0 .64.3.64.64Zm-.29 4.6c-.04-.65-.03-1.29.02-1.92.04-.37.05-.72.05-1.06a.7.7 0 0 0-.38-.66.3.3 0 0 0-.23-.03c-.31.08-.48.3-.5.64-.1 1.28-.12 2.56-.07 3.83a.52.52 0 0 0 .33.48c.1.04.2.05.3.04.1-.02.19-.05.27-.12.14-.1.2-.28.22-.53v-.67Zm13.1-1.08c-.21.58-.43 1.19-.68 1.82a.96.96 0 0 1-.55.56.26.26 0 0 1-.17.01.27.27 0 0 1-.15-.09 2.8 2.8 0 0 1-.58-1.27c-.17-.84-.32-1.69-.43-2.55a3.5 3.5 0 0 1-.03-.57c0-.1.03-.2.1-.28a.53.53 0 0 1 .21-.17.6.6 0 0 1 .28-.05c.1 0 .19.03.27.08.12.08.2.23.26.45a3.86 3.86 0 0 1 .09.7 18.54 18.54 0 0 0 .2 1.53c.02.13.05.13.1.01.23-.66.45-1.34.66-2.05.07-.26.15-.44.24-.53.13-.15.29-.22.48-.2.2.02.34.13.43.31.07.14.11.29.15.44.14.71.26 1.4.34 2.05.05.35.11.35.2.01l.57-2.35c.1-.4.32-.53.67-.42.37.1.5.36.4.74-.3 1.2-.6 2.25-.9 3.14-.06.22-.15.41-.26.59-.14.23-.28.38-.43.44-.61.25-1.04-.51-1.27-2.28l-.01-.05c-.04-.26-.1-.27-.2-.02Zm18.31-.6c.35-.43.8-.67 1.32-.74.08-.01.12.02.12.1v.03c-.02.25 0 .43.04.54.07.18.22.28.45.3.43.02.66-.19.7-.62.03-.47 0-.83-.1-1.07a.78.78 0 0 0-.48-.48c-.2-.07-.44-.08-.73-.03a3.3 3.3 0 0 0-1.38.58c-.07.06-.11.04-.13-.04v-.08a.2.2 0 0 0-.06-.1.71.71 0 0 0-.33-.22.6.6 0 0 0-.64.2.61.61 0 0 0-.12.37c-.02.81-.02 2.03-.02 3.64 0 .43.21.63.62.62h.02c.4-.03.59-.24.59-.63l-.03-1.86c-.01-.2.05-.37.16-.51ZM16.9 25.6c.64.38 1.25.32 1.81-.18.05-.04.07-.03.06.04-.03.28-.08.53-.17.74-.23.58-.86.74-1.9.48-.36-.09-.59.06-.69.44-.04.17.04.37.26.6.05.05.11.09.18.1.7.24 1.37.24 2 0 .67-.24 1.06-.81 1.17-1.73.07-.55.11-1.14.14-1.76.01-.31.06-.77.13-1.36.05-.39.09-.68.1-.87a.7.7 0 0 0-.06-.37.51.51 0 0 0-.25-.26 1.7 1.7 0 0 1-.35-.2 1.33 1.33 0 0 0-.9-.27c-.7.03-1.26.26-1.68.7a2.8 2.8 0 0 0-.73 1.76c-.04.44.02.85.16 1.23.15.41.4.72.72.91Zm2.02-3.26a.13.13 0 0 0-.08-.05c-.85-.22-1.46 0-1.82.64-.09.17-.14.38-.15.63-.02.25 0 .46.08.64.13.36.42.5.85.42.26-.05.48-.2.68-.46.17-.23.28-.5.33-.79.05-.33.1-.64.13-.93 0-.04 0-.07-.02-.1Zm16.96 3.12c.02.16-.03.3-.17.4-.15.12-.28.16-.41.13-.08-.03-.2-.1-.34-.22l-.18-.13a.12.12 0 0 0-.12-.01c-.3.13-.51.23-.67.28-.25.08-.49.1-.7.08-.78-.08-1.3-.43-1.55-1.03-.16-.4-.24-.84-.23-1.34.02-.74.26-1.34.73-1.8.94-.95 1.97-1.07 3.08-.37.1.07.19.16.24.29.05.13.05.26 0 .38-.07.15-.11.3-.12.47-.05.87-.03 1.49.08 1.86.06.2.14.42.24.63.06.13.1.25.12.38Zm-3.2-1.35a1.67 1.67 0 0 1 0-.76 1.46 1.46 0 0 1 .88-1.02c.23-.08.48-.1.74-.07a.1.1 0 0 1 .06.04.1.1 0 0 1 .02.07c-.08.68-.06 1.34.07 1.97.01.06 0 .1-.05.14a1.79 1.79 0 0 1-1 .29c-.4-.03-.64-.25-.72-.66Zm9.82.59c-.48.04-.92.01-1.32-.09-.09-.02-.09-.05-.01-.09l1.55-.8c.29-.14.5-.28.66-.41.24-.21.37-.44.4-.69.04-.4-.04-.73-.23-1a1.36 1.36 0 0 0-.79-.53 2.2 2.2 0 0 0-1.04-.05c-.3.07-.58.2-.82.41-.24.2-.43.47-.58.8-.15.33-.24.7-.3 1.1-.14 1.32.32 2.17 1.41 2.53a2.4 2.4 0 0 0 2.05-.27c.37-.22.54-.52.52-.93a.42.42 0 0 0-.17-.32.33.33 0 0 0-.32-.05l-.37.16-.3.15c-.13.04-.24.07-.34.08Zm.47-2.3c-.88-.35-1.48-.08-1.82.83l-.03.1c-.03.07 0 .1.07.07.57-.23 1.17-.53 1.78-.9.02 0 .03-.02.03-.05 0-.02-.01-.03-.03-.04Zm-27.2 10.85c-.94.1-1.75.14-2.44.16-.07 0-.1-.04-.1-.11l.03-1.74c0-.05.03-.09.07-.1a7.3 7.3 0 0 1 2.8-.01c.18.03.34 0 .48-.12.12-.1.2-.25.22-.42a.68.68 0 0 0-.08-.48.64.64 0 0 0-.45-.3 6.86 6.86 0 0 0-3.15.11.54.54 0 0 1-.33-.04c-.12-.05-.22-.06-.3-.04-.34.09-.5.34-.45.77.09.8.1 1.63.02 2.5-.07.78-.1 1.6-.09 2.49 0 .52.07.93.18 1.22.17.4.46.64.87.72.9.18 1.88.19 2.92.03.37-.06.53-.3.49-.7-.04-.39-.23-.57-.59-.55-.83.03-1.64.06-2.44.06-.18 0-.27-.1-.28-.3l-.01-1.55c0-.07.03-.1.1-.1.9-.09 1.77-.14 2.62-.16.24-.01.42-.09.55-.23.1-.14.15-.3.14-.48a.68.68 0 0 0-.23-.46.7.7 0 0 0-.56-.17Zm8.9 1.19c.05.07.07.15.06.24-.08 1.08 0 1.74.21 2.81.04.2.12.34.26.43.11.08.24.1.38.06a.53.53 0 0 0 .33-.25.76.76 0 0 0 .07-.53v-.07c-.15-.8-.23-1.3-.24-2.24 0-.34-.04-.66-.11-.97-.07-.32-.2-.56-.4-.72-.19-.14-.4-.2-.66-.2-.23 0-.48.03-.72.14-.24.1-.44.26-.6.44-.1.12-.16.09-.15-.08.04-.72.07-1.82.06-2.48 0-.29-.05-.52-.13-.7-.12-.25-.28-.35-.5-.31-.24.03-.39.17-.44.39a2.3 2.3 0 0 0 0 .68l.03.41c-.04 1.7-.05 3.18-.03 4.44 0 .38-.02.77-.08 1.16-.03.2 0 .39.1.53a.49.49 0 0 0 .77.06.9.9 0 0 0 .22-.59l.03-.5c.02-.77.04-1.24.64-1.91.2-.24.44-.36.7-.35.08 0 .14.04.2.1ZM41.5 30h-.02c-.27 0-.49.29-.49.65v6.7c0 .36.22.65.49.65h.02c.27 0 .49-.29.49-.65v-6.7c0-.36-.22-.65-.49-.65Zm-23.87 3.85c.29.05.58.1.88.12.05.01.09.05.09.11l.07 2.47a5.84 5.84 0 0 1-.04.77c-.01.22.04.39.16.52a.5.5 0 0 0 .4.16c.17 0 .3-.08.42-.21a.95.95 0 0 0 .19-.62c0-1.08-.02-2.1-.08-3.09 0-.08.03-.13.1-.13h.26c.3.01.51 0 .64-.04a.54.54 0 0 0 .4-.45c.07-.4-.06-.65-.41-.77a2.67 2.67 0 0 0-.93-.05c-.03 0-.05 0-.07-.03a.1.1 0 0 1-.03-.08V31.9c-.01-.21-.05-.4-.12-.55a.56.56 0 0 0-.28-.3.45.45 0 0 0-.34-.01.57.57 0 0 0-.28.22.7.7 0 0 0-.12.41 7.8 7.8 0 0 0 .02.94.07.07 0 0 1-.05.03h-.66a.7.7 0 0 0-.34.12.6.6 0 0 0-.2.27.8.8 0 0 0-.05.34c0 .13.03.23.1.32.06.1.15.15.27.17Zm15.11-.14c.24-.23.5-.4.8-.5.3-.1.58-.1.86-.01.3.1.51.29.64.56.15.33.22.69.21 1.07-.03.7.03 1.4.16 2.13.12.7-.07 1.04-.6 1.04a.46.46 0 0 1-.32-.13.57.57 0 0 1-.16-.32c-.17-.98-.22-1.96-.14-2.95.01-.14-.05-.22-.18-.25a.46.46 0 0 0-.25.02.64.64 0 0 0-.22.13c-.27.24-.5.56-.69.98-.1.23-.17.6-.2 1.07a13 13 0 0 1-.1 1.1.2.2 0 0 1-.05.12c-.23.24-.48.3-.76.16a.46.46 0 0 1-.27-.4l-.04-.37a4.24 4.24 0 0 1-.03-.86c.1-.97.13-1.88.09-2.75 0-.15.04-.29.16-.4.1-.1.23-.14.38-.15.16 0 .29.04.4.15.12.11.18.29.19.51 0 .03.02.05.05.06.02.02.05.01.07-.01Zm-2.14.29c-.12.27-.19.64-.2 1.12 0 .37.03.76.1 1.18.02.17.1.4.24.71.08.18.13.32.16.42.02.05.02.1 0 .14a.58.58 0 0 1-.42.42c-.17.05-.38-.06-.65-.33a.13.13 0 0 0-.15-.03c-.41.2-.74.31-1 .35a2 2 0 0 1-1.05-.14c-.45-.18-.75-.51-.93-1a3.21 3.21 0 0 1-.17-1.43c.05-.5.22-.96.51-1.35.3-.42.7-.72 1.17-.9.5-.2 1-.21 1.45-.04.23.09.4.17.53.24.18.1.31.25.4.4.04.08.05.16.01.24Zm-2.93 1.4c.09-.39.3-.7.62-.9.31-.22.66-.3 1.04-.23.04 0 .06.04.06.09-.09.67-.06 1.33.08 1.99 0 .06-.01.1-.06.13-.14.09-.3.16-.46.21-.18.06-.34.08-.5.08-.39 0-.63-.2-.73-.55-.08-.3-.1-.58-.05-.82Zm9.11 2.26a1.72 1.72 0 0 0 1.55.26c.26-.09.5-.23.73-.43a2.96 2.96 0 0 0 .55-3.5 2.07 2.07 0 0 0-.57-.65 1.72 1.72 0 0 0-1.54-.26c-.27.09-.52.23-.74.43a2.96 2.96 0 0 0-.55 3.5c.16.27.35.49.57.65Zm1.94-1.47c.11-.25.15-.56.12-.92a2.08 2.08 0 0 0-.14-.62c-.1-.21-.24-.34-.44-.38a.92.92 0 0 0-.9.31c-.22.24-.34.55-.38.94-.03.38.04.69.21.93.2.26.47.36.83.29a.93.93 0 0 0 .7-.55Z" fill="#00F"/></svg>