<!-- by TradeStack --><svg width="56" height="56" viewBox="0 0 56 56" xmlns="http://www.w3.org/2000/svg"><path fill="#F0F3FA" d="M0 0h56v56H0z"/><path d="M28.1 30.05c.29.68 4.22 11.72 4.44 11.95-3.35-1.65-3.92-8.55-6.11-12.61-2.2-4.06-6.99-4.75-11.32-6.3-3.46-1.24-5.45-2.53-6.01-3.01.35 3.87 2.25 5.83 3.03 6.33.77.5 3.34 1.27 6.63 1.85a7.54 7.54 0 0 1 4.78 2.95c-1.34-1.63-4-2.1-6.03-2.14a19.15 19.15 0 0 1-3.83-.52c.2.64.81 2.09 1.63 2.8 1.03.89 3.08 1.2 5.43 1.49A5.5 5.5 0 0 1 24.37 35a5.67 5.67 0 0 0-3.74-1.2c-.9.04-2.07-.06-2.55-.12.17.7 1.04 2.27 3.19 2.99 2.14.72 2.9 1.7 3 2.1-.09-.28-.8-.96-3-1.44-2.2-.47-3.87-2.78-4.43-3.88-3.7-1.16-4.61-4.16-4.6-5.51C7.49 24.68 7.68 18.62 8.36 16c.47 4.14 6.64 6.13 11.93 7.47 5.28 1.35 7.51 5.9 7.8 6.58Z" fill="url(#axuw3ox0a)"/><path d="M27.9 30.05c-.29.68-4.22 11.72-4.44 11.95 3.35-1.65 3.92-8.55 6.11-12.61 2.2-4.06 6.99-4.75 11.32-6.3 3.46-1.24 5.45-2.53 6.01-3.01-.35 3.87-2.25 5.83-3.03 6.33-.77.5-3.34 1.27-6.63 1.85a7.54 7.54 0 0 0-4.78 2.95c1.34-1.63 4-2.1 6.03-2.14 1.63-.04 3.23-.36 3.83-.52-.2.64-.81 2.09-1.63 2.8-1.03.89-3.08 1.2-5.43 1.49A5.5 5.5 0 0 0 31.63 35a5.67 5.67 0 0 1 3.74-1.2c.9.04 2.07-.06 2.55-.12-.17.7-1.04 2.27-3.19 2.99-2.14.72-2.9 1.7-3 2.1.09-.28.8-.96 3-1.44 2.2-.47 3.87-2.78 4.43-3.88 3.7-1.16 4.61-4.16 4.6-5.51 4.75-3.26 4.56-9.32 3.88-11.94-.47 4.14-6.64 6.13-11.93 7.47-5.28 1.35-7.51 5.9-7.8 6.58Z" fill="url(#bxuw3ox0a)"/><defs><linearGradient id="axuw3ox0a" x1="6.98" y1="20.36" x2="32.22" y2="22.68" gradientUnits="userSpaceOnUse"><stop stop-color="#E9AC1D"/><stop offset="1" stop-color="#2D1B33"/></linearGradient><linearGradient id="bxuw3ox0a" x1="49.02" y1="20.36" x2="23.78" y2="22.68" gradientUnits="userSpaceOnUse"><stop stop-color="#2D1B33"/><stop offset="1" stop-color="#E9AC1D"/></linearGradient></defs></svg>