<?xml version='1.0' encoding='utf-8'?>
<!-- by TradeStack -->
<svg width="56" height="56" viewBox="0 0 56 56" xmlns="http://www.w3.org/2000/svg"><path fill="#04489B" d="M0 0h56v56H0z" /><path d="M27.36 36.6c5.63 0 10.19-4.52 10.19-10.1s-4.56-10.1-10.19-10.1a10.14 10.14 0 0 0-10.18 10.1c0 5.58 4.56 10.1 10.18 10.1Zm0-.68a9.34 9.34 0 0 0 9.26-9.42c0-5.2-4.14-9.42-9.26-9.42a9.34 9.34 0 0 0-9.25 9.42c0 5.2 4.14 9.42 9.25 9.42Z" fill="#000005" /><path d="M36.62 26.5c0 5.2-4.14 9.42-9.26 9.42a9.34 9.34 0 0 1-9.25-9.42c0-5.2 4.14-9.42 9.25-9.42a9.34 9.34 0 0 1 9.26 9.42Z" fill="#2F4E6A" /><path d="M36.02 26.5c0 4.86-3.88 8.8-8.66 8.8a8.73 8.73 0 0 1-8.65-8.8c0-4.86 3.87-8.8 8.65-8.8a8.73 8.73 0 0 1 8.66 8.8Z" fill="#204977" /><path d="M35.44 26.5a8.14 8.14 0 0 1-8.08 8.22 8.14 8.14 0 0 1-8.07-8.22 8.15 8.15 0 0 1 8.07-8.22 8.15 8.15 0 0 1 8.08 8.22Z" fill="#438CDB" /><path d="M34.69 26.5a7.4 7.4 0 0 1-7.33 7.46 7.4 7.4 0 0 1-7.32-7.46 7.4 7.4 0 0 1 7.32-7.46 7.4 7.4 0 0 1 7.33 7.46Z" fill="#91B9F6" /><path d="M34.8 19h8.4c.72 0 1.3.61 1.3 1.34v6.03c0 .04.03.08.06.1.4.12.69.5.69.93v.64c0 .2.14.4.35.45a28.12 28.12 0 0 1 2.53.75c.85.3 1.14 1.36.59 2.08l-.98 1.23c-.1.13-.12.31-.05.46l.7 1.56c.43.94-.34 2-1.35 1.87l-7.19-.94a1.18 1.18 0 0 1-1.02-1.17.3.3 0 0 0-.26-.3c-.96-.1-2.22-.21-3.66-.31a10.2 10.2 0 0 1-14.93.06c-1 .07-1.87.16-2.58.23a.26.26 0 0 0-.23.28c.03.6-.4 1.13-.99 1.2l-7.22.95c-1 .12-1.76-.9-1.37-1.83L8.26 33a.45.45 0 0 0-.06-.44l-.94-1.27c-.55-.75-.2-1.81.68-2.07a60.6 60.6 0 0 1 2.56-.7c.2-.05.34-.23.34-.44v-.7c0-.4.24-.74.6-.87l.02-.04v-6.12c0-.73.58-1.35 1.3-1.35h7.27c1.87-1.96 4.49-3 7.39-3 2.9 0 5.51 1.04 7.39 3Zm-.18.46a9.64 9.64 0 0 0-7.2-3.02 9.65 9.65 0 0 0-7.2 3.03h-7.46c-.48 0-.76.4-.76.88v6.12c0 .2-.23.38-.42.45a.48.48 0 0 0-.3.45v.71c0 .41-.29.77-.68.87a63.3 63.3 0 0 0-2.54.7.89.89 0 0 0-.45 1.37l.94 1.27a.9.9 0 0 1 .1.88L8 34.77A.88.88 0 0 0 8.9 36l7.23-.94a.7.7 0 0 0 .6-.74.7.7 0 0 1 .62-.74c.77-.09 1.72-.18 2.8-.26a9.78 9.78 0 0 0 14.58-.06c1.54.1 2.87.22 3.89.33.37.04.65.36.65.74 0 .37.27.69.63.73l7.2.94c.67.09 1.18-.62.9-1.25l-.7-1.55a.9.9 0 0 1 .1-.92l.98-1.24a.89.89 0 0 0-.4-1.38l-.63-.22c-.5-.16-1.16-.36-1.85-.53a.9.9 0 0 1-.69-.87v-.64a.53.53 0 0 0-.37-.51c-.22-.07-.44-.28-.44-.52v-6.03c0-.48-.32-.88-.8-.88h-8.58Z" fill="url(#ab4iagxau)" /><path d="M43.2 19.41c.48 0 .8.4.8.9v6.06c0 .24.22.45.44.52.22.06.37.27.37.5v.65c0 .42.3.78.7.87a27.75 27.75 0 0 1 2.48.75c.56.2.76.9.39 1.38l-.97 1.24a.9.9 0 0 0-.12.92l.7 1.55c.29.63-.22 1.34-.9 1.25l-7.19-.94a.74.74 0 0 1-.63-.73c0-.38-.28-.7-.65-.74a101.43 101.43 0 0 0-21.26-.01.7.7 0 0 0-.62.74.7.7 0 0 1-.61.74L8.9 36a.88.88 0 0 1-.9-1.22l.66-1.61a.9.9 0 0 0-.1-.88l-.95-1.27a.89.89 0 0 1 .45-1.38 61.07 61.07 0 0 1 2.54-.7c.4-.09.67-.45.67-.86v-.7c0-.2.13-.39.31-.46.19-.07.42-.25.42-.45V20.3c0-.49.28-.88.76-.88H43.2Z" fill="#1D1B06" /><path d="M12.76 27.43V20.5H43.2v6.93l.74.23v1.83c1.43.23 3.1.76 3.76 1l-1.64 2.09 1.15 2.54-7.08-.92v-1.32c-1.83-.25-6.88-.74-12.35-.74s-10.27.5-11.99.74l.07 1.32-7.07.92 1.05-2.54-1.54-2.1c1.76-.51 3.3-.87 3.84-.99v-1.83l.62-.23Z" fill="url(#bb4iagxau)" /><path fill-rule="evenodd" d="m17.55 26.63 1.06-.11.13-.9h1.07l.1.78 1.1-.06-1.1-4.34h-1.3l-1.06 4.63Zm2.15-1.74-.3-2.09h-.26l-.3 2.09h.86ZM15.36 22h-1.34l.26.3v4.57l1.08-.07v-1.97l.86-.07v1.95l1.02-.04V22h-1.02v1.89l-.86.14V22Zm5.92 0v4.3l2.54-.1v-.88l-1.49.16V22h-1.05Zm2.81 4.18V22h1.05v3.39l1.5-.06v.85h-2.55Zm4.52.03V22h2.5v1h-1.49v.73h1.4v.79h-1.4v1.7h-1ZM26 22.61a.6.6 0 1 1 1.2 0v.79a.6.6 0 1 1-1.2 0v-.8Zm.36-.05a.25.25 0 0 1 .49 0v.88a.25.25 0 0 1-.5 0v-.88Zm1 1.5v-2h.97v.36h-.59v.44h.47v.33h-.47v.86h-.38ZM32.09 22l-1.1 4.17 1.07.03.1-.69 1.07.07.11.7 1.06.09L33.34 22H32.1Zm1.01 2.77-.83-.03.27-1.86h.26l.3 1.9ZM34.7 22v4.39h.99v-3.23l.76 3.29.81.06.75-3.32v3.43l1 .07V22h-1.6l-.65 2.73-.54-2.73h-1.52Zm4.74 0v4.63l2.57.3V26h-1.7v-1h1.32v-1h-1.31v-1H42v-1h-2.57Z" fill="url(#cb4iagxau)" /><path d="M13 28.4V33c1.11-.47 5.53-1.42 14.3-1.42S41.42 32.53 43 33v-4.6A93.73 93.73 0 0 0 27.3 27c-6.75 0-12.35.93-14.3 1.4Z" fill="url(#db4iagxau)" /><path fill-rule="evenodd" d="M26.35 27.7v2.88h.94v-.87h.4l.47.87h.87v-.19l-.49-.6c.31-.07.46-.28.49-.37V28.2c0-.3-.32-.45-.49-.5h-2.2Zm.93.42h.67v1.15h-.67v-1.15Zm-4.28.13v2.22c0 .14.12.4.6.36l.66-.06c.4-.03.88-.06 1.23-.1.18-.02.3-.17.3-.34v-.57l-.96.05v.35c-.02.1-.16.24-.42.24-.33 0-.41-.18-.41-.4v-.52l1.06-.06v-.3l-1.06.06v-.83c0-.1.07-.33.35-.33.34 0 .48.1.48.38v.24l.96-.08v-.42c0-.1-.07-.32-.47-.32-.4 0-1.47.05-1.95.12-.12.02-.37.1-.37.31Zm-6 2.84v-2.22c0-.2.24-.3.35-.31.46-.07 1.46-.2 1.84-.2.37 0 .45.2.44.31v.43l-.91.08v-.24c0-.29-.1-.3-.44-.3-.27 0-.33.22-.33.34v.73l.99-.06v.3l-1 .05v.62c0 .22.09.4.4.4.25 0 .36-.21.38-.32v-.35l.91-.05v.79c-.5.1-1.62.3-2.07.36-.45.05-.56-.22-.56-.36Zm-3.31 1.12v-3.02l2.16-.45c.15 0 .44.1.44.53v.65a.49.49 0 0 1-.25.24c.09.03.25.15.25.39v.7a.82.82 0 0 1-.55.5c-.37.12-1.53.36-2.05.46Zm1-1.94v-1.01l.68-.12v.98l-.67.15Zm0 1.4v-1.01l.68-.12v.98l-.67.15Zm6.48-3.5-1.24.1.71 2.73 1.3-.12.85-2.9-.64.07-.58 2.13-.4-2.02Zm8.41 2.48v-2.87h2.2c.16.04.49.2.49.5v1.21c-.03.1-.18.3-.49.37l.49.68v.25l-.87-.07c-.16-.29-.47-.94-.47-.94h-.4v.9l-.95-.03Zm1.6-2.46h-.66v1.15h.67V28.2Zm1.82.03v2.07c.01.15.1.47.42.51.3.04 1.66.13 2.3.17V29.4l-1.31-.07v.24l.22.05v1.03l-.46-.08a.28.28 0 0 1-.19-.27v-1.95c.03-.07.13-.2.32-.2.24 0 .33.07.33.2v.46l1.09.08v-.61c-.04-.1-.2-.3-.58-.33-.37-.03-1.3-.07-1.72-.09-.14.02-.42.12-.42.37Zm3.31 2.93 2.42.27v-.96l-1.02-.12v.67l-.4-.05c-.33-.08-.38-.33-.37-.44v-.64l1 .1v-.27l-1-.12v-.74c0-.22.17-.3.25-.3l.46.07v.68l1.08.1v-.97l-2.24-.24c-.44.04-.5.3-.49.43v1.9c0 .45.21.6.31.63Zm2.72-.6c-.07.25-.07.78.46.91.45.11 1.52.25 2.2.32.17.02.31-.1.31-.26v-.9c-.06-.11-.33-.35-.92-.44l-.21-.03c-.58-.08-.78-.11-.78-.44v-.47c.01-.08.1-.24.32-.24.29 0 .41.17.41.38v.33l.94.1v-.5c0-.13-.12-.42-.65-.52l-1.57-.27c-.18 0-.53.11-.53.62v.73c-.02.1.06.29.48.35l1.23.2c.09.03.26.13.26.31v.58c.01.05-.06.15-.4.15-.33 0-.36-.44-.33-.67l-1.22-.23Z" fill="url(#eb4iagxau)" /><path d="m13.37 27.86-.62.23v1.9l-.49.11c-.44.1-1.57.36-2.94.74l1.22 1.65-.78 1.88 5.46-.7-.07-1.33.56-.08c1.74-.24 6.57-.73 12.07-.73s10.57.49 12.43.73l.53.07v1.33l5.46.7-.85-1.87 1.33-1.69a21.4 21.4 0 0 0-2.83-.7l-.51-.08v-1.9l-.75-.23v-6.77H13.37v6.74ZM43.2 20.5v6.93l.74.23v1.83a22.59 22.59 0 0 1 3.76 1l-1.64 2.09 1.15 2.54-7.08-.92v-1.32c-1.83-.25-6.88-.74-12.35-.74s-10.27.5-11.99.74l.07 1.32-7.07.92 1.05-2.54-1.54-2.1a57.23 57.23 0 0 1 3.84-.99v-1.83l.62-.23V20.5H43.2Z" fill="url(#fb4iagxau)" /><defs><linearGradient id="ab4iagxau" x1="28" y1="16.44" x2="28" y2="36.56" gradientUnits="userSpaceOnUse"><stop stop-color="#ECD4C8" /><stop offset=".1" stop-color="#CF9774" /><stop offset=".16" stop-color="#AE693F" /><stop offset=".68" stop-color="#E1E1DF" /><stop offset=".93" stop-color="#BF6D35" /><stop offset="1" stop-color="#483934" /></linearGradient><linearGradient id="bb4iagxau" x1="28" y1="21.87" x2="28" y2="35.12" gradientUnits="userSpaceOnUse"><stop stop-color="#698FD0" /><stop offset=".14" stop-color="#0240A5" /><stop offset=".31" stop-color="#030B20" /><stop offset=".71" stop-color="#040007" /><stop offset=".84" stop-color="#53ABDD" /></linearGradient><linearGradient id="cb4iagxau" x1="28.01" y1="21.65" x2="28.01" y2="26.76" gradientUnits="userSpaceOnUse"><stop stop-color="#FFFEF4" /><stop offset=".61" stop-color="#FFDC70" /><stop offset=".83" stop-color="#F8DF47" /></linearGradient><linearGradient id="db4iagxau" x1="12.64" y1="33" x2="43" y2="33" gradientUnits="userSpaceOnUse"><stop stop-color="#C5D3EE" /><stop offset=".1" stop-color="#587DC4" /><stop offset=".31" stop-color="#2661D7" /><stop offset=".48" stop-color="#AAC4FF" /><stop offset=".64" stop-color="#1C58EC" /><stop offset=".91" stop-color="#4B64B6" /><stop offset="1" stop-color="#AAB9DA" /></linearGradient><linearGradient id="eb4iagxau" x1="14.41" y1="30.35" x2="42.05" y2="30.35" gradientUnits="userSpaceOnUse"><stop stop-color="#FACA04" /><stop offset=".35" stop-color="#F7B101" /><stop offset=".62" stop-color="#FCA200" /><stop offset="1" stop-color="#F9CE06" /></linearGradient><linearGradient id="fb4iagxau" x1="28" y1="20.5" x2="28" y2="35.12" gradientUnits="userSpaceOnUse"><stop stop-color="#EDEBDC" /><stop offset=".33" stop-color="#89775B" /><stop offset=".52" stop-color="#6C5F4F" /><stop offset=".77" stop-color="#DCBB5E" /><stop offset=".85" stop-color="#DFCCC3" /><stop offset="1" stop-color="#EEE6E3" /></linearGradient></defs></svg>