<?xml version='1.0' encoding='utf-8'?>
<!-- by TradeStack -->
<svg width="56" height="56" viewBox="0 0 56 56" fill="none" xmlns="http://www.w3.org/2000/svg">
<rect width="56" height="56" fill="#F0F3FA" />
<path fill-rule="evenodd" clip-rule="evenodd" d="M22.5804 13.6609C22.5233 14.0323 22.7404 14.34 23.1039 14.4195C23.3649 14.4904 23.6307 14.4714 23.9614 14.4477C24.3656 14.4188 24.8669 14.383 25.575 14.4959C26.5742 14.5692 27.5772 14.4194 28.5129 14.0569C28.0459 14.1465 27.573 14.2008 27.0981 14.2191C26.9813 14.2191 26.8774 14.2264 26.7839 14.2329L26.7839 14.2329C26.7076 14.2382 26.6383 14.243 26.5747 14.243C26.7571 14.2228 26.9345 14.1695 27.0981 14.0855C27.6681 13.8019 27.7521 13.5886 27.7628 13.5614L27.7631 13.5607C27.7644 13.5572 27.7595 13.5605 27.7468 13.5688C27.672 13.6177 27.3274 13.843 26.4238 13.9042C25.8887 13.9623 25.3485 13.9527 24.8157 13.8756C25.9444 13.7356 27.044 13.4967 28.1167 13.1217L28.5883 12.9499L28.6496 12.9261C28.2239 12.9148 27.799 12.9711 27.3905 13.0931C26.7002 13.3393 25.9829 13.4995 25.2543 13.5702C25.081 13.5857 24.9274 13.6039 24.7873 13.6205C24.3214 13.6759 24.0059 13.7133 23.6179 13.5702C23.4704 13.5213 23.3346 13.4417 23.2192 13.3365C23.1039 13.2314 23.0116 13.1029 22.9483 12.9595C23.0624 13.0938 23.1905 13.2154 23.3303 13.3221C23.4296 13.3697 23.5367 13.3988 23.6462 13.408C23.4478 13.254 23.2703 13.0743 23.118 12.8736C23.0829 12.7602 23.0829 12.6387 23.118 12.5253C23.1261 12.6465 23.1724 12.7619 23.2501 12.8545C23.3363 12.9761 23.4467 13.0779 23.5742 13.1535C23.7018 13.2291 23.8436 13.2768 23.9905 13.2935C24.2617 13.3715 24.5491 13.3715 24.8204 13.2935C25.604 13.0295 26.4024 12.8128 27.2113 12.6446C27.7253 12.6064 28.494 12.5682 28.494 12.5682C28.2521 12.4878 27.9989 12.4475 27.7442 12.449C27.2203 12.4561 26.7005 12.5429 26.2021 12.7066C25.9216 12.8753 25.6105 12.9856 25.2873 13.0311C25.0138 13.0311 25.0138 12.9977 25.0138 12.9977C25.516 12.6493 26.082 12.4059 26.6784 12.282C27.5131 12.1579 28.6449 12.0529 28.6449 12.0529C28.3491 11.9194 28.0243 11.8652 27.7018 11.8955C27.2765 11.9757 26.8464 12.0267 26.4144 12.0482C26.1078 11.9909 25.839 11.6283 26.1078 11.5233C26.3099 11.4444 26.4746 11.5569 26.6081 11.6481C26.6522 11.6782 26.6928 11.7059 26.7303 11.7237L26.7339 11.7254C26.8824 11.7959 26.9598 11.8326 27.3434 11.7237C27.6089 11.6082 27.9062 11.5913 28.1828 11.676C28.5971 11.8922 29.0314 12.0664 29.4796 12.1961H29.5881C30.1209 12.2915 31.0971 12.4442 31.0971 12.4442L31.2339 12.5014H30.5312C30.3147 12.5014 30.038 12.475 29.7767 12.45C29.4006 12.4141 29.0566 12.3812 28.9703 12.4347C28.8241 12.5253 29.4419 12.6494 30.0408 12.7066C30.5129 12.6923 30.9854 12.7082 31.4555 12.7543C31.8143 12.8095 32.104 12.8581 32.3243 12.8951C32.5989 12.9411 32.7655 12.9691 32.8231 12.9691C32.9268 12.9691 32.8231 12.8784 32.8231 12.8784C32.506 12.5029 32.0934 12.2224 31.63 12.0673C31.1912 11.9471 30.7262 11.9687 30.3001 12.1293C30.0636 12.1776 29.8199 12.1776 29.5834 12.1293C29.4339 12.0987 29.2872 12.0556 29.1448 12.0005C28.8247 11.8752 28.4563 11.66 28.1547 11.4838C27.9853 11.3848 27.8369 11.2981 27.73 11.2466L27.4801 11.1226C27.1849 10.9799 26.8459 10.961 26.537 11.07C26.0246 11.2073 25.5182 11.3446 25.0939 11.6808C24.9486 11.8247 24.7546 11.7655 24.5651 11.7077C24.4656 11.6774 24.3674 11.6474 24.2781 11.6474C24.156 11.6439 24.0345 11.6672 23.9222 11.7158C23.7858 11.7748 23.7141 11.8904 23.6459 12.0004C23.5862 12.0965 23.5292 12.1884 23.434 12.2343C23.4065 12.2475 23.3529 12.2534 23.2872 12.2606C23.1162 12.2794 22.8637 12.3071 22.7785 12.4967C22.6914 12.7512 22.7298 13.0296 22.8021 13.2887C22.6828 13.3765 22.6014 13.5131 22.5804 13.6609ZM32.7949 13.0597C32.3322 13.1316 31.8806 13.2631 31.4509 13.451C31.4509 13.451 31.4509 13.5225 31.4792 13.5369L31.748 13.4653C31.8282 13.4653 32.1158 13.5225 32.0592 13.5989C32.0353 13.6251 32.0621 13.6759 32.097 13.6704L32.3658 13.6227C32.3893 13.6227 32.5119 13.6991 32.4506 13.6991C32.4066 13.6991 32.0655 13.8025 31.856 13.8661L31.856 13.8661L31.8559 13.8661L31.8559 13.8661L31.8557 13.8662C31.7738 13.891 31.712 13.9098 31.6961 13.9138L32.1394 13.8183L32.8845 13.7086C32.9369 13.6939 32.96 13.7799 32.9081 13.7945L32.7525 13.8374C32.5624 13.8862 32.3751 13.9452 32.1913 14.014C32.3186 13.9776 32.6801 13.9066 32.9912 13.8455C33.21 13.8026 33.4039 13.7645 33.474 13.7468C33.6437 13.7039 33.8465 13.7897 33.6815 13.8899C33.3802 13.9624 33.0716 13.9992 32.7619 13.9997C32.6628 13.9997 31.8187 14.3575 31.8187 14.3575C31.9077 14.3467 31.9949 14.3243 32.0781 14.2907C32.1661 14.2562 32.3448 14.2183 32.5153 14.1821L32.5153 14.1821C32.6279 14.1582 32.7369 14.135 32.8138 14.1142C32.9231 14.0845 33.361 14.064 33.7508 14.0457L33.7508 14.0457C34.0505 14.0317 34.3218 14.019 34.3935 14.0044C34.5586 13.971 34.6482 14.0808 34.5774 14.1333C34.3107 14.1809 34.0378 14.1809 33.7711 14.1333C33.5539 14.1216 33.3364 14.1508 33.1297 14.2192C33.0995 14.2192 32.8679 14.2961 32.6069 14.3827L32.6069 14.3827C32.2976 14.4854 31.9472 14.6018 31.8423 14.6199C31.7863 14.6319 31.7285 14.6319 31.6725 14.6199C31.6333 14.6053 31.5998 14.6733 31.6348 14.6963C31.6803 14.7253 31.7295 14.7478 31.781 14.7631C31.9216 14.8037 32.1312 14.6977 32.3033 14.6105C32.3737 14.5749 32.4378 14.5425 32.4884 14.5245C32.6629 14.4625 33.4551 14.348 33.5211 14.3432L34.568 14.243C34.5975 14.2341 34.6271 14.274 34.6105 14.3003C34.6105 14.3289 34.5492 14.367 34.3982 14.3766C34.1059 14.3766 33.672 14.4291 33.4551 14.4625C33.3633 14.4766 33.1998 14.542 33.0102 14.6178C32.7517 14.7212 32.4448 14.8438 32.2054 14.8824C32.0401 14.9119 31.8709 14.9119 31.7056 14.8824C31.6562 14.8648 31.6281 14.9459 31.6773 14.9635L31.7763 15.0064C31.9626 15.0216 32.1502 15.0088 32.3327 14.9683C32.3172 14.9889 32.2998 15.008 32.2809 15.0255C32.0779 15.1194 31.858 15.1697 31.6348 15.1734C31.4715 15.1727 31.3104 15.1352 31.1632 15.0637C31.2185 15.1357 31.2942 15.1889 31.3802 15.2163C31.7715 15.2608 32.1676 15.2251 32.545 15.1114C32.7647 15.046 33.0142 14.9433 33.253 14.8451C33.4499 14.764 33.6395 14.686 33.7994 14.6343C34.1646 14.5967 34.5333 14.6144 34.8934 14.6867C35.0066 14.6867 35.6338 14.868 35.5017 14.9205C35.2641 14.9263 35.0275 14.8875 34.8038 14.806C34.5423 14.7633 34.2746 14.7813 34.021 14.8585C33.9373 14.8787 33.6922 14.9615 33.4049 15.0585L33.4048 15.0585C32.9472 15.2129 32.3824 15.4036 32.1913 15.4358C32.0357 15.4621 31.682 15.4621 31.3672 15.4621C31.0524 15.4621 30.7766 15.4621 30.7766 15.4883C30.7766 15.5163 30.8262 15.5226 30.9335 15.5361C31.0272 15.5479 31.1649 15.5653 31.3519 15.6076C31.8776 15.6089 32.4011 15.5383 32.9081 15.3977C32.9904 15.3977 33.2825 15.3069 33.5918 15.2108C33.8672 15.1252 34.1562 15.0354 34.3228 15.0017C34.6765 14.9301 35.1245 15.035 34.9924 15.1686C34.911 15.2511 34.6141 15.2881 34.2679 15.3312C34.053 15.358 33.8191 15.3872 33.606 15.4311C33.0495 15.5456 32.4365 15.8653 32.8468 15.7412C33.5956 15.5082 34.3807 15.4176 35.1622 15.474C35.8175 15.5541 36.4507 15.7649 37.0249 16.0943C37.0459 16.1008 37.0642 16.1143 37.0768 16.1325C37.1428 16.1993 37.1711 16.3376 36.9778 16.2326C36.4911 15.9789 35.9722 15.7943 35.4357 15.684H35.4074C35.056 15.5893 34.6823 15.6319 34.3605 15.8032C34.2426 15.8366 32.5968 16.0132 32.5497 16.0132C32.5025 16.0132 32.361 16.1754 32.8986 16.2613C33.2858 16.3231 33.6044 16.2118 34.0465 16.0573C34.2184 15.9973 34.4089 15.9307 34.6293 15.8653C34.8822 15.7844 35.1504 15.7648 35.4121 15.808C35.8578 15.9366 36.2943 16.096 36.7184 16.2851C37.1509 16.4356 37.5113 16.7458 37.7276 17.1535C37.7276 17.1535 37.869 17.6831 37.6663 17.936C37.3173 18.3845 37.1428 18.5754 36.4638 18.3225L35.9922 18.1364C35.9424 18.1171 35.8892 18.1889 35.9214 18.2318C36.053 18.381 36.2135 18.5012 36.393 18.5849C36.6555 18.7229 36.971 18.7475 37.2513 18.6517C37.5199 18.491 37.7375 18.2559 37.8785 17.9742C37.8901 17.9405 37.9471 17.9405 37.9586 17.9742C37.9651 18.0878 37.943 18.2013 37.8944 18.3039C37.7749 18.5559 37.4934 18.7137 37.2339 18.7833C36.7107 18.9236 36.1347 18.6755 35.6857 18.4227C35.5772 18.3368 35.9969 19.1002 36.6288 19.1336C37.0137 19.1536 37.3697 19.0526 37.7134 18.8903C37.9457 18.7498 38.1085 18.5028 38.1473 18.2318C38.2103 17.9684 38.2103 17.6936 38.1473 17.4302C38.1246 17.1868 37.9099 16.9725 37.7287 16.7917C37.608 16.6712 37.5021 16.5656 37.4776 16.476C37.3976 16.3062 37.2778 16.1588 37.1287 16.0465L36.9919 15.913C36.871 15.7853 36.7693 15.6437 36.6674 15.5018C36.5576 15.3489 36.4475 15.1957 36.3128 15.0589C36.1885 14.9126 36.0624 14.8435 35.9606 14.7876C35.8964 14.7524 35.8419 14.7226 35.8035 14.682C35.7444 14.6193 35.734 14.5753 35.7242 14.5338C35.7176 14.5058 35.7113 14.4789 35.6904 14.4482C35.5649 14.2902 35.4201 14.1079 35.2801 13.9663C35.0851 13.7577 34.7878 13.5934 34.525 13.4483C34.4766 13.4216 34.4293 13.3955 34.3841 13.3698C33.8887 13.1652 33.3624 13.0475 32.8279 13.0215L32.7949 13.0597ZM37.27 18.1936C37.1191 18.3797 36.6899 18.332 36.4872 18.1316C36.3294 17.972 36.3572 17.8557 36.3773 17.7715C36.383 17.7475 36.3881 17.726 36.3881 17.707C36.3881 17.6752 36.414 17.6263 36.443 17.5716C36.4923 17.4786 36.5505 17.3687 36.506 17.2967C36.2495 17.0978 35.948 16.9666 35.6289 16.9149C35.1078 16.8513 34.5818 16.8401 34.0585 16.8815C34.4021 16.724 34.7682 16.6225 35.1432 16.581H35.2469C35.5109 16.5895 35.7706 16.6511 36.0109 16.7622C36.2418 16.863 36.4642 16.9827 36.6758 17.1201C37.0908 17.373 37.1238 17.6593 37.0908 17.7547C37.0578 17.8501 36.8691 17.7929 36.8173 17.7022C36.7654 17.6115 36.6805 17.6927 36.6286 17.7881C36.6164 17.8225 36.6115 17.8591 36.6143 17.8956C36.6172 17.932 36.6276 17.9674 36.645 17.9995C36.6624 18.0315 36.6863 18.0594 36.7152 18.0814C36.7441 18.1034 36.7773 18.1189 36.8125 18.1269C37.0106 18.1793 37.1143 18.1125 37.2841 17.8358C37.4346 17.5905 37.3406 17.424 37.2516 17.2663C37.2402 17.2461 37.2288 17.2261 37.2181 17.206C36.8514 16.8547 36.4066 16.5978 35.9213 16.4569C35.7073 16.4119 35.489 16.3911 35.2705 16.3949C34.6857 16.3853 34.002 16.4473 34.002 16.4473C34.6323 16.2449 35.2997 16.1894 35.9543 16.2851C37.0059 16.4855 37.4963 16.7622 37.5623 17.2394C37.5898 17.4105 37.5777 17.5857 37.527 17.7513C37.4763 17.9169 37.3883 18.0683 37.27 18.1936ZM35.8411 21.753L35.7704 21.7244H35.7468C35.4392 21.6977 35.1297 21.7418 34.8414 21.8532C34.4016 22.0223 33.4986 21.7433 33.3366 21.6932L33.3365 21.6932L33.3135 21.6862C33.5131 22.0358 33.8239 22.3067 34.1953 22.4544C34.7085 22.522 35.2296 22.4199 35.6808 22.1633C35.8364 22.087 36.1429 21.9057 35.8411 21.753ZM38.0244 25.5128C37.7037 25.8134 37.5764 25.8134 37.5764 25.8134C37.6255 25.7744 37.6712 25.7313 37.7132 25.6846C37.8296 25.5749 37.9143 25.4353 37.9584 25.2807C38.0024 25.126 38.004 24.9622 37.9631 24.8067C37.8333 24.4466 37.5749 24.1489 37.2388 23.9722C36.9026 23.7956 36.5133 23.7528 36.1475 23.8524C36.3056 23.697 36.5125 23.6024 36.7323 23.5852C36.9385 23.5755 37.144 23.6164 37.3312 23.7045C37.712 23.8932 38.0084 24.2204 38.1612 24.6206C38.2192 24.7972 38.2369 24.9848 38.213 25.1693C38.184 25.2998 38.1186 25.419 38.0244 25.5128ZM37.4058 25.0827C37.3863 25.0765 37.3687 25.0653 37.3548 25.0501C37.3466 25.0292 37.3327 25.0111 37.3147 24.9979C37.2967 24.9846 37.2754 24.9768 37.2532 24.9753C37.231 24.9738 37.2089 24.9787 37.1893 24.9894C37.1697 25.0001 37.1536 25.0162 37.1426 25.0358C37.1746 25.1072 37.1968 25.1826 37.2087 25.2601C37.2087 25.2863 37.2252 25.2994 37.2334 25.306L37.2334 25.306C37.2351 25.3073 37.2364 25.3084 37.2372 25.3092L37.2378 25.3099C37.238 25.3102 37.238 25.3105 37.238 25.3108C37.2375 25.3125 37.23 25.3125 37.2087 25.3125H37.2087C37.163 25.3125 37.0678 25.2008 36.9136 25.0198C36.8448 24.939 36.7642 24.8445 36.6711 24.74C36.308 24.3106 36.3079 24.5682 36.3079 24.5682L36.4258 24.7972C36.4385 24.8221 36.4422 24.8506 36.4362 24.8779C36.4302 24.9052 36.4149 24.9295 36.393 24.9465C36.3711 24.9636 36.344 24.9723 36.3164 24.9712C36.2887 24.97 36.2624 24.9591 36.2419 24.9404C36.1556 24.8574 36.0737 24.7698 35.9967 24.6779C35.8559 24.5194 35.6861 24.3898 35.4968 24.2962C35.3844 24.2346 35.2744 24.2609 35.1831 24.2827C35.0483 24.3149 34.9545 24.3373 34.9545 24.0529H34.9781H35.0064H35.0913H35.1479H35.1809H35.2894H35.3695H35.5063L35.8175 24.0147C36.1683 23.9851 36.5215 24.0109 36.8644 24.0911L37.0342 24.1436C37.1846 24.1887 37.33 24.2495 37.468 24.3249C37.6944 24.4489 37.6284 24.7925 37.5529 25.0072C37.5464 25.0267 37.5349 25.0442 37.5197 25.058C37.5044 25.0717 37.4859 25.0812 37.4659 25.0856C37.446 25.0899 37.4252 25.0889 37.4058 25.0827ZM38.0999 23.027C38.0652 22.9931 38.0504 22.9407 38.0622 22.8934C38.1342 22.5975 38.1161 22.2865 38.0103 22.0012C37.9549 21.8709 37.8631 21.7598 37.7463 21.6815C37.6783 21.6415 37.652 21.5461 37.6897 21.4763C37.8684 21.1844 37.9901 20.8604 38.0481 20.522C38.0748 20.2762 37.9611 20.0237 37.7604 19.8827C37.6614 19.7777 37.7038 19.7252 37.7038 19.7252C37.708 19.5479 37.6954 19.3705 37.6661 19.1956C37.6266 19.0597 37.5073 19.0956 37.4115 19.1479C37.153 19.3251 36.8509 19.4259 36.539 19.439C36.0432 19.4948 35.5423 19.4852 35.0489 19.4103C35.3209 19.5646 35.6207 19.662 35.9307 19.6966C36.2153 19.7479 36.5079 19.73 36.7842 19.6441C36.9284 19.5958 37.035 19.7927 36.9304 19.8923C36.8112 20.0333 36.6417 20.1208 36.4589 20.1356C36.2103 20.1356 36.0665 20.0613 35.8819 19.9659C35.7162 19.8804 35.5176 19.7778 35.1809 19.6966C35.0617 19.6693 34.9383 19.667 34.8182 19.69C34.6981 19.713 34.584 19.7607 34.483 19.8302C34.3549 19.9016 34.4152 20.1221 34.5678 20.1069C34.8326 20.0909 35.0978 20.1315 35.3459 20.2262C36.3598 20.5745 36.0109 20.7845 36.0109 20.7845C35.6221 21.0314 35.1576 21.1264 34.7046 21.0517C34.499 21.0209 34.2979 20.9648 34.1057 20.8847C33.9637 20.8346 33.841 21.0287 33.9501 21.1376C34.1028 21.286 34.276 21.4113 34.4641 21.5097C34.7431 21.6282 35.0616 21.5448 35.3973 21.4568C35.6291 21.3961 35.8691 21.3332 36.1099 21.3332C36.2165 21.3298 36.323 21.3426 36.4258 21.3713C36.5025 21.3938 36.5304 21.5078 36.473 21.5638C36.4511 21.5852 36.4221 21.5946 36.3941 21.6037C36.3481 21.6187 36.3044 21.6329 36.2976 21.6977C36.2919 21.7512 36.3276 21.8049 36.3787 21.8199C36.6542 21.9383 36.9041 22.1101 37.1144 22.3256C37.1144 22.3256 37.0766 22.4449 36.8786 22.4163C36.7522 22.398 36.5759 22.2613 36.4514 22.1647C36.3807 22.1099 36.3267 22.068 36.308 22.068C36.2561 22.068 36.1712 22.1061 36.1712 22.1443C36.1712 22.1607 36.2585 22.2037 36.3719 22.2594C36.522 22.3332 36.7179 22.4295 36.8173 22.5165C36.9858 22.6965 37.1272 22.9007 37.237 23.1224C37.237 23.1224 37.1002 22.9888 36.954 22.8696C36.6665 22.615 36.2613 22.4326 35.8741 22.4353C35.6277 22.4657 35.3935 22.5612 35.195 22.7121C35.4958 22.626 35.8036 22.5669 36.1146 22.5356C36.1963 22.5369 36.2764 22.5585 36.3479 22.5984C36.4194 22.6383 36.4802 22.6954 36.5249 22.7646H36.4966C36.0628 22.6944 35.6185 22.7354 35.2045 22.8839C34.7329 23.0842 34.8036 23.6139 34.8979 23.924C34.9366 24.0501 34.9675 24.0494 35.019 24.0483L35.0347 24.0481C35.1972 24.0481 35.2725 23.9205 35.3721 23.7517C35.4836 23.5629 35.6256 23.3224 35.9543 23.151C36.1503 23.0406 36.3712 22.9831 36.5956 22.9841C36.6485 22.9953 36.6994 23.0146 36.7465 23.0413C36.7465 23.0413 36.7842 23.0795 36.4258 23.1797C36.1562 23.2935 35.9263 23.4863 35.7656 23.7332C36.0644 23.5137 36.4074 23.3638 36.7701 23.2942C37.2983 23.2226 37.5765 23.3658 38.1848 23.9956C38.4469 24.3332 38.5302 24.7983 38.4017 25.2075C38.3433 25.3728 38.5826 25.4766 38.6658 25.3315C38.7323 25.2373 38.7862 25.1346 38.8262 25.0262C38.9182 24.7652 38.8647 24.4613 38.6894 24.2484C38.6344 24.1789 38.6437 24.0609 38.6515 23.9609C38.654 23.9284 38.6564 23.8979 38.6564 23.8715C38.614 23.5996 38.2414 23.1797 38.0999 23.027ZM31.7099 19.0685C31.7194 19.056 31.7327 19.047 31.7478 19.0429L32.9503 18.876C33.9538 18.7459 34.3212 18.2508 34.6254 17.8411C34.7786 17.6347 34.9158 17.4499 35.1102 17.3444C35.3738 17.3132 35.641 17.3408 35.893 17.4255C35.9036 17.428 35.9135 17.4332 35.9217 17.4406C35.9299 17.4479 35.9361 17.4572 35.9398 17.4677C35.9436 17.4781 35.9447 17.4893 35.9431 17.5002C35.9415 17.5112 35.9372 17.5216 35.9307 17.5304C35.6805 17.8887 35.3821 18.2099 35.0441 18.4847C34.6431 18.8859 34.1158 19.1323 33.5539 19.1813C32.9526 19.2218 32.3492 19.2218 31.7478 19.1813C31.7327 19.1773 31.7194 19.1683 31.7099 19.1558C31.7004 19.1433 31.6952 19.1279 31.6952 19.1121C31.6952 19.0964 31.7004 19.081 31.7099 19.0685ZM31.6392 20.2304H31.6721L31.6016 20.1928L31.6392 20.2304ZM33.3598 20.1713L33.3371 20.169C33.2339 20.169 33.1246 20.1813 33.106 20.3026C33.0868 20.4208 33.1032 20.5422 33.1532 20.6509C33.2531 20.9161 33.4287 21.1453 33.6577 21.3093C33.5372 21.4096 33.4092 21.4982 33.2808 21.5871C33.2492 21.6089 33.2177 21.6308 33.1862 21.6529C32.8197 21.8961 32.4068 22.0586 31.9742 22.13C31.6955 22.1732 31.4106 22.1223 31.1634 21.9851C30.9162 21.848 30.7205 21.6323 30.6066 21.3714C30.5617 21.2966 31.2516 21.4055 31.6635 21.4706L31.6635 21.4706L31.6637 21.4706C31.8565 21.5011 31.9884 21.5219 31.9554 21.5097C31.215 21.2187 30.965 20.4505 31.1678 20.6557C31.3706 20.8608 32.9787 20.7415 32.6391 20.6795C32.2974 20.5677 31.9685 20.4189 31.6583 20.2358C32.1774 20.2457 32.6957 20.1879 33.2003 20.064L33.4738 20.0068C33.4738 20.0068 33.4314 19.8636 32.7523 19.7348C32.223 19.7054 31.6977 19.8421 31.248 20.126L31.9412 19.6489C32.201 19.4786 32.4981 19.3756 32.8066 19.349C33.115 19.3224 33.4251 19.3729 33.7096 19.4962C33.8558 19.5678 33.87 20.0354 33.7521 20.1403C33.6718 20.2036 33.4705 20.1828 33.3598 20.1713ZM32.408 17.0819C31.8574 17.1496 31.2992 17.1124 30.7622 16.9722C30.296 16.8595 29.8729 16.6106 29.5455 16.2565C29.532 16.2427 29.5239 16.2245 29.5225 16.2052C29.5212 16.1859 29.5267 16.1667 29.5381 16.1512C29.5495 16.1356 29.566 16.1247 29.5847 16.1204C29.6033 16.1161 29.6229 16.1186 29.6398 16.1277C30.1369 16.418 30.6843 16.6091 31.2526 16.6907C31.7847 16.7693 32.3266 16.7483 32.8512 16.6286C32.8694 16.623 32.8889 16.624 32.9064 16.6316C32.9238 16.6391 32.9381 16.6527 32.9466 16.6699C32.9551 16.6871 32.9573 16.7067 32.9527 16.7254C32.9482 16.744 32.9373 16.7605 32.922 16.7718C32.7713 16.9068 32.597 17.012 32.408 17.0819ZM31.0971 17.9026C31.5407 18.1029 32.0237 18.198 32.5092 18.1807C32.9947 18.1633 33.4698 18.0339 33.8983 17.8024C33.9233 17.7876 33.9424 17.7644 33.9521 17.7368C33.9618 17.7092 33.9616 17.679 33.9514 17.6516C33.9413 17.6242 33.9218 17.6013 33.8966 17.5869C33.8713 17.5726 33.8419 17.5678 33.8134 17.5733C33.0433 17.7163 32.2539 17.7163 31.4838 17.5733C30.9272 17.4628 30.6391 17.2981 30.4629 17.1975C30.3122 17.1114 30.2435 17.0721 30.1587 17.1535C29.9748 17.33 30.4888 17.6783 31.0971 17.9026ZM31.0027 14.868C31.1112 15.1018 30.7151 15.2068 30.4369 15.2736C29.8861 15.2898 29.3364 15.214 28.8099 15.0493C28.6649 14.9836 28.284 14.9795 27.9538 14.9759C27.6612 14.9728 27.4085 14.9701 27.3952 14.9253C27.2915 14.5722 27.9469 14.639 28.8618 14.8394C29.1566 14.904 29.3898 14.9691 29.5823 15.0228C29.9873 15.1358 30.2128 15.1988 30.4557 15.1018C30.6126 15.0391 30.7261 14.9637 30.8089 14.9086C30.9153 14.838 30.9709 14.801 31.0027 14.868ZM30.7293 13.847C31.0827 13.9194 31.4496 13.8812 31.7809 13.7372C31.6842 13.7022 31.5818 13.6861 31.4791 13.6895H31.3612C31.1977 13.6895 31.0343 13.6111 30.8112 13.5042C30.5839 13.3951 30.2947 13.2564 29.8805 13.1408C29.4721 13.0344 29.0438 13.0344 28.6355 13.1408C28.5204 13.1712 28.4071 13.2078 28.296 13.2506L28.2064 13.284C28.2064 13.284 28.9467 13.2028 29.5456 13.2028C29.9228 13.2028 30.1373 13.3921 30.3433 13.574C30.4645 13.6808 30.5827 13.7851 30.7293 13.847ZM30.7953 14.472C30.3224 14.4102 29.865 14.2597 29.4466 14.0282C29.2058 13.9031 28.9443 13.8847 28.7367 13.8701C28.5013 13.8536 28.3353 13.842 28.3478 13.6847C28.3478 13.4843 28.7062 13.5607 29.8663 13.9042C30.325 14.0464 30.8013 14.1219 31.281 14.1285C31.3071 14.1249 31.3336 14.131 31.3555 14.1457C31.3775 14.1604 31.3934 14.1826 31.4003 14.2083C31.4072 14.234 31.4047 14.2613 31.3932 14.2853C31.3816 14.3092 31.3619 14.3281 31.3376 14.3384C31.1733 14.4349 30.985 14.4812 30.7953 14.472ZM26.9944 23.4946C26.9787 23.4681 26.8974 23.5131 26.7744 23.5812C26.5658 23.6967 26.2373 23.8786 25.9051 23.8906C25.7675 23.8906 25.6187 23.8368 25.5019 23.7946C25.3905 23.7543 25.3082 23.7245 25.292 23.7618C25.259 23.8381 25.5844 24.0147 25.924 24.0242C26.1297 24.02 26.3321 23.9705 26.517 23.879C26.7019 23.7875 26.8648 23.6564 26.9944 23.4946ZM27.2167 23.9184C27.4332 23.8227 27.5739 23.7606 27.5602 23.8142C27.1291 24.2255 26.5633 24.4616 25.971 24.4775C25.9141 24.4739 25.8554 24.4707 25.7961 24.4676C25.3834 24.4455 24.9429 24.4219 24.9099 24.2341C24.8914 24.1285 25.0131 24.1568 25.2201 24.2048C25.4341 24.2545 25.7392 24.3253 26.0747 24.2914C26.4601 24.2524 26.913 24.0524 27.2167 23.9184ZM24.3017 39.1874C24.2359 39.1635 24.164 39.1638 24.0984 39.1882C24.0329 39.2127 23.9779 39.2597 23.9433 39.321C23.9288 39.3539 23.9098 39.3844 23.8867 39.4117C23.9349 39.5064 23.9504 39.6146 23.9307 39.7192C23.9111 39.8239 23.8574 39.9188 23.7782 39.989C23.7254 40.0253 23.6857 40.078 23.6653 40.1392C23.6449 40.2003 23.6448 40.2665 23.665 40.3278C23.6994 40.4011 23.7545 40.4624 23.8233 40.504C23.8922 40.5456 23.9716 40.5656 24.0517 40.5616C24.3818 40.5616 24.594 40.1608 24.6648 39.698C24.7259 39.2981 24.6251 39.2722 24.411 39.2172L24.4109 39.2171C24.3773 39.2085 24.3408 39.1991 24.3017 39.1874ZM24.2639 22.217C24.0968 22.3029 23.9774 22.3644 23.7876 22.2684C23.5188 22.1348 23.2641 21.4286 23.5471 21.3046C23.8907 21.1613 24.2702 21.1313 24.6317 21.2187C25.8955 21.2745 27.0938 21.8033 27.9941 22.7026C27.9764 22.8516 27.7232 22.7458 27.3186 22.5767C26.7517 22.3397 25.8873 21.9785 24.9571 22.0203C24.6192 22.0341 24.4206 22.1363 24.2639 22.217ZM20.8052 30.2102C20.7004 30.1621 20.6546 30.1411 20.5715 30.2222L20.5416 30.2533C20.4297 30.3691 20.3538 30.4476 20.4536 30.5705C20.9774 30.7298 21.5255 30.7912 22.0711 30.7518C22.3682 30.7041 22.3588 31.458 21.8683 31.458C21.8282 31.458 21.7848 31.4582 21.7388 31.4584C21.2224 31.4606 20.3827 31.4643 20.2744 31.2146C20.2273 31.106 20.2013 30.9425 20.1756 30.7811C20.137 30.5385 20.0991 30.3005 19.9915 30.2604C19.8123 30.1936 19.85 30.0743 19.85 30.0743C20.1064 29.8742 20.4077 29.7414 20.7271 29.6878C20.9845 29.7142 21.2319 29.8026 21.4486 29.9454C21.4766 29.9643 21.5094 29.9744 21.5429 29.9744C21.5765 29.9744 21.6093 29.9643 21.6373 29.9454C21.776 29.8504 21.9415 29.8035 22.1088 29.8118C22.4055 29.7926 22.7791 29.9163 23.1055 30.0244C23.3447 30.1037 23.5585 30.1745 23.698 30.1745C23.8914 30.1745 24.1722 30.1516 24.4048 30.1326C24.5692 30.1191 24.7096 30.1077 24.778 30.1077C24.943 30.1077 25.3863 30.3844 25.2967 30.4846C25.2554 30.5308 25.196 30.4877 25.1148 30.4287C25.02 30.3599 24.8956 30.2695 24.7355 30.2747C24.634 30.2779 24.4978 30.2851 24.3453 30.2931H24.3453H24.3453L24.3452 30.2931L24.3451 30.2931C24.0514 30.3085 23.6975 30.3272 23.4151 30.3272C23.2105 30.3272 22.9738 30.2849 22.755 30.2458C22.5148 30.2029 22.2962 30.1638 22.1654 30.1888C21.8126 30.3034 21.4403 30.344 21.0714 30.3081C20.9491 30.2762 20.8669 30.2385 20.8052 30.2102L20.8052 30.2102ZM19.7085 26.6771C19.6761 27.0442 19.7694 27.4114 19.9726 27.7172C20.0633 27.834 20.184 27.9231 20.3216 27.9749C20.4287 28.0221 20.6281 27.9759 20.8763 27.9184C21.2292 27.8366 21.6805 27.732 22.1041 27.8413C22.8256 28.0274 23.3161 28.1037 23.3868 28.0083C23.4537 27.9441 23.4992 27.8605 23.517 27.769C23.5347 27.6775 23.5238 27.5827 23.4859 27.4977C23.3491 27.2401 21.6561 26.9538 21.0903 27.2735C20.5244 27.5932 20.1471 27.4119 19.9773 27.1113C19.8076 26.8107 20.1943 26.0711 20.4489 25.8421C20.837 25.2462 21.1822 24.6227 21.4817 23.9765L21.5948 23.7523C21.5948 23.733 21.6055 23.7159 21.6139 23.7024C21.618 23.6958 21.6216 23.6901 21.6231 23.6855C21.6261 23.6766 21.5965 23.7261 21.5558 23.7944C21.5306 23.8367 21.5011 23.8862 21.4722 23.9336C21.4722 23.9577 21.4533 23.9819 21.4335 24.0073L21.4335 24.0073L21.4334 24.0073L21.4334 24.0073C21.4219 24.022 21.4101 24.0371 21.4015 24.0529C21.2009 24.4123 20.9087 24.7108 20.5554 24.9172C20.2021 25.1236 19.8006 25.2305 19.3926 25.2266C19.4397 25.4365 20.0905 25.3984 20.4206 25.2266C20.6056 25.1224 20.7728 24.9886 20.9158 24.8306L20.9088 24.8416C20.7133 25.1477 20.5276 25.4385 20.4018 25.5988C20.1089 25.9135 19.8742 26.2787 19.7085 26.6771ZM28.2864 23.2178C28.3902 23.2178 28.3902 23.2703 28.3902 23.3371C28.39 23.3778 28.3803 23.4179 28.3618 23.454C28.3434 23.4902 28.3167 23.5214 28.2841 23.5452C28.2514 23.5689 28.2136 23.5845 28.1739 23.5906C28.1341 23.5968 28.0935 23.5933 28.0553 23.5805C27.7724 23.4946 27.2112 23.3371 26.4708 23.1749C26.4885 23.343 26.4467 23.5121 26.353 23.652C26.3041 23.7123 26.243 23.7611 26.1738 23.7952C26.0402 23.8474 25.8923 23.8474 25.7588 23.7952C25.6733 23.7666 25.5968 23.7155 25.5371 23.6473C25.0655 23.7427 24.4902 23.2846 24.1224 22.9172C24.0873 22.8823 24.0635 22.8374 24.054 22.7885C24.0445 22.7396 24.0497 22.689 24.0691 22.6432C24.0884 22.5974 24.1209 22.5585 24.1624 22.5316C24.2039 22.5048 24.2524 22.4912 24.3016 22.4926C25.0684 22.4915 25.8322 22.5893 26.5746 22.7837C27.1232 23.0059 27.6991 23.152 28.2864 23.2178ZM26.3435 23.3753C26.3672 23.3297 26.3862 23.2817 26.4001 23.2322L26.4143 23.2369C26.4202 23.211 26.4162 23.1838 26.4031 23.1608C26.3899 23.1378 26.3687 23.1207 26.3435 23.1129L26.169 23.0795C26.1716 23.0969 26.1716 23.1146 26.169 23.132C26.169 23.2256 26.1323 23.3154 26.0668 23.3816C26.0014 23.4478 25.9126 23.485 25.8201 23.485C25.7595 23.4845 25.7001 23.4685 25.6473 23.4385C25.5945 23.4084 25.5501 23.3654 25.5183 23.3133C25.5418 23.361 25.5418 23.4134 25.5418 23.4611V23.4612C25.5483 23.5068 25.5671 23.5497 25.5962 23.5851C25.6254 23.6205 25.6637 23.647 25.7069 23.6616H25.7918C25.9036 23.6786 26.0179 23.6637 26.1219 23.6186C26.1707 23.5923 26.2153 23.5585 26.2539 23.5184C26.2908 23.4756 26.321 23.4274 26.3435 23.3753ZM44.8435 25.8707C44.6035 24.1027 44.0877 22.3843 43.3156 20.7797C42.5482 19.1879 41.517 17.7323 40.2928 16.4664C40.0998 16.3041 39.8082 16.5581 39.9532 16.7766C42.6547 20.0194 44.2428 24.2442 44 28.4669C43.8088 31.7931 42.4467 35.069 40.3682 37.6798C40.1744 37.9304 39.9696 38.1672 39.7622 38.407L39.7622 38.407C39.6971 38.4822 39.6318 38.5577 39.5666 38.634L39.1421 39.0825L39.0148 39.2018L37.0012 37.9422C36.9874 37.9331 36.9757 37.9211 36.9668 37.9072C36.9578 37.8932 36.9519 37.8775 36.9493 37.8611C36.9069 37.5891 36.7182 36.2627 36.4777 34.1013C36.2663 32.2009 35.2054 29.585 34.8144 28.6209C34.7607 28.4884 34.7197 28.3872 34.6952 28.3232L34.8036 28.2087C34.9775 28.3471 35.196 28.4151 35.4167 28.3995C35.6953 28.3982 35.9684 28.2725 36.1523 28.0608C37.1662 28.1705 37.6142 27.6838 38.2792 26.9347C38.9267 26.2052 38.6753 25.7744 38.6007 25.6466L38.5951 25.6369C38.5836 25.6302 38.5689 25.6302 38.5574 25.6369L37.6897 26.095C37.4903 26.5687 37.1947 26.9946 36.822 27.3451C36.2891 27.7793 35.7657 27.4882 35.3743 27.2258C35.1573 27.0779 35.0771 26.3908 35.0394 25.7944V25.7943C35.0394 25.5788 35.0394 25.3707 35.023 25.21C35.0569 25.3101 35.1123 25.4568 35.2045 25.6656C35.5346 26.4147 36.7512 26.5721 36.7654 26.5721C36.5 26.6949 36.2054 26.7379 35.9166 26.6962C35.5487 26.6055 35.0819 25.8373 35.0536 25.7896C35.1632 26.2502 35.3515 26.6877 35.61 27.0826C35.704 27.2493 35.8728 27.3681 36.0599 27.3992C36.247 27.4303 36.4445 27.3724 36.5862 27.2449C36.822 27.0397 37.7463 25.9375 37.0578 26.0521C36.3693 26.1666 36.4164 26.0139 36.4164 26.0139C36.6654 25.9473 36.9193 25.901 37.1757 25.8755C37.3317 25.8574 37.4783 25.7907 37.5954 25.6847C37.6694 25.6059 37.7271 25.5131 37.7652 25.4115C37.8032 25.3099 37.8209 25.2016 37.817 25.093C37.6703 25.2998 37.4595 25.4509 37.2181 25.5224C37.0578 25.5732 36.8909 25.5989 36.723 25.5988C35.9213 25.5988 35.4261 24.573 35.4261 24.573C35.3582 24.7576 35.3582 24.9608 35.4261 25.1455C35.4762 25.3409 35.706 25.6145 35.8733 25.8137C36.0369 26.0084 36.1408 26.1321 35.959 26.0425C35.6337 25.8046 35.3541 25.5088 35.1337 25.1694C35.0474 25.047 35.0255 24.9846 35.0158 24.8354C35.004 24.7966 34.9895 24.8376 34.9583 24.9255C34.8897 25.1185 34.741 25.5375 34.3651 25.8326C34.0274 26.0977 33.7903 26.1136 33.452 26.1364C33.2422 26.1506 32.9936 26.1673 32.658 26.2477L32.4835 26.2954C31.4743 26.5769 30.767 26.9061 30.3142 27.5121C30.0412 27.8775 30.3719 28.2203 30.7746 28.638L30.7746 28.638C31.0397 28.9129 31.3361 29.2202 31.512 29.5876C31.887 30.3705 30.7775 31.2217 29.4135 32.2682L29.4133 32.2683C29.1647 32.459 28.9076 32.6563 28.6496 32.8607C26.9755 34.1872 23.7593 34.6595 22.2644 34.5784C21.2191 34.5217 21.0523 34.437 20.8304 34.3242C20.735 34.2758 20.6295 34.2221 20.4394 34.1633C20.0737 34.0501 20.0397 33.7835 19.9727 33.258C19.9239 32.8755 19.8575 32.3558 19.6331 31.6584C19.3248 30.5665 19.1149 29.4486 19.0058 28.3184V28.1085C18.9029 27.2746 18.8761 26.4329 18.9257 25.594C18.9771 25.1334 18.9304 24.846 18.8918 24.6086C18.8596 24.4107 18.8331 24.2477 18.8738 24.0481C18.8924 23.9744 18.9937 23.9393 19.053 23.9861C19.3035 24.1845 19.6011 24.3128 19.916 24.3582C20.364 24.4489 21.2458 24.425 21.1845 24.1053C21.1845 24.0633 21.0427 24.0893 20.8429 24.1258C20.5663 24.1765 20.1784 24.2474 19.9019 24.1865C19.5317 24.1265 19.2723 23.9092 19.0247 23.6473L19.0813 23.5423C19.2861 23.736 19.531 23.8811 19.7981 23.967C20.397 24.1531 20.9676 24.0815 20.9016 23.8811C20.885 23.8371 20.771 23.8474 20.6156 23.8615C20.4173 23.8794 20.1516 23.9035 19.9349 23.8286C19.8611 23.8027 19.7943 23.7599 19.7395 23.7036C19.6847 23.6474 19.6435 23.5791 19.6189 23.5042C19.534 23.2799 19.5717 23.0843 19.6755 23.1034C19.7068 23.1091 19.7123 23.1691 19.7198 23.2501C19.7372 23.4377 19.765 23.738 20.1471 23.738C20.7931 23.738 20.7837 23.1463 20.713 23.1368C20.7075 23.136 20.5642 23.3085 20.5621 23.3133L20.562 23.3134C20.5508 23.338 20.5485 23.3431 20.5498 23.3468C20.5502 23.3477 20.5507 23.3486 20.5514 23.3497C20.555 23.3551 20.5621 23.3658 20.5621 23.4183C20.5621 23.5732 20.3476 23.6166 20.2219 23.6023C20.0687 23.5849 19.916 23.4651 19.982 23.2942C20 23.276 20.0459 23.2912 20.1039 23.3104C20.1829 23.3366 20.2844 23.3702 20.3687 23.3372C20.452 23.3045 20.4404 23.2068 20.4307 23.1253C20.4233 23.0637 20.4171 23.0114 20.4536 23.0032C20.7003 23.0171 20.9225 23.0988 21.1327 23.2179C21.3042 23.3417 21.4328 23.517 21.5005 23.7189C21.5816 23.5872 21.5816 23.4116 21.5005 23.2799C21.2465 23.0477 20.9545 22.862 20.6375 22.7312C20.8359 22.6768 21.2955 22.8964 21.5977 23.0408C21.7194 23.0989 21.8156 23.1449 21.8589 23.1559C22.0098 23.194 21.7221 22.9459 21.609 22.8648C21.1912 22.6191 20.7088 22.5091 20.2272 22.5499C19.8948 22.5785 19.5774 22.7026 19.3124 22.9077C19.2525 22.9444 19.1854 22.9671 19.1158 22.9743C18.9251 22.9939 18.3899 22.6235 18.5814 22.4879C18.6109 22.467 18.6422 22.4722 18.6834 22.479C18.7081 22.4832 18.7364 22.4879 18.7701 22.4879C19.0204 22.3873 19.1793 22.3061 19.3003 22.2442C19.6213 22.0801 19.6752 22.0525 20.463 22.1634C21.2712 22.2772 21.3855 22.428 21.522 22.6081C21.5687 22.6697 21.618 22.7347 21.6986 22.8028C21.7131 22.8102 21.7289 22.8185 21.7455 22.8273C21.8838 22.9005 22.0842 23.0064 22.1984 22.8744C22.295 22.7563 22.295 22.5726 22.1984 22.4545C21.7609 21.8947 21.0871 21.5406 20.3829 21.5002C19.2656 21.4282 19.1903 21.4921 18.7095 21.9008C18.6809 21.9251 18.6509 21.9506 18.6192 21.9774C18.6091 21.9774 18.6007 22.0078 18.5912 22.0427C18.5783 22.0895 18.5633 22.1443 18.539 22.1443C18.3358 22.1443 18.5802 21.7601 18.6702 21.6187L18.6758 21.61C18.7982 21.4198 18.8677 21.1828 18.9449 20.9199C19.04 20.5956 19.1466 20.232 19.3784 19.8684C19.6953 19.2624 19.9436 18.6222 20.1188 17.9599C20.1338 17.932 20.0819 17.9034 20.0669 17.9312L20.0668 17.9313L20.0667 17.9315C19.8969 18.1845 19.5575 18.69 19.3077 19.0286C19.2311 19.1348 19.1603 19.2384 19.0964 19.3319L19.0964 19.332C18.8732 19.6586 18.7339 19.8625 18.7229 19.6251C18.7302 19.4709 18.7687 19.3198 18.8361 19.1813C18.8633 19.1136 18.8092 19.0277 18.7371 19.0239H18.8974C18.994 18.8141 19.079 18.5991 19.152 18.3798C19.2266 18.1189 19.5057 17.8209 19.8451 17.4583L19.8451 17.4583L19.8452 17.4583C20.0211 17.2703 20.2134 17.0651 20.4017 16.8386C20.8738 16.2711 21.1491 16.2521 21.2306 16.2465C21.2443 16.2455 21.2526 16.245 21.2553 16.2422C21.2576 16.2399 21.2676 16.2312 21.2834 16.2173L21.2835 16.2173C21.3987 16.1168 21.8212 15.7483 21.8212 15.6267C21.8212 15.5598 21.7969 15.5688 21.7616 15.5819C21.7241 15.5958 21.6741 15.6144 21.6278 15.5504C21.5626 15.46 21.7099 15.4329 21.844 15.4083L21.844 15.4083C21.894 15.3991 21.9422 15.3903 21.9768 15.3786C22.077 15.3448 22.0545 15.249 22.0404 15.1887L22.0404 15.1887C22.0366 15.1724 22.0334 15.1587 22.0334 15.1496C22.2663 15.0498 22.5161 14.9964 22.769 14.9921C23.066 14.9595 23.0249 14.891 22.9301 14.7332C22.8864 14.6605 22.8313 14.5688 22.7926 14.453C22.759 14.3611 22.713 14.2744 22.6559 14.1953C22.6224 14.1512 22.5886 14.1144 22.5569 14.0799C22.4857 14.0024 22.4255 13.9369 22.4059 13.8279C22.4073 13.7534 22.4249 13.6801 22.4575 13.6133C22.4901 13.5465 22.5369 13.4878 22.5945 13.4414C22.6221 13.4288 22.5985 13.3763 22.571 13.389L22.2173 13.4844C21.9324 13.5808 21.6682 13.7314 21.4392 13.9281C21.2081 14.1285 21.3402 14.4625 21.4109 14.5913C21.421 14.6127 21.4012 14.6414 21.3779 14.6391C21.217 14.627 21.0555 14.6532 20.9063 14.7154C20.6551 14.8045 20.5889 14.9987 20.5392 15.1447C20.5171 15.2097 20.4982 15.2652 20.4677 15.2975C20.4077 15.3611 20.1678 15.4965 19.8851 15.6559C19.7012 15.7597 19.4993 15.8736 19.3171 15.9846C19.023 16.1637 18.9428 16.5149 18.882 16.781C18.8473 16.933 18.8189 17.0572 18.7606 17.1058C18.4497 17.4111 18.2573 17.8191 18.2183 18.2557C18.2185 18.529 18.3396 18.7971 18.5437 18.9762C18.5684 19.0041 18.5544 19.0162 18.5361 19.032C18.5292 19.038 18.5217 19.0445 18.5154 19.0525C18.4683 19.1098 18.3834 19.2004 18.2796 19.3102C18.1299 19.4617 18.1231 19.6655 18.1163 19.8711C18.1094 20.0802 18.1024 20.2911 17.9448 20.4505C17.8777 20.5184 17.853 20.7364 17.8258 20.9762C17.8033 21.1745 17.7791 21.3877 17.7279 21.5431C17.5925 21.8505 17.4095 22.1341 17.1856 22.3829C17.1167 22.5501 17.084 22.7303 17.0897 22.9114C17.0954 23.0924 17.1394 23.2702 17.2186 23.4326C17.3018 23.7513 17.4355 24.0543 17.6147 24.3296C17.6827 24.4045 17.7168 24.5018 17.7447 24.5812C17.7824 24.6891 17.8088 24.7642 17.8929 24.7065C17.9278 24.6866 17.9559 24.6679 17.9788 24.6527C18.0733 24.59 18.0796 24.5857 18.1004 24.7972C18.0731 25.2674 18.2359 25.3015 18.3666 25.3289C18.4613 25.3487 18.5392 25.365 18.5154 25.5415C18.5569 26.5184 18.6561 27.4919 18.8125 28.4568C18.9505 29.884 19.2529 31.2524 19.5611 32.6472C19.593 32.7912 19.6248 32.9355 19.6566 33.0802C19.7601 33.5514 19.4772 33.875 18.5772 34.9044C18.493 35.0009 18.4032 35.1035 18.3079 35.213C17.5416 36.2483 16.8316 37.325 16.1811 38.4384C15.7937 37.9956 15.4165 37.5437 15.0682 37.0691C13.0594 34.2552 11.9864 31.0954 12 27.9606C12.0242 22.3778 15.1314 16.8745 19.949 13.5464L20.4913 13.2124C20.7299 13.0846 20.5348 12.6699 20.2791 12.8069C17.09 14.3412 14.4634 16.8585 12.7763 19.9972C10.8034 24.0303 10.4594 28.682 11.8171 32.9673C13.1748 37.2525 16.1277 40.8349 20.0504 42.9558C23.9731 45.0767 28.5576 45.5695 32.8332 44.3301C38.913 42.5675 43.6151 37.4396 44.7397 31.2242C45.0475 29.4559 45.0826 27.6499 44.8435 25.8707ZM34.3887 28.2278C34.3768 28.2385 34.3645 28.2499 34.3516 28.2619C34.3187 28.2927 34.2819 28.3271 34.2378 28.3614C33.9459 28.6341 33.5906 28.8278 33.205 28.9244C33.1868 28.9314 33.1666 28.9314 33.1484 28.9244C33.1484 28.9244 32.4269 28.4139 32.3326 28.6095C32.2996 28.6715 32.5731 28.9244 32.5731 28.9244L33.1013 29.5113C33.1274 29.5836 33.1448 29.6589 33.1531 29.7355C33.1531 30.3033 32.5354 31.52 32.0544 32.1212C31.2479 33.02 30.2898 33.7664 29.2249 34.3255C28.3572 34.774 27.862 35.0078 27.7347 35.0651C28.7518 34.7299 29.7355 34.2986 30.6726 33.7768C31.4583 33.2406 32.117 32.535 32.6014 31.7108C32.7381 31.4675 32.8419 31.2671 32.9221 31.1096C32.9773 31.0086 33.136 31.0573 33.1343 31.1669C33.1207 31.4979 33.0405 31.8226 32.8985 32.1212C32.4175 32.839 31.8139 33.4643 31.1159 33.9677C30.3348 34.4657 29.5289 34.9228 28.7015 35.3371C27.8951 35.7569 27.6829 35.8523 27.6829 35.8523C27.6829 35.8523 28.626 35.7903 31.2008 34.2874C31.7667 33.9581 32.6155 32.9323 33.1343 32.3025C33.1228 32.3315 33.1121 32.3613 33.1012 32.3916C33.0853 32.4359 33.069 32.4813 33.0494 32.5267C32.408 34.0822 28.9608 36.6778 27.8243 37.4985C26.9943 38.0256 26.1105 38.4608 25.1882 38.7963C25.116 38.8298 25.116 38.9536 25.1882 38.9871C25.5183 39.1827 26.0087 39.6742 24.9619 40.5998C24.0559 41.3995 23.5243 41.2867 23.092 41.1949C22.9775 41.1706 22.87 41.1477 22.7643 41.1438C22.5973 41.1387 22.4366 41.251 22.3823 41.4109C22.2489 41.7224 22.1325 42.0409 22.0334 42.3652C22.0334 42.4001 22.0207 42.4555 22.0047 42.5257L22.0047 42.5257C21.9988 42.5514 21.9925 42.5791 21.9862 42.6086L21.4816 42.3938C21.7244 42.0285 21.9434 41.6476 22.1371 41.2535C22.1903 41.164 22.2196 41.0621 22.222 40.9577C22.188 40.8683 22.0943 40.8373 22.006 40.808C21.9104 40.7764 21.8212 40.7468 21.8212 40.6475C21.8212 40.5189 22.0911 40.5832 22.4779 40.6753C22.665 40.7198 22.8794 40.7709 23.1038 40.8098C23.5094 40.8766 23.5188 40.6475 23.4292 40.3947C23.3655 40.2394 23.2898 40.0894 23.2029 39.9461C23.1291 39.8167 22.8344 39.8392 22.5821 39.8585C22.351 39.8762 22.1556 39.8911 22.1984 39.7839C22.288 39.5597 22.0569 39.6169 21.8212 39.9032C21.6491 40.1121 21.5022 40.0924 21.3089 40.0664C21.2373 40.0568 21.1593 40.0464 21.0714 40.0464C20.9482 40.0464 20.823 40.086 20.6927 40.1273C20.4788 40.195 20.2511 40.2671 19.9962 40.1752C19.5859 40.0272 20.2885 39.741 20.2885 39.741C20.1275 39.6667 19.9463 39.6499 19.7745 39.6933C19.5592 39.7772 19.4059 39.9944 19.3973 40.2277C19.3973 40.5807 19.5953 40.7048 20.0811 40.9195C20.5668 41.1342 20.812 41.0435 21.0666 40.7477C21.3213 40.4519 21.1468 41.3775 21.1185 41.4968C21.0594 41.6568 20.9749 41.8063 20.8908 41.955L20.8907 41.9551C20.8674 41.9964 20.8441 42.0376 20.8214 42.0789L20.5809 41.9549C20.6566 41.8836 20.7295 41.8081 20.779 41.7163C20.8631 41.5177 20.3449 41.5722 19.9822 41.6103L19.9726 41.6113C19.5906 41.3823 19.2133 41.1342 18.8455 40.8813C18.8737 40.6985 18.9162 40.5182 18.9728 40.3422C19.053 40.0082 19.4727 38.9442 20.4111 39.3879C20.4619 39.4097 20.5272 39.3823 20.5479 39.3307C20.7413 38.9156 21.6986 39.0253 22.0239 39.1016C22.0785 39.1116 22.1419 39.1708 22.2044 39.2291C22.2498 39.2714 22.2946 39.3133 22.3352 39.3354C22.3589 39.3483 22.4599 39.3335 22.5945 39.3137C22.8086 39.2822 23.1076 39.2383 23.3161 39.2734C23.4566 39.2971 23.5002 39.4115 23.5321 39.4952C23.5773 39.6137 23.599 39.6707 23.8395 39.3211L23.9008 39.2257C23.9866 39.0954 24.1267 39.0529 24.2861 39.0047C24.3369 38.9893 24.3896 38.9733 24.4431 38.9537C24.5083 38.9298 24.5662 38.9159 24.6142 38.9043C24.7293 38.8766 24.7876 38.8625 24.7544 38.7581C24.7072 38.6102 22.8681 38.5147 22.8681 38.5147H22.7455C22.7102 38.4599 22.6361 38.5138 22.5606 38.5686C22.5047 38.6092 22.448 38.6504 22.4059 38.6484C22.3069 38.6436 22.1041 38.3955 22.2456 38.2476C22.3461 38.1425 22.9084 38.1674 23.1241 38.177H23.1242C23.212 38.1809 23.2423 38.1823 23.1604 38.1712C22.9731 38.1459 22.4134 37.7105 22.0266 37.4095L22.0265 37.4095C21.8293 37.2561 21.677 37.1376 21.642 37.1263C21.5382 37.0929 21.6938 36.8162 21.7929 36.9736C22.681 37.59 24.0406 38.3374 25.1794 38.1347C25.4428 38.0878 25.6934 37.9848 25.9144 37.8325C25.9193 37.8282 25.9323 37.8179 25.951 37.8032C26.0778 37.7031 26.4657 37.3969 26.3341 37.3553C26.1144 37.2689 25.8593 37.2886 25.6551 37.4078C25.3203 37.5748 24.1036 37.9326 23.2736 37.3839C23.0991 37.2694 23.8301 36.9354 23.9574 36.9354C24.0589 36.9354 24.4515 36.8626 24.6757 36.821L24.6757 36.821C24.7326 36.8104 24.7786 36.8019 24.8062 36.7971H24.8581L25.2872 36.5251C25.7259 36.3067 26.178 36.117 26.6407 35.9573C27.1724 35.7695 27.6895 35.5414 28.1874 35.275C27.7684 35.3494 27.3609 35.4794 26.9755 35.6615C26.2765 35.8876 25.5581 36.0473 24.8298 36.1386C24.3582 36.1911 22.9058 36.1911 22.9058 36.0384C22.9058 35.8666 23.3366 35.8894 23.9 35.9192H23.9001C24.2909 35.9398 24.7456 35.9639 25.1646 35.9287C25.9991 35.8641 26.803 35.5831 27.4989 35.1128L27.5367 35.0794C27.6127 35.0131 27.6725 34.9298 27.7111 34.836C27.822 34.5329 28.03 34.3723 28.6556 33.8891L28.6557 33.889C29.0147 33.6118 29.5112 33.2283 30.2058 32.6508C31.1817 31.8422 31.984 30.8404 32.5637 29.7069C32.6672 29.4939 32.6347 29.2251 32.4835 29.0437C32.4 28.9355 32.2841 28.8496 32.1686 28.764C32.0853 28.7024 32.0023 28.6409 31.9317 28.5713C31.6582 28.285 32.7287 27.5837 33.6247 27.5837C33.9177 27.5818 34.2013 27.6888 34.4217 27.8843C34.3792 27.8843 34.3934 27.951 34.4217 27.9606C34.4313 27.9704 34.4578 27.9685 34.4856 27.9666C34.5663 27.961 34.6586 27.9547 34.3887 28.2278ZM32.0348 22.245C32.2279 22.4752 32.9662 22.9045 34.3743 22.7797C34.4486 23.0693 34.45 23.7511 33.8618 24.1611C34.0401 24.1536 34.4411 24.0898 34.6194 23.8937C34.5897 24.5473 34.1069 25.9078 32.4136 26.1217C30.7203 26.3356 30.3415 25.1414 30.3638 24.5176C30.4826 24.7775 30.8406 25.3196 31.3219 25.4088C31.0545 25.0746 30.5643 24.3037 30.7426 23.8937C30.9357 24.2353 31.4065 24.9364 31.7452 25.0077C31.5966 24.7626 31.2862 24.1967 31.2327 23.8937C31.4555 24.4804 32.2487 25.4578 33.639 24.6735C33.1117 24.8369 32.0259 24.9097 31.9011 23.8937C32.3245 24.0125 33.2068 24.1432 33.3494 23.7155C32.7849 23.6783 31.7318 23.3323 32.0348 22.245Z" fill="#791215" />
</svg>