<?xml version='1.0' encoding='utf-8'?>
<!-- by TradeStack -->
<svg width="56" height="56" viewBox="0 0 56 56" xmlns="http://www.w3.org/2000/svg"><path fill="#181B1E" d="M0 0h56v56H0z" /><path d="M22 21h5c-.62.32-1.02.79-1 .98V23h-4v-2ZM34 21h-5c.62.32 1.02.79 1 .98V23h4v-2ZM15 12h3v2h-3zM41 12h-2.83v1.83H41zM19 12h3v2h-3zM22 18h2v2h-2zM29 18h2v2h-2zM25 18h2v2h-2zM32 18h2v2h-2zM37.01 12h-2.83v1.83h2.83z" fill="#fff" /><path d="M21 15h-6v2.63c.91.27 1 1.09 1 2.06v16.25c0 .97-.09 1.79-1 2.06v6h6v-6h-1v-8c0-.92.5-2 1.5-2h13.2c.8 0 1.3 1.08 1.3 2v8h-1v6h6v-6c-.91-.27-1-1.09-1-2.06l-.03-16.25c0-.97.12-1.8 1.03-2.06V15h-6v2.67c.84.3 1 1.1 1 2.02V24H20v-4.31c0-.93.16-1.71 1-2.02V15Z" fill="#fff" /><path d="M26 44h-4v-6h1v-7.77c-.04-.28-.45-.9-1-1.23h4v3h4v-3h4c-.55.33-.96.95-1 1.23V38h1v6h-4v-8.13C30 34.5 28.8 34 28 34s-2 .51-2 1.87V44Z" fill="#fff" /></svg>