<!-- by TradeStack --><svg width="56" height="56" viewBox="0 0 56 56" fill="none" xmlns="http://www.w3.org/2000/svg">
<rect width="56" height="56" fill="#F0F3FA"/>
<path d="M18 29H24V24H26V36H24V31H18V36H16V24H18V29ZM33 36V30.629L27.9394 24H30.1335L34 29L35.3333 27L38 26.4398L35 30.629V36H33ZM18.2359 12C15.4739 12 13.2077 14.1951 13.0661 16.9756L12.0038 34.3171C11.933 36.0732 12.8536 37.6098 14.4117 38.1951L30.1335 44.6341C30.7 44.9268 31.3374 45 31.904 45C33.6036 45 35.0908 44.122 36.0115 42.6585L45.3596 26.7805C46.6343 24.7317 45.9261 21.9512 43.9432 20.7073C43.6599 20.561 43.3766 20.3415 43.0934 20.2683L19.9355 12.3659C19.369 12.2195 18.8024 12 18.2359 12Z" fill="#3A3A3C"/>
<path d="M40.9262 22H40.8524L36.0554 25.8065C35.9815 25.871 35.9815 25.9355 36.0554 25.9355L36.1292 26L38.3432 25.4839L38.417 25.4194L41 22.129C41 22.129 40.9262 22.0645 40.9262 22C40.8524 22 40.8524 22 40.9262 22Z" fill="#AAD268"/>
</svg>
