<?xml version='1.0' encoding='utf-8'?>
<!-- by TradeStack -->
<svg width="56" height="56" viewBox="0 0 56 56" xmlns="http://www.w3.org/2000/svg"><path fill="#F0F3FA" d="M0 0h56v56H0z" /><path d="m51.47 25.08.04-.04c.23-.17.57.04.47.31l-.01.04a4.27 4.27 0 0 1-2.24 2.1c-.23.1-.46.18-.7.25-.6.09-.67-.36-.62-.98l.06-.4.05-.26-.2.2-.34.32c-.13.1-.26.27-.4.45-.17.23-.36.47-.55.57-.66.35-.89-.14-1.13-.98l-.17.18c-.13.15-.26.3-.42.38l-.13.08a3.8 3.8 0 0 1-1.13.51c-.58.11-.8-.21-.64-.79l.03-.12a.8.8 0 0 0 .02-.07c-.22.09-.44.25-.66.42-.27.2-.55.42-.86.5-.53.12-.97-.32-1.33-.78a.35.35 0 0 0-.5-.05l-.02.02a3.58 3.58 0 0 1-2.86.98c-.47-.05-.75-.34-.93-.75a4.79 4.79 0 0 1-.18-.56l-.04.03-.22.15a2.2 2.2 0 0 0-.42.4c-.17.18-.34.36-.52.44-.87.39-1.24 0-1.81-.73l-.37.23c-.3.18-.63.38-.87.5-.61.3-1.04.16-1.3-.18-.35-.45-.13-.85.09-1.24l.09-.16c.12-.21.26-.42.4-.61-.28-.2-.48-.11-.68.13l-.19.26c-.27.35-.53.7-.84 1.02-.7.72-.9.8-2.52.94a1.6 1.6 0 0 1-1.57-.84l-.01-.01-1.51.9a.18.18 0 0 0 .03.33l.3.1c.47.17.96.35 1.4.59.68.36 1.26.87 1.85 1.4-1.3-.02-2.49.07-3.57.74-.68-1.62-2.22-1.78-3.5-1.66-1.62.14-3.2.53-4.7 1.16-.86.36-1.75.6-2.69.42a2.85 2.85 0 0 1-.63-.21c-.47-.24-.58-.5-.35-1l.64-1.41.28-.6-.63-.02-2-.03c-.08 0-.18.1-.27.2l-.05.04-.62.68c-.4.43-.78.86-1.2 1.26-.76.74-1.64.96-2.73 1.09a2 2 0 0 1-.22.01c-.62.01-1.1-.05-1.16-.54-.07-.51.39-1.02 1.04-1.13.26-.04.53-.05.8-.02.86.1 1.57-.38 1.82-1.25a5.22 5.22 0 0 1-.67-.23c-.42-.21-.55-.62-.26-.98.26-.32.58-.57.93-.76a5.54 5.54 0 0 1 2.78-.55 1.14 1.14 0 0 0 .83-.3 26.75 26.75 0 0 1 5.56-3.87c.21-.1.44-.19.67-.25.58-.16.88.09.72.67-.18.66-.43 1.3-.74 1.92-.22.41-.49.8-.76 1.18l-.38.54a7.4 7.4 0 0 1-.27.37l-.13.17c.6.29 1.2.13 1.64-.3l.19-.2c.39-.93 1.12-1.77 1.6-1.7l.07.01c.17.02.43.05.43.28 0 .24-.25.55-.4.75a5.67 5.67 0 0 1-.3.37c-.13.15-.26.3-.36.47l-.1.14c-.1.15-.23.32-.23.53 0 .02.04.11.08.11.05 0 .2-.17.22-.2.55-.65 2.53-2.92 3.26-2.92.3 0 .46.26.46.59 0 .39-.4 1.01-.7 1.52-.14.22-.27.42-.34.56l.02.03 2.48-2.23c.11-.1.39-.36.52-.36.07 0 .15.18.2.28l.04.08.02.05c.08.13.18.3.18.46 0 .22-.23.5-.35.65-.83 1.05-.93 1.28-.95 1.56a.71.71 0 0 0 .63.14c.1-.02.19-.06.28-.1l.24-.18c.09-.07.17-.16.24-.25.34-.2.65-.45.9-.75a5.7 5.7 0 0 1 2.17-1.7l.09-.04c.18-.08.37-.17.54-.15.3.04.65.12.81.32.13.15.1.54-.01.77-.42.95-1.22 1.38-2.22 1.38-.43 0-.55.21-.56.56-.01.38.28.44.57.46.91.07 2.06-.62 2.48-1.48a.49.49 0 0 0 .02-.28c-.1-.68.66-1.71 1.36-1.77.41-.04.49.28.57.63l.01.06.35-.16c.26-.11.5-.22.75-.28l.23-.09c.2-.08.45-.19.54-.1.2.2-.15.73-.32.88-.51.43-.9.98-1.12 1.61-.16.46-.07.56.41.5.67-.1.97-.59 1.28-1.1l.03-.04c.27-.48.59-.92.93-1.35.28-.32.86-.67 1.28-.46.33.14.3.67.1.95-.2.27-.45.5-.7.73l-.15.13-.17.14c-.22.17-.45.34-.3.65.13.32.4.25.67.19.08-.02.15-.04.22-.04.31-.04.5-.22.67-.5a4.5 4.5 0 0 1 3.52-2.38H40c.38-.04.83-.08 1 .35.17.44-.17.79-.5 1.03-.27.2-.58.34-.89.48l-.14.07c-.27.12-.54.16-.68-.22-.02-.07-.2-.14-.3-.12-.54.15-.98.86-.88 1.43.06.39.3.6.7.59.64-.02 1.18-.3 1.65-.72l.36-.32c.62-.55 1.24-1.1 1.9-1.58.84-.62 2-1.16 3.02-1.04.23.04.45.1.67.18.55.25.27 1-.17 1.42-.22.2-.45.38-.69.56l-.16.13c-.22.16-.3.4-.13.57.1.11.38.16.53.1.52-.2.9-.56 1.23-1.04.4-.56.86-1.1 1.37-1.58.24-.24.64-.44.93-.12.3.31.02.67-.2.93-.14.16-.3.3-.45.43l-.32.29c-.05.05-.07.12-.08.2l-.03.1.1-.02c.08-.01.16-.02.22-.07l.44-.37c.2-.17.39-.34.6-.49.43-.32.9-.62 1.36-.9.26-.17.58-.32.84 0 .25.32.07.6-.16.86l-.05.06c-.25.29-.5.57-.74.87a.62.62 0 0 0-.1.27l-.02.13c.05 0 .1.02.16.04.13.03.25.07.32.02.15-.13.28-.28.42-.42.1-.12.21-.24.33-.35Zm-29.05 2.7a.9.9 0 0 1-.05-.3c0-.55.42-1.32.7-1.85l.12-.2-.02-.03-1.77 1.85-.11.13c-.25.29-.6.68-.93.68-.26 0-.47-.23-.49-.54 0-.37.26-.95.99-2.22.03-.05.05-.1.06-.16a.08.08 0 0 0-.04-.08l-.04-.01c-.1 0-.3.23-.4.35 0 .02-.02.03-.03.04-.58.7-1.2 1.47-1.73 2.2-.12.17-.28.36-.48.36-.26 0-.43-.23-.53-.52a5.31 5.31 0 0 1-.31-.67l-.4-.02c-.32 0-.61-.02-.91 0-.14 0-.33.07-.39.16-.36.6-.71 1.21-1.01 1.84-.17.37 0 .6.42.62.25.02.5 0 .75-.05l2.08-.51 2.58-.63a13.98 13.98 0 0 1 1.95-.3l-.01-.14Zm5.75-3.47c-.36.15-.68.4-.92.72a.2.2 0 0 0 .2.33 1.54 1.54 0 0 0 1.03-.67.25.25 0 0 0-.18-.39l-.13.01Zm-15.3 1.24 1.31.03c.07 0 .14-.03.19-.08a7.1 7.1 0 0 0 1.5-2.3c-1.3.53-2.38 1.32-3.42 2.34l.42.01Zm29.6.88a4.44 4.44 0 0 0 1.49-1.35.33.33 0 0 0-.38-.5c-.6.25-1.23.7-1.53 1.08a.73.73 0 0 0-.07.6c.03.11.36.22.49.16Zm-5.67-5.4c-.4-.04-.83.32-.88.74-.03.35.13.55.46.6.38.05.84-.36.87-.77.02-.31-.12-.52-.45-.56ZM30 29l.05.07.14.21.26.4.43.62a135.51 135.51 0 0 0 .74 1.03l.22.3a18.38 18.38 0 0 1 .64.98c.1.17.18.34.26.51.12.26.2.53.24.8.03.2.03.4 0 .6l-.02.09-.02.14c-.09.44-.29.84-.58 1.19a3.1 3.1 0 0 1-1.42.91 3.24 3.24 0 0 1-2.6-.3 2.94 2.94 0 0 1-1.04-1.08c-.21-.4-.32-.85-.3-1.3a3.42 3.42 0 0 1 .62-1.87c.26-.4.55-.76.84-1.13.27-.33.53-.67.78-1.01A10.13 10.13 0 0 0 30 29Zm.26 4.8.01.07.01.17v.08l.03.3c0 .05.03.06.08.06h.04c.28-.06.55-.17.79-.33.17-.1.3-.27.37-.46a1 1 0 0 0 .02-.59c-.03-.15-.1-.3-.2-.43a.32.32 0 0 0-.14-.1.33.33 0 0 0-.17-.02c-.06 0-.11.02-.17.04l-.06.02h-.03v-.08c0-.21-.04-.42-.12-.61-.08-.2-.2-.4-.33-.58l-.4-.56-.09-.11a.78.78 0 0 0-.04-.05l-.03-.04a.41.41 0 0 0-.04.06l-.04.08-.04.06-.06.12c-.16.3-.31.59-.44.9-.1.2-.16.42-.2.64a2.6 2.6 0 0 0 0 .68c.02.17.07.33.15.48a.6.6 0 0 0 .68.33c.1-.02.2-.06.3-.1l.03-.01a.15.15 0 0 1 .09-.03Zm-1.81-.48-.03.1-.04.21c-.08.46-.06.93.08 1.38.1.34.27.65.51.91a1.55 1.55 0 0 0 1.62.37.78.78 0 0 0 .4-.3c.1-.14.14-.3.13-.47a.61.61 0 0 0-.27-.47c-.11-.08-.23-.13-.35-.17-.4-.12-.79-.3-1.13-.55a2.88 2.88 0 0 1-.59-.58c-.09-.12-.17-.25-.24-.37l-.02-.02a.06.06 0 0 0-.03-.04h-.04Z" fill="#0B006A" /></svg>