<!-- by TradeStack --><svg width="56" height="56" viewBox="0 0 56 56" xmlns="http://www.w3.org/2000/svg"><path fill="#F0F3FA" d="M0 0h56v56H0z"/><path fill-rule="evenodd" d="M6 23h3v3.5h4V23h3v9h-3v-3.5H9V32H6v-9Zm11 3h3v6h-3v-6Zm.81-3a.81.81 0 0 0-.81.8V25h3v-2h-2.19ZM21 27.23V32h3v-4.92c0-.41.3-.74.75-.74H27V25h-3.54C22.1 25 21 26 21 27.23Zm14 0V32h-3v-4.92a.76.76 0 0 0-.76-.74H28V25h4.87c1.25 0 2.13 1 2.13 2.23ZM28.12 32H32v-1.02h-2.33a1 1 0 0 1-1.03-.97 1 1 0 0 1 1.03-.98H32V28h-3.88c-1.17 0-2.12.9-2.12 2s.95 2 2.12 2ZM51 32v-4.77A2.27 2.27 0 0 0 48.7 25H43v1.34h4.15c.42 0 .85.33.85.74V28h-3.74c-1.25 0-2.26.9-2.26 2s1.01 2 2.26 2H51Zm-3-1v-2h-2.08c-.6 0-1.1.47-1.1 1 0 .54.5 1 1.1 1H48Zm-12-1.33V23h3v2h2v1.5h-2v3.32c0 .43.38.78.84.78H42V32h-3.48c-1.4 0-2.52-1.05-2.52-2.33Z" fill="#275BC1"/></svg>