<!-- by TradeStack --><svg xmlns="http://www.w3.org/2000/svg" width="56" height="56" viewBox="0 0 56 56"><path fill="#0056B9" d="M0 0h56v56H0z"/><path d="M18.74 36H5l6.51-16H25l-6.26 16Zm9.67 0h-8.03l6.57-16h7.78l-6.32 16ZM41 36a8 8 0 1 0 0-16 8 8 0 0 0 0 16Z" fill="#fff"/><path d="M20.94 23h-2.22l-1.64 4h-3.43l1.68-4H13.1L9 33h2.13l1.68-4h3.44l-1.64 4h2.13l4.2-10Zm10.04 0h-2.21l-4.12 10h2.13l4.2-10Zm11.34 2.72h1.98c-.08-.9-.86-2.72-3.38-2.72a3.1 3.1 0 0 0-3.31 2.87c-.07.54.17 1.78 1.62 2.4.56.2 1.8.66 2.15.74.46.1 1.27.63 1.27 1.28 0 .64-.69 1.16-1.6 1.16-.9 0-1.53-.55-1.53-1.16H37.5c.08.9.87 2.71 3.43 2.71 3.2 0 3.57-2.2 3.57-2.71 0-.52-.06-2.28-2.59-2.98-2.4-.67-2.39-1.17-2.38-1.53v-.06c0-.36.4-1.14 1.4-1.14.98 0 1.4.8 1.4 1.14Z" fill="#0057B8"/></svg>