<!-- by TradeStack --><svg width="56" height="56" viewBox="0 0 56 56" xmlns="http://www.w3.org/2000/svg"><path fill="#F0F3FA" d="M0 0h56v56H0z"/><path d="M8.5 36H8c3-1.67 11.2-5 20-5s17 3.33 20 5h-.5C44.33 34.83 36 32.5 28 32.5S11.67 34.83 8.5 36Z" fill="#14A74A"/><path d="M38.02 27.18A40.26 40.26 0 0 1 40 22h1a56.8 56.8 0 0 0-1.28 3.22c.23-.13.5-.22.78-.22h.06c.45 0 1.06 0 1.54.24.27.14.51.35.67.66.16.3.23.67.23 1.1 0 .7.12 1.23.3 1.56.18.3.4.44.7.44.18 0 .38-.11.6-.38.2-.25.36-.57.43-.78l.94.32c-.1.3-.3.72-.6 1.1-.29.35-.75.74-1.37.74-.7 0-1.23-.37-1.56-.94A4.2 4.2 0 0 1 42 27c0-.32-.05-.52-.12-.64a.5.5 0 0 0-.23-.23A2.8 2.8 0 0 0 40.5 26a.68.68 0 0 0-.34.12c-.15.1-.31.23-.47.4-.3.33-.57.72-.73.99-.28 1-.46 1.88-.46 2.49h-1c0-.77.22-1.79.52-2.82ZM10.58 25.7c.05-1.52.26-2.85.43-3.71h.96c-.16.8-.34 2.28-.4 3.74-.05 1.48.06 3.15.43 4.26h-.99c-.43-1.29-.5-2.79-.43-4.3ZM16.5 23H13v-1h6v1h-1.5v1H19v1h-1.5v1H19v1h-1.5v1c0 .3-.06.75-.25 1.15-.2.42-.59.85-1.25.85h-1.5c-.3 0-.69-.13-1-.46A2.2 2.2 0 0 1 13 28c0-.7.2-1.2.5-1.54.31-.33.7-.46 1-.46h2v-1H13v-1h3.5v-1Zm0 4h-2a.4.4 0 0 0-.26.14c-.1.11-.24.35-.24.86 0 .5.14.75.24.86a.4.4 0 0 0 .26.14H16c.14 0 .25-.07.35-.28.1-.22.15-.52.15-.72v-1Zm14.85-4H29v-1h6v1h-1.9a4 4 0 0 0-1.29.96c-.46.51-.81 1.19-.81 2.04 0 .87.33 1.64.77 2.19.45.57.95.81 1.23.81h3v1h-3c-.72 0-1.47-.5-2.02-1.19A4.53 4.53 0 0 1 30 26a4.02 4.02 0 0 1 1.35-3Zm-9 .53L27 22v1l-4.34 1.47c-.18.06-.48.22-.73.49a1.48 1.48 0 0 0 0 2.09c.25.26.55.42.73.48l4.34 1.5V30l-4.66-1.53c-.32-.1-.77-.34-1.14-.74a2.47 2.47 0 0 1 0-3.46c.37-.4.82-.64 1.14-.74Z" fill="#1569B3"/><circle cx="37" cy="23" r="1" fill="#E51E25"/><circle cx="39" cy="21" r="1" fill="#E51E25"/></svg>