<?xml version='1.0' encoding='utf-8'?>
<!-- by TradeStack -->
<svg width="56" height="56" viewBox="0 0 56 56" xmlns="http://www.w3.org/2000/svg"><path fill="#F0F3FA" d="M0 0h56v56H0z" /><path d="M39.5 41.12c.32-.19.5-.53.5-.93V27.46a4.48 4.48 0 0 0-1.8-3.73c-.68-.51-2.87-1.64-4.62-.8L29 25.47V10.9c0-.84-.45-1.04-.96-.79L17.9 15.31c-.4.22-.88.73-.89 1.57V35.3c0 2.63.92 3.77 2.2 4.4 1.33.65 3.8.05 3.8-2.03V30.4c0-1.74 2.82-2.63 4.35-1.95 1.6.71 2.65 2.26 2.65 4.99v11.7c0 .72.65 1.03 1.17.77l8.32-4.79Z" fill="#0794DC" /></svg>