<!-- by TradeStack --><svg width="56" height="56" viewBox="0 0 56 56" xmlns="http://www.w3.org/2000/svg"><path fill="#F0F3FA" d="M0 0h56v56H0z"/><path d="m31.73 20.24-2.05.01a5.1 5.1 0 0 1-.3-.76 2.55 2.55 0 0 1 .46-2.43c.07-.09.09-.08.05.03-.15.52-.03 1 .36 1.44.51.55 1 1.12 1.48 1.7Z" fill="#47171D"/><path d="M29.49 20.05c.02.06.02.1 0 .15-.03.06-.07.07-.1.01-.07-.1-.17-.13-.31-.1.03-.23.08-.43.16-.61.03-.06.05-.05.07 0l.18.55Z" fill="#FBD563"/><path d="m29.49 20.05.82 1.58h-1.17a2.76 2.76 0 0 1-.06-1.53c.14-.02.24.02.3.11.04.06.08.05.1 0a.18.18 0 0 0 0-.16Z" fill="#C4611B"/><path d="M31.73 20.24c.27.62.34 1.21.2 1.78l-1.33-.08-.92-1.69 2.05-.01Z" fill="#C03922"/><path d="M29.14 21.64h1.17c.37.59.45 1.23.25 1.94-.04.13-.04.23-.02.28l-.06.07a.19.19 0 0 1-.16-.13l-.02-.04a4.18 4.18 0 0 0-.46-.94c-.28-.37-.5-.77-.7-1.18Z" fill="#47171D"/><path d="m30.6 21.94 1.33.08c-.12.45-.3.82-.54 1.1-.14-.07-.34-.1-.6-.05a2.4 2.4 0 0 0-.2-1.13Z" fill="#F9A144"/><path d="M30.78 23.07c.27-.04.47-.02.61.05-.25.35-.52.63-.81.86-.05.03-.08.02-.1-.05l.06-.07c.13-.25.21-.5.24-.8Z" fill="#FBD563"/><path d="m28.48 24.83-.22 1.02c-.02.06-.06.1-.12.1l-1.78.06a.15.15 0 0 1-.13-.07l-.21-.27-.01-2.6c0-.04.02-.07.07-.07h2.34c.05 0 .07.03.07.08v1.75Z" fill="#120A03"/><path d="m28.48 24.83.02 9.04c0 .08-.04.13-.12.13h-2.25c-.06 0-.1-.03-.11-.09a.5.5 0 0 1-.01-.23c.09 0 .13-.04.13-.16 0-.08.03-.14.1-.17.6-.28.98-.73 1.14-1.33.15-.53.12-1.02-.08-1.48a5.25 5.25 0 0 1-.2-.53c-.06-.2-.18-.39-.34-.54-.03-.03-.04-.06 0-.1a.26.26 0 0 0 .04-.24c-.03-.12-.08-.13-.14-.03l-.17.24c-.16.2-.31.32-.45.38l-.02-4.05.2.27c.04.05.09.07.14.07l1.78-.06c.06 0 .1-.04.12-.1l.22-1.02Z" fill="#3C2009"/><path d="M26.01 33.68v-1.22c.03.01.07 0 .11-.04a.16.16 0 0 0 .07-.12c0-.05.01-.08.04-.12.22-.32.32-.7.3-1.12 0-.05.02-.1.05-.14a.2.2 0 0 0 .03-.15c-.06-.36-.1-.83-.12-1.43l.17-.24c.06-.1.11-.1.14.03.02.1 0 .17-.05.24-.03.04-.02.07.01.1.16.15.28.33.34.54.06.18.12.36.2.53.2.46.23.95.08 1.48-.16.6-.54 1.05-1.13 1.33-.08.03-.11.09-.11.17 0 .12-.04.17-.13.16Z" fill="#5E2E0D"/><path d="M26.5 29.34c.01.6.05 1.07.11 1.43 0 .05 0 .1-.03.15a.21.21 0 0 0-.05.14c.02.42-.08.8-.3 1.12a.2.2 0 0 0-.04.12c0 .05-.02.09-.07.12-.04.04-.08.05-.12.04l.04-2.74c.14-.06.29-.18.45-.38Z" fill="#8C4212"/><path d="M32 30.5a5.6 5.6 0 0 1-.59.18c-.57.14-1.1.38-1.6.73v.04c.01.02.02.02.04.01.42-.26.88-.42 1.37-.48.26-.03.52-.07.78-.13v3.07c0 .05-.03.08-.08.08h-2.28c-.1 0-.14-.05-.14-.14v-8.8c0-.04.02-.06.05-.06h2.37c.05 0 .08.03.08.08v5.42Z" fill="#370D08"/><path d="M32 30.5v.35c-.26.06-.52.1-.78.13-.5.06-.95.22-1.37.48h-.04v-.05c.5-.35 1.03-.59 1.6-.73.2-.05.4-.11.59-.18Z" fill="#F1712A"/><path d="M42.1 26.14c-.1 0-.16.03-.22.09a.12.12 0 0 1-.12.03.52.52 0 0 0-.2-.02l-.22.04c-.09.02-.18.04-.27.04-1.45.03-2.86.04-4.23.04-.15 0-.3.02-.47.05a1.4 1.4 0 0 1-.4.02c-.81-.07-1.5-.18-2.06-.31a4.77 4.77 0 0 1 3.7-2.1 4.91 4.91 0 0 1 4.5 2.12Z" fill="#1D0904"/><path d="M42.1 26.14c.45.65.73 1.36.85 2.13-.16.22-.37.27-.62.18a.14.14 0 0 0-.15.03.18.18 0 0 1-.15.07 798.03 798.03 0 0 0-3.2 0 .17.17 0 0 0-.03.04l-.03.02-.71.06c-.17.01-.38-.04-.62-.16-.22-.12-.46-.23-.72-.35a1.33 1.33 0 0 1-.4-.25c-.3-.28-.53-.43-.69-.45a1.2 1.2 0 0 1-.25-.05 2.17 2.17 0 0 0-.7-.16 5 5 0 0 1-1.33-.09 5 5 0 0 1 .56-1.04c.56.13 1.25.24 2.06.3.15.02.29.02.4 0 .17-.04.32-.06.47-.06 1.37 0 2.77-.01 4.23-.04.1 0 .18-.02.27-.04l.21-.04c.07 0 .14 0 .2.02.05.01.1 0 .13-.03a.31.31 0 0 1 .22-.09Z" fill="#361308"/><path d="M33.35 27.16c.44.09.89.12 1.33.09.14 0 .37.04.7.16.08.03.16.04.25.05.16.02.4.17.7.45h.01c.12.11.24.2.38.25.26.12.5.23.72.35.24.12.45.17.62.16a15.4 15.4 0 0 1 .74-.08l.03-.03.03-.01h3.18c.05 0 .1-.02.14-.07a.14.14 0 0 1 .15-.04c.26.1.46.05.62-.17.07.53.07 1.05-.02 1.57l-1.07.16-1.04.05a.38.38 0 0 0-.15-.01.55.55 0 0 1-.2-.05l-2.22-.25-1.02-.27a5.21 5.21 0 0 0-.24-.1 2 2 0 0 1-.6-.27c-.09-.08-.2-.15-.33-.2a.2.2 0 0 0-.12 0c-.04 0-.06 0-.08-.03a.17.17 0 0 0-.09-.08 10.37 10.37 0 0 1-1.2-.52c-.06 0-.1 0-.15-.02a2.5 2.5 0 0 0-1.34-.13c.06-.33.15-.65.27-.96Z" fill="#541B0C"/><path d="M33.08 28.12c.5-.07.95-.03 1.34.13.04.02.1.03.15.02.07 0 .13.01.18.05l.17.1c.28.14.56.26.85.37.04.01.08.04.1.08.01.03.03.04.07.03a.2.2 0 0 1 .12 0c.13.05.24.12.34.2.1.09.3.18.59.28l.24.09-2.7-.23a.73.73 0 0 1-.16-.03.99.99 0 0 0-.79.1.78.78 0 0 0-.21.21 1 1 0 0 1-.16.18.18.18 0 0 0-.08.15c0 .07 0 .14.03.2h-.05a4.95 4.95 0 0 1-.04-1.94Z" fill="#902613"/><path d="m37.23 29.47 1.02.27-4.63.17.05.08-.5.05a.43.43 0 0 1-.04-.2c0-.05.03-.1.07-.14a1 1 0 0 0 .17-.18c.07-.1.15-.16.21-.2a.99.99 0 0 1 .8-.1l.14.02 2.71.23Z" fill="#E45E23"/><path d="m38.25 29.74 2.22.25a1.9 1.9 0 0 1-.83-.04c-.02-.01-.03 0 0 .01V30c0 .01-.01.02-.03.02-.6-.08-1-.1-1.22-.05-.8.15-1.6.2-2.42.14-.75-.06-1.53-.12-2.35-.2l4.63-.17ZM42.93 29.84l-.04.21c-.59.12-1 .25-1.25.38-.23.12-.43.2-.6.22a.3.3 0 0 0-.15.07l-.48.41a.18.18 0 0 1-.12.05l-4.34-.14-.47-.18.52.08c.17.03.34.03.49.02l.34-.04c.4-.05.7-.07.9-.07.7 0 1.4 0 2.1-.05.09 0 .2-.02.32-.05.1-.03.21-.04.33-.05.05 0 .1-.03.13-.07.04-.05.1-.07.16-.06.06 0 .1 0 .15-.02.34-.16.68-.27 1.03-.33.03 0 .05-.01.07-.03a.09.09 0 0 0 .03-.06c0-.05-.02-.08-.07-.09a.24.24 0 0 1-.12-.04l1.07-.16Z" fill="#F9A144"/><path d="M40.47 30c.04.02.1.03.2.04h-1.54c-.3 0-.58.03-.82.1-.29.1-.56.14-.82.15-.7.02-1.5-.05-2.38-.22-.21-.04-.69-.06-1.44-.08a9.02 9.02 0 0 0-.05-.08c.82.08 1.6.14 2.35.2.82.06 1.62 0 2.42-.14a4.62 4.62 0 0 1 1.25.03v-.04c-.03-.02-.02-.02 0-.01.28.07.56.09.83.04Z" fill="#FDE482"/><path d="M33.68 30c.74 0 1.22.03 1.43.07.88.17 1.67.24 2.39.22.25 0 .52-.05.8-.14.26-.08.53-.12.84-.11a37.56 37.56 0 0 0 1.68 0c.03.03.07.04.11.05.1.01.1.04 0 .07l-.05.01a3.4 3.4 0 0 1-.58.14c-1.39.17-2.6.28-3.62.35-.36.02-.75.02-1.16 0-.13-.01-.34-.05-.63-.12-.2-.05-.42-.08-.65-.09l-1.08-.2a4.65 4.65 0 0 1-.04-.2h.04l.52-.06Z" fill="#FFF4C0"/><path d="M41.86 30c.03.02.07.04.12.04.05 0 .08.04.07.1 0 .02-.01.03-.03.05a.13.13 0 0 1-.07.03c-.35.06-.7.17-1.03.33a.24.24 0 0 1-.15.02.16.16 0 0 0-.16.06.17.17 0 0 1-.13.07c-.12 0-.23.02-.33.05-.13.03-.24.05-.32.05-.7.04-1.4.06-2.1.05a7.17 7.17 0 0 0-1.24.1c-.15.02-.32.02-.5-.01l-.5-.08-1.25-.4c.23 0 .44.03.65.08.29.07.5.1.63.12.41.02.8.02 1.16 0 1.03-.07 2.23-.18 3.62-.35a3.4 3.4 0 0 0 .64-.15c.1-.03.1-.06 0-.07a.35.35 0 0 1-.12-.04l1.04-.05Z" fill="#FBD563"/><path d="m42.89 30.05-.1.36c-.31.06-.55.17-.71.34a2.9 2.9 0 0 1-2.04.99c-.46.02-1.31 0-2.57-.03l-1.51-.67 4.33.14c.05 0 .09-.02.12-.05l.48-.41a.3.3 0 0 1 .15-.07c.17-.03.37-.1.6-.22.25-.13.66-.26 1.25-.38Z" fill="#E45E23"/><path d="m33.16 30.25 1.08.2 1.24.41.47.18 1.52.67.63.33c.54.35.9.55 1.1.6a3.25 3.25 0 0 0 1.35.01.2.2 0 0 0 .03-.03l.04-.02 1.02-.18c-.75.8-1.66 1.3-2.74 1.5-1.1.2-2.16.04-3.16-.46a4.87 4.87 0 0 1-2.58-3.21Z" fill="#541B0C"/><path d="M42.8 30.41c-.08.25-.17.5-.28.72-.72.42-1.3.69-1.73.8a6 6 0 0 1-2.69.11l-.63-.33c1.26.04 2.11.05 2.57.03a2.9 2.9 0 0 0 2.04-.99c.16-.17.4-.28.72-.34Z" fill="#AF4118"/><path d="M42.52 31.13c-.22.48-.52.9-.88 1.3l-1.02.17a.05.05 0 0 0-.04.02.2.2 0 0 1-.03.03l-.02.01c-.6.09-1.04.08-1.34-.01-.19-.06-.55-.26-1.09-.6a6 6 0 0 0 2.7-.11c.42-.12 1-.4 1.72-.8Z" fill="#883412"/><path d="M47.04 28.21c.02.2-.06.36-.23.51-.48.42-1.04.77-1.68 1.05-.95-.9-1.18-2-.7-3.28.32-.84.95-1.32 1.91-1.45.73-.09 1.37-.03 1.93.17.64.23 1.1.72 1.37 1.46.06.16.12.32.19.46.05.13.02.2-.11.24l-1.5.38c-.05.01-.08 0-.09-.06-.1-.59-.4-.9-.88-.94-.61-.05-1.02.02-1.23.22-.13.14-.18.32-.12.53.05.21.16.35.33.4.28.1.55.2.8.31Z" fill="#271106"/><path d="M47.04 28.21c.76.16 1.47.45 2.12.88.47.31.75.75.84 1.32v1.22c-.33 1.59-1.33 2.37-2.99 2.37a4.88 4.88 0 0 1 1.7-1.43.74.74 0 0 0 .35-.31 2.59 2.59 0 0 0 .13-2.02c-.1-.2-.13-.42-.12-.65 0-.06-.02-.1-.09-.1-.06.01-.1.05-.1.13l-.66.73c-.25.14-.4.29-.44.43-.91-.23-1.8-.57-2.65-1.01.64-.28 1.2-.63 1.68-1.05.17-.15.25-.32.23-.5Z" fill="#5E2E0D"/><path d="M47.01 34c-.92.04-1.7-.31-2.35-1.06.11-.12.24-.2.37-.26v.08c-.01.05.01.08.07.07.22-.03.42.02.62.16.32.23.7.17 1.17-.17.2-.14.4-.23.63-.27.8-.15 1.25-.57 1.34-1.26l.03-.18c.05-.32.04-.56-.02-.72a.34.34 0 0 1-.03-.16l.04-.61c0-.08.04-.12.1-.12.07 0 .1.03.1.1-.03.22.02.43.11.64a2.59 2.59 0 0 1-.14 2.02.74.74 0 0 1-.33.31l-.39.21c-.52.33-.96.74-1.32 1.22Z" fill="#8C4212"/><path d="m48.88 29.62-.04.61c0 .06 0 .1.03.16.06.16.07.4.02.72l-.03.18c-.09.7-.53 1.11-1.34 1.26a1.5 1.5 0 0 0-.62.27c-.47.34-.86.4-1.18.17a.82.82 0 0 0-.62-.16c-.06 0-.08-.02-.08-.07l.01-.08.61-.42c.2.17.46.11.77-.18.45.24.9.26 1.36.05a.9.9 0 0 0 .38-.36c.12-.2.15-.37.1-.52a.83.83 0 0 0-.17-.27c.3-.17.35-.38.14-.63l.66-.73Z" fill="#C4611B"/><path d="M48.22 30.35c.21.25.17.46-.14.63l-.3-.2c.04-.14.19-.29.44-.43Z" fill="#FBD563"/><path d="m46.14 31.9-.5.36-.6.42c-.14.06-.27.14-.38.26a3.5 3.5 0 0 1-.66-1.53c0-.06.01-.1.07-.12.5-.16 1-.27 1.5-.32.09 0 .15.03.2.12l.37.8Z" fill="#5E2E0D"/><path d="M46.14 31.9c.06.06.15.13.27.18-.31.3-.57.35-.77.18l.5-.36Z" fill="#FDE482"/><path d="m24.63 27.44-.26.42a.17.17 0 0 1-.1.08c-.28.06-.56.2-.83.4l-.28.24a.6.6 0 0 1-.25.12c-.16.04-.27 0-.33-.12-.02-.03-.04-.04-.08-.03-.03 0-.05.06-.04.16-.04-.7-.3-1.23-.78-1.58-.49-.36-1.07-.43-1.76-.23a.32.32 0 0 0-.1-.02c-.06 0-.1.01-.14.06a.15.15 0 0 1-.16.06c-.04-.01-.08 0-.1.04a.82.82 0 0 1-.48.36.38.38 0 0 0-.08.03.07.07 0 0 0-.05.07c0 .06-.03.09-.1.09h-1.97c-.06 0-.09-.03-.1-.08 0-.14-.02-.27-.07-.39a4.02 4.02 0 0 1 2.76-2c.72-.16 1.5-.16 2.33.01a3.91 3.91 0 0 1 2.97 2.31Z" fill="#271106"/><path d="M19.92 26.9c-.53.2-.86.49-1 .88-.08.24-.15.48-.2.73-.04.14.01.21.17.21h3.57c0-.1 0-.16.04-.17.04-.01.06 0 .08.03.07.12.18.16.33.12a.6.6 0 0 0 .25-.12l.28-.24c.27-.2.55-.34.82-.4a.17.17 0 0 0 .12-.08l.25-.42c.2.49.3.98.34 1.49-.15 0-.3.04-.44.1a.26.26 0 0 1-.17.02c-.05 0-.09 0-.11.05-.07.1-.12.1-.16-.01-.09-.23-.03-.4.17-.55.05-.03.04-.06-.01-.07l-.08-.03a.16.16 0 0 0-.16.03c-.67.58-1.35.9-2.14 1.23a1.87 1.87 0 0 1-.53.12c-.14.03-.25.08-.25.18H18.8c-.06 0-.09.03-.1.09v.38l-2.68-.23a6.49 6.49 0 0 1 .13-2c.08-.38.22-.75.41-1.12.05.12.07.25.08.39 0 .05.03.08.09.08h1.98c.06 0 .1-.03.1-.1 0-.02 0-.04.04-.06a.38.38 0 0 1 .09-.03c.2-.06.35-.18.47-.36.02-.04.06-.05.1-.04.07.01.12 0 .16-.06a.15.15 0 0 1 .14-.07c.04 0 .07.02.1.03Z" fill="#451C0A"/><path d="m24.97 28.93.03.97c0 .06-.03.1-.1.1H21c0-.1.16-.17.3-.2l.12-.01c.18-.03.32-.06.42-.1.78-.34 1.5-.64 2.17-1.22.05-.03.1-.05.16-.03l.08.03c.05.01.06.04.01.07-.2.14-.26.32-.17.55.04.11.1.11.16 0 .02-.03.06-.05.1-.04.07.01.13 0 .18-.02.14-.06.29-.1.44-.1Z" fill="#5E2E0D"/><path d="m16.03 30.24 2.68.23.13.37a18 18 0 0 1-.96.36c-.24.08-.5.12-.78.12h-.8l-.27-1.08Z" fill="#FDE482"/><path d="M18.84 30.84c.05.25.2.5.42.76-.81.43-1.67.6-2.58.49-.16-.21-.3-.47-.39-.76l.81-.01c.28 0 .54-.04.78-.13.33-.1.65-.22.96-.35Z" fill="#F1712A"/><path d="m24.05 31.24-1.58 1.03-.35.23a.91.91 0 0 0-.33.24c-.05.06-.04.09.04.1l.36.04c.05 0 .1.02.15.05l.8.52c-.35.18-.67.3-.97.37-2.1.43-3.74.09-4.92-1.02a.8.8 0 0 0 .4-.07.39.39 0 0 1 .14-.04l.84-.1c.03 0 .05-.02.07-.05.03-.05.07-.08.13-.07.06 0 .12 0 .17-.04.18-.12.37-.2.57-.24.05 0 .1-.03.13-.07.05-.06.06-.11.02-.17 1.22.54 2.08.24 2.58-.92.03-.05.07-.08.14-.07l1.61.28Z" fill="#642A0D"/><path d="M24.05 31.24c.13-.02.25 0 .37.02.03.06.01.11-.05.15-.56.36-1.15.7-1.77 1-.08.04-.11.02-.1-.07 0 0 0-.03-.03-.07l1.58-1.03Z" fill="#FFF4C0"/><path d="M24.42 31.26c.14-.02.26 0 .36.07.04.03.06.07.05.12-.04.26-.13.48-.28.69-.1.05-.21.07-.3.04a.32.32 0 0 0-.18 0c-.1.02-.26.1-.46.2-.33.2-.6.27-.79.24-.2-.04-.41-.04-.63-.02-.03 0-.05-.02-.06-.05l-.01-.05.35-.23.03.07c-.01.09.02.11.1.07.62-.3 1.21-.64 1.77-1 .06-.04.08-.09.05-.15Z" fill="#F1712A"/><path d="m19.26 31.6.46.35c.04.06.03.11-.02.17a.22.22 0 0 1-.13.07c-.2.04-.4.12-.57.24a.25.25 0 0 1-.17.04c-.06-.01-.1.02-.13.07a.08.08 0 0 1-.07.04l-.84.11c-.05 0-.1.02-.14.04a.8.8 0 0 1-.4.07l-.57-.71c.9.1 1.77-.06 2.58-.49Z" fill="#AF4118"/><path d="M24.55 32.14c-.33.53-.8.96-1.42 1.3l-.79-.5a.36.36 0 0 0-.16-.06l-.35-.04c-.08-.01-.1-.04-.04-.1.08-.1.2-.18.33-.24l.01.05c0 .03.03.05.07.05.21-.02.42-.02.62.02.2.03.46-.05.79-.23.2-.12.35-.19.46-.22a.32.32 0 0 1 .18 0c.1.04.2.02.3-.03Z" fill="#C4611B"/><path d="M6 21h2.43c.07 0 .07.04.07.11v2.47c-.6-.25-1.1-.33-1.81-.23a.29.29 0 0 0-.16.07.13.13 0 0 1-.13.03c-.05-.01-.1 0-.13.05-.07.1-.16.15-.27.16V21Z"/><path d="M8.5 23.58v2.6c0 .1.05.1.11.04a4.26 4.26 0 0 1 5.33-.51c.3.21.54.52.73.94-.06 0-.1.01-.13.05a.3.3 0 0 0-.03.08c-.01.04-.01.04-.02 0v-.01c0-.08-.01-.08-.02 0l-.02.05a.11.11 0 0 1-.1.06H12.6c-.32 0-.7-.04-1.12-.1-.54-.06-.9-.09-1.11-.07-1.45.15-2.9.22-4.37.19v-3.24c.1 0 .2-.06.27-.16.04-.05.08-.06.13-.05.05.02.1 0 .13-.03a.3.3 0 0 1 .16-.07c.7-.1 1.2-.02 1.81.23Z" fill="#1D0904"/><path d="M14.65 26.59c.28.66.4 1.4.32 2.2-.05 0-.1 0-.13.04a.15.15 0 0 0-.04.15c.02.08 0 .13-.06.17a.13.13 0 0 1-.16.01c-.33-.2-.68-.38-1.04-.57a.84.84 0 0 1-.24-.21.83.83 0 0 0-.4-.3c-.25-.1-.51-.24-.76-.42-.26-.42-.6-.65-1.02-.71-.53-.07-1 0-1.43.24a2.5 2.5 0 0 0-1.19 1.94v1.29a3.56 3.56 0 0 0-1.94 1.11h.01c.62-.49 1.16-.77 1.93-.84v3.19c0 .06-.07.12-.13.12h-.24c0-.06-.02-.1-.05-.1l-1.75.01c-.03 0-.06.04-.07.09H6v-7.16c1.46.03 2.92-.03 4.37-.18.2-.02.57 0 1.11.07.43.06.8.09 1.12.1h1.74c.05 0 .08-.02.1-.06a.17.17 0 0 0 .03-.06c0-.07.02-.07.02 0v.02c0 .03.01.03.02 0a.3.3 0 0 1 .03-.08c.02-.04.05-.06.11-.06Z" fill="#370D08"/><path d="m14.97 28.19.01 1.76a.33.33 0 0 1-.15-.03c0-.04-.01-.06-.05-.07a4.97 4.97 0 0 1-2.46-1.1c0-.63 0-.71-.28-1.26.44.02.6-.1.87 0a.83.83 0 0 1 .4.3c.08.1.16.16.23.2.36.19.71.38 1.04.58.06.03.1.03.16-.01s.08-.1.06-.17a.15.15 0 0 1 .04-.15.17.17 0 0 1 .13-.05Z" fill="#541B0C"/><path d="M12.32 28.75c.63.55 1.45.92 2.46 1.1.04 0 .06.03.05.07h-2.5v-1.17Z" fill="#C03922"/><path d="M12.33 29.91h2.5c.03.02.08.04.15.04v.34c-.86.12-1.74.12-2.65.02v-.4Z" fill="#F1712A"/><path d="M14.98 30.29v.87l-2.64.04v-.9c.9.11 1.78.1 2.64-.01Z" fill="#FFF4C0"/><path d="M8.5 30.36v.33c-.72.07-1.34.4-1.9.89l-.04-.05v-.01c.55-.58 1.2-1 1.94-1.16Z" fill="#E45E23"/><path d="M14.98 31.16v.24l-1.57.14c-.05 0-.1 0-.16-.03-.2-.1-.4-.13-.62-.1l-.3-.15v-.06l2.65-.04Z" fill="#F9A144"/><path d="m12.33 31.26.3.15 2.35 1.02v1.4c0 .11-.05.17-.16.17h-2.38c-.07 0-.1-.04-.1-.1v-2.64Z" fill="#541B0C"/><path d="M12.63 31.4c.21-.02.42.01.62.1.05.03.1.04.16.04l1.57-.14v1.03l-2.35-1.02Z" fill="#E45E23"/><path d="M8.13 34H6.26c.01-.05.04-.09.07-.09l1.75-.01c.03 0 .05.04.05.1Z" fill="#8C4212"/></svg>