<?xml version='1.0' encoding='utf-8'?>
<!-- by TradeStack -->
<svg width="56" height="56" viewBox="0 0 56 56" xmlns="http://www.w3.org/2000/svg"><path fill="#F0F3FA" d="M0 0h56v56H0z" /><path d="M31 41.22v-3.56c-2.35-1.18-7.49-3.06-9.2-1.08 0 6.65 3.83 7.42 6.43 7.42 2.08 0 2.72-1.86 2.77-2.78Z" fill="url(#aw5lnnd2h)" /><path d="M27 26a2 2 0 1 1 4 0v11h-4V26Z" fill="url(#bw5lnnd2h)" /><path d="M26 14.36c0 2.13 4.68 5.21 7.02 6.5L38 21l-5.12-7.67c-.98-.44-3.22-1.33-4.4-1.33-1.46 0-2.48 1.03-2.48 2.36Z" fill="url(#cw5lnnd2h)" /><path d="M39.56 35.03c-1.96 0-3.98-.72-4.75-1.08l-3.37-6.18 3.99-2.32c2.8 1.5 8.39 4.3 8.26 5.41-.15 1.4-1.68 4.17-4.13 4.17Z" fill="#701D96" /><path d="M36.37 23.8c0 2-1.26 3.66-1.89 4.23.84.84 2.52 2.2 2.52 4.23C37 34 35.58 39 28.66 39 21.73 39 20 35.55 20 34.14c0-1.4 1.42-2.66 2.83-2.66 2.2 0 4.25 2.52 5.51 2.52 1.26 0 2.66-.64 2.66-1.58 0-1.41-2.66-1.88-3.76-1.88-1.1 0-1.89-1.26-1.89-2.35 0-1.1 1.1-2.04 1.9-2.04 1.56 0 2.98-.94 2.98-1.72 0-.79-.79-1.43-1.89-1.43-1.1 0-1.89.33-2.67 1.43-.79 1.1-1.42 1.25-2.36 1.25-.95 0-3-.31-3-2.35 0-3.14 4.57-5.33 7.72-5.33 6.77 0 8.34 3.3 8.34 5.8Z" fill="url(#dw5lnnd2h)" /><path d="M21.6 33.65c0 7.4 4.27 9.98 6.4 10.35-14.02 0-16-13.49-16-16.47 0-4.08 2.6-7.53 5.8-7.53 5.17 0 3.8 4.4 3.8 13.65Z" fill="url(#ew5lnnd2h)" /><path d="M22 37.3c-.25-1.06-.4-2.27-.4-3.65 0-.65 0-1.27.02-1.87-.92.45-1.62 1.37-1.62 2.36 0 .75.5 2.09 2 3.17Zm-1.02-15.99a3.55 3.55 0 0 0-.67 2.02c0 1.18.7 1.78 1.45 2.08-.02-1.84-.2-3.2-.78-4.1Z" fill="url(#fw5lnnd2h)" /><path d="M44 28.27C44 16.12 34 12.37 29 12c2.38.46 5.05 4.03 6.09 11.46C36.13 30.9 38.8 34 40.89 34c2.07 0 3.11-2.63 3.11-5.73Z" fill="url(#gw5lnnd2h)" /><path d="M35.65 26.48c.4-.74.72-1.67.72-2.68 0-1.38-.48-3-2.04-4.18.3 1.14.56 2.42.76 3.84.15 1.1.34 2.1.56 3.02Z" fill="url(#hw5lnnd2h)" /><defs><linearGradient id="aw5lnnd2h" x1="26.39" y1="35.72" x2="26.39" y2="44" gradientUnits="userSpaceOnUse"><stop offset=".44" stop-color="#440E6E" /><stop offset=".66" stop-color="#5B1889" /></linearGradient><linearGradient id="bw5lnnd2h" x1="29" y1="24" x2="29" y2="37" gradientUnits="userSpaceOnUse"><stop offset=".04" stop-color="#641B87" /><stop offset=".13" stop-color="#9C2AB2" /><stop offset=".53" stop-color="#5B157E" /><stop offset=".71" stop-color="#9F2CB2" /></linearGradient><linearGradient id="cw5lnnd2h" x1="32" y1="12" x2="32" y2="21" gradientUnits="userSpaceOnUse"><stop stop-color="#370E74" /><stop offset="1" stop-color="#531683" /></linearGradient><linearGradient id="dw5lnnd2h" x1="24.72" y1="18" x2="31.44" y2="39.02" gradientUnits="userSpaceOnUse"><stop stop-color="#0DE6F5" /><stop offset="1" stop-color="#3896D9" /></linearGradient><linearGradient id="ew5lnnd2h" x1="12.15" y1="24.71" x2="27.06" y2="32.86" gradientUnits="userSpaceOnUse"><stop stop-color="#FEBB02" /><stop offset="1" stop-color="#C034C5" /></linearGradient><linearGradient id="fw5lnnd2h" x1="21.03" y1="21.58" x2="21.46" y2="36.72" gradientUnits="userSpaceOnUse"><stop stop-color="#F8BF99" /><stop offset="1" stop-color="#DC63B8" /></linearGradient><linearGradient id="gw5lnnd2h" x1="31.38" y1="12" x2="42.03" y2="33.34" gradientUnits="userSpaceOnUse"><stop stop-color="#FEBB02" /><stop offset="1" stop-color="#C034C5" /></linearGradient><linearGradient id="hw5lnnd2h" x1="35.01" y1="19.41" x2="35.01" y2="26.23" gradientUnits="userSpaceOnUse"><stop stop-color="#FAB7A2" /><stop offset="1" stop-color="#F586A3" /></linearGradient></defs></svg>