<?xml version='1.0' encoding='utf-8'?>
<!-- by TradeStack -->
<svg width="56" height="56" viewBox="0 0 56 56" xmlns="http://www.w3.org/2000/svg"><path fill="#F0F3FA" d="M0 0h56v56H0z" /><path d="M44 19.01c-8.56-.96-14.28-6.4-16.04-9.01l-3.58 2.05C29.95 20.2 39.81 22.78 44 23.07v-4.06Z" fill="#001648" /><path d="M44 25.94c-11.75-.96-19.7-8.69-22.17-12.43l-3.6 1.98C25.38 26.52 38.41 29.74 44 30v-4.05Z" fill="#001648" /><path d="M44 32.95c-15.62-1.2-25.37-11.17-28.3-16l-3.63 2.02C21.09 32.87 37.12 36.75 44 36.95v-4Z" fill="#001648" /><path d="M44 23.07c-15.62 1.2-25.44 11.16-28.37 16L12 37.03c9.03-13.9 25.12-17.78 32-17.98v4ZM44 36.99c-8.56.96-14.28 6.4-16.04 9.01l-3.58-2.05C29.95 35.8 39.81 33.18 44 32.88v4.1Z" fill="#EF2D24" /><path d="M44 29.98c-11.75.96-19.77 8.7-22.23 12.44l-3.6-1.99C25.3 29.41 38.4 26.15 44 25.9v4.08Z" fill="#EF2D24" /></svg>