<?xml version='1.0' encoding='utf-8'?>
<!-- by TradeStack -->
<svg width="56" height="56" viewBox="0 0 56 56" xmlns="http://www.w3.org/2000/svg"><path fill="#F0F3FA" d="M0 0h56v56H0z" /><path d="m29.85 21.4 1.2 9.35a.04.04 0 0 0 .04.04h.02l5.99-4.61.68.83-5.98 4.56a.07.07 0 0 0 .02.12l4.1 1.51c-.02.33-.13.62-.31.89l-4.27-1.52a.07.07 0 0 0-.07 0 .07.07 0 0 0-.03.07l.58 5.52-1 .1-.58-5.38a.07.07 0 0 0-.05-.06.07.07 0 0 0-.07.01L23 37.91l-.75-.73.07-.01.07-.03 7.11-5.11a.07.07 0 0 0-.02-.13l-7.13-2.61.37-.94 7.13 2.6c.12.05.17 0 .16-.12l-1.22-9.32 1.06-.1Z" fill="#939598" /><path d="m29.45 21.9-1.03.1a4.52 4.52 0 0 1-4.3-5.61c.94-4.36 7.22-4.58 8.65-.3.86 2.57-.77 5.11-3.32 5.8Z" fill="#E96F33" /><path d="m22.77 28.69-.36.92c-1.77 3.24-5.96 4.54-9 2.19a6.06 6.06 0 0 1-1.44-8.13c1.78-2.88 6-3.5 8.63-1.5 2.1 1.6 2.82 3.77 2.17 6.52Z" fill="#EE4282" /><path d="m37.87 27.43-.66-.8c-.96-2.45 1.56-4.67 3.74-3.11 2.67 1.9-.28 5.97-3.08 3.91Z" fill="#A656A1" /><path d="M35.02 33.7c.18-.27.28-.55.3-.86 2.26-3.56 7.62-1.53 6.54 2.52-1.14 4.25-7.29 3.13-6.84-1.67Z" fill="#75C044" /><path d="m22.49 37.08.74.74c1.68 4.75-4.97 5.7-5.22 1.55-.15-2.38 2.55-3.7 4.48-2.29Z" fill="#1DB2E7" /><path d="M31.77 38c1.4.38 2.25 1.93 1.37 3.14-1.3 1.8-4.13.55-3.57-1.63.16-.62.57-1.09 1.23-1.4l.97-.11Z" fill="#E64046" /></svg>