<?xml version='1.0' encoding='utf-8'?>
<!-- by TradeStack -->
<svg width="56" height="56" viewBox="0 0 56 56" xmlns="http://www.w3.org/2000/svg"><path fill="url(#a)" d="M0 0h56v56H0z" /><path d="M6 23H4v10h2v-4h4v4h2V23h-2v4H6v-4Zm7 0v10h2v-5.52l2.3 3.4h1.4l2.3-3.4V33h2V23h-1.58L18 28.47 14.58 23H13Z" fill="#fff" /><path fill-rule="evenodd" d="M31.46 24.42A5 5 0 0 0 23 27.87a5 5 0 0 0 8.46 3.46l-.54-.52a4.23 4.23 0 0 1-7.16-2.94 4.23 4.23 0 0 1 7.17-2.93l.53-.52Zm-1.1 5.83-.63-.62c-.46.45-1.1.72-1.8.72a2.51 2.51 0 0 1-2.54-2.48 2.51 2.51 0 0 1 2.54-2.48c.7 0 1.34.28 1.8.73l.63-.62a3.48 3.48 0 0 0-2.43-.98 3.4 3.4 0 0 0-3.44 3.35 3.4 3.4 0 0 0 3.44 3.35c.95 0 1.8-.37 2.42-.97Zm4.64.87c-.42.54-1.04.88-1.73.88-1.25 0-2.27-1.12-2.27-2.5s1.02-2.5 2.27-2.5c.7 0 1.31.34 1.73.88V27h.62v5H35v-.88Zm-.04-1.62c0 1.01-.74 1.83-1.66 1.83-.91 0-1.66-.82-1.66-1.83 0-1.01.75-1.83 1.66-1.83.92 0 1.66.82 1.66 1.83ZM48.27 32c.7 0 1.31-.34 1.73-.88V32h.7v-5H50v.88a2.19 2.19 0 0 0-1.73-.88C47.02 27 46 28.12 46 29.5s1.02 2.5 2.27 2.5Zm.03-.67c.92 0 1.66-.82 1.66-1.83 0-1.01-.74-1.83-1.66-1.83-.91 0-1.66.82-1.66 1.83 0 1.01.75 1.83 1.66 1.83ZM42 27h.7v5H42v-5Zm3-2h-.7v1.6h-1v.7h1V32h.7v-4.7h1.3v-.7H45V25Zm6.3 0h.7v7h-.7v-7Zm-14.13 6.21c.42.49 1 .79 1.66.79 1.25 0 2.27-1.12 2.27-2.5S40.08 27 38.83 27c-.66 0-1.24.3-1.66.79V27h-.7v7h.7v-2.79Zm0-1.31c.17.82.83 1.43 1.62 1.43.92 0 1.66-.82 1.66-1.83 0-1.01-.74-1.83-1.66-1.83-.8 0-1.45.61-1.62 1.43v.8ZM42.5 26a.5.5 0 1 0 0-1 .5.5 0 0 0 0 1Z" fill="#C49E5B" /><defs><linearGradient id="a" x1="10.42" y1="9.71" x2="68.15" y2="76.02" gradientUnits="userSpaceOnUse"><stop stop-color="#1A1E21" /><stop offset="1" stop-color="#06060A" /></linearGradient></defs></svg>