<!-- by TradeStack --><svg xmlns="http://www.w3.org/2000/svg" width="56" height="56"><path fill="#F0F3FA" d="M0 0h56v56H0z"/><path d="M24 8.57V24h-5.9l-.6.5.6.5h6.4l.5-.69V8.57L24.5 8l-.5.57zm7 37.87V31h5.39l.61-.5-.61-.5h-5.9l-.49.69v15.75l.5.56.5-.56zM31 24v-7.43l-.5-.57-.5.57v7.74l.5.69h12.87l.63-.5-.63-.5H31zm-7 14.44V31H12.63l-.63-.5.63-.5h11.88l.49.69v7.75l-.5.56-.5-.56zm2-14.12V8.57l.5-.57.5.57v15.75l-.5.68-.5-.68zm3 22.12V30.68l-.5-.68-.5.68v15.76l.5.56.5-.56zm-1-22.12v-7.76l.5-.56.5.56v7.76l-.5.68-.5-.68zm-1 14.12v-7.76l-.5-.68-.5.68v7.76l.5.56.5-.56zM42.8 27H30.58l-.58-.5.58-.5H42.8l.7.5-.7.5zm-29.75 2h11.29l.66-.5-.66-.5H13.05l-.55.5.55.5zm23.86 0h-6.37l-.54-.5.54-.5h6.37l.59.5-.59.5zm-18.34-2h5.74l.69-.5-.69-.5h-5.74l-.57.5.57.5z" fill="#1DB4F0"/></svg>