<!-- by TradeStack --><svg width="56" height="56" viewBox="0 0 56 56" xmlns="http://www.w3.org/2000/svg"><path fill="#F0F3FA" d="M0 0h56v56H0z"/><path d="M18 13v24h7V26h4.78l1.31 11h7.93c-.22-2.47-.7-7.99-.93-10.34-.27-2.94-2.68-5.55-6.45-5.55-3.02 0-5.71 2-6.64 3V13h-7Z"/><path fill-rule="evenodd" d="M26.88 11H16v33h25.16L44 37h-2.84c-.19-1.59-.68-5.97-1.2-10.8-.66-6.05-5.26-7.27-7.55-7.27a16.45 16.45 0 0 0-5.53 1.33V11Zm16.17 26.65H40.6l-.06-.56c-.19-1.6-.68-5.99-1.2-10.82-.32-2.85-1.53-4.5-2.9-5.44a7.25 7.25 0 0 0-4.02-1.26c-.84 0-1.89.2-2.89.48-.99.27-1.88.6-2.4.8l-.87.37v-9.58h-9.62v31.72h24.1l2.32-5.7ZM26 27h2.75l1.04 10h-3.67l-.06-.6c0-.13-.06-.6-.06-1.23V27Zm.7 9.34c-.04-.37-.02-5.84 0-8.7h1.47l.92 8.7h-2.4Z"/><path d="M17.82 39.37c-.55.38-.6.81-.13.99.29.1.25.2-.2.54-1.09.83-.2 1.48 1.14.84.45-.22.87-.33.92-.25.12.19 4.32.15 4.64-.05.14-.08.3-.07.36.03.14.22 3.26.18 3.63-.04.14-.09.26-.08.26.02s.78.16 1.73.14c2-.04 2.02-.04 1.64-.28-.25-.15-.22-.3.16-.94.56-.91.42-1.15-.27-.48-.78.75-1.8 1.46-1.93 1.34-.06-.06.09-.2.33-.33.55-.3.56-.62.02-.62-.23 0-.57.23-.76.51-.2.28-.4.47-.46.41-.05-.05.02-.24.16-.41.34-.4-.17-.44-.62-.06-.15.14.02-.12.39-.6.39-.49.58-.9.46-.97-.12-.07-.52.3-.9.82-.57.8-.7.88-.75.52-.09-.56-.17-.54-.8.18-.72.84-1.05.77-.52-.1.35-.57.37-.71.13-.71-.17 0-.31.1-.31.21 0 .12-.24.46-.52.76-.63.66-.68.4-.1-.52.5-.8.5-.86.1-.86-.17 0-.46.29-.64.63-.18.35-.39.58-.46.51-.06-.06-.27 0-.45.14-.19.13-.03-.1.35-.53.38-.42.62-.86.55-.98-.17-.27-1.06.55-1.57 1.45-.35.64-.38.66-.27.16.17-.76-.49-.77-1.25-.02-.3.3-.61.48-.68.42-.06-.06.08-.3.32-.54.64-.62.59-1.06-.08-.76-.3.13-.53.38-.53.57 0 .18-.16.45-.36.6-.33.25-.34.25-.1-.05.52-.64.07-1.08-.56-.53-.91.8-2.47 1.3-2.27.71.04-.14.39-.35.76-.47.86-.28.9-.56.11-.72-.65-.12-.42-.31.52-.42.28-.04.55-.18.6-.32.12-.37-1.22-.32-1.79.06Zm17.36 0c-.37.25-.42.4-.26.7.15.27.12.44-.1.62-.44.35-.4 1.01.06 1.01.5 0 .88-.39.88-.9 0-.23.2-.65.42-.93.69-.86.02-1.19-1-.5Zm-1.33.04-.06.36c-.02.11-.16.5-.31.87-.21.5-.23.74-.06.9.17.17.27.12.36-.16.07-.22.26-.7.43-1.06.16-.37.3-.76.3-.86 0-.23-.62-.27-.66-.05Zm3.21.26c-1.02.6-1.2 2.03-.27 2.03.7 0 1.25-1 .75-1.35-.39-.27-.39-.28 0-.56.65-.46.26-.56-.48-.12Zm1.47-.28c-.59.23-.22.5.5.36.94-.17.8.22-.14.43-.7.15-.84.5-.19.5.26 0 .4.1.35.26-.05.14-.35.26-.68.26-.33 0-.63.12-.68.25-.12.37 1.02.31 1.59-.07.38-.26.42-.38.22-.62-.2-.24-.16-.36.21-.61.79-.54-.17-1.15-1.18-.76Zm-2.56.36c0 .04-.14.13-.31.2-.18.06-.32.02-.32-.09 0-.1.14-.2.31-.2.18 0 .32.04.32.09Zm1.07 1.4c-.35.33-.54 0-.22-.38.2-.23.3-.26.37-.1.04.14-.02.35-.15.48Zm-5.67-.39c0 .04-.17.2-.37.36-.33.25-.34.24-.08-.08.28-.34.45-.45.45-.28Zm3.8.58c-.15.14-.25.16-.25.03 0-.27.25-.51.39-.38.06.06 0 .22-.14.35Z" fill="#1940B4"/></svg>