<?xml version='1.0' encoding='utf-8'?>
<!-- by TradeStack -->
<svg width="56" height="56" viewBox="0 0 56 56" fill="none" xmlns="http://www.w3.org/2000/svg">
<rect width="56" height="56" fill="#023A15" />
<path fill-rule="evenodd" clip-rule="evenodd" d="M44 27.8958C44 19.1169 36.8548 12 28.041 12C19.2271 12 12.0819 19.1169 12.0819 27.8958C12.0819 36.6748 19.2271 43.7917 28.041 43.7917C36.8548 43.7917 44 36.6748 44 27.8958ZM40 28C40 21.3725 34.6275 16 28 16C21.3726 16 16 21.3725 16 28C16 34.6275 21.3726 40 28 40C34.6275 40 40 34.6275 40 28Z" fill="#0BB70B" />
<path fill-rule="evenodd" clip-rule="evenodd" d="M35 24.5L28 20L21 24.5V32.4682C21 32.7611 21.2539 33 21.5654 33H25.4346C25.7461 33 26 32.7611 26 32.4682V28.5318C26 28.2389 26.2539 28 26.5654 28H29.4346C29.7461 28 30 28.2389 30 28.5318V32.4682C30 32.7611 30.2539 33 30.5654 33H34.4346C34.7461 33 35 32.7611 35 32.4682V24.5Z" fill="#0BB70B" />
<path fill-rule="evenodd" clip-rule="evenodd" d="M15.6978 37L19 40.262L15.9237 43.3535C14.8752 44.4072 13.5855 44.0601 12.6345 43.1207C11.7936 42.2901 11.7878 40.9292 12.6215 40.0913L15.6978 37Z" fill="#0BB70B" />
</svg>