<?xml version='1.0' encoding='utf-8'?>
<!-- by TradeStack -->
<svg width="56" height="56" viewBox="0 0 56 56" xmlns="http://www.w3.org/2000/svg"><path fill="#F0F3FA" d="M0 0h56v56H0z" /><path d="m41.47 18.6-.24.29c-.05.06-.1.06-.13-.01-.16-.28-.4-.34-.71-.18a.26.26 0 0 0-.12.12l-.27.6-1-.42-.03-.11c-.03-.08-.09-.11-.17-.1l-.25.06c-.18-.14-.4-.25-.62-.34a26.4 26.4 0 0 0-19.22-.27.95.95 0 0 1-.28.01l-.01-.31c0-.07-.04-.1-.12-.1-.18.04-.6.74-.74.92L14.8 20.1c.16-.58.48-1.05.98-1.42a.25.25 0 0 0 .08-.12c.08-.2-.02-.34-.2-.24-.35.2-.72.28-1.1.22a.3.3 0 0 1 .11-.11 27.6 27.6 0 0 1 26.75.05l.04.06v.06Z" fill="#CC4D3A" /><path d="M18.43 18.25c-1.26 1.92-1.67 5.73-1.67 7.99a.1.1 0 0 1-.1.1l-1.15.14c-.07 0-.1-.02-.11-.1a3.13 3.13 0 0 0-1.7-2.78.11.11 0 0 0-.1.1 9.93 9.93 0 0 1-.85 2.6l-1.26.86c-.88.24-1.42-.06-1.6-.9a.6.6 0 0 1 .1-.5c.1.06.16.14.2.25a.3.3 0 0 0 .11.17c.6.45 1.32-.42 1.5-.9.25-.58.44-1.18.56-1.8.02-.1-.02-.13-.1-.1l-.36.1c-.1.02-.13.08-.1.18.14.51-.04.8-.56.84l-.36-.24c-.29-1.06.82-1.54 1.67-1.68a.15.15 0 0 0 .13-.11L13 21.4l.93-1.67c.04-.07.01-.11-.07-.12-.5-.06-2.04-.46-1.4.78.04.07.02.1-.07.1-.23-.02-.43-.1-.6-.25-.14-.64.08-1.13.63-1.46.91-.54 1.3-.2 2.13-.25.4.06.76-.01 1.11-.22.18-.1.28.03.2.24a.25.25 0 0 1-.08.12c-.5.37-.82.84-.98 1.42-.4.81-.69 1.66-.87 2.55-.02.05 0 .1.06.11a5.03 5.03 0 0 1 1.72 1.12.07.07 0 0 0 .06-.02l.02-.04c.33-1.77.92-3.46 1.77-5.06.15-.18.56-.88.74-.91.08-.01.11.02.12.09v.31ZM42.91 19.4l-.39 1.66c-.14.3-.11.51.09.64.05.04.12.05.18.03a.66.66 0 0 0 .42-.32c.36-.4.61-.85.76-1.36.27 0 .42.13.46.4-.14.5-.34.96-.61 1.4-.52.63-1.94 1.41-2.4.42-.25-.53.06-1.3.25-1.87.22-.35.25-.69.1-1.03a.2.2 0 0 0-.13-.1.19.19 0 0 0-.16.03c-.3.22-.49.49-.57.8L40 22.93a.13.13 0 0 1-.13.1 8.4 8.4 0 0 0-1.8.32.42.42 0 0 1-.2.01.82.82 0 0 1-.65-.5c-.04-.08-.09-.08-.14 0-.4.52-1.24 1.18-1.83.54-.06-.05-.1-.05-.16 0-.5.51-1.04.65-1.6.41-.99-.41-.18-2.3.06-3.04a.23.23 0 0 0-.19-.3c-.3-.05-.52.25-.6.53-.56 1.83-1.1 3.74-3.49 3.6-.34-.02-.64-.2-.9-.53-.06-.06-.1-.06-.14 0-.6.85-2.61 1.52-2.33-.25.07-.5.5-1.92.27-2.3-.04-.08-.1-.1-.16-.04-.7.61-1.12 2.7-1.38 3.61a.15.15 0 0 1-.14.12l-.8.12a.1.1 0 0 1-.1-.12l.89-3.02a.25.25 0 0 0-.08-.26c-.27-.23-.5-.12-.68.31-.43 1-.79 2.03-1.08 3.08-.02.1-.09.16-.19.18l-.74.12c-.1.02-.15-.03-.13-.13l.02-.17c0-.04-.01-.07-.06-.07l-1.04-.12a.16.16 0 0 0-.15.06c-1 1.21-2.99 1.58-2.56-.72a4.04 4.04 0 0 1 1.91-2.83c.59-.36 1.06-.36 1.42 0 .65.66.26 1.96-.13 2.69-.04.07-.02.12.07.14 1.07.3 1.6-2.48 1.78-3.19a.18.18 0 0 1 .16-.14l.58-.08c.11-.02.15.03.12.14l-.07.2c-.08.25-.04.27.11.06.48-.66 1.05-.75 1.7-.28.05.05.1.04.15-.02.33-.42.77-.6 1.3-.52a.3.3 0 0 1 .19.1c.79.89-.62 2.87.02 3.22a.23.23 0 0 0 .24-.02c.58-.41.68-.76.91-1.52.35-1.15 1.49-2.66 2.87-2.43.07.01.12.05.16.1.65 1.04-1 2.56-1.82 3.01a.18.18 0 0 0-.1.16c-.02.34.22.6.58.55 1.47-.15 1.92-2 2.23-3.18a.34.34 0 0 0 0-.2c-.31-.95.87-1.68 1.21-.62.04.1.1.13.19.05.36-.32.75-.31 1.18.02a.1.1 0 0 1 .04.12l-.68 2.35a.44.44 0 0 0 .01.25c.03.09.08.19.15.28.05.08.17.06.35-.04 1.29-.77.52-3.49 2.13-3.83a.19.19 0 0 1 .22.23l-.78 3.06a.26.26 0 0 0 .32.32c.76-.2 1.2-2.62 1.42-3.35a.24.24 0 0 1 .12-.15l.5-.27.25-.05c.08-.02.14 0 .17.09L39 19l-.84 2.93a.31.31 0 0 0 .4.37c.82-.28 1.26-2.13 1.43-2.89l.27-.59c.02-.05.06-.1.12-.12.31-.16.55-.1.7.18.05.07.1.07.14 0l.24-.28c.73-.21 1.56-.36 1.44.8Zm-13.33 3.08c.41-.3 1.55-1.3 1.3-1.98-.05-.13-.13-.14-.22-.05a4.3 4.3 0 0 0-1.18 1.96c-.04.12 0 .15.1.07Zm-9.18 1.27c.02 0 .04-.01.06-.04a.53.53 0 0 0 .06-.14l.04-.2a2.44 2.44 0 0 0 0-.7.53.53 0 0 0-.04-.14c-.02-.04-.04-.06-.06-.06-.02 0-.04.02-.06.05a.53.53 0 0 0-.06.14l-.04.2a2.44 2.44 0 0 0 0 .7c0 .06.02.11.04.14.02.04.04.05.06.05Zm-.8-1.02c-.56.62-.8 1.35-.71 2.18a.3.3 0 0 0 .33.28.3.3 0 0 0 .15-.06l.54-.39c.06-.04.07-.09.03-.15a2.19 2.19 0 0 1-.23-1.8c.05-.17.01-.2-.1-.06Z" /><path d="M41.67 20.4a1.48 1.48 0 0 0-.76-.3c.08-.31.27-.58.57-.8a.19.19 0 0 1 .24 0 .2.2 0 0 1 .05.07c.15.34.12.68-.1 1.03ZM42.91 19.4l1.06.65c-.15.51-.4.97-.76 1.36l-.7-.35.4-1.67ZM13 21.41c-.3-.07-2.39 1.81-2.72 2.11-.05.05-.06.1-.03.15.15.25.36.45.63.6l.36.23c.05.34.23.6.55.77-.17.49-.88 1.36-1.49.9a.3.3 0 0 1-.11-.16.42.42 0 0 0-.2-.24.3.3 0 0 1 0-.06l-.02-.04-1.93-1.97c-.05-.06-.05-.12 0-.18a30.74 30.74 0 0 1 3.74-3.27c.18.14.38.23.62.25.08 0 .1-.03.06-.1-.64-1.24.9-.84 1.4-.78.09 0 .1.05.07.12L13 21.4ZM44.43 20.45a23.6 23.6 0 0 1 3.53 3.09c.05.05.05.1 0 .14l-3.5 3.55c-.17-.33-.12-.63.14-.91.06-.07.06-.15 0-.22-.15-.16-.33-.2-.54-.08a.25.25 0 0 0-.12.13c-.23.59-.47 1.17-.73 1.74-.18.39-.5.8-.7 1.22-.18.4-.33.65-.44.74-.3.27-1.5.39-1.16-.38.02-.05.06-.1.12-.13.99-.5 1.5-1.3 1.54-2.4l3.18-3.25c.05-.05.05-.1 0-.16l-1.93-1.68c.27-.44.47-.9.6-1.4Z" fill="#CC4D3A" /><path d="M44.45 27.23c1.03 1.03.94 2-.25 2.88-.49.37-1.02.41-1.58.15a.18.18 0 0 0-.18 0c-.42.27-.88.43-1.38.47a1.6 1.6 0 0 1-1.03-.44c-.05-.04-.1-.04-.15 0-.42.42-.9.7-1.45.87-.54.03-1-.12-1.36-.45-.06-.06-.11-.05-.16.01-.47.65-2 1.2-2.04-.1-.02-.55.33-1.4.49-1.98.02-.08-.01-.13-.1-.15a.44.44 0 0 0-.53.3c-.36 1.1-.56 2.08-1.37 2.75-.59.49-1.13.48-1.63-.02-.04-.04-.08-.04-.12 0-.38.52-1.03.92-1.58.36a.17.17 0 0 0-.18-.05c-.3.08-.6.07-.9-.03a.14.14 0 0 0-.17.04c-.6.62-1.4 1.25-2.2.5-.06-.05-.11-.05-.16 0-.37.42-.83.6-1.38.54a.3.3 0 0 0-.2.04c-.48.3-.96.32-1.45.06a.16.16 0 0 0-.17.01c-1.23.81-3.1.63-2.55-1.35.24-.86 1.3-2.4 2.42-2.12a.45.45 0 0 1 .33.56 3.37 3.37 0 0 1-1.7 2.1.15.15 0 0 0-.1.16c.12.93 1.27.28 1.52-.25.53-1.08 1.13-2 1.5-3.14a.39.39 0 0 1 .25-.26c.8-.27.38.66.17.89-.05.05-.05.11-.01.18.53.9 1.25 1.01.7 2.28a.06.06 0 0 0 .02.07.06.06 0 0 0 .08 0c.57-.52.62-.99.91-1.65.36-.8 1.34-2.01 2.3-1.84 1 .17.52 1.92.2 2.47-.03.08-.01.12.07.15 1.28.41.68-2.96 2.1-3.06a.15.15 0 0 1 .16.2l-.65 2.54a.26.26 0 0 0 .28.32c.57-.08 1-2.23 1.15-2.77a.35.35 0 0 1 .12-.17c.15-.13.33-.22.54-.28.23-.07.31.01.24.25l-.68 2.43c-.1.36.02.47.36.32.66-.3 1-1.62 1.18-2.26.14-.5-.26-1.28.62-1.26.28 0 .39.15.44.4.02.1.07.12.15.06.3-.25.64-.25 1 0 .05.03.07.08.05.14l-.6 2.16a.26.26 0 0 0 .2.33l.15-.01c.27-.1.45-.3.56-.58.45-1.27.86-2.49 2.29-2.84 1.05-.26.79 1.72-.04 1.36-.08-.04-.11-.1-.1-.17.03-.3.18-.5.44-.64.07-.03.07-.07 0-.11-.64-.38-2.07 2.72-1 2.88.69.1 1.34-.69 1.52-1.25.33-1.04 1.27-3 2.76-2.3a2.65 2.65 0 0 1-1.54 2.41.25.25 0 0 0-.12.13c-.34.77.86.65 1.16.38.11-.1.26-.34.44-.74.2-.43.52-.83.7-1.22.26-.57.5-1.15.73-1.74.03-.06.07-.1.12-.13.21-.11.4-.08.54.08.06.07.06.15 0 .22-.26.28-.3.58-.15.9Zm-3.24.98c-.13.18-.21.39-.24.61 0 .07.02.1.08.05.44-.28.79-.64 1.06-1.08a.16.16 0 0 0 .02-.12l-.03-.1c.07-.1.09-.22.04-.36a.09.09 0 0 0-.13-.04c-.38.26-.65.6-.8 1.04Zm2.62-.1-.37.66a.18.18 0 0 0 0 .18c.22.42.12.72-.3.91a.09.09 0 0 0 .04.17c.96 0 1.05-1.17.93-1.87-.05-.3-.15-.32-.3-.05Zm-15.1 2.56c.04 0 .07-.05.1-.16a1.9 1.9 0 0 0 .02-.9c-.01-.04-.03-.05-.04-.05-.04 0-.07.05-.1.15a1.89 1.89 0 0 0-.02.92l.04.04Zm-.71-.85a2.5 2.5 0 0 0-.57 1.77.27.27 0 0 0 .43.2l.4-.29c.08-.05.1-.13.05-.21-.25-.44-.3-.9-.17-1.4.06-.24.01-.26-.14-.07Zm-5.25.15c-.44.04-.95 1.27-1.05 1.6-.02.09 0 .1.07.06.54-.34.93-.81 1.18-1.4a.2.2 0 0 0-.2-.26Zm1.1 2.79c1.16.06 1.22-1.43.93-2.16-.04-.08-.08-.09-.12 0l-.43.91a.23.23 0 0 0 0 .2c.2.46.07.77-.39.93a.06.06 0 0 0-.04.06c0 .02 0 .03.02.04l.04.02Z" /><path d="m12.75 26.3 2 2.03c-.5.85-.52 1.87.68 2.02a.07.07 0 0 0 .07-.03.07.07 0 0 0 0-.08 1.46 1.46 0 0 1-.1-1.32l.85.8-.5 1.79-4.26-4.35 1.26-.85Z" fill="#CC4D3A" /><path d="M19.82 33.43c-.63.65-1.45.83-1.59-.35-.1-.87-.06-1.77-1.1-2.04-.07-.02-.12 0-.13.07l-.35 1.43c-.26 1-1.27 2.31-2.37 1.9-.46-.17-.6-.63-.51-1.08.01-.09.06-.1.12-.03l.34.35a.2.2 0 0 0 .2.06c.88-.2 1.22-1.45 1.31-2.23l.51-1.79c.3-.82.79-1.52 1.44-2.1.08-.06.06-.1-.03-.09-1 .07-1.76.53-2.26 1.4-.18.45-.15.89.1 1.31a.07.07 0 0 1-.03.1c-.02.01-.03.02-.04.01-1.2-.15-1.19-1.17-.68-2.02a4.61 4.61 0 0 1 3.72-1.45c1.72.08 2.9 1.83 1.36 3.16-.3.26-.63.47-1 .63-.07.04-.08.08-.01.13.87.7-.07 1.72.46 2.17.24.2.52-.14.67-.3.08-.08.12-.06.12.05.01.27-.07.5-.25.71Zm-1.66-5.47a6.5 6.5 0 0 0-.9 2.15c-.01.07.02.1.08.1.88.07 1.92-.36 2.07-1.3.08-.54-.7-1.87-1.25-.95Z" /><path d="m42.1 27.57.03.1c0 .04 0 .08-.02.12-.27.44-.62.8-1.06 1.08-.06.04-.09.02-.08-.05.03-.22.1-.43.24-.6l.9-.65Z" fill="#CC4D3A" /><path d="M37.72 34.12c-.94.06-1.83.2-2.67.43-1.76.24-3.5.5-5.22.8-2.2.38-4.52.64-6.44 1.7l-.6.4a.21.21 0 0 1-.2.02 3.4 3.4 0 0 0-1.16-.17l-1.4-.16c-.09-.01-.1-.05-.03-.1l.63-.55 1.45-.66c1.78-.62 3.6-1.05 5.48-1.29 2.96-.38 5.92-.79 8.88-1.22l2.42-.34c1.86-.24 6.9-.76 7.86-2.56a.47.47 0 0 0-.14-.61c-.49-.35-1.34 0-1.84.2-.06.04-.08.02-.06-.04.37-.9 1.07-1.2 2.1-.87.76.24 1.02.75.78 1.52-.75 2.4-7.64 3.1-9.84 3.5Z" /><path d="m41.06 30.73-2.2 2.25-2.42.34c.6-.77 1.26-1.5 1.99-2.16a3.42 3.42 0 0 0 1.45-.87c.05-.04.1-.04.15 0 .28.27.62.42 1.03.44ZM19.82 33.43l2.26 2.4-1.45.66-3.98-3.95.35-1.43c.01-.07.06-.1.13-.07 1.04.27 1 1.17 1.1 2.04.14 1.18.96 1 1.59.35ZM37.72 34.12 28.04 44H28l-6.56-6.7c.4-.01.78.05 1.16.17.07.03.13.02.2-.02l.6-.4 4.55 4.65c.05.04.1.04.14 0l6.97-7.15c.84-.22 1.73-.37 2.67-.43Z" fill="#CC4D3A" /><path d="M30.4 38c.06.04.11.1.15.16a.13.13 0 0 1-.02.15L28.1 40.8c-.06.06-.12.06-.19 0l-2.4-2.42c-.1-.11-.1-.21.03-.3 1.62-1.18 3.24-1.2 4.86-.07Z" fill="#2F3443" /></svg>