<!-- by TradeStack --><svg width="56" height="56" viewBox="0 0 56 56" xmlns="http://www.w3.org/2000/svg"><path fill="#F0F3FA" d="M0 0h56v56H0z"/><path d="M4 31v-7h1.5v3H8v-3h1.5v7H8v-2.5H5.5V31H4ZM17.5 24v7H19v-5.24L20.45 31h1.12L23 25.76V31h1.5v-7h-2.15l-1.37 4.51L19.6 24H17.5Z" fill="#00594A"/><path fill-rule="evenodd" d="M25 31h1.9l.32-1h2.38l.32 1h1.84l-2.68-7h-1.3L25 31Zm4.12-2.5-.7-2.2-.71 2.2h1.4Z" fill="#00594A"/><path d="M33.31 28.58h-1.8c-.17 1.93 1.7 2.42 2.53 2.42.82 0 2.46-.45 2.46-2s-1.27-1.94-2.36-2.35c-1.1-.41-.83-1.3-.1-1.3.58 0 .69.4.67.65h1.79c.07-1.51-1.39-2-2.36-2-.98 0-2.46.53-2.46 1.98 0 1.44 1.45 1.77 2.46 2.16 1 .38.57 1.4-.1 1.4-.53 0-.7-.64-.73-.96Z" fill="#00594A"/><path fill-rule="evenodd" d="M40 31a3.5 3.5 0 1 0 0-7 3.5 3.5 0 0 0 0 7Zm0-1.5a2 2 0 1 0 0-4 2 2 0 0 0 0 4Z" fill="#00594A"/><path d="M43.5 25.5H45V31h1.5v-5.5H48V24h-4.5v1.5ZM48.5 31v-7H52v1.5h-2v1.2h2v1.54h-2v1.26h2V31h-3.5Z" fill="#00594A"/><path d="M16.96 27.88a2.55 2.55 0 0 1-.08-.08.38.38 0 0 0-.08-.07 2.1 2.1 0 0 1-.15-.1l-.02-.36a.1.1 0 0 0 .02-.09v-.12a1.4 1.4 0 0 0-.03-.33 2.07 2.07 0 0 0-.12-.26c-.01-.08-.03-.13-.05-.15a.5.5 0 0 1-.08-.14.7.7 0 0 0-.17-.3.5.5 0 0 1-.06-.12c-.04-.12-.1-.23-.2-.34a3.85 3.85 0 0 0-2.34-1.2c-.13.01-.23.02-.3.01-.35 0-.62.04-.83.13l-.47.22a2.17 2.17 0 0 0-.49.36c-.1.07-.2.15-.27.24a3.78 3.78 0 0 1-.55.43.55.55 0 0 0-.07.1c-.05.08-.12.17-.2.24.05-.15.12-.29.2-.42a.76.76 0 0 0 .05-.1l.06-.13c.18-.25.35-.43.52-.56.16-.12.34-.25.55-.37.1-.06.2-.1.29-.13 1-.26 2.42-.43 3.36.16l.1.06.1.08.26.24.54.53c.05.05.09.11.12.2l.04.1a5.68 5.68 0 0 1 .37 1.36c.03.3.03.6-.02.9Z" fill="#EAEED2"/><path d="m14.23 24.35.12.15c.08.1.06.14-.06.12l-.2-.01c-.03-.01-.07 0-.1.05-.02.02-.02.04 0 .06l.1.11c.03.05.07.08.13.11.03.02.07.05.14.07a.9.9 0 0 1 .4.32v.03a.32.32 0 0 0-.25.15c-.07.05-.14.11-.2.19a.55.55 0 0 0-.11.18.85.85 0 0 1-.15.25.2.2 0 0 0-.04.18c0 .02 0 .03-.03.02-.17-.08-.4-.08-.7.01a.14.14 0 0 0-.1.12c-.02.11-.03.22-.02.33 0 .02 0 .04.02.05.06.04.12.06.19.04a.7.7 0 0 0 .17-.08l.08-.05h.05c.02.02.03.04.02.06l.01.1c.02.04.04.07.08.09.07.04.13.1.18.17v.03c.02.11.07.19.15.23.03.01.02.02-.01.03-.06 0-.11 0-.17-.04a.9.9 0 0 1-.14-.1.82.82 0 0 0-.15-.11 2.1 2.1 0 0 1-.17-.1 2.61 2.61 0 0 0-.39-.14c-.08-.02-.13-.05-.15-.1a3.69 3.69 0 0 0-.57-.73c-.05-.07-.1-.14-.13-.21a.3.3 0 0 1 0-.25c.07-.15.1-.29.1-.42v-.27a.1.1 0 0 0-.05-.1.17.17 0 0 0-.11-.02c.01-.02.04-.04.09-.05.01 0 .02 0 .03-.02a.2.2 0 0 1 .08-.08l.2-.14a.48.48 0 0 1 .12-.07l.01-.02c0-.01 0-.02-.01-.01h-.03l-.01-.03v-.04c0-.01 0-.02-.02-.02l-.16-.03c.21-.09.48-.13.82-.13h.3c.24-.03.45.01.64.12Z" fill="#75B54A"/><path d="M16.2 25.87c0 .12.02.22.05.32 0 .03.02.06.04.1l.06.13.03.18a.5.5 0 0 0 .07.15c.07.1.11.21.11.34l.02.09.02.06.01.02h.01v.01l.03.36c-.01.2-.03.36-.05.49a2.4 2.4 0 0 1-.13.45c-.05.15-.14.32-.24.54a3.68 3.68 0 0 1-1.09 1.13 5.4 5.4 0 0 1-.76.32.14.14 0 0 1-.12.07 10.63 10.63 0 0 1-1.37 0c-.08-.02-.13-.07-.12-.15 0-.24 0-.44-.03-.59v-.21l.01-.03a.3.3 0 0 0 .03-.18c0-.02 0-.02.02 0 .02.01.03.04.05.07.08.2.11.42.09.63 0 .06.01.1.07.12a7.64 7.64 0 0 0 1.05 0c.12.04.21.04.27-.03l.15-.21c.07-.12.17-.2.28-.26.14-.06.29-.17.46-.33l.35-.36a2.03 2.03 0 0 0 .55-1.11l.01-.06c.05-.12.08-.24.08-.33v-.4a1.86 1.86 0 0 0-.17-.75l-.13-.31a2.68 2.68 0 0 0-.93-1.17.25.25 0 0 0-.08-.04.82.82 0 0 0-.08-.01.46.46 0 0 1-.16-.05.45.45 0 0 0-.1-.04.36.36 0 0 1-.1-.06c-.1-.06-.23-.12-.36-.16l.18.01c.13.02.15-.02.07-.12a1.83 1.83 0 0 1-.12-.15h.13a.2.2 0 0 1 .08.03l.07.02h.05a4.28 4.28 0 0 0 .23.08l.14.08.1.05.14.1c.3.22.56.46.77.7.1.12.16.23.2.35a.5.5 0 0 0 .06.11Z" fill="#0CB3DC"/><path d="m12.47 24.36.16.03c.02 0 .02 0 .02.02v.07h.04c.01 0 .02 0 .01.01l-.01.02a.48.48 0 0 0-.12.07l-.2.14a.2.2 0 0 0-.08.08l-.03.02c-.05.01-.08.03-.1.05l-.05.02a.7.7 0 0 0-.18.09.48.48 0 0 1-.08.04 5.8 5.8 0 0 0-.54.53 4.26 4.26 0 0 0-.42.85c-.04.12-.08.26-.1.4l-.03.4c0 .04.01.06.04.08l.07.07.05.08a3.07 3.07 0 0 1 .1.22c.01.05.04.08.07.11.09.11.2.2.33.28l.16.1a2.34 2.34 0 0 1 .62.45l.06.07.2.28c.02.05.01.05-.03.02a.37.37 0 0 1-.14-.18.25.25 0 0 0-.06-.1.15.15 0 0 0-.1-.05l-.16-.02a8.33 8.33 0 0 1-.61-.43 1.1 1.1 0 0 1-.12-.06c-.15-.11-.31-.2-.47-.25-.06-.02-.1-.07-.12-.15a.9.9 0 0 1-.02-.2c0-.1-.05-.15-.14-.18-.02 0-.04 0-.05.03a.38.38 0 0 1-.1.13.67.67 0 0 1 .02-.3c.06-.17.09-.3.1-.42.01-.28.1-.53.24-.77l.12-.24a.88.88 0 0 1 .11-.2l.3-.4a2.63 2.63 0 0 1 .32-.26c.18-.16.33-.27.45-.33l.47-.22Z" fill="#17ADB6"/><path d="M14.1 24.61c.13.04.25.1.35.16l.1.06c.05 0 .08.02.11.04.04.02.09.04.16.05l.08.01.08.04c.2.14.39.3.54.5.16.2.29.42.39.67l.13.3c.05.12.1.24.13.36a4.54 4.54 0 0 1 .05.8c-.01.1-.04.2-.09.33V28c0 .02-.02.03-.03.03a.39.39 0 0 0-.16-.12h-.03a.96.96 0 0 1-.2-.08.35.35 0 0 1-.15-.16c.07 0 .11-.03.14-.1.08-.25.1-.5.04-.77a2.6 2.6 0 0 0-.35-.94l-.1-.2a1.08 1.08 0 0 0-.14-.2.36.36 0 0 1-.06-.07.27.27 0 0 0-.05-.07 1.07 1.07 0 0 0-.06-.05 19.07 19.07 0 0 1-.26-.28.41.41 0 0 0-.12-.1 1.17 1.17 0 0 0-.17-.07c-.1-.04-.19-.09-.28-.15a.07.07 0 0 0-.08 0c-.03.02-.04.05-.02.09l.04.08-.1-.1c-.02-.03-.02-.05 0-.07.03-.04.06-.06.1-.05Z" fill="#6CC5E9"/><path d="M15.56 27.66a.52.52 0 0 0-.24-.2c.1-.4.08-.78-.04-1.1a3.12 3.12 0 0 0-.14-.42 11.47 11.47 0 0 1-.2-.34.35.35 0 0 0-.17-.14.21.21 0 0 0-.13 0 .65.65 0 0 0-.13.05.32.32 0 0 1 .24-.15l.02-.01v-.02a.9.9 0 0 0-.4-.32 1.17 1.17 0 0 1-.15-.07.44.44 0 0 1-.13-.1 1.02 1.02 0 0 1-.04-.1c-.02-.03-.01-.06.02-.08a.07.07 0 0 1 .08 0 1.63 1.63 0 0 0 .32.16l.13.06.11.1a18.22 18.22 0 0 0 .44.48c.05.05.1.11.14.19a3.36 3.36 0 0 1 .18.36c.13.23.22.49.27.78.05.26.04.52-.04.77-.03.07-.07.1-.14.1Z" fill="#A2D8EE"/><path d="m13.87 24.84.03.2V25.17h-.03c-.17-.01-.28-.05-.33-.09a.22.22 0 0 1-.05-.2c.1-.07.2-.09.33-.06a.1.1 0 0 1 .05.03Z" fill="#EAEED2"/><path d="m11.24 25.18-.3.4a.88.88 0 0 0-.12.19l-.12.24c-.15.24-.23.5-.25.77 0 .12-.04.25-.09.41a.67.67 0 0 0-.02.31c-.04.15-.1.3-.16.47 0 .02-.02.03-.04.03-.01 0-.02 0-.03-.02v-.02a11 11 0 0 0 .03-.45c0-.12 0-.24-.02-.35-.02-.23.02-.47.11-.72.07-.2.14-.36.2-.49.07-.07.14-.16.2-.25a.54.54 0 0 1 .15-.16c.16-.1.3-.22.46-.36ZM16.2 25.87a.7.7 0 0 1 .17.3c0 .04.03.08.08.15.02.02.04.07.05.15l.12.79c-.02 0-.02-.01-.02-.02l-.02-.06a.38.38 0 0 1-.02-.1.57.57 0 0 0-.1-.33.5.5 0 0 1-.08-.15 1.75 1.75 0 0 1-.03-.18.42.42 0 0 0-.06-.12.45.45 0 0 1-.04-.1c-.03-.1-.04-.21-.05-.33Z" fill="#75B54A"/><path d="m16.5 26.47.12.26a1.4 1.4 0 0 1 .03.33v.12a.1.1 0 0 1-.02.1c-.01-.02-.02-.02 0-.02l-.13-.79ZM10.34 27.5a.38.38 0 0 0 .1-.13c0-.03.03-.04.05-.03.09.03.13.09.14.17 0 .09 0 .16.02.2.02.09.06.14.12.16.16.06.32.14.47.25l.12.06.13.08.48.35.09.1.2.21.12.19.11.18.13.26v.14c-.01.02-.02.03-.04.03h-.04a.45.45 0 0 0-.16-.09 1.32 1.32 0 0 1-.45-.23.2.2 0 0 0-.07-.03.22.22 0 0 1-.07-.03 1.1 1.1 0 0 0-.33-.16.5.5 0 0 1-.3-.2.38.38 0 0 0-.28-.18l-.03.01-.01.03c0 .03.01.06.04.1l.03.09c.03.1.06.18.1.25l.1.15.03.1.04.07c.08.07.13.14.16.22v.04c-.01.02-.03.02-.04.02a.28.28 0 0 1-.22-.13 1.03 1.03 0 0 0-.2-.21.68.68 0 0 0-.15-.1c-.18-.1-.34-.24-.48-.42a.45.45 0 0 1-.08-.2 2.1 2.1 0 0 1-.03-.3c0-.05-.02-.06-.06-.01-.01.01-.03.02-.06 0a5.22 5.22 0 0 0 .05-.39c0-.31 0-.64.05-.96.02.11.03.23.02.35a23.85 23.85 0 0 0-.03.47l.03.02c.02 0 .03 0 .04-.03.07-.16.12-.32.16-.47Z" fill="#A7D27D"/><path d="M15.32 27.47c.1.04.18.1.24.2.04.06.09.11.15.15a.95.95 0 0 0 .23.08c.05.01.1.05.16.12-.04.25-.12.47-.23.68-.08.13-.17.26-.3.4l-.35.36a1.7 1.7 0 0 1-.46.33.64.64 0 0 0-.28.26l-.15.21c-.06.07-.15.07-.27.02.09-.24.2-.48.33-.7.08-.18.15-.33.19-.46.04-.15 0-.26-.14-.35-.1-.08-.2-.2-.29-.37a.6.6 0 0 1-.08-.36c0-.04.02-.08.04-.12a.67.67 0 0 1 .08-.09c.1-.08.12-.22.08-.4l.01-.04a.5.5 0 0 1 .38-.18c.16 0 .28.02.36.07l.3.19Z" fill="#75B54A"/><path d="m16.65 27.63.15.1.08.07.08.08a6.01 6.01 0 0 1-.06.47c-.07.22-.13.4-.18.51a3.35 3.35 0 0 1-1.23 1.55c-.34.24-.69.42-1.05.54-.16.06-.34.07-.53.03.15 0 .28-.03.38-.13.03-.02.08-.04.15-.04l.04-.02v-.03l.02-.04a.38.38 0 0 1 .13-.08c.02 0 .03 0 .04-.02l.03-.04a.33.33 0 0 1 .09-.09c.1-.06.18-.12.27-.2a.69.69 0 0 1 .08-.05 3.68 3.68 0 0 0 1.09-1.13c.1-.22.19-.4.24-.54.06-.14.1-.29.13-.45l.05-.49Z" fill="#A7D27D"/><path d="M12.77 29.22c0 .04.02.1.07.17.02.03.04.1.05.18v.03c.02.02.03.04.03.08l.02.05.02.05c0 .02 0 .03.02.04H13.62l.37-.05c.06 0 .12-.03.18-.07l.22-.13c-.13.23-.24.47-.33.71a7.64 7.64 0 0 1-1.05 0c-.06-.02-.08-.05-.07-.1.02-.22 0-.43-.1-.64a.25.25 0 0 0-.04-.08c-.02-.01-.02-.01-.02.01a.3.3 0 0 1-.03.18v.24l-.13-.34a7.87 7.87 0 0 0-.24-.44 1.47 1.47 0 0 1-.12-.19c.02-.1-.05-.17-.2-.2l-.09-.11.16.02c.04 0 .07.02.1.05.03.03.05.06.06.1.02.07.07.13.14.18.04.03.05.03.02-.02a4.07 4.07 0 0 0-.25-.34 2.34 2.34 0 0 0-.45-.37c.01-.03.05-.03.11.02l.11.09.04.03.05.03c.02.02.03.03.03.05l.03.03a.3.3 0 0 1 .1.08l.1.1c.06.06.1.1.12.14l.13.16.2.26Z" fill="#6CC5E9"/><path d="m12.62 29.55.12.34c.03.15.03.35.03.6 0 .07.04.12.12.14l.26.02c.42.01.8 0 1.11-.02.05 0 .1-.03.12-.07l.03-.02.08-.02.1-.03.47-.2c-.09.08-.18.14-.27.2a.33.33 0 0 0-.09.09.79.79 0 0 1-.03.04.09.09 0 0 1-.04.02.38.38 0 0 0-.13.08.05.05 0 0 0-.01.04c0 .01 0 .02-.02.03 0 .01-.01.02-.03.02-.07 0-.12.02-.15.04-.1.1-.23.14-.38.13a11.68 11.68 0 0 1-1.22-.03.67.67 0 0 0-.31-.1 10.17 10.17 0 0 1-.81-.1 1.7 1.7 0 0 1-.73-.36c-.23-.2-.43-.43-.6-.7a1.67 1.67 0 0 1-.22-1.17l.06-.01c.04-.05.06-.04.06.02a3.76 3.76 0 0 1 .03.3c.02.08.04.14.08.19.14.18.3.32.48.41a.67.67 0 0 1 .19.15c.08.07.13.13.16.17.05.08.12.12.22.13.01 0 .03 0 .03-.02.01-.01.02-.02.01-.04a.55.55 0 0 0-.16-.22.14.14 0 0 1-.04-.08.24.24 0 0 0-.04-.09l-.09-.15a.96.96 0 0 1-.1-.25.36.36 0 0 0-.03-.08.24.24 0 0 1-.04-.1l.01-.04h.03c.12 0 .22.07.29.18a.5.5 0 0 0 .3.2c.1.02.22.08.32.15l.07.03a.2.2 0 0 1 .07.03c.13.1.28.18.45.23.06.02.11.04.16.08.01.02.03.02.04.01.02 0 .03-.01.03-.03.01-.03.01-.08 0-.14Z" fill="#75B54A"/><path d="M14.44 28.77c.14.09.18.2.14.35-.04.13-.1.28-.2.45a6.4 6.4 0 0 1-.2.13.45.45 0 0 1-.19.07l-.37.04a2.1 2.1 0 0 1-.34.01 2.8 2.8 0 0 0-.3 0 .05.05 0 0 1-.02-.04.45.45 0 0 0-.02-.05.2.2 0 0 1-.02-.05.16.16 0 0 0-.02-.08l-.01-.03c-.01-.09-.03-.15-.05-.18-.05-.07-.08-.13-.07-.17.27.03.54 0 .81-.11a2.74 2.74 0 0 1 .32-.1c.04 0 .09-.02.15-.05a.94.94 0 0 1 .1-.04.4.4 0 0 1 .1-.02l.09-.03a.5.5 0 0 0 .06-.06l.04-.04Z" fill="#A2D8EE"/></svg>