<?xml version='1.0' encoding='utf-8'?>
<!-- by TradeStack -->
<svg width="56" height="56" viewBox="0 0 56 56" xmlns="http://www.w3.org/2000/svg"><path fill="#F0F3FA" d="M0 0h56v56H0z" /><path d="M27.82 12.04c.33.03.33.08.02.18-3.04.88-5.46 2.6-7.27 5.15a.15.15 0 0 1-.14.07h-5.48a.07.07 0 0 1-.06-.04.07.07 0 0 1 .01-.08c3.45-3.52 7.87-5.65 12.92-5.28Z" fill="#DD9644" /><path d="M43.13 22.57a314.93 314.93 0 0 1-4.5 4.52c-.06.05-.08.04-.08-.03.03-5.7-6.6-11.41-12.28-9.03-2.87 1.2-4.97 4.05-5.7 7.02a17.5 17.5 0 0 0-.46 4.61c0 .11-.01.12-.04 0a13.21 13.21 0 0 1 3.08-12.37c4.42-4.68 11.52-4.82 16.32-.63a14.08 14.08 0 0 1 3.78 5.44c.13.33.07.27-.12.47Z" fill="#3272B0" /><path d="M35.04 30.83c.08-.08.1-.08.03.02a13.63 13.63 0 0 1-10.5 6.45c-9.82.6-15.2-9.38-11.1-17.69a.11.11 0 0 1 .1-.06h6.7c.08 0 .09.02.03.07-4.89 4.46-3.27 14.65 4.2 15.54 4.33.52 7.57-1.48 10.54-4.33Z" fill="#3272B0" /><path d="M23.37 38.15c3.56 1.46 8.08-.04 10.61-2.71a6.9 6.9 0 0 0 1.27-8.02c-1.46-3.15-4.33-5.24-7.72-6.3a.07.07 0 0 1-.05-.03.07.07 0 0 1 .02-.1 14.12 14.12 0 0 1 8.64 4.54 10.6 10.6 0 0 1-1.06 15.37c-2.37 2-5.25 3.03-8.63 3.1-.26 0-.36.04-.48-.22a2670.15 2670.15 0 0 0-2.66-5.6v-.02l.03-.01h.03Z" fill="#3272B0" /><path d="M27.26 33.42c2.98 0 5.4-2.38 5.4-5.33a5.37 5.37 0 0 0-5.4-5.33 5.37 5.37 0 0 0-5.4 5.33 5.37 5.37 0 0 0 5.4 5.33ZM40.04 28.68l3.8-3.82a.1.1 0 0 1 .16.06c-.08 5.1-1.54 11.39-5.71 14.83a.06.06 0 0 1-.07 0 .05.05 0 0 1-.01-.07c1.81-3.06 2.2-7.4 1.78-10.85-.01-.06 0-.1.05-.15ZM21.36 38.87c.02 0 .03.02.04.04l2.18 4.67a.06.06 0 0 1-.02.07.06.06 0 0 1-.06.02c-4.6-1.66-9.8-5.24-11.5-10a.05.05 0 0 1 .02-.06.05.05 0 0 1 .06.01c2.22 2.65 5.95 4.41 9.28 5.25Z" fill="#DD9644" /></svg>