<?xml version='1.0' encoding='utf-8'?>
<!-- by TradeStack -->
<svg width="56" height="56" viewBox="0 0 56 56" xmlns="http://www.w3.org/2000/svg"><path fill="#F0F3FA" d="M0 0h56v56H0z" /><path d="M16.68 40.82c.66-.15 1.23-.59 1.43-.79l-2.86-1.78 2.05-1.77-1.44-1.58c.41-.4 1.44-1.19 2.25-.8.66.32.28 1.72 0 2.38l-1.02 1.38 2.05 1.58c.98-.79 1.5-2.57 1.63-3.36a19.18 19.18 0 0 1-2.45-2.57c-3.27-.79-5.32 3.95-5.32 4.35 0 .32.27.66.4.79l3.28 2.17Z" fill="#726849" /><path d="M18.73 40.23c-.17.47-.89.72-1.23.8.2.72 5.73 2.05 9.2 1.97 6.88-.16 11.73-3.63 13.3-5.34l-.61-.79c-2.87 2.77-9.41 2.77-10.44 2.77-.81 0-1.3-.92-1.43-1.39l.41-.59-.4-.6-.21-1.97-1.02-.59v-1.58l-1.03-.6v-1.18c-.47.33-1.39 1.15-1.22 1.78.2.79 1.63 2.37 2.04 3.56.33.94-.54 1.84-1.02 2.17.49-1.1.2-2.17 0-2.57-.48-.6-1.52-1.94-1.84-2.57-.41-.79-.2-1.97.61-3.16.66-.95 5.32-5.53 7.57-7.7l.61 1.77c1.03-1.18 6.14-6.91 6.96-9.28.65-1.9.4-4.22.2-5.14-.2 1.78-5.93 8.3-9.61 12.25-3.68 3.95-7.37 8.7-7.57 9.29-.16.47.34 1.77.61 2.37a2.94 2.94 0 0 1-1.22-2.37c0-1.58 3.27-5.14 4.7-6.92 1.43-1.78 4.91-5.73 4.91-7.5a5.7 5.7 0 0 0-.82-2.97c.2 1.98-2.45 4.74-4.3 7.7-1.83 2.97-5.52 6.92-5.52 9.69 0 2.76 4.1 5.33 4.1 5.73 0 .31-.28.79-.41.98l-2.66-1.77a4.86 4.86 0 0 1-1.84 3.16c1.43.66 4.86 1.97 7.15 1.97 2.3 0 6.77-.92 8.72-1.38-1.33.6-4.95 1.82-8.72 1.98a14.61 14.61 0 0 1-7.97-1.98Z" fill="#726849" /><path d="M24.45 30.35a4.1 4.1 0 0 0-.81 2.37c.16-1.42 1.61-2.3 2.36-2.57v1.19l5-5.14v-2.17c-1.9 1.78-5.9 5.53-6.55 6.32ZM31.4 27.19l-5.1 4.74v.4h.7v1.58l4.4-4.55V27.2ZM31.4 30.55l-4.08 3.75H28v1.98l3.4-3.56v-2.17ZM31 34.3l-2.86 2.57.4.4-.2.4v.58L31 35.88V34.3ZM31 36.67l-2.45 1.98c.06.2.32.55.81.4.5-.16 1.3-1.65 1.64-2.38ZM32 34.9v-1.78c1.64-1.1 4.32-4.15 5.55-5.53-.99 2.68-4.05 5.99-5.55 7.3ZM38.36 22.65c-.65 1.73-4.59 5.07-6.36 6.52v2.76c4.42-3.32 6.16-7.57 6.36-9.28ZM32 28.38v-3.36c2.3-1.27 5.82-6.06 7.18-8.3.19 4.82-4.78 9.78-7.18 11.66Z" fill="#726849" /></svg>