<!-- by TradeStack --><svg width="56" height="56" viewBox="0 0 56 56" xmlns="http://www.w3.org/2000/svg"><path fill="#F0F3FA" d="M0 0h56v56H0z"/><path d="M27.72 16.5h6.1L31.05 12h-6.39l-6.2 10.5h5.68l3.58-6Zm-7.1.5-2.81 5.2 3.58 6.01-2.97 4.69-6.2-10.41L15.18 17h5.46Zm-5.7 11.59 3.01 4.91h7.16l2.7 4.5H15.42L12 33.18l2.91-4.6Zm23.5 4.83L35.45 38h5.6L44 33.12l-6.2-10.4-2.96 4.68 3.58 6.02ZM22.26 39h6.08l3.58-6h5.67l-6.37 11h-6.18l-2.78-5Zm18.7-12-3.04-5h-7.16l-2.7-5 12.7.02 3.1 5.22-2.9 4.76Z" fill="#00ADF1"/></svg>