<!-- by TradeStack --><svg viewBox="0 0 56 56" xmlns="http://www.w3.org/2000/svg"><path fill="#F0F3FA" d="M0 0h56v56H0z"/><path d="M6 29v-4h2.02c.54 0 .98.48.98 1.07v.35c0 .27-.1.52-.25.71.15.15.25.36.25.6V29h-.69v-1.18a.41.41 0 0 0-.18-.34H6.66V29H6Zm1.82-3.35h-1.2v1.16h1.2c.3 0 .55-.26.55-.58 0-.32-.25-.58-.55-.58ZM11.7 25H11v4h.7v-4Zm2.3 0v4h.62v-2.67L16.25 29H17v-4h-.62v2.9L14.76 25H14Zm7.56 1.36h.75v-.14A1.2 1.2 0 0 0 21.1 25h-.92c-.66 0-1.19.54-1.19 1.22v1.56c0 .68.53 1.22 1.2 1.22h.91c.66 0 1.2-.54 1.2-1.22v-.95h-1.96v.64h1.21v.42c0 .26-.2.47-.45.47h-.94a.46.46 0 0 1-.45-.47v-1.77c0-.26.2-.47.45-.47h.94c.25 0 .45.21.45.47v.24ZM24 25v4h.7v-2.41l1 2.41h.65l.89-2.41V29H28v-4h-.92l-1.06 2.7-1.06-2.7H24Zm9 0h-3v.72h3V25Zm0 1.55h-3v.72h3v-.72Zm-3 1.73h3V29h-3v-.72Zm4-2.58h1.27V29H36v-3.3h1.23V25H34v.7Zm4.11 3.3h.77l1-2.9 1.13 2.9h.83l-1.55-4h-.81l-1.37 4Zm5.19 0v-4h.7v3.4h1.91v.6H43.3Zm4-4v4H50v-.6h-2V25h-.7Z" fill="url(#amv4x0ie0)"/><path d="M21.38 20.61C23.5 19.08 29.78 16 37.86 16c7.22 0 9.26 3.8 7.6 8h-2.2c4.3-8.26-10.29-9.22-21.88-3.39ZM36.78 31a38.38 38.38 0 0 1-18.85 7.3c7.07.03 15.33-2.85 21.41-7.3h-2.56Z" fill="url(#bmv4x0ie0)"/><path d="M33.75 35.39C31.62 36.92 25.35 40 17.27 40c-7.79 0-9.56-4.43-7.15-9h2.35c-6.05 9.17 9.23 10.45 21.28 4.39ZM19.75 24c6.5-4.41 13.84-6.05 17.45-6.3-6.53-.03-14.07 2.42-19.97 6.3h2.51Z" fill="url(#cmv4x0ie0)"/><defs><linearGradient id="amv4x0ie0" x1="28.05" y1="25" x2="28.05" y2="29" gradientUnits="userSpaceOnUse"><stop stop-color="#31313D"/><stop offset=".49" stop-color="#6F717D"/><stop offset=".54" stop-color="#30323E"/><stop offset="1" stop-color="#2C2E3A"/></linearGradient><linearGradient id="bmv4x0ie0" x1="26.88" y1="18.08" x2="32.1" y2="36.39" gradientUnits="userSpaceOnUse"><stop stop-color="#55859F"/><stop offset=".36" stop-color="#6CBDE8"/><stop offset="1" stop-color="#4B95BC"/></linearGradient><linearGradient id="cmv4x0ie0" x1="15.62" y1="23.63" x2="39.82" y2="31.05" gradientUnits="userSpaceOnUse"><stop offset=".18" stop-color="#31333F"/><stop offset=".28" stop-color="#2E659E"/><stop offset=".46" stop-color="#565962"/></linearGradient></defs></svg>