<?xml version='1.0' encoding='utf-8'?>
<!-- by TradeStack -->
<svg width="56" height="56" viewBox="0 0 56 56" xmlns="http://www.w3.org/2000/svg"><path fill="#F0F3FA" d="M0 0h56v56H0z" /><path fill-rule="evenodd" d="m27.96 8-9.33 18.25C17.75 27.97 16 32.37 16 36.2 16 41 19.43 47 27.96 47 36.5 47 40 40.77 40 36.2c0-3.64-1.75-8.16-2.63-9.95L27.97 8Zm-8.61 21.17c-.77 1.19-1.8 4.75-1.8 7.4 0 3.32 2.98 8.63 10.42 8.63 7.43 0 10.48-5.46 10.48-8.63 0-2.53-1.48-6.16-2.24-7.4l-3.84-5.66-4.4-5.34-4.64 5.34-3.98 5.66Z" fill="#263379" /><path d="M35.58 40a5.53 5.53 0 0 0 1.15-3.32c0-1.5-.65-2.89-1.74-4.02V33H31v3h3v1h-3v3h4.58Zm-.91 1H28v-9h6.26a10.94 10.94 0 0 0-6.8-2.2c-5.13 0-9.28 3.08-9.28 6.88 0 .8.2 1.59.54 2.3l4.9-6.98H27v9h-3v-4h-2.41l-2.14 3.16c1.62 2.03 4.6 3.4 8 3.4 2.92 0 5.52-1 7.22-2.56Zm-12.4-5H24v-2h-.38l-1.36 2Z" fill="#E13006" /></svg>