<!-- by TradeStack --><svg width="56" height="56" viewBox="0 0 56 56" xmlns="http://www.w3.org/2000/svg"><path fill="#F0F3FA" d="M0 0h56v56H0z"/><path fill-rule="evenodd" d="M4 25v5h1v-2.12h2.51V30h.99v-5h-.99v2H5v-2H4Zm6 5H9l1.83-5H12l1.84 5h-1.01l-.43-1.23h-1.96L10 30Zm1.44-3.97.69 1.97H10.7l.7-1.97h.04ZM14.5 25v5h1v-1.69h.94c.4 0 .74-.07 1.02-.21.27-.15.48-.34.62-.59.14-.25.21-.53.21-.85 0-.32-.07-.6-.2-.85a1.46 1.46 0 0 0-.63-.6c-.27-.14-.6-.21-1-.21H14.5Zm1 2.57h.82c.23 0 .42-.04.57-.12a.75.75 0 0 0 .33-.32c.07-.14.11-.3.11-.47a.97.97 0 0 0-.1-.47.73.73 0 0 0-.34-.32 1.27 1.27 0 0 0-.58-.11h-.81v1.8ZM19 30v-5h2.06c.42 0 .78.07 1.06.21.3.15.51.34.66.6.15.24.22.53.22.85a1.53 1.53 0 0 1-.88 1.44c-.3.14-.65.21-1.07.21H20V30h-1Zm1.91-2.43H20v-1.81h.9c.26 0 .46.04.62.11.16.08.27.18.35.32.08.13.12.29.12.47 0 .17-.04.33-.12.47a.78.78 0 0 1-.35.32c-.16.08-.36.12-.6.12ZM24.22 25h-1.06L25 28.13V30h1v-1.87L27.89 25h-1.07l-1.27 2.21h-.05L24.22 25Zm6.28.76V25h4v.76H33V30h-1v-4.24h-1.5Zm7 4.24c1.45 0 2.5-1.05 2.5-2.5S38.95 25 37.5 25a2.42 2.42 0 0 0-2.5 2.5c0 1.45 1.05 2.5 2.5 2.5Zm0-4.2c.98 0 1.5.78 1.5 1.7 0 .92-.52 1.7-1.5 1.7s-1.5-.78-1.5-1.7c0-.92.52-1.7 1.5-1.7Zm3.98 4.2L40 25h1.02l.95 3.67h.05L43.03 25h.94l1.01 3.68h.05l.95-3.68H47l-1.48 5h-.95l-1.05-3.5h-.04L42.43 30h-.95ZM52 25v5h-.88l-2.58-3.4h-.05V30h-.99v-5h.89l2.58 3.4H51V25h1Z"/></svg>