<!-- by TradeStack --><svg width="56" height="56" viewBox="0 0 56 56" xmlns="http://www.w3.org/2000/svg"><path fill="#F0F3FA" d="M0 0h56v56H0z"/><path d="M7.5 23.8 8.54 19c.33.16 1.64.82 4.25 2.2 2.6 1.37 5.3 1.8 6.31 1.8h8.34L27 25h-8.24c-3.55 0-8.98-.8-11.26-1.2Z" fill="#E54197"/><path d="m7.25 24.96-1.03 4.96c.34-.04 1.66-.22 4.2-.65a62.8 62.8 0 0 1 7.19-.77h8.66l.52-2h-7.55c-3.36 0-9.4-1.06-11.99-1.54Z" fill="#00A890"/><path d="m5 36 .99-5.1c3.68-.7 7.15-.68 10.86-.9h9.3l-.5 2h-6.99c-3.25 0-5.6.5-6.36.9L5 36Z" fill="#0092CF"/><path d="m29.3 23-1.77 9h2.3l.8-4h1.18l-.8 4h2.3l1.8-9H32.8l-.6 3h-1.17l.6-3H29.3Zm6.83 0-1.8 9h4.87l.32-1.5h-3.2l.49-2.5h2.71l.34-1.5h-2.79l.45-1.95h3.06l.3-1.55h-4.75Zm3.54 9 1.8-9h2.82c.54-.02 1.62.33 1.62 1.88a2.94 2.94 0 0 1-1.74 2.65c.3.09.9.46.84 1.22-.06.76-.14 1.35-.17 1.55l3.52-7.3h.93l.71 9h-.8l-.2-3.3h-2.65l-1.5 3.3H43.7c-.04-.14-.1-.46-.1-.69 0-.22.24-1.72.36-2.45 0-.27-.16-.86-.85-.86h-1.64l-.78 4h-1.02Zm7-4h2.28l-.27-4.38-2 4.38Zm-4.4-4-.61 3h1.48c.76 0 1.68-.7 1.68-1.86 0-.92-.8-1.14-1.2-1.14h-1.36Z" fill="#231F20"/></svg>