<?xml version='1.0' encoding='utf-8'?>
<!-- by TradeStack -->
<svg width="56" height="56" viewBox="0 0 56 56" xmlns="http://www.w3.org/2000/svg"><path fill="#F0F3FA" d="M0 0h56v56H0z" /><path fill-rule="evenodd" d="M17.13 39.17c3.7 3.75 7.74 5.73 9.03 4.42 1.29-1.31-.66-5.41-4.35-9.16-3.7-3.75-7.74-5.73-9.03-4.42-1.3 1.31.66 5.41 4.35 9.16Zm.97-.98c3.27 3.33 6.67 5.26 7.6 4.33.91-.94-1-4.39-4.27-7.71-3.27-3.33-6.67-5.26-7.6-4.33-.92.94 1 4.39 4.27 7.71Z" fill="url(#a1thsernn)" /><path d="M34.87 35.85a9.93 9.93 0 0 1-14.2 0 10.29 10.29 0 0 1 0-14.4 9.93 9.93 0 0 1 14.2 0 10.29 10.29 0 0 1 0 14.4Z" fill="url(#b1thsernn)" /><path d="M33.27 29.25a5.74 5.74 0 0 1-8.2 0 5.95 5.95 0 0 1 0-8.32 5.74 5.74 0 0 1 8.2 0 5.95 5.95 0 0 1 0 8.32Z" fill="#D1D9DD" /><path d="M32.28 27.02a3.84 3.84 0 0 1-5.48 0 3.98 3.98 0 0 1 0-5.56 3.84 3.84 0 0 1 5.48 0 3.98 3.98 0 0 1 0 5.56Z" fill="#F5F8F7" /><path d="M31.65 25.87a2.69 2.69 0 0 1-3.84 0 2.78 2.78 0 0 1 0-3.9 2.69 2.69 0 0 1 3.84 0 2.78 2.78 0 0 1 0 3.9Z" fill="#fff" /><path d="M19.33 23.05c-3.05-1.58-5.57-1.95-6.71-.75-2.05 2.17 1.14 8.63 7.1 14.42 5.98 5.8 12.48 8.74 14.52 6.57.97-1.03.77-3-.33-5.4-.22.13-.44.24-.67.35.68 1.55.81 2.75.24 3.36-1.46 1.55-6.93-1.36-12.22-6.5-5.3-5.13-8.4-10.55-6.95-12.1.73-.77 2.44-.44 4.63.72.12-.23.25-.46.39-.67Z" fill="url(#c1thsernn)" /><path fill-rule="evenodd" d="M28.87 27.45c5.97 5.8 12.47 8.73 14.51 6.56 2.05-2.17-1.14-8.62-7.1-14.41-5.98-5.8-12.48-8.74-14.52-6.57-2.05 2.17 1.13 8.63 7.1 14.42Zm1.52-1.62c5.3 5.14 10.77 8.05 12.23 6.5 1.46-1.55-1.65-6.97-6.94-12.1-5.3-5.14-10.77-8.05-12.23-6.5-1.46 1.55 1.65 6.97 6.94 12.1Z" fill="url(#d1thsernn)" /><path fill-rule="evenodd" d="M34.26 20.96c3.23 3.27 6.83 4.94 8.03 3.72 1.2-1.22-.44-4.86-3.67-8.14-3.23-3.28-6.83-4.95-8.03-3.73-1.2 1.22.44 4.87 3.67 8.15Zm.9-.92c2.87 2.91 5.88 4.56 6.74 3.69.86-.87-.77-3.93-3.63-6.84-2.86-2.9-5.88-4.56-6.74-3.68-.86.87.77 3.93 3.63 6.83Z" fill="url(#e1thsernn)" /><path d="M42.36 40.5c-2.73 2.9-11.3-.92-19.14-8.53-7.84-7.6-11.99-16.11-9.26-19 2.39-2.53 9.24.07 16.18 5.86a9.78 9.78 0 0 0-2.08-.23c-5.43-4.3-10.32-6.37-11.87-4.73-1.94 2.06 2.12 9.2 9.07 15.94s14.16 10.53 16.11 8.47c1.35-1.43-.18-5.3-3.56-9.78-.01-.71-.1-1.41-.24-2.1 4.82 6.07 6.94 11.83 4.8 14.1Z" fill="url(#f1thsernn)" /><defs><linearGradient id="a1thsernn" x1="13.34" y1="31.67" x2="25.24" y2="43.39" gradientUnits="userSpaceOnUse"><stop stop-color="#685E98" /><stop offset=".25" stop-color="#9294C1" /><stop offset=".49" stop-color="#C1CFEC" /><stop offset=".65" stop-color="#9EA3CA" /><stop offset="1" stop-color="#5B4F8E" /></linearGradient><linearGradient id="b1thsernn" x1="21.55" y1="20.85" x2="32.52" y2="37.86" gradientUnits="userSpaceOnUse"><stop stop-color="#E2E4E2" /><stop offset=".51" stop-color="#D3D3E5" /><stop offset=".79" stop-color="#76929D" /><stop offset="1" stop-color="#D5DFE7" /></linearGradient><linearGradient id="c1thsernn" x1="13.64" y1="22.46" x2="34.3" y2="42.83" gradientUnits="userSpaceOnUse"><stop stop-color="#056DAC" /><stop offset=".3" stop-color="#3FB2E4" /><stop offset=".49" stop-color="#B4DFF9" /><stop offset=".66" stop-color="#67C0E7" /><stop offset="1" stop-color="#056FAB" /></linearGradient><linearGradient id="d1thsernn" x1="23.75" y1="17.11" x2="39.84" y2="32.96" gradientUnits="userSpaceOnUse"><stop stop-color="#659C37" /><stop offset=".26" stop-color="#D4E06C" /><stop offset=".5" stop-color="#EFF3AE" /><stop offset=".73" stop-color="#D3D670" /><stop offset="1" stop-color="#689B35" /></linearGradient><linearGradient id="e1thsernn" x1="31.39" y1="13.96" x2="42.31" y2="24.66" gradientUnits="userSpaceOnUse"><stop stop-color="#A88115" /><stop offset=".48" stop-color="#F1F381" /><stop offset="1" stop-color="#A27D32" /></linearGradient><linearGradient id="f1thsernn" x1="15.67" y1="13.56" x2="41.48" y2="39" gradientUnits="userSpaceOnUse"><stop stop-color="#C28514" /><stop offset=".24" stop-color="#EFC212" /><stop offset=".4" stop-color="#FDF414" /><stop offset=".65" stop-color="#F9F150" /><stop offset=".79" stop-color="#F0BC07" /><stop offset="1" stop-color="#BC8311" /></linearGradient></defs></svg>