<!-- by TradeStack --><svg width="56" height="56" viewBox="0 0 56 56" xmlns="http://www.w3.org/2000/svg"><path fill="#F0F3FA" d="M0 0h56v56H0z"/><path d="M27.49 33.62c0-.8-.58-.91-.86-.87.1.56.56.7.77.7 0 .06.02.17.09.17ZM28.6 33.62c0-.8.57-.91.86-.87a.8.8 0 0 1-.77.7c0 .06-.02.17-.09.17ZM27.9 34.8c.03.1.05.18.1.2.05-.02.07-.1.1-.2.02-.08.04-.16.08-.2.1-.1.32-.35.32-.6-.07.3-.36.42-.5.44-.14-.02-.43-.14-.5-.44 0 .25.23.5.32.6.04.04.06.12.09.2Z"/><path d="M25.65 31.13c.37-.64.8-1.13 2.35-1.13 1.56 0 1.98.5 2.35 1.13.28.47.66.7 1.2.7 3.35 0 5.36-3.02 5.45-3.24 8.2-2.34 10.9-8 11.55-9.38l.1-.21c0 5.24-1.85 6.85-2.8 7.67-.12.11-.23.2-.32.3A7.88 7.88 0 0 0 49 24.82c-1.37 3.68-3.91 4.8-5.01 4.9.2.14.68.4 1.02.4.32 0 .63-.07.87-.12l.25-.05c-.3.74-2.06 2.5-6.86 2.89-4.8.39-8.27 1.62-8.27 2.54 0 .92 1.29 1 1.67 1-.73.7-1.8.84-2.14.84-.34 0-.64-.09-.86-.22.09.44.47.74.82.92a3.26 3.26 0 0 1-2.49-.49c-.4.28-1.46.77-2.49.49.35-.18.73-.48.82-.92-.22.13-.52.22-.86.22a3.4 3.4 0 0 1-2.14-.84c.38 0 1.67-.08 1.67-1s-3.47-2.15-8.27-2.54c-4.8-.4-6.56-2.15-6.86-2.9l.25.06c.24.05.55.12.87.12.34 0 .82-.26 1.02-.4-1.1-.1-3.64-1.22-5.01-4.9a7.88 7.88 0 0 0 3.47 2.15l-.33-.3c-.94-.82-2.8-2.43-2.8-7.67l.1.21C8.1 20.6 10.8 26.25 19 28.6c.09.22 2.1 3.24 5.44 3.24.57 0 .92-.2 1.21-.7ZM28 35.86c1.03-.83 2.27-2.15 2.27-3.02 0-.88-.47-1.4-.98-1.4-.76 0-1.18.26-1.29.39-.11-.13-.53-.4-1.29-.4-.51 0-.98.53-.98 1.4 0 .88 1.24 2.2 2.27 3.03Z"/><path d="M28.93 27.62 28 26l-.92 1.62a4.1 4.1 0 0 0-1.73.87l-.93-.43.45.9a4.14 4.14 0 0 0-.94 2.04l-.93.25 1.33.36v-.13A3.68 3.68 0 0 1 28 27.96c2 0 3.62 1.6 3.67 3.6v.05l1.33-.36-.94-.25a4.14 4.14 0 0 0-.94-2.04l.44-.9-.92.42a4.1 4.1 0 0 0-1.71-.86Z" fill="#C0912D"/></svg>