<!-- by TradeStack --><svg width="56" height="56" viewBox="0 0 56 56" fill="none" xmlns="http://www.w3.org/2000/svg">
<rect width="56" height="56" fill="#F0F3FA"/>
<path fill-rule="evenodd" clip-rule="evenodd" d="M6.71069 23H4.11175C4.05003 23 4 23.0501 4 23.1118C4 23.1735 4.05021 23.2231 4.11178 23.2273C4.70055 23.2673 5.00324 23.6178 5.00442 23.7982V29.0164C4.94949 29.5513 4.69926 29.7209 4.58102 29.7389H4.13028C4.05833 29.7389 4 29.7972 4 29.8691C4 29.9411 4.05833 29.9994 4.13028 29.9994H6.86972C6.94167 29.9994 7 29.9411 7 29.8691C7 29.7972 6.94167 29.7389 6.86972 29.7389H6.50178C6.14475 29.693 6.01439 29.2381 6 29.0164V26.845C6 26.619 6.21348 26.5323 6.31405 26.5172H8.82181C8.99137 26.5342 8.99647 26.6389 8.99939 26.6989L9 26.7104V29.0164C9 29.5808 8.74997 29.7714 8.59553 29.7961H8.40624C8.3501 29.7961 8.30459 29.8416 8.30459 29.8978C8.30459 29.9539 8.3501 29.9994 8.40624 29.9994H12.8697C12.9417 29.9994 13 29.9411 13 29.8691C13 29.7972 12.9417 29.7389 12.8697 29.7389H12.4563C12.1029 29.693 12.0108 29.1863 12 28.9387V27.0731C12.0086 26.8323 12.1438 26.7833 12.2192 26.7889H13.0082C13.2668 26.7889 13.4406 26.9784 13.4952 27.0731L14.7889 29.0164C15.3246 29.8333 15.8982 30.0121 16.1181 29.9994H18.6867C18.7587 29.9994 18.817 29.9411 18.817 29.8691C18.817 29.7972 18.7587 29.7389 18.6867 29.7389H18.3503C18.0499 29.7389 18.0014 29.3624 18 29.1741V27.3951C17.9811 27.1447 18.1453 26.6278 19.0707 26.5634C19.996 26.499 20.2679 27.3382 20.2882 27.7659V29.2478C20.3044 29.6326 20.1529 29.7737 20.0751 29.7961H19.913C19.8568 29.7961 19.8113 29.8416 19.8113 29.8978C19.8113 29.9539 19.8568 29.9994 19.913 29.9994H21.6393C21.7112 29.9994 21.7696 29.9411 21.7696 29.8691C21.7696 29.7972 21.7112 29.7389 21.6393 29.7389H21.384C21.0999 29.7389 21.0203 29.4115 21 29.2478V27.8461C20.9797 26.8139 20.3491 25.9364 19.4055 26C18.6506 26.051 18.1637 26.5833 18 26.827V26H17.6918L16.5781 26.4008C16.5285 26.4187 16.4953 26.4658 16.4953 26.5186C16.4953 26.5878 16.5514 26.6439 16.6205 26.6439H16.8012C17.1466 26.6083 17.239 26.8542 17.242 26.9815V29.1741C17.248 29.3696 17.1772 29.7677 16.8462 29.7961C16.5151 29.8245 16.0176 29.2881 15.8102 29.0164L14.0645 26.505C14.482 26.4508 15.3169 26.0102 15.3169 24.6808C15.3169 23.3514 14.1024 23.0064 13.4952 23H8.42176C8.35705 23 8.30459 23.0525 8.30459 23.1172C8.30459 23.1775 8.35076 23.2272 8.40999 23.2387C8.84924 23.3235 8.96995 23.6399 9 23.7982V25.733C9.00862 25.9118 8.90442 25.9823 8.82181 26H6.31405C6.07268 26.0085 6 25.8288 6 25.733V23.7982C6.01499 23.4577 6.46541 23.2964 6.72678 23.2414C6.78529 23.2291 6.82965 23.1788 6.82965 23.119C6.82965 23.0533 6.77639 23 6.71069 23ZM10 23.7992C10 23.523 10.2239 23.2992 10.5 23.2992C10.7761 23.2992 11 23.523 11 23.7992V29.3029C11 29.5791 10.7761 29.8029 10.5 29.8029C10.2239 29.8029 10 29.5791 10 29.3029V23.7992ZM11.9966 23.882C11.9876 23.7098 12.1231 23.3719 12.7374 23.3981C13.5052 23.4309 14.5169 23.8656 14.5621 25.0219C14.6073 26.1782 13.5955 26.3668 13.0806 26.3914H12.2676C12.1773 26.3941 11.9966 26.3242 11.9966 26.0224V23.882Z" fill="#898989"/>
<path fill-rule="evenodd" clip-rule="evenodd" d="M25.4619 29.1291C25.6133 29.0123 25.6551 29.1291 25.6551 29.1291C25.5962 29.6063 24.682 30 23.9327 30C23.2859 30 21.9607 29.536 22.0009 28.0177C22.0523 26.0752 23.6017 26 23.8117 26C23.8131 26 23.8146 26 23.8162 26C24.0364 26 25.0788 25.9996 25.5543 27.2742C25.6019 27.3681 25.6283 27.5685 25.3527 27.6186H22.6897C22.6617 28.2551 22.935 29.5298 24.2522 29.536C24.4763 29.5387 25.0318 29.4609 25.4619 29.1291ZM22.7303 27.3609C22.7625 26.9951 23.0143 26.2634 23.7633 26.2634C24.0081 26.2585 24.5558 26.4132 24.7882 27.0717C24.8259 27.1681 24.8221 27.3609 24.5057 27.3609H22.7303Z" fill="#898989"/>
<path d="M31.7318 23.0011C33.0335 23.0345 33.9759 23.4139 34.2844 23.5994L34.4134 23.419C34.4448 23.375 34.4956 23.3489 34.5497 23.3489C34.6422 23.3489 34.7173 23.424 34.7173 23.5165V23.5994C34.7667 23.9955 34.8604 24.5206 34.9223 24.845C34.9409 24.9428 34.8812 25.0386 34.7849 25.0643C34.7013 25.0865 34.6138 25.049 34.5673 24.976C34.1737 24.3587 33.1717 23.3343 31.7318 23.3489C29.8028 23.3685 29 25.0187 29 26.3545C29 27.9268 30.1255 29.6818 32.0005 29.5965C33.5005 29.5283 33.9782 28.6683 34 28.2468V26.779C34 26.4451 33.5927 26.306 33.4186 26.2781H33.1397C33.0629 26.2781 33.0006 26.2159 33.0006 26.1391C33.0006 26.0623 33.0629 26 33.1397 26H35.4685C35.5453 26 35.6076 26.0623 35.6076 26.1391C35.6076 26.2159 35.5453 26.2781 35.4685 26.2781H35.4285C35.1299 26.3338 35 26.6353 35 26.779V28.9008C34.6567 29.2626 33.2499 30 31.7318 30C30.2137 30 28 29.0831 28 26.6188C28 24.1699 30.1047 22.9593 31.7318 23.0011Z" fill="#FF6D1B"/>
<path d="M26.9963 26V25.0523C26.9963 24.9991 26.9209 24.977 26.8875 25.0197C26.5723 25.4219 26.1705 26.0058 25.6245 26.3035C25.586 26.3244 25.5349 26.3537 25.5521 26.394C25.5603 26.413 25.5793 26.4277 25.6048 26.4277H26.2519V28.7785C26.2427 29.4266 26.6059 30.0572 27.3462 29.9959C27.9385 29.9469 28.4073 29.6135 28.5677 29.4529L28.4289 29.3128C28.1106 29.537 27.7349 29.593 27.5868 29.593C26.9946 29.551 26.9901 29.1551 26.9963 28.9625V26.4277H28.0865C28.3604 26.3156 28.4289 25.9723 28.4289 25.8147C28.3327 25.9478 28.1605 25.9913 28.0865 26H26.9963Z" fill="#898989"/>
<path d="M36.7385 26.8766V26.1519C36.7385 25.9396 36.535 25.9954 36.4332 26.0498C36.2083 26.2152 35.5891 26.3472 35.2393 26.4042C35.191 26.4121 35.1554 26.4535 35.1554 26.5024C35.1554 26.5569 35.1995 26.601 35.254 26.601H35.506C35.8497 26.6092 35.9698 26.897 36 27.0399V29.2753C36.009 29.6101 35.8867 29.7483 35.8113 29.7755H35.6182C35.5562 29.7755 35.506 29.8257 35.506 29.8878C35.506 29.9498 35.5562 30 35.6182 30H37.4405C37.5025 30 37.5527 29.9498 37.5527 29.8878C37.5527 29.8257 37.5025 29.7755 37.4405 29.7755H37.2022C36.8584 29.7591 36.7498 29.4352 36.7385 29.2753V27.438C36.7385 26.9991 37.1117 26.7337 37.4057 26.7133C37.6409 26.6969 37.9711 26.8494 38.1068 26.9276C38.333 26.8133 38.4951 26.5874 38.5479 26.4887C38.3488 26.1784 37.9824 26.0668 37.8241 26.0498C37.3718 26.0661 36.9119 26.6078 36.7385 26.8766Z" fill="#898989"/>
<path fill-rule="evenodd" clip-rule="evenodd" d="M40.1176 30C41.2871 30 42.2351 29.1046 42.2351 28C42.2351 26.8955 41.2871 26 40.1176 26C38.9481 26 38 26.8955 38 28C38 29.1046 38.9481 30 40.1176 30ZM40.3923 29.7478C41.1388 29.637 41.6129 28.7645 41.4513 27.7989C41.2897 26.8333 40.5536 26.1403 39.8071 26.2511C39.0606 26.3618 38.5864 27.2344 38.748 28.1999C38.9096 29.1655 39.6458 29.8585 40.3923 29.7478Z" fill="#898989"/>
<path d="M43.7334 28.6761V26.1824C43.7334 26.0978 43.6567 25.9466 43.3497 26.0192C43.0981 26.0786 42.7147 26.0934 42.4672 26.0935C42.3902 26.0935 42.3265 26.146 42.3265 26.2116C42.3265 26.2756 42.3875 26.3275 42.4628 26.3275H42.6462C42.9191 26.3275 42.9929 26.5632 43 26.6811V28.4494C42.968 29.1204 43.3284 30 44.4901 30C45.4195 30 45.8756 29.5648 46 29.3471V29.8038C46 29.9122 46.1282 30 46.2556 30H47.2826C47.3591 30 47.4212 29.9473 47.4212 29.8822C47.4212 29.817 47.3591 29.7643 47.2826 29.7643H47.0694C46.7966 29.7643 46.7284 29.2867 46.7284 29.1204V26.1824C46.7284 25.9865 46.5507 25.992 46.4619 26.0192C46.2529 26.0989 45.8008 26.1065 45.5071 26.0978C45.4297 26.0955 45.3641 26.1476 45.3641 26.2136C45.3641 26.2765 45.4241 26.3275 45.498 26.3275H45.6093C45.9418 26.3492 46 26.5058 46 26.5814V28.6761C46.0497 28.9814 45.929 29.5974 44.9484 29.6192C43.9679 29.6409 43.7298 28.9995 43.7334 28.6761Z" fill="#898989"/>
<rect x="4" y="30" width="48" height="0.999988" fill="#FF6D1B"/>
<path fill-rule="evenodd" clip-rule="evenodd" d="M48.6972 26.0738V26.7804C48.8676 26.5449 49.4213 26.0738 50.2725 26.0738C51.3366 26.0738 51.9861 26.8318 51.9999 28.0652C52.0137 29.2986 51.1293 29.9615 49.9133 30.0001C49.7198 30.0172 49.2058 29.9872 48.6972 29.648V31.2387C48.7064 31.3929 48.8216 31.7012 49.2085 31.7012H49.42C49.5016 31.7012 49.5678 31.7674 49.5678 31.849C49.5678 31.9306 49.5016 31.9967 49.42 31.9967H47.5322C47.4506 31.9967 47.3844 31.9306 47.3844 31.849C47.3844 31.7674 47.4506 31.7012 47.5322 31.7012H47.6608C47.7621 31.6798 47.9889 31.5573 48 31.2387V27.0246C47.9862 26.9175 47.8819 26.7034 47.6608 26.7034H47.3665C47.2925 26.7034 47.2324 26.6433 47.2324 26.5693C47.2324 26.5053 47.2775 26.4504 47.3399 26.4364C47.6307 26.3712 48.1252 26.2364 48.407 26.0738C48.5037 26.0181 48.6972 25.9402 48.6972 26.0738ZM48.711 27.0789C48.8217 26.9028 49.1973 26.5529 49.8138 26.5621C50.5844 26.5735 51.2088 27.1938 51.2354 27.9633C51.262 28.7329 51.0267 29.6058 49.9068 29.6058C49.083 29.6058 48.7376 29.1196 48.711 28.8362V27.0789Z" fill="#898989"/>
</svg>
