<!-- by TradeStack --><svg viewBox="0 0 56 56" xmlns="http://www.w3.org/2000/svg"><path fill="#393D48" d="M0 0h56v56H0z"/><path d="M6.32 26v-1.3c0-.45-.02-1.34-.05-1.67.26 0 .51 0 .73-.03l-.02 1.02v2.33c0 .6-.14.94-.41 1.21-.28.29-.67.44-1.17.44-.72 0-1.25-.37-1.4-1l.66-.21c.1.43.4.6.82.6.54 0 .84-.33.84-.87V26Zm30.37-3c-.02.16-.03.49-.03.7v3.18c0 .35.02.84.05 1.12h-.61l-.05-.41c-.23.24-.63.41-1.02.41-.95 0-1.54-.62-1.54-1.4 0-.9.74-1.6 1.73-1.6.29 0 .59.08.77.2l.01-1.08c0-.36-.02-.75-.06-1.01.21-.02.43-.05.62-.09l.13-.02Zm-1.54 4.51c.35 0 .69-.16.84-.42v-1.35a1.13 1.13 0 0 0-.76-.25c-.68 0-1.07.47-1.07 1.05 0 .65.46.97.99.97Zm16.04.49H52c0-.06-.02-.14-.04-.22-.02-.14-.05-.3-.05-.43v-1.3c0-.66-.35-1.05-1.07-1.05-.4 0-.9.23-1.17.62l-.05-.56c-.22.02-.4.03-.66.03.03.27.04.7.04 1.07v.76c0 .37 0 .8-.04 1.08h.74a5.93 5.93 0 0 1-.03-.65V26.3c0-.38.52-.79 1-.79.44 0 .57.29.57.65v.76c0 .37-.01.8-.05 1.08Zm-32.93 3H18v-2h.26v2Zm2.47-.42L19.35 29H19v2h.28v-1.64L20.69 31H21v-2h-.27v1.58Zm.93-1.58.75 1.71.75-1.71h.3l-.9 2h-.32l-.9-2h.32ZM24 31h1.73v-.26h-1.47v-.68h.9v-.24h-.9v-.56h1.47V29H24v2Zm4.53-1.72h.81V31h.27v-1.72h.81V29h-1.9l.01.28Zm6.94.36c0-.33-.2-.64-.62-.64H33.6v2h.26v-.74h.64l.7.74h.38l-.74-.76c.45 0 .63-.27.63-.6Zm-1.61.37v-.75h.98c.22 0 .35.15.35.39 0 .21-.13.36-.36.36h-.97Zm3.16-.17c-.54-.02-.67-.13-.67-.3 0-.19.23-.3.6-.3.33 0 .62.08.85.27l.14-.2c-.26-.21-.58-.31-.97-.31-.56 0-.93.2-.93.57 0 .33.28.5.95.54.56.03.7.13.7.3 0 .22-.27.35-.7.35-.34 0-.63-.1-.86-.31l-.13.2c.26.24.58.35.98.35.58 0 1.02-.22 1.02-.62 0-.32-.26-.5-.98-.54ZM31 30c0-.56.39-1 1-1s1 .44 1 1-.4 1-1 1c-.61 0-1-.44-1-1Zm.27 0c0 .4.26.74.73.74.46 0 .73-.33.73-.74s-.27-.74-.73-.74c-.47 0-.73.33-.73.74Zm-4.76-.46c0 .17.12.28.63.3.67.04.92.22.92.54 0 .4-.42.62-.96.62-.38 0-.68-.1-.92-.35l.13-.2c.2.22.48.3.8.3.4 0 .66-.12.66-.34 0-.17-.13-.27-.66-.3-.63-.04-.9-.21-.9-.54 0-.36.36-.57.88-.57.37 0 .66.1.9.3l-.12.21c-.22-.19-.49-.26-.8-.26-.35 0-.56.1-.56.3ZM52 30H39v.2h13V30Zm-48 .07h13.23v.18H4v-.18Zm41.3-3.5c0-.87.68-1.57 1.7-1.57 1 0 1.62.66 1.62 1.43 0 .87-.68 1.57-1.71 1.57-.98 0-1.6-.66-1.6-1.43Zm.66-.09c0 .68.4 1.03.98 1.03a.96.96 0 0 0 1.02-1c0-.66-.44-1.02-.99-1.02a.97.97 0 0 0-1.01 1Zm-2.63-.64c0-.26.28-.35.57-.35.29 0 .6.09.82.23l.22-.49A2.38 2.38 0 0 0 43.9 25c-.71 0-1.21.38-1.21.86 0 .51.54.68 1.01.83.37.12.7.23.7.47 0 .22-.28.35-.65.35-.3 0-.66-.1-.94-.24l-.21.48c.26.15.78.25 1.14.25.7 0 1.31-.35 1.31-.93 0-.51-.58-.7-1.07-.85-.35-.1-.65-.2-.65-.38Zm-2.14-.22-.07-.57c-.21.04-.43.07-.66.08.05.26.07.54.07.9v.9c0 .36 0 .8-.04 1.07h.74a5.78 5.78 0 0 1-.03-.65v-1.09c0-.44.6-.66 1.08-.59l.08-.67c-.54.06-.9.23-1.17.62ZM38.7 25c-1.03 0-1.69.7-1.69 1.57 0 .77.53 1.43 1.64 1.43.48 0 .88-.13 1.25-.34l-.23-.38-.02-.02a1.9 1.9 0 0 1-.93.25c-.65 0-1-.3-1.04-.86l1.97-.05h.42l.02-.22c0-.76-.41-1.38-1.4-1.38Zm-1.01 1.23c.1-.43.43-.76.97-.76.5 0 .73.25.8.72l-1.77.04ZM33 26.05c0-.66-.46-1.05-1.18-1.05-.4 0-.9.23-1.17.62l-.06-.56c-.21.02-.4.03-.65.03.03.27.06.7.06 1.07v.76c0 .37-.03.8-.06 1.08h.74a5.77 5.77 0 0 1-.03-.65V26.3c0-.38.63-.79 1.1-.79.45 0 .58.29.58.65v.76c0 .37-.01.8-.05 1.08h.75a8.44 8.44 0 0 1-.03-.65v-1.3ZM28.19 25c.98 0 1.39.62 1.39 1.38l-.02.21-.42.01-1.97.05c.05.57.4.86 1.04.86.37 0 .67-.1.93-.25l.02.02.23.38c-.37.21-.77.34-1.25.34-1.11 0-1.64-.66-1.64-1.43 0-.87.7-1.57 1.69-1.57Zm-.04.47a.94.94 0 0 0-.97.76l1.77-.04c-.07-.47-.3-.72-.8-.72ZM26 23c-.22.03-.48.04-.75.04.03.33.05 1.24.05 1.7v.39h-2.57v-1.08c0-.28 0-.85.02-1.05-.22.03-.48.04-.75.04.03.33.05 1.25.05 1.7v1.56c0 .46-.02 1.36-.05 1.7h.75l-.02-1.02v-1.27h2.57v.59c0 .46-.02 1.36-.05 1.7H26l-.02-1.02v-2.93c0-.28 0-.85.02-1.05Zm-8.94 2.04c-.02.16-.06.42-.06.62v1.2c0 .36.04.85.08 1.14h-.61l-.08-.56c-.27.39-.77.56-1.07.56-.76 0-1.16-.35-1.16-1.11v-.8c0-.36-.02-.8-.05-1.06.26 0 .52-.01.73-.03-.02.16-.03.45-.03.66v1.12c0 .46.18.72.68.72.34 0 .88-.32.88-.7v-.71c0-.36-.02-.8-.05-1.06a9 9 0 0 0 .74-.03v.04Zm1.2.8c0-.26.27-.35.57-.35.3 0 .6.09.83.23l.23-.49a2.46 2.46 0 0 0-1.06-.23c-.73 0-1.23.38-1.23.86 0 .51.54.68 1.02.83.38.12.72.23.72.47 0 .22-.29.35-.66.35-.32 0-.68-.1-.96-.24l-.22.48c.27.15.8.25 1.16.25.73 0 1.34-.35 1.34-.93 0-.51-.6-.7-1.09-.85-.35-.1-.66-.2-.66-.38ZM12.8 25c.72 0 1.06.4 1.06 1.05v1.3c0 .22.02.49.03.65h-.74c.04-.27.05-.7.05-1.08v-.76c0-.36-.13-.65-.57-.65-.47 0-.98.41-.98.8v1.04c0 .22 0 .49.03.65h-.73c.03-.27.05-.7.05-1.08v-.76c0-.36-.02-.8-.05-1.07.25 0 .43-.01.64-.03l.05.56c.28-.4.76-.62 1.16-.62Zm-2.61 2.31.04-1.22C10.25 25.44 9.85 25 9 25c-.42 0-.8.1-1.17.28l.15.49c.23-.15.58-.27.91-.27.5 0 .71.2.7.63v.1l-.29-.02c-1.14 0-1.74.38-1.74.95 0 .5.41.84 1.04.84.46 0 .84-.2 1.03-.5.04.33.29.49.56.49.17 0 .3-.05.43-.09l.07-.4c-.11.04-.2.06-.3.06-.15 0-.2-.08-.2-.25Zm-.63-.45c-.02.4-.36.68-.82.68-.39 0-.54-.17-.54-.4 0-.31.28-.57 1.08-.57l.28.01h.01l-.01.28Z" fill="#fff"/></svg>