<?xml version='1.0' encoding='utf-8'?>
<!-- by TradeStack -->
<svg width="56" height="56" viewBox="0 0 56 56" xmlns="http://www.w3.org/2000/svg"><path fill="#F0F3FA" d="M0 0h56v56H0z" /><path d="M7 24.93c0 3.58 5.2 6.87 7.8 8.07-1.89-1.07-5.65-3.95-5.65-6.9 0-3.7 6.57-4.8 12.2-4.8C37.47 21.3 49.88 28.96 51 33c-2.26-9.89-27.09-13-30.7-13-3.6 0-13.3.45-13.3 4.93Z" fill="#DA1C02" /><path fill="#D52705" d="M28 26h1v1h-1z" /><path d="M13 32v-6h1v2.5h2V26h1v6h-1v-2.5h-2V32h-1Zm4.5-1.33V28h1v2.14c0 .43 0 1.14.75 1.14.66 0 .73-.62.75-.9V28h1v4h-1v-.44c-.1.15-.35.44-1 .44a1.46 1.46 0 0 1-1.5-1.33Zm7.5-1.34V32h-1v-2.09c0-.41 0-1.13-.78-1.13-.64 0-.7.56-.72.84V32h-1v-4h1v.44c.1-.15.33-.44.96-.44.64 0 1.05.3 1.28.65.2-.29.58-.65 1.27-.65 1.1 0 1.44.89 1.48 1.33V32h-.99v-2.15c0-.42.01-1.07-.74-1.07a.8.8 0 0 0-.77.5l.01.05ZM28 28h1v4h-1v-4Zm2-2h3v1h-1v5h-1v-5h-1v-1Zm6.49 4.21.01-.21a2 2 0 1 0-.13.72h-1.05c-.18.32-.48.53-.82.53-.5 0-.9-.45-.99-1.04h2.98Zm-1.99-1.46c.43 0 .8.34.94.81h-1.88c.15-.47.51-.81.94-.81ZM39.04 32c.93 0 1.72-.62 1.96-1.46h-1.1c-.16.42-.5.71-.9.71-.55 0-1-.56-1-1.25s.45-1.25 1-1.25c.36 0 .67.24.85.6h1.11A2.04 2.04 0 0 0 39.04 28c-1.13 0-2.04.9-2.04 2s.91 2 2.04 2Z" fill="#40312E" /></svg>