<!-- by TradeStack --><svg width="56" height="56" viewBox="0 0 56 56" xmlns="http://www.w3.org/2000/svg"><path fill="#F0F3FA" d="M0 0h56v56H0z"/><path fill-rule="evenodd" d="M33.85 11a26328.92 26328.92 0 0 0-11.69 0c-.02 0-.04.01-.04.04v19.62a.04.04 0 0 1-.04.03H10.04c-.02 0-.04.01-.04.04v10.26h.02A72626.8 72626.8 0 0 1 46 41V30.72c0-.02-.01-.03-.04-.03H33.93a.04.04 0 0 1-.04-.04V11.04c0-.02-.01-.04-.04-.04Zm-.31.33H22.45v19.69H10.35c-.02 0-.02.02-.02.03v9.59h.02a76721.09 76721.09 0 0 1 35.3-.02v-9.57c0-.02 0-.02-.02-.02H33.58l-.02-.01V11.34h-.01l-.01-.01Z" fill="#221F20"/><path d="M30 16.7v-2.66c0-.03.01-.04.03-.04h.93l.03.01.01.03V20.99l-.02.01H30v-3.49h-4V21h-.99l-.01-.03V14.02h.01a.03.03 0 0 1 .03-.02H26c0-.02.02 0 0 0v2.7h4Z" fill="#221F20"/><path d="M27.5 22.21a.04.04 0 0 0 0 .04.04.04 0 0 0 .03.02h1.6c.02 0 .03 0 .03.03v.49c0 .01-.01.02-.03.02H26.8c-.01 0-.02 0-.02-.02v-.18c.07-.61.4-.98.89-1.28.3-.18.5-.33.64-.43a.7.7 0 0 0 .27-.52c.03-.39-.34-.63-.69-.54-.36.09-.43.46-.43.78 0 .02-.01.02-.03.02h-.53c-.02 0-.03 0-.03-.02-.04-.68.27-1.2.96-1.31.15-.03.25-.04.3-.03.19.03.41.07.59.17.28.18.44.43.48.76.06.6-.3 1-.76 1.28-.37.23-.56.33-.81.56-.06.05-.1.1-.13.16Z" fill="#221F20"/><path fill-rule="evenodd" d="M28.15 24a2.07 2.07 0 0 0-.3 0c-.33.03-.55.06-.68.1-.88.2-1.55.66-2 1.4-.37.6-.54 1.31-.54 2 0 .7.17 1.4.54 2a3.05 3.05 0 0 0 2 1.41 5.72 5.72 0 0 0 1 .09c.31-.03.54-.06.67-.1.88-.2 1.54-.66 2-1.4.37-.6.54-1.31.54-2 0-.7-.18-1.4-.55-2a3.05 3.05 0 0 0-2-1.41 5.73 5.73 0 0 0-.68-.09Zm.1.8a4.42 4.42 0 0 0-.5 0c-.48.03-.9.2-1.26.5-1.03.87-1.14 2.63-.52 3.75a2.2 2.2 0 0 0 1.8 1.16l.23.02.22-.02a2.2 2.2 0 0 0 1.81-1.16c.62-1.12.51-2.87-.51-3.74-.36-.3-.78-.48-1.27-.5Z" fill="#221F20"/><path d="M41.29 36.86c-.1.09-.2.2-.3.26a.94.94 0 0 1-.56.12c-1.47-.12-1.51-2.74-.14-3.01.3-.06.57-.02.82.13.28.15.45.42.5.8.01.02 0 .03-.02.03h-.4v-.02c-.06-.2-.12-.32-.2-.38-.27-.2-.53-.23-.79-.1-.25.14-.36.39-.42.67-.1.44-.02 1.2.47 1.41.22.1.51.07.7-.07.2-.15.29-.43.29-.68v-.01h-.65c-.02 0-.03-.02-.03-.04v-.35c0-.02 0-.03.03-.03h1.05l.01.03v1.53c0 .02 0 .02-.02.02h-.24c-.02 0-.03 0-.03-.02l-.05-.28h-.01v-.01h-.01ZM28.6 34.27l.01 1.29a20.35 20.35 0 0 1 0 1.62h-.41c0-.43 0-.86-.02-1.29v-.75c.01-.17.02-.45.01-.87h.4ZM34.09 34.27h-.45l-.02.01v2.89l.02.01h.45l.02-.01v-2.89l-.02-.01ZM18.44 35.42h1.26V35.87h-1.26l-.02.01v.85h1.4l.01.02V37.15a.02.02 0 0 1-.01.02h-1.84l-.01-.02V34.28h1.83l.01.01V34.7h-1.37a.02.02 0 0 0-.02.03V35.42h.02ZM22.15 34.27h1c.03 0 .04.01.04.04v.38c0 .01 0 .02-.02.02h-.79v2.45l-.02.01a4.31 4.31 0 0 1-.43-.01V34.7h-.8l-.01-.02v-.38c0-.03 0-.04.03-.04h1ZM30.96 36.73h1.21c.03 0 .05.02.05.05v.37l-.01.02h-1.74v-2.54c0-.11-.03-.23-.02-.33 0-.02 0-.03.03-.03h.41c.02 0 .02 0 .02.02v2.4c0 .03.02.04.05.04ZM36.7 35.82l-.38-.71c-.04-.06-.05-.05-.05.01v2.03c0 .02-.01.02-.03.02h-.37c-.02 0-.03 0-.03-.02V34.3c0-.02 0-.03.03-.03h.42a.04.04 0 0 1 .04.02 302.36 302.36 0 0 0 1.11 2.05c.04.05.05.05.05-.02V34.3c0-.02.01-.03.03-.03h.37c.02 0 .03.01.03.03v2.85c0 .01-.01.02-.03.02h-.44l-.02-.02-.72-1.33Z" fill="#221F20"/><path fill-rule="evenodd" d="M16.38 36.32c-.01-.27-.13-.44-.34-.53-.02 0-.02-.02 0-.02.5-.2.52-1.1.08-1.36a.9.9 0 0 0-.45-.13 73.63 73.63 0 0 0-1.3 0l-.01.03v2.83a.03.03 0 0 0 .03.03H14.8V36a.01.01 0 0 1 .01 0l.5-.01c.3 0 .55.02.63.32.03.11.03.24.04.37 0 .15 0 .31.05.46a.04.04 0 0 0 .04.02h.44a.01.01 0 0 0 0-.01.67.67 0 0 1-.08-.23 5.37 5.37 0 0 1-.05-.61Zm-1.57-1.63v.89h.78a.39.39 0 0 0 .4-.38v-.13a.39.39 0 0 0-.4-.39h-.75l-.03.01ZM25.62 34.28h-.22a26.27 26.27 0 0 0-.24.02l-.98 2.84v.02a.02.02 0 0 0 .02.01h.41c.02 0 .03 0 .03-.02l.24-.7.02-.02.02-.01a67.98 67.98 0 0 1 .98 0l.01.03.24.7c0 .02.02.03.03.03h.42a.02.02 0 0 0 .01-.03l-.97-2.85v-.02h-.02Zm-.25.55-.35 1.14v.02a.03.03 0 0 0 .03.01h.7a.03.03 0 0 0 .02-.03l-.35-1.14a.03.03 0 0 0-.03-.02.03.03 0 0 0-.02.02Z" fill="#221F20"/></svg>