<?xml version='1.0' encoding='utf-8'?>
<!-- by TradeStack -->
<svg width="56" height="56" viewBox="0 0 56 56" xmlns="http://www.w3.org/2000/svg"><path fill="#F0F3FA" d="M0 0h56v56H0z" /><path d="M11 20l14-8 13.87 4.95 5.78 12.97-13.6 9.14-17.08-5.96L11 20z" fill="#D9DADB" /><path d="M11 23.15v-3.17l3.04 13.05-.16 3.8L11 23.16z" fill="#707173" /><path d="M31 42.75l-17.12-5.93.15-3.76L31 38.96v3.79z" fill="#919394" /><path d="M44.64 29.9L31 38.98v3.8l13.88-9.74-.24-3.12z" fill="#BBBDBE" /><path d="M38.83 43c-3.14.04-5.16-1.14-5.78-1.73l3.28-2.32c1.22-5.67-7.54-12.26-12.07-14.84 5.7 1.55 10.42 6.75 12.07 9.15-2-6.4-9.17-10.06-12.5-11.09 8.08.73 14.23 9.13 16.3 13.23C39 26.07 29.08 20 24.26 18.14l5 1.4-.78-.76 3.13 1.13-2.23-1.95C41.84 23 45 33.06 45 36.58c0 3.52-2.24 6.37-6.17 6.42z" fill="#004185" /></svg>