<?xml version='1.0' encoding='utf-8'?>
<!-- by TradeStack -->
<svg width="56" height="56" viewBox="0 0 56 56" xmlns="http://www.w3.org/2000/svg"><path fill="#DC643C" d="M0 0h56v56H0z" /><path d="M30.47 33.41a4.75 4.75 0 0 1-2.8.89c-.75 0-1.38-.28-1.9-.84-.54-.56-.77-1.4-.77-2.52V20.26l-.28-.22-5.43.38v1.03c1.24.08 2.71.5 2.71 2v7.35c0 1.69.24 2.98 1 3.87.75.89 1.84 1.33 3.28 1.33.85 0 1.5-.07 1.97-.22a7.54 7.54 0 0 0 2.57-1.44c.1-.09.1-.17.18-.25v-1.2c-.19.18-.3.35-.53.52Z" fill="#FFC828" /><path d="M37.47 34.26c-1.85 0-2.47-1.72-2.47-3.36V20.22l-.27-.22-5.73.37v1.03c1.24.08 3 .51 3 2v7.35c0 1.7.05 2.99.8 3.87.75.9 1.85 1.34 3.29 1.34.85 0 1.5-.08 1.96-.22a8.05 8.05 0 0 0 2.95-1.7v-1.2a5.1 5.1 0 0 1-3.53 1.42Zm9.53.56c-1.1-.08-2-.37-2-1.71V20.36l-.24-.23-5.76.34v.97c.3.02.55.06 1.04.12.49.05.83.15 1.03.28.27.17.48.43.65.78.17.35.28.7.28 1.04V36h5v-1.18Z" fill="#fff" /><path d="M18 27h-3v-6.7l-.18-.23-5.82.34v.98l1.17.11c1.14.13 1.83.9 1.83 2.1v9.6c0 1-.56 1.4-1.47 1.49l-.77.07V36H15v-8h3v-1Z" fill="#051432" /></svg>