<?xml version='1.0' encoding='utf-8'?>
<!-- by TradeStack -->
<svg width="56" height="56" viewBox="0 0 56 56" xmlns="http://www.w3.org/2000/svg"><path fill="#F0F3FA" d="M0 0h56v56H0z" /><path fill-rule="evenodd" d="M37.68 15.18 36 17.38l1.09-.12.03.3c-.47.03-.93.09-1.37.15l-2.4 3.13c.1.13.13.24.14.32.47-.59 1.4-1.5 2.64-2.16l.23-.28 1.77-2.08.22.18-1.58 1.87a6.24 6.24 0 0 1 3.01-.51l1.62-1.21.17.23-1.38 1.04c.52.1 1 .29 1.46.54l.73-.43c.67-.4 1.16-.74 1.37-.94l.2.2c-.23.24-.75.59-1.42.99a39 39 0 0 1-.6.34c.23.15.45.3.65.47.32-.2.57-.4.76-.59l.2.2c-.18.2-.43.39-.72.58.48.43.9.91 1.25 1.38.28-.12.53-.25.76-.38l.14.25c-.22.13-.46.25-.72.37.21.32.4.62.54.9.98-.2 1.95-.35 2.8-.43l.03.29c-.82.07-1.75.22-2.7.4l.08.17a21.9 21.9 0 0 0-.25-.13c-1.14.22-2.29.5-3.3.75l6.5.32-.01.3-7.07-.35c.62.29 1.17.69 1.66 1.13l7.34 2.82-.1.27-6.73-2.58c.27.28.5.57.72.87l6.91 3.82-.14.26c-1.7-.95-4.4-2.45-6.4-3.54l.07.1 6.8 4.49-.16.24-6.3-4.16c.2.36.36.7.46.96-.48-.33-1.2-.78-2-1.26l2.17 1.75-.18.23A369.16 369.16 0 0 1 41.52 26c-.9-.48-1.83-.94-2.67-1.26a817.57 817.57 0 0 1 5.64 4.83l-.18.22a813.87 813.87 0 0 0-6.24-5.33l-.3-.08a5.8 5.8 0 0 0-2.52-.22 83.9 83.9 0 0 0 2.37 1.85l-.18.23a150.21 150.21 0 0 1-2.53-1.98c-.23.09-.37.2-.42.31l1.85 2.86 1.59 2.05-.23.18-1.34-1.73c-.84-.76-2.45-2.29-3.37-3.17-1.18.25-3.44.7-4.62.86l-.37.22v-1c.37-.27.74-.55 1.12-.81.78-.67 1.64-1.32 1.88-1.5.56-.38.73-1.52-1.42-1.79a36.75 36.75 0 0 0-3-.25c-.63.41-1.25.92-1.84 1.5h-.69c.74-.77 1.51-1.43 2.33-1.95l.01.01c.69-.48 1.96-1.32 3.35-2 1.64-.8 4.31-1.6 5.44-1.9l.07.28a35 35 0 0 0-5.38 1.88c-.6.3-1.19.63-1.7.94.39-.12.82-.2 1.28-.2a27.63 27.63 0 0 1 6.14-1.62L37.45 15l.23.18ZM14.24 37c-.82.87-1.53 1.66-2.1 2.32l.37.31c.64-.73 1.45-1.63 2.4-2.63h-.67Zm1.57 0c-.8 1-1.47 1.88-1.99 2.6l.4.27c.53-.74 1.24-1.67 2.09-2.72a50.4 50.4 0 0 0-.98 3.75l.47.1c.24-1.1.6-2.48 1.06-4h-1.05Zm24.68-13.87-.48-.03-1.13-.33a39.3 39.3 0 0 0 2.08-.46c.74-.2 1.5-.4 2.2-.65.42.18.82.37 1.17.54-1.38.29-2.75.63-3.84.93Zm-2.3-.53a39.72 39.72 0 0 0 4.57-1.12c-.65-.27-1.35-.54-2-.75l-.87.4c-1.03.46-2.11.9-3.02 1.23.41.06.85.14 1.31.24Zm1.14-2.23c.31.05.65.13 1.01.24l-.57.26a55.22 55.22 0 0 1-3.52 1.4l-.52-.05c1.04-.52 2.34-1.18 3.6-1.85Zm-4.17 1.81c1-.5 2.33-1.17 3.65-1.86h-.1c-1.68-.02-3.7 1.22-4.5 1.84.24 0 .56 0 .95.02Zm-5.04-3.07c1.23-.45 3.07-1 5.21-1.34l-2.16 2.83a5.53 5.53 0 0 0-2.48-1.35 4.3 4.3 0 0 0-.57-.14Z" fill="#EAC055" /><path d="M24.74 22H28v2.86c-.93.7-1.85 1.46-2.74 2.24a63.89 63.89 0 0 0-7 5.87c.36-.94.75-1.88 1.18-2.82 1.43-3.12 3.2-6.1 5.3-8.15Zm-.69 0H13v15h1.24c.94-1 2.02-2.11 3.2-3.26.46-1.24.98-2.53 1.56-3.8C20.36 27 22.04 24.1 24.05 22ZM14.9 37h.9l.9-1.08c.11-.37.24-.75.37-1.13-.77.77-1.5 1.51-2.17 2.21Zm1.96 0 .26-.84a79.41 79.41 0 0 1 8.44-8.68c.82-.59 1.63-1.14 2.44-1.63V37H16.86Zm.68-2.07.32-.91a88.83 88.83 0 0 1 3.24-2.98 85.67 85.67 0 0 0-3.56 3.89Z" fill="url(#ajbn3rhc2)" /><path fill-rule="evenodd" d="M29 21H12v17h17V21Zm-1 1H13v15h15V22Z" fill="url(#bjbn3rhc2)" /><path d="M18.18 36H13v-.62h.97c.53 0 1.03-.4 1.03-.91V24.42c0-.5-.5-.92-1.03-.92H13V23h5.18v.5h-.72a.93.93 0 0 0-.96.92V29h8v-4.58c0-.5-.5-.92-1.1-.92h-1.05V23H28v.5h-.79c-.58 0-1.21.41-1.21.92v10.05c0 .5.63.91 1.21.91H28V36h-5.65v-.62h1.06c.58 0 1.09-.4 1.09-.91V30h-8v4.47c0 .5.42.91.96.91h.72V36Z" fill="#000104" /><path d="M26.92 41c1.74 0 3.45-.6 4.08-.9V36h-3v1h1.4v2.5c-.34.27-1.31.82-2.41.82a5.16 5.16 0 0 1-4.75-5.09c0-3.07 2.06-5.6 4.75-5.6a3.54 3.54 0 0 1 3.4 2.5h.44l-.27-2.42a9.02 9.02 0 0 0-3.57-.71C23.5 29 21 31.45 21 35.38 21 39.3 24.74 41 26.92 41Z" fill="#DEB47F" /><defs><linearGradient id="ajbn3rhc2" x1="20.23" y1="22.61" x2="20.23" y2="37.12" gradientUnits="userSpaceOnUse"><stop stop-color="#D19A43" /><stop offset=".39" stop-color="#EFE7D6" /><stop offset="1" stop-color="#CFA872" /></linearGradient><linearGradient id="bjbn3rhc2" x1="20.23" y1="21.62" x2="20.23" y2="38.11" gradientUnits="userSpaceOnUse"><stop stop-color="#FCE8BD" /><stop offset=".17" stop-color="#EFDBB4" /><stop offset=".42" stop-color="#D5A12C" /><stop offset=".61" stop-color="#EFCB80" /><stop offset="1" stop-color="#EAC883" /></linearGradient></defs></svg>