<!-- by TradeStack --><svg viewBox="0 0 56 56" xmlns="http://www.w3.org/2000/svg"><path fill="#F0F3FA" d="M0 0h56v56H0z"/><path d="M24.74 12.06c.05.2.06.4.03.6 0 .07-.05.1-.12.1-.15-.02-.25-.12-.3-.3l-.2-.9-.22-2.5.07-.03c.03-.02.06-.01.07.03l.67 3Z" fill="#C38816"/><path d="M28.06 15.72c-.16-.15-.3-.17-.4-.09a.6.6 0 0 0-.16.16l-.18.37c-.04.07-.1.09-.16.04-.05-.03-.07-.11-.07-.24a.7.7 0 0 1 .1-.27.91.91 0 0 0 .12-.37l.06-1.05c0-.13-.02-.14-.08-.05a.51.51 0 0 0-.05.23l-.48-3.05a.09.09 0 0 0-.05-.07l-.06-.02c-.07-.03-.1-.01-.11.06l-.2 1.76-.06-.18c-.03-.08-.05-.08-.06 0 0 .06-.02.11-.05.16l.03-1.7c0-.06-.02-.1-.07-.12l-.07-.03c-.08-.04-.12-.01-.14.06-.16.72-.36 1.44-.59 2.17a1.3 1.3 0 0 0-.04.68c.1.5.32.66.63.46.04.4.19.76.45 1.05a.3.3 0 0 1 .09.2c0 .22.11.33.31.34.08.01.13.05.14.13 0 .06-.04.17-.14.31a.32.32 0 0 0-.06.19v.1c0 .28.03.52.08.71.09.28.08.58 0 .9-.05-.1-.14-.15-.26-.14l-.07-.58-.25-.62-.14-.93c0-.03-.02-.05-.05-.05h-.06c-.04 0-.06.02-.07.06a1 1 0 0 1-.13.43c-.05.07-.08.06-.1-.02-.1-.57-.17-.97-.2-1.22a.7.7 0 0 0-.25-.43c-.06-.05-.08-.04-.06.03.09.41.04.78-.16 1.12-.12.21-.17.2-.15-.05a3.08 3.08 0 0 0-.33-1.76c-.08-.13-.11-.12-.12.03l-.02.5a6.12 6.12 0 0 0-.28-.8 2.2 2.2 0 0 0-.48-.7c-.43-.41-.82-.86-1.17-1.34-.05-.08-.1-.07-.15.01l-.04.1v.04c.4.66.76 1.35 1.1 2.06.05.12.24.38.57.8.12.15.18.3.19.42 0 .12-.04.21-.15.27a.28.28 0 0 1-.31-.02c-.23-.14-.36-.28-.42-.43a8.7 8.7 0 0 1-.34-1.1 6.7 6.7 0 0 0-.9-1.88c-.01-.03-.04-.03-.07-.01l-.07.05a.1.1 0 0 0-.05.11l.48 2.33c-.13.2.02.57.46 1.1v.22c-.05.28-.13.29-.24.03 0-.02-.04-.04-.08-.07-.07-.04-.1-.02-.07.06.1.26.22.45.38.55l.35.62c.03.05.07.1.13.13l1.06.56c.02.02.05.02.08.02h.06l.05.14a3.79 3.79 0 0 1-1.9-.74c-.12-.1-.15-.08-.1.07l.02.04c.07.19.15.32.24.4l.74.64c.27.24.58.41.94.5-.09.02-.14.07-.15.17-.48-.13-.87-.3-1.16-.55-.16-.13-.21-.1-.15.1.12.36.4.74.86 1.15l.35.33-.13.08-.72-.53a.19.19 0 0 0-.23 0 .19.19 0 0 0-.1.2c.02.07.05.16.11.28-.08 0-.17.06-.28.16-.3-.5-.6-.94-.87-1.3-.22-.29-.29-.26-.2.1.03.16.02.4-.04.73-.02.08.02.16.12.23l.67.5c.01 0 .04.04.06.09l.36.73c-.07-.04-.11.03-.14.22a3.4 3.4 0 0 0-1.42-1.5c-.1-.06-.13-.03-.1.07.03.07.06.11.11.14.05.02.1.05.12.1.26.4.4.82.42 1.26-.15.02-.2.01-.14 0a2.38 2.38 0 0 0-1.35-1.92c-.36-.19-.73-.36-1.1-.5-.03-.02-.05-.01-.07.02-.01.03 0 .05.03.06.4.2.77.46 1.09.8 0 .21-.05.3-.13.24a3.6 3.6 0 0 0-2.11-1.1c-.04-.01-.05 0-.05.03v.07c.27.01.48.1.65.25.1.09.22.26.37.52l.18.3-.02.02c-.03.01-.05.01-.07 0-.36-.41-.83-.71-1.4-.92a.42.42 0 0 0-.2-.02c-.07 0-.08.04-.03.1.07.08.11.16.13.25l-.5-.22a1.55 1.55 0 0 0-.52-.12 83.83 83.83 0 0 0-2.8-.03c-.02.01-.03.03-.03.05 0 .02.02.03.04.03l1.66.5a.66.66 0 0 0-.08 0c-.05.03-.06.06-.03.11l.05.08-1.35-.14c-.04 0-.05 0-.01.03l.05.04-.02.02-.48.09c-.12.02-.12.05 0 .1.5.19.74.44.71.75 0 .08.03.14.1.17l1.78.81a.1.1 0 0 1 .07.1.1.1 0 0 1-.05.1.92.92 0 0 0-.34.47l-2.05 1.22a.15.15 0 0 0-.08.16c.01.07.07.11.18.11.4 0 1.05-.26 1.95-.8l.47-.27-.1.24a.23.23 0 0 0-.11.06.96.96 0 0 0-.45.18c-.06.04-.06.1 0 .15.24.22.3.44.19.65-.04.06-.1.1-.17.11l-.4.08c-.36.07-.36.14 0 .23.1.02.28.05.53.06l.93.49c.13.07.12.1-.02.12l-1.41.16c.2-.2.28-.38.24-.54a.16.16 0 0 0-.13-.13 1.24 1.24 0 0 0-.56-.02c-.65.16-1.34.3-2.09.43-.03 0-.05.02-.05.05v.06c-.02.1.02.14.12.12.48-.07.9-.03 1.26.13-.22.12 0 .2.66.22l-1.92-.07c-.03 0-.07.01-.1.03l-.1.07a.1.1 0 0 0-.04.1c0 .05.03.08.08.09 1.1.22 1.78.4 2.03.54l.21.12c.07.03.12.02.15-.04.15-.22.2-.42.17-.6l.28.08c.4.1.42.23.03.4-.42.18-.56.53-.44 1.04.02.07.06.1.13.09l.82-.15 1.36.08c.08 0 .11.05.1.12-.01.15-.1.27-.26.34a.23.23 0 0 0-.12.14c-.13.4-.3.7-.54.94-.44.3-.89.5-1.34.59a.18.18 0 0 0-.14.12.88.88 0 0 0 0 .65l-.05.17c-.38.12-.77.14-1.17.08a.35.35 0 0 0-.21.03c-.9.4-1.86.48-2.88.25-.11-.03-.13-.08-.05-.17l.72-.84a.92.92 0 0 0 .2-.47.25.25 0 0 1 .1-.16l.94-.65c.45-.28.7-.5.76-.66.09-.23.23-.42.42-.56.11-.09.31-.2.59-.31l.24-.11v-.01l-.02-.06c-.01-.04-.04-.05-.08-.03-.31.16-.6.2-.86.14-.09-.02-.14 0-.17.09-.17.5-.4.72-.72.7.6-.38.7-.66.25-.82.06-.08.07-.16.05-.22a.15.15 0 0 0-.14-.12 5.91 5.91 0 0 1-3.06-1.17.1.1 0 0 1-.05-.1.1.1 0 0 1 .07-.1l1-.42a.2.2 0 0 0 .1-.09c.4-.63.79-1.01 1.14-1.15.46-.18 1.07-.48 1.82-.91a.16.16 0 0 0 .08-.16.15.15 0 0 0-.1-.14.18.18 0 0 1-.05-.05c-.04-.05-.03-.08.02-.1l.1-.07c0-.23-.07-.35-.23-.36l-1.42-.13c.7-.11 1.16-.12 1.39-.03.28.1.49.16.6.15.5-.01.53-.15.13-.42-.23-.15-.6-.18-1.1-.1l.58-.13c.1-.02.15-.09.12-.19a1 1 0 0 0-.41-.59 2.6 2.6 0 0 0-.62-.26c-.4-.12-.67-.26-.81-.42a11.8 11.8 0 0 0-.9-.89c-.19-.16-.15-.25.1-.25.16 0 .37-.03.64-.1.26-.06.46-.1.61-.1.04 0 .06-.03.06-.07 0-.01 0-.03-.02-.05a.05.05 0 0 1 0-.05c.07-.1.14-.15.23-.12.76.22 1.55.34 2.39.34.03 0 .05-.01.05-.04v-.06c.01-.04 0-.06-.04-.06a.8.8 0 0 1-.36-.14c-.03-.03-.04-.06-.02-.1.01-.03.04-.04.08-.04l.65.07c.08.01.15-.01.2-.07a.28.28 0 0 0 .06-.09.16.16 0 0 0-.03-.18c-.26-.26-.43-.59-.5-.98a6.19 6.19 0 0 0-.1-.38.35.35 0 0 0-.1-.17 2.28 2.28 0 0 1-.74-1.55.46.46 0 0 0-.07-.2l-.11-.19c-.25-.3-.18-.38.2-.26.4.15.8.22 1.14.21.2 0 .35.01.44.04.06.01.11.05.15.09.63.65 1.26.96 1.9.93.07 0 .13.02.18.06.24.25.44.4.6.46a.3.3 0 0 1 .15.13c.18.3.5.55.98.77.06.03.12.02.18-.02a.87.87 0 0 0 .2-.23c.04-.06.03-.12-.01-.18-.44-.5-.7-.78-.76-.83a179.83 179.83 0 0 1-4.01-2.73c-.05-.06-.06-.12-.03-.15.04-.04.08-.06.13-.04l.25.07c.11.03.19.04.24.03.48-.07.94-.08 1.37 0 .06 0 .12.03.16.07.37.32.8.55 1.3.7.06.02.12 0 .17-.04.25-.26.57-.28.94-.06.07.04.12.03.16-.04a.4.4 0 0 0 .05-.21l.1.25c.02.09.06.15.1.17.05.03.1.04.15.02.07-.03.1-.08.1-.15.03-.3-.06-.61-.26-.91.48.07.55-.19.2-.8-.34-.58-.43-1.07-.29-1.47.11-.3.17-.66.18-1.1 0-.04.02-.06.05-.08.03-.01.06 0 .09.02a5.37 5.37 0 0 0 1.25.76c.3.1.5.28.58.51l.04.14c.12.35.22.6.3.74.15.24.34.41.57.52.07.03.11.02.14-.05l.28-.6.2.9c.05.18.15.28.3.3.07 0 .11-.03.12-.1.03-.2.02-.4-.03-.6l.3.27c.06.04.1.03.12-.03.2-.53.3-1.07.28-1.62a1 1 0 0 1 .38-.85.28.28 0 0 0 .08-.11c.14-.33.23-.52.29-.59.07-.1.17-.14.3-.13.07 0 .1.04.1.1l-.04.27c0 .07.01.13.05.19l.26.32c.3.36.46.7.47 1 0 .27.02.55.04.82.02.16.1.3.23.44.08.07.13.13.16.18.04.06.07.12.08.19.05.2.08.54.09.98 0 .16.02.42.07.77.08.64.1 1.13.06 1.46Z" fill="#F6E7C0"/><path d="m29.48 14.36.29-2.05c.05-.4.2-.77.45-1.12.26-.36.85-1.08 1.78-2.18h.07l.05.01c.05.01.05.05 0 .12-.78 1.18-1.3 2-1.53 2.46-.32.6-.63 1.54-.93 2.78-.01.03-.03.05-.06.04h-.08c-.03-.01-.04-.03-.04-.06Z" fill="#C38816"/><path d="m33.17 16.38-.39 1.6a.34.34 0 0 0 .01-.18c-.02-.1-.07-.1-.15-.04a.6.6 0 0 0-.19.37.22.22 0 0 1-.12.17l-2.16 1.07a.16.16 0 0 1-.16 0 .16.16 0 0 1-.08-.14l-.05-.56c0-.02.01-.04.03-.04l.37-.1c.02 0 .04 0 .05.04.09.27.25.35.5.24a3.5 3.5 0 0 0 1.57-1.36.14.14 0 0 0-.01-.17c-.06-.08-.14-.08-.23-.02-.36.26-.66.43-.9.51-.03.01-.05 0-.06-.02l-.04-.07c-.01-.03 0-.06.03-.07a1.8 1.8 0 0 0 1.25-1.44.1.1 0 0 0-.01-.06c-.04-.08-.1-.1-.17-.05.16-.24.25-.47.3-.68.08-.44.2-1.15.33-2.12.01-.08-.02-.13-.08-.16-.06-.04-.11-.02-.14.05l-.72 1.78c-.03-.12-.11-.2-.25-.24l.67-1.88c.02-.07 0-.09-.06-.05-.2.14-.39.34-.57.6-.38.56-.74 1.13-1.07 1.72l-.02-.13c0-.05-.03-.07-.07-.08-.04 0-.07.02-.09.05a6 6 0 0 0-.36 1.13c-.06.3-.17.33-.33.06-.02-.03-.03-.1-.03-.22s-.03-.13-.08-.02l-.06.1c-.05.13-.1.2-.15.22a.68.68 0 0 1-.1.04c-.06 0-.1.04-.1.08l-.05.42c-.01.07 0 .14.04.2a1 1 0 0 1 .11.86c-.06.2-.12.2-.2 0l-.1-.32c-.03-.08-.08-.1-.15-.05a.31.31 0 0 0-.1.1l.4-1.63 1.52-2.97c.04-.09.1-.1.16-.03l.08.07c.07.06.12.05.16-.03.43-.75.73-1.31.89-1.68.05-.1.15-.18.3-.23a.52.52 0 0 0 .18-.08l1.06-.8c.07-.05.1-.04.12.04l.2 1.18c.04.3-.05.77-.26 1.4l-.08.23a.31.31 0 0 0 0 .2c.12.36.14.77.07 1.25a13.44 13.44 0 0 1-.46 1.94Z" fill="#F6E7C0"/><path d="M20.76 12.97c.2.3.29.6.27.91 0 .07-.04.12-.11.15a.16.16 0 0 1-.15-.02c-.04-.02-.08-.08-.1-.17a5.46 5.46 0 0 0-1.21-2.16c-.07-.06-.1-.16-.08-.28.01-.08.04-.09.09-.03l1.29 1.6Z" fill="#C38816"/><path d="m26.17 13.1-.25 1.53c-.3.2-.52.05-.63-.46a1.3 1.3 0 0 1 .04-.68c.23-.73.43-1.45.59-2.17.02-.07.06-.1.14-.06l.07.03c.05.02.07.06.07.11l-.03 1.7ZM27.24 14.45a2.5 2.5 0 0 1-.53 1.17.07.07 0 0 1-.07.02.06.06 0 0 1-.05-.06l-.25-2.45.2-1.76c0-.07.04-.1.11-.06l.06.02c.03.02.05.04.05.07l.48 3.05Z" fill="#fff"/><path d="M24.37 14.93c.02.22-.01.45-.1.67a.32.32 0 0 0-.03.2c.05.19.05.41.02.69 0 .07.02.12.08.16a1 1 0 0 0 .31.16c.06 0 .09.04.09.1l.05.65c0 .1.06.15.15.16l.1.02c.08 0 .12.05.13.12.04.26.05.5.04.71-.02.29-.09.3-.22.05s-.31-.4-.53-.42l-.05-.14c.17-.1.26-.16.26-.18a.59.59 0 0 0-.07-.4.54.54 0 0 0-.3-.25l-1.57-.5c-.16-.1-.28-.29-.38-.55-.02-.08 0-.1.07-.06l.08.07c.11.26.2.25.24-.03v-.23c.28.45.6.73.95.86.56.2.67.06.33-.43a6.58 6.58 0 0 0-.33-.35.1.1 0 0 0-.1-.03.7.7 0 0 1-.06 0c-.04 0-.08 0-.13-.03a2.8 2.8 0 0 1-1.12-1.1l-.48-2.34a.1.1 0 0 1 .05-.11l.07-.05c.03-.02.06-.02.08.01.48.77.78 1.4.9 1.88.08.37.2.73.33 1.1.06.15.2.29.42.43.1.07.2.08.31.02.1-.06.15-.15.15-.27a.8.8 0 0 0-.2-.42 6.64 6.64 0 0 1-.56-.8 25.83 25.83 0 0 0-1.1-2.1l.04-.1c.05-.08.1-.09.15-.01.35.48.74.93 1.17 1.35.21.2.37.44.48.69.11.25.2.52.28.8Z" fill="#FEFCED"/><path d="m31.7 14.7-.85 1.49a.1.1 0 0 1-.08.05.1.1 0 0 1-.09-.05 1 1 0 0 1 0-1.1c.32-.6.68-1.17 1.06-1.73.18-.26.37-.46.57-.6.06-.04.08-.02.06.05l-.67 1.88Z" fill="#fff"/><path d="m26.34 13.13.25 2.45c0 .03.02.05.05.06.03.01.05 0 .07-.02.28-.34.45-.73.53-1.17 0-.1.02-.18.05-.23.06-.1.09-.08.08.05l-.06 1.05c0 .1-.04.23-.12.37a.7.7 0 0 0-.1.27c0 .13.02.2.07.24.07.05.12.03.16-.04l.18-.37c.12.4-.02.97-.43 1.7-.05.09-.05.15-.01.2.03.04.07.05.12.04.04 0 .08-.03.1-.07.15-.36.33-.6.56-.7a4.67 4.67 0 0 1-.82 1.79.19.19 0 0 1-.18.07.18.18 0 0 1-.16-.12s.03-.06.11-.14c.08-.32.09-.62 0-.9-.05-.2-.08-.43-.08-.71v-.1c0-.07.02-.13.06-.19.1-.14.15-.25.14-.3-.01-.09-.06-.13-.14-.14-.2 0-.3-.12-.31-.34a.3.3 0 0 0-.09-.2c-.26-.29-.41-.64-.45-1.05l.25-1.52c.03-.05.05-.1.05-.16.01-.08.03-.08.06 0l.06.18ZM33.77 16.92l-.55 1.94-.02.02-.05.02.26-2.1c.22-.42.48-.81.77-1.18.68-.87 1.38-1.73 2.08-2.58.02-.02.03-.02.05 0l.03.08c.02.04.02.08 0 .12l-2.57 3.68Z" fill="#C38816"/><path d="M32.26 16.06c-.18.2-.36.35-.52.44-.26.14-.32.08-.2-.18.19-.38.32-.85.41-1.4l.72-1.77c.03-.07.08-.1.14-.05.06.03.09.08.08.16a40.9 40.9 0 0 1-.33 2.12c-.05.21-.14.44-.3.68Z" fill="#FEFCED"/><path d="M26.2 17.22c.06.85-.16 1.45-.64 1.8l-.27-.1a.17.17 0 0 0-.19.04.7.7 0 0 1-.7.15c-.36-.09-.67-.26-.94-.5a28.6 28.6 0 0 0-.74-.64.95.95 0 0 1-.25-.44c-.06-.15-.03-.17.1-.07.55.41 1.18.66 1.89.74.22.03.4.17.53.42.13.25.2.24.22-.05 0-.2 0-.45-.04-.71 0-.07-.05-.11-.13-.12l-.1-.02c-.1 0-.14-.06-.15-.16l-.05-.65c0-.06-.03-.1-.09-.1a1 1 0 0 1-.3-.16.17.17 0 0 1-.09-.16c.03-.28.03-.5-.02-.69a.32.32 0 0 1 .02-.2c.1-.22.13-.45.11-.67l.02-.5c0-.15.04-.16.12-.03.27.5.38 1.1.33 1.76-.02.25.03.26.15.05.2-.34.25-.7.16-1.12-.02-.07 0-.08.06-.03a.7.7 0 0 1 .24.43l.21 1.22c.02.08.05.1.1.02a1 1 0 0 0 .13-.43c0-.04.03-.06.07-.07h.06c.03.01.04.03.05.06l.14.93Z" fill="#E6A81D"/><path d="M21.55 16.43a2.8 2.8 0 0 0-.99-.4c-.78-.49-1.55-.97-2.33-1.44-.04-.03-.06-.06-.07-.09 0-.03 0-.05.02-.08.01-.03.04-.04.08-.03.6.2 1 .35 1.21.44a3.23 3.23 0 0 0 .86.22c.25.03.44.1.56.2l.25.24c.25.27.45.42.6.47.06.03.11.07.14.14.03.06.03.12.01.18a.15.15 0 0 1-.13.12l-.2.03Z" fill="#FEFCED"/><path d="M31.95 14.93a5.1 5.1 0 0 1-.4 1.39c-.13.26-.07.32.19.18.16-.09.34-.23.52-.44.07-.05.13-.04.17.05a.1.1 0 0 1 0 .06 1.8 1.8 0 0 1-1.24 1.44c-.03.01-.04.04-.03.07l.04.07c.01.02.03.03.05.02.25-.08.55-.25.91-.5.1-.07.17-.07.23 0 .04.06.04.12 0 .18a3.5 3.5 0 0 1-1.56 1.36c-.25.1-.41.03-.5-.24 0-.03-.02-.04-.05-.04l-.37.1c-.02 0-.03.02-.03.04l.05.56c0 .06.03.1.08.14.05.02.1.03.16 0l2.16-1.07c.07-.04.1-.1.12-.17a.6.6 0 0 1 .2-.37c.07-.07.12-.05.14.04.02.05.01.1 0 .17a6.3 6.3 0 0 1-1.64 1.9c-.27.2-.54.22-.8.06-.2-.13-.44-.14-.73-.03-.07.03-.13.02-.17-.04l-.64-.82a.26.26 0 0 1-.05-.18l.08-1.34a.31.31 0 0 1 .09-.1c.07-.05.12-.03.15.05l.1.33c.08.2.14.19.2 0a1 1 0 0 0-.11-.88.27.27 0 0 1-.04-.19l.05-.42c0-.04.04-.07.1-.08l.1-.04c.05-.02.1-.09.15-.21l.06-.1c.05-.12.08-.11.08.01 0 .11 0 .19.03.22.16.27.27.25.33-.06a6 6 0 0 1 .36-1.13c.02-.03.05-.05.09-.05.04.01.06.03.07.08l.02.13a1 1 0 0 0 0 1.11.1.1 0 0 0 .1.05.1.1 0 0 0 .08-.05l.85-1.5c.14.04.22.12.25.24ZM22.28 14.84c.3.5.67.88 1.12 1.11.05.03.1.04.13.04a.7.7 0 0 0 .06-.01.1.1 0 0 1 .1.03l.33.35c.34.49.23.63-.33.43a1.99 1.99 0 0 1-.95-.86c-.44-.52-.6-.89-.46-1.09Z" fill="#E6A81D"/><path d="M28.06 15.72c-.02.13.05.23.2.32l-.3.05c-.07 0-.09.04-.06.1.16.32.14.58-.06.77-.23.1-.41.34-.56.7a.12.12 0 0 1-.1.07c-.05.01-.09 0-.12-.04-.04-.05-.04-.11 0-.2.42-.73.56-1.3.44-1.7a.6.6 0 0 1 .15-.16c.12-.08.25-.06.4.09Z" fill="#DED1AC"/><path d="m29.23 15.89-.4 1.63-.07 1.34c0 .06.01.13.05.18l.64.82c.04.06.1.07.17.04.29-.1.53-.1.73.03.26.16.53.14.8-.07a6.3 6.3 0 0 0 1.63-1.89l.39-1.59c.05.16.13.3.23.41l-.26 2.1h.06l.02-.03.55-1.94c.07.2.26.36.56.46.3.1.53.2.66.27a13.56 13.56 0 0 1 6.19 16.47c-.17.49-.43 1-.77 1.5l-4.42-2.88c-.13-.08-.22-.06-.29.09a9.23 9.23 0 0 1-1.39 2.27c-.14.16-.14.3 0 .4-.04.03-.06.07-.05.1-.23-.25-.39-.23-.47.06a.25.25 0 0 0 .02.19l.68 1.22c-.1.16-.22.1-.4-.21l-.46-.9c-.06-.11-.14-.13-.23-.04l-.33.3c-.47.14-.87.34-1.2.59l-.44.12c-.14.04-.17.12-.09.24l3.04 4.44a11.86 11.86 0 0 1-4.56 1.32c-3.36.32-6.4-.48-9.12-2.41a2.73 2.73 0 0 1-.67-.77c.21-1.2.1-2.4-.33-3.65a.19.19 0 0 0-.14-.12.2.2 0 0 0-.17.03l-.83.63a.15.15 0 0 0-.06.15l.1.55-.4.12c-.09-.13-.18-.2-.28-.22-.07-.01-.17.05-.3.18a12.18 12.18 0 0 1-2.48-6.3l.05-.16a33.5 33.5 0 0 0 2.97-.73c.14-.05.29-.14.45-.29a4.59 4.59 0 0 0 1.35-1.26c.5-.58.57-1.07.2-1.45-.05-.05-.06-.1-.03-.17.08-.18.1-.37.07-.57.02 0 .06 0 .1-.04.26.36.59.55.98.56.1 0 .2-.04.26-.12.07-.07.1-.16.09-.27-.07-.46-.65-.76-1.75-.9-.16-.06-.22-.15-.16-.28.1.02.17 0 .21-.03.07-.04.07-.09 0-.14l-.17-.15.07-.09c.17.06.3.16.4.31.04.06.09.1.16.12l1.09.35c.08 0 .2.07.35.18l.24.56c.03.07.02.13-.03.18-.17.16-.25.32-.24.47 0 .18.13.3.35.4.07.02.11.07.11.14 0 .12.06.21.16.27.35.19.73.3 1.12.35.48.06.85-.03 1.1-.25a.29.29 0 0 0 .1-.27.28.28 0 0 0-.17-.23c-.28-.13-.68-.14-1.2-.03-.43.08-.76.1-1 .07-.03 0-.05-.02-.04-.05 0-.02.02-.03.04-.03.36.02.66-.04.92-.17a.25.25 0 0 0 .13-.23c0-.1-.04-.17-.12-.23a1.6 1.6 0 0 0-.75-.24c-.07 0-.1-.04-.08-.11l.15-.49c.25 0 .43-.1.54-.31.02-.04.03-.05.04-.01v.02c.02 0 .02.03 0 .06-.07.3-.03.62.13.91.04.08.1.13.2.14.08.02.15 0 .22-.06.52-.47.37-1.53-.47-3.19l-.05-.03-.3-.07c-.04-.02-.06-.02-.05 0 .34.56.5.99.47 1.28-.06.6-.14.6-.24.01a5.45 5.45 0 0 0-.41-1.1c-.11-.23-.2-.22-.25.04a2.5 2.5 0 0 0-.01.88l-.03.03c-.03 0-.04 0-.04-.03-.03-.22-.16-.34-.39-.36-.05 0-.1-.04-.13-.15a.27.27 0 0 1-.08-.08c-.06-.09-.04-.2.05-.32.37-.18.52-.41.44-.7a.21.21 0 0 0-.12-.14c-.34-.16-.86-.02-1.58.42a3.04 3.04 0 0 1-1.4.23l.78-.33c.39-.04.72-.14 1-.29.37-.21.5-.48.36-.8.03-.06.04-.1.03-.14l.42-.15c-.06.02-.01.03.14.01.03.41.18.74.45.99.08.07.18.1.29.07.1-.02.18-.09.21-.2.11-.3.09-.61-.08-.93.03-.2.07-.26.14-.22l.1.1c.07.07.11.06.11-.06 0-.39-.1-.76-.3-1.12.1-.1.2-.15.27-.16.24.21.55.32.92.32.08 0 .12-.03.1-.11 0-.05-.03-.1-.08-.16l.13-.08c.35.22.65.2.9-.06a.16.16 0 0 0 .03-.18 1.41 1.41 0 0 0-.83-.8c0-.09.06-.14.15-.16a.7.7 0 0 0 .7-.15.17.17 0 0 1 .19-.04l.27.1c.13.03.16.1.1.22-.24.23-.4.5-.47.8-.02.1 0 .2.09.28.08.08.18.1.29.08.41-.1.66-.33.76-.7.11-.43.18-.86.2-1.28.12-.01.2.03.26.14-.08.08-.11.13-.1.14.02.07.07.11.15.12.07.01.13-.01.18-.07.4-.55.68-1.14.82-1.79.2-.19.22-.45.06-.77-.03-.06-.01-.1.05-.1l.31-.05c.42.1.74.06.97-.15Z" fill="#C8DAE7"/><path d="M20.56 16.02c.38.08.71.22 1 .4.2.2.25.4.14.58-.04.06-.1.09-.17.07a2.29 2.29 0 0 1-1.33-.93c-.04-.07-.03-.12.05-.14.08-.03.18-.02.31.02ZM28.21 17.18c-.03 0-.04-.02-.04-.05v-.04c.01-.58.07-.87.18-.86h.09c.1 0 .14.3.13.88v.04c0 .03-.02.04-.05.04h-.3Z" fill="#C38816"/><path d="M30.76 16.8c-.01.13.06.24.15.25.1.01.2-.08.2-.2.02-.13-.05-.24-.15-.25-.1-.01-.19.08-.2.2Z" fill="#FEFCED"/><path d="M24.4 18.06h-.05c-.03 0-.06 0-.08-.02l-1.06-.56a.33.33 0 0 1-.13-.13l-.35-.62 1.57.5c.13.04.23.13.3.25.07.12.1.26.07.4 0 .02-.09.08-.26.18Z" fill="#E6A81D"/><path d="M21.99 17.83c-.02.06-.05.08-.1.07l-.24-.05a3.4 3.4 0 0 1-.75-.25c-.2-.1-.29-.18-.27-.25v-.02c.02-.07.14-.1.36-.11.22 0 .48.02.78.1l.23.04c.06.01.08.05.07.1l-.08.37Z" fill="#C38816"/><path d="m26.2 17.22.26.62c-.08-.09-.12-.1-.12-.07 0 .6-.22 1.09-.68 1.47.06-.11.03-.19-.1-.22.48-.35.7-.95.65-1.8Z" fill="#DED1AC"/><path d="M30.41 17.59a.52.52 0 0 1 .5 0c.05.02.09.06.1.13 0 .06-.01.12-.06.16l-.53.5c-.09.08-.12.06-.1-.06.02-.18.02-.31.01-.39-.03-.18 0-.3.08-.34Z" fill="#F6E7C0"/><path d="m26.46 17.84.07.58c-.02.42-.09.85-.2 1.28-.1.37-.35.6-.76.7-.11.03-.21 0-.3-.08a.28.28 0 0 1-.08-.28c.07-.3.23-.57.47-.8.46-.38.68-.87.68-1.47 0-.04.04-.02.12.07Z" fill="#E6A81D"/><path d="M28.08 19.53c-.05-.02-.08 0-.1.05-.01.04 0 .08.05.11.24.16.36.43.34.82 0 .1-.05.18-.15.22-.1.04-.2.03-.27-.05l-.57-.52a.4.4 0 0 1-.13-.32.4.4 0 0 1 .15-.31c.15-.12.26-.28.33-.45.17-.42.27-.83.32-1.23 0-.07.04-.1.1-.13.06-.01.12 0 .16.05.08.1.1.23.05.4-.11.33-.1.68 0 1.03.03.06.02.13-.03.18-.11.12-.2.17-.25.15ZM22.37 18.2c.04.07.13.18.26.31.1.1.07.13-.05.11l-.75-.08a.18.18 0 0 1-.15-.1.18.18 0 0 1 0-.18.53.53 0 0 1 .41-.3c.1 0 .2.07.28.24Z" fill="#C38816"/><path d="M32.42 23.24a.49.49 0 0 0-.18-.09c.14 0 .22-.04.24-.12.11-.42.34-.7.66-.84.28-.13.5-.28.64-.46.47-.57.71-1.07.72-1.51 0-.18-.04-.2-.13-.04l-.15.35c-.22.54-.42.87-.6.99a.98.98 0 0 0-.33.42c-.07.16-.17.18-.3.04l-.06-.07a.42.42 0 0 1-.07-.5c.12-.25.14-.55.06-.9-.05-.2.09-.52.42-.94a3.1 3.1 0 0 0 .7-1.46c.01-.04.03-.05.07-.04l.06.03.01.02v1.06c0 .04.02.07.07.08l.06.02.03.07c.3.62.32 1.3.07 2.01-.44 1.29-.97 1.9-1.6 1.87-.2-.02-.33-.01-.39 0Z" fill="#E6A81D"/><path d="M26.9 19.81c-.1.14-.08.25.07.35.4.27.73.52.96.77.42.44.45.75.11.95a.22.22 0 0 1-.19.01c-.44-.16-.78-.5-1-.98a2.6 2.6 0 0 1-.2-1.42.3.3 0 0 1 .1-.18c.35-.32.6-.55.71-.69.3-.34.35-.32.13.09-.18.31-.4.68-.7 1.1Z" fill="#C38816"/><path d="M21.06 19.88c-.06.02-.1 0-.12-.06l-.01-.04c-.13-.34-.2-.65-.24-.91-.03-.27-.02-.41.06-.44h.03c.07-.03.18.07.32.3.14.22.27.5.4.85v.05c.03.05 0 .1-.05.11l-.4.14ZM24.25 19.28c.4.16.69.43.83.8.03.06.01.12-.03.17-.25.26-.55.28-.9.06l-.35-.33c-.45-.4-.74-.8-.86-1.15-.06-.2-.01-.23.15-.1.3.24.68.42 1.16.55Z" fill="#E6A81D"/><path d="M22.62 19.36c.07.17.18.29.26.26.08-.03.09-.2.02-.37-.07-.17-.19-.29-.26-.26-.08.03-.09.2-.02.37Z" fill="#C38816"/><path d="M22.8 20.5c.2.36.31.73.31 1.12 0 .12-.04.13-.12.05l-.1-.09-.35-.73a.32.32 0 0 0-.06-.1l-.67-.5c-.1-.06-.14-.14-.12-.22.06-.33.07-.57.03-.74-.08-.35 0-.38.21-.1.27.37.57.8.87 1.31ZM32.08 19.9c-.25.44-.52.78-.79 1.03-.44.42-.81.48-1.11.2-.12-.12-.13-.25-.03-.39.11-.26.33-.45.65-.58.14-.06.24-.1.32-.15.25-.14.55-.3.87-.5a.3.3 0 0 0 .14-.14.35.35 0 0 1 .12-.16c.08-.06.12-.04.1.06-.02.23-.11.44-.27.64ZM29.94 20.68c.07.27.03.47-.12.6-.05.04-.11.05-.17 0l-.72-.5c-.2-.46-.33-.9-.35-1.28-.03-.39.07-.43.3-.11.2.25.4.45.6.58.27.16.41.4.46.71Z" fill="#E6A81D"/><path d="m20.22 20.57.29.57c.03.07.03.13-.02.2-.17.24-.38.23-.63-.02l-.4-.42c-.06-.06-.1-.05-.13.03-.4 1.08-1.17 1.4-2.32.97-.18-.07-.17-.11.01-.14.27-.03.46-.08.56-.14.33-.22.29-.36-.11-.41-.31-.04-.58-.16-.82-.36a.5.5 0 0 0-.19-.1l-1-.28-.05-.08c-.03-.05-.02-.08.03-.1l.08-.02c.18.03.36.07.55.14.25.08.64.13 1.17.13.32 0 .55.01.7.03.08.01.12-.03.11-.1-.02-.2-.14-.34-.38-.4a.51.51 0 0 0-.13-.25c-.05-.06-.04-.1.03-.1.08-.01.14 0 .2.02.57.2 1.04.51 1.4.91.02.02.04.02.06 0 .02 0 .03-.01.03-.02l-.18-.3a2.33 2.33 0 0 0-.37-.51.99.99 0 0 0-.65-.25v-.07c0-.03.02-.04.05-.04.83.13 1.54.5 2.11 1.11Z" fill="#C38816"/><path d="m21.75 21.86-.42.15a1.52 1.52 0 0 1-.58-.62 5.32 5.32 0 0 1-.4-1.06c-.32-.34-.68-.6-1.1-.8-.02-.01-.03-.03-.02-.06.02-.03.04-.04.07-.03.37.15.74.32 1.1.51.8.43 1.25 1.06 1.35 1.91Z" fill="#C38816"/><path d="M17.67 20.07c.24.06.36.2.38.4.01.07-.03.11-.1.1a7.67 7.67 0 0 0-.7-.03c-.54 0-.93-.05-1.18-.13a3.26 3.26 0 0 0-.55-.14l-1.66-.49c-.02 0-.03-.01-.04-.03 0-.02.01-.04.03-.05l.03-.02c.92 0 1.85.02 2.77.05.16 0 .33.05.52.12l.5.22Z" fill="#FEFCED"/><path d="M24.02 20.4c.05.05.08.1.09.15 0 .08-.03.12-.11.11-.37 0-.68-.1-.92-.32a1.1 1.1 0 0 1-.1-.28.19.19 0 0 1 .09-.2.19.19 0 0 1 .23 0l.72.53Z" fill="#C38816"/><path d="m32.08 19.9.12.49c-.35.5-.7.94-1.05 1.29-.21.21-.34.46-.39.74-.01.08.03.13.11.15.28.05.49-.04.6-.28a.2.2 0 0 0 .22.11l-.1.07c-.52.36-.82.66-.89.9-.08.28 0 .45.24.48.1.02.1.05.02.1-.27.21-.49.44-.66.7-.07.1-.1.1-.11-.02a2.1 2.1 0 0 1 .07-.62.6.6 0 0 0 .01-.2c-.08-.67.04-1.3.35-1.86a.16.16 0 0 0 0-.18.17.17 0 0 0-.17-.07l-.3.02a.34.34 0 0 1-.23-.06c-.24-.17-.43-.13-.54.12-.08-.04-.1-.07-.03-.07 0-.3-.18-.56-.51-.76.05.01.08-.05.09-.16l.72.5c.06.04.12.03.17-.01.15-.13.19-.33.12-.6l.2.06c-.09.14-.08.27.04.38.3.29.67.23 1.11-.19.27-.25.54-.6.79-1.02Z" fill="#F6E7C0"/><path d="m15.46 20.47 1 .28a.5.5 0 0 1 .2.1c.23.2.5.32.8.36.41.05.45.19.12.4-.1.07-.29.12-.56.15-.18.02-.19.07-.01.14 1.15.43 1.92.11 2.32-.97.03-.08.07-.09.13-.03l.4.42c.25.25.46.26.63.01a.17.17 0 0 0 .02-.19l-.29-.57c.08.05.12-.03.13-.24l.09.26c.12.37.22.64.31.8.15.28.34.49.58.62 0 .03 0 .08-.03.13a1.2 1.2 0 0 0-.89.07c-.19.08-.46.25-.81.5-.15.1-.25.17-.32.2-.08.06-.4.11-.95.17-.03 0-.05.02-.05.05v.06c.02.01.04.03.08.03.51.07 1.04.07 1.58.02l-.77.33c.9.38 1.8.44 2.65.19-.1.12-.1.23-.05.32l-1.13.28c-.18.05-.2.15-.07.33l.04.05c.08.1.18.11.31.03l.93-.6c.03.1.08.15.13.14-.18.18-.28.34-.3.49-.03.12-.1.16-.22.13-.3-.07-.45-.01-.43.18 0 .04.02.07.05.09l.5.34c.06.03.11.04.17 0a.13.13 0 0 0 .07-.14.42.42 0 0 0-.07-.17c-.04-.06-.02-.09.03-.1l.38-.07c.07-.02.11 0 .13.06l.33.98c-.14.01-.23 0-.28-.05-.36-.4-.53-.41-.51-.06-.15-.11-.27-.17-.35-.18-.42-.5-.95-.82-1.58-.95-.04 0-.08 0-.11.03-.03.04-.03.07 0 .1l.04.04-.07.09a2.73 2.73 0 0 0-1.54-.68c-.45-.02-.46.04-.03.18.17.06.39.2.66.42.04.04.07.11.08.22 0 .07.05.1.12.12l.67.06c-.06.13 0 .22.16.28h-.67c-.11 0-.14.05-.08.14.01.03.03.05.06.07.1.09.2.13.28.13.33 0 .61.14.83.4l-.1.03c-.97-.44-1.77-.53-2.4-.27a.07.07 0 0 0-.05.07c0 .03.02.05.05.07l.27.13c.33.22.3.3-.1.24-.3-.05-.67.04-1.11.25-.11.06-.1.1.01.13l.32.08c.06.02.08.06.07.11v.07c0 .04-.03.06-.07.06-.5.04-.98.16-1.44.38-.09.04-.09.08 0 .13.07.05.2.06.38.04l-.82.15c-.07.01-.1-.02-.13-.09-.12-.51.02-.86.44-1.04.39-.17.37-.3-.03-.4l-.28-.07c-.25-.07-.41-.15-.48-.25l1.04.2a.2.2 0 0 0 .09 0 2.5 2.5 0 0 0 1.28-.67.32.32 0 0 0 .1-.3.33.33 0 0 0-.2-.25 2.7 2.7 0 0 0-1.27-.24c-.08 0-.1.04-.06.1a.2.2 0 0 0 .07.07 3.66 3.66 0 0 1-.53-.06c-.36-.09-.36-.16 0-.23l.4-.08a.24.24 0 0 0 .17-.11c.12-.21.05-.43-.2-.65-.05-.06-.05-.1.01-.15.14-.1.28-.16.45-.18l-.13.16a.1.1 0 0 0-.01.1.1.1 0 0 0 .1.06l1.46-.1c.06-.01.12 0 .16.05.04.04.04.07.01.1-.02.02-.02.05 0 .08.02.04.04.04.08.03l.5-.23c.36-.16.35-.27-.04-.34-.3-.04-.56-.1-.76-.18-.39-.14-.8-.07-1.25.21l.1-.24c.15-.1.24-.2.26-.3.02-.08-.01-.12-.1-.12h-.64c.06-.2.18-.35.34-.47a.1.1 0 0 0 .05-.1.1.1 0 0 0-.07-.1l-1.78-.8c-.07-.04-.1-.1-.1-.18.03-.31-.2-.56-.72-.75-.11-.05-.1-.08.01-.1l.48-.1h.02l-.05-.05c-.04-.02-.03-.03.01-.03l1.35.14Z" fill="#DED1AC"/><path d="M22.76 21.8c.17.32.2.63.08.94-.03.1-.1.17-.21.2a.3.3 0 0 1-.29-.08 1.46 1.46 0 0 1-.45-.99 2.52 2.52 0 0 0-.42-1.26.3.3 0 0 0-.12-.1c-.05-.03-.09-.07-.1-.14-.04-.1-.01-.13.09-.07a3.4 3.4 0 0 1 1.42 1.5ZM32.2 20.39c.03.69-.21 1.33-.72 1.9-.12.24-.33.33-.6.28-.1-.02-.13-.07-.12-.15.05-.28.18-.53.4-.74.34-.35.7-.78 1.04-1.3ZM27.59 23a.32.32 0 0 1-.24.1.32.32 0 0 1-.24-.1c-.59-.61-.9-1.37-.94-2.27 0-.07.03-.1.1-.1l.07-.01c.03 0 .05.01.07.04.2.41.5.8.88 1.14.53.47.63.87.3 1.2Z" fill="#C38816"/><path d="M25.07 21.2c0-.01-.02-.03-.05-.02h-.05c-.05 0-.07.03-.06.07.07.54-.12.95-.56 1.23a.16.16 0 0 1-.18 0 .4.4 0 0 0-.3-.05.32.32 0 0 1-.31-.1.3.3 0 0 1-.08-.31c.09-.3.04-.62-.14-.94-.03-.07-.05-.13-.04-.17 0-.08.04-.13.1-.14l.08.01c.3.22.61.25.92.08a.32.32 0 0 1 .18-.03c.22.01.35 0 .4-.03.1-.08.2-.09.34-.03.13.05.23.15.29.3l.45 1.08a.2.2 0 0 0 .1.1c.2.08.4.4.62.93.05.11.13.15.25.12.05-.02.1 0 .18.06a.2.2 0 0 1 .08.15l.1 1.26c0 .18-.07.3-.23.39l-.32.15c-.24.13-.38.05-.4-.22-.01-.35.07-.68.26-.98.06-.1.1-.24.12-.41l.02-.2c0-.03 0-.05-.04-.05-.03 0-.05.01-.05.03-.06.4-.26.6-.6.57a.15.15 0 0 0-.15.1c-.09.18-.22.28-.38.3a2.42 2.42 0 0 1-1.67-.35c-.38-.27-.34-.42.12-.46.6-.06 1.19-.01 1.75.14.07.02.1 0 .09-.07l-.05-.73c-.01-.08-.05-.1-.12-.06-.18.1-.32.23-.42.4-.22.34-.84.28-1.87-.19a.2.2 0 0 1-.12-.15c-.03-.15.04-.3.2-.45.07-.06.13-.05.17.03.03.04.08.08.15.1a.4.4 0 0 0 .17 0c.42-.06.8.02 1.17.25.07.05.1.03.07-.05-.02-.1-.07-.2-.15-.34a.75.75 0 0 1-.06-.7.96.96 0 0 0 .02-.61Z" fill="#E6A81D"/><path d="M28.84 20.95c.33.2.5.45.5.76-.25.19-.47.29-.64.3a.24.24 0 0 1-.23-.12.24.24 0 0 1 0-.26l.37-.68Z" fill="#C38816"/><path d="M32.24 23.15c.1.03.16.06.18.09a3.4 3.4 0 0 1-1.14 1.63c-.2.14-.49.18-.89.12-.07-.01-.12.01-.14.08a.4.4 0 0 0 0 .27c.02.08.07.1.14.06.28-.13.55-.2.8-.2.24 0 .27.08.1.25-.03.03-.05.11-.07.24 0 .06.02.09.09.08h.07c.04 0 .06-.03.06-.07a.46.46 0 0 1 .11-.36l1.1-1.24c.01-.02.03-.02.05 0l.05.06c.01.03.02.05 0 .08l-1.01 1.46a.08.08 0 0 0 0 .1c0 .01.02.03.05.03h.05l1.55-1.1h.03l.04.04c.02.03.02.05 0 .07l-1.44 1.28c-.3.28-.44.66-.4 1.15.04.41.18.8.43 1.18.68 1 1.28 1.86 1.8 2.56.17.24.18.5 0 .75l-.3.44c-.12.17-.24.17-.37.01l-1.02-1.32c-.03-.04-.06-.04-.1-.01l-.05.04.01.03.97 1.55c.1.16.07.3-.08.4l-.26.2c-.14.1-.25.08-.33-.07l-1-1.82c-.54-.97-1.59-3.07-3.16-6.3a.18.18 0 0 1 .02-.2c.22-.3.37-.59.47-.87.16-.5.29-.5.37.03.14.8.38 1.6.73 2.36.2.42.26.4.2-.06a42.07 42.07 0 0 1-.22-2.24c-.07-.63.03-1.23.3-1.81a.13.13 0 0 0-.03-.15l-.05-.06a.07.07 0 0 0-.07-.03.07.07 0 0 0-.06.05c-.39 1.05-.94 1.51-1.66 1.4-.2-.03-.27-.14-.2-.33.06-.21.17-.37.32-.5.1-.08.24-.15.44-.23.3-.1.53-.27.66-.49.11-.25.3-.29.54-.12.07.04.14.06.23.06l.3-.02c.07-.01.13.02.17.07.03.06.04.12 0 .18a2.98 2.98 0 0 0-.35 1.87.6.6 0 0 1-.01.2 2.1 2.1 0 0 0-.07.61c0 .12.04.12.1.03.18-.27.4-.5.67-.7.08-.06.07-.1-.02-.1-.24-.04-.32-.2-.24-.5.07-.23.37-.53.9-.89l.09-.07.72-1.03c.09-.13.12-.11.1.04-.12 1-.57 1.8-1.35 2.4-.04.04-.03.07 0 .1l.07.04c.03.02.05.02.08 0l.93-.8Z" fill="#C38816"/><path d="M24.19 21.37c.03-.02.06 0 .07.03l.02.04c.12.23.1.39-.05.46l-.03.01c-.15.08-.29 0-.4-.24l-.02-.04c-.02-.04 0-.06.03-.08l.38-.18Z" fill="#DED1AC"/><path d="M17.47 22.44c.47 0 .92-.14 1.34-.43.4-.28.82-.42 1.25-.42.07 0 .13.04.16.1.05.08.07.15.08.21 0 .07-.02.12-.07.16-.65.58-1.57.74-2.78.48-.35-.07-.34-.11.02-.1ZM13.55 21.88c.5-.08.87-.05 1.1.1.4.27.36.4-.12.42-.12 0-.33-.04-.61-.15-.23-.1-.7-.08-1.39.03l-.8.01c-.02 0-.03-.01-.03-.04l.01-.08c0-.08.05-.12.12-.12l1.72-.17ZM21.3 22.14c.14.33.01.6-.37.81-.27.15-.6.25-.99.29-.54.05-1.07.05-1.58-.02-.04 0-.06-.01-.07-.03a.07.07 0 0 1-.01-.06c0-.03.02-.04.05-.05.55-.06.87-.11.95-.16l.32-.22c.35-.24.62-.4.81-.49.33-.14.62-.16.89-.07ZM21.82 23.76c-.86.25-1.74.19-2.65-.2a3.04 3.04 0 0 0 1.4-.22c.7-.44 1.23-.58 1.57-.42.06.03.1.08.12.15.08.28-.07.5-.44.69Z" fill="#C38816"/><path d="m16.4 23.43-.48.28c-.9.53-1.54.8-1.95.8-.1 0-.17-.05-.18-.12 0-.07.02-.12.08-.16l2.05-1.22h.64c.09 0 .12.04.1.13-.02.1-.1.2-.27.3Z" fill="#FEFCED"/><path d="M16.18 23.73a.22.22 0 0 1 .12-.06c.45-.28.86-.35 1.25-.2.2.07.46.13.76.17.39.07.4.18.04.34l-.5.23c-.04.01-.06 0-.08-.03-.02-.03-.02-.06 0-.08.03-.03.03-.07-.01-.1a.19.19 0 0 0-.16-.06l-1.46.1a.1.1 0 0 1-.1-.04.1.1 0 0 1 0-.11l.14-.16ZM27.67 25.27c.08-.12.1-.26.05-.4a.78.78 0 0 1-.02-.2l-.03-1.23c0-.02.01-.04.03-.04.02 0 .04 0 .05.02l.1.17c.04.05.1.07.16.05l.18-.05a.2.2 0 0 1 .23.07c.06.07.06.15.01.23l-.62 1a.09.09 0 0 0 0 .1c.02.04.05.05.09.05h.05c.06-.01.1.02.12.07.13.4.27.76.42 1.09a95.97 95.97 0 0 0 3.63 7.08c.05.09.03.15-.05.2l-.27.18c-.1.06-.17.04-.22-.06-.3-.52-.64-1.1-1.04-1.73-.14-.21-.3-.4-.49-.56a37.32 37.32 0 0 1-4.42-4.45 1.72 1.72 0 0 1-.34-.74c-.01-.08.02-.13.09-.17.11-.05.22-.03.32.08.08.1.2.27.34.51.17.3.31.5.42.6.33.32.74.77 1.26 1.34.01.01.03.02.04 0l.05-.04v-.03l-1.6-2.4a.18.18 0 0 1-.02-.16c.02-.06.07-.1.13-.12l1.22-.36c.06-.02.1-.05.13-.1Z" fill="#E6A81D"/><path d="m22.62 26.1-.33-.98c-.02-.06-.06-.08-.13-.07l-.38.08c-.05.01-.07.04-.03.1.03.05.06.11.07.17 0 .07-.02.11-.07.14a.14.14 0 0 1-.16 0l-.5-.34a.12.12 0 0 1-.06-.1c-.02-.18.13-.24.43-.17.12.03.2-.01.21-.13.03-.15.13-.31.31-.49.23.02.36.14.39.36 0 .03.01.04.03.03.03 0 .04-.02.04-.03a2.5 2.5 0 0 1 0-.88c.07-.26.15-.27.26-.03.25.55.39.91.41 1.1.1.58.18.58.24-.02.03-.29-.13-.72-.47-1.29h.06l.3.08c.02 0 .03.02.04.03.84 1.66 1 2.72.47 3.19a.27.27 0 0 1-.23.06.26.26 0 0 1-.2-.14c-.15-.3-.19-.6-.11-.91v-.06l-.01-.02c-.01-.04-.02-.03-.04 0-.1.22-.29.33-.54.32Z" fill="#C38816"/><path d="M19.15 23.8a1.57 1.57 0 0 0 .33.33c.07.05.06.08-.03.08a.63.63 0 0 1-.58-.28c-.06-.1-.04-.15.06-.19.1-.03.17 0 .22.06ZM20.07 24.48c.17-.02.31-.12.3-.22 0-.11-.16-.18-.34-.17-.17.02-.31.11-.3.22 0 .1.16.18.34.17ZM21.77 24.08c.03.04.05.07.08.08l-.93.61c-.13.08-.23.07-.31-.03l-.04-.05c-.13-.18-.1-.28.07-.33l1.13-.28Z" fill="#E6A81D"/><path d="m19.76 25.12.18.15c.06.05.06.1 0 .14-.05.04-.12.05-.22.03l-.67-.06c-.07-.01-.11-.05-.12-.12 0-.1-.04-.18-.08-.22a2.2 2.2 0 0 0-.66-.42c-.43-.14-.42-.2.03-.18.49.02 1 .25 1.54.68ZM24.3 25.6c0-.18-.07-.45-.2-.8l-.08-.25c-.05-.15-.02-.17.1-.07.24.2.43.47.59.78.4.8.54 1.43.44 1.88a.36.36 0 0 1-.29.29.37.37 0 0 1-.39-.13c-.18-.22-.25-.75-.19-1.57l.01-.13ZM18.58 25.18c.12.01.2.06.28.13.05.06.04.11-.03.14-.46.22-.87.13-1.24-.25a1.97 1.97 0 0 0-.67-.43c-.3-.13-.29-.17.04-.13.54.06 1.03.22 1.45.48.05.03.1.05.17.06Z" fill="#C38816"/><path d="M25.44 25.64c-.2-.07-.4-.3-.61-.72l-.02-.03a.15.15 0 0 1 .02-.17c.04-.05.09-.07.16-.06l.18.03c.65.1 1.05.27 1.2.55.05.06.04.12-.01.18-.25.27-.55.35-.92.22Z" fill="#E6A81D"/><path d="m21.48 25.81-1.1-.35a.28.28 0 0 1-.15-.12.68.68 0 0 0-.4-.3l-.04-.05c-.03-.03-.03-.06 0-.1a.11.11 0 0 1 .11-.03c.64.13 1.16.44 1.58.95ZM14.83 26.28c-.66-.02-.88-.1-.66-.22l1.2-.1 1.42-.16c.14-.01.15-.05.02-.12l-.93-.49a.2.2 0 0 1-.07-.07c-.04-.06-.02-.1.06-.1.45-.03.87.05 1.27.24.11.05.18.13.2.25a.32.32 0 0 1-.1.3 2.5 2.5 0 0 1-1.28.67.2.2 0 0 1-.1 0l-1.03-.2Z" fill="#C38816"/><path d="m15.38 25.96-1.2.1c-.37-.16-.8-.2-1.27-.13-.1.02-.14-.02-.13-.12l.01-.06c0-.03.02-.05.05-.05.75-.13 1.44-.27 2.09-.43.15-.03.33-.03.56.02.07.02.11.06.13.13.04.16-.04.34-.24.54Z" fill="#fff"/><path d="M27.57 25.5h-.01a.1.1 0 0 0-.04.12l.57 1.1a.1.1 0 0 0 .12.04.1.1 0 0 0 .05-.12l-.57-1.1a.1.1 0 0 0-.12-.04Z" fill="#DED1AC"/><path d="M19.88 25.72c1.1.14 1.68.44 1.75.9.01.1-.02.2-.09.27a.33.33 0 0 1-.26.12c-.4-.01-.72-.2-.98-.56-.22-.25-.5-.38-.83-.39-.08 0-.18-.04-.28-.13a.24.24 0 0 1-.06-.07c-.06-.1-.03-.14.08-.14h.67Z" fill="#E6A81D"/><path d="m22.62 26.1-.15.49c-.02.07 0 .1.08.1.25.02.5.1.75.25.08.06.13.13.12.23 0 .1-.04.18-.13.23-.26.13-.56.19-.92.17-.02 0-.03 0-.04.03 0 .03 0 .04.04.05.24.04.57.01 1-.07.52-.1.92-.1 1.2.03.1.05.16.12.17.23.02.11-.02.2-.1.27-.25.22-.62.3-1.1.25-.4-.05-.77-.16-1.12-.35a.3.3 0 0 1-.16-.27.15.15 0 0 0-.1-.15c-.23-.08-.35-.21-.36-.39-.01-.15.07-.31.24-.47.05-.05.06-.11.03-.18l-.24-.56c-.02-.35.15-.33.51.06.05.04.14.06.28.05Z" fill="#C38816"/><path d="M20.2 26.5c.03.2.01.38-.07.56-.03.06-.02.12.03.17.37.38.3.87-.2 1.45l-.13.15c-.5.58-.9.95-1.22 1.11a.13.13 0 0 1-.1 0c-.06-.03-.07-.06-.02-.12.52-.53.8-1.15.86-1.86 0-.05.03-.1.06-.13l.5-.58c.05-.06.03-.1-.05-.13a2.3 2.3 0 0 0-.7-.06.2.2 0 0 0-.2.13l-.11.24c-.03.08-.01.12.07.14.11.03.2.1.27.2.06.12.07.24.03.36-.2.59-.55 1.05-1.05 1.39a.3.3 0 0 1-.2.04.94.94 0 0 1-.3-.07.36.36 0 0 0-.41.04c-.18.14-.34.23-.48.27-.06.02-.1.02-.13-.02s-.02-.1.02-.18c.24-.23.41-.55.54-.94a.23.23 0 0 1 .12-.14c.16-.07.25-.19.26-.34.01-.07-.02-.12-.1-.12l-1.36-.08c-.18.02-.3 0-.39-.04-.08-.05-.07-.09 0-.13.47-.22.95-.34 1.45-.38.04 0 .06-.02.07-.06v-.07c.01-.05-.01-.1-.07-.1l-.32-.09c-.12-.03-.12-.07-.01-.13.44-.21.81-.3 1.1-.25.4.07.44-.02.11-.24a2.83 2.83 0 0 0-.27-.13c-.03-.02-.05-.04-.05-.07 0-.03.02-.06.05-.07.63-.26 1.43-.17 2.4.27Z" fill="#E6A81D"/><path d="M28.14 28.36c.63 1.1 1.2 1.96 1.27 1.92.08-.04-.37-.97-1-2.07-.63-1.1-1.2-1.96-1.28-1.92-.07.04.38.97 1 2.07Z" fill="#DED1AC"/><path d="M34.3 32.96c-.68.9-1.28 1.53-1.78 1.9a5.69 5.69 0 0 1-4.67 1.09 6.19 6.19 0 0 1-3.55-2.35c-.09-.1-.07-.2.03-.27l.66-.5c.1-.08.2-.07.29.04a5.17 5.17 0 0 0 3.15 1.89c1.22.2 2.43-.05 3.63-.76 2.41-1.45 3.19-3.55 2.32-6.3-.15-.47-.3-.86-.45-1.17-.03-.06-.01-.1.05-.12.04-.01.07 0 .1.05a7.89 7.89 0 0 1 1.5 3.24 5.52 5.52 0 0 1-.48 3.51 6.56 6.56 0 0 1-5.02 3.66c-1.5.28-2.91.05-4.26-.7l-.9-.53a.66.66 0 0 0-.56-.05.13.13 0 0 1-.16-.04l-.95-1.23c-.09-.1-.08-.21.02-.31.16-.15.31-.15.47 0l.03.03c.97.94 1.75 1.55 2.33 1.83a6.15 6.15 0 0 0 6.37-.52 5.24 5.24 0 0 0 1.93-2.3.07.07 0 0 0-.02-.08c-.01-.02-.03-.03-.05-.03l-.03.02Z" fill="#C38816"/><path d="M18.6 29.94c-.15.15-.3.24-.44.29-.8.24-1.79.48-2.97.73a.88.88 0 0 1 0-.65c.03-.07.07-.1.14-.12.45-.09.9-.28 1.34-.59-.04.08-.05.14-.02.18.02.04.07.04.13.02.14-.04.3-.13.48-.27.13-.1.26-.11.4-.04.08.04.18.06.3.07a.3.3 0 0 0 .2-.04c.5-.34.86-.8 1.06-1.4a.41.41 0 0 0-.03-.34.4.4 0 0 0-.27-.21c-.08-.02-.1-.06-.07-.14l.12-.24a.2.2 0 0 1 .19-.13c.26-.01.49 0 .7.06.08.03.1.07.04.13l-.49.58a.23.23 0 0 0-.06.13c-.05.71-.34 1.33-.86 1.86-.05.06-.04.1.02.12h.1ZM32.22 30.06c.03.04.02.07-.01.09l-.06.03h-.03c-.5-.67-.85-1.11-1.06-1.33a2.8 2.8 0 0 1-.5-1.1l-.14-.44c-.1-.26 0-.31.26-.14l.12.21c.41.98.89 1.87 1.42 2.68Z" fill="#DED1AC"/><path d="M27.82 31.51a3 3 0 0 0-1.67-1.18 6.83 6.83 0 0 0-2.38-.86c-.07-.01-.1-.05-.08-.12a.15.15 0 0 1 .1-.1.95.95 0 0 1 .3-.08l1.13.12c.11.01.13-.02.05-.1a1.68 1.68 0 0 0-.8-.43.1.1 0 0 1-.08-.1.1.1 0 0 1 .05-.1l.25-.16a.17.17 0 0 1 .2 0c.83.56 1.44 1 1.86 1.35a8.9 8.9 0 0 1 1.52 1.58c.02.03.03.03.06.02l.08-.06c.04-.02.05-.05.02-.1-.6-.77-1.28-1.53-2.05-2.28a2.03 2.03 0 0 0-1.26-.6.2.2 0 0 1-.16-.1.2.2 0 0 1-.01-.2l.38-.8a.15.15 0 0 1 .12-.1c.05 0 .1.01.13.06.08.08.16.2.26.36.13.2.24.35.34.46a58.4 58.4 0 0 1 4.96 5.9c.05.07.03.11-.05.14l-.95.28c-.09.02-.15 0-.2-.07a.5.5 0 0 1-.06-.16.72.72 0 0 0-.06-.2c-.51-.9-1.18-1.7-2-2.37Z" fill="#C38816"/><path d="m20.29 28.65.04-.11c.29-.74.56-1.16.8-1.28a.35.35 0 0 1 .4.04c.12.1.16.21.13.36-.1.44-.48.92-1.16 1.46-.26.2-.54.34-.83.43-.14.04-.16 0-.06-.1l.19-.19c.25-.25.41-.45.49-.61Z" fill="#E6A81D"/><path d="M18.19 28.3c-.03.03-.05.03-.07 0l-.05-.04a.56.56 0 0 1-.19-.36.4.4 0 0 1 .1-.34H18c.09-.1.2-.14.34-.13.14 0 .26.06.37.17l.05.04c.03.03.03.05 0 .08l-.56.58Z" fill="#DED1AC"/><path d="M13.2 27.57c.44.16.36.44-.25.82l-2.7.98c-.07.02-.11 0-.13-.06 0-.04 0-.08.05-.1.8-.52 1.8-1.07 3.03-1.64Z" fill="#E6A81D"/><path d="M21.18 29.07c.05-.25.24-.55.57-.9a.36.36 0 0 1 .26-.11c.1 0 .2.03.27.1.36.32.88.46 1.54.4.08 0 .12.02.13.1 0 .1-.04.19-.13.24-.7.36-1.35.5-2 .42a3.1 3.1 0 0 0-.6.01 3.18 3.18 0 0 1-.47.01c.09-.02.2-.06.32-.12a.2.2 0 0 0 .11-.15Z" fill="#C38816"/><path d="M17.15 28.6c.03.05.02.08-.02.1l-.12.07c-.36.2-.68.36-.96.46-.29.1-.45.1-.5.03l-.02-.03c-.04-.07.05-.21.28-.41.22-.2.51-.4.87-.61l.11-.07c.05-.02.08-.01.1.03l.26.43Z" fill="#E6A81D"/><path d="M22.27 29.03c.23-.1.39-.24.36-.28-.02-.05-.22 0-.45.1-.22.1-.38.24-.35.29.02.05.22 0 .44-.11Z" fill="#DED1AC"/><path d="m22.85 30.34-.54.01a3.61 3.61 0 0 1-1.45-.16c-.2-.08-.2-.14.02-.16.4-.04.98-.15 1.73-.34.43-.1.7.01.8.35.03.07.07.1.14.06.2-.09.41-.12.64-.08.11.02.2.08.24.2.04.1.03.2-.04.3-.23.3-.64.47-1.24.5-.48.03-.95-.03-1.42-.17-.37-.1-.37-.17.02-.2.36-.01.73-.1 1.11-.26.08-.04.08-.05 0-.05ZM26.15 30.33a3 3 0 0 1 1.67 1.18l1.94 2.76c.06.08.04.12-.06.13-.2.02-.36-.03-.45-.16a42.82 42.82 0 0 0-1.71-2.13c-.34-.36-.7-.62-1.13-.78a7.21 7.21 0 0 0-1.6-.32c-.28-.05-.38-.2-.3-.46l.05-.15c.08-.27.26-.36.53-.28.55.18.9.25 1.06.21Z" fill="#E6A81D"/><path d="M29.85 32.87c.25.34.5.64.76.9a.1.1 0 0 1 .03.12.1.1 0 0 1-.1.07h-.1a.11.11 0 0 1-.1-.04l-1.26-1.56-.02-.04c0-.02 0-.04.02-.05 0-.02.02-.02.04 0 .32.18.57.38.73.6Z" fill="#DED1AC"/><path d="M40.4 35.62c-.11.47-.4.96-.83 1.48-.05.06-.1.06-.15.01l-2.5-2.32c-.15-.13-.16-.12-.04.03.77 1 1.52 1.87 2.23 2.63.13.14.13.28 0 .41l-.74.78c-.06.06-.1.06-.15 0l-1.9-2.46c-.06-.07-.1-.09-.14-.06l.01.05 1.76 2.7c.05.08.05.16-.03.24l-.6.63c-.1.1-.18.1-.26-.02l-2.76-4.23c-.13-.1-.13-.23.01-.4a9.23 9.23 0 0 0 1.4-2.26c.06-.15.15-.17.28-.09l4.42 2.88ZM22.7 35.66c.44.5.95.77 1.13.61.18-.15-.05-.68-.5-1.18-.46-.5-.97-.77-1.14-.62-.18.16.05.69.5 1.19ZM22.4 35.56l.1.1c.25.25.41.45.5.6.13.25.14.48.02.7-.11.22-.34.52-.68.9-.1.12-.15.1-.16-.05-.05-.86-.22-1.72-.5-2.58a.1.1 0 0 1 .02-.1.1.1 0 0 1 .1-.04c.16.02.32.13.49.34l.11.13ZM20.58 39.34a7.9 7.9 0 0 0-.44-3.44c-.07-.16-.02-.29.14-.37l.58-.29c.15-.07.26-.03.32.12.42 1 .57 2.03.45 3.11a.54.54 0 0 1-.22.39l-.72.54c-.07.05-.1.03-.1-.06ZM34.26 35.6c.02.1.05.2.1.28.77 1.4 1.59 2.77 2.46 4.12.01.03 0 .05-.02.07l-1.84 1.27-3.08-4.53c.32-.25.72-.45 1.2-.6l.05.25.72 1c.58.8 1.22 1.62 1.93 2.47.1.12.2.19.3.19.06 0 .1-.03.12-.08a.13.13 0 0 0-.02-.15c-.17-.2-.37-.44-.59-.73a3 3 0 0 1-.37-.84c-.15-.5-.4-.9-.73-1.25l-.68-1.22a.25.25 0 0 1-.02-.2c.08-.28.24-.3.47-.06Z" fill="#C38816"/><path d="M34.49 37.07c.33.34.58.76.73 1.25.14.41.26.7.37.84.22.29.42.53.6.73.03.04.04.1.01.15a.13.13 0 0 1-.12.08c-.1 0-.2-.07-.3-.19a45.22 45.22 0 0 1-1.93-2.48c.02-.34-.1-.7-.35-1.07a.26.26 0 0 0-.18-.12c-.08-.01-.12.01-.14.07l-.05.13-.06-.25.33-.3c.1-.08.17-.06.23.05.15.3.3.6.47.9.17.3.3.37.39.2Z" fill="#E6A81D"/><path d="m20.03 39.75-.96.78a.07.07 0 0 1-.08 0 .07.07 0 0 1-.04-.07 7.1 7.1 0 0 0-.34-3.12l-.11-.55a.15.15 0 0 1 .06-.15l.83-.63a.2.2 0 0 1 .17-.03c.07.02.11.06.14.12.43 1.24.54 2.46.33 3.65Z" fill="#C38816"/><path d="m33.85 37.45-.72-1 .05-.12c.02-.06.06-.08.14-.07.07 0 .13.05.18.12.25.38.37.73.35 1.07Z" fill="#DED1AC"/><path d="m31.88 36.8 3.08 4.54-.58.27-3.04-4.44c-.08-.12-.05-.2.1-.24l.44-.12Z" fill="#E6A81D"/><path d="M18.2 37.46c.31 1.12.37 2.23.2 3.33a.33.33 0 0 1-.25.28l-.61.18c-.14.04-.2-.01-.18-.16.12-.96.03-1.92-.28-2.9-.05-.15 0-.28.13-.38.19-.13.32-.27.4-.4.14-.12.24-.18.31-.17.1.02.19.09.28.22ZM16.24 38.85l.23-.23a.18.18 0 0 1 .2-.04c.07.03.12.08.12.16l.15 1.97c0 .05-.02.1-.07.12-.06.02-.1.02-.14-.02l-.07-.06a3 3 0 0 1-.73-.85c-.14-.35-.04-.7.31-1.05Z" fill="#C38816"/></svg>