<?xml version='1.0' encoding='utf-8'?>
<!-- by TradeStack -->
<svg width="56" height="56" viewBox="0 0 56 56" xmlns="http://www.w3.org/2000/svg"><path fill="#F0F3FA" d="M0 0h56v56H0z" /><path d="M11.56 28.5 9.66 33h11.49a4 4 0 0 0 3.96-4.05V28h2.1c-.2.74-.41 2.59.34 3.53A3.49 3.49 0 0 0 30.64 33c.97 0 1.76-.5 2.03-.75.35.25 1.3.75 2.3.75 1.24 0 2.76-.87 3.46-2.87l.84-2.13h.88v.95A4 4 0 0 0 44.1 33h.66c.75 0 1.44-.23 2.03-.61.23.3.7.61 1.52.61h2.34L52 29.62h-2.36c-.5 0-.81-.56-.6-1.03L50.66 25H47.2l-.24.73a3.65 3.65 0 0 0-2.2-.73H37.5l-1.88 4.24a.62.62 0 0 1-.57.38c-.33 0-.56-.36-.42-.68L36.41 25h-3.36l-1.74 4.23a.61.61 0 0 1-.56.39c-.34 0-.56-.36-.42-.67L32.09 25H20.5a3.76 3.76 0 0 0-3.73 3.8v.4l.03.48h-2.44L18.24 21h-3.52l-1.68 4h-2.3l.87-2.09c.37-.9-.27-1.91-1.22-1.91H5.85l-1.31 3h3.3L4 33h3.45l1.85-4.5h2.26Zm8.12.17c0-.43.34-.77.75-.77h1.01c.35 0 .64.3.64.66 0 .49-.38.88-.85.88h-.8a.76.76 0 0 1-.75-.77Zm25.15-.62c.41 0 .75.34.75.76s-.34.76-.75.76h-.8a.86.86 0 0 1-.85-.87c0-.36.29-.65.64-.65h1.01Z" fill="#DC0000" /></svg>