<?xml version='1.0' encoding='utf-8'?>
<!-- by TradeStack -->
<svg width="56" height="56" viewBox="0 0 56 56" fill="none" xmlns="http://www.w3.org/2000/svg">
<rect width="56" height="56" fill="#F0F3FA" />
<path fill-rule="evenodd" clip-rule="evenodd" d="M48.8757 30.4906C48.7928 29.9576 48.6353 29.4322 48.4665 28.9182C48.0553 27.6704 47.7534 26.3623 47.1648 25.2025C45.8274 22.5663 43.9563 20.3387 41.5766 18.5625C38.2297 16.0641 34.4503 14.6691 30.3406 14.1638C27.9938 13.8753 25.6487 13.9744 23.3149 14.4097C21.5417 14.7407 19.8298 15.2567 18.1852 15.9858C14.3935 17.6673 11.2982 20.1884 9.10558 23.7566C8.03955 25.4916 7.27648 27.3508 7.00049 29.4014C7.5648 28.9001 8.07917 28.3661 8.6012 27.8397C9.00371 27.4338 9.40821 27.0292 9.82937 26.6431C9.93257 26.5484 10.1034 26.528 10.2432 26.4734C10.2748 26.5604 10.3467 26.6561 10.3314 26.7334C10.2445 27.1688 10.3607 27.5375 10.5788 27.9187C10.8591 28.4079 10.7909 28.5913 10.3687 28.944C9.72583 29.4811 9.07762 30.0124 8.45271 30.5699C8.34318 30.6677 8.24796 30.9384 8.30456 31.0304C8.38813 31.1656 8.60719 31.2519 8.78198 31.282C8.89917 31.3021 9.05431 31.2111 9.16684 31.1321C9.72682 30.7393 10.2865 30.3447 10.8311 29.9308C11.5323 29.3977 12.2318 28.8633 12.9309 28.3283C14.0878 27.4432 15.2438 26.5571 16.403 25.675C17.2327 25.0442 18.0676 24.4195 18.9153 23.8135C19.0837 23.693 19.1896 23.6558 19.2582 23.703L24.7318 25.3678C25.4037 24.7772 26.0882 24.2006 26.787 23.6398C28.1017 22.585 29.3888 21.4965 30.6939 20.43C30.9739 20.2008 31.2782 20.0024 31.6477 19.734L48.7841 30.9581C48.8807 30.8878 48.9133 30.7336 48.8757 30.4906Z" fill="#4470B6" />
<path fill-rule="evenodd" clip-rule="evenodd" d="M48.8908 30.9617C48.7886 31.0361 48.6159 31.0164 48.3796 30.9074C46.8203 30.1895 45.1977 29.6473 43.5062 29.3929C42.2564 29.2048 40.9807 29.0844 39.7199 29.1105C38.5387 29.135 37.3624 29.3935 36.1835 29.5447C35.8168 29.592 35.4443 29.6762 35.0819 29.6473C34.8589 29.6296 34.5859 29.4814 34.4458 29.3037C33.7768 28.4567 33.0233 27.7402 31.9888 27.3646C31.6324 27.2356 31.5824 26.9941 31.7838 26.6468C32.0757 26.1415 32.3666 25.6352 32.6545 25.1279C32.9897 24.5374 32.9031 23.9232 32.738 23.3106C32.6196 22.872 32.4851 22.4378 32.354 22.0026C32.3253 21.9074 32.303 21.7957 32.2398 21.728C31.8537 21.3152 31.7352 20.8529 31.8897 20.2996C31.9259 20.1695 31.8277 20.0012 31.7592 19.7152L48.8908 30.9617ZM24.7763 25.4449C23.4709 26.6001 22.2137 27.8083 20.9915 29.0564C20.371 29.6902 19.8842 29.6054 19.5738 28.7679C19.4685 28.4827 19.4685 28.0904 19.5741 27.8056C19.8768 26.9914 19.8752 26.216 19.5852 25.3995C19.4434 25.0007 19.4212 24.5538 19.3804 24.1252C19.3612 23.9251 19.3297 23.8031 19.2644 23.7576L24.7763 25.4449ZM26.292 28.2708C26.699 27.282 27.1827 26.3441 28.0867 25.7049C28.4508 25.4477 28.7637 25.1741 28.7858 24.6753C28.7911 24.5543 28.8531 24.4204 28.9268 24.3213C29.2112 23.938 29.5046 23.5608 29.8101 23.1942C29.8717 23.1206 29.9996 23.1039 30.0968 23.0607C30.1135 23.1646 30.1748 23.2889 30.1397 23.3693C29.8318 24.0705 29.5665 24.8013 29.1733 25.4511C28.5064 26.5529 27.5739 27.4278 26.5945 28.2449C26.5329 28.2963 26.4495 28.3208 26.3761 28.3576C26.348 28.3287 26.3202 28.2997 26.292 28.2708ZM13.0635 29.7076C13.8017 28.8667 14.5523 28.09 15.6816 27.8001C15.6463 28.6822 13.8212 30.0103 13.0635 29.7076ZM26.0698 25.9879C26.8703 25.9879 25.3114 28.0963 24.5076 28.2182C24.4172 27.4549 25.2243 26.2869 26.0698 25.9879Z" fill="#F7B62D" />
<path fill-rule="evenodd" clip-rule="evenodd" d="M7.64353 35.9966L7.56874 35.5928C7.55145 35.4977 7.52419 35.3643 7.48763 35.193L7.12964 33.5531L7 33C7.18481 33.003 7.33373 33.004 7.44807 33.004C7.57705 33.004 7.72629 33.003 7.89615 33C7.9357 33.2385 7.96695 33.4134 7.99055 33.5245L8.17503 34.4095C8.21293 34.5997 8.25547 34.8315 8.30234 35.1052L8.37447 34.7979L8.63507 33.7836L8.81457 33C9.01501 33.003 9.18486 33.004 9.3238 33.004C9.47438 33.004 9.64357 33.003 9.83071 33L9.96932 33.9242L10.1608 35.1009L10.2465 34.778C10.2625 34.7224 10.2795 34.6662 10.2967 34.609C10.3144 34.5522 10.3509 34.4384 10.4064 34.2688L10.674 33.4257L10.799 33C10.9758 33.0013 11.1221 33.002 11.2374 33.002C11.3677 33.002 11.513 33.0013 11.6739 33L10.8229 35.5509L10.6873 35.9966C10.4679 35.9936 10.2761 35.9922 10.1123 35.9922C9.93941 35.9922 9.74861 35.9936 9.53953 35.9966L9.48901 35.6959L9.29622 34.6486C9.28591 34.5858 9.27694 34.5209 9.26896 34.4544C9.26098 34.3879 9.24968 34.2841 9.23505 34.1438L9.15827 34.484C9.13899 34.5601 9.11938 34.637 9.09877 34.7145L8.7451 35.9966C8.52438 35.9936 8.3409 35.9922 8.19464 35.9922C8.03941 35.9922 7.85593 35.9936 7.64353 35.9966Z" fill="#4470B6" />
<path fill-rule="evenodd" clip-rule="evenodd" d="M11.9714 33.5221C11.9806 33.3509 11.9856 33.216 11.9856 33.1166C11.9856 33.0879 11.9849 33.049 11.9831 33C12.1725 33.0029 12.3317 33.0046 12.4606 33.0046C12.6376 33.0046 12.7925 33.0029 12.9256 33C12.921 33.0448 12.9178 33.082 12.9164 33.1124L12.9021 33.3797C12.8989 33.4202 12.8975 33.4675 12.8975 33.5221C12.7426 33.5192 12.5934 33.5179 12.451 33.5179C12.3036 33.5179 12.1437 33.5192 11.9714 33.5221ZM11.8232 36C11.8453 35.8249 11.8613 35.6801 11.8724 35.5668C11.8831 35.4531 11.8937 35.308 11.9041 35.1309C11.914 34.9541 11.9229 34.7588 11.9308 34.5444C11.9386 34.3301 11.945 34.0815 11.9496 33.7982C12.1533 33.8011 12.3164 33.8024 12.4389 33.8024C12.55 33.8024 12.7102 33.8011 12.9189 33.7982C12.8914 34.0697 12.8722 34.3085 12.8605 34.5144C12.8484 34.7199 12.8409 34.9378 12.838 35.1678C12.8316 35.5762 12.8284 35.8536 12.8284 36C12.6422 35.9974 12.4816 35.9958 12.347 35.9958C12.2138 35.9958 12.0394 35.9974 11.8232 36ZM13.339 36L13.3802 35.5272L13.4697 33.884L13.4948 33C13.7087 33.003 13.8698 33.004 13.9774 33.004C14.1175 33.004 14.2723 33.003 14.4414 33L14.389 33.6746L14.3041 35.3361L14.2859 36C14.1213 35.9987 13.9725 35.998 13.8401 35.998L13.339 36ZM16.3712 34.2788C16.2916 34.2615 16.2164 34.253 16.146 34.253C16.0007 34.253 15.8769 34.2798 15.7748 34.3337C15.6727 34.3876 15.5941 34.4719 15.5397 34.5863C15.4849 34.7006 15.4574 34.813 15.4574 34.9238C15.4574 35.0071 15.4727 35.0822 15.5036 35.1492C15.5342 35.2159 15.5815 35.2688 15.6452 35.3077C15.7091 35.3465 15.7799 35.3658 15.8582 35.3658C15.9405 35.3658 16.016 35.3436 16.0841 35.2992C16.1525 35.2544 16.2083 35.1891 16.2508 35.1028C16.2933 35.0166 16.3226 34.914 16.3386 34.7954C16.3542 34.6768 16.3651 34.5046 16.3712 34.2788ZM17.1715 36H16.3355L16.3484 35.67C16.2899 35.7246 16.2392 35.769 16.1957 35.8027C16.1521 35.8363 16.0963 35.8693 16.0286 35.9007C15.9602 35.9324 15.8871 35.9569 15.8085 35.9742C15.7299 35.9915 15.6486 36 15.5649 36C15.4213 36 15.2866 35.9748 15.1617 35.9245C15.0368 35.8742 14.9303 35.8027 14.8419 35.7099C14.7537 35.6171 14.6877 35.507 14.6442 35.3799C14.601 35.2528 14.5792 35.1208 14.5792 34.9842C14.5792 34.7901 14.619 34.6003 14.6983 34.4147C14.7776 34.2291 14.8817 34.0834 15.0096 33.9769C15.1379 33.8704 15.2825 33.7956 15.4434 33.7515C15.6043 33.7077 15.7785 33.6858 15.966 33.6858C16.0902 33.6858 16.2358 33.6966 16.4019 33.7181C16.4138 33.5469 16.4219 33.3074 16.4264 33C16.6104 33.0029 16.7608 33.0042 16.8775 33.0042C17.0286 33.0042 17.181 33.0029 17.3351 33C17.2919 33.427 17.2535 33.9482 17.2208 34.5637C17.1878 35.1789 17.1715 36 17.1715 36ZM17.6759 35.9028C17.6697 35.8396 17.6636 35.7729 17.6578 35.7032C17.6517 35.6331 17.6421 35.5369 17.6285 35.4145L17.6107 35.259C17.7557 35.3137 17.8808 35.3546 17.9855 35.3811C18.0902 35.4076 18.1871 35.421 18.2754 35.421C18.3487 35.421 18.408 35.4145 18.4537 35.4017C18.4994 35.3886 18.5329 35.37 18.5537 35.3454C18.5748 35.3212 18.5854 35.296 18.5854 35.2698C18.5854 35.2469 18.5775 35.224 18.5618 35.2017C18.5462 35.1795 18.5104 35.1487 18.4551 35.1101C18.3323 35.0234 18.2242 34.9452 18.1308 34.8745C18.037 34.8041 17.9668 34.7412 17.9197 34.6866C17.8726 34.6316 17.8365 34.5727 17.8119 34.5095C17.7874 34.446 17.7751 34.3806 17.7751 34.3128C17.7751 34.193 17.8106 34.0818 17.8818 33.978C17.9531 33.8743 18.0582 33.799 18.197 33.7522C18.3357 33.7054 18.5049 33.6818 18.7047 33.6818C18.9131 33.6818 19.1794 33.7077 19.5037 33.7597L19.5399 34.3645C19.3581 34.2955 19.1832 34.2608 19.0154 34.2608C18.8967 34.2608 18.8108 34.2726 18.7576 34.2958C18.7044 34.3194 18.6778 34.3551 18.6778 34.4035C18.6778 34.4192 18.6805 34.4346 18.6867 34.449C18.6925 34.4634 18.7034 34.4784 18.7194 34.4941C18.7351 34.5102 18.7545 34.5262 18.7777 34.5429C18.8009 34.5596 18.8579 34.5979 18.9475 34.6584C19.0379 34.719 19.1085 34.7687 19.1593 34.8074C19.2435 34.8709 19.3077 34.9294 19.352 34.9834C19.396 35.0374 19.4297 35.0954 19.4529 35.1566C19.4765 35.2178 19.4881 35.2823 19.4881 35.35C19.4881 35.4521 19.4621 35.5461 19.4103 35.6318C19.3585 35.7175 19.2807 35.7889 19.176 35.8468C19.072 35.9044 18.9591 35.9444 18.8374 35.9666C18.716 35.9889 18.5905 36 18.4616 36C18.3743 36 18.2652 35.9928 18.1339 35.9784C18.0026 35.964 17.8498 35.9388 17.6759 35.9028ZM20.7915 34.7374L21.1723 34.1927L21.4577 33.7558C21.6612 33.7588 21.8154 33.7602 21.9203 33.7602C22.0648 33.7602 22.2362 33.7588 22.4336 33.7558L21.9931 34.3245C21.8898 34.4547 21.7846 34.5952 21.6769 34.7461C21.7802 34.9352 22.0286 35.3534 22.4226 36C22.2502 35.997 22.0943 35.9957 21.9555 35.9957C21.8141 35.9957 21.6518 35.997 21.4687 36L21.3316 35.725C21.283 35.6297 21.2407 35.5498 21.2055 35.4852C21.1921 35.4589 21.0912 35.2791 20.9021 34.9462L20.7915 34.7374ZM19.8155 36C19.8359 35.8125 19.8507 35.66 19.8594 35.5428C19.8711 35.383 19.8829 35.1832 19.8946 34.9428L19.9188 34.4221C19.9292 34.186 19.9365 33.9606 19.9409 33.7452C19.9466 33.4871 19.9496 33.2387 19.9496 33C20.1561 33.003 20.3114 33.004 20.4146 33.004C20.5343 33.004 20.6761 33.003 20.8401 33C20.8059 33.3839 20.775 33.8607 20.7469 34.4307C20.7184 35.0008 20.7043 35.5239 20.7043 36C20.5333 35.997 20.3888 35.9957 20.2708 35.9957C20.1353 35.9957 19.9835 35.997 19.8155 36Z" fill="#4470B6" />
<path fill-rule="evenodd" clip-rule="evenodd" d="M22.4193 36.9361C22.3736 36.5952 22.3423 36.3832 22.3262 36.3005C22.4193 36.3433 22.502 36.3725 22.5736 36.3884C22.6455 36.4039 22.7074 36.412 22.7591 36.412C22.8139 36.412 22.8653 36.4046 22.9134 36.3903C22.9615 36.376 22.9998 36.3589 23.028 36.3381C23.0559 36.3174 23.0865 36.2856 23.1198 36.2428C23.1534 36.2 23.178 36.1634 23.1944 36.1326C23.2106 36.1018 23.227 36.0581 23.2435 36.001L22.8257 34.7836L22.4684 33.7736C22.6889 33.7765 22.8435 33.7778 22.9322 33.7778C23.0358 33.7778 23.1773 33.7765 23.3564 33.7736C23.3847 33.8834 23.4368 34.0731 23.5131 34.3427C23.5894 34.6124 23.6445 34.8234 23.6785 34.9761C23.6976 35.0604 23.7161 35.1673 23.7339 35.297L23.7807 35.1259C23.7954 35.0801 23.8126 35.0283 23.8318 34.9696C23.8509 34.9113 23.8751 34.8413 23.9047 34.7602L24.0489 34.3706L24.2886 33.7736C24.4731 33.7765 24.6129 33.7778 24.7074 33.7778C24.7901 33.7778 24.938 33.7765 25.1508 33.7736L24.7229 34.7067L23.9491 36.4376C23.8986 36.5345 23.8506 36.6117 23.8049 36.6687C23.7618 36.7199 23.7151 36.765 23.665 36.8036C23.6176 36.8392 23.5665 36.869 23.5117 36.8934C23.4378 36.9261 23.3564 36.9517 23.2674 36.9702C23.1699 36.9903 23.0704 37.0003 22.9702 37.0003C22.9242 37.0003 22.8633 36.9971 22.788 36.9906C22.7124 36.9841 22.6512 36.9776 22.6048 36.9715C22.5581 36.965 22.4963 36.9533 22.4193 36.9361Z" fill="#4470B6" />
<path fill-rule="evenodd" clip-rule="evenodd" d="M26.4297 36.0013C26.457 35.7446 26.4785 35.5131 26.4944 35.3072C26.5104 35.1016 26.5241 34.8628 26.5354 34.5915C26.5468 34.3202 26.5553 34.0337 26.5612 33.7322C26.567 33.4311 26.5699 33.191 26.5699 33.0133C26.7486 33.0172 26.8934 33.0196 27.0037 33.0196C27.1183 33.0196 27.2579 33.0166 27.4225 33.0096C27.5872 33.0033 27.7476 33 27.9035 33C28.0867 33 28.2501 33.0073 28.3932 33.0219C28.5006 33.0322 28.5983 33.0531 28.6864 33.0852C28.7746 33.1174 28.8485 33.1565 28.9087 33.2026C28.9689 33.2484 29.019 33.2998 29.0591 33.3568C29.0994 33.4139 29.1303 33.4805 29.1528 33.5571C29.1746 33.6338 29.1856 33.7157 29.1856 33.8035C29.1856 33.901 29.1736 33.9929 29.1492 34.0781C29.1251 34.1634 29.0867 34.244 29.0343 34.3189C28.9819 34.3942 28.9162 34.4592 28.8368 34.5139C28.7574 34.5686 28.6461 34.6243 28.5026 34.6814L28.6145 34.9593C28.6461 35.0366 28.6796 35.1155 28.7154 35.1957L29.0034 35.8371C29.0161 35.865 29.0389 35.9197 29.0721 36.0013C28.8358 35.9983 28.677 35.997 28.5953 35.997C28.4925 35.997 28.3236 35.9983 28.0887 36.0013C28.0659 35.9253 28.0242 35.7847 27.964 35.5788C27.9399 35.4929 27.9188 35.4262 27.9015 35.3795C27.8671 35.276 27.8163 35.1307 27.7489 34.944L27.5276 34.3242C27.6048 34.3391 27.6806 34.3464 27.7551 34.3464C27.8599 34.3464 27.9546 34.3302 28.0398 34.298C28.1248 34.2662 28.1895 34.2164 28.2331 34.1494C28.2768 34.0821 28.2986 34.0115 28.2986 33.9369C28.2986 33.8742 28.282 33.8191 28.2491 33.7717C28.2162 33.7243 28.1645 33.6888 28.0935 33.6656C28.0226 33.642 27.9136 33.6304 27.7658 33.6304C27.7157 33.6304 27.6637 33.6314 27.61 33.6337C27.5563 33.6361 27.4938 33.6377 27.4222 33.6391C27.404 33.9385 27.3877 34.3033 27.3734 34.7338C27.3594 35.1646 27.3503 35.5867 27.3457 36.0013C27.1066 35.9983 26.951 35.997 26.8791 35.997C26.7961 35.997 26.6464 35.9983 26.4297 36.0013ZM30.5004 34.5943H31.2387C31.2401 34.5698 31.2411 34.5488 31.2411 34.5318C31.2411 34.4568 31.2272 34.3926 31.1994 34.3393C31.1716 34.2859 31.1323 34.2469 31.0808 34.2224C31.0296 34.1981 30.9717 34.1857 30.9073 34.1857C30.8626 34.1857 30.8192 34.1926 30.7775 34.2063C30.7359 34.2201 30.6982 34.24 30.6647 34.2669C30.6315 34.2934 30.6034 34.3242 30.5807 34.3586C30.5586 34.3933 30.542 34.4267 30.5319 34.4591C30.5214 34.4918 30.5105 34.5367 30.5004 34.5943ZM31.8761 35.2924C31.8568 35.3788 31.8195 35.5877 31.7639 35.9191C31.5914 35.9525 31.4457 35.9744 31.3278 35.9852C31.2102 35.996 31.091 36.0013 30.9703 36.0013C30.7924 36.0013 30.6295 35.9895 30.48 35.9656C30.3313 35.942 30.2025 35.8998 30.0944 35.8395C29.986 35.779 29.8959 35.7036 29.8227 35.6139C29.7495 35.5239 29.6939 35.4168 29.656 35.2931C29.618 35.1693 29.599 35.0419 29.599 34.9109C29.599 34.7266 29.637 34.5465 29.7132 34.3697C29.7888 34.1935 29.887 34.0557 30.0073 33.9565C30.127 33.8573 30.2655 33.7866 30.4221 33.745C30.5786 33.7031 30.7389 33.6821 30.9029 33.6821C31.073 33.6821 31.2353 33.7011 31.3895 33.7394C31.544 33.7777 31.6748 33.8442 31.7819 33.9395C31.8896 34.0347 31.9659 34.1418 32.0113 34.2613C32.057 34.3812 32.0794 34.5102 32.0794 34.6483C32.0794 34.7305 32.0699 34.8219 32.0506 34.9227L30.4824 34.925C30.4807 34.9479 30.48 34.9689 30.48 34.9876C30.48 35.1424 30.5376 35.2564 30.6525 35.3297C30.7674 35.4027 30.9073 35.4394 31.073 35.4394C31.1713 35.4394 31.2838 35.4283 31.4098 35.406C31.5359 35.3837 31.6914 35.3458 31.8761 35.2924ZM32.2823 35.904C32.2762 35.8408 32.2704 35.774 32.2642 35.7043C32.2584 35.6342 32.2486 35.538 32.2349 35.4155L32.2172 35.26C32.3621 35.3147 32.4873 35.3556 32.592 35.3821C32.697 35.4086 32.7935 35.4221 32.8818 35.4221C32.9555 35.4221 33.0145 35.4155 33.0605 35.4027C33.1062 35.3896 33.1396 35.371 33.1601 35.3464C33.1816 35.3222 33.1918 35.297 33.1918 35.2708C33.1918 35.2479 33.184 35.2249 33.1683 35.2027C33.1526 35.1804 33.1168 35.1496 33.0616 35.111C32.9388 35.0242 32.8307 34.946 32.7372 34.8753C32.6438 34.8049 32.5735 34.742 32.5261 34.6873C32.4791 34.6323 32.4433 34.5734 32.4184 34.5102C32.3938 34.4466 32.3816 34.3812 32.3816 34.3134C32.3816 34.1935 32.417 34.0822 32.4883 33.9784C32.5596 33.8746 32.6646 33.7993 32.8034 33.7525C32.9425 33.7057 33.1117 33.6821 33.3112 33.6821C33.5199 33.6821 33.7859 33.708 34.1102 33.76L34.1463 34.3651C33.9649 34.296 33.79 34.2613 33.6219 34.2613C33.5032 34.2613 33.4172 34.2731 33.364 34.2964C33.3108 34.3199 33.2842 34.3556 33.2842 34.4041C33.2842 34.4198 33.287 34.4352 33.2931 34.4496C33.2989 34.464 33.3102 34.4791 33.3258 34.4948C33.3415 34.5108 33.361 34.5269 33.3842 34.5436C33.4077 34.5603 33.4643 34.5986 33.554 34.6592C33.6444 34.7197 33.715 34.7695 33.7658 34.8081C33.85 34.8716 33.9141 34.9303 33.9584 34.9843C34.0024 35.0383 34.0365 35.0963 34.0597 35.1575C34.0826 35.2187 34.0945 35.2832 34.0945 35.351C34.0945 35.4532 34.0686 35.5471 34.0168 35.6329C33.9653 35.7187 33.8872 35.7901 33.7828 35.848C33.6785 35.9057 33.5656 35.9456 33.4438 35.9679C33.3224 35.9901 33.1973 36.0013 33.068 36.0013C32.9811 36.0013 32.8719 35.9941 32.7407 35.9797C32.609 35.9653 32.4566 35.94 32.2823 35.904ZM35.756 34.3173C35.6638 34.3173 35.5814 34.3412 35.5089 34.3887C35.4367 34.4362 35.3823 34.5059 35.3455 34.5973C35.3088 34.6886 35.2904 34.7885 35.2904 34.8969C35.2904 35.055 35.3301 35.1765 35.4092 35.261C35.4889 35.3451 35.5883 35.3873 35.708 35.3873C35.7993 35.3873 35.881 35.3631 35.9531 35.315C36.025 35.2665 36.0798 35.1955 36.1168 35.1008C36.1533 35.0066 36.172 34.905 36.172 34.797C36.172 34.7079 36.1575 34.6271 36.1287 34.555C36.0995 34.483 36.0522 34.4254 35.9866 34.3821C35.921 34.3389 35.8442 34.3173 35.756 34.3173ZM35.771 33.6821C35.9502 33.6821 36.1224 33.7093 36.2878 33.764C36.4531 33.819 36.5929 33.8976 36.7068 34.0007C36.8209 34.1038 36.9049 34.224 36.9591 34.3615C37.0132 34.4994 37.0401 34.6474 37.0401 34.8058C37.0401 34.9601 37.0161 35.1067 36.9676 35.2456C36.9194 35.3847 36.8373 35.5154 36.7218 35.6368C36.6064 35.7587 36.4597 35.8497 36.2812 35.9102C36.1031 35.9708 35.9141 36.0013 35.7149 36.0013C35.5312 36.0013 35.3554 35.9744 35.1864 35.9211C35.0174 35.8677 34.8763 35.7901 34.7632 35.6876C34.6496 35.5854 34.5643 35.463 34.5072 35.3202C34.4505 35.1775 34.4219 35.0278 34.4219 34.8707C34.4219 34.7135 34.4498 34.5639 34.5049 34.4211C34.5607 34.2784 34.649 34.1503 34.7694 34.0364C34.8901 33.9224 35.0387 33.835 35.2166 33.7738C35.3941 33.7126 35.5791 33.6821 35.771 33.6821ZM39.815 36H39.007L39.0044 35.6069C38.9534 35.6734 38.9098 35.723 38.8746 35.7566C38.8394 35.7895 38.8004 35.819 38.7587 35.8438C38.7164 35.869 38.6696 35.8908 38.6176 35.9092C38.566 35.9277 38.5063 35.9421 38.4388 35.9522C38.3713 35.9626 38.3029 35.968 38.2335 35.968C38.1211 35.968 38.0149 35.9542 37.9145 35.927C37.8147 35.8995 37.7263 35.8535 37.6504 35.7885C37.5745 35.7234 37.5226 35.6499 37.4948 35.567C37.4674 35.4841 37.4535 35.3885 37.4535 35.2791C37.4535 35.2526 37.4554 35.2113 37.4596 35.155L37.4938 34.652C37.5038 34.4678 37.5129 34.4329 37.5216 34.2084C37.5271 34.0712 37.53 33.941 37.53 33.8185C37.7063 33.8215 37.8561 33.8229 37.9797 33.8229C38.1046 33.8229 38.2425 33.8215 38.3933 33.8185L38.3271 34.4926C38.3171 34.6212 38.3119 34.7087 38.3109 34.7554C38.3103 34.8017 38.31 34.8332 38.31 34.8493C38.31 35.0043 38.3403 35.1093 38.4007 35.1637C38.4614 35.2184 38.5334 35.2459 38.6176 35.2459C38.6515 35.2459 38.6861 35.2405 38.72 35.2305C38.7545 35.2201 38.7871 35.2053 38.8184 35.1858C38.8456 35.1684 38.8704 35.1463 38.8933 35.1197C38.9175 35.0916 38.9389 35.0577 38.9576 35.0177C38.9802 34.9691 38.9973 34.9168 39.0086 34.8604C39.0244 34.7822 39.0367 34.6832 39.0451 34.5638C39.0506 34.4765 39.058 34.4956 39.068 34.2816L39.0845 33.8185C39.2678 33.8215 39.4183 33.8229 39.5358 33.8229C39.6678 33.8229 39.8005 33.8215 39.9338 33.8185C39.9016 34.1936 39.8757 34.3806 39.8576 34.7188C39.8389 35.057 39.815 36 39.815 36ZM40.3472 36.0013L40.4134 35.0177L40.4351 34.4529C40.4361 34.3509 40.4368 34.2469 40.4368 34.1405C40.4368 34.0328 40.4355 33.8989 40.4329 33.7395C40.6055 33.7425 40.7427 33.7439 40.8439 33.7439C40.9623 33.7439 41.0986 33.7425 41.2533 33.7395L41.2443 33.9898C41.3001 33.9251 41.3455 33.8764 41.3815 33.8449C41.4172 33.813 41.4577 33.7845 41.5031 33.7583C41.5492 33.7324 41.5972 33.7133 41.6472 33.7009C41.6971 33.6881 41.749 33.6821 41.8032 33.6821C41.8548 33.6821 41.9119 33.6895 41.9752 33.7043C41.9761 33.865 41.9797 33.9982 41.9856 34.1029L42.0008 34.4439C41.922 34.4204 41.8486 34.4086 41.7802 34.4086C41.6942 34.4086 41.6206 34.4214 41.5586 34.4472C41.4967 34.4731 41.4415 34.5123 41.3941 34.5647C41.3461 34.617 41.3078 34.6825 41.2793 34.761C41.2507 34.8392 41.231 34.9633 41.2193 35.1331C41.2079 35.3026 41.2024 35.4972 41.2024 35.7154C41.2024 35.7922 41.2053 35.8875 41.2108 36.0013C41.0723 35.9983 40.9331 35.9969 40.793 35.9969C40.6545 35.9969 40.5059 35.9983 40.3472 36.0013ZM44.1441 35.2557C44.1374 35.3133 44.1204 35.4194 44.0933 35.5733L44.038 35.9191C43.8159 35.9741 43.5988 36.0013 43.3866 36.0013C43.2323 36.0013 43.0969 35.9856 42.9812 35.9538C42.8439 35.9165 42.7207 35.85 42.6117 35.7547C42.5002 35.6571 42.4185 35.5409 42.3677 35.407C42.3069 35.2498 42.2764 35.074 42.2764 34.8795C42.2764 34.7011 42.306 34.5288 42.3658 34.3628C42.4249 34.1975 42.5127 34.0609 42.6288 33.9532C42.7445 33.8461 42.8735 33.7741 43.0149 33.7371C43.1567 33.7004 43.313 33.6821 43.4841 33.6821C43.5847 33.6821 43.6856 33.6873 43.7876 33.6985C43.8895 33.7093 44.0155 33.7325 44.1654 33.7685L44.1695 33.8183C44.1741 33.8704 44.1773 33.9231 44.1792 33.9771C44.1811 34.0311 44.1859 34.1166 44.193 34.2332L44.2056 34.4257C44.0036 34.3537 43.8242 34.3176 43.6686 34.3176C43.557 34.3176 43.459 34.3396 43.3747 34.3835C43.2908 34.4277 43.2281 34.4909 43.1879 34.5737C43.1477 34.6565 43.1275 34.7528 43.1275 34.8622C43.1275 34.9735 43.1458 35.0661 43.1818 35.1411C43.2178 35.2161 43.2754 35.2721 43.3548 35.3097C43.4339 35.3471 43.521 35.3657 43.6156 35.3657C43.6638 35.3657 43.721 35.3608 43.7866 35.351C43.8525 35.3409 43.9098 35.3297 43.9586 35.3173C44.0072 35.3048 44.0692 35.2845 44.1441 35.2557ZM45.3825 34.5943H46.1208C46.1222 34.5698 46.1232 34.5488 46.1232 34.5318C46.1232 34.4568 46.1093 34.3926 46.0815 34.3393C46.0537 34.2859 46.0141 34.2469 45.9629 34.2224C45.9118 34.1981 45.8538 34.1857 45.7894 34.1857C45.7447 34.1857 45.7013 34.1926 45.6597 34.2063C45.618 34.2201 45.5804 34.24 45.5468 34.2669C45.5133 34.2934 45.4855 34.3242 45.4628 34.3586C45.4408 34.3933 45.4242 34.4267 45.414 34.4591C45.4035 34.4918 45.393 34.5367 45.3825 34.5943ZM46.7582 35.2924C46.7389 35.3788 46.7016 35.5877 46.646 35.9191C46.4732 35.9525 46.3279 35.9744 46.2099 35.9852C46.0924 35.996 45.9728 36.0013 45.8525 36.0013C45.6746 36.0013 45.5116 35.9895 45.3622 35.9656C45.2131 35.942 45.0846 35.8998 44.9765 35.8395C44.8685 35.779 44.778 35.7036 44.7048 35.6139C44.6316 35.5239 44.576 35.4168 44.5381 35.2931C44.5001 35.1693 44.4812 35.0419 44.4812 34.9109C44.4812 34.7266 44.5191 34.5465 44.595 34.3697C44.6709 34.1935 44.7692 34.0557 44.8895 33.9565C45.0091 33.8573 45.1477 33.7866 45.3042 33.745C45.4608 33.7031 45.621 33.6821 45.7847 33.6821C45.9548 33.6821 46.1171 33.7011 46.2716 33.7394C46.4258 33.7777 46.5569 33.8442 46.664 33.9395C46.7718 34.0347 46.8477 34.1418 46.8934 34.2613C46.9388 34.3812 46.9615 34.5102 46.9615 34.6483C46.9615 34.7305 46.952 34.8219 46.9324 34.9227L45.3645 34.925C45.3628 34.9479 45.3622 34.9689 45.3622 34.9876C45.3622 35.1424 45.4198 35.2564 45.5343 35.3297C45.6495 35.4027 45.7894 35.4394 45.9548 35.4394C46.0534 35.4394 46.1659 35.4283 46.292 35.406C46.418 35.3837 46.5732 35.3458 46.7582 35.2924Z" fill="#4470B6" />
<path fill-rule="evenodd" clip-rule="evenodd" d="M47.1921 35.9061C47.1861 35.839 47.1805 35.7682 47.1745 35.6942C47.1689 35.6199 47.159 35.5178 47.1461 35.388L47.1289 35.223C47.2695 35.281 47.3908 35.3244 47.4924 35.3526C47.5942 35.3807 47.6878 35.3949 47.7735 35.3949C47.8449 35.3949 47.9021 35.388 47.9464 35.3744C47.9907 35.3605 48.0235 35.3407 48.0433 35.3147C48.0638 35.289 48.0741 35.2623 48.0741 35.2345C48.0741 35.2102 48.0665 35.1859 48.0513 35.1623C48.0361 35.1387 48.0013 35.106 47.9478 35.065C47.8287 34.973 47.7239 34.89 47.6332 34.815C47.5426 34.7404 47.4745 34.6737 47.4285 34.6157C47.3829 34.5574 47.3478 34.4949 47.3237 34.4279C47.2999 34.3605 47.288 34.291 47.288 34.2192C47.288 34.0921 47.3227 33.974 47.3918 33.8639C47.4606 33.7539 47.5628 33.674 47.6971 33.6243C47.832 33.5747 47.9964 33.5497 48.1898 33.5497C48.3922 33.5497 48.6502 33.5771 48.9647 33.6323L48.9998 34.274C48.8235 34.2008 48.6542 34.164 48.4911 34.164C48.376 34.164 48.2927 34.1765 48.2411 34.2011C48.1895 34.2261 48.1637 34.264 48.1637 34.3153C48.1637 34.332 48.1664 34.3483 48.1723 34.3636C48.1779 34.3789 48.1888 34.3949 48.2041 34.4115C48.2193 34.4285 48.2381 34.4456 48.2603 34.4633C48.2834 34.481 48.3383 34.5216 48.4253 34.5858C48.5129 34.6501 48.5811 34.7029 48.6307 34.7438C48.7124 34.8112 48.7742 34.8734 48.8172 34.9307C48.8602 34.988 48.8933 35.0494 48.9158 35.1143C48.9379 35.1793 48.9495 35.2477 48.9495 35.3196C48.9495 35.4279 48.9244 35.5276 48.8741 35.6185C48.8241 35.7095 48.7481 35.7852 48.6469 35.8467C48.546 35.9078 48.4365 35.9502 48.3185 35.9738C48.2007 35.9974 48.0794 36.0092 47.954 36.0092C47.8694 36.0092 47.7639 36.0015 47.6366 35.9863C47.5089 35.971 47.3611 35.9443 47.1921 35.9061Z" fill="#4470B6" />
</svg>