<!-- by TradeStack --><svg viewBox="0 0 56 56" xmlns="http://www.w3.org/2000/svg"><path fill="#F0F3FA" d="M0 0h56v56H0z"/><path d="M25 26h-7.14C13.54 26 10 28.91 10 33.2s3.54 7.8 7.86 7.8H33l-2.5-5H17.8c-1.54 0-2.8-1.07-2.8-2.5s1.26-2.5 2.8-2.5H28l-3-5Z" fill="#FF1C25"/><path d="m26 15 2.5 5h8.54c1.53 0 2.96 1.07 2.96 2.5S38.57 25 37.04 25H31l3 6h3.14c4.32 0 7.86-3.91 7.86-8.2 0-4.29-3.54-7.8-7.86-7.8H26Z" fill="#013F92"/><path d="M20.5 15h-2.65A7.85 7.85 0 0 0 10 22.8c0 4.29 3.53 8.2 7.85 8.2H28l-3-6h-7.26C16.21 25 15 23.93 15 22.5s1.21-2.5 2.74-2.5H23l-2.5-5Z" fill="#FF1C25"/><path d="m45 41-5.5-11-5.5 1 5 10h6Z" fill="#013F92"/></svg>