<!-- by TradeStack --><svg width="56" height="56" viewBox="0 0 56 56" xmlns="http://www.w3.org/2000/svg"><path fill="#F0F3FA" d="M0 0h56v56H0z"/><path fill-rule="evenodd" d="M19 11h18v20.25c0 1.13-.67 3.75-3.38 3.75H30v1h1v1.5h-3.45v1H30V47h-4v-8.5h.5v-1H25v-1h1V35h-3.63A3.63 3.63 0 0 1 19 31.25V11Zm7 1h4v1h-4v-1Zm7 3H23v14.86c0 .91.83 1.14 1.25 1.14h7.5c1 0 1.25-.76 1.25-1.14V28h-1v-.5h1v-1h-1V26h1v-1.5h-1V24h1v-1h-1v-.5h1v-1h-1V21h1v-1.5h-1V19h1v-1.43h-1V17h1v-2Z" fill="#2E3F5D"/><path d="M33 22H23v7.88c0 .9.83 1.12 1.25 1.12h7.5c1 0 1.25-.75 1.25-1.13V28h-1v-.5h1v-1h-1V26h1v-1.5h-1V24h1v-1h-1v-.44h1V22Z" fill="#8CD6FD"/><circle cx="26" cy="28" r="1" fill="#D9D9D9"/><circle cx="27.5" cy="26.5" r=".5" fill="#D9D9D9"/><circle cx="27.5" cy="29.5" r=".5" fill="#D9D9D9"/><path fill-rule="evenodd" d="M37 22V11H19v11h4v-7h10v2h-1v.57h1V19h-1v.5h1V21h-1v.5h1v.5h4Zm-7-10h-4v1h4v-1Z" fill="#D9D9D9"/></svg>