<?xml version='1.0' encoding='utf-8'?>
<!-- by TradeStack -->
<svg width="56" height="56" viewBox="0 0 56 56" fill="none" xmlns="http://www.w3.org/2000/svg">
<rect width="56" height="56" fill="#F0F3FA" />
<path d="M19.8137 25.8963C25.692 24.4001 29.5186 31.3285 25.0472 35.4471C22.3812 37.903 17.8348 37.4012 15.8816 34.2585C14.3247 31.747 15.0117 29.1177 16.5311 26.7959C18.2256 24.2058 19.9435 21.6296 21.6848 19.0673C21.6961 19.0505 21.7108 19.0361 21.7278 19.0249C21.7449 19.0138 21.7641 19.0062 21.7842 19.0025C21.8044 18.9988 21.825 18.9992 21.845 19.0036C21.865 19.008 21.8839 19.0163 21.9006 19.028L23.6568 20.2398C23.749 20.303 23.7623 20.3786 23.6966 20.4664L19.7668 25.8269C19.7184 25.8932 19.734 25.9163 19.8137 25.8963ZM24.4587 31.2521C24.4587 30.3487 24.0948 29.4823 23.4471 28.8435C22.7994 28.2047 21.9209 27.8458 21.0049 27.8458C20.0889 27.8458 19.2104 28.2047 18.5627 28.8435C17.9149 29.4823 17.5511 30.3487 17.5511 31.2521C17.5511 32.1556 17.9149 33.022 18.5627 33.6608C19.2104 34.2996 20.0889 34.6585 21.0049 34.6585C21.9209 34.6585 22.7994 34.2996 23.4471 33.6608C24.0948 33.022 24.4587 32.1556 24.4587 31.2521Z" fill="#47ACD6" />
<path d="M33.8137 25.8963C39.692 24.4001 43.5186 31.3285 39.0472 35.4471C36.3812 37.903 31.8348 37.4012 29.8816 34.2585C28.3247 31.747 29.0117 29.1177 30.5311 26.7959C32.2256 24.2058 33.9435 21.6296 35.6848 19.0673C35.6961 19.0505 35.7108 19.0361 35.7278 19.0249C35.7449 19.0138 35.7641 19.0062 35.7842 19.0025C35.8044 18.9988 35.825 18.9992 35.845 19.0036C35.865 19.008 35.8839 19.0163 35.9006 19.028L37.6568 20.2398C37.749 20.303 37.7623 20.3786 37.6966 20.4664L33.7668 25.8269C33.7184 25.8932 33.734 25.9163 33.8137 25.8963ZM38.4587 31.2521C38.4587 30.3487 38.0948 29.4823 37.4471 28.8435C36.7994 28.2047 35.9209 27.8458 35.0049 27.8458C34.0889 27.8458 33.2104 28.2047 32.5627 28.8435C31.9149 29.4823 31.5511 30.3487 31.5511 31.2521C31.5511 32.1556 31.9149 33.022 32.5627 33.6608C33.2104 34.2996 34.0889 34.6585 35.0049 34.6585C35.9209 34.6585 36.7994 34.2996 37.4471 33.6608C38.0948 33.022 38.4587 32.1556 38.4587 31.2521Z" fill="#47ACD6" />
<rect x="8" y="17" width="40" height="1" fill="#707071" />
<rect x="8" y="37.9988" width="40" height="1" fill="#707071" />
</svg>