<?xml version='1.0' encoding='utf-8'?>
<!-- by TradeStack -->
<svg width="56" height="56" viewBox="0 0 56 56" xmlns="http://www.w3.org/2000/svg"><path fill="#F0F3FA" d="M0 0h56v56H0z" /><path fill-rule="evenodd" d="M41.18 37.08A15.93 15.93 0 0 0 44 28c0-3.4-1.06-6.54-2.86-9.13L44 16.1 39.76 12l-2.82 2.73A15.93 15.93 0 0 0 28 12c-3.37 0-6.5 1.04-9.08 2.82L16.1 12 12 16.1l2.82 2.82A15.93 15.93 0 0 0 12 28c0 3.13.9 6.05 2.45 8.52L12 38.9l4.24 4.1 2.22-2.15A15.93 15.93 0 0 0 28 44c3.37 0 6.5-1.04 9.08-2.82L38.9 43l4.1-4.1-1.82-1.82Zm-2.9-2.9a11.95 11.95 0 0 0-.06-12.48l-6.3 6.11 6.37 6.37Zm-4.1 4.1-6.43-6.43L21.38 38a11.94 11.94 0 0 0 12.8.28Zm-10.6-10.6-6.17 5.97a11.95 11.95 0 0 1 .3-11.83l5.87 5.86Zm4.17-4.04 6.24-6.04a11.94 11.94 0 0 0-12.17.11l5.93 5.93Z" fill="#EE1D23" /></svg>