<?xml version='1.0' encoding='utf-8'?>
<!-- by TradeStack -->
<svg width="56" height="56" viewBox="0 0 56 56" xmlns="http://www.w3.org/2000/svg"><path fill="#F0F3FA" d="M0 0h56v56H0z" /><path fill-rule="evenodd" d="M18.73 12c-.96 0-1.73.67-1.73 1.5 0 .6.4 1.12 1 1.36v11.2c-.66.17-1 .75-1 1.44 0 .71.37 1.31 1.08 1.46H18v12.18c-.6.24-1 .76-1 1.36 0 .83.77 1.5 1.73 1.5h18.54c.96 0 1.73-.67 1.73-1.5 0-.6-.4-1.12-1-1.36V28.96c.7-.15 1-.75 1-1.46s-.3-1.31-1-1.46V14.86c.6-.24 1-.76 1-1.36 0-.83-.77-1.5-1.73-1.5H18.73ZM27 15h-8v11h4.15a8 8 0 0 0-.43 1H18.6c-.33 0-.6.22-.6.5s.27.5.6.5h3.85c-.07.33-.11.66-.14 1H19v12h18V29h-3.01a8 8 0 0 0 .43-1h2.98c.33 0 .6-.22.6-.5 0-.23-.19-.43-.45-.48H37V27h-2.3c.07-.33.12-.66.15-1H37V15h-2v4.4c0 .88-.79 1.6-1.76 1.6s-1.74-.72-1.74-1.6v-2.52c0-.26-.25-.47-.54-.47-.3 0-.46.21-.46.47v.57c0 .86-.84 1.55-1.78 1.55-.95 0-1.72-.7-1.72-1.56V15Zm1 0v2.41c0 .3.4.59.73.59.32 0 .77-.3.77-.59v-.82c0-.66.4-1.2 1.13-1.2h.56c.78 0 1.31.57 1.31 1.28v2.84c0 .3.52.53.84.53.32 0 .66-.23.66-.53V15h-6Zm-9-1h18.4c.33 0 .6-.22.6-.5s-.27-.5-.6-.5H18.6c-.33 0-.6.22-.6.5s.27.5.6.5h.4Zm-1 28.5c0-.28.27-.5.6-.5h18.8c.33 0 .6.22.6.5s-.27.5-.6.5H18.6c-.33 0-.6-.22-.6-.5Zm4.78-8.71.82-.79h3.03A7.4 7.4 0 0 0 34 25.56v-2.84c0-.4-.32-.72-.71-.72h-2.92A7.4 7.4 0 0 0 23 29.44v2.52l-1.05 1.02a.44.44 0 0 0 0 .64l.17.17c.18.18.48.18.66 0ZM26.13 32h-1.5l7.12-6.9a.44.44 0 0 0 0-.63l-.17-.17a.48.48 0 0 0-.66 0L24 31v-1.63A6.38 6.38 0 0 1 30.4 23H33v2.15A6.86 6.86 0 0 1 26.13 32Z" fill="#5D0517" /></svg>