<!-- by TradeStack --><svg width="56" height="56" viewBox="0 0 56 56" xmlns="http://www.w3.org/2000/svg"><path fill="#B11F30" d="M0 0h56v56H0z"/><path d="M47 30.62c0 .08-.07.14-.14.14l-12.48.43 4.49 4.26c.05.05.06.13.02.19a.15.15 0 0 1-.18.06l-6.17-2.13 1.96 8.99a.15.15 0 0 1-.09.17.15.15 0 0 1-.18-.05l-5.08-7.15-3.19 10.36a.15.15 0 0 1-.14.11h-.03a.15.15 0 0 1-.12-.16l.25-10.32-5.3 6.92a.15.15 0 0 1-.19.04.15.15 0 0 1-.07-.19l3.12-8.22-4.55 2.37a.15.15 0 0 1-.19-.03.15.15 0 0 1 0-.19l2.85-3.99L9.17 33.8a.15.15 0 0 1-.16-.11.15.15 0 0 1 .08-.18l11.66-4.83-6.05-2.45a.15.15 0 0 1-.1-.16c.01-.07.07-.12.14-.13l6.42-.84-7.23-8.44a.15.15 0 0 1 .2-.23l9.38 5.7-2.16-9.51a.15.15 0 0 1 .28-.1l4.76 8.63 3.18-8.65c.03-.07.1-.11.18-.1.07.02.12.08.12.16l-.3 8.33 6.95-10.82a.15.15 0 0 1 .2-.05c.07.03.1.12.07.19l-4.63 11.66 6.01-4.32a.15.15 0 0 1 .22.2l-4.3 6.5 7.65-.6c.07 0 .13.04.16.11a.15.15 0 0 1-.08.18l-7.05 3.81 12.12 2.71c.07.02.12.09.11.16" fill="#fff"/></svg>