<?xml version='1.0' encoding='utf-8'?>
<!-- by TradeStack -->
<svg width="56" height="56" viewBox="0 0 56 56" xmlns="http://www.w3.org/2000/svg"><path fill="#F0F3FA" d="M0 0h56v56H0z" /><path fill-rule="evenodd" d="M42.26 20.68a16.07 16.07 0 0 0-8.4-7.52 1.44 1.44 0 0 0-.67-.16.76.76 0 0 0-.49.2.81.81 0 0 0-.25.45c-.04.2-.03.43.04.67.4 1.64.71 3.2.9 4.7.15 1.08.28 2.14.38 3.18 0 .04.03.07.07.09a.1.1 0 0 0 .1-.02c.65-.58.92-1.31.83-2.21-.22-2-.53-3.81-.94-5.45a.1.1 0 0 1 .04-.1.1.1 0 0 1 .12-.02c.88.4 1.6.92 2.14 1.55.33.39.55.83.66 1.33.1.45.1.95 0 1.47-.07.48-.23.97-.46 1.46-.21.47-.48.9-.79 1.3a11.19 11.19 0 0 1-3.74 2.99 16.9 16.9 0 0 1-8.68 1.91 12.38 12.38 0 0 1-4.03-.87 5.36 5.36 0 0 1-3-2.67 3.77 3.77 0 0 1-.18-2.55c.2-.78.63-1.55 1.26-2.31 1-1.2 2.33-2.23 4-3.1.25-.13.52-.22.79-.27.07-.02.14 0 .2.04s.1.1.11.18c.09.66.05 1.4-.1 2.23l-.9 4.8a15 15 0 0 0-.23 1.92c-.02.42.03.77.15 1.05.14.36.4.58.75.68.04 0 .07 0 .1-.02a.12.12 0 0 0 .05-.1c.09-1.02.23-2.15.42-3.38a134.82 134.82 0 0 1 .85-4.72c.12-.63.18-1.14.2-1.55a4.17 4.17 0 0 0-.2-1.53c-.2-.52-.6-.78-1.22-.8-.47 0-.98.13-1.51.39-.95.45-1.87 1.04-2.75 1.76a16.15 16.15 0 0 0-4.2 5.19 13.7 13.7 0 0 0-1.14 3.05 15.82 15.82 0 0 0 4.28 15.45 16.91 16.91 0 0 0 5.28 3.48c.28.12.57.17.88.14.25-.02.43-.15.53-.4.1-.2.11-.44.06-.68l-.42-1.94a46.9 46.9 0 0 1-.95-6.2h-.05c-.41.43-.67.92-.77 1.46-.08.4-.07.95.02 1.64.2 1.67.51 3.28.91 4.82a.1.1 0 0 1-.04.11.1.1 0 0 1-.11.02 1.3 1.3 0 0 1-.4-.25 18.2 18.2 0 0 1-1.74-1.79 3.2 3.2 0 0 1-.7-1.44c-.1-.49-.09-1 .03-1.54a6.5 6.5 0 0 1 1.5-2.76c1.26-1.34 2.8-2.4 4.62-3.16 2.23-.93 4.51-1.39 6.83-1.37 1.3.02 2.57.21 3.8.58 1.07.33 1.97.8 2.7 1.43.85.74 1.35 1.6 1.47 2.6.1.75-.03 1.53-.39 2.32-.31.7-.8 1.38-1.45 2.06a13.64 13.64 0 0 1-4.12 2.85.38.38 0 0 1-.35-.01.37.37 0 0 1-.2-.27 3.23 3.23 0 0 1-.04-1.14c.22-1.4.51-3.01.87-4.87.17-.87.3-1.78.36-2.72.07-.98-.2-1.6-.79-1.85-.07-.03-.1-.01-.11.07a22.5 22.5 0 0 1-.25 2.03l-1.15 6.35c-.11.58-.15 1.2-.11 1.87.06 1.08.5 1.64 1.33 1.68.33.01.7-.06 1.14-.2.35-.13.72-.3 1.1-.53a16.06 16.06 0 0 0 6.65-7.45 14.9 14.9 0 0 0 1.2-5.28c.19-3.04-.38-5.82-1.7-8.35ZM13 28.28c.07 4.03 2.06 7.9 5.02 10.62.17.16.23.12.18-.1-.2-.94-.16-1.87.12-2.79.25-.82.69-1.62 1.32-2.4.56-.7 1.25-1.35 2.07-1.96.74-.55 1.53-1.04 2.39-1.46a18.42 18.42 0 0 1 11.69-1.43c.68.16 1.32.39 1.93.68.64.3 1.21.67 1.72 1.1a5.51 5.51 0 0 1 2.02 3.36c.03.17.08.18.15.02.85-1.91 1.42-4.01 1.39-6.1-.06-3.95-2-7.86-4.86-10.53-.1-.09-.13-.07-.12.06a6.48 6.48 0 0 1-.78 3.92 9.56 9.56 0 0 1-2.74 3.06c-.9.68-1.9 1.27-3 1.77a18.26 18.26 0 0 1-10.48 1.39 10.13 10.13 0 0 1-3.72-1.42 6.18 6.18 0 0 1-2.49-2.95c-.11-.3-.19-.6-.22-.92-.03-.26-.23-.32-.31-.08-.71 2.01-1.32 4-1.28 6.16Z" fill="url(#axroxpeqo)" /><defs><linearGradient id="axroxpeqo" x1="28" y1="13" x2="32.2" y2="41.7" gradientUnits="userSpaceOnUse"><stop stop-color="#FBBD4D" /><stop offset="1" stop-color="#4DB5A4" /></linearGradient></defs></svg>