<!-- by TradeStack --><svg xmlns="http://www.w3.org/2000/svg" width="56" height="56" viewBox="0 0 56 56"><path fill="#F0F3FA" d="M0 0h56v56H0z"/><path d="M26.91 26.37c.8-.95 1.84-2 3.09-3.04V12.91l-.5-.91h5l-.5.91v7.63a27.71 27.71 0 0 1 14-3.78c-.1 1.7-.93 5.57-3.42 7.52-1.15.9-1.87 1.25-2.4 1.51-.93.46-1.31.65-2.4 2.85a4.1 4.1 0 0 1-2.57 2.59c-2.08.71-2.48 2.12-2.64 2.77l-.03.11a5.65 5.65 0 0 1-3.08 3.9c-2.59 1.4-4.94 5.55-4.94 9.99h-.83a17.2 17.2 0 0 1 1.7-8.59c.52-.73 1.97-2.58 3.54-4.13 1.1-1.09 1.34-1.84 1.57-2.61.19-.61.38-1.23 1-2.03.99-1.27 1.5-1.44 2.13-1.64.27-.08.55-.17.9-.36.54-.28.8-.91 1.12-1.66.36-.85.78-1.86 1.76-2.7a4.04 4.04 0 0 1 1.8-1.01c.56-.16 1.1-.31 2.13-1.4 1.54-1.63 1.92-2.9 1.92-3.33C28.81 21 24 36.71 23.66 44.26h-.69c.04-1.8-.48-5.87-2.9-7.83a16.7 16.7 0 0 0-2.85-1.72c-2.6-1.35-5.22-2.7-5.22-6.96 0-5.89 5.87-5.89 6.32-5.89.39 0 3.62.65 4.68 3.2V12.92l-.5-.91h5l-.5.91v13.15l-.09.31ZM23 28.87a3.53 3.53 0 0 1-3.33 2.26c-.67 0-3.12-.46-3.12-3.1 0-2.63 2.75-3.5 3.82-1.89h-.75c-.29 0-1.28.14-1.28 1.3 0 1.15 1.26 1.4 1.54 1.4s1.74-.24 1.74-2.13c0-1.9-1.73-2.8-2.73-2.8s-3.7.54-3.7 4.4c0 3.14 2.54 4.19 3.84 4.73.28.12.51.21.64.3a9.6 9.6 0 0 1 3.33 4.2v-8.67Z" fill="#C90729"/></svg>