<?xml version='1.0' encoding='utf-8'?>
<!-- by TradeStack -->
<svg width="56" height="56" viewBox="0 0 56 56" xmlns="http://www.w3.org/2000/svg"><path fill="#F0F3FA" d="M0 0h56v56H0z" /><path d="M15.55 13.3c-2.33 1.26-2.91 1.6-2.35 1.38.14-.05 1.22-.35 2.4-.65l2.4-.61v29.42l-.67-.07-2.33-.23c-.88-.09-1.58-.15-1.56-.13.02.02 1.09.39 2.38.82l2.33.77 2.75-.44 2.97-.48.13-.05v-11.5h.46c.2 0 .6-.03.9-.07l.52-.06-.03.78c-.02.6-.06.78-.18.8-.89.11-.89.11-.89.55v.4l.5-.06.51-.07-.06.37-.12.95c-.06.51-.09.57-.3.58l-.35.03c-.08 0-.14.18-.16.4l-.03.37.36-.06c.31-.06.35-.05.31.11-.03.1-.07.38-.11.63l-.12.64c-.12.43.13 0 .41-.72l.31-.77.68-.1 1.17-.18.48-.07-.43.82-.46.92c-.08.22.8-.82 1.1-1.29l.33-.52c.04-.06 1.77-.42 1.86-.39.04.01-.1.3-.33.66l-.4.62.36-.3a8.48 8.48 0 0 0 2.13-3.14c.12-.33.26-.63.3-.68a4.16 4.16 0 0 1 1.47-.45c0 .13-.58 1.27-.81 1.6-.34.47-.13.41.3-.1.23-.25.6-.83.8-1.26.38-.74.8-2.11.8-2.55 0-.13.15-.25.46-.38.71-.3.73-.3.58.48a9.98 9.98 0 0 1-2.99 5.47 10.92 10.92 0 0 1-4.53 2.72c-.86.29-2.52.55-3.41.55h-.6v1h.81c2.34 0 5.05-.9 7.06-2.33a12.01 12.01 0 0 0 4.95-8.15c.06-.56.09-.61.4-.77l.38-.16a12.99 12.99 0 0 1-3.4 8.36l-1 .75V40.35h-.28c-.16 0-.63-.07-1.41-.15-.77-.08-1.43-.14-1.44-.12-.02.01.75.3 1.7.6l1.73.57 2.97-.46L40 40.3v-13.1l.94-.54a14.53 14.53 0 0 0 3.74-4.55l.32-.62-.74.63c-.42.35-1.06.85-1.44 1.1-.8.53-2.64 1.35-2.82 1.35V15.23a76.1 76.1 0 0 0-2.9-.47l-2.78-.4-2.05 1.05a39.23 39.23 0 0 0-2.04 1.1c0 .01.2-.03.47-.1l1.86-.5c.76-.2 1.34-.38 1.44-.4v3.14l.96.73a13.43 13.43 0 0 1 2.96 5.18c.14.51.23.95.21.97-.03.03-.18.08-.35.1-.28.06-.32.04-.37-.21a12.04 12.04 0 0 0-6.34-7.95 12.6 12.6 0 0 0-5.22-1.38l-1.07-.06v1.69l.72.07c3.05.29 5.66 1.43 7.7 3.37a10.17 10.17 0 0 1 2.96 4.95c-.07.05-1 .27-1.03.24l-.28-.82a10.1 10.1 0 0 0-.57-1.32c-.16-.28-.26-.52-.22-.52.05 0 .03-.04-.03-.08a5.28 5.28 0 0 1-.58-.7 2.79 2.79 0 0 0-.5-.59c-.02.02.1.32.27.66.17.33.29.63.27.65-.02.02-.32.06-.66.1l-.6.05-.27-.54c-.38-.8-1.34-2.2-1.92-2.82l-.51-.55.31.58c.17.32.3.58.28.6-.02.02-.43.06-.9.1l-.84.06-.5-.76c-.3-.43-.65-.93-.82-1.12-.27-.32-.26-.26.2.73.27.6.48 1.1.47 1.1-.02.02-.51.05-1.1.06l-1.09.03-.3-.86c-.46-1.26-.58-1.29-.31-.07.18.8.18 1 .03.96-.08 0-.14.11-.16.3-.03.26.01.32.2.35.2.03.24.12.35.72l.14 1.04c.03.34.02.35-.33.38-.38.03-.38.03-.38.48v.46l.4-.06c.21-.03.41-.02.44.03.06.1.25 2.21.2 2.26-.02.02-.42.01-.88-.03l-.94-.07V12.78l-2.9-.4c-1.6-.21-2.95-.39-3-.38-.06 0-1.2.6-2.55 1.3Zm14.82 8.13c.27.4 1.06 2.28 1 2.35a4.2 4.2 0 0 1-.93.09l-.87.04-.07-.29a12.3 12.3 0 0 0-.5-1.19l-.43-.91.35-.06.76-.15.47-.09c.04 0 .14.1.22.21Zm-2.32.5c.19.51.7 1.99.7 2.03 0 .02-.55.03-1.23.03h-1.2l-.24-.92-.29-1.1c-.04-.13.03-.16.39-.17.24 0 .63-.04.88-.08.8-.15.86-.14.99.2Zm5.75 2.3c.22.53.69 2 .69 2.18 0 .09-.18.16-.47.2l-.69.13c-.19.04-.22-.01-.33-.54-.07-.32-.22-.9-.35-1.27a6.9 6.9 0 0 1-.24-.8c0-.1.61-.3 1.02-.33.12 0 .24.13.37.43Zm-1.96.72c.32 1 .5 1.82.44 1.88a7.4 7.4 0 0 1-1.62.23c-.3 0-.32-.03-.38-.42l-.26-1.25c-.1-.46-.18-.86-.15-.88.03-.04 1.34-.28 1.62-.31.07-.01.23.33.35.75Zm-2.8 0c.17.63.44 2.1.39 2.16-.03.02-.62.08-1.31.11l-1.25.07-.05-.24c-.1-.5-.33-2.12-.3-2.15.01-.02.53-.09 1.14-.16l1.2-.15c.04 0 .12.16.18.36Zm5.69 5.4c-.04.24-.15.7-.24 1.03l-.17.6-.48.11c-.27.06-.6.12-.75.12h-.26l.2-.91.22-.94c.04-.04 1.27-.4 1.42-.41.09-.01.1.1.06.4Zm-2.26.4-.1.57-.16.7-.1.36-.88.12c-1.29.18-1.18.25-1.02-.7l.15-.83.95-.2c1.26-.28 1.2-.28 1.16-.02Zm-2.98 1.12c-.06.4-.14.77-.17.8-.04.04-.63.11-1.32.18l-1.25.12.07-.74c.03-.42.08-.77.11-.8a20.9 20.9 0 0 1 2.37-.28l.3-.02-.11.74Zm2.42 1.11c0 .1-.24.69-.54 1.3l-.54 1.11h-.43c-.24 0-.65.03-.9.06l-.46.07.24-.53c.13-.3.32-.8.41-1.12.21-.65.16-.62 1.21-.86 1-.23 1.01-.23 1.01-.03Zm-2.77.53c0 .2-.6 1.83-.72 1.94-.07.06-.6.15-1.2.18l-1.08.07.07-.23.23-.98.16-.75 1.05-.15c1.32-.19 1.49-.2 1.49-.08Z" fill="#002C56" /></svg>