<!-- by TradeStack --><svg width="56" height="56" viewBox="0 0 56 56" xmlns="http://www.w3.org/2000/svg"><path fill="#F0F3FA" d="M0 0h56v56H0z"/><path d="M27.65 35H6c13.84-16.09 24.73-18 28.98-18 3.38 0 8.34 2.36 7.27 3.76-1.07 1.4-2.53-.45-9.13-.34-6.6.12-13.76 5.22-13.7 8.98.04 3 5.5 5.06 8.23 5.6Z" fill="#B7B15E"/><path d="m29.96 24.26-5.47 5.14c9.57-2.67 13.05-1.11 13.6 0 .2 0 .8-.1 1.57-.5.77-.41.9-.86.85-1.04-.5-3.2-5.53-2.32-6.72-2.85-1.2-.53 1.75-1.67.5-2.6-1-.74-3.3.93-4.33 1.85ZM34.04 30.18c1.03.28.6 1.59.25 2.2 1.38-.89 5.17-2.65 9.27-2.6 4.1.06 6 3.58 6.44 5.22h-4.72c-.3-1.75-2.14-2.33-3.03-2.3-6.35.33-11.94 3.57-12.58 1.75-.64-1.82 3.08-4.63 4.37-4.27Z" fill="#B7B15E"/></svg>