<!-- by TradeStack --><svg width="56" height="56" viewBox="0 0 56 56" xmlns="http://www.w3.org/2000/svg"><path fill="#044899" d="M0 0h56v56H0z"/><path d="M43 36.27V19.74l-.01-.1v-.02l-.06-.12-.07-.1s-.02 0-.02-.02l-.07-.05-.02-.01-14.49-8.25h-.02l-.09-.04-.03-.01a.42.42 0 0 0-.24 0l-.03.01-.09.03-.01.01-14.5 8.24-.01.02a44.7 44.7 0 0 0-.1.07.36.36 0 0 0-.07.1.38.38 0 0 0-.05.1v.04l-.02.1V36.25l.01.1v.02l.06.12a.6.6 0 0 0 .18.19l4.84 2.75 9.65 5.49h.02l.09.04.03.01a.42.42 0 0 0 .24 0h.03l.09-.04.01-.01 14.49-8.24.04-.03c.02-.02.05-.03.06-.06a.6.6 0 0 0 .08-.1.38.38 0 0 0 .06-.12v-.02a.23.23 0 0 0 .02-.1ZM14 20.64l4 2.16v10.4l-4 2.16V20.64ZM28.52 38.1V33.8l9.14-5.2 3.79 2.16-12.93 7.36Zm8.1-15.61-4.12 2.17-4.24-2.61-4.26-2.6v-4.32l12.63 7.36ZM42 29.86 38.7 28l3.3-1.86v3.72Zm-9 .01v-4.32l4.66-2.46 3.8 2.16L33 29.87Zm-9-4.32 4-2.46 3.13 1.78.87.68v4.9l-2.02 1.33L28 32.91l-4-2.46v-4.9Zm2.97-3.05-3.8 2.17L19 22.2V17.9l7.97 4.61ZM19 23.4l4 2.16v10.4l-4 2.16V23.4Zm5 8.24 3.48 2.16v4.9L24 40.87v-9.23Zm18-7.26-3.3-1.86 3.3-1.87v3.73Zm-4.34-2.45-9.14-5.2v-4.33l12.94 7.37-3.8 2.16Zm-10.18-5.8-3.28-1.86 3.28-1.87v3.73ZM23 18.87l-3.62-1.86L23 15.14v3.73Zm-5 2.75-3.45-1.86L18 17.89v3.73Zm0 12.76v3.73l-3.45-1.86L18 34.38Zm5 2.75v3.73L19.38 39 23 37.13Zm4.48 2.75v3.73l-3.28-1.86 3.28-1.87Zm1.04-.6 9.14-5.2 3.79 2.16-12.93 7.37V39.3Zm10.17-5.78L42 31.63v3.74l-3.3-1.87Z" fill="#F0F3FA"/></svg>