<!-- by TradeStack --><svg width="56" height="56" viewBox="0 0 56 56" xmlns="http://www.w3.org/2000/svg"><path fill="#F0F3FA" d="M0 0h56v56H0z"/><path d="M28.2 32c10.57 0 20.27 2.67 23.8 4-4.8-.7-13.81-2.3-23.8-2.3-10 0-20.04 1.6-24.2 1.96 2.9-1 13.61-3.66 24.2-3.66Z" fill="url(#a)"/><path d="M43 26.5c0-2.2 2.02-3.5 4-3.5 1.96 0 4 1.3 4 3.5 0 2.26-1.77 3.5-4 3.5-2.25 0-4-1.12-4-3.5Zm6 .03c0-1.15-.67-2.53-2-2.53-1.34 0-2 1.38-2 2.53 0 1.14.55 2.47 2 2.47 1.44 0 2-1.33 2-2.47ZM22 24.87V23h6l-4 6h4v1h-7l4-6h-1.3c-.7 0-1.44.13-1.69.87H22ZM13.32 23.84 10.65 30h-.46l-2.6-5.98L6.94 30H6l.67-6.29.06-.72c0-.47-.23-.8-.7-.97V22H8.8l2.3 4.76c.55-1.32 1.84-4.76 1.84-4.76h2.27l.79 8h-2l-.68-6.16ZM20 30h-2v-5.03c0-.89-.1-1.63-1-1.95V23h3v7ZM32.31 30c-1.2 0-2.31-.92-2.31-2.06v-2.97c0-.79-.16-1.67-1-1.95V23h3v4.97c0 .57.48 1.03 1.08 1.03H35V24.94c0-.92 0-1.58-1-1.92V23h3v3h3v-3h2v7h-2v-3h-3v3H32.31Z" fill="#08287E"/><defs><linearGradient id="a" x1="4" y1="34" x2="52" y2="34" gradientUnits="userSpaceOnUse"><stop stop-color="#fff"/><stop offset=".34" stop-color="#E5002D"/></linearGradient></defs></svg>