<!-- by TradeStack --><svg width="56" height="56" viewBox="0 0 56 56" xmlns="http://www.w3.org/2000/svg"><path fill="#F0F3FA" d="M0 0h56v56H0z"/><path d="M20 28.27a9.27 9.27 0 0 1-.18-.27 9.27 9.27 0 0 1 1.38-1.62A7.78 7.78 0 0 0 22.48 28a7.2 7.2 0 0 0-1.28 1.62 8.84 8.84 0 0 1-1.2-1.35Zm.74-2.82a9.77 9.77 0 0 0-1.48 1.6A11.42 11.42 0 0 1 18 22v-6.5c.63-.5 1.3-.95 2-1.36V22c0 .94.2 2.2.74 3.45ZM21 13.61V22c0 .77.15 1.8.56 2.82.53-.37 1.13-.7 1.78-.96A5.58 5.58 0 0 1 23 22v-9.2c-.69.22-1.36.5-2 .8Zm3-1.1V22c0 .42.08.96.28 1.52.63-.2 1.3-.33 2.03-.42A2.2 2.2 0 0 1 26 22v-9.88c-.68.09-1.35.22-2 .38Zm3-.48V22c0 .17.06.44.2.65.14.18.36.35.8.35.44 0 .66-.17.8-.35.14-.21.2-.48.2-.65v-9.97a16.24 16.24 0 0 0-2 0Zm3 .1V22c0 .3-.08.71-.3 1.1.72.09 1.4.23 2.02.42.2-.56.28-1.1.28-1.52v-9.5c-.65-.16-1.32-.3-2-.38Zm3 .67V22c0 .51-.1 1.18-.34 1.86.65.27 1.25.6 1.78.96.4-1.03.56-2.05.56-2.82v-8.4c-.64-.3-1.31-.58-2-.8Zm3 1.34V22c0 .94-.2 2.2-.74 3.45a9.77 9.77 0 0 1 1.48 1.6C37.67 25.27 38 23.35 38 22v-6.5c-.63-.5-1.3-.95-2-1.36Zm3 2.24V22c0 1.6-.42 3.91-1.64 6A12.38 12.38 0 0 1 39 34v5.62c3.08-2.92 5-7.04 5-11.62 0-4.58-1.92-8.7-5-11.62ZM38 40.5V34c0-1.36-.33-3.27-1.26-5.05a9.77 9.77 0 0 1-1.48 1.6c.54 1.24.74 2.51.74 3.45v7.86c.7-.4 1.37-.86 2-1.37Zm-3 1.9V34c0-.77-.15-1.8-.56-2.82-.53.37-1.13.7-1.78.96.25.68.34 1.35.34 1.86v9.2c.69-.22 1.36-.5 2-.8Zm-3 1.1V34c0-.42-.08-.96-.28-1.52-.63.2-1.3.33-2.03.42.23.38.31.8.31 1.1v9.88c.68-.09 1.35-.22 2-.38Zm-3 .48V34c0-.17-.06-.44-.2-.65-.14-.18-.36-.35-.8-.35-.44 0-.66.17-.8.35-.14.21-.2.48-.2.65v9.97a16.24 16.24 0 0 0 2 0Zm-3-.1V34c0-.3.08-.72.3-1.1-.72-.09-1.4-.23-2.02-.42-.2.56-.28 1.1-.28 1.52v9.5c.65.16 1.32.3 2 .38Zm-3-.67V34c0-.51.1-1.18.34-1.86a9.61 9.61 0 0 1-1.78-.96A7.99 7.99 0 0 0 21 34v8.4c.64.3 1.31.58 2 .8Zm-3-1.34V34c0-.94.2-2.2.74-3.45a9.77 9.77 0 0 1-1.48-1.6A11.42 11.42 0 0 0 18 34v6.5c.63.5 1.3.95 2 1.36Zm-3-2.24c-3.08-2.92-5-7.04-5-11.62 0-4.58 1.92-8.7 5-11.62V22c0 1.6.42 3.91 1.64 6A12.38 12.38 0 0 0 17 34v5.62Zm6.77-8.38a8.6 8.6 0 0 1-1.78-.98 6.79 6.79 0 0 1 1.28-1.62c.6.42 1.3.77 2.1 1a4.39 4.39 0 0 0-1.6 1.6ZM28 29c-1.64 0-2.91-.4-3.89-1 .98-.6 2.25-1 3.89-1 1.64 0 2.91.4 3.89 1-.98.6-2.25 1-3.89 1Zm4.73-1.64c-.6-.42-1.3-.77-2.1-1a4.39 4.39 0 0 0 1.6-1.6c.66.27 1.26.6 1.78.98a6.79 6.79 0 0 1-1.28 1.62Zm-1.54-2.84.07-.1c-.95-.27-2.03-.42-3.26-.42s-2.3.15-3.26.43l.07.09c.58.8 1.55 1.48 3.19 1.48s2.61-.67 3.2-1.48Zm-7.2.58a4.86 4.86 0 0 1-.22-.34 8.6 8.6 0 0 0-1.78.98 6.79 6.79 0 0 0 1.28 1.62c.6-.42 1.3-.77 2.1-1A4.39 4.39 0 0 1 24 25.1Zm10.42 1.88.39-.6A8.84 8.84 0 0 1 36.18 28a9.27 9.27 0 0 1-1.38 1.62A7.78 7.78 0 0 0 33.52 28c.33-.32.63-.66.89-1.02Zm-.82 2.62c.16.22.3.44.42.66a8.6 8.6 0 0 1-1.78.98 4.39 4.39 0 0 0-1.6-1.6c.8-.23 1.5-.58 2.1-1 .33.3.62.62.86.96Zm-2.4 1.88.07.1c-.95.27-2.03.42-3.26.42s-2.3-.15-3.26-.43l.07-.09c.58-.8 1.55-1.48 3.19-1.48s2.61.67 3.2 1.48Z" fill="#199AD4"/></svg>