<!-- by TradeStack --><svg width="56" height="56" viewBox="0 0 56 56" xmlns="http://www.w3.org/2000/svg"><path fill="#D50020" d="M0 0h56v56H0z"/><path d="M11 21v14H9V21h2ZM13 35V21h5.08c2.26 0 4.38 1.2 4.38 3.68 0 1.49-.9 2.58-2.34 2.95v.14c1.79.09 2.88 1.81 2.88 3.46 0 2.65-2.32 3.77-4.68 3.77H13Zm2-2h3.12c1.32 0 2.88-.31 2.88-1.87 0-1.5-1.4-2.13-2.81-2.13H15v4Zm0-6h2.9c1.29 0 2.5-.78 2.5-2.16 0-1.4-1.19-1.84-2.45-1.84H15v4ZM24 23v-2h10v2h-4v12h-2V23h-4ZM38.53 21 42 26.42 45.47 21h2.5l-4.45 7L48 35h-2.51L42 29.54 38.51 35H36l4.56-7-4.53-7h2.5Z" fill="#fff"/></svg>