<!-- by TradeStack --><svg width="56" height="56" viewBox="0 0 56 56" xmlns="http://www.w3.org/2000/svg"><path fill="#F0F3FA" d="M0 0h56v56H0z"/><path d="M28 21.06a9.22 9.22 0 0 1-6.15-2.33A8.45 8.45 0 0 1 19.03 13H17c.15 2.7 1.37 5.24 3.41 7.1A11.3 11.3 0 0 0 28 23a11.3 11.3 0 0 0 7.59-2.9A10.35 10.35 0 0 0 39 13h-2.03a8.46 8.46 0 0 1-2.82 5.73A9.23 9.23 0 0 1 28 21.06Z" fill="#B60005"/><path d="M28 17.12a5.23 5.23 0 0 1-3.33-1.18A4.54 4.54 0 0 1 23.03 13H21a6.35 6.35 0 0 0 2.24 4.27c1.3 1.11 3 1.73 4.76 1.73 1.77 0 3.47-.62 4.76-1.73A6.36 6.36 0 0 0 35 13h-2.04a4.54 4.54 0 0 1-1.64 2.94A5.23 5.23 0 0 1 28 17.12Z" fill="#B60005"/><path d="M28 15c.72 0 1.4-.2 1.95-.57.55-.36.92-.87 1.05-1.43h-6c.13.56.5 1.07 1.05 1.43.55.37 1.24.57 1.96.57ZM28 29a16.88 16.88 0 0 1-15-9v23h30V20c-2.87 5.56-8.73 9-15 9Z" fill="#B60005"/><path d="M40.97 13a12.4 12.4 0 0 1-4 8.55A13.21 13.21 0 0 1 28 25.04a13.2 13.2 0 0 1-8.98-3.5A12.4 12.4 0 0 1 15.03 13H13c.15 3.76 1.8 7.32 4.59 9.93a15.29 15.29 0 0 0 20.82 0C41.2 20.3 42.85 16.75 43 13h-2.03Z" fill="#B60005"/><path d="M20 37h-6v1h6v-1ZM22.15 39.5v-.73h1.19v.72h-1.2Zm-1.06-3.78v.57h.49v3.2h-.56v.57h3.43v-.57h-.55v-3.2h.52v-.57h-.52V35h-.56v.72h-1.2V35h-.56v.72h-.49m1.06 2.5v-.71h1.19v.72h-1.2Zm0-1.26v-.67h1.19v.67h-1.2Zm-.14 3.2c-.26.47-.6.9-1.01 1.24l.4.5c.44-.38.8-.86 1.06-1.41l-.46-.34m1.4.03-.45.34c.25.29.46.61.62.96l.5-.34c-.18-.34-.4-.66-.65-.95m1.54-4.94h-.3v3.64c.01.48-.03.96-.14 1.43a5.2 5.2 0 0 1-.56 1.26l.49.42c.24-.41.44-.86.58-1.32.1-.42.17-.84.2-1.27h1.2v1.44c0 .29-.07.38-.2.38-.23 0-.47-.01-.7-.06l.11.66c.24.04.47.06.71.07.43 0 .65-.27.65-.81v-5.84h-2.03m.3 3.59v-1.3h1.17v1.28h-1.18m0-1.85v-1.1h1.18V37l-1.18-.02ZM34 37h-6v1h6v-1ZM39.01 34.2c-.06.1-.11.18-.18.26A11.67 11.67 0 0 0 42 36.7l-.38.7A9.18 9.18 0 0 1 40 36.35a14.4 14.4 0 0 1-1.55-1.4 11.65 11.65 0 0 1-3.16 2.53l-.29-.64A10.2 10.2 0 0 0 38.38 34l.66.2m1.23 2.53v.67h-3.63v-.67h3.61m1.35 1.65v.68h-3.5a13.62 13.62 0 0 1-.87 1.77 93.4 93.4 0 0 0 2.95-.18c-.2-.26-.42-.5-.63-.75l.51-.42c.58.6 1.13 1.26 1.62 1.95l-.51.57a16.5 16.5 0 0 0-.52-.76c-1.55.14-3.25.26-5.12.36l-.12-.71c.35 0 .69-.03 1.01-.04a10.79 10.79 0 0 0 .92-1.8h-2.05v-.67h6.31Z" fill="#fff"/></svg>