<?xml version='1.0' encoding='utf-8'?>
<!-- by TradeStack -->
<svg width="56" height="56" viewBox="0 0 56 56" xmlns="http://www.w3.org/2000/svg"><path fill="#F0F3FA" d="M0 0h56v56H0z" /><path d="M19.59 20.2c2.48-3.1 12.53-7.8 15.71-3.42.2.28.15.47-.18.58a27.26 27.26 0 0 0-9.01 4.79.61.61 0 0 1-.69.05 9.66 9.66 0 0 0-5.52-1.38c-.55.03-.66-.18-.31-.61Z" fill="#9599A3" /><path d="M39.4 18.71c3.64-.21 11.41 1.95 7.55 7.44a14.55 14.55 0 0 1-9.46 6.02c-.25.06-.4-.04-.45-.3a7.1 7.1 0 0 0-4.36-5.43.34.34 0 0 1-.05-.6c2.65-1.74 4.72-4 6.22-6.78a.68.68 0 0 1 .54-.35ZM17.6 28.42a25.93 25.93 0 0 0-5.75 6 .72.72 0 0 1-.76.27c-7.47-2.04.56-9.37 3.67-10.67a.4.4 0 0 1 .34 0 .42.42 0 0 1 .21.28 6.56 6.56 0 0 0 2.28 3.62.32.32 0 0 1 0 .5Z" fill="#21B1E5" /><path d="M22.74 28.26a1.47 1.47 0 0 1-.32-.3c-.19-.22-.16-.43.08-.6l2.43-1.78c.25-.18.5-.19.76-.02l1.38.92a.34.34 0 0 1 .15.3.36.36 0 0 1-.16.3c-.86.56-1.68 1.11-2.45 1.67-.44.32-.87.3-1.29-.06-.11-.1-.3-.25-.58-.43Z" /><path d="m28.22 23.88.25.09c.16.05.3.13.43.25 1.64 1.51 5.35-2.84 6.28-4.06a.35.35 0 0 0-.39-.55 22.8 22.8 0 0 0-6.69 3.63c-.35.29-.31.5.12.64Zm-5.17.17a.25.25 0 0 0-.09-.08 7.2 7.2 0 0 0-4.5-.96.5.5 0 0 0-.44.58c.2 1.13.8 2 1.8 2.62a.6.6 0 0 0 .72-.03l2.44-1.8a.25.25 0 0 0 .07-.33Zm6.87 4.1.1.07c1.72 1.04 3.13 1.9 3.47 4.1.04.28-.08.43-.36.45a9.85 9.85 0 0 1-6.62-1.9c-.28-.2-.28-.4 0-.61l2.75-2.07a.55.55 0 0 1 .66-.04Zm-8.66 2.94c0-.04 0-.08-.03-.11l-1.16-1.64a.16.16 0 0 0-.22-.04l-.18.14a35.5 35.5 0 0 0-3.8 3.1c-.95.91-1.4 1.55-1.25 1.78l.15.2c.08.12.3.12.66.02.36-.1.84-.3 1.42-.6s1.24-.68 1.96-1.13c.71-.45 1.46-.95 2.2-1.49l.2-.13a.16.16 0 0 0 .05-.1Z" fill="#0B3667" /><path d="M13.93 37.58a.53.53 0 0 1 .4-.63 20.54 20.54 0 0 0 8.48-4.15 1.06 1.06 0 0 1 1.34 0 11.93 11.93 0 0 0 8 2.64.47.47 0 0 1 .38.77c-3.58 4.42-8.15 6.31-13.7 5.67-2.75-.32-4.38-1.76-4.9-4.3Z" fill="#9599A3" /></svg>