<?xml version='1.0' encoding='utf-8'?>
<!-- by TradeStack -->
<svg width="56" height="56" viewBox="0 0 56 56" xmlns="http://www.w3.org/2000/svg"><path fill="#F0F3FA" d="M0 0h56v56H0z" /><path d="M10 20h4v16h-4V20Zm13 0c-3.86 0-7 3.23-7 7.22v1.56A7.12 7.12 0 0 0 23 36h4.11c2.9 0 5.32-2.16 5.82-5h-4.35a3.94 3.94 0 0 1-3.49 2C22.3 33 20 30.88 20 28.26v-.52c0-2.62 2.28-4.74 5.1-4.74 1.52 0 2.84.81 3.48 2h4.35c-.5-2.84-2.91-5-5.82-5h-4.1Zm12 0v16h12v-3h-8v-4h7v-3h-7v-3h8v-3H35Z" fill="#253B91" /></svg>