<!-- by TradeStack --><svg width="56" height="56" viewBox="0 0 56 56" xmlns="http://www.w3.org/2000/svg"><path fill="#F0F3FA" d="M0 0h56v56H0z"/><path d="M5.93 24H4v8h1.93v-8ZM7 32v-8h2l4 5.57V24h2v8h-2l-4-5.57V32H7Z" fill="#1A99C4"/><path fill-rule="evenodd" d="M35 24h-2v8h2v-8Zm17 1.5h-2.5V32h-2v-6.5H45V24h7v1.5ZM38 32h-2v-8h2l4 5.57V24h2v8h-2l-4-5.57V32Zm-22 0v-8h4.8c1.22 0 2.2 1.12 2.2 2.5 0 1.37-.98 2.5-2.2 2.5H18v3h-2Zm4.18-6.5H18v2h2.18c.45 0 .82-.45.82-1s-.37-1-.82-1ZM32.5 28c0 2.93-2.01 4-4.5 4s-4.5-1.29-4.5-4 2.01-4 4.5-4 4.5 1.07 4.5 4Zm-2 0c0 1.83-1.12 2.5-2.5 2.5s-2.5-.8-2.5-2.5 1.12-2.5 2.5-2.5 2.5.67 2.5 2.5Z" fill="#58585A"/></svg>