<!-- by TradeStack --><svg width="56" height="56" viewBox="0 0 56 56" xmlns="http://www.w3.org/2000/svg"><path fill="#113445" d="M0 0h56v56H0z"/><path d="m37.97 38-.62-.05c-1.22-.12-2.4-.44-3.5-.95-.33-.14-.64-.31-.96-.47l.01-.04h.39c.17-.02.31.02.46.1 1.03.48 2.12.78 3.27.87a9.62 9.62 0 0 0 7.36-2.39 8.63 8.63 0 0 0 .84-12.23 9.4 9.4 0 0 0-5.13-3.02 9.66 9.66 0 0 0-3.14-.2c-2.1.21-3.93 1-5.48 2.36a8.74 8.74 0 0 0-2.56 3.82l-.2.62c0 .03-.04.06-.06.06-.2 0-.4 0-.6.02-.06 0-.05-.04-.04-.07.09-.4.16-.82.29-1.21a9.64 9.64 0 0 1 2.48-4.1A10.6 10.6 0 0 1 37.92 18l.05-.01h.97a10.7 10.7 0 0 1 7.43 3.4 9.59 9.59 0 0 1-.27 13.48 10.76 10.76 0 0 1-6.58 3.07l-.62.05h-.93ZM7 31.53l.06-.32c0-.05.03-.09.09-.12.22-.1.47-.12.7-.12.53 0 1.06.02 1.58.04.03 0 .07.03.08.06.14.25.2.52.21.8v.73c0 .45.24.73.67.82.06.02.12.01.16-.04.1-.1.23-.2.3-.32.08-.11.12-.26.15-.4.13-.61.16-1.24.12-1.87v-.02c-.01-.1-.03-.22.12-.23v-.03c-.13-.01-.15-.1-.17-.21a4.15 4.15 0 0 0-.16-.64c-.05-.14-.17-.26-.06-.44l-.06.02c-.13.11-.24.06-.35-.05-.12-.12-.27-.07-.4-.08-.02 0-.04.04-.05.07-.1.2-.22.41-.3.63-.11.24-.28.38-.56.38H8.02c-.02 0-.04-.04-.06-.04a.17.17 0 0 0-.1-.01c-.02 0-.04.04-.06.04l-.47-.05c-.06 0-.1-.03-.11-.09l-.1-.5c-.02-.06 0-.08.07-.08h.25c.07.01.1-.03.1-.08 0-.07-.04-.14-.06-.2h-.05c-.22.08-.24.08-.24-.16-.01-.94.02-.82 0-1.55l.02-.03c.09.02.07-.04.04-.07-.1-.2-.07-.41-.06-.61 0-.48 0-.97.1-1.44.05-.2.05-.4.06-.6l.06-1.43c0-.06.03-.1.07-.14.13-.12.27-.15.45-.15h5.13c.07 0 .11.02.14.08.04.09.1.17.13.26.02.07.02.13-.09.13.12.05.22 1.05.2 1.24-.02.3-.06.58-.09.88 0 .05-.03.08-.08.1-.23.1-.48.15-.74.16H10.9l-1.13-.02c-.06 0-.09.01-.09.08 0 .23-.02.45-.03.68 0 .06.03.13-.06.16v.04c.08.01.04.1.08.14 0 0 .03 0 .04-.02.25-.18.55-.21.86-.24l-.04.05.01.06.06-.01c.05-.14.16-.12.27-.11.58.01 1.38.7 1.5.82l.1-.17c.05-.08.09-.08.16-.01.2.18.37.4.51.62.23.37.42.77.53 1.2.03.1.03.21.01.32 0 .04-.07.08-.12.11-.06.03-.08.06-.06.12l.12.38c.02.09-.05.1-.1.12-.03.03-.1.13-.08.17.07.18.05.36.04.54-.05.82.2.89.26 1.62.02.13-.06.19-.19.18a.8.8 0 0 0-.2.01c-.13.02-.13.03-.24-.03l.04-.18c0-.06-.02-.1-.07-.14-.09-.06-.08-.11 0-.17a.1.1 0 0 0 .05-.07l-.02-.45c-.02-.69.13-2.08-.02-2.07-.03 0-.05.03-.08.07-.3-.86-.38-1.31-1.22-1.87-.03-.02-.04-.05-.06-.08a.1.1 0 0 0-.04-.03c-.05 0-.1 0-.14-.02a1.99 1.99 0 0 0-1.16-.1c-.05.01-.06 0-.06-.04v-.24c0-.05 0-.06-.05-.04l-.38.17c-.04.02-.04.04-.02.07l.08.23c0 .01 0 .05-.02.06l-.6.4H9.3c-.14.06-.24.06-.35-.07a.53.53 0 0 1-.16-.4L8.8 26c0-.28.05-.57.14-.84a.19.19 0 0 1 .14-.14c.26-.08.54-.11.81-.1.86 0 1.7 0 2.56.02.1 0 .15-.02.15-.13l.01-.7c0-.07.02-.18-.02-.21-.04-.04-.14-.02-.22-.02h-4.1c-.08 0-.1.02-.1.1l-.08 1.84-.11 2.46c0 .05 0 .07-.06.08-.06 0-.12.03-.2.05l.06-.07h-.02c-.06 0-.13 0-.16.07-.05.12-.06.21.03.3.04.04.07.1.08.15.01.06.07.12.12.15.07.04.1.08.07.16l-.11.26c.05.02.1 0 .1-.06s.03-.06.08-.06l.82.07c.07.01.1-.01.14-.08.27-.5.7-.8 1.22-.98.39-.13.74.01 1.04.26.1.09.2.2.27.31a3.36 3.36 0 0 1 .36.83c.13.5.15 1.02.14 1.54a5.7 5.7 0 0 1-.34 1.97c-.04.1-.06.2-.2.22-.04 0-.09.2-.07.25.01.02.02.05.01.06-.17.28-.38.53-.73.59-.51.08-.93-.11-1.26-.52-.25-.32-.37-.7-.42-1.1-.04-.25-.05-.5-.06-.75 0-.06-.02-.09-.09-.09h-.9c-.05 0-.09 0-.09.06 0 .57.03 1.13.23 1.67.2.53.58.9 1.08 1.15.46.23.94.38 1.45.37.43-.01.83-.11 1.19-.36 1.17-.8.7-.73 1.01-1.4.03-.05.08-.07.13-.05.03.01.06.02.07.01l.15-.18-.03-.06-.07-.03a1.34 1.34 0 0 1-.1-.1l.11-.03c.04-.01.09-.01.1-.03.08-.08.17-.1.27-.1.07 0 .14.03.21-.02.02 0 .03.02.04.04l.01.1.04.1c.04-.02.09-.05.12-.09.02-.02 0-.07 0-.1 0-.06 0-.12.08-.12.06 0 .1.04.1.1 0 .13 0 .26-.13.35a12 12 0 0 1-1.04 2.03c-.01.02-.04.02-.06.01l-.34-.03c-.05 0-.06-.01-.07.04 0 .05-.03.07-.08.1-.11.04-.2.1-.3.17-.08.06-.07.08.02.12 0 0 .02 0 .03.02-.2.12-.43.2-.67.26-.71.15-1.43.16-2.15-.03a2.44 2.44 0 0 1-1.56-1.27c-.2-.36-.37-.74-.48-1.14-.04-.14-.04-.29-.06-.44l-.1-.88-.01-.02v-.58ZM15.64 34l-.24-.07-.12-.04c-.09-.04-.13-.83-.14-.99-.02-.19-.03-.38.03-.56-.14-.99-.23-2.32-.12-3.33.01-.15-.03-.28-.04-.42a.58.58 0 0 1 .2-.47c.03-.03.08-.04.12-.03.08 0 .16 0 .23-.02.14-.03.28-.04.42-.05.02 0 .04.03.05.05l.06.2c.02.1.07.1.16.07.3-.14.8-.39 1.12-.33l.36.05h.25c.98.24 1.68.55 1.95 1.62l.06.16c.04.13-.04.42-.05.55 0 .1-.06.2 0 .33.34.63-1.14 1.59-1.48 1.73l-.09.03a.54.54 0 0 1-.45.05c-.06-.02-.1-.02-.16.01a.45.45 0 0 1-.4.05c-.22-.06-.45-.1-.67-.14-.07-.02-.14-.05-.2-.09l-.28-.14c-.05-.02-.09.02-.07.06.04.16-.01.32-.06.46-.06.18.03.85.04 1.05 0 .05 0 .07-.04.08l-.44.13Zm-.04-3.58c.08-.05.15-.09.2-.14.1-.08.22-.04.26.08l.14.41c.04.09.08.17.08.27.01.2.14.32.3.4l.78.32c.05.02.1.02.16.01l.43-.08c.07-.01.13 0 .2-.03.52-.17.87-.74.89-1.28 0-.32-.1-.63-.31-.88-.36-.43-.55-.4-.98-.58-.03-.02-.08 0-.12 0h-.16c-.5-.1-1.11.42-1.28.88a.42.42 0 0 1-.21.22l-.14.07c-.12.07-.24.14-.24.33Z" fill="#fff"/><path d="M32.98 32.76c0 .1-.05.13-.16.14l-.71.08h-.01c-.15.02-.3.07-.36-.13-.38-.46-.82-.88-1.24-1.31a.4.4 0 0 1-.04-.06c-.24-.34-.55-.63-.84-.94l-.3-.37-.18-.2-.02.02v.04c.04.65-.04 1.34.03 1.96l.08.65c0 .04.02.1 0 .13-.06.06-.13.14-.24.11-.18-.05-.35 0-.53.01-.06.01-.1 0-.1-.05 0-.06-.03-.05-.08-.03-.13.05-.13.05-.15-.08-.01-.1-.03-.21-.01-.31.04-.27 0-.54-.02-.8-.09-1.04.03-2.34-.1-3.1-.02-.17.05-.27.17-.37a.19.19 0 0 1-.04-.03l-.05-.06.07-.03c.28-.07.55 0 .83.03.61.06.19.54.58.66.11.04.19.09.22.2.02.06 0 .1-.07.1-.03 0-.05.02-.1.04.12.05.22.1.33.13.17.05.31.14.4.29l.13.22c.06.07.06.14.01.21l-.12.23.22-.13c.03-.02.05-.02.09 0 .15.07.2.2.25.33.02.07.07.12.14.16a4 4 0 0 1 .69.58l.2.16-.06-.39c-.03-.14.05-.23.15-.32.04-.04.03-.06 0-.1-.36-.39-.2-1.46-.22-1.99l.01-.08.19-.29a.1.1 0 0 1 .07-.03l.38.01.12.03.1.02.13-.02c.05 0 .13-.02.14 0l.04.19c0 .02-.02.05-.01.07v4.42ZM25.33 28.43l-.07-.19.02-.08c.02 0 .05 0 .07.02l.09.05.48.31h.03c.01-.09.04-.18.03-.26-.02-.28-.03-.28.26-.26l.35-.01.15-.01c.16 0 .17.01.13.16.1 1.06.16 3.58.12 4.58 0 .01-.01.05-.03.06-.07.05-.14.1-.22.13h-.05c-.11-.07-.24-.05-.37-.06-.13-.01-.23-.06-.29-.19a.26.26 0 0 0-.07-.09c-.06-.04-.12-.06-.18 0-.12.12-.28.18-.44.23-.07.02-.15 0-.23 0-.04 0-.09 0-.12.02-.14.1-.32.12-.49.16h-.05a5.96 5.96 0 0 1-.94-.3c-.11-.05-.23-.08-.35-.12a.17.17 0 0 1-.05-.04c-.03-.03-.06-.07-.1-.09-.2-.07-.3-.23-.41-.4-.13-.2-.33-.36-.4-.6-.07-.18-.1-.39-.15-.58-.03-.1-.04-.2-.05-.3l.02-.26c0-.3.08-.59.2-.85l.35-.8c.02-.06.1-.1.14-.14l.06.03c.02.05.05.04.07.02.23-.21.54-.26.82-.39.24-.1.5-.1.74-.12.1-.01.2.03.3.05.08 0 .16.02.24.01.15-.01.2.02.21.16.01.1.1.1.18.15Zm-1.08.8-.08-.15c0-.01-.03-.03-.05-.02-.57.18-.91.53-1.09 1.1l-.1.32a.22.22 0 0 0 0 .12c.21.54.31 1.29 1.09 1.3.16 0 .16 0 .14-.14 0-.1.03-.13.12-.08.03 0 .04.04.06.06.05.06.1.15.17.17.5.13 1.28-.49 1.47-.93.05-.12.1-.24.09-.37a1.9 1.9 0 0 0-.92-1.43.39.39 0 0 0-.13-.06l-.58-.13c-.04-.01-.05 0-.07.04l-.12.2ZM36.27 28.9l-.64.44c-.22.15-.35.37-.49.58v.06c.03.1.17.18.3.16a5.8 5.8 0 0 1 2.11.06h.17c.15-.02.29-.01.43.02.04.01.07.03.06.07l-.08.66c0 .04-.03.07-.08.08-.3.06-.6.11-.9.06-.15-.03-.3-.01-.45 0-.37.02-.74.05-1.11.01h-.35c-.05.19 0 .35.18.47.1.06.17.14.26.2.27.2.57.31.92.34.43.04 1.2-.1 1.5-.46.03-.05.08-.07.13-.05.1.04.19.07.26.12.15.1.24.25.33.4l-.38-.02.2.25c.02.02.02.05 0 .07a2.04 2.04 0 0 1-1.08.46.72.72 0 0 0-.36.1.24.24 0 0 1-.13.02l-.35-.04-.2.02c-.53-.03-1.85-.5-2.16-1a2.3 2.3 0 0 1-.31-.8c-.05-.29-.07-.58-.02-.88.23-1.34 1.37-2.1 2.73-2.3.1-.01.22.03.32.03.44.02.83.17 1.2.36.12.07.22.17.32.25l.36.29c.04.02.06.04.01.08-.24.19-.48.38-.76.52-.05.03-.08.02-.11-.02-.29-.4-1.26-.57-1.75-.52-.1.01-.1.01-.08-.09ZM41.13 32.64c0 .08-.1.21-.19.23l-.43.12c-.03 0-.06.02-.1 0l-.41-.16c-.12-.06-.15-.15-.1-.27a5.41 5.41 0 0 0 .02-1.8c.05-.7.02-1.41 0-2.12l-.02-.14c-.01-.15-.01-.15-.17-.13l-.34.04c-.15.01-.34-.13-.37-.28-.04-.28-.04-.56.14-.8.05-.07.1-.1.17-.1l.46-.01c.03 0 .08-.07.08-.12v-.29c-.05-.34.14-.68.44-.79.36-.11.68.23.7.59 0 .18.03.36.04.54 0 .06.02.1.09.1h.48c.06 0 .34.27.34.35 0 .18.02.37.04.55 0 .1-.03.15-.13.17l-.43.06c-.08 0-.16 0-.23-.02-.06-.02-.08 0-.1.06-.06.15-.08.32-.06.49.16 1.2.08 2.51.08 3.73ZM20.86 27.15c-.05-.1-.1-.17-.2-.14-.04.02-.1.01-.11-.01-.06-.16-.02-.39-.05-.58 0-.1.06-.27.13-.3l.32-.11c.04-.02.09 0 .13 0l.3.11c.04.02.05.05.04.11-.07.99.03 1.85 0 2.85 0 .06-.02.12-.09.11h-.14l.24.32v.08a1 1 0 0 0-.01.53c.01.07 0 .12-.06.14-.04.03-.05.06-.02.12.1.28.15.57.12.88v.07c.02.07 0 .12-.05.16-.01 0-.02.05-.01.07.08.19.07.4.06.6l.03.46c0 .02.02.04.01.06a9.13 9.13 0 0 1-.15.32l-.36-.06-.3-.06c-.03-.01-.07-.08-.07-.11.16-1.64-.01-3.56-.08-5.23-.01-.2.12-.3.19-.44h.04l.1.05ZM17.18 23.71c-.13-.03-.16-.08-.17-.2l-.01-.23c0-.17.13-.3.3-.28.11.02.22.02.34.03.06.01.05.05.04.1l-.1.22c-.01.03-.01.06.03.07.05.02.05.05.03.08a.73.73 0 0 0-.04.43l.02.13c0 .05.01.06.05.04l.35-.14a1.34 1.34 0 0 1 1.56.41c.11.16.24.31.3.5.03.06.04.1 0 .15-.04.03-.03.06 0 .09.06.03.08.08.08.14v.4c.01.09 0 .17.02.24.04.22.02.45-.01.66-.02.13-.06.18-.15.26h.02l.09.03c-.02.04-.03.1-.06.12-.02.02-.07.02-.1.03a3 3 0 0 1-.19.01c-.13 0-.18-.08-.17-.2.02-.13 0-.26 0-.4l.01-.73c.01-.2-.02-.37-.06-.55v-.02c.1-.37-.48-.58-.72-.68a.1.1 0 0 0-.07 0c-.06.01-.13.06-.2 0l-.05.01c-.68.48-.56.78-.67 1.59-.01.04.01.1.03.13.01.04.03.07.06.1.05.08.04.14-.01.21-.01.01-.02.05 0 .06.1.13.04.38-.07.45-.04.03-.09.02-.13 0-.11 0-.21-.04-.32 0l-.1.01v-.24c-.09-.19-.03-.4-.04-.59l-.01-.44-.01-.93v-.41l-.02-.29a.42.42 0 0 1 .15-.37ZM14.58 23.49c-.06-.14.05-.26.1-.39l.11-.05c.16-.08.3-.06.43.06.05.05.1.1.1.16l.04.37c0 .06.03.09.1.09l.27-.01c.06 0 .08 0 .1.05 0 .02.03.05.06.06.07 0 .08.04.08.1l.03.3c0 .06-.01.1-.1.1l-.42.03c-.03 0-.07.02-.07.03-.02.08-.04.17-.04.25-.03.67-.03 1.42.05 2.08.01.13-.06.21-.2.22l-.09.02c-.17.08-.31.02-.46-.05-.07-.03-.1-.08-.07-.16.1-.24.05-.68.05-.93l-.04-1.28c0-.19 0-.19-.22-.17-.06 0-.13.02-.18 0-.1-.02-.19-.06-.2-.17-.02-.15-.02-.3.09-.42a.23.23 0 0 1 .12-.07c.09-.02.18-.02.27-.01.08 0 .09-.02.1-.08l-.01-.13Z" fill="#fff"/></svg>