<?xml version='1.0' encoding='utf-8'?>
<!-- by TradeStack -->
<svg width="56" height="56" viewBox="0 0 56 56" xmlns="http://www.w3.org/2000/svg"><path fill="url(#aaugwkwnc)" d="M0 0h56v56H0z" /><path fill-rule="evenodd" d="m12.12 24.5 11.11 17.74a3.51 3.51 0 0 0 4.84 1.1l15.19-9.5a3.45 3.45 0 0 0 1.09-4.79L33.23 11.62a3.51 3.51 0 0 0-4.78-1.11l-15.18 9.2a3.45 3.45 0 0 0-1.15 4.79Zm2.41.53 9.42 15.04a3.32 3.32 0 0 0 4.57 1.05l12.81-8.02c1.55-.97 2-3 1.03-4.53L32.94 13.8a3.32 3.32 0 0 0-4.51-1.05L15.62 20.5a3.26 3.26 0 0 0-1.09 4.53Z" fill="#fff" /><path d="M22.85 44.72 11.37 26.38a2.86 2.86 0 0 1-.22-2.32L23.3 43.23a2.93 2.93 0 0 0 3.98.93L45 33.46c-.27.81-1.27 1.71-1.74 2.06L26.58 45.6a2.73 2.73 0 0 1-3.73-.89Z" fill="#2F2F2F" /><path d="m14.8 23 .55.85 1.8-1.15-.54-.85L14.8 23Zm12.45 15.26-2.39 1.53-.63-.97c1.27-.81 1.2-1.69 1-2.02l-7.32-11.3c-.45-.7-1.23-.43-1.56-.2l-.51-.8 1.76-1.13 9.65 14.9Zm-5.64-17.8c-.82.52-1.42 1.84-1.7 2.64l-.54-.83-.93.6 9.57 14.77 2.04-1.3-.55-.85c-.32.3-1.16.62-1.88-.5l-6.89-10.62c.2-.77.69-2 1.45-2.48.89-.56 1.98.71 2.42 1.42l6.3 9.73c.55.84.01 1.55-.33 1.8l.47.72 2.04-1.3-7.6-11.72c-1.15-1.77-2.71-2.82-3.87-2.08Zm3.98-.98c.28-.81.89-2.13 1.7-2.65 1.16-.74 2.72.3 3.87 2.08l7.6 11.73-2.03 1.3-.47-.73c.33-.25.87-.96.33-1.8l-6.31-9.72c-.44-.71-1.53-2-2.42-1.43-.76.5-1.24 1.71-1.44 2.49l6.88 10.62c.73 1.12 1.56.8 1.88.5l.55.84-2.03 1.3-9.58-14.77.94-.6.53.84Zm4.54-3.15 9.09 14.02 1.76-1.13-.46-.7-.12.09a.78.78 0 0 1-1.08-.23l-6.76-10.43c-.43-.48-1.51-1.48-2.43-1.62Z" fill="#FF2C3C" /><defs><linearGradient id="aaugwkwnc" x1="28" y1="0" x2="28" y2="56" gradientUnits="userSpaceOnUse"><stop stop-color="#434343" /><stop offset="1" stop-color="#111" /></linearGradient></defs></svg>