<?xml version='1.0' encoding='utf-8'?>
<!-- by TradeStack -->
<svg width="56" height="56" viewBox="0 0 56 56" xmlns="http://www.w3.org/2000/svg"><path fill="#F0F3FA" d="M0 0h56v56H0z" /><path d="M21.36 30.78a5.52 5.52 0 0 0-1.8-1.63c-.95-.56-2.28-.5-2.28-.5a1.76 1.76 0 0 1-2.36.88C13.9 30.88 14 32 14 32.07c.06 1.74 1.74 5.31 8.44 5.32.02-.14.57-4.43-1.1-6.61" fill="#0086F8" /><path d="M15.93 21.71c-1.87-1.81-5.31-2.49-9.74-.51.01.05 1.33 5.66 7.27 6.55h.01l.45.04a1.76 1.76 0 0 1 2.35-1.52c1.71-2.6-.13-4.37-.34-4.56Z" fill="#FF8300" /><path d="M14.93 29.53a1.76 1.76 0 0 1-1.01-1.6v-.14a7.46 7.46 0 0 0-5.22 1.4A7.8 7.8 0 0 0 6 34.35c.13.02 4.54.6 7.21-2.05.28-.27.52-.58.73-.91l.19-.3c.17-.56.44-1.09.8-1.55Z" fill="#51C21A" /><path d="M26 21a1.42 1.42 0 0 0-1.46 1.45A1.42 1.42 0 0 0 26 23.9a1.43 1.43 0 0 0 1.47-1.45A1.44 1.44 0 0 0 25.99 21Zm10 12.6c-.7.86-1.92 1.4-3.28 1.4A4.85 4.85 0 0 1 28 30c0-3.08 2.31-5 4.68-5A4.79 4.79 0 0 1 36 26.3V23c0-.27.07-.52.27-.7.2-.2.46-.3.74-.3a1 1 0 0 1 .71.27c.2.18.28.45.28.72v11.03c0 .26-.11.5-.3.7a.97.97 0 0 1-.7.28c-.2 0-.5-.1-.7-.29a.94.94 0 0 1-.3-.69v-.42Zm0-3.6c0-1.96-1.55-3-3-3s-3 1.04-3 3 1.55 3 3 3 3-1.08 3-3Zm6-3.57A3.63 3.63 0 0 1 45 25c2.17 0 5 1.8 5 5 0 3.14-2.72 5-5 5a4.2 4.2 0 0 1-3-1.34v3.37c0 .27-.07.52-.26.72a.98.98 0 0 1-.72.25.98.98 0 0 1-.72-.25c-.19-.2-.3-.45-.3-.72V26a1 1 0 0 1 2 0v.43ZM42 30c0 2 1.6 3 3 3s3-1 3-3-1.6-3-3-3-3 1.03-3 3Zm-16.7-4.7c.18-.19.44-.3.7-.3.27 0 .52.11.7.31.2.2.3.46.3.74V33.98c-.01.27-.12.53-.3.72a.97.97 0 0 1-.7.3c-.26 0-.5-.1-.7-.3-.18-.19-.29-.45-.3-.72v-7.93c0-.28.1-.54.3-.74Z" fill="#333F48" /></svg>