<?xml version='1.0' encoding='utf-8'?>
<!-- by TradeStack -->
<svg width="56" height="56" viewBox="0 0 56 56" xmlns="http://www.w3.org/2000/svg"><path fill="#F0F3FA" d="M0 0h56v56H0z" /><path fill="#FFED00" d="M20.4 34.8V21.2h15.2v13.6z" /><path fill="#FFED00" d="M17 14h6v28h-6z" /><path fill="#E2007A" d="M25 14h6v28h-6z" /><path fill="#009EE0" d="M33 14h6v28h-6z" /><path fill="#009EE0" d="M14 39v-6h28v6z" /><path d="M33 39v-6h6v6h-6Z" fill="#005FA9" /><path d="M25 39v-6h6v6h-6Z" fill="#602D7B" /><path d="M17 39v-6h6v6h-6Z" fill="#8CB80B" /><path fill="#E2007A" d="M14 31v-6h28v6z" /><path d="M33 31v-6h6v6h-6Z" fill="#602D7B" /><path d="M25 31v-6h6v6h-6Z" fill="#C8051B" /><path d="M17 31v-6h6v6h-6Z" fill="#F29400" /><path fill="#FFED00" d="M14 23v-6h28v6z" /><path d="M33 23v-6h6v6h-6Z" fill="#8CB80B" /><path d="M25 23v-6h6v6h-6Z" fill="#F29400" /><path d="M17 23v-6h6v6h-6Z" fill="#FDC700" /></svg>