<!-- by TradeStack --><svg xmlns="http://www.w3.org/2000/svg" width="56" height="56" viewBox="0 0 56 56"><path fill="#F0F3FA" d="M0 0h56v56H0z"/><path d="M25.32 34h-5.4l.54-7h5.38l-.52 7z" fill="#8F8F8F"/><path d="M32.07 34h-5.54l.53-7h5.53l-.52 7z" fill="#1F1F1F"/><path d="M38.65 34h-5.38l.51-7h5.35l-.48 7z" fill="#212121"/><path d="M24.74 42h-5.4l.54-7h5.4l-.54 7z" fill="#898989"/><path d="M31.5 42h-5.55l.53-7h5.53l-.51 7zM38.06 42H32.7l.5-7h5.38l-.52 7z" fill="#232323"/><path d="M18.14 42H13l.47-7h5.2l-.53 7z" fill="#B4B4B4"/><path d="M33 22.04c-2.86-.5-4.28-4.22-4.83-6.63h-.2L27.13 26h5.52l.35-3.96z" fill="#212423"/><path d="M34.19 22l-.33 4h5.35l.79-9.57h-.02c-.74 2.07-2.7 5.32-5.8 5.57z" fill="#1F1F1F"/><path d="M38.63 11h-8.4c-.3 1.01-.92 3.3-.95 4.38-.03 1.35.85 5.62 4.72 5.62 3.87 0 5.01-6.06 5.01-7.14 0-.86-.16-2.26-.38-2.86z" fill="url(#aya1sqsqr)"/><defs><linearGradient id="aya1sqsqr" x1="30.49" y1="11.62" x2="34.89" y2="18.59" gradientUnits="userSpaceOnUse"><stop stop-color="#F39C8E"/><stop offset="1" stop-color="#690100"/></linearGradient></defs></svg>