<?xml version='1.0' encoding='utf-8'?>
<!-- by TradeStack -->
<svg width="56" height="56" viewBox="0 0 56 56" xmlns="http://www.w3.org/2000/svg"><path fill="#F0F3FA" d="M0 0h56v56H0z" /><path fill-rule="evenodd" d="M21.5 21.5a7 7 0 1 1-14 0 7 7 0 0 1 14 0Zm1.5 0a8.5 8.5 0 1 1-17 0 8.5 8.5 0 0 1 17 0Zm-4.5 0a4 4 0 1 1-8 0 4 4 0 0 1 8 0Zm1.5 0a5.5 5.5 0 1 1-11 0 5.5 5.5 0 0 1 11 0Z" fill="#C9E4A1" /><circle cx="14.5" cy="21.68" r="1.68" fill="#035219" /><path fill="#035219" d="M13 25h3v12h-3z" /><path fill-rule="evenodd" d="M26.18 28.31c0-.54-.14-1.06-.39-1.52.17-.45.66-.8 1.84-.1v-2.46c-.59-.01-1.91.27-2.76 1.46a4.58 4.58 0 0 0-2.9-1c-2.31 0-4.2 1.62-4.2 3.62 0 1.2.68 2.28 1.72 2.96-.84.55-2.1 1.6-2.08 2.51.03 1.03 1.12 1.54 1.66 1.66-.7.27-2.06 1.08-2 2.24.1 1.44 1.9 2.3 4.93 2.32 3.03.02 5.06-1.33 5.17-3.39.11-2.05-2.06-3.02-4-3.02s-2.87-.2-2.84-.96c.02-.33.23-.6.46-.78.38.1.78.15 1.19.15 2.32 0 4.2-1.7 4.2-3.69Zm-4.25 1.94c.77 0 1.38-.86 1.38-1.93 0-1.06-.61-1.92-1.38-1.92-.76 0-1.38.86-1.38 1.92 0 1.07.62 1.93 1.38 1.93Zm2.54 6.5c0 .69-1.08 1.25-2.4 1.25-1.34 0-2.41-.56-2.41-1.24 0-.68 1.07-1.23 2.4-1.23 1.33 0 2.4.55 2.4 1.23ZM32 25a4 4 0 0 0-4 4v4a4 4 0 0 0 4 4h1.5a4 4 0 0 0 3.97-3.53H34.5a1.75 1.75 0 0 1-3.49-.22V32h6.5v-3a4 4 0 0 0-4-4H32Zm2.5 5v-1.25a1.75 1.75 0 1 0-3.5 0V30h3.5Z" fill="#035219" /><path d="M45 28.39c-.04-.9-.58-2.19-3-.14V37h-3V25h3v1.62A4.92 4.92 0 0 1 45.51 25c2.17-.02 2.5 1.93 2.49 3.35V37h-3v-8.61Z" fill="#035219" /></svg>