<?xml version='1.0' encoding='utf-8'?>
<!-- by TradeStack -->
<svg width="56" height="56" viewBox="0 0 56 56" xmlns="http://www.w3.org/2000/svg"><path fill="#F0F3FA" d="M0 0h56v56H0z" /><path fill-rule="evenodd" d="M7.7 27v-4H7v4h.7Zm-1.14 2.02c.05.08.1.17.13.28h.71a1.45 1.45 0 0 0-.54-.94 1.83 1.83 0 0 0-2.35.17c-.16.17-.29.38-.38.63A2.5 2.5 0 0 0 4 30c0 .41.07.77.22 1.07A1.67 1.67 0 0 0 5.8 32c.32 0 .6-.07.85-.2s.44-.32.58-.56c.14-.24.21-.53.21-.86v-.47H5.86v.55h.9a1 1 0 0 1-.12.47.8.8 0 0 1-.34.32c-.14.08-.31.12-.5.12-.22 0-.41-.06-.58-.16-.16-.1-.29-.26-.38-.47-.09-.2-.14-.45-.14-.74 0-.3.05-.54.14-.75.1-.2.22-.35.38-.46a1.08 1.08 0 0 1 .88-.11.84.84 0 0 1 .46.34ZM12 32h2.4v-.6h-1.7V28H12v4Zm12-4h2.51v.6H24.7v1.1h1.68v.6H24.7v1.1h1.83v.6H24v-4Zm4.96.73c.13.1.2.23.22.4h.68c0-.23-.07-.42-.19-.59-.12-.17-.28-.3-.49-.4-.2-.1-.44-.14-.72-.14-.27 0-.5.05-.72.14-.22.1-.39.23-.51.4a1 1 0 0 0-.19.6c0 .29.1.5.28.68.18.16.44.29.75.37l.44.11c.14.04.26.08.37.13.1.04.18.1.24.16.06.07.09.15.09.25 0 .12-.04.21-.1.3a.65.65 0 0 1-.27.19c-.12.05-.25.07-.4.07-.15 0-.28-.02-.4-.07a.59.59 0 0 1-.4-.54h-.7c.01.26.08.48.2.66.13.18.3.32.52.41a2 2 0 0 0 .78.14c.31 0 .58-.05.8-.14.21-.1.38-.24.5-.4.11-.18.17-.38.17-.61a.97.97 0 0 0-.1-.44.98.98 0 0 0-.25-.32c-.1-.09-.23-.16-.37-.22-.13-.06-.27-.1-.42-.14l-.36-.1a2.25 2.25 0 0 1-.24-.06 1.07 1.07 0 0 1-.2-.1.5.5 0 0 1-.16-.16.44.44 0 0 1 .03-.47.56.56 0 0 1 .24-.18c.1-.04.23-.06.37-.06.21 0 .38.04.5.13ZM37 28h.7v2.57c0 .29-.08.53-.22.75-.15.21-.35.38-.6.5-.27.12-.57.18-.91.18-.35 0-.66-.06-.91-.18a1.31 1.31 0 0 1-.82-1.25V28H35v2.51a.84.84 0 0 0 .46.75c.14.07.31.1.5.1.45 0 1.04-.33 1.04-.85V28Zm7.27 1.36H45c-.03-.21-.1-.4-.19-.57-.1-.17-.22-.31-.37-.43a1.6 1.6 0 0 0-.5-.27 2.02 2.02 0 0 0-1.55.15c-.28.16-.5.38-.65.68-.16.3-.24.66-.24 1.08 0 .41.08.77.24 1.07.15.3.37.53.64.69.28.16.59.23.94.23.24 0 .45-.03.64-.1A1.54 1.54 0 0 0 45 30.65h-.73a.84.84 0 0 1-.33.53.92.92 0 0 1-.28.14 1.18 1.18 0 0 1-.9-.11c-.17-.1-.3-.26-.4-.46-.09-.2-.14-.46-.14-.75 0-.3.05-.54.14-.75a1.04 1.04 0 0 1 .97-.62c.12 0 .24.02.34.05a.87.87 0 0 1 .49.38c.06.09.1.19.11.3ZM46 28h2.51v.6H46.7v1.1h1.68v.6H46.7v1.1h1.83v.6H46v-4Zm5.05.73c.13.1.2.23.22.4h.68c0-.23-.07-.42-.19-.59-.11-.17-.28-.3-.48-.4-.21-.1-.45-.14-.73-.14-.27 0-.5.05-.72.14-.22.1-.38.23-.5.4a1 1 0 0 0-.2.6c0 .29.1.5.28.68.19.16.44.29.76.37l.44.11.36.13c.1.04.18.1.24.16.06.07.09.15.09.25 0 .12-.03.21-.1.3a.65.65 0 0 1-.27.19c-.12.05-.25.07-.4.07-.15 0-.28-.02-.4-.07a.6.6 0 0 1-.4-.54h-.7c.01.26.08.48.2.66.13.18.3.32.52.41a2 2 0 0 0 .78.14c.31 0 .58-.05.8-.14.21-.1.38-.24.5-.4.11-.18.17-.38.17-.61a.97.97 0 0 0-.1-.44.98.98 0 0 0-.25-.32c-.1-.09-.23-.16-.37-.22-.13-.06-.27-.1-.42-.14l-.36-.1a2.25 2.25 0 0 1-.23-.06 1.07 1.07 0 0 1-.22-.1.5.5 0 0 1-.15-.16.44.44 0 0 1 .03-.47.56.56 0 0 1 .24-.18c.1-.04.23-.06.38-.06.2 0 .37.04.5.13ZM38.31 32v-4h1.45c.3 0 .54.05.74.16.2.1.36.26.46.45.1.2.16.41.16.67 0 .26-.05.48-.16.67a1.06 1.06 0 0 1-.53.47l.83 1.58h-.78l-.76-1.46H39V32h-.7Zm.69-2.07h.65c.18 0 .32-.02.43-.07.11-.05.2-.13.25-.22.05-.1.08-.22.08-.36a.76.76 0 0 0-.08-.36.52.52 0 0 0-.25-.23.99.99 0 0 0-.43-.08H39v1.32Zm-5.25 1.14c.16-.3.23-.65.23-1.07 0-.42-.07-.78-.23-1.08a1.66 1.66 0 0 0-1.54-.92 1.68 1.68 0 0 0-1.54.92c-.16.3-.24.66-.24 1.08 0 .41.08.77.24 1.07.15.3.36.53.63.69.27.16.57.23.91.23a1.66 1.66 0 0 0 1.54-.92Zm-.6-1.82c.09.2.13.45.13.75s-.04.54-.14.75c-.09.2-.21.35-.37.46a1 1 0 0 1-.56.15 1 1 0 0 1-.56-.15c-.16-.1-.28-.26-.38-.46-.09-.2-.13-.46-.13-.75 0-.3.04-.55.13-.75.1-.2.22-.36.38-.46a1 1 0 0 1 .56-.16 1 1 0 0 1 .56.16c.16.1.28.26.37.46ZM20.3 32v-4h1.45c.3 0 .54.05.75.16.2.1.35.26.45.45.1.2.16.41.16.67 0 .26-.05.48-.16.67a1.06 1.06 0 0 1-.53.47l.83 1.58h-.78l-.76-1.46H21V32h-.7Zm.69-2.07h.65c.18 0 .32-.02.43-.07.11-.05.2-.13.25-.22.05-.1.08-.22.08-.36a.76.76 0 0 0-.08-.36.52.52 0 0 0-.25-.23.99.99 0 0 0-.43-.08H21v1.32ZM15 32h1.3a2 2 0 0 0 1.02-.24c.28-.16.5-.39.64-.69.15-.3.22-.66.22-1.07 0-.42-.07-.78-.22-1.07-.15-.3-.36-.53-.64-.69-.27-.16-.6-.24-.98-.24H15v4Zm1.28-.63h-.58v-2.74h.6c.26 0 .48.05.65.15.18.1.31.25.4.45.1.2.14.46.14.77 0 .3-.04.56-.14.76-.09.2-.22.36-.4.46-.18.1-.4.15-.67.15ZM11.56 30c0 .42-.08.78-.23 1.08a1.66 1.66 0 0 1-1.54.92 1.7 1.7 0 0 1-1.54-.92C8.08 30.78 8 30.42 8 30c0-.42.08-.78.23-1.08A1.68 1.68 0 0 1 9.8 28a1.66 1.66 0 0 1 1.54.92c.15.3.23.66.23 1.08Zm-.7 0c0-.3-.05-.54-.14-.75-.1-.2-.22-.36-.38-.46a1 1 0 0 0-.55-.16 1 1 0 0 0-.56.16c-.16.1-.29.26-.38.46-.09.2-.14.45-.14.75s.05.55.14.75c.1.2.22.36.38.46a1 1 0 0 0 .56.16 1 1 0 0 0 .55-.16c.16-.1.29-.26.38-.46.1-.2.14-.45.14-.75Zm.91-7v4h-.68L9.1 24.28H9V27h-.7v-4H9l1.98 2.73H11V23h.77Zm.37 0v.6h1.19V27H14v-3.4h1.2V23h-3.06ZM16 27v-4h2.5v.6h-1.8v1.1h1.67v.6H16.7v1.1h1.82v.6H16Zm9.7 0v-4H25v2.73h-.04L22.93 23h-.62v4H23v-2.72h.04L25.07 27h.62Zm4.07-3.4V23h3.07v.6h-1.19V27H31v-3.4h-1.23ZM34 27v-4h-.7v4h.7Zm8-4v4h-.59l-1.72-2.72h-.03V27H39v-4h.6l1.71 2.73h.03V23H42Zm4.34 0v4h2.39v-.6H47V23h-.66Zm-8.07 2c0 .42-.08.78-.24 1.08a1.66 1.66 0 0 1-1.53.92 1.7 1.7 0 0 1-1.54-.92c-.15-.3-.23-.66-.23-1.08 0-.42.08-.78.23-1.08A1.68 1.68 0 0 1 36.5 23a1.66 1.66 0 0 1 1.54.92c.15.3.23.66.23 1.08Zm-.7 0c0-.3-.05-.54-.14-.75-.1-.2-.22-.36-.38-.46a.99.99 0 0 0-.55-.16c-.21 0-.4.06-.56.16-.16.1-.28.26-.37.46-.1.2-.14.45-.14.75s.05.55.14.75c.09.2.21.36.37.46a1 1 0 0 0 .56.16 1 1 0 0 0 .55-.16c.16-.1.29-.26.38-.46.09-.2.14-.45.14-.75ZM19 23v4h.7v-1.46h.7l.76 1.46h.78l-.83-1.58.07-.04c.2-.1.36-.25.46-.43.1-.2.16-.41.16-.67 0-.26-.05-.48-.16-.67-.1-.2-.25-.34-.45-.45-.2-.1-.45-.16-.75-.16H19Zm1.34 1.93h-.64v-1.32h.64c.17 0 .31.02.42.08.11.05.2.12.25.23.05.1.08.22.08.36 0 .14-.03.26-.08.36a.51.51 0 0 1-.25.22c-.1.05-.25.07-.42.07Zm6.6 2.07h-.74l1.35-4h.86l1.36 4h-.74l-.33-1h-1.44l-.32 1ZM28 23.82l.52 1.61h-1.07l.52-1.61H28ZM42.37 27h.74l.33-1h1.43l.33 1h.74l-1.35-4h-.87l-1.35 4Zm2.32-1.57h-1.07l.52-1.61h.03l.52 1.61Z" /></svg>