<?xml version='1.0' encoding='utf-8'?>
<!-- by TradeStack -->
<svg width="56" height="56" viewBox="0 0 56 56" xmlns="http://www.w3.org/2000/svg"><path fill="#F0F3FA" d="M0 0h56v56H0z" /><path d="M18.64 20.91a24.4 24.4 0 0 0-2.5 4.8c-.57 1.55-.98 4.63-.46 6.4.52 1.78 4.57 4.7 5.87 4.93 1.04.2 11.16-2.38 16.09-3.69.67-2.67 1.87-8.3 1.34-9.51a34.65 34.65 0 0 0-3-4.82c-.36-.45-5.12-6.65-5.75-7.5-.5-.67-1.71-2.63-2.26-3.52-.47.77-1.56 2.52-2.1 3.32-.69.99-5.46 6.94-7.23 9.59Z" fill="url(#aqh2vmyys)" /><path d="M16.13 25.71a24.4 24.4 0 0 1 3.34-5.99c-.28.86-.56 1.94-.56 2.67 0 1.34.68 2.8 2.34 2.8 1.67 0 3.69-1.44 3.69-3.16 0-1.71-1.92-2.5-3.11-.67.32-.5 1.08-1.63 1.62-2.13.67-.63 1.87-1.12 4.34-1.02a2.56 2.56 0 0 1 2.57 2.44c.2.2.64 1.09.78 2.96l.1 1.1c.2 1.74.33 2.98-1.39 4.12l-1.17.8a29.55 29.55 0 0 1-3.96 2.4c-1.8.86-3.52 1.69-4.37 1.79l-.77.12c-.59.1-1.42.24-2.26.35a5.8 5.8 0 0 1-1.64-2.18c-.52-1.77-.1-4.85.45-6.4Z" fill="url(#bqh2vmyys)" /><path d="M27.98 8c-.63 1.49-1.71 4.51-1.71 6.5 0 2.12.8 3.4 1.2 3.78 2.35.96 7.15 2.9 7.52 3.1.15.07.63.52 1.23 1.09.92.87 2.14 2.02 2.89 2.5 0-.5-.03-.9-.13-1.13a34.65 34.65 0 0 0-3-4.82c-.36-.45-5.12-6.65-5.75-7.5-.5-.67-1.7-2.62-2.25-3.52Z" fill="url(#cqh2vmyys)" /><path d="M28.1 16.04c6.2.03 9.6 5.05 10.53 7.55l1.83 7.52c.17.64-2.92 2.76-4 3.33-.88.45-3.31-.08-4.42-.4l-3.36-5.24 1.88-5.21c-.42-4.01-2.72-4.93-4.83-4.93-1.69 0-3.3 1.77-3.9 2.66.5-1.76 2.43-5.28 6.27-5.28Z" fill="url(#dqh2vmyys)" /><path d="m29.93 25.33.63-1.74c-.42-4.01-2.72-4.93-4.83-4.93-1.6 0-3.13 1.6-3.8 2.52.7-1.45 2.53-3.8 5.45-3.8 3.94 0 8.33 3.42 7.66 9.7l-5.1-1.75Z" fill="url(#eqh2vmyys)" /><path d="M30.26 23.2c2.77 0 4.38 2.6 4.84 3.92-.62-.4-4.06-.94-4.06 2.12 0 2.45 2.05 3.08 3.07 3.08 3.85 0 4.8-4.71 4.8-6.14a18 18 0 0 0-.42-3.33 19.2 19.2 0 0 1 2.5 9.19C41 36.8 37.12 45 27.94 45S15 36.75 15 32.04c0-3.52.9-6.03 1.36-6.85-1.27 3.08-.44 7.41 2.7 7.41 2.53 0 4.65-2.88 5.4-4.32.78-1.7 3.03-5.09 5.8-5.09Z" fill="url(#fqh2vmyys)" /><path d="M35.07 27.02a4.54 4.54 0 0 0-3.14-1.47c-2.1 0-6.03 2.58-6.03 7.7s5 7.8 9.33 6.88c-.74.93-3.23 2.8-7.24 2.8-4.85 0-10.6-3.57-11.07-11.27.52.59 1.24.94 2.14.94 2.53 0 4.65-2.88 5.4-4.32.78-1.7 3.03-5.09 5.8-5.09 2.7 0 4.3 2.49 4.8 3.83Z" fill="url(#gqh2vmyys)" /><defs><linearGradient id="aqh2vmyys" x1="30.13" y1="12.18" x2="24.91" y2="24.72" gradientUnits="userSpaceOnUse"><stop stop-color="#3DBBD1" /><stop offset="1" stop-color="#4260A5" /></linearGradient><linearGradient id="bqh2vmyys" x1="16.94" y1="23.81" x2="22.46" y2="30.22" gradientUnits="userSpaceOnUse"><stop stop-color="#3D97BF" /><stop offset="1" stop-color="#43529E" /></linearGradient><linearGradient id="cqh2vmyys" x1="33.14" y1="9.88" x2="32.37" y2="18.42" gradientUnits="userSpaceOnUse"><stop stop-color="#3FBCD1" /><stop offset="1" stop-color="#4261A6" /></linearGradient><linearGradient id="dqh2vmyys" x1="31.15" y1="16.04" x2="31.15" y2="34.62" gradientUnits="userSpaceOnUse"><stop stop-color="#50C1D5" /><stop offset=".79" stop-color="#444698" /></linearGradient><linearGradient id="eqh2vmyys" x1="28.52" y1="17.38" x2="28.52" y2="27.08" gradientUnits="userSpaceOnUse"><stop stop-color="#3CA0C4" /><stop offset="1" stop-color="#454397" /></linearGradient><linearGradient id="fqh2vmyys" x1="28" y1="22.85" x2="24.03" y2="36.54" gradientUnits="userSpaceOnUse"><stop stop-color="#3F7DB3" /><stop offset="1" stop-color="#3DBBD1" /></linearGradient><linearGradient id="gqh2vmyys" x1="34.95" y1="27.2" x2="25.85" y2="42.79" gradientUnits="userSpaceOnUse"><stop stop-color="#3F83B6" /><stop offset=".36" stop-color="#3BB2CC" /><stop offset=".53" stop-color="#4EC1D5" /><stop offset="1" stop-color="#94D9E5" /></linearGradient></defs></svg>