<!-- by TradeStack --><svg width="56" height="56" viewBox="0 0 56 56" xmlns="http://www.w3.org/2000/svg"><path fill="#F0F3FA" d="M0 0h56v56H0z"/><path d="M20.17 27.23c-3.08 3.6-10.73 4.1-14.17 3.9 7.6 6.06 16.77 7.08 20.4 6.84 13.54-.65 21.37-9.88 23.6-14.41-8.6 1.3-14.22-2.5-15.95-4.56-2.32 6.12-6.7 10.05-8.61 11.25a8.13 8.13 0 0 1-5.27-3.02Z" fill="#1389E1"/><path d="m25.15 30.21.29.04c1.9-1.2 6.3-5.13 8.6-11.25 1.74 2.06 7.35 5.85 15.96 4.56a23.68 23.68 0 0 1-4.44 5.96c-10.63 2.61-18.88 1.56-20.4.69Z" fill="#53B7E8"/><path d="M6 31.13c3.44.2 11.09-.3 14.17-3.9.63.86 2.5 2.64 5.08 3-2.72 2.1-9.63 4.68-19.22.92L6 31.13Z" fill="#013974"/></svg>