<?xml version='1.0' encoding='utf-8'?>
<!-- by TradeStack -->
<svg width="56" height="56" viewBox="0 0 56 56" xmlns="http://www.w3.org/2000/svg"><path fill="#F0F3FA" d="M0 0h56v56H0z" /><path d="M6 22H4v9h2v-9ZM10 27.51 12 25h2.5l-2.23 2.6L15 31h-2.5L10 27.51ZM8 22h2v9H8v-9ZM19 27.28c0-.3-.1-.61-.26-.85a.8.8 0 0 0-.74-.36c-.73.04-.9.56-.96 1.2H19Zm-2 1.15c-.02.73.17 1.36.96 1.36.59 0 .96-.28 1.04-.8h1.95a2.05 2.05 0 0 1-1.05 1.57c-.5.32-1.12.44-1.77.44-2.24 0-3.13-.97-3.13-3.2 0-1.79 1.33-2.8 3-2.8 2.28 0 3 1.32 3 3.43h-4ZM25.53 26.38c-.95 0-1.53.84-1.53 1.62 0 .78.58 1.61 1.53 1.61.95 0 1.47-.68 1.47-1.46 0-.78-.52-1.77-1.47-1.77ZM29 30.63c-.04 1.08-.13 1.78-.85 2.49-.62.62-1.89.88-2.66.88-1.35 0-3.14-.17-3.14-2h2.16c.02.47.58.62.97.62 1.02 0 1.52-.68 1.52-1.62v-.71c-.17.34-1.22.71-2 .71-1.75 0-3-1.31-3-3 0-1.84 1.03-3 2.8-3 .85 0 1.85.36 2.2 1.1V25h2v5.63ZM32.84 29.76c.93 0 1.16-.87 1.16-1.62-.46 0-1.04-.03-1.33.12-.32.16-.73.46-.73.86 0 .4.49.64.9.64ZM34 31c-.05-.18 0-.53 0-.94-.26.41-.9.94-1.96.94-1.36 0-2.06-.72-2.04-1.88.02-1.38 1.3-1.94 3.17-1.94H34c0-.5-.04-1.22-.9-1.19-.53.02-.7.39-.69.72h-2.03c-.02-.8.4-1.11.99-1.37a4.9 4.9 0 0 1 1.97-.34c1.16 0 2.68.49 2.66 1.76V31h-2ZM40 26.14c.44-.8 1.57-1.14 2.5-1.14.76 0 1.7.4 1.95 1.11.43-.7 1.28-1.09 2.21-1.11 1.35 0 2.34.81 2.34 2.1V31h-2v-3.42c-.02-.57-.27-1.19-1-1.19-1.17 0-1.5.75-1.5 1.19V31h-2v-3.42c-.03-.57-.32-1.19-1.05-1.19-1.17 0-1.45 1.2-1.45 1.27V31h-2v-6h2v1.14ZM50 22h2v2h-2v-2Zm.02 3H52l-.01 6h-1.98l.01-6Z" fill="#231815" /></svg>