<!-- by TradeStack --><svg width="56" height="56" viewBox="0 0 56 56" fill="none" xmlns="http://www.w3.org/2000/svg">
<rect width="56" height="56" fill="#F0F3FA"/>
<path fill-rule="evenodd" clip-rule="evenodd" d="M24.4594 15L28.0452 11.4142L31.631 15H24.4594ZM23.0452 15L28.0452 10L33.0452 15H41.0029V22.9576L46 27.9548L41.0029 32.9519V41H32.9548L27.9548 46L22.9548 41H15V33.0452L10 28.0452L15 23.0452V15H23.0452ZM16 22.0452V16H22.0452L16 22.0452ZM16 34.0452V40H21.9548L16 34.0452ZM15.6687 32.2997L11.4142 28.0452L15.7649 23.6945L20.0152 27.9489L15.6687 32.2997ZM16.3758 33.0068L22.832 39.463L27.2533 35.0799L25.1206 32.9702L27.2501 30.8663L25.0086 28.6518L22.8489 30.7854L20.722 28.6564L16.3758 33.0068ZM27.9615 31.5692L26.543 32.9706L27.9635 34.3758L29.3805 32.971L27.9615 31.5692ZM28.6744 35.0791L30.8021 32.9698L28.673 30.8663L30.9146 28.6518L33.0746 30.7857L35.2008 28.6531L39.5446 32.996L33.0918 39.4488L28.6744 35.0791ZM27.9643 35.7832L23.7107 40H32.2271L27.9643 35.7832ZM40.2517 32.2889L44.5858 27.9548L40.2349 23.6039L35.9068 27.945L40.2517 32.2889ZM35.1997 27.2379L39.5278 22.8968L33.0785 16.4474L28.6718 20.8161L30.8021 22.9281L28.673 25.0315L30.9145 27.2461L33.074 25.1127L35.1997 27.2379ZM31.626 27.9489L33.0692 29.3748L34.4936 27.9461L33.0698 26.5226L31.626 27.9489ZM30.2031 27.9489L27.9616 25.7344L25.72 27.9489L27.9615 30.1635L30.2031 27.9489ZM21.4288 27.9489L22.8535 29.3751L24.2971 27.9489L22.8535 26.5228L21.4288 27.9489ZM27.9616 20.1121L32.1094 16H23.8137L27.9616 20.1121ZM22.9287 16.5307L27.2514 20.8161L25.121 22.9281L27.2501 25.0315L25.0086 27.2461L22.8489 25.1125L20.722 27.2415L16.472 22.9874L22.9287 16.5307ZM29.3805 22.9269L27.9616 21.5202L26.5426 22.9269L27.9616 24.3287L29.3805 22.9269ZM24.369 41L27.9548 44.5858L31.5406 41H24.369ZM33.9548 40H40.0029V33.9519L33.9548 40ZM34.0452 16L40.0029 21.9576V16H34.0452Z" fill="#104949"/>
</svg>
