<?xml version='1.0' encoding='utf-8'?>
<!-- by TradeStack -->
<svg width="56" height="56" viewBox="0 0 56 56" xmlns="http://www.w3.org/2000/svg"><path fill="#F0F3FA" d="M0 0h56v56H0z" /><path d="M48 28c0 3.58-2.1 7-6 7s-6-3.41-6-7 2.1-7 6-7 6 3.42 6 7Zm-2 0c0-2.23-1.1-5-4-5s-4 2.75-4 5 1.1 5.01 4 5c2.9-.01 4-2.75 4-5ZM28.52 35H24V21h4.61c4.07 0 6.39 3.1 6.39 6.99 0 3.94-2.37 7.01-6.48 7.01ZM26 33h2.4c2.86 0 4.6-2.47 4.6-5.01 0-2.5-1.7-4.99-4.52-4.99H26v10ZM14 35V21h2v12h6v2h-8ZM11 21v14H9V21h2Z" /></svg>