<!-- by TradeStack --><svg viewBox="0 0 56 56" xmlns="http://www.w3.org/2000/svg"><path fill="#F0F3FA" d="M0 0h56v56H0z"/><path d="M38.71 41.5c.09.44.24.6.35.67.12.08.27.1.44.1.16 0 .37-.05.53-.15.14-.1.24-.23.24-.49 0-.54-.4-.76-.8-1-.15-.08-.46-.24-.7-.43-.25-.19-.54-.5-.54-.94 0-.34.1-.66.34-.9.24-.24.56-.36.93-.36.34 0 .65.18.87.35.23.18.4.4.51.54l-.59.43a2 2 0 0 0-.37-.38c-.17-.14-.32-.2-.42-.2-.21 0-.34.06-.41.14a.53.53 0 0 0-.14.38c0 .09.06.2.26.36.19.15.41.25.62.38.33.18 1.17.6 1.17 1.63 0 .53-.26.9-.58 1.1-.31.2-.67.27-.92.27-.2 0-.52-.01-.83-.2-.32-.21-.55-.58-.67-1.15l.71-.15ZM23.09 43.94c-.2.05-.4.05-.58.02l-.15-.44a.04.04 0 0 0-.05-.02l-.01.01c-.14.16-.17.3-.09.43a.8.8 0 0 1-.34.06c-.8-.02-1.6.01-2.4-.03-.24-.16-.4-.42-.45-.77-.07-.43.02-1.5.52-1.66a.16.16 0 0 1 .1 0c.03.01.06.03.08.06a.17.17 0 0 1 0 .2c-.3.43-.36.9-.2 1.43a.63.63 0 0 0 .39.41.18.18 0 0 0 .2-.03.2.2 0 0 0 .05-.19 3.15 3.15 0 0 1 .33-2.1c.22-.42.57-.74 1.04-.97a.37.37 0 0 0 .09-.05l.56-.51a.28.28 0 0 0 .08-.29 1.26 1.26 0 0 1-.05-.42c0-.04 0-.09.03-.12l.12-.24v-.04l.06-.6a.1.1 0 0 1 .06-.07.1.1 0 0 1 .1.02l.3.3a.11.11 0 0 0 .17-.03l.1-.19a.08.08 0 0 1 .05-.04h.06l.04.04c.01.01.02.03.01.05l-.01.19.01.05.05.04c.16.06.29.12.4.28.07.1.12.16.17.2a.18.18 0 0 1 .07.14.18.18 0 0 1-.06.14l-.38.34-.02.02c-.12.29.03.73.08 1 .06.32-.22.73-.45 1.1-.06.1-.1.2-.14.32-.1.3-.17.74-.22 1.33-.02.2-.04.31.14.46.06.04.1.1.14.17Z" fill="#124170"/><path d="M41.05 30.2c.52.61.88.97 1.1 1.1a.45.45 0 0 1 .14.7.48.48 0 0 1-.23.15c-.53.15-1.04.11-1.52-.1a.59.59 0 0 0-.63.1c-.35.32-.79.4-1.3.24a.31.31 0 0 0-.4.25c-.15.95-.66 1.38-1.53 1.27a.31.31 0 0 0-.35.3c0 .19-.32.52-.95 1a.41.41 0 0 1-.36.07.4.4 0 0 1-.25-.24c-.07-.18-.1-.34-.1-.48a.5.5 0 0 0-.35-.48.51.51 0 0 0-.21-.02c-.7.1-1.02-.25-.93-1.02a.26.26 0 0 0-.13-.25.27.27 0 0 0-.28 0c-.04.04-.1.19-.17.45a.62.62 0 0 1-.2.33.6.6 0 0 1-.36.13c-1.93.1-4.23.12-4.65 2.63-.4 2.41-.39 5.4.01 7.67h-1.58c.37-2.37 1.18-9.73-1.54-10.98a22.4 22.4 0 0 0-2.87-1.07.56.56 0 0 0-.69.3c-.1.22-.31.22-.61 0-.2-.16-.48-.12-.83.1-.8.5-1.5.52-2.11.05a.5.5 0 0 0-.8.26l-.06.25a.36.36 0 0 1-.28.26.37.37 0 0 1-.36-.12 1.64 1.64 0 0 1-.38-.85.49.49 0 0 0-.43-.43.5.5 0 0 0-.21.02c-.1.03-.2.07-.31.13-.1.05-.19-.04-.27-.29a13.2 13.2 0 0 0-.96-2.22.42.42 0 0 0-.18-.18.44.44 0 0 0-.25-.04l-.2.05a.4.4 0 0 1-.39-.14.39.39 0 0 1-.06-.4l.74-1.72c.05-.1.13-.19.22-.25l1.45-.82a.29.29 0 0 0 .15-.25.29.29 0 0 0-.14-.24 3.43 3.43 0 0 1-1.26-1.21.53.53 0 0 1-.05-.34.55.55 0 0 1 .17-.3c.78-.73.8-1.67.07-2.82a3.89 3.89 0 0 1-.45-2.42.58.58 0 0 1 .5-.53c.54-.05 1.08-.48 1.65-1.27a.26.26 0 0 0 .03-.26.28.28 0 0 0-.21-.17c-.58-.1-.92-.28-1.03-.54a.41.41 0 0 1 .01-.34.4.4 0 0 1 .27-.2c1.16-.27 2-.22 2.52.14a.35.35 0 0 0 .45-.05c.12-.13.21-.2.27-.2a.3.3 0 0 1 .25.14.28.28 0 0 1 .01.27l-.14.12a.21.21 0 0 0-.06.27c.08.12.34.19.8.2a.6.6 0 0 0 .58-.46.6.6 0 0 0 0-.26l-.13-.67a.39.39 0 0 1 .24-.44.4.4 0 0 1 .48.16c.39.6.9.8 1.55.6a.41.41 0 0 0 .25-.2.39.39 0 0 0 .01-.31 1.94 1.94 0 0 1-.15-1.15.56.56 0 0 1 .55-.43c.56 0 1.04.18 1.45.53a.36.36 0 0 0 .43.03.35.35 0 0 0 .1-.11c.29-.46.66-.72 1.25-.76 4.35-.38 7.24-1 10.53.64 2.8 1.42 4.73 2.14 4.3 5.54 0 .12.02.23.08.33s.15.18.26.23c1.5.6 2.16 1.7 2 3.28-.02.22.02.45.13.66a3.89 3.89 0 0 1-.07 3.82.3.3 0 0 0-.01.27.32.32 0 0 0 .2.18l1.22.33a.68.68 0 0 1 .41.31.66.66 0 0 1 .07.51l-.34 1.22a.86.86 0 0 1-1.04.6l-1.4-.39a.14.14 0 0 0-.18.15l.03.09ZM18.2 17.28a.38.38 0 0 0-.38-.37.38.38 0 0 0-.38.37.38.38 0 0 0 .38.38.38.38 0 0 0 .38-.38Zm12.39.9a.23.23 0 0 0 .08-.17l-.02-.1a.23.23 0 0 0-.05-.07.25.25 0 0 0-.18-.07.27.27 0 0 0-.18.06c-.03.03-.04.1-.04.24a.16.16 0 0 0 .1.15c.1.05.2.03.29-.05ZM15.02 19.3c-.06.06-.05.18.02.32.07.15.2.3.36.44.15.14.33.24.48.3.15.04.27.04.33-.03.05-.06.04-.18-.03-.32s-.2-.3-.35-.44a1.52 1.52 0 0 0-.49-.3c-.15-.04-.27-.03-.32.03Zm3.4 1.2a.62.62 0 0 0-.18-.27.52.52 0 0 0-.18-.08.43.43 0 0 0-.18-.01c-.05 0-.1.03-.12.06a.15.15 0 0 0-.04.12c.02.12.14.26.36.43a.22.22 0 0 0 .35-.11c.01-.05 0-.1-.01-.15Zm12.8 1.52c-.78.73-1.26.91-1.45.55a.12.12 0 0 0-.14-.05.12.12 0 0 0-.1.11c.01.12.2.37.59.75.08.08.19.13.3.13.13 0 .24-.03.33-.1.55-.48.84-.88.85-1.22a.22.22 0 0 0-.13-.22.23.23 0 0 0-.25.05Zm5.98.84c-.11-.03-.23 0-.36.1a.5.5 0 0 0 .32.9c.13 0 .23-.11.31-.35a.62.62 0 0 0 .04-.2.54.54 0 0 0-.04-.2.44.44 0 0 0-.11-.16.37.37 0 0 0-.16-.1Zm-20.04.39c-.02.01-.02.06 0 .13l.11.3a5.72 5.72 0 0 0 .52.86 9.4 9.4 0 0 0 .62.8l.23.22c.06.04.1.06.13.05.02-.02.02-.06 0-.14a5.68 5.68 0 0 0-.64-1.16 9.33 9.33 0 0 0-.62-.8l-.22-.22c-.07-.04-.1-.06-.13-.04Zm4.47.75a55.24 55.24 0 0 1-1.22.63c.02.13.1.21.24.24a.2.2 0 0 0 .1 0c.26-.04.62-.2 1.1-.44.48-.25.8-.47 1-.66a.19.19 0 0 0 .04-.08.28.28 0 0 0-.08-.34h-.01l-1.17.65Zm1.95 2.76c.21-.26.2-.55-.04-.87a.2.2 0 0 0-.2-.08.2.2 0 0 0-.17.15l-.14.52a.3.3 0 0 0 .16.36.32.32 0 0 0 .39-.08Zm16.83-1a.23.23 0 0 0-.11-.1.25.25 0 0 0-.16-.01.32.32 0 0 0-.23.23c-.07.3-.06.54.01.72a.26.26 0 0 0 .25.17.27.27 0 0 0 .25-.17c.1-.33.1-.6-.01-.83Zm-.03 2.9a.47.47 0 0 0-.13-.25.15.15 0 0 0-.18-.02.15.15 0 0 0-.07.17c.05.13.08.2.1.21a.16.16 0 0 0 .28-.12ZM15.3 30.21c-.1-.15-.16-.23-.2-.23a.16.16 0 0 0-.17.09.14.14 0 0 0 .05.17c.03.02.11.05.24.08a.08.08 0 0 0 .08-.02.07.07 0 0 0 0-.09Zm10.71 1.97a.25.25 0 0 0-.19-.25.25.25 0 0 0-.29.14c-.18.35-.17.68.03.97a.26.26 0 0 0 .28.1c.05-.02.1-.05.13-.09a.23.23 0 0 0 .04-.14v-.73Zm1 2.87.22-.6c.34-.89 1.17-1.15.5-2.29a.23.23 0 0 0-.22-.12.24.24 0 0 0-.2.14 6.55 6.55 0 0 0-.76 2.66.27.27 0 0 0 .16.25.27.27 0 0 0 .3-.04Z" fill="#124170"/><path d="M44 43.82V44H12v-.18h32ZM31 38h.6v5H31zM34.7 42.22H36V43h-2v-5h.7v4.22Z" fill="#124170"/></svg>