<!-- by TradeStack --><svg xmlns="http://www.w3.org/2000/svg" width="56" height="56" viewBox="0 0 56 56"><path fill="#F0F3FA" d="M0 0h56v56H0z"/><path fill-rule="evenodd" d="M12 19.96c0-.44.23-.85.61-1.07l14.79-8.73a1.2 1.2 0 0 1 1.19 0l14.8 8.74c.38.21.61.62.61 1.06v17.07c0 .43-.23.83-.6 1.05l-14.77 8.75c-.2.11-.42.17-.63.17-.21 0-.4-.05-.6-.17l-14.8-8.75c-.37-.22-.6-.62-.6-1.05V19.96zm1 .18c0-.22.13-.42.32-.53l14.36-8.54c.1-.05.22-.07.32-.07s.19.02.28.08l14.44 8.63c.19.1.28.3.28.53V36.8c0 .21-.09.41-.27.52l-14.41 8.56c-.1.05-.22.1-.32.1s-.2-.05-.3-.1l-14.38-8.46a.63.63 0 0 1-.32-.53V20.14zM28 22h-2v4.94S26.07 30 29.53 30C33 30 33 26.94 33 26.94V22h-2v4.16s.18 2.34-1.47 2.34c-1.64 0-1.53-2.34-1.53-2.34V22zm-11 0h-2v8h2v-8zm4 0h-2v8h6v-1.5h-4V22zm19.23 2l.46-1.2s-1.16-.8-2.75-.8c-1.74 0-3.44.56-3.44 2.31 0 1.53 1.53 1.97 2.55 2.26l.41.1c.85.22 1.54.4 1.54.96 0 .65-.87.87-1.78.87-1.28 0-2.5-.7-2.5-.7L34 29.2s1.5.8 3.22.8c1.94 0 3.78-.8 3.78-2.37 0-1.32-.77-1.82-2-2.2l-.94-.23c-.88-.2-1.69-.37-1.69-.89 0-.7 1.03-.81 1.85-.81 1.03 0 2.01.5 2.01.5z" fill="#9E7944"/><path fill-rule="evenodd" d="M15 32h.4v2H15v-2zm5.75 0H22v.36h-.85v.4H22v.4h-.85v.46H22V34h-1.25v-2zm2.75 0h-.7v2h.4v-.72h.28l.37.72h.45l-.4-.8c.2-.09.34-.27.34-.58 0-.47-.33-.62-.74-.62zm.34.62c0 .2-.14.3-.37.3h-.27v-.56h.27c.24 0 .37.07.37.26zM31.6 32h.4v2h-.4v-2zm1.95 0c-.5 0-.85.36-.85 1 0 .62.35 1 .85 1 .51 0 .86-.38.86-1 0-.64-.35-1-.86-1zm-.45 1c0-.4.2-.6.45-.6.36 0 .46.36.46.6 0 .38-.2.6-.46.6-.25 0-.45-.22-.45-.6zm4.78-1h.53l.59 2h-.45l-.12-.48h-.59l-.12.48h-.42l.58-2zm.42.98l.04.2h-.4l.04-.2.15-.64h.01l.07.27.09.37zM40 32h-.4v2H41v-.4h-1V32zm-23.6 0h.48l.72 1.22V32h.4v2h-.45l-.72-1.28V34h-.43v-2zm9.08 0H25v2h.43v-1.28l.72 1.28h.45v-2h-.4v1.22L25.48 32zm2.4 0h.53l.59 2h-.45l-.12-.48h-.59l-.12.48h-.42l.58-2zm.42.98l.04.2h-.4l.04-.2.15-.64h.01l.07.27.09.37zm-9.7-.6h.5V34h.4v-1.62h.5V32h-1.4v.37zm11.4 0h-.5V32h1.4v.38h-.5V34H30v-1.63zm5.48-.38H35v2h.43v-1.28l.72 1.28h.45v-2h-.4v1.22L35.48 32z" fill="#1D1D1B"/></svg>