<!-- by TradeStack --><svg width="56" height="56" viewBox="0 0 56 56" xmlns="http://www.w3.org/2000/svg"><path fill="#171B55" d="M0 0h56v56H0z"/><path d="m23.17 12-7.23 11.96 2.18 3.2L25.17 15h9.4l-1.66-3h-9.74Zm-7.31 28H30.1l1.74-3H17.66l-4.76-8.25L11 31.7l4.86 8.3Zm22-20 7.12 12.2-5 7.8h-3.56l4.6-7.6L33.83 20h4.03Z" fill="#fff"/><path d="m11.23 24.05 7 11.95h3.93l-7.2-12.1 4.6-7.9H16.1l-4.87 8.05ZM32.53 44l7.24-11.96-1.97-3.33L30.54 41h-9.49l1.75 3h9.73ZM25.9 16H40l5 8.36-1.86 3.02L38.31 19H23.94l1.96-3Z" fill="#fff"/></svg>