<!-- by TradeStack --><svg width="56" height="56" viewBox="0 0 56 56" xmlns="http://www.w3.org/2000/svg"><path fill="#012643" d="M0 0h56v56H0z"/><path fill-rule="evenodd" d="M7 23H4v10h3V23Zm25 0v10h11.29l8.65-10h-3.49L40 32.94V30.5h-5V29h4v-2h-4v-1.5h5V23h-8ZM8 23v10h3v-6.73L12.83 33h2.28L17 26.27V33h3V23h-4.18L14 29.17 12.07 23H8Zm13 0v10h4.89A5.06 5.06 0 0 0 31 28c0-2.76-2.29-5-5.11-5H21Zm3 2.5v5h1.44A2.53 2.53 0 0 0 28 28c0-1.38-1.15-2.5-2.56-2.5H24Zm22.34 5 2.11 2.5H52l-3.85-4.64-1.81 2.14Zm-2.52-2.98 1.81-2.18L43.7 23H40l3.82 4.52Z" fill="#fff"/></svg>