<!-- by TradeStack --><svg width="56" height="56" viewBox="0 0 56 56" xmlns="http://www.w3.org/2000/svg"><path fill="#F0F3FA" d="M0 0h56v56H0z"/><path d="m38.99 12.21-2.8 9.6-16.06 3.99-1.88-2a.6.6 0 0 1-.12-.24L38.9 12c.04-.02.06-.01.08.03.02.09.03.15.02.17Z" fill="#1A288E"/><path d="M38.99 12.21 39 45.95a.05.05 0 0 1-.03.05.05.05 0 0 1-.06-.02l-7.26-7.83c-.02-.02-.03-.06-.03-.12l4.56-16.22 2.8-9.6Z" fill="#586BF9"/><path d="M18.13 23.56c.03.1.08.19.12.24l1.88 2 11.49 12.23c0 .06.01.1.03.12l-.84 2.8a.07.07 0 0 1-.08.06L30.7 41 9.04 28.74a.08.08 0 0 1-.04-.06.08.08 0 0 1 .04-.07l9.1-5.05Z" fill="#2638FF"/></svg>