<!-- by TradeStack --><svg width="56" height="56" viewBox="0 0 56 56" xmlns="http://www.w3.org/2000/svg"><path fill="url(#agaeeshmv)" d="M0 0h56v56H0z"/><path d="M18.58 18.58a13.23 13.23 0 0 0-3.9 9.42c0 3.1 1.08 6.1 3.06 8.48l-1.9 1.9A15.92 15.92 0 0 1 12 28c0-4.27 1.66-8.3 4.69-11.31A15.9 15.9 0 0 1 27.99 12c3.82 0 7.5 1.35 10.4 3.83l-1.9 1.9a13.21 13.21 0 0 0-8.5-3.05 13.24 13.24 0 0 0-9.4 3.9Zm19.8 1.07 1.9-1.9A15.88 15.88 0 0 1 44 28c0 4.28-1.66 8.3-4.69 11.31A15.9 15.9 0 0 1 28.01 44c-3.76 0-7.4-1.32-10.26-3.73l1.9-1.9A13.25 13.25 0 0 0 33.1 40.3a13.2 13.2 0 0 0 4.32-2.9 13.23 13.23 0 0 0 3.9-9.4 13.2 13.2 0 0 0-2.95-8.36Z" fill="#A68550"/><defs><linearGradient id="agaeeshmv" x1="10.42" y1="9.71" x2="68.15" y2="76.02" gradientUnits="userSpaceOnUse"><stop stop-color="#1A1E21"/><stop offset="1" stop-color="#06060A"/></linearGradient></defs></svg>