<?xml version='1.0' encoding='utf-8'?>
<!-- by TradeStack -->
<svg width="56" height="56" viewBox="0 0 56 56" xmlns="http://www.w3.org/2000/svg"><path fill="#F0F3FA" d="M0 0h56v56H0z" /><path d="M48 22c.63.98 1 2.26 1 3.34 0 .98-.27 1.92-.81 2.82C46.09 32.65 37.9 36 28 36c-11.5-.04-20.95-4.55-20.95-10.08 0-2.6 2.06-5 5.46-6.76.63-.4 1.36-.8 2.12-1.16C9.4 20.03 6 23.24 6 26.86 6 33.01 15.84 38 28 38s22-5 22-11.14A7.32 7.32 0 0 0 48 22Z" fill="#007DC2" /><path d="M42.5 22c.44.75.84 1.76.84 2.59 0 4.4-6.79 7.91-15.18 7.91C19.76 32.5 13 29 13 24.59c0-1.27.96-2.5 2-3.59-1.64 1.3-3 2.88-3 4.6 0 4.63 7.16 8.4 16 8.4s16-3.77 16-8.4c0-1.2-.65-2.6-1.5-3.6Z" fill="#007DC2" /><path d="M39 22c.32.51.55.9.55 1.48 0 3.06-4.89 5.52-10.92 5.52-6.04 0-10.93-2.46-10.93-5.52 0-.88.57-1.71 1.3-2.48-1.18.91-2 2-2 3.17 0 3.2 5.14 5.83 11.5 5.83S40 27.38 40 24.17c.03-.84-.4-1.44-1-2.17Z" fill="#007DC2" /><path d="M35.36 21.56c.2.34.32.71.32 1.09 0 2.06-3.2 3.71-7.1 3.71-3.93 0-7.1-1.65-7.1-3.71 0-.6.04-1.16.52-1.65-.77.6-1 1.35-1 2.14 0 2.13 3.36 3.86 7.52 3.86 4.12 0 7.48-1.76 7.48-3.9 0-.56-.22-1.09-.64-1.54Z" fill="#007DC2" /><path d="M28.5 23c-1.4 0-2.5-.45-2.5-1s1.14-1 2.5-1c1.4 0 2.5.45 2.5 1s-1.14 1-2.5 1Z" fill="#007DC2" /></svg>