<?xml version='1.0' encoding='utf-8'?>
<!-- by TradeStack -->
<svg width="56" height="56" viewBox="0 0 56 56" xmlns="http://www.w3.org/2000/svg"><path fill="#F0F3FA" d="M0 0h56v56H0z" /><path d="M29 19h-2a4 4 0 0 1-4-3.98v-2A4 4 0 0 1 27 9h2a4 4 0 0 1 4 3.98v2A4 4 0 0 1 29 19Zm9.36 8h-1.82C34.05 27 33 28.29 33 29.85v3.32c0 1.71.88 2.83 3.54 2.83h1.82c1.97 0 3.64 1.77 3.64 3.88v1.6C42 43.4 40.39 45 38.36 45h-1.82A3.5 3.5 0 0 1 33 41.49v-1.56c0-1.98-1.06-2.93-3.4-2.93h-2.93c-2.22 0-3.67.36-3.67 2.88v1.6A3.5 3.5 0 0 1 19.47 45h-1.83A3.6 3.6 0 0 1 14 41.49v-1.56c0-2.1 1.62-3.93 3.64-3.93h1.83c2.76 0 3.53-1 3.53-2.78v-3.33c0-1.52-1.23-2.89-3.53-2.89h-1.83A3.78 3.78 0 0 1 14 23.27v-1.76A3.6 3.6 0 0 1 17.64 18h1.83A3.5 3.5 0 0 1 23 21.51v1.76c0 1.87 1 2.73 3.99 2.73h2.61c2.32 0 3.4-.66 3.4-2.73v-1.76A3.5 3.5 0 0 1 36.54 18h1.82A3.6 3.6 0 0 1 42 21.51v1.76c0 1.9-1.61 3.73-3.64 3.73Z" fill="#E50071" /></svg>