<?xml version='1.0' encoding='utf-8'?>
<!-- by TradeStack -->
<svg width="56" height="56" viewBox="0 0 56 56" xmlns="http://www.w3.org/2000/svg"><path fill="#F0F3FA" d="M0 0h56v56H0z" /><path d="M44 28a16 16 0 1 1-32-.52h5.85l-.02.52c0 5.7 4.56 10.33 10.17 10.33a10.25 10.25 0 0 0 10.15-10.85H44L44 28Zm-1.4-6.54-5.47 1.98A10.15 10.15 0 0 0 28 17.67c-4.03 0-7.5 2.38-9.15 5.83l-5.44-2.07a16 16 0 0 1 29.2.03Z" fill="#0169A6" /><path d="M12 26.6h6.1c.1-.8.32-1.57.6-2.3L13 22.2a16.46 16.46 0 0 0-.99 4.4Zm31.04-4.33-5.69 2.18c.26.68.45 1.4.55 2.16H44a16.46 16.46 0 0 0-.96-4.34Z" fill="#9FACB2" /></svg>