<!-- by TradeStack --><svg width="56" height="56" viewBox="0 0 56 56" xmlns="http://www.w3.org/2000/svg"><path fill="#F0F3FA" d="M0 0h56v56H0z"/><path fill-rule="evenodd" d="M4 26h.4v4H4v-4Zm2.5 0-.15 4h.36l.12-2.73L7.97 30h.18l1.16-2.73.1 2.73h.35l-.13-4h-.2l-1.38 3.25L6.71 26h-.2Zm5.13 4h-.4l1.54-4h.19l1.56 4h-.4l-.4-1h-1.7l-.4 1Zm1.24-3.22.7 1.82h-1.4l.7-1.82ZM17.42 30c.46 0 .9-.17 1.25-.46h-.01V28h-1.33v.4h.97v.92c-.25.17-.55.27-.86.27-.83 0-1.44-.71-1.44-1.59 0-.88.6-1.59 1.44-1.59.34 0 .67.12.94.32l.21-.33c-.33-.25-.74-.4-1.17-.4-1.05 0-1.82.9-1.82 2s.77 2 1.82 2Zm5.39-4H20.6v4h2.2v-.4H21v-1.2h1.58V28H21v-1.56h1.8V26Z" fill="#31A9A5"/><path fill-rule="evenodd" d="M24.6 30v-4h1.28c.65 0 1.12.6 1.12 1.35 0 .74-.47 1.34-1.12 1.34H25V30h-.4Zm1.26-3.6H25v1.84h.86c.4 0 .74-.41.74-.92s-.33-.92-.74-.92ZM41.6 30v-4h2.2v.44H42V28h1.58v.4H42v1.2h1.8v.4h-2.2Zm-13 0v-4h1.29c.64 0 1.17.6 1.17 1.33 0 .6-.36 1.11-.85 1.27l.96 1.4h-.49l-.92-1.35H29V30h-.4Zm1.26-3.56H29v1.8h.86c.4 0 .74-.41.74-.9 0-.5-.33-.9-.74-.9ZM34.58 30a2 2 0 1 0 0-4 2 2 0 0 0 0 4Zm0-.43a1.57 1.57 0 1 0 0-3.14 1.57 1.57 0 0 0 0 3.14Zm4.02.43v-3.57h-1.13V26h2.63v.43H39V30h-.4Zm11.88-3.57V30h.39v-3.57H52V26h-2.63v.43h1.11ZM47.01 30c.5 0 .96-.18 1.3-.48l-.23-.36A1.58 1.58 0 0 1 45.43 28a1.58 1.58 0 0 1 2.64-1.16l.24-.37A2.01 2.01 0 0 0 45 28c0 1.1.9 2 2.01 2Z" fill="#939598"/></svg>