<!-- by TradeStack --><svg width="56" height="56" viewBox="0 0 56 56" xmlns="http://www.w3.org/2000/svg"><path fill="#F0F3FA" d="M0 0h56v56H0z"/><circle cx="28" cy="28" r="16" fill="url(#azwpu0imu)"/><path d="M13.44 21.36 23.3 33.5l1.63-1 2 .78 13.72-15.1a16 16 0 0 0-27.2 3.16Z" fill="url(#bzwpu0imu)"/><circle cx="31.44" cy="24.16" r="1.94" fill="#4ACFF4"/><circle cx="33.18" cy="16.89" r="1.94" fill="#57C7F5"/><circle cx="38.2" cy="26.9" r="1.44" fill="#00B1F3"/><path fill-rule="evenodd" d="M17.5 30a4.5 4.5 0 0 1 4 2.44 4.5 4.5 0 1 1-.47 2.56h-4.66c.08.36.5 1.36 1.5 1.36s1.63-.52 1.82-.77l1.61 1.32A4.5 4.5 0 1 1 17.5 30ZM30 34.5V30h3v1.22A3.29 3.29 0 0 1 35.39 30c1.18 0 1.99.6 2.37 1.54.38-.57 1.35-1.54 2.63-1.54 1.7 0 2.61 1.23 2.61 2.91V39h-3v-4.84c0-.31-.34-.93-1.04-.93-.46 0-.78.44-.96.87V39h-3v-4.84c0-.31-.34-.93-1.04-.93-.46 0-.78.44-.96.87V39h-3v-4.5ZM18.5 34h-2.18c.05-.5.36-1.5 1.19-1.5s1 1 .98 1.5Zm7 2.04c.7 0 1.27-.69 1.27-1.54 0-.85-.57-1.54-1.27-1.54-.7 0-1.27.69-1.27 1.54 0 .85.57 1.54 1.27 1.54Z" fill="#F0F3FA"/><path opacity=".5" fill="#fff" d="M21 40h14v2H21z"/><defs><linearGradient id="azwpu0imu" x1="33.09" y1="14.97" x2="28" y2="44" gradientUnits="userSpaceOnUse"><stop stop-color="#7DD7F9"/><stop offset=".39" stop-color="#0E38A8"/><stop offset="1" stop-color="#B30938"/></linearGradient><linearGradient id="bzwpu0imu" x1="27.12" y1="8.25" x2="27.12" y2="33.51" gradientUnits="userSpaceOnUse"><stop stop-color="#87D6F7"/><stop offset="1" stop-color="#87D6F7" stop-opacity="0"/></linearGradient></defs></svg>