<!-- by TradeStack --><svg viewBox="0 0 56 56" xmlns="http://www.w3.org/2000/svg"><path fill="#F0F3FA" d="M0 0h56v56H0z"/><path d="M42 14 14 42V14h28Z" fill="#F8C301"/><circle cx="18.25" cy="18.75" r="2.75" fill="#D84A0D"/><path fill="#D84A0D" d="M18 14h.5v26.62H18z"/><path fill="#D84A0D" d="M14 19v-.51h26.83V19z"/><path d="M28.39 28.4 14 14v.9l13.93 13.8.46-.3Z" fill="#D84A0D"/><path d="M22.41 14 14 22.5v.72L23.04 14h-.63Z" fill="#D84A0D"/><path d="m14 42 28-28v28H14Z" fill="#2867AE"/><path d="M34 36.33c0-3.76 2.15-7.12 3.23-8.33-.52 2.44.7 4.22 2.02 5.9 1.32 1.66 1.06 6.1-2.02 6.1-2.47 0-3.18-2.45-3.23-3.67Z" fill="#3D83D3"/><path d="M35.47 36.56c0-1.4.64-2.65.96-3.1-.15.9.21 1.57.6 2.19.4.62.33 2.28-.6 2.28-.73 0-.95-.92-.96-1.37Z" fill="#fff"/></svg>