<!-- by TradeStack --><svg xmlns="http://www.w3.org/2000/svg" width="56" height="56" viewBox="0 0 56 56"><path fill="#002B4E" d="M0 0h56v56H0z"/><path d="M24.34 22.05s3.43-2.08 7.17-3.39c3-1.05 4.8-1.39 6.18-1.54 1.55-.16 2.37-.16 3.57 0 1.2.17 2.09.6 2.54.86.44.26 1.27.9 1.67 1.7.4.8.49 1.3.54 2.02.04.7-.03 1.3-.03 1.3h-2.14s.17-.86.16-1.42c-.03-2.6-1.94-3.88-4.43-3.91-5.37-.07-10.47 2.12-15.23 4.38zM7 25v6h1.4v-6H7zm4 0v6h1.4v-4.05L16.6 31H18v-6h-1.4v4.04L12.4 25H11zm9 6v-6h3.7c1.85 0 3.3 1.01 3.3 2.96 0 2.2-1.74 3.04-3.64 3.04H20zm1.4-1h1.67c1.36 0 2.53-.52 2.53-2.06 0-1.07-.63-1.94-1.88-1.94H21.4v4zm7.6-5v6h1.4v-6H29zm4 6v-6h1.4v2.5l3.18-2.5h1.95l-3.84 2.83L40 31h-2.17l-3.43-2.64V31H33zm11.32-6L41 31h1.36l.68-1.31h3.72l.7 1.31H49l-3.37-6h-1.31zm1.88 3.6h-2.57l1.3-2.44 1.27 2.44zm-20.75 8.74c3.73-1.3 7.16-3.4 7.16-3.4-4.76 2.27-9.86 4.46-15.22 4.4-2.5-.04-4.35-1.31-4.39-3.92 0-.56.11-1.42.11-1.42h-2.14s-.07.6-.02 1.3c.05.71.14 1.21.54 2.02.4.8 1.22 1.44 1.67 1.7.45.26 1.34.7 2.54.86 1.2.16 2.02.16 3.57 0 1.38-.15 3.17-.5 6.18-1.54z" fill="#fff"/></svg>