<?xml version='1.0' encoding='utf-8'?>
<!-- by TradeStack -->
<svg width="56" height="56" viewBox="0 0 56 56" xmlns="http://www.w3.org/2000/svg"><path fill="#F0F3FA" d="M0 0h56v56H0z" /><path d="m27.48 24.8-2.09.52c-.52-.88-2.92-2.66-8.35-2.66C10.26 22.66 8 26.1 8 27.5c0 1.4 1.74 2.09 4.35 2.09 2.6 0 11.48-2.13 15.13-3.73 3.65-1.6 14.09-4.8 17.22-4.8 2.5 0 3.82 1.43 4.17 2.14-.52-.18-2.09-.54-4.17-.54-5.74 0-26.77 10.18-35.48 9.59C6.09 32.04 4 30.65 4 27.99 4 25.27 7.64 20 16 20c6.78 0 10.43 3.37 11.48 4.8Z" fill="url(#ajgysesnt)" /><path d="m28.52 31.2 2.09-.52c.52.88 2.92 2.66 8.35 2.66 6.78 0 9.04-3.5 9.04-4.84 0-1.34-1.74-2.09-4.35-2.09-2.6 0-11.48 2.13-15.13 3.73C24.87 31.74 14.63 35 11.5 35c-2.5 0-4.02-1.49-4.37-2.2.52.18 2.09.54 4.17.54 5.74 0 26.77-10.18 35.48-9.59 3.13.21 5.22 1.6 5.22 4.26C52 30.73 48.36 36 40 36c-6.78 0-10.43-3.37-11.48-4.8Z" fill="url(#bjgysesnt)" /><defs><linearGradient id="ajgysesnt" x1="3.48" y1="27.45" x2="47.33" y2="22.34" gradientUnits="userSpaceOnUse"><stop stop-color="#BAE0EF" /><stop offset=".43" stop-color="#20BFDD" /><stop offset="1" stop-color="#20BEDC" /></linearGradient><linearGradient id="bjgysesnt" x1="52.52" y1="28.55" x2="8.67" y2="33.66" gradientUnits="userSpaceOnUse"><stop stop-color="#57B4D2" /><stop offset=".43" stop-color="#1C4489" /><stop offset="1" stop-color="#1C4388" /></linearGradient></defs></svg>