<!-- by TradeStack --><svg viewBox="0 0 56 56" xmlns="http://www.w3.org/2000/svg"><path fill="url(#a)" d="M0 0h56v56H0z"/><path fill-rule="evenodd" d="M8.5 23.25a1.25 1.25 0 1 1-2.5 0 1.25 1.25 0 0 1 2.5 0ZM9 27.5V31h1.4v-3.4a2.03 2.03 0 0 1 4.07 0v2.2c0 .66.54 1.2 1.21 1.2H16v-3.5a3.5 3.5 0 0 0-7 0ZM6.5 25H8v6h-.38C7 31 6.5 30.48 6.5 29.83V25ZM32 31v-3.5a3.5 3.5 0 0 1 7 0V31h-.32a1.2 1.2 0 0 1-1.2-1.2v-2.2a2.03 2.03 0 0 0-4.08 0V31H32Zm-8.75-6.5a1.25 1.25 0 1 0 0-2.5 1.25 1.25 0 0 0 0 2.5Zm26.75 3V31h-.38c-.44 0-.83-.29-1.01-.7a3.5 3.5 0 1 1-.11-5.67V24H50v3.5Zm-1.5 0a2 2 0 1 1-4 0 2 2 0 0 1 4 0Zm-24.5 0a3.5 3.5 0 0 1-1.33 2.75 3.5 3.5 0 1 1-5.34 1.27l1.23.99A2 2 0 0 0 20.5 35a2 2 0 1 0-.16-4h-.01A3.5 3.5 0 1 1 24 27.5Zm-3.5 2a2 2 0 1 0 0-4 2 2 0 0 0 0 4ZM31.46 28a3.5 3.5 0 1 0-1.15 2.12l-1.24-.93A2 2 0 0 1 26.06 28h5.4ZM28 25.5a2 2 0 0 0-1.73 1h3.46a2 2 0 0 0-1.73-1ZM41.5 22H40v7.8c0 .66.5 1.2 1.12 1.2h.38v-5.5H43V24h-1.5v-2Z" fill="#fff"/><defs><linearGradient id="a" x1="0" y1="28" x2="56" y2="28" gradientUnits="userSpaceOnUse"><stop stop-color="#0074BD"/><stop offset="1" stop-color="#04BCE0"/></linearGradient></defs></svg>