<?xml version='1.0' encoding='utf-8'?>
<!-- by TradeStack -->
<svg width="56" height="56" viewBox="0 0 56 56" xmlns="http://www.w3.org/2000/svg"><path fill="#F0F3FA" d="M0 0h56v56H0z" /><path d="M34.91 26.95c-1.1.59-2.3 1.65-2.01 3.01.5 2.64 3.3 5.7 4.65 7.79.47.7 1.54 1.68 2.47 1.2.16-.08.98-.63.58-.9-.11-.08-.5.12-.66.12-.78 0-2.18-1.76-2.18-2.49 0-.05 1.8.55 2.38.84.68.32 1.12 1.13.79 1.84-.14.28-.3.45-.51.58-.24.12-.35.37-.23.5.4.47 1.48-.68 1.6-1.01.33-1.2.03-2.18-1.05-2.94a14.45 14.45 0 0 0-3.84-1.7c-.15-.05-.19-.08-.3-.26-.6-.9-1.38-2.61-1.05-3.73.24-.86 1.92-2.04 1.92-2.65a.47.47 0 0 0-.08-.2h-2.48ZM31.5 21.98c-.22 1.22-.14 2.82 1.1 3.46 2.38 1.27 6.53 1.04 9.01 1.3.84.09 2.28-.13 2.5-1.15.03-.17.11-1.16-.35-1.02-.12.04-.22.47-.31.6-.5.6-2.76.57-3.33.11a16.76 16.76 0 0 1 2.15-1.31c.69-.33 1.6-.15 1.94.55.13.27.17.5.13.75-.05.27.07.51.24.5.63-.02.41-1.58.22-1.88-.72-1-1.67-1.38-2.95-1.03a14.43 14.43 0 0 0-3.75 1.89c-.13.09-.18.1-.39.08-1.07-.1-2.9-.58-3.57-1.54-.52-.73-.39-2.77-.87-3.16a.48.48 0 0 0-.2-.07l-1.56 1.92ZM25.13 21.08c.8.95 2.1 1.89 3.39 1.33 2.49-1.04 4.92-4.4 6.69-6.14.6-.6 1.34-1.85.67-2.65-.11-.14-.83-.82-1.01-.38-.05.12.23.47.26.62.16.75-1.28 2.49-2 2.64-.05 0 .17-1.86.33-2.49.18-.73.88-1.33 1.65-1.15.3.07.5.19.67.37.18.21.44.27.54.13.38-.5-.98-1.31-1.33-1.35-1.24-.08-2.14.42-2.67 1.63a14.25 14.25 0 0 0-.88 4.09c-.01.16-.03.2-.18.35-.76.76-2.29 1.88-3.45 1.79-.9-.06-2.4-1.45-3.01-1.32a.48.48 0 0 0-.19.12l.52 2.41ZM20.8 25.8c1.25-.04 2.8-.45 3.18-1.79.75-2.58-.34-6.57-.6-9.03-.09-.84-.6-2.2-1.64-2.19-.18 0-1.17.12-.94.54.07.12.51.12.65.19.7.35 1.14 2.56.81 3.2a16.7 16.7 0 0 1-1.74-1.81c-.46-.6-.48-1.52.14-2 .24-.19.46-.27.72-.28.27-.01.48-.18.43-.34-.15-.6-1.63-.07-1.89.17-.84.92-1.02 1.92-.4 3.1.62 1.15 1.69 2.33 2.64 3.24.11.12.13.15.15.37.12 1.06.04 2.95-.77 3.79-.6.66-2.64.95-2.92 1.5a.47.47 0 0 0-.03.21l2.21 1.12ZM21.98 32.05c.76-.98 1.42-2.44.6-3.57-1.54-2.2-5.34-3.88-7.43-5.23-.71-.45-2.1-.91-2.75-.1-.1.14-.63.98-.16 1.06.13.02.41-.32.55-.38.71-.31 2.72.73 3.02 1.4.02.04-1.87.21-2.52.2-.76-.03-1.49-.59-1.48-1.37.01-.3.09-.53.24-.73.16-.22.16-.49 0-.55-.56-.27-1.08 1.22-1.05 1.57.19 1.23.86 2 2.16 2.26 1.3.25 2.9.16 4.2 0 .17-.02.2 0 .39.1.9.59 2.32 1.84 2.48 3 .13.88-.92 2.63-.67 3.2.01.02.1.13.15.15l2.27-1ZM27.07 35.07c-.3-1.21-1.02-2.63-2.42-2.72-2.7-.2-6.4 1.7-8.76 2.46-.8.26-2.04 1.04-1.81 2.06.04.17.36 1.1.73.79.1-.1 0-.52.05-.67.2-.75 2.28-1.64 2.98-1.45.05 0-1 1.58-1.42 2.07-.5.57-1.4.78-2 .28a1.2 1.2 0 0 1-.43-.64c-.06-.26-.27-.44-.42-.35-.57.27.27 1.6.56 1.8a2.5 2.5 0 0 0 3.13-.25 14.34 14.34 0 0 0 2.65-3.25c.08-.13.12-.16.32-.22 1.02-.34 2.9-.65 3.9-.04.77.46 1.48 2.37 2.07 2.53.03 0 .17 0 .22-.02l.64-2.38ZM32.88 32.42c-1.15-.48-2.74-.73-3.63.34-1.74 2.05-2.38 6.14-3.15 8.5-.26.8-.35 2.25.61 2.66.16.07 1.11.36 1.07-.12-.01-.13-.42-.31-.51-.43-.5-.6 0-2.8.57-3.25.04-.04.7 1.73.85 2.36.17.73-.18 1.58-.95 1.77-.3.07-.53.06-.77-.03-.25-.1-.51-.04-.53.13-.11.62 1.46.73 1.8.6 1.14-.49 1.7-1.34 1.63-2.65-.1-1.31-.6-2.82-1.09-4.04-.05-.15-.05-.2.01-.4.33-1.02 1.18-2.7 2.26-3.15.82-.35 2.8.2 3.28-.19.02-.01.1-.12.11-.18l-1.56-1.92Z" fill="#FDB414" /></svg>