<?xml version='1.0' encoding='utf-8'?>
<!-- by TradeStack -->
<svg width="56" height="56" viewBox="0 0 56 56" xmlns="http://www.w3.org/2000/svg"><path fill="#F0F3FA" d="M0 0h56v56H0z" /><path d="M4 24h1.54v8H4v-8Zm17 8h5v-1.37h-3.46v-1.91h3.09v-1.37h-3.09v-1.98H26V24h-5v8Zm10.18-3.52L32.93 32h-1.77l-1.53-3.27h-1.1V32H27v-8h3.07c1.6 0 2.54 1.1 2.54 2.4 0 1.11-.67 1.8-1.43 2.08Zm-.1-2.07c0-.6-.44-1.04-1.11-1.04h-1.44v2.08h1.44c.67 0 1.11-.43 1.11-1.04ZM36 28.84h1.45v.3c0 .4-.1.76-.35 1.05-.25.27-.63.44-1.09.44-.42 0-.76-.15-.98-.4-.3-.34-.37-.72-.37-2.23s.08-1.88.37-2.2c.22-.26.56-.43.98-.43.78 0 1.23.41 1.4 1.15h1.55C38.75 25.19 37.82 24 36 24c-.88 0-1.56.3-2.11.86-.8.8-.77 1.78-.77 3.14s-.02 2.34.77 3.14c.55.55 1.25.86 2.11.86a2.9 2.9 0 0 0 2.21-.9c.55-.57.78-1.25.78-2.4v-1.14h-3v1.28ZM40 32h5v-1.37h-3.47v-1.91h3.09v-1.37h-3.1v-1.98H45V24h-5v8Zm9.52-4.03L51.8 24h-1.73l-1.37 2.67L47.33 24H45.6l2.27 3.97L45.44 32h1.75l1.5-2.74L50.22 32h1.75l-2.44-4.03Zm-38.32.98L8.1 24H6.74v8h1.53v-4.83l3.1 4.83h1.36v-8H11.2v4.95Zm7.27 0L15.37 24H14v8h1.54v-4.83l3.1 4.83H20v-8h-1.53v4.95Z" fill="#183B64" /><path fill-rule="evenodd" d="m28.17 30.28.3.2.3-.22c.01-.01 1.7-1.4 4.21-2.76 2.33-1.26 5.87-2.77 9.49-2.77h.16c2.5.04 4.85.68 6.6 1.83 1.1.73 1.9 1.6 2.35 2.56a5.68 5.68 0 0 0-2.5-3.08 12.2 12.2 0 0 0-6.45-1.79c-3.62-.04-7.18 1.47-9.51 2.73-2.45 1.33-4.1 2.68-4.19 2.74l-.76.56Zm-.22.15.3.21-.3.21-.3-.21.3-.2Zm-.22-.16-.29.2a14.7 14.7 0 0 0-14.08-5.74c-4.2 0-7.77 1.86-8.94 4.4.79-2.77 4.5-4.88 8.95-4.88H13.58c.89 0 5.75.27 13.65 5.65l.5.38Zm-23.33.99.02.08c1.16-2.55 4.73-4.41 8.95-4.41h.2c.53 0 2 .07 4.33.82 2.47.8 5.12 2.08 7.89 3.83l.38-.24c-7.27-4.7-11.74-4.95-12.6-4.95h-.2c-4.45 0-8.16 2.1-8.97 4.87ZM4 30.22c0 .14 0 .27.02.4a4.17 4.17 0 0 0 0 .73 4.15 4.15 0 0 0 .01.65h.65l-.01-.02c1.2-2.4 4.64-4.15 8.7-4.15h.2c.8 0 4.83.21 11.38 4.17h.65l.25-.16.24.16h.62l.23-.16.23.16h.58l.2-.14.2.14h.6a58.01 58.01 0 0 0 .2-.16l.24.16h.5c.08-.07.18-.13.28-.2l.33.2h.48l-.04-.02c.65-.43 1.45-.92 2.35-1.41 2.3-1.25 5.8-2.74 9.38-2.74h.16c2.46.03 4.76.66 6.48 1.79a6.21 6.21 0 0 1 2.2 2.38h.66a4.12 4.12 0 0 0 0-.65 4.16 4.16 0 0 0 .01-.73l.02-.4c0-1.66-.98-3.22-2.76-4.39a12.47 12.47 0 0 0-6.6-1.82c-3.69-.05-7.3 1.48-9.66 2.76a29.3 29.3 0 0 0-4.22 2.76l-.8.59-.56-.41-.01-.01a37.86 37.86 0 0 0-9.48-4.87 14.71 14.71 0 0 0-4.54-.82C8.2 24 4 26.79 4 30.2ZM51.11 32a6.87 6.87 0 0 0-1.9-1.8 12.42 12.42 0 0 0-6.58-1.81h-.16c-3.61 0-7.14 1.5-9.46 2.76-.54.28-1.03.57-1.48.85h.3c.4-.23.81-.48 1.26-.72 2.34-1.27 5.91-2.78 9.54-2.74 2.46.03 4.76.67 6.48 1.8.76.49 1.36 1.05 1.8 1.66h.2Zm-.6 0c-.37-.38-.8-.74-1.3-1.06a12.41 12.41 0 0 0-6.58-1.82c-3.66-.05-7.26 1.48-9.62 2.76l-.23.12h.3c2.34-1.27 5.92-2.79 9.55-2.74 2.46.03 4.77.66 6.49 1.8.45.28.84.6 1.18.94h.2Zm-.83 0a12.42 12.42 0 0 0-7.05-2.16c-3.1-.03-6.15 1.05-8.44 2.16h.3c2.25-1.06 5.18-2.06 8.14-2.02A12.26 12.26 0 0 1 49.46 32h.22Zm-25.63 0a32.89 32.89 0 0 0-6.15-2.79 14.67 14.67 0 0 0-4.53-.82c-3.76 0-7.01 1.48-8.48 3.61h.2c1.46-2.04 4.62-3.46 8.29-3.46h.2c.75 0 4.32.2 10.15 3.46h.32Zm-1.34 0a31 31 0 0 0-4.82-2.06 14.64 14.64 0 0 0-4.52-.82c-3.31 0-6.23 1.15-7.88 2.88h.2c1.63-1.65 4.47-2.74 7.69-2.74h.2c.69 0 3.78.16 8.82 2.74h.31Zm-1.46 0a28.93 28.93 0 0 0-3.36-1.33 14.66 14.66 0 0 0-4.52-.83c-2.83 0-5.36.84-7.07 2.16h.22a11.7 11.7 0 0 1 6.86-2.02l.2-.01c.62 0 3.17.13 7.34 2.03h.33Zm30.33-.67.02-.08a5.72 5.72 0 0 0-2.5-3.06 12.23 12.23 0 0 0-6.47-1.8h-.16c-3.57 0-7.07 1.5-9.37 2.74-1.5.82-2.7 1.64-3.43 2.17l.35.22c.74-.5 1.76-1.17 2.98-1.83 2.32-1.26 5.85-2.76 9.47-2.76h.16c2.5.03 4.84.67 6.59 1.82a6.28 6.28 0 0 1 2.36 2.58Zm-18.59-2.37a31.33 31.33 0 0 0-3.5 2.22l-.33-.22c.55-.42 2-1.49 3.94-2.54 2.3-1.25 5.8-2.74 9.37-2.74h.16c2.45.03 4.75.67 6.47 1.79a5.57 5.57 0 0 1 2.55 3.29 6.18 6.18 0 0 0-2.43-2.74 12.44 12.44 0 0 0-6.59-1.82c-3.67-.05-7.28 1.48-9.64 2.76Zm-3.72 2.38-.32-.21-.03.03-.26.19.31.21a21 21 0 0 1 .3-.22Zm-.8-.12.3-.22-.32-.21-.3.2.31.23Zm.2-.6.3.21c.51-.4 2-1.5 4.02-2.6 2.36-1.28 5.96-2.8 9.64-2.76 2.5.03 4.84.67 6.6 1.82a6.26 6.26 0 0 1 2.39 2.65 5.62 5.62 0 0 0-2.53-3.19 12.2 12.2 0 0 0-6.46-1.78c-3.62-.04-7.19 1.47-9.52 2.73a29 29 0 0 0-4.44 2.93Zm1.13 1.06-.35-.22-.3.23.34.22.3-.23Zm21.68-.07-.06.15a6.48 6.48 0 0 0-2.2-2.28 12.43 12.43 0 0 0-6.59-1.82c-3.67-.05-7.27 1.48-9.63 2.76-.93.5-1.76 1.01-2.42 1.46l-.38-.24c.72-.5 1.72-1.15 2.9-1.79 2.3-1.25 5.8-2.74 9.37-2.74h.15c2.47.03 4.77.67 6.49 1.8a5.95 5.95 0 0 1 2.37 2.7Zm-46.96 0 .06.16c1.28-2.4 4.74-4.11 8.79-4.11h.2c.53 0 2 .07 4.33.82 2.3.74 4.74 1.9 7.3 3.47l.41-.26c-6.94-4.35-11.2-4.58-12.04-4.58h-.2c-4.25 0-7.84 1.92-8.85 4.5Zm21.84.33-.33-.21.37-.24.33.21-.37.24Zm.55-.36-.32-.22.35-.23.3.2.01.01-.34.24Zm-9-5.29c2.8.9 5.82 2.43 9 4.55l.33-.22c-7.9-5.38-12.77-5.66-13.67-5.66h-.19c-4.52 0-8.27 2.16-9 4.98 1.13-2.58 4.73-4.47 8.99-4.47l.2-.01c.53 0 2 .08 4.34.83Zm9.54 4.5-.31.2.24.17.06.05.3-.21-.29-.22Zm-1.1.42c.13-.07.24-.15.36-.23-7.59-5.04-12.26-5.3-13.14-5.3h-.19c-4.57 0-8.37 2.21-9.03 5.08 1.08-2.62 4.71-4.56 9.02-4.56h.2c.53 0 2 .07 4.33.82a36.3 36.3 0 0 1 8.46 4.2Zm1.9.15-.3-.21-.3.21.3.22.3-.22Zm.52.36-.3.23a39 39 0 0 1-.33-.23l.31-.22.32.22Zm-1.65 0 .33-.23.31.23-.32.22a72.66 72.66 0 0 0-.32-.22Z" fill="#8EC9E9" /></svg>