<?xml version='1.0' encoding='utf-8'?>
<!-- by TradeStack -->
<svg fill="none" viewBox="0 0 56 56" xmlns="http://www.w3.org/2000/svg"><path fill="#F0F3FA" d="M0 0h56v56H0z" /><path d="M4 24a2.997 2.997 0 0 0 3-2.993V21H4v3ZM26 27h3v-3a3 3 0 0 0-3 3ZM4 26.847V32h3v-8c-1.653-.004-2.996 1.268-3 2.84v.007ZM26 24h-3v8h3v-8ZM35 28.3c0 .908-.047 1.7-1 1.7-.954 0-1-.824-1-1.666V24h-3v5.057c0 .857.082 1.479.696 2.12.597.604 1.346.823 2.17.823 1.009 0 1.505-.176 2.134-1v1h3v-8h-3v4.3ZM13.136 24c-1.009 0-1.507.303-2.136 1.127V24H8v8h3v-4.3c0-.907.046-1.7 1-1.7s1 .826 1 1.669V32h3v-5.056c0-.858-.082-1.48-.696-2.12-.595-.605-1.34-.824-2.168-.824ZM21 21h-3v3h-1v2h1v3.275c0 1.928 1.008 2.694 2.969 2.723.472 0 .574-.062 1.031-.184v-1.873l-.298.059c-.64 0-.719-.47-.702-.982V26h1v-2h-1v-3ZM51.577 25.01c-.471-.68-1.331-1.008-2.158-1.008a2.896 2.896 0 0 0-2.6 1.412c-.607-.997-1.434-1.412-2.6-1.412-1.04 0-1.477.336-2.219 1.046V24h-3v8h3v-4.072c0-.853-.067-1.884 1-1.928.893 0 1 .798 1 1.532V32h3v-4.072c0-.856-.056-1.928 1-1.928 1.078 0 1 1.158 1 1.94V32h3v-5.249c-.001-.593-.069-1.224-.423-1.74Z" fill="#000" /></svg>