<!-- by TradeStack --><svg width="56" height="56" viewBox="0 0 56 56" xmlns="http://www.w3.org/2000/svg"><path fill="#F0F3FA" d="M0 0h56v56H0z"/><path d="M21.04 21.93a36.67 36.67 0 0 0-2.35 5c4.8 1.5 9.71 2.16 14.74 2.01.34-.01.68-.04 1.03-.09.07-.01.1-.05.07-.12-2.07-6.47-5.67-12.4-9.87-17.7-.04-.04-.08-.04-.12 0a61.79 61.79 0 0 0-8.86 14.75c-.02.06 0 .1.06.13l.98.38c.06.02.1 0 .14-.06l1.46-2.86a.06.06 0 0 1 .08-.02.06.06 0 0 1 .02.07l-1.28 2.88c-.03.07-.01.12.06.15l1.15.4a42.2 42.2 0 0 1 2.49-5.02.06.06 0 0 1 .05-.03 1 1 0 0 0 .06 0 .08.08 0 0 1 .08.04.09.09 0 0 1 0 .09Zm3.95-5.05a.1.1 0 0 0-.02.03l-2.5 5.56a.1.1 0 0 1-.18.02.1.1 0 0 1-.02-.07l.05-3.5a.1.1 0 0 0-.09-.1.1.1 0 0 0-.04.01l-2.24 1.02a.09.09 0 0 1-.1-.02.09.09 0 0 1-.01-.1 80.12 80.12 0 0 1 4.68-7.2c.06-.1.13-.09.2 0l4.38 6.71a.08.08 0 0 1 0 .1.08.08 0 0 1-.11.02l-3.89-2.5a.1.1 0 0 0-.11.02Zm8.45-.7a29.58 29.58 0 0 1 3.23 4.41.07.07 0 0 1-.06.06h-.04l-1.6-.91a.06.06 0 0 0-.07.02v.03l.3 2.7c.04.37-.04.4-.25.1l-2-2.94a.09.09 0 0 0-.07-.04.08.08 0 0 0-.07.04l-.59.91a.18.18 0 0 0 0 .2 36.35 36.35 0 0 1 3.1 7.9c0 .03.02.06.05.08.02.01.05.02.08.01 1.9-.35 3.53-.68 5.18-1.76.06-.04.07-.09.05-.15a52.02 52.02 0 0 0-7.23-11.96c-.06-.06-.12-.06-.17.01l-2.39 3.2a.16.16 0 0 0-.01.2l.26.46c.04.07.08.07.13 0l2.02-2.57c.05-.06.1-.07.15 0Z" fill="url(#atxuuiokw)"/><path d="M18.11 27.47c-1.15 3-2.12 6.56-1.14 9.74a8.6 8.6 0 0 0 7.3 6.14c3.4.33 6.13-.95 8.21-3.85.03-.04.02-.07-.01-.1-.04-.02-.08-.02-.1.02-3 3.35-6.93 4.15-10.93 2.04a.07.07 0 0 1-.03-.11l.04-.03c1.49-.57.9-2.58 0-3.42-1.09-1.03-2.6-.6-2.6 1.03a.05.05 0 0 1-.04.05.05.05 0 0 1-.05-.03l-.72-1.18c-.06-.1-.04-.12.07-.1.34.11.62.06.84-.14.96-.87-.57-2.82-1.5-2.01a.1.1 0 0 1-.16-.06c-.38-2.68.25-5.53 1.12-7.85 6.16 1.96 12.55 3.08 18.91 2.25 1.97-.25 5.39-1.34 6.18-3.55.56-1.54-.36-3.28-1.49-4.42v-.05c.02-.03.03-.05.07-.02 1.64 1.34 3.91 4 2.45 6.34a4.72 4.72 0 0 1-2.64 2.02.17.17 0 0 0-.11.2c.29 1.08.46 2.2.52 3.33a9.2 9.2 0 0 1-7.37 9.66.31.31 0 0 1-.22-.02c-.06-.04-.06-.07.01-.1 1.92-.66 3.5-2.38 4.34-4.23v-.03a.05.05 0 0 0-.05-.04 7.7 7.7 0 0 1-5.92 3.08.2.2 0 0 0-.15.07c-.6.64-1.23 1.3-1.9 1.8-1.24.9-3.7 2.23-5.29 2.09-.06 0-.06-.02 0-.03a9.76 9.76 0 0 0 6.77-5.66.06.06 0 0 0-.07-.04l-.03.02a9.35 9.35 0 0 1-10.02 3.28c-4.56-1.31-7.23-5.66-6.96-10.38.08-1.58.48-3.36 1.17-5.33.05-.14.03-.3-.14-.33a.16.16 0 0 0-.16.09c-1.3 2.95-2.38 6.62-2.04 9.87.06.55.25 1.2.4 1.79.06.24.03.26-.1.03-.77-1.42-.9-3.52-.83-5.11.14-2.8.72-4.71 1.49-7.1.02-.07 0-.11-.06-.15-2.15-1.06-4.5-2.46-6.15-4.21-.03-.03-.03-.05 0-.07.03-.01.06 0 .08.02a30.26 30.26 0 0 0 9.01 4.79Zm17.05 4.1a13.17 13.17 0 0 1-.16 6.57.05.05 0 0 0 .1-.01c.97-2.14.95-4.29.79-6.6-.01-.09-.06-.13-.14-.13h-.47c-.1 0-.14.06-.12.17Z" fill="#22BCE4"/><g opacity=".7"><circle cx="27.5" cy="35.5" r="5.5" fill="#85D5EE"/><circle cx="27.5" cy="35.37" r="4.5" fill="#A7E2F2"/><circle cx="27.4" cy="35.5" r="3" fill="#C5EEF8"/></g><defs><linearGradient id="atxuuiokw" x1="22.25" y1="15.14" x2="32.28" y2="27.99" gradientUnits="userSpaceOnUse"><stop stop-color="#88BB63"/><stop offset="1" stop-color="#D7ED75"/></linearGradient></defs></svg>