<?xml version='1.0' encoding='utf-8'?>
<!-- by TradeStack -->
<svg width="56" height="56" viewBox="0 0 56 56" xmlns="http://www.w3.org/2000/svg"><path fill="#3EC0CD" d="M0 0h56v56H0z" /><path d="M40.96 36.47a1.85 1.85 0 0 0 3.24-.3c.4-.85.04-1.54-.5-2.32L32.61 17.72a9.83 9.83 0 0 0-1.66-2c-2.35-1.86-5.67-1.07-7.29 1.35-3.76 5.61-7.55 11.2-11.37 16.79-.6.88-.86 1.54-.34 2.48.14.26.35.53.36.82.03.5-.3.81-.69.84-.3.02-.64-.13-.87-.45-1.25-1.73-.8-3.28.3-4.89 3.67-5.33 7.32-10.67 10.97-16.02.68-1 1.25-1.7 1.7-2.09a6.6 6.6 0 0 1 8.53.02c.42.37.9.95 1.47 1.76L45.44 33.4c.9 1.3.66 3.22-.3 4.36a3.48 3.48 0 0 1-5.13.22c-.14-.14-.49-.61-1.04-1.42l-8.5-12.34c-.97-1.42-2.54-2.04-4.01-.98-.34.24-.71.66-1.13 1.27l-6.75 9.84c-.77 1.12.14 2.67 1.36 2.85.92.13 1.47-.36 2-1.13l3.3-4.82a3.5 3.5 0 0 1 5.33-.5c.15.14.62.8 1.43 1.95l2.38 3.46c.38.56.77.94.39 1.5a.75.75 0 0 1-.68.34.96.96 0 0 1-.8-.44l-3.47-5.02c-.3-.43-.58-.71-.85-.86-.69-.37-1.7-.33-2.2.39l-3.16 4.56a7.27 7.27 0 0 1-1.46 1.7c-.63.44-1.3.68-1.96.67a3.71 3.71 0 0 1-3.36-4.77c.12-.4.46-1 1.02-1.81l6.8-9.8c1.35-1.94 4.24-2.12 6.02-.77.35.27.74.72 1.17 1.34 3.05 4.42 6.09 8.84 9.12 13.28Z" fill="#F6FAFC" /></svg>