<!-- by TradeStack --><svg width="56" height="56" viewBox="0 0 56 56" xmlns="http://www.w3.org/2000/svg"><path fill="url(#aefaceqj4)" d="M0 0h56v56H0z"/><path d="M16.25 18h1.94c4.17.8 6.9 4 9.3 7.39a.54.54 0 0 0 .36.21.5.5 0 0 0 .4-.13 59.86 59.86 0 0 1 5.49-4.5c5.32-3.87 13.03-3.3 14.26 4.65v1.85c-2.33 10.75-13.66 13.07-20.53 5.42-.35-.4-.72-.41-1.1-.04-3 2.92-6.16 4.63-9.46 5.15h-2.2c-3.98-.65-6.22-3.14-6.71-7.48V28.1c.88-5.59 3.63-8.96 8.25-10.1Zm11.22 9.94a33.66 33.66 0 0 0-4.66-5.76c-8.78-8.66-17.87 6.6-11.11 12.8 4.47 4.1 11.59-.8 15.05-4.5a.35.35 0 0 1 .26-.1c.05 0 .1 0 .14.02l.12.09c13.99 15.67 26.12-7.6 14.87-10.12-5.54-1.23-10.68 3.92-14.18 7.61a.32.32 0 0 1-.25.1.33.33 0 0 1-.24-.14Z" fill="#fff"/><path d="M20.17 23.16a26.71 26.71 0 0 1 5.8 6.2c.11.17.09.33-.07.46-3.37 2.77-11 8.6-14.24 2.05-2.73-5.53 2.96-13 8.5-8.7Zm-6.83 2.53c-3.13 5.25 2.1 9.52 6.72 6.54 1.24-.8 2.48-1.66 3.72-2.58.15-.12.17-.25.07-.4-2.4-3.57-7.27-9-10.5-3.56ZM42.5 23.14c4.35 3.12 2.23 9.19-2.35 10.6-4.67 1.43-8.03-1.35-11.36-4.4-.17-.16-.17-.32-.03-.49 3.2-3.69 9.07-9.07 13.73-5.71Zm-.14 7.28c3.84-4.9-2.29-8.63-6.51-5.79a30.53 30.53 0 0 0-5 4.2c-.14.15-.13.3.03.42 3.48 2.81 8.1 5.49 11.48 1.17Z" fill="#fff"/><defs><linearGradient id="aefaceqj4" x1="10.42" y1="9.71" x2="68.15" y2="76.02" gradientUnits="userSpaceOnUse"><stop stop-color="#1A1E21"/><stop offset="1" stop-color="#06060A"/></linearGradient></defs></svg>