<?xml version='1.0' encoding='utf-8'?>
<!-- by TradeStack -->
<svg width="56" height="56" viewBox="0 0 56 56" xmlns="http://www.w3.org/2000/svg"><path fill="#F0F3FA" d="M0 0h56v56H0z" /><path d="M36 27.5a7.8 7.8 0 0 1-.72 3.5c-.92 1.85-2.7 3-4.78 3-3.6 0-5.5-3.2-5.5-6.5s1.9-6.5 5.5-6.5 5.5 3.2 5.5 6.5Zm-2 0c0-2.06-1.1-4.44-3.5-4.44S27 25.43 27 27.5c0 2.07 1.09 4.44 3.5 4.44 2.4 0 3.5-2.37 3.5-4.44ZM23 21v13h-1.96l-5.73-8.86H15V34h-2V21h1.97l5.73 8.86h.3V21h2ZM10 21v13H8V21h2Z" /><path fill-rule="evenodd" d="M48.28 31a7.8 7.8 0 0 0 .72-3.5c0-3.3-1.9-6.5-5.5-6.5S38 24.2 38 27.5s1.9 6.5 5.5 6.5c.8 0 1.54-.17 2.22-.48L46.78 35H49l-1.8-2.5c.43-.43.8-.93 1.08-1.5Zm-2.32-.24A5.32 5.32 0 0 0 47 27.5c0-2.06-1.1-4.44-3.5-4.44S40 25.43 40 27.5c0 2.07 1.09 4.44 3.5 4.44.35 0 .68-.05.98-.14l-1.3-1.8h2.23l.55.76Z" /></svg>