<!-- by TradeStack --><svg width="56" height="56" viewBox="0 0 56 56" xmlns="http://www.w3.org/2000/svg"><path fill="#F0F3FA" d="M0 0h56v56H0z"/><circle cx="28" cy="33" r="5" fill="#231F20"/><path d="M19 28h3v10h-3l-3-4.7V38h-3V28h3l3 4.7V28ZM33 28h3.53l1.31 5.88L39.21 28h2.58l1.37 5.88L44.47 28H48l-3.39 10H41.7l-1.2-5.1-1.2 5.1H36.4L33 28Z" fill="#231F20"/><path d="M29.36 34.64c.4-.39.64-.93.64-1.54 0-1.16-.9-2.1-2-2.1s-2 .94-2 2.1a2.05 2.05 0 0 0 2.33 2.07l1.29.83-.26-1.36Z" fill="#648F40"/><path d="M24 23c0-.55.1-1.07.32-1.55a4.15 4.15 0 0 1 2.14-2.13 3.83 3.83 0 0 1 3.05-.01 4.15 4.15 0 0 1 2.16 2.12 3.8 3.8 0 0 1 .01 3.11 4.17 4.17 0 0 1-2.14 2.14 3.87 3.87 0 0 1-4.36-.85A3.9 3.9 0 0 1 24 23Zm.5 0a3.48 3.48 0 0 0 1.02 2.5c.32.32.7.57 1.12.76a3.39 3.39 0 0 0 2.7 0 3.67 3.67 0 0 0 1.88-1.89 3.33 3.33 0 0 0 0-2.75A3.55 3.55 0 0 0 28 19.47c-.47 0-.92.1-1.34.28A3.59 3.59 0 0 0 24.49 23ZM23 19v.48h-2.53v3.04h2.46V23h-2.46v4H20v-8h3ZM18 27l-6.5-6.82V27H11v-8l6.5 6.77V19h.5v8ZM9 27v-8h.5v8H9Z" fill="#231F20"/></svg>