<?xml version='1.0' encoding='utf-8'?>
<!-- by TradeStack -->
<svg width="56" height="56" viewBox="0 0 56 56" xmlns="http://www.w3.org/2000/svg"><path fill="#F0F3FA" d="M0 0h56v56H0z" /><path d="M17.23 16.17A16.08 16.08 0 0 0 12 28c0 8.69 7.23 16 16 16 1.51 0 3-.2 4.43-.62l-2.83-4.5c-.52.08-1.06.12-1.6.12-6.29 0-11-4.72-11-11 0-3.16 1.3-6.03 3.38-8.1-1.53-.59-3.04-2.03-3.15-3.73Z" fill="url(#arqs2i5dh)" /><path d="M21 13h-.2a2.99 2.99 0 0 0-2.8 3 3 3 0 1 0 3-3Z" fill="url(#brqs2i5dh)" /><path d="M30 28h-2v2h2v-2Z" fill="url(#crqs2i5dh)" /><path d="M28 32.2v.8h2v-2h-2v1.2Z" fill="url(#drqs2i5dh)" /><path d="M34 29h-2v2h2v-2Z" fill="url(#erqs2i5dh)" /><path d="M33 33.2v.8h2v-2h-2v1.2Z" fill="url(#frqs2i5dh)" /><path d="M44 28c0-8.63-7.29-16-16-16-1.3 0-2.58.15-3.82.46 1.32 1.01 1.94 3.14 1.58 4.76.73-.14 1.47-.22 2.24-.22 6.29 0 11 4.71 11 11 0 3.4-1.08 6.44-3.45 8.53L34.7 35H32v-2h-1v1h-2.7l6.82 10h5.58l-2.52-3.66c3.65-3 5.81-7.6 5.81-12.34Z" fill="url(#grqs2i5dh)" /><defs><linearGradient id="arqs2i5dh" x1="22.21" y1="44" x2="22.21" y2="16.17" gradientUnits="userSpaceOnUse"><stop stop-color="#2B3990" /><stop offset="1" stop-color="#27AAE1" /></linearGradient><linearGradient id="brqs2i5dh" x1="21" y1="19" x2="21" y2="13" gradientUnits="userSpaceOnUse"><stop stop-color="#2B3990" /><stop offset="1" stop-color="#27AAE1" /></linearGradient><linearGradient id="crqs2i5dh" x1="29" y1="30" x2="29" y2="28" gradientUnits="userSpaceOnUse"><stop stop-color="#F15A29" /><stop offset="1" stop-color="#FBB040" /></linearGradient><linearGradient id="drqs2i5dh" x1="29" y1="33" x2="29" y2="31" gradientUnits="userSpaceOnUse"><stop stop-color="#F15A29" /><stop offset="1" stop-color="#FBB040" /></linearGradient><linearGradient id="erqs2i5dh" x1="33" y1="31" x2="33" y2="29" gradientUnits="userSpaceOnUse"><stop stop-color="#F15A29" /><stop offset="1" stop-color="#FBB040" /></linearGradient><linearGradient id="frqs2i5dh" x1="34" y1="34" x2="34" y2="32" gradientUnits="userSpaceOnUse"><stop stop-color="#F15A29" /><stop offset="1" stop-color="#FBB040" /></linearGradient><linearGradient id="grqs2i5dh" x1="34.09" y1="44" x2="34.09" y2="12" gradientUnits="userSpaceOnUse"><stop stop-color="#F15A29" /><stop offset="1" stop-color="#FBB040" /></linearGradient></defs></svg>