<?xml version='1.0' encoding='utf-8'?>
<!-- by TradeStack -->
<svg width="56" height="56" viewBox="0 0 56 56" xmlns="http://www.w3.org/2000/svg"><path fill="#000924" d="M0 0h56v56H0z" /><path d="M44 28c0-1.3-.16-2.57-.45-3.79l-6.32-.52 5.13-2.77c-.77-1.52-1.82-3-3.01-4.2l-5-.46 1.83-2.02A15.76 15.76 0 0 0 28 12c-4.94 0-9.18 2.18-12.17 5.62L20 20.09l-6.23.62a16.7 16.7 0 0 0-1.39 3.8l6.14 2.93-6.52.63c-.01 1.3.16 2.37.45 3.63l5.46 2.97-4.23.42a14.96 14.96 0 0 0 3.07 4.28l4.76 2.22-1.68.17a15.96 15.96 0 0 0 20.35-3.38l-3.23-.3 5.18-2.58a15.62 15.62 0 0 0 1.5-4l-6.4-.6L44 28Z" fill="#124F5D" /><path d="M31.57 18.9c.4-.09-6.3-.57-11.38-.94l-4.38-.33a15.96 15.96 0 0 1 20.35-3.4l-.36.03c-5.08.37-11.78.86-11.38.94.34.07 7.85.82 14.93 1.52a16.1 16.1 0 0 1 3 4.2c-1.08.1-2.66.21-4.43.35-5.89.44-13.9 1.05-13.5 1.13.41.08 11.15 1.13 19.15 1.91.28 1.19.43 2.42.43 3.69-2 0-3.97.3-5.95.47-5.8.44-13.72 1.05-13.32 1.13.4.08 10.99 1.13 18.88 1.9a15.9 15.9 0 0 1-1.48 4.01c-.53.06-2.89.22-5.71.41-5.36.37-12.42.86-12 .94.36.07 8.3.82 15.75 1.52a15.96 15.96 0 0 1-20.34 3.38c5.98-.6 11.45-1.15 11.74-1.2.4-.09-6.3-.57-11.38-.94h-.01l-3.44-.26a16.05 16.05 0 0 1-3.1-4.28c7.72-.76 17.23-1.71 17.62-1.79.4-.08-7.5-.69-13.31-1.13h-.01l-5.5-.43a16.03 16.03 0 0 1-.44-3.69c8.04-.78 19.15-1.86 19.57-1.95.4-.08-7.61-.69-13.49-1.13l-5.7-.44c.3-1.35.77-2.63 1.38-3.82 7.75-.77 17.42-1.73 17.8-1.8Z" fill="#0898C4" /><path d="M20.19 17.96c5.08.37 11.78.86 11.38.94-.33.07-7.26.76-14.06 1.43a12.95 12.95 0 0 0-2.1 4.44l2.66.2h.01c5.89.44 13.9 1.05 13.5 1.13-.38.07-9.03.93-16.58 1.66v.25a13 13 0 0 0 .62 3.98l2.32.18h.01c5.8.44 13.71 1.05 13.31 1.13-.33.07-7.46.78-14.37 1.46a13.06 13.06 0 0 0 5.62 5.03c4.08.3 8.36.63 9 .74 1.77-.5 3.4-1.36 4.78-2.5-6.1-.58-11.57-1.1-11.87-1.16-.42-.08 6.64-.57 12-.94.7-.05 1.37-.1 2-.13 1-1.35 1.75-2.9 2.18-4.58a1345.3 1345.3 0 0 1-15.87-1.61c-.4-.08 7.52-.69 13.32-1.13l1.86-.19 1.09-.1V28a13 13 0 0 0-.63-4c-7.4-.72-15.59-1.53-15.95-1.6-.4-.08 7.6-.69 13.47-1.13h.03l.1-.01 1.05-.08c-1.37-2.22-3.39-4-5.8-5.07-3.56-.35-6.63-.66-8.04-.82a12.95 12.95 0 0 0-5.45 2.63l.4.03ZM27.49 41a13.27 13.27 0 0 0 3.73-.4c-.62.08-1.96.22-3.73.4Z" fill="#2CA5CF" /><path d="M21.3 18.04c4.9.35 10.64.78 10.27.85-.3.06-6.35.67-12.68 1.3-1.14 1.33-2 2.9-2.47 4.64l1.65.13h.01c5.89.45 13.9 1.05 13.5 1.13-.36.07-8.28.85-15.58 1.56a12.04 12.04 0 0 0 .7 4.41l1.24.1h.01c5.8.45 13.71 1.05 13.31 1.13-.31.07-6.72.7-13.25 1.36a11.99 11.99 0 0 0 16.8 3.23 721.5 721.5 0 0 1-10.39-1.02c-.42-.08 6.64-.57 12-.94l.63-.04a11.97 11.97 0 0 0 2.54-4.77c-7.05-.7-14.52-1.44-14.86-1.51-.4-.08 7.52-.69 13.32-1.13l1.86-.18.09-.01a12.08 12.08 0 0 0-.72-4.39c-7.09-.69-14.52-1.42-14.86-1.49-.4-.08 7.6-.69 13.47-1.13h.04a11.99 11.99 0 0 0-16.62-3.23Z" fill="#53B0D8" fill-opacity=".8" /><path d="M19.31 27.31s12.04-1.16 12.32-1.22c.26-.05-9.85-.86-13.88-1.17v-2.54h6.63c.14.1 10.04 1.03 12.51 1.28l-.5 4.93c-4.47.35-11.9.93-11.6.98.26.06 7.93.9 13.05 1.4-.46 1.18-1.59 2.76-1.59 2.76l-16-1.42-.94-5Z" fill="url(#axf1eqefa)" fill-opacity=".9" /><path d="M23.07 18.17c4.4.32 8.82.66 8.5.72-.28.06-5.41.58-11.16 1.15a11 11 0 0 0-2.97 4.87l.63.05h.01c5.89.45 13.9 1.05 13.5 1.13-.35.07-7.57.78-14.57 1.47a11.08 11.08 0 0 0 .8 4.59h.13v.01h.01c5.8.45 13.71 1.05 13.31 1.13-.3.06-5.99.64-12.11 1.24a10.98 10.98 0 0 0 14 3.2c-4.72-.46-8.48-.82-8.73-.87-.4-.07 5.93-.52 11.15-.88a11 11 0 0 0 3.01-4.97 1089 1089 0 0 1-13.85-1.41c-.4-.08 7.52-.69 13.32-1.13l.94-.09L39 28c0-1.5-.3-2.92-.84-4.22a1085.1 1085.1 0 0 1-13.74-1.38c-.38-.08 6.63-.61 12.35-1.05a10.98 10.98 0 0 0-13.7-3.18Z" fill="#89CAE9" fill-opacity=".35" /><path d="M31.57 18.9c.4-.09-6.3-.57-11.38-.94l-4.38-.33a15.96 15.96 0 0 1 20.35-3.4l-.36.03c-5.08.37-11.78.86-11.38.94.34.07 7.85.82 14.93 1.52a16.1 16.1 0 0 1 3 4.2c-1.08.1-2.66.21-4.43.35-5.89.44-13.9 1.05-13.5 1.13.41.08 11.15 1.13 19.15 1.91.28 1.19.43 2.42.43 3.69v.07l-.07-.07c-.34.04-2.81.23-5.88.47-5.8.44-13.72 1.05-13.32 1.13.4.08 10.99 1.13 18.88 1.9a15.9 15.9 0 0 1-1.48 4.01c-.53.06-2.89.22-5.71.41-5.36.37-12.42.86-12 .94.36.07 8.3.82 15.75 1.52a15.96 15.96 0 0 1-20.34 3.38c5.98-.6 11.45-1.15 11.74-1.2.4-.09-6.3-.57-11.38-.94h-.01l-3.44-.26a16.04 16.04 0 0 1-3.1-4.28c7.72-.76 17.23-1.71 17.62-1.79.4-.08-7.5-.69-13.31-1.13h-.01l-5.5-.43a16.04 16.04 0 0 1-.44-3.69c8.04-.78 19.15-1.86 19.57-1.95.4-.08-7.61-.69-13.49-1.13l-5.7-.44c.3-1.35.77-2.63 1.38-3.82 7.75-.77 17.42-1.73 17.8-1.8Z" fill="#63B7DD" fill-opacity=".2" /><defs><linearGradient id="axf1eqefa" x1="17.05" y1="28.05" x2="43.82" y2="28.05" gradientUnits="userSpaceOnUse"><stop offset=".1" stop-color="#fff" stop-opacity="0" /><stop offset=".34" stop-color="#fff" /><stop offset=".58" stop-color="#fff" stop-opacity=".82" /><stop offset=".75" stop-color="#fff" stop-opacity="0" /></linearGradient></defs></svg>