<!-- by TradeStack --><svg width="56" height="56" viewBox="0 0 56 56" xmlns="http://www.w3.org/2000/svg"><path fill="#F0F3FA" d="M0 0h56v56H0z"/><path d="M17.65 22c1.11 0 1.65.66 1.65.66-2.61 4.28-3.3 8.21-3.3 13.15C16 39.2 17 41 17 41s-1.34-.16-1.97-.73c-.37-.33-1.03-2.24-1.03-5.74C14 29.73 15.44 22 17.65 22ZM26 21.5s-2.87 4.1-3.56 8.34c-.08.51-.15.97-.2 1.39.97-1.65 3.1-4.23 6.82-4.23 2.92 0 3.94 1.43 3.94 3.28C33 36 28.17 39 23.06 39c-2.7 0-4.06-1.35-4.06-1.35l.63-.35.15.08c.4.25 1.03.62 3.6.62 2.88 0 7.62-2.77 7.62-6.7 0-.7-.29-2.3-2.22-2.3-3.88 0-5.63 3.28-6.78 6 0 0-.88-.03-1.44-.51-.56-.5-.56-.76-.56-.76 0-.84.07-1.68.16-2.47.52-4.52 2.73-10.26 4-10.26 1.26 0 1.84.5 1.84.5Z" fill="#6ABF25"/><path d="M20 15v1s-4 .13-4 1.81c0 1.19 2.07 1.2 4.55 1.19C30.25 19 44 16 44 16c-5.7 2.63-18.73 5-24.9 5-3.57 0-7.1-.4-7.1-2.69 0-1.18 1.16-2.07 2.3-2.56C15.92 15 20 15 20 15Z" fill="#B7DE9E"/><path fill-rule="evenodd" d="M41.82 32.95C40.16 34.93 38.06 36 36.44 36c-.6 0-1.14-.2-1.57-.57a2.68 2.68 0 0 1-.87-2.09c0-1.55.71-3.54 2.17-5.29 1.66-1.98 3.77-3.05 5.39-3.05.6 0 1.14.2 1.56.57.6.52.87 1.33.88 2.27v1.57c0 1.7.14 4.6 1.62 4.6 1.36 0 1.95-1.01 1.95-1.01l.43.4S46.92 35 45.22 35c-2.01 0-2.96-1.9-3.15-2.36l-.25.3Zm-.84-.75c-1.7 1.89-3.77 2.78-4.62 1.99-.25-.24-.37-.6-.36-1.03 0-1.03.72-2.5 1.9-3.82C39.22 27.9 40.77 27 41.79 27s1.22.7 1.22 1.5c0 .92-.7 2.24-2.02 3.7Z" fill="#6ABF25"/><circle cx="22.5" cy="15.5" r="1.5" fill="#6ABF25"/></svg>