<!-- by TradeStack --><svg width="56" height="56" viewBox="0 0 56 56" xmlns="http://www.w3.org/2000/svg"><path fill="#F0F3FA" d="M0 0h56v56H0z"/><path d="M19.7 34a3.9 3.9 0 0 1-1.98-3.43 3.97 3.97 0 0 1 1.86-3.37 3.75 3.75 0 0 1 1.92-.52v-.95a6.64 6.64 0 0 0-4.78 2.04A7.05 7.05 0 0 0 14.87 34h4.84Z" fill="#C62536"/><path d="M20.05 23.23 15.65 16v8L4.69 16.68l7.33 10.97H4l7.23 4.39L6.53 34H13c0-1.22.23-2.35.66-3.41l-2.7-1.01 3.81-.94-2.53-4.4 4.4 2.53.94-3.8 1 2.7a8.9 8.9 0 0 1 3.41-.66v-6.48l-1.95 4.7Z" fill="#F7D116"/><path d="M48.56 31.73h-1.05c-.3 0-.4-.04-.49.29l-.12.5c-.07.32.1.34.42.34.4 0 .95.02 1.06-.34l.18-.79ZM45.76 29h4.05s.5 0 .78.27c0 0 .41.4.41.98 0 0 0 .27-.09.69l-.5 2.16s-.05.25-.05.54c0 0 0 .16.05.36h-2.14s-.05-.18-.05-.38v-.11s-.24.49-.86.49h-1.29s-.55 0-.92-.29c0 0-.42-.33-.42-.94 0 0 0-.19.07-.45l.1-.48s.16-.69.5-.94c0 0 .3-.3.95-.3h2.07c.27 0 .43-.02.43-.36 0 0 0-.24-.47-.24h-2.15s-.65-.03-.94.16l.48-1.16Zm-4.65 0-.11.46s.14-.3.3-.39c0 0 .12-.07.44-.07h1.47s.54 0 .89.34c0 0 .34.34.34.94 0 0 0 .34-.1.8l-.46 2.02s-.06.26-.06.54c0 0 0 .17.06.36h-2.55s.28-.46.44-1.16l.5-2.22c.1-.4.13-.62-.35-.62h-.51c-.34-.04-.47.14-.54.45l-.61 2.65s-.06.26-.06.54c0 0 0 .17.06.36H37.7s.29-.48.44-1.16l.68-2.94s.05-.25.05-.54c0 0 0-.17-.06-.36h2.29Zm-3.08 0-.94 4.1s-.05.25-.05.54c0 0 0 .17.05.36h-2.55s.28-.46.45-1.16l.67-2.94s.06-.25.06-.54c0 0 0-.17-.06-.36h2.37Zm.51-2-.25 1h-2.18l.26-1h2.17Zm-3.04 2-.22 1h-1.75l-.71 3.1s-.07.26-.07.54c0 0 0 .17.07.36h-2.56s.29-.49.44-1.16l.66-2.84h-.98l.22-1h.98l.06-.27s.22-.73.3-.93c0 0 .16-.36.45-.55 0 0 .37-.25 1.2-.25h2.48l-.1 1.14s-.27-.14-.7-.14h-.64s-.35.01-.43.04c0 0-.16.02-.22.26l-.22.7h1.74Zm-9.16 1.4-.46 2.06s-.05.22-.05.28c0 0 0 .26.42.26h.64s.28.03.38-.04c0 0 .11-.08.18-.36l.45-1.94s.05-.22.05-.34c0 0 0-.32-.45-.32h-.55s-.3-.03-.4.04c0 0-.14.1-.2.37Zm-.27-1.4h2.7s.5 0 .77.17c0 0 .55.36.55 1.12 0 0 0 .25-.07.58l-.42 1.83s-.16.69-.5 1c0 0-.36.3-1.27.3h-2.68s-.44 0-.55-.02c0 0-.3-.04-.5-.22 0 0-.43-.38-.43-1.02 0 0 0-.16.07-.41l.5-2.2s.16-.71.7-.96c0 0 .35-.17 1.13-.17Zm-1.7-2s-.28.48-.44 1.16l-1.19 4.94s-.05.26-.05.54c0 0 0 .16.05.36h-2.7s.29-.48.44-1.16l1.2-4.95s.05-.24.05-.53c0 0 0-.16-.06-.36h2.7Z" fill="#231F20"/></svg>