<!-- by TradeStack --><svg width="56" height="56" viewBox="0 0 56 56" xmlns="http://www.w3.org/2000/svg"><path fill="#F0F3FA" d="M0 0h56v56H0z"/><path d="M21 12.5v12.25a7.72 7.72 0 0 1 14 0V12.5a16.95 16.95 0 0 0-14 0ZM43.9 22H37v-8.46A16.93 16.93 0 0 1 43.9 22Zm.64 2H37v18.46c4.84-3 8-8.35 8-14.46 0-1.35-.17-2.74-.46-4ZM35 31.25V43.5a16.93 16.93 0 0 1-14 0V31.24a7.71 7.71 0 0 0 14 0ZM19 42.46V24h-7.54c-.3 1.26-.46 2.65-.46 4 0 6.11 3.16 11.46 8 14.46ZM12.1 22a16.92 16.92 0 0 1 6.9-8.46V22h-6.9Z" fill="#17399C"/></svg>