<?xml version='1.0' encoding='utf-8'?>
<!-- by TradeStack -->
<svg width="56" height="56" viewBox="0 0 56 56" xmlns="http://www.w3.org/2000/svg"><path fill="#F0F3FA" d="M0 0h56v56H0z" /><path d="M51.9 28c0 2.77.1 6 .1 6h-1.53s.09-3.23.09-6c0-2.76-.1-6-.1-6H52s-.1 3.24-.1 6Zm-30.46 0c0 2.77.1 6 .1 6H20s.1-3.23.1-6c0-2.76-.1-6-.1-6h1.53s-.09 3.24-.09 6Zm26.12 1.95c-.97-1.4-1.6-2.34-1.97-2.9C47.1 25.39 49.7 22 49.7 22h-1.92s-1.24 2-3.03 4.07l-1.58 1.79c0-2.72.1-5.86.1-5.86h-1.54s.1 3.24.1 6c0 2.77-.1 6-.1 6h1.54s-.06-2.18-.08-4.27c.44-.5.96-1.1 1.44-1.62.34.46.84 1.19 1.58 2.3A25.5 25.5 0 0 1 48.22 34h1.9s-1-1.8-2.56-4.05m-12.48 2.9c-2.77 0-4.21-2.17-4.21-4.85 0-2.68 1.54-4.82 4.24-4.82S39.3 25.32 39.3 28s-1.49 4.86-4.21 4.86ZM35.06 22c-3.16 0-5.72 2.54-5.72 6 0 3.31 2.38 6 5.72 6 3.16 0 5.72-2.42 5.72-6 0-3.71-2.56-6-5.72-6Zm-4.54 1.12V22H22v1.12s0-.1 3.56-.12a239 239 0 0 1 .07 5c0 2.77-.1 6-.1 6h1.54s-.1-3.23-.1-6c0-1.66.03-3.94.06-5 3.49.01 3.39.12 3.5.12Z" /><path d="m13.18 25.53-.7-.7L15.28 22l.71.7-2.82 2.83Zm-4.24 0-.7-.7L11.05 22l.7.7-2.82 2.83Zm-4.24 0-.7-.7L6.82 22l.7.7-2.82 2.83Zm8.48 4.23-.7-.7 2.81-2.82.71.7-2.82 2.82Zm-4.24 0-.7-.7 2.82-2.82.7.7-2.82 2.82Zm-4.24 0-.7-.7 2.82-2.82.7.7-2.82 2.82ZM13.18 34l-.7-.7 2.81-2.83.71.7L13.18 34Zm-4.24 0-.7-.7 2.82-2.83.7.7L8.94 34ZM4.7 34l-.7-.7 2.82-2.83.7.7L4.7 34Z" fill="#E63D30" /></svg>