<?xml version='1.0' encoding='utf-8'?>
<!-- by TradeStack -->
<svg viewBox="0 0 56 56" xmlns="http://www.w3.org/2000/svg"><path fill="#F0F3FA" d="M0 0h56v56H0z" /><path d="M18 28a15.5 15.5 0 017.96-13.48 14.3 14.3 0 00-3.81-.52A14.07 14.07 0 008 28c0 7.73 6.33 14 14.15 14 1.33 0 2.62-.19 3.85-.53-4.76-2.65-8-7.68-8-13.47z" fill="#74B943" /><path fill-rule="evenodd" d="M20 28a14 14 0 1128 0 14 14 0 01-28 0zm5-3.46c0-.3-.2-.54-.5-.54s-.5.24-.5.54v6.93c0 .3.2.53.5.53s.5-.23.5-.53v-6.93zM45.2 24h-3.13c-.8 0-1.07.5-1.07 1.27v6.21c.02.3.2.52.5.52s.48-.23.5-.5v-2.75c0-.18.03-.25.23-.25h1.9c.28 0 .43-.2.43-.5 0-.25-.15-.5-.42-.5H42v-2c0-.31.08-.5.54-.5h2.63c.27 0 .39-.25.39-.5s-.12-.5-.37-.5zm-12.66 4c0 1.73 1.3 3.13 3.12 3.13 1.83 0 3.12-1.4 3.12-3.13a3.06 3.06 0 00-3.12-3.13 3.2 3.2 0 00-1.9.61 3.88 3.88 0 01.16 4.85c-.33-.23-.6-.52-.8-.86.22-.44.34-.94.34-1.47a3.06 3.06 0 00-3.11-3.13A3.07 3.07 0 0027.22 28c0 1.73 1.3 3.13 3.13 3.13a3.2 3.2 0 001.89-.6A3.82 3.82 0 0131.3 28c0-.9.29-1.69.77-2.33.33.23.6.52.8.86-.22.44-.34.94-.34 1.47zm.46-3.2c.73-.51 1.66-.8 2.66-.8 2.41 0 4.34 1.67 4.34 4s-1.93 4-4.34 4c-1 0-1.92-.29-2.66-.8-.73.51-1.65.8-2.65.8-2.42 0-4.35-1.67-4.35-4s1.93-4 4.35-4c1 0 1.92.29 2.65.8z" fill="#007C4C" /></svg>