<!-- by TradeStack --><svg width="56" height="56" viewBox="0 0 56 56" xmlns="http://www.w3.org/2000/svg"><path fill="#F0F3FA" d="M0 0h56v56H0z"/><path d="M25.66 14.42c-4.87 1.05-11.89 4.66-16.74 8.6-1.48 1.2-1.2 1.15 1.03-.16 7.5-4.42 16.03-6.8 21.67-6.04 4.6.62 6.46 2.07 5.74 4.49-.38 1.27-1.27 1.95-2.89 2.2-1.77.3-2.96-.49-2.97-1.94 0-.88.48-1.45 1.23-1.45.7 0 .94.67.53 1.44-.26.5-.24.57.13.43.58-.23.9-1.53.53-2.14-.67-1.07-3.08-.72-3.73.55-.7 1.36-.56 2.5.45 3.65 1.14 1.3 2.5 1.75 4.8 1.57 3.65-.3 6.56-2.83 6.56-5.7 0-2.44-2.8-4.6-7.08-5.5-2.7-.56-6.68-.56-9.26 0Zm-3.93 6.43c-3.93.73-8.3 2.87-11.38 5.57-1.6 1.4-1.15 1.3 1.32-.32 3.74-2.42 8.6-4.22 11.44-4.22h1.15l-.2 2.42c-.11 1.33-.35 5.39-.54 9.02L23.18 40h3c.19-.2-.48-17.97-.71-18.93-.19-.77-.67-.8-3.74-.22Zm6.55 5.06c0 .45-.2 3.19-.43 6.09-.23 2.9-.43 5.9-.43 6.67V40H30l-.07-1.33c-.1-.76-.39-4.13-.66-7.48-.27-3.35-.6-6.08-.74-6.08-.13 0-.24.36-.25.8Zm3.7 2.02c-.09.79-.3 3.41-.48 5.83-.17 2.42-.36 4.83-.43 5.35l-.12.89h1.45c1.34 0 1.43.02 1.3-.6-.07-.36-.35-3.23-.62-6.37-.52-6.1-.8-7.44-1.1-5.1ZM22 41.83V43h13v-2H22v.83Z" fill="#004B8D"/></svg>