<?xml version='1.0' encoding='utf-8'?>
<!-- by TradeStack -->
<svg width="56" height="56" viewBox="0 0 56 56" xmlns="http://www.w3.org/2000/svg"><path fill="#F0F3FA" d="M0 0h56v56H0z" /><path d="M4.85 24.52a.86.86 0 0 1-.78-.47.7.7 0 0 1 .18-.83.86.86 0 0 1 .6-.22.86.86 0 0 1 .77.47.7.7 0 0 1-.18.83.85.85 0 0 1-.6.22ZM5.64 25H4v5h1.64v-5ZM6 30v-5h1.56v.97h.06c.1-.28.28-.53.54-.7.27-.18.59-.28.91-.27.33 0 .65.09.92.27.25.16.42.42.49.7h.05c.1-.29.3-.54.56-.7.3-.18.64-.28 1-.27a1.65 1.65 0 0 1 1.18.45 1.67 1.67 0 0 1 .46 1.23V30H12v-2.96c.03-.42-.17-.78-.62-.76-.44-.02-.75.36-.73.77V30H9v-2.98c.02-.4-.2-.76-.63-.74a.7.7 0 0 0-.64.38.92.92 0 0 0-.09.42V30H6ZM14 32v-7h1.62v.93h.05c.08-.16.17-.31.3-.44.12-.15.28-.27.47-.35.22-.1.45-.15.7-.14 1.38 0 1.9 1.34 1.86 2.6.04 1.24-.48 2.41-1.88 2.4-.62.01-1.19-.14-1.45-.7h-.03V32H14Zm1.6-4.41c0 .24.04.48.12.7.06.19.17.35.32.47a.87.87 0 0 0 1.03 0 1 1 0 0 0 .32-.46c.08-.23.11-.47.1-.71.01-.24-.02-.48-.1-.7a1 1 0 0 0-.32-.47.8.8 0 0 0-.51-.16.82.82 0 0 0-.52.16 1 1 0 0 0-.32.46c-.08.23-.12.47-.11.7ZM22.08 30c-.48.01-.95-.1-1.38-.3a2.1 2.1 0 0 1-.89-.86 2.7 2.7 0 0 1-.3-1.34c-.02-.45.09-.9.3-1.3.2-.38.5-.68.88-.89.41-.21.87-.32 1.34-.3.34-.01.68.04 1 .15a2.15 2.15 0 0 1 1.29 1.25c.12.34.19.7.18 1.06V28h-4.43v-1h2.92a.98.98 0 0 0-.12-.48.83.83 0 0 0-.33-.3 1.1 1.1 0 0 0-.96 0 .9.9 0 0 0-.35.32.85.85 0 0 0-.13.45V28c0 .18.04.26.12.42.08.14.2.26.35.34a1.28 1.28 0 0 0 .93.07c.11-.04.22-.1.3-.17a.69.69 0 0 0 .2-.27l1.48.04c-.05.3-.2.6-.4.83-.22.24-.5.43-.82.55-.38.13-.78.2-1.18.19M26.83 30c-.37 0-.73-.1-1.04-.28-.32-.2-.58-.5-.74-.83-.2-.44-.3-.91-.28-1.39-.02-.48.08-.97.29-1.4a1.93 1.93 0 0 1 2.46-.96c.18.08.34.2.47.33.12.13.22.27.29.43h.03V23H30v7h-1.67v-.86h-.05c-.07.16-.17.3-.3.42-.13.14-.3.25-.47.32-.22.08-.45.12-.68.12Zm.57-1.2c.19 0 .37-.06.51-.17a1 1 0 0 0 .33-.45c.15-.44.15-.92 0-1.37a.97.97 0 0 0-.33-.44.85.85 0 0 0-.5-.16.83.83 0 0 0-.53.16.97.97 0 0 0-.32.45c-.14.44-.14.92 0 1.36a1 1 0 0 0 .32.45c.15.11.33.17.52.16M48.83 30c-.37 0-.73-.1-1.04-.28-.32-.2-.58-.5-.74-.83-.2-.44-.3-.91-.28-1.39-.02-.48.08-.97.29-1.4a1.93 1.93 0 0 1 2.46-.96c.18.08.34.2.47.33.12.13.22.27.29.43h.03V23H52v7h-1.67v-.86h-.05c-.07.16-.17.3-.3.42-.13.14-.3.25-.47.32-.22.08-.45.12-.68.12Zm.57-1.2c.19 0 .37-.06.51-.17a1 1 0 0 0 .33-.45c.15-.44.15-.92 0-1.37a.97.97 0 0 0-.33-.44.85.85 0 0 0-.5-.16.83.83 0 0 0-.53.16.97.97 0 0 0-.32.45c-.14.44-.14.92 0 1.36a1 1 0 0 0 .32.45c.15.11.33.17.52.16M31.84 24.52a.86.86 0 0 1-.78-.47.7.7 0 0 1 .19-.83.9.9 0 0 1 1.19 0 .72.72 0 0 1 .24.54.7.7 0 0 1-.24.54.85.85 0 0 1-.6.22ZM32.64 25H31v5h1.64v-5Z" fill="#0F1D40" /><path d="M33.46 30v-5H35v.97h.07c.1-.28.29-.53.55-.7a1.73 1.73 0 0 1 1.83 0c.25.16.42.42.48.7H38c.1-.29.3-.54.56-.7.3-.18.64-.28 1-.27.93-.03 1.5.74 1.45 1.68V30h-1.46v-2.96a.74.74 0 0 0-.2-.56.69.69 0 0 0-.5-.2.7.7 0 0 0-.54.21c-.14.16-.31.36-.3.57V30h-1.47v-2.98a.74.74 0 0 0-.2-.54.67.67 0 0 0-.5-.2.67.67 0 0 0-.64.38c-.07.13-.2.27-.19.42V30h-1.54Z" fill="#0D71C9" /><path d="M43.94 30c-.48.01-.96-.1-1.38-.3a2.1 2.1 0 0 1-.89-.86 2.7 2.7 0 0 1-.31-1.34c-.01-.45.1-.9.31-1.3.2-.38.5-.68.88-.89.4-.21.87-.32 1.34-.3.34-.01.68.04 1 .15a2.15 2.15 0 0 1 1.29 1.25c.12.34.18.7.18 1.06V28h-4.43v-1h2.92a.98.98 0 0 0-.12-.48.83.83 0 0 0-.33-.3 1.1 1.1 0 0 0-.96 0 .9.9 0 0 0-.35.32.85.85 0 0 0-.13.45v.9c0 .19.04.37.12.53.08.14.2.26.35.34a1.28 1.28 0 0 0 .93.07c.11-.04.21-.1.3-.17a.69.69 0 0 0 .2-.27l1.48.04c-.05.3-.2.6-.4.83-.23.24-.51.43-.83.55-.37.13-.77.2-1.17.19Z" fill="#09183B" /></svg>