<!-- by TradeStack --><svg width="56" height="56" viewBox="0 0 56 56" fill="none" xmlns="http://www.w3.org/2000/svg">
<rect width="56" height="56" fill="#F0F3FA"/>
<path fill-rule="evenodd" clip-rule="evenodd" d="M42.9955 28.1648C42.9244 30.8245 26.1852 46.9017 19.4023 44.8135C12.6194 42.7252 17.8921 23.588 18.9619 20.6223C20.0317 17.6565 22.7486 9.63704 27.826 11.2C32.9033 12.7629 43.2461 18.811 42.9955 28.1648Z" fill="#EE2839"/>
<path fill-rule="evenodd" clip-rule="evenodd" d="M26.3306 18.0002C28.2616 18.0118 46 19.8594 46 27.1415C46 34.4236 25.3581 35.9994 22.0818 35.9994C18.8055 35.9994 10 36.1697 10 30.7187C10 25.2678 18.0475 17.9508 26.3306 18.0002Z" fill="#0038A5"/>
<path fill-rule="evenodd" clip-rule="evenodd" d="M22 23H23V31H22V23Z" fill="#F0F3FA"/>
<path fill-rule="evenodd" clip-rule="evenodd" d="M31 23H32H35V24H32V27H35V28H32V31H31V28V27V24V23Z" fill="#F0F3FA"/>
<path fill-rule="evenodd" clip-rule="evenodd" d="M26 23H25V28V31H26V28H27.7442C28.9849 28 30 26.8975 30 25.55V25.45C30 24.1025 28.9849 23 27.7442 23H26ZM26 27H27.6465C28.3912 27 29 26.3388 29 25.5301V25.4699C29 24.6612 28.3912 24 27.6465 24H26L26 27Z" fill="#F0F3FA"/>
</svg>
