<?xml version='1.0' encoding='utf-8'?>
<!-- by TradeStack -->
<svg width="56" height="56" viewBox="0 0 56 56" xmlns="http://www.w3.org/2000/svg"><path fill="#F0F3FA" d="M0 0h56v56H0z" /><path d="M31.4 22.62 34.5 17l-2.98-4.55a.98.98 0 0 0-.81-.45h-5.88L22 17h-5.88a.98.98 0 0 0-.46.12.93.93 0 0 0-.35.33L12 22.62 15 28l-2.77 4.86a.89.89 0 0 0 0 .9L15 39h7l2.49 4.55c.08.14.2.25.34.33.15.08.3.12.47.12h5.88L34 39h6c.16 0 .33-.04.47-.12a.93.93 0 0 0 .34-.33L44 33.38 41 28l2.77-4.87a.89.89 0 0 0 0-.9L41 17h-6.5l2.93 5.23a.89.89 0 0 1 0 .9L34.5 28H41l-3.3 4.55a.93.93 0 0 1-.36.33.98.98 0 0 1-.46.12H31l2.99 6h-5.56a.96.96 0 0 1-.81-.45l-3.01-5.17L22 39l-3.43-5.23a.89.89 0 0 1 0-.9L21.34 28H15l3.3-4.55c.1-.14.21-.25.35-.33.15-.08.3-.12.47-.12H25l-3-6h5.9c.16 0 .32.04.46.12.14.08.26.19.35.33l2.7 5.17Z" fill="#000032" /></svg>