<?xml version='1.0' encoding='utf-8'?>
<!-- by TradeStack -->
<svg width="56" height="56" viewBox="0 0 56 56" xmlns="http://www.w3.org/2000/svg"><path fill="#F0F3FA" d="M0 0h56v56H0z" /><path d="M12 16.56v-.81c.5-1.37 2.5-.86 6.04 1.52a63.18 63.18 0 0 1 7.99 6.41c-.01.02-.02.02-.03.01-2.47-1.91-4.06-2.71-4.79-2.41-.4.16-.4.7 0 1.63.25.6.57 1.16.95 1.7a37.54 37.54 0 0 0 9.32 9.24c1.42.99 2.4 1.34 2.94 1.06.25-.13.35-.34.3-.63-.23-1.18-1.05-2.61-2.46-4.3-.02-.02-.02-.04 0-.05.02-.02.05-.02.06 0a70.34 70.34 0 0 1 6.06 7.45c1.56 2.23 2.42 4 2.6 5.34.09.66-.13 1.07-.67 1.22-.42.12-.93.06-1.52-.16-2.14-.8-4.74-2.44-7.8-4.93a98 98 0 0 1-11.3-10.82 62.89 62.89 0 0 1-5.87-7.6c-.8-1.21-1.4-2.5-1.82-3.87Z" fill="#84A7D6" /><path d="M33.94 21.98c2.39 2.38 4.75 3.9 5.26 3.37.52-.52-.99-2.87-3.37-5.25-2.39-2.38-4.75-3.9-5.26-3.38-.52.52.99 2.88 3.37 5.26ZM30 25.91c3.73 3.73 7.42 6.09 8.23 5.27.81-.8-1.55-4.49-5.28-8.2-3.73-3.73-7.41-6.1-8.22-5.28-.82.81 1.55 4.49 5.28 8.21Z" fill="#00ADAA" /></svg>