<?xml version='1.0' encoding='utf-8'?>
<!-- by TradeStack -->
<svg width="56" height="56" viewBox="0 0 56 56" xmlns="http://www.w3.org/2000/svg"><path fill="#F0F3FA" d="M0 0h56v56H0z" /><path d="M9 36h3V22l-3-2.5V36ZM20 36l9.54-.01.96-2.94H24L25 30h6L32 27h-6l1-3h6.06l.94-2.98c0-.03-9.2-.02-9.2-.02-1.67 4.98-4.8 15-4.8 15ZM37.5 21c1.31 4.76 3.2 10.29 4.67 15H50l-.9-3h-4.63L40.5 21h-3ZM35.5 24c-.5 1.67-1.55 6-1.55 6H37l-1.5-6ZM32.5 36h6l-.91-4h-4.1l-.99 4Z" fill="#565455" /><path d="M7.5 15.5c0 .4.67 1.5 1 2-.5 0-.5-.5-1-1s0 0 0-.5-.5 0-.5-.5 0-.5.5-.5.5.5 1 .5c.4 0 .5-.33.5-.5.5 0 .5.5 1.5 1 .8.4 1 .83 1 1-.5.5-.5 1.49 0 1.99s1 0 1-.5c0-.4.67-.5 1-.5 0 .8-.33 1-.5 1-.17 0-.4.1 0 .5.5.5.5-.5.5 0v.99c.5.17 1.5.4 1.5 0 0-.5 1 0 2 0s.5 1 1 1 .5 0 1 .5c.4.4.5.82.5 1 2 .99 2.5.99 2.5 1.49s-.5.5-.5 1.49c0 .8-.33 1.66-.5 2-.33.16-1.1.5-1.5.5-.5 0 .5.99 0 .99s-1 1.5-1 1.99c0 .5-1.5 1-1.5 1.5s0 .99-.5 1.49 0 .5.5 1-1 1-1.5 0-.5-1 0-2-.5-1.5 0-2.49c.4-.8.5-2.99.5-3.98-1.5-1-1-1-1-1.5s-1-1-1-1.5 0-.99.5-1.49 0-1 0-1.5c0-.49-.5.5-1 0-.5-.49 0-.49-.5-.99s-1.5-.5-2-.5-1-.5-1.5-.5 0-.5 0-1c0-.49-.5-.99-1-1.49-.4-.4-.5-.83-.5-1-.17-.16-.5-.39-.5 0Z" fill="#565455" /></svg>