<?xml version='1.0' encoding='utf-8'?>
<!-- by TradeStack -->
<svg width="56" height="56" viewBox="0 0 56 56" xmlns="http://www.w3.org/2000/svg"><path fill="#F0F3FA" d="M0 0h56v56H0z" /><path d="m23 31.83-2-1.99 1.54-1.66 2.14 2.06A5 5 0 1 0 23 31.83Zm1.84 1.79a7.47 7.47 0 0 1-10.28-1.54A4.4 4.4 0 0 1 10.4 35 4.36 4.36 0 0 1 6 30.67V25h2.5v5.75c0 1.03.64 1.87 1.69 1.87a2.9 2.9 0 0 0 2.81-2.5l.13-1.2a7.5 7.5 0 1 1 13.4 3.03c.64.44 1.32.78 1.91.78 1.3 0 1.9-1.28 2.04-1.92l2.44-7.84A4.27 4.27 0 0 1 37.08 20c2.67 0 4 1.98 4.34 2.97.77 2.58 2.34 7.8 2.42 8.01l.04.11c.12.43.47 1.61 1.98 1.61 1.34 0 1.6-1.15 1.64-1.72V24H50v6.88c0 .99-.6 4.12-4.14 4.12a4.28 4.28 0 0 1-4.25-3.3l-2.3-7.53c-.16-.52-.64-1.87-2.23-1.87-1.27 0-1.95 1.25-2.13 1.87l-2.3 7.54c-.55 1.8-1.91 3.29-4.2 3.29-1.58 0-2.93-.8-3.61-1.38Z" fill="url(#amer2jwuz)" /><circle cx="7.4" cy="21.71" fill="#ABD1D2" r="1.4" /><circle cx="48.6" cy="21.71" fill="#BF545A" r="1.4" /><defs><linearGradient id="amer2jwuz" x1="5.24" y1="25.71" x2="48.92" y2="35.59" gradientUnits="userSpaceOnUse"><stop stop-color="#AFCCD0" /><stop offset=".26" stop-color="#74C4B9" /><stop offset=".48" stop-color="#EA666C" /><stop offset=".7" stop-color="#F04950" /><stop offset=".95" stop-color="#604651" /></linearGradient></defs></svg>