<?xml version='1.0' encoding='utf-8'?>
<!-- by TradeStack -->
<svg width="56" height="56" viewBox="0 0 56 56" xmlns="http://www.w3.org/2000/svg"><path fill="#F0F3FA" d="M0 0h56v56H0z" /><path d="M13.5 20h-3c.4.43.5 1.26.5 1.63v10.29c0 .43-.33.9-.5 1.08h3c-.4-.43-.5-1.26-.5-1.63v-9.75c0-.43.33-1.26.5-1.62Z" fill="#3D0F58" /><path d="M37 20h-8c.57.54 1 1.44 1 1.63v9.75c0 .54-.43 1.08-1 1.62h7.33c.54 0 .67-.36.67-.54v-1.63c-.44.18-1.22.55-2.29.55-1.06 0-2.49-.37-2.71-.55v-3.79h3.67c.66 0 .76 0 1.33.54v-1.62c0-.44-.89-.54-1.33-.54H32v-3.25c.22-.18 1.11-.55 2.71-.55 1.6 0 1.72 0 2.29.55V20Z" fill="#3B1151" /><path fill-rule="evenodd" d="M22 31.38c2.15 0 4.3-1.97 4.3-4.88s-1.6-4.88-4.3-4.88c-2.7 0-4.3 1.97-4.3 4.88s2.15 4.88 4.3 4.88ZM22 33c3.87 0 7-2.91 7-6.5S25.87 20 22 20s-7 2.91-7 6.5 3.13 6.5 7 6.5Z" fill="#3B1151" /><path d="M47.15 37.76c3.99-5.77-5.57-14.64-9.53-17.28-3.97-2.65-15.78-8-19.77-2.24a4.14 4.14 0 0 0-.88 3.26l-.74.72c-.45-1.93-.26-3.23.69-4.6 2.98-4.32 12.38-3.18 20.99 2.55 8.6 5.74 13.16 13.89 10.17 18.21-2.75 3.99-10.98 3.32-19-1.31h2.36c5.1 2.6 12.64 5.14 15.71.69Z" fill="#3D0F58" /><path d="M30.31 36.47a36.26 36.26 0 0 1-2.59-1.56A63.37 63.37 0 0 1 21.83 30H20.3a47.9 47.9 0 0 0 6.8 5.83c.38.25.82.41 1.27.47.57.07 1.23.13 1.95.17Z" fill="#3D0F58" /></svg>