<!-- by TradeStack --><svg xmlns="http://www.w3.org/2000/svg" width="56" height="56" viewBox="0 0 56 56"><path fill="#F0F3FA" d="M0 0h56v56H0z"/><path d="M8 27H6v2.69s0 1.7 1.5 2.2c.23.08.55.11.87.11.91 0 1.68-.38 1.68-.38l-.2-1.85s-.5.23-.8.23c-.3 0-.49.02-.74-.23-.22-.22-.3-.5-.31-.86V27ZM26 25l-.73-1H21.6S19 24 19 26.52A2.35 2.35 0 0 0 21.23 29h3.14s.63 0 .63.5-.47.5-.47.5H19v2h5.75S27 31.8 27 29.52c0-2.29-1.62-2.52-3.19-2.52h-2.3s-.51 0-.51-.5.5-.5.5-.5h3.67l.83-1Z" fill="#1B1435"/><path d="M26.43 24h-.67l.83 1-.83 1.02h.67l.85-1.02-.85-1ZM47.63 32H44v-8h2v6h4l-2.37 2ZM36 32v-8h7v2h-5v1h3v2h-3v1h5v2h-7Z" fill="#E01D2D"/><path d="M35 24h-8l.88 1.03L27 26h3v6h2v-6h3v-2ZM7 23H6v-.95C8.7 20.33 11.65 19 14.87 19 21.2 19 25 23 25 23s-4.5-3-9.22-3C11.06 20 7 23 7 23Z" fill="#E01D2D"/><path d="M50.98 30H52v1s-2.87 3.64-7.77 4.62c-1.2.24-2.36.38-3.48.38C34.69 36 30 33 30 33s4.55 2 9.19 2c.98 0 1.97-.05 2.92-.28C47.53 33.4 50.98 30 50.98 30Z" fill="#1C173A"/><path d="M16.27 31.3a4 4 0 1 1 .94-.9l.29 1.6-1.23-.7Zm-.22-2.4a2.22 2.22 0 1 0-.96 1.05l-.59-.83 1.05-.73.5.51Z" fill="#1B1435"/><circle cx="7" cy="25" r="1" fill="#1B1435"/></svg>