<!-- by TradeStack --><svg width="56" height="56" viewBox="0 0 56 56" xmlns="http://www.w3.org/2000/svg"><path fill="#F0F3FA" d="M0 0h56v56H0z"/><path d="M51 32.02C43.58 32.84 19.46 34 11.84 34c-7.62 0-5.9-1.94-5.07-1.98.69-.04 44.23 0 44.23 0Z" fill="#FF5000"/><path fill-rule="evenodd" d="M34.45 22H37l-1.57 9H33l1.45-9ZM12 31h2.05l.61-3.86c.03-.24.1-.42.2-.52.1-.1.23-.17.43-.17.19 0 .32.05.39.17.07.1.08.28.05.52L15.17 31h2.06l.74-4.41c.05-.32.03-.58-.03-.78-.07-.2-.16-.36-.3-.48-.14-.13-.31-.2-.52-.25-.19-.05-.41-.08-.65-.08-.78 0-1.34.29-1.7.86h-.02l.1-.86h-2.02L12 31Zm26.99-3.88a24.19 24.19 0 0 0-.38 1.76c-.03.23-.02.41 0 .55.03.14.09.23.17.28.08.05.2.08.35.08.15 0 .28-.02.39-.06.1-.05.2-.14.28-.27.09-.14.17-.31.23-.54a11.36 11.36 0 0 0 .37-1.77c.04-.23.03-.41 0-.55-.02-.13-.07-.22-.16-.28a.75.75 0 0 0-.35-.08.89.89 0 0 0-.4.06.82.82 0 0 0-.27.28c-.1.13-.16.31-.23.54Zm4-.26c.02.36-.01.75-.07 1.17-.06.37-.16.74-.3 1.1-.14.35-.34.68-.62.96-.28.27-.67.5-1.15.66-.47.17-1.08.25-1.83.25-.77 0-1.38-.07-1.81-.22a1.81 1.81 0 0 1-.92-.64 1.8 1.8 0 0 1-.29-.95 7.93 7.93 0 0 1 .38-2.28c.14-.36.35-.68.63-.97.28-.28.66-.5 1.13-.68a5.5 5.5 0 0 1 1.85-.26c.77 0 1.38.08 1.8.25.44.15.75.36.93.64.19.28.28.6.28.97Zm.2-1.85L43 26.4h.74l-.55 3.17c-.04.33-.03.52 0 .72.05.2.28.39.42.49.14.1.33.16.56.2.23.02.53.03.86.03H46.1l.3-1.34h-.35c-.18 0-.31-.03-.4-.1-.07-.07-.05-.4-.03-.56l.33-2.6h.87L47 25h-.9l.09-1.01h-2.02L44 25.01h-.8ZM19 26.4l.2-1.38h.8l.17-1.01h2.02l-.09 1.01h.9l-.18 1.38h-.87L21.62 29c-.02.17-.04.49.04.56.08.07.21.1.4.1h.34L22.1 31H21c-.33 0-.6-.01-.83-.03a1.3 1.3 0 0 1-.56-.2c-.14-.1-.37-.29-.42-.49-.03-.2-.04-.4 0-.72l.55-3.17H19ZM24 25h2v1c.21-.35.54-.54.86-.72.32-.18.99-.28 1.35-.28h2.13c.42 0 .8.03 1.15.08.36.06.65.15.89.29.24.13.41.32.5.56.12.23.15.54.1.91l-.41 2.8-.13.68-.12.68H30s.11-.45.17-.77c-.17.25-.42.45-.73.58a3.19 3.19 0 0 1-1.97.08 1.29 1.29 0 0 1-.58-.34 1.05 1.05 0 0 1-.27-.53 2.55 2.55 0 0 1 .19-1.38c.1-.2.24-.36.41-.5.18-.15.4-.27.68-.38.28-.1.62-.19 1.02-.26l.99-.18c.27-.05.46-.12.58-.21a.41.41 0 0 0 .2-.3c.03-.33-.11-.41-.54-.41l-.42.04-.27.04c-1.96.24-3.2.43-3.5 1.74L25.3 31H23l1-6Zm5.5 4.76a.52.52 0 0 1-.42-.17c-.09-.11-.12-.26-.1-.46.03-.19.08-.34.17-.46.1-.12.24-.2.44-.28l.3-.08c.24-.06.52-.13.57-.18l-.07.69c-.05.31-.14.55-.29.7-.13.16-.33.24-.6.24ZM9 31l.71-6H12l-.83 6H9Z" fill="#2E3335"/></svg>