<!-- by TradeStack --><svg width="56" height="56" viewBox="0 0 56 56" xmlns="http://www.w3.org/2000/svg"><path fill="#011E64" d="M0 0h56v56H0z"/><path d="M27.41 11c6.87 0 12.22 4.35 14.04 6.52-5.06-4.54-9.43-5.73-13.7-5.73-13.15.74-15.16 11.52-15.7 13.94C12.45 17.92 18.82 11 27.4 11Z" fill="#9FCAEA"/><path d="M27.9 45c-10.87-.28-15.13-9.57-15.9-14.18 2.3 8.45 9.08 13.88 16.98 13.3 7.9-.6 11.34-5.45 13.45-8.06C37.82 43.46 31.68 45 27.9 45Z" fill="#A1CCEB"/><path fill-rule="evenodd" d="M28.2 44.2c8.72 0 15.8-7.18 15.8-16.05 0-8.87-7.08-16.06-15.8-16.06-8.73 0-15.8 7.19-15.8 16.06 0 8.87 7.07 16.06 15.8 16.06Zm-.05-.98c8.59 0 15.56-6.77 15.56-15.12s-6.97-15.12-15.56-15.12c-8.6 0-15.56 6.77-15.56 15.12s6.96 15.12 15.56 15.12Z" fill="#405CC2"/><path d="M27.46 14.9c-10.13 0-13.32 8.8-13.64 13.2 2.35-10.48 9.47-12.4 13.64-12.4s12.66 2.96 12.66 12.94S29.92 41.3 27.02 42c4.9 0 13.5-4.06 13.5-13.35S33 14.9 27.46 14.9Z" fill="#D20253"/><path fill-rule="evenodd" d="M27.7 39.86a11.97 11.97 0 1 0 .02-23.93 11.97 11.97 0 0 0-.01 23.93Zm.2-.7a11.47 11.47 0 1 0 .02-22.94 11.47 11.47 0 0 0-.02 22.95Z" fill="#86FAD3"/><circle cx="23.5" cy="21.5" r="1.5" fill="#D00255"/><path fill="#fff" d="M22 24h3v13h-3zm4-4h4.55C33 20 35 22.17 35 24.85v.9a4.18 4.18 0 0 1-3.14 4.17L36 37h-4.03l-3.47-7H26v-3h4.09c1.05 0 1.91-.7 1.91-1.85 0-1.32-.98-2.15-2.18-2.15H26v-3Z"/><path fill-rule="evenodd" d="M26.92 13.13c5.7 0 15.6 3.7 15.6 15.31 0 6.18-5 13.35-13.2 13.35S12.88 35.9 12.88 26.52c0-10.38 10.6-13.93 14.04-13.4Zm.34.93c4.58.09 14 3.12 14.97 14.58 0 6.62-5.6 12.55-12.37 12.55S15 37.34 13.76 26.72c.25-8.6 6.98-12.66 13.5-12.66Z" fill="#9CEBF4"/></svg>