<?xml version='1.0' encoding='utf-8'?>
<!-- by TradeStack -->
<svg viewBox="0 0 56 56" xmlns="http://www.w3.org/2000/svg"><path fill="#F0F3FA" d="M0 0h56v56H0z" /><circle cx="11.5" cy="20" r="2.5" fill="#EB1C22" /><path fill-rule="evenodd" d="M36.6 31.22c.84 2.62 4.61 3.57 8.94 2.06A11.76 11.76 0 0050.6 30h-3.82a2.4 2.4 0 00-1.2.3c-3.49 1.78-5.03.37-5.12-.4-.3-2.53 2.94-3.76 4.68-3.87.81-.09 2.18-.06 2.46.45.3.52.9.52 1.18.52H52c.03-.42-.01-.83-.14-1.22-.85-2.64-5.05-3.56-9.39-2.06-1.04.37-1.96.86-2.75 1.42a3.95 3.95 0 00-3.53-2.13h-6.24c-1.44-.1-2.04.52-2.26 1.14l-4.16 9.33c-.4-.37-1.2-1.14-1.3-1.25-1.01-.85-1.82-2.2-2.1-2.78 3.32-.1 5.86-1 5.86-3.82 0-1.99-2.73-2.63-3.95-2.62h-6.4a2 2 0 00-1.83 1.2L9.5 34h3.34a1.5 1.5 0 001.36-.86l1.63-3.5 1.62 2.84a3 3 0 002.6 1.52h6.66a1.5 1.5 0 001.37-.87l1.4-3.05c3.8-.05 6.22-.6 7.16-.95a3.56 3.56 0 00-.04 2.1zM8.24 24.21A2 2 0 0110.08 23h3.84s-.66.33-1.22 1.7l-3.63 8.12A2 2 0 017.25 34H4l4.24-9.8zm9.77.48c1.02-.11 3.05-.29 3.62.22.48.42.28.93.14 1.2-.4.77-2.08 2.35-5.51 2.47L18 24.69zm17.55.22c-.57-.5-2.6-.33-3.62-.22l-1.76 3.89c3.43-.12 5.1-1.7 5.52-2.48.14-.26.33-.77-.14-1.2z" fill="url(#ap30gv5yj)" /><defs><linearGradient id="ap30gv5yj" x1="5.75" y1="28.51" x2="52" y2="27.91" gradientUnits="userSpaceOnUse"><stop offset=".38" stop-color="#1D1261" /><stop offset=".79" stop-color="#00AEF3" /></linearGradient></defs></svg>