<?xml version='1.0' encoding='utf-8'?>
<!-- by TradeStack -->
<svg width="56" height="56" viewBox="0 0 56 56" xmlns="http://www.w3.org/2000/svg"><path fill="#F0F3FA" d="M0 0h56v56H0z" /><path d="M13 21.5a2.5 2.5 0 0 1-1.84 2.41A2.49 2.49 0 0 1 13 26.25v7.44c0 1.03.74 1.86 1.76 1.86h10.23c.63 0 1.01-.5 1.01-1.13v-3.89c0-.62-.39-1.53-1-1.53h-6.3c-1.48 0-2.7-.8-2.7-2.28v-5.04A2.7 2.7 0 0 1 18.7 19h26.63C46.8 19 48 20.2 48 21.68v5.07c0 .27-.11.52-.31.7l-.68.6.74.8c.16.17.25.4.25.64v4.83C48 35.8 46.8 37 45.33 37h-9.64a2.68 2.68 0 0 1-2.67-2.68v-6.06c0-.74.34-1.4.88-1.84a2.5 2.5 0 1 1 3.14.05c.57.43.96 1.08.96 1.8v6.15c0 .62.26 1.08.88 1.08h3.04c.62 0 1.13-.46 1.13-1.08L43 29.4l-.83-.27a1.17 1.17 0 0 1 0-2.24l.83-.26v-4.4c0-.63-.46-1.23-1.08-1.23H21.87c-.62 0-.87.6-.87 1.23v3.66c0 .63.25 1.13.87 1.13h6.48c1.47 0 2.65 1.2 2.65 2.69v4.6A2.66 2.66 0 0 1 28.35 37H10.72a2.68 2.68 0 0 1-2.67-2.68v-8.07c0-1.11.75-2.06 1.77-2.34A2.5 2.5 0 1 1 13 21.5Z" fill="#212121" /></svg>