<!-- by TradeStack --><svg width="56" height="56" viewBox="0 0 56 56" xmlns="http://www.w3.org/2000/svg"><path fill="#F0F3FA" d="M0 0h56v56H0z"/><path d="M21.5 12a1.5 1.5 0 1 1-1.5 1.5c-.02-.83.65-1.5 1.5-1.5Zm7 0a1.5 1.5 0 1 1-1.5 1.5c-.02-.83.65-1.5 1.5-1.5Zm1.5 8.5c0-.83-.67-1.5-1.5-1.5-.85 0-1.52.67-1.5 1.5a1.5 1.5 0 0 0 3 0ZM21.5 42a1.5 1.5 0 1 1-1.5 1.5c-.02-.83.65-1.5 1.5-1.5ZM37 20.5c0-.83-.67-1.5-1.5-1.5-.85 0-1.52.67-1.5 1.5a1.5 1.5 0 0 0 3 0ZM35.5 27a1.5 1.5 0 1 1-1.5 1.5c-.02-.83.65-1.5 1.5-1.5Zm1.5 8.5c0-.83-.67-1.5-1.5-1.5-.85 0-1.52.67-1.5 1.5a1.5 1.5 0 0 0 3 0ZM21.5 19c.82 0 1.5.78 1.5 1.72v14.56c0 .94-.68 1.72-1.5 1.72s-1.5-.78-1.5-1.72V20.74c-.02-.94.66-1.74 1.5-1.74ZM16 20.72c0-.94-.68-1.72-1.5-1.72s-1.5.8-1.5 1.74v14.54c0 .94.68 1.72 1.5 1.72s1.5-.78 1.5-1.72V20.72ZM41.5 19c.82 0 1.5.78 1.5 1.72v14.56c0 .94-.68 1.72-1.5 1.72s-1.5-.78-1.5-1.72V20.74c-.02-.94.66-1.74 1.5-1.74ZM30 28.72c0-.94-.68-1.72-1.5-1.72-.84 0-1.52.8-1.5 1.72v14.56c0 .94.68 1.72 1.5 1.72s1.5-.78 1.5-1.72V28.72Z" fill="url(#a5uedrjzr)"/><defs><linearGradient id="a5uedrjzr" x1="15" y1="16" x2="38.5" y2="42.5" gradientUnits="userSpaceOnUse"><stop stop-color="#1D46A0"/><stop offset="1" stop-color="#CD0093"/></linearGradient></defs></svg>