<!-- by TradeStack --><svg width="56" height="56" viewBox="0 0 56 56" xmlns="http://www.w3.org/2000/svg"><path fill="#F0F3FA" d="M0 0h56v56H0z"/><path d="M28 8c-3.28 0-6 2.72-6 6s2.72 6 6 6 6-2.72 6-6a6.1 6.1 0 0 0-6-6Zm0 8.56A2.53 2.53 0 0 1 25.44 14 2.53 2.53 0 0 1 28 11.44 2.53 2.53 0 0 1 30.56 14 2.63 2.63 0 0 1 28 16.56Z" fill="#666"/><path d="M28 44.17c-1.67-1.08-3.96-2.32-3.96-2.32s-1.83.7-3.96.7C20.54 32.5 28 27.58 28 27.58s-2.59-1.5-3.27-1.58c-3.05 2.58-8.22 8.9-7.7 19.8 2.52.58 9.37-.63 10.97-1.63Z" fill="#CC0E0E"/><path d="M18.75 31.45c.93-1.5 2.33-3.4 2.33-3.4S20 25.9 20 24c8.94.47 14.07 7.21 14.07 7.21s1.1-2.68 1.17-3.39C33.6 25.7 26.64 20.45 17 21c0 3 .9 9.03 1.75 10.45Z" fill="#666"/><path d="M27.77 22.85c1.64.71 4.2 2.13 4.2 2.13s2.26-.55 3.81-.47c-.85 7.57-5.28 12.46-8.08 14.12.54.23 2.02 1.1 3.26 1.57C34 38.15 39 31 39 21c-2.72-.16-9.83.99-11.23 1.85Z" fill="#CC0E0E"/><path d="M36.95 35.55c-.93 1.5-2.33 3.4-2.33 3.4s.46 1.96.46 3.85c-8.94-.47-13.45-7.01-13.45-7.01s-1.1 2.68-1.17 3.39c1.63 2.13 7.93 7.33 17.58 6.78.54-2.37-.23-8.99-1.1-10.41Z" fill="#666"/></svg>