<!-- by TradeStack --><svg width="56" height="56" fill="none" xmlns="http://www.w3.org/2000/svg"><path fill="url(#a)" d="M0 0h56v56H0z"/><path d="M12 19h-2v8h2v-8Z" fill="#E25539"/><path d="M18.368 19.615 17.5 21c-.921-.846-2.5-1-2.5 0s4 1.077 4 3.538C19 27 17.263 27 16 27c-1.01 0-2.474-.82-3-1.23l1-1.232c1.263 1.231 2.453 1.009 3 .462.5-.5.105-1.077-1.79-1.692C13.316 22.692 13 21.615 13 21c0-1.266 1.263-2 2.842-2 1.263 0 2.21.41 2.526.615Z" fill="#F05033"/><path fill-rule="evenodd" clip-rule="evenodd" d="M20 19v8h2.004L22 24l2 3h2l-1.992-3.077c.668-.102 1.992-.7 1.992-2.423 0-2.154-1.658-2.5-2.66-2.5H20Zm2 1.5v2h.5c.66 0 1.5 0 1.5-1s-.832-1-1.5-1H22Z" fill="#EF5134"/><path d="M27 27h2l1.5-3.5L32 27h2l-3.5-8-3.5 8Z" fill="#EF4F3A"/><path d="M35 19h5v1.5h-3V22h2.5v1.5H37v2h3V27h-5v-8Z" fill="#F34E33"/><path d="M44 19h-2v8h4v-1.5h-2V19Z" fill="#EF5134"/><path d="M10 30.5v-2c-.333-.148-1-.5-2-.5-1.5 0-4 .889-4 4 0 3.111 2.5 4 4 4 1.2 0 1.833-.352 2-.5v-2c-.333.148-1.2.5-2 .5-1 0-2-.667-2-2s1-2 2-2c.8 0 1.667.352 2 .5Z" fill="#fff"/><path d="m19 36-4-8-4 8h2l2-4 2 4h2ZM36 36l-4-8-4 8h2l2-4 2 4h2ZM52 36l-4-8-4 8h2l2-4 2 4h2Z" fill="#FCFCFC"/><path fill-rule="evenodd" clip-rule="evenodd" d="M37 28v8h4c1.267.026 3-.423 3-4s-2.5-4-4.2-3.974L37 28Zm2 1.5v5h1c.933 0 2-.513 2-2.5 0-2.484-1.533-2.5-2-2.5h-1Z" fill="#FCFCFC"/><path d="m25 32-5-4v8h2v-4l5 4v-8h-2v4Z" fill="#fff"/><defs><linearGradient id="a" x1="10.418" y1="9.712" x2="68.147" y2="76.017" gradientUnits="userSpaceOnUse"><stop stop-color="#1A1E21"/><stop offset="1" stop-color="#06060A"/></linearGradient></defs></svg>