<!-- by TradeStack --><svg width="56" height="56" viewBox="0 0 56 56" xmlns="http://www.w3.org/2000/svg"><path fill="#489EDB" d="M0 0h56v56H0z"/><path fill-rule="evenodd" d="M9 24H6v-1.59h.29A2.6 2.6 0 0 0 9 19.81V19h4v12h-1v-7h-2v7H9v-7Zm3-2.5a1 1 0 1 1-2 0 1 1 0 0 1 2 0Zm2 2.5h1.5v1.15A2.94 2.94 0 0 1 17.8 24c1.05 0 1.65.52 1.95 1.1a2.77 2.77 0 0 1 2.17-1.1c1.6 0 2.08 1.32 2.08 2.12V31h-1.52v-4.73c0-.37-.23-1.1-1.1-1.1-.58 0-1.06.45-1.38.9V31h-1.61v-4.73c0-.37-.24-1.1-1.15-1.1-.83 0-1.47.85-1.74 1.4V31H14v-7Zm14.1 7c.97 0 1.83-.5 2.4-1.27V31H32v-7h-1.5v1.27A2.98 2.98 0 0 0 28.1 24c-1.71 0-3.1 1.57-3.1 3.5s1.39 3.5 3.1 3.5Zm.4-1.5a2 2 0 1 0 0-4 2 2 0 0 0 0 4Zm8 1.5c2.2 0 4-1.57 4-3.5 0-.62-.18-1.2-.5-1.7l.83-.59L39.6 24l-.58.78A4.35 4.35 0 0 0 36.5 24c-2.2 0-4 1.57-4 3.5 0 1.23.72 2.3 1.81 2.93-.61.27-1.38.73-1.38 1.22 0 .44.8.9 1.56 1.24a4 4 0 0 0 4.62 6.51l.55.6 1.24-1.16-.68-.46a4 4 0 0 0-4.76-6.07c-.61-.17-1.17-.4-1.17-.66 0-.28.77-.53 1.53-.7.22.03.45.05.68.05Zm0-1.5a2 2 0 1 0 0-4 2 2 0 0 0 0 4ZM39 36c0 1.38-.9 2.5-2 2.5s-2-1.12-2-2.5.9-2.5 2-2.5 2 1.12 2 2.5Zm9-8.5c0 .17-.01.34-.04.5h-5.4a2 2 0 0 0 3.53.7l1.26.84A3.5 3.5 0 1 1 48 27.5Zm-5.44-.5a2 2 0 0 1 3.88 0h-3.88Z" fill="#fff"/></svg>