<?xml version='1.0' encoding='utf-8'?>
<!-- by TradeStack -->
<svg width="56" height="56" viewBox="0 0 56 56" xmlns="http://www.w3.org/2000/svg"><path fill="#F0F3FA" d="M0 0h56v56H0z" /><path fill-rule="evenodd" d="m36.68 37.46-18.74 8.46c-.19.08-.6.16-.78-.08-.23-.3-.04-.64.15-.83l11.35-10.9-11.34-5.15a.51.51 0 0 1-.16-.85l18.72-17.95c.35-.34 1.12-.1 1.12.37v9.4c0 .2-.28.38-.48.47l-11.28 5.18 11.6 11.03c.27.26.19.7-.16.85ZM20.3 26.66 36 11.7v7.87L20.3 26.65Zm-1.43 1.83 14.77 6.63-9.45-9.05-5.32 2.42Zm10.88 6.07-9.45 9.13 14.77-6.78-5.32-2.35Z" fill="#3E88EF" /></svg>