<!-- by TradeStack --><svg viewBox="0 0 56 56" xmlns="http://www.w3.org/2000/svg"><path fill="#F0F3FA" d="M0 0h56v56H0z"/><path d="M15 34.1c0-.05.05-.1.14-.1h2.72c.09 0 .14.05.14.1v.64c0 .05-.05.1-.14.1H16v.7h1.54c.05 0 .14.06.14.1v.64c0 .08-.06.1-.14.1H16v.79h1.86c.09 0 .14.04.14.1v.63c0 .05-.05.1-.14.1h-2.72c-.09 0-.14-.05-.14-.1v-3.8ZM19 34.1c0-.05.05-.1.14-.1h.16l2.7 2.13v-2.04c0-.04.05-.09.14-.09h.72c.06 0 .14.05.14.1v3.8c0 .05-.05.1-.14.1h-.1l-.08-.02-2.68-2.2v2.13c0 .04-.05.09-.14.09h-.72c-.06 0-.14-.05-.14-.1v-3.8ZM24 34.1c0-.05.05-.1.14-.1h2.72c.09 0 .14.05.14.1v.64c0 .05-.05.1-.14.1H25v.7h1.54c.05 0 .14.06.14.1v.64c0 .08-.06.1-.14.1H25v.79h1.86c.09 0 .14.04.14.1v.63c0 .05-.05.1-.14.1h-2.72c-.09 0-.14-.05-.14-.1v-3.8ZM29.73 35.67c.22 0 .43-.22.43-.46 0-.24-.2-.43-.43-.43H29v.9h.73ZM28 34.1c0-.05.07-.1.14-.1h1.66c.65 0 1.2.56 1.2 1.24 0 .53-.34.94-.82 1.14l.77 1.45c.05.07 0 .17-.09.17h-.75c-.04 0-.06-.02-.09-.05l-.75-1.5H29v1.45c0 .05-.05.1-.11.1h-.78c-.06 0-.11-.05-.11-.1v-3.8ZM34.33 34c.56 0 1.14.2 1.59.52.05.05.05.1 0 .15l-.5.47a.14.14 0 0 1-.19 0c-.24-.19-.53-.26-.85-.26-.71 0-1.38.52-1.38 1.12 0 .62.7 1.12 1.41 1.12.19 0 .38-.02.59-.1v-.93c0-.07.05-.1.13-.1h.76c.06 0 .11.06.11.1v1.46l-.05.1s-.67.35-1.62.35c-1.3 0-2.33-.88-2.33-2 0-1.1 1.03-2 2.33-2ZM38.47 36.1l-1.45-1.93c-.05-.07 0-.17.1-.17h.86c.06 0 .08.02.11.05l.91 1.17.9-1.17c.04-.03.06-.05.12-.05h.85c.1 0 .16.1.1.17l-1.46 1.9v1.83c0 .05-.06.1-.14.1h-.77c-.08 0-.13-.05-.13-.1v-1.8Z" fill="#AFCA0B"/><path d="M5 22.24c0-.12.14-.24.29-.24h1.42c.15 0 .29.12.29.24v8.52c0 .12-.14.24-.29.24H5.29c-.15 0-.29-.12-.29-.24v-8.52ZM10.55 24H8.28c-.17 0-.28-.12-.28-.24v-1.52c0-.12.11-.24.28-.24h6.44c.17 0 .28.12.28.24v1.52c0 .12-.11.24-.28.24H12.5v6.76c0 .12-.14.24-.28.24h-1.4c-.13 0-.3 0-.27-.24V24ZM16 22.24c0-.12.13-.24.26-.24h1.48c.16 0 .26.12.26.24v3.26h4v-3.26c0-.12.1-.24.26-.24h1.48c.13 0 .26.12.26.24v8.52c0 .12-.13.24-.26.24h-1.48a.25.25 0 0 1-.26-.24V27.5h-4v3.23c0 .12-.1.27-.26.27h-1.48c-.13 0-.26-.15-.26-.27v-8.49ZM39.7 22c1.32 0 2.3.4 3.16 1.16.13.1.13.26.03.36l-.8 1.21c-.1.1-.22.1-.32 0a3.27 3.27 0 0 0-2.02-.73c-1.25 0-2.75.5-2.75 2.52C37 28.5 38.5 29 39.78 29c.8 0 1.44-.28 2.01-.71.1-.1.25-.07.33 0l.82 1.17c.1.1.07.26-.03.33A4.6 4.6 0 0 1 39.73 31 4.6 4.6 0 0 1 35 26.52 4.61 4.61 0 0 1 39.7 22ZM30.42 28.57l-2.25.8c-.1.04-.2-.08-.15-.17l2.25-4.7c.05-.12.23-.07.23.05v3.9c0 .05-.02.1-.08.12Zm4.56 2.1-4.17-8.53c-.05-.07-.1-.14-.23-.14h-.13c-.13 0-.18.07-.23.14l-4.2 8.52c-.07.17.03.34.24.34l4.24-1.44L34.75 31c.18 0 .3-.17.23-.34Z" fill="#2A2A64"/><path fill-rule="evenodd" d="m45.5 30-.36.74a.42.42 0 0 1-.38.26h-1.5c-.2 0-.31-.17-.23-.34l4.2-8.52c.05-.07.1-.14.23-.14h.13c.13 0 .18.07.23.14l4.15 8.52c.08.17-.02.34-.23.34h-1.5c-.2 0-.3-.07-.38-.26L49.5 30h-4Zm2-4.5 1 2.5h-2l1-2.5Z" fill="#2A2A64"/></svg>