<!-- by TradeStack --><svg width="56" height="56" viewBox="0 0 56 56" xmlns="http://www.w3.org/2000/svg"><path fill="#F0F3FA" d="M0 0h56v56H0z"/><path d="M5 25v7H4v-7h1ZM4 23h1v1H4zM13.16 30H8.84L8 32H7l3.47-9h1.07L15 32h-1l-.84-2Zm-.28-1L11 24.15 9.12 29h3.76ZM20.21 25c1.74 0 2.79 1.3 2.79 2.97V32h-1v-3.93c0-1.28-.65-2.07-2-2.07s-2 .9-2 2.25V32h-1v-7h1v1.3a2.38 2.38 0 0 1 2.21-1.3ZM27 26v4.05c0 .45.5.95 1.14.95H29v1h-1.01c-1.25 0-1.99-.68-1.99-1.95V26h-1v-1h1v-2h1v2h2v1h-2ZM34.26 25c1.62 0 2.74 1.3 2.74 3.19V32h-1v-3.7c0-1.47-.73-2.3-2-2.3-1.35 0-2 .94-2 2.49V32h-1V22h1v4.4c0-.98 1.34-1.4 2.26-1.4ZM45 25v7h-1v-1.32A2.32 2.32 0 0 1 41.79 32C40.04 32 39 30.7 39 29.02V25h1v3.92c0 1.3.64 2.08 2 2.08 1.45 0 2-.9 2-2.25V25h1ZM49.68 32c-1.27 0-2.55-.63-2.68-2.02h1.02c.1.92.96 1.02 1.66 1.02s1.32-.1 1.32-.9c0-.83-.87-.94-1.5-1.1-1.33-.35-2.5-.82-2.5-2.17 0-1.22 1.43-1.83 2.5-1.83 1.27 0 2.43.66 2.5 2h-1c-.05-.87-.69-1-1.5-1-.64 0-1.48.23-1.48.83 0 .93.77.96 1.48 1.17 1.28.37 2.47.86 2.5 2.1 0 1.24-1.2 1.9-2.32 1.9Z"/></svg>