<!-- by TradeStack --><svg width="56" height="56" viewBox="0 0 56 56" xmlns="http://www.w3.org/2000/svg"><path fill="#FED92C" d="M0 0h56v56H0z"/><path d="M13 41V14h12.35c0 .07.07.5.15.67.63 1.4 1.68 1.9 2.9 1.78a2.67 2.67 0 0 0 2.39-2.23c.29-1.83-1.1-3.2-2.66-3.22a2.77 2.77 0 0 0-2.7 2h-13c-.28 0-.43.18-.43.48v27.89c0 .32 0 .63.38.63h30.95a4 4 0 0 1 .08 0c.23 0 .53.01.57-.28l.02-.23V28h-1v13H13Zm16.93-27.23c0 1.03-.83 1.87-1.85 1.87a1.86 1.86 0 0 1-1.86-1.87 1.86 1.86 0 1 1 3.7 0Z"/><path d="M34.41 29.79c-.86-.58-2.2-.88-3.1-.18-.37.3-.59.7-.63 1.2-.06.69.21 1.28.8 1.68.6.39 1.46.34 2.12.06a8.12 8.12 0 0 0 .84-.4v.03s.01 0 0 0c0 0 .01 0 0 0v1.11c.01.08 0 .14-.08.17-.98.54-2.27.72-3.28.3-1.86-.8-2.34-3.21-1.03-4.73a2.9 2.9 0 0 1 1.91-1 3.86 3.86 0 0 1 2.48.48l.01.05v1.2a.02.02 0 0 1-.01.03.02.02 0 0 1-.03 0ZM16.24 28h-1.19c-.03 0-.05.03-.05.07v1.18c0 .04.02.07.05.07h1.19c.03 0 .05-.03.05-.06v-1.19c0-.04-.02-.07-.05-.07ZM18.87 29.3H17c-.01 0 0 .01 0 0 0 0 0 .01 0 0v-1.25a.05.05 0 0 1 .01-.03.05.05 0 0 1 .04-.02h4.9l.04.02.01.04v1.24c0 .01 0 0 0 0-.01.01.01 0 0 0h-1.86v4.65l-.01.04-.04.01h-1.18s-.02 0-.03-.02l-.01-.03V29.3ZM37.3 31.55V34c0 .01 0 0 0 0h-1.26c-.03 0-.04-.01-.04-.04v-5.89c0-.04.02-.07.06-.07h1.24v2.37h2.4s.01 0 0 0c0 0 .01 0 0 0V28h1.22c.05 0 .08.03.08.09v5.9H41L39.7 34c-.02 0 0 .02 0 0v-2.45c0-.01 0 0 0 0 0-.01 0 0 0 0h-2.4ZM27.87 27.99h-4.74c-.07 0-.13.08-.13.17v.93c0 .1.06.16.13.16h4.74c.07 0 .13-.08.13-.17v-.93c0-.09-.06-.16-.13-.16ZM27.88 30.4l-4.76-.01a.12.12 0 0 0-.12.12v.95c0 .07.05.12.12.12l4.76.01c.06 0 .12-.05.12-.12v-.95a.12.12 0 0 0-.12-.12ZM27.88 32.74h-4.76c-.07 0-.12.05-.12.12v1c0 .08.05.14.12.14h4.76c.06 0 .12-.05.12-.12v-1c0-.08-.05-.14-.12-.14ZM16.24 30h-1.19c-.03 0-.05.03-.05.06v3.88c0 .03.02.06.05.06h1.2c.02 0 .05-.03.05-.06v-3.88c0-.03-.03-.06-.06-.06ZM39.97 37.63c-.72-.32-1.5-.57-1.4-1.63.05-.6.55-.95 1.05-1 .43-.03.87.06 1.3.28a.1.1 0 0 1 .05.04l.02.06V36.08l-.02.02h-.04c-.36-.21-.94-.46-1.32-.28-.12.05-.26.27-.14.4.2.23.6.36.88.5.6.3.92.79.74 1.53-.09.33-.28.56-.59.72-.56.27-1.23.13-1.78-.2-.07-.04-.1-.12-.1-.21.02-.24.01-.45-.02-.64 0-.08.02-.1.07-.05.4.3.78.53 1.3.46.1-.01.17-.06.23-.13.18-.23-.03-.48-.23-.57ZM15.86 36.55h-.02v2.4a.05.05 0 0 1 0 .03.05.05 0 0 1-.04.02h-.76l-.03-.02-.01-.03v-3.88c0-.02 0-.03.02-.04a.06.06 0 0 1 .04-.02h.6l.08.01.06.06.97 1.36c.03.03.06.03.08 0l.98-1.36a.2.2 0 0 1 .07-.06.18.18 0 0 1 .08-.02l.62.01h.02V38.99l-.03.02h-.74c-.05 0-.07-.02-.07-.07V36.7c.01-.13-.03-.14-.1-.04l-.79 1.1a.07.07 0 0 1-.1.02.51.51 0 0 1-.14-.15l-.79-1.1ZM20.27 35h-.72c-.03 0-.05.02-.05.05v3.9c0 .02.02.05.05.05h.72c.02 0 .05-.03.05-.06v-3.89c0-.03-.03-.05-.05-.05ZM21.84 36.57v2.38c0 .03-.01.04-.03.04H21l-.01-.03v-3.92l.02-.02a.07.07 0 0 1 .05-.02h.58c.13 0 .18.08.25.18a114.18 114.18 0 0 1 1.64 2.2h.01l.01-.04a142.1 142.1 0 0 0 .02-2.32l.78-.02a.05.05 0 0 1 .04.02.05.05 0 0 1 .01.03v3.9c0 .03-.01.04-.03.04h-.58l-.09-.01a.2.2 0 0 1-.07-.06l-1.72-2.38c-.05-.07-.08-.06-.08.03ZM25.89 36.58h1.49v.02h.02v.02l-.01.69v.02l-.03.01-1.48.01-.02.01-.01.03v.82l.01.02.03.01h1.58l.02.02.01.02v.68l-.01.03h-2.48l-.01-.03v-3.92l.01-.03h.03l2.39-.01.02.01v.02l.02.69a.04.04 0 0 1-.01.02h-.02v.01h-1.55l-.03.01v.81l.03.01ZM36.26 38.24h1.66l.01.01.01.01V39H35.38V35l.03-.01h.78s.02 0 .02.02l.02.02-.01 3.16.01.03.03.01Z"/><path fill-rule="evenodd" d="m32.1 38.28-.2.65a.1.1 0 0 1-.04.05.1.1 0 0 1-.06.02h-1.7a.1.1 0 0 1-.07-.02 22.43 22.43 0 0 0-.45-1.1c-.12-.33-.3-.56-.68-.5a.07.07 0 0 0-.04.02.07.07 0 0 0-.02.05v1.5l-.01.03a.05.05 0 0 1-.04.02h-.73c-.04 0-.06-.02-.06-.07v-3.88c0-.03.02-.04.05-.04l1.37-.01c.58 0 .95.25 1.13.77.15.43.03.94-.32 1.21l-.07.05-.08.04c-.02.02-.02.04 0 .06.18.2.32.43.43.72l.37.96c.06.16.11.15.17 0l1.27-3.78.02-.02H33.3l.02.02 1.45 3.91a.04.04 0 0 1-.01.05h-.84c-.02 0-.04 0-.05-.03l-.22-.67a.06.06 0 0 0-.02-.03.06.06 0 0 0-.04-.02h-1.46c-.02 0-.03.02-.04.04Zm-3.25-2.48v-.04l.04-.01h.39a.52.52 0 0 1 .33.12c.04.04.08.09.1.14.03.05.04.1.04.16v.03a.4.4 0 0 1-.14.3.5.5 0 0 1-.33.12h-.4l-.02-.01v-.02l-.01-.01v-.78Zm3.97.23-.46 1.43v.02h.02l.97.02h.01a.02.02 0 0 0 0-.03l-.5-1.44-.01-.02h-.03v.02Z"/></svg>