<?xml version='1.0' encoding='utf-8'?>
<!-- by TradeStack -->
<svg width="56" height="56" viewBox="0 0 56 56" xmlns="http://www.w3.org/2000/svg"><path fill="#F0F3FA" d="M0 0h56v56H0z" /><path d="M42.5 24v8H41v-8h1.5ZM7.5 24v8H6v-8h1.5ZM15 24v8h-1.18l-3.26-5h-.06v5H9v-8h1.18l3.26 5h.06v-5H15ZM17 25.5V24h5.5v1.5h-2V32H19v-6.5h-2ZM31 28c0 2.08-1.26 4-3.5 4S24 30.08 24 28c0-2.09 1.26-4 3.5-4s3.5 1.92 3.5 4Zm-1.5 0c0-1.3-.5-2.5-2-2.5s-2 1.19-2 2.5.5 2.5 2 2.5 2-1.19 2-2.5ZM51 28c0 2.08-1.26 4-3.5 4S44 30.08 44 28c0-2.09 1.26-4 3.5-4s3.5 1.92 3.5 4Zm-1.5 0c0-1.3-.5-2.5-2-2.5s-2 1.19-2 2.5.5 2.5 2 2.5 2-1.19 2-2.5Z" /><path fill-rule="evenodd" d="M33 24v8h1.5v-2.5h1.57L37.5 32H39l-1.6-2.8a2.77 2.77 0 0 0 1.6-2.55c0-1.68-1.32-2.65-2.9-2.65H33Zm1.5 4h1.37c.9 0 1.63-.4 1.63-1.35 0-.95-.74-1.15-1.64-1.15H34.5V28Z" /></svg>