<!-- by TradeStack --><svg viewBox="0 0 56 56" xmlns="http://www.w3.org/2000/svg"><path fill="#F0F3FA" d="M0 0h56v56H0z"/><path d="m40.82 22.3 3.68 6.46c.5 2.44-.36 3.9-.56 4.14-.2.25-1.63 1.25-2.32 1.72l-3.6-.39-4.4-7.7 7.2-4.22Z" fill="url(#abqn1jsv4)"/><path d="m16.6 19.3 3.22-5.48c.9-1.97 4.22-2.53 4.54-2.48.31.05 1.88.8 2.62 1.18l1.47 3.36-4.39 7.7-7.46-4.27Z" fill="url(#bbqn1jsv4)"/><path d="M26 42h-6.94c-1.04-.7-3.14-2.15-3.26-2.43a22.1 22.1 0 0 1-.3-2.75L17.63 34H26v8Z" fill="url(#cbqn1jsv4)"/><circle cx="28" cy="28" r="10" fill="#5391DA"/><path d="M20.57 21.31v1.23c.39-.7 1.7-2.12 3.81-2.12 2.12 0 3.96 1.41 4.61 2.12l-2.38 1.28 6.58 1.27-1.23-4.21-1.65-1.44c-.21-.42-1.05-1.2-2.8-1.43a9.97 9.97 0 0 0-6.94 3.3Zm16.7 2.93-.58.1c.29.6.65 2.26-.21 4.11-.87 1.85-2.87 1.74-3.77 1.45l-.2-1.45c-.7 2.1-3.07 4.28-4.16 5.1l4.15 3.21.28.03a10 10 0 0 0 4.49-12.55Zm-10.9 13.63.77-1.1a6.38 6.38 0 0 1-3.58-1.95c-.99-1.24-.53-3.6-.18-4.63l2.34 1.1c-2.09-1.56-2.43-4.65-2.34-6l-4.03 1.08c-.36.48-.85 1.13-1.35 1.86a10 10 0 0 0 8.37 9.64Z" fill="#3273AB"/><path d="M15.81 39.88 11 31.49c-.4-2.01 1.08-4.95 1.88-6.17L9 23h10.14l5.2 9.3-3.91-2.57c-.61 1.05-1.98 3.42-2.6 4.55-.77 1.41-1.1 2.44-1.22 4.8-.1 1.88 2.67 2.76 4.07 2.97-3.38 0-4.65-1.45-4.87-2.17Z" fill="url(#dbqn1jsv4)"/><path d="M44.48 32.59 39.72 41c-1.52 1.36-4.78 1.53-6.22 1.44L33.45 47l-5.07-8.9 5.36-9.2-.24 4.7c1.2.02 3.91.04 5.18.01 1.6-.03 2.64-.25 4.72-1.32 1.66-.86.92-3.47.4-4.8 1.78 2.24 1.19 4.55.68 5.1Z" fill="url(#ebqn1jsv4)"/><path d="M23.83 11.03 33.4 11c1.92.63 3.7 3.3 4.35 4.57l3.9-2.16L36.6 22l-10.56-.1 4.15-2.06c-.59-1.02-1.93-3.33-2.58-4.4-.83-1.33-1.54-2.1-3.5-3.35-1.56-1-3.7.93-4.57 2.02 1.69-2.86 3.56-3.24 4.29-3.08Z" fill="url(#fbqn1jsv4)"/><defs><linearGradient id="abqn1jsv4" x1="36.35" y1="31.31" x2="43.6" y2="27.18" gradientUnits="userSpaceOnUse"><stop stop-color="#182E0A"/><stop offset="1" stop-color="#266608"/></linearGradient><linearGradient id="bbqn1jsv4" x1="26.79" y1="18.8" x2="19.54" y2="14.66" gradientUnits="userSpaceOnUse"><stop stop-color="#182E0A"/><stop offset="1" stop-color="#266608"/></linearGradient><linearGradient id="cbqn1jsv4" x1="20.96" y1="34" x2="20.96" y2="42" gradientUnits="userSpaceOnUse"><stop stop-color="#182E0A"/><stop offset="1" stop-color="#266608"/></linearGradient><linearGradient id="dbqn1jsv4" x1="19.31" y1="27.23" x2="12.19" y2="32.78" gradientUnits="userSpaceOnUse"><stop offset=".66" stop-color="#3B9217"/><stop offset="1" stop-color="#AED39D"/></linearGradient><linearGradient id="ebqn1jsv4" x1="31.92" y1="35.84" x2="40.29" y2="39.13" gradientUnits="userSpaceOnUse"><stop offset=".66" stop-color="#3B9217"/><stop offset="1" stop-color="#AED39D"/></linearGradient><linearGradient id="fbqn1jsv4" x1="32.9" y1="20.1" x2="31.65" y2="11.4" gradientUnits="userSpaceOnUse"><stop offset=".66" stop-color="#3B9217"/><stop offset="1" stop-color="#AED39D"/></linearGradient></defs></svg>