<?xml version='1.0' encoding='utf-8'?>
<!-- by TradeStack -->
<svg width="56" height="56" viewBox="0 0 56 56" xmlns="http://www.w3.org/2000/svg"><path fill="url(#ag2q315so)" d="M0 0h56v56H0z" /><path d="M30 13.5a2.5 2.5 0 1 1-5 0 2.5 2.5 0 0 1 5 0Zm15 14a2.5 2.5 0 1 1-5 0 2.5 2.5 0 0 1 5 0ZM13.5 30a2.5 2.5 0 1 0 0-5 2.5 2.5 0 0 0 0 5Zm8-5.9c0-.75.48-1.4.94-2.01l.07-.1a2.5 2.5 0 1 0-4.02 0l.07.1c.46.6.94 1.26.94 2.01v.8c0 .75-.48 1.4-.94 2.01l-.07.1a2.5 2.5 0 1 0 4.02 0l-.07-.1c-.46-.6-.94-1.26-.94-2.01v-.8Zm9.6-2.6c-.75 0-1.4.48-2.01.94l-.1.07a2.5 2.5 0 1 1 0-4.02l.1.07c.6.46 1.26.94 2.01.94h.8c.75 0 1.4-.48 2.01-.94l.1-.07a2.5 2.5 0 1 1 0 4.02l-.1-.07c-.6-.46-1.26-.94-2.01-.94h-.8Zm-1.1 14a2.5 2.5 0 0 1-4.06 1.95c-.58-.46-1.2-.95-1.94-.95-.73 0-1.36.49-1.94.95a2.5 2.5 0 1 1 0-3.9c.58.46 1.2.95 1.94.95.73 0 1.36-.49 1.94-.95A2.5 2.5 0 0 1 30 35.5Zm6.5-3.5c0-.73.49-1.36.95-1.94a2.5 2.5 0 1 0-3.9 0c.46.58.95 1.2.95 1.94 0 .73-.49 1.36-.95 1.94a2.5 2.5 0 1 0 3.9 0c-.46-.58-.95-1.2-.95-1.94Zm-9 13a2.5 2.5 0 1 0 0-5 2.5 2.5 0 0 0 0 5Z" fill="url(#bg2q315so)" /><defs><linearGradient id="ag2q315so" x1="10.42" y1="9.71" x2="68.15" y2="76.02" gradientUnits="userSpaceOnUse"><stop stop-color="#1A1E21" /><stop offset="1" stop-color="#06060A" /></linearGradient><linearGradient id="bg2q315so" x1="27.5" y1="10" x2="27.5" y2="45" gradientUnits="userSpaceOnUse"><stop stop-color="#EAD65B" /><stop offset="1" stop-color="#E66B30" /></linearGradient></defs></svg>