<?xml version='1.0' encoding='utf-8'?>
<!-- by TradeStack -->
<svg width="56" height="56" viewBox="0 0 56 56" xmlns="http://www.w3.org/2000/svg"><path fill="#E7811D" d="M0 0h56v56H0z" /><path d="M18.48 29 20 25.3v-2.8A8.5 8.5 0 0 1 36.87 21h3.03A11.5 11.5 0 0 0 17 22.5v2.21L14 32h3v1.5a11.5 11.5 0 1 0 23 0V33h-3v.5a8.5 8.5 0 0 1-17 0V29h-1.52ZM26 21.5a1.5 1.5 0 1 1-3 0 1.5 1.5 0 0 1 3 0Zm.5 5.5a1.5 1.5 0 1 0 0-3 1.5 1.5 0 0 0 0 3Zm2.5 2.5a1.5 1.5 0 1 1-3 0 1.5 1.5 0 0 1 3 0Zm2.5 1.5a1.5 1.5 0 1 0 0-3 1.5 1.5 0 0 0 0 3Zm5.5-1.5a1.5 1.5 0 1 1-3 0 1.5 1.5 0 0 1 3 0ZM28.5 23a1.5 1.5 0 1 0 0-3 1.5 1.5 0 0 0 0 3Zm3.5 2.5a1.5 1.5 0 1 1-3 0 1.5 1.5 0 0 1 3 0Zm.5-2.5a1.5 1.5 0 1 0 0-3 1.5 1.5 0 0 0 0 3Zm3.5 2.5a1.5 1.5 0 1 1-3 0 1.5 1.5 0 0 1 3 0Zm2.5 1.5a1.5 1.5 0 1 0 0-3 1.5 1.5 0 0 0 0 3Z" fill="#FFFBFF" /></svg>