<!-- by TradeStack --><svg width="56" height="56" viewBox="0 0 56 56" xmlns="http://www.w3.org/2000/svg"><path fill="#F0F3FA" d="M0 0h56v56H0z"/><path d="M4 22h2.5v10.97l-2.5.38V22ZM32 22h2.5v7.49l-2.5.38V22ZM7 22h3.78l2.72 5.43V22H16v10.06l-3.5.32-3-5.8v6.09l-2.5.26V22Z" fill="#72852C"/><path d="M4 34h2.5v-.42l-2.5.25V34ZM32 34h2.5v-3.58l-2.5.55V34ZM35 34h2.5v-4.2l-2.5.54V34ZM40.96 29.69a4.42 4.42 0 0 0 2.06-1.52c-.41.2-1.43.64-2.44.92l-2.8.66L40.24 34h3.4l-2.69-4.31ZM7 34h2.5v-.65L7 33.6v.4ZM24 34h2.5v-2l-2.5.23V34ZM13.19 34H16v-1.14l-3.19.3.38.84Z" fill="#5C4B13"/><path d="M28.76 22c2.17 0 3.93 1.8 3.93 4s-1.76 4-3.93 4H26.5v.65l-2.5.38V22h4.76Zm-2.26 2v4h1.55c1.01 0 1.95-.97 1.95-2s-.94-2-1.95-2H26.5Z" fill="#72852C"/><path fill-rule="evenodd" d="M35 22v7.33c2.86-.38 5.83-.8 8.47-2.11A3.97 3.97 0 0 0 39.72 22H35Zm2.5 2v4H39c1.02 0 2-.97 2-2s-.98-2-2-2h-1.5Z" fill="#72852C"/><path d="m15.27 30.5 3.01-.41c0 1 .64 1.46.96 1.56l-3.5.4c-.17-.12-.38-1.08-.47-1.54Z" fill="#72852C"/><path d="m23.45 32.24-7.1.7c.25.35 1.27 1.06 3.35 1.06a4.6 4.6 0 0 0 3.75-1.76Z" fill="#5C4B13"/><path d="m24.15 24.73-2.88.59c-.2-.88-.65-1.28-1.37-1.28-.72 0-1.3.42-1.3.96 0 .97 1.18 1.3 3.63 2.34a3.37 3.37 0 0 1 2 3.66l-3.61.48c.18-.13.55-.5.55-.99 0-.61-.77-1.22-2.57-1.98-2.87-1.2-2.93-2.05-2.93-3.38 0-1.34 1.33-3.11 4.33-3.11 3.01 0 4.02 1.8 4.15 2.7Z" fill="#72852C"/><path d="M46.5 34H44v-6.1c.72-.37 1.1-.65 1.63-1.02l.87-.61v5.23H52V34h-5.5Z" fill="#5C4B13"/><path d="M51.16 22H44v5.2a10 10 0 0 0 2.5-1.54V24.5h2.15l.64-.61c.65-.6 1.17-1.1 1.87-1.89Z" fill="#72852C"/><path d="M52 24.5h-2.74c1.2-.93 1.58-1.5 2.52-2.5H52v2.5ZM47.47 27H52v2h-4.53v-2Z" fill="#5C4B13"/></svg>