<?xml version='1.0' encoding='utf-8'?>
<!-- by TradeStack -->
<svg width="56" height="56" viewBox="0 0 56 56" xmlns="http://www.w3.org/2000/svg"><path fill="#F0F3FA" d="M0 0h56v56H0z" /><path fill-rule="evenodd" d="M28 24a6 6 0 1 0 0-12 6 6 0 0 0 0 12Zm0 1a7 7 0 1 0 0-14 7 7 0 0 0 0 14Z" fill="#D63032" /><circle cx="26.5" cy="15.5" r="1.5" fill="#D63032" /><circle cx="29.5" cy="20.5" r="1.5" fill="#D63032" /><circle cx="10.5" cy="23.5" r="1.5" fill="#D63032" /><circle cx="45.5" cy="23.5" r="1.5" fill="#D63032" /><path d="M19 28H8v.5h1c.8 0 1 1 1 1.5v8.5c0 .8-.67 1-1 1H8v.5h6v-.5h-1c-.8 0-1-.67-1-1V30c0-.5.3-1.5 1.5-1.5s1.83 1.33 2 2L19 40h1c1-2.67 3.1-8.2 3.5-9 .5-1 .5-2.5 2-2.5 1.2 0 1.5 1 1.5 1.5v8.5c0 .8-.67 1-1 1h-1v.5h6v-.5h-1c-.8 0-1-.67-1-1v-9c0-.5.5-1 1.5-1 .8 0 1.33 1 1.5 1.5l4 10h1c1-2.5 3.1-7.9 3.5-9.5.5-2 1.5-2 2.5-2 .8 0 1 1 1 1.5v8.5c0 .8-.67 1-1 1h-1v.5h6v-.5h-1c-.8 0-1-.67-1-1v-9c0-.8.67-1 1-1h1V28H38v.5h1c.8 0 .67 1 .5 1.5L37 37.5c-.83-2-2.6-6.3-3-7.5-.4-1.2.5-1.5 1-1.5h1V28H21v.5h1c1.2 0 1.17 1 1 1.5l-3 7c-.83-1.83-2.6-5.8-3-7-.4-1.2.17-1.5.5-1.5H19V28Z" fill="#D63032" /></svg>