<!-- by TradeStack --><svg width="56" height="56" viewBox="0 0 56 56" xmlns="http://www.w3.org/2000/svg"><path fill="#230043" d="M0 0h56v56H0z"/><path d="M4.45 23.76c0-1.05-.3-1.61-.45-1.76h2.47A3.95 3.95 0 0 0 6 23.76v8.42c0 .84.32 1.56.47 1.82H4c.34-.44.44-1.4.45-1.82v-8.42ZM28 23.76c0-1.05-.32-1.61-.47-1.76H30a3.91 3.91 0 0 0-.45 1.76v8.42A4 4 0 0 0 30 34h-2.47c.34-.44.46-1.4.47-1.82v-8.42ZM8.27 32.36c0 .7-.28 1.38-.42 1.64h2.5c-.34-.31-.32-1.22-.35-1.64v-6.52c1.5 2.1 4.4 6.4 4.66 6.77.27.36.59 1.08.71 1.39h1.97a3.15 3.15 0 0 1-.34-1.64v-8.8c0-.53.22-1.26.34-1.56h-2.22c.31.48.44 1.24.46 1.56V31a474.5 474.5 0 0 1-5.73-7.9A3.17 3.17 0 0 1 9.5 22H7l1.27 1.56v8.8Z" fill="#fff"/><path fill-rule="evenodd" d="M18.6 22c.14.4.4 1.45.4 2.47v7.65c-.03.43-.14 1.4-.4 1.88h3.19c1.61-.07 4.71-1.5 4.71-6s-3.3-5.82-5.01-6h-2.9Zm1.94 1.06v9.89c1.43-.12 4.46-1.27 4.46-4.89 0-3.61-3.03-4.84-4.46-5Z" fill="#fff"/><path d="M36.12 22c1.42 0 2.4.34 2.88.5v2c-1.21-.9-1.77-1.16-2.88-1.16-1.12 0-4.12.77-4.12 4.62a4.37 4.37 0 0 0 4.32 4.66c.93 0 1.46-.3 1.68-.44V29.1l-.36-1.1h2.27l-.32 1.1v4.07c-.6.28-1.9.83-3.18.83-1.6 0-6-.5-6-5.65 0-5.16 3.94-6.35 5.7-6.35ZM46.5 34c3.04 0 5.5-2.69 5.5-6s-2.46-6-5.5-6-5.5 2.69-5.5 6 2.46 6 5.5 6Zm3.5-7.02c.6 2.46-.47 4.91-2.4 5.48-1.94.56-4-.97-4.6-3.44-.6-2.46.47-4.91 2.4-5.48 1.94-.56 4 .97 4.6 3.44ZM49.5 28a3 3 0 1 1-6 0 3 3 0 0 1 6 0Z" fill="#fff"/><circle cx="46.5" cy="28" r="2" fill="#C5C5C5"/></svg>