<?xml version='1.0' encoding='utf-8'?>
<!-- by TradeStack -->
<svg width="56" height="56" viewBox="0 0 56 56" xmlns="http://www.w3.org/2000/svg"><path fill="#F0F3FA" d="M0 0h56v56H0z" /><path d="M22.86 19.98c2.9-3.33 4.97-8.72 5.3-10.98.55 1.13 1.67 3.88 1.67 5.85 0 6.67-7.64 12.32-7.64 17.55 0 4.19 3.98 7.29 5.96 8.32 0-2.37 0-5.44 3.67-9.5 2.93-3.24 3.67-6.31 3.67-7.44A12.6 12.6 0 0 1 39 32.4C39 37.74 35.74 44 28.15 44S17 38.61 17 33.48s2.72-9.9 5.86-13.5Z" /><path d="M27.64 24.7c2.04-2.42 3.02-6.79 3.26-8.67.97 1.11 2.9 3.96 2.9 6.47 0 4.87-2.9 7.13-4.93 9.85-1.63 2.18-2.04 5.22-2.04 6.47-1.73-1.18-3.46-3.7-3.46-5.75s1.73-5.34 4.27-8.37Z" fill="#EDA400" /></svg>