<!-- by TradeStack --><svg width="56" height="56" viewBox="0 0 56 56" xmlns="http://www.w3.org/2000/svg"><path fill="#F0F3FA" d="M0 0h56v56H0z"/><path d="M10.82 29h-4.2c-.7 1.36-1.4 4.79 1.4 6.98a5.43 5.43 0 0 0 3.4 1.02c2.26 0 3.65-.55 5.32-3.43 1.34-2.3 8.3-15.57 8.3-15.57h-4.4L13.4 31.79c-.28.54-1.06 1.6-1.98 1.6-1.15 0-2.03-.95-1.5-2.36a9.7 9.7 0 0 1 .9-2.03Zm4.62 8 2.07-4H21v-6.36L25 19v14h6.87c.67.04 2.13-.13 2.13-1.66 0-1.8-1.66-1.79-2.43-1.78h-.14c-.7 0-6.03-.36-6.03-5.66S30 18 31.87 18H49l-2.03 4H43v15h-4V22h-7.57c-.63.03-2.43.32-2.43 1.78 0 1.83 1.98 1.94 2.43 1.94h.08c.8-.03 5.95-.15 5.95 5.76 0 4.33-3.54 5.49-5.45 5.52H15.44Z" fill="#12459B"/></svg>