<?xml version='1.0' encoding='utf-8'?>
<!-- by TradeStack -->
<svg width="56" height="56" viewBox="0 0 56 56" xmlns="http://www.w3.org/2000/svg"><path fill="#F0F3FA" d="M0 0h56v56H0z" /><path d="m32.29 12 1.86 3.1a9.02 9.02 0 0 0 8.99 15L45 33.2a12.6 12.6 0 0 1-6.82.57 12.57 12.57 0 0 0-7.27-4.29A12.57 12.57 0 0 1 32.3 12Z" fill="#007E3B" /><path d="M28 25.51c-.3.84-.7 1.65-1.18 2.42a13.03 13.03 0 0 1-7.23 5.47c-2.8.87-5.84.79-8.59-.2l1.94-3.1c1.8.5 3.73.49 5.53-.07a9.36 9.36 0 0 0 5.2-3.93 8.7 8.7 0 0 0-1.37-11l1.94-3.1A12.54 12.54 0 0 1 28 17.37a12.15 12.15 0 0 0 0 8.14Z" fill="#007E3B" /><path d="M18.1 34.5a14.2 14.2 0 0 0 7.86-4.27c.73-.14 1.07-.21 1.82-.23 6.95-.13 12.02 5 13.22 11h-3.87c-1.13-4.07-4.46-7.39-9.28-7.3a9.56 9.56 0 0 0-9.04 7.3H15c.4-2.42 1.48-4.67 3.1-6.5Z" fill="#007E3B" /></svg>