<!-- by TradeStack --><svg viewBox="0 0 56 56" xmlns="http://www.w3.org/2000/svg"><path fill="#F0F3FA" d="M0 0h56v56H0z"/><path d="M27.98 10h.15l15.85 8.97-8.58 5.09-7.3-3.86a.16.16 0 0 0-.16 0l-7.34 3.86c-2.97-1.7-5.46-3.38-8.42-5.04-.02-.01-.04-.05-.04-.12L27.98 10Z" fill="#94C11F"/><path d="M12.14 18.9c0 .07.02.1.04.12 2.96 1.66 5.85 3.34 8.82 5.04v7.77l7 3.98V46l-16-9.01v-18c.05-.05.1-.08.14-.09Z" fill="#00A2B4"/><path d="M43.98 18.97 44 19V36.93a.13.13 0 0 1-.07.11L28 46V35.81l7-3.97v-7.78l8.98-5.09Z" fill="#0B4395"/></svg>