<?xml version='1.0' encoding='utf-8'?>
<!-- by TradeStack -->
<svg width="56" height="56" viewBox="0 0 56 56" xmlns="http://www.w3.org/2000/svg"><path fill="#F0F3FA" d="M0 0h56v56H0z" /><path d="M13 20a2 2 0 1 0 0-4 2 2 0 0 0 0 4Z" fill="#D71718" /><path d="M8.35 22.69h.04c1.48.14 1.61.25 1.61 1.8v6.6a23.1 23.1 0 0 1-.2 3.63 3.5 3.5 0 0 1-1.76 2.56L8 37.3l.32.7.05-.02a5.25 5.25 0 0 0 1.57-1.1c1.1-1.15 1.5-2.48 1.5-5.06v-7.33c0-1.6.17-1.67 1.52-1.8H13V22H8.35v.69Z" fill="url(#a)" /><path d="M20.25 22h-5.07v.71h.05c1.42.14 1.76.2 1.76 1.84v7.91c0 1.67-.38 1.72-1.94 1.84H15v.7h4.35c2.34 0 4.05-.52 5.4-1.65C26.21 32.14 27 30.3 27 28c.1-4.04-3.05-6-6.75-6Zm-1.75 2.14c0-.8.07-.94.23-1.08.12-.1.25-.24 1.26-.24 3.2-.15 5.3 2.3 5.3 5.43 0 4.33-2.62 5.88-5.07 5.88-1.46 0-1.72-.47-1.72-1.84v-8.15Z" fill="url(#b)" /><path d="m32.05 27.69-.14-.07c-1.24-.7-2.2-1.34-2.2-2.8a2.06 2.06 0 0 1 .55-1.47 1.71 1.71 0 0 1 1.4-.55c1.45 0 1.85 1.15 2.18 2.44v.05l.67-.12v-.05a220.17 220.17 0 0 0-.3-2.62v-.03l-.03-.02a6.35 6.35 0 0 0-2.22-.45 3.66 3.66 0 0 0-2.66 1.01 3.22 3.22 0 0 0-.96 2.38c0 2.09 1.66 3.01 2.75 3.62l.17.1c1.38.8 2.28 1.42 2.28 2.83a2.22 2.22 0 0 1-.57 1.64 1.84 1.84 0 0 1-1.54.6c-1.68 0-2.43-1.62-2.77-2.97l-.01-.04-.65.14v.04c.1.99.27 1.96.5 2.93v.02h.02l.16.09c.21.11.44.21.67.29h.02c.56.2 1.14.31 1.74.32 2.25 0 3.89-1.53 3.89-3.64 0-2.13-1.7-3.02-2.95-3.67Z" fill="url(#c)" /><path d="m47.34 31.23-.02.04c-.89 1.84-1.78 2.9-3.68 2.9-2.83 0-4.8-2.42-4.8-5.89 0-3.74 2.43-5.45 4.7-5.45 2 0 3 .8 3.47 2.78l.01.05.68-.2v-.04l-.19-1.48-.17-1.38v-.03h-.04l-.4-.1c-.92-.27-1.88-.41-2.84-.43C39.9 22 37 24.75 37 28.7c0 3.03 2.03 6.3 6.5 6.3 1.1-.04 2.21-.2 3.3-.49l.15-.04v-.02c.43-.95.77-1.94 1.04-2.95l.01-.04-.66-.23Z" fill="url(#d)" /><defs><linearGradient id="a" x1="10.5" y1="22.15" x2="10.5" y2="34.52" gradientUnits="userSpaceOnUse"><stop stop-color="#066587" /><stop offset="1" stop-color="#0D3766" /></linearGradient><linearGradient id="b" x1="21" y1="22.15" x2="21" y2="34.78" gradientUnits="userSpaceOnUse"><stop stop-color="#066587" /><stop offset="1" stop-color="#0D3766" /></linearGradient><linearGradient id="c" x1="31.5" y1="22.45" x2="31.5" y2="34.49" gradientUnits="userSpaceOnUse"><stop stop-color="#066587" /><stop offset="1" stop-color="#0D3766" /></linearGradient><linearGradient id="d" x1="42.5" y1="22.45" x2="42.5" y2="34.49" gradientUnits="userSpaceOnUse"><stop stop-color="#075D89" /><stop offset="1" stop-color="#0D3766" /></linearGradient></defs></svg>