<!-- by TradeStack --><svg width="56" height="56" viewBox="0 0 56 56" xmlns="http://www.w3.org/2000/svg"><path fill="#F0F3FA" d="M0 0h56v56H0z"/><path fill-rule="evenodd" d="m15.12 18 .2-1H23l-.26 1h-.6c-.8 0-1.28 1.3-1.43 1.84L17.1 34.6c-.62 2.01-1.71 4.4-5.04 4.4-3.32 0-3.94-2.12-4.03-2.84-.09-.72.04-2.26 1.46-2.26 1.14 0 1.49 1.32 1.52 1.98.02.57.29 1.7 1.13 1.7 1.21 0 1.97-2.65 2.2-3.97l2.88-13.77c.25-1.34-.66-1.85-1.14-1.84h-.95Zm4.8 20h-1.16l1.01-6.35 1.04.24c-.16 3.59 1.83 5.71 3.4 5.71 1.57 0 2.81-1.37 2.81-3.1 0-1.51-.36-2.17-.96-3.26l-.27-.5c-.2-.38-.58-.84-1.03-1.39-1.24-1.5-3.01-3.65-3.01-6.5 0-3.87 2.7-5.85 4.92-5.85a4.98 4.98 0 0 1 3.64 1.9l.59-1.55h1.04l-1.13 6.29-.96-.32c.08-4.33-2-4.88-2.74-4.88-.75 0-2.4.35-2.4 2.74 0 2.02 1.62 3.9 2.43 4.84l.33.4.14.17c.69.87 2.6 3.3 2.6 6.4 0 3.37-2.24 6.01-5.2 6.01a5.86 5.86 0 0 1-4.55-2.26L19.92 38Zm16.86 1h-8.1l.4-1.22a1.88 1.88 0 0 0 1.95-1.77l3.27-15.99c.22-1.4-.5-2-.88-2.02h-1.16l.27-1H39c5.5 0 6 3.45 6 4.63 0 1.18-.12 2.16-1.08 3.6-.78 1.16-2.99 1.86-4 2.06a5.26 5.26 0 0 1 3.82 5.1c0 5.56-4.64 6.72-6.96 6.6Zm-.07-12.72 1.48-7.08c.04-.24.3-.73 1.09-.73.97 0 2.12.55 2.12 3.24 0 2.7-1.37 4.57-4.26 4.57h-.43Zm-.3 1.52-1.4 6.84c-.24.97-.26 2.91 1.52 2.91 2.22 0 3.16-2.65 3.42-5.48.26-2.84-1.03-4.7-3.54-4.27Z" fill="#006940"/></svg>