<!-- by TradeStack --><svg width="56" height="56" viewBox="0 0 56 56" xmlns="http://www.w3.org/2000/svg"><path fill="#F0F3FA" d="M0 0h56v56H0z"/><path d="M33 25.23a4.42 4.42 0 0 1 1.63-.9c.16-.04.32-.06.5-.07h.71c.08 0 .24.03.48.1.68.15 1.16.58 1.45 1.27.15.37.23.74.23 1.12A1790.68 1790.68 0 0 0 38 32h-.03L35 32v-4.56c0-.48-.07-1.26-.6-1.41-1.1-.32-1.4.9-1.4 1.72V32h-2.96c-.03 0-.04-.01-.04-.04V21.01l.01-.01H33v4.23ZM4 28.47h3.01l.01.02c.05.45.1.92.42 1.27.1.1.2.17.33.22.32.1.59.06.81-.13.53-.45.42-1.48.42-2.1V21h2.98a.02.02 0 0 1 .02.01v7.16c0 2.08-1.41 3.79-3.59 3.83l-1.15-.01c-1.64-.05-3.12-.89-3.26-2.64v-.88ZM17.51 24h.02a4.87 4.87 0 0 1 3.02 1.07 3.96 3.96 0 0 1 1.34 4.01 3.44 3.44 0 0 1-1.76 2.3 4.93 4.93 0 0 1-2.64.62h-.4a4.93 4.93 0 0 1-2.95-1.16 3.44 3.44 0 0 1-1.04-1.79 3.96 3.96 0 0 1 2.18-4.53A4.88 4.88 0 0 1 17.5 24h.01Zm-.02 6.34h.1c.33-.02.61-.13.85-.35.6-.54.66-1.52.62-2.27a3.23 3.23 0 0 0-.3-1.24 1.4 1.4 0 0 0-1.5-.79 1.4 1.4 0 0 0-1 .77c-.18.36-.28.77-.31 1.25-.05.75-.01 1.73.6 2.28a1.33 1.33 0 0 0 .94.35ZM45.78 25.09c0 .07.02.07.04 0a.5.5 0 0 1 .06-.13c.52-.75 1.45-1 2.32-.96l.64.09c.42.06.81.22 1.19.47a2.18 2.18 0 0 1 .97 1.7v5.68c0 .04-.02.06-.06.06H48v-4.77c0-.34.04-.71-.1-1.03-.18-.43-.5-.58-.94-.48-.53.1-.78.38-.96.85V32h-3v-8h2.78v1.09ZM25.07 26.35c.05.11.14.2.27.27.28.14.6.23.89.3.54.12 1 .23 1.38.34.43.13.8.3 1.13.52.13.08.28.22.44.41.19.23.3.5.36.8a3.36 3.36 0 0 1-.21 1.68 1.8 1.8 0 0 1-.47.64c-.28.24-.61.4-.99.51-.35.1-.72.15-1.1.17h-1.4c-.56 0-1.06-.06-1.49-.17a2.9 2.9 0 0 1-.64-.27c-.3-.17-.52-.41-.68-.76-.2-.44-.28-.9-.24-1.38 0-.03.02-.05.05-.05h2.3v.02l.05.43a1 1 0 0 0 .1.4c.13.22.31.36.54.41l.38.07h.3c.29-.05.54-.13.7-.4a.7.7 0 0 0 .07-.32v-.32a.64.64 0 0 0-.25-.4 2.09 2.09 0 0 0-.7-.35 46.51 46.51 0 0 0-1.5-.45 3.17 3.17 0 0 1-1.24-.65 1.69 1.69 0 0 1-.41-.58 1.7 1.7 0 0 1-.13-.69c0-.3.03-.55.08-.76.09-.31.2-.56.35-.75.3-.38.72-.63 1.16-.77a5.48 5.48 0 0 1 1.79-.25l.77.04a3.5 3.5 0 0 1 1.51.43c.3.18.54.42.72.72a2.72 2.72 0 0 1 .35 1.37c0 .01 0 .02-.02.02h-2.27c-.07 0-.1-.03-.11-.1a2.43 2.43 0 0 0-.08-.4 1.05 1.05 0 0 0-.71-.76 1.9 1.9 0 0 0-.29-.07.65.65 0 0 0-.73.48c-.02.05-.04.16-.05.3-.02.15-.01.25.02.32ZM39 24h3v8h-3zM39 21h3v2h-3z" fill="#E60012"/></svg>