<?xml version='1.0' encoding='utf-8'?>
<!-- by TradeStack -->
<svg width="56" height="56" viewBox="0 0 56 56" fill="none" xmlns="http://www.w3.org/2000/svg">
<rect width="56" height="56" fill="#F0F3FA" />
<path fill-rule="evenodd" clip-rule="evenodd" d="M23.1307 17.2183C22.6807 15.9816 22.5701 13.4613 22.5685 12C16.4055 14.2916 12 20.3721 12 27.5128C12 36.6184 19.1634 44 28 44C36.8365 44 44 36.6184 44 27.5128C44 20.7746 40.0771 14.9804 34.4563 12.4231C38.0893 16.7299 39.0702 20.3972 39.6834 22.6895C40.0333 23.9978 40.2635 24.8581 40.7985 25.1338C42.3348 25.9253 43.1728 33.1932 41.7063 33.9128C40.9624 34.2778 40.8654 33.7541 40.7499 33.1305C40.6377 32.5248 40.508 31.8249 39.751 31.754C38.5219 31.6389 37.2836 33.7689 36.818 34.8482L33.1867 33.1932C33.2565 32.8574 33.1308 31.8835 32.0694 30.6746C31.0079 29.4657 30.1839 29.4033 29.9046 29.5233L26.5526 27.7963C26.5615 27.7318 26.5705 27.6702 26.5791 27.611C26.705 26.7443 26.7604 26.3628 25.7146 24.3422C25.0262 23.0122 24.6294 22.8294 24.3119 22.6831C24.114 22.5919 23.9469 22.515 23.7593 22.1835C23.5291 21.7768 23.5157 21.035 23.5003 20.1836C23.483 19.227 23.4633 18.132 23.1307 17.2183ZM25.6447 20.6004C26.2034 20.0007 27.7118 19.1612 29.2761 20.6004C29.8813 20.5044 31.3152 20.6436 32.209 21.9676C33.3264 23.6227 33.6755 25.7095 31.3012 24.9179C31.2133 24.8886 31.1232 24.8587 31.0312 24.8282C28.6386 24.0343 24.9722 22.8178 25.6447 20.6004Z" fill="#136E9B" />
</svg>