<!-- by TradeStack --><svg width="56" height="56" viewBox="0 0 56 56" xmlns="http://www.w3.org/2000/svg"><path fill="#F0F3FA" d="M0 0h56v56H0z"/><path d="M34.72 12.41a13.99 13.99 0 0 0-7.74.28 11.45 11.45 0 0 0-4.31 2.35 6.7 6.7 0 0 0-1.24 1.46c-.4.61-.72 1.17-.97 1.66a9.41 9.41 0 0 0-1.04 4.55c.16 1.39.5 2.71 1.04 3.98.05.45.26.77.62.98.7.4 1.17.74 1.43 1-.25.17-.46.25-.64.26l.68.79 2.34 2 3.47 1.94c.53-.1 1.2-.19 1.94-.27 2.1-.25 4.7-.55 5.7-1.8-1.7-1.03-5.6-3.43-6.54-5.01-.6-1-.98-2.03-1.16-3.1-.55-3.28 1.2-6.05 4.15-7.33l1.34-.48c1.79-.43 4-.62 5.75.15.22.1.23.09.02-.04l-1.01-1.7c-.05-.05-.05-.1 0-.14a15 15 0 0 0-3.83-1.53Z" fill="url(#a)"/><path d="M40.2 19.05c-1.85-5.16-9.5-6.38-13.1-6.35.63-.34 6.6-2.04 12.33 1.81a15.44 15.44 0 0 1 6.65 12.98l-6.65 2.9c1.02-1.63 2.62-6.18.77-11.34Z" fill="url(#b)"/><path d="M16.94 29.16a.35.35 0 0 1-.12.04c-.43-3 0-5.87 1.28-8.6.01-.03.03-.03.05-.01l.06.03v.01a15.54 15.54 0 0 0-1.27 8.53Z" fill="#0E4E9C"/><path d="M20.46 26.7s2.5-2.32 3.57-.79c1.09 1.53-1.32 2.98-2.16 3.02a4.09 4.09 0 0 0-2.6 2.53c-.47 1.23-.08 2.5.49 3.66-.32.15-.59.16-.8.02a14.22 14.22 0 0 1-2.14-5.94c.04 0 .08-.02.12-.04l.72 2.88c.01.07.05.1.12.09.04 0 .06-.03.06-.08 0-2.14.88-3.93 2.62-5.36Z" fill="#0E4E9C"/><path d="M48.99 25.84v-.05l-.01-.01c-.02-.02-.04-.02-.06 0-9.95 5.2-20.66 8.97-31.83 9.44a9.9 9.9 0 0 1-5.18-.87c-1.2-.59-1.71-1.53-1.51-2.83.14-.87.84-1.94 1.4-2.57a20.62 20.62 0 0 1 2.87-2.69v-.02c-.02-.02-.03-.03-.05-.01-1.91 1.2-3.7 2.6-5.36 4.18-.72.7-1.59 1.77-1.98 2.72-.63 1.57-.2 2.71 1.28 3.43.77.37 1.46.59 2.07.66 2.36.29 5.25.38 7.92 0 11.88-2 20.63-5.61 30.44-11.38Z" fill="url(#c)"/><path d="M23.2 27.3c.3.03.55-.16.57-.41.02-.26-.2-.48-.5-.5-.28-.03-.54.15-.56.4-.02.26.2.49.5.51Z" fill="#fff"/><path d="M40.47 38.72a15.6 15.6 0 0 0 5.61-11.21c-1.71.91-5.41 2.79-6.87 3.48-.25.54-.54.98-.89 1.33l-1.48-.34-5.33 2a.48.48 0 0 1-.38.16.12.12 0 0 0-.09.04.13.13 0 0 0-.03.08c0 .04.01.08.04.12 2.04.44 3.96.33 5.76-.32.26-.1.3-.04.1.17-4.08 4.24-10.69 5.64-15.83 2.4l-.81.34c2.3 2.5 5.01 4.07 8.13 4.72 1.53.32 3.07.4 4.61.22a13.96 13.96 0 0 0 7.46-3.2Z" fill="url(#d)"/><defs><linearGradient id="a" x1="36.72" y1="23.38" x2="22.83" y2="16.48" gradientUnits="userSpaceOnUse"><stop stop-color="#6985B7"/><stop offset="1" stop-color="#094B99"/></linearGradient><linearGradient id="b" x1="29.11" y1="12.98" x2="42.53" y2="28.11" gradientUnits="userSpaceOnUse"><stop stop-color="#3B68AB"/><stop offset=".48" stop-color="#C4CCDF"/><stop offset="1" stop-color="#5270AC"/></linearGradient><linearGradient id="c" x1="7" y1="31.62" x2="49" y2="31.62" gradientUnits="userSpaceOnUse"><stop stop-color="#285C96"/><stop offset=".52" stop-color="#5B7CB1"/><stop offset="1" stop-color="#82A0C4"/></linearGradient><linearGradient id="d" x1="42.63" y1="29.03" x2="36.02" y2="38.93" gradientUnits="userSpaceOnUse"><stop stop-color="#3F68AA"/><stop offset="1" stop-color="#1F54A2"/></linearGradient></defs></svg>