<!-- by TradeStack --><svg width="56" height="56" viewBox="0 0 56 56" xmlns="http://www.w3.org/2000/svg"><path fill="#F0F3FA" d="M0 0h56v56H0z"/><path d="m42 23.94-.02 3.48c0 .05-.02.08-.07.08-4.4-.03-8.82-.03-13.3 0-.07 0-.11-.04-.11-.1l.01-13.3c0-.06.04-.1.1-.1h10.42c1.04 0 1.86.42 2.45 1.26.21.29.35.6.44.93a5 5 0 0 1 .07 1.01v6.74Z" fill="url(#a11tltnc2)"/><path d="M35.35 18.14a1.17 1.17 0 1 0 0-2.34 1.17 1.17 0 0 0 0 2.34Z" fill="#fff"/><path d="M27.5 27.45c0 .03-.06.05-.1.05H14.1c-.05 0-.1-.03-.1-.1l.02-7.33c-.02-.92-.03-1.83-.01-2.75 0-.65.06-1.1.16-1.37.18-.5.47-.93.86-1.27.41-.35.87-.57 1.39-.65.13-.02.5-.03 1.1-.03h9.87c.07 0 .11.04.11.12v13.33Z" fill="url(#b11tltnc2)"/><path d="M22.04 20h3.89c.05 0 .07.01.07.06l-.01 1.89c0 .03-.02.05-.06.05h-3.85c-.04 0-.08.03-.08.07v3.89c0 .03 0 .04-.03.04h-1.93c-.03 0-.04-.02-.04-.05v-3.86c0-.05-.03-.08-.09-.08L16.07 22c-.05 0-.07-.02-.07-.07v-1.85c0-.06.03-.08.1-.08h3.85c.03 0 .05-.03.05-.06V16.2c0-.12.02-.18.15-.18l1.77-.01c.05 0 .08.02.08.07v3.85c0 .05-.01.08.04.08ZM32.5 18.65a.84.84 0 1 0 0-1.69.84.84 0 0 0 0 1.69ZM37.97 19.56a.84.84 0 1 0 0-1.69.84.84 0 0 0 0 1.69ZM36.29 20.08c-.03 0-.04 0-.04.03l.05 5.46c0 .15-.05.28-.14.38a.12.12 0 0 1-.08.04c-.6.04-1.2.04-1.77 0-.15 0-.24-.08-.27-.22a2.43 2.43 0 0 1-.06-.5V23.9c0-.05.01-.07.05-.08l.22-.03c.22-.02.36-.05.42-.11.13-.12.12-.34-.03-.65-.16-.36-.33-.7-.49-1.02a.9.9 0 0 1-.1-.42l.01-1.52c0-.03-.01-.04-.04-.04a.29.29 0 0 0-.14.08c-.78.75-1.54 1.07-2.3.98-.04 0-.05-.03-.03-.07l.4-.77a.13.13 0 0 1 .08-.06c.46-.14.86-.37 1.18-.7a6 6 0 0 1 .97-.83c.34-.23.84-.3 1.52-.23.49.05.91.34 1.27.89l.73 1.16c.23.38.55.73.95 1.07.05.04.08.1.07.16l-.07.59c0 .05-.03.07-.08.05-.41-.14-.79-.39-1.12-.74-.2-.2-.48-.56-.81-1.06l-.28-.4a.13.13 0 0 0-.07-.06Z" fill="#fff"/><path d="M33.28 19.02c.07.03.07.07.03.13-.41.47-.81.75-1.2.84a.72.72 0 0 0-.38.22l-1.04 1.12c-.1.1-.22.21-.36.3-.1.07-.2.07-.34 0-.2-.09-.27-.23-.24-.43 0-.1.08-.2.22-.35.51-.55 1.07-1.12 1.67-1.72.11-.11.24-.2.38-.23.45-.13.87-.09 1.26.12ZM39.57 22.21a18.51 18.51 0 0 1-1.48-1.46 3.3 3.3 0 0 1-.55-.85c-.04-.09-.01-.14.08-.15.5-.06.88.05 1.12.35.45.54.91 1.05 1.4 1.52.22.22.23.42.03.6s-.4.17-.6 0ZM31.1 23.63c-.23 0-.43-.05-.6-.12-.1-.05-.13-.13-.1-.22a17.57 17.57 0 0 1 1.02-2 .08.08 0 0 1 .08-.05c.67.08 1.24-.06 1.7-.4.13-.1.23-.07.3.08l1.05 2.32c.03.08.03.15-.01.22a.23.23 0 0 1-.19.12 9.76 9.76 0 0 0-.55.06c-.7.03-1.6.02-2.7-.01ZM36.9 21.33l-.16.17a.17.17 0 0 1-.15.07c-.07 0-.1-.04-.1-.1 0-.2.03-.4.09-.6.02-.07.04-.07.08-.02l.24.38c.03.03.02.07 0 .1ZM36.95 21.36c0-.02.01-.03.03-.04H37c.4.54.93.94 1.58 1.2.03.01.04.03.04.06 0 1.11-.02 2.14-.03 3.09 0 .1-.03.2-.08.28a.12.12 0 0 1-.08.06c-.44.09-.9.08-1.36-.02-.1-.02-.15-.09-.15-.19 0-1.44 0-2.92.03-4.44ZM33.24 25.68c0 .15-.1.23-.27.25-.4.04-.8.03-1.17-.02-.11-.01-.17-.08-.17-.19l-.01-1.84c0-.04.02-.06.05-.06h1.52c.05 0 .07.03.08.08 0 .64 0 1.23-.03 1.78Z" fill="#fff"/><path d="M27.5 28.87a1 1 0 0 0-.04-.3c-.01-.05-.04-.07-.09-.07H14.1c-.07 0-.1.03-.1.1v10.55c.01 1 .45 1.8 1.33 2.39.46.3.92.46 1.4.46h10.7c.02 0 .03-.01.03-.03 0-4.37 0-8.74.04-13.1Z" fill="url(#c11tltnc2)"/><path d="M41.98 37.93c0 1.07-.03 1.7-.09 1.9A2.89 2.89 0 0 1 39.13 42a103.44 103.44 0 0 0-1.57 0h-9c-.02 0-.03-.02-.03-.04l-.03-13.33c0-.08.04-.12.13-.12l13.23-.01c.1 0 .14.05.14.14l-.02 9.3Z" fill="url(#d11tltnc2)"/><path d="M35.05 30.8c.03.03.06.03.09 0a2.93 2.93 0 0 1 4.42.45c.33.5.5 1.06.5 1.69 0 .79-.37 1.74-1.1 2.86-.36.56-.82 1.15-1.36 1.77-.68.79-1.5 1.67-2.46 2.66-.02.03-.05.03-.08 0a18.68 18.68 0 0 1-4.08-4.79 7.23 7.23 0 0 1-.7-1.47c-.3-.9-.25-1.75.17-2.52a2.59 2.59 0 0 1 2.07-1.4c.92-.11 1.77.14 2.53.75ZM24.93 33.73c.08 1.64-.17 3.2-.74 4.7a4.06 4.06 0 0 1-1.25 1.83c-.11.09-.15.06-.12-.07.22-1 .2-1.89-.1-2.64-.37-.92-1.07-1.34-2.12-1.24-.9.08-1.47.6-1.73 1.53a5.3 5.3 0 0 0 0 2.43c.02.06 0 .07-.05.04-.5-.32-.93-.9-1.27-1.74-.65-1.62-.9-3.37-.77-5.24.06-.9.27-1.65.63-2.24.47-.77 1.12-1.1 1.95-1 .47.05.93.2 1.37.44.08.04.16.04.24 0 .4-.23.81-.37 1.24-.43.94-.14 1.65.23 2.13 1.1.35.65.55 1.5.6 2.53Z" fill="#fff"/><path d="M20.84 31.04c.94-.6 1.65-.66 2.15-.19.03.04.03.07-.02.1-1.08.58-2.54.63-4.36.15-.05-.01-.07-.05-.04-.1.19-.36.53-.5 1.03-.43.37.06.75.21 1.13.46.04.03.07.03.1 0Z" fill="#27257D"/><defs><linearGradient id="a11tltnc2" x1="35.25" y1="14" x2="35.25" y2="27.5" gradientUnits="userSpaceOnUse"><stop offset=".1" stop-color="#26237A"/><stop offset=".97" stop-color="#080043"/></linearGradient><linearGradient id="b11tltnc2" x1="20.75" y1="14" x2="20.75" y2="27.5" gradientUnits="userSpaceOnUse"><stop stop-color="#919397"/><stop offset="1" stop-color="#454547"/></linearGradient><linearGradient id="c11tltnc2" x1="20.75" y1="28.5" x2="20.75" y2="42" gradientUnits="userSpaceOnUse"><stop stop-color="#27257D"/><stop offset="1" stop-color="#080043"/></linearGradient><linearGradient id="d11tltnc2" x1="35.25" y1="28.5" x2="35.25" y2="42" gradientUnits="userSpaceOnUse"><stop offset=".15" stop-color="#8E9094"/><stop offset="1" stop-color="#4A4A4C"/></linearGradient></defs></svg>