<?xml version='1.0' encoding='utf-8'?>
<!-- by TradeStack -->
<svg width="56" height="56" viewBox="0 0 56 56" xmlns="http://www.w3.org/2000/svg"><path fill="#F0F3FA" d="M0 0h56v56H0z" /><path d="M15 30v-4c0-1-.57-.99-1-.99-.43 0-1-.01-1 .99v4c0 .99.57.99 1 .99.43 0 1 .01 1-.99Zm-4 .99V25c0-1.6 1.06-2.01 3-2.01s3 .42 3 2.01V31c0 1.6-1.06 2.01-3 2.01s-3-.42-3-2.01ZM24 23v7.53c0 2.2-1.1 2.47-3 2.47s-3-.27-3-2.47V23h2v7c0 1 .53 1 1 1s1 0 1-1v-7h2ZM27 25v3h1.04c.82 0 .96-.22.96-.87v-1.38c0-.52-.2-.75-.7-.75H27Zm-2 8V23h2.84c2.47 0 3.16.51 3.16 2.39v1.2c0 1.52-.6 1.87-1.57 2.03v.03c1.03.22 1.57.4 1.57 1.63V33h-2v-2.86c0-.41-.24-.6-1.01-.6H27V33h-2ZM34 25v6h1.37c.52 0 .63-.22.63-.97v-4.06c0-.75-.11-.97-.63-.97H34Zm-2 8V23h3.09c2.21 0 2.91.47 2.91 3.76v2.5c0 3.28-.7 3.74-2.91 3.74H32ZM42.07 29l-.56-4.62h-.02L40.93 29h1.14ZM38 33l1.56-10h3.88L45 33h-2.42l-.3-2.4h-1.55l-.3 2.4H38ZM48.67 33l-1.64-7.79H47V33h-2V23h3.33l1.64 7.79.03-.03.02-7.76H52v10h-3.33ZM6 29H4v1.3C4 31.8 5.18 33 6.64 33h.72C8.82 33 10 31.8 10 30.3V27l-2 3v.09C8 31 7.42 31 7 31c-.42 0-1 0-1-.7V29Z" fill="#404041" /><path d="M11 23H8.7L8 26.7h.81L8 29l2.57-3.61H9.53L11 23Z" fill="#ED1F27" /></svg>