<!-- by TradeStack --><svg width="56" height="56" viewBox="0 0 56 56" xmlns="http://www.w3.org/2000/svg"><path fill="#1C2764" d="M0 0h56v56H0z"/><path fill-rule="evenodd" d="M10 22H8v6.42c0 .58 0 1.43-1.04 1.43-.85 0-1.22-.5-1.3-.74L4 29.64c.32.6 1.33 1.78 2.8 1.78 2.39 0 3.13-1.65 3.2-2.48V22Zm.44 9 2.8-7h1.39l2.4 6h-1.6l-.4-1h-2.3l-.74 2h-1.55Zm2.65-3h1.56l-.8-2.07L13.1 28Zm7.33 2a3.4 3.4 0 0 0 2.96-1.74l-1.4-.72c-.34.52-.9.86-1.56.86a1.88 1.88 0 0 1-1.86-1.9c0-1.05.84-1.9 1.86-1.9.58 0 1.1.27 1.43.7l1.55-.51A3.4 3.4 0 0 0 20.42 23 3.46 3.46 0 0 0 17 26.5c0 1.93 1.53 3.5 3.42 3.5ZM39 30c1.66 0 3-1.57 3-3.5S40.66 23 39 23s-3 1.57-3 3.5 1.34 3.5 3 3.5Zm0-1.6c.9 0 1.63-.85 1.63-1.9 0-1.05-.73-1.9-1.63-1.9-.9 0-1.63.85-1.63 1.9 0 1.05.73 1.9 1.63 1.9ZM24 22v8h1.5v-2.06l.58-.54 1.87 2.6h1.98l-2.83-3.53L29.8 24h-2l-2.3 2.14V22H24Zm7.01 7v-7h2.8c1.24 0 2.25.93 2.25 2.09 0 1.15-1 1.91-2.25 1.91h-1.2v3h-1.6Zm2.6-6H32.5v2h1.12c.49 0 .88-.45.88-1s-.4-1-.88-1Zm11.89 7H44v-7h-1.5v-1H48v1h-2.5v7Z" fill="#fff"/><path d="M49.44 28.07c-.21-.01-.6-.2-.47-.84.13-.64.74-4.05 1.03-5.68.03-.17.11-.52.3-.55.16-.02.62.37.95.65l.3.25c.26.18.65 1.02.33 1.8l-1.65 4.06c-.04.1-.25.3-.79.3ZM49.06 31c.59 0 1.06-.46 1.06-1.03 0-.57-.47-1.03-1.06-1.03-.59 0-1.06.46-1.06 1.03 0 .57.47 1.03 1.06 1.03Z" fill="#29ABE1"/><path fill-rule="evenodd" d="M38 36v-5h.5v4.5h.5v.5h-1Zm-6.5-2.5v1.65c.02.28.29.85 1.22.85v-.49c-.26 0-.72-.12-.72-.62V33.5h.7V33H32v-2h-.5v2H31v.5h.5ZM20 31h-.5v2.38a1.5 1.5 0 1 0 .5 1.02V31Zm-.5 3.5a1 1 0 1 1-2 0 1 1 0 0 1 2 0Zm17 1.12a1.5 1.5 0 1 1 .5-1.14V36h-.5v-.38Zm0-1.12a1 1 0 1 1-2 0 1 1 0 0 1 2 0Zm-14.5-3h.5v.5H22v-.5Zm0 1.5h.5v3H22v-3Zm7.5-1.5H29v.5h.5v-.5Zm0 1.5H29v3h.5v-3Zm-3 2.62a1.5 1.5 0 1 1 .5-.97V36.09a1.5 1.5 0 0 1-3-.09h.5a1 1 0 0 0 2 0v-.38Zm0-1.12a1 1 0 1 1-2 0 1 1 0 0 1 2 0Z" fill="#fff"/></svg>