<!-- by TradeStack --><svg width="56" height="56" viewBox="0 0 56 56" xmlns="http://www.w3.org/2000/svg"><path fill="#F0F3FA" d="M0 0h56v56H0z"/><path d="M20 14.26c-4.8 2.8-8 7.9-8 13.74 0 4.86 2.22 9.2 5.73 12.14C19.66 37.07 20 33.28 20 31V14.26Zm-.7 27.04A16.65 16.65 0 0 0 29 44V24.5c0-.93-.32-2.29-3-2.48v9.1c0 4.54-3.9 8.3-6.7 10.18ZM33 43.37a16.3 16.3 0 0 0 10.75-9.62 10.36 10.36 0 0 1-6.1 2.25H35.6v-1c2.06-.17 6.4-1.6 6.4-6 0-5.5-4.86-6-6.4-6h-1.02c-.34 0-1.58.2-1.58 1v19.37Zm11-20.44A8.77 8.77 0 0 0 38.68 21H26v-8.83c.79-.11 1.6-.17 2.42-.17A16.4 16.4 0 0 1 44 22.93Z" fill="url(#aykwuehb4)"/><defs><linearGradient id="aykwuehb4" x1="28.32" y1="12" x2="28.32" y2="44" gradientUnits="userSpaceOnUse"><stop stop-color="#5CC6DC"/><stop offset="1" stop-color="#01328F"/></linearGradient></defs></svg>