<!-- by TradeStack --><svg width="56" height="56" viewBox="0 0 56 56" xmlns="http://www.w3.org/2000/svg"><path fill="#F0F3FA" d="M0 0h56v56H0z"/><path d="M21.14 33H28V18l-6.21 2.82L21.14 33Zm-.38 0V21.28l-4.6 2.09-.47 9.63h5.08Zm-5.39 0v-9.28l-2.6 1.18-.39 8.1h2.99Zm-3.3 0v-7.78l-1.87.85L9.87 33h2.2Zm-2.44 0v-6.68L8 27.06V33h1.63Z" fill="#010B4C"/><path d="M34.86 33H28V18l6.21 2.82.65 12.18Zm.37 0V21.28l4.62 2.09.46 9.63h-5.08Zm5.4 0v-9.28l2.6 1.18.39 8.1h-2.99Zm3.3 0v-7.78l1.87.85.33 6.93h-2.2Zm2.44 0v-6.68l1.63.74V33h-1.63Z" fill="url(#a)"/><path d="M8 33.5v.86L28 36l20-1.64v-.86H28.38l-.38 2-.38-2H8Z" fill="#8E939F"/><defs><linearGradient id="a" x1="28" y1="19.42" x2="48.36" y2="22.92" gradientUnits="userSpaceOnUse"><stop stop-color="#B8B8D4"/><stop offset="1" stop-color="#000C4A"/></linearGradient></defs></svg>