<!-- by TradeStack --><svg width="56" height="56" viewBox="0 0 56 56" xmlns="http://www.w3.org/2000/svg"><path fill="#F0F3FA" d="M0 0h56v56H0z"/><path d="M28 46c8.28 0 15-6.96 15-15.55 0-4.98-3.34-9.56-7.14-13.6-7.32-.4-11.33-.4-11.38.5-.05.9.31 2.1 5.78 5.56 4.37 2.76 5.35 6.39 5.3 7.86 0 6.95-7.35 12.49-11.54 14.68 1.27.36 2.6.55 3.98.55Zm6.96-30.08c-1.2-1.22-2.42-2.39-3.57-3.5-1.27-1.21-2.46-2.35-3.47-3.42-1.1 1.06-2.17 2.06-3.2 3.04-6.53 6.13-11.72 11-11.72 18.4 0 1.79.29 3.5.82 5.1l.34-.05c6.41-.76 14.66-1.75 14.9-6.82.14-2.97-2-4.86-4-6.64-1.65-1.47-3.21-2.85-3.33-4.69-.19-3.11 8.39-2.3 13.23-1.42Z"/></svg>