<!-- by TradeStack --><svg viewBox="0 0 56 56" fill="none" xmlns="http://www.w3.org/2000/svg">
<rect width="56" height="56" fill="#F0F3FA"/>
<path d="M34.4519 38.287C35.2578 38.287 35.9111 37.6357 35.9111 36.8321C35.9111 36.0286 35.2578 35.3773 34.4519 35.3773C33.6459 35.3773 32.9926 36.0286 32.9926 36.8321C32.9926 37.6357 33.6459 38.287 34.4519 38.287Z" fill="#C8C9C7"/>
<path d="M28.4084 45C29.5253 45 30.4308 44.0972 30.4308 42.9837C30.4308 41.8701 29.5253 40.9674 28.4084 40.9674C27.2914 40.9674 26.386 41.8701 26.386 42.9837C26.386 44.0972 27.2914 45 28.4084 45Z" fill="#C8C9C7"/>
<path d="M44.5 31C44.7761 31 45 30.7761 45 30.5C45 30.2239 44.7761 30 44.5 30C44.2239 30 44 30.2239 44 30.5C44 30.7761 44.2239 31 44.5 31Z" fill="#C8C9C7"/>
<path d="M25.5 45C25.7761 45 26 44.7761 26 44.5C26 44.2239 25.7761 44 25.5 44C25.2239 44 25 44.2239 25 44.5C25 44.7761 25.2239 45 25.5 45Z" fill="#C8C9C7"/>
<path d="M41.6293 33.2977C42.3127 33.2977 42.8666 32.7455 42.8666 32.0642C42.8666 31.383 42.3127 30.8308 41.6293 30.8308C40.946 30.8308 40.3921 31.383 40.3921 32.0642C40.3921 32.7455 40.946 33.2977 41.6293 33.2977Z" fill="#C8C9C7"/>
<path d="M40.5 18C40.7761 18 41 17.7761 41 17.5C41 17.2239 40.7761 17 40.5 17C40.2239 17 40 17.2239 40 17.5C40 17.7761 40.2239 18 40.5 18Z" fill="#C8C9C7"/>
<path d="M39.5 23C39.7761 23 40 22.7761 40 22.5C40 22.2239 39.7761 22 39.5 22C39.2239 22 39 22.2239 39 22.5C39 22.7761 39.2239 23 39.5 23Z" fill="#C8C9C7"/>
<path d="M23.5 13C23.7761 13 24 12.7761 24 12.5C24 12.2239 23.7761 12 23.5 12C23.2239 12 23 12.2239 23 12.5C23 12.7761 23.2239 13 23.5 13Z" fill="#C8C9C7"/>
<path d="M35.9349 19.3814C36.5919 19.3814 37.1246 18.8503 37.1246 18.1953C37.1246 17.5403 36.5919 17.0093 35.9349 17.0093C35.2779 17.0093 34.7453 17.5403 34.7453 18.1953C34.7453 18.8503 35.2779 19.3814 35.9349 19.3814Z" fill="#C8C9C7"/>
<path d="M28.7812 14.9218C29.2367 14.9218 29.606 14.5537 29.606 14.0995C29.606 13.6454 29.2367 13.2772 28.7812 13.2772C28.3257 13.2772 27.9564 13.6454 27.9564 14.0995C27.9564 14.5537 28.3257 14.9218 28.7812 14.9218Z" fill="#C8C9C7"/>
<path d="M20.5 21C22.433 21 24 19.433 24 17.5C24 15.567 22.433 14 20.5 14C18.567 14 17 15.567 17 17.5C17 19.433 18.567 21 20.5 21Z" fill="#C8C9C7"/>
<path d="M17.2258 30.5382C18.0318 30.5382 18.6851 29.8868 18.6851 29.0833C18.6851 28.2798 18.0318 27.6284 17.2258 27.6284C16.4199 27.6284 15.7665 28.2798 15.7665 29.0833C15.7665 29.8868 16.4199 30.5382 17.2258 30.5382Z" fill="#C8C9C7"/>
<path d="M15.5 39C15.7761 39 16 38.7761 16 38.5C16 38.2239 15.7761 38 15.5 38C15.2239 38 15 38.2239 15 38.5C15 38.7761 15.2239 39 15.5 39Z" fill="#C8C9C7"/>
<path d="M16.7023 33.0763C16.9433 33.0763 17.1385 32.8816 17.1385 32.6414C17.1385 32.4012 16.9433 32.2065 16.7023 32.2065C16.4614 32.2065 16.2661 32.4012 16.2661 32.6414C16.2661 32.8816 16.4614 33.0763 16.7023 33.0763Z" fill="#C8C9C7"/>
<path d="M12 26C12.5523 26 13 25.5523 13 25C13 24.4477 12.5523 24 12 24C11.4477 24 11 24.4477 11 25C11 25.5523 11.4477 26 12 26Z" fill="#C8C9C7"/>
<path d="M30.5419 41.0228C30.8266 41.0228 31.0574 40.7927 31.0574 40.5089C31.0574 40.225 30.8266 39.9949 30.5419 39.9949C30.2572 39.9949 30.0264 40.225 30.0264 40.5089C30.0264 40.7927 30.2572 41.0228 30.5419 41.0228Z" fill="#004677"/>
<path d="M23 44C25.2091 44 27 42.2091 27 40C27 37.7909 25.2091 36 23 36C20.7909 36 19 37.7909 19 40C19 42.2091 20.7909 44 23 44Z" fill="#004677"/>
<path d="M38.2983 40.9596C39.5554 40.9596 40.5745 39.9436 40.5745 38.6903C40.5745 37.437 39.5554 36.421 38.2983 36.421C37.0412 36.421 36.0221 37.437 36.0221 38.6903C36.0221 39.9436 37.0412 40.9596 38.2983 40.9596Z" fill="#004677"/>
<path d="M38.2904 34.6024C39.2497 34.6024 40.0273 33.8271 40.0273 32.8708C40.0273 31.9144 39.2497 31.1391 38.2904 31.1391C37.3312 31.1391 36.5536 31.9144 36.5536 32.8708C36.5536 33.8271 37.3312 34.6024 38.2904 34.6024Z" fill="#004677"/>
<path d="M31.335 44.4466C31.5759 44.4466 31.7712 44.2519 31.7712 44.0117C31.7712 43.7715 31.5759 43.5768 31.335 43.5768C31.0941 43.5768 30.8988 43.7715 30.8988 44.0117C30.8988 44.2519 31.0941 44.4466 31.335 44.4466Z" fill="#004677"/>
<path d="M26.7588 38.4769C26.9997 38.4769 27.195 38.2822 27.195 38.042C27.195 37.8019 26.9997 37.6071 26.7588 37.6071C26.5179 37.6071 26.3226 37.8019 26.3226 38.042C26.3226 38.2822 26.5179 38.4769 26.7588 38.4769Z" fill="#004677"/>
<path d="M27.5 41C27.7761 41 28 40.7761 28 40.5C28 40.2239 27.7761 40 27.5 40C27.2239 40 27 40.2239 27 40.5C27 40.7761 27.2239 41 27.5 41Z" fill="#004677"/>
<path d="M43.5 34C43.7761 34 44 33.7761 44 33.5C44 33.2239 43.7761 33 43.5 33C43.2239 33 43 33.2239 43 33.5C43 33.7761 43.2239 34 43.5 34Z" fill="#004677"/>
<path d="M43.5 32C43.7761 32 44 31.7761 44 31.5C44 31.2239 43.7761 31 43.5 31C43.2239 31 43 31.2239 43 31.5C43 31.7761 43.2239 32 43.5 32Z" fill="#004677"/>
<path d="M37.7987 35.9386C38.0396 35.9386 38.2349 35.7439 38.2349 35.5037C38.2349 35.2635 38.0396 35.0688 37.7987 35.0688C37.5578 35.0688 37.3625 35.2635 37.3625 35.5037C37.3625 35.7439 37.5578 35.9386 37.7987 35.9386Z" fill="#004677"/>
<path d="M40.8125 34.4442C41.0534 34.4442 41.2487 34.2495 41.2487 34.0094C41.2487 33.7692 41.0534 33.5745 40.8125 33.5745C40.5716 33.5745 40.3763 33.7692 40.3763 34.0094C40.3763 34.2495 40.5716 34.4442 40.8125 34.4442Z" fill="#004677"/>
<path d="M41.5 38C41.7761 38 42 37.7761 42 37.5C42 37.2239 41.7761 37 41.5 37C41.2239 37 41 37.2239 41 37.5C41 37.7761 41.2239 38 41.5 38Z" fill="#004677"/>
<path d="M32.6674 40.8647C33.3244 40.8647 33.857 40.3337 33.857 39.6787C33.857 39.0236 33.3244 38.4926 32.6674 38.4926C32.0104 38.4926 31.4778 39.0236 31.4778 39.6787C31.4778 40.3337 32.0104 40.8647 32.6674 40.8647Z" fill="#004677"/>
<path d="M31.2795 38.3265C31.6386 38.3265 31.9298 38.0363 31.9298 37.6782C31.9298 37.3201 31.6386 37.0298 31.2795 37.0298C30.9203 37.0298 30.6291 37.3201 30.6291 37.6782C30.6291 38.0363 30.9203 38.3265 31.2795 38.3265Z" fill="#004677"/>
<path d="M31.5888 42.7781C31.948 42.7781 32.2391 42.4878 32.2391 42.1297C32.2391 41.7716 31.948 41.4814 31.5888 41.4814C31.2296 41.4814 30.9384 41.7716 30.9384 42.1297C30.9384 42.4878 31.2296 42.7781 31.5888 42.7781Z" fill="#004677"/>
<path d="M37.9652 30.7675C38.3244 30.7675 38.6156 30.4772 38.6156 30.1191C38.6156 29.761 38.3244 29.4707 37.9652 29.4707C37.606 29.4707 37.3149 29.761 37.3149 30.1191C37.3149 30.4772 37.606 30.7675 37.9652 30.7675Z" fill="#004677"/>
<path d="M36.2997 42.7703C36.8692 42.7703 37.3308 42.3101 37.3308 41.7424C37.3308 41.1747 36.8692 40.7145 36.2997 40.7145C35.7303 40.7145 35.2687 41.1747 35.2687 41.7424C35.2687 42.3101 35.7303 42.7703 36.2997 42.7703Z" fill="#004677"/>
<path d="M37.7115 20.1326C37.9962 20.1326 38.227 19.9025 38.227 19.6187C38.227 19.3348 37.9962 19.1047 37.7115 19.1047C37.4268 19.1047 37.196 19.3348 37.196 19.6187C37.196 19.9025 37.4268 20.1326 37.7115 20.1326Z" fill="#004677"/>
<path d="M27.3853 13.1349C27.9767 13.1349 28.456 12.657 28.456 12.0674C28.456 11.4779 27.9767 11 27.3853 11C26.794 11 26.3147 11.4779 26.3147 12.0674C26.3147 12.657 26.794 13.1349 27.3853 13.1349Z" fill="#004677"/>
<path d="M29.955 18.4167C30.358 18.4167 30.6846 18.091 30.6846 17.6892C30.6846 17.2875 30.358 16.9618 29.955 16.9618C29.552 16.9618 29.2253 17.2875 29.2253 17.6892C29.2253 18.091 29.552 18.4167 29.955 18.4167Z" fill="#004677"/>
<path d="M32 16C33.1046 16 34 15.1046 34 14C34 12.8954 33.1046 12 32 12C30.8954 12 30 12.8954 30 14C30 15.1046 30.8954 16 32 16Z" fill="#004677"/>
<path d="M41 22C42.1046 22 43 21.1046 43 20C43 18.8954 42.1046 18 41 18C39.8954 18 39 18.8954 39 20C39 21.1046 39.8954 22 41 22Z" fill="#004677"/>
<path d="M27.2109 18.4801C28.1701 18.4801 28.9478 17.7048 28.9478 16.7485C28.9478 15.7921 28.1701 15.0168 27.2109 15.0168C26.2516 15.0168 25.474 15.7921 25.474 16.7485C25.474 17.7048 26.2516 18.4801 27.2109 18.4801Z" fill="#004677"/>
<path d="M37.4656 24.5526C37.7065 24.5526 37.9018 24.3579 37.9018 24.1177C37.9018 23.8775 37.7065 23.6828 37.4656 23.6828C37.2247 23.6828 37.0294 23.8775 37.0294 24.1177C37.0294 24.3579 37.2247 24.5526 37.4656 24.5526Z" fill="#004677"/>
<path d="M36.3473 16.4322C36.5882 16.4322 36.7835 16.2375 36.7835 15.9973C36.7835 15.7571 36.5882 15.5624 36.3473 15.5624C36.1064 15.5624 35.9111 15.7571 35.9111 15.9973C35.9111 16.2375 36.1064 16.4322 36.3473 16.4322Z" fill="#004677"/>
<path d="M25.133 12.4312C25.4615 12.4312 25.7278 12.1657 25.7278 11.8382C25.7278 11.5107 25.4615 11.2452 25.133 11.2452C24.8045 11.2452 24.5381 11.5107 24.5381 11.8382C24.5381 12.1657 24.8045 12.4312 25.133 12.4312Z" fill="#004677"/>
<path d="M29.5 16C29.7761 16 30 15.7761 30 15.5C30 15.2239 29.7761 15 29.5 15C29.2239 15 29 15.2239 29 15.5C29 15.7761 29.2239 16 29.5 16Z" fill="#004677"/>
<path d="M26.9333 14.4316C27.1742 14.4316 27.3695 14.2369 27.3695 13.9967C27.3695 13.7565 27.1742 13.5618 26.9333 13.5618C26.6924 13.5618 26.4971 13.7565 26.4971 13.9967C26.4971 14.2369 26.6924 14.4316 26.9333 14.4316Z" fill="#004677"/>
<path d="M21.5 13C21.7761 13 22 12.7761 22 12.5C22 12.2239 21.7761 12 21.5 12C21.2239 12 21 12.2239 21 12.5C21 12.7761 21.2239 13 21.5 13Z" fill="#004677"/>
<path d="M29.5743 12.3363C29.8152 12.3363 30.0105 12.1416 30.0105 11.9014C30.0105 11.6612 29.8152 11.4665 29.5743 11.4665C29.3334 11.4665 29.1381 11.6612 29.1381 11.9014C29.1381 12.1416 29.3334 12.3363 29.5743 12.3363Z" fill="#004677"/>
<path d="M37 23C37.5523 23 38 22.5523 38 22C38 21.4477 37.5523 21 37 21C36.4477 21 36 21.4477 36 22C36 22.5523 36.4477 23 37 23Z" fill="#004677"/>
<path d="M34.6184 16.8274C34.9776 16.8274 35.2687 16.5371 35.2687 16.179C35.2687 15.8209 34.9776 15.5307 34.6184 15.5307C34.2592 15.5307 33.968 15.8209 33.968 16.179C33.968 16.5371 34.2592 16.8274 34.6184 16.8274Z" fill="#004677"/>
<path d="M34.5 21C34.7761 21 35 20.7761 35 20.5C35 20.2239 34.7761 20 34.5 20C34.2239 20 34 20.2239 34 20.5C34 20.7761 34.2239 21 34.5 21Z" fill="#004677"/>
<path d="M38.5997 18.5512C38.9589 18.5512 39.2501 18.2609 39.2501 17.9028C39.2501 17.5447 38.9589 17.2544 38.5997 17.2544C38.2406 17.2544 37.9494 17.5447 37.9494 17.9028C37.9494 18.2609 38.2406 18.5512 38.5997 18.5512Z" fill="#004677"/>
<path d="M24.9743 19.0492C25.3335 19.0492 25.6247 18.759 25.6247 18.4009C25.6247 18.0428 25.3335 17.7525 24.9743 17.7525C24.6151 17.7525 24.324 18.0428 24.324 18.4009C24.324 18.759 24.6151 19.0492 24.9743 19.0492Z" fill="#004677"/>
<path d="M38.3776 16.7643C38.9471 16.7643 39.4087 16.304 39.4087 15.7363C39.4087 15.1686 38.9471 14.7084 38.3776 14.7084C37.8082 14.7084 37.3466 15.1686 37.3466 15.7363C37.3466 16.304 37.8082 16.7643 38.3776 16.7643Z" fill="#004677"/>
<path d="M15.9886 24.3865C16.2733 24.3865 16.5041 24.1564 16.5041 23.8726C16.5041 23.5887 16.2733 23.3586 15.9886 23.3586C15.7039 23.3586 15.4731 23.5887 15.4731 23.8726C15.4731 24.1564 15.7039 24.3865 15.9886 24.3865Z" fill="#004677"/>
<path d="M18.1934 32.2619C18.5964 32.2619 18.923 31.9362 18.923 31.5344C18.923 31.1327 18.5964 30.807 18.1934 30.807C17.7904 30.807 17.4637 31.1327 17.4637 31.5344C17.4637 31.9362 17.7904 32.2619 18.1934 32.2619Z" fill="#004677"/>
<path d="M13.5 34C14.8807 34 16 32.8807 16 31.5C16 30.1193 14.8807 29 13.5 29C12.1193 29 11 30.1193 11 31.5C11 32.8807 12.1193 34 13.5 34Z" fill="#004677"/>
<path d="M12.5 23C12.7761 23 13 22.7761 13 22.5C13 22.2239 12.7761 22 12.5 22C12.2239 22 12 22.2239 12 22.5C12 22.7761 12.2239 23 12.5 23Z" fill="#004677"/>
<path d="M20.0175 22.2674C20.2584 22.2674 20.4537 22.0727 20.4537 21.8326C20.4537 21.5924 20.2584 21.3977 20.0175 21.3977C19.7766 21.3977 19.5813 21.5924 19.5813 21.8326C19.5813 22.0727 19.7766 22.2674 20.0175 22.2674Z" fill="#004677"/>
<path d="M17.6779 21.548C17.9188 21.548 18.1141 21.3533 18.1141 21.1131C18.1141 20.8729 17.9188 20.6782 17.6779 20.6782C17.437 20.6782 17.2417 20.8729 17.2417 21.1131C17.2417 21.3533 17.437 21.548 17.6779 21.548Z" fill="#004677"/>
<path d="M13.522 27.3043C13.763 27.3043 13.9583 27.1096 13.9583 26.8694C13.9583 26.6292 13.763 26.4345 13.522 26.4345C13.2811 26.4345 13.0858 26.6292 13.0858 26.8694C13.0858 27.1096 13.2811 27.3043 13.522 27.3043Z" fill="#004677"/>
<path d="M16.4962 36.421C16.7371 36.421 16.9324 36.2263 16.9324 35.9861C16.9324 35.7459 16.7371 35.5512 16.4962 35.5512C16.2553 35.5512 16.06 35.7459 16.06 35.9861C16.06 36.2263 16.2553 36.421 16.4962 36.421Z" fill="#004677"/>
<path d="M17.8841 41.4972C18.125 41.4972 18.3203 41.3025 18.3203 41.0623C18.3203 40.8221 18.125 40.6274 17.8841 40.6274C17.6432 40.6274 17.4479 40.8221 17.4479 41.0623C17.4479 41.3025 17.6432 41.4972 17.8841 41.4972Z" fill="#004677"/>
<path d="M13.3555 35.1954C13.5964 35.1954 13.7917 35.0007 13.7917 34.7605C13.7917 34.5203 13.5964 34.3256 13.3555 34.3256C13.1146 34.3256 12.9193 34.5203 12.9193 34.7605C12.9193 35.0007 13.1146 35.1954 13.3555 35.1954Z" fill="#004677"/>
<path d="M16 27C16.5523 27 17 26.5523 17 26C17 25.4477 16.5523 25 16 25C15.4477 25 15 25.4477 15 26C15 26.5523 15.4477 27 16 27Z" fill="#004677"/>
<path d="M18.3679 24.5842C19.1344 24.5842 19.7558 23.9647 19.7558 23.2005C19.7558 22.4362 19.1344 21.8167 18.3679 21.8167C17.6013 21.8167 16.9799 22.4362 16.9799 23.2005C16.9799 23.9647 17.6013 24.5842 18.3679 24.5842Z" fill="#004677"/>
<path d="M15.5 18C15.7761 18 16 17.7761 16 17.5C16 17.2239 15.7761 17 15.5 17C15.2239 17 15 17.2239 15 17.5C15 17.7761 15.2239 18 15.5 18Z" fill="#004677"/>
<path d="M14.0534 24.6159C14.4126 24.6159 14.7038 24.3256 14.7038 23.9675C14.7038 23.6094 14.4126 23.3191 14.0534 23.3191C13.6942 23.3191 13.4031 23.6094 13.4031 23.9675C13.4031 24.3256 13.6942 24.6159 14.0534 24.6159Z" fill="#004677"/>
<path d="M21.3023 36.1284C21.6615 36.1284 21.9527 35.8381 21.9527 35.48C21.9527 35.122 21.6615 34.8317 21.3023 34.8317C20.9431 34.8317 20.652 35.122 20.652 35.48C20.652 35.8381 20.9431 36.1284 21.3023 36.1284Z" fill="#004677"/>
<path d="M12 29C12.5523 29 13 28.5523 13 28C13 27.4477 12.5523 27 12 27C11.4477 27 11 27.4477 11 28C11 28.5523 11.4477 29 12 29Z" fill="#004677"/>
<path d="M17.781 38.8959C18.4643 38.8959 19.0182 38.3437 19.0182 37.6624C19.0182 36.9812 18.4643 36.4289 17.781 36.4289C17.0977 36.4289 16.5437 36.9812 16.5437 37.6624C16.5437 38.3437 17.0977 38.8959 17.781 38.8959Z" fill="#004677"/>
<path d="M33.5874 44.0433C34.1568 44.0433 34.6184 43.5831 34.6184 43.0154C34.6184 42.4477 34.1568 41.9874 33.5874 41.9874C33.0179 41.9874 32.5563 42.4477 32.5563 43.0154C32.5563 43.5831 33.0179 44.0433 33.5874 44.0433Z" fill="#0086D6"/>
<path d="M42.2718 36.4289C42.8631 36.4289 43.3424 35.951 43.3424 35.3614C43.3424 34.7719 42.8631 34.294 42.2718 34.294C41.6804 34.294 41.2011 34.7719 41.2011 35.3614C41.2011 35.951 41.6804 36.4289 42.2718 36.4289Z" fill="#0086D6"/>
<path d="M34.5 42C34.7761 42 35 41.7761 35 41.5C35 41.2239 34.7761 41 34.5 41C34.2239 41 34 41.2239 34 41.5C34 41.7761 34.2239 42 34.5 42Z" fill="#0086D6"/>
<path d="M28.7733 40.1688C29.5398 40.1688 30.1612 39.5493 30.1612 38.7851C30.1612 38.0209 29.5398 37.4014 28.7733 37.4014C28.0068 37.4014 27.3854 38.0209 27.3854 38.7851C27.3854 39.5493 28.0068 40.1688 28.7733 40.1688Z" fill="#0086D6"/>
<path d="M41.5 30C43.433 30 45 28.433 45 26.5C45 24.567 43.433 23 41.5 23C39.567 23 38 24.567 38 26.5C38 28.433 39.567 30 41.5 30Z" fill="#0086D6"/>
<path d="M32.5722 19.5396C33.3781 19.5396 34.0315 18.8882 34.0315 18.0847C34.0315 17.2812 33.3781 16.6298 32.5722 16.6298C31.7662 16.6298 31.1129 17.2812 31.1129 18.0847C31.1129 18.8882 31.7662 19.5396 32.5722 19.5396Z" fill="#0086D6"/>
<path d="M35.9111 15.0563C36.4805 15.0563 36.9421 14.5961 36.9421 14.0284C36.9421 13.4607 36.4805 13.0005 35.9111 13.0005C35.3417 13.0005 34.8801 13.4607 34.8801 14.0284C34.8801 14.5961 35.3417 15.0563 35.9111 15.0563Z" fill="#0086D6"/>
<path d="M25 15C25.5523 15 26 14.5523 26 14C26 13.4477 25.5523 13 25 13C24.4477 13 24 13.4477 24 14C24 14.5523 24.4477 15 25 15Z" fill="#0086D6"/>
<path d="M14.902 22.8051C16.019 22.8051 16.9244 21.9024 16.9244 20.7888C16.9244 19.6753 16.019 18.7726 14.902 18.7726C13.7851 18.7726 12.8796 19.6753 12.8796 20.7888C12.8796 21.9024 13.7851 22.8051 14.902 22.8051Z" fill="#0086D6"/>
<path d="M18.5 36C19.3284 36 20 35.3284 20 34.5C20 33.6716 19.3284 33 18.5 33C17.6716 33 17 33.6716 17 34.5C17 35.3284 17.6716 36 18.5 36Z" fill="#0086D6"/>
<path d="M17.1147 40.414C17.4433 40.414 17.7096 40.1485 17.7096 39.821C17.7096 39.4935 17.4433 39.228 17.1147 39.228C16.7862 39.228 16.5199 39.4935 16.5199 39.821C16.5199 40.1485 16.7862 40.414 17.1147 40.414Z" fill="#0086D6"/>
<path d="M14.5451 28.9093C14.9043 28.9093 15.1955 28.619 15.1955 28.2609C15.1955 27.9029 14.9043 27.6126 14.5451 27.6126C14.186 27.6126 13.8948 27.9029 13.8948 28.2609C13.8948 28.619 14.186 28.9093 14.5451 28.9093Z" fill="#0086D6"/>
<path d="M18.0744 26.5689C18.4336 26.5689 18.7247 26.2786 18.7247 25.9206C18.7247 25.5625 18.4336 25.2722 18.0744 25.2722C17.7152 25.2722 17.4241 25.5625 17.4241 25.9206C17.4241 26.2786 17.7152 26.5689 18.0744 26.5689Z" fill="#0086D6"/>
<path d="M15.6634 35.1639C16.119 35.1639 16.4883 34.7957 16.4883 34.3415C16.4883 33.8874 16.119 33.5192 15.6634 33.5192C15.2079 33.5192 14.8386 33.8874 14.8386 34.3415C14.8386 34.7957 15.2079 35.1639 15.6634 35.1639Z" fill="#0086D6"/>
<path d="M36.1015 35.4958C36.5045 35.4958 36.8311 35.1702 36.8311 34.7684C36.8311 34.3666 36.5045 34.041 36.1015 34.041C35.6985 34.041 35.3718 34.3666 35.3718 34.7684C35.3718 35.1702 35.6985 35.4958 36.1015 35.4958Z" fill="#0086D6"/>
<path d="M35.0784 40.2005C35.4375 40.2005 35.7287 39.9102 35.7287 39.5521C35.7287 39.1941 35.4375 38.9038 35.0784 38.9038C34.7192 38.9038 34.428 39.1941 34.428 39.5521C34.428 39.9102 34.7192 40.2005 35.0784 40.2005Z" fill="#0086D6"/>
<path d="M43.5 23C43.7761 23 44 22.7761 44 22.5C44 22.2239 43.7761 22 43.5 22C43.2239 22 43 22.2239 43 22.5C43 22.7761 43.2239 23 43.5 23Z" fill="#0086D6"/>
<path d="M14.5927 37.6307C15.184 37.6307 15.6634 37.1528 15.6634 36.5633C15.6634 35.9738 15.184 35.4959 14.5927 35.4959C14.0014 35.4959 13.522 35.9738 13.522 36.5633C13.522 37.1528 14.0014 37.6307 14.5927 37.6307Z" fill="#0086D6"/>
<path d="M39.8053 36.3736C40.2608 36.3736 40.6301 36.0054 40.6301 35.5512C40.6301 35.0971 40.2608 34.7289 39.8053 34.7289C39.3497 34.7289 38.9804 35.0971 38.9804 35.5512C38.9804 36.0054 39.3497 36.3736 39.8053 36.3736Z" fill="#0086D6"/>
</svg>
