<!-- by TradeStack --><svg width="56" height="56" viewBox="0 0 56 56" xmlns="http://www.w3.org/2000/svg"><path fill="#F0F3FA" d="M0 0h56v56H0z"/><path d="M27.1 22c.74-.01 3.13.07 3.3.4.05.1.02 1.36.02 1.9l-1.06-.27c-1.2-.14-2.96-.32-2.96.38.03.37.43.35.9.47 1.84.31 4.01.7 3.66 3.01-.12.78-.63 1.23-1.3 1.6-.7.37-2.81.7-5.35.37-.51-.07-.93-.1-1.07-.2-.27-.17-.13-.87-.13-1.22l.04-.8c1.07.38 1.31.4 1.8.44.62.08 1.88.02 1.98 0 .34-.09.82-.21.6-.64-.27-.52-3.13-.24-4.07-1.6-1.14-1.63.1-3.01.99-3.36.76-.31 1.9-.47 2.64-.48ZM18.43 22l2.56.01c0 1.33.02 3.5 0 5.28-.02 1.54-1.11 2.73-2.68 2.71a38.95 38.95 0 0 1-3.6-.16c-.36-.06-.59-.01-.7-.32-.02-.27 0-1.45.05-1.66.92.16 1.77.2 2.62.22.68-.06 1.3-.66 1.32-1.24.04-1.34.02-3.36 0-4.37-.01-.18.06-.45.43-.47ZM39.5 22h-6s-.5.23-.5.63v5.88l.01 1.49h2.45l.04-.01c.3 0 .33 0 .45-.19.05-.1.04-.17.03-.28l-.02-.3V28h.82c2.32 0 5.25.01 5.22-3-.01-1.53-.87-3-2.5-3Zm-3.54 4v-2h1.06c.98 0 1.94.03 1.98 1.01.02.48-.52 1-2 .99h-1.04ZM24.54 31a373.56 373.56 0 0 1 24.46.7c1.82.13 2.97.18 3 .25.01.16-1.18.2-3.66.33l-7.68.39c-7.27.35-15.06.47-22.41.12l-11.19-.55-2.89-.2c-.35-.06-.09-.14.18-.15l2.12-.12 2.75-.17 2.27-.13c.28-.01 4.7-.22 7.18-.3l5.86-.17ZM25.51 34c3.8 0 7.53.05 11.18.23l5.31.36c0 .01-1.9.61-1.9.63-2.21.63-2.57.69-4.93 1.14a42.17 42.17 0 0 1-20.38-1.47c-.07-.03-.94-.32-.77-.32 3.35-.25 5.51-.33 5-.3 2.32-.12 6.7-.28 6.49-.27Z" fill="#005BAC"/></svg>