<!-- by TradeStack --><svg width="56" height="56" viewBox="0 0 56 56" xmlns="http://www.w3.org/2000/svg"><path fill="#F0F3FA" d="M0 0h56v56H0z"/><path d="M26 21v-1h3l6 7.7v-6.15c0-.44-.33-.55-.5-.55H34v-1h3v1h-.5c-.4 0-.5.37-.5.55V31h-1l-7-8.8v6.6c0 .88 1 1.1 1.5 1.1V31H26v-1.1c.8 0 1-.73 1-1.1V22c0-.5-.5-1-1-1ZM38 20v1h.5c.17 0 .5.06.5.5v8c0 .18-.1.5-.5.5H38v1h5c1 0 3-.66 3-3.3 0-2.64-1.5-2.7-2.5-2.7 1 0 2-1.18 2-2.5 0-1.65-1-2.5-2.5-2.5h-5Zm3 4.5V21h1c1.2 0 1.5 1.13 1.5 1.69 0 1.12-.83 1.81-1.5 1.81h-1Zm0 5.5v-4.5h1.2c1.44 0 1.8 1.75 1.8 2.5 0 1.5-1 2-1.8 2H41Z" fill="#0A038D"/><path fill="#870505" d="M8 18h40v1H8zM8 37h40v1H8zM48 36H8v-.67c3.37 0 4.56-2.22 4.74-3.33H48v4Z"/><path d="M13.5 20h-5v1.04c1.44 0 1.5.88 1.5 1.27V32c0 1-.5 1.5-1 1.5s-1 0-1-1V35c3.36 0 4-2.3 4-4.04v-8.65c0-.93 1.1-1.31 1.5-1.31v-1Z" fill="#0A038D"/><path d="M14 22v-2h11v2h-1v-.35c0-.54-.47-.65-.65-.65H20.5v7.8c0 .88 1.13 1.2 1.5 1.2v1h-5v-1c.88 0 1.5-.5 1.5-1.2V21h-2.85c-.44 0-.65.47-.65.65V22h-1Z" fill="#0A0391"/></svg>