<!-- by TradeStack --><svg width="56" height="56" viewBox="0 0 56 56" xmlns="http://www.w3.org/2000/svg"><path fill="#0096DB" d="M0 0h56v56H0z"/><path fill-rule="evenodd" d="M6 25h1v3.51c0 .08 0 1.47-1.73 1.47-.6 0-1.1-.21-1.27-.32v-.77c.1.09.46.27 1.15.27.7 0 .85-.48.85-.72C5.98 27.32 6 25 6 25Zm1.37 0 1.73 5h.83c.3 0 .57-.2.67-.5l1.57-4.5h-1.1l-1.32 4.11L8.43 25H7.37Zm8.63.11a7.7 7.7 0 0 0-1.33-.11C12.93 25 12 26.12 12 27.5s.85 2.5 2.67 2.5c.47 0 .91-.04 1.33-.1v-.92c-.37.18-.83.28-1.34.28-.92 0-1.67-.79-1.67-1.76s.75-1.76 1.67-1.76a3 3 0 0 1 1.34.32v-.95ZM17.34 30H17v-5h1v2.14L19.71 25h1.06l-1.87 2.36L21 30h-.9a.51.51 0 0 1-.4-.2L18 27.77v1.56c0 .38-.3.68-.66.68ZM21 30v-5h3.32v.71H22V27h2v.76h-2v1.47h2.32c0 .42-.32.77-.72.77H21Zm4.17 0H25v-5h1.32l2.26 3.97V25h.92v4.23c0 .43-.33.77-.75.77h-.66L26 26.28v2.95c0 .43-.41.77-.83.77ZM30 25h1.02l.83 3.79.84-3.79h1.02l.86 3.79.83-3.79h1.05l-1.1 4.43a.73.73 0 0 1-.7.57h-.71l-.73-3.21-.63 2.64a.73.73 0 0 1-.7.57h-.68L30 25Zm11.5 2.5c0 1.38-.72 2.5-2.5 2.5s-2.5-1.12-2.5-2.5.86-2.5 2.5-2.5c1.64 0 2.5 1.12 2.5 2.5Zm-1 0c0 .97-.43 1.75-1.5 1.75s-1.5-.78-1.5-1.75.52-1.75 1.5-1.75 1.5.78 1.5 1.75Zm4 2.5c1.78 0 2.5-1.12 2.5-2.5s-.86-2.5-2.5-2.5c-1.64 0-2.5 1.12-2.5 2.5s.72 2.5 2.5 2.5Zm0-.75c1.07 0 1.5-.78 1.5-1.75s-.52-1.75-1.5-1.75-1.5.78-1.5 1.75.43 1.75 1.5 1.75ZM49.76 25H47.5v5h2.26C51 30 52 28.94 52 27.62v-.24c0-1.32-1-2.38-2.24-2.38Zm0 .75H48.5v3.5h1.26c.68 0 1.24-.75 1.24-1.66v-.18c0-.91-.56-1.66-1.24-1.66Z" fill="#fff"/></svg>