<!-- by TradeStack --><svg viewBox="0 0 56 56" xmlns="http://www.w3.org/2000/svg"><path fill="#F0F3FA" d="M0 0h56v56H0z"/><path d="M27.65 12.03c.03.02.32.51.88 1.47.57.97.85 1.47.85 1.5 0 .04-.28.54-.85 1.5s-.86 1.45-.9 1.47c-.03.02-.61.03-1.74.03s-1.7-.01-1.74-.03c-.03-.02-.33-.51-.9-1.47a23 23 0 0 1-.84-1.5c0-.04.28-.54.85-1.5s.86-1.45.9-1.47c.03-.02.61-.03 1.74-.03s1.71.01 1.75.03ZM35.08 12.03c.03.02.33.5.9 1.47.55.97.84 1.46.84 1.5 0 .04-.29.54-.85 1.5-.57.96-.86 1.45-.9 1.47-.03.02-.61.03-1.74.03s-1.71-.01-1.74-.03c-.04-.02-.33-.5-.9-1.47-.56-.97-.84-1.47-.84-1.5 0-.04.28-.54.85-1.5.56-.97.86-1.46.89-1.47.03-.02.62-.03 1.75-.03 1.12 0 1.7.01 1.74.03Z" fill="#7B7B7B"/><path d="M21.95 15.53c.03.02.33.51.9 1.47.56.97.84 1.47.84 1.5 0 .04-.28.54-.85 1.5-.57.97-.87 1.46-.9 1.47-.03.02-.61.03-1.74.03s-1.71-.01-1.74-.03c-.04-.02-.34-.51-.9-1.47-.56-.97-.85-1.46-.85-1.5 0-.04.29-.54.85-1.5.57-.96.87-1.45.9-1.47.03-.02.61-.03 1.75-.03 1.12 0 1.7.01 1.74.03Z" fill="#006A9E"/><path d="m28.34 17.9 1.19-2.05a.1.1 0 0 1 .1-.06.1.1 0 0 1 .1.06l1.18 2.05a.1.1 0 0 1 0 .1.1.1 0 0 1-.1.06h-2.38a.1.1 0 0 1-.1-.05.1.1 0 0 1 0-.11Z" fill="#F07D00"/><path d="M16.49 22c1.13 0 1.7.01 1.74.03.03.02.33.48.9 1.4.56.91.84 1.39.84 1.42 0 .04-.28.51-.85 1.43-.57.91-.86 1.38-.9 1.4-.03.01-.61.02-1.74.02s-1.7-.01-1.74-.03a18.3 18.3 0 0 1-.9-1.4c-.56-.91-.84-1.39-.84-1.42 0-.04.28-.51.85-1.43.56-.91.86-1.38.9-1.4.03-.01.6-.02 1.74-.02Z" fill="#7B7B7B"/><path d="m21.61 22.13-1.23 2.12a.08.08 0 0 1-.07.05.08.08 0 0 1-.08-.05L19 22.13a.08.08 0 0 1 0-.08.08.08 0 0 1 .07-.04l2.47-.01c.03 0 .05.01.07.04.02.03.02.06 0 .09ZM28.49 20.57A7.47 7.47 0 0 1 35.83 24a7.54 7.54 0 0 1-1.6 9.85c-.07.05-.08.12-.03.2l.46.8c.04.07.03.13-.04.18a26.15 26.15 0 0 1-1.62.94c-.08.04-.14.02-.18-.05l-.46-.8c-.05-.08-.11-.1-.2-.08a7.48 7.48 0 0 1-9.86-9.12 7.53 7.53 0 0 1 6.19-5.36Zm1.1 2.37a4.93 4.93 0 0 0-2.61.7A4.96 4.96 0 0 0 24.46 28a5.13 5.13 0 0 0 2.49 4.39c1.07.66 2.36.83 3.87.54.06-.02.1-.05.13-.1a.17.17 0 0 0-.01-.17l-1.9-3.3c-.04-.07-.02-.13.05-.17a65.86 65.86 0 0 1 1.62-.94c.07-.04.13-.03.17.04l1.9 3.3c.03.06.08.08.14.1.06 0 .1-.02.15-.07a5.28 5.28 0 0 0 1.47-3.63 5.16 5.16 0 0 0-4.95-5.05Z" fill="#F07D00"/><path d="M18.23 28.22c.03.02.33.48.9 1.4.56.91.84 1.38.84 1.42 0 .04-.29.51-.85 1.43-.57.91-.86 1.38-.9 1.4-.03.01-.61.02-1.74.02s-1.7-.01-1.74-.03c-.03-.02-.33-.48-.9-1.4-.56-.91-.84-1.39-.84-1.42 0-.04.28-.51.85-1.43.56-.91.86-1.38.89-1.4.04-.01.62-.02 1.75-.02s1.7.01 1.74.03Z" fill="#7B7B7B"/><path d="m18.98 33.85 1.21-2.1a.1.1 0 0 1 .1-.05.1.1 0 0 1 .09.05l1.21 2.1a.1.1 0 0 1 0 .1.1.1 0 0 1-.09.05h-2.43a.1.1 0 0 1-.1-.05.1.1 0 0 1 0-.1Z" fill="#F07D00"/><path d="M16.72 37.5c0-.04.28-.54.85-1.5.56-.96.86-1.45.89-1.47.03-.02.62-.03 1.74-.03 1.13 0 1.71.01 1.74.03.04.02.34.51.9 1.47.57.97.85 1.46.85 1.5 0 .04-.29.54-.85 1.5-.57.97-.87 1.45-.9 1.47-.03.02-.61.03-1.74.03s-1.71-.01-1.74-.03a19.4 19.4 0 0 1-.9-1.47c-.56-.97-.84-1.47-.84-1.5Z" fill="#7B7B7B"/><path d="m30.9 38.16-1.2 2.08a.1.1 0 0 1-.1.05.1.1 0 0 1-.09-.05l-1.2-2.08a.1.1 0 0 1 0-.1.1.1 0 0 1 .08-.06h2.43a.1.1 0 0 1 .09.05.1.1 0 0 1 0 .1Z" fill="#F07D00"/><path d="M27.65 38.03c.03.02.33.5.89 1.47s.85 1.46.85 1.5c0 .04-.29.54-.85 1.5-.57.96-.87 1.45-.9 1.47-.03.02-.61.03-1.74.03s-1.71-.01-1.74-.03c-.04-.02-.34-.5-.9-1.47s-.85-1.47-.85-1.5c0-.04.29-.54.85-1.5.57-.96.87-1.45.9-1.47.03-.02.61-.03 1.74-.03s1.72.01 1.75.03ZM35.09 38.03c.03.02.32.5.89 1.47.56.97.84 1.47.84 1.5 0 .04-.28.54-.85 1.5-.56.97-.86 1.46-.9 1.47-.03.02-.6.03-1.74.03-1.13 0-1.7-.01-1.74-.03-.03-.02-.33-.51-.9-1.47-.56-.97-.84-1.46-.84-1.5 0-.04.28-.54.85-1.5.56-.97.86-1.46.9-1.47.03-.02.61-.03 1.74-.03s1.71.01 1.75.03Z" fill="#7B7B7B"/></svg>