<!-- by TradeStack --><svg width="56" height="56" viewBox="0 0 56 56" xmlns="http://www.w3.org/2000/svg"><path fill="#F0F3FA" d="M0 0h56v56H0z"/><path d="M11.01 26.15c0 .02 0 .03.02.05l.03.03h.04c.02-.02.03-.03.03-.05l1.45-4.47a.38.38 0 0 0-.04-.3.21.21 0 0 0-.06-.07c-.3-.17-.39-.56-.28-1.17.02-.11.07-.17.15-.17h1.85c.08 0 .14.06.16.17.12.72-.03 1.12-.44 1.18-.1.01-.17.08-.2.2l-.92 2.81a.25.25 0 0 0 0 .12l1.72 8.7c.04.18.17.4.4.62l.06.1.02.12v.78c0 .13-.05.2-.14.2h-2.88c-.1 0-.15-.07-.15-.2v-.83c0-.12.04-.2.13-.24a.43.43 0 0 0 .15-.13.34.34 0 0 0 .06-.28l-.68-3.5c-.28-1.45-.44-1.43-.47.07-.02.5-.01 1.31 0 2.43 0 .36-.08.82.09 1.2.17.39.25.6.26.67.02.21 0 .43-.05.64a.27.27 0 0 1-.07.12.16.16 0 0 1-.1.05H8.18c-.09 0-.14-.06-.16-.17-.04-.24-.04-.5-.01-.8 0-.05.02-.1.04-.13a.27.27 0 0 1 .08-.1c.27-.19.36-.38.36-.7V22.24c0-.5-.08-.67-.37-.9a.3.3 0 0 1-.1-.13.45.45 0 0 1-.03-.17v-.89c0-.1.04-.16.12-.16h3.19c.03 0 .07.02.1.05l.05.11c.12.6 0 1.06-.35 1.38a.33.33 0 0 0-.1.25v4.36ZM21.08 33.92a.12.12 0 0 0-.03-.05.1.1 0 0 0-.1-.02.11.11 0 0 0-.06.04c-1.18 1.65-3.3 1.46-3.71-.78a8.43 8.43 0 0 1 .12-3.98c.18-.6.62-1.09 1.3-1.45.42-.22 1.19-.59 2.32-1.1.08-.03.08-.1.08-.2V24.8c0-.4-.15-.6-.51-.59h-.03c-.37.05-.56.26-.57.63-.02.76-.16 1.26-.41 1.5-.12.1-.38.2-.8.29-.56.13-1.27 0-1.37-.8-.12-1.05.26-1.83 1.15-2.34.54-.3 1.28-.5 2.04-.49 2.33 0 3 1.48 3 3.5v6.63c0 .43.54.71.5 1.16a.66.66 0 0 1-.11.3.56.56 0 0 1-.23.2c-.52.24-1.08.27-1.7.1-.46-.14-.69-.5-.88-.97Zm-.32-6.17c-.33.26-.72.5-.8.96-.18 1.09-.2 2.38-.05 3.89.02.15.09.3.2.4.11.1.26.15.41.15h.02a.72.72 0 0 0 .46-.71v-4.52c0-.27-.05-.32-.24-.17ZM31.63 34.52l-.1.3a.23.23 0 0 1-.2.16c-.16.03-.34.02-.52-.02-.1-.03-.17-.1-.19-.2l-.47-2.73c-.02-.1.02-.17.1-.21.25-.13.52-.15.83-.05a.36.36 0 0 1 .2.18c.26.55.7 1.6 1.33 1.7a.34.34 0 0 0 .28-.1.36.36 0 0 0 .11-.3c-.03-.5-.2-1-.47-1.49l-1.37-2.42c-.46-.83-.79-1.61-1-2.35-.3-1.16-.25-2.9.81-3.65.63-.45 1.37-.4 2.2.13.1.06.16.03.2-.07.13-.38.41-.49.85-.33.1.03.15.1.17.2l.45 2.6c.01.1-.02.16-.1.2-.2.1-.4.13-.61.06-.17-.05-.31-.18-.44-.4-.25-.46-.73-1.34-1.2-1.55a.34.34 0 0 0-.38.08.37.37 0 0 0-.1.39c.18.49.31.82.41.99 1.56 2.73 3.05 4.85 2.44 7.58-.16.75-.48 1.25-.95 1.51-.97.55-1.34.1-2.06-.28-.11-.06-.19-.03-.22.07ZM38.5 29.18c-.03 1.78-.06 2.88 0 3.68.04.63.73 1.13 1.28.99.84-.22 1.28-1.42 1.22-2.31-.02-.34.11-.5.4-.5h.17c.29 0 .43.16.42.5-.04 2.68-2.2 4.45-4.21 2.85-1.62-1.27-1.7-3.5-1.78-5.39 0-3 .29-6 3-6 3 0 3 4 3 5.66-.01.1-.06.34-.15.34h-3.17c-.1 0-.18.06-.18.18Zm.1-1.18h.8c.05 0 .1-.06.1-.12v-3.03c0-.38-.24-.85-.5-.85-.24 0-.5.2-.5.85v3.03c0 .06.05.12.1.12ZM46 25c.03.25.07.27.12.03a6.9 6.9 0 0 1 .45-1.5c.34-.62.8-.77 1.15-.05.34.71.37 1.5.1 2.35-.2.62-.58.7-.87.12l-.19-.36c-.06-.1-.13-.12-.2-.07-.19.12-.56.3-.56.48v7.5c0 .13.05.18.15.25.34.24.46.6.36 1.1-.02.1-.08.15-.17.15h-3.05c-.08 0-.13-.04-.16-.13-.15-.49-.07-.85.23-1.07.08-.06.14-.14.14-.24v-9.03c0-.1-.06-.17-.14-.22-.32-.2-.43-.7-.32-1.15.03-.1.09-.16.19-.16h2.56c.08 0 .21.08.21.18V25ZM26.69 21.91c.82-.22 1.4-.8 1.3-1.31-.1-.5-.85-.74-1.68-.51-.82.22-1.4.8-1.3 1.31.1.5.85.74 1.68.51ZM26 33.55v-9.03c0-.1-.01-.2-.1-.27-.32-.28-.96-.65-.85-1.08.02-.11.1-.17.22-.17h3.05a.18.18 0 0 1 .12.05.16.16 0 0 1 .05.1l.01 10.32c0 .17.15.35.37.56.09.07.13.17.13.28v.53c0 .1-.05.16-.16.16H25.2c-.1 0-.15-.05-.17-.14-.14-.7.97-.73.97-1.31Z" fill="#C30"/></svg>