<!-- by TradeStack --><svg width="56" height="56" viewBox="0 0 56 56" xmlns="http://www.w3.org/2000/svg"><path fill="#F0F3FA" d="M0 0h56v56H0z"/><path d="M25.1 31.27a70.2 70.2 0 0 0-4.83-1.58.65.65 0 0 1-.29-.18.15.15 0 0 1-.03-.17c.02-.07.07-.1.15-.1.36-.02.63-.01.8.02 1.84.33 3.7.78 5.56 1.35 2.87.86 5.73 1.87 8.6 3.02 1.2.47 2.39.9 3.57 1.25.58.17 1.14.28 1.7.3.8.05 1.3-.42 1.45-1.42.46-2.84.6-5.67.4-8.5-.08-1.15-.21-2.42-.39-3.78-.08-.66-.22-1.3-.4-1.92-.15-.48-.35-.8-.62-.95-.33-.19-.64-.01-.92.52-.27.5-.5 1-.66 1.5-.68 2.06-1.38 4.12-2.08 6.17-.37 1.06-.94 1.63-1.71 1.69-.45.03-.85-.08-1.2-.33-.75-.54-1.52-1.63-2.32-3.28a8.07 8.07 0 0 1-.07-.14c-.52-1.1-.95-1.7-1.26-1.79a.13.13 0 0 0-.14.03c-.13.13-.23.3-.3.48-.16.38-.3.78-.44 1.18a157.6 157.6 0 0 0-1.77 5.63c-.02.05-.05.07-.1.05l-2.02-.56c-.04-.01-.06-.04-.04-.08.93-2.5 1.84-4.88 2.76-7.12.2-.49.51-.96.95-1.43.83-.9 1.84-.49 3.03 1.24.48.68.94 1.32 1.4 1.94.48.65.93.95 1.36.9.42-.06.86-.67 1.3-1.82l1.86-4.8c.5-1.28 1.06-2.09 1.66-2.4 1.18-.63 2.16.35 2.93 2.94.9 3 1.5 5.98 1.82 8.93.18 1.7.23 3.46.16 5.3-.02.32-.07.84-.17 1.54a6.57 6.57 0 0 1-.46 1.66c-.2.47-.57.84-1.11 1.1-.47.22-1 .33-1.57.34-1.35.01-3.08-.54-5.2-1.65a96 96 0 0 0-9.09-4.3c-.03 0-.04 0-.05.03-.3.9-.58 1.8-.86 2.72-.32 1.05-.95 1.7-1.88 1.92-.81.2-1.74.07-2.77-.38a16.32 16.32 0 0 1-5.45-3.67c-1.42-1.5-1.87-3.09-1.35-4.76.17-.55.45-1.1.83-1.69 1.12-1.7 2.49-3.3 4.08-4.78 1.45-1.34 2.73-2.13 3.85-2.4A6.21 6.21 0 0 1 26.6 19c.45.1.62.29.52.56-.08.23-.29.42-.61.58-1.47.74-2.54 1.31-3.2 1.72-1.1.66-2.05 1.38-2.86 2.17a14.83 14.83 0 0 0-3.14 4.17c-.37.8-.42 1.47-.15 2.04.23.49.55.94.95 1.35 1 1.04 2.14 1.84 3.41 2.4 1.21.53 2 .54 2.34.04.14-.19.25-.4.36-.62.35-.69.65-1.39.9-2.1.01-.02 0-.03-.02-.04Z" fill="#D35109"/><path d="M13.37 18.8c.13-.3.28-.58.46-.84.1-.15.26-.21.47-.18.1.02.16.08.17.18.03.23.02.45 0 .67-.14 1-.3 2.1-.49 3.29-.36 2.3-.44 5.03-.26 8.2.07 1.23.24 2.5.51 3.84.16.78.45 1.45.86 2.02.27.38.26.63-.03.76-.16.07-.34.1-.53.1-.75 0-1.4-.08-1.96-.26-.53-.18-.9-.74-1.13-1.69a20.61 20.61 0 0 1-.35-6.35c.19-2.23.6-4.48 1.24-6.76.24-.88.59-1.87 1.04-2.97ZM20.78 32.44c.55.2 1.12.04 1.28-.37.16-.4-.15-.9-.7-1.1-.54-.21-1.11-.05-1.27.36-.16.4.15.9.7 1.1Z" fill="#FBA910"/></svg>