<?xml version='1.0' encoding='utf-8'?>
<!-- by TradeStack -->
<svg width="56" height="56" viewBox="0 0 56 56" xmlns="http://www.w3.org/2000/svg"><path fill="#F0F3FA" d="M0 0h56v56H0z" /><path d="M4 27.85c0 1.45 1.8 3.17 2.69 3.84-.4-.4-1.2-1.63-1.2-3.24 0-2.02 4.01-7.03 24.24-7.03 10.73 0 18.65 2.92 21.27 4.38-1.43-2.27-7.69-6.8-21.27-6.8C9.73 19 4 26.03 4 27.85Z" fill="url(#aivkfsrxe)" /><path d="M5 25.94c3.48-2.11 12.05-5.47 24.67-5.47 10.27 0 17.12 2.46 20.8 4.64C48.34 22.73 42.05 19 29.73 19 14.29 19 7.36 23.19 5 25.94Z" fill="url(#bivkfsrxe)" /><path fill-rule="evenodd" d="M18 25v5.82c0 .65.5 1.18 1.13 1.18h.43v-.8h-.32a.46.46 0 0 1-.45-.47V25H18Zm-8.7 7v-7h.7v4.04L11.76 27h1.03l-2.1 2.38 2.1 2.62h-1.03L10 29.75V32h-.7Zm3.95-4.53.42.7c.13-.13.56-.4 1.21-.4.81 0 1.41.63 1.41 1.12v.44a2.1 2.1 0 0 0-1.47-.6c-1.08 0-1.82.74-1.82 1.61 0 .88.74 1.58 1.86 1.58.7 0 1.18-.36 1.43-.65V32H17v-3.4c-.02-.5-.47-1.51-2.12-1.51-.85 0-1.44.26-1.63.38Zm3.04 3.16V30c-.28-.25-.8-.59-1.47-.59a1 1 0 0 0-1.06.93c.02.3.28.92 1.22.92.68 0 1.1-.33 1.31-.63Zm4.09-2.45-.42-.7c.19-.13.78-.4 1.63-.4 1.65 0 2.09 1.02 2.11 1.53v3.38H23v-.7c-.25.3-.76.7-1.5.7-1.17 0-1.94-.73-1.94-1.65 0-.9.77-1.67 1.9-1.67.73 0 1.27.36 1.54.64v-.42c0-.5-.6-1.12-1.41-1.12-.65 0-1.08.27-1.21.4ZM23 30v.61c-.21.32-.65.68-1.38.68-.97 0-1.25-.64-1.27-.96.02-.32.26-.97 1.1-.97.7 0 1.26.36 1.55.64Zm8.96-2.61.41.71a1.8 1.8 0 0 1 1.22-.41c.8 0 1.41.64 1.41 1.14v.47a2.2 2.2 0 0 0-1.55-.64c-1.12 0-1.9.76-1.9 1.67 0 .92.78 1.65 1.94 1.65.75 0 1.25-.4 1.51-.7V32h.7v-3.45c-.02-.52-.46-1.55-2.11-1.55-.85 0-1.44.26-1.63.4ZM35 30.62v-.61a2.33 2.33 0 0 0-1.55-.64c-.84 0-1.08.65-1.1.97.02.32.3.96 1.27.96.73 0 1.16-.36 1.38-.68ZM24.3 27h.7v.72c.2-.28.67-.72 1.32-.72.6 0 1.17.4 1.47.96l.07-.17c.17-.26.75-.79 1.46-.79.88 0 1.68.84 1.68 1.8V32h-.7v-3.2c.01-.34-.23-1.1-1.06-1.1-.73 0-1.1.59-1.25.96l.01.13V32h-.7v-3.2c.01-.34-.23-1.1-1.06-1.1-.72 0-1.1.57-1.24.94V32h-.7v-5Zm12.02.7V27h3.5l-2.33 4.3h2.18v.7h-3.5l2.36-4.3h-2.2ZM42.5 32a2.5 2.5 0 0 0 2.5-2.5 2.5 2.5 0 1 0 5 0 2.5 2.5 0 0 0-5 0 2.5 2.5 0 1 0-2.5 2.5Zm0-.7a1.8 1.8 0 1 0 0-3.6 1.8 1.8 0 0 0 0 3.6Zm6.8-1.8a1.8 1.8 0 1 1-3.6 0 1.8 1.8 0 0 1 3.6 0Z" fill="#484848" /><defs><linearGradient id="aivkfsrxe" x1="5.48" y1="32.22" x2="19.64" y2="13.72" gradientUnits="userSpaceOnUse"><stop stop-color="#5484B5" /><stop offset=".2" stop-color="#4B4652" /><stop offset=".56" stop-color="#39547F" /><stop offset=".87" stop-color="#5A7FAC" /><stop offset="1" stop-color="#424653" /></linearGradient><linearGradient id="bivkfsrxe" x1="8.38" y1="24.98" x2="47.41" y2="24.98" gradientUnits="userSpaceOnUse"><stop stop-color="#955E37" /><stop offset=".52" stop-color="#C7953E" /><stop offset="1" stop-color="#915C3C" /></linearGradient></defs></svg>