<?xml version='1.0' encoding='utf-8'?>
<!-- by TradeStack -->
<svg width="56" height="56" viewBox="0 0 56 56" xmlns="http://www.w3.org/2000/svg"><path fill="#F0F3FA" d="M0 0h56v56H0z" /><path d="M32.8 25c-1.65 0-3.28.02-4.9 0a4.59 4.59 0 0 0-2.93.85c-1.62 1.23-2.22 3.03-1.8 5.15h-6.8c-.52 0-1.33-.35-1.82-.6-1.82-.94-2.66-2.5-2.54-4.65.03-.52.2-1.05.48-1.57l4.93-8.92a7.28 7.28 0 0 1 1.56-2.18c1.73-1.35 4.37-1.52 6.1-.01.34.29.82.92 1.46 1.9l5.7 8.79c.2.31.4.74.56 1.24Zm-10.65-.08a3.22 3.22 0 0 0-3.2-3.18 3.22 3.22 0 0 0-3.2 3.18 3.22 3.22 0 0 0 3.2 3.18c1.74 0 3.2-1.44 3.2-3.18Z" fill="#447FE0" /><path d="M32.8 25c.04.02.06-.04.06 0 .7 3.07-1.4 5.99-4.58 6H23.2c.06.03.05.08-.03 0-.42-2.12.18-3.92 1.8-5.15.8-.6 1.77-.86 2.93-.85 1.62.02 3.25 0 4.9 0Z" fill="#2F7417" /><path d="M23.2 31h5.08c3.17-.01 5.28-2.93 4.58-6h5.3c1.41 0 2.42.18 3.03.41a4.43 4.43 0 0 1 2.72 5.1c-.07.5-.35 1.17-.83 2.02-.3.51-1.55 2.8-3.78 6.88a20.43 20.43 0 0 1-2.08 3.38c-1 .99-2.38 1.37-4.16 1.15a3.83 3.83 0 0 1-2.17-1.05c-.33-.3-.8-.93-1.4-1.86l-5.14-7.92c-.57-.87-.95-1.55-1.15-2.11Zm12.19 2.78c.72.43 1.58.55 2.4.34a3.25 3.25 0 0 0 2.35-3.9 3.12 3.12 0 0 0-3.85-2.28 3.25 3.25 0 0 0-2.34 3.9c.2.81.72 1.51 1.44 1.94Z" fill="#FFDA1B" /></svg>