<!-- by TradeStack --><svg width="56" height="56" viewBox="0 0 56 56" xmlns="http://www.w3.org/2000/svg"><path fill="#F0F3FA" d="M0 0h56v56H0z"/><path d="m36.04 12.02.32.09c-.53.1-1.01.28-1.45.57-1.17.78-1.8 2.37-2.1 3.68-.68 1.96-1.55 3.82-2.38 5.7a25.93 25.93 0 0 0-1.64 4.7c.31-1.68.72-3.22 1.22-4.63 1-2.85 1.67-4.77 2-5.77.21-.73.39-1.28.52-1.65.42-1.16 1.36-2.4 2.63-2.64.09.03.14.02.17-.03l.71-.02Z" fill="#DDDDDF"/><path d="m22.53 17.41-.5-.18a.06.06 0 0 0-.07.01l-.01.02-.34 1.06a.08.08 0 0 1-.04.05.08.08 0 0 1-.07 0l-.53-.17a.07.07 0 0 1-.04-.02.07.07 0 0 1 0-.04c.08-1.45.23-3.4-1.85-3.21-.8.07-1.47.48-1.98 1.22a.12.12 0 0 1-.1.05c-.23 0-.43-.12-.59-.34a4.67 4.67 0 0 1 2.19-3 3.14 3.14 0 0 1 1.88-.5c1.25.1 2.06 1.01 2.27 2.21.15.88.08 1.83-.22 2.84Z" fill="#99E0F9"/><path d="m37.79 18.19-.45.89-.54-.81a.21.21 0 0 1-.02-.19c.24-.72.35-1.46.3-2.2-.04-.93-.55-1.68-1.6-1.44a.12.12 0 0 1-.12-.05l-.48-.66a.1.1 0 0 1 0-.13c1.15-1.18 2.43-.69 3.01.66.56 1.29.42 2.6-.1 3.93Z" fill="#DDDDDF"/><path d="M22.53 17.41c-.5 1.8-2.42 6.22-.2 7.48 1.96 1.11 4.43-.91 5.68-2.26a20.62 20.62 0 0 0 4-6.27c-.33 1-1 2.92-2 5.77-.5 1.4-.9 2.95-1.22 4.63l-.12 1.31-.01.16-.02.06a3.88 3.88 0 0 0 1.06 3c.35.36.73.73 1.17 1.09a47.45 47.45 0 0 1-4.88-2.77 55.97 55.97 0 0 0-2.24-1.45l-1.28-.93a37.6 37.6 0 0 1-2.7-2.44 13.16 13.16 0 0 1-3.12-4.9 7.4 7.4 0 0 1-.4-2.2c.01-.33.01-.66-.01-1l.17-.83c.16.22.36.34.59.35.02 0 .04 0 .06-.02.02 0 .03-.02.04-.04a2.61 2.61 0 0 1 1.98-1.22c2.08-.2 1.93 1.77 1.84 3.2l.01.05.04.02.53.17a.08.08 0 0 0 .09-.02l.02-.03.34-1.06a.05.05 0 0 1 .03-.03.06.06 0 0 1 .04 0l.5.18Z" fill="#00B6EC"/><path d="M16.24 16.7c.02.33.02.66.01 1-.02.5.11 1.24.4 2.2.03.42.13.84.3 1.24l.2.5.22.47c.5.93 1.1 1.8 1.78 2.63l-2.48 1.48a367.6 367.6 0 0 0-.48-4.67c-.17-1.62-.16-3.24.05-4.85Z" fill="#112059"/><path d="M22.47 27.23a1.46 1.46 0 0 0-.95-.09 31.7 31.7 0 0 1-2.37-2.4 16.3 16.3 0 0 1-2-3.1l-.2-.5c-.17-.4-.27-.82-.3-1.25.66 1.85 1.7 3.48 3.12 4.9.86.85 1.76 1.67 2.7 2.44Z" fill="#12569A"/><path fill-rule="evenodd" d="M38.93 15.32a6.35 6.35 0 0 1-.56 3.33 6.13 6.13 0 0 1-1.5 2.18 22.6 22.6 0 0 1-3.9 2.77l-.1.05c-1.21.77-2.44 1.6-3.38 2.68-.02 0-.04 0-.06.02-.03.03-.03.06 0 .08a4.4 4.4 0 0 0-.76 1.64l.12-1.3c.4-1.62.94-3.18 1.64-4.7l.44-1c.7-1.55 1.38-3.1 1.95-4.7.29-1.32.92-2.91 2.09-3.69.44-.29.92-.48 1.45-.57.64.12 1.2.49 1.7 1.1.48.6.77 1.3.87 2.1Zm-1.04-1.06c.56 1.29.42 2.6-.1 3.93l-.44.89-.55-.81a.21.21 0 0 1-.02-.19c.24-.72.35-1.46.3-2.2-.04-.93-.54-1.68-1.6-1.44a.12.12 0 0 1-.12-.05l-.48-.66a.1.1 0 0 1 0-.12c1.15-1.19 2.43-.7 3.01.65Z" fill="url(#a)"/><path d="M21.52 27.14c.88.79 1.8 1.53 2.76 2.22l.54.4c-.36.46-.88.57-1.46.53l-.44-.15c-.99-.18-1.72.15-2.18.99-1.65.71-2.66 1.47-3.3 3.26a7.73 7.73 0 0 0-.5 1.74l-.04.78c-.06.54-.1 1.07-.13 1.6-.07 1.33-.15 2.22.47 3.17a3.26 3.26 0 0 0 2.3 1.44l1.86-.1a.15.15 0 0 0 .1-.06l.43-.47a4.2 4.2 0 0 0 .6-2.6c.29-.23.53-.5.73-.82.17.92.13 1.76-.12 2.51-.57 1.7-2.22 2.52-3.98 2.17-2-.4-3.2-2.09-3.16-4.06a7958.43 7958.43 0 0 0 .6-8.96c.1-1.5.13-3 .07-4.5l2.48-1.5c.75.85 1.54 1.66 2.37 2.41Z" fill="#1C336F"/><path d="m22.47 27.23 1.28.93a47.25 47.25 0 0 0 4.47 2.9.07.07 0 0 1-.02.1l-.38.22a47.93 47.93 0 0 1-3.56-2.21.04.04 0 0 0-.02.04l.04.15c-.96-.7-1.88-1.43-2.76-2.22.31-.07.63-.04.95.1Z" fill="#7AA1C5"/><path d="m30.87 32.38 2.38 1.35c.32.2.64.42.95.64.23.16.34.38.33.66a107.56 107.56 0 0 1-6.7-3.65l.37-.22a.08.08 0 0 0 .03-.07.07.07 0 0 0-.03-.06 47.23 47.23 0 0 1-4.45-2.87c.43.25 1.17.74 2.24 1.45 1.22.82 2.85 1.74 4.88 2.77Z" fill="#12569A"/><path d="M27.82 31.38c2.2 1.3 4.43 2.51 6.7 3.65 1 .5 1.67.86 2.01 1.05.3.17.62.38.95.63.03.1 0 .19-.1.26a5.96 5.96 0 0 0-.91-.58c-2-1-3.98-2.05-5.93-3.14a90.8 90.8 0 0 1-5.72-3.5l-.54-.39-.04-.15a.04.04 0 0 1 .04-.05h.02c1.15.8 2.32 1.54 3.52 2.22Z" fill="#DDDDDF"/><path d="M24.82 29.76a90.8 90.8 0 0 0 5.72 3.49c-.52.56-.9 1.02-1.14 1.38-.6.89-.92 1.94-.98 3.17 0 .06.02.12.06.17a.5.5 0 0 1 .13.26 191.31 191.31 0 0 1 1.29 2.15c.18.3.44.65.76 1.05.28.34.54.7.8 1.04a14.72 14.72 0 0 1-2.93-4.03c-.78-1.47-1.57-2.93-2.37-4.38.1.04.15-.01.12-.14a.85.85 0 0 0-.1-.23c-.43-.72-.74-1.22-.94-1.5a8.2 8.2 0 0 0-1.1-1.37c-.12-.1-.37-.27-.78-.53.58.04 1.1-.07 1.46-.53Z" fill="#254380"/><path d="M22.92 30.14c-.26.48-.7.95-1.3 1.43-.4.31-.74.48-1.04.5 0-.33.05-.65.16-.94.46-.84 1.2-1.17 2.18-.99Z" fill="#7AA1C5"/><path d="M23.36 30.3c.4.25.66.42.77.52.27.23.64.68 1.11 1.37.2.28.51.78.94 1.5.06.1.09.17.1.23.03.13-.01.18-.12.14-.44-.8-.98-1.51-1.6-2.15a2.01 2.01 0 0 0-1.55-.65l-.13.01c-1.93.36-1.31 2.56-.88 3.8.44 1.24.76 2.16.95 2.75.13.36.23.78.3 1.25-.19.32-.43.59-.71.82a8.04 8.04 0 0 0-.33-1.58 141.5 141.5 0 0 1-1.45-4.6l-.08-.47v-.02a.03.03 0 0 0-.05.01l-.02.06a4.71 4.71 0 0 1-.03-1.22c.3-.02.65-.19 1.04-.5.6-.48 1.04-.95 1.3-1.43l.44.15Z" fill="#12569A"/><path d="M20.74 31.13c-.1.3-.16.6-.16.94a4.71 4.71 0 0 0 .03 1.22c.11.96.28 1.82.51 2.56.46 1.48.97 2.91 1.14 4.48.08.78-.03 1.5-.33 2.16l-.42.47a.16.16 0 0 1-.11.06l-1.86.1c.5.02.9-.12 1.23-.4.34-.27.55-.61.65-1.03.03-.12-.03-.36-.19-.7a.05.05 0 0 0-.03-.03h-.04c-.37.24-.77.37-1.2.38-.93.03-1.58-.35-1.95-1.15-.24-.5-.4-.97-.46-1.37a197.13 197.13 0 0 0-.5-2.8c-.02.3-.08.6-.15.9 0-.27.02-.53.03-.79.02-.28.18-.86.5-1.74.65-1.79 1.66-2.55 3.31-3.26Z" fill="#254380"/><path d="m37.38 36.97.63.53c.64.54 1.13 1.2 1.46 1.99.23.86.19 1.7-.14 2.5-1.88 2.66-5.58 2.53-7.87.48-.26-.35-.52-.7-.8-1.04-.32-.4-.58-.75-.77-1.06a188.75 188.75 0 0 0-1.28-2.14.5.5 0 0 0-.13-.26.24.24 0 0 1-.05-.17c.05-1.23.37-2.28.97-3.17.24-.36.62-.82 1.14-1.38 1.95 1.09 3.93 2.13 5.93 3.14.27.14.58.33.9.58Z" fill="#12569A"/><path d="M39.33 41.99c.33-.8.37-1.64.14-2.5-.2-1.08-.86-2-2-2.78a8.5 8.5 0 0 0-.94-.63c-.34-.2-1.01-.54-2-1.05a.72.72 0 0 0-.33-.66l-.95-.64c.83.41 1.65.84 2.47 1.27 1.12.6 1.8.97 2.02 1.13 1.93 1.39 3.06 3.65 1.59 5.86Z" fill="#112059"/><path d="m37.26 42.87-.97-1.28c1.11-1.4-.28-3.25-1.31-4.2a21.45 21.45 0 0 0-2.75-2.17c-.07-.04-.15-.1-.23-.18a.05.05 0 0 1 .02-.1h.03c.15.05.27.1.38.16.5.28 1.14.6 1.91.98a15.86 15.86 0 0 1 1.58.82c1.19.63 2.48 1.68 2.86 2.92.41 1.37-.27 2.47-1.52 3.05Z" fill="#7AA1C5"/><path d="m19.95 41.34.82 1.39c-.33.27-.74.4-1.23.39a3.26 3.26 0 0 1-2.3-1.44c-.62-.95-.54-1.84-.47-3.16.03-.54.07-1.07.13-1.6a6.09 6.09 0 0 0 .16-.89l.49 2.79c.07.4.22.86.46 1.37.37.8 1.02 1.18 1.94 1.15Z" fill="#7F8CA7"/><path d="M39.47 39.49a5.12 5.12 0 0 0-1.46-2c-.21-.16-.42-.34-.63-.52.1-.07.13-.16.1-.26 1.13.77 1.8 1.7 1.99 2.78Z" fill="#7C7D80"/><path d="m20.77 42.73-.82-1.4a2.26 2.26 0 0 0 1.23-.37h.02a.05.05 0 0 1 .03.03c.16.34.22.58.19.7-.1.42-.31.76-.65 1.04ZM36.29 41.6l.97 1.27c-.53.28-1.1.4-1.7.39a.22.22 0 0 1-.1-.04 1.85 1.85 0 0 1-.56-.57.15.15 0 0 1 .09-.21 2.6 2.6 0 0 0 1.3-.85Z" fill="#3574AD"/><defs><linearGradient id="a" x1="37.29" y1="12.11" x2="30.01" y2="25.41" gradientUnits="userSpaceOnUse"><stop stop-color="#BBBCBF"/><stop offset="1" stop-color="#78797B"/></linearGradient></defs></svg>