<?xml version='1.0' encoding='utf-8'?>
<!-- by TradeStack -->
<svg width="56" height="56" viewBox="0 0 56 56" xmlns="http://www.w3.org/2000/svg"><path fill="#F0F3FA" d="M0 0h56v56H0z" /><path fill-rule="evenodd" d="m17.46 17.06-1.8 1.83-.66-.65V21l.68-.69 1.66 1.63L15 24.5l2.42 2.46L15 29.5v1l1.96 1.95-1.96 2v1.05l2.25 2.18-1.52 1.55-.23-.23H15v4h4.5l-3.06-3.06 1.53-1.55 4.7 4.61h1.43l-5.43-5.33 1.77-1.8L27.7 43h1.42l-7.99-7.85 2.27-2.31L33.76 43h1.43L24.11 32.13l1.76-1.8L38.76 43h1.43L26.57 29.62l1.76-1.8L41 40.5V13L28.24 26.24l-1.93-1.9L37.45 13h-1.4L25.6 23.65l-1.82-1.78L32.44 13h-1.4l-7.97 8.17-1.83-1.8L27.47 13h-1.4l-5.54 5.67-1.66-1.63L22.82 13h-1.4l-3.27 3.34-1.76-1.73L18 13h-3v1.65l2.46 2.4Zm8.15 8-1.8 1.84 2.05 2.02 1.76-1.8-2-2.06Zm-7.66 11.91 1.78-1.8-2.06-2.02-1.77 1.8 2.05 2.02Zm-.29-5.23-1.8-1.76 2.27-2.32 1.8 1.76-2.27 2.32Zm2.77 2.71-2.06-2.01 2.28-2.32 2.05 2.02-2.27 2.31Zm2.97-3.03 1.76-1.79-2.05-2.01-1.76 1.8 2.05 2Zm-2.77-2.7 1.77-1.8-1.81-1.78-1.76 1.8 1.8 1.77Zm-2.52-2.48 1.77-1.8-1.83-1.8-1.76 1.8 1.82 1.8Zm-.08-5.01-1.66-1.64 1.8-1.83 1.66 1.63-1.8 1.84Zm2.54 2.5-1.82-1.8 1.8-1.84 1.82 1.8-1.8 1.83Zm2.53 2.47-1.81-1.78 1.8-1.84 1.81 1.78-1.8 1.84Z" fill="#834181" /></svg>