<!-- by TradeStack --><svg width="56" height="56" viewBox="0 0 56 56" xmlns="http://www.w3.org/2000/svg"><path fill="#F0F3FA" d="M0 0h56v56H0z"/><path d="M48.94 31.39c-.37 2.54-2.8 3.61-4.9 3.61-1.87 0-2.83-.5-3.53-.86a2.45 2.45 0 0 0-1.1-.38c-.45 0-.87.67-.9 1.24h-.9v-5h.87c.4 1.04 2.47 3.9 5.07 3.97 1.53.04 3.1-.52 3.17-2.05.06-1.52-1.55-1.87-3.44-2.28l-.74-.17c-2.9-.66-4.92-2.26-4.8-4.48.15-2.62 2.36-4 5.23-3.99a6 6 0 0 1 3.1.89c.34.18.6.32.8.32.56 0 .9-.84.9-1.21h.9v5h-.87l-.01-.03c-.33-.7-1.71-3.64-4.55-3.92-1.64-.16-3.15.5-3.34 1.58-.3 1.72 1.94 2.18 3.87 2.57l.21.05c2.52.51 5.47 1.72 4.96 5.14Zm-32.54-6.9c.44-.44.9-.86 1.38-1.25.37-.3.76-.58 1.18-.8.33-.2.68-.34 1.04-.44.43-.11.68-.12.9-.13h.1V21h-7v.87h.54c.68 0 1.12.06 1.34.18.23.13.35.3.35.52 0 .17-.06.35-.17.55-.11.2-.38.52-.8.98L11 28.44v-5.5c-.01-.85.64-1.09 1.38-1.07H13V21H6v.87h.38c.22 0 .45.01.67.05.53.1.56.54.55 1.03v10.1c.01.87-.4 1.1-1.22 1.08H6V35h7v-.87h-.62c-.74.01-1.4-.23-1.38-1.08v-3.14l1.6-1.55 2.85 4.57.18.33c.05.1.07.2.08.32 0 .13-.05.3-.29.42a5.1 5.1 0 0 1-1.42.13V35h7v-.87c-.27-.01-.3-.02-.35-.04l-.09-.02a1.7 1.7 0 0 1-.44-.13.95.95 0 0 1-.34-.26l-.3-.42-4.64-7.17.12-.13 1.44-1.47Zm5.6 9.64V35h8.92c.99 0 1.84-.1 2.51-.31.68-.2 1.23-.49 1.65-.82.41-.33.71-.73.9-1.16.18-.44.27-.91.27-1.39 0-.6-.15-1.17-.45-1.59-.3-.42-.68-.75-1.15-1.02a6.24 6.24 0 0 0-1.57-.64c-.53-.15-1.08-.25-1.63-.3l-.09-.01v-.04l.08-.02a6.64 6.64 0 0 0 3.15-1.11c.64-.52.96-1.38.96-2.25a2.77 2.77 0 0 0-1.4-2.46c-.45-.29-1-.5-1.63-.66a9.5 9.5 0 0 0-2.15-.22H22v.87h.75c.22 0 .44.01.66.05.53.1.6.54.59 1.03v10.1c.01.87-.44 1.1-1.25 1.08H22Zm6.35-12.21c.3-.04.62-.06.94-.05.92 0 1.63.2 2.12.6.5.4.75 1.06.75 1.95 0 1.98-1.1 2.89-3.3 2.89H27.4v-3.65c0-.38.06-.7.1-.92v-.02a.97.97 0 0 1 .27-.56c.14-.12.33-.2.58-.24Zm-.9 11.48a1.45 1.45 0 0 1-.05-.35v-4.67h2.43c.87 0 1.56.17 2.06.7.49.52.73 1.25.73 2.16 0 1.04-.31 1.8-.94 2.23-.62.44-1.54.66-2.73.66-.27 0-.53-.01-.79-.05a.99.99 0 0 1-.47-.19.63.63 0 0 1-.2-.36l-.04-.13Z" fill="#244661"/></svg>