<!-- by TradeStack --><svg width="56" height="56" viewBox="0 0 56 56" fill="none" xmlns="http://www.w3.org/2000/svg">
<rect width="56" height="56" fill="#F0F3FA"/>
<path fill-rule="evenodd" clip-rule="evenodd" d="M23.2665 12H29.934L25.8284 25H19.1609L23.2665 12ZM27.8619 32.4035L33.2854 36.4154L22.3038 45L16.8803 40.9881L27.8619 32.4035ZM37.4834 25.8958L32.0162 29.9816L36.5706 43.4469L42.0378 39.3611L37.4834 25.8958ZM11 27.9237L13.1186 21.3839L24.2712 29.7294L22.1525 36.2691L11 27.9237ZM28.555 19L29.0027 20.5H43.2846L42.8369 19H28.555ZM29.7862 23L29.3385 21.5H43.6203L44.068 23H29.7862ZM30.2704 24L30.7181 25.5H45L44.5523 24H30.2704Z" fill="#001F52"/>
</svg>
