<!-- by TradeStack --><svg viewBox="0 0 56 56" xmlns="http://www.w3.org/2000/svg"><path fill="#F0F3FA" d="M0 0h56v56H0z"/><path d="M39.26 28.19c-.17-.04-.33.03-.48.19-.18.19-.34.4-.47.62l-.96.97-.9.82c-.44.22-.78.5-1.03.83l-1.05.7a32.09 32.09 0 0 1-5.06 2.72 3.2 3.2 0 0 0-.28-.46c-.14-.2-.2-.42-.21-.67 1.67-.74 3.25-1.6 4.75-2.6.45-.23.76-.5.93-.82.51-.14.86-.42 1.04-.83.12.02.23 0 .33-.07.29-.2.52-.44.7-.7.4-.31.67-.63.82-.96.33-.24.62-.55.85-.94 1.22-1.49 2-3.16 2.35-5.01a6.96 6.96 0 0 0-.32-3.87 7.42 7.42 0 0 0-5.45-4.65c-3.65-.93-7.3 1.04-9.27 3.87-.56.8-.99 1.5-1.28 2.1l-1.3-.2c1.86-4.42 6.35-8.03 11.7-7.08 1.22.22 2.38.69 3.48 1.4a8.37 8.37 0 0 1 3.69 8.8 12.1 12.1 0 0 1-2.62 5.55c-.11.13-.1.23.04.29Z" fill="#01C2FE"/><path d="M37.39 26.17c-.12.02-.2.09-.27.2l-.52.78a2.5 2.5 0 0 0-.86.91c-.4.18-.7.47-.87.86-.42.12-.8.39-1.12.8l-1.1.68c-1.29.91-2.69 1.68-4.2 2.3a1.72 1.72 0 0 1-.34-1.18l3.43-1.86c.13-.07.14-.14.02-.23l-.79-.57a.28.28 0 0 0-.35 0c-.7.5-1.53.94-2.47 1.33l-.18-1.26 1.62-.92 1.16-.78c.42-.14.8-.4 1.11-.8.4-.2.7-.5.9-.9.13.03.28-.04.45-.2.25-.25.44-.46.55-.64.31-.3.56-.63.75-1.01a4.63 4.63 0 0 0 1.17-3.15c-.06-1.2-.7-1.98-1.91-2.31-1.86-.52-3.48 1.4-4.28 2.68-.34.06-.84-.3-1.15-.45.43-.9 1.03-1.69 1.8-2.35 2.85-2.5 7.2-.8 6.82 2.99a6.44 6.44 0 0 1-1.3 3.25.13.13 0 0 0-.03.09c.01.07.05.11.1.12-.47-.07-.71.64-.78 1.01-.14 0-.3.08-.48.24-.25.24-.4.43-.46.58-.27.23-.55.45-.84.66a.22.22 0 0 0-.08.1.29.29 0 0 0-.01.15h-.1a.17.17 0 0 0-.11.03l-.82.61c-.07.05-.07.1 0 .15l.84.6a.2.2 0 0 0 .25 0l.82-.73c.42-.19.71-.47.88-.86.44-.1.73-.42.9-.93.25-.05.44-.16.56-.34.07-.1.13-.31.19-.63h.11c.03-.01.06-.04.08-.07 1.66-2.38 2.53-5.65.16-7.97a5.5 5.5 0 0 0-2.4-1.31c-2.1-.59-4.42.46-5.78 1.95-.59.64-1.14 1.38-1.65 2.22a3.47 3.47 0 0 1-1.23-.33c1-1.89 2.25-3.46 4.25-4.46a6.72 6.72 0 0 1 7.89 1.2c2.73 2.67 1.76 6.89-.28 9.58a.41.41 0 0 0-.05.17Z" fill="#01C2FE"/><path d="m22.96 19.24 1.3.18 1.32.26c.4.19.81.3 1.23.33.44.26.88.4 1.33.44.3.16.81.51 1.15.45.04.04.1.08.15.1 1.13.51 2.23 1.08 3.3 1.72a86 86 0 0 1 1.57.96c-.19.38-.44.72-.75 1-1.52-1-3.12-1.86-4.8-2.57a4.4 4.4 0 0 0-1.26-.45 3.29 3.29 0 0 0-1.35-.43c-.35-.16-.7-.25-1.05-.26-.44-.2-.9-.3-1.38-.34l-1.23-.16a12.54 12.54 0 0 0-5.37.45c-3.08.97-5.23 3.03-5.72 6.13-.52 3.35 1.6 6.54 4.98 7.81 1.89.72 3.91.96 6.07.72l.47 1.17c-3.31.4-6.72-.1-9.37-2.03a8.1 8.1 0 0 1-.9-12.7c2.2-2.09 5.44-2.96 8.58-2.89.28 0 .86.04 1.73.1Z" fill="#017AFE"/><path d="M23.72 20.63c-.06.39-.19.76-.4 1.13l-1.2-.13c.05-.41.17-.8.37-1.16l1.23.16ZM26.15 21.23c.05.39-.05.75-.29 1.1L24.74 22c0-.36.11-.7.36-1.04.35.01.7.1 1.05.26Z" fill="#01D2E2"/><path d="m22.13 21.63 1.2.13 1.4.25 1.13.32c.45.23.9.36 1.34.39.33.24.7.41 1.1.5a30.7 30.7 0 0 1 4.27 2.32c-.2.4-.5.7-.9.89a26.38 26.38 0 0 0-3.63-1.92l-1.2-.51-1.28-.42c-.4-.13-.8-.37-1.24-.27-.38-.21-.81-.3-1.3-.26a3.4 3.4 0 0 0-1.31-.16c-1.47-.17-2.9 0-4.25.5-2.64.99-4.16 3.51-3.26 6.09 1.04 2.96 4.43 3.93 7.52 3.7l.37 1.22c-1.06.08-2.1.04-3.15-.11-2.55-.37-4.98-1.82-5.9-4.12a5.74 5.74 0 0 1 1.78-6.69c1.99-1.6 4.62-2.07 7.3-1.85Z" fill="#017AFE"/><path d="m28.77 22.11-.47 1.11a2.9 2.9 0 0 1-1.1-.5l.3-1.06c.45.09.87.24 1.27.45ZM23.02 23.05l-.23 1.1-1.2-.14.12-1.12c.48-.03.92.03 1.31.16Z" fill="#01D2E2"/><path d="m25.56 23.58-.24 1.17c-.43-.06-.8-.18-1.13-.34l.13-1.1c.44-.1.85.14 1.24.27Z" fill="#00CEAE"/><path d="m21.58 24.01 1.21.13 1.4.27c.32.16.7.28 1.13.34l1.34.44c.46.33.85.47 1.18.4-.04.09-.01.16.1.2 1 .47 1.86.95 2.61 1.44l-1.16.78a5.98 5.98 0 0 0-1.64-.85c-.36-.31-.77-.5-1.23-.53-.3-.28-.74-.46-1.31-.54-.38-.2-.8-.32-1.26-.37l-1.34-.32-1.25-.1c-1.73-.14-4.37.36-4.75 2.2-.51 2.55 2.52 3.4 4.68 3.21l.28 1.28c-.5.01-1.02 0-1.53-.03-2.23-.14-4.62-1.35-4.8-3.68-.2-2.6 2.33-4.08 4.84-4.21.49-.03.99-.05 1.5-.06Z" fill="#017AFE"/><path d="m28.04 24.51-.2 1.09c-.33.06-.72-.08-1.18-.4l.18-1.2 1.2.51Z" fill="#00CEAE"/><path d="m35.53 24.55.76.64c-.06.32-.13.53-.2.63-.1.18-.3.3-.56.34l-.78-.6c.07-.37.31-1.08.78-1Z" fill="#01ADFA"/><path d="M22.61 25.4a39.2 39.2 0 0 0 0 5.26l.25 1.17c-.01.37.06.76.2 1.18l.32 1.19.4 1.19.48 1.14c1.81 3.97 6.04 7.34 10.93 5.95A7.38 7.38 0 0 0 40.71 35c-.13-2.25-1.12-4.14-2.4-6 .13-.23.29-.44.47-.63.15-.16.3-.23.48-.2 1.92 2.37 3.04 5.32 2.66 8.31-.9 7.09-9.7 9.87-15.29 5.22a13.34 13.34 0 0 1-3.71-4.96l-.47-1.17-.36-1.18-.37-1.22-.15-1.19-.28-1.28.04-.04a25.2 25.2 0 0 1 .04-5.36l1.24.1Z" fill="#00FE78"/><path d="M25.2 26.09c-.15 1.3-.14 2.62.04 3.94l.15 1.22c0 .4.08.82.25 1.25l.27 1.14.45 1.18.48 1.17c1.06 1.77 2.25 3.27 4.32 4.02 2.58.94 5.4-.25 6.48-2.54 1.08-2.31.08-4.64-1.19-6.68l.9-.82a8.77 8.77 0 0 1 1.92 4.1c.5 2.7-.51 5.2-2.98 6.63a6.9 6.9 0 0 1-6.3.2c-2.12-1.04-3.33-2.63-4.43-4.6l-.53-1.18-.37-1.13-.37-1.24-.18-1.18-.16-1.23a25.04 25.04 0 0 1 0-4.62c.46.05.88.17 1.26.37Z" fill="#00FE78"/><path d="m37.39 26.17.85.82c-.23.39-.52.7-.85.94l-.79-.78.52-.79c.06-.1.15-.17.27-.2Z" fill="#00CEAE"/><path d="m33.8 26.38.84.7c-.17.4-.46.68-.88.87l-.88-.66a.29.29 0 0 1 0-.15.22.22 0 0 1 .1-.1c.28-.21.56-.43.83-.66Z" fill="#01ADFA"/><path d="m27.75 27.16.02 1.77.19 1.26c-.12.38-.07.83.15 1.33-.03.45.08.84.33 1.18-.01.43.11.83.38 1.21 0 .25.07.48.2.67.15.21.25.36.29.46.87 1.72 3.27 4.02 5.4 2.18 1.44-1.26.55-3.63-.34-4.9l1.05-.7c1.56 2.07 2.2 5.24-.32 6.87-1.1.7-2.6.83-3.74.3a6.62 6.62 0 0 1-3.26-3.26l-.6-1.13-.38-1.14-.36-1.17-.12-1.29-.14-1.23.02-2.95c.46.05.87.23 1.23.54Z" fill="#00FE78"/><path d="m35.74 28.06.84.82c-.19.27-.42.5-.71.7-.1.07-.2.1-.33.08l-.67-.74c.18-.4.46-.68.87-.86Z" fill="#00CEAE"/><path d="m26.5 29.57.14 1.23-1.25.45-.15-1.22c.44-.26.86-.4 1.26-.46Z" fill="#01ADFA"/><path d="M33.75 29.72c.28.2.53.46.75.77-.17.31-.48.59-.93.82a3.89 3.89 0 0 0-.92-.9l1.1-.69Z" fill="#00CEAE"/><path d="m23.95 30.34.16 1.23-1.25.26-.24-1.17 1.33-.32Z" fill="#0192FA"/><path d="m26.76 32.1.36 1.16-1.21.38-.27-1.14c.32-.2.7-.34 1.12-.4Z" fill="#01ADFA"/><path d="m24.29 32.75.37 1.24-1.28.2-.32-1.18c.4-.02.8-.1 1.23-.26Z" fill="#0192FA"/><path d="m28.1 35.53-1.26.46-.48-1.17 1.14-.42.6 1.13Z" fill="#01ADFA"/><path d="m25.03 35.12.53 1.18-1.3.23-.48-1.14 1.25-.27Z" fill="#0192FA"/></svg>