<!-- by TradeStack --><svg width="56" height="56" viewBox="0 0 56 56" xmlns="http://www.w3.org/2000/svg"><path fill="#F0F3FA" d="M0 0h56v56H0z"/><path d="M16 17.78v9.43c0 .72.85 1.06 1.32.54l3.92-4.32a1 1 0 0 0 .26-.67v-4.98a.77.77 0 0 0-.76-.78h-3.98a.77.77 0 0 0-.76.78ZM16 38.4v-6.13c0-.4.14-.77.4-1.06L32.4 13.1c.62-.7 1.5-1.1 2.41-1.1h4.41c.67 0 1.02.82.56 1.32L17 38.82c-.35.38-.99.12-.99-.41Z" fill="#212121"/><path d="m24.21 34.2 9.12 9.5c.18.2.43.3.69.3h5.22c.67 0 1.01-.8.55-1.3l-11.8-12.4a.95.95 0 0 0-1.4.04l-2.4 2.84c-.26.3-.25.74.02 1.02Z" fill="#354EA2"/></svg>