<?xml version='1.0' encoding='utf-8'?>
<!-- by TradeStack -->
<svg width="56" height="56" viewBox="0 0 56 56" xmlns="http://www.w3.org/2000/svg"><path fill="#F0F3FA" d="M0 0h56v56H0z" /><path d="m28 11 .07.01A11.6 11.6 0 0 1 28.06 30L28 30h-.06A11.61 11.61 0 0 1 23 20.5c0-3.77 1.8-7.21 4.94-9.49L28 11ZM16.8 31.02a12.23 12.23 0 0 1 10.88-.8c.2.07.3.21.26.42a11.87 11.87 0 0 1-6.71 9.14 12.23 12.23 0 0 1-9.96.3c-.2-.07-.3-.21-.26-.42a11.87 11.87 0 0 1 5.79-8.64ZM45 39.9a11.47 11.47 0 0 0-5.82-8.92 12.4 12.4 0 0 0-10.94-.71c-.01 0-.03.02-.05.06l-.04.07c.29 3.7 2.54 7.05 5.82 8.93a12.41 12.41 0 0 0 10.94.71c.02 0 .03-.02.06-.06l.03-.08Z" fill="#D71518" /></svg>