<?xml version='1.0' encoding='utf-8'?>
<!-- by TradeStack -->
<svg width="56" height="56" viewBox="0 0 56 56" xmlns="http://www.w3.org/2000/svg"><path fill="url(#aoeo132hf)" d="M0 0h56v56H0z" /><path d="M4 30v-4h.67v1.84h.05L6.17 26h.82l-1.44 1.8L7 30h-.8l-1.12-1.72-.4.5V30H4ZM10.67 28c0 .42-.07.78-.22 1.08a1.62 1.62 0 0 1-1.48.92c-.33 0-.62-.08-.88-.24a1.67 1.67 0 0 1-.6-.68A2.4 2.4 0 0 1 7.25 28c0-.42.07-.78.22-1.08.15-.3.36-.52.61-.68.26-.16.55-.24.88-.24.32 0 .61.08.87.24.25.16.46.38.6.68.16.3.23.66.23 1.08ZM10 28c0-.3-.04-.54-.13-.75a.93.93 0 0 0-.9-.62c-.2 0-.37.06-.53.16-.15.1-.28.26-.36.46-.1.2-.13.45-.13.75s.04.55.13.75a.94.94 0 0 0 .9.62c.2 0 .38-.05.53-.16.15-.1.28-.26.36-.46.09-.2.13-.45.13-.75ZM12.57 30h-1.26v-4h1.29c.36 0 .68.13.95.29.26.15.47.37.6.66.15.3.22.64.22 1.05 0 .4-.07.75-.21 1.04-.15.3-.35.52-.62.67-.27.16-.6.29-.97.29Zm-.57-.66h.54c.26 0 .47-.05.64-.15.18-.1.3-.25.4-.45.08-.2.13-.45.13-.74 0-.3-.05-.55-.14-.75a.92.92 0 0 0-.38-.44c-.17-.1-.38-.15-.63-.15H12v2.68ZM15.66 26v4H15v-4h.66ZM16.78 30h-.71l1.3-4h.83l1.31 4h-.72l-.99-3.15h-.03L16.78 30Zm.03-1.58h1.95v.57h-1.95v-.57ZM20 30v-4h.67v1.84h.05L22.17 26h.82l-1.44 1.8L23 30h-.8l-1.12-1.72-.4.5V30H20ZM35.21 27.37h-.66a.92.92 0 0 0-.1-.31.78.78 0 0 0-.45-.37.96.96 0 0 0-.32-.06.9.9 0 0 0-.53.16c-.15.1-.27.26-.36.47-.08.2-.13.45-.13.74 0 .3.05.55.13.75.09.2.21.36.36.46a1 1 0 0 0 .83.1.82.82 0 0 0 .57-.66h.66a1.6 1.6 0 0 1-.48.96 1.47 1.47 0 0 1-1.06.39c-.32 0-.6-.08-.86-.24a1.62 1.62 0 0 1-.6-.68c-.14-.3-.21-.66-.21-1.08 0-.42.07-.78.22-1.08a1.57 1.57 0 0 1 1.45-.92c.2 0 .4.03.57.1a1.42 1.42 0 0 1 .8.69c.09.17.15.36.17.58ZM39.08 28c0 .42-.07.78-.22 1.08a1.58 1.58 0 0 1-1.46.92c-.32 0-.6-.08-.86-.24a1.66 1.66 0 0 1-.6-.68c-.14-.3-.21-.66-.21-1.08 0-.42.07-.78.22-1.08A1.59 1.59 0 0 1 37.4 26a1.58 1.58 0 0 1 1.45.92c.15.3.22.66.22 1.08Zm-.66 0c0-.3-.05-.54-.13-.75-.09-.2-.2-.36-.36-.46a.9.9 0 0 0-.53-.16.9.9 0 0 0-.52.16c-.15.1-.27.26-.36.46-.09.2-.13.45-.13.75s.04.55.13.75c.09.2.2.36.36.46.15.1.33.16.52.16a.9.9 0 0 0 .53-.16c.15-.1.27-.26.36-.46.08-.2.13-.45.13-.75ZM39.7 30v-4h1.37c.28 0 .52.1.7.22.2.11.34.27.44.46.1.2.15.42.15.66 0 .25-.05.47-.15.67-.1.2-.24.34-.43.46-.2.1-.43.16-.72.16h-.9v-.58h.82a.8.8 0 0 0 .4-.09c.1-.06.18-.14.23-.25.05-.1.08-.23.08-.37a.83.83 0 0 0-.08-.36.54.54 0 0 0-.23-.25.81.81 0 0 0-.4-.09h-.61V30h-.66ZM43 30v-4h1.38c.28 0 .51.1.7.22.2.11.34.27.44.46.1.2.14.42.14.66 0 .25-.05.47-.14.67-.1.2-.25.34-.44.46-.2.1-.43.16-.71.16h-.9v-.58h.81a.8.8 0 0 0 .4-.09c.1-.06.18-.14.23-.25.06-.1.08-.23.08-.37a.83.83 0 0 0-.08-.36.54.54 0 0 0-.23-.25.81.81 0 0 0-.4-.09h-.61V30H43ZM46 30v-4h2.54v.64h-1.88v1.06h1.75v.6h-1.75v1.06h1.9V30H46ZM49.21 30v-4h1.37c.28 0 .52.1.7.2.2.11.34.26.44.45.1.18.15.4.15.65s-.05.46-.15.65c-.1.18-.25.32-.44.42-.2.1-.43.15-.7.15h-.98v-.58h.88c.17 0 .3-.03.4-.08.1-.05.19-.12.24-.21.05-.1.07-.21.07-.35a.75.75 0 0 0-.07-.36.5.5 0 0 0-.24-.22.91.91 0 0 0-.4-.08h-.6V30h-.67Zm1.89-1.82L52 30h-.74l-.89-1.82h.73Z" fill="#fff" /><path d="M27.7 25.32h1.47c1.84-.4 2.38 1.08 2.42 1.88v1.66c1.35 1.33.3 1.8-.39 1.87.37-.71-.3-1.03-.69-1.1v.72c-.06.95-.92.65-1.34.38.69-.5.34-1.57-.7-1.57-1.03 0-.89.8-1.38 1.19-.66.53-1.37.38-1-.34-.11-.13-.66.16-.72 0-.27-.68.73-.81.73-1.66 0-.69-.82-1.06-1.23-1.16l-.77.73-.77-.73.77-1.36c.4-1.09 1.5-.8 2-.51.55-.58 1.3-.24 1.6 0Z" fill="#676769" /><path d="M28 25.32h-.3c-.3-.24-1.05-.58-1.6 0-.5-.28-1.6-.58-2 .51l-.77 1.37.77.72.77-.73c.4.1 1.23.47 1.23 1.16 0 .4-.24.65-.45.87-.22.23-.42.44-.28.79.03.08.2.05.36 0 .15-.03.3-.06.37 0-.38.72.33.87 1 .34.16-.14.26-.32.35-.5.12-.25.25-.5.55-.62v-3.91Z" fill="#EF6733" /><defs><linearGradient id="aoeo132hf" x1="0" y1="28" x2="56" y2="28" gradientUnits="userSpaceOnUse"><stop offset=".5" stop-color="#666668" /><stop offset=".5" stop-color="#EF6632" /></linearGradient></defs></svg>