<?xml version='1.0' encoding='utf-8'?>
<!-- by TradeStack -->
<svg width="56" height="56" viewBox="0 0 56 56" xmlns="http://www.w3.org/2000/svg"><path fill="#F0F3FA" d="M0 0h56v56H0z" /><path d="M37.27 13.74c5.2 3.6 7.77 8.62 7.73 15.05-.11 1.36-.34 2.7-.69 4.03a17.1 17.1 0 0 1-14.75 12.14c-6.92.46-12.72-2.65-16.29-8.46-2.9-5.34-3.02-10.77-.38-16.27a17.76 17.76 0 0 1 5.73-6.43 17.08 17.08 0 0 1 18.65-.06ZM44.48 28A16.5 16.5 0 0 0 28 11.5 16.46 16.46 0 0 0 11.53 28 16.5 16.5 0 0 0 28 44.5 16.45 16.45 0 0 0 44.48 28Z" fill="#E9AF10" /><path d="M44.48 28A16.52 16.52 0 0 1 28 44.5 16.46 16.46 0 0 1 11.53 28 16.5 16.5 0 0 1 28 11.5 16.46 16.46 0 0 1 44.48 28ZM29.9 14.04l-1.3.03a.12.12 0 0 0-.13.11.12.12 0 0 0 .12.13l.91.03a.13.13 0 0 1 .12.09v.05c-.03.88-1.05.6-1.66.58a.33.33 0 0 1-.33-.33V13.4a.33.33 0 0 1 .32-.33c.33-.02 1.73-.21 1.6.34-.02.09.02.13.1.13h.17c.08 0 .13-.04.14-.12.13-.99-1.98-.62-2.41-.49a.22.22 0 0 0-.15.14c-.21.53-.38 2.04.44 2.2.57.12 1.16.11 1.78-.01a.39.39 0 0 0 .31-.34l.08-.75c.01-.09-.02-.13-.1-.13Zm-6.13.74 1.48-.45a.1.1 0 0 0 .06-.08.1.1 0 0 0-.05-.09c-.2-.09-1.24.28-1.53.34-.09.02-.14-.02-.16-.1l-.13-.54c-.02-.07 0-.12.08-.15l1.5-.45c.08-.03.09-.07.03-.12l-.05-.06a.1.1 0 0 0-.11-.03l-1.83.52c-.08.02-.1.06-.08.14l.64 2.23c.02.07.06.1.13.07l1.9-.56c.03 0 .05-.03.05-.07v-.1c0-.05-.02-.07-.07-.05l-1.57.42c-.08.02-.13 0-.15-.09l-.2-.67c0-.06.01-.1.06-.1Zm9.65-.27a.78.78 0 0 0-.54-.96l-1.19-.34a.77.77 0 0 0-.96.53l-.27.96a.78.78 0 0 0 .53.96l1.2.34a.77.77 0 0 0 .96-.53l.27-.96Zm-12 1.07.62-1.47c.03-.05 0-.08-.06-.08-.38-.01-.82 1.35-.97 1.7a.2.2 0 0 1-.35.01l-.39-.68c-.03-.07-.09-.1-.16-.07-.4.1.54 1.59.9 2.21.08.14.2.14.3.02a.15.15 0 0 0 .02-.17l-.36-.72a.24.24 0 0 1 .14-.33.24.24 0 0 1 .13 0c.42.08 1.87.4 2.08.13.05-.06.03-.1-.04-.11l-1.79-.3c-.08-.02-.1-.06-.07-.14Zm12.4.85a.06.06 0 0 1-.03-.07l1.03-1.89a.06.06 0 0 0-.03-.08l-.22-.12a.06.06 0 0 0-.08.02l-1.18 2.12a.06.06 0 0 0 0 .04.06.06 0 0 0 .02.04l1.75.97a.06.06 0 0 0 .1-.05v-.18a.06.06 0 0 0-.04-.06l-1.33-.74Zm-14.54-.69a.17.17 0 0 0-.24-.04l-.03.01a.17.17 0 0 0-.07.18l.02.06 1.25 1.84a.17.17 0 0 0 .24.04l.03-.01a.17.17 0 0 0 .07-.18.17.17 0 0 0-.03-.06l-1.24-1.84Zm16.45 2.17c.67.64 1.52 1.54 2.22.88.53-.5 1.26-1.19.5-1.88-.44-.4-.89-.77-1.36-1.15-.05-.04-.1-.03-.13.02l-1.48 1.77c-.04.05-.04.1 0 .15.05.1.2.16.25.2ZM39.38 28A11.4 11.4 0 0 0 28 16.6a11.36 11.36 0 0 0-11.37 11.4A11.4 11.4 0 0 0 28 39.38 11.36 11.36 0 0 0 39.38 28ZM19.46 18c-.25-.6-1.24-1.62-1.97-.97-.4.35-.82.79-1.27 1.32-.05.05-.05.1 0 .16l1.64 1.57c.06.05.11.05.16 0 .38-.4 1.68-1.5 1.44-2.07Zm-4.87 3.65c.77-.13 1.55-.25 2.34-.36.33-.05.52-.2.59-.52.01-.07-.01-.13-.08-.16l-1.92-1.11c-.07-.04-.13-.03-.18.04l-.07.1c-.05.08-.04.13.04.18l1.73 1a.06.06 0 0 1 .03.07.06.06 0 0 1-.06.04l-2.29.35c-.38.07-.6.24-.67.5-.02.09 0 .14.08.18l1.96 1.13a.13.13 0 0 0 .12.01.14.14 0 0 0 .08-.1l.02-.08c.01-.08-.02-.14-.1-.19l-1.64-.96a.07.07 0 0 1-.04-.07.07.07 0 0 1 .06-.05Zm25.64.67c-.58.43-1.1-.77-1.18-1.07-.14-.5 1.12-1.07 1.44-1.16.08-.02.15 0 .2.08l.71 1.13c.05.08.04.15-.02.21l-.24.29c-.05.06-.05.11 0 .17l.07.07c.05.06.1.07.17.03.83-.55-.52-2.6-1.26-2.29-.51.22-1.65.73-1.34 1.49.23.55.75 1.92 1.55 1.45.07-.04.1-.1.09-.18l-.02-.15c-.02-.11-.07-.14-.16-.07Zm2.2.94a.8.8 0 0 0-.99-.52l-.93.3a.8.8 0 0 0-.5 1l.37 1.16a.79.79 0 0 0 .99.51l.93-.3a.79.79 0 0 0 .5-.99l-.37-1.16Zm-26.58 1.05a.77.77 0 0 0-.57-.92l-.99-.23a.76.76 0 0 0-.92.58l-.28 1.22a.77.77 0 0 0 .57.92l1 .23a.77.77 0 0 0 .91-.58l.28-1.22Zm25.8 2.6v1.27c0 .08-.04.14-.1.19a.8.8 0 0 1-.75.11c-.09-.03-.13 0-.13.1l-.01.18c0 .07.03.12.1.14.38.11.7.04.94-.22.05-.05.1-.05.15 0 .27.28.6.34.96.17.52-.24.36-1.6.35-2.4 0-.06-.04-.1-.1-.1l-2.33.06c-.06 0-.1.03-.11.1-.1.47.64.24.89.25.09.01.13.06.13.15Zm-26.84 1.23c-.43-.03-2.11-.24-2.02.22.01.07.06.11.14.11l2.3.02c.1 0 .14-.04.14-.13v-1.85c0-.07-.03-.1-.1-.1l-.07.02c-.07 0-.1.05-.1.12l-.03 1.35c0 .18-.09.26-.26.24Zm-.75 3.21-.77.1c-.1.02-.13.07-.12.17l.02.13c.02.08.06.11.14.1l2.28-.37c.09-.02.12-.07.1-.15l-.02-.08c-.02-.1-.09-.15-.2-.13l-.86.12a.18.18 0 0 1-.2-.16c0-.03 0-.07.02-.1.21-.4 1.04-1.65.85-2.04-.04-.08-.08-.08-.12 0l-.86 1.6c-.04.06-.09.07-.14.02l-1.22-1.1c-.06-.07-.1-.05-.12.04-.06.36 1.04 1.22 1.33 1.48a.21.21 0 0 1-.11.37ZM42.99 30l-2.24-.46c-.08-.02-.13.01-.15.1l-.03.15c-.02.07 0 .11.08.13l.7.14c.08.02.1.06.1.13-.04.41-.44 1.68-.05 1.94 1.43.95 1.53-1.25 1.68-2 .02-.07-.01-.11-.09-.13Zm-2.74 4.49a.13.13 0 0 0-.18 0l-.46.45a.13.13 0 0 0 0 .18l.45.46a.13.13 0 0 0 .19 0l.45-.45a.13.13 0 0 0 0-.19l-.45-.45Zm-24.18.07a.18.18 0 0 0-.26 0l-.39.39a.18.18 0 0 0 0 .25l.39.4a.18.18 0 0 0 .25 0l.4-.38a.18.18 0 0 0 0-.26l-.4-.4Zm3.97 3.66.67.52c.06.05.1.04.15-.02.15-.21-1.58-1.47-1.8-1.65-.07-.05-.12-.04-.16.02l-.03.06c-.04.05-.03.1.03.15l.65.52c.06.05.07.1.02.16l-1.26 1.58c-.06.07-.05.13.02.17l.1.07c.07.05.13.04.18-.02l1.24-1.54c.06-.06.12-.07.19-.02Zm15.21.55.97-.8a.2.2 0 0 1 .24-.02l.32.18c.07.04.12.02.15-.06l.03-.1a.16.16 0 0 0-.03-.15c-.5-.66-2.03.7-2.18 1.34-.02.06 0 .12.02.18.24.48 1.01 1.59 1.57 1.38.3-.1 1.43-.87 1.58-1.46a.2.2 0 0 0-.02-.17l-.41-.66c-.05-.08-.11-.1-.19-.04l-.95.77c-.07.05-.07.1-.01.16l.06.06c.03.03.06.03.1 0l.63-.51a.11.11 0 0 1 .14-.01c.92.5-.62 1.38-.99 1.57a.14.14 0 0 1-.17-.01 4.2 4.2 0 0 1-.95-1.13.4.4 0 0 1 .1-.52Zm-14.63 2a.54.54 0 0 0 .06-.33c-.03-.19-.11-.22-.26-.1-.16.15-.22.34-.15.58a.3.3 0 0 0 .1.17c.47.4 1.01.7 1.61.87.08.02.14.01.2-.03.33-.2.5-.5.51-.89a.2.2 0 0 0-.09-.19l-1.34-.89a.17.17 0 0 1-.08-.17c.02-.18.1-.33.25-.45.05-.04.1-.05.16-.04.42.12.8.32 1.14.6.07.06.09.13.06.21l-.04.12c-.03.06-.01.12.05.16.16.11.27.1.33-.05.24-.64-1.01-1.14-1.45-1.28-.78-.25-1.16.8-.45 1.25.32.2.64.4.95.57a.27.27 0 0 1 .12.3c-.25.9-1.34.1-1.65-.23-.06-.05-.07-.11-.03-.18Zm12.71-.02.71-1.44a.07.07 0 0 0-.01-.08.07.07 0 0 0-.09-.02l-.16.08a.31.31 0 0 0-.14.15l-.74 1.47a.18.18 0 0 1-.26.07.19.19 0 0 1-.07-.07c-.08-.18-.31-.89-.58-.81a.17.17 0 0 0-.13.17c0 .02 0 .05.02.07l.95 2.03c.03.07.08.1.15.09l.12-.01c.1 0 .13-.06.09-.15l-.36-.86a.2.2 0 0 1 .24-.28c.38.09 1.88.51 2.1.27.06-.07.05-.12-.05-.14l-1.72-.39c-.08-.02-.1-.07-.07-.15Zm-8.73.46c-.2-.43-.55-1.26-.89-1.17-.07.01-.09.06-.05.12l.64 1.17c.04.07.02.12-.04.16l-1.18.82c-.07.05-.07.1 0 .14.33.22 1.14-.53 1.44-.72.06-.04.11-.03.15.04.17.28.6 1.38.96 1.26.06-.02.08-.06.05-.11l-.65-1.25c-.04-.07-.03-.12.03-.17l1.02-.76c.06-.04.06-.08.01-.13-.25-.25-1.14.55-1.32.66-.07.04-.13.03-.17-.06Zm3.12 1.6c-.3-.64-.57-1.29-.82-1.95-.06-.17-.2-.3-.38-.21-.07.03-.09.08-.06.15l.97 2.28c.04.08.1.12.18.12h.31c.08 0 .13-.04.17-.1l1.12-2.2c.02-.05.01-.1-.04-.12-.18-.1-.3-.08-.37.07-.31.66-.63 1.31-.97 1.96-.04.07-.07.07-.11 0Zm2.19-1.17a.18.18 0 0 0 .14.03.2.2 0 0 0 .13-.08.21.21 0 0 0 .04-.15.18.18 0 0 0-.21-.16.2.2 0 0 0-.13.08.22.22 0 0 0-.04.15c0 .03 0 .05.02.07l.05.06Zm.32 1.45c.22-.09.28-.2.18-.34a.1.1 0 0 0-.07-.04h-.1c-.09-.01-.14.03-.17.12-.03.12.01.2.13.26h.03Z" fill="#004B85" /><path d="m32.78 13.8-1.1-.32a.45.45 0 0 0-.56.3l-.32 1.08c-.07.24.07.49.3.56l1.1.32c.24.07.5-.06.56-.3l.32-1.08a.45.45 0 0 0-.3-.56ZM37.25 16.23c1.04.76 1.74 1.4.26 2.44a.38.38 0 0 1-.45-.01l-1.09-.87c-.07-.06-.07-.12-.02-.2l1.14-1.34c.05-.05.1-.06.16-.02Z" fill="#004B85" /><path d="M39.37 28A11.4 11.4 0 0 1 28 39.4 11.36 11.36 0 0 1 16.63 28 11.4 11.4 0 0 1 28 16.61a11.36 11.36 0 0 1 11.37 11.4Zm-2.28-6.23a10.78 10.78 0 0 0-7.18-4.62c-4.4-.65-7.97.77-10.7 4.25a9.8 9.8 0 0 0-2.1 5.03c-.5 4.44 1.02 7.98 4.56 10.62a9.9 9.9 0 0 0 5 1.88c4.86.5 8.98-1.73 11.22-6.09a11.12 11.12 0 0 0-.8-11.07Z" fill="#E9AF10" /><path d="M37.09 21.77c2.17 3.1 2.56 7.63.8 11.07a10.87 10.87 0 0 1-11.23 6.09 9.9 9.9 0 0 1-4.99-1.88c-3.54-2.64-5.06-6.18-4.56-10.62.2-1.82.9-3.5 2.1-5.03 2.73-3.48 6.3-4.9 10.7-4.25 2.96.43 5.49 2.2 7.18 4.62Zm-18.47 4.75.08.06c.04.04.06.08.05.13-.36 2.9.58 6.34 2.97 8.23l-.44.91a.26.26 0 0 0 .1.34c.04.02.08.03.13.03.63.01 1.12-.27 1.48-.84l1.98 1.13h.05l.03-.04a.06.06 0 0 1 .08-.02 8.5 8.5 0 0 0 8.6-1.57c.26.24.53.52.83.84.48.5 1.27.03.9-.63a7.95 7.95 0 0 0-1.33-1.34c.15-.1.29-.13.4-.28a8.47 8.47 0 0 0 1.4-8.23c-.1-.28-.45-.9-1.05-1.82a5 5 0 0 0 .26-3.53.3.3 0 0 0-.32-.23c-1.07.1-2.07.43-3 1-.63-.63-1.43-.99-2.4-1.06-1.1-.08-2.07-.08-2.9.01-.18.02-.28-.04-.29-.2-.15-.28-.47-.36-.94-.24a9.34 9.34 0 0 0-6.92 6.13c-.04.13-.27 1.37.25 1.22Z" fill="#F3CE7D" /><path d="M18.45 17.36c.32.3.98.78.57 1.3-.28.35-.58.67-.92.97-.04.04-.1.04-.14 0l-1.27-1.22a.14.14 0 0 1 0-.2c.4-.4 1.12-1.48 1.76-.85ZM26.23 19.41c-1.1.55-2.5 1.1-3.35 1.93a.24.24 0 0 0-.04.3c.5.81 1.06 1.56 1.72 2.23l3.32 3.58c.06.06.1.05.16 0l2.5-3.12a.15.15 0 0 0 0-.18.15.15 0 0 0-.05-.04l-.96-.47a.21.21 0 0 1-.11-.12c-.07-.19-.05-.43.08-.7.59-.8 1.36-1.52 2.33-2.15a6.67 6.67 0 0 1 3-1 .3.3 0 0 1 .31.22 5 5 0 0 1-.26 3.53l-.83 1.34c-.22.38-.54.66-.94.84-.5.04-.9-.13-1.22-.53a.2.2 0 0 0-.22-.05.2.2 0 0 0-.06.04l-2.87 3.1c-.07.07-.07.14 0 .2l3.33 3.33 1.07 1.05 1 1.01a7.96 7.96 0 0 1 1.31 1.34c.38.66-.41 1.13-.9.63-.29-.32-.56-.6-.82-.84l-1.49-1.46-1.15-1.12-3.12-2.96c-.05-.05-.1-.05-.15 0l-2.57 3.18-.94 1.14L23 35.38c-.36.57-.85.85-1.48.84a.25.25 0 0 1-.22-.12.26.26 0 0 1-.01-.25l.44-.9 1.42-1.73.86-1.05 3.03-3.55c.05-.07.05-.12-.02-.18l-3.8-3.32-1.2-.92c-.32-.3-.66-.5-1.01-.6-.4-.11-.69-.05-.87.2a17.8 17.8 0 0 0-1.5 2.72c-.53.15-.3-1.1-.26-1.22a9.34 9.34 0 0 1 6.92-6.13c.47-.12.79-.04.94.24Zm-4.92 3.54c.63.37 1.22.7 1.78 1a.24.24 0 0 0 .31-.34l-1.22-1.86c-.1-.15-.22-.2-.39-.13-.48.17-1.32.83-.48 1.33Z" fill="#004B85" /><path d="M26.23 19.41c.01.16.11.22.3.2.82-.09 1.79-.09 2.9 0 .96.06 1.76.42 2.4 1.06a9.2 9.2 0 0 0-2.33 2.14 4.99 4.99 0 0 0-4.94 1.06 12.6 12.6 0 0 1-1.72-2.22.25.25 0 0 1 .04-.3c.86-.85 2.24-1.4 3.35-1.94ZM21.31 22.95c-.84-.5 0-1.16.49-1.33.16-.06.29-.02.38.13l1.22 1.86a.24.24 0 0 1-.31.34 47.8 47.8 0 0 1-1.78-1Z" fill="#F7DBA1" /><path d="M29.5 22.81c-.13.28-.15.52-.08.71.02.05.06.1.1.12l.97.47a.15.15 0 0 1 .08.1.15.15 0 0 1-.03.12l-2.5 3.11c-.05.06-.1.07-.16 0l-3.32-3.57a4.99 4.99 0 0 1 4.94-1.06Z" fill="#FBEFD2" /><path d="m41.66 23.1-1.08.33a.44.44 0 0 0-.3.55l.34 1.1c.07.24.32.37.55.3l1.09-.33a.44.44 0 0 0 .3-.55l-.35-1.1a.44.44 0 0 0-.55-.3Z" fill="#004B85" /><path d="M34.88 23.42c.6.93.95 1.54 1.04 1.82a8.47 8.47 0 0 1-1.38 8.23c-.12.15-.26.18-.4.28l-1-1c2-2.34 2.36-4.95 1.08-7.81l-.07-.15a.06.06 0 0 0-.05-.04h-.05l.83-1.33Z" fill="#F7DBA1" /><path d="m15.25 23.77-1.06-.25a.47.47 0 0 0-.57.35l-.25 1.07c-.06.26.1.51.34.57l1.06.26c.26.06.51-.1.57-.35l.26-1.08a.47.47 0 0 0-.35-.57Z" fill="#004B85" /><path d="M22.01 24.2a7.14 7.14 0 0 0-.97 5.97c.3 1.14.9 2.13 1.78 2.97.05.05.1.07.16.07l.16.01-1.42 1.72c-2.39-1.89-3.33-5.32-2.97-8.23.01-.05 0-.1-.05-.13l-.07-.06a17.8 17.8 0 0 1 1.5-2.72c.18-.25.47-.31.87-.2.35.1.69.3 1.01.6Z" fill="#F7DBA1" /><path d="m22.01 24.2 1.2.92c-1.38 2.56-1.12 4.91.8 7.05l-.87 1.05h-.16a.23.23 0 0 1-.16-.08 6.17 6.17 0 0 1-1.78-2.97 7.14 7.14 0 0 1 .97-5.97ZM34.05 24.76h.05c.03 0 .04 0 .05.03l.07.15c1.28 2.86.92 5.47-1.08 7.8l-1.07-1.05c.27-.16.43-.3.5-.4a6.07 6.07 0 0 0 .54-5.69c.4-.18.71-.46.94-.84Z" fill="#F9E5BA" /><path d="M33.1 25.6c.78 2 .6 3.9-.53 5.7-.07.1-.23.23-.5.39l-3.33-3.32c-.07-.07-.07-.14 0-.2l2.87-3.1a.2.2 0 0 1 .28 0c.32.4.73.57 1.22.53ZM23.2 25.12l3.81 3.32c.07.06.07.11.02.18L24 32.17c-1.9-2.14-2.17-4.49-.8-7.05Z" fill="#FBEFD2" /><path d="M42.3 28.55a.3.3 0 0 1-.33-.29l-.06-1.37c0-.08.04-.12.12-.12h.77c.07 0 .11.04.11.12l.01 1.43c0 .1-.05.16-.15.17l-.48.06Z" fill="#004B85" /><path d="M31.1 32.3a4.81 4.81 0 0 1-5.58.4.18.18 0 0 0-.09-.03h-.08c-.06 0-.1-.03-.1-.08v-.07l2.57-3.17c.05-.06.1-.06.15-.01l3.12 2.96Z" fill="#FBEFD2" /><path d="m42.56 30.32-.59-.13a.2.2 0 0 0-.23.15l-.26 1.27c-.03.1.04.2.15.23l.59.12c.1.02.2-.04.23-.15l.26-1.26a.2.2 0 0 0-.15-.23Z" fill="#004B85" /><path d="m31.1 32.3 1.14 1.12a.98.98 0 0 1-.77.68.3.3 0 0 0-.21.12.39.39 0 0 1-.14.11 6.82 6.82 0 0 1-6.8-.42c-.02-.02-.03-.04-.02-.07a.32.32 0 0 0 .01-.18l.94-1.13v.06c0 .05.04.08.1.08h.08c.04 0 .07.01.1.03a4.81 4.81 0 0 0 5.56-.4Z" fill="#F9E5BA" /><path d="m32.24 33.42 1.5 1.46a8.5 8.5 0 0 1-8.61 1.57.06.06 0 0 0-.07.02l-.04.04h-.05L23 35.38l1.32-1.72c.02.06.01.13 0 .18-.02.03-.01.05.01.07a6.82 6.82 0 0 0 6.8.42c.05-.02.1-.06.14-.11a.3.3 0 0 1 .2-.12c.07 0 .13-.02.18-.04.31-.13.51-.34.6-.64Z" fill="#F7DBA1" /><path d="m40.07 34.48-.46.46a.13.13 0 0 0 0 .18l.45.46c.05.05.13.05.19 0l.45-.45a.13.13 0 0 0 0-.19l-.45-.45a.13.13 0 0 0-.18 0ZM15.81 34.56l-.4.39a.18.18 0 0 0 0 .25l.4.4c.06.07.18.07.25 0l.4-.38a.18.18 0 0 0 0-.26l-.4-.4a.18.18 0 0 0-.25 0Z" fill="#E9AF10" /></svg>