<!-- by TradeStack --><svg width="56" height="56" viewBox="0 0 56 56" xmlns="http://www.w3.org/2000/svg"><path fill="#F0F3FA" d="M0 0h56v56H0z"/><path d="M8 33V22h2v5.05L14.34 22h2.4l-4.2 4.94L16.8 33h-2.37l-3.25-4.72L10 29.72V33H8ZM21.8 33H18V22h3.88c3.22 0 5.2 2.35 5.2 5.49 0 3.19-2.02 5.51-5.28 5.51ZM20 31h1.7c2.31 0 3.3-1.32 3.3-3.51 0-2.15-.96-3.49-3.24-3.49H20v7ZM29 33V22h2v5.05L35.3 22h2.4l-4.2 4.94L37.72 33h-2.36l-3.25-4.72L31 29.72V33h-2ZM48 22v11h-2l-5-7.5V33h-2V22h2l5 7.5V22h2Z"/></svg>