<?xml version='1.0' encoding='utf-8'?>
<!-- by TradeStack -->
<svg width="56" height="56" viewBox="0 0 56 56" xmlns="http://www.w3.org/2000/svg"><path fill="#103B6E" d="M0 0h56v56H0z" /><circle cx="19" cy="33" r="8" fill="#E52815" /><circle cx="20" cy="24" r="8" fill="#FB9A1B" /><path d="M12.94 27.77a7.98 7.98 0 0 1 13.12 1.46 7.98 7.98 0 0 1-13.12-1.46Z" fill="#F0794F" /><circle cx="28" cy="20" r="8" fill="#FFD338" /><path d="M26.97 27.93a8 8 0 0 1-5.94-11.86 8 8 0 0 1 5.94 11.86Z" fill="#F8BA27" /><circle cx="37" cy="33" r="8" fill="#63CDF7" /><circle cx="36" cy="24" r="8" fill="#8ACC10" /><path d="M29.94 29.23a8 8 0 0 1 13.12-1.46 8 8 0 0 1-13.12 1.46Z" fill="#72CA8E" /><path d="M29.03 27.93a8 8 0 0 0 5.94-11.86 8 8 0 0 0-5.94 11.86Z" fill="#C0D027" /><circle cx="28" cy="32" r="8" fill="#103B6E" /></svg>