<!-- by TradeStack --><svg width="56" height="56" viewBox="0 0 56 56" xmlns="http://www.w3.org/2000/svg"><path fill="#F0F3FA" d="M0 0h56v56H0z"/><path d="m20.2 23.72 4.58-3.7a.08.08 0 0 1 .05-.02h5.43c.02 0 .03 0 .05.02l.03.03a.08.08 0 0 1-.03.1l-5.49 4.04a.08.08 0 0 0-.02.1l3.74 6.6a.08.08 0 0 1 0 .07l-.03.03a.08.08 0 0 1-.03.01h-5.5a.08.08 0 0 1-.07-.04l-2.03-4.12a.08.08 0 0 0-.05-.04.08.08 0 0 0-.07.02l-1.6 1.2a.08.08 0 0 0-.03.04l-.58 2.88a.08.08 0 0 1-.08.06h-4.13a.08.08 0 0 1-.07-.03.08.08 0 0 1-.01-.07l2.28-10.84a.08.08 0 0 1 .08-.06h4.1a.08.08 0 0 1 .09.06v.04l-.74 3.55a.08.08 0 0 0 .04.08.08.08 0 0 0 .09 0Z" fill="#004B8D"/><path d="M7.02 28.96C4.54 25.7 6.95 23.2 9.9 22a27.68 27.68 0 0 1 5.86-1.74c.15-.03.15 0 .01.05-3.69 1.62-7.5 4.43-8.52 8.62a.13.13 0 0 1-.1.1.13.13 0 0 1-.13-.06Z" fill="#EE2D23"/><path d="M31.31 27.72c.42 1.51 2.6 1.35 3.64.8.45-.24 1.3-.52 1.3-.52h3.3c-1.83 2.57-5.4 3.24-8.24 2.88a5.19 5.19 0 0 1-2.84-1.07c-1.67-1.5-.91-4.43.53-5.9 2-2.04 5.5-2.22 8.14-1.58 2.59.63 2.93 2.55 2.62 4.89a.2.2 0 0 1-.2.18h-8a.25.25 0 0 0-.25.32Zm4.93-2.42c.09-1.83-3.71-1.6-4.42.02-.04.09 0 .13.09.13h4.18c.1 0 .15-.05.15-.15Z" fill="#004B8D"/><path d="m44.3 26.36.02.03a.06.06 0 0 0 .1 0l2.62-4.3a.16.16 0 0 1 .15-.09h3.69c.13 0 .15.06.08.17-2.3 3.45-4.54 6.93-6.85 10.38-1.26 1.89-4.25 1.45-6.15 1.3-.07-.01-.09-.05-.05-.11l1.43-2.34a.25.25 0 0 1 .2-.13c.9-.1 1.44.13 1.92-.87.13-.24.14-.55.04-.93-.67-2.45-1.34-4.9-2.03-7.35-.02-.08 0-.12.08-.12h3.74c.04 0 .06.01.09.03l.05.08.87 4.25ZM14.43 34.17c6.93 2.42 15.8 2.63 22.37-1.08a.06.06 0 0 1 .08.02.06.06 0 0 1 0 .08C31.8 38.66 23.3 39.9 16.38 38.4c-4.5-.97-9.2-3.78-10.96-8.11a5.51 5.51 0 0 1 .34-4.9c-1.08 4.24 5.63 7.72 8.66 8.77Z" fill="#004B8D"/></svg>