<!-- by TradeStack --><svg viewBox="0 0 56 56" xmlns="http://www.w3.org/2000/svg"><path fill="#F0F3FA" d="M0 0h56v56H0z"/><path d="M22 12v19.57c-3.51-.91-10.42-4.35-9.98-10.87.44-6.53 6.84-8.52 9.98-8.7Z" fill="#1B718D"/><path d="M22 37V15.26c-1.66 2.72-9.98 7.61-9.98 10.87 0 3.26 1.1 4.9 3.33 6.52 1.77 1.3 5.17 3.44 6.65 4.35Z" fill="#96AFCE"/><path d="M12.62 24.42c1.04-1.65 3.25-3.5 5.3-5.22 1.78-1.5 3.43-2.88 4.08-3.94v16.3c-2.77-.7-7.66-3-9.38-7.14Z" fill="#7B9FB6"/><path d="M34 44V24.43c3.51.91 10.42 4.35 9.98 10.87-.44 6.53-6.84 8.52-9.98 8.7Z" fill="#339180"/><path d="M34 19v21.74c1.66-2.72 9.98-7.61 9.98-10.87 0-3.26-1.1-4.9-3.33-6.52-1.77-1.3-5.17-3.44-6.65-4.35Z" fill="#69C28A"/><path d="M43.38 31.58c-1.04 1.65-3.25 3.5-5.3 5.22-1.78 1.5-3.43 2.88-4.08 3.94v-16.3c2.77.7 7.66 3 9.38 7.14Z" fill="#4EA684"/><path d="M32 23.03c-4.11-.88-7.05-4.04-8-5.51C24 13.1 29.33 12 32 12v11.03Z" fill="#D19329"/><path d="M32 23.03c-2-.53-6.67-3.86-8-5.51v15.45c2.29.88 6.29 4.04 8 5.51V23.03Z" fill="#E7BA27"/><path d="M32 38.48c0-1.76-5.33-4.41-8-5.51V44c5.49 0 7.62-3.68 8-5.52Z" fill="#D19329"/></svg>