<?xml version='1.0' encoding='utf-8'?>
<!-- by TradeStack -->
<svg width="56" height="56" viewBox="0 0 56 56" xmlns="http://www.w3.org/2000/svg"><path fill="#F0F3FA" d="M0 0h56v56H0z" /><path d="M35.63 45.49c.48.42.9.85 1.27 1.3a.13.13 0 0 1-.08.2c-.03.01-.07 0-.1-.01l-5-3.08c-.72-.45-1.78-.15-2.56-.12-7.75.3-14.71-4.34-16.65-11.9-2.4-9.32 3.99-18.57 13.54-19.76a16.01 16.01 0 0 1 17.9 14.55c.5 6.54-3 12.55-8.9 15.5-.36.18-.66.05-.79-.3a.12.12 0 0 1 .06-.15c3.57-1.72 5.8-4.3 7.33-7.76A14.82 14.82 0 0 0 28.1 13c-10.84-.09-18.55 11.53-13.48 21.7a6.9 6.9 0 0 1-.58-3.17c.01-.1.05-.1.12-.04.92.93 1.45 2.15 2.2 3.2 2.43 3.4 6.17-1.28 7.5-3.12.04-.06.07-.05.09.02.54 2.25 2 4.13 3.52 5.83a94.75 94.75 0 0 0 8.16 8.07Z" fill="#293752" /><path d="m26.77 19.03.9-.81c.06-.05.09-.04.07.03a.34.34 0 0 1-.14.23c-.05.04-.06.09-.04.15.07.15.18.27.34.33.1.04.17.01.22-.07l.34-.56a.08.08 0 0 1 .07-.03.08.08 0 0 1 .07.05c.14.37.17.75.07 1.14-.08.34-.03.36.14.06l.47-.82c.02-.04.05-.04.07 0 .05.06-.57 1.24-.65 1.39a.39.39 0 0 0-.05.2l.01.35c0 .07-.02.14-.06.2-.57.75-2.49 4-1.13 4.64 2.27 1.08 4.48 1.98 6.62 3.4a.14.14 0 0 1 .06.14.14.14 0 0 1-.1.12c-.16.03-.31.04-.46.02-2.15-.3-4.25-.79-6.3-1.46a.15.15 0 0 0-.18.05c-.4.5-.81.8-1.22.9-1.17.3-1.67.92-1.92 2.08a.2.2 0 0 1-.12.15c-.82.4-1.72.7-2.68.89-2.76.55-4.23-.79-6.34-2.57-.06-.04-.07-.1-.03-.16l.7-1.16c.07-.13.04-.15-.08-.07l-.48.3c-.05.04-.09.03-.1-.03l-.03-.07a.11.11 0 0 1 .02-.11l.35-.46c.05-.06.04-.12-.01-.18l-.31-.3c-.04-.04-.05-.1-.02-.14l.28-.43a.16.16 0 0 0 0-.17c-.48-.83.43-.84.44-1.32 0-.13-.04-.14-.11-.04l-.15.22c-.06.08-.11.08-.18 0a1.1 1.1 0 0 0-.8-.4c-.1 0-.12-.04-.04-.1.29-.24.9-.86 1.26-.87.06 0 .09-.04.09-.1v-.08c0-.06-.03-.09-.1-.08l-.3.06c-.18.04-.2 0-.04-.11l.32-.22c.09-.06.08-.12 0-.17l-.16-.1c-.1-.05-.1-.1 0-.14.2-.08.85-.23.87-.45a.12.12 0 0 0-.05-.12l-.1-.07c-.03-.03-.04-.06-.02-.1a.8.8 0 0 0 .09-.3c0-.07.04-.1.12-.09l.16.03c.12.03.16-.02.12-.14l-.18-.48c-.04-.1 0-.15.11-.13l.38.06c.06 0 .1-.01.14-.06l.32-.43c.04-.05.03-.1-.03-.13a1.24 1.24 0 0 1-.5-.5c-.14-.26-.12-.27.07-.05.3.36.67.52 1.12.49.08-.01.11-.05.1-.13a.73.73 0 0 0-.37-.53V19.6c0-.17.03-.2.08-.09.01.03.03.04.05.03.06-.02.07-.05.03-.1a.7.7 0 0 1-.12-.2c-.03-.1 0-.12.08-.06l.87.65c.04.03.07.02.08-.03.06-.22-.38-.9-.49-1.14-.08-.2-.06-.2.06-.03.05.08.7 1.2.87 1.16.07-.02.1-.06.08-.13-.08-.3-.48-1.35-.07-1.49.08-.03.14 0 .17.07l.43.96c.04.1.08.1.13 0a.7.7 0 0 0 .04-.55.45.45 0 0 1-.02-.2l.05-.5c0-.09.02-.09.04 0l.16.9c.01.09.05.1.1.02.1-.15.13-.3.1-.47-.03-.14 0-.16.1-.06l.05.05c.06.06.1.05.13-.03.12-.31.3-.6.55-.84.1-.11.13-.1.06.04l-.12.26c-.02.05 0 .08.05.08.34.03.48-.94.56-1.2.05-.13.07-.12.07 0v.87a.14.14 0 0 0 .1.13.14.14 0 0 0 .15-.04l.69-.85c.05-.06.07-.05.07.02-.01.14.03.25.1.36.07.09.12.08.16-.02l.27-.63c.06-.14.08-.14.05.02-.03.15-.35 1.08-.2 1.11.05 0 .08 0 .1-.05l.08-.13c.04-.07.09-.08.15-.02l.09.1c.05.04.06.1.02.17l-.59 1c-.03.05-.02.09.04.12.27.12.48.31.63.57a.08.08 0 0 0 .08.04.08.08 0 0 0 .06-.06l.1-.56c.03-.2.07-.2.1 0l.14.6c.04.19.07.19.09 0 .04-.48.14-.94.29-1.4.04-.13.07-.12.1 0l.06.34c.03.13.08.14.15.03a.6.6 0 0 0 .1-.28c.07-.62.1-.62.07.02-.02.56.04 1.11.17 1.66.04.15.06.14.08-.01.03-.25.03-.5.01-.75 0-.08.03-.14.1-.18a.68.68 0 0 0 .38-.6c0-.06.03-.07.08-.03l.09.06c.03.03.04.06.01.1-.07.1-.07.21-.01.34.05.12.09.11.1-.02l.04-.32c.02-.09.06-.11.14-.08l.06.03c.1.05.16.02.2-.08l.3-.76c.03-.06.05-.06.08 0 .04.11-.23 1.24-.26 1.47 0 .08.02.1.08.04Z" fill="#293752" /><path d="M26.2 29.47c2.4-.7 4.13 3.5 4.8 5.1.95 2.27 1.84 4.57 2.68 6.88.11.3.2.6.45.83 1.29 1.22 2.49 2.53 3.6 3.93a.2.2 0 0 1 .04.19.52.52 0 0 1-.35.36.23.23 0 0 1-.22-.04c-1.58-1.4-17.03-15.48-11-17.25ZM17.25 31.62c1.98 1.12 4.07.72 6.07-.07.05-.01.06 0 .03.04a11.82 11.82 0 0 1-3.5 3.54c-1.65 1-2.75.09-3.63-1.32a35.16 35.16 0 0 0-1.98-2.87.21.21 0 0 1-.04-.2l.33-1.08c.03-.1.08-.11.16-.04a23.69 23.69 0 0 0 2.56 2Z" fill="#0D6E77" /></svg>