<!-- by TradeStack --><svg width="56" height="56" viewBox="0 0 56 56" fill="none" xmlns="http://www.w3.org/2000/svg">
<rect width="56" height="56" fill="#F0F3FA"/>
<path d="M39.0539 29C38.5318 29 38.1033 29.4132 38.0435 29.9386C36.9137 39.8763 27.6345 43.4553 23 44C35.9378 43.7595 39.6461 35.0991 39.9978 29.9828C40.0352 29.4383 39.5928 29 39.0539 29Z" fill="#FFB936"/>
<path d="M26 28.4458C26 30.8072 25.6034 32.4659 25.5 33C25.8621 32.1285 27 29.9976 27 28.4458C27 22.6265 22.1897 19 18 19C15.0429 19 12.3228 21.8332 11.1748 23.4323C10.9276 23.7766 10.9497 24.2552 11.1964 24.6C11.3961 24.8792 11.6974 25.0116 12 25C12.2347 24.991 12.4703 24.8953 12.6599 24.7142C13.8731 23.5552 15.9346 22 18.7758 22C23.2758 22 26 25.494 26 28.4458Z" fill="#FFB936"/>
<path d="M43.7995 22.0179C39.0635 22.6445 37.2694 27.0601 37 29C39.0803 25.8994 42.302 24.4586 44.0505 23.9651C44.6419 23.7982 45.1252 23.4536 44.971 22.8807C44.8437 22.4076 44.2928 21.8974 43.7995 22.0179Z" fill="#FFB936"/>
<path d="M43.7509 12.0559C38.4765 14.1575 36.9287 21.5304 37.0025 25C38.328 18.7988 42.1426 15.1885 44.334 13.8425C44.7639 13.5785 45.088 13.247 44.9786 12.7439C44.8622 12.2087 44.2475 11.858 43.7509 12.0559Z" fill="#FFB936"/>
<path d="M15.0368 18.9387C16.9938 18.0707 19.8995 18.0615 21 18.3186C19.0509 16.3559 16.179 16.9732 14.5931 17.6941C14.2396 17.8548 14.007 18.0584 14.0001 18.4122C13.9917 18.8453 14.6019 19.1316 15.0368 18.9387Z" fill="#FFB936"/>
<path d="M21.5627 43C16.7484 43 13.1816 41.8748 12 41.3122L12.6595 39.7932C13.1816 40.1308 15.314 41 19.6667 41C28.1577 41 31 31.7763 31 27.81C31 25.1939 28.8172 20.3838 24.5305 18.0209C21.8864 16.5635 19.5962 15.5192 18.5639 14.5282C18.039 14.0242 18.4834 13.2987 19.1914 13.1666C26.5366 11.7957 35 19.0809 35 27.81C35 37.0084 27.5806 43 21.5627 43Z" fill="#FFB936"/>
</svg>
