<?xml version='1.0' encoding='utf-8'?>
<!-- by TradeStack -->
<svg width="56" height="56" viewBox="0 0 56 56" xmlns="http://www.w3.org/2000/svg"><path fill="#F0F3FA" d="M0 0h56v56H0z" /><path d="M15.56 17.5 8 35.05l10.67-15.3-3.11-2.25Z" fill="url(#aot3ggdkq)" /><path d="m26.67 25.15-8-5.4L8 35.05c3.2-3.6 7.85-4.8 9.78-4.95l8.89-4.95Z" fill="url(#bot3ggdkq)" /><path d="m23.55 13-4.88 6.75 8 5.4L32.89 22l-9.34-9Z" fill="url(#cot3ggdkq)" /><path d="m17.78 30.1 8.89-4.95 8.89 6.3c-11.74-2.16-16.75-1.8-17.78-1.35Z" fill="url(#dot3ggdkq)" /><path d="m32.89 22-6.22 3.15 8.88 6.3c.6.15 2.14.45 3.56.45s2.96-.6 3.56-.9l-9.78-9Z" fill="url(#eot3ggdkq)" /><path d="M39.11 18.85 32.9 22l9.78 9c.7 0 .89-1.2.89-1.8L39.1 18.85Z" fill="url(#fot3ggdkq)" /><path d="M44.44 30.55c0 .72-.59 1.5-.89 1.8L48 40l-3.56-9.45Z" fill="#966635" /><path d="M43.56 32.35c-.72 1.08-3.26 1.35-4.45 1.35L48 40l-4.44-7.65Z" fill="url(#got3ggdkq)" /><path d="m48 40-8.89-6.3c-.44.15-1.96.36-4.44 0-3.12-.45-8.45-1.8-13.34-1.8-3.9 0-8.15 2.4-9.78 3.6L48 40Z" fill="url(#hot3ggdkq)" /><defs><linearGradient id="aot3ggdkq" x1="13.33" y1="17.5" x2="8.78" y2="34.12" gradientUnits="userSpaceOnUse"><stop stop-color="#D2A854" /><stop offset="1" stop-color="#A77836" /></linearGradient><linearGradient id="bot3ggdkq" x1="26.67" y1="25.15" x2="11.55" y2="26.03" gradientUnits="userSpaceOnUse"><stop stop-color="#D89C38" /><stop offset=".54" stop-color="#B07327" /><stop offset="1" stop-color="#744315" /></linearGradient><linearGradient id="cot3ggdkq" x1="19.11" y1="22" x2="32.44" y2="22" gradientUnits="userSpaceOnUse"><stop stop-color="#D3AC5C" /><stop offset=".57" stop-color="#EED17A" /><stop offset="1" stop-color="#D4AF63" /></linearGradient><linearGradient id="dot3ggdkq" x1="19.11" y1="29.65" x2="33.34" y2="30.97" gradientUnits="userSpaceOnUse"><stop stop-color="#793C0A" /><stop offset=".5" stop-color="#97500F" /><stop offset="1" stop-color="#612C09" /></linearGradient><linearGradient id="eot3ggdkq" x1="26.67" y1="28.3" x2="40.89" y2="28.74" gradientUnits="userSpaceOnUse"><stop stop-color="#CE9233" /><stop offset=".46" stop-color="#B57C2E" /><stop offset="1" stop-color="#573213" /></linearGradient><linearGradient id="fot3ggdkq" x1="34.22" y1="22.9" x2="42.24" y2="25.1" gradientUnits="userSpaceOnUse"><stop stop-color="#DCB566" /><stop offset="1" stop-color="#85562C" /></linearGradient><linearGradient id="got3ggdkq" x1="43.56" y1="32.35" x2="47.18" y2="39.06" gradientUnits="userSpaceOnUse"><stop stop-color="#78461B" /><stop offset="1" stop-color="#4F2810" /></linearGradient><linearGradient id="hot3ggdkq" x1="42.22" y1="35.95" x2="12.44" y2="35.07" gradientUnits="userSpaceOnUse"><stop stop-color="#411B06" /><stop offset=".35" stop-color="#DD8A1B" /><stop offset="1" stop-color="#3B1704" /></linearGradient></defs></svg>