<!-- by TradeStack --><svg width="56" height="56" viewBox="0 0 56 56" xmlns="http://www.w3.org/2000/svg"><path fill="#F0F3FA" d="M0 0h56v56H0z"/><path d="m8.7 23.01.7 9.81a.03.03 0 0 1 0 .03.03.03 0 0 1-.04 0c-.04-.03-.07-.08-.09-.17-1-4.97-1.98-9.95-2.9-14.93a4.36 4.36 0 0 1-.07-.96l.03-.02h.03c.02 0 .02.02.03.03a51.44 51.44 0 0 0 4.24 6.54 6.23 6.23 0 0 0 4.4 1.9c4.77-.42 3.89-9.53 3.84-12.16l.01-.04a.08.08 0 0 1 .06-.04h.04c.03.02.06.05.08.1.92 2.18 1.9 4.19 3.36 6.08.64.83 1.4 1.5 2.28 2.04.03.01.05.04.06.07l-.01.08a17.8 17.8 0 0 1-2.89 3.73 8.08 8.08 0 0 1-2.8 1.9c-3.04 1.1-6.6-.71-8.9-2.71-.4-.35-.9-.89-1.38-1.32-.06-.06-.1-.04-.09.04Z" fill="url(#autoedi1d)"/><path d="M39.04 24.45a7.4 7.4 0 0 1-2.28-3.13 17.38 17.38 0 0 1-.62-2.3.1.1 0 0 0-.16.02c-.6 1-1.4 1.81-2.4 2.42-.52.33-.89.53-1.46.45a.06.06 0 0 1-.05-.05v-.03l.02-.03a11.5 11.5 0 0 0 3.26-3.95 20.13 20.13 0 0 0 1.57-4 .06.06 0 0 1 .07 0l.02.04c.15 1.62.15 3.27.42 4.9.24 1.54.8 2.96 1.52 4.32a10.87 10.87 0 0 0 1.43 2.03l-.01.02-.02.01h-.03c-.21-.12-.43-.22-.66-.33a2.4 2.4 0 0 1-.62-.39Z" fill="url(#butoedi1d)"/><path d="M46.48 23.76a10 10 0 0 1-1.52 1.41c-.35.27-.7.55-1.04.84-.63.52-1.25.9-2 1.45a6.73 6.73 0 0 1-3.3 1.26 8.61 8.61 0 0 1-7.57-4.14 29.25 29.25 0 0 1-2.02-4c-.06-.16-.07-.24-.1-.4-.01-.06-.03-.06-.05-.01-.94 1.96-1.38 4.06-3.3 5.52-1.1.84-2.03 1.6-3.27 1.78-.45.06-.9.1-1.35.14-.29.02-.73.17-1.12.07a.06.06 0 0 1-.04-.05v-.04l.03-.02c2.64-.7 4.87-2.17 6.32-4.4a16.47 16.47 0 0 0 2.38-5.96.09.09 0 0 1 .13 0c.04.04.07.09.1.15.8 1.68 1.7 3.3 2.7 4.87a12.87 12.87 0 0 0 3.21 3.66c2.6 1.9 5.88.81 8.14-1.16a40 40 0 0 0 7.13-8.2h.03l.03.03v.03c-.1.45-.16.9-.26 1.35a764.65 764.65 0 0 0-3.03 13.01c-.14.62-.38 1.33-.53 2.01l-.01.01a.6.6 0 0 0-.04 0c-.02 0-.03-.01-.03-.03l.77-9.23c0-.03-.02-.04-.05-.04-.08 0-.14.05-.18.13-.03.04-.05.04-.07 0l-.02-.03-.02-.02a.04.04 0 0 0-.03 0h-.02Z" fill="url(#cutoedi1d)"/><path d="M28.22 32.97c-.09 0-.16.02-.22.04a.27.27 0 0 0-.14.07.26.26 0 0 0-.06.13l-.01.2v1.18c-.06.05-.16.1-.28.16a3.93 3.93 0 0 1-1.3.25c-.34 0-.67-.05-.96-.16-.3-.1-.55-.26-.76-.46-.17-.17-.3-.37-.39-.59a2.1 2.1 0 0 1-.12-.75 2.05 2.05 0 0 1 .6-1.47c.19-.18.41-.32.67-.42.27-.1.56-.15.87-.15.29 0 .57.04.86.13.12.04.21.06.28.06a.3.3 0 0 0 .18-.05.28.28 0 0 0 .1-.14h.13l.06 1.22h-.15a5.93 5.93 0 0 0-.21-.4 1.05 1.05 0 0 0-.23-.27 1.35 1.35 0 0 0-.9-.32c-.24 0-.45.04-.64.12a1.36 1.36 0 0 0-.8.93 2.4 2.4 0 0 0 0 1.48 1.47 1.47 0 0 0 .85.89 1.87 1.87 0 0 0 1.28.02.58.58 0 0 0 .18-.1c.05-.05.07-.1.07-.14v-.94c0-.11 0-.2-.02-.26a.24.24 0 0 0-.08-.15.3.3 0 0 0-.16-.07 1.82 1.82 0 0 0-.3-.04v-.1h1.6v.1ZM31.65 35h.1l1.6-3.46v2.74c0 .12 0 .22-.02.3a.34.34 0 0 1-.07.18.35.35 0 0 1-.18.1l-.3.03V35h1.77v-.11c-.11 0-.2-.02-.28-.04a.36.36 0 0 1-.17-.08.33.33 0 0 1-.07-.16 1.24 1.24 0 0 1-.03-.26v-2.69c0-.1 0-.2.02-.26a.3.3 0 0 1 .08-.16c.04-.04.1-.06.17-.08l.28-.04V31H33.3l-1.4 3.05L30.42 31h-1.25v.12c.13 0 .23.02.31.04.08.01.14.04.18.08.04.04.07.09.08.16.02.06.02.15.02.26v2.45c0 .16 0 .28-.02.38a.48.48 0 0 1-.09.23c-.04.06-.1.1-.18.12-.08.02-.18.04-.31.05V35h1.49v-.11c-.13 0-.23-.02-.3-.05a.37.37 0 0 1-.19-.12.53.53 0 0 1-.1-.23l-.01-.38v-2.43L31.65 35Zm8.26 0h-1.6v-.1h.14a1.59 1.59 0 0 0 .15-.04.4.4 0 0 0 .06-.02.19.19 0 0 0 .06-.06.15.15 0 0 0 .03-.09c0-.1-.04-.23-.12-.4l-.26-.57h-1.64l-.3.7-.03.11a.6.6 0 0 0-.01.12c0 .08.03.14.1.18.06.04.17.06.33.06V35h-1.25v-.1c.07-.01.14-.02.2-.05a.42.42 0 0 0 .16-.13c.06-.06.11-.16.18-.29.06-.13.15-.3.24-.52l1.3-2.91h.13l1.57 3.37.13.27.12.15c.04.04.08.06.13.07.05.02.11.03.18.03V35Zm-1.63-1.52-.72-1.64-.73 1.64h1.45Zm6.2 1.52-2.78-3.27v2.33c0 .15 0 .28.02.37.02.1.05.17.1.23.04.05.1.1.18.12.08.02.17.04.3.04V35h-1.48v-.18c.13 0 .23-.02.31-.04a.33.33 0 0 0 .18-.12.47.47 0 0 0 .09-.23l.02-.37v-2.61a2.94 2.94 0 0 0-.16-.17.47.47 0 0 0-.13-.1.4.4 0 0 0-.14-.04.81.81 0 0 0-.17-.02V31h1.07l2.42 2.88v-2c0-.37-.06-.59-.18-.67a.48.48 0 0 0-.16-.06 1.53 1.53 0 0 0-.26-.03V31h1.47v.12c-.12 0-.2.02-.27.04a.53.53 0 0 0-.14.06c-.12.08-.19.3-.19.65V35h-.1ZM19.4 31.73 22.19 35h.1v-3.13c0-.35.06-.57.19-.65a.53.53 0 0 1 .14-.06c.06-.02.15-.03.27-.04V31h-1.47v.12c.11 0 .2.02.26.03l.16.06c.12.08.18.3.18.66v2L19.6 31h-1.07v.12c.07 0 .12 0 .17.02.05 0 .1.02.14.04l.13.1.16.17v2.6c0 .16 0 .29-.02.38a.47.47 0 0 1-.1.23c-.03.05-.1.1-.17.12l-.31.04V35H20v-.18c-.12 0-.22-.02-.3-.04a.36.36 0 0 1-.17-.12.51.51 0 0 1-.1-.23l-.02-.37v-2.33Zm-3.12-.07c0-.11 0-.2-.02-.27a.26.26 0 0 0-.08-.16.38.38 0 0 0-.2-.08 2.78 2.78 0 0 0-.31-.03V31h1.86v.12c-.13 0-.23.02-.32.03a.38.38 0 0 0-.18.08.29.29 0 0 0-.09.17c-.02.06-.02.15-.02.26v2.69c0 .1 0 .2.02.27s.05.12.1.16c.04.04.1.06.18.08.08.02.19.03.31.03V35h-1.86v-.11c.13 0 .24-.01.32-.03a.37.37 0 0 0 .18-.08c.04-.04.07-.1.09-.16l.02-.27v-2.69Zm-1.8-.66h-1.65v.12H13c.1 0 .17.03.2.05.05.03.07.08.07.14 0 .06-.04.14-.12.24a3 3 0 0 1-.37.38l-1.11.97v-1.24l.01-.26a.3.3 0 0 1 .09-.16c.04-.04.1-.07.17-.08.07-.02.18-.03.3-.04V31h-1.78v.12c.12 0 .22.02.3.04.07.02.13.04.17.08.04.04.06.1.07.16.02.07.02.16.02.26v2.62c0 .12 0 .22-.02.3a.34.34 0 0 1-.07.18.3.3 0 0 1-.17.1l-.3.03V35h1.77v-.11c-.12 0-.22-.02-.3-.03a.36.36 0 0 1-.17-.09.33.33 0 0 1-.08-.16 1.7 1.7 0 0 1-.01-.26V33.2l.16-.13.66.64a6.9 6.9 0 0 1 .76.87c.04.07.06.12.06.16 0 .08-.09.12-.26.13h-.17V35h1.9v-.11l-.2-.02a.62.62 0 0 1-.2-.1 13.79 13.79 0 0 1-.58-.55l-1.46-1.5 1.2-1.13a5.42 5.42 0 0 1 .47-.37.71.71 0 0 1 .2-.07l.27-.03V31Zm26.6 6.4H41a1.64 1.64 0 0 0-.09-.23 1.13 1.13 0 0 0-.12-.16.57.57 0 0 0-.43-.2.4.4 0 0 0-.26.1.28.28 0 0 0-.1.22c0 .09.05.17.13.26.07.08.2.16.38.26.23.12.4.24.5.36a.56.56 0 0 1 .1.62.61.61 0 0 1-.15.2.7.7 0 0 1-.22.12.8.8 0 0 1-.28.05c-.07 0-.14 0-.21-.02a.9.9 0 0 1-.2-.06.77.77 0 0 0-.16-.03.08.08 0 0 0-.07.03.13.13 0 0 0-.03.08h-.08l-.1-.72h.08c.09.21.19.36.3.46.1.1.24.14.4.14.13 0 .23-.04.3-.1a.34.34 0 0 0 .12-.27.4.4 0 0 0-.05-.2.8.8 0 0 0-.2-.2c-.08-.07-.18-.13-.3-.2l-.26-.15a.9.9 0 0 1-.16-.15.55.55 0 0 1-.12-.35c0-.19.06-.33.2-.44a.62.62 0 0 1 .18-.1.58.58 0 0 1 .2-.04 1.2 1.2 0 0 1 .37.07.51.51 0 0 0 .16.04c.05 0 .09-.03.1-.1h.08l.07.7Zm-3.01 1.55.17-.58h-.1a2.37 2.37 0 0 1-.14.25.56.56 0 0 1-.24.15c-.1.04-.22.05-.37.05h-.23a3.11 3.11 0 0 1-.24-.02.08.08 0 0 1-.05-.04v-1.81c.01-.04.03-.07.05-.09a.17.17 0 0 1 .1-.05l.16-.02v-.06h-.97v.06l.15.02a.2.2 0 0 1 .1.05c.02.02.03.05.04.09l.01.14V38.73l-.05.1a.18.18 0 0 1-.1.04.84.84 0 0 1-.15.02v.06h1.86Zm-3.1 0h-.88v-.06h.08a.8.8 0 0 0 .08-.01l.03-.02a.1.1 0 0 0 .04-.03.09.09 0 0 0 .01-.05.61.61 0 0 0-.07-.23l-.14-.32h-.9l-.16.39-.02.07v.06c0 .05 0 .08.05.1.03.03.1.04.18.04v.06h-.69v-.06c.04 0 .08 0 .1-.02a.23.23 0 0 0 .1-.07l.1-.17.13-.3.72-1.64h.07l.86 1.9.07.16.07.09a.2.2 0 0 0 .07.04l.1.01v.06Zm-.9-.86-.4-.93-.4.93h.8Zm-3.3.86h.55v-.06a.47.47 0 0 1-.16-.04.49.49 0 0 1-.14-.12l-.7-.85c.21-.04.37-.1.47-.2.1-.09.14-.2.14-.36a.59.59 0 0 0-.03-.2.42.42 0 0 0-.09-.15.65.65 0 0 0-.3-.18 1.4 1.4 0 0 0-.45-.06h-.96v.06c.07 0 .12.02.16.03.04 0 .07.02.09.04l.04.1V38.71c0 .04-.02.07-.04.1a.17.17 0 0 1-.1.05l-.15.02v.06h.96v-.06c-.07 0-.12 0-.16-.02a.2.2 0 0 1-.1-.04.19.19 0 0 1-.04-.1v-.81h.18l.83 1.03Zm-.8-1.16-.22.01v-.83c0-.04.01-.08.04-.1.02 0 .06-.02.13-.02.22 0 .38.04.49.11.1.08.15.2.15.35a.5.5 0 0 1-.05.23.35.35 0 0 1-.15.15.9.9 0 0 1-.4.1Zm-2.3 1.16H25.8v-.06l.16-.02a.18.18 0 0 0 .09-.05.17.17 0 0 0 .04-.09.7.7 0 0 0 .01-.14V36.95a.15.15 0 0 0-.05-.09.2.2 0 0 0-.1-.05.85.85 0 0 0-.15-.02v-.06h1.84v.48h-.08a.93.93 0 0 0-.05-.18.24.24 0 0 0-.1-.11.33.33 0 0 0-.14-.05 1.9 1.9 0 0 0-.23-.02h-.47c-.05 0-.08.01-.1.03 0 0-.02.04-.02.09v.75H27c.07 0 .13 0 .18-.02.04 0 .08-.02.1-.04a.21.21 0 0 0 .07-.1l.04-.16h.08v.78h-.09a1.13 1.13 0 0 0-.03-.17.2.2 0 0 0-.06-.1.2.2 0 0 0-.11-.04l-.18-.02h-.53v.83l.01.08.02.03.12.03h.62a.6.6 0 0 0 .22-.08.51.51 0 0 0 .15-.13c.05-.06.1-.13.13-.23h.1l-.15.57Zm-5.05-1.8 1.53 1.84h.05v-1.77c0-.2.04-.32.1-.37a.29.29 0 0 1 .09-.04.68.68 0 0 1 .14-.02v-.06h-.8v.06l.14.02c.03 0 .06.02.08.03.07.05.1.18.1.38v1.13l-1.33-1.62h-.59v.06l.1.01c.02 0 .05.01.07.03l.08.05.08.1v1.69c-.02.05-.03.1-.06.13a.18.18 0 0 1-.1.06.95.95 0 0 1-.17.03v.06h.82v-.06a.67.67 0 0 1-.17-.03.2.2 0 0 1-.1-.06.3.3 0 0 1-.05-.13l-.01-.21v-1.32Zm-2.46-.06-.01-.15a.15.15 0 0 0-.05-.09.2.2 0 0 0-.1-.04l-.18-.02v-.06h1.03v.06l-.18.02a.2.2 0 0 0-.1.04.16.16 0 0 0-.05.1l-.01.14v1.5l.01.15c.01.04.03.07.05.09l.1.05.18.01v.06h-1.03v-.06l.18-.01a.2.2 0 0 0 .1-.05.16.16 0 0 0 .05-.09V37.1Zm-3.25 1.86h.05l.88-1.92v1.52l-.01.17a.2.2 0 0 1-.05.1.19.19 0 0 1-.1.05.95.95 0 0 1-.16.02v.06h.97v-.06a.91.91 0 0 1-.15-.02.2.2 0 0 1-.1-.05.18.18 0 0 1-.03-.09.71.71 0 0 1-.02-.14v-1.5l.01-.14c.01-.04.03-.07.05-.09a.2.2 0 0 1 .09-.05.86.86 0 0 1 .15-.02v-.06h-.68l-.77 1.7-.8-1.7h-.68v.06l.17.02.1.05c.02.02.04.05.04.09l.02.14v1.37c0 .08 0 .16-.02.21 0 .05-.02.1-.05.13a.18.18 0 0 1-.1.06.95.95 0 0 1-.16.03v.06h.8v-.06a.67.67 0 0 1-.16-.03.2.2 0 0 1-.1-.06.3.3 0 0 1-.05-.13l-.01-.21V37.1l.87 1.84Z" fill="url(#dutoedi1d)"/><path d="M13.59 38.36v-1.14l-7.59.6 7.59.54ZM42.41 38.36v-1.14l7.59.6-7.59.54Z" fill="#B0892D"/><defs><linearGradient id="autoedi1d" x1="22.35" y1="19.81" x2="7.53" y2="24.46" gradientUnits="userSpaceOnUse"><stop stop-color="#C49D28"/><stop offset=".12" stop-color="#F1C32F"/><stop offset=".56" stop-color="#F4E8B2"/><stop offset="1" stop-color="#B98837"/></linearGradient><linearGradient id="butoedi1d" x1="35.66" y1="14.71" x2="38.09" y2="23.87" gradientUnits="userSpaceOnUse"><stop stop-color="#BF9E34"/><stop offset=".44" stop-color="#F2E5A1"/><stop offset="1" stop-color="#D5A52F"/></linearGradient><linearGradient id="cutoedi1d" x1="20.56" y1="27" x2="48.48" y2="26.78" gradientUnits="userSpaceOnUse"><stop stop-color="#957635"/><stop offset=".21" stop-color="#D9A729"/><stop offset=".49" stop-color="#FCEEB1"/><stop offset="1" stop-color="#AD8628"/></linearGradient><linearGradient id="dutoedi1d" x1="10.46" y1="33.05" x2="45.18" y2="33.39" gradientUnits="userSpaceOnUse"><stop stop-color="#C3C1C3"/><stop offset=".32" stop-color="#929197"/><stop offset=".52" stop-color="silver"/><stop offset=".73" stop-color="#959396"/><stop offset="1" stop-color="#C5C5C7"/></linearGradient></defs></svg>