<!-- by TradeStack --><svg width="56" height="56" viewBox="0 0 56 56" xmlns="http://www.w3.org/2000/svg"><path fill="#F0F3FA" d="M0 0h56v56H0z"/><path d="M20 28V12.91c1.94-.95 4.23-.94 6.31-.64.94.13 2.54.38 4.78.73.52.08 1.36.08 2.5 0a7.6 7.6 0 0 0 3.32-.98c.07-.04.1-.02.08.07a15.55 15.55 0 0 1-3.03 6.66c-2.31 2.92-5.77 3.84-9.04 4.92a8.51 8.51 0 0 0-3.98 2.8c-.27.32-.58.83-.94 1.53Z" fill="#EA5404"/><path d="M20 44V28.03a.7.7 0 0 1 .05-.03h.01l16.9 15.91c.06.06.05.1-.04.1H20Z" fill="#7BB8BB"/></svg>