<?xml version='1.0' encoding='utf-8'?>
<!-- by TradeStack -->
<svg width="56" height="56" viewBox="0 0 56 56" xmlns="http://www.w3.org/2000/svg"><path fill="#242424" d="M0 0h56v56H0z" /><path fill-rule="evenodd" d="M10.13 19a3.5 3.5 0 0 0-2.13.74c.93.6 1.04 1.56 1 1.98v9.6A3.69 3.69 0 0 0 12 35V21.4c0-1.31-.58-2.4-1.87-2.4Zm2.11 9.51L17.45 22c1.58 1.36 1.16 2.53.76 2.95l-3.23 3.56 3.37 4.67A9.2 9.2 0 0 0 20.58 35h-3.13c-1.08 0-2.1-1.21-2.47-1.82l-2.74-4.67ZM22.5 33h-.98c-.84 0-1.52-.75-1.52-1.67v-4.77A2.47 2.47 0 0 1 22.5 24v9Zm4.5 0v-6.68c.26-.44.65-.8 1.21-.8 1.07 0 1.33 1.13 1.33 1.7V33H32v-6.09c.22-.65.67-1.4 1.47-1.4 1.07 0 1.53 1.14 1.53 1.7V33h2.5v-5.79c0-2.02-1.02-3.21-3.01-3.21-1.58 0-2.49 1-2.76 1.5-.37-.96-1.16-1.5-2.5-1.5-1.02 0-1.76.41-2.23.85V24h-.22c-1.26 0-2.28 1.1-2.28 2.44V33H27Zm21-4.5a4.5 4.5 0 1 1-9 0 4.5 4.5 0 0 1 9 0Zm-2.5 0c0 1.93-.26 3.5-2 3.5s-2-1.57-2-3.5.1-3.5 2-3.5 2 1.57 2 3.5Z" fill="#D6A868" /></svg>