<?xml version='1.0' encoding='utf-8'?>
<!-- by TradeStack -->
<svg width="56" height="56" viewBox="0 0 56 56" xmlns="http://www.w3.org/2000/svg"><path fill="#23408A" d="M0 0h56v56H0z" /><path d="M12.47 24.53 10.2 21H7.96l4.51 3.53ZM11.15 27.52 6 26.66v1.72l5.15-.86ZM6 24.5l5.49 1.38L6 22.33v2.16ZM11.23 26.68 6 24.65v1.82l5.23.21ZM14.76 23.5l.17-2.5h-.87l.7 2.5ZM13.93 23.68l-.4-2.68h-1.02l1.42 2.68ZM11.25 28.35 6 28.57v1.83l5.25-2.05ZM13.16 24.02 12.02 21h-1.4l2.54 3.02ZM11.9 25.15 7.79 21H6v1.16l5.9 3ZM11.95 29.87 6 32.92V34h1.84l4.11-4.13ZM14.83 31.48l-.7 2.52H15l-.17-2.52ZM10.26 34l2.27-3.51L8.03 34h2.23ZM14 31.32 12.58 34h1.02l.4-2.68ZM11.52 29.15 6 30.55v2.19l5.52-3.59ZM13.22 30.98 10.68 34h1.4l1.14-3.02Z" fill="#FDBA2F" /><path d="M26.8 33.73H28v-9.49h-1.2v-.26h4.55v.26H30v9.49h1.35v.25H26.8v-.25ZM32.01 30.18h.26c.35 1.54 1.43 3.58 3.36 3.58 1.23 0 2.06-.72 2.06-1.92 0-2.96-5.7-.83-5.7-4.92 0-1.8 1.25-2.92 3.14-2.92 1.45 0 1.9.73 2.55.73.43 0 .46-.35.46-.53h.26v3.06h-.26c-.36-1.44-1.16-3.02-2.96-3.02-1.09 0-1.9.7-1.9 1.74 0 2.63 5.79.56 5.79 4.6 0 2.12-1.26 3.42-3.28 3.42-1.24 0-2.42-.7-2.99-.7-.38 0-.53.24-.53.5h-.26v-3.62ZM39.5 33.74H41v-9.48h-1.5V24h4.55v.26H43v4.34h4v-4.34h-1.55V24H50v.26h-1v9.48h1V34h-4.55v-.26H47V29h-4v4.74h1.05V34H39.5v-.26Z" fill="#fff" /><path d="m26.77 33.67-5.5-8.3 2.67-2.61A4.46 4.46 0 0 1 27 21.34h.49V21H22.7v.34h.33c.73 0 .97.16.97.4 0 .32-.43.74-.84 1.13L19 27.07v-5.73h1.61V21h-4.89v4.4l.56-.97-.31 1.67 1.3-1.1-.87 1.46 1.61-.6-1.33 1.09 1.73-.02-1.63.57 1.63.56-1.73-.01 1.33 1.08-1.6-.6.87 1.47-1.31-1.1.31 1.67-.56-.98V34h4.78v-.34H19V27.6l.2-.25 4.12 6.33h-1.45V34h6.25v-.33h-1.35Z" fill="#fff" /></svg>