<?xml version='1.0' encoding='utf-8'?>
<!-- by TradeStack -->
<svg width="56" height="56" viewBox="0 0 56 56" xmlns="http://www.w3.org/2000/svg"><path fill="#F0F3FA" d="M0 0h56v56H0z" /><path d="M13.57 27.28 19.42 21H15.8l-4.62 5.15-.18.2V21l-3 2.8V35h3v-5.29l.52-.68L15.9 35h3.54l-5.87-7.72Z" fill="#0098CA" /><path d="m20.24 32 2.01-2c-.04-.1-.1-.19-.13-.29a4.64 4.64 0 0 1 .88-4.85 4.2 4.2 0 0 1 5.09-.72l1.87-1.85a6.85 6.85 0 0 0-8.92.8 7.18 7.18 0 0 0-1.5 2.25 6.71 6.71 0 0 0-.54 2.68A6.81 6.81 0 0 0 20.24 32Z" fill="#0098CA" /><path d="M32.45 25.34a7.1 7.1 0 0 0-.95-1.58l-1.93 1.92a4.44 4.44 0 0 1 .63 2.34 4.5 4.5 0 0 1-1.18 3.1 3.95 3.95 0 0 1-2.95 1.28 4.15 4.15 0 0 1-2.44-.77l-1.92 1.92a7.1 7.1 0 0 0 10.74-2.8 6.78 6.78 0 0 0 0-5.41Z" fill="#00457A" /><path d="M36 23.73V35h3V21h-.03L36 23.73ZM51 32h-6V21h-3v14h6.36L51 32Z" fill="#0098CA" /></svg>