<!-- by TradeStack --><svg width="56" height="56" viewBox="0 0 56 56" xmlns="http://www.w3.org/2000/svg"><path fill="#F0F3FA" d="M0 0h56v56H0z"/><path fill-rule="evenodd" d="M28 36c12.7 0 23-3.58 23-8s-10.3-8-23-8-23 3.58-23 8 10.3 8 23 8Zm-8-3c7.18 0 13-2.24 13-5s-5.82-5-13-5-13 2.24-13 5 5.82 5 13 5Z" fill="#1B2F4B"/><path d="m26.62 30 .66-4h1.5c.3 0 .56.05.75.16.19.1.32.26.4.45a1.5 1.5 0 0 1-.22 1.34c-.15.18-.33.33-.56.43-.23.1-.5.16-.8.16h-1.07l.1-.6h.98c.18 0 .33-.03.45-.08a.66.66 0 0 0 .29-.22c.07-.1.12-.22.14-.36a.7.7 0 0 0-.03-.36.41.41 0 0 0-.21-.23.96.96 0 0 0-.43-.08h-.66L27.34 30h-.72Zm2.36-1.81.7 1.81h-.81l-.68-1.81h.8ZM23.28 30l.66-4h2.6l-.1.6h-1.87l-.18 1.1h1.74l-.1.6h-1.74l-.18 1.1H26l-.1.6h-2.62ZM20.17 30l.66-4h.73l-.57 3.4h1.76l-.1.6h-2.48ZM17.06 30l.66-4h.72l-.56 3.4h1.76l-.1.6h-2.48ZM13.72 30l.66-4h2.6l-.1.6H15l-.17 1.1h1.74l-.1.6h-1.75l-.18 1.1h1.9l-.1.6h-2.62ZM10 30l.66-4h.73l-.3 1.84h.04L13 26h.88l-1.84 1.8 1.19 2.2h-.87l-.9-1.71-.54.52-.2 1.19H10Z"/></svg>