<?xml version='1.0' encoding='utf-8'?>
<!-- by TradeStack -->
<svg width="56" height="56" viewBox="0 0 56 56" xmlns="http://www.w3.org/2000/svg"><path fill="#F0F3FA" d="M0 0h56v56H0z" /><path fill-rule="evenodd" d="M14 31a3 3 0 1 0 0-6 3 3 0 0 0 0 6Zm0-.35c1.09 0 2-1.19 2-2.65s-.91-2.65-2-2.65c-1.09 0-2 1.19-2 2.65s.91 2.65 2 2.65ZM49 31a3 3 0 1 0 0-6 3 3 0 0 0 0 6Zm0-.35c1.09 0 2-1.19 2-2.65s-.91-2.65-2-2.65c-1.09 0-2 1.19-2 2.65s.91 2.65 2 2.65Z" fill="#004795" /><path d="M6.38 25H4.5v.27H5v5.46h-.5V31h1.88v-.27H6V28.1l1.95 2.48c.2.27.51.43.84.43H10v-.13h-.2a.61.61 0 0 1-.47-.23L7 27.86l2.1-2.6h.27V25H7.68v.27h.25c.14 0 .21.18.12.3L6 28.09v-2.82h.38V25ZM19 25h.83l2.22 4.07L24.12 25H25v5.73h.33V31h-1.75v-.27H24v-4.12l-2.25 4.35h-.17l-1.83-3.7v3.47H20V31h-1.25v-.27H19V25ZM28 25h-1v6h3.67l.33-.5v-.22h-.19l-.09.18H28v-2.15h2.26c.1 0 .18.08.18.18v.1h.19v-1.17h-.19v.09c0 .1-.08.18-.18.18H28v-2.15h2.4l.09.4h.18l.28-.94H28ZM32.53 25h1.84v.27H34v2.5h3v-2.5h-.56V25h1.97v.27H38v5.46h.4V31h-1.96v-.27H37v-2.42h-3v2.42h.38V31h-1.85v-.27H33v-5.46h-.47V25ZM39.5 25h2.13v.27h-.36l1.42 2.57 1.32-2.57h-.18V25h1.57v.27h-.42L43 28.58v2.15h.37V31h-1.83v-.27H42v-2.15l-1.98-3.31h-.51V25Z" fill="#004795" /></svg>