<?xml version='1.0' encoding='utf-8'?>
<!-- by TradeStack -->
<svg width="56" height="56" viewBox="0 0 56 56" xmlns="http://www.w3.org/2000/svg"><path fill="#131D36" d="M0 0h56v56H0z" /><path d="M22 15v-2h6v6h-4v-4h-2Zm6 6.62-3.97 5.56-.03.07V21h4v.62ZM24 29v6h5v-1.82L25.41 29H24Zm12 6v-6h-6l5.58 6H36Zm-6-8h6v-6h-1.48L30 26.1v.9Zm-16 8h4v-6h-4v6Zm4-8h-4v-6h4v6Zm-4-14v6h4v-4h2v-2h-6Zm16 6v-6h6v2h-2.68l-3.02 4H30Zm8 10h6v6h-6v-6ZM22 43v-2h2v-4h4v6h-6Zm8.94-6H30v6h6v-2h-2.35l-2.71-4ZM14 43v-6h4v4h2v2h-6Zm24-5.16L40.3 41H38v2h6v-6h-6v.84ZM44 21h-6v6h6v-6Z" fill="#70BE45" /></svg>