<?xml version='1.0' encoding='utf-8'?>
<!-- by TradeStack -->
<svg width="56" height="56" viewBox="0 0 56 56" xmlns="http://www.w3.org/2000/svg"><path fill="url(#agm3cm5q5)" d="M0 0h56v56H0z" /><path d="M5 22a1 1 0 1 1 0 2 1 1 0 0 1 0-2ZM8 22a1 1 0 1 1 0 2 1 1 0 0 1 0-2Z" fill="#ED1B2E" /><path d="M44.27 27.4c0-.62-.3-1.23-1.06-1.23-.75 0-1.16.52-1.24 1.23h2.3Zm1.16 3.13a3.9 3.9 0 0 1-1.98.47c-1.87 0-2.97-1.1-2.97-2.97 0-1.65.87-3.03 2.65-3.03 2.12 0 2.6 1.48 2.6 3.45l-3.76.05c.09.85.69 1.32 1.55 1.32.7 0 1.25-.14 1.8-.44l.1 1.15ZM23.45 27.83c0-1.17-.37-1.63-1.17-1.63-.94 0-1.26.84-1.26 1.67 0 .73.4 1.6 1.2 1.6.86 0 1.23-.48 1.23-1.63Zm.06-2.25V25h1.5v5.08C25 31.88 24.37 33 22 33a5.1 5.1 0 0 1-1.96-.37l.1-1.15.06.04c.45.23 1.17.29 1.61.29 1.49 0 1.64-.7 1.64-1.84-.31.43-.95.69-1.71.69-1.7 0-2.34-1.33-2.34-2.8 0-1.31.7-2.86 2.42-2.86.72 0 1.23.07 1.7.58ZM48.41 25.62c.45-.48 1.02-.62 1.73-.62 1.3 0 1.86 1 1.86 2.31V31h-1.48v-3.13c0-.72-.12-1.6-.96-1.6-.95 0-1.07.5-1.08.5V31H47v-6h1.41v.62ZM10.45 25H12v6h-1.55v-6ZM14.41 25.62c.45-.48 1.02-.62 1.73-.62 1.3 0 1.86 1 1.86 2.31V31h-1.48v-3.48c0-.54-.12-1.25-.96-1.25-.83 0-1.07.5-1.08.5V31H13v-6h1.41v.62ZM29.78 26.43l-.06-.02a3.5 3.5 0 0 0-1.29-.24c-.39 0-.8.14-.8.58 0 .19.13.31.36.41.23.1.55.18.87.3.64.22 1.3.6 1.3 1.65 0 1.36-1.2 1.89-2.4 1.89-.56 0-1.13-.1-1.67-.24l-.04-.01.1-1.32.06.03c.45.23.93.37 1.42.37.37 0 .9-.14.9-.64 0-.25-.14-.4-.36-.51a2.7 2.7 0 0 0-.4-.15l-.47-.14c-.64-.2-1.3-.54-1.3-1.59 0-1.26 1.1-1.8 2.25-1.8.3 0 .59.02.88.07.26.04.49.1.71.14h.05l-.11 1.22ZM32.47 25.62a2.18 2.18 0 0 1 1.65-.62c.78 0 1.34.18 1.67.86.37-.66 1.01-.86 1.69-.86 1.43 0 1.84 1.01 1.84 2.31V31h-1.57v-3.74c0-.34-.01-1-.8-1-.74 0-.93.5-.95.5V31h-1.59v-3.74c0-.39 0-1-.8-1-.74 0-1.03.5-1.04.5V31H31v-6h1.47v.62ZM4 25h1.51v2l1.38-2h1.9l-1.64 2.14L9.45 31H7.56l-1.44-2.5-.62.8V31H4v-6Z" fill="#fff" /><path d="M11 22a1 1 0 1 1 0 2 1 1 0 0 1 0-2Z" fill="#ED1B2E" /><defs><linearGradient id="agm3cm5q5" x1="10.42" y1="9.71" x2="68.15" y2="76.02" gradientUnits="userSpaceOnUse"><stop stop-color="#1A1E21" /><stop offset="1" stop-color="#06060A" /></linearGradient></defs></svg>