<?xml version='1.0' encoding='utf-8'?>
<!-- by TradeStack -->
<svg width="56" height="56" viewBox="0 0 56 56" xmlns="http://www.w3.org/2000/svg"><path fill="#F0F3FA" d="M0 0h56v56H0z" /><path d="M20.61 18.53s.49 1.15-1.36 1.62c0 0-.73.02-.87-.47 0 0-.3-1.14 1.05-1 0 0 .32.06.62.06.27 0 .54-.04.56-.2Zm7.3-5.15s.89.67-.21 1.47c0 0-.44.42-1.16.32 0 0-.23 2.24-3.87.4 0 0 1.88-2.99 3.2-1.46 0 0 .49-1.24 2.03-.73ZM11 28.12c0 5.12 2.25 9.72 5.8 12.86h9.15s2.33-2.34-.26-4.36l-5.45-3.91s-4.82-2.9-2.04-9.23c0 0 1.2-2.52 3.51-4.2 0 0 1-1.16-.53-1.76 0 0 .78-.56.06-1.55 0 0 2.82-.21 2.54 4.6 0 0-.66 5.47 3.38 7.16 0 0-2.83-3.91.21-8.29 0 0 1.64-3.02 5.92-3.08 0 0 4.92-.04 6.97 4.22 0 0 3.66 6.96-2.81 12.48 0 0 4.04-7.06 1.23-10.65 0 0-1.67-2.52-5.1-2.62 0 0-6.46.07-4.87 7.94 0 0 .05-5.47 5.23-5.66 0 0 3.48.03 4.05 3.65 0 0 .7 3.1-1.72 5.96 0 0 1.08-4.32.05-5.86 0 0-.74-1.4-2.6-1.52 0 0-2.68-.37-3.53 3.47 0 0 1-1.36 2.63-1.16 0 0 3.97.18 2.2 4.5 0 0-.33-3.18-2.32-3.06 0 0-4.48-1.1-4.77 8.05V41H39.2A17.18 17.18 0 0 0 45 28.12C45 18.67 37.39 11 28 11c-9.38 0-17 7.66-17 17.12Z" fill="#E6001A" /></svg>