<!-- by TradeStack --><svg width="56" height="56" viewBox="0 0 56 56" xmlns="http://www.w3.org/2000/svg"><path fill="#F0F3FA" d="M0 0h56v56H0z"/><path d="M22.04 27.36h-.02l-.02-.02V16H13.02v.02c-.03.75-.02 1.43 0 2.02.04.87.18 1.75.42 2.64a8.71 8.71 0 0 0 3.75 5.24 9 9 0 0 0 4.74 1.5h.12l3.03.02c1.26 0 2.47-.08 3.62-.23a15.82 15.82 0 0 0 8.16-3.61 21.5 21.5 0 0 0 2.59-2.55A33.21 33.21 0 0 0 42.98 16H30.54c-.02 0-.04.01-.04.03a19.1 19.1 0 0 1-3.88 7.32 31.3 31.3 0 0 1-4.58 4.01ZM30.51 40H43a32.9 32.9 0 0 0-2.85-4.24c-.82-1.03-1.72-2-2.72-2.9a15.98 15.98 0 0 0-9-4.13 26.8 26.8 0 0 0-3.35-.2l-2.53.02c-.65 0-.89.02-1.17.05-3.38.4-6.31 2.34-7.6 5.65a11.54 11.54 0 0 0-.77 3.9 37.63 37.63 0 0 0 .01 1.83H22l.01-.02V28.62l.01-.01h.02c1.7 1.29 3.48 2.7 4.84 4.31A19.42 19.42 0 0 1 30.5 40Z" fill="#F30000"/></svg>