<?xml version='1.0' encoding='utf-8'?>
<!-- by TradeStack -->
<svg width="56" height="56" viewBox="0 0 56 56" xmlns="http://www.w3.org/2000/svg"><path fill="#F0F3FA" d="M0 0h56v56H0z" /><path d="M40 44H16l2.52-4h18.96L40 44Zm-20.9-4.66h17.83l-1.72-2.72H20.79l-1.68 2.72ZM34.73 36l-1.21-2H22.49l-1.22 2h13.45Z" fill="#2D7050" /><path d="M34.5 25.5a6.5 6.5 0 1 1-13 0 6.5 6.5 0 0 1 13 0Z" fill="#FF6B00" /><path d="M36.35 12.3c.16.04.33 0 .44-.11l.06-.19h.5v1.67h-.6c-.04-.1-.1-.21-.18-.3-.4-.47-1.02-.66-1.68-.66-.62 0-1.17.19-1.17.61.02.17.13.31.29.37.22.08.44.13.67.14.53.07 1.05.13 1.57.21.5.08.8.17 1.06.48.28.37.36.84.2 1.27-.1.37-.36.68-.7.87-.29.15-.6.25-.91.3a4.8 4.8 0 0 1-1.54-.05l-.84-.17a.37.37 0 0 0-.3.07.5.5 0 0 0-.08.19h-.57v-1.68h.54c.37.68 1.18.98 2 1 .45.02.93 0 1.17-.36a.47.47 0 0 0-.03-.5c-.21-.25-.56-.23-.88-.27-.6-.05-1-.11-1-.11-.48-.08-.97-.16-1.36-.43-.17-.13-.3-.3-.38-.49a1.2 1.2 0 0 1-.1-.6 1.53 1.53 0 0 1 .63-1.07c.2-.15.43-.27.67-.36.4-.14.91-.15 1.36-.12.4.04.79.14 1.16.28Zm-5.3.75a.28.28 0 0 0-.04-.28.3.3 0 0 0-.11-.1.33.33 0 0 0-.14-.03h-.31V12h2.18v.65h-.08a.73.73 0 0 0-.57.24c-.16.2-.22.43-.33.65L30.23 17h-.76l-1.23-3.31L26.86 17h-.68l-1.48-4c-.08-.2-.18-.36-.41-.36h-.18V12h2.6v.64c-.16 0-.34-.02-.46.09-.18.19-.08.44 0 .65l.64 1.7 1.2-3.08h1l1.1 3.12.86-2.07Zm-9.1-.08a.18.18 0 0 0 .06-.1.18.18 0 0 0-.07-.2.2.2 0 0 0-.12-.03h-.15V12h2.2v.64h-.16c-.3 0-.58.32-.8.5l-.9.77c.25.32 1.9 2.11 1.9 2.11.2.2.34.4.9.4H25V17h-3.15v-.58c.22 0 .47.02.52-.2.01-.06 0-.12-.01-.17a.36.36 0 0 0-.1-.14l-1.1-1.27-.8.69v.75a.32.32 0 0 0 .11.24.35.35 0 0 0 .25.1H21V17H18.3v-.58c.35 0 .54-.15.65-.4.05-.13.04-.27.04-.4v-2.34c0-.21.03-.64-.39-.64h-.3V12h2.7v.64h-.23c-.38 0-.41.44-.41.59v1.12l1.57-1.39Z" fill="#1D1D1B" /></svg>