<!-- by TradeStack --><svg width="56" height="56" viewBox="0 0 56 56" xmlns="http://www.w3.org/2000/svg"><path fill="#00479D" d="M0 0h56v56H0z"/><path d="M10.57 26.22h-1.5c-.64 0-1 .65-1 1.23 0 .65.46 1.23 1.14 1.23h1.34l.02 1.32H8.74c-.96 0-1.77-.7-2.12-1.63V30H5v-7h1.62v3.4A2.28 2.28 0 0 1 8.65 25h1.92v1.22ZM13.12 25h3.38v5H15v-3.72h-1.36c-.65 0-1.07.62-1.07 1.21s.54 1.17 1.03 1.17h.75V30h-1.22c-.94 0-2.13-1.04-2.13-2.57 0-1.26 1.07-2.43 2.12-2.43Zm13.56 0h-2.06c-1.05 0-2.12 1.17-2.12 2.43 0 1.53 1.31 2.57 2.13 2.57h1.22v-1.34h-.75c-.5 0-1.03-.58-1.03-1.17s.42-1.2 1.07-1.2h1.27v3.7H28V25h-1.32Zm-5.91 0c.54 0 1.23.7 1.23 1.3V30h-1.5v-3.25c.03-.25-.25-.47-.5-.47h-1.5V30H17v-5H20.77ZM37 26.3c0-.6-.75-1.3-1.34-1.3h-2.12v1.04c-.17-.53-.78-1.04-1.29-1.04H28.5v5H30v-3.72h1.42c.25 0 .61.2.58.47V30h1.6v-3.7l-.01-.01v-.01h1.44c.25 0 .5.2.47.47V30H37v-3.7Zm.92-.19a2.5 2.5 0 1 0 4.16 2.78 2.5 2.5 0 0 0-4.16-2.78Zm2.7 2.33a1.13 1.13 0 1 1-1.25-1.88 1.13 1.13 0 0 1 1.26 1.88ZM47 27.5a2.5 2.5 0 1 1 5 0 2.5 2.5 0 0 1-5 0Zm2.5 1.13a1.13 1.13 0 1 0 0-2.26 1.13 1.13 0 0 0 0 2.26Zm-4.67 0c.05.02.11.03.17.03h1.5V30h-2.26c-.55 0-1.24-.72-1.24-1.34V23h1.5v2h2v1.44h-2v1.74c0 .04.02.07.05.1l.05.08a.44.44 0 0 0 .23.26Z" fill="#fff"/></svg>