<?xml version='1.0' encoding='utf-8'?>
<!-- by TradeStack -->
<svg width="56" height="56" viewBox="0 0 56 56" xmlns="http://www.w3.org/2000/svg"><path fill="#F0F3FA" d="M0 0h56v56H0z" /><circle cx="9" cy="28" r="3" /><path d="M8.5 31.97C9.75 34.74 12.27 37 16.05 37c4.16 0 7.17-2.56 9.96-5.38.64-.64 5.18-4.8 5.75-5.36 2.57-2.51 4.8-4.26 7.42-4.26A5.98 5.98 0 0 1 45 27.71c0 2.86-1.94 6.29-5.81 6.29-3.26 0-5.48-2.25-7.62-4.43-.46-.46-.91-.92-1.37-1.35l-2.08 1.98.15.16c3.15 3.26 6.41 6.64 11.2 6.64 5.68 0 8.53-5.14 8.53-9.43C48 23.3 44.14 19 39.46 19c-3.4 0-6.38 2.07-9.66 5.2l-5.6 5.5c-2.25 2.13-4.6 4.3-8 4.3a5.9 5.9 0 0 1-5.06-2.62 3.98 3.98 0 0 1-2.65.59Z" /><path d="M11.1 24.6c1.13-1.51 3-2.6 5.1-2.6 3.3 0 6.02 2.44 9.46 5.71l1.82-1.79c-4-4.05-7.41-6.92-11.42-6.92-3.37 0-6.3 2.21-7.7 5.05a4.03 4.03 0 0 1 2.74.55Z" /></svg>