<!-- by TradeStack --><svg xmlns="http://www.w3.org/2000/svg" width="56" height="56"><path fill="#008C41" d="M0 0h56v56H0z"/><path fill-rule="evenodd" d="M28.02 24.66l-6.76-6.7a4.06 4.06 0 011.45-6.7 4.1 4.1 0 015.31 2.58 4.1 4.1 0 015.32-2.59 4.06 4.06 0 011.44 6.72l-6.76 6.69zm0 .68l6.77 6.7a4.06 4.06 0 01-1.45 6.7 4.1 4.1 0 01-5.31-2.58 4.1 4.1 0 01-5.32 2.59 4.06 4.06 0 01-1.44-6.72l6.76-6.69zm.46-.38l6.7 6.8a4.09 4.09 0 005.78.05l.02.03c.14.15.4.55.63 1.22.21.65.39 1.51.39 2.55 0 .86-.23 2.04-.8 3.1a4.55 4.55 0 01-2.83 2.31.5.5 0 10.26.96 5.55 5.55 0 003.44-2.8c.67-1.21.93-2.56.93-3.57 0-1.15-.2-2.12-.45-2.87a4.6 4.6 0 00-.83-1.58.5.5 0 00-.16-.11A4.11 4.11 0 0039.33 25a4.11 4.11 0 002.6-5.33 4.08 4.08 0 00-6.72-1.47l-6.73 6.76zm-.96-.01l-6.74-6.75a4.08 4.08 0 00-6.72 1.47 4.1 4.1 0 002.6 5.3 4.1 4.1 0 00-2.57 5.33 4.08 4.08 0 006.73 1.44l6.7-6.79zM20 40h-1v5h1v-2.2l1.82 2.2H23l-2.02-2.5L23 40h-1.18L20 42.21V40zm7 2.5a1.5 1.5 0 11-3 0 1.5 1.5 0 013 0zm1 0a2.5 2.5 0 11-5 0 2.5 2.5 0 015 0zm1.18-2.5l-.36 1h2.26c.14 0 .43.1.45.42.02.31-.56.76-.8.94l.96.96V44H30v-2h-1v2.99c.78 0 2.43.02 2.84 0 .5-.04 1.14-.36 1.16-1.2.01-.65-.6-1.23-.9-1.43.23-.13.7-.43.7-1.2 0-.76-.58-1.16-1.03-1.16h-2.6zM37 40h-3v5h2.67l.33-1h-2v-1h1.66l.34-1h-2v-1h2v-1z" fill="#fff"/></svg>