<!-- by TradeStack --><svg viewBox="0 0 56 56" xmlns="http://www.w3.org/2000/svg"><path fill="#F0F3FA" d="M0 0h56v56H0z"/><path d="M20.44 14a6.41 6.41 0 0 1 3.08 1.24 5.76 5.76 0 0 1 2 3.15 48.39 48.39 0 0 1 .66 3.9l-1.42 1.36-1.07 1.04-.65.63-.74.72-5.95 5.74c-.51.48-.84.8-.98.97a5.56 5.56 0 0 0-1.16 2.12l.01.06c-.02 0-.04-.02-.03-.05a37.98 37.98 0 0 0 .65-6.38 37.8 37.8 0 0 0-.8-8.13 3 3 0 0 1-.02-.26l-.02-.24v-.46a5.6 5.6 0 0 1 2.58-4.46 6.05 6.05 0 0 1 2.77-.95h1.09Z" fill="#042239"/><path d="m37.12 27.53-.1.1-.04.03-.02.02-.04.03-.02.02-.03.03-.02.02-.03.03-.02.03-.04.03-.02.02-.03.03-.02.02-.03.03-.03.02-.12.13-.24.23-.14.14-.07.07-.22.2-1.08 1.06-.04.03-.02.02-.04.04-.01.01-.04.04-.02.02-.03.03-.02.02-.04.03-.02.02-.03.04-.02.01-.04.04-.09.1-.15.14-5.24 5.11-.04.04L24 40.3a5.87 5.87 0 0 1-5.8 1.46 5.83 5.83 0 0 1-3.89-3.68 5.6 5.6 0 0 1 1.4-5.78l.63-.62 5.95-5.8.74-.72.65-.63 1.07-1.05 1.42-1.38 5.61-5.47a5.87 5.87 0 0 1 5.8-1.38c.85.27 1.59.68 2.22 1.24a5.51 5.51 0 0 1 1.46 2.06 5.53 5.53 0 0 1-1.26 6.14l-2.9 2.84Z" fill="#0B6873"/><path d="M43 36.2v.42l-.08.57a5.63 5.63 0 0 1-2.76 4c-.87.5-1.81.78-2.83.81h-.38a6.13 6.13 0 0 1-4.02-1.78c-.2-.21-.51-.58-.92-1.1l-.42-.54c-.87-1.07-1.77-2-2.71-3.02a.12.12 0 0 0 .04-.04c2.64-2.62 5.99-5.82 8.2-8.04h.01l.03.02a69.36 69.36 0 0 1 4.65 5.4A5.64 5.64 0 0 1 43 36.2Z" fill="#228691"/></svg>