<!-- by TradeStack --><svg width="56" height="56" viewBox="0 0 56 56" xmlns="http://www.w3.org/2000/svg"><path fill="#F0F3FA" d="M0 0h56v56H0z"/><path d="M40.13 26.15c-2.6-3.3-8.13-6.9-10.56-8.28 4.06-3.72 9.34-2.48 12.59.42 2.6 2.31 1.89 4.27 1.21 4.96l-3.24 2.9Z" fill="#9CD0CC"/><path d="m31.6 14.97-10.15 6.21c-4.55-2.31-2.98-4.55-1.63-5.38l3.25-2.07a7.64 7.64 0 0 1 6.5 0l2.03 1.24Z" fill="#D1E03D"/><path d="m25.1 26.98-7.71-6.21-5.28 5.8c-1.22 1.65-1.87 5.05.4 7.04 2.28 1.98 5.28.41 6.5-.83l6.1-5.8Z" fill="#9456A3"/><path d="m32.82 23.25-12.19 11.6c.82 1.1 3.01 3.89 5.28 6.2 2.85 2.9 11.78 3.32 15.03-4.13 2.6-5.96-4.33-11.6-8.12-13.67Z" fill="#4B6FB9"/></svg>