<!-- by TradeStack --><svg width="56" height="56" viewBox="0 0 56 56" fill="none" xmlns="http://www.w3.org/2000/svg">
<rect width="56" height="56" fill="#F0F3FA"/>
<path d="M46 28H10V30H46V28Z" fill="url(#paint0_linear_4904_130039)"/>
<path d="M18.7749 40C18.7749 40 17.3125 40 16.75 40C16.439 40 16.1863 39.9052 15.9607 39.6924C15.9107 39.6438 15.865 39.5913 15.8243 39.5354L13.6779 36.5231C13.5676 36.3588 13.1835 35.9935 13 36H12V40H10V31H12V34.5045H13C13.3197 34.5045 13.2804 34.4123 13.4232 34.226L15.5462 31.4031C15.644 31.2638 15.7825 31.1546 15.9448 31.0891C16.12 31.0293 16.3054 31.0011 16.4915 31.0061H18.4738L15.7028 34.6028C15.6142 34.7225 15.5104 34.8313 15.3938 34.9269C15.2926 35.0085 15.183 35.0801 15.0666 35.1406C15.2272 35.1968 15.3778 35.276 15.5131 35.3756C15.6595 35.4876 15.7843 35.623 15.8819 35.7756L18.7749 40ZM43.1747 35.7756C43.0771 35.623 42.9523 35.4876 42.8059 35.3756C42.6706 35.276 42.52 35.1968 42.3594 35.1406C42.4757 35.0799 42.5853 35.0083 42.6866 34.9269C42.8029 34.8313 42.9063 34.7224 42.9946 34.6028L45.7709 31.0061L43.75 31.0053C43.5636 31.0004 43.4164 31.0294 43.2408 31.0891C43.079 31.1549 42.9409 31.264 42.8432 31.4031L40.7203 34.226C40.5775 34.4123 40.3229 34.5 40 34.5L39 34.5031V31.0047L37 31V40H39V36H40C40.184 35.9935 40.8895 36.1083 41 36.273L43.1203 39.5364C43.1607 39.5925 43.2064 39.6451 43.2568 39.6934C43.424 39.8527 43.7503 40.0033 43.9751 40H46L43.1747 35.7756ZM27.8417 40H25.7922C25.4288 40 25.1048 39.7734 24.946 39.5131L23.2547 36.9283C23.2006 36.8286 23.1193 36.7446 23.0192 36.6852C22.8983 36.6306 22.765 36.6055 22.6313 36.6123H22V40H20V31L22.9467 31.0061C23.5311 30.9966 24.2547 31.0648 24.8192 31.2086C26.0956 31.5304 27.0129 32.4845 27 33.8125C27.0039 34.5643 26.368 35.3325 25.7795 35.7594C25.5336 35.9366 25.2618 36.0786 24.9727 36.1808C25.1085 36.2362 25.2399 36.3009 25.3659 36.3742C25.5358 36.4924 25.6805 36.6402 25.7922 36.8098L27.8417 40ZM25 33.8125C25.052 32.8817 23.8288 32.5497 23.0192 32.5507H22V35H23C23.7763 35.0193 25.0084 34.7046 25 33.8125ZM28 31V36.275C27.9936 36.7883 28.0886 37.2982 28.2803 37.7781C28.4579 38.2202 28.733 38.6212 29.0871 38.954C29.4522 39.2925 29.8878 39.5548 30.366 39.7238C31.4697 40.0921 32.4988 40.0921 33.6026 39.7238C34.0808 39.5549 34.5164 39.2926 34.8815 38.954C35.2364 38.6203 35.5128 38.2188 35.6925 37.776C35.8858 37.2965 36.0059 36.7926 36 36.279V31.0061L34 31V36.273C34 37.5 33.0781 38 32 38C31 38 29.9803 37.547 30 36.275V31H28Z" fill="url(#paint1_linear_4904_130039)"/>
<path d="M35.5556 14C35.9879 16.4578 35.8017 18.9824 34.798 21.2826C33.7944 23.5827 32.1311 25.5648 30 27H39.4443C40.1594 24.7134 40.1848 22.2802 39.5176 19.9804C38.8503 17.6805 37.4005 15.6076 35.5556 14Z" fill="url(#paint2_linear_4904_130039)"/>
<path d="M35 14C33.0167 12.6171 29.9636 11.9787 27.5464 12.0004C25.1293 12.0221 22.7787 12.7956 20.8204 14.2138C18.8621 15.632 17.3931 17.6246 16.617 19.9156C15.8408 22.2065 15.7959 24.6824 16.4885 27C18.4427 25.4714 20.8889 22.3554 21.486 20.3092C22.656 16.3032 25.1958 15.087 27.478 15.8056C27.8691 15.9265 29.428 15.5236 30.9292 15.5036C32.2201 15.4868 32.67 15.9444 32.67 15.9444C32.67 15.9444 31.0385 15.9118 29.4995 16.5756C28.3116 17.0911 28.1329 17.0859 28.2465 17.2268C28.36 17.3678 30.1765 16.9112 32.4724 17.4372C32.0719 17.9432 29.838 17.1932 28.7416 19.2751C28.299 20.1167 28.7363 21.2876 28.9592 21.9525C29.6898 24.1154 29.0727 26.0732 28.6817 26.9947C30.9526 25.8125 32.7501 23.887 33.7744 21.5393C34.7988 19.1915 35.6771 16.4705 35 14Z" fill="url(#paint3_linear_4904_130039)"/>
<defs>
<linearGradient id="paint0_linear_4904_130039" x1="10" y1="29" x2="46" y2="29" gradientUnits="userSpaceOnUse">
<stop stop-color="#0FA541"/>
<stop offset="0.1" stop-color="#12AD3E"/>
<stop offset="0.3" stop-color="#17BA39"/>
<stop offset="0.5" stop-color="#19BE37"/>
<stop offset="0.7" stop-color="#17BA39"/>
<stop offset="0.9" stop-color="#12AD3E"/>
<stop offset="1" stop-color="#0FA541"/>
</linearGradient>
<linearGradient id="paint1_linear_4904_130039" x1="28.0016" y1="31.0061" x2="28.0016" y2="40.0033" gradientUnits="userSpaceOnUse">
<stop stop-color="#0064D2"/>
<stop offset="1" stop-color="#0050B4"/>
</linearGradient>
<linearGradient id="paint2_linear_4904_130039" x1="37.46" y1="13.8268" x2="37.46" y2="27.0602" gradientUnits="userSpaceOnUse">
<stop stop-color="#00EB82"/>
<stop offset="0.380952" stop-color="#19BE37"/>
<stop offset="0.926136" stop-color="#007D50"/>
</linearGradient>
<linearGradient id="paint3_linear_4904_130039" x1="18.1588" y1="26.4754" x2="34.7736" y2="14.393" gradientUnits="userSpaceOnUse">
<stop stop-color="#0152B7"/>
<stop offset="0.443019" stop-color="#0153B9"/>
<stop offset="1" stop-color="#0155BC" stop-opacity="0.28"/>
</linearGradient>
</defs>
</svg>
