<!-- by TradeStack --><svg xmlns="http://www.w3.org/2000/svg" width="56" height="56"><path fill="#F0F3FA" d="M0 0h56v56H0z"/><path d="M32 41L16.56 25.02a2 2 0 01-.56-1.4v-8.44L42 41H32z" fill="url(#a5apw201m)"/><path d="M18.7 41c-.8 0-1.56-.31-2.12-.88a2 2 0 01-.58-1.4v-8.99L27.46 41H18.7z" fill="url(#b5apw201m)"/><path d="M32 13L16.59 28.41a2 2 0 00-.59 1.42V39l26-26H32z" fill="url(#c5apw201m)"/><path d="M18.64 13c-.76 0-1.48.3-2.01.83-.4.4-.63.95-.63 1.51v7.86L26.41 13h-7.77z" fill="url(#d5apw201m)"/><defs><linearGradient id="a5apw201m" x1="16.96" y1="23.64" x2="29" y2="41" gradientUnits="userSpaceOnUse"><stop stop-color="#942D3B"/><stop offset=".8" stop-color="#D11B38"/></linearGradient><linearGradient id="b5apw201m" x1="16.96" y1="23.64" x2="29" y2="41" gradientUnits="userSpaceOnUse"><stop stop-color="#942D3B"/><stop offset=".8" stop-color="#D11B38"/></linearGradient><linearGradient id="c5apw201m" x1="34.36" y1="21.93" x2="23.61" y2="29.15" gradientUnits="userSpaceOnUse"><stop stop-color="#0B6EBA"/><stop offset="1" stop-color="#1CC2FF"/></linearGradient><linearGradient id="d5apw201m" x1="34.36" y1="21.93" x2="23.61" y2="29.15" gradientUnits="userSpaceOnUse"><stop stop-color="#0B6EBA"/><stop offset="1" stop-color="#1CC2FF"/></linearGradient></defs></svg>