<?xml version='1.0' encoding='utf-8'?>
<!-- by TradeStack -->
<svg width="56" height="56" viewBox="0 0 56 56" xmlns="http://www.w3.org/2000/svg"><path fill="#AD2E39" d="M0 0h56v56H0z" /><path d="M16 13h15c-5.6 4.34-12.27 9.15-15 16V13Z" fill="#fff" /><path d="M40 13v9c-.97-2.51-3.71-4-7.13-4-1.27 0-2.7.25-3.92.6-.38.14-.97.38-.95.82.01.3.23.57.5.58.33 0 .74-.12.96-.16 3.64 0 5.54 3.43 5.54 6.8C35 33.26 27.74 39.2 21.64 39c-3.4-.11-5.75-3.08-5.64-6.46.13-3.5 2.5-7 4.75-9.43A65.17 65.17 0 0 1 32.36 13H40Z" fill="#fff" /><path d="M40 43V29c-2.43 6.53-9.63 12.15-16.71 12-3.02-.06-5.4-1.8-7.29-4v6h24Z" fill="#fff" /></svg>