<!-- by TradeStack --><svg width="56" height="56" viewBox="0 0 56 56" xmlns="http://www.w3.org/2000/svg"><path fill="#F0F3FA" d="M0 0h56v56H0z"/><path d="M43.88 30c-.06.42-.12.83-.2 1.24h-.91A12.9 12.9 0 0 0 41.46 30h2.42Zm-11.05 0c.71.4 1.34.82 1.9 1.24h-22.4c-.09-.4-.15-.82-.2-1.24h20.7ZM36 32.3H12.59c.12.43.25.85.4 1.27h24.14c-.32-.43-.7-.85-1.13-1.26Zm1.83 2.33h-24.4a16 16 0 0 0 24.97 5.53c.5-1.56.53-3.52-.57-5.53ZM43.97 29a16.24 16.24 0 0 0 .03-1.35h-6.51c.87.37 1.75.81 2.59 1.35h3.89Zm-13.1 0c-1.05-.47-2.22-.93-3.52-1.35H12a16.35 16.35 0 0 0 .03 1.35h18.83Zm13.07-2.42h-9.8c-1.22-.27-2.32-.4-3.14-.43.71-.22 1.38-.5 2.02-.83h10.76c.07.42.12.84.16 1.26Zm-31.88 0h13.96c.79-.3 1.68-.72 2.6-1.26h-16.4c-.07.42-.12.84-.16 1.26Zm31.5-2.33c-.1-.42-.22-.84-.36-1.25h-6.95c-.47.44-.97.86-1.5 1.25h8.8Zm-13.32 0c.52-.37 1.03-.8 1.53-1.25H12.8c-.14.41-.26.83-.36 1.25h17.8ZM42.84 22h-5.62c.39-.44.75-.89 1.07-1.33h3.93c.23.43.43.87.62 1.33Zm-29.68 0h19.62c.39-.42.76-.86 1.1-1.33h-20.1c-.23.43-.43.87-.62 1.33Zm28.46-2.4c-.44-.72-.94-1.4-1.49-2.03-.3.63-.66 1.32-1.11 2.03h2.6Zm-7 0c.9-1.47 1.6-3.17 1.94-5.12a15.99 15.99 0 0 0-22.18 5.12h20.23Z" fill="url(#a)"/><path d="M28 44c3.97 0 7.6-1.45 10.4-3.84.4-1.2.5-2.64.02-4.16H14.14A16 16 0 0 0 28 44Z" fill="#B81C22"/><defs><linearGradient id="a" x1="28" y1="12" x2="28" y2="44" gradientUnits="userSpaceOnUse"><stop stop-color="#032E77"/><stop offset=".69" stop-color="#01A1E0"/></linearGradient></defs></svg>