<!-- by TradeStack --><svg width="56" height="56" viewBox="0 0 56 56" xmlns="http://www.w3.org/2000/svg"><path fill="#F0F3FA" d="M0 0h56v56H0z"/><path fill-rule="evenodd" d="M8.65 18c1.24 1.34 4.44 2.79 5.89 3.34v.54l-2.14-.8 2.55 1.6.6.67c-.7-.31-2.5-1.2-4.16-2.27A7.2 7.2 0 0 1 8.65 18Zm8.62 4.68a5.07 5.07 0 0 1-2.32-1.6c.1.46.52 1.6 1.37 2.4.55.52 1.29.77 1.94.99.62.2 1.16.4 1.39.75.3.46.2 1.26.1 2.08-.06.48-.12.97-.1 1.4.05.9.97 1.76 1.43 2.07v-.54a4.1 4.1 0 0 1-.6-2.2c.03-.5.19-1.14.35-1.76.21-.85.42-1.67.25-2.05-.2-.44-1.02-.67-2.04-.97-.55-.16-1.16-.34-1.77-.57Zm2.14 2.74c-3.09-1.1-9.7-3.84-11.41-6.08a7.1 7.1 0 0 0 3.39 4.61c2.33 1.34 6.32 2.3 8.02 2.6v-.26c-1.33-.22-4.5-1.1-6.54-2.8a85.9 85.9 0 0 0 6.54 2.26v-.33Zm-9.98-1.94c2.9 2.14 7.82 3.12 9.92 3.34v.4c-.71 0-3.23-.44-4.4-.66 1 .64 3.35.98 4.4 1.07v.33c-.45.02-2.08-.1-4.93-.73a7.67 7.67 0 0 1-5-3.75Zm9.86 4.88c-1.54.02-5.08-.17-6.9-1.13.46.64 1.74 1.96 3.22 2.07 1.47.1 3.15.04 3.8 0l-.12-.4c-.7.06-2.28.12-3.09-.2h3.1v-.34Zm-3.68 1.54c1.28.37 3.19.07 3.98-.13l.06.26c-.24.22-.97.32-1.3.34.75.37 1.26.06 1.42-.14l.3.14c.02.18-.24.56-1.43.67-1.19.1-2.52-.72-3.03-1.14ZM27 25H25l-.02-1.05c0-.86-1.67-2.59-2.54-3.34 1.43-.06 2.64.94 3.06 1.39v.5h.5c.26.18.54.69.75 1.08L27 24h.5v-.65c-.12-.07-.48-.3-.48-.67 0-.31.3-.5.48-.61l.08-.06v-.6c-.12.05-.58-.09-.58-.41 0-.14.13-.48.31-.93.23-.56.52-1.3.72-2.07.2.64.4 1.24.58 1.73.23.65.39 1.12.39 1.27 0 .21-.43.41-.59.41v.6h.01c.17.08.58.25.58.67 0 .4-.3.55-.46.65l-.04.02V24h.5l1-1.32h.5v-.67a3.87 3.87 0 0 1 3.06-1.2c-1.24.16-2.22 2.07-2.56 3V25h-2l-1 1-.98-1Zm-2.13-1.18v1.07c0-.42-.99-1.2-1.61-1.68L23 23c.76 0 1.64.53 1.88.82Zm6.3 1.07v-1.07c.14-.3.77-.82 1.82-.82l-.07.06c-.53.42-1.57 1.26-1.75 1.83ZM27 25.5h-5.5V36c0 3 4 5.5 6.5 6 2.5-.5 6.5-3.5 6.5-6V25.5H29l-1 1-1-1Zm14.05-4.42c-.2.3-.94 1.06-2.32 1.6-.6.23-1.22.41-1.77.57-1.02.3-1.84.53-2.04.97-.17.38.04 1.2.25 2.05.16.62.32 1.25.35 1.76a4.1 4.1 0 0 1-.6 2.2v.54c.46-.31 1.38-1.16 1.43-2.07.02-.43-.04-.92-.1-1.4-.1-.82-.2-1.62.1-2.08.23-.36.77-.54 1.39-.75.65-.22 1.39-.47 1.94-.99a5.11 5.11 0 0 0 1.37-2.4Zm6.3-3.08c-1.24 1.34-4.44 2.79-5.89 3.34v.54l2.14-.8-2.55 1.6-.6.67c.7-.31 2.5-1.2 4.16-2.27A7.2 7.2 0 0 0 47.35 18Zm-10.76 7.42c3.09-1.1 9.7-3.84 11.41-6.08a7.1 7.1 0 0 1-3.39 4.61c-2.33 1.34-6.32 2.3-8.02 2.6v-.26c1.33-.22 4.5-1.1 6.54-2.8-1.83.68-5.69 2.1-6.54 2.26v-.33Zm9.98-1.94c-2.9 2.14-7.82 3.12-9.92 3.34v.4c.71 0 3.23-.44 4.4-.66-1 .64-3.35.98-4.4 1.07v.33c.45.02 2.08-.1 4.93-.73a7.67 7.67 0 0 0 5-3.75Zm-9.86 4.88c1.54.02 5.08-.17 6.9-1.13-.46.64-1.74 1.96-3.22 2.07-1.47.1-3.15.04-3.8 0l.12-.4c.7.06 2.28.12 3.09-.2h-3.1v-.34Zm3.68 1.54c-1.28.37-3.19.07-3.98-.13l-.06.26c.24.22.97.32 1.3.34-.75.37-1.26.06-1.42-.14l-.3.14c-.02.18.24.56 1.43.67 1.19.1 2.52-.72 3.03-1.14ZM26.5 26H22v5.43l.36.54-.36.42v3.23c0 2.6 3.84 5.37 6 5.88 2.25-.68 6-2.96 6-5.81v-3.3l-.31-.42.31-.55V26h-4.5L28 27.5 26.5 26Zm-4.27 5.34v-5.07h4.17l1.6 1.61 1.6-1.61h4.17v5.07l-.36.65.36.5v3.2c0 2.7-3.65 4.98-5.77 5.63-2.02-.5-5.77-3.22-5.77-5.7V32.5l.43-.5-.43-.66ZM28 30.5l-.5-.49h-2v3.49l-.5.53.5.47V38h2l.5-.5.35.5H30l1-1v-2l-1-.97L31 33v-1.5L29.59 30H28.5l-.5.5Zm-1.5 3V31h3l.5.5V33l-.5.5h-3Zm0 1V37h3l.5-.5V35l-.5-.5h-3ZM23 27h3l2 2 2-2h3v3.67L32 32l1 .53v2.87c0 2.1-3 4.1-4.5 4.6h-1c-1.5-.5-4.5-2.5-4.5-4.6v-2.87l1-.53-1-1.13V27Zm.5 3.5v-2l1 .5-.5-1.5 2 .03 1.97 2.2L30 27.5h2l-.5 1.5 1-.5v2l-1 1.5 1.05.87v2.6c-.05 2.03-2.55 3.53-4.05 4l-.5-.97-.48.97c-1.36-.6-4.07-1.97-4.07-4v-2.6L24.5 32l-1-1.5Z" fill="url(#aspzwrwpv)"/><defs><linearGradient id="aspzwrwpv" x1="28" y1="18" x2="28" y2="42" gradientUnits="userSpaceOnUse"><stop stop-color="#274CA0"/><stop offset="1" stop-color="#253875"/></linearGradient></defs></svg>