<?xml version='1.0' encoding='utf-8'?>
<!-- by TradeStack -->
<svg width="56" height="56" viewBox="0 0 56 56" xmlns="http://www.w3.org/2000/svg"><path fill="#F0F3FA" d="M0 0h56v56H0z" /><path fill-rule="evenodd" d="M6 20.86l22-4.36 22 4.36v14.28L28 39.5 6 35.14V20.86zm4 3.64l-.41 1.37.4.14v5.49H12V29l1.6 2.5h2.34l-2.21-3.42 2.32-3.58h-2.32L12 27.17V24.5h-2zM22.39 28a3.5 3.5 0 1 1-7 0 3.5 3.5 0 0 1 7 0zm-2 0a1.5 1.5 0 1 1-3 0 1.5 1.5 0 0 1 3 0zm7.25-2.8l-1.1-.82-.06.28c-2.7-.73-3.76 1.17-3.74 2.08.02.9.44 1.45 1.54 1.76.89.26 1.08.58 1.07.7-.09.67-1.4.14-2.05-.21l-.81 1.5c.22.2 1.57 1.07 3.06 1 1.5-.06 2.1-1.27 2.1-2.19 0-.91-.43-1.58-1.41-2.02-.89-.4-1.02-.75-1-.89.14-.7 1.22-.25 1.74.07l.66-1.26zm4.15-.82l1.1.82-.66 1.25c-.52-.31-1.6-.76-1.73-.06-.03.13.1.49.99.89.99.44 1.4 1.1 1.4 2.02 0 .92-.6 2.13-2.09 2.2a5.14 5.14 0 0 1-3.06-1l.8-1.52c.66.35 1.97.88 2.07.22 0-.13-.2-.45-1.07-.7-1.1-.32-1.53-.86-1.55-1.76-.02-.9 1.04-2.82 3.75-2.08l.05-.28zm1.4 7.12l1.84-5.5-.3-.23.8-1.27h1.87l2.41 7h-1.94l-.35-1h-2.06l-.38 1h-1.9zm2.7-2.31l.6-1.75.6 1.75h-1.2zm3.68-3.32L40 24.5H42l2 3.48V24.5h2v7h-2l-2-3.52v3.52h-2v-5.47l-.43-.16z" fill="#EC1C2D" /></svg>