<!-- by TradeStack --><svg width="56" height="56" viewBox="0 0 56 56" fill="none" xmlns="http://www.w3.org/2000/svg">
<rect width="56" height="56" fill="url(#paint0_linear_229_18214)"/>
<path fill-rule="evenodd" clip-rule="evenodd" d="M28.4896 19C28.191 19.0001 27.8942 19.0013 27.5993 19.0038L26.5722 25.4515C27.5698 25.4368 28.552 25.4363 29.5168 25.4486L28.4896 19ZM30.9385 25.4761C31.6909 25.4957 32.4319 25.5229 33.1604 25.5569L30.681 19.0218C30.2013 19.012 29.724 19.0057 29.2503 19.0025L30.9385 25.4761ZM31.3151 19.0368C32.6403 21.6384 33.7035 24.1363 34.2887 25.6156C35.2028 25.6681 36.0957 25.7311 36.9656 25.8032C36.0081 24.2608 33.8617 21.0265 32.5568 19.0781C32.142 19.0616 31.7278 19.0478 31.3151 19.0368ZM33.1651 19.1044C34.9178 21.1087 37.0342 24.1522 38.1962 25.9125C39.0548 25.9939 39.8888 26.084 40.6962 26.1809C39.3175 24.413 36.318 21.0455 34.6281 19.1851C34.1408 19.1539 33.6527 19.1272 33.1651 19.1044ZM35.1259 19.2185C37.8058 21.5752 40.5142 24.6357 41.9187 26.3356C42.7017 26.4398 43.4568 26.5501 44.182 26.665C42.3222 24.6887 38.6428 21.2632 36.5203 19.3292C36.0572 19.288 35.5921 19.2512 35.1259 19.2185ZM37.0339 19.3768C40.4602 21.9679 43.8627 25.1685 45.5916 26.9005C46.5271 27.065 47.4041 27.236 48.2173 27.4094C45.7513 25.1964 41.1134 21.5967 38.3698 19.5192C37.9274 19.4673 37.4818 19.4199 37.0339 19.3768ZM39.0504 19.6029C43.4426 22.5584 47.3115 25.8866 49.1662 27.6194C50.2494 27.868 51.199 28.1181 52 28.3578C47.4216 24.3585 42.025 20.9321 39.899 19.7187C39.6179 19.6781 39.3349 19.6395 39.0504 19.6029ZM21.4352 19.2139C21.9081 19.1857 22.396 19.1594 22.8971 19.1356C21.1397 21.1518 19.0251 24.1961 17.8734 25.9426C17.0414 26.0251 16.2032 26.1187 15.3596 26.2241C16.7157 24.4774 19.7267 21.0954 21.4352 19.2139ZM23.5127 19.108C22.1989 21.0699 20.0536 24.3032 19.1086 25.8278C20.0124 25.7494 20.9082 25.6839 21.795 25.6304C22.377 24.1575 23.4381 21.6628 24.7619 19.0613C24.3384 19.075 23.9216 19.0906 23.5127 19.108ZM25.1494 25.4821C24.4153 25.5028 23.6735 25.5314 22.9248 25.5684L25.4006 19.0425C25.8721 19.0298 26.3513 19.0197 26.8366 19.0125L25.1494 25.4821ZM20.9336 19.2449C18.2369 21.6215 15.5163 24.7028 14.1293 26.3859C13.3726 26.4902 12.6119 26.6043 11.848 26.7285C13.684 24.7667 17.4085 21.2983 19.556 19.3412C19.9968 19.3077 20.4567 19.2753 20.9336 19.2449ZM19.0501 19.3809C15.579 22.0066 12.1333 25.2566 10.4283 26.9704C9.55369 27.1264 8.67533 27.2959 7.79415 27.4797C10.2488 25.2645 14.984 21.5901 17.7524 19.4944C18.1601 19.4559 18.5936 19.4178 19.0501 19.3809ZM17.1059 19.558C12.6343 22.5594 8.69592 25.9566 6.85845 27.6801C5.90816 27.8888 4.95497 28.1144 4 28.3578C6.12692 26.4725 11.4412 22.1052 15.6828 19.7187C16.0987 19.6665 16.5756 19.6122 17.1059 19.558Z" fill="url(#paint1_linear_229_18214)"/>
<path d="M4 33V29H4.72258V30.7257H5.96262L7.50094 29H8.34907L6.63033 30.9281L8.44403 33H7.54842L5.93414 31.1465H4.72258V33H4Z" fill="#8F9091"/>
<path d="M9.57981 33V29H13.568V29.4953L10.3261 29.49V30.6937L13.2357 30.6991V31.1305L10.3261 31.1252V32.5047L13.568 32.51V33H9.57981Z" fill="#8F9091"/>
<path d="M17.0208 33C16.565 33 16.1725 32.9574 15.8433 32.8722C15.5205 32.787 15.2704 32.6644 15.0932 32.5047C14.9159 32.3449 14.8241 32.1549 14.8178 31.9348H15.6724C15.6724 32.13 15.7895 32.2845 16.0237 32.3981C16.2643 32.5118 16.5967 32.5686 17.0208 32.5686C17.4196 32.5686 17.7298 32.5135 17.9514 32.4035C18.1793 32.2934 18.2932 32.1407 18.2932 31.9454C18.2932 31.7892 18.2173 31.6525 18.0653 31.5353C17.9197 31.4181 17.7077 31.3364 17.4291 31.2903L16.489 31.1252C16.0142 31.0435 15.6471 30.9068 15.3875 30.715C15.1343 30.5233 15.0077 30.2978 15.0077 30.0386C15.0077 29.8291 15.09 29.648 15.2546 29.4953C15.4255 29.3391 15.6629 29.2184 15.9668 29.1332C16.2706 29.0444 16.6283 29 17.0398 29C17.6475 29 18.135 29.0959 18.5021 29.2876C18.8693 29.4758 19.0561 29.7279 19.0624 30.0439H18.2078C18.2078 29.8522 18.1033 29.7031 17.8944 29.5965C17.6918 29.4865 17.4038 29.4314 17.0303 29.4314C16.6631 29.4314 16.3751 29.4811 16.1662 29.5806C15.9636 29.68 15.8623 29.8185 15.8623 29.996C15.8623 30.1558 15.9383 30.2943 16.0902 30.4115C16.2421 30.5286 16.4605 30.6121 16.7454 30.6618L17.695 30.8322C18.1571 30.9139 18.5148 31.0524 18.768 31.2477C19.0212 31.443 19.1479 31.672 19.1479 31.9348C19.1479 32.1478 19.0592 32.3342 18.882 32.494C18.7047 32.6538 18.4547 32.7781 18.1318 32.8668C17.8153 32.9556 17.4449 33 17.0208 33Z" fill="#8F9091"/>
<path d="M22.5246 33C22.0688 33 21.6764 32.9574 21.3472 32.8722C21.0243 32.787 20.7743 32.6644 20.597 32.5047C20.4197 32.3449 20.3279 32.1549 20.3216 31.9348H21.1762C21.1762 32.13 21.2934 32.2845 21.5276 32.3981C21.7681 32.5118 22.1005 32.5686 22.5246 32.5686C22.9235 32.5686 23.2337 32.5135 23.4552 32.4035C23.6831 32.2934 23.7971 32.1407 23.7971 31.9454C23.7971 31.7892 23.7211 31.6525 23.5692 31.5353C23.4236 31.4181 23.2115 31.3364 22.933 31.2903L21.9929 31.1252C21.5181 31.0435 21.1509 30.9068 20.8914 30.715C20.6381 30.5233 20.5115 30.2978 20.5115 30.0386C20.5115 29.8291 20.5938 29.648 20.7584 29.4953C20.9293 29.3391 21.1667 29.2184 21.4706 29.1332C21.7745 29.0444 22.1321 29 22.5436 29C23.1514 29 23.6388 29.0959 24.006 29.2876C24.3732 29.4758 24.5599 29.7279 24.5662 30.0439H23.7116C23.7116 29.8522 23.6072 29.7031 23.3983 29.5965C23.1957 29.4865 22.9076 29.4314 22.5341 29.4314C22.167 29.4314 21.8789 29.4811 21.67 29.5806C21.4674 29.68 21.3662 29.8185 21.3662 29.996C21.3662 30.1558 21.4421 30.2943 21.5941 30.4115C21.746 30.5286 21.9644 30.6121 22.2493 30.6618L23.1988 30.8322C23.661 30.9139 24.0186 31.0524 24.2719 31.2477C24.5251 31.443 24.6517 31.672 24.6517 31.9348C24.6517 32.1478 24.5631 32.3342 24.3858 32.494C24.2086 32.6538 23.9585 32.7781 23.6356 32.8668C23.3191 32.9556 22.9488 33 22.5246 33Z" fill="#8F9091"/>
<path d="M26.2535 33V29H30V29.4953H26.999V30.6991H29.8097V31.1305H26.999V32.51H30V33H26.2535Z" fill="#8F9091"/>
<path d="M31.7447 33V29H32.4799V32.51H35.7259V33H31.7447Z" fill="#8F9091"/>
<path d="M37 33V29H39.1691C39.8622 29 41.2297 29.254 41.2297 30.1771C41.2297 30.4399 41.1063 30.6653 40.8594 30.8535C40.6188 31.0417 40.2896 31.1713 39.8718 31.2423L41.3247 33H40.3466L39.0172 31.3009H37.7656V33H37ZM37.7656 30.8695L39.1691 30.8642C39.5236 30.8642 39.8085 30.802 40.0237 30.6778C40.239 30.5499 40.3466 30.383 40.3466 30.1771C40.3466 29.9676 40.239 29.8007 40.0237 29.6764C39.8085 29.5522 39.5236 29.49 39.1691 29.49L37.7656 29.4953V30.8695Z" fill="#8F9091"/>
<path d="M44.502 33C43.8563 33 43.3625 32.9006 43.0207 32.7017C42.6789 32.4993 42.5079 32.2259 42.5079 31.8815V29H43.2728V31.8815C43.2728 32.0945 43.3646 32.2632 43.5482 32.3875C43.7381 32.5118 44.1159 32.5739 44.502 32.5739C44.8819 32.5739 45.2706 32.5118 45.4605 32.3875C45.6505 32.2632 45.7454 32.0945 45.7454 31.8815V29H46.4962V31.8815C46.4962 32.2295 46.3252 32.5029 45.9834 32.7017C45.6479 32.9006 45.1541 33 44.502 33Z" fill="#8F9091"/>
<path d="M48 33V29H49.1513L51.3957 32.3875C51.383 32.2987 51.3672 32.1904 51.3482 32.0626C51.3356 31.9312 51.3229 31.7945 51.3102 31.6525C51.3039 31.5069 51.3008 31.3702 51.3008 31.2423V29H52V33H50.8605L48.6624 29.6178C48.6751 29.7031 48.6877 29.8114 48.7004 29.9427C48.713 30.0706 48.7225 30.2073 48.7289 30.3529C48.7415 30.4949 48.7479 30.6316 48.7479 30.763V33H48Z" fill="#8F9091"/>
<defs>
<linearGradient id="paint0_linear_229_18214" x1="10.4178" y1="9.71163" x2="68.1465" y2="76.0166" gradientUnits="userSpaceOnUse">
<stop stop-color="#1A1E21"/>
<stop offset="1" stop-color="#06060A"/>
</linearGradient>
<linearGradient id="paint1_linear_229_18214" x1="28" y1="19" x2="28" y2="28.3578" gradientUnits="userSpaceOnUse">
<stop stop-color="#221F19"/>
<stop offset="0.35462" stop-color="#88624C"/>
<stop offset="1" stop-color="#DCA856"/>
</linearGradient>
</defs>
</svg>
