<!-- by TradeStack --><svg width="56" height="56" viewBox="0 0 56 56" xmlns="http://www.w3.org/2000/svg"><path fill="#F0F3FA" d="M0 0h56v56H0z"/><path fill-rule="evenodd" d="M28 13.52 6.29 28 28 42.48 49.71 28 28 13.52ZM28 12 4 28l24 16 24-16-24-16Z" fill="#E60012"/><path d="M36.5 27H42v2.5h-1V34h-3v-.52c-.84.35-1.87.52-2.75.52C32 34 29 31.36 29 28c0-3.35 2.99-6 6.25-6 .86 0 1.73.16 2.42.52V22H41v4h-3.33c-.29-.83-.94-1.42-1.9-1.42-1.43 0-2.27 1.66-2.27 2.91v.68c0 1.3.78 2.92 2.27 2.92.83 0 1.5-.93 1.9-1.59H36.5V27ZM20 22h-5v3h1v6h-1v3h5v-4h.53l3.55 4h4.4v-2.5h-1.03L24.6 28l2.84-3h1.05v-3H22v2.22L20.53 26H20v-4Z" fill="#E60012"/></svg>