<?xml version='1.0' encoding='utf-8'?>
<!-- by TradeStack -->
<svg width="56" height="56" viewBox="0 0 56 56" xmlns="http://www.w3.org/2000/svg"><path fill="#F0F3FA" d="M0 0h56v56H0z" /><path fill-rule="evenodd" d="M7 35v-7h2v2.5l1.66-2.5H13l-2.6 3.43L13 35h-2.2L9 32.34V35H7Zm8-2.34h-2v.51c0 1.01.84 1.83 1.88 1.83h2.24c1.04 0 1.88-.82 1.88-1.83v-1.23a.92.92 0 0 0-.82-.91l-2.74-.37a.5.5 0 0 1-.44-.5c0-.43.18-.78.61-.78h.76c.45 0 .64.35.64.79v.07H19v-.4c0-1.02-.84-1.84-1.88-1.84h-2.24c-1.04 0-1.88.82-1.88 1.83v.7c0 .72.55 1.33 1.29 1.42l2.37.32c.24.03.31.22.34.45.05.43-.18.8-.61.8h-.7c-.47 0-.69-.39-.69-.86ZM20 28v7h4.35c.55.03 1.65-.28 1.65-1.73 0-1.2-.77-1.71-1.16-1.82.92-.2 1.06-1.15 1.02-1.6 0-1.46-1-1.84-1.51-1.85H20Zm3.44 1.5H22V31h1.44c.3 0 .56-.33.56-.74v-.02c0-.41-.25-.74-.56-.74Zm0 2.5H22v1.5h1.44c.3 0 .56-.33.56-.74v-.02c0-.41-.25-.74-.56-.74Z" fill="#00559B" /><path d="M29 24.03v6.2c.1 1.58 1.16 4.74 4.7 4.74 1.66-.08 4.8-1.37 4.8-4.97-.08-1.57-1.02-4-4.8-4-.3 0-.95.04-1.2.15v3.47c.16-.21.9-.63 1.5-.63.75 0 1.5.68 1.5 1.51s-.8 1.5-1.58 1.5c-.8 0-1.92-.37-1.92-1.5v-6.47l-1.33-1.57L29 24.03ZM36.1 35H41v-3h-2.1c-.13.63-.86 2.12-2.8 3Z" fill="#00559B" /><path d="M29 20.87v2.52l1.69-1.5L32 23.4v-1.94c0-.74.78-1.45 1.52-1.45h9.96c.74 0 1.52.7 1.52 1.45v9.04c0 .74-.78 1.51-1.52 1.51H41.5v3h2.64A3.87 3.87 0 0 0 48 31.13V20.87A3.87 3.87 0 0 0 44.14 17H32.86A3.87 3.87 0 0 0 29 20.87Z" fill="#B2B2B2" /></svg>