<!-- by TradeStack --><svg xmlns="http://www.w3.org/2000/svg" width="56" height="56" viewBox="0 0 56 56"><path fill="#F0F3FA" d="M0 0h56v56H0z"/><path d="M37.7 22h-3.76L29.7 34h3.75l4.25-12ZM32 22l-.85 2.52h-5.6l-.73 2.14h5.11L29.08 29h-5.09l-.8 2.42h5.63L27.9 34H19l4.11-12H32ZM13.53 22H9.26L5 34h4.27l.82-2.3-1.63-5 4.59-3.34.48-1.36Z" fill="#103675"/><path d="M18.2 34h-4.76l-2.26-7h4.62l2.4 7Z" fill="#103675"/><path d="M22.37 22h-4.74l-6.46 5h4.63l6.57-5Z" fill="#D5007F"/><path d="M38.68 33.9c1.45.18 3.9.06 3.9.06 3.13-.05 4.34-1.63 4.34-1.63a7.88 7.88 0 0 0 1.24-1.96c.8-1.74 1.49-3.82 1.49-3.82.36-1.09.35-1.87.35-1.87.05-.81-.44-1.45-.44-1.45-.68-1.14-2.6-1.17-2.6-1.17-1.4-.13-3.86 0-3.86 0a5.55 5.55 0 0 0-3.56 1.18c-1.14.93-1.73 2.53-1.73 2.53l-.63 1.52a32.4 32.4 0 0 0-1.07 3.26s-.9 2.98 2.57 3.35Zm7.6-8.15s-.1.66-1.23 3.4c0 0-.27.61-.53 1.03 0 0-.55.96-1.9 1.05 0 0-.91.08-1.87 0 0 0-1.26.06-1-1.15l.25-.8c0-.01.65-1.88 1.22-3.12.57-1.23 1.44-1.37 1.85-1.45 0 0 1.21-.1 2.27-.01 0 0 1.16.03.94 1.05Z" fill="#103675"/></svg>