<?xml version='1.0' encoding='utf-8'?>
<!-- by TradeStack -->
<svg width="56" height="56" viewBox="0 0 56 56" xmlns="http://www.w3.org/2000/svg"><path fill="#F0F3FA" d="M0 0h56v56H0z" /><path d="M26.58 19.25a163.83 163.83 0 0 0 2.06 7.78l.03.09.03.09.01.05.02.05a147.36 147.36 0 0 0 1.88-7.73l.05-.25c.1-.44.18-.9.26-1.33h-4.63l.17.71.12.54ZM42.74 18h-4.8v.09l-.03.23-.25 1.2-.05.27-.06.26a123.62 123.62 0 0 1-2.13 8.58l-.07.26-.35 1.2-.06.2-.28.9-.36 1.22-.04.13-.04.13-.17.54c-.59 1.99-1.21 4.02-1.78 5.8l.13.37a46.28 46.28 0 0 0 .43 1.27l.07.17v.03c.13.4.29.81.47 1.22v.03c.24.59.46 1.04.62 1.33l.26.43c.05.1.14.14.25.14h.73c.1 0 .2-.06.24-.14 1.03-1.8 2.77-7.52 4.32-12.78a134 134 0 0 0 3.2-12.72c.06-.2-.08-.36-.25-.36Zm-12.5 14.43-.1-.34-.23-.82c-.2-.76-.42-1.53-.7-2.25a2.89 2.89 0 0 1 .1-.4C30.22 25.4 31.83 18 31.83 18h5.15c-1.14 6.5-3.15 12.88-5.13 19.16l-.1.3c-.5-1.58-1-3.33-1.5-5.03Z" fill="#A3A6A8" /><path d="M24.24 14.22a.27.27 0 0 0-.27-.22H18.6c1.58 8.56 4.4 16.92 7.06 25.2l-.56 1.71a177.84 177.84 0 0 1-7.6-26.9h-6.23c-.17 0-.3.15-.28.33.96 4.89 2.29 9.8 3.8 14.82 1.82 5.96 3.83 12.46 5.06 14.7.04.08.14.14.24.14H33c-3.43-9.79-6.79-19.58-8.76-29.78Z" fill="#878A8F" /></svg>