<?xml version='1.0' encoding='utf-8'?>
<!-- by TradeStack -->
<svg width="56" height="56" viewBox="0 0 56 56" xmlns="http://www.w3.org/2000/svg"><path fill="#F0F3FA" d="M0 0h56v56H0z" /><path d="M40.94 39.11 16.76 14.68l.3-.3L41.25 38.8l-.3.3Zm-.45.45L16.32 15.13l-.3.3 24.17 24.44.3-.3Zm-.76.77L15.56 15.9l-.3.3 24.17 24.44.3-.3Zm-.75.76L14.81 16.65l-.3.3L38.68 41.4l.3-.3Zm-.74.75L14.06 17.41l-.3.3 24.18 24.44.3-.3Zm-.76.77L13.3 18.18l-.3.3 24.17 24.44.3-.3Z" fill="#001F46" /><path d="M14.97 37.68c-.99 1.6-.64 1.4-.67 2.23-.01.46-.54.78-.34 1.2a4.7 4.7 0 0 0 1 1.42c1.05.94 3.03.28 3.57-.4.42-.56 1.18-1.3 1.5-1.6a3563 3563 0 0 0 8.4-11.24c1.43-1.93 10.12-10.47 14.28-14.5l-5.01 3.8c-.1.07 4.82-4.36 7.3-6.59-2.98 1.36-11.62 7.49-15.57 10.39l6.45-5.59c-8.99 5.87-19.93 19.28-20.91 20.88Z" fill="#EAA423" /></svg>