<?xml version='1.0' encoding='utf-8'?>
<!-- by TradeStack -->
<svg width="56" height="56" viewBox="0 0 56 56" xmlns="http://www.w3.org/2000/svg"><path fill="#F0F3FA" d="M0 0h56v56H0z" /><path d="M28.05 18.55c-1.48 2.04-2.05 2.61-3.12 3.16-1.57.8-3.83 1.39-8.17 2.1-6.11 1-7.84 1.4-10.6 2.43-1.08.4-2.16 1.5-2.16 2.19 0 1.6 1.02 2.5 4.53 3.99 2.73 1.15 5.28 2.55 6.1 3.33.68.66 1.28.67 1.39.02.17-1-1.55-2.24-5.86-4.26-4.51-2.11-4.55-2.14-3.62-3.12 1.04-1.1 4.46-2.05 10.62-2.96 6.07-.9 9.38-2.08 10.97-3.88 1.36-1.54 1.79-3.39.83-3.54-.3-.05-.61.13-.9.54ZM50 25.05c-.73.51-3.07 1.17-4.92 1.4-1.1.12-4.86.33-8.34.46-10.4.39-15.15 1.08-18.16 2.66-2.25 1.17-2.7 2.66-1.4 4.61.6.9 2.75 2.82 3.16 2.82.62 0 .51-.44-.3-1.24-1.6-1.57-1.93-2.62-1.11-3.63 1.35-1.66 5.51-2.43 16.58-3.04 8.54-.47 12.7-.9 14.5-1.49 1.63-.54 2.44-1.6 1.73-2.27-.39-.36-1.39-.53-1.74-.28Z" fill="#1DB442" /></svg>