<?xml version='1.0' encoding='utf-8'?>
<!-- by TradeStack -->
<svg width="56" height="56" viewBox="0 0 56 56" xmlns="http://www.w3.org/2000/svg"><path fill="#F0F3FA" d="M0 0h56v56H0z" /><path d="M8 32H9.4l-1.66-4 1.66-4H8l-1.66 4L8 32Zm-3 0h1.29v-8H5v8ZM15.44 24l-1.77 4.65V32H12.5v-3.35L10.72 24h1.33l1.03 3.06L14.11 24h1.33ZM33 24h1.29v8H33zM37 24h-1.5v.9H37V32h1.3v-7.1h1.49V24H37ZM26.72 24v8h1.24v-3.46h.11L30.23 32h1.43l-2.19-3.51a2.3 2.3 0 0 0 1.88-2.22A2.33 2.33 0 0 0 28.97 24h-2.25Zm1.24 1.23h.92c.62 0 1.13.48 1.13 1.07 0 .6-.5 1.07-1.13 1.07h-.92v-2.14ZM40.5 30.04v-.45h1.25v.54c0 .46.41.83.92.83.5 0 .91-.37.91-.83v-.47c0-.3-.18-.59-.47-.74l-1.53-.79a1.91 1.91 0 0 1-1.08-1.68v-.5c0-1.07.96-1.95 2.14-1.95 1.18 0 2.14.88 2.14 1.96v.43h-1.2v-.43c0-.46-.4-.84-.91-.84-.5 0-.92.38-.92.84v.43c0 .3.17.56.45.7l1.51.8c.66.35 1.07.99 1.07 1.68v.47c0 1.08-.96 1.96-2.14 1.96-1.18 0-2.14-.88-2.14-1.96ZM46 29.78V24h1.2v5.75c0 .65.58 1.17 1.28 1.17.7 0 1.27-.52 1.27-1.17V24H51v5.78C51 31 49.92 32 48.59 32h-.18C47.08 32 46 31 46 29.78Z" fill="#025ABB" /><path d="M23.07 32.5a4.82 4.82 0 1 0-4.8 0 15.44 15.44 0 0 1 4.8 0Z" fill="url(#a)" /><defs><linearGradient id="a" x1="20.67" y1="23.5" x2="20.67" y2="32.5" gradientUnits="userSpaceOnUse"><stop offset=".11" stop-color="#F13782" /><stop offset="1" stop-color="#F4C0CC" /></linearGradient></defs></svg>