<?xml version='1.0' encoding='utf-8'?>
<!-- by TradeStack -->
<svg width="56" height="56" viewBox="0 0 56 56" xmlns="http://www.w3.org/2000/svg"><path fill="#F0F3FA" d="M0 0h56v56H0z" /><path d="m23.42 25.96 7.21-7.8s.28-.17.57-.16l2.05.02-6.87 7.5s-.34.37-.66.44c-.4.09-2.3 0-2.3 0Z" fill="#E22E7F" /><path d="M51 27.92c-.01-.19-.05-2.47-.15-2.8-.13-.4-.32-.87-.76-1.27a2.9 2.9 0 0 0-1.36-.7c-.82-.14-3-.15-3-.15s-2.68 0-3.2.16c-.51.17-.88.4-1.2.67-.31.25-.63.8-.7 1.14-.11.4-.17 2.27-.18 2.5-.02.53.07 3.02.14 3.36.13.56.44 1.04.84 1.38.24.22.86.64 1.64.7.47.03 2.53.09 2.8.09.4 0 2.81-.05 3.35-.28.43-.2.96-.53 1.22-.93.13-.21.44-.84.48-1.18.03-.28.1-2.49.08-2.69Zm-2 .01-.02 1.82c-.01.39-.09.92-.64 1.12-.38.14-2.2.13-2.57.13-.37 0-1.6 0-2-.03-.55-.06-1.07-.11-1.25-.95-.05-.27-.1-1.87-.1-2.3.02-.41 0-1.62.09-1.87.13-.4.31-.7.94-.77a47.38 47.38 0 0 1 4.51-.04c.23.04.71.2.86.58.21.52.2 2.06.18 2.31ZM40 23v2h-6.45c-.28 0-.48.43-.55.64V27h7v2h-7v1.38c.05.29.3.58.6.62H40v1.99s-6.5.03-6.77 0a2.24 2.24 0 0 1-1.53-.84c-.38-.44-.49-.65-.6-1.77-.05-.42-.11-2.24-.1-2.61.01-.27.06-2.48.15-2.95.08-.43.43-.96.65-1.15.25-.2.91-.66 1.32-.67H40ZM15.77 23h4.36s.2 0 .47.1c.15.06.39.16.49.25.3.25 3.04 3.22 3.04 3.22s.23.25.6.34c.38.08 1.1.06 1.22.07.12.01.5.11.67.25.16.14 5.44 5.77 5.44 5.77h-4.04c-.2 0-.45.03-.76-.09-.26-.09-.6-.32-.8-.51-.18-.17-2.7-2.88-2.7-2.88s-2.34 2.74-2.5 2.95c-.13.14-.17.25-.4.37-.2.1-.4.11-.6.16h-4.44l4.6-5.05L15.77 23Z" fill="#2419AC" /><path d="M16 23v2.69s-6.44-.03-6.69 0c-.24.02-.59.03-.74.3-.18.3-.1.51-.1.51l7.23-.02v2.97H8.45s0 .44.23.61c.28.2.47.17.47.17h6.84L16 33H7.46s-1.17-.1-1.76-.8c-.61-.72-.6-1.01-.68-2.14-.03-.44-.02-3.99-.02-4.13 0-.14-.06-1.28.58-2.03A2.62 2.62 0 0 1 7.31 23H16Z" fill="#2419AC" /></svg>