<?xml version='1.0' encoding='utf-8'?>
<!-- by TradeStack -->
<svg width="56" height="56" viewBox="0 0 56 56" xmlns="http://www.w3.org/2000/svg"><path fill="#F0F3FA" d="M0 0h56v56H0z" /><path fill-rule="evenodd" d="M28 43.5a15.5 15.5 0 1 0 0-31 15.5 15.5 0 0 0 0 31zm0 1.5a17 17 0 1 0 0-34 17 17 0 0 0 0 34zm0-2.5a14.5 14.5 0 1 0 0-29 14.5 14.5 0 0 0 0 29zm0 .5a15 15 0 1 0 0-30 15 15 0 0 0 0 30zm0-26.25a.5.5 0 0 0-.5.5v2a.5.5 0 0 0 1 0v-2a.5.5 0 0 0-.5-.5zM20.78 20a.5.5 0 0 1 0-1h5.16a.5.5 0 1 1 0 1h-4.3c.38.12.72.4.88.87l2.2 6.33c.27.8-.21 1.62-.98 1.8h8.49c-.77-.18-1.24-1-.97-1.78l2.19-6.36c.16-.46.5-.74.88-.86h-4.28a.5.5 0 0 1 0-1h5.16a.5.5 0 0 1 0 1h-.05c.39.12.73.4.89.86l2.19 6.36c.27.78-.2 1.6-.97 1.78h.54a.5.5 0 0 1 0 1H18.16a.5.5 0 0 1 0-1h.54c-.76-.18-1.24-1-.97-1.8l2.2-6.33c.16-.46.5-.75.88-.87h-.03zm6.72 1.11a.5.5 0 0 1 1 0v6.7a.5.5 0 0 1-.04.2h.94c.13-.02.45.06.6.44.17.42.32.46.54.53l.08.02H25.2c.22 0 .56-.01.75-.46.24-.53.55-.54.7-.54h.9a.5.5 0 0 1-.04-.18V21.1zm-7.2-.04a.98.98 0 0 1 1.86 0L24.13 27h-5.75l1.92-5.93zm15.38-.01a.98.98 0 0 0-1.86 0L31.88 27h5.77l-1.97-5.94zM18.4 31H17v4h1.4v-1.33h2.2l.95 1.33h1.38l-1.23-1.63c1.14-.11 1.3-.76 1.3-1.16-.02-1.08-1.14-1.2-1.95-1.2H18.4V31zm0 .65V33h2.51a.67.67 0 1 0 0-1.35H18.4zM23.82 33c0-1.1.9-2 2-2H28a2 2 0 0 1 0 4h-2.18a2 2 0 0 1-2-2zm1.38 0c0-.75.61-1.35 1.36-1.35h.7a1.35 1.35 0 0 1 0 2.7h-.7c-.75 0-1.36-.6-1.36-1.35zm12.41-2H39v4h-1.39v-4zm-7.36 0h1.4l1.98 3.4 1.98-3.4h1.4l-2.33 4H32.58l-2.33-4z" fill="#028B57" /></svg>