<?xml version='1.0' encoding='utf-8'?>
<!-- by TradeStack -->
<svg width="56" height="56" viewBox="0 0 56 56" fill="none" xmlns="http://www.w3.org/2000/svg">
<rect width="56" height="56" fill="#F0F3FA" />
<path d="M35.9107 43.4804L35.7279 46.8645C35.727 46.8928 35.7175 46.92 35.7006 46.9427C35.6838 46.9654 35.6603 46.9825 35.6333 46.9919C35.6063 47.0013 35.5768 47.0025 35.5488 46.9955C35.5207 46.9884 35.4952 46.9733 35.4756 46.9521C30.2448 41.2134 24.8482 35.6425 19.2858 30.2397C17.2931 28.3048 16.1634 25.4172 16.0171 22.5917C15.6405 15.2978 21.5271 9.42762 28.9602 10.0446C36.1849 10.6433 41.1903 17.1632 39.7534 24.3074C38.8979 28.564 35.6877 31.364 32.6567 34.2371C32.6166 34.2752 32.5632 34.2961 32.5078 34.2954C32.4525 34.2947 32.3996 34.2725 32.3605 34.2334L28.9858 30.8639C28.954 30.8324 28.9287 30.7948 28.9115 30.7535C28.8942 30.7121 28.8853 30.6678 28.8853 30.623C28.8853 30.5782 28.8942 30.5338 28.9115 30.4925C28.9287 30.4511 28.954 30.4136 28.9858 30.382C32.7225 26.6584 37.8193 22.975 35.2599 16.8566C34.6554 15.4061 33.6731 14.2549 32.313 13.4031C25.538 9.17207 17.4357 16.1666 20.8178 23.5335C21.2004 24.3683 22.045 25.4245 23.3515 26.7022C28.8188 32.054 34.1764 37.5603 39.4244 43.2212C39.595 43.4037 39.5548 43.4865 39.3037 43.4694L36.1849 43.2431C36.0119 43.2285 35.9205 43.3076 35.9107 43.4804Z" fill="#BA9BC9" />
<path fill-rule="evenodd" clip-rule="evenodd" d="M30.6018 15.1992C25.3697 13.6769 21.4503 18.5102 23.5307 23.4605C23.5916 23.604 23.5502 23.7038 23.4063 23.7598L22.3095 24.1942C22.2004 24.2372 22.0791 24.2373 21.9699 24.1947C21.8607 24.152 21.7717 24.0697 21.7208 23.9642C18.485 17.269 24.3826 10.8075 31.1649 13.7791C31.3136 13.8423 31.3599 13.9494 31.3038 14.1003L30.9638 15.0166C30.9004 15.1894 30.7798 15.2503 30.6018 15.1992ZM22.0462 17.8385H22.3826C22.697 17.8385 22.697 17.7655 22.3826 17.6195C21.6477 17.28 22.8652 16.3089 23.1248 16.1155C23.1784 16.0789 23.2053 16.0278 23.2053 15.9621V15.8636C23.2053 15.7735 23.2406 15.7005 23.3113 15.6445C25.4904 13.8776 27.9255 13.2169 30.5689 14.334L30.5724 14.3353C30.6391 14.3613 30.7639 14.4097 30.8322 14.3595C30.9443 14.2743 30.937 14.2001 30.8102 14.1368C26.9639 12.202 22.6824 14.5749 21.2894 18.3861C21.1875 18.6615 21.2285 19.0119 21.2694 19.3617C21.299 19.6146 21.3286 19.8673 21.304 20.091C21.2419 20.6641 21.3259 23.4933 22.1888 23.6941C22.3838 23.7403 22.4338 23.6758 22.3387 23.5006C21.9048 22.6853 21.6745 21.8153 21.6477 20.8904C21.6428 20.7639 21.6757 20.6495 21.7464 20.5473C21.8805 20.3477 21.8744 20.181 21.7281 20.0471C21.6233 19.9522 21.5794 19.8354 21.5965 19.6967L21.7683 18.0868C21.7854 17.9213 21.878 17.8385 22.0462 17.8385ZM28.2618 19.2733C27.732 20.5267 28.7528 21.5082 29.7821 22.4979C30.4647 23.1542 31.151 23.8141 31.3916 24.5593C31.433 24.6835 31.3891 24.7528 31.2599 24.7674C29.0552 25.0303 24.4191 25.3187 23.6074 22.6099C23.0663 20.8041 23.3149 19.137 24.3533 17.6086C25.7975 15.473 29.3404 14.3486 31.3952 16.3309C31.7145 16.6375 31.9729 17.162 32.1704 17.9043C32.4001 18.7604 32.7944 19.3982 33.1725 20.0097C33.4683 20.4883 33.7542 20.9507 33.9436 21.4892C33.9997 21.6498 33.9546 21.7739 33.8083 21.8616L32.6384 22.5588C32.4677 22.661 32.3422 22.6209 32.2618 22.4383L31.9217 21.6754C31.8657 21.5512 31.7755 21.4636 31.6512 21.4125L28.9455 20.31C28.8334 20.2662 28.7627 20.1847 28.7335 20.0655L28.558 19.2988C28.4849 18.9849 28.3861 18.9764 28.2618 19.2733ZM24.2729 21.2373C24.2363 18.9301 25.2662 17.3299 27.3624 16.4368C27.4233 16.41 27.4416 16.3662 27.4172 16.3053C27.4051 16.2737 27.3929 16.236 27.3807 16.1922C27.3514 16.0948 27.2893 16.0656 27.1942 16.1046C24.9566 17.0026 23.0407 19.8318 24.1157 22.3179C24.1888 22.4907 24.2314 22.4834 24.2436 22.296C24.268 21.9382 24.2777 21.5853 24.2729 21.2373ZM31.4006 18.4406C31.4477 18.3816 31.4385 18.2816 31.3749 18.1625C31.3112 18.0435 31.1984 17.9152 31.0613 17.8059C30.9933 17.7517 30.9215 17.7039 30.8498 17.6651C30.7781 17.6262 30.708 17.5972 30.6434 17.5796C30.5789 17.562 30.5212 17.5561 30.4736 17.5624C30.426 17.5687 30.3895 17.587 30.3661 17.6162C30.319 17.6752 30.3282 17.7753 30.3918 17.8943C30.4555 18.0133 30.5683 18.1416 30.7054 18.251C30.7734 18.3051 30.8452 18.353 30.9169 18.3918C30.9886 18.4306 31.0587 18.4597 31.1233 18.4773C31.1878 18.4949 31.2455 18.5007 31.2931 18.4944C31.3407 18.4882 31.3772 18.4699 31.4006 18.4406ZM24.7116 24.8403C24.6921 25.0301 24.6129 25.1578 24.474 25.2235C24.084 25.4084 24.0194 25.3123 24.2802 24.9352C24.3314 24.8622 24.4033 24.8099 24.4959 24.7782C25.2345 24.5179 25.1991 24.4242 24.3899 24.4972C24.0511 24.5264 23.8 24.7478 23.6367 25.1615C23.5855 25.2904 23.6087 25.4036 23.7062 25.5009L27.7902 29.5779C27.8901 29.6801 27.9925 29.6825 28.0973 29.5852L32.0643 25.8623C32.1359 25.7955 32.184 25.7078 32.2018 25.6118C32.2197 25.5159 32.2062 25.4166 32.1635 25.3285C32.1207 25.2403 32.0509 25.1677 31.9641 25.1213C31.8772 25.0749 31.7779 25.057 31.6804 25.0702C29.4038 25.3939 27.1528 25.2673 24.9274 24.6906C24.7957 24.6566 24.7238 24.7064 24.7116 24.8403ZM31.238 25.6615C31.2917 25.3744 31.4355 25.3488 31.6695 25.5849C31.6908 25.6061 31.7038 25.6346 31.706 25.6652C31.728 25.8586 31.3294 25.9973 31.2417 25.7491C31.2321 25.7205 31.2309 25.6901 31.238 25.6615ZM26.358 25.5938C26.3908 25.6392 26.4018 25.6914 26.3885 25.7389C26.3752 25.7865 26.3387 25.8254 26.2871 25.8473C26.2354 25.8691 26.1728 25.872 26.113 25.8554C26.0533 25.8387 26.0012 25.8039 25.9684 25.7585C25.9355 25.7131 25.9245 25.6608 25.9378 25.6133C25.9511 25.5658 25.9876 25.5268 26.0393 25.5049C26.0909 25.4831 26.1535 25.4802 26.2133 25.4968C26.2731 25.5135 26.3251 25.5484 26.358 25.5938ZM29.9757 26.0284C29.9651 26.0567 29.9488 26.0821 29.9277 26.103C29.885 26.1453 29.8254 26.167 29.7619 26.1634C29.6984 26.1598 29.6362 26.1312 29.5891 26.0838C29.5658 26.0603 29.5468 26.0329 29.5333 26.0032C29.5198 25.9736 29.5121 25.9421 29.5105 25.9107C29.5089 25.8793 29.5136 25.8486 29.5241 25.8202C29.5347 25.7919 29.551 25.7665 29.5722 25.7456C29.6148 25.7033 29.6745 25.6816 29.738 25.6852C29.8015 25.6888 29.8636 25.7175 29.9108 25.7648C29.9341 25.7883 29.9531 25.8157 29.9666 25.8454C29.9801 25.8751 29.9878 25.9065 29.9894 25.9379C29.9909 25.9693 29.9863 26.0001 29.9757 26.0284ZM27.9517 26.2345C27.8912 26.2491 27.8312 26.2384 27.7849 26.2049C27.7619 26.1884 27.743 26.1667 27.7292 26.1411C27.7155 26.1155 27.7071 26.0866 27.7046 26.0559C27.7021 26.0252 27.7056 25.9934 27.7147 25.9623C27.7239 25.9312 27.7386 25.9015 27.7581 25.8747C27.7973 25.8206 27.8533 25.782 27.9138 25.7674C27.9744 25.7528 28.0344 25.7635 28.0807 25.797C28.1037 25.8135 28.1226 25.8352 28.1363 25.8608C28.1501 25.8864 28.1585 25.9153 28.1609 25.946C28.1634 25.9767 28.16 26.0085 28.1508 26.0396C28.1417 26.0707 28.1269 26.1005 28.1075 26.1272C28.0683 26.1813 28.0122 26.2199 27.9517 26.2345Z" fill="#32385A" />
<path d="M16.2215 42.5714L23.3585 35.8871C23.37 35.876 23.3836 35.8673 23.3984 35.8614C23.4133 35.8556 23.4292 35.8527 23.4452 35.8531C23.4612 35.8534 23.477 35.8569 23.4916 35.8634C23.5062 35.8699 23.5194 35.8792 23.5304 35.8908L27.1062 39.5341C27.1173 39.5455 27.1261 39.5591 27.1319 39.5739C27.1378 39.5888 27.1406 39.6047 27.1403 39.6206C27.14 39.6366 27.1365 39.6523 27.13 39.6669C27.1235 39.6815 27.1142 39.6947 27.1025 39.7057L20.0058 46.2256C19.9883 46.2412 19.9667 46.2514 19.9435 46.2549C19.9204 46.2585 19.8967 46.2552 19.8754 46.2455C19.8541 46.2358 19.836 46.2202 19.8235 46.2004C19.8109 46.1807 19.8044 46.1577 19.8047 46.1344L19.8741 42.8123C19.8746 42.7959 19.8718 42.7795 19.8657 42.7642C19.8596 42.7489 19.8505 42.735 19.8389 42.7234C19.8272 42.7118 19.8133 42.7027 19.798 42.6966C19.7827 42.6906 19.7663 42.6877 19.7498 42.6882L16.3093 42.7795C16.2847 42.7805 16.2604 42.774 16.2396 42.7608C16.2188 42.7477 16.2026 42.7285 16.193 42.7058C16.1835 42.6832 16.1811 42.6582 16.1862 42.6342C16.1913 42.6101 16.2036 42.5882 16.2215 42.5714Z" fill="url(#paint0_linear_229_9808)" />
<path fill-rule="evenodd" clip-rule="evenodd" d="M38.7114 27.2486C37.4213 29.7438 35.3152 31.7297 33.2199 33.7055C33.032 33.8826 32.8442 34.0597 32.6571 34.2371C32.617 34.2752 32.5636 34.2962 32.5083 34.2955C32.4529 34.2948 32.4001 34.2725 32.3609 34.2335L28.9862 30.864C28.9544 30.8324 28.9291 30.7949 28.9119 30.7535C28.8946 30.7122 28.8857 30.6678 28.8857 30.623C28.8857 30.5782 28.8946 30.5339 28.9119 30.4925C28.9291 30.4512 28.9544 30.4137 28.9862 30.3821C29.4374 29.9325 29.9085 29.4834 30.3835 29.0306C32.0392 27.4521 33.7431 25.8279 34.8226 23.9731C36.1183 25.0436 37.5675 26.2566 38.7114 27.2486Z" fill="url(#paint1_linear_229_9808)" />
<defs>
<linearGradient id="paint0_linear_229_9808" x1="18.0996" y1="44.9702" x2="25.2111" y2="38.7224" gradientUnits="userSpaceOnUse">
<stop stop-color="#BA9BC9" />
<stop offset="1" stop-color="#8B5FA8" />
</linearGradient>
<linearGradient id="paint1_linear_229_9808" x1="36.1819" y1="25.7202" x2="30.3523" y2="31.9182" gradientUnits="userSpaceOnUse">
<stop stop-color="#BA9BC9" />
<stop offset="1" stop-color="#8B5FA8" />
</linearGradient>
</defs>
</svg>