<?xml version='1.0' encoding='utf-8'?>
<!-- by TradeStack -->
<svg width="56" height="56" viewBox="0 0 56 56" xmlns="http://www.w3.org/2000/svg"><path fill="#F0F3FA" d="M0 0h56v56H0z" /><path d="M5.03 29.04c-.7 5.37 13.18 8.21 20.2 8.96l2.27-6.9c-12.54 1.66-15.97-1.37-16.12-3.1.42-5.39 20.1-10.91 29.88-13-14.9 2.07-35.36 7.32-36.23 14.04Z" fill="url(#ablx5wbta)" /><ellipse cx="30.08" cy="35.98" rx="6.08" ry="6.02" fill="#3165A2" /><ellipse cx="29.98" cy="35.44" rx="5.05" ry="3.81" fill="url(#bblx5wbta)" /><path d="M28.21 40.1c-.11.6.2 1.23.37 1.46.42.36 2.09-.62 2.87-1.16.2-.46.8-1.26.79-1.59-.02-.33-1.25-.31-1.7-.35-.37-.02-.15-.3 0-.45-.2-.41-1.02-.48-1.5-.84-.4-.3-1.23-.25-1.6-.2l-.65-.17c.03-.36-.02-1.1-.45-1.16-.54-.07-.46-.52-.25-1.12.17-.49.83-.09 1.14.17l.56-.64.88-.85c.04-.18.2-.54.56-.59.43-.05.54-.45.15-.83-.3-.3-.7-.12-.85 0-.21.08-.67.13-.83-.27-.15-.4.66-.34 1.09-.26.16.08.55.2.86 0 .38-.26-.55-.42-.27-.73.23-.25.58.32.72.64l.63.35.53-.68-.53-.62c-.93-.2-2.26.19-2.66.31-.4.12-1.49.59-1.73.99-.25.4-1.24 1.62-1.16 2.1a4.6 4.6 0 0 1-.19 1.51l.9 1c.2.23.64.72.7.86.06.17.71.26.64.55-.07.3-.33.55-.24 1.16.08.6 1.22 1.3 1.22 1.4Z" fill="url(#cblx5wbta)" /><path d="M34.88 32.61a5.55 5.55 0 0 0-2.54-2.09c0 .33.8.8 1.2.99v.86c.03.08.1.36.2.83.12.6.33-.38.63-.59.3-.2.12.68 0 .9-.12.23-.2.54-.3 1v.02c-.1.46-.22 1 0 1.75.23.77.55.52 1.21.32.53-.17.62.3.6.57a6 6 0 0 0-.37-3.66l-.63-.46c-.15-.13-.06-.34 0-.44Z" fill="#97A2AD" /><path d="M49 25h-1.61L45 21.74l-.55.03v2.1c0 .18.01.33.03.44.02.12.07.22.13.3.06.06.15.1.27.14l.47.06V25h-2.77v-.2c.18-.01.33-.04.44-.07.12-.03.2-.08.27-.16.06-.07.1-.17.11-.3.02-.14.03-.32.03-.54v-4.57c0-.19-.01-.34-.03-.45a.54.54 0 0 0-.11-.27.5.5 0 0 0-.27-.15 2.75 2.75 0 0 0-.44-.08V18h2.76c.49 0 .93.07 1.31.21.4.14.68.32.87.56.12.14.21.3.27.5a2 2 0 0 1 .09.6c0 .48-.14.86-.43 1.14-.28.28-.74.48-1.38.62l2.06 2.68c.14.18.27.3.4.37.13.06.28.1.47.13V25Zm-4.55-3.62a13.28 13.28 0 0 0 1.06-.08 2.66 2.66 0 0 0 .71-.28c.18-.1.32-.26.42-.46.1-.21.15-.45.15-.72 0-.5-.15-.86-.45-1.09-.29-.23-.75-.35-1.4-.35-.2 0-.33.03-.4.08-.06.05-.09.15-.09.3v2.6Z" fill="url(#dblx5wbta)" /><path d="M42.51 25h-5.35v-.2c.18 0 .33-.03.44-.06a.5.5 0 0 0 .26-.15c.06-.07.1-.16.13-.28.02-.11.01-.26.01-.45v-4.7c0-.19.01-.34-.01-.46a.5.5 0 0 0-.12-.27.55.55 0 0 0-.27-.15 2.22 2.22 0 0 0-.44-.07V18h5.27l.01 1.52h-.23c-.05-.24-.1-.43-.16-.58a.75.75 0 0 0-.25-.34.89.89 0 0 0-.42-.16c-.18-.02-.4-.03-.68-.03h-1.34c-.13 0-.22.02-.27.06-.04.05-.09.14-.09.3v2.34h1.55c.2 0 .37-.01.5-.04a.62.62 0 0 0 .3-.13.68.68 0 0 0 .18-.31c.04-.13.08-.3.12-.52h.23v2.45h-.23c-.04-.22-.08-.4-.12-.52a.65.65 0 0 0-.17-.3.58.58 0 0 0-.3-.16c-.13-.02-.3-.03-.5-.03H39v2.6c0 .11.04.19.05.24a.2.2 0 0 0 .06.11c.05.03.16.06.33.08.18.02.39.03.63.03h.28c.35 0 .65-.02.89-.05.24-.04.45-.11.61-.22.18-.1.33-.24.46-.42.12-.18.25-.42.37-.7h.29L42.5 25Z" fill="url(#eblx5wbta)" /><path d="M36.4 20.29a4.53 4.53 0 0 0-.28-.76 2.48 2.48 0 0 0-.38-.5 2.04 2.04 0 0 0-1.49-.62c-.36-.01-.7.06-.99.2-.3.15-.54.35-.75.62-.2.26-.37.58-.48.95-.1.37-.16.79-.16 1.24 0 .6.08 1.12.23 1.56.16.45.39.8.68 1.04.44.36.96.54 1.57.54.41 0 .8-.08 1.15-.24a4 4 0 0 0 1.08-.79l.18.18c-.3.4-.7.73-1.17.95-.47.23-.99.34-1.56.34-.5 0-.95-.08-1.36-.25a3.09 3.09 0 0 1-1.73-1.78 3.98 3.98 0 0 1-.24-1.4c0-.59.1-1.12.3-1.59.2-.47.49-.87.88-1.19a3.44 3.44 0 0 1 2.17-.79c.5 0 .99.08 1.47.25.17.06.3.09.4.09.1 0 .18-.03.25-.1a.46.46 0 0 0 .16-.24h.2l.1 2.29h-.22Z" fill="url(#fblx5wbta)" /><path d="m29.69 25-4.7-5.72v4.07c0 .27.02.49.04.66.03.16.08.3.16.39.07.1.17.17.3.2.14.05.3.08.5.09V25h-2.48v-.3c.21-.03.39-.05.52-.1a.56.56 0 0 0 .3-.2c.08-.1.13-.23.15-.4.03-.16.04-.38.04-.65v-4.57a5.1 5.1 0 0 0-.27-.29.8.8 0 0 0-.22-.17.66.66 0 0 0-.24-.08 1.32 1.32 0 0 0-.28-.03V18h1.8l4.09 5.03v-3.5c0-.63-.1-1.02-.3-1.17a.8.8 0 0 0-.28-.1 2.5 2.5 0 0 0-.44-.05V18h2.49v.2c-.2.02-.35.04-.45.07a.89.89 0 0 0-.24.12c-.21.13-.32.51-.32 1.14V25h-.17Z" fill="url(#gblx5wbta)" /><path d="M24.16 25h-2.7v-.2h.23a2.37 2.37 0 0 0 .26-.04.65.65 0 0 0 .09-.04.31.31 0 0 0 .11-.11c.03-.05.05-.1.05-.15 0-.17-.07-.4-.2-.7l-.45-1h-2.77l-.5 1.21-.06.21a1.1 1.1 0 0 0-.02.2c0 .14.06.25.17.32.11.07.3.1.56.1v.2h-2.11v-.2c.13 0 .24-.02.33-.05.1-.04.19-.12.28-.23a3 3 0 0 0 .3-.51l.42-.91 2.2-5.1h.2l2.65 5.9.22.46c.07.12.14.2.2.28.08.06.15.1.23.12.09.03.2.04.3.05V25Zm-2.75-2.66-1.23-2.87-1.23 2.87h2.46Z" fill="url(#hblx5wbta)" /><path d="M17.27 23.17 16.75 25h-5.7v-.2c.2 0 .35-.03.47-.06a.54.54 0 0 0 .28-.15.54.54 0 0 0 .14-.28c.02-.11.06-.26.06-.45v-4.7c0-.19-.04-.34-.06-.46a.49.49 0 0 0-.13-.27.6.6 0 0 0-.29-.15 2.53 2.53 0 0 0-.46-.07V18h2.98v.21c-.21.02-.38.04-.51.07a.52.52 0 0 0-.3.15c-.16.16-.23.51-.23.73v5c0 .5.65.43.97.43h.71c.45 0 .83-.05 1.13-.15.3-.11.55-.27.74-.49a7.68 7.68 0 0 0 .46-.79h.26Z" fill="url(#iblx5wbta)" /><defs><linearGradient id="ablx5wbta" x1="5.55" y1="28.09" x2="28.42" y2="34.95" gradientUnits="userSpaceOnUse"><stop offset=".15" stop-color="#71A0CE" /><stop offset="1" stop-color="#DDE9F3" /></linearGradient><linearGradient id="bblx5wbta" x1="29.98" y1="31.63" x2="29.98" y2="36.5" gradientUnits="userSpaceOnUse"><stop stop-color="#CCDEF2" /><stop offset="1" stop-color="#3165A2" /></linearGradient><linearGradient id="cblx5wbta" x1="24.99" y1="34.7" x2="34.99" y2="32.43" gradientUnits="userSpaceOnUse"><stop offset=".14" stop-color="#97A3AD" /><stop offset=".44" stop-color="#F8F8F8" /><stop offset=".75" stop-color="#97A2AD" /></linearGradient><linearGradient id="dblx5wbta" x1="45.6" y1="18.35" x2="46.97" y2="24.28" gradientUnits="userSpaceOnUse"><stop stop-color="#1C1E48" /><stop offset=".52" stop-color="#599DD3" /><stop offset="1" stop-color="#181A44" /></linearGradient><linearGradient id="eblx5wbta" x1="39.9" y1="18.35" x2="41.4" y2="24.21" gradientUnits="userSpaceOnUse"><stop stop-color="#1C1E48" /><stop offset=".52" stop-color="#599DD3" /><stop offset="1" stop-color="#181A44" /></linearGradient><linearGradient id="fblx5wbta" x1="33.55" y1="18.35" x2="35" y2="24.24" gradientUnits="userSpaceOnUse"><stop stop-color="#1C1E48" /><stop offset=".52" stop-color="#599DD3" /><stop offset="1" stop-color="#181A44" /></linearGradient><linearGradient id="gblx5wbta" x1="26.97" y1="18.35" x2="28.18" y2="24.35" gradientUnits="userSpaceOnUse"><stop stop-color="#1C1E48" /><stop offset=".52" stop-color="#599DD3" /><stop offset="1" stop-color="#181A44" /></linearGradient><linearGradient id="hblx5wbta" x1="20.27" y1="18.35" x2="21.49" y2="24.35" gradientUnits="userSpaceOnUse"><stop stop-color="#1C1E48" /><stop offset=".52" stop-color="#599DD3" /><stop offset="1" stop-color="#181A44" /></linearGradient><linearGradient id="iblx5wbta" x1="13.98" y1="18.35" x2="15.4" y2="24.26" gradientUnits="userSpaceOnUse"><stop stop-color="#1C1E48" /><stop offset=".52" stop-color="#599DD3" /><stop offset="1" stop-color="#181A44" /></linearGradient></defs></svg>