<!-- by TradeStack --><svg width="56" height="56" viewBox="0 0 56 56" xmlns="http://www.w3.org/2000/svg"><path fill="#F0F3FA" d="M0 0h56v56H0z"/><ellipse cx="13.5" cy="19" rx="1.5" ry="1" fill="#72A8B4"/><ellipse cx="17" cy="21" rx="2" ry="1" fill="#59A9BB"/><ellipse cx="21.5" cy="22.5" rx="2.5" ry="1.5" fill="#41ACC3"/><ellipse cx="2" cy="1.5" rx="2" ry="1.5" transform="matrix(1 0 0 -1 9 34)" fill="#72A8B4"/><ellipse cx="2.5" cy="2" rx="2.5" ry="2" transform="matrix(1 0 0 -1 13 32)" fill="#59A9BB"/><ellipse cx="3" cy="1.5" rx="3" ry="1.5" transform="matrix(1 0 0 -1 18 29)" fill="#41ACC3"/><ellipse cx="1.5" cy="1" rx="1.5" ry="1" transform="matrix(-1 0 0 1 45 18)" fill="#72A8B4"/><ellipse cx="2" cy="1" rx="2" ry="1" transform="matrix(-1 0 0 1 42 20)" fill="#59A9BB"/><ellipse cx="2.5" cy="1.5" rx="2.5" ry="1.5" transform="matrix(-1 0 0 1 37 21)" fill="#41ACC3"/><ellipse cx="45" cy="32.5" rx="2" ry="1.5" fill="#72A8B4"/><ellipse cx="40.5" cy="30" rx="2.5" ry="2" fill="#59A9BB"/><ellipse cx="35" cy="27.5" rx="3" ry="1.5" fill="#41ACC3"/><path d="M26 25.5h-2l4-2.5 4 2.5h-2V32h-4v-6.5Z" fill="#00B2D9"/><ellipse cx="28" cy="36" rx="4" ry="2" fill="#59A9BB"/><path d="M30.5 41c0 1.1-1.12 2-2.5 2s-2.5-.9-2.5-2 1.12-2 2.5-2 2.5.9 2.5 2Z" fill="#72A8B4"/><path d="M30.5 20.5c0 .83-1.12 1.5-2.5 1.5s-2.5-.67-2.5-1.5S26.62 19 28 19s2.5.67 2.5 1.5Z" fill="#41ACC3"/><path d="M30 16.5c0 .83-.9 1.5-2 1.5s-2-.67-2-1.5.9-1.5 2-1.5 2 .67 2 1.5Z" fill="#50ABBF"/><path d="M29 13.5c0 .28-.45.5-1 .5s-1-.22-1-.5.45-.5 1-.5 1 .22 1 .5Z" fill="#70A7B3"/></svg>