<?xml version='1.0' encoding='utf-8'?>
<!-- by TradeStack -->
<svg width="56" height="56" viewBox="0 0 56 56" xmlns="http://www.w3.org/2000/svg"><path fill="#F0F3FA" d="M0 0h56v56H0z" /><path d="M40.77 18.14c-.43-.06-.7.02-.83.23a140.91 140.91 0 0 0-3.04 5.24.26.26 0 0 1-.24.15l-5.91-.02c-.2-.09-.2-.2 0-.31a.75.75 0 0 1 .25-.08l2.46-.42 1.97.27c.53.07.9-.05 1.11-.35a17.19 17.19 0 0 0 1.96-3.53c.07-.19.18-.35.33-.5.18-.16.35-.35.5-.55.1-.14.12-.3.06-.47a14.52 14.52 0 0 0-1.65-3.23l-.5-1a.54.54 0 0 0-.16-.18.18.18 0 0 0-.08-.03c-.15-.02-.18-.08-.1-.2l.08-.14c.08-.2.01-.3-.2-.3l-6.28-.03c-.1 0-.16.03-.2.11l-3.07 5.34a.23.23 0 0 0 0 .25l2.93 5.12c.04.07.04.15 0 .22a.98.98 0 0 0-.13.52.66.66 0 0 1-.24-.21c-.65-.95-1.24-1.9-1.75-2.85-.25-.47-.53-.94-.83-1.4-.29-.46-.54-.93-.76-1.42a.25.25 0 0 1 .02-.25c.09-.13.18-.34.27-.62.1-.28.2-.49.27-.63.47-.77.94-1.58 1.42-2.43l.46-.75c.33-.5.57-.9.7-1.2a.76.76 0 0 1 .73-.47l6.74-.02c.16 0 .29.07.36.21l3.35 5.93Z" fill="#D5D6D8" /><path d="M37.73 14.57c.15.29.03.46-.36.53-.26.04-.33.18-.2.41l.15.29c.53.99.8 1.72.8 2.18 0 1.06-.32 1.82-.94 2.27-.33.24-.63.5-.93.78a9.45 9.45 0 0 1-2.8 1.9l-2.45.42a.75.75 0 0 0-.25.08c-.2.12-.2.22 0 .3-.3.04-.53.2-.72.52 0-.18.04-.35.13-.52a.22.22 0 0 0 0-.22l-2.93-5.12a.23.23 0 0 1 0-.25l3.06-5.34a.22.22 0 0 1 .2-.11l6.29.04c.21 0 .28.1.2.29a.75.75 0 0 1-.08.14c-.08.12-.05.18.1.2.03 0 .06.01.08.03.07.05.12.1.15.18l.5 1ZM34.03 21l-4.22-2.43c-.2.36-.23.75-.08 1.18.16.42.46.76.9 1l1.09.64c.43.25.87.34 1.32.26a1.33 1.33 0 0 0 1-.65Z" fill="#AFB3B6" /><path d="M27.78 18.6a.47.47 0 0 1 .03-.45l2.74-4.7c.1-.19.27-.28.48-.29l3.06-.06c.43 0 .78.16 1.03.51l.2.26c.25.36.16.58-.28.65-.85.15-1.38.28-1.6.39l-.75.35c-1.04.48-1.76.88-2.16 1.2-.75.62-1.49 1.55-2.23 2.8-.1.17-.18.16-.26-.02l-.26-.64ZM37.73 14.57c.7 1.02 1.25 2.1 1.66 3.23.06.17.04.33-.07.47-.14.2-.3.39-.49.56-.15.14-.26.3-.33.49a17.18 17.18 0 0 1-1.96 3.53c-.2.3-.58.42-1.1.35l-1.98-.27c1-.43 1.92-1.07 2.8-1.9.29-.28.6-.54.92-.78.62-.45.93-1.2.94-2.27 0-.46-.27-1.19-.8-2.18l-.16-.29c-.12-.23-.05-.37.21-.41.39-.07.5-.24.37-.53Z" fill="#C0C5C8" /><path d="M35.8 17.6a6.02 6.02 0 0 1-2.15-1.26c-.08-.08-.07-.13.04-.16l.25-.08c.71-.23 1.2-.27 1.46-.12.22.12.44.27.66.43.57.43.87 1 .92 1.73 0 .1-.03.18-.12.24a.24.24 0 0 1-.27 0 1.45 1.45 0 0 1-.55-.58.42.42 0 0 0-.24-.2ZM36.79 19.08c.22.14.3.33.23.58a.32.32 0 0 1-.08.15c-.15.16-.33.19-.52.07l-4.66-2.75c-.18-.1-.17-.19.03-.25l.88-.3a.6.6 0 0 1 .6.1c.8.65 1.98 1.45 3.52 2.4ZM33 19.75l-.89-.52c-.85-.5-1.52-.85-1.99-1.03-.34-.12-.36-.3-.06-.5l.24-.17c.3-.22.63-.25.96-.08 1.03.52 2.51 1.43 4.46 2.73.18.12.17.23-.03.32l-.51.23a.54.54 0 0 1-.55-.03c-.53-.34-1.07-.65-1.62-.95Z" fill="#C0C5C8" /><path d="M40.76 18.14c.11.06.13.16.05.3a784.25 784.25 0 0 0-3.38 5.81.45.45 0 0 1-.43.24c-2.15-.05-4.43-.06-6.83 0-.1 0-.15-.08-.14-.24.19-.31.43-.48.72-.51l5.9.02c.12 0 .2-.05.25-.15.97-1.76 1.98-3.5 3.04-5.24.13-.21.4-.29.82-.23Z" fill="#69747A" /><path d="M25.98 18.4c-.27.03-.38.1-.33.22.05.39-.18.56-.69.51-1.83-.15-3.7-.22-5.59-.2-.29 0-.5.19-.65.57l-.14.3L16 24.25c-.16.28-.35.41-.55.4l-.17-.04c0-.05.04-.1.09-.13.06-.05.1-.12.1-.2.03-.31.14-.63.32-.94a83.2 83.2 0 0 1 2.54-4.07c.06-.1.1-.2.11-.32 0-.1.04-.19.1-.26a.28.28 0 0 1 .25-.12c2.34.09 4.56.02 6.64-.2.16-.03.35-.02.56.02Z" fill="#F3C1B2" /><path d="m25.98 18.4 3.4 5.92c-.39.34-.6.45-.66.33l-.95-1.73a39.54 39.54 0 0 0-2.01-3.27c-.1-.16-.14-.5-.1-1.03-.06-.11.05-.19.32-.22Z" fill="#AA6067" /><path d="M25.65 18.62c-.03.53 0 .87.1 1.03.73 1.06 1.4 2.15 2.02 3.27l.95 1.73a66.4 66.4 0 0 0-2.86 5.09c-.06.1-.1.22-.13.34-.02.09-.08.13-.17.14-1.91.07-3.88.08-5.9.05-.3 0-.55.05-.8.17-.14.07-.26.04-.33-.11a350.33 350.33 0 0 1-1.61-3.27c0-.02.02-.03.04-.04l.01-.01-1.53-2.35c.2.01.39-.12.55-.4.9-1.52 1.75-3 2.6-4.47l.13-.3c.15-.37.36-.56.65-.57 1.9-.01 3.76.06 5.59.21.5.05.74-.12.7-.5Z" fill="#EF3A41" /><path d="M34.03 20.99c-.2.36-.53.57-.98.65-.46.08-.9-.01-1.33-.26l-1.1-.63a1.93 1.93 0 0 1-.89-1.01c-.15-.43-.13-.82.08-1.17l4.22 2.42ZM31.7 21.95v.02c-.32.47-.74.53-1.25.2l-.06-.05c-.51-.34-.6-.74-.3-1.2l.01-.01h.01l1.58 1.04Z" fill="#C0C5C8" /><path d="M29.38 24.32c.16.26.2.44.13.55a501.44 501.44 0 0 0-3.51 6 .2.2 0 0 1-.2.12h-7.06a.2.2 0 0 1-.18-.11 193.81 193.81 0 0 1-3.53-6.01c-.08-.14 0-.22.24-.25l.17.04L16.97 27v.01c-.03.01-.04.02-.05.04-.01.03 0 .05 0 .07a350.3 350.3 0 0 0 1.6 3.2c.08.15.2.18.35.1.24-.11.5-.17.78-.16 2.03.03 4 .02 5.9-.05.1 0 .16-.05.18-.14.03-.12.07-.23.13-.34a66.41 66.41 0 0 1 2.86-5.09c.06.12.27.01.66-.33Z" fill="#872030" /><path d="M37.46 25.03c-.17.04-.32.24-.46.61 0 .02-.01.02-.03.02l-6.17-.03a.46.46 0 0 0-.42.24l-3.08 5.3c-.14.2-.37.2-.69-.03.21-.6.5-1.17.85-1.73.5-.78.83-1.33.99-1.64.46-.87.96-1.73 1.5-2.57.1-.16.25-.24.44-.24 2.18.03 4.42 0 6.72-.06.2 0 .31.04.35.13Z" fill="#F3C1B2" /><path d="m37.46 25.03 3.42 5.9-.82.45a.48.48 0 0 0-.19.19l-2.82 5.08a.2.2 0 0 1-.18.1l-6.2.02a.27.27 0 0 0-.22.1.55.55 0 0 1-.2.15c-.12.06-.2.02-.24-.1a1.1 1.1 0 0 1-.06-.4.35.35 0 0 0-.08-.22c-.23-.3-.4-.62-.54-.97-.07-.2-.2-.45-.4-.76l-.17-.34a2.37 2.37 0 0 0-.4-.67.4.4 0 0 1-.12-.21.61.61 0 0 0-.15-.3.4.4 0 0 0-.15-.1c-.05-.02-.06-.05-.05-.1a.17.17 0 0 0-.06-.17 1.7 1.7 0 0 1-.53-1.52l3.08-5.29c.1-.16.23-.24.42-.24l6.17.03c.01 0 .02 0 .03-.02.14-.37.29-.57.46-.6Z" fill="#EF3A41" /><path d="M40.88 30.93c.14.18.16.36.05.53l-3.43 5.85a.45.45 0 0 1-.43.24c-2.23-.06-4.5-.06-6.81 0a.28.28 0 0 1-.27-.14c-1.23-2.08-2.39-4.05-3.46-5.94-.06-.1-.03-.22.08-.32.32.21.55.22.7.01a1.7 1.7 0 0 0 .52 1.52c.05.04.07.1.06.17-.01.05 0 .08.05.1a.4.4 0 0 1 .15.1c.08.1.13.19.15.3a.4.4 0 0 0 .12.2c.12.13.25.35.4.68l.17.34c.2.31.33.56.4.76.13.35.31.67.54.97.05.07.08.14.08.23 0 .13.01.26.06.39.04.12.12.16.24.1a.56.56 0 0 0 .2-.15c.05-.07.13-.1.22-.1l6.2-.01a.2.2 0 0 0 .18-.11l2.82-5.08c.05-.08.11-.14.19-.19l.82-.45Z" fill="#872030" /><path d="M29.38 37.67c-.4 0-.65.08-.74.21a63.9 63.9 0 0 0-2.38 4.04c-.2-.44-.19-.83.02-1.19l1.8-3.13a.33.33 0 0 0 .04-.24c-.1-.52-.29-.98-.57-1.4l-2-3.55a.26.26 0 0 0-.19-.13 4.8 4.8 0 0 0-.94-.07c-1.71.04-3.37.03-4.98-.03a.59.59 0 0 0-.57.32l-3.04 5.23c-.05-.04-.08 0-.08.09 0 .05-.04.1-.08.13a.17.17 0 0 1-.1.02.18.18 0 0 1-.18-.12.64.64 0 0 0-.25-.32l3.29-5.71a.4.4 0 0 1 .35-.21c2.26-.03 4.55-.04 6.88 0 .28 0 .5.18.65.56.12.32.36.72.73 1.22.42.56 1.2 2 2.34 4.28Z" fill="#D5D6D8" /><path d="M27.55 35.96c-.11.68-.31 1.14-.61 1.4-.2.15-.47.42-.82.79-.53.55-.96.92-1.28 1.12a12.06 12.06 0 0 1-3.83 1.54c-.12.03-.15.1-.08.2l.88 1.42c.1.16.07.29-.1.38-.4.23-.78.18-1.14-.16l-.21-.21c-.6-.6-1.13-.86-1.6-.8-.14.02-.21.09-.22.21-.02.27-.11.3-.3.1-.24-.28-.43-.59-.58-.93-.13-.31-.28-.62-.47-.92a61.9 61.9 0 0 1-1.36-2.37l3.04-5.23a.59.59 0 0 1 .57-.32c1.6.06 3.27.07 4.98.03.32 0 .63.01.94.07.09.01.15.06.2.13l1.99 3.55Z" fill="#AFB3B6" /><path d="M17.82 40.25c-.08-.31-.34-.8-.76-1.45-.2-.32-.35-.55-.43-.7a.33.33 0 0 1-.03-.22c.06-.28.16-.54.3-.78l1.25-2.14.31-.44c.32-.4.47-.75.48-1.05 0-.09.02-.16.08-.22.41-.45 1.05-.63 1.93-.52l.18.02c.7.08.72.25.06.5-.44.17-.95.52-1.52 1.05-.56.52-.98 1-1.25 1.42-.37.58-.43 1.27-.2 2.08.17.56.52 1.26 1.06 2.11.13.2.08.31-.15.36l-.98.2c-.18.03-.29-.04-.33-.22ZM26 35.85l-3.29-2.04c-.09-.05-.08-.1.01-.14l1.11-.5a.08.08 0 0 1 .07 0l1.85.84c.02 0 .04.03.04.06l.34 1.7c.02.12-.02.15-.13.08Z" fill="#C0C5C8" /><path d="M23.82 36.25c-1-.65-2-1.26-2.98-1.83-.2-.1-.2-.2.02-.28.33-.11.65-.2.97-.23.22-.03.43.02.61.15.67.46 1.34.88 2 1.28a12.05 12.05 0 0 1 1.6 1.22c.18.16.21.34.1.55l-.08.13c-.12.23-.28.26-.48.09a6.1 6.1 0 0 0-1.07-.68l-.7-.4ZM24.03 38.19l-4.79-2.63c-.16-.09-.16-.19-.02-.3l.84-.6a.17.17 0 0 1 .2-.01l4.88 3.04c.07.04.1.1.09.18a.17.17 0 0 1-.14.14l-.94.2c-.04 0-.09 0-.12-.02Z" fill="#C0C5C8" /><path d="M27.55 35.96c.28.42.47.88.57 1.4.02.09 0 .16-.03.24l-1.81 3.13c-.2.36-.21.75-.02 1.19l-.7 1.22a.32.32 0 0 1-.31.18l-5.87-.02a.37.37 0 0 0-.22.07l-.6.43c-.1-.04-.17-.08-.2-.14a196.7 196.7 0 0 0-3.22-5.48c-.17-.26-.17-.48 0-.65.11.07.2.17.25.32.03.08.1.12.18.12.03 0 .07 0 .1-.02a.16.16 0 0 0 .08-.13c0-.1.03-.13.08-.1.43.8.88 1.58 1.36 2.38a7 7 0 0 1 .47.92c.15.34.34.65.59.93.18.2.27.17.3-.1 0-.12.07-.19.2-.2.48-.07 1.02.2 1.61.79l.21.2c.36.35.74.4 1.14.17.17-.1.2-.22.1-.38l-.88-1.41c-.07-.11-.04-.18.08-.2 1.4-.32 2.68-.83 3.83-1.55.32-.2.75-.57 1.28-1.12.35-.37.62-.64.82-.8.3-.25.5-.71.6-1.4Z" fill="#C0C5C8" /><path d="m19.27 36.03 3.97 2.3c.07.04.1.1.1.19-.02.08-.06.14-.14.16l-1.45.48a.19.19 0 0 1-.15-.02l-2.27-1.27a.19.19 0 0 1-.1-.14l-.25-1.5c-.05-.27.05-.34.29-.2Z" fill="#C0C5C8" /><path d="M29.38 37.67c.06.03.1.07.11.12.01.04 0 .08-.01.11-1.15 2-2.3 4-3.46 5.97a.26.26 0 0 1-.23.13 810.8 810.8 0 0 0-7.06-.01c-.13 0-.2-.06-.18-.19l.61-.43a.37.37 0 0 1 .22-.07l5.87.02c.14 0 .24-.06.3-.18l.71-1.22a63.9 63.9 0 0 1 2.38-4.04c.1-.13.34-.2.74-.2Z" fill="#69747A" /><path d="M20.26 38.98c.18.04.32.11.43.22.22.2.2.36-.06.5-.28.16-.52.12-.72-.11a1 1 0 0 1-.25-.72c0-.1.06-.16.17-.15.1 0 .17.05.23.13.05.07.11.12.2.13Z" fill="#C0C5C8" /></svg>