<?xml version='1.0' encoding='utf-8'?>
<!-- by TradeStack -->
<svg width="56" height="56" viewBox="0 0 56 56" xmlns="http://www.w3.org/2000/svg"><path fill="#F0F3FA" d="M0 0h56v56H0z" /><path d="M22.06 15.27c-.4-.16-.33-.27.11-.27h21.51c.17 0 .31.12.31.26v1.67c0 .08-.07.07-.12.07H24.56a.37.37 0 0 1-.2-.09c-.69-.54-1.46-1.29-2.3-1.64ZM29.37 22c-.14-.1-.3-.23-.48-.25l-1.74-2.4c-.1-.14 0-.35.16-.35h16.32c.2 0 .37.17.36.37v2.38c0 .11-.16.25-.28.25H29.37ZM30.86 24H43.8c.11 0 .2.08.2.18v3.64c0 .1-.09.18-.2.18H32.41a.21.21 0 0 1-.11-.03.19.19 0 0 1-.08-.08l-1.54-3.64c-.06-.12.05-.25.18-.25ZM43.89 30.98 33.1 31a.1.1 0 0 0-.11.11v3.8c0 .06.06.1.11.1H43.9a.1.1 0 0 0 .11-.12v-3.8a.1.1 0 0 0-.11-.1Z" fill="#D93E3C" /><path d="M21.68 15h-9.44c-.15 0-.24.07-.24.2v1.58c0 .15.1.22.25.22 3.31-.08 6.31-.89 9.45-1.87.02 0 .03-.01.04-.03a.07.07 0 0 0 .01-.05.07.07 0 0 0-.07-.05Z" fill="url(#ahgirbvta)" /><path d="m26.53 18.53-1.57-1.34a.38.38 0 0 0-.44-.06 27.86 27.86 0 0 1-12.3 2.7c-.13 0-.22.06-.22.2v2.59c0 .12.08.18.2.18 5.11.06 9.87-1.17 14.28-3.69.3-.17.31-.36.05-.58Z" fill="url(#bhgirbvta)" /><path d="M29.17 21.86c.33.14.39.46.8 1.1.23.34.45.68.54 1.04.03.13 0 .24-.13.31l-3.9 2.43c-4.84 2.35-8.9 2.6-14.16 2.86-.15.01-.32-.06-.32-.21v-3.01c0-.18.08-.27.25-.27 3.77 0 7.4-.56 10.9-1.69l5.59-2.57h.43Z" fill="url(#chgirbvta)" /><path d="M13.58 37.19c-.41.04-.93.09-1.38.04-.12-.02-.2-.08-.2-.2v-3.1c0-.37.21-.56.59-.57 6.99-.12 13.66-1.51 19.48-5.38a.23.23 0 0 1 .35.15c.04.24.12.51.2.8.24.93.53 2.01-.18 2.51-5.7 4.04-12.09 5.08-18.86 5.75Z" fill="url(#dhgirbvta)" /><path d="m32.5 41 .5-2v-4a39.51 39.51 0 0 1-17.47 5.86c-.16.02 0 .14 0 .14H32.5Z" fill="url(#ehgirbvta)" /><path d="M33 39h10.7c.16 0 .3.12.3.24v1.54c0 .12-.13.22-.27.22H32.5l.5-2Z" fill="#D93E3C" /><defs><linearGradient id="ahgirbvta" x1="22.66" y1="15" x2="13.7" y2="36.39" gradientUnits="userSpaceOnUse"><stop stop-color="#B4B4BE" /><stop offset=".51" stop-color="#4B518B" /></linearGradient><linearGradient id="bhgirbvta" x1="22.66" y1="15" x2="13.7" y2="36.39" gradientUnits="userSpaceOnUse"><stop stop-color="#B4B4BE" /><stop offset=".51" stop-color="#4B518B" /></linearGradient><linearGradient id="chgirbvta" x1="22.66" y1="15" x2="13.7" y2="36.39" gradientUnits="userSpaceOnUse"><stop stop-color="#B4B4BE" /><stop offset=".51" stop-color="#4B518B" /><stop offset="1" stop-color="#535590" /></linearGradient><linearGradient id="dhgirbvta" x1="22.66" y1="15" x2="13.7" y2="36.39" gradientUnits="userSpaceOnUse"><stop stop-color="#B4B4BE" /><stop offset=".51" stop-color="#4B518B" /><stop offset="1" stop-color="#535590" /></linearGradient><linearGradient id="ehgirbvta" x1="22.66" y1="15" x2="13.7" y2="36.39" gradientUnits="userSpaceOnUse"><stop offset=".51" stop-color="#4B518B" /><stop offset="1" stop-color="#535590" /></linearGradient></defs></svg>