<!-- by TradeStack --><svg width="56" height="56" viewBox="0 0 56 56" xmlns="http://www.w3.org/2000/svg"><path fill="#0063A7" d="M0 0h56v56H0z"/><path d="M37.82 25.6c-9.46-2.4-13.4-11.4-14.18-15.6C35.84 12.86 38.96 21.49 39 25.52c-2.84-7.74-9.06-11.17-11.82-11.92 2.37 6.72 8.08 10.8 10.64 12ZM37.82 30.4c-9.46 2.4-13.4 11.4-14.18 15.6C35.84 43.14 38.96 34.51 39 30.48c-2.84 7.74-9.06 11.17-11.82 11.92 2.37-6.72 8.08-10.8 10.64-12Z" fill="#FFFEFF"/><path d="M13 28c9.45-6.72 20.48-4 24.82-1.8-10.4-1.92-17.73.4-20.1 1.8 6.63 3.36 16.16 2.2 20.1 1.2-7.57 5.28-19.7 1.4-24.82-1.2Z" fill="#FFFEFF"/></svg>