<!-- by TradeStack --><svg width="56" height="56" viewBox="0 0 56 56" xmlns="http://www.w3.org/2000/svg"><path fill="#F0F3FA" d="M0 0h56v56H0z"/><path d="M23.5 24c-7.31-1.96-10.3-6.82-10.89-9-.4.33-1.2 1.27-1.2 2.4 0 2.41 2.73 4.7 5.16 6.6-4.29-1.55-6.3-4.25-6.78-5.5a8.53 8.53 0 0 0-.67 2.36c0 4.18 5.85 5.87 7.58 6.53-5.35-.5-7.88-2.96-8.48-4.13A10.2 10.2 0 0 0 8 25.02c0 5.82 7.7 5.34 9 5.34-2.76.9-6.2.22-7.44 0 .8 1.82 2.85 3.99 5.14 3.99 2.3 0 3.57-.8 4.3-1.35a9.89 9.89 0 0 1-3.6 3.37c.45.2 1.62.63 2.66.63 2.7 0 3.23-2.63 3.45-3.46.3 1.32.26 3.15.18 3.8 2.12 0 2.31-1.96 2.31-2.3 0-.33.07-.42-.11-1.34.65.73.93 2.19.93 3.35 0 .93-.12 3.69-.18 4.95.45-.76 1.36-3 1.36-5.94 0-6.66-3.07-8.46-4.57-8.46-1.2 0-1.2.83-1.04 1.25-.45-.13-1.39-.53-1.39-1.13 0-.75 2.4-1.26 2.65-1.38.25-.12.16-.2.16-.53-.14.22-1.13.52-1.6.65a1.1 1.1 0 0 1-.21-.65c0-.99 2.81-1.56 3.5-1.82Z" fill="url(#apyyfhvfy)"/><path d="M26 27.37c0 1.1 1 3.54 1.5 4.63-.5-2.87.2-3.84.6-4h18.11c1.06 0 1.79-1.96 1.79-2.73 0-.76-.2-1.25-.43-1.85-3.26 3.65-6.7 3.42-8.57 3.58 7.95-2.74 7.53-4.91 7.53-5.9 0-.98-.34-1.46-.69-2.1-1.75 3.48-5.33 4.04-6.84 4.5 5-3 5-4.86 5-5.87v-.01c0-1-.65-2.3-1.12-2.62-.51 6.87-14.3 9.04-15 9.18C27.2 24.33 26 26 26 27.37Z" fill="#5C4B1D"/><path d="M28 31.02c0-1.36.56-2.02 1.77-2.02.38 0 .76.07.96.16.14.08-.13.77-.17.74-.24-.08-.5-.12-.78-.12-.75 0-.78.57-.78 1.24 0 .62 0 1.2.72 1.2.11 0 .53.02.53-.14 0-.07.04-.64-.03-.64h-.57v-.67H31v1.8c0 .39-1.03.43-1.3.43-1.16 0-1.7-.64-1.7-1.98ZM33.01 29c1.28 0 1.99.72 1.99 2 0 1.27-.7 2-1.99 2-1.28 0-2.01-.72-2.01-2 0-1.29.73-2 2.01-2Zm0 3.22c.27 0 .47-.05.61-.14.3-.18.4-.53.4-1.09 0-.7-.24-1.21-1-1.21-.78 0-1.03.5-1.03 1.21s.25 1.23 1.02 1.23ZM35 29h1v3.22h1V33h-2v-4ZM38.29 29c1.25 0 1.71.83 1.71 2 0 1.16-.47 2-1.71 2H37v-4h1.29Zm.9 2c0-.69-.17-1.23-.93-1.23H38v2.45h.25c.75 0 .95-.54.95-1.22ZM40 29h3v.77h-2v.8h1.77v.77H41v.88h2V33h-3v-4ZM46 33l-1-2.35V33h-1v-4h1l1 2.18V29h1v4h-1ZM31 34.53c-.53 0-1 .08-1 .77 0 .92 3 1.06 3 3.27 0 1.88-1.2 2.43-2.85 2.43-.58 0-1.58-.29-2.12-.57L28 38.7c.73.45 1.57.66 2.07.66.57 0 .94.05.94-.66 0-1.02-3.01-1.1-3.01-3.34C28 33.5 29.45 33 31 33c.48 0 1.74.29 2 .68l-.57 1.47c-.35-.11-.88-.62-1.42-.62ZM36 36.18c0 .11.19.07.25.07s.1-.02.13-.06c.3-.44 1.36-2.37 1.92-3.19h1.59a45.4 45.4 0 0 0-2.3 3.88C39.02 39.35 39.04 39.5 40 41h-1.9c-.52-1.07-1.32-2.72-1.68-3.28a.14.14 0 0 0-.12-.07c-.07 0-.3-.05-.3.07V41h-2v-8h2v3.18ZM40 33h1.78c.33.58 1.76 2.91 2.22 3.75.58-.98 1.78-2.99 2.25-3.75H48c-1 1.92-2.22 3.73-2.87 4.85l-.12.23-.01.2V41h-2v-2.72c0-.1 0-.16-.02-.2a1.1 1.1 0 0 0-.1-.23c-.26-.46-2-3.09-2.88-4.85Z" fill="#EDC250"/><defs><linearGradient id="apyyfhvfy" x1="10.93" y1="16.4" x2="24.44" y2="42.33" gradientUnits="userSpaceOnUse"><stop stop-color="#794D0F"/><stop offset=".18" stop-color="#9E7C2F"/><stop offset=".36" stop-color="#805410"/><stop offset=".55" stop-color="#A7873A"/></linearGradient></defs></svg>