<!-- by TradeStack --><svg viewBox="0 0 56 56" xmlns="http://www.w3.org/2000/svg"><path fill="#F0F3FA" d="M0 0h56v56H0z"/><path d="M28 44c2.12 0 4.15-.41 6-1.16v-2a.5.5 0 0 0-.04-.19l-1.85-4.64a8.96 8.96 0 0 1-6.98.52l-4.2 5.82A15.93 15.93 0 0 0 28 44Zm16-16c0 5.7-2.98 10.7-7.46 13.53v-1.95a.5.5 0 0 0-.04-.2l-2.1-5.06a8.97 8.97 0 0 0 .54-12.06l4.52-5.43A15.95 15.95 0 0 1 44 28Zm-16-9c1.38 0 2.69.31 3.86.87l4.43-5.54h.01a15.93 15.93 0 0 0-14.62-1.04l3.77 6.08A9 9 0 0 1 28 19Zm-16 9c0-5.45 2.73-10.27 6.9-13.16l3.96 5.77a8.99 8.99 0 0 0-1.16 13.82l-4.46 5.41A15.96 15.96 0 0 1 12 28Zm16 5a5 5 0 1 0 0-10 5 5 0 0 0 0 10Z" fill="#00A759"/></svg>