<?xml version='1.0' encoding='utf-8'?>
<!-- by TradeStack -->
<svg width="56" height="56" viewBox="0 0 56 56" xmlns="http://www.w3.org/2000/svg"><path d="M0 28a28 28 0 1 1 56 0 28 28 0 1 1-56 0Z" fill="url(#a4btmvfis)" /><path d="M47 28c0 8.28-8.5 15-19 15S9 36.28 9 28c0-8.28 8.5-15 19-15s19 6.72 19 15Z" fill="#fff" /><path d="M33.65 14.71a18.8 18.8 0 0 1 9 5.28c4.23 4.56 3.69 9.32 2.5 12.34a12.04 12.04 0 0 1-1.43 2.59l-.01.01-.06.07a13.86 13.86 0 0 1-2.15 2.28c-2.39 1.96-4.62 2.24-4.62 2.24s-2.62.42-3.34-.64c-.57-1.01-.38-3.13 2.54-5.29 5.35-5.15 5.2-7.78 5.16-8.35 0-.5.22-.59.46-.35.54.53.43-.21.43-.21s-.62-4.42-5.25-5.06c-2.57-.2-3.82.52-5.47 2.29-.75.2-10.61 2.33-14.3 3.09a35.67 35.67 0 0 1-3 .45c-.22.02-.46.07-.6.18-.2.19-.47.59-.5 1.42 0 .03.01.14.03.2.07.21.27.65.61-.12.22-.39.5-.64 1.9-.82 1.4-.17 16.5-2.98 16.5-2.98s.57-.14.6.13c.06.25-.76.4-.76.4S16.09 27 15.12 27.18c-.8.18-.86.64-.36.94l.06.04c.52.3 1.52.9 1.67 2.82.1 1.3 1.07 4.43 3.26 5.3 1.66.53 3.06.34 7.16-2.25l.64-.42c3.6-2.4 8.22-5.5 8.29-7.05 0-.67-.04-.64-.3-.5l-.09.04c-.33.17-1.6.75-2.12-1.1.09-.3.19-.45.38.05.48.49.63.62 2 .3.67-.33.8-.12.93.58s.24 1.75-.93 3.03c-.26.24-.32.32-.4.38-.21.21-.47.38-6.13 5.12 0 0-3.95 2.8-4.86 7.26-5.84-.94-10.65-4.08-12.94-8.26a11.84 11.84 0 0 1-1.3-4c-.08-.63-.1-1.3-.05-1.98.77-7.91 7.89-11.3 11.16-12.44 1-.34 1.63-.48 1.63-.48s4.87-1.3 10.51.07l.15.04.17.04Zm-.13 7.57c0-.4.33-.72.74-.72.4 0 .74.32.74.72 0 .4-.33.72-.74.72a.73.73 0 0 1-.74-.72Z" fill="#F05225" /><defs><linearGradient id="a4btmvfis" x1="28" y1="0" x2="28" y2="56" gradientUnits="userSpaceOnUse"><stop stop-color="#FD4527" /><stop offset="1" stop-color="#FE0561" /></linearGradient></defs></svg>