<?xml version='1.0' encoding='utf-8'?>
<!-- by TradeStack -->
<svg width="56" height="56" viewBox="0 0 56 56" xmlns="http://www.w3.org/2000/svg"><path fill="#F0F3FA" d="M0 0h56v56H0z" /><path d="M48 23h2v6.44c0 2.24-1.89 3.56-4 3.56-2.12 0-4-1.31-4-3.56V23h2v6.29c0 1.27.76 2.12 2 2.12s2-.85 2-2.12V23ZM33 24.52V23h8v1.52h-3V33h-2v-8.48h-3ZM32 23v10h-1.57L26 26.58V33h-2V23h1.58L30 29.54V23h2ZM22.41 26.42h-1.86a2.15 2.15 0 0 0-1.56-1.71 2.97 2.97 0 0 0-2.35.27c-.43.26-.76.65-1 1.16-.25.5-.37 1.13-.37 1.86 0 .74.12 1.37.37 1.88.24.5.58.9 1 1.15a3.1 3.1 0 0 0 2.33.27c.27-.08.51-.2.72-.34a2.08 2.08 0 0 0 .86-1.32h1.86a3.88 3.88 0 0 1-2.66 3.1 5.1 5.1 0 0 1-1.66.26c-.9 0-1.7-.2-2.4-.6-.7-.39-1.26-.96-1.67-1.71-.4-.75-.6-1.64-.6-2.69s.2-1.95.6-2.69c.41-.75.97-1.32 1.68-1.72a5.31 5.31 0 0 1 3.98-.37c.48.16.92.38 1.3.68a3.87 3.87 0 0 1 1.43 2.52ZM6 33V23h2v8.48h5V33H6Z" /></svg>