<?xml version='1.0' encoding='utf-8'?>
<!-- by TradeStack -->
<svg width="56" height="56" viewBox="0 0 56 56" xmlns="http://www.w3.org/2000/svg"><path fill="#F0F3FA" d="M0 0h56v56H0z" /><path d="M8.67 36.99c1.81-.5 3.63-1.15 8.02-2.06.04-.16.09-.4.17-.67l.1-.4c-5.72 1.23-8.07 2.23-8.22 2.26-.41.08-.68 1-.07.87ZM19.74 33.44l-.08.3-.05.18c-.07.18-.12.42-.15.6a74.73 74.73 0 0 1 9.74-1.36c1.68-.14 2.64-.16 4.21-.24.1-.41.42-.82.88-1.28-2.6.18-4.7.36-7.49.7-2.72.27-4.66.63-7.06 1.1ZM47.73 31.19c-.62-.12-4.05-.18-9.45.13-.18.54-.35.98-.51 1.34 5.48-.13 8.83.11 8.98.06.45-.1 1.57-1.27.98-1.53Z" fill="#ED8B00" /><path d="M47.58 28.13c-.05 0-.2.12-.24.15-1.87 1.45-2.8.47-2.43-.34.76 0 1.4-.58 1.82-1.05.42-.47.57-1.06.5-1.49-.03-.24-.33-1-1-1.12-1.15-.15-2.08 1.24-2.51 2.32-.17.39-.24.78-.25 1.14-.3.23-1.58 1.57-1.86 1.32-.31-.26 2.39-7.94 2.47-8.21.08-.27-.21-.48-.21-.48l-.57-.34s-.23-.15-.5.23c-.33.86-1.3 3.95-1.98 6.19-.53.54-1.5 1.36-2.24 2 .51-1.6.88-2.88.93-3.05l.01-.13.04-.08c.06-.26-.25-.44-.25-.44l-.6-.3s-.25-.1-.48.27l-.05.13-.03.08-.13.44-.1.3v.03l-.58 1.84s-1.58 1.95-1.7 1.85c-.1-.07.39-1.78.75-2.9l.35-.94a.35.35 0 0 0-.02-.23l-.05-.1a.64.64 0 0 0-.13-.14l-.51-.35s-.22-.14-.45.22l-.35.93v.01c-.23.58-.51 1.38-.73 2.08-.58.55-1.92 1.9-2.17 1.68-.2-.16.8-3.25 1.61-5.64l1.5-.16c.14-.01.34-.3.34-.3s.5-.73.41-.9a7.81 7.81 0 0 0-1.82.07l.5-1.45c.08-.26-.22-.47-.22-.47l-.56-.35s-.23-.14-.5.23c-.15.38-.43 1.21-.74 2.2-.83.1-1.51.22-1.61.29-.25.2-.41.9-.41.9s-.09.29.05.27l1.55-.16c-.15.47-.3.98-.46 1.45 0 .02 0 .02-.02.03-.25.63-1.65 3.44-2.04 3.84.02-.13.02-.27 0-.4-.1-.9-.7-1.83-.67-2.28.01-.58.31-.52.5-.73.06-.08.06-.23-.07-.33-.24-.18-.42-.37-1.05-.3-2.15.22-.35 3-.03 3.72.05.01-1.43-.54-1.84-.5-.41.04-.65.56-.55 1.04v.03a3.63 3.63 0 0 1-.73.5c-1.47.86-2.18 0-1.85-.73.76 0 1.4-.57 1.82-1.04.42-.48.56-1.07.5-1.5-.03-.24-.33-1-1-1.12-.86-.11-1.6.64-2.1 1.47-.55.03-1.26.12-1.92.18l.28-.95c.46-1.56 1-2.79 1.18-2.82.44-.12.15 1.37.23 1.39.08.14.3.08.3.08l.51-.15s.15-.05.15-.31a9.8 9.8 0 0 0-.4-1.86.78.78 0 0 0-.35-.26c-.11-.04-.11-.04-.7.05-.57.08-.9.35-1.07.66a41.3 41.3 0 0 0-1.54 4.32c-.33.05-.55.1-.6.15-.24.2-.41.9-.41.9s-.08.29.05.27l.56-.06-.36 1.17c-.63.6-2.24 2.16-2.5 1.93-.34-.26 1.04-3.6 1.12-3.87.09-.28-.2-.48-.2-.48l-.56-.34s-.23-.15-.5.23a35.08 35.08 0 0 0-1.32 4.23c-.05.34.08.7.54 1 .47.3.67.37.78.39.12.02.35-.03.47-.08.1-.03 1.07-.8 1.62-1.26a73.16 73.16 0 0 0-.86 3.12c-.07.67.66 1.4 1.08 1.3.4-.16.16-.87.25-1.36 0 0 .11-.56.23-.94l.05-.18.73-2.3.87-2.71 1.8-.2c-.06.22-.09.43-.1.64 0 .2.01.4.04.57.17.9.82 1.6 1.66 1.83.61.18 1.44-.16 2.04-.52l.55-.36c.03.08.08.16.13.21.28.3.78.43 1.36.36a2.26 2.26 0 0 0 1.57-.86c.31-.17.63-.45.9-.79.13-.16.34-.54.57-1l-.18.74c-.05.34.09.7.55 1 .46.3.66.37.78.39.11.02.35-.03.46-.08.08-.04 1.06-.79 1.6-1.24l.03.03c.31.5.67.91.86 1.04.18.13.56.05.74-.05.19-.1 1.13-1.24 1.13-1.24s-.03.2-.13.57c-1.93 1.67-3.25 2.64-2.79 3.71.43 1 1.5.7 2 .46.77-.44 1.12-1.6 1.91-3.9.96-.92 1.88-1.72 2.36-2.14-.14.44-.22.76-.24.88-.05.34.09.7.55 1 .46.29.66.37.78.39.12.01.35-.04.46-.08.1-.05 1.23-.92 1.74-1.36.07.13.14.28.22.4.3.43.74.74 1.27.89 1.05.33 2.79-.96 2.82-1.1.07-.14-.25-.83-.41-.83Zm-1.18-2.66c.68.59-.98 1.81-1.2 1.65-.2-.18.87-1.95 1.2-1.65Zm-21.24 1.57c.68.59-.98 1.81-1.2 1.65-.2-.18.87-1.96 1.2-1.65Zm2.49 3.15c-.17.02-.29-.08-.37-.18-.17-.2-.15-.54-.05-.62l.02-.02c.13-.05.51.04 1.22.23-.23.41-.66.57-.82.59Zm7.43 3.12c-.21-.2.04-.54 1.3-1.86-.53 1.53-1.08 2.04-1.3 1.86Z" fill="#0B2537" /><path d="m16.8 26.82.57.35s.23.15.5-.23l.38-.93c.08-.26-.21-.48-.21-.48l-.57-.34s-.23-.15-.5.23l-.38.93c-.06.28.22.47.22.47ZM13.98 32.13c-.09 0-1.2.17-3.1.74.05-2.65 2.32-8.54 3.08-9.5.1-.35-.27-.61-.27-.61l-.6-.38s-.3-.18-.62.28c-1.1 1.4-3.4 10.16-3.46 10.67-.67.24-.77.3-.93.45-.23.27.06 1.21.78 1.15 1.87-.38 3.11-.9 4.78-1.26.27-.03.39-.38.39-.38l.23-.71c.03 0 .2-.5-.28-.45Z" fill="#0B2537" /></svg>