<!-- by TradeStack --><svg width="56" height="56" viewBox="0 0 56 56" xmlns="http://www.w3.org/2000/svg"><path fill="#1B3158" d="M0 0h56v56H0z"/><path d="M34.85 33.47c-2.73-1.57-3.74-4.91-3.9-6.38h.48a9.31 9.31 0 0 0 6.83 4.66 4.46 4.46 0 0 1-3.41 1.72ZM32.65 25.86l-.24.49c2.73 2.95 5.85 3.2 7.07 2.95 1.56-.6 2.11-2.87 2.2-3.93a7.15 7.15 0 0 1-4.64 1.96 7.23 7.23 0 0 1-4.39-1.47ZM33.14 24.87v-.49c5.07-.2 7.31-4.66 7.8-6.88a4.88 4.88 0 0 1 .98 3.94c-1.56 3.93-6.5 3.93-8.78 3.43ZM33.14 23.4l-.49-.5c4.3-3.53 3.9-9 3.17-11.3 2.34 1 3.09 2.71 3.17 3.45-.2 4.13-3.98 7.29-5.85 8.35ZM31.43 22.42h.74c2.73-8.85.16-11.88-1.47-12.28a5.04 5.04 0 0 0-3.65.49c4.87 2.16 4.95 8.76 4.38 11.79ZM23.88 12.1a5.52 5.52 0 0 0-5.37 2.95c7.02 0 10.4 4.91 11.22 7.37h.48c.2-4.92-4.14-8.93-6.33-10.32Z" fill="#FDFDFE"/><path d="m28.5 23.4.5-.5c-4.15-4.9-11.7-4.17-11.95-4.17-2.34.99-2.93 4.5-2.93 6.14 5.27-4.52 11.79-2.86 14.39-1.47ZM28.5 24.87v-.49c-8.77-.59-13.24 3.69-14.38 5.9a6.02 6.02 0 0 0 1.95 5.9c1.56-8.06 8.94-10.9 12.44-11.3Z" fill="#FDFDFE"/><path d="m29 26.35-.5-.5c-5.84 2.95-8.6 10.4-9.26 13.76.59 2.95 3.99 4.5 5.61 4.92C21.93 33.9 26.4 27.99 29 26.35Z" fill="#FDFDFE"/><path d="M29.97 27.09h-.49C25.58 36.9 29.24 46 32.17 46c3.9 0 4.95-.57 5.36-.98-7.41-3.74-8.13-13.51-7.56-17.94Z" fill="#FDFDFE"/></svg>