<?xml version='1.0' encoding='utf-8'?>
<!-- by TradeStack -->
<svg width="56" height="56" viewBox="0 0 56 56" xmlns="http://www.w3.org/2000/svg"><path fill="#F0F3FA" d="M0 0h56v56H0z" /><path d="M5 24v8h6v-1H6v-7H5Zm23.57 6.5a4.34 4.34 0 0 1-3.32 1.5C22.9 32 21 30.2 21 28s1.9-4 4.25-4c1.39 0 2.62.62 3.4 1.6l-.8.6a3.34 3.34 0 0 0-2.6-1.2c-1.8 0-3.25 1.34-3.25 3s1.46 3 3.25 3c1 0 1.9-.42 2.49-1.07l.83.56ZM30 24h10.33C41.77 24 43 25.1 43 26.43v.23c0 .87-.52 1.6-1.29 2.01L43.3 32h-1.12l-1.44-3.03c-.13.02-.27.03-.41.03H39v3h-1v-6h1v2h1.4c.76-.04 1.6-.61 1.6-1.31v-.26c0-.73-.9-1.43-1.68-1.43H30v-1Zm1 2h1v6h-1v-6Zm19.74 6-.78-2h-3.28l-.78 2h-1.14l1.14-3h3.67l-1.95-5h1.24L52 32h-1.26ZM17 28h-3v3h5v1h-6v-5h4v1Z" /><path fill="#AF2B29" d="M13 24h6v1h-6z" /></svg>