<?xml version='1.0' encoding='utf-8'?>
<!-- by TradeStack -->
<svg width="56" height="56" viewBox="0 0 56 56" xmlns="http://www.w3.org/2000/svg"><path fill="#F0F3FA" d="M0 0h56v56H0z" /><path d="M27 46c-2.51-.95-8.3-3.9-11.36-8.08-.35-.47-.66-.97-.94-1.5l2.1-2.05c.31.7.68 1.37 1.1 1.97C20.36 39.78 25 42.21 27 43c2.01-.79 6.65-3.22 9.1-6.66.44-.62.82-1.32 1.14-2.06l2.15 1.98c-.3.59-.65 1.14-1.02 1.66C35.3 42.09 29.52 45.05 27 46ZM42 18.75v-2.54c-6.3-3.62-12.62-4.3-15-4.2-2.37-.1-8.7.58-15 4.2v7.76c-.04 2.28.34 7 1.98 10.94l2.2-2.15a26.1 26.1 0 0 1-1.18-7.9v-6.54a23.45 23.45 0 0 1 12-3.31c1.9-.09 6.96.33 12 3.31v3.07l3-2.64Z" fill="#16384C" /><path d="M38.22 25.08a.52.52 0 0 1 .7.12c.8 1.11 1.97 4-.01 6.6a.53.53 0 0 1-.7.12.44.44 0 0 1-.12-.65c.7-.9.92-1.86.91-2.74a5.16 5.16 0 0 0-.91-2.81.44.44 0 0 1 .13-.64Z" fill="url(#a4vhxztto)" /><path d="M40.2 22.11a.55.55 0 0 1 .77.1A10.75 10.75 0 0 1 41 34.75a.55.55 0 0 1-.76.15.53.53 0 0 1-.15-.73c1.33-2 1.9-3.95 1.91-5.68a9.35 9.35 0 0 0-1.89-5.64.52.52 0 0 1 .1-.75Z" fill="url(#b4vhxztto)" /><path d="M42.24 20.1a.64.64 0 0 1 .83.11c2.21 2.64 5.3 9.62.01 16.56a.64.64 0 0 1-.82.14c-.27-.17-.34-.5-.16-.75 2.02-2.64 2.91-5.29 2.9-7.66a12.5 12.5 0 0 0-2.88-7.64.5.5 0 0 1 .12-.75Z" fill="url(#c4vhxztto)" /><path fill-rule="evenodd" d="M32.5 24H27v9h5.5a4.5 4.5 0 1 0 0-9Zm-1 2H30v5h1.5a2.5 2.5 0 0 0 0-5Z" fill="url(#d4vhxztto)" /><path d="M22 24h-3v9h7v-2h-4v-7Z" fill="#16384C" /><defs><linearGradient id="a4vhxztto" x1="40" y1="28.5" x2="38" y2="28.5" gradientUnits="userSpaceOnUse"><stop stop-color="#8995A1" /><stop offset="1" stop-color="#D1D5D8" /></linearGradient><linearGradient id="b4vhxztto" x1="42.99" y1="28.5" x2="40" y2="28.5" gradientUnits="userSpaceOnUse"><stop stop-color="#8995A1" /><stop offset="1" stop-color="#D1D5D8" /></linearGradient><linearGradient id="c4vhxztto" x1="45.99" y1="28.5" x2="42" y2="28.5" gradientUnits="userSpaceOnUse"><stop stop-color="#8995A1" /><stop offset="1" stop-color="#D1D5D8" /></linearGradient><linearGradient id="d4vhxztto" x1="37" y1="28.5" x2="27" y2="28.5" gradientUnits="userSpaceOnUse"><stop stop-color="#7A8C97" /><stop offset=".57" stop-color="#213B4C" /></linearGradient></defs></svg>