<?xml version='1.0' encoding='utf-8'?>
<!-- by TradeStack -->
<svg width="56" height="56" viewBox="0 0 56 56" xmlns="http://www.w3.org/2000/svg"><path fill="#F0F3FA" d="M0 0h56v56H0z" /><path d="M14.8 35.92 13 17c-.01-.12.04-.2.15-.23l14.88-4.75a.2.2 0 0 1 .18.02l14.69 9.22c.07.04.1.1.1.18l-.01 11.47a.2.2 0 0 1-.1.18L28.42 43.34a.2.2 0 0 1-.23.02L14.92 36.1a.2.2 0 0 1-.12-.18Z" fill="#025D30" /><path d="m40.55 20.87-6.6 1.75-6-3.6a.32.32 0 0 0-.16-.05l-.17-.01a.43.43 0 0 0-.09-.01 127.25 127.25 0 0 1-5.16 3.59c-.28-.12-.82-.4-1.6-.84-.9-.5-1.8-1.01-2.68-1.53-.72-.41-1.45-.87-2.19-1.37l12.04-5.06a.2.2 0 0 1 .19.01l12.42 7.12Z" fill="#F68F1F" /><path d="M26.35 14.93a77.6 77.6 0 0 1 1.52-.6.4.4 0 0 1 .36.02l2.54 1.46c.04.02.04.05 0 .08l-.02.02a.22.22 0 0 1-.23.05c-.78-.28-1.54-.6-2.28-.98a.64.64 0 0 0-.5-.03c-.8.26-1.61.47-2.46.64a.38.38 0 0 1-.2-.01c-.11-.04-.11-.09-.01-.15.16-.1.43-.2.8-.33l.48-.17Z" fill="#CF6C16" /><path d="M15.9 18.8c.74.5 1.47.96 2.2 1.37.88.52 1.77 1.03 2.66 1.53.8.45 1.33.72 1.61.84l-.04 7.37c0 .14.06.2.2.2a.2.2 0 0 0 .15-.1 5.2 5.2 0 0 0 1.9 1.34c.95.4 1.97.89 3.05 1.46.07.04.16.1.27.2l.16.13c.06.21.09.4.09.53.03 1.94.03 4.4.02 7.4 0 .18-.07.34-.21.5L17 33.8a.7.7 0 0 1-.3-.57l-.03-.55c-.04-1.2-.1-2.1-.16-2.7-.03-.3-.06-.77-.08-1.4l-.05-1.03a526.69 526.69 0 0 1-.56-8.66c.03-.1.06-.12.08-.1ZM27.62 18.96h.17c.05 0 .1.02.15.05l6 3.6.26 1.65c.02.14-.03.17-.15.1l-2.76-1.65c-.07-.04-.1-.02-.08.06l.34 1.68c.02.12.1.2.22.24l2.2.62c.2.05.3.19.33.4l.17 1.62c.01.17-.06.22-.22.16l-1.95-.8c-.18-.08-.24-.02-.18.17l.3.83c.06.17.17.29.34.35.55.2 1.1.35 1.65.44.09.01.14.06.14.15l.12 1.46c.02.15-.08.2-.28.14a9.89 9.89 0 0 1-1.65-.68c-.66-.38-1.23-.66-1.72-.85-.1-.04-.23-.06-.39-.05-.15 0-.28-.02-.38-.05a4.04 4.04 0 0 1-1.12-.56c.08 0 .15 0 .19-.04.03-.02.05-.08.03-.16-.15-.9-.27-1.53-.34-1.88-.48-2.33-.95-4.66-1.4-7Z" fill="#8DC53F" /><path d="M40.55 20.87c.12-.05.16.12.12.49-.37 3.81-.74 7.72-1.1 11.72a.6.6 0 0 1-.26.45l-11.06 8.2c-.03.03-.07.02-.13 0a.43.43 0 0 1-.16-.16.72.72 0 0 0 .21-.5c.01-3 0-5.46-.02-7.4 0-.14-.03-.32-.09-.53-.03-.05-.02-.08.04-.1a182.82 182.82 0 0 0 6.47-2.54.18.18 0 0 0 .1-.12.66.66 0 0 0 0-.3l-.12-1.45c0-.09-.05-.14-.14-.15a8.8 8.8 0 0 1-1.65-.44.56.56 0 0 1-.35-.35l-.29-.83c-.06-.2 0-.25.18-.17l1.95.8c.16.06.23 0 .22-.16l-.17-1.62a.43.43 0 0 0-.34-.4l-2.2-.62a.29.29 0 0 1-.21-.24l-.35-1.68c-.01-.08.02-.1.09-.06l2.76 1.65c.12.07.17.04.15-.1l-.25-1.64 6.6-1.75Z" fill="#F8ED34" /><path d="M29.47 26.31c.2.41.36.82.48 1.21.02.05.04.1.07.13l.27.27c.08.07.06.1-.04.06a.6.6 0 0 1-.34-.27 4.8 4.8 0 0 1-.5-1.47c-.02-.1 0-.1.05-.02v.04l.01.05Z" fill="#025D30" /><path d="M29.13 28.04c.33.24.7.43 1.12.56.1.03.23.05.38.05.16 0 .3 0 .4.05.48.19 1.05.47 1.7.85a9.86 9.86 0 0 0 1.65.68c.2.05.3 0 .3-.14.01.1.01.2-.01.29a.18.18 0 0 1-.1.12l-.87.38c-1.86.75-3.72 1.47-5.6 2.16-.06.02-.07.05-.04.1l-.16-.13c-.11-.1-.2-.16-.27-.2a36.3 36.3 0 0 0-3.05-1.46 5.2 5.2 0 0 1-1.9-1.33l6.45-1.98Z" fill="#F68F1F" /><path d="m20.73 36.07-3.67-2.6-.02-.03-.44-5.28c0-.03 0-.04.03-.04l.08.01c.02 0 .03.01.03.03l.86 5.14.01.02L20.8 36c.01.02.02.03 0 .05l-.02.02c-.01.02-.03.02-.04 0Z" fill="#025D30" /><path d="M39.41 28.45c.01-.05.04-.07.08-.06h.05c.03.01.04.03.04.06a68.7 68.7 0 0 0-.43 4.09c-.02.29-.14.53-.36.72-.5.43-1.01.84-1.52 1.22-.04.03-.06.02-.09 0l-.03-.04v-.05l1.5-1.41a.74.74 0 0 0 .23-.47c.16-1.43.34-2.78.53-4.06Z" fill="#8DC53F" /><path d="M19.85 44.41a6.5 6.5 0 0 1-1.16-.16c-.12-.03-.11-.04 0-.04 2.49-.05 4.97-.13 7.45-.24a47.8 47.8 0 0 1 4.87 0c1.81.07 3.17.09 4.07.07.65-.02 1.26 0 1.83.04.52.03.52.08 0 .13-2.4.22-5.06.48-8 .77-.3.03-.65.03-1.05 0-3.23-.28-5.9-.46-8.01-.57Z" fill="#3C3B3E" /></svg>