<!-- by TradeStack --><svg width="56" height="56" viewBox="0 0 56 56" xmlns="http://www.w3.org/2000/svg"><path fill="#F0F3FA" d="M0 0h56v56H0z"/><path d="M5.79 23.55c-.7 0-1.25.56-1.25 1.26v6.38c0 .7.56 1.26 1.25 1.26H50.2c.7 0 1.25-.56 1.25-1.26V24.8c0-.7-.56-1.26-1.25-1.26H5.8ZM50.2 33H5.8c-1 0-1.79-.8-1.79-1.81V24.8c0-.98.82-1.81 1.79-1.81H50.2c1 0 1.79.8 1.79 1.81v6.38c0 1-.8 1.81-1.79 1.81ZM10.5 31H6v-6h3v5h1.5v1Zm.5 0h5v-1h-2v-1.5h2v-1h-2V26h2v-1h-5v6Zm9 0h-3v-6h3v6Zm1 0h3v-2.5h1.98v-1H24V26h2v-1h-5v6Zm9 0h-3v-6h3v2.5h1V25h3v6h-3v-2.5h-1V31Zm5 0h5v-1h-2v-1.5h2v-1h-2V26h2v-1h-5v6Zm9 0h-3v-6h3v6Zm2 0h3v-5h1v-1h-5v1h1v5Z" fill="#D1012D"/></svg>