<?xml version='1.0' encoding='utf-8'?>
<!-- by TradeStack -->
<svg width="56" height="56" viewBox="0 0 56 56" xmlns="http://www.w3.org/2000/svg"><path fill="#F0F3FA" d="M0 0h56v56H0z" /><path fill-rule="evenodd" d="M22.99 35.25h.54c.44 0 .88.2 1.31.39.22.1.44.2.66.27.43.14 1.27.1 1.84.04.16-.13.32-.27.45-.42-.42.07-1.01.16-1.42.16-.32 0-.93-.28-1.53-.55s-1.2-.55-1.53-.55c-.26 0-.46.08-.6.17.07.17.17.34.28.49Zm-.41-.83c.14-.13.38-.26.73-.26.3 0 .8.18 1.33.39a5.8 5.8 0 0 0 1.73.48c.47 0 .94-.31 1.38-.6.27-.19.53-.36.77-.45.03-.15.04-.3.04-.47-.33.04-.81.15-1.1.43-.43.44-.65.65-1.09.65-.23 0-.64-.12-1.14-.27-.45-.13-.96-.28-1.48-.38-.74-.15-1.11 0-1.26.14.02.12.05.23.09.34Zm-.11-1.34c.35.03.87.15 1.28.42.66.44 2.19.66 2.62.44l.35-.2c.47-.3 1.17-.73 1.8-.71a3.01 3.01 0 0 0-.04-.25c-.3-.05-.75-.06-1.23.06-.38.1-.6.24-.8.36-.24.16-.46.3-.95.3-.4 0-.99-.23-1.57-.46-.5-.2-1-.39-1.36-.43-.05.15-.08.3-.1.47Zm.3-.99a3.06 3.06 0 0 1 5.58.28c-.53-.07-1.17.04-1.73.14-.35.06-.67.12-.9.12-.33 0-.66-.17-.99-.33a2.33 2.33 0 0 0-.98-.33c-.34 0-.7.06-.97.12ZM29 33.5a3.5 3.5 0 1 1-7 0 3.5 3.5 0 0 1 7 0Z" fill="url(#arjaw1qqj)" /><path d="M9 26.5h3V28H7v-7h2v5.5ZM27 21l-2.45 7h-2.1L20 21h1.79l1.71 5.28L25.22 21H27ZM31.9 28l-1.6-2.64H30V28h-2v-7h3.13c1.35 0 2.8.67 2.8 2.2 0 1.03-.75 1.77-1.7 2.03L34 28h-2.1ZM30 24.15h1.02c.69 0 .98-.32.98-.88 0-.52-.3-.85-.98-.85H30v1.73ZM39.79 27h-2.6l-.42 1H35l2.52-7h1.96L42 28h-1.8l-.41-1Zm-.44-1.55-.86-2.57-.85 2.57h1.71ZM46.1 28c-.58 0-1.1-.08-1.56-.24-.46-.17-.83-.4-1.11-.72A1.52 1.52 0 0 1 43 26h2.06c.03.25.13.34.3.47.18.13.4.2.69.2.28 0 .5-.06.67-.17a.55.55 0 0 0 .25-.48c0-.17-.06-.3-.2-.41-.13-.12-.3-.2-.49-.28a8.2 8.2 0 0 0-.81-.24 9.88 9.88 0 0 1-1.26-.41c-.32-.14-.6-.34-.84-.6a1.52 1.52 0 0 1-.35-1.05c0-.63.27-1.13.8-1.48a3.66 3.66 0 0 1 2.1-.55c.88 0 1.58.18 2.12.55.53.35.82.8.86 1.45h-2.1c-.01-.22-.1-.35-.28-.47-.17-.13-.4-.2-.67-.2a.9.9 0 0 0-.56.17.53.53 0 0 0-.22.46c0 .22.12.39.36.51.25.13.62.26 1.14.4.5.15.92.3 1.24.43.33.14.6.33.84.6.23.25.35.59.35 1 0 .39-.12.74-.35 1.06a2.3 2.3 0 0 1-1 .76 3.9 3.9 0 0 1-1.55.28ZM17.59 31.55c.65 0 1.14.25 1.39.7h1.9c-.4-1.5-1.8-2.25-3.29-2.25A3.47 3.47 0 0 0 14 33.5c0 2.05 1.59 3.5 3.6 3.5 1.5 0 2.95-.9 3.4-2.37v-1.65L17 33v1.5h2.37c-.3.66-.86 1.02-1.64 1.02-1.2 0-1.73-.82-1.73-2.02 0-1.08.47-1.95 1.59-1.95ZM32 35.5h3V37h-5v-7h2v5.5ZM38.5 30c2.03 0 3.5 1.47 3.5 3.5 0 2.03-1.47 3.5-3.5 3.5H36v-7h2.5Zm-.1 5.52c1.2 0 1.6-.83 1.6-2.02s-.39-2.04-1.6-2.04l-.4-.03v4.07l.4.02ZM17.79 27h-2.6l-.42 1H13l2.52-7h1.96L20 28h-1.8l-.41-1Zm-.44-1.55-.86-2.57-.85 2.57h1.71Z" fill="#114A41" /><defs><linearGradient id="arjaw1qqj" x1="22.22" y1="33.72" x2="28.78" y2="33.94" gradientUnits="userSpaceOnUse"><stop stop-color="#93834B" /><stop offset=".54" stop-color="#DFB94A" /><stop offset="1" stop-color="#EFD42B" /></linearGradient></defs></svg>