<?xml version='1.0' encoding='utf-8'?>
<!-- by TradeStack -->
<svg width="56" height="56" viewBox="0 0 56 56" xmlns="http://www.w3.org/2000/svg"><path fill="#F0F3FA" d="M0 0h56v56H0z" /><path d="M44 25.64 43.71 30H42.6c.08-2.98-3.44-6-9.01-6C28 24 26 26.32 26 32.54c0 6.22 1.24 8.46 8.01 8.46 5.43 0 6.49-1 6.49-1.81v-3.5c0-1.09-1.7-1.72-2.5-1.69v-1h7v1.02c-.62 0-.91.34-1 .51v3.72c-.69 1.2-2.09 3.75-9.81 3.75C26.46 42 22 39.1 22 32.54 22 25.98 27.06 23 33.59 23c5.21 0 9.07 1.76 10.41 2.64Z" fill="url(#anht35j1p)" /><path d="M12 35c1.89-.2 2-.89 2-2.91v-13.4c0-1.96-.13-2.55-2-2.69v-1h8v1c-1.77.1-2 .54-2 2.48V33.6c0 .34.05.6.16.8.4.67 1.75.61 2.35.61 2.6 0 6.88-.14 8.17-1.4 1.29-1.28 1.72-2.78 2.58-4.6H32l-.57 7H12v-1Z" fill="url(#bnht35j1p)" /><defs><linearGradient id="anht35j1p" x1="33.5" y1="23" x2="33.5" y2="42" gradientUnits="userSpaceOnUse"><stop offset=".06" stop-color="#53312A" /><stop offset=".16" stop-color="#CE9C55" /><stop offset=".49" stop-color="#F2DB78" /><stop offset=".82" stop-color="#CE9B55" /><stop offset=".97" stop-color="#4E2E28" /></linearGradient><linearGradient id="bnht35j1p" x1="22" y1="16" x2="22" y2="36" gradientUnits="userSpaceOnUse"><stop offset=".06" stop-color="#53312A" /><stop offset=".16" stop-color="#CE9C55" /><stop offset=".49" stop-color="#F2DB78" /><stop offset=".82" stop-color="#CE9B55" /><stop offset=".97" stop-color="#4E2E28" /></linearGradient></defs></svg>