<!-- by TradeStack --><svg width="56" height="56" viewBox="0 0 56 56" xmlns="http://www.w3.org/2000/svg"><path fill="#F0F3FA" d="M0 0h56v56H0z"/><path fill="#FAA621" d="M10 24h1.28v8H10z"/><path fill="#0D2D6C" d="M45 23h1.28v9H45z"/><path fill="#FAA621" d="M8 26h1.28v6H8zM8 24h1.28v1H8zM5.28 24H4v8H7.32v-1H5.28v-7Z"/><path fill-rule="evenodd" d="M12.64 32c1.33 0 2.4-1.34 2.4-3s-1.07-3-2.4-3c-1.32 0-2.4 1.34-2.4 3s1.08 3 2.4 3Zm-.08-1.17c.68 0 1.23-.82 1.23-1.83 0-1.01-.55-1.83-1.23-1.83-.67 0-1.22.82-1.22 1.83 0 1.01.55 1.83 1.22 1.83Z" fill="#FAA621"/><path fill-rule="evenodd" d="M41.82 32c1.47 0 2.67-1.34 2.67-3s-1.2-3-2.67-3c-1.48 0-2.68 1.34-2.68 3s1.2 3 2.68 3Zm0-1.17c.75 0 1.36-.82 1.36-1.83 0-1.01-.61-1.83-1.36-1.83-.76 0-1.37.82-1.37 1.83 0 1.01.61 1.83 1.37 1.83Z" fill="#0D2D6C"/><path d="M52 23h-1.28v3.42a2.24 2.24 0 0 0-1.3-.42c-1.4 0-2.53 1.34-2.53 3s1.13 3 2.53 3c.48 0 .92-.15 1.3-.42V32H52v-9Zm-1.29 6c0 1.01-.57 1.83-1.29 1.83-.71 0-1.29-.82-1.29-1.83 0-1.01.58-1.83 1.3-1.83.7 0 1.28.82 1.28 1.83Z" fill="#0D2D6C"/><path fill-rule="evenodd" d="M20.11 31.42c-.3.2-1.11.6-1.86.58-.93-.03-2.73-.4-2.76-3.06-.02-2.65 1.82-2.91 2.46-2.94.64-.02 2.35.35 2.26 3.4h-3.42c0 .46.3 1.4 1.46 1.47.3 0 .98-.1 1.42-.42l.44.97Zm-3.34-3.1c.02-.4.27-1.2 1.09-1.21.8-.02 1 .8 1 1.2h-2.09Z" fill="#FAA621"/><path d="M22.29 32H21v-6h1.1l.11.65c.97-.98 1.86-.64 2.18-.35l-.43.95c-.77-.46-1.43.05-1.67.37V32ZM25.37 26v-1.21l1.28-.4V26h1.68l-.38 1h-1.3v3.25c0 .87.86.5 1.3.2l.44 1.01c-.65.48-1.3.56-1.55.54a1.41 1.41 0 0 1-1.47-1.4V27h-.88v-1h.88Z" fill="#FAA621"/><path d="M30.87 31.26 28.45 26h1.38l1.63 3.66 1.3-3.66h1.27l-2.24 6.18c-1.04 2.25-2.78 1.95-3.53 1.52l.33-1.07s.2.26.92.22c.73-.04 1.21-1.08 1.36-1.59ZM37.47 26.3l.85-1.16.8.6-.9 1.17-.75-.6Z" fill="#FAA621"/><path d="M36.46 30.02c1.24 0 2.24-.9 2.24-2 0-.46-.17-.88-.44-1.21l-.87 1.03a.9.9 0 0 1 .04.24c0 .52-.44.94-.99.94a.97.97 0 0 1-.98-.94c0-.52.44-.94.98-.94.1 0 .2.01.28.03l.76-.95c-.3-.14-.65-.22-1.02-.22-1.24 0-2.25.9-2.25 2.01 0 .6.3 1.15.77 1.52-.36.3-.84.97-.27 1.55-.3.17-.88.69-.85 1.42.03.91.95 1.51 2.8 1.5 1.84-.01 2.5-1.17 2.48-1.7 0-.53-.17-1.33-1.9-1.57-1.64-.24-1.72-.3-1.44-.8.2.06.43.1.66.1Zm-.07 2.95c-1.9-.26-1.35-1.1-.83-1.48.24.12.62.15 1 .18.64.05 1.28.1 1.3.57.03.6-.96.74-1.47.73Z" fill="#0D2D6C"/></svg>