<!-- by TradeStack --><svg width="56" height="56" viewBox="0 0 56 56" xmlns="http://www.w3.org/2000/svg"><path fill="#F0F3FA" d="M0 0h56v56H0z"/><path fill-rule="evenodd" d="M28 39.67a11.6 11.6 0 1 0 0-23.2 11.6 11.6 0 0 0 0 23.2Zm0 1.41a13 13 0 1 0 0-26.02 13 13 0 0 0 0 26.02Z" fill="#A9A9A7"/><path fill-rule="evenodd" d="M28 45a17 17 0 1 0 0-34 17 17 0 0 0 0 34Zm0-3.92a13 13 0 1 0 0-26.02 13 13 0 0 0 0 26.02Z" fill="#1A74B0"/><path d="M22.1 21a17.5 17.5 0 0 1 2.85-5.5l1.16.7c-.85 1.1-1.81 2.7-2.53 4.8H27v-5.23h1.43V21h3.42a18.95 18.95 0 0 0-2.13-4.85l1.24-.65a20.03 20.03 0 0 1 2.35 5.5h5.16v1.5h-4.82c.31 1.44.52 3.03.57 4.7h6.01v1.42h-6a22.7 22.7 0 0 1-.68 4.93h4.92V35h-5.3a27.07 27.07 0 0 1-2.24 5.4l-1.22-.7c.85-1.5 1.5-3.22 1.98-4.7h-3.26v5.36H27V35h-3.16a25 25 0 0 0 2.3 4.67l-1.18.77A26.14 26.14 0 0 1 22.33 35h-4.98v-1.45h4.53a19.81 19.81 0 0 1-.83-4.93h-5.47V27.2h5.47c.04-1.69.28-3.27.64-4.72h-4.34V21h4.75Zm1.05 1.5a20.72 20.72 0 0 0-.7 4.7H27v-4.7h-3.85Zm5.28 0v4.7h4.38a24.92 24.92 0 0 0-.6-4.7h-3.78Zm4.38 6.12h-4.38v4.93h3.67c.45-1.78.67-3.28.71-4.93ZM27 33.55v-4.93h-4.54c.07 1.65.34 3.14.89 4.93H27Z" fill="#A9A9A7"/><path fill="#A9A9A7" d="M19 24h18v8H19z"/><path d="M33.15 27.4V27H36v.4h-1V29h-.83v-1.6h-1.02ZM29.98 27.4V27h2.86v.4H31.8V29H31v-1.6h-1.02ZM27.87 29H27l1.14-2h1.08l1.14 2h-.88l-.79-1.5h-.02l-.8 1.5Zm-.11-.79h1.83v.37h-1.83v-.37ZM26 27.66a.3.3 0 0 0-.08-.1.49.49 0 0 0-.14-.08 1.36 1.36 0 0 0-.83 0 .6.6 0 0 0-.27.2c-.07.09-.1.2-.1.32s.03.23.1.32c.06.08.15.15.27.2a1.47 1.47 0 0 0 .81.03c.1-.03.18-.07.23-.13a.25.25 0 0 0 .08-.18l.16.01h-.82v-.34h1.45v.26a.6.6 0 0 1-.2.44c-.12.13-.3.22-.52.29-.22.07-.48.1-.77.1-.32 0-.6-.04-.85-.12-.24-.08-.43-.2-.57-.34a.76.76 0 0 1-.2-.54c0-.16.04-.3.12-.42.08-.13.2-.23.35-.32.14-.08.32-.15.51-.2a2.85 2.85 0 0 1 1.63.13c.13.05.23.12.31.2.08.09.13.18.15.27H26ZM23.36 27v2h-.81v-2h.81ZM20 29v-2h.82v1.6h1.4v.4H20Z"/></svg>