<!-- by TradeStack --><svg width="56" height="56" viewBox="0 0 56 56" xmlns="http://www.w3.org/2000/svg"><path fill="#F0F3FA" d="M0 0h56v56H0z"/><path d="M29.34 11c4.46.43 8.12 2.18 11 5.25a17.08 17.08 0 0 1 3.1 18.88A17.03 17.03 0 0 1 11 29v-2.03a16.9 16.9 0 0 1 5.06-11.13A16.9 16.9 0 0 1 26.65 11h2.69Zm-4.55 12.57c-1 .72-2.1 1.05-3.3 1a5.11 5.11 0 0 1-4.5-2.85c-.3-.58-.53-.9-.65-.98-.42-.25-.85-.2-1.3.15a.63.63 0 0 0-.17.2c-.37.68-.7 1.45-.98 2.3a13.4 13.4 0 0 0-.56 2.45c-.02.1 0 .18.02.27.16.54.48.84.96.88.15.01.51-.12 1.1-.4a5.11 5.11 0 0 1 5.3.34 5.05 5.05 0 0 1 2.1 2.74 5.06 5.06 0 0 1-.08 3.46 5.11 5.11 0 0 1-4.1 3.39c-.64.12-1.01.22-1.12.32-.37.32-.45.75-.26 1.28.03.09.07.16.14.23.53.56 1.16 1.11 1.89 1.64.73.54 1.45.97 2.15 1.3.08.03.16.05.25.06.57.01.95-.2 1.14-.65.06-.13.04-.52-.04-1.17a5.11 5.11 0 0 1 1.96-4.94A5.04 5.04 0 0 1 28 33.45c1.23 0 2.31.38 3.25 1.14a5.12 5.12 0 0 1 1.96 4.94c-.08.65-.1 1.04-.04 1.17.2.45.57.66 1.14.65.09 0 .18-.03.26-.07.7-.32 1.41-.75 2.15-1.29.73-.53 1.36-1.08 1.89-1.64.06-.07.1-.14.13-.23.2-.53.1-.96-.26-1.28-.1-.1-.48-.2-1.12-.32a5.1 5.1 0 0 1-4.1-3.4 5.06 5.06 0 0 1-.07-3.45 5.05 5.05 0 0 1 2.1-2.74 5.1 5.1 0 0 1 5.3-.34c.58.28.95.41 1.1.4.48-.04.8-.34.96-.88a.63.63 0 0 0 .02-.27c-.1-.76-.29-1.58-.57-2.44-.28-.86-.6-1.63-.97-2.3a.63.63 0 0 0-.18-.21c-.45-.35-.88-.4-1.3-.15-.12.08-.34.4-.65.98a5.11 5.11 0 0 1-4.49 2.84 5.04 5.04 0 0 1-3.3-1 5.05 5.05 0 0 1-1.97-2.83 5.12 5.12 0 0 1 1.32-5.15c.45-.47.69-.78.72-.93.1-.47-.07-.87-.54-1.18a.63.63 0 0 0-.25-.1c-.76-.15-1.59-.22-2.5-.22-.9 0-1.73.07-2.49.21a.63.63 0 0 0-.24.1c-.47.32-.65.72-.54 1.2.03.14.27.44.72.92a5.12 5.12 0 0 1 1.32 5.15 5.05 5.05 0 0 1-1.97 2.84Z" fill="#7DBAD7"/></svg>