<?xml version='1.0' encoding='utf-8'?>
<!-- by TradeStack -->
<svg width="56" height="56" viewBox="0 0 56 56" xmlns="http://www.w3.org/2000/svg"><path d="M56 0H0v56h56V0Z" fill="#F0F3FA" /><path d="M12 25H5v6h7v-6Z" fill="#F23A42" /><path d="M13 30.91c0 .06.03.09.08.09h2.84c.05 0 .08-.03.08-.09v-1.29c0-.05-.03-.09-.08-.09h-1.26c-.03 0-.04-.01-.04-.05v-4.4c0-.05-.03-.08-.08-.08h-1.46c-.05 0-.08.03-.08.09v5.82Zm4 0c0 .06.04.09.1.09h1.49c.06 0 .1-.03.1-.09V25.1c0-.06-.04-.09-.1-.09H17.1c-.06 0-.1.03-.1.09v5.82Zm5.75 0c-.02.05-.04.09-.1.09h-1.3c-.05 0-.09-.04-.1-.09L20 25.1c0-.05.02-.09.08-.09h1.3c.06 0 .1.04.11.09l.52 3.52h.02l.5-3.52c.02-.05.06-.09.11-.09h1.28c.07 0 .1.04.07.09l-1.24 5.82Zm2.25 0c0 .05.04.09.09.09h2.82c.05 0 .09-.04.09-.09v-.82c0-.05-.04-.09-.09-.09h-1.45c-.03 0-.05-.02-.05-.05v-1.3c0-.03.02-.05.05-.05h1.1c.05 0 .09-.04.09-.09v-1.07c0-.06-.04-.1-.1-.1h-1.09c-.03 0-.05-.01-.05-.05v-.98c0-.04.02-.06.05-.06h1.45c.05 0 .09-.03.09-.09V25.1c0-.05-.04-.09-.09-.09H25.1c-.05 0-.09.04-.09.09v5.82Zm5.52.09c-.75 0-1.2-.35-1.4-1.05A7.36 7.36 0 0 1 29 28c0-1.39.04-1.68.11-1.95.2-.7.66-1.05 1.4-1.05.94 0 1.44.6 1.49 1.56 0 .06-.02.1-.06.1l-1.02.2c-.04 0-.08-.03-.08-.09 0-.4-.1-.55-.31-.55-.13 0-.21.06-.26.2-.03.12-.04.2-.04 1.58 0 1.37.01 1.46.04 1.58.05.14.13.2.26.2.2 0 .3-.15.31-.55 0-.06.04-.09.08-.08l1.02.19c.04 0 .06.04.06.1-.05.97-.55 1.56-1.48 1.56Zm2.93-.09c0 .05.05.09.13.09h1.26c.08 0 .13-.04.13-.09V29c0-.04.02-.05.07-.05h.92c.05 0 .07.01.07.05v1.91c0 .05.05.09.13.09h1.4c.07 0 .12-.04.12-.09V25.1c0-.05-.05-.09-.12-.09h-1.4c-.08 0-.13.04-.13.09v2.32c0 .03-.02.05-.07.05h-.92c-.05 0-.07-.02-.07-.05v-2.32c0-.05-.05-.09-.13-.09h-1.26c-.08 0-.13.04-.13.09v5.82Zm5.62.09c-.05 0-.08-.04-.07-.09l1.26-5.82c.01-.05.04-.09.1-.09h1.3c.06 0 .1.04.1.09L43 30.9c.01.06-.02.09-.07.09h-1.16c-.06 0-.1-.04-.1-.09l-.16-.94H40.5l-.16.94c0 .05-.03.09-.09.09h-1.17ZM41 26.97 40.67 29h.67l-.32-2.03h-.01ZM44 30.9c0 .05.05.09.13.09h1.38c.08 0 .13-.04.13-.09V25.1c0-.05-.05-.09-.13-.09h-1.38c-.08 0-.13.04-.13.09v5.82Zm3.1.09c-.06 0-.1-.04-.1-.09V25.1c0-.05.04-.09.1-.09h1.39c.07 0 .11.04.13.09l1 3.34h.06V25.1c0-.05.03-.09.1-.09h1.12c.06 0 .1.04.1.09v5.82c0 .05-.04.09-.1.09h-1.36c-.07 0-.11-.04-.13-.09l-1.03-3.34h-.06v3.34c0 .05-.03.09-.1.09H47.1Z" fill="#2B2B2A" /></svg>