<!-- by TradeStack --><svg width="56" height="56" viewBox="0 0 56 56" xmlns="http://www.w3.org/2000/svg"><path fill="#F0F3FA" d="M0 0h56v56H0z"/><path d="M4 30v-4h1v3.27h1.75V30H4ZM8.42 26v4h-1v-4h1ZM13.15 27.42h-.92a.76.76 0 0 0-.3-.5.91.91 0 0 0-.29-.14c-.1-.04-.21-.05-.34-.05-.22 0-.41.05-.58.15-.16.1-.3.24-.38.43-.1.2-.14.42-.14.69 0 .28.05.51.14.7.09.19.22.33.38.43.17.1.36.14.58.14.12 0 .23-.01.33-.04s.2-.07.28-.13a.76.76 0 0 0 .32-.48h.92a1.4 1.4 0 0 1-.18.52c-.1.16-.22.3-.38.44-.16.13-.35.23-.57.3-.22.08-.46.12-.74.12a2.2 2.2 0 0 1-1.03-.24c-.3-.15-.54-.38-.71-.68-.17-.3-.26-.66-.26-1.08 0-.42.09-.79.26-1.08.18-.3.42-.53.72-.68a2.42 2.42 0 0 1 1.71-.14c.22.06.4.15.57.27a1.47 1.47 0 0 1 .6 1.05ZM13.72 26.73V26h3.53v.73H16V30h-1v-3.27h-1.28ZM22.19 27.43h-.89a.77.77 0 0 0-.3-.5.87.87 0 0 0-.26-.14 1.1 1.1 0 0 0-.33-.05.97.97 0 0 0-.93.58c-.1.19-.14.42-.14.69 0 .27.05.5.14.7a.96.96 0 0 0 .92.56c.12 0 .23-.01.33-.04s.19-.07.27-.13a.75.75 0 0 0 .3-.48h.89c-.03.18-.08.35-.17.52-.1.16-.22.3-.37.44-.15.13-.34.23-.55.3-.2.08-.45.12-.71.12-.37 0-.7-.08-1-.24a1.72 1.72 0 0 1-.68-.68c-.17-.3-.26-.65-.26-1.07 0-.43.09-.79.26-1.08.17-.3.4-.52.7-.68a2.06 2.06 0 0 1 1.65-.14c.2.06.38.16.54.28.16.12.3.26.4.44.1.17.16.37.19.6ZM24.26 30c-.31 0-.58-.06-.81-.19-.23-.12-.4-.3-.53-.52a1.6 1.6 0 0 1-.19-.79c0-.3.06-.56.19-.79.12-.22.3-.4.53-.52.23-.13.5-.19.81-.19.32 0 .59.06.82.19.23.12.4.3.53.52.12.23.18.5.18.8 0 .29-.06.55-.18.78-.13.22-.3.4-.53.52-.23.13-.5.19-.82.19Zm0-.62c.15 0 .27-.04.37-.12a.7.7 0 0 0 .21-.31c.05-.13.08-.28.08-.45 0-.17-.03-.32-.08-.46a.7.7 0 0 0-.21-.31.55.55 0 0 0-.36-.12.57.57 0 0 0-.37.12.7.7 0 0 0-.22.31 1.3 1.3 0 0 0-.07.46c0 .17.02.32.07.45a.7.7 0 0 0 .22.31c.1.08.22.12.37.12ZM26.41 30v-3h.84v.54h.03a.75.75 0 0 1 .75-.54 1.41 1.41 0 0 1 .27.02v.72a1.6 1.6 0 0 0-.36-.04.73.73 0 0 0-.34.07.6.6 0 0 0-.24.22c-.06.09-.08.2-.08.3V30h-.87ZM28.8 31v-4h.85v.53h.04c.04-.08.1-.16.17-.24a.86.86 0 0 1 .28-.2 1.23 1.23 0 0 1 1.07.08c.19.1.34.27.46.5.11.21.17.5.17.82 0 .33-.06.6-.17.83a1.19 1.19 0 0 1-1.52.6.88.88 0 0 1-.46-.44h-.02V31h-.87Zm.85-2.51c0 .17.02.32.07.45.06.13.13.23.23.3.1.07.21.1.35.1.14 0 .26-.03.36-.1.1-.07.17-.17.22-.3.05-.13.08-.28.08-.45 0-.17-.03-.31-.08-.44a.59.59 0 0 0-.58-.4.6.6 0 0 0-.35.1.66.66 0 0 0-.23.29 1.2 1.2 0 0 0-.07.45ZM33.88 30c-.32 0-.6-.06-.82-.19-.23-.12-.4-.3-.53-.52a1.6 1.6 0 0 1-.19-.79c0-.3.07-.56.19-.79.12-.22.3-.4.53-.52.23-.13.5-.19.82-.19.31 0 .58.06.8.19.24.12.42.3.54.52.12.23.19.5.19.8 0 .29-.07.55-.19.78-.12.22-.3.4-.53.52-.23.13-.5.19-.81.19Zm0-.62c.14 0 .26-.04.36-.12a.7.7 0 0 0 .21-.31c.05-.13.08-.28.08-.45 0-.17-.03-.32-.08-.46a.7.7 0 0 0-.21-.31.55.55 0 0 0-.36-.12.57.57 0 0 0-.37.12.7.7 0 0 0-.22.31 1.3 1.3 0 0 0-.07.46c0 .17.03.32.07.45a.7.7 0 0 0 .22.31c.1.08.22.12.37.12ZM36.02 30v-3h.84v.54h.03a.75.75 0 0 1 .75-.54 1.4 1.4 0 0 1 .27.02v.72a1.6 1.6 0 0 0-.36-.04.73.73 0 0 0-.34.07.6.6 0 0 0-.24.22c-.05.09-.08.2-.08.3V30h-.87ZM39.21 30c-.2 0-.37-.03-.53-.1a.84.84 0 0 1-.37-.29.82.82 0 0 1-.13-.48c0-.16.03-.3.1-.4.06-.11.15-.2.25-.27.11-.07.24-.12.38-.15.14-.04.29-.06.44-.07l.44-.05c.1-.02.19-.04.24-.07a.16.16 0 0 0 .07-.14v-.02a.34.34 0 0 0-.12-.27.52.52 0 0 0-.34-.1.63.63 0 0 0-.37.1.45.45 0 0 0-.18.23l-.8-.06a.99.99 0 0 1 .24-.46c.12-.13.27-.23.46-.3a2.12 2.12 0 0 1 1.15-.05c.16.04.3.1.42.18.13.08.23.18.3.3.07.13.14.28.14.45V30h-.85v-.46h-.03a.83.83 0 0 1-.5.4c-.12.04-.25.06-.4.06Zm.25-.56c.13 0 .24-.02.34-.07.1-.05.17-.11.23-.2a.47.47 0 0 0 .08-.27v-.3a.48.48 0 0 1-.11.04 2.13 2.13 0 0 1-.33.07l-.16.02c-.1.01-.2.03-.27.06a.42.42 0 0 0-.17.13.29.29 0 0 0-.07.19c0 .1.05.19.13.25.09.05.2.08.33.08ZM43.26 27v.64h-1.88V27h1.88Zm-1.45-.66h.86v2.71c0 .07.01.13.04.17a.2.2 0 0 0 .1.09c.04.02.1.02.15.02a.79.79 0 0 0 .22-.02l.13.6a2.58 2.58 0 0 1-.46.07c-.21.01-.4-.02-.55-.07a.75.75 0 0 1-.36-.28.8.8 0 0 1-.13-.47v-2.82ZM44 30v-3h.83v3H44Zm.4-3.34a.49.49 0 0 1-.33-.12.38.38 0 0 1 0-.57c.1-.08.2-.12.33-.12s.24.04.33.12c.09.08.14.17.14.28 0 .12-.05.21-.14.3a.48.48 0 0 1-.33.11ZM46.98 30c-.31 0-.58-.06-.81-.19-.23-.12-.4-.3-.53-.52a1.6 1.6 0 0 1-.19-.79c0-.3.06-.56.19-.79.12-.22.3-.4.53-.52.23-.13.5-.19.81-.19.32 0 .59.06.82.19.23.12.4.3.53.52.12.23.18.5.18.8 0 .29-.06.55-.18.78-.13.22-.3.4-.53.52-.23.13-.5.19-.82.19Zm0-.62c.15 0 .27-.04.37-.12a.7.7 0 0 0 .21-.31c.05-.13.08-.28.08-.45 0-.17-.03-.32-.08-.46a.7.7 0 0 0-.22-.31.55.55 0 0 0-.35-.12.57.57 0 0 0-.37.12.7.7 0 0 0-.22.31 1.3 1.3 0 0 0-.07.46c0 .17.02.32.07.45a.7.7 0 0 0 .22.31c.1.08.22.12.37.12ZM50 28.26V30h-.87v-3H50v.55a.8.8 0 0 1 .34-.4c.16-.1.36-.15.59-.15.21 0 .4.04.56.13.16.09.29.22.38.38.09.16.13.36.13.58V30h-.86v-1.76a.56.56 0 0 0-.15-.42.54.54 0 0 0-.4-.15.66.66 0 0 0-.31.07.5.5 0 0 0-.21.2.67.67 0 0 0-.07.32Z" fill="#377DF6"/></svg>