<!-- by TradeStack --><svg width="56" height="56" viewBox="0 0 56 56" xmlns="http://www.w3.org/2000/svg"><path fill="#F0F3FA" d="M0 0h56v56H0z"/><path d="M22.49 30.73c.19-.09.39-.18.61-.26 1.38-.47 3.77-1.1 4.9-2.8-2.05.06-3.85 1.77-4.98 2.69-.18.15-.36.27-.53.37Z" fill="#6DB131"/><path d="M14 14v28h22.98c-2.15-1.19-3.73-4.67-3.73-4.67l1.4-.5s2.9 4.74 4.94 5.16H42V14H14Zm15.18 25.76c-3.17.78-4.16-1.37-4.16-1.37l-.04-.09-.07.06s-1.98 1.3-4.25-1.03c0 0-2.19-2.53.35-5.5 0 0 .35-.42 1.01-.84-.7.35-1.25.42-1.25.42-3.87.58-4.86-2.6-4.86-2.6-.78-3.17 1.37-4.16 1.37-4.16l.08-.02-.05-.09s-1.3-1.98 1.04-4.25c0 0 2.53-2.18 5.5.36 0 0 .42.34.83 1-.35-.7-.42-1.25-.42-1.25-.58-3.86 2.6-4.86 2.6-4.86 3.17-.77 4.17 1.37 4.17 1.37l.03.08.07-.04s1.98-1.3 4.26 1.03c0 0 2.18 2.53-.36 5.5 0 0-.71.88-2.1 1.35-1.37.48-3.78 1.1-4.9 2.82l.01.01c.04 2.06 1.76 3.86 2.68 5 .93 1.13 1.06 2.25 1.06 2.25.58 3.86-2.6 4.85-2.6 4.85Zm9.63-9.09-.09.02.06.09s1.29 1.98-1.04 4.25c0 0-2.53 2.18-5.5-.36 0 0-.89-.7-1.36-2.08-.47-1.4-1.1-3.8-2.82-4.92v-.03c2.06-.04 3.87-1.75 5-2.68a4.85 4.85 0 0 1 2.26-1.05 4.16 4.16 0 0 1 4.86 2.6c.77 3.16-1.37 4.16-1.37 4.16Z" fill="#6DB131"/><path d="M24.94 22.11c.09.2.18.4.26.62.47 1.38 1.1 3.77 2.8 4.9-.05-2.04-1.76-3.84-2.68-4.98a5.12 5.12 0 0 1-.38-.54ZM24.68 21.66Z" fill="#6DB131"/><path d="M28.84 24.91c.38-.35.42-.62 2.58-1.12 2.17-.51 2.94-1.77 2.94-1.77 1.3-2.37-.04-3.48-.04-3.48-1.77-1.88-3.74.28-3.74.28s-.53-2.87-3.02-2.22c0 0-1.72.24-1.88 2.93 0 0 0 1.5 1.57 3.06 1.57 1.57 1.46 1.83 1.59 2.32ZM25.5 26.8c-.35-.38-.63-.43-1.13-2.6-.5-2.16-1.77-2.93-1.77-2.93-2.37-1.3-3.48.04-3.48.04-1.87 1.77.3 3.74.3 3.74s-2.89.53-2.24 3.02c0 0 .24 1.72 2.94 1.88 0 0 1.48.01 3.05-1.56 1.57-1.57 1.83-1.46 2.33-1.6ZM39.07 26.99s-.24-1.72-2.93-1.88c0 0-1.49 0-3.06 1.56-1.57 1.57-1.83 1.46-2.32 1.6.34.38.63.42 1.13 2.58.5 2.16 1.77 2.94 1.77 2.94 2.36 1.29 3.48-.05 3.48-.05 1.87-1.76-.3-3.73-.3-3.73s2.88-.53 2.23-3.02ZM27.38 30.13c-.38.35-.42.63-2.59 1.13-2.16.5-2.94 1.77-2.94 1.77-1.29 2.37.04 3.48.04 3.48 1.78 1.87 3.75-.29 3.75-.29s.52 2.88 3.02 2.22c0 0 1.72-.24 1.87-2.93 0 0 .01-1.48-1.56-3.05-1.57-1.57-1.46-1.83-1.6-2.33Z" fill="#E57F14"/></svg>