<!-- by TradeStack --><svg width="56" height="56" viewBox="0 0 56 56" xmlns="http://www.w3.org/2000/svg"><path fill="#F0F3FA" d="M0 0h56v56H0z"/><path d="M7 21v13h9v-1.45H8.62V21H7Z" fill="#003F4A"/><path d="M18.47 21H17v1.46h1.47V21Z" fill="#C18E2D"/><path d="M18.46 24H17v10h1.46V24ZM32 21v13h1.65v-6H40v-1.55h-6.35v-3.8H40V21h-8Zm9 0v1.56h4V34h1.64V22.56H51V21H41Z" fill="#003F4A"/><path d="M25.63 27.63 30.5 26h-7.55l2.24 3.42L20.35 31h7.52l-2.24-3.37Z" fill="#4BA5B2"/><path d="M45.77 36.8v-1.47h1c.3 0 .46.05.59.18.12.13.19.32.19.55 0 .23-.07.42-.2.55-.12.13-.28.18-.58.18h-1Zm0 .3h1.03c.45 0 .6.28.64.94l.04.44c.01.18.03.38.09.52H48c-.15-.15-.18-.34-.2-.63l-.03-.5c-.04-.48-.15-.8-.42-.94.36-.2.52-.47.52-.93 0-.34-.1-.6-.27-.76-.19-.18-.4-.24-.77-.24h-1.4v4h.34v-1.9ZM44.8 35h-2.2v4h2.24v-.33h-1.91V37.1h1.72v-.3h-1.72v-1.47h1.87V35Zm-5.46 4 .54-2.5.22-1.01.22.94.6 2.57h.36l.83-4h-.33l-.46 2.35a57.28 57.28 0 0 1-.22 1.16l-.12-.48c-.05-.23-.1-.48-.17-.72L40.28 35h-.38l-.5 2.35-.22 1-.04.15-.24-1.15-.48-2.35h-.33l.87 4h.37Zm-3.06-3.67c.35 0 .7.18.9.5.2.29.3.69.3 1.19 0 .99-.48 1.65-1.2 1.65-.73 0-1.2-.66-1.2-1.68 0-.47.1-.89.3-1.17.1-.15.24-.28.4-.36.15-.09.32-.13.5-.13Zm0-.33c-.92 0-1.53.8-1.53 2s.61 2 1.53 2c.9 0 1.53-.8 1.53-1.97 0-1.24-.6-2.03-1.53-2.03Zm-3.94 1.83v-1.5h.8c.32 0 .5.05.64.17.13.13.2.33.2.58 0 .52-.25.75-.84.75h-.8Zm0 .33h.93c.38 0 .59-.07.77-.25.19-.19.27-.46.27-.83 0-.37-.08-.64-.27-.83-.18-.18-.39-.25-.77-.25H32v4h.33v-1.84Z" fill="#003F4A"/></svg>