<?xml version='1.0' encoding='utf-8'?>
<!-- by TradeStack -->
<svg width="56" height="56" viewBox="0 0 56 56" xmlns="http://www.w3.org/2000/svg"><path fill="#F0F3FA" d="M0 0h56v56H0z" /><path d="M37.4 13a11.52 11.52 0 0 1 3.43 4.94c.76 1.83.95 3.74 1.12 5.72.06 1.5.12 3.27-.16 4.78-.5 3.35-1.5 6.72-2.68 9.86-.48.76-.89 1.7-1.24 2.53-1.34 2.78-4.3 4.35-7.08 5-2.05.24-4.3.34-6.13-.51a11.2 11.2 0 0 1-5.67-5.14c-.96-2.02-1.08-4.58-.88-6.94.03-.45-.1-.85-.48-1.1-1.15-.9-3.3-.8-3.48-2.81-.34-1.16-.03-2.42.13-3.56.54-2.52 1.48-4.86 2.4-7.22.91-2.16 2.03-4.29 3.86-5.97a12.65 12.65 0 0 1 5.27-2.27 16.1 16.1 0 0 1 5.19-.2c2.23.35 4.7 1.24 6.4 2.9Zm-8.7-1c-2.7 0-4.75.71-6.9 1.95-1.15 2.78-3.26 5.37-3.95 8.32a21.07 21.07 0 0 0-1.38 4.4c-.14.6-.14 1.23-.18 1.86.02 1.17 2.2 1.53 2.93 1.96.77.32 1.16 1.2 1.47 1.93.23.68.08 1.52.12 2.25a8.74 8.74 0 0 0 .8 4.97c1.18 1.85 3 3.4 4.91 4.02 1.01.42 2.21.25 3.3.27 1.03.12 2.7-1.24 3.47-1.83 1.13-.78 2.07-2 2.6-3.22 2.03-3.55 3.91-9.1 3.82-13.36-.02-2.69-.15-5.38-1.19-7.65a9.16 9.16 0 0 0-3.1-4A12.16 12.16 0 0 0 28.7 12Z" fill="#8FB130" /><path d="M26.96 15.6c.88-.36 1.87-.5 2.86-.6a6.3 6.3 0 0 1 3.4 1.09c.61.46 1.28.92 1.7 1.52-.03.07.07.08.08.13 0 .73-.26 1.21-1.22 1.26-.51-.3-.78-.78-1.22-1.16-1.02-.94-2.31-1.64-3.79-1.27-.84.21-1.82.48-2.68.58 0-.1-.27-.66.1-1.16-.04-.03.6-.34.77-.4ZM32.18 33.33c.19-.13.44-.16.62-.32.09-.04.1.07.19.03-.3.2-.21 1.35.01 1.57-.59.45-1.14 1.03-1.78 1.4-.79.65-2.03.96-3.04.99A9.21 9.21 0 0 1 23 35.3c1.15-.71.44-1.04 2.6-.68 1.34.33 3.01.54 4.33 0 .8-.31 1.62-.62 2.25-1.29Z" fill="#8FB130" /><path d="M29.9 18.02c.25-.1.46.15.7.2.47.28.4.65.4 1-.2.18-.9 1.63-1.08 1.64-.21.28-.6.06-.88.01-.52-.07-1.16-.6-1.02-1.11.77-.46.13-1.06 1.2-1.55 0 0 .68-.17.68-.19Z" fill="#8FB130" /></svg>