<!-- by TradeStack --><svg xmlns="http://www.w3.org/2000/svg" width="56" height="56" viewBox="0 0 56 56"><path fill="url(#adlxzq015)" d="M0 0h56v56H0z"/><path d="M29.69 21.64A5.86 5.86 0 0 0 33 16.26c0-3.08-2.45-5.26-5.63-5.26C24.2 11 22 13.42 22 16.5c0 .6.31 1.84.51 3.03.2 1.18 1.05 1.98-1.01 6.81-.97 2.28-3.78 5.48-5.24 6.26A3.9 3.9 0 0 0 14 36.05c0 2.13 1.53 3.95 3.72 3.95a4 4 0 0 0 3.4-1.94c.44-.65 2.66-1.06 5.33-1.06 3.2 0 6.05 2.7 6.9 3.33 1.07.82 2.39 1.67 3.9 1.67A5.63 5.63 0 0 0 43 36.27c0-3.09-2.58-5.27-5.75-5.27-1.62 0-2.83.84-4.1 1.68-.79.52-3.61 2.32-6.72 2.32s-5.25-1.48-5.36-1.76a1.32 1.32 0 0 1-.07-.47c0-.96.65-2.2 1.51-4.16 2.56-5.78 6.2-6.5 7.18-6.97Z" fill="#149A68"/><path d="M23 16c2.06-3.22 5.25-3.9 8-3a4.7 4.7 0 0 0-3.03-.97c-2.25 0-4.54 1.39-4.97 3.97ZM33 34c1.2-.65 2.88-1 4.28-1 1.64 0 3.52.58 4.72 1.58-.62-1.54-2.79-2.58-4.72-2.58-1.54 0-3.36.57-4.28 2ZM15.1 36.07c.37-1.82 2.14-2.8 3.9-2.72a1.8 1.8 0 0 0-1.08-.35C16.25 33 15 34.39 15 35.55c0 .14.04.45.1.52Z" fill="#fff"/><defs><linearGradient id="adlxzq015" x1="10.42" y1="9.71" x2="68.15" y2="76.02" gradientUnits="userSpaceOnUse"><stop stop-color="#1A1E21"/><stop offset="1" stop-color="#06060A"/></linearGradient></defs></svg>