<!-- by TradeStack --><svg width="56" height="56" viewBox="0 0 56 56" xmlns="http://www.w3.org/2000/svg"><path fill="#F0F3FA" d="M0 0h56v56H0z"/><path fill="#143755" d="M11 24h1.4v8H11zM32.6 24H34v8h-1.4zM5.4 24H4v8h5v-1.3H5.4V24ZM15 24v8h1.4v-5.64L20.78 32H22v-8h-1.4v5.56L16.3 24H15ZM45 24v8h1.4v-5.64L50.78 32H52v-8h-1.4v5.56L46.3 24H45ZM23.74 24h3.06a4 4 0 0 1 0 8h-3.06v-1.93a2.03 2.03 0 0 0 1.26.01v.63h1.65a2.72 2.72 0 1 0 0-5.44H25v.78a2.03 2.03 0 0 0-1.26 0V24Z"/><ellipse cx="24.41" cy="28.07" rx="1.52" ry="1.55" fill="#FFAF4B"/><path d="m35.56 32 3.41-8h1.26l3.43 8h-1.48l-.72-1.73H37.7L36.98 32h-1.42Zm2.67-3h2.7l-1.35-3.25L38.23 29Z" fill="#143755"/></svg>