<!-- by TradeStack --><svg width="56" height="56" viewBox="0 0 56 56" xmlns="http://www.w3.org/2000/svg"><path fill="#F0F3FA" d="M0 0h56v56H0z"/><path d="M10 23H8v10h6v-2h-4v-8Zm6 0h2v10h-2z" fill="#006CB7"/><path fill-rule="evenodd" d="M41 33h2l.83-2h3.34l.83 2h2l-4.5-10L41 33Zm5.33-4-.83-2-.83 2h1.66Z" fill="#006CB7"/><ellipse cx="34.5" cy="28.6" rx="5.5" ry="5.6" fill="#006CB7"/><path fill-rule="evenodd" d="M29.28 28.6a5.32 5.32 0 0 0 3.24 4.93c-.01.3 0 .62.06.81.04.13.1.4.16.71.14.72.33 1.67.52 1.67.14 0 .1-.17.07-.35-.03-.17-.07-.35.07-.35.28 0 .41.14.41.42 0 .28 0 .56.28.56.27 0 .14-.7 0-1.12-.1-.32.03-.31.35-.3l.34.02h1.92c.14 0 .41 0 .28-.42-.07-.21-.07-.38-.07-.58 0-.19 0-.4-.07-.68l-.11-.5c1.77-.86 3-2.7 3-4.82a5.27 5.27 0 0 0-5.23-5.32 5.27 5.27 0 0 0-5.22 5.32Zm3.65 2.76-.1.46a3.62 3.62 0 0 1-1.4-1.35l.05-.05c.13-.14.27 0 .4.14.09.08.12.02.16-.04.03-.05.06-.1.12-.1h.42v.28c0 .3.2.54.35.66Zm3.24-.68.2 1.02c.51-.32.93-.76 1.23-1.28h-1.17l-.26.26Zm1.81-1.24a3.6 3.6 0 0 0-3.48-4.48 3.6 3.6 0 0 0-3.57 3.88.3.3 0 0 1 .13.04c.22.11.37.23.42.28.04-.23.22-.7.55-.7-.14-.19-.33-.64 0-.98.4-.42.96-.7 1.5-.28v-.42h.7l-.14-.28h.41l.28-.7.4.28-.4.14.13.42h.28l.55-.7.27.42h-.41v.42h.28c.27-.23.88-.59 1.1-.14.22.45 0 .84-.14.98.14-.05.38-.03.27.42.19.1.55.36.55.7 0 .21-.07.35-.12.45-.05.11-.08.18-.01.25h.45Z" fill="#F0F3FA"/><path fill-rule="evenodd" d="m32.8 31.87.06.03.12-.5H33l.28-.97.13-.4h2.44l.26.68.2 1 .02.08.07-.04a3.64 3.64 0 0 0 1.63-2.33 3.66 3.66 0 0 0-3.54-4.52 3.66 3.66 0 0 0-3.62 3.95v.05h.02c.02.37.15.97.44 1.53a3 3 0 0 0 1.15 1.25l.31.19Zm.03-.09-.31-.15c-.44-.3-.82-.7-1.09-1.16l.05-.05c.13-.14.27 0 .4.14.09.08.12.02.16-.04.03-.05.06-.1.12-.1h.42v.3c0 .29.2.52.35.64l-.1.42Zm-.2-1.05c.01.25.2.47.33.58l.02.02.17-.6h-.52Zm0-.06h.53l.07-.24-.54-.27v-.45l.4-.52-.06-.56h-.27l.08-.05c.32-.22.64-.55.77-.7.05-.17.09-.38.08-.58a.74.74 0 0 0-.1-.4v.41l-.09-.07a.84.84 0 0 0-.76-.16c-.24.07-.47.23-.68.44a.57.57 0 0 0-.16.5c.03.17.1.32.17.4l.07.1h-.11c-.14 0-.25.1-.34.23-.09.14-.14.3-.16.42l-.02.1-.07-.07a1.72 1.72 0 0 0-.49-.3 4.08 4.08 0 0 0 .45 1.52l.04-.04a.23.23 0 0 1 .13-.07c.05 0 .1 0 .14.02.07.04.15.12.21.19a.1.1 0 0 0 .03.02h.02l.02-.05.06-.08a.16.16 0 0 1 .11-.05h.47v.31Zm.9-3.85v.38a1.26 1.26 0 0 0-.05-.04c-.53-.36-1.06-.09-1.45.32-.3.3-.17.71-.04.93l.04.05h-.07c-.26.06-.41.4-.47.64l-.01.06a1.97 1.97 0 0 0-.41-.28.3.3 0 0 0-.14-.04v-.24a3.6 3.6 0 0 1 3.57-3.64 3.6 3.6 0 0 1 3.56 3.92h-.01a2.65 2.65 0 0 1-.07.56h-.45c-.07-.07-.04-.14.01-.25.05-.1.12-.24.12-.45 0-.34-.36-.6-.55-.7.1-.36-.05-.44-.18-.44l-.1.02a.87.87 0 0 0 .14-.98c-.21-.45-.82-.1-1.1.14h-.27v-.42h.41l-.27-.42-.55.7h-.25l-.03-.01-.13-.41.4-.14-.4-.28-.28.7h-.04l-.1-.03h-.32l.02.05c.05.06.1.15.14.26h-.62l-.02-.02-.04.04.02.02Zm.09.02c.09.13.12.29.13.46a2.14 2.14 0 0 1-.17.84l.5-.12c.2-.28.25-.58.21-.85a1.57 1.57 0 0 0-.07-.33h-.6Zm.66 0c.03.1.06.2.07.32.03.27-.01.57-.2.85a3.23 3.23 0 0 1 1.24.14c.24.09.46.21.62.4.14-.25.35-.84.25-1.47l-1.32-.38h-.07v-.02l-.41-.12h-.28l.13.28h-.03Zm.27-.31.3.08-.14-.43.35-.12-.26-.18-.25.65Zm.59.17.4.11v-.5h.37l-.18-.28-.52.67h-.07Zm.48.14.7.2v.02a2.6 2.6 0 0 1-.27 1.53c.16.12.21.32.22.52 0 .2-.04.4-.09.53l.41.2v.03c-.04.2-.1.37-.15.5h1.2c.16-.3.26-.6.33-.87h-.47l-.01-.02a.19.19 0 0 1-.05-.08v-.08c0-.05.03-.1.05-.14v-.01a.9.9 0 0 0 .12-.43.6.6 0 0 0-.2-.4c-.1-.12-.23-.2-.32-.25l-.04-.02.01-.04c.05-.22.01-.3-.03-.34-.04-.04-.11-.04-.17-.02l-.06-.09c.13-.13.33-.5.13-.91a.3.3 0 0 0-.2-.18.5.5 0 0 0-.27.02c-.2.06-.41.2-.55.31l-.01.02h-.28Zm1.21 4.52a3.64 3.64 0 0 0 .77-.94h-1.17l-.04.03-.02.04a.68.68 0 0 1-.19.22l.19.93v.06l.05-.03v-.01l.41-.3Zm-.48-.94a2 2 0 0 0 .18-.54l-.5-.26-.13.38.25.62.2-.2Zm-2.26-2.35-.6.15.02-.05.06-.16c-.14.15-.38.38-.63.56h1.27l.2-.52c-.12 0-.23 0-.32.02Zm.38-.01-.2.51h.49l.16-.47a2.42 2.42 0 0 0-.45-.04Zm.5.04-.16.47h.5l.04-.37a2.55 2.55 0 0 0-.38-.1Zm.43.12-.04.35h.6a1.36 1.36 0 0 0-.56-.35Zm.6.4h-1.85c.1.15.25.45.27.9a.6.6 0 0 1 .17-.14c.09-.06.2-.1.32-.1.06 0 .14 0 .23.02a4.84 4.84 0 0 1 .85.26v-.02l.14.07c.05-.13.09-.31.08-.5 0-.2-.06-.38-.2-.48Zm-.03.99a10.19 10.19 0 0 0-.84-.25l-.22-.03a.6.6 0 0 0-.3.1 1 1 0 0 0-.2.16 2.57 2.57 0 0 1-.02.38h1.47l.11-.36Zm-1.63.36.02-.18-.7-.73v.91h.68Zm-.73 0V29l-.16-.16-.66.83c.13-.02.36.04.62.3h.2Zm-.24.04c-.3-.3-.54-.3-.63-.27v.38l.5.26.13-.37Zm.04-1.21-.16-.17h-.16l.06.5.26-.33Zm-.08-.17 1.03 1.08v-.13c0-.52-.18-.84-.28-.95h-.75Z" fill="#232021"/><path d="M29.28 28.6a5.32 5.32 0 0 0 3.24 4.93c-.01.3 0 .62.06.81.04.13.1.4.16.71.14.72.33 1.67.52 1.67.14 0 .1-.17.07-.35-.03-.17-.07-.35.07-.35.28 0 .41.14.41.42 0 .28 0 .56.28.56.27 0 .14-.7 0-1.12-.1-.32.03-.31.35-.3l.34.02h1.92c.14 0 .41 0 .28-.42-.07-.21-.07-.38-.07-.58 0-.19 0-.4-.07-.68l-.11-.5c1.77-.86 3-2.7 3-4.82a5.27 5.27 0 0 0-5.23-5.32 5.27 5.27 0 0 0-5.22 5.32Zm3.3 4.93v-.04l-.04-.02a5.27 5.27 0 0 1-3.21-4.87c0-2.9 2.32-5.26 5.17-5.26a5.22 5.22 0 0 1 5.17 5.26c0 2.1-1.21 3.92-2.97 4.76l-.04.02.01.05.11.5c.07.28.07.48.07.67 0 .2 0 .38.07.6.04.1.04.17.04.21a.19.19 0 0 1-.05.1.2.2 0 0 1-.1.03h-2.36v-.01h-.21c-.06 0-.12 0-.16.02a.16.16 0 0 0-.08.14c0 .06 0 .12.04.2.06.22.13.49.15.71 0 .11 0 .2-.02.27a.14.14 0 0 1-.03.06.07.07 0 0 1-.05.01.2.2 0 0 1-.13-.03.2.2 0 0 1-.06-.1 1.3 1.3 0 0 1-.03-.37c0-.15-.04-.27-.12-.35-.08-.09-.2-.13-.35-.13a.14.14 0 0 0-.12.05.2.2 0 0 0-.03.12l.03.25a1 1 0 0 1 .03.23l-.02.04-.03.01-.03-.02a.47.47 0 0 1-.06-.1c-.05-.1-.09-.24-.14-.4l-.24-1.1a8.57 8.57 0 0 0-.16-.72 2.42 2.42 0 0 1-.05-.8Z" fill="#232021"/><path d="M27 23.42A4.98 4.98 0 0 0 20 28a5 5 0 0 0 7 4.58v-2.34a3 3 0 1 1 0-4.47v-2.35Z" fill="#006CB7"/></svg>