<!-- by TradeStack --><svg width="56" height="56" viewBox="0 0 56 56" xmlns="http://www.w3.org/2000/svg"><path fill="#F0F3FA" d="M0 0h56v56H0z"/><path d="M15 18h-1v2h1v-2Zm0 3h-1v7h1v-7Zm-7 7v-9h1v8h4v1H8Zm21-10h1v2h-1v-2Zm0 3h1v7h-1v-7Zm-11 1v4.1c0 1.05.8 1.9 1.79 1.9H21v-1h-.95A1.1 1.1 0 0 1 19 25.92V22h2v-1h-2v-2h-1v2h-1v1h1Zm4 6V18h1v3.65c.2-.3.5-.65.98-.65h1.52c.99 0 1.5.79 1.5 1.76V28h-1v-5.12c0-.54-.17-.88-.72-.88h-1.3c-.27.02-.83.17-.98.96V28h-1Zm15 0v-7h-1v5.04c-.15.8-.7.94-.98.96h-1.3c-.55 0-.72-.34-.72-.88V21h-1v5.24c0 .97.51 1.76 1.5 1.76h1.52c.48 0 .79-.35.98-.65V28h1Zm2-7v7h1v-5.04c.15-.8.7-.94.98-.96h1.3c.55 0 .72.34.72.88V28h1v-5.04c.15-.8.7-.94.98-.96h1.3c.55 0 .72.34.72.88V28h1v-5.24c0-.97-.51-1.76-1.5-1.76h-1.52c-.63 0-.96.6-1.12.9l-.01.02A1.38 1.38 0 0 0 42.5 21h-1.52c-.48 0-.79.35-.98.65V21h-1Z" fill="#2FA5D7"/><path fill-rule="evenodd" d="M38 29v10h1v-5.02c.14-.8.67-.96.94-.98h1.16c.52 0 .9.34.9.88V39h1v-5.24c0-.97-.76-1.76-1.7-1.76h-1.36c-.47 0-.76.36-.94.66V29h-1Zm-4 4v4.1c0 1.05.83 1.9 1.86 1.9H37v-1h-.87c-.57 0-1.13-.5-1.13-1.08V33h2v-1h-2v-2h-1v2h-1v1h1Zm-2-1v6.97c-.06.05-.7.02-1 0v-.69c-.18.31-.47.72-.96.72h-1.36c-.93 0-1.68-.79-1.68-1.76V32h1v5.12c0 .54.37.88.89.88h1.15c.28-.02.86-.19.95-1.14l.01.05V32h1Zm-20 5.21v-.94h1v.6c0 .65.73 1.13 1.42 1.13h1.16c.7 0 1.42-.48 1.42-1.14v-.89c0-.73-2-1.02-2.95-1.1l-.18-.01c-1-.05-1.87-1.26-1.87-2.2v-.87c0-.99.84-1.79 1.87-1.79h2.26c1.03 0 1.87.8 1.87 1.79v.86h-1v-.84a.81.81 0 0 0-.81-.81h-2.42c-.46 0-.77.37-.77.81v.72c0 .77.66 1.4 1.46 1.45.13.01.27.02.4.05l.46.06c.4.05.92.1 1.35.23A1.8 1.8 0 0 1 18 36.07v1.14c0 .99-.84 1.79-1.87 1.79h-2.26c-1.03 0-1.87-.8-1.87-1.79Zm8-3.84c0-.76.6-1.37 1.32-1.37h2.36c.73 0 1.32.61 1.32 1.37v4.26c0 .76-.6 1.37-1.32 1.37h-2.36c-.73 0-1.32-.61-1.32-1.37v-4.26Zm1 .58c0-.52.41-.95.92-.95h1.16c.5 0 .92.43.92.95v3.1c0 .52-.41.95-.92.95h-1.16a.94.94 0 0 1-.92-.95v-3.1Z" fill="#F2AD07"/></svg>