<!-- by TradeStack --><svg width="56" height="56" viewBox="0 0 56 56" xmlns="http://www.w3.org/2000/svg"><path fill="#F0F3FA" d="M0 0h56v56H0z"/><path d="M21.95 13.86c.03-.24.07-.48.13-.73.13-.5.47-.83 1.04-1 .33-.1.84-.16 1.5-.16.83 0 1.74.03 2.71.06.26 0 .48.04.68.1.26.06.39.29.38.67a90894 90894 0 0 0-.36 14.4c0 .04.01.04.04 0l2.17-3.18a.38.38 0 0 0 .06-.21l.27-10.83c.02-.53.3-.81.87-.84h.82c.03 0 .04 0 .04-.03l.02-.8c0-.02-.01-.03-.03-.03L21.19 11c-.02 0-.03 0-.03.03l-.11 4.5c0 .03.01.04.05.04l.7.02c.03 0 .04-.01.04-.04.01-.56.05-1.12.1-1.69Zm11.63-.17c.3-.24.57-.42.83-.55.28-.13.6-.14.95-.02.3.1.6.28.87.52.3.26.61.56.94.9.53.54 1.03 1.06 1.5 1.57.17.18.32.36.45.55.17.26.12.52-.16.79l-10.3 10c-.04.03-.03.05.01.04l3.77-.73a.35.35 0 0 0 .19-.1l7.7-7.48c.32-.3.61-.39.9-.25a3.11 3.11 0 0 1 .91.8c.02.03.05.03.07 0l.57-.54v-.05l-7.7-8.05c-.01-.02-.03-.02-.04 0l-3.21 3.11c-.03.03-.03.05 0 .07l.47.5c.03.03.05.03.08 0 .36-.36.76-.72 1.2-1.08Zm-14.21.6c-.31.33-.4.63-.28.9.06.15.15.28.25.39l7.33 7.86c.05.05.08.11.09.17l.68 3.83c0 .04 0 .05-.03.02a4126.04 4126.04 0 0 1-9.88-10.59c-.24-.24-.5-.25-.78-.05l-.54.45c-.62.59-1.28 1.22-1.97 1.9-.44.43-.73.81-.89 1.15-.23.5-.21.96.05 1.4.3.5.8 1.11 1.49 1.84.02.02.01.03 0 .05l-.53.5h-.05l-3.06-3.29v-.05l8.1-7.65c0-.02.02-.02.03 0l.55.59c.02.01.02.03 0 .05-.2.18-.4.36-.56.54Zm24.15 16.35c.22.08.36.24.43.5a3.85 3.85 0 0 1 .05 1.12c0 .02.01.03.03.03l.81.02.02-.02L45 21.1c0-.03-.02-.04-.05-.04L40.5 21c-.02 0-.02 0-.02.02v.74c0 .03 0 .04.03.04.95 0 1.74.07 2.34.2.8.17 1.2.9 1.23 2.19a63.2 63.2 0 0 1-.01 2.9c0 .45-.05.77-.12.97-.07.2-.27.3-.57.3l-14.34-.18c-.04 0-.04.01 0 .04l3.2 2.16c.05.03.11.05.19.05a51543.02 51543.02 0 0 1 10.45.13c.3 0 .52.03.65.08Zm-31.36-2.63a5.4 5.4 0 0 0-.07.7c-.06 1.04-.08 2.1-.09 3.15 0 .92.24 1.54.7 1.85.16.11.35.19.57.23a13 13 0 0 0 2.26.24c.02 0 .02 0 .02.03l-.02.73c0 .03-.02.04-.04.04l-4.46-.17c-.02 0-.03-.01-.03-.03v-.35l.4-10.84c0-.02.02-.03.04-.03l.8.03c.02 0 .03.02.03.04l-.02.74c0 .63.28.95.84.97l10.74.41c.06 0 .13.03.18.07l3.14 2.23c.04.02.04.04-.01.04l-14.3-.55c-.39-.01-.62.14-.68.47Zm6.53 13.54-.08-.08-1.4-1.53c-.19-.2-.36-.43-.52-.66-.2-.28-.14-.55.15-.82L27.4 28.7c.02-.02.02-.03-.02-.03l-3.78.64a.5.5 0 0 0-.25.14l-7.8 7.2c-.1.1-.23.19-.35.26-.31.16-.64.06-.99-.29-.17-.17-.34-.36-.5-.55-.02-.02-.04-.02-.05 0l-.6.55v.04l7.5 8.24c.01.02.03.02.05 0l3.3-3.04v-.04l-.49-.54c-.02-.02-.04-.02-.05 0-.35.33-.72.65-1.11.96-.28.22-.55.4-.81.55-.47.26-.98.22-1.53-.13-.32-.2-.72-.57-1.23-1.12Zm18.58-.23c.16-.3.06-.63-.3-1L29.5 32.7a.27.27 0 0 1-.07-.14l-.78-3.82c0-.04 0-.04.03-.01 3.3 3.35 6.64 6.77 10.04 10.24.06.06.12.11.2.16.15.1.3.13.45.08.1-.03.24-.12.4-.26a19.35 19.35 0 0 0 1.09-1.05c.5-.5.96-.98 1.4-1.46.8-.86 1-1.6.6-2.26-.14-.25-.32-.5-.53-.75a20 20 0 0 0-1.03-1.13c-.02-.01-.02-.03 0-.05l.5-.5c.03-.02.04-.02.06 0l3.14 3.2v.05l-7.9 7.85c-.01.02-.03.02-.05 0l-.55-.56c-.02-.02-.01-.04 0-.06l.02-.01.02-.02c.38-.36.63-.65.74-.87Zm-8.73 2.76c-.32-.05-.48-.3-.48-.74V29c0-.04-.02-.04-.04 0l-2.1 3.25a.3.3 0 0 0-.05.16v10.66c0 .3-.03.51-.1.66-.09.2-.26.31-.5.37a4.49 4.49 0 0 1-1.08.05c-.01 0-.02.01-.02.03v.8c0 .02 0 .03.02.03h11.1c.03 0 .04-.01.04-.03v-4.51c0-.02 0-.02-.02-.02h-.75a15.23 15.23 0 0 1-.17 2.26c-.03.22-.1.41-.18.57-.18.34-.52.58-1.03.71-.3.08-.74.13-1.29.14-.84.02-1.73.03-2.67.02a4.8 4.8 0 0 1-.68-.06Z" fill="#0079C2"/></svg>