<?xml version='1.0' encoding='utf-8'?>
<!-- by TradeStack -->
<svg width="56" height="56" viewBox="0 0 56 56" xmlns="http://www.w3.org/2000/svg"><path fill="#F0F3FA" d="M0 0h56v56H0z" /><path d="M17 40h-4v-6h1v5h3v1ZM21.75 37.73l-1.04-2.53-1.07 2.53h2.11ZM24.01 40h-1.25l-.62-1.42h-2.89L18.67 40h-1.23L20 34h1.5l2.51 6ZM32 40h-1v-5l-2 5h-1l-2-5v5h-1v-6h1.5l2 5 2-5H32v6ZM37.5 37c0-1.47-1.22-2-2.5-2h-1v4h1c1.28 0 2.5-.55 2.5-2Zm1 0c0 2.03-1.52 3-3.5 3h-2v-6h2c1.99 0 3.5.95 3.5 3ZM43 38l-1.3-2.8-1.2 2.8H43Zm2 2h-1l-.5-1H40l-.5 1h-1l2.5-6h1.5l2.5 6ZM28.14 13l4.24 4.2-4.24 4.2-4.24-4.2zM33.1 17.9l4.23 4.2-4.24 4.2-4.24-4.2zM38.04 22.8l4.24 4.2-4.24 4.2L33.8 27zM23.2 17.9l4.24 4.2-4.25 4.2-4.24-4.2zM18.24 22.8 22.5 27l-4.25 4.2L14 27z" fill="#0A4495" /><path fill="#CC3928" d="m28.14 22.8 4.24 4.2-4.24 4.2L23.9 27z" /></svg>