<?xml version='1.0' encoding='utf-8'?>
<!-- by TradeStack -->
<svg width="56" height="56" viewBox="0 0 56 56" xmlns="http://www.w3.org/2000/svg"><path fill="url(#aatsjtccy)" d="M0 0h56v56H0z" /><path d="M4 32v-8h1.3v7H9v1H4ZM11.2 32H9.86l3.05-8h1.48l3.06 8h-1.36l-2.4-6.57h-.07L11.21 32Zm.2-3h4.4v1h-4.4v-1ZM23.7 24H25v5.18c0 .55-.15 1.03-.43 1.46-.7 1.07-2 1.36-3.21 1.36-1.12 0-2.3-.38-2.95-1.36a2.6 2.6 0 0 1-.41-1.46V24h1.27v5.08c0 1.07.8 1.84 2.09 1.84 1.16 0 2.34-.5 2.34-1.84V24ZM26 32v-8h3.24c.65 0 1.2.1 1.63.32.87.41 1.3 1.18 1.3 2.15 0 1.59-1.43 2.53-2.94 2.53h-2.49v-1h2.38c.9 0 1.77-.59 1.77-1.53 0-.6-.24-1.04-.77-1.27-.26-.12-.6-.2-1.02-.2h-1.8v7H26Zm4.4-3.68L32.5 32h-1.46l-2.06-3.68h1.42ZM34.27 24v8H33v-8h1.27ZM52 24v8h-1.2l-4.41-5.87h-.08V32H45v-8h1.21l4.41 5.87h.08V24H52Z" fill="#fff" /><path fill-rule="evenodd" d="M39.87 33a4.94 4.94 0 0 0 4.87-5c0-2.76-2.18-5-4.87-5A4.94 4.94 0 0 0 35 28c0 2.76 2.18 5 4.87 5Zm-.04-.52a4.36 4.36 0 0 0 4.4-4.34c0-2.4-1.97-4.34-4.4-4.34a4.36 4.36 0 0 0-4.39 4.34c0 2.4 1.97 4.34 4.4 4.34Z" fill="#fff" /><path d="M36.39 27.13c-.44.76-.4-.55-.32-1.3.03-.55.8-1.07 1.18-1.26.68-.26.94-.03.99.12.54-.06.3.5.1.78.72.11.4.42.14.57.54.58.06.55-.24.47-.17.45-.73.11-1-.12.38.8-.05.82-.32.73.1.58-.32.24-.53 0Z" fill="#fff" /><path d="M39 26.02c-.04.5.27.74.43.8-.17 0-.43.15-.53.22a10.13 10.13 0 0 0-2.41 2.38c-.4.81.23.85.6.77 0 .06.02.25.13.47.12.21.45-.3.6-.58l.34.31-.2.93h-.55v.36h1.26v.11h1.83v-.3l-1.07-.17v-.66c.35-.12.46-.76.47-1.07 1.36-1.13 1.88-2.02 1.98-2.33.54-.09.73-.65.76-.93 0-.36-.16-1.1-.76-1.14-.6-.05-.9.2-.96.33-1.05-.92-1.88-.13-1.93.5Z" fill="#fff" /><path d="M37.82 27.47c-.21-.07 0-.37.14-.5.04-.05.19-.15.42-.15.3 0-.3.72-.56.65Z" fill="#fff" /><path d="M38.43 30.69a.6.6 0 0 1 .44-.44c.17 0 .16.77.12 1.16h-.56a1.92 1.92 0 0 1 0-.72ZM39.76 28.02c.4-.3.48-.72.47-.9.55.35-.23 1.04-.69 1.34l-1.64.96c-.25.19-.73.54-.7.4.05-.13.28-.33.4-.4.55-.35 1.76-1.11 2.16-1.4Z" /><path d="M37.9 28.7c.55.18.96-.47 1.1-.83-.2.16-.63.48-.85.48-.23 0 .2-.48.45-.71-.46.27-1.25.86-.7 1.05ZM36.9 29.32l.7-.63.19.25L36.74 30l.36-.58-.2-.1ZM40.93 26.36c.32.1.03.56-.13.56-.13-.1-.28-.62.13-.56Z" /><path d="m41.38 27.55-.86.16-1.37 1.34.4.42 1.83-1.92ZM39.47 26.99c.03.3-.03.83-.47.56-.44-.28.13-.5.47-.56Z" fill="#7B7A80" /><path d="M40.3 26.65a.6.6 0 1 0 0-1.2.6.6 0 0 0 0 1.2Zm1.2.1a.6.6 0 1 0 0-1.2.6.6 0 0 0 0 1.2Z" /><circle cx="40.36" cy="26.03" fill="#D9D9D9" r=".25" /><circle cx="41.46" cy="26.1" fill="#D9D9D9" r=".25" /><defs><linearGradient id="aatsjtccy" x1="10.42" y1="9.71" x2="68.15" y2="76.02" gradientUnits="userSpaceOnUse"><stop stop-color="#1A1E21" /><stop offset="1" stop-color="#06060A" /></linearGradient></defs></svg>