<!-- by TradeStack --><svg width="56" height="56" viewBox="0 0 56 56" xmlns="http://www.w3.org/2000/svg"><path fill="#F0F3FA" d="M0 0h56v56H0z"/><path fill="#F8CE00" d="M7 21h3v2.5H7z"/><path fill="#CEAD66" d="M8 24.5h2v2H8z"/><path fill="#1E1E1E" d="M8.5 27.5H10V29H8.5z"/><path d="M18 21v6h-4v-6h-2v8h6v-1.96A3.57 3.57 0 0 0 21.25 29c.76 0 1.33-.2 1.75-.5v.5h2v-5.5l1.78 5.5h1.65L30 23.5V29h2v-8h-2.9l-1.42 4.33-1.3-4.33H23v5.84c-.3.26-.67.43-1.11.43-1.58 0-1.89-1.55-1.89-1.8V21h-2Zm17 0h-2v8h2v-8Zm1 0v8h2v-4.07l3 3.8V29h2v-1h2.8l.64 1H49l-4.67-8H41v4l-2.83-4H36Zm8.5 5H43v-2.33L44.5 26Z" fill="#20170E"/><path fill-rule="evenodd" d="M33 31v7h3.22c.92 0 2.78-.7 2.78-3.5 0-2.81-1.86-3.5-2.78-3.5H33Zm2 1.5v4h1.07c.31 0 .93-.4.93-2s-.62-2-.93-2H35Zm-17.02.17v-1.35a6.2 6.2 0 0 0-2-.32c-1.18 0-3.98.36-3.98 3.57S15 38 15.98 38c.78 0 1.6-.23 2.01-.35H18v-3.68h-2.5V35h1v1.79c-.95.16-2.5-.06-2.5-2.22 0-2.7 2.6-2.7 3.98-1.9ZM26 34.5a3.5 3.5 0 1 1-7 0 3.5 3.5 0 0 1 7 0Zm-2 0c0 1.1-.67 2-1.5 2s-1.5-.9-1.5-2 .67-2 1.5-2 1.5.9 1.5 2Zm3-3.5h2v5.5h3V38h-5v-7Z" fill="url(#aji22xgk5)"/><defs><linearGradient id="aji22xgk5" x1="13.11" y1="34.5" x2="39.37" y2="34.5" gradientUnits="userSpaceOnUse"><stop stop-color="#D3AF65"/><stop offset="1" stop-color="#FCC60C"/></linearGradient></defs></svg>