<!-- by TradeStack --><svg width="56" height="56" viewBox="0 0 56 56" fill="none" xmlns="http://www.w3.org/2000/svg">
<rect width="56" height="56" fill="url(#paint0_linear_228_4296)"/>
<path fill-rule="evenodd" clip-rule="evenodd" d="M27.9659 12L28 12L28.0341 12C28.4229 12.0008 28.7375 12.3167 28.7367 12.7055C28.7358 13.0943 28.42 13.4088 28.0312 13.408L28 13.408L27.9688 13.408C27.58 13.4088 27.2642 13.0943 27.2634 12.7055C27.2625 12.3167 27.5771 12.0008 27.9659 12ZM26.3343 12.7774C26.3938 13.1616 26.1306 13.5213 25.7464 13.5809C25.7259 13.584 25.7054 13.5873 25.685 13.5905C25.301 13.6517 24.9402 13.39 24.879 13.0061C24.8178 12.6221 25.0795 12.2612 25.4634 12.2001C25.4859 12.1965 25.5083 12.193 25.5308 12.1895C25.915 12.1299 26.2747 12.3931 26.3343 12.7774ZM29.6657 12.7774C29.7253 12.3931 30.085 12.1299 30.4692 12.1895C30.4917 12.193 30.5141 12.1965 30.5366 12.2001C30.9205 12.2612 31.1822 12.6221 31.121 13.0061C31.0598 13.39 30.699 13.6517 30.315 13.5905C30.2946 13.5873 30.2741 13.584 30.2536 13.5809C29.8694 13.5213 29.6062 13.1616 29.6657 12.7774ZM23.9726 13.2228C24.0919 13.5929 23.8886 13.9896 23.5186 14.1089C23.4989 14.1152 23.4792 14.1216 23.4596 14.128C23.09 14.2489 22.6925 14.0473 22.5716 13.6778C22.4507 13.3082 22.6523 12.9107 23.0218 12.7898C23.0434 12.7827 23.065 12.7757 23.0866 12.7688C23.4566 12.6495 23.8533 12.8528 23.9726 13.2228ZM32.0274 13.2228C32.1467 12.8528 32.5434 12.6495 32.9134 12.7688C32.935 12.7757 32.9566 12.7827 32.9782 12.7898C33.3477 12.9107 33.5493 13.3082 33.4284 13.6778C33.3075 14.0473 32.91 14.2489 32.5404 14.128C32.5208 14.1216 32.5011 14.1152 32.4815 14.1089C32.1114 13.9896 31.9081 13.5929 32.0274 13.2228ZM21.7109 14.0348C21.8869 14.3814 21.7486 14.8052 21.402 14.9812C21.3836 14.9906 21.3652 15 21.3468 15.0094C21.0009 15.1869 20.5766 15.0504 20.399 14.7045C20.2215 14.3586 20.358 13.9343 20.7039 13.7568C20.724 13.7464 20.7442 13.7361 20.7644 13.7259C21.1111 13.5498 21.5348 13.6881 21.7109 14.0348ZM34.2891 14.0348C34.4652 13.6881 34.8889 13.5498 35.2356 13.7259C35.2558 13.7361 35.276 13.7464 35.2961 13.7568C35.642 13.9343 35.7785 14.3586 35.601 14.7045C35.4235 15.0504 34.9991 15.1869 34.6532 15.0094C34.6348 15 34.6164 14.9906 34.598 14.9812C34.2514 14.8052 34.1131 14.3814 34.2891 14.0348ZM19.6051 15.1922C19.8332 15.507 19.7629 15.9472 19.4481 16.1753C19.4313 16.1874 19.4146 16.1996 19.398 16.2118C19.0841 16.4412 18.6436 16.3728 18.4142 16.0589C18.1847 15.745 18.2532 15.3046 18.567 15.0751C18.5853 15.0617 18.6036 15.0484 18.6219 15.0351C18.9368 14.807 19.377 14.8773 19.6051 15.1922ZM36.3949 15.1922C36.623 14.8773 37.0632 14.807 37.3781 15.0351C37.3964 15.0484 37.4147 15.0617 37.433 15.0751C37.7468 15.3046 37.8153 15.745 37.5858 16.0589C37.3564 16.3728 36.9159 16.4412 36.602 16.2118C36.5854 16.1996 36.5687 16.1874 36.552 16.1753C36.2371 15.9472 36.1668 15.507 36.3949 15.1922ZM17.7059 16.6644C17.9803 16.9399 17.9793 17.3857 17.7038 17.66C17.6892 17.6746 17.6746 17.6892 17.66 17.7038C17.3857 17.9793 16.9399 17.9803 16.6644 17.7059C16.3889 17.4316 16.388 16.9858 16.6623 16.7103C16.6783 16.6943 16.6943 16.6783 16.7103 16.6623C16.9858 16.388 17.4316 16.3889 17.7059 16.6644ZM38.2941 16.6644C38.5684 16.3889 39.0142 16.388 39.2897 16.6623C39.3057 16.6783 39.3217 16.6943 39.3377 16.7103C39.612 16.9858 39.6111 17.4316 39.3356 17.7059C39.0601 17.9803 38.6143 17.9793 38.34 17.7038C38.3254 17.6892 38.3108 17.6746 38.2962 17.66C38.0207 17.3857 38.0197 16.9399 38.2941 16.6644ZM16.0589 18.4142C16.3728 18.6436 16.4412 19.0841 16.2118 19.398C16.1996 19.4146 16.1874 19.4313 16.1753 19.4481C15.9472 19.7629 15.507 19.8332 15.1922 19.6051C14.8773 19.377 14.807 18.9368 15.0351 18.6219C15.0484 18.6036 15.0617 18.5853 15.0751 18.567C15.3046 18.2532 15.745 18.1847 16.0589 18.4142ZM39.9411 18.4142C40.255 18.1847 40.6954 18.2532 40.9249 18.567C40.9383 18.5853 40.9516 18.6036 40.9649 18.6219C41.193 18.9368 41.1227 19.377 40.8078 19.6051C40.493 19.8332 40.0528 19.7629 39.8247 19.4481C39.8126 19.4313 39.8004 19.4146 39.7882 19.398C39.5588 19.0841 39.6272 18.6436 39.9411 18.4142ZM14.7045 20.399C15.0504 20.5766 15.1869 21.0009 15.0094 21.3468C15 21.3652 14.9906 21.3836 14.9812 21.402C14.8052 21.7486 14.3814 21.8869 14.0348 21.7109C13.6881 21.5348 13.5498 21.1111 13.7259 20.7644C13.7361 20.7442 13.7464 20.724 13.7568 20.7039C13.9343 20.358 14.3586 20.2215 14.7045 20.399ZM41.2955 20.399C41.6414 20.2215 42.0657 20.358 42.2432 20.7039C42.2491 20.7153 42.2549 20.7267 42.2608 20.7381C42.2652 20.7469 42.2697 20.7557 42.2741 20.7644C42.4502 21.1111 42.3119 21.5348 41.9652 21.7109C41.6186 21.8869 41.1948 21.7486 41.0188 21.402C41.0094 21.3836 41 21.3652 40.9906 21.3468C40.8131 21.0009 40.9496 20.5766 41.2955 20.399ZM13.6778 22.5716C14.0473 22.6925 14.2489 23.09 14.128 23.4596C14.1216 23.4792 14.1152 23.4989 14.1089 23.5186C13.9896 23.8886 13.5929 24.0919 13.2228 23.9726C12.8528 23.8533 12.6495 23.4566 12.7688 23.0866C12.7757 23.065 12.7827 23.0434 12.7898 23.0218C12.9107 22.6523 13.3082 22.4507 13.6778 22.5716ZM42.3222 22.5716C42.6918 22.4507 43.0893 22.6523 43.2102 23.0218C43.2139 23.0332 43.2177 23.0447 43.2214 23.0561C43.2247 23.0662 43.2279 23.0764 43.2312 23.0866C43.3505 23.4566 43.1472 23.8533 42.7772 23.9726C42.4071 24.0919 42.0104 23.8886 41.8911 23.5186C41.8848 23.4989 41.8784 23.4792 41.872 23.4596C41.7511 23.09 41.9527 22.6925 42.3222 22.5716ZM13.0061 24.879C13.39 24.9402 13.6517 25.301 13.5905 25.685C13.5873 25.7054 13.584 25.7259 13.5809 25.7464C13.5213 26.1306 13.1616 26.3938 12.7774 26.3343C12.3931 26.2747 12.1299 25.915 12.1895 25.5308C12.193 25.5083 12.1965 25.4859 12.2001 25.4634C12.2612 25.0795 12.6221 24.8178 13.0061 24.879ZM42.9939 24.879C43.3779 24.8178 43.7388 25.0795 43.7999 25.4634C43.8035 25.4859 43.8071 25.5083 43.8105 25.5308C43.8701 25.915 43.6069 26.2747 43.2226 26.3343C42.8384 26.3938 42.4787 26.1306 42.4191 25.7464C42.416 25.7259 42.4127 25.7054 42.4095 25.685C42.3483 25.301 42.61 24.9402 42.9939 24.879ZM12.7055 27.2633C13.0943 27.2642 13.4088 27.58 13.408 27.9688L13.408 28L13.408 28.0312C13.4088 28.42 13.0943 28.7358 12.7055 28.7367C12.3167 28.7375 12.0008 28.4229 12 28.0341L12 28L12 27.9659C12.0008 27.5771 12.3167 27.2625 12.7055 27.2633ZM43.2945 27.2634C43.6833 27.2625 43.9992 27.5771 44 27.9659L44 28L44 28.0341C43.9992 28.4229 43.6833 28.7375 43.2945 28.7367C42.9057 28.7358 42.5912 28.42 42.592 28.0312L42.592 28L42.592 27.9688C42.5912 27.58 42.9057 27.2642 43.2945 27.2634ZM12.7774 29.6657C13.1616 29.6062 13.5213 29.8694 13.5809 30.2536C13.584 30.2741 13.5873 30.2946 13.5905 30.315C13.6517 30.699 13.39 31.0598 13.0061 31.121C12.6221 31.1822 12.2612 30.9205 12.2001 30.5366C12.1965 30.5141 12.193 30.4917 12.1895 30.4692C12.1299 30.085 12.3931 29.7253 12.7774 29.6657ZM43.2226 29.6657C43.6069 29.7253 43.8701 30.085 43.8105 30.4692C43.807 30.4917 43.8035 30.5141 43.7999 30.5366C43.7388 30.9205 43.3779 31.1822 42.9939 31.121C42.61 31.0598 42.3483 30.699 42.4095 30.315C42.4127 30.2946 42.416 30.2741 42.4191 30.2536C42.4787 29.8694 42.8384 29.6062 43.2226 29.6657ZM13.2228 32.0274C13.5929 31.9081 13.9896 32.1114 14.1089 32.4814C14.1152 32.5011 14.1216 32.5208 14.128 32.5404C14.2489 32.91 14.0473 33.3075 13.6778 33.4284C13.3082 33.5493 12.9107 33.3477 12.7898 32.9782C12.7827 32.9566 12.7757 32.935 12.7688 32.9134C12.6495 32.5434 12.8528 32.1467 13.2228 32.0274ZM42.7772 32.0274C43.1472 32.1467 43.3505 32.5434 43.2312 32.9134C43.2272 32.9259 43.2232 32.9383 43.2191 32.9508C43.2162 32.9599 43.2132 32.969 43.2102 32.9782C43.0893 33.3477 42.6918 33.5493 42.3222 33.4284C41.9527 33.3075 41.7511 32.91 41.872 32.5404C41.8762 32.5276 41.8804 32.5147 41.8846 32.5018C41.8867 32.495 41.8889 32.4882 41.8911 32.4815C42.0104 32.1114 42.4071 31.9081 42.7772 32.0274ZM14.0348 34.2891C14.3814 34.1131 14.8052 34.2514 14.9812 34.598C14.9906 34.6164 15 34.6348 15.0094 34.6532C15.1869 34.9991 15.0504 35.4234 14.7045 35.601C14.3586 35.7785 13.9343 35.642 13.7568 35.2961C13.7464 35.276 13.7361 35.2558 13.7259 35.2356C13.5498 34.8889 13.6881 34.4652 14.0348 34.2891ZM41.9652 34.2891C42.3119 34.4652 42.4502 34.8889 42.2741 35.2356C42.2639 35.2558 42.2536 35.276 42.2432 35.2961C42.0657 35.642 41.6414 35.7785 41.2955 35.601C40.9496 35.4235 40.8131 34.9991 40.9906 34.6532C40.9961 34.6425 41.0016 34.6318 41.007 34.6211C41.0109 34.6134 41.0149 34.6057 41.0188 34.598C41.1948 34.2514 41.6186 34.1131 41.9652 34.2891ZM15.1922 36.3949C15.507 36.1668 15.9472 36.2371 16.1753 36.552C16.1874 36.5687 16.1996 36.5854 16.2118 36.602C16.4412 36.9159 16.3728 37.3564 16.0589 37.5858C15.745 37.8153 15.3046 37.7468 15.0751 37.433C15.0617 37.4147 15.0484 37.3964 15.0351 37.3781C14.807 37.0632 14.8773 36.623 15.1922 36.3949ZM40.8078 36.3949C41.1227 36.623 41.193 37.0632 40.9649 37.3781C40.9516 37.3964 40.9383 37.4147 40.9249 37.433C40.6954 37.7468 40.255 37.8153 39.9411 37.5858C39.6272 37.3564 39.5588 36.9159 39.7882 36.602C39.8004 36.5854 39.8126 36.5687 39.8247 36.552C40.0528 36.2371 40.493 36.1668 40.8078 36.3949ZM16.6644 38.2941C16.9399 38.0197 17.3857 38.0207 17.66 38.2962C17.9454 38.5828 18.0112 39.029 17.7059 39.3356C17.3991 39.6437 16.9491 39.5777 16.6623 39.2897C16.388 39.0142 16.3889 38.5684 16.6644 38.2941ZM39.3356 38.2941C39.6111 38.5684 39.612 39.0142 39.3377 39.2897C39.3217 39.3057 39.3057 39.3217 39.2897 39.3377C39.0142 39.612 38.5684 39.6111 38.2941 39.3356C38.0197 39.0601 38.0207 38.6143 38.2962 38.34C38.3108 38.3254 38.3254 38.3108 38.34 38.2962C38.6143 38.0207 39.0601 38.0197 39.3356 38.2941ZM18.4142 39.9411C18.6436 39.6272 19.0841 39.5588 19.398 39.7882C19.7245 40.0269 19.8589 40.4575 19.6051 40.8078C19.35 41.1599 18.8951 41.1648 18.567 40.9249C18.2532 40.6954 18.1847 40.255 18.4142 39.9411ZM37.5858 39.9411C37.8153 40.255 37.7468 40.6954 37.433 40.9249C37.4147 40.9383 37.3964 40.9516 37.3781 40.9649C37.0632 41.193 36.623 41.1227 36.3949 40.8078C36.1668 40.493 36.2371 40.0528 36.552 39.8247C36.5687 39.8126 36.5854 39.8004 36.602 39.7882C36.9159 39.5588 37.3564 39.6272 37.5858 39.9411ZM20.399 41.2955C20.5766 40.9496 21.0009 40.8131 21.3468 40.9906C21.7066 41.1753 21.9068 41.5795 21.7109 41.9652C21.514 42.353 21.0655 42.4288 20.7039 42.2432C20.358 42.0657 20.2215 41.6414 20.399 41.2955ZM35.601 41.2955C35.7785 41.6414 35.642 42.0657 35.2961 42.2432C35.276 42.2536 35.2558 42.2639 35.2356 42.2741C34.8889 42.4502 34.4652 42.3119 34.2891 41.9652C34.1131 41.6186 34.2514 41.1948 34.598 41.0188C34.6164 41.0094 34.6348 41 34.6532 40.9906C34.9991 40.8131 35.4234 40.9496 35.601 41.2955ZM22.5716 42.3222C22.6925 41.9527 23.09 41.7511 23.4596 41.872C23.844 41.9977 24.1054 42.3653 23.9726 42.7772C23.8533 43.1472 23.4566 43.3505 23.0866 43.2312C23.065 43.2243 23.0434 43.2173 23.0218 43.2102C22.6523 43.0893 22.4507 42.6918 22.5716 42.3222ZM33.4284 42.3222C33.5493 42.6918 33.3477 43.0893 32.9782 43.2102C32.9566 43.2173 32.935 43.2243 32.9134 43.2312C32.5434 43.3505 32.1467 43.1472 32.0274 42.7772C31.9081 42.4071 32.1114 42.0104 32.4814 41.8911C32.5011 41.8848 32.5208 41.8784 32.5404 41.872C32.91 41.7511 33.3075 41.9527 33.4284 42.3222ZM24.879 42.9939C24.9433 42.5901 25.3261 42.3531 25.7162 42.4144C26.1059 42.4756 26.3968 42.8193 26.3343 43.2226C26.2677 43.6525 25.8649 43.8639 25.4634 43.7999C25.0795 43.7388 24.8178 43.3779 24.879 42.9939ZM31.121 42.9939C31.1822 43.3779 30.9205 43.7388 30.5366 43.7999C30.5141 43.8035 30.4917 43.8071 30.4692 43.8105C30.085 43.8701 29.7253 43.6069 29.6657 43.2226C29.6062 42.8384 29.8694 42.4787 30.2536 42.4191C30.2741 42.416 30.2946 42.4127 30.315 42.4095C30.699 42.3483 31.0598 42.61 31.121 42.9939ZM27.2633 43.2945C27.2642 42.9057 27.58 42.5912 27.9688 42.592L28 42.592L28.0312 42.592C28.42 42.5912 28.7358 42.9057 28.7367 43.2945C28.7375 43.6833 28.4229 43.9992 28.0341 44L28 44L27.9659 44C27.5771 43.9992 27.2625 43.6833 27.2633 43.2945Z" fill="#BBDC9B"/>
<path fill-rule="evenodd" clip-rule="evenodd" d="M27.9667 11C28.1947 10.9998 28.4151 11.1245 28.4146 11.3828C28.4141 11.6396 28.1953 11.7639 27.9682 11.7641C27.7572 11.7645 27.5858 11.5938 27.5854 11.3828C27.585 11.1718 27.7557 11.0004 27.9667 11ZM29.5928 11.453C29.623 11.1971 29.8555 11.0986 30.0829 11.1264C30.2923 11.152 30.4413 11.3425 30.4158 11.5519C30.3846 11.8066 30.1539 11.904 29.9273 11.8772C29.7178 11.8524 29.568 11.6625 29.5928 11.453ZM26.4072 11.453C26.432 11.6625 26.2822 11.8524 26.0727 11.8772C25.8461 11.904 25.6154 11.8066 25.5842 11.5519C25.5587 11.3425 25.7077 11.152 25.9171 11.1264C26.1445 11.0986 26.377 11.1971 26.4072 11.453ZM31.5759 11.7632C31.6369 11.513 31.8794 11.4431 32.1018 11.4982C32.3065 11.549 32.4314 11.7561 32.3807 11.9609C32.319 12.2099 32.0783 12.2788 31.8567 12.2248C31.6517 12.1748 31.526 11.9682 31.5759 11.7632ZM24.4241 11.7632C24.474 11.9682 24.3483 12.1748 24.1433 12.2248C23.9217 12.2788 23.681 12.2099 23.6193 11.9609C23.5686 11.7561 23.6935 11.549 23.8982 11.4982C24.1206 11.4431 24.3631 11.513 24.4241 11.7632ZM22.4931 12.3115C22.5676 12.5089 22.4679 12.7293 22.2705 12.8038C22.057 12.8843 21.8097 12.8453 21.7181 12.6056C21.6429 12.4085 21.7417 12.1877 21.9388 12.1124C22.1529 12.0307 22.4022 12.0704 22.4931 12.3115ZM33.5069 12.3115C33.5978 12.0704 33.8471 12.0307 34.0612 12.1124C34.2583 12.1877 34.3571 12.4085 34.2819 12.6056C34.1903 12.8453 33.943 12.8843 33.7295 12.8038C33.5321 12.7293 33.4324 12.5089 33.5069 12.3115ZM20.6428 13.0903C20.7407 13.2772 20.6685 13.5081 20.4815 13.6059C20.2794 13.7117 20.0292 13.7029 19.9093 13.4761C19.8107 13.2895 19.8821 13.0584 20.0686 12.9598C20.2711 12.8528 20.5234 12.8621 20.6428 13.0903ZM35.3572 13.0903C35.4766 12.8621 35.7289 12.8528 35.9314 12.9598C36.118 13.0584 36.1893 13.2895 36.0907 13.4761C35.9708 13.7029 35.7206 13.7117 35.5185 13.6059C35.3315 13.5081 35.2593 13.2772 35.3572 13.0903ZM18.9005 14.0872C19.0202 14.261 18.9763 14.4989 18.8026 14.6185C18.6147 14.7479 18.3651 14.7694 18.2188 14.5587C18.0985 14.3854 18.1414 14.1473 18.3147 14.027C18.5029 13.8963 18.7544 13.875 18.9005 14.0872ZM37.0995 14.0872C37.2406 13.8823 37.4963 13.8957 37.6853 14.027C37.8586 14.1473 37.9015 14.3854 37.7812 14.5587C37.6349 14.7694 37.3853 14.7479 37.1974 14.6185C37.0237 14.4989 36.9798 14.261 37.0995 14.0872ZM17.2908 15.2867C17.4304 15.4449 17.4155 15.6863 17.2573 15.826C17.0863 15.977 16.8412 16.0282 16.6706 15.8366C16.5303 15.679 16.5444 15.4375 16.702 15.2972C16.8731 15.1449 17.1203 15.0936 17.2908 15.2867ZM38.7092 15.2867C38.8798 15.0936 39.1269 15.1449 39.298 15.2972C39.4556 15.4375 39.4697 15.679 39.3294 15.8366C39.1588 16.0282 38.9137 15.977 38.7427 15.826C38.5845 15.6863 38.5696 15.4449 38.7092 15.2867ZM15.8366 16.6706C15.9942 16.8109 16.0082 17.0524 15.8679 17.21C15.7163 17.3804 15.479 17.4606 15.2867 17.2908C15.1286 17.1511 15.1136 16.9097 15.2533 16.7516C15.4049 16.5798 15.6441 16.4993 15.8366 16.6706ZM40.1634 16.6706C40.3509 16.5037 40.5946 16.5792 40.7467 16.7516C40.8864 16.9097 40.8714 17.1511 40.7133 17.2908C40.521 17.4606 40.2837 17.3804 40.1321 17.21C39.9918 17.0524 40.0058 16.8109 40.1634 16.6706ZM14.5587 18.2188C14.732 18.3391 14.7749 18.5772 14.6546 18.7505C14.5244 18.9379 14.2986 19.046 14.0872 18.9005C13.9135 18.7808 13.8696 18.543 13.9893 18.3692C14.1192 18.1805 14.347 18.0718 14.5587 18.2188ZM41.4413 18.2188C41.653 18.0718 41.8808 18.1805 42.0107 18.3692C42.1304 18.543 42.0865 18.7808 41.9128 18.9005C41.7013 19.0461 41.4751 18.9371 41.3454 18.7505C41.2251 18.5772 41.268 18.3391 41.4413 18.2188ZM13.4761 19.9093C13.6626 20.0079 13.7339 20.239 13.6354 20.4256C13.5288 20.6273 13.3176 20.7618 13.0903 20.6428C12.9034 20.545 12.8312 20.3141 12.929 20.1272C13.0352 19.9243 13.2483 19.789 13.4761 19.9093ZM42.5239 19.9093C42.7518 19.7889 42.9649 19.9249 43.071 20.1272C43.1688 20.3141 43.0966 20.545 42.9097 20.6428C42.7228 20.7407 42.4919 20.6685 42.3941 20.4815C42.2883 20.2794 42.2971 20.0292 42.5239 19.9093ZM12.6056 21.7181C12.8027 21.7934 12.9015 22.0142 12.8262 22.2113C12.7449 22.4244 12.5516 22.5837 12.3115 22.4931C12.1141 22.4187 12.0144 22.1983 12.0889 22.0009C12.1698 21.7865 12.3648 21.6262 12.6056 21.7181ZM43.3944 21.7181C43.6352 21.6262 43.8302 21.7865 43.9111 22.0009C43.9856 22.1983 43.8859 22.4187 43.6885 22.4931C43.4911 22.5676 43.2707 22.4679 43.1962 22.2705C43.1157 22.057 43.1547 21.8097 43.3944 21.7181ZM44.0391 23.6193C44.2891 23.5574 44.4634 23.7399 44.5176 23.9625C44.5675 24.1675 44.4418 24.3741 44.2368 24.4241C43.9876 24.4848 43.815 24.3034 43.7602 24.082C43.7094 23.8772 43.8343 23.67 44.0391 23.6193ZM11.9609 23.6193C12.1657 23.67 12.2906 23.8772 12.2398 24.082C12.185 24.3034 12.0124 24.4848 11.7632 24.4241C11.5582 24.3741 11.4325 24.1675 11.4824 23.9625C11.5367 23.7399 11.7109 23.5574 11.9609 23.6193ZM44.4481 25.5842C44.7039 25.553 44.8546 25.7555 44.8816 25.983C44.9063 26.1925 44.7566 26.3824 44.547 26.4072C44.3375 26.432 44.1476 26.2822 44.1228 26.0727C44.0962 25.8477 44.193 25.6154 44.4481 25.5842ZM11.5519 25.5842C11.7613 25.6098 11.9104 25.8004 11.8848 26.0098C11.8571 26.2363 11.7078 26.4374 11.453 26.4072C11.1971 26.377 11.0986 26.1445 11.1264 25.9171C11.152 25.7077 11.3425 25.5587 11.5519 25.5842ZM44.6172 27.5854C44.8755 27.5849 45.0002 27.8053 45 28.0333C44.9996 28.2443 44.8282 28.415 44.6172 28.4146C44.4062 28.4142 44.2355 28.2428 44.2359 28.0318C44.2361 27.8046 44.3604 27.5859 44.6172 27.5854ZM11.3828 27.5854C11.6157 27.5859 11.7643 27.781 11.764 28C11.7643 28.219 11.6157 28.4141 11.3828 28.4146C11.1718 28.415 11.0004 28.2443 11 28.0333C10.9998 27.8053 11.1245 27.5849 11.3828 27.5854ZM44.547 29.5928C44.8029 29.623 44.9014 29.8555 44.8736 30.0829C44.848 30.2923 44.6575 30.4413 44.4481 30.4158C44.2387 30.3902 44.0896 30.1996 44.1152 29.9902C44.1429 29.7637 44.2922 29.5626 44.547 29.5928ZM11.453 29.5928C11.6625 29.568 11.8524 29.7178 11.8772 29.9273C11.904 30.1539 11.8066 30.3846 11.5519 30.4158C11.2961 30.447 11.1453 30.2445 11.1184 30.017C11.0937 29.8075 11.2434 29.6176 11.453 29.5928ZM44.2368 31.5759C44.487 31.6369 44.5569 31.8794 44.5018 32.1018C44.451 32.3065 44.2439 32.4314 44.0391 32.3807C43.8343 32.33 43.7094 32.1228 43.7602 31.918C43.815 31.6966 43.9876 31.5152 44.2368 31.5759ZM11.7632 31.5759C11.9682 31.526 12.1748 31.6517 12.2248 31.8567C12.2788 32.0783 12.2099 32.319 11.9609 32.3807C11.7109 32.4426 11.5367 32.2601 11.4824 32.0375C11.4325 31.8325 11.5582 31.6259 11.7632 31.5759ZM12.3115 33.5069C12.5089 33.4324 12.7293 33.5321 12.8038 33.7295C12.8843 33.943 12.8453 34.1903 12.6056 34.2819C12.4085 34.3571 12.1877 34.2583 12.1124 34.0612C12.0307 33.8471 12.0704 33.5978 12.3115 33.5069ZM43.6885 33.5069C43.9296 33.5978 43.9693 33.8471 43.8876 34.0612C43.8123 34.2583 43.5915 34.3571 43.3944 34.2819C43.1973 34.2066 43.0985 33.9858 43.1738 33.7887C43.2548 33.5764 43.4483 33.4163 43.6885 33.5069ZM13.0903 35.3572C13.2772 35.2593 13.5081 35.3315 13.6059 35.5185C13.7117 35.7206 13.7029 35.9708 13.4761 36.0907C13.2483 36.211 13.0352 36.0757 12.929 35.8728C12.8312 35.6859 12.9034 35.455 13.0903 35.3572ZM42.9097 35.3572C43.1379 35.4766 43.1472 35.7289 43.0402 35.9314C42.9416 36.118 42.7105 36.1893 42.5239 36.0907C42.3374 35.9921 42.2661 35.761 42.3646 35.5744C42.4712 35.3727 42.6824 35.2382 42.9097 35.3572ZM14.0872 37.0995C14.2921 36.9584 14.5256 37.0638 14.6546 37.2495C14.7749 37.4228 14.732 37.6609 14.5587 37.7812C14.3854 37.9015 14.1473 37.8586 14.027 37.6853C13.8963 37.4971 13.875 37.2456 14.0872 37.0995ZM41.9128 37.0995C42.125 37.2456 42.1037 37.4971 41.973 37.6853C41.8527 37.8586 41.6146 37.9015 41.4413 37.7812C41.268 37.6609 41.2251 37.4228 41.3454 37.2495C41.4756 37.0621 41.7014 36.954 41.9128 37.0995ZM15.2867 38.7092C15.4449 38.5696 15.6863 38.5845 15.826 38.7427C15.977 38.9137 16.0282 39.1588 15.8366 39.3294C15.6441 39.5007 15.4049 39.4202 15.2533 39.2484C15.1136 39.0903 15.1286 38.8489 15.2867 38.7092ZM40.7133 38.7092C40.9064 38.8798 40.8551 39.1269 40.7028 39.298C40.5625 39.4556 40.321 39.4697 40.1634 39.3294C40.0058 39.1891 39.9918 38.9476 40.1321 38.79C40.2837 38.6196 40.521 38.5394 40.7133 38.7092ZM16.6706 40.1634C16.8412 39.9718 17.0863 40.023 17.2573 40.174C17.4155 40.3137 17.4304 40.5551 17.2908 40.7133C17.1511 40.8714 16.9097 40.8864 16.7516 40.7467C16.5798 40.5951 16.4993 40.3559 16.6706 40.1634ZM39.3294 40.1634C39.5007 40.3559 39.4202 40.5951 39.2484 40.7467C39.0903 40.8864 38.8489 40.8714 38.7092 40.7133C38.5696 40.5551 38.5845 40.3137 38.7427 40.174C38.9137 40.023 39.1588 39.9718 39.3294 40.1634ZM18.2188 41.4413C18.3391 41.268 18.5772 41.2251 18.7505 41.3454C18.9379 41.4756 19.046 41.7014 18.9005 41.9128C18.7544 42.125 18.5029 42.1037 18.3147 41.973C18.1414 41.8527 18.0985 41.6146 18.2188 41.4413ZM37.7812 41.4413C37.9282 41.653 37.8195 41.8808 37.6308 42.0107C37.457 42.1304 37.2192 42.0865 37.0995 41.9128C36.9798 41.739 37.0237 41.5011 37.1974 41.3815C37.3853 41.2521 37.6348 41.2306 37.7812 41.4413ZM19.9093 42.5239C20.0079 42.3374 20.239 42.2661 20.4256 42.3646C20.6255 42.4703 20.7585 42.6887 20.6428 42.9097C20.5266 43.1318 20.2694 43.1462 20.0686 43.0402C19.8821 42.9416 19.8107 42.7105 19.9093 42.5239ZM36.0907 42.5239C36.2069 42.7438 36.0739 42.9656 35.8728 43.071C35.6859 43.1688 35.455 43.0966 35.3572 42.9097C35.2593 42.7228 35.3315 42.4919 35.5185 42.3941C35.7206 42.2883 35.9708 42.2971 36.0907 42.5239ZM21.7181 43.3944C21.7934 43.1973 22.0142 43.0985 22.2113 43.1738C22.4245 43.2551 22.5837 43.4484 22.4931 43.6885C22.4022 43.9296 22.1529 43.9693 21.9388 43.8876C21.7417 43.8123 21.6429 43.5915 21.7181 43.3944ZM34.2819 43.3944C34.3738 43.6352 34.2135 43.8302 33.9991 43.9111C33.8017 43.9856 33.5813 43.8859 33.5069 43.6885C33.4324 43.4911 33.5321 43.2707 33.7295 43.1962C33.943 43.1157 34.1903 43.1547 34.2819 43.3944ZM32.3807 44.0391C32.4426 44.2891 32.2601 44.4634 32.0375 44.5176C31.8325 44.5675 31.6259 44.4418 31.5759 44.2368C31.526 44.0318 31.6517 43.8252 31.8567 43.7752C32.0783 43.7212 32.319 43.7901 32.3807 44.0391ZM23.6193 44.0391C23.67 43.8343 23.8772 43.7094 24.082 43.7602C24.3034 43.815 24.4848 43.9876 24.4241 44.2368C24.3631 44.487 24.1206 44.5569 23.8982 44.5018C23.6935 44.451 23.5686 44.2439 23.6193 44.0391ZM25.5842 44.4481C25.6098 44.2387 25.8004 44.0896 26.0098 44.1152C26.2363 44.1429 26.4374 44.2922 26.4072 44.547C26.3769 44.8031 26.1436 44.9013 25.9171 44.8736C25.7077 44.848 25.5587 44.6575 25.5842 44.4481ZM30.4158 44.4481C30.447 44.7039 30.2445 44.8546 30.017 44.8816C29.8075 44.9063 29.6176 44.7566 29.5928 44.547C29.568 44.3375 29.7178 44.1476 29.9273 44.1228C30.1539 44.096 30.3846 44.1934 30.4158 44.4481ZM27.5854 44.6172C27.5858 44.4062 27.7572 44.2355 27.9682 44.2359C28.1954 44.2361 28.4141 44.3604 28.4146 44.6172C28.4151 44.8755 28.1947 45.0002 27.9667 45C27.7557 44.9996 27.585 44.8282 27.5854 44.6172Z" fill="#D5E9C1"/>
<path fill-rule="evenodd" clip-rule="evenodd" d="M27.9649 14C27.9766 14 27.9883 14 28 14C28.0117 14 28.0234 14 28.0351 14C28.4217 14.001 28.7343 14.3152 28.7333 14.7018C28.7324 15.0884 28.4182 15.401 28.0316 15.4C28.0211 15.4 28.0105 15.4 28 15.4C27.9895 15.4 27.9789 15.4 27.9684 15.4C27.5818 15.401 27.2676 15.0884 27.2667 14.7018C27.2657 14.3152 27.5783 14.001 27.9649 14ZM26.4118 14.7753C26.4775 15.1562 26.222 15.5184 25.841 15.5841C25.8204 15.5877 25.7997 15.5913 25.7791 15.595C25.3985 15.6626 25.0351 15.4089 24.9674 15.0283C24.8997 14.6477 25.1535 14.2843 25.5341 14.2166C25.557 14.2125 25.58 14.2085 25.6029 14.2045C25.9839 14.1388 26.346 14.3943 26.4118 14.7753ZM29.5882 14.7753C29.654 14.3943 30.0161 14.1388 30.3971 14.2045C30.42 14.2085 30.443 14.2125 30.4659 14.2166C30.8465 14.2843 31.1003 14.6477 31.0326 15.0283C30.9649 15.4089 30.6015 15.6626 30.2209 15.595C30.2003 15.5913 30.1796 15.5877 30.159 15.5841C29.778 15.5184 29.5225 15.1562 29.5882 14.7753ZM24.1393 15.2496C24.2707 15.6132 24.0824 16.0144 23.7188 16.1458C23.6991 16.1529 23.6795 16.16 23.6599 16.1672C23.2969 16.3004 22.8948 16.1141 22.7616 15.7512C22.6284 15.3882 22.8147 14.9861 23.1776 14.8529C23.1995 14.8449 23.2213 14.8369 23.2432 14.829C23.6068 14.6977 24.008 14.886 24.1393 15.2496ZM31.8607 15.2496C31.992 14.886 32.3932 14.6977 32.7568 14.829C32.7787 14.8369 32.8005 14.8449 32.8224 14.8529C33.1853 14.9861 33.3716 15.3882 33.2384 15.7512C33.1052 16.1141 32.7031 16.3004 32.3401 16.1672C32.3205 16.16 32.3009 16.1529 32.2812 16.1458C31.9176 16.0144 31.7293 15.6132 31.8607 15.2496ZM21.9844 16.1143C22.1772 16.4494 22.0618 16.8773 21.7267 17.0701C21.7086 17.0806 21.6904 17.091 21.6723 17.1016C21.3382 17.296 20.9097 17.1828 20.7152 16.8486C20.5208 16.5145 20.634 16.086 20.9682 15.8915C20.9883 15.8798 21.0084 15.8682 21.0286 15.8566C21.3637 15.6638 21.7917 15.7792 21.9844 16.1143ZM34.0156 16.1143C34.2083 15.7792 34.6363 15.6638 34.9714 15.8566C34.9916 15.8682 35.0117 15.8798 35.0318 15.8915C35.366 16.086 35.4792 16.5145 35.2848 16.8486C35.0903 17.1828 34.6618 17.296 34.3277 17.1016C34.3096 17.091 34.2914 17.0806 34.2733 17.0701C33.9382 16.8773 33.8228 16.4494 34.0156 16.1143ZM20.0134 17.3411C20.2613 17.6377 20.2218 18.0792 19.9251 18.3271C19.9091 18.3406 19.893 18.354 19.877 18.3675C19.5816 18.6169 19.1399 18.5796 18.8906 18.2842C18.6412 17.9888 18.6785 17.5472 18.9739 17.2978C18.9917 17.2828 19.0095 17.2678 19.0274 17.2529C19.324 17.005 19.7654 17.0445 20.0134 17.3411ZM35.9866 17.3411C36.2346 17.0445 36.676 17.005 36.9727 17.2529C36.9905 17.2678 37.0083 17.2828 37.0261 17.2978C37.3215 17.5472 37.3588 17.9888 37.1094 18.2842C36.8601 18.5796 36.4184 18.6169 36.123 18.3676C36.107 18.354 36.0909 18.3406 36.0749 18.3271C35.7782 18.0792 35.7387 17.6377 35.9866 17.3411ZM18.2842 18.8906C18.5796 19.1399 18.6169 19.5816 18.3676 19.877C18.354 19.893 18.3406 19.9091 18.3271 19.9251C18.0792 20.2218 17.6377 20.2613 17.3411 20.0134C17.0445 19.7654 17.005 19.324 17.2529 19.0273C17.2678 19.0095 17.2828 18.9917 17.2978 18.9739C17.5472 18.6785 17.9888 18.6412 18.2842 18.8906ZM37.7158 18.8906C38.0112 18.6412 38.4528 18.6785 38.7022 18.9739C38.7172 18.9917 38.7322 19.0095 38.7471 19.0274C38.995 19.324 38.9555 19.7654 38.6589 20.0134C38.3623 20.2613 37.9208 20.2218 37.6729 19.9251C37.6653 19.916 37.6577 19.9069 37.65 19.8979C37.6442 19.8909 37.6383 19.8839 37.6325 19.877C37.3831 19.5816 37.4204 19.1399 37.7158 18.8906ZM16.8486 20.7152C17.1828 20.9097 17.296 21.3382 17.1016 21.6723C17.091 21.6904 17.0806 21.7086 17.0701 21.7267C16.8773 22.0618 16.4494 22.1772 16.1143 21.9844C15.7792 21.7916 15.6638 21.3637 15.8566 21.0286C15.8682 21.0084 15.8798 20.9883 15.8915 20.9682C16.086 20.634 16.5145 20.5208 16.8486 20.7152ZM39.1514 20.7152C39.4855 20.5208 39.914 20.634 40.1085 20.9682C40.116 20.9812 40.1236 20.9942 40.1311 21.0073C40.1352 21.0144 40.1393 21.0215 40.1434 21.0286C40.3362 21.3637 40.2208 21.7917 39.8857 21.9844C39.5506 22.1772 39.1227 22.0618 38.9299 21.7267C38.9194 21.7086 38.909 21.6904 38.8984 21.6723C38.704 21.3382 38.8172 20.9097 39.1514 20.7152ZM15.7512 22.7616C16.1141 22.8948 16.3004 23.2969 16.1672 23.6599C16.16 23.6795 16.1529 23.6991 16.1458 23.7188C16.0144 24.0824 15.6132 24.2707 15.2496 24.1393C14.886 24.008 14.6977 23.6068 14.829 23.2432C14.8369 23.2213 14.8449 23.1995 14.8529 23.1776C14.9861 22.8147 15.3882 22.6284 15.7512 22.7616ZM40.2488 22.7616C40.6118 22.6284 41.0139 22.8147 41.1471 23.1776C41.1509 23.1879 41.1546 23.1983 41.1584 23.2086C41.1626 23.2201 41.1668 23.2316 41.171 23.2432C41.3023 23.6068 41.114 24.008 40.7504 24.1393C40.3868 24.2707 39.9856 24.0824 39.8542 23.7188C39.8471 23.6991 39.84 23.6795 39.8328 23.6599C39.6996 23.2969 39.8859 22.8948 40.2488 22.7616ZM15.0283 24.9674C15.4089 25.0351 15.6626 25.3985 15.595 25.7791C15.5913 25.7997 15.5877 25.8204 15.5841 25.841C15.5184 26.222 15.1562 26.4775 14.7753 26.4118C14.3943 26.346 14.1388 25.9839 14.2045 25.6029C14.2085 25.58 14.2125 25.557 14.2166 25.5341C14.2843 25.1535 14.6477 24.8997 15.0283 24.9674ZM40.9717 24.9674C41.3523 24.8997 41.7157 25.1535 41.7834 25.5341C41.7875 25.557 41.7915 25.58 41.7955 25.6029C41.8612 25.9839 41.6057 26.346 41.2247 26.4118C40.8438 26.4775 40.4816 26.222 40.4159 25.841C40.4123 25.8204 40.4087 25.7997 40.405 25.7791C40.3374 25.3985 40.5911 25.0351 40.9717 24.9674ZM14.7018 27.2667C15.0884 27.2676 15.401 27.5818 15.4 27.9684C15.4 27.9766 15.4 27.9849 15.4 27.9931L15.4 28C15.4 28.0105 15.4 28.0211 15.4 28.0316C15.401 28.4182 15.0884 28.7324 14.7018 28.7333C14.3152 28.7343 14.001 28.4217 14 28.0351C14 28.0234 14 28.0117 14 28C14 27.9883 14 27.9766 14 27.9649C14.001 27.5783 14.3152 27.2657 14.7018 27.2667ZM41.2982 27.2667C41.6848 27.2657 41.999 27.5783 42 27.9649C42 27.9712 42 27.9774 42 27.9837L42 28C42 28.0117 42 28.0234 42 28.0351C41.999 28.4217 41.6848 28.7343 41.2982 28.7333C40.9116 28.7324 40.599 28.4182 40.6 28.0316C40.6 28.0211 40.6 28.0105 40.6 28C40.6 27.9895 40.6 27.9789 40.6 27.9684C40.599 27.5818 40.9116 27.2676 41.2982 27.2667ZM14.7753 29.5882C15.1562 29.5225 15.5184 29.778 15.5841 30.159C15.5877 30.1796 15.5913 30.2003 15.595 30.2209C15.6626 30.6015 15.4089 30.9649 15.0283 31.0326C14.6477 31.1003 14.2843 30.8465 14.2166 30.4659C14.2125 30.443 14.2085 30.42 14.2045 30.3971C14.1388 30.0161 14.3943 29.654 14.7753 29.5882ZM41.2247 29.5882C41.6057 29.654 41.8612 30.0161 41.7955 30.3971C41.7933 30.4097 41.7911 30.4223 41.7889 30.4349C41.7871 30.4452 41.7852 30.4556 41.7834 30.4659C41.7157 30.8465 41.3523 31.1003 40.9717 31.0326C40.5911 30.9649 40.3374 30.6015 40.405 30.2209C40.4087 30.2003 40.4123 30.1796 40.4159 30.159C40.4816 29.778 40.8438 29.5225 41.2247 29.5882ZM15.2496 31.8607C15.6132 31.7293 16.0144 31.9176 16.1458 32.2812C16.1529 32.3009 16.16 32.3205 16.1672 32.3401C16.3004 32.7031 16.1141 33.1052 15.7512 33.2384C15.3882 33.3716 14.9861 33.1853 14.8529 32.8224C14.8449 32.8005 14.8369 32.7787 14.829 32.7568C14.6977 32.3932 14.886 31.992 15.2496 31.8607ZM40.7504 31.8607C41.114 31.992 41.3023 32.3932 41.1709 32.7568C41.1631 32.7787 41.1551 32.8005 41.1471 32.8224C41.0139 33.1853 40.6118 33.3716 40.2488 33.2384C39.8859 33.1052 39.6996 32.7031 39.8328 32.3401C39.8363 32.3305 39.8398 32.3209 39.8433 32.3113C39.847 32.3013 39.8506 32.2912 39.8542 32.2812C39.9856 31.9176 40.3868 31.7293 40.7504 31.8607ZM16.1143 34.0156C16.4494 33.8228 16.8773 33.9382 17.0701 34.2733C17.0806 34.2914 17.091 34.3096 17.1016 34.3277C17.296 34.6618 17.1828 35.0903 16.8486 35.2848C16.5145 35.4792 16.086 35.366 15.8915 35.0318C15.8798 35.0117 15.8682 34.9916 15.8566 34.9714C15.6638 34.6363 15.7792 34.2083 16.1143 34.0156ZM39.8857 34.0156C40.2208 34.2083 40.3362 34.6363 40.1434 34.9714C40.1318 34.9916 40.1202 35.0117 40.1085 35.0318C39.914 35.366 39.4855 35.4792 39.1514 35.2848C38.8172 35.0903 38.704 34.6618 38.8984 34.3277C38.909 34.3096 38.9194 34.2914 38.9299 34.2733C39.1227 33.9382 39.5506 33.8228 39.8857 34.0156ZM17.3411 35.9866C17.6377 35.7387 18.0792 35.7782 18.3271 36.0749C18.3406 36.0909 18.354 36.107 18.3675 36.123C18.6169 36.4184 18.5796 36.8601 18.2842 37.1094C17.9888 37.3588 17.5472 37.3215 17.2978 37.0261C17.2828 37.0083 17.2678 36.9905 17.2529 36.9726C17.005 36.676 17.0445 36.2346 17.3411 35.9866ZM38.6589 35.9866C38.9555 36.2346 38.995 36.676 38.7471 36.9727C38.7322 36.9905 38.7172 37.0083 38.7022 37.0261C38.4528 37.3215 38.0112 37.3588 37.7158 37.1094C37.4204 36.8601 37.3831 36.4184 37.6324 36.123C37.646 36.107 37.6594 36.0909 37.6729 36.0749C37.9208 35.7782 38.3623 35.7387 38.6589 35.9866ZM18.8906 37.7158C19.1399 37.4204 19.5816 37.3831 19.877 37.6324C19.893 37.646 19.9091 37.6594 19.9251 37.6729C20.2218 37.9208 20.2613 38.3623 20.0134 38.6589C19.7654 38.9555 19.324 38.995 19.0273 38.7471C19.0095 38.7322 18.9917 38.7172 18.9739 38.7022C18.6785 38.4528 18.6412 38.0112 18.8906 37.7158ZM37.1094 37.7158C37.3588 38.0112 37.3215 38.4528 37.0261 38.7022C37.0083 38.7172 36.9905 38.7322 36.9726 38.7471C36.676 38.995 36.2346 38.9555 35.9866 38.6589C35.7387 38.3623 35.7782 37.9208 36.0749 37.6729C36.0827 37.6664 36.0904 37.6599 36.0982 37.6533C36.1065 37.6464 36.1147 37.6394 36.123 37.6325C36.4184 37.3831 36.8601 37.4204 37.1094 37.7158ZM20.7152 39.1514C20.9097 38.8172 21.3382 38.704 21.6723 38.8984C21.6904 38.909 21.7086 38.9194 21.7267 38.9299C22.0618 39.1227 22.1772 39.5506 21.9844 39.8857C21.7916 40.2208 21.3637 40.3362 21.0286 40.1434C21.0084 40.1318 20.9883 40.1202 20.9682 40.1085C20.634 39.914 20.5208 39.4855 20.7152 39.1514ZM35.2848 39.1514C35.4792 39.4855 35.366 39.914 35.0318 40.1085C35.0117 40.1202 34.9916 40.1318 34.9714 40.1434C34.6363 40.3362 34.2083 40.2208 34.0156 39.8857C33.8228 39.5506 33.9382 39.1227 34.2733 38.9299C34.2867 38.9221 34.3002 38.9144 34.3136 38.9066C34.3183 38.9039 34.323 38.9011 34.3277 38.8984C34.6618 38.704 35.0903 38.8172 35.2848 39.1514ZM22.7616 40.2488C22.8948 39.8859 23.2969 39.6996 23.6599 39.8328C23.6795 39.84 23.6991 39.8471 23.7188 39.8542C24.0824 39.9856 24.2707 40.3868 24.1393 40.7504C24.008 41.114 23.6068 41.3023 23.2432 41.1709C23.2213 41.1631 23.1995 41.1551 23.1776 41.1471C22.8147 41.0139 22.6284 40.6118 22.7616 40.2488ZM33.2384 40.2488C33.3716 40.6118 33.1853 41.0139 32.8224 41.1471C32.8005 41.1551 32.7787 41.1631 32.7568 41.171C32.3932 41.3023 31.992 41.114 31.8607 40.7504C31.7293 40.3868 31.9176 39.9856 32.2812 39.8542C32.3009 39.8471 32.3205 39.84 32.3401 39.8328C32.7031 39.6996 33.1052 39.8859 33.2384 40.2488ZM24.9674 40.9717C25.0351 40.5911 25.3985 40.3374 25.7791 40.405C25.7997 40.4087 25.8204 40.4123 25.841 40.4159C26.222 40.4816 26.4775 40.8438 26.4118 41.2247C26.346 41.6057 25.9839 41.8612 25.6029 41.7955C25.58 41.7915 25.557 41.7875 25.5341 41.7834C25.1535 41.7157 24.8997 41.3523 24.9674 40.9717ZM31.0326 40.9717C31.1003 41.3523 30.8465 41.7157 30.4659 41.7834C30.443 41.7875 30.42 41.7915 30.3971 41.7955C30.0161 41.8612 29.654 41.6057 29.5882 41.2247C29.5225 40.8438 29.778 40.4816 30.159 40.4159C30.1683 40.4143 30.1777 40.4126 30.187 40.411C30.1983 40.409 30.2096 40.407 30.2209 40.405C30.6015 40.3374 30.9649 40.5911 31.0326 40.9717ZM27.2667 41.2982C27.2676 40.9116 27.5818 40.599 27.9684 40.6C27.9789 40.6 27.9895 40.6 28 40.6C28.0052 40.6 28.0103 40.6 28.0155 40.6C28.0209 40.6 28.0263 40.6 28.0316 40.6C28.4182 40.599 28.7324 40.9116 28.7333 41.2982C28.7343 41.6848 28.4217 41.999 28.0351 42C28.0234 42 28.0117 42 28 42C27.9883 42 27.9766 42 27.9649 42C27.5783 41.999 27.2657 41.6848 27.2667 41.2982Z" fill="#7AC142"/>
<path fill-rule="evenodd" clip-rule="evenodd" d="M28.7279 16.884C28.7358 17.38 28.3401 17.7886 27.8441 17.7965C27.8251 17.7968 27.8061 17.7971 27.7872 17.7975C27.2912 17.8082 26.8804 17.4148 26.8697 16.9188C26.859 16.4228 27.2524 16.0121 27.7484 16.0014C27.7708 16.0009 27.7931 16.0005 27.8154 16.0001C28.3115 15.9922 28.72 16.3879 28.7279 16.884ZM29.7761 17.0033C29.8949 16.5216 30.3816 16.2274 30.8633 16.3462C30.885 16.3515 30.9066 16.3569 30.9282 16.3624C31.4092 16.4838 31.7006 16.9723 31.5792 17.4533C31.4577 17.9343 30.9693 18.2257 30.4883 18.1043C30.4699 18.0996 30.4515 18.095 30.4331 18.0905C29.9515 17.9717 29.6573 17.4849 29.7761 17.0033ZM25.8268 17.0775C25.9625 17.5547 25.6858 18.0516 25.2086 18.1874C25.1994 18.19 25.1903 18.1926 25.1811 18.1952C25.1719 18.1979 25.1627 18.2005 25.1536 18.2032C24.6772 18.3416 24.1788 18.0675 24.0404 17.5911C23.902 17.1147 24.176 16.6163 24.6524 16.4779C24.6632 16.4748 24.6739 16.4717 24.6847 16.4686C24.6954 16.4655 24.7062 16.4624 24.7169 16.4594C25.1941 16.3236 25.691 16.6004 25.8268 17.0775ZM32.5605 17.84C32.7995 17.4053 33.3457 17.2466 33.7804 17.4856C33.7999 17.4964 33.8194 17.5071 33.8388 17.518C34.2723 17.7594 34.4279 18.3065 34.1865 18.7399C33.9451 19.1733 33.398 19.3289 32.9646 19.0875C32.948 19.0783 32.9315 19.0691 32.9149 19.06C32.4801 18.821 32.3214 18.2748 32.5605 17.84ZM23.0724 18.0106C23.3267 18.4365 23.1876 18.988 22.7617 19.2424C22.7454 19.2521 22.7292 19.2619 22.7129 19.2717C22.2884 19.5284 21.7362 19.3925 21.4794 18.9679C21.2227 18.5434 21.3586 17.9912 21.7831 17.7344C21.8023 17.7229 21.8214 17.7114 21.8406 17.6999C22.2665 17.4455 22.818 17.5846 23.0724 18.0106ZM35.0354 19.3659C35.3784 19.0075 35.947 18.9951 36.3054 19.3381C36.3215 19.3535 36.3376 19.369 36.3536 19.3845C36.7101 19.7295 36.7193 20.2982 36.3743 20.6547C36.0292 21.0111 35.4606 21.0204 35.1041 20.6754C35.0905 20.6622 35.0768 20.6491 35.0631 20.636C34.7048 20.2929 34.6923 19.7243 35.0354 19.3659ZM20.6547 19.6257C21.0111 19.9708 21.0204 20.5394 20.6754 20.8959C20.6622 20.9095 20.6491 20.9232 20.636 20.9369C20.2929 21.2952 19.7243 21.3077 19.3659 20.9646C19.0075 20.6216 18.9951 20.053 19.3381 19.6946C19.3535 19.6785 19.369 19.6624 19.3845 19.6464C19.7295 19.2899 20.2982 19.2807 20.6547 19.6257ZM37.0321 21.4794C37.4566 21.2227 38.0088 21.3586 38.2656 21.7831C38.2771 21.8023 38.2886 21.8214 38.3001 21.8406C38.5545 22.2665 38.4154 22.818 37.9894 23.0724C37.5635 23.3267 37.012 23.1876 36.7576 22.7617C36.7479 22.7454 36.7381 22.7292 36.7283 22.7129C36.4716 22.2884 36.6075 21.7362 37.0321 21.4794ZM18.7399 21.8135C19.1733 22.0549 19.3289 22.602 19.0875 23.0354C19.0783 23.052 19.0691 23.0685 19.06 23.0851C18.821 23.5199 18.2748 23.6786 17.84 23.4395C17.4053 23.2005 17.2466 22.6543 17.4856 22.2196C17.4964 22.2001 17.5071 22.1806 17.518 22.1612C17.7594 21.7277 18.3065 21.5721 18.7399 21.8135ZM38.4089 24.0404C38.8853 23.902 39.3837 24.176 39.5221 24.6524C39.5252 24.6632 39.5283 24.6739 39.5314 24.6847C39.5345 24.6954 39.5376 24.7062 39.5406 24.7169C39.6764 25.1941 39.3996 25.691 38.9225 25.8268C38.4453 25.9625 37.9484 25.6858 37.8126 25.2086C37.81 25.1994 37.8074 25.1903 37.8048 25.1811C37.8021 25.1719 37.7995 25.1627 37.7968 25.1536C37.6584 24.6772 37.9325 24.1788 38.4089 24.0404ZM17.4533 24.4208C17.9343 24.5423 18.2257 25.0307 18.1043 25.5117C18.0996 25.5301 18.095 25.5485 18.0905 25.5669C17.9717 26.0485 17.4849 26.3427 17.0033 26.2239C16.5216 26.1051 16.2274 25.6184 16.3462 25.1367C16.3515 25.115 16.3569 25.0934 16.3624 25.0718C16.4838 24.5908 16.9723 24.2994 17.4533 24.4208ZM39.0812 26.8697C39.5772 26.859 39.9879 27.2524 39.9986 27.7484C39.9991 27.7708 39.9995 27.7931 39.9999 27.8154C40.0078 28.3115 39.6121 28.72 39.116 28.7279C38.62 28.7358 38.2115 28.3401 38.2035 27.8441C38.2032 27.8251 38.2029 27.8061 38.2025 27.7872C38.1918 27.2912 38.5852 26.8804 39.0812 26.8697ZM16.884 27.2721C17.38 27.2642 17.7886 27.6599 17.7965 28.1559C17.7968 28.1749 17.7971 28.1939 17.7975 28.2128C17.8082 28.7088 17.4148 29.1196 16.9188 29.1303C16.4228 29.141 16.0121 28.7476 16.0014 28.2516C16.0009 28.2292 16.0005 28.2069 16.0001 28.1846C15.9922 27.6885 16.3879 27.28 16.884 27.2721ZM38.9967 29.7761C39.4784 29.8949 39.7726 30.3816 39.6538 30.8633C39.6485 30.885 39.6431 30.9066 39.6376 30.9282C39.5162 31.4092 39.0277 31.7006 38.5467 31.5792C38.0657 31.4577 37.7743 30.9693 37.8957 30.4883C37.9004 30.4699 37.905 30.4515 37.9095 30.4331C38.0283 29.9515 38.5151 29.6573 38.9967 29.7761ZM17.0775 30.1732C17.5547 30.0375 18.0516 30.3142 18.1874 30.7914C18.19 30.8006 18.1926 30.8097 18.1952 30.8189C18.1979 30.8281 18.2005 30.8373 18.2032 30.8464C18.3416 31.3228 18.0675 31.8212 17.5911 31.9596C17.1147 32.098 16.6163 31.824 16.4779 31.3476C16.4748 31.3368 16.4717 31.3261 16.4686 31.3153C16.4655 31.3046 16.4624 31.2938 16.4594 31.2831C16.3236 30.8059 16.6004 30.309 17.0775 30.1732ZM38.16 32.5605C38.5947 32.7995 38.7534 33.3457 38.5144 33.7804C38.5036 33.7999 38.4928 33.8194 38.482 33.8388C38.2406 34.2723 37.6935 34.4279 37.2601 34.1865C36.8267 33.9451 36.6711 33.398 36.9125 32.9646C36.9217 32.948 36.9309 32.9315 36.94 32.9149C37.179 32.4801 37.7252 32.3214 38.16 32.5605ZM18.0106 32.9276C18.4365 32.6733 18.988 32.8124 19.2424 33.2383C19.2521 33.2546 19.2619 33.2708 19.2717 33.2871C19.5284 33.7116 19.3925 34.2638 18.9679 34.5206C18.5434 34.7773 17.9912 34.6414 17.7344 34.2169C17.7229 34.1977 17.7114 34.1786 17.6999 34.1594C17.4455 33.7335 17.5846 33.182 18.0106 32.9276ZM36.6341 35.0354C36.9925 35.3784 37.0049 35.947 36.6619 36.3054C36.6465 36.3215 36.631 36.3376 36.6155 36.3536C36.2705 36.7101 35.7018 36.7193 35.3453 36.3743C34.9889 36.0292 34.9796 35.4606 35.3246 35.1041C35.3378 35.0905 35.3509 35.0768 35.364 35.0631C35.7071 34.7048 36.2757 34.6923 36.6341 35.0354ZM19.6257 35.3453C19.9708 34.9889 20.5394 34.9796 20.8959 35.3246C20.9095 35.3378 20.9232 35.3509 20.9369 35.364C21.2952 35.7071 21.3077 36.2757 20.9646 36.6341C20.6216 36.9925 20.053 37.0049 19.6946 36.6619C19.6785 36.6465 19.6624 36.631 19.6464 36.6155C19.2899 36.2705 19.2807 35.7018 19.6257 35.3453ZM34.5206 37.0321C34.7773 37.4566 34.6414 38.0088 34.2169 38.2656C34.1977 38.2771 34.1786 38.2886 34.1594 38.3001C33.7335 38.5545 33.182 38.4154 32.9276 37.9894C32.6733 37.5635 32.8124 37.012 33.2383 36.7576C33.2546 36.7479 33.2708 36.7381 33.2871 36.7283C33.7116 36.4716 34.2638 36.6075 34.5206 37.0321ZM21.8135 37.2601C22.0549 36.8267 22.602 36.6711 23.0354 36.9125C23.052 36.9217 23.0685 36.9309 23.0851 36.94C23.5199 37.179 23.6786 37.7252 23.4395 38.16C23.2005 38.5947 22.6543 38.7534 22.2196 38.5144C22.2001 38.5036 22.1806 38.4928 22.1612 38.482C21.7277 38.2406 21.5721 37.6935 21.8135 37.2601ZM31.9596 38.4089C32.098 38.8853 31.824 39.3837 31.3476 39.5221C31.3368 39.5252 31.3261 39.5283 31.3153 39.5314C31.3046 39.5345 31.2938 39.5376 31.2831 39.5406C30.8059 39.6764 30.309 39.3996 30.1732 38.9225C30.0375 38.4453 30.3142 37.9484 30.7914 37.8126C30.8006 37.81 30.8097 37.8074 30.8189 37.8048C30.8281 37.8021 30.8373 37.7995 30.8464 37.7968C31.3228 37.6584 31.8212 37.9325 31.9596 38.4089ZM24.4208 38.5467C24.5423 38.0657 25.0307 37.7743 25.5117 37.8957C25.5301 37.9004 25.5485 37.905 25.5669 37.9095C26.0485 38.0283 26.3427 38.5151 26.2239 38.9967C26.1051 39.4784 25.6184 39.7726 25.1367 39.6538C25.115 39.6485 25.0934 39.6431 25.0718 39.6376C24.5908 39.5162 24.2994 39.0277 24.4208 38.5467ZM29.1303 39.0812C29.141 39.5772 28.7476 39.9879 28.2516 39.9986C28.2292 39.9991 28.2069 39.9995 28.1846 39.9999C27.6885 40.0078 27.28 39.6121 27.2721 39.116C27.2642 38.62 27.6599 38.2115 28.1559 38.2035C28.1749 38.2032 28.1939 38.2029 28.2128 38.2025C28.7088 38.1918 29.1196 38.5852 29.1303 39.0812Z" fill="#3A3A3C"/>
<path fill-rule="evenodd" clip-rule="evenodd" d="M27.3227 18.924C27.3386 18.3981 27.7778 17.9846 28.3038 18.0004C28.3294 18.0012 28.355 18.0021 28.3806 18.0031C28.9064 18.023 29.3165 18.4654 29.2966 18.9912C29.2766 19.5171 28.8342 19.9272 28.3084 19.9072C28.2877 19.9064 28.267 19.9057 28.2463 19.9051C27.7204 19.8892 27.3069 19.45 27.3227 18.924ZM26.4498 19.034C26.5933 19.5402 26.2992 20.0669 25.793 20.2104C25.783 20.2133 25.7729 20.2161 25.7629 20.219C25.7529 20.2219 25.7429 20.2248 25.7329 20.2277C25.2277 20.375 24.6988 20.0849 24.5515 19.5797C24.4042 19.0746 24.6943 18.5456 25.1995 18.3983C25.2118 18.3948 25.2241 18.3912 25.2364 18.3876C25.2487 18.3841 25.2611 18.3806 25.2734 18.3771C25.7796 18.2336 26.3064 18.5277 26.4498 19.034ZM30.16 19.1596C30.3381 18.6645 30.8839 18.4075 31.379 18.5856C31.4031 18.5943 31.4271 18.603 31.451 18.6118C31.9448 18.7938 32.1976 19.3415 32.0157 19.8352C31.8338 20.329 31.286 20.5818 30.7923 20.3999C30.7729 20.3927 30.7534 20.3857 30.734 20.3787C30.2388 20.2005 29.9819 19.6547 30.16 19.1596ZM23.7535 19.9502C24.0463 20.3874 23.9292 20.9792 23.492 21.272C23.4748 21.2835 23.4577 21.2951 23.4406 21.3067C23.0056 21.6029 22.413 21.4904 22.1168 21.0554C21.8206 20.6205 21.9331 20.0278 22.3681 19.7317C22.3892 19.7173 22.4105 19.7029 22.4317 19.6887C22.869 19.3959 23.4607 19.513 23.7535 19.9502ZM32.7853 20.2611C33.107 19.8448 33.7054 19.7681 34.1218 20.0898C34.142 20.1054 34.1621 20.1211 34.1822 20.1369C34.5961 20.4618 34.6682 21.0607 34.3433 21.4746C34.0184 21.8885 33.4195 21.9607 33.0056 21.6358C32.9893 21.623 32.973 21.6103 32.9566 21.5976C32.5402 21.2759 32.4635 20.6775 32.7853 20.2611ZM21.4746 21.6567C21.8885 21.9816 21.9607 22.5805 21.6358 22.9944C21.623 23.0107 21.6103 23.027 21.5976 23.0434C21.2759 23.4598 20.6775 23.5365 20.2611 23.2147C19.8448 22.893 19.7681 22.2946 20.0898 21.8782C20.1054 21.858 20.1211 21.8379 20.1369 21.8178C20.4618 21.4039 21.0607 21.3318 21.4746 21.6567ZM34.9445 22.1168C35.3795 21.8206 35.9722 21.9331 36.2683 22.3681C36.2827 22.3892 36.2971 22.4105 36.3113 22.4317C36.6041 22.869 36.487 23.4607 36.0498 23.7535C35.6126 24.0463 35.0208 23.9292 34.728 23.492C34.7165 23.4748 34.7049 23.4577 34.6933 23.4406C34.3971 23.0056 34.5096 22.413 34.9445 22.1168ZM19.8352 23.9843C20.329 24.1662 20.5818 24.714 20.3999 25.2077C20.3927 25.2271 20.3857 25.2466 20.3787 25.266C20.2005 25.7612 19.6547 26.0181 19.1596 25.84C18.6645 25.6619 18.4075 25.1161 18.5856 24.621C18.5943 24.5969 18.603 24.5729 18.6118 24.549C18.7938 24.0552 19.3415 23.8024 19.8352 23.9843ZM36.4203 24.5515C36.9254 24.4042 37.4544 24.6943 37.6017 25.1995C37.6052 25.2118 37.6088 25.2241 37.6123 25.2364C37.6159 25.2487 37.6194 25.2611 37.6229 25.2734C37.7664 25.7796 37.4723 26.3064 36.966 26.4498C36.4598 26.5933 35.9331 26.2992 35.7896 25.793C35.7867 25.783 35.7839 25.7729 35.781 25.7629C35.7795 25.7579 35.7781 25.7528 35.7766 25.7478C35.7752 25.7428 35.7738 25.7379 35.7723 25.7329C35.625 25.2277 35.9151 24.6988 36.4203 24.5515ZM18.9912 26.7034C19.5171 26.7234 19.9272 27.1658 19.9072 27.6916C19.9064 27.7123 19.9057 27.733 19.9051 27.7537C19.8892 28.2796 19.45 28.6931 18.924 28.6773C18.3981 28.6614 17.9846 28.2222 18.0004 27.6962C18.0012 27.6706 18.0021 27.645 18.0031 27.6194C18.023 27.0936 18.4654 26.6835 18.9912 26.7034ZM37.076 27.3227C37.6019 27.3386 38.0154 27.7778 37.9996 28.3038C37.9991 28.3194 37.9986 28.3351 37.998 28.3507C37.9977 28.3607 37.9973 28.3706 37.9969 28.3806C37.977 28.9064 37.5346 29.3165 37.0088 29.2966C36.4829 29.2766 36.0728 28.8342 36.0928 28.3084C36.0936 28.2877 36.0943 28.267 36.0949 28.2463C36.1108 27.7204 36.55 27.3069 37.076 27.3227ZM19.034 29.5502C19.5402 29.4067 20.0669 29.7008 20.2104 30.207C20.2122 30.2134 20.2141 30.2198 20.2159 30.2262C20.2169 30.2298 20.218 30.2334 20.219 30.2371C20.2219 30.2471 20.2248 30.2571 20.2277 30.2671C20.375 30.7723 20.0849 31.3012 19.5797 31.4485C19.0746 31.5958 18.5456 31.3057 18.3983 30.8005C18.3948 30.7882 18.3912 30.7759 18.3876 30.7636C18.3841 30.7513 18.3806 30.7389 18.3771 30.7266C18.2336 30.2204 18.5277 29.6936 19.034 29.5502ZM36.8404 30.16C37.3355 30.3381 37.5925 30.8839 37.4144 31.379C37.4057 31.4031 37.397 31.4271 37.3882 31.451C37.2062 31.9448 36.6585 32.1976 36.1648 32.0157C35.671 31.8338 35.4182 31.286 35.6001 30.7923C35.6073 30.7729 35.6143 30.7534 35.6213 30.734C35.7995 30.2388 36.3453 29.9819 36.8404 30.16ZM19.9502 32.2465C20.3874 31.9537 20.9792 32.0708 21.272 32.508C21.2835 32.5252 21.2951 32.5423 21.3067 32.5594C21.6029 32.9944 21.4904 33.587 21.0554 33.8832C20.6205 34.1794 20.0278 34.0669 19.7317 33.6319C19.7173 33.6108 19.7029 33.5895 19.6887 33.5683C19.3959 33.131 19.513 32.5393 19.9502 32.2465ZM35.7389 32.7853C36.1552 33.107 36.2319 33.7054 35.9102 34.1218C35.8946 34.142 35.8789 34.1621 35.8631 34.1822C35.5382 34.5961 34.9393 34.6682 34.5254 34.3433C34.1115 34.0184 34.0393 33.4195 34.3642 33.0056C34.377 32.9893 34.3897 32.973 34.4024 32.9566C34.7241 32.5402 35.3225 32.4635 35.7389 32.7853ZM21.6567 34.5254C21.9816 34.1115 22.5805 34.0393 22.9944 34.3642C23.0107 34.377 23.027 34.3897 23.0434 34.4024C23.4598 34.7241 23.5365 35.3225 23.2147 35.7389C22.893 36.1552 22.2946 36.2319 21.8782 35.9102C21.858 35.8946 21.8379 35.8789 21.8178 35.8631C21.4039 35.5382 21.3318 34.9393 21.6567 34.5254ZM33.8832 34.9445C34.1794 35.3795 34.0669 35.9722 33.6319 36.2683C33.6108 36.2827 33.5895 36.2971 33.5683 36.3113C33.131 36.6041 32.5393 36.487 32.2465 36.0498C31.9537 35.6126 32.0708 35.0208 32.508 34.728C32.5252 34.7165 32.5423 34.7049 32.5594 34.6933C32.9944 34.3971 33.587 34.5096 33.8832 34.9445ZM23.9843 36.1648C24.1662 35.671 24.714 35.4182 25.2077 35.6001C25.2271 35.6073 25.2466 35.6143 25.266 35.6213C25.7612 35.7995 26.0181 36.3453 25.84 36.8404C25.6619 37.3355 25.1161 37.5925 24.621 37.4144C24.5969 37.4057 24.5729 37.397 24.549 37.3882C24.0552 37.2062 23.8024 36.6585 23.9843 36.1648ZM31.4485 36.4203C31.5958 36.9254 31.3057 37.4544 30.8005 37.6017C30.7882 37.6052 30.7759 37.6088 30.7636 37.6123C30.7513 37.6159 30.7389 37.6194 30.7266 37.6229C30.2204 37.7664 29.6936 37.4723 29.5502 36.966C29.4067 36.4598 29.7008 35.9331 30.207 35.7896C30.217 35.7867 30.2271 35.7839 30.2371 35.781C30.2419 35.7796 30.2467 35.7782 30.2514 35.7769C30.2567 35.7753 30.2619 35.7738 30.2671 35.7723C30.7723 35.625 31.3012 35.9151 31.4485 36.4203ZM26.7034 37.0088C26.7234 36.4829 27.1658 36.0728 27.6916 36.0928C27.7123 36.0936 27.733 36.0943 27.7537 36.0949C28.2796 36.1108 28.6931 36.55 28.6773 37.076C28.6614 37.6019 28.2222 38.0154 27.6962 37.9996C27.6706 37.9988 27.645 37.9979 27.6194 37.9969C27.0936 37.977 26.6835 37.5346 26.7034 37.0088Z" fill="#585859"/>
<path fill-rule="evenodd" clip-rule="evenodd" d="M27.4568 20.7365C27.4692 20.3176 27.8188 19.988 28.2378 20.0003C28.2618 20.001 28.2857 20.0019 28.3097 20.0028C28.7285 20.0189 29.055 20.3716 29.0388 20.7904C29.0226 21.2092 28.67 21.5356 28.2512 21.5195C28.2318 21.5187 28.2124 21.5181 28.193 21.5175C27.7741 21.5051 27.4444 21.1555 27.4568 20.7365ZM26.7606 20.8242C26.8746 21.2275 26.6401 21.6469 26.2368 21.761C26.2274 21.7636 26.218 21.7663 26.2086 21.769C26.1992 21.7717 26.1898 21.7744 26.1804 21.7772C25.7781 21.8948 25.3566 21.6639 25.239 21.2616C25.1214 20.8593 25.3523 20.4379 25.7546 20.3203C25.7661 20.3169 25.7776 20.3136 25.7892 20.3103C25.8007 20.3069 25.8123 20.3036 25.8238 20.3004C26.2271 20.1863 26.6465 20.4209 26.7606 20.8242ZM29.7275 20.9247C29.8692 20.5302 30.3038 20.3252 30.6982 20.4669C30.7208 20.475 30.7432 20.4831 30.7657 20.4914C31.1589 20.6366 31.36 21.073 31.2148 21.4662C31.0697 21.8594 30.6332 22.0605 30.24 21.9153C30.2218 21.9086 30.2036 21.902 30.1853 21.8954C29.7909 21.7538 29.5859 21.3192 29.7275 20.9247ZM24.6026 21.5571C24.8356 21.9056 24.742 22.3769 24.3936 22.6099C24.3774 22.6207 24.3613 22.6315 24.3453 22.6425C23.999 22.8786 23.5269 22.7893 23.2907 22.443C23.0546 22.0967 23.1439 21.6245 23.4902 21.3884C23.51 21.3749 23.5299 21.3615 23.5498 21.3481C23.8983 21.1152 24.3696 21.2087 24.6026 21.5571ZM31.8287 21.8059C32.0848 21.4741 32.5613 21.4127 32.8932 21.6688C32.9121 21.6834 32.931 21.6981 32.9498 21.7129C33.2793 21.9719 33.3365 22.449 33.0774 22.7785C32.8184 23.108 32.3413 23.1652 32.0118 22.9062C31.9965 22.8942 31.9812 22.8822 31.9659 22.8704C31.634 22.6143 31.5726 22.1377 31.8287 21.8059ZM22.7785 22.9226C23.108 23.1816 23.1652 23.6587 22.9062 23.9882C22.8942 24.0035 22.8822 24.0188 22.8704 24.0341C22.6143 24.366 22.1377 24.4274 21.8059 24.1713C21.4741 23.9152 21.4127 23.4387 21.6688 23.1068C21.6834 23.0879 21.6981 23.069 21.7129 23.0502C21.9719 22.7207 22.449 22.6635 22.7785 22.9226ZM33.557 23.2907C33.9033 23.0546 34.3755 23.1439 34.6116 23.4902C34.6251 23.51 34.6385 23.5299 34.6519 23.5498C34.8848 23.8983 34.7913 24.3696 34.4429 24.6026C34.0944 24.8356 33.6231 24.742 33.3901 24.3936C33.3793 24.3774 33.3685 24.3613 33.3575 24.3453C33.1214 23.999 33.2107 23.5269 33.557 23.2907ZM21.4662 24.7852C21.8594 24.9303 22.0605 25.3668 21.9153 25.76C21.9086 25.7782 21.902 25.7964 21.8954 25.8147C21.7538 26.2091 21.3192 26.4141 20.9247 26.2725C20.5302 26.1308 20.3252 25.6962 20.4669 25.3018C20.475 25.2792 20.4831 25.2568 20.4914 25.2343C20.6366 24.8411 21.073 24.64 21.4662 24.7852ZM34.7384 25.239C35.1407 25.1214 35.5621 25.3523 35.6797 25.7546C35.6831 25.7661 35.6864 25.7776 35.6897 25.7892C35.6931 25.8007 35.6964 25.8123 35.6996 25.8238C35.8137 26.2271 35.5791 26.6465 35.1758 26.7606C34.7725 26.8746 34.3531 26.6401 34.239 26.2368C34.2383 26.234 34.2375 26.2312 34.2367 26.2284C34.2348 26.2218 34.2329 26.2152 34.231 26.2086C34.2283 26.1992 34.2256 26.1898 34.2228 26.1804C34.1052 25.7781 34.3361 25.3566 34.7384 25.239ZM20.7904 26.9612C21.2092 26.9774 21.5356 27.33 21.5195 27.7488C21.5187 27.7682 21.5181 27.7876 21.5175 27.807C21.5051 28.2259 21.1555 28.5556 20.7365 28.5432C20.3176 28.5308 19.988 28.1812 20.0003 27.7622C20.001 27.7382 20.0019 27.7143 20.0028 27.6903C20.0189 27.2715 20.3716 26.945 20.7904 26.9612ZM35.2635 27.4568C35.6824 27.4692 36.012 27.8188 35.9997 28.2378C35.999 28.2618 35.9981 28.2857 35.9972 28.3097C35.9811 28.7285 35.6284 29.055 35.2096 29.0388C34.7908 29.0226 34.4644 28.67 34.4805 28.2512C34.4813 28.2318 34.4819 28.2124 34.4825 28.193C34.4949 27.7741 34.8445 27.4444 35.2635 27.4568ZM20.8242 29.2394C21.2275 29.1254 21.6469 29.3599 21.761 29.7632C21.7636 29.7726 21.7663 29.782 21.769 29.7914C21.7717 29.8008 21.7744 29.8102 21.7772 29.8196C21.8948 30.2219 21.6639 30.6434 21.2616 30.761C20.8593 30.8786 20.4379 30.6477 20.3203 30.2454C20.3169 30.2339 20.3136 30.2224 20.3103 30.2108C20.3069 30.1993 20.3036 30.1877 20.3004 30.1762C20.1863 29.7729 20.4209 29.3535 20.8242 29.2394ZM35.0753 29.7275C35.4698 29.8692 35.6748 30.3038 35.5331 30.6982C35.525 30.7208 35.5169 30.7432 35.5086 30.7657C35.3634 31.1589 34.927 31.36 34.5338 31.2148C34.1406 31.0697 33.9395 30.6332 34.0847 30.24C34.0914 30.2218 34.098 30.2036 34.1046 30.1853C34.2462 29.7909 34.6808 29.5859 35.0753 29.7275ZM21.5571 31.3974C21.9056 31.1644 22.3769 31.258 22.6099 31.6064C22.6207 31.6226 22.6315 31.6387 22.6425 31.6547C22.8786 32.001 22.7893 32.4731 22.443 32.7093C22.0967 32.9454 21.6245 32.8561 21.3884 32.5098C21.3749 32.49 21.3615 32.4701 21.3481 32.4502C21.1152 32.1017 21.2087 31.6304 21.5571 31.3974ZM34.1941 31.8287C34.5259 32.0848 34.5873 32.5613 34.3312 32.8932C34.3166 32.9121 34.3019 32.931 34.2871 32.9498C34.0281 33.2793 33.551 33.3365 33.2215 33.0774C32.892 32.8184 32.8348 32.3413 33.0938 32.0118C33.1058 31.9965 33.1178 31.9812 33.1296 31.9659C33.3857 31.634 33.8623 31.5726 34.1941 31.8287ZM22.9226 33.2215C23.1816 32.892 23.6587 32.8348 23.9882 33.0938C24.0035 33.1058 24.0188 33.1178 24.0341 33.1296C24.366 33.3857 24.4274 33.8623 24.1713 34.1941C23.9152 34.5259 23.4387 34.5873 23.1068 34.3312C23.0879 34.3166 23.069 34.3019 23.0502 34.2871C22.7207 34.0281 22.6635 33.551 22.9226 33.2215ZM32.7093 33.557C32.9454 33.9033 32.8561 34.3755 32.5098 34.6116C32.49 34.6251 32.4701 34.6385 32.4502 34.6519C32.1017 34.8848 31.6304 34.7913 31.3974 34.4429C31.1644 34.0944 31.258 33.6231 31.6064 33.3901C31.6158 33.3839 31.6251 33.3776 31.6344 33.3714C31.6412 33.3668 31.6479 33.3622 31.6547 33.3575C32.001 33.1214 32.4731 33.2107 32.7093 33.557ZM24.7852 34.5338C24.9303 34.1406 25.3668 33.9395 25.76 34.0847C25.7782 34.0914 25.7964 34.098 25.8147 34.1046C26.2091 34.2462 26.4141 34.6808 26.2725 35.0753C26.1308 35.4698 25.6962 35.6748 25.3018 35.5331C25.2792 35.525 25.2568 35.5169 25.2343 35.5086C24.8411 35.3634 24.64 34.927 24.7852 34.5338ZM30.761 34.7384C30.8786 35.1407 30.6477 35.5621 30.2454 35.6797C30.2339 35.6831 30.2224 35.6864 30.2108 35.6897C30.1993 35.6931 30.1877 35.6964 30.1762 35.6996C29.7729 35.8137 29.3535 35.5791 29.2394 35.1758C29.1254 34.7725 29.3599 34.3531 29.7632 34.239C29.7726 34.2364 29.782 34.2337 29.7914 34.231C29.8008 34.2283 29.8102 34.2256 29.8196 34.2228C30.2219 34.1052 30.6434 34.3361 30.761 34.7384ZM26.9612 35.2096C26.9774 34.7908 27.33 34.4644 27.7488 34.4805C27.7585 34.4809 27.7683 34.4812 27.778 34.4816C27.7877 34.4819 27.7973 34.4822 27.807 34.4825C28.2259 34.4949 28.5556 34.8445 28.5432 35.2635C28.5308 35.6824 28.1812 36.012 27.7622 35.9997C27.7382 35.999 27.7143 35.9981 27.6903 35.9972C27.2715 35.9811 26.945 35.6284 26.9612 35.2096Z" fill="#6D6E71"/>
<path fill-rule="evenodd" clip-rule="evenodd" d="M27.7449 22.4023C27.7514 22.1738 27.9418 21.9937 28.1704 22.0002C28.1937 22.0008 28.217 22.0016 28.2403 22.0025C28.4687 22.0117 28.6465 22.2042 28.6374 22.4327C28.6283 22.6611 28.4357 22.8389 28.2073 22.8298C28.1872 22.829 28.1671 22.8283 28.1471 22.8277C27.9185 22.8213 27.7385 22.6308 27.7449 22.4023ZM26.8862 22.5097C26.9481 22.7297 26.8199 22.9583 26.5998 23.0202C26.5901 23.023 26.5804 23.0257 26.5707 23.0285C26.561 23.0313 26.5513 23.0341 26.5416 23.037C26.3222 23.1014 26.0922 22.9758 26.0278 22.7565C25.9633 22.5371 26.0889 22.3071 26.3083 22.2426C26.3195 22.2394 26.3307 22.2361 26.3419 22.2329C26.3532 22.2296 26.3644 22.2264 26.3756 22.2233C26.5957 22.1614 26.8243 22.2896 26.8862 22.5097ZM29.4868 22.598C29.5638 22.3827 29.8007 22.2706 30.016 22.3476C30.0379 22.3554 30.0598 22.3634 30.0816 22.3715C30.2959 22.4509 30.4053 22.6891 30.3258 22.9035C30.2464 23.1178 30.0082 23.2272 29.7938 23.1477C29.775 23.1408 29.7562 23.1339 29.7373 23.1271C29.522 23.0502 29.4099 22.8133 29.4868 22.598ZM25.2431 23.1216C25.37 23.3118 25.3186 23.5688 25.1284 23.6956C25.1116 23.7068 25.095 23.718 25.0784 23.7293C24.8897 23.8584 24.6321 23.81 24.5031 23.6213C24.374 23.4326 24.4224 23.175 24.6111 23.046C24.6303 23.0328 24.6497 23.0197 24.6691 23.0068C24.8593 22.88 25.1163 22.9314 25.2431 23.1216ZM31.083 23.3225C31.2225 23.1413 31.4824 23.1075 31.6635 23.2469C31.682 23.2611 31.7003 23.2754 31.7186 23.2898C31.8982 23.4313 31.929 23.6916 31.7875 23.8711C31.6459 24.0507 31.3857 24.0815 31.2061 23.94C31.1904 23.9276 31.1745 23.9152 31.1586 23.903C30.9775 23.7636 30.9436 23.5037 31.083 23.3225ZM23.8711 24.2125C24.0507 24.3541 24.0815 24.6143 23.94 24.7939C23.9276 24.8096 23.9152 24.8255 23.903 24.8414C23.7636 25.0225 23.5037 25.0564 23.3225 24.917C23.1413 24.7775 23.1075 24.5176 23.2469 24.3365C23.2611 24.318 23.2754 24.2997 23.2898 24.2814C23.4313 24.1018 23.6916 24.071 23.8711 24.2125ZM32.3787 24.5031C32.5674 24.374 32.825 24.4224 32.954 24.6111C32.9672 24.6303 32.9803 24.6497 32.9932 24.6691C33.12 24.8593 33.0686 25.1163 32.8784 25.2431C32.6882 25.37 32.4312 25.3186 32.3044 25.1284C32.2932 25.1116 32.282 25.095 32.2707 25.0784C32.1416 24.8897 32.19 24.6321 32.3787 24.5031ZM22.9035 25.6742C23.1178 25.7536 23.2272 25.9918 23.1477 26.2062C23.1408 26.225 23.1339 26.2438 23.1271 26.2627C23.0502 26.478 22.8133 26.5901 22.598 26.5132C22.3827 26.4362 22.2706 26.1993 22.3476 25.984C22.3554 25.9621 22.3634 25.9402 22.3715 25.9184C22.4509 25.7041 22.6891 25.5947 22.9035 25.6742ZM33.2435 26.0278C33.4629 25.9633 33.6929 26.0889 33.7574 26.3083C33.7606 26.3195 33.7639 26.3307 33.7671 26.3419C33.7704 26.3532 33.7736 26.3644 33.7767 26.3756C33.8386 26.5957 33.7104 26.8243 33.4903 26.8862C33.2703 26.9481 33.0417 26.8199 32.9798 26.5998C32.977 26.5901 32.9743 26.5804 32.9715 26.5707C32.9687 26.561 32.9659 26.5513 32.963 26.5416C32.8986 26.3222 33.0242 26.0922 33.2435 26.0278ZM22.4327 27.3626C22.6611 27.3717 22.8389 27.5643 22.8298 27.7927C22.829 27.8128 22.8283 27.8329 22.8277 27.8529C22.8213 28.0815 22.6308 28.2615 22.4023 28.2551C22.1738 28.2486 21.9937 28.0582 22.0002 27.8296C22.0008 27.8063 22.0016 27.783 22.0025 27.7597C22.0117 27.5313 22.2042 27.3535 22.4327 27.3626ZM33.5977 27.7449C33.8262 27.7514 34.0063 27.9418 33.9998 28.1704C33.9992 28.1937 33.9984 28.217 33.9975 28.2403C33.9883 28.4687 33.7958 28.6465 33.5673 28.6374C33.3389 28.6283 33.1611 28.4357 33.1702 28.2073C33.171 28.1872 33.1717 28.1671 33.1723 28.1471C33.1787 27.9185 33.3692 27.7385 33.5977 27.7449ZM22.5097 29.1138C22.7297 29.0519 22.9583 29.1801 23.0202 29.4002C23.023 29.4099 23.0257 29.4196 23.0285 29.4293C23.0313 29.439 23.0341 29.4487 23.037 29.4584C23.1014 29.6778 22.9758 29.9078 22.7565 29.9722C22.5371 30.0367 22.3071 29.9111 22.2426 29.6917C22.2394 29.6805 22.2361 29.6693 22.2329 29.6581C22.2296 29.6468 22.2264 29.6356 22.2233 29.6244C22.1614 29.4043 22.2896 29.1757 22.5097 29.1138ZM33.402 29.4868C33.6173 29.5638 33.7294 29.8007 33.6524 30.016C33.6446 30.0379 33.6366 30.0598 33.6285 30.0816C33.5491 30.2959 33.3109 30.4053 33.0965 30.3258C32.8822 30.2464 32.7728 30.0082 32.8523 29.7938C32.8592 29.775 32.8661 29.7562 32.8729 29.7373C32.9498 29.522 33.1867 29.4099 33.402 29.4868ZM23.1216 30.7569C23.3118 30.63 23.5688 30.6814 23.6956 30.8716C23.7068 30.8884 23.718 30.905 23.7293 30.9216C23.8584 31.1103 23.81 31.3679 23.6213 31.4969C23.4326 31.626 23.175 31.5776 23.046 31.3889C23.0328 31.3697 23.0197 31.3503 23.0068 31.3309C22.88 31.1407 22.9314 30.8837 23.1216 30.7569ZM32.6775 31.083C32.8587 31.2225 32.8925 31.4824 32.7531 31.6635C32.7389 31.682 32.7246 31.7003 32.7102 31.7186C32.5687 31.8982 32.3084 31.929 32.1289 31.7875C31.9493 31.6459 31.9185 31.3857 32.06 31.2061C32.0724 31.1904 32.0848 31.1745 32.097 31.1586C32.2364 30.9775 32.4963 30.9436 32.6775 31.083ZM24.2125 32.1289C24.3541 31.9493 24.6143 31.9185 24.7939 32.06C24.8096 32.0724 24.8255 32.0848 24.8414 32.097C25.0225 32.2364 25.0564 32.4963 24.917 32.6775C24.7775 32.8587 24.5176 32.8925 24.3365 32.7531C24.318 32.7389 24.2997 32.7246 24.2814 32.7102C24.1018 32.5687 24.071 32.3084 24.2125 32.1289ZM31.4969 32.3787C31.626 32.5674 31.5776 32.825 31.3889 32.954C31.3697 32.9672 31.3503 32.9803 31.3309 32.9932C31.1407 33.12 30.8837 33.0686 30.7569 32.8784C30.63 32.6882 30.6814 32.4312 30.8716 32.3044C30.8884 32.2932 30.905 32.282 30.9216 32.2707C31.1103 32.1416 31.3679 32.19 31.4969 32.3787ZM25.6742 33.0965C25.7536 32.8822 25.9918 32.7728 26.2062 32.8523C26.225 32.8592 26.2438 32.8661 26.2627 32.8729C26.478 32.9498 26.5901 33.1867 26.5132 33.402C26.4362 33.6173 26.1993 33.7294 25.984 33.6524C25.9621 33.6446 25.9402 33.6366 25.9184 33.6285C25.7041 33.5491 25.5947 33.3109 25.6742 33.0965ZM29.9722 33.2435C30.0367 33.4629 29.9111 33.6929 29.6917 33.7574C29.6805 33.7606 29.6693 33.7639 29.6581 33.7671C29.6468 33.7704 29.6356 33.7736 29.6244 33.7767C29.4043 33.8386 29.1757 33.7104 29.1138 33.4903C29.0519 33.2703 29.1801 33.0417 29.4002 32.9798C29.4099 32.977 29.4196 32.9743 29.4293 32.9715C29.439 32.9687 29.4487 32.9659 29.4584 32.963C29.6778 32.8986 29.9078 33.0242 29.9722 33.2435ZM27.3626 33.5673C27.3717 33.3389 27.5643 33.1611 27.7927 33.1702C27.8128 33.171 27.8329 33.1717 27.8529 33.1723C28.0815 33.1787 28.2615 33.3692 28.2551 33.5977C28.2486 33.8262 28.0582 34.0063 27.8296 33.9998C27.8063 33.9992 27.783 33.9984 27.7597 33.9975C27.5313 33.9883 27.3535 33.7958 27.3626 33.5673Z" fill="#818284"/>
<defs>
<linearGradient id="paint0_linear_228_4296" x1="28" y1="0" x2="28" y2="56" gradientUnits="userSpaceOnUse">
<stop stop-color="#181B1E"/>
<stop offset="1" stop-color="#181B1E"/>
</linearGradient>
</defs>
</svg>
