<?xml version='1.0' encoding='utf-8'?>
<!-- by TradeStack -->
<svg width="56" height="56" viewBox="0 0 56 56" xmlns="http://www.w3.org/2000/svg"><path fill="#F0F3FA" d="M0 0h56v56H0z" /><path fill-rule="evenodd" d="M28 44a16 16 0 1 0 0-32 16 16 0 0 0 0 32Zm-9.39-16.3a7.9 7.9 0 0 1 1.29-4.46 7.1 7.1 0 0 1 6.1-3.16c1.77 0 3.45.54 5.02 1.34a13.93 13.93 0 0 1 6.2 6.1c.51.99.78 1.94.8 2.85A2.6 2.6 0 0 1 35.34 33a6.81 6.81 0 0 1-2.87-.94 28.4 28.4 0 0 1-6.22-5.1c-.14-.15-.3-.19-.47-.12a.43.43 0 0 0-.24.27.41.41 0 0 0 .06.35c.21.31.5.67.86 1.1 1.8 2.12 3.88 4.46 6.4 5.75.84.43 1.77.68 2.69.69 2.6.02 4.44-2 4.44-4.63 0-.87-.05-1.23-.2-1.85a10.6 10.6 0 0 0-.85-2.28 15.32 15.32 0 0 0-6.56-6.65A13.7 13.7 0 0 0 26.06 18c-.91-.01-1.9.18-2.77.44-3.46 1.03-5.5 3.3-6.1 6.77-.37 2.05-.2 4.06.5 6.03.95 2.7 2.72 4.86 5.32 6.46.25.16.52.26.8.3.04 0 .06 0 .09-.02a.11.11 0 0 0 .05-.06l.02-.15c0-.06-.03-.1-.08-.13a9.11 9.11 0 0 1-2.7-2.33 11.87 11.87 0 0 1-2.58-7.6Z" fill="#877B7F" /></svg>