<!-- by TradeStack --><svg width="56" height="56" viewBox="0 0 56 56" xmlns="http://www.w3.org/2000/svg"><path fill="#4B525C" d="M0 0h56v56H0z"/><path d="M12 32v-4h1v3.4h3v.6h-4ZM17 32v-4h4v.6h-3v1.07h2.5v.6H18v1.13h3v.6h-4ZM40 32v-4h4v.6h-3v1.07h2.5v.6H41v1.13h3v.6h-4ZM26 28.96c0-.24-.09-.36-.42-.36h-2.16c-.33 0-.42.12-.42.36v2.08c0 .24.09.36.42.36h2.16c.33 0 .42-.12.42-.36v-2.08ZM23.22 32c-.88 0-1.22-.4-1.22-.97v-2.06c0-.58.34-.97 1.22-.97h2.56c.88 0 1.22.4 1.22.97v2.06c0 .58-.34.97-1.22.97h-2.56ZM32 32l-3-3v3h-1v-4h1l3 3v-3h1v4h-1ZM36 32v-3.4h-2V28h5v.6h-2V32h-1ZM49 28.98c0-.24-.09-.38-.42-.38h-2.16c-.33 0-.42.14-.42.38v2.13c0 .24.09.29.42.29h2.16c.33 0 .42-.05.42-.29v-2.13ZM48.7 33l-.47-1h-2.01c-.88 0-1.22-.3-1.22-.9V29c0-.59.34-.99 1.22-.99h2.56c.88 0 1.22.4 1.22.99v2.11c0 .55-.27.84-1 .9l.48 1h-.79Z" fill="#F0F3FA"/><path d="M8 21a1 1 0 1 1 2 0 1 1 0 0 1-2 0ZM9.64 26.73a1.9 1.9 0 1 0-2.35-2.42c-.2.2-.22.32-.57.32-.39 0-.56-.3-.56-.3a1.14 1.14 0 1 0 0 1.06s.17-.23.56-.23c.26 0 .44.05.55.29.19.61.67 1.1 1.28 1.28.24.1.28.3.28.55 0 .39-.22.56-.22.56a1.14 1.14 0 1 0 1.07 0s-.32-.17-.32-.56c0-.24.04-.45.28-.55ZM16.62 23.23c-.61 0-1.13.4-1.31.95-.06.11-.18.2-.48.2a.62.62 0 0 1-.51-.25c-.1-.19-.26-.34-.45-.44 0 0-.24-.16-.24-.52 0-.3.08-.42.19-.48a1.38 1.38 0 1 0-.87 0c.11.06.2.18.2.48 0 .36-.25.52-.25.52a1.05 1.05 0 1 0 1.42 1.41.62.62 0 0 1 .5-.24c.31 0 .43.08.49.2a1.38 1.38 0 1 0 1.3-1.83Z" fill="#F7A824"/></svg>