<!-- by TradeStack --><svg width="56" height="56" viewBox="0 0 56 56" xmlns="http://www.w3.org/2000/svg"><path fill="#F0F3FA" d="M0 0h56v56H0z"/><path d="m19.02 14.11 5.91-4.1.03-.01.02.01.02.03v.03l-1.62 5.9-.01.01-.02.01a.04.04 0 0 1-.04 0l-4.28-1.78-.02-.01-.01-.03v-.03l.02-.03Z" fill="#612A51"/><path d="m17.93 16-4.71-.52c-.02 0-.03 0-.04-.02a.06.06 0 0 1-.02-.03L13 13.06v-.03l.03-.02a.07.07 0 0 1 .07 0l4.87 2.88.03.03v.04l-.03.03a.07.07 0 0 1-.04 0Z" fill="#52325E"/><path d="M28 26.2c-1.43-.2-2.38-.42-3.71-.66-.1-.02-.19.02-.28.1l-.13-.1v-5a.3.3 0 0 1 .05-.18l3.49-4.98c.04-.06.1-.09.17-.07l.3.17c.07.02.11.07.11.15V26.2Z" fill="#612A51"/><path d="M32.67 23.36c-.52-.4-1.62-.39-2.67.03v-5.05c0-.07.35-.12.4-.16l1.95-1.4c.32-.22.3-.26-.06-.11-.63.25-1.24.53-1.84.84-.09.05-.45.02-.45-.07v-1.78c0-.07.36-.12.43-.15 1.2-.42 2.54-.75 3.63.16.04.03.1.06.16.07 1.22.25 2.19.87 2.89 1.88.16.23.1.31-.17.25a4.38 4.38 0 0 0-1.63-.06.15.15 0 0 1-.16-.12c-.1-.46-.34-.85-.7-1.18a.06.06 0 0 0-.06 0 .06.06 0 0 0-.02.07c.38.72.53 2-.18 2.6a.13.13 0 0 1-.15 0c-.67-.35-1.4-.48-2.16-.4-.83.1-.82.15 0 .16.53.01 1.17 0 1.62.37 1.74 1.42.24 2.87-.83 4.05Z" fill="#511D41"/><path d="m9.02 21.38 4.6-4.36a.06.06 0 0 1 .07-.02l.02.03.01.03.28 5.87v.03l-.02.03a.06.06 0 0 1-.06 0l-4.88-1.5a.06.06 0 0 1-.04-.05.06.06 0 0 1 .02-.06Z" fill="#7A3554"/><path d="M20.99 18.12H21v.02l-4.96 4.84c-.03.03-.05.03-.04-.03l.98-5.87c0-.07.04-.1.1-.07l3.9 1.1Z" fill="#612A51"/><path d="M40.8 25.43a8.27 8.27 0 0 0-2.37-.03v-.05c0-.04-.02-.05-.05-.03-.14.1-.25.1-.33.04l-1.1-4.35c0-.03-.02-.04-.05-.03-.02.01-.03.02-.03.04 0 .12.04.32.08.62l-1.7.1a.22.22 0 0 0-.1.03l-.3.2c-.04.02-.08.01-.11-.03-.07-.1-.17-.13-.31-.07.37-.74.38-1.47.02-2.2-.02-.06-.02-.12.03-.17.34-.33.56-.73.67-1.2.02-.05.05-.08.12-.09 2.5-.12 4.14.7 4.62 3.3a.2.2 0 0 0 .1.14c1.25.73 1.19 2.58.82 3.78Z" fill="#702947"/><path d="M18.02 23.78 22.9 20l.03-.01h.03l.02.03v.03l-.88 3.9c0 .01 0 .02-.02.03a.06.06 0 0 1-.03.01l-4-.14h-.04l-.02-.03v-.03l.02-.02Z" fill="#612A51"/><path d="m36.95 21.64.67 3.94c.01.05 0 .06-.06.05l-2.1-.55a.1.1 0 0 1-.06-.04.1.1 0 0 1 0-.06l.23-1.24a.07.07 0 0 0-.04-.08h-.05a.07.07 0 0 0-.04.03c-.54 1-.73 2.25-1.13 3.04-.78 1.52-2.1 2.34-3.95 2.44-.06 0-.42-.02-.42-.09V23.4c1.05-.42 2.15-.43 2.67-.04a2.87 2.87 0 0 0-.28 2.15c0 .03.02.04.04.06a.09.09 0 0 0 .12-.03.08.08 0 0 0 .01-.06c-.27-1.64 1.19-2.37 1.87-3.6.14-.06.24-.04.3.07.04.04.08.05.12.02l.3-.19a.22.22 0 0 1 .1-.03l1.7-.1Z" fill="#99394D"/><path d="M13.97 25.38 9.07 27h-.02l-.03-.01-.02-.02v-.03l1.88-3.91.02-.02h.07l3.01 2.3.02.01v.03l-.01.01-.02.02Z" fill="#8D4261"/><path d="M17.45 25.04 19 28.91v.03a.07.07 0 0 1-.06.06h-4.87l-.04-.01a.07.07 0 0 1-.01-.1l3.32-3.87a.07.07 0 0 1 .1.02Z" fill="#7A3554"/><path d="M40.81 25.43c.72.94 1.3 1.96 1.72 3.04a5.08 5.08 0 0 1-.18 4.63c-.77 1.56-2.2 3.41-4.2 3.12a.13.13 0 0 1-.09-.06.12.12 0 0 1-.01-.1c.7-2.17-.96-3.26-2.74-3.88a.12.12 0 0 1-.08-.1.12.12 0 0 1 .05-.1 7.14 7.14 0 0 0 2.07-2.5c.03-.06.08-.1.14-.12l.79-.29c.7-.25.67-.34-.07-.27a5.75 5.75 0 0 0-.7.17l-.04-.01a.08.08 0 0 1-.03-.07c.02-.48-.14-.9-.48-1.25a.05.05 0 0 0-.07 0 .05.05 0 0 0-.01.06c.91 1.8-.66 3.3-2.05 4.18a.25.25 0 0 1-.15.04l-1.59-.1c-1.01.16-2.5-.25-3.09.16v-2.27c0-.03-.02-.06 0-.08.02-.02.32-.03.35-.04 2.43-.33 4.08-1.65 4.79-3.94.02-.07.06-.1.13-.1 3.31.2 5.36 2.58 4.23 5.86a.09.09 0 0 0 .05.1c.02.02.04.02.06.01.02 0 .04-.02.05-.03 1.28-1.95.13-4.08-1.41-5.5a.3.3 0 0 1-.09-.15l-.1-.48c.07.07.18.05.32-.04.03-.02.05-.01.05.03v.05c0 .02 0 .02.02.02.84-.1 1.63-.1 2.36.01Z" fill="#CA544F"/><path d="m23.88 25.54.13.1a.72.72 0 0 0-.26.6c0 .8-.07 1.61-.22 2.44-.01.07-.05.08-.11.05a17.66 17.66 0 0 1-3.04-2.18c-.04-.04-.08-.04-.13 0-.13.1-.28.17-.46.22l-.26-.63a.1.1 0 0 1 .04-.12.1.1 0 0 1 .05-.02l4.26-.46Z" fill="#822C42"/><path d="M28 26.2v5.59c-1.35-.71-2.22-1.48-3.46-2.3-.27-.19-.6-.34-1-.46l-1.84.49a.3.3 0 0 0-.16.1c-.12.16-.27.27-.44.34l-1.31-3.2c.18-.04.33-.11.46-.22.05-.03.1-.03.14 0 .93.84 1.94 1.57 3.03 2.19.06.03.1.02.11-.05.15-.83.22-1.64.22-2.45 0-.24.08-.43.26-.58.1-.09.18-.13.28-.1 1.33.23 2.29.45 3.71.65Z" fill="#99394D"/><path d="M23.55 29.03c.45 1.55.86 2.98 1.1 4.63a83.3 83.3 0 0 0 .42 2.67.11.11 0 0 1-.1.07l-.07-.02-2.63-1.88a57.89 57.89 0 0 1-1-4.02c-.04-.18-.14-.28-.28-.3.1-.08.08-.34.23-.52.04-.05.41-.12.48-.14l1.85-.5Z" fill="#A63C42"/><path d="M23.55 29.03c.38.12.71.27.99.45 1.24.83 2.11 1.6 3.46 2.3v8.68c-1.14-.25-1.8-.78-2.79-1.56.8-.73 1.58-1.02 2.5-1.55a.32.32 0 0 0 .13-.36.32.32 0 0 0-.32-.22 7.36 7.36 0 0 1-2.24-.2c-.06-.01-.12 0-.18.06l-.02-.06c0-.03-.02-.03-.04-.02l-4.18 1.97a.18.18 0 0 1-.18 0l-.3-.18-3.93-4a.13.13 0 0 0-.08-.04l-.06-.01.01-.06c.17-.11.3-.14.41-.08.04.02.09.04.14.04l5.4.3 2.63 1.89a.11.11 0 0 0 .17-.05 33.88 33.88 0 0 0-1.52-7.3Z" fill="#E36044"/><path d="M20.98 30.19c.06.06.06.11 0 .17l-4.36 3.6a.26.26 0 0 1-.16.06h-.14L16 30.29c0-.07.02-.1.1-.1h4.88Z" fill="#822C42"/><path d="M20.99 30.19c.14 0 .24.1.28.29.28 1.34.61 2.68 1 4.02l-5.4-.31a.31.31 0 0 1-.14-.04c-.1-.06-.24-.03-.41.08-.05-.03-.05-.1 0-.21h.14c.06 0 .12-.03.16-.07L21 30.2Z" fill="#CA544F"/><path d="M33.1 31.82c.97.19 2.02.53 3.17 1.03 1.29.56 1.78 1.5 1.47 2.81-.3-.64-1.92-.16-2.45-.33-.18-.06-.3-.15-.33-.3-1.55.04-3.14.2-4.6.53-.08.01-.36-.02-.36-.1v-3.48c.59-.41 2.07 0 3.1-.16Z" fill="#E36044"/><path d="M16.31 34.3a.5.5 0 0 0 .06 0c.03 0 .06.01.08.04l3.93 4c-1.57-.4-3.03-.66-4.38-.81-.1.06-.15-.06-.16-.35-.01-.84.33-2.02.47-2.89Z" fill="#F98C4C"/><path d="M34.96 35.04c.04.14.15.23.33.3.53.16 2.16-.32 2.45.32-.63 1.97-2.52 2.16-4.28 2.3-.02 0-.02.02-.03.03v.05l.04.02a7.9 7.9 0 0 0 3.49-.67c.4-.17.55-.41.79-.76a.14.14 0 0 1 .15-.06c.66.16 1.31.11 1.94-.13.15-.05.24 0 .3.13.86 2.28.88 4.94-1.72 6.05-.69.3-1.26.27-2.04.02a6.87 6.87 0 0 0-3.3-.16l.01.02h.02a11.64 11.64 0 0 1 2.66.37.11.11 0 0 1 0 .17c-1.54 1.46-4.12 1.13-5.64-.15a.25.25 0 0 1-.07-.08 3.65 3.65 0 0 1-.06-.4v-2.9c0-.03-.04-.15.09-.08 2.25 1.23 4.8 1.89 7.38 1.15a.2.2 0 0 1 .18.03l.66.5a.06.06 0 0 0 .1-.03v-.04l-.3-.42a.18.18 0 0 1-.01-.16.18.18 0 0 1 .1-.11 3.78 3.78 0 0 0 1.37-.84.06.06 0 0 0-.05-.07h-.04a9.07 9.07 0 0 1-9.44-.62.2.2 0 0 1-.02-.1V36.3a.42.42 0 0 1 .28-.4c1.35-.49 3.1-.77 4.66-.85ZM25.1 36.63l-.1 2.2c-.19.58-.47 1.14-.86 1.66-.59.77-1.35.71-2.17.85a.13.13 0 0 0-.1.11l-.05.22a42.86 42.86 0 0 1-4.71-2.47c-.3-.2-.66-.75-1.1-1.67 1.34.15 2.8.42 4.37.8l.3.18c.06.03.12.04.19 0l4.17-1.96c.02-.01.04 0 .04.02l.02.06Z" fill="#FBA975"/><path d="m25.21 38.9-.22-.08.11-2.2c.06-.04.12-.06.18-.05.9.19 1.53.05 2.31 0 .15-.02.34.27.4.43.04.14.12.28 0 .35-.92.53-1.99.82-2.78 1.55Z" fill="#CA544F"/><path d="m24.99 38.82.22.08c.99.78 1.65 1.29 2.79 1.53v2.68c0 .06.04.1 0 .15-.37.32-.68.42-1.04.3-1.81-.62-3.33-1.25-5.14-1.89l.04-.22c.01-.06.05-.1.11-.1.82-.15 1.58-.09 2.17-.86.39-.52.67-1.08.85-1.67Z" fill="#F98C4C"/></svg>