<!-- by TradeStack --><svg width="56" height="56" viewBox="0 0 56 56" xmlns="http://www.w3.org/2000/svg"><path fill="#F0F3FA" d="M0 0h56v56H0z"/><path d="M24.08 14h-4.54l-8.36 23.82A3.13 3.13 0 0 0 14.11 42h16.5l1.4-4H16.83a.83.83 0 0 1-.78-1.12L24.08 14Z"/><path d="m25.04 14-7.99 21.87a.85.85 0 0 0 .82 1.13h14.17l1.05-3H21.87a.85.85 0 0 1-.82-1.13L27.94 14h-2.9Z"/><path d="m32.93 18 1.35-4h7.7c2.08 0 3.54 2.14 2.84 4.18L36.7 42h-4.56l7.82-22.88a.87.87 0 0 0 .05-.26.82.82 0 0 0-.8-.86h-6.27Z" fill="#ED1C24"/><path d="M35.32 19H38l-4.32 13H31l4.32-13Z" fill="#ED1C24"/></svg>