<!-- by TradeStack --><svg width="56" height="56" viewBox="0 0 56 56" xmlns="http://www.w3.org/2000/svg"><path fill="#F0F3FA" d="M0 0h56v56H0z"/><path d="M42.8 34.15a16.12 16.12 0 0 0-3.5-17.45A15.79 15.79 0 0 0 28 12a15.98 15.98 0 0 0-14.21 8.6c-.18.4-.4.75-.54 1.16l-.27.67a15.86 15.86 0 0 0-.98 5.6c0 2.14.4 4.24 1.25 6.21a16.42 16.42 0 0 0 3.4 5.06 15.79 15.79 0 0 0 11.3 4.7 15.79 15.79 0 0 0 11.3-4.7 15.81 15.81 0 0 0 3.45-5.1c.05.04.05 0 .1-.05Zm-2.69 3c-2.19 2.02-5.23 2.33-6.08 2.37-1.25.05-2.41-.13-3.53-.3a14.6 14.6 0 0 0-2.77-.32c-.8 0-1.43.22-1.96.4-.68.22-1.3.4-2.28.22a9.29 9.29 0 0 1-2.15-.85c-.45-.22-.94-.49-1.38-.62a3.52 3.52 0 0 0-3.22.22 17.47 17.47 0 0 1-2.5-3.71c.8.18 1.56.58 2.32.98.58.31 1.16.63 1.83.85 2.06.76 4.65.45 6.4.27l1.2-.13c1.56-.18 3.13-.4 4.7-.27.7.04 1.42.18 2.14.31.98.18 2 .36 3.04.36h.58a9 9 0 0 0 4.73-1.43c-.26.49-.67 1.07-1.07 1.65Zm1.92-3.4A8.38 8.38 0 0 1 36.4 36c-1.12.09-2.23-.14-3.44-.31a17.93 17.93 0 0 0-7.1-.05l-1.21.13c-1.66.18-4.16.45-6-.22-.57-.22-1.15-.54-1.69-.8-.94-.5-1.92-1.03-3.08-1.12-.27-.63-.45-1.3-.63-1.97 1.16.71 2.5 1.47 3.89 2.15 1.6.76 3.17 1.16 4.65 1.16h.53c1.21-.09 2.37-.45 3.49-.76.94-.27 1.88-.58 2.82-.67 1.2-.18 2.5-.05 3.75.04.13 0 .31.05.45.05 1.43.13 2.95.22 4.38-.18a5.4 5.4 0 0 0 3.62-2.64c.4-.8.53-1.66.62-2.5l.14-.95c.13-.63.44-1.74 1.2-2.24.18.99.32 2.02.32 3.05.04 1.88-.36 3.8-1.08 5.6Zm.63-9.62c-.9.5-1.56 1.52-1.83 2.95-.05.32-.14.67-.18.99-.14.8-.23 1.56-.58 2.23a4.57 4.57 0 0 1-3.09 2.24 12.7 12.7 0 0 1-4.1.14c-.14 0-.32-.05-.46-.05-1.3-.09-2.59-.22-3.93-.04-1.03.13-2.01.44-2.95.71a12.7 12.7 0 0 1-3.3.72 9.83 9.83 0 0 1-4.79-1.07 37 37 0 0 1-4.47-2.56c-.13-.8-.18-1.6-.18-2.41v-.05a6.01 6.01 0 0 0 1.84 1.61c1.74.99 3.93 1.17 5.45 1.12.67 0 1.3-.04 1.97-.09a25.3 25.3 0 0 1 3.17-.09c.94.05 1.83.23 2.77.4.54.1 1.12.19 1.7.28.67.08 1.3.13 1.83.13 1.07 0 2.01-.18 2.82-.5 2.05-.8 3.48-2.68 4.64-4.2.9-1.16 1.75-2.37 1.66-3.85a4.39 4.39 0 0 0-2.95-3.76c-.54-.18-1.12-.31-1.66-.5a11.07 11.07 0 0 1-2.95-1.06c-.8-.5-1.6-1.21-2.36-1.93-.54-.5-1.08-.98-1.66-1.43a7.63 7.63 0 0 0-2.32-1.21c.4-.04.8-.04 1.2-.04 7.07 0 12.97 4.83 14.7 11.32ZM24.6 13.2c1.61.27 2.95.76 3.98 1.56.54.4 1.03.86 1.61 1.4.8.7 1.6 1.47 2.5 2 .99.63 2.1.9 3.18 1.17.58.13 1.07.27 1.56.45a3.53 3.53 0 0 1 2.41 3.04c.1 1.16-.67 2.2-1.47 3.27-1.16 1.47-2.5 3.18-4.3 3.9-1.1.44-2.45.53-4.24.3l-1.65-.26a29.3 29.3 0 0 0-2.86-.4c-1.12-.1-2.24 0-3.3.08-.63.05-1.3.1-1.93.1-1.39.04-3.4-.14-5-1-1.35-.75-1.97-1.6-2.1-2.9.04-.4.13-.85.22-1.25 0 .09.04.17.04.26.18.68.58 1.62 1.43 2.2a5 5 0 0 0 2.64.71c.98 0 2.01-.13 3-.27 1.42-.17 2.72-.4 4.06-.13.8.13 1.56.45 2.37.76 1.12.45 2.28.9 3.48.9.18 0 .32 0 .5-.05 1.74-.18 3.12-1.25 4.6-2.55 1.07-.94 2.1-2.01 2.01-3.36-.09-1.56-1.6-2.55-2.9-2.86-.5-.13-.99-.22-1.48-.31a8.28 8.28 0 0 1-2.19-.59c-.45-.22-.85-.53-1.3-.85a5.9 5.9 0 0 0-1.96-1.11 5.86 5.86 0 0 0-1.52-.27 8.64 8.64 0 0 1-1.2-.18 7.4 7.4 0 0 1-2.2-1.17c-.58-.4-1.2-.8-1.87-1.07 1.2-.72 2.5-1.2 3.88-1.52Zm-10.54 8.82c.26.76.67 1.56 1.25 2.14.8.8 2.14 1.26 3.84 1.26.76 0 1.61-.18 2.5-.36 1.52-.31 3.22-.67 5-.18l1 .27c1.11.31 1.91.58 2.67.58.23 0 .45 0 .67-.09a2.3 2.3 0 0 0 1.57-.98c.27-.4.31-.94.18-1.48-.23-.9-1.12-1.61-2.37-1.93a17.2 17.2 0 0 1-3-.57c-.8-.28-1.2-.68-1.6-1-.36-.3-.72-.62-1.3-.84-.9-.32-1.74-.45-2.46-.58-.18-.05-.4-.05-.58-.1a5.63 5.63 0 0 1-3-1.92c.4-.31.85-.62 1.3-.94.85.18 1.61.67 2.37 1.17.76.49 1.52 1.02 2.46 1.25a7 7 0 0 0 1.34.22 6 6 0 0 1 1.34.23c.63.18 1.16.58 1.7.98.45.31.9.67 1.43.9.76.35 1.6.49 2.41.67l1.39.27c1.03.26 2.23 1.03 2.28 2.14.09 1.03-.85 1.93-1.7 2.69-1.39 1.2-2.64 2.2-4.16 2.37-1.2.14-2.37-.31-3.57-.8-.8-.32-1.66-.63-2.5-.81-1.48-.27-2.91-.04-4.34.13-.94.14-1.92.27-2.86.27s-1.66-.18-2.15-.53a2.94 2.94 0 0 1-1.11-1.75c-.18-.72-.23-1.3-.27-2.06.09-.22.18-.45.27-.62Zm3.75-5.29a6.3 6.3 0 0 0 3.49 2.24c.17.05.4.05.58.1.71.13 1.47.22 2.28.53.44.18.71.4 1.02.71.4.4.9.85 1.88 1.17.58.22 1.25.31 1.92.45.45.09.85.13 1.17.22.76.18 1.6.67 1.78 1.34a.9.9 0 0 1-.09.8c-.18.28-.53.5-1.02.59-.76.18-1.66-.09-2.95-.5a9.83 9.83 0 0 1-.99-.3c-2-.59-3.84-.19-5.4.17-.85.18-1.61.36-2.33.36-1.03 0-2.46-.18-3.26-1.03a5.79 5.79 0 0 1-1.3-2.68c.1-.18.23-.4.31-.59.23.63.5 1.26.99 1.7.8.68 1.74.81 2.68.81.31 0 .58.05.85.05.27.04.58.04.85.04s.53-.04.85-.09c.27-.04.98-.22 1.34-.72.18-.26.27-.62.18-.94-.05-.26-.23-.62-.76-.89-.54-.31-1.16-.36-1.75-.45-.67-.09-1.25-.13-1.65-.49a16 16 0 0 0-.71-1.16c-.14-.23-.32-.54-.63-.76l.67-.68Zm-1.25 1.3c.18.1.31.27.49.58.22.4.54.9.9 1.26.58.58 1.38.67 2.14.76.54.04 1.03.13 1.43.36.18.09.31.22.31.35.05.14-.04.23-.04.27-.1.18-.4.27-.85.4-.5.14-.94.1-1.43 0-.31-.04-.58-.04-.94-.04-.9 0-1.56-.09-2.15-.58-.35-.31-.58-.94-.8-1.52a2.47 2.47 0 0 0-.18-.45c.4-.5.76-.99 1.12-1.39ZM28 43.2c-4.16 0-7.87-1.65-10.64-4.34.85-.44 1.7-.31 2.33-.04.4.18.85.4 1.3.63.75.4 1.51.8 2.32.93.35.05.67.05.94.05a4.8 4.8 0 0 0 1.74-.36 6.33 6.33 0 0 1 1.7-.36c.85 0 1.74.14 2.63.27 1.17.18 2.33.4 3.71.32.63-.05 2.2-.18 3.9-.9A14.58 14.58 0 0 1 28 43.2Z" fill="#231F20"/></svg>