<?xml version='1.0' encoding='utf-8'?>
<!-- by TradeStack -->
<svg width="56" height="56" viewBox="0 0 56 56" xmlns="http://www.w3.org/2000/svg"><path fill="#5A2D82" d="M0 0h56v56H0z" /><path d="M26.37 15.36C16.75 17.33 14.8 23.94 15.02 27c1.8-1.52 6.03-2.15 10.05-2.75 2.5-.37 4.9-.73 6.59-1.28 7.9-2.6 9.51-8.4 9.33-10.97-2.23 1.63-7.06 2.28-10.9 2.8-1.44.18-2.74.36-3.72.56Zm-3.86 11.38c-7.4.57-7.8 6.25-7.4 9.26 2.6-1.42 6.93-1.74 11.55-2.08 2.81-.2 5.74-.42 8.45-.9 5.75-1 6.23-6.43 5.75-9.02-3.16 1.86-7.27 2.09-12.95 2.4-1.66.1-3.45.2-5.4.34ZM17.46 37C16.1 37 15 38.03 15 39.3V42h22.54C38.9 42 40 40.97 40 39.7V37H17.46Z" fill="#fff" /></svg>