<!-- by TradeStack --><svg width="56" height="56" viewBox="0 0 56 56" xmlns="http://www.w3.org/2000/svg"><path fill="#F0F3FA" d="M0 0h56v56H0z"/><path d="M39 33.1C39 40.92 34.86 46 28.16 46S17 40.91 17 33.1c0-8.48 8.93-16.62 11.16-25.1C29.76 16.14 39 23.6 39 33.1Z" fill="#CECBD2"/><path d="M36.41 35.14c-.77 0-.97.68-1.3.68-1.61-.34.33-3.4 1.3-3.4s1.3.69 1.3 1.37c0 .67-.33 1.35-1.3 1.35Z" fill="#EBEAED"/><path d="M30.59 18.52c-.52-1.09-2.27-6.1-2.91-7.8 0 .8-1.3 5.54-1.94 6.44a4.91 4.91 0 0 1 1.61 2.38c.33 1.35.33 1.35 1.62 3.73 1.3 2.37.65 3.05.65 5.77 0 2.71.64 1.7 1.62 2.03.97.34 2.26-2.71 2.58-2.71.33 0 1.62 1.7 2.27 2.03.65.34-1.3-2.37-1.3-3.05 0-.68-3.55-7.46-4.2-8.82Z" fill="#A7A1AD"/><path d="M26.6 15.04c.83.97 1.58 2.04 1.72 2.8.17.85.49 1.7.81 2.54.33.85.65 1.7.81 2.55l.06.3c.3 1.63.65 3.43 1.56 3.43.39 0 .67-.16.94-.32.4-.22.74-.42 1.32-.02.28.2.54.3.77.37-.54-1.32-2.01-4.23-3.04-6.25-.44-.87-.8-1.57-.96-1.92-.34-.71-1.21-3.12-1.95-5.17l-.96-2.64c0 .52-.53 2.63-1.08 4.33Z" fill="#99939F"/><path d="M27.68 21.91c-.26-1.36-1.4-3.05-1.95-3.73-.97 0-1.61 3.73-2.26 4.75-.65 1.02-3.88 4.07-3.88 8.82s2.26 5.09 3.23 5.43c.97.34.97-.34 1.94-1.02.97-.68.97.34 1.62-.34.65-.68.33-2.71 0-3.73-.32-1.02.97-1.7 1.62-3.4.65-1.69.65-1.69.32-3.73-.32-2.03-.32-1.35-.64-3.05Z" fill="#C3BEC4"/><path d="M25.1 18.72c-.34.56-.63 1.47-.9 2.33-.26.78-.5 1.5-.73 1.88-.11.17-.3.41-.54.7-1.13 1.42-3.34 4.2-3.34 8.12 0 1.43.2 2.46.52 3.21.5.48 1.11.86 1.74.86 1.28 0 2.15-1.68 2.78-2.9.17-.32.32-.61.46-.83.45-.71.74-1.91.99-2.92.1-.44.2-.84.3-1.15.33-1.02.33-3.06.33-4.41 0-1.36-.65-3.4-.98-3.73-.09-.1-.15-.29-.23-.48-.1-.27-.2-.57-.4-.68Z" fill="#D5D0D5"/><path d="M19.8 33.97c.3.17.67.24 1.08.16 1.62-.34 2.59-1.7 2.59-2.38 0-.3.2-.75.41-1.23.27-.6.56-1.26.56-1.82 0-.34.04-.72.07-1.1.07-.75.15-1.5-.07-1.96a9.3 9.3 0 0 0-1.36-2.18l-.15.18c-1.13 1.41-3.34 4.18-3.34 8.11 0 .89.08 1.62.21 2.22Z" fill="#F4F3F4"/><path d="M28.96 10.72c1 2.58 2.6 5.13 4.22 7.73 2.66 4.24 5.41 8.63 5.78 13.55-.66.04-1.63-.5-2.22-.93-.61-.42-1.09-1.5-1.68-2.84-.35-.8-.75-1.7-1.24-2.59-1.3-2.37-4.53-8.82-5.17-11.53a5.45 5.45 0 0 1 .31-3.39ZM17.03 34.19c-.02-.35-.03-.71-.03-1.08 0-4.83 2.9-9.56 5.8-14.3 1.68-2.73 3.36-5.47 4.49-8.24.18-.05.31 0 .39.14-.12.43-.2.98-.29 1.6-.24 1.69-.56 3.98-1.98 6.2-1.7 2.69-5.17 8.15-5.5 10.53l-.06.46c-.33 2.34-.76 5.4 1.36 6.66l.97.6c1.8 1.13 3.3 2.06 5.5 1.78 1.41-.19 2.83-.88 4.04-1.47 1-.5 1.84-.9 2.43-.9 1.3 0 2.26-.35 2.9-.69.4-.2 1.22-.4 1.84-.25-.1.9-.25 1.76-.46 2.57-.6.32-1.21.39-1.37.06l-.1-.23c-.24-.52-.34-.75-1.2-.45-.33.11-.62.46-.96.88-.67.8-1.53 1.83-3.24 1.83-1.52 0-2.59.12-3.48.22-.63.06-1.16.12-1.7.12-.7 0-1.3-.29-1.85-.56a3.35 3.35 0 0 0-1.38-.46c-.97 0-1.62 0-1.94.34-.33.34-.97.68-1.3 0-.12-.25-.37-.64-.66-1.08-.49-.76-1.08-1.67-1.28-2.3-.11-.36-.42-.97-.78-1.66l-.16-.32Z" fill="#6A6274"/><path d="M19.26 37.86c-.25-.55.11-1.13.33-1.36.65-.34.97.34 1.62.68.64.34 1.29.34 1.61 1.02.33.67-.32.67-.97.67-.64 0-1.61.34-1.61.68s-.65-1.01-.98-1.7ZM32.2 39.55c-.77.28-1.83-.1-2.26-.34-.65-.26-.32-1.01.33-1.01.64 0 1.61-1.02 2.26-1.36.65-.34 1.62 0 1.62.68s-.97 1.7-1.94 2.03Z" fill="#373148"/></svg>