<?xml version='1.0' encoding='utf-8'?>
<!-- by TradeStack -->
<svg width="56" height="56" viewBox="0 0 56 56" xmlns="http://www.w3.org/2000/svg"><path fill="#F0F3FA" d="M0 0h56v56H0z" /><path d="M15 29h2v1h-3v-6h1v5Z" /><path fill-rule="evenodd" d="m19.52 29-.39 1H18l2.37-6h1.26L24 30h-1.14l-.4-1h-2.94ZM21 25.19l1.08 2.78H19.9L21 25.2Z" /><path d="M28.63 30 27 28h-1v2h-1v-6h2.41c1.1 0 2.09.7 2.09 2 0 .94-.44 1.82-1.3 2l1.8 2h-1.37ZM26 27h1.41c.87 0 1.09-.38 1.09-1 0-.63-.22-1-1.09-1H26v2ZM32 25v1.56h3v.94h-3V29h3v1h-4v-6h4v1h-3ZM37.9 24c1.78 0 3.1 1.22 3.1 3.02S39.67 30 37.9 30H36v-6h1.9Zm0 5c1.32 0 2.1-.7 2.1-2s-.77-2-2.1-2H37v4h.9ZM45 30c-1.68 0-3-1.32-3-3s1.33-3 3-3c1.68 0 3 1.32 3 3s-1.32 3-3 3Zm0-1c1.13 0 2-.82 2-2 0-1-.88-2-2-2-1 0-2 .82-2 2 0 1.18 1 2 2 2Z" /><path d="M13 27.5V29h-1.5C8.7 29 8 27 8 26v-7h7c2.4 0 3 2 3 3v2h-1.5v-2c0-1.2-1-1.5-1.5-1.5H9.5V26c0 1.2 1.33 1.5 2 1.5H13Z" fill="#108845" /><path d="M28.98 36c-1.12 0-1.98-.9-1.98-2s.87-2 1.98-2c1.11 0 1.98.89 1.98 2 0 1.11-.86 2-1.98 2Zm.02-.5c.82 0 1.5-.72 1.5-1.5s-.69-1.5-1.5-1.5c-.82 0-1.5.72-1.5 1.5s.68 1.5 1.5 1.5ZM32 32v4h-.5v-4h.5ZM33.5 35.5H35v.5h-2v-4h.5v3.5Z" /><path d="M25 34H14v.5h11V34ZM48 34H37v.5h11V34Z" fill="#108845" /></svg>