<?xml version='1.0' encoding='utf-8'?>
<!-- by TradeStack -->
<svg width="56" height="56" viewBox="0 0 56 56" xmlns="http://www.w3.org/2000/svg"><path fill="#F0F3FA" d="M0 0h56v56H0z" /><path d="M7 20h2.5v12H16v2H7V20Zm10 9.77V23h2.5v6.42c0 1.64.83 2.57 2.54 2.57 2.12 0 3.46-1.4 3.46-3.93V23H28v11h-2.5v-3.07c-.44 1.98-1.85 3.07-4.18 3.07-2.7 0-4.32-1.47-4.32-4.23Zm12-1.13c0-3.31 1.96-5.64 5.1-5.64 2.91 0 4.83 1.67 4.83 4.44h-2.38C36.5 25.87 35.78 25 34.2 25c-1.81 0-2.71 1.52-2.71 3.64S32.36 32 34.1 32c1.68 0 2.45-.87 2.48-2.4h2.38C38.93 32.4 36.98 34 34 34c-3.07 0-5-2.01-5-5.36Z" fill="#323542" /><path d="M40 38.67v-2c.3.08.8.23 1.32.23 1.1 0 1.6-.8 2.4-2.9h-.59l-4.48-11h2.74l3.31 8.66h.04L47.68 23H50l-3.97 11.47C44.88 37.82 43.88 39 41.8 39a6.21 6.21 0 0 1-1.8-.33Z" fill="#323542" /></svg>