<!-- by TradeStack --><svg width="56" height="56" viewBox="0 0 56 56" xmlns="http://www.w3.org/2000/svg"><path fill="#F0F3FA" d="M0 0h56v56H0z"/><path d="M42.42 30.9c.37-.72.93-.89 1.68-.5.13.06.24.04.33-.07 3.02-3.64 4.1-10.3-.78-13.08A17.7 17.7 0 0 0 34 15.02c-6.49.23-11.5 2.23-16.6 5.32a.37.37 0 0 0-.2.13.36.36 0 0 0-.06.22c-.01 2.07-.21 3.91-.42 5.78-.25 2.3-.5 4.64-.4 7.52 0 .11.05.14.15.1l.02-.02c1.41-.71 6.48-3.27 7.6-1.65a.31.31 0 0 1-.14.47c-2.1.8-4.17 1.72-6.2 2.79-.3.16-.6.37-.93.6-.49.34-1.02.71-1.6.94a.6.6 0 0 1-.76-.3.62.62 0 0 1-.07-.28c.04-2.52.25-5.03.47-7.55.19-2.25.38-4.5.45-6.76 0-.12-.04-.15-.14-.07-5.37 3.97-9.8 12.6-1.8 17.07C15.64 40.59 18.28 41 21 41a32.03 32.03 0 0 0 21-8.03.08.08 0 0 0-.07-.1c-.02 0-.04 0-.06.02-2.29 1.23-5.61 1.76-6.64-1.45-1.32-4.07 3.75-6.13 6.8-4.83.13.06.22.16.28.3 1 2.45-4.14 3.57-5.38 3.63-.12 0-.17.06-.17.18.05 2.25 2.47 2.1 3.91 1.41.24-.11.4-.27.58-.44.23-.22.46-.45.87-.56a.46.46 0 0 0 .3-.24Zm-10.45-2.52-.38-.01c-.13 0-.2.06-.2.19a56 56 0 0 1-1.22 9.8.25.25 0 0 1-.2.2c-.6.11-1.03-.08-1.28-.58-.22-.45-.05-.71.13-1 .1-.17.22-.35.27-.6l.27-1.42c.4-2.03.8-4.12.79-6.15a.14.14 0 0 0-.08-.13.14.14 0 0 0-.15.02l-.73.61a.72.72 0 0 1-1.13-.8c.32-.87.93-1.33 1.81-1.38a.45.45 0 0 0 .41-.32.46.46 0 0 0 .02-.19c-.24-2.11.05-4.14.87-6.08a.6.6 0 0 1 .22-.26c.22-.15.4-.3.58-.43.7-.53 1.13-.86 2.33-.71.81.1 1.27.85 1.02 1.63a.29.29 0 0 1-.29.2 7.25 7.25 0 0 1-.58-.07c-.84-.12-1.8-.25-2.2.75-.62 1.58-.9 3.22-.85 4.94 0 .13.07.19.2.18l2.81-.13a.54.54 0 0 1 .56.46c.18 1.42-1.87 1.33-3 1.28Zm-5.05-5.82c.01.09 0 .17-.02.25l-.57 2.04a.65.65 0 0 1-.8.45l-.07-.02a.65.65 0 0 1-.47-.55.66.66 0 0 1 .02-.26l.58-2.03a.65.65 0 0 1 .8-.45l.06.02a.65.65 0 0 1 .47.55Zm-.36 12.59c-.3.19-.62.2-.96.03a.43.43 0 0 1-.24-.37c-.06-2.05-.03-4.15.08-6.29.03-.79.35-1.1.95-.95a.96.96 0 0 1 .7.8c.03.13.02.26-.01.39-.51 1.99-.64 4.01-.38 6.08a.3.3 0 0 1-.14.3Zm14.38-8.06a.26.26 0 0 0-.13-.05 4.44 4.44 0 0 0-3.9 1.38.42.42 0 0 0 .41.7l.43-.12c1.07-.28 2.67-.7 3.25-1.54a.27.27 0 0 0-.06-.37Z" fill="#FF5800"/></svg>