<?xml version='1.0' encoding='utf-8'?>
<!-- by TradeStack -->
<svg width="56" height="56" viewBox="0 0 56 56" xmlns="http://www.w3.org/2000/svg"><path fill="#F0F3FA" d="M0 0h56v56H0z" /><path d="M28.5 43.55a13.4 13.4 0 0 0 3.25-3.9c3.82-6.68 3.97-17.78-.54-24.26a.76.76 0 0 1-.12-.6.77.77 0 0 1 .35-.49l.5-.3c.11-.07.25-.1.39-.07.14.02.26.1.35.21a26.93 26.93 0 0 1 1.93 2.53c2.2 4.3 3.02 9.1 2.48 14.43-.5 4.83-2.18 8.62-5.06 11.38-.27.25-.27.47 0 .65l.78.55c.31.21.28.32-.09.32-.49 0-1.03-.16-1.63-.46-.24-.12-.5-.16-.75-.11-.41.06-.81.17-1.2.32-1.1.42-1.87.22-2.77-.17a1.17 1.17 0 0 0-.8-.06c-3.69.94-6.45-.17-8.26-3.33-3.84-6.67-4.34-13.9-1.5-21.7 1.03-2.8 3.52-5.82 6.44-6.41.82-.16.91.04.3.61-2.81 2.58-4.6 5.96-5.37 10.15-1.34 7.25-.07 16.04 5.84 20.81.08.07.18.1.28.1.1 0 .2-.04.28-.11 6.13-5.54 7.37-15.23 5.19-22.84-.18-.6-.15-1.2.08-1.8l.56-1.47c.25-.66.5-.67.77-.02 3.12 7.48 2.93 14.83-.56 22.05a.78.78 0 0 0 .04.8c.33.51.22 1.01-.33 1.5-.22.2-.45.2-.68 0-.46-.4-1-.23-1.62.52-.22.28-.17.53.13.74l.72.48c.2.14.4.12.61-.05Z" fill="#002776" /><path d="M27.83 12.46c-1.9 1.24-3.3 3-4.23 5.27-3.21 7.9-2.77 15.55 1.33 22.95.15.27.13.5-.06.71l-.53.56c-.22.23-.43.24-.63.03-4.23-4.52-5.27-10.97-4.56-17.36.54-4.89 2.27-8.65 5.2-11.27a.34.34 0 0 0 .06-.43.3.3 0 0 0-.1-.1l-.44-.26a.24.24 0 0 1-.11-.14.27.27 0 0 1 .01-.2c.05-.1.13-.16.25-.2a.27.27 0 0 1 .13-.02c.05 0 .09.02.13.04.64.4 1.3.53 1.99.37 1.08-.24 1.68-.36 1.8-.36.88.04 1.59.18 2.1.44a.8.8 0 0 0 .73 0c.44-.23.9-.38 1.36-.45.5-.08.55.05.17.38a17 17 0 0 0-5.32 9.18c-1.06 4.71-1 9.18.18 13.39.2.69.18 1.36-.06 2l-.5 1.38c-.04.1-.1.17-.18.23a.46.46 0 0 1-.54 0 .51.51 0 0 1-.18-.23c-3.04-7.46-2.83-14.74.64-21.86a.78.78 0 0 0 0-.71c-.31-.66-.2-1.23.34-1.69.23-.2.4-.27.52-.22.2.07.37.18.53.32.22.2.42.19.6-.04l.62-.75c.2-.23.16-.45-.09-.64l-.46-.36c-.2-.15-.43-.14-.7.04ZM42 28.03c-.02 5.53-2.03 14.32-8.15 15.85-.8.2-.89.02-.27-.54 4.3-3.84 5.85-9.6 5.87-15.32.02-5.73-1.5-11.49-5.77-15.37-.62-.56-.53-.74.27-.54 6.1 1.58 8.07 10.38 8.05 15.92Z" fill="#002776" /></svg>