<?xml version='1.0' encoding='utf-8'?>
<!-- by TradeStack -->
<svg width="56" height="56" viewBox="0 0 56 56" xmlns="http://www.w3.org/2000/svg"><path fill="url(#anvyx3j2z)" d="M0 0h56v56H0z" /><path d="M39.7 24.18c-1.5.55-2.55.97-3.17 1.26a37.66 37.66 0 0 0-4.08 2.3 83.4 83.4 0 0 0-7.6 5.58c-.63.52-1.26 1-1.87 1.43-.64.45-1.27.9-1.9 1.37a.11.11 0 0 0-.1-.05.1.1 0 0 0-.03-.07 42.9 42.9 0 0 0-9.74-7.56.3.3 0 0 1-.13-.15c-.15-.33-.08-.58.19-.73 6.92-4 12.36-9.45 16.3-16.33.1-.18.26-.25.47-.23.2.03.36.13.46.3 2.88 5.01 6.61 9.3 11.2 12.88Z" fill="#00D1B2" /><path d="m39.7 24.18.01-.02c.34.3.77.63 1.29 1 1.33.92 2.6 1.73 3.82 2.43.06.03.1.09.13.16.1.34.06.57-.15.69a43.98 43.98 0 0 0-16.38 16.39c-.08.14-.26.2-.55.16h-.05a.3.3 0 0 1-.24-.16 43.8 43.8 0 0 0-6.5-8.71l1.9-1.37c.61-.43 1.24-.91 1.88-1.43a83.4 83.4 0 0 1 7.59-5.58c1.5-.96 2.86-1.72 4.08-2.3.62-.29 1.67-.71 3.16-1.26Z" fill="#00B798" /><defs><linearGradient id="anvyx3j2z" x1="21.22" y1="5.82" x2="38.28" y2="52.17" gradientUnits="userSpaceOnUse"><stop offset=".53" stop-color="#2B3E79" /><stop offset=".81" stop-color="#132054" /></linearGradient></defs></svg>