<?xml version='1.0' encoding='utf-8'?>
<!-- by TradeStack -->
<svg width="56" height="56" viewBox="0 0 56 56" xmlns="http://www.w3.org/2000/svg"><path fill="#F0F3FA" d="M0 0h56v56H0z" /><path d="M5 31v-7h2v6h3v1H5ZM10.74 30.27V28.8c2.3 1.6 3.55.87 3.55.42 0-.55-.81-.7-1.56-.97-.74-.27-1.99-.87-1.99-2.3 0-1.44 1.51-1.95 2.74-1.95.98 0 1.9.42 2.24.63v1.31c-1.98-1-3.26-.71-3.26-.16 0 .55.92.93 1.83 1.17.91.23 1.77 1.08 1.77 2.02S14.9 31 13.31 31a4.67 4.67 0 0 1-2.57-.73Z" /><path d="M18.49 31H17c0-10.05 16.56-13.15 24-13v1.55C23.37 19.87 18.16 26.7 18.49 31Z" fill="#CC1719" /><path fill-rule="evenodd" d="M32 23h1v8h-1v-8Zm-10.05 3L24 23.93V25h1.45v1H24v3.2c.03.24.1.72.61.72.5 0 1-.26 1.2-.4v1c-.12.14-.54.42-1.3.42-.95 0-1.51-.6-1.51-1.75V26h-1.05Zm8.8 2.24H27.2c0 .42 0 1.76 1.73 1.76.98 0 1.62-.74 1.82-1.07v1.33c-.17.25-.81.74-2 .74-2.13 0-2.56-2.02-2.56-2.85 0-.84.22-3.15 2.44-3.15 1.78 0 2.15 2.16 2.12 3.24Zm-.86-.97h-2.57c.06-.47.4-1.4 1.28-1.4s1.23.93 1.3 1.4ZM37.16 25c.69 0 1.32.2 1.84.56v1.07a2.48 2.48 0 0 0-1.68-.63c-1.28 0-2.32.9-2.32 2.02s1.04 2.03 2.32 2.03c.66 0 1.26-.24 1.68-.63v1.02c-.52.35-1.15.56-1.84.56A3.09 3.09 0 0 1 34 28c0-1.66 1.42-3 3.16-3Zm4.59 6c1.52 0 2.75-1.34 2.75-3s-1.23-3-2.75-3S39 26.34 39 28s1.23 3 2.75 3Zm0-1.1c.96 0 1.74-.85 1.74-1.9 0-1.05-.78-1.9-1.74-1.9s-1.74.85-1.74 1.9c0 1.05.78 1.9 1.74 1.9ZM46 25h-1v6h1v-4.15c.3-.4.76-.82 1.25-.82.66 0 .74.66.75.98V31h1v-3.7c0-.16-.01-.32-.03-.46.3-.4.75-.8 1.24-.8.66 0 .78.65.79.97V31h1v-3.7c0-1.45-.8-2.29-1.73-2.29-.73 0-1.35.59-1.58.9-.3-.58-.81-.9-1.38-.9-.53 0-1 .31-1.31.6V25Z" /></svg>