<!-- by TradeStack --><svg width="56" height="56" viewBox="0 0 56 56" xmlns="http://www.w3.org/2000/svg"><path fill="#F0F3FA" d="M0 0h56v56H0z"/><path fill-rule="evenodd" d="m24.23 14.4-2.69.44v.05a.03.03 0 0 0 .04.01.48.48 0 0 1 .33 0c.16.08.35.07.52.07h.3c.25.05.49.14.74.28a.1.1 0 0 1 .05.1c-.02.24-.04.33-.29.45-.4.19-.7.34-.87.44a1.2 1.2 0 0 1-.5.18l-.01-.01a.06.06 0 0 1 0-.1l.56-.32v-.02l-.02-.05v-.01h-.02l-1.66.8a.08.08 0 0 0-.04.06.08.08 0 0 0 .03.07l.16.12a.08.08 0 0 1 .02.03.07.07 0 0 1 0 .07l-.02.01c-.14.12-.48.23-.48.23a.14.14 0 0 1-.1-.02.21.21 0 0 1-.02-.02.07.07 0 0 0-.1.02c-.11.13-.26.26-.42.38-.07.05-.1.1-.11.17a11.7 11.7 0 0 1-1.35 1.15c-.24.17-.42.38-.54.63a.54.54 0 0 1-.09.12c-.72.77-1.32 1.59-1.8 2.46-.09.15-.27.64-.56 1.45-.2.54-.32 1.04-.38 1.51a22.59 22.59 0 0 0-.16 2.29c.04.06.05.1.05.12a.07.07 0 0 1-.04.04.08.08 0 0 1-.1-.02 6.4 6.4 0 0 0 .01-.87.3.3 0 0 0-.07-.18l-.01-.01h-.02a.02.02 0 0 0-.01.03v1.26c.04.65.16 1.51.38 2.57.1.49.2.82.3 1 .02.03.03.07.03.11-.01.47.15.93.48 1.36.07.09.08.2.08.3.01.1.02.18.06.24.08.15.19.27.31.37.03.02.07.03.1.03 1.83-.01 3.09.57 4.9 1.4l.98.44c.8.35 1.6.56 2.42.63a5.9 5.9 0 0 0 4.1-1.43h.01v.02c-1.46 1.56-3.08 2.94-5.37 2.84-1.28-.06-2.48-.53-3.69-1-.86-.34-1.73-.67-2.63-.86a7.82 7.82 0 0 0-6.23 1.25.03.03 0 0 1 0-.03 15.59 15.59 0 0 1 1.6-1.53l-.01-.06-.7-1.1a.23.23 0 0 1 0-.03l-.07-.15c-.07-.18-.12-.32-.23-.5-.16-.26-.28-.52-.37-.79-.25-.7-.4-1.2-.47-1.5l-.06-.35a9.32 9.32 0 0 0-.39-1.65c.03-.36.03-.7-.02-1a.75.75 0 0 1-.01-.2l.02-.13c.02-.1.04-.23.04-.36 0-.91 0-1.84.17-2.83.03-.18.04-.37.03-.58a8.07 8.07 0 0 1 .69-2.42c.05-.12.09-.25.13-.4.06-.2.13-.42.24-.62a.06.06 0 0 0-.01-.07c-.03-.02-.06-.02-.1.01a.04.04 0 0 1-.05 0l-.02-.02v-.03c.15-.34.35-.73.59-1.16.05-.1.14-.18.26-.24a.12.12 0 0 0 .05-.06l.12-.28a.13.13 0 0 0 .01-.07c-.03-.23.04-.39.21-.48a.28.28 0 0 0 .1-.1 16.8 16.8 0 0 1 1.33-1.77v-.03a.05.05 0 0 0-.05-.02c-.08 0-.13-.04-.14-.11-.01-.03 0-.07.02-.1.15-.22.3-.39.42-.5a36.64 36.64 0 0 1 1.31-1.17.1.1 0 0 1 .06 0 .06.06 0 0 1 .04.05.06.06 0 0 1-.02.05l-.71.7a.3.3 0 0 0-.05.05l-.42.65v.07h.01a.01.01 0 0 0 .01 0 13.82 13.82 0 0 1 1.54-1.37c.02 0 .03 0 .04.02a.08.08 0 0 0 .07.01h.02a1.61 1.61 0 0 0 .4-.36l.75-.55a.21.21 0 0 1 .06-.03c.15-.05.27-.12.4-.2h.04a.04.04 0 0 1 .03.02v.03c0 .02-.01.03-.03.04-.33.19-.63.41-.93.64-.22.17-.45.35-.7.5a3.2 3.2 0 0 0-.57.61v.01a.02.02 0 0 0 .04 0c1.22-1.23 1.78-1.14.21.02a2.9 2.9 0 0 0-.49.53l.01.02.02.02a.01.01 0 0 0 .01 0l.6-.6a12.6 12.6 0 0 0 .46-.35c.37-.29.6-.46 1.46-.79.26-.1.52-.24.78-.38a6.33 6.33 0 0 1 1.17-.54 9.6 9.6 0 0 1 2.33-.94l.71-.2c.19-.06.48-.12.88-.18.87-.1 1.73-.16 2.6-.2.32 0 .61.01.9.03l.45.03c.28.01.48.08.74.17l.06.03c.06.02.12.04.19.04.75.1 1.52.28 2.29.51.86.26 1.33.41 1.42.45.13.04.26.13.4.22.1.07.22.15.34.2.43.2 1 .52 1.68.93.52.32.96.71 1.39 1.1.35.33.7.65 1.1.93.05.02.08.08.12.18.01.04.04.07.06.1a15.64 15.64 0 0 1 1.83 2.52.02.02 0 0 1-.01 0 .02.02 0 0 1-.01 0l-1.12-1.5a14.19 14.19 0 0 0-1.48-1.44c-.54-.28-1.06-.7-1.58-1.12a16.5 16.5 0 0 0-.99-.76 4.4 4.4 0 0 0-.74-.42 8.97 8.97 0 0 1-.77-.36.38.38 0 0 0-.16-.05 3.24 3.24 0 0 1-1.48-.58.55.55 0 0 0-.15-.07l-.96-.23h-.05l-.37.03h-.04a18.77 18.77 0 0 0-3.45-.23.05.05 0 0 0-.02.07l.1.18a.17.17 0 0 0 .15.08c1.24.04 2.3.15 3.2.34 1.87.4 3.4 1 4.9 2.05.6.43 1.1.81 1.52 1.16l.03.02c.3.26.42.35.06.52a.1.1 0 0 1-.1-.01l-1.11-.84a.31.31 0 0 0-.05-.03l-.27-.14a.57.57 0 0 1-.14-.1 1.7 1.7 0 0 0-.6-.38.73.73 0 0 1-.26-.17l-.15-.12c-.6-.36-1.25-.67-1.96-.94-.31-.12-.63-.2-.94-.2a.84.84 0 0 1-.24-.06 5.94 5.94 0 0 0-1.34-.3 6.1 6.1 0 0 1-.84-.11.06.06 0 0 0-.02.05l.03.05.02.05c0 .02-.01.04-.03.05-.12.11-.38.12-.66.14a9.04 9.04 0 0 0-.29.03.06.06 0 0 0 0 .07l.04.02c.24.04.43.1.59.19.1.06.22.09.34.11.13.04.27.07.37.16l1.67.55.08.01c.34.03.59.07.72.1.8.23.07.32-.14.35l-.06.01a.17.17 0 0 1-.11.01l-.38-.09a4.5 4.5 0 0 0-1.22-.56c-1.13-.32-1.13-.12-1.13-.02 0 .1 0 .11-.72-.32-.1-.06-.23-.06-.37-.06-.1 0-.22 0-.31-.03a.1.1 0 0 1-.07-.06l-.03-.05a.09.09 0 0 0-.02-.04 6.78 6.78 0 0 0-1.88-.05Zm-10.07 3.33c.03-.02.06-.01.1.02l.03.01a.05.05 0 0 0 .04 0l.01-.03.22-.48a8.96 8.96 0 0 0 .5-.55c.2-.2.37-.4.55-.55l.04-.03c.28-.23 1.67-1.38 1.74-1.28l.01.04c-.03.2-.73.66-1.14.91l-.23.15c-.29.2-.6.5-.9.86a.78.78 0 0 0-.13.2.1.1 0 0 1-.08.07c-.04 0-.1.04-.18.12a.03.03 0 0 0 0 .02v.03c.03.02.02.05-.04.1l-.03.03-.47.79a.04.04 0 0 1-.04.02h-.01a.04.04 0 0 1-.03-.05.4.4 0 0 1 .12-.2.08.08 0 0 0 .02-.07l-.07-.03a.04.04 0 0 1-.03-.04v-.06Zm-1.99 3-.02-.02c.01-.06.04-.1.06-.16.17-.39.35-.81.6-1.2.15-.23.25-.43.33-.6a8.68 8.68 0 0 1 1.2-1.55l.04.01a.06.06 0 0 1 .01.08l-.51.69-.02.01c-.16.14-.36.4-.6.76a14.65 14.65 0 0 0-1.08 1.98Zm2.12 7.94a6.45 6.45 0 0 1 .06-2.75.05.05 0 0 1 .07 0v.04l-.05 1.28c0 .21 0 .45.02.72l.06.71c0 .02 0 .03-.02.04a.07.07 0 0 1-.04.02c-.06 0-.09-.02-.1-.06Z" fill="url(#a)"/><path d="m39.25 35.43-.69-.24-.02-4.37a.83.83 0 0 0-.14-.48c-.8-1.15-1.53-2.19-2.17-3.45l-.01-.01a.04.04 0 0 0-.06 0 10.88 10.88 0 0 1-5.14 4 .1.1 0 0 0-.02.07v4.96l-1 .47v-5.32a.06.06 0 0 0-.03-.06h-4.45a.04.04 0 0 1-.04-.03v-.03l.02-.02 2.92-2.05.02-.04v-.04l-1.2-2.02v-.01h-.02a.04.04 0 0 0-.03 0c-.92 1.28-2.17 2.66-3.66 3.2a.07.07 0 0 0-.04.02v4.64c0 .02-.02.04-.03.05a.06.06 0 0 1-.04.02l-.72.01a.06.06 0 0 1-.04-.02.05.05 0 0 1-.02-.03v-4.6a.06.06 0 0 0-.05-.05h-3.43l-.02-.01-.01-.02a.03.03 0 0 1 .02-.04c1.28-.8 2.48-1.8 3.6-2.68a6.33 6.33 0 0 0 1.14-1.23.18.18 0 0 1 .08-.02h3.5a.12.12 0 0 1 .1.07l.22.48h.01l.02.01a.02.02 0 0 0 .01-.02v-2.49l-.01-.03a.05.05 0 0 0-.04-.02h-3.64a.03.03 0 0 1-.01-.05l.01-.02a44.77 44.77 0 0 0 3.47-2.6 7.23 7.23 0 0 0 1.22-1.24c.02-.01.04-.09.07-.09h3.51a.18.18 0 0 1 .17.1 30.42 30.42 0 0 0 2.33 3.74.06.06 0 0 1-.02.05l-.03.02-.44.1h-.08a20.9 20.9 0 0 1-2.1-3.39.04.04 0 0 0-.04.01c-.89 1.24-2.18 2.65-3.67 3.1a.1.1 0 0 0-.04.03.09.09 0 0 0-.02.05v3.8c0 .04 0 .08.03.12l.41.7h.01a.04.04 0 0 0 .03.01h.02c.98-.74 2.06-1.42 2.75-2.36a.18.18 0 0 1 .14-.08h4.63a.17.17 0 0 1 .16.1 34.67 34.67 0 0 0 3.13 4.87.04.04 0 0 1-.03.03l-.43.1a.1.1 0 0 0-.07.09v4.24Z" fill="#33C098"/><path d="M35.94 31h-1.88c-.04 0-.06.02-.06.05v2.9c0 .03.03.05.06.05h1.89c.03 0 .06-.03.06-.05l-.01-2.9c0-.03-.02-.05-.06-.05Z" fill="#33C098"/><path d="m39.25 35.42-.69-.25a11.55 11.55 0 0 0-6.19.18 15 15 0 0 0-1.16.4l-1.1.51-1.04.66-2.3 1.47c-.22.14-.63.35-1.22.64a5.7 5.7 0 0 1-3.2.54c-1.17-.14-2.05-.4-3.42-.8-.32-.08-.67-.19-1.06-.3a10.1 10.1 0 0 0-3.02-.42c-1.97.05-3.55 1.1-4.84 2.56a.02.02 0 0 0 0 .03.02.02 0 0 0 .03 0 6.43 6.43 0 0 1 4.44-1.08c.9.1 1.74.3 2.53.59l2.92 1.04c2.02.7 4.03.98 5.98-.02.96-.47 1.88-1.07 2.77-1.67.5-.33 1-.66 1.5-.96.97-.58 2-1.04 3.1-1.38 3.64-1.04 7.63-.45 10.4 2.24h.04v-.02a7.74 7.74 0 0 0-4.47-3.96Z" fill="url(#b)"/><path d="M29.24 41.34c.93-.5 1.92-.87 2.97-1.12 2-.48 4.08-.23 6.05.42l1.03.35c1 .35 1.91.66 2.94.87 1.72.35 3.3.03 4.73-.96A11.38 11.38 0 0 0 49 39.08a.02.02 0 0 0-.03 0 7.6 7.6 0 0 1-3.82 1.49c-1.6.1-3.04-.48-4.51-1.09-.81-.33-1.64-.67-2.51-.9a7.64 7.64 0 0 0-5.03.33 14.03 14.03 0 0 0-3.86 2.43Z" fill="url(#c)"/><defs><linearGradient id="a" x1="39.24" y1="27.62" x2="10.06" y2="27.78" gradientUnits="userSpaceOnUse"><stop stop-color="#7CD28B"/><stop offset="1" stop-color="#2CBF9A"/></linearGradient><linearGradient id="b" x1="10" y1="38.43" x2="49" y2="38.43" gradientUnits="userSpaceOnUse"><stop stop-color="#2EBE9A"/><stop offset=".52" stop-color="#5ECB91"/><stop offset="1" stop-color="#87D687"/></linearGradient><linearGradient id="c" x1="10" y1="38.43" x2="49" y2="38.43" gradientUnits="userSpaceOnUse"><stop stop-color="#2EBE9A"/><stop offset=".52" stop-color="#5ECB91"/><stop offset="1" stop-color="#87D687"/></linearGradient></defs></svg>