<!-- by TradeStack --><svg width="56" height="56" viewBox="0 0 56 56" xmlns="http://www.w3.org/2000/svg"><path fill="#F0F3FA" d="M0 0h56v56H0z"/><path d="M50 28c0 1.27-.24 2.36-.73 3.25a5.03 5.03 0 0 1-1.97 2.05 5.6 5.6 0 0 1-2.8.7 5.59 5.59 0 0 1-2.81-.7 5.05 5.05 0 0 1-1.97-2.05A6.76 6.76 0 0 1 39 28c0-1.27.24-2.36.72-3.25a5 5 0 0 1 1.97-2.04c.83-.47 1.77-.71 2.81-.71s1.97.24 2.8.7a5 5 0 0 1 1.97 2.05c.49.9.73 1.98.73 3.25Zm-2.52 0a5.2 5.2 0 0 0-.37-2.09c-.25-.56-.6-1-1.04-1.29a2.8 2.8 0 0 0-1.57-.44c-.6 0-1.12.15-1.57.44-.45.3-.8.73-1.05 1.3a5.26 5.26 0 0 0-.36 2.08c0 .83.12 1.52.36 2.09.25.56.6 1 1.05 1.29.45.29.97.44 1.57.44.6 0 1.12-.15 1.57-.44.45-.3.8-.73 1.04-1.3a5.2 5.2 0 0 0 .37-2.08ZM27 34V22h2.48v5h5.04v-5H37v12h-2.48v-5h-5.04v5H27ZM15.52 24v-2H25v2h-3.48v10H19V24h-3.48ZM8 34V22h2.64v10H16v2H8Z"/></svg>