<!-- by TradeStack --><svg width="56" height="56" viewBox="0 0 56 56" xmlns="http://www.w3.org/2000/svg"><path fill="#F0F3FA" d="M0 0h56v56H0z"/><path fill-rule="evenodd" d="M44 28c0 2.51-.58 4.89-1.6 7H13.6l-.44-1h7.46l.38-2.5h-4.82l1.54-9.5h-2.8l-1.87 11.7A15.96 15.96 0 0 1 14.14 20h27.72a15.9 15.9 0 0 1 1.62 3.94c-.17-.3-.38-.56-.63-.79-.4-.37-.9-.66-1.48-.85a6.2 6.2 0 0 0-4.78.37 6.13 6.13 0 0 0-2.24 1.96 7.6 7.6 0 0 0-1.23 3.2 6.6 6.6 0 0 0 .2 3.35c.34.91.9 1.61 1.66 2.1.78.48 1.7.72 2.77.72a5.85 5.85 0 0 0 5.7-4.27h-2.82a2.59 2.59 0 0 1-1.8 1.67c-.28.08-.6.12-.93.12a2.1 2.1 0 0 1-1.28-.37 1.93 1.93 0 0 1-.69-1.12 4.86 4.86 0 0 1 0-1.86c.12-.78.35-1.44.67-1.99.32-.55.72-.97 1.2-1.27a2.98 2.98 0 0 1 2.39-.3 1.47 1.47 0 0 1 .92.99c.07.23.1.5.08.8h2.73c.05.52.08 1.06.08 1.6ZM15.5 38c-.5-.63-.95-1.3-1.36-2h27.72c-.4.7-.86 1.37-1.37 2H15.51Zm1.92 2c-.36-.32-.7-.65-1.04-1h23.24c-.33.35-.68.68-1.04 1H17.42ZM28 44c-3.48 0-6.7-1.11-9.33-3h18.66c-2.63 1.89-5.85 3-9.33 3Zm13.23-25H14.77c.48-.71 1.02-1.38 1.61-2h23.24c.59.62 1.13 1.29 1.61 2Zm-2.65-3H17.42c.4-.35.82-.69 1.25-1h18.66c.43.31.85.65 1.25 1Zm-2.83-2h-15.5a15.93 15.93 0 0 1 15.5 0ZM22 24.5l.42-2.5H33l-.42 2.5h-3.8L27.13 34h-2.98l1.66-9.5H22Z" fill="#1A3177"/></svg>