<?xml version='1.0' encoding='utf-8'?>
<!-- by TradeStack -->
<svg width="56" height="56" viewBox="0 0 56 56" xmlns="http://www.w3.org/2000/svg"><path fill="#F0F3FA" d="M0 0h56v56H0z" /><path fill-rule="evenodd" d="M51 28H5v6h46v-6ZM4 27v8h48v-8H4Z" fill="#000034" /><path fill-rule="evenodd" d="M52 21H4v7h48v-7ZM6.69 25.58h1.42V26H6v-3h.69v2.58Zm5.72-.2h-1.77l-.3.62h-.72l1.5-3h.8l1.52 3h-.73l-.3-.63Zm-.2-.38-.68-1.38-.7 1.38h1.38Zm6.4-.49c0-1.13-1.32-1.51-2.24-1.51H15v3h1.37c.91 0 2.24-.35 2.24-1.49Zm-.71 0c0 .68-.54 1.07-1.53 1.07h-.68v-2.15h.68c.99 0 1.53.4 1.53 1.08Zm3.1-1.08v.86h2v.39h-2v.9h2V26h-2.69v-3H23v.43h-2ZM27.77 26h.69v-3h-.7v2.22L25.7 23H25v3h.69v-2.22L27.77 26Zm5.48-1.54c.23.03.42.12.58.25.15.14.23.3.23.47 0 .65-.9.82-1.38.82H31v-3h1.6c.47 0 1.37.16 1.37.8 0 .16-.07.3-.2.42-.13.1-.3.2-.52.24Zm-1.56-.19h.85c.23 0 .4-.04.53-.1.13-.08.2-.18.2-.32 0-.26-.27-.42-.73-.42h-.85v.84Zm.93 1.3c.47 0 .75-.16.75-.44 0-.14-.07-.26-.2-.34a1.1 1.1 0 0 0-.57-.13h-.91v.92h.93Zm3.78-.66V23h-.69v1.9c0 .84.95 1.1 1.64 1.1.68 0 1.65-.26 1.65-1.1V23h-.69v1.9c0 .45-.35.68-.96.68-.59 0-.95-.22-.95-.67ZM43.18 26l-.97-1.2h-.53V26H41v-3h1.45c.54 0 1.49.2 1.49.92 0 .19-.09.36-.25.52-.15.15-.4.26-.73.32L44 26h-.82Zm-1.5-1.59h.77c.25 0 .45-.04.58-.13.13-.1.2-.21.2-.36 0-.31-.26-.49-.78-.49h-.77v.98Zm6.91-.86c.2.08.34.19.45.33h.83c-.15-.28-.4-.5-.76-.65a2.9 2.9 0 0 0-1.2-.23c-.38 0-.74.06-1.08.2-.32.12-.58.3-.78.53-.19.22-.28.48-.28.77 0 .28.1.54.28.77.2.23.46.4.78.54.33.12.7.19 1.09.19.36 0 .7-.06 1-.17.3-.12.54-.27.73-.46.19-.2.3-.4.35-.63v-.38h-2.32v.39h1.58a.9.9 0 0 1-.43.6 1.7 1.7 0 0 1-.91.21 2 2 0 0 1-.75-.13 1.2 1.2 0 0 1-.51-.37.92.92 0 0 1-.18-.56c0-.21.06-.4.18-.56.12-.16.3-.28.51-.37a2 2 0 0 1 .75-.13c.25 0 .48.04.67.11Z" fill="#000034" /><path d="M9.18 30v.32H7.9V33h-.61v-2.68H6V30h3.18ZM14.62 30v3H14v-1.36h-2.39V33H11v-3h.61v1.32h2.4V30h.6ZM20 32.33h-2.05l-.38.67h-.64l1.7-2.98h.7l1.7 2.98h-.66l-.37-.67Zm-.18-.33-.85-1.5-.84 1.5h1.7ZM23.61 32.68h1.65V33H23v-3h.61v2.68ZM32 30v3h-.61v-2.22L29.84 33h-.43l-1.56-2.22V33h-.61v-3h.66l1.72 2.48L31.35 30H32ZM37.18 32.33h-2.04l-.38.67h-.65l1.7-2.98h.7l1.7 2.98h-.65l-.38-.67Zm-.17-.33-.85-1.5-.85 1.5h1.7ZM44 33h-.61L41 30.61V33h-.61v-3H41l2.39 2.38V30H44v3ZM50 33h-.61L47 30.61V33h-.61v-3H47l2.39 2.38V30H50v3Z" fill="#000034" /></svg>