<!-- by TradeStack --><svg xmlns="http://www.w3.org/2000/svg" width="56" height="56" viewBox="0 0 56 56"><path fill="#F0F3FA" d="M0 0h56v56H0z"/><path d="M24.92 36.22c-7.66-5.3-11.35-14.7-12.23-18.75-1.19 1.66-2.45 6.65.66 12.03 3.11 5.37 8.9 6.6 11.57 6.72Zm-.76 2.53C15.1 35.5 9.3 27.45 7.53 23.85c-.88 1.83-1.15 6.82 3.2 11.19 4.36 4.36 10.63 4.21 13.43 3.71Zm6.92-2.53c7.66-5.3 11.35-14.7 12.23-18.75 1.19 1.66 2.45 6.65-.66 12.03-3.11 5.37-8.9 6.6-11.57 6.72Zm.76 2.53c9.07-3.26 14.86-11.3 16.63-14.9.88 1.83 1.15 6.82-3.2 11.19-4.36 4.36-10.63 4.21-13.43 3.71Z" fill="#1D4FA4"/><path d="M18.38 17c-2.06 10.39 4.75 16.33 8.4 18 0-6.19-3.76-10.47-5.64-11.83 2.2-.37 4.9 1.16 5.97 1.98-2.43-5.23-6.83-7.61-8.73-8.15Zm19.24 0c2.06 10.39-4.75 16.33-8.4 18 0-6.19 3.76-10.47 5.64-11.83-2.2-.37-4.9 1.16-5.97 1.98 2.43-5.23 6.83-7.61 8.73-8.15ZM28 22a2 2 0 1 0 0-4 2 2 0 0 0 0 4Z" fill="#7FB84A"/></svg>