<!-- by TradeStack --><svg viewBox="0 0 56 56" xmlns="http://www.w3.org/2000/svg"><path fill="#3C3C3C" d="M0 0h56v56H0z"/><path d="M4 23h1v5.34C5 29.74 6.13 31 7.46 31H9v1H7.08A3.17 3.17 0 0 1 4 28.77V23ZM16 23h-1v5.32c0 1.32-1.12 2.68-2.35 2.68h-.19c-1.3 0-2.46-1.41-2.46-2.8V23H9v5.32C9 30.35 10.55 32 12.44 32h.28c1.8 0 3.28-1.58 3.28-3.5V23ZM25 29.9a4.3 4.3 0 0 1-3.67 2.1A4.42 4.42 0 0 1 17 27.5c0-2.49 1.94-4.5 4.33-4.5 1.54 0 2.9.84 3.66 2.1l-.62.4a3.5 3.5 0 1 0 .01 3.99l.62.4ZM43 29.9a4.3 4.3 0 0 1-3.67 2.1A4.42 4.42 0 0 1 35 27.5c0-2.49 1.94-4.5 4.33-4.5 1.54 0 2.9.84 3.66 2.1l-.62.4a3.5 3.5 0 1 0 .01 3.99l.62.4Z" fill="#F0F3FA"/><path fill-rule="evenodd" d="M34 27.5a4.5 4.5 0 1 0-.46 1.99l-.87-.5a3.5 3.5 0 0 1-6.63-.99h7.93c.02-.16.03-.33.03-.5Zm-1.04-.5a3.5 3.5 0 0 0-6.92 0h6.92ZM52 27.5a4.5 4.5 0 1 0-9 0 4.5 4.5 0 0 0 9 0Zm-1 0a3.5 3.5 0 1 0-7 0 3.5 3.5 0 0 0 7 0Z" fill="#F0F3FA"/><path fill-rule="evenodd" d="M50 27.5a2.5 2.5 0 1 0-5 0 2.5 2.5 0 0 0 5 0Zm-.46 0a2.04 2.04 0 1 0-4.08 0 2.04 2.04 0 0 0 4.08 0Z" fill="#BFCB5E"/><path fill-rule="evenodd" d="M49 27.5a1.5 1.5 0 1 0-3 0 1.5 1.5 0 0 0 3 0Zm-.5 0a1 1 0 1 0-2 0 1 1 0 0 0 2 0Z" fill="#EBD645"/></svg>