<!-- by TradeStack --><svg width="56" height="56" viewBox="0 0 56 56" xmlns="http://www.w3.org/2000/svg"><path fill="url(#atsyggqck)" d="M0 0h56v56H0z"/><path d="M4 20h1v14h3v1H4V20Zm5 12V20h1v12c0 .34.1.85.4 1.27.29.4.76.73 1.6.73.84 0 1.31-.34 1.6-.73.3-.42.4-.93.4-1.27V20h1v12c0 .5-.14 1.23-.6 1.85A2.82 2.82 0 0 1 12 35c-1.16 0-1.94-.5-2.4-1.15A3.3 3.3 0 0 1 9 32Zm17-12h5v1h-4v6h3v1h-3v7h-1V20Zm9 0c1.46 0 3 1.39 3 3v9c0 1.6-1.42 3-3 3-1.76 0-3-1.24-3-3v-9c0-1.62 1.53-3 3-3Zm-2 3v9c0 1.21.79 2 2 2 1.03 0 2-.95 2-2v-9c0-1.05-1.1-2-2-2-.9 0-2 .95-2 2Zm7 11V20h-1v15h4v-1h-3Zm4 1V20h1v15h-1Zm3-12v9c0 1.15.85 2 2 2s2-.85 2-2v-9c0-1.19-.65-2-2-2-1.34 0-2 .8-2 2Zm2-3c1.9 0 3 1.26 3 3v9c0 1.7-1.3 3-3 3s-3-1.3-3-3v-9c0-1.75 1.1-3 3-3Z" fill="#fff"/><path d="m15.44 20 3.94 7.87L15.92 35h1.1l2.92-6 1 2-4.5 9h1.12l3.94-7.88L25.44 40h1.12l-4.5-9 2-4h-1.12l-1.44 2.88-1-2.01L24.3 20h-1.1l-3.28 6.74L16.56 20h-1.12Z" fill="#EDD384"/><defs><linearGradient id="atsyggqck" x1="10.42" y1="9.71" x2="68.15" y2="76.02" gradientUnits="userSpaceOnUse"><stop stop-color="#1A1E21"/><stop offset="1" stop-color="#06060A"/></linearGradient></defs></svg>