<?xml version='1.0' encoding='utf-8'?>
<!-- by TradeStack -->
<svg width="56" height="56" viewBox="0 0 56 56" xmlns="http://www.w3.org/2000/svg"><path fill="#F0F3FA" d="M0 0h56v56H0z" /><path d="M13.06 17H8v18c0 3.5 3.57 4.83 5.06 5H26.5l-4.45-5h-8.99V17ZM16 22v-5h3.48a2 2 0 0 1 1.62.82L30 31l9.4-13.22a2 2 0 0 1 1.58-.78H48v5h-5.46a1 1 0 0 0-.84.45L30 40 18.3 22.45a1 1 0 0 0-.84-.45H16Z" fill="#B49E5C" /><path d="M4.2 30a.2.2 0 0 1-.2-.2v-4.6c0-.11.09-.2.2-.2h.6c.11 0 .2.09.2.2v3.6c0 .11.09.2.2.2h1.49c.1 0 .2.09.2.2v.6a.2.2 0 0 1-.2.2H4.2Z" /><path fill-rule="evenodd" d="M10.72 30a.2.2 0 0 1-.2-.15l-.19-.7a.2.2 0 0 0-.2-.15H8.62a.2.2 0 0 0-.19.15l-.2.7a.2.2 0 0 1-.19.15H7.4a.2.2 0 0 1-.19-.26l1.52-4.6a.2.2 0 0 1 .2-.14h.92a.2.2 0 0 1 .19.14l1.52 4.6a.2.2 0 0 1-.19.26h-.64Zm-1-2h-.68a.2.2 0 0 1-.2-.25l.27-.97a44.13 44.13 0 0 0 .18-.63v-.02c.03-.08.15-.08.17 0a33.18 33.18 0 0 1 .2.65l.26.97a.2.2 0 0 1-.2.25Z" /><path d="M15.58 29.7a.2.2 0 0 1-.17.3h-.66a.2.2 0 0 1-.17-.1l-1.06-1.82a.2.2 0 0 0-.29-.06l-.15.12a.2.2 0 0 0-.08.16v1.5a.2.2 0 0 1-.2.2h-.6a.2.2 0 0 1-.2-.2v-4.6c0-.11.09-.2.2-.2h.6c.11 0 .2.09.2.2v2.1c0-.07.06-.13.11-.2a21.96 21.96 0 0 1 .27-.38l1.2-1.64a.2.2 0 0 1 .17-.08h.6a.2.2 0 0 1 .17.32l-1.32 1.8a.2.2 0 0 0-.01.22l1.4 2.36ZM18.7 29.8a.2.2 0 0 1-.2.2h-2.3a.2.2 0 0 1-.2-.2v-4.6c0-.11.09-.2.2-.2h2.3c.1 0 .2.09.2.2v.6a.2.2 0 0 1-.2.2h-1.3a.2.2 0 0 0-.2.2v.59c0 .1.09.21.2.21h1.18c.1 0 .2.08.2.19v.61a.2.2 0 0 1-.2.2H17.2a.2.2 0 0 0-.2.2v.6c0 .11.09.2.2.2h1.3c.1 0 .2.09.2.2v.6ZM25.35 25a.2.2 0 0 1 .2.26l-1.47 4.6a.2.2 0 0 1-.2.14h-.78a.2.2 0 0 1-.2-.14l-1.45-4.6a.2.2 0 0 1 .19-.26h.58a.2.2 0 0 1 .19.14l.84 2.83a6.93 6.93 0 0 1 .17.7c.02.05.13.05.14 0a41.66 41.66 0 0 1 .18-.7l.84-2.83a.2.2 0 0 1 .2-.14h.57ZM26.2 30a.2.2 0 0 1-.2-.2v-4.6c0-.11.1-.2.2-.2h.6c.11 0 .2.09.2.2v4.6a.2.2 0 0 1-.2.2h-.6ZM30.2 25.86c-.9 0-1.2.9-1.2 1.64 0 .78.28 1.64 1.2 1.64.18 0 .37-.02.56-.06l.36-.1a.2.2 0 0 1 .27.2v.44a.2.2 0 0 1-.12.18 2.84 2.84 0 0 1-1.17.2c-1.45 0-2.1-1.15-2.1-2.49 0-1.33.77-2.5 2.2-2.5a3.38 3.38 0 0 1 1.2.27c.1.03.14.14.1.24l-.18.46a.2.2 0 0 1-.27.11l-.33-.13c-.18-.06-.35-.1-.53-.1ZM34 29.8a.2.2 0 0 1-.2.2h-.6a.2.2 0 0 1-.2-.2v-3.6a.2.2 0 0 0-.2-.2h-.87a.2.2 0 0 1-.2-.2v-.6c0-.11.09-.2.2-.2h3.13c.11 0 .2.09.2.2v.6a.2.2 0 0 1-.2.2h-.86a.2.2 0 0 0-.2.2v3.6ZM40.45 27.5c0 1.4-.74 2.5-2.22 2.5C36.8 30 36 28.89 36 27.5c0-1.41.75-2.5 2.23-2.5s2.22 1.1 2.22 2.5Zm-3.41 0c0 1 .35 1.5 1.19 1.5.92 0 1.18-.71 1.18-1.5s-.25-1.5-1.18-1.5c-.92 0-1.19.7-1.19 1.5ZM42.36 25c.97 0 1.87.43 1.87 1.53 0 .5-.26.91-.67 1.18-.1.06-.14.2-.08.3l1.06 1.68a.2.2 0 0 1-.17.31h-.62a.2.2 0 0 1-.17-.1l-1-1.73c-.04-.06-.1-.17-.18-.17h-.2c-.11 0-.2.16-.2.27v1.53a.2.2 0 0 1-.2.2h-.6a.2.2 0 0 1-.2-.2v-4.6c0-.11.09-.2.2-.2h1.16Zm-.07 1h-.09a.2.2 0 0 0-.2.2v.6c0 .11.09.2.2.2h.11c.66 0 .92 0 .92-.44 0-.46-.3-.56-.94-.56ZM46.2 30a.2.2 0 0 1-.2-.2v-4.6c0-.11.09-.2.2-.2h.6c.11 0 .2.09.2.2v4.6a.2.2 0 0 1-.2.2h-.6ZM51.08 30a.2.2 0 0 1-.19-.15l-.2-.7a.2.2 0 0 0-.19-.15h-1.52a.2.2 0 0 0-.2.15l-.2.7a.2.2 0 0 1-.18.15h-.64a.2.2 0 0 1-.2-.26l1.52-4.6a.2.2 0 0 1 .2-.14h.92a.2.2 0 0 1 .19.14l1.52 4.6a.2.2 0 0 1-.19.26h-.64Zm-1.68-2h.7a.2.2 0 0 0 .18-.25l-.26-.97a12.78 12.78 0 0 0-.2-.65c-.02-.08-.14-.08-.16 0v.02a35.43 35.43 0 0 1-.19.63l-.26.97a.2.2 0 0 0 .19.25ZM8.02 32v3h-.47v-2.04L6.67 35h-.32l-.88-2.04V35H5v-3h.5l1.01 2.34 1-2.34h.5ZM9.68 32v3h-.47v-3h.47ZM13.23 35h-.47l-1.41-2.22V35h-.47v-3h.47l1.41 2.22V32h.47v3ZM14.9 32v3h-.47v-3h.47ZM18.45 35h-.47l-1.42-2.22V35h-.47v-3h.47l1.42 2.22V32h.47v3ZM21.71 32.88a.76.76 0 0 0-.3-.33.9.9 0 0 0-.46-.11.92.92 0 0 0-.86.5 1.2 1.2 0 0 0-.12.56c0 .2.04.4.12.56a.92.92 0 0 0 .86.5c.25 0 .46-.07.62-.22a.96.96 0 0 0 .3-.6h-1.08v-.38h1.58v.38a1.45 1.45 0 0 1-2.7.53c-.12-.23-.19-.49-.19-.77 0-.29.07-.55.2-.77a1.46 1.46 0 0 1 1.27-.73c.3 0 .57.08.81.23.24.15.41.37.52.65h-.57ZM24.9 33.5c0-.29.06-.55.2-.77.12-.23.3-.4.52-.54.23-.13.48-.19.74-.19.3 0 .58.08.81.23.24.15.42.37.52.65h-.56a.77.77 0 0 0-.31-.34.9.9 0 0 0-.46-.12.92.92 0 0 0-.86.5c-.08.17-.12.36-.12.58 0 .21.04.4.12.57.09.16.2.29.36.38.14.08.31.13.5.13a.9.9 0 0 0 .46-.12c.13-.07.23-.19.3-.34h.57c-.1.28-.28.5-.52.65-.23.15-.5.23-.8.23a1.45 1.45 0 0 1-1.46-1.5ZM30.13 35a1.45 1.45 0 0 1-1.46-1.5 1.42 1.42 0 0 1 .73-1.3c.22-.14.46-.2.73-.2a1.44 1.44 0 0 1 1.46 1.5c0 .28-.06.54-.2.77a1.4 1.4 0 0 1-1.26.73Zm0-.42a.92.92 0 0 0 .85-.51c.09-.16.13-.36.13-.57 0-.22-.04-.4-.13-.57a.89.89 0 0 0-.34-.38.98.98 0 0 0-.51-.13.92.92 0 0 0-.86.5c-.08.17-.12.36-.12.58 0 .21.04.4.12.57.09.16.2.3.35.38.15.09.32.13.5.13ZM35.65 32v3h-.47v-2.04L34.31 35h-.33l-.88-2.04V35h-.47v-3h.5l1.02 2.34 1-2.34h.5ZM38.85 32.91a.9.9 0 0 1-.1.42.8.8 0 0 1-.33.33c-.15.08-.35.12-.58.12h-.52V35h-.47v-3h.99c.52 0 1.01.34 1.01.91Zm-1.01.48c.17 0 .3-.04.4-.12.08-.09.13-.2.13-.36 0-.32-.18-.48-.53-.48h-.52v.96h.52ZM41.6 34.37h-1.2l-.2.63h-.5l1.03-3h.55l1.02 3h-.5l-.2-.63Zm-.13-.4-.46-1.35-.48 1.36h.94ZM45.68 35h-.47l-1.41-2.22V35h-.47v-3h.47l1.41 2.22V32h.47v3ZM49 32l-.95 1.9V35h-.47v-1.1l-.95-1.9h.52l.67 1.48.66-1.48H49Z" /></svg>