<!-- by TradeStack --><svg width="56" height="56" viewBox="0 0 56 56" xmlns="http://www.w3.org/2000/svg"><path fill="#F0F3FA" d="M0 0h56v56H0z"/><path d="M16.5 33c-.4 0-.5-.43-.5-.64v-7.72c0-.51.33-.64.5-.64h1c.4 0 .5.43.5.64v7.72c0 .51-.33.64-.5.64h-1ZM41.54 25.26V32h1.23c.98 0 1.23-.55 1.23-.94v-4.64c0-.93-.82-1.16-1.23-1.16h-1.23Z" fill="#116B9D"/><path fill-rule="evenodd" d="M14.46 32v-6.74h-1.23c-.41 0-1.23.23-1.23 1.16v4.64c0 .4.25.94 1.23.94h1.23Zm-1.84-2.1h.61V27c0-.2.12-.58.62-.58v-.58h-.62c-.2 0-.61.11-.61.58v3.48Z" fill="#116B9D"/><path d="M28 45c6.8 0 12.3-5.9 12.3-11.03.03-.32.03-.64.03-.97h-1.76l-3.03 7.15-.05.08a5.52 5.52 0 0 1-2.32 1.8v.07c0 .13-.04.33-.17.5a.83.83 0 0 1-.7.31h-2.45a.97.97 0 0 1-.53-.16.76.76 0 0 1-.33-.65v-1.16c0-.14.04-.33.16-.5a.83.83 0 0 1 .7-.32h2.46c.15 0 .4.05.6.22a3.66 3.66 0 0 0 1.1-.95L36.7 33h-3.79l-2.46 5.03-1.84-6.97-1.85 11.62-1.85-13.94L23.7 33h-8.02c0 .33 0 .65.02.97C15.7 39.1 21.2 45 28 45Zm8.98-12-2.76 6.5a4.17 4.17 0 0 1-1.37 1.14c-.13-.22-.39-.29-.54-.29h-2.46c-.5 0-.62.4-.62.59v1.16c0 .46.41.58.62.58h2.46c.5 0 .61-.39.61-.58v-.22a5.28 5.28 0 0 0 2.36-1.78l.04-.05L38.3 33h-1.32Zm-18.8-9c.79-1.69 1.7-3.35 2.64-4.92.65.4 1.5.47 2.24.24 1.26-.4 3.1-.8 5.28-.8 1.42 0 2.7.2 3.95.62.9.31 1.95.21 2.69-.4 1.01 1.67 2 3.45 2.84 5.26H37v7h-4.7l-1.22 2.39-2.46-11.62-1.85 10.46-1.85-13.36L22.46 31H19v-7h-.82Zm4.99-8.58a75.57 75.57 0 0 0-2.23 3.46c.58.35 1.36.44 2.04.22a18 18 0 0 1 5.36-.81c1.45 0 2.75.2 4.03.63.85.3 1.82.19 2.48-.4-.7-1.12-1.4-2.2-2.08-3.2-1.22-.3-2.7-.51-4.43-.51-1.95 0-3.71.26-5.17.6Zm5.17-.85c1.62 0 3.04.18 4.23.47A80.73 80.73 0 0 0 28 9s-2.14 2.5-4.64 6.13c1.43-.32 3.12-.56 4.98-.56Z" fill="#EE2132"/><path d="M15.3 23.35a5.49 5.49 0 0 0-.84 2.49h-1.23c0-.86.36-1.94.99-3.04a13.67 13.67 0 0 1 2.82-3.41c2.48-2.2 6.17-4 10.96-4 4.6 0 8.27 1.65 10.8 3.77 2.51 2.1 3.97 4.7 3.97 6.68h-1.23c0-1.52-1.2-3.84-3.55-5.8a15.44 15.44 0 0 0-9.99-3.5c-4.44 0-7.83 1.68-10.12 3.7a12.5 12.5 0 0 0-2.58 3.1Z" fill="#116B9D"/><path d="M28.33 18.29a18 18 0 0 0-5.35.8c-.97.32-2.12.03-2.65-.8-.52-.82-.23-1.89.72-2.24 1.7-.62 4.27-1.24 7.28-1.24 2.74 0 4.86.51 6.31 1.15 1.07.47 1.1 1.73.26 2.52-.65.62-1.66.74-2.53.44a12.15 12.15 0 0 0-4.04-.63ZM38.73 32l-3.41 8.05-.04.05a5.28 5.28 0 0 1-2.36 1.78v.22c0 .19-.12.58-.61.58h-2.46c-.2 0-.62-.12-.62-.58v-1.16c0-.2.12-.59.62-.59h2.46c.15 0 .41.07.54.29a4.17 4.17 0 0 0 1.37-1.14L38 30.53v-5.96c0-.46.33-.57.5-.57h1c.4 0 .5.38.5.57v6.86c0 .46-.33.57-.5.57h-.77Z" fill="#116B9D"/></svg>