<!-- by TradeStack --><svg width="56" height="56" viewBox="0 0 56 56" xmlns="http://www.w3.org/2000/svg"><path fill="#F0F3FA" d="M0 0h56v56H0z"/><path d="M10 22v10h5v1c0 .8-.67 1-1 1H8V23c0-.8.67-1 1-1h1Z" fill="url(#agru4wvmw)"/><path d="M47 22c-.8 0-1 .67-1 1v11h1c.8 0 1-.67 1-1V22h-1Z" fill="url(#bgru4wvmw)"/><path d="M24.5 23 22 30l1 3 4.5-11h-2c-.4 0-.83.67-1 1Z" fill="url(#cgru4wvmw)"/><path d="M18.5 22H16l4 12h2.5l-4-12Z" fill="url(#dgru4wvmw)"/><path d="M36 32a4 4 0 0 0 3.46-2H36v-1c0-.8.67-1 1-1h5a6 6 0 1 1-1.07-3.43l-1.99.72A3.99 3.99 0 0 0 32 28a4 4 0 0 0 4 4Z" fill="url(#egru4wvmw)"/><defs><linearGradient id="agru4wvmw" x1="11.5" y1="22" x2="11.5" y2="34" gradientUnits="userSpaceOnUse"><stop stop-color="#9EA09F"/><stop offset="1" stop-color="#5A5C5B"/></linearGradient><linearGradient id="bgru4wvmw" x1="47" y1="22" x2="47" y2="34" gradientUnits="userSpaceOnUse"><stop stop-color="#A1A3A2"/><stop offset="1" stop-color="#616362"/></linearGradient><linearGradient id="cgru4wvmw" x1="26" y1="22" x2="23" y2="32.5" gradientUnits="userSpaceOnUse"><stop stop-color="#A1A3A2"/><stop offset="1" stop-color="#626463"/></linearGradient><linearGradient id="dgru4wvmw" x1="19.25" y1="22" x2="20.5" y2="34" gradientUnits="userSpaceOnUse"><stop stop-color="#DEBA66"/><stop offset="1" stop-color="#F4EAB4"/></linearGradient><linearGradient id="egru4wvmw" x1="36" y1="22" x2="36" y2="34" gradientUnits="userSpaceOnUse"><stop stop-color="#9D9F9E"/><stop offset="1" stop-color="#666867"/></linearGradient></defs></svg>