<!-- by TradeStack --><svg width="56" height="56" viewBox="0 0 56 56" xmlns="http://www.w3.org/2000/svg"><path fill="#F0F3FA" d="M0 0h56v56H0z"/><path d="M27.37 11h.79l.07 9.42c0 .07-.03.1-.1.1h-.47c-.08 0-.12-.04-.12-.11L27.37 11ZM30.33 11.17l-.6-.07a.04.04 0 0 0-.05.04l-1.1 9.32c-.01.02 0 .04.03.05l.6.07c.02 0 .05-.02.05-.04l1.11-9.32a.04.04 0 0 0-.04-.05ZM25.83 11.15l-.62.1a.04.04 0 0 0-.04.04l1.35 9.29c0 .02.03.04.05.03l.63-.09c.02 0 .04-.02.04-.05l-1.36-9.28a.04.04 0 0 0-.05-.04ZM32.46 11.58l-.58-.14c-.03 0-.05 0-.06.03l-2.3 9.13c-.01.03 0 .05.03.06l.58.14c.02.01.05 0 .05-.03l2.31-9.13c0-.02 0-.05-.03-.06ZM23.64 11.57l-.6.17a.04.04 0 0 0-.02.05l2.58 9.08c.01.02.03.04.06.03l.59-.17c.02 0 .04-.03.03-.05L23.7 11.6a.04.04 0 0 0-.05-.03ZM34.64 12.35l-.55-.22c-.02 0-.05 0-.06.03l-3.5 8.73c0 .02.01.05.03.06l.55.22c.03 0 .05 0 .06-.03l3.5-8.73c0-.02 0-.05-.03-.06ZM21.54 12.3l-.58.24a.05.05 0 0 0-.02.06l3.73 8.64c.01.02.04.03.07.02l.57-.25a.05.05 0 0 0 .03-.06l-3.74-8.63a.05.05 0 0 0-.06-.03ZM36.55 13.33l-.43-.24a.11.11 0 0 0-.16.04l-4.51 8.09a.11.11 0 0 0 .04.15l.43.24c.05.03.12.01.15-.04l4.52-8.09a.11.11 0 0 0-.04-.15ZM19.51 13.3l-.44.27a.1.1 0 0 0-.04.14l4.72 7.95c.03.05.1.07.14.04l.45-.27a.1.1 0 0 0 .03-.14l-4.72-7.95a.1.1 0 0 0-.14-.03ZM38.46 14.63l-.54-.41a.05.05 0 0 0-.07 0l-5.63 7.5a.05.05 0 0 0 .01.07l.54.4c.02.02.05.02.07 0l5.63-7.5a.05.05 0 0 0-.01-.06ZM17.72 14.56l-.5.4a.05.05 0 0 0-.01.06L23 22.3c.01.02.04.02.06 0l.5-.4a.05.05 0 0 0 .01-.06l-5.79-7.27a.05.05 0 0 0-.06-.01ZM39.88 15.98l-.11-.11a.29.29 0 0 0-.4 0L33.2 22.2c-.11.11-.11.3 0 .4l.12.12c.1.1.29.1.4 0l6.17-6.33c.1-.11.1-.3 0-.4ZM22.27 22.95l-6.4-6.15a.34.34 0 0 1-.07-.4c.15-.3.37-.31.66-.03l6.26 6.14c.06.05.06.1 0 .16l-.27.28c-.06.06-.12.06-.18 0ZM33.83 23.2a.15.15 0 0 1 .02-.2l6.26-4.92a4.86 4.86 0 0 1 .83-.51c.12-.06.23-.09.31-.1.08 0 .14.01.17.05.06.08 0 .24-.16.46-.16.2-.4.45-.7.68l-6.26 4.9a.15.15 0 0 1-.2-.02l-.27-.34ZM14.47 18.18c-.14-.05-.19-.15-.12-.31a.15.15 0 0 1 .19-.08c.02 0 .04.02.06.04.1.15.25.2.43.18.06 0 .12 0 .18.05l6.93 5.18a.11.11 0 0 1 .02.15l-.3.37a.12.12 0 0 1-.07.04c-.04 0-.07 0-.1-.02l-6.82-5.02a.15.15 0 0 1-.04-.05l-.24-.43a.2.2 0 0 0-.12-.1ZM41.95 19.53l.46-.25a.11.11 0 0 1 .14.02l.02.05.06.17-.01.09a.12.12 0 0 1-.07.05c-.3.1-.53.3-.67.57a.28.28 0 0 1-.1.12l-7.03 4.1c-.06.03-.1.01-.13-.04l-.25-.4c-.03-.05-.02-.1.04-.13l7.01-4.29c.11-.07.25-.06.37-.04.05.01.1 0 .16-.02ZM21.52 24.08a.04.04 0 0 1 .01.02.04.04 0 0 1 0 .03l-.28.47a.09.09 0 0 1-.11.03l-7-3.86a.4.4 0 0 1-.15-.16c-.16-.28-.4-.46-.73-.53a.19.19 0 0 1-.1-.3c.07-.1.17-.13.3-.1a.2.2 0 0 1 .11.07c.16.22.36.28.6.2.06-.03.1-.02.16 0l7.19 4.13ZM42.56 21.58l.87-.35a.14.14 0 0 1 .17.05c.05.08.06.15.04.2-.07.23-.92.37-1.15.74a.28.28 0 0 1-.13.1l-7.18 3.04c-.05.02-.1 0-.12-.05l-.19-.45c-.02-.06 0-.1.06-.13l7.17-3.16c.1-.05.2-.04.3 0 .06.03.11.03.16 0ZM21.01 25.1l-.11.34a.15.15 0 0 1-.2.1l-7.17-2.81a.2.2 0 0 1-.13-.13l-.04-.13a.2.2 0 0 0-.13-.13l-.97-.38c-.07-.03-.1-.08-.07-.15l.03-.1c.02-.08.07-.1.15-.08.3.1.89.46 1.18.33a.21.21 0 0 1 .18 0l7.2 2.96c.08.03.11.09.08.18Z" fill="#393065"/><path d="m42.95 23.64 1.33-.36a.1.1 0 0 1 .11.06l.05.21a.1.1 0 0 1-.06.11l-1.39.39a.1.1 0 0 0-.04.03l-.17.23a.1.1 0 0 1-.05.03l-7.27 1.99a.1.1 0 0 1-.07-.01.1.1 0 0 1-.04-.06l-.13-.47a.1.1 0 0 1 .06-.11l7.37-2.18a.1.1 0 0 1 .08.02l.14.1a.1.1 0 0 0 .08.02ZM20.74 25.94l-.13.51a.07.07 0 0 1-.09.06l-7.3-1.77a.07.07 0 0 1-.05-.07v-.15a.07.07 0 0 0-.06-.07l-1.58-.4a.07.07 0 0 1-.05-.1l.1-.22a.07.07 0 0 1 .09-.03l1.32.35h.05l.25-.12h.05l7.35 1.92a.07.07 0 0 1 .05.09ZM42.86 26.11c-.03.1-.09.17-.16.18l-7.06.98c-.08 0-.13-.03-.14-.1l-.06-.45a.11.11 0 0 1 .1-.12c2.34-.33 4.67-.68 7-1.04.19-.03.22 0 .37.08.04.02.09.03.14.02l1.62-.25c.07 0 .1.02.12.09l.02.15c.01.1-.02.15-.12.16l-1.74.23a.1.1 0 0 0-.09.07ZM20.45 26.82a.08.08 0 0 1 .05.03.08.08 0 0 1 .02.06l-.06.48c0 .07-.04.1-.1.09l-6.98-.77a.17.17 0 0 1-.13-.08c-.06-.1-.12-.16-.24-.17l-1.7-.2c-.1 0-.15-.03-.17-.07-.03-.05-.03-.13 0-.22.02-.08.08-.11.16-.1l1.66.22c.09.02.17-.02.25-.1.04-.05.1-.07.16-.06l7.08.89Z" fill="#544D7C"/><path d="M45 27.64v.33l-2.25.06a.15.15 0 0 0-.14.08.29.29 0 0 1-.16.12.49.49 0 0 1-.16.02h-6.65c-.08 0-.11-.03-.11-.1v-.42c0-.06.02-.1.09-.1l6.86-.18c.06 0 .1.02.14.07l.1.1c.03.04.07.06.13.06l2.15-.04ZM11 28.45v-.37l2.27-.05c.06 0 .1-.02.13-.07l.05-.08a.11.11 0 0 1 .1-.05h6.87c.07 0 .1.03.1.1v.47c0 .07-.04.1-.1.1l-6.8.12h-.02l-.02-.02-.07-.11a.17.17 0 0 0-.15-.09l-2.36.05ZM42.1 29.94l-.14.09a.23.23 0 0 1-.16.04l-6.23-.8c-.04 0-.07-.03-.06-.08l.02-.49c0-.07.04-.1.11-.1l6.22.7c.31.03.42.24.71.27l2.21.27c.09.01.12.06.1.14l-.05.14c-.02.06-.06.08-.13.08l-2.45-.3c-.06 0-.1 0-.16.04ZM11.25 30.3l2.49-.4c.02 0 .03 0 .05-.02l.16-.2a.08.08 0 0 1 .05-.03l6.41-.84a.08.08 0 0 1 .09.07l.08.5a.08.08 0 0 1-.07.1l-6.3.98a.08.08 0 0 1-.07-.02L14 30.3a.08.08 0 0 0-.07-.02l-2.62.4a.08.08 0 0 1-.06-.02.08.08 0 0 1-.04-.05l-.03-.22a.08.08 0 0 1 .07-.1ZM44.33 31.96a.16.16 0 0 1 .12.16v.12c0 .09-.04.12-.12.1l-2.77-.7a.19.19 0 0 0-.17.04l-.08.06a.17.17 0 0 1-.14.04l-5.78-1.5c-.07 0-.1-.05-.08-.12l.08-.45c.02-.07.05-.1.12-.08 3.02.72 4.95 1.19 5.78 1.4.25.06.41.26.67.32l2.37.61ZM11.64 32.52l2.88-.79a.07.07 0 0 0 .05-.07v-.13a.07.07 0 0 1 .05-.07l6-1.64a.07.07 0 0 1 .08.05l.12.49a.07.07 0 0 1-.04.08l-5.8 1.68a.07.07 0 0 1-.06 0l-.17-.11a.07.07 0 0 0-.06 0l-2.93.88h-.03a.07.07 0 0 1-.06-.05l-.07-.23v-.03a.07.07 0 0 1 .04-.06Z" fill="#706C92"/><path d="M43.8 34.24a.1.1 0 0 1 .05.12l-.04.12c-.03.07-.08.1-.14.06-1-.39-1.98-.79-2.96-1.19-.07-.03-.17-.02-.3.03a.24.24 0 0 1-.18 0L35 31.21c-.06-.02-.08-.07-.06-.13l.17-.41c.03-.06.07-.08.13-.06l5.34 2.04c.06.03.1.07.13.13l.05.16c.03.06.07.1.13.12l2.9 1.17ZM15.5 33.01a.1.1 0 0 1 .06-.07l5.29-2.2c.06-.02.11 0 .14.07l.2.44a.1.1 0 0 1-.06.14L16 33.63a.18.18 0 0 1-.15 0l-.13-.06a.18.18 0 0 0-.16 0c-.97.43-1.95.85-2.93 1.25-.1.04-.17.01-.22-.1a.16.16 0 0 1 .02-.18 156.24 156.24 0 0 1 2.88-1.27c.14-.06.16-.12.19-.26ZM39.44 34.75a.93.93 0 0 1-.16.02.22.22 0 0 1-.12-.04c-1.53-.87-3.07-1.75-4.6-2.65-.07-.04-.08-.1-.04-.17l.2-.36c.04-.07.1-.08.16-.05l4.65 2.56c.16.09.2.13.24.3.02.05.05.1.1.12l3 1.68.03.04v.04c-.01.12-.07.2-.16.21-.06.01-.13 0-.21-.05-.97-.56-1.95-1.1-2.94-1.63a.21.21 0 0 0-.15-.02ZM16.47 34.58l.07-.16a.3.3 0 0 1 .13-.13l4.57-2.65c.07-.04.12-.03.16.04l.23.4c.02.02.02.05.01.08 0 .03-.02.06-.05.07-1.48.92-2.95 1.82-4.42 2.7-.14.1-.18.1-.34.06a.22.22 0 0 0-.17.02l-3.04 1.77a.16.16 0 0 1-.22-.06.2.2 0 0 1-.02-.17.18.18 0 0 1 .08-.1l2.9-1.75a.3.3 0 0 0 .1-.12ZM41.6 37.97a.08.08 0 0 1 .04.07v.14a.1.1 0 0 1-.06.1.1.1 0 0 1-.11-.01L38.41 36a.24.24 0 0 0-.17-.05c-.12 0-.2 0-.3-.07-1.33-1-2.66-2-3.98-3.02-.06-.04-.06-.09-.02-.14l.26-.36c.04-.05.09-.06.14-.02l3.94 2.88c.19.14.32.3.39.48.02.05.06.1.1.13l2.84 2.14ZM17.7 35.69a.15.15 0 0 1 .05-.07l4-3.12c.06-.05.12-.04.16.02l.3.39a.1.1 0 0 1-.02.15 515.91 515.91 0 0 1-3.83 3.07c-.16.12-.45.16-.66.31l-2.84 2.18c-.06.05-.12.04-.16-.02l-.08-.12c-.04-.05-.03-.1.02-.14.7-.55 2.77-1.93 3.07-2.65Z" fill="#8787A6"/><path d="M37.46 36.98c.94.88 1.82 1.8 2.74 2.7.04.04.05.08 0 .13l-.07.09a.13.13 0 0 1-.14.04.12.12 0 0 1-.04-.03l-2.82-2.72a.32.32 0 0 0-.15-.08c-.14-.04-.29-.05-.4-.17l-3.34-3.34c-.05-.05-.05-.1 0-.14l.32-.33c.06-.06.11-.06.17 0l3.5 3.35c.05.04.08.09.09.15.03.18.08.3.14.35ZM22.87 33.54c.08.08.09.16 0 .24A709.99 709.99 0 0 0 19.8 37c-.24.25-.52.25-.74.48l-2.64 2.69a.2.2 0 0 1-.2.05c-.13-.05-.13-.14 0-.28.8-.87 1.63-1.72 2.47-2.56.27-.26.2-.54.45-.78l3.3-3.3c.05-.05.1-.05.14-.01l.29.26ZM36.01 37.82a42.62 42.62 0 0 0 2.28 3c.12.14.2.26.27.38a.13.13 0 0 1-.13.19c-.05-.01-.1-.04-.14-.1a321.6 321.6 0 0 1-2.7-3.33.16.16 0 0 0-.08-.02h-.07a.18.18 0 0 1-.14-.06l-2.82-3.67c-.05-.06-.04-.11.02-.15l.37-.24a.1.1 0 0 1 .14.02l2.85 3.55c.08.1.11.19.1.28 0 .06.02.1.05.15ZM23.7 34.21a.16.16 0 0 1 0 .2L21 38.06a.28.28 0 0 1-.14.1c-.2.06-.29.06-.42.24-.8 1.08-1.6 2.15-2.43 3.2-.06.08-.12.11-.19.11a.14.14 0 0 1-.12-.07.14.14 0 0 1 .01-.15l2.47-3.37c.04-.04.05-.09.06-.14a.98.98 0 0 1 .22-.55l2.62-3.34c.17-.21.37-.17.6.12ZM33.87 38.7a.08.08 0 0 1-.04-.04l-2.26-3.87c-.04-.07-.02-.13.05-.17l.42-.23c.07-.04.12-.03.16.04.74 1.29 1.58 2.53 2.26 3.82a97.32 97.32 0 0 0 2.32 4.18c0 .03 0 .06-.02.08-.1.16-.2.16-.31-.01-.74-1.22-1.47-2.43-2.22-3.64a.23.23 0 0 0-.13-.1l-.23-.06Z" fill="#999CB7"/><path d="M24.53 34.74c.06.03.07.08.04.13l-2.02 3.68c-.12.2-.33.36-.43.53-.68 1.22-1.4 2.48-2.14 3.76a.16.16 0 0 1-.3-.07c0-.1.03-.2.1-.34a548.8 548.8 0 0 1 1.93-3.47.3.3 0 0 0 .04-.16c0-.15-.02-.3.06-.44l2.18-3.8c.04-.05.08-.07.14-.04l.4.22ZM32.51 39.29a.22.22 0 0 1-.12-.12l-1.67-3.9a.17.17 0 0 1 .08-.22l.38-.17c.07-.03.13 0 .16.06.53 1.25 1.07 2.5 1.63 3.73.13.27.14.7.29 1.05a103 103 0 0 1 1.55 3.75.1.1 0 0 1-.05.13c-.11.05-.2.01-.24-.1a155 155 0 0 1-1.76-4c-.05-.13-.12-.16-.25-.21ZM25.4 35.1c.08.02.11.07.08.16l-1.54 4a.18.18 0 0 1-.07.08l-.18.1a.22.22 0 0 0-.1.12c-.53 1.4-1.1 2.77-1.69 4.14a.2.2 0 0 1-.08.1.16.16 0 0 1-.14.02.15.15 0 0 1-.09-.2c.5-1.33 1.04-2.66 1.6-3.99.05-.14.06-.3.01-.48a.25.25 0 0 1 .01-.16l1.63-3.92c.02-.07.07-.1.14-.07l.41.1ZM30.88 39.58l-.01-.01-1.1-4.01c-.02-.12.02-.2.14-.23l.32-.08c.07-.03.13 0 .15.08.4 1.34.8 2.62 1.15 3.85.05.15.05.3 0 .46a.3.3 0 0 0 .01.16c.42 1.45.82 2.9 1.2 4.34.01.08 0 .14-.02.18a.19.19 0 0 1-.11.08c-.06.01-.1-.01-.12-.07-.45-1.45-.88-2.9-1.3-4.35-.05-.17-.18-.28-.31-.4ZM26.37 35.4c.08.01.1.06.09.14l-.96 3.94c-.06.23-.31.41-.39.72-.34 1.35-.7 2.7-1.07 4.05-.02.1-.07.16-.12.19-.07.03-.13.02-.2-.03a.12.12 0 0 1-.04-.14c.36-1.48.73-2.95 1.12-4.42.02-.08 0-.16-.08-.25a.17.17 0 0 1-.02-.16l1.07-4.05c.03-.09.08-.12.17-.1l.43.1ZM27.36 35.56a.1.1 0 0 1 .06.04.1.1 0 0 1 .02.07c-.15 1.3-.29 2.63-.42 3.98 0 .08-.07.2-.2.36a.29.29 0 0 0-.06.14l-.57 4.6c0 .08-.05.12-.13.12h-.1c-.08 0-.11-.03-.1-.1.15-1.54.32-3.08.52-4.62 0-.06-.04-.16-.13-.3a.17.17 0 0 1-.03-.12l.55-4.14c0-.08.05-.12.14-.1l.45.07ZM29.28 35.5a.1.1 0 0 1 .08.01.1.1 0 0 1 .04.06c.22 1.25.42 2.51.6 3.78.04.28.04.5 0 .65a.4.4 0 0 0-.02.17c.22 1.48.43 2.96.63 4.45 0 .1-.05.16-.19.18-.08 0-.13-.03-.14-.11l-.68-4.44a.54.54 0 0 0-.2-.38.22.22 0 0 1-.07-.13l-.56-4.04a.12.12 0 0 1 .1-.14l.41-.07ZM28.35 45h-.27l-.12-4.77a.28.28 0 0 0-.05-.17l-.14-.18a.13.13 0 0 1-.03-.08v-4.16a.09.09 0 0 1 .03-.07.1.1 0 0 1 .07-.02l.49.01c.05 0 .08.03.08.08.08 1.93.11 3.33.1 4.17 0 .09-.04.18-.12.29a.25.25 0 0 0-.06.16l.02 4.74Z" fill="#A4A8C0"/></svg>