<!-- by TradeStack --><svg width="56" height="56" viewBox="0 0 56 56" xmlns="http://www.w3.org/2000/svg"><path fill="#F0F3FA" d="M0 0h56v56H0z"/><path d="M29.13 25c.8.02 1.24.23 1.36.33l-.48.64c-.3-.2-.7-.18-.88-.2-1.23.1-1.24.94-.2 1.14 1.05.2 2.1.63 2.07 1.6-.03.97-1.06 1.52-2.06 1.49-.8-.02-1.63-.3-1.94-.44l.59-.74c.15.13.63.38 1.35.33.7-.04.96-.34 1-.49.01-.19-.14-.6-.81-.75-.84-.18-2-.37-2.02-1.43 0-1.07 1.02-1.5 2.02-1.48ZM5 25H4v5h3.2l.8-1H5v-4ZM24 25h-1.26l-.77 1H24v4h1v-4h1.27l.76-1H24ZM33 25h-1.26l-.77 1H33v4h1v-4h1.27l.76-1H33ZM9 25h1v5H9zM48.8 25H48v5h4v-1h-3v-1h2.31v-1H49v-1h2.32l.68-1h-3.2ZM17 25h1v2.02h2V25h1v5h-1v-2h-2v2h-1v-5ZM13.82 25c.68 0 1.22.16 1.4.25l-.62.69c-1.75-.32-2.65.42-2.6 1.72.05 1.3 1.25 1.55 1.71 1.5.38-.03.64-.1.73-.13V28H13.4v-1h2.02v2.64c-.55.23-1.43.37-1.7.36-.26-.01-2.72.06-2.71-2.34.01-2.4 1.97-2.65 2.82-2.66ZM42 25h1.6l2.4 3.79V25h1v5h-1.42L43 25.99V30h-1v-5Z" fill="#D0223A"/><path fill-rule="evenodd" d="M38.5 30c1.7 0 2.5-1.12 2.5-2.5s-.91-2.53-2.5-2.5c-1.59.03-2.5 1.12-2.5 2.5s.8 2.5 2.5 2.5Zm0-.9c1.02 0 1.5-.73 1.5-1.63 0-.9-.55-1.64-1.5-1.62-.95.01-1.5.72-1.5 1.62 0 .9.48 1.63 1.5 1.63Z" fill="#D0223A"/></svg>