<!-- by TradeStack --><svg width="56" height="56" viewBox="0 0 56 56" xmlns="http://www.w3.org/2000/svg"><path fill="#493627" d="M0 0h56v56H0z"/><path fill-rule="evenodd" d="M28 44a16 16 0 1 0 0-32 16 16 0 0 0 0 32Zm0-1a15 15 0 1 0 0-30 15 15 0 0 0 0 30Z" fill="#C3A03C"/><path fill-rule="evenodd" d="M25.03 36c2.5 0 4.13-1.16 4.63-1.73A4.94 4.94 0 0 0 33.28 36c1.41 0 2.72-.3 2.72-.92 0-.53-.54-.52-1.08-.51h-.23c-1.7 0-2.53-1.53-2.9-2.23a6.45 6.45 0 0 0-.12-.21c1.61-2.77 2.15-4.33 2.12-4.8.73-.1 2.21-.43 2.21-.92 0-.41-.3-.41-.3-.41h-5.13c0 .73 1.2 1.19 1.8 1.32a48.7 48.7 0 0 1-1.45 3.08l-.25.5a23.9 23.9 0 0 0-3.53-4.58c1.92-.82 3.22-2.04 3.22-3.47 0-1.42-1.2-2.85-2.91-2.85-3.12 0-4.33 2.45-4.33 3.36 0 .92.6 2.04 1.1 2.75-2.3.31-4.22 2.76-4.22 5.1A4.89 4.89 0 0 0 25.03 36ZM29 33.31c-1.38-2.46-3.32-4.57-4.5-5.31-.57.17-2.5 1.01-2.5 3 0 2.49 2.37 3 3.66 3a9.7 9.7 0 0 0 3.34-.69ZM27 25c.83 0 1.5-1.37 1.5-2.48 0-1.1-.67-1.52-1.5-1.52s-1.5.42-1.5 1.52S26.17 25 27 25Z" fill="#C3A03C"/></svg>