<?xml version='1.0' encoding='utf-8'?>
<!-- by TradeStack -->
<svg width="56" height="56" viewBox="0 0 56 56" xmlns="http://www.w3.org/2000/svg"><path fill="#F0F3FA" d="M0 0h56v56H0z" /><path d="M42.23 17.4c.64.39.57 1.16.43 1.76l-.07.36c1.23-.17 2.17-1.31 3.55-.82 1.18.82 3.08 1.8 2.84 3.5-.17 1.11-.84 2.05-.94 3.14-.02.57.24 1.33-.36 1.6-.58.25-1.34.16-1.95.32.12.2.41.32.6.55.58.75.94 1.55.73 2.5-.63 2.22-2.98 3.98-5.3 4.48-1.58.18-3.14-.34-3.9-1.66 0-.48-.56-.32-.87-.46-.72-.3-1.42-.64-2.1-1.07-.28 1.05-.52 2.2-1 3.13-.22.18-.55.29-.89.29-1.15 0-2.43-.6-3.4-1.19-.79.5-1.63-.02-2.37-.16-.67 1.88-2.62 3.8-4.76 3.9-1.25.08-2.21-.56-3.24-1a12.55 12.55 0 0 1-4.28 3.04c-1.73.8-3.8.3-5.22-.8-1.13-.98-2-2.08-1.66-3.58.65-5.44 2.43-10.46 4.52-15.37.46-.95 1.61-1.02 2.7-.98 1.15.1 2.23.37 3.07 1.19.43.84-.77 1.25-1.03 1.92a17.42 17.42 0 0 0-2.72 6.96c-.36 1.53-.82 3.03-1.25 4.54l.2-.04 3.48-2.33c.07-.05.17-.03.24-.05.4-2.7 1.2-5.27 2.98-7.42a2.54 2.54 0 0 1 2.62-.84c.84.18 1.73.45 2.47.91.15-.14-.02-.46.17-.66 1.04-.9 2.62-1.03 3.92-.6.48-.06 1.03.99 1.32.1.87-.73 2.07-.1 2.93.23.08-.42-.16-.87.2-1.2.52-.52 1.39-.4 2.09-.22.07-.23-.05-.46 0-.68.21-1.4.29-2.84 1.05-4.04.5-.62 1.33-.74 2.14-.6 1.1.25 2.17.62 3.06 1.35ZM23.12 32.3c-.36.07-.72.03-1.08-.04v1c-.03.12-.03.32.19.25.38-.3.82-.75.89-1.2Zm16.7-3.72-.33-.45c-.17.3-.1.68-.17.96.17-.16.38-.35.5-.5Zm3.9-3.88h-.05c-.2.41-.46.82-.39 1.35.3.52.92.73 1.52.84-.2-.16-.41-.27-.65-.34-1.01-.3-.36-1.3-.43-1.85Z" /><path d="M23.12 32.3c-.36.07-.72.03-1.08-.04v1c-.03.12-.03.32.19.25.38-.3.82-.75.89-1.2Zm18.94-3.21c.29.16.62.13.89.2v.23c-.56.62-1.23 1-1.93 1.35.36-.5 1.4-.87 1.13-1.6 0-.12-.19-.07-.1-.18Zm-1.35-.3c-.72.34-1.42.84-1.95 1.48.05-1.2.32-2.5.63-3.7.12.8.46 1.76 1.32 2.17v.05Zm-.4-6.4c-.06.14-.2.28-.3.42l-.64-.32c.3-.1.67.02.93-.1Zm-16.06 8.89a5.5 5.5 0 0 1-2.14 3.01c-.24.05-.31-.23-.4-.37a8.67 8.67 0 0 1-.13-2.37c.5.32 1.23.5 1.83.3.31-.19.57-.28.84-.57Zm-1.28-4.36c-.16.8-.5 1.64-.9 2.42.14-.85.54-1.65.9-2.42Zm25.48-5.07a5.08 5.08 0 0 0-2.72-2.65c-1.6-.04-2.88.82-4.13 1.8.17-.84.55-1.7.55-2.69 0-.4-.48-.57-.72-.82l-1.34-.57c-.75-.18-1.88-.66-2.5.07-.63 1.32-.92 2.8-.96 4.33.21.42.7.5 1.05.74-.04.15-.29 0-.43 0-.22-.05-.5.02-.58.22-.55-.34-1.2-.59-1.9-.52-.21 0-.36.16-.48.34.15.75-.21 1.37-.28 2.08l-.12.07c-.08-.14 0-.35-.05-.48-.24-.57-.94-.69-1.47-.9-.36-.02-.84-.2-1.1.1-.53.8-.72 1.76-1.18 2.58-.03-.34.05-.73.07-1.1.02-.3.4-.43.27-.75-.17-.32-.53-.5-.87-.64a3.5 3.5 0 0 0-3.44.34c-.19.32.3.57.32.91.19 1.26.24 2.58.1 3.84-.06.46-.13.89-.25 1.32l-.5-.27c.14-.32.26-.69.36-1.05l.14-.55c0-.8.17-1.8-.26-2.49a5.04 5.04 0 0 0-3.78-1.82c-1.03-.03-1.6.96-2.14 1.62a14.88 14.88 0 0 0-1.46 3.26c-.36 1.1-.6 2.26-.7 3.45-.07.2-.36 0-.58.04a16.43 16.43 0 0 1-4.54 2.7c-.19-.02-.1-.23-.12-.34l1.35-5.69c.02-.07.05-.11.05-.18.67-2.12 1.17-4.31 2.47-6.16.31-.57.84-.94 1.1-1.49-.47-.68-1.31-.86-2.13-.98-.72-.02-1.8-.2-2.24.5a65.46 65.46 0 0 0-3.1 8.13 45.84 45.84 0 0 0-1.37 6.03c-.24 1.5-.17 3.15 1.23 4.13.98.91 2.38 1.39 3.75.93 1.97-.64 3.96-1.73 5.21-3.51h.17c1.28.68 2.64 1.71 4.23 1.07 1.76-.68 3-2.4 3.27-4.08.24.1.4.3.62.36.63.2 1.35.6 1.98.25.38-.93.62-1.96 1.03-2.87-.07.57-.17 1.11-.24 1.68 0 .46-.2.96.14 1.3.84.48 1.83.87 2.93.83.3 0 .32-.3.46-.48.55-1.9.96-3.84 1.59-5.69.29-.84.62-1.66 1.03-2.44-.22.82-.46 1.62-.65 2.44a16.6 16.6 0 0 0-.38 2.31c.05.41 0 .82.4 1.05.78.3 1.57 1 2.46.7l.36.7c.62 1.06 1.87 1.4 3.05 1.38a6.82 6.82 0 0 0 5-4.08c.17-.78-.1-1.46-.63-2.06a6.55 6.55 0 0 0-.4-.4c-.7-.78-2.07-.35-2.58-1.26a3.2 3.2 0 0 1 1.42-3l.1.08c-.2.8-.94 1.98 0 2.69.84.39 2 .48 2.88.27l.2-.13c-.37-1.65.7-2.97.98-4.5Z" fill="#F0F3FA" /><path d="M35.9 29.72c0 .4-.12.85.1 1.15.55.38 1.18.77 1.9.66a38.13 38.13 0 0 1 2-8.22 5.2 5.2 0 0 0-2.48-.73c-.15.16.02.34 0 .5-.55 2.17-1.1 4.4-1.52 6.64Zm-17.59 3.1c-.19-.24-.31-.6-.65-.56-1.22.8-2.38 1.6-3.65 2.19-.65.3-1.35.73-2.1.84a2.46 2.46 0 0 1-.02-.84c.51-3.33 1.74-6.44 2.65-9.61.62-1.42 1.06-2.92 2.23-4.09v-.11c-.55-.46-1.32-.5-2.14-.55-.57-.04-.79.41-1.05.8-1.61 3.97-3.22 7.97-3.92 12.28-.14 1.5-.7 3.43.7 4.54.89.85 2.14 1.35 3.39.96 1.53-.6 3.07-1.34 4.23-2.6.81-.91.88-2.26.33-3.24Zm3.27-3.14a7.2 7.2 0 0 1 .99-3.06c.19-.25.52-.82.84-.36a6.47 6.47 0 0 1-1.3 3.67c-.24.05-.4-.07-.53-.25Zm4.71 2.12c-.05-.61.43-1.69-.38-1.94-.3-.04-.65 0-.87.2a6.08 6.08 0 0 1-2.86 4.85c-.31.09-.6-.07-.82-.3-.48-.96-.43-2.24-.28-3.33.14-.16 0-.57.28-.62.5.62 1.33.8 2.1.55 1.34-.85 1.63-2.33 2.13-3.59.15-.63.58-1.36.1-1.98-1.06-.9-2.11-1.62-3.5-1.64-.54.06-.9.5-1.26.86a14.54 14.54 0 0 0-2.35 5.96c0 .62-.32 1.53.38 1.92.5.64.36 1.55.48 2.3 1.13.8 2.48 1.76 4 1.12 1.82-.87 2.51-2.67 2.85-4.36Zm6.88 1.55c.84-3.42 1.75-6.8 3.62-9.81v-.3c-.3-.66-1.08-.8-1.77-.87-.3.05-.15.35-.17.6-.56 1.66-1.06 3.33-1.76 4.95l-.07-.04.39-3.4c.02-.3-.17-.55-.44-.71-.43-.28-.98-.5-1.46-.25-.68 1.34-1.23 2.76-1.88 4.1h-.07c0-1.07-.12-2.26-.05-3.26.1-.16.31-.27.27-.46-.08-.25-.34-.32-.53-.4-.75-.24-1.9-.44-2.43.15.67 2.51.1 5.44 0 7.97.05.3.2.55.48.73.5.2 1.03.66 1.61.36.82-1.46 1.25-3.05 2-4.54h.1c-.06 1.6-.2 3.31-.15 4.8.57.43 1.2.82 2.06.7.12.03.2-.18.24-.32Zm7.47-11.73c.5-.93.82-1.92.86-2.99-.1-.27-.3-.6-.6-.73-.74-.27-1.37-.8-2.28-.66-.26.07-.53.16-.7.41-.36 1.12-.7 2.26-.67 3.47.29.41.82.46 1.25.62.7.11 1.59.52 2.14-.12Zm6.95-.16c-.49-.77-1.37-1.55-2.38-1.6a7.45 7.45 0 0 0-4.11 2.45A5.4 5.4 0 0 0 40 26.87c.15.96 1.16 1.4 2.02 1.71.53.16 1.09.16 1.54.44.12.11.1.3.05.43a4.88 4.88 0 0 1-3.05 1.92c-.2.02-.41-.12-.34-.32.39-.57.96-1.05 1.5-1.44.09-.1.04-.2-.03-.32-.68-.41-1.2.3-1.73.64-.65.55-1.35 1.19-1.28 2.03.2.66.8 1.28 1.5 1.53.83.37 1.87.14 2.61-.27 1.32-.92 3.18-2.1 3-3.84a2.2 2.2 0 0 0-1.07-1.3c-.85-.5-2.17-.36-2.55-1.44a4.21 4.21 0 0 1 1.1-3.12c.56-.46 1.2-.99 1.93-1-.3.93-.82 1.9-.53 2.96.38.62 1.32.62 2.04.55-.05-.07 0-.19-.05-.25-.12-1.21.58-2.2.9-3.27.09-.32.16-.77.02-1.05Z" fill="#D12028" /></svg>