<!-- by TradeStack --><svg width="56" height="56" viewBox="0 0 56 56" xmlns="http://www.w3.org/2000/svg"><path fill="#F0F3FA" d="M0 0h56v56H0z"/><path d="M44.27 36v-6.54H42V29h5v.46h-2.27V36h-.46ZM35 36v-7h.45l5.26 6.37h-.25V29H41v7h-.44l-5.27-6.37h.25V36H35Zm-2.5 0v-7h.5v7h-.5Z"/><path d="M27.5 36a3.5 3.5 0 0 1-2.51-1 3.47 3.47 0 0 1-.99-2.5 3.6 3.6 0 0 1 .99-2.5 3.61 3.61 0 0 1 2.51-1 3.54 3.54 0 0 1 2.5 1 3.5 3.5 0 0 1 1 2.5 3.58 3.58 0 0 1-1 2.5 3.37 3.37 0 0 1-2.5 1Zm0-.46c.43 0 .83-.08 1.2-.23a2.82 2.82 0 0 0 1.57-1.6c.15-.38.23-.78.23-1.21a3.04 3.04 0 0 0-1.8-2.81 3.09 3.09 0 0 0-1.2-.23 2.92 2.92 0 0 0-3.01 3.04 3.06 3.06 0 0 0 .86 2.17 2.92 2.92 0 0 0 2.15.87Z" fill="#0055A9"/><path d="M18 36v-7h2.35c.55 0 1.03.1 1.42.28.4.19.7.46.91.81.21.35.32.77.32 1.27 0 .49-.1.9-.32 1.26-.21.35-.51.62-.9.81-.4.19-.88.28-1.43.28h-2.09l.22-.24V36H18Zm.48-2.5-.22-.25h2.1c.7 0 1.24-.16 1.6-.49.37-.33.55-.8.55-1.4 0-.6-.18-1.07-.55-1.4-.36-.33-.9-.5-1.6-.5h-2.1l.22-.25v4.29ZM44.75 28v-2.54l.12.33L42 21h.55l2.6 4.35h-.27l2.6-4.35H48l-2.87 4.79.12-.33V28h-.5Zm-6.48 0v-6.54H36V21h5v.46h-2.27V28h-.46ZM32 28v-7h.45v6.54H36V28h-4Zm-10.25 0v-2.54l.12.33L19 21h.55l2.6 4.35h-.27l2.6-4.35H25l-2.87 4.79.12-.33V28h-.5Z"/><path d="M15.5 28a3.5 3.5 0 0 1-2.51-1 3.47 3.47 0 0 1-.99-2.5 3.6 3.6 0 0 1 .99-2.5 3.61 3.61 0 0 1 2.51-1 3.54 3.54 0 0 1 2.5 1 3.5 3.5 0 0 1 1 2.5 3.58 3.58 0 0 1-1 2.5 3.37 3.37 0 0 1-2.5 1Zm0-.46c.43 0 .83-.08 1.2-.23a2.82 2.82 0 0 0 1.57-1.6c.15-.38.23-.78.23-1.21a3.04 3.04 0 0 0-1.8-2.81 3.09 3.09 0 0 0-1.2-.23 2.92 2.92 0 0 0-3.01 3.04 3.06 3.06 0 0 0 .86 2.17 2.92 2.92 0 0 0 2.15.87Z" fill="#0055A9"/><path d="M8 28v-7h.45v6.54H12V28H8Zm19.78-7L25 28h.47L28 21.56 30.53 28H31l-2.78-7h-.44Z"/></svg>