<?xml version='1.0' encoding='utf-8'?>
<!-- by TradeStack -->
<svg width="56" height="56" viewBox="0 0 56 56" xmlns="http://www.w3.org/2000/svg"><path fill="#F0F3FA" d="M0 0h56v56H0z" /><path d="M47 27H35V16h6.29c3.15 0 5.71 2.6 5.71 5.83V27Z" fill="#4093D9" /><path d="M35 40h6.29c3.15 0 5.71-2.42 5.71-5.42V30H35v10Z" fill="#01BFD7" /><path d="M24.03 40H31V30h-6.97v10Z" fill="#FE0000" /><path d="M31 16H14.68A5.64 5.64 0 0 0 9 21.6v12.8c0 3.1 2.54 5.6 5.68 5.6H21V27h10v-4H21v-3h10v-4Z" fill="#153657" /></svg>