<!-- by TradeStack --><svg viewBox="0 0 56 56" xmlns="http://www.w3.org/2000/svg"><path fill="#1D2B5D" d="M0 0h56v56H0z"/><path d="M7.13 24c1.51 0 2.87.9 2.87 2.5S8.65 29 7.13 29H6v3H4v-8h3.13Zm-.05 3.5c.61 0 .92-.34.92-1 0-.65-.32-1-.92-1H6v2h1.08ZM12.5 24l1.5 3 1.5-3h2.18L15 28.71V32h-2v-3.29L10.33 24h2.17ZM21.05 24c1.5 0 2.95.93 2.95 2.5a2.7 2.7 0 0 1-1.7 2.41L24 32h-1.86l-1.46-3H20v3h-2v-8h3.05ZM21 27.5c.6 0 .99-.35.99-1 0-.64-.4-1-1-1h-1v2h1ZM27.5 24h2l2.5 8h-2c-.6-1.92-.9-3.58-1.5-5.5-.6 1.92-.9 3.58-1.5 5.5h-2l2.5-8ZM33 32v-8h2l2 3.5 2-3.5h2v8h-2v-4.5L37 31l-2-3.5V32h-2ZM44 32h-2v-8h2v8ZM47.66 24c2.41 0 4.34 1.59 4.34 4 0 2.44-1.9 4-4.34 4H45v-8h2.66ZM47 26v4h.66c1.48 0 2.34-.54 2.34-2.01 0-1.44-.9-2-2.34-2L47 26Z" fill="#F0F3FA"/></svg>