<!-- by TradeStack --><svg viewBox="0 0 56 56" xmlns="http://www.w3.org/2000/svg"><path fill="#F0F3FA" d="M0 0h56v56H0z"/><path d="m38 17-27 .07 2.43 4.32L38 17Z" fill="#8FCEF1"/><path d="m15.79 25.23-2.34-3.82L38 17l-22.21 8.23Z" fill="#4DB7E8"/><path d="m13.45 21.42-2.12.44 3.32 3.75 1.15-.4-2.35-3.8Z" fill="#9ED3F1"/><path d="m17.96 28.79-2.17-3.58L38 17 17.96 28.79Z" fill="#15A9E1"/><path d="m17.57 29-2.91-3.38 1.14-.41 2.16 3.56-.4.22Z" fill="#65BBE9"/><path d="m14.64 25.64-2 .72 3.8 3.15 1.1-.54-2.9-3.33ZM19.88 32.3l-3.4-2.79-1.84 1 4.2 2.53 1.04-.73Z" fill="#9ED3F1"/><path d="m20.03 32.19-2.48-3.22-1.11.54 3.42 2.79.17-.11Z" fill="#7AC0EA"/><path d="m20.16 32-2.21-3.24L38 17 20.16 32Z" fill="#049FDC"/><path d="m17.96 28.75-.42.23 2.47 3.21.2-.22-2.25-3.22Z" fill="#1BA7DF"/><path d="m22.05 34.2-1.87-2.24L38 17 26.25 37.27l-4.2-3.07Z" fill="#0096D7"/><path d="m22.17 36.12-2.16-3.97.2-.2 1.96 2.22 4.08 3.08-.16.3-3.92-1.43Z" fill="#13A8E1"/><path d="m21.22 34.35-2.38-1.3 1.17-.9 1.21 2.2Z" fill="#63BBE9"/><path d="m25.5 38.54-1.38-1.73 1.96.7-.57 1.03Z" fill="#4DB7E8"/><path d="m24.5 40.43-2.3-4.3 1.9.67 1.4 1.7-1 1.93Z" fill="#8FCEF1"/><path d="m17.17 34.49 1.7-1.46 2.35 1.28 1 1.83-5.05-1.65Z" fill="#8FCEF1"/><path d="M28.84 42.45 25.5 38.5l.59-.96 3.6 2.83-.84 2.1Z" fill="#9ED3F1"/><path d="m26.3 37.12-.22.41 3.58 2.85.37-1.12-3.73-2.14Z" fill="#65BBE9"/><path d="m30.25 38.8-4.03-1.66 3.84 2.2.2-.53Z" fill="#18A6DE"/><path d="m30.24 38.8-4-1.65L38 17l-7.76 21.8Z" fill="#049FDC"/><path d="m33.88 41.42-3.86-2.1-.4 1.07 3.8 3.17.46-2.14Z" fill="#9ED3F1"/><path d="m34.02 40.24-3.8-1.45-.2.52 3.86 2.12.14-1.19Z" fill="#7AC0EA"/><path d="m34.04 40.3-3.85-1.5L38 17l-3.96 23.3Z" fill="#2BABE1"/><path d="m38.3 41.86-4.28-1.6L38 17l.3 24.86Z" fill="#63BBE9"/><path d="m43 43.58-4.76-1.72L38 17l5 26.58Z" fill="#8FCEF1"/><path d="m38.23 41.8-4.22-1.55-.18 1.16 4.4 2.59v-2.2Z" fill="#B9DBF3"/></svg>