<!-- by TradeStack --><svg viewBox="0 0 56 56" xmlns="http://www.w3.org/2000/svg"><path fill="#F0F3FA" d="M0 0h56v56H0z"/><path d="M31.32 15H46l-1.46 3H32.5l-1.95 4h-6.21l1.04-3h3.95l2-4Zm-7.1 8-.73 3h9.78l2.28-5h8.3l.88-2H34.1l-2.03 4H24.2Zm-1.53 7 .8-2h6.37l-1.75 7h-6.5l.6-2h4.57l.72-3h-4.81Zm19.77-2H31.79l-2.5 9h-7.92l-.62 2h9.77l2.55-9h8.3l1.09-2Zm-22.6 15 .66-3h11.42l2.32-8h6.88l-.52 2h-5.27l-2.56 9H19.86Zm3.63-23.7L21.04 28h-6.52l-1.93 7h6.94l-1.94 8s-8.35-4.1-7.53-11.85c0 0-.1-6.77 6.68-10.64 0 0 2.4-1.54 6.75-1.22ZM15.4 32l.85-2h4.35l-.92 2H15.4Z" fill="#9D292D"/></svg>