<?xml version='1.0' encoding='utf-8'?>
<!-- by TradeStack -->
<svg viewBox="0 0 56 56" xmlns="http://www.w3.org/2000/svg"><path fill="#E31837" d="M0 0h56v56H0z" /><path d="M28.178 19c-10.026.002-19.054 3.345-20.085 7.826-.686 2.98 2.492 6.038 7.351 7.827 5.684-5.048 12.112-10.388 20.497-14.056-7.644 4.808-13.283 10.092-17.876 14.924 1.544.394 3.232.755 5.02.956 2.582-3.896 5.456-8.745 13.945-15.802-6.167 7.25-9.043 11.556-11.534 16.106 9.178.803 19.859-.322 22.402-8.2 1.1-4.78-6.836-9.038-17.704-9.522a45.11 45.11 0 00-2.016-.06zm-.363.73c4.069-.047 7.26.393 7.26.393-7.89 2.76-13.448 5.586-20.77 9.64.071.07-5.777-.831-1.572-5.559 3.173-3.569 9.851-4.416 15.082-4.475zm10.304 1.32s5.34.661 6.654 5.283c1.447 5.09-12.265 7.13-13.187 6.367 2.537-5.995 3.286-6.047 6.533-11.65z" fill="#fff" /></svg>