<?xml version='1.0' encoding='utf-8'?>
<!-- by TradeStack -->
<svg width="56" height="56" viewBox="0 0 56 56" xmlns="http://www.w3.org/2000/svg"><path fill="#E62311" d="M0 0h56v56H0z" /><path d="m11.57 28.26-.8.26-.07-.01a.13.13 0 0 1-.05-.08l-.61-2.8a.13.13 0 0 0-.05-.07.1.1 0 0 0-.08-.02l-.3.09a.1.1 0 0 0-.04.01.12.12 0 0 0-.03.04.14.14 0 0 0-.01.1l.47 2.2-.28.07-.45-2c-.04-.18-.17-.3-.33-.3h-.9a.33.33 0 0 0-.28.2s-.5 1.06-.63 1.37H5.69a.33.33 0 0 0-.29.19l-.33.67a.44.44 0 0 0-.04.25l.06.5a.4.4 0 0 0 .08.2.98.98 0 0 0 0 .5c.03.1.08.2.14.28.12.16.3.24.49.24.38 0 .7-.34.74-.78v-.11h1.23c.03.2.1.37.23.52a.9.9 0 0 0 .72.37c.57 0 1.05-.52 1.1-1.17v-.16l.35-.1.09.44c0 .03.02.06.05.07a.1.1 0 0 0 .08.01l1.03-.32c.05-.02.11-.1.12-.17l.12-.39c0-.07-.03-.12-.09-.1Zm-2.39.65c-.02.26-.23.49-.46.49a.3.3 0 0 1-.25-.12.43.43 0 0 1-.07-.3c.02-.27.23-.49.46-.49.1 0 .18.04.24.12.06.08.09.18.08.3Zm-1.33-.42H5.7v-.04l.17-.36h1.45c.12 0 .23-.08.29-.2l.63-1.36h.44l.27 1.22h-.1c-.44 0-.83.3-1.01.74Zm-1.8.82c-.01.15-.13.27-.25.27a.15.15 0 0 1-.12-.06.2.2 0 0 1-.04-.07v-.08c0-.15.12-.27.25-.27.06 0 .1.03.12.06.03.04.04.1.04.15ZM12.94 32h1.7l.7-5.48.04 5.48h2l1.42-5.39-.68 5.39h1.97l1.02-8h-3L17 28.63V24h-3.05l-1.01 8Z" fill="#fff" /><path d="M7.52 24h-2.4c-.02 0-.03 0-.04.02a.07.07 0 0 0-.02.03l-.35 2.43A4.4 4.4 0 0 1 7.51 24ZM4 31.94a.06.06 0 0 0 .01.04l.02.02h3.7c2 0 3.85-1.76 4.15-3.94l.55-3.99a.05.05 0 0 0-.01-.04l-.04-.01H9.53c.07.01.13.04.2.06 1.34.56 2.21 2.12 2 3.84v.06a4.55 4.55 0 0 1-3.32 3.8c-.23.05-.46.07-.68.07H7c-.14 0-.29-.02-.42-.06a3.3 3.3 0 0 1-2.19-2.75l-.4 2.9ZM24 28.55h-.84l.84-2.72v2.72ZM26.47 32l-.6-8h-2.85l-2.93 8h2.13l.42-1.51H24V32h2.47Zm.5 0h1.76l.62-4.9.6 4.9h2.62l1.05-8h-1.8l-.61 4.53-.54-4.53h-2.65l-1.04 8Zm6.14 0h2.1l.96-8h-2.1l-.96 8ZM52 24l-.71 5.6c0-.01-.15 2.4-2.99 2.4-2.39 0-2.21-1.73-2.14-2.41l.72-5.59h2.16l-.68 5.27c-.02.19-.08.65.33.65.4 0 .46-.46.49-.65l.67-5.27H52Zm-8.38 5.28c-.02.18-.08.65-.48.65-.4 0-.34-.47-.32-.65l.34-2.62c.03-.24.08-.65.48-.65.4 0 .35.4.32.65l-.34 2.62Zm1.84-4.92c-.53-.43-1.17-.36-2.07-.36h-6.7l-.26 2h1.13l-.74 6h2.15l.74-6h1.4l-.4 3.24S40.25 32 42.79 32c2.71 0 2.9-2.43 2.9-2.43l.42-3.23s.2-1.27-.65-1.98Z" fill="#fff" /></svg>