<!-- by TradeStack --><svg width="56" height="56" viewBox="0 0 56 56" xmlns="http://www.w3.org/2000/svg"><path fill="#F98202" d="M0 0h56v56H0z"/><path d="M31.23 18c3 .74 9.04 3.6 9.04 9.12 0 6.9-10.54 13.33-34.27 9.32C8.15 37.3 15.31 39 26.74 39c11.42 0 16.59-5.3 17.74-7.94l2.72-3.25-2.72-3.39C43.55 22.28 39.6 18 31.23 18Zm10.91 9.85 2.38-2.59 2.2 2.59-2.2 2.45-2.38-2.45Zm5.54-1-2.4-3.06 1.5-1.74 1.88 2.36-.98 2.44Zm0 2.2-2.4 3.06 1.5 1.75 1.88-2.37-.98-2.44Zm.57-1.22.86-2.05c.3.39.89 1.34.89 2.05 0 .7-.59 1.71-.89 2.12l-.86-2.12ZM33.36 25.2a.8.8 0 0 0 .35-.07.58.58 0 0 0 .33-.53h1c0 .27-.08.51-.23.73-.14.2-.34.37-.6.5-.24.11-.52.17-.83.17-.3 0-.58-.05-.81-.15a1.58 1.58 0 0 1-.92-1.03c-.07-.24-.11-.5-.11-.77v-.1c0-.27.04-.53.11-.76.08-.24.2-.45.35-.62.15-.18.34-.32.57-.42a2 2 0 0 1 .8-.15c.33 0 .62.06.87.18s.44.3.58.52c.14.23.22.5.22.8h-1a.78.78 0 0 0-.09-.35.6.6 0 0 0-.23-.25.66.66 0 0 0-.36-.1.62.62 0 0 0-.61.35c-.06.11-.1.23-.12.37-.02.14-.03.28-.03.43v.1c0 .15.01.3.03.43.02.14.06.27.11.37.06.1.14.2.24.26.1.06.22.09.38.09ZM31 33h-1v-4h1v.44a1.27 1.27 0 0 1 1-.44c.44 0 .8.18.98.6l.06-.07A1.27 1.27 0 0 1 34.1 29c.71 0 .9.4.9 1.5V33h-1v-2.5c0-.55-.17-.68-.52-.68-.46 0-.48.4-.48.96V33h-1v-2.5c0-.54-.07-.68-.43-.68a.66.66 0 0 0-.33.08.69.69 0 0 0-.24.24V33Z" fill="#fff"/><path d="M25.71 31.04v-.08c0-.28.04-.54.12-.78.07-.24.19-.44.34-.62.14-.18.33-.31.54-.41.22-.1.47-.15.75-.15s.53.05.75.15c.22.1.4.23.55.41.15.18.27.38.35.62.07.24.11.5.11.78v.08c0 .28-.04.54-.11.78-.08.24-.2.45-.35.62-.14.18-.33.32-.54.41-.22.1-.47.15-.75.15s-.53-.05-.75-.15c-.22-.1-.4-.23-.55-.4a1.87 1.87 0 0 1-.34-.63c-.08-.24-.12-.5-.12-.78Zm.99-.08v.08c0 .16.01.31.04.45s.07.27.13.37c.06.1.14.19.24.25.1.06.22.09.36.09.14 0 .25-.03.35-.1.1-.05.18-.13.24-.24.06-.1.1-.23.13-.37.03-.14.04-.29.04-.45v-.08c0-.15-.01-.3-.04-.44a1.2 1.2 0 0 0-.14-.37.68.68 0 0 0-.23-.26.66.66 0 0 0-.36-.09.66.66 0 0 0-.35.1.72.72 0 0 0-.24.25c-.06.1-.1.23-.13.37-.03.14-.04.29-.04.44ZM23.6 32.2a.7.7 0 0 0 .32-.07c.1-.05.17-.12.22-.21.06-.1.08-.2.09-.32h.93c0 .27-.08.51-.21.73-.14.2-.32.37-.56.5-.23.11-.48.17-.77.17-.29 0-.54-.05-.75-.15-.22-.1-.4-.24-.54-.41a1.84 1.84 0 0 1-.31-.62c-.08-.24-.11-.5-.11-.77v-.1c0-.27.03-.53.1-.76.08-.24.18-.45.32-.62.15-.18.32-.32.54-.42.2-.1.46-.15.74-.15.3 0 .57.06.8.18.23.12.41.3.54.52.14.23.2.5.2.8h-.92a.83.83 0 0 0-.08-.35.58.58 0 0 0-.55-.35.6.6 0 0 0-.36.1.6.6 0 0 0-.21.26c-.05.1-.09.22-.1.36a3.2 3.2 0 0 0-.03.43v.1c0 .15 0 .3.02.43.02.14.06.27.1.37.06.1.13.2.22.26.1.06.21.09.36.09ZM19.84 33a2 2 0 0 1-.77-.14 1.7 1.7 0 0 1-.95-1 2.08 2.08 0 0 1-.13-.73V31c0-.3.04-.56.12-.8.08-.25.2-.46.35-.63.15-.18.33-.32.55-.41.21-.1.45-.15.72-.15.26 0 .5.05.7.14.2.09.37.21.51.38s.25.37.32.6c.07.23.1.49.1.77v.43h-2.94v-.69h1.97v-.08a.92.92 0 0 0-.07-.38.6.6 0 0 0-.22-.27.66.66 0 0 0-.38-.1.61.61 0 0 0-.56.34c-.06.1-.1.23-.13.38-.03.14-.05.3-.05.47v.14c0 .16.03.3.07.43.04.13.1.24.18.34a.83.83 0 0 0 .67.3c.18 0 .35-.04.5-.1.16-.08.29-.2.4-.34l.48.54a1.68 1.68 0 0 1-1.44.7ZM17 28v5h-1v-5h1ZM13.85 33a2 2 0 0 1-.78-.14 1.7 1.7 0 0 1-.94-1 2.08 2.08 0 0 1-.13-.73V31c0-.3.04-.56.12-.8.08-.25.2-.46.34-.63.15-.18.34-.32.55-.41.22-.1.46-.15.73-.15.26 0 .5.05.7.14.2.09.37.21.5.38.15.17.25.37.32.6.07.23.11.49.11.77v.43h-2.95v-.69h1.98v-.08a.92.92 0 0 0-.08-.38.6.6 0 0 0-.22-.27.66.66 0 0 0-.37-.1.61.61 0 0 0-.57.34c-.06.1-.1.23-.13.38-.03.14-.04.3-.04.47v.14c0 .16.02.3.06.43.05.13.1.24.18.34a.83.83 0 0 0 .68.3c.18 0 .34-.04.5-.1.15-.08.29-.2.4-.34l.48.54a1.68 1.68 0 0 1-1.44.7ZM10 28v5H9v-5h1Zm2 0v1H7v-1h5ZM27.47 24.04v-.08c0-.28.04-.54.11-.78.08-.24.2-.44.34-.62.15-.18.33-.31.55-.41.21-.1.46-.15.74-.15.28 0 .53.05.75.15.22.1.4.23.55.41.15.18.26.38.34.62.08.24.12.5.12.78v.08c0 .28-.04.54-.12.78-.08.24-.2.45-.34.62-.15.18-.33.32-.55.41-.21.1-.46.15-.74.15-.28 0-.53-.05-.75-.15-.22-.1-.4-.23-.55-.4a1.88 1.88 0 0 1-.34-.63c-.07-.24-.11-.5-.11-.78Zm.98-.08v.08c0 .16.01.31.04.45s.07.27.13.37c.06.1.14.19.24.25.1.06.22.09.36.09.14 0 .25-.03.35-.1.1-.05.18-.13.24-.24.05-.1.1-.23.13-.37.03-.14.04-.29.04-.45v-.08c0-.15-.01-.3-.04-.44a1.2 1.2 0 0 0-.14-.37.68.68 0 0 0-.23-.26.65.65 0 0 0-.36-.09.65.65 0 0 0-.35.1.72.72 0 0 0-.24.25c-.06.1-.1.23-.13.37-.03.14-.04.29-.04.44ZM26 22.93V26h-1v-4h.93l.07.93Zm1-.88v.97c-.05-.01-.02-.02-.09-.02l-.18-.01c-.14 0-.26.02-.36.06a.64.64 0 0 0-.4.42c-.04.1-.06.23-.06.36l-.2-.07c0-.25.02-.48.07-.7a2 2 0 0 1 .21-.56c.1-.16.2-.28.34-.37a.83.83 0 0 1 .47-.13c.08 0 .15.03.2.05ZM23 25.06v-1.72a.78.78 0 0 0-.07-.32.45.45 0 0 0-.18-.2.58.58 0 0 0-.31-.08c-.11 0-.2.02-.28.06a.42.42 0 0 0-.19.17.48.48 0 0 0-.07.25h-.98c0-.16.03-.32.1-.47.08-.15.19-.27.33-.39.14-.11.3-.2.5-.26.19-.07.4-.1.64-.1.3 0 .55.05.77.15.23.1.4.25.53.45s.21.45.21.75V25c0 .21 0 .38.02.52.03.13.07.25.11.35V26h-1a3.37 3.37 0 0 1-.14-.94Zm.12-1.48v.58h-.54c-.13 0-.25.02-.34.05a.62.62 0 0 0-.24.13.5.5 0 0 0-.14.2.7.7 0 0 0-.04.23c0 .1.02.17.06.24.04.07.1.13.17.17a.78.78 0 0 0 .64-.04c.11-.06.2-.14.26-.23s.1-.17.1-.25l.25.43a1.8 1.8 0 0 1-.38.6 1.23 1.23 0 0 1-.83.31 1.4 1.4 0 0 1-.64-.15c-.2-.1-.34-.23-.45-.4a1.26 1.26 0 0 1-.05-1.14c.06-.16.17-.3.31-.4.15-.1.33-.2.54-.25.22-.05.47-.08.75-.08h.57ZM15.45 21h.83l1.22 3.67L18.72 21h.83l-1.72 5h-.66l-1.72-5ZM15 21h1v5h-1v-5Zm4 0h1v5h-1v-5Z" fill="#fff"/></svg>