<?xml version='1.0' encoding='utf-8'?>
<!-- by TradeStack -->
<svg width="56" height="56" viewBox="0 0 56 56" xmlns="http://www.w3.org/2000/svg"><path fill="#F0F3FA" d="M0 0h56v56H0z" /><path d="m19.75 33.26-.53 1.27-.3-.13.54-1.27.3.13ZM24 22.43l-.54 1.27-.3-.13.54-1.27.3.13ZM6 29v5H4V22h2.24c2.3 0 4.76.7 4.76 3.5 0 2.32-1.83 3.5-3.97 3.5H6Zm0-2h.87C8.1 27 9 26.78 9 25.5c0-1.24-.93-1.5-2.2-1.5H6v3ZM12 25h2v1.02c.28-.42.46-1.02 1.02-1.02.47 0 .62.08.98.24l-.82 1.96c-.07-.2-.15-.2-.48-.2-.55 0-.7.8-.7 2.46V34h-2v-9ZM48 25h2v1.02c.28-.42.46-1.02 1.02-1.02.47 0 .62.08.98.24l-.82 1.96c-.07-.2-.15-.2-.48-.2-.55 0-.7.8-.7 2.46V34h-2v-9ZM32.73 23.88l-1.52 1.3c-.63-.77-1.09-1.18-1.78-1.18-.7 0-1.43.15-1.43 1.04 0 .9 5 3.1 5 5.5 0 2.07-1.46 3.46-3.57 3.46-1.62 0-2.61-.47-3.36-1.67l1.2-2.17c.49.8.86 1.84 2.21 1.84.62 0 1.52-.28 1.52-1.35 0-1.46-5-3.32-5-5.6 0-1.86 1.74-3.05 3.53-3.05 1.35 0 2.44.59 3.2 1.88ZM20.12 31.87c-1.57-.8-2.56-.53-2.84-.33l-.1-.13c.35-.25 1.41-.5 3.02.32 1 .5 1.51.88 1.79 1.17.14.14.22.26.26.37.05.1.06.18.08.24v.02l-.16.03v-.02a.88.88 0 0 0-.06-.2c-.04-.1-.1-.2-.24-.33a6.95 6.95 0 0 0-1.75-1.14ZM17.83 28.86c-.79-.04-1.25.13-1.44.28l-.1-.13c.23-.18.74-.35 1.55-.31.8.04 1.92.29 3.35.96 1.8.84 2.66 1.48 3.1 1.95a2.11 2.11 0 0 1 .53.89l-.14.08a.77.77 0 0 1-.06-.14v-.01l-.07-.17a1.95 1.95 0 0 0-.38-.54c-.42-.44-1.26-1.07-3.05-1.91a9.02 9.02 0 0 0-3.3-.95Z" fill="#09395F" /><path d="M26.43 27.67a11.8 11.8 0 0 0-7.56-3.38v-.16c1.53.04 5.2.79 7.68 3.43l-.12.11ZM18.58 26.31a4.46 4.46 0 0 0-1.75.07l-.05-.16c.31-.1.93-.17 1.82-.07.88.1 2.03.38 3.39.99a13.2 13.2 0 0 1 3.43 2.04c.66.6.92 1.1.96 1.46l-.16.02c-.03-.31-.26-.78-.9-1.36-.65-.58-1.71-1.27-3.4-2.01-1.34-.6-2.47-.88-3.34-.98Z" fill="#09395F" /><path d="M25 31.13a5.87 5.87 0 0 0 1.3-3.78h.16c.04.74-.18 2.56-1.33 3.89-1.44 1.66-3.49 2.2-5.68 2l.02-.15c2.15.18 4.14-.35 5.54-1.96ZM17.42 27.43a6.89 6.89 0 0 1 2.23-3.69l.1.13c-.83.7-1.84 1.99-2.18 3.6-.33 1.6 0 3.51 1.87 5.48l-.12.11c-1.9-2-2.25-3.97-1.9-5.63Z" fill="#CC9739" /><path d="M19.5 27.4c.83-2.59 2.2-3.69 2.8-3.91l.06.15c-.54.2-1.88 1.25-2.72 3.81-1.04 3.2-.4 5.08 0 5.73l-.14.08c-.42-.69-1.06-2.62 0-5.86Z" fill="#C52429" /><path d="M19.34 33.04a37.26 37.26 0 0 0 4.2-9.18l.16.05a37.42 37.42 0 0 1-4.23 9.22l-.13-.09Z" fill="#3894BC" /><path d="M24.01 29.42a5.42 5.42 0 0 0 .77-4.65l.15-.05c.3.82.54 2.92-.79 4.8a12.43 12.43 0 0 1-2.18 2.56c-.74.59-1.56.92-2.76 1.11l-.02-.15a5.35 5.35 0 0 0 2.68-1.09c.7-.57 1.33-1.38 2.15-2.53Z" fill="#419C4D" /><path fill-rule="evenodd" d="M21.5 34a5.5 5.5 0 1 0 0-11 5.5 5.5 0 0 0 0 11Zm0-.59a4.91 4.91 0 1 0 0-9.82 4.91 4.91 0 0 0 0 9.82Z" fill="#09395F" /><circle cx="24" cy="22" r="1" fill="#09395F" /><circle cx="19" cy="35" r="1" fill="#09395F" /><path d="M36 27v7h-2v-7h-1v-2h1v-3h2v3h2v2h-2ZM45 25h2v9h-2v-1.14A4.13 4.13 0 0 1 42.23 34C39.62 34 38 31.81 38 29.47c0-2.29 1.62-4.47 4.17-4.47 1.03 0 2.01.4 2.83 1.22V25Zm-5 4.47c0 1.38.95 2.53 2.54 2.53 1.6 0 2.46-1.05 2.46-2.49 0-1.42-.85-2.51-2.45-2.51A2.45 2.45 0 0 0 40 29.47Z" fill="#09395F" /></svg>