<!-- by TradeStack --><svg width="56" height="56" viewBox="0 0 56 56" xmlns="http://www.w3.org/2000/svg"><path fill="#F0F3FA" d="M0 0h56v56H0z"/><path d="M14.68 30.82 15 38.7c.64-.62 1.4-.98 2.24-1.22l-.96-6.92c.42-.16 1.04-.4 1.04-.96 0-.5-.5-.89-.94-.89-1.04 0-1.6 1.16-1.7 2.1Zm.32 9.51V43h-1V30.78c.15-1.32.97-2.78 2.38-2.78.8 0 1.62.71 1.62 1.6 0 .58-.38 1.11-1 1.42l1 7.18c-1.1.24-2.63.84-3 2.13Z" fill="#00C8D2"/><path d="M42 29h-9v2h3v12h3V31h3v-2Z" fill="url(#a)"/><path d="M15 13h-1v14h3v-8.3l2.92 8.3h2.46L26 17.98V27h3V13h-3.68l-4.25 11.2L17.34 13H15Z" fill="url(#b)"/><path fill-rule="evenodd" d="M41 24.66a5.5 5.5 0 1 1 0-6.32V16h1v11h-1v-2.34Zm0-3.16a4.5 4.5 0 1 1-9 0 4.5 4.5 0 0 1 9 0ZM31 40.66a5.5 5.5 0 1 1 0-6.32V32h1v11h-1v-2.34Zm0-3.16a4.5 4.5 0 1 1-9 0 4.5 4.5 0 0 1 9 0Z" fill="#00C8D2"/><path d="M30 30.2 27 28l-3 2.2 1.07.8L27 29.59 28.92 31l1.08-.8Z" fill="#00C8D2"/><defs><linearGradient id="a" x1="38" y1="28.72" x2="38" y2="42.9" gradientUnits="userSpaceOnUse"><stop stop-color="#004E96"/><stop offset="1" stop-color="#788EA3"/></linearGradient><linearGradient id="b" x1="21.5" y1="13" x2="21.5" y2="27" gradientUnits="userSpaceOnUse"><stop stop-color="#004E96"/><stop offset="1" stop-color="#788EA3"/></linearGradient></defs></svg>