<?xml version='1.0' encoding='utf-8'?>
<!-- by TradeStack -->
<svg width="56" height="56" viewBox="0 0 56 56" xmlns="http://www.w3.org/2000/svg"><path fill="#F0F3FA" d="M0 0h56v56H0z" /><path fill="#6D6D6D" d="M4 23h1v11H4zM10 23h1v11h-1zM24 23h1v11h-1z" /><path fill="#6D6D6D" d="M7 24v-1h7v1zM25 24v-1h5v1zM25 28v-1h5v1zM13 34l5-11 5 11h-1.2l-1.36-3h-4.88l-1.36 3H13Zm3-4h4l-2-4.42L16 30ZM48.4 23c1.88-.1 2.82.95 3.06 1.49l-1 .73c-.45-1.01-1.6-1.2-2.06-1.2-1.77.08-2.78 2.47.22 3.45 2.63.85 3.4 2.42 3.38 3.11.02.45-.02 3.31-3.22 3.42-2.56.08-3.59-1.6-3.78-2.45l1.04-.52c.1.72.95 1.97 2.58 1.97 1.82 0 2.38-1.18 2.38-1.97.04-.58-.4-1.79-2.03-2.22-2.03-.53-3.39-1.71-3.39-3.07 0-1.35.47-2.6 2.82-2.73Z" /><path d="M30.8 28.44c-.1-3.89 2.88-5.97 4.38-6.53.07 1.31.62 4.39 2.27 6.25 1.66 1.86 1.52 4.75 1.24 5.97-.02.88-.58.78-.86.62-2.97-1.5-3.86-5.6-3.92-7.46-1.02 3.25 1.45 6.49 2.82 7.7-1.55.14-5.79-1.7-5.92-6.55Z" fill="url(#akhdhv0fg)" /><path d="M37.73 27.01c2.15 2.7 2.09 6.35 1.8 7.84a7.03 7.03 0 0 0 4.71-5.96c-.03-.7.17-3.02-2.1-5.48-2.13-2.3-4-2.05-4.79-1.63-.77.62-1.77 2.54.38 5.23Z" fill="url(#bkhdhv0fg)" /><defs><linearGradient id="akhdhv0fg" x1="33.4" y1="24.39" x2="38.92" y2="34.97" gradientUnits="userSpaceOnUse"><stop stop-color="#28764C" /><stop offset=".75" stop-color="#2E7440" /><stop offset="1" stop-color="#699E3C" /></linearGradient><linearGradient id="bkhdhv0fg" x1="41.26" y1="26.49" x2="39.63" y2="34.85" gradientUnits="userSpaceOnUse"><stop stop-color="#8F221D" /><stop offset=".7" stop-color="#B02C25" /><stop offset="1" stop-color="#F7C92E" /></linearGradient></defs></svg>