<!-- by TradeStack --><svg width="56" height="56" viewBox="0 0 56 56" xmlns="http://www.w3.org/2000/svg"><path fill="#F0F3FA" d="M0 0h56v56H0z"/><path d="M42 13H14v30h28V13ZM16 37l12-22 12 22H16Zm8.48-14L28 16.54 31.52 23h-2.58L28 20l-.94 3h-2.58Zm-.15.26L20.11 31h2.95l.94-3 .94 3H28l-2.47 1.94.94 3.06L24 34.11 21.53 36l.94-3.06-2.39-1.88-2.82 5.17h21.48l-2.82-5.17-2.4 1.88.95 3.06L32 34.11 29.53 36l.94-3.06L28 31h3.06l.94-3 .94 3h2.95l-4.22-7.74-2.14 1.68.94 3.06L28 26.11 25.53 28l.94-3.06-2.14-1.68Z" fill="#00ABEB"/><path fill="#F0F3FA" fill-opacity=".5" d="M16 39h24v2H16z"/></svg>