<!-- by TradeStack --><svg width="56" height="56" viewBox="0 0 56 56" xmlns="http://www.w3.org/2000/svg"><path fill="#F0F3FA" d="M0 0h56v56H0z"/><path d="M40.77 29.11c.41-.24.86-.47 1.31-.65 1.7-.68 3.35-1.2 4.97-1.53.75-.16 1.06.38.92 1.02-.2.92-.43 1.77-.68 2.57a41.19 41.19 0 0 0-1.5 6.9 259.1 259.1 0 0 0-.63 5.2c-.04.33-.22.44-.54.35a.4.4 0 0 1-.06-.03c-.32-.16-.46-.41-.43-.76.27-2.91.62-5.58 1.03-8.01.1-.64.25-1.24.44-1.81.06-.18.02-.2-.1-.05-.66.76-1.66 1.9-2.75 1.96-.59.03-.76-.6-.7-1.05.07-.64.3-1.27.68-1.9.55-.92 1.13-1.73 1.74-2.43.08-.09.06-.12-.06-.08-1.14.34-2.18.8-3.12 1.37-.6.36-.96.86-1.1 1.52-.12.61-.25 1.2-.4 1.75a.58.58 0 0 1-.48.45c-.38.08-.64-.17-.6-.54.13-.9.27-1.8.46-2.68a.07.07 0 0 0-.04-.08c-.03 0-.05 0-.06.02-.27.38-.55.75-.84 1.11-.53.67-1.7 1.68-2.59 1.38-.55-.18-1.05-1.04-1.22-1.53-.02-.06-.06-.07-.11-.04-.66.39-1.35.71-1.94 1.21a4.1 4.1 0 0 1-2.78 1.16c-1.02-.04-.82-2-.74-2.58.3-2.14.9-4.3 1.41-6.44.05-.22.02-.24-.11-.04a86.59 86.59 0 0 0-2.3 3.68c-.03.04-.03.08 0 .12 1 1.09.55 3.3-.22 4.37-.66.93-1.98 1.33-2.73.25a3.1 3.1 0 0 1-.52-1.6c0-.08-.03-.08-.07 0-.27.49-.54.96-.83 1.41-.28.45-.64.72-1.06.81-.45.1-.75-.06-.91-.48-.16-.4-.25-.82-.26-1.24a18.29 18.29 0 0 1 .46-4.55.1.1 0 0 0-.04-.05l-.03-.02a.04.04 0 0 0-.04 0 .04.04 0 0 0-.02.02c-.65 1.95-1.28 3.72-1.89 5.28-.15.4-.6.9-1.1.74-.27-.08-.4-.28-.38-.6.05-1.1.14-2.2.28-3.33.2-1.55.3-3.11.52-4.66.07-.53.02-.54-.18-.04-1.35 3.5-2.76 7.11-4.23 10.81-.16.4-.41.55-.77.48l-.02-.01c-.35-.1-.48-.3-.38-.6.46-1.37.97-2.71 1.52-4.04a238.2 238.2 0 0 0 3-7.57.05.05 0 0 0-.04-.02l-1-.1a.11.11 0 0 0-.1.05c-1.07 1.66-3 3.48-5.2 2.8-2.18-.68-1.71-3.38-1.3-4.97a.11.11 0 0 0-.06-.13c-.75-.4-1.39-.9-1.9-1.5A1.54 1.54 0 0 1 8 19.04c.03-.68.34-1.22.92-1.61.72-.5 1.54-.87 2.45-1.1a.14.14 0 0 0 .1-.1c1.11-2.66 3.39-3.7 6.18-3.03 2.84.69 4.95 2.2 6.1 4.9.82 1.98.52 3.87-1.3 5.16-.66.47-1.35.62-2.13.68-.06 0-.1.04-.1.1a93.88 93.88 0 0 0-.64 5.17c0 .1 0 .19.02.28.03.12.07.12.1.01.63-1.67 1.16-3.38 1.98-4.86.08-.15.18-.29.3-.43.4-.42 1.06-.4 1.29.17.1.26.1.58.02.96-.16.65-.3 1.3-.44 1.92a17.63 17.63 0 0 0-.29 4.88c0 .02.02.03.03.05a.1.1 0 0 0 .17-.02 40.8 40.8 0 0 0 1.6-2.5 3.48 3.48 0 0 1 2.23-1.63.19.19 0 0 0 .1-.07c.31-.4.59-.8.84-1.18a7252.2 7252.2 0 0 1 3.62-5.4c.24-.29.8-.18.86.2.02.14.02.26 0 .38a206.4 206.4 0 0 1-1.2 5.65c-.03.13 0 .15.1.06.74-.7 1.84-.48 2.2.45.3.75.2 1.7 0 2.46-.02.08.01.1.08.06l.89-.52a.15.15 0 0 0 .08-.13c.09-1.44.91-2.38 2.23-3.06.57-.29 1.31-.4 1.8.1.6.64.55 1.4-.1 2.03a9.48 9.48 0 0 1-2.48 1.73c-.04.02-.06.06-.04.1.14.56.47 1.21 1.14.57a14.5 14.5 0 0 0 1.74-1.9c.38-.55.77-1.15 1.17-1.8.12-.2.28-.34.48-.43.4-.2.82.14.82.54 0 .36-.08.75-.22 1.18-.03.08 0 .1.07.05Zm-24.62-6.37a.15.15 0 0 0 .16-.08c.58-1.4 1.07-3.31.98-4.9-.06-.91-.54-1.15-1.4-1.18-1.02-.03-2 .08-2.93.35a.53.53 0 0 0-.37.31c-.5 1.2-.76 2.64-.92 3.87-.01.05.01.1.06.12a18.4 18.4 0 0 0 4.42 1.51Zm20.8 5.19a2.1 2.1 0 0 0-1.3 1.12.13.13 0 0 0 .03.14.13.13 0 0 0 .14.03c.25-.1 1.88-.84 1.35-1.25a.26.26 0 0 0-.22-.04ZM31.26 29a6.46 6.46 0 0 0-.89 2.9.18.18 0 0 0 .11.1c.03.02.06.02.09.02.69-.09 1.27-1.22 1.45-1.83.1-.35.11-.7.01-1.03-.1-.37-.53-.5-.77-.16Zm12.27 3.46c.1.08.33-.04.65-.3a8.44 8.44 0 0 0 1.89-2.42c.19-.37.23-.61.14-.68-.1-.08-.33.04-.65.3-.32.27-.7.68-1.05 1.13-.35.45-.66.92-.84 1.29-.18.37-.23.61-.14.68Zm-17.57-2.75c-.5.65-.7 1.74-.36 2.48.1.21.34.37.58.26.73-.35 1.28-1.97 1.05-2.67-.2-.62-.94-.52-1.27-.07Z" fill="#1D1D1B"/><path d="M20.28 21.67c-.17-.47-.82-.7-1.13-.22-.28.43-.51.93-.68 1.42a.18.18 0 0 1-.19.12l-.8-.05c-.1 0-.14-.06-.1-.16.6-1.46.92-2.99.98-4.57.05-1.5-.44-2.6-2.14-2.72a8.17 8.17 0 0 0-3.14.4c-.05.01-.07 0-.04-.06.62-1.15 1.8-1.64 3.09-1.65a7.65 7.65 0 0 1 5.58 2.72c1.12 1.31 1.87 3.37.76 4.91-.46.64-1.27.92-2.03 1.04-.06.01-.08-.01-.07-.07.05-.41.02-.78-.1-1.1Z" fill="#CFE099"/><path d="M10.5 20.6c-.67-.32-1.48-.9-1.16-1.72.25-.67 1.13-1.12 1.81-1.26a.05.05 0 0 1 .07.07 18.24 18.24 0 0 0-.68 2.92h-.03Z" fill="#0D98CD"/><path d="M11.4 22.28v-.02a.05.05 0 0 1 .06-.01 17.2 17.2 0 0 0 4.2 1.42.07.07 0 0 1 .02.09 4.14 4.14 0 0 1-2.64 2.11c-2.51.7-1.96-2.36-1.65-3.59Z" fill="#6AC4C8"/></svg>