<!-- by TradeStack --><svg viewBox="0 0 56 56" xmlns="http://www.w3.org/2000/svg"><path fill="#F0F3FA" d="M0 0h56v56H0z"/><path fill-rule="evenodd" d="M28.62 13.7c.52-.14.88-.45.88-.81 0-.5-.67-.89-1.5-.89s-1.5.4-1.5.89c0 .36.36.67.88.81v.15h-.37c.27 10.42.86 32.04 1.02 35.15.15-3.11.74-24.73 1.01-35.15h-.42v-.15ZM12 15h13v2.63c0 .9 1.04 1.97 1.65 2.4V22c-2.17.05-3.08-.68-3.27-1h-7.74l-.91-1.5h7.02l-.2-.5h-7.13l-1.2-2h8.04v-.5h-8.35L12 15Zm32 0H31v2.63c0 .9-1.04 1.97-1.65 2.4V22c2.17.05 3.08-.68 3.27-1h7.74l.91-1.5h-7.02l.2-.5h7.13l1.2-2h-8.04v-.5h8.35L44 15ZM29 27v-1.8c.89 0 5.92 1.05 6.94 1.26l.13.03c.57.11.81.16.81-.35 0-.41.41-.54.62-.56.2-.01.6.1.6.64 0 .5-.68.73-1.11.77L41.68 39H42c-.55 1-2.43 3-5.62 3s-4.88-2-5.33-3h.48l4.82-12H29Zm-2 0v-1.8c-.85 0-5.47.97-6.71 1.23l-.27.06c-.56.11-.8.16-.8-.35 0-.41-.41-.54-.62-.56-.2-.01-.6.1-.6.64 0 .48.61.7 1.04.76L14.44 39h-.49c.54 1 2.43 3 5.62 3 3.18 0 4.88-2 5.33-3h-.42l-4.8-12H27Zm-2.98 12-4.46-11.14V39h4.46ZM19 39V27.9L14.9 39H19Zm17.46-11.14L31.99 39h4.47V27.86Zm.54.04V39h4.22L37 27.9Z" fill="#939598"/></svg>