<!-- by TradeStack --><svg width="56" height="56" viewBox="0 0 56 56" xmlns="http://www.w3.org/2000/svg"><path fill="#4D43D8" d="M0 0h56v56H0z"/><path d="M45 30a17 17 0 1 0-32 8h2.3A15 15 0 1 1 43 30c0 2.9-.68 6-4 6h-2v-7c0-.78-.07-2.01-.69-3.07-.67-1.15-1.9-1.93-3.81-1.93-1.82 0-3.09.74-3.88 1.75C27.92 24.71 26.74 24 25 24a4.7 4.7 0 0 0-4.01 1.92A5.47 5.47 0 0 0 20 29v9h2v-9c0-.5.16-1.29.61-1.92.42-.57 1.12-1.08 2.39-1.08 1.16 0 1.71.45 2.02.96.36.59.48 1.37.48 2.04v9h2v-9c0-.5.16-1.29.61-1.92.42-.57 1.12-1.08 2.39-1.08 1.29 0 1.81.47 2.09.94.33.57.41 1.34.41 2.06v9h3c5.53 0 7-3.42 7-8Z" fill="#FFFFF3"/></svg>