<?xml version='1.0' encoding='utf-8'?>
<!-- by TradeStack -->
<svg width="56" height="56" viewBox="0 0 56 56" xmlns="http://www.w3.org/2000/svg"><path fill="#F0F3FA" d="M0 0h56v56H0z" /><path d="M48 19.14V37h-3V22c-7.71 0-12.43 4.2-16.62 8.28-3.35 3.26-8.51 5.48-10.67 6.18l-.97-2.7c7-1.42 10.88-7.26 16.75-11.48 4.7-3.38 11.63-3.5 14.51-3.14Z" fill="#2F3490" /><path d="M8 19.14V37h3V22c7.71 0 12.43 4.2 16.62 8.28 3.35 3.26 8.51 5.48 10.67 6.18l.97-2.7c-7-1.42-10.88-7.26-16.75-11.48-4.7-3.38-11.63-3.5-14.51-3.14Z" fill="#D62327" /></svg>