<?xml version='1.0' encoding='utf-8'?>
<!-- by TradeStack -->
<svg width="56" height="56" viewBox="0 0 56 56" xmlns="http://www.w3.org/2000/svg"><path fill="#F0F3FA" d="M0 0h56v56H0z" /><path d="M26.96 9.03c-1.68.17-3.14 1.1-3.33 2.14-.03.16-.03.16-.52.35-6.17 2.4-6.9 8.84-1.37 11.98.47.27.46.25.2.36-.88.36-.93 1.8-.07 1.88 1.83.19 2.93 1.13 3.1 2.8L25 29h5l.02-.5c.18-1.64 1.3-2.56 3.12-2.76.9-.09.81-1.52-.12-1.9-.22-.09-.21-.1.19-.32 5.64-3.1 4.84-9.82-1.43-12.07-.35-.12-.35-.12-.41-.34-.4-1.34-2.4-2.29-4.4-2.08ZM25.4 14.6c.53.16.99.43 1.4.81.37.34 1.1.31 1.5-.05a3.28 3.28 0 0 1 5.5 2.4c0 2.79-3.31 4.26-5.46 2.42-.47-.4-1.19-.42-1.61-.03a3.29 3.29 0 0 1-5.47-2.04 3.3 3.3 0 0 1 4.14-3.5Zm4.6 9.82c0 .03-.1.1-.24.17a3.7 3.7 0 0 0-2.17 2.96c-.04.2-.09.18-.14-.07a3.92 3.92 0 0 0-2.2-2.9c-.35-.17-.27-.2.2-.1a9.03 9.03 0 0 0 4.53-.1c.01 0 .03.02.03.04Zm-5.27 5.07c-.54.54-.52 1.75.03 2.33.1.1 1.48.17 2.83.17 1.28 0 2.53-.08 2.63-.18.64-.56.64-1.91.01-2.4-.15-.11-.15-.11-2.73-.11-2.57 0-2.57 0-2.77.2Zm.26 3.09c-.52.2-.6 1.31-.13 1.68a30 30 0 0 0 5.33-.06c.46-.42.4-1.34-.1-1.6a69 69 0 0 0-5.1-.02Zm.02 7.38V45h5v-1h2v1h3v-2h-1v-2h1v-2h-3v1h-2v-5h-5v4.97Z" fill="#D4A00F" /></svg>