<!-- by TradeStack --><svg width="56" height="56" viewBox="0 0 56 56" fill="none" xmlns="http://www.w3.org/2000/svg">
<rect width="56" height="56" fill="#F0F3FA"/>
<path d="M10.0077 32H8L10.2165 25L13 25.0024L13.3639 29.6637L16 25.0024L19 25L17.6289 32H15.6211L16.7132 26.4245L13.7113 32H12L11.6367 26.8554L10.0077 32Z" fill="#009E5A"/>
<path fill-rule="evenodd" clip-rule="evenodd" d="M32 26.6608C32 27.934 30.1348 28.2457 30.1348 28.2457L29.995 28.2498C30.7993 28.4698 31.6065 28.9179 31.6065 29.8306C31.6065 31.6492 28.3715 32 26.7395 32C25.1287 32 24.0289 31.8482 24.0005 31.8442L25.6612 25.18C29.9599 24.6344 32 25.3877 32 26.6608ZM26.6017 30.6147C27.5276 30.7364 29.1002 30.6099 29.1002 29.7135C29.1002 28.8198 27.0122 28.9991 27 29L26.6017 30.6147ZM29.581 26.9466C29.581 27.726 28.2352 27.8086 27.3781 27.7089L27.7342 26.3759C27.7459 26.3746 29.581 26.1696 29.581 26.9466Z" fill="#009E5A"/>
<path fill-rule="evenodd" clip-rule="evenodd" d="M23.5211 28.4119L24 27.1129C24 27.1129 23.5916 27 22.7606 27C21.9296 27 19 27.6071 19 29.7815C19 31.413 20.244 31.9611 21.4648 31.998C22.0717 32.0163 22.5603 31.9082 23 31.7441V30.5157C23 30.5157 22.662 30.6993 22.0986 30.6993C21.5352 30.6993 21 30.4592 21 29.7109C21 29.0977 21.6282 28.3613 22.7182 28.3251C22.9585 28.3171 23.226 28.3431 23.5211 28.4119Z" fill="#009E5A"/>
<path d="M36.5809 28.6245L37 27.0219C35.6364 26.8387 34.8498 27.8656 34.8393 27.8793L35 27H33L32 32H34L34.2228 30.8337C34.8358 28.2669 36.5809 28.6245 36.5809 28.6245Z" fill="#009E5A"/>
<path fill-rule="evenodd" clip-rule="evenodd" d="M36.5 32H38.5032L39.5 28H37.4968L36.5 32Z" fill="#009E5A"/>
<path fill-rule="evenodd" clip-rule="evenodd" d="M39 25C39.5523 25 40 25.4477 40 26C40 26.5523 39.5523 27 39 27C38.4477 27 38 26.5523 38 26C38 25.4477 38.4477 25 39 25Z" fill="#009E5A"/>
<path fill-rule="evenodd" clip-rule="evenodd" d="M38.0445 23.9037C38.0445 23.9037 39.1445 23.3269 39.9927 24C39.9927 24 40.5415 20.6112 32.135 20.0542C31.5701 20.0167 31.0736 20.0031 30.5 20C22.5393 19.9576 14 23 14 23C14 23 21.3838 21 27.8195 21C34.2553 21 37.124 22.4913 38.0445 23.9037Z" fill="#4D5258"/>
<path fill-rule="evenodd" clip-rule="evenodd" d="M9 27C9 27 4 29.6297 4 31.9735C4 34.3172 7.27368 36 12.3252 36C17.3767 36 20.3469 35.7636 28 33.5C28 33.5 21.0623 35 16.5095 35C11.9566 35 6 34.4975 6 31.1121C6 29.0903 9 27 9 27Z" fill="#4D5258"/>
<path fill-rule="evenodd" clip-rule="evenodd" d="M45 25H47L45.5141 32H43.4089L43.5262 31.3251C42.8887 31.9557 42.0689 32 41.8313 32C41.5403 32 40 31.7826 40 29.9579C40 28.1332 42.2387 27 43.3516 27C44.4645 27 44.4291 27.1522 44.4291 27.1522L45 25ZM44 28.4337C43.8481 28.2818 43.8441 28.2679 43.3986 28.2679C42.9481 28.2679 41.8481 28.7995 41.8481 29.8058C41.8481 30.812 43.1163 31.1907 43.7227 29.7152L44 28.4337Z" fill="#009E5A"/>
<path fill-rule="evenodd" clip-rule="evenodd" d="M51.2714 30.5153L51.3572 31.6112C51.1041 31.7859 50.2204 32.018 49.3145 31.9989C48.1749 31.9749 47 31.5534 47 30.1208C47 27.549 49.8143 27.4175 49.8143 27.4175C49.8143 27.4175 52 27.2568 52 28.8934C52 30.5299 48.7 30.3107 48.7 30.3107C48.7026 30.3163 48.7052 30.3219 48.7078 30.3274C48.8463 30.6255 48.9445 30.8368 49.8 30.8368C50.6714 30.8368 51.2714 30.5153 51.2714 30.5153ZM50.333 28.8068C50.333 29.3264 48.8513 29.1965 48.8513 29.1965C48.9586 28.7508 49.4654 28.5132 49.8567 28.5045C50.1212 28.4986 50.333 28.5972 50.333 28.8068Z" fill="#009E5A"/>
</svg>
