<!-- by TradeStack --><svg width="56" height="56" viewBox="0 0 56 56" xmlns="http://www.w3.org/2000/svg"><path fill="#F0F3FA" d="M0 0h56v56H0z"/><path d="M11.07 30.21c.1.12.21.22.35.32.14.09.34.15.6.17.03.03.02.08 0 .16l-.06.14c-.32 0-.6-.01-.85-.03a2.1 2.1 0 0 1-.5-.09 1.42 1.42 0 0 1-.57-.45l-.32-.49a260.7 260.7 0 0 0-1.35-2.18c-.01-.02-.04-.03-.08-.03-.03 0-.07 0-.1.02l-.38 2-.07.44c-.02.14-.03.25-.02.34 0 .03.05.06.13.1a1.57 1.57 0 0 0 .5.07v.15c0 .07-.02.12-.06.15H6.02c-.02-.03-.03-.08-.01-.15a.3.3 0 0 1 .06-.15l.22-.01.3-.07c.1-.03.15-.06.18-.1a5.92 5.92 0 0 0 .2-.78l.86-4.49.09-.44c.02-.14.02-.26 0-.35 0-.04-.04-.07-.13-.1a1.6 1.6 0 0 0-.28-.04l-.21-.02v-.15a.3.3 0 0 1 .06-.15h2.28c.02.03.02.08 0 .15a.3.3 0 0 1-.06.15l-.22.02-.31.05c-.1.02-.16.05-.18.1-.04.08-.08.2-.1.34l-.1.44-.4 2.14a5.72 5.72 0 0 0 .8-.63 36.7 36.7 0 0 0 1.63-1.47l.37-.38.11-.17a.39.39 0 0 0 .09-.17c.02-.08 0-.15-.09-.18a.63.63 0 0 0-.23-.07h-.17v-.15a.62.62 0 0 1 .06-.17H13l-.02.18c-.02.09-.04.13-.07.13a2.43 2.43 0 0 0-.6.12c-.15.05-.29.14-.42.27a39.47 39.47 0 0 1-1.76 1.62l-.92.8c-.04.03-.05.05-.05.08s.01.05.03.08l.98 1.63c.3.49.6.92.9 1.3ZM17.3 30.45c-.02.03-.05.09-.12.17a2.1 2.1 0 0 1-.18.25c-.07.07-.12.11-.16.12l-.06-.01-.03-.01-1.16-6.15a88.95 88.95 0 0 1-.6 2.85 117.77 117.77 0 0 1-.53 2.51 5.76 5.76 0 0 0-.01.32c0 .05.07.1.17.12a2.35 2.35 0 0 0 .54.08v.16c-.02.08-.03.13-.05.14h-2.1v-.13c.01-.07.03-.13.06-.17l.23-.02.33-.07c.12-.03.2-.06.23-.1.06-.08.1-.15.13-.23l.08-.3a400.04 400.04 0 0 0 1.13-5.27.46.46 0 0 0 0-.2c0-.04-.05-.07-.14-.1-.09-.04-.18-.06-.28-.08l-.2-.03c-.02-.03-.01-.09 0-.16.02-.08.03-.13.05-.14h1.75a172.01 172.01 0 0 0 .76 4.2 29.86 29.86 0 0 1 .25 1.3l.13-.25.33-.61a121.74 121.74 0 0 0 1.38-2.55l.34-.6.12-.23a17.15 17.15 0 0 0 .54-1.04l.12-.22H22l-.01.16-.01.14a1.89 1.89 0 0 0-.52.09c-.1.03-.16.06-.2.1a4.8 4.8 0 0 0-.13.41l-.76 4.59-.08.57c-.02.18-.01.33 0 .45.01.05.06.1.15.12a4.17 4.17 0 0 0 .48.07.4.4 0 0 1 0 .18c0 .07-.01.1-.03.12h-2.28v-.13a.5.5 0 0 1 .07-.17 2.48 2.48 0 0 0 .63-.12c.04-.02.07-.08.1-.18l.07-.26.06-.4A189.66 189.66 0 0 1 20.3 25a28.35 28.35 0 0 1-.65 1.18l-.59 1.07a164.3 164.3 0 0 1-1.19 2.16l-.4.76-.16.28ZM26.57 30.7c.4 0 .66-.13.66-.34l-.01-.23c0-.09 0-.19-.03-.29l-.25-1.57h-2.3a100.52 100.52 0 0 0-1.07 1.85c-.2.5.2.57.63.57.01.02.01.06 0 .14l-.05.17H22l.02-.14a.5.5 0 0 1 .05-.17c.49 0 .77-.27 1.03-.65l.34-.54 3.18-5.2a.65.65 0 0 1 .23-.21c.1-.06.18-.09.23-.09.02 0 .04 0 .06.02l.99 5.62a40.4 40.4 0 0 1 .14.7c.06.29.48.35.72.35v.17c-.01.08-.04.14-.04.14H26.5s-.03-.09-.01-.16a.35.35 0 0 1 .08-.15ZM24.86 28h2.02l-.45-2.66L24.86 28ZM31.65 28.5l1.86-3.5-.45-.23-3.5 6.5.44.23 1.4-2.5h3.04l-1.38 2.27.43.24L35.01 29h2.86l-1.32 2.28.45.22 1.43-2.5h3.44l-1.32 2.28.45.22 1.5-2.7a.25.25 0 0 0-.22-.36l-6.99.04 1.65-2.24-.44-.24-1.78 2.48-3.07.02Z" fill="#273B5C"/><path d="m47.87 31-19.11-8 21.92 8.04a.5.5 0 0 1-.19.96H6v-1h41.87Z" fill="#C9D5B1"/></svg>