<?xml version='1.0' encoding='utf-8'?>
<!-- by TradeStack -->
<svg width="56" height="56" viewBox="0 0 56 56" xmlns="http://www.w3.org/2000/svg"><path fill="#F0F3FA" d="M0 0h56v56H0z" /><path d="M8 20.19c0-1.21.95-2.19 2.12-2.19h35.76c1.17 0 2.12.98 2.12 2.19v15.62c0 1.21-.95 2.19-2.12 2.19H10.12A2.15 2.15 0 0 1 8 35.81V20.19Z" fill="#0D0D0B" /><path fill="#A18313" d="M10 20h36v9H10z" /><path d="M11 27.45c0-.21.11-.37.34-.48.34-.15.31-.64.34-.96.04-.5.06-1.18.06-2.05l.01-.76c0-.29.03-.7-.22-.92a2.9 2.9 0 0 0-.15-.11c-.2-.16-.31-.32-.31-.5 0-.23.11-.39.33-.5.22-.1.55-.16 1-.16.26 0 .49.02.69.05.2.03.33.07.38.11.49.33.79 1.39 1.03 1.91.26.56.46.84.58.84.13 0 .3-.26.51-.77.41-.98.72-1.65 1.13-1.93.21-.15.54-.22.99-.22.48 0 .81.05 1 .15.2.1.29.27.29.5 0 .16-.08.3-.24.4l-.08.05c-.1.1-.18.3-.22.64a22.79 22.79 0 0 0-.02 3.28c.03.27-.01.65.25.81.2.13.3.3.3.52 0 .23-.12.4-.36.5-.24.1-.67.15-1.28.15-.6 0-1.02-.05-1.26-.15a.53.53 0 0 1-.35-.52c0-.19.09-.33.26-.45a.68.68 0 0 0 .13-.1.9.9 0 0 0 .13-.43c.02-.2.03-.56.03-1.07a.74.74 0 0 0-.05-.31c-.03-.07-.08-.1-.15-.1-.1 0-.23.18-.37.56l-.44 1.14c-.32.83-.55 1.25-.7 1.25-.15 0-.4-.41-.73-1.23-.15-.37-.3-.75-.43-1.13-.15-.46-.28-.69-.39-.69-.07 0-.12.08-.15.22a8.65 8.65 0 0 0 0 1.75c.04.1.1.19.2.23.24.11.35.27.35.47 0 .2-.09.35-.27.43-.18.09-.5.13-.94.13-.44 0-.75-.04-.94-.13-.19-.09-.28-.23-.28-.42ZM20 25.5c0-.71.28-1.31.83-1.79a3.04 3.04 0 0 1 2.06-.71c.62 0 1.13.13 1.52.4.4.25.59.59.59.99 0 .53-.43.98-.97.98a.87.87 0 0 1-.42-.1 1.14 1.14 0 0 1-.46-.54c-.11-.25-.27-.38-.46-.38a.46.46 0 0 0-.37.18.7.7 0 0 0-.14.46c0 .63.53 1.25 1.18 1.25.19 0 .4-.05.65-.14.25-.1.41-.15.5-.15.14 0 .25.06.34.17.1.1.15.24.15.4 0 .37-.24.7-.72 1.02-.48.3-1.03.46-1.65.46-1.4 0-2.63-1.05-2.63-2.5ZM28.77 23.95c.1.04.18.05.25.05.45 0 .63-.36.63-1.08 0-.28-.04-.59-.14-.72s-.25-.2-.46-.2c-.12 0-.2.04-.24.13a3.4 3.4 0 0 0-.06.79v.7l.02.33Zm.03 1.1v.94c0 .3 0 .55.03.64.03.09.08.16.15.21.2.13.4.28.4.54 0 .23-.13.39-.37.48-.24.1-.67.14-1.28.14-.62 0-1.07-.05-1.33-.15-.27-.1-.4-.27-.4-.5 0-.26.24-.42.44-.53.07-.04.13-.32.17-.75a26.55 26.55 0 0 0 .03-3.41c-.02-.27-.06-.44-.11-.5a.88.88 0 0 0-.18-.12c-.23-.13-.35-.28-.35-.46 0-.19.1-.32.29-.41.19-.1.47-.14.85-.14h.38c.73.01 1.46-.03 2.19-.03 1.48 0 2.3.63 2.3 1.77a1.49 1.49 0 0 1-.8 1.38c-.12.07-.19.13-.19.19 0 .07.09.13.26.2l.29.11c.17.1.31.25.44.47.15.26.25 1.53.5 1.65l.1.05c.26.1.39.24.39.42 0 .23-.13.41-.4.55-.26.14-.61.21-1.05.21-1.12 0-1.54-.68-1.74-1.71-.2-.86-.46-1.29-.78-1.29l-.12.01a.74.74 0 0 0-.1.03ZM36.53 26.01c0-.1 0-.16-.03-.2-.03-.02-.09-.03-.19-.03a.39.39 0 0 0-.32.15.7.7 0 0 0-.11.43c0 .17.03.3.09.4.05.08.14.13.25.13.12 0 .2-.05.25-.15.04-.1.06-.34.06-.73Zm0-.9.02-.17v-.25c0-.33-.03-.55-.08-.68-.06-.13-.15-.2-.28-.2-.15 0-.32.13-.5.38a1.8 1.8 0 0 1-.44.46.72.72 0 0 1-.39.1.49.49 0 0 1-.38-.16.6.6 0 0 1-.14-.42c0-.32.2-.6.6-.83.4-.23.91-.34 1.51-.34.68 0 1.2.14 1.54.41.35.28.53.68.53 1.2a16.68 16.68 0 0 1-.03 1.05c0 .44.01.71.04.8.03.1.08.16.16.17.11.04.2.08.24.13a.3.3 0 0 1 .07.2c0 .25-.14.49-.43.71-.29.22-.62.33-1 .33a.82.82 0 0 1-.61-.25 1.24 1.24 0 0 0-.27-.26c-.36 0-.74.51-1.2.51-.83 0-1.49-.6-1.49-1.45 0-.44.18-.8.54-1.09a2.05 2.05 0 0 1 1.57-.44c.1 0 .24.05.43.08ZM44.48 25.67h-2.2c-.1 0-.19 0-.23.03-.03.02-.05.05-.05.1 0 .56.77.9 1.25.9.44 0 .95-.4 1.36-.4.22 0 .39.2.39.47 0 .9-1.73 1.23-2.38 1.23-1.4 0-2.62-1.02-2.62-2.47 0-1.44 1.27-2.53 2.66-2.53 1.15 0 2.34.73 2.34 1.98 0 .24-.04.42-.12.53-.08.1-.21.16-.4.16Zm-1.96-.9c.33 0 .53-.02.59-.05.06-.03.1-.12.1-.26 0-.34-.23-.46-.55-.46-.34 0-.66.19-.66.52 0 .1.02.17.05.2.1.08.35.05.47.05Z" /><path d="M9 31h3v1h-1v2h1v1H9v-1h1v-2H9v-1ZM37 31h3v1h-1v2h1v1h-3v-1h1v-2h-1v-1ZM46 34v-3h-1v4h2v-1h-1ZM32 31h-3v1h1v3h1v-3h1v-1ZM15 32.79 14 31h-1v4h1v-1.75L15 35h1v-4h-1v1.79Z" fill="#A18313" /><path fill-rule="evenodd" d="M18.25 31H17v4h1.25c.97 0 1.75-.9 1.75-2s-.78-2-1.75-2Zm.17 1H18v2h.42c.32 0 .58-.45.58-1s-.26-1-.58-1Z" fill="#A18313" /><path d="M22 31h-1v2.29c0 .94.67 1.71 1.5 1.71s1.5-.77 1.5-1.71V31h-1v2.32c0 .38-.22.68-.5.68s-.5-.3-.5-.68V31ZM34.08 33.5 35 35h1l-1-1.5c.5-.09 1-.34 1-1.12 0-.65-.27-1.38-1.27-1.38H33v4h1v-1.5h.08ZM34 33v-1h.44c.3 0 .56.18.56.5s-.26.5-.56.5H34ZM42.2 34l-.2 1h-1l1-4h1l1 4h-1l-.17-1h-.64Zm.04-.64h.5L42.5 32l-.26 1.36ZM27.72 31.42l-.1.59c-.22-.24-.88-.38-1.17-.38-.28 0-.45.17-.45.38 0 .2.5.38.7.48.4.2 1.3.35 1.3 1.3 0 .93-.88 1.21-1.67 1.21a2.4 2.4 0 0 1-1.33-.38v-.98c.25.28.98.7 1.33.7.34 0 .67-.24.67-.45 0-.21-.33-.39-.67-.56-.35-.17-1.33-.63-1.33-1.18 0-.56.35-1.15 1.39-1.15.83 0 1.23.28 1.33.42Z" fill="#A18313" /></svg>