<?xml version='1.0' encoding='utf-8'?>
<!-- by TradeStack -->
<svg width="56" height="56" viewBox="0 0 56 56" xmlns="http://www.w3.org/2000/svg"><path fill="#F0F3FA" d="M0 0h56v56H0z" /><path d="M6.85 23H5v9h1v-8h.15l2.82 8h1.06l2.82-8H13v8h1v-9h-1.85L9.5 30.5 6.85 23ZM15 23h1v9h-1zM17.96 23.5c.52-.38 1.13-.5 1.54-.5h2c.91 0 1.55.29 1.96.72.4.41.54.91.54 1.28v1h-1v-1a.9.9 0 0 0-.26-.6c-.19-.19-.55-.4-1.24-.4h-2c-.25 0-.64.08-.96.3-.29.21-.54.56-.54 1.2v4c0 .25.08.64.3.96.21.29.56.54 1.2.54h2c.3 0 .74-.05 1.08-.17.38-.14.42-.27.42-.33V29h1v1.5c0 .74-.63 1.1-1.08 1.27-.49.18-1.05.23-1.42.23h-2c-.96 0-1.61-.41-2-.96a2.73 2.73 0 0 1-.5-1.54v-4c0-.96.41-1.61.96-2ZM25 23h4c.33 0 .81.1 1.23.4.44.31.77.84.77 1.6v1.5c0 .3-.06.75-.25 1.15a1.7 1.7 0 0 1-.32.46l.08.1c.26.31.49.75.49 1.29V32h-1v-2.5c0-.24-.1-.47-.26-.67a1.66 1.66 0 0 0-.37-.33H26V32h-1v-9Zm1 4.5h3.5c.14 0 .25-.07.35-.28.1-.22.15-.52.15-.72V25c0-.44-.17-.66-.35-.8-.21-.14-.48-.2-.65-.2h-3v3.5ZM33.31 24.33c-.2.22-.31.48-.31.67v5c0 .3.1.55.24.71.15.16.38.29.76.29h3c.31 0 .56-.15.73-.37.2-.24.27-.51.27-.63v-5c0-.3-.1-.55-.24-.71-.15-.16-.38-.29-.76-.29h-3a.99.99 0 0 0-.69.33Zm-.72-.69c.34-.36.84-.64 1.41-.64h3c.62 0 1.14.22 1.5.61.34.39.5.89.5 1.39v5c0 .38-.18.86-.48 1.25-.33.4-.83.75-1.52.75h-3c-.62 0-1.14-.22-1.5-.61-.34-.39-.5-.89-.5-1.39v-5c0-.5.25-1 .59-1.36ZM41 27h2v1h-2z" /><path d="M49.73 23H51l-3.36 4.5L51 32h-1.27L47 28.35 44.27 32H43l3.36-4.5L43 23h1.27L47 26.65 49.73 23Z" fill="#77C343" /></svg>