<?xml version='1.0' encoding='utf-8'?>
<!-- by TradeStack -->
<svg width="56" height="56" viewBox="0 0 56 56" xmlns="http://www.w3.org/2000/svg"><path fill="#F0F3FA" d="M0 0h56v56H0z" /><path d="M29.13 23.9c0 .36-.28.66-.63.66s-.63-.3-.63-.67c0-.37.28-.67.63-.67s.63.3.63.67ZM21.1 30.3s-4.2 4.95-.8 6.32c5.17 2.07 18.39-4.55 20.62-12.43.88-3.1-2.4-3.47-5.13-3.04a14.05 14.05 0 0 0-3.77 1.23s3.73-1.56 6.07-.52c2.43 1.07.38 5.52-5.98 9.88-5.14 3.53-11.47 4.65-11.98 2.18a4.05 4.05 0 0 1 .4-2.68c.28-.6.56-.95.56-.95Z" fill="#FFE100" /><path d="M42 25h-1v2.28c0 1.52-1.23 2.07-2.22 2.07-1.01 0-1.78-.59-1.78-1.66V25h-1v2.74c0 1.5 1.1 2.26 2.6 2.26.97 0 1.79-.3 2.4-1.03V30h1v-5ZM34.36 28.32c-.05.65-.71 1.05-1.7 1.05-1.33 0-2-.87-2-1.86 0-1.24.92-1.88 2.05-1.88.88 0 1.51.35 1.61 1.03h1.12C35.25 25.44 34 25 32.7 25c-1.94 0-3.16.94-3.16 2.5 0 1.5 1.06 2.5 3.07 2.5 1.37 0 2.76-.5 2.87-1.68h-1.12ZM4 30h1v-2.36c0-1.4 1.1-2 2.03-2 .97 0 1.46.58 1.46 1.87V30H9.5v-2.24c0-1.56 1-2.12 1.92-2.12 1.15 0 1.58.75 1.58 1.91V30h1v-2.79c0-1.55-.95-2.21-2.48-2.21-1 0-1.84.54-2.23 1.2-.31-.81-1.06-1.2-1.97-1.2-.88 0-1.65.3-2.27 1.02h-.02c0-.33-.02-.78-.04-1.02H4v5ZM15.39 27c.16-1.03.93-1.37 2.01-1.37.92 0 1.85.3 1.87 1.37h-3.88Zm5 .46c0-1.57-1.06-2.46-2.97-2.46-1.95 0-3.13.9-3.13 2.6 0 1.46 1.13 2.4 3.1 2.4 1.2 0 2.65-.33 2.86-1.57h-1.11c-.24.66-1.04.94-1.8.94-1.18 0-1.89-.68-2-1.63h5.04v-.28ZM28 30h1v-5h-1v5ZM43 30h1v-2.39c0-.99.46-1.8 1.73-1.8.19 0 .34 0 .5.06V25h-.35c-1.2 0-1.66.44-1.88 1.05V25h-1v5ZM47 27c.17-1.03.94-1.37 2.02-1.37.92 0 1.84.3 1.86 1.37h-3.87Zm5 .46C52 25.9 50.95 25 49.04 25c-1.95 0-3.13.9-3.13 2.6 0 1.46 1.13 2.4 3.1 2.4 1.19 0 2.65-.33 2.86-1.57h-1.11c-.24.66-1.04.94-1.8.94-1.18 0-1.89-.68-2-1.63H52v-.28ZM26 25.81a3.32 3.32 0 0 0-2.36-.81c-1.61 0-3 .91-3 2.45s1.39 2.55 3 2.55c.95 0 1.81-.3 2.36-.85V30h1v-7h-1v2.81Zm-4.25 1.64c0-1.2.87-1.8 2.12-1.8 1.24 0 2.12.6 2.12 1.8 0 1.2-.88 1.9-2.12 1.9-1.25 0-2.12-.7-2.12-1.9Z" /></svg>