<?xml version='1.0' encoding='utf-8'?>
<!-- by TradeStack -->
<svg fill="none" viewBox="0 0 56 56" xmlns="http://www.w3.org/2000/svg"><path fill="#00539F" d="M0 0h56v56H0z" /><path fill-rule="evenodd" clip-rule="evenodd" d="M39 20.826c-3.196.46-8.733 2.253-8.733 6.174H25.72c0-3.922-5.537-5.714-8.72-6.174 3.196 0 8.585.299 10.993 2.67 2.424-2.371 7.798-2.67 11.007-2.67Zm-17.77-2.45c1.735-2.007 3.952-3.26 6.406-3.369 2.464-.108 5.152.688 7.066 2.535-1.943-1.51-4.614-1.982-7.04-1.874-2.41.095-4.628 1.039-6.433 2.709Zm-2.205.903c1.047-2.67 2.866-4.715 5.346-5.674 2.477-.955 5.494-.766 8.127.473-2.534-.875-5.414-.754-7.866.19-2.44.942-4.367 2.665-5.607 5.011Zm18.584.916c-1.115-2.628-2.976-4.649-5.47-5.552-2.494-.917-5.536-.983-8.14.313 2.52-.931 5.427-.54 7.892.347 2.466.903 4.424 2.587 5.718 4.892ZM28 19a1.001 1.001 0 0 1 0 2 1 1 0 0 1 0-2Z" fill="#fff" /><path d="M46.917 33h-.626v-1h.626c.475 0 .703.102.703.462 0 .395-.217.538-.703.538Zm1.764 1.292c-.155-.323-.358-.532-.614-.63.614-.273.908-.667.908-1.214 0-1.002-.677-1.448-2.072-1.448H45v5h1.29v-2h.167c.512 0 .729.105.935.564l.65 1.435H49.5l-.819-1.707ZM42.5 34h1.836v-1H42.5v-1h1.937v-1H41v5h3.501v-1H42.5v-1ZM37.96 33.88 36.77 31H35.5l2.165 5h.518l2.317-5h-1.295l-1.246 2.88ZM32.75 34.973c-.838 0-1.45-.607-1.45-1.478 0-.872.612-1.481 1.45-1.481.825 0 1.437.607 1.437 1.48 0 .871-.612 1.48-1.438 1.48Zm0-3.972c-.812 0-1.45.229-1.964.691A2.37 2.37 0 0 0 30 33.495c0 .715.274 1.334.786 1.8.514.465 1.152.705 1.963.705.8 0 1.451-.24 1.963-.705a2.354 2.354 0 0 0 .788-1.8c0-.716-.276-1.337-.788-1.803-.512-.462-1.163-.691-1.963-.691ZM26 33.495c0-.92.466-1.491 1.507-1.491.559 0 .935.177 1.493.524v-1.133c-.558-.263-.948-.395-1.581-.395-1.79 0-2.919 1.026-2.919 2.494 0 .727.292 1.371.8 1.824.495.44 1.18.68 1.992.68.711 0 1.099-.168 1.708-.501v-1.121c-.609.406-.986.609-1.605.609-.965 0-1.395-.595-1.395-1.49ZM22.7 36H24v-5h-1.3v5ZM19.218 34.983h-.945v-2.968h.945c.88 0 1.472.608 1.472 1.486 0 .864-.591 1.482-1.473 1.482Zm1.785-3.462c-.63-.471-1.284-.521-2.102-.521H17v5h1.9c.745 0 1.337-.015 1.903-.373.782-.495 1.197-1.236 1.197-2.126 0-.82-.34-1.497-.997-1.98ZM14 34h2v-1h-2v-1h1.938v-1H12.5v5H16v-1h-2v-1ZM8.993 33.017 7.216 31H6v5h1.353v-3.094l1.64 1.831 1.64-1.83V36H12v-5h-1.23l-1.777 2.017Z" fill="#fff" /></svg>