<?xml version='1.0' encoding='utf-8'?>
<!-- by TradeStack -->
<svg width="56" height="56" viewBox="0 0 56 56" xmlns="http://www.w3.org/2000/svg"><path fill="#F0F3FA" d="M0 0h56v56H0z" /><path d="m26.37 22.22-5.8-5.62C17 13.16 11 15.64 11 20.55v14.9c0 4.91 6 7.4 9.56 3.95l5.8-5.62a6.01 6.01 0 0 1-4.15-4.21L17 34.63V21.37l5.2 5.06a6.01 6.01 0 0 1 4.17-4.2Z" /><path d="m29.63 22.22 5.8-5.62C39 13.16 45 15.64 45 20.55v14.9c0 4.91-6 7.4-9.56 3.95l-5.8-5.62a6.01 6.01 0 0 0 4.15-4.21L39 34.63V21.37l-5.2 5.06a6.01 6.01 0 0 0-4.17-4.2Z" fill="#D70C19" /></svg>