<?xml version='1.0' encoding='utf-8'?>
<!-- by TradeStack -->
<svg width="56" height="56" viewBox="0 0 56 56" xmlns="http://www.w3.org/2000/svg"><path fill="#F0F3FA" d="M0 0h56v56H0z" /><path d="M13.1 16c-1.12 0-2.1.96-2.1 1.35v19.62c0 .68.26 2.03 1.94 2.03S15 37.65 15 36.97V24.12c0-1.9 1.32-4.29 5.8-4.29 4.48 0 5.76 2.93 5.76 4.29v12.85c0 .68.26 2.03 1.94 2.03s1.94-1.35 1.94-2.03V24.12c0-1.41 1.92-4.29 5.84-4.29A5.59 5.59 0 0 1 42 24.12v12.96c0 .45.38 1.92 2.06 1.92 1.68 0 1.94-1.44 1.94-2.03V24.12C46 18.7 40.48 16 36.28 16c-3.36 0-6.61 1.97-7.78 2.88-1.17-.9-4.42-2.88-7.78-2.88-3.36 0-5.36.9-5.83 1.35-.23-.45-.67-1.35-1.79-1.35Z" fill="url(#atjximqvo)" /><defs><linearGradient id="atjximqvo" x1="11" y1="25.47" x2="46" y2="25.47" gradientUnits="userSpaceOnUse"><stop stop-color="#8E267F" /><stop offset=".51" stop-color="#EA5A0D" /><stop offset="1" stop-color="#F49630" /></linearGradient></defs></svg>