<?xml version='1.0' encoding='utf-8'?>
<!-- by TradeStack -->
<svg width="56" height="56" viewBox="0 0 56 56" xmlns="http://www.w3.org/2000/svg"><path fill="#F0F3FA" d="M0 0h56v56H0z" /><path d="M20 18.2v-2.7c0-.28.22-.5.5-.5s.5.22.5.5v2.7l8 4.48V32.7L20.5 38l-8.03-4.99-2.2 1.08a.52.52 0 0 1-.7-.17.49.49 0 0 1 .17-.69L12 32.14v-8.87l-2.72-1.13a.5.5 0 0 1-.23-.67.52.52 0 0 1 .7-.22l2.72 1.15L20 18.2Zm.5.87L13 23.25v8.9l7.5 4.65 7.5-4.64v-8.91l-7.5-4.18Z" fill="#009BD9" /><path d="M36.5 15c.28 0 .5.22.5.5v2.72l8 5v9.03l1.8 1.35a.5.5 0 0 1-.6.8l-1.73-1.3L37 37.79v1.72a.5.5 0 0 1-1 0v-1.73l-5.78-3.85.56-.84 5.73 3.82L44 32.22v-8.44l-7.5-4.68-5.72 3.82-.56-.84L36 18.23V15.5c0-.28.22-.5.5-.5Z" fill="#00AC5C" /><path d="M36.17 20.95a1 1 0 0 1 1.38-.28l4.5 3a1 1 0 0 1-1.1 1.66l-4.5-3a1 1 0 0 1-.28-1.38Zm6.65 9.48a1 1 0 0 1-.25 1.39l-5 3.5a1 1 0 0 1-1.14-1.64l5-3.5a1 1 0 0 1 1.39.25Z" fill="#00AC5C" /><path d="M15 23.5a1 1 0 0 1 1 1v7a1 1 0 1 1-2 0v-7a1 1 0 0 1 1-1ZM26.83 30.45a1 1 0 0 1-.28 1.38l-4.5 3a1 1 0 1 1-1.1-1.66l4.5-3a1 1 0 0 1 1.38.28Z" fill="#009BD9" /></svg>