<?xml version='1.0' encoding='utf-8'?>
<!-- by TradeStack -->
<svg width="56" height="56" viewBox="0 0 56 56" xmlns="http://www.w3.org/2000/svg"><path fill="#181B1E" d="M0 0h56v56H0z" /><path d="M42 14c-14.17 6.31-27.24 16.27-32 20.46 3.03-.17 9.33 0 10.28 2.04 1.2 2.56 1.55 5.92 1.55 9.5C30.1 37.27 39.4 20.47 42 14Z" fill="#FE1A19" /><path d="M34.51 14.48a15 15 0 0 0-21.5 14.12l2-1.47A13.5 13.5 0 0 1 33.6 15l.9-.52Zm6.44 7.78.5-.9a15 15 0 0 1-14.19 21.62c.51-.65 1.02-1.3 1.52-1.98a13.5 13.5 0 0 0 12.17-18.74Z" fill="#4F4F4F" /></svg>