<?xml version='1.0' encoding='utf-8'?>
<!-- by TradeStack -->
<svg width="56" height="56" viewBox="0 0 56 56" xmlns="http://www.w3.org/2000/svg"><path fill="#F0F3FA" d="M0 0h56v56H0z" /><path d="M38.38 23.04a16.82 16.82 0 0 1-19.81 17.87 15.95 15.95 0 0 0 13.73 2.5 15.96 15.96 0 0 0 11.32-11.94c-.8-3.3-2.64-6.25-5.23-8.43Z" fill="#E60012" /><path d="M28.01 12c-1.63 0-3.25.25-4.8.74a15.96 15.96 0 0 0-4.7 8.75 16.86 16.86 0 0 1 9.57-2.99A16.74 16.74 0 0 1 43.9 29.72a15.91 15.91 0 0 0-4.7-13.15A15.9 15.9 0 0 0 28.01 12Z" fill="#E60012" /><path d="M21.66 40.43a15.94 15.94 0 0 0 5.45-.96 16.82 16.82 0 0 1-5.57-26.1A15.9 15.9 0 0 0 12.5 24a15.96 15.96 0 0 0 4.67 15.77c1.46.43 2.97.65 4.48.65Z" fill="#E60012" /></svg>