<!-- by TradeStack --><svg width="56" height="56" viewBox="0 0 56 56" xmlns="http://www.w3.org/2000/svg"><path fill="#F0F3FA" d="M0 0h56v56H0z"/><path d="M15 42V13h4.52l5.22 6.75c-.5.2-1.74.84-2.7 1.9l-4.04-5v5.98L28.11 36.2l2.1-2.76c.77.28 2.3 1.18 2.3 2.5L28.11 42 18 28.05V42h-3Zm11.44-14.01-1.99-2.9a3.13 3.13 0 0 1 2.42-2.22l1.26 1.68L36.53 13H41V42h-3V28.47l-2.76 3.72a5.4 5.4 0 0 0-2.83-2.05l5.59-7.9V17l-8.99 11.94-2.57-.96Z" fill="#161449"/><path d="m25.03 31-3.94-5.76c.45-4.7 5.63-5.42 7.13-5.42 1.2 0 1.98.26 2.2.4l-1.39 2c-1.72-.17-5.16.23-5.16 3.22 0 2.58 2.61 3.44 5.41 4.37 3.24 1.07 6.74 2.23 6.74 6.22 0 4.84-4.61 5.95-6.92 5.9l1.81-2.6c1.78-.74 2.28-1.86 2.28-2.73 0-.87-.02-2.4-1.67-3.25A57.96 57.96 0 0 0 25.03 31Zm8.8-4.03a7.17 7.17 0 0 0-.88-2.14l1.55-2.3c.6.39 1.1 1.4 1.27 1.87l-1.94 2.57Zm-13.6 8.6c-.1 1.73 1.2 5.44 7.03 6.43 0-.08-1.21-1.89-1.82-2.78-.71-.35-2.15-1.43-2.15-2.97l-.67-.68h-2.4Z" fill="#92502D"/></svg>