<?xml version='1.0' encoding='utf-8'?>
<!-- by TradeStack -->
<svg width="56" height="56" viewBox="0 0 56 56" xmlns="http://www.w3.org/2000/svg"><path fill="#F0F3FA" d="M0 0h56v56H0z" /><path d="M13.2 16h29.6a4.2 4.2 0 0 1 4.2 4.18v15.64A4.2 4.2 0 0 1 42.8 40H13.2A4.2 4.2 0 0 1 9 35.82V20.18A4.2 4.2 0 0 1 13.2 16Zm29.2 1H13.6a3.6 3.6 0 0 0-3.6 3.6v14.8a3.6 3.6 0 0 0 3.6 3.6h28.8a3.6 3.6 0 0 0 3.6-3.6V20.6a3.6 3.6 0 0 0-3.6-3.6Z" fill="#515154" /><path d="M13.5 19h29c.82 0 1.5.67 1.5 1.5v15c0 .83-.68 1.5-1.5 1.5h-29a1.5 1.5 0 0 1-1.5-1.5v-15c0-.83.68-1.5 1.5-1.5Z" fill="#ECCE3D" /><path d="m17.66 25 2.84 7h2l3.5-7v10h2V21h-2.5l-3.98 9-3.24-9H16l-1 14h2l.66-10Z" fill="#910A2B" /><path d="M29 35v-2h.83c.15 0 2.17 0 2.17-5.36C32 23 30.12 23 29.4 23H27l.52-2 1.96.01s4.52-.54 4.52 6.5c0 7.03-1.98 7.49-3.35 7.49H29Z" fill="#910A2B" /><path d="M32 21.01h4.51S41 20.54 41 25.23C41 29.9 38.33 30 38.33 30H35v-2h1.51S39 28 39 25.5 36.5 23 36.5 23H34s-.61-1.34-2-1.99Z" fill="#910A2B" /><path d="M38.8 35H41l-2.8-6H36l2.8 6Z" fill="#910A2B" /></svg>