<!-- by TradeStack --><svg width="56" height="56" viewBox="0 0 56 56" xmlns="http://www.w3.org/2000/svg"><path fill="url(#a)" d="M0 0h56v56H0z"/><path d="m10.29 28.8.4-1.25 1.4-4.3c.04-.18.13-.23.3-.23h7.72c.17 0 .27.05.34.2 1.07 1.88 2.28 3.79 3.38 5.67l.17.27v-3.94c0-.15-.16-.2-.3-.2h-.88c-.12 0-.17-.02-.17-.17v-1.68c0-.15.05-.17.17-.17h4.01c.15 0 .17.05.17.17 0 .44-.02 1.22 0 1.63 0 .18-.07.2-.22.2h-.54c-.22-.02-.24.07-.24.27v7.39c0 .34 0 .34-.33.34h-1.9c-.19 0-.28-.05-.4-.22-1.3-2.3-2.9-4.57-4.21-6.85a.46.46 0 0 0-.14-.17v.17L19 30.75c0 .2.02.27.26.25.27-.02.26 0 .52 0 .15 0 .22.04.22.21v1.57c0 .22-.1.22-.25.22h-7.51c-.2 0-.24-.05-.24-.24a16 16 0 0 0-.02-1.52c0-.2.08-.24.24-.24h.62c.22 0 .16-.08.16-.25v-5.58c0-.24-.1-.26-.17-.02-.6 1.95-.92 3.6-1.49 5.55-.22.66-.4 1.35-.6 2-.05.18-.12.3-.26.3h-.72c-.26 0-.24-.5-.33-.78-.93-2.72-1.33-4.5-2.14-6.93-.06-.11-.03-.24-.2-.24-.13 0-.09.17-.09.27v5.41c0 .22.02.3.26.27h.58c.12 0 .16.02.16.15v1.7c0 .13-.07.15-.16.15H4.17c-.15 0-.17-.05-.17-.17v-1.66C4 31 4 31 4.12 31h.67c.14 0 .21-.02.21-.2v-5.6c0-.15-.04-.2-.21-.2-.22.02-.43 0-.65 0-.1.05-.14 0-.14-.1v-1.73c0-.12.02-.17.17-.17h4.09c.16 0 .16.1.19.22l1.43 4.4c.14.37.26.73.4 1.17Zm4.71 2c0 .17.05.2.22.2h1.61c.15 0 .17-.03.17-.15v-5.68c0-.17-.06-.17-.18-.17h-1.54c-.2 0-.28.05-.28.24v5.56Z" fill="#fff"/><path d="M43 28.44v-3.2c0-.2 0-.24-.19-.24h-.84c-.14 0-.47.02-.47.2v4.71c0 1.96-1 3.09-3 3.09-1.5 0-3.23-.74-3.45-2.55-.07-.61-.05-1.25-.05-1.87V23.3c0-.22.05-.3.27-.3h1.51c.24 0 .24.06.24.25C37 25.44 37 26.77 37 29c0 1.5 1 2 1.5 2 .83 0 1.5-.34 1.5-1.19V25.2c0-.18.05-.22.2-.2h.62c.14 0 .18-.05.18-.2v-1.57c0-.15.03-.22.22-.22l5.72-.01C50 23 52 25 52 28c0 2.5-1 5-4 5h-4.66c-.17 0-.34-.17-.34-.36-.02-1.38 0-2.8 0-4.2Zm2 2.29c0 .22.07.27.26.27h1.68c1.67 0 3.1-1.44 3.06-3-.04-1.9-1.58-3-3.06-3h-1.72c-.2 0-.22.07-.22.25v5.48Z" fill="#DCA316"/><path d="M29 32.03v.76c0 .12-.03.2-.18.2l-1.64.01c-.15 0-.18-.05-.18-.2v-3.1c0-.15.05-.2.2-.2l1.67-.02c.18 0 .13.05.13.22.08 1.12 1.37 1.74 2.2 1.7.25-.03.5-.08.7-.25.63-.44.63-1.24-.03-1.67-.57-.4-1.25-.63-1.88-.92-.75-.34-1.5-.66-2.11-1.22-.98-.87-1.03-2.9.53-3.82a4.38 4.38 0 0 1 4.16.04c.15.1.25.22.43.36v-.7c0-.15.03-.2.2-.2l1.41-.02c.15 0 .2.05.2.2v2.6c0 .15-.02.2-.2.2l-1.38.02c-.15 0-.18-.05-.26-.17a2.4 2.4 0 0 0-2.15-1.2c-.33 0-.65.1-.9.3-.4.29-.33.84.14 1.13.56.34 1.16.56 1.79.78a7.4 7.4 0 0 1 2.1 1.04c.81.63 1.11 1.46 1.04 2.43-.1 1.55-1.26 2.35-2.66 2.59-.9.17-1.79.1-2.6-.44-.17-.1-.53-.28-.73-.45ZM13.99 22h-.8c-.13 0-.19-.02-.19-.17v-1.66c0-.13.04-.17.17-.17h1.66c.13 0 .17.04.17.17v1.66c0 .13-.04.17-.17.17h-.84Z" fill="#DCA316"/><defs><linearGradient id="a" x1="10.42" y1="9.71" x2="68.15" y2="76.02" gradientUnits="userSpaceOnUse"><stop stop-color="#1A1E21"/><stop offset="1" stop-color="#06060A"/></linearGradient></defs></svg>