<!-- by TradeStack --><svg width="56" height="56" viewBox="0 0 56 56" xmlns="http://www.w3.org/2000/svg"><path fill="url(#a)" d="M0 0h56v56H0z"/><path d="M24.75 31v-3.7H23V26h5v1.3h-1.75V31h-1.5Zm13.32 0c-1.25 0-2.5-.92-2.5-2.5s1.26-2.5 2.5-2.5 2.5.92 2.5 2.5-1.25 2.5-2.5 2.5Zm0-1.3c.59 0 1.07-.53 1.07-1.2 0-.67-.49-1.2-1.07-1.2-.58 0-1.07.53-1.07 1.2 0 .67.48 1.2 1.07 1.2ZM43.5 31c-1.25 0-2.5-.92-2.5-2.5s1.26-2.5 2.5-2.5 2.5.92 2.5 2.5-1.26 2.5-2.5 2.5Zm0-1.3c.58 0 1.07-.53 1.07-1.2 0-.67-.49-1.2-1.07-1.2-.58 0-1.07.53-1.07 1.2 0 .67.48 1.2 1.07 1.2ZM29.82 31l-1.32-5h1.43L31 30.22h-.72L31.42 26h1.28l1.05 4.22h-.69L34.18 26h1.32l-1.32 5h-1.5l-.86-3.46h.4l-.9 3.46h-1.5Zm-16.44-3.14H16v1.21h-2.62v-1.21Zm.12 1.87H16V31h-4v-5h4v1.27h-2.5v2.46ZM5.32 31 4 26h1.43l1.07 4.22h-.72L6.92 26H8.2l1.05 4.22h-.69L9.68 26H11l-1.32 5h-1.5l-.86-3.46h.4L6.82 31h-1.5ZM47 31v-5h2.3c.53 0 1 .1 1.4.3.41.21.73.5.95.87.23.37.35.82.35 1.33 0 .5-.12.95-.35 1.33a2.3 2.3 0 0 1-.95.86c-.4.2-.87.31-1.4.31H47Zm1.37-1.13h.87c.27 0 .51-.05.72-.16.2-.1.37-.26.48-.47.12-.2.18-.45.18-.74 0-.3-.06-.54-.18-.74a1.2 1.2 0 0 0-.48-.47 1.5 1.5 0 0 0-.72-.16h-.87v2.74ZM19.44 31c-.48 0-.93-.05-1.37-.14-.44-.1-.8-.23-1.07-.39l.54-1a4.33 4.33 0 0 0 1.9.47c.23 0 .41-.01.55-.05a.73.73 0 0 0 .3-.13c.07-.06.1-.13.1-.2 0-.12-.06-.2-.18-.27a1.84 1.84 0 0 0-.47-.16l-.65-.12c-.23-.04-.46-.1-.7-.16a3.23 3.23 0 0 1-.64-.25c-.2-.1-.35-.24-.47-.4a1.07 1.07 0 0 1-.18-.64c0-.29.1-.55.28-.78.2-.24.48-.43.86-.57a4.1 4.1 0 0 1 1.42-.21 5.63 5.63 0 0 1 2.1.42l-.5 1a4.22 4.22 0 0 0-1.6-.36c-.23 0-.41.02-.55.06a.63.63 0 0 0-.3.15.31.31 0 0 0-.1.22c0 .1.07.19.18.25.12.06.28.11.47.16l.65.11c.24.04.47.1.7.16.24.06.45.14.65.25.19.1.34.23.46.4s.18.38.18.63c0 .28-.1.54-.29.77-.19.24-.47.43-.85.57-.38.14-.85.21-1.42.21Z" fill="#F0F3FA"/><defs><linearGradient id="a" x1="10.42" y1="9.71" x2="68.15" y2="76.02" gradientUnits="userSpaceOnUse"><stop stop-color="#1A1E21"/><stop offset="1" stop-color="#06060A"/></linearGradient></defs></svg>