<!-- by TradeStack --><svg width="56" height="56" viewBox="0 0 56 56" xmlns="http://www.w3.org/2000/svg"><path fill="#F0F3FA" d="M0 0h56v56H0z"/><path d="m24 12 3 8h-6l3-8Z" fill="#004E98"/><path d="M20.13 19.49c-2.68 0-5.87 2.28-7.13 3.42V25h31l-.3-2.09a5.8 5.8 0 0 1-2.9.75c-1.75 0-9.32-5.66-10.48-5.66-.93 0-3.1 1-4.08 1.49h-6.1Z" fill="#C0CFE3"/><path d="M17.82 23.1c-.47 0-3.78 1.21-5.38 1.82v5.5l30.4-3.67v-2.53c-3.5-.42-8.88-3.8-9.9-3.95-1.01-.14-5.67 2.26-6.1 2.82-.44.56-2.77-.42-4.37-.56-1.28-.12-2.37.89-2.76 1.4a5.36 5.36 0 0 0-1.9-.84Z" fill="#648FBD"/><path d="M22.09 20.33V19h3.26v1.19l.42.88v2.97L32 31H16l5.66-6.67v-3.26l.43-.74Z" fill="#FEFEFE"/><path d="M38 22h-9.7v9.83h14.82V25H38v-3Z" fill="#FEFEFE"/><path fill-rule="evenodd" d="M38 25v-3H28v10h15v-7h-5Zm4.5.5h-5v-3h-9v9h14v-6Z" fill="#004E98"/><path d="m15.93 26.33-3.2 3.1-.3.7h8.15a15 15 0 0 1-4.65-3.8Z" fill="#FEFEFE"/><path fill="#004E98" d="M13 36h4v3h-4zm5 .55 3-.55v2.45L18 39v-2.45ZM13 31h1v5h-1z"/><path fill="#9AB4D1" d="M14 33h3v3h-3z"/><path fill="#004E98" d="M28 34h1v3h-1zm3 0h2v3h-2zm1-1h8v1h-8zm2 1h1v3h-1zm3 0h3v3h-3zm3 3h3v1h-3z"/><path fill="#004E98" d="M38 32h2v2h-2zm-13.85-3c-1.35.53-2 1.56-2.15 2h4c0-.78-1.23-1.67-1.85-2Zm2.28 5.62c0-.77 1.05-1.8 1.57-2.2V32h-7v4h7v-1.38h-1.57ZM40 28.13c0-1.17.98-2.13 2.18-2.13H43v4h-3v-1.87Zm-10-3.25c0-.49.45-.88 1-.88s1 .4 1 .88V27h-2v-2.13Zm3 0c0-.49.45-.88 1-.88s1 .4 1 .88V27h-2v-2.13Zm3 0c0-.49.45-.88 1-.88s1 .4 1 .88V27h-2v-2.13Zm-6 4c0-.49.45-.88 1-.88s1 .4 1 .88V31h-2v-2.13Zm3 0c0-.49.45-.88 1-.88s1 .4 1 .88V31h-2v-2.13Zm3 0c0-.49.45-.88 1-.88s1 .4 1 .88V31h-2v-2.13Z"/><path fill="#FEFEFE" d="M22 32h4v3h-4z"/><path fill="#004E98" d="M28 21h10v1H28z"/><circle cx="24" cy="23" r="1" fill="#004E98"/><path d="M43.4 39H27l1.2-1H44l-.6 1Z" fill="#004E98"/><path fill-rule="evenodd" d="M41.25 17h-26.5c-.97 0-1.75.76-1.75 1.7v18.6c0 .94.78 1.7 1.75 1.7h26.5c.97 0 1.75-.76 1.75-1.7V18.7c0-.94-.78-1.7-1.75-1.7Zm-26.63-.95A2.58 2.58 0 0 0 12 18.58v18.88c0 1.4 1.17 2.54 2.62 2.54h26.76A2.58 2.58 0 0 0 44 37.46V18.58c0-1.4-1.17-2.53-2.62-2.53H14.62Z" fill="#004E98"/></svg>