<!-- by TradeStack --><svg width="56" height="56" viewBox="0 0 56 56" xmlns="http://www.w3.org/2000/svg"><path fill="#F0F3FA" d="M0 0h56v56H0z"/><path fill-rule="evenodd" d="M40 19.05v5.29c-.27-.43-1.46-1.34-3.1-1.34-3.8 0-4.9 3.39-4.9 4.62 0 .96.25 5.36 5.16 5.36 3.93 0 4.86-3.23 4.84-4.84v-9.09c0-.6-.38-1.05-1-1.05s-1 .46-1 1.05Zm0 8.99c0 2.54-1.34 4.6-3 4.6s-3-2.06-3-4.6c0-2.55 1.34-4.61 3-4.61s3 2.06 3 4.6Zm-36-1.2v5.1c0 .59.47 1.06 1.05 1.06.57 0 .95-.47.95-1.06V26.83c0-.22 0-3.4 2.24-3.4 1.8 0 2.3 1.97 2.26 2.96v5.52c0 .6.38 1.09.98 1.09.59 0 1.02-.49 1.02-1.09V26.4c-.02-.99.42-2.96 2.15-2.96S17 25.33 17 26.27v5.64c0 .6.33 1.09.92 1.09.6 0 1.08-.49 1.08-1.1v-4.65c0-3.03-2.22-4.25-4.35-4.25-1.7 0-2.83 1.38-3.18 2.07A3.81 3.81 0 0 0 7.95 23C5.02 23 4.1 25.55 4 26.83ZM23 28h6.24c.4 0 .73-.51.72-.93C29.89 25.4 29 23 25.76 23 21.03 23 21 27.83 21 28.18c0 .35.31 4.82 4.75 4.82 2.61 0 3.9-2.07 4.24-3.2a.13.13 0 0 0-.06-.15l-.03-.01c-.07-.03-.14 0-.17.07-.38.94-1.48 2.61-3.21 2.61-2.27 0-3.52-1.5-3.52-4.32Zm0-.5h4.57c.24 0 .43-.18.43-.4-.02-1.41-.5-3.6-2.33-3.6-2.04 0-2.63 2.67-2.67 4Z" fill="#6D747C"/><path d="M51.92 23.04a.2.2 0 0 0-.28.04l-3.08 3.9-2.68-3.57a1 1 0 0 0-1.45-.18 1.1 1.1 0 0 0-.17 1.51l2.96 3.93-3.18 4.01a.2.2 0 0 0 .04.28.2.2 0 0 0 .28-.04l3.1-3.92 2.7 3.59a1 1 0 0 0 1.45.18 1.1 1.1 0 0 0 .17-1.5L48.8 27.3l3.16-3.98a.2.2 0 0 0-.04-.28Z" fill="#6B91C8"/></svg>