<!-- by TradeStack --><svg width="56" height="56" viewBox="0 0 56 56" xmlns="http://www.w3.org/2000/svg"><path fill="#597484" d="M0 0h56v56H0z"/><path d="M49 25v8h-2v-8h2ZM38 33v-8h2v3.68L43.78 25h2.19l-4.1 3.75L46 33h-2.16L40 28.93V33h-2ZM35 25h2v5.15c0 1.9-1.79 2.85-3.5 2.85-1.72 0-3.5-.94-3.5-2.85V25h2v4.8c0 1.09.5 1.7 1.5 1.7 1.01 0 1.5-.61 1.5-1.7V25ZM22 33v-8h3.6c1.3 0 3.03.48 3.03 2.07 0 .96-.77 1.53-1.64 1.7v.09c1.08.05 2.01.85 2.01 1.96C29 32.5 27.17 33 25.8 33H22Zm2-1.5h1.53c.7 0 1.74.11 1.74-.8 0-.88-.94-1.25-1.7-1.25H24v2.05Zm0-3.1h1.38c.7 0 1.62-.33 1.62-1.14 0-.8-.91-.76-1.58-.76H24v1.9ZM15 33v-8h6v1.5h-4v1.89h3.66v1.21H17v1.9h4V33h-6ZM5 25h2.41l2.04 5.8h.1L11.6 25H14v8h-2v-5l-1.94 5H8.94L7 27.98V33H5v-8Z" fill="#fff"/><path d="m48 18 .66.5c1.12.82 1.12 2.18 0 3L48 22l-.66-.5c-1.12-.82-1.12-2.18 0-3L48 18ZM44 21.74V21h.74A2.26 2.26 0 0 1 47 23.26V24h-.74A2.26 2.26 0 0 1 44 21.74Zm8 0V21h-.74A2.26 2.26 0 0 0 49 23.26V24h.74A2.26 2.26 0 0 0 52 21.74Z" fill="#A6C64C"/></svg>