<!-- by TradeStack --><svg width="56" height="56" viewBox="0 0 56 56" xmlns="http://www.w3.org/2000/svg"><path fill="#1F6B9A" d="M0 0h56v56H0z"/><path d="M26.2 19.38c-.22.02-.44.07-.67.13-.2.05-.42.1-.64.13-.74.1-1.47.2-2.2.32-.33.05-.59.07-.78.05a.11.11 0 0 1-.07-.02.12.12 0 0 1-.03-.13l.03-.06.27-.2c.1-.07.19-.13.3-.23l1.25-1.07c.17-.13.3-.2.54-.22.77-.04 1.5-.1 2.17-.17l.74-.04a7.59 7.59 0 0 0 1.2-.14.05.05 0 0 0 0-.04l-.01-.04h-.01l-1.27-.13a.19.19 0 0 1-.11-.05.2.2 0 0 1-.04-.23.2.2 0 0 1 .09-.1c.74-.35 2.2-1 4.4-1.95.33-.14.75-.23 1.25-.26l3.04-.22c.12 0 .25-.03.37-.06.18-.03.36-.06.5-.06l.07.01 4.47 2.05a.12.12 0 0 0 .17-.07l1.1-2.51a.11.11 0 0 1 .07-.06.11.11 0 0 1 .08 0c.05.02.12.1.23.26.04.05.13.26.3.61.06.15.1.37.08.66-.03.75.02 1.58.13 2.5.01.1.04.18.08.26l.76 1.58.04.1.57 2.78c.05.22.21.63.5 1.2.52 1.08 1.14 2.47 1.52 3.3l.25.54c.1.22.08.43-.05.63l-1.12 1.78a25.18 25.18 0 0 0-.22.44.1.1 0 0 1-.05.02l-1.85.17c-.06 0-.11-.01-.16-.04a.25.25 0 0 1-.1-.13c-.23-.68-.54-1.51-.92-2.49a3.8 3.8 0 0 0-.29-.54.14.14 0 0 0-.06-.06l-4.37-2.4a.41.41 0 0 0-.35-.02l-3.53 1.32a.12.12 0 0 0-.06.05 3870.12 3870.12 0 0 1 .1 4.76c0 .13.13.32.39.59.92.97 1.97 2.01 3.16 3.12.17.17.23.37.2.66l-.1 2.14c0 .11.02.22.03.31.02.1.04.2.03.28a.2.2 0 0 1-.07.14c-.24.2-.42.38-.55.55-.4.52-.8 1-1.2 1.47-.39.45-.76.89-1.12 1.36a35.9 35.9 0 0 1-1.74 2.07.2.2 0 0 1-.08.02L28 43.97a.11.11 0 0 1-.1-.04.12.12 0 0 1-.01-.1 324.73 324.73 0 0 1 1.54-2.59c.12-.2.28-.25.49-.15l1.38.6c.23.1.42.07.57-.1a448.65 448.65 0 0 1 2.52-2.66c.18-.35.26-.75.23-1.22a.13.13 0 0 0-.04-.09.12.12 0 0 0-.09-.03h-7.96c-.55 0-1.33-.04-2.36-.13-.8-.07-1.5-.11-2.2-.16-.56-.03-1.11-.06-1.72-.11a39.24 39.24 0 0 0-1.94-.13c-.11 0-.2-.04-.27-.12a.14.14 0 0 1 0-.18.14.14 0 0 1 .04-.04l5.13-2.68a.24.24 0 0 0 .13-.16l.33-1.62a.55.55 0 0 1 .24-.35l1.21-.8a.32.32 0 0 0 .1-.14.11.11 0 0 0-.06-.14 67.62 67.62 0 0 0-6.97.38c-.17 0-.3.04-.43.07a6.3 6.3 0 0 1-.28.07c-.16.08-.66.29-1.52.63a48.61 48.61 0 0 0-3.52 1.51c-.18.1-.36.14-.54.15l-.03-.01a.06.06 0 0 1-.01-.1l.27-.3c.33-.37.67-.76.94-1.01.92-.87 1.72-1.65 2.39-2.36.12-.13.27-.22.44-.28 2.19-.69 4.43-1.37 6.71-2.05.36-.1.79-.27 1.1-.46.97-.62 1.73-1.12 2.26-1.48a.16.16 0 0 0 .08-.1.07.07 0 0 0-.03-.08.07.07 0 0 0-.07 0c-1.35.47-2.63.94-3.85 1.4-.36.13-.72.17-1.1.12-.62-.08-1.6-.17-2.94-.28a9.64 9.64 0 0 1-1.32-.18.12.12 0 0 1-.03-.11l.03-.06a658.08 658.08 0 0 1 5.32-1.64c.22-.06.44-.18.65-.35l2.61-2.1c.14-.11.3-.18.47-.2.58-.1 1.06-.2 1.46-.29.33-.07.62-.12.87-.14a34.66 34.66 0 0 0 .89-.1.05.05 0 0 0 0-.06c-.05-.08-.17-.16-.37-.22-.34-.1-.77-.23-1.28-.35a1.46 1.46 0 0 0-.7 0c-1.05.25-1.91.44-2.56.57l-.71.15c-.4.1-.78.19-1.2.22h-.13a.09.09 0 0 1-.05-.02.1.1 0 0 1 .02-.15l4.22-2.06a.1.1 0 0 0 .04-.05.1.1 0 0 0-.03-.11.09.09 0 0 0-.06-.02Zm15.84-2.07a.12.12 0 0 0 .11.03.12.12 0 0 0 .08-.09l.56-2.17a.13.13 0 0 0-.02-.1l-.21-.3a.12.12 0 0 0-.11-.06.12.12 0 0 0-.1.07l-.87 2.03a.13.13 0 0 0 .03.14l.53.45Zm-11.88.36h.02l5.1-2.5.01-.02a.04.04 0 0 0 0-.04l-.03-.01-3.18.09h-.02l-4.5 1.96-.01.01a.04.04 0 0 0 0 .05l.02.01 2.59.45Zm-1.7 1.16a.14.14 0 0 0-.07.07.15.15 0 0 0 .04.18c.03.02.06.03.1.03l6.53.08c.03 0 .06 0 .09-.03a.15.15 0 0 0 .05-.07l1.1-3.82a.15.15 0 0 0-.05-.15.14.14 0 0 0-.16-.02l-7.63 3.73Zm12.24 1.51h.02l.02-.02a.04.04 0 0 0 0-.04l-4.08-5.14a.04.04 0 0 0-.04-.01h-.02l-.01.03-1.15 4a.04.04 0 0 0 .02.05h.01l5.23 1.13Zm-3.46-4.95c0 .04.02.07.04.1.4.48.75.92 1.06 1.33.17.23.35.44.51.63.2.23.4.45.55.69.22.3.48.62.73.92.32.39.64.76.85 1.13.03.05.08.1.13.12.25.1.5.06.77-.15a.13.13 0 0 0 .03-.04l.88-1.7a.25.25 0 0 0 .02-.18.24.24 0 0 0-.1-.14l-.58-.4c-.6-.42-1.12-.78-1.77-1.06a91.22 91.22 0 0 1-3.03-1.35.1.1 0 0 0-.08.05.1.1 0 0 0 0 .05Zm5.57 1.27c0-.01 0-.03-.02-.04a.06.06 0 0 0-.07 0 .06.06 0 0 0-.03.02c-.09.22-.14.52-.15.89 0 .06.02.11.06.15a.2.2 0 0 0 .14.07h.07a.1.1 0 0 0 .08-.02.1.1 0 0 0 .03-.09l-.1-.98ZM22.67 19.6c.05.03.1.05.14.04a594.99 594.99 0 0 1 3.44-.5c.5-.06 1.11-.13 1.56-.27.2-.06.39-.16.57-.26.18-.1.36-.2.54-.26.24-.08.38-.15.41-.21a.05.05 0 0 0 0-.05l-.01-.02h-.02a2.86 2.86 0 0 0-.57-.04c-1.46.08-2.96.2-4.52.34a.75.75 0 0 0-.4.19 187 187 0 0 1-1.16.96.07.07 0 0 0 0 .06l.02.02ZM44.2 22.7a.1.1 0 0 0 .11-.01.1.1 0 0 0 .04-.1l-.53-2.52-.01-.02-.6-1.3a.16.16 0 0 0-.29 0l-.63 1.28a.66.66 0 0 0 0 .58l.66 1.32c.05.1.13.19.23.24l1.02.53Zm-20.25-1.52 2.82-.68a.98.98 0 0 1 .49.01l2.48.67h.05c.13-.1.37-.15.6-.2.17-.04.33-.07.46-.12a197.82 197.82 0 0 1 2.42-.95 2.66 2.66 0 0 1 .88-.28l.02-.02a.05.05 0 0 0 0-.05c-.05-.08-.16-.12-.32-.12a80.77 80.77 0 0 1-6.05-.1c-.37.06-.77.2-1.2.4-1.4.67-2.2 1.05-2.38 1.16-.17.1-.27.18-.3.23a.03.03 0 0 0 0 .03l.01.02h.02Zm11.65-1.56c.01.17.08.4.2.68a64.26 64.26 0 0 1 1.77 4.24.1.1 0 0 0 .14-.02l2.98-3.5a.16.16 0 0 0-.02-.23l-.15-.14a.25.25 0 0 0-.12-.06l-4.74-1.02a.05.05 0 0 0-.04.01l-.01.02v.02Zm1.67 5.27a.13.13 0 0 0 .08-.07.14.14 0 0 0 0-.11l-2.05-4.99a.14.14 0 0 0-.1-.08.13.13 0 0 0-.11.03l-3.55 2.97a.14.14 0 0 0-.03.18l2.08 3.33.08.05h.09l3.51-1.3Zm-3.05-5.1a.53.53 0 0 1-.2.14 1569.83 1569.83 0 0 1-4.07 1.57 4.5 4.5 0 0 0-.84.15c-.52.15-.8.17-1.25.21l-.29.03a.53.53 0 0 0-.37.18l-.02.02a.05.05 0 0 0 .02.05h.03c.96.12 1.94.2 2.96.25.18 0 .45.04.8.09.17.02.34-.03.52-.18.89-.7 1.76-1.42 2.62-2.15l.2-.26a.07.07 0 0 0-.01-.1h-.01a.07.07 0 0 0-.1 0Zm7.96 7.48h.02a.04.04 0 0 0 .04-.03l.5-5a.04.04 0 0 0 0-.04l-1.52-1.36a.04.04 0 0 0-.05 0l-3.37 3.98a.04.04 0 0 0 0 .03v.02l.01.01 4.37 2.39Zm-19.23-2.84a.08.08 0 0 0 0 .13l.06.02 4.75-.14.04-.01 2.79-1.58.03-.04a.09.09 0 0 0-.02-.1.08.08 0 0 0-.05-.02l-4.93-.3-.05.01-2.62 2.03Zm19.64 2.25.01.04.03.02h.04l.03-.03 1.74-3.55a.06.06 0 0 0-.03-.07l-1.3-.68a.05.05 0 0 0-.06 0l-.02.02v.03l-.44 4.22Zm-18.31.53c.11.01.29-.02.47-.06l.38-.06 7.35-.7h.34c.12 0 .24 0 .36-.02a.12.12 0 0 0 .1-.07.13.13 0 0 0 0-.12l-1.99-3.15a.22.22 0 0 0-.13-.1.2.2 0 0 0-.16.03c-.7.44-1.4.85-2.11 1.25-.6.34-1.2.68-1.8 1.05-1.04.65-1.92 1.2-2.62 1.67a.7.7 0 0 0-.23.22v.02a.05.05 0 0 0 .02.04h.02Zm18.26.26a.06.06 0 0 0 .01.07l2.54 2.48.04.02.03-.01.03-.03v-.04l-.65-6.1c0-.01 0-.03-.02-.04a.06.06 0 0 0-.03-.02l-.04.01a.06.06 0 0 0-.03.03l-1.88 3.63Zm2.9 2.52a.07.07 0 0 0 .05.07.07.07 0 0 0 .08-.03l1-1.57c.11-.19.15-.33.11-.43a52.99 52.99 0 0 0-1.7-3.7.1.1 0 0 0-.08-.02.1.1 0 0 0-.04.02v.06c.11 1.2.28 2.7.52 4.46.05.37.07.75.06 1.14Zm-27.58-3.6 3.71.24c.04 0 .09 0 .13-.02 1.24-.43 2.44-.85 3.6-1.28.4-.15.7-.2.88-.14a.11.11 0 0 0 .1-.03c.11-.1.25-.17.42-.21l.03-.02a.05.05 0 0 0 0-.06l-.04-.02c-.85-.06-1.72-.04-2.58-.02l-1.24.02c-.26 0-.57.05-.78.12-1.1.36-2.26.7-3.46 1.03a4.82 4.82 0 0 0-.82.32.05.05 0 0 0 .02.06l.03.02Zm8.27 4.04.02.02h.02l6.67-3.7.02-.02v-.03l-.02-.02h-.02l-8.9.8h-.02l-.09.08a.04.04 0 0 0-.01.03v.03l2.33 2.81Zm7.44-3.55a.18.18 0 0 0-.1-.13.17.17 0 0 0-.16 0l-6.77 3.85a.06.06 0 0 0-.02.03v.03c0 .02 0 .03.02.03l.03.02c1-.04 2.07.07 3.16.23.33.06.66.08.99.1.37.03.75.05 1.14.12a16.88 16.88 0 0 0 1.67.17.12.12 0 0 0 .07-.07l.01-.05-.1-3.95c0-.05 0-.12.02-.2a1 1 0 0 0 .04-.18ZM12.9 32.86c.08.04.16.05.25.01A118.05 118.05 0 0 1 17.67 31c1-.13 1.99-.2 2.95-.22 1.01-.02 1.85-.07 2.66-.11.76-.05 1.5-.09 2.36-.1l.06-.03a.12.12 0 0 0 .05-.11 33.39 33.39 0 0 0-2-2.43l-.1-.15c-.05-.1-.1-.19-.2-.24-.05-.03-.17-.01-.35.05-1.08.36-2.18.7-3.3 1.04-1.23.38-2.46.76-3.65 1.17-.25.08-.45.2-.6.37a62.21 62.21 0 0 1-2.68 2.58v.02l.03.02Zm30.12-4.52a.07.07 0 0 0-.08 0 .07.07 0 0 0-.03.03v.04l.73 2.04.02.04h.04l1.34-.03a.07.07 0 0 0 .06-.04.07.07 0 0 0-.02-.08l-2.06-2Zm-19.44 5.58a.08.08 0 0 0 .02.08.07.07 0 0 0 .07.02l8.67-2.34.04-.03a.08.08 0 0 0-.01-.1.07.07 0 0 0-.04-.02L26 30.85l-.05.01-1.93 1.4a.08.08 0 0 0-.02.04l-.42 1.62Zm9.1-2.1-.28.14a.56.56 0 0 1-.12.05l-8.71 2.27a3.8 3.8 0 0 0-4.7 2.48v.02l.01.02h.02l7.1.44a.57.57 0 0 0 .45-.17c.2-.2.46-.38.7-.55.16-.11.32-.22.46-.34.88-.73 1.84-1.48 2.86-2.24l1.18-.95.72-.58c.19-.15.33-.3.43-.46a.1.1 0 0 0-.06-.14.1.1 0 0 0-.06 0Zm-5.75 5.53c.19-.06.34-.09.47-.1a332.2 332.2 0 0 1 7.54 0l1.92.77a.14.14 0 0 0 .16-.04.15.15 0 0 0 .03-.06c0-.02 0-.04-.02-.07a95.86 95.86 0 0 1-3.26-6.03l-.01-.02a.06.06 0 0 0-.05 0h-.02c-.32.21-.57.4-.78.56a149.3 149.3 0 0 1-3.75 2.94 15.96 15.96 0 0 0-1.13.92c-.4.3-.84.66-1.15 1.05a.05.05 0 0 0 0 .06.05.05 0 0 0 .05.02Zm7.67-4.55 2.54 4.72a.1.1 0 0 0 .06.05.1.1 0 0 0 .08-.02c.03-.02.05-.05.05-.08l.03-1.85a.6.6 0 0 0-.17-.45l-2.5-2.44a.05.05 0 0 0-.08 0 .06.06 0 0 0-.01.07Zm-1.7 8.18-.01.04a.06.06 0 0 0 .05.05h.04l1.5-1c.74-.49 1.47-.98 2.23-1.42a.94.94 0 0 0 .25-.27.03.03 0 0 0 0-.02h-.01l-1.82-.73a.16.16 0 0 0-.16.02.17.17 0 0 0-.07.14c0 .33-.05.66-.14 1-.03.13-.16.31-.37.54l-1.37 1.46-.12.19Zm3.63-1.77a.04.04 0 0 0 0-.05l-.02-.01h-.03l-4.54 2.87a.04.04 0 0 0-.02.02v.03l.95 1.57.01.02h.04l.01-.01 3.6-4.44Zm-8.2 4.4a.08.08 0 0 0 0 .08.08.08 0 0 0 .07.04h4.08l.04-.01.03-.03a.08.08 0 0 0 0-.09l-.98-1.43a.08.08 0 0 0-.04-.03l-1.73-.8h-.06a.08.08 0 0 0-.05.04l-1.36 2.22ZM21.66 18.66c.04.12.01.22-.1.3-1.1.85-1.97 1.57-2.6 2.17-.07.07-.25.09-.53.06l-.87-.08a.5.5 0 0 0-.24.04l-1.4.54a.65.65 0 0 1-.4.03.08.08 0 0 1-.04-.02.09.09 0 0 1-.02-.09l.02-.04 1.38-1.3a.3.3 0 0 1 .18-.08c.5-.05.98-.1 1.43-.17.12-.01.26-.06.43-.14a329.5 329.5 0 0 0 2.72-1.26.07.07 0 0 1 .04.04Zm-5.24 2.56.93-.36a.61.61 0 0 1 .18-.04c.21-.01.55 0 1.03.03.2.02.35-.03.45-.13a14.41 14.41 0 0 1 1.22-1.12l-.01-.04a.06.06 0 0 0-.08-.02l-1.26.65c-.11.06-.23.1-.35.11l-1.3.15a.41.41 0 0 0-.23.11l-.62.59-.02.02v.03l.03.02h.03Z" fill="#fff"/><path d="M12.44 23.97c.02.03.04.04.07.05.24.07.76.05 1.5.02l.9-.03c.39 0 .66.06 1 .23l1.22.6a.34.34 0 0 0 .26.01 354.44 354.44 0 0 0 4.76-1.84.15.15 0 0 0 .03-.06v-.06a.18.18 0 0 0-.02-.07c-.02-.03-.05-.04-.1-.04-.21 0-.42.03-.62.08-.37.1-.61.1-.93.1h-.3l-.62.07c-1.04.14-1.74.21-2.1.21-.39 0-.8-.14-1.46-.35l-.6-.19a.58.58 0 0 0-.39.02l-2.54 1.05a.13.13 0 0 0-.06.05.14.14 0 0 0 0 .15Zm1.62-.22a.88.88 0 0 1-.5-.13l-.02-.02a.04.04 0 0 1 .01-.04l.02-.01c.44-.1.91-.25 1.44-.5.11-.04.28-.04.5 0l1.59.46c.1.02.26.03.5.01.83-.06 1.67-.16 2.5-.3.14-.02.28 0 .42.05a.07.07 0 0 1 .05.07c0 .01 0 .03-.02.04l-.03.02-.3.05c-.2.02-.3.08-.42.16-.07.04-.14.09-.24.12-.47.18-1.21.45-2.22.8a.14.14 0 0 1-.1 0l-1.46-.67a1.21 1.21 0 0 0-.51-.1h-1.21ZM8.86 28.07a.1.1 0 0 1-.12-.03.12.12 0 0 1-.01-.13c.16-.28.4-.46.64-.63l.31-.23c.34-.29.92-.76 1.74-1.4a.32.32 0 0 1 .23-.08l1.16.08c.07 0 .14 0 .22-.02a9.49 9.49 0 0 0 1.9-.6l.05.03a.1.1 0 0 1 .04.08c-.02.16-.08.28-.2.35-.34.24-.7.53-1.09.88-.36.34-.83.34-1.3.34l-.4.01a.52.52 0 0 0-.18.04l-2.99 1.3Zm1.06-.72 1.78-.87c.1-.05.22-.08.33-.09l1.1-.04c.06 0 .1-.01.15-.03.26-.12.47-.3.63-.56a.07.07 0 0 0-.01-.08.06.06 0 0 0-.08-.01c-.72.42-1.23.32-2.05.17a.2.2 0 0 0-.14.03c-.45.3-.94.66-1.48 1.09-.19.14-.29.25-.3.33a.06.06 0 0 0 .02.05.05.05 0 0 0 .05 0ZM14.82 27.95a.16.16 0 0 0-.1 0l-2.47.92c-.1.03-.21.04-.31.03l-1.58-.18a.75.75 0 0 0-.6.18c-1.38 1.18-2.59 2.19-3.62 3.02-.1.08-.15.17-.14.26a.14.14 0 0 0 .07.1.13.13 0 0 0 .12 0l4.25-1.95a.3.3 0 0 1 .08-.02l2.02-.18a.55.55 0 0 0 .31-.13l2.03-1.76a.17.17 0 0 0 .03-.21.17.17 0 0 0-.09-.08Zm-2.5 1.19 1.44-.54h.03l.02.02a.04.04 0 0 1 0 .05l-.24.28c-.3.22-.56.44-.79.66-.13.12-.3.2-.47.2l-1.8.1c-.05.01-.1.02-.14.05l-3.04 1.59a.08.08 0 0 1-.09-.01.09.09 0 0 1-.02-.09c.01-.06.04-.1.08-.14.25-.23 1.1-.93 2.53-2.1a.71.71 0 0 1 .53-.17c.37.04.92.09 1.65.14.1 0 .22 0 .32-.04Z" fill="#fff"/></svg>