<!-- by TradeStack --><svg width="56" height="56" viewBox="0 0 56 56" xmlns="http://www.w3.org/2000/svg"><path fill="#F0F3FA" d="M0 0h56v56H0z"/><path d="M33 39a5 5 0 0 1-10 0c0-.5.3-1.84 1.07-3.97a95.02 95.02 0 0 1 2.67-6.46c.42-.95.85-1.87 1.26-2.74a176.24 176.24 0 0 1 2.57 5.74 7.54 7.54 0 0 0 2.12-2.66 181.64 181.64 0 0 0-3.02-6.55C28.69 20.35 28 19 28 19s-.7 1.35-1.67 3.36C23.99 27.2 20 35.88 20 39a8 8 0 1 0 16 0c0-.92-.35-2.33-.9-3.98-.68.71-1.58 1.54-2.48 2.12.27.93.38 1.55.38 1.86Z" fill="#0C3271"/><path d="M33 29a5 5 0 0 1-7.53 4.32l-1.12 2.8A8 8 0 0 0 36 29c0-3.12-3.99-11.8-6.33-16.64C28.69 10.35 28 9 28 9s-.7 1.35-1.67 3.36C23.99 17.2 20 25.88 20 29c0 1.4.36 2.71.99 3.86l2.28-5.33c.18-.65.44-1.49.8-2.5a95.02 95.02 0 0 1 2.67-6.46c.42-.95.85-1.87 1.26-2.74.4.87.84 1.8 1.26 2.74.99 2.2 1.95 4.48 2.67 6.46C32.69 27.16 33 28.49 33 29Z" fill="#E83121"/></svg>