<!-- by TradeStack --><svg viewBox="0 0 56 56" xmlns="http://www.w3.org/2000/svg"><path fill="#F0F3FA" d="M0 0h56v56H0z"/><path fill-rule="evenodd" d="M5 21h46v14H5V21Zm9.66 3H17v8h-2v-4.28l-1.57 4.2-.03.08h-.81l-.03-.08-1.56-4.2V32H9v-8h2.32l.03.07L13 28.65l1.65-4.58.02-.07ZM24 24h-5v8h5v-2h-3v-1h3v-2h-3v-1h3v-2Zm3.93 0h2.13l.03.07 2.85 7.77.06.16h-2.03l-.03-.08-.38-.92H27.4l-.35.92-.03.08H25l.06-.16 2.85-7.77.02-.07ZM29 26.11 28 29h2l-1-2.89ZM37.4 24H34v8h2v-2.55h.62L38 32h2l-.1-.18L38.38 29c.72-.25 1.5-1 1.5-2.38 0-1.57-1-2.62-2.48-2.62ZM36 26h1.19c.56 0 .82.37.81.75 0 .37-.25.68-.81.68H36V26Zm6.02-1.3c.5-.46 1.2-.7 2-.7 1.13 0 2.06.36 2.78 1.08l.08.08-.08.09-1.02 1.01-.07.07-.07-.06c-.5-.4-.83-.56-1.47-.55-.54 0-.91.2-.91.6 0 .38.34.5 1.04.67 1.14.29 2.7.69 2.7 2.48 0 1.56-1.1 2.53-2.89 2.53a3.95 3.95 0 0 1-3.03-1.23L41 30.7l.08-.08 1.04-1.03.06-.07.07.07c.54.5 1.06.74 1.77.74.67 0 .98-.24.98-.69 0-.44-.35-.6-1.08-.78-1.19-.3-2.64-.68-2.64-2.45 0-.32.06-.64.19-.94.13-.3.32-.55.55-.76Z" fill="#DB042C"/></svg>