<!-- by TradeStack --><svg width="56" height="56" viewBox="0 0 56 56" xmlns="http://www.w3.org/2000/svg"><path fill="#F0F3FA" d="M0 0h56v56H0z"/><path d="M25.93 15.08A2.51 2.51 0 0 0 23.5 12a2.5 2.5 0 1 0 .44 4.96l.78 6.16c-.4.13-.76.37-1.04.67l-6.85-4.39a2.5 2.5 0 1 0-.35.63l6.79 4.35A2.5 2.5 0 1 0 25.42 23l-.8-6.26c.43-.22.8-.56 1.04-.98l5.63 2.56a4.99 4.99 0 1 0 .3-.67l-5.66-2.57ZM44 36.98c0 .31-.04.67-.08 1.02h-7.49c.38 1.2 1.39 2 2.66 2 .82 0 1.7-.26 2.32-.82l1.47 1.47A6.28 6.28 0 0 1 39.01 42C36.3 42 34 39.74 34 37c0-2.72 2.26-5 5-5 2.73 0 5 2.24 5 4.98Zm-2.5-.97c-.34-1.13-1.32-2.01-2.52-2.01a2.8 2.8 0 0 0-2.6 2.01h5.12ZM32 42h-2v-5.82c0-1-.87-2.18-2.01-2.18-.7 0-1.51.2-2.14.76.1.4.15.93.15 1.42V42h-2v-5.82c0-1-.7-2.18-1.84-2.18-.71 0-1.66.42-2.16.9V42h-2V32h2v.98c.6-.6 1.77-.98 2.62-.98 1 0 1.96.5 2.6 1.25A4.55 4.55 0 0 1 28.36 32c2.35 0 3.64 1.84 3.64 4.06V42Z" fill="#1D75BC"/></svg>