<?xml version='1.0' encoding='utf-8'?>
<!-- by TradeStack -->
<svg width="56" height="56" viewBox="0 0 56 56" xmlns="http://www.w3.org/2000/svg"><path fill="url(#aodxajl41)" d="M0 0h56v56H0z" /><path d="M43 13v10.72L30.58 35.64 33.19 38 43 29.44V42h-3v-5.89L33.15 42l-4.73-4.3-4.45 4.27L16 35.86V42h-3V29.69l10.75 8.34 2.44-2.34L13 23.75V13.17L28.48 26 43 13ZM28.35 33.62 40 22.55v-2.77L28.56 29.92 16 19.61v2.92l12.35 11.09Z" fill="url(#bodxajl41)" /><defs><linearGradient id="aodxajl41" x1="10.42" y1="9.71" x2="68.15" y2="76.02" gradientUnits="userSpaceOnUse"><stop stop-color="#1A1E21" /><stop offset="1" stop-color="#06060A" /></linearGradient><linearGradient id="bodxajl41" x1="14" y1="14.93" x2="41.07" y2="42.43" gradientUnits="userSpaceOnUse"><stop stop-color="#3A0501" /><stop offset=".16" stop-color="#C3812F" /><stop offset=".29" stop-color="#DEC46D" /><stop offset=".4" stop-color="#BF9531" /><stop offset=".57" stop-color="#D6C76C" /><stop offset=".67" stop-color="#C8632A" /><stop offset=".85" stop-color="#B4771E" /><stop offset="1" stop-color="#EDC377" /></linearGradient></defs></svg>