<?xml version='1.0' encoding='utf-8'?>
<!-- by TradeStack -->
<svg width="56" height="56" viewBox="0 0 56 56" xmlns="http://www.w3.org/2000/svg"><path fill="#F0F3FA" d="M0 0h56v56H0z" /><path d="M28 45a17 17 0 1 0 0-34 17 17 0 0 0 0 34Z" fill="#003E7E" /><path d="M13 28c0 8.27 6.73 15 15 15s15-6.73 15-15-6.73-15-15-15-15 6.73-15 15Zm.47 0c0-8.01 6.52-14.53 14.53-14.53S42.53 19.99 42.53 28 36.01 42.53 28 42.53A14.55 14.55 0 0 1 13.47 28Zm24.47-.72L32.38 24l3.61-5.35-6.03 2.3-1.93-6.16-1.96 6.16-6.03-2.34 3.6 5.37-5.58 3.26 6.43.54-.93 6.4 4.44-4.7 4.41 4.71-.9-6.4 6.43-.5Z" fill="#F0F3FA" /></svg>