<!-- by TradeStack --><svg width="56" height="56" viewBox="0 0 56 56" xmlns="http://www.w3.org/2000/svg"><path fill="#F0F3FA" d="M0 0h56v56H0z"/><path d="M44 26.6c0-5.45-3.78-9.6-9.26-9.6-2.46 0-4.9.85-6.66 2.65A9.63 9.63 0 0 0 21.26 17C15.79 17 12 21.28 12 26.6v8.42A3.01 3.01 0 0 0 14.6 38c1.46 0 2.4-1.16 2.4-2.81v-8.6c0-2.38 1.73-4.59 4.26-4.59C23.7 22 25 24.08 25 26.43v8.59c0 1.5 1.3 2.98 2.76 2.98h.32c1.46 0 2.92-1.65 2.92-2.98v-8.59c0-2.3 1.21-4.43 3.58-4.43 2.45 0 3.42 2.07 3.42 4.43v8.59c0 1.5 1.78 2.98 3.24 2.98C42.7 38 44 36.35 44 34.86v-8.27Z" fill="#8DC63F"/></svg>