<?xml version='1.0' encoding='utf-8'?>
<!-- by TradeStack -->
<svg width="56" height="56" viewBox="0 0 56 56" xmlns="http://www.w3.org/2000/svg"><path fill="#232645" d="M0 0h56v56H0z" /><path d="M8.5 25c-.55 0-1.05.25-1.27.65l-2.08 3.94c-.37.66-.04 1.4.89 1.4l2.2-3.8c.1-.2.42-.2.54-.01L11 31H13l-3.23-5.36c-.22-.39-.72-.64-1.27-.64Z" fill="#FAFAFC" /><path d="M9.5 30h-2l.79-.9c.12-.13.3-.13.42 0l.79.9Z" fill="#D52323" /><path d="M26.54 30.35c.19.4.6.65 1.06.65.46 0 .88-.25 1.06-.65l.34-.7.33.7c.19.4.6.65 1.06.65.46 0 .87-.25 1.06-.64L34 25h-1.8l-1.62 3.95a.2.2 0 0 1-.37 0l-.4-.99L31.2 25h-1.8l-.42.99-.4-.99h-1.8l1.39 2.93-.39.92a.2.2 0 0 1-.37 0L25.8 25H24l2.54 5.35ZM46.5 25H45v4.71c0 .69.5 1.29 1.5 1.29H51c.8 0 1-1.21 1-1.5h-5.5V25ZM43 26.5V25h-6c-1.75 0-2 1.75-2 2.25v1.5c0 1.8 1.27 2.25 2 2.25h6v-1.5h-5.5c-1 0-1-.5-1-.75H42v-1.5h-5.5c0-.6.5-.75 1-.75H43ZM16.5 25H15v6h1.5v-2.25h1.61c.15 0 .29.05.4.15L21 31h2l-3.33-3 2.83-3h-2l-1.97 2.03a.63.63 0 0 1-.47.22H16.5V25Z" fill="#FAFAFC" /></svg>