<?xml version='1.0' encoding='utf-8'?>
<!-- by TradeStack -->
<svg width="56" height="56" viewBox="0 0 56 56" xmlns="http://www.w3.org/2000/svg"><path fill="#F0F3FA" d="M0 0h56v56H0z" /><path d="M12 20.71A5.6 5.6 0 0 1 17.5 15a5.6 5.6 0 0 1 5.5 5.71V36.3A5.6 5.6 0 0 1 17.5 42a5.6 5.6 0 0 1-5.5-5.71V20.7Z" fill="url(#as2owshcn)" /><path d="M33 20.71A5.6 5.6 0 0 1 38.5 15a5.6 5.6 0 0 1 5.5 5.71V36.3A5.6 5.6 0 0 1 38.5 42a5.6 5.6 0 0 1-5.5-5.71V20.7Z" fill="url(#bs2owshcn)" /><path d="M13.38 23.58a5.87 5.87 0 0 1 .6-8.17 5.6 5.6 0 0 1 8 .6L32.1 27.97a5.87 5.87 0 0 1-.59 8.17 5.6 5.6 0 0 1-8-.6L13.38 23.58Z" fill="url(#cs2owshcn)" /><path d="M42.74 23.88a5.87 5.87 0 0 0-.96-8.13 5.6 5.6 0 0 0-7.97.99l-9.55 12.43a5.87 5.87 0 0 0 .96 8.13 5.6 5.6 0 0 0 7.97-.98l9.55-12.44Z" fill="url(#ds2owshcn)" /><defs><linearGradient id="as2owshcn" x1="17.5" y1="15" x2="17.5" y2="42" gradientUnits="userSpaceOnUse"><stop stop-color="#249DE4" /><stop offset="1" stop-color="#0858D2" /></linearGradient><linearGradient id="bs2owshcn" x1="38.5" y1="15" x2="38.5" y2="42" gradientUnits="userSpaceOnUse"><stop offset=".26" stop-color="#FE535D" /><stop offset=".49" stop-color="#FF7350" /><stop offset="1" stop-color="#FEDB2F" /></linearGradient><linearGradient id="cs2owshcn" x1="14.74" y1="16.51" x2="32.84" y2="34.41" gradientUnits="userSpaceOnUse"><stop stop-color="#C0E703" /><stop offset="1" stop-color="#7ED72B" /></linearGradient><linearGradient id="ds2owshcn" x1="38.84" y1="16.72" x2="26.1" y2="35.97" gradientUnits="userSpaceOnUse"><stop stop-color="#840A6C" /><stop offset="1" stop-color="#A379DD" /></linearGradient></defs></svg>