<!-- by TradeStack --><svg width="56" height="56" viewBox="0 0 56 56" fill="none" xmlns="http://www.w3.org/2000/svg">
<rect width="56" height="56" fill="url(#paint0_linear_229_20172)"/>
<path d="M21.6219 11L18.71 17.5656L26.388 38.069L26.6951 37.9544L25.5809 35H31.1958L35.6457 46L35.9527 45.885L21.6219 11Z" fill="url(#paint1_linear_229_20172)"/>
<path d="M15.5965 25.6555L12 35H18.6165L22.8892 46L23.1962 45.885L15.5965 25.6555Z" fill="url(#paint2_linear_229_20172)"/>
<path d="M26.0786 39.796L18.4946 19.6878L18.1875 19.8024L25.7714 39.9106L26.0786 39.796Z" fill="url(#paint3_linear_229_20172)"/>
<path d="M25.4385 41.42L17.8915 21.2759L17.5841 21.3899L25.1312 41.5339L25.4385 41.42Z" fill="url(#paint4_linear_229_20172)"/>
<path d="M24.8355 43.0075L17.2516 23L16.9444 23.1146L24.5284 43.1221L24.8355 43.0075Z" fill="url(#paint5_linear_229_20172)"/>
<path d="M24.2321 44.5953L16.6482 24.487L16.341 24.6016L23.925 44.7099L24.2321 44.5953Z" fill="url(#paint6_linear_229_20172)"/>
<path d="M44 35L34.3781 11L31.4663 17.5657L39.1442 38.069L39.4514 37.9544L38.3371 35H44Z" fill="url(#paint7_linear_229_20172)"/>
<path d="M38.8348 39.796L31.2508 19.6878L30.9437 19.8024L38.5277 39.9106L38.8348 39.796Z" fill="url(#paint8_linear_229_20172)"/>
<path d="M38.195 41.42L30.6479 21.2759L30.3406 21.3899L37.8876 41.5339L38.195 41.42Z" fill="url(#paint9_linear_229_20172)"/>
<path d="M37.5917 43.0075L30.0078 23L29.7007 23.1146L37.2846 43.1221L37.5917 43.0075Z" fill="url(#paint10_linear_229_20172)"/>
<path d="M36.9887 44.5953L29.2662 24.6016L28.9591 24.7162L36.6816 44.7099L36.9887 44.5953Z" fill="url(#paint11_linear_229_20172)"/>
<defs>
<linearGradient id="paint0_linear_229_20172" x1="10.4178" y1="9.71163" x2="68.1465" y2="76.0166" gradientUnits="userSpaceOnUse">
<stop stop-color="#1A1E21"/>
<stop offset="1" stop-color="#06060A"/>
</linearGradient>
<linearGradient id="paint1_linear_229_20172" x1="28" y1="11" x2="28" y2="46" gradientUnits="userSpaceOnUse">
<stop offset="0.156844" stop-color="#A8802E"/>
<stop offset="0.544299" stop-color="#F9F1CD"/>
<stop offset="1" stop-color="#A8802E"/>
</linearGradient>
<linearGradient id="paint2_linear_229_20172" x1="28" y1="11" x2="28" y2="46" gradientUnits="userSpaceOnUse">
<stop offset="0.156844" stop-color="#A8802E"/>
<stop offset="0.544299" stop-color="#F9F1CD"/>
<stop offset="1" stop-color="#A8802E"/>
</linearGradient>
<linearGradient id="paint3_linear_229_20172" x1="28" y1="11" x2="28" y2="46" gradientUnits="userSpaceOnUse">
<stop offset="0.156844" stop-color="#A8802E"/>
<stop offset="0.544299" stop-color="#F9F1CD"/>
<stop offset="1" stop-color="#A8802E"/>
</linearGradient>
<linearGradient id="paint4_linear_229_20172" x1="28" y1="11" x2="28" y2="46" gradientUnits="userSpaceOnUse">
<stop offset="0.156844" stop-color="#A8802E"/>
<stop offset="0.544299" stop-color="#F9F1CD"/>
<stop offset="1" stop-color="#A8802E"/>
</linearGradient>
<linearGradient id="paint5_linear_229_20172" x1="28" y1="11" x2="28" y2="46" gradientUnits="userSpaceOnUse">
<stop offset="0.156844" stop-color="#A8802E"/>
<stop offset="0.544299" stop-color="#F9F1CD"/>
<stop offset="1" stop-color="#A8802E"/>
</linearGradient>
<linearGradient id="paint6_linear_229_20172" x1="28" y1="11" x2="28" y2="46" gradientUnits="userSpaceOnUse">
<stop offset="0.156844" stop-color="#A8802E"/>
<stop offset="0.544299" stop-color="#F9F1CD"/>
<stop offset="1" stop-color="#A8802E"/>
</linearGradient>
<linearGradient id="paint7_linear_229_20172" x1="28" y1="11" x2="28" y2="46" gradientUnits="userSpaceOnUse">
<stop offset="0.156844" stop-color="#A8802E"/>
<stop offset="0.544299" stop-color="#F9F1CD"/>
<stop offset="1" stop-color="#A8802E"/>
</linearGradient>
<linearGradient id="paint8_linear_229_20172" x1="28" y1="11" x2="28" y2="46" gradientUnits="userSpaceOnUse">
<stop offset="0.156844" stop-color="#A8802E"/>
<stop offset="0.544299" stop-color="#F9F1CD"/>
<stop offset="1" stop-color="#A8802E"/>
</linearGradient>
<linearGradient id="paint9_linear_229_20172" x1="28" y1="11" x2="28" y2="46" gradientUnits="userSpaceOnUse">
<stop offset="0.156844" stop-color="#A8802E"/>
<stop offset="0.544299" stop-color="#F9F1CD"/>
<stop offset="1" stop-color="#A8802E"/>
</linearGradient>
<linearGradient id="paint10_linear_229_20172" x1="28" y1="11" x2="28" y2="46" gradientUnits="userSpaceOnUse">
<stop offset="0.156844" stop-color="#A8802E"/>
<stop offset="0.544299" stop-color="#F9F1CD"/>
<stop offset="1" stop-color="#A8802E"/>
</linearGradient>
<linearGradient id="paint11_linear_229_20172" x1="28" y1="11" x2="28" y2="46" gradientUnits="userSpaceOnUse">
<stop offset="0.156844" stop-color="#A8802E"/>
<stop offset="0.544299" stop-color="#F9F1CD"/>
<stop offset="1" stop-color="#A8802E"/>
</linearGradient>
</defs>
</svg>
