<!-- by TradeStack --><svg width="56" height="56" viewBox="0 0 56 56" xmlns="http://www.w3.org/2000/svg"><path fill="#F0F3FA" d="M0 0h56v56H0z"/><path d="M30.02 17.9a5.3 5.3 0 0 0-1.2-1.35c-.63-.5-1.14-.57-1.52-.19L12.82 30.92c-.06.06-.1.05-.15-.02a5.17 5.17 0 0 1-.67-2.72c.02-.95.25-1.86.7-2.72.25-.48.7-1.04 1.34-1.68l10.42-10.46a4.34 4.34 0 0 1 2.7-1.3 5.7 5.7 0 0 1 2.99.55 7.05 7.05 0 0 1 4.1 5.56 4.45 4.45 0 0 1-1.3 3.72c-.02.03-.05.03-.08 0l-2.81-2.82c-.05-.05-.05-.1-.02-.16.2-.31.2-.64-.02-.97Z" fill="#32425C"/><path d="M18.34 36.32a5.49 5.49 0 0 1-.58-3.56c.21-1.23.77-2.31 1.68-3.23l9.76-9.8c.03-.03.06-.03.08 0l2.85 2.86c.04.03.04.06 0 .1l-9.47 9.5c-.96.96-1.09 1.8-.37 2.52l3.01 3.02c.05.05.05.1 0 .14l-2.83 2.86c-.03.02-.05.02-.08 0-.83-.86-1.72-1.76-2.69-2.7a7.35 7.35 0 0 1-1.36-1.71Z" fill="#32425C"/><path d="m26.18 38.61.11.12c.58.62 1.02.98 1.33 1.08.5.17 1.03-.03 1.6-.6L43.2 25.16c.04-.04.07-.04.1.01.64 1.1.85 2.3.62 3.61a5.94 5.94 0 0 1-1.69 3.24c-3.04 3.05-6.23 6.26-9.56 9.63a9.45 9.45 0 0 1-1.95 1.63c-.95.5-1.96.74-3.02.7a5.02 5.02 0 0 1-2.9-.99c-.5-.38-1.03-.86-1.55-1.44-.04-.05-.04-.1 0-.14l2.8-2.8c.05-.06.1-.05.14 0Z" fill="#679A4A"/></svg>