<?xml version='1.0' encoding='utf-8'?>
<!-- by TradeStack -->
<svg width="56" height="56" viewBox="0 0 56 56" xmlns="http://www.w3.org/2000/svg"><path fill="#F0F3FA" d="M0 0h56v56H0z" /><path d="M4 25.13V33h2V23l4.87 10h2.26L18 23a3.8 3.8 0 0 0-3.4 2.17L12 30.43l-2.6-5.26A3.8 3.8 0 0 0 6 23c-1.1 0-2 .95-2 2.13Zm16 0V33h-2V23c1.1 0 2 .95 2 2.13Z" fill="url(#a)" /><path d="M23.27 33H21l3.68-7.8A3.7 3.7 0 0 1 28 23l-4.73 10Z" fill="#344E5E" /><path d="M45.27 33H43l3.68-7.8A3.7 3.7 0 0 1 50 23l-4.73 10Z" fill="url(#b)" /><path d="M28 33V23c1.1 0 2 .92 2 2.07V33h-2Z" fill="url(#c)" /><path d="M50 33V23c1.1 0 2 .92 2 2.07V33h-2Z" fill="url(#d)" /><path d="M32 23h2v4h6v-4h2v10h-2v-4h-6v4h-2V23Z" fill="url(#e)" /><defs><linearGradient id="a" x1="4.55" y1="30" x2="19.25" y2="32.93" gradientUnits="userSpaceOnUse"><stop stop-color="#284D64" /><stop offset="1" stop-color="#2D7F76" /></linearGradient><linearGradient id="b" x1="46.5" y1="23" x2="46.5" y2="33" gradientUnits="userSpaceOnUse"><stop stop-color="#319D80" /><stop offset="1" stop-color="#35C28E" /></linearGradient><linearGradient id="c" x1="29" y1="23" x2="29" y2="33" gradientUnits="userSpaceOnUse"><stop stop-color="#30937D" /><stop offset="1" stop-color="#31A583" /></linearGradient><linearGradient id="d" x1="51" y1="23" x2="51" y2="33" gradientUnits="userSpaceOnUse"><stop stop-color="#36D394" /><stop offset="1" stop-color="#38E098" /></linearGradient><linearGradient id="e" x1="32.17" y1="28" x2="41.27" y2="28.67" gradientUnits="userSpaceOnUse"><stop stop-color="#2C7472" /><stop offset="1" stop-color="#319F81" /></linearGradient></defs></svg>