<!-- by TradeStack --><svg width="56" height="56" viewBox="0 0 56 56" fill="none" xmlns="http://www.w3.org/2000/svg">
<rect width="56" height="56" fill="#F0F3FA"/>
<path d="M16.7848 23.8243C16.4887 24.5958 16.2868 25.3503 16.1791 26.0878C14.918 34.1736 21.7468 40.9626 29.7964 39.8394C30.489 39.764 31.2656 39.5621 32.1259 39.2336C34.3023 38.4455 36.1075 37.1204 37.5415 35.2581C40.3727 31.5832 40.7346 26.9198 38.7699 22.6887C38.7492 22.6442 38.7544 22.6029 38.7855 22.5647L41.3822 19.2802C41.3853 19.276 41.3894 19.2727 41.3942 19.2706C41.3989 19.2684 41.4042 19.2674 41.4095 19.2677C41.4148 19.268 41.4201 19.2696 41.4248 19.2723C41.4295 19.275 41.4335 19.2788 41.4365 19.2833C42.8457 21.4224 43.6802 23.768 43.9401 26.3202C44.0535 27.4326 44.0038 29.4544 43.8096 30.7047C42.9073 36.5161 38.5199 41.4631 32.9584 43.2231C24.8095 45.8026 16.3127 41.7729 13.0947 33.8901C11.5588 30.1284 11.6737 25.5703 13.2221 21.8396C15.3249 16.7765 19.8428 13.3138 25.176 12.2727C29.2606 11.4764 33.4864 12.4617 36.9498 14.7361C36.9575 14.7411 36.964 14.7478 36.9687 14.7557C36.9734 14.7637 36.9762 14.7726 36.9768 14.7818C36.9774 14.791 36.9758 14.8002 36.9722 14.8087C36.9686 14.8171 36.963 14.8247 36.956 14.8306L33.9306 17.5217C33.8944 17.5538 33.855 17.5584 33.8126 17.5357C27.2338 14.0668 19.5073 16.9562 16.7848 23.8243Z" fill="#131114"/>
<path d="M40.6431 14.5099L43.0954 13.2162C43.1048 13.2109 43.1156 13.2088 43.1263 13.2102C43.137 13.2115 43.147 13.2163 43.1547 13.2239C43.1624 13.2314 43.1675 13.2412 43.1691 13.2519C43.1707 13.2625 43.1688 13.2734 43.1637 13.2829L41.839 15.7168C41.8352 15.7233 41.83 15.7289 41.8237 15.7332C41.8174 15.7374 41.8103 15.7401 41.8028 15.7412C41.7953 15.7422 41.7877 15.7415 41.7805 15.7392C41.7733 15.7369 41.7667 15.7329 41.7613 15.7277L40.6307 14.5889C40.6252 14.5834 40.621 14.5767 40.6186 14.5693C40.6162 14.5618 40.6156 14.554 40.6168 14.5463C40.618 14.5386 40.621 14.5313 40.6256 14.525C40.6302 14.5186 40.6362 14.5135 40.6431 14.5099Z" fill="#131114"/>
<path d="M26.9201 34.0357C26.7027 36.51 28.2993 38.1863 29.7964 39.8394C21.7469 40.9626 14.9181 34.1736 16.1792 26.0878C17.681 27.9516 19.8164 29.6078 22.3619 29.4297C24.7676 29.377 27.6252 27.3598 29.5122 25.795C32.9693 22.9267 36.3099 19.9268 39.5341 16.7951C39.5374 16.7933 39.5411 16.7926 39.5448 16.7931C39.5485 16.7936 39.552 16.7953 39.5546 16.7979C39.5573 16.8005 39.559 16.804 39.5595 16.8077C39.56 16.8114 39.5592 16.8151 39.5574 16.8184C38.2808 18.2045 37.0021 19.5813 35.7213 20.9488C33.8287 22.9712 32.0085 25.056 30.2608 27.2033C29.1157 28.6101 28.1957 30.054 27.501 31.5352C27.1148 32.3573 26.9212 33.1908 26.9201 34.0357Z" fill="#CBA43E"/>
<path d="M16.7844 23.8243L22.3614 29.4296C19.816 29.6078 17.6805 27.9516 16.1787 26.0878C16.2864 25.3503 16.4883 24.5958 16.7844 23.8243Z" fill="#DBC9A7"/>
<path d="M26.9204 34.0357C28.7488 35.7317 30.4841 37.4643 32.1262 39.2336C31.2658 39.5621 30.4893 39.764 29.7966 39.8394C28.2995 38.1863 26.7029 36.5099 26.9204 34.0357Z" fill="#DBC9A7"/>
</svg>
