<?xml version='1.0' encoding='utf-8'?>
<!-- by TradeStack -->
<svg width="56" height="56" viewBox="0 0 56 56" xmlns="http://www.w3.org/2000/svg"><path fill="#F0F3FA" d="M0 0h56v56H0z" /><path d="M30.3 9.1a.12.12 0 0 1 .1-.1.12.12 0 0 1 .13.07c.82 1.79.57 3.44-.74 4.94-.87 1-1.76 1.81-2.68 2.45a7.86 7.86 0 0 0-3.33 4.5.16.16 0 0 1-.15.11.16.16 0 0 1-.16-.1c-1.68-4.1 1.6-6.73 4.7-8.65A4.31 4.31 0 0 0 30.3 9.1ZM30.3 18a.12.12 0 0 1 .1-.1.12.12 0 0 1 .12.06 4.3 4.3 0 0 1-.73 4.97c-.87 1-1.76 1.82-2.7 2.47a7.89 7.89 0 0 0-3.32 4.52.16.16 0 0 1-.24.09.15.15 0 0 1-.07-.08c-1.7-4.12 1.6-6.76 4.7-8.7A4.33 4.33 0 0 0 30.3 18Z" fill="#EF4036" /><path d="M26.43 21.4a.07.07 0 0 1 .01.06.07.07 0 0 1-.03.05l-1.69 1.39a.2.2 0 0 1-.25 0 .2.2 0 0 1-.06-.07c-.53-1.12-.27-2.02.48-3.03a.11.11 0 0 1 .1-.05.11.11 0 0 1 .08.04l1.36 1.61ZM29.41 27.93a.1.1 0 0 1-.06.04.1.1 0 0 1-.08-.01l-2.02-1.56a.1.1 0 0 1-.04-.08.1.1 0 0 1 .04-.08L28.77 25a.64.64 0 0 1 1.02.32c.26 1 .13 1.88-.38 2.62Z" fill="#262262" /><path d="M30.29 26.9a.12.12 0 0 1 .1-.1.12.12 0 0 1 .13.07 4.3 4.3 0 0 1-.73 4.98c-.86 1-1.76 1.82-2.69 2.47a7.9 7.9 0 0 0-3.33 4.54.16.16 0 0 1-.3.02c-1.71-4.13 1.58-6.78 4.7-8.73a4.34 4.34 0 0 0 2.12-3.25Z" fill="#EF4036" /><path d="M26.43 30.31v.03l.01.02v.03l-.03.03-1.7 1.38a.2.2 0 0 1-.17.04.2.2 0 0 1-.13-.11c-.53-1.12-.26-2.02.49-3.02a.11.11 0 0 1 .09-.05.11.11 0 0 1 .09.04l1.35 1.61ZM30.27 39.14c-.2-1.8-1.57-2.95-3.11-3.78 0 0-.02 0-.02-.02a.06.06 0 0 1 0-.06l.01-.02 1.92-1.58a.1.1 0 0 1 .13 0c1.77 1.64 2.23 3.48 1.37 5.5a.16.16 0 0 1-.26.05.16.16 0 0 1-.04-.1ZM24.89 37.64a.11.11 0 0 1 .1-.05.11.11 0 0 1 .1.05c.2.37.5.7.89 1 2.3 1.78 6.43 4.53 4.54 8.3a.12.12 0 0 1-.05.05.12.12 0 0 1-.08 0 .13.13 0 0 1-.1-.1 4.7 4.7 0 0 0-2.2-3.26 24.62 24.62 0 0 1-3.68-2.86c-.76-.73.01-2.42.48-3.13Z" fill="#262262" /></svg>