<?xml version='1.0' encoding='utf-8'?>
<!-- by TradeStack -->
<svg width="56" height="56" viewBox="0 0 56 56" xmlns="http://www.w3.org/2000/svg"><path fill="#F0F3FA" d="M0 0h56v56H0z" /><path fill-rule="evenodd" d="M41.5 24.5c0 6.78-5 12.39-11.5 13.35v5.31c2.3.38 4.2 1.32 5 1.84H21c.8-.52 2.7-1.45 5-1.83v-5.32A13.5 13.5 0 1 1 41.5 24.5Zm-10.64 5.29L29.5 33.7v-6.54l1.36 2.62Zm2.92-8.45 1.74-5.04.1.03a11.2 11.2 0 0 0-3.4-2.2l1.56 7.2Zm-.91 2.63L31.5 27.9l-2-3.9V13.4c.39.05.76.12 1.14.21l2.23 10.35Zm5.49 4.9a11.26 11.26 0 0 1-6.97 6.48l.88-2.55 6.09-3.93Zm.63-2.14a11.43 11.43 0 0 0 .07-3.87l-5.6 6.48-.42 1.22L39 26.73Zm-.35-5.61-3.89 4.5 2.54-7.33c.58.87 1.04 1.82 1.37 2.84l-.02-.01ZM24.57 35.33a11.27 11.27 0 0 1-7.36-7.71l6.1 4.07 1.26 3.64Zm-7.67-9.68-.04.06a11.53 11.53 0 0 1 .18-3.43L21.68 27l.84 2.42-5.62-3.76Zm3.68-1.85-1.9-5.47a11 11 0 0 0-1.18 2.35l3.08 3.12Zm5.92 10.02-2.2-6.35 2.2-4.24v10.59Zm0-13.75-2.85 5.5-.8-2.3 2.03-9.52a11.1 11.1 0 0 1 1.62-.34v6.66Zm-6.1-3.76a11.2 11.2 0 0 1 2.87-1.95l-1.34 6.26-1.5-4.32-.04.01Z" fill="#B3B4B3" /></svg>