<!-- by TradeStack --><svg width="56" height="56" viewBox="0 0 56 56" fill="none" xmlns="http://www.w3.org/2000/svg">
<rect width="56" height="56" fill="#003A5F"/>
<path fill-rule="evenodd" clip-rule="evenodd" d="M21.5 42.4931H34.5V39.5069H21.5V42.4931ZM20 44H36V38H20V44Z" fill="#F0F3FA"/>
<path fill-rule="evenodd" clip-rule="evenodd" d="M28 22L33 27L28 32L23 27L28 22ZM31.0716 27L28 23.9284L24.9284 27L28 30.0716L31.0716 27Z" fill="#F0F3FA"/>
<path fill-rule="evenodd" clip-rule="evenodd" d="M24.1026 20.014L18 14L15 17L21.0141 23.1026L24.1026 20.014ZM26 20.014L17.986 12L13 16.986L21.0141 25L26 20.014Z" fill="#F0F3FA"/>
<path fill-rule="evenodd" clip-rule="evenodd" d="M31.8974 33.986L38 40L41 37L34.9859 30.8974L31.8974 33.986ZM30 33.986L38.014 42L43 37.014L34.9859 29L30 33.986Z" fill="#F0F3FA"/>
<path fill-rule="evenodd" clip-rule="evenodd" d="M31.8974 20.014L38 14L41 17L34.9859 23.1026L31.8974 20.014ZM30 20.014L38.014 12L43 16.986L34.9859 25L30 20.014Z" fill="#F0F3FA"/>
<path fill-rule="evenodd" clip-rule="evenodd" d="M24.1026 33.986L18 40L15 37L21.0141 30.8974L24.1026 33.986ZM26 33.986L17.986 42L13 37.014L21.0141 29L26 33.986Z" fill="#F0F3FA"/>
<path fill-rule="evenodd" clip-rule="evenodd" d="M18 12L21.5 15.5L16.5 20.5L13 17L18 12ZM19.5 15.5L18 14L15 17L16.5 18.5L19.5 15.5Z" fill="#F0F3FA"/>
<path fill-rule="evenodd" clip-rule="evenodd" d="M38 42L34.5 38.5L39.5 33.5L43 37L38 42ZM36.5 38.5L38 40L41 37L39.5 35.5L36.5 38.5Z" fill="#F0F3FA"/>
<path fill-rule="evenodd" clip-rule="evenodd" d="M22.5 16.5L26 20L21 25L17.5 21.5L22.5 16.5ZM24 20L22.5 18.5L19.5 21.5L21 23L24 20Z" fill="#F0F3FA"/>
<path fill-rule="evenodd" clip-rule="evenodd" d="M33.5 37.5L30 34L35 29L38.5 32.5L33.5 37.5ZM32 34L33.5 35.5L36.5 32.5L35 31L32 34Z" fill="#F0F3FA"/>
<path fill-rule="evenodd" clip-rule="evenodd" d="M38 12L34.5 15.5L39.5 20.5L43 17L38 12ZM36.5 15.5L38 14L41 17L39.5 18.5L36.5 15.5Z" fill="#F0F3FA"/>
<path fill-rule="evenodd" clip-rule="evenodd" d="M18 42L21.5 38.5L16.5 33.5L13 37L18 42ZM19.5 38.5L18 40L15 37L16.5 35.5L19.5 38.5Z" fill="#F0F3FA"/>
<path fill-rule="evenodd" clip-rule="evenodd" d="M33.5 16.5L30 20L35 25L38.5 21.5L33.5 16.5ZM32 20L33.5 18.5L36.5 21.5L35 23L32 20Z" fill="#F0F3FA"/>
<path fill-rule="evenodd" clip-rule="evenodd" d="M22.5 37.5L26 34L21 29L17.5 32.5L22.5 37.5ZM24 34L22.5 35.5L19.5 32.5L21 31L24 34Z" fill="#F0F3FA"/>
<path d="M23 30.986L31.9954 22.0001L33 23.0142L24.0046 32.0001L23 30.986Z" fill="#F0F3FA"/>
<path d="M31.9859 32L23 23.0046L24.0141 22L33 30.9954L31.9859 32Z" fill="#F0F3FA"/>
<path fill-rule="evenodd" clip-rule="evenodd" d="M34.5 39V42.5H21.5V39H20V43.9999H36V39H34.5ZM34.5 31H36V24.6459L28 17L20 24.5V31H21.5V25.0691L28 19L34.5 25.215V31Z" fill="#F0F3FA"/>
</svg>
