<!-- by TradeStack --><svg width="56" height="56" viewBox="0 0 56 56" xmlns="http://www.w3.org/2000/svg"><path fill="#101621" d="M0 0h56v56H0z"/><path d="M8 38V18h4v7h1v-7h4v20h-4V28h-1v10H8Zm10-20v3h3v17h4V21h3v-3H18Zm10 16.97V30h4v4.63c0 .42.45.76.88.76.44 0 1.12-.34 1.12-.76V32.8c0-2.24-2.5-4.02-4.02-5.1-.36-.25-.67-.47-.87-.65A3.06 3.06 0 0 1 28 25.22V21.6c0-.27 0-3.6 4.84-3.6 3.87 0 5.11 2.16 5.16 3.24v3.9h-4v-3.59c0-.42-.68-.76-1.12-.76-.43 0-.88.34-.88.76v1.33c0 1.66 1.74 3 3.7 4.23 1.56 1 2.18 3.37 2.3 4.43v2.73c0 .8-.14 3.73-4.95 3.73-3.86 0-4.97-2.02-5.05-3.03ZM39 22.5a4.5 4.5 0 1 1 9 0V25h-4v-3.3c0-.39-.22-.7-.5-.7s-.5.31-.5.7v12.6c0 .39.22.7.5.7s.5-.31.5-.7V30h4v3.5a4.5 4.5 0 1 1-9 0v-11Z" fill="#fff"/></svg>