<!-- by TradeStack --><svg width="56" height="56" viewBox="0 0 56 56" fill="none" xmlns="http://www.w3.org/2000/svg">
<rect width="56" height="56" fill="#F0F3FA"/>
<path fill-rule="evenodd" clip-rule="evenodd" d="M4 33L9.24292 22L15.2302 33H14.4211L12.6411 29.7607L11.0553 33H4ZM15.5016 33H16.5902L10.8256 22L15.5016 33ZM17.8767 33H16.8376L12.0626 22L17.8767 33ZM18.1488 33H19.1632L13.3244 22L18.1488 33ZM20.4497 33H19.4353L14.6109 22L20.4497 33ZM20.7219 33H21.761L15.8974 22L20.7219 33ZM18.4952 25.2294L22.0579 33L23.666 29.7607L25.67 33H26.2391L20.2271 22L18.4952 25.2294ZM26.5112 33H27.5008L21.761 22L26.5112 33ZM28.8616 33H27.8472L22.9641 22L28.8616 33ZM29.0842 33H30.1481L24.2351 22L29.0842 33ZM31.4346 33H30.3708L25.5216 22L31.4346 33ZM31.7068 33H32.7706L26.7834 22L31.7068 33ZM33.3773 30.5595V33H33.0206L28.2409 22H49V23H48.5429V33H48V26H47V33H46V28H45V33H41.6883C43.2007 32.5128 43.6501 31.17 43.6858 30.5595C43.6146 28.7287 41.5068 27.8196 39.8097 27.0876C38.9558 26.7193 38.2059 26.3959 37.8717 26.0225C36.8729 24.9068 37.8717 24.163 39.5125 24.1258C40.8251 24.0961 42.4611 24.8491 43.1151 25.2294V23.7539C38.3354 22.2785 33.7696 22.8986 33.5556 25.5762C33.3659 27.9496 35.8665 29.0373 37.555 29.7719L37.5551 29.7719L37.5553 29.772L37.556 29.7723C37.7721 29.8663 37.9749 29.9545 38.157 30.0389C39.7621 30.7827 39.6908 32.419 37.622 32.6421C35.9669 32.8206 34.3641 31.3281 33.7696 30.5595H33.3773ZM49.4285 25.0025H50V33H49.4285V25.0025ZM51 28H50.4285V33H51V28Z" fill="#0E2C8E"/>
</svg>
