<!-- by TradeStack --><svg width="56" height="56" viewBox="0 0 56 56" xmlns="http://www.w3.org/2000/svg"><path fill="#F0F3FA" d="M0 0h56v56H0z"/><path d="M34.92 20.72C19.88 10.45 5.67 23.62 6 34h4.23c.44-7.01 6-19.49 24.68-13.28Z" fill="#B69100"/><path fill-rule="evenodd" d="M16 24v6h1v-4.28l3.03 3.4 2.97-3.4V30h1v-6h-1.2l-2.77 3.73L17.04 24H16Zm8.98 3h1v3h-1v-3ZM32 27h1v2.5h2v.5h-3v-3Zm-5 3v-3h2.23c.59.01 1.77.33 1.77 1.52C31 29.7 29.82 30 29.23 30H27Zm1-.5v-2h1.11c.3 0 .89.22.89 1.01 0 .8-.59.99-.89.99H28ZM46 27v3h2.23c.59 0 1.77-.3 1.77-1.48 0-1.19-1.18-1.5-1.77-1.52H46Zm1 .5v2h1.12c.29 0 .88-.2.88-.99s-.59-1-.88-1.01H47ZM36 30h.98l.25-.5h1.82l.26.5h1l-1.69-3h-1.08L36 30Zm2.8-1-.67-1.31-.65 1.31h1.32Zm2.2 1v-3h.94L44 28.82V27h1v3h-.92L42 28.15V30h-1Zm-15-5a.5.5 0 1 1-1 0 .5.5 0 0 1 1 0Zm-.49 1h.06v-.18h-.06a.83.83 0 0 1-.83-.82.83.83 0 0 1 1.64-.2h.18a1 1 0 0 0-.99-.8 1 1 0 0 0-1.01 1 1 1 0 0 0 1.01 1Z" fill="#0E2843"/><path fill="#0E2843" d="M24.98 31H51v3H24.98z"/><path opacity=".7" fill="#fff" d="M26 32h24v1H26z"/></svg>