<!-- by TradeStack --><svg width="56" height="56" viewBox="0 0 56 56" xmlns="http://www.w3.org/2000/svg"><path fill="#F0F3FA" d="M0 0h56v56H0z"/><path d="M28.94 16.4a1.78 1.78 0 0 0-.39-.22 2.27 2.27 0 0 0-.9-.18c-.96 0-1.96.49-2.7 1.23-.25-.74-.93-1.23-1.88-1.23-.94 0-1.92.47-2.66 1.19l.34-1.19h-3.58l-2.6 8h3.65l1.46-4.37c.1-.3.43-.55.73-.55s.47.25.36.55L19.32 24h3.66l1.45-4.37c.1-.3.43-.55.74-.55.3 0 .46.25.36.55L24.07 24h3.65l.8-2.9-2.07 2.73 1.83-2.93-2.52 1.78 2.43-2.14-2.47.47 2.54-.92-1.92-.93 2.15.48-1-2.14 1.34 1.78.11-2.87Z" fill="#037DC8"/><path d="m29.54 18.97 2.08-2.8-1.83 3 2.52-1.81-2.43 2.18 2.47-.48-2.55.94 1.93.95-2.15-.49 1 2.19-1.34-1.82-.12 3-.25-2.8L27.74 24h3.76l2.61-8h-3.76l-.8 2.97ZM31.43 13l-.87 2.56h3.77l.88-2.56h-3.78Z" fill="#A8A9AE"/><path d="M42.37 21.04c-.59 0-.9-.47-.7-1.05.19-.57.82-1.04 1.4-1.04.33 0 .57.14.69.37L47 18.6c-.05-1.52-1.17-2.6-2.92-2.6a6.18 6.18 0 0 0-5.41 4c-.76 2.2.45 4 2.69 4 1.74 0 3.6-1.09 4.69-2.6l-2.76-.73c-.27.23-.6.37-.92.37Z" fill="#037DC8"/><path d="m32.9 20.84.2.15c.41.31 1.04.7 1.68.7.25 0 .6-.13.7-.41.15-.42-.3-.44-.6-.48-1.2-.17-2.2-.68-1.7-2.12.65-1.92 2.87-2.68 4.54-2.68.97 0 2.1.19 2.8.65l-1.65 2.12c-.37-.35-.91-.64-1.53-.64-.23 0-.56.08-.66.35-.12.37.28.4.77.49 1.28.22 2.21.68 1.69 2.22-.68 1.99-2.96 2.81-4.72 2.81-1.23 0-2.3-.38-3.26-.85l1.75-2.3ZM28.96 16.39l.25 2.6.42-1.06c.03-.65-.22-1.2-.67-1.54Z" fill="#037DC8"/><path d="M20.22 27.88c-4.5 4.4-6.94 2.76-8 1.38l-1.55 2.1 1.25 2.05 4.33.72 5-2.77 8.22-.86c5.58 1.48 9.5 1.06 11.27 0l1.46-5.06c-5.44 8-10.61 4.64-11.77 3.98-.66-.38-5.18-6.45-10.2-1.54Z" fill="url(#aliitzsrh)"/><path d="M20.35 29.58c-4.5 4.4-6.74 3.08-7.8 1.7L11 33.37l1.26 2.05 4.33.72 4.99-2.77 8.23-.86C35.37 34 40.23 29.77 42 28.71l1.03-3.63c-5 6.91-10.59 4.7-11.75 4.04-.66-.37-5.65-4.7-10.93.46Z" fill="url(#bliitzsrh)"/><path d="M20.47 31.86c-3.81 5.04-6.86 3.54-7.91 2.15l-1.57 2.1 1.26 2.06 4.33.72 4.7-3.63 8.19-5.3c5.57 1.47 11.33-.74 13.1-1.8l1.29-3.45c-5 6.9-12.08 4.63-12.74 4.25h-.01c-.7-.4-5.9-3.37-10.64 2.9Z" fill="url(#cliitzsrh)"/><path d="M11.02 34.69 9 41h30.73l5.9-17.8c-5.37 7.81-11.58 7.27-14 6.03-1.8-.92-6.55-1.13-11.14 5.46-4.6 6.59-8.23 2.74-9.47 0Z" fill="#037DC8"/><defs><linearGradient id="aliitzsrh" x1="11.31" y1="30.39" x2="41.78" y2="30.39" gradientUnits="userSpaceOnUse"><stop offset=".08" stop-color="#F0F3FA"/><stop offset=".48" stop-color="#2E8FCC"/><stop offset=".76" stop-color="#037DC8"/><stop offset="1" stop-color="#D4E4F3"/></linearGradient><linearGradient id="bliitzsrh" x1="10.99" y1="33.14" x2="41.51" y2="32.74" gradientUnits="userSpaceOnUse"><stop offset=".08" stop-color="#F0F3FA"/><stop offset=".48" stop-color="#1586CC"/><stop offset=".75" stop-color="#037DC8"/><stop offset="1" stop-color="#6EB6E7"/></linearGradient><linearGradient id="cliitzsrh" x1="11.83" y1="35.9" x2="41.14" y2="34.71" gradientUnits="userSpaceOnUse"><stop offset=".07" stop-color="#F0F3FA"/><stop offset=".33" stop-color="#1F8FCE"/><stop offset=".49" stop-color="#1083C6"/><stop offset=".86" stop-color="#037DC8"/><stop offset="1" stop-color="#76B2DB"/></linearGradient></defs></svg>