<?xml version='1.0' encoding='utf-8'?>
<!-- by TradeStack -->
<svg width="56" height="56" viewBox="0 0 56 56" fill="none" xmlns="http://www.w3.org/2000/svg">
<rect width="56" height="56" fill="#F0F3FA" />
<path fill-rule="evenodd" clip-rule="evenodd" d="M28.9612 16.4705C29.015 16.5001 29.0144 16.5282 28.9592 16.555C27.9348 17.0501 26.9169 17.5861 25.9056 18.1629C21.3675 20.7524 17.422 26.3671 19.4656 32.0396C19.4774 32.0725 19.4784 32.1058 19.4686 32.1395C19.315 32.6411 18.5649 35.279 18.7618 35.62C18.7704 35.6349 18.7823 35.6473 18.7966 35.6563C18.8109 35.6653 18.827 35.6704 18.8435 35.6713C18.86 35.6723 18.8765 35.6689 18.8914 35.6616C18.9064 35.6542 18.9193 35.6431 18.9291 35.6293C19.3918 34.9776 19.7534 34.2679 20.0139 33.5002C20.0303 33.45 20.051 33.4483 20.0759 33.495C21.1263 35.4871 22.283 36.993 24.2114 38.1086C24.239 38.1244 24.2538 38.1487 24.2557 38.1817C24.3128 39.2591 24.6157 40.2524 25.1643 41.1616C25.1821 41.1911 25.1765 41.2145 25.1476 41.2316C23.6927 42.0976 22.242 42.9583 20.7955 43.8139C19.8656 44.364 19.2819 44.6737 19.0443 44.743C17.6848 45.1386 16.0015 44.0292 16.0015 42.4594C15.9995 32.9755 15.9995 23.4913 16.0015 14.0067C16.0015 13.4202 16.0484 12.9869 16.1422 12.7068C16.5547 11.4697 17.8896 10.6992 19.1181 11.1123C19.3531 11.1905 19.6254 11.3155 19.9352 11.4872C22.933 13.1414 25.9417 14.8025 28.9612 16.4705ZM36.1435 20.4382C36.1783 20.4533 36.2285 20.4787 36.2941 20.5145C39.0406 22.0135 41.7845 23.518 44.5257 25.0281C45.1131 25.3515 45.5292 25.7848 45.7739 26.328C46.2504 27.3848 45.9531 28.6404 45.077 29.3728C44.9989 29.438 44.5789 29.6986 43.8169 30.1546C42.1973 31.1235 40.5759 32.0852 38.953 33.0397C38.9275 33.0547 38.9063 33.0765 38.8915 33.1029C38.8766 33.1293 38.8686 33.1594 38.8683 33.1901C38.8664 35.8167 37.561 38.0612 35.2723 39.1324C35.2661 39.1353 35.2593 39.1359 35.2527 39.1342C35.2462 39.1324 35.2405 39.1283 35.2365 39.1227C35.2324 39.1171 35.2304 39.1101 35.2306 39.1031C35.2309 39.0961 35.2334 39.0893 35.2378 39.084C36.5392 37.4854 37.5975 35.7755 37.75 33.7906C37.7507 33.7829 37.7496 33.7752 37.7471 33.768C37.7445 33.7607 37.7405 33.7542 37.7352 33.7488C37.7299 33.7433 37.7236 33.7392 37.7166 33.7367C37.7097 33.7341 37.7023 33.7332 37.6949 33.734C37.1049 33.7944 36.5477 33.9489 36.0234 34.1975C35.594 34.401 35.1439 34.736 34.6749 35.085C33.5223 35.9428 32.2562 36.8852 30.9064 36.1669C30.5625 35.9843 30.2347 35.7958 29.923 35.6014C29.9139 35.5957 29.907 35.587 29.9032 35.5766C29.8995 35.5662 29.8992 35.5548 29.9023 35.5443C29.9055 35.5337 29.912 35.5245 29.9207 35.5183C29.9295 35.512 29.94 35.509 29.9506 35.5098C30.3607 35.542 30.7647 35.506 31.1624 35.4016C31.2145 35.3883 31.2628 35.362 31.3034 35.3251C31.3439 35.2882 31.3756 35.2417 31.3957 35.1894C31.6182 34.6136 31.2608 33.3498 31.0334 32.8893C30.7083 32.2312 30.1774 32.1915 29.4457 32.1367C29.3999 32.1333 29.3532 32.1298 29.3058 32.1261C28.5347 32.0657 27.7662 32.0083 27.0003 31.9541C26.9923 31.9536 26.9843 31.9554 26.9772 31.9591C26.97 31.9628 26.9639 31.9685 26.9594 31.9754C26.955 31.9824 26.9523 31.9904 26.9517 31.9988C26.9511 32.0071 26.9526 32.0155 26.956 32.0231C27.3143 32.7819 27.7127 33.517 28.1511 34.2284C28.1533 34.2325 28.1542 34.2372 28.1536 34.2418C28.1531 34.2464 28.1511 34.2508 28.148 34.2541C28.1449 34.2575 28.1408 34.2597 28.1364 34.2605C28.132 34.2612 28.1275 34.2604 28.1235 34.2583C26.6597 33.3199 25.2077 31.5369 25.2845 29.6437C25.3859 27.1541 28.1491 24.9199 29.8364 23.5953C29.8758 23.5651 29.8902 23.5747 29.8797 23.6241C29.7261 24.3441 29.7035 24.9519 30.113 25.5606C30.1271 25.5817 30.1458 25.599 30.1676 25.6109C30.1894 25.6228 30.2137 25.6291 30.2383 25.6292C30.2629 25.6293 30.2871 25.6232 30.309 25.6115C30.3309 25.5997 30.3498 25.5826 30.364 25.5616C31.0525 24.5495 31.5164 23.4339 31.756 22.215C31.7692 22.1484 31.8071 22.0899 31.8613 22.0523C32.059 21.916 32.26 21.7785 32.4634 21.6393C35.0907 19.8417 38.1129 17.7738 39.456 14.7308C39.5111 14.6065 39.5745 14.2982 39.646 13.8058C39.6572 13.7255 39.6729 13.7244 39.6933 13.8027C40.3203 16.2017 37.7244 18.9941 36.1268 20.3157C36.1173 20.3233 36.11 20.3333 36.1055 20.3449C36.1011 20.3565 36.0996 20.3691 36.1013 20.3815C36.103 20.3939 36.1078 20.4057 36.1152 20.4156C36.1226 20.4256 36.1324 20.4334 36.1435 20.4382ZM35.1485 14.6623C35.1825 14.7888 34.9992 14.9533 34.7391 15.0298C34.479 15.1063 34.2407 15.0658 34.2067 14.9393C34.1727 14.8128 34.356 14.6482 34.616 14.5717C34.8761 14.4952 35.1145 14.5358 35.1485 14.6623ZM31.4537 16.3768C30.8965 19.47 34.8361 18.0867 35.9958 17.3698C36.9283 16.7936 37.7073 16.1464 38.3327 15.4281C38.6169 15.102 38.6369 15.1188 38.3928 15.4786C37.1849 17.2575 35.2378 18.611 33.1046 18.6996C31.7333 18.7572 30.866 17.8055 31.3917 16.3593C31.3948 16.3519 31.4004 16.3458 31.4074 16.3423C31.4144 16.3388 31.4224 16.338 31.4299 16.3402C31.4374 16.3423 31.4439 16.3471 31.4483 16.3539C31.4527 16.3606 31.4546 16.3687 31.4537 16.3768ZM35.6208 18.6264C34.5098 19.2567 33.3209 19.529 32.0543 19.4432C30.7835 19.3577 29.7075 18.5996 30.0471 17.1235C30.0753 16.9999 30.1003 16.8739 30.1219 16.7455C30.1298 16.6974 30.1219 16.6944 30.0983 16.7362C29.55 17.7292 29.5598 18.8653 30.6279 19.438C32.2689 20.3187 34.2968 19.7563 35.6563 18.6552C35.6635 18.6497 35.6658 18.6432 35.6632 18.6356C35.6619 18.6315 35.6599 18.6281 35.6573 18.6253C35.6494 18.6171 35.6372 18.6174 35.6208 18.6264ZM29.8414 20.6318C29.7124 21.1952 30.3828 21.1005 30.7372 21.0366C30.7825 21.0284 30.7927 21.0449 30.7677 21.0861C30.2276 21.9629 29.1891 22.3165 28.2584 22.6335L28.1354 22.6754C27.3144 22.9576 26.3379 23.2636 25.4687 23.2255C25.4512 23.2246 25.4343 23.2189 25.4196 23.2089C25.405 23.1989 25.3931 23.185 25.3853 23.1686C25.3775 23.1523 25.374 23.134 25.3751 23.1158C25.3763 23.0975 25.3821 23.0799 25.3919 23.0648C25.4006 23.0517 25.4101 23.037 25.4202 23.0214C25.478 22.9326 25.5567 22.8115 25.6262 22.7537C26.8501 21.7381 28.2237 20.9992 29.7469 20.5371C29.7596 20.5333 29.7731 20.533 29.7859 20.5363C29.7988 20.5397 29.8106 20.5465 29.8201 20.5561C29.8297 20.5656 29.8367 20.5777 29.8404 20.591C29.8441 20.6043 29.8445 20.6183 29.8414 20.6318ZM31.0945 41.453C31.6792 43.3421 32.2659 44.8213 34.4011 44.9922C34.5783 45.0067 34.7555 45.0008 34.9327 44.9747C34.9384 44.9735 34.9436 44.9705 34.9476 44.966C34.9515 44.9615 34.954 44.9558 34.9547 44.9497C34.9553 44.9436 34.9541 44.9375 34.9512 44.9322C34.9484 44.9269 34.9439 44.9226 34.9386 44.9201C33.8557 44.4559 33.0935 43.648 32.6518 42.4965C32.6254 42.4276 32.5994 42.3594 32.5736 42.2918C31.9736 40.7187 31.514 39.5139 29.9358 39.1633C29.145 38.9875 28.3942 38.904 27.6835 38.913C27.6395 38.9136 27.6313 38.9322 27.6589 38.9686L28.219 39.6958C28.2387 39.7205 28.2637 39.7339 28.2938 39.736C29.4505 39.7936 30.6978 40.1727 31.0945 41.453Z" fill="#4DBB18" />
</svg>