<!-- by TradeStack --><svg viewBox="0 0 56 56" xmlns="http://www.w3.org/2000/svg"><path fill="#F0F3FA" d="M0 0h56v56H0z"/><path d="m38.95 32.27-.83-1.75a.1.1 0 0 1 .03 0l.02-.02a133.65 133.65 0 0 0 .54-1.29c.05-.12.09-.21.1-.27a12.01 12.01 0 0 0 .44-5.73l-.03-.15a11.62 11.62 0 0 0-8.29-9.08 12.75 12.75 0 0 0-2.14-.35 16.88 16.88 0 0 0-1.82.02 11.3 11.3 0 0 0-8.25 4.78 11.06 11.06 0 0 0-1.69 3.5c-.2.75-.32 1.37-.37 1.87a13.88 13.88 0 0 0 .1 3.47l.1.43a10 10 0 0 0 .9 2.58l.04.17.03.18c-.2.44-.4.89-.63 1.34-.04.08-.08.19-.12.34a11.62 11.62 0 0 1-1.2-2.4 13.94 13.94 0 0 1-.8-3.26 11.99 11.99 0 0 1 .04-3.14l.11-.82a14.31 14.31 0 0 1 1.24-3.56 13.02 13.02 0 0 1 13.16-7.02 10.45 10.45 0 0 1 1.3.24 12.62 12.62 0 0 1 6.32 3.6c.5.5.91 1 1.27 1.52l.06.08a13.5 13.5 0 0 1 1.4 2.51 13.27 13.27 0 0 1-1.03 12.2Z" fill="#C06236"/><path d="m38.12 30.52.83 1.75-.03.06c-.15.23-.26.39-.36.47a.72.72 0 0 1-.55.2.77.77 0 0 1-.68-.49 6500.34 6500.34 0 0 1-5.97-12.49s-.02 0-.03.02l-.11.19a81.11 81.11 0 0 1-.76 1.54l-1.55 3.16a.14.14 0 0 0 0 .13l.36.72c.07.15.1.29.09.41-.01.12-.06.25-.14.4a.46.46 0 0 1-.2.2l-.1.05a.64.64 0 0 1-.19.09.79.79 0 0 1-.77-.3c-.05-.07-.13-.2-.21-.38l-.03-.04-2.97-6.04a.39.39 0 0 0-.09-.12h-.04a19893.08 19893.08 0 0 1-5.97 12.5.8.8 0 0 1-.25.3.76.76 0 0 1-1.03-.11c-.1-.12-.2-.26-.29-.43.04-.15.08-.26.12-.34a8211.06 8211.06 0 0 0 6.34-13.3c.15-.33.4-.55.75-.67.25-.08.5-.08.75 0 .25.1.45.24.6.46a72649.74 72649.74 0 0 1 2.34 4.69l.04-.02.1-.15a16710.1 16710.1 0 0 1 2.03-4.14c.14-.28.26-.46.35-.55a1.2 1.2 0 0 1 1.14-.3c.33.07.59.27.78.58l.24.5.24.5a54.75 54.75 0 0 1 .9 1.89 47.31 47.31 0 0 1 .56 1.17 84114.08 84114.08 0 0 0 3.76 7.9Z" fill="#040834"/><path fill-rule="evenodd" d="M23 32.04c-.02 0-.03 0-.04-.02l-1.1-1.95a.13.13 0 0 0-.12-.06h-.66c-.02 0-.04 0-.06.02a.08.08 0 0 0-.02.06v3.86c0 .03.02.05.05.05h.75c.02 0 .04 0 .05-.02a.07.07 0 0 0 .02-.05v-1.95c0-.02 0-.04.02-.05a.06.06 0 0 1 .05-.02c.04 0 .07.03.1.08a8 8 0 0 1 .4.7c.07.09.12.2.17.3l.03.02h.66c.04 0 .08-.02.1-.06l.56-.97c.02-.05.06-.07.1-.07.04 0 .07.03.07.08v1.93c0 .05.02.08.07.08h.72l.06-.03a.08.08 0 0 0 .02-.06v-3.85c0-.03-.01-.05-.04-.05a8.22 8.22 0 0 0-.76.01 167.45 167.45 0 0 1-1.18 2c0 .01-.01.02-.03.02ZM26.06 30h.86c.04 0 .07.04.07.08v3.85c0 .04-.03.07-.07.07h-.86a.07.07 0 0 1-.07-.07v-3.85c0-.04.03-.08.07-.08Zm3 3.18h1.85c.02 0 .04.01.05.03a4.74 4.74 0 0 1 .01.75c0 .02-.02.04-.06.04h-2.84c-.03 0-.05-.01-.05-.03a.45.45 0 0 1-.03-.14v-3.77c0-.04.02-.06.07-.06h.85c.03 0 .04 0 .06.02.02.02.02.03.02.05V33l.01.1.02.06c0 .02.01.03.04.03Zm3.23.1-.02.01-.22.64c-.01.05-.05.07-.1.07h-.9c-.01 0-.02 0-.02-.02 0-.07 0-.13.02-.18l1.43-3.76a.06.06 0 0 1 .07-.04h.85c.07 0 .11.03.14.1A5337.4 5337.4 0 0 1 35 33.92c0 .05-.02.08-.07.08h-.87c-.06 0-.1-.03-.11-.08l-.18-.56c-.02-.06-.06-.09-.12-.09H32.3Zm.28-.93.35-1c.02-.04.04-.06.08-.06s.06.02.08.06l.35 1c.01.03 0 .05 0 .07a.08.08 0 0 1-.08.04h-.7a.08.08 0 0 1-.07-.04.08.08 0 0 1-.01-.07Z" fill="#040834"/><path fill-rule="evenodd" d="M11.95 37.56c0-.03.01-.05.05-.05h.57c.02 0 .04.01.04.04l.08.22a50.92 50.92 0 0 0 .57 1.18.1.1 0 0 0 .08.04L14 39c.08 0 .15 0 .23-.03.03 0 .04-.02.04-.04 0-.03 0-.05-.02-.07l-.73-1.29c-.05-.1-.04-.17.04-.22.19-.13.33-.27.42-.43a1.5 1.5 0 0 0-.05-1.42 1 1 0 0 0-.35-.34c-.2-.1-.39-.16-.58-.16a1774.76 1774.76 0 0 1-1.97.02.07.07 0 0 0-.02.05v3.87c0 .03.02.05.05.05h.85c.03 0 .05-.01.05-.04v-1.4Zm.02-1.67a.1.1 0 0 0-.03.08v.64c0 .03.01.05.03.07a.1.1 0 0 0 .08.03h.79c.11 0 .21-.04.3-.12a.38.38 0 0 0 .12-.29v-.05c0-.11-.05-.2-.13-.28a.42.42 0 0 0-.3-.12l-.78.01a.1.1 0 0 0-.08.03Zm3.98-.02v.54c0 .02 0 .04.02.06l.06.02h1.49c.02 0 .04.01.05.03.02.01.03.03.03.05v.64c0 .03-.01.05-.03.06a.07.07 0 0 1-.05.02l-1.5.03c-.05 0-.07.02-.07.07v.69c0 .02 0 .04.02.06.02.02.04.03.07.03h1.7c.07 0 .11.04.12.13.02.23.02.44-.02.65 0 .03-.02.05-.06.05h-2.75c-.02 0-.03-.01-.03-.03v-3.9c0-.05.02-.07.07-.07h2.66c.05 0 .07.02.07.07v.64a.1.1 0 0 1-.1.11H16c-.04 0-.05.02-.05.05Zm20.01.57c.08-.2.2-.36.38-.5.1-.07.2-.1.32-.11.28-.02.52.01.73.08.08.02.2.08.36.17a5.48 5.48 0 0 0 .18.08c.1-.2.16-.38.2-.56a.1.1 0 0 0-.03-.1 1.23 1.23 0 0 0-.27-.2 4.28 4.28 0 0 0-.33-.15l-.03-.02c-.16-.07-.3-.1-.44-.12a3.7 3.7 0 0 0-.48 0 1.88 1.88 0 0 0-.72.27c-.16.1-.28.2-.36.32a2.32 2.32 0 0 0-.18 2.5c.13.25.3.44.5.58.3.2.62.3 1 .32.05 0 .12 0 .2-.02l.12-.03.38-.1c.19-.08.38-.18.56-.33a.32.32 0 0 1 .08-.04c.02-.01.04-.03.03-.07a2.72 2.72 0 0 0-.18-.53c-.03-.05-.08-.05-.14-.02-.26.17-.54.26-.85.3-.55.06-.9-.17-1.05-.7-.03-.1-.04-.21-.05-.36-.01-.26.01-.49.07-.66Zm8.47 1.63c.04-.02.06-.06.08-.12v-.03c.05-.18 0-.3-.14-.37-.1-.05-.24-.1-.42-.14a6.48 6.48 0 0 1-.56-.17 2.47 2.47 0 0 1-.5-.25.76.76 0 0 1-.35-.56c-.03-.23 0-.45.08-.66.1-.23.23-.4.43-.52.27-.17.56-.25.86-.25.2 0 .37.01.52.03.13.01.25.04.38.09l.38.18c.07.04.14.1.2.18v.06c-.1.1-.22.25-.37.45-.07.08-.16.09-.27.01a.97.97 0 0 0-.35-.14 2.82 2.82 0 0 0-.4-.03h-.03a.52.52 0 0 0-.28.05.4.4 0 0 0-.2.24c-.02.12.02.2.13.26.1.06.2.1.28.12l.7.2c.21.08.37.15.46.22.39.3.52.7.4 1.2a.97.97 0 0 1-.26.44 1.3 1.3 0 0 1-.45.29 1.98 1.98 0 0 1-1.44.04 1.99 1.99 0 0 1-.73-.4c-.1-.08-.1-.18-.01-.28a8.44 8.44 0 0 0 .39-.41c.02 0 .04 0 .05.02.34.28.72.4 1.16.35.06 0 .15-.04.26-.1Zm-24.34-.53-.2-.08c-.33-.08-.66-.2-.98-.32-.35-.14-.55-.32-.6-.55l-.04-.09a.72.72 0 0 1-.04-.18c0-.22.04-.42.12-.61.1-.21.24-.37.42-.47.23-.13.43-.2.61-.21.21-.02.43-.02.65-.01.19.01.34.04.45.1a4.55 4.55 0 0 0 .4.16c.08.05.15.1.2.17.04.04.04.08.01.11-.08.1-.16.19-.24.26a.87.87 0 0 0-.14.2.1.1 0 0 1-.07.04.1.1 0 0 1-.08-.02 1.57 1.57 0 0 0-1.04-.2c-.22.03-.32.16-.31.4 0 .05.05.1.14.16.07.04.15.07.22.09a17.31 17.31 0 0 1 .67.18c.2.08.38.16.51.24.35.23.5.56.46 1-.02.22-.1.41-.23.57-.12.14-.3.26-.52.37-.06.03-.15.06-.28.08l-.12.03c-.2.04-.4.05-.61.02-.27-.04-.5-.1-.68-.19-.22-.1-.4-.23-.56-.4a.06.06 0 0 1-.02-.03c0-.06.08-.17.24-.32a3.95 3.95 0 0 0 .2-.23c.04-.03.08-.03.11 0a1 1 0 0 0 .38.24c.43.16.77.16 1 .02.13-.07.16-.2.1-.4 0-.05-.05-.1-.13-.13Zm8.46.57a1.1 1.1 0 0 1-.3.06 1.1 1.1 0 0 1-.31-.06.67.67 0 0 1-.29-.17.49.49 0 0 1-.14-.28v-.3l-.01-2.23c0-.09-.05-.13-.13-.13h-.79c-.03 0-.05.02-.06.05a1.46 1.46 0 0 0 .1 3.02c.1.22.25.4.45.55.19.15.41.25.67.3h.01c.22.06.38.08.5.08a2.6 2.6 0 0 0 .5-.07 1.54 1.54 0 0 0 1.12-.86c.08-.16.12-.37.12-.63a456.08 456.08 0 0 0-.01-2.39c0-.03-.03-.05-.06-.05h-.79c-.08 0-.13.05-.13.13a221.66 221.66 0 0 1-.02 2.53c-.01.1-.06.2-.14.28a.66.66 0 0 1-.29.17Zm11.48-.8c-.04 0-.05.01-.06.05a4.33 4.33 0 0 0 .01.77c.02.02.06.03.12.03a106.94 106.94 0 0 0 1.67.02c.07.01.1.05.1.12v.63c0 .03-.01.05-.04.05l-.2.02-2.57-.01c-.04 0-.06-.02-.06-.06v-3.78c0-.1.05-.15.14-.15h2.55c.07 0 .11.04.11.1l.02.49c0 .08-.01.14-.04.17-.04.05-.1.07-.18.06h-.37a167.62 167.62 0 0 1-1.25.02.08.08 0 0 0-.03.06v.45c0 .1.05.14.13.14h1.38c.1 0 .15.05.14.15a9.03 9.03 0 0 0 0 .57c-.01.06-.05.1-.1.1h-1.47ZM23.8 35a2 2 0 0 1 .5.06c.73.2 1.2.64 1.42 1.35a2.16 2.16 0 0 1-.34 1.84c-.19.24-.43.43-.71.56a2.1 2.1 0 0 1-2.48-.57 2.15 2.15 0 0 1-.32-1.85c.22-.7.7-1.15 1.42-1.34a2 2 0 0 1 .51-.05Zm0 .83c.12 0 .21.01.28.03.1.02.18.05.26.11.22.15.36.35.44.6.07.24.07.5.01.76-.05.26-.17.47-.34.62a.97.97 0 0 1-.67.23.97.97 0 0 1-.65-.24 1.09 1.09 0 0 1-.34-.62 1.5 1.5 0 0 1 .02-.76c.08-.25.23-.45.45-.6.08-.05.17-.09.26-.1.07-.02.16-.03.28-.03Zm9.68 1.64.03.09.22.38a15.65 15.65 0 0 1 .53.99c0 .02-.02.04-.05.04-.09.03-.27.04-.54.02h-.32a.1.1 0 0 1-.1-.07l-.63-1.31c-.03-.08-.1-.11-.18-.11h-.4c-.06 0-.08.04-.08.09v1.34c0 .02-.01.03-.03.03a9.11 9.11 0 0 1-.85.02c-.05 0-.07-.02-.07-.07v-3.75c0-.07 0-.12.04-.14.03-.01.07-.02.15-.02H32.58c.37 0 .62.02.75.06.27.08.48.24.63.5a1.47 1.47 0 0 1 .09 1.24.95.95 0 0 1-.33.43l-.2.13a.11.11 0 0 0-.04.1Zm-1.53-1.54c0-.04.01-.06.04-.09a.1.1 0 0 1 .08-.03h.79c.1 0 .2.04.28.11.08.08.11.17.11.28v.1c0 .1-.03.2-.11.28a.38.38 0 0 1-.28.11h-.79a.12.12 0 0 1-.12-.12v-.64Z" fill="#C06236"/></svg>