<!-- by TradeStack --><svg width="56" height="56" viewBox="0 0 56 56" xmlns="http://www.w3.org/2000/svg"><path fill="#AC7AF7" d="M0 0h56v56H0z"/><path d="M38.7 23h-2.3a1.2 1.2 0 0 1-1.23-1c-.43-2.49-2.32-6.36-7.63-6.36-6.2 0-8.4 5.3-8.54 7.96v8.42c0 1.29 1 8.15 8.2 8.15 5.03 0 7.32-2.9 8.06-5.28.16-.53.63-.89 1.18-.89h2.35c.62 0 1.1.46.98 1.07-.58 2.78-3.09 8.93-12.58 8.93-9.12 0-11.93-7.07-12.19-10.61v-9.22c0-1.2.27-12.17 12.2-12.17 8.55 0 11.78 6.15 12.55 9.92.13.64-.4 1.08-1.05 1.08Zm-14.86.75L22 21.78 27.01 18H30v20h-3V21.08l-3.16 2.67ZM31 33v-9h2v.63a2.93 2.93 0 0 1 1.73-.63c1.07 0 2.11.49 2.72 1.33.5-.58 1.39-1.33 2.47-1.33A2.98 2.98 0 0 1 43 27.06V33h-2v-5.62c.07-.7.18-1.96-1.22-1.96-.87 0-1.46.48-1.84 1.02.04.2.06.4.06.62V33h-2v-5.55c.06-.68.03-2.03-1.41-2.03-.7 0-1.22.3-1.59.7V33h-2Z" fill="#fff"/></svg>