<?xml version='1.0' encoding='utf-8'?>
<!-- by TradeStack -->
<svg width="56" height="56" viewBox="0 0 56 56" xmlns="http://www.w3.org/2000/svg"><path fill="#390081" d="M0 0h56v56H0z" /><path d="M10.79 30H12v-2.39c0-.98-.84-1.6-1.91-1.6a1.99 1.99 0 0 0-1.67.9c-.28-.58-.9-.92-1.71-.9a2.13 2.13 0 0 0-1.54.58H5.1V26H4v4h1.22v-2c0-.98.59-1.27 1.12-1.27.53 0 1.05.27 1.05 1.42V30H8.5v-1.76c0-1.13.56-1.47 1.22-1.47.52 0 1.07.23 1.07 1.41V30ZM16 26h1.3v4H16v-4Zm10 4v-.7h-2.7V26H22v4h4Zm7.6-1.02c0-.78-.47-1.12-1.05-1.12a.9.9 0 0 0 .55-.3.95.95 0 0 0 .23-.57c.02-.61-.61-.99-1.16-.99H29v4h3.3c.73 0 1.3-.4 1.3-1.02Zm-3.37-2.28h1.59c.2 0 .33.16.33.4 0 .2-.08.42-.33.42h-1.6v-.82Zm0 1.6h1.76a.4.4 0 0 1 .28.15.42.42 0 0 1 .09.32c0 .13-.05.26-.13.36-.08.1-.2.17-.33.18h-1.67V28.3ZM40.35 30c1.55 0 2.65-.8 2.65-1.98 0-1.23-1.08-2.02-2.63-2.02-1.6 0-2.67.92-2.67 2.02S38.75 30 40.35 30ZM39 28.05c0-.85.52-1.44 1.35-1.44.83 0 1.38.64 1.38 1.44a1.37 1.37 0 0 1-.39 1 1.42 1.42 0 0 1-.99.43 1.47 1.47 0 0 1-.98-.45 1.39 1.39 0 0 1-.37-.98ZM52 30v-2.3c0-2.22-2.88-1.9-3.74-1.06V26H47v4h1.26v-2.05c0-1.51 2.48-1.68 2.48-.04V30H52Z" fill="#fff" /></svg>