<?xml version='1.0' encoding='utf-8'?>
<!-- by TradeStack -->
<svg width="56" height="56" viewBox="0 0 56 56" xmlns="http://www.w3.org/2000/svg"><path fill="#F0F3FA" d="M0 0h56v56H0z" /><path d="M13 13h30v1.1c0 1.05-.86 1.9-1.93 1.9H14.93A1.91 1.91 0 0 1 13 14.1V13ZM13 43h30v-1.1c0-1.05-.86-1.9-1.93-1.9H14.93c-1.07 0-1.93.85-1.93 1.9V43ZM15 19h2.43C19.4 19 21 20.6 21 22.56V36h-6V19ZM25 19h2.43C29.4 19 31 20.6 31 22.56V36h-6V19ZM35 19h2.43C39.4 19 41 20.6 41 22.56V36h-2.43A3.56 3.56 0 0 1 35 32.44V19Z" fill="#152168" /></svg>