<?xml version='1.0' encoding='utf-8'?>
<!-- by TradeStack -->
<svg width="56" height="56" viewBox="0 0 56 56" xmlns="http://www.w3.org/2000/svg"><path fill="#004EA1" d="M0 0h56v56H0z" /><path fill-rule="evenodd" d="M20.5 22.5c0 .83-.56 1.5-1.25 1.5S18 23.33 18 22.5s.56-1.5 1.25-1.5 1.25.67 1.25 1.5ZM18 25.32c0-.18.14-.32.3-.32h1.9c.16 0 .3.14.3.32v5.36c0 .18-.14.32-.3.32h-1.9a.32.32 0 0 1-.3-.32v-5.36ZM19.25 35c.69 0 1.25-.67 1.25-1.5s-.56-1.5-1.25-1.5-1.25.67-1.25 1.5.56 1.5 1.25 1.5ZM4 30.51V25.5c0-.27.2-.49.46-.49H7c.16 0 .3.08.38.22l2.12 3.37 2.12-3.37A.45.45 0 0 1 12 25h2.54c.26 0 .46.22.46.49v5.02c0 .27-.2.49-.46.49h-1.5c-.26 0-.54-.22-.54-.49v-3.38l-1.89 3.64a.45.45 0 0 1-.38.23H8.77a.45.45 0 0 1-.38-.23L6.5 27.14v3.37c0 .27-.17.49-.42.49H4.46c-.26 0-.46-.22-.46-.49Zm19-5.19v2.9c0 1.67 1.3 2.78 2.91 2.78h2.18c1.6 0 2.91-1.1 2.91-2.79v-2.89a.31.31 0 0 0-.3-.32h-1.95c-.17 0-.25.14-.25.32v2.77c0 .8-.47 1.44-1.23 1.44h-.6c-.77 0-1.17-.64-1.17-1.44v-2.77c0-.18-.11-.32-.28-.32H23.3c-.17 0-.31.14-.31.32Zm11 0v5.36c0 .18.14.32.32.32h1.9c.18 0 .28-.14.28-.32V29h1.65l1.47 1.82c.1.11.23.18.37.18h1.95c.26 0 .41-.32.24-.53l-1.62-2.04c.72-.52.95-1.27.96-1.67 0-1.36-1.62-1.74-2.43-1.76h-4.77a.32.32 0 0 0-.32.32Zm4.3 1.06h-1.8v1h1.8c.27 0 .64-.22.64-.5 0-.27-.37-.5-.65-.5Zm9.36.47-.98 1.65h1.94l-.96-1.65Zm-2.09 3.49.2-.34h3.73l.13.23c.28.48.79.77 1.34.77.8 0 1.3-.88.87-1.57l-2.02-3.29a2.4 2.4 0 0 0-4.12.03l-2.07 3.46a.9.9 0 0 0 .78 1.37c.48 0 .92-.25 1.16-.66Z" fill="#fff" /></svg>