<?xml version='1.0' encoding='utf-8'?>
<!-- by TradeStack -->
<svg viewBox="0 0 56 56" xmlns="http://www.w3.org/2000/svg"><path fill="#F0F3FA" d="M0 0h56v56H0z" /><path fill="#4E4E4E" d="M27 23h2v11h-2zm18 0h2v11h-2zm-3 0h-2l-3 4.13L34 23h-2l4 5.5-4 5.5h2l3-4.13L40 34h2l-4-5.5 4-5.5zM9 23H7v11h2v-6.33C9.36 26.5 10.57 25 12.28 25a2.15 2.15 0 012.22 2.16V34h2v-6.22c0-1.36 1.56-2.75 3.37-2.78 1.45-.02 2.13 1.21 2.13 1.82V34h2v-7.57c-.05-1.21-.83-3.43-3.63-3.43a5.23 5.23 0 00-4.2 2.2 3.75 3.75 0 00-3.42-2.2A4.71 4.71 0 009 25.03V23z" /><ellipse cx="28" cy="19.5" rx="1" ry="1.5" fill="#B8B9B9" /><ellipse cx="46" cy="19.5" rx="1" ry="1.5" fill="#C2A159" /></svg>