<?xml version='1.0' encoding='utf-8'?>
<!-- by TradeStack -->
<svg width="56" height="56" viewBox="0 0 56 56" xmlns="http://www.w3.org/2000/svg"><path fill="#F0F3FA" d="M0 0h56v56H0z" /><path d="M5 28.14v-.7l3.34-3.23a13.28 13.28 0 0 1 2.61-2.13A9.08 9.08 0 0 1 15.37 21c1.64 0 3.11.38 4.42 1.13.87.5 1.82 1.3 2.87 2.4 1 1.05 2.09 2.12 3.26 3.22 1.46 1.38 3.07 1.16 4.82-.66a113.2 113.2 0 0 1 3.68-3.65 8.7 8.7 0 0 1 5.05-2.35 9.28 9.28 0 0 1 5.54 1.03c.7.37 1.56 1.06 2.57 2.08 1.15 1.17 2.27 2.27 3.36 3.32.08.08.08.16 0 .24l-.83.85c-.09.1-.18.1-.27 0a446.2 446.2 0 0 0-4.27-4.17 6.66 6.66 0 0 0-2.9-1.61c-2.8-.79-5.3-.12-7.47 2-1.6 1.56-3.06 2.98-4.35 4.26a3.83 3.83 0 0 1-2.98 1.1 4.32 4.32 0 0 1-2.96-1.26 4875 4875 0 0 1-4.06-4.02 8 8 0 0 0-4.36-2.32 7.37 7.37 0 0 0-4.87.87c-.56.3-1.3.92-2.25 1.86a396.24 396.24 0 0 1-3.45 3.4c-.1.09-.19.09-.28 0L5 28.15Zm19.22 1.3c1.83 1.74 3.8 2.11 5.9 1.13.6-.28 1.21-.72 1.85-1.34 1.12-1.08 2.23-2.17 3.31-3.28a9.42 9.42 0 0 1 2.25-1.8 6.42 6.42 0 0 1 6.1-.04c.65.33 1.37.9 2.15 1.7 1.2 1.24 2.36 2.39 3.48 3.44.06.05.06.1 0 .16l-.97.95c-.04.04-.08.04-.12 0a165.8 165.8 0 0 1-3.29-3.28 7.7 7.7 0 0 0-2.14-1.67 4.86 4.86 0 0 0-4.3.01c-.66.32-1.39.88-2.18 1.7A83.48 83.48 0 0 1 32.33 31a6.17 6.17 0 0 1-3.52 1.56 7.15 7.15 0 0 1-3.88-.65c-.59-.28-1.4-.93-2.47-1.97a216.4 216.4 0 0 1-2.79-2.8 8.04 8.04 0 0 0-2.33-1.8 4.9 4.9 0 0 0-4.08 0c-.63.29-1.32.8-2.07 1.56-1.2 1.2-2.4 2.4-3.6 3.57-.06.06-.11.06-.17 0l-.9-.87c-.08-.08-.08-.15 0-.23 1.08-1.03 2.17-2.12 3.28-3.26 1-1.04 1.9-1.74 2.67-2.1a6.4 6.4 0 0 1 6.03.16c.6.33 1.24.85 1.94 1.57 1.24 1.27 2.5 2.5 3.78 3.72Zm-6.2-2.7a3.32 3.32 0 0 0-1.28-.74c-1.7-.57-3.2-.19-4.53 1.14a321.83 321.83 0 0 1-4.04 3.96c-.03.03-.03.06 0 .09l1 1c.02.03.05.03.07 0 1.4-1.32 2.76-2.65 4.08-3.98.44-.43.87-.7 1.3-.83.94-.25 1.8-.02 2.56.7 1.12 1.07 2.22 2.16 3.28 3.26 2.08 2.14 4.25 3.34 6.5 3.6 1.96.22 3.8-.16 5.55-1.13.8-.44 1.75-1.23 2.83-2.35 1.08-1.1 2.26-2.26 3.52-3.46.74-.7 1.57-.88 2.52-.56.45.15.99.54 1.6 1.16 1.16 1.18 2.32 2.34 3.5 3.46.02.02.04.02.07 0l1-.98c.03-.03.03-.07 0-.1l-4.2-4.14a3.55 3.55 0 0 0-2.09-1c-.8-.1-1.57 0-2.33.3-.55.21-1.2.71-1.95 1.5a50.61 50.61 0 0 1-4.27 4.1 7.35 7.35 0 0 1-4.83 1.7c-2.08 0-4.12-1-6.12-3l-3.74-3.7Z" fill="#00AEEF" /></svg>