<?xml version='1.0' encoding='utf-8'?>
<!-- by TradeStack -->
<svg width="56" height="56" viewBox="0 0 56 56" xmlns="http://www.w3.org/2000/svg"><path fill="#F0F3FA" d="M0 0h56v56H0z" /><path d="m9.8 33.5-.14 1.98c-.77-.31-2.43-1.07-2.92-1.56-.6-.6-2.25-2.89-2.43-4.58-.18-1.69.56-4.14 1.61-5.83 1.05-1.69 3.88-2.9 6.04-2.99 1.74-.06 3.13.25 3.54.6v2.38h1.8L14 25.96V24H8.58v5.98h2.2l.76 2.48L9.8 33.5Z" fill="#DCA504" fill-opacity=".7" /><path d="M4.67 28.18c0 3.47 2.38 6.4 5.62 7.25v.69A8.2 8.2 0 0 1 4 28.18a8.27 8.27 0 0 1 12-7.28v-.4h.39v.5h.26v-.5H17v.5h.14v-.5h.28v.5h.26v-.5H18v.76h-1.61v.6c.53.36 1.41 1.06 1.41 1.48 0 .45-2.71 2.3-4.07 3.16v-.2H11v3.2H9v-5.15h1v1.1h.33v-1.1h.93v1.1h.44v-1.1h.83v1.1H13v-1.1h1v1.5l3.45-2.5-.4-.35H16v-1.35a7.59 7.59 0 0 0-11.33 6.53Zm6.51 1.73v-2.3l2.7 3.04L12 32.5l-.82-2.59Zm2.94.54-2.78-2.97v-1.14l.22.22v.43l.2.2v-.44l.25.24v.5l.25.24v-.53l.21.2v.45l.2.2v-.52l.19.2v.52l.15.16v-.45l.23.22v.46l.25.25v-.48l.23.23v.46l.24.24v-.5l.16.16v.7h.23v-.52l.16.16v.89l-.4.22ZM10.29 38a12.3 12.3 0 0 0 4.78-5.76v-2.4l-.53.53v1.65l-.22.22v-1.48l-.64.63v1.89l-.3.3v-1.92l-.7.7v1.87l-.34.34V32.5l-.78.78v1.92l-.35.34v-2.16l-.92.54V38Zm6.9-16.3h.36l1.48 1.28c.06.07.2.27.2.47 0 .17-.28.47-.5.72-.1.1-.19.2-.24.28-.12.18-2.2 2.13-3.23 3.08l-.37-.36c1.15-1.05 3.45-3.14 3.49-3.16.05-.03.4-.29.4-.56 0-.22-.27-.48-.4-.58l-1.2-.87v-.3Zm2.6 3.3v-1.07c-.68 1.12-2.84 3-3.84 3.8.18.17.57.48.62.48a14.07 14.07 0 0 0 3.22-3.2Zm-6.17 1.54v.65c.5.5 1.73 1.65 2.78 2.28.28.17.6.34.94.51 1.24.65 2.7 1.4 3.12 2.75a49.54 49.54 0 0 0 1.34 3.67l1.2-1.15-1.2-2.75a6.39 6.39 0 0 0-2.71-2.33c-1.54-.76-3.72-1.83-5.25-3.63h-.22Z" /><path fill-rule="evenodd" d="M18.9 23.7v.3h1.15l-.71 4.63-.56.37h1.73l-.5-.28.2-2.5L21.68 29h.3l1.45-2.77.24 2.49-.24.28h1.88l-.54-.42-.58-4.43h-.34l-1.75 3.19L20.21 24H52v-.3H18.9ZM21.53 35v.3H52V35H21.53Zm5.32-6H25.4v-.11l.34-.14L27.48 25h.33l1.75 3.68.44.2v-3.63h-.52v-.26h1.94v.26H31v3.24a2.27 2.27 0 0 1-1.71 2.08v-.16c.23-.1.71-.5.71-1.3V29h-1.82v-.11l.3-.14-.35-.75H26.7l-.31.75.46.14V29Zm.52-2.6.52 1.1h-.98l.46-1.1ZM32 28.78v-3.6h-.46V25h2.91v.9h-.2a.91.91 0 0 0-.23-.57H33v1.32h1v-.2h.2v.98H34V27h-1v1.6h1.02c.38 0 .48-.37.49-.56h.14l-.14.96h-3v-.22H32Zm3.28.05v-1.1h.16c0 .77.52.98.97.98.45 0 .7-.25.7-.5 0-.24-.1-.37-.46-.6a3 3 0 0 0-.26-.15c-.42-.23-1.04-.55-1.04-1.28 0-.9.9-1.18 1.5-1.18.47 0 .85.15.99.22v.9h-.22c0-.64-.49-.8-.78-.8-.29 0-.68.08-.68.49 0 .33.35.57.53.65.43.18 1.28.7 1.28 1.38 0 .84-.87 1.16-1.64 1.16a2.3 2.3 0 0 1-1.05-.17Zm3.17-2.98h.2l.18-.52H40v3.46h-.51V29h2.1v-.2H41v-3.47h1.14l.18.52h.22L42.4 25h-3.76l-.2.85ZM43.5 25v.24c.03-.03.35-.01.5 0v3.52h-.5V29h1.94v-.24H45v-3.52h.44V25H43.5Zm6.45 1.36h.16V25.1a9.34 9.34 0 0 0-1.36-.15c-.55 0-2.59.07-2.59 2.2 0 2.11 2.48 2.16 2.59 2.16.1 0 .87-.04 1.2-.26l.16-1.03h-.16c-.01.27-.24.82-1.06.82-1.03 0-1.6-.86-1.6-1.77 0-.92.55-1.77 1.46-1.77.91 0 1.2.57 1.2 1.06ZM25.89 31.6H26v-.87c-.19-.08-.6-.23-1.1-.23-.61 0-1.9.18-1.9 1.82 0 1.31 1.27 1.64 1.9 1.65.27 0 .79-.04 1.1-.2v-1.24h.35v-.21h-1.37v.2h.36v1.09c-.02.03-.12.1-.36.1-.3 0-1.1-.31-1.1-1.52s.51-1.41 1.02-1.41.99.1.99.82Zm4.11.9a1.5 1.5 0 1 1-3 0 1.5 1.5 0 0 1 3 0Zm-.68 0c0 .68-.37 1.23-.82 1.23-.45 0-.82-.55-.82-1.23 0-.68.37-1.23.82-1.23.45 0 .82.55.82 1.23ZM43.5 34a1.5 1.5 0 1 0 0-3 1.5 1.5 0 0 0 0 3Zm0-.27c.45 0 .82-.55.82-1.23 0-.68-.37-1.23-.82-1.23-.45 0-.82.55-.82 1.23 0 .68.37 1.23.82 1.23Zm-12.83-2.52V31h1.37v.21h-.37v2.53h.9l.2-.48h.17l-.16.74h-2.11v-.17H31V31.2h-.33Zm2.26-.01V31h1.77c.49.06 1.47.44 1.47 1.49s-.98 1.44-1.48 1.51h-1.76v-.17h.35V31.2h-.35Zm1.07 0v2.27c.04.1.17.33.4.33.3 0 1.05-.26 1.05-1.2s-.58-1.4-1.45-1.4Zm6.85 1.86H41v.7c-.1.09-.42.24-.98.24-.7 0-2.02-.54-2.02-1.8 0-1.27 1.04-1.7 2.02-1.7.5 0 .86.12.98.19v.93h-.15a.92.92 0 0 0-.98-.86c-.94 0-1.06.92-1.06 1.44 0 .51.44 1.5 1.2 1.5.77 0 .84-.39.84-.64ZM44.93 31v.23h.32v2.57h-.32v.2h1.39v-.2H46v-1.08h.36L47.1 34h2.29v-.2H49v-2.6c.22 0 .74.07.74.77 0 .57-.36.7-.54.7v.21c.41-.05 1.25-.34 1.25-1 0-.67-.73-.86-1.09-.87H48v.19h.29v2.62H48v.03h-.19l-.94-1.22c.29-.11.57-.34.57-.78 0-.62-.75-.82-1.12-.84h-1.4ZM46 32.4v-1.17c.65 0 .73.4.73.75 0 .34-.16.53-.39.53a.53.53 0 0 1-.34-.1Zm5 1.25a.35.35 0 1 1-.7 0 .35.35 0 0 1 .7 0Z" /></svg>