<!-- by TradeStack --><svg width="56" height="56" viewBox="0 0 56 56" xmlns="http://www.w3.org/2000/svg"><path fill="#10B229" d="M0 0h56v56H0z"/><path d="M27.92 20.39h.16s.02 0 .02.02c.12.6.34 1.17.56 1.75l.26.7a604.87 604.87 0 0 1 2.29 6.58c.01.05 0 .07-.01.1l-.01.03a21236.82 21236.82 0 0 0-2.16 6.36l3-1.31c.35-.15.6-.36.7-.72l.27-.85 1.09-3.07c.18-.5.03-.9-.14-1.34l-.09-.22-1.06-3-4.53-12.86a5 5 0 0 1-.18-.55l-5.42 14.92h-.01c-1.76-.87-3.55-1.67-5.35-2.47a183.84 183.84 0 0 1-4.42-2A2008.74 2008.74 0 0 0 10 21.2a58182.66 58182.66 0 0 1 5.07 14.43c.1.31.22.66.53.8.5.2.94.39 1.33.58l.61.28.58.26a2.29 2.29 0 0 0 .72.24l-4-11.4v-.02l.2.09a1287.04 1287.04 0 0 1 4.42 2.03l1.28.59c.25.12.53.23.8.33.2.08.27.2.34.42.17.54.36 1.07.55 1.6.29.78.57 1.56.78 2.37.08.3.27.53.55.65a362.42 362.42 0 0 1 2.38 1.08c.27.14.53.27.83.3.01 0 .02 0 .01-.01-.14-.3-.24-.54-.3-.74-.5-1.52-1.03-3.02-1.6-4.51-.1-.28-.2-.55-.23-.8-.07-.44.06-.9.22-1.33l.67-1.78c.26-.66.52-1.44.78-2.21l.4-1.19c.11-.32.24-.63.36-.94a9.8 9.8 0 0 0 .64-1.93Zm13.25 5.98-.16.55-2.02 5.77-.23.6c-.11.29-.22.57-.29.8a.48.48 0 0 1-.31.33l-.44.17a17258.72 17258.72 0 0 0-8.51 3.92l-1.03.48c-.12.07-.27.01-.37-.03-1.93-.87-3.85-1.75-5.77-2.64a7.07 7.07 0 0 0-.98-.36c.06.34.15.61.3.97.26.68.52 1.37.75 2.06.14.4.31.6.71.77l1.14.47c.73.3 1.55.7 2.35 1.1.29.15.57.3.85.43.18.09.36.16.53.2.36.1.71-.01 1.04-.17a27.57 27.57 0 0 1 1.5-.73 12589.02 12589.02 0 0 1 9.88-4.52c.27-.1.58-.23.68-.5a56514.5 56514.5 0 0 1 5.2-14.86c-.2.06-.37.12-.56.2-.85.36-1.69.76-2.52 1.16a213.92 213.92 0 0 1-1.3.6l-.55.25-3.82 1.75-.73.33a51.92 51.92 0 0 0-.66.3v.04c.06.4.22.8.38 1.24.17.43.35.88.43 1.34l.01.01c.18-.04.31-.09.4-.14a81.44 81.44 0 0 1 4.1-1.89Z" fill="#FEFEFE"/></svg>