<!-- by TradeStack --><svg width="56" height="56" viewBox="0 0 56 56" xmlns="http://www.w3.org/2000/svg"><path fill="#F0F3FA" d="M0 0h56v56H0z"/><path fill-rule="evenodd" d="M45 28a17 17 0 1 1-34 0 17 17 0 0 1 34 0Zm-9.59 11.14c.96-1.15 1.81-2.47 2.5-3.91-1.36-.3-2.9-.57-4.5-.75a29 29 0 0 1-1.35 4.9c.96.28 1.7.58 2.34.87.35-.35.69-.72 1.01-1.11Zm-3.63.94-.25.57-.58-.91.15-.37c.56-1.42 1.06-3.1 1.42-4.98a34.2 34.2 0 0 0-1.7-.11l.03-.7.29-.05c.5.02 1.01.06 1.51.1l.04-.24c.32-.07.64-.15.94-.24l-.09.58c1.68.19 3.28.48 4.68.79A16.84 16.84 0 0 0 39.55 28c0-2.29-.52-4.47-1.36-6.44-1.46.32-3.12.62-4.86.8-.79-.2-1.63-.37-2.5-.49l-.01-.08c.56-.02 1.13-.06 1.68-.1A28.64 28.64 0 0 0 31 16.5a14.52 14.52 0 0 0-1.82-3.37 4.1 4.1 0 0 0-.77-.8v3.21h-.75v-3.14c-.2.16-.43.4-.7.73a14.52 14.52 0 0 0-1.93 3.67l-.03.1c-.54 1.39-1 3-1.35 4.79l1.56.1v.05c-.92.12-1.8.28-2.63.5-1.68-.19-3.29-.47-4.7-.79a16.37 16.37 0 0 0-.07 12.96c1.43-.32 3.07-.61 4.79-.8a35.4 35.4 0 0 1-.08-.53c.3.09.62.16.94.23 0 .07.02.14.03.2l1.28-.08.42.05.02.69c-.53.02-1.06.05-1.6.1a29.3 29.3 0 0 0 1.44 5.2l-.6.94-.16-.42c-.9.26-1.63.53-2.25.8.8.76 1.61 1.39 2.42 1.87.6.35 1.17.62 1.72.8-.41-.5-.82-1.16-1.22-1.95h1.01c.3.54.6 1 .88 1.35a3.26 3.26 0 0 0 .8.76v-1.6a.38.38 0 1 1 .76 0v1.48c.24-.16.54-.44.89-.89.24-.3.48-.68.73-1.1h1.02c-.36.68-.74 1.27-1.12 1.74a12.9 12.9 0 0 0 3.88-2.54c-.56-.24-1.21-.5-2.03-.74ZM33.4 21.6c1.6-.18 3.12-.45 4.46-.74a19.4 19.4 0 0 0-3.48-5.02c-.63.3-1.36.6-2.33.89.53 1.42 1 3.07 1.35 4.87Zm-1.63-5.58c.84-.25 1.48-.5 2.04-.75-.81-.77-1.64-1.41-2.44-1.9-.52-.32-1.01-.57-1.47-.76.63.81 1.28 1.98 1.87 3.41Zm-3.66-4.73c1.86.03 4.33 1.36 6.57 3.57l.17-.08c.63-.3 1.06-.56 1.33-.76.17-.12.42-.12.57.02.15.15.15.39-.02.52-.32.24-.81.55-1.5.88a20.3 20.3 0 0 1 3.53 5.22c1.3-.32 2.4-.63 3.14-.88.2-.07.41.03.48.23.08.2-.03.41-.22.48-.74.25-1.8.56-3.09.87a17.3 17.3 0 0 1 1.37 6.27H44a.41.41 0 0 1 0 .83h-3.56a17.76 17.76 0 0 1-1.34 6.27 38 38 0 0 1 3.05.87c.2.06.3.28.23.48-.07.2-.28.3-.48.23-.74-.24-1.81-.56-3.1-.87a19.26 19.26 0 0 1-3.54 5.23 8.8 8.8 0 0 1 1.47.86c.17.13.17.37.02.51-.15.15-.4.15-.57.03-.27-.2-.7-.46-1.33-.76l-.16-.07c-2.18 2.1-4.62 3.37-6.66 3.5-2.1.13-4.63-1.19-6.86-3.45l-.04.02c-.62.3-1.06.56-1.33.76-.17.12-.41.12-.56-.03-.15-.14-.15-.38.01-.5.3-.24.75-.52 1.37-.82a19.78 19.78 0 0 1-3.4-5.28c-1.28.31-2.36.63-3.09.87a.39.39 0 0 1-.48-.23.37.37 0 0 1 .23-.48c.73-.25 1.78-.56 3.05-.87A17.21 17.21 0 0 1 17 21.36a38.2 38.2 0 0 1-3.13-.88.37.37 0 0 1-.22-.48c.07-.2.28-.3.48-.23.75.25 1.85.57 3.18.88a20.3 20.3 0 0 1 3.5-5.2 9.01 9.01 0 0 1-1.56-.9c-.16-.13-.16-.37-.01-.52.15-.14.4-.14.56-.02a8.86 8.86 0 0 0 1.57.87c2.28-2.26 4.8-3.6 6.66-3.6h.08Zm-1.82 1.27c-.5.2-1.03.46-1.59.8-.8.5-1.63 1.14-2.43 1.9.6.24 1.31.48 2.13.72a14.9 14.9 0 0 1 1.9-3.42Zm-2.17 4.13a24.2 24.2 0 0 1-2.44-.84 18.92 18.92 0 0 0-3.48 5.02c1.37.3 2.93.57 4.55.75.35-1.83.83-3.5 1.37-4.93Zm-1.4 17.78c-1.65.19-3.22.47-4.6.77a19.03 19.03 0 0 0 3.35 5.08c.7-.3 1.52-.62 2.55-.92-.52-1.44-.97-3.1-1.3-4.93Zm-7.17-6.8H12a.38.38 0 1 0 0 .75h3.55v-.75ZM28 23a3 3 0 1 0 0-6 3 3 0 0 0 0 6Zm2 2.72v13.75L31 41h-2.88v-7.33h-.24V41H25l1-1.53V25.72c-2.34.2-5.7.72-5.7 1.96 0 1.1 2.58 1.63 4.85 1.88L23.8 32c-4-.7-6.81-2.37-6.81-4.32C17 25.09 21.92 23 28 23s11 2.1 11 4.68c0 1.95-2.81 3.62-6.81 4.32l-1.34-2.44c2.27-.25 4.85-.78 4.85-1.88 0-1.24-3.36-1.77-5.7-1.96Z" fill="#DC0057"/></svg>