<?xml version='1.0' encoding='utf-8'?>
<!-- by TradeStack -->
<svg width="56" height="56" viewBox="0 0 56 56" xmlns="http://www.w3.org/2000/svg"><path fill="#F0F3FA" d="M0 0h56v56H0z" /><path fill-rule="evenodd" d="M22 24.48a.5.5 0 0 1 .52-.48c.27.01.5.23.48.52a.5.5 0 0 1-.5.48.51.51 0 0 1-.5-.52ZM35 30v-1h1v-4h-1v-1h2v3.62l1.07-.62h-.39v-1H40v1h-.7l-.93.62.78 1.38H40v1h-2v-1h.24l-.49-.92-.75.55V29h.56v1H35Zm6 0v-1h1v-4h-1v-1h2v3.62l1.07-.62h-.39v-1H46v1h-.7l-.93.62.78 1.38H46v1h-2v-1h.24l-.49-.92-.75.55V29h.56v1H41Zm8-4a2 2 0 1 0 0 4 2 2 0 0 0 0-4Zm-1 2c0 .55.34 1 1 1 .66 0 1-.41 1-1 0-.59-.34-1-1-1-.67.01-1 .45-1 1Zm-16.23-.6h1.88c-.14-.44-.42-.7-.96-.7-.47 0-.78.28-.92.7Zm.93-1.4a2 2 0 0 0-2.03 2.02c.02.97.68 1.98 2.06 1.98 1.1 0 1.83-.68 1.83-1.15v-.02c-.01-.17-.2-.38-.37-.38-.17 0-.28.06-.45.27-.11.13-.61.3-1.02.28h-.02c-.66 0-1.03-.44-1.03-.86V28h3v-.13c0-1.03-.89-1.87-1.97-1.87Zm-11.28 3.18V30h2.12v-.82H23V26h-1.57v.72H22v2.46h-.58Zm-3.94.8v-.78H18v-2.47h-.65V26H19v.73c.08-.08.14-.16.2-.24.2-.25.39-.49.89-.49.45 0 .95.3.95.79a.44.44 0 0 1-.42.46.43.43 0 0 1-.42-.22.32.32 0 0 0-.3-.18c-.54 0-.75.54-.89.9l-.01.04v1.42h.65V30l-2.17-.01Zm-4.1-.71c-.32 0-.5-.11-.5-.34 0-.55 1.4-.77 2.02-.86h.03l.07-.02v.2c0 .57-.76 1.02-1.63 1.02Zm1.24-1.76.1-.02.28-.04v-.23c0-.4-.34-.56-.8-.56-.53 0-.74.13-.85.28-.05.06-.08.12-.1.18-.08.15-.15.28-.43.28-.22.01-.4-.15-.42-.35V27c0-.83 1.2-1 1.65-1 1.22 0 1.95.47 1.95 1.33v1.88h.41V30H15v-.64a2.4 2.4 0 0 1-1.73.64c-.75 0-1.27-.35-1.27-1.03 0-1.05 1.53-1.29 2.62-1.46ZM5 30v-.79h.98v-2.34H5V26h1.83v.27c.08-.08.3-.27.77-.27.47 0 .82.23.9.36.09-.11.48-.35.98-.35.63 0 1.52.35 1.52 1.01v2.2h.5V30H9.46v-.79H10v-1.96c0-.33-.18-.48-.52-.48-.44 0-.48.24-.48.52v1.92h.23V30H7.5v-.79H8v-1.94c0-.34-.15-.5-.49-.5-.37 0-.51.18-.51.5v1.94h.29V30H5Zm19-.79V30h2.29v-.79H26v-1.94c0-.32.14-.5.51-.5.34 0 .49.16.49.5v1.94h-.49V30h1.72v-.79H28V27.3c0-.28.04-.52.48-.52.34 0 .52.15.52.48v1.96h-.53V30h2.02v-.79H30v-2.19c0-.66-.9-1-1.52-1-.5 0-.9.23-.98.34-.08-.13-.43-.36-.9-.36-.47 0-.69.2-.77.27V26H24v.87h1v2.34h-1Z" /></svg>