<?xml version='1.0' encoding='utf-8'?>
<!-- by TradeStack -->
<svg width="56" height="56" viewBox="0 0 56 56" xmlns="http://www.w3.org/2000/svg"><path fill="#F0F3FA" d="M0 0h56v56H0z" /><path d="M22.1 16.12c.3.5.22 1.06.22 1.27 0 0-1.73 3.68-1.65 4.17 1.92-1.94 3.82-4.3 5.95-5.96.75-.1 1.3.48 1.68 1.05.32.22.3 1.17.28 1.28-.02.34-.18.54-.28.84-4.68 6.9-4.58 8.9-4.63 8.8.02.4-.07 1.1.32 1.5.2.37.55.28.84.42 1.94-.6 2.88-2.73 3.98-4.24-.1.56-.43 1.7-.43 1.7-1.01 2.16-2.36 4.68-4.73 5.83l-.32.1c-.28.04-.58.15-1.26.11-.53-.27-.98-.16-1.48-1.16a3.89 3.89 0 0 1-.2-1.8c.61-4.08 1.63-5.57 1.77-6.79-2.76 2.97-4.64 6.29-6.94 9.43-.14.02-.07 0-.42 0-.4-.16-.5-.65-.73-.95.03-.36-.29-1.03.32-2.66.28-.95 2.65-5.22 3.98-7.84l-.1-.11c-3.7 3.4-5.84 7.43-8.08 11.45-.7.86-1.23-.1-1.67-.63-.25-.52-.52-.8-.5-1.24-.1-1.05.21-1.3.4-1.72 3.62-4.77 7.02-9.8 11.85-13.88.91-.36 1.53.4 1.84 1.03Z" fill="#EB1924" /><path d="M47.6 15.65c-.13 1.37-1.16 2.36-2.09 3.4-.87 0-2.83.54-2.83.54-2.08 1.37-4.27 2.7-6.08 4.46 1.9 1.66 4.2 2.77 6.3 4.14.97.83 2.27 1.31 2.93 2.45l.1.32c-.05.83.2 1.55-.42 2.02-.89.1-2.67-1.3-3.79-1.91-2.31-1.28-4.51-2.84-6.83-4.14-.78.76-.89 1.8-1.67 2.56.5 1.42-.82 2.44-1.78 3.29-.14-.04-.21.14-.32.21-.18-.03-.7.1-.94-.1-.14-.13-.14-.33-.32-.44-.12-.46 0-1.27 0-1.27 1.09-1.84 2.01-3.75 3.25-5.53-.23-.8-.1-1.74.52-2.33 1.23-.83 2.33-1.57 2.97-3.28.48-.84.18-.99.18-.99-1.87 1.08-3.91 1.67-5.78 2.77-1.21.63-2 .33-2 .33-.31-.2-.44-.22-.62-.74-.05-.72.22-1.6.22-1.6.78-1.23 2.06-2.16 3.15-3.08.55.72 1.36.1 1.36.1.32.03 4.11-1.61 4.63-1.6.18.04.5-.1.92-.05.18.02.59.15.87.38.66.52.29 2.16.32 2.56 0 0-.37.9-.1.95 2.38-1.35 4.78-2.84 7.13-4.03.4-.14.98.1.73.61Z" fill="#EB1924" /><path fill-rule="evenodd" d="M8 35h40v4H8v-4Zm6.14 2.36a.1.1 0 0 1 .05.09v-.02h.07v-.86h-.07l-.05.09a.25.25 0 0 1-.13.03H13v-.47h1.83c.03 0 .05.02.07.04.02.02.03.05.03.13H15v-.98h-.07v.06l-.03.07c-.02.02-.04.03-.07.03H12v.08c.07 0 .13.01.15.03l.01.07v2.6l-.01.07c-.02.02-.08.04-.15.04v.05h2.83c.03 0 .05 0 .07.02.02.02.03.04.03.1H15v-.96h-.07l-.01.07-.02.07c-.02.02-.04.04-.07.04H13v-.53h1.01c.06 0 .11.02.13.04ZM9.4 38.53v-.07c-.05 0-.15-.02-.15-.1v-.95h.54l.66.94c0 .07-.06.1-.13.1v.06h1.14v-.07c-.05 0-.1-.03-.16-.1l-.64-.93c.45-.1.8-.42.8-.9 0-.7-.55-.94-1.17-.94H8.29v.08c.07 0 .1.01.12.03.02.02.02.06.02.07v2.6c0 .07 0 .1-.14.1v.08H9.4Zm1.19-2c0 .2-.13.3-.43.3h-.92v-.6h.92c.2 0 .43.06.43.3Zm5.2.87-.01.02-.01.08c0 .2.44.3.66.35l.08.01c.14.04.29.04.43.04.28 0 .48-.04.6-.1.13-.08.2-.17.2-.3 0-.07-.05-.1-.16-.14l-.1-.02-.33-.05-.55-.06c-.2-.01-.37-.05-.55-.1-.3-.1-.6-.3-.6-.65 0-.15.03-.27.08-.38.22-.44.81-.56 1.25-.56.38 0 .76.08 1.14.15l.12.03.09.02.09.01a.2.2 0 0 0 .06 0l.03-.01.05-.06.05.02-.37.78-.07-.04v-.05c0-.04-.04-.08-.1-.11-.3-.15-.7-.2-1.04-.2-.16 0-.64.01-.64.27 0 .07.04.1.1.14.08.04.17.06.28.08l.5.05c.35.03.7.06 1.04.23.22.15.36.38.36.65 0 .13-.02.24-.07.36-.23.55-.96.65-1.48.65-.23 0-.43-.01-.6-.03-.13-.02-.26-.06-.4-.1-.16-.05-.32-.1-.47-.1-.02 0-.04 0-.06.02l-.05.05-.07-.02.4-.99.11.06Zm29.1.04v-.03l-.1-.05-.41 1h.07l.05-.05.06-.01c.15 0 .31.05.48.1.13.04.26.08.39.1.18.01.37.03.6.03.52 0 1.25-.1 1.48-.65a.87.87 0 0 0 .07-.36c0-.27-.14-.5-.35-.65-.34-.17-.7-.2-1.06-.23a6.1 6.1 0 0 1-.76-.13c-.07-.03-.1-.07-.1-.14 0-.26.48-.27.63-.27.34 0 .74.04 1.04.2.07.03.1.07.1.1v.06l.07.03.38-.77-.06-.02-.05.05-.03.01-.06.01-.09-.01a2.5 2.5 0 0 0-.09-.02l-.12-.03c-.38-.08-.75-.15-1.14-.15-.44 0-1.03.12-1.24.56a.85.85 0 0 0-.1.37c0 .35.31.56.61.65.18.06.36.1.55.11l.55.06c.13 0 .24.03.32.05l.11.02c.1.03.16.07.16.14 0 .13-.07.22-.2.29-.12.07-.31.1-.6.1-.14 0-.28 0-.43-.03-.02 0-.04 0-.07-.02-.23-.05-.67-.15-.67-.34l.01-.08Zm-25.27 1.02c.08 0 .11-.02.13-.04.02-.02.02-.03.02-.07v-2.09h-.95c-.03 0-.05.02-.07.04l-.02.06-.01.06h-.07v-.99h.07c0 .05.01.1.03.13.02.01.04.03.07.03h2.7c.04 0 .06-.02.08-.03l.02-.07.01-.06h.07v1h-.07c0-.08-.01-.12-.03-.13-.02-.02-.04-.04-.07-.04h-.95v2.1s0 .04.02.06c.02.02.06.04.13.04v.07h-1.12v-.07h.01Zm8.58-2.87v.07c.1 0 .18.05.18.1v1.5c0 .41-.3.6-.7.6-.4 0-.7-.19-.7-.6v-1.5c0-.04 0-.06.03-.08.01-.02.05-.03.12-.03v-.08h-1.12v.08c.07 0 .1.01.12.03.02.02.02.06.02.07v1.52c0 .87.69 1.28 1.51 1.28.83 0 1.52-.41 1.52-1.28v-1.5c0-.04 0-.1.14-.1v-.08H28.2Zm2.77 2.87v.07h-1.12v-.07c.14 0 .14-.04.14-.1v-2.6c0-.1-.07-.11-.14-.11v-.08h2c.64 0 1.16.24 1.16.94 0 .48-.35.8-.8.9l.64.92c.04.08.1.11.16.11v.07H31.9v-.05c.08 0 .12-.04.12-.1l-.64-.95h-.53v.94c0 .07 0 .1.14.1Zm.78-1.62c.3 0 .43-.11.43-.31 0-.24-.23-.3-.43-.3h-.92v.6h.92Zm2.65 1.7v-.08c-.1 0-.03-.1-.03-.1l.16-.48h1.3l.16.43c.04.09 0 .15-.1.15v.07H37v-.07a.14.14 0 0 1-.1-.04.59.59 0 0 1-.07-.12l-1-2.42-.05-.14c0-.06.04-.08.1-.08v-.07h-1.43v.07l.03.01.04.01c.08 0 .01.14 0 .16l-.94 2.5a.4.4 0 0 1-.06.08.14.14 0 0 1-.09.04v.07h.98Zm.7-2.4.53 1.3h-1.03l.5-1.3Zm-12.13 2.3v.07H22v-.07c.04 0 .07-.02.09-.03a.4.4 0 0 0 .05-.1l.94-2.48c.02-.03.08-.17 0-.17h-.03l-.04-.01v-.08h1.43v.08c-.06 0-.1.01-.1.07l.06.14 1 2.42.07.13c.02.01.05.03.09.03v.07h-1.09v-.07c.1 0 .13-.06.1-.14l-.17-.44h-1.3l-.16.47s-.06.11.04.11Zm1.23-1-.54-1.32-.5 1.31h1.04Zm13.29-1.85v.07c.05 0 .09.05.09.1v2.6c0 .06 0 .1-.15.1v.07h1.07v-.07c-.08 0-.15-.02-.15-.1V36.6l1.52 1.66.05.06.02.03c.08.08-.06.1-.1.1v.08h1.05v-.07c-.07 0-.1-.02-.12-.04l-.01-.03-.01-.04v-2.6c0-.07 0-.1.14-.1v-.08h-1.02v.08c.09.01.12.05.12.1v1.5l-1.33-1.51c0-.02.02-.04.04-.06h.02l.1-.02v-.07H37.5Zm4.68 2.87c.15 0 .15-.04.15-.1v-2.1h-.95c-.03 0-.05.02-.07.04l-.02.06-.01.06h-.07v-.99h.07c0 .05.02.1.03.13.02.01.04.03.07.03h2.7c.04 0 .06-.02.08-.03l.02-.07.01-.06h.08v1h-.08c0-.08-.01-.12-.03-.13-.02-.02-.04-.04-.07-.04h-.95v2.1c0 .08.07.1.15.1v.07h-1.1v-.07Z" fill="#17AA5A" /></svg>