<!-- by TradeStack --><svg width="56" height="56" viewBox="0 0 56 56" xmlns="http://www.w3.org/2000/svg"><path fill="#F0F3FA" d="M0 0h56v56H0z"/><path d="M36 27.56V24h-2.5v4.07l2.5-.51Zm-4.81.94L31 28l1.5-4H30l-1 3h-.5v-3H26v5.36c1.85-.28 3.58-.57 5.19-.86ZM23 29.8V24h-2.5v6.12c.86-.1 1.69-.22 2.5-.33Zm-2.5 1.32 4.5-.3V32h-4.5v-.9Zm-1-.87V30h-3v-1h2v-2h-2v-1h3v-2H14v6.86c1.92-.2 3.76-.4 5.5-.62ZM14 31.4c1.79-.05 3.63-.13 5.5-.23V32H14v-.6Zm-1-.43V24H9l-.5 3-.5-3H4v8h2.5v-4l.87 3.47 2.31-.2.82-3.27v3.2l2.5-.24Zm-2.5.51 2.5-.05V32h-2.5v-.53Zm-.87.01-2.26.02.13.5h2l.13-.52ZM26 30.73a195 195 0 0 0 2.5-.23V32H26v-1.27Zm3.47-.32 2.34-.26.69 1.85H30l-.53-1.6Zm4.03-.46c.84-.1 1.68-.22 2.5-.34V32h-2.5v-2.05Z"/><path d="M48.14 24H45v1.19c1.3-.44 2.34-.84 3.14-1.19Zm-4.32 1.56c-.5-1.22-2-1.56-2.82-1.56h-1c-2 0-3 1.67-3 2.5v.84c.9-.2 1.74-.4 2.53-.6a.93.93 0 0 1 .97-.74c.35 0 .59.13.74.3.95-.25 1.8-.5 2.58-.74Zm-2.32 3.12c.86-.17 1.7-.35 2.5-.54v1.36c0 .83-.6 2.5-3 2.5h-1c-.83 0-3-.5-3-2.5v-.04l2.5-.4c.02.34.24.94 1 .94.8 0 1-.67 1-1v-.32Zm3.5-.78c.87-.22 1.7-.45 2.5-.69V28c1 0 1.5-.2 1.5-1 0-.1 0-.19-.02-.27.86-.3 1.67-.6 2.41-.94.11.44.11.88.11 1.21 0 1-.67 2-1 2.5L52 32h-3l-1-2h-.5v2H45v-4.1Z" fill="#B49C04"/><path d="M47.5 26v1.2l1.5-.4c0-.8-1-.8-1.5-.8Z" fill="#B49C04"/></svg>