<?xml version='1.0' encoding='utf-8'?>
<!-- by TradeStack -->
<svg width="56" height="56" viewBox="0 0 56 56" xmlns="http://www.w3.org/2000/svg"><path fill="#F0F3FA" d="M0 0h56v56H0z" /><path d="m41.5 25 .5 6h-1.8l-.2-3.75L39 31h-2l-1-3.75-.2 3.75H34l.5-6h2l1.52 4.15L39.5 25h2ZM11.5 25l.5 6h-1.8l-.2-3.75L9 31H7l-1-3.75L5.8 31H4l.5-6h2l1.52 4.15L9.5 25h2Z" /><path d="M16.79 30h-2.6l-.42 1H12l2.52-6h1.96L19 31h-1.8l-.41-1Zm-.44-1-.86-2.38-.85 2.38h1.71Z" fill="#D2B32E" /><path d="m22.25 31-1.33-2.27h-.37V31H19v-6h2.6c.5 0 .93.08 1.28.25a1.76 1.76 0 0 1 .7 2.7c-.23.32-.58.54-1.05.67L24 31h-1.75Zm-1.7-3.3h.96c.29 0 .5-.06.64-.2a.71.71 0 0 0 .22-.55c0-.23-.08-.4-.22-.54-.14-.13-.35-.2-.64-.2h-.96v1.5Z" /><path d="m27.96 31-2.46-2.65V31H24v-6h1.5v2.63L27.94 25h1.96L27 28l3 3h-2.04Z" /><path d="M31.58 31c-1.13 0-2.54-.48-2.58-1.81h1.72c.05.43.35.67.82.67.48 0 .77-.21.77-.55 0-.55-.86-.7-1.25-.8-.93-.26-2.04-.62-2.04-1.77 0-1.27 1.34-1.74 2.41-1.74 1.12 0 2.41.47 2.49 1.75h-1.75c-.03-.38-.34-.6-.8-.6-.38 0-.64.18-.64.53 0 .53.87.67 1.24.78.89.27 2.03.62 2.03 1.74 0 1.26-1.34 1.8-2.42 1.8ZM43.5 26v1.5h2v1h-2V30h2v1H42v-6h3.5v1h-2ZM52 31h-1.5l-3-4v4H46v-6h1.5l3 4v-4H52v6Z" /></svg>