<?xml version='1.0' encoding='utf-8'?>
<!-- by TradeStack -->
<svg width="56" height="56" viewBox="0 0 56 56" xmlns="http://www.w3.org/2000/svg"><path fill="#F0F3FA" d="M0 0h56v56H0z" /><path d="M28.05 18h.93l.45.04c.5.03.97.19 1.4.47.9.62 1.13 1.9 1.1 2.9 0 .04-.04.13-.09.14h-2.03c-.04 0-.06-.02-.06-.07.06-1.1-.73-1.6-1.75-1.65a4.01 4.01 0 0 0-3.5 2.03c-.6 1-1.58 3.38-.73 4.45.44.57 1.05.91 1.8.82a6.88 6.88 0 0 0 3.03-1.39c.02-.02.02-.03-.01-.03l-2.19-.1c-.03 0-.05-.03-.05-.07l.16-1.47c0-.02 0-.03.02-.04l.03-.03h5.03l.02.04-.7 4.92c0 .03-.02.04-.05.04h-1.48c-.02 0-.04 0-.03-.03l.22-1.7v-.01a.03.03 0 0 0-.05-.02 73.26 73.26 0 0 1-7.95 4.82 42.02 42.02 0 0 1-6.85 2.84v-2.12c2.15-.61 4.2-1.43 6.19-2.45a45.7 45.7 0 0 0 2.56-1.44v-.02h-.02c-1.75-.53-2.54-2.01-2.36-3.72a8.25 8.25 0 0 1 4.21-6.42c.8-.43 1.72-.67 2.75-.73Z" fill="#01427C" /><path d="m14.9 23.48.54-.24a4.96 4.96 0 0 1 2.04-.3c1.6.06 3.18.9 3.08 2.65-.1 1.96-1.6 3.6-3.39 4.27-.93.36-1.99.44-3 .38a4 4 0 0 1-2.36-.82c-.63-.54-.87-1.45-.72-2.42-.02.01 0-.02 0 0-.02 0 .01-.01 0 0h2.63c0-.04.04 0 0 0-.06.7.3 1.4 1.04 1.5 1.04.12 1.85-.18 2.41-.93.7-.91 1.02-2.7-.61-2.88-.91-.1-1.64.03-2.21.6a.23.23 0 0 1-.14.05H12l-.01-.02v-.03l2.64-6.26V19l.03-.01h7.23c.03 0 .05.03.04.06l-.56 1.9c0 .01-.01.03-.03.03l-.04.01h-5.29c-.04 0-.06.02-.08.06l-1.07 2.37c-.03.06-.01.07.04.05ZM47.67 31.6c-.02-.05-.04-.05-.07 0l-.5 1.38a.03.03 0 0 1-.03.02h-.57l-.01-.01a.02.02 0 0 1 0-.02l1.67-4.48.02-.01h.57a.02.02 0 0 1 .01.02l-1.02 2.75c-.02.06-.01.06.04.02l1.5-1.35a199.72 199.72 0 0 1-1 1.58 4.51 4.51 0 0 0 .9 1.5h-.75l-.02-.01c-.34-.44-.6-.9-.74-1.39ZM35.35 30.3h-.48c-.02 0-.02 0-.02-.02l.17-.45c0-.02.02-.02.03-.02h.5a.09.09 0 0 0 .08-.06l.25-.71c.01-.03.03-.04.06-.04h.54c.02 0 .03.01.02.03l-.26.7c-.02.05 0 .08.05.08h.9c.02 0 .03 0 .02.02l-.16.45c0 .02-.01.02-.03.02h-.93a.08.08 0 0 0-.08.06c-.22.57-.43 1.14-.62 1.7-.25.67.63.43.9.33 0 0 .02 0 .01.02l-.03.39c0 .02-.01.03-.03.04-.5.2-1.48.36-1.51-.41 0-.14.01-.28.06-.42l.6-1.64c.02-.05 0-.07-.04-.07ZM29.84 30.59c.34-.36.66-.6 1.2-.59.79 0 .66.93.5 1.38a129.25 129.25 0 0 1-.67 1.62h-.56a.02.02 0 0 1-.01-.02l.65-1.67c.1-.28.23-.97-.34-.84-.39.09-.69.41-.93.7-.14.15-.24.33-.31.53a31.06 31.06 0 0 1-.52 1.3H28.28v-.01h-.01v-.02l1.12-2.85a.1.1 0 0 1 .04-.05.1.1 0 0 1 .05-.02h.48l.01.02.01.02v.02l-.18.45c-.03.07-.02.08.04.03ZM32.36 31.77c-.08.22-.09.41-.02.58.19.42 1.07.15 1.4 0h.02l.04.36c0 .01 0 .03-.02.03-.83.39-2.22.49-2.04-.78.13-.97 1.12-2.15 2.38-1.93.42.07.59.45.44.8-.28.68-1.4.86-2.12.88-.04 0-.06.02-.08.06Zm.25-.47c.45-.02 1.19-.12 1.39-.52.11-.23-.09-.38-.33-.36-.5.03-.87.41-1.1.83-.02.03 0 .05.04.05ZM41.93 32.8c-.26-.2-.38-.54-.34-.92.05-.39.25-.8.58-1.14.32-.34.74-.59 1.16-.7.41-.1.8-.04 1.06.17.26.2.38.53.34.91-.05.39-.25.8-.58 1.14-.32.34-.74.59-1.16.7-.41.1-.8.04-1.06-.17Zm.53-.3c.09.06.19.08.3.07.12 0 .25-.03.37-.1.13-.05.25-.14.37-.24.12-.1.23-.22.32-.36.19-.26.3-.56.3-.82.01-.26-.08-.46-.25-.56a.56.56 0 0 0-.3-.06 1 1 0 0 0-.38.1 2 2 0 0 0-.69.6c-.18.27-.3.56-.3.82 0 .26.08.46.26.56ZM52 30.16v.22l-.12.2c-.02.02-.04.03-.07.01a1.38 1.38 0 0 0-.96-.13c-.23.06-.38.3-.25.5.2.26.61.37.82.66.33.47-.02 1.01-.53 1.23-.49.2-1.04.2-1.67-.02-.01 0-.02-.02 0-.03l.2-.4c.01-.01.02-.02.03-.01.41.2 1.26.34 1.46-.18.21-.53-1.28-.64-.92-1.56.12-.3.35-.5.7-.58.46-.12.9-.08 1.31.1ZM40.04 32.29c0 .04.02.05.05.01a7.8 7.8 0 0 0 1.06-2.25c0-.03.03-.05.07-.05H41.7l.02.02v.03a9.25 9.25 0 0 1-1.56 2.91.1.1 0 0 1-.08.04h-.48c-.03 0-.05-.02-.05-.05l-.04-2.31c0-.08-.02-.08-.05-.02A17.5 17.5 0 0 1 37.93 33a.11.11 0 0 1-.05.01h-.5c-.03 0-.05-.02-.05-.05l.06-.83c.05-.7.05-1.4-.01-2.1 0 0 0-.02.02-.02h.51c.03 0 .04.01.04.04.04.75.02 1.46-.06 2.14-.02.14.01.15.1.03a20.3 20.3 0 0 0 1.33-2.2.1.1 0 0 1 .05 0h.54c.03 0 .05 0 .05.04.03.49.04.97.05 1.43 0 .32.01.6.03.81ZM46.08 30.52c.3-.37.63-.58 1.15-.5.02 0 .03.01.03.03l-.15.43c0 .01-.01.02-.03.02-.64-.02-1.23.5-1.44 1.06a48.45 48.45 0 0 1-.56 1.44h-.56a.02.02 0 0 1-.02 0 .02.02 0 0 1 0-.03l1.13-2.94a.03.03 0 0 1 .03-.02c.19-.01.38 0 .56 0v.01l-.18.48c-.02.08-.01.08.04.02Z" fill="#01427C" /><path d="M6.8 35.84c-.4-.08-.75-.2-1.09-.36a3.43 3.43 0 0 1-1.41-1.13c-.92-1.29.49-3.5 1.33-4.6a24.82 24.82 0 0 1 3.76-4 16.46 16.46 0 0 0-2.73 3.22c-.4.65-.87 1.61-.75 2.39.08.57.4 1 .93 1.26l.52.25.88.29c1.29.28 2.58.33 3.88.13l.61-.08 2-.43-.01 2.12-2.03.56-.57.13a13.7 13.7 0 0 1-3.86.4l-.91-.05-.56-.1Z" fill="url(#a1nesucwc)" /><defs><linearGradient id="a1nesucwc" x1="4" y1="33.5" x2="14.72" y2="33.93" gradientUnits="userSpaceOnUse"><stop stop-color="#30B34B" /><stop offset=".49" stop-color="#00BCE9" /><stop offset="1" stop-color="#01427C" /></linearGradient></defs></svg>