<?xml version='1.0' encoding='utf-8'?>
<!-- by TradeStack -->
<svg width="56" height="56" viewBox="0 0 56 56" xmlns="http://www.w3.org/2000/svg"><path fill="#F0F3FA" d="M0 0h56v56H0z" /><path opacity=".5" d="M16 25h-4v1.22l.7.6v.47h-.33V28h3.24v-.7h-.32v-.48l.71-.6V25ZM44 25h-4v1.22l.7.6v.47h-.33V28h3.24v-.7h-.32v-.48l.71-.6V25Z" fill="#002A5C" /><path d="M28.06 12C17.4 12 13.58 20.67 13 25h2.37c.82-3.48 4.5-10.45 12.7-10.45 8.19 0 11.67 6.97 12.4 10.45H43c-.54-4.33-4.27-13-14.94-13ZM15 28h-2v11.16h-.5V40h3v-.84H15V28ZM43 28h-2v11h-.5v1h3v-1H43V28Z" fill="#002A5C" /><path d="M16 27.92C16 21.33 21.37 16 28 16s12 5.33 12 11.92V40H16V27.92Z" fill="#002A5C" /><path fill-rule="evenodd" d="M18.96 36v-.64h.63c.25.02.74-.16.74-1.07s.26-6.5.38-9.19a.87.87 0 0 0-.86-.62h-.53V24h3.32l3.58 8.8 3.96-8.8h4.19c.85.08 2.63.68 2.63 2.4 0 1.38-1.28 2.12-1.88 2.32C36 28.9 38 29.85 38 32.2 38 35.1 34.57 36 33.84 36h-5.12v-.64h.78c.18-.04.5-.2.5-.59v-8.48L25.91 36h-.44l-4-9.86-.14 8.15c-.02.36.06 1.07.58 1.07h.8V36h-3.75ZM32 25v3.63c0 .13.26.17.39.18h.94c.28 0 1.67-.5 1.67-2.26a1.97 1.97 0 0 0-1.74-2h-.87c-.25 0-.36.3-.39.45Zm0 9.46V29.4h1.12c.85 0 2.88.82 2.88 2.95 0 2.13-1.46 3.14-2.66 3.14-.96 0-1.3-.7-1.34-1.04Z" fill="#C3A300" /></svg>