<!-- by TradeStack --><svg width="56" height="56" viewBox="0 0 56 56" xmlns="http://www.w3.org/2000/svg"><path fill="#F0F3FA" d="M0 0h56v56H0z"/><path fill-rule="evenodd" d="M4 31 5 25h2.15l.8 3.87.8-3.87h2.14l1 6H9.82l-.46-3-.64 3H7.14l-.64-3-.46 3H4Zm10.5 0H12.5l1.92-6h2.37l1.92 6H16.7l-.3-1H14.8l-.3 1Zm9.5 0h2.02l.3-1h1.58l.3 1h2.02l-1.93-6h-2.37L24 31Zm-5-6h2v4h2v2h-4v-6Zm14 2.36L34.17 25h2.33L35 28l1.83 3H34.5L33 28.32V31h-2v-6h2v2.36ZM43 28a3 3 0 1 1-6 0 3 3 0 0 1 6 0Zm-2 0c0 .66-.45 1.2-1 1.2s-1-.54-1-1.2c0-.66.45-1.2 1-1.2s1 .54 1 1.2Zm3-3h3.5v1.5H46v.9h1.5V29H46v2h-2v-6Zm-28.4 2.4.36 1.2h-.73l.37-1.2Zm11.87 1.2-.36-1.2-.37 1.2h.73ZM49 25h-1v6h2v-2h1.5v-1.6H50v-.9h1.5V25H49Z" fill="#09AB55"/></svg>