<?xml version='1.0' encoding='utf-8'?>
<!-- by TradeStack -->
<svg fill="none" viewBox="0 0 56 56" xmlns="http://www.w3.org/2000/svg"><path fill="#F0F3FA" d="M0 0h56v56H0z" /><path d="M4 32v-7h1l2.5 6 2.5-6h1v7h-1v-6h.5L8 32H7l-2.5-6H5v6H4ZM12 32v-7h5v1h-4v2h4v1h-4v2h4v1h-5ZM18 32v-7h1v6h3v1h-4ZM23 32v-7h1v7h-1ZM27.5 32c-.863 0-1.788-.232-2.5-.732l.473-.923c.648.43 1.252.655 2.027.655.176 0 1.5 0 1.5-1 0-.834-1.415-.878-2-1-1.2-.258-2-.979-2-2 0-1.3 1.189-2 2.5-2 .438 0 1.5.2 2 .7l-.5.8c-.5-.5-1.215-.5-1.5-.5-1.215 0-1.5.443-1.5 1 0 .769 1.236.941 1.5 1 1.302.248 2.5.364 2.5 2 0 1.575-1.065 2-2.5 2ZM31 32v-7h3c1.328 0 2 .608 2 2 0 1.025-.426 2-1.5 2l1.5 3h-1l-1.5-3H32v3h-1Zm1-4h2c.523 0 1-.343 1-.968 0-.766-.609-1.032-1-1.032h-2v2Z" fill="#595959" /><path d="M37 28.495c0-.706.14-1.319.423-1.839a2.968 2.968 0 0 1 1.209-1.223C39.156 25.144 40.286 25 41 25h3v3c0 .7-.144 1.808-.433 2.334a3.03 3.03 0 0 1-1.209 1.233c-.524.289-1.147.433-1.868.433-.714 0-1.334-.144-1.858-.433a3.113 3.113 0 0 1-1.21-1.233c-.281-.526-.422-1.14-.422-1.839Zm2 0C39 29.5 39.542 30 40.49 30S42 28.968 42 28v-1h-1c-1.069 0-2 .204-2 1.495Z" fill="url(#a)" /><path d="M46 32v-7h1l4.5 6H51v-6h1v7h-1l-4.5-6h.5v6h-1Z" fill="#4F5150" /><defs><linearGradient id="a" x1="37" y1="28" x2="44" y2="28" gradientUnits="userSpaceOnUse"><stop stop-color="#8B0404" /><stop offset="1" stop-color="#F90808" /></linearGradient></defs></svg>