<!-- by TradeStack --><svg width="56" height="56" viewBox="0 0 56 56" xmlns="http://www.w3.org/2000/svg"><path fill="#F0F3FA" d="M0 0h56v56H0z"/><path d="M41 21h-1.33v1.33H41V21ZM44.33 20H43v1.33h1.33V20ZM43.33 23H42v1.33h1.33V23ZM46 23h-1v1h1v-1ZM48.07 21.6h-.97v.97h.97v-.97ZM45.67 25.33H45V26h.67v-.67ZM47.33 27.67H47V28h.33v-.33ZM48 25h-1v1h1v-1ZM50 24h-1v1h1v-1ZM50 27h-1v1h1v-1ZM51.57 26H51v.57h.57V26ZM38 23h-1v1h1v-1ZM35.57 24.43H35V25h.57v-.57Z" fill="#65BBA9"/><path d="M11 29.85 8.4 24 6 33h1.34l1.33-5.05L11 33l2.34-5 1.3 5H16l-2.39-9-2.6 5.85ZM19 27c-.83 0-1.54.3-2.13.89a2.91 2.91 0 0 0-.87 2.08A2.94 2.94 0 0 0 19 33c1.1 0 2-.43 2.65-1.27l.06-.08-1.02-.77-.05.08a1.93 1.93 0 0 1-2.7.4c-.3-.22-.51-.57-.61-1.02H22v-.11a3.08 3.08 0 0 0-.87-2.33c-.58-.6-1.3-.9-2.12-.9Zm-1.5 2.19c.33-.6.82-.9 1.52-.9.64 0 1.11.3 1.47.9h-3ZM24.3 25H23v8h1.3v-8ZM28.02 27c-.85 0-1.55.3-2.14.89a2.9 2.9 0 0 0-.88 2.08A2.94 2.94 0 0 0 28 33c1.11 0 2-.43 2.66-1.27l.07-.08-1.03-.77-.07.08a1.94 1.94 0 0 1-2.7.4c-.3-.22-.51-.57-.62-1.02H31v-.11a3.07 3.07 0 0 0-.88-2.33c-.55-.6-1.28-.9-2.1-.9Zm-1.54 2.19c.34-.6.83-.9 1.54-.9.64 0 1.1.3 1.46.9h-3ZM37.58 27h-1.83l-1.23 1.56L33.25 27h-1.83l2.2 2.72L31 33h1.8l1.7-2 1.7 2H38l-2.6-3.28L37.59 27ZM40.3 25H39v1h1.3v-1ZM40.3 27H39v6h1.3v-6ZM43.29 29.28c-.7-.28-.8-.5-.8-.61 0-.19.06-.4.57-.4.18 0 .32.03.45.1.13.06.3.16.5.31l.06.05.91-.81-.1-.09c-.65-.55-1.24-.83-1.77-.83-.54 0-.98.17-1.34.48-.36.32-.54.74-.54 1.22 0 .4.13.73.39 1 .25.27.69.52 1.32.77.56.21.85.46.85.71 0 .14-.06.25-.21.37a.91.91 0 0 1-.56.17c-.3 0-.6-.15-.9-.44l-.04-.05-1.08.54.08.11c.5.75 1.16 1.12 1.96 1.12.52 0 .98-.18 1.37-.55.4-.37.59-.8.59-1.28 0-.42-.15-.79-.4-1.09-.29-.3-.73-.56-1.31-.8Z" fill="#14374B"/></svg>