<?xml version='1.0' encoding='utf-8'?>
<!-- by TradeStack -->
<svg width="56" height="56" viewBox="0 0 56 56" xmlns="http://www.w3.org/2000/svg"><path fill="#F0F3FA" d="M0 0h56v56H0z" /><path d="M31.39 13.58 27.65 12l-4.61 1.76v.48l4.6-1.67 3.75 1.5v-.49Zm-7.55 19.1.58-.2V15.02l-.58.16v17.5Zm-1.6.14.57-.22V15.73l-.47-.5 5.3-1.8 4.84 1.85v-.48l-4.83-1.94-5.41 1.93v18.03Zm-10.7-4.45.91.32v-2.2l-.9-.3v2.18Zm-1.17.5.9-.43v-2.19l-.9.42v2.2Zm-.28.11-.9.44v-2.2l.9-.42v2.18Zm-1.19.57-.9.43v-2.2l.9-.41v2.18Zm5.01-.33.9.33v-2.2l-.9-.31v2.18Zm-.28-.1-.9-.33v-2.18l.9.3v2.2ZM8 30.21V38h13.77l-1.04-.45H8.46v-7.57l-.46.25Zm2 3.65-.45.24v-4.63l.45-.24v4.63Zm13.61-3.05-.57.21v-15.5l.57-.15v15.44Zm-7.6 2.66-.46.19v-13.4l.46-.14v13.35Zm.13-1.22.46-.18V19.94l-.46.14v12.18Zm1.06 1.48-.46-.19v-13.6l.46.15v13.64Zm30.8-5.5-.46-.24v-2.47l.46.24v2.47Zm-1.09-.53.46.25v-2.48l-.46-.23v2.46Zm-.17-.04-.46-.24v-2.47l.46.24v2.47Zm.8 10.08L48 38v-9.58l-.46-.24v9.57Zm-.17-2.33-.46-.24V27.9l.46.25v7.28Zm-1.09.67.46.24v-8.48l-.46-.24v8.48Zm-7.94-15.01-.46-.2v-2.46l.46.2v2.46Zm-1.08-.47.46.2v-2.46l-.46-.21v2.47Zm-.15.03-.46.22V18.4l.46-.24v2.48Zm.77 12.56.46.28V21.31l-.46-.23V33.2Zm-.16-3.13-.46-.24v-9.04l.46.2v9.08Zm-1.07 1.96.46-.25V20.82l-.46.22v11Zm-18.13-1.91.46.18v-7.77l-.46-.14v7.73Zm-5.06 4.41-.46-.18v-3.57l.46.17v3.58Zm19.7-1.62-.5-.22V15.8l.5.16V32.9Zm-3.65-6.58.49.21v-9.56l-.49-.16v9.5Zm-1.02 3.81-.49-.13v-10.8l.49.1v10.83Zm12.3-1.48.47.23v-9.06l-.46-.22v9.05Zm-4.3-10.19v.54l-2.87 1.32v-.47l2.87-1.39ZM43 33.9l.46-.14v-5.72l-.46.15v5.71Zm-1 .35-.46.15v-3.16l.46-.16v3.17Zm-20.4-7.49-.47-.18v-4.83l.46.14v4.87Zm-.04-5.56v-.49l-4.83-1.94v.57l4.83 1.86Zm24.56 4.39v-.51l-4.56 1.5v.47l4.56-1.46Zm-6.59-1.34-.46-.2v-2.46l.46.2v2.46ZM8 27.5l.9-.43v-2.19l-.9.42v2.2Zm2.09-1-.9.43v-2.2l.9-.42v2.19Zm.28-.12.9-.43v-2.18l-.9.42v2.2Zm3.54.35.9.33v-2.2l-.9-.31v2.18Zm-.28-.1-.9-.32V24.1l.9.31v2.2Zm-2.08-.75.9.32V24l-.9-.3v2.18Zm11.68 9.46c-.69.03-1.19.53-1.35 1.28.18-.25.38-.5.62-.66.47-.32 1.04-.23 1.57-.1l.7.22c1.18.36 2.4.73 3.62.5a7.4 7.4 0 0 1-1.72-.27c-.45-.12-.9-.28-1.34-.44-.4-.14-.78-.29-1.18-.4a3 3 0 0 0-.92-.13Zm4.48.62c.57 0 1.14-.06 1.7-.16l.72-.14c.47-.09.95-.18 1.42-.23.75-.07 1.55.02 2.1.66.21.24.37.54.47.85a3.4 3.4 0 0 0-.59-.7c-.68-.58-1.57-.54-2.38-.44l-.56.08c-.95.14-1.93.27-2.88.08ZM32.76 37l.09.14h.5l-.07-.08c-.14-.17-.31-.39-.47-.5-.35-.27-.8-.38-1.22-.3-.2.03-.4.1-.59.17.39-.1.8-.14 1.18.01.32.13.42.29.58.56Zm-7.72.12c-.19-.32-.4-.59-.72-.73a1.33 1.33 0 0 0-1.12.04c.44-.29.98-.33 1.45-.07.19.1.78.6.8.77l-.41-.01Zm4.8-3.08c.58.12 1.15.4 1.7.68-.94-.87-2.02-1.33-3.32-1.06-1.26.28-2.42.8-3.56 1.36l.83-1.44-3.2 1.58 2.43-.84-.35.99 2.83-.91a5.18 5.18 0 0 1 2.64-.36Z" fill="url(#ajol3z0gz)" /><defs><linearGradient id="ajol3z0gz" x1="17.11" y1="17.1" x2="26.63" y2="35.85" gradientUnits="userSpaceOnUse"><stop stop-color="#CF6228" /><stop offset="1" stop-color="#7E8082" /></linearGradient></defs></svg>