<!-- by TradeStack --><svg width="56" height="56" viewBox="0 0 56 56" xmlns="http://www.w3.org/2000/svg"><path fill="url(#az3d5pbbh)" d="M0 0h56v56H0z"/><path fill-rule="evenodd" d="M28 44a16 16 0 1 0 0-32 16 16 0 0 0 0 32Zm0-1a15 15 0 1 0 0-30 15 15 0 0 0 0 30Zm14-15a14 14 0 1 1-24-9.8V36.7l3 2.84V23.65l4.71 17.63h4.85L35 23.65v15.88l3-2.84V18.2c2.47 2.53 4 5.99 4 9.8Zm-4.2-10c-2.53-2.47-5.99-4-9.8-4-3.81 0-7.27 1.53-9.8 4h4.5l5.57 15.99L33.57 18h4.23Z" fill="url(#bz3d5pbbh)"/><defs><linearGradient id="az3d5pbbh" x1="10.42" y1="9.71" x2="68.15" y2="76.02" gradientUnits="userSpaceOnUse"><stop stop-color="#1A1E21"/><stop offset="1" stop-color="#06060A"/></linearGradient><linearGradient id="bz3d5pbbh" x1="12" y1="26.03" x2="44" y2="26.03" gradientUnits="userSpaceOnUse"><stop stop-color="#808184"/><stop offset=".22" stop-color="#97989D"/><stop offset=".36" stop-color="#555556"/><stop offset=".5" stop-color="#8D8E92"/><stop offset=".62" stop-color="#F9FAFD"/><stop offset=".86" stop-color="#88898D"/><stop offset="1" stop-color="#7F7F83"/></linearGradient></defs></svg>