<?xml version='1.0' encoding='utf-8'?>
<!-- by TradeStack -->
<svg width="56" height="56" viewBox="0 0 56 56" xmlns="http://www.w3.org/2000/svg"><path fill="#F0F3FA" d="M0 0h56v56H0z" /><path d="M24 18v26c-4.66-.42-8-1.53-8-2.84V20.85c0-.66.83-1.27 2.25-1.76 1.42-.5 3.42-.88 5.75-1.09Z" fill="url(#azs4nr50l)" /><path d="M16 21.15c0 1.64 5.37 5.93 12 5.93s12-10.17 12-11.82v22.86c0-1.64-5.37-6.55-12-6.55s-12 7.86-12 9.5V21.15Z" fill="url(#bzs4nr50l)" /><path d="M40 15.17v22.66c0 1.46-3.75 2.7-9 3.17V12c5.25.47 9 1.71 9 3.17Z" fill="url(#czs4nr50l)" /><defs><linearGradient id="azs4nr50l" x1="16" y1="31" x2="24" y2="31" gradientUnits="userSpaceOnUse"><stop offset=".2" stop-color="#4AA7A9" /><stop offset="1" stop-color="#6DC5A8" /></linearGradient><linearGradient id="bzs4nr50l" x1="40" y1="28.17" x2="16" y2="28.17" gradientUnits="userSpaceOnUse"><stop offset=".23" stop-color="#4AA7A9" /><stop offset=".98" stop-color="#1F4D80" /></linearGradient><linearGradient id="czs4nr50l" x1="40" y1="26.5" x2="31" y2="26.5" gradientUnits="userSpaceOnUse"><stop stop-color="#272963" /><stop offset=".48" stop-color="#1F4D80" /><stop offset="1" stop-color="#3D7B91" /></linearGradient></defs></svg>