<!-- by TradeStack --><svg width="56" height="56" viewBox="0 0 56 56" xmlns="http://www.w3.org/2000/svg"><path fill="#F0F3FA" d="M0 0h56v56H0z"/><path d="M32.9 41c-.3-.26-.2-.74.16-.88A15 15 0 0 0 43 26.02v-.03A15 15 0 0 0 35.49 13H20.5a15.08 15.08 0 0 0-4.7 4.26c-.2.28-.63.3-.83 0a.48.48 0 0 1 0-.55 16.1 16.1 0 0 1 3.7-3.71H13v30h9.34a13.98 13.98 0 0 1-5.04-13.9c.05-.24.29-.4.54-.37.3.04.5.33.43.62a13.06 13.06 0 0 0 0 5.32L20 20h4l4 13 4-13h4l2 17h-4V23l-5 14h-3l-4-14-1 14h-2a13.05 13.05 0 0 0 5.07 6h13.86A13.05 13.05 0 0 0 43 37v-5.42a16.05 16.05 0 0 1-9.64 9.5.48.48 0 0 1-.47-.09Zm-15.62.89a16 16 0 0 1 22.44-22.77c.2.18.2.5.02.7-.2.2-.51.2-.72.02a15 15 0 0 0-21.04 21.34c.23.24.18.62-.1.79a.49.49 0 0 1-.6-.08ZM43 13v7.42c-1.12-3-3.11-5.58-5.67-7.42H43Zm0 30h-3.34A14.07 14.07 0 0 0 43 39.22V43Z" fill="url(#a)"/><defs><linearGradient id="a" x1="28" y1="13" x2="28" y2="43" gradientUnits="userSpaceOnUse"><stop stop-color="#107688"/><stop offset=".47" stop-color="#4B873A"/><stop offset="1" stop-color="#167880"/></linearGradient></defs></svg>