<!-- by TradeStack --><svg width="56" height="56" viewBox="0 0 56 56" fill="none" xmlns="http://www.w3.org/2000/svg">
<rect width="56" height="56" fill="#01B0F3"/>
<path fill-rule="evenodd" clip-rule="evenodd" d="M45 28C45 22.3729 42.266 17.3843 38.0539 14.2902L35.0968 18.3225C38.0701 20.5066 40 24.0279 40 28C40 31.4686 38.5283 34.5936 36.1752 36.7844L39.1465 40.8361C42.7327 37.7192 45 33.1244 45 28ZM38.0538 41.7098L35.0968 37.6775C33.1092 39.1375 30.6553 40 28 40C25.3447 40 22.8908 39.1376 20.9032 37.6775L17.9462 41.7098C20.762 43.7782 24.2383 45 28 45C31.7617 45 35.2381 43.7782 38.0538 41.7098ZM28 11C31.2591 11 34.304 11.9171 36.8907 13.5074L33.9119 17.5549C32.1669 16.5651 30.1495 16 28 16C25.8464 16 23.8252 16.5673 22.0779 17.5607L19.1066 13.509C21.6939 11.9178 24.7398 11 28 11ZM17.9462 14.2902C13.734 17.3843 11 22.3729 11 28C11 33.1026 13.2481 37.6801 16.8078 40.7962L19.7865 36.7487C17.4558 34.5596 16 31.4498 16 28C16 24.0279 17.9299 20.5066 20.9032 18.3225L17.9462 14.2902Z" fill="#F0F3FA"/>
<path fill-rule="evenodd" clip-rule="evenodd" d="M17 22L28 36V27L17.9989 14.362L17 22Z" fill="#F0F3FA"/>
<path fill-rule="evenodd" clip-rule="evenodd" d="M39 22L28 36V27L38.0011 14.362L39 22Z" fill="#F0F3FA"/>
</svg>
