<?xml version='1.0' encoding='utf-8'?>
<!-- by TradeStack -->
<svg width="56" height="56" viewBox="0 0 56 56" xmlns="http://www.w3.org/2000/svg"><path fill="#F0F3FA" d="M0 0h56v56H0z" /><path fill-rule="evenodd" d="m42.81 33.98-.01-.01.21-.12a1 1 0 0 0 .5-.86 1 1 0 0 0-.5-.86l-.58-.34-.58-.33-.58-.33-1.74-1-.58-.33-.58-.33-.58-.34c-.31-.17-.7-.17-1 0l-.59.34-.58.33-.23.14v-3.87l.23.13.58.33.58.34c.32.17.7.17 1 0l.59-.34.58-.33.58-.33 1.74-1 .58-.33.58-.33.58-.34a1 1 0 0 0 0-1.72l-.2-.12.1-.05c1.04-.6 1.4-1.94.8-2.98a2.2 2.2 0 0 0-3.1-.74v-.24a1 1 0 0 0-.5-.86c-.31-.18-.7-.18-1 0l-.59.33-.58.34-.58.33-1.74 1-.58.33-.58.33-.58.34a1 1 0 0 0-.5.86v1.6l-.24-.14-.58-.33-.58-.33-.58-.33-.58-.34-.58-.33-.23-.14.23-.13.58-.33.58-.34a1 1 0 0 0 .5-.86v-5.98a1 1 0 0 0-1-1 1 1 0 0 0-.5.13l-.2.12v-.11c0-1.2-.99-2.18-2.2-2.18a2.19 2.19 0 0 0-2.2 2.3l-.2-.13a1 1 0 0 0-1 0 1 1 0 0 0-.5.87v5.98c0 .36.19.68.5.86l.58.34.58.33.24.13-.24.14-.58.33-.58.34-.58.33-.58.33-.58.33-.24.14v-1.6a1 1 0 0 0-.5-.86l-.58-.34-.58-.33-.58-.33-1.74-1-.58-.33-.58-.34-.59-.33a1.01 1.01 0 0 0-1.36.37.99.99 0 0 0-.14.5v.23a2.2 2.2 0 0 0-3.1.74 2.17 2.17 0 0 0 .91 3.03l-.21.12a1 1 0 0 0-.5.86c0 .36.19.68.5.86l.58.34.58.33.58.33 1.74 1 .58.33.58.33.58.34c.31.17.7.17 1 0l.59-.34.58-.33.23-.14v3.87l-.23-.13-.58-.33-.58-.34c-.31-.17-.7-.17-1 0l-.59.34-.58.33-.58.33-1.74 1-.58.33-.58.33-.58.34a1 1 0 0 0 0 1.72l.21.12-.1.05a2.17 2.17 0 0 0-.8 2.98 2.2 2.2 0 0 0 3.1.74v.24a1 1 0 0 0 .5.86c.3.17.68.17 1 0l.57-.34.58-.33.59-.33 1.74-1 .58-.33.58-.33.58-.34a1 1 0 0 0 .5-.86v-1.6l.24.14.58.33.58.33.58.33.58.34.58.33.23.14-.23.13-.58.33-.58.34a1 1 0 0 0-.5.86v5.98a1 1 0 0 0 1 1 1 1 0 0 0 .5-.13l.2-.12v.11c0 1.2.99 2.18 2.2 2.18a2.19 2.19 0 0 0 2.2-2.3l.2.13a1 1 0 0 0 1 0 1 1 0 0 0 .5-.87v-5.98a1 1 0 0 0-.5-.86l-.58-.34-.58-.33-.24-.13.24-.14.58-.33.58-.34.58-.33.58-.33.58-.33.24-.14v1.6c0 .36.2.69.5.86l.58.34.58.33.58.33 1.74 1 .58.33.58.34.58.33a1 1 0 0 0 1.37-.37.99.99 0 0 0 .14-.5v-.23l.1.06c1.05.6 2.39.24 3-.8.6-1.04.24-2.37-.8-2.97l-.1-.05ZM28 11.08c.6 0 1.1.5 1.1 1.1 0 .6-.5 1.09-1.1 1.09a1.1 1.1 0 1 1 0-2.18Zm-13.26 8.07a1.1 1.1 0 0 0-1.5.4c-.3.52-.12 1.18.4 1.48.53.3 1.2.13 1.5-.4.3-.52.13-1.18-.4-1.48Zm-1.5 17.3c-.3-.51-.12-1.18.4-1.48a1.1 1.1 0 0 1 1.5.4c.3.52.13 1.18-.4 1.49-.52.3-1.2.12-1.5-.4Zm13.66 7.37c0 .6.5 1.1 1.1 1.1a1.1 1.1 0 1 0 0-2.18c-.6 0-1.1.48-1.1 1.08Zm15.86-7.36c-.3.52-.98.7-1.5.4-.53-.3-.71-.97-.4-1.5.3-.52.97-.7 1.5-.4.52.3.7.97.4 1.5Zm-.4-15.43c.52-.3.7-.96.4-1.49a1.1 1.1 0 0 0-1.5-.4c-.53.3-.71.97-.4 1.5.3.52.97.7 1.5.4Zm-1.01 12.62.58-.33.58-.33-.58-.33-.58-.34-.58-.33-.58.33-.58.34-.58.33-.16.09-.12-.07-.78-.45-.79-.45-.05-.03.16-.09.58-.33.58-.33.58-.34-.58-.33-.58-.33-.58-.33-.58.33-.59.33-.58.33-.15.1-.43.24-.58.33v-7.32l.58.33.58.34.58.33.59.33.58.34.58-.34.58-.33.58-.33-.58-.34-.58-.33-.58-.33-.16-.09.05-.03 1.69-.97.16.1.58.32.58.34.58.33.58-.33.58-.34.58-.33-.58-.33-.58-.33-.58-.34-.15-.09a2.18 2.18 0 0 1-1-1.73l-.01-.17v-2l-.58.34-.58.33-.58.33v2.17l-.12.07-.79.45-.79.45-.05.03v-2.17l-.58.33-.58.33-.58.34v3.33L33.8 24l-.58-.33-.58-.33-.58-.34-.58-.33-.58-.33-.58-.33-.58-.34-.58-.33-.58-.33-.58-.34.58-.33.58-.33.58-.33.58-.34.58-.33v-2l-.58.34-.58.33-.58.33-.15.1v-2l.15-.1.58-.32.58-.34.58-.33v-2l-.58.34-.58.33-.58.33-.15.08a2.2 2.2 0 0 1-2.02 0l-.15-.08-.58-.33-.58-.33-.58-.33v2l.58.32.58.34.58.33.15.09v2l-.15-.1-.58-.33-.58-.33-.58-.33v2l.58.33.58.33.58.33.58.33.58.34-.58.33-.58.33-.58.33-.58.34-.58.33-.58.33-.58.33-.58.34-.58.33-.58.33-.58.33v-3.33l-.58-.32-.58-.34-.58-.33v2.17l-.05-.03-1.7-.96v-2.18l-.57-.33-.59-.33-.58-.34v2.17a2.15 2.15 0 0 1-1 1.73l-.16.1-.58.33-.58.33-.58.33.58.34.58.33.58.33.58-.33.58-.33.58-.34.16-.09.12.07.78.45.8.45.04.03-.15.1-.58.32-.58.34-.58.33.58.33.58.34.58.33.58-.34.58-.33.58-.33.16-.1.42-.23.58-.34v7.32l-.58-.33-.58-.33-.58-.34-.58-.33-.58-.33-.58.33-.58.33-.58.34.58.33.58.33.58.33.15.1-.05.02-1.69.97-.15-.09-.58-.33-.58-.33-.59-.34-.58.34-.58.33-.58.33.58.33.58.34.58.33.15.1a2.18 2.18 0 0 1 1 1.72l.02.17v2l.58-.33.58-.34.58-.33v-2.17l.11-.07.79-.45.79-.45.05-.03v2.17l.58-.33.58-.33.58-.34v-3.33l.58.34.58.33.58.34.58.33.58.33.58.33.58.34.58.33.58.33.58.33.58.34-.58.33-.42.24-.16.1-.58.32-.58.34-.58.33v2l.58-.34.58-.33.58-.33.16-.1v2l-.16.1-.58.33-.58.33-.58.33v2l.58-.34.58-.33.58-.33.16-.08a2.2 2.2 0 0 1 2 0l.16.08.58.33.58.33.58.34v-2l-.58-.33-.58-.33-.58-.34-.15-.09v-2l.15.1.58.33.58.33.58.34v-2l-.58-.33-.58-.34-.58-.33-.16-.09-.42-.24-.58-.33.58-.34.42-.24.16-.09.58-.33.58-.33.58-.34.58-.33.58-.33.58-.33.58-.34.58-.33.58-.33v3.33l.59.33.58.33.58.33v-2.17l.05.03 1.69.97v2.17l.58.33.58.34.58.33V35.8a2.14 2.14 0 0 1 1-1.73l.16-.1.58-.33Z" fill="#0075C1" /><path d="M27.02 23.66c.13-.4.53-.66.98-.66.45 0 .84.27.98.66l.7 2.05h2.3c.56 0 1.02.43 1.02.95 0 .32-.17.6-.43.78l-1.85 1.26.71 2.06c.14.4-.01.82-.38 1.06a1.09 1.09 0 0 1-1.2 0L28 30.55l-1.84 1.25a1.08 1.08 0 0 1-1.22.01.91.91 0 0 1-.38-1.06l.72-2.06-1.86-1.27a.91.91 0 0 1-.37-1.07c.14-.39.53-.65.98-.65h2.28l.7-2.05Zm1.92 3-.94-2.7-.94 2.7h-3.03l2.45 1.68-.94 2.7L28 29.38l2.45 1.68-.93-2.71 2.45-1.68h-3.03Z" fill="#0075C1" /></svg>