<?xml version='1.0' encoding='utf-8'?>
<!-- by TradeStack -->
<svg width="56" height="56" viewBox="0 0 56 56" xmlns="http://www.w3.org/2000/svg"><path fill="#F0F3FA" d="M0 0h56v56H0z" /><path d="M4 25v6h.6v-5.26L6.73 31h.55l2.12-5.26V31h.6v-6h-.89l-2.1 5.2L4.9 25H4ZM34.36 25.03V31H35v-5.23L37.2 31h.57L40 25.77V31h.61v-5.97h-.92l-2.2 5.18-2.2-5.18h-.93ZM46 25v6h.6v-5.26L48.73 31h.55l2.12-5.26V31h.6v-6h-.88L49 30.2 46.9 25H46ZM11 25h.6v6H11zM18.4 29.44A3.1 3.1 0 0 1 15.67 31c-1.7 0-3.09-1.34-3.09-3s1.38-3 3.1-3a3.1 3.1 0 0 1 2.7 1.56h-.68c-.46-.6-1.2-1-2.03-1a2.47 2.47 0 0 0-2.5 2.44 2.47 2.47 0 0 0 2.5 2.43c.83 0 1.56-.39 2.02-.99h.7ZM19 25v6h.65v-5.46h1.1c.6-.04 1.83.11 1.82 1 0 .89-.81 1.11-1.22 1.12h-1.13L22.93 31h.72l-2.41-2.83c.48 0 1.86-.13 1.86-1.63 0-1.23-1.24-1.54-1.86-1.54H19ZM42.06 25h-.46v6H45v-.6h-2.71v-2.1H45v-.6h-2.71v-2.1H45V25h-2.94Z" fill="#29398A" /><path d="M28.74 23h-.23v1.09h.23V23Zm0 1.31h-.23v1.1h.23v-1.1Zm-.23 1.24h.23v1.44h.01l.7-3.92.23.04-.7 3.91h.01l.5-1.34.21.08-.49 1.34.03.02 2-3.42.2.11-2 3.42c.03.01.05.02.06.04l.92-1.09.17.15-.91 1.09.01.01 3.04-2.55.15.18-3.04 2.55 1.23-.7.12.2-1.22.7.02.05 3.7-1.34.08.22-3.7 1.34v.01l1.39-.25.04.23-1.38.25v.06h3.93v.24h-3.92v.03l1.38.27-.05.22-1.38-.26v.03l3.7 1.4-.09.22-3.7-1.4v.02l1.2.71-.12.2-1.2-.71c0 .02-.02.03-.03.05l3 2.52-.15.18-3-2.53-.03.03.9 1.08-.17.15-.9-1.09-.04.03 1.94 3.42-.2.11-1.94-3.42-.02.01.47 1.32-.22.08-.47-1.32h-.03l.7 3.9-.23.03-.7-3.89h-.01v1.44h-.23v-1.44h-.05l-.67 3.9-.22-.05.66-3.9h-.04l-.47 1.33-.22-.08.46-1.31L26 33.3l-.2-.11 1.98-3.43a1.32 1.32 0 0 1-.05-.04l-.92 1.11-.17-.15.91-1.1a1.68 1.68 0 0 1-.03-.04l-3 2.56-.15-.18 3-2.55-.01-.04-1.23.73-.12-.2 1.23-.73v-.03l-3.69 1.39-.08-.22 3.69-1.39v-.01l-1.42.27-.05-.22 1.43-.28v-.02h-3.93v-.24h3.92l.01-.05-1.42-.26.04-.23 1.42.26.02-.04-3.71-1.38.08-.22 3.7 1.38.02-.01L26 27.1l.12-.2 1.25.72.02-.02-3.01-2.56.15-.17 3 2.55.06-.05-.92-1.1.17-.14.93 1.1-1.94-3.43.2-.11 1.94 3.42.05-.02-.49-1.33.22-.08.48 1.34h.01l-.66-3.92.23-.04.66 3.92h.03v-1.44Zm0 8.45h.23v-1.09h-.23V34Zm0-1.31h.23v-1.1h-.23v1.1Zm1.85-9.4.22.08-.38 1.02-.21-.08.37-1.02Zm-.45 1.23.21.08-.37 1.02-.21-.08.37-1.02Zm2.14-.3.17.16-.7.83-.17-.15.7-.83Zm-.84 1.01.17.15-.7.83-.17-.14.7-.84Zm2.18.62-.11-.2-.94.54.1.2.95-.54Zm-1.14.65-.11-.2-.94.54.11.2.94-.54Zm1.7.9.05.22-1.07.2-.04-.24 1.06-.19Zm-1.28.22.04.23-1.06.2-.05-.23 1.07-.2Zm1.28 2 .05-.22-1.07-.2-.04.22 1.06.2Zm-1.28-.24.04-.23-1.06-.2-.04.22 1.06.2Zm.7 1.78-.12.2-.93-.55.12-.2.93.55Zm-1.12-.67-.12.2-.93-.55.12-.2.93.55ZM32 32.8l.18-.14-.69-.84-.18.15.7.83Zm-.83-1 .18-.15-.7-.84-.17.15.7.83Zm-.62 1.82-.22.08-.36-1.02.21-.08.37 1.02Zm-.44-1.23-.22.07-.36-1.02.22-.08.36 1.03Zm-3.45-9 .22-.08.37 1.02-.21.08-.38-1.02Zm.46 1.23.21-.08.37 1.02-.21.08-.37-1.02Zm-2.08-.28.18-.14.7.83-.18.15-.7-.84Zm.85 1 .17-.14.7.83-.18.15-.7-.83Zm-1.97.32-.11.2.94.54.11-.2-.94-.54Zm1.14.65-.12.2.94.54.12-.2-.94-.54Zm-1.86 1.32.04-.23 1.07.2-.04.22-1.07-.2Zm1.29.23.04-.23 1.06.2-.04.22-1.06-.19ZM23.2 29.4l.05.23 1.06-.2-.04-.24-1.07.21Zm1.29-.25.04.23 1.06-.2-.04-.24-1.06.21Zm-.54 2.21-.12-.2.93-.55.12.2-.93.55Zm1.12-.67-.12-.2.93-.55.12.2-.93.55Zm-.05 1.96.17.14.7-.83-.18-.15-.7.84Zm.83-1.02.18.15.69-.83-.18-.15-.69.83Zm1.02 2.06-.22-.08.36-1.02.22.08-.36 1.02Zm.43-1.24-.21-.07.36-1.03.22.08-.37 1.02Z" fill="#FCCC0E" /></svg>