<?xml version='1.0' encoding='utf-8'?>
<!-- by TradeStack -->
<svg width="56" height="56" viewBox="0 0 56 56" xmlns="http://www.w3.org/2000/svg"><path fill="#F0F3FA" d="M0 0h56v56H0z" /><path fill-rule="evenodd" d="M38.55 16c.7 0 1.17.39 1.23.96h.92c-.02-1.26-.97-1.96-2.14-1.96-1.18 0-2.21.7-2.21 2 0 1.04.81 1.57 1.72 1.82l.58.21.05.02c.49.13 1.3.34 1.3.93 0 .68-.89 1.02-1.48 1.02-.67 0-1.47-.28-1.52-1h-1c.05 1.42 1.2 2 2.53 2 1.23 0 2.47-.64 2.47-2.01 0-1.3-1.16-1.6-2.23-1.86l-.32-.08c-.49-.12-1.08-.53-1.08-1.12 0-.63.64-.93 1.18-.93ZM44 26.4h-1.1c-.17-.85-1.19-1.4-2-1.4-1.35 0-2.4 1.25-2.4 2.5 0 1.26 1.03 2.5 2.4 2.5.79 0 1.82-.53 2-1.36l1.1.01c-.24 1.52-1.68 2.35-3.12 2.35-2.02 0-3.38-1.52-3.38-3.5 0-1.97 1.36-3.5 3.38-3.5 1.48 0 2.9.84 3.12 2.4ZM37 34v-1h6v1h-2.4v6h-1.1v-6H37Zm-3.72-8.04c-.06-.57-.53-.96-1.23-.96-.54 0-1.17.3-1.18.93 0 .6.6 1 1.08 1.12l.32.08c1.07.27 2.23.55 2.23 1.86 0 1.37-1.24 2.01-2.47 2.01-1.32 0-2.48-.58-2.53-2h1c.05.72.85 1 1.52 1 .59 0 1.47-.34 1.48-1.02 0-.6-.81-.8-1.3-.93l-.05-.02-.58-.21c-.9-.25-1.72-.78-1.72-1.81 0-1.3 1.03-2.01 2.21-2.01 1.17 0 2.12.7 2.14 1.96h-.92ZM34.7 34c.7 0 1.17.38 1.23.96h.93c-.02-1.26-.98-1.96-2.14-1.96-1.19 0-2.22.7-2.22 2 0 1.04.82 1.57 1.73 1.82l.57.21.05.02c.5.13 1.3.34 1.3.93 0 .68-.89 1.02-1.48 1.02-.66 0-1.46-.28-1.52-1h-1c.06 1.42 1.21 2 2.53 2 1.24 0 2.47-.64 2.47-2.01 0-1.3-1.16-1.6-2.22-1.86l-.33-.08c-.48-.12-1.08-.53-1.08-1.12.01-.63.64-.93 1.18-.93ZM31 33h1v4.5c0 1.65-1.5 2.5-3 2.5s-3-.84-3-2.5V33h1v4.4c0 .94 1.12 1.6 2 1.6.88 0 2-.66 2-1.6V33Zm-11 0v7h1v-2.5h1.63L24 40h1.43l-1.54-2.78c.68-.34 1.11-1.02 1.11-1.98 0-1.45-.96-2.24-2.33-2.24H20Zm1 3.5h1.48c.74 0 1.52-.44 1.52-1.26 0-.83-.77-1.24-1.53-1.24H21v2.5ZM13 34v-1h6v1h-2.5v6h-1v-6H13Zm24-3v-7h-1v7h1Zm-10-7h1v4.5c0 1.65-1.5 2.5-3 2.5s-3-.84-3-2.5V24h1v4.4c0 .94 1.12 1.6 2 1.6.88 0 2-.66 2-1.6V24Zm-12.52 0H13v7h1v-4.82h.22l1.85 4.8h.86l1.85-4.79H19V31h1v-7h-1.48l-1.98 5.07h-.08L14.48 24ZM31 22v-7h1v6h3v1h-4Zm-5-7v7h4v-1h-3v-6h-1Zm-1.5 0v7h-1v-7h1Zm-8.02 0H15v7h1v-4.82h.22l1.85 4.8h.86l1.85-4.79H21V22h1v-7h-1.48l-1.98 5.07h-.08L16.48 15Z" /></svg>