<?xml version='1.0' encoding='utf-8'?>
<!-- by TradeStack -->
<svg width="56" height="56" viewBox="0 0 56 56" xmlns="http://www.w3.org/2000/svg"><path fill="#F0F3FA" d="M0 0h56v56H0z" /><circle cx="42" cy="28" r="8" fill="url(#aevkvsgn5)" /><path d="M46 30.66c0 1.83-1.84 2.34-3.37 2.34-.9 0-1.8-.1-2.63-.47v-1.41c.83.37 1.77.63 2.69.63.62 0 1.31-.27 1.31-1.1 0-.81-1.04-.99-1.62-1.2C41.24 29 40 28.5 40 27.09c0-1.64 1.8-2.09 3.14-2.09 1 0 1.87.2 2.73.56l-.55 1.23a5.86 5.86 0 0 0-2.24-.53c-.9 0-1.08.25-1.08.74 0 .8 1.06 1.1 1.62 1.32 1.14.41 2.38.95 2.38 2.34Z" fill="url(#bevkvsgn5)" /><path d="M13.27 25c1.87 0 2.73 1.7 2.73 3.37V33h-2v-4.36c0-.93-.1-1.9-1.16-1.9-1.07 0-1.34.97-1.34 1.9V33h-2v-4.36c0-.93-.25-1.9-1.31-1.9-1.08 0-1.19.96-1.19 1.9V33H5v-8h2v1.07c.44-.67.83-1.07 1.64-1.07 1.03 0 1.92.58 2.35 1.5.41-.87 1.3-1.5 2.28-1.5Z" fill="url(#cevkvsgn5)" /><path d="M21 25v5.1c0 2-1.75 2.9-3.54 2.9-1.81 0-3.46-.93-3.46-2.91V25h2v4.5c0 1.32.5 2 1.46 2 1.27 0 1.54-.73 1.54-2V25h2Z" fill="#050B05" /><path d="M26 29.15c0-2.03 1.4-3.79 3.52-3.79.93 0 1.9.4 2.48 1.15V23h2v10h-2v-1.21A2.91 2.91 0 0 1 29.5 33c-2.12 0-3.5-1.82-3.5-3.85Zm6 .03c0-1.17-.78-2.17-2-2.17-1.2 0-2.02.99-2.02 2.14 0 1.16.81 2.2 2.03 2.2 1.22 0 1.99-.99 1.99-2.17Z" fill="url(#devkvsgn5)" /><path d="M23.07 25c1.91 0 2.93 1.6 2.93 3.37V33h-2v-4.36c0-1-.38-1.95-1.49-1.95-1.12 0-1.51.92-1.51 1.95V33h-2v-8h2v1.1c.51-.7 1.2-1.1 2.07-1.1Z" fill="url(#eevkvsgn5)" /><path d="M40 25v5.1c0 2-1.75 2.9-3.54 2.9-1.81 0-3.46-.93-3.46-2.91V25h2v4.5c0 1.32.5 2 1.46 2 1.27 0 1.54-.73 1.54-2V25h2Z" fill="url(#fevkvsgn5)" /><defs><linearGradient id="aevkvsgn5" x1="49.5" y1="29" x2="34.5" y2="29" gradientUnits="userSpaceOnUse"><stop stop-color="#575958" /><stop offset=".52" stop-color="#C0C8CA" /><stop offset="1" stop-color="#DCDEDD" /></linearGradient><linearGradient id="bevkvsgn5" x1="43" y1="25" x2="43" y2="33" gradientUnits="userSpaceOnUse"><stop stop-color="#0B2AD8" /><stop offset=".48" stop-color="#14E1FA" /><stop offset="1" stop-color="#1221B5" /></linearGradient><linearGradient id="cevkvsgn5" x1="10.5" y1="25" x2="10.5" y2="33" gradientUnits="userSpaceOnUse"><stop stop-color="#080808" /><stop offset=".29" stop-color="#ACACAC" /><stop offset=".47" stop-color="#F0EFF0" /><stop offset=".65" stop-color="#848484" /><stop offset="1" stop-color="#090B0C" /></linearGradient><linearGradient id="devkvsgn5" x1="30" y1="23" x2="30" y2="33" gradientUnits="userSpaceOnUse"><stop /><stop offset=".21" stop-color="#9C9D98" /><stop offset=".34" stop-color="#FFFEFD" /><stop offset=".56" stop-color="#6A6869" /><stop offset=".97" stop-color="#000600" /></linearGradient><linearGradient id="eevkvsgn5" x1="22.5" y1="25" x2="22.5" y2="33" gradientUnits="userSpaceOnUse"><stop stop-color="#0121CC" /><stop offset=".24" stop-color="#0FB5FD" /><stop offset=".43" stop-color="#1AE8FF" /><stop offset=".56" stop-color="#09A6E1" /><stop offset="1" stop-color="#041AD4" /></linearGradient><linearGradient id="fevkvsgn5" x1="36.5" y1="25" x2="36.5" y2="33" gradientUnits="userSpaceOnUse"><stop stop-color="#1335D2" /><stop offset=".48" stop-color="#0E21D3" /><stop offset="1" stop-color="#46C8EC" /></linearGradient></defs></svg>