<?xml version='1.0' encoding='utf-8'?>
<!-- by TradeStack -->
<svg width="56" height="56" viewBox="0 0 56 56" xmlns="http://www.w3.org/2000/svg"><path fill="#F0F3FA" d="M0 0h56v56H0z" /><path fill-rule="evenodd" d="M26.87 11.3c.7-.4 1.56-.4 2.26 0l12.74 7.37c.7.4 1.13 1.15 1.13 1.97v14.72c0 .82-.43 1.57-1.13 1.97L29.13 44.7c-.7.4-1.56.4-2.26 0l-9.59-5.55a469.4 469.4 0 0 0-1.86 1.98l-.02.02a1.25 1.25 0 0 1-2.05-1.41 1.93 1.93 0 0 1 .22-.28 19.32 19.32 0 0 1 .86-.93l.63-.66-.93-.54A2.27 2.27 0 0 1 13 35.36V20.64c0-.82.43-1.57 1.13-1.97l12.74-7.37Zm-7.9 26.1c1.51-1.6 3.2-3.34 4.35-4.54a1.25 1.25 0 0 0-1.8-1.74 2647.1 2647.1 0 0 0-4.77 4.97l-.57-.33c-.42-.25-.68-.7-.68-1.2V21.44c0-.5.26-.95.68-1.2l11.14-6.55c.42-.25.94-.25 1.36 0l11.14 6.55c.42.25.68.7.68 1.2v13.12c0 .5-.26.95-.68 1.2L28.68 42.3c-.42.25-.94.25-1.36 0l-5.45-3.2a207.39 207.39 0 0 1 3.85-3.82c.22.35.45.75.65 1.15a1.25 1.25 0 1 0 2.24-1.1 16.08 16.08 0 0 0-1.74-2.73A1.27 1.27 0 0 0 25 32.5a629.15 629.15 0 0 0-5.3 5.25l-.05.05-.69-.4Zm-3.58 3.76Zm3.73-16.14c3.35-.53 11.16.73 14.32 10.7a1.25 1.25 0 1 0 2.37-.75c-3.6-11.4-12.78-13.1-17.07-12.42a1.25 1.25 0 0 0 .38 2.47Zm5.24 2.92c.3-.62 1.05-.88 1.67-.58.72.35 1.8 1.03 2.84 1.99a9.91 9.91 0 0 1 2.67 3.82 1.25 1.25 0 0 1-2.35.85 7.44 7.44 0 0 0-2-2.83 10.15 10.15 0 0 0-2.25-1.58 1.25 1.25 0 0 1-.58-1.67ZM38.5 23.5a3.5 3.5 0 1 1-7 0 3.5 3.5 0 0 1 7 0Zm-2 0a1.5 1.5 0 1 1-3 0 1.5 1.5 0 0 1 3 0Z" fill="#002B5C" /></svg>