<?xml version='1.0' encoding='utf-8'?>
<!-- by TradeStack -->
<svg width="56" height="56" viewBox="0 0 56 56" xmlns="http://www.w3.org/2000/svg"><path fill="url(#atvj0fumw)" d="M0 0h56v56H0z" /><path d="M5 25h4.56l3.47 4.65 3.4-4.65H21v7h-3v-5.22L14.18 32h-2.3L8 26.64V32H5.05v-7H5ZM24 25h4.57L34 30.14V25h3v7h-4.63L27 26.89V32h-3v-7ZM40 25h6.93c1.99 0 4.07 0 4.07 2.53 0 2.36-1.7 2.95-3.8 2.95H43V32h-3v-7Zm6.77 3.59c1.11 0 1.23-.25 1.23-.78 0-.45-.01-.81-1.23-.81H43v1.59h3.77Z" fill="#fff" /><defs><linearGradient id="atvj0fumw" x1="10.42" y1="9.71" x2="68.15" y2="76.02" gradientUnits="userSpaceOnUse"><stop stop-color="#1A1E21" /><stop offset="1" stop-color="#06060A" /></linearGradient></defs></svg>