<?xml version='1.0' encoding='utf-8'?>
<!-- by TradeStack -->
<svg width="56" height="56" viewBox="0 0 56 56" xmlns="http://www.w3.org/2000/svg"><path fill="#F0F3FA" d="M0 0h56v56H0z" /><path d="M9.54 22H7v12h2v-8.26h.1l3.16 8.22h1.48l3.17-8.2H17V34h2V22h-2.54l-3.4 8.7h-.13L9.53 22ZM31 22v12h-1.96l-5.73-8.17H23V34h-2V22h1.97l5.73 8.18h.3V22h2Zm5.35 1.79c.71 0 2.09.33 2.18 1.21h2.02c-.03-2.02-2.48-3-4.17-3-.81 0-1.54.14-2.18.43-.64.29-1.15.69-1.52 1.2a3.02 3.02 0 0 0-.56 1.81c0 .84.28 1.5.83 2.01.55.5 1.3.88 2.26 1.12l1.32.34a7 7 0 0 1 1.09.37c.3.13.55.3.73.5.17.2.26.45.26.75 0 .34-.1.63-.3.88-.2.25-.47.44-.81.58-.35.14-.75.2-1.2.2-1.46 0-2.3-.73-2.42-2.19h-2.06c.1 2.68 1.9 4 4.5 4 .92 0 1.71-.14 2.36-.43a3.18 3.18 0 0 0 2.02-3.02c0-.5-.08-.95-.27-1.32-.2-.38-.45-.7-.77-.97a4.44 4.44 0 0 0-1.1-.66c-.4-.17-.82-.3-1.26-.41l-1.08-.28a6.84 6.84 0 0 1-.7-.2 3.22 3.22 0 0 1-.65-.31 1.5 1.5 0 0 1-.46-.46 1.32 1.32 0 0 1 .09-1.41c.17-.23.41-.4.72-.54.32-.14.7-.2 1.13-.2ZM42 22v12h2v-5h5v-2h-5v-3h6v-2h-8Z" /></svg>