<!-- by TradeStack --><svg width="56" height="56" viewBox="0 0 56 56" xmlns="http://www.w3.org/2000/svg"><path fill="#F0F3FA" d="M0 0h56v56H0z"/><path d="M46 16.05a3.06 3.06 0 0 1-3.08 3.04 3.06 3.06 0 0 1-3.07-3.04A3.06 3.06 0 0 1 42.92 13c1.7 0 3.08 1.36 3.08 3.05ZM41.23 33.3c1.01-3.13 1-6.29-.02-9.47-.06-.18-.14-.19-.25-.03a301.26 301.26 0 0 0-4.67 7.5c-.59.97-1.87 1.56-2.98 1.07-.45-.2-.75-.4-.89-.59a413.84 413.84 0 0 1-2.77-3.89h-.04l-.04.01a534.42 534.42 0 0 1-1.76 5.05c-.36 1.08-.58 1.72-1.59 2.16-.42.18-.86.23-1.32.13-.61-.13-1.03-.33-1.25-.6a267.95 267.95 0 0 1-1.95-2.4.07.07 0 0 0-.07.01 140.19 140.19 0 0 1-1.3 4.07 2.22 2.22 0 0 1-1.55 1.5c-1.95.58-3.53-1.17-2.93-3.07l2.47-7.82c.2-.61.4-1.05.62-1.3.7-.8 1.9-1.02 2.87-.54.28.13.63.46 1.05.98a105.1 105.1 0 0 1 1.55 1.94h.05a.1.1 0 0 0 .07-.05l1.92-5.6c.22-.6.45-1.05.71-1.33 1.05-1.1 2.8-.88 3.69.35A516.94 516.94 0 0 1 34 25.83a.1.1 0 0 0 .09 0 .1.1 0 0 0 .03-.03l4.25-6.85c.04-.08.04-.15-.03-.22a15.63 15.63 0 0 0-19.39-3.5 15.28 15.28 0 0 0-5.42 21.83c4.47 6.74 13.67 9 20.67 4.88a15.13 15.13 0 0 0 7.03-8.63Z" fill="#E2740E"/></svg>