<?xml version='1.0' encoding='utf-8'?>
<!-- by TradeStack -->
<svg width="56" height="56" viewBox="0 0 56 56" xmlns="http://www.w3.org/2000/svg"><path fill="#F0F3FA" d="M0 0h56v56H0z" /><path d="M43 19.68v16.78a.2.2 0 0 1-.1.18l-14.73 8.33a.2.2 0 0 1-.2 0l-14.86-8.5a.2.2 0 0 1-.1-.18L13 19.55a.2.2 0 0 1 .1-.18l14.72-8.34a.2.2 0 0 1 .21 0L42.9 19.5a.2.2 0 0 1 .1.18ZM32.81 37.46a3.98 3.98 0 0 1-3.42-1.68.25.25 0 0 1-.04-.24c2.8-9.33-5.83-13.65-13.3-15.09a.06.06 0 0 0-.06.09c3.43 5.51.92 13.68 9.14 15.82.7.18 1.6.11 2.36.18 2 .17 2.55 2.48 4.63 2.35.1-.01.16-.05.2-.13l.58-1.16a.1.1 0 0 0-.09-.14Zm7.16-16.57a1.4 1.4 0 0 0-.42-.07 22.12 22.12 0 0 0-11.21 3.16.17.17 0 0 0 0 .2c2.3 2.88 3.16 6.18 2.6 9.87-.02.12.03.16.14.13 6.2-1.58 5.3-9.12 8.95-13.06a.14.14 0 0 0-.06-.23Z" fill="#0272BA" /><path d="M39.97 20.89a.14.14 0 0 1 .06.23c-3.64 3.94-2.74 11.48-8.95 13.06-.11.03-.16-.01-.14-.13a12.26 12.26 0 0 0-2.63-9.94.17.17 0 0 1 .08-.18 22.12 22.12 0 0 1 11.16-3.11c.11 0 .25.02.42.07Z" fill="#82CBFC" /><path d="M27.53 34.69c-2.2-1.02-3.2-3.47-4.14-5.53A33.81 33.81 0 0 0 19.44 23a.07.07 0 0 1 .06-.07h.05c4.58 2.65 6.56 6.64 8.19 11.57.07.22 0 .29-.21.19Z" fill="#0272BA" /></svg>