<!-- by TradeStack --><svg width="56" height="56" viewBox="0 0 56 56" xmlns="http://www.w3.org/2000/svg"><path fill="#F0F3FA" d="M0 0h56v56H0z"/><path d="M12.5 28A7.8 7.8 0 0 0 6 20c1.5 1 4.5 4 4.5 8s-3 7-4.5 8a7.8 7.8 0 0 0 6.5-8Z" fill="#ED1C24"/><path d="M19 24h-5v8h5v-1.5h-3v-1.75h3v-1.5h-3V25.5h3V24ZM8 28c0-3.2-2.67-5.33-4-6 1.67.33 5 2 5 6s-3.33 5.67-5 6c1.33-.67 4-2.8 4-6Z" fill="#CEC472"/><path fill-rule="evenodd" d="M23 31.67c-.3.2-.64.33-1 .33-1.1 0-2-1.12-2-2.5s.9-2.5 2-2.5c.36 0 .7.12 1 .33V27h2v7h-2v-2.33Zm0-2.17c0 .55-.22 1-.5 1s-.5-.45-.5-1 .22-1 .5-1 .5.45.5 1Z" fill="#CEC472"/><path d="M28 27h-2v4c0 .8 1 1 2 1 .5 0 1-.33 1-.5v.5h2v-5h-2v3c0 .17-.1.5-.5.5s-.5-.33-.5-.5v-3Z" fill="#CEC472"/><path fill-rule="evenodd" d="m32 28.5 1.5.5c.17-.17.6-.5 1-.5s.5.33.5.5v.02c-1.23.07-3 .43-3 1.48 0 1.2 1.33 1.5 2 1.5.24 0 .62-.05 1-.19V32h2v-3c0-.67-.5-2-2.5-2-1.5 0-2.5 1-2.5 1.5Zm3 2.36v-1.17c-.79.34-1 .67-1 .81 0 .17.1.5.5.5.17 0 .34-.06.5-.14ZM44.5 31c.5 0 .5-1 .5-1.5s0-1.5-.5-1.5-.5 1.06-.5 1.5c0 .5 0 1.5.5 1.5Zm0 1a2.5 2.5 0 1 0 0-5 2.5 2.5 0 0 0 0 5Z" fill="#CEC472"/><path d="M38 26v1h-.5v1.5h.5v2c0 1.2 1 1.5 1.5 1.5H41v-1c-.8 0-1-.67-1-1v-1.5h1V27h-1v-2l-2 1ZM48 27h2v.58c.26-.32.6-.58 1-.58.56 0 1 .33 1 .5V29c-.17-.17-.6-.5-1-.5-.25 0-.66.27-1 .55V32h-2v-5Z" fill="#CEC472"/></svg>