<?xml version='1.0' encoding='utf-8'?>
<!-- by TradeStack -->
<svg width="56" height="56" viewBox="0 0 56 56" xmlns="http://www.w3.org/2000/svg"><path fill="#F0F3FA" d="M0 0h56v56H0z" /><path d="M28 20v10l2-.22V25h5v4.36l2-.25V25h4v3.75l2-.2V25h3v3.2l2-.22v-5.92L28 20Z" fill="#263085" /><path d="M26 20.19v9.63l1 .1v-9.84l-1 .1Z" fill="#3F9CDA" /><path d="m24 29.63 1 .09V20.3l-1 .1v9.23Z" fill="#263085" /><path d="m22 29.41 1 .1v-9l-1 .1v8.8Z" fill="#3F9CDA" /><path d="m20 29.2 1 .1v-8.59l-1 .1v8.4Z" fill="#263085" /><path d="m18 29 1 .1v-8.17l-1 .1V29Z" fill="#3F9CDA" /><path d="m16 28.8 1 .09v-7.75l-1 .1v7.56Z" fill="#263085" /><path d="m14 28.58 1 .1v-7.33l-1 .1v7.13Z" fill="#3F9CDA" /><path d="m12 28.37 1 .1v-6.9l-1 .08v6.72Z" fill="#263085" /><path d="M10 28.2h1v-6.38h-1v6.38Z" fill="#3F9CDA" /><path d="M8 22.05v5.91l1 .13v-6.11l-1 .07ZM13.14 33 11 35.42 8.86 33H8v4h1v-2.69l1.88 2.2h.22l1.9-2.2V37h1v-4h-.86Z" fill="#263085" /><path fill-rule="evenodd" d="M17 36.25h4V33.7h-4v2.55Zm4.94-2.74-.15-.3-.3-.15-.46-.06H17.2l-.53.03-.37.1-.2.24-.1.38v2.29l.04.44.17.29.3.17.46.06h3.81l.68-.03.22-.13.23-.23.07-.36.02-.2v-2.11l-.02-.24-.04-.19Z" fill="#263085" /><path d="M29 33h-1v2.55L24.68 33H24v4h1v-2.63L28.32 37H29v-4ZM30 33.7h2V37h1v-3.3h2V33h-5v.7ZM41 36.25h-3v-1h1.69v-.7H38v-.88h3V33h-4v4h4v-.75ZM44.5 33 42 37h1l.54-.88h2.95L47 37h1l-2.53-4h-.98Zm.5.76 1 1.64h-1.99l.99-1.64Z" fill="#263085" /></svg>