<?xml version='1.0' encoding='utf-8'?>
<!-- by TradeStack -->
<svg width="56" height="56" viewBox="0 0 56 56" xmlns="http://www.w3.org/2000/svg"><path fill="#DCF49E" d="M0 0h56v56H0z" /><path d="M13 19.92v16.16l1.4.92V30.1c.11-2.06 1.08-6.19 4.11-6.19 3.03 0 5.08 4.75 5.49 7.12v10.82s2.19 1.43 3.5 2.14V12L24 14.27v4.42l-3.47-1.77v2.72l-.91.72v-4l-3.1 1.68v2.32L15 19.64v2.31h-1v-2.6l-1 .57Zm5 14.46-3 1.95v-5.09c0-4.94 2.42-6.23 3.63-6.27-.54.56-.6 1.76-.62 2.46l-.01.2v6.75Zm25-14.46v16.16l-1.4.92V30.1c-.11-2.06-1.08-6.19-4.11-6.19-3.03 0-5.08 4.75-5.49 7.12v10.82S29.81 43.3 28.5 44V12l3.5 2.27v4.42l3.47-1.77v2.72l.91.72v-4l3.1 1.68v2.32l1.52-.72V22h1v-2.65l1 .57Zm-5 14.46 3 1.95v-5.09c0-4.94-2.43-6.23-3.64-6.27.55.56.6 1.79.63 2.48l.01.18v6.75Z" fill="#055554" /></svg>