<!-- by TradeStack --><svg width="56" height="56" viewBox="0 0 56 56" xmlns="http://www.w3.org/2000/svg"><path fill="#F0F3FA" d="M0 0h56v56H0z"/><path fill-rule="evenodd" d="M21.33 23.38a16.51 16.51 0 0 0-1.64-.16v-.01l.02-.02h.02c.5-.05.92-.1 1.24-.16 1.32-.24 2.7-.7 3.55-1.77a3.6 3.6 0 0 0 .74-1.64c.12-.67.11-1.34-.03-2a3.65 3.65 0 0 0-1.77-2.44c-.5-.3-1.05-.54-1.65-.7-.5-.15-.96-.25-1.38-.3-.87-.12-1.76-.18-2.68-.18a12452.37 12452.37 0 0 1-7.75.02v.24l.02.01h.66c.34 0 .66.06.97.17.8.29 1.35.94 1.35 1.7V30h3v-6.56h2.7c1.2 0 2.53.31 3.22 1.36.24.38.4.78.51 1.24.1.37.16.75.2 1.14.07.9.06 1.87-.06 2.77V30v-.05l3.38.05v-.03a.1.1 0 0 1 .01-.03l.01-.01a6 6 0 0 0 0-3.22 4.26 4.26 0 0 0-1.31-2c-.43-.36-.91-.65-1.46-.86a8.79 8.79 0 0 0-1.87-.47Zm-.23-7.79c-.32-.47-.79-.81-1.4-1.03-.31-.1-.63-.18-.96-.22a9.62 9.62 0 0 0-1.13-.07 366.54 366.54 0 0 0-1.6.02V23h1.75a7.05 7.05 0 0 0 1.54-.16c.7-.14 1.39-.5 1.8-1.07.36-.51.54-1.12.63-1.73.1-.7.11-1.45.05-2.17a4.74 4.74 0 0 0-.68-2.28Z" fill="#3B3937"/><path d="M31 24.27V30c0 .02.01 0 0 0h-3v-5.6c0-.66-.23-1.38-.8-1.76a1.86 1.86 0 0 0-.68-.28c-.4-.08-.8-.07-1.22-.07h-.01V22h8.39V22.3c-.5 0-.95-.01-1.42.11-.86.24-1.26 1.05-1.26 1.87ZM39.34 22.67c-.57-.42-1.35-.39-2.02-.38l-.01-.01V22l.01-.01H46v.28l-.01.01-.88.01c-1.14.05-2.11.83-2.11 1.97V30c0 .01.01 0 0 0h-3v-5.67c0-.63-.15-1.28-.66-1.66Z" fill="#3B3937"/><path d="M22.11 32.64h.83l.02.01v.02h-.01l-.84.01c-.02 0-.02 0-.02.02v1.25l.02.01h.74c.37-.04.44-.3.46-.61v-.01h.02l.01.01-.02.63c0 .01 0 .02-.02.02h-2.13a.02.02 0 0 1-.01 0 .01.01 0 0 1 0-.02v-.01c.14-.01.33.02.33-.18v-2.15c0-.2-.18-.17-.32-.17-.01 0-.02 0-.02-.02s.01-.02.02-.02h2c.02 0 .02 0 .03.02l.02.63v.01h-.04c-.03-.32-.08-.6-.48-.61a13.46 13.46 0 0 0-.62 0v1.13c0 .02.02.03.03.03ZM35.9 31.47h-.77c-.46 0-.53.31-.53.69v.01h-.02l-.02-.01.02-.7c0-.02.01-.02.03-.03a56.92 56.92 0 0 1 1.94.01v.03l-1.41 2.46a.02.02 0 0 0 0 .02v.01h.9c.49 0 .54-.3.56-.7h.03l-.02.72c0 .01 0 .02-.02.02h-2.07c-.03 0-.04-.01-.03-.04l.03-.06a1806.88 1806.88 0 0 1 1.37-2.43ZM42.1 32.65v1.3c0 .03 0 .04-.02.04-.15.04-.23-.04-.3-.15a24621.5 24621.5 0 0 1-1.51-2.19v2.11c0 .12.06.19.18.19a16.66 16.66 0 0 1 .32.01V34h-.95v-.04c.15-.02.4.04.4-.2v-2.12c0-.1-.05-.15-.14-.16h-.26l-.01-.01v-.04h.89a.1.1 0 0 1 .08.04l1.26 1.85a315.6 315.6 0 0 0 .02-1.62c0-.09-.01-.2-.12-.22a1.6 1.6 0 0 0-.32 0c-.02 0-.03-.01-.03-.02v-.02h.02l.94-.01.01.01v.03h-.31c-.13.01-.15.1-.15.2v.98ZM16.92 33.97l.61-.01c.5-.01.58-.35.59-.75v-.01h.02l.02.01-.03.76c0 .02 0 .03-.03.03h-2.12a.01.01 0 0 1-.01-.02v-.01c.16-.02.33.03.33-.2v-2.11c0-.24-.17-.17-.33-.2v-.01l.01-.02h1.23l.01.01v.02c-.14 0-.32 0-.32.18a2942.3 2942.3 0 0 0 .02 2.33ZM19.28 33.37c0 .24.02.44.29.53.19.06.46.06.64-.03.23-.12.35-.33.36-.64v-1.59c0-.2-.25-.17-.4-.17-.01 0-.02 0-.02-.02l.01-.02h.82l.01.01v.02l-.01.01c-.16 0-.37-.04-.37.19v1.39c0 .22-.02.38-.06.5-.18.5-.87.5-1.32.39-.24-.07-.4-.2-.48-.38a1.4 1.4 0 0 1-.06-.52v-1.42c0-.18-.22-.14-.33-.16h-.01v-.01c0-.01 0-.02.02-.02h1.24v.04c-.16.02-.34-.04-.34.2v1.7ZM25.55 32.68h-.2a38.73 38.73 0 0 0-.02 1.11c0 .1.05.15.14.16l.2.01v.02c-.41.02-.81.03-1.2 0-.09 0-.09 0 0-.03h.05c.14.02.21-.05.21-.19v-2.12c0-.19-.18-.17-.31-.17l-.02-.01v-.02h1.27v.02c-.14.03-.34-.04-.34.18a79.82 79.82 0 0 0 .02 1h.91a.02.02 0 0 0 .02-.01v-.99c0-.2-.2-.16-.33-.17-.01 0-.02 0-.01-.02v-.01h1.26a.02.02 0 0 1 .01 0 .02.02 0 0 1 0 .01v.02c-.2 0-.34-.02-.34.22v2.08c0 .22.18.17.34.2V34a19.17 19.17 0 0 1-1.27-.01v-.02c.15-.02.34.04.34-.19a108.47 108.47 0 0 0-.02-1.1h-.71ZM33.29 33.79v-2.14c0-.2-.19-.17-.33-.18v-.02a.02.02 0 0 1 0-.01v-.01h1.25c.01 0 .02 0 .02.02a.01.01 0 0 1 0 .02h-.01c-.15 0-.33-.03-.33.18v2.14c0 .2.2.17.34.18V34l-1.26.01-.01-.01v-.02c.15-.01.33.02.33-.18Z" fill="#967F71"/><path fill-rule="evenodd" d="M38.46 33.98c.86-.1 1.15-.89 1.02-1.6-.1-.55-.48-.92-1.05-.98-.67-.06-1.23.21-1.39.87-.09.4-.06.88.16 1.22.27.43.77.56 1.26.5Zm.33-.5a3.76 3.76 0 0 0-.02-1.67c-.1-.26-.28-.38-.55-.37-.34 0-.5.3-.54.58-.08.46-.08.92 0 1.37a.9.9 0 0 0 .15.37c.14.2.43.25.65.15.17-.08.27-.26.31-.42ZM30.01 32.93c.1-.78-.26-1.5-1.17-1.54-.22 0-.41.02-.58.09-.68.24-.83.98-.7 1.6.1.44.39.78.85.88.82.17 1.5-.21 1.6-1.03Zm-1.16-1.5c-.46-.04-.61.32-.66.68-.06.43-.06.84 0 1.24.06.3.2.6.57.6.36.01.53-.26.58-.56.07-.4.08-.81.03-1.25-.04-.29-.14-.66-.52-.7ZM31.32 32.8h.09a40.28 40.28 0 0 0 .46.78c.15.26.28.38.57.4a3.51 3.51 0 0 0 .43 0l-.02-.02c-.14-.02-.23-.16-.3-.25a58.77 58.77 0 0 1-.54-.94c.36-.13.58-.4.52-.78-.04-.26-.2-.43-.49-.5a2.3 2.3 0 0 0-.65-.06h-.86a101.4 101.4 0 0 0-.19.02c0 .02 0 .03.02.03.14-.01.31-.02.31.17v2.14c0 .16-.1.16-.21.17l-.1.01c-.04 0-.04.01 0 .02h.11a37.55 37.55 0 0 0 1.14 0v-.02h-.03c-.13 0-.31 0-.31-.18a26.91 26.91 0 0 0 0-.96.06.06 0 0 1 .05-.02Zm-.04-1.32-.01.03v1.22a.03.03 0 0 0 .01.03h.22a.4.4 0 0 0 .29-.14.52.52 0 0 0 .12-.34v-.32a.54.54 0 0 0-.03-.19.49.49 0 0 0-.09-.16.42.42 0 0 0-.13-.1.37.37 0 0 0-.16-.04h-.2l-.02.01ZM14.84 32.64v.01s0 .01 0 0c.44-.03.89.18.88.66 0 .5-.44.67-.9.68h-1.29c-.07 0-.07 0 0-.02l.09-.01c.18 0 .2-.1.2-.25v-2.05c0-.17-.11-.18-.22-.18-.04 0-.08 0-.12-.02v-.03h1.13c.2 0 .4.03.6.1.25.09.39.26.4.51.02.3-.17.48-.44.55l-.33.05Zm-.43-1.15a.01.01 0 0 1 0-.01h.17a.38.38 0 0 1 .29.12.43.43 0 0 1 .12.3v.31c0 .11-.05.22-.12.3a.4.4 0 0 1-.29.12h-.16a.02.02 0 0 1-.02-.01v-1.13Zm0 1.2v1.26l.01.01h.26c.06 0 .11-.01.16-.04.05-.02.1-.05.13-.1l.1-.14a.5.5 0 0 0 .02-.17v-.39a.48.48 0 0 0-.12-.32.4.4 0 0 0-.29-.13h-.27v.01Z" fill="#967F71"/><path d="M27.32 41.25c.48-.4.68-1.09.68-1.69V35c-.01 0 0-.01 0 0h3v4.66c0 .67.21 1.35.77 1.7.22.15.46.24.7.28.37.06.77.08 1.2.06l.01.01V42h-8.4v-.28l.02-.01c.34 0 .68 0 1.02-.04.37-.05.72-.17 1-.42ZM39.78 40.77c.13-.3.22-.65.22-1.03V35c-.01 0 0-.01 0 0h3c0-.02.01 0 0 0v4.69c0 .54.42 1.16.82 1.5.26.24.56.38.9.44a5.77 5.77 0 0 0 1.28.08V42l-.01.01h-8.67l-.01-.02v-.26l.01-.01c.44 0 .94 0 1.36-.1.46-.1.91-.38 1.1-.84Z" fill="#3B3937"/></svg>