<?xml version='1.0' encoding='utf-8'?>
<!-- by TradeStack -->
<svg width="56" height="56" viewBox="0 0 56 56" xmlns="http://www.w3.org/2000/svg"><path fill="#F0F3FA" d="M0 0h56v56H0z" /><path d="M25.84 44.22a6.85 6.85 0 0 1-2.33-3.7c-.78-.32-1.6-.7-2.4-1.13-.3-.14-.6-.28-.9-.45a6.95 6.95 0 0 0 1.08 2.88 9.1 9.1 0 0 0 2.54 2.41 2.8 2.8 0 0 0 2-.01Z" fill="#1169BF" /><path d="M28.19 41.45c.96-.27 1.87-.67 2.71-1.19 1.3-4.75 2.81-13.2 2.2-19.12a24.09 24.09 0 0 0-.6-3.15c-.14-.08-.23-.22-.36-.3-.14-.08-.37 0-.55-.1 1.01 5.92-1.69 17.24-3.34 21.45 0 0-.48.76-3.45 1.36-.48.07-.96.03-1.42-.11 0 .08.01.16.05.23 2 .82 3.75 1.23 4.76.93Z" fill="#1169BF" /><path d="M18.57 16.67c4.6-4.94 9.08-5 12.67-1.05a6.03 6.03 0 0 1 1.06 1.82c-.1-1.22.43-3.7-.11-4.36-3.4-4.08-7.88-4.26-12.7.4a22.41 22.41 0 0 0-6.2 12.77 24.3 24.3 0 0 1 2.56-5.75 18.97 18.97 0 0 1 2.72-3.83Z" fill="#1169BF" /><path d="M42.35 25.24c-1.1-2.05-5.22-4.85-8.9-6.54l.12.31c2.26 6 1.93 17.24 1 22.4 0 .25-.05.5-.12.76 0 0-.4.98-3.92 2.39-1.06.34-2.16.56-3.28.64 3.09 1.67 6.6.77 10.18-3.04 4.63-4.87 6.74-13.57 4.92-16.92Z" fill="#1DBCAE" /><path d="M30.9 40.26c-.84.52-1.75.92-2.71 1.19-1.01.3-2.76-.11-4.76-.93a6.85 6.85 0 0 0 2.37 3.69l.52-.16c1.44-.51 2.8-1.21 4.04-2.08.24-.55.42-1.12.54-1.7Z" fill="#1DBCAE" /><path d="M22.75 32.59a66.73 66.73 0 0 1 1.8-13.45c0-.13.39-.81 3.28-1.7.3-.09.6-.12.91-.1-1-.7-2.16-1.1-3.38-1.2-2.37-.13-4.85 1.08-7.46 3.82a22.74 22.74 0 0 0-4.77 8.8 8.77 8.77 0 0 0 .54 4.85c1.01 1.76 4.15 4.1 7.37 5.77.8.43 1.62.81 2.4 1.14a28.65 28.65 0 0 1-.69-7.93Z" fill="#1DBCAE" /><path d="M29.96 14.81a4.6 4.6 0 0 1 1.62 2.78c.31.1.61.24.9.4a7.38 7.38 0 0 0-1.25-2.37c-3.62-3.95-8.08-3.84-12.67 1.05a19.06 19.06 0 0 0-2.74 3.83 20.36 20.36 0 0 1 3.03-3.76c4.09-3.97 7.95-4.44 11.11-1.93Z" fill="#1DBCAE" /></svg>