<!-- by TradeStack --><svg viewBox="0 0 56 56" xmlns="http://www.w3.org/2000/svg"><path fill="#E31C23" d="M0 0h56v56H0z"/><path d="M29 13v1.95h-.5c-7.87 0-14.29 6.24-14.55 14.05h-1.94A16.5 16.5 0 0 1 27 13.07V10h2v3Zm-.51 5 .51.01v2h-.51a9.45 9.45 0 0 0-9.5 9h-2c.27-6.13 5.31-11 11.5-11Zm2.51.28v2.05A9.38 9.38 0 0 1 37.91 29h2.07A11.5 11.5 0 0 0 31 18.28ZM28 41v-2a9.44 9.44 0 0 1-8.9-8h-2.02A11.5 11.5 0 0 0 28 41Zm6.96-12A6.5 6.5 0 0 0 31 23.51v2.22A4.3 4.3 0 0 1 32.91 29h2.05ZM28 34v2A6.5 6.5 0 0 1 22.14 31h2.06A4.35 4.35 0 0 0 28 34Zm0 10.07V46a16.51 16.51 0 0 1-15.63-13H9v-2h5.02A14.57 14.57 0 0 0 28 44.06ZM45 29h-1.94A14.57 14.57 0 0 0 31 15.15V13.2A16.5 16.5 0 0 1 45 29Zm-16.53-6 .53.02v2.01A4.36 4.36 0 0 0 23.99 29h-2a6.5 6.5 0 0 1 6.48-6Z" fill="#fff"/></svg>