<?xml version='1.0' encoding='utf-8'?>
<!-- by TradeStack -->
<svg width="56" height="56" viewBox="0 0 56 56" xmlns="http://www.w3.org/2000/svg"><path fill="#F0F3FA" d="M0 0h56v56H0z" /><path d="M20.77 28.26c0-.87-1.01-1.45-1.8-1.45-.32 0-.65.08-.97.08v3.03c.39.19.82.26 1.25.26 1.01.04 1.52-.63 1.52-1.92Zm2.23-.04a6 6 0 0 1-.2 1.52C22.41 30.94 21.33 32 20 32c-.64 0-1.4-.14-2-.34v2.97L16 35v-9.52c.2-.07.43-.11.66-.18.24-.04.51-.11.79-.15l.86-.11c.27-.04.58-.04.82-.04.62 0 1.17.11 1.68.26A3.18 3.18 0 0 1 23 28.22ZM48.55 23.75a.5.5 0 0 0-.16.39v4.78c0 .04.04.04.04.04.04 0 .04 0 .04-.04L52 20.1c0-.04-.04-.04-.04-.04h-.04l-3.37 3.7ZM42.4 20.2c-.05 0-.09 0-.09.05v.03l3.26 3.9c.04.03.08.03.12.03h.04l1.37-.46c.04 0 .08-.04.08-.12 0-.04 0-.08-.04-.08l-4.75-3.34ZM51.92 19.12c0-.08-.04-.12-.08-.12h-9.76c-.04 0-.08.04-.08.08s0 .04.04.08l5.6 3.96c.09.08.2.08.28.08.16 0 .24-.08.35-.15l3.65-3.93ZM47.57 24.25c.12 0 .2.08.2.16v4.55c0 .04-.05.04-.05.04-.03 0-.03 0-.03-.04l-1.65-4.08v-.04c0-.04.04-.08.08-.08l1.45-.5Z" fill="#A9CB6B" /><path d="M38.04 23.32 40 23v2h2.04l.7 1.5H40v2.52c0 .83.47 1.35 1.35 1.35.23 0 .46-.04.69-.07.23-.04.46-.1.65-.18l.31 1.53c-.23.1-.54.17-.85.24a5.25 5.25 0 0 1-2.57-.1c-.39-.14-.7-.36-.93-.6a2.44 2.44 0 0 1-.5-.93 4 4 0 0 1-.15-1.2l.04-5.74ZM8.72 27.09c-.18-.24-.48-.38-.89-.38-.15 0-.26 0-.4.03-.16 0-.28.04-.43.04V32H5v-6.55c.19-.03.37-.1.6-.14.22-.03.48-.1.74-.14l.82-.1c.26-.04.56-.04.82-.04.52 0 .93.07 1.27.18.33.14.6.28.81.45.3-.17.64-.35 1.01-.49s.74-.17 1.04-.17c.56 0 1.05.07 1.42.2 1.18.45 1.47 1.71 1.47 2.86V32h-2v-3.62c0-.63-.14-1.05-.3-1.29-.14-.24-.44-.38-.85-.38-.11 0-.26.03-.48.07-.19.07-.37.14-.49.17.18.4.12.89.12 1.32V32H9v-3.62c-.02 0 .02-.94-.28-1.29ZM27.13 30.55c.32 0 .55-.03.87-.03v-1.45c-.22-.1-.46-.1-.7-.1-.17 0-.35 0-.53.03-.18.03-.3.07-.43.14a.66.66 0 0 0-.3.24c-.1.1-.14.2-.14.38 0 .3.11.52.33.62.25.14.54.17.9.17ZM26.95 25c.57 0 1.07.07 1.47.17.4.14.68.31.93.55.22.25.4.52.5.87.11.34.15.72.15 1.13v3.94c-.29.06-.68.13-1.19.2-.5.07-1.1.14-1.83.14a4.4 4.4 0 0 1-1.22-.14 2.04 2.04 0 0 1-.93-.38 1.92 1.92 0 0 1-.61-.69 2.22 2.22 0 0 1-.22-1.03c0-.38.1-.73.25-1 .18-.28.4-.52.65-.66.25-.17.57-.27.93-.34.36-.07.72-.1 1.12-.1.4 0 .65.04 1.05.13v-.17c0-.84-.5-1.07-1.23-1.07-.33 0-.69.04-1 .07-.33.04-.62.14-.87.17l-.22-1.51c.15-.04.25-.07.43-.1l.54-.11c.18-.04.43-.07.65-.07h.65ZM31 28.5c0-2.15 1.82-3.5 3.86-3.5a5.15 5.15 0 0 1 2.03.37l-.46 1.5c-.2-.07-.42-.14-.65-.17-.23-.07-.5-.07-.8-.07-1.13 0-1.98.75-1.98 1.87 0 1.22.84 1.9 2.05 1.9.23 0 .54-.03.84-.06.27-.04.58-.14.8-.2l.31 1.52a6.78 6.78 0 0 1-2.14.34C32.71 32 31 30.76 31 28.5Z" fill="#231F20" /></svg>