<?xml version='1.0' encoding='utf-8'?>
<!-- by TradeStack -->
<svg width="56" height="56" viewBox="0 0 56 56" xmlns="http://www.w3.org/2000/svg"><path fill="url(#aodhnncjd)" d="M0 0h56v56H0z" /><path d="M8.53 37H8l13.71-22 3.12 5.01L27.95 15l3.18 5.1L34.3 15 48 37h-.52L34.31 15.87l-2.91 4.66L41.65 37h-.51l-10-16.05-2.87 4.59L35.41 37h-.52l-6.88-11.04L21.1 37h-.52l7.15-11.47-2.9-4.66L14.77 37h-.53l10.33-16.57-2.85-4.56L8.52 37ZM28 25.1l2.86-4.58-2.9-4.65-2.86 4.58L28 25.1Z" fill="#fff" /><defs><linearGradient id="aodhnncjd" x1="10.42" y1="9.71" x2="68.15" y2="76.02" gradientUnits="userSpaceOnUse"><stop stop-color="#1A1E21" /><stop offset="1" stop-color="#06060A" /></linearGradient></defs></svg>