<!-- by TradeStack --><svg viewBox="0 0 56 56" xmlns="http://www.w3.org/2000/svg"><path fill="url(#aidks4or1)" d="M0 0h56v56H0z"/><path d="M6 24h3v.24H8v4.54C8 30.49 7.4 31 5.83 31 4.51 31 4 30.5 4 29.87c0-.15.06-.62.54-.62.48 0 .51.31.51.82 0 .22.1.63.66.63.9 0 1.29-.4 1.29-1.8v-4.66H6V24Zm3.15 6.14c.1-.1.21-.14.35-.14a.5.5 0 0 1 .36.14c.09.1.14.22.14.36 0 .15-.04.27-.14.36-.1.1-.21.14-.36.14a.47.47 0 0 1-.35-.14.47.47 0 0 1-.15-.36.5.5 0 0 1 .15-.36Zm6.34-.14a.47.47 0 0 0-.35.14c-.1.1-.14.22-.14.36 0 .15.05.27.14.36.1.1.22.14.35.14.14 0 .26-.04.36-.14.1-.1.15-.21.15-.36a.5.5 0 0 0-.5-.5ZM13 27.74h.57c1.33 0 1.98-.52 1.98-1.65 0-1.12-.36-1.81-2.03-1.81H13v3.46ZM11 24h2.95c2.2 0 2.57.84 2.56 2.02 0 1.18-.6 1.98-2.76 1.98H13v1.84c0 .21.03.32.08.44.05.15.17.25.35.32.13.05.32.08.57.08V31h-3v-.32c.26 0 .45-.03.57-.08.17-.08.3-.18.34-.32l.02-.05c.04-.08.07-.15.07-.52v-5.46h-1V24Zm14.07 6.26a1.55 1.55 0 0 1-.07-.48v-5.53h.74V24h-1.77l-2.12 5.35c-.01.02-.03.03-.05.03-.02 0-.04 0-.05-.03L19.5 24h-1.96v.25h.81v5.32l-.01.49a.75.75 0 0 1-.12.34.63.63 0 0 1-.32.23c-.1.03-.23.05-.4.05V31h2v-.32c-.17 0-.25-.02-.34-.05a.6.6 0 0 1-.32-.22.75.75 0 0 1-.12-.35l-.02-.5v-4.58h.11L21.35 31h.22L24 24.98v4.8c0 .2 0 .37-.04.5a.56.56 0 0 1-.3.32c-.1.04-.28.08-.5.08V31h2.73v-.32c-.22 0-.39-.04-.5-.1a.53.53 0 0 1-.32-.32ZM27 28.54c0 1.65.2 2.17 1.24 2.17.93 0 1.26-.58 1.26-2.25 0-1.18-.04-2.17-1.26-2.17-1.12 0-1.24.96-1.24 2.25Zm-1-.03c0-1.6.87-2.51 2.26-2.51 1.29 0 2.24.87 2.24 2.46 0 2.06-1.49 2.54-2.27 2.54-.4 0-2.23-.16-2.23-2.5ZM34.5 26c-.93 0-1.25.52-1.5 1.03h-.07L32.75 26H31v.3h1v3.41c0 .34-.06.6-.16.75-.1.16-.33.23-.69.23H31V31h3v-.31h-.18c-.39 0-.6-.08-.7-.25-.09-.14-.12-.37-.12-.73v-1.77c0-.6.5-1.27 1.07-1.27.27 0 .42.16.56.31.18.2.34.37.7.2.45-.2.35-1.18-.84-1.18Zm8.29 4.5c.26 0 .73-.21 1.21-.63v-1.52c-.69 0-2 .44-2 1.32 0 .27.1.83.79.83Zm2.21-.56c.02.27.1.43.4.43.19 0 .4-.18.43-.5H46c-.05.76-.44 1.07-1.09 1.07-.58 0-.9-.4-.95-.73-.34.36-.85.79-1.64.79-.72 0-1.29-.53-1.32-1.14-.08-1.52 2-1.7 2.93-1.8H44v-.8c0-.28-.14-.51-.27-.68-.13-.19-.39-.28-.74-.28-.3 0-.52.07-.66.22-.14.13-.2.28-.24.54-.06.36-.21.5-.5.5a.43.43 0 0 1-.3-.11c-.08-.07-.12-.18-.12-.32 0-.31.13-.53.44-.76.34-.24.85-.37 1.54-.37.73 0 1.22.13 1.49.38.26.25.36.54.36.97v2.59Zm6.15.52c.12.16.25.2.55.23V31h-2.3v-.31a.8.8 0 0 0 .4-.11c.12-.08.15-.2.18-.35.02-.13.02-.32.02-.6v-1.6a3 3 0 0 0-.16-1.16c-.12-.23-.31-.35-.68-.35-.42 0-.78.2-.98.55-.18.32-.18.81-.18 1.33v1.37c0 .48.08.87.62.9v.31H46.2v-.3c.18-.01.33-.04.42-.08.32-.14.39-.58.39-.9v-3.39h-.81V26h1.54l.17.95h.08c.2-.38.63-.95 1.62-.95.28 0 .53.05.75.16.21.11.39.28.5.5.13.23.15.5.15.83v2.23c-.02.26.03.59.15.74ZM37 27.86c0 1.3.31 1.54.95 1.54.61 0 1.05-.18 1.05-1.55 0-.96-.25-1.59-1.05-1.59-.68 0-.95.68-.95 1.6Zm3.1-1.66c.05-.17.1-.34.28-.4.27-.08.49-.02.57.28.08.37-.19.69-.52.8-.18.06-.4.06-.62 0 .1.24.19.56.19.94 0 1.3-1 1.7-2.07 1.86-1.1.17-1.37.3-1.37.64 0 .24.15.37.9.37l.4.02c1.14.03 2.59.07 2.59 1.5C40.45 33.56 39 34 37.9 34c-.77 0-2.18-.14-2.18-1.18 0-.18.03-.33.1-.45a.45.45 0 0 1 .43-.19c.27.05.35.29.3.52-.05.24 0 .55.26.71.36.23.75.28 1.23.28.67 0 1.86-.19 1.86-1.08 0-.51-.44-.72-.89-.77-.17-.02-.42-.02-.7-.02-1.03 0-2.5 0-2.5-1.06 0-.7.67-.94 1.42-1.08.05-.01.05-.07 0-.08-.9-.19-1.24-.69-1.24-1.73 0-.9.56-1.87 1.93-1.87.85 0 1.33.29 1.59.52.08.06.25.06.35.03.15-.05.2-.2.24-.36Z" fill="#fff"/><defs><linearGradient id="aidks4or1" x1="10.42" y1="9.71" x2="68.15" y2="76.02" gradientUnits="userSpaceOnUse"><stop stop-color="#1A1E21"/><stop offset="1" stop-color="#06060A"/></linearGradient></defs></svg>