<?xml version='1.0' encoding='utf-8'?>
<!-- by TradeStack -->
<svg width="56" height="56" viewBox="0 0 56 56" xmlns="http://www.w3.org/2000/svg"><path fill="#F0F3FA" d="M0 0h56v56H0z" /><path d="M21.96 22.64c4.75-3.55 11.11-4.82 17.05-5.1.1 0 .13.05.12.14a44.75 44.75 0 0 1-1.95 7.87c-1.28 3.7-3.14 7.27-5.96 9.75-.56.49-1.16.87-1.8 1.16l-.52.22c-.4.17-.8.33-1.18.55a1040.58 1040.58 0 0 0-4.96 2.8.11.11 0 0 0 .01.12 11.15 11.15 0 0 0 11.51-2.9c3.63-3.7 5.77-8.57 7.14-13.67a50.88 50.88 0 0 0 1.57-9.4.19.19 0 0 0-.1-.11 46.13 46.13 0 0 0-10.27.64 33.77 33.77 0 0 0-8.72 2.68c-2.1 1-3.79 2.1-5.07 3.28-3.2 2.97-4.39 6.71-3.58 11.21a.16.16 0 0 0 .09.12.16.16 0 0 0 .14 0l2.84-1.68a.32.32 0 0 0 .16-.3 8.13 8.13 0 0 1 3.48-7.38Zm-6 10.82 3.34 2.31a.06.06 0 0 1 .02.04.06.06 0 0 1-.01.05l-6.18 7.9c-.2.26-.17.3.12.15l14.44-8.12a.1.1 0 0 0 .05-.09.1.1 0 0 0-.05-.09l-3.72-2.55a.16.16 0 0 1-.07-.11.16.16 0 0 1 .04-.13l6.63-7.97c.07-.09.05-.13-.06-.12a6352.03 6352.03 0 0 1-14.58 8.56.13.13 0 0 0 0 .13c0 .02.01.03.03.04Z" fill="#90C73F" /></svg>