<!-- by TradeStack --><svg width="56" height="56" viewBox="0 0 56 56" xmlns="http://www.w3.org/2000/svg"><path fill="#F0F3FA" d="M0 0h56v56H0z"/><path d="M28.91 26.25 28 20l-.91 6.25-3.32-2.48 2.48 3.32L20 28l6.25.91-2.48 3.32 3.32-2.48L28 36l.91-6.25 3.32 2.48-2.48-3.32L36 28l-6.25-.91 2.48-3.32-3.32 2.48Z" fill="#316CA8"/><path d="M29 7.5a.5.5 0 1 1-1 0 .5.5 0 0 1 1 0Zm-1 10.24v.16A10.41 10.41 0 0 0 17.66 28H9.18l6.47-1.96a12.51 12.51 0 0 1 10.43-10.4L28 9.28v8.47ZM25.79 40.3 28 47.15v-8.47l-.04.02A10.42 10.42 0 0 1 17.8 30h-2.14a12.51 12.51 0 0 0 10.13 10.3ZM46.82 28H38.5a10.41 10.41 0 0 0-8.5-9.93v-2.41c5.31.85 9.5 5.06 10.35 10.38L46.82 28Zm-8.47 2A10.42 10.42 0 0 1 30 38.52v1.82A12.5 12.5 0 0 0 40.34 30h-1.99ZM28.5 49a.5.5 0 1 0 0-1 .5.5 0 0 0 0 1ZM8 28.5a.5.5 0 1 1-1 0 .5.5 0 0 1 1 0Zm40.5.5a.5.5 0 1 0 0-1 .5.5 0 0 0 0 1Z" fill="#4199C0"/></svg>