<!-- by TradeStack --><svg width="56" height="56" viewBox="0 0 56 56" xmlns="http://www.w3.org/2000/svg"><path fill="#F0F3FA" d="M0 0h56v56H0z"/><path fill-rule="evenodd" d="M8.28 25H4v6h4.28c.95 0 1.72-.93 1.72-2.07v-1.86C10 25.93 9.23 25 8.28 25ZM7.2 26.13H6v3.74h1.2c.46 0 .83-.44.83-1v-1.75c0-.55-.37-1-.83-1ZM10.5 31v-6h2.83l1.17 2.88L15.67 25h2.83v6h-2v-3.61L15.06 31h-1.12l-1.44-3.61V31h-2ZM28 25v6h2v-3.61L31.44 31h1.12L34 27.39V31h2v-6h-2.83L32 27.88 30.83 25H28Zm-3 1.69V27h-1.87v-.08c0-.38-.26-.69-.58-.69h-.98c-.32 0-.58.31-.58.7V29c0 .38.26.7.58.7h.98c.32 0 .58-.32.58-.7v-.15h-1.34V27.7H25v1.61c0 .93-.64 1.69-1.42 1.69h-3.22c-.79 0-1.36-.76-1.36-1.69v-2.62c0-.93.57-1.69 1.36-1.69h3.22c.78 0 1.42.76 1.42 1.69Zm11.5.14c0-1.01.68-1.83 1.53-1.83h2.94c.85 0 1.53.82 1.53 1.83v2.34c0 1.01-.68 1.83-1.53 1.83h-2.94c-.85 0-1.53-.82-1.53-1.83v-2.34Zm2 .06c0-.33.22-.6.5-.6h1c.28 0 .5.27.5.6v2.22c0 .33-.22.6-.5.6h-1c-.28 0-.5-.27-.5-.6v-2.22ZM43 25v5.98h2v-2.07h1.3c.3 0 .7.27.7.6V31h1.9v-1.05a2 2 0 0 0-.77-1.62c.51-.28.87-.89.87-1.59 0-.96-.67-1.74-1.5-1.74H43Zm3.44 1.26H45v1.3h1.44c.3 0 .56-.26.56-.6v-.1c0-.33-.25-.6-.56-.6ZM52 25h-2v6h2v-6Z" fill="#231F20"/></svg>