<?xml version='1.0' encoding='utf-8'?>
<!-- by TradeStack -->
<svg width="56" height="56" viewBox="0 0 56 56" xmlns="http://www.w3.org/2000/svg"><path fill="#F0F3FA" d="M0 0h56v56H0z" /><path d="M31.78 15H13.54l9.16 33 9.08-33Z" fill="#9FA09E" /><path d="M12.85 28h-.18l-3.06-5.8v4.25c0 .27.02.5.04.67.04.16.1.3.18.4.08.1.19.16.33.2.14.05.32.08.54.09v.2H8v-.2c.91-.07 1-.49 1-1.36v-4.29c0-.76-.26-.9-.98-.94V21h2.28l2.82 5.35L15.74 21h2.28v.22a3 3 0 0 0-.51.06.67.67 0 0 0-.3.15.52.52 0 0 0-.16.28c-.02.12-.05.27-.05.45v4.7c0 .7.4.91 1.02.95v.2h-3.06v-.2c.73-.04 1.04-.29 1.04-1.07v-4.79L12.85 28ZM26.1 28h-2.93v-.19h.25a2.92 2.92 0 0 0 .28-.05.74.74 0 0 0 .1-.04c.06-.03.1-.07.12-.11.04-.05.05-.1.05-.15 0-.17-.07-.42-.22-.72l-.48-1.01h-3l-.54 1.23a1.04 1.04 0 0 0-.1.42c0 .14.07.24.19.32.12.07.32.11.6.11v.2h-2.29v-.2c.14 0 .27-.03.37-.06.1-.04.2-.12.3-.24.1-.12.2-.3.32-.51l.46-.93L21.97 21h.22l2.87 5.88.25.48c.07.11.14.2.22.27.07.07.15.1.24.13.1.03.2.04.33.05v.2Zm-2.98-2.7-1.33-2.91-1.34 2.91h2.67ZM34.04 21.22c-.18 0-.34.02-.48.05-.13.03-.26.08-.38.14-.12.07-.25.17-.38.3-.13.12-.29.29-.48.5l-1.68 1.93 2.22 2.88.3.38c.1.1.2.17.28.22.1.06.2.1.3.13l.4.06v.2h-3.42v-.2l.3-.03c.38 0 .58-.1.58-.3 0-.16-.2-.5-.59-1.04l-1.09-1.48-1.38 1.56c-.2.25-.36.44-.45.59-.1.14-.15.25-.15.32 0 .12.06.21.19.27.12.05.36.09.7.11v.2h-2.7v-.2c.16-.01.28-.03.37-.05.1-.02.2-.07.3-.14.11-.08.24-.2.39-.36l.61-.65 1.8-2.05-1.23-1.68-.7-.88a3.49 3.49 0 0 0-.5-.5c-.13-.11-.27-.18-.4-.22a2.1 2.1 0 0 0-.49-.06V21h3.48v.22h-.32c-.37 0-.56.11-.56.31 0 .12.08.3.22.55.16.24.41.59.77 1.04l.48.62 1.3-1.47c.17-.2.29-.34.35-.44.07-.1.1-.2.1-.28 0-.12-.05-.2-.16-.25-.1-.05-.32-.07-.64-.08V21h2.74v.22ZM41.75 25.32c0 .4-.03.75-.09 1.02-.05.26-.15.5-.28.73-.46.72-1.32 1.08-2.58 1.08-1.81 0-2.8-.88-2.8-2.7v-3.29c0-.72-.5-.9-1.12-.94V21h3.26v.22c-.6.05-1.14.2-1.14.94v3.38c0 1.28.77 2.15 2.07 2.15.44 0 .83-.07 1.17-.22.34-.15.6-.35.75-.6.09-.17.15-.36.19-.58.04-.22.06-.51.06-.88v-2.85c0-.26-.02-.48-.04-.65a.83.83 0 0 0-.16-.4.61.61 0 0 0-.33-.2 2.2 2.2 0 0 0-.53-.09V21h2.66v.22c-.23.02-.43.06-.57.1a.7.7 0 0 0-.34.2.83.83 0 0 0-.15.4c-.02.16-.03.38-.03.64v2.76ZM47.74 23.12h-.28a5.08 5.08 0 0 0-.3-.73 3.63 3.63 0 0 0-.41-.5c-.4-.4-.88-.59-1.41-.59-.36 0-.65.09-.87.26a.85.85 0 0 0-.32.7c0 .3.13.57.39.82s.7.53 1.3.83c.76.39 1.3.76 1.65 1.12.34.37.51.77.51 1.2 0 .27-.06.52-.18.76-.12.23-.29.43-.5.6-.2.18-.45.32-.74.41-.3.1-.6.15-.93.15-.24 0-.47-.02-.7-.05-.22-.04-.45-.1-.66-.19a2.74 2.74 0 0 0-.55-.12.29.29 0 0 0-.22.1.4.4 0 0 0-.1.25h-.25l-.34-2.24h.26c.29.65.62 1.13.99 1.43.37.3.81.44 1.34.44.42 0 .76-.1 1.02-.32s.39-.5.39-.85a1.18 1.18 0 0 0-.17-.63c-.14-.2-.35-.4-.65-.61a8 8 0 0 0-1.05-.63 6.5 6.5 0 0 1-.82-.47 2.98 2.98 0 0 1-.57-.48 1.64 1.64 0 0 1-.41-1.1c0-.58.22-1.04.66-1.37.2-.14.4-.25.63-.32.23-.08.45-.12.68-.12a4.24 4.24 0 0 1 1.53.32l.22.03c.19 0 .31-.12.36-.35h.25l.25 2.25Z" fill="#9E3136" /><path d="M8 29h40v1H8z" /></svg>