<!-- by TradeStack --><svg width="56" height="56" viewBox="0 0 56 56" xmlns="http://www.w3.org/2000/svg"><path fill="#F0F3FA" d="M0 0h56v56H0z"/><path d="M28 15c7.14 0 13.3 5.78 14 13l2.97 2.04c.01-.26.03-.51.03-.77C44.99 19.73 37.38 12 28 12c-9.38 0-16.99 7.73-17 17.27l.03.79L14 28c.69-7.23 6.86-13 14-13Z" fill="#FAC00B"/><path d="M35.02 25 28 30l-7.02-4.99L11 31.84c.12 1.37.6 2.57 1 3.66l9-6.5 18.65 13c.82-.77 1.69-1.58 2.35-2.5L31 32l4.02-3 9.06 6.34c.42-1.12.73-2.28.91-3.47l.01-.04L35.02 25Z" fill="#DF7D28"/></svg>