<!-- by TradeStack --><svg width="56" height="56" viewBox="0 0 56 56" xmlns="http://www.w3.org/2000/svg"><path fill="#F0F3FA" d="M0 0h56v56H0z"/><path d="M30.83 42.73c.56.14.36.95-.23 1.04-4.36.68-8.27-.17-11.74-2.55-11.15-7.64-8.12-24.57 4.85-28.19.72-.2 1.3.52.67.94-3.41 2.28-6.18 5.62-6.97 9.65-.62 3.11-.47 6.36.72 9.3a14.9 14.9 0 0 0 10.92 9.38l1.78.43Z" fill="#236DB2"/><path d="M20.55 19.64a12.34 12.34 0 0 1 18.14-3.18c.43.34 1.5 1 .97 1.64-.16.18-.44.16-.66.06-3.7-1.59-7.2-2-10.8-.09-5.56 2.94-8.17 8.65-6.24 14.78.2.63-.59.97-.89.51-2.76-4.18-3.23-9.38-.52-13.72Z" fill="#02A1DF"/><path d="M41.57 21.41A9.84 9.84 0 0 1 44 28.37c-.01.5-.53.62-.9.43a.2.2 0 0 1-.11-.12c-.93-3.1-2.49-5.39-5.53-6.63-4.38-1.78-9.1-.95-11.94 3-.47.65-1.49.4-1.12-.42.9-2.04 2.38-4 4.24-5.18a10.12 10.12 0 0 1 12.93 1.96Z" fill="#47C5EA"/></svg>