<!-- by TradeStack --><svg width="56" height="56" viewBox="0 0 56 56" xmlns="http://www.w3.org/2000/svg"><path fill="#F0F3FA" d="M0 0h56v56H0z"/><path d="M10.49 38h3.44l1.17-2.82L17.24 38h4.55l1.2-1.97h.65L24.97 38h15.85c.9-.03 2.93-.58 3.9-2.53 1.2-2.42 1.72-3.64 1.72-4.85 0-1.21-2.08-5.62-4.55-5.62h-4.06c-.18-.31-.2-1 1.13-1H47l1-2.9-1.6-3.1H35.12c-.56.06-2.02.51-3.36 1.84L30.6 18h-5.09l-4.83 8.4h-.64l-.57-4.4-1.88-4h-4.46L8 35.18 10.49 38ZM8.9 35l4.73-16h3.62l.7 11.97L25.93 19h4.5l-3.56 14H36.9c1.05-.09 3.16-1.15 3.16-3.36-.03-.52-.35-1.64-1.38-1.64h-5.4c-1.01-.03-3.04-.64-3.04-3.06 0-3.03 2.58-5.94 5.51-5.94h10.27l-.84 2h-8.11c-1.1.06-3.29.76-3.29 2.84.06.61.55 2.16 1.97 2.16h6.03c.77.03 2.29.4 2.29 2.9 0 3.14-2.9 6.1-5.03 6.1H23.12l2.83-10.95L18.93 35h-3.54l-.65-10.95L11.5 35h-2.6Z" fill="#FF0602"/></svg>