<!-- by TradeStack --><svg width="56" height="56" viewBox="0 0 56 56" xmlns="http://www.w3.org/2000/svg"><path fill="#F0F3FA" d="M0 0h56v56H0z"/><path d="M21.88 24.45c.64.34 1.2-.3 1.6-.68a.07.07 0 0 1 .1.08c-1.06 2.08-3.56 1.13-3.26-1.2.19-1.52 1.82-3.2 3.48-2.43a.12.12 0 0 0 .1 0l.32-.2a.07.07 0 0 1 .1.02v.04l-.26 1.34a.1.1 0 0 1-.18.06.1.1 0 0 1-.03-.06c-.25-1.4-1.26-1.36-1.9-.33-.5.8-1.24 2.76-.07 3.36ZM36 22h1.87l.03.01a.04.04 0 0 1 .01.05l-.01.02-1.5 1-.02.03v.02l.57 1.81a.04.04 0 0 1-.01.05h-.05l-1.51-1.11a.04.04 0 0 0-.05 0l-1.51 1.11a.04.04 0 0 1-.07-.02v-.02l.57-1.81v-.03l-.01-.02-1.51-1-.01-.02a.04.04 0 0 1 .01-.05l.02-.02H34.71l.02-.02.58-1.93.01-.02a.04.04 0 0 1 .06.02l.59 1.93.01.02h.03ZM11.16 24.77l.2.06c.03 0 .04.01.05.03a.08.08 0 0 1 0 .1c-.02.02-.04.04-.06.04H9.4a.1.1 0 0 1-.06-.03.1.1 0 0 1-.01-.13.1.1 0 0 1 .05-.04c.39-.09.58-.25.69-.67a440.33 440.33 0 0 0 .71-3.04h-.01l-.02.01-2.15 3.82a.12.12 0 0 1-.06.05.11.11 0 0 1-.07 0 .12.12 0 0 1-.06-.04.13.13 0 0 1-.03-.07l-.3-3.84V21l-.03-.01h-.02l-.01.02-.75 3.17c-.07.33.05.61.4.64.02 0 .03 0 .05.02a.08.08 0 0 1 0 .12c-.02.01-.04.04-.06.04H6.39a.1.1 0 0 1-.06-.03.1.1 0 0 1-.02-.13.1.1 0 0 1 .06-.04c.3-.08.5-.3.6-.64l.87-3.37c.1-.38-.04-.59-.43-.61h-.02a.05.05 0 0 1-.03-.04v-.07c.01-.05.04-.07.09-.07H8.8c.03 0 .05.04.05.08l.29 3.2c0 .09.03.1.07.02l1.83-3.22a.16.16 0 0 1 .06-.06.15.15 0 0 1 .07-.02h1.31a.06.06 0 0 1 .04.02.06.06 0 0 1 .02.04v.04c0 .03-.02.05-.05.05-.34.07-.56.25-.62.5a1908.3 1908.3 0 0 1-.91 3.9.28.28 0 0 0 .1.18c.03.02.06.04.1.04ZM13.61 24.66c.8.01 1.44-.32 1.89-1a.1.1 0 0 1 .05-.05.1.1 0 0 1 .07.01.1.1 0 0 1 .05.05.1.1 0 0 1 0 .08l-.33 1.1a.21.21 0 0 1-.08.1.2.2 0 0 1-.12.05h-3.27c-.02 0-.04 0-.06-.02a.09.09 0 0 1-.03-.05c-.01-.07.03-.11.12-.13.26-.04.43-.2.5-.48a187.08 187.08 0 0 0 .97-3.93.16.16 0 0 0-.04-.07.16.16 0 0 0-.12-.06c-.1 0-.17 0-.2-.03-.17-.16-.15-.23.09-.23h3.02l.03.03a.08.08 0 0 1 .01.07l-.2 1c-.01.04-.03.06-.05.08a.1.1 0 0 1-.15-.02.12.12 0 0 1-.02-.08c.04-.77-.82-.83-1.34-.77a.12.12 0 0 0-.07.03.12.12 0 0 0-.03.06l-.4 1.73c-.01.04 0 .07.05.07.37.04.68-.06.95-.28.14-.11.21-.36.38-.5a.04.04 0 0 1 .05 0l.02.03v.03l-.43 1.8a.1.1 0 0 1-.02.03.1.1 0 0 1-.06.04h-.04c-.03-.02-.05-.04-.04-.07.1-.7-.37-.79-.9-.76-.05 0-.08.04-.09.09l-.38 1.75a.26.26 0 0 0 .04.21l.08.07c.03.02.07.02.1.02ZM19.58 24.7l.32.13c.01 0 .03.02.03.04a.09.09 0 0 1-.02.1c-.01.01-.03.03-.05.03h-1.14c-.05 0-.08-.03-.1-.08-.16-.74-.34-1.47-.54-2.18-.04-.13-.1-.19-.18-.16a.07.07 0 0 0-.03.02l-.02.04-.38 1.72c-.07.3.06.44.39.44h.03l.02.04a.07.07 0 0 1 0 .07c-.04.05-.1.09-.16.09h-1.8a.07.07 0 0 1-.05-.03.08.08 0 0 1-.02-.06c.01-.08.05-.12.11-.12.27-.02.43-.16.5-.4l.9-3.66c.08-.35-.04-.53-.35-.55l-.03-.01-.02-.03a.06.06 0 0 1 .01-.06c.04-.03.1-.05.19-.06 1-.04 1.68-.02 2.06.05.97.19.96 1.49.34 2.07-.15.14-.36.23-.57.32-.06.02-.08.06-.06.12l.52 2a.2.2 0 0 0 .1.11Zm-1.13-4.44-.53 1.98v.02l.02.01h.01c.1.04.21.04.32.03a.8.8 0 0 0 .31-.13 1.07 1.07 0 0 0 .4-.58l.06-.19c.06-.24.04-.5-.06-.72a.79.79 0 0 0-.48-.43h-.04v.01ZM25.52 22.17a.03.03 0 0 0 .01.04h.02c.59.04 1-.2 1.24-.74.04-.08.08-.09.15-.04.02.03.03.06.02.1-.16.56-.29 1.13-.4 1.7-.01.09-.07.12-.16.09a.07.07 0 0 1-.04-.04.08.08 0 0 1 0-.05c.12-.62-.37-.77-.88-.68a.1.1 0 0 0-.08.07c-.14.53-.28 1.06-.4 1.58-.04.13-.03.23.01.3.03.05.07.1.11.12.05.03.1.05.14.05.9 0 1.33-.41 1.93-1.05a.07.07 0 0 1 .12.02v.05l-.39 1.24c-.01.05-.04.07-.1.07h-3.34c-.04 0-.06-.02-.07-.06-.01-.09.02-.14.1-.16.29-.07.46-.24.53-.5l.87-3.63c.07-.27-.03-.41-.3-.43a.08.08 0 0 1-.05-.03.09.09 0 0 1-.02-.06c0-.09.04-.13.1-.13h3.11c.04 0 .06.02.05.07l-.23 1.15a.1.1 0 0 1-.03.07.1.1 0 0 1-.13-.02.1.1 0 0 1-.03-.07c0-.81-.6-.83-1.17-.9-.07-.01-.14 0-.19.04-.05.04-.1.1-.1.16l-.4 1.67ZM30.58 22.6l.54 1.98a.2.2 0 0 0 .12.13l.3.13.03.04a.08.08 0 0 1-.02.09l-.04.03h-1.18c-.03 0-.05 0-.06-.02a.1.1 0 0 1-.04-.05l-.5-2.12c-.02-.11-.1-.17-.2-.15-.05 0-.07.05-.08.15-.02.5-.27 1.24-.38 1.76v.07a.1.1 0 0 0 .07.05l.36.15a.07.07 0 0 1 .04.04v.06c-.03.03-.06.06-.1.06h-1.88c-.05 0-.07-.04-.06-.1a.18.18 0 0 1 .06-.1c.2-.17.45.03.54-.38l.9-3.6c.08-.32.08-.56-.3-.6a.07.07 0 0 1-.06-.02.08.08 0 0 1-.01-.06c0-.06.03-.1.08-.1.91-.05 2.6-.2 2.9.69.27.77-.23 1.52-.96 1.75a.1.1 0 0 0-.06.05.1.1 0 0 0 0 .07Zm-.5-2.3-.52 1.97a.02.02 0 0 0 0 .02h.01l.02.01c.2.06.43.02.63-.1.19-.14.34-.35.4-.6l.04-.15a1.11 1.11 0 0 0-.05-.73.85.85 0 0 0-.2-.27.73.73 0 0 0-.28-.16h-.04v.01ZM20.58 30.6c.52-.1.95-.37 1.27-.8a.06.06 0 0 1 .07-.02.06.06 0 0 1 .02.08c-.66 1.55-2.9 1.57-3.22-.24-.33-1.88 1.33-4.2 3.4-3.43a.25.25 0 0 0 .2-.02l.28-.14c.1-.06.13-.03.11.08a1782.59 1782.59 0 0 1-.32 1.41.1.1 0 0 1-.14-.04.11.11 0 0 1-.01-.04c-.05-.6-.39-1.3-1.13-1.03-.7.26-1.14 1.24-1.3 1.9-.23.91-.35 1.84.62 2.27.04.03.1.03.15.02ZM23.19 30.67a1.8 1.8 0 0 1-.6-1.52c.02-.64.29-1.32.74-1.9.45-.57 1.04-1 1.65-1.16.6-.18 1.18-.09 1.59.24.4.33.62.88.6 1.52a3.4 3.4 0 0 1-.74 1.9 3.3 3.3 0 0 1-1.65 1.16c-.61.18-1.18.09-1.6-.24Zm.77.01c.15.07.33.08.52.03s.38-.15.58-.31c.19-.16.38-.36.55-.6a4.2 4.2 0 0 0 .74-2.5 1.62 1.62 0 0 0-.18-.63.8.8 0 0 0-.38-.36.79.79 0 0 0-.52-.03c-.19.05-.38.16-.58.31a3 3 0 0 0-.55.6 4.2 4.2 0 0 0-.74 2.5c.02.25.09.46.18.63.1.18.23.3.38.36ZM45.5 29.55c-.28-2.05 1.38-4.03 3.55-3.35a.1.1 0 0 0 .1-.01l.25-.18a.07.07 0 0 1 .08 0 .07.07 0 0 1 .03.07l-.28 1.42a.08.08 0 0 1-.07.07c-.02 0-.04 0-.06-.02a.08.08 0 0 1-.02-.04c-.08-.33-.13-.7-.36-.93-.42-.43-.9-.22-1.26.17a3.58 3.58 0 0 0-.99 2.68c.04.77.5 1.37 1.32 1.07.34-.13.62-.43.88-.7a.05.05 0 0 1 .09.07c-.75 1.55-3 1.57-3.26-.32ZM12.45 29.44h-1.03l-.06.01a9.99 9.99 0 0 0-.64.98c-.1.2-.01.38.22.46.02 0 .03.02.03.03l.01.04s0 .02-.02.03a.05.05 0 0 1-.03.01H9.9l-.03-.01a.06.06 0 0 1-.01-.1c.36-.33.64-.7.93-1.13a617.29 617.29 0 0 1 2.56-3.75c.02-.01.05-.01.07 0 .03 0 .05.02.06.04.02.02.03.05.03.08l-.07 4.27c0 .2.07.37.24.45l.04.04a.08.08 0 0 1-.02.09.07.07 0 0 1-.05.02h-1.59c-.02 0-.04 0-.06-.02a.09.09 0 0 1 .04-.15c.54-.12.44-.88.48-1.31 0-.05-.02-.08-.07-.08Zm-.83-.41a.04.04 0 0 0 0 .04l.01.02h.02l.85.03a.04.04 0 0 0 .04-.04l.05-1.35-.01-.03a.04.04 0 0 0-.05-.02l-.02.02-.9 1.33ZM17.41 29.11l.03.03a.05.05 0 0 0 .06 0l.02-.04.54-2.37c.06-.3-.04-.49-.31-.55a.09.09 0 0 1-.05-.04.1.1 0 0 1 0-.12.09.09 0 0 1 .07-.02h1.13a.1.1 0 0 1 .06.03.1.1 0 0 1 .01.13.1.1 0 0 1-.05.03.72.72 0 0 0-.59.58c-.33 1.37-.67 2.77-.97 4.17l-.02.03a.08.08 0 0 1-.07.03l-.03-.01-.06-.04a.1.1 0 0 1-.04-.05l-1.5-3.92-.01-.02h-.05l-.02.03-.62 2.8c-.11.5-.26.88.28 1.03l.04.04a.09.09 0 0 1-.01.1l-.05.04h-1.24c-.02 0-.04 0-.06-.02a.09.09 0 0 1-.03-.06c0-.02 0-.04.02-.06a.08.08 0 0 1 .05-.03c.3-.07.48-.27.57-.6.3-1.13.6-2.3.86-3.45.08-.34-.06-.54-.37-.59-.08 0-.11-.05-.11-.13 0-.04.02-.06.06-.06h1.24c.04 0 .07.02.09.06l1.13 3.05ZM28.52 30.8l.3.04a.07.07 0 0 1 .05.04.07.07 0 0 1 0 .06l-.02.03a.05.05 0 0 1-.05.03h-1.92l-.02-.02a.07.07 0 0 1-.02-.06c0-.07.04-.1.11-.11a.73.73 0 0 0 .36-.15.19.19 0 0 0 .07-.1c.33-1.32.65-2.64.95-3.96.05-.2-.06-.32-.32-.38a.08.08 0 0 1-.05-.03.09.09 0 0 1 0-.1.08.08 0 0 1 .06-.03c.75-.07 3.02-.29 2.98 1.01-.02.74-.35 1.2-.98 1.38a.15.15 0 0 0-.08.08.16.16 0 0 0-.02.1c.16.64.34 1.27.5 1.86.05.2.2.32.43.35.02 0 .03.02.04.03.02.01.02.03.02.05v.04c0 .03-.01.04-.04.04h-1.2c-.05 0-.07-.02-.08-.07-.15-.66-.33-1.35-.5-2a.51.51 0 0 0-.12-.26.1.1 0 0 0-.15 0 .1.1 0 0 0-.02.06l-.42 1.83a.2.2 0 0 0 .02.15.18.18 0 0 0 .12.08Zm.9-4.5-.54 2v.01h.02c.2.06.43.02.62-.11.2-.14.35-.35.41-.6l.04-.14a1.1 1.1 0 0 0-.05-.73.77.77 0 0 0-.48-.44h-.02ZM32.93 30.3c-.08.34.11.47.4.53.07 0 .08.04.03.1l-.03.03a.12.12 0 0 1-.1.04h-1.82l-.04-.01a.06.06 0 0 1-.02-.04v-.04l.03-.03.1-.06a.45.45 0 0 1 .14-.05.38.38 0 0 0 .3-.3l.9-3.59c.04-.13.04-.26.03-.4 0-.06-.02-.1-.05-.14a.2.2 0 0 0-.18-.05c-.04 0-.08-.01-.1-.05l-.04-.06c-.03-.06-.01-.1.06-.1.63-.1 2.19-.2 2.67.32.65.72.2 1.58-.53 1.96-.35.19-.75.27-1.19.24a.19.19 0 0 0-.12.04.2.2 0 0 0-.07.11l-.37 1.54Zm.99-4-.54 1.99a.02.02 0 0 0 0 .01l.02.01c.21.06.45.02.65-.12.2-.15.35-.37.43-.64v-.03c.08-.27.06-.55-.04-.78a.8.8 0 0 0-.5-.46h-.01a.02.02 0 0 0-.01.01ZM39.85 30.73l.34.11c.02 0 .03.02.04.04a.08.08 0 0 1-.01.1.07.07 0 0 1-.05.01l-1.95.01a.1.1 0 0 1-.06-.03.1.1 0 0 1 0-.13.1.1 0 0 1 .05-.04c.37-.06.51-.22.6-.6.3-1.22.6-2.44.88-3.65a.26.26 0 0 0-.05-.22.24.24 0 0 0-.2-.09c-.11.01-.18-.04-.2-.15 0-.05.01-.09.07-.09h1.8a.1.1 0 0 1 .06.02.1.1 0 0 1 .03.06.1.1 0 0 1 0 .07.1.1 0 0 1-.06.04.89.89 0 0 0-.59.68l-.71 3.16c-.06.23-.08.43-.07.6.01.04.04.08.08.1ZM42.27 27c-.23.93-.44 1.94-.66 2.9-.1.42-.24.82.28.92.02 0 .04.02.05.04a.1.1 0 0 1-.01.11.09.09 0 0 1-.06.03h-1.26l-.03-.01a.06.06 0 0 1-.01-.07l.02-.03c.37-.15.57-.33.63-.54.32-1.25.6-2.57.9-3.82.02-.06 0-.11-.06-.14l-.45-.22a.05.05 0 0 1-.03-.05v-.05c0-.05.03-.07.07-.07h1.27c.05 0 .07.02.09.06l1.16 3c0 .02.02.03.03.04a.06.06 0 0 0 .07 0l.02-.04.51-2.17c.09-.34.04-.63-.32-.72a.09.09 0 0 1-.05-.03.1.1 0 0 1 .02-.12.08.08 0 0 1 .05-.02h1.2l.05.01a.07.07 0 0 1 .02.09c-.01.01-.02.03-.04.03-.61.28-.6.68-.76 1.28a132.92 132.92 0 0 0-.87 3.55.12.12 0 0 1-.1.04c-.01 0-.03 0-.05-.02l-.03-.02a1301.68 1301.68 0 0 1-1.58-4 .04.04 0 0 0-.05 0l-.02.03ZM8.89 28.39c.82.33 1.03 1.19.56 1.92-.61.94-2.62.66-3.38.63-.04 0-.06-.01-.07-.04a.07.07 0 0 1 .06-.09c.58-.1.54-.49.65-.96l.74-3.11c.08-.36-.05-.55-.39-.58h-.02l-.02-.03a.06.06 0 0 1 0-.06.09.09 0 0 1 .08-.04c1.03-.05 1.75-.04 2.15.02 1 .16.9 1.48.22 1.98-.16.11-.38.17-.58.25-.09.04-.09.07 0 .1Zm-.41-2.17-.5 1.89.01.01H8v.01c.1.03.2.03.3.01.11-.01.2-.06.3-.12a.91.91 0 0 0 .23-.24c.07-.1.12-.2.15-.32l.04-.16c.06-.23.04-.48-.06-.68a.73.73 0 0 0-.45-.41h-.02a.02.02 0 0 0-.01.01Zm-.52 2.23-.54 2.1a.05.05 0 0 0 0 .04.04.04 0 0 0 .03.02l.08.02c.11.03.23.04.35.02a.87.87 0 0 0 .33-.14 1 1 0 0 0 .26-.26c.08-.1.13-.23.16-.36l.07-.24a1.14 1.14 0 0 0-.08-.76.91.91 0 0 0-.22-.28.8.8 0 0 0-.31-.17l-.08-.02a.04.04 0 0 0-.03 0 .04.04 0 0 0-.02.03ZM49.5 31a.5.5 0 1 0 0-1 .5.5 0 0 0 0 1ZM34.9 30.16a.24.24 0 0 1 .15-.3c.66-.23.78.51.54.9-.2.32-.46.55-.8.7-.05.02-.08 0-.08-.06v-.04c0-.03.01-.06.04-.07.21-.14.39-.33.51-.55a.09.09 0 0 0 .02-.06.09.09 0 0 0-.04-.05.88.88 0 0 1-.33-.47ZM50 32.1c-.12.34-.36.92-.76.9-13.52-.07-27.06 0-40.59 0l-.03-.03-.02-.02a.07.07 0 0 1 0-.07l.55-.83a.13.13 0 0 1 .04-.04.1.1 0 0 1 .05-.01H49.96l.03.03a.09.09 0 0 1 0 .08ZM47.74 35.95 6.3 36h-.02l-.02-.03a.05.05 0 0 1 0-.04l1.78-2.41.02-.02h41.07l.02.02a.05.05 0 0 1 0 .05l-1.39 2.36-.01.02h-.02Z" fill="#163053"/></svg>