<?xml version='1.0' encoding='utf-8'?>
<!-- by TradeStack -->
<svg width="56" height="56" viewBox="0 0 56 56" xmlns="http://www.w3.org/2000/svg"><path fill="#F0F3FA" d="M0 0h56v56H0z" /><path d="M11.18 25.15c.34-1.76.97-3.41 1.88-4.95.88-1.48 2-2.8 3.33-3.95a17.64 17.64 0 0 1 9.47-4.12c3.61-.41 7.02.17 10.22 1.76a16.62 16.62 0 0 1 5.35 4.2 15.3 15.3 0 0 1 3.4 7.08c0 .03.02.04.04.04.78-.04 1.46.18 2.04.66A2.98 2.98 0 0 1 48 28.2v8.69c0 .42-.03.76-.1 1.02a2.92 2.92 0 0 1-2.26 2.18c-.26.06-.65.08-1.18.08-1.2-.01-2.48-.02-3.86-.01a.05.05 0 0 0-.05.03 2.22 2.22 0 0 1-2 1.26h-21c-.99 0-1.69-.41-2.1-1.25a.08.08 0 0 0-.08-.05h-4.5c-.72 0-1.35-.26-1.9-.77a3 3 0 0 1-.88-1.51 3.68 3.68 0 0 1-.09-.9v-8.74c0-.26.03-.52.1-.78.26-.99.86-1.67 1.8-2.05.35-.14.76-.2 1.21-.2.04 0 .07-.01.07-.05Z" fill="#385527" /><path d="M31.09 17.3c-.64 0-1.13-.3-1.48-.92a.68.68 0 0 0-.42-.32l-.12-.03a.75.75 0 0 1-.27-.1 3.5 3.5 0 0 1-.45-.38c-.12-.12-.16-.32-.13-.6 0-.02 0-.06.02-.11.07-.47-.02-.7-.26-.69-.2 0-.29.14-.25.4v.04c.09.5.05.82-.1.98-.26.27-.48.43-.66.45a.76.76 0 0 0-.59.38c-.35.6-.84.9-1.47.9-.06 0-.08.03-.06.08l.09.28c.02.06.06.09.12.08h.2c.04 0 .06.01.07.04l1.15 4.2c0 .02 0 .04-.04.04l-.13-.01c-.04 0-.05.02-.05.05v.23c0 .03 0 .05.04.06.41.04.71.2.91.46l.15.25.13.23v.06a.81.81 0 0 0-.14.29l-.05.05c-.07.04-.1.1-.1.18 0 .05.02.08.07.1l.06.01c.03 0 .04.03.04.05l.01.6c0 .04-.02.06-.06.06-.11.01-.17.08-.17.2 0 .1-.01.18-.03.27 0 .03-.02.04-.04.04H12.93c-.04 0-.06-.02-.05-.06a16.02 16.02 0 0 1 6.45-10.12 14.96 14.96 0 0 1 17.37.02 16.06 16.06 0 0 1 6.41 10.12c.01.02 0 .04-.03.04H28.91c-.02 0-.03 0-.03-.03l-.03-.33c-.02-.08-.07-.13-.17-.15-.03 0-.04-.02-.04-.05l-.02-.59c0-.05.02-.08.07-.08.1 0 .14-.06.12-.15 0-.04-.04-.07-.08-.1a.52.52 0 0 1-.05-.04.1.1 0 0 1-.03-.06.52.52 0 0 0-.13-.24c-.04-.04-.03-.08 0-.12.04-.04.07-.1.1-.15.2-.47.56-.72 1.08-.76.03 0 .04-.02.04-.05v-.24c0-.04-.02-.05-.05-.05h-.12c-.04 0-.05-.02-.04-.05l1.14-4.2c.01-.02.02-.03.05-.02h.21c.07.01.12-.02.14-.09l.08-.28c.02-.05 0-.08-.06-.08Z" fill="#F0F3FA" /><path d="m33.1 13.9.08.1c.02.03.02.04-.01.03H33a.65.65 0 0 1-.26.02h-.07c-.06 0-.1 0-.13-.03a5.15 5.15 0 0 0-3.87 0c-.15-.08-.25-.12-.3-.11l-.2-.01-.23-.01a.44.44 0 0 0-.35.13l-2.24.02h-.02l-.01.01a2.88 2.88 0 0 1-2.73.07.14.14 0 0 1-.13-.06s0-.03.05-.07a12.43 12.43 0 0 1 10.59-.1Z" fill="#E8CD81" /><path d="M28.18 13.9h.2c.05 0 .15.04.3.12l.06.01H31a124.92 124.92 0 0 0 1.55 0l.13.02h.07c.09.01.17 0 .26-.02h.16c.03 0 .03 0 .01-.03l-.07-.1c.49.22.8.36.94.44l.98.61v.12c-.01.02-.02.03-.04.03-.19 0-.38.02-.57.05h-.14l-.11-.01c-.01 0-.02 0-.03.02l-.03.01c-.51 0-1.01-.01-1.5-.03l-.84.01a13.86 13.86 0 0 1-1.26 0 11.8 11.8 0 0 1-1.15 0l-.29.03-.3.02a.7.7 0 0 1-.3-.08l.08-.48c.05-.36-.08-.6-.37-.74ZM22.52 13.99c-.04.04-.06.06-.05.07.03.04.07.06.12.06.15 0 .3-.01.47-.04a.96.96 0 0 1 .28 0c.1.01.19.01.28 0h.2a2.46 2.46 0 0 0 .52-.02c.09-.02.19-.02.3-.02a27.76 27.76 0 0 1 .7 0h.02l2.24-.02a.94.94 0 0 0-.14.66c-.37.02-.62.03-.77.02a55.94 55.94 0 0 0-4.2.03c-.07 0-.14-.01-.2-.03a.5.5 0 0 0-.25-.03 3.9 3.9 0 0 1-.25.03h-.15l-.14-.04c-.07 0-.11-.04-.12-.08l1.14-.6Z" fill="#F1DEAC" /><path d="M21.38 14.58c.01.04.05.07.12.08l.15.03c.04.01.1.02.14.01.09 0 .17-.02.25-.03a.5.5 0 0 1 .24.03c.07.02.15.03.22.03a14.39 14.39 0 0 1 1.7-.03l.3-.02c.74 0 1.47 0 2.19.02.15 0 .4 0 .77-.02l.04.4c.01.16 0 .27-.05.33a.43.43 0 0 1-.34.19c-.01 0-.02 0-.03.02 0 .01 0 .02-.02.02-.04 0-.1.01-.17.04a.66.66 0 0 1-.14.05.9.9 0 0 0-.2.05.34.34 0 0 1-.19.02.1.1 0 0 0-.05.01c-.1.05-.22.09-.35.1l-.02-.01v-.03c-.1 0-.19 0-.3-.03a9.7 9.7 0 0 0-2.1 0h-.23c-.1.02-.22.02-.33.02-.1 0-.19-.02-.28-.04a2.07 2.07 0 0 0-1.02 0 .07.07 0 0 0-.04.02.07.07 0 0 1-.07.03c-.04 0-.09 0-.15.03a.32.32 0 0 1-.17.03.93.93 0 0 1-.08-.03 1.39 1.39 0 0 0-1.3.01.52.52 0 0 1-.13.02h-.07c-.03.01-.04 0-.04-.02-.02-.07 0-.12.07-.14a.75.75 0 0 0 .3-.2c.15-.18.3-.3.44-.39l.37-.22.57-.38ZM35.03 14.95l1.27.87c.06.05.06.08-.01.11a.2.2 0 0 0-.1.08.05.05 0 0 1-.04.03c-.04 0-.08 0-.12.02a4.97 4.97 0 0 1-.73.03l-.22.01-.25.01a6.67 6.67 0 0 0-.85-.05c-.03-.01-.07-.02-.13 0a18.49 18.49 0 0 1-3.32.03c-.12-.01-.24 0-.36.02-.21.03-.43-.04-.67-.22a.11.11 0 0 0-.05-.02.92.92 0 0 1-.26-.08 1.61 1.61 0 0 0-.22-.09.7.7 0 0 1-.5-.58.7.7 0 0 0 .3.08c.1 0 .19 0 .3-.02l.3-.03h.31a11.74 11.74 0 0 0 1.07 0H32.62a68.72 68.72 0 0 0 1.53 0l.03-.01h.25c.2-.02.38-.04.57-.04.02 0 .03-.01.03-.03v-.12Z" fill="#F5EAC9" /><path d="m14.8 22.28.06-.05a.3.3 0 0 0 .12-.22c.02-.45.03-.9.03-1.37 0-.04-.02-.05-.05-.05h-.16c-.05 0-.06-.02-.04-.06.15-.33.32-.63.51-.92.02-.02.03-.02.05 0 .02.04.05.06.08.08.1.04.14.01.14-.09v-.43c0-.01.01-.02.03-.02h.02l.02.4c0 .07.03.11.1.12.08.02.12-.01.13-.1.03-.2.03-.44 0-.73-.01-.07 0-.12.04-.17a17.92 17.92 0 0 1 1.85-2.12c.23-.23.42-.33.58-.3l.27.06a72 72 0 0 0 1.7.3c.07 0 .1-.02.1-.08v-.21c0-.02.02-.04.04-.05a.07.07 0 0 1 .08 0 .1.1 0 0 1 .05.07c.02.14.07.25.13.34a6.72 6.72 0 0 1 .36.47 5.32 5.32 0 0 0 .78.08c.02 0 .04-.02.05-.04.07-.16.11-.3.12-.4v-.53c0-.06.02-.06.03 0 .04.11.05.25.03.4 0 .03 0 .04.03.03.02 0 .05-.01.07-.04a.15.15 0 0 0 .03-.1v-.09c0-.12.08-.19.23-.2a.3.3 0 0 1 .19.06c.23.15.5.23.83.25a.1.1 0 0 0 .06-.02c.08-.05.15-.04.19.05.11.24.23.44.36.6.07.1.18.15.31.15.03 0 .06 0 .08-.02a.04.04 0 0 1 .05 0 38.58 38.58 0 0 0 .59 1.63 1.87 1.87 0 0 1 .08.49c0 .02 0 .04.02.06.08.07.12.14.14.2.08.27.17.53.28.78.07.16.07.3 0 .42a.73.73 0 0 0-.07.35c0 .16.03.27.1.35 0 .02 0 .03-.02.04h-.05a29.3 29.3 0 0 0-1.78.46 5.2 5.2 0 0 0-.68.18 1822.79 1822.79 0 0 0-7.94 2.1c-.15.04-.3.06-.46.06h-1.32c-.03 0-.05-.02-.04-.05 0-.06.03-.12.07-.18a.54.54 0 0 0 .07-.3l.01-.18c.22-.85.58-1.8 1.08-2.84.05-.11.08-.1.08.02l.03 1.3c0 .12.05.14.13.06ZM41.7 22.5c.02.02.02.02.03 0l.04-.75c0-.07.02-.07.05 0 .14.3.27.63.4.97.06.2.1.4.1.61l-.02.75c0 .05.02.07.07.08l.18.03c.07 0 .11.04.12.11v.04c.01.07-.02.1-.08.1h-1.21a.85.85 0 0 1-.25-.03 13.22 13.22 0 0 0-1.34-.36 5.15 5.15 0 0 0-.62-.15 2.6 2.6 0 0 1-.36-.1 26.7 26.7 0 0 0-8.38-2.15c-.04 0-.04-.02-.02-.05a.28.28 0 0 0 .08-.22c0-.1 0-.21.03-.32 0-.02 0-.04-.02-.06a1.54 1.54 0 0 0-.05-.05c-.1-.1-.13-.2-.08-.3.1-.21.18-.45.25-.72l.1-.25.07-.19a42.91 42.91 0 0 1 .7-2.07.1.1 0 0 1 .06-.05c.11-.04.22-.09.31-.16a.13.13 0 0 1 .1-.02 421.27 421.27 0 0 1 1.6.07c.06 0 .1-.04.1-.1v-.03c-.02-.33.05-.49.2-.48.04 0 .06.02.06.06l.02.19c0 .03.02.04.05.04l1.76.09c.1 0 .15.05.15.15l.02.7c0 .07.03.1.1.1l1.65.14c.04 0 .06-.01.06-.05a81.58 81.58 0 0 0 .06-1.18c.01-.03.02-.04.05-.04h.08c.4-.02.64.01.72.08a7.65 7.65 0 0 1 .68.73 18.59 18.59 0 0 1 1.78 2.57c.12.2.22.42.28.63.03.07.08.16.16.26l.07.1c.04.07.05.13.01.18a.08.08 0 0 0 0 .06l.02.12v.07c-.09.28-.06.56.07.85Z" fill="#CDCDCD" /><path d="m23.2 18.12.01.02h.02l-.02-.55.01-.07.04-.05c.03-.04.04-.04.04 0l.02.71c0 .06-.02.09-.08.08l-.1-.01c-.04 0-.07-.03-.07-.08l-.03-.66c0-.06.02-.07.07-.03.02.03.03.06.03.1v.08c.03.15.05.31.05.46ZM23.74 17.59c.05-.01.08 0 .1.04.02.03.03.05.03.09v.54c0 .04-.02.05-.06.05l-.09-.02c-.03 0-.05-.03-.06-.07l-.04-.68c0-.04 0-.05.04-.03l.03.05c0 .03.02.04.05.03ZM35.05 18.23a.29.29 0 0 0 0 .13c0 .02 0 .04-.03.04a.86.86 0 0 1-.36-.06.1.1 0 0 0-.05 0l-.32-.01c-.02 0-.04-.02-.04-.04v-.32h-.04v.28c0 .04-.03.06-.07.06l-.24-.03c-.05 0-.08-.03-.08-.08l.01-.47c0-.05.03-.07.07-.07l1.52.1c.04 0 .05.01.06.04.03.2.03.4 0 .6 0 .05-.03.07-.08.06l-.27-.04c-.05 0-.07-.03-.05-.08a.14.14 0 0 0 0-.11c-.01-.03-.02-.03-.03 0Z" fill="#F0F3FA" /><path d="m26.75 19.47-.44.26c-.04.02-.06.02-.07-.02-.02-.07-.06-.08-.1-.05l-.52-1.9c-.01-.03 0-.05.03-.05h.78c.02 0 .03.01.03.03l.3 1.73Z" fill="#F1DEAC" /><path d="M29 18.17a.88.88 0 0 0-.35.14l-.3.2-1.22.68-.19-1.44c0-.03.01-.04.04-.04H29c.03 0 .04.02.03.04l-.05.42Z" fill="#E8CD81" /><path d="M30.26 18.16c-.31.12-.6.29-.87.5l.15-.9c0-.03.02-.05.05-.05h.76c.03 0 .05.02.04.05l-.13.4Z" fill="#F5EAC9" /><path d="m21.97 18-.19-.02c-.03 0-.04-.01-.04-.04l.04-.16c0-.02.02-.03.04-.03h.11c.02 0 .04 0 .04.03l.04.16c0 .04-.01.05-.04.05ZM39.13 18.7c-.05 0-.07-.02-.08-.07-.02-.46-.02-.68.03-.69h.17c.04-.01.08.22.1.67 0 .05-.01.07-.06.08h-.16ZM24.48 18.5c-.01.03-.03.04-.07.04-.03 0-.04-.02-.05-.05l-.02-.46c0-.04.01-.05.05-.04a.3.3 0 0 0 .17.02c.03-.01.04 0 .04.03v.44c.01.03 0 .04-.03.04s-.05-.01-.06-.03c-.01-.02-.02-.02-.03 0ZM38.31 18.1h-.01a.05.05 0 0 0-.05.05l-.01.4c0 .03.02.05.04.05h.02c.02 0 .04-.01.05-.04v-.4a.05.05 0 0 0-.04-.05Z" fill="#F0F3FA" /><path d="m29 18.17-.1.74c-.12.1-.26.2-.4.27a49.3 49.3 0 0 0-1.05.61.41.41 0 0 0-.11.12.73.73 0 0 1-.1.14l-.11-.86 1.22-.68.3-.2c.1-.07.22-.12.34-.14Z" fill="#F5EAC9" /><path d="m30.26 18.16-.16.59c-.28.2-.54.32-.78.38l.07-.47c.27-.21.56-.38.87-.5Z" fill="#E8CD81" /><path d="M38.42 18.4c0 .1.03.17.07.17.03 0 .06-.08.05-.18 0-.1-.03-.18-.06-.18s-.06.08-.06.18ZM31.96 18.47c.02 0 .03.02.03.04v.47c0 .06-.03.07-.07.03-.03-.02-.06-.02-.09 0-.04.03-.06.02-.06-.03a2.93 2.93 0 0 1 0-.5c0-.04.02-.05.05-.04l.14.03ZM21.95 19.02l.02-.03v-.06c-.04-.05-.03-.1.02-.15.03-.02.04-.01.05.02.01.07.02.13 0 .2 0 .04-.02.06-.07.05h-.08c-.04.02-.06 0-.07-.04a3.02 3.02 0 0 1-.01-.5c0-.04.02-.05.05-.05h.1c.03-.02.06 0 .07.03a.2.2 0 0 1 0 .12c-.02.03-.03.03-.06.01l-.02-.02c-.02-.02-.04-.01-.04.02-.02.14-.01.27 0 .39.01.02.02.03.04 0ZM23.24 18.5h-.07a.05.05 0 0 0-.05.05l.04.78c0 .02.02.05.05.05h.07c.03 0 .05-.03.05-.06l-.03-.78a.05.05 0 0 0-.06-.05ZM22.52 18.52h-.1a.07.07 0 0 0-.07.06v.03c0 .03.03.06.07.06h.1c.04 0 .07-.02.07-.06v-.02a.07.07 0 0 0-.07-.07ZM23.55 18.51l-.17.01a.02.02 0 0 0-.02.03l.03.8c0 .02 0 .03.02.03l.18-.01s.02-.01.02-.03l-.03-.8a.02.02 0 0 0-.03-.03ZM19.22 18.6c-.02.29-.03.57-.03.86 0 .1 0 .18.03.27.01.03 0 .05-.03.05h-.06c-.03 0-.05-.01-.05-.04l-.03-.86v-.12c.01-.15.05-.22.12-.21.04 0 .05.02.05.06ZM19.37 19.74c0-.03 0-.07-.02-.12a290.14 290.14 0 0 1-.04-1.01c0-.03.01-.03.03-.02.06.03.1.09.1.16.01.3.03.62.03.98 0 .03-.01.04-.04.04h-.02c-.02 0-.03-.01-.04-.03ZM19.85 18.59h-.07c-.01 0-.02 0-.02.02l.03 1.14c0 .01 0 .02.02.02h.07l.02-.02-.03-1.15-.02-.01ZM33.24 18.64a.15.15 0 0 1 .06-.05c.03-.03.05-.02.05.03v.5c0 .1-.05.12-.13.08l-.05-.02a.14.14 0 0 1-.08-.14l.02-.42c0-.02 0-.03.02-.04l.05.01a.1.1 0 0 1 .02.05c0 .04.02.04.04 0ZM20.02 19.74l-.04-1.11c0-.03 0-.04.03-.04l.22.01c.02 0 .03.02.03.04v1.1c0 .02-.02.03-.04.03h-.17c-.02 0-.03 0-.03-.03ZM20.4 18.61h-.03a.05.05 0 0 0-.05.06l.03 1.04c0 .03.03.06.06.06h.04c.03 0 .05-.03.05-.06l-.04-1.05a.05.05 0 0 0-.06-.05ZM20.79 18.62h-.04a.05.05 0 0 0-.04.05l.02 1.05c0 .02.02.04.05.04h.03c.03 0 .05-.02.05-.05l-.02-1.04a.05.05 0 0 0-.05-.05ZM21 18.67h-.05c-.01 0-.02 0-.02.02l.05 1.05.02.01h.06l.01-.02-.04-1.05-.02-.01ZM34.28 19.4l.03-.01a.07.07 0 0 0 .03-.07l-.01-.5c0-.02 0-.03.02-.03h.03c.03 0 .05 0 .05.04.03.18.02.37 0 .58 0 .02-.01.04-.03.05-.03.02-.06.02-.1-.01a.06.06 0 0 0-.06 0h-.02c-.03 0-.05 0-.05-.04v-.64c0-.03.02-.04.04-.03l.04.02c.01 0 .02.02.02.05l-.02.58c0 .02.01.03.03.02Z" fill="#F0F3FA" /><path d="m30.1 18.75-.17.61c-.25.07-.4.14-.46.2-.09.1-.17.14-.25.15l.1-.58c.24-.06.5-.19.78-.38Z" fill="#F5EAC9" /><path d="M35.14 19.24c0 .22.01.4.05.4.03 0 .06-.18.07-.4 0-.21-.02-.39-.05-.39-.04 0-.07.17-.07.39Z" fill="#F0F3FA" /><path d="m28.9 18.91-.06.55c-.14.12-.28.22-.41.29-.2.1-.33.18-.39.22-.24.16-.5.28-.77.38l-.03-.3a.74.74 0 0 0 .1-.14l.11-.12a9.67 9.67 0 0 1 1.06-.61c.13-.08.27-.17.4-.27Z" fill="#F1DEAC" /><path d="M24.6 19.03h-.15a.06.06 0 0 0-.06.06l.01.43c0 .04.03.06.06.06h.16c.03 0 .05-.03.05-.06l-.01-.44a.06.06 0 0 0-.06-.05ZM17.72 19.88l-.04-.57c0-.06.02-.07.07-.04l.09.06.01.04.02.4-.01.03-.07.1c0 .02-.02.03-.04.02-.02 0-.03-.01-.03-.04ZM16.82 19.3h-.03a.07.07 0 0 0-.07.07l.02.5c0 .04.03.07.07.07h.03c.04 0 .07-.04.07-.08l-.02-.5a.07.07 0 0 0-.07-.06ZM16.97 19.38c0-.04 0-.06.04-.07l.02-.01c.06-.02.1 0 .1.06.04.18.04.35 0 .52 0 .02-.02.04-.05.05h-.04a.05.05 0 0 1-.04-.05l-.03-.5Z" fill="#F0F3FA" /><path d="m29.93 19.36-.7 2.6-.03.01h-.33l-.02-.01.37-2.25c.08 0 .16-.06.25-.15.05-.06.2-.13.46-.2Z" fill="#F1DEAC" /><path d="M37.53 19.42h-.15a.03.03 0 0 0-.04.03V20c0 .02 0 .04.03.04h.14c.02 0 .04-.01.04-.03v-.57a.03.03 0 0 0-.02-.03Z" fill="#F0F3FA" /><path d="m26.75 19.47.4 2.5-.02.01-.33-.01c-.01 0-.02 0-.03-.02l-.62-2.29c.03-.03.07-.02.09.05.01.04.03.04.07.02l.44-.26ZM28.84 19.46l-.29 2.45c0 .04-.03.06-.06.06h-1c-.02 0-.03 0-.03-.02l-.2-1.6c.29-.1.54-.23.78-.38l.4-.22c.12-.07.26-.17.4-.3Z" fill="#F5EAC9" /><path d="M38.46 19.5h-.01a.05.05 0 0 0-.05.04l-.01.36c0 .02.01.04.04.04s.05-.01.05-.04l.02-.35a.05.05 0 0 0-.04-.05ZM31.75 20.25v-.65c0-.01 0-.02.02-.02l.19.02c.01 0 .02 0 .02.02l-.02.64c0 .01 0 .02-.02.02h-.17c-.02 0-.02-.02-.02-.03ZM39.2 20.03v-.19c0-.15.02-.22.06-.22h.02c.03 0 .05.08.04.22v.17c0 .02-.01.02-.03.02h-.08ZM32.6 19.69h-.04a.03.03 0 0 0-.03.03v.67c0 .02.02.03.03.03h.04c.02 0 .03 0 .03-.03v-.67a.03.03 0 0 0-.03-.03ZM32.77 19.77h-.05l-.02.01-.03.6c0 .01 0 .02.02.02h.05l.02-.01.03-.6-.02-.02ZM25.18 19.97c-.01-.03 0-.03.03-.02l.07.07v.03l.01.46c0 .02 0 .03-.03.03h-.02c-.04 0-.05-.02-.05-.05a2 2 0 0 0-.02-.52ZM22.53 20.19c0 .03-.01.07-.04.1-.02.03-.04.02-.05-.02l.01-.2c0-.03.02-.04.05-.04h.1c.03 0 .05 0 .04.05l-.02.07c0 .02-.02.03-.04.03h-.02c-.02-.03-.03-.02-.03 0ZM23.26 20.54c.04.34.06.34.07 0 0-.14 0-.3-.03-.48 0-.02 0-.03.03-.03h.05c.02 0 .03 0 .03.02l.03.68c0 .05-.03.08-.07.1l-.12.04c-.05.02-.08 0-.08-.05l-.02-.76c0-.02.01-.03.04-.03h.03l.01.01c0 .18.01.35.03.5ZM23.87 20.06a.07.07 0 0 1 .05-.04c.03 0 .04.02.05.05l.01.67c0 .02 0 .03-.03.04l-.17.02c-.02 0-.03-.01-.03-.03l-.02-.7c0-.04.02-.05.04-.05.03 0 .04 0 .05.03.01.03.03.03.05 0ZM24.55 20.08l-.02.33c0 .04 0 .07.03.1.02.02.02.03-.01.03h-.05c-.03 0-.05 0-.05-.03l-.02-.45c0-.03.01-.04.04-.04h.03c.03.01.05.03.05.06ZM40.39 20.02c.02 0 .03 0 .03.03l.01.61c0 .14-.01.21-.05.22h-.03c-.04 0-.06-.07-.07-.22l-.01-.6c0-.03 0-.04.03-.04h.09ZM21.96 20.27c0 .01 0 .02-.02.02l-.03-.01a.27.27 0 0 1-.03-.2c0-.03.02-.04.05-.03.12.02.18.1.17.25 0 .03-.01.04-.04.02a.36.36 0 0 1-.07-.06c-.02-.03-.04-.03-.03.01ZM34.16 20.8c-.01 0-.02 0-.02-.02v-.54c.01-.14.03-.2.06-.2h.02c.03 0 .04.06.04.2v.55l-.02.01h-.08ZM34.4 20.05h-.04a.04.04 0 0 0-.03.04l-.02.68c0 .03.02.04.04.04h.02c.02 0 .04-.01.04-.03l.02-.7a.04.04 0 0 0-.04-.03ZM40.6 20.08h-.01a.08.08 0 0 0-.09.08l-.02.65c0 .05.04.09.08.09h.01c.05 0 .09-.04.09-.08l.02-.65a.08.08 0 0 0-.09-.09ZM20.9 20.1l.03 1.18c0 .03-.01.03-.04.01l-.08-.06v-.01l-.04-1.04v-.02l.1-.07c.02-.02.03-.01.03.02ZM21.07 20.12a4.7 4.7 0 0 1 .01 1.15h-.02c-.03 0-.06-.37-.1-1.12 0-.02.01-.03.02-.03h.1ZM20.13 20.3l.02.98a.1.1 0 0 1 0 .03c-.02.04-.04.06-.07.07-.02.01-.04 0-.04-.03-.02-.34-.03-.72-.03-1.12 0-.05.02-.07.07-.06l.22.02c.04 0 .06.03.06.07l.01 1.05c0 .02 0 .03-.03.03h-.05c-.01 0-.02-.01-.02-.03l-.05-1.01c0-.02-.01-.03-.03-.03h-.03c-.02 0-.03 0-.03.03ZM35.13 20.99l-.01-.01v-.18c0-.42.01-.63.04-.63h.03c.03 0 .04.2.04.63v.18l-.02.01h-.08ZM35.39 20.2h-.07a.03.03 0 0 0-.03.03l-.01.72c0 .01.01.03.03.03h.07c.01 0 .02-.01.02-.03l.01-.72a.03.03 0 0 0-.02-.02ZM19.16 21.47l-.05-1.15v-.02l.1-.08c.03-.02.04-.02.04.03l.04 1.2c0 .01 0 .02-.02.03l-.07.02c-.03 0-.04 0-.04-.03ZM19.46 20.23h-.06a.05.05 0 0 0-.05.05l.04 1.15c0 .03.02.05.05.04h.06c.02 0 .04-.02.04-.05l-.04-1.14a.05.05 0 0 0-.04-.05ZM22 20.43a.4.4 0 0 1 .05-.07c.03-.02.04-.01.05.02l.04.2c0 .04 0 .06-.03.07-.03.01-.06 0-.08-.02-.02-.02-.03-.02-.04 0a.18.18 0 0 0-.02.1l.02.3c0 .02-.01.03-.02.03h-.02c-.02 0-.02-.01-.02-.03v-.07a1 1 0 0 0-.03-.32.36.36 0 0 1 .02-.27c.02-.03.03-.03.05 0l.02.05c-.01.03 0 .04.02 0ZM22.58 20.47l.03-.08c0-.03.02-.03.04 0 .03.04.04.08.03.1a.13.13 0 0 1-.1.08.12.12 0 0 1-.12-.03c-.03-.03-.03-.08-.01-.14 0-.02.02-.02.04-.01l.05.08c.01.04.02.04.04 0ZM36.48 20.41h-.07l-.02.02V21h.08c.01 0 .02 0 .02-.02l.01-.55s0-.02-.02-.02ZM15.46 20.6l.05 1.52c0 .06-.03.08-.08.06l-.2-.06c-.04 0-.05-.03-.05-.06l-.05-1.45c0-.04.02-.06.06-.06l.2-.01c.04 0 .07.02.07.06ZM37.47 20.78l.02-.03c.01-.03.03-.03.05-.02.02.02.02.03.02.06-.02.2-.02.39 0 .57 0 .03-.01.05-.04.05h-.14c-.05-.01-.07-.03-.06-.08.01-.19 0-.38-.02-.6 0-.02.01-.03.04-.01l.07.06c.02.03.04.03.06 0ZM17.84 20.76a.08.08 0 0 0-.08.08l.02.76c0 .04.03.07.08.07.04 0 .07-.03.07-.08l-.02-.76a.08.08 0 0 0-.07-.07ZM17.98 21.18c0 .24.03.44.07.44.05 0 .09-.2.09-.44 0-.25-.03-.44-.07-.44-.05 0-.09.2-.1.44ZM31.6 21.68l.03-.83c0-.04.02-.06.06-.05l.3.04c.03 0 .04.02.04.05v.86c0 .05-.02.07-.06.06l-.32-.08c-.03 0-.04-.02-.04-.05ZM38.33 21.08l.02.01h.03v-.01a.39.39 0 0 1 .03-.22c0-.03.02-.03.04 0 .07.1.07.22.02.37-.03.07-.1.1-.2.08a.06.06 0 0 1-.05-.04.54.54 0 0 1 0-.43c.01-.03.04-.04.07-.04.05.01.06.04.05.08a.44.44 0 0 0-.01.2ZM31.2 21l-.02.02c-.02.02-.03.02-.04 0a.19.19 0 0 1 0-.14.09.09 0 0 1 .08-.05c.04 0 .07 0 .09.04.03.05.04.1.04.16 0 .03-.01.04-.04.02a.13.13 0 0 1-.05-.06c-.02-.04-.04-.04-.06 0ZM16.78 20.88c0-.06.02-.07.08-.04l.02.01c.05.04.08.08.08.15v.06c.04.37.03.6-.03.7-.02.04-.04.04-.06.01a.4.4 0 0 1-.07-.22l-.02-.67ZM25.13 20.9l.03.6c0 .03-.01.04-.03.06l-.06.03c-.05.03-.08.01-.08-.05l-.02-.57.01-.03.05-.06c.01-.02.03-.03.06-.02.02 0 .04.02.04.05ZM30.73 21.23l-.01.01c-.08.02-.13-.02-.15-.12v-.03c-.03-.1 0-.15.08-.17h.02l.06.31ZM24.8 21.61c-.01 0-.02 0-.02-.02 0-.44 0-.65.05-.65h.04c.04 0 .06.21.06.64v.01c0 .02 0 .02-.02.02h-.11ZM24.46 21.15l-.07.04c-.04.02-.06 0-.06-.04v-.07c0-.03.03-.05.06-.05h.17c.03 0 .04.02.04.05l-.01.06c0 .02-.02.03-.04.02l-.02-.01h-.07ZM23.56 21.22c.12-.05.23-.07.33-.08.1-.01.15.04.15.14v.51c0 .02 0 .02-.02.03l-.5.1-.02-.01-.01-.58c0-.05.02-.1.07-.11ZM40.4 21.16c.02 0 .03 0 .03.03l-.02.8c0 .17-.03.25-.08.25h-.01c-.05 0-.07-.09-.07-.26l.01-.8c0-.02.02-.03.04-.03h.1ZM24.54 21.23c.02-.04.04-.04.04 0 .03.13.03.25 0 .38 0 .01 0 .02-.02.02l-.17.04c-.02 0-.02 0-.02-.02v-.35c0-.02.01-.03.04-.02.06.02.1 0 .13-.05ZM40.62 21.2c.02 0 .03 0 .03.02l-.03 1c0 .05-.02.07-.06.07h-.04c-.04 0-.05-.03-.05-.08l.02-1c0-.01.01-.02.03-.02h.1ZM32.48 21.24h-.04a.06.06 0 0 0-.07.06l-.02.46c0 .04.03.07.07.07h.04c.03 0 .06-.03.07-.06l.01-.46a.06.06 0 0 0-.06-.07ZM22.61 21.67h.04c.03 0 .04 0 .05.03v.1c0 .02-.01.03-.04.04h-.12c-.02 0-.03 0-.03-.03l-.01-.12a.77.77 0 0 1 .04-.4c.01-.03.04-.04.07-.04.03.01.05.03.05.06l.02.09c0 .02-.01.04-.03.05l-.08.06a.06.06 0 0 0-.03.05c0 .03 0 .05.02.08.01.02.03.03.05.03ZM41.5 21.3c.02 0 .03.01.03.03v.01c0 .7-.02 1.06-.07 1.06h-.03c-.05 0-.08-.35-.08-1.06 0-.03.02-.04.04-.04h.1ZM23.2 21.32h-.1a.04.04 0 0 0-.04.04l.03.6c0 .02.01.03.04.03h.1c.02 0 .04-.02.04-.04l-.02-.6a.04.04 0 0 0-.04-.03ZM34.06 21.32l.34.06c.1.01.16.08.15.19-.02.23-.02.46 0 .7 0 .08-.03.1-.1.09l-.37-.08c-.08-.02-.13-.08-.13-.17l.02-.7c0-.07.03-.1.1-.09ZM33.2 21.8c.01-.1.02-.21.01-.34 0-.02 0-.02.03-.02h.01c.03 0 .05.01.05.04l-.02.5c0 .04-.01.04-.03.02a.14.14 0 0 0-.12-.04c-.03 0-.04-.01-.04-.04-.02-.15-.02-.3-.02-.42 0-.04.02-.07.05-.1.03-.01.04 0 .04.02v.38c0 .09.02.09.03 0ZM21.9 21.41h-.1a.06.06 0 0 0-.05.07v.77c0 .04.03.06.07.06h.09c.03 0 .06-.03.05-.06v-.78a.06.06 0 0 0-.07-.06ZM21.44 21.54l.03.8c0 .04-.02.06-.05.06l-.11.02c-.05.01-.07 0-.07-.05l-.02-.75c0-.02 0-.03.02-.04l.1-.09a.06.06 0 0 1 .06 0c.03 0 .04.02.04.05ZM35.1 22.47v-.9c0-.02.02-.03.04-.02l.24.04c.02 0 .03.01.03.03l-.02.94c0 .03-.01.04-.04.03l-.23-.1a.03.03 0 0 1-.02-.02ZM35.86 22.7c-.02 0-.03 0-.03-.03l.01-.87c0-.07.03-.11.09-.11.05 0 .07.04.07.12l-.01.86c0 .02-.01.03-.03.03h-.1ZM20 22.7l-.04-.88c0-.01 0-.02.02-.02l.54-.09c.01 0 .02 0 .02.03l.02.84-.01.02-.53.11c-.01 0-.02 0-.02-.02ZM36.18 21.74h-.06a.05.05 0 0 0-.05.04v.92c0 .03.02.05.05.05h.05c.03 0 .05-.02.05-.05v-.92a.05.05 0 0 0-.04-.04ZM36.57 21.9a.9.9 0 0 0-.03.47c0 .03 0 .05-.03.05h-.03c-.04 0-.07-.03-.07-.08v-.46c0-.03 0-.04.03-.04h.1c.03 0 .04.03.03.06ZM19.17 21.92l.02.02.02.9c0 .06-.03.1-.1.1h-.1c-.07 0-.1-.03-.1-.1l-.02-.9.02-.01h.26ZM37.5 22.73a.22.22 0 0 0-.16.01c-.03.01-.04 0-.04-.02v-.67c0-.03.01-.04.04-.01l.05.06c.02.01.03.02.05.01l.04-.02c.04-.04.07-.03.06.03v.58c0 .03-.02.04-.04.03ZM18.08 22.3c-.02-.06 0-.1.06-.11l.13-.03c.05-.01.08 0 .07.06l-.02.33c0 .06-.04.08-.1.08h-.02c-.04 0-.06-.03-.06-.07a.87.87 0 0 0-.06-.26ZM37.97 23.08l.02-.84c0-.06.03-.09.1-.07l.61.15c.04 0 .06.03.06.07v.85c0 .06-.04.09-.1.07l-.64-.15c-.03-.01-.05-.04-.05-.08ZM17.81 22.65v-.37c0-.03 0-.05.04-.05h.13c.03 0 .05 0 .05.04l.01.33c0 .02 0 .04-.03.05l-.13.04c-.04.02-.07 0-.07-.04ZM39.48 22.32v1.13c0 .05-.03.06-.07.05l-.19-.06c-.02 0-.03-.02-.03-.05l.02-1.12c0-.05.02-.06.06-.05l.17.06c.03 0 .04.02.04.04ZM16.78 23.36l-.05-.87c0-.03.01-.05.04-.06l.3-.07c.05-.01.08 0 .08.05l.02.92c0 .04-.02.06-.05.06l-.28.02c-.04 0-.06 0-.06-.05ZM15.65 23.6l-.03-1c0-.04.01-.07.06-.08l.17-.03c.06-.02.1 0 .1.07l.01.97c0 .04-.01.06-.05.08l-.15.06c-.07.02-.1 0-.1-.07ZM15.26 23.75l-.05-1.11c0-.02 0-.03.02-.04l.26-.05c.03 0 .04 0 .04.03l.05 1.08c0 .01 0 .02-.02.03l-.26.09c-.03 0-.04 0-.04-.03ZM40.19 22.76c.02-.09.06-.13.12-.12.08.01.12.1.1.25 0 .03-.02.04-.05.03l-.07-.01c-.09-.02-.12-.07-.1-.15ZM18.16 22.72l.1-.02c.06-.02.09 0 .09.07v.25c0 .05-.03.08-.08.08-.06.01-.1-.01-.11-.06a2.04 2.04 0 0 1-.06-.22c0-.05.01-.09.06-.1ZM40.48 22.9l.01-.13c0-.03.02-.05.05-.05l.07-.01c.04 0 .06.01.07.05l.02.14c.01.05-.01.08-.06.07h-.1c-.05 0-.06-.02-.06-.07ZM14.33 23.01c.14-.02.24-.1.23-.18 0-.07-.13-.12-.27-.1-.14.02-.24.1-.23.17.01.08.13.13.27.11ZM17.84 23.17l-.02-.35c0-.02 0-.03.03-.04l.16-.04c.03-.01.05 0 .05.04v.34c0 .02-.01.03-.03.04l-.13.05c-.04.01-.05 0-.06-.04ZM40.4 23.07l-.01.59s-.01.02-.03.02h-.15l-.02-.03v-.63c0-.02.02-.03.03-.02l.16.05.01.02ZM40.62 23.07h-.09a.06.06 0 0 0-.06.05v.56c0 .04.02.06.05.06h.1c.03 0 .05-.02.05-.05l.01-.57a.06.06 0 0 0-.06-.05ZM14.1 24.02l-.03-.77c0-.03.01-.04.04-.05l.4-.1c.04-.01.05 0 .06.04v.75c0 .03 0 .04-.02.05l-.4.12c-.03.01-.05 0-.05-.04ZM41.68 23.94l.01-.74c0-.04.02-.06.07-.06h.1c.04 0 .06.02.06.06v.8c0 .06-.03.08-.1.05l-.1-.05a.06.06 0 0 1-.04-.06ZM45.92 26.37c-.26-.14-.59-.2-.99-.2H11.15c-.33 0-.59.02-.79.09-.4.13-.74.37-.99.7-.25.35-.38.74-.38 1.19v9.1c0 .52.19.98.57 1.36.38.39.83.58 1.35.58h4.27c.04 0 .06.02.06.06v.2c0 .04-.01.05-.04.05h-4.34c-.48 0-.92-.16-1.32-.48a2.36 2.36 0 0 1-.87-1.9V28.3a2.27 2.27 0 0 1 .9-1.98c.4-.3.84-.46 1.31-.46h34.2c.52 0 .98.16 1.4.5.4.32.67.74.8 1.23.03.18.05.4.05.68v8.8a2.26 2.26 0 0 1-1.98 2.42c-.18.02-.5.03-.92.03a181.88 181.88 0 0 0-3.66-.02 1.17 1.17 0 0 1 0-.3h.02l4.25-.01c.56 0 1.03-.2 1.4-.57.38-.38.57-.85.57-1.41v-8.99c0-.84-.36-1.46-1.09-1.85Z" fill="#F0F3FA" /><path d="m24.64 35.12.88-1.82c0-.02.02-.03.05-.03.1 0 .14.04.15.11.02.34.34.63.96.88.4.16.88.29 1.41.37.46.06.9.07 1.33.01.5-.06.9-.21 1.17-.44.2-.17.32-.37.34-.6.03-.24-.1-.43-.35-.54-.2-.09-.43-.14-.7-.17-.73-.09-1.5-.16-2.28-.24-.46-.04-.9-.14-1.33-.3a2.08 2.08 0 0 1-.91-.65c-.24-.3-.37-.62-.41-1-.06-.63.1-1.17.48-1.61.57-.67 1.51-1.03 2.82-1.08.92-.04 1.8.08 2.65.37l1.16.41c.17.07.32.05.46-.05a.08.08 0 0 1 .06-.02l.13.05c.01.02.02.03 0 .05l-.96 1.75c-.01.02-.03.03-.06.02-.08-.02-.12-.07-.13-.14 0-.17-.2-.36-.58-.57a4.97 4.97 0 0 0-2.68-.55c-.84.04-1.36.27-1.57.67-.16.28-.1.53.14.72.14.11.35.18.64.22.65.08 1.34.15 2.08.22.6.05 1.15.16 1.65.34.9.33 1.4.93 1.47 1.8.06.65-.15 1.22-.64 1.7-.4.4-.98.68-1.75.84a7.58 7.58 0 0 1-4.49-.43l-.7-.29a.15.15 0 0 0-.13 0l-.06.04c-.12.06-.21.07-.29 0-.01 0-.02-.02 0-.04ZM43.13 29.21a.62.62 0 0 0 .18-.1.06.06 0 0 1 .06-.02c.05.01.09.04.12.07v.05l-1.12 1.54c-.02.03-.04.03-.07.02-.09-.05-.13-.1-.12-.17.03-.2-.14-.4-.5-.61a5.13 5.13 0 0 0-3.8-.5c-.3.08-.58.2-.83.37-.76.51-1.15 1.2-1.17 2.07-.02.66.19 1.23.6 1.72.43.49.99.8 1.68.94a5.18 5.18 0 0 0 3.78-.74c.17-.12.25-.26.24-.43 0-.09.04-.15.12-.2.03 0 .05 0 .07.02l1.12 1.54c.02.02.01.04-.01.06l-.08.05a.06.06 0 0 1-.07 0c-.17-.1-.33-.13-.46-.06l-.06.03c-.6.32-1.06.54-1.37.67-.52.22-1 .35-1.47.4-.94.12-1.81.08-2.61-.1a4.5 4.5 0 0 1-2.24-1.15 3.63 3.63 0 0 1-1.1-3.1c.1-.87.45-1.62 1.08-2.24a4.39 4.39 0 0 1 2.33-1.2 8 8 0 0 1 2.89-.03c.26.05.54.13.83.24.45.18.93.4 1.43.67.16.09.32.16.48.2a.1.1 0 0 0 .07 0ZM14.75 30.53c-.02 0-.02 0-.02.02v4.8c0 .22.12.36.35.44.03 0 .04.03.05.05v.13c-.01.02-.02.03-.05.03H12.7c-.03 0-.05-.02-.05-.05a.3.3 0 0 1 0-.1c.01-.03.03-.05.06-.06.23-.07.34-.19.34-.34V28.6c0-.19-.11-.31-.34-.38a.08.08 0 0 1-.06-.06.2.2 0 0 1 .01-.12c0-.02.02-.03.04-.03h3.14l.06.03c.06.07.04.13-.06.18-.24.12-.29.3-.15.54l2.3 4.12c0 .03.02.03.04 0l2.38-4.14a.5.5 0 0 0 .08-.32c-.02-.12-.1-.18-.25-.2-.04 0-.07-.03-.06-.08v-.07c0-.04.02-.06.07-.06h3.06c.04 0 .07.02.08.05a.2.2 0 0 1 0 .1c0 .03-.03.05-.06.06-.23.06-.35.21-.35.45v6.68c0 .13.03.23.08.3.05.05.14.1.27.15.03.01.05.03.05.06l.01.08c.01.05-.01.07-.06.07h-2.54c-.02 0-.04-.02-.05-.03-.03-.1-.01-.15.06-.18.22-.08.33-.2.33-.4l.01-4.8c0-.07-.02-.08-.06-.01l-3.22 5.4h-.02a5285.1 5285.1 0 0 1-3.08-5.45ZM40 40.67c0 .09-.03.17-.1.23a.32.32 0 0 1-.23.1H16.33a.32.32 0 0 1-.23-.1.32.32 0 0 1-.1-.23v-2.34c0-.09.03-.17.1-.23.06-.07.14-.1.23-.1h23.34c.1 0 .17.03.23.1.07.06.1.14.1.23v2.34Z" fill="#F0F3FA" /><path d="M22.6 39.38c0 .27-.1.5-.32.7-.22.2-.48.29-.78.28-.3 0-.56-.1-.77-.3a.92.92 0 0 1-.32-.7c0-.28.11-.51.33-.7.22-.2.48-.3.78-.29.3 0 .56.1.77.3.22.2.32.43.32.7ZM35.37 39.63l-.4.01a.1.1 0 0 0-.08.04l-.04.03c-.03.02-.04.01-.04-.02v-.39c0-.04.01-.04.04-.01l.06.05c.01.02.03.03.05.03h.85c.05 0 .06.01.02.05l-.04.04a.08.08 0 0 0-.03.06v.38c0 .03.01.05.03.07l.04.03c.03.02.03.05 0 .06-.39.22-.78.31-1.18.28-.3-.02-.54-.13-.72-.33a.98.98 0 0 1-.22-.76.85.85 0 0 1 .46-.7c.26-.15.55-.2.87-.14.17.02.36.07.55.14h.05l.03-.01c.04 0 .05 0 .03.04l-.2.39c0 .04-.03.04-.05 0-.04-.08-.09-.13-.14-.15-.24-.1-.46-.12-.66-.08a.61.61 0 0 0-.48.41c-.12.31-.04.56.22.73.28.2.61.2.99.02a.07.07 0 0 0 .04-.07v-.14c0-.04-.02-.06-.05-.06ZM37.09 39.84c.15.1.33.16.54.18.25.02.42-.04.5-.19.07-.1.05-.16-.06-.2a2 2 0 0 0-.43-.08 1.7 1.7 0 0 1-.6-.13c-.18-.1-.25-.28-.21-.54.04-.26.22-.42.53-.47.33-.06.66-.01.98.14.05.02.11.03.2.02.02 0 .03.01.02.04l-.19.37c-.03.05-.05.05-.08 0-.07-.16-.28-.25-.61-.26-.34-.01-.5.08-.47.27.01.06.04.1.1.1l.73.1c.37.06.54.27.52.6-.02.25-.16.41-.43.49-.41.12-.8.08-1.18-.11a.23.23 0 0 0-.16-.02c-.03 0-.04 0-.03-.04l.17-.4c.02-.05.04-.05.06 0a.3.3 0 0 0 .1.13ZM19.02 39.15a2.86 2.86 0 0 1 0-.5c0-.07-.02-.14-.06-.18-.03-.03-.02-.05.02-.05h.5c.04 0 .05.02.02.05l-.04.05a.11.11 0 0 0-.02.07v1.67c0 .03 0 .05.03.06l.04.05c.04.03.03.05-.01.05h-.52c-.04 0-.05-.02-.03-.05.05-.06.07-.12.07-.17v-.6c0-.03-.01-.05-.04-.05h-1.01c-.02 0-.03.01-.03.03v.66c0 .04.03.09.08.13.03.03.02.04-.02.04h-.53c-.05 0-.06 0-.02-.04a.2.2 0 0 0 .08-.16 562.19 562.19 0 0 1 0-1.5c0-.12-.03-.2-.08-.24-.02-.03-.02-.05.02-.05h.52c.03 0 .04.02.01.05-.05.06-.08.26-.06.58v.1c0 .04.02.06.05.06h.99c.03 0 .05-.02.04-.06ZM24 39.95c0 .03.01.05.04.05h1.05c.07 0 .13-.02.17-.07.03-.03.05-.02.05.02v.42c0 .04-.02.05-.04.02a.22.22 0 0 0-.17-.08c-.5 0-1.03.01-1.57 0-.04 0-.05 0-.02-.04a.2.2 0 0 0 .08-.15 261.38 261.38 0 0 1 0-1.44c0-.1-.03-.18-.08-.23-.02-.02-.01-.03.02-.03h.52c.03 0 .04.02.02.04l-.04.06a.13.13 0 0 0-.03.08v1.35ZM26.3 40.12V38.6c0-.03-.01-.05-.03-.08l-.04-.06c-.03-.03-.02-.05.02-.05.3.02.61.02.95.01.6-.01.94.2 1.05.65.07.31.04.59-.1.82a.77.77 0 0 1-.68.41c-.42.02-.82.02-1.22.01-.05 0-.05-.01-.02-.04a.2.2 0 0 0 .06-.15ZM31.14 39.08v1.06a.16.16 0 0 0 .07.13c.03.02.03.04-.02.04h-.48c-.05 0-.06-.01-.02-.04a.2.2 0 0 0 .08-.15v-1.55a.09.09 0 0 0-.04-.07l-.04-.03c-.03-.03-.02-.04.02-.04l.56-.01c.03 0 .04.01.03.04l-.03.06v.05l1.02 1.06c.02.03.04.03.04-.01v-1.03a.15.15 0 0 0-.05-.1c-.04-.05-.03-.07.03-.07h.44c.04 0 .05.02.02.05a.17.17 0 0 0-.05.12v1.59c0 .02 0 .04.02.06l.04.03c.03.03.02.04-.01.04h-.53c-.04.01-.05 0-.03-.04l.03-.04c.02-.02.02-.04 0-.07l-1.06-1.1c-.03-.02-.04-.02-.04.02ZM29.23 40.24a.07.07 0 0 0 .03-.06v-1.62c0-.02 0-.04-.02-.05l-.05-.05c-.03-.02-.03-.04.01-.04h.52c.04 0 .05.02.02.05a.22.22 0 0 0-.05.15v1.54c0 .02 0 .05.02.06l.04.05c.03.03.02.05-.02.05h-.5c-.04 0-.05-.02-.03-.05a.1.1 0 0 1 .03-.03Z" fill="#385527" /><path d="M21.5 40.02c.37.01.67-.28.68-.64a.66.66 0 0 0-.66-.67.66.66 0 0 0-.67.64c-.01.37.28.67.65.67ZM26.7 38.75l.03-.02h.58c.15 0 .28.06.38.17.11.1.16.23.16.38v.17c0 .15-.05.28-.16.39-.1.1-.23.16-.39.16h-.57c-.02 0-.02 0-.02-.02v-1.23Z" fill="#F0F3FA" /></svg>