<?xml version='1.0' encoding='utf-8'?>
<!-- by TradeStack -->
<svg width="56" height="56" viewBox="0 0 56 56" xmlns="http://www.w3.org/2000/svg"><path fill="url(#a2ryea05d)" d="M0 0h56v56H0z" /><path d="M13 36.28 36.29 15c-.91 0-1.8.04-2.67.13L13 29.17v7.1ZM13 41h15.46l11.3-25.56a19.47 19.47 0 0 0-3.04-.38L13 38.73V41Zm0-13.47 20-12.34c-3.42.56-7.7 2.58-7.7 2.58L13 23.37v4.16ZM31.44 41H42V16.07a18.7 18.7 0 0 0-1.93-.5L31.44 41Z" fill="#F0F3FA" /><defs><linearGradient id="a2ryea05d" x1="56" y1="0" x2="12.07" y2="38.42" gradientUnits="userSpaceOnUse"><stop stop-color="#0D96D4" /><stop offset="1" stop-color="#263D87" /></linearGradient></defs></svg>