<?xml version='1.0' encoding='utf-8'?>
<!-- by TradeStack -->
<svg width="56" height="56" viewBox="0 0 56 56" xmlns="http://www.w3.org/2000/svg"><path fill="#135685" d="M0 0h56v56H0z" /><path d="M42.7 22.84c.19.59.38 1.21.57 2.07.02.13.03.29.06.43.02.12-.02.22 0 .33a1.56 1.56 0 0 1 .04.4l.01.01h.02l.02.04c-.04.18.04.33.04.49a20.39 20.39 0 0 1-.03.3h-.01l-.01-.01v-.02c.01-.2-.01-.4-.07-.6v-.11c-.01-.02-.02-.02-.02 0l-.03.14a15.81 15.81 0 0 0-3.5-8.22 16.74 16.74 0 0 1 3.5 8.45l.02-.04h.03a.03.03 0 0 1 .02.02c-.02.14 0 .28.03.41l.03.25v.87a13.67 13.67 0 0 1-.6 4.46 15.72 15.72 0 0 1-2 4.54h.02l.01-.03.66-1.07h.02v.02a15.7 15.7 0 0 1-8.35 7.38 11.97 11.97 0 0 0 2.14-1.2l-.76.37h-.01v-.02c1.99-1.06 4.06-2.67 5.23-4.63a.02.02 0 0 0 0-.02.02.02 0 0 0-.03 0 13.5 13.5 0 0 1-1.71 1.6v-.03a16.3 16.3 0 0 0 3.32-4.9c.13-.31.23-.66.35-.99.22-.64.4-1.3.55-1.96.08-.36.1-.76.16-1.09.04-.22.09-.45.1-.68.03-.32.04-.64.05-.96.02-.48-.03-1.02-.03-1.53 0-.01 0-.02.01-.01h.01a1.9 1.9 0 0 0 .05.21.03.03 0 0 0 .04 0v-.03c-.06-.44-.1-.96-.16-1.33-.2-1.36-.54-2.67-1.03-3.95-.03-.06-.09-.1-.11-.16-.4-.9-.87-1.75-1.42-2.56-.22-.32-.61-.85-1.17-1.6-.16-.2-.35-.3-.5-.45a14.97 14.97 0 0 0-7.86-4.25c-.15-.04-.55-.1-.82-.16a1.96 1.96 0 0 0-.33-.05c-.66-.03-1.34-.08-1.97-.09a5.5 5.5 0 0 0-1.63.15c-2.89.42-5.45 1.57-7.67 3.43-.4.33-.85.78-1.26 1.18a15.03 15.03 0 0 0-2.18 2.94c-.33.58-.67 1.2-.9 1.8a17.17 17.17 0 0 0-1.17 4.99 37.91 37.91 0 0 0-.1 1.96c-.04-.9-.03-1.66.02-2.28a17.55 17.55 0 0 1 1.42-5.6 16.39 16.39 0 0 0-1.46 4.9c-.11.8-.16 1.6-.25 2.4a.02.02 0 0 1-.02.03h-.01l-.01-.02c-.2-2.3.4-4.6 1.2-6.74a21.48 21.48 0 0 0-.75 1.9h-.01l.04-.2v-.02a.02.02 0 0 0-.04 0 12.11 12.11 0 0 0-.5 1.82c0-.04 0-.1.02-.16.26-1.25.63-2.41 1.1-3.5A15.98 15.98 0 0 1 28.17 12a16.5 16.5 0 0 1 13.16 7.34c3.23 4.79 3.53 11.63.91 16.76a16.3 16.3 0 0 1-12.86 8.85 9.08 9.08 0 0 1-1.58 0c-.06-.02-.06-.04.01-.05l1.2-.12a16.58 16.58 0 0 0 3.73-.81h-.04a16.56 16.56 0 0 1-7.81.46v-.02a16.07 16.07 0 0 0 18.34-12.36c0-.03 0-.06-.03-.09a.06.06 0 0 1-.01-.05c.2-.9.33-1.67.36-2.31.03-.66.1-1.36.08-1.98a15.65 15.65 0 0 0-.93-4.79ZM29.97 12.4a15.76 15.76 0 0 1 9 4.74h.01v-.02a15.58 15.58 0 0 0-8.7-4.73 3.83 3.83 0 0 0-.57-.06c-.17 0-.17 0 0 .03l.26.04Zm13.75 18.5a14.79 14.79 0 0 1-.88 3.32c0 .02 0 .02.01 0a12.66 12.66 0 0 0 .9-3.36c-.03 0-.04 0-.03.02v.03Zm-1.03 3.68A16.85 16.85 0 0 1 35.1 43h.02a15.98 15.98 0 0 0 7.56-8.44Z" fill="#fff" /><path d="M24.06 31.57h.04a.04.04 0 0 0 .02-.01 72.86 72.86 0 0 1 4.68-7.16c1.03-1.37 5.58-7.55 7.34-7.17.56.11.69.9.72 1.37.1 1.56-.1 3.16-.33 4.7-.3 2.12-.67 4.22-1.1 6.3-.72 3.46-1.75 6.83-2.76 10.2-.03.12-.1.28-.24.24a.14.14 0 0 1-.1-.17c1.1-4.22 2.2-8.42 2.97-12.77l.66-4.02c.2-1.24.37-2.49.43-3.74.02-.3.08-1.55-.44-1.47-.62.09-1.44.8-1.93 1.25a40.26 40.26 0 0 0-5.28 6.3c-1.42 2.02-2.54 3.8-3.78 5.72-.18.29-.44.68-.64.84-.38.3-.65-.06-.7-.43a8.2 8.2 0 0 1 .09-2.09c.26-1.99.44-4 .63-6.02.08-.8.11-1.59.1-2.39-.02-2.77-1.92.07-2.26.64a17.97 17.97 0 0 0-2.07 4.84 25.91 25.91 0 0 0-.9 5.66c-.02.62-.02 1.44.24 2.05.07.15.22.3.29.49a.1.1 0 0 1-.08.13c-.4.06-.66-.81-.72-1.13a9.72 9.72 0 0 1-.15-1.92 20.9 20.9 0 0 1 3.02-10.47c.31-.52 1.9-2.86 2.62-1.6.27.46.33 1.14.35 1.67.02.65.01 1.3-.03 1.95a67.44 67.44 0 0 1-.6 5.61c-.06.32-.39 2.32-.09 2.6ZM40.31 38.18a15.86 15.86 0 0 0 2.2-4l.02.02v.02a15.42 15.42 0 0 1-2.22 3.97v-.01ZM20.88 43.12a16.05 16.05 0 0 1-7.8-8.27c.38.84.81 1.58 1.31 2.35a16.75 16.75 0 0 0 6.5 5.92ZM37.74 39.6c-.32.32-.67.57-1.03.83h-.02v-.01a13.64 13.64 0 0 0 1.84-1.66c-.26.29-.52.57-.8.84Z" fill="#fff" /><path d="M17.9 40.52a.24.24 0 0 1-.04-.05.01.01 0 0 1 0-.02h.01a15.5 15.5 0 0 0 8.2 3.66 14.55 14.55 0 0 1-8.16-3.59ZM33.17 42.45l-1.33.43v.03h.02l1.32-.43v-.03h-.01ZM21.29 43.32c-.02 0-.02-.01 0-.02l.07.01a15.56 15.56 0 0 0 3.12 1.1h-.04c-1.11-.2-2.13-.59-3.15-1.09ZM27.6 44.46a9.99 9.99 0 0 1-.92-.06l1.15.02a15.91 15.91 0 0 0 5.01-.8c-1.69.59-3.43.87-5.24.84Z" fill="#fff" /></svg>