<!-- by TradeStack --><svg width="56" height="56" viewBox="0 0 56 56" xmlns="http://www.w3.org/2000/svg"><path fill="#F0F3FA" d="M0 0h56v56H0z"/><path fill-rule="evenodd" d="M5 26.94v3.05l-.01.01H4L4 29.96v-4.96l.03-.01h.85a.1.1 0 0 1 .06.02.1.1 0 0 1 .04.04l.97 1.86.02.02a.05.05 0 0 0 .06 0l.02-.02 1-1.82a.18.18 0 0 1 .06-.07.16.16 0 0 1 .08-.02h.76l.04.01.01.04v4.89l-.01.03-.04.02h-.92c-.01 0-.02 0-.03-.02v-2.96h-.01V27h-.04l-.92 1.69-.02.02-.03.01-.03-.01a.07.07 0 0 1-.03-.02L5 26.93Zm26.02 1.57-.01.02v1.09c0 .02 0 .05.02.07l.05.05c.4.2.78.29 1.16.25a1.33 1.33 0 0 0 1.26-1.37c0-.71-.37-1.11-.88-1.55-.25-.23-.6-.6-.53-.93.06-.22.21-.33.46-.3a1.03 1.03 0 0 1 .75.44h.02v-.98l-.01-.07a.12.12 0 0 0-.06-.05c-.67-.28-1.61-.29-2.04.39-.19.3-.25.64-.19 1.03.1.52.53.92.91 1.27l.31.3c.3.3.2.89-.28.87-.39-.02-.69-.2-.9-.53v-.01h-.04Zm-7.07-2.22v-.92c0-.03 0-.05-.02-.07a.14.14 0 0 0-.05-.06c-.31-.19-.68-.27-1.12-.23-2.01.16-2.28 3.58-.89 4.62.56.42 1.32.5 1.97.15a.15.15 0 0 0 .05-.04.42.42 0 0 0 .07-.23 108.47 108.47 0 0 1 .02-.78h-.04c-.3.25-.81.44-1.18.25-1.1-.57-.84-3.71.86-2.95l.03.02.28.25h.02ZM9.02 25h.96c.01 0 .02.01.02.03v4.94c0 .02-.01.03-.02.03h-.96c-.01 0-.02-.01-.02-.03v-4.94c0-.02.01-.03.02-.03Zm38.94 0h-.92c-.02 0-.04.02-.04.05v4.9c0 .03.02.05.04.05h.92c.02 0 .04-.02.04-.05v-4.9c0-.03-.02-.05-.04-.05ZM45 26.97H45v3.01l-.01.02h.98l.02-.01.01-.03v-4.92l-.01-.03H45.17a.18.18 0 0 0-.1.02.2.2 0 0 0-.07.08l-.96 1.82-.01.01a.04.04 0 0 1-.04 0l-.01-.01-1-1.87a.1.1 0 0 0-.03-.04.1.1 0 0 0-.05-.02h-.87a.03.03 0 0 0-.02 0v.02l-.01.01v4.92l.01.03.03.01H43l.01-.02c.01-1.11.02-2.08 0-2.93v-.09h.03l.01.01c.08.2.17.4.28.6.23.41.43.8.6 1.14.02.03.04.05.08.04l.05-.05a1325.5 1325.5 0 0 0 .92-1.74v.01H45Zm6.14.66a1.32 1.32 0 0 1-.06-.04.03.03 0 0 1 0-.03c.5-.24.83-.68.76-1.33-.09-.8-.62-1.22-1.31-1.23a48.42 48.42 0 0 0-1.52.03v4.9c0 .02 0 .03.02.05l.03.01H50v-2.03l.01-.04.03-.03.03-.02.04.01c.2.11.33.3.4.54.07.2.13.48.19.78.05.26.1.53.16.76l.02.03.03.01h1.07l.01-.02a.05.05 0 0 0 0-.04c-.15-.42-.28-.86-.38-1.3-.07-.31-.17-.59-.3-.83-.06-.13-.1-.15-.18-.18ZM50 25.92v1.09a.04.04 0 0 0 0 .02l.02.01h.26c.12 0 .25-.05.34-.15.08-.1.14-.23.14-.37v-.1a.54.54 0 0 0-.14-.37.46.46 0 0 0-.34-.15h-.26l-.01.01v.01Zm-31.18 3.06a20.47 20.47 0 0 0-.52.02.07.07 0 0 0-.02.04l-.19.93-.01.02H17l-.01-.01 1.25-4.93.01-.03.03-.01a17.63 17.63 0 0 1 1.1 0v.04l1.25 4.92v.01a.02.02 0 0 1-.01.02h-1.07l-.01-.03-.2-.93a.07.07 0 0 0-.01-.04 21.43 21.43 0 0 0-.52-.02Zm-.34-.8.32-1.86.01-.02a.02.02 0 0 1 .03 0v.02l.3 1.86v.02a.02.02 0 0 1 0 .01h-.64l-.02-.01a.03.03 0 0 1 0-.02Zm21.61-3.17a20.57 20.57 0 0 0-1.2 0 .06.06 0 0 0-.01.04l-1.38 4.92v.01h.01V30h1.15a.04.04 0 0 0 .04-.03l.2-.92.03-.04.04-.02a22.84 22.84 0 0 1 1.1.02l.03.04.2.93.02.02.02.01h1.16a.02.02 0 0 0 0-.02l-1.35-4.93a.05.05 0 0 0-.02-.03.06.06 0 0 0-.04-.01Zm-.51 1.55c-.02-.15-.04-.23-.07-.23-.04 0-.06.08-.08.23-.02.27-.08.58-.17.99l-.12.62a.04.04 0 0 0 0 .03l.02.02h.02a5.52 5.52 0 0 1 .68-.02.04.04 0 0 0 .01-.03l-.12-.62c-.08-.4-.15-.72-.17-.99ZM28.54 27h1.92c.02 0 .04.02.04.04v.93c0 .02-.02.04-.04.04L28.53 28a.04.04 0 0 1-.03-.04v-.92c0-.02.02-.04.04-.04Zm-16.79 3h.42a126.04 126.04 0 0 1 1.56-4.99h-.01L13.7 25h-1l-.04.01-.01.03-.62 2.38-.02.01H12l-.76-2.4-.01-.02h-1.04a.05.05 0 0 0 0 .05L11.75 30ZM14 25h3v1h-.92v4h-1.1v-4H14v-1Zm11 0h1v2h1v-2h1v5h-1v-2h-1v2h-1v-5Zm10 0h-1v5h1v-2h1v2h1v-5h-1v2h-1v-2Z"/></svg>