<?xml version='1.0' encoding='utf-8'?>
<!-- by TradeStack -->
<svg width="56" height="56" viewBox="0 0 56 56" xmlns="http://www.w3.org/2000/svg"><path fill="#F0F3FA" d="M0 0h56v56H0z" /><path d="M24.92 18.07a.2.2 0 0 1 .07-.28l.15-.1a.91.91 0 0 1 .24-.11.73.73 0 0 1 .25-.03.5.5 0 0 1 .2.06c.06.03.11.08.15.13l.05.09c.03.05.05.12.05.19s0 .14-.04.21a.76.76 0 0 1-.13.22.93.93 0 0 1-.2.17l-.16.1a.2.2 0 0 1-.27-.07l-.36-.58ZM21.94 21.18a.11.11 0 0 1-.02-.15l1.67-2.31c.1-.13.23-.22.36-.25a.43.43 0 0 1 .38.06l.09.07c.1.08.16.2.16.35.01.14-.04.3-.13.42l-1.67 2.3a.1.1 0 0 1-.15.03l-.69-.52Z" fill="#352F2D" /><path d="M39.99 27c.02 2.1.01 4.44-.02 6.52a11.5 11.5 0 0 1-.62 3.9c-3.57 9.93-19.12 10.25-22.56.09a21 21 0 0 1-.79-6.36v-7c.1-2.19.32-4.37.78-5.69 2.8-7.95 13.07-9.54 19.14-4.8C40.2 17 39.93 20.99 39.99 27Zm-2.96-1.48c.03 2.09-3.93 2.84-5.42 2.94a.25.25 0 0 0-.2.12.27.27 0 0 0-.03.23l1.24 3.99c.05.13.13.2.27.2l5.8.03c.07 0 .14-.03.2-.08.05-.06.11-.13.11-.2v-9.13c0-1.85-.19-3.45-.4-4.25-1.26-4.97-5.88-7.34-10.44-7.37-4.3-.02-8.62 2.3-10.26 6.8-.38 1.05-.9 2.68-.9 4.9v9.1c0 .06.03.11.07.15a.2.2 0 0 0 .14.06h6.05c.12 0 .2-.06.23-.17l1.16-4.04a.25.25 0 0 0-.03-.2.24.24 0 0 0-.18-.12c-1.67-.16-4.07-.66-5.21-2.06a.6.6 0 0 1-.14-.34c-1.22-15.05 18.26-15.31 17.93-1.28v.72ZM36 23.82c0-11.06-16.12-10.9-16 .1 0 .13.05.16.16.11 4.57-2.1 11.26-1.7 15.69-.1.1.03.15 0 .15-.1Zm-9.58 1c-.32 2.6-.94 5.41-1.84 7.92-.06.18 0 .27.18.27h6.44a.27.27 0 0 0 .22-.12.28.28 0 0 0 .03-.26c-1-2.73-1.65-5.81-1.96-8.72-.02-.18-.12-.27-.3-.27h-2.35c-.15 0-.24.08-.27.22l-.15.96Zm-6.08 1.27c.96.87 3.17 1.33 4.45 1.36.14.01.23-.06.25-.21l.48-3.2c.02-.16-.04-.23-.2-.22-1.72.1-3.35.56-4.88 1.36a.55.55 0 0 0-.29.43.57.57 0 0 0 .19.48Zm15.46-.81a10.75 10.75 0 0 0-4.98-1.4c-.19-.02-.27.08-.24.27l.42 3.1c.01.15.1.22.24.21a9.5 9.5 0 0 0 4.57-1.39.45.45 0 0 0 .22-.4.47.47 0 0 0-.23-.4Zm-10.07 8.84c.12-.05.1-.12-.04-.12h-8.33c-.07 0-.12-.03-.11.04l.43 3.16c0 .02.01-.22.02-.2a.12.12 0 0 0 .09.05l.05-.01 7.9-2.92ZM38.6 34h-8.48c-.13 0-.17.09-.06.14l7.47 3.9a.35.35 0 0 0 .4-.06.36.36 0 0 0 .09-.12c.54-1.27.8-2.35.8-3.75 0-.15-.08-.11-.22-.11Zm-1.34 4.92-7.36-3.89a.18.18 0 0 0-.22.04.2.2 0 0 0-.02.23l4.53 6.56c.08.13.18.15.3.07a11.52 11.52 0 0 0 2.83-2.88V39a.13.13 0 0 0-.06-.08Zm-17.24 1.75a.12.12 0 0 0 .1.05.12.12 0 0 0 .09-.04l5.48-5.35a.12.12 0 0 0-.05-.2h-.08l-7.4 2.72a.12.12 0 0 0-.07.08.12.12 0 0 0 .01.1l1.92 2.64Zm9.4 3.13a.13.13 0 0 0 .06.09.13.13 0 0 0 .1.01l3.89-1.19a.13.13 0 0 0 .08-.07.13.13 0 0 0-.01-.12l-4.87-7.17a.13.13 0 0 0-.07-.06.12.12 0 0 0-.09 0 .13.13 0 0 0-.06.06.13.13 0 0 0-.02.09l1 8.36Zm-2.94-8.11-5.43 5.49c-.14.14-.13.26.04.37l2.1 1.32a.37.37 0 0 0 .3.04.36.36 0 0 0 .22-.2l3.07-6.81c.29-.65.19-.72-.3-.21Zm-2.05 7.59a.13.13 0 0 0 0 .11.13.13 0 0 0 .1.07l3.9.6a.12.12 0 0 0 .11-.04.13.13 0 0 0 .04-.11l-.9-7.32a.13.13 0 0 0-.03-.08.13.13 0 0 0-.15-.02.13.13 0 0 0-.05.06l-3.02 6.73Z" fill="#352F2D" /><path opacity=".5" d="M38 30h-5v2h5v-2Zm-15 0h-5v2h5v-2Z" fill="#352F2D" /></svg>