<?xml version='1.0' encoding='utf-8'?>
<!-- by TradeStack -->
<svg width="56" height="56" viewBox="0 0 56 56" xmlns="http://www.w3.org/2000/svg"><path d="M0 28a28 28 0 1 1 56 0 28 28 0 1 1-56 0Z" fill="#F0F3FA" /><path d="M42 26h-1.73c-.7 0-1.28-.28-1.27-1 0-.67.45-1 1.27-1H42v-2h-1.84a3.2 3.2 0 0 0-2.23.86A3 3 0 0 0 37 25a2.91 2.91 0 0 0 .93 2.14 3.12 3.12 0 0 0 2.23.86H42v-2ZM50 22h-4.1a2.81 2.81 0 0 0-2.05.88A3.01 3.01 0 0 0 43 25a3.1 3.1 0 0 0 .85 2.12 2.9 2.9 0 0 0 2.05.88H47v-2h-.78c-.64 0-1.22-.3-1.22-1 0-.67.54-1 1.22-1H48v4h2v-6ZM25 26h-2.61c-.71.02-1.39-.3-1.39-1.03s.68-1 1.39-.97h.3l-1 1.51h2.26L25 23.68V22h-2.85a3.2 3.2 0 0 0-2.22.86A3 3 0 0 0 19 25a2.92 2.92 0 0 0 .92 2.14 3.11 3.11 0 0 0 2.23.86H25v-2ZM31 26h-1.74c-.73 0-1.26-.3-1.26-1s.55-1 1.26-1H30v-2h-1.1c-1.69 0-2.9 1.39-2.9 3s1.21 3 2.9 3H33v-8h-2v6ZM34 28h2v-6h-2v6ZM36 20h-2v1.64h2V20ZM22.03 21h1.92l.6-1h-1.92l-.6 1ZM6 28h2v-6h2.16c.6 0 .84.46.84.82V28h2v-6h2.27c.37 0 .73.46.73.82V28h2v-5.65c0-1.28-1-2.35-2.24-2.35H12v.84c-.24-.5-.73-.84-1.28-.84H6v8ZM48 36v-3.45c0-.32.3-.57.6-.55H50v-2h-2.84c-.76 0-1.16.57-1.16 1.04V36h2ZM45 36v-6h-2v4h-1.45a.58.58 0 0 1-.55-.55V30h-2v4.95c0 .64.47 1.05 1.1 1.05H45ZM32 34H6v2h26v-2Z" fill="#071689" /><path d="M32 32H6v1h26v-1Z" fill="#888C8D" /><path d="M33 34v2h1.2c2.1 0 3.8-1.38 3.8-3.08 0-1.22-.23-2.35-1.47-2.9l-.11-.04c-.3-.08-.38-.23-.42-.44V29h-2v.61c0 1.07.44 1.63 1.17 1.8l.02.01c.5.1.81.57.81 1.22 0 1.02-.72 1.28-1.8 1.36H33Z" fill="#071689" /></svg>