<!-- by TradeStack --><svg width="56" height="56" viewBox="0 0 56 56" xmlns="http://www.w3.org/2000/svg"><path fill="#F0F3FA" d="M0 0h56v56H0z"/><path d="M9.01 28.21s.99-2.47 1.55-3.73c.11-.32.35-.47.7-.47h1.46c.2-.01.28.02.28.23v6.52c0 .18-.07.24-.26.24h-1.01c-.25 0-.35-.06-.35-.3v-3.84l-1.6 3.9c-.07.2-.17.25-.38.24h-.89c-.14 0-.22-.05-.27-.19l-1.63-3.9s-.02 2.55 0 3.83c0 .2-.11.26-.27.26h-.98C5 31 5 30.94 5 30.68c.02-2.14 0-4.3 0-6.43 0-.2.07-.25.27-.25h1.69c.24 0 .32.09.4.28.53 1.3 1.65 3.93 1.65 3.93ZM34 24.27c0-.14-.02-.27.2-.27h3.05c.97.03 1.6.58 1.67 1.55.1 1.3.1 2.6 0 3.9-.07.99-.74 1.53-1.8 1.55h-2.88c-.24 0-.24-.12-.24-.3v-6.43Zm1.5 3.21v1.78c0 .16.05.23.22.22H37c.33-.01.49-.17.49-.5v-2.96c0-.36-.16-.51-.53-.52h-1.21c-.18-.01-.24.06-.24.23v1.75ZM45 27.67c-.04.52.06 1.2-.06 1.9s-.5 1.16-1.17 1.3c-.84.17-1.7.18-2.53 0-.77-.17-1.2-.77-1.22-1.68a77.38 77.38 0 0 1 0-3.42c.03-1.08.62-1.7 1.65-1.75a15.4 15.4 0 0 1 1.7 0c1.02.06 1.6.7 1.62 1.77v1.88Zm-1.43-.18v-1.45c0-.39-.13-.54-.5-.54h-1.13c-.35 0-.5.14-.5.5v2.97c0 .34.15.48.48.49h1.16c.36 0 .5-.15.5-.52v-1.45ZM49.32 24c1.03.07 1.62.71 1.67 1.75v1a1.66 1.66 0 0 1-.73 1.36c-.15.1-.15.2-.1.34.26.76.5 1.52.77 2.27.06.19.06.28-.19.28h-.98c-.26 0-.28-.06-.35-.23l-.8-2.04c-.06-.16-.14-.24-.32-.23-.2.02-.4.01-.6 0-.15 0-.19.06-.18.22v2.04c0 .17-.06.25-.24.24h-1.04c-.17 0-.23-.06-.23-.23v-3.55c0-.22.12-.22.28-.22h2.65c.43 0 .57-.15.57-.57.02-.9-.02-.93-.92-.93h-2.32c-.2.01-.26-.04-.26-.24v-1c0-.2.07-.25.26-.25l3.06-.01ZM17.5 25.52l-1.84 5.26c-.05.16-.14.22-.33.22h-1.1c-.2 0-.27-.05-.2-.24a424.3 424.3 0 0 0 2.13-6.48c.06-.2.16-.29.4-.28h1.95c.19 0 .27.06.32.22l2.14 6.51c.07.2.04.27-.2.27h-.98c-.27 0-.41-.08-.5-.33-.58-1.72-1.15-3.45-1.8-5.15ZM29.5 25.52l-1.84 5.26c-.06.16-.14.22-.33.22h-1.1c-.2 0-.27-.05-.2-.24a424.3 424.3 0 0 0 2.13-6.48c.06-.2.16-.29.4-.28h1.95c.19 0 .27.06.32.22l2.14 6.51c.06.2.04.27-.21.27h-.97c-.28 0-.42-.08-.5-.33-.58-1.72-1.15-3.45-1.8-5.15ZM24.49 30.74c0 .2-.08.26-.26.26h-.9c-.26 0-.35-.06-.34-.34l.01-4.8c0-.3-.07-.4-.38-.37-.38.03-1 0-1.4.01-.17 0-.22-.05-.22-.22v-1.04c0-.17.04-.24.23-.24h5.04c.19 0 .23.07.23.24v1.04c0 .16-.05.22-.22.22h-1.55c-.2-.01-.25.05-.25.24.02 1.67 0 3.3 0 5Z" fill="#0A0A0A"/></svg>