<?xml version='1.0' encoding='utf-8'?>
<!-- by TradeStack -->
<svg width="56" height="56" viewBox="0 0 56 56" xmlns="http://www.w3.org/2000/svg"><path fill="#F0F3FA" d="M0 0h56v56H0z" /><path d="M20.65 9h14.7c.15 0 .19.07.12.2l-.87 1.73a.12.12 0 0 1-.12.07H21.5c-.06 0-.1-.03-.12-.08l-.85-1.71c-.07-.14-.03-.2.12-.2Z" fill="#9C540B" /><path d="m24.24 39.3-3.47 3.38c-.27.26-.33.22-.2-.13a39.25 39.25 0 0 0 2.86-14.62 50.6 50.6 0 0 0-2.17-15.2.32.32 0 0 1 0-.16c0-.04.02-.04.05 0A45.22 45.22 0 0 1 28 24.62c.02.06.06.1.12.13.08.03.13 0 .16-.07 1.61-4.34 3.8-8.33 6.6-11.97.16-.22.2-.2.13.06a50.91 50.91 0 0 0-2.13 17.6c.03.48.12 1.4.29 2.74.4 3.28 1.24 6.43 2.5 9.44.11.28.06.31-.15.1l-3.48-3.38c-.05-.05-.1-.05-.16 0l-3.51 3.44c-.14.13-.27.13-.4 0l-3.53-3.42c-.07-.07-.13-.07-.2 0Z" fill="#353E5B" /><path d="m30.7 18.38-2.52-2.46a.05.05 0 0 0-.07 0l-2.5 2.47a.05.05 0 0 0 0 .07l2.5 2.46c.03.02.06.02.08 0l2.51-2.47a.05.05 0 0 0 0-.07Z" fill="#353E5B" /><path d="M36.84 47H19.16c-.16 0-.2-.07-.13-.22l.85-1.7a.13.13 0 0 1 .13-.08h16c.06 0 .1.03.13.08l.83 1.7c.07.14.03.21-.13.21Z" fill="#9C540B" /></svg>