<!-- by TradeStack --><svg fill="none" xmlns="http://www.w3.org/2000/svg" viewBox="0 0 56 56"><path fill="#F0F3FA" d="M0 0h56v56H0z"/><path d="M6 23v10h5v-1H7v-9H6ZM18.555 23l-3.043 4.709L12.505 23H11.33L15 28.701V33h1v-4.299L19.66 23h-1.105ZM40 27.985C40 25.8 38.427 24 35.986 24 33.544 24 32 25.799 32 27.985c0 2.187 1.59 4.016 3.986 4.015C38.382 31.999 40 30.172 40 27.985Zm-9 0C31 25.1 33.1 23 35.986 23 38.9 23 41 25.099 41 27.985 41 30.872 38.901 33 35.986 33 33.099 33 31 30.872 31 27.985ZM44 27.39h1.269c1.34 0 3.34 0 3.34-1.646 0-1.433-1.535-1.744-2.718-1.744H44v3.39ZM42.995 23h2.585c1.992 0 4.08.275 4.08 2.744 0 1.463-.967 2.409-2.553 2.653L50 33h-1.253l-2.768-4.481H44V33h-1.004V23Z" fill="#1B2954"/><path d="M28.045 23h1.229l-3.19 4.647L29.782 33h-1.248l-3.084-4.454L22.375 33h-1.247l6.917-10Z" fill="#009BC9"/><path d="M24.446 27.092 21.6 23h1.265l2.208 3.201-.627.891Z" fill="#1B2954"/></svg>