<?xml version='1.0' encoding='utf-8'?>
<!-- by TradeStack -->
<svg width="56" height="56" viewBox="0 0 56 56" xmlns="http://www.w3.org/2000/svg"><path fill="#F0F3FA" d="M0 0h56v56H0z" /><path d="m9.56 30.28 1.3-2.28H14l-1.56 6h-1.92l.45-1.7c.28-1.1.55-2.04.8-2.84l-.8 1.36L9.1 34H7.43l-.24-3.18a189.4 189.4 0 0 0-.08-1.31c-.16.73-.38 1.66-.67 2.79L6 34H4l1.56-6h3.11l.14 2.28c.03.32.05.74.05 1.26.24-.47.48-.89.7-1.26ZM20 29l-.27 1h-2.97l-.29 1h2.77L19 32h-2.78L16 33h3.04l-.26 1H14l1.28-5H20ZM20.35 29H26l-.3 1h-1.9l-1.1 4h-1.82l1.09-4h-1.92l.3-1ZM31 34h-1.64l-.08-1h-2.04l-.57 1H25l3.21-5h1.9l.89 5Zm-3.24-2h1.36c-.08-.65-.16-1.1-.22-1.75-.36.66-.76 1.1-1.14 1.75ZM35.18 29 34 33h3l-.34 1H32l1.37-5h1.81ZM40.18 29 39 33h3l-.34 1H37l1.37-5h1.81Z" fill="#466273" /><path d="M25.51 22.75c-1.1.84-6.8 3.87-9.51 5.25 6.48-4.23 8.5-5.87 9.51-6.83 1-.92 1.05-1.6 1.5-1.6 1.08 0 2.35 2.4 3.1 2.4 1.97 0 7.48-5.97 7.74-5.97.65 0 2.56 5.92 3.84 5.92 1.02 0 2.45-1.7 3.04-2.46L51 28l-6.67-7c-.55.64-1.94 2-3.06 2-1.4 0-3.07-4.32-3.55-4.55-4.44 3.69-7.25 4.55-8.05 4.55-.8 0-1.75-1.44-2.43-1.44-.68 0-.36.14-1.73 1.2Z" fill="#F2C641" /><path d="M44.7 34H43l1.3-5H46l-1.3 5ZM48.6 34c-.97 0-2.98-.22-2.54-1.68h1.72c-.13.5.22.68 1.02.68.3 0 1.2-.06 1.2-.5.02-.95-3.03-.2-3-1.78.03-1.37 1.46-1.72 2.52-1.72 1.84 0 2.69.54 2.44 1.58h-1.68c.08-.39-.18-.56-.85-.56-.32 0-.92.04-.93.48-.02 1.03 3.06-.09 3 1.73-.05 1.48-1.75 1.77-2.9 1.77Z" fill="#466273" /></svg>