<!-- by TradeStack --><svg width="56" height="56" viewBox="0 0 56 56" xmlns="http://www.w3.org/2000/svg"><path fill="#F0F3FA" d="M0 0h56v56H0z"/><path d="M42.69 25c1.52 0 2.31 1.07 2.31 2.52V32h-2v-4.02c0-1-.1-1.48-.82-1.48-1.24 0-1.18 1.27-1.18 2.26V32h-2v-7h1.36l.24 1h.09c.42-.68 1.22-1 2-1ZM38 25v7h-2v-7h2Zm-3 7h-2v-9h2v9Zm-5.8-7c1.53 0 2.8.73 2.8 2.38V32h-1.28l-.36-1.04h-.05A2.63 2.63 0 0 1 28.08 32C26.8 32 26 31.13 26 29.86c0-1.67 1.6-2.1 3-2.14l1-.04v-.3c0-.7-.2-1.02-.87-1.02-.66 0-1.27.21-1.9.5l-.6-1.26c.73-.38 1.63-.6 2.57-.6Zm.26 3.78c-.72.02-1.57.22-1.57 1.1 0 .53.38.77.88.77.8 0 1.23-.53 1.23-1.34v-.56l-.54.03Zm-5.7 1.8c.44 0 .84-.09 1.24-.2v1.32c-.42.16-1.06.3-1.8.3-1.4 0-2.2-.73-2.2-2.15V27h-1v-.75l1.08-.76.57-1.5H23v1.51l2-.01V27l-2 .01v2.84c0 .48.24.73.76.73ZM17 25c1.81 0 3 1.3 3 3.07V29h-4c.03.96.43 1.63 1.42 1.63a5 5 0 0 0 2.21-.53v1.42a5 5 0 0 1-2.29.48C15.28 32 14 30.58 14 28.55c0-1.9.94-3.55 3-3.55Zm0 1.5c-.82 0-.94.5-1 1.23h2c0-.76-.19-1.23-1-1.23ZM49 25c1.81 0 3 1.3 3 3.07V29h-4c.03.96.43 1.63 1.42 1.63a5 5 0 0 0 2.21-.53v1.42a5 5 0 0 1-2.29.48C47.28 32 46 30.58 46 28.55c0-1.9.94-3.55 3-3.55Zm0 1.5c-.82 0-.94.5-1 1.23h2c0-.76-.19-1.23-1-1.23ZM7.5 32 6 26.5V32H4v-9h2.5l2 6.5 2-6.5H13v9h-2v-5.5L9.5 32h-2Z" fill="#435C78"/><circle cx="37" cy="23" r="1" fill="#435C78"/></svg>