<?xml version='1.0' encoding='utf-8'?>
<!-- by TradeStack -->
<svg width="56" height="56" viewBox="0 0 56 56" xmlns="http://www.w3.org/2000/svg"><path fill="#F0F3FA" d="M0 0h56v56H0z" /><circle cx="28" cy="28" r="17" fill="#010101" /><path fill-rule="evenodd" d="M28 43.8a15.8 15.8 0 1 0 0-31.6 15.8 15.8 0 0 0 0 31.6Zm0 .2a16 16 0 1 0 0-32 16 16 0 0 0 0 32Z" fill="#A09FA4" /><path fill-rule="evenodd" d="M28 41.5a13.5 13.5 0 1 0 0-27 13.5 13.5 0 0 0 0 27Zm0 2a15.5 15.5 0 1 0 0-31 15.5 15.5 0 0 0 0 31Z" fill="#A09FA4" /><path d="M41.2 28a13.2 13.2 0 1 1-26.4 0 13.2 13.2 0 0 1 26.4 0ZM28 41a13 13 0 1 0 0-26 13 13 0 0 0 0 26Z" fill="#A09FA4" /><path d="M16 26h-6l1 2-1 2h6v-4Z" fill="#A09FA4" /><path d="M28 12.5c-.33 1.33-1 4.9-1 8.5 0 3.6 1 5.83 1.5 6.5.5-.83 1.5-3.3 1.5-6.5s-1.33-7-2-8.5ZM19.5 16c1.17 2.83 4.4 9.1 8 11.5-.33-2.33-2.4-7.9-8-11.5ZM37 16c-1.17 2.83-4.4 9.1-8 11.5.33-2.33 2.4-7.9 8-11.5Zm-7 11.8c.83-1.45 4-4.24 10-3.74-1.33 1.66-5.2 4.74-10 3.74Zm-3 0c-.83-1.45-4-4.24-10-3.74 1.33 1.66 5.2 4.74 10 3.74Zm3 .2c1.07 1 4.16 3 8 3-.36-.8-2.45-2.52-8-3Zm-3 0c-1.07 1-4.16 3-8 3 .36-.8 2.45-2.52 8-3Z" fill="#BFD569" /><path d="M20 32h-2v-7h3l1 3.5 1-3.5h3v7h-2v-5l-1 5h-2l-1-5v5ZM27 27v-2h6v2h-2v5h-2v-5h-2ZM36 25h-2v7h5v-2h-3v-5Z" fill="#F9FDFE" /><path d="m15.5 35.5 1-3h1l1.5 2 1.5-.5 15-1 3.5.5 4 1-1.5 2-1 1H36l-7.5.5-6 .5-7 1-.5-1 1-1-.5-2Z" /><path d="M46 26h-6v4h6l-1-2 1-2Z" fill="#A09FA4" /><path fill-rule="evenodd" d="M37.26 31.35c-.45.38-.81.86-1.1 1.43-.03.07 0 .09.07.05.59-.27 1.26-.54 1.82-.1l-.03.5c0 .36-.01.7-.23 1.02-.45.68-1.44 2.02-2.38 2.29-.76.21-1.3.05-1.64-.49-.05-.07-.1-.08-.18-.02-.36.32-1.35.73-1.53.01-.02-.06-.05-.07-.1-.03-.46.37-.98.53-1.57.48a.34.34 0 0 1-.12-.03.3.3 0 0 1-.1-.07l-.2-.25c-.06-.08-.14-.08-.22-.01-.32.27-.71.42-1.2.46a.54.54 0 0 1-.36-.1.43.43 0 0 1-.18-.3c-.09-.77.33-1.47.73-2.14l.02-.02-.01-.04-.07-.03h-.03a8.88 8.88 0 0 0-1.58 2.71.31.31 0 0 1-.16.17c-.24.13-.46.1-.64-.09a.26.26 0 0 0-.26-.05l-.62.22a.41.41 0 0 1-.3 0c-.4-.16-.54-.48-.41-.97.15-.58.36-1.15.62-1.72.01-.02 0-.05-.03-.06-.03-.01-.05 0-.06.02-.61.91-1.1 1.87-1.49 2.88a.35.35 0 0 1-.11.15.44.44 0 0 1-.39.06.4.4 0 0 1-.17-.1l-.14-.15c-.07-.07-.14-.07-.2-.01-.43.36-.81.35-1.16-.02-.07-.07-.13-.06-.19 0-.5.58-1.5.83-2.02.12a.84.84 0 0 1-.16-.48c-.04-1.3.4-2.35 1.33-3.16.5-.43 1.05-.63 1.65-.6.08.01.14.03.2.06.18.1.68.48.74.64 0 .05 0 .1-.02.13-.45.8-.8 1.64-1.03 2.54-.06.22.04.34.3.34h.08c.27-.04.44-.18.5-.42l.1-.46c.21-.97.43-1.93 1.11-2.75a.29.29 0 0 1 .14-.09.33.33 0 0 1 .16 0c.1.01.19.02.28 0 .17-.02.22.04.15.18-.3.6-.58 1.21-.85 1.85-.19.46-.14.47.14.06.4-.6.87-1.34 1.4-2.21l.24-.16c.42-.28.46-.3.98-.04.14.07.17.17.1.3l-1.02 2a3.83 3.83 0 0 0-.35 1.36l.05.05c.02.02.04.03.07.03h.07c.33-.08.53-.26.59-.55.23-1.05.68-2.6 1.63-3.28a.25.25 0 0 1 .1-.04h.1c.13.03.22.1.27.21a.22.22 0 0 1-.02.2c-.35.6-.65 1.16-.91 1.68-.2.4-.16.43.13.07.35-.44.73-.97 1.14-1.61.19-.2.38-.38.58-.56.39-.35.78-.42 1.14 0-.35.79-.77 1.57-1.26 2.33-.1.15-.2.48-.31 1-.04.19.04.26.25.2l.16-.05c.23-.06.36-.2.41-.4a4.54 4.54 0 0 1 2.08-3.04c.22-.14.6-.28 1.14-.44l.05.03c.31.15 1.55.75 1.3 1.06l-.22.27c-.54.66-1.16 1.42-1.32 2.2-.05.21.05.3.29.3l.15-.04c.28-.12.45-.28.52-.48.33-.9.8-1.8 1.4-2.66l1.17-1.58c.05-.06.12-.1.22-.1.34-.03.6.1.78.34Zm-4.83 2.34.08.04c.12.05.15.13.09.24a8.42 8.42 0 0 1-1.43 1.74c-.17.15-.31.2-.45.15a.2.2 0 0 1-.1-.09.17.17 0 0 1-.02-.13c.23-.79 1-2.44 1.91-2.9.47-.23.58-.14.31.28-.05.08-.19.22-.4.4-.1.1-.1.18 0 .27Zm3.03.53c-.75.78-1.16 1.55-.93 1.73.24.18 1.03-.31 1.78-1.09s1.16-1.55.93-1.73c-.24-.18-1.03.3-1.78 1.09Zm-14 .4a.2.2 0 0 1-.07-.02c-.12-.04-.14-.11-.06-.2.22-.24.4-.52.52-.84v-.05a.08.08 0 0 0-.02-.04.1.1 0 0 0-.05-.03h-.05c-1.03.24-1.58 2.2-1.64 2.93-.07.7.14.78.62.21.4-.46.7-1.06.91-1.79.04-.12-.02-.18-.16-.17Zm-2.8-3.01.16.08c.24.1.55.23.53.46.12.88-.22 1.6-1.03 2.17a.25.25 0 0 1-.12.04c-.05 0-.1 0-.13-.02a.7.7 0 0 1-.35-.31.22.22 0 0 1 .03-.25c.38-.45.6-.76.64-.91.22-.85 0-.96-.7-.35-.95.84-1.58 2-1.89 3.46-.1.49.08 1.52.9 1.4 1.1-.17 1.6-1.28 1.84-2.13a.26.26 0 0 1 .06-.1.3.3 0 0 1 .1-.08.4.4 0 0 1 .28-.03c.1.03.14.08.14.17.03.83-.22 1.57-.77 2.22-.52.63-1.35.8-2.47.54-1.76-2.44-.2-5.29 1.35-6.01.25-.12 1.13-.5 1.42-.35Zm25.34 3c-.64.54-1.21.58-1.72.1a.14.14 0 0 0-.09-.03l-1.17-.08-.02.01v.01l.01.01c.35.22.62.52.8.89.2.44.27.8.2 1.1-.2.8-.82 1.25-1.84 1.36-.56.07-1.53.06-2.9-.02a56.62 56.62 0 0 0-15.45 1.37c-1.65.37-3.38.6-5.2.67-.3 0-.6 0-.9-.05-.3-.04-.6-.07-.9-.07-.62-.4-.89-.96-.8-1.64 0-.05.02-.1.05-.13a.28.28 0 0 1 .13-.08.32.32 0 0 1 .29.05l.11.1c.12.12.21.2.4.27.75.22 1.5.27 2.27.15.87.01 1.54-.03 2.02-.11a85.67 85.67 0 0 1 13.3-1.3c1.66-.03 3.87.02 6.64.15.61.03 1.75-.03 1.95-.67.29-.94-.14-1.32-.8-1.92l-.03-.02c-.08-.07-.1-.15-.06-.25a.82.82 0 0 1 .31-.38.13.13 0 0 0 .04-.04.11.11 0 0 0-.02-.14l-.22-.2a.16.16 0 0 0-.1-.04.18.18 0 0 0-.12.04c-.89.75-1.64 1.6-2.26 2.55a.23.23 0 0 0 .03.28.3.3 0 0 0 .14.09h.17c.47-.14.85-.43 1.14-.88a.1.1 0 0 1 .03-.03.12.12 0 0 1 .12 0l.08.05c.1.06.13.14.08.25-.42.86-1.2 1.2-2.32 1a.62.62 0 0 1-.36-.2.5.5 0 0 1-.13-.36c.03-.42.32-.9.62-1.23a8.41 8.41 0 0 0 1.4-2.13c.32.11.95.16 1.3.18.09 0 .11-.03.07-.1-.09-.16-.06-.26.09-.32.42.1.73.35.92.74.04.1.08.1.11 0 .02-.05 0-.08-.04-.1a.53.53 0 0 1-.17-.19.46.46 0 0 1 0-.47c.04-.07.1-.14.18-.19.2-.13.38-.27.54-.42.09-.09.13-.08.12.04a4.4 4.4 0 0 1-.45 1.7c0 .03 0 .05.03.06.39.16.93.27 1.47.37.32.06.63.12.91.2Z" fill="#85BF65" /><path d="m13.5 26.5.35 1.15H15l-.93.7.36 1.15-.93-.7-.93.7.36-1.15-.93-.7h1.15l.35-1.15ZM43 26.5l.35 1.15h1.15l-.93.7.36 1.15-.93-.7-.93.7.36-1.15-.93-.7h1.15L43 26.5Z" fill="#010101" /></svg>