<?xml version='1.0' encoding='utf-8'?>
<!-- by TradeStack -->
<svg width="56" height="56" viewBox="0 0 56 56" xmlns="http://www.w3.org/2000/svg"><path fill="#F0F3FA" d="M0 0h56v56H0z" /><path fill-rule="evenodd" d="M20 21v-5.34a2.6 2.6 0 0 1 4.12-2.15L41.97 27h3.3a2 2 0 1 1 0 2h-3.3L24.13 42.49A2.6 2.6 0 0 1 20 40.34V35h2v5.97l17.49-12.5a.77.77 0 0 0 0-1.24L22 14.73V21h-2Zm28.1 7a1.1 1.1 0 1 1-2.2 0 1.1 1.1 0 0 1 2.2 0Z" /><path d="M14.96 24.7c-.33.3-.75.47-1.22.47a1.9 1.9 0 0 1-1.87-1.9 1.9 1.9 0 0 1 1.87-1.92c.54 0 1.03.24 1.37.62h12.17c.34-.38.84-.62 1.38-.62a1.9 1.9 0 0 1 1.87 1.91 1.9 1.9 0 0 1-1.87 1.91c-.47 0-.9-.17-1.22-.46H14.96Zm-1.22-.39c.57 0 1.03-.47 1.03-1.05 0-.58-.46-1.05-1.03-1.05-.57 0-1.03.47-1.03 1.05 0 .58.46 1.05 1.03 1.05Zm14.92 0c.57 0 1.03-.47 1.03-1.05 0-.58-.46-1.05-1.03-1.05-.57 0-1.03.47-1.03 1.05 0 .58.46 1.05 1.03 1.05ZM15.17 34c-.37.37-.88.6-1.43.6a2.07 2.07 0 0 1-2.05-2.1c0-1.16.92-2.1 2.05-2.1.55 0 1.06.23 1.43.6h12.06c.37-.37.87-.6 1.43-.6 1.13 0 2.05.94 2.05 2.1 0 1.16-.92 2.1-2.05 2.1-.56 0-1.06-.23-1.43-.6H15.17Zm-1.43-.35c.62 0 1.13-.51 1.13-1.15 0-.64-.5-1.15-1.13-1.15-.63 0-1.13.51-1.13 1.15 0 .64.5 1.15 1.13 1.15Zm14.92 0c.62 0 1.13-.51 1.13-1.15 0-.64-.5-1.15-1.13-1.15-.62 0-1.13.51-1.13 1.15 0 .64.5 1.15 1.13 1.15Z" fill="#0142FE" /><path d="M11.14 29.5a1.8 1.8 0 0 1-1.27.53c-1.03 0-1.87-.9-1.87-2s.84-2 1.87-2c.46 0 .88.18 1.2.47h19.89c.32-.3.74-.47 1.2-.47 1.04 0 1.87.9 1.87 2s-.83 2-1.87 2c-.49 0-.93-.2-1.27-.53H11.14Zm-1.27-.37c.57 0 1.03-.49 1.03-1.1 0-.6-.46-1.1-1.03-1.1-.57 0-1.03.5-1.03 1.1 0 .61.46 1.1 1.03 1.1Zm22.3 0c.56 0 1.02-.49 1.02-1.1 0-.6-.46-1.1-1.03-1.1-.57 0-1.03.5-1.03 1.1 0 .61.46 1.1 1.03 1.1Z" fill="#0084FD" /></svg>