<?xml version='1.0' encoding='utf-8'?>
<!-- by TradeStack -->
<svg width="56" height="56" viewBox="0 0 56 56" xmlns="http://www.w3.org/2000/svg"><path fill="#F0F3FA" d="M0 0h56v56H0z" /><path d="m34.6 30.5-.02-.07c0-.06-.03-.11-.07-.15l-6.58-6.6c.14-.06.28-.18.4-.35.16-.2.27-.35.34-.42a82.22 82.22 0 0 1 2.58-2.55c1.7-1.54 3.65-1.77 5.83-.7.29.14.83.61 1.64 1.4a1488.56 1488.56 0 0 0 9.27 9.14.14.14 0 0 1 0 .11l-.04.05c-.56.53-1.57 1.53-3.05 3a4.9 4.9 0 0 1-6.84.3 76.54 76.54 0 0 1-3.22-3.13.3.3 0 0 0-.11-.03h-.14Z" fill="#66CEF5" /><path d="m27.93 23.68 6.58 6.6c.04.04.07.1.07.15l.01.07c-.85.87-1.72 1.72-2.6 2.56a8.39 8.39 0 0 1-1.94 1.51c-1.87.86-4.05.4-5.51-1.03a317.51 317.51 0 0 1-3-2.94c-.04-.05-.12-.1-.22-.16.04-.07.03-.13-.02-.2-.4-.5-1.03-1.16-1.62-1.69a97.58 97.58 0 0 1-5-4.84c.68-.69 1.34-1.34 1.98-1.96 1.11-1.1 1.8-1.72 2.04-1.88a4.86 4.86 0 0 1 5.79.38c.52.44 1.66 1.58 3.44 3.43Z" fill="#00ADEF" /><path d="M14.68 23.71a97.54 97.54 0 0 0 5 4.84c.59.53 1.21 1.19 1.62 1.7.05.06.06.12.02.19-1 .97-1.98 1.95-2.95 2.94a5.16 5.16 0 0 1-4.08 1.6c-1.36-.06-2.38-.74-3.45-1.8A277 277 0 0 0 8 30.37a.12.12 0 0 1 0-.1l.03-.03 6.64-6.54Z" fill="#0082B3" /></svg>