<!-- by TradeStack --><svg width="56" height="56" viewBox="0 0 56 56" xmlns="http://www.w3.org/2000/svg"><path fill="#F0F3FA" d="M0 0h56v56H0z"/><path fill-rule="evenodd" d="m18.24 44-1.99-11.78 6.39-2.1.52-7h-.52l-1.57 7L14 28.62l6.39-12.51 4.13.37c.46.01 1.1-.16 0-.94l-.9-1.13 1.57-1.91v-1.42L28.93 9l2.73 2.54c.23.33.56 1.2 0 2.08l-2.2 3.61 6.38 1.41L42 28.98l-4.71 1.82L41.53 44h-8.9L30.2 31.27l-2.33 1.48-2.73-1.13.75 12.38h-7.64Zm14.37-14.18v-6.98l2.67 5.94-2.67 1.04Z" fill="url(#au01aolkd)"/><defs><linearGradient id="au01aolkd" x1="28" y1="9" x2="28" y2="44" gradientUnits="userSpaceOnUse"><stop stop-color="#008ABF"/><stop offset=".48" stop-color="#0262AA"/><stop offset="1" stop-color="#003993"/></linearGradient></defs></svg>