<?xml version='1.0' encoding='utf-8'?>
<!-- by TradeStack -->
<svg width="56" height="56" viewBox="0 0 56 56" xmlns="http://www.w3.org/2000/svg"><path fill="#F0F3FA" d="M0 0h56v56H0z" /><path d="M43 14.36c0-.18-.24-.36-.43-.36-.06 0-.12 0-.18.06l-14.42 8.65-14.42-8.65c-.18-.12-.37-.06-.49.12-.06.06-.06.12-.06.18v27.28c0 .18.18.36.37.36h7.26c.18 0 .37-.18.37-.36V26.62l6.66 4.02c.13.06.25.12.37.12s.24-.06.37-.12c0 0 14.36-8.4 14.42-8.47.18-.06.18-.18.18-.42v-7.39Z" fill="#003B7E" /><path d="M42.75 25.24a.41.41 0 0 0-.38 0l-7.12 4.08c-.19.12-.25.18-.25.48v11.84c0 .18.19.36.38.36h7.24c.2 0 .38-.18.38-.36V25.6c-.06-.18-.13-.3-.25-.36Z" fill="#F9AE00" /></svg>