<?xml version='1.0' encoding='utf-8'?>
<!-- by TradeStack -->
<svg width="56" height="56" viewBox="0 0 56 56" xmlns="http://www.w3.org/2000/svg"><path fill="#181B1E" d="M0 0h56v56H0z" /><path d="M15.5 23 12 27.56V23h-1.57L5 30h1.9l3.53-4.56V30H12l3.5-4.56V30H17v-7h-1.5ZM24 30v-7h-1.66L17 30h2.06l3.44-4.3V30H24ZM52 30v-8l-6 8h1.77l2.81-3.75V30H52ZM48.19 24l-2.73 3.69V24H43.5l-3.04 3.69V24H39v6h1.46L44 25.68V30h1.46L50 24h-1.81ZM32 25.88A2.9 2.9 0 0 0 29.12 23H25v7h1.5v-5.39h2.62c.7 0 1.27.58 1.27 1.27 0 .69-.57 1.12-1.27 1.12h-2.16l2.59 3h2.17l-1.38-1.51c1-.47 1.66-1.5 1.66-2.61ZM38 27.5V24h-1.5v3.5c-.03.57-.43 1.02-1 1.02-.57 0-.97-.45-1-1.02V24H33v3.5a2.49 2.49 0 0 0 2.5 2.5 2.49 2.49 0 0 0 2.5-2.5ZM40 34v-2H5.61L4 34h36Z" fill="#fff" /><path fill="#fff" fill-opacity=".5" d="M41 32h11v2H41z" /></svg>