<!-- by TradeStack --><svg width="56" height="56" viewBox="0 0 56 56" xmlns="http://www.w3.org/2000/svg"><path fill="url(#awzybrnk2)" d="M0 0h56v56H0z"/><path fill-rule="evenodd" d="M11.4 24H7l17.5-7 5.23 1.7 2.67-1.35 8.18 4.26 1.56-.84L47 24H27.37l5.71-2.05-2.47-1 .6-.81-1.48-.43-8.33 3.74H19.4l3.58-2.19h-2.48l3.44-1.12v-.9h-1.2l1.2-1.5-13.1 5.71.57.55ZM6 25v9h2.5v-4.67L10.87 33h1.3l2.33-3.67V34H17v-9h-2.16l-3.34 5.15L8.32 25H6Zm23 9v-9h2.32l3.18 5.15L37.84 25H40v9h-2.5v-4.67L35.17 33h-1.3l-2.37-3.67V34H29Zm-7.46 0-4.04-9h2.93l2.67 5.9 2.68-5.9h2.72l-4.09 9h-2.87ZM41 25h5.18c2.66 0 4.82 2.01 4.82 4.5S48.84 34 46.18 34H41v-9Zm2.5 2h2.59a2.46 2.46 0 0 1 2.41 2.5c0 1.38-1.08 2.5-2.41 2.5H43.5v-5Z" fill="#fff"/><defs><linearGradient id="awzybrnk2" x1="10.42" y1="9.71" x2="68.15" y2="76.02" gradientUnits="userSpaceOnUse"><stop stop-color="#1A1E21"/><stop offset="1" stop-color="#06060A"/></linearGradient></defs></svg>