<?xml version='1.0' encoding='utf-8'?>
<!-- by TradeStack -->
<svg width="56" height="56" viewBox="0 0 56 56" xmlns="http://www.w3.org/2000/svg"><path fill="#F0F3FA" d="M0 0h56v56H0z" /><circle cx="28" cy="28" r="17" fill="#B9E3FF" /><path d="m28 42-8.34-17.91c-6.67-5.44.96-9 5.34-10.09l3 7.62V42Z" fill="#283891" /><path d="M14.28 38.05A16.98 16.98 0 0 1 18.35 14H25L14.28 38.05Z" fill="#25AAE2" /><path d="M41.95 37.72A16.98 16.98 0 0 0 37.65 14H32l9.95 23.72Z" fill="#262161" /><path d="M37.65 14h-6.33l-7.98 18L28 42l11.65-26.38c-.62-.59-1.3-1.13-2-1.62Z" fill="#0F75BD" /></svg>