<!-- by TradeStack --><svg viewBox="0 0 56 56" xmlns="http://www.w3.org/2000/svg"><path fill="#F0F3FA" d="M0 0h56v56H0z"/><path d="M8 25h2v1.11h-.07c.18-.3.77-1.11 2.27-1.11.47 0 1.68.12 2.5 1.47A3.1 3.1 0 0 1 17.48 25c1.7 0 2.54.98 2.85 1.45.35.49.66 1.38.66 2.76V35h-2v-5.52c0-.54-.08-2.42-1.71-2.42-.58 0-1.14.33-1.44.87-.33.56-.31 1.49-.31 2.08V35h-2.08v-5.52c0-1.28-.45-2.42-1.73-2.42C10.08 27.06 10 29 10 30V35H8V25ZM35 25v5.47c0 .54-.24 2.45-2 2.45-1.66 0-2-1.7-2-2.98V25h-2v4.94c0 1.28-.34 2.98-2 2.98-1.76 0-2-1.9-2-2.45V25h-2v5.74c0 1.4.34 2.3.7 2.8A3.6 3.6 0 0 0 26.79 35 3.42 3.42 0 0 0 30 33.14l.21.38a3.42 3.42 0 0 0 3 1.48 3.6 3.6 0 0 0 3.08-1.47c.37-.49.71-1.4.71-2.8V25h-2Z" fill="#00488F"/><path d="M39 18.01h-2v1h2v-1Z" fill="#0095D7"/><path d="M43 20h-2v1h2v-1Z" fill="#FFD643"/><path d="M45.59 16h-2.33v1h2.33v-1Z" fill="#0095D7"/><path d="M43.62 25c-.96 0-1.9.35-2.62.93V22h-2v10h2v-1.84c0-1.56 1.21-3.14 2.62-3.14 1.41 0 2.38 1.32 2.38 2.88 0 1.56-.97 3.1-2.38 3.1H39v2h4.68c2.4-.04 4.32-2.45 4.32-5.1 0-2.67-1.96-4.9-4.38-4.9Z" fill="#00488F"/><path d="M41 32h-2v1h2v-1Z" fill="#0095D7"/></svg>