<!-- by TradeStack --><svg width="56" height="56" viewBox="0 0 56 56" xmlns="http://www.w3.org/2000/svg"><path fill="#F0F3FA" d="M0 0h56v56H0z"/><path d="m17.56 30.99 3.6-5.99h3.05l3.66 6h-2.1l-3.05-5.1-3 5.08-2.16.01ZM35.59 31h-2.8l-7.7-6h2.8l7.7 6ZM11.46 31H9.55L6 26h-.05L6 31H4v-6h3.44l3.03 4.45h.05L13.5 25H17v6h-2v-5l-3.54 5ZM38 25v6h-2v-3.67c.7-.33 1.6-1.08 2-2.33ZM46.46 31h-1.91L41 25.97H41V31h-2v-6h3.44l3.03 4.45h.05L48.5 25H52v6h-2v-5.05h-.03L46.47 31Z" fill="#0067B1"/><path d="M34.17 25.88C27.06 30.28 18 29.62 18 29.62s8.49 1.74 16.44-2.24c1.13-.56 2.53-1.75 2.56-3.02.04-1.91-2.47-3.38-4.15-3.36l-.38.01c1.48.27 2.96 1.99 2.98 2.96.04.97-.95 1.7-1.28 1.91Z" fill="#00B259"/><path d="M37 25a1 1 0 1 0 0-2 1 1 0 0 0 0 2Z" fill="#0067B1"/><path opacity=".7" fill="#0067B1" d="M26 32h26v2H26z"/></svg>