<?xml version='1.0' encoding='utf-8'?>
<!-- by TradeStack -->
<svg width="56" height="56" viewBox="0 0 56 56" xmlns="http://www.w3.org/2000/svg"><path fill="#F0F3FA" d="M0 0h56v56H0z" /><path d="M22 23v12h2.5v-7.98l3.52 5.37 3.48-5.37V35H34V23h-2.8l-3.18 5.15L24.88 23H22Z" fill="#444" /><path d="M21.02 35 9.15 27.16l-.1.14-1.18-.78c-.69 1-2.22 3.7-2.85 6.47-.1-1.21.15-4.32 1.95-7.07-.27-.27-.28-.8-.06-1.08.18-.31.68-.5 1.04-.36A12.52 12.52 0 0 1 13.79 20a21.66 21.66 0 0 0-4.95 5.07l1.19.79-.1.14L22 34l-.98 1Z" fill="url(#aknlbqgnb)" /><path d="M21.07 34.95 14 22.7l-.15.08-.7-1.2a21.2 21.2 0 0 0-5.28 4.49c.43-1.11 2-3.75 4.76-5.4-.12-.36.1-.83.42-.98.3-.2.82-.16 1.06.12a12.18 12.18 0 0 1 7.05-1.44c-2.75.44-5.5 1.75-6.52 2.35l.7 1.2-.15.1 6.56 11.32-.68 1.62Z" fill="url(#bknlbqgnb)" /><path d="M20.56 35V21h-.17v-1.3c-1.2-.01-4.22.23-6.82 1.23.93-.75 3.6-2.24 6.82-2.29.07-.37.5-.66.85-.64.36-.02.78.27.86.64 3.22.05 5.89 1.54 6.82 2.29-2.6-1-5.63-1.24-6.82-1.24V21H22v14h-1.44Z" fill="url(#cknlbqgnb)" /><path d="M42 31.32 39.34 35H36l4.35-5.98L36 23h3.28L42 26.75 44.72 23H48l-4.35 6.02L48 35h-3.34L42 31.32Z" fill="#444" /><defs><linearGradient id="aknlbqgnb" x1="6.91" y1="24.84" x2="21.52" y2="34.71" gradientUnits="userSpaceOnUse"><stop stop-color="#F1D9C6" /><stop offset="1" stop-color="#8F6F55" /></linearGradient><linearGradient id="bknlbqgnb" x1="13.05" y1="19.67" x2="21.68" y2="34.6" gradientUnits="userSpaceOnUse"><stop stop-color="#A3A5A4" /><stop offset="1" stop-color="#686868" /></linearGradient><linearGradient id="cknlbqgnb" x1="21.24" y1="18" x2="21.24" y2="35.25" gradientUnits="userSpaceOnUse"><stop stop-color="#DB9D82" /><stop offset="1" stop-color="#965955" /></linearGradient></defs></svg>