<!-- by TradeStack --><svg viewBox="0 0 56 56" xmlns="http://www.w3.org/2000/svg"><path fill="#F0F3FA" d="M0 0h56v56H0z"/><path d="M31 30.28v-1.03h-.61l-.02-.01V27l-.02-.01h-1.9l-1.78 2.2v1.09h2.26V31l.02.01h1.42V30.3H31l.01-.02Zm-2.05-2.04v.99l-.01.01h-.77v-.01l.76-.99h.02Zm-6.51.9a.1.1 0 0 1 0-.04h.02l1.29 1.89.03.01h1.59V27h-1.48a.02.02 0 0 0-.01 0v.01l.06 2c0 .03-.01.03-.03 0l-1.33-2a.02.02 0 0 0-.01-.01h-1.55c-.01 0-.02 0-.02.02V31h1.5v-.01l-.06-1.85Z"/><path d="M31.67 32a.69.69 0 0 0-.12 0c-.01 0-.02 0-.02.02l-1.93 4.96V37h.38l.66-1.7.02-.01a104.91 104.91 0 0 1 1.92 0l.66 1.7c0 .02 0 .02.02.02h.35l.01-.01-1.93-4.97c0-.01 0-.02-.02-.02Zm-.9 2.93.83-2.2v-.01h.01l.84 2.2v.01h-1.68Zm14.28.35a108.09 108.09 0 0 1 1.92 0l.65 1.7c0 .02.01.02.02.02h.35l.01-.01-1.92-4.97c0-.01 0-.02-.02-.02a.68.68 0 0 0-.12 0c-.01 0-.02 0-.02.02L44 36.99V37h.36l.02-.01.65-1.7.02-.01Zm.11-.35.83-2.2v-.01H46l.84 2.2v.01h-1.67Zm-23.8-.24V37H21V32H22.13c.65 0 1.3.24 1.4 1.09.07.57-.08 1.08-.53 1.37a1.2 1.2 0 0 1-.43.18c-.1.02-.24.03-.45.03a85.4 85.4 0 0 0-.76.01Zm0-1.35a106 106 0 0 0 .02.99h.83c.56-.04.95-.32.94-1 0-.67-.39-.95-.94-.98a19.32 19.32 0 0 0-.84.01v.98Zm7.23 1a4409.6 4409.6 0 0 1-3.2-.02v-2.28h-.37c-.01 0-.02 0-.02.02v4.93l.01.01h.37l.02-.01v-2.3a1411.67 1411.67 0 0 1 3.2 0V37l.02.01h.37l.01-.01v-4.93c0-.01 0-.02-.02-.02h-.36c-.01 0-.02 0-.02.02v2.26a.01.01 0 0 1 0 .01Zm7.76.15h-.01v.02c.1.06.18.13.26.22l.19.3A3707.43 3707.43 0 0 1 37.94 37h-.4a.02.02 0 0 1-.01 0l-.76-1.3c-.19-.33-.36-.59-.5-.78a.66.66 0 0 0-.42-.26c-.23-.04-.4-.04-.67-.03H35l-.01.01V37H34.63v-4.94h1.07c.63 0 1.34.2 1.45 1.02.04.23.02.45-.04.66-.11.4-.42.64-.76.76Zm-.4-.24c.54-.06.9-.5.81-1.12a.8.8 0 0 0-.53-.67 1.3 1.3 0 0 0-.42-.07 87.5 87.5 0 0 0-.82 0v1.88c.33.01.64.01.95-.02Zm5.05.04L39.37 32l-.02-.01H39V37l.01.01h.34l.01-.01v-4.36c0-.02 0-.02.01 0a329.31 329.31 0 0 1 1.64 2.28 325.82 325.82 0 0 1 1.63-2.28v4.36l.01.01H43l.01-.01V32h-.36l-.02.01L41 34.3Z" fill="#999"/><path d="m19.52 14.75-.14.04.06-.79h.01l.07.75ZM18.81 15.57h-.27v-1.5c0-.05.01-.05.02 0l.25 1.5ZM20.36 15.18l-.21.01.18-1.07c.01-.08.02-.08.02 0l.01 1.06ZM21.2 14.84l-.15.03.18-.72h.01l-.05.7ZM17.84 14.85l-.13.03-.05-.72v-.01l.18.7ZM21.97 15.33l-.18-.04.32-.97h.01l-.15 1.01ZM17.29 15.82l-.28.06-.24-1.55h.01c0-.01 0-.01 0 0l.5 1.49ZM16.4 15.7l-.2.1-.3-1.24h.01l.5 1.14ZM22.7 15.82l-.19-.16.47-1.1.01.01-.29 1.25Z" fill="#054F7C"/><path d="m19.52 14.75.13 1.5a1.2 1.2 0 0 0-.4 0l.13-1.46.14-.04ZM21.2 14.84l-.1 1.36-.37-.03.32-1.3.14-.03ZM17.84 14.85l.35 1.41-.38.07-.1-1.45.13-.03Z" fill="#046490"/><path d="m15.4 15.5-.12.04-.21-.67.33.62ZM23.5 15.94l-.18-.1.5-.97.01.01-.33 1.06Z" fill="#054F7C"/><path d="m20.36 15.18.01 1.08-.4-.03.18-1.04h.21Z" fill="#046490"/><path d="m14.86 16.2-.19.1-.41-1.03c-.02-.04-.02-.05 0 0l.6.94ZM24.22 16.32l-.17-.14a116.32 116.32 0 0 1 .6-.93l-.43 1.07Z" fill="#054F7C"/><path d="m21.97 15.33-.18 1.26-.4-.11.4-1.2.18.05ZM16.03 16.7l-.34.14-.41-1.3.12-.05.63 1.2ZM18.81 15.57l.12.69c-.13-.01-.27 0-.4.02v-.7h.28ZM22.51 15.66l.19.16-.19.81-.36-.13.36-.84Z" fill="#046490"/><path d="M14.17 16.62a.64.64 0 0 0-.2.08l-.5-1v-.01c.24.3.47.62.7.93ZM24.88 16.8l-.17-.15.71-.97h.01v.02l-.55 1.1Z" fill="#054F7C"/><path d="m16.4 15.7.49 1.14-.43.13-.26-1.16.2-.1ZM17.29 15.82l.26.78-.42.12-.12-.84.28-.06ZM23.32 15.84l.18.1-.33 1.03-.36-.16.5-.97Z" fill="#046490"/><path d="m21.1 16.2-.03.44-.44-.06.1-.4.37.02Z" fill="#1379A4"/><path d="M13.5 17.06a.65.65 0 0 0-.2.1l-.58-.97h.01l.76.87Z" fill="#054F7C"/><path d="m24.22 16.32-.4.97-.34-.19.57-.92.17.14Z" fill="#046490"/><path d="m25.82 16.79-.1-.1.45-.5c.01 0 .01 0 0 0l-.35.6Z" fill="#054F7C"/><path d="m14.86 16.2.58.93-.36.18-.4-1.01.18-.1Z" fill="#046490"/><path d="m19.65 16.25.07.77-.54-.02.07-.75c.13-.02.27-.02.4 0Z" fill="#2189B4"/><path d="M20.37 16.26v.56l-.5-.02.1-.57.4.03ZM18.93 16.26l.06.35-.47.04v-.37c.14-.02.28-.03.4-.02ZM18.2 16.26l.08.36-.45.06-.02-.35.38-.07ZM21.39 16.48l.4.1-.08.52-.48-.13.16-.49ZM22.51 16.63l-.18.8-.51-.14.33-.79.36.13ZM17.55 16.6l.12.35-.49.11-.05-.34.42-.12Z" fill="#1379A4"/><path d="m20.63 16.58.44.06-.04.5a3.07 3.07 0 0 0-.52-.1l.12-.46Z" fill="#2189B4"/><path d="m14.17 16.62.54.73-.32.19-.42-.84a.65.65 0 0 1 .2-.08Z" fill="#046490"/><path d="m18.99 16.61.06.4-.53.07v-.43l.47-.04ZM18.28 16.62l.15.6-.55.1-.05-.64.45-.06Z" fill="#2189B4"/><path d="m24.88 16.8-.39.77-.32-.19.54-.73.17.14Z" fill="#046490"/><path d="m16.03 16.7.22.42-.43.16-.13-.44.34-.14Z" fill="#1379A4"/><path d="m25.72 16.7.1.09-.73 1.21-.29-.25.92-1.05Z" fill="#046490"/><path d="m12.82 17.52-.15.15-.64-.9c-.03-.04-.03-.05 0-.01l.79.76ZM26.25 17.64l-.15-.14.76-.74c.04-.04.04-.04 0 0l-.61.88Z" fill="#054F7C"/><path d="M20.38 16.82v.55l-.59-.04.09-.53.5.02Z" fill="#2189B4"/><path d="m22.81 16.8.36.17-.1.32-.42-.18.16-.3Z" fill="#1379A4"/><path d="m16.89 16.84.17.4-.5.16-.1-.43.43-.13ZM17.67 16.95l.17.51c-.2.04-.39.09-.58.15l-.08-.55.49-.1ZM21.23 16.97l.48.13-.08.51-.57-.15.17-.5Z" fill="#2189B4"/><path d="M19.72 17.02a32.63 32.63 0 0 0 .05.42l.02-.11.59.04v.12c0 .02.01.02.02 0l.1-.44c.19.01.36.05.53.1a87.56 87.56 0 0 1-.01.46l.04-.15.57.15-.02.15h.01l.01-.01.19-.46.51.14-.12.5c0 .03 0 .03.02 0l.1-.2.53.24-.07.2v.01h.01l.3-.48.46.24-.2.52c-.02.02-.01.02 0 0l.09-.1.47.37-.04.07h.01l.08-.09c.18.08.35.2.49.35l-.06.1c-.01.01 0 .01 0 0l.4-.38.37.37-.3.41c0 .02 0 .03.01.01l.42-.35c.14.11.26.24.37.37l-.35.42c-.02.02-.01.02 0 0l.44-.3c.13.12.24.26.33.4l-.36.38c-.01.01-.01.01 0 0l.5-.3c.12.13.22.27.3.43l-.43.37c-.02.02-.02.02.01 0l.33-.16.31.45-.32.25c-.02.02-.02.02 0 0l.3-.11.27.49-.28.17c-.03.02-.03.02.01.01l.2-.06.22.54-.2.1c-.02.01-.02.01 0 0l.6-.13c.04.17.1.33.17.48l-.56.24c-.03.01-.03.02 0 .01l.43-.06.14.52-.42.14c-.04.01-.04.02 0 .02l.48-.04.1.52-.5.13c-.03 0-.03 0 0 0h.19c.03.2.06.4.07.59l-.21.03v.01l.3.03v.3h-.63l-.1-1.03a7.5 7.5 0 0 0-3.95-5.7 7.67 7.67 0 0 0-9.08 1.44 7.5 7.5 0 0 0-2.08 4.35 7.51 7.51 0 0 0 1.7 5.8 7.52 7.52 0 0 0 5.85 2.78v.8h-.27l-.04-.47c0-.03 0-.03-.01 0l-.1.54-.5-.01-.02-.54c0-.06 0-.06-.02 0l-.12.5-.51-.06.03-.51c0-.08 0-.08-.03-.01l-.15.46-.51-.1.08-.55c0-.04 0-.04-.01 0l-.21.48-.5-.14.12-.54c.01-.03 0-.03-.01 0l-.25.47-.47-.21.16-.5c0-.03 0-.04-.01-.01l-.17.26-.5-.23.11-.3v-.01l-.37.5-.44-.28.28-.54v-.01H15l-.28.32-.45-.3.22-.37c.02-.03.01-.03-.01 0l-.36.35-.4-.34.3-.44c.02-.02.02-.02 0 0l-.41.34-.37-.37.34-.4c.01-.03.01-.03-.01-.01l-.36.25-.36-.4.31-.32c.02-.02.02-.03 0-.01l-.42.25-.3-.44.36-.31c.02-.02.01-.02 0 0l-.34.15-.28-.47.28-.2c.03-.03.03-.04-.01-.02l-.41.16-.24-.48.37-.23c.04-.02.03-.02-.01-.01l-.6.19-.2-.46.59-.3c.02-.02.02-.02 0-.02l-.3.07-.17-.54a465.43 465.43 0 0 1 .27-.13l-.62.1-.13-.5a741.3 741.3 0 0 1 .61-.2l-.45.02-.08-.53.42-.1c.04-.01.04-.02 0-.02h-.36l-.07-.54.38-.07c.02 0 .02 0 0 0a.95.95 0 0 0-.11-.02l.01-.6h.11v-.02h-.01l-.49-.08.04-.53h.5c.03 0 .03 0 0-.02l-.52-.13.1-.5.51.03c.04 0 .04 0 0-.02l-.47-.16.14-.5.47.06c.04 0 .04 0 0 0l-.3-.14.2-.52.3.06c.03.01.03 0 0-.01l-.19-.1.24-.53.2.07c.03 0 .03 0 .01-.01l-.2-.13.26-.5.21.08c.03 0 .03 0 0-.01l-.15-.12.27-.51.21.1c.03.01.03.01 0 0l-.24-.22.34-.45a31.76 31.76 0 0 1 .29.16l-.28-.28.36-.42.3.22c.03.02.03.01 0-.02l-.33-.4.38-.36.38.32c.04.03.04.03.01-.02l-.11-.15.44-.38.16.16c.02.01.02.01 0-.01l-.1-.17.47-.35.14.17.01-.01-.1-.21.5-.28.12.16c.02.02.02.02.01-.01l-.17-.43c.15-.1.3-.18.47-.25l.25.4c.02.03.02.03.01 0l-.1-.3.53-.2.14.26c.02.03.02.03.01-.01l-.12-.52.5-.16.21.51h.01l-.02-.14c.2-.06.38-.11.58-.15l.04.15.01-.01v-.01l-.01-.27.55-.1.06.2a4.37 4.37 0 0 1 .04-.35l.52-.07.08.44c0 .04 0 .04.01 0l.04-.44.54.02Z" fill="#3DA5CB"/><path d="m13.5 17.06.59.69-.3.22-.49-.81a.65.65 0 0 1 .2-.1Z" fill="#046490"/><path d="m23.82 17.3-.2.49a1.6 1.6 0 0 0-.43-.23l.29-.46.34.2Z" fill="#1379A4"/><path d="m16.25 17.12.28.55-.52.2-.19-.59.43-.16ZM23.07 17.29l-.21.68-.53-.24.32-.62.42.18ZM15.84 17.77c-.17.07-.32.15-.47.25l-.29-.7.36-.19.4.64Z" fill="#2189B4"/><path d="m12.2 18.06-.1.18-.73-.87c-.03-.03-.03-.04.01 0l.83.69Z" fill="#054F7C"/><path d="m14.7 17.35.28.36-.4.23-.2-.4.33-.2Z" fill="#1379A4"/><path d="M27.12 17.86 27 17.8l.52-.44h.01l-.42.51Z" fill="#054F7C"/><path d="m24.17 17.38.32.2-.2.4c-.1-.1-.24-.18-.36-.27l.24-.33Z" fill="#1379A4"/><path d="m26.1 17.5.15.14-.65.9-.28-.27.78-.77ZM13.6 18.28l-.31.25-.62-.86.15-.15.77.76Z" fill="#046490"/><path d="m23.63 17.79-.07.15-.45-.24.08-.14c.16.05.3.13.44.23ZM23.93 17.7c.12.1.25.17.36.27l-.37.76-.47-.38.48-.64ZM15.42 18.3l-.52.28-.31-.64.38-.23.45.6Z" fill="#2189B4"/><path d="m14.09 17.75.29.33-.37.26-.22-.37.3-.22ZM24.8 17.75l.3.25-.36.59-.4-.3.46-.54Z" fill="#1379A4"/><path d="m27.12 17.86-1 1.2-.28-.29L27 17.8l.1.07Z" fill="#046490"/><path d="M27.1 25.45h-.66l-.05-.8a6.96 6.96 0 1 0-6.94 7.78v.67l-.58-.04a7.52 7.52 0 0 1-6.51-4.88 7.51 7.51 0 0 1-.46-3.66 7.5 7.5 0 0 1 3.8-5.69 7.67 7.67 0 0 1 7.36-.1 7.64 7.64 0 0 1 4.05 6.72Z" fill="#6ABBD8"/><path d="m11.67 18.66-.12.17a478.31 478.31 0 0 1-.8-.82l.92.65Z" fill="#054F7C"/><path d="m13.07 18.78-.28.29-.7-.83.12-.18.86.72Z" fill="#046490"/><path d="m14.86 18.63-.47.35-.38-.64.37-.26.48.55Z" fill="#2189B4"/><path d="m25.32 18.27.28.27-.2.28c-.1-.11-.22-.21-.35-.29l.27-.26ZM13.6 18.28l.35.35-.36.32-.3-.42.3-.25Z" fill="#1379A4"/><path d="m24.34 18.28.4.3-.28.48a1.5 1.5 0 0 0-.49-.35l.37-.43Z" fill="#2189B4"/><path d="M26.44 25.45h-.51l-.01-.01a6.45 6.45 0 1 0-6.47 6.52v.47l-.68-.05a6.9 6.9 0 0 1-5.94-4.77 6.97 6.97 0 1 1 13.6-2.16Z" fill="#98D4E6"/><path d="M25.05 18.53c.13.08.25.18.36.29l-.24.33-.38-.37.26-.25Z" fill="#2189B4"/><path d="m27.45 18.73-.79.8-.22-.3.83-.6.18.1Z" fill="#046490"/><path d="m13.95 18.63.38.37-.44.38-.3-.43.36-.32Z" fill="#2189B4"/><path d="m12.56 19.3-.24.32-.77-.79.12-.17.9.64Z" fill="#046490"/><path d="m11.22 19.33-.15.16a293.47 293.47 0 0 1-.87-.78l1.02.62ZM27.84 19.47l-.12-.17.95-.57c.05-.03.05-.02.01.01l-.84.73Z" fill="#054F7C"/><path d="m25.84 18.77.28.29-.32.38c-.1-.13-.22-.24-.35-.35l.39-.32ZM13.07 18.78l.2.17-.32.31-.16-.2.28-.28Z" fill="#1379A4"/><path d="m13.6 19.23-.37.36-.28-.33.33-.3.33.27ZM25.45 19.1c.13.1.24.21.35.34l-.13.15a2.78 2.78 0 0 0-.37-.37l.15-.13Z" fill="#2189B4"/><path d="m26.44 19.23.22.3-.18.2a2.05 2.05 0 0 0-.26-.35l.22-.15ZM12.73 19.42l-.29.32-.12-.12.24-.32.17.12Z" fill="#1379A4"/><path d="m27.72 19.3.12.17-.78.68-.24-.3.9-.55ZM12.1 19.85l-.21.35-.82-.71.15-.16.88.52Z" fill="#046490"/><path d="M26.22 19.38c.1.1.18.22.26.34l-.39.4c-.1-.15-.2-.29-.33-.42l.46-.32ZM13.26 19.8l-.36.41-.46-.47.3-.32.52.37Z" fill="#2189B4"/><path d="m10.78 20-.17.15-.92-.68c0-.01 0-.01 0 0l1.09.53Z" fill="#054F7C"/><path d="m28.52 19.8.1.1-1.2.89a1.47 1.47 0 0 0-.22-.34l1.32-.65Z" fill="#046490"/><path d="m26.82 19.84.24.31-.38.34a1.8 1.8 0 0 0-.3-.39l.44-.26ZM12.6 20.15l-.3.41-.41-.36.2-.35.5.3Z" fill="#1379A4"/><path d="m10.78 20 .92.46-.2.34-.89-.65.17-.15Z" fill="#046490"/><path d="M26.39 20.1c.11.12.2.25.29.39l-.15.13c-.08-.16-.18-.3-.3-.42l.16-.1ZM12.9 20.33l-.35.45-.24-.22.28-.4.3.17Z" fill="#2189B4"/><path d="m28.6 20.9-.11-.2 1.13-.45c.05-.02.05-.01.01.01l-1.03.65ZM10.42 20.71l-.14.18-1-.63c-.05-.02-.05-.02 0 0l1.14.45Z" fill="#054F7C"/><path d="m11.7 20.46.5.25-.27.41-.44-.32.2-.34ZM27.2 20.45c.1.1.17.22.23.34l-.31.23-.24-.4.32-.17Z" fill="#1379A4"/><path d="m26.88 20.62.24.4-.37.26-.3-.45.43-.21Z" fill="#2189B4"/><path d="m28.49 20.7.1.2-.71.46-.18-.33.79-.32ZM11.21 21.03l-.18.34-.75-.48.14-.18.8.32Z" fill="#046490"/><path d="m12.2 20.7.38.2-.27.5-.38-.28.28-.41Z" fill="#2189B4"/><path d="m27.7 21.03.18.33-.37.23-.21-.4.4-.16ZM11.21 21.03l.44.18-.23.4-.39-.24.18-.34Z" fill="#1379A4"/><path d="m29.13 21.53-.08-.17.96-.3c.03 0 .03 0 0 .01l-.88.46Z" fill="#054F7C"/><path d="m27.3 21.19.2.4-.5.32-.28-.49.58-.23ZM12.25 21.45l-.27.51-.56-.35.23-.4.6.24Z" fill="#2189B4"/><path d="m29.05 21.36.08.17-1.1.57-.16-.36 1.18-.38ZM10.02 21.42l.97.3-.16.36-.98-.5.17-.16Z" fill="#046490"/><path d="m11.56 21.9-.2.46-.53-.28.16-.36.57.18ZM27.87 21.74l.17.36-.4.2-.13-.45.36-.11Z" fill="#1379A4"/><path d="m27.5 21.85.15.45-.5.26-.21-.53.57-.18Z" fill="#2189B4"/><path d="m9.77 22.18-.13.19-1.08-.46c0-.01 0-.01 0 0l1.2.27ZM29.29 22.35c0-.04-.01-.1-.03-.14a.17.17 0 0 0-.04-.05l1.1-.25c.03-.01.03 0 0 0l-1.03.44Z" fill="#054F7C"/><path d="m11.56 21.9.42.13-.24.53-.38-.2.2-.46Z" fill="#2189B4"/><path d="m29.22 22.16.04.05.03.14-.94.4-.13-.36 1-.23ZM10.74 22.4l-.12.38-.98-.41.13-.2.97.23Z" fill="#046490"/><path d="m28.22 22.39.13.36-.46.2-.17-.45.5-.11ZM11.29 22.53l-.16.47-.51-.22.12-.38.55.13Z" fill="#1379A4"/><path d="m27.72 22.5.17.45-.17.07a2.2 2.2 0 0 1-.16-.48l.16-.04ZM11.63 22.6l-.2.53-.3-.13.16-.47.34.07Z" fill="#2189B4"/><path d="M9.93 23c-.07.08-.12.17-.16.26l-1.45-.48v-.01l1.6.23ZM29.53 23.12l-.04-.2 1.06-.15c.04 0 .04 0 0 .01l-1.02.34Z" fill="#054F7C"/><path d="m29.49 22.93.04.2-.87.29-.07-.36.9-.13ZM10.55 23.1a.9.9 0 0 0-.1.39l-.68-.23c.04-.1.1-.18.16-.26l.62.1Z" fill="#046490"/><path d="m28.59 23.06.07.36-.65.21-.1-.47.68-.1ZM10.87 23.15l-.12.44-.3-.1a.9.9 0 0 1 .1-.4l.32.06Z" fill="#1379A4"/><path d="m11.26 23.2-.14.51-.37-.12.12-.44.4.05ZM27.9 23.16l.11.47-.28.1-.14-.52.32-.05Z" fill="#2189B4"/><path d="m30.08 23.82.01-.13.67-.05v.01l-.68.17ZM9.43 23.74l-.14.2-1.13-.28c-.03-.01-.03-.01 0-.01l1.27.09Z" fill="#054F7C"/><path d="m30.1 23.7-.02.12-1.44.36-.08-.38 1.53-.1ZM10.53 23.81c-.04.14-.07.28-.07.42l-1.17-.29.14-.2 1.1.07Z" fill="#046490"/><path d="m28.56 23.8.08.38-.34.09-.1-.45.36-.02Z" fill="#1379A4"/><path d="m11.09 23.85-.1.51-.53-.13c0-.14.03-.28.07-.42l.56.04ZM28.2 23.82l.1.45-.42.1-.1-.52.43-.03ZM28.34 24.51l.01.46-.7.12c-.01-.2-.04-.4-.07-.58h.77Z" fill="#2189B4"/><path d="M10.69 24.51c-.04.16-.06.32-.04.47l-.33-.05.02-.41h.35Z" fill="#1379A4"/><path d="m11 24.51-.04.53-.31-.06c-.02-.15 0-.31.04-.47H11Z" fill="#2189B4"/><path d="M28.69 24.52v.39l-.34.06v-.46l.34.01Z" fill="#1379A4"/><path d="m10.34 24.52-.02.41-1-.17.08-.23.94-.01ZM29.53 24.53l.04.23-.87.15-.01-.39h.84Z" fill="#046490"/><path d="m9.4 24.53-.09.23-1.26-.21v-.01h.32l1.03-.01ZM29.57 24.76l-.04-.23h1.26c.1 0 .1 0 0 .03l-1.22.2Z" fill="#054F7C"/><path d="m11.35 25.14-.01.6-.73-.07v-.46l.74-.07ZM28.11 25.19v.26h-.38l.02-.29.36.03Z" fill="#2189B4"/><path d="M28.79 25.25v.2h-.69l.01-.26.68.06ZM10.6 25.2l.01.47-.44-.04.02-.39.41-.03Z" fill="#1379A4"/><path d="m10.19 25.24-.02.4-1.22-.11a.48.48 0 0 1-.04-.17l1.28-.12ZM29.8 25.34v.11h-1l-.01-.2 1.01.09Z" fill="#046490"/><path d="m11.07 25.83.07.54h-.83l-.05-.41.81-.13Z" fill="#2189B4"/><path d="m10.26 25.96.05.4H9.24l.02-.23 1-.17Z" fill="#046490"/><path d="m9.26 26.13-.02.22-1.19-.02 1.2-.2Z" fill="#054F7C"/><path d="m11.08 26.5.08.52-.15.02-.12-.5.19-.05Z" fill="#2189B4"/><path d="m10.9 26.54.1.5-.6.04-.07-.4.56-.14Z" fill="#1379A4"/><path d="m10.33 26.68.08.4-1.18.08a.34.34 0 0 1-.03-.2l1.13-.28Z" fill="#046490"/><path d="M9.2 26.96c-.01.07 0 .14.03.2a329.3 329.3 0 0 0-1.08.06l1.05-.26Z" fill="#054F7C"/><path d="m11 27.2.13.5-.64.1-.11-.38.62-.21Z" fill="#1379A4"/><path d="m10.38 27.42.11.37-.65.1a.78.78 0 0 1-.1-.26l.64-.21Z" fill="#046490"/><path d="M9.75 27.63c.01.09.04.18.09.26l-1.5.22c-.04 0-.04 0 0 0l1.4-.48Z" fill="#054F7C"/><path d="m11.48 27.73.17.54-.69.16-.17-.4.69-.3Z" fill="#2189B4"/><path d="m10.79 28.02.17.4-1.1.26-.08-.23 1-.43Z" fill="#046490"/><path d="m9.78 28.45.07.23-1.29.3 1.22-.53Z" fill="#054F7C"/><path d="m11.36 28.52.2.46-.29.09a2.29 2.29 0 0 1-.19-.4l.28-.15Z" fill="#2189B4"/><path d="M11.08 28.66c.05.14.11.28.19.4l-.41.14-.18-.33.4-.2Z" fill="#1379A4"/><path d="m10.68 28.87.18.33-.5.16-.1-.27.42-.22Z" fill="#046490"/><path d="m11.8 29.03.24.48-.42.17-.19-.41.37-.24Z" fill="#2189B4"/><path d="m10.25 29.1.1.26-1.46.46h-.01v-.01l1.37-.72Z" fill="#054F7C"/><path d="m11.43 29.27.19.41-.3.12-.22-.33.33-.2Z" fill="#1379A4"/><path d="m11.1 29.47.22.33-1.41.57-.1-.09 1.29-.8Z" fill="#046490"/><path d="m12.18 29.57.28.47-.33.17-.26-.41.3-.23Z" fill="#2189B4"/><path d="m11.87 29.8.26.4-.62.32-.17-.33.53-.4Z" fill="#1379A4"/><path d="m11.34 30.19.17.33-.4.2-.18-.22.41-.31Z" fill="#046490"/><path d="m12.44 30.2.3.44-.6.36-.23-.34.53-.46Z" fill="#2189B4"/><path d="m9.8 30.28.1.1-.64.26v-.02l.55-.34ZM10.93 30.5l.18.22-1.4.69c-.03.02-.04.02 0 0l1.22-.91Z" fill="#054F7C"/><path d="m11.9 30.66.23.34-.91.55-.14-.17.83-.72Z" fill="#046490"/><path d="m12.85 30.72.36.4-.4.28-.29-.35.33-.33Z" fill="#2189B4"/><path d="m12.52 31.05.3.35-.4.28-.22-.3.32-.33Z" fill="#1379A4"/><path d="m13.24 31.28.37.37-.46.38-.27-.32.36-.43Z" fill="#2189B4"/><path d="m11.08 31.38.14.17-1.02.62h-.01l.89-.79Z" fill="#054F7C"/><path d="m12.2 31.38.22.3-.79.56-.09-.19.66-.67Z" fill="#046490"/><path d="m12.88 31.7.27.33-.18.16-.29-.25.2-.23Z" fill="#1379A4"/><path d="m13.72 31.75.4.34-.36.34-.32-.3.28-.38Z" fill="#2189B4"/><path d="m12.97 32.19-.98.81-.12-.09.81-.97.29.25Z" fill="#046490"/><path d="m11.54 32.05.1.2-.89.62c-.01 0-.01 0 0 0l.8-.82Z" fill="#054F7C"/><path d="m14.72 32.41-.28.32-.37-.3.2-.32.45.3Z" fill="#2189B4"/><path d="m13.44 32.13.32.3-.23.23-.27-.27.18-.26Z" fill="#1379A4"/><path d="m13.26 32.4.27.26-.63.62-.13-.2.49-.69Z" fill="#046490"/><path d="m14.07 32.43.37.3-.33.38-.32-.2.28-.48ZM14.73 32.64l.44.27-.37.5a2.18 2.18 0 0 1-.34-.22l.27-.55Z" fill="#1379A4"/><path d="m15.93 32.96-.3.48-.4-.23.2-.48.5.23Z" fill="#2189B4"/><path d="m14.1 33.11-.57.66-.15-.17.4-.69.33.2Z" fill="#046490"/><path d="m12.77 33.07.13.21-.86.84c-.03.04-.04.03 0-.01l.73-1.04Z" fill="#054F7C"/><path d="M14.46 33.19c.1.08.22.15.34.21l-.43.58-.2-.18.3-.61Z" fill="#046490"/><path d="m15.23 33.21.4.23-.28.46-.34-.15.22-.54Z" fill="#1379A4"/><path d="m15.95 33.21.47.21-.26.5-.39-.16.18-.55ZM17.06 33.63l-.15.36a2.5 2.5 0 0 0-.43-.17l.08-.33.5.14Z" fill="#2189B4"/><path d="m13.53 33.77-.8.92c-.01.01-.01.01 0 0l.03-.07.62-1.02.15.17Z" fill="#054F7C"/><path d="m17.7 33.8-.12.37-.44-.08.06-.4.5.1Z" fill="#2189B4"/><path d="m15.35 33.9-.5.8-.19-.1.35-.85.34.15Z" fill="#046490"/><path d="m16.16 33.92-.13.25-.34-.15.08-.26.4.16Z" fill="#1379A4"/><path d="m14.16 33.8.21.18-.89 1.2c-.02.03-.02.03 0 0l.68-1.38Z" fill="#054F7C"/><path d="m16.9 34-.15.37-.36-.13.1-.42c.14.05.28.1.42.17Z" fill="#1379A4"/><path d="m18.37 33.91-.07.3-.46-.07.02-.28.5.05ZM19.45 33.9v.17h-.25l-.02-.17h.27ZM19.04 33.97l-.07.4c-.15-.03-.3-.03-.45 0v-.41h.52Z" fill="#2189B4"/><path d="m15.7 34.02.34.15-.4.74-.2-.12.25-.77Z" fill="#046490"/><path d="M19.45 34.07v.78h-.18l-.07-.78h.25ZM17.58 34.17l-.13.42-.37-.1.06-.4.44.08ZM17.84 34.14l.46.07-.11.44-.39-.06.04-.45Z" fill="#1379A4"/><path d="m16.75 34.37-.34.8-.22-.09.2-.84.36.13Z" fill="#046490"/><path d="m18.97 34.38-.06.37h-.38v-.38c.14-.03.29-.03.44 0Z" fill="#1379A4"/><path d="m17.44 34.59-.26.8-.22-.09.12-.8.36.09ZM18.19 34.65 17.85 36l-.14-.06.1-1.34.38.06Z" fill="#046490"/><path d="m14.66 34.6.19.1-.59.93h-.01l.41-1.03Z" fill="#054F7C"/><path d="m18.9 34.75-.14.88-.23-.03v-.84h.38Z" fill="#046490"/><path d="m15.45 34.79.2.12-.57 1.1h-.01V36l.38-1.21Z" fill="#054F7C"/><path d="M19.45 34.85v2.02c0 .01 0 .01 0 0l-.18-2.03.18.01Z" fill="#046490"/><path d="m16.2 35.08.21.08-.48 1.13c-.02.05-.02.05-.01 0l.27-1.21ZM17.18 35.39l-.4 1.17v-.01l.18-1.25.22.09ZM18.76 35.63l-.2 1.2v.01h-.01l-.02-1.24.23.03ZM17.85 36l-.19.73.05-.8.14.06Z" fill="#054F7C"/></svg>