<!-- by TradeStack --><svg width="56" height="56" viewBox="0 0 56 56" xmlns="http://www.w3.org/2000/svg"><path fill="#F0F3FA" d="M0 0h56v56H0z"/><path d="M41.43 26.96C42.81 25.9 44 24.72 44 22.73c0-1.21-.6-3.37-4.49-3.6v1.19c1.37.59 1.5 1.88 1.5 3.18 0 1.85-.63 3.5-2.5 3.5-.23 0-1.5-.08-1.5-.5v-5.97c0-.53.46-.48.63-.53H38c.14.46.4.85.4 1.33 0 .5.03.7.27.7.2 0 .3-.24.33-.74V16.5c0-.2.05-.57-.33-.6-1.1-.06-2.2-.27-3.5-.5-1.7-.3-3.62-.4-4.99-.4-6.12 0-10.8 2.39-13.18 8 0 0-3.34-3.32-3.5-3.5-.42-.43-.9-.82-1.17-.82-.25 0-.33.34-.33.82V34c0 2 0 3.4-.47 3.45-.36.1-.8.12-1.13.12-.25 0-.4.04-.4.19 0 .22.23.24.55.24h5.82c.35 0 .58-.05.58-.24 0-.15-.15-.2-.43-.2-.4 0-.87-.02-1.3-.16C14.72 37.23 14 36 14 34V24c.2.21 1.04.88 2 1.88V28c0 8.78 7.47 13 15.5 13 2.2 0 4.67-.23 6.04-.76.62-.27.68-.33.89-.96.34-1.13.76-4.02.76-4.25 0-.27-.07-.5-.24-.5-.2 0-.28.13-.35.5-.04.26-.15.68-.32 1.13a4.2 4.2 0 0 1-.23-.08C37.25 35.77 37 35.6 37 34v-5.5c0-.5.4-.52.5-.52.37 0 .54-.03 1 0 2.63.13 4.5 2.4 4.5 5.02a3.2 3.2 0 0 1-3.12 3.38h-.39l-.18 1.1c4.6 0 6.69-2.9 6.69-5.48 0-2.83-2.5-4.35-4.56-5.03Zm-16.42-7.98c-.37 0-.65.14-.65.33 0 .15.34.19.64.19 1.53 0 1.97 1.04 2 2.5v10.5s-4.95-4.8-7.47-7.27c-.07.68-.03 1.54-.03 2.27 0 .77.01 1.36.15 2.1 2.59 2.5 5.2 4.97 7.85 7.4.28.27.86.68 1.13.68.23 0 .33-.15.33-.68V21.66c.03-1.35.3-1.94 1-2.13.17-.04 2.9-.03 3.04 0 .83.17 1 .65 1.06 1.47L34 35.5c0 1-.17 1.4-.67 1.5-.23.05-.53.1-.9.1-.3 0-.4.07-.4.2 0 .16.17.23.5.23h5.16c-1.26 1.84-4.25 1.97-6.19 1.97-7.35 0-12.5-5.66-12.5-12 0-7.25 3.86-11 11-11 2.29 0 6.29.17 7.63 2.5l-12.62-.02Z" fill="#1C3A6A"/></svg>