<?xml version='1.0' encoding='utf-8'?>
<!-- by TradeStack -->
<svg width="56" height="56" viewBox="0 0 56 56" xmlns="http://www.w3.org/2000/svg"><path fill="#F0F3FA" d="M0 0h56v56H0z" /><path d="M11.35 22.7h-.01v2.81c0 .1.02.18.06.23.04.04.1.07.21.07h.19V26h-1.09v-.2h.15c.08 0 .15-.02.19-.06.04-.05.06-.13.06-.23v-3c0-.09 0-.16-.03-.2-.01-.04-.05-.07-.1-.09a1.27 1.27 0 0 0-.27-.03V22h1.19l1.68 2.9h.02v-2.43c0-.18-.1-.28-.28-.28h-.19V22h1.08v.2h-.14c-.16 0-.24.09-.24.27V26h-.55l-1.93-3.3Zm4.4 3.3c-.45 0-.79-.12-1-.35-.23-.23-.34-.66-.34-1.14 0-.48.11-.93.33-1.16.23-.23.57-.35 1.03-.35.45 0 .78.11 1 .34.22.23.33.68.33 1.16 0 .48-.11.92-.33 1.15-.22.23-.56.35-1.01.35Zm.01-.2c.19 0 .32-.1.4-.28.09-.18.12-.55.12-.94 0-.45-.03-.87-.12-1.07-.08-.2-.22-.3-.4-.3-.2 0-.33.1-.42.3-.08.2-.12.6-.12 1 0 .43.04.82.12 1 .09.2.23.28.42.28Zm3.54-2.7c-.08-.08-.2-.1-.35-.1-.29 0-.52.16-.68.52h-.02V23h-.23l-.85.14v.19h.17c.07 0 .11.02.13.05.02.02.03.08.03.17v1.98c0 .08 0 .14-.03.18-.01.04-.04.06-.09.08a.81.81 0 0 1-.23.02V26h1.57v-.19c-.12 0-.25 0-.3-.02a.18.18 0 0 1-.12-.08.45.45 0 0 1-.03-.18v-1.37c0-.13.03-.26.08-.4s.1-.26.17-.35c.07-.1.13-.14.2-.14l.04.01.01.03c0 .01-.01.04-.05.08-.03.04-.04.1-.04.17 0 .11.03.2.1.25.06.07.15.1.26.1.13 0 .23-.05.3-.13a.5.5 0 0 0 .09-.31.5.5 0 0 0-.13-.36Zm1.42 2.9c-.24 0-.42-.07-.54-.2-.12-.13-.18-.35-.18-.64v-1.7h-.33v-.19c.21-.04.4-.15.57-.35.16-.2.28-.42.35-.68h.18v1.01h.53v.2h-.53v1.68c0 .18.02.32.07.4.05.09.13.13.23.13a.4.4 0 0 0 .16-.03l.15-.08.1.16-.14.1a.93.93 0 0 1-.28.13c-.1.04-.22.06-.34.06Zm3.78-.3a.55.55 0 0 1-.02-.17v-1.38c0-.3-.07-.52-.2-.67a.75.75 0 0 0-.59-.22c-.31 0-.65.13-.91.39h-.01V22h-.24l-.87.14v.2h.18c.06 0 .1 0 .12.04.03.02.04.08.04.17v2.98c0 .08-.01.14-.03.18-.02.04-.05.06-.1.08a.81.81 0 0 1-.22.02V26h1.42v-.19a.6.6 0 0 1-.2-.02.14.14 0 0 1-.08-.07.53.53 0 0 1-.02-.18v-1.65c.08-.1.16-.17.24-.21.07-.05.2-.07.3-.07.13 0 .23.04.3.14.06.09.1.24.1.44v1.37l-.02.16c-.01.04-.04.06-.08.07a.69.69 0 0 1-.18.02V26h1.38v-.19c-.1 0-.18 0-.22-.02a.13.13 0 0 1-.09-.08Zm4.76-.17.09.19c.02.03.06.06.11.07.05.02.12.02.22.02V26h-1.63v-.19h.26c.1 0 .15-.04.15-.13a.4.4 0 0 0-.02-.1l-.31-1.08h-1.12l-.3 1.09a.38.38 0 0 0-.02.1c0 .04 0 .07.03.1l.12.02h.23V26h-1.13v-.19c.15 0 .26-.02.32-.05.06-.05.11-.13.16-.26l1.2-3.5h.51l1.13 3.53Zm-1.2-1.25-.48-1.47h-.02l-.48 1.47h.98Zm2.13 1.52c.12.13.3.2.54.2.12 0 .23-.02.34-.06.11-.03.2-.07.27-.13l.14-.1-.1-.16-.14.08a.4.4 0 0 1-.16.03c-.1 0-.18-.04-.23-.13a.89.89 0 0 1-.07-.4v-1.67h.53v-.2h-.53v-1.02h-.18a1.7 1.7 0 0 1-.35.68.97.97 0 0 1-.57.35v.19H30v1.7c0 .3.07.5.19.64Zm1.46.01c.11 0 .19 0 .24-.02.04-.02.07-.04.09-.07l.02-.2v-2.97c0-.09-.01-.15-.03-.17-.02-.03-.06-.05-.13-.05h-.18v-.19l.88-.14h.23v3.53c0 .08 0 .14.02.18.02.04.05.06.09.08l.2.02V26h-1.43v-.19Zm3.59.19c.25 0 .47-.07.65-.19l-.06-.16-.07.03a.28.28 0 0 1-.12.02.13.13 0 0 1-.12-.06.74.74 0 0 1-.03-.28v-1.44c0-.31-.07-.54-.22-.68-.14-.15-.36-.24-.67-.24-.28 0-.5.05-.68.12a.93.93 0 0 0-.4.26.54.54 0 0 0-.13.34c0 .1.03.18.1.25s.16.1.27.1c.12 0 .2-.03.28-.1a.36.36 0 0 0 .08-.37.45.45 0 0 0-.06-.1c-.04-.04-.06-.08-.06-.11 0-.04.03-.08.1-.1a.5.5 0 0 1 .22-.05c.15 0 .26.04.31.12.06.08.1.2.1.37v.6a3 3 0 0 0-1.1.41c-.27.18-.4.4-.4.65 0 .2.06.35.2.45.12.1.3.16.55.16.28 0 .54-.1.76-.28.03.08.08.15.16.2.09.05.2.08.34.08Zm-1.17-.44c-.05-.06-.08-.16-.08-.3 0-.17.06-.3.18-.42.12-.1.3-.2.56-.27v.92c-.15.1-.27.16-.39.16s-.2-.03-.27-.09Zm4.71-.03.02.18c.02.04.05.06.1.08l.21.02V26h-1.38v-.19c.09 0 .15 0 .18-.02.04 0 .07-.03.08-.06l.01-.13v-1.67c0-.39-.12-.58-.38-.58a.4.4 0 0 0-.23.07l-.04.02c-.06.03-.13.07-.2.15v1.95c0 .08 0 .14.02.18.01.04.04.06.08.07.04.02.1.02.2.02V26H36v-.19c.1 0 .2 0 .25-.02.05-.02.08-.04.1-.08l.02-.18v-1.98c0-.09 0-.15-.03-.17-.02-.03-.06-.05-.12-.05H36v-.19l.89-.14h.23v.38h.02c.12-.12.24-.18.37-.25l.02-.02A.9.9 0 0 1 38 23c.25 0 .44.07.58.22.13.15.2.37.2.67v1.64Zm.94.27c.12.13.3.2.54.2.12 0 .24-.02.34-.06.11-.03.2-.07.28-.13l.13-.1-.09-.16-.15.08a.4.4 0 0 1-.15.03c-.11 0-.2-.04-.24-.13a.89.89 0 0 1-.07-.4v-1.67h.53v-.2h-.53v-1.02h-.18a1.7 1.7 0 0 1-.35.68.97.97 0 0 1-.57.35v.19h.33v1.7c0 .3.06.5.18.64Zm2.18-2.9a.44.44 0 0 1-.32-.13.44.44 0 0 1-.13-.31c0-.13.04-.24.13-.32a.43.43 0 0 1 .63 0c.1.08.14.2.14.32s-.05.23-.14.31a.44.44 0 0 1-.31.14Zm-.72 2.91c.1 0 .18 0 .23-.02.05-.02.08-.04.1-.08l.02-.18v-1.76c0-.09 0-.14-.03-.17-.02-.03-.06-.04-.13-.04h-.18v-.2l.87-.13h.24v2.3l.02.18c.02.04.05.06.1.08l.2.02V26h-1.44v-.19Zm2.1-.16c.2.23.52.34.91.34.33 0 .57-.07.73-.2.16-.15.28-.34.37-.59l-.17-.09c-.08.17-.17.3-.27.4-.1.09-.24.13-.43.13-.23 0-.4-.09-.5-.27-.1-.18-.16-.56-.16-1 0-.4.04-.79.12-.94a.42.42 0 0 1 .4-.22c.1 0 .18.02.23.06.06.04.09.1.09.16 0 .04-.02.08-.04.13a.52.52 0 0 0-.05.2c0 .1.03.19.1.25.06.06.15.08.26.08.12 0 .21-.03.27-.1.07-.07.1-.17.1-.29 0-.2-.09-.37-.26-.5s-.41-.2-.73-.2c-.4 0-.73.12-.96.36-.22.25-.36.68-.36 1.15 0 .45.13.9.34 1.14Zm-39.09 5.2H4V32h.22l.01-.04c.01-.04.03-.1.05-.11a.19.19 0 0 1 .1-.03l.2.05a1.94 1.94 0 0 0 .63.13c.25 0 .47-.06.66-.16.2-.1.34-.23.45-.41.1-.19.16-.4.16-.65a1 1 0 0 0-.22-.67c-.3-.37-.67-.54-1.06-.73-.09-.03-.17-.07-.26-.12a.85.85 0 0 1-.23-.19.49.49 0 0 1-.1-.31c0-.17.06-.3.18-.4.12-.11.27-.17.46-.17.22 0 .4.08.55.23.16.15.26.35.32.62h.18L6.25 28H6.1c-.01.05-.03.12-.05.14-.02.02-.04.02-.08.02a.6.6 0 0 1-.22-.05 1.7 1.7 0 0 0-.51-.11c-.48 0-.85.2-1.06.54-.1.17-.14.36-.14.58a1 1 0 0 0 .24.7c.2.22.47.36.73.49s.51.25.7.46c.1.1.15.24.15.4 0 .21-.06.37-.2.48a.72.72 0 0 1-.47.15.82.82 0 0 1-.48-.14c-.14-.1-.26-.22-.35-.37-.08-.15-.14-.3-.17-.44Zm6.92.86a.54.54 0 0 1-.02-.18v-1.65c0-.3-.07-.52-.22-.67-.14-.14-.34-.21-.6-.21-.2 0-.37.03-.52.1a.89.89 0 0 0-.35.34.65.65 0 0 0-.28-.32.85.85 0 0 0-.47-.12c-.33 0-.62.13-.87.39h-.01V29h-.24l-.85.17v.18h.18c.06 0 .1.02.12.05.02.02.02.06.02.12v2.07l-.01.12c-.01.04-.05.07-.1.08a.82.82 0 0 1-.22.02V32h1.42v-.19l-.2-.01a.13.13 0 0 1-.08-.08.54.54 0 0 1-.02-.18V29.6c.08-.1.16-.16.23-.2a.49.49 0 0 1 .25-.06c.13 0 .23.04.3.14.06.09.1.23.1.43v1.65c0 .08 0 .14-.02.17-.01.03-.04.06-.08.07a.7.7 0 0 1-.18.01V32h1.34v-.19a.6.6 0 0 1-.2-.02.13.13 0 0 1-.07-.08.71.71 0 0 1-.02-.18V29.7c.1-.24.26-.36.47-.36.27 0 .4.19.4.57v1.65a.5.5 0 0 1-.01.17c-.01.03-.04.06-.08.07a.77.77 0 0 1-.19.01V32h1.38v-.19c-.1 0-.17 0-.21-.02a.13.13 0 0 1-.09-.08Zm3.32.11c-.18.12-.4.18-.65.18a.65.65 0 0 1-.33-.07.34.34 0 0 1-.16-.2c-.23.18-.48.27-.77.27a.89.89 0 0 1-.55-.15c-.13-.1-.2-.25-.2-.44 0-.25.13-.47.4-.64.26-.18.63-.31 1.1-.47v-.6c0-.16-.03-.28-.1-.36-.05-.08-.15-.12-.3-.12a.5.5 0 0 0-.23.05c-.06.03-.1.06-.1.1 0 .03.03.07.06.11l.06.1c.02.02.03.06.03.11 0 .1-.04.18-.1.25a.37.37 0 0 1-.28.1.38.38 0 0 1-.28-.1.35.35 0 0 1-.1-.24c0-.12.05-.23.13-.33.09-.11.22-.2.4-.26.18-.07.41-.11.68-.11.31 0 .54.07.68.22.14.14.18.37.18.68v1.48c0 .13.04.21.07.26.02.05.06.08.12.08.05 0 .09-.01.12-.03l.06-.03.06.16Zm-1.9-.54c0 .13.04.23.09.3.06.06.15.09.27.09.11 0 .24-.06.38-.17v-.9a1.4 1.4 0 0 0-.56.27.54.54 0 0 0-.17.4Zm2.37.51a.85.85 0 0 1-.23.02V32h1.43v-.19c-.1 0-.16 0-.2-.02a.13.13 0 0 1-.1-.08.54.54 0 0 1-.02-.18V28h-.23l-.87.14v.19h.18c.06 0 .1.01.12.04.02.02.02.07.02.15V31.72c-.02.03-.05.06-.1.07Zm1.35.02c.1 0 .18 0 .23-.02.05-.01.08-.04.1-.07l.01-.19v-2.99c0-.08 0-.14-.03-.17-.02-.03-.06-.04-.12-.04h-.18v-.19l.87-.14h.23v3.53c0 .09.01.15.03.18.01.04.04.07.08.08.05.02.12.02.2.02V32h-1.42v-.19Zm2.5-1.41h1.63v-.05c0-.9-.4-1.35-1.2-1.35-.4 0-.7.11-.92.34-.2.24-.33.7-.33 1.16 0 .46.12.93.33 1.16.2.23.5.34.91.34.34 0 .6-.07.76-.2.17-.15.3-.34.4-.57l-.19-.1c-.15.35-.39.52-.73.52a.56.56 0 0 1-.5-.27c-.1-.16-.14-.62-.15-.98Zm.79-.78c.02.14.03.33.03.58h-.81c0-.37.04-.63.1-.78.08-.15.18-.22.32-.22.1 0 .19.03.25.1.05.07.1.18.11.32Zm2.9-.62c.15 0 .27.04.35.13.09.1.13.21.13.36 0 .12-.03.23-.1.3-.06.09-.16.13-.3.13-.1 0-.19-.03-.25-.09a.32.32 0 0 1-.1-.25c0-.07.01-.13.04-.16l.05-.08-.01-.03a.06.06 0 0 0-.05-.02c-.06 0-.12.05-.2.14-.06.1-.11.2-.16.35-.05.13-.07.27-.07.4v1.35c0 .09 0 .15.02.18.02.04.06.07.11.08.06.02.15.02.28.02V32h-1.54v-.19c.1 0 .18 0 .23-.02.05-.01.08-.04.1-.08.01-.03.03-.1.03-.18v-1.96c0-.09-.02-.14-.04-.17s-.06-.05-.13-.05h-.18v-.18l.86-.17h.23v.54h.02c.16-.36.39-.54.68-.54Zm2.5 2.52c.32.32.78.48 1.36.48.4 0 .7-.09.92-.27.22-.18.37-.4.46-.69l-.16-.07c-.08.24-.2.43-.38.6-.18.15-.41.23-.7.23a.89.89 0 0 1-.83-.47 2.74 2.74 0 0 1-.27-1.3c0-.44.08-.91.23-1.27.16-.36.45-.54.86-.54.28 0 .51.09.69.26.17.17.28.4.33.67h.18L27.58 28h-.15l-.02.14c-.03.06-.07.09-.14.09a.52.52 0 0 1-.19-.06c-.1-.05-.21-.08-.33-.1a1.84 1.84 0 0 0-1.8.47c-.33.33-.5.9-.5 1.52 0 .6.17 1.13.49 1.46Zm4.29.48c-.46 0-.8-.11-1.02-.34-.22-.22-.33-.63-.33-1.1 0-.47.11-1 .33-1.22.23-.23.57-.34 1.03-.34.45 0 .78.11 1 .33.22.23.33.75.33 1.22 0 .48-.11.89-.33 1.11-.22.23-.56.34-1.01.34Zm0-.2c.19 0 .32-.09.4-.27.09-.18.13-.52.13-.9 0-.44-.04-.93-.13-1.13-.08-.2-.22-.3-.4-.3-.2 0-.33.1-.42.3-.08.2-.12.66-.12 1.07 0 .41.04.77.12.96.09.18.23.27.42.27Zm6.11-.09a.54.54 0 0 1-.02-.18V29.9c0-.3-.07-.52-.22-.66a.8.8 0 0 0-.6-.23c-.2 0-.37.05-.52.12a.88.88 0 0 0-.35.34.65.65 0 0 0-.27-.32.85.85 0 0 0-.48-.14c-.33 0-.63.14-.88.4V29h-.24l-.85.19v.18h.18c.07 0 .1.02.13.05.02.02.03.08.03.16v1.95c0 .09-.01.15-.03.18-.01.04-.04.07-.1.08a.83.83 0 0 1-.22.02V32h1.42v-.19l-.2-.01a.13.13 0 0 1-.08-.08.44.44 0 0 1-.04-.18v-1.92c.08-.1.18-.16.25-.2a.49.49 0 0 1 .25-.07c.13 0 .23.05.3.15.06.09.1.23.1.43v1.63c0 .08 0 .14-.02.17-.01.03-.04.06-.08.07a.7.7 0 0 1-.18.01V32h1.34v-.19a.6.6 0 0 1-.2-.02.13.13 0 0 1-.07-.08.7.7 0 0 1-.02-.18v-1.81c.1-.24.26-.37.47-.37.27 0 .41.2.41.58v1.63a.5.5 0 0 1-.02.17c-.01.03-.04.06-.08.07a.77.77 0 0 1-.19.01V32h1.39v-.19c-.1 0-.17 0-.22-.02a.13.13 0 0 1-.09-.08ZM37.8 29c.32 0 .58.12.76.35.19.22.28.54.28.97 0 .47-.12.83-.35 1.09-.24.25-.56.37-.99.37-.17 0-.34-.03-.5-.09v.84c0 .09.02.15.04.18.01.04.05.07.1.08.04.02.12.02.23.02V33H35.9v-.19c.1 0 .19 0 .23-.02.05 0 .08-.03.1-.07l.02-.19v-2.97c0-.08-.01-.13-.04-.15-.02-.03-.07-.04-.15-.04h-.15v-.19l.85-.18H37v.34c.22-.22.48-.34.8-.34Zm-.34 2.58c.2 0 .34-.09.43-.27.1-.18.14-.48.14-.88 0-.35-.05-.63-.14-.82-.09-.19-.22-.28-.4-.28-.17 0-.34.08-.49.26v1.75c.14.16.3.24.46.24Zm3.72.42c.26 0 .47-.06.65-.18l-.06-.16-.06.03a.28.28 0 0 1-.12.02.13.13 0 0 1-.12-.06.73.73 0 0 1-.03-.27V29.9c0-.31-.07-.54-.22-.68-.14-.15-.37-.22-.68-.22-.27 0-.5.04-.68.1a.93.93 0 0 0-.4.27.53.53 0 0 0-.12.33c0 .09.03.17.1.24.06.07.16.1.27.1.11 0 .2-.03.27-.1s.1-.15.1-.25c0-.05 0-.09-.02-.11a.45.45 0 0 0-.06-.1l-.05-.1c0-.05.03-.08.1-.11a.5.5 0 0 1 .22-.05c.15 0 .25.04.31.12.06.08.09.2.1.36v.67c-.48.09-.85.22-1.11.4-.26.17-.4.38-.4.63 0 .2.07.35.2.45.13.1.31.15.55.15.29 0 .54-.1.77-.28.02.1.08.16.16.2.08.06.2.08.33.08Zm-1.16-.43c-.05-.06-.08-.16-.08-.3 0-.16.06-.3.17-.4.12-.11.3-.2.56-.27v.9a.66.66 0 0 1-.38.16c-.12 0-.21-.03-.27-.09Zm4.74-.04c0 .09 0 .15.02.18.01.04.04.07.09.08a.8.8 0 0 0 .22.02V32H43.7v-.19a.7.7 0 0 0 .19-.01c.04-.01.06-.04.07-.07a.41.41 0 0 0 .04-.17v-1.64c0-.38-.15-.57-.41-.57-.1 0-.26.02-.34.07-.07.04-.16.1-.25.2v1.92c0 .09.02.15.03.18.02.04.05.07.09.08l.19.01V32h-1.42v-.19c.1 0 .18 0 .23-.02.05-.01.08-.04.1-.08l.02-.18v-1.95c0-.09-.01-.14-.03-.17-.02-.03-.06-.05-.13-.05h-.18v-.18l.86-.18H43v.41c.13-.12.26-.22.4-.3.14-.07.39-.11.57-.11.25 0 .44.08.58.22.14.15.2.37.2.67v1.64Zm.99-2.77a.44.44 0 0 0 .63 0c.09-.08.13-.19.13-.31a.42.42 0 0 0-.13-.32.43.43 0 0 0-.63 0 .43.43 0 0 0-.13.32c0 .12.04.23.13.31Zm-.17 3.03a.82.82 0 0 1-.23.02V32h1.43v-.19c-.1 0-.16 0-.2-.02a.13.13 0 0 1-.1-.08.54.54 0 0 1-.01-.18v-2.32h-.24l-.87.14v.18h.18c.06 0 .1.02.12.05.03.02.04.08.04.17v1.78c0 .09-.01.15-.03.18-.02.04-.05.07-.1.08Zm3.97-1.38h-1.62c0 .35.06.84.16 1 .1.16.26.24.49.24.34 0 .58-.17.73-.52l.18.1c-.09.23-.22.42-.4.56-.16.14-.41.21-.75.21-.4 0-.7-.11-.91-.34-.21-.23-.31-.81-.31-1.27 0-.46.1-.8.31-1.04.21-.23.52-.35.92-.35.8 0 1.2.45 1.2 1.36v.05Zm-.81-.2c0-.25-.01-.44-.03-.58a.63.63 0 0 0-.12-.32.3.3 0 0 0-.24-.1c-.14 0-.25.07-.32.22-.06.15-.1.4-.1.77h.8Zm1.72 1.7c.16.06.32.09.5.09.32 0 .58-.08.76-.25a.86.86 0 0 0 .28-.67c0-.66-.37-.83-.8-1.02a2.99 2.99 0 0 1-.52-.28.3.3 0 0 1-.12-.24c0-.1.04-.18.12-.25a.6.6 0 0 1 .75.07c.12.12.2.28.26.47h.16L51.8 29h-.14l-.03.1-.09.01a5.47 5.47 0 0 0-.3-.08 1.14 1.14 0 0 0-.3-.03c-.3 0-.54.08-.71.23a.77.77 0 0 0-.27.62c0 .19.06.35.17.47.19.22.42.35.65.47.18.1.37.2.53.35.06.06.1.14.1.25 0 .26-.2.4-.5.4a.73.73 0 0 1-.52-.2 1.1 1.1 0 0 1-.27-.59H50v1h.13l.03-.03c.03-.05.07-.11.12-.11.04 0 .1.01.18.04Z" fill="#221C35" /></svg>