<!-- by TradeStack --><svg width="56" height="56" viewBox="0 0 56 56" fill="none" xmlns="http://www.w3.org/2000/svg">
<rect width="56" height="56" fill="#F0F3FA"/>
<path d="M20.6483 30.7984C20.6366 30.7997 20.6257 30.8046 20.6167 30.8123C20.6078 30.8201 20.6013 30.8305 20.5979 30.8422C20.5946 30.854 20.5945 30.8666 20.5978 30.8787C20.6011 30.8907 20.6076 30.9016 20.6165 30.9101L30.379 39.873C30.4427 39.9311 30.4657 40.0028 30.448 40.0881L29.1876 45.8301C29.1681 45.9191 29.115 45.9662 29.0284 45.9717C20.3113 46.4345 14.9814 41.4222 15 32.3912V16.7197C14.9894 15.676 14.4212 14.7648 14.3222 13.9861C14.3151 13.919 14.2983 13.8554 14.2718 13.7956L14.0223 13.1857C13.9692 13.0586 14.0108 12.9969 14.147 13.0005L22.4103 13L41.8239 13C41.9476 12.9974 42.0319 13.2205 41.9805 13.3218C41.7417 13.8101 41.0177 14.3447 41 14.9873V20.6566C41.0159 21.2755 40.8956 21.3046 40.6391 20.7437L38.9249 17.0273C38.8612 16.8876 38.7984 16.8885 38.7365 17.03L34.11 29.2846C34.0781 29.3627 34.0206 29.4063 33.9375 29.4153L27.3035 30.0769C27.2896 30.0787 27.2764 30.0844 27.2655 30.0936C27.2546 30.1027 27.2465 30.1148 27.242 30.1285C27.2376 30.1422 27.237 30.1569 27.2404 30.1709C27.2437 30.1849 27.2509 30.1976 27.2611 30.2076L30.586 33.374C30.655 33.4394 30.7355 33.4675 30.8275 33.4584L36.3708 32.9112C36.477 32.9003 36.5513 32.8458 36.5937 32.7478L40.7718 21.8056C40.8443 21.6404 40.9982 21.624 41 21.8056V32.3912C40.8673 38.3292 38.9846 43.0449 33.4333 45.1113C33.3024 45.1603 33.2502 45.115 33.2767 44.9752L34.4841 38.803C34.5054 38.6977 34.4771 38.6097 34.3992 38.5389L25.507 30.3383C25.4363 30.273 25.3549 30.2457 25.2629 30.2566L20.6483 30.7984Z" fill="#00283C"/>
</svg>
