<?xml version='1.0' encoding='utf-8'?>
<!-- by TradeStack -->
<svg width="56" height="56" viewBox="0 0 56 56" xmlns="http://www.w3.org/2000/svg"><path fill="#F0F3FA" d="M0 0h56v56H0z" /><path d="M6 32v-8h1l3 6v-6h1v8h-1l-3-6v6H6ZM14.02 32c-1.24 0-2.02-.63-2.02-1.76 0-1.14.8-1.78 2.5-1.78H16v-.32c0-.88-.47-1.3-1.41-1.3-.86 0-1.37.46-1.4 1.16h-1.01c.1-1.24.93-2 2.44-2 1.6 0 2.38.7 2.38 2.12V32h-1v-.91c-.5.59-1.1.91-1.98.91Zm.16-.84c.8 0 1.46-.38 1.82-1.08v-.81h-1.46c-1.06 0-1.54.3-1.54.95 0 .6.41.94 1.18.94ZM40.02 32c-1.24 0-2.02-.63-2.02-1.76 0-1.14.8-1.78 2.5-1.78H42v-.32c0-.88-.47-1.3-1.41-1.3-.86 0-1.37.46-1.4 1.16h-1.01c.1-1.24.93-2 2.44-2 1.6 0 2.38.7 2.38 2.12V32h-1v-.91c-.5.59-1.1.91-1.98.91Zm.16-.84c.8 0 1.46-.38 1.82-1.08v-.81h-1.46c-1.06 0-1.54.3-1.54.95 0 .6.41.94 1.18.94ZM19.75 32l-2.38-6h1.24l1.78 4.72L22.18 26h1.2L21 32h-1.25ZM24 25v-1h1v1h-1ZM24 26v6h1v-6h-1ZM28.15 32c-1.36 0-2.15-.9-2.15-2.6v-.8c0-1.7.8-2.6 2.15-2.6.78 0 1.38.3 1.85.97V23h1v9h-1v-1.14c-.5.79-1 1.14-1.85 1.14Zm.12-1.04c.75 0 1.35-.42 1.73-1.31v-1.3c-.38-.9-.98-1.35-1.73-1.35-.8 0-1.27.53-1.27 1.64v.72c0 1.11.47 1.6 1.27 1.6ZM34.57 32C32.9 32 32 31.14 32 29.57v-1.14c0-1.57.88-2.43 2.5-2.43s2.5.59 2.5 2.17V29h-4v.52c0 1.12.5 1.64 1.55 1.64.89 0 2.06-.19 2.45-.3v.86c-.67.18-1 .28-2.43.28ZM33 28h3c0-.5-.45-1-1.48-1-1.04 0-1.52.5-1.52 1Z" fill="#01567B" /><path d="M42.83 21 39 23h11l-7.17-2Z" fill="#00B5D2" /><path d="M52 24H40c3.23.16 3.84 2.73 3.74 4L52 24Z" fill="#01567B" /></svg>