<!-- by TradeStack --><svg viewBox="0 0 56 56" fill="none" xmlns="http://www.w3.org/2000/svg">
<rect width="56" height="56" fill="#13395E"/>
<path d="M10.7029 24.423C14.4495 28.1894 18.0562 31.9799 21.9942 35.5515C22.2295 35.7759 22.4863 36 22.7219 36C22.9146 36 23 35.8165 23 35.3681V22.0992C23.0212 20.9579 23.3736 20.5298 23.9727 20.3669C24.2295 20.3057 24.4009 20.3057 24.6148 20.3057C24.8716 20.3057 25 20.2446 25 20.1223C25 19.9591 24.7861 20 24.5079 20C23.459 20 22.6457 20 22.4104 20C21.9609 20 20.6694 20 19.5564 20C19.2353 20 19 19.9591 19 20.1223C19 20.2446 19.0854 20.3057 19.3422 20.3057C19.6421 20.3057 20.4199 20.3057 20.741 20.428C21.2547 20.6316 21.4472 21.019 21.4685 22.2624L21.5 31.8216H21.3931C17.4427 28.2838 13.7581 24.4384 10.0701 20.6319C9.70632 20.2651 9.51367 20 9.27805 20C9.06419 20 9 20.2855 9 20.6931V33.065C8.97855 34.8382 8.86205 35.3681 8.30564 35.5313C8.00613 35.6127 7.62084 35.6332 7.34255 35.6332C7.12838 35.6332 7 35.6738 7 35.7961C7 35.9796 7.19265 36 7.47093 36C8.584 36 9.58982 36 9.78247 36C10.1892 36 11.1164 36 12.5079 36C12.8074 36 13 35.9593 13 35.7961C13 35.6738 12.8716 35.6332 12.6362 35.6332C12.2937 35.6332 11.8869 35.6127 11.5232 35.4904C11.0952 35.3479 10.7456 34.8789 10.7029 33.2891V24.423Z" fill="#F0F3FA"/>
<path d="M36 29.8235C36 31.7629 36 33.4283 35.8867 34.3137C35.7958 34.9249 35.6335 35.452 35.1799 35.5362C34.9757 35.5785 34.7034 35.6206 34.3631 35.6206C34.0908 35.6206 34 35.6838 34 35.7892C34 35.9368 34.1589 36 34.4537 36C36.5036 36 38.8943 36 40.9425 36C45.1171 36 47 33.6601 47 31.4046C47 28.9382 44.7314 27.4413 42.871 26.8513C44.1189 25.9235 45 24.8905 45 23.1621C45 22.0447 44.4592 20 40.3526 20C39.5811 20 38.6964 20 37.5846 20C37.1309 20 35.7016 20 34.4992 20C34.159 20 34 20.0421 34 20.1897C34 20.3372 34.1361 20.3795 34.3856 20.3795C34.7034 20.3795 34.7976 20.4004 34.979 20.4427C35.7277 20.5901 35.9094 20.9274 35.9547 21.6443C36 22.3188 36 22.9091 36 26.1132V29.8235ZM39.0139 21.4006C39.0139 21.1686 39.0594 21.0844 39.2181 21.0421C39.4451 21 39.6493 21 39.9668 21C41.9181 21 43 22.7194 43 24.1316C43 25.793 41.8534 26.8513 40.239 26.8513C39.7173 26.8513 39.377 26.8301 39.1728 26.788C39.0819 26.7669 39.0139 26.7248 39.0139 26.5562V21.4006ZM44 32.1438C44 34.336 42.4851 35 41.4642 35C40.9425 35 40.4207 35.0302 39.8081 34.7985C39.0819 34.5243 39.0139 34.166 39.0139 32.7747V28.1477C39.0139 28.0423 39.0594 28 39.15 28C39.4903 28 39.7173 28 40.1257 28.0212C42.3926 28.1289 44 29.8452 44 32.1438Z" fill="#F0F3FA"/>
<path fill-rule="evenodd" clip-rule="evenodd" d="M28 12H29V44H28V12Z" fill="#F0F3FA"/>
</svg>
