<!-- by TradeStack --><svg width="56" height="56" viewBox="0 0 56 56" fill="none" xmlns="http://www.w3.org/2000/svg">
<rect width="56" height="56" fill="#F0F3FA"/>
<path d="M49.3447 25.5471C49.3801 25.603 48.9945 26.3925 48.8539 26.7101C48.2465 25.9018 47.6384 25.0558 47.1289 24.1817C46.7908 23.6024 47.2246 23.0968 47.6163 22.7272C48.4167 21.9707 49.3321 21.3955 50.3627 21.0016C50.367 20.9997 50.3719 20.9995 50.3764 21.0009C50.3809 21.0023 50.3847 21.0053 50.3872 21.0093C50.3898 21.0132 50.3908 21.018 50.3901 21.0227C50.3895 21.0273 50.3872 21.0316 50.3837 21.0348C49.8186 21.588 49.2838 22.1667 48.7792 22.7709C48.6594 22.914 48.5489 23.0637 48.4478 23.2201C48.2481 23.5289 48.1181 23.6605 48.3228 23.9787C48.6542 24.4954 49.0614 25.0088 49.3447 25.5471Z" fill="#282C79"/>
<path d="M50.9092 27.7646C50.9134 27.7623 50.917 27.7592 50.9199 27.7554C50.9228 27.7516 50.9248 27.7472 50.9258 27.7425C51.094 26.9749 51.2211 26.2053 51.307 25.4337C51.4216 24.4074 51.4127 23.3568 51.3668 22.3244C51.3513 21.9797 51.2511 21.5515 51.2998 21.375C51.3098 21.3393 51.3218 21.3387 51.3358 21.3734C51.8359 22.6082 52.0252 24.0711 51.9975 25.3812C51.966 26.901 51.7159 28.4844 51.2583 29.9339C51.2395 29.9933 51.2121 30.037 51.1759 30.0651C51.1464 30.0879 51.1211 30.0839 51.1001 30.0529L49.7994 28.1336C49.788 28.1167 49.7852 28.0984 49.7911 28.0789L50.1845 26.7627C50.1857 26.7585 50.1881 26.7548 50.1914 26.752C50.1947 26.7492 50.1987 26.7474 50.203 26.7468C50.2073 26.7463 50.2117 26.7471 50.2156 26.749C50.2194 26.7509 50.2227 26.7539 50.2249 26.7577C50.2841 26.8573 50.85 27.7984 50.9092 27.7646Z" fill="#282C79"/>
<path d="M15.6375 23.9665C15.5346 24.05 14.7777 24.5557 14.6825 24.3637C14.6796 24.3582 14.6689 24.3194 14.6505 24.2475C14.4662 23.5327 15.0283 23.4043 15.5539 23.2433C15.9584 23.1194 16.1846 22.9966 16.3794 22.6486C16.3815 22.6453 16.3846 22.6428 16.3882 22.6416C16.3919 22.6403 16.3959 22.6403 16.3996 22.6416C16.4032 22.6429 16.4063 22.6454 16.4084 22.6486C16.4105 22.6519 16.4113 22.6558 16.4109 22.6597C16.4017 22.7187 16.3989 22.7819 16.4026 22.8494C16.4391 23.5034 16.3418 24.6652 15.4521 24.7405C15.1384 24.767 14.9121 24.6564 14.5802 24.8251C14.561 24.8347 14.5466 24.8299 14.537 24.8107C14.4673 24.6735 14.8142 24.6033 14.8856 24.5723C15.1818 24.4413 15.4451 24.253 15.6756 24.0074C15.68 24.0021 15.6823 23.9954 15.6821 23.9886C15.6819 23.9817 15.6793 23.9751 15.6746 23.9701C15.6699 23.9651 15.6635 23.962 15.6567 23.9613C15.6499 23.9606 15.643 23.9625 15.6375 23.9665Z" fill="#2C9C38"/>
<path d="M11 23H12.4311C12.438 23 12.4449 23.0169 12.4513 23.0195C12.4576 23.0221 12.4634 23.0259 12.4683 23.0307C12.4731 23.0355 12.4769 23.0412 12.4795 23.0474C12.482 23.0537 12.4833 23.0604 12.4831 23.0671C12.4444 26.0297 12.4737 28.9993 12.4831 31.963C12.4832 31.9667 12.4825 31.9703 12.481 31.9737C12.4796 31.9772 12.4774 31.9803 12.4747 31.9829C12.472 31.9855 12.4687 31.9875 12.4651 31.9889C12.4615 31.9903 12.4577 32.0001 12.4538 32H10.7857C10.7662 31.9996 10.7507 31.9759 10.7392 31.9608L5.46779 24.5778V31.963C5.46779 31.9704 5.46476 31.9775 5.45937 31.9827C5.45397 31.9879 5.44666 32 5.43903 32L4.07967 32C4.06923 32.0001 4.05889 31.9981 4.04922 31.9943C4.03956 31.9905 4.03077 31.9848 4.02337 31.9777C4.01596 31.9706 4.01009 31.9621 4.00607 31.9528C4.00206 31.9434 4 31.9334 4 31.9233L4.00221 23.0343C4.00221 23.0215 4.00885 23 4.02213 23H5.82299C5.84253 23 5.85803 23.0077 5.86946 23.0231L11 29.9816V23Z" fill="#282C79"/>
<path d="M32.7572 27.2155C35.1556 27.8844 35.0106 30.905 32.8208 31.6959C32.279 31.8918 31.7176 32.0011 31.1367 32L26.4429 32V23.0032C28.0883 23.0065 29.7691 23.0043 31.4167 23.0032C31.9061 23.0029 32.4164 23.12 32.9475 23.3546C33.7271 23.6985 34.1188 24.4372 34.1315 25.2539C34.1452 26.0896 33.7339 26.7047 32.8977 27.0995C32.8343 27.1292 32.7852 27.1559 32.7506 27.1795C32.727 27.1956 32.7292 27.2076 32.7572 27.2155ZM27.9999 24.1734L27.9953 26.6471H31.0388C31.2357 26.6467 31.4306 26.6169 31.6124 26.5592C31.7942 26.5016 31.9593 26.4173 32.0983 26.3111C32.2374 26.2049 32.3476 26.079 32.4226 25.9405C32.4977 25.8019 32.5362 25.6535 32.5359 25.5037V25.3114C32.5353 25.0089 32.3768 24.719 32.0952 24.5056C31.8136 24.2922 31.432 24.1727 31.0344 24.1734H27.9999ZM27.9953 30.8003L31.0742 30.8158C31.3089 30.8171 31.5415 30.7827 31.7587 30.7147C31.9759 30.6466 32.1735 30.5463 32.3402 30.4194C32.5068 30.2924 32.6393 30.1414 32.7301 29.9749C32.8208 29.8084 32.868 29.6297 32.869 29.449L32.8701 29.2169C32.8721 28.852 32.6857 28.5011 32.3521 28.2413C32.0184 27.9816 31.5647 27.8342 31.0908 27.8318L27.9999 27.8162L27.9953 30.8003Z" fill="#2C9C38"/>
<path d="M48.8537 26.6528C48.9942 26.3398 49.3798 25.5618 49.3444 25.5067C49.3872 25.4824 49.4199 25.4464 49.4424 25.3988C49.8562 24.5228 50.2573 23.6537 50.6457 22.7916C50.6498 22.7825 50.6572 22.7753 50.6664 22.7713C50.6756 22.7673 50.686 22.7667 50.6955 22.7698C50.7051 22.7728 50.7132 22.7792 50.7183 22.7877C50.7234 22.7963 50.7251 22.8064 50.7232 22.8161C49.7345 27.3316 48.0847 31.7489 46.1732 35.9585C46.1654 35.9755 46.1521 36 46.1333 36H44.3518C44.3496 35.9999 44.3474 35.9938 44.3455 35.9926C44.3436 35.9915 44.3421 35.9898 44.341 35.9879C44.3399 35.986 44.3394 35.9838 44.3395 35.9816C44.3395 35.9794 44.3402 35.9772 44.3413 35.9754C44.4402 35.822 44.5315 35.6639 44.6152 35.501C45.1828 34.3961 45.7431 33.2875 46.296 32.1752C46.3037 32.1596 46.3041 32.1438 46.2971 32.1278L43.2007 25.0756C43.1804 25.0308 43.1952 25 43.245 25H44.7581C44.765 25 44.7717 25.0105 44.7774 25.0143C44.7831 25.0181 44.7876 25.0235 44.7902 25.0298C45.546 26.7737 46.313 28.824 47.0053 30.593C47.0067 30.5966 47.0092 30.5996 47.0123 30.6018C47.0155 30.604 47.0193 30.6052 47.0232 30.6054C47.027 30.6055 47.0309 30.6045 47.0342 30.6025C47.0375 30.6005 47.0401 30.5976 47.0418 30.5941L48.8537 26.6528Z" fill="#2C9C38"/>
<path d="M40.5417 31.0062C40.4079 31.1568 40.2828 31.3335 40.1285 31.4481C39.3738 32.0112 38.2618 32.0821 37.3754 31.9315C36.4432 31.7731 35.7251 31.1347 35.5646 30.2017C35.4617 29.6031 35.6133 28.9226 36.0532 28.4819C37.064 27.4686 39.21 27.6674 40.5091 27.6558C40.5279 27.6554 40.5379 27.6458 40.539 27.627C40.5849 26.8734 40.4112 26.2826 39.5791 26.122C38.7226 25.957 37.6246 25.8992 37.4049 26.9723C37.4013 26.9908 37.39 27 37.3712 27H35.9615C35.9408 27 35.9318 26.9898 35.9344 26.9695C36.0627 25.9491 36.6534 25.441 37.5973 25.1553C38.1915 24.9748 38.6734 24.9986 39.4114 25.0041C40.5191 25.0119 41.6267 25.498 41.9221 26.6386C41.973 26.8343 41.9974 27.1501 41.9951 27.586L42.0017 32.0014H40.5899V31.0228C40.5895 31.0174 40.5875 31.0122 40.5842 31.0079C40.5809 31.0036 40.5764 31.0004 40.5713 30.9986C40.5662 30.9968 40.5606 30.9966 40.5554 30.998C40.5501 30.9993 40.5454 31.0022 40.5417 31.0062ZM38.6856 30.8794C39.9293 30.8047 40.6469 30.004 40.5379 28.7344C40.5334 28.6838 40.506 28.6591 40.4554 28.6602C39.8771 28.6702 39.3019 28.6748 38.7298 28.674C37.9221 28.6729 36.8133 28.906 36.9937 29.9553C37.1315 30.7548 37.9979 30.921 38.6856 30.8794Z" fill="#2C9C38"/>
<path d="M24.6682 29.9276C23.9308 31.7627 21.8079 32.3524 20.0292 31.8024C17.2601 30.9469 16.895 26.9298 19.373 25.494C20.1116 25.066 21.0295 24.9303 21.8782 25.0323C23.1114 25.1813 24.1592 25.8917 24.6516 27.0473C25.0268 27.9281 25.0268 29.0346 24.6682 29.9276ZM20.0806 30.4163C21.1113 31.2128 22.7202 30.841 23.2253 29.6071C23.783 28.2464 23.2386 26.3528 21.5462 26.1702C19.1517 25.9115 18.4491 29.1554 20.0806 30.4163Z" fill="#282C79"/>
<path d="M14.5273 25H15.9998V32H14.5273V25Z" fill="#282C79"/>
</svg>
