<!-- by TradeStack --><svg width="56" height="56" viewBox="0 0 56 56" xmlns="http://www.w3.org/2000/svg"><path fill="#293277" d="M0 0h56v56H0z"/><path d="m43.93 26.21.07.83a4.94 4.94 0 0 1-3.25 1.57c-.85 0-1.7-.25-2.62-.53a12.57 12.57 0 0 0-3.68-.67 7.2 7.2 0 0 1 5.26-2.23c2.45 0 3.75.62 4.22 1.03Zm-2.5-6.95c-.83.65-1.89.87-2.5 1a13 13 0 0 0-.2.04c-.2.04-.65.02-1.25-.01-1.5-.08-3.92-.2-5.44.53-1.74.83-2.28 1.79-3.04 3.15l-.56.98c-1.14 1.91-2.48 3.25-4.39 3.72-.86.21-1.55.27-2.25.34-.86.07-1.74.15-3 .5-1.85.52-3 2.03-3.34 2.72a7.97 7.97 0 0 1 6.2-2.5 5.23 5.23 0 0 0-2.24 1.7c.82-.56 2.87-1.7 4.5-1.7 1.64 0 3.09.46 3.6.7-1.02.85-3.47 2.56-5.06 2.56-.94 0-1.61-.17-2.33-.35-.8-.2-1.63-.4-2.93-.4a6.23 6.23 0 0 0-4.05 1.73 16 16 0 0 1 28.28-14.71Zm2.22 12.21c-.68.25-1.52.46-2.4.46-1 0-2.43-.55-3.94-1.13-1.63-.63-3.34-1.29-4.62-1.29-1.96 0-3.78 1.4-4.45 2.11a8.21 8.21 0 0 1-5.21 2.14c-1.64 0-2.82-.27-3.9-.5-.9-.21-1.74-.4-2.7-.4-1.53 0-2.74.69-3.27 1.12a16.02 16.02 0 0 0 30.49-2.5Zm-17.39-2.46c.6-.34 2.15-1.51 3.64-3.5 1.85-2.5 4.8-2.77 6.3-2.77-.87.34-1.82 1.39-2.99 2.68-.5.56-1.04 1.16-1.63 1.76-1.59 1.63-4.2 1.9-5.32 1.83Z" fill="#fff"/></svg>