<!-- by TradeStack --><svg width="56" height="56" viewBox="0 0 56 56" xmlns="http://www.w3.org/2000/svg"><path fill="#F0F3FA" d="M0 0h56v56H0z"/><path d="M4 24.09v6.89l1.65-.2v-3.56L10 30.98V24l-1.63.21v3.57L4 24.08ZM12.11 25.3c.4 0 .71-.3.71-.65 0-.36-.31-.65-.7-.65-.4 0-.72.29-.72.65 0 .35.32.64.71.64Zm-.71.87v4.8l1.6-.15V26l-1.6.18ZM18.56 30.34a2.6 2.6 0 0 1-1.73.64 2.53 2.53 0 0 1-2.56-2.49c0-1.37 1.15-2.49 2.56-2.49.66 0 1.25.24 1.7.63l-.78.98c-.22-.2-.52-.32-.84-.32-.68 0-1.24.54-1.24 1.2 0 .66.56 1.2 1.24 1.2.36 0 .69-.15.92-.4l.73 1.05Z" fill="#231F20"/><path fill-rule="evenodd" d="M24.5 28.49a2.5 2.5 0 1 1-5-.01 2.5 2.5 0 0 1 5 0Zm-1.22 0a1.2 1.2 0 0 1-1.7 1.1l1.65-1.44c.03.1.05.22.05.34Zm-2.36.35 1.68-1.43a1.2 1.2 0 0 0-1.68 1.43Z" fill="#D1232A"/><path fill-rule="evenodd" d="M38.5 30.98a2.5 2.5 0 1 0 0-5 2.5 2.5 0 0 0 0 5Zm.07-1.3a1.2 1.2 0 1 0 0-2.4 1.2 1.2 0 0 0 0 2.4Z" fill="#231F20"/><path d="M29.48 30.63v.35L31 30.7V24l-1.52.23v2.11a2.35 2.35 0 0 0-1.24-.35 2.45 2.45 0 0 0-2.41 2.5c0 1.37 1.08 2.49 2.41 2.49.45 0 .88-.13 1.24-.35Zm0-2.14c0 .66-.52 1.2-1.17 1.2-.64 0-1.16-.54-1.16-1.2 0-.67.52-1.2 1.16-1.2.65 0 1.17.53 1.17 1.2ZM43.4 26.34v-.3l-1.4.27V33l1.4-.23v-2.14c.35.22.77.35 1.22.35a2.44 2.44 0 0 0 2.38-2.5c0-1.37-1.07-2.49-2.38-2.49-.45 0-.87.13-1.22.35Zm0 2.15c0-.67.51-1.2 1.15-1.2.63 0 1.14.53 1.14 1.2 0 .66-.51 1.2-1.14 1.2-.64 0-1.15-.54-1.15-1.2ZM33.42 26.78v-.74l-1.42.22v4.72l1.42-.25V28c.3-.52.82-.62 1.07-.6l.48-1.38c-.75-.14-1.27.32-1.55.76ZM49.96 31c-.98 0-1.71-.38-1.96-.57l.84-1.02c.18.2.63.45 1 .45s.73-.06.73-.33-.41-.43-.87-.48c-.45-.06-1.46-.33-1.46-1.4 0-1.06.79-1.65 1.85-1.65.84 0 1.48.44 1.7.65l-.84.86c-.5-.45-1.3-.37-1.3-.03 0 .34.56.43.92.51.35.1 1.43.24 1.43 1.34S51.18 31 49.96 31Z" fill="#231F20"/></svg>