<!-- by TradeStack --><svg width="56" height="56" viewBox="0 0 56 56" xmlns="http://www.w3.org/2000/svg"><path fill="#F0F3FA" d="M0 0h56v56H0z"/><path fill-rule="evenodd" d="M40 27v-8h1.46v6.79H45V27h-5Zm.3 2h1.51l1.8 3.54h.08l1.8-3.54H47l-2.68 5.02V37H43v-2.98L40.3 29Zm-1.42 2.04c.1.16.19.35.25.55h1.36a3 3 0 0 0-1.03-1.87 3.35 3.35 0 0 0-4.5.34c-.3.35-.54.77-.7 1.26-.18.5-.26 1.06-.26 1.69 0 .82.14 1.53.43 2.13.29.6.69 1.05 1.2 1.38a3.3 3.3 0 0 0 1.79.48c.6 0 1.15-.13 1.62-.4.47-.26.84-.63 1.1-1.12.28-.48.41-1.06.41-1.73v-.93h-3V34h1.7c-.01.32-.08.61-.22.86-.14.28-.36.5-.63.65-.28.15-.6.22-.98.22-.4 0-.77-.1-1.08-.31a2.09 2.09 0 0 1-.73-.93c-.18-.41-.27-.91-.27-1.5 0-.58.1-1.07.27-1.48.17-.4.42-.72.73-.93.3-.2.66-.31 1.06-.31.22 0 .42.03.6.09.2.06.36.14.5.26.15.12.28.26.38.42ZM28 37v-8h2.77c.56 0 1.04.1 1.42.32.39.21.68.51.88.9.2.38.3.83.3 1.34 0 .51-.1.96-.3 1.33a2.07 2.07 0 0 1-1.03.94l1.6 3.17h-1.5l-1.44-2.93h-1.36V37H28Zm1.34-6.79v2.66h1.23c.33 0 .6-.05.81-.15a1 1 0 0 0 .47-.44c.1-.2.15-.44.15-.72 0-.29-.05-.53-.15-.73-.1-.2-.26-.35-.47-.46-.21-.1-.49-.16-.82-.16h-1.22ZM22 29v8h5v-1.21h-3.66V33.6h3.2V32.4h-3.2V30.2H27V29h-5Zm-1 0v8h-1.18l-3.44-5.45h-.06V37H15v-8h1.18l3.44 5.45h.06V29H21ZM9 29v8h5v-1.21h-3.66V33.6h3.2V32.4h-3.2V30.2H14V29H9Zm25-2v-8h5v1.21h-3.67v2.18h3.43v1.21h-3.43v2.19H39V27h-5Zm-2.4-5.27h1.36a3.31 3.31 0 0 0-.36-1.15 2.83 2.83 0 0 0-1.63-1.4 3.53 3.53 0 0 0-2.9.3c-.5.31-.91.77-1.21 1.37-.3.6-.45 1.31-.45 2.15 0 .84.15 1.55.45 2.15.29.6.7 1.06 1.2 1.37.52.32 1.1.48 1.75.48a3 3 0 0 0 3.14-2.68l-1.35-.01a1.74 1.74 0 0 1-.62 1.05c-.15.13-.33.22-.53.28a2.07 2.07 0 0 1-1.69-.21c-.3-.21-.55-.52-.73-.92a3.8 3.8 0 0 1-.26-1.51c0-.59.08-1.08.26-1.49.18-.4.42-.71.73-.92.31-.22.67-.32 1.07-.32.23 0 .44.03.64.1a1.6 1.6 0 0 1 .92.74c.1.18.17.4.21.62ZM20.52 27h-1.44l2.62-8h1.66l2.61 8h-1.43l-.63-2h-2.77l-.62 2Zm2.04-6.36L23.6 24h-2.15l1.05-3.36h.06ZM18 27v-8h-1.32v5.45h-.06L13.18 19H12v8h1.32v-5.45h.06L16.82 27H18Z"/></svg>