<?xml version='1.0' encoding='utf-8'?>
<!-- by TradeStack -->
<svg width="56" height="56" viewBox="0 0 56 56" xmlns="http://www.w3.org/2000/svg"><path fill="#F0F3FA" d="M0 0h56v56H0z" /><path d="M41 25h-6c0-.46-.5-2.96-3.5-3-3-.04-3.5 3.88-3.5 6 0 2.3.5 6 3.5 6 2.66 0 3.34-2.63 3.5-4h6c0 3.06-1.9 9-9.5 9S22 32.12 22 28c0-4.27 1.9-11 9.5-11s9.5 5.25 9.5 8Z" /><path fill-rule="evenodd" d="M47 18h-4v20h4V18Zm-5-1v22h6V17h-6Z" /><path d="M8 25.25V39h2V27.08l-2-1.83Zm6 5.5V39h-2V28.92l2 1.83ZM18 39h-2v-6.88l2 1.84V39Zm8-22h-2v4h2v-4Zm2 2v-2h2v2h-2Zm-5-2h-2v6.88L13.96 17H11.5L23 28V17ZM8 18.5V17h1.5L24 31.67v2.29L8 18.5Zm0 4.46v-2.3L26.33 39h-2.29L8 22.96Z" /></svg>