<!-- by TradeStack --><svg width="56" height="56" viewBox="0 0 56 56" xmlns="http://www.w3.org/2000/svg"><path fill="#F0F3FA" d="M0 0h56v56H0z"/><path fill-rule="evenodd" d="M38.01 42H23v-2.52c.37.44.89.71 1.56.71C26.02 40.2 27 39 27 37.6c0-1.4-.99-2.59-2.44-2.59-.67 0-1.2.27-1.56.7V35h-1v7h-8a2 2 0 0 1-1.41-3.41L40 11v29a2 2 0 0 1-1.99 2ZM24.5 39.39c-1.03 0-1.49-.85-1.49-1.8 0-.95.46-1.78 1.49-1.78.99 0 1.63.84 1.63 1.78 0 .95-.63 1.8-1.63 1.8Zm12.47.61c-.67 0-1.43-.15-1.96-.57l.36-.7c.47.33 1.08.5 1.66.5.8 0 .98-.32.98-.73 0-.48-.48-.53-.87-.58l-.16-.02c-.86-.15-1.97-.35-1.97-1.4 0-1.06 1.22-1.5 2.13-1.5.57 0 1.24.1 1.72.44l-.37.7c-.43-.29-.9-.38-1.36-.38-.75 0-1.12.28-1.12.67 0 .53.65.64 1.08.7l.1.02c.83.12 1.82.38 1.82 1.4 0 1.08-1.14 1.45-2.04 1.45ZM30 35v5h1v-2.47c0-.9.33-1.67 1.3-1.67h.1a.6.6 0 0 1 .1 0V35c-.77 0-1.23.28-1.5.8V35h-1Zm-14 2.5c0 1.52 1.24 2.5 2.7 2.5.84 0 1.53-.28 1.98-.8l-.5-.57c-.37.4-.85.6-1.45.6-.9 0-1.6-.55-1.71-1.44h3.96l.01-.14.01-.13A2.43 2.43 0 0 0 18.52 35 2.46 2.46 0 0 0 16 37.5Zm1.01-.35H20c-.07-.81-.63-1.4-1.47-1.4-.85 0-1.41.6-1.5 1.4ZM29 33.5a.5.5 0 1 1-1 0 .5.5 0 0 1 1 0Zm4.5.5a.5.5 0 1 0 0-1 .5.5 0 0 0 0 1ZM29 35v5h-1v-5h1Zm5 5v-5h-1v5h1Z" fill="url(#a)"/><defs><linearGradient id="a" x1="26" y1="11" x2="26" y2="42" gradientUnits="userSpaceOnUse"><stop stop-color="#F67220"/><stop offset=".19" stop-color="#FED29E"/><stop offset=".38" stop-color="#68AECB"/><stop offset=".56" stop-color="#022464"/><stop offset="1" stop-color="#000013"/></linearGradient></defs></svg>