<!-- by TradeStack --><svg width="56" height="56" viewBox="0 0 56 56" xmlns="http://www.w3.org/2000/svg"><path fill="#F0F3FA" d="M0 0h56v56H0z"/><path d="M25.05 21.42c-6.39 3.05-10.16 4.86-11.31 5.42a.1.1 0 0 1-.11 0 .1.1 0 0 1-.05-.11l.48-5.23c.1-1.19.5-2.09 1.19-2.7.25-.22 1.05-.65 2.38-1.28a3748.64 3748.64 0 0 0 9.3-4.44 14.4 14.4 0 0 1 2.5-1.04c.88-.15 1.8.12 2.76.8 1.52 1.07 2.92 2.07 4.2 3 .03.02.05.06.05.1a.1.1 0 0 1-.07.1c-1.16.54-4.94 2.33-11.32 5.38Zm4.33 9.65-10.57 5.05a8.12 8.12 0 0 1-2.46.88c-.95.05-1.8-.34-2.57-1.19a3.21 3.21 0 0 1-.77-2.42c.02-.43.13-1.83.34-4.18a.1.1 0 0 1 .07-.1.1.1 0 0 1 .1.02c.6.43 1.08.7 1.47.8.51.14 1.06.07 1.63-.2a3440.8 3440.8 0 0 1 19.99-9.55 2.4 2.4 0 0 0 1.2-1.15c.18-.37.3-.92.35-1.66 0-.05.02-.08.06-.1a.1.1 0 0 1 .1.01c1.9 1.36 3 2.16 3.34 2.43.77.6 1.2 1.32 1.3 2.17a3.32 3.32 0 0 1-.77 2.78c-.33.35-1.08.81-2.24 1.37l-10.57 5.04Zm-2.11 12.7a1192.13 1192.13 0 0 0 13.03-6.2c.54-.26 1-.76 1.36-1.5.18-.34.3-.99.38-1.93a165 165 0 0 1 .49-4.88c.02-.15-.04-.19-.17-.13a4495.58 4495.58 0 0 1-22.69 10.81c-.13.06-.14.14-.02.22 1.3.89 2.62 1.81 3.94 2.77.75.55 1.31.87 1.68.95a3 3 0 0 0 2-.1Z" fill="url(#a)"/><defs><linearGradient id="a" x1="13" y1="36.52" x2="43" y2="37.53" gradientUnits="userSpaceOnUse"><stop stop-color="#FF9C08"/><stop offset="1" stop-color="#FDCA01"/></linearGradient></defs></svg>