<!-- by TradeStack --><svg width="56" height="56" viewBox="0 0 56 56" xmlns="http://www.w3.org/2000/svg"><path fill="#F0F3FA" d="M0 0h56v56H0z"/><path d="M30.38 11.17c-.08.1-.24.14-.46.09h-.02v.02c0 .03.01.04.04.04.33-.02.49-.02.47 0 0 .01 0 .02-.01.01-1.51-.1-2.5-.14-2.99-.1-.61.07-1.24.12-1.88.16-.09 0-.21.03-.38.07a2.4 2.4 0 0 1-.39.06c-.16.01-.34.08-.54.18-.49.07-1 .2-1.53.4a18.53 18.53 0 0 0-4.28 2.21 19.1 19.1 0 0 0-2.95 2.8l-.03.04c-.05.05-.12.16-.2.33a.9.9 0 0 1-.26.3l-.58.64c-.13.16-.29.4-.47.73-.16.27-.34.54-.54.8l-.48 1c-.46.94-.78 1.73-.96 2.38a18.33 18.33 0 0 0-.56 5.5l.29 1.8c.06.4.17.74.3 1.03.03.22.04.42.05.6 0 .07.04.18.12.31.07.1.1.19.12.25.08.3.2.57.36.84l.07.43c.02.14.07.27.14.4l.25.44c.09.15.18.3.28.43.22.3.45.64.7 1.03.18.3.38.6.58.9.09.12.18.23.3.32l.3.32c.15.18.3.34.46.48.42.4.85.77 1.29 1.14.2.17.42.3.67.4.05.02.1.06.13.1.08.12.19.2.32.22.05.01.07.04.07.1 0 .04.02.07.06.09l1.22.62.1.01c.06 0 .12.02.17.05.25.14.51.25.78.33.05.02.08.05.1.1 0 .04.03.07.07.1.83.3 1.69.54 2.6.68.04 0 .1.03.16.06l.14.06c.4.09.82.18 1.28.26.12.02.25.03.37.02h.38c.97.05 1.93-.02 2.88-.22.14-.03.32-.05.53-.05.18 0 .35-.03.51-.08.19-.06.37-.1.56-.13l.53-.11c.2-.06.4-.1.63-.15a.1.1 0 0 0 .07-.04.66.66 0 0 0 .03-.05.24.24 0 0 1 .1-.09 4.6 4.6 0 0 1 1.3-.46c.18-.03.33-.1.46-.2s.25-.17.37-.23c1.1-.5 1.88-.94 2.34-1.3.25-.2.51-.4.78-.57.26-.16.49-.34.69-.53.22-.21.42-.43.61-.65.2-.23.4-.44.62-.64.27-.24.51-.5.73-.77l.67-.8c.04-.04.07-.08.1-.14a.92.92 0 0 1 .11-.2 9.85 9.85 0 0 0 1.7-3.28c0-.06.03-.1.07-.14a.7.7 0 0 0 .16-.28l.12-.34c.08-.22.14-.46.17-.7 0-.01 0-.02-.02-.02h-.01v-.03a12.47 12.47 0 0 0 .7-3.4c.04-.25.05-.6.03-1.07l-.02-.52c0-.3 0-.58-.03-.87l-.16-1.65a3.4 3.4 0 0 0-.34-1.31.11.11 0 0 0-.05-.05h-.02c-.03.04-.05.04-.06 0l-.29-.9a.8.8 0 0 0-.18-.33.95.95 0 0 1-.21-.36 9.99 9.99 0 0 0-.8-1.86.77.77 0 0 0-.18-.22.87.87 0 0 1-.2-.22 8.76 8.76 0 0 0-1.2-1.62l-.89-.95c-.1-.1-.2-.2-.32-.27l-.36-.23c-.12-.08-.29-.21-.5-.4-.19-.17-.4-.3-.63-.4a7.16 7.16 0 0 0-1.43-1.02l-1.2-.57a4 4 0 0 0-.49-.19 3.2 3.2 0 0 1-.62-.26c-.08-.04-.07-.07.01-.08l.1-.02c2.84.89 5.28 2.42 7.32 4.6a16.53 16.53 0 0 1 4.54 10.21c.2 2.33-.08 4.6-.83 6.82-.74 2.22-1.9 4.2-3.45 5.94a16.4 16.4 0 0 1-11.37 5.6c-3.61.27-6.97-.53-10.07-2.4a16.58 16.58 0 0 1-6.87-7.94 16.61 16.61 0 0 1-.94-10.26 16.64 16.64 0 0 1 4.77-8.55 16.77 16.77 0 0 1 6.56-3.96c2.5-.81 5.04-1.04 7.64-.67Z" fill="#9E4F09"/><path d="M30.38 11.17c.92.13 1.82.33 2.7.6l-.1.03c-.08 0-.09.04-.01.08.13.08.34.17.62.26.22.07.38.13.49.19l1.2.57c.35.16.83.5 1.43 1.02l1.02.93c.04.04.08.09.1.14.05.1.12.18.22.23.1.06.21.14.3.24.21.22.44.41.69.59.05.03.09.08.11.14.08.18.2.33.38.46.06.04.1.1.14.16.03.06.06.14.07.24a.86.86 0 0 0 .08.24c.15.31.28.53.39.65.13.14.2.3.23.49.01.06.03.11.07.16.15.17.24.35.28.55.03.15.09.29.17.42.1.17.2.35.29.54.03.07.05.15.06.23.01.1.04.2.08.3.04.11.07.23.09.35a5.9 5.9 0 0 0 .23 1.06l.04.01.01.03c.03.2.1.41.22.6.02.05.04.1.03.16-.01.19.01.37.08.56.02.06.03.11.01.17a.55.55 0 0 0 .03.38c.02.04.03.09.03.14v1.2l-.04.56c-.04.86-.17 1.8-.38 2.82a9.15 9.15 0 0 1-.68 1.91c-.01-.01-.03-.02-.04 0a.08.08 0 0 0-.03.05c-.03.2-.07.38-.14.56-.07.17-.12.35-.16.54-.05.25-.15.5-.29.72-.08.13-.15.28-.19.43a.98.98 0 0 1-.38.54.31.31 0 0 0-.11.15c-.03.1-.1.16-.18.2a.21.21 0 0 0-.12.13c-.07.24-.22.45-.44.64a.34.34 0 0 0-.1.13 1.6 1.6 0 0 1-.36.48l-.2.22a20 20 0 0 1-1.74 1.85c-.03-.01-.05 0-.07.01a9.96 9.96 0 0 1-2.33 1.7c-.34.2-.65.4-.95.62a.86.86 0 0 1-.19.1.6.6 0 0 0-.25.17.21.21 0 0 1-.13.08c-.09.02-.2.08-.34.17-.12.09-.22.14-.3.16-.36.1-.7.23-1 .38a4.66 4.66 0 0 1-.63.26c-.3.12-.54.18-.7.2a2.1 2.1 0 0 0-.44.09 9.52 9.52 0 0 1-2.08.39c-.24.02-.5.05-.78.1a5.97 5.97 0 0 1-.94.06c-.4.02-.67 0-.83-.05a1.43 1.43 0 0 0-.38-.05c-.17 0-.3-.01-.4-.04a5.51 5.51 0 0 0-.8-.18 1.48 1.48 0 0 1-.46-.14.32.32 0 0 0-.14-.04c-.17 0-.34-.04-.5-.12a.35.35 0 0 0-.18-.04c-.54.03-1.07-.1-1.56-.39a.1.1 0 0 0-.1 0 .14.14 0 0 1-.1-.01c-.46-.22-.9-.42-1.34-.6a4.58 4.58 0 0 1-.96-.63 9.3 9.3 0 0 1-1.31-.95.36.36 0 0 0-.13-.07.3.3 0 0 1-.18-.16.17.17 0 0 0-.12-.09l-.1-.02a.2.2 0 0 1-.12-.08c-.24-.3-.48-.59-.73-.87a.31.31 0 0 0-.22-.12.19.19 0 0 1-.14-.07c-.28-.36-.53-.73-.76-1.11-.1-.19-.23-.37-.37-.55a2 2 0 0 1-.38-.8.3.3 0 0 0-.07-.15l-.17-.2a.24.24 0 0 1-.06-.16.39.39 0 0 0-.22-.37 3.3 3.3 0 0 1-.36-.83 1.04 1.04 0 0 0-.12-.25.7.7 0 0 1-.12-.31c0-.18-.02-.38-.04-.6.28.53.56 1.03.85 1.52.09.16.15.3.18.43l.1.33c.05.11.1.22.18.32l.2.27c.1.12.2.22.34.3.18.12.27.28.27.5 0 .01 0 .02.02.01.04-.01.06 0 .08.02.27.36.62.67 1.05.93.07.04.13.13.19.26.03.08.07.14.1.18.12.15.26.28.41.36l.88.5c.07.03.13.08.18.14.17.19.33.31.48.38a39.56 39.56 0 0 0 1.6.75c.3.13.6.21.94.25.19.03.37.07.55.14.44.16.92.27 1.45.34l1.03.15c.3.05.6.05.9.03.42-.04.83-.05 1.23-.03.04 0 .06-.01.04-.06v-.02a.13.13 0 0 1 .11-.04 3.7 3.7 0 0 0 1.49-.27c.17-.07.42-.12.76-.17.18-.02.36-.07.55-.13.65-.21 1.33-.47 2.06-.76.34-.14.58-.27.73-.4.16-.13.33-.23.52-.31l.6-.3c.28-.18.51-.3.67-.35.22-.08.4-.2.56-.36.27-.27.54-.52.81-.75a.14.14 0 0 1 .12-.03c.06 0 .1 0 .14-.05.4-.42.81-.82 1.24-1.2.1-.09.2-.15.32-.19a.4.4 0 0 0 .18-.11 4 4 0 0 1 .8-.68.28.28 0 0 0 .13-.2c.02-.11.08-.2.18-.24.07-.04.07-.07 0-.12a.68.68 0 0 0-.22-.08h1.5c.17 0 .26-.08.26-.25v-6.3c0-.1.06-.16.17-.17.45-.03.95 0 1.5.08.2.04.3-.05.3-.26l-.01-2.52c.02-.12.02-.22-.02-.29a.13.13 0 0 0-.12-.07l-4.8-.03c.36-.02.71-.03 1.07-.03.15 0 .28-.05.37-.12.16-.11.21-.27.16-.48-.17-.72-.29-1.51-.34-2.39a2.53 2.53 0 0 0-.14-.68 6.26 6.26 0 0 1-.18-.58 8.71 8.71 0 0 0-.95-2.27c-.02 0-.03 0-.03.02s0 .02-.01 0c0 0 0-.02-.02-.03-.16-.33-.3-.54-.4-.63a.2.2 0 0 1-.07-.15.17.17 0 0 0-.04-.1c-.2-.27-.43-.5-.7-.7-.03-.03-.04-.07-.03-.12a.1.1 0 0 0-.01-.09 2.58 2.58 0 0 0-.44-.46c-.2-.17-.37-.33-.52-.5-.16-.15-.33-.3-.53-.4l-1.22-.75c-.08-.05-.21-.1-.4-.13a1.16 1.16 0 0 1-.4-.12c-.14-.09-.3-.17-.45-.24a1.9 1.9 0 0 0-.45-.15l-.72-.14h-.13c-.08.04-.15.02-.2-.04a.18.18 0 0 0-.13-.07 9.55 9.55 0 0 1-1.1-.14 3.09 3.09 0 0 0-1.02-.03c-.45.07-.85.09-1.19.06a5.86 5.86 0 0 0-1.32.05c.2-.1.38-.17.54-.18.14 0 .27-.03.4-.06.16-.04.28-.07.37-.07.64-.04 1.27-.09 1.88-.15a21.63 21.63 0 0 1 3 .07h-.47c-.03 0-.04 0-.04-.03v-.02h.02c.22.05.38.02.46-.09Z" fill="#C87516"/><path d="M35.76 23.11h-2.48c-.07 0-.1.03-.1.1.06.99.06 1.98 0 2.97 0 .06.02.09.08.08l1.55-.1.29.06c.05.01.08.04.08.1l-.02 2.14-.07.57c-.01.06-.05.09-.11.08l-.17-.01a.21.21 0 0 0-.2.08c-.22.3-.47.54-.76.76-.13.1-.26.2-.38.32-.13.12-.26.22-.4.3-.05.04-.09.03-.1-.03l-.04-.3H29.9c-.08 0-.12-.04-.12-.12v-.74c0-.08.03-.12.1-.12l1.43-.02 1.12.01c.05 0 .08-.02.08-.07l.02-2.39c0-.04-.03-.07-.08-.07l-2.52.02c-.12 0-.19-.06-.19-.19v-.64c0-.1.05-.16.16-.16l2.8.02c.06 0 .08-.03.08-.09l.01-2.48c0-.04-.02-.07-.06-.07l-2.62-.01 1.25-.02c.22 0 .32-.12.31-.34 0-.06 0-.13.02-.2.16-.67.29-1.35.37-2.02.01-.05.03-.06.07-.02h.03a.14.14 0 0 0 .05-.1 6.06 6.06 0 0 0-.59-3.45.27.27 0 0 0-.25-.16c-.1 0-.15-.06-.15-.16 0-.05 0-.1-.04-.15-.3-.47-.62-.94-.98-1.42-.07-.1-.19-.21-.36-.36a2.69 2.69 0 0 1-.35-.34.27.27 0 0 0-.16-.1.82.82 0 0 1-.33-.17 2.02 2.02 0 0 0-.36-.23 6.65 6.65 0 0 0-3.51-.7c-.56.03-1.08.12-1.58.25-.25.07-.5.13-.76.18a5 5 0 0 0-.76.21.6.6 0 0 0-.16.1.49.49 0 0 1-.18.1c-.1.03-.2.07-.28.13-.25.17-.5.33-.77.47-.1.06-.19.13-.26.2-.1.11-.2.19-.33.24-.16.06-.32.15-.48.27l-.72.53a7.39 7.39 0 0 0-1.8 2.01c-.1.15-.19.33-.26.54a2.1 2.1 0 0 1-.26.52c-.08.12-.18.32-.27.6l-.13.33c-.05.1-.11.2-.2.31a.87.87 0 0 0-.14.36c-.16.8-.3 1.62-.42 2.44 0 .06.02.1.1.12-.06 0-.1 0-.14.02a.12.12 0 0 0-.08.12l.03 8.75a.24.24 0 0 0-.08.08c-.03.04-.06.05-.1.02a.11.11 0 0 1-.07-.12c0-.02 0-.03-.02-.03l-.02.01c-.03.08-.06.09-.1.01a.46.46 0 0 0-.13-.12.49.49 0 0 1-.13-.16c-.24-.43-.44-.9-.59-1.37a.15.15 0 0 0-.07-.08.23.23 0 0 1-.03-.03.18.18 0 0 1-.05-.1c-.04-.17-.1-.33-.18-.47-.27-.43-.5-.92-.7-1.46a3.44 3.44 0 0 1-.25-1.14.22.22 0 0 0-.03-.1.44.44 0 0 1-.03-.06.25.25 0 0 1-.02-.12v-2.57c0-.26.05-.65.16-1.17.07-.34.12-.6.14-.79.02-.1.06-.25.13-.42.05-.15.09-.3.1-.45 0-.06.02-.1.05-.15.2-.27.32-.46.37-.58.23-.62.5-1.23.82-1.83.02-.05.04-.1.04-.16 0-.09.04-.17.1-.23.18-.17.3-.37.38-.6a.9.9 0 0 0 .26-.3c.08-.17.15-.28.2-.33l.03-.04a19.1 19.1 0 0 1 2.95-2.8c1.29-.9 2.71-1.64 4.28-2.21a7.3 7.3 0 0 1 2.85-.45c.34.03.74 0 1.2-.06.3-.05.63-.04 1.01.03.37.07.73.11 1.1.14.05 0 .1.02.13.07.05.06.12.08.2.05a.24.24 0 0 1 .13-.01l.72.14c.15.03.3.08.45.15l.45.24c.09.05.22.1.4.13.19.03.32.07.4.12l1.22.74c.2.12.37.26.53.42.15.16.33.32.52.49.17.14.32.3.44.46a.1.1 0 0 1 .01.1c-.01.04 0 .08.04.1.26.2.5.44.7.72.02.02.03.06.03.09 0 .06.02.1.07.15a2.31 2.31 0 0 1 .42.66c0 .02.01.02.01 0s.01-.02.03-.02a8.71 8.71 0 0 1 .96 2.28c.05.2.1.39.17.57.08.22.12.45.14.68.05.88.17 1.67.34 2.4.05.2 0 .36-.16.47-.1.07-.22.11-.37.12-.36 0-.71.01-1.07.03Z" fill="#F89525"/><path d="m30.11 23.1-3.83-.01c-.08 0-.11.03-.11.1v3.29c-.09.02-.13.06-.13.12v.07c-.01.11-.07.17-.18.17-.03 0-.06 0-.08.02-.1.06-.2.05-.3-.02-.05-.03-.1-.03-.13.02a.35.35 0 0 0-.08.26c0 .02-.01.03-.04.03-.02 0-.03 0-.03-.02 0-.17 0-.33-.03-.49l-.01-3.13.44-.28c.11-.06.21-.15.3-.25.07-.08.14-.15.22-.2.18-.16.34-.35.48-.58l.09-.12c.34-.43.62-.87.83-1.31a.36.36 0 0 1 .1-.13.62.62 0 0 0 .21-.48.06.06 0 0 0-.03-.06h-.06c-.07.02-.1 0-.07-.09.15-.4.22-.8.23-1.22a1.32 1.32 0 0 1 .03-.25c.04-.2.04-.36.01-.48a.81.81 0 0 1 .12-.68.2.2 0 0 0 .02-.18l-.37-1.08c-.1-.3-.24-.6-.42-.86a1.87 1.87 0 0 0-.7-.58c-.5-.27-1-.42-1.5-.46a5 5 0 0 0-1.64.08c-.24.06-.47.1-.7.12-.05 0-.1.03-.14.06-.22.21-.44.34-.66.39a1.4 1.4 0 0 0-.83.44.31.31 0 0 1-.14.1.98.98 0 0 0-.34.2 8.88 8.88 0 0 1-.86.72c-.27.2-.45.4-.54.55a.27.27 0 0 1-.11.1.82.82 0 0 0-.35.32c-.26.44-.5.87-.71 1.29a8 8 0 0 0-.59 1.76c-.03.14-.04.28-.03.41l-.01.43c-.02.28-.01.49.02.63.09.4.27.76.55 1.08.04.04.09.07.15.07.22 0 .41.05.57.13l-3.27-.02c-.07-.02-.1-.06-.09-.12.12-.82.26-1.63.42-2.44a.87.87 0 0 1 .15-.36c.08-.1.14-.21.19-.31l.13-.34c.1-.27.19-.47.27-.6.11-.15.2-.33.26-.51.07-.21.16-.4.25-.54a7.38 7.38 0 0 1 1.8-2.01c.25-.18.5-.35.73-.53.16-.12.32-.21.48-.27a.88.88 0 0 0 .33-.23c.07-.08.16-.15.26-.2.27-.15.52-.31.77-.48.08-.06.18-.1.28-.12a.49.49 0 0 0 .18-.1.6.6 0 0 1 .16-.1c.25-.1.5-.17.76-.22.26-.05.51-.11.76-.18.5-.13 1.02-.22 1.58-.26a6.66 6.66 0 0 1 3.51.71c.13.07.25.14.36.23.1.08.21.14.33.16.07.02.12.05.17.1.07.1.18.21.34.35.17.15.3.26.36.36.36.48.69.95.98 1.42.03.05.05.1.04.15 0 .1.05.16.15.16.12 0 .2.06.25.16.54 1.1.74 2.25.6 3.45-.01.04-.03.07-.06.1h-.03c-.04-.04-.06-.03-.07.02a18.8 18.8 0 0 1-.37 2.02.65.65 0 0 0-.02.2c.01.22-.09.34-.3.34l-1.26.02Z" fill="#FAA240"/><path d="M36.71 13.92c.23.1.44.23.62.4a4.17 4.17 0 0 0 .87.63c.12.08.22.17.32.27l.88.95c.48.5.89 1.04 1.22 1.62.05.08.11.16.19.22.07.06.13.14.17.22.33.58.6 1.2.8 1.86.05.13.12.25.22.36.1.1.15.2.18.32.09.31.18.61.29.9.01.05.03.05.06.01h.02l.05.05c.17.3.28.73.34 1.3l.16 1.66c.02.29.04.58.03.86 0 .12 0 .3.02.53.02.47 0 .82-.03 1.06l-.06.53a12.47 12.47 0 0 1-.64 2.9h.01c.02.01.02.02.02.03-.03.24-.09.48-.17.7l-.12.34a.7.7 0 0 1-.16.28.34.34 0 0 0-.08.14 9.84 9.84 0 0 1-1.69 3.28.92.92 0 0 0-.12.2.52.52 0 0 1-.1.15c-.22.25-.45.52-.66.79-.22.27-.46.53-.73.77-.22.2-.42.41-.62.64-.19.22-.4.44-.61.65-.2.2-.43.37-.69.53-.27.18-.53.36-.78.56-.46.37-1.24.8-2.34 1.31-.12.06-.24.14-.37.23-.13.1-.28.17-.46.2a4.6 4.6 0 0 0-1.3.46.24.24 0 0 0-.1.1.66.66 0 0 1-.03.04.1.1 0 0 1-.07.04c-.22.04-.43.1-.63.15a5.1 5.1 0 0 1-.54.11 3.9 3.9 0 0 0-.55.13c-.16.05-.33.08-.5.08-.22 0-.4.02-.54.05-.95.2-1.91.27-2.88.22h-.38c-.12 0-.25 0-.37-.02-.46-.08-.88-.17-1.28-.26a.56.56 0 0 1-.14-.06.53.53 0 0 0-.17-.06c-.9-.14-1.76-.37-2.59-.69a.13.13 0 0 1-.08-.09.13.13 0 0 0-.1-.1 3.9 3.9 0 0 1-.77-.33.35.35 0 0 0-.17-.05l-.1-.01-1.22-.62a.1.1 0 0 1-.06-.1c0-.05-.02-.08-.07-.09a.52.52 0 0 1-.32-.22.29.29 0 0 0-.13-.1c-.25-.1-.47-.23-.67-.4a34.3 34.3 0 0 1-1.3-1.14c-.14-.14-.3-.3-.44-.48l-.31-.32c-.12-.1-.21-.2-.3-.32a16 16 0 0 1-.59-.9c-.24-.4-.47-.74-.7-1.03-.1-.14-.18-.28-.27-.43l-.25-.45a1.35 1.35 0 0 1-.14-.4 4.67 4.67 0 0 1-.07-.42c.14.07.22.2.22.36 0 .06.02.11.06.16l.17.2a.3.3 0 0 1 .07.14c.07.3.2.57.38.81.14.18.26.36.37.55.23.38.48.75.76 1.11.04.05.08.07.14.07.09.01.16.05.22.12.25.28.5.57.73.87a.2.2 0 0 0 .13.08l.1.02c.04.01.08.04.1.1.05.07.11.13.2.15.04.01.08.04.12.07.43.36.86.68 1.31.95.03.01.05.04.06.07 0 .02.02.03.03.04l.23.15c.27.18.49.3.64.36.44.19.88.4 1.33.61.04.02.07.02.11 0a.1.1 0 0 1 .1.01c.5.3 1.02.42 1.56.4.07-.01.12 0 .18.03.16.08.33.12.5.12.05 0 .1.01.14.04.15.07.3.12.46.14.28.04.55.1.8.18.1.03.23.04.4.04s.3.02.38.05c.16.05.43.07.83.05h.22a6 6 0 0 0 .72-.07l.78-.1a9.52 9.52 0 0 0 2.08-.39l.44-.09a2.8 2.8 0 0 0 .88-.26c.14-.05.3-.11.44-.19.32-.15.65-.27 1.01-.38.08-.02.18-.07.3-.16.14-.1.25-.15.34-.17.05 0 .1-.04.13-.08a.6.6 0 0 1 .25-.17.86.86 0 0 0 .2-.1c.29-.22.6-.43.94-.61a9.96 9.96 0 0 0 2.33-1.7.07.07 0 0 1 .07-.02h.01c.01 0 .02 0 .03-.02a19.98 19.98 0 0 0 1.9-2.05c.2-.2.31-.35.37-.48.02-.05.05-.1.09-.13.22-.19.37-.4.44-.64.02-.06.06-.1.12-.13a.35.35 0 0 0 .18-.2.31.31 0 0 1 .1-.15c.2-.15.34-.33.4-.54.03-.15.1-.3.18-.43.14-.23.24-.47.3-.73.03-.18.08-.36.15-.53.07-.18.11-.36.14-.56 0-.03.01-.05.03-.06l.04.01h.02c.32-.71.54-1.35.66-1.91a18.85 18.85 0 0 0 .4-4.72.55.55 0 0 1-.04-.38.26.26 0 0 0 0-.17c-.08-.19-.1-.37-.09-.56 0-.05 0-.1-.03-.15-.12-.2-.2-.4-.22-.61l-.01-.03a.18.18 0 0 0-.04-.01 5.9 5.9 0 0 1-.23-1.06 1.2 1.2 0 0 0-.1-.35c-.03-.1-.06-.2-.07-.3a.64.64 0 0 0-.06-.23 5.57 5.57 0 0 0-.3-.54 1.29 1.29 0 0 1-.16-.42c-.04-.2-.13-.38-.28-.55a.32.32 0 0 1-.07-.16.89.89 0 0 0-.23-.49 2.73 2.73 0 0 1-.4-.68.86.86 0 0 1-.07-.21.89.89 0 0 0-.07-.24.42.42 0 0 0-.14-.16c-.18-.13-.3-.28-.38-.46a.33.33 0 0 0-.11-.14 4.63 4.63 0 0 1-.68-.59c-.1-.1-.2-.18-.31-.24a.5.5 0 0 1-.22-.23.45.45 0 0 0-.1-.14l-1.02-.93Z" fill="#AF5F0F"/><path d="M25.16 23.51a.88.88 0 0 0 .01-.3c-.02-.09-.06-.12-.14-.12-1.09.03-2.14.02-3.15-.01-.09 0-.13.03-.13.11v.17c-.04 2.17.04 3.78.25 4.84.1.47.02.5-.22.08l-3.05-5.18a1.34 1.34 0 0 0-.57-.13.18.18 0 0 1-.15-.07 2.49 2.49 0 0 1-.55-1.08 2.35 2.35 0 0 1-.02-.63v-.43c0-.13.01-.27.04-.41a8 8 0 0 1 .59-1.76c.21-.42.45-.85.71-1.29.09-.13.2-.24.35-.31a.27.27 0 0 0 .1-.1c.1-.17.28-.35.55-.56a6.2 6.2 0 0 0 .51-.4l.35-.32c.1-.1.22-.16.34-.2.05-.02.1-.06.14-.1.17-.22.45-.36.83-.44.22-.05.44-.18.66-.39a.22.22 0 0 1 .14-.06c.23-.02.46-.06.7-.12a5 5 0 0 1 1.64-.08c.5.04 1 .2 1.5.46.31.16.54.35.7.58.18.27.32.56.42.86l.37 1.08a.2.2 0 0 1-.02.19.81.81 0 0 0-.12.67 1.16 1.16 0 0 1-.02.52l-.02.2c-.01.43-.09.84-.23 1.23-.02.08 0 .1.07.08l.06.01c.02.01.03.03.03.06 0 .2-.08.36-.22.48a.36.36 0 0 0-.09.13 6.56 6.56 0 0 1-.92 1.43c-.14.23-.3.42-.48.57l-.22.2c-.09.11-.19.2-.3.26l-.44.28Z" fill="#FDB94A"/><path d="M21.66 15.9a3.48 3.48 0 0 1 2.22-.27c.3.06.53.2.71.4.2.22.39.45.56.7.04.06.06.12.06.19-.01.5-.07.98-.17 1.48-.05.21-.14.4-.27.57A7.48 7.48 0 0 1 22.2 21c-.15.08-.39.13-.7.15-.18 0-.31.02-.4.04-.2.04-.53 0-.96-.1l-.08-.02a.17.17 0 0 1-.11-.09.97.97 0 0 0-.26-.29.87.87 0 0 1-.23-.27c-.27-.48-.37-1-.3-1.59a2 2 0 0 1 .48-1.16 3.51 3.51 0 0 0 .48-.7c.07-.1.15-.18.24-.24l.24-.14c.19-.1.32-.19.4-.27.17-.16.39-.3.66-.43Z" fill="#FEED09"/><path d="M14.97 17.78c-.08.23-.2.43-.38.6a.35.35 0 0 0-.1.23c0 .06-.02.1-.04.16-.31.6-.59 1.21-.82 1.83-.05.12-.17.31-.37.58a.27.27 0 0 0-.05.15c-.01.15-.05.3-.1.45-.07.17-.11.31-.13.42-.02.18-.07.45-.14.8-.11.51-.17.9-.17 1.16v2.57c0 .05.02.08.03.12l.03.06c.02.03.03.06.03.1.01.38.1.76.24 1.14.2.54.44 1.03.7 1.46.1.14.15.3.19.48 0 .04.02.07.05.1l.03.02c.04.02.06.05.07.08.15.48.35.94.59 1.37.02.06.07.1.13.16.06.04.1.08.12.12.05.08.08.07.11 0 0-.02.01-.02.02-.02.02 0 .02.01.02.03 0 .06.02.1.06.12.05.03.08.02.1-.02a.24.24 0 0 1 .1-.08c-.08.68 0 1 .2.99.32.53.76.9 1.33 1.1.09.03.2.09.34.17.14.09.25.15.33.17.2.07.38.16.55.26.44.25.84.46 1.22.63.3.13.6.2.9.18.17 0 .34.03.51.08.29.1.6.15.94.15 1.26.02 2.46 0 3.6-.03.24-.01.46-.07.67-.17.18-.09.37-.14.57-.15.08 0 .19-.03.32-.09.11-.04.2-.07.27-.08.14-.03.28-.08.41-.16l.35-.24c.1-.1.23-.17.36-.24.61-.3 1.23-.58 1.86-.81.05-.03.1-.06.13-.1.16-.2.37-.32.62-.38a.23.23 0 0 0 .17-.14c.03-.08 0-.1-.07-.1-.17 0-.3-.02-.37-.08l2.24-.02c.12 0 .18-.06.18-.19v-2.48l.05.29c.01.06.05.07.1.04l.4-.3a5 5 0 0 1 .38-.33c.29-.22.54-.47.76-.76.05-.06.12-.1.2-.08l.17.01c.06.01.1-.02.1-.08l.08-.57-.01 4.34c0 .1.04.14.13.13h1.7c.1.01.17.04.23.07.06.05.06.08 0 .12a.31.31 0 0 0-.19.24.28.28 0 0 1-.13.2 4 4 0 0 0-.8.68.4.4 0 0 1-.18.11.9.9 0 0 0-.32.2c-.43.37-.84.77-1.24 1.2a.15.15 0 0 1-.14.04c-.04-.01-.08 0-.12.03-.27.23-.54.48-.81.75a1.5 1.5 0 0 1-.56.36c-.16.06-.39.17-.68.34a5.6 5.6 0 0 1-.6.31c-.18.08-.35.18-.51.32-.15.12-.39.25-.73.4-.73.28-1.41.54-2.06.75-.2.06-.37.1-.55.13-.34.05-.6.1-.76.17a3.7 3.7 0 0 1-1.49.27.13.13 0 0 0-.1.04v.02c0 .05-.01.07-.05.06-.4-.02-.8 0-1.23.03-.3.03-.6.02-.9-.03l-1.04-.15a6.7 6.7 0 0 1-1.44-.34 2.54 2.54 0 0 0-.55-.14 3.63 3.63 0 0 1-.94-.25c-.03 0-.11-.05-.25-.14a.97.97 0 0 0-.21-.08 39.4 39.4 0 0 1-1.14-.52c-.15-.08-.3-.2-.48-.4a.7.7 0 0 0-.18-.14l-.88-.49c-.15-.08-.3-.2-.41-.36a.82.82 0 0 1-.1-.18c-.06-.13-.12-.22-.19-.26a3.54 3.54 0 0 1-1.05-.93c-.02-.03-.04-.03-.08-.02-.02 0-.02 0-.02-.02a.54.54 0 0 0-.27-.49 1.3 1.3 0 0 1-.33-.3l-.21-.27c-.08-.1-.13-.2-.17-.32-.04-.1-.08-.22-.1-.33-.04-.12-.1-.27-.2-.43l-.84-1.52a3.5 3.5 0 0 1-.31-1.03l-.29-1.8c-.1-.55-.08-1.4.05-2.58.11-1.13.29-2.1.5-2.92.19-.65.5-1.44.97-2.37.17-.1.27-.25.3-.45 0-.05.02-.1.05-.15a.89.89 0 0 0 .13-.42c.2-.25.38-.52.54-.8a5.29 5.29 0 0 1 1.05-1.36Z" fill="#DD851A"/><path d="M13.38 19.94c0 .15-.05.29-.13.42a.4.4 0 0 0-.05.15.57.57 0 0 1-.3.45l.48-1.02Z" fill="#C87516"/><path d="m15.46 23.08 3.27.02 3.05 5.18c.24.42.32.39.22-.08a24.47 24.47 0 0 1-.25-5c0-.09.04-.13.12-.12 1.02.03 2.07.04 3.16.01.08 0 .12.03.14.11.02.07.01.18-.01.31l.01 3.13.01 6.15c0 .08-.04.13-.13.13h-3.19a.2.2 0 0 1-.18-.1l-2.97-4.9c-.14-.24-.2-.22-.17.05l.07.54c.05.42.08.73.09.94.02 1.15.02 2.28.02 3.4 0 .06-.04.1-.1.1h-3.13c-.21.02-.28-.3-.2-.98l-.04-8.75c0-.06.03-.1.07-.12a.27.27 0 0 1 .14-.02Z" fill="#373737"/><path d="m30.11 23.1 2.62.02c.04 0 .06.03.06.07v2.48c0 .06-.03.09-.1.09l-2.79-.02c-.11 0-.16.05-.16.16v.64c0 .13.07.2.2.19l2.52-.02c.04 0 .07.03.07.07l-.02 2.39c0 .05-.03.07-.08.07l-1.12-.01c.24-.1.53-.12.88-.08.15.02.23-.04.22-.2l-.08-1.53c-.01-.25-.14-.37-.4-.35-.54.04-1.14.04-1.77 0-.39-.03-.58-.24-.58-.62v-.25c0-.42.22-.62.63-.61l2.3.04c.1 0 .15-.04.15-.14.02-.65-.01-1.3-.09-1.96-.01-.11-.08-.15-.18-.1a.9.9 0 0 1-.32.05c-1.8.02-3.6.02-5.4 0-.11 0-.17.06-.2.16-.03.27-.06.6-.06.99l-.02 2.26c0 .64.02 1.37.06 2.18.05 1.15.04 2.29-.03 3.4 0 .03-.02.06-.04.09l-.06.06c-.06.06-.1.05-.12-.03l-.05-.2.02-5.91V23.2c0-.08.03-.11.1-.11l3.84.02ZM35.76 23.11l4.8.03c.06 0 .1.02.12.07.04.07.04.17.02.29a.3.3 0 0 1-.05.15c-.04.06-.08.05-.11 0a.35.35 0 0 0-.13-.14.2.2 0 0 0-.12-.03c-.45.04-1.27.05-2.48.02a136.3 136.3 0 0 0-4.14-.03c-.13 0-.2.07-.2.2 0 .26.02.54.05.82.01.16 0 .4-.06.72-.04.28-.06.49-.06.63 0 .18.1.26.27.24.39-.04.77-.01 1.14.08l-1.55.1c-.06 0-.08-.02-.08-.08.06-.99.06-1.98 0-2.97 0-.07.03-.1.1-.1h2.48Z" fill="#0B0B09"/><path d="m31.31 29.23-1.43.02c-.07 0-.1.04-.1.12v.74c0 .08.04.12.12.12h3.03l-.01 2.5c0 .12-.06.18-.18.18l-2.24.02-4.22.02c-.08 0-.12-.04-.13-.12v-.44l.05.2c.02.08.06.1.12.03l.06-.06a.15.15 0 0 0 .04-.1c.07-1.1.08-2.24.03-3.39-.04-.81-.06-1.54-.06-2.18l.02-2.26c0-.39.03-.72.07-.99.02-.1.08-.15.19-.15h5.4a.9.9 0 0 0 .32-.07c.1-.04.17 0 .18.11.08.65.1 1.3.1 1.96-.01.1-.06.14-.16.14l-2.3-.04c-.41-.01-.62.2-.63.61v.25c0 .38.2.59.58.61.63.05 1.23.05 1.78.01.25-.02.38.1.4.35l.07 1.53c0 .16-.07.22-.22.2a1.7 1.7 0 0 0-.88.08ZM40.7 23.5v2.52c0 .21-.1.3-.3.26a6.43 6.43 0 0 0-1.49-.08c-.11 0-.17.07-.17.18v6.29c0 .17-.09.26-.26.26h-3.2c-.09 0-.13-.04-.13-.13v-4.34l.03-2.14c0-.06-.03-.09-.08-.1l-.29-.06c-.37-.1-.75-.12-1.14-.08-.17.02-.26-.06-.27-.24 0-.14.02-.35.06-.63.05-.32.07-.56.06-.72a10.7 10.7 0 0 1-.04-.82c0-.13.06-.2.19-.2 1.42-.01 2.8 0 4.14.03 1.2.03 2.03.02 2.48-.02a.2.2 0 0 1 .12.03c.05.03.1.08.13.13.03.06.07.07.11.01a.3.3 0 0 0 .05-.15Z" fill="#373737"/><path d="m26.17 26.48-.02 5.9v.45c0 .08.05.12.12.12l4.23-.02c.07.06.2.08.37.07.08 0 .1.03.07.1a.23.23 0 0 1-.17.15c-.25.06-.46.18-.62.38a.33.33 0 0 1-.13.1c-.63.23-1.25.5-1.86.81-.13.07-.25.15-.37.24a3.7 3.7 0 0 1-.34.24c-.13.08-.27.13-.41.16-.07.01-.16.04-.27.08-.13.06-.24.09-.32.1-.2 0-.39.05-.57.14-.21.1-.43.16-.67.17-1.14.04-2.34.05-3.6.03-.34 0-.65-.05-.94-.15a1.47 1.47 0 0 0-.51-.08c-.3.01-.6-.05-.9-.18-.38-.17-.78-.38-1.22-.63-.17-.1-.35-.19-.55-.26a1.8 1.8 0 0 1-.33-.17 1.94 1.94 0 0 0-.34-.17c-.57-.2-1-.57-1.33-1.1l3.12-.02c.07 0 .1-.03.1-.1.01-1.11 0-2.24-.01-3.4 0-.2-.04-.51-.1-.93l-.06-.54c-.03-.27.03-.29.17-.05l2.97 4.9c.04.06.1.1.18.1h3.2c.08 0 .12-.05.12-.13v-6.15l.02.49c0 .02.01.03.03.02.03 0 .04 0 .04-.03-.01-.1.02-.19.08-.26.04-.05.08-.05.13-.02.1.07.2.08.3.02a.17.17 0 0 1 .08-.02c.1 0 .17-.06.18-.17v-.07c0-.06.04-.1.13-.12Z" fill="#F89525"/></svg>