<!-- by TradeStack --><svg width="56" height="56" viewBox="0 0 56 56" xmlns="http://www.w3.org/2000/svg"><path fill="url(#a)" d="M0 0h56v56H0z"/><path d="m48.36 29.93-.18-1.85L50.15 26h1.75l-2.01 2.33-1.06.96-.47.64ZM47 31v-5h1.5v5H47Zm3.14 0-1.57-1.94 1.2-1.16L52 31h-1.86ZM40 31v-5h2.51c.49 0 .9.08 1.26.23a1.72 1.72 0 0 1 1.12 1.66c0 .38-.1.71-.3 1-.19.27-.46.48-.82.63a3.2 3.2 0 0 1-1.26.22h-1.53l.52-.69V31H40Zm3.12 0-1.28-1.82h1.86L45 31h-1.88Zm-1.62-1.76-.52-.77h1.42c.24 0 .42-.05.54-.16.12-.1.17-.24.17-.42a.54.54 0 0 0-.17-.43.83.83 0 0 0-.54-.16h-1.42l.52-.76v2.7Zm-6 1.76c-1.25 0-2.5-.92-2.5-2.5s1.26-2.5 2.5-2.5 2.5.92 2.5 2.5-1.26 2.5-2.5 2.5Zm0-1.3c.58 0 1.07-.53 1.07-1.2 0-.67-.49-1.2-1.07-1.2-.58 0-1.07.53-1.07 1.2 0 .67.48 1.2 1.07 1.2ZM25.51 31 24 26h1.64l1.22 4.22h-.82l1.3-4.22h1.46l1.2 4.22h-.79L30.5 26H32l-1.51 5h-1.7l-1-3.46h.47L27.22 31h-1.7Zm-6.76 0v-3.7H17V26h5v1.3h-1.75V31h-1.5Zm-6.37-3.14H15v1.21h-2.62v-1.21Zm.12 1.87H15V31h-4v-5h4v1.27h-2.5v2.46ZM4 31v-5h1.4L8 29.04h-.5V26H9v5H7.6L5 27.96h.49V31H4Z" fill="#F0F3FA"/><defs><linearGradient id="a" x1="10.42" y1="9.71" x2="68.15" y2="76.02" gradientUnits="userSpaceOnUse"><stop stop-color="#1A1E21"/><stop offset="1" stop-color="#06060A"/></linearGradient></defs></svg>