<!-- by TradeStack --><svg width="56" height="56" viewBox="0 0 56 56" xmlns="http://www.w3.org/2000/svg"><path fill="#F0F3FA" d="M0 0h56v56H0z"/><path d="m44 21-2-7.53-.35 2.6a19.5 19.5 0 0 0-3.36-2.43A20.47 20.47 0 0 0 28 11c-6.44.06-12.83 3.49-16 9.18l.82.46c3.62-4.14 8.84-7.07 14.42-7.17 3.32-.06 6.65.82 9.42 2.53.88.54 1.59 1.31 2.34 2h-3l8 3Z" fill="#0994D9"/><path d="m12 35 2 7.53.35-2.6a19.5 19.5 0 0 0 3.36 2.43A20.47 20.47 0 0 0 28 45c6.44-.06 12.83-3.49 16-9.18l-.82-.46c-3.62 4.14-8.84 7.07-14.42 7.17-3.32.06-6.65-.82-9.42-2.53-.88-.54-1.59-1.31-2.34-2h3l-8-3ZM37 22h2v12h-2v-5h-6v5h-2V22h2v5h6v-5Z" fill="#8FD300"/><path d="M24 22h2v12h-1.28L19 26v8h-2V22h1.23L24 30v-8Z" fill="#0994D9"/></svg>