<?xml version='1.0' encoding='utf-8'?>
<!-- by TradeStack -->
<svg width="56" height="56" viewBox="0 0 56 56" xmlns="http://www.w3.org/2000/svg"><path fill="url(#a)" d="M0 0h56v56H0z" /><path d="M9 33H7l3-10 6 6 2-6h2l-3 10-6-6-2 6Z" fill="#F7F7F7" /><path d="m21 23-.5 2h9l.5-2h-9ZM19.5 27l-.5 2h9l.5-2h-9ZM18.5 31l-.5 2h9l.5-2h-9Z" fill="#4085A4" /><path d="M29 33h2l3.33-3.33L36 33h2.5L36 28l3-3h4l-2 8h2l2-8h3.5l.5-2H38.5l-3.28 3.45L33.5 23H31l2.59 5.17L29 33Z" fill="#F7F7F7" /><defs><linearGradient id="a" x1="10.42" y1="9.71" x2="68.15" y2="76.02" gradientUnits="userSpaceOnUse"><stop stop-color="#1A1E21" /><stop offset="1" stop-color="#06060A" /></linearGradient></defs></svg>