<!-- by TradeStack --><svg width="56" height="56" viewBox="0 0 56 56" xmlns="http://www.w3.org/2000/svg"><path fill="url(#aocxr50ho)" d="M0 0h56v56H0z"/><path d="M14 16v24h8V26.84L33.44 40H42V16h-9v13.16S26.09 20.4 22.41 16H14Z" fill="#CF4336"/><path fill-rule="evenodd" d="m34.6 20-.1-7-.1 7a8.5 8.5 0 0 0-8.4 8.4l-7 .1 7 .1a8.5 8.5 0 0 0 8.4 8.4l.1 7 .1-7a8.5 8.5 0 0 0 8.4-8.4l7-.1-7-.1a8.5 8.5 0 0 0-8.4-8.4Zm-.2.43a8.07 8.07 0 0 0-7.97 7.96l7.85-.1.11-7.86Zm-7.97 8.18a8.07 8.07 0 0 0 7.96 7.96l-.1-7.85-7.86-.11Zm8.18 7.96a8.07 8.07 0 0 0 7.96-7.96l-7.85.1-.11 7.86Zm7.96-8.18-7.85-.1-.11-7.86a8.07 8.07 0 0 1 7.96 7.96Z" fill="#fff"/><defs><linearGradient id="aocxr50ho" x1="10.16" y1="11.69" x2="46.34" y2="56" gradientUnits="userSpaceOnUse"><stop stop-color="#0D2142"/><stop offset="1" stop-color="#5682C1"/></linearGradient></defs></svg>