<?xml version='1.0' encoding='utf-8'?>
<!-- by TradeStack -->
<svg width="56" height="56" viewBox="0 0 56 56" xmlns="http://www.w3.org/2000/svg"><path fill="#F0F3FA" d="M0 0h56v56H0z" /><path d="M50.61 33H48.4v-7.93l2.22-2.03V33ZM51 21.36c0 .75-.67 1.36-1.5 1.36S48 22.1 48 21.36c0-.75.67-1.36 1.5-1.36s1.5.6 1.5 1.36ZM45 23v4h-5v-4h-2v10h2v-4.56h5V33h2V23h-2Zm-12.75.05C33.68 22.99 37 23 37 23v1.47s-2.68-.02-3.97.03c-.53 0-1.03.07-1.52.23-.38.12-.7.27-1 .53-.65.62-.8 1.47-.85 2.3a4.6 4.6 0 0 0 .4 2.44c.23.45.57.8 1.02 1.07a4.73 4.73 0 0 0 2.1.5l.47.01H37V33h-4.22c-.33 0-.65 0-.98-.03h-.07c-.4-.05-.77-.1-1.17-.18l-.57-.17a4.27 4.27 0 0 1-2.04-1.46l-.03-.04-.05-.1a5.22 5.22 0 0 1-.8-3.89c.08-.57.23-1.09.48-1.59a4.3 4.3 0 0 1 1.96-1.92c.88-.38 1.8-.53 2.74-.57ZM21.45 22c1.31 2.14 2.58 4.3 3.86 6.46.89 1.51 1.78 3.03 2.69 4.54h-2.75c-.08-.19-3.8-7.05-3.8-7.05-.76 1.4-1.47 2.78-2.18 4.16l-.77 1.5s.02.05.05.05h4.82l.71 1.34h-6.44c-.16 0-.3 0-.48-.02-.56-.12-1.04-.43-1.14-.97-.05-.33 0-.66.18-.96.85-1.54 2.48-4.32 3.7-6.4.81-1.37 1.44-2.44 1.55-2.65ZM6.22 23.02H5v9.96h1.46V31.9c0-2.32-.02-7.4 0-7.39.77 1.2 1.49 2.35 2.2 3.5a249.53 249.53 0 0 0 2.23 3.54c.28.4.55.77.96 1.06.58.42 1.47.4 2.32.38H15V23h-1.47v8.52c-.73-1.1-1.42-2.22-2.1-3.34-.78-1.25-1.56-2.51-2.41-3.8l-.03-.05a3.87 3.87 0 0 0-.76-.86c-.58-.45-1.3-.45-2-.45Z" fill="#EE333F" /></svg>