<?xml version='1.0' encoding='utf-8'?>
<!-- by TradeStack -->
<svg width="56" height="56" viewBox="0 0 56 56" xmlns="http://www.w3.org/2000/svg"><path fill="#F0F3FA" d="M0 0h56v56H0z" /><path d="m35.14 21.06.02 1.88a31.98 31.98 0 0 1-2.67 11.5c0 .02 0 .04.02.05l-.04.02a.04.04 0 0 0-.02.02l-1.51 3.06A27.01 27.01 0 0 1 26.13 44h-.18l-.4-.35a.25.25 0 0 1-.05-.35 29.13 29.13 0 0 0 3.74-6.43c.45-.9.82-1.83 1.13-2.78.04-.12.03-.17-.03-.16.07-.04.1-.09.12-.13A28.3 28.3 0 0 0 31.98 23a9.08 9.08 0 0 0-.34-2.13c-.48-2.5-2.04-5.18-4.87-5.46-.79-.07-1.66.06-2.6.4-1.52.55-2.83 1.5-3.99 2.58-.12.12-.26.13-.4.03l-.28-.2c-.16-.12-.18-.25-.06-.4a18.9 18.9 0 0 1 4.33-4.14 10.1 10.1 0 0 1 3.36-1.5c.82-.2 1.6-.23 2.37-.1 4.23.8 5.38 5.44 5.64 8.98Z" fill="#7A9B3F" /><path d="M16.87 24a19.9 19.9 0 0 0 2.4 2.66 35.14 35.14 0 0 0 4.84 4.04 26.16 26.16 0 0 0 6.23 3.23c.06-.01.07.04.03.16-.3.95-.68 1.88-1.13 2.78a32.66 32.66 0 0 1-10.51-7.89l-.96-1.04-2.24-3.04c-1-1.5-1.83-3.1-2.51-4.8-.08-.2-.02-.35.2-.42l.25-.1c.2-.07.36-.02.47.17.82 1.52 1.8 2.94 2.93 4.26Z" fill="#1D4488" /><path d="M31.64 20.87c.2.68.3 1.4.34 2.12-2.82.14-5.54.64-8.18 1.5-1.6.53-3.11 1.25-4.54 2.17A19.9 19.9 0 0 1 16.87 24a26.43 26.43 0 0 1 7.74-2.6c2.39-.42 4.73-.6 7.03-.54ZM35.14 21.06l.95.12c2.76.35 5.4 1.08 7.91 2.19v.2l-.2.46a.23.23 0 0 1-.1.12.24.24 0 0 1-.17.01 32.37 32.37 0 0 0-8.38-1.22v-1.88Z" fill="#FBB428" /><path d="m30.94 37.6 1.51-3.07.02-.02.04-.02c2.64.63 5.64.17 7-2.32 1.05-1.9.6-4.82-.17-6.82-.07-.19-.01-.32.18-.4l.36-.17c.13-.06.23-.03.3.1 2 3.63 4 9.91-.32 12.73-1.81 1.18-4.37 1.15-6.43.7-.79-.18-1.62-.42-2.49-.72Z" fill="#1D4488" /><path d="m15.53 24.9 2.24 3.04a5.77 5.77 0 0 0-1.55 2.5c-.98 3.26 2.36 5.92 5 7.19.12.05.21.14.26.26.06.11.07.24.04.36l-.04.13c-.08.2-.22.26-.43.2-2.66-.81-5.2-2-7.16-3.94-2.22-2.2-2.57-5.22-.6-7.7.65-.82 1.4-1.5 2.24-2.04Z" fill="#FBB428" /></svg>