<?xml version='1.0' encoding='utf-8'?>
<!-- by TradeStack -->
<svg width="56" height="56" viewBox="0 0 56 56" fill="none" xmlns="http://www.w3.org/2000/svg">
<rect width="56" height="56" fill="#D8EBF9" />
<path d="M4 31.3738L4 26.6262C4 26.2163 4.18447 26 4.53398 26H5.39806C5.74757 26 6 26.2163 6 26.6262C6 26.6701 6 27 6 27C6.23301 26.5446 6.32039 26 7.20388 26C8.21359 26 9 26.5465 9 28.1973V31.3738C9 31.7837 8.81553 32 8.46602 32H7.53398C7.18447 32 7 31.7837 7 31.3738V29C7 28.4535 6.86893 28 6.5 28C6.13107 28 6 28.5161 6 29.3472V31.3738C6 31.7837 5.81553 32 5.46602 32H4.53398C4.18447 32 4 31.7837 4 31.3738Z" fill="#27247B" />
<path d="M10 31.3592V26.6408C10 26.2214 10.2197 26 10.6358 26H11.3642C11.7803 26 12 26.2214 12 26.6408V31.3592C12 31.7786 11.7803 32 11.3642 32H10.6358C10.2197 32 10 31.7786 10 31.3592Z" fill="#27247B" />
<path d="M20 31.3846V24.6154C20 24.2126 20.2214 24 20.6408 24H21.3748C21.7942 24 22 24.2126 22 24.6154C22 25.4103 22 26.2051 22 27H22.0233C22.3612 26.4294 23.0524 26 23.8447 26C25.0563 26 26 26.6406 26 28.2629V31.3846C26 31.7874 25.7786 32 25.3592 32H24.6408C24.2214 32 24 31.7874 24 31.3846V28.621C24 28.0839 23.7631 28 23.3204 28C22.4466 28 22 28.5203 22 29.4042V31.3846C22 31.7874 21.7942 32 21.3748 32H20.6408C20.2214 32 20 31.7874 20 31.3846Z" fill="#27247B" />
<path d="M27 30.003V28.0061H26.605C26.2129 28.0061 26 27.8042 26 27.4219V26.5842C26 26.2018 26.2129 26 26.6162 26H27V25.5842C27 25.2018 27.2129 25 27.6162 25H28.3838C28.7871 25 29 25.2018 29 25.5842V26H29.3838C29.7871 26 30 26.2018 30 26.5842V27.4219C30 27.8042 29.7871 28.0061 29.395 28.0061H29V29.6631C29 30.1305 29.0364 30.3111 29.3838 30.3536C29.8319 30.4067 30 30.5341 30 30.9378V31.4158C30 31.8513 29.7199 32 29.2045 32C28.3529 32 27 31.6282 27 30.003Z" fill="#27247B" />
<path d="M31 31.388V28H30.618C30.2135 28 30 27.7886 30 27.388L30 26.6119C30 26.2114 30.2135 26 30.618 26H31V25.7218C31 23.8971 32.5843 24.0001 33.191 24.0001H33.382C33.7865 24.0001 34 24.2115 34 24.612V25.0237C34 25.7921 33 25.1093 33 25.822V26H33.382C33.7865 26 34 26.2114 34 26.6119V27.388C34 27.7886 33.7865 28 33.382 28H33V31.388C33 31.7886 32.7865 32 32.382 32H31.618C31.2135 32 31 31.7886 31 31.388Z" fill="#27247B" />
<path fill-rule="evenodd" clip-rule="evenodd" d="M42.9897 26C41.3356 26 40 27.2134 40 29.0167C40 30.8089 41.3356 32 43 32C44.6644 32 46 30.8089 46 29.0167C46 27.2134 44.6644 26 42.9897 26ZM42 29.0176C42 29.9198 42.4615 30.4706 43 30.4706C43.5385 30.4706 44 29.9198 44 29.0176C44 28.1036 43.5385 27.5294 43 27.5294C42.4615 27.5294 42 28.1036 42 29.0176Z" fill="#27247B" />
<path fill-rule="evenodd" clip-rule="evenodd" d="M36.9897 26C35.3356 26 34 27.2134 34 29.0167C34 30.8089 35.3356 32 37 32C38.6644 32 40 30.8089 40 29.0167C40 27.2134 38.6644 26 36.9897 26ZM36 29.0176C36 29.9198 36.4615 30.4706 37 30.4706C37.5385 30.4706 38 29.9198 38 29.0176C38 28.1036 37.5385 27.5294 37 27.5294C36.4615 27.5294 36 28.1036 36 29.0176Z" fill="#27247B" />
<path d="M46 29.0289C46 27.2352 47.0809 26 48.5919 26C49.739 26 50 26.63 50 26.63C50 26.5 50 26.4195 50 26.3769V24.6052C50 24.2091 50.2096 24 50.6066 24H51.3934C51.7904 24 52 24.2091 52 24.6052V31.2627C52 31.6589 51.7904 32 51.3934 32H50.7279C50.3309 32 50 31.6809 50 31.3177C50 31.2858 50 31.2627 50 31.1747C50 31.1747 49.7279 32 48.5588 32C47.0147 32 46 30.7895 46 29.0289ZM48 29C48 29.8473 48.3713 30.5 49.0331 30.5C49.6066 30.5 50 29.9794 50 29C50 28.3177 49.7831 27.5 49.0331 27.5C48.4375 27.5 48 28.1307 48 29Z" fill="#27247B" />
<path fill-rule="evenodd" clip-rule="evenodd" d="M16 30C17.6569 30 19 29.1046 19 28C19 27.9292 18.9945 27.8593 18.9837 27.7904L19.2755 27.6684C19.4057 27.614 19.4914 27.4792 19.4914 27.329V26.7423C19.4914 26.5143 19.2988 26.3424 19.0903 26.3844L18.1144 26.5812C17.572 26.222 16.8249 26 16 26C14.3431 26 13 26.8954 13 28C13 28.4507 13.2236 28.8666 13.6009 29.201C13.3635 29.3882 13.1071 29.6891 13.1071 30.0602C13.1071 30.5783 13.5357 30.9237 13.75 31.0316C13.5 31.1756 13 31.6037 13 32.165C13 32.8666 13.8036 34 16.0536 34C18.3036 34 19 32.8127 19 32.0571C19 31.3015 18.4643 30.5459 16.6964 30.5459C14.9286 30.5459 14.3393 30.2221 14.3393 29.9522C14.3393 29.8584 14.4135 29.7883 14.5136 29.7376C14.9518 29.9046 15.4592 30 16 30ZM16 29C16.5523 29 17 28.5523 17 28C17 27.4477 16.5523 27 16 27C15.4477 27 15 27.4477 15 28C15 28.5523 15.4477 29 16 29ZM16.2143 31.6253C15.5714 31.6253 15.0536 31.4814 14.875 31.4094C14.7857 31.5174 14.6071 31.7872 14.6071 32.0031C14.6071 32.2729 15.25 32.8127 16 32.8127C16.75 32.8127 17.125 32.2729 17.125 32.0571C17.125 31.8412 17.0179 31.6253 16.2143 31.6253Z" fill="#27247B" />
<path fill-rule="evenodd" clip-rule="evenodd" d="M11.1916 22.1406C10.7142 22.2355 10.3551 22.6469 10.3551 23.14C10.3551 23.7033 10.8239 24.16 11.4021 24.16C11.6244 24.16 11.8305 24.0925 12 23.9775C11.7953 24.5718 11.2189 25 10.5398 25C9.68941 25 9 24.3284 9 23.5C9 22.6716 9.68941 22 10.5398 22C10.7728 22 10.9937 22.0504 11.1916 22.1406Z" fill="#27247B" />
</svg>