<?xml version='1.0' encoding='utf-8'?>
<!-- by TradeStack -->
<svg width="56" height="56" viewBox="0 0 56 56" xmlns="http://www.w3.org/2000/svg"><path fill="#F0F3FA" d="M0 0h56v56H0z" /><path d="M38.8 35c2.35 0 4.2 1.59 4.2 4.01S41.14 43 38.8 43H36v-8h2.8Zm-.07 6.64c1.6 0 2.63-1.04 2.63-2.63 0-1.59-1.03-2.66-2.63-2.66H37.5v5.29h1.23Zm-6.23.09H35V43h-4v-8h1.5v6.73ZM26 43a4.05 4.05 0 0 1-3.46-1.94A4.02 4.02 0 0 1 22 39a3.94 3.94 0 0 1 4-4 4 4 0 0 1 2.02.51A3.94 3.94 0 0 1 30 39a4 4 0 0 1-1.98 3.5c-.61.34-1.28.51-2.01.51Zm0-1.4c.48 0 .89-.1 1.25-.31.36-.22.64-.52.84-.92a3 3 0 0 0 .3-1.38c0-.52-.1-.97-.3-1.36-.2-.4-.48-.7-.84-.9-.36-.22-.77-.32-1.24-.32s-.9.1-1.26.31-.64.51-.84.9a3 3 0 0 0-.3 1.37c0 .53.1.99.3 1.38.2.4.48.7.84.92.37.2.79.31 1.26.31Zm-7.04-4.14a1.86 1.86 0 0 0-.76-.75c-.32-.18-.7-.26-1.12-.26-.47 0-.9.1-1.26.31a2.2 2.2 0 0 0-.86.9c-.2.39-.31.84-.31 1.35 0 .52.1.98.31 1.36.21.4.5.7.88.9.38.21.81.32 1.3.32a2.3 2.3 0 0 0 1.51-.48c.39-.32.65-.76.77-1.33H17v-1.2h4v1.37A3.9 3.9 0 0 1 17.1 43a4.4 4.4 0 0 1-2.1-.5 3.85 3.85 0 0 1-2-3.5c0-.76.18-1.45.53-2.06.36-.61.85-1.09 1.46-1.42a4.26 4.26 0 0 1 2.09-.52c.9 0 1.69.22 2.35.65a3.28 3.28 0 0 1 1.38 1.8h-1.85Zm27-6.98h-2.93L42.55 32H41l2.64-8h1.72L48 32h-1.56l-.48-1.52Zm-.4-1.28-1.07-3.35-1.06 3.35h2.13Zm-9.06-3.9v2H40v1.28h-3.5v2.12H40V32h-5v-8h5v1.3h-3.5ZM34 32h-1.5l-4-5.48V32H27v-8h1.5l4 5.5V24H34v8Zm-8-8v8h-1.5v-8H26Zm-7.5 0v4.9c0 1.07.53 1.66 1.49 1.66.97 0 1.51-.6 1.51-1.66V24H23v4.9c0 1.77-1.23 3.1-3.03 3.1-1.8 0-2.97-1.35-2.97-3.1V24h1.5Zm-4.54 2.46a1.86 1.86 0 0 0-.76-.75c-.32-.18-.7-.26-1.12-.26-.47 0-.9.1-1.26.31a2.2 2.2 0 0 0-.86.9c-.2.39-.31.84-.31 1.35 0 .52.1.98.31 1.36.21.4.5.7.88.9.38.21.81.32 1.3.32a2.3 2.3 0 0 0 1.51-.48c.39-.32.65-.76.77-1.33H12v-1.2h4v1.37A3.9 3.9 0 0 1 12.1 32a4.4 4.4 0 0 1-2.1-.5A3.85 3.85 0 0 1 8 28c0-.76.18-1.45.53-2.06.36-.61.85-1.09 1.46-1.42a4.26 4.26 0 0 1 2.09-.52c.9 0 1.69.22 2.35.65a3.28 3.28 0 0 1 1.38 1.8h-1.85ZM41 13l-2.19 7.99h-1.85l-1.47-5.69-1.54 5.69-1.84.01L30 13h1.68l1.38 6.2 1.6-6.2h1.75l1.5 6.17 1.4-6.17H41Zm-15.5 1.3v2H29v1.28h-3.5v2.12H29V21h-5v-8h5v1.3h-3.5ZM23 21h-1.5l-4-5.48V21H16v-8h1.5l4 5.5V13H23v8Z" /></svg>