<?xml version='1.0' encoding='utf-8'?>
<!-- by TradeStack -->
<svg width="56" height="56" viewBox="0 0 56 56" xmlns="http://www.w3.org/2000/svg"><path fill="#181B1E" d="M0 0h56v56H0z" /><path d="M32 22h4.73L48 35h-4.73L32 22ZM7 22h2.33L15 29.58V22h3v13h-2.33L10 27.4V35H7V22Z" fill="#fff" /><path d="M25 34.97C31.49 25.1 45.9 21.47 52 21c-12.52 2.73-18.21 10.45-20 13.97h-7Z" fill="#fff" /><path d="M27.22 34.97C35.46 24.99 46.84 21.5 52 21c-11.43 3.47-17.22 10.75-19.19 13.97h-5.59Z" fill="#8CC850" /><path d="M25.28 34.97A6.39 6.39 0 0 0 31.55 28H25v2h3.66a3.5 3.5 0 1 1-.71-4h3.14a6.29 6.29 0 0 0-5.8-4A6.39 6.39 0 0 0 19 28.48a6.39 6.39 0 0 0 6.28 6.49Z" fill="#fff" /></svg>