<?xml version='1.0' encoding='utf-8'?>
<!-- by TradeStack -->
<svg width="56" height="56" viewBox="0 0 56 56" xmlns="http://www.w3.org/2000/svg"><path fill="#F0F3FA" d="M0 0h56v56H0z" /><path d="M25.52 22.73a41.38 41.38 0 0 0 2.3-6.6l.05-.08a.15.15 0 0 1 .1-.04l.28-.01c.03 0 .06 0 .09.03l.05.08a41.72 41.72 0 0 0 2.28 6.72v.1c0 .03-.03.06-.05.07-.84.53-1.63 1.12-2.38 1.8a.15.15 0 0 1-.21 0 14.98 14.98 0 0 0-2.48-1.94.1.1 0 0 1-.04-.06.1.1 0 0 1 0-.07Z" fill="#152630" /><path d="m24.7 29.19-1.52-1.62-.01-.03v-.03l1.94-3.82.02-.02a.06.06 0 0 1 .07 0 15.71 15.71 0 0 1 2.28 1.78.12.12 0 0 1-.03.13 17.24 17.24 0 0 0-2.64 3.62.09.09 0 0 1-.11-.01ZM31.44 29.22h-.03a.05.05 0 0 1-.04-.02 17.17 17.17 0 0 0-2.58-3.66.1.1 0 0 1 0-.07l.02-.03a15 15 0 0 1 2.23-1.64l.02.01.02.03 1.88 3.76a.16.16 0 0 1-.03.19l-1.49 1.43Z" fill="#C42133" /><path d="M28.13 26.15h.02l.02.01a15.7 15.7 0 0 1 2.59 3.7.23.23 0 0 1-.03.24 16.02 16.02 0 0 0-2.62 4.9c0 .01-.02.02-.05.02-.02 0-.04-.01-.04-.03a16.07 16.07 0 0 0-2.55-4.93.23.23 0 0 1-.02-.25 15.64 15.64 0 0 1 2.68-3.66Z" fill="#8A9398" /><path d="m16.02 36.82-.01-.02-.01-.02a.05.05 0 0 1 .01-.04 36.17 36.17 0 0 0 6.62-8.37.13.13 0 0 1 .11-.01c.02 0 .04.02.05.03l1.51 1.62c.02.02.04.05.04.08l-.01.1a17.2 17.2 0 0 0-1.48 5.3c0 .03-.01.06-.03.08a.11.11 0 0 1-.07.03 40.84 40.84 0 0 0-6.7 1.25.1.1 0 0 0-.03-.03ZM40 36.95v.02a.05.05 0 0 1-.03.03h-.03a39.08 39.08 0 0 0-6.57-1.33.1.1 0 0 1-.06-.03 16.47 16.47 0 0 0-1.43-5.37.3.3 0 0 1-.03-.18.29.29 0 0 1 .09-.16l1.46-1.4a.09.09 0 0 1 .11-.01 36.64 36.64 0 0 0 6.39 8.27c.06.06.1.11.1.16Z" fill="#152630" /><path d="M23.77 35.49h-.03l-.02-.02-.01-.03v-.03a16.18 16.18 0 0 1 1.23-4.49l.04-.02.04.01.03.03a15.26 15.26 0 0 1 2.17 4.35l-.02.02-.03.01-3.4.17ZM32.37 35.55l-3.41-.21a.06.06 0 0 1-.05-.03v-.06a15.27 15.27 0 0 1 2.26-4.31.08.08 0 0 1 .08 0l.03.04a16.23 16.23 0 0 1 1.14 4.55.06.06 0 0 1-.05.02Z" fill="#C42133" /><path fill-rule="evenodd" d="M28 44a16 16 0 1 0 0-32 16 16 0 0 0 0 32Zm0 1a17 17 0 1 0 0-34 17 17 0 0 0 0 34Z" fill="#152630" /></svg>