<!-- by TradeStack --><svg width="56" height="56" viewBox="0 0 56 56" xmlns="http://www.w3.org/2000/svg"><path fill="#F0F3FA" d="M0 0h56v56H0z"/><path d="M13 13.01V43L43 13H13Z" fill="#1C8938"/><path d="M43 42.99V13L13 43h30Z" fill="#012E4F"/><path d="M29.92 24.69 28 13l-1.92 11.69-4.88-3.52 3.5 4.9L13.06 28l11.64 1.93-3.5 4.9 4.88-3.52L28 43l1.92-11.69 4.88 3.52-3.5-4.9L42.94 28 31.3 26.07l3.5-4.9-4.88 3.52Z" fill="#fff"/><path d="M25 25v6h1.44v-3.33L29.58 31H31v-6h-1.42v3.52L26.44 25H25Z" fill="#012E4F"/></svg>