<?xml version='1.0' encoding='utf-8'?>
<!-- by TradeStack -->
<svg width="56" height="56" viewBox="0 0 56 56" xmlns="http://www.w3.org/2000/svg"><path fill="#F0F3FA" d="M0 0h56v56H0z" /><path d="M15 15.5a1.5 1.5 0 1 1-3 0 1.5 1.5 0 0 1 3 0Zm0 10a1.5 1.5 0 1 1-3 0 1.5 1.5 0 0 1 3 0ZM13.5 32a1.5 1.5 0 1 0 0-3 1.5 1.5 0 0 0 0 3Zm1.5 3.5a1.5 1.5 0 1 1-3 0 1.5 1.5 0 0 1 3 0ZM13.5 42a1.5 1.5 0 1 0 0-3 1.5 1.5 0 0 0 0 3ZM15 20.5a1.5 1.5 0 1 1-3 0 1.5 1.5 0 0 1 3 0Zm3.5-3.5a1.5 1.5 0 1 0 0-3 1.5 1.5 0 0 0 0 3Zm1.5 8.5a1.5 1.5 0 1 1-3 0 1.5 1.5 0 0 1 3 0Zm3.5 1.5a1.5 1.5 0 1 0 0-3 1.5 1.5 0 0 0 0 3ZM20 30.5a1.5 1.5 0 1 1-3 0 1.5 1.5 0 0 1 3 0ZM18.5 37a1.5 1.5 0 1 0 0-3 1.5 1.5 0 0 0 0 3Zm1.5 3.5a1.5 1.5 0 1 1-3 0 1.5 1.5 0 0 1 3 0ZM18.5 22a1.5 1.5 0 1 0 0-3 1.5 1.5 0 0 0 0 3Zm6.5-1.5a1.5 1.5 0 1 1-3 0 1.5 1.5 0 0 1 3 0Zm14-5a1.5 1.5 0 1 1-3 0 1.5 1.5 0 0 1 3 0Zm0 10a1.5 1.5 0 1 1-3 0 1.5 1.5 0 0 1 3 0ZM28 27a1.5 1.5 0 1 0 0-3 1.5 1.5 0 0 0 0 3Zm11 3.5a1.5 1.5 0 1 1-3 0 1.5 1.5 0 0 1 3 0ZM28 32a1.5 1.5 0 1 0 0-3 1.5 1.5 0 0 0 0 3Zm6-1.5a1.5 1.5 0 1 1-3 0 1.5 1.5 0 0 1 3 0Zm3.5 6.5a1.5 1.5 0 1 0 0-3 1.5 1.5 0 0 0 0 3ZM34 35.5a1.5 1.5 0 1 1-3 0 1.5 1.5 0 0 1 3 0Zm3.5 6.5a1.5 1.5 0 1 0 0-3 1.5 1.5 0 0 0 0 3ZM39 20.5a1.5 1.5 0 1 1-3 0 1.5 1.5 0 0 1 3 0Zm3.5-3.5a1.5 1.5 0 1 0 0-3 1.5 1.5 0 0 0 0 3Zm1.5 8.5a1.5 1.5 0 1 1-3 0 1.5 1.5 0 0 1 3 0ZM42.5 32a1.5 1.5 0 1 0 0-3 1.5 1.5 0 0 0 0 3Zm1.5 3.5a1.5 1.5 0 1 1-3 0 1.5 1.5 0 0 1 3 0ZM42.5 42a1.5 1.5 0 1 0 0-3 1.5 1.5 0 0 0 0 3ZM44 20.5a1.5 1.5 0 1 1-3 0 1.5 1.5 0 0 1 3 0Z" fill="#8F7AE5" /></svg>