<!-- by TradeStack --><svg width="56" height="56" viewBox="0 0 56 56" xmlns="http://www.w3.org/2000/svg"><path fill="#F0F3FA" d="M0 0h56v56H0z"/><path d="M6.5 32H4l3-7h3l2.5 5 2.5-6h37l-.5.5h-34L14 32h-3l-2.5-5-2 5Z" fill="#198A3B"/><path d="M18.7 25.27c.5-.2 1.01-.27 1.36-.27h3.9c.72 0 1.46.2 1.84.87.33.6.18 1.2.04 1.53l-.96 2.45A3.1 3.1 0 0 1 22.01 32h-3.9c-.9 0-1.62-.41-1.94-1.15-.27-.6-.2-1.29.08-1.8l.97-2.46.01-.04c.35-.7.96-1.08 1.46-1.28Zm.3 2.15-1 2.55-.02.02.13.01H22a1.15 1.15 0 0 0 1.03-.82v-.02L23.9 27h-3.83c-.14 0-.41.03-.66.13-.24.1-.35.2-.4.3ZM30 25h-2l-3 7h2l1-2.5h4L31 32h2l3-7h-2l-1 2.5h-4l1-2.5ZM36 32h-2l3.5-7h3l.5 4 3.5-4H48l-3 7h-2l2-4.5-4 4.5h-2l-.5-5-2.5 5ZM51 25h-2l-3 7h2l3-7Z" fill="#198A3B"/></svg>