<!-- by TradeStack --><svg width="56" height="56" viewBox="0 0 56 56" xmlns="http://www.w3.org/2000/svg"><path fill="#123A5E" d="M0 0h56v56H0z"/><path d="M30 13h-1v30h1V13Zm-6.25 22.97L12.5 24.35v8.24c0 1.62.24 2.86 1.99 2.96V36H9v-.45c1.85-.15 2-1.37 2-2.96V20.8c0-.7.53-.97.83-.7L23 31.86v-8.38c0-1.6 0-2.92-1.49-2.92V20H26v.55c-1.47.08-1.5 1.7-1.5 2.92v12.08c0 .6-.75.42-.75.42ZM39.06 20c1.73 0 3.03.33 3.9 1 .87.67 1.3 1.9 1.3 3.21 0 .48-.07.93-.2 1.36a2.6 2.6 0 0 1-.96 1.33 2.52 2.52 0 0 1-.9.47l-.67.23c.33.08.6.16.84.24.24.08.46.18.64.29.19.1.35.2.5.33.16.12.3.26.46.43a4.41 4.41 0 0 1 .64 4.67c-.22.52-.54.96-.95 1.33a4.4 4.4 0 0 1-1.52.82c-.6.2-1.26.29-2 .29H33v-.43c1.47-.05 2-.74 2-2.09V22.56c0-1.38-.52-2-2-2.09V20h6.06ZM37 33.48c0 .82 1.01 1.52 2.07 1.52 2.07 0 3.63-1.03 3.63-3.2a3.5 3.5 0 0 0-2.06-3.19c-.95-.42-2.62-.5-3.64-.5v5.37ZM39.32 27c1.76 0 2.87-.85 2.87-2.79A3.3 3.3 0 0 0 39.18 21c-.62 0-2.18.12-2.18.99V27h2.32Z" fill="#fff"/></svg>