<!-- by TradeStack --><svg width="56" height="56" viewBox="0 0 56 56" xmlns="http://www.w3.org/2000/svg"><path fill="#F0F3FA" d="M0 0h56v56H0z"/><path d="M27.71 12h.58c1.26.05 2.5.16 3.76.35 4.93.74 9.58 2.3 13.95 4.67v.22a30.89 30.89 0 0 1-.3 3.05c-.71 4.72-2.21 9.2-4.49 13.41A39.85 39.85 0 0 1 27.99 48a39.97 39.97 0 0 1-17.7-27.8c-.14-1-.24-2.02-.29-3.03v-.14a42.11 42.11 0 0 1 12.05-4.36 35.4 35.4 0 0 1 5.66-.67Zm.25 34.8A37.28 37.28 0 0 0 44.9 17.69v-.1l-.01-.01a38.97 38.97 0 0 0-15-4.64c-.97-.1-1.81-.14-2.68-.1a39.43 39.43 0 0 0-16.25 4.78c.02.54.06 1.05.1 1.51a39.32 39.32 0 0 0 3.47 12.35 35.6 35.6 0 0 0 7.23 10.35 38.1 38.1 0 0 0 6.19 4.99Z"/><path d="M39.43 34.67a37.17 37.17 0 0 1-11.5 11.89A37.13 37.13 0 0 1 11.2 17.74v-.01a38.93 38.93 0 0 1 15.34-4.59c.61-.04 1.23-.07 1.84-.05 1.51.05 3.03.23 4.53.5a39.02 39.02 0 0 1 11.81 4.16c-.06 1.9-.36 3.85-.78 5.7-.91 4.02-2.41 7.75-4.5 11.22ZM23 40.75a33.04 33.04 0 0 0 5 3.92c4.91-3.16 8.9-7.5 11.55-12.68a33.66 33.66 0 0 0 3.36-10.53 23.42 23.42 0 0 0 .23-2.89 34.14 34.14 0 0 0-11.34-3.92 22.2 22.2 0 0 0-5.16-.28 33.59 33.59 0 0 0-13.68 4.19v.02c0 1.83.26 3.68.66 5.47a33.08 33.08 0 0 0 9.38 16.7Z"/><path d="M27.99 43.48a32.04 32.04 0 0 1-14.12-24.36h.01c3.4-1.82 7-3.01 10.83-3.6a19.67 19.67 0 0 1 7.1.09 33.41 33.41 0 0 1 10.32 3.53c-.05.94-.16 1.9-.32 2.86-.77 4.6-2.51 9-5.13 12.88a31.8 31.8 0 0 1-8.69 8.6ZM21.9 21.41c.11.09.22.13.32.13a682.38 682.38 0 0 0 2.14-.01v-.33c0-.01 0-.02-.02-.02h-1.7c-.1 0-.3.02-.41 0-.13-.03-.17-.13-.17-.25a184.8 184.8 0 0 1-.02-1.74h-.34v1.69c0 .24.03.39.2.53Zm-4.9-.26c.1.28.32.39.6.39a630.8 630.8 0 0 0 2.2-.01v-.33l-.02-.02h-2.1c-.2 0-.35-.01-.35-.24v-1.15c0-.18.1-.25.27-.25a880.86 880.86 0 0 0 2.2-.01v-.33l-.02-.01h-2.14c-.3 0-.54.09-.64.38a.98.98 0 0 0-.03.3v1c0 .13 0 .23.03.28Zm11.9-.6v.98l.01.01h.34l.01-.01v-1.66c0-.3-.08-.55-.39-.65a1.06 1.06 0 0 0-.3-.03h-1.55c-.47 0-.66.25-.66.7a332.33 332.33 0 0 0 .01 1.65h.34l.01-.01v-.97l.01-.02h2.16l.01.02Zm2.27-.5c.03.24.22.43.46.48l.3.01h1.52c.26 0 .26.17.25.37 0 .2-.06.27-.26.27a146.58 146.58 0 0 1-2.2.02v.34h2.16c.32 0 .56-.11.65-.44.02-.1.01-.23.01-.34a.57.57 0 0 0-.59-.58h-1.7c-.27 0-.24-.2-.24-.4 0-.17.1-.24.27-.24h2.18V19.18h-2.16c-.55 0-.7.36-.65.85Zm4.82.09c.06.2.24.36.45.4h1.81c.26 0 .26.17.26.38 0 .16-.06.26-.23.26a141.5 141.5 0 0 1-2.24.02v.33l.01.01h2.16c.11 0 .2-.01.27-.03.24-.09.39-.3.39-.57 0-.1 0-.22-.02-.31a.55.55 0 0 0-.38-.41 1.11 1.11 0 0 0-.32-.04h-1.53c-.17 0-.29-.04-.3-.23 0-.23 0-.4.27-.4a7959.4 7959.4 0 0 1 2.2-.02v-.33l-.01-.01h-2.16c-.32 0-.56.12-.64.45-.03.12-.02.39.01.5Zm-18.94 2.6c-.01 0-.02 0-.02.02V23h21.84v-.24h-21.8l-.02-.01Z"/><path d="M21.9 21.41c-.17-.14-.2-.3-.2-.53a496.1 496.1 0 0 1 0-1.7h.34l.01.02v1.73c0 .12.05.22.17.25.13.02.31 0 .42 0a101.43 101.43 0 0 0 1.72.02v.33h-2.14a.51.51 0 0 1-.32-.12ZM17.6 21.54c-.28 0-.5-.11-.6-.39a1.01 1.01 0 0 1-.03-.29v-.99c0-.13 0-.23.03-.3.1-.3.34-.38.64-.38a3060.98 3060.98 0 0 0 2.15.01v.34H17.6c-.17 0-.27.07-.27.25v1.15c0 .23.15.24.35.24a396.6 396.6 0 0 0 2.11.02v.33H17.6ZM28.89 20.54h-2.16v.99l-.02.01h-.34l-.01-.01v-1.64c0-.45.19-.7.66-.7h1.54c.14 0 .24 0 .31.03.31.1.4.35.4.65a611.15 611.15 0 0 0-.02 1.67h-.34v-.98l-.02-.02Zm-.08-.96-.09-.04h-1.76c-.16 0-.23.1-.23.26a10.76 10.76 0 0 1 0 .38h2.15l.02-.01c0-.16.05-.49-.09-.59ZM31.63 20.53a.57.57 0 0 1-.46-.49c-.06-.5.1-.85.65-.85a3858.9 3858.9 0 0 1 2.17.01v.33l-.02.01H31.8c-.18 0-.27.07-.27.24 0 .2-.03.4.23.4h1.71c.34 0 .59.25.6.58 0 .11 0 .24-.02.34-.09.33-.33.44-.65.44a2574.33 2574.33 0 0 0-2.16 0v-.34l.01-.02h2.2c.19 0 .25-.08.25-.27 0-.2 0-.37-.25-.37a403.96 403.96 0 0 1-1.82 0ZM36.44 20.53a.58.58 0 0 1-.45-.4 1.3 1.3 0 0 1-.01-.49c.08-.33.32-.45.64-.45a7747.23 7747.23 0 0 0 2.17.01v.33l-.01.01h-2.19c-.27 0-.27.18-.27.41.01.19.13.23.3.23h1.53c.14 0 .25.01.32.04.2.06.32.2.38.4.02.1.01.22.02.32 0 .27-.15.48-.4.57a.87.87 0 0 1-.27.03 3091.3 3091.3 0 0 0-2.16 0v-.34a141.5 141.5 0 0 0 2.23-.02c.18 0 .23-.1.24-.26 0-.2 0-.38-.26-.38a300.42 300.42 0 0 1-1.8 0Z" fill="#BFC0C2"/><path d="M28.8 19.58c.15.1.1.43.1.59l-.02.01h-2.15v-.38c0-.16.07-.26.23-.26h1.76l.09.04Z"/><path d="M17.06 22.75H38.87v.26H17.03a.01.01 0 0 1-.01-.01v-.24c0-.01 0-.02.01-.01h.01Z" fill="#BFC0C2"/><path d="M27.96 46.8A37.28 37.28 0 0 0 44.9 17.69v-.1l-.01-.01a38.97 38.97 0 0 0-15-4.64c-.97-.1-1.81-.14-2.68-.1a39.43 39.43 0 0 0-16.25 4.78c.02.54.06 1.05.1 1.51a39.32 39.32 0 0 0 3.47 12.35 35.6 35.6 0 0 0 7.23 10.35 38.1 38.1 0 0 0 6.19 4.99Zm11.47-12.13a37.17 37.17 0 0 1-11.5 11.89 37.13 37.13 0 0 1-16.75-28.82l.01-.01c3.7-2.02 7.64-3.4 11.8-4.14 3.34-.6 6.57-.6 9.9 0a39.02 39.02 0 0 1 11.82 4.16c-.06 1.9-.37 3.85-.79 5.7-.9 4.02-2.4 7.75-4.5 11.22ZM23 40.75a33.08 33.08 0 0 1-9.37-16.7 25.64 25.64 0 0 1-.66-5.5l.46-.26a33.59 33.59 0 0 1 13.21-3.92 22.2 22.2 0 0 1 5.17.28 34.14 34.14 0 0 1 11.35 3.94c-.02.96-.1 1.92-.24 2.87-.54 3.7-1.66 7.2-3.37 10.53A32.87 32.87 0 0 1 28 44.67 33.06 33.06 0 0 1 23 40.75ZM14.1 21.32A32.04 32.04 0 0 0 28 43.48a31.8 31.8 0 0 0 8.66-8.6A32.66 32.66 0 0 0 41.81 22a26.12 26.12 0 0 0 .3-2.88 33.41 33.41 0 0 0-13.36-3.85c-1.35-.08-2.7.06-4.05.26a33.34 33.34 0 0 0-10.83 3.6c.04.74.11 1.46.22 2.19Zm17.36 17.43c-.65.06-1.45-.03-1.45-.93V24h-1.66v17.12h.02c.1-.02.22-.07.33-.13a11.36 11.36 0 0 0 2.77-2.23v-.01Zm-7.93-10.11A6.2 6.2 0 0 1 26 27.62v10.1c0 .15-.01.27-.04.34-.2.66-.83.75-1.4.69h-.01v.01A11.88 11.88 0 0 0 27 40.81a3.45 3.45 0 0 0 .67.32.02.02 0 0 0 0-.02V24.02c-.25.37-.61.7-.98.95-.63.45-1.31.82-2.01 1.14a35.24 35.24 0 0 1-2.85 1.16v3.12c0 .05.02.06.04.01.4-.67.99-1.32 1.66-1.76Z" fill="url(#axp320g3x)"/><defs><linearGradient id="axp320g3x" x1="17.23" y1="15.42" x2="30.26" y2="43.66" gradientUnits="userSpaceOnUse"><stop stop-color="#2AEDED"/><stop offset=".26" stop-color="#D2D3D4"/><stop offset=".51" stop-color="#6B6B6B"/><stop offset=".65" stop-color="#E4E6E7"/><stop offset="1" stop-color="#0FE1F5"/></linearGradient></defs></svg>