<!-- by TradeStack --><svg width="56" height="56" viewBox="0 0 56 56" xmlns="http://www.w3.org/2000/svg"><path fill="#F0F3FA" d="M0 0h56v56H0z"/><path fill-rule="evenodd" d="M45.95 26.03a11.3 11.3 0 0 0-.86-5.54c-1.5-3.44-4.73-5.95-9-6.98-4.26-1.03-9.2-.49-13.73 1.5-2.25.99-4.32 2.3-6.12 3.87a19.97 19.97 0 0 0-4.32 5.25 14.7 14.7 0 0 0-1.87 5.84 11.3 11.3 0 0 0 .86 5.54c1.5 3.44 4.73 5.95 9 6.98 4.26 1.03 9.2.49 13.73-1.5 2.25-.99 4.33-2.3 6.12-3.87a19.97 19.97 0 0 0 4.32-5.25 14.7 14.7 0 0 0 1.87-5.84ZM34.9 28.4a384.86 384.86 0 0 1-5.8-2.58c-.25-.1-.56-.08-.96.06L15 30.6a.34.34 0 0 0-.13.09.35.35 0 0 0-.08.14l-1.5 5.66c-.08.32.03.42.33.31l13.24-4.77c.14-.05.29-.05.43.01l10.67 4.76a.32.32 0 0 0 .44-.22l4.08-15.36a.61.61 0 0 0-.34-.71L31.74 15.9a1.32 1.32 0 0 0-1 .02c-3.9 1.42-8.19 2.96-12.84 4.62a.8.8 0 0 0-.51.56l-1.52 5.73a.1.1 0 0 0 .02.1.1.1 0 0 0 .1.02l13.26-4.78c.31-.11.62-.1.92.03l5.5 2.45c.09.04.16.11.2.2.05.1.06.2.04.3l-.83 3.1a.2.2 0 0 1-.1.12.2.2 0 0 1-.08.02Z" fill="#CD2D27"/></svg>