<!-- by TradeStack --><svg width="56" height="56" viewBox="0 0 56 56" xmlns="http://www.w3.org/2000/svg"><path fill="#F0F3FA" d="M0 0h56v56H0z"/><path d="M42 35V22H30.2c-2.9 0-4.2 1.43-4.2 4 0 2.8 1.6 4 4.54 4h2.74c1.15 0 1.72.5 1.72 1s-.57 1-1.72 1H25v-5.6c0-3.2-1.43-4.4-5-4.4h-6v13h3V25h2.9c1.8 0 2.1.48 2.1 2.14V35h12.37c1.9 0 3.63-2 3.63-5 0-2.4-1.73-3-4.38-3h-2.89C29.7 27 29 26.75 29 26c0-1 .98-1 2.42-1H39v10h3ZM42 17h-4v3h4v-3Z" fill="#00609C"/><path d="M44 17v20H12V20h24v-3H9v23h38V17h-3Z" fill="#00609C"/></svg>