<?xml version='1.0' encoding='utf-8'?>
<!-- by TradeStack -->
<svg width="56" height="56" viewBox="0 0 56 56" xmlns="http://www.w3.org/2000/svg"><path fill="#F0F3FA" d="M0 0h56v56H0z" /><path d="m9.4 27.27-2.24-5.1a.26.26 0 0 0-.11-.13.27.27 0 0 0-.17-.04H4.24a.25.25 0 0 0-.17.06.23.23 0 0 0-.07.18v10.5c0 .14.1.27.24.26h2.53c.14 0 .24-.11.23-.25v-5.09c0-.04-.02-.06.02-.07.04 0 .05 0 .07.06l2.24 5.16c.05.11.16.19.29.19h2.15c.14 0 .24-.1.23-.24V24.3c-1.43.4-2.14 1.7-2.6 2.97Z" fill="#73266D" /><path d="M15.06 20.28c-.43-.2-.9-.29-1.37-.28-1 .01-1.96.34-2.75.92l-.22.18a4.62 4.62 0 0 0-1.59 2.64A6.44 6.44 0 0 0 9.07 26l.07-.25c.16-.48.45-.91.83-1.26a5.43 5.43 0 0 1 3.62-1.37c.42.01 1.45 0 2.03-.55a1.18 1.18 0 0 0 .38-.89c0-.3-.09-.59-.25-.83-.17-.25-.4-.45-.69-.57ZM15.77 24h-2.53a.22.22 0 0 0-.18.07.28.28 0 0 0-.06.19v8.48a.28.28 0 0 0 .06.19l.09.05c.03.02.06.02.09.02h2.52a.2.2 0 0 0 .1-.01.22.22 0 0 0 .08-.06.25.25 0 0 0 .06-.2v-8.47l-.01-.1a.25.25 0 0 0-.05-.09.22.22 0 0 0-.09-.06.2.2 0 0 0-.1 0M18.35 32.26a3.1 3.1 0 0 1-1.19-2.08 8.85 8.85 0 0 1 0-3.4c.13-.82.56-1.55 1.2-2.03A3.9 3.9 0 0 1 20.8 24c.85-.03 1.7.22 2.4.72a3.11 3.11 0 0 1 1.2 1.97 7.83 7.83 0 0 1 .08.65.25.25 0 0 1-.12.15.23.23 0 0 1-.1.02l-2.53.25h-.03c-.13 0-.2-.08-.23-.23 0-.1-.01-.2-.04-.29a.67.67 0 0 0-.23-.39.62.62 0 0 0-.42-.15c-.8 0-.8 1.24-.79 1.78-.02.47-.02 1.3.37 1.66.12.1.26.16.41.15.16.01.31-.05.43-.16a.64.64 0 0 0 .2-.42l.03-.24c.03-.18.12-.25.27-.23l2.53.23a.23.23 0 0 1 .17.09.25.25 0 0 1 .06.18l-.05.39a3.15 3.15 0 0 1-1.16 2.12c-.73.52-1.6.78-2.47.75a3.9 3.9 0 0 1-2.46-.74M32 26.96v5.8a.23.23 0 0 1-.23.24h-2.44c-.13.01-.34-.1-.33-.24v-5.38c.01-.35-.1-.77-.49-.76-.41-.03-.53.4-.51.77v5.37c.01.13-.08.25-.22.24h-2.55a.23.23 0 0 1-.17-.06.25.25 0 0 1-.06-.18V22.23c0-.06.02-.12.06-.17a.23.23 0 0 1 .17-.06h2.54a.2.2 0 0 1 .17.06.22.22 0 0 1 .06.18v2.6c0 .03 0 .06.04.06s.05-.03.1-.07c.33-.5.82-.86 1.4-.83 1.58-.09 2.54 1.5 2.45 2.96ZM37.22 30.08c.13-.17.21-.37.23-.59.02-.22.03-.55.03-1 0-.24 0-.58-.03-1.02-.03-.2-.1-.4-.24-.56a.62.62 0 0 0-.46-.2.59.59 0 0 0-.47.2 1 1 0 0 0-.23.56 10.27 10.27 0 0 0 0 2.02c.02.22.1.42.23.59a.64.64 0 0 0 .47.22.6.6 0 0 0 .47-.22Zm-3 2.1a3.3 3.3 0 0 1-1.14-2.27A12.31 12.31 0 0 1 33.1 27c.1-.87.5-1.65 1.15-2.2a3.79 3.79 0 0 1 2.52-.8c.89-.04 1.77.25 2.48.8a3.33 3.33 0 0 1 1.15 2.17c.07.5.1 1 .1 1.5 0 .4-.02.87-.07 1.38-.07.9-.47 1.73-1.13 2.32-.73.58-1.64.87-2.55.82-.91.05-1.8-.24-2.53-.82M41.07 32.94a.22.22 0 0 1-.07-.18V22.24a.22.22 0 0 1 .15-.23.23.23 0 0 1 .09 0h2.52a.23.23 0 0 1 .17.05.23.23 0 0 1 .07.18v10.52a.22.22 0 0 1-.15.23.23.23 0 0 1-.09 0h-2.52a.24.24 0 0 1-.17-.05ZM45.97 32.25c-.3-.22-.55-.51-.72-.86a2.47 2.47 0 0 1-.25-1.13c0-.15.03-.28.24-.26h2.33c.18 0 .23-.05.23.11 0 .08.02.17.06.24.04.07.09.14.15.18.16.1.33.15.51.15.14 0 .27-.03.4-.1a.31.31 0 0 0 .1-.12c.02-.04.03-.1.03-.15a.37.37 0 0 0-.07-.2.33.33 0 0 0-.17-.12c-.26-.1-.52-.19-.79-.25a5.63 5.63 0 0 1-1.24-.38c-1.11-.49-1.67-1.3-1.67-2.45-.02-.4.06-.81.21-1.18.16-.37.4-.7.69-.94.7-.55 1.54-.83 2.4-.78.89-.05 1.76.24 2.46.83.3.26.54.6.7.98.16.39.23.63.22 1.05 0 .12-.08.13-.23.13H49.3c-.16 0-.3-.04-.3-.13 0-.38-.14-.45-.53-.43-.14 0-.29.04-.41.13a.39.39 0 0 0-.12.14.42.42 0 0 0 .03.43c.05.07.12.12.2.15.28.11.57.2.86.26.38.09.66.17.85.23.57.17 1.1.48 1.55.9a2.18 2.18 0 0 1 .57 1.58c.01.39-.07.78-.23 1.13a2.3 2.3 0 0 1-.72.88c-.74.51-1.61.77-2.5.73a4.1 4.1 0 0 1-2.58-.75" fill="#73266D" /></svg>