<?xml version='1.0' encoding='utf-8'?>
<!-- by TradeStack -->
<svg width="56" height="56" viewBox="0 0 56 56" xmlns="http://www.w3.org/2000/svg"><path fill="#F0F3FA" d="M0 0h56v56H0z" /><path d="M20.27 18H11v-3h9.27c3.2 0 6.37 1.44 7.88 4.47A9.1 9.1 0 0 1 35.73 15H45v6.5c0 4.4-3.2 7.5-7.73 7.5H30v3.77c.22 1.65.95 5.23 3 5.23h12v3H33c-2.1 0-3.6-1.6-4.5-3-1.74 2.25-4.93 3-7.5 3H11v-6.6l.01-.1C11.6 29.46 16.56 26 21 26h6c0-4.4-2.12-8-6.73-8Zm6.18 11H21c-2.89 0-6.45 3.13-6.9 6.31V38H21c2 0 5.45-2.25 5.45-5.23V29ZM30 26h7.27C40 26 42 23 42 21.5V18h-6.27C32 18 30 22.52 30 26Z" fill="#024287" /><path d="M36 18c-4.8 0-6 5.33-6 8h7.5c3.6 0 4.5-2.4 4.5-4v-4h-6Z" fill="#F8B73B" /><path d="M27 29h-6.5c-4.91 0-6.36 3.26-6.5 7.5V38h8.13c3.9 0 4.87-3.6 4.87-5.4V29Z" fill="#A9CF52" /></svg>