<!-- by TradeStack --><svg width="56" height="56" viewBox="0 0 56 56" xmlns="http://www.w3.org/2000/svg"><path fill="#F0F3FA" d="M0 0h56v56H0z"/><path d="M4 23h2.62l1.88 5.35V23H11v10H8.3l-1.8-5.68V33H4V23ZM14.5 28c0-.6.06-2.66 1-2.66s1 2.06 1 2.66c0 .6-.05 2.65-.98 2.65-.93 0-1.02-2.05-1.02-2.65ZM12 28c0 2.36.99 5 3.5 5 2.52 0 3.5-2.65 3.5-5s-.98-5-3.48-5S12 25.64 12 28ZM22.5 27.75V24.8c.91 0 1.55.65 1.55 1.54 0 .65-.63 1.41-1.33 1.41h-.22Zm4.5 5.24-2.03-4.4c1-.35 1.68-1.33 1.67-2.4 0-2.63-1.72-3.19-4.02-3.19H20v10h2.5v-3.93l.14-.05 1.72 3.97H27ZM28 33V23h2.5v10H28ZM33 33v-7.5h-2V23h6.5v2.5h-2V33H33ZM39 29.87c.43.58 1.1.93 1.77.94.41.02.72-.36.73-.75.02-.26-.09-.55-.26-.75-.5-.57-1.2-.94-1.67-1.55a2.96 2.96 0 0 1-.56-1.97c.06-1.46 1.2-2.85 2.75-2.79.61.01 1.21.18 1.76.49v2.41a1.83 1.83 0 0 0-1.32-.62c-.28 0-.75.31-.75.7-.02.45.33.77.65 1.04 1.05.83 1.88 1.65 1.9 3.08 0 1.8-1.41 2.9-3.14 2.9a4.77 4.77 0 0 1-1.85-.5v-2.63ZM52 23v6.43c0 1.18-.37 3.57-3.55 3.57-3.18 0-3.45-2.39-3.45-3.57V23h2.5v6.23c-.03.47.23 1.38.95 1.34.77.07 1.08-.8 1.05-1.33V23H52Z" fill="#D80C18"/></svg>