<?xml version='1.0' encoding='utf-8'?>
<!-- by TradeStack -->
<svg width="56" height="56" viewBox="0 0 56 56" xmlns="http://www.w3.org/2000/svg"><path fill="#F0F3FA" d="M0 0h56v56H0z" /><path d="M17.82 32.5H4V31h14.28l-.46 1.5ZM36.6 23l-.33 1.5H52V23H36.6Z" /><path d="m27.98 25-.22.77 2.42-.4-.19 2.24h.82l-.18-2.23 2.38.4-.23-.78 2.46-1.62-.65-.29.44-1.44-1.55.26-.17-.62-1.22 1.1-.28-.12.54-2.23-1.03.43-.93-1.47-.94 1.47-.97-.43.5 2.23-.3.13-1.17-1.11-.15.62-1.5-.26.32 1.44-.5.29 2.3 1.62ZM17.62 33H4v1h13.3l.32-1ZM35.9 26h16.07v-1H36.2l-.3 1Z" fill="#A2905E" /><path fill-rule="evenodd" d="m18.75 35 1.69-11 5.97 7.36.73-4.36h1.5l-1.5 8-5.86-7.14L20.21 35h-1.46Zm9.77 0h.84l1.13-7h-.82l-1.15 7Zm3.6-4.07L35.4 28h1.13l-3.75 3.38L35.4 35h-1.24l-2.14-3.4-.55 3.4h-.84l1.15-7h.82l-.47 2.93Zm9.66 2.15c-1 1.72-3.03 2.41-4.54 1.54-1.5-.87-1.92-2.97-.92-4.7 1-1.72 3.02-2.41 4.53-1.54 1.5.87 1.92 2.97.93 4.7Zm-.7-.31c-.76 1.38-2.3 1.94-3.46 1.24-1.15-.7-1.47-2.39-.7-3.78.75-1.38 2.3-1.94 3.46-1.24 1.15.7 1.47 2.39.7 3.78Z" /></svg>