<?xml version='1.0' encoding='utf-8'?>
<!-- by TradeStack -->
<svg width="56" height="56" viewBox="0 0 56 56" xmlns="http://www.w3.org/2000/svg"><path fill="#F0F3FA" d="M0 0h56v56H0z" /><path fill-rule="evenodd" d="M11.19 34c.92 0 1.66-.9 1.66-2s-.74-2-1.66-2c-.93 0-1.67.9-1.67 2s.74 2 1.67 2Zm0-.62c.58 0 1.05-.62 1.05-1.38 0-.76-.47-1.38-1.05-1.38-.59 0-1.06.62-1.06 1.38 0 .76.47 1.38 1.06 1.38Zm4.42-3.27c-.22-.06-.48-.1-.8-.1-.98 0-1.77.9-1.77 2s.79 2 1.77 2c.32 0 .58-.02.8-.07v-.7c-.18.1-.38.15-.6.15-.72 0-1.32-.62-1.32-1.38 0-.76.6-1.38 1.33-1.38.21 0 .41.06.59.15v-.67ZM27.77 30c.32 0 .58.03.8.1v.67c-.18-.1-.38-.15-.59-.15-.73 0-1.33.62-1.33 1.38 0 .76.6 1.38 1.33 1.38.21 0 .41-.06.59-.15v.7c-.22.04-.48.07-.8.07-.98 0-1.77-.9-1.77-2s.8-2 1.77-2ZM16 34h1.96v-.5h-1.45v-1.3h1.31v-.53h-1.3v-1.12h1.44V30H16v4Zm2.81 0h-.6l1.08-4h.81l1.14 4h-.67l-.3-1.15h-1.15l-.3 1.15Zm.88-3.3.44 1.64h-.87l.43-1.64Zm2.02 3.3h.62v-2.94L23.82 34h.71v-4h-.62v2.87L22.5 30h-.78v4Zm3.84-4H25v4h.55v-4Z" fill="#008AAD" /><path fill-rule="evenodd" d="M35.03 30.35c0 .23-.2.42-.42.42a.42.42 0 0 1-.43-.44L32.61 34h-.82v-1.2l.58-1.3.07 1.32.97-2.82h.92l-.03.05a.42.42 0 0 1 .3-.13c.24 0 .43.2.43.43Zm-1.4 3.74.48-3h.75l-.54 3h-.7ZM30.34 30l.08 2.06-.66 1.77-.19-3.83h.77Zm5.6 1.51c.2-.24.5-.51.9-.51.68 0 .75.73.64 1.36l-.32 1.62h-.76l.35-1.78c.05-.2.05-.6-.3-.6-.25 0-.48.3-.64.6l-.34 1.8h-.65l.54-3h.68l-.1.51Zm4.1 2.49h-.67l.07-.51c-.53.75-1.73.72-1.73-.37 0-1.24.87-2.12 1.53-2.12.25 0 .43.05.54.12l.17-1.12h.8l-.7 4Zm-.36-2.16-.12.85v-.03c-.09.23-.33.7-.71.7-.48 0-.48-.76-.26-1.17.2-.38.78-.86 1.09-.35Z" fill="#093E52" /><path d="M28.56 39.6c5.35-.03 8.76-.66 9.82-.98-2.83.46-6.2.53-9.55.45l-.27.54Zm.76-1.5c1.17.03 2.36.05 3.55.05 5.63 0 9.21-.66 10.3-1-3.96.66-8.98.53-13.53.31l-.32.64Zm-.66-.68-.31.65-2.53-.08c-4.52-.15-8.88-.3-13.02.16 1.13-.33 4.49-1 8.88-1 1.67 0 3.71.1 5.93.22l1.05.05Zm-.78 1.63-.27.56c-2.23-.01-4.42-.08-6.59-.16-4.51-.15-8.88-.3-13.02.16 1.13-.33 4.49-1 8.88-1 1.68 0 3.72.1 5.93.22 1.62.08 3.34.16 5.07.22Z" fill="#008AAD" /><path d="m33.22 24.29.41-1.3L22 10c3.05 4.31 9.55 13.2 11.22 14.29ZM27.56 41l6.28-16.94.1.7c.41.12 1.61.12 3.13-.7-.36.56-1.45 1.7-2.94 1.71-.09.6-.34 1.95-.62 2.57-.28.63-4.02 8.72-5.95 12.66Zm8.86-17.67c-.33-.3-.96-.41-1.24-.43 1.01-.85 8.97-4.07 12.82-5.57l-11.58 6Zm-4.87 2.17c-.39.07-1.35.01-2.14-.83-.98-1.05-.33-2.19.46-1a8 8 0 0 0 1.68 1.83Z" fill="#093E52" /></svg>