<!-- by TradeStack --><svg xmlns="http://www.w3.org/2000/svg" width="56" height="56"><path fill="url(#ap3g3bxsc)" d="M0 0h56v56H0z"/><path d="M39.25 33.42c-.5.2-.75-.2-.75-.68V19H36v14.22c0 2.16 1.63 3.18 3.44 2.64l.56-.2v-2.44c-.31.06-.56.13-.75.2zm-9.7-.03c-2.79.87-5.05-1-5.05-3.76v-.6c0-2.21 1.51-3.53 3.28-3.53 1.43 0 2.66.72 3 2.06L28 28.63v2.34l5.5-1.74c0-3.88-2.52-6.23-5.65-6.23-3.2 0-5.85 2.68-5.85 5.56v1.2A6.08 6.08 0 0028.06 36c1.15 0 2.35-.27 3.44-.74v-2.54c-.68.26-1.47.53-1.95.67zm-18.04-8.71c.95-1.01 2.18-1.68 3.6-1.68 2.85 0 4.89 2.01 4.89 4.56V36h-2.5v-7.64a2.72 2.72 0 00-2.8-2.86c-1.76 0-3.2 1.32-3.2 4.2V36H9V23h2.1l.41 1.68z" fill="#fff"/><path d="M45.5 28a2.5 2.5 0 100-5 2.5 2.5 0 000 5z" fill="#8700EB"/><defs><linearGradient id="ap3g3bxsc" x1="10.42" y1="9.71" x2="68.15" y2="76.02" gradientUnits="userSpaceOnUse"><stop stop-color="#1A1E21"/><stop offset="1" stop-color="#06060A"/></linearGradient></defs></svg>