<?xml version='1.0' encoding='utf-8'?>
<!-- by TradeStack -->
<svg width="56" height="56" viewBox="0 0 56 56" xmlns="http://www.w3.org/2000/svg"><path fill="#F0F3FA" d="M0 0h56v56H0z" /><path fill-rule="evenodd" d="M14.17 14.81c2.3-.94 8.29-2.81 13.81-2.81 5.53 0 11.52 1.88 13.82 2.81a46.51 46.51 0 0 1 1.17 9.32c.13 4.23.48 15.05-14.99 22.87-5.18-1.69-15.42-8.56-14.97-23.75.16-5.06 1.16-8.44 1.16-8.44Zm5.75 22.5-1.15-1.12 8.2-9a114.4 114.4 0 0 0-2.43-2.82c-.46-.45-2.12.57-2.89 1.13-2.77-2.25-2.3-6.19-1.73-7.87 3.7-.9 6.93 1.87 8.08 3.37-1.15.56-2.3 1.69-2.3 2.81 0 .3.76 1.3 1.92 2.66l5-5.47.57-1.13c-.62-.6-2.14-1.32-3.48-1.96-.66-.31-1.27-.6-1.71-.85 3.23.45 5.2 1.69 5.77 2.25l.58-.56 1.73 1.69-.58.56c1.85 1.35 2.7 4.31 2.88 5.63-.92-1.8-2.69-4.32-3.46-5.07l-1.15.57-5.08 5.56c2.44 2.76 5.83 6.3 7.96 8.5L35.5 37.3l-7.48-8.88-8.1 8.88Z" fill="url(#a0d5px0k5)" /><path d="M28 21v-8c-5 0-10.58 1.44-12.7 2.37-1.84 7.65-1.15 12.94-.57 14.63h9.68l2.56-2.8a113.85 113.85 0 0 0-2.43-2.82c-.46-.45-2.12.56-2.89 1.12-2.77-2.25-2.3-6.19-1.73-7.88 3.7-.9 6.93 1.88 8.08 3.38Zm0 0c-1.15.56-2.3 1.69-2.3 2.81 0 .3.76 1.3 1.92 2.66l.38-.4V21Zm1.35 9 6.15 7.31 1.15-1.12A330.77 330.77 0 0 1 30.78 30h11.07C41.08 34.87 37 42 28 46V30h1.35ZM28 28.45V30h-1.41l1.4-1.55Z" fill="url(#b0d5px0k5)" /><path d="M29 36.4h-1V34h-2.49v-.55L23.71 31h.6l-1.2-2.27 2.4.59v-1.18l1.2 1.18-.6-2.37 1.2.6 1.2-2.96 1.19 2.96 1.2-.6-.6 2.37 1.2-1.18v1.18l2.38-.6-1.2 2.28h.6l-1.79 2.45V34H29v2.4Z" fill="url(#c0d5px0k5)" /><path d="M27.3 37v-2.36H25v-.99l-2.48-3.15h.83L22 27.84l3 .72v-1.85l.6.68-.39-1.54 1.78.88L28.5 23l1.51 3.73 1.78-.88-.4 1.54.61-.68v1.85l3-.72-1.35 2.66h.83L32 33.65v.99h-2.3V37h-2.4Zm4.2-3.55L33.28 31h-.6l1.2-2.27-2.4.59v-1.18l-1.2 1.18.6-2.37-1.2.6-1.19-2.96-1.2 2.96-1.2-.6.6 2.37-1.2-1.18v1.18l-2.38-.6 1.2 2.28h-.6l1.79 2.45V34H28v2.4h1V34h2.5v-.55Z" fill="#F0F3FA" /><defs><linearGradient id="a0d5px0k5" x1="42.94" y1="24.03" x2="13.01" y2="24.03" gradientUnits="userSpaceOnUse"><stop stop-color="#3D414D" /><stop offset=".15" stop-color="#67666E" /><stop offset=".28" stop-color="#B2AFB6" /><stop offset=".51" stop-color="#918E8B" /><stop offset=".68" stop-color="#B6B5BB" /><stop offset=".84" stop-color="#63616C" /><stop offset="1" stop-color="#323845" /></linearGradient><linearGradient id="b0d5px0k5" x1="41.79" y1="24.34" x2="14.12" y2="24.34" gradientUnits="userSpaceOnUse"><stop stop-color="#724C0E" /><stop offset=".17" stop-color="#BB9416" /><stop offset=".32" stop-color="#FACA06" /><stop offset=".51" stop-color="#CDAA1C" /><stop offset=".68" stop-color="#E7C11E" /><stop offset=".84" stop-color="#BF9213" /><stop offset="1" stop-color="#714B0C" /></linearGradient><linearGradient id="c0d5px0k5" x1="24.31" y1="29.91" x2="32.69" y2="29.91" gradientUnits="userSpaceOnUse"><stop stop-color="#971A1E" /><stop offset=".5" stop-color="#B71C2A" /><stop offset="1" stop-color="#8D1A29" /></linearGradient></defs></svg>