<?xml version='1.0' encoding='utf-8'?>
<!-- by TradeStack -->
<svg width="56" height="56" viewBox="0 0 56 56" xmlns="http://www.w3.org/2000/svg"><path fill="#F0F3FA" d="M0 0h56v56H0z" /><path d="M29.84 28.48c.21.52.35.48.52.52.38 0 .64-.13.64-.78-.26-2.33-2.57-9.22-8.98-9.22C15.6 19 7 30.16 7 32.5c0 2.33 2.05 3.5 3.47 3.5 1.4 0 2.56-1.43 3.2-2.34 3.6-4.54 8.35-9.66 11.17-9.66 2.82 0 4.75 3.83 5 4.48Z" fill="#F38000" /><path d="M26.16 27.52c-.21-.52-.35-.48-.52-.52-.38 0-.64.13-.64.78.26 2.33 2.57 9.22 8.98 9.22C40.4 37 49 25.84 49 23.5c0-2.33-2.05-3.5-3.47-3.5-1.4 0-2.56 1.43-3.2 2.34-3.6 4.54-8.35 9.66-11.17 9.66-2.82 0-4.75-3.83-5-4.48Z" fill="#630C7D" /></svg>