<?xml version='1.0' encoding='utf-8'?>
<!-- by TradeStack -->
<svg width="56" height="56" viewBox="0 0 56 56" xmlns="http://www.w3.org/2000/svg"><path fill="#F0F3FA" d="M0 0h56v56H0z" /><path d="M32.24 26.53A4.07 4.07 0 0 1 33.78 29c.06.31.01.34-.15.08l-.95-1.53c-.35-.56-.77-.64-1.27-.24l-1.1.88c-.38.31-.42.26-.13-.13l.6-.84c.22-.3.15-.4-.2-.34-1.32.23-2.7.36-4.05.48-2 .18-3.92.36-5.5.88-.78.26-1.17.7-1.17 1.3 0 .2-.07.38-.22.52a3.31 3.31 0 0 0-1.13 3.01 2.72 2.72 0 0 1-1.07 2.7c-1.72 1.44-2.14 2.97-2.55 4.48-.21.79-.43 1.58-.83 2.34-.13.26-.05.4.25.4h1.58c.3 0 .38-.13.24-.4l-.24-.45a.82.82 0 0 1-.06-.65c.25-.82.68-1.7 1.28-2.62a5.87 5.87 0 0 1 2.2-1.7c1.45-.77 2.6-1.65 3.45-2.66.4-.48.9-.59 1.47-.33a13.2 13.2 0 0 0 5.6 1.17.37.37 0 0 0 .28-.15.34.34 0 0 0 .04-.3 2.5 2.5 0 0 1-.15-1.1c.14-.77.2-.77.21 0 0 .38.07 1.08.28 1.5.89 1.8 1.53 3.77 1.94 5.92.05.29.05.78.02 1.47-.02.2.08.3.29.3h1.79a.23.23 0 0 0 .2-.12.23.23 0 0 0 0-.23 11.63 11.63 0 0 1-1.4-3.57l-.3-1.33c-.4-1.72-.8-3.42-.4-4.48.11-.3.17-.28.17.03v1.1a.4.4 0 0 0 .2.34.4.4 0 0 0 .4 0c3.01-1.74 4.17-4.32 3.46-7.73a20.9 20.9 0 0 0-1.37-3.53c-.1-.2-.03-.33.19-.4a.98.98 0 0 1 .4 0c.2.04.4.03.6-.04.58-.22 1-.64 1.26-1.27a.32.32 0 0 0-.16-.4.34.34 0 0 0-.16-.04c-.77.04-1.48.21-2.14.53-.42.2-.55.09-.39-.34.31-.82 1.02-1.2 1.93-1.42a6.26 6.26 0 0 0 4.86-4.83c.12-.46.15-.98.1-1.57l-.03-.22c-.09-1.02-.15-1.8-1.02-2.38-.3-.2-.36-.11-.2.25.03.06.2.26.48.6.14.17.2.36.17.57-.07.6-.1 1.5-.08 2.74 0 .22-.1.34-.29.38-.07.02-.12 0-.16-.07a.44.44 0 0 0-.12-.13c-.1-.06-.18 0-.22.19a4.15 4.15 0 0 1-3.4 3.56c-.25.06-.34-.03-.27-.27l.14-.43c.08-.24.02-.28-.17-.12l-2.97 2.56c-.21.18-.39.15-.52-.1l-1.69-3.17c-.14-.27-.23-.26-.28.05-.03.3.08.62.35.96a.1.1 0 0 1-.02.15.1.1 0 0 1-.06.01h-.4a4.18 4.18 0 0 1-1.03-3.51c.03-.21.1-.4.22-.56l.44-.65c.2-.29.14-.35-.18-.2l-.45.24c-.21.1-.35.05-.42-.17-.08-.25-.04-.52.14-.8.38-.6.64-1.1.76-1.5.1-.37.04-.4-.2-.11-.77.9-1.14 1.66-1.13 2.3.01.41-.03.84-.12 1.27-.15.7-.21 1.11-.19 1.23.4 2 1.04 2.46 1.98 3.16.3.22.64.47 1.01.8a.75.75 0 0 1 .07 1.06c-.57.63-1.18 1-1.84 1.08a.43.43 0 0 0-.37.43v1.2c0 .24.11.37.35.4 1.07.15 1.93.42 2.59.81.43.26.4.44-.1.53-.25.04-.44.12-.54.22-.17.17-.16.32.03.47Zm2.12.42a.23.23 0 0 1-.03-.24.22.22 0 0 1 .22-.12c.37.02.78-.1 1.24-.36.22-.13.36-.07.4.19a9.16 9.16 0 0 1 0 3.12c0 .1-.04.16-.1.2a.25.25 0 0 1-.16.01c-.04 0-.06-.03-.06-.07-.09-.73-.6-1.64-1.51-2.73ZM22.9 29.17c-.61.28-1.04.48-1.29.62-1.06.6-1.12.51-.18-.25.2-.16.63-.4 1.32-.7.68-.3 1.14-.48 1.38-.52 1.21-.2 1.24-.1.08.3-.26.1-.7.28-1.31.55Zm14.74 4.94h-1.46c-.3 0-.36-.12-.18-.35l1.06-1.31c.14-.18.32-.21.53-.1l1.12.58c.63.32.83.86.61 1.6-.56 1.88-1.99 2.74-4.28 2.56-.29-.03-.35-.15-.17-.38l.82-1.04c.2-.25.4-.25.6-.02.15.17.3.3.48.37.12.06.26.07.4.04.13-.03.25-.1.33-.2.27-.33.47-.72.6-1.18.1-.38-.06-.57-.46-.57Zm-12.31 8.45a9.67 9.67 0 0 1-1.98-5.1.63.63 0 0 1 .26-.57c.66-.5 1.25-.83 1.77-.99.9-.27.93-.55.07-.84l-1.52-.53c-.2-.07-.41-.04-.63.08a3.82 3.82 0 0 0-1.76 2.08c-.08.2-.06.4.04.6a16.39 16.39 0 0 1 1.68 5.36.4.4 0 0 0 .4.35h1.43a.3.3 0 0 0 .15-.04.29.29 0 0 0 .1-.11.27.27 0 0 0-.01-.3Z" fill="#233671" /></svg>