<?xml version='1.0' encoding='utf-8'?>
<!-- by TradeStack -->
<svg width="56" height="56" viewBox="0 0 56 56" xmlns="http://www.w3.org/2000/svg"><path fill="url(#a52aof4gb)" d="M0 0h56v56H0z" /><path d="M28 13c7.97 0 15 6.93 15 15s-7.04 15-15 15c-7.97 0-15-6.93-15-15s7.04-15 15-15Zm0-1c-8.86 0-16 7.16-16 16 0 8.72 7.28 16 16 16 8.72 0 16-7.28 16-16 0-8.72-7.28-16-16-16Z" fill="#fff" /><path d="M32 31h6.16c.46 0 .84-.45.84-1v-4c0-.55-.38-1-.84-1H32v6ZM25 32v5.61c0 .76.45 1.39 1 1.39h4c.55 0 1-.62 1-1.39V32h-6Z" fill="#fff" /><path d="M25 25h-7.12c-.49 0-.88.6-.88 1.23v3.62c0 .64.4 1.15.88 1.15H31V18.4c0-.76-.47-1.4-1.06-1.4h-4c-.57 0-.94.62-.94 1.4V25Z" fill="#E41C24" /><defs><linearGradient id="a52aof4gb" x1="28" y1="0" x2="28" y2="56" gradientUnits="userSpaceOnUse"><stop stop-color="#283A80" /><stop offset="1" stop-color="#1B2858" /></linearGradient></defs></svg>