<!-- by TradeStack --><svg width="56" height="56" viewBox="0 0 56 56" xmlns="http://www.w3.org/2000/svg"><path fill="#F0F3FA" d="M0 0h56v56H0z"/><path fill="#00377C" d="M24 29h2v13h-2zM30 29h2v13h-2z"/><path d="M13 42V26.43A8.45 8.45 0 0 1 21.46 18h2.08c1.64 0 3.17.46 4.46 1.27A8.44 8.44 0 0 1 32.46 18h2.08A8.45 8.45 0 0 1 43 26.43V42h-2V26.84c0-4.17-3.02-6.84-7.2-6.84h-.6a8.2 8.2 0 0 0-3.45.71A8.4 8.4 0 0 1 32 26.43V28h-2v-1.16c0-2.07-.74-3.77-2-4.95a6.62 6.62 0 0 0-2 4.95V28h-2v-1.57c0-2.2.85-4.22 2.25-5.72A8.2 8.2 0 0 0 22.8 20h-.6c-4.18 0-7.2 2.67-7.2 6.84V42h-2Z" fill="url(#ako0pmgch)"/><path d="M18 20.57V36h2v-6h6v-2h-6v-7.45c0-3.92 3.23-6.55 7.39-6.55h1.4c4.16 0 7.21 2.63 7.21 6.55V28h-6v2h6v6h2V20.57c0-4.73-4.08-8.57-9.11-8.57h-1.78C22.08 12 18 15.84 18 20.57Z" fill="#0872B9"/><defs><linearGradient id="ako0pmgch" x1="13.41" y1="32.63" x2="43" y2="32.63" gradientUnits="userSpaceOnUse"><stop stop-color="#65B2E2"/><stop offset=".12" stop-color="#005AA9"/><stop offset=".42" stop-color="#034EA1"/><stop offset=".62" stop-color="#034EA1"/><stop offset=".9" stop-color="#005AA9"/><stop offset="1" stop-color="#5EAEE0"/></linearGradient></defs></svg>