<!-- by TradeStack --><svg width="56" height="56" viewBox="0 0 56 56" xmlns="http://www.w3.org/2000/svg"><path fill="#F0F3FA" d="M0 0h56v56H0z"/><path d="M24.97 23H23c9.29-9.74 14.04-10 15.51-10 1.18 0 1.9.69 2.12 1.03.46.21 1.37 1.09 1.37 2.94 0 1.84-1.26 4.79-1.9 6.03h-1.59c1.32-2 2.34-5.36 2.34-6.7 0-1.08-.28-1.75-.42-1.95-.27-.1-.95-.32-1.5-.32-5.53.62-11.61 6.24-13.96 8.97ZM31.03 33H33c-9.29 9.74-14.04 10-15.51 10-1.18 0-1.9-.69-2.12-1.03-.46-.21-1.37-1.09-1.37-2.94 0-1.84 1.26-4.79 1.9-6.03h1.59c-1.32 2-2.34 5.36-2.34 6.7 0 1.08.28 1.75.42 1.95.27.1.95.32 1.5.32 5.53-.62 11.61-6.24 13.96-8.97Z" fill="#0075C2"/><path d="M21.81 24.96c-.09-.28-.26-.52-.5-.7a1.3 1.3 0 0 0-1.57 0c-.23.18-.4.42-.49.7L17 32h1.46l.54-1.67h3.05l.54 1.67H24s-1.45-4.7-2.19-7.04ZM19.37 29s.64-1.91.99-2.86c0-.04.06-.12.14-.12.08 0 .12.07.14.14.31.93.98 2.84.98 2.84h-2.25ZM38.5 25.5V24H33v1.5h2V32h1.5v-6.5h2ZM14.46 29.54l-3.2-4.95a1.27 1.27 0 0 0-1.12-.59A1.2 1.2 0 0 0 9 25.2V32h1.5v-5.56c0-.02 0-.02.02-.02h.03l3.14 4.97c.23.37.66.6 1.09.6.64.02 1.21-.51 1.22-1.17V24h-1.5v5.54h-.04ZM30.46 29.54l-3.2-4.95a1.27 1.27 0 0 0-1.12-.59A1.2 1.2 0 0 0 25 25.2V32h1.5v-5.56c0-.02 0-.02.02-.02h.03l3.14 4.97c.23.37.66.6 1.09.6.64.02 1.21-.51 1.22-1.17V24h-1.5v5.54h-.04Z" fill="#E60012"/><path fill-rule="evenodd" d="M43 32a4 4 0 1 0 0-8 4 4 0 0 0 0 8Zm0-1.46a2.54 2.54 0 1 0 0-5.08 2.54 2.54 0 0 0 0 5.08Z" fill="#E60012"/></svg>