<!-- by TradeStack --><svg width="56" height="56" viewBox="0 0 56 56" fill="none" xmlns="http://www.w3.org/2000/svg">
<rect width="56" height="56" fill="#003363"/>
<path fill-rule="evenodd" clip-rule="evenodd" d="M10 37.6132V18.2268C10.6247 18.0657 12.1954 17.8402 13.4805 18.2268L19 28.7957V18.2268C19.6743 18.0556 21.4769 17.8161 23 18.2268V37.6991C22.5339 37.9206 21.1794 38.2306 19.4897 37.6991L14 27.1047V37.6132C13.2761 37.9051 11.4041 38.3138 10 37.6132ZM43.0136 18C41.9251 18 41 18.2316 41 18.2316V37.803C41 37.803 42.0359 37.9945 43.0372 37.9999C44.0386 38.0053 45 37.803 45 37.803V18.2316C45 18.2316 44.102 18 43.0136 18ZM34 21.9917L38.8 22C38.8 22 38.9944 20.9702 38.9999 19.9748C39.0054 18.9794 38.8 18.0236 38.8 18.0236L25.2352 18C25.2352 18 25 18.8927 25 19.9747C25 21.0568 25.2352 21.9764 25.2352 21.9764L30 21.9847V37.8129C30 37.8129 31.0359 37.9947 32.0372 37.9999C33.0386 38.0051 34 37.8129 34 37.8129V21.9917Z" fill="white"/>
</svg>
