<!-- by TradeStack --><svg width="56" height="56" viewBox="0 0 56 56" xmlns="http://www.w3.org/2000/svg"><path fill="#F0F3FA" d="M0 0h56v56H0z"/><path d="m5.44 24 5.07 6.17V24H11v7h-.47l-5.06-6.14V31H5v-7h.44ZM14.96 24l3.07 7h-.55l-1-2.3h-3.36l-.97 2.3h-.55l3.02-7h.34Zm-1.63 4.24h2.92l-1.47-3.4-1.45 3.4ZM18.97 24 24 30.17V24h.5v7h-.46L19 24.86V31h-.5v-7h.47ZM28.74 24c.54 0 1.03.1 1.47.29a3.37 3.37 0 0 1 1.81 1.84 3.77 3.77 0 0 1-.75 3.83c-.3.31-.67.57-1.11.75a3.77 3.77 0 0 1-2.87 0c-.44-.18-.8-.44-1.08-.75a3.04 3.04 0 0 1-.7-1.1 3.8 3.8 0 0 1 0-2.73A3.34 3.34 0 0 1 28.74 24Zm.05.5c-.46 0-.88.07-1.24.23-.36.15-.7.39-.95.65-.26.29-.47.6-.6.96-.13.37-.2.76-.2 1.15a3.09 3.09 0 0 0 .85 2.16 2.93 2.93 0 0 0 2.06.86 2.95 2.95 0 0 0 2.84-1.93 3.23 3.23 0 0 0-.02-2.24A2.86 2.86 0 0 0 30 24.73a2.97 2.97 0 0 0-1.22-.24ZM36.66 24c.8 0 1.62.17 2.34.52v.6a4.92 4.92 0 0 0-2.37-.63 3.01 3.01 0 1 0 0 6.02c.84 0 1.64-.21 2.37-.65v.6c-.73.36-1.53.54-2.37.54-1.92 0-3.63-1.4-3.63-3.42A3.63 3.63 0 0 1 36.66 24Z"/><path d="M42.49 24c.54 0 1.03.1 1.47.29a3.37 3.37 0 0 1 1.8 1.84 3.77 3.77 0 0 1-.74 3.83c-.31.31-.67.57-1.11.75a3.78 3.78 0 0 1-2.87 0c-.44-.18-.8-.44-1.08-.75a3.04 3.04 0 0 1-.7-1.1 3.79 3.79 0 0 1 0-2.73A3.33 3.33 0 0 1 42.49 24Zm.05.5c-.47 0-.88.07-1.24.23-.36.15-.7.39-.96.65-.26.29-.46.6-.6.96-.12.37-.2.76-.2 1.15a3.09 3.09 0 0 0 .85 2.16 2.93 2.93 0 0 0 2.07.86 2.95 2.95 0 0 0 2.84-1.93 3.23 3.23 0 0 0-.02-2.24 2.86 2.86 0 0 0-1.53-1.61 3.06 3.06 0 0 0-1.21-.24Z"/><path d="M41.61 19.07c-.5.21-.74.87-.53 1.34.21.5.82.74 1.32.5.5-.24.75-.81.5-1.31a1 1 0 0 0-1.29-.53Z" fill="#6E368C"/><path d="M44.7 20.15c-.59.28-.87 1-.59 1.62.28.62 1.02.9 1.65.62.62-.28.9-1.02.65-1.64-.29-.63-.97-.91-1.59-.66l-.11.06Z" fill="#242F62"/><path d="M46.58 24.42c.3.63 1 .92 1.66.69l.08-.03c.62-.29.89-1.02.62-1.68-.28-.65-1.04-.94-1.67-.65a1.26 1.26 0 0 0-.69 1.67Z" fill="#1D71B8"/><path d="M48.86 26.14a1.5 1.5 0 0 0-.75 1.92l.03.08a1.52 1.52 0 0 0 1.96.74 1.5 1.5 0 0 0-1.16-2.78l-.08.04Z" fill="#50AF47"/><path d="M47.72 32.4c.39.86 1.39 1.25 2.25.89a1.72 1.72 0 0 0 .9-2.26 1.73 1.73 0 0 0-2.26-.89 1.72 1.72 0 0 0-.9 2.26Z" fill="#F2E61A"/><path d="m44.6 36.2.04.1a1.94 1.94 0 1 0-.05-.1Z" fill="#EB5B25"/><path d="M39.22 38.51a2.47 2.47 0 0 0 3.23 1.3l.11-.06a2.51 2.51 0 0 0 1.24-3.26 2.5 2.5 0 1 0-4.58 2.02Z" fill="#C72831"/><circle cx="41.5" cy="37.5" r=".88" fill="#fff" fill-opacity=".8"/><circle cx="46.38" cy="35.48" r=".69" fill="#fff" fill-opacity=".8"/><circle cx="49.29" cy="31.71" r=".59" fill="#fff" fill-opacity=".8"/><circle cx="49.5" cy="27.5" r=".5" fill="#fff" fill-opacity=".8"/><circle cx="47.76" cy="23.91" r=".5" fill="#fff" fill-opacity=".8"/><circle cx="45.25" cy="21.25" r=".43" fill="#fff" fill-opacity=".8"/><circle cx="42" cy="20" r=".33" fill="#fff" fill-opacity=".8"/></svg>