<?xml version='1.0' encoding='utf-8'?>
<!-- by TradeStack -->
<svg width="56" height="56" viewBox="0 0 56 56" xmlns="http://www.w3.org/2000/svg"><path fill="#F0F3FA" d="M0 0h56v56H0z" /><path d="M42.97 19.27a.19.19 0 0 0-.07-.07l-15.08-8.16a.35.35 0 0 0-.34 0l-4.69 2.81a.25.25 0 0 0-.11.29c.01.03.03.07.06.1 8.65 9.52 10.5 18.18 5.15 30.2a.39.39 0 0 0 .1.46.4.4 0 0 0 .46.04l14.08-8.4a.97.97 0 0 0 .47-.86V19.37c0-.04-.01-.07-.03-.1Zm-4.34 6.67a.34.34 0 0 0-.1-.23l-2.66-2.63a.68.68 0 0 1-.2-.39c-.72-5.39-5.82-7.43-10.58-7.8a.18.18 0 0 1-.16-.13.18.18 0 0 1 .08-.2l2.47-1.47a.35.35 0 0 1 .37 0l12.87 7c.12.08.27.18.28.33L41.07 35c0 .13-.06.42-.17.49l-9.87 5.9a.04.04 0 0 1-.06-.03l.01-.02c2.11-2.13 4.27-4.22 6.5-6.25 1-.92 1.05-1.93.17-3.03a.35.35 0 0 1-.05-.34c.23-.62.18-1.19-.14-1.72a.44.44 0 0 1-.01-.45c.3-.57.25-1.1-.14-1.58-.09-.1-.09-.22 0-.32l1.24-1.48a.34.34 0 0 0 .08-.23ZM13 36.1c0 .4.18.69.53.87l12.72 6.9c.2.12.35.07.45-.13 5.35-11.05 3.05-20.05-5.09-28.7a.54.54 0 0 0-.66-.09l-7.78 4.63a.33.33 0 0 0-.17.3V36.1Zm9.27-6.98c.5.4 1 .8 1.49 1.22 3.4 2.9 4.45 6.7 3.17 11.44-.08.27-.24.34-.49.2l-10.92-6c-.3-.17-.51-.43-.52-.79V20.93c0-.17.11-.3.25-.4l1.84-1.25a.16.16 0 0 1 .24.17c-1.06 4.85 1.83 7.17 4.94 9.67Z" fill="#95C93F" /></svg>