<!-- by TradeStack --><svg width="56" height="56" viewBox="0 0 56 56" xmlns="http://www.w3.org/2000/svg"><path fill="#F0F3FA" d="M0 0h56v56H0z"/><path d="M39.28 43.76 39 44l.37-.13c1.36-.5 2.03-1.01 2.38-1.86.33-.79.4-2-.2-2.82L41.4 39l-.01.22c0 .01-.11 1.69-.6 2.63a7.24 7.24 0 0 1-1.51 1.91ZM17.98 18.57c.12.26-.3.45-1.01.43-.53-.02-.8-.24-.95-.55-.13-.26.43-.47.96-.45.53.03.8.13 1 .57ZM38.02 36s-.07 1.48.05 1.8c.03.1.25.24.46.2.38-.08.55-.1.77-.11.4-.04.7 0 .7 0a1.38 1.38 0 0 1-.14-.55s-.39-.52-1.84-1.34ZM34.94 23.52c-.29.2-1 .46-1.06.48 0 0-1.48-1.52-3.88-2.96 0 0 2.77-.09 4.64 0 .06 0 .1.08.07.14a2.68 2.68 0 0 0 0 1.39c.04.23.15.49.27.74.04.07.02.17-.04.21ZM42 33s1.82.96 1.91 1.29c.04.15.08.46.09.63 0 .05-.04.1-.08.08a1.86 1.86 0 0 0-1.11-.13c-.03.01-.44-1.14-.81-1.87ZM20.04 23.6a.72.72 0 0 0 .04.57c.25.56.36.84.65.83.22-.01 1.41-.08 1.98-.23.34-.08.4-.2.1-.45A8.76 8.76 0 0 0 20.29 23c-.12-.04-.13.26-.25.6Z" fill="#133A88"/><path d="m43.82 43.4.06.6.07-.6c.38-3.58-1.4-7.64-2.5-9.74a32.73 32.73 0 0 0-7.72-9.22 56.83 56.83 0 0 0-8.86-5.3c-1.64-.81-3.42-1.35-4.72-1.74l-.08-.02a87.25 87.25 0 0 0-5.08-1.23c-1.16-.24-2.18-.19-2.74.15-.25.15-.32.5-.18.83.1.2.43.63.74 1.01l.01.02.3.39.44.67c.54.88 1.23 1.98 1.76 1.98.06 0 .13 0 .15-.06.01-.03.01-.08-.07-.12-.51-.3-1.12-1.34-1.52-2.02v-.02a8.98 8.98 0 0 0-.38-.6c-.25-.34-.68-.96-.77-1.14l-.03-.06c-.07-.15-.13-.28 0-.44.28-.35 1.55-.26 2.37-.06.76.19 1.43.34 2.07.48l.02.01c1.25.28 2.33.53 3.66.93 2.43.72 8.71 4.43 11.8 6.77a30.91 30.91 0 0 1 5.44 5.64l.5.62a21.76 21.76 0 0 1 3.55 5.7c.55 1.29 1.45 4.19 1.71 6.58Z" fill="#133A88"/><path d="M16.33 21.89c.27.06.61.11 1.02.11.64 0 1.45-.13 2.46-.56.63-.27 1.04-.69 1.16-1.19.1-.4-.02-.83-.3-1.12-.1-.1-.19-.15-.25-.12-.02 0-.07.04-.04.13.25.47.35 1-.59 1.7-.88.65-2.5.83-3.72.79h-.04l-.02.04a.1.1 0 0 0 0 .08c.04.08.16.1.32.14Z" fill="#133A88"/><path d="M40.75 38.69 41 39l-.15-.37a9.47 9.47 0 0 0-.98-1.9 8.58 8.58 0 0 0-2.88-2.3c-1.48-.78-4.76-2.2-7.4-3.34l-.03-.02c-2.63-1.14-9.45-4.85-11.44-6.32-2.65-1.95-4.06-3.35-5.04-4.97a4.72 4.72 0 0 1-.7-1.5c.03-.07.08-.09.2-.1l.27-.04-.2-.08c-.23-.1-.53-.08-.6.1-.18.37.18 1.01.44 1.48l.02.02.12.22c.6 1.16 2.05 2.8 3.97 4.51 1.95 1.74 9.58 6.57 12.43 7.73 1.16.47 2.38.93 3.55 1.37l.05.02c1.5.56 2.91 1.09 3.86 1.53 1.54.72 2.65 1.67 4.26 3.65Z" fill="#FF6730"/><path d="M30 33c.34.53 2.66 2.43 2.94 1.91.22-.42-.21-.87-.21-.87L30 33Z" fill="#133A88"/></svg>