<!-- by TradeStack --><svg width="56" height="56" viewBox="0 0 56 56" xmlns="http://www.w3.org/2000/svg"><path fill="#F0F3FA" d="M0 0h56v56H0z"/><path fill-rule="evenodd" d="M52 23H4v10h48V23Zm-1 1H5v8h46v-8ZM6 25v6h1.58v-3.27L9.7 31h1.66v-6H9.7v3.24L7.58 25H6Zm11.19 3c0 2.12-1.3 3-2.9 3-1.6 0-2.9-1.08-2.9-3 0-2.06 1.3-3 2.9-3 1.6 0 2.9.88 2.9 3Zm-1.67-.08c0 1.2-.55 1.7-1.23 1.7-.69 0-1.24-.6-1.24-1.7 0-1.17.55-1.7 1.23-1.7.69 0 1.24.5 1.24 1.7ZM17.45 25h3.4c.83 0 1.53.63 1.67 1.47V25h5.27v1.53H26V31h-2v-4.47h-1.47c.02.1.02.18.02.27 0 .68-.36 1.27-.88 1.58L22.98 31h-1.9l-1.29-2.4H19V31h-1.55v-6ZM19 27.48V26.2h1.23c.34 0 .61.29.61.64 0 .35-.27.64-.6.64H19ZM28 25h1.77v2h1.9v-2h1.77v6h-1.77v-2.4h-1.9V31H28v-6Zm9.6 6H34v-6h3.23c.78 0 1.7.44 1.7 1.43a1.6 1.6 0 0 1-.82 1.4c.35.05 1.05.43 1.05 1.53 0 1.31-1.04 1.64-1.56 1.64Zm-.92-4.74h-.92v1.08h.92c.29 0 .51-.24.51-.54 0-.3-.22-.54-.5-.54Zm.15 2.2h-1.07v1.27h1.07c.33 0 .6-.29.6-.63 0-.35-.27-.63-.6-.63Zm2.52.37V25H41v3.66c0 .55.49 1 1.02 1a1 1 0 0 0 .98-1V25h1.72v3.83c0 1.2-.93 2.17-2.08 2.17h-1.2a2.13 2.13 0 0 1-2.09-2.17Zm8.4 2.17H45v-6h2.76C49 25 50 26.08 50 27.42v1.16c0 1.34-1 2.42-2.24 2.42Zm-1.1-1.32v-3.36h.63c.6 0 1.07.52 1.07 1.16v1.04c0 .64-.48 1.16-1.07 1.16h-.63Z"/></svg>