<?xml version='1.0' encoding='utf-8'?>
<!-- by TradeStack -->
<svg width="56" height="56" viewBox="0 0 56 56" xmlns="http://www.w3.org/2000/svg"><path fill="#F0F3FA" d="M0 0h56v56H0z" /><path d="M45.64 24H10.62L8 16c.87 1.19 3.96 3.56 9.31 3.56 5.35 0 9.49-2.37 10.89-3.56a16.07 16.07 0 0 0 9.7 3.56c4.51 0 8.61-2.07 10.1-3.1L45.64 24Z" fill="#F7A80E" /><path d="M19.25 33.28 25 39v-7.7L18.74 25H11v14h7.3v-5.72h.95Z" fill="#142A96" /><path fill="#B5BCE7" d="M25 25.2h7V39h-7z" /><path fill-rule="evenodd" d="M19.03 25H11v14h7.66v-5.46h.37L24.55 39h7.95v-4H38v4h8V25h-8v4h-5.5v-4h-7.95v5.64L19.03 25Zm5.97.54v5.54c0 .33-.3.49-.52.26l-5.67-5.8h-7.28v12.92H18V33h1.25l5.52 5.46H32V34.5h6.5v3.95h6.97V25.54H38.5v3.98H32v-3.98h-7Z" fill="#051044" /></svg>