<!-- by TradeStack --><svg viewBox="0 0 56 56" xmlns="http://www.w3.org/2000/svg"><path fill="#F0F3FA" d="M0 0h56v56H0z"/><path d="M30.05 40.9c-6.86 3.01-8.54 1.35-8.54 1.35l-.05.08c5.69 3.58 15.09 1.38 17.2-6.46.1-.38.18-.75.24-1.12-1.42 1.96-4.09 4.2-8.82 6.14l-.03.01Z" fill="#E10117"/><path d="M35.42 23.26c-1.04-1.5-2.2-2.96-3.28-4.48.1.23.18.46.24.7.25 1.67-1.93 2.26-5.77 3.14-4.75 1.08-7.1 2.94-8.5 5.44a13.62 13.62 0 0 0-1 7.19l.03-.06c.68-3.24 3.96-6.31 8.6-7.32 6.72-1.46 10.27-2.95 9.68-4.61Z" fill="#1D1B20"/><path d="M39 31.3c-.16-1.3-.52-2.56-1.06-3.76-.84 2.27-7.31 3.66-10.6 4.39-6.1 1.5-10.23 3.36-9 7.08l.06.2a9.09 9.09 0 0 0 2.67 2.87l.01-.1c-.91-.67-2.49-2.52 4.29-4.24a177.5 177.5 0 0 0 5.74-1.54l.02-.01.25-.07c.7-.2 1.33-.4 1.91-.59 2.03-.74 4.87-2.1 5.71-4.23" fill="#0070B8"/><path d="M29.53 14.6c-.75-1.45-1.28-3-1.59-4.6-.59 4.49-3.22 7.93-5.75 11.37l.01.01.04-.05c1.19-1.4 2.54-2.36 5.56-3.1 3.7-.9 2.04-2.7 1.73-3.64" fill="#0669B4"/></svg>