<?xml version='1.0' encoding='utf-8'?>
<!-- by TradeStack -->
<svg width="56" height="56" viewBox="0 0 56 56" xmlns="http://www.w3.org/2000/svg"><path fill="#F0F3FA" d="M0 0h56v56H0z" /><path d="M29.02 16.94 24.67 10l-3.1 6.94-3.94-2 1.11 8.45-3.63-3.17-.69 2.79-4.98-.63 1.25 5.1L8 28.86l8.52 7.42-1.36 4.14 8.84-1.8V42h2v-3.3l9 1.71-1.56-3.95-1.08.44.77 1.95-8.38-1.6-7.85 1.6.97-2.96-7.78-6.77 1.96-1-1.07-4.36 4.32.55.48-1.94 4.52 3.93-1.22-9.3 3.05 1.55 2.71-6.07 3.8 6.07L31 17.12l-.4 2.9 1.14.18.76-5.38-3.47 2.12Z" fill="#CD9933" /><path d="M42.03 28v-.16l.12-.04c.1-.03.18-.07.23-.13.06-.06.11-.14.17-.24l1-1.74-1.1-2.13-.14-.23a.45.45 0 0 0-.2-.13l-.11-.04V23h1.75v.16l-.14.04c-.09.03-.14.08-.15.16 0 .07.02.16.07.27l.66 1.25.69-1.24c.05-.11.09-.2.09-.28 0-.09-.04-.15-.14-.17l-.11-.03V23h.98v.16l-.15.04a.43.43 0 0 0-.22.13c-.05.06-.1.14-.15.24l-.88 1.54 1.2 2.32c.05.1.1.18.15.24.06.05.13.09.22.13l.13.04V28h-1.82v-.16l.13-.03c.1-.02.16-.08.17-.16.02-.08 0-.17-.06-.29l-.76-1.44-.8 1.45a.58.58 0 0 0-.09.29c.01.08.06.13.15.16l.08.02V28h-.97ZM37 28v-.2l.16-.05c.1-.03.16-.09.2-.16a.83.83 0 0 0 .06-.32v-4.56a.77.77 0 0 0-.05-.3.37.37 0 0 0-.2-.16L37 22.2V22h3.79l.05 1.45h-.22l-.32-.81a.84.84 0 0 0-.14-.27.33.33 0 0 0-.24-.1h-1.35l-.01 1.16v1.34h.79c.1 0 .18-.03.23-.1a.72.72 0 0 0 .16-.26l.14-.34h.17v1.68h-.17l-.14-.35c-.05-.1-.1-.2-.15-.26-.05-.07-.13-.1-.24-.1h-.8v1.97l.02.72h1.52c.1 0 .2-.03.25-.1.06-.06.1-.15.14-.27l.3-.81H41L40.94 28H37Zm-4.98-.03v-.16l.2-.06a.26.26 0 0 0 .17-.14.55.55 0 0 0 .06-.26v-3.64a1.22 1.22 0 0 0-.33-.45l-.12-.1V23h1.16l2.26 3.41v-2.79a.7.7 0 0 0-.05-.26c-.03-.07-.09-.12-.18-.15l-.2-.05V23H36v.16l-.17.05c-.09.03-.14.08-.16.16a.9.9 0 0 0-.03.25V28h-.38l-2.59-3.94v3.29c0 .1.02.19.04.26.03.07.09.12.17.14l.19.06v.16h-1.05ZM27 28v-.16l.17-.06a.42.42 0 0 0 .2-.13.6.6 0 0 0 .13-.25l1.28-4.4h.53l1.28 4.43c.03.1.07.2.11.25.04.06.11.1.2.14l.1.03V28h-1.62v-.15l.11-.04c.1-.03.15-.09.17-.16a.53.53 0 0 0-.01-.28l-.27-.97h-1.4l-.28.95a.64.64 0 0 0-.03.27c.02.07.07.13.16.17l.14.05V28H27Zm1.04-1.82h1.28l-.62-2.27-.66 2.27ZM24.47 28c-.46 0-.88-.11-1.25-.34a2.4 2.4 0 0 1-.9-1.02c-.21-.45-.32-1-.32-1.64 0-.48.06-.91.2-1.28.13-.38.31-.7.54-.94a2.38 2.38 0 0 1 2.51-.66c.23.06.45.16.66.3l.03 1.13h-.2l-.3-.68c-.04-.11-.1-.22-.15-.31a.47.47 0 0 0-.21-.2.84.84 0 0 0-.43-.1c-.28 0-.54.08-.77.26-.23.17-.42.46-.56.86-.14.4-.2.94-.2 1.63 0 .68.06 1.23.19 1.63.13.4.31.69.54.86.22.17.48.25.76.25a1.2 1.2 0 0 0 .56-.13c.1-.05.17-.11.23-.2.05-.09.1-.2.13-.3l.28-.8H26l-.03 1.25a2.52 2.52 0 0 1-1.5.43Zm21.87 7a2.79 2.79 0 0 1-1.34-.35l.04-1h.19l.2.5c.06.13.12.25.19.34.06.1.15.16.26.2.07.04.14.07.2.08l.24.01c.26 0 .47-.07.62-.22a.8.8 0 0 0 .24-.6.8.8 0 0 0-.16-.53c-.1-.13-.28-.26-.51-.38l-.27-.13a2.81 2.81 0 0 1-.87-.61c-.2-.24-.31-.55-.31-.94a1.27 1.27 0 0 1 .75-1.2c.23-.11.5-.17.82-.17a2.02 2.02 0 0 1 1.18.37l-.04.9h-.2l-.24-.54a1.18 1.18 0 0 0-.2-.34.4.4 0 0 0-.23-.14 2.42 2.42 0 0 0-.28-.03.8.8 0 0 0-.55.21.7.7 0 0 0-.23.56c0 .23.06.42.18.56.11.15.28.27.5.38l.3.14c.42.2.72.42.9.65.19.22.28.51.28.86 0 .43-.15.77-.44 1.03-.28.26-.69.39-1.22.39ZM41 35v-.16l.12-.04c.09-.04.14-.08.17-.14a.69.69 0 0 0 .03-.25v-3.83a.6.6 0 0 0-.03-.23.34.34 0 0 0-.16-.15l-.13-.04V30h1.51v.16l-.11.04a.3.3 0 0 0-.16.15.69.69 0 0 0-.04.25v4.17h.9c.14 0 .24-.04.3-.13.08-.08.14-.2.2-.37l.23-.62H44L43.94 35H41Zm-5 0v-.16l.17-.06a.42.42 0 0 0 .2-.13.6.6 0 0 0 .13-.25l1.28-4.4h.53l1.28 4.43c.03.1.07.2.11.25.04.06.11.1.2.14l.1.03V35h-1.62v-.15l.11-.04c.1-.03.15-.09.17-.16a.53.53 0 0 0-.01-.28l-.27-.97h-1.4l-.28.95a.64.64 0 0 0-.03.27c.02.07.07.13.16.17l.14.05V35H36Zm1.04-1.82h1.28l-.62-2.27-.66 2.27ZM33.7 35v-.16l.21-.06c.15-.04.22-.17.22-.37v-4.18h-.41c-.11 0-.2.04-.24.13-.05.08-.1.2-.16.36l-.18.56H33l.03-1.28h2.94l.03 1.28h-.14l-.18-.56c-.05-.16-.1-.28-.16-.36-.05-.09-.13-.13-.24-.13h-.41v4.18c0 .2.07.33.22.37l.2.06V35h-1.58ZM29 35v-.16l.12-.05a.24.24 0 0 0 .15-.13.76.76 0 0 0 .05-.27v-3.8a.7.7 0 0 0-.05-.24.25.25 0 0 0-.14-.14l-.13-.05V30h2.84l.04 1.21h-.17l-.23-.68a.73.73 0 0 0-.11-.22c-.04-.06-.1-.08-.18-.08h-1.02v2.07h.59c.08 0 .14-.02.18-.07a.87.87 0 0 0 .12-.22l.1-.29h.13v1.4h-.13l-.1-.28a.87.87 0 0 0-.12-.22.2.2 0 0 0-.17-.09h-.6v2.24h1.15c.08 0 .14-.02.18-.07a.66.66 0 0 0 .11-.23l.22-.68H32L31.96 35H29Zm-7 0v-.2l.16-.05c.1-.04.17-.1.2-.18a.73.73 0 0 0 .06-.32v-4.5a.87.87 0 0 0-.04-.29c-.02-.08-.09-.14-.2-.18L22 29.2V29h1.53l1.5 4.44L26.44 29H28v.2l-.13.05c-.1.03-.17.09-.2.17a.64.64 0 0 0-.06.29v4.57c0 .13.01.23.04.3.03.06.09.11.19.16l.16.06v.2h-1.94v-.2l.17-.06c.1-.05.17-.1.19-.17a.86.86 0 0 0 .04-.29v-1.97l.01-2.43L24.84 35h-.44l-1.72-5.07.03 2.07v2.26c0 .13.02.23.05.31.03.08.1.14.2.17l.16.06v.2H22Z" /></svg>