<!-- by TradeStack --><svg width="56" height="56" viewBox="0 0 56 56" xmlns="http://www.w3.org/2000/svg"><path fill="#F0F3FA" d="M0 0h56v56H0z"/><path d="M46.85 25H30.57C25.09 25 23 29.37 23 32.37V37h-1.5c-1.8 0-2.5-.71-2.5-2.58v-12.8c0-1.86.7-2.62 2.5-2.62H33v-5H21.5c-4.55 0-7.5 2.92-7.5 7.62v12.76C14 39.1 16.95 42 21.5 42h8.2c4.57 0 8.3-2.92 8.3-7.62V30h8.85c1.15.01 2.1-1.37 2.15-2.49-.03-.84-1.2-2.52-2.15-2.51ZM33 34.46c0 1.87-1.49 2.54-3.3 2.54H28v-4.48c0-1.19.8-2.52 2.57-2.52H33v4.46Z" fill="#185AA5"/></svg>