<!-- by TradeStack --><svg width="56" height="56" viewBox="0 0 56 56" xmlns="http://www.w3.org/2000/svg"><path fill="#F0F3FA" d="M0 0h56v56H0z"/><path d="m33.3 20.5-4.24 5.36-3.7-5.9.52-6.96c2.12 0 3.18 1.07 3.7 2.14l3.71 5.36Z" fill="url(#ahzyiyz2j)"/><path d="M17.41 34H10a726.51 726.51 0 0 1 10.59-18.32c1.32-2 3.17-2.68 5.3-2.68 1.58 0 2.64.54 3.17 1.4L17.4 34Z" fill="url(#bhzyiyz2j)"/><path d="m22.7 35.5 4.24-5.36 3.7 5.9-.52 6.96c-2.12 0-3.18-1.07-3.7-2.14L22.7 35.5Z" fill="url(#chzyiyz2j)"/><path d="M38.59 22H46a726.51 726.51 0 0 1-10.59 18.32c-1.32 2-3.17 2.68-5.3 2.68-1.58 0-2.64-.54-3.17-1.4L38.6 22Z" fill="url(#dhzyiyz2j)"/><defs><linearGradient id="ahzyiyz2j" x1="27.47" y1="14.61" x2="30.18" y2="24.77" gradientUnits="userSpaceOnUse"><stop stop-color="#0E2B93"/><stop offset="1" stop-color="#1E5FED"/></linearGradient><linearGradient id="bhzyiyz2j" x1="28" y1="13.54" x2="8.68" y2="28.71" gradientUnits="userSpaceOnUse"><stop stop-color="#3D55F1"/><stop offset="0" stop-color="#3F4FF0"/><stop offset="1" stop-color="#0AC5FF"/></linearGradient><linearGradient id="chzyiyz2j" x1="28.53" y1="41.39" x2="25.82" y2="31.23" gradientUnits="userSpaceOnUse"><stop stop-color="#0E2B93"/><stop offset="1" stop-color="#1E5FED"/></linearGradient><linearGradient id="dhzyiyz2j" x1="28" y1="42.46" x2="47.32" y2="27.29" gradientUnits="userSpaceOnUse"><stop stop-color="#3D55F1"/><stop offset="0" stop-color="#3F4FF0"/><stop offset="1" stop-color="#0AC5FF"/></linearGradient></defs></svg>