<!-- by TradeStack --><svg width="56" height="56" viewBox="0 0 56 56" xmlns="http://www.w3.org/2000/svg"><path fill="#F0F3FA" d="M0 0h56v56H0z"/><circle cx="28" cy="28" r="16" fill="#FFFBC8"/><path d="M30.62 14c.08 0 .19.01.33.07-.07.11-.06.34.04.67a.23.23 0 0 1-.01.17.17.17 0 0 1-.05.06.13.13 0 0 1-.06.02c-.3.03-.53.19-.71.48a.44.44 0 0 1-.28.2c-.32.07-.62.07-.93.22-.58.29-1.17.63-1.78 1.03-.12.09-.4.13-.85.08.28-.3.47-.61.58-.88a.26.26 0 0 0-.01-.22.19.19 0 0 0-.07-.08.14.14 0 0 0-.09-.01l-.75.08c-.14.02-.18-.06-.11-.22 0-.03.02-.06.04-.1.06-.13.03-.2-.09-.22a.4.4 0 0 0-.2.01.26.26 0 0 0-.12.09.36.36 0 0 0-.07.14.74.74 0 0 1-.28.45c-.3.25-.6.51-.88.77-.07.07-.06.16.02.19.09.03.19.01.3 0H23a.96.96 0 0 1 .15-.37c.75-.97 1.97-1.82 3.07-1.69.34.05.62-.1.97.01a4.2 4.2 0 0 0 1.52.22A2.56 2.56 0 0 0 30.62 14ZM33.97 16.05c.04.07.04.15.01.22l-.99.73c0-.12-.35.48-.49.5-.26.04-.25-.46-.5-.5.4-.7 1.05-1.12 1.97-.95Z" fill="#F5C348"/><path d="M33.36 17c-.07.58-.03 1.07.1 1.45.26.79.8 1.33 1.54 2.05V23l-.02-.84a.2.2 0 0 0-.11-.18c-.79-.43-1.53-.36-2.23.23l-.4-.71c1-.36 1.18-.6.53-.7.36-.08.64-.4.86-.97a.15.15 0 0 0-.02-.13.14.14 0 0 0-.11-.07h-1.15.09a.16.16 0 0 0 .08-.1.16.16 0 0 0-.02-.12A3.85 3.85 0 0 1 32 17h1.36ZM19.57 17.5v2.33l.01-.84c0-.11-.03-.22-.1-.3a.4.4 0 0 0-.26-.15 2.3 2.3 0 0 1-.87-.37l.01-.42c.9.3 1.3.21 1.2-.24ZM23.3 17.01l2.29.03c-.12.1-.23.2-.32.35-.08.1-.14.17-.2.19-.1.03-.2-.01-.26-.13a.37.37 0 0 0-.18-.16l-.25-.11c-.07-.03-.1 0-.1.07.03.16.1.25.22.26.08.01.15.03.23.07.66.28 1.37.19 2.12.05.07-.02.1-.06.12-.14l.03-.35v1.97a2.17 2.17 0 0 0-2.1.39l-1.29.05c-.07 0-.12.04-.14.11-.05.16-.06.35-.03.57.03-.27-.03-.4-.18-.4-.25.01-1.6.15-2.05.41a.32.32 0 0 0-.15.2c-.03.1-.05.2-.04.3 0 .12.05.23.13.32.07.1.17.15.28.15.46.04 1.91.06 2.36.06.38 0 .62.2.71.58.17.73.1 1.37-.22 1.9-.04.06-.03.11.02.15.06.05.55.11.7.1h-2c-.29-.3-.06-.45.68-.46a.2.2 0 0 0 .17-.1c.4-.56.42-1.4-.41-1.48-.48-.04-1.96-.13-2.44-.26v-2.14c.73-.15 2.37-.36 2.92-.64.36-.19.34-.27-.06-.24-.5.04-2.12-.01-2.84-.14v-1.13c.17.34 1.54.49 2.12.44.1 0 .17-.07.19-.18.04-.22 0-.4-.11-.58a.06.06 0 0 1-.01-.05l.01-.02.02-.02.06.01ZM29.14 17.89c.68-.05 1.03.28 1.07.98 0 .18-.08.35-.26.48a.23.23 0 0 1-.21.04.23.23 0 0 1-.1-.07.25.25 0 0 1-.05-.1c-.08-.26-.24-.42-.47-.46l.02-.87ZM27 23v.9c0 .07-.04.1-.12.1l-.88-.02c.27 0 .4-.1.4-.27 0-.05.02-.1.06-.14L27 23ZM41 28h-3.4a4.79 4.79 0 0 1-.59-2.18c-.01-.76-.12-1.52.72-1.77.54-.15.96.04 1.28.58a.16.16 0 0 1 0 .15.13.13 0 0 1-.05.05.11.11 0 0 1-.07.02c-.42-.04-1.16-.13-1.3.47-.2.87-.06 1.92.82 2.13.37.1.73.17 1.1.24l.73.07c.27 0 .52.08.76.23ZM15 26.9l.66-.01c.04 0 .09-.02.12-.06a.26.26 0 0 0 .08-.14l.14-.74c.1.06.16.04.22-.04a.37.37 0 0 0 .06-.18.8.8 0 0 1 .42-.71c.08-.04.13-.02.17.07.3.73.08 1.3-.66 1.72-.22.12-.29.31-.21.59.04.13.04.27 0 .4-.08.27-.13.26-.16-.02a.57.57 0 0 0-.1-.3c-.08-.1-.12-.09-.14.04l-.04.36c-.02.14-.07.16-.15.06a.93.93 0 0 1-.07-.09.3.3 0 0 1-.04-.11 1.94 1.94 0 0 0-.3-.85ZM22.13 24c.04.32.12.62.23.9.04.1.08.16.13.19l.1.02c.06.01.1-.04.1-.14 0-.48.14-.69.41-.63.01.21.11.32.3.32 2.18.03 3.72.03 4.6.01l-1.32.04c-.06 0-.1.04-.14.11-.17.3-.37.58-.6.82-.09.09-.17.07-.24-.05a.2.2 0 0 0-.07-.08.12.12 0 0 0-.09-.01.58.58 0 0 0-.36.18c-.26.27-.33.18-.22-.28.02-.09.05-.17.09-.24a.24.24 0 0 0 .01-.14.18.18 0 0 0-.02-.07.1.1 0 0 0-.04-.03c-.52-.24-.97-.08-1.37.49-.2.27-.27.58-.23.93 0 .04.01.08.03.11.01.03.04.06.06.07a.1.1 0 0 0 .08 0 .15.15 0 0 0 .07-.06c.11-.2.21-.41.3-.65.06-.17.15-.27.28-.28.05 0 .09.04.1.13.02.31.12.53.3.66.1.05.1.13.02.21l-.29.34c-.18.18-.37.56-.6 1.13L19 27.99a4.77 4.77 0 0 1 .8-1.32.1.1 0 0 1 .08.01l.06.07a.3.3 0 0 1 .03.1c.01.13.05.24.12.32.1.12.16.07.16-.13v-.66l1.39.06c-.39.01-.62.16-.7.45-.08.33-.02.44.2.34.46-.22.92-.2 1.37.05.3.17.42 0 .37-.5a.98.98 0 0 1 .13-.63.3.3 0 0 0 .04-.1.39.39 0 0 0-.01-.2.26.26 0 0 0-.05-.08l-.08-.1a.12.12 0 0 0-.05-.04h-.06a.12.12 0 0 0-.05.04.21.21 0 0 0-.04.06l-.24.67a.36.36 0 0 1-.07.13.19.19 0 0 1-.1.06c-.11.02-.23-.03-.35-.18.14-.01.2-.15.2-.43-.03-.66-.03-1.32-.02-1.98ZM33.95 25v.68c.01.14.05.28.12.28l1.33.04c-.11.65.09 1.27.6 2h-4c.48-.32.8-.7.98-1.14.28-.71.6-1.33.97-1.86Z" fill="#F5C348"/><path d="M40 28c-.32.1-.52.27-.59.54-.2.79-.29 1.76-.25 2.93.02.48-.04.88-.17 1.2-.16.37-.43.7-.83 1a.18.18 0 0 1-.2.01c-.42-.22-.85 0-1.31-.06-.49-.06-.98-.1-1.48-.15-.58-.05-1 .16-1.25.53h-1.8c.28.04.5-.13.68-.47.06-.12.03-.2-.1-.2l-.55-.06a.25.25 0 0 1-.2-.12c-.06-.1-.11-.2-.14-.32-.03-.1-.09-.13-.17-.11-.11.03-.2.1-.24.22-.04.09-.01.16.07.2l.07.05c.02 0 .04.03.05.05a.17.17 0 0 1 .02.14c-.01.02-.02.05-.04.06-.17.18-.38.3-.63.38-.06.02-.1 0-.14-.04a.66.66 0 0 0-.31-.2.2.2 0 0 0-.19.04c-.14.1-.2.25-.17.38h-3.74c-.07 0-.13 0-.2-.02l-.19-.05c.2.02.37-.07.5-.28a.26.26 0 0 1 .19-.14l.5-.07c.18-.03.23.04.13.22l-.05.09c-.06.1-.03.23.07.25.14.02.24-.1.3-.23.06-.12.1-.24.14-.37a.2.2 0 0 1 .1-.14 2.06 2.06 0 0 1 1.56-.17c.38.12.73.05 1.06-.2.1-.08.15-.06.17.07l.03.18c0 .04.03.08.06.1.03.03.07.04.1.04.05 0 .09-.01.12-.04.08-.07.1-.15.05-.24a.54.54 0 0 1-.01-.46c.03-.08.08-.1.16-.1l.62.13c.04 0 .08 0 .12-.03a.18.18 0 0 0 .07-.1l.02-.05v-.06a.08.08 0 0 0-.04-.04 1.32 1.32 0 0 0-.49-.14.26.26 0 0 1-.2-.13c-.09-.13-.2-.18-.36-.13-.05.02-.09.06-.1.12l-.07.33c-.01.04-.03.08-.06.1a.13.13 0 0 1-.1.02c-.51-.1-.5-.47-.8-.75h3.53c-.3.06-.6.26-.9.61-.07.07-.06.12.03.15.12.04.23.02.34-.07a24.47 24.47 0 0 1 .63-.5l.03.01.02.03v.04l-.05.21a.17.17 0 0 1-.07.1 3.94 3.94 0 0 1-.92.5v.06c0 .07.03.1.09.08.25-.06.46 0 .63.19.04.03.08.04.13.02l.73-.3a.22.22 0 0 0 .12-.1l.4-.8a.1.1 0 0 1 .03-.05.09.09 0 0 1 .06-.02h.08c.1.01.12.06.07.15l-.38.76a.06.06 0 0 0 0 .05l.02.02h.17l.03-.03.5-.9a.1.1 0 0 0 .02-.06c0-.02 0-.04-.02-.05a.14.14 0 0 0-.11-.05l-.17-.04 1.39-.09c.04.13-.02.26-.16.37-.14.1-.25.25-.35.43-.05.1-.03.12.06.1.28-.08.5-.26.66-.55a3.7 3.7 0 0 0 .5-1.86c0-.06-.03-.1-.1-.09h-.05l-.04.02a.07.07 0 0 0-.02.05c0 .26-.03.49-.11.69l-1.35-.03c.04-.48-.22-.5-.76-.07-.27.07-.54.09-.81.04.02-.22.07-.42.15-.59a.14.14 0 0 0-.02-.15.09.09 0 0 0-.08-.04c-.05 0-.09.03-.12.08a.76.76 0 0 0-.11.4c0 .02 0 .04-.02.05a.1.1 0 0 1-.04.05.1.1 0 0 1-.12-.03c-.13-.13-.26-.13-.4 0a.23.23 0 0 1-.1.06.2.2 0 0 1-.1 0 .21.21 0 0 0-.16.03c-.1.06-.09.1.02.1.1 0 .17.02.22.05h-1.93.67l.08-.03c.08-.04.12-.11.1-.2 0-.08-.05-.12-.13-.14l-.24-.04a.1.1 0 0 1-.05-.02.12.12 0 0 1-.03-.05.13.13 0 0 1 0-.1c.17-.37.37-.72.61-1.05.26-.34.18-.75-.02-1.1l1.54-.01c-.32.42-.55 1-.68 1.75-.02.07-.06.12-.12.13-.16.05-.3.13-.45.24-.07.05-.07.09.01.11.27.09.45 0 .55-.27.02-.07.07-.1.14-.08.27.07.49 0 .66-.23.04-.06.1-.1.17-.1.4-.04.8-.1 1.2.02.18.06.36.04.55-.05a.38.38 0 0 1 .23-.04c.91.14 1.47-.38 1.47 1.12 0 .67-.21 1.23-.64 1.67a.08.08 0 0 0-.02.07c0 .02 0 .04.02.05.03.04.07.05.1.02a2 2 0 0 0 .84-1c.04-.1.05-.2.02-.3a1 1 0 0 1-.03-.25c0-.1.02-.11.09-.04.1.13.17.28.22.45.02.07.05.12.1.15.18.09.35.07.5-.05a.14.14 0 0 0 .05-.07.16.16 0 0 0-.04-.16.13.13 0 0 0-.07-.04l-.29-.04c-.02 0-.02 0-.03-.02 0-.02 0-.04.02-.05a.17.17 0 0 1 .08-.05.8.8 0 0 0 .54-.4c.03-.05.02-.1-.02-.13l-.04-.04c-.02-.02-.04-.02-.06 0-.26.27-.5.32-.74.14a.15.15 0 0 1-.05-.06.16.16 0 0 1 .02-.15.14.14 0 0 1 .05-.05c.29-.13.42-.34.39-.62-.01-.12-.06-.14-.13-.05-.08.07-.14.17-.2.28l-.02.04a.1.1 0 0 1-.14 0c-.07-.07-.1-.16-.06-.28.14-.47.27-.93.39-1.4 0-.03.02-.04.05-.03l.05.01c.03 0 .04.03.04.06l-.08.54c0 .04 0 .07.02.1l.07.05.08.01c.08.01.13-.03.14-.12l.08-.83H40ZM14.95 28.1h.67c.13-.01.14.07.06.26a.18.18 0 0 0 .02.2c.05.05.1.07.18.05a.3.3 0 0 1 .3.06.3.3 0 0 1 .08.28.9.9 0 0 0 0 .35c.04.26.18.36.43.3.05-.02.1-.04.14-.08a.34.34 0 0 0 .1-.15l.35-1.03c0-.03.02-.05.05-.06a.1.1 0 0 1 .07-.01h.06c.07.02.1.06.06.13-.22.5-.16 1.06-.41 1.54-.14.26-.18.55-.15.9v.03c0 .02-.02.03-.03.03a.06.06 0 0 1-.08 0 .27.27 0 0 1-.08-.22c0-.02 0-.04-.02-.05-.03-.01-.06 0-.1.03a.18.18 0 0 0-.05.1c-.08.42-.03.81.17 1.17.03.07.09.12.15.16a.4.4 0 0 0 .42 0c.07-.05.12-.1.15-.17.13-.25.31-.43.55-.53.09-.04.11-.1.07-.2a.42.42 0 0 0-.23-.22.2.2 0 0 1-.12-.18v-.08c.04-.1.13-.15.25-.13.12.03.21-.02.26-.14a.31.31 0 0 0 .02-.17c-.02-.09-.07-.14-.15-.16l-.38-.1c-.11-.02-.16-.1-.14-.2.06-.57.29-.85.67-.83.02 0 .03 0 .05-.02l.03-.03a.1.1 0 0 0 0-.09l-.15-.29c-.05-.08-.03-.13.06-.16.04-.01.08 0 .13.04.03.03.07.04.1.04.04 0 .08-.02.1-.04.12-.13.14-.23.06-.32l1.38.06c.73.16 1.22.38 1.46.66.15.17.22.14.19-.1a3.14 3.14 0 0 0-.08-.42c-.02-.09-.07-.14-.16-.15l-.3-.06h1.55c-.04.78-.21 1.35-.52 1.72-.55.67.2 1.15.8 1.45l.01 1.94-2-1.06v-2.82c0-1.07-.56.87-.7 1.1l-.63.07c-.07 0-.1.04-.1.11l.01 5.28c.02.06.01.12-.02.17l-.02-.77a.1.1 0 0 0-.04-.08c-.16-.15-.17-.32-.03-.49a.2.2 0 0 0-.07-.3.17.17 0 0 0-.11 0c-.16.04-.29-.02-.4-.17a.2.2 0 0 1-.03-.12c0-.1-.04-.16-.13-.2-.08-.02-.13 0-.15.08-.13.04-.23.02-.3-.08a.12.12 0 0 1 0-.15.11.11 0 0 1 .02-.03c.1-.06.2-.1.31-.14.08-.02.12-.08.12-.17 0-.08-.04-.11-.1-.12h-.65c-.05-.01-.07-.03-.08-.08l-.02-.07a.12.12 0 0 1 .01-.09.11.11 0 0 1 .07-.05l.5-.09c.05 0 .07-.04.05-.1l-.03-.08a.16.16 0 0 0-.07-.08.14.14 0 0 0-.1-.01c-.31.07-.56 0-.72-.2-.06-.08-.11-.07-.16.01-.1.18-.22.24-.38.16a.61.61 0 0 1-.22-.17c-.25-.3-.57-.48-.7-.87-.14-.42-.16-.76-.42-1.14a41.7 41.7 0 0 1-.39-.55c-.18-.27-.3-.87-.37-1.81ZM41.98 29.16a.79.79 0 0 1-.43-.06c.18-.27.22-.58.12-.9-.02-.05 0-.08.05-.07h.11c.05 0 .07.02.08.06.09.31.11.63.07.97Z" fill="#F5C348"/><path d="m26.93 31.8 1.87-.06c-.44.25-.9.5-1.36.78-.26.15-.5.27-.74.37l-.79.32c-.16.06-.27.2-.38.32v-1.38c.66.1 1.12-.02 1.4-.36ZM21 33.37c.2.3.38.51.55.62.1.06 1.6.16 1.96.29l-.01 2.53c-.28.34-1.62.81-1.54 1.42a.76.76 0 0 1-.34.08c-.07 0-.11.04-.12.11-.01.15.06.31.22.48-.31.13-.55.36-.72.67v-6.2ZM31 39c-.68-.25-1.35-.46-2-.65a.93.93 0 0 1-.5-.35.19.19 0 0 1-.04-.15l.03-.07a.16.16 0 0 1 .05-.05l.73-.43c.07-.05.1-.11.06-.2-.01-.03-.04-.05-.08-.04-.18 0-.25-.1-.23-.3.02-.19-.05-.3-.2-.32-.08-.02-.12.02-.12.12 0 .05.01.1.04.15.11.17.09.3-.06.43-.22.16-.4.18-.52.04-.06-.08-.08-.16-.03-.26.06-.1.07-.2.03-.32a.16.16 0 0 0-.05-.08.13.13 0 0 0-.1-.03l-.07.01c-.07 0-.1.05-.07.12.04.17.04.33-.02.46-.04.09-.1.13-.2.13h-.13c-.13 0-.17-.06-.13-.2l.05-.22c.03-.1 0-.14-.1-.12-.12.03-.18.12-.17.25 0 .16-.05.29-.17.38a.17.17 0 0 1-.13.04c-.1 0-.14-.07-.13-.18l.04-.34c.01-.1-.01-.2-.06-.28-.05-.06-.1-.06-.13.02-.06.13-.1.27-.1.42-.01.14-.06.24-.17.32a.27.27 0 0 1-.09.04c-.15.04-.23-.03-.23-.21v-.77c0-.04 0-.08.03-.12a.25.25 0 0 1 .07-.1c.09-.06.1-.14.04-.23a.48.48 0 0 1-.08-.22c-.02-.22 0-.43.06-.63l1.12-.06c.08.16.03.34-.14.46-.1.06-.2.1-.34.13-.05 0-.08.05-.09.1 0 .04 0 .07.02.1s.04.05.07.05c.21.06.28.2.2.43a.1.1 0 0 0 0 .08l.04.03.03.01c.15.02.3 0 .45-.06l.03-.02a.1.1 0 0 0 .01-.12l-.16-.3c-.07-.1-.05-.19.06-.24.16-.1.32-.08.46.05.07.07.07.13 0 .2a.53.53 0 0 0-.13.25c-.02.1.01.14.1.12.14-.04.25-.11.34-.22a.36.36 0 0 0-.02-.45l-.51-.6h2.15c.05.15.02.32-.08.41-.1.1-.08.16.05.17.35.04.58-.07.67-.35.03-.1 0-.16-.1-.17l-.54-.06c.38-.07.74-.01 1.09.08.07.01.1.06.1.14V39ZM33 38l.03-.73c1.28-.2 2.1-.33 2.44-.4.59-.12 1.34-1.12.6-1.53a.13.13 0 0 1-.04-.04.12.12 0 0 1 .03-.17c.17-.1.34-.15.5-.12.07 0 .13.04.17.1.42.56.35 1.11-.2 1.66C35.61 37.7 34.5 38 33 38ZM31.06 39H32l-.11.01c-.05 0-.07.05-.06.12 0 .08-.01.15-.06.2-.12.51-.3.98-.53 1.38-.05.09-.17.23-.37.44a.86.86 0 0 0-.25.65l-1.1.2c.09-.16.36-.32.8-.5.22-.09.41-.38.57-.88.05-.16.02-.2-.08-.1-.14.14-.28.3-.4.5a.4.4 0 0 1-.17.17c-.24.11-.48.19-.73.24-.66.13-.68.02-.06-.33.13-.07.3-.11.5-.12.2-.02.33-.18.48-.34a.29.29 0 0 0 .06-.12.4.4 0 0 0 .01-.15c0-.05-.02-.1-.04-.13a.2.2 0 0 0-.09-.09.12.12 0 0 1-.07-.09c0-.08.01-.13.06-.17.17-.1.32-.27.43-.49.02-.03.04-.04.06-.03l.05.02v.04c-.06.17-.1.34-.13.53 0 .1.02.15.09.16.05.01.08-.03.11-.12.1-.33.12-.66.1-1Z" fill="#F5C348"/><circle cx="28" cy="28" r="2" fill="#F5C348"/><path d="M44 28.5a16.28 16.28 0 0 0 0-1H12a16.28 16.28 0 0 0 0 1h32Z" fill="#81272A"/><path d="M37 38.72a13.94 13.94 0 0 1-16 1.4V30h-2v11.23A15.93 15.93 0 0 0 28 44c3.34 0 6.44-1.02 9-2.77v-2.5Zm1 1.77A15.98 15.98 0 0 0 43.88 30h-2.02A13.96 13.96 0 0 1 38 37.8v2.7ZM41.86 26h2.02A15.98 15.98 0 0 0 38 15.5v2.7a13.96 13.96 0 0 1 3.86 7.8ZM37 14.77V26h-2V15.87a13.94 13.94 0 0 0-14 0V26h-2V14.77A15.93 15.93 0 0 1 28 12c3.34 0 6.44 1.02 9 2.77Zm-19 .74A15.98 15.98 0 0 0 12.12 26h2.02A13.96 13.96 0 0 1 18 18.2v-2.7ZM14.14 30h-2.02c.53 4.23 2.71 7.95 5.88 10.5v-2.7a13.96 13.96 0 0 1-3.86-7.8ZM33.5 17H23v1h4v2h-4v1h4v3h-4v1h10.5l.5-1h-5v-3h4l.5-1H29v-2h4l.5-1ZM30 22l1 1.5h2L32 22h-2Zm-7 16.5V31h14l-.5 1H25v2h12l-1 1h-3v4h-2v-4h-6v4h-2l-1-.5h1Z" fill="url(#auaqtorb5)"/><defs><linearGradient id="auaqtorb5" x1="28" y1="12" x2="28" y2="44" gradientUnits="userSpaceOnUse"><stop stop-color="#AF2823"/><stop offset="1" stop-color="#74272B"/></linearGradient></defs></svg>