<!-- by TradeStack --><svg width="56" height="56" viewBox="0 0 56 56" fill="none" xmlns="http://www.w3.org/2000/svg">
<rect width="56" height="56" fill="#F0F3FA"/>
<path fill-rule="evenodd" clip-rule="evenodd" d="M28 43C36.2843 43 43 36.2843 43 28C43 19.7157 36.2843 13 28 13C19.7157 13 13 19.7157 13 28C13 36.2843 19.7157 43 28 43ZM28 45C37.3888 45 45 37.3888 45 28C45 18.6112 37.3888 11 28 11C18.6112 11 11 18.6112 11 28C11 37.3888 18.6112 45 28 45Z" fill="#1D283A"/>
<path d="M31.215 19H23.2234L22.2004 23H31.0834C31.8008 23 31.9863 23.6261 31.9863 24.059C31.9863 24.5538 31.6647 25 30.8483 25H21.7L20.5518 29H31.215C33.9177 29 36.1483 26.9218 36.2935 24.2686C36.4502 21.4058 34.1312 19 31.215 19Z" fill="#1D283A"/>
<path d="M25.1457 33.1835C25.1457 34.739 23.8847 36 22.3292 36C20.7737 36 19.5127 34.739 19.5127 33.1835C19.5127 31.6279 20.7737 30.3669 22.3292 30.3669C23.8847 30.3669 25.1457 31.6279 25.1457 33.1835Z" fill="#E6012C"/>
<path d="M36.2928 36H29.6941C29.4623 31.55 25.5632 30.1458 23.6426 30H30.5632C34.7349 30.275 36.1211 34.1146 36.2928 36Z" fill="#1D283A"/>
</svg>
