<?xml version='1.0' encoding='utf-8'?>
<!-- by TradeStack -->
<svg width="56" height="56" viewBox="0 0 56 56" xmlns="http://www.w3.org/2000/svg"><path fill="url(#al0wcrxlz)" d="M0 0h56v56H0z" /><path d="m28 34.9 6.32 6.64a5.07 5.07 0 0 0 5.55 1.05A4.94 4.94 0 0 0 43 37.96V18.04c0-2.08-1.2-3.85-3.16-4.65a5.07 5.07 0 0 0-5.56 1.1L28 21.1l-6.32-6.64a5.07 5.07 0 0 0-5.55-1.05A4.94 4.94 0 0 0 13 18.04v19.92c0 2.08 1.2 3.85 3.16 4.65 1.95.79 4.08.37 5.56-1.1L28 34.9Zm-2.28-2.4-5.69 5.98c-.53.53-1.27.66-1.94.36A1.84 1.84 0 0 1 17 37.13V18.87c0-.76.42-1.42 1.1-1.72.68-.3 1.42-.15 1.95.39L30 28l2.34 2.34L34.56 28l-4.28-4.5 5.69-5.98a1.71 1.71 0 0 1 1.94-.36c.68.3 1.09.95 1.09 1.71v18.26c0 .76-.42 1.42-1.1 1.72-.68.3-1.42.15-1.95-.39l-8.35-8.78-3.98-3.98-2.18 2.3 4.28 4.5Z" fill="#F0F3FA" /><defs><linearGradient id="al0wcrxlz" x1="28" y1="0" x2="28" y2="56" gradientUnits="userSpaceOnUse"><stop stop-color="#3559C7" /><stop offset="1" stop-color="#2949AA" /></linearGradient></defs></svg>