<!-- by TradeStack --><svg width="56" height="56" viewBox="0 0 56 56" xmlns="http://www.w3.org/2000/svg"><path fill="#F0F3FA" d="M0 0h56v56H0z"/><path d="M24.23 17.91C14.53 21.95 12.03 26.23 12 28c4.58-6.68 17.92-11 22.2-11 4.27 0 4.8 1.07 4.8 2 0 2.1-4.94 5.74-10.16 8.17C14.9 33.15 12 38.38 12 39.86c0 1.48 1.95 2.14 4.35 2.14 3.98 0 8.9-.81 15.16-3.62C41.32 34.2 43.92 29.6 44 28c-5.4 6.75-18.94 11-21.6 11-2.67 0-5.4-.65-5.4-2.13 0-2.43 4.8-5.5 12.44-9C43.14 20.38 44 17.54 44 16.17c0-1.36-1.2-2.17-4.01-2.17-2.82 0-7.5.48-15.76 3.91Z" fill="#C0E02B"/><path d="M38.09 24.23c-4.04-9.7-8.6-12.2-10.37-12.23C34.4 16.58 39 29.92 39 34.2c0 4.27-1.07 4.8-2 4.8-2.1 0-5.74-4.94-8.17-10.16C22.85 15.34 17.62 12 16.14 12 14.66 12 14 13.95 14 16.35c0 3.98.81 8.9 3.62 15.16C21.8 41.32 26.05 43.92 27.65 44 20.9 38.6 17 24.77 17 22.1c0-2.66.48-5.1 1.96-5.1 2.43 0 5.66 5.24 9.17 12.44C35.62 43.14 38.46 44 39.83 44c1.36 0 2.17-1.2 2.17-4.01 0-2.82-.48-7.5-3.91-15.76Z" fill="#82878A"/></svg>