<!-- by TradeStack --><svg width="56" height="56" viewBox="0 0 56 56" xmlns="http://www.w3.org/2000/svg"><path fill="url(#asye0hd2t)" d="M0 0h56v56H0z"/><path fill-rule="evenodd" d="M29.7 26.88c-.03.43-.07.83-.13 1.21-.38-.14-.76-.3-1.16-.5a22.25 22.25 0 0 0 1.29-.7ZM28 32c.8 0 1.5-1.38 1.87-3.42 2.02.72 3.63.84 4.03.17.4-.67-.5-1.94-2.17-3.25 1.67-1.31 2.58-2.58 2.17-3.25-.4-.67-2-.55-4.03.17C29.5 20.38 28.8 19 28 19s-1.5 1.38-1.87 3.42c-2.02-.72-3.63-.84-4.03-.17-.4.67.5 1.94 2.17 3.25-1.67 1.31-2.58 2.58-2.17 3.25.4.67 2 .55 4.03-.17C26.5 30.62 27.2 32 28 32Zm0-4.2c.52.25 1.03.47 1.51.65-.1.58-.22 1.1-.36 1.54-.2.57-.4 1-.62 1.29-.23.3-.41.37-.53.37-.12 0-.3-.08-.53-.37a4.39 4.39 0 0 1-.61-1.29 9.42 9.42 0 0 1-.37-1.54c.48-.18 1-.4 1.51-.65Zm-1.57.3c.38-.15.76-.32 1.16-.5a22.25 22.25 0 0 1-1.29-.72c.03.43.07.83.13 1.21Zm-.36.13c-.07-.5-.13-1.03-.16-1.58-.48-.3-.94-.61-1.35-.92-.47.36-.88.73-1.21 1.07-.43.44-.71.83-.86 1.16-.16.33-.13.51-.07.61.06.1.22.21.6.25.36.04.86 0 1.47-.13.48-.1 1.02-.26 1.58-.46Zm1.06-1.29-.86-.49a19.53 19.53 0 0 1 0-1.9A21.85 21.85 0 0 1 28 23.6a21.85 21.85 0 0 1 1.73.95 19.52 19.52 0 0 1 0 1.9 21.78 21.78 0 0 1-1.73.95c-.29-.14-.58-.3-.87-.46Zm1.93-3.2-.65-.34a19 19 0 0 1 1.16-.5c.06.39.1.8.13 1.22-.2-.13-.42-.25-.64-.37Zm1.06 1.76-.01-.71c.37.23.71.47 1.03.71-.32.24-.66.48-1.03.71l.01-.71Zm-.03-1.15c.48.3.94.61 1.35.92.47-.36.88-.73 1.21-1.07.43-.44.71-.83.86-1.16.16-.33.13-.51.07-.61-.06-.1-.22-.21-.6-.25-.36-.04-.86 0-1.47.13-.48.1-1.02.26-1.58.46.07.5.13 1.03.16 1.58Zm0 2.3c.48-.3.94-.61 1.35-.92.47.36.88.73 1.21 1.07.43.44.71.83.86 1.16.16.33.13.51.07.61-.06.1-.22.21-.6.25-.36.04-.86 0-1.47-.13a12.4 12.4 0 0 1-1.58-.46c.07-.5.13-1.03.16-1.58Zm-3.6-4.1c.48.18 1 .4 1.51.65a19.5 19.5 0 0 1 1.51-.65c-.1-.58-.22-1.1-.36-1.54-.2-.57-.4-1-.62-1.29-.23-.3-.41-.37-.53-.37-.12 0-.3.08-.53.37-.22.29-.43.72-.61 1.29-.15.45-.28.96-.37 1.54Zm1.1.85c-.4-.18-.78-.35-1.16-.5-.06.39-.1.8-.13 1.22a22.23 22.23 0 0 1 1.3-.72Zm-3.1-1.1c.48.11 1.02.27 1.58.47-.07.5-.13 1.03-.16 1.58-.48.3-.94.61-1.35.92-.47-.36-.88-.73-1.21-1.07a4.49 4.49 0 0 1-.86-1.16c-.16-.33-.13-.51-.07-.61.06-.1.22-.21.6-.25.36-.04.86 0 1.47.13Zm1.4 2.49c-.37.23-.71.47-1.03.71.32.24.66.48 1.03.71a20.05 20.05 0 0 1 0-1.42ZM28 26.5a1 1 0 1 0 0-2 1 1 0 0 0 0 2Z" fill="#D9D9D9"/><circle cx="28" cy="25.5" r=".75" fill="#518234"/><path d="M4 23.12c0 .37 1.51 1.81 2.83 2.7 1.36.91 4.06 2.24 5.47 2.68.39.12.67.25.64.28-.03.03-1.5-.33-3.26-.8a34.78 34.78 0 0 0-3.27-.8c-.33.31 2.99 2.13 5.05 2.77.73.22 1.3.44 1.25.48-.03.03-.78-.07-1.64-.24a6.27 6.27 0 0 0-1.7-.2c-.37.37 1.23 1.26 3.33 1.85 1.4.4 1.33.4-.69.13-1.06-.14-1.11.07-.18.68.8.52 1.73.84 3.05 1.03l.94.13-1.15.02c-.63.01-1.14.1-1.14.2 0 .33 1.52.93 2.73 1.06.66.08.96.15.65.17-.97.04-1.13.3-.43.67.48.25 1 .33 2.25.32l1.64-.01-.77.27c-.42.15-.76.33-.76.4 0 .46 2.38.5 3.52.06.53-.2.37.06-.22.36-.3.15-.55.35-.55.45 0 .26 1.76.2 2.47-.09l.63-.25-.29.43c-.29.44-.29.44.36.44.42 0 .83-.16 1.19-.45.5-.4.55-.41.67-.13.08.17.2.75.27 1.29l.13.98.34-.71c.2-.44.34-1.15.35-1.81.01-.97-.05-1.18-.55-1.78a13.4 13.4 0 0 0-2.67-1.94c-2.82-1.66-3.32-2.06-4.26-3.45-.45-.65-1-1.36-1.25-1.58-.26-.23-3.33-1.47-7.39-2.97l-7.27-2.69c-.18-.07-.32-.04-.32.05Zm40.6 2.55c-7.43 2.76-7.76 2.92-8.58 4.26-.87 1.42-2.42 2.67-5.14 4.18-1.86 1.02-2.7 2.07-2.7 3.37 0 .72.54 2.43.76 2.43.09 0 .16-.36.16-.8 0-.43.1-.99.2-1.23l.22-.45.53.44c.35.28.77.44 1.17.44.63 0 .63 0 .33-.45l-.3-.44.66.26c.74.3 2.5.37 2.5.1 0-.1-.06-.19-.14-.19a2 2 0 0 1-.6-.37c-.37-.3-.39-.35-.09-.25a5.9 5.9 0 0 0 2.87.26c.39-.1.7-.24.7-.32 0-.07-.34-.25-.76-.4l-.76-.27h1.63c1.26.02 1.78-.06 2.26-.31.7-.37.53-.63-.44-.67-.3-.02 0-.1.68-.17 1.15-.13 2.7-.76 2.7-1.1 0-.07-.5-.15-1.14-.16-.63-.02-.9-.06-.6-.1 1.48-.16 2.86-.65 3.52-1.23l.7-.6-1.19.08-1.19.09.88-.25c1.73-.5 3.5-1.51 3.18-1.83a6.4 6.4 0 0 0-1.7.2c-.86.17-1.6.27-1.64.24-.04-.04.53-.26 1.25-.48 1.76-.54 3.98-1.67 4.64-2.36.44-.45.47-.53.17-.44-2.95.83-5.83 1.54-5.91 1.46-.06-.05.01-.1.15-.1.48 0 3.77-1.55 5.13-2.4 1.74-1.1 3.86-3.19 3.15-3.1-.08 0-3.35 1.2-7.27 2.66Zm-2.18 6.51c-.06.06-.22.07-.35.01-.15-.05-.1-.1.1-.1.2-.01.31.03.25.09Z" fill="#518234"/><defs><linearGradient id="asye0hd2t" x1="10.42" y1="9.71" x2="68.15" y2="76.02" gradientUnits="userSpaceOnUse"><stop stop-color="#1A1E21"/><stop offset="1" stop-color="#06060A"/></linearGradient></defs></svg>