<!-- by TradeStack --><svg width="56" height="56" viewBox="0 0 56 56" xmlns="http://www.w3.org/2000/svg"><path fill="#F0F3FA" d="M0 0h56v56H0z"/><path fill-rule="evenodd" d="M38.52 41.37a17 17 0 1 0-21.03-26.73 17 17 0 0 0 21.03 26.73Zm-7.08.39a14.2 14.2 0 0 0 10.7-12.5A14.18 14.18 0 0 0 28.6 13.84c-.05 0-.07.02-.05.08.6 1.68 1.08 4.26 1.26 6.04 0 .03.02.03.05.03h2.96c1.3.02 1.17 1.12 1.17 2.13v.47c0 1.07-.52 1.4-1.56 1.4h-2.76c-.03 0-.05 0-.06.04-.17.76-.46 1.16-.74 1.9-.02.03 0 .06.03.06h1.73c.8 0 1.36.32 1.36 1.14v.21c0 .67.1 1.75-.18 2.22-.2.35-.55.42-1.02.43h-4.54c-.56.67-.99 1.08-1.43 1.93v.03a.05.05 0 0 0 .02.04h3.76c.97 0 1.39.32 1.39 1.3v.59c0 1.15.2 2.1-1.42 2.1h-4.34l-.02.01a.05.05 0 0 0-.02.06c.53 2.58 2.32 4.54 4.27 6.08.03.02.06.03.1.03.93-.04 1.89-.18 2.87-.41ZM23.68 27.5a19.46 19.46 0 0 0-2.4 4.18c-1.04 3.07-.86 6.55 1.04 9.27v.01a.03.03 0 0 1-.03.03 14.2 14.2 0 0 1 2.68-26.86c.03 0 .05 0 .07.03 1.22 2.35 2.01 5.38 1.42 7.94-.4 1.75-1.52 3.61-2.55 5.08l-.23.32Z" fill="url(#akzs5gydl)"/><defs><linearGradient id="akzs5gydl" x1="39.41" y1="16.17" x2="16.08" y2="39.98" gradientUnits="userSpaceOnUse"><stop offset=".24" stop-color="#125278"/><stop offset="1" stop-color="#E0612C"/></linearGradient></defs></svg>