<!-- by TradeStack --><svg width="56" height="56" viewBox="0 0 56 56" xmlns="http://www.w3.org/2000/svg"><path fill="#F0F3FA" d="M0 0h56v56H0z"/><circle cx="28" cy="28" r="16" fill="#0A2B82"/><path d="m12.71 32.74 15.11-8.81-10.46-1.15 8.7-.5-4.14-4.54 5.05 3.55.99-9.22 1.03 9.22 5.1-3.55-4.18 4.54 8.77.5-10.4 1.15 15.04 8.7c-.4 1.32-.96 2.57-1.67 3.72L28.17 24.01 38.7 39.9a16.03 16.03 0 0 1-3.55 2.42l-7.08-18.08 2.11 19.61a16.15 16.15 0 0 1-4.36 0l2-19.6-7.05 18.03a16.03 16.03 0 0 1-3.44-2.36l10.39-15.8-13.4 12.2c-.67-1.12-1.21-2.31-1.6-3.58Z" fill="url(#a1ekar4ge)"/><defs><linearGradient id="a1ekar4ge" x1="28.03" y1="12.07" x2="28.03" y2="44.62" gradientUnits="userSpaceOnUse"><stop offset=".09" stop-color="#FFE040"/><stop offset=".35" stop-color="#FEFCEA"/><stop offset=".95" stop-color="#FDDC23"/></linearGradient></defs></svg>