<?xml version='1.0' encoding='utf-8'?>
<!-- by TradeStack -->
<svg width="56" height="56" viewBox="0 0 56 56" xmlns="http://www.w3.org/2000/svg"><path fill="#F0F3FA" d="M0 0h56v56H0z" /><path d="M43 26.92v-3.84c0-.04.04-.08.09-.08h2.04c1.08 0 1.87.53 1.87 1.4 0 .6-.43.99-1.02 1.17v.02s.13.12.23.26l.75 1.02.04.08c0 .03-.01.05-.06.05h-.98a.17.17 0 0 1-.11-.07l-.9-1.21H44v1.2c0 .04-.04.08-.09.08h-.82c-.05 0-.09-.04-.09-.08Zm2.07-3.16H44V25h1.07c.55 0 .9-.2.9-.6 0-.4-.35-.64-.9-.64ZM41.12 26.91l-.26-.6h-1.73l-.25.6c-.04.08-.06.09-.13.09h-.7c-.04 0-.05-.03-.05-.05l.02-.08L39.7 23h.62l1.67 3.87.02.08c0 .02-.01.05-.05.05h-.7c-.07 0-.09 0-.13-.09Zm-1.7-1.31h1.17l-.57-1.45h-.04l-.57 1.45ZM23.12 34.91l-.26-.6h-1.73l-.25.6c-.04.08-.06.09-.13.09h-.7c-.04 0-.05-.03-.05-.05l.02-.08L21.7 31h.62l1.67 3.87.02.08c0 .02-.01.05-.05.05h-.7c-.07 0-.09 0-.13-.09Zm-1.7-1.31h1.17l-.57-1.45h-.04l-.57 1.45ZM29.14 25.63h.69c.09 0 .13.03.14.1.07.33.38.53 1.06.53.69 0 .97-.23.97-.5 0-.19-.12-.35-.55-.38l-1.11-.08c-.87-.07-1.34-.43-1.34-1.01 0-.67.65-1.29 1.92-1.29 1.3 0 1.88.55 1.88 1.17 0 .06-.05.1-.14.1h-.7c-.08 0-.12-.01-.13-.09-.05-.23-.29-.44-.92-.44-.6 0-.91.21-.91.5 0 .17.1.3.5.33l1.1.08c1 .08 1.4.53 1.4 1.07 0 .6-.58 1.28-1.97 1.28-1.3 0-2.03-.56-2.03-1.2v-.05c0-.07.06-.12.14-.12ZM28 23.08v3.84c0 .04-.04.08-.08.08h-.84c-.04 0-.08-.04-.08-.08V25.5h-2v1.42c0 .04-.04.08-.08.08h-.84c-.04 0-.08-.04-.08-.08v-3.84c0-.04.04-.08.08-.08h.84c.04 0 .08.04.08.08v1.66h2v-1.66c0-.04.04-.08.08-.08h.84c.04 0 .08.04.08.08ZM21 23.76h-1.4c-.05 0-.1-.05-.1-.1v-.57c0-.04.05-.09.1-.09h3.76c.04 0 .1.05.1.1v.57c0 .04-.06.09-.1.09H22v3.16c0 .04-.04.08-.08.08h-.84c-.04 0-.08-.04-.08-.08v-3.16ZM35 23.76h-1.4c-.05 0-.1-.05-.1-.1v-.57c0-.04.05-.09.1-.09h3.76c.04 0 .1.05.1.1v.57c0 .04-.06.09-.1.09H36v3.16c0 .04-.04.08-.08.08h-.84c-.04 0-.08-.04-.08-.08v-3.16ZM15 26.92v-3.84c0-.04.04-.08.09-.08h2.04c1.08 0 1.84.53 1.84 1.4 0 .6-.4 1.01-1 1.2v.01s.14.13.24.27l.75.99.04.08c0 .03-.01.05-.06.05h-.98a.17.17 0 0 1-.11-.07l-.9-1.18H16v1.17c0 .04-.04.08-.09.08h-.82c-.05 0-.09-.04-.09-.08Zm2.07-3.16H16V25h1.07c.55 0 .9-.2.9-.6 0-.4-.35-.64-.9-.64ZM12 23c1.09 0 2 .8 2 2 0 1.21-.91 2-2 2-1.09 0-2-.79-2-2 0-1.2.91-2 2-2Zm0 .74c-.64 0-1 .48-1 1.26s.36 1.26 1 1.26 1-.48 1-1.26-.36-1.26-1-1.26ZM42 33v.2c0 .99-.67 1.8-1.95 1.8-1.12 0-2.05-.77-2.05-2 0-1.18.89-2 2.05-2 1.28 0 1.81.82 1.83 1.4 0 .03-.03.08-.1.08h-.69c-.03 0-.08-.02-.09-.07-.07-.3-.31-.67-.95-.67-.68 0-1.05.52-1.05 1.26 0 .82.41 1.26 1.05 1.26.66 0 1.07-.34 1.1-.72h-1.38c-.03 0-.08-.05-.08-.09v-.36c0-.04.05-.09.08-.09H42ZM19 33v.2c0 .99-.67 1.8-1.95 1.8-1.12 0-2.05-.77-2.05-2 0-1.18.89-2 2.05-2 1.28 0 1.81.82 1.83 1.4 0 .03-.03.08-.1.08h-.69c-.03 0-.08-.02-.09-.07-.07-.3-.31-.67-.95-.67-.68 0-1.05.52-1.05 1.26 0 .82.41 1.26 1.05 1.26.66 0 1.07-.34 1.1-.72h-1.38c-.03 0-.08-.05-.08-.09v-.36c0-.04.05-.09.08-.09H19ZM36.92 35h-.84L34 32.5v2.42c0 .04-.04.08-.08.08h-.84c-.04 0-.08-.04-.08-.08v-3.84c0-.04.04-.08.08-.08H34l2 2.5v-2.42c0-.04.04-.08.08-.08h.84c.04 0 .08.04.08.08v3.84c0 .04-.04.08-.08.08ZM32 31.08v3.84c0 .04-.04.08-.09.08h-.82c-.05 0-.09-.04-.09-.08v-3.84c0-.04.04-.08.09-.08h.82c.05 0 .09.04.09.08ZM9 20H8v5.73L5 23H4v4h1v-2.76L8 27h1v-7ZM29.3 31h.61c.05 0 .09.04.09.08v3.84c0 .04-.04.08-.09.08h-.82c-.05 0-.09-.04-.09-.08V32.5l-1.5 2.06L26 32.5v2.42c0 .04-.04.08-.09.08h-.82c-.05 0-.09-.04-.09-.08v-3.84c0-.04.04-.08.09-.08h.62c.05 0 .1.02.13.07l1.66 2.17 1.66-2.17a.17.17 0 0 1 .13-.07Z" /><path d="m49.95 22 .14 1.91 1.91.46-1.82.72.14 1.91-1.27-1.46-1.82.72 1.04-1.63L47 23.17l1.91.46L49.95 22Z" fill="#2379CE" /></svg>