<!-- by TradeStack --><svg width="56" height="56" viewBox="0 0 56 56" xmlns="http://www.w3.org/2000/svg"><path fill="#F0F3FA" d="M0 0h56v56H0z"/><path d="m27.98 20.56 20.16 7.33-20.16 7.34-7.34-7.34 7.34-7.33Z" fill="#C13838"/><path d="m23.11 25.8 4.86-5.36a12.69 12.69 0 0 0-7.8-2.82c-3.7 0-6.5 3.16-7.45 4.74l-5.08 5.41h12.31l3.16-1.97ZM23.11 30.2l4.86 5.36a12.69 12.69 0 0 1-7.8 2.82c-3.7 0-6.5-3.16-7.45-4.74l-5.08-5.41h12.31l3.16 1.97Z" fill="#60A04C"/><path d="m32.89 25.8-4.86-5.36a12.69 12.69 0 0 1 7.8-2.82c3.7 0 6.5 3.16 7.45 4.74l5.08 5.41H36.05l-3.16-1.97ZM32.89 30.2l-4.86 5.36c1.05.94 4.09 2.82 7.8 2.82 3.7 0 6.5-3.16 7.45-4.74l5.08-5.41H36.05l-3.16 1.97Z" fill="#C13838"/><path fill-rule="evenodd" d="M6 27.32v1.36c1.3 0 3.25 1.52 4.58 3.27 4.4 5.8 8.02 7.05 10.84 7.05 2.09 0 4.14-.43 6.58-2.52A9.29 9.29 0 0 0 34.58 39c2.82 0 6.44-1.24 10.84-7.05 1.33-1.75 3.28-3.27 4.58-3.27v-1.36c-1.3 0-3.25-1.52-4.58-3.27-4.4-5.8-8.02-7.05-10.84-7.05-2.09 0-4.14.43-6.58 2.52A9.29 9.29 0 0 0 21.42 17c-2.82 0-6.44 1.24-10.84 7.05C9.25 25.8 7.3 27.32 6 27.32Zm21.08-6.95a10.24 10.24 0 0 0-2.18-1.43c-.32.08-1.06.33-1.8.83-.85.59-1.96 1.55-3.24 3.05a31.45 31.45 0 0 1-4.56 4.56h4.03c.73-.1 2.95-1.26 5.93-4.96.63-.8 1.24-1.47 1.82-2.05Zm-5.11 7h12.06l-.22-.15c-1.12-.83-2.5-2.1-4.04-4.03A23.56 23.56 0 0 0 28 21.21c-.56.55-1.15 1.2-1.77 1.98a22.65 22.65 0 0 1-4.26 4.19Zm14.7 0c-.73-.08-2.95-1.25-5.93-4.95a24.92 24.92 0 0 0-1.82-2.05 10.24 10.24 0 0 1 2.18-1.43c.32.08 1.06.33 1.8.83.85.59 1.96 1.55 3.24 3.05a31.45 31.45 0 0 0 4.56 4.56h-4.03Zm-2.64 1.25H21.97l.22.16c1.12.83 2.5 2.1 4.04 4.03.62.77 1.21 1.43 1.77 1.98.56-.55 1.15-1.2 1.77-1.98a22.65 22.65 0 0 1 4.26-4.19Zm-5.11 7c.58-.57 1.19-1.25 1.82-2.04 2.98-3.7 5.2-4.87 5.93-4.96h4.03l-.32.24c-1.24.96-2.6 2.4-4.24 4.32a17.37 17.37 0 0 1-3.24 3.05c-.74.5-1.48.75-1.8.83a10.24 10.24 0 0 1-2.18-1.43Zm-1.84 0a24.92 24.92 0 0 1-1.82-2.04c-2.98-3.7-5.2-4.87-5.93-4.96H15.3l.32.24c1.24.96 2.6 2.4 4.24 4.32a17.37 17.37 0 0 0 3.24 3.05c.74.5 1.48.75 1.8.83l.27-.14c.6-.3 1.23-.72 1.91-1.3ZM12 27.39H8.96l.05-.04a12.9 12.9 0 0 0 2.56-2.54c4.24-5.6 7.52-6.56 9.85-6.56.54 0 1.07.03 1.59.12a18.59 18.59 0 0 0-4.1 3.65 30.34 30.34 0 0 1-4.05 4.15c-1.12.87-2.02 1.22-2.87 1.22Zm-2.98 1.28-.05-.04H12c.85 0 1.75.35 2.87 1.22 1.13.88 2.42 2.23 4.05 4.15a18.59 18.59 0 0 0 3.49 3.26c.21.15.42.28.61.4a9.7 9.7 0 0 1-1.59.1c-2.33 0-5.61-.96-9.85-6.55A12.9 12.9 0 0 0 9 28.66Zm35-1.28h3.03a12.9 12.9 0 0 1-2.6-2.58c-4.25-5.6-7.53-6.56-9.86-6.56a9.7 9.7 0 0 0-1.59.12 18.59 18.59 0 0 1 4.1 3.65 30.34 30.34 0 0 0 4.05 4.15c1.12.87 2.02 1.22 2.87 1.22Zm2.98 1.28.05-.04H44c-.85 0-1.75.35-2.87 1.22A30.34 30.34 0 0 0 37.09 34a18.59 18.59 0 0 1-3.49 3.26c-.21.15-.42.28-.61.4a9.7 9.7 0 0 0 1.59.1c2.33 0 5.61-.96 9.85-6.55A12.9 12.9 0 0 1 47 28.66Z"/></svg>