<!-- by TradeStack --><svg width="56" height="56" viewBox="0 0 56 56" xmlns="http://www.w3.org/2000/svg"><path fill="#F0F3FA" d="M0 0h56v56H0z"/><path d="M42 13H14v14.23c.3 5.14 3.55 16.3 14.1 19.77C39.38 41.98 42.07 31.73 42 27.23V13Z" fill="url(#ajsdlf5p4)"/><path fill-rule="evenodd" d="M41 27.4V14H15v13.4c.28 4.83 3.3 15.33 13.1 18.6C38.56 41.27 41.05 31.63 41 27.4ZM28.05 44.87c9.9-4.62 12-13.48 11.95-17.46V15H16v12.37c.45 7.58 4.6 14.86 12.05 17.5Z" fill="#2B2D68"/><path d="M28.48 28.88 25.9 20.7l-1.14 1.6 3.33 9.12.39-2.55Z" fill="#B2B7CC"/><path d="M28.81 32.39c1.38-.4 4.1-2.17 3.94-6.13l-.01-.37c-.2-4.75-.33-8.19 4.02-9.93-.73.55-2.12 2.4-1.86 5.49.33 3.86.64 10.27-6.09 10.94Zm-.43-4.76c.16 3.96-2.56 5.73-3.94 6.13 6.73-.67 6.42-7.08 6.1-10.94-.27-3.09 1.12-4.94 1.85-5.48-4.35 1.74-4.21 5.17-4.02 9.92l.01.37Zm-5.12 1.72c.16 3.96-2.56 5.73-3.94 6.13 6.73-.67 6.42-7.08 6.1-10.94-.27-3.09 1.12-4.94 1.85-5.48-4.35 1.74-4.21 5.17-4.02 9.92l.01.37Z" fill="#263065"/><defs><linearGradient id="ajsdlf5p4" x1="14" y1="23.93" x2="41.73" y2="23.93" gradientUnits="userSpaceOnUse"><stop stop-color="#E3E6D5"/><stop offset=".08" stop-color="#CBCED3"/><stop offset=".18" stop-color="#A7A8A3"/><stop offset=".27" stop-color="#938C94"/><stop offset=".34" stop-color="#A09BA2"/><stop offset=".44" stop-color="#D3CBDA"/><stop offset=".6" stop-color="#D9D7DC"/><stop offset=".71" stop-color="#C3BAC4"/><stop offset=".8" stop-color="#A0959D"/><stop offset=".9" stop-color="#847E82"/><stop offset="1" stop-color="#C1CAC9"/></linearGradient></defs></svg>