<?xml version='1.0' encoding='utf-8'?>
<!-- by TradeStack -->
<svg width="56" height="56" viewBox="0 0 56 56" xmlns="http://www.w3.org/2000/svg"><path fill="#F0F3FA" d="M0 0h56v56H0z" /><path d="M12.79 33.53c2.07-4.55 4.21-9.07 6.42-13.57.64-1.3.03-2.64-1.54-2.29a5.2 5.2 0 0 0-3.58 2.63.51.51 0 0 0 .11.63.53.53 0 0 0 .65.05l.8-.53c.28-.19.34-.13.19.17-.36.65-.85 1.19-1.47 1.61a.67.67 0 0 1-.47.1c-1.94-.3-1.52-2.43-.48-3.38 2.1-1.89 5.05-3 7.89-2.95 2.48.05 3.69 1.56 2.63 3.86-1.42 3.1-2.92 6.08-4.49 8.94a.17.17 0 0 0 .05.23.18.18 0 0 0 .23-.02 56.1 56.1 0 0 0 9.76-11.9.7.7 0 0 1 .35-.3 5.11 5.11 0 0 1 4.97.41.32.32 0 0 1 0 .36c-3.68 5.71-10.06 10.2-16.02 13.52a.83.83 0 0 0-.32.33 24.63 24.63 0 0 0-2.26 5.37c-.7 2.52 3.03 1.68 4.13 1.14.09-.05.16-.05.23-.02.1.06.11.12 0 .19-5.66 3.92-10.52 1.44-7.78-4.58Z" fill="url(#arwejpq1u)" /><path d="M27.66 36.82a10.17 10.17 0 0 0 6.71 1.27c7.99-1.17 10.78-9.7 6.85-15.98-.71-1.13-3.22-2.97-3.74-.43a.24.24 0 0 0 .12.25.25.25 0 0 0 .29-.03l.7-.66a.23.23 0 0 1 .17-.07c.64.02 1.1.33 1.37.92a.68.68 0 0 1-.03.62c-1.44 2.55-5.95-.35-3.85-3.4.97-1.4 3.16-1.43 4.53-.47 1.86 1.3 2.9 4.67 3.13 6.75.86 7.5-4.7 13.4-12.17 14.32-3.06.37-8.45-.46-10.4-3.2-1.58-2.22-1.33-5.37 1.23-6.92a20.23 20.23 0 0 0 2.95-2.16.2.2 0 0 1 .32.1c0 .05 0 .1-.02.14-1.7 2.92-1.43 7.07 1.84 8.95Z" fill="url(#brwejpq1u)" /><path d="M40.96 29.85a6.1 6.1 0 0 1-1.83 4.35 6.31 6.31 0 0 1-8.85 0 6.1 6.1 0 0 1 0-8.7 6.31 6.31 0 0 1 8.85 0 6.1 6.1 0 0 1 1.83 4.35Zm-2.24-3.47.18-.06a.17.17 0 0 0 .1-.12.16.16 0 0 0-.03-.15 6.61 6.61 0 0 0-2.5-1.63c-.22-.08-.3 0-.22.22.26.76.79 1.29 1.57 1.57.06.02.12.06.16.12.04.05.06.12.07.18l.12 1.94c.01.15-.05.25-.2.3l-.96.35a.37.37 0 0 0-.26.31l-.22 1.42c-.02.17.03.3.16.4l1.15.84a.3.3 0 0 0 .2.06c.08 0 .14-.04.2-.1l1.08-1.27a.36.36 0 0 0 .04-.43 6.5 6.5 0 0 1-.9-3.62c.01-.17.1-.28.26-.33Zm-8.5.57 1.43-1.52c.12-.14.3-.22.49-.23.4-.01.74-.15 1.05-.42a.28.28 0 0 0-.12-.47.3.3 0 0 0-.2.02c-5.18 2.63-5.32 9.12.44 11.02.08.02.16.01.23-.03l.15-.09a.08.08 0 0 0 .02-.12 5.6 5.6 0 0 1-4.21-3.98.28.28 0 0 1 .12-.32.3.3 0 0 1 .34.03c.9.77 1.54 1.72 1.92 2.83a.38.38 0 0 0 .36.27l1.88.03c.15 0 .2-.06.15-.2a1.3 1.3 0 0 1 .07-1.07c.06-.13.03-.23-.08-.31L32.9 31.3a.32.32 0 0 1-.1-.12.34.34 0 0 1-.03-.16l.11-2.36a.32.32 0 0 1 .25-.3l1.62-.37a.28.28 0 0 0 .16-.1.27.27 0 0 0 .05-.18l-.13-1.55a.35.35 0 0 0-.24-.32c-1.35-.54-2.3-.16-2.88 1.15-.06.14-.04.26.08.36l.8.71c.05.06.1.13.11.2a.4.4 0 0 1 0 .23 5.32 5.32 0 0 0-.32 2.2.79.79 0 0 1-.5.79.82.82 0 0 1-.92-.22l-.78-.9a.7.7 0 0 1-.18-.5l.04-2.47c0-.17.06-.32.18-.45Zm8.23 6.78-.49-.12a.64.64 0 0 0-.5.07l-1.9 1.1a.32.32 0 0 0 .02.56c.08.04.16.05.23.03a7.05 7.05 0 0 0 2.7-1.3.2.2 0 0 0 .07-.2.19.19 0 0 0-.13-.14Z" fill="url(#crwejpq1u)" /><defs><linearGradient id="arwejpq1u" x1="23.26" y1="16" x2="23.26" y2="40.72" gradientUnits="userSpaceOnUse"><stop stop-color="#3EEBE3" /><stop offset=".24" stop-color="#04B9FF" /><stop offset=".59" stop-color="#13A2FF" /><stop offset=".83" stop-color="#208FFF" /><stop offset=".97" stop-color="#2095FF" /></linearGradient><linearGradient id="brwejpq1u" x1="25.17" y1="23.34" x2="31.98" y2="40.07" gradientUnits="userSpaceOnUse"><stop stop-color="#55E6F8" /><stop offset=".77" stop-color="#205FFF" /><stop offset="1" stop-color="#2162FF" /></linearGradient><linearGradient id="crwejpq1u" x1="31.94" y1="25.26" x2="37.01" y2="34.5" gradientUnits="userSpaceOnUse"><stop stop-color="#6DDDFF" /><stop offset="1" stop-color="#3688FF" /></linearGradient></defs></svg>