<?xml version='1.0' encoding='utf-8'?>
<!-- by TradeStack -->
<svg width="56" height="56" viewBox="0 0 56 56" xmlns="http://www.w3.org/2000/svg"><path fill="#F0F3FA" d="M0 0h56v56H0z" /><path fill-rule="evenodd" d="M4 30v-7h1.71l3.55 4.36V23H11v7H9.1l-3.39-4.3V30H4Zm11.4-5v.4c-.35-.26-.76-.4-1.2-.4C13 25 12 26.12 12 27.5s.99 2.5 2.2 2.5c.44 0 .85-.14 1.2-.4v.4H17v-5h-1.6Zm-.88 3.68c.58 0 1.04-.53 1.04-1.18 0-.65-.46-1.18-1.04-1.18-.58 0-1.05.53-1.05 1.18 0 .65.47 1.18 1.05 1.18ZM20 24h-1.7v1h-.48v1.28h.48V30H20v-3.72h.95V25H20v-1Zm2 1v2.76A2.2 2.2 0 0 0 24.17 30h.66c1.2 0 2.17-1 2.17-2.24V25h-1.72v2.79c0 .49-.39.89-.87.89a.88.88 0 0 1-.86-.9V25H22Zm9.55.02v1.68c-.1-.09-.38-.26-.76-.26-.4 0-.78.27-1.1.73V30H28v-5h1.7v.59a2.5 2.5 0 0 1 1.85-.57ZM37 27.5v.16h-3.72c.08.65.6 1.15 1.22 1.15.41 0 .78-.22 1-.55h1.38a2.5 2.5 0 1 1 .12-.76Zm-3.57-.64c.2-.4.6-.67 1.07-.67.46 0 .86.27 1.07.67h-2.14Z" fill="#0F5392" /><path fill-rule="evenodd" d="M38 30v-7h1.44c.81 0 2.02.64 2.02 2 0 .66-.34 1.06-.5 1.17.33.26 1 .99 1 1.87 0 1.11-.77 1.96-2 1.96H38Zm1-6.1h.43c.58 0 1.05.48 1.05 1.09 0 .6-.47 1.09-1.05 1.09H39v-2.19Zm0 3.1h.9c.61 0 1.1.45 1.1 1s-.49 1-1.1 1H39v-2Zm7.5.66v-.16c0-1.38-.9-2.5-2-2.5s-2 1.12-2 2.5.9 2.5 2 2.5c.9 0 1.65-.73 1.9-1.74h-1.1c-.18.33-.47.55-.8.55-.5 0-.91-.5-.97-1.15H46.5Zm-2-1.47c.37 0 .69.27.86.67h-1.72c.17-.4.5-.67.86-.67ZM47 25h1.33l1.2 2.72L50.75 25H52l-2.48 5L47 25Z" fill="#04A1CA" /><path d="M18.84 37C11.31 37 5.81 33.78 4 32.16c1.87 1.15 7.46 3.45 14.84 3.45 9.23 0 13.07-4.61 21.27-4.61 6.55 0 10.66 3.4 11.89 5.1-1.26-1.17-5.37-3.53-11.66-3.53-7.87 0-12.08 4.43-21.5 4.43Z" fill="#C6C7C9" /></svg>