<?xml version='1.0' encoding='utf-8'?>
<!-- by TradeStack -->
<svg width="56" height="56" viewBox="0 0 56 56" xmlns="http://www.w3.org/2000/svg"><path fill="#F0F3FA" d="M0 0h56v56H0z" /><path d="M27.88 12.37c-.1.21-.05.4.11.6-.1 0-.06.22.11.63l.57 1.67c.04.1 0 .19-.1.25a.62.62 0 0 1-.29.06 5.66 5.66 0 0 1-1.04-3.72.18.18 0 0 0-.2-.1l-3.98.82c-.17.03-.2.1-.05.22 1.98 1.54 2.76 3.37 2.34 5.47-.34-3.06-1.95-4.9-4.86-5.52A15.23 15.23 0 0 1 27.85 11c.14 0 .2.07.18.2l-.15 1.17Z" fill="#848484" /><path d="m28.28 15.58 1.8 1.92a.3.3 0 0 0 .27.1l.49-.07c.54.78.92 1.6 1.14 2.48.2.88.2 1.76.02 2.63.1-1.94-.13-1.42-.7 1.55-1.03-2.34-2.6-3.7-4.7-4.08-.47-.08-.89.16-1.34.28-.26-1-.23-1.7.08-2.12.43-2.1-.35-3.93-2.33-5.47-.14-.11-.13-.19.05-.22l3.98-.82a.18.18 0 0 1 .21.18 5.66 5.66 0 0 0 1.03 3.64Z" fill="#C7C7C7" /><path d="M27.88 12.37a15.1 15.1 0 0 1 8.44 2.48c-.22.22-.37.43-.44.64-.04.16.01.24.18.23.5-.02.9-.25 1.22-.7a.06.06 0 0 1 .06-.02h.16a.1.1 0 0 1 .1.05.1.1 0 0 1-.01.11l-.35.45-.92.91c-.25-.45-.83-.3-1.72.46.05-.35.09-.44.1-.27.17-.44.48-.83.95-1.17A11.27 11.27 0 0 0 28 12.97c-.16-.2-.2-.39-.1-.6Z" fill="#001944" /><path d="M20.49 12.75c2.9.62 4.52 2.46 4.85 5.52-.3.42-.33 1.13-.08 2.12a7.56 7.56 0 0 0 5.05 5.12.35.35 0 0 0 .43-.18l.56-1.14c.57-2.97.8-3.5.7-1.55a7.74 7.74 0 0 1-1.15 3.22.3.3 0 0 1-.27.14 3.02 3.02 0 0 1-1.52-.53 8.06 8.06 0 0 1-4.65-6.55l.11-1.38a5 5 0 0 0-.98-2.71l-.87-.97a.4.4 0 0 0-.26-.14l-2.06-.27c-.06-.34-.02-.58.14-.7Z" fill="#F2F2F1" /><path d="M28 12.97c3-.05 5.55.8 7.66 2.57-2.7-1.47-5.22-2.12-7.56-1.94-.17-.4-.2-.62-.1-.63Z" fill="#D9D9D9" /><path d="M23.54 14.83c-.15.01-.24.08-.28.2-.04.12-.02.21.08.3.1.07.14.18.12.32a.1.1 0 0 1-.17.06c-.55-.6-.98-.77-1.29-.52-.47-.4-.86-.53-1.17-.4a1.02 1.02 0 0 0-.39-.47l-.09-.87 2.06.27c.1.01.2.06.26.14l.86.97Z" fill="#848484" /><path d="M35.65 15.54c-.47.34-.78.73-.95 1.17-1.24-.1-2.47-.05-3.7.16-.56.1-.58.18-.07.27.06.01.11.05.15.1a.09.09 0 0 1-.08.14.09.09 0 0 1-.06-.03l-.14-.15c-.07-.07-.1-.05-.09.04.02.1.06.2.13.3l-.49.06a.3.3 0 0 1-.26-.1l-1.8-1.92c.11 0 .21-.02.29-.06.1-.06.12-.14.09-.25l-.57-1.67c2.34-.18 4.86.47 7.55 1.94Z" fill="#87A4B7" /><path d="M20.44 14.32c.15.08.28.24.4.46a11.34 11.34 0 0 0-3.28 2.7l-1.3 1.57c0-.05-.1 0-.26.15a1 1 0 0 1-.1-.91c1.28-1.6 2.8-2.92 4.54-3.97Z" fill="#03517A" /><path d="M41.31 17.53c1.94 4.77 2.1 9.3.49 13.6C37.64 42.2 24 45.21 15.14 37.74c-.03-.03-.02-.05.01-.07.03 0 .06 0 .09.02 1.22.99 2.46 1.79 3.7 2.4.03.02.04.01.05 0l.01-.04c.01-.03 0-.05-.04-.07a22.8 22.8 0 0 1-6.47-5.14 16.31 16.31 0 0 1-1.26-9.59c.31 1.23.65 2.45 1 3.66a18 18 0 0 0 .72 2.09c.56 1.3 1.22 2.04 1.71 3.08.05.1.11.18.19.25 1.72 1.67 2.83 3.16 5.4 4.04.43.15.95.15 1.43.34.03.01.03.02 0 .04a1.96 1.96 0 0 0-.11.04.04.04 0 0 0 0 .05l.02.01a15.3 15.3 0 0 0 10.52-.43c.83-.34 1.12-1 2.06-1.25 1.52-.41 3.74-1.76 3.97-3.52l.36-1.03c.45-.38.64-.92.58-1.61-.01-.13.03-.22.12-.3l.46-.4c.06-.05.1-.12.13-.19a14.65 14.65 0 0 0-.98-12.07c-.3-.56-.84-1.04-1.23-1.6a.42.42 0 0 1-.08-.29c.02-.27-.06-.46-.26-.56l.34-.45a.1.1 0 0 0-.08-.16h-.16a.06.06 0 0 0-.06.03c-.31.44-.72.67-1.22.69-.17 0-.22-.07-.18-.23.07-.21.22-.42.44-.64l1.56-.5a.34.34 0 0 1 .32.05c1.31.93 2.35 1.97 3.11 3.13Z" fill="#757575" /><path d="M22 15.19c.73.56 1.21 1.21 1.46 1.97a6.12 6.12 0 0 0-3.12-.3c-.4.05-.68-.04-.85-.28a.4.4 0 0 0-.53-.13.4.4 0 0 0-.14.14c-.39.59-.8.88-1.26.9a11.34 11.34 0 0 1 3.27-2.7c.3-.13.7 0 1.18.4Z" fill="#87A4B7" /><path d="M23.54 14.83a5 5 0 0 1 .98 2.7.52.52 0 0 1-.31.25c-.09.02-.16 0-.21-.07l-.42-.56h-.12A4.08 4.08 0 0 0 22 15.2c.3-.25.73-.07 1.28.52a.1.1 0 0 0 .17-.06c.02-.14-.02-.25-.12-.33-.1-.08-.12-.17-.08-.3.04-.11.13-.18.28-.2Z" fill="#5B4B45" /><path d="M37.24 15.61c.2.1.29.29.26.56 0 .11.02.21.08.3.39.55.92 1.03 1.23 1.6 2.06 3.84 2.39 7.86.98 12.06a.42.42 0 0 1-.13.18l-.46.4a.34.34 0 0 0-.12.3c.06.7-.13 1.24-.58 1.62l.13-2.64a.58.58 0 0 0-.08-.32 18.43 18.43 0 0 0-2.86-3.61c.57.27 1.02.63 1.35 1.08a.4.4 0 0 0 .72-.19c.34-2.73-.14-5.29-1.46-7.67a.7.7 0 0 0-.24-.26 1.3 1.3 0 0 1-.62-.82c.02-.09-.07-.1-.25-.02l1.13-1.66.92-.9Z" fill="#848484" /><path d="m36.32 16.52-1.14 1.66a7.01 7.01 0 0 0 .33 8.4c.07.1.53.53 1.37 1.3.72.66.99 1.33.8 2.01l-1.63-1.88c-1.2-1.05-2.01-2.3-2.43-3.75a6.86 6.86 0 0 1-.2-4.38 8.19 8.19 0 0 1 1.18-2.9c.9-.76 1.47-.91 1.72-.46Z" fill="#757575" /><path d="M23.46 17.16h.12l.36 2.86a1.02 1.02 0 0 0-.29-.44.3.3 0 0 0-.22-.08l-4.92.3a.05.05 0 0 1-.06-.04.05.05 0 0 1 .03-.06c.05-.03.05-.09-.01-.16l-.02-.02h-.02c-.74-.01-1.46-.17-2.17-.47l1.3-1.57c.45 0 .88-.3 1.26-.9a.4.4 0 0 1 .67 0c.17.24.45.33.85.28a6.12 6.12 0 0 1 3.12.3ZM34.7 16.71c-.01-.17-.05-.08-.1.27a8.19 8.19 0 0 0-1.17 2.9.62.62 0 0 0-.13-.35.22.22 0 0 0-.38.12l-.05.32a.1.1 0 0 1-.18.05l-.3-.4a.16.16 0 0 0-.12-.06.17.17 0 0 0-.14.05.58.58 0 0 0-.15.4c-.22-.88-.6-1.7-1.14-2.48a.72.72 0 0 1-.13-.29c-.01-.1.02-.1.09-.04l.14.15a.09.09 0 0 0 .14-.1.22.22 0 0 0-.15-.11c-.51-.09-.49-.18.08-.27 1.22-.2 2.45-.26 3.7-.16Z" fill="#559FB9" /><path d="m23.58 17.15.42.56c.05.07.12.1.2.07a.52.52 0 0 0 .32-.24l-.1 1.38c-.34.37-.43.9-.27 1.61a.57.57 0 0 1-.21-.51l-.36-2.87Z" fill="#848484" /><path d="M41.32 17.53c10 12.66-1.92 30.84-17.4 26.93-5.17-1.3-8.98-4.51-11.43-9.6a22.8 22.8 0 0 0 6.47 5.13c.04.02.05.04.05.07l-.01.03c-.02.02-.03.03-.05.02a20.43 20.43 0 0 1-3.71-2.4c-.03-.03-.06-.04-.09-.03-.03.02-.04.04 0 .07 8.85 7.47 22.5 4.46 26.65-6.63 1.6-4.3 1.45-8.82-.48-13.59ZM27.9 44.22a15.8 15.8 0 0 0 9.2-2.76l2.16-1.83a.12.12 0 0 0 .01-.17.12.12 0 0 0-.06-.03.43.43 0 0 0-.38.1c-.44.35-.87.28-1.29.37-1.47.34-2.9.8-4.3 1.36-2.53 1.04-5.25 1.38-7.92 1.84-.36.06-.65.34-1.05.32a.2.2 0 0 0-.2.16.19.19 0 0 0 .13.2c1.21.32 2.45.47 3.7.44Z" fill="#676767" /><path d="M15.9 18.29a1 1 0 0 0 .1.91l.6 1.27c-.47.17-1.05.23-1.73.18-1.22-.78-1.77 1.6-1.94 2.5a.28.28 0 0 0 .1.26c.36.3.53.71.5 1.2-.07 2 .22 5.5 2.23 6.59-.24.88-.05 1.49.56 1.82l1.4 1.84a.5.5 0 0 0-.3.12c-.1.09-.1.17 0 .25.92.76 2 1.02 3.23.77.5.11 1.22.32 2.15.63 2.28.76 4.6.66 6.94-.28 1 .52 1.43.58 1.31.2 2.72.76 5.7-.04 6.72-2.8l.37-.09c-.23 1.76-2.45 3.1-3.97 3.52-.94.26-1.23.91-2.07 1.25a15.3 15.3 0 0 1-10.53.42.04.04 0 0 1 .02-.06l.09-.03c.03-.02.03-.03 0-.04-.48-.2-1-.19-1.43-.34-2.57-.88-3.68-2.37-5.4-4.04a.85.85 0 0 1-.19-.25c-.49-1.04-1.15-1.79-1.7-3.08-.27-.62-.52-1.32-.74-2.1-.34-1.2-.68-2.42-1-3.65.38-2.54 1.3-4.84 2.78-6.9a.3.3 0 0 1 .27-.14l1.64.07Z" fill="#848484" /><path d="M35.44 18.2c.08.33.28.6.62.82.1.07.18.15.24.25a12.32 12.32 0 0 1 1.46 7.68.4.4 0 0 1-.53.33.4.4 0 0 1-.19-.14c-.33-.45-.78-.8-1.35-1.08a7.24 7.24 0 0 1-.25-7.86Z" fill="#9FA09F" /><path d="M24.41 18.92a8.06 8.06 0 0 0 4.65 6.55l-.34.15-2.02-1.3a6.76 6.76 0 0 1-2.55-3.79c-.16-.7-.07-1.24.26-1.61Z" fill="#5B4B45" /><path d="M16.26 19.05a5.55 5.55 0 0 0 2.21.49c.06.07.06.13.01.16a.05.05 0 0 0 .03.1l4.92-.3a.3.3 0 0 1 .22.08c.14.12.23.27.29.44-.02.2.05.38.2.51a6.76 6.76 0 0 0 2.56 3.8c-.43.4-.81.64-1.16.73a7.54 7.54 0 0 0-4.46-2.28c-2.05-.28-3.32-.7-4.48-2.31L16 19.2c.16-.15.25-.2.26-.15Z" fill="#068EB5" /><path d="M33.43 19.88a6.86 6.86 0 0 0 .2 4.38c-.57-.6-.64-.26-.2 1.01.02.1.02.2-.04.29a54.2 54.2 0 0 0-.9 1.63c-.48.92-3.12 4.8-4.44 3.4-.06-.08-.11-.07-.16.01l-.32.62c.09-.35.09-.61.02-.78 0-1.36-.37-2.64-1.13-3.85a.4.4 0 0 1 .09-.19l1.3 2.1c.05.08.13.13.21.16.08.02.17.01.25-.03a3.8 3.8 0 0 0 1.64-1.57.68.68 0 0 0-.28-.93l-.95-.5.35-.16c.5.33 1 .5 1.51.53a.3.3 0 0 0 .27-.14c.62-.99 1-2.06 1.15-3.22.19-.87.18-1.75-.02-2.63 0-.14.05-.27.15-.4a.17.17 0 0 1 .14-.05.16.16 0 0 1 .12.06l.3.4a.1.1 0 0 0 .18-.05l.05-.32a.22.22 0 0 1 .38-.12c.07.08.11.2.13.35Z" fill="#03517A" /><path d="m31.3 24.2-.56 1.13a.35.35 0 0 1-.43.18 7.56 7.56 0 0 1-5.05-5.12c.45-.12.87-.37 1.34-.28 2.1.37 3.67 1.74 4.7 4.08Z" fill="#D9D9D9" /><path d="M16.6 20.47c1.16 1.6 2.43 2.03 4.48 2.31 1.7.23 3.2 1 4.46 2.28l1 1.34a.4.4 0 0 0-.08.2 7.84 7.84 0 0 0-5.28-3.34l-3.44-.27-1.52-.82a5.09 5.09 0 0 1-1.34-1.52c.67.05 1.25-.01 1.72-.18Z" fill="#5B4B45" /><path d="M14.87 20.65c.39.64.83 1.14 1.35 1.52-.25.27-.1.52.48.72a.29.29 0 0 1 .18.23c.07.4-.15.86-.16 1.19-.01.86.04 1.73.17 2.59.08.59.7 1.2 0 1.84-.74.68-1.07.92-1.17 1.77l.04.69c-2-1.08-2.3-4.6-2.22-6.59.02-.49-.15-.9-.51-1.2a.28.28 0 0 1-.1-.27c.17-.88.72-3.27 1.94-2.5Z" fill="#9FA09F" /><path d="m16.22 22.17 1.52.82a.49.49 0 0 0-.24-.02.15.15 0 0 0-.09.23l.08.05 1.27.38a.2.2 0 0 0 .1 0c.13-.03.23 0 .31.07.25.24.01 2.5.32 3.18a3.52 3.52 0 0 1 .18.54.17.17 0 0 1-.16.14c-.91.05-1.08.19-.5.4l-1.25.48a3.48 3.48 0 0 0-1.78 1.96c-.07.14-.15.18-.26.1.1-.84.43-1.08 1.18-1.76.7-.63.07-1.25-.01-1.84-.13-.86-.18-1.73-.17-2.6 0-.32.23-.77.16-1.18a.3.3 0 0 0-.18-.23c-.57-.2-.73-.45-.48-.72Z" fill="#C7C7C7" /><path d="m17.74 23 3.44.26c-.38 0-.64.03-.76.1a.07.07 0 0 0-.03.08.07.07 0 0 0 .06.05c3.08.33 6.56 3.16 6.7 6.57 0 .1.04.2.13.27.08.07.19.11.3.11.08.17.08.43 0 .78l.2 1.64a5.28 5.28 0 0 0 3.28 3.7c.11.37-.33.3-1.32-.21a6.4 6.4 0 0 1-1.96-2.23l-.71-1.96a.5.5 0 0 1-.02-.28c.1-.47-.05-.76-.46-.86a19 19 0 0 0-2.44-.28 4.62 4.62 0 0 0-1.54-2.06c-.07-.05-.15.02-.23.21l-.42-.17c-.7-.68-1.68-.93-2.95-.75-.58-.22-.41-.36.5-.4a.17.17 0 0 0 .16-.22c-.05-.17-.11-.32-.18-.47-.3-.68-.07-2.94-.32-3.18-.07-.08-.18-.1-.3-.06a.2.2 0 0 1-.1 0l-1.28-.39a.15.15 0 0 1 .01-.28c.07-.02.15 0 .24.02Z" fill="#D9D9D9" /><path d="M33.62 24.26A7.71 7.71 0 0 0 36.05 28a11.62 11.62 0 0 1-4.93 5.92c-.72.42-1.25.74-1.58.95-.09.06-.17.05-.25-.02a3.62 3.62 0 0 1-1.15-2.36.13.13 0 0 0-.11-.05.12.12 0 0 0-.06.02c-.1.08-.17.21-.2.4l-.2-1.65.32-.62c.05-.08.1-.09.16-.02 1.32 1.4 3.96-2.47 4.44-3.39l.9-1.63a.34.34 0 0 0 .03-.29c-.43-1.27-.36-1.61.2-1.01Z" fill="#013D67" /><path d="m26.7 24.33 2.02 1.3.95.5a.67.67 0 0 1 .36.68.69.69 0 0 1-.09.25 3.8 3.8 0 0 1-1.63 1.57.34.34 0 0 1-.25.03.35.35 0 0 1-.2-.15l-1.31-2.1-1-1.35c.34-.1.72-.34 1.15-.73Z" fill="#04658E" /><path d="m21.96 28.72 1.18 2.04a.44.44 0 0 1-.36.67c-1.17.05-2.24-.46-3.46-.96a5.1 5.1 0 0 1-1.5-.95.25.25 0 0 1-.08-.27c.1-.3.1-.57.02-.81l1.25-.47c1.26-.18 2.25.07 2.95.75Z" fill="#03517A" /><path d="m36.05 28 1.64 1.89c.5 1.33.53 2.62.09 3.86-1.03 2.76-4 3.56-6.73 2.8a5.28 5.28 0 0 1-3.28-3.69c.03-.18.1-.3.2-.39a.12.12 0 0 1 .12 0c.02 0 .04.01.05.03l.03.06c.1.9.47 1.67 1.12 2.3.08.07.16.08.25.02.34-.2.86-.53 1.58-.95a11.62 11.62 0 0 0 4.93-5.92Z" fill="#001944" /><path d="M17.76 28.44c.08.24.08.51-.02.8-.03.11 0 .2.08.28.45.4.95.73 1.5.95 1.22.5 2.3 1 3.46.96a.44.44 0 0 0 .42-.45.45.45 0 0 0-.06-.22l-1.18-2.04.42.17c1.78 1.9 1.9 3.9.34 5.96l-1.04.65-2.75-.42a5.78 5.78 0 0 1-2.44-2.5L16 30.4c.24-.8.84-1.45 1.77-1.96Z" fill="#013D67" /><path d="M27.77 34.12c-1.25.62-2.63.58-4.13-.13.73-.94.9-2.03.5-3.25a19 19 0 0 1 2.45.28c.4.1.56.39.46.86a.5.5 0 0 0 .01.28l.71 1.96Z" fill="#C7C7C7" /><path d="M16.5 32.58a5.78 5.78 0 0 0 2.43 2.5c.07.43-.33.36-1.22-.22l-1.4-1.84c.14-.05.2-.2.18-.44ZM23.64 34c1.5.7 2.88.74 4.13.12a6.4 6.4 0 0 0 1.97 2.23 9.78 9.78 0 0 1-6.94.28c-.93-.3-1.65-.52-2.15-.63.51-.15.85-.32 1.03-.5l1.04-.65c.14.23.45-.05.92-.86Z" fill="#9FA09F" /><path d="M17.72 34.86c.88.58 1.28.65 1.21.22l2.75.42c-.17.18-.52.35-1.03.5-1.23.25-2.31-.01-3.23-.77-.1-.08-.1-.16 0-.25a.5.5 0 0 1 .3-.12Z" fill="#5B4B45" /><path d="M37.1 41.46c.1-.24 0-.34-.3-.32-.1 0-.22.05-.34.13a13.98 13.98 0 0 1-6.84 2.3c-.1.01-.2.04-.3.1-.37.21-.8.3-1.25.27-.1 0-.15.01-.17.06-.02.04-.02.12 0 .22-1.25.03-2.49-.12-3.7-.43a.19.19 0 0 1-.14-.21.2.2 0 0 1 .2-.16c.41.02.7-.26 1.06-.32 2.67-.46 5.39-.8 7.93-1.84a28.5 28.5 0 0 1 4.3-1.36c.41-.1.84-.02 1.28-.37.12-.1.25-.14.38-.1a.12.12 0 0 1 .1.09.12.12 0 0 1-.05.11l-2.16 1.83Z" fill="#848484" /><path d="M37.1 41.46a15.8 15.8 0 0 1-9.2 2.76c-.02-.1-.02-.18 0-.22.02-.05.07-.07.17-.06.46.04.88-.06 1.25-.28.1-.05.2-.08.3-.09 2.48-.17 4.76-.93 6.83-2.3a.74.74 0 0 1 .35-.13c.3-.02.4.08.3.32Z" fill="#9FA09F" /></svg>