<!-- by TradeStack --><svg width="56" height="56" viewBox="0 0 56 56" xmlns="http://www.w3.org/2000/svg"><path fill="#F0F3FA" d="M0 0h56v56H0z"/><path d="m30.48 15-8.22 3.86.35.7a4.66 4.66 0 0 1 2.04-.7c1.38 0 1.38 1.15 1.35 1.72v14.3c0 1.32-.82 2.4-2.17 2.4h-1.32V38h12.01v-.72h-.84c-1.35 0-2.68-1.08-2.68-2.4V15h-.52Z" fill="gold"/><path d="M42.46 35H35v-.38h.93c.6 0 1.07-.44 1.07-1v-10.2c0-.55-.46-1-1.07-1H35V22h12v3.76h-.51v-.4c0-1.43-1.26-2.36-2.82-2.36H40v10.63c0 .55.88 1 1.48 1h.98V35Zm-1.33-7H40v1h1.13c1.5 0 2.72 1.01 2.72 2.39v.4h.59v-6.5h-.59v.32c0 1.38-1.22 2.39-2.72 2.39ZM8 35v-.46h.4c.85 0 1.6-.67 1.6-1.5v-9.5l-1.24-1.16H8V22h4.83L19 29.94V23.9c0-.83-.73-1.5-1.6-1.5h-.34V22H22v.38h-.2c-.87 0-1.8.68-1.8 1.5V35h-.25L11 24.45v8.58c0 .84.49 1.51 1.35 1.51h.48V35H8Z" fill="#242021"/></svg>