<!-- by TradeStack --><svg width="56" height="56" viewBox="0 0 56 56" xmlns="http://www.w3.org/2000/svg"><path fill="#D50020" d="M0 0h56v56H0z"/><path d="M8 36V20h5.66c3.05 0 5.33 1.6 5.33 4.9 0 3.29-2.27 5.1-5.3 5.1H9.1v-3H13c1.99 0 3 0 3-2.1 0-1.9-.97-1.9-3.03-1.9H11v13H8Zm7.88-7L20 36h-2.75l-4.06-7h2.69ZM27.1 36h-5.1V20h5.34c4.71 0 7.66 3.35 7.66 7.97 0 4.77-3.07 8.03-7.89 8.03ZM25 33h1.98C30 33 32 31.73 32 27.97c0-3.62-2-4.97-4.8-4.97H25v10ZM39 20h-3l4.5 8-4.5 8h3l3-5.33L45 36h3l-4.5-8 4.5-8h-3l-3 5.33L39 20Z" fill="#fff"/></svg>