<!-- by TradeStack --><svg width="56" height="56" viewBox="0 0 56 56" xmlns="http://www.w3.org/2000/svg"><path fill="url(#azu3ahbgn)" d="M0 0h56v56H0z"/><path d="M30.82 30.98c-.87 0-1.82-.62-1.82-1.56 0-.93.92-1.42 1.8-1.42H35c0-.56-.23-1-.84-1H30v-1h4.16c.91 0 1.84.69 1.84 1.65V31l-5.18-.02ZM30 29.49c0 .4.36.51.8.51H35v-1h-4.18c-.44 0-.82.09-.82.5ZM14.17 31c-.3 0-.59-.06-.85-.16a2.28 2.28 0 0 1-.69-.44c-.19-.19-.34-.41-.46-.66a1.86 1.86 0 0 1-.17-.81v-.86a1.99 1.99 0 0 1 .63-1.47c.2-.18.43-.33.7-.44.25-.11.54-.16.84-.16h3.66c.3 0 .59.06.85.16A2.08 2.08 0 0 1 20 28.07v.86a2.05 2.05 0 0 1-1.32 1.91 2.1 2.1 0 0 1-.85.16h-3.66ZM13 28.92c0 .71.46 1.08 1.17 1.08h3.66c.7 0 1.17-.36 1.17-1.08v-.86c0-.71-.47-1.06-1.17-1.06h-3.66c-.7 0-1.17.34-1.17 1.06v.86ZM24.25 31l-4.03-5h1.3l2.96 3.79L27.49 26h1.3l-4.1 4.99h-.44V31ZM42 28h-4v.63c0 .67.33 1.37 1 1.37h4v1h-4a1.97 1.97 0 0 1-1.84-1.25c-.1-.25-.16-.52-.16-.79V26h1v1h4v1ZM49 28h-4v.63c0 .67.33 1.37 1 1.37h4v1h-4a1.97 1.97 0 0 1-1.84-1.25c-.1-.25-.16-.52-.16-.79V26h1v1h4v1ZM52 26h-1v5h1v-5ZM51.45 25.3a.65.65 0 1 0 0-1.3.65.65 0 0 0 0 1.3ZM9.35 30.86c-.07-.04-.14-.1-.2-.15-.08-.06-.13-.15-.2-.24-.27-.4-.57-.82-.86-1.27l-.9-1.35c-.31-.46-.62-.9-.91-1.36-.3-.44-.6-.87-.86-1.28-.2-.23-.42-.1-.42.21V31H4v-5.68a1.46 1.46 0 0 1 .4-.97 1.14 1.14 0 0 1 .79-.35c.17 0 .33.04.48.12.15.08.28.22.4.4l1.76 2.62 1.77 2.62c.17.28.37.06.4-.2V24h1v5.66c-.01.2-.06.39-.14.55a1.34 1.34 0 0 1-.63.7c-.14.05-.27.09-.42.09a.98.98 0 0 1-.25-.04.9.9 0 0 1-.21-.1Z" fill="#fff"/><defs><linearGradient id="azu3ahbgn" x1="45.15" y1="6.93" x2="9.22" y2="49.49" gradientUnits="userSpaceOnUse"><stop stop-color="#195E87"/><stop offset=".49" stop-color="#19638A"/><stop offset="1" stop-color="#141C41"/></linearGradient></defs></svg>