<?xml version='1.0' encoding='utf-8'?>
<!-- by TradeStack -->
<svg width="56" height="56" viewBox="0 0 56 56" xmlns="http://www.w3.org/2000/svg"><path fill="#F0F3FA" d="M0 0h56v56H0z" /><path d="m43.98 28.82-6.21 3.7-10.53-6.08 6.97-4.09L44 28.2l-.02.63Zm-.11 1.23a15.89 15.89 0 0 1-1.56 5.1l-3.55-2.05 5.1-3.05Zm-2.03 5.99-4.07-2.35-15.51 9.25a16 16 0 0 0 19.58-6.9ZM20 41.86V30.68l6.24-3.66 10.54 6.1-15.66 9.33c-.38-.18-.75-.38-1.12-.6Zm-1-.63a16.06 16.06 0 0 1-5.6-6.68l5.6-3.28v9.96Zm-5.99-7.61a15.97 15.97 0 0 1 1.12-13.6L19 22.84v7.27l-5.99 3.5Zm1.65-14.45L19 21.68v-6.91a16.09 16.09 0 0 0-4.34 4.4ZM20 14.14l.22-.13 13.01 7.76-6.99 4.1L20 22.26v-8.12Zm1.28-.66a15.97 15.97 0 0 1 18.94 4.2l-6 3.51-12.94-7.71Zm19.57 4.98a15.92 15.92 0 0 1 3.12 8.55l-8.77-5.23 5.65-3.32ZM20 29.52v-6.1l5.25 3.03L20 29.52Z" fill="url(#a)" /><defs><linearGradient id="a" x1="28" y1="12" x2="28" y2="44" gradientUnits="userSpaceOnUse"><stop stop-color="#00AAE8" /><stop offset="1" stop-color="#1A2C90" /></linearGradient></defs></svg>