<!-- by TradeStack --><svg width="56" height="56" viewBox="0 0 56 56" xmlns="http://www.w3.org/2000/svg"><path fill="#F0F3FA" d="M0 0h56v56H0z"/><path fill-rule="evenodd" d="M8 27v-5H7v3.1L4.79 22H4v5h1v-3l2.22 3H8Zm1.42 0h-.91l1.66-5h1.06l1.66 5h-.91l-.4-1.23H9.82L9.42 27Zm1.3-3.97.63 2.01h-1.3l.63-2.01h.04ZM48 22h-1v3.14c0 .64-.38 1.06-1 1.06s-1-.42-1-1.06V22h-1v3.22c0 1.12.94 1.78 2 1.78s2-.66 2-1.78V22Zm-2.12 7.92c.15.11.24.28.27.48h.8c0-.27-.07-.51-.21-.72a1.43 1.43 0 0 0-.6-.5 1.97 1.97 0 0 0-.86-.18c-.32 0-.62.06-.87.18-.26.12-.46.29-.61.5a1.3 1.3 0 0 0-.23.75c0 .35.11.63.34.84.22.21.52.37.9.47l.53.14.44.15c.12.06.22.13.3.21.06.08.1.19.1.31a.6.6 0 0 1-.12.37.78.78 0 0 1-.33.24c-.14.06-.3.09-.48.09a1.3 1.3 0 0 1-.48-.09.8.8 0 0 1-.34-.25.76.76 0 0 1-.15-.42h-.83c.01.32.1.6.24.82.15.23.36.4.62.51.27.12.58.18.95.18s.69-.06.95-.18.46-.3.6-.5c.14-.22.2-.47.2-.76 0-.2-.03-.4-.1-.55a1.22 1.22 0 0 0-.31-.4c-.13-.11-.28-.2-.44-.27a2.92 2.92 0 0 0-.5-.18l-.44-.11-.29-.09c-.09-.03-.18-.08-.25-.13a.5.5 0 0 1-.25-.45c0-.12.03-.23.1-.33s.16-.17.29-.22c.12-.06.27-.08.45-.08a1 1 0 0 1 .6.17ZM40 34v-5h3v.76h-2v1.36h1.87v.76H41v1.36h2V34h-3Zm-1.75-3.3h.85a1.92 1.92 0 0 0-1.97-1.7C35.74 29 35 30.22 35 31.5c0 1.27.74 2.5 2.13 2.5.99 0 1.83-.69 1.97-1.68h-.85c-.1.54-.57.88-1.1.88-.94 0-1.15-.9-1.15-1.7 0-.8.22-1.71 1.14-1.71.56 0 1.02.36 1.1.92ZM31 34v-5h1.74c.36 0 .66.07.9.2.25.13.43.32.55.56.13.24.2.52.2.84 0 .32-.07.6-.2.83a1.3 1.3 0 0 1-.64.59l1 1.98h-.94l-.91-1.83H32V34h-1Zm1-4.24v1.66h.62c.2 0 .38-.03.51-.1a.63.63 0 0 0 .3-.27c.06-.12.1-.27.1-.45a.97.97 0 0 0-.1-.46.64.64 0 0 0-.3-.28c-.13-.07-.3-.1-.52-.1H32ZM30 29h-1v3.14c0 .64-.38 1.06-1 1.06s-1-.42-1-1.06V29h-1v3.22c0 1.12.94 1.78 2 1.78s2-.66 2-1.78V29Zm-4.66 2.5c0 1.28-.74 2.5-2.13 2.5-1.4 0-2.14-1.22-2.14-2.5s.75-2.5 2.14-2.5c1.39 0 2.13 1.22 2.13 2.5Zm-.84 0c0-.8-.36-1.7-1.3-1.7-.92 0-1.2.9-1.2 1.7 0 .8.28 1.7 1.2 1.7.94 0 1.3-.9 1.3-1.7Zm-5.2-1.58c.16.11.25.28.27.48h.8c0-.27-.07-.51-.21-.72a1.43 1.43 0 0 0-.6-.5 1.97 1.97 0 0 0-.86-.18c-.32 0-.62.06-.87.18-.26.12-.46.29-.61.5a1.3 1.3 0 0 0-.23.75c0 .35.12.63.34.84.22.21.52.37.9.47l.53.14.44.15c.12.06.22.13.3.21.06.08.1.19.1.31a.6.6 0 0 1-.12.37.78.78 0 0 1-.33.24c-.14.06-.3.09-.48.09a1.3 1.3 0 0 1-.48-.09.8.8 0 0 1-.34-.25.76.76 0 0 1-.15-.42h-.83c.01.32.1.6.24.82.15.23.36.4.62.51.27.12.58.18.95.18s.69-.06.95-.18.46-.3.6-.5c.14-.22.21-.47.21-.76 0-.2-.04-.4-.11-.55a1.22 1.22 0 0 0-.31-.4c-.13-.11-.28-.2-.44-.27a2.91 2.91 0 0 0-.5-.18l-.44-.11-.29-.09c-.09-.03-.18-.08-.25-.13a.5.5 0 0 1-.25-.45c0-.12.03-.23.1-.33s.16-.17.29-.22c.12-.06.27-.08.45-.08a1 1 0 0 1 .6.17ZM13 34v-5h3v.76h-2v1.36h1.87v.76H14v1.36h2.04V34H13Zm-4-5v5h1v-1.83h.7L11.6 34h.94l-1-1.98.09-.04c.24-.13.43-.31.55-.55.13-.23.2-.51.2-.83 0-.32-.07-.6-.2-.84-.12-.24-.3-.43-.55-.56-.24-.13-.54-.2-.9-.2H9Zm1 2.42v-1.66h.61c.21 0 .39.03.52.1.13.06.23.16.3.29.06.12.1.27.1.45s-.04.33-.1.45a.63.63 0 0 1-.3.27c-.13.07-.3.1-.51.1H10ZM49 27v-5h2.98v.76H50v1.36h1.83v.76H50v1.36h2V27h-3Zm-8-5v5h2.94v-.76H42V22h-1Zm-4 5v-5h1.8c.35 0 .63.06.86.17.23.11.4.27.5.46.12.2.18.42.18.67 0 .2-.04.37-.11.52a.97.97 0 0 1-.3.35c-.12.09-.26.15-.42.2v.04c.17 0 .33.06.49.16.15.1.28.24.38.42.1.18.14.4.14.65 0 .26-.06.49-.17.7-.12.2-.3.36-.54.48a2 2 0 0 1-.9.18H37Zm1-.76h.78c.3 0 .53-.06.67-.18.13-.13.2-.3.2-.5a.78.78 0 0 0-.1-.4.73.73 0 0 0-.3-.28.94.94 0 0 0-.45-.1H38v1.46Zm0-2.11h.7a.9.9 0 0 0 .4-.09.68.68 0 0 0 .28-.25c.07-.1.1-.23.1-.38 0-.19-.06-.35-.19-.47-.13-.13-.32-.2-.57-.2H38v1.39ZM31 22v5h3v-.76h-2V22h-1Zm-4.18 5h-.91l1.66-5h1.06l1.66 5h-.91l-.4-1.23h-1.77L26.82 27Zm1.3-3.97.62 1.97h-1.29l.63-1.97h.04ZM22 22v5h1v-1.83h.73l.92 1.83h.96l-1.02-1.98.09-.04c.25-.13.43-.31.56-.55.13-.23.2-.51.2-.83 0-.32-.07-.6-.2-.84a1.33 1.33 0 0 0-.56-.56 1.9 1.9 0 0 0-.9-.2H22Zm1.64 2.42H23v-1.66h.64c.21 0 .39.03.52.1.14.06.24.16.3.29.07.12.1.27.1.45s-.03.33-.1.45a.63.63 0 0 1-.3.27c-.13.07-.3.1-.52.1ZM20 22h1v3.22c0 1.12-.94 1.78-2 1.78s-2-.66-2-1.78V22h1v3.14c0 .64.38 1.06 1 1.06s1-.42 1-1.06V22Zm-7.27 0v.76H14V27h1v-4.24h1.5V22h-3.77Z"/></svg>