<!-- by TradeStack --><svg width="56" height="56" viewBox="0 0 56 56" xmlns="http://www.w3.org/2000/svg"><path fill="#F0F3FA" d="M0 0h56v56H0z"/><path d="M39.29 34.96a15 15 0 1 1 0-13.92c-.83.08-1.61.3-2.33.65C34.78 17.7 30.59 15 25.78 15A12.9 12.9 0 0 0 13 28c0 7.18 5.72 13 12.78 13 4.8 0 9-2.7 11.18-6.7.72.35 1.5.58 2.33.66Z" fill="#019935"/><path d="M16 31v-5.36c0-.36.32-.64.71-.64h1.27c.22 0 .43.09.57.24l3.98 4.56V25H24v5.36c0 .36-.32.64-.71.64h-1.1a.74.74 0 0 1-.57-.26l-4.19-4.81V31H16Zm9-6v4.41c0 .88.8 1.59 1.8 1.59h4.4c1 0 1.8-.71 1.8-1.59V25h-1.46v4.09c0 .35-.32.63-.72.63h-3.66c-.4 0-.72-.28-.72-.63V25H25Z" fill="#022642"/><path d="M40 34a6 6 0 1 0 0-12 6 6 0 0 0 0 12Zm-1.34-9H43v1.3h-3.94c-.5 0-.9.42-.9.95v.12H43v1.26h-4.85v.18c0 .53.4.96.9.96H43V31h-4.34c-.92 0-1.66-.79-1.66-1.76v-2.48c0-.97.74-1.76 1.66-1.76Z" fill="#019935"/></svg>