<!-- by TradeStack --><svg width="56" height="56" viewBox="0 0 56 56" xmlns="http://www.w3.org/2000/svg"><path fill="#F0F3FA" d="M0 0h56v56H0z"/><path d="M22 12.9c0-1.05.93-1.9 2.07-1.9h7.86c1.14 0 2.07.85 2.07 1.9V22H22v-9.1Z" fill="#EB008B"/><path d="M22 43.1c0 1.05.93 1.9 2.07 1.9h7.86c1.14 0 2.07-.85 2.07-1.9V34H22v9.1ZM12.9 34c-1.05 0-1.9-.93-1.9-2.07v-7.86c0-1.14.85-2.07 1.9-2.07H22v12h-9.1Z" fill="#04E762"/><path d="M43.1 34c1.05 0 1.9-.93 1.9-2.07v-7.86c0-1.14-.85-2.07-1.9-2.07H34v12h9.1Z" fill="#00A1E4"/></svg>