<!-- by TradeStack --><svg width="56" height="56" viewBox="0 0 56 56" xmlns="http://www.w3.org/2000/svg"><path fill="#F0F3FA" d="M0 0h56v56H0z"/><path d="M28 31h-.08c-1.24.02-2.45.6-2.72.87 1.4.74 2.32 1.43 2.32 2.33 0 .9-1.05 1.8-1.49 2.07-.6 0-1.03.6-1.03.85s.16.87.64 1.35c1.48 1.18 2.09 2.03 2.28 2.5 0 0 .02.03.04.03s.04-.04.04-.04c.2-.46.82-1.3 2.35-2.5.49-.47.65-1.09.65-1.34 0-.24-.45-.85-1.06-.85-.45-.28-1.53-1.16-1.53-2.07 0-.9.94-1.59 2.39-2.33A5.3 5.3 0 0 0 28 31ZM27 12v17c-.67-2-2-6.9-2-10.44 0-3.54 1.33-5.85 2-6.56ZM9 33l14 2.32c-1.76.37-6.02.99-8.93.5-2.91-.48-4.6-2.08-5.07-2.82ZM47 33l-14 2.32c1.76.37 6.02.99 8.93.5 2.91-.48 4.6-2.08 5.07-2.82ZM29 12v17c.67-2 2-6.9 2-10.44 0-3.54-1.33-5.85-2-6.56ZM9 31.35 23 34c-1.54-1.05-5.36-3.3-8.27-3.85-2.91-.55-5.03.57-5.73 1.2ZM47 31.35 33 34c1.54-1.05 5.36-3.3 8.27-3.85 2.91-.55 5.03.57 5.73 1.2ZM13 22l11 10c-1.74-.74-5.8-2.74-8.1-4.82-2.28-2.08-2.89-4.32-2.9-5.18ZM43 22 32 32c1.74-.74 5.8-2.74 8.1-4.82 2.28-2.08 2.89-4.32 2.9-5.18ZM14 21l11 10c-.84-1.63-3.1-5.42-5.39-7.5-2.29-2.08-4.7-2.53-5.61-2.5ZM42 21 31 31c.84-1.63 3.1-5.42 5.39-7.5 2.29-2.08 4.7-2.53 5.61-2.5Z" fill="#A39161"/></svg>