<!-- by TradeStack --><svg width="56" height="56" viewBox="0 0 56 56" xmlns="http://www.w3.org/2000/svg"><path fill="#F0F3FA" d="M0 0h56v56H0z"/><path d="M25.05 13h.08c.4.2.74.5 1 .88.06.09.14.12.24.1a4.52 4.52 0 0 1 2.5.22c.12.05.23.04.34-.04.3-.2.64-.29 1.02-.26.12.01.2-.04.23-.17.06-.25.22-.4.5-.42.08-.01.17 0 .24.06l1.08.67c.1.07.22.08.34.02l1.06-.5a.35.35 0 0 1 .35 0l1.63.92c.1.06.2.07.31.04.36-.1.62-.03.81.21a3.35 3.35 0 0 0 3.32 1.42c.1-.01.2 0 .3.06.22.13.44.15.68.07.1-.04.19-.03.27.01.54.28.83.73.85 1.35.01.13.08.2.2.2.44.05.7.29.77.7.02.13.1.2.22.22.76.09 1.45.35 2.08.77.1.06.2.1.31.12l.4.08c.14.03.2.11.18.26-.04.33-.15.63-.32.9-.08.14-.06.25.07.34l.82.57c.08.05.1.12.04.2l-.9 1.56c-.1.15-.06.27.1.34l1.6.8a.43.43 0 0 1 .21.52c-.16.52-1.08.91-1.76 1.18-.1.04-.21.05-.32.02-.42-.1-.75.02-1 .37a.31.31 0 0 1-.27.14l-3.45-.09a.4.4 0 0 0-.25.08l-.82.59c-.1.07-.21.1-.34.08-.4-.06-.75.01-1.08.22-.1.07-.22.1-.34.1h-.83a.28.28 0 0 0-.27.18c-.37.76-2.38.92-2.96.95-.1 0-.2.04-.28.1-.8.64-2.7 1.18-3.7 1.3a.47.47 0 0 0-.3.14l-.65.7a.68.68 0 0 0-.16.25c-.19.58-.51 1.07-.96 1.47-.08.07-.24.17-.24.28v5.42c0 .1.27.34.32.41.55.73.98.13 1.54.15.5.02.96.16 1.39.44a.6.6 0 0 0 .3.1c2.85.18 5.79.34 8.6.92.12.02.13.08.05.17l-.08.08a.1.1 0 0 1-.07.03h-22.9c-.6 0-1.2-.04-1.8-.12-.12-.01-.18-.08-.16-.2.07-.63 9.13-.91 10.1-.92.13 0 .2-.07.2-.2.07-1.3.08-2.6.03-3.89-.03-.59.12-1.7-.16-2.49-.4-1.13-.58-2.06-.9-3.11a.46.46 0 0 0-.2-.26l-2-1.25a.52.52 0 0 0-.35-.07c-.5.06-1.74.43-2.04-.14-.07-.12-.03-.2.1-.25l.37-.14c.17-.07.18-.14.01-.23l-.89-.47a.5.5 0 0 0-.28-.06c-.76.06-1.48-.1-2.15-.5a.27.27 0 0 0-.32.01c-.63.48-1.34.65-2.12.52a.25.25 0 0 0-.26.11c-.19.27-.44.43-.75.48a.4.4 0 0 0-.3.2c-.28.47-.65.57-1.12.31a.63.63 0 0 0-.34-.08c-.77.04-1.7-.3-2.37 0-.1.05-.2.05-.3 0-1.69-.76-1.16-2.04-.66-3.39a.5.5 0 0 0 .01-.3l-.12-.46c-.04-.16.02-.24.18-.26.92-.08 1.28-.58 1.1-1.49a.46.46 0 0 1 .1-.4.44.44 0 0 1 .4-.13c.39.06.76.02 1.11-.12.13-.05.16-.14.1-.27l-.4-.83a.28.28 0 0 1 .05-.32c.31-.38 2-2.17 1.87-2.53-.05-.13-.02-.24.1-.32.3-.22.47-.52.53-.9a.36.36 0 0 1 .22-.28.34.34 0 0 1 .35.06c.35.31.75.4 1.21.24a.35.35 0 0 1 .33.05c.19.14.4.18.64.14.1-.02.2-.06.3-.12.82-.5 1.37.03 2.12-.88a.4.4 0 0 1 .3-.16c.43-.03.82.09 1.17.34a.4.4 0 0 0 .57-.1l.72-1.02a.33.33 0 0 1 .24-.15c.47-.04.88-.23 1.22-.57.1-.09.21-.13.34-.13l1.38.06a.2.2 0 0 0 .2-.14.2.2 0 0 0 0-.09c-.07-.43 0-.69.22-.78Zm4.24 14.85c-.08-.8-1.22-.8-1.66-.34-.15.16-.12.25.09.29l1.36.25c.16.03.23-.04.21-.2Zm-4.04-.1-.45-.33c-.11-.08-.2-.06-.24.07-.14.32.39.77.7.49a.15.15 0 0 0 .05-.12.15.15 0 0 0-.06-.11Zm2.83 1.31-.51-.2c-.14-.06-.22-.01-.23.14l-.12 1.32c-.02.3.07.35.28.13l.98-1c.11-.12.1-.22-.05-.3-.13-.08-.24-.11-.35-.09Z" fill="#231F20"/></svg>