<?xml version='1.0' encoding='utf-8'?>
<!-- by TradeStack -->
<svg width="56" height="56" viewBox="0 0 56 56" xmlns="http://www.w3.org/2000/svg"><path fill="#F0F3FA" d="M0 0h56v56H0z" /><path d="M8.36 21.23v14.75c1.85.59 7.76 1.64 18.5 1.64 10.82 0 18.4-1.06 20.78-1.65V21.24c-4.2-.65-13.73-1.86-20.78-1.86-7.01 0-15.06 1.2-18.5 1.85ZM48 20.91v15.36c-2.07.58-9.87 1.73-21.14 1.73C15.59 38 9.59 36.84 8 36.26V20.91C11.26 20.27 19.6 19 26.86 19c7.25 0 17.12 1.27 21.14 1.91Z" fill="#080C62" /><path d="M26.92 20C20.02 20 12.1 21.14 9 21.71v13.74c1.5.51 7.2 1.55 17.92 1.55 10.7 0 18.11-1.03 20.08-1.55V21.71C43.18 21.14 33.8 20 26.92 20Z" fill="url(#aqjmua2zu)" /><path d="m24 32.75-.38-8.95c-.28-.08-.9-.3-1.1-.58-.2-.28-.01-.44.11-.49h3.56c.38 0 .55.16.51.43-.03.2-.76.51-1.12.64l.25 6.34c.66-.88 2.2-2.96 3.12-4.32a4.9 4.9 0 0 1 2.69-2.02l.73.72c-.89.01-2.07 1.06-2.55 1.58a877.2 877.2 0 0 1-4.62 6.7c-.3.4-.63.56-.86.49-.19-.06-.3-.38-.34-.54Zm-6.64-2.03V25.8h1.12v4.98c0 .9.71 1.62 1.59 1.62a1.6 1.6 0 0 0 1.58-1.62V25.8h1.16v4.93a2.75 2.75 0 0 1-2.72 2.78 2.75 2.75 0 0 1-2.73-2.78Zm12.57-2.85c.4-.72 1.55-2.15 3.02-2.15 1.48 0 .1 2.8-.6 4.25-.16.35-.3.62-.34.75-.2.65-.52 1.8 1.33.16l.34.46c-.7.68-2.28 2.04-3.08 2.04-.99 0-1.2-.77-.6-2.13l.24-.52c.66-1.48 1.71-3.82.95-3.32l-.49.32c-.55.38-.84.58-.77.14Zm4.64-.48c-.27.6.06.82.26.85 2.5-3.08 1 .8.16 2.96-.2.5-.36.92-.42 1.13-.27.88.11 1.02.34.98h.94c.66-1.77 2.72-6 3.74-6.3.8-.24-.46 2.55-1.23 4.26l-.47 1.06c-.32.83.14 1 .4.98h1.1c1.55-3.51 3.15-6.29 3.77-6.3.63-.02-.61 2.86-1.13 3.6-.52.75-1.44 2.7.2 2.7 1.3 0 2.78-1.42 3.36-2.13l-.55-.57c-.1.12-.42.49-1 1-.57.5-.53 0-.44-.32.27-.56.88-1.86 1.16-2.65.36-.98 1-2.98-.48-2.98-1.19 0-2.73 1.99-3.35 2.98.46-1 1.04-2.98-.34-2.98-1.37 0-2.75 2.06-3.27 3.09.5-1.22 1.13-3.09 0-3.09s-2.41.99-2.75 1.73Zm-23.58 5.87v-7.54h1.28l3.13 5.36v-5.36h1.07v7.54h-1.28l-2.92-5.14v5.14h-1.28Z" fill="#351A0A" /><path d="m23.75 32.53-.39-8.95c-.28-.08-.9-.3-1.1-.58-.2-.28 0-.44.12-.49h3.56c.37 0 .55.16.5.43-.03.2-.75.51-1.11.64l.25 6.34c.65-.88 2.2-2.96 3.11-4.32a4.9 4.9 0 0 1 2.7-2.02l.72.72c-.89.01-2.07 1.06-2.54 1.58-1.45 2.1-4.39 6.39-4.63 6.7-.3.4-.63.56-.86.5-.18-.07-.3-.4-.33-.55ZM17.1 30.5v-4.93h1.13v4.99c0 .89.7 1.6 1.58 1.6a1.6 1.6 0 0 0 1.58-1.6v-4.99h1.17v4.93a2.75 2.75 0 0 1-2.73 2.79 2.75 2.75 0 0 1-2.73-2.79Zm12.57-2.85c.4-.72 1.55-2.15 3.02-2.15 1.48 0 .11 2.81-.6 4.25-.16.35-.3.62-.34.75-.2.65-.52 1.8 1.33.16l.34.46c-.7.68-2.28 2.04-3.07 2.04-1 0-1.2-.77-.6-2.13l.23-.52c.67-1.48 1.72-3.82.95-3.32-.18.11-.34.23-.48.33-.55.38-.84.57-.78.13Zm4.64-.48c-.27.6.06.82.26.85 2.5-3.08 1 .8.16 2.96-.2.5-.36.92-.42 1.13-.27.88.11 1.02.34.98h.94c.66-1.77 2.72-6 3.74-6.3.8-.24-.46 2.55-1.23 4.26-.2.46-.38.84-.46 1.06-.33.83.13 1 .4.98h1.1c1.55-3.5 3.14-6.29 3.76-6.3.63-.02-.6 2.86-1.13 3.6-.52.75-1.44 2.7.2 2.7 1.3 0 2.78-1.42 3.36-2.13l-.55-.57c-.09.12-.42.49-.99 1-.57.51-.53 0-.44-.32.27-.55.88-1.86 1.16-2.65.35-.98 1-2.98-.49-2.98-1.18 0-2.72 2-3.35 2.98.46-.99 1.04-2.98-.34-2.98-1.37 0-2.75 2.06-3.27 3.09.51-1.22 1.14-3.09 0-3.09-1.13 0-2.41.99-2.75 1.73Zm-23.58 5.87V25.5h1.28l3.13 5.35V25.5h1.07v7.53h-1.28L12 27.9v5.14h-1.28Z" fill="#FCFC1E" /><path d="m23.4 32.16-.38-8.95c-.28-.08-.9-.3-1.1-.58-.2-.28-.01-.44.11-.49h3.56c.38 0 .55.16.51.43-.03.2-.76.51-1.12.64l.25 6.34c.66-.88 2.2-2.96 3.12-4.32a4.9 4.9 0 0 1 2.69-2.02l.73.72c-.9.01-2.07 1.06-2.55 1.58-1.44 2.1-4.38 6.38-4.62 6.7-.3.4-.63.56-.86.49-.19-.06-.3-.38-.34-.54ZM17 30.12V25h1.12v5.17c0 .92.71 1.67 1.58 1.67.88 0 1.59-.75 1.59-1.67V25h1.16v5.12A2.8 2.8 0 0 1 19.73 33 2.8 2.8 0 0 1 17 30.12Zm12.32-2.84c.4-.72 1.56-2.15 3.03-2.15 1.48 0 .1 2.8-.6 4.25-.17.35-.3.62-.34.75-.2.65-.52 1.8 1.33.16l.34.46c-.7.68-2.28 2.04-3.08 2.04-.99 0-1.2-.77-.6-2.13l.24-.52c.66-1.48 1.71-3.82.95-3.32l-.49.32c-.55.38-.84.58-.78.14Zm4.65-.48c-.27.6.06.82.26.85 2.5-3.08 1 .8.16 2.96-.2.5-.36.92-.42 1.13-.27.88.11 1.02.34.98h.93c.67-1.77 2.73-6 3.75-6.3.8-.24-.46 2.55-1.23 4.26l-.47 1.06c-.32.83.14 1 .4.98h1.1c1.55-3.51 3.14-6.29 3.77-6.3.63-.02-.61 2.86-1.13 3.6-.53.75-1.44 2.7.2 2.7 1.3 0 2.78-1.42 3.35-2.13l-.54-.57c-.1.12-.42.49-1 1-.57.5-.53 0-.44-.32.27-.56.88-1.86 1.16-2.65.36-.98 1-2.98-.48-2.98-1.19 0-2.73 1.99-3.35 2.98.46-1 1.04-2.98-.34-2.98-1.38 0-2.75 2.06-3.27 3.09.5-1.22 1.13-3.09 0-3.09-1.14 0-2.41.99-2.75 1.73ZM10.39 33v-8h1.28l3.13 5.68V25h1.06v8H14.6l-2.92-5.46V33h-1.28Z" fill="#fff" /><path fill-rule="evenodd" d="M31.32 20.15c-.57.16-1.7.78-1.64 2.01.06 1.55 1.05 2.46 3.03 2.49 1.58.02 2.21-.74 2.33-1.12.2.1.68.4 1.05.84.47.55.69.66.69.47v-.08c.01-.23.05-.68-.6-1.3-.6-.56-.88-.6-.94-.55l.3-.64c.64.46 1.98 1.26 2.3.8.4-.6-1.55-1.37-1.84-1.34-.24.02-.5 0-.62 0l.09-.85a9.9 9.9 0 0 0 2.56-1.05c.67-.47.55-.87.4-1.02-.78.52-2.48 1.56-3.13 1.66l-.6-.64c.4-.51 1.17-1.6 1.06-1.85-.1-.25-1.28 1.13-1.86 1.85a4.6 4.6 0 0 1-.84-.4c-.06-.04 0-.33.07-.68.12-.6.27-1.39-.07-1.41-.3-.02-.4.48-.52 1.01-.1.46-.2.94-.43 1.09-.4.25-.7.57-.79.7Zm.68-.04c-.44.19-1.32.85-1.32 1.96 0 1.39 1.36 1.85 2.04 1.85.69 0 1.97-.54 1.97-2.06 0-1.2-1.18-1.4-1.77-1.35-.33.05-.99.38-.99 1.35 0 1.22 1.53.75 1.58.3.06-.45-.34-1.17-.47-.66-.12.5-.3.88-.57.66-.27-.21-.37-1.32.57-1.32.95 0 1.25.53 1.25 1.32 0 .8-.67 1.23-1.67 1.23-1 0-1.25-.8-1.25-1.68 0-.7.42-1.36.63-1.6Zm-3.93.68c.88.15 1.24.8 1.34.98l.03.05c-.07.04-.32.09-.75-.05a5.98 5.98 0 0 1-1.35-.78c-.1-.13-.07-.35.73-.2Zm1.42 1.83c-.21 0-.93-.04-1.53.64-.55.61-.37.75-.22.74a5.97 5.97 0 0 0 1.37-.75c.34-.3.43-.54.43-.63h-.05Z" fill="#351A0A" /><path fill-rule="evenodd" d="M31.43 19.81c-.57.16-1.7.79-1.65 2.02.07 1.54 1.06 2.45 3.04 2.48 1.58.02 2.21-.74 2.33-1.12.2.1.68.41 1.05.85.47.54.68.65.68.46v-.07c.02-.23.05-.69-.6-1.3-.59-.56-.87-.6-.93-.55l.3-.64c.64.46 1.98 1.26 2.3.79.4-.59-1.55-1.37-1.84-1.34a4 4 0 0 1-.62 0l.08-.84a9.9 9.9 0 0 0 2.57-1.05c.66-.47.55-.88.4-1.03-.78.52-2.48 1.56-3.14 1.66-.13-.15-.45-.5-.59-.63.4-.52 1.17-1.6 1.06-1.86-.1-.25-1.29 1.13-1.86 1.86a4.6 4.6 0 0 1-.84-.4c-.06-.05 0-.34.07-.7.12-.6.27-1.37-.07-1.4-.3-.02-.4.49-.52 1.02-.1.46-.2.93-.43 1.08-.4.25-.7.58-.8.71Zm.68-.04c-.44.19-1.32.85-1.32 1.96 0 1.4 1.36 1.86 2.04 1.86.69 0 1.97-.55 1.97-2.06 0-1.21-1.18-1.4-1.77-1.35-.33.04-.99.38-.99 1.35 0 1.21 1.53.75 1.58.3.06-.45-.35-1.17-.47-.67-.12.5-.3.89-.57.67-.27-.22-.38-1.32.57-1.32s1.25.53 1.25 1.32-.67 1.23-1.67 1.23c-1 0-1.25-.8-1.25-1.68 0-.7.42-1.37.63-1.61Zm-3.93.68c.88.16 1.24.8 1.34.98l.03.05c-.07.04-.32.1-.75-.04a5.98 5.98 0 0 1-1.35-.79c-.1-.12-.07-.34.73-.2Zm1.42 1.83c-.21 0-.94-.04-1.53.64-.55.62-.38.75-.22.74a5.97 5.97 0 0 0 1.37-.75c.34-.3.43-.54.43-.63h-.05Z" fill="#FCFC1E" /><path opacity=".7" fill="#FCFC1E" d="M22 34h11v2H22z" /><defs><linearGradient id="aqjmua2zu" x1="10.6" y1="28.5" x2="45.76" y2="28.5" gradientUnits="userSpaceOnUse"><stop offset=".25" stop-color="#54BB29" /><stop offset=".49" stop-color="#74A392" /><stop offset=".66" stop-color="#3D7F9D" /><stop offset=".83" stop-color="#0101C0" /></linearGradient></defs></svg>