<?xml version='1.0' encoding='utf-8'?>
<!-- by TradeStack -->
<svg width="56" height="56" viewBox="0 0 56 56" xmlns="http://www.w3.org/2000/svg"><path fill="#F0F3FA" d="M0 0h56v56H0z" /><path d="M13.5 21h-3L8 35h2.5c1.2 0 1.33-1.33 1.5-2l1.5-6c.33.83 1.59 3.18 2.5 5 1 2 2.17 2.83 3 3h8c-2-.33-5.4-2.2-5-7 .4-4.8 4-6.67 6-7h-6c-1.6 0-2.33 1.67-2.5 2.5l-1 5-2-5c-.8-2-2.67-2.5-3-2.5Z" fill="#1D498A" /><path d="M38.5 21H30c3.6 0 4.83 3.33 5 5h-4c-.17-.67-.8-2-2-2-1.5 0-2.5 1-3 4s.5 4 2 4c1.2 0 2.17-1.33 2.5-2H34a6.23 6.23 0 0 1-5 5h6c1.6 0 2.33-1.67 2.5-2.5l1-5.5c.5 1.33 1.6 4.4 2 6 .4 1.6 1.83 2 2.5 2h2.5L48 21h-2c-1.6 0-2.33 2-2.5 3l-1 4.5L41 24c-.8-2.4-2-3-2.5-3Z" fill="#DC4E47" /></svg>