<?xml version='1.0' encoding='utf-8'?>
<!-- by TradeStack -->
<svg width="56" height="56" viewBox="0 0 56 56" xmlns="http://www.w3.org/2000/svg"><path fill="#F0F3FA" d="M0 0h56v56H0z" /><path d="M26.52 28.01 21 21h4.49L31 28.01 25.5 35H21l5.52-6.99Z" fill="#77B100" /><path d="M6 21h3l7 9.12V21h3v14h-3l-7-9.01V35H6V21ZM32.02 27 37 21h-4l-3 3.54L32.02 27ZM32.02 29 37 35h-4l-3-3.54L32.02 29ZM50 23.3l-2.18 2.24A4.74 4.74 0 0 0 44.58 24C42.7 24 40 25.19 40 27.81A4.1 4.1 0 0 0 44.18 32c1.7 0 2.55-.67 2.82-1v-1h-3v-3h6v5.77A8.69 8.69 0 0 1 44.18 35 6.98 6.98 0 0 1 37 27.81c0-4.08 3.5-6.81 7.58-6.81A7.78 7.78 0 0 1 50 23.3Z" fill="#706F6F" /></svg>