<?xml version='1.0' encoding='utf-8'?>
<!-- by TradeStack -->
<svg width="56" height="56" viewBox="0 0 56 56" xmlns="http://www.w3.org/2000/svg"><path fill="url(#a5o0xhjr1)" d="M0 0h56v56H0z" /><path fill-rule="evenodd" d="m9.55 28 12.07-12.4 5.6 5.76L20.77 28l6.47 6.64-5.61 5.77L9.55 28ZM28 35.44 21.62 42 8 28l13.62-14L28 20.56 34.38 14 48 28 34.38 42 28 35.44Zm.77-14.08 5.61-5.77L46.45 28 34.38 40.4l-5.6-5.76L35.23 28l-6.47-6.64Zm-.77.8L33.69 28 28 33.85 22.31 28 28 22.15Z" fill="#F39834" /><defs><linearGradient id="a5o0xhjr1" x1="10.42" y1="9.71" x2="68.15" y2="76.02" gradientUnits="userSpaceOnUse"><stop stop-color="#1A1E21" /><stop offset="1" stop-color="#06060A" /></linearGradient></defs></svg>