<!-- by TradeStack --><svg width="56" height="56" viewBox="0 0 56 56" xmlns="http://www.w3.org/2000/svg"><path fill="url(#a0ljvzjbe)" d="M0 0h56v56H0z"/><path d="M8.52 20 6 36h6.1l1-5.28L16.2 36h2.2l2.32-3.57 1.15-6.9L18.04 20h-.98l-1.2 6.96L13.43 20h-4.9Zm15.73 7.63L18.7 20h7.54l2.68 5 2.82-5h7.96l-5.17 7.85L39.56 36h-7.63l-3-5.14L25.85 36h-6.67l5.06-8.37ZM36.47 26l3.86-6H50v6h-5v10h-4.67L39 34.18V26h-2.53Z" fill="#fff"/><defs><linearGradient id="a0ljvzjbe" x1="10.42" y1="9.71" x2="68.15" y2="76.02" gradientUnits="userSpaceOnUse"><stop stop-color="#1A1E21"/><stop offset="1" stop-color="#06060A"/></linearGradient></defs></svg>