<?xml version='1.0' encoding='utf-8'?>
<!-- by TradeStack -->
<svg width="56" height="56" viewBox="0 0 56 56" xmlns="http://www.w3.org/2000/svg"><path fill="#F0F3FA" d="M0 0h56v56H0z" /><path d="M28.59 22.97s.55-.6 1.65-1.34c1.1-.67 2-.87 2-.87A12.58 12.58 0 0 1 34.5 28c0 7.1-6 12.87-13.3 12.87C13.93 40.87 8 35.17 8 28c0-7.17 5.92-12.93 13.22-13 2 0 3.92.4 5.64 1.2 0 0-1.44 1.01-2.06 1.55-.55.53-1.52 1.67-1.52 1.67-.68-.13-1.37-.2-2.06-.2a8.82 8.82 0 0 0-8.95 8.71c0 4.83 4 8.71 8.95 8.71a8.82 8.82 0 0 0 8.95-8.7c0-1.88-.55-3.56-1.58-4.97Zm6.05 13.74c-.68 0-1.3 0-2.06-.2-.76 1.2-2.57 2.46-3.32 2.97-.2.15-.33.23-.33.25 1.72.8 3.65 1.27 5.71 1.27C42.01 41 48 35.17 48 28s-5.99-13-13.36-13A13.24 13.24 0 0 0 21.3 28c0 2.68.82 5.16 2.27 7.24 0 0 .9-.14 2-.8.9-.48 1.72-1.41 1.72-1.41A8.48 8.48 0 0 1 25.62 28a8.93 8.93 0 0 1 9.02-8.78c4.96 0 9.02 3.89 9.02 8.71a8.93 8.93 0 0 1-9.02 8.78Z" fill="#E50012" /></svg>