<?xml version='1.0' encoding='utf-8'?>
<!-- by TradeStack -->
<svg width="56" height="56" viewBox="0 0 56 56" xmlns="http://www.w3.org/2000/svg"><path fill="#F0F3FA" d="M0 0h56v56H0z" /><path d="M31.47 12.02a.6.6 0 0 0-.39.35c-.1.23-.08.06-.08 4.94v5.53c.02 1 .02 1.3-.05 1.5-.09.3-.24.56-.53.66H23V12.89c-.1-.42-.3-.54-.72-.39-.1.03-.24.1-.33.15l-.32.13c-.34.1-.56.29-.62.63v22.33c.05.1.26.2.36.26h5.48c4.71 0 4.79.03 4.85 0 .42-.21.3-.75.3-1.14 0-.15-.03-.53-.02-1.9L32 28.1V25h6.43c1.69-.05 1.57 2.32 1.57 2.32v5.86l.01 1.4-.06.3c-.1.48-.09.68.03.85.13.18.44.28.97.3.65.04.95-.18 1.29-.7a15.73 15.73 0 0 0 1.72-8.58 17.1 17.1 0 0 0-.47-2.8c-1.24-4.9-4.58-9.02-8.88-10.96-1.18-.53-2.3-1-2.88-.99l-.26.02Zm-14.71 4.1c-3.59 2.77-4.87 7.5-4.75 11.98.1 4.1 1.19 8.85 4.63 11.41.12.1.23.17.25.17.05 0 .1-.26.12-.3v-11.7c0-9.55.02-11.71 0-11.71s-.14.07-.25.15Zm1.15 24.02c-.05.05-.03.14.06.28.1.15.25.3.63.6 2 1.61 4.34 2.57 7.2 2.94.36.04.43.04 2.31.04l1.94-.01.36-.06c1.15-.2 1.95-.39 2.87-.7a12.93 12.93 0 0 0 4.67-2.72c.11-.08.06-.43-.12-.51H18.26c-.16-.03-.31.1-.35.14Z" fill="#C41D26" /></svg>