<!-- by TradeStack --><svg viewBox="0 0 56 56" xmlns="http://www.w3.org/2000/svg"><path fill="#1B073A" d="M0 0h56v56H0z"/><path d="M17.14 21a3 3 0 0 0-2.86 2.96c-.03.97.66 3 3.28 3 .36 0 .65-.03.95-.1v-1.14l-.92.09a1.84 1.84 0 0 1-1.9-1.82c0-1 .83-1.86 1.9-1.83h2.12v2.85s-.15 2.45 2.95 1.92v-1.15c-1.73.35-1.66-.7-1.66-.7v-2.92h1.66V21H21v-1h-1.3v1h-2.56Zm-6.52 4.84c1.01 0 1.76-.84 1.76-1.85 0-1.05-.66-1.86-1.76-1.86-1.08 0-1.77.84-1.77 1.86 0 1.01.72 1.85 1.77 1.85Zm3.1-1.88A2.98 2.98 0 0 1 10.59 27 3.03 3.03 0 0 1 7.5 24c0-1.77 1.37-2.99 3.1-2.99 1.75 0 3.1 1.28 3.1 2.96Zm12.38 1.88c1 0 1.76-.84 1.76-1.85 0-1.05-.66-1.86-1.76-1.86-1.07 0-1.77.84-1.77 1.86 0 1.01.72 1.85 1.77 1.85Zm3.1-1.88A2.97 2.97 0 0 1 26.06 27 2.98 2.98 0 0 1 23 24.01c-.03-1.8 1.36-3.01 3.1-3.01 1.73 0 3.1 1.28 3.1 2.96Zm7.15-2.33v2.85c0 1.6 1.16 2.5 2.8 2.5 1.37 0 2.2-.52 2.63-1.33 0 0 1.1 1.51 4.08 1.34 0 0 2.15-.03 2.3-1.8 0-.01.26-1.4-1.8-1.7l-1.72-.23s-.72-.09-.66-.64c0 0-.03-.73 1.58-.64 1.31.08 1.88.58 1.88.58.18-.06 1.22-1.02-.9-1.46 0 0-.95-.23-2.32 0 0 0-1.55.24-1.58 1.63 0 0-.24 1.66 2.33 1.81 0 0 .35.03.74.09.66.08 1.01.17 1.07.67 0 0 .24.96-2.17.64 0 0-2.43-.18-2.61-2.65v-2.01s-1.18-.47-1.3.38v2.7c0 1-.68 1.46-1.52 1.46-.83 0-1.52-.5-1.52-1.45v-3.12s-1.19-.47-1.3.38Zm-1.83 2.36c0 1.02-.72 1.86-1.74 1.86S31 25.04 31 23.99c0-1.01.7-1.86 1.78-1.86 1.1 0 1.74.82 1.74 1.86Zm-4.76 5.24s1.12.47 1.24-.38v-2.74a2.3 2.3 0 0 0 1.78.87c1.83.09 3.08-1.25 3.08-3.02 0-1.68-1.28-2.99-3.05-2.96-2 .03-3 1.37-3.05 3v5.23Zm-.8 1.77c-.55 0-1.08.23-1.45.64-.34.4-.51.9-.51 1.6V36h.48v-2.76c0-.56.13-.97.4-1.27h.01c.26-.3.7-.5 1.1-.5.41 0 .85.18 1.1.5.28.32.42.7.42 1.27V36H31v-2.76c0-.56.12-.97.4-1.27.26-.3.69-.5 1.1-.5.41 0 .84.18 1.1.5.28.32.4.7.4 1.27V36h.5l-.01-2.77c0-.68-.26-1.17-.6-1.58-.37-.42-.9-.65-1.46-.65a1.95 1.95 0 0 0-1.73 1.05A1.95 1.95 0 0 0 28.97 31ZM15.8 33.49c0-1.43.93-2.49 2.25-2.49.64 0 1.18.25 1.6.7.4.43.62 1.02.65 1.66v.16h-4.04c0 .57.18 1.1.49 1.45.36.38.83.59 1.41.59.64 0 1.18-.25 1.56-.7l.01-.02.13-.07.31.32-.09.1a2.5 2.5 0 0 1-1.9.81c-.69 0-1.29-.25-1.72-.7a2.58 2.58 0 0 1-.66-1.81Zm.5-.49h3.45a1.85 1.85 0 0 0-.5-1.02 1.7 1.7 0 0 0-1.23-.52c-.88 0-1.55.55-1.72 1.54Zm20.91-2c-1.31 0-2.25 1.06-2.25 2.49 0 .74.25 1.37.67 1.81.43.45 1.03.7 1.73.7.75 0 1.42-.3 1.89-.82l.1-.1-.32-.3-.13.06-.01.01c-.38.46-.92.7-1.56.7-.59 0-1.05-.2-1.41-.58-.31-.36-.5-.88-.5-1.45h4.05v-.15a2.57 2.57 0 0 0-.65-1.67c-.42-.45-.96-.7-1.6-.7Zm1.71 2h-3.46c.17-.99.85-1.54 1.73-1.54.47 0 .9.18 1.23.52.27.3.44.6.5 1.02Zm-27.64-2h.54l1.7 4.15L15.28 31h.5l-2.12 5h-.27l-2.11-5Zm-5.03-1a.35.35 0 0 0-.34.34c0 .2.16.35.34.35a.35.35 0 1 0 0-.69ZM6 31h.47v5H6v-5Zm16.1 0c-.43 0-.8.13-1.06.36-.27.24-.42.57-.42.95 0 .42.2.7.48.9.27.19.63.3.97.41.33.1.64.21.87.36.22.15.35.35.35.64 0 .28-.13.5-.34.67-.2.16-.48.25-.75.25-.54 0-.94-.18-1.39-.6l-.07-.06-.33.33.07.07c.47.47 1.06.72 1.72.72.86 0 1.55-.6 1.55-1.38a1.25 1.25 0 0 0-.56-1.01c-.3-.22-.67-.34-1.01-.44l-.04-.02c-.3-.1-.56-.2-.76-.33-.2-.13-.33-.3-.33-.53 0-.27.13-.48.32-.63.19-.14.45-.22.7-.22.45 0 .83.16 1.14.45l.07.06.33-.33-.08-.07A2.05 2.05 0 0 0 22.1 31Zm25.19.36c.26-.23.63-.36 1.06-.36.7 0 1.11.28 1.43.55l.08.07-.33.33-.07-.06a1.6 1.6 0 0 0-1.13-.45c-.26 0-.52.08-.71.22a.76.76 0 0 0-.31.63c0 .24.11.4.32.53.2.14.47.23.76.33l.04.02c.34.1.72.22 1.01.44.31.21.53.53.56 1 0 .79-.69 1.39-1.55 1.39-.66 0-1.25-.25-1.71-.72l-.07-.07.32-.33.07.06c.46.42.85.6 1.39.6.27 0 .55-.1.75-.25.2-.16.34-.39.34-.67 0-.3-.13-.49-.35-.64a3.54 3.54 0 0 0-.87-.36c-.33-.1-.7-.22-.97-.41-.28-.2-.48-.48-.48-.9 0-.38.15-.71.42-.95ZM8.98 31c-.56 0-1.1.23-1.47.64-.34.4-.51.9-.51 1.6V36h.48v-2.75c0-.57.13-.98.41-1.28.26-.3.7-.5 1.11-.5.41 0 .85.18 1.1.5.29.32.42.7.42 1.28V36H11v-2.76a2.66 2.66 0 0 0-.56-1.6c-.37-.4-.9-.64-1.46-.64Zm31.45.64c.37-.4.9-.64 1.46-.64.57 0 1.1.23 1.47.64.34.42.51.93.56 1.6V36h-.48v-2.76c0-.56-.14-.95-.42-1.27-.26-.32-.69-.5-1.1-.5-.41 0-.85.2-1.1.5h-.01c-.28.3-.41.7-.41 1.27V36h-.48v-2.76c0-.7.16-1.2.5-1.6ZM24.8 30h-.47v3.87c0 .64.16 1.13.49 1.52.36.4.87.61 1.41.61h.12v-.46h-.12c-.4 0-.81-.17-1.06-.47-.27-.3-.4-.67-.4-1.2v-2.19h1.76v-.43H24.8V30Zm19.75 0H45v1.25h1.56v.43H45v2.19c0 .53.12.9.4 1.2.24.3.48.47.88.47h.12V36h-.12c-.54 0-.88-.22-1.24-.61-.33-.4-.49-.88-.49-1.52V30Z" fill="#fff"/></svg>