<!-- by TradeStack --><svg viewBox="0 0 56 56" xmlns="http://www.w3.org/2000/svg"><path fill="#F0F3FA" d="M0 0h56v56H0z"/><path d="M29.46 30.95V20h-2.3l-.01 3.5c0 .02-.01.02-.02.02-.21-.11-.44-.21-.7-.3-.3-.13-.66-.21-1.07-.22-.52 0-1 .13-1.45.36-.46.24-.84.57-1.14 1a4.99 4.99 0 0 0-.74 3.37c.1 1.06.42 1.89.99 2.49.44.47.99.73 1.64.77.5.03.94-.03 1.33-.2a5.13 5.13 0 0 0 1.16-.74v.9c0 .02 0 .05.02.05h2.26c.02 0 .03-.03.03-.05Zm-4.91-5c.21-.64.62-1.02 1.2-1.12.48-.08.93-.03 1.38.16 0 0 .02.01.02.03v3.66l-.02.03c-.48.35-1 .49-1.53.42-.36-.05-.63-.2-.83-.45a1.96 1.96 0 0 1-.34-.93c-.09-.69-.05-1.29.12-1.8Zm8.87-3.97L33.4 20H31v1.99l.01.01h2.39c.01 0 .02 0 .02-.02ZM6 27.07v-.14l.02-.34c.02-.37.08-.72.18-1.05a3.4 3.4 0 0 1 2.98-2.49 5.63 5.63 0 0 1 1.74.04c.75.14 1.38.47 1.88.99s.82 1.18.94 1.97a6 6 0 0 1 .03 1.7c-.1.9-.44 1.64-1 2.2a3.5 3.5 0 0 1-2.12 1c-.66.08-1.27.06-1.84-.06a3.4 3.4 0 0 1-2.53-2.18A5 5 0 0 1 6 27.07ZM8.4 27c0 1.54.5 2.31 1.52 2.31 1.01 0 1.52-.77 1.51-2.31 0-1.54-.5-2.31-1.52-2.31s-1.52.77-1.52 2.31Zm7.86-2.94v-.8c0-.02-.01-.03-.02-.03h-2.22c-.01 0-.02 0-.02.02v7.73c0 .01 0 .02.02.02h2.22c.01 0 .02 0 .02-.02v-5.46c0-.01 0-.02.02-.03a1.9 1.9 0 0 1 .27-.17c.42-.25.88-.34 1.37-.26.26.05.45.17.58.38.1.16.16.4.19.74.03.3.04.62.04.95a3198.95 3198.95 0 0 1 .02 3.87h2.23c.01 0 .02 0 .02-.02v-5.21a3.3 3.3 0 0 0-.47-1.8c-.33-.5-.8-.82-1.43-.93-.71-.12-1.38.01-2 .4a5.72 5.72 0 0 0-.84.62Zm20.47-.02v.01h.02c.25-.21.53-.42.85-.61a2.9 2.9 0 0 1 2.04-.4c.64.11 1.13.42 1.47.94.3.47.46 1.07.47 1.79a744.58 744.58 0 0 1-.02 5.23h-2.28l-.01-.02v-3.85c0-.33-.02-.65-.05-.95a1.8 1.8 0 0 0-.2-.74.8.8 0 0 0-.59-.38c-.5-.08-.97 0-1.4.26l-.06.03c-.1.06-.18.1-.22.14a.04.04 0 0 0-.02.03v5.45c0 .02 0 .03-.02.03h-2.27c-.01 0-.02-.01-.02-.03v-7.89c0-.02 0-.08.02-.08h2.27c.02 0 .02.07.02.08v.96ZM50 27.4v-.7a4.82 4.82 0 0 0-.55-1.91 3 3 0 0 0-2.09-1.65 6.16 6.16 0 0 0-1.85-.1c-.98.1-1.79.45-2.41 1.07-.64.64-1 1.46-1.08 2.48-.06.79.02 1.48.25 2.08.25.67.67 1.2 1.26 1.59.5.34 1.11.56 1.82.66.65.1 1.33.12 2.02.05a7.26 7.26 0 0 0 2.24-.62v-1.9c0-.02 0-.03-.02-.03h-.23a4.88 4.88 0 0 1-1.17.62 3.97 3.97 0 0 1-2.12.21c-.5-.08-.9-.26-1.18-.54-.3-.3-.48-.7-.51-1.2 0-.03 0-.04.02-.04h5.56c.01 0 .02 0 .02-.02l.02-.05Zm-3.38-2.76c.22.08.4.24.53.46.14.25.18.5.21.76l.02.11c0 .02 0 .04-.03.04H44.4c-.01 0-.02-.01-.02-.03.01-.25.07-.45.17-.68.16-.36.46-.6.9-.72a1.98 1.98 0 0 1 1.18.06ZM33.29 23h-2.27c-.01 0-.02 0-.02.02v7.96c0 .01 0 .02.02.02h2.27c.01 0 .02 0 .02-.02v-7.96c0-.01 0-.02-.02-.02ZM14.71 36h1.39c1.78-.08 3.54-.27 5.3-.59.9-.16 1.88-.36 2.95-.59l3.05-.7c.83-.19 1.9-.41 3.2-.66 1.51-.3 3.18-.47 5-.5 1.81-.05 3.73.06 5.75.32A134.98 134.98 0 0 1 50 34.76v-.43l-.01-.02c-1.83-.48-3.69-.9-5.56-1.27a57.88 57.88 0 0 0-6.63-.94 33.98 33.98 0 0 0-3.98-.08c-1.92.05-3.84.23-5.75.56l-2.51.45c-2.72.5-5.74.88-9.04 1.14a34.65 34.65 0 0 1-5.29.05c-1.75-.1-3.5-.26-5.23-.49v.45c1.7.6 3.44 1.06 5.2 1.4 1.16.22 2.33.36 3.51.42Z" fill="#303D97"/></svg>