<?xml version='1.0' encoding='utf-8'?>
<!-- by TradeStack -->
<svg width="56" height="56" viewBox="0 0 56 56" xmlns="http://www.w3.org/2000/svg"><path fill="#F0F3FA" d="M0 0h56v56H0z" /><path fill-rule="evenodd" d="M34.73 24c.01-.02.02-.02.03-.02a4.26 4.26 0 0 1 1.96.58h.03l.02-.03v-.03a6.26 6.26 0 0 0-1.92-3.52 84.4 84.4 0 0 0-.57-.55.09.09 0 0 1 .02-.09.1.1 0 0 1 .04-.02c.74-.16 1.5-.52 1.86-1.16v-.06l-.03-.02h-.04c-1.42.53-2.62.1-3.86-.36-.54-.2-1.08-.4-1.66-.52a8.2 8.2 0 0 0-5.55.7c-1.1.54-2.71 1.76-2.12 3.1 1.1 2.51 4.38 2.5 6.67 1.8.25-.08.9-.3 1.94-.68a3.24 3.24 0 0 1 1.28-.16l.02.04v.04l-.04.03-.26.1c-.41.14-.85.3-1.14.6a.18.18 0 0 0-.05.15c0 .03.01.05.03.07.01.03.03.04.05.06 2.11 1.37 3.72 3.2 4.06 5.66a5.05 5.05 0 0 0 .15.65l.05.02.05-.01.03-.04c.87-2 1.14-4.86-1.05-6.26l-.02-.02v-.03l.02-.03Zm-5.1-3.3h-.06c-.4.21-.9.18-1.42.05l-.1-.03c-1.03-.26-2.02-.52-2.8.44-.36.45-.43 1.03.07 1.4a2.1 2.1 0 0 0 1.65.38c.8-.13 1.17-.62 1.12-1.46a.1.1 0 0 1 .02-.06l.03-.03a.1.1 0 0 1 .04 0c.47-.03 1.21-.16 1.5-.57a.08.08 0 0 0 0-.1.09.09 0 0 0-.05-.02Z" fill="#1A212E" /><path d="M26.55 22.4c.38 0 .69-.29.69-.65 0-.36-.31-.65-.69-.65-.38 0-.68.29-.68.65 0 .36.3.66.68.66ZM20.34 27.26v.03l-.03.02a.05.05 0 0 1-.06-.01 3.4 3.4 0 0 1-.77-2.04c-.02-1.23.57-2.15 1.77-2.78.17-.1.34-.15.5-.16.08 0 .15 0 .2.04.07.03.12.08.15.13.43.72 1 1.34 1.7 1.88.23.17.4.37.5.6.02.07.02.14 0 .2a.3.3 0 0 1-.14.17c-.18.1-.39.14-.63.14h-2.88c-.35 0-.5.18-.48.54.02.41.08.82.17 1.24ZM27.65 28.92h.06a.05.05 0 0 1 0 .07 2.8 2.8 0 0 1-1.1.92.1.1 0 0 0 0 .12c.4.61.63 1.34.7 2.17a18 18 0 0 1-.34 5.19 33.78 33.78 0 0 1-2.12 6.6 16.76 16.76 0 0 1-9.79-5.7.24.24 0 0 1-.04-.27c.91-1.9 2.1-3.64 3.57-5.18 1.63-1.72 4.19-3.62 6.7-3.57.8.02 1.64-.03 2.36-.35ZM32.51 43.66c.39-1.43.62-2.58.7-3.45.1-1.21.23-2.34.36-3.4.23-1.8 1.27-4.33 3.07-5.16 1.96-.9 2.33 2.62 2.36 3.66a5.67 5.67 0 0 1-1.36 3.91l.01.04c0 .02.02.03.03.03l.04.01c.26 0 .73-.4.97-.56a.1.1 0 0 1 .1 0 .1.1 0 0 1 .05.03.1.1 0 0 1 0 .06l-.26 1.76a.46.46 0 0 1-.17.3 16.44 16.44 0 0 1-5.88 2.82l-.02-.02v-.03Z" fill="#1A212E" /><path fill-rule="evenodd" d="M28 44a16 16 0 1 0 0-32 16 16 0 0 0 0 32Zm0 1a17 17 0 1 0 0-34 17 17 0 0 0 0 34Z" fill="#1A212E" /></svg>