<?xml version='1.0' encoding='utf-8'?>
<!-- by TradeStack -->
<svg width="56" height="56" viewBox="0 0 56 56" xmlns="http://www.w3.org/2000/svg"><path fill="#F0F3FA" d="M0 0h56v56H0z" /><path d="M44.95 24a.38.38 0 0 0 .05-.19c0-.38-.37-.81-.77-.81-.37 0-.63.46-.83.75a38.26 38.26 0 0 0-2.92 6.29L41.4 32c.68-1.96 1.99-5.49 3.54-8Z" fill="url(#alntg5z4j)" /><path d="M39.94 32h1.47c-1.16-2.53-2.01-4.25-2.86-6.44-.18-.47-.48-.56-.92-.56-.4 0-.63.26-.63.56 0 .11.1.42.14.54a40.8 40.8 0 0 0 2.8 5.9Z" fill="#F91A65" /><path fill-rule="evenodd" d="M16 26.22A3.03 3.03 0 0 1 18.48 25 3.49 3.49 0 0 1 22 28.47 3.55 3.55 0 0 1 18.48 32c-1.73.05-3.48-1.25-3.48-3.16v-6.2c0-.36.2-.64.5-.64.26 0 .5.17.5.45v3.77Zm5 2.28a2.5 2.5 0 1 1-5 0 2.5 2.5 0 0 1 5 0Zm-7-1A4.41 4.41 0 0 0 9.5 23 4.46 4.46 0 0 0 5 27.5C5 30.03 6.81 32 9.52 32A4.31 4.31 0 0 0 14 27.5ZM9.5 31a3.5 3.5 0 1 0 0-7 3.5 3.5 0 0 0 0 7Zm16.53-5c.85 0 1.6.17 2.3.6.33-.32.35-.81 0-1.05A4.56 4.56 0 0 0 25.8 25c-.88 0-2.8.27-2.8 1.92 0 .81.42 1.39 1.14 1.61.6.19 1.07.27 1.6.35.43.07.88.15 1.46.3.55.13.8.43.8.78C28 31 26.77 31 26.03 31c-.85 0-1.7-.2-2.48-.56-.17-.08-.28-.07-.37.1-.06.11-.18.55-.18.7.87.54 2.01.76 3.03.76 1.3 0 2.97-.45 2.97-2.04 0-1.61-2.1-1.88-3.38-2.05l-.15-.02c-.76-.1-1.47-.33-1.47-.97 0-.9 1.38-.92 2.03-.92Zm22.57 1.8c0-.96-.59-1.49-1.43-1.6-.75-.1-1.44.01-2.17.2.1-.82.71-1.4 1.22-1.4h.07c.82 0 1.61 0 2.31.38.85.46 1.4 1.13 1.4 2.17V32h-3.44C45.1 32 44 31.3 44 29.84c0-1.84 1.45-2.04 3.1-2.04h1.5Zm0 1.2h-2.04c-.62.03-1.16.26-1.16.92 0 .67.64.88 1.16.88h2.04V29Zm-17.1.33c.23.9 1.2 1.47 2.19 1.47 1.06 0 1.93-.55 2.72-1.2.08.16.17.3.26.45l.33.58A5.23 5.23 0 0 1 33.56 32 3.42 3.42 0 0 1 30 28.64 3.43 3.43 0 0 1 33.4 25a3 3 0 0 1 1.86.61c.48.37.75.96.75 1.55 0 .58-.23 1.16-.74 1.49-1.05.66-2.54.68-3.76.68Zm2.44-1.22a.9.9 0 0 0 .66-.83c0-.74-.5-1.06-1.13-1.08-1.21-.03-2.07.96-2.07 2.1 0 0 2.12-.07 2.54-.2Z" fill="#F91A65" /><defs><linearGradient id="alntg5z4j" x1="42.75" y1="23" x2="40.51" y2="32" gradientUnits="userSpaceOnUse"><stop offset=".32" stop-color="#F91A65" /><stop offset=".89" stop-color="#A2134C" /></linearGradient></defs></svg>