<!-- by TradeStack --><svg width="56" height="56" viewBox="0 0 56 56" xmlns="http://www.w3.org/2000/svg"><path fill="#F0F3FA" d="M0 0h56v56H0z"/><path d="M12 30.4a15.4 15.4 0 0 0 4.69 11.04A16.17 16.17 0 0 0 28 46c4.3 0 8.28-1.62 11.31-4.56a15.32 15.32 0 0 0 0-22.09c-.35-.3-.79-.52-1.27-.52s-.92.17-1.27.52l-5 4.91a1.7 1.7 0 0 0 0 2.46 5.16 5.16 0 0 1 0 7.36 5.46 5.46 0 0 1-8.7-1.68 5.06 5.06 0 0 1 1.16-5.68l10.08-9.82.13-.13c.05-.05.1-.09.1-.13.04-.1.12-.18.17-.31a.8.8 0 0 0 .08-.3c0-.05 0-.14.05-.18v-.35c0-.05 0-.13-.05-.18-.04-.09-.04-.22-.08-.3-.05-.1-.1-.22-.18-.31-.04-.05-.09-.09-.09-.13l-.13-.13-.13-.14c-.04-.04-.09-.08-.13-.08l-.3-.18a.83.83 0 0 0-.36-.09c-.04 0-.13 0-.17-.04h-.18c-.4 0-.79.13-1.14.4-.04.04-.09.04-.09.08l-10.08 9.82a8.54 8.54 0 0 0 0 12.27 9.08 9.08 0 0 0 12.58 0 8.54 8.54 0 0 0 1.14-10.91l2.54-2.5a11.8 11.8 0 0 1 2.5 7.27c0 3.25-1.31 6.27-3.64 8.6a12.62 12.62 0 0 1-8.8 3.54c-3.34 0-6.45-1.27-8.82-3.55a11.83 11.83 0 0 1-3.63-8.59c0-3.24 1.31-6.26 3.63-8.59l10.09-9.81c.7-.66.7-1.76 0-2.46a1.83 1.83 0 0 0-2.5 0l-10.09 9.82A15.43 15.43 0 0 0 12 30.4Z" fill="#1D4C8B"/></svg>