<?xml version='1.0' encoding='utf-8'?>
<!-- by TradeStack -->
<svg width="56" height="56" viewBox="0 0 56 56" xmlns="http://www.w3.org/2000/svg"><path fill="#F0F3FA" d="M0 0h56v56H0z" /><path d="M15.28 26.82c.99-1.64 1.09-3.06 1.01-3.82h23.25c-.07.76.03 2.18 1.02 3.82a11.2 11.2 0 0 1 1.77 5.56c0 1.5-.2 2.83-1.66 4.66H15.45a6.59 6.59 0 0 1-1.65-4.66c0-1.5.24-3.51 1.48-5.56Zm10.45 2.97a3.24 3.24 0 0 0 1.87-3c0-2.25-2.22-2.79-3.56-2.79-1.34 0-3.95.83-3.95 3.97 0 .42.23 1.39 1.06 1.82a3.49 3.49 0 0 0-2.15 3.3c.06.97.84 2.91 3.46 2.91 3.27 0 4.5-1.94 4.5-3.8 0-1.5-.82-2.28-1.23-2.41Zm-3.31-1.97c0 .95.79 1.19 1.19 1.19 1.01 0 1.5-.7 1.5-1.59 0-.88-.3-1.4-1.09-1.4-.78 0-1.6.62-1.6 1.8Zm-.97 5c0 1.06.88 1.32 1.32 1.32 1.14 0 1.68-.78 1.68-1.77 0-.98-.34-1.57-1.21-1.57-.88 0-1.8.7-1.8 2.02Zm13.68-3.03a3.24 3.24 0 0 0 1.87-3c0-2.25-2.22-2.79-3.56-2.79-1.33 0-3.94.83-3.94 3.97 0 .42.22 1.39 1.05 1.82a3.49 3.49 0 0 0-2.15 3.3c.06.97.84 2.91 3.46 2.91 3.27 0 4.5-1.94 4.5-3.8 0-1.5-.82-2.28-1.23-2.41Zm-3.31-1.97c0 .95.8 1.19 1.19 1.19 1.01 0 1.5-.7 1.5-1.59 0-.88-.3-1.4-1.08-1.4-.79 0-1.61.62-1.61 1.8Zm-.97 5c0 1.06.88 1.32 1.32 1.32 1.14 0 1.68-.78 1.68-1.77 0-.98-.33-1.57-1.21-1.57-.88 0-1.8.7-1.8 2.02Z" fill="#BC133E" /><path fill-rule="evenodd" d="M16.25 21h23.23c.21-.93.88-3.07 1.94-4.21L37.14 13c-.66.4-2.52 1.2-4.7 1.2a8.87 8.87 0 0 1-4.4-1.07c-.65.36-2.5 1.07-4.7 1.07s-3.83-.71-4.37-1.07l-4.39 3.66A8.1 8.1 0 0 1 16.25 21Zm1.16-3.02c0-.69.6-1.25 1.33-1.25.73 0 1.33.56 1.33 1.25v1.28c0 .7-.6 1.25-1.33 1.25-.73 0-1.33-.56-1.33-1.25v-1.28Zm.71.08c0-.32.28-.58.62-.58.34 0 .61.26.61.58v1.23c0 .32-.27.58-.61.58-.34 0-.62-.26-.62-.58v-1.23ZM22 16.73c-.74 0-1.33.56-1.33 1.25v1.28c0 .7.6 1.25 1.33 1.25.73 0 1.32-.56 1.32-1.25v-.1h-.7v.13c0 .32-.28.58-.62.58-.34 0-.62-.26-.62-.58v-1.23c0-.32.28-.58.62-.58.34 0 .61.26.61.58v.05h.71v-.13c0-.69-.6-1.25-1.32-1.25Zm2.53.14h-.83v.74h.83v2.81h.8v-2.8h.83v-.75h-1.63Zm2.79.02-1.2 3.5h.79l.16-.53h1.12l.15.53h.86l-1.2-3.5h-.68Zm.68 2.36h-.74l.37-1.25.37 1.25Zm2.76-2.45c-.76 0-1.37.58-1.37 1.3v1.1c0 .71.61 1.3 1.37 1.3.77 0 1.38-.59 1.38-1.3v-.55h-1.19v-.01h-.15v.64h.53v.02c0 .3-.25.54-.57.54-.31 0-.57-.24-.57-.54V18c0-.3.26-.54.57-.54.32 0 .57.24.57.54v.02h.8a1.35 1.35 0 0 0-1.37-1.2Zm1.84 1.3c0-.72.61-1.3 1.37-1.3.77 0 1.38.58 1.38 1.3v1.1c0 .71-.61 1.3-1.38 1.3-.76 0-1.37-.59-1.37-1.3v-1.1Zm.8-.11c0-.3.26-.54.57-.54.32 0 .57.24.57.54v1.31c0 .3-.25.54-.57.54-.31 0-.56-.24-.56-.54V18ZM36 16.88v3.53h.72v-1.93l1.19 1.93h.74v-3.53h-.74v1.91l-1.2-1.91h-.7Z" fill="#002C77" /><path fill-rule="evenodd" d="m19.5 43.32-4.96-6.1c-1.17-1.46-1.53-4-1.53-5.8 0-1.65.69-3.26 1.33-4.75l.2-.49a8 8 0 0 0 .88-3.96c0-1.75-.87-3.86-2.42-5.03L18.37 12h1.02c.55.4 2.05 1.18 3.58 1.18 1.53 0 3.88-.79 4.86-1.18h.6c.57.4 2.2 1.18 4.08 1.18 1.87 0 3.45-.79 4-1.18h1.27l4.9 4.5.99 1.4c-.79.7-2.36 2.8-2.36 5.65 0 1.62.56 2.83 1.16 4.14C43.2 29.27 44 31 44 33.77c0 1.9-.92 3.75-1.38 4.45L38.12 44H21.19l-.46-.68H19.5ZM16.1 21.5c-.15-1.57-1.43-3.73-2.02-4.55l4.8-4.55c.44.4 1.95 1.21 4.45 1.21s4.18-.8 4.71-1.2c.56.4 2.23 1.2 4.4 1.2 2.16 0 4.04-.8 4.71-1.2l4.77 4.43c-1.38 2.14-1.84 4-1.9 4.66H16.1Zm-.6 16c-.52-.46-1.65-2-2-4.53-.33-2.5.47-4.15 1.1-5.45.16-.33.32-.65.43-.95.57-1.45 1-3.01.98-4.07h23.85c-.03.55.06 1.82.66 3.12l.32.7c.78 1.65 1.9 4.03 1.9 6.32 0 2.11-1.2 4.12-1.8 4.86H15.5Zm.53.5 3.58 5h16.98l3.7-5H16.04Z" fill="#231F20" /><path fill-rule="evenodd" d="m23.52 40.4.4-.08c.04.11.14.33.34.33.24 0 .34-.1.34-.27 0-.14-.24-.21-.38-.25l-.05-.01h-.03c-.15-.05-.52-.15-.52-.58 0-.46.5-.54.64-.54.16 0 .58 0 .81.52l-.37.14c-.04-.1-.16-.3-.39-.3-.28 0-.25.28-.14.34l.12.04c.25.08.78.24.78.64 0 .49-.44.62-.81.62a.76.76 0 0 1-.74-.6ZM20 39v2h.44v-.7h.34l.26.7h.37l-.26-.8c.2-.11.35-.32.35-.55 0-.36-.32-.65-.72-.65H20Zm.37.37h.4c.18 0 .34.14.34.32 0 .17-.16.31-.35.31h-.39v-.63ZM29.2 39v2h.44v-.7h.34l.26.7h.37l-.26-.8c.2-.11.34-.32.34-.55 0-.36-.31-.65-.7-.65h-.8Zm.37.37h.4c.18 0 .34.14.34.32 0 .17-.16.31-.35.31h-.4v-.63ZM22 41v-2h1.4v.41h-.95v.4h.78v.42h-.78v.42h.95V41H22Zm11-2v2h1.4v-.35h-.95v-.42h.78v-.42h-.78v-.4h.95V39H33Zm1.85 1.32-.41.08c.06.33.37.6.74.6s.82-.13.82-.62c0-.4-.53-.56-.79-.64l-.11-.04c-.12-.06-.14-.34.14-.34.23 0 .35.2.38.3l.38-.14c-.24-.52-.66-.52-.8-.52h-.02c-.14 0-.64.08-.64.54 0 .43.38.53.52.57l.04.01.05.01c.13.04.37.1.37.25 0 .16-.1.27-.34.27-.2 0-.3-.22-.33-.33Zm-9.5-.65c0-.37.36-.67.79-.67.43 0 .78.3.78.67v.66c0 .37-.35.67-.78.67-.43 0-.79-.3-.79-.67v-.66Zm.47-.01c0-.15.15-.27.32-.27s.31.12.31.27v.68c0 .15-.14.27-.31.27-.17 0-.32-.12-.32-.27v-.68Zm1.34-.66v1.31c0 .38.35.69.79.69.43 0 .78-.3.78-.69V39h-.47v1.33c0 .15-.14.28-.31.28-.18 0-.32-.13-.32-.28V39h-.47Zm4.63 0c-.44 0-.79.3-.79.67v.66c0 .37.35.67.79.67.43 0 .78-.3.78-.67v-.1h-.47v.11c0 .15-.14.27-.31.27-.18 0-.32-.12-.32-.27v-.68c0-.15.14-.27.32-.27.17 0 .3.12.3.27v.05h.48v-.04c0-.37-.35-.67-.78-.67Z" fill="#231F20" /></svg>