<!-- by TradeStack --><svg width="56" height="56" viewBox="0 0 56 56" xmlns="http://www.w3.org/2000/svg"><path fill="#F0F3FA" d="M0 0h56v56H0z"/><path d="M45 28a17 17 0 1 1-34 0 17 17 0 0 1 34 0Zm-7.65-7.46 2.5-2.47a.13.13 0 0 0 0-.18 15.8 15.8 0 0 0-11.15-5.47.07.07 0 0 0-.01.11l8.54 8.01c.04.04.08.04.12 0ZM15.01 36.3l3.33-3.4c.1-.1.18-.1.27 0l10.63 10.52c.04.03.08.05.14.05a14.56 14.56 0 0 0 3.14-.62.1.1 0 0 0 .02-.09.1.1 0 0 0-.02-.04L20.44 30.95c-.09-.09-.09-.17 0-.26l4.18-4.3a.1.1 0 0 1 .07-.03.1.1 0 0 1 .08.03l.93.88c.04.05.04.09 0 .14l-3.04 3.42a.16.16 0 0 0-.04.1c0 .05.02.09.05.12L34.21 42.2c.05.05.1.05.16.02l2.17-1.2a.09.09 0 0 0 .04-.06.08.08 0 0 0-.02-.07l-3.38-3.44c-.08-.08-.08-.16 0-.24l10.26-10.22a.17.17 0 0 0 .05-.13 13.2 13.2 0 0 0-.56-3.2c-.02-.06-.06-.07-.1-.02L31.1 35.36c-.04.04-.08.04-.12 0l-4.26-4.2a.11.11 0 0 1 0-.15l.86-.84c.04-.05.1-.05.14 0l3.14 3.04a.16.16 0 0 0 .23 0L42.19 22a.24.24 0 0 0 .05-.26 14.87 14.87 0 0 0-1.38-2.48.13.13 0 0 0-.16.03l-3.32 3.5c-.03.04-.06.04-.1.01L26.52 12.58a.32.32 0 0 0-.25-.08 18.34 18.34 0 0 0-2.85.6.08.08 0 0 0-.02.09c0 .01 0 .02.02.03L35.3 24.68c.05.05.06.11 0 .17l-4.15 4.4c-.05.05-.1.05-.16 0l-.88-.89a.11.11 0 0 1 0-.15l3.16-3.35a.08.08 0 0 0 0-.11L22.18 14c-.17-.17-.27-.36-.55-.23a18.16 18.16 0 0 0-2.35 1.3.1.1 0 0 0 0 .09c0 .01 0 .03.02.04l3.28 3.33c.04.04.04.08 0 .12l-9.89 9.85c-.24.24-.3.2-.26.55a20.15 20.15 0 0 0 .55 3.1.06.06 0 0 0 .06.01l.03-.01 11.41-11.63c.04-.04.07-.04.11 0l4.33 4.26a.1.1 0 0 1 .03.07.1.1 0 0 1-.03.08l-.9.84a.11.11 0 0 1-.15 0l-3.21-3.13a.07.07 0 0 0-.1 0L13.6 33.62a.18.18 0 0 0-.04.19c.35.86.77 1.68 1.26 2.48.05.09.12.1.2.02Zm-2.46-9.66 8-8.06c.05-.05.05-.1 0-.14l-2.45-2.38c-.05-.05-.1-.05-.15 0a15.74 15.74 0 0 0-5.48 10.57.05.05 0 0 0 .06.03l.02-.02ZM43.41 29l-8.26 8.21a.13.13 0 0 0-.04.1.13.13 0 0 0 .04.09l2.7 2.6a.03.03 0 0 0 .04.01 15.76 15.76 0 0 0 5.63-11 .07.07 0 0 0-.11-.01ZM27.17 43.44l-8.6-8.32a.1.1 0 0 0-.14 0l-2.55 2.54c-.04.04-.04.08 0 .12a15.74 15.74 0 0 0 11.27 5.76.06.06 0 0 0 .02-.1Z" fill="#916700" fill-opacity=".97"/></svg>