<?xml version='1.0' encoding='utf-8'?>
<!-- by TradeStack -->
<svg width="56" height="56" viewBox="0 0 56 56" xmlns="http://www.w3.org/2000/svg"><path fill="#F0F3FA" d="M0 0h56v56H0z" /><path d="M37 36V20h6.8c2.56 0 5.56 1.03 5.56 4.05 0 1.8-1.34 3.1-3.05 3.47v.15c2.1.1 3.69 1.76 3.69 3.85 0 3.1-2.95 4.48-5.68 4.48H37Zm4-3h2.38c1.18 0 2.62-.53 2.62-1.92 0-1.36-1.32-2.08-2.55-2.08H41v4Zm0-6h2.13c1.08 0 2.21-.78 2.21-2 0-1.2-1.08-2-2.15-2H41v4ZM22 36V20h4v6.77h.21L31.35 20h4.55l-5.66 7.14L36 36h-4.62l-3.97-6.29L26 31.66V36h-4ZM21 28c0 4.43-2.92 8-7.5 8C8.9 36 6 32.42 6 28c0-4.43 2.9-8 7.5-8 4.58 0 7.5 3.57 7.5 8Zm-4 0c0-2.3-.88-5-3.5-5-2.64 0-3.5 2.7-3.5 5s.86 5 3.5 5c2.62 0 3.5-2.7 3.5-5Z" /></svg>