<!-- by TradeStack --><svg width="56" height="56" viewBox="0 0 56 56" xmlns="http://www.w3.org/2000/svg"><path fill="#006C54" d="M0 0h56v56H0z"/><path fill-rule="evenodd" d="M11.9 19.07a10.16 10.16 0 0 0-5.4 5.29c-.3.64-.46 1.3-.5 1.97-.04.82.15 1.44.57 1.85.58.57 1.35.62 2.3.16a10.9 10.9 0 0 0 3.57-2.79 6.85 6.85 0 0 0 1.8-4.05c.03-.63-.28-1.05-.94-1.25-.28-.09-.4-.28-.4-.56.02-.28-.08-.48-.3-.6a.77.77 0 0 0-.7-.02Zm-3.1 5.17c-.02.25-.09.27-.21.05-.37-.61-.07-1.43.89-2.44a7.24 7.24 0 0 1 2.52-1.7c.03-.01.04-.03.03-.07l-.03-.06c-.03-.06-.08-.08-.15-.06a9.27 9.27 0 0 0-4.54 3.82c-.92 1.47-1 2.68-.24 3.62.43.54 1.42.32 2.95-.65l.1-.06a8.29 8.29 0 0 0 2.92-3.04c.3-.55.46-1.1.47-1.63.02-.72-.28-1.1-.9-1.16-.8-.07-1.56.2-2.28.82-.96.83-1.47 1.69-1.53 2.56Zm8.38 2.6c.19-.2.26-.16.22.1l-.03.2c-.17.95-.04 1.57.39 1.84.4.25 1 .24 1.82-.03.85-.28 1.28-.67 1.29-1.16 0-.15-.06-.2-.2-.14l-.4.17c-.76.33-1.33.5-1.71.51-.46.02-.67-.2-.62-.65.19-1.53 1.14-3.08 2.87-4.63 1.08-.97 1.58-1.72 1.5-2.24-.03-.27-.17-.33-.4-.19-.71.44-1.49 1.39-2.34 2.86-.63 1.1-1.69 2.14-3.17 3.14-.15.1-.29.1-.43.04-.13-.05-.17-.15-.12-.27.34-.9.96-1.61 1.88-2.15a.16.16 0 0 1 .17 0c.1.06.16.16.17.29.02.2.12.25.3.16a.82.82 0 0 0 .5-.67c.04-.39-.14-.57-.54-.55-.78.03-1.43.4-1.96 1.1a15.95 15.95 0 0 1-2.77 2.84c-.14.1-.2.08-.16-.1.44-2.05 1.77-4.2 4-6.46.04-.04.07-.1.07-.16 0-.3-.22-.35-.65-.17a.46.46 0 0 0-.13.08 13.26 13.26 0 0 0-3.77 5.95c-.17.53-.22 1.1-.14 1.7.04.26.17.33.42.2.5-.27.98-.7 1.43-1.27.05-.07.13-.1.22-.08.1.02.15.07.17.16l.06.22c.06.26.23.36.49.28.6-.17 1.12-.48 1.57-.93Zm3.4-3.87c.01.02.03.02.04 0l1.39-1.68v-.05l-.02-.02c-.2-.15-.52.04-.97.58l-.1.11c-.44.54-.56.89-.36 1.05l.01.01Zm29.41 1.84c.02-.04 0-.07-.04-.09l-.66-.2c-.05 0-.08.01-.1.06l-.07.24c-.14.47-.1.74.15.81l.07.03c.24.07.43-.13.58-.6l.07-.25ZM44.72 26l.06.06v.03c-.5.42-.84.87-1 1.35-.22.62.02 1.02.72 1.2.53.13 1.33.03 2.4-.3h.06a6.15 6.15 0 0 0 2.85-1.73c.13-.14.16-.3.1-.5-.02-.05-.06-.07-.11-.03-.74.51-1.59.97-2.55 1.4-1.35.58-2.23.7-2.64.36-.16-.14-.17-.28-.02-.43l1.15-1.13a.67.67 0 0 0 .2-.63c-.06-.29-.05-.59.03-.9.02-.1-.01-.19-.09-.25-.19-.16-.37-.16-.54 0-.17.16-.33.34-.49.53-.5.63-1.16.92-1.99.88-.18 0-.25-.1-.2-.27.12-.39.18-.79.18-1.2 0-.4-.2-.56-.59-.5a3 3 0 0 0-2.17 1.47c-.64 1.06-.87 1.94-.69 2.65.1.34.34.52.74.51.87 0 1.6-.6 2.17-1.79.04-.08.11-.12.2-.1.7.15 1.4-.09 2.1-.7.04-.03.08-.03.12.02Zm-3 .23c-.15-.33-.12-.7.08-1.1.18-.36.1-.43-.25-.23a3.14 3.14 0 0 0-1.47 2.24c-.03.19 0 .35.1.5.12.17.28.2.46.09a2.7 2.7 0 0 0 1.08-1.25.3.3 0 0 0 0-.25Zm-13.8-.34c.16-.04.2.01.1.15-.23.36-.39.77-.48 1.23-.06.3.01.53.22.7.21.16.46.19.74.08.3-.12.59-.32.84-.58.13-.14.2-.11.23.07l.05.53c.04.43.27.58.7.44 1.11-.38 2.33-1.44 3.63-3.2.08-.09.14-.09.2.01l.04.06c.02.02.02.04 0 .06-.23.44-.46.87-.66 1.3-.31.64-.31 1.17 0 1.6.33.45.86.51 1.58.18.1-.05.18-.03.24.06.42.58.98.66 1.69.25a5.19 5.19 0 0 0 2.52-3.37c.06-.25.06-.5-.02-.74a.37.37 0 0 0-.23-.25c-.3-.11-.65-.04-1.02.21-.12.09-.21.15-.28.18-.15.09-.19.05-.12-.1.97-2.28 1.84-3.75 2.6-4.4.17-.15.17-.3 0-.46-.13-.12-.27-.14-.42-.07-.42.2-.74.54-.97 1a162.93 162.93 0 0 1-3.31 6.58.38.38 0 0 1-.2.18 4.2 4.2 0 0 0-.75.41.55.55 0 0 1-.52.08c-.2-.07-.28-.21-.26-.42.1-.93.5-1.65 1.23-2.16.16-.11.2-.25.1-.43l-.56-1.05a.37.37 0 0 0-.32-.2.37.37 0 0 0-.35.15l-.25.33c-1.2 1.63-2.2 2.7-3.02 3.2a.44.44 0 0 1-.32.07c-.2-.03-.26-.14-.2-.32a7.2 7.2 0 0 1 1.66-2.7c.43-.46.33-.67-.3-.63l-.8.04a3 3 0 0 0-1.43.57c-.4.25-.72.41-.94.49-.38.12-.77.2-1.17.23-.13.02-.17-.03-.11-.15.93-1.93 2.03-3.6 3.29-5 .24-.26.24-.5 0-.71-.25-.23-.48-.21-.69.06-.6.78-1.37 2.06-2.31 3.84-.43.81-.75 1.41-.98 1.8-.11.2-.29.3-.52.31l-1.39.03c-.2 0-.25-.09-.17-.26a13.2 13.2 0 0 1 2.52-3.68c.27-.28.32-.59.13-.93a.67.67 0 0 0-.13-.18c-.27-.25-.5-.22-.7.1a68.1 68.1 0 0 0-2.6 4.62c-.14.28-.36.37-.66.26l-.4-.15c-.37-.13-.47-.36-.32-.7.16-.36.22-.56.19-.6-.13-.13-.27-.14-.42-.03-.56.39-.74.86-.55 1.43.18.56.6.88 1.23.97.2.03.24.13.15.3-.5.88-.9 1.7-1.2 2.5a.23.23 0 0 0 0 .17c.05.14.16.21.32.2.12-.01.2-.07.26-.18l1.47-2.79c.03-.06.08-.09.15-.1.65-.01 1.33-.06 2.02-.13.05 0 .06.02.04.06-.44.94-.77 1.78-.99 2.53-.2.65-.28 1.36-.27 2.15 0 .1.06.16.16.16h.1c.16 0 .25-.08.26-.24.17-1.64.64-3.16 1.4-4.56.06-.12.16-.2.3-.22l.95-.24Zm2.87-1.2c.19.19-.2.88-.88 1.54-.68.67-1.38 1.05-1.57.87-.2-.2.2-.88.88-1.54.68-.67 1.38-1.06 1.57-.87Zm8.01.8c0 .59-.32 1.2-.94 1.85-.6.62-1.19.98-1.78 1.08a.22.22 0 0 1-.2-.07.62.62 0 0 1-.15-.55c.02-.13.09-.16.21-.1.23.11.43.05.6-.19l.24-.34c.76-1.12 1.36-1.73 1.83-1.83.13-.03.2.02.19.15Zm-23.65 5.13c.87.92 2.69 1.4 5.46 1.46a99.7 99.7 0 0 0 13.9-.72c2.12-.26 4.16-.36 6.12-.3 3.2.1 5.6.9 7.22 2.4.12.11.2.24.27.38.05.13.04.25-.03.36-.04.05-.07.05-.11 0a7.61 7.61 0 0 0-4.1-2.3 15.38 15.38 0 0 0-3.01-.41c-2.13-.06-4.13.04-6 .29-6.71.9-12.1 1.22-16.14.97-2.2-.14-3.64-.66-4.32-1.56-.22-.3-.29-.63-.2-1 .08-.4.33-.62.74-.64.18 0 .25.08.21.25l-.1.48c-.03.13 0 .25.1.34ZM37.5 35v3h.94v-1.71L40.12 38H41v-3h-.88v1.58L38.57 35H37.5ZM29 35v3h2.61c.28-.02.83-.2.83-.78 0-.57-.28-.77-.42-.8.1-.1.3-.41.3-.72 0-.39-.21-.7-.88-.7H29Zm1 .7h1.18c.12 0 .22.1.22.22s-.1.22-.22.22H30v-.45Zm0 1.1h1.31c.14 0 .25.11.25.25s-.11.25-.25.25H30v-.5Zm3.02 1.2h1.07l.19-.6h1.25l.16.6h1.15l-1.28-3h-1.3l-1.24 3Zm2.35-1.17-.27-1.01h-.35l-.3 1.01h.92ZM42 35v3h1v-.83l.61-.44.94 1.27h1.21l-1.41-1.8L46 35h-1.37L43 36.16V35h-1Z" fill="#FEFFFF"/></svg>