<!-- by TradeStack --><svg width="56" height="56" viewBox="0 0 56 56" fill="none" xmlns="http://www.w3.org/2000/svg">
<rect width="56" height="56" fill="#F0F3FA"/>
<path fill-rule="evenodd" clip-rule="evenodd" d="M28 24C30.2091 24 32 25.7909 32 28C32 30.2091 30.2091 32 28 32C25.7909 32 24 30.2091 24 28C24 25.7909 25.7909 24 28 24Z" fill="#031798"/>
<path fill-rule="evenodd" clip-rule="evenodd" d="M20 25C21.6569 25 23 26.3431 23 28C23 29.6569 21.6569 31 20 31C18.3431 31 17 29.6569 17 28C17 26.3431 18.3431 25 20 25Z" fill="#031798"/>
<path fill-rule="evenodd" clip-rule="evenodd" d="M36 25C37.6569 25 39 26.3431 39 28C39 29.6569 37.6569 31 36 31C34.3431 31 33 29.6569 33 28C33 26.3431 34.3431 25 36 25Z" fill="#031798"/>
<path fill-rule="evenodd" clip-rule="evenodd" d="M13 26C14.1045 26 15 26.8955 15 28C15 29.1045 14.1045 30 13 30C11.8955 30 11 29.1045 11 28C11 26.8955 11.8955 26 13 26Z" fill="#031798"/>
<path fill-rule="evenodd" clip-rule="evenodd" d="M43 26C44.1045 26 45 26.8955 45 28C45 29.1045 44.1045 30 43 30C41.8955 30 41 29.1045 41 28C41 26.8955 41.8955 26 43 26Z" fill="#031798"/>
<path fill-rule="evenodd" clip-rule="evenodd" d="M28 17C29.6569 17 31 18.3431 31 20C31 21.6569 29.6569 23 28 23C26.3431 23 25 21.6569 25 20C25 18.3431 26.3431 17 28 17Z" fill="#5DB5C5"/>
<path fill-rule="evenodd" clip-rule="evenodd" d="M28 33C29.6569 33 31 34.3431 31 36C31 37.6569 29.6569 39 28 39C26.3431 39 25 37.6569 25 36C25 34.3431 26.3431 33 28 33Z" fill="#5DB5C5"/>
<path fill-rule="evenodd" clip-rule="evenodd" d="M20 34C21.1045 34 22 34.8955 22 36C22 37.1045 21.1045 38 20 38C18.8955 38 18 37.1045 18 36C18 34.8955 18.8955 34 20 34Z" fill="#70C0E6"/>
<path fill-rule="evenodd" clip-rule="evenodd" d="M36 34C37.1045 34 38 34.8955 38 36C38 37.1045 37.1045 38 36 38C34.8955 38 34 37.1045 34 36C34 34.8955 34.8955 34 36 34Z" fill="#70C0E6"/>
<path fill-rule="evenodd" clip-rule="evenodd" d="M20 18C21.1045 18 22 18.8955 22 20C22 21.1045 21.1045 22 20 22C18.8955 22 18 21.1045 18 20C18 18.8955 18.8955 18 20 18Z" fill="#70C0E6"/>
<path fill-rule="evenodd" clip-rule="evenodd" d="M36 18C37.1045 18 38 18.8955 38 20C38 21.1045 37.1045 22 36 22C34.8955 22 34 21.1045 34 20C34 18.8955 34.8955 18 36 18Z" fill="#70C0E6"/>
<path fill-rule="evenodd" clip-rule="evenodd" d="M13 35C13.5522 35 14 35.4478 14 36C14 36.5522 13.5522 37 13 37C12.4478 37 12 36.5522 12 36C12 35.4478 12.4478 35 13 35Z" fill="#70C0E6"/>
<path fill-rule="evenodd" clip-rule="evenodd" d="M43 35C43.5522 35 44 35.4478 44 36C44 36.5522 43.5522 37 43 37C42.4478 37 42 36.5522 42 36C42 35.4478 42.4478 35 43 35Z" fill="#70C0E6"/>
<path fill-rule="evenodd" clip-rule="evenodd" d="M13 19C13.5522 19 14 19.4478 14 20C14 20.5522 13.5522 21 13 21C12.4478 21 12 20.5522 12 20C12 19.4478 12.4478 19 13 19Z" fill="#70C0E6"/>
<path fill-rule="evenodd" clip-rule="evenodd" d="M43 19C43.5522 19 44 19.4478 44 20C44 20.5522 43.5522 21 43 21C42.4478 21 42 20.5522 42 20C42 19.4478 42.4478 19 43 19Z" fill="#70C0E6"/>
<path fill-rule="evenodd" clip-rule="evenodd" d="M7 27C7.55222 27 8 27.4478 8 28C8 28.5522 7.55222 29 7 29C6.44778 29 6 28.5522 6 28C6 27.4478 6.44778 27 7 27Z" fill="#031798"/>
<path fill-rule="evenodd" clip-rule="evenodd" d="M49 27C49.5522 27 50 27.4478 50 28C50 28.5522 49.5522 29 49 29C48.4478 29 48 28.5522 48 28C48 27.4478 48.4478 27 49 27Z" fill="#031798"/>
<path fill-rule="evenodd" clip-rule="evenodd" d="M28 11C28.5522 11 29 11.4478 29 12C29 12.5522 28.5522 13 28 13C27.4478 13 27 12.5522 27 12C27 11.4478 27.4478 11 28 11Z" fill="#5DB5C5"/>
<path fill-rule="evenodd" clip-rule="evenodd" d="M28 43C28.5522 43 29 43.4478 29 44C29 44.5522 28.5522 45 28 45C27.4478 45 27 44.5522 27 44C27 43.4478 27.4478 43 28 43Z" fill="#5DB5C5"/>
<path fill-rule="evenodd" clip-rule="evenodd" d="M20 11C20.5522 11 21 11.4478 21 12C21 12.5522 20.5522 13 20 13C19.4478 13 19 12.5522 19 12C19 11.4478 19.4478 11 20 11Z" fill="#D5D5D5"/>
<path fill-rule="evenodd" clip-rule="evenodd" d="M36 11C36.5522 11 37 11.4478 37 12C37 12.5522 36.5522 13 36 13C35.4478 13 35 12.5522 35 12C35 11.4478 35.4478 11 36 11Z" fill="#D5D5D5"/>
<path fill-rule="evenodd" clip-rule="evenodd" d="M20 43C20.5522 43 21 43.4478 21 44C21 44.5522 20.5522 45 20 45C19.4478 45 19 44.5522 19 44C19 43.4478 19.4478 43 20 43Z" fill="#D5D5D5"/>
<path fill-rule="evenodd" clip-rule="evenodd" d="M36 43C36.5522 43 37 43.4478 37 44C37 44.5522 36.5522 45 36 45C35.4478 45 35 44.5522 35 44C35 43.4478 35.4478 43 36 43Z" fill="#D5D5D5"/>
</svg>
