<!-- by TradeStack --><svg width="56" height="56" viewBox="0 0 56 56" xmlns="http://www.w3.org/2000/svg"><path fill="#F0F3FA" d="M0 0h56v56H0z"/><path fill-rule="evenodd" d="M28 37c13.87 0 21-4.03 21-9s-6.92-9-21-9-21 4.03-21 9 7.13 9 21 9Zm-8-9c0 2.76-1.36 5-4 5-2.64 0-4-2.24-4-5s1.32-5 4-5c2.68 0 4 2.24 4 5Zm-2.48 0c0 1.5-.52 2.72-1.52 2.72S14.48 29.5 14.48 28c0-1.5.5-2.72 1.52-2.72s1.52 1.22 1.52 2.72Zm5.98-5H21v10h2.5V23Zm3.5 0h-2.5v10H30v-2.5h-3V23Zm4 7.46V23h6.5v2.54h-4v1.19h3.58v2.54H33.5v1.19h4V33H31v-2.54Zm9.45-.88H38c0 2.8 2.2 3.42 3.56 3.42 1.36 0 3.44-.7 3.44-3.28 0-2.4-2.3-2.94-3.48-3.22l-.23-.06c-1.08-.26-.73-1.33.19-1.33.73 0 .95.55.97.89h2.3c0-2.05-1.47-3-3.19-3-1.71 0-3.2.97-3.2 3.19 0 2.11 1.99 2.62 3.06 2.9h.05c.03.02.06.03.1.03.86.23.97.63 1.01.8l.02.07c.01.28-.19.84-1.04.84-.93 0-1.13-.84-1.11-1.25Z" fill="#062F6D"/></svg>