<?xml version='1.0' encoding='utf-8'?>
<!-- by TradeStack -->
<svg width="56" height="56" viewBox="0 0 56 56" xmlns="http://www.w3.org/2000/svg"><path fill="#F0F3FA" d="M0 0h56v56H0z" /><path d="m12.56 21.25-.2.24-.82 1a1.74 1.74 0 0 0-.13.15l-.14.16-.1.14-.5.6c-.11.13-.17.21-.53.8l-.34.54-.35.55-.12.2a6.48 6.48 0 0 0-.79 1.56 154.75 154.75 0 0 1-.59 1.24 36.04 36.04 0 0 1-1.05.66l-.1.06a4.21 4.21 0 0 0-.41.26 28.21 28.21 0 0 0-.44.27 55.14 55.14 0 0 0-.5.77s.06 0 .26-.05l.33-.06.17-.03 1.01-.2-.06.16-.1.2-.01.04.02.03.09.09a11.06 11.06 0 0 1 .3.31 19.1 19.1 0 0 0 1-1.04 357.8 357.8 0 0 1 .76-.78c.18-.19.17-.17.34-.5l.07-.12.06-.1.08-.16a8.21 8.21 0 0 0 .28-.54l.15-.26.1-.2.07-.13.1-.17.13-.26a1288.5 1288.5 0 0 0 .72-1.33l.1-.2a.87.87 0 0 1 .07-.12l-.01.05-.16.41-.1.28-.06.14a12.24 12.24 0 0 1-.26.71l-.06.15-.05.14a30.04 30.04 0 0 0-.53 1.48l-.05.37-.13.84-.05.37-.06.37c0 .07-.04.25-.06.4l-.05.38a.93.93 0 0 1-.13.39 88.67 88.67 0 0 0-.36.74v-1.8a77.4 77.4 0 0 0-.03-1.38l-.32.91-.13.4-.21.6-.05.12.02.03.04.07a34.88 34.88 0 0 1 .67 1.24l.11-.2.28-.56.18-.36.03-.15c0-.08.03-.25.05-.37l.04-.29.02-.14.04-.27.04-.29.04-.26a140.22 140.22 0 0 0 .2-1.24l.02-.08a1.68 1.68 0 0 1 .07-.18 32.72 32.72 0 0 1 .46-1.24l.09-.23.14-.37.2-.57.18-.45.11-.3a68.6 68.6 0 0 0 .43-1.17l.3-.8c.04-.11.05-.13.06-.28l.03-.2.05-.46.02-.2.03-.32.03-.22a14.83 14.83 0 0 1-.12 1.15l-.04.4-.1.29-.37 1a263.71 263.71 0 0 0-1.01 2.72l-.1.25c0 .04-.04.12-.06.18l-.04.13.29-.45c.08-.13.24-.4.36-.57l.26-.42.06-.1.08-.3.2-.76.19-.72.3-1.13c.05-.19.05-.2.07-.44 0-.14.02-.3.03-.37l.03-.35a199.25 199.25 0 0 0 .05-.65l-.13.15Zm-.24.44-.12.2-.3.5-.27.48-.18.32a136.36 136.36 0 0 1-.55.95l-.36.62-.28.48-.18.32a111.59 111.59 0 0 1-.3.52l-.15.26a301.79 301.79 0 0 0-2.21 4.44l-.22-.22-.04-.04.01-.04a204.62 204.62 0 0 1 .35-.77l.4-.9.14-.32.05-.1.02-.06.04-.08a193.5 193.5 0 0 0 .5-1.11l.1-.24.11-.25.04-.08c.12-.28.22-.48.3-.6l.22-.36.18-.28.11-.19.17-.27a85.89 85.89 0 0 0 .45-.7l.17-.3c.08-.11.16-.22.5-.62l.21-.26.18-.22.07-.08.1-.13.1-.12a20.42 20.42 0 0 0 .64-.75ZM15.22 23.01a2 2 0 0 0-.93.38c-.4.28-.7.69-.85 1.16-.19.55-.2 1.28-.01 1.87.1.35.28.66.53.92.32.36.7.56 1.15.64.08.02.15.02.35.02.28 0 .35 0 .56-.07a2.05 2.05 0 0 0 1.1-.8 2.73 2.73 0 0 0 .5-2.1 2.45 2.45 0 0 0-1-1.68 1.87 1.87 0 0 0-1.4-.34Zm.47.44c.23.04.4.14.57.31.25.28.41.73.47 1.33.03.32.02.74-.01 1.02-.06.46-.18.8-.38 1.03-.24.3-.53.43-.9.43a.94.94 0 0 1-.75-.34c-.32-.36-.5-.98-.5-1.76 0-.77.16-1.34.48-1.69a.95.95 0 0 1 .36-.27c.19-.08.42-.1.66-.06ZM18.04 23.05l-.04.04V23.24l.04.04.04.05h.1c.18.02.27.05.33.13.04.05.07.13.08.26v3.6c-.01.14-.03.2-.07.25-.07.07-.14.1-.32.1h-.12l-.04.05-.04.04V27.91l.04.05.04.04h1.49l.05-.05c.04-.05.04-.05.04-.11v-.07l-.04-.04-.05-.05h-.13c-.22-.02-.31-.07-.35-.2-.03-.12-.03-.18-.03-1.7v-1.44l.75 1.83.74 1.83H20.78l.74-1.83.74-1.83v1.45c0 1.48 0 1.57-.03 1.68a.25.25 0 0 1-.14.17.85.85 0 0 1-.27.04h-.07l-.04.05c-.05.05-.05.05-.05.1v.07l.05.05.04.05h1.81l.05-.05c.05-.05.05-.05.05-.11v-.07l-.05-.04-.04-.05h-.12c-.14-.02-.2-.03-.25-.06-.07-.04-.1-.06-.11-.13-.04-.14-.04-.13-.04-1.99 0-1.86 0-1.87.04-1.99a.25.25 0 0 1 .14-.15.84.84 0 0 1 .27-.04h.07l.04-.05c.05-.05.05-.05.05-.1v-.07l-.05-.05-.04-.05H22.3l-.73 1.8a528 528 0 0 1-.73 1.8l-.75-1.8-.74-1.8h-1.27l-.04.05ZM23.75 23.05l-.04.04v.14l.04.05.04.04.1.01c.13 0 .2.03.33.1.07.04.08.05.2.18l.12.13v1.72c0 1.74 0 1.9-.03 2.02a.25.25 0 0 1-.15.16.87.87 0 0 1-.27.04h-.07l-.04.05c-.04.05-.04.05-.04.11v.06l.04.05.05.05h1.49l.04-.05.04-.04v-.14l-.04-.04-.04-.05h-.13c-.14-.01-.2-.02-.27-.06-.06-.04-.08-.08-.1-.22-.02-.04-.03-3.04-.02-3.03l1.34 1.82 1.33 1.8h.08l.08.01.04-.05.05-.05V23.7c.02-.16.03-.21.08-.27.06-.06.14-.09.31-.1h.13l.04-.05.04-.04v-.14l-.04-.05-.04-.04h-1.5l-.04.05c-.04.05-.04.05-.04.11v.06l.04.05.04.05h.13c.13.01.19.02.24.05.07.04.1.07.11.13.04.13.04.14.04 1.53v1.33l-.02-.03-1.24-1.68L25 23h-1.21l-.04.05ZM28.65 23.05c-.04.05-.04.05-.04.11v.07l.04.04.05.05h.11c.13.01.2.03.27.07.06.04.1.08.11.14.03.11.03.27.03 2.03 0 1.61 0 1.8-.02 1.85-.02.1-.04.14-.08.17-.07.07-.18.1-.36.1h-.06l-.05.05c-.04.05-.04.05-.04.1v.07l.04.05.05.05h1.83l.04-.05.04-.04V27.76l-.04-.04-.04-.04h-.12a.51.51 0 0 1-.29-.09c-.08-.06-.1-.1-.12-.32v-3.64c.02-.14.07-.2.16-.25.06-.03.11-.04.24-.05h.13l.04-.05.04-.04V23.09l-.04-.05-.04-.04H28.7l-.05.05ZM33.43 23.05l-.04.04V23.24l.04.04.04.04h.08c.1 0 .22.02.27.04.1.05.16.12.18.28v3.72c-.02.16-.06.2-.16.26-.07.04-.15.05-.3.05h-.07l-.04.05-.04.05v.14l.04.05.04.04h3.37l.02-.06.2-.68.17-.63-.04-.06-.03-.07-.09-.02a.27.27 0 0 0-.09-.01l-.05.12c-.16.43-.33.68-.55.8-.12.07-.24.09-.56.1h-.85c-.08-.02-.11-.04-.14-.08-.04-.07-.04-.04-.04-1.93l.01-1.86c.03-.12.06-.16.16-.22.07-.04.14-.05.3-.07h.16l.04-.05.04-.04V23.09l-.04-.05-.04-.04h-1.95l-.04.05ZM37.65 23.05c-.04.05-.04.05-.04.11v.07l.04.04.05.05h.11c.13.01.2.03.27.07.06.04.1.08.11.14.03.11.03.27.03 2.03 0 1.61 0 1.8-.02 1.85-.02.1-.04.14-.08.17-.07.07-.18.1-.36.1h-.06l-.05.05c-.04.05-.04.05-.04.1v.07l.04.05.05.05h1.83l.04-.05.04-.04V27.76l-.04-.04-.04-.04h-.12a.51.51 0 0 1-.29-.09c-.08-.06-.1-.1-.12-.32v-3.64c.02-.14.07-.2.16-.25.06-.03.11-.04.24-.05h.13l.04-.05.04-.04V23.09l-.04-.05-.04-.04H37.7l-.05.05ZM39.8 23.02l-.03.6-.03.59.05.05.05.06h.2v-.09a.92.92 0 0 1 .19-.55c.1-.14.18-.17.44-.18l.35-.01h.2v1.86l-.01 1.95c-.02.19-.05.26-.13.31-.06.04-.12.05-.26.06h-.12l-.04.05-.05.04V27.91l.05.05.04.04h1.82l.04-.05.04-.04V27.76l-.04-.04-.04-.04h-.07c-.23 0-.37-.06-.4-.16-.05-.12-.05-.05-.05-2.11v-1.93l.32.01c.38 0 .43.01.56.08.13.07.22.2.27.38l.06.34v.03h.2l.04-.05.05-.06v-.06l-.03-.56-.02-.54V23h-1.83c-1.73 0-1.82 0-1.82.02ZM43.94 23.05l-.04.04V23.24l.04.04.04.04h.13c.21.02.31.06.35.15.04.11.04.05.05 1.93 0 1.77 0 1.96-.03 2.07-.02.06-.05.1-.12.14a.5.5 0 0 1-.26.06h-.12l-.04.05-.04.04V27.91l.04.05.04.04h3.36l.19-.63.19-.63-.04-.08-.04-.06h-.19l-.06.14c-.18.37-.35.6-.52.7-.15.1-.26.1-.9.1h-.55a.2.2 0 0 1-.07-.03c-.06-.04-.06 0-.06-1v-.9h.5c.53 0 .57.01.68.06.06.02.12.07.15.13.03.05.06.18.09.39l.02.14h.2l.04-.05.04-.05v-1.66l-.04-.05-.05-.05h-.2v.1c-.02.23-.07.4-.16.49a.42.42 0 0 1-.19.08l-.57.02h-.51v-1.71h.53c.74 0 .9.01 1 .07.06.04.13.12.16.18.04.08.08.22.11.4l.03.14h.2l.04-.04.04-.05-.02-.54-.03-.57V23h-3.37l-.04.05ZM31.04 26.04l-.04.04v.49l.04.04.05.04h1.8l.06-.05.05-.04v-.47l-.05-.05-.05-.04h-1.82l-.04.04Z" fill="#0321BF" /><path d="M8.57 27.06a57.23 57.23 0 0 0-1.2 1.7l.11-.05.2-.25a53.18 53.18 0 0 1 .38-.53l.23-.3c.11-.16.12-.16.21-.37.09-.2.1-.25.07-.2ZM9.28 29.08l-.33.34-.6.64a189.36 189.36 0 0 1-.96.98l-.23.25c-.2.2-.2.2-.33.46a82.46 82.46 0 0 1-.31.6l.1-.05.63-.42.29-.2.36-.23.3-.21.13-.08.07-.05.17-.11.11-.08.02-.06.16-.46.11-.31.14-.4.1-.3.08-.24.04-.1c0-.02-.02 0-.05.03ZM31.36 29.01c-.54.07-.98.5-1.09 1.05-.02.1-.02.38 0 .5.05.25.15.43.35.64.19.2.37.34 1.1.78.39.24.48.3.6.43.13.15.19.28.2.46 0 .18-.04.3-.17.44-.16.17-.32.23-.59.23-.2 0-.36-.03-.53-.12-.38-.2-.53-.45-.64-1.07l-.02-.11h-.2l-.04.04-.04.05v1.59l.04.04.04.04h.2v-.03a.7.7 0 0 1 .06-.21c.03-.04.14-.02.46.1.36.12.47.14.78.14a1.38 1.38 0 0 0 1.37-1.1 1.39 1.39 0 0 0-.41-1.27c-.16-.13-.4-.3-.84-.55l-.39-.24a2.6 2.6 0 0 1-.56-.45.65.65 0 0 1-.1-.21c-.02-.07 0-.2.01-.28.05-.15.2-.31.36-.38a.87.87 0 0 1 .6 0c.29.1.48.28.6.54.08.16.14.4.17.63v.09H32.9l.04-.04.04-.05v-1.6l-.04-.05-.04-.04h-.2v.07c-.03.09-.06.16-.08.18-.05.02-.1.01-.28-.07-.2-.09-.35-.14-.52-.17a2.3 2.3 0 0 0-.45 0ZM50.1 29.01c-.53.07-.97.5-1.08 1.05-.02.1-.02.38 0 .49.05.25.15.44.34.65.2.2.38.34 1.1.78.4.24.49.3.6.43.14.15.2.28.2.46s-.04.3-.17.44c-.15.17-.31.23-.58.23-.2 0-.36-.03-.53-.12-.38-.2-.54-.45-.64-1.07l-.02-.11h-.2l-.12.1v1.58l.12.08h.2v-.03a.7.7 0 0 1 .06-.21c.03-.04.13-.02.46.1.36.12.47.14.77.14a1.38 1.38 0 0 0 1.37-1.1c.02-.1.03-.35.01-.47-.05-.3-.2-.6-.42-.8-.15-.13-.4-.3-.83-.55l-.4-.24a2.6 2.6 0 0 1-.55-.45.65.65 0 0 1-.1-.21c-.02-.07-.01-.2.01-.28.05-.15.2-.31.35-.38a.87.87 0 0 1 .61 0c.28.1.48.28.6.54.08.16.14.4.17.63v.09H51.65l.04-.04.04-.05v-1.6l-.04-.05-.04-.04h-.2l-.01.07c-.02.09-.05.16-.07.18-.05.02-.1.01-.36-.1a2 2 0 0 0-.44-.14h-.45ZM13.44 29.05c-.05.05-.05.05-.05.11v.07l.05.04.04.05h.12c.12.01.18.03.26.07.07.04.1.08.12.14.02.11.02.27.02 2.03 0 1.61 0 1.8-.02 1.85-.01.1-.03.14-.08.17-.07.07-.18.1-.35.1h-.07l-.04.05c-.05.05-.05.05-.05.1v.07l.05.05.04.05h1.84l.04-.05.04-.04V33.76l-.04-.04-.05-.04h-.11a.51.51 0 0 1-.3-.09c-.08-.06-.1-.1-.1-.32-.02-.22-.01-3.55 0-3.64.02-.14.05-.2.14-.25.06-.03.11-.04.25-.05h.12l.05-.05.04-.04V29.09l-.05-.05-.04-.04h-1.83l-.04.05ZM15.54 29.05l-.04.04v.14l.04.05.04.04.1.01c.13 0 .2.03.33.1.07.04.09.05.2.18l.12.13v1.72c0 1.74 0 1.9-.03 2.02a.25.25 0 0 1-.14.16.87.87 0 0 1-.28.04h-.06l-.05.05c-.04.05-.04.05-.04.11v.06l.04.05.05.05h1.49l.04-.05.04-.04v-.14l-.04-.04-.04-.05h-.13c-.14-.01-.2-.02-.27-.06-.06-.04-.08-.08-.1-.22l-.02-3.03 1.34 1.82 1.33 1.8h.08l.08.01.04-.05.05-.05V29.7c.02-.16.04-.21.09-.27.06-.06.13-.09.3-.1h.13l.04-.05.04-.04v-.14l-.04-.05-.04-.04h-1.49l-.05.05c-.04.05-.04.05-.04.11v.06l.04.05.05.05h.12c.14.01.2.02.25.05.06.04.09.07.1.13.04.13.04.14.05 1.53v1.33l-.03-.03L18 30.65 16.79 29h-1.21l-.04.05ZM20.44 29.05c-.05.05-.05.05-.05.11v.07l.05.05.04.04h.08c.18 0 .29.04.36.1.04.05.06.09.08.21v1.86c0 1.87.01 1.87-.03 1.99a.29.29 0 0 1-.05.09c-.07.07-.13.1-.3.1h-.14l-.04.05-.05.05v.13l.05.05.04.05h1.14c1.12 0 1.14 0 1.27-.03.71-.11 1.19-.4 1.54-.92.23-.35.36-.71.42-1.2.02-.16.02-.59 0-.76a2.56 2.56 0 0 0-.58-1.4c-.16-.18-.3-.3-.5-.4-.18-.1-.36-.17-.62-.22a7.55 7.55 0 0 0-1.64-.07h-1.03l-.04.05Zm2.16.43c.32.05.6.2.84.44.27.29.44.66.5 1.15.05.34.04.76-.03 1.08-.08.4-.25.72-.5.97-.38.39-.85.5-1.49.38l-.11-.02c-.01 0-.02-.11-.02-1.97 0-1.86 0-1.96.02-1.97l.1-.02c.26-.06.46-.07.7-.04ZM25.1 29.04l-.04.05v.14l.05.04.04.05h.07c.1 0 .22.01.27.03.05.02.11.08.13.12l.03.11c.02.07.02.12.03 1.32l.01 1.4c.03.51.09.72.26 1 .07.13.23.3.35.4.27.2.62.3 1.13.3a2 2 0 0 0 .67-.09c.25-.08.46-.22.65-.42.25-.29.36-.6.4-1.2.01-.07.02-.56.02-1.37 0-.88.01-1.27.02-1.3a.37.37 0 0 1 .08-.18c.07-.09.17-.12.36-.12h.07l.04-.05.04-.04v-.14l-.04-.05-.04-.04h-1.53l-.04.04-.04.05v.14l.04.04.04.05h.14c.13 0 .19.02.24.05.08.04.1.09.13.2a43.6 43.6 0 0 1 .01 2.65c0 .2-.03.38-.06.5a.93.93 0 0 1-.5.63c-.18.1-.34.14-.54.15-.33.02-.56-.04-.76-.2-.23-.2-.31-.44-.36-1.04v-2.62l.02-.07c.02-.1.05-.14.1-.18.07-.05.13-.06.28-.07H27l.04-.05.04-.04v-.14l-.04-.05-.05-.04h-1.85l-.04.04ZM33.8 29.02l-.03.6-.03.59.05.05.05.06h.2v-.09a.92.92 0 0 1 .18-.55c.11-.14.2-.17.44-.18l.36-.01h.2v1.86c0 1.8 0 1.97-.03 2.1a.26.26 0 0 1-.2.2l-.17.02h-.13l-.04.05-.04.04V33.91l.04.05.04.04h1.82l.05-.05.04-.04V33.76l-.04-.04-.04-.05h-.07c-.23 0-.37-.05-.4-.15-.05-.12-.05-.05-.05-2.11v-1.93l.32.01c.37 0 .43.01.56.08.12.07.22.2.27.38l.06.34v.03h.2l.04-.05.04-.06v-.06l-.02-.56-.02-.54V29h-1.83c-1.73 0-1.82 0-1.82.02ZM37.86 29.05c-.05.05-.05.05-.05.11v.07l.05.05.04.04h.07a.8.8 0 0 1 .28.05c.07.02.13.09.14.16.04.12.04.13.04 1.85 0 1.71 0 1.91-.03 2.06a.2.2 0 0 1-.05.11c-.07.09-.14.11-.32.12h-.13l-.04.06-.05.04v.13l.05.05.04.05h1.84l.04-.05.04-.04V33.76l-.05-.04-.04-.05h-.07a.82.82 0 0 1-.27-.03.25.25 0 0 1-.15-.17 4.26 4.26 0 0 1-.03-.94v-.77h.31l.72 1.12.72 1.12h1.2l.03-.05.04-.04V33.68l-.1-.01a1.2 1.2 0 0 1-.48-.17 1.84 1.84 0 0 1-.42-.48l-.9-1.38.1-.05c.55-.2.86-.63.88-1.2a1.27 1.27 0 0 0-.8-1.27 2.4 2.4 0 0 0-.6-.11L38.83 29h-.94l-.04.05Zm1.92.43c.28.04.51.26.6.55.04.12.05.2.05.36a.9.9 0 0 1-.08.4c-.17.36-.5.54-1 .55h-.14v-1.82l.3-.05h.27ZM42.44 29.05c-.04.05-.04.05-.04.11v.07l.04.04.05.05h.11c.13.01.19.03.27.07.06.04.12.08.13.14v3.88c-.02.1-.05.14-.09.17-.07.07-.18.1-.36.1h-.06l-.05.05c-.04.05-.04.05-.04.1v.07l.04.05.05.05h1.83l.04-.05.04-.04V33.76l-.04-.04-.04-.04h-.12a.51.51 0 0 1-.3-.09c-.07-.06-.09-.1-.1-.32-.02-.22 0-3.55 0-3.64.03-.14.06-.2.15-.25.05-.03.11-.04.24-.05h.13l.04-.05.04-.04V29.09l-.04-.05-.04-.04h-1.83l-.05.05ZM44.65 29.05l-.04.04V29.24l.04.04.04.04h.13c.21.02.32.06.35.15.04.11.04.05.05 1.93a17 17 0 0 1-.03 2.07c-.02.06-.05.1-.11.14a.5.5 0 0 1-.27.06h-.12l-.04.05-.04.04V33.91l.04.05.04.04h3.36l.19-.63.19-.63-.04-.08-.04-.06h-.18l-.07.14c-.18.37-.35.6-.52.7-.15.1-.25.1-.9.1h-.55a.2.2 0 0 1-.07-.03c-.06-.04-.06 0-.06-1v-.9h.5c.53 0 .57.01.68.06.06.02.12.07.15.13.03.05.06.18.09.39l.02.14h.2l.04-.05.04-.05v-1.66l-.04-.05-.05-.05h-.2v.1c-.02.23-.07.4-.16.49a.42.42 0 0 1-.19.08l-.57.02H46v-1.71h.53c.74 0 .9.01 1 .07.06.04.13.12.16.18.04.08.08.22.11.4l.03.14h.2l.04-.04.04-.05-.02-.54-.03-.57V29H44.7l-.04.05Z" fill="#0321BF" /><path d="M19.61 22.9a8.63 8.63 0 0 0-6.06-2.47 8.5 8.5 0 0 0-8.57 8.42 8.5 8.5 0 0 0 8.57 8.41c3.5 0 6.5-2.05 7.84-4.99a9 9 0 1 1-1.78-9.38Z" fill="#0321BF" /></svg>