<?xml version='1.0' encoding='utf-8'?>
<!-- by TradeStack -->
<svg width="56" height="56" viewBox="0 0 56 56" xmlns="http://www.w3.org/2000/svg"><path fill="#F0F3FA" d="M0 0h56v56H0z" /><path d="M12.5 28a4.4 4.4 0 0 1-.5 2.16 3.4 3.4 0 0 1-1.33 1.36c-.57.32-1.2.48-1.92.48-.71 0-1.35-.16-1.92-.48a3.47 3.47 0 0 1-1.34-1.37A4.43 4.43 0 0 1 5 28c0-.84.16-1.56.49-2.15.33-.6.78-1.06 1.34-1.37.57-.32 1.2-.48 1.92-.48.71 0 1.35.16 1.92.48A3.4 3.4 0 0 1 12 25.85c.33.6.49 1.31.49 2.15Zm-1.49 0c0-.6-.1-1.09-.29-1.5a2.08 2.08 0 0 0-1.97-1.23c-.44 0-.84.1-1.18.31-.34.21-.6.52-.8.93-.19.4-.28.9-.28 1.49 0 .6.1 1.09.28 1.5.2.4.46.71.8.92.34.21.74.31 1.18.31.44 0 .84-.1 1.18-.3.34-.22.6-.53.8-.93.19-.41.28-.9.28-1.5ZM20 24v8h-1.27L15 26.55h-.07V32H13.5v-8h1.28l3.73 5.45h.06V24H20Zm1.5 0v8h5v-1.21H23V28.6h3.21V27.4H23V25.2h3.47V24H21.5Zm6.5 8v-8h1.46v6.79H33V32h-5Zm8 0v-8h-1.5v8H36Zm7.5-8v8h-1.27l-3.73-5.45h-.07V32H37v-8h1.28l3.73 5.45h.06V24h1.43Zm1 0v8H46v-2.38l.85-1.05 2.4 3.43H51l-3.14-4.41L50.97 24H49.2l-3.13 3.68H46V24h-1.5Z" /></svg>