<!-- by TradeStack --><svg width="56" height="56" viewBox="0 0 56 56" fill="none" xmlns="http://www.w3.org/2000/svg">
<rect width="56" height="56" fill="url(#paint0_linear_228_4135)"/>
<path d="M7.52388 24C5.50514 24 4 25.6999 4 28.0179C4 30.3239 5.49316 32 7.53586 32C9.72045 32 11 30.0433 11 28.0179C11 26.006 9.72172 24 7.52388 24ZM7.50003 24.3685C9.00006 24.3685 9 26.9096 9 27.9941C9 29.0639 9.05894 31.6315 7.53586 31.6315C6 31.6315 6 29.0553 6 27.9941C6 26.9254 6 24.3685 7.50003 24.3685Z" fill="white"/>
<path d="M17 32L17 29H16.6785C16.6785 30.5 16.0007 31.6092 14.3321 31.6092H14V24.3909H15V24H11V24.3909H12V31.6092H11V32H17Z" fill="white"/>
<path d="M21 24.3909H22V24H18V24.3909L19 24.364V31.5823L18 31.6092V32H22V31.6092H21V24.3909Z" fill="white"/>
<path d="M26.3328 29.2054L24.5321 24.3839H25.3199V24H22V24.3839H22.619L25.4775 32H25.8151L28.0546 25.0794L28.1221 24.8396C28.2347 24.4678 28.3585 24.3839 28.7524 24.3839H29V24H26.7267V24.3839H27.2331C27.6157 24.3839 27.7508 24.4438 27.7508 24.6477C27.7508 24.7316 27.7283 24.8516 27.6833 24.9716L27.5933 25.2354L26.3328 29.2054Z" fill="white"/>
<path d="M32 24.3909H32.945C34.2287 24.3909 34.9273 25.0181 35.3144 26.2351H35.6993L35.5911 24H29V24.3909H30V31.6092H29V32H36V29.374H35.5911C35.3164 30.5594 34.5828 31.6092 33.2697 31.6092H32V28H32.1632C33.1103 28 33.5251 28.5702 33.6151 29.4657H34V26H33.6151C33.4948 26.9283 32.9931 27.6092 32.1873 27.6092H32V24.3909Z" fill="white"/>
<path d="M38 31.6092H37V32H40.1848C42.4839 32 44 30.3114 44 27.9695C44 25.9282 42.8036 24 40.6087 24H37V24.3909H38V31.6092ZM40 31.6092V24.3909H40.5109C42 24.3909 42 26.7564 42 27.9695C42 29.4712 42 31.5838 40.1956 31.6092H40Z" fill="white"/>
<path d="M48.5605 30L49.1857 31.6162H48.1438V32H52V31.6162H51.1857L48.3114 24H47.9641L45.2216 30.7526C44.8982 31.5562 44.8264 31.6162 44.2276 31.6162H44V32H46.527V31.6162H46.0958C45.6767 31.6162 45.509 31.5323 45.509 31.3043C45.509 31.1604 45.5808 30.8966 45.7006 30.6087L45.9744 30H48.5605ZM48.4049 29.6042H46.142L47.3174 26.6746L48.4049 29.6042Z" fill="white"/>
<defs>
<linearGradient id="paint0_linear_228_4135" x1="28" y1="0" x2="28" y2="56" gradientUnits="userSpaceOnUse">
<stop stop-color="#181B1E"/>
<stop offset="1" stop-color="#181B1E"/>
</linearGradient>
</defs>
</svg>
