<!-- by TradeStack --><svg width="56" height="56" viewBox="0 0 56 56" xmlns="http://www.w3.org/2000/svg"><path fill="#F0F3FA" d="M0 0h56v56H0z"/><path d="M24 10a18.1 18.1 0 0 0-13 17.5c0 3.06.72 5.95 2 8.5h4.23A15.3 15.3 0 0 1 15 28c0-6.27 3.72-11.64 9-13.88V10ZM41.1 37h3.35A17.9 17.9 0 0 1 25 45.54v-3.28c1.42.48 2.93.74 4.5.74 4.74 0 8.96-2.36 11.6-6Z" fill="#A6AFBC"/><path d="M41.86 37A15.75 15.75 0 0 0 45 27.52C45 18.95 38.25 12 29.92 12c-1.72 0-3.38.3-4.92.85v4.35c1.48-.77 3.15-1.2 4.92-1.2C35.97 16 41 21.3 41 27.52 41 31.5 39.52 35 36.5 37h5.36Z" fill="#00366A"/><path d="M18 37a13.71 13.71 0 0 0 5 4v-4h-5Z" fill="#A6AFBC"/><path d="M24 17.4A11.5 11.5 0 1 0 35.98 37H24v-4.4a7.47 7.47 0 0 1 0-10.2v-5Z" fill="#00366A"/><path d="M25 33.5a7.5 7.5 0 1 0 0-12v12Zm7-6a2.5 2.5 0 1 1-5 0 2.5 2.5 0 0 1 5 0Z" fill="#A6AFBC"/></svg>