<!-- by TradeStack --><svg width="56" height="56" viewBox="0 0 56 56" xmlns="http://www.w3.org/2000/svg"><path fill="#F0F3FA" d="M0 0h56v56H0z"/><path d="M13 36h-1v6h12.34L24 36.17c-1.92-.62-6-3.44-6-9.8C18 18.43 22.83 15 28 15c5.17 0 10 3.43 10 11.37 0 6.36-4.08 9.18-6 9.8L31.66 42H44v-6h-1v.74A2.3 2.3 0 0 1 40.65 39h-5.73c-.5 0-.92-.3-.92-.8 0-.42.32-1.15.74-1.28 3.63-1.03 8.26-5 8.26-11.02C43 15.72 35.81 13 28 13s-15 2.72-15 12.9c0 6.02 4.63 9.99 8.26 11.02.42.13.74.86.74 1.29 0 .49-.41.79-.92.79h-5.73c-1.3 0-2.35-1.29-2.35-2.54V36Z" fill="#DBC088"/></svg>