<?xml version='1.0' encoding='utf-8'?>
<!-- by TradeStack -->
<svg width="56" height="56" viewBox="0 0 56 56" xmlns="http://www.w3.org/2000/svg"><path fill="#2F538E" d="M0 0h56v56H0z" /><path fill-rule="evenodd" d="M6.83 24A2.76 2.76 0 0 0 4 26.69v.62A2.76 2.76 0 0 0 6.83 30h.34C8.73 30 10 28.8 10 27.31v-.62A2.76 2.76 0 0 0 7.17 24h-.34ZM7 25c-1.1 0-2 .73-2 1.62v.77c0 .9.9 1.61 2 1.61s2-.72 2-1.6v-.78c0-.9-.9-1.62-2-1.62Zm4 1h1v.47a1.8 1.8 0 0 1 1.21-.47c.65 0 1.02.3 1.18.69.15-.23.62-.69 1.33-.69.9 0 1.28.64 1.28 1.25V30h-1v-2.75c0-.16-.19-.47-.64-.47-.57 0-.74.5-.86.95V30h-1v-2.75c0-.16-.19-.47-.67-.47-.5 0-.7.33-.83.7V30h-1v-4Zm7 0h1v.55c.26-.24.76-.55 1.46-.55 1.07 0 1.54.64 1.54 1.25V30h-1v-2.75c0-.16-.25-.47-.8-.47-.68 0-1.06.5-1.2.95V30h-1v-4Zm5 0h1v4h-1v-4Zm1-2h-1v1h1v-1Zm1 3h2v1h-2v-1Zm3-3h1v2.5h3V24h1v6h-1v-2.5h-3V30h-1v-6Zm21 0h-1v5.95h1V27.6c.14-.42.37-.83 1-.83.55 0 1 .31 1 .47V30h1v-2.75c0-.6-.47-1.25-1.56-1.25-.67 0-1.17.28-1.44.51V24Zm-11 4.3h-2.81c0 .48.32.93.9.93.45 0 .7-.38.78-.58l1.06.22c-.11.38-.63 1.13-1.85 1.13-1.63 0-2.06-1.22-2.07-1.83-.06-.72.27-2.17 2-2.17s2.04 1.53 1.98 2.3Zm-1.12-.68h-1.67c0-.28.16-.84.82-.84.66 0 .84.56.85.84Zm1.7-.55 1.12.2c.04-.17.25-.51.85-.51s.78.4.8.6c-.24.07-.87.2-1.47.3-.76.13-1.38.48-1.38 1.29 0 .8 1 1.05 1.5 1.05s.87-.11 1.35-.54l.16.54h1.36c-.14-.16-.41-.55-.41-.82v-2.22c-.02-.32-.43-.96-1.91-.96-1.49 0-1.93.71-1.96 1.07Zm2.82.77v.76c-.11.19-.48.55-1.04.55-.69 0-.8-.39-.8-.55 0-.16.17-.4.8-.54l1.04-.22ZM44 24h-1v6h1v-6Zm2 3v1.78c0 .08.24.25.53.25.3 0 .44-.09.47-.13l.12.87c-.12.08-.47.23-.95.23-.59 0-1.17-.29-1.17-1.14V27h-.59v-1H45v-1.3l1-.7v2h.96v1H46Z" fill="#fff" /></svg>