<!-- by TradeStack --><svg width="56" height="56" viewBox="0 0 56 56" xmlns="http://www.w3.org/2000/svg"><path fill="#F0F3FA" d="M0 0h56v56H0z"/><path d="m31.79 16.81.75-1.57.5-1.07a.34.34 0 0 0-.17-.45 3538.3 3538.3 0 0 0-8.1-3.67c-.28-.12-.5-.02-.66.3l-8.07 16.9c-.15.33-.06.56.27.71 1.87.86 4.53 2.06 7.96 3.6.26.12.47.03.62-.28l4.62-9.67.76-1.6 1.52-3.2Zm-6.21-4.47 4.84 2.2c.2.08.28.3.2.5L23.9 29.09a.4.4 0 0 1-.52.19l-4.84-2.2a.37.37 0 0 1-.2-.5l6.71-14.05a.4.4 0 0 1 .52-.19Z" fill="#9DBA3F"/><path d="M32.54 15.24c.35.12.7.25 1.04.39a14.95 14.95 0 0 1 7.05 5.7c4.83 7.46 2 17.12-5.95 21.08a15.48 15.48 0 0 1-18.93-4.23c-.5-.62-1.08-1.1-1.76-2.28a.28.28 0 0 0-.18-.13l-.48-.11a.36.36 0 0 1-.19-.1.34.34 0 0 1-.1-.19c-.07-.43-.05-.81.05-1.13a.35.35 0 0 1 .12-.17.36.36 0 0 1 .22-.07h10.05c.13 0 .26.05.36.14.09.1.16.22.16.35v.73c0 .14-.07.27-.17.36-.1.1-.24.15-.38.15h-.54a.06.06 0 0 0-.05.04.05.05 0 0 0 .02.06c2.17 1.53 4.83 1.64 7.38.83a7.71 7.71 0 0 0 3.67-12.45 8.23 8.23 0 0 0-4.42-2.6l.76-1.6a9.48 9.48 0 0 1 6.9 12.15c-2.38 7.11-11.74 9.35-16.8 3.73a.45.45 0 0 0-.34-.15h-4a.06.06 0 0 0-.05.02.06.06 0 0 0 0 .06c4.06 6.91 13.28 8.71 19.9 3.77 8.68-6.45 6.24-19.52-4.1-22.78l.76-1.57Z" fill="#52C2CF"/></svg>