<!-- by TradeStack --><svg viewBox="0 0 56 56" xmlns="http://www.w3.org/2000/svg"><path fill="#F0F3FA" d="M0 0h56v56H0z"/><path d="M15.12 29.45a5.73 5.73 0 0 1-3.96-3.93 2.82 2.82 0 0 0-.33-.77l-.15-.21v-.01h-.62l-.32.01c-.18 0-.33-.02-.47-.07a.95.95 0 0 1-.36-.22.86.86 0 0 1-.15-.2 1.2 1.2 0 0 1-.1-.3 1.67 1.67 0 0 1-.04-.37v-.25l.02-.14v-.05l.01-.04v-.03l-.04-.07v-.01a25.5 25.5 0 0 0-.34-.45l-.2-.3a.72.72 0 0 1-.07-.22v-.08l.02-.14a.43.43 0 0 1 .05-.1l.01-.02a.67.67 0 0 1 .22-.21l.04-.03.17-.1.25-.15.05-.03.32-.18a6.06 6.06 0 0 0 1.18-.85 2.06 2.06 0 0 1 .84-.5c.3-.08.63-.11.92-.11a5.3 5.3 0 0 1 1 .1c.05 0 .1.02.14.03l.1-.1c.1-.07.2-.13.3-.17.22-.1.45-.14.66-.16.15-.02.28-.02.41-.02.26 0 .46.02.53.03h.02l.23.03.02.24.01.19a1.69 1.69 0 0 1-.16.7l-.01.03.06.07.17.16a17.19 17.19 0 0 1 1.5 1.8 2.62 2.62 0 0 1-2.03 4.26c-.53 0-1.04-.17-1.45-.45a2.65 2.65 0 0 1-.38-4.03 2.66 2.66 0 0 1 1.4-.73l.54.57h-.1a1.95 1.95 0 0 0-1.42.58 2 2 0 0 0-.58 1.43 2.03 2.03 0 0 0 1.21 1.86 2 2 0 0 0 2.78-1.86c0-.37-.1-.72-.28-1.02l-.18-.26-.2-.3c-.22-.3-.47-.59-.7-.85 0 0-.15-.13-.12-.13a4.77 4.77 0 0 1-.05-.05l-.09-.1c-.33-.36-.59-.62-.65-.68h-.01l-.22-.2.2-.22v-.01l.02-.03.03-.04a1 1 0 0 0 .13-.38h-.21c-.14 0-.3 0-.46.02-.15.03-.3.07-.4.12a.6.6 0 0 0-.18.1l-.05.08-.11.2-.23-.06h-.02l-.03-.01h-.04a4.48 4.48 0 0 0-1.65-.1c-.19.04-.36.1-.5.18-.1.06-.18.12-.26.2-.22.25-.49.45-.75.62-.26.18-.53.32-.75.45l-.37.2-.03.02-.16.1-.03.03-.03.01.02.03.03.06.19.24.14.18.03.04.15.23a.7.7 0 0 1 .08.31V23l-.02.11-.01.26c0 .08 0 .16.02.23.01.07.04.12.07.17l.07.07c.04.03.1.06.18.07l.18.02h.26l.06-.01a9.61 9.61 0 0 1 .8 0l.11.01.08.1a3.66 3.66 0 0 1 .69 1.32 5.04 5.04 0 0 0 3.4 3.49c.04 0-.05.6-.05.6Zm23.87-3.5-.18.02c-.31-.03-.49-.17-.52-.43l-.02-.32c-.15.26-.35.45-.6.58a1.77 1.77 0 0 1-2.15-.4c-.17-.17-.3-.38-.4-.62a2.28 2.28 0 0 1-.01-1.55 2 2 0 0 1 .37-.64 1.7 1.7 0 0 1 1.27-.59 1.55 1.55 0 0 1 1.39.8V20H39v4.97c0 .16.05.25.21.26v.7l-.22.03Zm-1-1.1a.8.8 0 0 0 .16-.3h-.01v-1.02a1.38 1.38 0 0 0-.8-.77.98.98 0 0 0-.34-.06.99.99 0 0 0-.48.1 1.3 1.3 0 0 0-.6.72c-.06.17-.09.33-.09.5a1.32 1.32 0 0 0 .35.9 1.2 1.2 0 0 0 1.22.33c.11-.04.22-.1.32-.16.1-.07.2-.15.26-.24Zm-16.3-1.25V26h-.84v-2.2c0-.38-.06-.64-.18-.81a.6.6 0 0 0-.53-.26 1.24 1.24 0 0 0-.7.26 1.46 1.46 0 0 0-.47.67V26h-.83v-3.94h.75v.8c.16-.27.37-.48.66-.63.29-.15.6-.23.95-.23a1 1 0 0 1 .94.48c.1.14.15.31.19.5.03.2.05.4.05.62Zm5.54-1.6L26 25.19l-.56-1.48.66-1.7h-.66L25 23.26l-.44-1.25h-.66l.67 1.7-.56 1.48L22.76 22H22l1.62 4h.67l.7-1.86.73 1.86h.66L28 22h-.77Zm3.89 3.3.02.25c.02.12.08.22.17.3.09.06.21.1.39.12l.17-.01h.02l.24-.03v-.7c-.1 0-.16-.03-.2-.06-.03-.04-.05-.1-.05-.2v-1.4c0-.5-.16-.9-.48-1.16-.32-.28-.77-.41-1.34-.41-.59 0-1.14.17-1.68.5l.27.52c.23-.15.46-.26.67-.33.22-.08.43-.12.66-.12.33 0 .58.08.76.24.18.16.26.38.26.67v.26a3.4 3.4 0 0 0-1.82-.08c-.22.06-.4.14-.56.25-.15.11-.28.24-.36.38a1.08 1.08 0 0 0-.02.98 1.23 1.23 0 0 0 .74.64c.18.06.36.09.57.09.31 0 .6-.06.88-.18.27-.12.5-.3.69-.52Zm-.3-.3c-.1.13-.25.23-.44.3-.19.07-.39.1-.6.1a.9.9 0 0 1-.6-.2.6.6 0 0 1-.23-.47c0-.2.1-.37.3-.5.2-.13.46-.2.77-.2a2.9 2.9 0 0 1 .97.17v.52c0 .1-.05.19-.16.28ZM35 22c-.24 0-.47.1-.7.26-.21.17-.39.4-.53.67v-.89H33V26h.83v-2.42c.1-.26.28-.46.53-.6.25-.14.53-.21.85-.22V22a.43.43 0 0 0-.08-.01H35Zm1.52 14.48h-.01Zm0 0Zm0 0h-.01Zm.75-.93-.03-.1a7.84 7.84 0 0 1-.13-.92v-.13l-.01-.05-.01-.09-.03-.26v-.02a3.06 3.06 0 0 0-.15-.6.84.84 0 0 0-.13-.2.55.55 0 0 0-.16-.12l-.04-.02-.16-.1a8.2 8.2 0 0 1-1.72-1.55c-.16-.2-.3-.4-.43-.62l-.04-.07c-.1-.2-.22-.4-.23-.59V28h-.4v.71l.01 1.21V30.13c.01.12.06.23.1.33l.05.11A4.74 4.74 0 0 0 35 32.2a10.38 10.38 0 0 0 1.33 1.04l.11.07.04.02a.1.1 0 0 1 .03.02.2.2 0 0 1 .05.04c.06.07.1.18.14.29a9.29 9.29 0 0 1 .14.9c.03.21.05.43.1.65V35.3l.04.14v.05l.02.05.03.1a1.54 1.54 0 0 1 .03.72 1 1 0 0 1-.14.31l-.01.02-.01.01v-.02l-.01-.08c.01-.07 0-.12-.05-.15l-.02-.02a.6.6 0 0 0-.11-.15.26.26 0 0 0-.23-.06.46.46 0 0 0-.22.13.55.55 0 0 0-.13.27v.04a1 1 0 0 0-.04.23c0 .1.02.2.09.27.05.06.14.1.22.1-.09.1-.17.19-.27.24a.9.9 0 0 1-.32.13l-.18.02H35.03l-.73.01a.6.6 0 0 1 0-.54c.05-.08.13-.14.21-.15h.08l.1-.01.19-.03a1.37 1.37 0 0 0 .7-.32l.13-.14v-.01h.01l.01-.02.01-.02a1.46 1.46 0 0 0 .21-.49l.02-.1v-.03l.01-.01v-.07l.01-.03v-.16a1.02 1.02 0 0 0-.16-.38c-.13-.22-.3-.4-.48-.57a10 10 0 0 0-1.14-.9c-.78-.55-1.59-1.04-2.4-1.5l-.02-.02-.03-.01a23.69 23.69 0 0 1-.62-.36 8.15 8.15 0 0 0-.66-.32 4.12 4.12 0 0 0-1.1-.3h-.2l-.1.03a.27.27 0 0 0-.07.02.24.24 0 0 1-.03.01h-.01v.01h-.02l-.01.01-.4.27.48.04a3.04 3.04 0 0 1 2.34 1.4c.06.1.1.2.13.3v.36c0 .14.03.28.05.4l.06.21a9.47 9.47 0 0 1 .13.68v.14a1 1 0 0 1-.13.3 5.69 5.69 0 0 1-.9 1.14c-.05.06-.1.11-.17.16a.8.8 0 0 0-.17-.37c-.08-.1-.23-.11-.31-.02-.07.07-.08.17-.1.26v.03a4.4 4.4 0 0 0-.04.37l-.01.04c-.01.1-.02.2.03.28a2.54 2.54 0 0 0-.09.2 2.15 2.15 0 0 1-.06.1H29.48l-.75.02h-.83l-.08-.04h-.03v-.02l.03-.11v-.02c.04-.1.09-.19.14-.27a.47.47 0 0 1 .1-.1l.04-.03h.03l.03-.02.28-.04.05-.01h.01l.38-.06c.14-.04.29-.1.41-.18.07-.04.12-.1.18-.15a1.9 1.9 0 0 0 .33-.53 4.75 4.75 0 0 0 .36-1.14c.02-.13.02-.27.01-.41a1.22 1.22 0 0 0-.1-.44.8.8 0 0 0-.14-.2l-.04-.05-.03-.02-.01-.01-.01-.01-.04-.03-.04-.03a5.1 5.1 0 0 0-.13-.1c.25.02.55-.05.63-.18.03-.05.01-.14 0-.2l-.06-.22-.06-.2c-.05-.24-.17-.3-.34-.13a.48.48 0 0 0-.14.22l-.04.15c-.03.16-.06.32-.22.4l-.05-.03-.09-.06-.43-.3a7.57 7.57 0 0 1-1.09-.95l-.22-.29c-.08-.1-.16-.22-.27-.31a1.74 1.74 0 0 0-1.13-.49 2.63 2.63 0 0 0-1.27.3l-.08.04-.16.07-.22.1a6.31 6.31 0 0 0-.34.13 15.4 15.4 0 0 1-1.03.28.9.9 0 0 1-.25-.3c-.08-.13-.15-.3-.2-.45-.05-.16-.09-.34-.12-.5l-.03-1c.07.12.16.22.28.3.12.07.25.1.4.1.13 0 .25-.02.35-.07a.9.9 0 0 0 .45-.54 1.17 1.17 0 0 0 0-.78.91.91 0 0 0-.2-.32.9.9 0 0 0-.28-.22.83.83 0 0 0-.77.02.83.83 0 0 0-.28.28V28H22s-.04 2.98 0 3.39c.04.43.13.87.28 1.27.03.1.04.2.05.28.02.11.03.22.08.33l.16.38a23.54 23.54 0 0 1 .2.47l.01.06v.04l.01.02v.13c-.01.18-.07.37-.13.57l-.23.58-.23.6-.1.31a7.81 7.81 0 0 0-.1.45c-.23.17-.43.39-.54.65H19.9v-.01c0-.06.02-.12.05-.17a.57.57 0 0 1 .21-.27c.05-.03.1-.04.15-.05H20.48c.08.02.17.03.28.02.05 0 .1-.02.16-.04a.67.67 0 0 0 .16-.1.69.69 0 0 0 .17-.27 5.53 5.53 0 0 0 .14-.72l.03-.26v-.03c.02-.06.02-.13.03-.21 0-.18-.02-.36-.05-.52-.08-.33-.2-.64-.35-.93-.14-.29-.3-.56-.45-.84a112.78 112.78 0 0 0-.82-1.38l.03-.15c.07-.33.17-1.04.17-1.04V29.64c.08.12.17.22.29.3.11.07.25.1.4.1.13 0 .25-.02.35-.07a.9.9 0 0 0 .45-.54 1.17 1.17 0 0 0 0-.78.91.91 0 0 0-.2-.32.9.9 0 0 0-.28-.22.86.86 0 0 0-.37-.11.8.8 0 0 0-.4.13.83.83 0 0 0-.28.28V28h-.35s-.03 2.25-.06 2.57c-.03.32-.08.64-.14.94l-.05.2-.02.01.01.01v.02a3.9 3.9 0 0 1-.06.23l-.15.45-.05.14-.03.1c-.03.1-.05.19-.06.3a1.3 1.3 0 0 0 .11.6v.01l.02.02c.08.1.13.2.14.26 0 .03 0 .05-.02.09a.3.3 0 0 1-.02.06l-.05.1c-.14.27-.22.56-.28.84-.05.29-.08.58-.09.87V36.13l.01.12.01.1.01.11.02.2c0 .12 0 .25-.02.36a.84.84 0 0 1-.1.3.47.47 0 0 1-.07.08.25.25 0 0 1-.1.05h-1.71l.02-.07.01-.03.03-.03a.63.63 0 0 1 .14-.08l.05-.02c.11-.05.25-.11.38-.2a1.68 1.68 0 0 0 .4-.37c.06-.09.1-.18.13-.26v-.02a.67.67 0 0 0 .05-.16v-.03l.01-.07a3.35 3.35 0 0 0 .03-.8l.05.05c.02-.06.06-.12.09-.17.07-.12.13-.22.11-.3-.03-.13-.13-.23-.22-.34a2.89 2.89 0 0 1-.1-.1H18l-.1-.64-.17-.89c-.13-.58-.27-1.17-.43-1.74l-.04-.17-.17-.03c-.05 0-.1-.02-.14-.03l-.15-.02a5.93 5.93 0 0 1-.16-.04l-.13-.03a10.93 10.93 0 0 1-1.15-.33l-.15-.06-.15-.06-.07-.03-.07-.03-.14-.07a12.07 12.07 0 0 1-2.19-1.38 14.8 14.8 0 0 1-1-.82 15.11 15.11 0 0 0 3 2.56l.14.09.07.04.07.04.15.09.15.07a4.56 4.56 0 0 0 1.4.47l.13.03.14.03a34.12 34.12 0 0 1 .54 2.42c.05.28.1.57.13.86a7.34 7.34 0 0 1 .02 1.26v.05l-.02.04-.02.08a.54.54 0 0 1-.06.12 1.48 1.48 0 0 1-.25.24l-.27.14-.05.02-.04.02c-.07.03-.16.08-.25.15a.78.78 0 0 0-.12.12.59.59 0 0 0-.1.16.84.84 0 0 0-.04.32l.01.26.03.24h.24l1.64-.01h.34l.14-.03a.8.8 0 0 0 .47-.37c.1-.16.14-.33.17-.49.02-.16.02-.31.02-.46l-.02-.22-.01-.1a.7.7 0 0 1 0-.05l-.01-.05v-.1l-.01-.1v-.19a5.24 5.24 0 0 1 .16-1.15l.13-.35.05-.09.06-.13c.03-.1.04-.2.03-.31a.79.79 0 0 0-.1-.28 1.83 1.83 0 0 0-.11-.18.7.7 0 0 1-.07-.34c.01-.1.05-.23.1-.36l.01-.06.05-.14.04-.14.14.24.3.5.19.3.45.81c.13.28.25.55.31.84a1.51 1.51 0 0 1 .02.63l-.03.23v.02l-.06.43c-.02.07-.03.14-.06.2a.34.34 0 0 1-.07.12.1.1 0 0 1-.03.03.42.42 0 0 1-.07.01l-.18-.01-.07-.01H20.3c-.1.02-.2.06-.29.11-.17.11-.3.27-.37.44a1.09 1.09 0 0 0-.08.44c0 .06.02.11.04.18l.05.12h2.19c.06-.01.14-.03.22-.07a.37.37 0 0 0 .1-.08.5.5 0 0 0 .09-.1l.06-.2.04-.2.02-.13a5.69 5.69 0 0 1 .22-.89l.22-.57.24-.62a6.07 6.07 0 0 0 .16-.66 1.19 1.19 0 0 0 0-.2v-.02l-.02-.06-.02-.1a18.87 18.87 0 0 1-.38-.9c-.05-.1-.06-.2-.08-.31a1.4 1.4 0 0 0-.05-.26c-.1-.3-.18-.59-.22-.9l.01.03.05.08c.05.09.11.17.18.25.08.08.16.15.26.2l.06.04.06-.02a11.57 11.57 0 0 0 1.13-.3l.24-.1.36-.13.18-.1.08-.04.04-.02c.02 0 .03 0 .04-.02.21-.1.44-.17.66-.2.23-.03.46-.02.67.05.21.06.4.17.56.33.09.08.16.16.22.26a5.2 5.2 0 0 0 .8.87c.3.27.64.5.98.74a41.99 41.99 0 0 1 .53.38l.07.05.01.01.01.01.01.02h.01c.03.04.06.08.07.12a.9.9 0 0 1 .07.29l-.01.34a3.49 3.49 0 0 1-.52 1.35l-.07.09-.11.1a.83.83 0 0 1-.28.1 3.2 3.2 0 0 1-.51.08h-.03l-.21.06h-.03l-.03.02h-.03a.47.47 0 0 0-.12.07l-.03.02-.16.18c-.1.12-.16.25-.21.39a.88.88 0 0 0-.05.23.52.52 0 0 0 .03.24l.01.01.05.08.08.08a.46.46 0 0 0 .11.04h.04l.02.01h.06l.2.02h.75l.75-.02h.35l.1-.03a.4.4 0 0 0 .14-.12l.07-.1a3.16 3.16 0 0 0 .1-.2c.04-.1.09-.2.15-.26a.32.32 0 0 1 .1-.07l.02-.01.03-.02.02-.01.01-.01h.01l.01-.01.02-.01.02-.02.02-.01.02-.02c.12-.09.2-.18.3-.27l.26-.29a6.44 6.44 0 0 0 .78-1.14.9.9 0 0 0 .06-.2l.01-.07v-.18l-.01-.2a3 3 0 0 0-.09-.4l-.01-.04-.08-.32v-.01a2.1 2.1 0 0 1-.05-.32V33.32l-.01-.12a.97.97 0 0 0-.07-.2l-.1-.2c-.13-.23-.3-.43-.48-.6l.42.23c.65.37 1.3.74 1.93 1.15 1.05.69 2.03 1.5 2 2.05-.03.74-.47 1.01-.77 1.1l-.07.02-.08.01-.12.02h-.02a.4.4 0 0 0-.2.09c-.07.04-.11.1-.15.17a.78.78 0 0 0-.08.4c0 .13.04.27.13.39l.03.03H35.05l.4.01h.2c.06 0 .13 0 .2-.02.14-.02.28-.07.4-.15.13-.08.23-.18.32-.28a3.36 3.36 0 0 0 .14-.16v-.01l.03-.03h.01l.01-.02.03-.02.04-.04.29-.31a1.26 1.26 0 0 0 .22-.83 3.27 3.27 0 0 0-.07-.45Zm-2.77 1.24c-.02 0-.02 0 0 0Zm-12.65.71.02-.02.01-.02-.03.05Zm14.66-1.03Zm-14.09-7.75c.02-.05.04-.1.08-.15a.78.78 0 0 1 .13-.12.5.5 0 0 1 .56-.06c.07.03.14.08.2.14.05.06.1.13.12.21a.72.72 0 0 1-.11.71.52.52 0 0 1-.59.17.84.84 0 0 1-.16-.09.84.84 0 0 1-.13-.13.83.83 0 0 1-.1-.17v-.5Zm-2.42.02c.02-.05.04-.1.08-.15a.78.78 0 0 1 .13-.12l.16-.08a.5.5 0 0 1 .4.02c.08.04.14.08.2.14.05.06.1.13.12.21a.72.72 0 0 1-.1.72.52.52 0 0 1-.42.2.44.44 0 0 1-.18-.04.85.85 0 0 1-.16-.09.85.85 0 0 1-.13-.13.83.83 0 0 1-.1-.16v-.52Zm-1.12-1.26a1.3 1.3 0 0 0-.39-.35 1.05 1.05 0 0 0-1-.01c-.16.08-.3.2-.4.33a1.7 1.7 0 0 0-.36 1.04c0 .2.03.38.1.56.05.18.14.34.24.48.12.15.24.26.4.34.15.09.32.13.5.13s.35-.04.5-.12c.15-.08.28-.2.4-.33a1.7 1.7 0 0 0 .27-1.6 1.57 1.57 0 0 0-.26-.47Zm-.14 1.42c-.04.13-.09.24-.16.35a.78.78 0 0 1-.26.24c-.1.06-.21.1-.34.1a.65.65 0 0 1-.34-.09.82.82 0 0 1-.26-.24 1.1 1.1 0 0 1-.16-.35 1.41 1.41 0 0 1 .15-1.15c.07-.1.16-.18.26-.24s.22-.1.34-.1c.13 0 .24.04.34.1.1.06.19.13.26.23s.12.22.16.34c.04.14.06.27.06.41.01.14 0 .27-.05.4Zm6.67-.82A1.03 1.03 0 0 0 25 28a1.03 1.03 0 0 0-.73.3 1 1 0 0 0-.27.7.98.98 0 0 0 .27.7c.09.1.2.16.31.22.13.05.26.08.42.08a1.03 1.03 0 0 0 .73-.3A1 1 0 0 0 26 29a.98.98 0 0 0-.27-.7.98.98 0 0 0-.32-.22Zm.13 1.18a.6.6 0 0 1-.3.35.52.52 0 0 1-.24.04.53.53 0 0 1-.23-.05.63.63 0 0 1-.19-.13.61.61 0 0 1-.12-.2.72.72 0 0 1 .13-.72c.05-.06.11-.11.18-.14a.53.53 0 0 1 .64.14c.06.05.1.12.13.2a.74.74 0 0 1 0 .5Zm.91-1.24V30h.4v-1.21a.6.6 0 0 1 .27-.3c.12-.07.26-.1.42-.11V28H27.43a.54.54 0 0 0-.34.13 1 1 0 0 0-.26.33v-.44h-.38Zm1.59 1.7c.02.07.06.12.1.16l.14.1.18.02c.11 0 .2-.02.3-.06.09-.03.16-.06.21-.1l-.09-.36a.72.72 0 0 1-.11.06.41.41 0 0 1-.16.03.2.2 0 0 1-.15-.06c-.04-.03-.06-.1-.06-.17V28.1h.43v-.37h-.43V27H28v.73h-.26v.37H28v1.4c0 .09.01.16.04.23ZM29.17 28v1.2c0 .27.05.46.15.6.1.13.25.2.46.2.16 0 .32-.03.46-.1a.89.89 0 0 0 .33-.33l.01.2c.02.13.1.2.26.21h.08l.12-.02v-.35c-.04 0-.07-.01-.1-.03l-.02-.1V28h-.4v1.22a.72.72 0 0 1-.25.32c-.1.07-.2.1-.33.1-.24 0-.36-.17-.36-.52V28h-.41Zm4.01 2v-1.2c0-.1 0-.2-.02-.3a.8.8 0 0 0-.1-.26.46.46 0 0 0-.17-.18.55.55 0 0 0-.28-.06 1 1 0 0 0-.47.11.79.79 0 0 0-.32.31v-.39h-.37V30h.4v-1.17a.84.84 0 0 1 .1-.19.8.8 0 0 1 .14-.15c.05-.04.1-.07.17-.09a.47.47 0 0 1 .18-.03c.11 0 .2.03.25.12.06.08.1.22.1.4V30h.4Zm.82-3h-.36v.48H34V27Zm1.41 1.33V28H35v-1h-.42v1h-.26v.33h.26v1.17c0 .09.01.16.04.23.02.06.06.11.1.15.04.04.1.07.15.1l.18.02c.1 0 .2-.02.29-.06.09-.03.16-.06.21-.1l-.08-.36a.72.72 0 0 1-.12.05.41.41 0 0 1-.16.04.2.2 0 0 1-.15-.06c-.04-.03-.04-.1-.04-.17v-1.01h.41Zm1-1.3H36v.45h.4v-.45Zm0 .97H36v2h.4v-2Zm1.96.3a1.02 1.02 0 0 0-1.14-.22.97.97 0 0 0-.52.54 1.04 1.04 0 0 0 .2 1.09 1 1 0 0 0 .73.3c.2-.01.39-.06.54-.15a.8.8 0 0 0 .33-.36l-.35-.1a.41.41 0 0 1-.08.12.43.43 0 0 1-.12.1.65.65 0 0 1-.3.07.64.64 0 0 1-.22-.04.62.62 0 0 1-.31-.3.7.7 0 0 1-.06-.23h1.55v-.14c0-.14-.02-.26-.06-.38a.92.92 0 0 0-.2-.3Zm-1.3.55a.8.8 0 0 1 .05-.22.58.58 0 0 1 .13-.18.53.53 0 0 1 .18-.1.65.65 0 0 1 .43 0 .56.56 0 0 1 .3.28.7.7 0 0 1 .07.22h-1.17Zm10.25-1.9c-.68 1.99-1.57 2.59-2.51 2.64a9.1 9.1 0 0 1-4.13-1.23 1.98 1.98 0 0 0-1.02-.36c-.38 0-.76.17-.76.59 0 .07.02.14.04.2.03.04.06.09.12.13.05.04.12.07.2.1l.32.1c.17.04.3.08.38.12.08.04.12.1.12.18 0 .09-.03.15-.1.2a.52.52 0 0 1-.3.07c-.23 0-.47-.08-.7-.25l-.17.28.18.11c.08.04.15.07.23.08.08.03.15.05.24.06h.01c.07.02.15.03.22.03a1.13 1.13 0 0 0 .58-.18.53.53 0 0 0 .2-.44.47.47 0 0 0-.04-.21.45.45 0 0 0-.13-.15.83.83 0 0 0-.24-.12h-.02a6.8 6.8 0 0 0-.48-.14h-.05a.56.56 0 0 1-.13-.06.18.18 0 0 1-.07-.08.2.2 0 0 1-.02-.1c0-.18.16-.23.37-.23.3 0 .5.14.73.28l.12.08a10.48 10.48 0 0 0 3.87 1.29c.31.04.63.05.95.02.32-.03.64-.1.94-.24.3-.13.57-.35.77-.61.2-.27.34-.57.43-.88l.04-.16.02-.08a1 1 0 0 0 .02-.11v-.06l.06-.27.02-.12.03-.1a2.7 2.7 0 0 1 1.68-1.89 6.14 6.14 0 0 1 2.64-.3v.01c-.27-.11-3.54-1.45-4.66 1.8Zm-26.1 6.8a.62.62 0 0 1-.04.07c0 .06.02.1.03.15.02.13.05.24.09.34.04.1.1.2.15.29l.08.13.14-.12c.1-.06.18-.13.26-.2.1-.12.2-.28.06-.44-.1-.13-.23-.26-.37-.35a.34.34 0 0 0-.29-.01c-.05.02-.08.08-.11.14Zm11.96-2.53-.11.22c-.08.16-.15.3-.25.34-.2.07-.28-.1-.36-.27l-.06-.13c-.1-.16-.1-.36.04-.47.1-.08.3-.13.4-.08.1.03.15.12.22.23l.12.16Zm-5.14-.03c0 .37-.13.61-.29.62-.18 0-.46-.4-.45-.66 0-.19.1-.31.27-.36.19-.04.35.02.43.2.03.06.04.13.04.17v.03Zm-9.82.33h.05l.41.16-.06.12-.14.22c-.12.13-.25.24-.39.33a.3.3 0 0 1-.26 0c-.06-.02-.1-.14-.1-.22.06-.4.2-.67.5-.61Zm13.22 3.77c0 .18-.05.3-.26.3-.27.01-.55-.2-.55-.42 0-.23.17-.45.35-.46.23-.01.46.27.46.58Zm-8.42-3.83.08-.19.23-.46c.04-.08.1-.15.16-.2.15-.1.24-.06.26.12v.08l.03.16c.07.3.05.36-.25.45l-.07.02c-.15.06-.31.1-.44.02Zm12.82 2.4s.16-.15-.25-.4h-.01c-.04-.03-.08-.05-.12-.05-.1 0-.13.15-.13.25v.26c0 .03 0 .06.02.08l.07.01c.13 0 .27-.03.4-.08l.03-.03-.01-.02v-.01Zm-.36-.19h.01l-.01.08v-.08Z" fill="#1A253B"/></svg>