<?xml version='1.0' encoding='utf-8'?>
<!-- by TradeStack -->
<svg width="56" height="56" viewBox="0 0 56 56" xmlns="http://www.w3.org/2000/svg"><path d="M0 28a28 28 0 1 1 56 0 28 28 0 1 1-56 0Z" fill="#F0F3FA" /><path d="M34.02 12.85a4.3 4.3 0 0 0-3.45 1.83c-.19.26-.34.58-.43.9a3.69 3.69 0 0 0 .6 3.2c.52.71 1.2 1.24 1.78 1.71.3.23.9.8 1.1 1.05.3.37.53.59.8 1.4.16.49.18 1.13.1 1.5 1.86-1.87 3.88-4.3 3.88-6.93 0-3.03-2.18-4.66-4.38-4.66Z" fill="#E2211C" /><path d="M30.57 23.1c-.77-1.05-1.67-1.69-2.41-2.36-.32-.29-.68-.5-.94-.76a5.07 5.07 0 0 1-1.54-4.64 4.84 4.84 0 0 1 1.86-3.15A6.24 6.24 0 0 0 23.8 11c-3.54 0-6.49 2.82-6.4 6.3.16 6.26 8.07 11.6 11.33 12.7a4.74 4.74 0 0 0 2.67-4.24c0-1.24-.53-2.26-.83-2.66Z" fill="#B4BD00" /><path d="M11.87 38.27c-.63 0-1.52-.42-1.97-.74L9 39.11c.43.35 1.5.89 2.79.89 1.82 0 3.1-1.04 3.1-2.67 0-1.2-.81-1.68-1.6-2.01l-.23-.1c-.68-.28-1.07-.45-1.07-.96 0-.42.34-.6.79-.6.55 0 1.12.34 1.64.79l1.14-1.23a3.67 3.67 0 0 0-2.7-1.22c-1.74 0-2.94.88-2.94 2.55 0 1.25.77 1.73 1.53 2.03l.23.09c.57.22 1.09.42 1.09.88 0 .54-.42.72-.9.72Zm14.9-4L25.74 40h1.8l1.03-5.74h-1.8Zm2.07-1.41a.83.83 0 0 0-.87-.86c-.7 0-1.2.54-1.2 1.17 0 .48.31.83.86.83.68 0 1.21-.5 1.21-1.14Zm16.12 2.52c-.13-.05-.3-.09-.51-.09-1 0-1.45 1.52-1.45 2.43 0 .53.16.96.7.96.4 0 .67-.24.78-.63l.48-2.67Zm1.22 3.26V40h-1.63v-.69h-.06a2 2 0 0 1-1.6.69c-1.22 0-1.89-.87-1.89-2.07 0-2.27 1.43-3.93 3.81-3.93.48 0 1.33.11 2.19.44l-.82 4.2Zm-27.12-1.55c.07-.35.1-.67.1-.91 0-.53-.18-.85-.57-.85-.52 0-.86.5-1.03 1.42-.07.35-.1.73-.1 1.02 0 .48.13.88.54.88.55 0 .87-.48 1.06-1.56ZM18.91 34c.79 0 2.18.3 2.18 2.13 0 .25-.01.53-.06.83-.34 2.17-1.72 3.04-3.3 3.04-1.39 0-2.17-.8-2.17-2.21 0-.27.01-.59.07-.9.41-2.32 2-2.89 3.28-2.89Zm15.91 6 .78-4.66.07-1.34h1.5l.01.8c.43-.5.99-.8 1.72-.8.9 0 1.44.43 1.45 1.41 0 .18-.02.41-.06.63L39.62 40h-1.8l.56-3.4.01-.08c.03-.17.07-.4.07-.59 0-.22-.08-.47-.4-.47-.48 0-.75.36-.82.84l-.62 3.7h-1.8Zm-2.55-4.7c.2 0 .39.03.51.08l-.48 2.67c-.11.4-.39.63-.77.63-.55 0-.68-.43-.68-.96 0-.9.3-2.43 1.42-2.43ZM34 40v-1.36l.82-4.2a6.54 6.54 0 0 0-2.19-.44c-2.38 0-3.79 1.69-3.79 3.95 0 1.2.66 2.05 1.88 2.05a2 2 0 0 0 1.6-.7l.05.01V40H34Zm-10.73 0H21.5l.77-4.73.05-1.27h1.41l.03.98c.4-.72.94-.98 1.39-.98.3 0 .63.08.84.23l-.5 1.58c-.2-.11-.46-.2-.72-.2-.46 0-.82.3-.91.83l-.6 3.56Z" fill="#E2211C" /></svg>