<?xml version='1.0' encoding='utf-8'?>
<!-- by TradeStack -->
<svg width="56" height="56" viewBox="0 0 56 56" xmlns="http://www.w3.org/2000/svg"><path fill="#F0F3FA" d="M0 0h56v56H0z" /><path d="M38.02 25.84c-.2.92-.53 1.7-1 2.35l-1.18 1.11a5.1 5.1 0 0 1-3.58.8c.5-.28.98-.62 1.45-1a5.32 5.32 0 0 0 1.84-5.7c-.43-1.62-1.39-2.5-2.8-3.42l-.02-.01a1.66 1.66 0 0 1-.02.04h-.01c-.69-.3-1.4-.45-2.12-.65-.26-.07-.54-.1-.85-.08.86-3.01 1.01-6.38-.3-9.25V10a.02.02 0 0 1 .04 0 47.24 47.24 0 0 1 5.72 7.13c1.69 2.56 3.1 5.7 2.83 8.71Z" fill="#AA2C29" /><path d="m29.53 20.04-.73 2c-.17-.13-.5-.13-.68-.17a28.86 28.86 0 0 0-3.57-.59c-.82-.08-2.22 0-2.14 1.18.03.43.15.77.37 1.04 2.9 4.87 7.85 8.91 13.57 9.31.47.04 1.01-.04 1.62-.24 1.3-1.06-.14-3.12-.94-4.38.46-.65.79-1.43 1-2.35a24.08 24.08 0 0 1 3.4 3.61v.07c-.06.49 0 1.36-.24 1.75-.03.05-.02.1.03.13.64.54 1.35.97 2.11 1.31.04.02.08.05.1.1a4 4 0 0 1 .46 1.3l-.07 1.47a.23.23 0 0 1-.13.19.23.23 0 0 1-.23-.02c-.35-.25-3.17-1.69-2.72-.09.18.64.5 1.08.96 1.31.03.1.1.18.22.24.05.03.07.07.06.13l-.3 1.4-.02.38c-.28.18-.6.3-.98.35-1.1.09-2.17.06-3.19-.07.11-.54.24-1.05.38-1.52.22-.68-.13-1.06-.67-1.42-1.22-.8-2-1.39-3.42-1.21-.05 0-.08.04-.09.1l-.03.55a.14.14 0 0 1-.07.11.13.13 0 0 1-.14 0c-.5-.37-1.12-.47-1.6-.74a29.8 29.8 0 0 1-.82-.47.24.24 0 0 0-.36.2c-.02.56.3.59.57.93.54.65 1.16 1.04 1.06 2.02a45.22 45.22 0 0 1-5.05-2.58c-.05-.03-.07-.07-.05-.12.07-.18.07-.33 0-.44l-.03-.15c.16.03.28-.05.36-.25.22-.52.63-1.37.42-1.89-.36-.93-1.52-1.68-2.65-2.52a.26.26 0 0 0-.13-.05c-.58-.04-1.52-.07-2-.43-1.2-.9-2.19-2.12-3.2-3.22a2.03 2.03 0 0 1-.41-.75c.33.33.7-.03.91-.27a.14.14 0 0 0 .02-.14c-.42-1.17-1.66-2.49-2.97-2.71-.05-.01-.08 0-.1.05l-1.05 1.86c-.82-1.97.02-3.23.78-5.07.02-.05.05-.07.1-.04l.72.43a.1.1 0 0 0 .09.01.1.1 0 0 0 .06-.06l.68-1.75a.33.33 0 0 1 .24-.2 9.32 9.32 0 0 1 3.64-.02c.04.01.08.03.1.07.73.87 1.61 1.52 2.66 1.94.46.19 2.15.57 1.61-.64-.03-.08 0-.1.07-.07l2.41 1.1Zm-10.45-.32a.17.17 0 0 0 .06.24c.29.17.59.2.9.07a.14.14 0 0 0 .08-.1c.07-.43-.26-.9-.68-.62-.12.09-.24.22-.36.41Zm7.5 9.59c-2.06-1.63-5.22-4.57-5.44-7.24-.1-1.14.89-1.53 1.88-1.53.75 0 1.5-.03 2.22.11.87.17 2.21.44 2.98.88.07.04.15.03.23-.06a.11.11 0 0 0-.05-.19c-1.54-.44-6.25-2.04-7.36-.15-1.42 2.42 4.03 7.3 5.36 8.4a25.97 25.97 0 0 0 6.1 3.72c1.95.87 4.39 1.44 6.35.76 2.81-.98.21-4.85-1-6.14a.12.12 0 0 0-.2.05l.04.09c.9 1.34 3.9 4.98.63 5.83-3.15.81-6.93-1.09-9.52-2.77-.76-.5-1.52-1.21-2.21-1.76Z" fill="#0272BB" /><path d="M19.08 19.72c.12-.19.24-.32.36-.4.42-.29.75.18.68.6a.14.14 0 0 1-.08.1c-.31.14-.61.11-.9-.06a.17.17 0 0 1-.08-.11.17.17 0 0 1 .02-.13Z" fill="#105EAC" /><path d="M29.73 19.28c.31-.02.6 0 .85.08.71.2 1.43.34 2.12.65h.01l.02-.04.03.01c1.4.92 2.36 1.8 2.8 3.42.57 2.2-.1 4.29-1.85 5.7-.47.38-.95.72-1.45 1a5.13 5.13 0 0 1-4.2-5.92c.17-.7.41-1.42.74-2.13l.73-2 .2-.77Z" fill="#DB272A" /><path d="M21.14 22.07c.22 2.67 3.38 5.6 5.45 7.24.7.55 1.45 1.26 2.21 1.76 2.6 1.68 6.37 3.58 9.52 2.77 3.28-.85.27-4.49-.63-5.83l-.04-.1a.12.12 0 0 1 .15-.07c.02 0 .04.01.05.03 1.21 1.29 3.81 5.16 1 6.14-1.96.68-4.4.1-6.35-.76a25.97 25.97 0 0 1-6.1-3.71c-1.33-1.11-6.78-6-5.36-8.41 1.11-1.9 5.82-.3 7.36.15a.11.11 0 0 1 .08.08.12.12 0 0 1-.03.11c-.08.09-.16.1-.23.06-.77-.44-2.1-.7-2.98-.88-.73-.14-1.47-.11-2.22-.11-1 0-1.97.4-1.88 1.53Z" fill="#105EAC" /><path d="M28.8 22.05a11.4 11.4 0 0 0-.74 2.13 12.12 12.12 0 0 0-5.28-.68 1.78 1.78 0 0 1-.37-1.04c-.08-1.18 1.32-1.26 2.13-1.18 1.2.12 2.4.32 3.58.59.17.04.5.04.68.18ZM19.56 25.55c-.16-.12-.26.02-.31.4 0 .04-.03.08-.07.1l-.2.13a7.67 7.67 0 0 0-2.47-1.57.2.2 0 0 1-.1-.1c-.06-.08-.07-.14-.04-.17l1.04-1.86a.1.1 0 0 1 .11-.05c1.3.22 2.55 1.54 2.97 2.7a.14.14 0 0 1-.02.15c-.2.24-.58.6-.91.27Z" fill="#0187CB" /><path d="M19.56 25.55c.1.3.24.56.4.75 1.02 1.1 2 2.33 3.2 3.22.48.36 1.43.39 2 .43.05 0 .1.02.14.05 1.13.84 2.3 1.59 2.65 2.52.2.52-.2 1.37-.42 1.9-.08.2-.2.27-.36.24-.2-.42-.48-.79-.85-1.09-.88-.83-2.38-1.67-3.68-1.45-.05.01-.09 0-.13-.03a29.3 29.3 0 0 1-4.1-4.18.1.1 0 0 1-.02-.12c.24-.46.44-.93.62-1.4.03-.08.02-.15-.03-.21l.2-.13a.14.14 0 0 0 .07-.1c.05-.38.15-.52.3-.4Z" fill="#105EAC" /><path d="M37.02 28.19c.81 1.26 2.26 3.32.95 4.38a8.83 8.83 0 0 0-2.13-3.27l1.18-1.11Z" fill="#224CA0" /><path d="M26.32 33.57c.37.3.65.67.85 1.09l.03.15c-.2.02-.36.1-.55.09-1.52-.04-7.98.37-8.68 1.95a.15.15 0 0 0 0 .13c.44.76 4.45 1.58 5.45 1.74 2.38.38 4.77.5 7.18.34 1.76-.12 3.5-.48 5.22-1.08.57.28 1.13.75 1.67 1.42 1.02.13 2.08.16 3.2.07-1.13.62-1.89.46-3.09.33a6.63 6.63 0 0 0-3.07.38.1.1 0 0 0-.06.12c.04.15.12.28.25.36.08.05.08.09-.02.1-2.03.2-4.06.27-6.1.23a.24.24 0 0 1-.13-.04c-1.13-.8-3.37-.75-4.68-.53-.35.06-.72.33-1.05.3a44.93 44.93 0 0 1-5.43-.86.07.07 0 0 1 .02-.1l.5-.2a.22.22 0 0 0 .13-.2.22.22 0 0 0-.12-.2c-1.12-.55-2.64-.56-3.86-.44-.61.06-1.59-.85-1.95-1.33a.16.16 0 0 1 .05-.24.16.16 0 0 1 .09-.02c.44.01 2.37 0 2.57-.5a.25.25 0 0 0-.15-.34 7.38 7.38 0 0 0-1.93-.41l-.01-.03v-.03l.02-.02c.81-.46 2.55-1.33 3.48-1.17 1.01.18 3.58.38 4.44-.25a.1.1 0 0 0 .04-.06.1.1 0 0 0-.02-.07l-.2-.33a.08.08 0 0 1-.01-.08.08.08 0 0 1 .07-.05l5.85-.22Z" fill="#C8C8C9" /><path d="M43.9 34.1c.31 1.03-.12 2.58-.55 3.53-.02.05-.06.06-.1.04l-1.55-.7c-.46-.23-.78-.67-.96-1.3-.45-1.6 2.37-.17 2.72.08a.23.23 0 0 0 .23.02.23.23 0 0 0 .13-.2l.07-1.47ZM37.5 39.4a5.06 5.06 0 0 0-1.68-1.42 3.95 3.95 0 0 0-2.29-.77.24.24 0 0 0-.22.17l-.25.77c-.01.04-.04.06-.08.04l-.68-.24c.1-.98-.52-1.37-1.06-2.02-.28-.34-.6-.37-.57-.92a.25.25 0 0 1 .12-.2.24.24 0 0 1 .24 0l.82.46c.48.27 1.1.37 1.6.73a.13.13 0 0 0 .21-.1l.03-.55c0-.06.04-.1.1-.1 1.4-.18 2.19.42 3.4 1.21.55.36.9.74.68 1.42-.14.47-.27.98-.38 1.52Z" fill="#224CA0" /><path d="m41.66 39.12.02-.38c.22-.05.4-.05.52 0a.08.08 0 0 1 .05.09.08.08 0 0 1-.07.07c-.26 0-.44.08-.52.22Z" fill="#C8C8C9" /><ellipse cx="30.73" cy="24.97" rx="2.02" ry="2.04" fill="#F0752F" /></svg>