<?xml version='1.0' encoding='utf-8'?>
<!-- by TradeStack -->
<svg width="56" height="56" viewBox="0 0 56 56" xmlns="http://www.w3.org/2000/svg"><path fill="#F0F3FA" d="M0 0h56v56H0z" /><path d="m38.94 32.62.84.98c2.47-2.12 7.04-5.92 10.22-7.6l-.63-1.15c-3.27 1.78-7.92 5.62-10.43 7.77ZM6 36.6l.71 1.1 8.8-6-.75-1.1-8.76 6Z" fill="#6D7FB2" /><path d="M13 17h31v22H13V17Z" fill="#115293" /><path d="m28.08 21.81-7.41 9.3A788.3 788.3 0 0 1 23 23.83s-4.6 4.65-6.45 6.55c.3-1.1 1.17-3.89 1.17-3.89L6 34.36l.71 1.1 8.72-5.88-1.64 5.4 6.29-6.33c-.75 2.37-2.85 8.87-2.85 8.87l9.1-11.44c-1.14 2.91-3.4 8.49-3.4 8.49s4.73-4.1 6.62-5.7c-.75 2.2-2.9 8.36-2.9 8.36s4.87-5.66 7.3-8.45l-3.48 7.3s5.62-5.06 7.46-6.67a495.2 495.2 0 0 0-1.17 4.65l1.55-1.44c.08-.04 7.29-6.5 11.69-8.86l-.63-1.14c-3.27 1.77-7.96 5.61-10.35 7.68.34-1.3 1.17-4.69 1.17-4.69l-5.74 5.16 4.86-10.22s-6.87 7.98-9.26 10.72c.76-2.07 2.27-6.58 2.27-6.58l-6.16 5.4c1.09-2.83 4.65-11.7 4.65-11.7l-2.73 3.42Z" fill="#A6B1D1" /><path d="M27.2 28.81c0 4.62-1.25 7.18-3.14 7.18-2.64 0-3.65-4.07-3.65-7.85 0-4.66 1.26-7.17 3.15-7.17 2.6 0 3.64 4.1 3.64 7.84Zm2.6-.83c0-3.28-1.13-7.98-5.82-7.98-4.24 0-6.16 3.82-6.16 8.94 0 3.32 1.17 8.06 5.82 8.06 4.2 0 6.16-3.86 6.16-9.02ZM33.47 26.77c0-1.2-.04-2.15-.04-2.87 0-.56 0-.82-.34-.82-.42 0-2.01.86-2.51 1.07a.77.77 0 0 1-.3.09c-.04 0-.12-.13-.12-.26s.08-.25.2-.3c.1-.04 4.2-2.82 5-3.42.16-.13.37-.26.54-.26.2 0 .1.21.1.47v9.81c0 2.14.07 4.02.15 5 .04.7.17 1.03.84 1.16.33.09 1.26.17 1.42.17.09 0 .17.05.17.22 0 .13-.08.17-.33.17H30.95c-.25 0-.37-.04-.37-.17 0-.17.08-.22.2-.22.22 0 1.3-.08 1.72-.17.68-.17.8-.47.84-1.15.13-.99.13-2.87.13-5.01v-3.51Z" fill="#F0F3FA" /></svg>