<!-- by TradeStack --><svg width="56" height="56" viewBox="0 0 56 56" xmlns="http://www.w3.org/2000/svg"><path fill="#0794CE" d="M0 0h56v56H0z"/><path fill-rule="evenodd" d="M35 24.24a190.3 190.3 0 0 0-3.82-3.5c-.07-.06-.06-.12.03-.15 2.16-.8 4.1-1.72 5.84-2.75a4 4 0 0 0 1.84-2.1c.08-.21.12-.56.1-1.03v-.44c.05-1.17-.52-2.54-1.7-4.1-.17-.24-.2-.22-.1.05.7 1.88-.16 3.49-2.59 4.8a39.66 39.66 0 0 1-6.57 2.58c-.07.02-.13 0-.17-.06-1.03-1.22-1.32-2.49-.86-3.8a6.62 6.62 0 0 1 2.59-3.08v-.06c-4.07 2.3-5.5 4.94-4.33 7.89.04.07.01.13-.07.16-1.53.57-2.99 1.22-4.38 1.96-.74.4-1.39.9-1.93 1.52-2.1 2.38-2.3 4.91-.63 7.61a12.02 12.02 0 0 0 2.56 2.9l2.95 2.48c.08.07.07.12-.03.15-2.7.94-4.78 2.02-6.24 3.24a3.82 3.82 0 0 0-1.36 4.05 8.53 8.53 0 0 0 1.69 3.42c-.32-1.26-.16-2.29.47-3.09.78-1 2-1.82 3.66-2.47a105.7 105.7 0 0 1 4.96-1.83c.07-.02.14 0 .18.06 1.25 1.68 1.41 3.26.5 4.73-.54.89-1.32 1.6-2.32 2.13-.02 0-.02.02-.01.04 0 .02.02.02.04.02a9.2 9.2 0 0 0 3.6-3.1 5.48 5.48 0 0 0 .67-4.74c-.02-.09 0-.15.1-.18 1.48-.53 2.9-1.18 4.24-1.95a8.5 8.5 0 0 0 3.45-3.27c1.4-2.6.62-5.3-2.36-8.1Zm-7.47 9.67c1.82-.61 3.6-1.3 5.3-2.06.88-.39 1.68-.83 2.38-1.32.1-.07.14-.16.09-.28-.54-1.34-1.75-2.8-3.62-4.38a49.43 49.43 0 0 1-4.01-3.75.18.18 0 0 0-.21-.05c-1.48.56-2.93 1.15-4.38 1.76a15.2 15.2 0 0 0-3.27 1.84c-.06.04-.08.1-.04.16.67 1.36 1.6 2.57 2.79 3.63 1.09.98 2.23 2 3.42 3.04.48.42.95.88 1.39 1.37.04.05.1.06.16.04Z" fill="#E1F2F9"/></svg>