<?xml version='1.0' encoding='utf-8'?>
<!-- by TradeStack -->
<svg width="56" height="56" viewBox="0 0 56 56" xmlns="http://www.w3.org/2000/svg"><path fill="#F0F3FA" d="M0 0h56v56H0z" /><path d="M49 31v-8h-.86c-.69 0-1.14.66-1.14 1.3V33h5v-2h-3ZM40.5 29h2.01l-1-3.02L40.5 29Zm2.22-6L46 33h-2.39l-.51-2h-3.2l-.51 2H37l3.28-10h2.44ZM37 23h-6v2h2v8h2v-8h2v-2ZM28 24.3V33h2V23h-1a.9.9 0 0 0-.7.38c-.2.24-.3.57-.3.92ZM22 29.5h1.38c-.12.96-.94 1.5-1.88 1.5-1.55.04-2.51-1.64-2.5-3-.02-1.33 1.03-3.02 2.57-3 .9 0 1.58.78 1.85 1.6l2.11-.97A4.16 4.16 0 0 0 21.57 23c-2.81-.08-4.6 2.3-4.57 4.97-.05 2.62 1.73 5.06 4.5 5.03 3.23 0 4.48-2.68 4.5-5.5h-4v2ZM7.5 23H4v10h3.5c2.62.02 4.5-2.55 4.5-5s-1.9-5.04-4.5-5Zm-.58 8H6l.01-6h.91c1.6-.02 3.09 1.5 3.08 3 .02 1.51-1.52 3.03-3.08 3ZM13 24.3V33h2V23h-1a.9.9 0 0 0-.7.38c-.2.24-.3.57-.3.92Z" fill="#D80C18" /></svg>