<!-- by TradeStack --><svg width="56" height="56" viewBox="0 0 56 56" xmlns="http://www.w3.org/2000/svg"><path fill="#F0F3FA" d="M0 0h56v56H0z"/><path d="m28.47 35-7.93-9.98L12.67 35h-2.44l10.3-13 10.24 13h-2.3Z" fill="url(#acbtf5hty)"/><path d="m35.72 31.98-.69.87-1.17-1.49 1.86-2.33L40.45 35h-2.31l-2.42-3.02Zm-15.33 0L22.8 35h2.32l-4.73-5.97L15.62 35h2.37l2.4-3.02Z" fill="url(#bcbtf5hty)"/><path d="m32.36 29.47 3.36-4.23L43.54 35h2.26L35.72 22.29l-4.55 5.69 1.19 1.5Z" fill="url(#ccbtf5hty)"/><path d="m35.72 19.95-5.46 6.88-1.2-1.5L35.73 17 50 35h-2.22L35.72 19.95ZM6 35h2.43L20.4 19.95 32.44 35h2.23L20.39 17 6 35Z" fill="url(#dcbtf5hty)"/><defs><linearGradient id="acbtf5hty" x1="20.5" y1="22.58" x2="31.24" y2="32.37" gradientUnits="userSpaceOnUse"><stop offset=".05" stop-color="#2B2B2D"/><stop offset=".34" stop-color="#4B494A"/><stop offset=".5" stop-color="#FBF9FC"/><stop offset=".64" stop-color="#343436"/></linearGradient><linearGradient id="bcbtf5hty" x1="18.16" y1="34.08" x2="37.25" y2="33.9" gradientUnits="userSpaceOnUse"><stop stop-color="#D6BE50"/><stop offset="1" stop-color="#9F773B"/></linearGradient><linearGradient id="ccbtf5hty" x1="34.93" y1="24.51" x2="42.6" y2="32.1" gradientUnits="userSpaceOnUse"><stop offset=".23" stop-color="#2E2E30"/><stop offset=".44" stop-color="#F8F6F5"/><stop offset=".56" stop-color="#343436"/></linearGradient><linearGradient id="dcbtf5hty" x1="15.58" y1="24.25" x2="31.69" y2="40.14" gradientUnits="userSpaceOnUse"><stop stop-color="#7C5B32"/><stop offset=".44" stop-color="#D5C647"/><stop offset=".75" stop-color="#A67E36"/><stop offset="1" stop-color="#997448"/></linearGradient></defs></svg>