<?xml version='1.0' encoding='utf-8'?>
<!-- by TradeStack -->
<svg width="56" height="56" viewBox="0 0 56 56" xmlns="http://www.w3.org/2000/svg"><path fill="#009AD0" d="M0 0h56v56H0z" /><path fill-rule="evenodd" d="M23.13 12h9.74C39.02 12 44 17.3 44 23.77v8.46C44 38.73 39.02 44 32.87 44h-9.74C16.98 44 12 38.7 12 32.23v-8.46C12 17.3 16.98 12 23.13 12Zm9.74 2h-9.74C17.86 14 14 18.17 14 23.73c4.43-.6 10.05-4.57 11-5.3a4.8 4.8 0 0 1 2.73-.87c.97-.02 1.9.34 2.63 1 .66.57 1.23 1.2 1.72 1.74.65.72 1.14 1.27 1.5 1.27.43 0 .88-.25 1.3-.48.21-.11.4-.22.59-.3.54-.2.8-.12 2.26 1.17.79.7 2.85 1 4.27 1.12-.33-5.26-4.07-9.08-9.13-9.08ZM42 31.78c-5.04-.19-14.69.03-15.95.66-1.3.62-.35 1.37.78 2.27 1 .78 2.14 1.68 1.99 2.7-.33 2.12-5.38 3.32-10.17 3.64l-.34-.2a9.58 9.58 0 0 1-3.36-3.87l1.64-.14c3.54-.29 6.23-.5 6.41-1.9.14-1.19-1.17-2.13-2.31-2.96-1.3-.93-2.38-1.71-.87-2.51 1.14-.6 8.59-.55 16-.5L42 29v2.78Z" fill="#fff" /></svg>