<!-- by TradeStack --><svg viewBox="0 0 56 56" xmlns="http://www.w3.org/2000/svg"><path fill="#F0F3FA" d="M0 0h56v56H0z"/><path d="M11.92 34.08a13.82 13.82 0 0 0 4.47-3.8c.3-.4.58-.85.88-1.3l-.45-2.5.07-.03c.15.25.31.5.45.77.13.27.23.53.36.87l1.46-3.94-.78-2.12-.2.44c-.6 1.52-1.2 3.05-1.83 4.57a14.31 14.31 0 0 1-2.09 3.52c-.1.12-.15.35-.4.3a16.89 16.89 0 0 0 1.86-4.44c.32-1.48.83-2.92 1.51-4.28.03-.1.06-.2.07-.3l.01.03.02-.02h-.03a12 12 0 0 0-2.63.64l-1.43 2.98.06.08c.67-.25 1.4-.33 2.1-.22l-2.44 1.02c-.29.83-.47 1.7-.55 2.57a13.99 13.99 0 0 1-1.19 4.8c-.05.13-.13.25-.22.35.13-.57.29-1.15.37-1.73.14-.88.23-1.77.29-2.66.08-1.39.25-2.78.52-4.15.24-1.35.64-2.66 1.2-3.9a14.47 14.47 0 0 1 3.6-4.81 19.76 19.76 0 0 1 6.57-3.98 14.3 14.3 0 0 1 6.08-.79c4.86.45 8.67 2.78 11.47 6.79a16.05 16.05 0 0 1 2.75 7.18c.6 4.6-.6 8.72-3.5 12.31a15.49 15.49 0 0 1-6.85 4.96c-1.18.43-2.42.66-3.67.7-2.36.08-4.68-.22-6.89-1.11a13.44 13.44 0 0 1-6.42-5.29c-.1-.14-.16-.28-.23-.4.82.63 1.61 1.3 2.47 1.9a16 16 0 0 0 6.41 2.65c1.88.32 3.8.24 5.65-.22a15.3 15.3 0 0 0 5.77-2.67 12.3 12.3 0 0 0 4.67-7.4c.34-1.68.42-3.4.23-5.11a13.8 13.8 0 0 0-1.49-5.2 12.17 12.17 0 0 0-5.96-5.55 14 14 0 0 0-6.82-1.22c-1.55.11-3.02.58-4.45 1.19-2.09.86-4 2.1-5.64 3.68-.77.74-1.44 1.58-2 2.5a3.88 3.88 0 0 1 2.37-.1l.24-.45A12.3 12.3 0 0 1 20 18.12c.28-.24.58-.46.89-.66.13-.08.28-.12.43-.14-1.08 1.48-2.16 2.93-2.88 4.6l1.05 1.36L20.65 19h1.9c0 .1 0 .23-.02.33a33.75 33.75 0 0 1-3.55 9.16 14.5 14.5 0 0 1-3.03 3.77c-1 .9-2.21 1.52-3.52 1.8l-.5.02h-.01Z" fill="#E50113"/><path d="m32.22 27.39-.3.35-7 10.82c-.07.12-.15.24-.3.44l-1.8-10.77-.34.47A41.05 41.05 0 0 1 19 33.14a7.58 7.58 0 0 1-4.22 2.24 9 9 0 0 1-2.3.15c.06-.04.13-.08.2-.1a8.34 8.34 0 0 0 4.16-2.46 15.14 15.14 0 0 0 2.76-4.1 47.67 47.67 0 0 0 3.51-9.51l.12-.36h2.63c.28 3.42.51 6.85.85 10.3L33.13 19h2.2l-1.12 13.5H30.9c.11-.42.21-.97.32-1.36l.95-3.44.04-.32c.02-.02.04-.05 0-.01.02-.05.02-.02.01.02ZM36.58 38H34.2l1.55-19h2l.38.02L36.58 38Z" fill="#8C6200"/><path d="M33.87 36.35 33.7 38h-4.32c.47-1.67.92-3.33 1.4-5h3.38l-.15 1.6h-1.45l-.32 1.75h1.62Z" fill="#8C6200"/></svg>