<?xml version='1.0' encoding='utf-8'?>
<!-- by TradeStack -->
<svg width="56" height="56" viewBox="0 0 56 56" xmlns="http://www.w3.org/2000/svg"><path fill="#023D76" d="M0 0h56v56H0z" /><path fill-rule="evenodd" d="M19.1 23.56c-.74.46-1.44.94-2.1 1.44a24 24 0 0 0 1.75-.5l.77-.23a8.2 8.2 0 0 1 .8 3.73c0 3.64-1.68 6.58-5.8 6.58-4.13 0-5.8-2.94-5.8-6.58 0-3.62 1.78-6.58 5.8-6.58 2.13 0 3.63.83 4.57 2.14Zm1.25-.72A9.66 9.66 0 0 0 14.54 21C9.63 20.96 6 24.13 6 27.96c0 3.85 3.41 7 8.54 7.04 5.12.04 8.46-3.2 8.46-7.04 0-1.58-.6-3.03-1.64-4.19 1.16-.27 2.41-.48 3.66-.46 1.58.02 2.72.28 3.85.54 1.63.38 3.25.75 6.16.42 4.94-.55 8.48-5.57 8.97-6.26V18l-.18.16c-1.08.95-4.15 3.66-6.92 3.95-1.37.15-3.07-.16-4.9-.48-1.66-.3-3.43-.62-5.14-.63-2.24 0-4.48.75-6.51 1.84ZM37 27h4.5V28H38v2h3v1h-3v2h3.5v1H37v-7Zm-12 4.26V34h-1v-7h2.95c1.33 0 2.05.9 2.05 2.27 0 .7-.31 1.44-.92 1.74-.1.05-.22.1-.34.13L29.69 34h-1.24l-1.83-2.75H25ZM25 28v2.33h2c.6 0 1-.44 1-1.06 0-.7-.26-1.27-1-1.27h-2Zm7 3.25V34h-1v-7h2.88a2 2 0 0 1 1.85 1c.18.32.27.7.27 1.13a2.03 2.03 0 0 1-2.12 2.13H32ZM32 28v2.32h1.73c.72 0 1.28-.48 1.28-1.2 0-.7-.58-1.12-1.3-1.12H32Zm15-1h-1l-3 7h1.15l.78-2h3.24l.83 2h1l-3-7Zm.75 4-1.25-3-1.18 3h2.43Z" fill="#F6F9FD" /></svg>