<!-- by TradeStack --><svg xmlns="http://www.w3.org/2000/svg" width="56" height="56" viewBox="0 0 56 56"><path fill="url(#aeq1zsak1)" d="M0 0h56v56H0z"/><path d="M37.83 28.44h1.9c1.03 0 1.55-.79 1.55-1.57 0-.77-.52-1.56-1.55-1.56h-2.5V33H36v-9h3.73c1.85 0 2.78 1.44 2.78 2.87 0 1.27-.82 2.49-2.28 2.65L43 33h-1.6l-3.57-4.56ZM15.83 28.44h1.9c1.03 0 1.55-.79 1.55-1.57 0-.77-.52-1.56-1.55-1.56h-2.5V33H14v-9h3.73c1.85 0 2.78 1.44 2.78 2.87 0 1.27-.82 2.49-2.28 2.65L21 33h-1.6l-3.57-4.56ZM50.64 33H52l-4.5-9-4.5 9h1.36l1.13-2.25h4.03L50.64 33Zm-4.57-3.4 1.43-2.88 1.44 2.87h-2.87ZM13 28.5a4.5 4.5 0 1 1-9 0 4.5 4.5 0 0 1 9 0Zm-4.5-3.22a3.22 3.22 0 1 0 0 6.43 3.22 3.22 0 0 0 0-6.43Z" fill="#F6F6F6"/><path d="M33.02 19.9a.62.62 0 0 0-.27-.83.59.59 0 0 0-.81.27l-2.3 5c.28.12.54.25.78.4l2.6-4.84ZM29.56 21.06a.6.6 0 0 0-.53-.69.6.6 0 0 0-.67.54l-.2 3.14c.3 0 .58.04.86.1l.54-3.09ZM26.81 20.28a.6.6 0 1 0-1.18.28l1.03 3.73c.27-.1.55-.16.85-.2l-.7-3.81ZM24.92 22.44a.59.59 0 0 0-.84-.18.61.61 0 0 0-.18.86l1.44 1.91c.22-.18.46-.34.72-.48l-1.14-2.1ZM23.09 23.92a.59.59 0 0 0-.85.12c-.2.28-.16.67.12.87l1.98 1.29c.15-.25.32-.5.52-.7l-1.77-1.58ZM22.95 26.27a.6.6 0 0 0-.76.42.6.6 0 0 0 .4.77l1.2.18c.05-.3.14-.57.25-.84l-1.1-.53ZM23.71 28.3l-2.14-.05c-.33 0-.59.31-.57.65.02.34.3.62.64.59l2.12-.3a4.58 4.58 0 0 1-.05-.88ZM22.41 30.3a.62.62 0 0 0-.32.82c.13.31.49.47.8.32l1.36-.78a4.48 4.48 0 0 1-.34-.82l-1.5.46ZM24.6 31.22l-2.44 2.1a.62.62 0 0 0-.02.87c.22.25.6.27.85.03l2.2-2.36c-.2-.2-.4-.4-.58-.64ZM23.1 37.1c-.16.3-.03.68.27.83.3.16.67.05.81-.27l2.31-5c-.27-.1-.52-.24-.77-.4L23.1 37.1ZM26.55 36.25a.6.6 0 0 0 .53.68.6.6 0 0 0 .67-.54l.23-3.43c-.3 0-.58-.04-.86-.1l-.57 3.39ZM28.8 34.44c.07.34.4.54.73.46a.6.6 0 0 0 .46-.74l-.5-1.43c-.28.09-.56.16-.85.2l.17 1.51ZM31.48 34.96c.17.3.55.37.83.18a.61.61 0 0 0 .18-.85l-1.68-2.31c-.23.18-.47.35-.73.48l1.4 2.5ZM32.74 32.86c.27.21.65.15.85-.13a.61.61 0 0 0-.12-.86l-1.66-1.06c-.15.26-.33.5-.52.71l1.45 1.34ZM34.46 29.84l-2.1-.47c-.06.3-.15.58-.26.85l2 .8a.6.6 0 0 0 .76-.41.6.6 0 0 0-.4-.77ZM32.43 28.7l1.45.1c.34 0 .59-.31.57-.65-.02-.34-.3-.61-.64-.58l-1.42.25a4.6 4.6 0 0 1 .04.88ZM34.63 26.32c.31-.13.45-.5.32-.82a.59.59 0 0 0-.8-.32l-2.25 1.18c.14.25.25.52.34.8l2.4-.84ZM31.54 25.8l2.83-2.47a.62.62 0 0 0 .03-.88.59.59 0 0 0-.86-.02l-2.6 2.72c.22.2.42.41.6.65Z" fill="#DB3412"/><defs><linearGradient id="aeq1zsak1" x1="10.42" y1="9.71" x2="68.15" y2="76.02" gradientUnits="userSpaceOnUse"><stop stop-color="#1A1E21"/><stop offset="1" stop-color="#06060A"/></linearGradient></defs></svg>