<!-- by TradeStack --><svg width="56" height="56" viewBox="0 0 56 56" xmlns="http://www.w3.org/2000/svg"><path fill="#F0F3FA" d="M0 0h56v56H0z"/><path d="M31 30h.57l.07.01a.1.1 0 0 1 .03.07v2.45a.1.1 0 0 1-.03.08.1.1 0 0 1-.07.03h-.94a.11.11 0 0 0-.07.02.11.11 0 0 0-.04.07l-.5 3.17c0 .03-.02.05-.04.07a.11.11 0 0 1-.07.03h-2.26c-.04 0-.08-.07-.07-.11l.5-3.14a.08.08 0 0 0-.05-.09H28l-.43-.03a.08.08 0 0 1-.05-.02.08.08 0 0 1-.02-.06V30.1a.1.1 0 0 1 .03-.07l.02-.02.04-.01H28.45a.1.1 0 0 0 .04-.07l1.53-9.82c0-.03.02-.06.04-.08a.13.13 0 0 1 .09-.03h2.79a.1.1 0 0 1 .07.03l.03.06 2.46 15.8c0 .05-.03.11-.08.11h-2.27c-.05 0-.1-.07-.1-.12l-1.48-10.5c-.03-.21-.06-.21-.08 0l-.56 4.52c0 .04.02.1.07.1ZM52 35.96V36h-2.38a.1.1 0 0 1-.06-.03.1.1 0 0 1-.03-.05l-1.49-10.57c-.02-.2-.05-.2-.07 0l-.68 4.54c0 .04.02.11.07.11h.58c.04 0 .06.01.06.05v2.5a.1.1 0 0 1-.02.07.09.09 0 0 1-.06.03h-.82c-.02 0-.04 0-.06.02a.1.1 0 0 0-.03.05l-.5 3.19c0 .02 0 .04-.03.06a.1.1 0 0 1-.07.03h-2.25a.07.07 0 0 1-.06-.03.08.08 0 0 1-.02-.06l.5-3.16a.09.09 0 0 0-.02-.07.08.08 0 0 0-.06-.03h-.42c-.02 0-.04 0-.06-.02a.08.08 0 0 1-.02-.06v-2.5c0-.05.05-.07.1-.07h.78a.1.1 0 0 0 .1-.08l1.54-9.85c0-.02.01-.04.03-.05a.08.08 0 0 1 .05-.02h2.84c.02 0 .04 0 .06.02a.1.1 0 0 1 .03.06L52 35.96ZM4 34.43V21.6c.2-1.13.9-1.59 1.98-1.59h3.11c1.25 0 1.9.73 1.91 2v11.76a3.2 3.2 0 0 1-.23 1.34c-.31.64-.87.89-1.58.9H5.92C4.86 36 4.2 35.52 4 34.43Zm4.57-11.88c0-.01 0-.03-.02-.04a.05.05 0 0 0-.04-.01H6.5a.05.05 0 0 0-.03.01.05.05 0 0 0-.02.04v10.9c0 .01 0 .03.02.04l.03.01h2.02l.04-.01a.06.06 0 0 0 .02-.04v-10.9ZM14.46 25.78v10.13l-.03.06-.06.03H12.1c-.02 0-.05-.02-.06-.04a.1.1 0 0 1-.03-.06V25.56l.03-.06a.08.08 0 0 1 .05-.02h4.42a.08.08 0 0 0 .06-.03.09.09 0 0 0 .02-.06V22.6a.11.11 0 0 0-.03-.07.09.09 0 0 0-.07-.03h-1.93a.1.1 0 0 0-.07.03.1.1 0 0 0-.03.07v2.71c0 .08-.02.09-.05.02l-2.34-4.89a.31.31 0 0 1 .01-.3.3.3 0 0 1 .1-.1.27.27 0 0 1 .14-.04h4.6c1.37 0 2.06.6 2.07 2.05v3.9c0 1.06-.42 1.8-1.42 2.03l-.03.02-.02.02a.1.1 0 0 0-.01.07l2 7.83a.06.06 0 0 1-.01.06l-.02.01-.03.01H17.3c-.03 0-.05-.02-.08-.03a.13.13 0 0 1-.04-.07 259.92 259.92 0 0 0-2.7-10.12Z" fill="#818286"/><path d="m24.05 30.95 1.51-10.9c0-.02 0-.03.02-.04l.03-.01h2.36l.02.02v.04l-2.58 15.9c0 .01 0 .02-.02.03l-.02.01H22.6l-.03-.01-.01-.03L20 20.06a.05.05 0 0 1 .01-.04.05.05 0 0 1 .04-.02h2.34l.03.01.02.03 1.52 10.91.01.04a.05.05 0 0 0 .07 0l.01-.04Z" fill="#D4A00F"/><path d="M38.4 29.17v6.74l-.03.06-.06.03h-2.2c-.03 0-.06-.02-.08-.04-.01-.02-.03-.04-.03-.07V20.11c0-.03.01-.06.03-.08a.1.1 0 0 1 .07-.03h2.2a.1.1 0 0 1 .07.02.1.1 0 0 1 .04.06l2.13 7.34v.02h.04v-7.35c0-.03.01-.05.03-.07a.08.08 0 0 1 .05-.02h2.26c.02 0 .04 0 .06.02l.02.06V35.9c0 .02 0 .05-.02.06-.02.02-.04.04-.06.04h-2.28c-.02 0-.04 0-.05-.02a107.86 107.86 0 0 0-2.16-6.81c-.02-.06-.03-.05-.03 0Z" fill="#818286"/></svg>