<?xml version='1.0' encoding='utf-8'?>
<!-- by TradeStack -->
<svg width="56" height="56" viewBox="0 0 56 56" xmlns="http://www.w3.org/2000/svg"><path fill="#F0F3FA" d="M0 0h56v56H0z" /><path d="M26.86 6.55c0-.53.17-.58.25-.53.13.05.14.38.14.53-.15 1.23-.47 4.06-.56 5.55-.1 1.86-.08 4.08-.16 8.52-.07 3.56.53 7.5.84 9.01l-1.51.4c.04-.32-.08-1.37-.14-1.86-.2-1.84-.59-5.7-.6-6.4-.02-.87.42-6.4.76-7.96.33-1.56.97-6.6.98-7.26ZM30.22 20.29a57.4 57.4 0 0 1-1.4 9.38l1.67.35c.42-2.72 1.23-9.17 1.06-13.17-.21-5-.13-9.49-.16-10.4-.03-.92-.32-.28-.4.64a397 397 0 0 0-.24 8.68c-.13.97-.4 3.42-.53 4.52Z" /><path d="M30.92 20.65a46.76 46.76 0 0 1-1.54 9.05h1.02c.48-2.69.8-7.06.9-8.92.02-.37.02-1.12-.14-1.12s-.22.66-.24 1ZM26.33 29.65l.95-.28c-.5-1.2-.95-7.96-.95-8.48 0-.51-.29-.98-.5-.68-.22.3.12 3.55.21 5l.3 4.44Z" fill="#CFCFCF" /><path d="M22.05 28.86c-.66-.17-1.64-.64-2.05-.85-.1.23.72.65.95.78.23.13.16.23-.3.2-.38-.03-.36.1-.3.16.55.2 1.64.65 1.64.8 0 .19-.25.1-.72.13-.38.02-.26.19-.16.27 1.19-.07 1.55.4 1.12.48-.34.06-.34.17-.3.22.8-.04 1.36.2 1.55.34.11-.3-.6-2.31-1.43-2.53ZM34.3 29.42a5.86 5.86 0 0 0 1.85-1.06l.19.26c-.36.18-1.07.56-1.07.7 0 .14.42.06.64 0-.45.28-1.4.88-1.6 1.04-.26.19 0 .23.4 0 .33-.2.5-.03.56.08l-.96.32c-.2.07.08.26.25.34-.15.15-.45 0-.52 0-.6.25-1.42.4-1.76.43.18-.5.85-1.62 2.03-2.11ZM27.93 35.04l-.17-.32-.12.11c.1 1.18-.49 2.01-.8 2.28.06.34.14 1.1 0 1.4-.13.3-.12.72-.1.9h.27c.03-.15.16-.45.44-.53.36-.1 1.4-.08 1.4.16 0 .25.17.44.35.44.14 0 .17-.33.16-.5L29.2 37c-.32-.26-.54-1.22-.6-1.67l.26-.5-.14-.12-.22.32h-.57Z" /><path fill-rule="evenodd" d="M27.55 30.01c.02-.05.18-.16.69-.12.63.05 1.92.17 2.18.26.2.08-.24.7-.49 1-.12-.01-.36.08-.34.54v.84c-.55-.36-1.8-.82-2.54.18a.88.88 0 0 1-.09-.65c.1-.37-.3-1.35-.87-1.54-.19.14-.59.48-.73.79-.18.38-.31 1.38 0 1.95-.3.08-.9.28-.88.43.23-.05.7-.12.79 0 .1.16.04.42 0 .49-.04.06.22.59.36.85h-1.15c.02-.23-.04-.68-.36-.61l-.08-.13c.15-.06.45-.2.37-.3-.07-.08-.28-.03-.37 0 .08-.2.33-.77.7-1.34.05-.2.15-.7.17-.96.01-.26.2-.43.28-.48l-.78-.27.22.83c-.2 0-.6-.1-.6-.37 0-.36-.48-2.04-1.5-2.6a3.47 3.47 0 0 0-1.87-.84 2.81 2.81 0 0 1-.94-.34c-.14-.16-.43-.45-.45-.05l.66 1.72c.13.5.55 1.56 1.23 1.8a8 8 0 0 1 .83.36c.3.14.52.24.77.24.44 0 1.33.3 1.55.7l-.1.14c-.31-.22-.99-.62-1.26-.47l.7 1.44-.12.5-.58-1.19c.05-.12.06-.45-.32-.75-.37-.3-1.38-.7-1.84-.85a2.58 2.58 0 0 1-.77-1.06c-.24-.57-.7-1.93-.9-2.53-.1-.15-.21-.49 0-.62.2-.13.78.11 1.05.25.52.07 1.77.44 2.6 1.33.82.9 1.23 1.42 1.33 1.57.06.2.28.62.64.66.45.05.98-.22 1.12-.44.1-.17 1.04-.31 1.49-.36l.5.8h.64l.3-.52c-.37.03-1.14 0-1.24-.28Zm-2.87 4.03c.09-.02.3-.06.39 0 .12.07.05.2-.13.2s-.26-.03-.26-.2Z" /><path d="M31.6 30.6c-.48.5-.89-.12-1.03-.5-.13.22.12.92.43.96.31.03.41.16.23.4-.15.2-.06.57 0 .74-.16.2-.53.65-.66.87-.14.22.38.3.66.31l.52.32c-.1-.18-.28-.58-.34-.73-.06-.2.47-.4.82-.52.34-.11.6.19.39.4-.22.2-.29.73-.27 1.04.03.3-.44.48-.6.2-.16-.27-.46-.53-.84-.5-.3.01-.4.53-.4.78a.98.98 0 0 0-.41.54c.1-.03.4-.1.74-.07.34.03.65-.3.76-.47.23.16.87.4 1.02-.48.14-.89.52-1.74 1.03-1.76a3.4 3.4 0 0 0 2.17-.91c.93-.78 1.14-2.56 1.18-3.34.03-.78-.31-1.05-.8-.42-.35.46-1.2.69-1.73.83-.18.05-.33.09-.39.12-.24.13-1.89 1.56-2.48 2.2Zm1.84 1.38a7.2 7.2 0 0 0-1.51.4c-.28.17-.75.26-.39-.81a4.9 4.9 0 0 1 2.94-2.69c.74-.2 1.11-.37 1.2-.43.1-.07.17-.14.25-.21.33-.3.58-.52.72-.45.18.08.04 1.25-.46 2.42-.5 1.18-1.78 1.62-2.75 1.77Zm-2.41 2.18c.02-.08.1-.23.24-.2.16.04.14.18.12.24-.11.05-.34.11-.36-.04Z" /><path fill-rule="evenodd" d="M30.66 35.05h.61l-.2 1.31c-.07.27-.28.9-.55 1.31a2 2 0 0 0-.1.6v1.15h.1c.03-.4.12-1.26.24-1.48.15-.27.64-1.52.7-2.7h.21c-.08.47-.3 1.53-.46 2.01-.2.6-.69 2.57-.69 3.04h-.1c.03-.23.09-.7 0-.7-.1-.01-.2.88-.25 1.33l-.17-.13a12.71 12.71 0 0 0 .17-1.97c-.02-.57-.04-1.3.13-1.57.22-.34.5-1.77.36-2.2Zm-5.05 1.53a6.01 6.01 0 0 1-.3-1.42c-.2 0-.47.11-.58.16l.77 1.93c.14.35.38 1.18.27 1.7a10.9 10.9 0 0 0-.11 1.97h.1c-.02-.18.07-1.02.22-2.2.15-1.16-.2-1.8-.37-2.13v-.01Zm-.23 3.66h.12v-1.2l.1-.2c-.05-.22-.12-.44-.2-.71-.1-.3-.23-.68-.37-1.22-.23-.81-.34-1.14-.36-1.2-.22.19.09 1.3.27 1.84l.44 1.28v1.4Zm6.17-3.72h.12l.15 1.52 2 1.55c.27.38 1 .32 1.32.25l.12.17-1.17.23-2.54-1.97v-1.75Zm-2.67 3.98c.22.11.66.46.62.99-.04.52-.65.81-.96.9-.19.06-.6.24-.75.36a1.07 1.07 0 0 0-.8-.47c-.55-.04-.95-.7-.89-.92.06-.23.34-.67.76-.7 0 .04.2.37.42.5.21.12.5.5.5.68-.06-.09-.23-.26-.4-.24-.17.02-.01.17.09.24a7.2 7.2 0 0 0-1-.24c-.2 0 .01.3.26.31.08 0 .22.04.4.08.42.1 1.02.23 1.38.12.5-.15.87-.42.69-.62-.03-.02-.12-.02-.21.11s-.67.24-.95.28c-.08-.21-.2-.66-.05-.8.23.04.71.05.84-.16-.04-.12-.1-.38.05-.42Zm-1.94.6c.12.1.38.3.28.4-.09.09-.32-.16-.42-.3-.1.01-.28 0-.2-.14.08-.13.23-.05.29 0l.05.04Z" /><path d="M30 42.16c.07.2.08.68-.49.97.1-.14.32-.52.48-.97ZM25.86 41.79c0 .25.08.83.27 1.08-.2 0-.56-.23-.27-1.08ZM28.35 43.13h.87v.25h-.74c-.21-.04-.29.01-.3.04h-.71c-.1-.05-.3-.16-.46-.14-.16.01-.12.1-.08.14.32.13.45.35.47.45h1.08l.14-.3c.08-.02.25-.02.33.07.1.12-.28.37-.47.4-.15.04-.15.16-.13.22v1.55l-.95.1-.13-1.42c.28.08.83.2.8 0-.03-.18-.55-.23-.8-.23.1-.3-.13-.45-.26-.5l-.68-.9.42.27.8-.09.26-.17.54.26ZM26.48 46.44c-.24-.78-.37-2.31-.4-2.98h-.06c-.27.9.11 2.36.34 2.98h.13ZM27.57 50a10.73 10.73 0 0 0-1.09-3.2v.3a45 45 0 0 1 .94 2.9h.15ZM27.5 47.72V46.1h.93l-.14 1.63.14 1.46h-.45l-.49-1.46Z" /></svg>