<?xml version='1.0' encoding='utf-8'?>
<!-- by TradeStack -->
<svg width="56" height="56" viewBox="0 0 56 56" xmlns="http://www.w3.org/2000/svg"><path fill="url(#af3xb4l1k)" d="M0 0h56v56H0z" /><path d="M16.44 29.26 18.5 32h-1.19l-2.01-2.74H15V32h-1v-7h1.45c1.13 0 2.55.51 2.55 2.16 0 .95-.6 1.86-1.56 2.1ZM15 28.33h.45c.87 0 1.55-.31 1.55-1.17 0-.86-.66-1.16-1.51-1.16H15v2.33ZM23 28.97 20.5 25h1.3l1.7 2.8 1.7-2.8h1.3L24 28.97V32h-1v-3.03ZM30.4 31H34v1h-5.5l3.56-6H29v-1h5l-3.6 6Z" fill="#fff" /><path fill-rule="evenodd" d="M4.27 27.14c-.18.42-.27.87-.27 1.33a3.32 3.32 0 0 0 1.13 2.62A3.52 3.52 0 0 0 11 28.5c0-.93-.38-1.82-1.03-2.48a3.49 3.49 0 0 0-5.7 1.1ZM7.5 31a2.5 2.5 0 1 0 0-5 2.5 2.5 0 0 0 0 5ZM36.77 27.14c-.18.42-.27.87-.27 1.33a3.32 3.32 0 0 0 1.13 2.62 3.52 3.52 0 0 0 5.87-2.58c0-.93-.38-1.82-1.03-2.48a3.49 3.49 0 0 0-5.7 1.1ZM40 31a2.5 2.5 0 1 0 0-5 2.5 2.5 0 0 0 0 5Z" fill="#fff" /><path d="M39.25 28.5a.75.75 0 1 1 1.5 0 .75.75 0 0 1-1.5 0Z" fill="#009FD6" /><path d="M46 32v-7h.53L51 30v-5h1v7h-.53L47 27v5h-1Z" fill="#fff" /><defs><linearGradient id="af3xb4l1k" x1="10.42" y1="9.71" x2="68.15" y2="76.02" gradientUnits="userSpaceOnUse"><stop stop-color="#1A1E21" /><stop offset="1" stop-color="#06060A" /></linearGradient></defs></svg>