<?xml version='1.0' encoding='utf-8'?>
<!-- by TradeStack -->
<svg width="56" height="56" viewBox="0 0 56 56" xmlns="http://www.w3.org/2000/svg"><path fill="url(#auief5ama)" d="M0 0h56v56H0z" /><path d="M21.33 18.94 17.5 23h1.43l2.4-2.91.9.56 3.56-2.9.6.75 1.35-2 1.05 2 1.02-1.19.74 2.15.71-.52.48 1.7.66-1.7.86 1.38 1.48-.42 2.12 3.1h1.64l-3.33-4.71-1.46 1.17L28.07 14l-5.83 5.74-.9-.8Z" fill="url(#buief5ama)" /><path fill-rule="evenodd" d="M11 24c-.55 0-1 .42-1 .94v7.12c0 .52.45.94 1 .94h.5c.55 0 1-.42 1-.94v-7.12c0-.52-.45-.94-1-.94H11Zm.25.64c-.3 0-.54.23-.54.51v6.7c0 .28.24.5.54.5.3 0 .54-.22.54-.5v-6.7c0-.28-.24-.5-.54-.5ZM23.5 24c-.55 0-1 .42-1 .94v7.12c0 .52.45.94 1 .94h.5c.55 0 1-.42 1-.94v-7.12c0-.52-.45-.94-1-.94h-.5Zm.25.64c-.3 0-.54.23-.54.51v6.7c0 .28.24.5.54.5.3 0 .54-.22.54-.5v-6.7c0-.28-.24-.5-.54-.5Zm13.75.3c0-.52.45-.94 1-.94h.5c.55 0 1 .42 1 .94v7.12c0 .52-.45.94-1 .94h-.5c-.55 0-1-.42-1-.94v-7.12Zm.7.21c0-.28.25-.5.55-.5.3 0 .54.22.54.5v6.7c0 .28-.24.5-.54.5-.3 0-.54-.22-.54-.5v-6.7ZM35 24c-.55 0-1 .42-1 .94v7.1a1 1 0 0 0 1 .96h.5a1 1 0 0 0 1-.96V28.9h-1.25v.63h.54v2.28c0 .29-.24.51-.54.51-.3 0-.54-.22-.54-.5v-6.68c0-.28.24-.5.54-.5.3 0 .54.22.54.5v.98h.71v-1.2c0-.51-.45-.93-1-.93H35Zm-18 0c-.55 0-1 .42-1 .94v7.12c0 .52.45.94 1 .94h.5c.55 0 1-.42 1-.94v-1.18h-.7v.97c0 .28-.25.5-.55.5-.3 0-.54-.22-.54-.5v-6.7c0-.28.24-.5.54-.5.3 0 .54.22.54.5v1.02h.71v-1.23c0-.52-.45-.94-1-.94H17Zm-3.3 7H13v.8c0 .66.56 1.2 1.25 1.2s1.25-.54 1.25-1.2v-1.88a.96.96 0 0 0-.98-.94h-.42a.38.38 0 0 1-.4-.37v-3.39c0-.29.25-.52.56-.52.3 0 .54.23.54.52V26h.7v-.75c0-.66-.56-1.25-1.25-1.25S13 24.6 13 25.25v3.45c0 .52.44.94.98.94h.43c.22 0 .4.17.4.38v1.89c0 .29-.25.52-.55.52a.54.54 0 0 1-.55-.52V31Zm7.69-7v.62H20V29h1.5v.6H20v2.81h1.39V33h-1.94v-3.4H19V29h.45v-5h1.94Zm8.41 0c-.44 0-.8.42-.8.94V29h-.67v.6H29V33h.57v-3.4h.86V33H31v-8.06c0-.52-.36-.94-.8-.94h-.4Zm.63 5v-3.85c0-.28-.2-.5-.43-.5-.24 0-.43.22-.43.5V29h.86ZM26 24v9h2v-.59h-1.42V24H26Zm15 9v-9h.58v8.41H43V33h-2Zm2.5-9H45c.55 0 1 .42 1 .95v7.1c0 .53-.45.95-1 .95h-1.5v-9Zm.5.61h.74c.34 0 .6.25.6.57v6.66c0 .3-.26.56-.6.56H44v-7.79Z" fill="url(#cuief5ama)" /><path opacity=".5" fill="#946D01" d="M20 35.5h16v2H20z" /><path fill-rule="evenodd" d="M19 37.48v-1.96c0-.29-.25-.52-.56-.52h-8.05a.96.96 0 0 0-.8.4l-.44.65a.8.8 0 0 0 0 .94l.44.62c.18.24.47.39.79.39h8.06c.3 0 .56-.23.56-.52Zm-7.19-1.25-.67-.35.38.62-.38.62.67-.35.67.35-.37-.62.37-.62-.67.35Zm2.3 0-.67-.35.38.62-.38.62.68-.35.67.35-.38-.62.38-.62-.67.35Zm1.68-.35.67.35.68-.35-.38.62.38.62-.68-.35-.67.35.38-.62-.38-.62Z" fill="url(#duief5ama)" /><path fill-rule="evenodd" d="M37 37.48v-1.96c0-.29.25-.52.56-.52h8.05c.32 0 .62.15.8.4l.44.65c.2.29.2.65 0 .94l-.44.62a.96.96 0 0 1-.79.39h-8.06c-.3 0-.56-.23-.56-.52Zm7.19-1.25.67-.35-.38.62.38.62-.67-.35-.67.35.37-.62-.37-.62.67.35Zm-2.3 0 .67-.35-.38.62.38.62-.68-.35-.67.35.38-.62-.38-.62.67.35Zm-1.68-.35-.67.35-.68-.35.38.62-.38.62.68-.35.67.35-.38-.62.38-.62Z" fill="url(#euief5ama)" /><defs><linearGradient id="auief5ama" x1="10.42" y1="9.71" x2="68.15" y2="76.02" gradientUnits="userSpaceOnUse"><stop stop-color="#1A1E21" /><stop offset="1" stop-color="#06060A" /></linearGradient><linearGradient id="buief5ama" x1="28" y1="14" x2="28" y2="23" gradientUnits="userSpaceOnUse"><stop stop-color="#fff" /><stop offset=".62" stop-color="#DFBB54" /><stop offset=".98" stop-color="#D89C0A" /></linearGradient><linearGradient id="cuief5ama" x1="28" y1="24" x2="28" y2="33" gradientUnits="userSpaceOnUse"><stop offset=".16" stop-color="#936C00" /><stop offset=".21" stop-color="#FFF7C2" /><stop offset=".66" stop-color="#EFC558" /></linearGradient><linearGradient id="duief5ama" x1="14" y1="35" x2="14" y2="38" gradientUnits="userSpaceOnUse"><stop stop-color="#E2AE2B" /><stop offset="1" stop-color="#D79A04" /></linearGradient><linearGradient id="euief5ama" x1="42" y1="35" x2="42" y2="38" gradientUnits="userSpaceOnUse"><stop stop-color="#E2AE2B" /><stop offset="1" stop-color="#D79A04" /></linearGradient></defs></svg>