<?xml version='1.0' encoding='utf-8'?>
<!-- by TradeStack -->
<svg width="56" height="56" viewBox="0 0 56 56" xmlns="http://www.w3.org/2000/svg"><path fill="#F0F3FA" d="M0 0h56v56H0z" /><path d="M37 28a5 5 0 0 1 5-5h5.64A5 5 0 0 1 52 25.55l-2.06 1.95A2 2 0 0 0 48 26h-6a2 2 0 1 0 0 4h5.28l-2.31 2.18a3 3 0 0 1-2.06.82H42a5 5 0 0 1-5-5ZM28 23v-3l-7 6h4v4.98c0 .88.33 1.72.93 2.38L28 36V26h5.03c.91 0 1.8-.13 2.47-.73L38 23H28Z" fill="#ED1C24" /><path fill-rule="evenodd" d="M9 23a5 5 0 0 0 0 10h6a5 5 0 0 0 0-10H9Zm0 3a2 2 0 1 0 0 4h6a2 2 0 1 0 0-4H9Z" fill="#ED1C24" /><path d="M14.17 23a5.4 5.4 0 0 0-2.43.79c-.58.47-1.63 1.46-2.4 2.21H9a2 2 0 0 0-2 2H4a5 5 0 0 1 5-5h5.17Z" fill="url(#acnvi2n2l)" /><defs><linearGradient id="acnvi2n2l" x1="14" y1="23" x2="7" y2="27.5" gradientUnits="userSpaceOnUse"><stop offset=".53" stop-color="#FBC707" /><stop offset="1" stop-color="#EE1C25" /></linearGradient></defs></svg>