<!-- by TradeStack --><svg width="56" height="56" viewBox="0 0 56 56" xmlns="http://www.w3.org/2000/svg"><path fill="#F0F3FA" d="M0 0h56v56H0z"/><path d="M7 26.99h2.6c.08-1.95 1.17-5.86 4.9-5.86v.02c3.73 0 4.82 3.9 4.9 5.85H22c0-5.35-5-6.89-7.5-6.99V20C12 20.1 7 21.64 7 26.99ZM7 29.01h2.6c.08 1.95 1.17 5.86 4.9 5.86v-.02c3.73 0 4.82-3.9 4.9-5.85H22c0 5.35-5 6.89-7.5 6.99V36C12 35.9 7 34.36 7 29.01ZM27 29h3v4.9c0 .6.55 1.1 1.23 1.1H33v1h-9v-1h1.77c.68 0 1.23-.5 1.23-1.1V29ZM22 20v3h.74c0-1.99 2.27-2.03 3.4-2H27v6h3v-6h.85c1.14-.03 3.4.01 3.4 2H35v-3H22Z"/><path d="M33.44 27H36l-.44 1H33l.44-1Z" fill="#00A88F"/><path d="M35.9 27h2.56L38 28h-2.55l.44-1Z" fill="#F78F1E"/><path d="M38.44 27H41l-.44 1H38l.44-1Z" fill="#EC008C"/><path d="M49 20.95V25h-.71c-.03-.66-.89-4-4.65-4-3.8 0-5.05 3.37-5.2 5H36c.67-4.76 5.45-6 7.64-6 1.76 0 4.3.64 5.36.95ZM49 34.89V30h-.71c-.03.77-.89 4.89-4.65 4.89-3.8 0-5.05-4-5.2-5.89H36c.67 5.55 5.45 7 7.64 7 1.76 0 4.3-.74 5.36-1.11Z"/></svg>