<?xml version='1.0' encoding='utf-8'?>
<!-- by TradeStack -->
<svg width="56" height="56" viewBox="0 0 56 56" xmlns="http://www.w3.org/2000/svg"><path fill="#00438A" d="M0 0h56v56H0z" /><path fill-rule="evenodd" d="M10.5 21A4.5 4.5 0 0 0 6 25.5v5a4.5 4.5 0 1 0 9 0v-5a4.5 4.5 0 0 0-4.5-4.5Zm0 2c-.28 0-.5.3-.5.7v8.6c0 .4.22.7.5.7s.5-.3.5-.7v-8.6c0-.4-.22-.7-.5-.7ZM16 35V21h5.36A2.59 2.59 0 0 1 24 23.53v3.38c0 1.4-1.18 2.59-2.64 2.59H19.5V35H16Zm3.9-11.5h-.4V27h.4c.33 0 .6-.34.6-.75v-2c0-.41-.27-.75-.6-.75Zm4.6-2.5H33v3h-2.5v11H27V24h-2.5v-3Zm13 0H34v2.9h3.5V21Zm0 3.48H34V35h3.5V24.48ZM39 35V21h4.64l.88 6.14.93-6.14H50v14h-3v-8.66L45.64 35h-2L42 26.34V35h-3Z" fill="#fff" /></svg>