<!-- by TradeStack --><svg width="56" height="56" viewBox="0 0 56 56" xmlns="http://www.w3.org/2000/svg"><path fill="#F0F3FA" d="M0 0h56v56H0z"/><path d="M24.13 44.9c-5.2-.85-8.13-5.5-8.13-9.97 0-8.35 9.93-12.02 8.47-21.93.86 1.09 2.53 2.72 2.53 5.44 0 7.19-6.47 12.2-6.47 18.97 0 3.74 2.74 6.4 3.6 7.49Z" fill="url(#ar1pm4fsw)"/><path d="M24.63 13.2c.42 1.14.9 2.98.9 5 0 3.93-2.01 6.59-3.96 9.16-1.81 2.4-3.57 4.72-3.57 7.93 0 4.31 2.62 7.33 5.64 9.51l.5.1-.4-.48c-1.11-1.29-3.2-3.74-3.2-7.01 0-3.34 1.56-6.24 3.15-9.2C25.33 25.18 27 22.1 27 18.45c0-2.4-1.3-3.95-2.2-5.03l-.17-.2Z" fill="url(#br1pm4fsw)"/><path d="M27.1 9.62c0-.98.44-2.15.66-2.62-.59.54-1.76 2.02-1.76 3.55 0 1.93 2.48 4.78 2.48 6.35V19a6.7 6.7 0 0 0 .52-2.62c0-1.57-1.9-4.66-1.9-6.76Z" fill="url(#cr1pm4fsw)"/><path d="M27.5 7.26c-.42.8-.91 1.93-.91 2.77 0 .73.53 2.05 1.04 3.31.47 1.15.91 2.25.91 2.8a117 117 0 0 1-.06 2.66v-1.9c0-.74-.56-1.78-1.15-2.87-.65-1.2-1.33-2.47-1.33-3.48 0-1.33.89-2.62 1.5-3.29Z" fill="url(#dr1pm4fsw)"/><path d="M34.73 25.14c-4-5.37-4.77-9.75-4.86-11.14C27.8 17.8 32 24.15 32 26.58c0 .87-.27 1.93-1 1.93-2.99 0-3.56-4.15-3.47-6.23A7.83 7.83 0 0 0 26 27.2c0 6.29 7.2 6.16 7.2 10.64 0 1.81-1.67 3.16-4.33 3.16-4.07 0-4.34-5.58-4.34-6.52 0-.93.27-3.43.47-5.48-.93.87-3 3.55-3 7.72C22 40.9 25.13 46 31.07 46 37 46 40 41.2 40 37.1c0-4.11-.67-5.8-5.27-11.96Z" fill="url(#er1pm4fsw)"/><path d="M24.8 29.32a22.9 22.9 0 0 0-1.2 6.84c0 3.86 2 7.72 7 7.72s6.8-4.92 6.8-8.46c0-2.99-1.1-4.82-2.9-7.88a90.43 90.43 0 0 1-2.5-4.39c-1.16-2.33-2.48-6.68-2.2-9.04-1.26 2.51.09 6.07 1.16 8.9.56 1.47 1.04 2.74 1.04 3.57 0 .87-.27 1.42-1 1.42-2.99 0-3.56-3.92-3.47-6-.53.58-1.53 2.66-1.53 5.2 0 3.4 2.06 4.93 3.94 6.33 1.6 1.18 3.06 2.26 3.06 4.31 0 1.81-1.47 3.16-4.13 3.16-4.07 0-4.34-5.58-4.34-6.52 0-.92.07-3.12.26-5.16Z" fill="url(#fr1pm4fsw)"/><defs><linearGradient id="ar1pm4fsw" x1="21.53" y1="13" x2="21.53" y2="44.9" gradientUnits="userSpaceOnUse"><stop stop-color="#069C45"/><stop offset="1" stop-color="#1A5F2F"/></linearGradient><linearGradient id="br1pm4fsw" x1="22.5" y1="13.2" x2="22.5" y2="44.9" gradientUnits="userSpaceOnUse"><stop offset=".23" stop-color="#1A5F2F"/><stop offset=".88" stop-color="#069C45"/></linearGradient><linearGradient id="cr1pm4fsw" x1="27.5" y1="7" x2="27.5" y2="19" gradientUnits="userSpaceOnUse"><stop offset=".23" stop-color="#1A5F2F"/><stop offset=".88" stop-color="#069C45"/></linearGradient><linearGradient id="dr1pm4fsw" x1="27.27" y1="7.26" x2="27.27" y2="18.8" gradientUnits="userSpaceOnUse"><stop stop-color="#069C45"/><stop offset="1" stop-color="#1A5F2F"/></linearGradient><linearGradient id="er1pm4fsw" x1="31" y1="14" x2="31" y2="46" gradientUnits="userSpaceOnUse"><stop offset=".23" stop-color="#1A5F2F"/><stop offset=".88" stop-color="#069C45"/></linearGradient><linearGradient id="fr1pm4fsw" x1="30.5" y1="14.11" x2="30.5" y2="43.88" gradientUnits="userSpaceOnUse"><stop stop-color="#069C45"/><stop offset="1" stop-color="#1A5F2F"/></linearGradient></defs></svg>