<!-- by TradeStack --><svg width="56" height="56" viewBox="0 0 56 56" fill="none" xmlns="http://www.w3.org/2000/svg">
<rect width="56" height="56" fill="#273A4A"/>
<path fill-rule="evenodd" clip-rule="evenodd" d="M17.354 31.3206C16.6647 32.1079 15.3333 32.5101 13 32.5122C10.6667 32.5122 9.39454 32.1101 8.7073 31.3206C8.23816 30.7852 8 30.1354 8 28.0021C8 25.5788 8.23816 25.2148 8.7073 24.6794C9.39454 23.8899 10.6667 23.4878 13 23.4878C15.3333 23.4878 16.6668 23.8899 17.354 24.6794C17.8232 25.2148 18 25.5788 18 28.0021C18 30.4233 17.8232 30.7831 17.354 31.3206ZM19.1481 23.4878C18.2881 22.5037 16.5 22 13 22C9.5 22 7.71193 22.5037 6.85185 23.4878C6.26543 24.1566 6 24.9693 6 28C6 31.0307 6.26543 31.8434 6.85185 32.5122C7.71193 33.4984 9.5 34 13 34C16.5 34 18.2881 33.4963 19.1481 32.5122C19.7346 31.8434 20 31.0307 20 28C20 24.9693 19.7346 24.1587 19.1481 23.4878ZM34.9959 22L33 22L33.0021 27.7122C33.0021 30.1354 32.8237 30.7852 32.3545 31.3206C31.6673 32.1079 30.3333 32.5101 28 32.5122C25.6667 32.5122 24.3325 32.1101 23.6452 31.3206C23.1761 30.7852 23.0021 30.1355 23.0021 27.7122L23 22H21V28C21 31.0307 21.2654 31.8434 21.8519 32.5122C22.7119 33.4984 24.5 34 28 34C31.5 34 33.2881 33.4963 34.1481 32.5122C34.7346 31.8434 35 31.0307 35 28V22H34.9959ZM43 32.5122C43 32.5122 47.0823 32.5122 49.4156 31.3122L50 32.8C47.6667 34 43 34 43 34C39.5 34 37.7119 33.4984 36.8519 32.5122C36.2634 31.8434 36 31.0307 36 28C36 24.9693 36.2654 24.1566 36.8519 23.4878C37.7119 22.5037 39.5 22 43 22C43 22 47.6667 22 50 23.2L49.4156 24.6878C47.0823 23.4878 43 23.4878 43 23.4878C40.6667 23.4878 39.3566 23.8815 38.6694 24.6688C38.6511 24.6896 38.6332 24.7098 38.6157 24.7295C38.2453 25.1479 38.0498 25.3686 38.0007 26.9894L48 27V29L38.0007 28.9894C38.0498 30.6121 38.2457 30.8334 38.617 31.2529C38.6341 31.2722 38.6516 31.2919 38.6694 31.3122C39.3566 32.0995 40.6667 32.5122 43 32.5122Z" fill="white"/>
</svg>
