<!-- by TradeStack --><svg width="56" height="56" viewBox="0 0 56 56" fill="none" xmlns="http://www.w3.org/2000/svg">
<rect width="56" height="56" fill="#F0F3FA"/>
<path d="M35.9332 16.9155C36.1812 17.4467 36.3687 17.9974 36.4956 18.5676C36.4978 18.5777 36.4974 18.5882 36.4943 18.5982C36.4913 18.6081 36.4857 18.617 36.4781 18.6242C36.4705 18.6315 36.4612 18.6366 36.451 18.6393C36.4409 18.642 36.4301 18.6421 36.4199 18.6396C36.3874 18.6321 36.32 18.5694 36.2975 18.5357C35.9111 17.9573 35.5039 17.394 35.0757 16.8458C35.0623 16.8288 35.0448 16.8193 35.0231 16.8174C32.6967 16.618 30.3657 16.5088 28.0302 16.4899C28.0081 16.4895 27.9961 16.5001 27.9942 16.5218L27.7813 18.8603C27.7805 18.8642 27.7784 18.8676 27.7754 18.8701C27.7723 18.8726 27.7684 18.874 27.7644 18.874C27.7604 18.874 27.7565 18.8726 27.7535 18.8701C27.7504 18.8676 27.7483 18.8642 27.7476 18.8603L27.5353 16.5073C27.5337 16.4899 27.524 16.4812 27.5063 16.4812C25.1235 16.4684 22.7444 16.5506 20.3691 16.728C20.358 16.7289 20.3473 16.7322 20.3378 16.7377C20.3283 16.7433 20.3202 16.7508 20.3141 16.7599C19.8572 17.4478 19.4708 18.1724 19.155 18.9335C19.1516 18.9418 19.1463 18.9494 19.1396 18.9555C19.1329 18.9617 19.1249 18.9664 19.1162 18.9693C19.1074 18.9721 19.0981 18.9731 19.0889 18.9721C19.0797 18.9712 19.0708 18.9683 19.0628 18.9637C19.0025 18.928 18.9768 18.8744 18.9859 18.8028C19.0715 18.1288 19.2299 17.4716 19.4614 16.8313C19.462 16.8295 19.4621 16.8275 19.4617 16.8256C19.4614 16.8238 19.4605 16.822 19.4593 16.8205C19.4581 16.819 19.4565 16.8178 19.4547 16.8171C19.4529 16.8163 19.4509 16.816 19.4489 16.8162C17.9425 16.9602 16.4456 17.1685 14.9581 17.4411C14.9388 17.4445 14.9222 17.4531 14.9085 17.4666C14.4535 17.9064 14.0315 18.3754 13.6423 18.8736C13.4957 19.0612 13.3064 18.9224 13.3981 18.7558C16.8014 12.5701 24.6459 10.0505 31.3643 11.3193C35.783 12.1543 39.9078 14.6287 42.149 18.5444C42.1544 18.5538 42.1571 18.5644 42.1568 18.5752C42.1564 18.5859 42.1531 18.5964 42.1472 18.6054C42.1413 18.6144 42.133 18.6216 42.1232 18.6262C42.1134 18.6308 42.1025 18.6326 42.0917 18.6315C41.9915 18.6218 41.9074 18.5754 41.8392 18.4921C41.577 18.1739 41.3006 17.8683 41.0101 17.5752C40.9959 17.5609 40.9787 17.5522 40.9586 17.5491C39.2933 17.2823 37.6212 17.0671 35.9421 16.9033C35.9406 16.9032 35.939 16.9035 35.9376 16.9041C35.9362 16.9047 35.935 16.9057 35.9341 16.9069C35.9332 16.9082 35.9327 16.9096 35.9325 16.9111C35.9324 16.9126 35.9326 16.9141 35.9332 16.9155ZM27.1633 12.7292C24.5861 12.9151 22.4537 14.084 20.8457 16.0421C20.8185 16.0754 20.8264 16.0898 20.8694 16.0851C23.0523 15.8594 25.2412 15.7437 27.4359 15.7379C27.4548 15.7379 27.4635 15.7288 27.4619 15.7106L27.1917 12.753C27.1911 12.7462 27.1878 12.7399 27.1824 12.7354C27.1771 12.731 27.1703 12.7288 27.1633 12.7292ZM28.1036 15.7338C30.2254 15.7907 32.3117 15.879 34.4217 16.1101C34.4229 16.1103 34.4243 16.1102 34.4254 16.1097C34.4266 16.1091 34.4275 16.1082 34.4281 16.1071C34.4287 16.106 34.429 16.1047 34.4288 16.1035C34.4286 16.1022 34.4279 16.1011 34.427 16.1002C32.8765 14.3099 30.8073 12.9546 28.3768 12.7316C28.3719 12.7311 28.367 12.7315 28.3623 12.7329C28.3576 12.7343 28.3533 12.7366 28.3495 12.7396C28.3458 12.7426 28.3427 12.7464 28.3405 12.7506C28.3383 12.7548 28.3369 12.7594 28.3366 12.7641L28.0693 15.6955C28.0688 15.7002 28.0693 15.705 28.0708 15.7096C28.0723 15.7142 28.0747 15.7184 28.0779 15.722C28.0811 15.7256 28.0851 15.7285 28.0895 15.7305C28.0939 15.7325 28.0987 15.7337 28.1036 15.7338ZM32.2301 12.7542C33.6529 13.6136 34.773 14.7716 35.6021 16.2483C35.6119 16.2661 35.6271 16.2764 35.6476 16.2791C37.3712 16.5094 39.0669 16.8677 40.7345 17.354C40.7393 17.3554 40.7445 17.3551 40.7492 17.3533C40.7539 17.3515 40.7579 17.3481 40.7604 17.3438C40.7629 17.3396 40.7639 17.3345 40.7632 17.3296C40.7624 17.3247 40.76 17.3202 40.7564 17.3168C38.3381 15.0455 35.4992 13.5171 32.2396 12.7316C32.2365 12.7303 32.2331 12.7303 32.23 12.7316C32.227 12.7328 32.2245 12.7352 32.2233 12.7382C32.222 12.7412 32.222 12.7446 32.2233 12.7476C32.2246 12.7506 32.227 12.753 32.2301 12.7542ZM19.7251 16.2088C20.3596 14.8796 21.2544 13.8866 22.4584 13.0335C22.4935 13.0087 22.4903 13.0026 22.4489 13.0149C19.7105 13.838 17.3035 15.2148 15.2278 17.1455C15.2085 17.1637 15.2116 17.1689 15.2372 17.1612C16.6916 16.7403 18.1702 16.4353 19.6731 16.246C19.6843 16.2446 19.6949 16.2404 19.704 16.2339C19.7131 16.2274 19.7204 16.2188 19.7251 16.2088Z" fill="#166FA7"/>
<path d="M18.1965 20.0942C18.7134 19.6134 19.235 19.1355 19.756 18.6587C19.7725 18.6437 19.7891 18.6435 19.8056 18.6582C20.9754 19.6924 22.5851 20.9392 22.9789 22.503C23.3562 23.9989 22.4863 25.5412 21.0647 26.1144C19.1776 26.8757 17.0475 25.8426 16.5738 23.8798C16.1971 22.3195 17.1155 21.1012 18.1965 20.0942ZM19.7702 19.9833C19.2971 20.3997 18.8281 20.8352 18.3793 21.2748C17.7755 21.8665 17.3556 22.6685 17.4952 23.4972C17.727 24.8775 19.1569 25.7102 20.5035 25.2927C21.3716 25.0232 22.0522 24.2428 22.1096 23.3299C22.1983 21.9153 20.7696 20.812 19.8121 19.9833C19.798 19.9709 19.784 19.9709 19.7702 19.9833Z" fill="#497236"/>
<path d="M29.3165 25.1482V20.0207C29.3165 20.0152 29.3186 20.0099 29.3225 20.0061C29.3264 20.0022 29.3316 20 29.3371 20H29.9793C29.9848 20 29.9901 20.0022 29.9939 20.0061C29.9978 20.0099 30 20.0152 30 20.0207V25.9822C30 25.9877 29.9978 25.993 29.9939 25.9968C29.9901 26.0007 29.9848 26.0029 29.9793 26.0029H29.0783C29.0753 26.0029 29.0723 26.0023 29.0696 26.001C29.0668 25.9997 29.0644 25.9979 29.0625 25.9956L24.72 20.8322C24.7173 20.829 24.7136 20.8266 24.7095 20.8255C24.7054 20.8245 24.7011 20.8247 24.6971 20.8261C24.6931 20.8276 24.6897 20.8302 24.6872 20.8337C24.6848 20.8372 24.6835 20.8413 24.6835 20.8456V25.9822C24.6835 25.9877 24.6814 25.993 24.6775 25.9968C24.6736 26.0007 24.6684 26.0029 24.6629 26.0029H24.0207C24.0152 26.0029 24.0099 26.0007 24.0061 25.9968C24.0022 25.993 24 25.9877 24 25.9822V20.0207C24 20.0152 24.0022 20.0099 24.0061 20.0061C24.0099 20.0022 24.0152 20 24.0207 20H24.9308C24.9338 20 24.9368 20.0006 24.9395 20.0019C24.9423 20.0032 24.9447 20.005 24.9466 20.0073L29.28 25.1616C29.2827 25.1648 29.2864 25.1671 29.2905 25.1682C29.2946 25.1693 29.2989 25.1691 29.3029 25.1677C29.3069 25.1662 29.3103 25.1636 29.3127 25.1601C29.3152 25.1566 29.3165 25.1524 29.3165 25.1482Z" fill="#497236"/>
<path d="M31.6913 22.643H35.3944C35.4013 22.643 35.4079 22.6459 35.4128 22.6509C35.4177 22.6559 35.4204 22.6627 35.4204 22.6698V23.315C35.4204 23.3221 35.4177 23.3289 35.4128 23.3339C35.4079 23.339 35.4013 23.3418 35.3944 23.3418H31.6913C31.6844 23.3418 31.6778 23.3446 31.6729 23.3496C31.668 23.3546 31.6653 23.3614 31.6653 23.3685V25.2745C31.6653 25.2816 31.668 25.2884 31.6729 25.2934C31.6778 25.2984 31.6844 25.3013 31.6913 25.3013H36.311C36.3179 25.3013 36.3246 25.3041 36.3294 25.3091C36.3343 25.3141 36.3371 25.3209 36.3371 25.328V25.9733C36.3371 25.9804 36.3343 25.9872 36.3294 25.9922C36.3246 25.9972 36.3179 26 36.311 26H31.026C31.0191 26 31.0125 25.9972 31.0076 25.9922C31.0027 25.9872 31 25.9804 31 25.9733V20.0267C31 20.0196 31.0027 20.0128 31.0076 20.0078C31.0125 20.0028 31.0191 20 31.026 20H36.311C36.3179 20 36.3246 20.0028 36.3294 20.0078C36.3343 20.0128 36.3371 20.0196 36.3371 20.0267V20.6568C36.3371 20.6639 36.3343 20.6707 36.3294 20.6757C36.3246 20.6807 36.3179 20.6835 36.311 20.6835H31.6913C31.6844 20.6835 31.6778 20.6864 31.6729 20.6914C31.668 20.6964 31.6653 20.7032 31.6653 20.7103V22.6163C31.6653 22.6234 31.668 22.6302 31.6729 22.6352C31.6778 22.6402 31.6844 22.643 31.6913 22.643Z" fill="#497236"/>
<path d="M21.1438 27.1003C21.6908 26.5985 22.2419 26.0944 22.799 25.6029C22.8148 25.5888 22.8309 25.5886 22.8475 25.6023C24.4649 26.9589 27.0095 28.965 25.6718 31.3652C24.3767 33.6884 20.802 33.5008 19.8244 31.0231C19.2141 29.476 19.9918 28.1576 21.1438 27.1003ZM22.582 27.0758C21.8321 27.755 20.8096 28.5157 20.6056 29.5421C20.4507 30.3177 20.7842 31.1257 21.4253 31.6047C22.7038 32.5599 24.5423 32.0062 25.0148 30.5241C25.5009 29.001 23.9013 27.7367 22.8587 26.8774C22.8441 26.8656 22.8295 26.8656 22.815 26.8774C22.7369 26.9393 22.6592 27.0055 22.582 27.0758Z" fill="#497236"/>
<path d="M13.6222 33H13.09C13.0859 33 13.0819 32.9987 13.0785 32.9963C13.0751 32.9939 13.0725 32.9904 13.0711 32.9864L11.0013 27.0285C11.0001 27.0253 10.9998 27.0219 11.0002 27.0185C11.0006 27.0151 11.0017 27.0119 11.0036 27.009C11.0055 27.0062 11.0079 27.0039 11.0108 27.0024C11.0137 27.0008 11.017 27 11.0202 27H11.6772C11.6813 27 11.6853 27.0013 11.6887 27.0037C11.6921 27.0061 11.6947 27.0096 11.6961 27.0136L13.3372 31.7262C13.3386 31.7303 13.3412 31.7338 13.3445 31.7363C13.3479 31.7388 13.352 31.7402 13.3561 31.7402C13.3602 31.7402 13.3643 31.7388 13.3677 31.7363C13.3711 31.7338 13.3736 31.7303 13.375 31.7262L15.0084 27.0136C15.0098 27.0096 15.0124 27.0061 15.0158 27.0037C15.0192 27.0013 15.0232 27 15.0273 27H15.7837C15.7878 27 15.7918 27.0013 15.7952 27.0037C15.7985 27.0061 15.8011 27.0096 15.8026 27.0136L17.4436 31.7225C17.445 31.7266 17.4476 31.7301 17.451 31.7326C17.4544 31.7351 17.4584 31.7364 17.4625 31.7364C17.4667 31.7364 17.4707 31.7351 17.4741 31.7326C17.4775 31.7301 17.4801 31.7266 17.4815 31.7225L19.1119 27.0136C19.1133 27.0096 19.1159 27.0061 19.1193 27.0037C19.1227 27.0013 19.1267 27 19.1308 27H19.7972C19.8005 27 19.8037 27.0008 19.8066 27.0024C19.8095 27.0039 19.812 27.0062 19.8139 27.009C19.8157 27.0119 19.8169 27.0151 19.8173 27.0185C19.8177 27.0219 19.8173 27.0253 19.8162 27.0285L17.7493 32.9864C17.7479 32.9904 17.7453 32.9939 17.7419 32.9963C17.7385 32.9987 17.7345 33 17.7304 33H17.1899C17.1858 33 17.1818 32.9987 17.1784 32.9963C17.175 32.9939 17.1724 32.9904 17.171 32.9864L15.4253 27.9681C15.4239 27.964 15.4213 27.9604 15.4179 27.9579C15.4145 27.9554 15.4105 27.9541 15.4064 27.9541C15.4022 27.9541 15.3982 27.9554 15.3948 27.9579C15.3914 27.9604 15.3888 27.964 15.3874 27.9681L13.6411 32.9864C13.6397 32.9904 13.6371 32.9939 13.6337 32.9963C13.6303 32.9987 13.6263 33 13.6222 33Z" fill="#497236"/>
<path d="M38.7214 32.3333V32.969C38.7214 32.9772 38.7183 32.9851 38.7128 32.9909C38.7072 32.9967 38.6997 33 38.6919 33H33.0296C33.0217 33 33.0142 32.9967 33.0087 32.9909C33.0031 32.9851 33 32.9772 33 32.969V27.0316C33 27.0234 33.0031 27.0155 33.0087 27.0097C33.0142 27.0039 33.0217 27.0006 33.0296 27.0006L33.6357 27C33.6436 27 33.6511 27.0033 33.6566 27.0091C33.6622 27.0149 33.6653 27.0228 33.6653 27.031V32.2713C33.6653 32.2795 33.6684 32.2874 33.6739 32.2932C33.6795 32.2991 33.687 32.3023 33.6949 32.3023H38.6919C38.6997 32.3023 38.7072 32.3056 38.7128 32.3114C38.7183 32.3172 38.7214 32.3251 38.7214 32.3333Z" fill="#497236"/>
<path d="M43.9736 27.0069C44.6282 27.0087 44.9969 27.4787 44.9981 28.1007C44.9994 29.2957 45 30.4914 45 31.6878C44.9994 32.652 44.673 32.998 43.6994 32.9986C42.1443 33.0002 40.5876 33.0004 39.0292 32.9992C39.0215 32.9992 39.014 32.9961 39.0086 32.9907C39.0031 32.9852 39 32.9778 39 32.9701V27.0298C39 27.0219 39.0031 27.0143 39.0087 27.0088C39.0143 27.0032 39.0219 27 39.0298 27C40.6757 26.9996 42.3236 27.0019 43.9736 27.0069ZM44.3121 28.0222C44.312 27.9791 44.3034 27.9364 44.2868 27.8965C44.2701 27.8567 44.2458 27.8205 44.2151 27.79C44.1845 27.7596 44.1481 27.7354 44.1081 27.719C44.0681 27.7025 44.0252 27.6941 43.982 27.6942L40.0093 27.7011C39.9661 27.7012 39.9232 27.7097 39.8833 27.7263C39.8433 27.7429 39.8071 27.7672 39.7765 27.7977C39.746 27.8283 39.7218 27.8646 39.7053 27.9045C39.6888 27.9444 39.6803 27.9871 39.6804 28.0303L39.6873 31.9776C39.6874 32.0208 39.696 32.0635 39.7126 32.1034C39.7293 32.1432 39.7536 32.1794 39.7842 32.2099C39.8149 32.2403 39.8513 32.2645 39.8913 32.2809C39.9313 32.2974 39.9741 32.3058 40.0174 32.3057L43.99 32.2988C44.0333 32.2987 44.0761 32.2901 44.1161 32.2736C44.156 32.257 44.1923 32.2327 44.2229 32.2021C44.2534 32.1716 44.2776 32.1353 44.2941 32.0954C44.3106 32.0555 44.319 32.0127 44.319 31.9696L44.3121 28.0222Z" fill="#497236"/>
<path d="M30.6163 30.7893L32.3585 32.9596C32.3798 32.9865 32.3739 33 32.3408 33H31.5613C31.533 33 31.5095 32.9884 31.491 32.9652L29.7553 30.7893C29.7423 30.7727 29.7255 30.7644 29.705 30.7644L27.3627 30.757C27.3524 30.757 27.3473 30.7624 27.3473 30.7731V32.9745C27.3473 32.9811 27.3448 32.9874 27.3403 32.9921C27.3359 32.9968 27.3299 32.9994 27.3236 32.9994L26.7263 33C26.7185 33 26.711 32.9967 26.7054 32.9909C26.6999 32.9851 26.6968 32.9772 26.6968 32.9689V27.0325C26.6968 27.0118 26.7066 27.0014 26.7263 27.0014C28.2103 27.0002 29.6928 26.9997 31.174 27.0002C31.4862 27.0002 31.7102 27.0308 31.8458 27.0922C32.2621 27.2812 32.4017 27.656 32.4023 28.1322C32.4034 28.6122 32.404 29.0921 32.404 29.572C32.404 29.8344 32.377 30.0323 32.323 30.1658C32.0214 30.9099 31.2532 30.7588 30.6282 30.7626C30.6252 30.7625 30.6223 30.7634 30.6198 30.7651C30.6173 30.7667 30.6153 30.7691 30.614 30.7719C30.6128 30.7747 30.6123 30.7779 30.6127 30.781C30.6132 30.7841 30.6144 30.7869 30.6163 30.7893ZM31.7387 28.0116C31.7387 27.9251 31.706 27.8421 31.6478 27.7808C31.5896 27.7196 31.5106 27.6852 31.4283 27.6852H27.6589C27.5766 27.6852 27.4976 27.7196 27.4394 27.7808C27.3812 27.8421 27.3485 27.9251 27.3485 28.0116V29.6775C27.3485 29.7641 27.3812 29.8471 27.4394 29.9083C27.4976 29.9695 27.5766 30.0039 27.6589 30.0039H31.4283C31.5106 30.0039 31.5896 29.9695 31.6478 29.9083C31.706 29.8471 31.7387 29.7641 31.7387 29.6775V28.0116Z" fill="#497236"/>
<path d="M41.8651 34.2816C41.787 34.7497 43.1306 34.4768 43.1424 35.3106C43.1554 36.2601 41.8172 36.0412 41.3133 35.7171C41.2948 35.7055 41.2903 35.6898 41.2997 35.6701L41.4694 35.3304C41.4713 35.3264 41.4741 35.3229 41.4776 35.3201C41.4811 35.3173 41.4852 35.3153 41.4895 35.3142C41.4939 35.3131 41.4984 35.3131 41.5028 35.3139C41.5072 35.3148 41.5114 35.3167 41.515 35.3194C41.7202 35.4698 42.6871 35.8635 42.6356 35.3031C42.634 35.2841 42.6267 35.2677 42.6137 35.2537C42.444 35.0737 42.0726 35.0215 41.839 34.9506C41.1578 34.7445 41.2636 33.9065 41.8946 33.7131C42.2869 33.5931 42.6699 33.6626 43.0437 33.9216C43.0543 33.9293 43.0565 33.9388 43.0502 33.9501L42.8739 34.2683C42.8653 34.2842 42.853 34.2871 42.8373 34.277C42.6439 34.1492 41.9348 33.867 41.8651 34.2816Z" fill="#497236"/>
<path d="M21.4665 36.0047C21.3166 36.0047 21.1682 35.9744 21.0298 35.9156C20.8913 35.8568 20.7655 35.7706 20.6595 35.6619C20.5535 35.5533 20.4694 35.4243 20.4121 35.2823C20.3547 35.1404 20.3252 34.9882 20.3252 34.8345C20.3252 34.6809 20.3547 34.5287 20.4121 34.3868C20.4694 34.2448 20.5535 34.1158 20.6595 34.0071C20.7655 33.8985 20.8913 33.8123 21.0298 33.7535C21.1682 33.6947 21.3166 33.6644 21.4665 33.6644C21.7692 33.6644 22.0595 33.7877 22.2736 34.0071C22.4876 34.2266 22.6079 34.5242 22.6079 34.8345C22.6079 35.1449 22.4876 35.4425 22.2736 35.6619C22.0595 35.8814 21.7692 36.0047 21.4665 36.0047ZM21.4665 35.5935C21.6441 35.5935 21.8143 35.5135 21.9399 35.3711C22.0654 35.2286 22.136 35.0354 22.136 34.834C22.136 34.6325 22.0654 34.4393 21.9399 34.2969C21.8143 34.1544 21.6441 34.0744 21.4665 34.0744C21.289 34.0744 21.1187 34.1544 20.9932 34.2969C20.8676 34.4393 20.7971 34.6325 20.7971 34.834C20.7971 35.0354 20.8676 35.2286 20.9932 35.3711C21.1187 35.5135 21.289 35.5935 21.4665 35.5935Z" fill="#497236"/>
<path d="M34.6018 34.0959C33.8572 33.9357 33.5231 34.7556 33.8945 35.3003C34.1695 35.7039 34.7342 35.6865 34.9785 35.2649C34.9887 35.2475 35.0027 35.2438 35.0205 35.2538L35.3599 35.4524C35.3647 35.4553 35.3689 35.4591 35.3721 35.4636C35.3754 35.4682 35.3776 35.4734 35.3786 35.4788C35.3797 35.4843 35.3796 35.49 35.3783 35.4954C35.377 35.5009 35.3746 35.506 35.3711 35.5105C35.0936 35.8632 34.752 36.0252 34.3463 35.9966C33.0731 35.9066 32.8732 34.0512 34.0826 33.7092C34.5998 33.5628 35.0147 33.7053 35.3274 34.1366C35.3412 34.1559 35.3382 34.1726 35.3185 34.1865L35.0104 34.3996C34.9915 34.4128 34.9763 34.4093 34.9649 34.3892C34.8754 34.2262 34.7543 34.1284 34.6018 34.0959Z" fill="#497236"/>
<path d="M12.9477 35.2648V35.9489C12.9477 35.9779 12.9329 36 12.9033 36H12.5119C12.487 36 12.4746 35.9802 12.4746 35.9559V33.7271C12.4746 33.7039 12.4864 33.6919 12.5101 33.6911C13.0857 33.6745 13.4468 33.6735 13.5935 33.6882C14.0707 33.7358 14.3114 34.2991 14.1819 34.6963C13.9802 35.3153 13.4935 35.1934 12.9832 35.2276C12.9595 35.2292 12.9477 35.2416 12.9477 35.2648ZM12.9447 34.0953V34.7968C12.9447 34.8025 12.947 34.8079 12.9512 34.812C12.9553 34.816 12.9608 34.8183 12.9666 34.8183H13.4202C13.5068 34.8183 13.5898 34.7826 13.651 34.7191C13.7122 34.6556 13.7466 34.5695 13.7466 34.4797V34.4123C13.7466 34.3226 13.7122 34.2364 13.651 34.173C13.5898 34.1095 13.5068 34.0738 13.4202 34.0738H12.9666C12.9608 34.0738 12.9553 34.0761 12.9512 34.0801C12.947 34.0841 12.9447 34.0896 12.9447 34.0953Z" fill="#497236"/>
<path d="M17.8006 35.1481L18.2944 35.9512C18.3113 35.9787 18.3034 36 18.2707 36H17.8343C17.813 36 17.797 35.9837 17.7864 35.9663L17.3387 35.2485C17.3281 35.2315 17.3127 35.223 17.2926 35.223H16.9094C16.8897 35.223 16.8798 35.2326 16.8798 35.252V35.9558C16.8798 35.9802 16.8676 36 16.8432 36H16.4363C16.4166 36 16.4067 35.9827 16.4067 35.9634V33.712C16.4067 33.7083 16.4075 33.7046 16.4089 33.7012C16.4103 33.6978 16.4124 33.6947 16.4151 33.6921C16.4177 33.6895 16.4209 33.6874 16.4243 33.6861C16.4277 33.6847 16.4314 33.684 16.4351 33.6841C16.9804 33.6853 17.9088 33.5076 18.1424 34.1597C18.2863 34.5604 18.1753 34.8771 17.8095 35.1097C17.7941 35.1198 17.7911 35.1326 17.8006 35.1481ZM16.881 34.0929L16.8786 34.8014C16.8786 34.806 16.8805 34.8104 16.8838 34.8137C16.8872 34.817 16.8917 34.8188 16.8964 34.8188L17.3642 34.82C17.459 34.8203 17.5502 34.783 17.6175 34.7163C17.6848 34.6497 17.7228 34.5591 17.7231 34.4646V34.4344C17.7233 34.3875 17.7142 34.3412 17.6963 34.2978C17.6785 34.2545 17.6523 34.2151 17.6192 34.1819C17.5861 34.1487 17.5467 34.1223 17.5034 34.1042C17.46 34.0862 17.4135 34.0768 17.3665 34.0767L16.8988 34.0755C16.894 34.0755 16.8895 34.0773 16.8862 34.0806C16.8829 34.0839 16.881 34.0883 16.881 34.0929Z" fill="#497236"/>
<path d="M24.8164 33.7201C24.8164 33.7093 24.8208 33.699 24.8285 33.6914C24.8363 33.6838 24.8468 33.6795 24.8578 33.6795L25.7259 33.6777C25.8722 33.6775 26.0172 33.7055 26.1524 33.7602C26.2877 33.8148 26.4106 33.895 26.5143 33.9963C26.6179 34.0975 26.7001 34.2177 26.7563 34.3501C26.8125 34.4824 26.8416 34.6243 26.8418 34.7677V34.8966C26.8423 35.1862 26.7254 35.464 26.5168 35.6691C26.3082 35.8742 26.025 35.9995 25.7295 36H24.8613C24.8504 36 24.8398 35.9876 24.8321 35.9799C24.8243 35.9723 24.82 35.962 24.82 35.9512L24.8164 33.7201ZM25.2895 34.1208V35.5389C25.2895 35.5514 25.2945 35.5633 25.3035 35.5721C25.3125 35.581 25.3247 35.5859 25.3374 35.5859H25.6615C25.8495 35.5859 26.0299 35.5106 26.1628 35.3765C26.2958 35.2425 26.3705 35.0607 26.3705 34.8711V34.7886C26.3705 34.599 26.2958 34.4172 26.1628 34.2831C26.0299 34.1491 25.8495 34.0738 25.6615 34.0738H25.3374C25.3247 34.0738 25.3125 34.0787 25.3035 34.0876C25.2945 34.0964 25.2895 34.1083 25.2895 34.1208Z" fill="#497236"/>
<path d="M30.3039 35.5424C30.7587 35.3095 30.6156 34.1824 30.6144 33.7155C30.6144 33.6946 30.6249 33.6841 30.6458 33.6841H31.0544C31.0729 33.6841 31.0824 33.6932 31.0828 33.7114C31.0999 34.5941 31.3057 35.928 30.123 35.9965C28.7936 36.0737 29.016 34.5436 29.0378 33.7178C29.0382 33.6954 29.0501 33.6841 29.0733 33.6841H29.4589C29.4794 33.6841 29.4898 33.6944 29.4902 33.7149C29.491 34.1257 29.492 34.5351 29.4932 34.9431C29.4944 35.3612 29.8663 35.7665 30.3039 35.5424Z" fill="#497236"/>
<path d="M38.4599 34.097V35.9715C38.4599 35.9825 38.4497 36 38.4386 36H38.0228C38.0115 36 38.0015 35.9826 38.0015 35.9715V34.097C38.0015 34.0915 37.9993 34.0862 37.9953 34.0822C37.9913 34.0783 37.9859 34.0761 37.9803 34.0761H37.2688C37.2632 34.0761 37.2578 34.0739 37.2538 34.07C37.2498 34.0661 37.2476 34.0608 37.2476 34.0552V33.705C37.2476 33.6995 37.2498 33.6942 37.2538 33.6903C37.2578 33.6863 37.2632 33.6841 37.2688 33.6841H39.1778C39.1834 33.6841 39.1888 33.6863 39.1928 33.6903C39.1968 33.6942 39.1991 33.6995 39.1991 33.705V34.0552C39.1991 34.0608 39.1968 34.0661 39.1928 34.07C39.1888 34.0739 39.1834 34.0761 39.1778 34.0761H38.4811C38.4755 34.0761 38.4701 34.0783 38.4661 34.0822C38.4621 34.0862 38.4599 34.0915 38.4599 34.097Z" fill="#497236"/>
<path d="M19.5847 39.0728C19.3895 38.6163 19.2245 38.1491 19.0897 37.671C19.0621 37.5738 19.0497 37.4813 19.0525 37.3934C19.0528 37.383 19.0564 37.3729 19.0627 37.3646C19.069 37.3562 19.0777 37.35 19.0877 37.3466C19.0978 37.3433 19.1086 37.343 19.1188 37.3459C19.129 37.3487 19.138 37.3546 19.1447 37.3626C19.2133 37.4439 19.2746 37.525 19.3286 37.6059C19.6842 38.1378 20.0617 38.6543 20.4611 39.1552C20.4745 39.1723 20.4922 39.1816 20.5143 39.1831C22.8423 39.3802 25.1745 39.4899 27.5107 39.5124C27.5265 39.5124 27.5352 39.5046 27.5368 39.4891L27.752 37.1234C27.752 37.1195 27.7536 37.1158 27.7563 37.1131C27.7591 37.1104 27.7629 37.1088 27.7668 37.1088C27.7707 37.1088 27.7745 37.1104 27.7773 37.1131C27.78 37.1158 27.7816 37.1195 27.7816 37.1234L27.998 39.4903C27.9996 39.5081 28.0095 39.517 28.0276 39.517C30.4092 39.5306 32.7873 39.4485 35.1618 39.2708C35.1823 39.2692 35.1981 39.2603 35.2091 39.2441C35.6605 38.5813 36.0339 37.879 36.3292 37.1373C36.3579 37.0653 36.4039 37.0374 36.467 37.0537C36.4947 37.0608 36.5189 37.0776 36.535 37.101C36.5511 37.1244 36.558 37.1527 36.5545 37.1808C36.4677 37.8556 36.3075 38.5136 36.0737 39.1546C36.0658 39.1756 36.0733 39.1848 36.0962 39.1825C37.601 39.0366 39.0967 38.8275 40.5834 38.5554C40.6055 38.5515 40.6244 38.5416 40.6402 38.5257C41.0987 38.0647 41.5306 37.5806 41.9359 37.0734C41.9517 37.0537 41.9738 37.0398 41.9985 37.0341C42.0233 37.0284 42.0492 37.0312 42.0719 37.0421C42.1523 37.0804 42.1636 37.153 42.1228 37.229C40.1547 40.9136 36.3575 43.3856 32.3386 44.417C25.3688 46.205 17.1276 43.8781 13.3813 37.4677C13.3756 37.4581 13.3726 37.4472 13.3726 37.4361C13.3725 37.425 13.3754 37.4141 13.3809 37.4044C13.3865 37.3947 13.3945 37.3866 13.4042 37.3809C13.4139 37.3752 13.425 37.3721 13.4363 37.3719C13.5199 37.3696 13.5873 37.399 13.6385 37.4602C13.9196 37.7962 14.2167 38.1177 14.5297 38.4247C14.5447 38.439 14.5622 38.4479 14.5823 38.4514C16.2378 38.7178 17.9001 38.9318 19.5693 39.0937C19.5719 39.0939 19.5746 39.0934 19.577 39.0923C19.5794 39.0912 19.5814 39.0896 19.583 39.0875C19.5845 39.0854 19.5855 39.0829 19.5858 39.0803C19.5861 39.0778 19.5857 39.0752 19.5847 39.0728ZM23.3061 43.2463C21.8821 42.3967 20.7319 41.1947 19.9336 39.7603C19.9237 39.7429 19.909 39.7326 19.8892 39.7295C18.1518 39.4618 16.4581 39.1366 14.7704 38.6343C14.7672 38.6333 14.7637 38.6333 14.7605 38.6345C14.7574 38.6356 14.7547 38.6378 14.753 38.6407C14.7512 38.6435 14.7506 38.6469 14.751 38.6502C14.7515 38.6534 14.7531 38.6565 14.7556 38.6587C17.1526 40.9273 19.9738 42.4623 23.2192 43.2637C23.248 43.2707 23.2766 43.2693 23.305 43.2596C23.3063 43.2591 23.3074 43.2582 23.3082 43.2571C23.3091 43.256 23.3096 43.2547 23.3097 43.2533C23.3098 43.2519 23.3095 43.2505 23.3089 43.2493C23.3083 43.2481 23.3073 43.247 23.3061 43.2463ZM35.8064 39.787C35.1914 41.0878 34.2547 42.1673 33.0524 42.978C33.0509 42.9789 33.0499 42.9802 33.0494 42.9818C33.049 42.9834 33.0492 42.9851 33.0499 42.9866C33.0507 42.9882 33.0521 42.9894 33.0537 42.9902C33.0553 42.9909 33.0572 42.9911 33.0589 42.9908C35.8056 42.1681 38.2201 40.7897 40.3025 38.8556C40.3042 38.8538 40.3053 38.8515 40.3055 38.849C40.3058 38.8466 40.3053 38.8441 40.304 38.842C40.3028 38.8399 40.3009 38.8382 40.2986 38.8372C40.2963 38.8362 40.2938 38.8359 40.2913 38.8364C38.8358 39.2588 37.355 39.5656 35.849 39.7568C35.8293 39.7592 35.8151 39.7692 35.8064 39.787ZM27.4386 40.262C25.3215 40.226 23.2299 40.118 21.1222 39.891C21.0978 39.8883 21.0937 39.8962 21.1098 39.9148C22.6787 41.6929 24.6781 43.0093 27.1329 43.273C27.1406 43.2737 27.1483 43.2729 27.1557 43.2707C27.1631 43.2685 27.17 43.2649 27.1759 43.2601C27.1818 43.2553 27.1867 43.2494 27.1903 43.2427C27.1939 43.2361 27.1961 43.2288 27.1967 43.2213L27.4634 40.2888C27.465 40.271 27.4567 40.262 27.4386 40.262ZM28.3901 43.266C30.9135 43.0825 33.1512 41.9019 34.6952 39.9351C34.6971 39.9327 34.6981 39.9298 34.6983 39.9268C34.6985 39.9238 34.6978 39.9208 34.6963 39.9181C34.6949 39.9155 34.6926 39.9133 34.6899 39.9119C34.6872 39.9105 34.6841 39.9099 34.681 39.9101C32.4926 40.1397 30.2978 40.2566 28.0968 40.2609C28.0775 40.2613 28.0686 40.2709 28.0702 40.2899L28.3369 43.2219C28.3396 43.254 28.3574 43.2687 28.3901 43.266Z" fill="#166FA7"/>
</svg>
