<?xml version='1.0' encoding='utf-8'?>
<!-- by TradeStack -->
<svg width="56" height="56" viewBox="0 0 56 56" xmlns="http://www.w3.org/2000/svg"><path fill="#F0F3FA" d="M0 0h56v56H0z" /><path d="M42 14v10.13c-.54-.96-1.1-1.76-1.67-2.4A10.95 10.95 0 0 0 25.96 20a10.6 10.6 0 0 0-3.98 5.19c-.04.12-.08.12-.1 0l-.44-2.2a3.65 3.65 0 0 0-.41-1.28c-.3-.4-.75-.72-1.36-.72H14v-7h28Z" fill="#009A74" /><path d="M42 27.53v.89a6.75 6.75 0 0 1-.86 2.96A7.04 7.04 0 0 1 29.9 32.8 7 7 0 1 1 42 27.54ZM19 24a1 1 0 1 0 0-2 1 1 0 0 0 0 2Z" fill="#C50019" /><path d="M42 33.25v8.63l-.07.12H14V22.07c.67.2 1.08.63 1.21 1.32l3.07 15.57c0 .03.03.04.05.04h6.18c.04 0 .07-.03.07-.07l-.66-3.38c-.03-.13 0-.15.1-.05a10.92 10.92 0 0 0 17.75-2.06c.03-.05.07-.15.11-.3.02-.08.05-.08.08 0l.04.11Z" fill="#C50019" /><path d="M42 41.88V42h-.07l.07-.12Z" fill="#fff" /></svg>