<!-- by TradeStack --><svg viewBox="0 0 56 56" xmlns="http://www.w3.org/2000/svg"><path fill="#1D4174" d="M0 0h56v56H0z"/><path fill-rule="evenodd" d="M35 38.45a14.46 14.46 0 0 1-6.3 3.2L28 42v-.21a14.5 14.5 0 1 1 11.15-9.4 1.03 1.03 0 0 1-.49 1.95 1.04 1.04 0 0 1-.6-1.88A13.5 13.5 0 0 0 25 14V28h-1V14.08a13.5 13.5 0 1 0 4 26.69V29h1v.76a3 3 0 1 1 0 4.47v6.31c2.3-.61 4.36-1.82 6-3.45V35h-1v-1h1v-2h1v2h1v1h-1v4.45c0 .28.24.55.49.55H37v1h-1.11c-.5 0-.89-.46-.89-1.02v-1.53ZM20 28a3 3 0 1 0-2-5.24V22h-1v13h1v-7.76c.53.47 1.23.76 2 .76Zm0-1a2 2 0 1 1 0-4 2 2 0 0 1 0 4Zm11 7a2 2 0 1 1 0-4 2 2 0 0 1 0 4Zm-5-9a3 3 0 0 0 5 2.24V28h1v-6h-1v.76A3 3 0 0 0 26 25Zm5 .02v-.04a2 2 0 1 0 0 .04ZM27 32a3 3 0 1 1-6 0 3 3 0 0 1 6 0Zm-1 0a2 2 0 1 1-4 0 2 2 0 0 1 4 0Zm7-4h1v-3.32c.1-.52.7-1.68 1.64-1.68.95 0 1.34.83 1.36 1.18V28h1v-3.82c0-.97-.51-2.18-2.04-2.18-1.22 0-1.81.78-1.96 1.17V22h-1v6Zm5 7v5.03c0 .53.44.97.98.97h1.23v-1h-.57c-.27 0-.64-.2-.64-.48V35h-1Zm3-3h1v5.52L44.32 35h1.42l-2.34 2.52L46 41h-1.38l-2.03-2.61-.59.63V41h-1v-9Z" fill="#fff"/></svg>