<!-- by TradeStack --><svg width="56" height="56" viewBox="0 0 56 56" xmlns="http://www.w3.org/2000/svg"><path fill="#F0F3FA" d="M0 0h56v56H0z"/><path d="M14.58 21.07c1.24-2.99 9.12-7.3 12.9-9.07-5.16.53-8.91 2.94-10.83 4.27a9.61 9.61 0 0 0-3.1 3.73l1.03 1.07Z" fill="url(#ahrzho0en)"/><path d="M18.71 32.8c1.55-4.27 10.15-10.49 13.94-12.27-5.17.54-12.4 2.14-15.49 4.27-1.55 1.07-5.16 3.73-5.16 5.33 1.92 3.13 3.6 3.1 6.71 2.67Z" fill="url(#bhrzho0en)"/><path d="M24.39 42.93c1.55-4.26 8.6-8.89 12.38-10.66-5.16.53-8.77 1.6-11.87 3.73-1.55 1.07-4.64 4.27-4.64 5.87a7.74 7.74 0 0 0 4.13 1.06Z" fill="url(#chrzho0en)"/><path d="M34.2 42.93c-.83 0-.7-1.06-.52-1.6l-3.1 1.6c0 .36.41 1.07 2.07 1.07 1.65 0 4.81-2.13 6.19-3.2-1.2.71-3.82 2.13-4.65 2.13Z" fill="#356798"/><path d="M16.13 20.53c-2.07 0-2.24-1.06-2.07-1.6C12.52 20 12 21.6 12 23.73c0 1.71 2.75 2.14 4.13 2.14 8.77 0 19.61-11.2 19.61-12.27 0-.85-.34-1.07-.51-1.07-5.68 4.27-16.52 8-19.1 8Z" fill="url(#dhrzho0en)"/><path d="M15.1 31.2c-2.07 0-2.93-1.07-3.1-1.6 0 3.2 2.06 5.87 3.61 8 1.04 1.42 5.5.71 8.26 0C37.91 34.19 43.66 25.16 44 21.07 33.16 26.93 17.68 31.2 15.1 31.2Z" fill="url(#ehrzho0en)"/><path d="M26.97 41.87c-2.9.42-5.68.17-6.71 0 2.06 1.7 4.99 2.13 6.2 2.13 10.73-.85 16.16-7.47 17.54-10.67-3.61 3.74-13.42 8-17.03 8.54Z" fill="url(#fhrzho0en)"/><defs><linearGradient id="ahrzho0en" x1="26.45" y1="12" x2="14.35" y2="19.64" gradientUnits="userSpaceOnUse"><stop stop-color="#4B79AB"/><stop offset="1" stop-color="#356498"/></linearGradient><linearGradient id="bhrzho0en" x1="26.97" y1="21.6" x2="14.87" y2="29.24" gradientUnits="userSpaceOnUse"><stop stop-color="#4B79AB"/><stop offset="1" stop-color="#356498"/></linearGradient><linearGradient id="chrzho0en" x1="34.19" y1="32.27" x2="22.09" y2="39.9" gradientUnits="userSpaceOnUse"><stop stop-color="#4B79AB"/><stop offset="1" stop-color="#356498"/></linearGradient><linearGradient id="dhrzho0en" x1="34.71" y1="13.6" x2="12.3" y2="22.68" gradientUnits="userSpaceOnUse"><stop stop-color="#A9CEE5"/><stop offset="1" stop-color="#056DAC"/></linearGradient><linearGradient id="ehrzho0en" x1="42.45" y1="22.67" x2="14.76" y2="35.81" gradientUnits="userSpaceOnUse"><stop stop-color="#8BC93A"/><stop offset="1" stop-color="#089143"/></linearGradient><linearGradient id="fhrzho0en" x1="42.45" y1="33.87" x2="22.61" y2="42.96" gradientUnits="userSpaceOnUse"><stop stop-color="#8DC838"/><stop offset="1" stop-color="#0D9042"/></linearGradient></defs></svg>