<?xml version='1.0' encoding='utf-8'?>
<!-- by TradeStack -->
<svg width="56" height="56" viewBox="0 0 56 56" fill="none" xmlns="http://www.w3.org/2000/svg"><path fill="#F0F3FA" d="M0 0h56v56H0z" /><path d="M50.47 21.74a1.98 1.98 0 0 0-1.7-.94c-1.08 0-1.96.85-1.96 1.9 0 1.06.88 1.91 1.96 1.91.72 0 1.35-.38 1.7-.94" stroke="#EC1D25" stroke-width=".5" stroke-linecap="round" /><path d="M50.1 25.21c-.38.19-.8.29-1.26.29A2.8 2.8 0 0 1 46 22.75 2.8 2.8 0 0 1 48.84 20a2.91 2.91 0 0 1 1.19.25" stroke="#EC1D25" stroke-width=".5" stroke-linecap="round" /><path d="M48.75 25.04a2.33 2.33 0 0 1-2.37-2.29c0-1.27 1.06-2.3 2.37-2.3" stroke="#EC1D25" stroke-linecap="round" /><ellipse cx="50.66" cy="22.71" rx=".25" ry=".25" fill="#E82229" /><ellipse cx="50.66" cy="20.78" rx=".25" ry=".25" fill="#E82229" /><ellipse cx="50.66" cy="24.75" rx=".25" ry=".25" fill="#E82229" /><path d="M51.11 24.16a2.74 2.74 0 0 0 .07-2.7" stroke="#EC1D25" stroke-width=".5" stroke-linecap="round" /><path fill="#0D726D" d="M29 26h3v1h-3zM30 27h1v4h-1zM21 26c-.75 0-1.42.25-1.86.52l.4.84c.31-.17.77-.32 1.27-.32.64 0 1.19.26 1.19.88v.48a6.62 6.62 0 0 0-1.2-.11c-1.08 0-1.8.44-1.8 1.43 0 .96.68 1.42 1.6 1.42.56 0 1.04-.2 1.32-.52L22 31h1v-3.18c0-1.23-.7-1.82-2-1.82zm-.1 4.21c-.36 0-.62-.17-.62-.57 0-.4.27-.56.7-.56.3 0 .72.03 1.02.1v.46c-.19.34-.67.57-1.1.57zM26.33 26a2.1 2.1 0 0 0-1.38.55l-.1-.55H24v5h1v-3.42c.25-.29.63-.53 1-.53.57 0 1 .27 1 .88V31h1v-3.2c0-1.14-.47-1.8-1.67-1.8zM43.27 26c-.63 0-1.13.27-1.55.7-.23-.45-.8-.7-1.37-.7-.52 0-.97.24-1.3.56L39 26h-1v5h1v-3.4c.19-.5.74-.63 1.1-.63.39 0 .9.39.9.93V31h1v-3.4c.14-.43.68-.63 1.12-.63.5 0 .88.36.88.93V31h1v-3.23c0-1.21-.67-1.77-1.73-1.77zM35 26c-.74 0-1.4.25-1.85.52l.4.84c.31-.17.77-.32 1.27-.32.64 0 1.19.26 1.19.88v.48a6.62 6.62 0 0 0-1.2-.11c-1.08 0-1.8.44-1.8 1.43 0 .96.68 1.42 1.6 1.42.56 0 1.04-.2 1.32-.52L36 31h1v-3.18c0-1.23-.7-1.82-2-1.82zm-.08 4.21c-.37 0-.63-.17-.63-.57 0-.4.27-.56.7-.56.3 0 .72.03 1.02.1v.46c-.2.34-.67.57-1.1.57z" /><path d="M4 29c3.8-.73 11.21-.57 14.55 0-5.02-1.67-9.31-2-14.55 0z" fill="#237773" /><path d="M11.5 21l.38.47c.85 1 1.36 2.25 1.64 3.32.25-.48.52-1.14 1.01-1.58l.38-.37.38.37c1.18 1.22 1.7 3.88 1.7 5.37l-.98-.23c0-1.14-.38-3.1-1.1-4.03-.3.34-.48.75-.61 1.2-.24.8-.26 1.72-.3 2.48h-.99c-.06-1.3-.38-3.86-1.51-5.53-1.04 1.55-1.45 3.66-1.5 5.53H9c0-1.36-.09-2.56-.91-3.68-.73.97-1.04 2.9-1.09 4.04l-.99.08c0-1.58.46-4.08 1.7-5.23l.38-.37.38.37c.44.43.85 1.1 1.07 1.58a7.91 7.91 0 0 1 1.58-3.32l.38-.47z" fill="#237773" /><path d="M11.5 36l-.38-.47a8.4 8.4 0 0 1-1.64-3.32c-.25.48-.52 1.14-1.01 1.58l-.38.37-.38-.37C6.53 32.57 6 30.49 6 29h1c0 1.14.37 2.74 1.09 3.68.83-.96.85-2.5.91-3.68h1c.07 1.3.37 3.86 1.5 5.53 1.11-1.66 1.26-3.77 1.5-5.53h1c0 1.36.08 2.56.91 3.68A7.1 7.1 0 0 0 16 29h1c0 1.58-.47 3.64-1.7 4.79l-.39.37-.38-.37a5.41 5.41 0 0 1-1.07-1.58 7.91 7.91 0 0 1-1.58 3.32l-.38.47z" fill="#F4A237" /></svg>