<!-- by TradeStack --><svg viewBox="0 0 56 56" xmlns="http://www.w3.org/2000/svg"><path fill="url(#anksftdlx)" d="M0 0h56v56H0z"/><path d="m34.32 11.5-.52-.5c-7.37 8.32-8.19 15.69-7.68 18.33 7.38 1.58 13.32 0 15.37-1l.5-.98c-2.21.33-7.26.2-9.72-2.98-2.46-3.17.34-9.9 2.05-12.87Z" fill="#FDFDFF"/><path d="m20.68 44.5.51.5c7.38-8.32 8.2-15.69 7.69-18.33-7.38-1.58-13.32 0-15.37 1l-.51.98c2.22-.33 7.27-.2 9.73 2.98 2.46 3.17-.34 9.9-2.05 12.87Z" fill="#88BD25"/><defs><linearGradient id="anksftdlx" x1="10.42" y1="9.71" x2="68.15" y2="76.02" gradientUnits="userSpaceOnUse"><stop stop-color="#1A1E21"/><stop offset="1" stop-color="#06060A"/></linearGradient></defs></svg>