<!-- by TradeStack --><svg width="56" height="56" viewBox="0 0 56 56" xmlns="http://www.w3.org/2000/svg"><path fill="#F0F3FA" d="M0 0h56v56H0z"/><path d="m33.17 16-3.11-4 2.5 3.73h-1.9l4.92 7.73L30 31h6.92l2.41-3.8L42 30.37l-2.67-4.75-3.08 4.37h-4.33l4.5-6.53L31.31 16h1.86ZM44.83 31l3.11 4-2.5-3.73h1.9l-4.92-7.73L48 16h-6.92l-2.41 3.8L36 16.63l2.67 4.75 3.08-4.37h4.33l-4.5 6.53L46.69 31h-1.86Z" fill="#F37021"/><path d="M30 21v-2H20v2h4v10h2V21h4ZM12 19h-2v12h2V19Zm0 0h3a4 4 0 0 1 0 8h-3v-2h3a2 2 0 1 0 0-4h-3v-2Z" fill="#6C6D6F"/><path d="M44.63 34.05a.86.86 0 0 0-.32-.62 1.2 1.2 0 0 0-.76-.23c-.22 0-.4.04-.55.1a.78.78 0 0 0-.35.27.68.68 0 0 0-.11.4c0 .12.02.22.07.31.05.1.12.17.22.24.09.06.2.12.32.17.12.05.25.09.39.12l.56.15c.28.06.53.15.76.26.23.11.43.25.6.41.17.16.3.35.4.57.09.22.14.47.14.76 0 .41-.1.78-.3 1.08-.19.3-.47.54-.84.71-.36.17-.8.25-1.31.25s-.96-.08-1.34-.25a1.98 1.98 0 0 1-.88-.75 2.36 2.36 0 0 1-.33-1.23h1.3c0 .22.07.41.18.57.1.15.25.26.43.34.18.08.39.11.62.11.23 0 .42-.03.59-.1a.9.9 0 0 0 .4-.3c.08-.13.13-.27.13-.44a.6.6 0 0 0-.13-.38.96.96 0 0 0-.36-.27 3.5 3.5 0 0 0-.58-.2l-.7-.18a2.8 2.8 0 0 1-1.25-.66c-.31-.3-.47-.7-.46-1.2 0-.41.1-.77.3-1.08.21-.3.5-.55.86-.72.36-.17.77-.26 1.23-.26.47 0 .88.09 1.23.26s.63.41.82.72c.2.3.3.67.3 1.07h-1.28ZM36 39v-7h1.32v5.78H40V39h-4ZM29.65 39H28l2.51-7h1.98L35 39h-1.65l-1.82-5.4h-.06L29.65 39Zm-.1-2.75h3.89v1.15h-3.9v-1.15ZM23 33.22V32h6v1.22h-2.24V39h-1.52v-5.78H23ZM17 39v-7h4.99v1.22h-3.43v1.67h3.17v1.22h-3.17v1.67H22V39h-5ZM9 32h1.68l1.78 4.7h.08l1.78-4.7H16v7h-1.32v-4.56h-.06l-1.67 4.53h-.9l-1.67-4.54h-.06V39H9v-7Z" fill="#C1A16F"/></svg>