<!-- by TradeStack --><svg width="56" height="56" viewBox="0 0 56 56" xmlns="http://www.w3.org/2000/svg"><path fill="#F0F3FA" d="M0 0h56v56H0z"/><path fill-rule="evenodd" d="M26.9 32.74c-2 2.88-5.04 4.26-8.64 4.26A10.13 10.13 0 0 1 8 27c0-5.52 4.57-10 10.24-10 2.13 0 4.16.38 5.8 1.46a10.06 10.06 0 0 1 3.79 4.8c1.14-1.51 2.4-3.1 3.2-3.77 1.7-1.38 3.84-2.49 6.22-2.49A9.72 9.72 0 0 1 47 26.62c0 2.1-.42 4.04-1.6 5.62C43.61 34.59 41 37 37.76 37H34v6h-5V32h8c2.46 0 5-2 5-5.38 0-2.4-2.3-4.62-4.75-4.62-3.63 0-4.1 1.78-10.34 10.74ZM23 27c0 2.66-2.27 5-5 5a5.1 5.1 0 0 1-5-5c0-2.66 2.27-5 5-5s5 2.34 5 5Z" fill="#0053A2"/></svg>