<?xml version='1.0' encoding='utf-8'?>
<!-- by TradeStack -->
<svg width="56" height="56" viewBox="0 0 56 56" xmlns="http://www.w3.org/2000/svg"><path fill="#F0F3FA" d="M0 0h56v56H0z" /><path d="M33.74 28.78c0-.02-.06-.64-2.01-1.18a8.7 8.7 0 0 0-2.77-.23s-.18-.34-.86-.37c-.45.01-.9.05-1.35.12.47-.24.97-.43 1.49-.54.32-.07.22-.13.16-.23-.05-.1-.14-.23-.25-.23-.7.13-1.38.4-1.98.78-.38.23-.23.59.12.65.1.01.76-.06 1.4-.1.5-.02.51.05.51.05-.85.1-1.68.37-2.44.77-.63.32-.89.94-.32 1.34.26.2 1.59.5 3-.74.4-.36.6-.73.59-1.08v-.02c.75-.03 1.5 0 2.24.11 1.62.22 2.17.85 2.17.85s-.2.38.15.42c.2 0 .16-.36.15-.37Zm-7.24.57c-.4.13-1.07.24-1.07-.15s.46-.61.83-.79a6.04 6.04 0 0 1 2.1-.59s-.23 1.03-1.86 1.53ZM26.5 25.28a.4.4 0 0 0-.26.13 2.74 2.74 0 0 0-.64.9.06.06 0 0 0 .02.04.06.06 0 0 0 .05.02c.29-.12.56-.3.78-.52.2-.18.25-.28.25-.4 0-.05-.03-.09-.07-.12a.18.18 0 0 0-.13-.05Zm-15.3 1.48c-.3-.14-.6-.19-.92-.14-.76.1-1.48.4-2.1.89-.68.5-1.04 1-1.06 1.48a.57.57 0 0 0 .36.58c.3.13.64.18.97.13.37-.03.74-.13 1.1-.28.23-.1.47-.23.7-.37-.57.13-1.13.22-1.7.26-.07 0-.73.02-.8-.23-.03-.15.1-.38.33-.62.98.27 2.02.16 2.93-.3.5-.25.85-1.03.18-1.4Zm-.8 1.1c-.28.14-1.4.4-1.93.24l.11-.09a4.69 4.69 0 0 1 1.96-.9c.38-.09.66-.04.64.21 0 .17-.36.36-.77.55Zm14.66-1.1c-.28-.14-.6-.2-.91-.15-.76.1-1.49.4-2.1.89-.69.5-1.04 1-1.06 1.48-.02.12.01.25.08.35.06.1.16.19.28.23.3.13.64.18.97.13.37-.03.74-.13 1.09-.28.24-.1.48-.23.7-.38-.56.14-1.13.24-1.7.28-.07 0-.72.02-.79-.23-.03-.15.1-.38.33-.62.98.27 2.02.16 2.93-.3.49-.26.85-1.04.18-1.4Zm-.78 1.1c-.3.14-1.41.4-1.94.23l.11-.08a4.69 4.69 0 0 1 1.96-.91c.38-.09.65-.03.64.21 0 .17-.36.36-.77.55Z" fill="#A93439" /><path d="M7.95 24.16a9.34 9.34 0 0 0-3.8 1.4.38.38 0 0 0-.1.14c-.08.16-.07.35.06.41.1.06.2.07.3.04.26-.08.34-.36.45-.42l.36-.18c1.23-.58 2.53-.95 3.88-1.11 1.92-.2 2.74-.07 2.86.36.11.43-1.18 1.1-3.1 1.32l-.99.1c.3-.32.53-.55.56-.6a.28.28 0 0 0 .08-.2.33.33 0 0 0-.09-.22.32.32 0 0 0-.2-.1c-.08 0-.16.05-.28.17-.37.32-.72.66-1.05.93-.14.12-.42.03-.42.03l.13.5-.49.61c-.37.48-.71.98-1 1.51-.51.9-.45 1.27-.3 1.27.14 0 .15-.03.27-.25.3-.53.63-1.04.99-1.53l.3-.41c.2-.23.78-.97 1-1.2 0 0 .73-.07 1.09-.12 2.4-.34 4.25-1.17 4.1-1.85-.13-.67-2.2-.97-4.6-.6Zm14.69 1.65a.35.35 0 0 0-.1-.2.34.34 0 0 0-.2-.08.4.4 0 0 0-.27.14 20.8 20.8 0 0 0-2.61 3.2c-.46.8-.3 1.29-.16 1.29.14 0 .15-.03.24-.22.75-1.7 3.01-3.93 3.04-3.95a.22.22 0 0 0 .06-.18Z" fill="#A93439" /><path d="M38.17 28.24c.23 0 .24 0 .32.19l.37.98c.1.3.07.35-.2.38l-.18.02a.15.15 0 0 0-.03.1c0 .05.03.06.06.09h1.95c.02-.03.04-.05.04-.09a.15.15 0 0 0-.04-.1l-.12-.02c-.4-.07-.43-.12-.61-.6l-1.12-3.15-.34-.98a.16.16 0 0 0-.13-.06c-.15.16-.34.28-.55.35 0 .18-.05.36-.14.52l-1.06 2.7c-.17.39-.29.69-.38.87-.12.24-.2.3-.43.33l-.23.04a.15.15 0 0 0-.04.1c0 .04.02.06.04.09h1.6c.05-.03.06-.14 0-.19l-.22-.04c-.29-.03-.32-.05-.16-.48l.31-.86c.07-.2.06-.2.26-.2h1.03Zm-.9-.33c-.2 0-.22 0-.13-.2l.33-1 .22-.56h.02c.1.18.17.37.23.57l.32 1c.06.17.03.19-.18.19h-.8m8.28.64c0 .2 0 1.18.03 1.35a.3.3 0 0 1-.12.08.32.32 0 0 1-.15.02c-.12-.15-.35-.48-.9-1.07L42.58 27c-.5-.52-.75-.8-.88-.9-.02 0-.02.07-.02.46v1.54c0 .53 0 1.28.14 1.5.05.06.1.1.17.13s.15.05.22.05l.17.02c.07.05.07.17-.01.19H40.7c-.02-.01-.04 0-.05-.02a.14.14 0 0 1 .03-.17l.17-.04c.14-.02.28-.05.34-.16.1-.22.1-.93.1-1.5v-1.85c0-.56 0-.67-.26-.88a1.3 1.3 0 0 0-.4-.14l-.12-.03c-.06-.04-.05-.18.03-.2h1.44c.13.3.98 1.2 1.25 1.47l.77.78c.33.33 1.05 1.09 1.12 1.13.03-.02.03-.05.03-.17v-1.39c0-.54 0-1.2-.15-1.41a.49.49 0 0 0-.17-.14.53.53 0 0 0-.22-.04l-.17-.03c-.07-.05-.07-.18.01-.2h1.7c.02 0 .03.02.04.04a.14.14 0 0 1-.02.16l-.18.04c-.15.02-.28.05-.33.17-.1.22-.1.84-.1 1.41v1.72m2.44-1.7c0 .2 0 .33.13.33s.44-.27.58-.42c.19-.19 1.62-1.48 1.5-1.48l-.24-.07a.15.15 0 0 1-.03-.05.14.14 0 0 1 .01-.11.15.15 0 0 1 .04-.05h1.72l.05.04a.12.12 0 0 1-.03.17c-1.03.14-1.68.96-2.4 1.64-.1.08-.11.12-.03.23.61.75 1.35 1.82 1.9 2.42a.86.86 0 0 0 .57.27l.2.02c.05.04.04.2-.02.21h-2.06a.13.13 0 0 1-.05-.04.12.12 0 0 1 .03-.17l.21-.03c.12-.02.14-.09.06-.2-.33-.36-1.49-1.74-1.78-2.01-.05-.05-.11-.11-.18-.11-.2 0-.18.17-.18.38v1.13c0 .76.07.78.43.82l.2.02a.15.15 0 0 1-.02.21H46.58a.15.15 0 0 1-.02-.21l.11-.01c.36-.05.33-.07.33-.85v-2.87c0-.76.03-.78-.33-.82l-.15-.03c-.05-.05-.04-.17.02-.2h2.01c.03.02.05.06.05.1 0 .04 0 .07-.03.1l-.14.03c-.36.04-.43.06-.43.82v.8ZM32.5 25.6c0-.29.02-.3.41-.3a.97.97 0 0 1 .7.24.79.79 0 0 1 .27.65c.01.64-.32 1-1.05 1-.3 0-.33 0-.33-.2V25.6Zm-.9 3.35c0 .76-.07.78-.43.83l-.17.02c-.05.05-.05.18.02.21h2c.88 0 1.4-.12 1.76-.4.15-.12.27-.26.35-.43.09-.17.13-.35.12-.53 0-.81-.66-1.28-1.25-1.37-.04-.01-.06-.03-.06-.04l.02-.03.03-.01c.54-.17.87-.58.87-1a.92.92 0 0 0-.12-.55c-.1-.17-.24-.3-.42-.4A3.38 3.38 0 0 0 32.8 25c-.85 0-1.41.03-1.76.06a.15.15 0 0 0-.04.05.14.14 0 0 0 .04.16l.2.02c.36.04.37.13.37.82v2.83Zm.9-1.3c0-.15.02-.19.36-.19.86 0 1.4.56 1.4 1.3a.9.9 0 0 1-.27.69c-.1.09-.21.16-.34.2-.12.05-.26.07-.4.07-.68 0-.75-.27-.75-.92v-1.15" fill="#231F20" /><path d="M15.49 27.47a.6.6 0 0 0-.35-.57c-.28-.14-.6-.2-.91-.15-.76.1-1.49.41-2.1.9-.69.5-1.04 1-1.07 1.47a.57.57 0 0 0 .37.58c.3.14.64.19.96.14a4.28 4.28 0 0 0 2.46-1.21c.4-.4.61-.8.64-1.16Zm-1.14.53c-.57 1-1.21 1.52-1.94 1.6a.45.45 0 0 1-.18 0l-.13-.05-.1-.1a.34.34 0 0 1-.05-.2c.02-.37.23-.79.63-1.26.5-.6.97-.92 1.42-.97.4-.02.59.1.57.34-.03.23-.1.45-.23.65V28Zm5.1-1.13a1.38 1.38 0 0 0-.52-.16 4.05 4.05 0 0 0-1.67.26c-.38.13-.93.38-1.04.56-.12.18-.02.23-.1.33-.09.09-1.77 2.02-2.3 2.9-.53.9-.34 1.24-.2 1.24s.14-.03.26-.23c.45-.76.94-1.49 1.49-2.18.05.06 1.75.73 3.49-.7.44-.35.82-.94.86-1.42a.6.6 0 0 0-.26-.6Zm-.47.72c-.06.32-.22.61-.46.82a3 3 0 0 1-1.72.84c-.33.05-.66.02-.98-.08l-.07-.03s1.54-2.23 2.97-1.95c.09.03.16.08.2.15.05.08.06.17.05.25Z" fill="#A93439" /></svg>