<?xml version='1.0' encoding='utf-8'?>
<!-- by TradeStack -->
<svg width="56" height="56" viewBox="0 0 56 56" xmlns="http://www.w3.org/2000/svg"><path fill="#F0F3FA" d="M0 0h56v56H0z" /><path d="M18 44V22.5l7-2.5v19h2c1.52 0 2.91-.57 3.97-1.5L32 43.59a11 11 0 0 1-3 .41H18Z" fill="#F2C854" /><path d="M18 12h11c9.47 0 11 8.5 11 15.5 0 5.5-.48 13.96-8 16.09l-1.03-6.09c2.03-1.9 2.03-7 2.03-10 0-1.5.32-10.5-6-10.5h-2v3l-7 2.5V12Z" fill="#E9632B" /><path d="M18 27.5v-5l7-2.5v18l-7-10.5ZM30.97 37.5A5.98 5.98 0 0 1 27 39h-1.33L29 44a11 11 0 0 0 3-.41l-1.03-6.09Z" fill="#EEA73C" /></svg>