<!-- by TradeStack --><svg width="56" height="56" viewBox="0 0 56 56" xmlns="http://www.w3.org/2000/svg"><path fill="#F0F3FA" d="M0 0h56v56H0z"/><path d="M15.55 25H11l6-3.84V16h2v3.88L28.2 14 42 23h-4.7s-6.06-3.96-9.1-6.05L15.55 25ZM26 20h2v2h-2v-2Zm3 0h2v2h-2v-2Zm-1 3h-2v2h2v-2Zm1 0h2v2h-2v-2Z"/><path fill-rule="evenodd" d="M13.5 25v14H16v-5h2.24c2.35 0 4.26-1.8 4.26-4s-1.9-4-4.26-4H18v1.96c1.12.07 2 .96 2 2.04a2.1 2.1 0 0 1-2.15 2.04H16V25h-2.5ZM24 26h6.13a3.33 3.33 0 0 1 1.63 6.25A3.5 3.5 0 0 1 34 35.5c0 1.93-1.59 3.5-3.55 3.5H24V26Zm2.5 2h2.62c1.04 0 1.88.78 1.88 1.75s-.84 1.75-1.88 1.75H26.5V28Zm0 5.5h3.06c1.07 0 1.94.8 1.94 1.8s-.87 1.7-1.94 1.7H26.5v-3.5Zm7.5 3.8.72-1.15c.2-.33.67-.4.99-.18A5.2 5.2 0 0 0 38.4 37c1.67 0 2.1-1.08 2.1-1.71 0-.63-.08-1.26-2.1-1.79-2.03-.53-3.9-1.25-3.9-3.9 0-2.64 2.62-3.6 4.55-3.6 1.84 0 3.06.85 3.68 1.28l.1.06-.8 1.22c-.21.34-.71.39-1.05.16a3.76 3.76 0 0 0-2.03-.72c-1.54 0-1.95.75-1.95 1.46s.48 1.3 1.95 1.7l.24.06c1.49.4 3.81 1 3.81 4.07 0 3.24-3.58 3.71-4.71 3.71A5.93 5.93 0 0 1 34 37.3Z" fill="#1F0AEB"/></svg>