<!-- by TradeStack --><svg width="56" height="56" viewBox="0 0 56 56" xmlns="http://www.w3.org/2000/svg"><path fill="#0C3A62" d="M0 0h56v56H0z"/><path d="M14.13 25.58a2.64 2.64 0 0 0-3.16.54 3.97 3.97 0 0 0 .72 4.73 3.95 3.95 0 0 0 4.32.86 3.94 3.94 0 0 0 2.17-2.17c.2-.48.31-1 .32-1.54a4.1 4.1 0 0 0-1.2-2.85 3.98 3.98 0 0 0-5.36-.23 3.1 3.1 0 0 1 3.15.73 3.3 3.3 0 0 1 1.01 2.37v.02a1.67 1.67 0 0 1-.45 1.2 1.6 1.6 0 0 1-1.8.36 1.61 1.61 0 0 1-.88-.93c-.08-.2-.12-.43-.11-.65V28a1.67 1.67 0 0 1 .45-1.2 1.6 1.6 0 0 1 1.78-.37 2.71 2.71 0 0 0-.96-.85ZM4 24h3.14c1.69 0 2.86.8 2.86 2.63 0 1.89-1 2.72-2.79 2.72H6V32H4v-8Zm2 3.67h.4c.74 0 1.47 0 1.47-.97 0-1.01-.68-1.02-1.48-1.02H6v2ZM21 30h2.5v2H19v-8h2v6Zm7.5 0H26v-6h-2v8h4.5v-2Zm3.3.61L31.24 32H29l3.13-8h2.3l3.07 8h-2.26l-.52-1.39H31.8Zm1.48-4.14h-.02L32.39 29h1.75l-.86-2.53ZM41.95 32h2.52l-2.45-3.28c1.1-.2 1.7-1.15 1.7-2.26 0-1.7-1.16-2.46-2.7-2.46H38v8h2v-3.08h.04L41.95 32Zm-1.73-4.41H40v-2h.22c.66 0 1.4.13 1.4 1s-.74 1-1.4 1ZM45 24h2.95a4 4 0 1 1 0 8H45v-8Zm2 6h.54c1.24 0 2.46-.44 2.46-2 0-1.43-1.1-2-2.44-2H47v4Z" fill="#fff"/></svg>