<!-- by TradeStack --><svg width="56" height="56" viewBox="0 0 56 56" xmlns="http://www.w3.org/2000/svg"><path fill="url(#anycfguol)" d="M0 0h56v56H0z"/><path fill-rule="evenodd" d="M29.93 30h1.4c.1 0 .17.14.14.23-.04.13-.07.29-.07.45 0 .33.3.6.76.6s.95-.67.95-1.56c0-.75-.7-1.08-1.28-1.35l-.28-.13c-.59-.3-1.06-.8-1.06-1.79S31.2 23 33.26 23c2.08 0 2.35 1.37 2.35 1.98 0 .35-.06.74-.09.89v.01c0 .07-.06.12-.12.12h-1.58c-.09 0-.15-.1-.14-.19.07-.42.07-1.18-.5-1.18-.67 0-.79.81-.76 1.21 0 .24.15.78.7 1l.1.05c.69.27 1.75.7 1.75 2.32 0 1.72-.73 3.79-2.93 3.79-2.15 0-2.74-1.56-2.23-2.88.02-.06.07-.12.12-.12Zm-11.78 2.83 1.9-9.72a.14.14 0 0 1 .14-.11h1.3c.07 0 .12.05.13.11l.92 4.85.88-4.84a.14.14 0 0 1 .13-.12h1.5c.08 0 .14.08.13.17l-1.88 9.72a.14.14 0 0 1-.13.11h-1.25a.14.14 0 0 1-.14-.11l-.92-4.67-.76 4.66a.14.14 0 0 1-.14.12H18.3c-.09 0-.15-.08-.14-.17Zm-12.29-9.6-1.85 9.43c-.04.17.09.34.26.34H5.6c.13 0 .25-.1.27-.23l.6-2.81a.3.3 0 0 0-.11-.3L5.49 29h2.6c1.41 0 2.3-1.48 2.3-3.71 0-1.8-1.01-2.27-1.52-2.29H6.13c-.13 0-.24.1-.27.23ZM7.4 24.5l-.56 3h.67c.76 0 1.17-1.17 1.17-2.11 0-.75-.34-.9-.52-.89H7.4Zm2.87 5.84.95-5.16c.13-.72.87-2.18 2.73-2.18 2.34 0 2.2 2.2 2.12 2.85-.06.52-.62 3.44-.89 4.84A2.86 2.86 0 0 1 12.35 33c-2.38 0-2.15-2.25-2.08-2.66Zm3.16.37 1.01-5.42c.08-.4-.22-.79-.61-.79-.44 0-.81.32-.9.77l-1.1 5.34c-.09.46.24.89.69.89.44 0 .83-.33.91-.8Zm2.3 2.29h1.4c.07 0 .13-.05.14-.11l1.9-9.72c.02-.09-.04-.17-.13-.17h-1.4a.14.14 0 0 0-.13.11l-1.9 9.72c-.02.09.04.17.13.17Zm10.08-9.88-.19 1.23c-.01.09.05.15.14.15h1.2c.1 0 .16.1.14.19l-1.64 8.14c-.02.09.05.17.14.17h1.55c.06 0 .12-.05.13-.11l1.56-8.26c.01-.07.07-.13.13-.13h1.46c.06 0 .12-.04.13-.1l.22-1.23c.01-.09-.05-.17-.14-.17h-4.7a.14.14 0 0 0-.13.12Z" fill="#ED1A42"/><path d="m36.93 23.12-1.81 9.71c-.02.09.05.17.13.17h2.92c2 0 2.65-2.6 2.65-3.73 0-.91-.46-1.38-.69-1.5.44-.24 1.32-1.1 1.32-2.7s-1.1-2.05-1.64-2.07h-2.75a.14.14 0 0 0-.13.12Zm.98 3.23.35-1.75c0-.06.06-.1.13-.1h.69c.2.02.6.2.6.77 0 .7-.57 1.23-1.12 1.23h-.52c-.08 0-.15-.07-.13-.15Zm-1.12 2.15h1.66c.18.05.53.33.53 1.08 0 .95-.5 1.92-1.14 1.92h-.89l.58-2.4-.74-.6Zm6.08-5.5h9c.08 0 .15.09.13.18l-.39 1.7c-.01.07-.07.12-.13.12h-1.33a.13.13 0 0 0-.13.1l-1.53 7.79a.14.14 0 0 1-.13.11h-1.58a.14.14 0 0 1-.13-.17l1.5-7.67A.13.13 0 0 0 48 25h-3.74a.13.13 0 0 0-.13.1l-.34 1.74c-.02.08.04.16.13.16h1.73c.08 0 .15.08.13.17l-.32 1.71a.14.14 0 0 1-.13.12h-1.88a.14.14 0 0 0-.14.1l-.3 1.71c-.01.09.05.19.14.19h2.23c.09 0 .15.06.13.15l-.36 1.74a.14.14 0 0 1-.14.11h-4.07a.14.14 0 0 1-.13-.17l1.92-9.72a.14.14 0 0 1 .13-.11Z" fill="#fff"/><defs><linearGradient id="anycfguol" x1="10.42" y1="9.71" x2="68.15" y2="76.02" gradientUnits="userSpaceOnUse"><stop stop-color="#1A1E21"/><stop offset="1" stop-color="#06060A"/></linearGradient></defs></svg>