<!-- by TradeStack --><svg width="56" height="56" viewBox="0 0 56 56" xmlns="http://www.w3.org/2000/svg"><path fill="#F0F3FA" d="M0 0h56v56H0z"/><path d="M12 14.48A2.54 2.54 0 0 1 14.6 12h26.8c1.43 0 2.6 1.11 2.6 2.48v27.04A2.54 2.54 0 0 1 41.4 44H14.6a2.54 2.54 0 0 1-2.6-2.48V14.48Z" fill="#EF4923"/><path d="M33.34 12c-1.35 4.64-4.11 12.86-6.56 16.06-3.26 4.26-10.07 11.5-14.78 12.78v.68A2.54 2.54 0 0 0 14.6 44h3.23c6.23-1.26 16.11-4.42 20.04-10.05 1.9-2.74 4.07-5.77 6.13-8.6V14.47A2.54 2.54 0 0 0 41.4 12h-8.06Z" fill="#A6CE39"/><path d="M34.3 12C31.78 29.19 18.62 38.52 12 41.19v-.7C26.19 33.4 30.9 18.99 31.6 12h2.7ZM19.87 44h-3.86c7.52-1.2 21.58-6.64 27.99-20.91v5.82C40.73 33.57 31.67 42.53 19.87 44Z" fill="#27A44A"/></svg>