<!-- by TradeStack --><svg width="56" height="56" viewBox="0 0 56 56" xmlns="http://www.w3.org/2000/svg"><path fill="#F0F3FA" d="M0 0h56v56H0z"/><path d="M16 26.6c0 1.18-.86 2.26-2.05 2.43-.4.06-.57.01-.95-.14V32h-2v-3.52c0-.87.01-1.74.18-2.59l-.53.24-.65-1.37a4.97 4.97 0 0 1 2.75-.76c1.57 0 3.25.84 3.25 2.6Zm-3 .87c.15.08.07.12.23.12.52 0 .93-.44.95-.94 0-.86-.44-1.12-1.17-1.05v1.87Z" fill="#0B3073"/><path d="M42.61 21.79C50.41 23.59 52 25.86 52 28c0 2.14-1.58 4.42-9.39 6.19C36.29 35.62 32.71 36 28 36c-4.71 0-8.3-.38-14.61-1.8C5.57 32.41 4 30.13 4 28c0-2.14 1.57-4.42 9.39-6.18C19.7 20.39 23.28 20 28 20c4.72 0 8.29.39 14.61 1.82m-.27 11.07c8.38-1.9 8.38-4.15 8.38-4.89 0-.74 0-2.98-8.38-4.88-5.96-1.35-9.44-1.78-14.34-1.78s-8.38.43-14.34 1.78c-8.38 1.9-8.38 4.15-8.38 4.88 0 .73 0 3 8.38 4.89 5.96 1.34 9.44 1.77 14.34 1.77s8.38-.43 14.34-1.77Z" fill="#0B3073"/><path d="M22.03 31.58H20.4l-.4-1.25h-2.08l-.34 1.26H16l.4-1.5c.49-1.9.99-3.84 1.78-5.6l-.15-.49h1.39c.9 1.86 1.5 3.9 2.1 5.92l.5 1.66ZM19.62 29 19 26.5l-.74 2.5h1.36ZM24.66 30 27 28.49l-.01 1.86L25.23 32C23.45 32 22 30.05 22 27.98 22 26 23.57 24 25.23 24c.36 0 .64.3.7.65 0 .11 0 .24-.04.35l-.46 2.06-.77-1.06c-.57.47-.9 1.23-.9 2 0 .78.34 1.53.9 2ZM30 32h-2v-4c.02-1.34.2-2.69.51-4H30v8ZM32 30c-.03-1.35.06-2.68.28-4h-.7L31 24.52c1.1-.3 2.21-.47 3.34-.52H36v2h-2v1.68c.65-.1.8-.17 1.46-.2V29H34v3h-2v-2ZM37 28c.02-1.34.18-2.69.5-4H39v8h-2v-4ZM43.45 27.06l.45-2.07a.82.82 0 0 0 .03-.35c-.05-.34-.33-.64-.7-.64-1.65 0-3.23 2-3.23 3.98 0 2.07 1.46 4.02 3.24 4.02L45 30.35V28.5l-2.35 1.5a2.64 2.64 0 0 1-.89-1.99 2.6 2.6 0 0 1 .9-2l.79 1.06Z" fill="#0B3073"/></svg>