<!-- by TradeStack --><svg xmlns="http://www.w3.org/2000/svg" width="56" height="56"><path d="M0 28a28 28 0 1156 0 28 28 0 01-56 0z" fill="#F0F3FA"/><path d="M18 21a3 3 0 00-3 3v12h2v-7h2a4 4 0 000-8h-1z" fill="#20181C"/><circle cx="19" cy="25" r="2" fill="#C35F1C"/><path d="M24 22.6c0-.88.72-1.6 1.6-1.6H32v2h-5.07a.4.4 0 00-.35.58l5.24 10.07A1.6 1.6 0 0130.39 36H24v-2h4.92a.5.5 0 00.45-.73l-5.19-9.92a1.6 1.6 0 01-.18-.74zm9 0c0-.88.72-1.6 1.6-1.6H41v2h-5.07a.4.4 0 00-.35.58l5.24 10.07A1.6 1.6 0 0139.39 36H33v-2h4.92a.5.5 0 00.45-.73l-5.19-9.92a1.6 1.6 0 01-.18-.74z" fill="#2B211F"/><path d="M12 21.5a5.5 5.5 0 015.5-5.5H44v18.5a5.5 5.5 0 01-5.5 5.5H12V21.5zm5.5-4.5a4.5 4.5 0 00-4.5 4.5V39h25.5a4.5 4.5 0 004.5-4.5V17H17.5z" fill="#211716"/></svg>