<!-- by TradeStack --><svg width="56" height="56" viewBox="0 0 56 56" xmlns="http://www.w3.org/2000/svg"><path fill="#F0F3FA" d="M0 0h56v56H0z"/><path d="M7.5 27.53c0 1-.85 1.47-1.74 1.47H5v2H4v-5h1.76c.9 0 1.74.53 1.74 1.53Zm-2 .78c.64 0 1-.3 1-.81 0-.53-.37-.85-1-.85H5v1.66h.5ZM9 26.65v1.5h2v.65H9v1.55h2.5V31H8v-5h3.5l-.3.65H9ZM15.53 26v.65H14V31h-1v-4.35h-1.36l.32-.65h3.57ZM18.65 31l-1.17-2H17v2h-1v-5h1.76c.9 0 1.74.5 1.74 1.5a1.4 1.4 0 0 1-1.11 1.43L19.65 31h-1ZM17 28.36h.5c.63 0 1-.4 1-.9s-.37-.8-1-.8H17v1.7ZM27 30.3h2v.7h-3v-4.5l1-.5v4.3ZM34 26l-2 3.18V31h-1v-1.82L29 26h1l1.5 2.5L33 26h1ZM40 26v5h-1v-3.4L37.48 31h-.58l-1.4-3.4V31h-1v-3.5l1-1.5 1.7 3.9L39 26h1ZM44.56 27.52c0 1-.92 1.48-1.81 1.48H42v2h-1v-5h1.75c.89 0 1.8.52 1.8 1.52Zm-1.81.83c.52 0 .75-.35.75-.85 0-.53-.3-.85-.75-.85H42v1.7h.75ZM46 26v5h-1v-4l1-1ZM50.78 29.5c-.3.3-.7.5-1.17.5-.87 0-1.61-.67-1.61-1.5s.74-1.5 1.6-1.5c.47 0 .89.2 1.18.5H52a2.61 2.61 0 0 0-2.4-1.5 2.56 2.56 0 0 0-2.6 2.5c0 1.38 1.17 2.5 2.6 2.5 1.08 0 2-.62 2.4-1.5h-1.22ZM23.41 26.17A2.5 2.5 0 0 0 20 28.5c0 .88.46 1.66 1.14 2.1l.46-.9a1.5 1.5 0 0 1 1.35-2.63l.46-.9Z" fill="#4B4B4D"/><path d="M22.05 29.93a1.5 1.5 0 0 0 1.35-2.63l.46-.9a2.5 2.5 0 0 1-2.27 4.43l.46-.9Z" fill="#D06D17"/></svg>