<?xml version='1.0' encoding='utf-8'?>
<!-- by TradeStack -->
<svg width="56" height="56" viewBox="0 0 56 56" xmlns="http://www.w3.org/2000/svg"><path fill="#F0F3FA" d="M0 0h56v56H0z" /><path d="m50.16 29.82-.01.13c0 .03-.02.05-.06.05h-1.2c-.05 0-.08-.03-.08-.08l-.66-4.76c-.23-1.67-.14-3.42-.13-5.12 0-.03.02-.04.05-.04l2.75.01c.03 0 .04.01.04.04 0 1.68.1 3.4-.1 5.07l-.6 4.7ZM36 29.62v-8.17c0-.05.05-.08 0-.08h-1.32c-.05.01-.07-.01-.07-.06v-1.25c0-.04.02-.06.05-.06H40c4.16.1 6.1 3.94 4.9 7.73-.82 2.6-2.96 3.24-5.4 3.27h-4.83c-.04 0-.06-.02-.06-.07v-1.22c0-.06.03-.09.08-.09H36Zm6.45-1.48c1.18-1.54 1.14-4.7-.6-5.83-.95-.63-2.74-.57-3.85-.54v7.48c1.26.05 3.54.07 4.45-1.1Z" fill="#03657A" /><path d="M25.64 26.95c1.52 3.42 6.06 2.62 7.27-.48.01-.03.04-.05.07-.04l1.92.24c.04 0 .05.03.04.06-1.7 5.4-10.61 6.06-11.88-.24-.9-4.5 3.96-7.86 8.1-5.94 1.6.74 2.64 2.2 3.1 3.86 0 .04 0 .07-.05.08l-8.55 2.42c-.03 0-.03.02-.02.04Zm5.26-4.37c-2.48-2.02-5.98-.4-5.66 2.8 0 .05.02.07.07.05l6.38-1.79c.04 0 .05-.03.03-.07-.2-.37-.47-.7-.82-.99Z" fill="#03657A" /><path fill-rule="evenodd" d="M20.62 35.62c.24-.25.38-.58.38-.92V21.3a1.3 1.3 0 0 0-1.3-1.3H6.3A1.3 1.3 0 0 0 5 21.3v13.4A1.3 1.3 0 0 0 6.3 36h13.4c.35 0 .68-.14.92-.38Zm-5.5-5.96h-.04c-.23-.18-.46-.35-.7-.51-.04-.02-.06-.02-.09 0-1.37 1.47-2.98-1.13-1.57-2.09.52-.34 1.02-.32 1.52.08.03.03.07.03.1 0l.61-.49c.07-.05.07-.1 0-.16-1.83-1.5-4.58.38-3.58 2.65.61 1.38 2.75 1.77 3.75.56v-.04Zm1.07-.46c.85.8 2.02-.06 1.21-.45-.1-.06-.26-.1-.44-.16-.42-.13-.95-.3-1.18-.67-.32-.49-.16-1.18.28-1.55.7-.58 1.78-.48 2.52 0a.06.06 0 0 1 .03.04.06.06 0 0 1-.01.04l-.58.6c-.03.04-.06.04-.1.02-.28-.2-.57-.27-.88-.21-.37.07-.62.54-.2.75.18.1.4.17.61.23.61.2 1.22.38 1.17 1.28-.07 1.56-2.13 1.5-3.1.84l-.02-.03a.08.08 0 0 1 0-.09l.6-.64c.03-.02.06-.03.09 0Zm-8.37-3.13-.4.02c-.03 0-.05.02-.05.05v4.13c0 .03.02.05.06.05h.84c.05 0 .07-.02.07-.07l-.01-1.5a.1.1 0 0 1 .03-.07.1.1 0 0 1 .08-.03c1.17.02 2.41 0 2.2-1.58-.16-1.12-1.8-1.05-2.82-1Zm.53 1.76v-.92l.02-.02.02-.01h.66c.08 0 .16.02.23.04l.2.1c.06.05.1.1.13.16s.05.12.05.18v.03c0 .13-.07.25-.19.34a.72.72 0 0 1-.43.13h-.66l-.02-.01-.01-.02Z" fill="#D13A24" /><path d="M37.33 35.5h.3c.04 0 .06.02.07.07l.03.34c0 .06-.02.09-.07.09h-.85c-.03 0-.05-.02-.05-.06v-.24c0-.06-.03-.07-.08-.04-.58.41-1.5.56-1.5-.54v-1.54c0-.04-.02-.06-.06-.06h-1.3c-.06 0-.08.02-.08.08v1.46c0 .08.03.16.08.21.05.06.12.1.2.1.2 0 .37-.05.54-.17.06-.03.09-.02.09.06l-.02.44a.1.1 0 0 1-.06.09c-.45.24-1.33.39-1.33-.45l-.02-1.75c0-.05-.02-.07-.06-.07l-.59-.02c-.04 0-.06-.02-.06-.07v-.35c0-.04.02-.06.06-.06h.58c.05 0 .07-.03.07-.08v-.31c0-.05.02-.08.05-.11l.39-.4c.05-.04.07-.03.07.04v.79c0 .04.02.07.07.07h1.86c.03 0 .04.01.04.05v2.17c0 .06.01.11.04.15a.2.2 0 0 0 .14.07c.32.03.6-.08.84-.33a.14.14 0 0 0 .04-.1v-1.45c0-.07-.03-.1-.09-.09l-.29.03c-.05 0-.07-.02-.08-.07l-.03-.35c0-.06.02-.09.07-.09h.87c.04 0 .06.02.06.07v2.35c0 .05.02.07.06.07Z" fill="#A7A9AD" /><path d="M50.97 32h-2.94a.03.03 0 0 0-.03.03v2.94c0 .02.02.03.03.03h2.95l.02-.03v-2.95a.03.03 0 0 0-.03-.03Z" fill="#03657A" /><path d="M30.36 33.34c.62-.4 1.56-.68 1.58.52l.03 1.55c0 .04.01.06.05.06h.31c.06 0 .1.03.1.1v.37c0 .04-.03.06-.07.06h-.87c-.05 0-.07-.02-.07-.07v-2.1a.3.3 0 0 0-.09-.21.25.25 0 0 0-.2-.08c-.3.01-.56.12-.79.33a.14.14 0 0 0-.04.1v1.45c0 .05.02.07.06.07l.31-.02c.05 0 .07.02.08.07l.02.38c0 .05-.02.08-.06.08h-1.36c-.03 0-.05-.02-.06-.06l-.04-.36c0-.07.03-.1.1-.1h.32c.05 0 .08-.03.08-.1v-1.75c0-.06-.02-.08-.07-.08h-.34c-.05 0-.07-.02-.07-.07v-.36c-.01-.04 0-.07.05-.07h.9c.05 0 .08.02.08.07v.18c0 .06.02.07.06.04ZM39.16 33.54c.23-.41.58-.59 1.04-.53.04 0 .06.03.06.07v.3a.2.2 0 0 1-.05.13.17.17 0 0 1-.06.04.16.16 0 0 1-.07.02c-1.03 0-.9.96-.86 1.88 0 .03.01.05.04.05h.45c.04 0 .06.02.06.06v.38c0 .04-.02.06-.06.06h-1.47c-.05 0-.08-.03-.08-.08v-.34c0-.06.02-.08.07-.08h.4c.05 0 .08-.03.08-.08v-1.79c0-.05-.03-.08-.07-.08h-.4c-.05 0-.08-.03-.08-.1v-.3c0-.07.03-.1.09-.1h.79c.04 0 .07.03.07.08v.4c0 .06.01.06.05 0ZM41.17 34.69c.14.98 1.14 1 1.67.42.03-.04.07-.05.1-.03l.33.14c.05.03.06.06.03.1-.45.59-1 .8-1.68.62-1.7-.44-1.2-3.24.55-2.91.7.13 1.1.64 1.16 1.54 0 .04-.01.07-.06.07h-2.06c-.03 0-.04.01-.04.05Zm.03-.5 1.53.01h.01v-.01a.68.68 0 0 0-.21-.51.77.77 0 0 0-.54-.21h-.03c-.2 0-.4.07-.54.2a.7.7 0 0 0-.23.5v.01l.01.01ZM44.37 35.86c-.1.15-.25.18-.43.1a.07.07 0 0 1-.04-.07v-.86c0-.04.02-.07.06-.07h.35c.04 0 .07.03.07.07l.02.15c0 .04.03.08.06.1.3.24.6.27.93.1a.15.15 0 0 0 .07-.09c.28-.8-1.7-.23-1.55-1.49.1-.75.91-.9 1.47-.6.05.02.07 0 .07-.06v-.06c0-.08.03-.1.1-.07.08.05.17.05.26 0 .07-.02.1 0 .1.08v.87c0 .04-.03.07-.07.07l-.37.03c-.05 0-.06-.02-.04-.07l.02-.03a.1.1 0 0 0-.02-.11c-.27-.34-.58-.4-.94-.2a.15.15 0 0 0-.07.08c-.08.21-.04.34.11.37.41.09 1.06.16 1.33.46.37.43.16 1.1-.37 1.3-.35.14-.7.13-1.04-.02-.03-.02-.06-.01-.08.02ZM25.62 33.54l-.83 2.43-.02.02-.03.01h-.42l-.03-.01-.01-.02-.86-2.42a.05.05 0 0 0-.01-.03H23c-.02 0-.03-.02-.04-.03a.06.06 0 0 1-.01-.03v-.4l.01-.04L23 33h1.28l.01.02.01.02v.02l-.04.4-.01.04-.04.01H24l-.02.02a.06.06 0 0 0 0 .05l.5 1.48.02.02.03.01h.03l.02-.03.5-1.49a.06.06 0 0 0 0-.05l-.02-.01h-.02l-.25.02h-.03l-.02-.03v-.45l.01-.03.04-.02h1.2s.02 0 .03.02l.01.03v.45l-.02.02H26l-.02.01-.3-.03-.03.01-.02.03ZM26.73 34.7c.13.96 1.13 1.04 1.64.4.03-.03.06-.04.1-.02l.34.17c.04.02.05.05.02.1-.87 1.13-2.75.75-2.7-.87.09-2 2.67-1.97 2.73.1 0 .05-.02.08-.06.08l-2.03-.01c-.03 0-.05.02-.04.06Zm0-.48 1.56-.02a.7.7 0 0 0-.23-.52.78.78 0 0 0-.54-.2h-.03a.79.79 0 0 0-.54.21.72.72 0 0 0-.21.52Z" fill="#A7A9AD" /></svg>