<!-- by TradeStack --><svg width="56" height="56" viewBox="0 0 56 56" fill="none" xmlns="http://www.w3.org/2000/svg">
<rect width="56" height="56" fill="#F0F3FA"/>
<path d="M18.7876 19.3513C18.2842 18.8479 18 18.191 18 17.5314C18 16.8475 18.2648 16.1607 18.7865 15.6391L25.4784 9L34 17.5L25.4838 26L18.7876 19.3513Z" fill="#193678"/>
<path d="M18.7876 40.3546C18.2842 39.8512 18 39.1943 18 38.5347C18 37.8508 18.2648 37.164 18.7865 36.6424L25.4784 30.0033L34 38.5033L25.4838 47.0033L18.7876 40.3546Z" fill="#686765"/>
<path d="M28.7869 29.8527C28.2835 29.3493 28.0057 28.6912 28 28.0313C28 27.3564 28.272 26.6796 28.7869 26.1646L35.4375 19.5L44 28L35.4375 36.5033L28.7869 29.8527Z" fill="#AB312E"/>
</svg>
