<!-- by TradeStack --><svg width="56" height="56" viewBox="0 0 56 56" xmlns="http://www.w3.org/2000/svg"><path fill="#F0F3FA" d="M0 0h56v56H0z"/><path d="M17.33 43.33a971.8 971.8 0 0 0-.86-4.1L12 18.19a.69.69 0 0 1 .53-.8L37.82 12a.69.69 0 0 1 .81.53l5.35 25.26a.73.73 0 0 1-.56.86l-25.04 5.3c-.59.13-.93-.08-1.05-.63Zm1.84-7.63.26 1.22c.04.15.14.23.3.23.44 0 .58-.17.49-.6l-.63-3.02-1.41-6.66a.45.45 0 0 1 .03-.29c.92-1.99 2.37-3.15 4.36-3.47 3.94-.64 4.5 2.29 5.02 5.07l.18.92 1.25 5.84a.26.26 0 0 0 .33.2l.4-.12a.16.16 0 0 0 .1-.2l-1.98-9.38c-.33-1.57 1.29-3.3 2.58-3.9 2.47-1.1 5.03-.53 6.18 2.07.66 1.47.98 3.16 1.29 4.77l.23 1.16.69 3.25a.27.27 0 0 0 .23.2c.52.07.65-.17.55-.65-.16-.8-.34-1.59-.51-2.38-.31-1.43-.62-2.86-.9-4.29-.69-3.45-2.6-6.12-6.54-5.4a6.82 6.82 0 0 0-3.19 1.5 5.53 5.53 0 0 0-1.3 1.87c-.05.13-.12.14-.2.03a4.28 4.28 0 0 0-3.92-1.53 6.4 6.4 0 0 0-5.12 3.16c-.05.08-.08.08-.1-.02l-.3-1.28a.39.39 0 0 0-.39-.3.4.4 0 0 0-.17.04c-.22.12-.3.3-.25.57.82 3.77 1.63 7.57 2.44 11.39Zm16.14-19.35 2.4-.52a.2.2 0 0 0 .16-.2c-.01-2.27-3.34-2.43-3.85-.31-.6 2.47 2.23 3.83 3.87 1.9.07-.08.06-.16-.02-.22l-.6-.47a.14.14 0 0 0-.15 0 .13.13 0 0 0-.04.02c-.5.6-1.48.74-1.84-.06-.04-.07-.02-.12.07-.14Zm1.24-1.04-1.36.3h-.01a.02.02 0 0 1-.01-.01v-.01a.61.61 0 0 1 .1-.49c.1-.14.26-.25.44-.28l.04-.01c.18-.04.37-.01.52.08.15.09.26.23.3.4a.02.02 0 0 1-.02.02Z" fill="url(#acyvs1ccv)"/><defs><linearGradient id="acyvs1ccv" x1="12" y1="17.97" x2="37.5" y2="35.53" gradientUnits="userSpaceOnUse"><stop offset=".09" stop-color="#70E1F5"/><stop offset="1" stop-color="#0955A1"/></linearGradient></defs></svg>