<?xml version='1.0' encoding='utf-8'?>
<!-- by TradeStack -->
<svg width="56" height="56" viewBox="0 0 56 56" xmlns="http://www.w3.org/2000/svg"><path fill="#F0F3FA" d="M0 0h56v56H0z" /><path d="M11.71 22c-2.23.07-6.71.98-6.71 3.99 0 1.57 2.63 4.27 7 6.89v4.37c0 .42.35.75.78.75h3.44c.43 0 .78-.33.78-.75v-1.8A52.7 52.7 0 0 0 38.03 40c17.96 0 11.92-11.85-4.1-15.75 3.83 1.32 11.5 5.87 11.5 9.57 0 4.62-15.25 4.05-23.42 1.56C13.84 32.88.48 25.6 11.7 22Z" fill="#72A94E" /><path d="M12.7 18h7.71A6.59 6.59 0 0 1 27 24.59v.82A6.59 6.59 0 0 1 20.41 32h-4.6L12 30.55V18.71c0-.4.32-.71.7-.71Zm4.9 4c-.33 0-.6.32-.6.7v4.6c0 .38.27.7.6.7h1.87c1.4 0 2.53-1.34 2.53-3s-1.13-3-2.53-3H17.6ZM29 18.47v17.64l3.86.42c1.24.09 2.53.13 3.88.13 3.04 0 5.02-.43 6.26-1.02v-3.16a.48.48 0 0 0-.47-.48h-8.07a.45.45 0 0 1-.46-.47v-2.06c0-.26.2-.47.46-.47h6.18c.26 0 .36-.22.36-.48V25.6c0-.27-.1-.6-.36-.6h-6.18c-.27 0-.46-.09-.46-.35V22.5c0-.26.2-.5.46-.5h8.07c.26 0 .47-.19.47-.45v-3.08a.47.47 0 0 0-.47-.47H29.47a.47.47 0 0 0-.47.47Z" fill="#10495E" /></svg>