<?xml version='1.0' encoding='utf-8'?>
<!-- by TradeStack -->
<svg width="56" height="56" viewBox="0 0 56 56" xmlns="http://www.w3.org/2000/svg"><path fill="#F0F3FA" d="M0 0h56v56H0z" /><path d="M38.76 38.99c-1.9-1.36-10.16-6.3-9.92-5.4.16.46.32.93.88 1.08.32.16.64.31.96.54.4.3.64.7.8 1.16.21.6 1.13.86 1.68 1.08 1.17.56 5.8 3.56 5.6 1.54Zm2.24 5v.16c-.24 0-.4.08-.64.08-8.56 0 2.74.3-5.6.3-1.56 0-4.09.7-5.36-.53-.59-.57-1.72-.11-2.4-.77-.75.72-1.58 1-2.56 1-.24.08-.4.08-.56-.15-.44-.53-4.22 0-5.2 0-1.21 0-2.46-.08-3.68-.08 0-.11.12-.23.24-.23 1.38 0 2.72-.39 4.08-.39 1.16.32 2.75-.43 3.84-.85.45-.14.82.13 1.2.31.24-.3.08-.61.08-.85 0-3.31-.16-6.62-.16-9.94 0-.15-.08-.3-.08-.38-.24.07-.48.23-.72.38-.82.4-1.58.91-2.4 1.31-1.12.7-2.24 1.47-3.28 2.24-1.34.43-.96 1.82-.96 2.85h-.32c-.13-.88-.4-1.93.32-2.62.24-.23.48-.39.64-.62.08-.15.24-.38.16-.54 0-.23.08-.46.16-.7.32-.84.56-1.69.88-2.61.67-1.72.45-2.12 0-3.86-.08-.46 0-1.08 0-1.54 0-.3-.08-.77.4-.92.08 0 .16-.16.16-.16-.16-.3.16-.46.32-.61l.4.07h.8c.16 0 .32 0 .32-.23 0-.5.37-1.24.56-1.7l.24.08c0 .62-.34 1.36-.56 1.93 1.48.24 2.2-2.58 2.64-3.7.4-.77.8-1.54 1.12-2.39.16-.23.24-.54.32-.77l.16.08-1.2 2.77c-.4.93-.8 1.77-1.12 2.7-.16.46-.4.85-.56 1.31h.64l2.88-.23c.24 0 .24-.08.32-.23l1.28-8.56c.4-.32-.72 6.4-.72 7.79.27 0 .54-.52.72-.7.1.1-.84 1.28-.88 1.62.24 0 .48-.08.64-.3.2 0 .14.1 0 .22l.08.31c-.16 0-.24 0-.4.16-.16.23-.4.38-.4.7 0 .53-.16 1.07-.24 1.53l-.24 1.54v.16H27v.38c-.24 0-.4 0-.64.08v.08h2.8c.91 0 3.08.44 3.68 1.15.17.17.2 0 .32 0a3.11 3.11 0 0 0-.96-.54l.16-.3c.16.07.32.15.48.15 0-.08 0-.08-.08-.15-.4-.62-.8-1.31-1.2-1.93-.48-.77-.88-1.47-1.36-2.24-.08-.15-.16-.23-.24-.38l.08-.08 1.44 2.08h.08c-.39-.75-.89-1.43-1.2-2.23l.24-.08c.96 1.7 1.84 3.4 2.8 5.09.24-.39.48-.7.64-1 .08-.08.08-.24.08-.39l-.24-.77c-.27-1.04-.74-2.03-.96-3.08-2.2-.24-2.3-.12-.08-.39-.67-2.26-1.89-5.37-2.48-7.65-.65-2.5-.64-1.55.96.25 1.36 1.57 2.7 3.15 4.08 4.7.36.42 2.32 2.45 2.32 2.78 0 .07.08.3.24.38.32.16.4.39.4.7 0 .98.71 1.96.88 2.93.63 2.73.17 4.92-.88 7.63-.16.46-.4 1-.64 1.46-.16.3.16.77.4.93.48.3.96.61 1.12 1.15.08.08 0 .23 0 .39-.37 1.8-.88 1.23-.24 2 .24.46.02.28-.64-.23-.32-.3-.72-.62-1.12-.85-.8-.54-1.6-1.08-2.48-1.54-2.92-1.8-6.58-2.26-9.44-3.93-.58-.34-.48-1.02-.48-3.4v-.3c-.44-.21-.07 9.47 0 11.18.1 0 1.95-1 2.96-.62 1.84.6 2.78 1.08 4.96 1.08.88.08 1.68.3 2.56.38.32.08.72 0 1.04 0 .56 0 1.2.08 1.76.08.73 0 1.49-.15 2.24-.15.4.61.56.77.64.77Zm-2.32-16.8a9.75 9.75 0 0 0-.8-1.61c.72 3.46.56 6.93-.4 10.4.4-.08.32.16.4.31.08-.15.16-.3.24-.54 1.08-3.13 1.37-5.42.56-8.56Zm-1.36 7.79c.96-3.47.72-7.01 0-10.48-.5.76-.86 1.82-1.52 2.46-.24.16-.24.39-.16.54.08.62.24 1.16.32 1.78.36 1.71 1.36 4 1.36 5.7Zm-.4-.08c-.32-2.31-1.2-4.54-1.68-6.86-.16.23-.4.39-.32.62l.24.77c.49 1.4.94 2.82 1.36 4.24.08.46.24.85.4 1.23Zm-.24-10.87c-.64 0-1.28.08-1.92.08.16.77.32 1.47.56 2.31.15-.23 1.5-2.39 1.36-2.39Zm.08-.3c-.12-.12-3.87-3.8-2.56-2.55.09.47.24 2.7.88 2.7.4 0 1.4.12 1.68-.15Zm-.4 12.64v-1.62c-.32.08-.88 0-1.04-.16-1.54-3.43-4.73-4.12-6.8-4.62-.72-.08-1.44-.08-2.16-.08-.08 0-.16.08-.24.16 0 0 0 .07.08.07h.64c.32 0 .64.08.88.08h.4c.56-.08.72.23.64.7-.08.46 0 .92 0 1.38-.24-.08-.4-.15-.64-.15-.16 0-.4 0-.64.07 2.77 1.34 5.56 2.65 8.16 4.32.22-.21.36-.32.72-.15Zm-.32-2.08c0 .07.16.07.24.15a137.7 137.7 0 0 0-1.76-5.32c-.24.39-.48.7-.64 1v.24c.69 1.32 1.3 2.7 2.16 3.93ZM34.6 27.5c.56-.38.32-.84.24-1.23-.16-.62-.32-1.23-.4-1.93 0-.36-.72-.23-.96-.23.4 1.16.72 2.31 1.12 3.4Zm-.32-3.54c0-.9-.35-2.02-.64-2.85-.37-1.42-1.26-2.4-2.16-3.55-.08-.15-.4-.62-.4-.3.71 2.04 1.37 4.1 2.08 6.16.17.57.56.54 1.12.54Zm-7.36 7.78c-.08-.46-.08-.92-.16-1.3l-.16-.08c0 .15-.08.38-.08.53.08.24.08.39-.16.62.16.16.32.16.56.23Zm-.96-4.47c.08-.46.08-1 .16-1.46-.96.92-1.84 1.85-2.8 2.77.08 0 .08.08.08.08.72 0 1.44 0 2.24-.08.08 0 .16-.07.16-.15.08-.39.16-.77.16-1.16Zm.24-2.77c-.16 0-.32.07-.48.07-.96 0-1.84.08-2.8.08-.24 0-.32.08-.4.23l-.72 1.78c-.08.15-.08.3.08.46.35.5.74.97 1.12 1.46a56.83 56.83 0 0 1 3.2-4.08Zm-.64 5.55c-.08 0-.16-.08-.32-.08-.56 0-1.12-.08-1.6.23-.02.02-.4.23-.16.23.24-.07.56-.07.88-.15 0 .7.04.13.32 0 .11-.11.69-.23.88-.23Zm-2.96 1.92c.16-.07.32-.15.48-.3-.32 0-.32-.16-.4-.39-.08-.3.08-.7-.32-.85-.08.08-.16.16-.16.23.4.39.16.93.4 1.31Zm-.4-7.32c-.84 0-2.02.97-.88 1.7.32-.54.64-1.08.88-1.7Zm.24 4.09-.96-1.4c-.24.55-.4.93-.64 1.4-.08.23.16.46.32.38.4-.15.8-.23 1.28-.38ZM21 27.34c.24-.38.08-.84-.32-.92-.12.46-.64 1.43-.16 1.78.16-.31.32-.54.48-.85Zm-.08-2.77H19.8c.24.31.48.62.72 1 .24-.3.32-.61.4-1Zm-.08 8.33c-.21-.72-.59-1.38-.88-2.08-.56 1.3-1.12 2.54-1.68 3.85.8-.62 1.68-1.15 2.56-1.77Zm-.8-7.32a1.34 1.34 0 0 1-.48-.47c-.16.85.16 1.47.48 2.24.23-.65.63-1.17 0-1.77Zm-.24 2.08c-.16-.54-.32-1-.56-1.54-.08-.16-.08-.31-.32-.31-.16.61.16 2.62.56 3 .24-.34.32-.75.32-1.15Z" fill="#2D5335" /><path d="M35 39.37v.08c-.08 0-.24-.08-.32-.08h-.24c0 .08.08.16.16.16.08.07.16.07.16.15 0 0 0 .08-.08.08-.16-.08-.24-.08-.4-.16-.32.31.24.31.24.47-.08 0-.24-.08-.32-.08-.32-.08-.32-.15-.16-.39l.24-.46c.32 0 .56.16.72.23Zm-.4-5.47c.08 0 .08 0 0 0 0 .08-.08.08-.08.08-.16.15-.24.3-.4.46h-.08c0-.3.08-.62.08-.92h.16c.16.07.24.23.32.38Zm-.4 5.16c-.16 0-.24-.07-.32-.07h-.16c0 .07.08.07.08.15.08.08.16.08.24.16v.07c-.08 0-.16-.07-.32-.07-.08 0-.16.07-.24.07.08.23.4.16.4.39-.8-.31-.64-.31-.16-1.08.08.15.32.15.48.38Zm-.64-6.32c.32.16.4.31.48.62h-.24c0 .23-.08.46-.08.7h-.08a1.39 1.39 0 0 1-.16-.54c0-.31.08-.54.08-.78Zm-1.04-1.23c.48.3.88.7.8 1.31v1.7c0 .07 0 .23-.08.3h-.08c-.08-.23-.08-.38-.16-.61-.08-.54-.08-1.08-.16-1.62 0-.15-.16-.3-.24-.39-.08 0-.08 0-.16.08 0 .31 0 .7.16 1 .08.39-.08.77-.16 1.08l-.16.08c-.08-.08-.16-.08-.16-.15V31.9c0-.08.08-.16.08-.23.16-.16.24-.16.32-.16Zm-.16-17.11c0-.08-.08-.15-.16-.15-1.03 0-1.92-.4-1.92.61h-.16c0-1.28-.46.34-.96-.38-.41 4.74-.08 9.52-.08 14.1.64.08 1.28.08 1.92.23.48.08.88.31 1.36.47l-.16.3c-.64-.23-1.28-.38-1.92-.54-.56-.07-1.12-.07-1.6-.15-.32 0-.64.08-.88 0s-.48-.08-.72-.08v-.38h.96c0-1.95.28-4.23 0-5.86l-.32.08c.24-.31.32-.62.32-.93V15.4c0 .08 0 .16-.08.23h-.16c0-.23.08-.46.08-.77-.24 0-.65.66-.8.85-.24.3-.48.62-.72.85-.76 0 1.34-2.12 1.44-2.4-.32 0-.55-.07-.63.24-.16.38-.55.95-.71 1.4-.24-.28.47-1.2.62-1.55-1.14.07-3.3.19-1.68-.85.88-.62 1.68-1.31 2.56-1.93.24-.15.32-.38.32-.7 0-.69 0-1.38.08-2.07 0-.54.08-1 .08-1.55 0-.07.08-.15.16-.15.08.08.08.15.08.23 0 1.16.08 2.31.08 3.47 0 1.23 2.5 2.38 3.36 3 .16-.07.24 0 .4.08-.35.17-3.02-1.15-2.72-.46 0 .08.16.15.32.15 1.82.36 1.86.3 0 .39v.08h.32c.33 0 2.08-.19 2.08.3 1.07 5.15.67 4.54-.16.16Zm-2.64-.93c-.24-.61-.56-1.23-.8-1.85l-.08 1.62.08.08c.24.08.48.08.8.15Zm-1.52-2c-.43.29-3.04 2.16-2.48 2.16.48-.08 1.04-.08 1.52-.16.39 0 .96-1.7.96-2Zm4.72 26.9c.32.08.4.16.32.46-.24 0-.24-.54-.56-.23-.08.08-.08.31-.08.46 0 0 .16.08.32.08v-.08c0-.07-.08-.07-.16-.23.16.08.32.08.4.16-.08.15-.16.23-.24.38-.16-.07-.4-.07-.48-.15-.08-.16-.16-.3-.08-.54.08-.23.24-.3.56-.3Zm-.88-.38c.08.23-.08.69-.4.84-.08-.15.24-.46-.24-.54-.08.08-.08.24-.16.31-.16-.15 0-.54.32-.85.16.16-.16.54.24.54a.98.98 0 0 1 .24-.3Zm0-6.56h-.24c0 .47 0 .93-.08 1.4 0 .22-.08.3-.32.15-.32-.16-.4-.47-.4-.78.08-.3.08-.61.08-1 0-.3-.32-.23-.48-.38l.08-.23c.56.38 1.28.69 1.36.84Zm-.32 2s0 .09-.08.09c-.4-.16-.88-.39-1.28-.54a3.98 3.98 0 0 0-.96-.31c-.24-.08-.56-.16-.8-.23h-.24c0-.08.08-.08.08-.08.48.08 1.04 0 1.52.23.32.15.64.23.96.3l.8.55Zm-1.04 4.02c.24 0 .48.23.48.46s-.24.46-.48.46c-.32 0-.4-.08-.4-.38a.42.42 0 0 1 .4-.54Zm.08.77c.08-.16.16-.31.24-.54-.32-.08-.4-.08-.48.15-.08.16 0 .31.24.39Zm-.16-7.48-.08.23v1.47c-.32.07-.64-.08-1.04-.24-.08 0-.08-.15-.08-.23V30.9c0-.15 0-.3-.16-.38-.08 0-.08-.08-.08-.16.16 0 .8.16 1.44.39Zm-.48 14.18V45c-.4-.08-.72-.08-1.12-.15-.64 0-1.28-.08-1.92-.08-.24 0-.48.08-.72.08-.4 0-.8 0-1.2-.08-.08 0-.08-.08-.16-.16h1.2c.4 0 .8-.07 1.2-.07.16 0 .24.07.4.07.24.08.48.08.72.08.48 0 .96.08 1.36.08.08.08.08.15.24.15Z" fill="#2D5335" /><path d="M26.2 16.56h.16c-.24.3-.48.61-.64.92 0 .08-.08.16-.16.31l-.16-.08c-.8.77-1.4 1.76-2.08 2.62-.56.7-1.28 1.4-1.52 2.24l-.24-.08c-.44.43-1.26 1.75-1.84 1.93l-.4-.08a47.6 47.6 0 0 1 2.72-3.77c.32-.39.4-.85.56-1.24.81-2.34.5-.4.08.62.32-.23.56-.46.8-.77l1.44-1.62c.56-.62 1.12-1.23 1.52-1.93h.08v.08h.08c.24-.3.56-.62.8-1l.08.07m-1.52 1.85c-.32.39-.64.78-.96 1.24 0 0 .08 0 .08.08.4-.47.72-.78.88-1.32Zm-1.52 27.68c.08 0 .16.07.24.15-.32.23-.64.15-.96.15-1.9 0-3.77-.15-5.68 0-.08 0-.16 0-.24-.07v-.16c2.28 0 4.38-.07 6.64-.07ZM24.2 33.9v.85c0 .75-6.38 3.52-7.28 4.35v.81c.22.87.5 1.7.8 2.55 0 .25-.1.2-.24.07L16.52 40c-.16-.39 0-1.11 0-1.54h.32a34.2 34.2 0 0 1 2.64-1.77c.08-.62.08-1.16.56-1.62.5-.37 1.07-.67 1.36-1.24.28-1.06 1.54-1.35 2.4-1.85.08-.07.16-.07.32-.15 0 .23.08.46.08.62 0 .46-.08 1 0 1.46Zm-1.84.15c.32.39.64.47.96.31-.24-.15-.4-.3-.64-.46-.16.08-.24.15-.32.15Z" fill="#2D5335" /><path d="M21 37.68c-.08.15-.32.23-.4.23-.16-.08-.32-.23-.32-.39 0-.07.24-.23.32-.3.08 0 .08.07.16.07-.16.08-.24.08-.4.16l.08.07c.08 0 .24-.07.32-.15-.08.15-.08.23-.16.3h.4Zm-.56.3v.08c-.16.08-.4.16-.48.16-.16-.08-.24-.31-.24-.47 0-.07.16-.15.32-.23l.08.08c-.08.08-.16.08-.24.15v.08c.08 0 .24-.08.4-.15l-.32.3v.08c.24 0 .32-.07.48-.07Zm-.72.16c.08.08.08.15 0 .23-.08.08-.24.23-.4.23-.08 0-.24-.15-.32-.3-.08-.24.16-.4.4-.31a.98.98 0 0 0-.24.3s.08.16.16.16l.16-.08c0-.08-.08-.14-.08-.23h.32Zm-.8.7c-.16 0-.24-.08-.32-.08 0 .07-.08.23-.08.3-.08-.07-.16-.07-.24-.15 0-.08-.08-.23-.08-.3.4.15.4.15.4-.32.16.24.24.39.32.54Zm-.64.07v.23c-.08.16-.16.31-.32.23-.16-.07-.32-.15-.32-.23 0-.15.08-.3.24-.38 0-.08.24.07.4.15Zm-.32.39s.16-.08.24-.16c-.08-.08-.16-.15-.24-.15 0 0-.16.07-.16.15l.16.16Z" fill="#2D5335" /></svg>