<?xml version='1.0' encoding='utf-8'?>
<!-- by TradeStack -->
<svg width="56" height="56" viewBox="0 0 56 56" fill="none" xmlns="http://www.w3.org/2000/svg">
<rect width="56" height="56" fill="#F0F3FA" />
<path d="M27.7681 15.4336L27.4715 16.1601C27.4315 16.2579 27.3626 16.3268 27.2649 16.3667L24.9054 17.3165C24.7899 17.3632 24.7199 17.4465 24.6955 17.5665L24.6621 17.7398C24.6355 17.8797 24.5511 17.9408 24.4089 17.923L18.2703 17.2032C18.1059 17.1832 18.0815 17.1132 18.197 16.9933C22.9059 12.0944 33.0535 11.9511 37.6891 16.9966C37.7979 17.1143 37.7724 17.1832 37.6124 17.2032L31.4705 17.933C31.355 17.9486 31.2928 17.8975 31.2839 17.7797L31.2672 17.5831C31.2584 17.4698 31.2017 17.3921 31.0973 17.3498L28.6545 16.3734C28.5523 16.3334 28.479 16.2634 28.4346 16.1635L28.1147 15.4303C27.9947 15.157 27.8792 15.1581 27.7681 15.4336Z" fill="#FFAE00" />
<path d="M24.7596 20.4546C26.8824 20.1973 29.0053 20.1939 31.1282 20.4445C31.2685 20.4603 31.3387 20.3982 31.3387 20.2583V18.4336C31.3387 18.3253 31.393 18.2734 31.5016 18.2779C32.4827 18.3287 39.6322 18.5386 39.8936 18.9177C43.6233 24.2935 43.9945 29.79 41.007 35.4072C40.009 37.2827 34.6724 43.6875 32.072 40.7051C31.9882 40.6103 31.8999 40.6058 31.8072 40.6916C30.576 41.8471 29.3346 41.8561 28.0831 40.7187C28.0039 40.6465 27.9246 40.6465 27.8454 40.7187C26.5984 41.8674 25.3627 41.8527 24.1383 40.6747C24.0636 40.6025 23.9901 40.6047 23.9177 40.6814C22.9762 41.688 21.8649 41.8166 20.584 41.0674C12.5621 36.3856 10.7051 26.5413 15.9671 18.8872C16.005 18.8324 16.0548 18.7871 16.1125 18.7548C16.1702 18.7225 16.2343 18.7041 16.2997 18.7011L24.4201 18.2745C24.5423 18.2677 24.6011 18.3264 24.5966 18.4505L24.5321 20.2447C24.5253 20.405 24.6011 20.4749 24.7596 20.4546ZM22.6718 23.8602C26.1582 22.936 29.7499 22.9394 33.2398 23.8669C33.362 23.8985 33.4423 23.8545 33.4808 23.7349L34.0409 21.9441C34.0817 21.82 34.0387 21.741 33.9119 21.7071C29.9468 20.5923 25.9828 20.5968 22.02 21.7207C21.8819 21.7613 21.8355 21.8493 21.8808 21.9847L22.4545 23.7417C22.4885 23.85 22.5609 23.8895 22.6718 23.8602ZM26.1548 29.5541C27.2412 28.3118 28.6738 28.3829 29.8246 29.5508C29.9083 29.6365 29.9898 29.6343 30.069 29.544C30.834 28.6661 31.7709 28.4381 32.8799 28.8602C33.0157 28.9121 33.0723 28.8658 33.0497 28.7214L32.3877 24.4323C32.3819 24.3909 32.3631 24.3524 32.3339 24.322C32.3047 24.2916 32.2665 24.271 32.2247 24.263C29.3821 23.6717 26.5384 23.6706 23.6936 24.2596C23.5578 24.289 23.4786 24.3725 23.456 24.5101L22.7906 28.7552C22.7657 28.9177 22.8291 28.9674 22.9807 28.9042C24.1327 28.4212 25.1115 28.6379 25.9172 29.5541C25.9964 29.6444 26.0756 29.6444 26.1548 29.5541ZM27.8013 31.5684C26.6946 32.7667 25.3129 32.7126 24.1485 31.5277C24.0512 31.4284 23.9618 31.4352 23.8803 31.5481C23.5273 32.0288 23.0509 32.3052 22.4511 32.3774C22.3063 32.3932 22.2225 32.4734 22.1999 32.6178L21.9589 34.1411C21.934 34.3059 21.9804 34.3296 22.0981 34.2122C23.327 32.9755 24.5751 32.9439 25.8425 34.1175C25.933 34.201 26.0236 34.201 26.1141 34.1175C27.3317 32.9778 28.5561 32.9778 29.7873 34.1175C29.8755 34.1987 29.9627 34.1976 30.0487 34.1141C31.0218 33.1459 32.1195 33.0218 33.3416 33.7417C33.4525 33.8071 33.5362 33.8974 33.5928 34.0125C33.629 34.0847 33.6743 34.1502 33.7286 34.2089C33.8825 34.3781 33.9425 34.3488 33.9085 34.1208L33.6845 32.6076C33.6664 32.4767 33.5917 32.4034 33.4604 32.3876C32.8675 32.3086 32.399 32.031 32.055 31.5548C31.9803 31.451 31.8977 31.4442 31.8072 31.5345C30.5579 32.7284 29.3109 32.7363 28.0661 31.5582C27.9756 31.4725 27.8873 31.4758 27.8013 31.5684ZM31.8038 36.0911C30.7717 37.2657 29.1422 37.3639 28.1136 36.1384C28.0299 36.0369 27.9405 36.0324 27.8454 36.1249C26.612 37.3391 25.3695 37.3436 24.118 36.1384C24.0252 36.0504 23.938 36.0561 23.8566 36.1554C23.3247 36.8008 22.6299 37.0886 21.7722 37.0186C21.668 37.0096 21.5922 37.0525 21.5447 37.1472C21.2097 37.8243 21.3512 38.3389 21.969 38.6909C22.0709 38.7473 22.1648 38.7372 22.2508 38.6604C23.5001 37.5365 24.7211 37.5636 25.9138 38.7417C25.9794 38.8049 26.0451 38.8049 26.1107 38.7417C27.3351 37.5478 28.564 37.5399 29.7974 38.718C29.8789 38.7947 29.9604 38.7959 30.0419 38.7214C31.2844 37.5636 32.5246 37.5546 33.7626 38.6943C33.8576 38.7846 33.9538 38.7857 34.0511 38.6977C34.5219 38.2757 34.6248 37.7566 34.36 37.1405C34.317 37.0412 34.2424 36.9972 34.136 37.0085C33.2443 37.0965 32.5427 36.7941 32.0312 36.1012C31.9588 36.0042 31.883 36.0008 31.8038 36.0911Z" fill="#004178" />
<path fill-rule="evenodd" clip-rule="evenodd" d="M28 43.667C36.6526 43.667 43.667 36.6526 43.667 28C43.667 19.3474 36.6526 12.333 28 12.333C19.3474 12.333 12.333 19.3474 12.333 28C12.333 36.6526 19.3474 43.667 28 43.667ZM28 45C37.3888 45 45 37.3888 45 28C45 18.6112 37.3888 11 28 11C18.6112 11 11 18.6112 11 28C11 37.3888 18.6112 45 28 45Z" fill="#004178" />
</svg>