<?xml version='1.0' encoding='utf-8'?>
<!-- by TradeStack -->
<svg width="56" height="56" viewBox="0 0 56 56" xmlns="http://www.w3.org/2000/svg"><path fill="#F0F3FA" d="M0 0h56v56H0z" /><path fill-rule="evenodd" d="M28 43a15 15 0 0 0 14.97-16H38c-3 0-7 3.5-8 8.5a7.45 7.45 0 0 0-5.5-2.5H13.85A15 15 0 0 0 28 43Zm9.5-21h4.25c-.3-.7-.66-1.36-1.06-2H36c-2.8 0-5.17 4.67-6 7-1.2-1.6-3.83-2-5-2H13.3a15 15 0 0 0-.27 2H24c2 0 5 1 6 3 .83-2.5 4.28-8 7.5-8Zm-22.2-2H24c2.4 0 4.33 1.33 5 2 0-3.21 2.65-6.4 4.41-8a14.99 14.99 0 0 0-18.1 6ZM28 44a16 16 0 1 0 0-32 16 16 0 0 0 0 32Z" fill="#A28E5C" /></svg>