<?xml version='1.0' encoding='utf-8'?>
<!-- by TradeStack -->
<svg width="56" height="56" viewBox="0 0 56 56" xmlns="http://www.w3.org/2000/svg"><path fill="#F0F3FA" d="M0 0h56v56H0z" /><path d="M33.5 13a.5.5 0 0 0-.5.5v3.97l-2 2a.5.5 0 0 0-.5-.47H28a3.52 3.52 0 0 1 0 5h2.5c.1 0 .2-.03.28-.08l2.3 2.3a.5.5 0 0 0-.08.28v3.36l-2.22 2.22a.5.5 0 0 0-.28-.08H28a3.52 3.52 0 0 1 0 5h2.5a.5.5 0 0 0 .5-.47l2 2v3.97c0 .28.22.5.5.5h4a.5.5 0 0 0 .5-.5v-4a.5.5 0 0 0-.5-.5h-4a.5.5 0 0 0-.24.06L31 35.8v-3.2l2-2.02a.5.5 0 0 0 .5.42h4c.1 0 .2-.03.28-.08l1.3 1.3a.5.5 0 0 0-.08.28v4c0 .28.22.5.5.5h4a.5.5 0 0 0 .5-.5v-4a.5.5 0 0 0-.5-.5h-3.9L38 30.4v-3.9a.5.5 0 0 0-.42-.5l2.01-2h3.91a.5.5 0 0 0 .5-.5v-4a.5.5 0 0 0-.5-.5h-4a.5.5 0 0 0-.5.5v4c0 .1.03.2.08.28L36.86 26H33.6L31 23.4v-3.2l2.26-2.26a.5.5 0 0 0 .24.06h4a.5.5 0 0 0 .5-.5v-4a.5.5 0 0 0-.5-.5h-4Z" fill="#FAE734" /><path fill-rule="evenodd" d="M25 14a1 1 0 1 0-.87-.5l-8.28 4.97a1 1 0 1 0-.34 1.39l2.57 1.93-4.2 5.26a1.5 1.5 0 1 0 .03 2.9l3.52 4.09L15.49 37a.5.5 0 1 0 .43.77l8.2 4.75a1 1 0 1 0 .8-.51l-2.89-3.39 5.47.91a.5.5 0 1 0 .27-.47L21.51 38l-2.65-3.09 2.77-2.3a.51.51 0 0 0 .46-.06l2.98 1.49a1.5 1.5 0 1 0 .82-.92l-.74-2.51 2.6-1.4a1.03 1.03 0 0 0 1.8-.7 1.03 1.03 0 0 0-2.03-.27l-3.07-.03-.63-2.14a1 1 0 0 0 .13-.9l2.22-2.22A1.5 1.5 0 0 0 28 21.5a1.5 1.5 0 1 0-2.74.84l-3.4 1.64-3.04-2.28 6.16-7.7H25Zm.44 19.44-.75-2.57-2.32 1.25 2.94 1.47.13-.15Zm.22-10.7h-.02l-3.31 1.59.32.23a1 1 0 0 1 1.01.19l2-2Zm-9.79-3.25 2.54 1.9 5.91-7.4L16 19V19a1 1 0 0 1-.13.49Zm-1.51 7.78c.09.06.17.13.24.2l6.74-3.24-2.84-2.13-4.14 5.17Zm.52.64c.04.1.07.19.09.29a378.3 378.3 0 0 1 6.26 0l1.22-1.86a1 1 0 0 1-.24-1.46l-.4-.3-6.93 3.33Zm.1.8c-.01.1-.03.2-.07.3l4.57 1.88 1.42-2.17a963.87 963.87 0 0 0-5.91 0Zm-.33.75c-.08.1-.16.18-.26.25l3.33 3.88 1.47-2.26-4.54-1.87Zm8.3-2.96-1.1 1.7 2.06.02-.53-1.8a1 1 0 0 1-.42.08Zm-.87 5.19 2.46-1.33-.48-1.63-2.55-.01-1.55 2.37 1.53.63a.51.51 0 0 1 .59-.03Zm-.79.5-1.61-.66L18.07 34l.45.53 2.78-2.31v-.02Zm6.22-3.43-2.5 1.35-.41-1.37 2.91.02Zm-9.73 5.69.35.4L16.77 36l1-1.54Zm6.46 7.54-7.27-4.21 4.27.71 3 3.5Zm-5.78-6.74 2.26 2.63-4.5-.75 2.24-1.88Z" fill="#A3A2A2" /></svg>