<?xml version='1.0' encoding='utf-8'?>
<!-- by TradeStack -->
<svg width="56" height="56" viewBox="0 0 56 56" xmlns="http://www.w3.org/2000/svg"><path fill="#F0F3FA" d="M0 0h56v56H0z" /><path d="M43.56 33h-8.45c-2.18 3.22-6.39 5.4-11.23 5.4-4.41 0-8.3-1.82-10.6-4.57A16.1 16.1 0 0 0 28.26 44a16.1 16.1 0 0 0 15.29-11Zm0-10h-8.45c-2.18-3.22-6.39-5.4-11.23-5.4-4.41 0-8.3 1.82-10.6 4.57A16.1 16.1 0 0 1 28.26 12a16.1 16.1 0 0 1 15.29 11Z" fill="#2E3191" /><path d="M24.8 24h-.13c-.7 0-1.25.25-1.67.59V24h-1.5v6H23v-4.22c.23-.27.57-.49 1.03-.49.36 0 .6.09.78.22V24Zm-5.3 0H21v6h-1.5v-1.16A2.95 2.95 0 0 1 17.17 30c-1.57 0-2.1-1.04-2.17-1.56v-4.41h1.6v3.28c0 .57.07 1.4 1.23 1.4.93 0 1.56-.81 1.67-1.22V24ZM8 32v-8h1.5v1.13a2.6 2.6 0 0 1 2.04-1.02c1.49 0 2.7 1.32 2.7 2.96 0 1.63-1.21 2.95-2.7 2.95A2.6 2.6 0 0 1 9.5 29v3H8Zm3.06-3.3c.83 0 1.5-.73 1.5-1.63 0-.9-.67-1.64-1.5-1.64-.82 0-1.49.73-1.49 1.64 0 .9.67 1.63 1.5 1.63Zm15.77-2.68h-1.56c.02-.67.59-2.02 2.63-2.02 2.03 0 2.6 1.1 2.62 1.66v3.16c0 .55.37 1.01.55 1.18H29v-.94c-.08.31-.58.94-2.05.94-1.48 0-1.89-1.1-1.91-1.66 0-1.77 2.26-1.87 3-1.87.72 0 .96-.3.96-.64s-.24-.64-1.1-.64c-.7 0-1 .55-1.07.83Zm2.15 2.03v-.88c-.06.03-.44.15-1.45.37-1.26.27-1.04 1.4 0 1.4.83 0 1.31-.59 1.45-.89Z" fill="#2C292A" /><path fill-rule="evenodd" d="M35.17 24H32v6h3.17c1 0 1.83-.93 1.83-2.08v-1.84c0-1.15-.82-2.08-1.83-2.08Zm-.47.62H33v4.76h1.7c.84 0 1.3-.93 1.3-2.08v-.6c0-1.15-.46-2.08-1.3-2.08Z" /><path d="M39 27.35 36.79 24h1.06l1.77 2.66L41.35 24h1.12L40 27.35V30h-1v-2.65ZM43 24v6h1v-4.68L47.05 30H48v-6h-1v4.57L43.98 24H43Z" fill="#2C292A" /><path opacity=".3" fill="#2C292A" d="M10 30h38v2H10z" /></svg>