<!-- by TradeStack --><svg width="56" height="56" viewBox="0 0 56 56" xmlns="http://www.w3.org/2000/svg"><path fill="#F0F3FA" d="M0 0h56v56H0z"/><path d="M22 12h12v2.68a8.15 8.15 0 0 0-.1-.03c-2.41 1.23-6.63 5.14-4.2 10.86-1.73 1.36-5.85 4.89-7.7 8.49H12V22h10V12Zm0 28.2V44h12V34h10V22h-4.5c-1.02 4.02-6.65 4.86-9 4.78-4.34 2.95-7.54 10.14-8.5 13.43Z" fill="#899549"/><path d="M38.77 15c-3.95.65-11.08 3.53-8.04 9.9 3.31.53 9.55-.7 8.04-9.9Z" fill="#34381D"/><path d="M32.12 24c-.91-4.16 3.5-6.4 5.83-7 .5 2.74-2.91 4.5-3.76 4.98A9.57 9.57 0 0 0 32.12 24Z" fill="#899549"/><path d="M45 17.2c-1.6-.45-4.85-.44-5 3.18 1.13.89 3.7 1.5 5-3.18Z" fill="#34381D"/></svg>