<!-- by TradeStack --><svg viewBox="0 0 56 56" xmlns="http://www.w3.org/2000/svg"><path fill="#FED116" d="M0 0h56v56H0z"/><path d="M40.21 27.47c-.25-.19-.5-.35-.74-.49-.13-.07-.13-.14-.01-.22a5.35 5.35 0 0 0 2.2-3.83 7.47 7.47 0 0 0-.64-4.51.54.54 0 0 1 .02-.53l.93-1.62a.2.2 0 0 0 0-.2.2.2 0 0 0-.15-.12l-2.49-.46c-.15-.03-.26.03-.32.18-.07.19-.2.24-.41.14-2.45-1.17-4.7-1.07-6.76.28a6.24 6.24 0 0 0-2.67 4.18 7.35 7.35 0 0 0 .62 4.92 5.59 5.59 0 0 0 4.43 3.11c.19.03.49.06.9.08 1.26.07 2.16.32 2.7.73.5.4.8.97.87 1.72a2.5 2.5 0 0 1-.47 1.83c-.7.9-1.68 1.32-2.94 1.25-2.1-.13-3.44-1.18-4-3.17-.04-.15-.12-.19-.26-.12l-1.82.87c-.14.07-.2.18-.16.34.58 3.08 2.43 4.78 5.56 5.12a7.18 7.18 0 0 0 4.18-.72 5.31 5.31 0 0 0 2.7-3.22c.31-.98.37-1.97.2-3-.21-1.14-.7-2-1.47-2.54ZM35.26 25c-1.8 0-3.25-1.57-3.25-3.5s1.45-3.5 3.24-3.5c1.8 0 3.25 1.56 3.26 3.49 0 1.93-1.45 3.5-3.25 3.5ZM17 33.46V27.8c0-.1.05-.13.13-.06a5.37 5.37 0 0 0 3.98 1.3c1.6-.1 2.94-.69 4-1.76a6.39 6.39 0 0 0 1.82-3.96 8.34 8.34 0 0 0-.7-4.82 6.2 6.2 0 0 0-4.12-3.32 4.99 4.99 0 0 0-4.92 1.3c-.05.05-.1.06-.15.03a.13.13 0 0 1-.1-.13v-.84c0-.14-.06-.2-.2-.17l-2.62.49c-.08.01-.12.06-.12.14v18.95c0 .05.02.06.07.04l2.86-1.4c.06-.03.07-.07.07-.13Zm3.34-7.58c-1.92 0-3.49-1.7-3.5-3.81-.01-2.12 1.54-3.84 3.46-3.85 1.92 0 3.49 1.7 3.5 3.81 0 2.12-1.54 3.84-3.46 3.85Zm9.23 15.77a9.9 9.9 0 0 1-7.21-.37 9.64 9.64 0 0 1-5.04-5.08c-.09-.2-.23-.25-.43-.16l-1.65.72c-.21.09-.28.24-.21.45.49 1.54 1.25 2.9 2.28 4.07A10.98 10.98 0 0 0 25.7 45c1.58-.01 3.12-.35 4.61-1 .21-.09.28-.24.21-.45l-.54-1.7c-.07-.2-.2-.27-.4-.2Z" fill="#1B1A17"/></svg>