<?xml version='1.0' encoding='utf-8'?>
<!-- by TradeStack -->
<svg width="56" height="56" viewBox="0 0 56 56" xmlns="http://www.w3.org/2000/svg"><path fill="#F0F3FA" d="M0 0h56v56H0z" /><path d="M12.86 40.38c.45.39 1.03.62 1.67.62h26.94c1.4 0 2.53-1.12 2.53-2.5v-10h-3.02l-1.6 1.5-1.6-1.5-1.6 1.5-1.6-1.5-1.6 1.5-1.6-1.5-1.6 1.5-1.6-1.5-1.6 1.5-1.61-1.5h-.04L12.86 40.38Z" fill="#00612B" /><path d="M23.65 28.5H12v9c0 .69.28 1.3.73 1.76L23.65 28.5Z" fill="#00355F" /><path fill-rule="evenodd" d="M12 17.5c0-1.38 1.13-2.5 2.53-2.5h26.94c1.4 0 2.53 1.12 2.53 2.5v10h-2L33.5 19 25 27.5H12v-10Zm10 4a2.5 2.5 0 1 1-5 0 2.5 2.5 0 0 1 5 0Z" fill="#008CFF" /></svg>