<!-- by TradeStack --><svg width="56" height="56" viewBox="0 0 56 56" xmlns="http://www.w3.org/2000/svg"><path fill="url(#aaul3w3dd)" d="M0 0h56v56H0z"/><path d="M45.66 30c-.4 0-.78-.11-1.1-.33-.14-.1-.25-.24-.33-.39a1 1 0 0 1-.11-.48c0-.24.05-.48.16-.7.1-.22.26-.41.46-.57a2.5 2.5 0 0 1 1.55-.53h.14c.4 0 .79.12 1.1.35.14.1.25.23.32.38.08.15.12.31.11.47 0 .25-.05.49-.16.71a1.7 1.7 0 0 1-.47.58c-.43.33-.97.5-1.53.5H45.73l-.07.01Zm.6-2.24h-.05a.8.8 0 0 0-.36.1.7.7 0 0 0-.26.26c-.14.2-.21.43-.22.66 0 .06 0 .12.02.17.02.06.06.1.1.15.04.04.1.08.15.1a.49.49 0 0 0 .23.04c.13 0 .25-.04.35-.1.1-.06.2-.15.25-.25.14-.2.22-.44.22-.68.01-.06 0-.11-.01-.17a.4.4 0 0 0-.1-.14.47.47 0 0 0-.33-.13ZM31.5 31.45H31.3c-.38 0-.76-.07-1.11-.2l-.07-.03.3-.82.09.04c.28.1.58.15.88.15h.03c.22.01.44-.04.63-.15a.94.94 0 0 0 .36-.57c-.24.18-.55.29-.86.29h-.13a1.16 1.16 0 0 1-1.15-1.13V29a1.84 1.84 0 0 1 .65-1.39 2.74 2.74 0 0 1 1.84-.62h.04c.45 0 .9.07 1.32.21l.07.02-.56 2.5a3.1 3.1 0 0 1-.27.78c-.12.24-.3.44-.52.59-.4.23-.86.35-1.32.35Zm1.06-3.62c-.28.01-.54.13-.72.33-.2.2-.3.45-.3.73.01.29.14.43.4.43.28 0 .62-.25.73-.75l.17-.71-.28-.03ZM10.24 21.38s.84 2.08 9.72.19c8.5-1.82 17.62 1.3 17.62 1.3-3.5-.31-9.7-2.18-18.2-.37-8.89 1.9-9.14-1.12-9.14-1.12" fill="#fff"/><path d="M4 22.66s.83 2.07 9.67.18c8.45-1.8 16.8 1.28 16.8 1.28-4.1-.44-8.93-2.15-17.39-.34C4.25 25.67 4 22.66 4 22.66Z" fill="#62AF31"/><path d="M5.2 30H4l.96-4.86.06-.01c.4-.09.8-.13 1.21-.13h.22c.42 0 .85.11 1.23.33.18.1.32.26.43.45.1.2.15.42.15.65 0 .29-.07.57-.2.82-.12.25-.3.45-.5.6a2.76 2.76 0 0 1-1.64.46l-.33-.01h-.04L5.2 30Zm1.2-4-.04.01c-.13 0-.25 0-.37.02l-.24 1.24c.09.02.18.02.27.02h.04c.48 0 .97-.27.97-.77 0-.08-.01-.16-.05-.23a.39.39 0 0 0-.14-.16.87.87 0 0 0-.43-.12ZM12.67 26.28l.38-1.01-.08-.04a3.35 3.35 0 0 0-1.34-.23c-.8-.02-1.57.22-2.24.7a2.6 2.6 0 0 0-.77.97 3 3 0 0 0-.27 1.26c-.01.3.05.6.16.86.12.27.29.5.5.67.5.38 1.1.57 1.7.54.54-.01 1.09-.1 1.62-.27l.05-.02.53-2.71h-1.97l-.21 1h.77l-.16.9c-.15.04-.31.1-.47.1-.76-.01-1.19-.4-1.2-1.14 0-.28.07-.57.19-.82s.29-.46.5-.62c.36-.25.79-.43 1.21-.42.35 0 .7.12 1.02.25l.08.03ZM17.62 26.28l.38-1.01-.07-.04a3.36 3.36 0 0 0-1.35-.23c-.79-.02-1.57.22-2.24.7a2.6 2.6 0 0 0-.76.97 3 3 0 0 0-.28 1.26c0 .3.05.6.16.86.12.27.29.5.5.67.5.38 1.1.57 1.7.54.54-.01 1.1-.1 1.62-.27l.05-.02.53-2.71H15.9l-.2 1h.77l-.17.9c-.15.04-.31.1-.47.1-.76-.01-1.19-.4-1.2-1.14 0-.28.07-.57.19-.82s.29-.46.5-.62c.37-.25.79-.43 1.21-.42.35 0 .7.12 1.03.25l.07.03ZM23.89 30l2.27-5h-1.31l-.88 2.2-.38 1.03c.02-.3.02-.62.03-.99l.01-2.24h-1.3c-.45 1.1-.92 2.2-1.33 3.33V25h-1.23l.2 5h1.3l.03-.05c.44-1.02.91-2.03 1.28-3.09V30h1.3ZM28.13 27.97l.25-.96h-.1l-.2-.01a1.46 1.46 0 0 0-1.06.47l.03-.32.01-.15h-1.07l-.01.13c-.04.24-.1.7-.19 1.12L25.36 30h1.24l.01-.06.25-1.04c.14-.53.43-.94 1.05-.94h.15l.07.01ZM30.12 27H28.9l-.72 3h1.23l.01-.06.7-2.94ZM30.38 25.8a.49.49 0 0 0-.19-.4.74.74 0 0 0-.46-.14.67.67 0 0 0-.73.6.56.56 0 0 0 .4.51c.07.03.15.04.22.03.4 0 .76-.22.76-.6M37.94 28.63c.04-.2.06-.4.07-.62a.94.94 0 0 0-.27-.73c-.2-.17-.46-.3-.72-.28-.37 0-.73.15-1.03.4l.5-2.4h-1.23l-1.03 5h1.23l.01-.07.2-.92c.12-.64.48-1.02.8-1.01.23.01.26.1.28.29 0 .13-.02.26-.05.38L36.43 30h1.23l.28-1.37ZM41.11 26.82h-.77l.19-.82-1.27.28-.01.05-.12.49h-.46l-.19.83h.46l-.25 1.06c-.06.19-.08.38-.09.56a.62.62 0 0 0 .27.53c.22.14.5.21.76.2.22 0 .44-.02.65-.07l.05-.02.14-.84-.11.02h-.28a.27.27 0 0 1-.18-.04.15.15 0 0 1-.04-.12c0-.12.02-.24.05-.35l.23-.93h.76l.21-.83ZM43.65 27.88l.3-.7-.07-.03c-.3-.1-.63-.16-.95-.15-.95 0-1.66.39-1.67 1.02 0 .4.4.63.81.8.12.03.23.08.33.15l.05.05.02.07c0 .03 0 .05-.02.07a.14.14 0 0 1-.06.04.58.58 0 0 1-.29.06 2.86 2.86 0 0 1-.9-.18l-.08-.03-.32.7.06.03c.36.15.75.23 1.14.22h.02c.43.01.85-.08 1.22-.26a.94.94 0 0 0 .37-.32c.08-.14.13-.3.13-.45 0-.44-.46-.67-.86-.83-.3-.1-.4-.2-.38-.23 0-.05.02-.08.08-.11.1-.04.2-.06.3-.06.23 0 .47.04.69.11l.08.03ZM52 27.84a.75.75 0 0 0-.06-.34.8.8 0 0 0-.21-.28 1.15 1.15 0 0 0-.74-.22c-.43 0-.84.14-1.16.4l.05-.4h-1.1l-.01.13c-.05.25-.1.55-.2.9L48.1 30h1.23l.01-.06.3-1.24c.14-.6.53-.89.81-.88a.3.3 0 0 1 .22.06c.04.06.06.12.06.2 0 .1-.01.19-.04.28L50.3 30h1.24l.4-1.68c.04-.16.06-.32.07-.48" fill="#fff"/><defs><linearGradient id="aaul3w3dd" x1="0" y1="28" x2="56" y2="28" gradientUnits="userSpaceOnUse"><stop stop-color="#020E3E"/><stop offset=".47" stop-color="#013370"/><stop offset="1" stop-color="#013473"/></linearGradient></defs></svg>