<!-- by TradeStack --><svg width="56" height="56" viewBox="0 0 56 56" xmlns="http://www.w3.org/2000/svg"><path fill="#F0F3FA" d="M0 0h56v56H0z"/><path d="M35.24 13.73a35.6 35.6 0 0 0-4.26 3.66l-.27.27c-.7-.45-1.43-.83-2.17-1.14a5.88 5.88 0 0 0-8.18 6.17c.25 2.26 1.69 4 3.33 5.47l-1.35 3.63a10.56 10.56 0 0 1-3.73-2.48 10.07 10.07 0 0 1-3.07-6.85 9.5 9.5 0 0 1 1.48-5.4c.13-.21.43-.66.9-1.33.38-.42.73-.75 1.06-.97a16.13 16.13 0 0 1 16.26-1.03Z" fill="#5D1C19"/><path d="M42.63 21.52a18.19 18.19 0 0 1-5.17 9.38 17.63 17.63 0 0 1-13.22 4.89.1.1 0 0 0-.07.02.1.1 0 0 0-.04.06 32.1 32.1 0 0 0-.41 3.99c-.28.35-.57.5-.86.44a4.19 4.19 0 0 1-1.94-1.02l.5-3.75a.14.14 0 0 0-.1-.15 17.6 17.6 0 0 1-5.8-2.47c-.3-.88-.55-1.76-.76-2.63-.66-2.73-.4-5.33.78-7.82a10.07 10.07 0 0 0 3.07 6.85 10.56 10.56 0 0 0 3.74 2.48l4.65.84c1.45.9 3.5-.3 4.75-1.22a17.5 17.5 0 0 0 5.83-7.69c.45-1.25.86-3.57-.97-3.94-.9-.18-2.07.33-2.85.78a17.27 17.27 0 0 0-2.78-3.17 35.6 35.6 0 0 1 4.26-3.66 15.84 15.84 0 0 1 7.39 7.79Z" fill="#DCDBCD"/><path d="M30.71 17.66a35.38 35.38 0 0 0-7.02 10.5c-1.64-1.47-3.08-3.2-3.33-5.47a5.88 5.88 0 0 1 8.18-6.17c.75.31 1.47.69 2.17 1.14Z" fill="#7C2421"/><path d="m17.91 15.73-.9 1.32a9.5 9.5 0 0 0-1.47 5.41 11.42 11.42 0 0 0-.78 7.82c.21.87.47 1.75.76 2.63a18.02 18.02 0 0 1-3.41-2.92c-.53-4.93.86-9.24 4.16-12.93a6.59 6.59 0 0 1 1.64-1.33Z" fill="#CDCCB9"/><path d="M30.98 17.39c1.06.95 1.99 2 2.78 3.17-1.1.65-2.15 1.49-3.14 2.51-2 2.07-4 4.92-4.23 7.8a2.2 2.2 0 0 0 .61 1.76l-4.65-.84 1.34-3.63a35.38 35.38 0 0 1 7.02-10.5l.27-.27Z" fill="#F6F5F1"/><path d="M27 32.63a2.2 2.2 0 0 1-.61-1.76c.23-2.88 2.23-5.73 4.22-7.8 1-1.02 2.04-1.86 3.15-2.51.77-.45 1.96-.96 2.85-.78 1.83.37 1.42 2.7.97 3.94a17.5 17.5 0 0 1-5.84 7.69c-1.24.92-3.29 2.12-4.74 1.22Z" fill="#5D1C19"/><path d="M42.63 21.52a16.1 16.1 0 0 1-5.76 19.85c-1.3.87-2.93 1.63-4.88 2.3-.88.24-1.85.46-2.9.64-.26.05-.54.07-.84.09-.3 0-.58.02-.85.03-1.01-.1-1.71-.22-2.09-.36a33.6 33.6 0 0 0-1.37-.47c-.15-.05-.23-.2-.24-.43-.03-1.1-.03-2.2.02-3.31.05-1.32.19-2.65.4-3.99a.1.1 0 0 1 .05-.06.1.1 0 0 1 .07-.02c4.95.25 9.65-1.47 13.22-4.89 2.59-2.47 4.31-5.6 5.17-9.38ZM15.52 32.9c1.77 1.18 3.7 2 5.8 2.48a.14.14 0 0 1 .1.15l-.5 3.75-.13 3.07a16 16 0 0 1-8.68-12.36 18.02 18.02 0 0 0 3.41 2.92Z" fill="#4C1614"/><path d="M23.71 39.86a44.73 44.73 0 0 0 0 3.3c0 .25.08.4.22.44.26.26.06.34-.6.26-1.15-.16-2.3-.2-3.47-.12l2.58-.05a.15.15 0 0 0 .13-.23c-.08-.12-.2-.24-.35-.34a8.24 8.24 0 0 0-1.43-.77l.13-3.07c.6.53 1.24.87 1.94 1.02.29.06.57-.1.85-.44Z" fill="#CDCCB9"/><path d="m22.56 44.37 2.46.2h.16l2.22-.14.85-.03c.3-.02.58-.04.84-.09 1.05-.18 2.02-.4 2.9-.64 1.03-.01 2-.05 2.93-.12a8.14 8.14 0 0 1 1.53 0l1.52.2c.4.05.67.12.83.21a.14.14 0 0 1-.05.26l-.38.06c-.72.09-2.32.19-4.81.3-.57.03-1.16.1-1.77.2-.94.15-1.53.23-1.77.22-1.16-.03-2.25-.05-3.26-.05h-.02l-4.18-.58Z" fill="#BABBBA"/><path d="m27.4 44.43-2.22.15h-.16l-2.46-.21c-.61-.13-1.1-.2-1.48-.2l-3.57-.1a16.8 16.8 0 0 1 5.82-.21c.66.08.86 0 .6-.26.46.15.92.3 1.38.47.38.14 1.08.26 2.09.36Z" fill="#6D6E6F"/></svg>