<?xml version='1.0' encoding='utf-8'?>
<!-- by TradeStack -->
<svg width="56" height="56" viewBox="0 0 56 56" xmlns="http://www.w3.org/2000/svg"><path fill="#F0F3FA" d="M0 0h56v56H0z" /><path d="M19.03 16.76l.28.46.52-.23v.56l.56.1-.3.46.42.37-.5.23.15.54-.55-.08-.16.55-.42-.37-.44.37-.15-.53-.56.06.17-.53-.52-.24.42-.36-.3-.47.55-.08.01-.58.5.23.32-.46z" fill="#FAAA42" /><path d="M19.45 19.77l-.04-.01-.38-.33-.4.33-.05.01c-.02 0-.04-.03-.04-.04l-.14-.48-.5.07c-.03 0-.04 0-.06-.03l-.01-.05.13-.48-.46-.21a.19.19 0 0 1-.04-.06c0-.03 0-.04.03-.05l.38-.33-.27-.44c-.02-.01-.02-.04 0-.05.01-.01.02-.03.05-.04l.5-.07V17c0-.02.02-.04.03-.05a.04.04 0 0 1 .06 0l.45.2.28-.42c.02-.01.03-.03.06-.03s.04.02.05.03l.28.42.46-.2c.01-.02.04 0 .05 0 .02.01.03.03.03.05v.5l.5.09c.03 0 .05.01.05.04v.05l-.28.43.39.34c0 .01.02.04 0 .05 0 .01 0 .04-.03.06l-.44.2.14.49c0 .03 0 .04-.02.05a.1.1 0 0 1-.05.03l-.5-.07-.14.5-.04.04-.03-.02zm-1-.65c.02 0 .05.01.05.04l.12.43.35-.3a.09.09 0 0 1 .09 0l.34.3.13-.45c.02-.02.04-.05.07-.04l.45.07-.12-.45c-.02-.02 0-.07.04-.07l.4-.19-.35-.3c-.02-.04-.02-.06-.01-.1l.25-.37-.47-.07c-.03 0-.05-.03-.05-.07v-.45l-.43.2a.07.07 0 0 1-.08-.03l-.24-.39-.26.4a.07.07 0 0 1-.08.03l-.41-.2.02.46c0 .02-.02.05-.05.06l-.45.07.25.4c0 .02 0 .05-.02.08l-.34.3.42.2c.03.02.04.04.03.07l-.14.44.48-.07z" /><path d="M20.35 14.08l.22.35.4-.17v.42l.42.07-.23.35.32.29-.38.17.11.41-.4-.05-.15.4-.3-.28-.34.29-.12-.41-.42.05.12-.4-.4-.18.33-.28-.23-.36.42-.06v-.43l.39.17.24-.35z" fill="#FAAA42" /><path d="M20.02 16.38h-.01l-.04-.04-.11-.36-.37.06c-.03 0-.04 0-.05-.03-.02-.01-.02-.04-.02-.05l.11-.36-.34-.16-.04-.05c-.01-.03 0-.05.03-.06l.27-.24-.2-.32c-.02-.01-.02-.04 0-.05.01-.02.02-.03.05-.04l.37-.06v-.38c0-.03.01-.04.03-.05.01-.02.04-.02.05 0l.33.15.2-.32.06-.02.05.02.2.32.33-.15c.02-.02.04 0 .06 0 .01 0 .03.02.03.05v.37l.36.05c.03 0 .04.02.04.04.02.02.02.05 0 .06l-.2.31.29.25c.01.01.02.04.01.05 0 .03-.01.04-.04.06l-.34.15.1.36c0 .03 0 .04-.02.06a.1.1 0 0 1-.05.03l-.37-.06-.11.36-.04.04c-.03 0-.04 0-.06-.02l-.27-.24-.29.24c.03.03.02.03 0 .03zm-.12-.53c.03 0 .06.01.06.04l.1.31.25-.21a.09.09 0 0 1 .08 0l.25.21.1-.31c0-.03.03-.05.06-.04l.33.04-.1-.33c-.01-.02 0-.07.04-.07l.3-.13-.24-.22c-.03-.03-.03-.05-.02-.08l.18-.27-.33-.06c-.02 0-.05-.03-.05-.07v-.32l-.3.13a.07.07 0 0 1-.08-.02l-.18-.28-.19.28c-.01.02-.05.04-.08.02l-.3-.13v.32c0 .03-.03.06-.06.07l-.31.07.18.29c.01.02.01.05-.02.08l-.24.22.3.15c.03 0 .04.04.03.06l-.1.32.34-.07z" /><path d="M22.71 12.28l.18.26.28-.12v.31l.33.05-.18.26.25.22-.29.12.08.32-.3-.04-.1.3-.25-.2-.25.2-.08-.3-.32.04.1-.3-.3-.14.24-.2-.17-.28.32-.05v-.31l.28.12.18-.26z" fill="#FAAA42" /><path d="M22.96 14.02l-.05-.01-.19-.18-.2.18-.06.01s-.04-.02-.04-.04l-.06-.24-.28.02c-.02 0-.04 0-.05-.02-.02-.02-.02-.04-.02-.06l.07-.24-.24-.11c-.02-.01-.03-.03-.04-.06 0-.02 0-.04.02-.05l.2-.18-.13-.23v-.05l.06-.04.26-.04v-.28c0-.02 0-.04.02-.05a.04.04 0 0 1 .06 0l.23.1.15-.21.04-.03c.03 0 .04.02.05.03l.14.22.25-.11c.01-.02.04 0 .05 0 .01 0 .03.03.03.05v.26l.26.04c.02 0 .04.02.04.04v.06l-.14.22.2.17c.02.02.03.04.02.06-.01.01-.01.04-.04.05l-.23.11.07.26c0 .03 0 .04-.02.05a.1.1 0 0 1-.05.03l-.26-.04-.07.27c0 .02-.03.04-.04.04h-.01zm-.58-.42c.03 0 .06.02.06.04l.05.2.18-.14a.09.09 0 0 1 .08 0l.16.15.07-.22c.02-.03.04-.06.07-.04l.22.03-.06-.22c0-.03 0-.07.04-.07l.21-.1-.16-.15c-.03-.02-.03-.05-.02-.08l.13-.17-.22-.05c-.03 0-.06-.02-.06-.06v-.22l-.23.1c-.03.02-.07 0-.08-.02l-.12-.2-.13.2c-.01.03-.05.04-.08.03l-.2-.1v.23c0 .03-.03.06-.06.07l-.22.03.13.19c.01.03.01.05-.02.08l-.16.14.2.1c.03 0 .05.03.03.06l-.07.2h.26z" /><path d="M25.3 11.24l.12.2.23-.09v.25l.25.04-.14.2.2.17-.24.1.07.24-.23-.04-.08.24-.18-.16-.2.16-.06-.24-.24.04.06-.23-.23-.11.2-.17-.14-.2.24-.04v-.25l.22.1.15-.2z" fill="#FAAA42" /><path d="M25.1 12.6c-.02 0-.05-.02-.05-.03l-.05-.18-.2.03c-.02 0-.03 0-.05-.03v-.05l.05-.18-.18-.08a.19.19 0 0 1-.04-.06c0-.03 0-.04.02-.05l.15-.13-.12-.17a.04.04 0 0 1 0-.06l.06-.04.19-.03v-.19l.02-.05a.04.04 0 0 1 .06 0l.18.08.1-.16c.02-.02.03-.03.06-.03s.04.01.05.03l.1.16.18-.08h.05c.02.01.03.03.03.05v.2l.19.02c.03 0 .04.02.04.04v.06l-.1.16.14.14c.02.01.03.04.02.05-.02.02-.02.04-.05.06l-.17.08.05.19-.01.05a.1.1 0 0 1-.06.03l-.19-.03-.05.2-.04.03h-.06l-.13-.13-.15.12-.03-.01zm-.06-.35c.03 0 .06.02.06.04l.04.14.12-.1a.09.09 0 0 1 .08 0l.11.1.04-.14c.01-.02.04-.05.07-.04l.15.03-.04-.15c-.02-.03 0-.07.04-.07l.14-.05-.11-.1c-.03-.02-.03-.05-.02-.08l.08-.12-.15-.03c-.02 0-.05-.03-.05-.07v-.15l-.14.06a.07.07 0 0 1-.08-.03l-.08-.12-.08.12c-.02.03-.06.04-.08.03l-.14-.06v.15c0 .03-.03.06-.05.07l-.15.01.08.13c.01.02.01.05-.02.08l-.1.1.13.06c.03.02.04.04.03.07l-.04.14.16-.02c-.01 0 0 0 0 0z" /><path d="M36.96 16.76l-.29.46-.52-.23v.56l-.56.1.3.46-.42.37.5.23-.14.54.54-.08.17.55.42-.37.43.37.15-.53.56.06-.16-.53.52-.24-.42-.36.3-.47-.55-.08-.01-.58-.5.23-.32-.46z" fill="#FAAA42" /><path d="M36.54 19.77h-.02c-.03 0-.04-.03-.04-.04l-.15-.49-.49.07c-.03 0-.04 0-.05-.03-.02-.01-.02-.04-.02-.05l.14-.5-.45-.2-.04-.05.01-.06.38-.34-.27-.42v-.05l.04-.04.5-.09v-.5c0-.03.02-.04.03-.06a.04.04 0 0 1 .06 0l.46.2.27-.41c.02-.02.03-.03.06-.03s.04.01.05.03l.29.42.45-.2a.04.04 0 0 1 .05 0c.02 0 .03.02.03.05l.01.52.5.07c.02 0 .04 0 .05.04v.05l-.27.44.38.32a.1.1 0 0 1 .03.06c0 .02-.02.04-.04.05l-.47.22.14.48c0 .01 0 .04-.02.05a.1.1 0 0 1-.05.03l-.5-.07-.14.48c0 .02-.03.04-.04.04-.02 0-.04 0-.06-.02l-.4-.32-.37.32c-.02.03-.03.03-.04.03zm.42-.49l.04.01.35.3.13-.43c.01-.03.04-.06.06-.04l.47.05-.14-.43c-.01-.03 0-.07.03-.07l.42-.2-.34-.3c-.03-.02-.03-.06-.01-.09l.24-.4-.45-.06c-.02 0-.05-.03-.05-.07l-.02-.46-.4.19c-.03.01-.07 0-.09-.03l-.26-.4-.24.39c-.01.03-.06.04-.08.03l-.43-.2v.45c0 .03-.02.06-.05.07l-.46.07.24.38c.02.03.02.06-.01.08l-.36.32.41.19c.03.01.04.04.04.07l-.12.45.45-.07c.03 0 .06.01.07.04l.14.45.34-.3c.05.02.06.01.08.01z" /><path d="M35.64 14.08l-.22.35-.4-.17v.42l-.42.07.23.35-.33.29.39.17-.11.41.4-.05.14.4.32-.28.32.29.13-.41.42.05-.12-.4.4-.18-.34-.28.24-.36-.43-.06v-.43l-.38.17-.24-.35z" fill="#FAAA42" /><path d="M35.96 16.38l-.04-.01-.28-.25-.28.25-.05.01c-.03 0-.04-.03-.04-.04l-.11-.36-.37.06c-.03 0-.04 0-.05-.03-.02-.01-.02-.04-.02-.05l.1-.37-.34-.15a.19.19 0 0 1-.04-.05v-.06l.3-.24-.2-.32c-.02-.01-.02-.04 0-.05 0-.02.02-.03.03-.04l.37-.06v-.36c0-.03.01-.05.03-.06a.04.04 0 0 1 .05 0l.34.15.2-.31c0-.02.02-.03.05-.03.03 0 .04.01.05.03l.2.31.33-.15a.04.04 0 0 1 .06 0c.01.01.03.03.03.06v.38l.36.05c.03 0 .05.01.06.04v.06l-.2.31.27.24a.1.1 0 0 1 .02.06c0 .01 0 .04-.04.05l-.34.17.11.35-.01.06a.1.1 0 0 1-.06.02l-.36-.04-.11.36c0 .02-.03.04-.04.04.04-.03.04-.03.02-.03zm-.32-.4l.04.02.26.22.1-.32c0-.02.03-.05.06-.04l.33.04-.1-.31c-.01-.03 0-.07.03-.07l.3-.15-.25-.22c-.02 0-.02-.05-.01-.08l.18-.28-.33-.04c-.03 0-.06-.03-.06-.07v-.33l-.3.14c-.02.01-.06 0-.08-.03l-.19-.27-.18.27c0 .03-.05.04-.08.03l-.3-.14v.33c0 .02-.02.05-.05.07l-.33.05.18.27c.01.03.01.06-.02.08l-.24.22.3.14c.03.01.04.04.04.07l-.1.32.33-.04c.03 0 .06.02.07.04l.1.32.24-.22.06-.02z" /><path d="M33.28 12.28l-.18.26-.29-.12v.3l-.32.06.17.26-.24.22.28.12-.08.32.32-.04.1.3.22-.2.26.2.08-.3.33.04-.1-.3.3-.14-.24-.2.16-.28-.31-.05v-.31l-.29.12-.17-.26z" fill="#FAAA42" /><path d="M33.52 14.02l-.04-.01-.2-.18-.2.18-.05.01c-.03 0-.04-.02-.04-.04l-.08-.26-.26.04c-.03 0-.04 0-.05-.02-.02-.02-.02-.04-.02-.06l.07-.26-.23-.1-.04-.06.01-.05.2-.18-.15-.22a.04.04 0 0 1 0-.05l.05-.04.25-.04v-.26c0-.03.02-.04.03-.06h.06l.24.11.14-.22.05-.02c.03 0 .04 0 .06.02l.15.22.23-.1a.04.04 0 0 1 .05 0c.02 0 .03.02.03.05v.27l.26.04c.03 0 .04.01.05.04.02.03.02.04 0 .06l-.13.23.2.17a.1.1 0 0 1 .03.06c0 .03-.01.04-.04.05l-.25.11.07.25-.01.05a.1.1 0 0 1-.06.03l-.27-.03-.07.25c0 .02-.02.04-.04.04.02-.02 0-.02 0-.02zm-.26-.32l.04.01.18.15.06-.2c0-.03.04-.06.06-.04l.22.02-.07-.2c-.01-.03 0-.07.03-.07l.2-.1-.16-.13c-.03-.02-.03-.06-.01-.08l.12-.2-.22-.02c-.02 0-.05-.03-.05-.07v-.23l-.2.1c-.03 0-.07 0-.09-.03l-.12-.2-.12.2c-.02.02-.06.04-.09.02l-.2-.1v.23c0 .02-.03.05-.05.07l-.22.04.12.17c.01.03.01.06-.01.08l-.17.15.2.1c.03.01.05.04.05.07l-.06.22.22-.03c.03 0 .06.01.07.04l.07.22.16-.15c.02-.04.03-.04.04-.04z" /><path d="M30.69 11.25l-.13.2-.23-.1v.25l-.24.04.13.2-.19.17.22.1-.05.24.23-.04.08.24.18-.16.19.16.07-.24.24.04-.07-.23.23-.11-.19-.17.14-.2-.25-.04v-.25l-.21.1-.15-.2z" fill="#FAAA42" /><path d="M30.5 12.6c-.03 0-.05-.02-.05-.03l-.05-.2-.2.03c-.02 0-.03 0-.05-.02-.02 0-.02-.03-.02-.06l.05-.19-.18-.08-.04-.06c0-.02 0-.04.02-.05l.15-.14-.1-.13a.04.04 0 0 1 0-.06l.04-.04.2-.03v-.19c0-.02 0-.04.02-.05h.06l.17.08.1-.16c.01-.02.03-.03.05-.03.03 0 .04.01.06.03l.1.16.18-.08a.04.04 0 0 1 .06 0c.01.01.03.03.03.05v.2l.19.02c.02 0 .04.02.05.04v.06l-.1.16.14.12a.1.1 0 0 1 .03.06c0 .01-.01.04-.04.05l-.18.08.06.18c0 .02 0 .04-.02.06a.1.1 0 0 1-.05.02l-.2-.02-.05.17c0 .03-.03.04-.04.04l-.05-.01-.15-.12-.14.12c-.01.03-.03.03-.04.03zm.19-.28l.04.02.12.09.04-.14c.01-.02.04-.05.07-.04l.15.02-.04-.14c-.02-.03 0-.07.03-.07l.13-.07-.1-.1c-.03 0-.03-.05-.02-.07l.08-.13-.15-.02c-.03 0-.05-.03-.05-.07v-.15l-.14.05c-.03.02-.07 0-.08-.02l-.08-.13-.09.13c0 .02-.05.04-.08.02l-.13-.05v.15c0 .03-.03.05-.06.07l-.15.02.08.13c.02.02.02.05-.01.08l-.1.1.13.05c.02.01.04.04.04.07l-.04.15.15-.03c.02 0 .05.01.07.04l.04.15.1-.1h.05z" /><path d="M28.05 11.05l.11.17.18-.08v.19l.2.02-.12.17.15.13-.18.07.06.2-.2-.04-.05.2-.15-.13-.15.13-.05-.18-.2.01.06-.18-.17-.08.15-.13-.11-.17.19-.02v-.2l.17.09.11-.17z" fill="#FAAA42" /><path d="M28.2 12.14l-.04-.01-.1-.1-.11.1-.06.01c-.01 0-.04-.02-.04-.04l-.04-.13-.14.01c-.02 0-.04 0-.05-.03-.02-.01-.02-.04-.02-.05l.05-.14-.13-.07a.19.19 0 0 1-.04-.05c0-.03 0-.04.03-.05l.1-.1-.09-.1a.04.04 0 0 1 0-.05l.06-.04.13-.01v-.14c0-.03.02-.04.03-.05a.04.04 0 0 1 .06 0l.12.05.08-.12c.01-.02.03-.03.05-.03.03 0 .05.01.06.03l.07.12.13-.05c.02-.02.04 0 .06 0 .01 0 .03.02.03.05v.14l.13.02c.03 0 .04.02.04.04.02.02.02.04 0 .06l-.08.12.11.1c.01.01.03.04.01.05 0 .03-.01.04-.04.06l-.12.05.04.14-.01.05a.1.1 0 0 1-.06.03l-.13-.02-.04.14c0 .01-.03.04-.05.04.02-.03 0-.03 0-.03zm-.35-.3c.03 0 .05 0 .05.03l.03.1.08-.07a.09.09 0 0 1 .09 0l.06.07.03-.1c.01-.03.04-.05.07-.04l.1.01-.03-.1c-.02-.02 0-.06.04-.06l.08-.04-.07-.07c-.03-.03-.03-.05-.01-.08l.05-.08-.1-.02c-.02 0-.05-.02-.05-.06v-.1l-.1.04a.07.07 0 0 1-.07-.02l-.06-.09-.05.09c-.02.02-.06.04-.09.02l-.08-.04v.1c0 .02-.02.05-.05.06l-.1.02.06.08c.01.03.01.05-.02.08l-.06.07.1.04c.02.01.03.04.02.07l-.03.1.11-.02z" /><path d="M37.82 32.82s.07.57-.04.74c-.11.16-.33.17-.5.16-.16-.01-.51-.3-.51-.3s-.4.05-.4.03c0-.03-.31-.04-.52-.14-.19-.1-.4-.14-.4-.16.02-.03-.25.13-.43.1-.18 0-.49-.14-.48-.17.02-.03-.32-.16-.32-.16l-.43-.06-.23-.18-.22.04-.21-.02h-.02l.03-.17.14-.16.23-.01h.05l.04-.33s.2-.22.2-.2c.02.05.16.02.16.02l.52.08s.27.07.34.02c.07-.06.24-.2.13-.46-.1-.28-.34-.93-.32-1.26.01-.31.2-.82.2-.82l.2-.24s-.34-.04-.55.07c-.22.12-.73.5-.82.57-.1.05-.26.38-.37.4l-.51.2s-.17-.66-.44-.8c-.28-.15-.7-.66-.89-.66-.2.02-.07-.27 0-.33.08-.05.48-.21.48-.21l.4-.03.27.01.24.11s.07.12.12.15c.06.03.13.12.13.12s.04.09.1.07c.05-.01.1-.02.13-.04l.1-.15c.05-.04.12-.13.14-.16l.17-.2.24-.17.2-.03-.14-.27-.29-.27s-.25-.04-.23-.06c0-.02-.34-.02-.36-.02l-.15.01-.28-.27s-.08-.5-.11-.48c0 0-.04.02-.1.02l-.01-.06-.07-.14h-.37l-.42-.2-.15-.24-.2-.05-.15-.25-.02-.88-.2-.24.19-.42.57-.67.42-.8.3-.41-.01-.25.15-.3.15.06.2.23.02.24-.03.2.14.2-.07.4-.22.44-.16.2-.18.18-.26.22-.22.15.2.72.28-.01.2.03-.02-.23.22-.22.19-.04-.03-.28.48-.16-.02-.27.3-.33-.07-.12-.15-.15s-.13-.23-.13-.33.07-.22.08-.24l.35-.32.28-.1c.05 0 .13-.4.2-.6.07-.22.5-.5.8-.52l.77-.07.75.02.2-.29s.32.02.32 0 .22 0 .24.03c.03.03.07.14.09.16 0 .02.16.17.16.17l.63-.02s.24.1.34.26c.1.15.07.36.08.36v.1s.38.2.42.47c.03.27-.16.54-.16.54s.16.17.1.37c-.06.2-.25.45-.25.45s.1.38.03.6a.56.56 0 0 1-.32.32l-.13.03s-.06.37-.15.45c-.1.08-.32.16-.32.16l-.12.06s-.03.45-.12.6c-.1.17-.12.12-.12.12s.1 0 .12.15c.02.15 0 .34 0 .34s.35.07.44.14c.08.07.12.03.12.03s-.24-.27-.09-.58c.15-.31.73-.57.73-.56 0 .03.1-.05.1-.05v-.37l.14-.2s.12-.12.17-.06c0 .03.13-.07.17-.06.04.01.12.15.08.2l.1-.14.08-.14.12-.01.22-.04.12.1a6.49 6.49 0 0 0 .22.74s0 .18.02.18l.02.08h.16l.19.07s.02.23 0 .23c-.03 0-.16.34-.16.34s-.08.17-.09.14l.06.1.14.22s.03.26.05.26c.02 0-.07.28-.07.28l-.04.17v.06s.21-.11.23-.1c0 .02.25-.04.25-.04l.12.08c.03.03.17.14.2.33.05.2-.03.34-.05.33-.01-.02-.2.15-.2.13V28.84c-.02.14-.1.25-.16.26-.05.02-.24.06-.26 0-.02-.07-.02-.07-.05-.1l-.11-.2c-.02-.03-.03-.05-.12-.05-.1 0-.32.07-.32.1l-.07.14c-.05.08-.1.14-.1.18 0 .04.06.13.02.16-.04.04.06.56-.02.95-.1.4-.6.77-.8.82l-.81.32s-.14.32-.15.45c0 .12.05.62.01.73.01.03-.42.22-.42.22z" fill="#FAAA42" /><path d="M31.5 29a1.34 1.34 0 0 1 .72.19c.2.1.36.25.49.43.1.12.16.26.22.41a1.5 1.5 0 1 1-2.93.47c0-.83.67-1.5 1.5-1.5z" fill="#FAAA42" /><path d="M31.51 32A1.5 1.5 0 0 1 30 30.5a1.5 1.5 0 0 1 2.93-.46c.05.15.07.3.07.46.02.83-.65 1.5-1.49 1.5zm0-2.88c-.78 0-1.4.63-1.4 1.4a1.4 1.4 0 0 0 2.8 0 1.34 1.34 0 0 0-.27-.83c-.13-.16-.28-.3-.45-.4-.15-.08-.3-.13-.46-.16h-.22zM35.53 27.44l-.03-.01c-.03-.02-.04-.06-.03-.09.02-.08-.34-.36-.5-.47-.17-.14-.28-.2-.3-.26-.2-.38-.15-.63.22-.85.15-.1.4 0 .53.14l.08.11a.5.5 0 0 1 .4-.25h.02c.2 0 .42.14.5.36.1.23.03.49-.18.72l-.22.18c-.14.1-.26.19-.38.37-.02 0-.03.02-.05.04l-.06.01zm-.48-1.58l-.08.01c-.3.18-.36.36-.18.67.01.03.15.14.26.22.24.19.44.34.52.48.12-.17.26-.26.38-.34.07-.06.15-.11.2-.17.25-.24.2-.46.17-.57a.44.44 0 0 0-.4-.27c-.16 0-.28.1-.37.3-.01.02-.02.04-.05.04-.03 0-.06-.02-.06-.04l-.02-.08c0-.03 0-.05-.08-.13a.45.45 0 0 0-.3-.12zM39.93 28.15a.7.7 0 0 1-.54-.25c-.2-.23-.26-.57-.25-.68.01-.13.1-.37.48-.42.19-.03.35.08.43.2.09.13.11.26.06.36-.1.19-.3.19-.38.15-.03-.02-.06-.04-.04-.08 0-.03.04-.06.08-.04.01 0 .17.04.24-.1.03-.05.02-.15-.04-.23-.07-.08-.18-.16-.31-.15-.22.04-.34.13-.37.31-.01.08.04.38.22.59.12.13.27.2.45.2.49 0 .73-.27.73-.8 0-.2-.1-.4-.25-.53-.24-.2-.58-.26-.97-.18-.03 0-.07-.01-.07-.05 0-.05.01-.07.05-.07.44-.08.82 0 1.08.2.2.17.3.4.3.63-.04.61-.35.94-.9.94z" /><path d="M40.44 26.7c-.02 0-.03 0-.05-.02-.04-.04-.01-.08.03-.13.06-.06.2-.23.23-.39.04-.16 0-.25-.01-.27l-.04-.03h-.18l-.05-.01-.03-.04c0-.24-.07-.86-.31-1.01-.07-.04-.14-.06-.2-.03-.12.04-.19.2-.21.25-.02.02-.06.05-.08.04-.03-.02-.06-.06-.05-.09 0 0 .1-.24.3-.3a.4.4 0 0 1 .3.03c.3.2.36.83.37 1.05l.15.01c.06.02.1.05.13.09.05.08.06.21.02.36-.04.15-.15.3-.22.4a.1.1 0 0 1-.02.05l-.09.03zM41.21 28.4h-.04c-.14 0-.26-.13-.31-.22-.02-.03-.02-.07.01-.09.03 0 .07 0 .08.02.06.1.15.16.23.18.06 0 .1-.02.14-.05.12-.1.08-.38-.03-.51-.15-.18-.28-.14-.46-.07l-.1.04c-.04.01-.08-.01-.09-.04-.01-.03.01-.07.04-.08a.25.25 0 0 1 .1-.03c.17-.07.4-.14.6.1.15.2.19.54 0 .7a.34.34 0 0 1-.17.06z" /><path d="M39.7 29.35c-.2 0-.52-.07-.67-.18-.05-.04-.1-.08-.1-.12 0-.04.02-.07.06-.07.03 0 .07.01.07.05 0 0 0 .02.05.06.17.1.55.16.66.15.23-.06.31-.2.38-.34.04-.08.08-.15.14-.18.1-.07.17-.08.25-.07.1.03.14.11.18.2.06.13.11.22.27.21.06-.05.24-.23.07-.7-.01-.02 0-.06.04-.08.03 0 .07 0 .09.05.13.35.09.64-.1.83l-.06.04c-.27.04-.36-.15-.43-.28-.03-.06-.07-.12-.1-.13-.02-.02-.08.01-.15.05l-.1.14c-.07.14-.17.34-.46.4-.04-.03-.06-.03-.1-.03zM38.9 28.16c-.02 0-.02 0 0 0-.05 0-.07-.04-.07-.07l.02-.1c.04-.07.06-.13-.1-.22-.05-.04-.13-.03-.17-.02-.04.03-.08.06-.08.1l-.01.18v.06c0 .05-.03.07-.07.07-.04 0-.07-.02-.07-.07v-.06l.01-.2a.26.26 0 0 1 .15-.2c.1-.04.22-.04.3.01.23.15.18.3.14.4-.01.03-.01.05-.03.07.03.03 0 .05-.03.05zM38.85 28.56a.4.4 0 0 1-.12-.03c-.03-.01-.05-.04-.04-.08.01-.03.05-.06.08-.04.11.04.23 0 .36-.08.15-.11.24-.3.24-.43 0-.04.03-.07.06-.07.02 0 .06.03.06.06.02.18-.1.38-.28.52a.6.6 0 0 1-.36.15z" /><path d="M37.89 28.1c-.05 0-.07-.03-.07-.07 0-.14.02-.45.15-.56.35-.29.68-.4.95-.33.2.05.32.2.37.3.01.03 0 .07-.03.08-.02.02-.07 0-.08-.03a.42.42 0 0 0-.29-.21c-.23-.06-.51.04-.84.3-.06.04-.1.23-.1.45 0 .04-.02.06-.06.06z" /><path d="M38.53 30.35a.1.1 0 0 1-.06-.02c-.01-.03-.01-.07.02-.08.3-.22.47-.59.45-1.01-.03-.42-.24-.82-.54-.98-.3-.17-.5-.2-.79.01l-.08.06-.07.05-.05.05c-.23.25-.18.36-.06.62l.04.08c.06.12.17.19.3.2.17.02.36-.08.45-.23.05-.05.02-.24 0-.28-.13-.13-.27-.15-.47-.07-.03.01-.07 0-.08-.04-.02-.03 0-.07.04-.09.24-.1.43-.06.6.1.06.07.1.33.02.45-.13.19-.36.3-.58.29a.47.47 0 0 1-.4-.28l-.04-.08c-.12-.26-.2-.43.08-.75l.06-.05c.04-.04.04-.06.08-.08l.08-.06c.34-.26.6-.2.93-.03.34.18.57.62.6 1.1.03.47-.17.87-.5 1.11l-.03.01z" /><path d="M37.4 33.77a.65.65 0 0 1-.3-.05c-.03-.03-.06-.03-.07-.04l-.15-.12c-.1-.11-.75-.58-.86-.59h-.15l-.3.01-.06-.02a.04.04 0 0 1 0-.06l.04-.15c.06-.18.11-.4.47-.4H36.43c.28-.27.28-.3.28-.69l-.01-.19v-.23c.03-.1.35-.14.42-.14.14-.01.22-.02.3-.05l.2-.04c.33-.04.74-.3.81-.64a.78.78 0 0 0-.2-.6.91.91 0 0 0-.5-.3c-.3-.01-.47.03-.66.26-.22.26-.15.49-.02.61s.34.18.5.04c.09-.08.14-.18.13-.27 0-.1-.07-.2-.18-.29a.08.08 0 0 1-.01-.1.08.08 0 0 1 .1 0c.13.1.21.24.21.38a.5.5 0 0 1-.17.36c-.2.2-.5.13-.67-.04-.18-.17-.25-.49.01-.79.23-.27.45-.31.77-.3.15 0 .4.13.58.34.12.14.27.38.23.7-.08.4-.53.7-.92.75l-.18.04c-.08.03-.18.04-.33.05a.9.9 0 0 0-.31.07l.01.18.02.2c0 .42-.02.48-.35.78-.02.03-.02.03-.32.01h-.14c-.26.02-.3.15-.35.33l-.02.07c.06 0 .14 0 .2-.02l.14-.01c.18 0 .89.54.96.63.05.05.08.08.12.1.03 0 .06.02.08.05.06.04.23.04.34.02h.1l.14-.16c.1-.12.02-.57 0-.68 0-.03 0-.04.02-.07l.13-.07c.1-.05.36-.17.35-.27-.05-.3-.07-.52-.03-.78 0-.04.03-.1.04-.13v-.02l.02-.04.01-.01c.04-.03.12-.05.29-.1.3-.1.82-.28 1.07-.58.43-.48.37-.95.26-1.54 0-.04.02-.07.06-.07.03 0 .07.02.07.06.12.6.17 1.13-.29 1.64-.29.33-.82.5-1.13.6l-.23.09-.02.02-.04.11c-.04.25-.03.45.03.74.04.19-.25.32-.42.4-.03.02-.04.03-.07.03.04.18.1.6-.04.75l-.15.18-.02.01c-.01.02-.02.03-.05.02h-.11c-.01.02-.04.02-.08.02z" /><path d="M36.71 33.49c-.53 0-.72-.04-1.21-.33-.01-.01-.04-.03-.04-.08 0-.07.04-.16.1-.2.02-.03.06-.02.08 0 .02.04 0 .08-.02.09-.01.01-.04.05-.04.08.5.29.64.3 1.26.3.04 0 .06.03.06.07 0 .04-.02.07-.06.07h-.13zM36.63 32.52a.55.55 0 0 1-.2-.04c-.03-.01-.04-.06-.03-.08.01-.03.05-.04.08-.03.12.05.25.04.36-.03a.8.8 0 0 0 .3-.6l-.03-.32c-.03-.26-.03-.26-.02-.29.02-.03.06-.04.09-.03.02.02.02.04.02.06l.03.23.04.34c0 .23-.13.56-.37.7-.1.06-.19.09-.27.09zM34.84 32.59c-.13 0-.27-.07-.38-.12-.13-.07-.26-.13-.37-.09-.36.15-.5 0-.54-.06-.07-.13-.03-.32.1-.41.23-.2.54-.13.8-.07.16.04.33.07.4.03a.2.2 0 0 0 .06-.11c.03-.25-.04-.42-.1-.63-.1-.27-.22-.58-.18-1.14.04-.5.56-1.12 1.13-1.12.18 0 .3.01.38.03.15.02.15.02.2-.15.03-.07.11-.11.28-.13 0 0 .46 0 .5.07 0 .02.17.23.2.26.02.03 0 .07-.02.08-.03.03-.07.02-.08-.01l-.18-.25c-.1-.02-.52-.04-.56.02-.1.23-.14.26-.34.22-.08-.02-.2-.03-.37-.03-.52 0-.97.54-1 1-.05.54.06.82.16 1.1.08.21.15.42.12.7-.01.09-.04.15-.11.2-.12.08-.3.04-.5 0-.25-.06-.52-.11-.7.04-.08.06-.1.17-.07.26.06.08.2.08.4 0 .16-.06.31.02.46.09.22.1.42.2.67-.1.1-.12.1-.4.08-.66-.01-.34-.03-.71.18-.9.1-.1.24-.14.42-.14.16.02.29.11.34.26.07.16.03.36-.08.46-.07.06-.2.14-.46.03-.06-.03-.13-.1-.14-.16-.01-.03.01-.07.04-.08.04-.02.07.01.08.04 0 .02.04.07.07.08.14.07.25.05.33 0 .07-.07.1-.2.05-.33a.24.24 0 0 0-.23-.17c-.15-.02-.26.02-.33.1-.16.14-.15.48-.13.8.01.3.01.6-.13.76-.16.16-.3.23-.45.23z" /><path d="M35.08 33.28a.8.8 0 0 1-.44-.15c-.15-.1-.33-.19-.64-.2-.07 0-.31-.07-.4-.2l-.04.02c-.19.07-.35.04-.43-.04-.06-.05-.06-.14-.03-.2.05-.13.23-.23.56-.22.03 0 .04.01.05.04.04.1.06.15.02.2-.02.02-.03.03-.03.15.01.04.2.14.3.14.34.01.54.14.7.22.21.12.36.22.79.01.02-.01.06 0 .08.03.01.03 0 .07-.03.08-.2.1-.34.12-.46.12zm-1.48-.88c-.21 0-.35.08-.4.15v.07c.04.04.13.05.3 0h.06c0-.11.03-.15.06-.18 0-.02 0-.03-.02-.04zM36.59 28.75c-.03 0-.05-.03-.07-.06 0-.07.03-.12.06-.15l.02-.02c.04-.14.24-.28.44-.43.1-.08.22-.16.26-.21.1-.13.1-.24.07-.34a.29.29 0 0 0-.2-.15.24.24 0 0 0-.2.1c-.13.2-.3.33-.45.44-.18.14-.33.25-.38.46-.01.03-.04.06-.08.04-.03 0-.06-.04-.04-.08.07-.26.24-.4.42-.53.15-.1.3-.23.42-.42.07-.11.18-.16.3-.16.14 0 .25.1.32.21.06.14.02.32-.09.47-.05.06-.16.15-.28.24-.15.11-.36.26-.38.36l-.04.06c-.03.03-.03.04-.03.06 0 .08-.03.1-.07.1z" /><path d="M36.11 27.71c-.02 0-.05-.01-.05-.04-.02-.03.01-.07.04-.08.03-.01.1-.12.18-.2.2-.22.34-.39.45-.37.28.01.32.07.32.26v.1c0 .05-.02.07-.05.07-.04 0-.07-.02-.07-.05v-.12c0-.11 0-.13-.2-.13-.07 0-.26.24-.36.34-.13.17-.19.22-.24.24 0-.02 0-.02-.02-.02z" /><path d="M36.15 28c-.02 0-.05 0-.08-.03-.1-.1-.1-.45-.07-.97v-.1c0-.05.03-.07.07-.07.04 0 .07.02.07.07v.1c-.04.64 0 .82.03.86.02 0 .05.03.05.06 0 .04-.03.06-.07.08zM38.3 27.4c-.03 0-.06-.01-.06-.04v-.03l-.05-.31a.5.5 0 0 0-.25-.32.45.45 0 0 0-.37-.04c-.1.03-.46.03-.88.02-.14 0-.3-.02-.32 0-.03.01-.05 0-.07-.03a.07.07 0 0 1 .03-.08c.03-.02.03-.02.37 0 .29.01.75.03.84 0a.56.56 0 0 1 .47.04.6.6 0 0 1 .31.4l.06.3v.04c0 .02-.02.06-.04.06l-.05-.01z" /><path d="M37.65 26.65c-.02 0-.05-.03-.06-.05v-.2-.16c0-.03 0-.07-.03-.1-.03-.02-.08 0-.15 0h-.18c-.19-.03-.7-.05-.9-.03-.04 0-.07-.03-.07-.06 0-.04.03-.07.06-.07.19-.02.72-.01.92.03h.15c.09 0 .18-.01.25.04.04.04.07.1.07.18V26.57c.01.04-.02.08-.06.08zM36.24 28.18a.1.1 0 0 1-.06-.03l-.03-.06c0-.02-.02-.1-.04-.1-.02-.02-.04-.06-.02-.09 0-.02.05-.04.08-.02.07.02.08.1.1.19v.02c.02.03 0 .06 0 .09h-.03zM36 28.95c-.01 0-.01 0 0 0-.04-.01-.06-.04-.06-.08 0-.07.08-.46.08-.49 0-.03.04-.05.07-.05.02 0 .05.02.05.06 0 .03-.08.48-.1.5.02.05 0 .06-.04.06zM34.23 28.14c-.03 0-.04-.02-.05-.05a1 1 0 0 0-.54-.57 1.49 1.49 0 0 0-.49-.01c-.02.01-.06 0-.08-.03-.01-.03 0-.07.03-.08.08-.06.52-.03.6.01.27.11.46.32.6.63.01.03 0 .07-.03.08l-.04.02z" /><path d="M33.67 27.54c-.03 0-.05-.03-.07-.06 0-.01 0-.04.02-.05v-.36c-.03-.42-.03-.7.08-.79.03-.03.07-.01.08.02.03.02.01.06-.01.08-.06.05-.04.47-.03.68.03.35.03.46-.07.48z" /><path d="M34.03 26.4c-.36 0-.39 0-.63-.13l-.2-.1c-.16-.06-.18-.1-.21-.17l-.01-.02-.11-.07c-.15-.08-.33-.17-.34-.3 0-.05.02-.08.05-.08.03 0 .07.03.07.06 0 .07.19.16.27.22.08.04.12.06.15.1.03.02.03.05.04.06 0 .01.02.04.14.1l.2.09c.24.12.24.12.62.12h.07c.06 0 .15-.02.21-.05.09-.03.17-.06.25-.06h.03c.04 0 .06.03.06.07 0 .04-.02.07-.06.07h-.03c-.07 0-.14.03-.22.04-.08.03-.16.06-.26.06h-.07-.02z" /><path d="M32.69 27.1c-.04 0-.07-.03-.07-.07 0-.14-.05-.23-.1-.34a.77.77 0 0 1-.13-.5.1.1 0 0 1 .03-.07c.01-.03.02-.06.02-.16 0-.3 0-.6.15-.9v-.03c0-.03.02-.06.05-.06.02 0 .05 0 .06.02.36.37 1.7.87 2.2.75h.01c.03-.02.07-.02.08.01.02.03.02.07 0 .08l-.02.02-.02.01c-.5.12-1.78-.33-2.25-.7-.12.26-.12.5-.12.8 0 .14-.01.2-.04.24l-.01.01c-.02.2.04.32.1.44.07.1.13.23.13.4 0 .02-.03.05-.07.05z" /><path d="M32.38 26.64a.82.82 0 0 1-.29-.06c-.23-.08-.49-.23-.57-.4-.06-.12.48-1 .61-1.15.04-.06.08-.1.14-.08.07.01.28.04.35.01.02-.01.03-.03.06-.03.04 0 .05.03.05.07 0 .03-.01.06-.04.07-.08.05-.35.03-.45.01-.12.1-.59.92-.61 1.07.05.1.27.24.49.3.16.06.3.08.37.04.02-.02.06 0 .08.02.01.03 0 .07-.03.09-.04.04-.1.04-.16.04z" /><path d="M32.64 25.08l-.06-.01c-.01-.01-.03-.04-.01-.07 0-.23.01-.27.1-.34a.18.18 0 0 0 .09-.07c.07-.05.16-.06.22-.08a.5.5 0 0 0-.03-.16c-.01-.11 0-.15.1-.18l.19-.05.17-.06-.01-.19c0-.12.12-.2.22-.27.04-.03.12-.08.12-.11 0 0 0-.03-.07-.05-.12-.07-.13-.1-.16-.14l-.03-.06a.61.61 0 0 1-.1-.24c0-.03 0-.05-.02-.08s.01-.07.04-.08c.03-.02.07.01.08.04l.03.08c.01.07.04.13.08.2l.04.08c.01.03.01.05.11.09.05.02.14.08.14.16 0 .1-.09.15-.18.22-.07.05-.16.1-.16.17v.2c0 .02.02.05 0 .08-.03.02-.06.02-.07.02-.03 0-.08 0-.18.05l-.2.06h-.02v.03c.02.04.02.11.03.22 0 .07-.07.08-.11.08-.04 0-.12.01-.15.05-.04.05-.08.06-.1.07-.04.03-.05.03-.05.2.01 0 .03.02.04.05 0 .04-.01.07-.05.07h-.02l-.02.02zM36.55 23.15c-.03 0-.04-.01-.06-.04v-.02c-.05-.21-.3-.32-.7-.34h-.4c-.27.02-.48.02-.82-.1-.22-.09-.23-.2-.24-.3 0-.03 0-.05-.02-.07-.01-.03.02-.07.04-.08.03-.02.07.01.09.04v.08c.02.08.02.13.17.19.33.1.52.1.78.1.12 0 .25-.02.4 0 .49 0 .76.16.84.42.01.02 0 .06-.03.08l-.05.04z" /><path d="M35.49 22.78c-.05 0-.07-.01-.1-.07-.01-.02 0-.06.03-.08.02-.01.07 0 .08.03l.03-.01.06-.02c.06-.01.17-.19.17-.26-.36 0-.68-.1-1.01-.2l-.06-.01H34.57c-.04-.02-.05-.05-.05-.07.01-.04.04-.06.07-.06h.13l.06.02c.34.1.65.19 1 .19.05 0 .09.04.1.1.01.12-.14.37-.26.4-.03 0-.04.02-.05.02a.15.15 0 0 1-.08.02z" /><path d="M35.06 22.71c-.04 0-.07-.02-.07-.06v-.04c0-.22 0-.36.06-.41.03-.02.05-.03.1-.02.02.02.05.04.04.08-.02.03-.03.05-.06.05a.85.85 0 0 0 0 .28v.06c0 .04-.03.06-.07.06zM36.89 23.16l-.18-.01h-.17c-.05 0-.07-.03-.06-.07 0-.04.03-.07.07-.05h.19c.18.02.2.01.3-.02l.16-.04c.11-.02.41-.45.41-.56 0-.1 0-.25-.05-.3-.04-.02-.12-.02-.27.03-.03.02-.07-.01-.09-.04-.01-.03.02-.07.04-.08.2-.07.32-.07.39 0 .1.07.1.2.1.4 0 .16-.34.63-.5.67l-.15.05-.19.02z" /><path d="M37.82 22.5H37.67c-.02 0-.04 0-.06-.02a.07.07 0 0 1 0-.1h.23c.17-.06.18-.3.17-.43a.39.39 0 0 0-.15-.26.6.6 0 0 0-.47-.05c-.02.01-.06-.02-.08-.04-.01-.03.02-.07.04-.08a.7.7 0 0 1 .58.06c.12.09.19.2.21.34.03.22-.02.5-.25.56-.02.02-.03.02-.07.02z" /><path d="M38.14 23.24h-.1H38c-.04 0-.06-.04-.06-.08s.02-.07.06-.07c.02 0 .05 0 .07.02h.11c.15-.04.22-.11.22-.23-.01-.2-.22-.44-.4-.47-.05 0-.06-.04-.06-.06 0-.03.04-.06.06-.06.25.04.5.33.52.59.02.17-.1.31-.31.35l-.06.01zM37.65 23.08c-.02 0-.05-.03-.06-.05-.02-.1.12-.3.15-.33a.08.08 0 0 1 .1-.01c.02.02.02.06 0 .1a.7.7 0 0 0-.12.24c0 .01-.03.04-.07.05z" /><path d="M37.74 23.94c-.17 0-.28-.03-.35-.1-.06-.06-.1-.17-.1-.34 0-.05.06-.12.2-.21.03-.03.07-.02.08 0 .03.04.02.08-.01.1a.61.61 0 0 0-.14.11c0 .13.02.2.06.25.04.04.12.05.24.05.18 0 .33-.13.33-.32a.5.5 0 0 0-.2-.39c-.05-.02-.11-.05-.18-.02a.73.73 0 0 1-.34.01l-.13-.01c-.02 0-.06-.03-.06-.06 0-.04.02-.06.05-.06h.14c.1.02.2.04.28 0 .1-.05.2-.02.29.04.15.1.26.3.26.47.03.29-.17.48-.42.48z" /><path d="M37.4 23.5c-.02 0-.03-.01-.05-.04a.3.3 0 0 1-.04-.13c-.02-.1-.04-.13-.27-.2H37c-.03 0-.06-.04-.04-.08.01-.02.04-.05.08-.04h.04c.27.08.31.14.36.29 0 .03 0 .07.04.12.01.03 0 .07-.03.08h-.04zM34.86 25.93h-.02c-.02-.02-.05-.04-.04-.07l.18-.33c.06-.1.1-.17.12-.23.1-.2.14-.23.48-.23.06-.03.2-.35.26-.64.01-.05.2-.29.2-.29.14-.15.18-.24.24-.36.04-.07.06-.15.12-.24.08-.13.08-.24.08-.32l.01-.13c.02-.02.05-.05.09-.04.02.02.05.04.04.09v.08c0 .1 0 .22-.11.4-.06.07-.08.14-.12.21-.06.12-.11.23-.26.4-.03.02-.17.21-.18.24-.03.12-.18.74-.37.74-.29 0-.29 0-.35.16-.03.05-.07.14-.14.24l-.16.3-.07.02z" /><path d="M36.11 25.63c-.04 0-.07 0-.1-.02-.25-.04-.42-.17-.4-.36 0-.06.12-.28.28-.32.09-.01.2 0 .3.2.02.05 0 .09 0 .12-.05.07-.15.08-.19.1l.03-.04c-.01.03-.05.05-.08.02-.03-.01-.04-.06-.03-.08.02-.03.04-.03.07-.04l.08-.03v-.01c-.03-.06-.08-.13-.13-.13-.09.02-.2.17-.2.2 0 .14.14.22.28.24.16.03.37-.03.4-.15a.4.4 0 0 0-.16-.41c-.07-.05-.16-.05-.26-.07-.1-.01-.16-.01-.2-.07-.01-.01-.03-.04-.01-.08 0-.04.04-.05.06-.05.03 0 .06.02.06.05.03.02.07.02.1.02.12 0 .24 0 .33.1.17.13.25.33.2.54-.03.19-.22.27-.43.27zM35.28 25.89c-.04 0-.07-.03-.07-.07 0-.2.08-.31.29-.37.03-.01.07.01.08.04.01.03-.01.07-.04.08-.15.04-.2.11-.2.26 0 .03-.03.06-.06.06z" /><path d="M36.37 24.98c-.05 0-.12-.03-.15-.09l-.01-.01a.35.35 0 0 1-.04-.22c.01-.03.04-.05.08-.04.03.01.05.04.04.08-.01.06 0 .07.03.13h.01c.01.04.08.04.18-.02l.03-.01a.1.1 0 0 0 .05-.06.37.37 0 0 0-.03-.3l-.02-.04c-.13-.2-.14-.2-.37-.22-.04 0-.07-.02-.06-.06 0-.04.03-.06.07-.06.29.02.33.06.46.27l.03.05c.06.08.08.28.04.4-.02.1-.08.13-.12.14l-.01.01c-.06.02-.14.05-.2.05z" /><path d="M37.18 25.32c-.02 0-.02 0 0 0-.17 0-.28-.02-.34-.1-.06-.07-.09-.15-.07-.31 0-.09.12-.2.22-.22.05 0 .1.01.12.1.01.02-.02.06-.04.08-.03 0-.07-.02-.08-.05-.03.02-.1.09-.1.11 0 .13.01.2.04.22.03.03.1.04.23.06.2 0 .25-.1.25-.13.05-.17-.11-.49-.17-.53-.23-.17-.3-.15-.4-.1-.06 0-.13.03-.22.03-.04 0-.07-.02-.07-.05 0-.04.03-.07.05-.07.09 0 .14-.03.18-.04.15-.05.26-.07.52.14.1.08.3.43.22.68-.02.07-.11.18-.34.18z" /><path d="M37.4 24.62h-.02c-.15-.01-.24-.18-.24-.33 0-.13.08-.21.2-.21.04 0 .07.02.07.06 0 .04-.03.07-.07.07-.05 0-.08.03-.08.1 0 .1.05.2.12.2.12.02.2-.05.23-.19.04-.16-.01-.34-.05-.35-.04 0-.06-.03-.06-.07 0-.04.03-.06.07-.06.12.02.2.22.18.41.01.2-.12.37-.34.37zM36.82 24.32c-.08 0-.19-.04-.27-.22a.19.19 0 0 1 0-.12.12.12 0 0 1 .08-.08c.03-.01.07 0 .08.04.02.04 0 .07-.04.08l-.01.02v.02c.07.15.15.14.18.14.12-.01.23-.16.23-.22.01-.18-.06-.29-.22-.33-.2-.05-.44.04-.46.09 0 .04-.03.05-.06.06-.04 0-.07-.02-.07-.06 0-.05.02-.1.11-.14.15-.08.45-.12.66 0 .1.05.19.18.17.4-.01.13-.17.3-.34.34 0-.02-.01-.02-.04-.02z" /><path d="M37.08 23.78c-.03 0-.04-.02-.05-.04-.02-.03 0-.07.02-.09.04-.02.28-.08.3-.1.04 0 .07.02.07.06 0 .04-.01.07-.05.07l-.28.08c.02.02 0 .02 0 .02zM36.85 23.64l-.04-.01a.07.07 0 0 1 0-.1c.03-.03.03-.03.01-.05 0-.03-.01-.07.02-.14 0-.03.05-.05.08-.04.02.01.05.05.04.08-.02.03-.02.06-.02.08 0 .04 0 .1-.05.15 0 .03-.03.03-.04.03zM35.35 23.97c-.18 0-.42-.08-.68-.17-.22-.06-.44-.13-.56-.13h-.04c-.18.01-.28 0-.32-.03a.07.07 0 0 1 0-.1.07.07 0 0 1 .1 0c.03.02.18 0 .22 0h.05c.15 0 .37.07.6.14.29.1.7.22.77.12.08-.1.19-.26.16-.36a.32.32 0 0 0-.12-.17c-.15-.1-.63-.01-.88.03l-.1.01c-.13.02-.35.02-.55.02l-.4.01c-.02.01-.06-.01-.08-.04-.01-.03.02-.07.04-.08.06-.02.2-.02.44-.02l.53-.01.11-.01c.4-.07.78-.13.95 0 .1.06.17.15.18.24.03.17-.08.33-.19.48a.36.36 0 0 1-.23.07z" /><path d="M35.17 23.94h-.01c-.03-.01-.06-.04-.04-.08a.1.1 0 0 1 .02-.07l.02-.01c.07-.17.07-.33.07-.5v-.12c0-.04.02-.07.06-.07.05 0 .07.03.07.07v.11c0 .18.02.37-.08.56l-.01.03-.02.03c-.02.04-.05.05-.08.05zM34.57 23.7c-.03 0-.05-.02-.07-.06v-.04l.04-.33c0-.04.03-.07.07-.07.04 0 .07.03.07.07l-.04.36v.01c0 .04-.03.07-.07.07zM35.25 24.54h-.36c-.14 0-.26-.01-.36-.04a3.74 3.74 0 0 1-1.05-.3l-.03-.02c-.02 0-.04-.05-.01-.08.01-.02.05-.02.1-.01.38.16.68.27.76.27l.24.03c.11.01.22.03.35.03h.17c.2 0 .43.01.62-.06l.2-.05.01-.02c.03-.01.07-.01.09.02l.01.01v.06l-.04.04-.25.05c-.12.07-.28.07-.45.07zM35.21 25.29c-.01 0-.02 0-.02-.02l-.45-.05c-.33 0-1.6-.37-1.76-.6-.02-.03-.02-.07.01-.08.03-.02.07-.02.08.01a4.8 4.8 0 0 0 1.65.55s.48.02.53.08c.03.03.03.07 0 .1h-.04z" /><path d="M34.31 25.11c-.04 0-.07-.03-.07-.07 0-.1.07-.54.11-.6.02-.02.06-.04.09-.01.02.01.04.05 0 .08a2.9 2.9 0 0 0-.07.53c.01.03-.02.07-.06.07zM33.74 24.93c-.04 0-.07-.02-.07-.06v-.07c0-.2 0-.34.17-.55a.08.08 0 0 1 .1-.01c.02.03.02.07 0 .1-.13.17-.13.27-.13.47v.07c0 .03-.03.05-.07.05zM32.15 25.14c-.05 0-.07-.03-.07-.07 0-.12-.13-.63-.2-.67-.17-.05-.21-.16-.23-.24-.02-.25.25-.55.45-.67a.63.63 0 0 0 .26-.67c-.01-.07-.04-.1-.05-.1-.03 0-.11.06-.2.35-.1.34-.43.7-.7 1-.16.18-.34.39-.34.46 0 .1 0 .24.07.28.04.03.12 0 .23-.05l.03-.03c.02-.03.05-.03.08-.01.02 0 .04.05.01.08-.01.02-.05.05-.08.05-.15.08-.27.1-.36.06-.1-.07-.12-.24-.12-.4 0-.1.12-.26.37-.53.26-.29.57-.65.68-.97.1-.28.2-.42.32-.42.08 0 .15.07.17.2.06.21 0 .6-.31.8-.2.12-.41.38-.38.53 0 .02.01.1.15.13.16.06.27.74.27.8 0 .06-.03.09-.05.09z" /><path d="M31.57 26.24c-.02 0-.04-.01-.05-.03l-.02-.02c-.1 0-.17-.03-.23-.1-.2-.19-.17-.64-.15-.97l.02-.21c0-.04.02-.07.05-.07.04 0 .07.03.07.05l-.01.23c-.02.29-.05.73.1.88.05.04.11.05.18.05a.1.1 0 0 1 .07.03l.04.07c.01.02 0 .06-.03.08l-.04.01zM31.95 24.44l-.04-.01-.04-.04a.07.07 0 0 1 0-.1c.03-.02.06-.02.08-.01l.18-.14.08-.05c.2-.15.5-.45.62-.65.1-.18.23-.63.13-.8-.01-.02-.05-.06-.15-.05-.17.01-.26 0-.3-.05a.08.08 0 0 1-.01-.1l-.05.01c-.05.09-.13.24-.16.26a.07.07 0 0 1-.08-.02c-.01-.03-.01-.06.02-.09.02-.02.12-.2.13-.24l.04-.04c.13-.03.2-.03.24.01.02.04.01.08 0 .11h.17c.15-.01.23.06.26.11.17.25-.05.79-.12.91-.12.23-.44.53-.64.7l-.1.07-.19.13c-.01.07-.04.08-.07.08.02 0 0 0 0 0z" /><path d="M32.96 22.62h-.01c-.03-.01-.06-.04-.04-.08.04-.13 0-.4-.12-.5a.17.17 0 0 0-.2-.05c-.08.03-.08.08-.05.25.01.07.03.13.01.2-.01.03-.04.06-.06.06-.05-.02-.06-.04-.06-.07.02-.04 0-.1-.01-.15-.03-.12-.06-.33.15-.38a.32.32 0 0 1 .32.06c.17.17.2.48.15.63-.02 0-.05.03-.08.03zM33.13 27.52c-.14 0-.4-.23-.43-.3-.04-.08-.05-.1-.05-.15v-.04c-.01-.03.01-.07.04-.08.04-.01.07.01.08.04l.02.07.04.08c.02.05.26.23.31.23.03 0 .07.02.07.06.01.02-.02.06-.06.08l-.02.01zM31.75 29.05h-.1a.54.54 0 0 1-.3-.1c-.02-.04-.02-.06-.02-.09.01-.27.27-.4.46-.47a.59.59 0 0 0 .16-.06c.14-.07.35-.05.52-.03l.17.01c.21 0 .35.17.46.29.07.08.14.16.19.15.04 0 .08-.04.12-.11l.02-.02c.16-.24.43-.65.8-.6h.34c.23 0 .34-.2.4-.32.02-.07.02-.11.01-.12-.01-.02-.04-.02-.08-.02-.03 0-.07-.02-.07-.05 0-.03.03-.07.06-.07.1 0 .15.01.19.07.04.05.04.13 0 .24-.1.26-.29.41-.52.41l-.36-.01c-.28-.04-.53.33-.68.56l-.01.01c-.07.1-.15.16-.22.18-.12.01-.2-.1-.3-.2-.1-.1-.22-.24-.37-.24l-.17-.01a1.2 1.2 0 0 0-.46.01.79.79 0 0 1-.19.07c-.19.07-.35.17-.36.34a.4.4 0 0 0 .2.07h.1c.04 0 .06.03.06.07 0 .04-.02.04-.05.04zM34.61 28.82h-.05a.29.29 0 0 1-.23-.15.22.22 0 0 1 .01-.2c.08-.14.3-.21.35-.21h.02c.05.01.1.04.12.07.06.04.11.08.3.06h.01l.06-.01c.03.01.05.04.04.08-.01.06-.1.07-.1.07-.25.01-.34-.05-.4-.1-.03 0-.05-.02-.07-.04-.06.02-.2.07-.25.15a.09.09 0 0 0 0 .09c.03.04.08.06.14.06.05.02.1 0 .12-.01l.03-.01h.01c.03-.02.07 0 .08.04.02.02 0 .07-.04.08a.42.42 0 0 1-.15.03z" /><path d="M34.1 29.14c-.16 0-.32-.1-.32-.23 0-.4.2-.4.38-.4h.2c.02-.02.06 0 .08.03 0 .03-.02.07-.05.08-.08.03-.15.03-.23.03-.16 0-.26 0-.26.27 0 .06.1.11.18.11l.08-.02c.02-.02.03-.03.03-.06 0-.04.03-.07.07-.07.04 0 .07.03.07.07a.2.2 0 0 1-.09.17.5.5 0 0 1-.15.02zM33.06 30.34c-.04 0-.1-.01-.15-.08-.02-.03-.01-.07.02-.08.02-.03.06-.01.08.01.01.03.04.03.04.03.1 0 .44-.27.54-.4.07-.08.1-.13.15-.16.1-.05.2-.14.29-.2.23-.18.46-.37.76-.37h.04c.14-.02.26 0 .3.07.01.02.01.06-.03.08-.02.01-.06.01-.08-.03a.39.39 0 0 0-.18 0h-.04c-.26 0-.47.18-.68.34l-.3.22c-.01.01-.07.08-.1.14-.14.14-.5.43-.66.43zM32.9 29.7c-.02 0-.03-.01-.05-.03a1.9 1.9 0 0 0-.34-.36 1.02 1.02 0 0 0-.2-.11.07.07 0 0 1-.03-.08c.02-.03.06-.05.08-.03l.23.12c.2.18.3.27.37.4.02.02.02.06-.01.08l-.04.01z" /><path d="M33.29 29.52h-.04c-.12-.02-.22-.16-.29-.27l-.08-.1-.18-.17c-.1-.11-.16-.2-.3-.2-.3-.02-.34 0-.57.14.02.03 0 .07-.03.09-.02.02-.06.01-.1-.02 0-.02-.02-.05 0-.1 0-.05.02-.06.04-.06.27-.18.34-.2.66-.18.2.02.3.12.4.25l.15.15c.04.02.07.08.1.13.06.09.14.2.21.22l.06-.01c.07-.06.13-.08.19-.12a.77.77 0 0 0 .31-.3c.02-.02.06-.03.08-.02.03.02.04.06.03.08-.1.2-.23.26-.35.33l-.18.11a.12.12 0 0 1-.11.05zM38.85 27.24c-.04 0-.08 0-.1-.02-.24-.07-.84-.45-.69-1 .15-.55.7-.76.82-.76h.04c-.01-.13-.01-.42.07-.51.1-.14.26-.2.4-.15.25.07.49.4.51.7 0 .03-.02.06-.05.06-.04 0-.07-.03-.07-.05-.03-.25-.22-.52-.42-.59-.11-.03-.2 0-.27.1-.06.06-.06.32-.05.5v.05l-.05.03h-.1a.93.93 0 0 0-.72.65c-.12.47.4.8.6.86.08.03.25.02.4-.1.1-.06.2-.2.2-.43l-.01-.1c-.07-.24-.33-.35-.5-.33-.02 0-.13.01-.14.1-.03.2.17.25.2.25.03.01.06.04.06.07-.02.03-.04.05-.07.05-.12-.02-.33-.13-.3-.4.01-.1.12-.18.27-.2.25-.01.55.15.63.44l.01.12c0 .29-.13.45-.24.55-.15.06-.3.1-.43.1zM37.57 26.1c-.03 0-.04 0-.05-.02-.02-.03-.02-.07.01-.08.2-.13.22-.47.18-.73-.02-.06.05-.08.13-.1.17-.05.47-.13.47-.43v-.02c0-.11 0-.17.1-.18.05 0 .1-.01.23-.08.08-.04.13-.15.16-.29.01-.16-.03-.31-.11-.4-.01 0-.03-.03-.01-.06.01-.04.04-.04.06-.06.17-.17.2-.38.2-.51 0-.09 0-.14-.02-.15-.1-.06-.07-.1.08-.4.14-.26-.1-.53-.3-.64h-.01a.1.1 0 0 1-.05-.03c-.02-.01-.02-.04-.02-.05.04-.11 0-.27-.1-.42a.45.45 0 0 0-.27-.2c-.06 0-.12 0-.19-.02l-.27-.01h-.2c-.02 0-.03 0-.05-.02a1.77 1.77 0 0 1-.16-.19c-.1-.14-.12-.16-.46-.1-.06.02-.15.14-.2.2-.02.04-.03.05-.05.06-.01.02-.03.02-.04.02h-.03l-1.46.01c-.23 0-.43.18-.64.36-.1.08-.27.4-.27.53 0 .2-.1.24-.22.28-.08.03-.16.06-.23.15-.1.13-.15.17-.19.18-.03.01-.04.03-.1.29-.02.02-.05.05-.1.04-.02-.02-.05-.04-.03-.08.07-.3.08-.32.16-.36a.58.58 0 0 0 .17-.15c.1-.12.2-.16.28-.19.1-.03.14-.04.14-.16 0-.18.2-.53.31-.63.22-.2.45-.4.72-.4l1.45.03.03-.02c.07-.09.15-.22.26-.25.4-.08.45-.03.58.14a1 1 0 0 0 .13.15h.17l.29.01.19.01c.12 0 .27.1.37.26.08.13.15.3.12.47.3.16.52.49.36.81l-.13.25c.04.04.07.1.07.24 0 .17-.04.4-.24.6v-.05.05c.08.11.1.27.1.44-.04.18-.12.31-.23.38-.13.07-.2.08-.26.1v.08c0 .4-.4.5-.56.54l-.04.02c.04.3 0 .65-.24.8.03-.02.03-.02.01-.02z" /><path d="M36.78 22.36h-.05c-.2 0-.36 0-.56-.1-.08-.05-.07-.12-.06-.16 0-.04.02-.08-.1-.12l-.05-.02c-.4-.16-.4-.16-.7-.16h-.25s-.07.02-.33.27l-.03.03c-.1.1-.21.23-.38.23h-.05c-.02.02-.03.02-.04 0-.03-.01-.06-.04-.04-.08 0-.01 0-.05.15-.05.1 0 .2-.1.3-.2l.02-.02c.32-.31.4-.31.43-.31h.25c.32 0 .33 0 .75.17l.05.02c.19.08.2.17.19.25v.03c.17.08.3.08.5.1h.04a.7.7 0 0 0 .42-.2c.05-.03.1-.12.1-.18-.01-.28-.03-.48-.26-.52-.12-.02-.22.01-.27.08-.06.07-.06.16-.02.25.02.02.05.08.11.1.04 0 .06.02.06.06 0 .04-.03.05-.07.05-.1 0-.18-.06-.22-.16a.42.42 0 0 1 .03-.38c.04-.07.16-.17.38-.12.36.05.37.4.37.64 0 .1-.04.2-.14.28a.95.95 0 0 1-.53.22z" /><path d="M18.11 32.82s-.06.57.05.74c.1.16.32.17.49.16.16-.01.51-.3.51-.3s.4.05.4.03c0-.03.31-.04.52-.14.19-.1.4-.14.4-.16-.02-.03.25.13.43.1.18 0 .5-.14.48-.17-.02-.03.32-.16.32-.16l.43-.06.23-.18.22.04.22-.02.1-.04s.2.1.2.06c0-.02.14-.06.14-.06l.06-.06s.33-.01.31-.03l.38-.06.37.01h.3l.26-.03.18-.15.04-.24s-.08-.29-.1-.26c-.02.03-.24-.1-.24-.1l-.16.02-.09-.13-.1-.35.28.08s.33.08.33.1c-.02.01.33.12.33.12l.23.01-.06.34.07.18.12.07.17.03-.02.2.09.07.6-.05h.53l.13-.03.2-.32-.17-.21-.22-.23.08-.06s.02-.35 0-.34l-.05-.14s-.25-.15-.25-.12l-.32-.04-.18-.05s-.25 0-.26.02c-.03.02-.24.07-.24.07l-.4-.34s.15-.16.16-.14c.02.03.29 0 .29 0h.25l.32-.02s.15-.11.13-.13c-.03 0-.02-.19-.02-.19l-.05-.2-.18-.18-.16-.07s-.2-.3-.2-.27c-.02.03-.14-.04-.14-.04l.05-.27.01-.23c.02 0 .11-.14.11-.14l-.1-.24s0-.13-.02-.13l-.04-.42-.36-.37-.53-.34-.45-.12-.38.01-.37.09-.1-.17s-.24-.02-.24 0c0 .03-.13.03-.13.04l.1-.42.07-.14h.37l.42-.2.2-.23.2-.04.15-.26.01-.87.2-.25-.18-.42-.58-.67-.42-.8-.3-.41.02-.24-.15-.3-.16.05-.19.23-.02.25.02.2-.13.2.07.4.21.44.17.19.18.19.25.22.22.15-.2.72-.27-.02-.2.03.02-.23-.22-.22-.2-.04.04-.27-.5-.22v-.27l-.3-.33.07-.12.15-.15s.14-.23.14-.33-.07-.22-.08-.24l-.36-.32-.27-.1c-.05 0-.14-.4-.2-.6-.07-.22-.5-.5-.8-.52-.3-.03-.66.01-.72.01l-.75.01-.2-.28h-.32c0-.03-.21 0-.24.03-.03.02-.07.13-.08.16l-.17.16-.64-.04s-.24.1-.34.26c-.1.15-.07.35-.08.35v.1s-.38.2-.42.48c-.03.27.16.54.16.54s-.16.16-.1.37c.06.2.25.45.25.45s-.15.3-.08.53c.08.23.31.31.31.31l.14.03s.05.37.15.45c.1.08.31.16.31.16l.13.06s.02.45.12.61c.1.16.16.2.16.2s-.1 0-.1.15c-.03.15 0 .32 0 .32s-.39.18-.47.24c-.08.07-.07-.1-.07-.1s.15-.3 0-.62c-.15-.31-.72-.57-.72-.56 0 .03-.1 0-.1 0l-.01-.42-.14-.19s-.16-.1-.16-.07-.1.04-.14.06a.48.48 0 0 0-.12.08c-.01.01-.1-.14-.1-.14s-.06-.12-.08-.13l-.12-.02-.2.04-.11.1s-.15.26-.17.33l-.08.34-.01.17c-.02 0-.03.08-.03.08l-.14.05-.15.12s-.08.13-.05.13.15.34.15.34.08.17.1.14l.1.07-.23.33s-.02.25-.04.25c-.03 0-.01.2-.01.2l.04.19v.05l-.23-.1c0 .02-.17.02-.17.02s-.1.05-.12.08c-.03.03-.16.14-.2.33-.04.19.04.34.05.32.01 0 .11.1.12.09 0-.02.15-.03.15-.03s-.05.35-.04.49c.02.14.1.24.15.26.06.01.25.05.26 0 .03-.07.03-.07.06-.1 0-.02.1-.17.1-.2.02-.03.03-.06.13-.06s.2.02.2.04c0 .03.03.06.07.15.05.09.1.14.1.18 0 .04.05.06.1.08.03.04-.1.68 0 1.08.09.4.52.86.71.91l.82.32s.12.19.14.3c0 .13-.06.63-.02.74.02.1.45.29.45.29z" fill="#FAAA42" /><path d="M17.13 27.24a.66.66 0 0 1-.4-.14.6.6 0 0 1-.24-.55c0-.04 0-.08.02-.12.06-.28.36-.45.62-.43.15.01.26.08.28.2.04.26-.18.38-.3.4-.05 0-.07-.02-.07-.06-.02-.04.01-.07.05-.07.03 0 .23-.05.2-.26 0-.08-.12-.08-.14-.1-.17 0-.43.1-.5.35v.1c0 .23.1.36.2.43.15.1.31.12.4.1.18-.06.71-.4.6-.86a.96.96 0 0 0-.72-.66h-.1l-.05-.02-.01-.06a1.4 1.4 0 0 0-.03-.5c-.08-.1-.18-.14-.27-.1-.2.06-.4.33-.42.59 0 .04-.04.05-.07.05-.04 0-.06-.04-.06-.07.03-.3.26-.6.5-.69.16-.04.3 0 .42.15.08.1.08.38.07.52h.04c.12 0 .68.19.81.75.15.56-.45.94-.68 1a.41.41 0 0 1-.15.05z" /><path d="M16.06 28.15c-.58 0-.93-.36-.93-.93 0-.23.1-.45.3-.61.27-.23.7-.31 1.13-.23.04 0 .05.04.05.07 0 .04-.04.05-.06.05-.41-.08-.78 0-1.04.2a.69.69 0 0 0-.26.52c0 .52.29.8.8.8.17 0 .32-.06.44-.2.18-.2.23-.5.22-.58-.03-.18-.15-.28-.37-.32-.13-.03-.26.07-.31.15-.06.08-.08.17-.04.23.07.14.23.1.24.1.04-.01.07.01.08.04.02.03 0 .07-.04.08-.1.03-.3.03-.38-.15-.05-.1-.03-.24.06-.35.08-.11.24-.23.43-.2.37.05.45.28.48.42.01.12-.04.45-.25.68a.77.77 0 0 1-.55.23z" /><path d="M15.54 26.68c-.07 0-.36-.28-.41-.5-.04-.16 0-.27.04-.32a.34.34 0 0 1 .19-.14h.08c.03-.21.13-.87.42-1.05.11-.06.2-.08.3-.04.2.07.3.3.3.32.02.02 0 .07-.04.08-.02.01-.06 0-.08-.04 0 0-.08-.2-.22-.25a.25.25 0 0 0-.19.03c-.24.15-.35.79-.37 1.02a.1.1 0 0 1-.02.06h-.06s-.04-.02-.1 0c-.02 0-.06.02-.1.08-.04.05-.04.13-.03.22a.96.96 0 0 0 .29.38c.05.04.08.07.05.1-.01.03-.03.05-.05.05zM14.77 28.4a.27.27 0 0 1-.19-.07c-.17-.15-.13-.5.02-.7.2-.24.42-.18.6-.1l.1.02c.02.01.05.04.03.08-.01.03-.04.05-.08.04l-.1-.04c-.19-.05-.32-.1-.47.07-.11.13-.15.4-.03.52.04.04.08.05.14.04.08-.02.16-.08.23-.18.01-.03.05-.04.08-.01.03.01.04.05.02.08-.07.1-.18.22-.32.23 0 .03-.01.03-.03.03z" /><path d="M16.29 29.35c-.04 0-.07 0-.1-.02-.28-.06-.38-.27-.46-.4a.59.59 0 0 0-.1-.14.33.33 0 0 0-.15-.06c-.04.02-.07.07-.1.14-.06.12-.14.31-.43.27l-.04-.02c-.2-.2-.23-.48-.1-.84.02-.02.06-.05.09-.04.02.02.05.06.04.09-.18.46 0 .64.07.69.16.01.21-.08.27-.2.04-.09.08-.18.18-.2.06-.02.15 0 .25.06.06.04.1.1.14.18.07.13.15.28.38.34.1.02.48-.04.66-.15.05-.03.05-.06.05-.06.02-.02.04-.05.07-.05.03 0 .05.04.05.07a.25.25 0 0 1-.1.12c-.15.15-.48.22-.67.22zM17.1 28.16c-.04 0-.06-.02-.08-.05l-.02-.07c-.04-.1-.1-.23.13-.4.08-.05.2-.05.3 0 .08.03.14.1.15.18l.02.2v.07c0 .05-.03.07-.07.07-.04 0-.07-.02-.07-.07v-.06l-.01-.18c0-.04-.04-.07-.09-.1a.17.17 0 0 0-.17.02c-.15.1-.13.15-.1.23.02.03.03.07.03.1.04.02.03.05-.03.06.02 0 .02 0 0 0zM17.12 28.56a.54.54 0 0 1-.33-.13c-.18-.13-.3-.35-.28-.53 0-.04.02-.05.06-.05.04 0 .07.03.06.07 0 .13.1.31.23.42.07.05.2.12.34.08.03-.01.07 0 .08.04.02.03 0 .07-.04.08l-.12.02z" /><path d="M18.1 28.1c-.04 0-.07-.03-.07-.07 0-.22-.05-.41-.1-.45-.32-.26-.6-.36-.84-.3-.16.04-.26.16-.27.21-.01.03-.06.05-.08.03-.03-.01-.04-.05-.03-.08.04-.1.16-.25.37-.3.27-.07.58.04.95.33.13.1.15.45.15.56-.02.04-.05.06-.08.06z" /><path d="M17.46 30.35h-.04a1.23 1.23 0 0 1-.5-1.13c.02-.47.25-.9.6-1.09.32-.17.58-.23.92.03.04.03.07.04.08.06.04.02.04.02.09.08l.05.05c.29.32.2.5.08.75l-.04.08a.45.45 0 0 1-.4.28.69.69 0 0 1-.58-.29c-.08-.1-.04-.37.03-.45.15-.16.35-.2.6-.1.02.02.05.06.04.09-.02.02-.06.05-.08.04-.2-.08-.35-.06-.47.07-.03.02-.05.23-.01.28.1.15.3.25.46.23a.33.33 0 0 0 .29-.2l.04-.08c.12-.26.18-.37-.06-.62l-.05-.05c-.03-.04-.03-.04-.07-.05l-.08-.07c-.29-.22-.5-.18-.8-.02-.3.17-.5.56-.52.98-.03.43.15.8.45 1.01.02.02.04.06.01.08 0 .03-.01.04-.04.04z" /><path d="M18.58 33.77h-.2l-.06-.01-.01-.01c-.05-.03-.11-.07-.18-.14-.12-.15-.1-.57-.07-.75a.1.1 0 0 0-.07-.03c-.19-.1-.46-.23-.43-.42.05-.28.06-.49.02-.73 0-.03-.02-.09-.04-.11l-.01-.03a.93.93 0 0 0-.22-.08c-.3-.11-.8-.29-1.1-.62-.45-.51-.4-1.04-.28-1.64.02-.04.04-.06.07-.06.04 0 .06.04.06.07-.13.59-.18 1.08.25 1.54.28.3.75.48 1.04.59.15.05.23.08.27.12l.02.01.01.04v.02l.04.13c.04.26.03.48-.03.78 0 .1.25.23.37.28l.13.07a.1.1 0 0 1 .02.06c-.02.1-.08.56.03.68.05.07.1.1.15.1.01 0 .01.02.03.02h.1c.1 0 .28 0 .33-.03a.28.28 0 0 1 .09-.05l.12-.1c.07-.06.78-.62.95-.62.04 0 .08 0 .11-.02a.41.41 0 0 1 .22.02l-.01-.06c-.04-.17-.09-.31-.36-.32-.03 0-.05 0-.08-.02a1.1 1.1 0 0 0-.3 0l-.05-.01c-.36-.29-.39-.31-.39-.8l.02-.2.01-.17a1.55 1.55 0 0 0-.31-.07 1.46 1.46 0 0 1-.33-.06l-.2-.04c-.39-.05-.84-.34-.92-.73a.94.94 0 0 1 .23-.71c.2-.22.44-.33.59-.34.31-.01.53.03.76.3.26.3.2.61.02.79-.17.16-.45.23-.67.04-.12-.1-.2-.23-.18-.37 0-.13.08-.27.22-.38.03-.03.07-.01.1.01.02.03 0 .07-.02.1-.1.08-.16.19-.18.29 0 .1.05.17.14.27.15.13.37.08.5-.04.11-.13.2-.37-.02-.62-.2-.23-.37-.27-.66-.25-.12 0-.34.12-.5.3a.8.8 0 0 0-.2.6c.06.34.47.6.81.63l.2.05c.08.02.16.04.3.05.06 0 .39.03.43.15l-.01.22-.02.19c0 .4 0 .42.32.67.12-.02.21 0 .3 0h.08c.35.01.42.23.46.4l.04.15c.02.02.02.05 0 .06-.01.01-.02.03-.05.03h-.07c-.12-.04-.18-.03-.23-.03l-.14.01c-.1 0-.76.48-.86.59-.07.07-.1.1-.15.12l-.07.04c-.04.07-.15.08-.28.08z" /><path d="M19.27 33.49h-.1c-.05 0-.07-.03-.07-.07 0-.04.02-.07.06-.07.62 0 .77-.01 1.26-.3 0-.03-.03-.07-.04-.08-.03-.03-.03-.05-.02-.08.03-.03.06-.03.09-.02.05.05.1.14.1.2s-.04.08-.05.1c-.49.26-.68.32-1.23.32zM19.29 32.56a.41.41 0 0 1-.22-.07c-.22-.15-.34-.5-.34-.76a3.82 3.82 0 0 1 .07-.57l.02-.06c.03-.01.07-.01.09.03l-.02.29-.04.32c0 .24.11.55.29.66.08.05.17.05.28.01l.03-.01c.04-.03.11-.07.2-.06.05 0 .07.03.07.07 0 .04-.02.07-.06.07-.07 0-.11.01-.15.04l-.05.03-.17.01zM21.13 32.59c-.14 0-.29-.06-.44-.25-.13-.16-.12-.45-.12-.76.01-.31.01-.65-.14-.8-.07-.07-.17-.11-.32-.1a.24.24 0 0 0-.24.18c-.04.12-.02.26.06.33.07.06.18.06.33 0 .02-.02.06-.06.06-.09.02-.02.04-.05.09-.04.02.02.05.04.04.08-.02.07-.09.14-.14.17-.26.1-.4.03-.46-.03a.43.43 0 0 1-.09-.46c.06-.17.2-.26.35-.26.17-.01.32.04.42.14.2.19.19.55.18.9-.02.27-.02.54.08.66.24.3.43.2.67.1.15-.07.3-.15.46-.09.19.09.34.07.4 0 .04-.08 0-.2-.07-.27-.18-.15-.45-.1-.7-.04-.2.04-.38.08-.5 0a.3.3 0 0 1-.11-.2c-.03-.27.04-.48.12-.7.1-.26.2-.56.16-1.09-.04-.45-.49-1-1-1-.17 0-.3 0-.37.02-.2.03-.26.02-.34-.22-.06-.05-.47-.04-.56 0l-.18.24c-.03.02-.06.04-.08.01-.03-.03-.03-.05-.02-.08l.2-.26c.04-.08.49-.06.5-.06.16.02.24.06.27.13.07.16.07.16.2.15.09-.02.21-.03.39-.03.57 0 1.09.61 1.13 1.12.04.56-.07.85-.18 1.14-.08.2-.13.38-.1.63 0 .05.02.1.05.1.07.06.23.02.4-.02.27-.06.58-.12.81.07.12.1.17.28.1.4-.04.07-.18.21-.55.07-.1-.04-.23.02-.37.09-.12.05-.24.12-.4.12z" /><path d="M20.91 33.28c-.12 0-.27-.04-.48-.12-.02-.01-.04-.05-.02-.08a.07.07 0 0 1 .08-.03c.42.2.58.11.79-.01.16-.1.35-.2.7-.22.09 0 .3-.1.3-.14 0-.12-.02-.13-.03-.15-.04-.05-.04-.1.01-.2.01-.03.03-.04.05-.04.33-.02.5.1.56.22.04.06.03.15-.02.2-.09.1-.24.11-.44.04l-.04-.01c-.08.12-.33.18-.4.19-.31.01-.49.12-.64.2a.72.72 0 0 1-.42.15zm1.51-.66h.06c.18.06.27.04.3 0 .01-.03.01-.06 0-.07-.04-.08-.18-.15-.4-.15l-.01.04c.03.03.04.07.05.18zM22.08 31.68a.76.76 0 0 1-.34-.07c-.27-.1-.42-.32-.4-.56l-.02-.16c-.03-.14-.04-.28.1-.5l.02-.02c.14-.18.18-.23.36-.4.08-.08.1-.17.12-.27.04-.26.12-.45.7-.45a.6.6 0 0 1 .43.18c.11.12.18.27.16.45 0 .27-.13.4-.25.52-.13.12-.24.23-.24.5 0 .04-.04.07-.08.05.06.18 0 .39-.16.58-.06.1-.22.15-.4.15zm.55-2.3c-.53 0-.56.16-.59.35-.03.1-.04.24-.16.35-.17.15-.2.2-.34.37l-.02.03a.41.41 0 0 0-.08.4c.02.05.02.11.02.18 0 .28.2.4.32.44.25.1.53.05.62-.04.12-.15.23-.38.05-.6-.05-.07-.24-.14-.38-.12-.06 0-.08.01-.08.02-.06.08-.08.15-.07.2.01.08.07.13.16.18.03.02.04.06.02.09-.02.02-.06.04-.09.01-.12-.08-.19-.16-.21-.26-.02-.1.01-.19.08-.3.03-.05.1-.07.19-.08.16-.01.4.05.49.18l.07.08c.01-.3.15-.44.27-.56.11-.1.2-.2.22-.42a.48.48 0 0 0-.14-.36.55.55 0 0 0-.35-.13z" /><path d="M22.16 30.72c-.02 0-.06-.02-.06-.05 0-.12.12-.22.27-.33.12-.1.27-.19.29-.3 0-.05-.03-.1-.09-.18-.02-.02-.08-.04-.13-.02-.04.02-.07.07-.07.13l.01.04c0 .04-.02.07-.05.07l-.06-.01-.02-.06c-.02-.13.04-.23.15-.28.1-.04.2-.03.27.05.1.1.14.2.12.27-.01.17-.18.3-.33.4-.1.07-.21.15-.21.22-.03.03-.06.05-.09.05zM24 31.23c-.04 0-.06-.02-.06-.04-.04-.1-.28-.28-.44-.37-.15-.08-.49-.07-.68.04-.07.04-.11.08-.12.12 0 .04-.03.06-.07.06-.04 0-.06-.04-.06-.07.02-.08.07-.17.18-.22.2-.1.59-.15.8-.04.1.04.44.26.5.44 0 .02 0 .06-.05.08z" /><path d="M23.08 32.77a.42.42 0 0 1-.15-.03c-.03-.02-.06-.03-.1-.03-.04 0-.07-.03-.07-.07 0-.04.03-.07.07-.07.06 0 .11.02.15.03.06.03.1.04.2 0v-.04a.2.2 0 0 0-.05-.12c-.16-.12-.17-.26-.16-.34.03-.2.2-.37.38-.45.23-.11.29-.27.27-.38-.01-.07-.05-.11-.1-.11l-.14.01c-.03.03-.03.08-.03.15 0 .04-.03.07-.07.07-.04 0-.07-.03-.07-.07 0-.1 0-.18.07-.23.04-.04.13-.05.23-.05.11 0 .2.1.22.21.03.15-.04.38-.34.52-.14.07-.28.2-.3.34-.01.08.03.16.12.23.06.04.11.18.1.28-.01.05-.04.1-.1.1a.3.3 0 0 1-.13.05zM22.08 31.88c-.02 0-.05-.01-.05-.04-.02-.05-.02-.12-.02-.18v-.04c0-.04.03-.07.07-.07.04 0 .07.03.07.07v.04l.01.14c.02.03 0 .07-.04.08h-.04z" /><path d="M23.62 32.22h-.04c-.1-.01-.22-.1-.19-.3l.04-.05c.03-.02.07-.02.08.01.02.03.02.05 0 .07 0 .08.03.13.1.13.07.02.16-.02.18-.1.04-.2-.06-.22-.2-.26-.02-.02-.05-.02-.08-.03-.02-.01-.05-.05-.04-.08.02-.03.06-.06.09-.04l.08.02c.13.05.34.1.28.41a.33.33 0 0 1-.3.22z" /><path d="M23.25 32.66c-.02 0-.06-.03-.06-.06 0-.04.02-.07.05-.07.14 0 .25-.02.36-.05.12-.03.24-.06.4-.06h.18c.23.02.71.03.8-.06.07-.11.09-.22.06-.33a.43.43 0 0 0-.24-.25c-.14-.05-.22.05-.25.1a.07.07 0 0 1-.08.03c-.03-.02-.04-.06-.03-.08l.01-.05c.05-.1 0-.34-.1-.42a.63.63 0 0 0-.25-.1c-.04 0-.08 0-.12-.02-.03-.01-.04-.05-.03-.08.01-.03.05-.04.08-.03l.1.03c.07.01.16.03.3.12.13.08.19.27.19.42a.3.3 0 0 1 .24 0 .5.5 0 0 1 .33.33.5.5 0 0 1-.08.44c-.11.15-.46.15-.9.12h-.18c-.15 0-.27.03-.4.05-.12-.01-.22.02-.38.02zM19.4 28.75c-.04 0-.07-.03-.07-.07 0-.01 0-.03-.03-.06-.01 0-.04-.04-.04-.06-.03-.1-.23-.25-.38-.36-.12-.1-.23-.17-.29-.24-.12-.15-.15-.33-.08-.47.05-.12.18-.2.31-.21.13-.02.24.05.3.16.13.2.28.3.43.42.17.14.35.27.42.53.01.03-.01.07-.04.09-.03 0-.07-.02-.08-.05-.06-.21-.2-.32-.39-.46-.15-.1-.3-.24-.45-.45-.04-.07-.1-.1-.19-.1-.08 0-.16.07-.2.16-.04.1-.03.21.07.34.04.05.15.13.26.21.19.14.4.3.43.43l.03.02c.03.03.07.09.05.15l-.06.02z" /><path d="M19.87 27.71h-.01c-.05-.01-.1-.08-.25-.23-.1-.1-.28-.34-.35-.34-.2.01-.2.03-.2.12v.13c0 .04-.05.05-.07.05-.04 0-.06-.04-.06-.07v-.1c0-.18.06-.25.33-.27.1 0 .26.15.45.39.07.08.16.17.2.19.02.01.05.04.03.08-.01.03-.04.05-.07.05z" /><path d="M19.83 28c-.04 0-.07-.03-.07-.07 0-.03.03-.05.06-.05.03-.05.07-.24.03-.86v-.11c0-.04.02-.07.06-.07.05 0 .07.03.07.07v.1c.03.51.03.87-.07.97l-.08.02z" /><path d="M20.46 27.45a.1.1 0 0 1-.05-.02c-.13-.18-.25-.28-.39-.39l-.27-.21c-.22-.22-.29-.48-.19-.72.08-.2.3-.36.52-.36.16 0 .31.1.4.25l.09-.11c.12-.14.37-.22.53-.14.37.22.44.46.22.85-.03.05-.12.13-.3.25-.15.13-.52.41-.5.48 0 .03 0 .07-.03.08l-.03.04zm-.4-1.56c-.16 0-.32.1-.4.27-.03.1-.07.33.17.57.08.08.18.15.26.2.11.09.22.17.33.3.08-.12.26-.27.5-.46.11-.08.25-.19.26-.22.18-.3.14-.49-.17-.66-.09-.06-.28 0-.37.1-.08.09-.08.1-.08.13l-.03.08c-.02.03-.03.04-.06.04-.02 0-.05-.01-.05-.04-.07-.2-.2-.31-.36-.31z" /><path d="M17.7 27.4h-.04c-.02-.01-.04-.04-.02-.07v-.04l.05-.3a.6.6 0 0 1 .32-.4c.15-.08.32-.09.46-.04.08.03.56.02.83 0h.37c.03.02.04.06.03.09-.02.02-.04.04-.07.02h-.32c-.42.02-.77.03-.87 0a.44.44 0 0 0-.37.04.5.5 0 0 0-.24.32l-.06.28-.01.06a.08.08 0 0 1-.07.04z" /><path d="M18.33 26.65c-.04 0-.07-.03-.07-.07v-.17-.17c0-.08.03-.13.07-.18.07-.05.15-.05.25-.04.05 0 .1.02.15 0 .2-.02.73-.04.93-.02.04 0 .05.04.05.06 0 .05-.04.06-.07.06-.19-.03-.7-.01-.9.03h-.18c-.06 0-.12-.02-.15.01l-.02.1v.35c0 .01-.03.04-.06.04zM19.75 28.18c-.01 0-.03 0-.04-.02-.03-.01-.03-.05-.01-.08v-.03c.02-.08.04-.16.1-.19.03-.01.07 0 .09.04.01.03 0 .07-.03.08a.3.3 0 0 0-.04.11l-.03.06c-.01.03-.03.03-.04.03zM19.98 28.95c-.02 0-.05-.02-.07-.05l-.1-.5c0-.05.04-.07.06-.07.03 0 .07.02.07.05l.08.5c.03.03.02.07-.04.07.02 0 .02 0 0 0zM20.51 29c-.04-.02-.06-.05-.06-.09.06-.33.4-.58.73-.56.07 0 .13.04.17.1.05.08.05.19 0 .28-.04.1-.1.15-.17.17-.07.01-.13-.02-.2-.1a.07.07 0 0 1 0-.1.07.07 0 0 1 .1 0c.03.05.06.06.09.06.01 0 .04-.01.08-.1a.2.2 0 0 0 0-.17.08.08 0 0 0-.07-.04.63.63 0 0 0-.6.46c-.01.06-.04.08-.07.08z" /><path d="M21.81 29c-.1 0-.2-.06-.29-.18-.01-.03-.01-.07.03-.09.03 0 .07 0 .08.03.06.1.13.14.2.12.05 0 .09-.05.1-.1.03-.14 0-.17-.13-.25-.11-.07-.39.07-.45.12a.07.07 0 0 1-.1 0 .07.07 0 0 1 0-.1c.08-.07.42-.27.61-.14.14.1.24.16.18.38-.03.1-.1.19-.22.2.02.02 0 .02-.01.02z" /><path d="M22.55 28.73a.64.64 0 0 1-.24-.05c-.12-.04-.19-.06-.25.01a.08.08 0 0 1-.1.02.08.08 0 0 1-.01-.1c.12-.14.27-.1.4-.05.16.05.3.1.44-.14.08-.12.1-.22.12-.31.03-.2.07-.37.56-.71.2-.14.22-.2.22-.2s-.03-.03-.1-.06c-.24-.05-.5.1-.63.27-.06.07-.11.18-.17.29-.1.23-.22.45-.38.46-.2.02-.3.02-.5.02l-.75-.03-.06.01a.21.21 0 0 1-.15-.1c-.08-.16-.03-.4.03-.58.01-.03.04-.05.08-.04.03.01.05.04.04.08-.07.22-.08.4-.04.48l.03.04h.01l.83.04.48-.01c.08 0 .2-.24.27-.4l.18-.31c.16-.2.46-.38.75-.32.04.02.18.05.2.15.03.13-.12.24-.27.35-.45.3-.48.44-.5.62a.88.88 0 0 1-.14.37c-.1.15-.23.2-.35.2z" /><path d="M21.73 28.18h-.03c-.03-.02-.04-.06-.03-.09.15-.34.36-.55.62-.68.08-.04.52-.05.6-.01.02.01.04.05.02.08 0 .03-.05.04-.08.03a1.49 1.49 0 0 0-.49.01c-.23.1-.42.3-.56.62 0 .02-.02.04-.05.04zM20.95 29.32c-.03 0-.05-.01-.05-.04-.02-.03.01-.07.04-.08.15-.04.4-.04.6-.04.15 0 .32 0 .37-.03 0-.11.1-.14.47-.14h.96c.02.02.04.06.02.08 0 .03-.05.05-.08.03-.03 0-.45 0-.68.02h-.22c-.24 0-.32 0-.34.02 0 .03-.01.08-.08.11s-.2.03-.42.03c-.2 0-.44.01-.58.04zM23.16 30.01a.1.1 0 0 1-.05-.02c-.02-.03-.02-.07 0-.08l.1-.07a.85.85 0 0 0 .17-.13.08.08 0 0 1 .1 0c.02.02.02.06 0 .09l-.18.15-.1.05-.04.01z" /><path d="M26.1 30.25c-.08 0-.15-.02-.15-.02l-1.3-.03h-.2c-.32.02-.6.02-.88-.19-.33-.23-.3-1.04-.3-1.52v-.2c0-.03.03-.06.07-.06.04 0 .07.03.07.07v.19c-.02.42-.03 1.22.24 1.42.25.17.5.17.82.16h.2a45.64 45.64 0 0 1 1.5.03.66.66 0 0 0-.1-.5.33.33 0 0 0-.22-.16 8.46 8.46 0 0 0-.93-.05c-.33 0-.36.05-.41.12-.04.07-.1.15-.29.22-.1.03-.24-.03-.31-.15-.04-.07-.08-.26.22-.46l.04-.03c.04-.03.1-.07.1-.11 0-.04.03-.07.08-.07.04 0 .06.03.06.07 0 .1-.1.16-.16.2l-.04.03c-.16.1-.23.22-.18.31.04.07.13.11.17.1.15-.06.17-.11.21-.16.07-.11.15-.2.52-.2.2 0 .41.02.6.05.11 0 .22 0 .34.02.13.02.25.08.33.22.12.18.16.44.1.61-.05.07-.13.09-.2.09zM23.94 31.15c-.02 0-.04-.02-.04-.03a.07.07 0 0 1 0-.1c.23-.2.25-.37.25-.67 0-.04.03-.06.07-.06.04 0 .07.02.07.06 0 .33-.04.52-.3.77-.03.03-.04.03-.05.03zM25.55 31.63c-.2 0-.41-.05-.6-.13-.11-.06-.28-.1-.4-.14-.14-.04-.22-.05-.26-.1-.03 0-.04-.05-.01-.07.01-.03.05-.05.08-.02.03.02.12.04.23.07.14.04.31.08.44.15.4.2.97.18 1.27-.25l.08-.1.07-.07s-.03-.02-.1-.03c-.14-.03-.2 0-.27.03-.14.05-.26.07-.53-.15-.03-.03-.06-.04-.07-.07-.03-.03-.04-.05-.2-.03l-.05.08c-.01.03-.04.06-.08.04-.03 0-.05-.04-.04-.08.01-.05.07-.16.16-.17.2-.03.25 0 .3.06l.04.05c.25.19.3.16.41.12.08-.03.18-.07.34-.03.09.01.17.04.2.12.02.08-.05.14-.11.2a.36.36 0 0 0-.07.09.96.96 0 0 1-.83.43z" /><path d="M25.57 31.21l-.04-.01-.05-.04a1.45 1.45 0 0 1-.37-.3 1 1 0 0 1-.16-.03l-.11-.01c-.03-.02-.06-.04-.04-.08 0-.03.04-.06.08-.04h.1c.14.02.21.04.25.1l.34.25.08.05c.03.03.03.07 0 .1l-.08.01zM25.38 30.72h-.01c-.03-.01-.06-.04-.04-.08.02-.1.3-.23.43-.23h.13c.46.03.57-.01.58-.04a.56.56 0 0 0 0-.37c-.02-.07-.07-.15-.15-.19l-.07-.04a.1.1 0 0 0-.05-.03.07.07 0 0 1-.08-.03c-.02-.02 0-.06.03-.08.06-.02.12 0 .16.03.01.01.03.03.05.03.1.04.18.13.22.26.06.16.06.34 0 .46-.07.14-.37.14-.7.1h-.13a.6.6 0 0 0-.31.14c0 .05-.03.07-.06.07zM25.8 32.23a.26.26 0 0 1-.16-.05c-.2-.15-.18-.31-.16-.46l.01-.15c0-.04.03-.07.07-.07.04 0 .07.03.07.07 0 .06 0 .12-.02.17-.01.14-.02.24.11.34.08.07.23 0 .36-.08l.1-.05.2-.1c.1-.05.17-.1.28-.13.2-.07.36-.14.41-.18.02-.3-.01-.45-.32-.52-.09-.01-.2-.04-.22-.03-.02.02-.04.02-.07.02-.03-.02-.04-.06-.03-.08.02-.03.04-.1.36-.02.45.11.43.37.42.68 0 .04 0 .07-.5.26-.09.04-.17.08-.26.14l-.2.1-.12.06c-.1.03-.22.08-.33.08z" /><path d="M25.98 32.47a.17.17 0 0 1-.12-.06c-.06-.07-.04-.18-.03-.24v-.03c0-.04.04-.06.07-.06.04 0 .05.05.05.07v.04c0 .04-.02.13 0 .14h.03l1.2-.01c.04-.02.07-.07.11-.18.01-.03.01-.06.03-.08 0 0 .03-.08-.3-.4-.03-.02-.03-.02-.04-.05-.02-.04.01-.07.05-.07.03 0 .04 0 .06.03l.01.01c.27.26.37.44.33.53l-.03.08c-.04.11-.08.24-.2.26l-1.22.02c.02 0 .02 0 0 0zM23.91 28.8a.3.3 0 0 1-.22-.08c-.1-.08-.14-.18-.08-.29.08-.16.35-.3.53-.28.04 0 .06.04.06.07 0 .04-.05.05-.07.05-.11-.03-.33.08-.38.2-.02.05-.03.09.04.14.05.04.12.06.2.04a.29.29 0 0 0 .18-.13l.01-.02c.02-.02.06-.04.08-.01.03.01.04.05.02.08-.06.11-.15.2-.26.2-.06.03-.08.03-.11.03z" /><path d="M24 29.39c-.02 0-.04 0-.05-.02-.01 0-.03 0-.04-.02l-.07-.04c-.19-.15-.12-.36-.07-.5.02-.04.03-.06.03-.1.01-.03.04-.06.08-.06.04.02.06.04.06.08l-.04.13c-.06.16-.09.26.02.35l.04.01.07.05c.03 0 .04.05.02.08-.02.04-.03.04-.06.04zM24.8 28.49c-.03 0-.06-.03-.07-.06 0-.02 0-.05.02-.06v-.02c.06-.32-.08-.52-.4-.58a.72.72 0 0 1-.28-.13c0 .24.17.54.38.59.03.01.06.04.05.08-.02.03-.05.06-.09.04-.3-.08-.47-.43-.47-.72v-.14c0-.02 0-.08.04-.1.02 0 .05 0 .08.05.03.04.1.15.3.2.4.06.57.32.5.71.02.04 0 .13-.06.14z" /><path d="M24.6 28.34c-.05 0-.08-.03-.08-.07 0-.1-.02-.14-.07-.16-.04-.03-.1-.07-.1-.2 0-.05.02-.08.06-.08.04 0 .07.03.07.07 0 .07.02.07.06.1.06.04.12.1.12.26 0 .05-.03.08-.07.08zM24.6 29.44c-.04 0-.06-.01-.06-.04a.64.64 0 0 1-.17-.19.3.3 0 0 1-.04-.07c-.12-.19-.07-.52.08-.7.09-.09.18-.11.26-.07.14.05.82.06.93.04a.1.1 0 0 1 .05-.03c.05 0 .06.04.06.07 0 .01-.01.04-.04.05-.12.07-.89.04-1.05-.03-.04 0-.1.02-.12.06-.11.12-.17.4-.07.54.01.03.02.06.04.07.04.07.05.1.15.17.01 0 .03.02.04.05.01.03-.01.07-.04.08h-.03z" /><path d="M25.07 28.54c-.03 0-.1-.01-.11-.1-.01-.14.08-.39.26-.46.1-.02.24 0 .4.26.02.03.03.09.02.15 0 .04-.03.07-.07.07-.04 0-.07-.03-.07-.05v-.1c-.06-.12-.17-.24-.27-.19-.1.06-.16.25-.15.3.03.01.04.04.04.07 0 .03-.02.05-.05.05z" /><path d="M25.85 28.52c-.02 0-.03 0-.05-.02a.15.15 0 0 0-.15-.01c-.02.01-.06 0-.08-.03-.01-.03 0-.07.03-.08.07-.03.14-.04.2-.01.1-.43-.13-.58-.46-.8-.08-.05-.18-.1-.26-.17-.27-.2-.91-.25-1.27-.12l-.05.01c-.04 0-.07-.03-.07-.07 0-.03.03-.05.06-.07v-.01c.38-.14 1.09-.1 1.4.14l.26.17c.35.23.65.44.5 1.01 0 .01-.02.04-.04.04l-.02.02z" /><path d="M25.83 29.47c-.03 0-.05-.03-.07-.06 0-.04 0-.05.02-.08l.04-.27c.01-.18.01-.22.05-.24.04-.03.04-.05.04-.06.02-.04-.04-.12-.06-.18-.03-.04-.06-.06-.06-.1-.01-.03 0-.07.04-.09.03-.01.07 0 .08.04l.04.09c.06.08.11.17.1.27a.32.32 0 0 1-.08.12l-.02.16a1.1 1.1 0 0 1-.05.33v.01c0 .03-.03.06-.07.06zm0-.11l.06.03v-.02l-.06-.01z" /><path d="M25.2 29.16h-.08c-.17-.02-.37-.11-.37-.26 0-.11.03-.18.07-.23.07-.06.15-.06.23-.05.06 0 .13.02.18 0 .03 0 .07 0 .1.03.02.02.05.06.05.1 0 .04-.03.07-.07.05a.06.06 0 0 1-.05-.05.52.52 0 0 1-.2 0c-.06 0-.11-.02-.14.01-.02.01-.03.04-.03.14 0 .05.11.1.25.12.13.01.28-.01.31-.1.01-.1.04-.13.08-.16.06-.04.14-.03.2-.01.07.01.13.02.18-.02.03-.01.07-.01.09.02 0 .02 0 .07-.02.08-.1.07-.2.05-.28.03l-.1-.02-.03.07c-.04.2-.2.25-.38.25z" /><path d="M25.45 28.87c-.12 0-.2-.07-.25-.14 0-.02 0-.06.02-.08.03-.01.07-.01.08.02.04.06.1.12.29.04.02-.02.06 0 .08.02.01.03 0 .07-.03.09a.58.58 0 0 1-.19.05zM25.89 29.17l-.15-.03c-.09-.01-.29-.05-.33-.02a.07.07 0 0 1-.08-.03c-.02-.03 0-.07.02-.08.07-.04.22-.02.41.01l.13.01c.04 0 .06.03.06.07 0 .04-.02.07-.06.07zM22.31 27.54c-.1-.02-.1-.13-.08-.48.02-.2.03-.64-.02-.68-.03-.03-.03-.07-.02-.08.03-.03.06-.03.08-.02.11.08.1.37.09.8-.02.13-.02.3 0 .35 0 .01.02.02 0 .05.02.03 0 .06-.05.06z" /><path d="M21.96 26.4H21.85c-.1 0-.18-.02-.26-.05a.57.57 0 0 0-.22-.04h-.02c-.04 0-.07-.03-.07-.07 0-.04.03-.07.07-.07h.02c.09 0 .17.03.25.06.08.03.15.05.22.05h.07c.36 0 .36 0 .6-.12.06-.03.13-.05.21-.1.13-.05.13-.08.14-.1l.04-.06a.63.63 0 0 1 .18-.1c.1-.04.31-.14.31-.21 0-.04.04-.06.07-.06.04 0 .05.04.05.07-.01.12-.17.2-.38.31l-.13.07-.02.02c-.01.06-.05.1-.2.17l-.2.1c-.24.12-.27.14-.62.14z" /><path d="M23.3 27.1c-.05 0-.07-.03-.07-.07 0-.18.05-.3.12-.4.07-.13.14-.25.11-.44l-.01-.02c-.03-.04-.04-.1-.04-.23 0-.3 0-.54-.13-.82-.46.4-1.74.85-2.25.71l-.01-.01-.01-.01c-.03-.02-.05-.06-.02-.09.02-.02.06-.04.08-.01h.02c.5.12 1.84-.38 2.2-.75 0-.01.03-.03.06-.01.03.01.04.04.04.05v.03c.15.3.15.58.15.9 0 .12.02.15.03.16l.03.07a.77.77 0 0 1-.13.5c-.05.11-.1.2-.1.34-.02.07-.05.1-.07.1z" /><path d="M23.6 26.64a.38.38 0 0 1-.17-.04c-.02-.02-.04-.06-.02-.09 0-.02.05-.04.08-.02.07.04.2.02.37-.03.21-.07.43-.2.49-.31-.03-.15-.5-.97-.62-1.07-.1.02-.35.06-.45-.01a.07.07 0 0 1-.04-.07c0-.04.03-.07.06-.07.02 0 .04.02.05.03.05.01.27 0 .35-.01.06-.02.1.02.14.08.12.15.67 1.02.61 1.16-.06.15-.34.31-.57.4a.68.68 0 0 1-.27.05zM18.41 26.1h-.04c-.23-.16-.32-.53-.28-.81-.02 0-.03 0-.04-.02-.15-.04-.52-.15-.52-.54v-.03-.05a.53.53 0 0 1-.26-.1c-.14-.07-.23-.24-.26-.43a.52.52 0 0 1 .1-.43s-.02 0-.02-.02a.62.62 0 0 1-.24-.5c0-.17.05-.22.1-.27 0-.02-.02-.1-.1-.25-.17-.33.06-.66.35-.82a.68.68 0 0 1 .12-.46c.11-.15.25-.25.37-.26.06 0 .12 0 .2-.02l.28-.01h.18a1 1 0 0 0 .12-.15c.14-.18.19-.22.59-.14.1.03.2.15.25.25l.03.03 1.45-.03c.27 0 .5.19.72.4.12.1.23.48.23.63 0 .1.04.11.17.15.1.03.24.06.34.18.08.1.12.14.16.15.07.04.08.07.16.35.02.03-.01.07-.04.09-.02.01-.07-.02-.08-.04-.07-.26-.07-.26-.1-.3-.05-.02-.1-.05-.2-.17-.07-.1-.18-.12-.27-.13-.12-.03-.27-.06-.26-.28 0-.13-.11-.47-.2-.54-.18-.2-.4-.36-.63-.36l-1.43.06-.05-.01a.38.38 0 0 1-.05-.07c-.04-.06-.12-.18-.2-.2-.33-.06-.35-.03-.45.1l-.17.2H18.2c-.1 0-.2 0-.28.02l-.19.01c-.08 0-.19.09-.27.2-.1.14-.14.32-.1.43.02.01 0 .04 0 .05l-.06.03h-.02c-.2.11-.43.38-.3.64.14.29.17.36.07.42-.03.02-.05.03-.05.17 0 .22.12.32.2.4.04.03.08.06.08.12 0 0 0 .04-.02.06-.07.07-.11.2-.1.34.01.15.1.29.2.34.11.07.17.07.2.09.12 0 .12.06.12.17v.03c0 .29.22.37.42.42.07.03.14.04.14.11-.04.26.02.6.23.72.03.02.04.06.01.09h-.07z" /><path d="M23.35 25.08h-.04c-.04 0-.05-.04-.05-.06 0-.03 0-.05.04-.06 0-.15-.02-.16-.06-.19l-.1-.07c-.04-.04-.1-.04-.14-.05-.05 0-.11-.02-.11-.08l.02-.22v-.03l-.21-.07c-.1-.04-.15-.04-.18-.04-.01 0-.06 0-.07-.03-.03-.02-.01-.05-.01-.08l.01-.19c0-.05-.1-.12-.16-.17-.1-.07-.18-.13-.18-.22 0-.08.08-.14.14-.17.1-.05.1-.05.1-.08.02-.01.02-.04.05-.08.04-.05.05-.12.08-.2l.03-.09c0-.02.04-.05.08-.04.02.02.05.04.04.09-.02.02-.02.05-.03.08-.03.08-.04.16-.1.24l-.02.06c-.03.05-.04.08-.17.13-.1.04-.1.06-.1.06 0 .02.1.08.13.1.11.07.22.16.22.28l-.01.19c.04 0 .1.01.17.05l.18.06c.11.03.12.07.11.18l-.03.16c.06 0 .15.01.22.08l.08.07c.1.05.11.1.11.33l-.01.06h-.03zM19.2 22.36a.78.78 0 0 1-.5-.23c-.1-.1-.14-.2-.14-.29 0-.23.02-.58.37-.64.23-.03.34.07.38.12.09.1.1.26.03.39-.04.1-.12.16-.22.16-.04 0-.06-.03-.06-.05 0-.03.02-.07.05-.07.07 0 .1-.07.1-.1a.26.26 0 0 0 0-.24c-.06-.07-.15-.1-.28-.09-.23.03-.26.25-.26.52 0 .08.06.15.1.2.1.1.29.18.42.18h.06c.2 0 .32 0 .5-.1-.01-.1 0-.2.2-.26l.03-.02c.43-.17.43-.17.75-.17H21c.03 0 .11 0 .42.3l.03.04c.08.1.2.19.3.19.12 0 .14.04.15.05.02.03-.01.07-.04.08h-.09c-.17 0-.3-.12-.39-.23l-.02-.03c-.26-.25-.33-.27-.34-.27h-.26c-.29 0-.29 0-.7.16l-.04.02c-.12.05-.12.08-.1.12 0 .04 0 .11-.06.15-.2.11-.36.11-.56.11h-.08z" /><path d="M19.44 23.15h-.03c-.03-.01-.04-.05-.03-.08v-.02c.07-.24.34-.39.82-.4h.41c.26.01.45.01.78-.1.15-.05.15-.1.16-.19l.01-.08c.02-.03.05-.06.09-.04.02.01.05.04.04.08l-.02.07c-.01.1-.02.21-.24.3-.34.12-.56.12-.82.1h-.4c-.4.02-.65.13-.7.33l-.02.03h-.05z" /><path d="M20.38 22.76h-.02c-.12-.05-.27-.3-.25-.41 0-.06.05-.1.1-.1.35 0 .66-.1 1-.19l.05-.01h.14c.03 0 .07.01.07.05s-.01.07-.06.07h-.13l-.06.01c-.32.1-.65.2-1 .2 0 .08.1.25.16.27.03.01.05.04.04.08.01 0-.01.03-.04.03z" /><path d="M20.91 22.71c-.04 0-.07-.02-.07-.06v-.06c.02-.19 0-.26 0-.28-.03 0-.04-.02-.05-.05-.02-.02.01-.06.04-.08.03-.01.07 0 .1.02.06.05.06.17.05.4v.05c0 .04-.03.06-.07.06zM19.1 23.16a.42.42 0 0 1-.18-.04l-.15-.04c-.16-.04-.5-.52-.5-.68 0-.19 0-.33.1-.4.09-.05.2-.05.39 0 .02.02.05.05.04.09-.02.02-.04.05-.09.04-.15-.04-.23-.06-.27-.03-.05.04-.05.2-.05.3 0 .1.3.53.4.56l.17.04c.1.03.12.04.3.01h.19c.04 0 .07.03.07.06 0 .04-.03.07-.06.07H19.3l-.2.02z" /><path d="M18.17 22.5h-.07c-.23-.07-.29-.36-.26-.56.02-.15.1-.27.22-.34.15-.1.37-.13.57-.07.03.01.06.04.04.08-.01.03-.04.06-.08.04a.54.54 0 0 0-.46.06.3.3 0 0 0-.15.26c-.02.13 0 .38.18.42h.1l.13.01c.02.03.02.07 0 .1-.02.01-.04.02-.06.01h-.07l-.1-.01z" /><path d="M17.84 23.26c-.01 0-.04 0-.05-.02-.2-.05-.32-.17-.32-.35a.7.7 0 0 1 .52-.59c.04 0 .07.02.07.06 0 .04-.01.07-.05.07-.2.02-.41.27-.41.46 0 .12.06.2.21.23h.11c.04 0 .07.03.07.07 0 .04-.03.05-.05.05h-.04l-.06.02z" /><path d="M18.25 23.94a.44.44 0 0 1-.45-.45c0-.18.11-.38.26-.48.1-.06.2-.08.29-.04.08.03.19.02.28.02l.14-.02c.04 0 .07.03.05.07 0 .04-.02.07-.06.05-.03 0-.09 0-.13.02a.72.72 0 0 1-.34-.02c-.07-.02-.13 0-.18.03a.47.47 0 0 0-.2.38c0 .2.14.33.33.33.13 0 .2-.01.24-.05.04-.04.06-.13.06-.25l-.14-.12c-.03-.03-.03-.06-.01-.08.02-.03.05-.03.08-.02.14.1.19.17.19.22 0 .16-.03.27-.1.34-.04.04-.13.07-.3.07z" /><path d="M18.58 23.5h-.03c-.03-.01-.04-.05-.03-.08.03-.05.03-.08.04-.12.05-.14.09-.2.36-.29h.05c.03-.01.07.02.07.04.02.03-.01.07-.05.09h-.04c-.22.06-.24.1-.26.19l-.04.13a.08.08 0 0 1-.07.04zM21.17 25.83c-.03 0-.04-.01-.06-.04l-.05-.05a.43.43 0 0 1-.15-.17c-.07-.1-.1-.19-.14-.24-.08-.15-.08-.16-.35-.16-.06 0-.11-.05-.15-.13-.07-.1-.2-.49-.22-.62l-.18-.24c-.13-.16-.19-.27-.26-.39a1.22 1.22 0 0 0-.12-.22c-.1-.18-.1-.3-.1-.4v-.08c-.02-.02 0-.06.03-.08.04-.01.07.02.09.04v.13c0 .08 0 .19.1.32.05.1.09.17.11.24.06.12.11.21.24.36 0 0 .19.25.2.3.07.27.2.62.26.64.33 0 .37.03.46.23l.13.24c.02.04.08.1.12.12l.1.1c0 .03-.02.08-.05.09l-.01.01z" /><path d="M19.87 25.63c-.19 0-.38-.08-.42-.25-.05-.19.03-.4.2-.54.1-.07.22-.08.33-.1l.11-.01c0-.03.03-.06.06-.06.04 0 .06.02.06.06.02.04 0 .07 0 .08-.05.06-.12.06-.21.07-.09.01-.2.01-.26.07-.14.1-.2.26-.15.4.02.13.22.17.4.16.13-.02.3-.1.28-.25-.01-.03-.11-.19-.2-.19-.06 0-.11.07-.14.12v.02l.08.02c.01 0 .05 0 .07.04.01.03 0 .07-.03.09H20c-.06-.02-.15-.02-.2-.1a.13.13 0 0 1 0-.12c.1-.2.21-.2.3-.2.16.03.28.25.28.32.01.2-.15.33-.4.37h-.1z" /><path d="M20.06 25.89c-.02 0-.06-.03-.06-.06 0-.1-.02-.15-.07-.23-.03-.03-.02-.07.01-.1.03-.02.07 0 .1.02.08.1.1.19.1.3 0 .04-.03.07-.08.07.02 0 0 0 0 0zM20.7 25.89c-.04 0-.06-.03-.06-.07 0-.15-.06-.2-.2-.26-.02-.01-.05-.04-.03-.08 0-.03.04-.06.08-.04.19.05.28.17.28.37 0 .05-.02.08-.06.08zM19.61 24.98a.4.4 0 0 1-.19-.06l-.01-.01a.2.2 0 0 1-.12-.14.58.58 0 0 1 .04-.4l.03-.05c.13-.22.17-.26.46-.27.04 0 .07.03.07.05 0 .04-.03.07-.06.07-.23 0-.23.01-.37.22l-.02.04a.37.37 0 0 0-.03.3c.01.03.03.05.05.05 0 0 .02 0 .03.02.11.04.17.05.18.03l.01-.02c.03-.05.04-.07.03-.12-.01-.03.01-.07.04-.08.03-.02.07.01.08.04.03.1 0 .15-.04.22l-.01.01c-.04.07-.1.1-.17.1z" /><path d="M18.81 25.32c-.25 0-.33-.13-.37-.22-.08-.25.11-.6.22-.68.27-.2.38-.18.52-.14.05.01.1.04.18.04.04 0 .06.03.05.07-.01.04-.03.07-.07.05-.1 0-.16-.02-.22-.04-.1-.04-.17-.05-.4.11-.07.06-.24.36-.17.53.01.03.04.14.25.13.13 0 .2-.02.23-.06.03-.03.04-.1.04-.23a.32.32 0 0 0-.1-.1c-.01.03-.04.06-.08.04-.03 0-.05-.04-.04-.06.03-.09.08-.1.12-.1.1.01.22.15.22.22 0 .16-.01.26-.07.31-.04.11-.13.13-.31.13.01 0 .01 0 0 0z" /><path d="M18.55 24.6c-.2 0-.33-.13-.34-.37-.01-.17.05-.41.2-.43.03 0 .06.03.06.06 0 .04-.03.07-.06.07-.04 0-.1.19-.06.35.02.12.1.2.23.2.08 0 .15-.13.15-.21 0-.09-.06-.09-.07-.09-.04 0-.07-.02-.07-.06 0-.04.03-.07.07-.07.12 0 .2.08.2.2 0 .15-.12.33-.27.34l-.04.02z" /><path d="M19.16 24.32h-.04c-.16-.03-.32-.2-.34-.33-.01-.23.08-.34.18-.4.2-.13.5-.09.65 0 .09.05.11.1.11.13 0 .04-.02.06-.06.07-.03 0-.06-.03-.07-.05-.03-.05-.26-.14-.47-.09-.15.04-.23.15-.21.33 0 .06.12.2.23.22.02 0 .1.01.17-.14v-.02-.02c-.04-.01-.06-.05-.05-.08.01-.03.05-.05.08-.04.04.01.07.04.08.08.02.04.02.08 0 .12-.06.2-.17.22-.26.22z" /><path d="M18.9 23.78l-.02-.02a1.6 1.6 0 0 0-.27-.08c-.05-.01-.06-.04-.06-.07.01-.04.04-.05.07-.05.03 0 .26.07.3.1.03 0 .04.05.03.08 0 .02-.03.04-.04.04zM19.14 23.64l-.04-.01c-.06-.06-.06-.11-.06-.15a.2.2 0 0 0-.01-.09c-.02-.02 0-.06.04-.08.03-.01.07 0 .08.04.03.07.01.11.01.14 0 .03 0 .03.02.05.03.03.03.07 0 .1h-.04zM20.64 23.97c-.1 0-.18-.03-.22-.08-.11-.14-.22-.3-.2-.48.02-.1.08-.18.19-.25.17-.1.57-.05.95 0 .04.02.08.02.1.02l.54.01a3 3 0 0 1 .44.01c.02.02.05.04.04.09-.02.02-.04.05-.08.04-.04-.02-.24-.02-.4-.02l-.54-.01-.11-.01c-.24-.05-.73-.13-.88-.03-.06.04-.1.1-.12.16-.01.12.08.26.16.37.09.1.48-.03.77-.12.23-.07.45-.14.6-.14h.28c.03-.03.07-.01.09.01.02.03.01.07-.02.1-.04.04-.13.04-.31.03h-.04c-.12 0-.36.07-.56.13-.26.09-.5.17-.68.17z" /><path d="M20.81 23.94c-.02 0-.05-.01-.06-.05 0-.02-.02-.03-.02-.03l-.01-.03c-.08-.19-.08-.37-.08-.56v-.1c0-.05.02-.08.07-.08.04 0 .06.03.06.07v.11c0 .18 0 .34.07.5l.02.02a.1.1 0 0 1 .02.07c.02.03-.01.07-.04.08h-.03zM21.41 23.7c-.04 0-.06-.02-.06-.06l-.04-.35c0-.05.02-.07.06-.07.04 0 .07.02.07.07l.04.32v.04c-.01.03-.04.06-.07.06zM21.88 23.67c-.03 0-.06-.02-.07-.06l-.01-.24v-.11c0-.04.02-.07.06-.07.05 0 .07.03.07.07v.1c0 .08-.01.16.02.21.01.04-.02.07-.06.08l-.01.02zM20.73 24.54a1.4 1.4 0 0 1-.47-.07l-.2-.04c-.02 0-.04-.01-.05-.03l-.03-.04c-.01-.03-.01-.07.02-.08.02-.01.06-.01.08.01l.01.02c.06.01.2.02.2.04.2.07.42.07.62.05h.18l.34-.02.24-.03c.09 0 .39-.11.77-.27.02-.02.08 0 .1.02 0 .03 0 .07-.03.08a3.7 3.7 0 0 1-1.05.32c-.11.01-.24.04-.36.04h-.37zM20.77 25.29l-.04-.02a.07.07 0 0 1 0-.09c.06-.05.52-.08.53-.08.32 0 1.55-.37 1.65-.55.02-.03.06-.04.09-.01.02.01.04.05.01.08-.16.23-1.43.59-1.76.6l-.45.05s-.01.02-.03.02z" /><path d="M21.67 25.11c-.04 0-.06-.03-.06-.07 0-.1-.07-.49-.09-.53-.01-.03-.01-.07.02-.08.02-.01.07-.01.08.01.04.07.1.52.1.6 0 .03-.02.07-.05.07zM22.25 24.93c-.04 0-.07-.02-.07-.06v-.07c0-.2 0-.3-.14-.48-.03-.03-.01-.07.02-.1.02-.02.06 0 .1.02.15.2.15.35.15.54v.07c0 .06-.04.08-.06.08zM23.84 25.15c-.04 0-.07-.03-.07-.07 0-.05.11-.76.28-.8.13-.04.15-.1.15-.14.02-.16-.2-.42-.39-.53a.74.74 0 0 1-.3-.8c.02-.12.09-.2.17-.2.1 0 .23.14.31.43.1.31.42.68.68.97.25.27.37.42.37.53 0 .16-.01.33-.12.4-.08.05-.2.02-.36-.06-.01-.01-.05-.03-.08-.07-.01-.03-.01-.07.02-.08.02-.01.06-.01.08.01l.02.03c.11.05.2.07.24.05.05-.04.06-.17.06-.28 0-.07-.17-.27-.34-.45-.26-.3-.6-.67-.7-1-.09-.28-.17-.35-.2-.35-.01 0-.04.03-.05.1-.04.17 0 .5.26.66.2.13.48.43.45.67-.02.08-.06.2-.25.25-.07.05-.19.57-.19.68.03.02 0 .05-.04.05z" /><path d="M24.41 26.24l-.02-.01c-.03-.02-.04-.06-.03-.08l.04-.07c.01-.03.04-.04.07-.03.08.01.13-.01.18-.05.16-.15.13-.59.1-.88v-.23c0-.04.03-.05.06-.05.04 0 .07.03.05.07 0 .05 0 .12.02.21.02.33.05.78-.15.97a.5.5 0 0 1-.23.1l-.02.02c-.03.02-.04.03-.07.03zM24.03 24.44s-.01 0 0 0c-.03 0-.04-.01-.05-.04-.02-.04-.13-.1-.2-.13l-.09-.07a2.6 2.6 0 0 1-.64-.7c-.07-.12-.33-.68-.18-.92.04-.06.11-.13.25-.11h.2v-.02c0-.02-.01-.06.03-.1.04-.03.1-.03.23 0a4.96 4.96 0 0 0 .18.29c.01.02.03.06.01.09-.01.02-.05.04-.08.02-.03 0-.1-.17-.15-.25l-.08-.02c0 .03 0 .07-.03.1-.04.04-.13.05-.3.04a.14.14 0 0 0-.13.04c-.1.15.06.6.17.79.13.2.41.5.62.65l.08.06.18.13c.02-.01.06-.01.08.02.02.02.02.07 0 .1l-.04.03h-.06z" /><path d="M23.02 22.62c-.02 0-.05-.01-.05-.04-.04-.17-.04-.53.12-.68.06-.06.14-.11.29-.06.2.07.2.27.2.44v.13c.02.05-.01.07-.05.07s-.08-.02-.08-.05c-.02-.06-.02-.11-.02-.17 0-.16 0-.28-.1-.3-.07-.02-.12-.02-.16.02-.1.1-.12.4-.08.56.02.02-.01.07-.04.08h-.03zM23.45 28.24c-.04 0-.07-.02-.07-.06 0-.07 0-.14-.02-.2 0-.17-.02-.32.1-.54l.03-.03.02-.02.03-.02c.03-.01.06-.01.07 0 .03.02.03.04.03.07l-.06.05-.01.02c-.1.18-.08.3-.07.45l.01.22c0 .04-.02.06-.06.06z" /><path d="M32.24 23.07a4.75 4.75 0 1 0-8.5-4.22 4.75 4.75 0 0 0 8.5 4.22z" fill="#FAAA42" /><path d="M28 25.97a5 5 0 1 1 .02-10.02A5 5 0 0 1 28 25.97zm0-9.74a4.75 4.75 0 0 0 0 9.47 4.75 4.75 0 0 0 0-9.47z" /><path d="M30.83 23.83a4 4 0 1 0-5.66-5.66 4 4 0 0 0 5.66 5.66z" fill="#BF1F2B" /><path d="M26.5 18.41l1.48.87 1.49-.87.36.63-1.85 1.08-1.84-1.08.36-.63zm-1.18.44l-.33.22.01.44 2.58 1.5v3.15l.42.25.41-.25v-3.14L31 19.53v-.42l-.4-.2-2.6 1.5-2.67-1.56zm.14 1.2l-.39.7 1.54.9v1.76h.76v-2.25l-1.9-1.1zm5.03 0l-1.91 1.12v2.24h.76v-1.76l1.54-.9c.01-.01-.39-.7-.39-.7z" fill="#F0F3FA" /><path d="M12.55 33.2s.57.5.6.67l.03.15.15.46.46-.45.1-.37s-.03-.46-.26-.51c-.25-.04-1.08.05-1.08.05z" fill="#BF1F2B" /><path d="M13.29 34.65l-.2-.6-.02-.17a2.87 2.87 0 0 0-.57-.61l-.15-.14.2-.02c.08-.02.86-.11 1.1-.06.3.06.35.55.35.6v.01l-.1.41-.61.58zm-.52-1.38c.2.19.45.45.48.57l.02.15.1.3.33-.31.08-.33c-.01-.14-.07-.4-.2-.42-.11-.01-.52.01-.81.04z" fill="#FAAA42" /><path d="M13.89 33.67s.19 1.1.43 1.28c.25.17-.6.49-.6.49l-1.44-.37s-.3-.41-.15-.7c.14-.28.53-.31.83-.34.3-.01.66-.1.93-.36z" fill="#BF1F2B" /><path d="M13.71 35.54l-1.49-.38v-.02c-.02-.02-.34-.47-.17-.8.16-.3.54-.35.87-.38h.04c.27-.02.61-.1.86-.35l.14-.14.02.2c.07.4.25 1.1.41 1.2.08.08.1.14.08.18-.02.22-.51.41-.72.5h-.04zM12.33 35l1.37.34c.27-.1.53-.24.57-.31-.23-.18-.38-.85-.45-1.17-.29.21-.61.27-.85.3h-.04c-.28.02-.6.05-.7.28-.1.16.02.44.1.56z" fill="#FAAA42" /><path d="M17.28 34s-.1-.27-.6-.13c-.5.13-1.97 1.06-2.85 1.2a4.52 4.52 0 0 1-1.56-.03l.84 2.53s1.02.28 1.9.02c.87-.26 1.8-.52 1.84-.67.02-.14.68-1.96.68-1.96l-.25-.96z" fill="#BF1F2B" /><path d="M14.15 37.8c-.58 0-1.04-.12-1.07-.12-.02-.01-.05-.02-.06-.06l-.85-2.54c-.01-.03 0-.07.01-.1.02-.02.06-.03.1-.02 0 0 .68.15 1.53.03a7.8 7.8 0 0 0 1.92-.78c.38-.2.72-.35.91-.42.59-.17.71.17.72.19v.01l.24.97V35c-.26.73-.66 1.84-.67 1.95-.04.16-.38.29-1.62.64l-.3.08c-.28.09-.59.13-.86.13zm-.97-.3c.2.06 1.06.22 1.8 0l.29-.09c.58-.18 1.39-.4 1.48-.52l.67-1.93-.23-.93c-.02-.02-.11-.17-.5-.07-.17.06-.5.22-.88.41-.63.32-1.42.71-1.98.8-.64.09-1.18.03-1.43 0l.78 2.34z" fill="#FAAA42" /><path d="M17.19 35.7h-.03c-.04-.02-.87-.28-1-.84-.12-.57.97-.91 1.1-.95.02-.01.05 0 .06.01.03.02.04.04.04.06l.24.96c0 .03 0 .05-.02.07l-.32.63c0 .04-.03.05-.07.05zm.02-1.57c-.32.1-.92.38-.85.7.08.36.6.58.79.66l.27-.53-.2-.83z" fill="#AF924C" /><path d="M43.43 33.2s-.57.5-.6.67l-.02.15-.15.46-.47-.45-.1-.37s.04-.46.27-.51a7.1 7.1 0 0 1 1.07.05z" fill="#BF1F2B" /><path d="M42.7 34.65l-.59-.58-.1-.4v-.02c0-.05.05-.54.35-.6.24-.05 1 .04 1.1.06l.2.02-.14.14c-.26.23-.56.53-.58.61l-.02.15-.22.62zm-.42-.67l.32.31.1-.31.03-.14c.02-.12.28-.38.47-.57-.28-.03-.7-.07-.83-.03-.12.03-.18.29-.19.42l.1.32z" fill="#FAAA42" /><path d="M42.1 33.67s-.2 1.1-.44 1.28c-.24.17.62.49.62.49l1.43-.37s.3-.41.15-.7c-.14-.28-.53-.31-.83-.34-.3-.01-.66-.1-.93-.36z" fill="#BF1F2B" /><path d="M42.28 35.54h-.03c-.2-.08-.7-.28-.72-.5 0-.04 0-.1.08-.18.15-.1.32-.77.4-1.2l.03-.2.14.14c.26.26.6.32.86.35h.04c.31.03.7.07.87.38.17.33-.15.77-.16.8l-.01.02-1.5.4zm-.56-.51c.02.07.3.21.57.31l1.36-.34c.08-.12.22-.4.13-.56-.11-.22-.44-.26-.71-.28h-.04a1.6 1.6 0 0 1-.85-.3c-.08.32-.25 1-.46 1.17z" fill="#FAAA42" /><path d="M38.7 34s.1-.27.6-.13c.5.13 1.98 1.06 2.85 1.2.88.13 1.57-.03 1.57-.03l-.84 2.53s-1.03.28-1.9.02c-.87-.26-1.81-.52-1.84-.67-.03-.14-.68-1.96-.68-1.96l.24-.96z" fill="#BF1F2B" /><path d="M41.84 37.8a2.9 2.9 0 0 1-.89-.12l-.3-.08c-1.24-.37-1.58-.49-1.62-.64-.03-.1-.4-1.21-.67-1.95v-.05l.23-.97v-.01c0-.02.14-.36.73-.2.2.06.53.23.91.43.61.31 1.4.7 1.92.78.85.12 1.53-.03 1.53-.03.03-.01.07 0 .1.03.02.02.02.05 0 .1l-.84 2.53a.17.17 0 0 1-.06.06s-.47.13-1.04.13zm-2.62-.9c.1.1.9.33 1.49.51l.3.08c.73.22 1.58.06 1.8 0l.77-2.33c-.25.04-.79.1-1.43 0a7.98 7.98 0 0 1-1.97-.79c-.39-.19-.7-.35-.89-.4-.38-.11-.48.04-.5.06l-.22.93c.1.29.61 1.74.65 1.93z" fill="#FAAA42" /><path d="M38.24 35.65a.1.1 0 0 1-.07-.02.08.08 0 0 1-.01-.1l.26-.67.23-.95c0-.03.03-.04.04-.05.03-.02.05-.02.07-.02.12.04 1.21.37 1.09.95-.12.56-1.45.85-1.6.88l-.01-.02zm.56-1.6l-.22.87v.01l-.19.5c.52-.12 1.21-.39 1.28-.68.06-.3-.54-.6-.87-.7z" fill="#FAAA42" /><path d="M39.73 34.84s-.66.4-1.27.13c-.62-.28-3.1-1.37-6.5-1.74a32.45 32.45 0 0 0-7.96 0 21.43 21.43 0 0 0-6.47 1.74c-.62.29-1.27-.13-1.27-.13a33 33 0 0 1 .94 3.09c.2.7.46.66.8.5.32-.16 2.76-.92 4.68-1.3 2.81-.55 7.8-.55 10.62 0a35.3 35.3 0 0 1 4.7 1.3c.32.16.6.2.79-.5.19-.7.85-3.05.94-3.1z" fill="#BF1F2B" /><path d="M18.19 36.54c.13-.06.28-.1.41-.14l-.37-.35-.04.49zm.98.24c-.06 0-.11.06-.17.06-.08-.14-.24-.27-.36-.37l-.44.16v.49c-.03 0-.1.02-.13.04.03-.44.08-.89.1-1.33l.03-.01c.34.3.64.65.97.96zm1.22-.34l.03-.01c0-.3-.26-.75-.34-1.05l-.03-.1a.11.11 0 0 1-.06.02l-.06.01c.05.1.08.2.12.32.05.1.08.21.12.34l.07.23a3.99 3.99 0 0 0-.25-.13l-.3-.16-.34-.18c-.12-.05-.22-.1-.31-.16l-.03.01c.11.32.37.85.37 1.18.01-.02.04-.02.06-.03.03 0 .04-.02.05-.02 0-.23-.2-.67-.32-.88l.62.33c.2.06.4.17.6.28zm1.16-1.33v-.07l.01-.07-.09-.01-.1-.02h-.13l-.16.03-.28.11c-.07.05-.15.1-.2.18a.58.58 0 0 0-.08.22c-.01.08 0 .17.02.27.03.1.07.17.11.24.06.07.12.13.2.15.07.04.16.06.24.06a1.39 1.39 0 0 0 .43-.08c.04-.02.09-.03.12-.06l.11-.05.1-.06-.02-.07-.02-.06-.06-.22-.03-.12c-.05 0-.1.04-.16.04.05.13.06.3.13.43l-.04.04c-.01.02-.04.03-.07.04-.03.02-.05.03-.08.03-.03.01-.05.01-.07.03a.47.47 0 0 1-.23.01.52.52 0 0 1-.21-.07c-.06-.04-.12-.08-.15-.13a.78.78 0 0 1-.1-.22c-.03-.1-.03-.18-.03-.25.02-.06.03-.13.06-.19.03-.05.09-.1.15-.13a.54.54 0 0 1 .2-.08c.05-.02.09-.02.13-.02a.3.3 0 0 1 .12.02c.05 0 .07 0 .1.02 0 .03.05.06.08.06zm1.48-.3v-.07l.01-.07-.08-.01-.1-.02h-.14a1.29 1.29 0 0 0-.44.12.59.59 0 0 0-.2.17c-.05.07-.1.14-.1.22a.58.58 0 0 0 0 .27c.04.1.07.2.12.26.05.07.12.12.2.16.07.04.16.07.24.07.1.01.2 0 .31-.03l.12-.02.13-.04a.3.3 0 0 0 .12-.06l.09-.04-.02-.07-.01-.07c-.02-.1-.05-.16-.05-.21-.01-.06-.01-.1-.03-.13l-.04.02-.04.01-.1.01.04.11c.01.04.01.09.03.13l.03.1.01.11a.2.2 0 0 1-.06.04.12.12 0 0 1-.07.03l-.07.03-.08.01c-.09.02-.16.02-.23.02a.77.77 0 0 1-.2-.07.38.38 0 0 1-.14-.15.58.58 0 0 1-.09-.22c-.01-.1-.03-.18-.01-.26a.44.44 0 0 1 .07-.19c.05-.05.09-.1.15-.13.06-.05.13-.06.2-.07.05-.02.1-.02.14-.02a.3.3 0 0 1 .11.02c.06.01.12.04.18.04zm.7.34l.1-.02h.1l.11-.02.1-.02-.26-.4-.15.46zm.9.43h-.14l-.04.02a.64.64 0 0 1-.04-.1l-.08-.1-.07-.13c-.03-.04-.04-.08-.07-.1h-.12l-.12.02-.11.01-.12.02-.08.27-.04.2h-.07l-.08.02c.08-.22.14-.43.2-.64l.2-.64h.03l.13.2c.04.07.09.15.15.22l.14.22.14.2c.04.07.07.12.11.16.03.09.06.13.08.15zm.13-.76l.03.3.03.23.01.22.09-.01h.09l-.05-.22a1.11 1.11 0 0 1-.03-.22l-.01-.12.07-.02c.05.03.1.09.15.13a114.3 114.3 0 0 0 .3.28c.05.04.08.09.11.1l.06-.01h.18l-.08-.07-.1-.1-.12-.1-.12-.12a58.05 58.05 0 0 0-.17-.16l.12-.04a.32.32 0 0 0 .11-.07.76.76 0 0 0 .1-.1l.02-.16c0-.05-.01-.1-.04-.12l-.1-.08a.46.46 0 0 0-.12-.03h-.15l-.1.01-.1.02-.1.01h-.11c.03.16 0 .3.03.45zm.16.08l-.01-.1c-.02-.06-.02-.11-.02-.18l-.01-.2h.07l.1-.02h.1c.03 0 .08.01.1.03.04.01.07.04.08.06l.04.11-.01.14a.25.25 0 0 1-.07.1l-.1.05-.12.03h-.08l-.07-.02zm1.01-.19l.02.3.01.23v.22l.13-.01c.05 0 .1 0 .14-.02h.26c.07 0 .15 0 .23-.04a.9.9 0 0 0 .22-.12.54.54 0 0 0 .15-.2.49.49 0 0 0 .04-.3c0-.1-.03-.17-.04-.25-.03-.07-.07-.12-.12-.18a.7.7 0 0 0-.2-.1c-.26-.1-.59 0-.87 0l.03.21v.26zm.18.29l-.02-.3-.01-.2v-.17l.13-.01.16-.02c.08 0 .15 0 .22.02.06.01.12.02.18.07.04.04.09.08.12.15l.05.24c.02.11 0 .2-.03.29a.55.55 0 0 1-.11.17.56.56 0 0 1-.18.1l-.2.04H26.18a.85.85 0 0 1-.07-.38zm1.54-.15h.4l-.2-.45-.2.45zm.82.56h-.18l-.03-.1-.04-.12-.06-.12-.04-.13h-.47l-.12.26-.07.2H27.3l.3-.6.3-.6h.03l.09.21.1.25.1.24c.03.08.08.15.1.22l.1.18c0 .04.02.08.04.1zm.94-.59l.03-.52.29.03.1.04c.03.02.05.04.06.08.02.03.02.07.02.13 0 .05-.02.1-.05.15a.24.24 0 0 1-.09.08l-.11.04h-.12a.31.31 0 0 1-.13-.03zm-.15-.13l-.01.3-.02.23c-.01.06-.01.15-.03.21h.09a.2.2 0 0 1 .09.02v-.22l.01-.23v-.1c.03 0 .05 0 .08.02h.23c.06 0 .12-.03.16-.04.06-.03.1-.06.13-.11.05-.04.06-.11.06-.18l-.01-.12c-.02-.03-.03-.07-.06-.08l-.07-.06a.22.22 0 0 0-.1-.03c-.13-.06-.4-.04-.55-.04V34.7zm1.25.28l.1.01.1.02.1.01c.03 0 .08 0 .1.02l-.15-.47-.25.41zm.76.63l-.04-.02h-.14l-.03-.1a.37.37 0 0 1-.03-.11 1.63 1.63 0 0 1-.04-.14l-.04-.12-.12-.02-.12-.01-.12-.01c-.04 0-.07 0-.11-.02a266.2 266.2 0 0 0-.23.44l-.08-.01h-.07c.11-.2.25-.39.36-.58l.37-.58h.03a2 2 0 0 0 .07.23l.08.24.07.25a2 2 0 0 1 .07.23l.06.2c.04.06.06.1.06.13zm.3-.41c0 .08-.02.15-.04.22l-.04.22a.2.2 0 0 1 .09 0l.09.02.02-.22c.02-.06.02-.15.03-.21l.02-.13.07.02c.03.04.08.1.1.16l.12.2.1.17.06.12h.06l.06.01c.01 0 .04 0 .06.02l.06.01-.06-.08-.07-.1-.08-.14a.62.62 0 0 1-.07-.14l-.07-.11-.05-.08c.03 0 .07 0 .12-.02.04 0 .09-.02.13-.04.04-.01.07-.05.12-.08.03-.04.06-.08.06-.13.01-.06 0-.1-.02-.14-.01-.04-.04-.07-.07-.1l-.12-.06c-.18-.06-.36-.09-.56-.11l-.11.72zm.18-.18l.02-.1.03-.18.11-.2a.3.3 0 0 1 .1.02c.04 0 .07.01.11.03a.3.3 0 0 1 .09.05l.06.08.01.11c-.01.06-.03.1-.06.12-.03.03-.06.06-.1.07-.04.02-.07.03-.12.03h-.11l-.08-.01-.06-.02zm1.2.29l.1.03c.02 0 .07 0 .1.02l.1.02.1.01-.1-.48-.3.4zm.68.68l-.04-.01c-.02 0-.03 0-.05-.02l-.04-.01h-.05l-.01-.1a.37.37 0 0 0-.03-.12l-.03-.14-.03-.12-.12-.03c-.04 0-.08 0-.11-.02l-.12-.03-.12-.01-.16.23a3.2 3.2 0 0 0-.12.19l-.07-.02h-.07l.42-.55.41-.55h.03l.05.23.05.26.06.26c.02.08.03.16.06.23a4.17 4.17 0 0 0 .09.33zm.66-1.12l-.03-.01-.12.27-.13.29-.13.3-.13.27.06.01c.03 0 .04.02.05.02l.06-.18.1-.22.08-.23.09-.22.11.5.12.47h.02c.11-.14.23-.26.35-.38l.36-.37c-.01.15-.04.3-.07.44l-.07.45h.09c.01 0 .03 0 .04.02l.04.02.05-.29.04-.3.05-.3.04-.33h-.03l-.15.15c-.04.06-.1.11-.16.17l-.16.16c-.04.06-.1.1-.14.15a.91.91 0 0 0-.12.12l-.08.08-.14-.53-.09-.53zm1.38.82l-.09.29-.07.21-.08.2.1.02c.02.02.05.02.08.03l.06-.22.06-.22.08-.28.08-.22.07-.22h-.04l-.05-.01-.04-.02-.04-.01c-.02.07-.03.15-.06.22a.9.9 0 0 1-.06.23zM36.46 35.9l-.1.28-.08.22-.08.2c.03 0 .05.02.08.03.03.02.06.02.1.03 0-.07.04-.14.05-.22l.07-.22.1-.28c.05-.11.1-.23.12-.34l.1.03.1.02.11.04.09.03.01-.05.03-.06-.23-.07-.24-.06-.23-.07a1.15 1.15 0 0 0-.23-.07c0 .03 0 .04-.02.05l-.03.06.09.01c.03.02.06.02.1.03.03.01.08.01.1.03l.1.02-.11.36zm.88.47l.09.03.09.03.1.03.1.02-.04-.47-.34.36zm.59.77c-.02-.02-.03-.02-.05-.02l-.04-.01-.05-.01-.04-.02v-.1-.12l-.01-.13v-.14l-.12-.04-.12-.04a.29.29 0 0 0-.1-.03.29.29 0 0 0-.1-.02c-.08.06-.14.15-.2.21l-.14.17-.06-.03-.07-.01c.16-.17.33-.33.5-.48l.48-.49.03.01.01.23.02.26.01.26.02.25.01.2c.02.03.02.07.02.1z" fill="#F0F3FA" /><path d="M17.68 38.64a.36.36 0 0 1-.17-.05c-.17-.08-.3-.28-.4-.64a40.1 40.1 0 0 0-.93-3.16c.03-.04.08-.06.12-.04l.01.02s.62.38 1.18.12c.88-.4 3.3-1.4 6.52-1.76 2.87-.32 5.1-.32 7.98 0 3.22.36 5.64 1.35 6.52 1.76.56.26 1.18-.12 1.18-.12v-.02c.05-.02.1 0 .13.04.03.05.02.09-.01.11-.11.2-.71 2.28-.93 3.05-.1.37-.22.58-.4.64-.17.09-.36 0-.53-.06a34.9 34.9 0 0 0-4.66-1.3 33.62 33.62 0 0 0-10.58 0 34.9 34.9 0 0 0-5.03 1.4zm-1.24-3.6c.28.78.84 2.85.86 2.87.08.3.17.47.28.52.08.04.2.02.37-.07a33.4 33.4 0 0 1 4.72-1.3c2.83-.56 7.81-.56 10.65 0 1.92.38 4.36 1.13 4.72 1.3.17.1.28.11.36.07.11-.05.2-.23.29-.52 0-.02.57-2.1.86-2.87-.26.1-.7.22-1.13.03-.88-.41-3.26-1.4-6.47-1.75a33.73 33.73 0 0 0-7.95 0c-3.19.36-5.57 1.34-6.46 1.75-.4.19-.84.08-1.1-.03z" fill="#FAAA42" /><path d="M26.54 37.46l.04.2.2-.11v.95h.2v-1.17h-.17l-.27.13zM27.58 37.3c-.23 0-.41.2-.41.42 0 .22.15.37.35.37.08 0 .15-.03.2-.07a.56.56 0 0 1-.1.18.4.4 0 0 1-.22.1H27.25v.19h.05c.03 0 .07 0 .11-.02a.5.5 0 0 0 .34-.16c.1-.08.2-.26.2-.55.02-.25-.14-.46-.37-.46zm-.02.2c.18 0 .2.2.2.3 0 .02 0 .02-.02.03-.04.07-.1.1-.19.1-.1 0-.18-.08-.18-.2 0-.14.08-.24.2-.24zM27.99 37.46l.05.2.18-.11v.95h.22v-1.17h-.17l-.28.13zM29.19 37.86a.3.3 0 0 0 .15-.26c0-.15-.11-.3-.36-.3a.54.54 0 0 0-.31.1l-.02.01.07.18.04-.03a.4.4 0 0 1 .2-.07c.12 0 .17.06.17.14 0 .1-.12.15-.22.15h-.1v.17h.1c.13 0 .25.06.26.2 0 .04-.01.1-.04.12-.04.04-.1.05-.16.05-.1 0-.2-.04-.23-.07l-.04-.02-.07.17.02.02c.06.04.17.08.3.08.3 0 .44-.18.44-.37a.38.38 0 0 0-.2-.27zM13.52 40c-.17 0-.33.01-.48.04l-.04.01V42h.35v-.75h.14c.26 0 .48-.08.61-.21a.6.6 0 0 0 .17-.44.6.6 0 0 0-.18-.44.9.9 0 0 0-.57-.16zm-.03.97c-.05 0-.1 0-.15-.02v-.64l.18-.01c.18 0 .4.05.4.31 0 .3-.27.36-.43.36zM14.5 40.32h.57V42h.34v-1.68H16V40H14.5v.32zM18.07 40.8h-.79V40h-.35v2h.35v-.88h.8V42h.35v-2h-.36v.8zM20.26 40l-.35.95-.15.47-.15-.47-.32-.95h-.4l-.13 2h.32l.06-.87.02-.5.14.42.31.94h.26l.34-.96.15-.42.03.5.06.89h.34l-.13-2h-.4zM22.5 40.83c-.25-.09-.34-.17-.34-.3 0-.1.09-.23.3-.23.15 0 .26.04.33.08l.06.03.1-.3-.05-.02a.87.87 0 0 0-.44-.09c-.38 0-.65.23-.65.54 0 .25.18.44.53.57.27.1.32.19.32.32 0 .16-.14.27-.35.27a.9.9 0 0 1-.4-.11l-.06-.04-.1.3.03.03c.11.08.33.12.5.12.53 0 .72-.3.72-.57.01-.3-.14-.46-.5-.6zM23.8 40l-.67 2h.37l.2-.6h.58l.2.6h.37l-.68-2h-.37zm.4 1.12h-.41l.16-.49.04-.15.06.17.15.47zM26.49 40l-.34.95c-.07.18-.11.33-.15.47l-.15-.47-.33-.95h-.4L25 42h.34l.05-.87c.02-.16.02-.33.03-.5l.14.42.3.94h.27l.34-.96.15-.42c0 .16.01.34.03.5l.05.89h.34l-.12-2h-.42zM27.85 40c-.16 0-.33.01-.48.04l-.04.01V42h.36v-.75h.13c.26 0 .48-.08.62-.21a.6.6 0 0 0 .16-.44.6.6 0 0 0-.18-.44.9.9 0 0 0-.57-.16zm-.03.97c-.05 0-.1 0-.15-.02v-.64l.18-.01c.18 0 .4.05.4.31 0 .3-.26.36-.43.36zM29.68 40c-.55 0-.93.41-.93 1.01 0 .58.37.99.9.99.46 0 .93-.32.93-1.01 0-.59-.37-.99-.9-.99zm-.02 1.7c-.36 0-.54-.37-.54-.7 0-.36.16-.7.54-.7.37 0 .55.35.55.69 0 .36-.16.7-.55.7zM31.2 41.12h.71v-.3h-.72v-.5h.76V40h-1.11v2H32v-.3h-.8v-.58zM33.44 41.42c-.04-.18-.1-.3-.22-.37.18-.1.29-.27.29-.5a.5.5 0 0 0-.17-.39c-.12-.1-.3-.16-.57-.16-.18 0-.35.01-.48.04l-.04.01V42h.36v-.81h.18c.19 0 .27.08.32.32.07.27.1.41.14.47l.01.02h.37l-.04-.08c-.04-.07-.1-.26-.15-.5zm-.27-.82c0 .19-.14.3-.37.3h-.2v-.59l.2-.01c.24 0 .37.1.37.3zM35 40.84v.52c-.06-.12-.13-.26-.22-.38l-.62-.98h-.35v2h.34v-.87l-.01-.55.24.42.61 1h.33v-2h-.34v.84H35zM36.2 40l-.66 2h.37l.19-.6h.59l.2.6h.37l-.68-2h-.37zm.39 1.12h-.4l.15-.49.05-.15c0 .06.02.11.05.17l.15.47zM37.86 40.32h.57V42h.36v-1.68h.57V40h-1.5v.32zM40.24 40.49a.58.58 0 0 0-.4.15v-.75h-.36v1.67l-.01.34v.1h.31v-.18c.11.11.25.17.41.17.33 0 .65-.26.65-.78a.8.8 0 0 0-.2-.57.55.55 0 0 0-.4-.15zm.26.75c0 .28-.13.46-.35.46a.32.32 0 0 1-.31-.24l-.02-.09v-.24c0-.03 0-.06.02-.08v-.02a.35.35 0 0 1 .32-.26c.25.02.34.24.34.47zM42.23 40.52h-.44l-.4.49c-.02 0-.02.02-.04.04v-1.16H41v2.1h.35v-.54l.07-.07.44.62h.44l-.63-.86.56-.62zM42.68 41.54c-.12 0-.21.1-.21.23 0 .14.1.23.21.23.14 0 .22-.1.22-.23 0-.14-.1-.23-.22-.23z" fill="#000002" /></svg>