<!-- by TradeStack --><svg width="56" height="56" viewBox="0 0 56 56" xmlns="http://www.w3.org/2000/svg"><path fill="#F0F3FA" d="M0 0h56v56H0z"/><path d="M13 43V17h1v26h-1Zm5-26h12c4.25 0 8 2.55 8 7 0 5.77-3.17 7-7.99 7H26v-1h4c4.29 0 7-.8 7-6 0-3.9-3.3-6-7-6H19v25h-1V17Z" fill="#202C62"/><path d="M32 14h-3v-1h3c6.25 0 11 4.76 11 11 0 6.28-4.5 12-10.95 12H22V22h9c1.57 0 3 .62 3 2.5 0 2.01-1.3 2.5-3 2.5h-5v-1h5c1.11 0 2-.1 2-1.5 0-1.26-1.02-1.5-2-1.5h-8v12h8.98C37.5 35 42 29.77 42 24c0-5.7-4.29-10-10-10Z" fill="#1B71B8"/></svg>