<!-- by TradeStack --><svg viewBox="0 0 56 56" xmlns="http://www.w3.org/2000/svg"><path fill="#32425B" d="M0 0h56v56H0z"/><path fill-rule="evenodd" d="M6 35V21h4.93c2.25 0 4.07 1.97 4.07 4.4 0 2.43-1.82 4.6-4.07 4.6H8v5H6Zm2-12h2.72c1.26 0 2.28 1.12 2.28 2.5S11.98 28 10.72 28H8v-5Zm42-.71v2.2A6.18 6.18 0 0 0 46.05 23C43.84 23 42 24.72 42 28.12c0 3.41 2.63 4.99 4.05 4.99s3.65-1.13 3.95-1.7v2.12A7.16 7.16 0 0 1 45.68 35c-2.6 0-5.68-1.87-5.68-6.88 0-5 3.41-7.12 6.16-7.12 2.2 0 3.48.92 3.84 1.29ZM16 21h2v6h6v-6h2v14h-2v-6h-6v6h-2V21Zm13 10.26v2.56c.52.33 2.41 1.18 4.78 1.18 2.96 0 5.22-1.61 5.22-4 0-2.39-2.44-3.78-4.47-4.14-2.04-.35-3.53-.98-3.53-2.05 0-1.07 1.21-1.81 3.35-1.81 1.7 0 3.4.74 4.02 1.25v-2.16a10.04 10.04 0 0 0-4.4-1.09C31.56 21 29 22.5 29 25.02c0 2.51 3.48 3.5 4.98 3.75 1.5.25 3.1 1.23 3.1 2.19S35.96 33 33.78 33c-1.74 0-4-1.13-4.78-1.74Z" fill="#fff"/></svg>