<?xml version='1.0' encoding='utf-8'?>
<!-- by TradeStack -->
<svg width="56" height="56" viewBox="0 0 56 56" xmlns="http://www.w3.org/2000/svg"><path fill="#F0F3FA" d="M0 0h56v56H0z" /><path d="M38.58 32.06c-.43 5.77-5.82 18.88-14.8 13.02l-.17-.14c.16-1.05.38-2.47.5-3.5l1.3-10.51c.4.05.8.08 1.2.07 4.98 0 10.3-4.83 10.84-11.38 1.44 4.7 1.44 8.14 1.13 12.44ZM20.45 39.5l-.17 1.16a25.3 25.3 0 0 1-3.08-12.02c-.18-9.54 4.87-18.8 10.6-18.8 3.1 0 4.73 2.84 4.73 7.47 0 5.89-2.32 11.7-5.4 11.7-.5-.04-1-.11-1.5-.22l1.2-9.54c.2-1.51.43-3.66.87-6.15-2 1.04-4.73 1.24-5.46 1.38l-.2 1.51c.09-.05.2-.08.3-.06.37 0 .75.62.75 1.38-.03.65-.1 1.3-.19 1.94L20.45 39.5ZM36.2 13.63C34.5 10.39 31.24 8 28.16 8 20.3 8 15.53 19.02 16.04 29.8c.27 6.02 3.16 11.96 4.23 13.37.83 1.23 1.88 2.3 3.09 3.14 7.77 5.71 15.23-4.1 16.33-13.85.47-4.03 1.03-10.72-3.46-18.8" fill="#231F20" /></svg>