<!-- by TradeStack --><svg width="56" height="56" viewBox="0 0 56 56" xmlns="http://www.w3.org/2000/svg"><path fill="#F0F3FA" d="M0 0h56v56H0z"/><path d="m28 14 12 4v18l-12 5-12-4.01V17.86C19.9 16.62 28 14 28 14Z" fill="url(#a)"/><path d="m24.5 13 3.5 1s-8.08 2.67-12 3.9V16l8.5-3Z" fill="#88BBF9"/><path d="m38.1 15.52-.81 1.66L24.5 13h6.44l7.16 2.52Z" fill="#016ADB"/><path d="M44 19.5s-4.69-1.67-6.71-2.32l.8-1.66c.47.12 1.35.44 1.35.44L44 19.5Z" fill="#025ABE"/><path d="M44 19.47v17.5L40 36V18l4 1.47ZM15 18v19.56l-3 1.74V19l3-1Z" fill="#529AF8"/><path d="M44 36.57V39l-4-3 4 .57Z" fill="#00285B"/><path d="m16 37 9.5 3-5.5 2-8-2.76L16 37Z" fill="#025ABE"/><path d="m44 39-11 4 7.99-6.3L44 39Z" fill="#88BBF9"/><path d="m25.5 40 7.38 3H22.62s-1.73-.69-2.62-1l5.5-2Z" fill="#2479DF"/><path d="M16 16v1.9L12 19l4-3Z" fill="#00285B"/><defs><linearGradient id="a" x1="28" y1="14" x2="28" y2="41" gradientUnits="userSpaceOnUse"><stop stop-color="#ECFCFF"/><stop offset="1" stop-color="#B3D4FF"/></linearGradient></defs></svg>