<?xml version='1.0' encoding='utf-8'?>
<!-- by TradeStack -->
<svg width="56" height="56" viewBox="0 0 56 56" xmlns="http://www.w3.org/2000/svg"><path fill="#F0F3FA" d="M0 0h56v56H0z" /><path d="M41 32c0-.57.11-1.09.34-1.54.23-.46.54-.82.93-1.07.4-.26.84-.39 1.33-.39.57 0 1.07.17 1.5.5.43.34.73.8.9 1.4h-1.18c-.12-.28-.28-.49-.5-.63a1.29 1.29 0 0 0-.73-.21c-.3 0-.57.08-.8.24-.23.16-.41.39-.54.68-.13.29-.2.63-.2 1.02 0 .4.07.73.2 1.03a1.4 1.4 0 0 0 1.34.92c.28 0 .52-.07.73-.21.22-.15.38-.36.5-.64H46c-.17.6-.47 1.07-.9 1.4-.43.33-.93.5-1.5.5-.5 0-.94-.13-1.33-.38-.4-.26-.7-.61-.93-1.07A3.45 3.45 0 0 1 41 32ZM40 29v6h-1v-6h1ZM36 35l-1.18-2.34H34V35h-1v-6h2c1.03 0 1.94.67 1.94 1.84 0 .83-.48 1.5-1.22 1.73L37 35h-1Zm-2-3.24h.97c.59 0 .87-.34.87-.9 0-.55-.3-1-.87-1H34v1.9ZM32 29v.86h-1.5V35h-1v-5.14H28V29h4ZM22 32c0-.57.11-1.09.34-1.54.23-.46.54-.82.93-1.07.4-.26.84-.39 1.33-.39.57 0 1.07.17 1.5.5.43.34.73.8.9 1.4h-1.18c-.12-.28-.28-.49-.5-.63a1.29 1.29 0 0 0-.73-.21c-.3 0-.57.08-.8.24-.23.16-.41.39-.54.68-.13.29-.2.63-.2 1.02 0 .4.07.73.2 1.03a1.4 1.4 0 0 0 1.34.92c.28 0 .52-.07.73-.21.22-.15.38-.36.5-.64H27c-.17.6-.47 1.07-.9 1.4-.43.33-.93.5-1.5.5-.5 0-.94-.13-1.33-.38-.4-.26-.7-.61-.93-1.07A3.45 3.45 0 0 1 22 32ZM19 29.86v1.71h2v.86h-2v1.71h2V35h-3v-6h3v.86h-2ZM15 34.14h2V35h-3v-6h1v5.14ZM11 29.86v1.71h2v.86h-2v1.71h2V35h-3v-6h3v.86h-2ZM46.54 25.86h-2.09L44.11 27H43l1.89-6h1.22L48 27h-1.11l-.35-1.14Zm-.28-.96-.76-2.5-.76 2.5h1.52ZM40.98 23.92c.63.14 1.02.8 1.02 1.46 0 1.04-.82 1.62-1.73 1.62H38v-6h2.17c.87 0 1.7.52 1.7 1.55.01.7-.34 1.18-.89 1.37ZM39 23.57h1.02c.5 0 .78-.37.78-.84 0-.48-.28-.87-.78-.87H39v1.71Zm1.12 2.57c.51 0 .81-.41.81-.91 0-.52-.33-.8-.84-.8H39v1.71h1.12ZM36 21v6h-1v-4l-1.58 4h-.83L31 23.1V27h-1v-6h1.15L33 25.46 35 21h1ZM27.54 25.86h-2.09L25.11 27H24l1.89-6h1.22L29 27h-1.11l-.35-1.14Zm-.28-.96-.76-2.5-.76 2.5h1.52ZM22 27l-1.18-2.34H20V27h-1v-6h2c1.03 0 1.94.67 1.94 1.84 0 .83-.48 1.5-1.22 1.73L23 27h-1Zm-2-3.24h.97c.59 0 .87-.34.87-.9 0-.55-.3-1-.87-1H20v1.9ZM16 21.86v1.71h2v.86h-2v1.71h2V27h-3v-6h3v.86h-2ZM13 21v6h-1v-2.57H9V27H8v-6h1v2.57h3V21h1Z" /></svg>