<?xml version='1.0' encoding='utf-8'?>
<!-- by TradeStack -->
<svg width="56" height="56" viewBox="0 0 56 56" xmlns="http://www.w3.org/2000/svg"><path fill="#F0F3FA" d="M0 0h56v56H0z" /><path d="M35.61 13c2 .07 5.6.71 5.97 8.64-1.32-3.4-4.2-4.57-5.97-4.27C21.01 19.87 13.78 36.83 12 45c2.21-25.68 16.66-32.03 23.61-32Z" fill="#C86635" /><path d="M36.46 19.22c1.95.07 6.22.65 5.45 7.64a5.17 5.17 0 0 0-5.78-3.59c-13.18 1.71-20.49 16.26-20.87 18.39 1.71-13.15 14.4-22.48 21.2-22.44Z" fill="#A73D2A" /><path d="M37.12 25.07c1.95.07 6.27.22 4.4 7.24-.58-4.8-4.32-4.46-6.05-4.23C24.33 29.52 19.08 39 18.94 39.54c1.73-7.23 11.38-14.5 18.17-14.47Z" fill="#74757A" /></svg>