<!-- by TradeStack --><svg width="56" height="56" viewBox="0 0 56 56" xmlns="http://www.w3.org/2000/svg"><path fill="url(#a)" d="M0 0h56v56H0z"/><path fill-rule="evenodd" d="M30.46 11.18C29.82 10.63 28.83 10 28 10c-.84 0-1.83.63-2.47 1.18-1.05.88-2 1.87-2.86 2.96a60.95 60.95 0 0 0-7.02 11.09 30 30 0 0 0-2.14 5.65 12.65 12.65 0 0 0-.42 4.88 7.05 7.05 0 0 0 2.12 4.18c1.74 1.68 4.1 2.67 6.47 3.25A29.64 29.64 0 0 0 28 44a29.61 29.61 0 0 0 6.32-.81c2.37-.58 4.73-1.57 6.47-3.26a7.04 7.04 0 0 0 2.12-4.18c.23-1.58 0-3.25-.42-4.87a30 30 0 0 0-2.14-5.66 61 61 0 0 0-7.02-11.08 20.83 20.83 0 0 0-2.87-2.96Zm-1.7-.35a1.61 1.61 0 0 0-.76-.19c-.28 0-.54.06-.77.19-.8.41-1.5.94-2.12 1.57a32.38 32.38 0 0 0-3.32 3.93 74.66 74.66 0 0 0-3.9 6.04 44.5 44.5 0 0 0-3.05 6.42c-.57 1.5-.94 2.97-1.12 4.42-.1.73-.1 1.48-.02 2.25.35 3.65 3.56 5.71 6.78 6.72a26.89 26.89 0 0 0 7.52 1.2 26.86 26.86 0 0 0 7.51-1.2c3.23-1 6.43-3.07 6.79-6.72.07-.77.07-1.51-.02-2.24a19.06 19.06 0 0 0-1.13-4.42 44.58 44.58 0 0 0-3.05-6.43c-1.13-1.97-2.43-3.99-3.9-6.04a32.36 32.36 0 0 0-3.31-3.93 8.55 8.55 0 0 0-2.12-1.57ZM24.07 21c-.02 0-.03 0-.04-.02a.07.07 0 0 1-.02-.05V19.2c0-.32.12-.62.33-.85.21-.22.5-.35.8-.35h5.75c.3 0 .58.13.8.35.2.23.32.53.32.85v1.73c0 .02 0 .04-.02.05a.06.06 0 0 1-.04.02h-7.88Zm2.13 10.98c-1.07 0-1.19.92-1.19 1.84a3549.9 3549.9 0 0 0-.02 4.15l-.03.02c-.42.02-1.56.01-1.95-.03-.54-.05-1-.27-1.39-.66-.37-.38-.6-.83-.61-1.35-.02-1.54-.01-4.17 0-7.88V25.3c0-2.03 2-3.32 3.86-3.3h4.08c1.09.01 2.06.85 2.06 1.84v6.05c0 1.69-.88 2.09-2.56 2.09h-2.25ZM32 28.79v-3.84c0-.8-.05-1.28-.07-1.42l-.05-.27c-.06-.36-.1-.7-.42-1.01a.15.15 0 0 1-.04-.08v-.08a.15.15 0 0 1 .07-.07.17.17 0 0 1 .08-.02c2.47-.02 3.43 2.4 3.43 4.49v9.18c0 1.3-1.08 2.04-2.35 2.26-.26.04-.68.06-1.25.06h-4.46l-.85.01-.03-.01-.02-.01-.04-.02V36.9c0-.5.08-.85.16-1.05.14-.34.4-.58.77-.7.2-.08.55-.14 1.03-.15h2.35c1.38 0 1.7-.92 1.69-2.16v-4.05Z" fill="#FA9D25"/><defs><linearGradient id="a" x1="10.42" y1="9.71" x2="68.15" y2="76.02" gradientUnits="userSpaceOnUse"><stop stop-color="#1A1E21"/><stop offset="1" stop-color="#06060A"/></linearGradient></defs></svg>