<!-- by TradeStack --><svg width="56" height="56" viewBox="0 0 56 56" xmlns="http://www.w3.org/2000/svg"><path fill="#F0F3FA" d="M0 0h56v56H0z"/><path d="m27.79 11 1.28 2H26.5l1.28-2Zm-2.56 4 .64-1h3.84l.29.46-.35.54h-4.42Zm3.78 1H24.6l-.64 1h4.42l.64-1Zm-1.27 2H23.3l-.64 1h4.43l.64-1Zm-1.28 2h-4.42l-.64 1h4.42l.64-1Zm-1.3 2h-4.41c-.2.32-.37.66-.54 1h4.42c.17-.34.35-.68.54-1Zm-.96 2h-4.43c-.12.33-.24.66-.34 1h4.42c.1-.34.22-.67.34-1Zm-.62 2h-4.42c-.07.33-.13.67-.18 1h4.42c.05-.33.11-.67.18-1Zm.16 6h-4.42c.1.34.24.68.39 1h4.42a8.6 8.6 0 0 1-.4-1Zm.94 2h-4.42c.23.35.5.69.78 1h4.42c-.29-.31-.55-.65-.78-1Zm1.89 2h-4.42A9.31 9.31 0 0 0 30 37.64 9.2 9.2 0 0 1 26.57 36Z" fill="#00ADE8"/><path d="m21.8 11 1.25 2h-2.51l1.26-2Zm-1.89 3h3.77l.32.5-.31.5h-4.4l.62-1Zm3.15 2h-4.4l-.64 1h4.41l.63-1Zm-1.26 2h-4.4l-.63 1h4.4l.63-1Zm-1.25 2h-4.41l-.63 1h4.4l.64-1Zm-1.27 2h-4.4c-.2.32-.37.66-.54 1h4.41c.17-.34.34-.68.53-1Zm-.96 2h-4.4c-.13.33-.24.66-.35 1h4.41c.1-.34.22-.67.34-1Zm-.6 2h-4.4c-.08.33-.14.67-.19 1h4.41c.05-.33.11-.67.18-1Zm.15 6h-4.4c.1.34.23.68.38 1h4.4a8.68 8.68 0 0 1-.38-1Zm.93 2h-4.4c.22.35.48.69.76 1h4.41a7.54 7.54 0 0 1-.77-1Zm1.86 2h-4.41A9.03 9.03 0 0 0 24 37.63 8.98 8.98 0 0 1 20.66 36Zm-5.34-5h-2.11c-.07-.33-.12-.66-.15-1h2.42l-.16 1Zm.3-2H13a12.63 12.63 0 0 1 .03-1h2.75l-.15 1Z" fill="#282760"/><path d="M40.46 21.22 33.95 11l-6.51 10.22a13.71 13.71 0 0 0-2.3 5.78H42l-.79 5H25.45a7.95 7.95 0 0 0 1.99 3.33 9.27 9.27 0 0 0 13.02 0A8.98 8.98 0 0 0 43 28.88c.02-2.62-.89-5.38-2.54-7.66Z" fill="#037BB0"/><path d="M34.1 44c3.92 0 7.57-4 8.9-6-2.15 1.7-4.95 3-8.71 3-3.76 0-8.3-2-12.95-2-3.72 0-6.44 1.84-7.34 2.88A9.89 9.89 0 0 1 19.31 40c4.66 0 9.9 4 14.8 4Z" fill="#30296C"/><path d="m38.68 30.96 1.27-2.92h.9l.15 2.92h-.66l-.02-.63h-.71l-.26.63h-.67Zm1.15-1.17h.48l-.03-1.11-.45 1.1ZM37.56 31c-.57 0-.9-.39-.9-1.05 0-.82.35-1.95 1.42-1.95.52 0 .8.36.86.74l-.59.2c-.04-.15-.13-.37-.35-.37-.5 0-.68.94-.68 1.33 0 .35.11.53.33.53.2 0 .36-.15.4-.35l.05-.27h-.34l.1-.51h1l-.15.76c-.13.64-.58.94-1.15.94ZM34.06 30.96l1.28-2.92h.89l.15 2.92h-.66l-.01-.63h-.72l-.26.63h-.67Zm1.15-1.17h.48l-.02-1.11-.46 1.1ZM33.14 30.96l.56-2.92h.65l-.56 2.92h-.65ZM30.69 30.96l.56-2.92h.74l.24 1.86.36-1.86h.65l-.56 2.92h-.74l-.24-1.86-.36 1.86h-.65ZM27.79 30.96l.55-2.92H29l-.2 1.05.81-1.05h.74l-1.01 1.28.46 1.64h-.69l-.3-1.22-.17.16-.2 1.06h-.65ZM25.23 30.96l1.28-2.92h.89l.16 2.92h-.66l-.02-.63h-.72l-.26.63h-.67Zm1.15-1.17h.48l-.02-1.11-.46 1.1ZM24.14 31c-.57 0-.91-.39-.91-1.05 0-.82.36-1.95 1.43-1.95.51 0 .8.36.85.76l-.58.2c-.04-.17-.13-.4-.35-.4-.5 0-.69.95-.69 1.34 0 .33.11.53.33.53.2 0 .36-.24.46-.4l.55.2c-.16.44-.54.77-1.09.77ZM20.65 30.96l.56-2.92h.74l.24 1.86.36-1.86h.65l-.56 2.92h-.74l-.24-1.86-.36 1.86h-.65ZM18.82 28.04h.66l-.35 1.8c-.05.24-.1.6.21.6.22 0 .36-.16.44-.6l.35-1.8h.65l-.35 1.8c-.16.82-.48 1.16-1.14 1.16-.77 0-.93-.56-.82-1.15l.35-1.8ZM16 30.96l.56-2.92h.95c.49 0 .79.32.79.82 0 .65-.39 1.26-1.16 1.26h-.33l-.15.84H16Zm.92-1.4h.27c.31 0 .44-.37.44-.64 0-.19-.08-.31-.26-.31h-.27l-.18.94Z"/></svg>