<?xml version='1.0' encoding='utf-8'?>
<!-- by TradeStack -->
<svg width="56" height="56" viewBox="0 0 56 56" xmlns="http://www.w3.org/2000/svg"><path fill="#F0F3FA" d="M0 0h56v56H0z" /><path d="M15 15.16v14.77c0 .16.22.21.3.08l9.08-14.77c.06-.1-.02-.24-.14-.24h-9.08a.16.16 0 0 0-.16.16Zm0 17.04v8.05c0 .14.17.2.27.11l26.68-25.05c.1-.1.03-.27-.11-.27H26.9c-.11 0-.21.06-.27.14L15.03 32.11a.15.15 0 0 0-.03.1Zm1.96 8.8H41.5c.14 0 .22-.17.12-.27l-11.5-11.6a.16.16 0 0 0-.23-.01l-13.04 11.6c-.1.1-.03.28.11.28Z" fill="#00A1D3" /></svg>