<!-- by TradeStack --><svg width="56" height="56" viewBox="0 0 56 56" xmlns="http://www.w3.org/2000/svg"><path fill="#F0F3FA" d="M0 0h56v56H0z"/><path d="M48.8 24.16c-.02-.01-.26-.16-.6-.16-.34 0-.58.15-.6.16L44.4 32s1.93-.37 3.8-.37c1.87 0 3.8.37 3.8.37l-3.2-7.84Zm-2.25 6.2 1.62-4.28h.06l1.62 4.28c-.24-.03-.93-.1-1.65-.1-.72 0-1.4.07-1.65.1ZM6.84 24c.9 0 1.57.26 2.03.77.46.51.67 1.12.67 1.85s-.23 1.5-.71 1.99c-.48.48-1.18.73-2.13.73H5.43V32H4v-8h2.84Zm-.08 4c.85 0 1.31-.62 1.31-1.31 0-.69-.45-1.31-1.2-1.31H5.45V28h1.3ZM18.3 32l-2.32-3.26-.98 1.23V32h-1.45v-8H15v3.92L18.12 24h1.75l-2.93 3.66 3.15 4.33-1.78.01ZM23.89 30.61l.86-1c.5.76 1.18 1.14 2.05 1.14.71 0 1.2-.4 1.2-.92 0-.35-.24-.65-.73-.9l-.77-.32a9.1 9.1 0 0 1-.92-.43c-.83-.48-1.23-1.12-1.23-1.94 0-.64.24-1.17.73-1.6.46-.42 1.1-.64 1.86-.64 1.03 0 1.87.37 2.52 1.08l-.81 1.04a2.34 2.34 0 0 0-1.7-.77c-.63 0-1.06.33-1.06.83 0 .32.22.6.65.82l.82.38c.44.18.75.32.94.43.86.44 1.3 1.08 1.3 1.92 0 .7-.28 1.27-.79 1.7-.51.44-1.2.67-2.03.67a3.35 3.35 0 0 1-2.9-1.49ZM34 32v-8h1.46v3.23H39V24h1.46v7.99H39v-3.33h-3.54v3.33L34 32Z"/></svg>