<!-- by TradeStack --><svg width="56" height="56" viewBox="0 0 56 56" xmlns="http://www.w3.org/2000/svg"><path fill="#0266A4" d="M0 0h56v56H0z"/><path d="M13 36.98V19l.02-.02 14.96-8.97a.04.04 0 0 1 .04 0l14.96 8.98a.04.04 0 0 1 .02.03V37l-.02.01L28.02 46a.04.04 0 0 1-.04 0l-14.96-8.97a.04.04 0 0 1-.02-.04Zm12.9-19.26 5.06 2.54H31l1.9-1.18.03-.01h.02c1.88 1.1 3.77 2.18 5.65 3.26.1.05.21.14.31.14h3.07c.02 0 .02-.01.02-.03V19.6a.06.06 0 0 0-.02-.02L28 11.2h-.03l-13.96 8.38c-.02.01-.02.02-.02.04v2.84h4.47a.1.1 0 0 0 .05-.01l7.34-4.73h.05Zm1.55 4.74h9.18c.08 0 .21.04.33 0 .02 0 .02-.01 0-.03l-.19-.13a1124.13 1124.13 0 0 0-3.84-2.33h-.04l-1.85 1.35a.1.1 0 0 1-.12 0l-1.25-.72a.04.04 0 0 0-.04 0l-2.54 1.82c-.02.02-.02.03 0 .03.13.03.27 0 .36 0ZM42 23.74H14v12.64c0 .02 0 .03.02.04l13.95 8.38a.05.05 0 0 0 .06 0l13.94-8.37c.01 0 .03-.02.03-.04V23.74Z" fill="#fff"/><path d="M27.45 22.46c-.1 0-.23.02-.35 0-.03-.01-.03-.02 0-.04l2.53-1.82a.04.04 0 0 1 .04 0l1.25.73a.1.1 0 0 0 .12 0l1.85-1.35a4.92 4.92 0 0 1 .27.13 1115.89 1115.89 0 0 1 3.8 2.32c.02.02.02.03 0 .03-.12.04-.25 0-.33 0h-9.18Z" fill="#9FF0EA"/><path d="m18.52 23.7 1.5 4.5.17.3a719.3 719.3 0 0 0 2.28 3.26c.15.21.23.66.29.89l.93 3.6c.02.07.04.11.07.14l4.77 3.95c.02.02.04.02.05 0L33.45 34a.59.59 0 0 0 .1-.23l1.15-5.7a.41.41 0 0 1 .1-.18c.32-.38 3.57-4.08 3.56-4.14.03-.03.06-.06.1-.06h3.51c.02 0 .03.02.03.04V36.4c0 .02-.02.03-.03.04L28.03 44.8a.05.05 0 0 1-.06 0l-13.95-8.38c-.02 0-.02-.02-.02-.04V23.73c0-.02 0-.03.02-.03h4.5Z" fill="#6CDBD5"/><path d="M25.98 23.7a139.72 139.72 0 0 0-.55 2.68l.01.09 3.5 6.37h.01a.02.02 0 0 0 .03 0v-.02l-.67-5.9v-.06l1.98-3.13h2.66l-2.83 3.22a.1.1 0 0 0-.02.08l.92 5.88v.15l-2.46 4.85c-.14.28-.09.92-.08 1.25l.01.01a.02.02 0 0 0 .02 0l4.32-5.72a.33.33 0 0 0 .06-.13l1.06-5.63a.6.6 0 0 1 .15-.3l3.28-3.67h1.04L34.8 27.9a.41.41 0 0 0-.09.17c-.55 2.72-.93 4.62-1.16 5.7a.59.59 0 0 1-.1.24 6359 6359 0 0 0-4.86 6.33c-.02.02-.03.02-.05 0l-4.77-3.95c-.03-.03-.05-.07-.07-.13l-.93-3.61c-.07-.23-.14-.68-.3-.9a716.9 716.9 0 0 1-2.28-3.25 1.54 1.54 0 0 1-.15-.3l-1.51-4.5c.27-.02.6 0 .8 0a1012.62 1012.62 0 0 0 6.66 0Z" fill="#D2FFF6"/><path d="M25.97 23.73h4.35l-2 3.13a.08.08 0 0 0-.01.06l.67 5.9v.02h-.01a.02.02 0 0 1-.02 0l-3.5-6.37a.12.12 0 0 1-.02-.08l.54-2.66ZM37.41 23.72 34.1 27.4a.6.6 0 0 0-.15.3l-1.06 5.63c0 .04-.03.08-.06.13a7890.04 7890.04 0 0 0-4.34 5.72v-.01c-.02-.33-.07-.97.08-1.25.8-1.62 1.63-3.23 2.45-4.85v-.15l-.92-5.88c0-.03 0-.06.02-.08l2.82-3.23h4.47Z" fill="#6CDBD5"/></svg>