<?xml version='1.0' encoding='utf-8'?>
<!-- by TradeStack -->
<svg width="56" height="56" viewBox="0 0 56 56" xmlns="http://www.w3.org/2000/svg"><path fill="#D80911" d="M0 0h56v56H0z" /><path d="M9.08 23h37.84c2.8 0 5.08 2.32 5.08 5.15C52 31 49.71 33 46.92 33H9.08C6.28 33 4 30.99 4 28.15A5.13 5.13 0 0 1 9.08 23Z" fill="#FFE400" /><path fill-rule="evenodd" d="M46.92 23.3H9.08a4.83 4.83 0 0 0-4.78 4.85c0 2.67 2.16 4.54 4.78 4.54h37.84c2.62 0 4.78-1.87 4.78-4.54a4.83 4.83 0 0 0-4.78-4.85Zm0-.3H9.08A5.13 5.13 0 0 0 4 28.15C4 31 6.29 33 9.08 33h37.84c2.8 0 5.08-2.01 5.08-4.85A5.13 5.13 0 0 0 46.92 23Z" /><path d="M8 25H7v6h1v-5h2.34c.36 0 .66.44.66.98 0 .56-.3 1.02-.68 1.02H8.9l-.39 1h1.8c1 0 1.81-.92 1.81-2.03 0-1.09-.78-1.97-1.75-1.97H8ZM17 31h-1l-2-5-2 5h-1l2.4-6h1.2l2.4 6Z" /><path d="m13 29.99.62-.99H16v1l-3-.01ZM17 25h1v4c0 .5.5 1 1 1h1v1h-.9c-1.16 0-2.1-.88-2.1-1.95V25ZM21 31h1v-4c0-.5.5-1 1-1h1v-1h-.9c-1.16 0-2.1.88-2.1 1.95V31Z" /><path d="M24 28h-1.66L22 29h2v-1ZM27 25h1v6h-1v-6ZM25 25h1v6h-1v-6ZM31 25h1v6h-1v-6Z" /><path d="M28 25s.54.17.84.55c.3.37 2.16 4.15 2.16 4.15l1 1.3h-1s-.36 0-.86-.54c-.5-.53-2.14-4.2-2.14-4.2V25ZM38 25h-2.41A2.6 2.6 0 0 0 33 27.6v.88A2.53 2.53 0 0 0 35.59 31H38v-4h-1v3h-1.45c-.85 0-1.55-.63-1.55-1.4v-1.2c0-.77.7-1.4 1.55-1.4H38v-1Z" /><path d="M37 27h-1.66L35 28h2v-1ZM41.28 25H43v1h-1.88c-.62 0-1.12.63-1.12 1.4v1.2c0 .77.5 1.4 1.12 1.4H43v1h-1.72C40.03 31 39 29.84 39 28.43v-.86c0-1.41 1.03-2.57 2.28-2.57Z" /><path d="M43 27h-2.56L40 28h3v-1ZM44 25h1v6h-1v-6Z" /><path d="M44 25h3.3c.93 0 1.7.88 1.7 1.97 0 1.11-.8 2.03-1.76 2.03h-2.05l.4-1h1.73c.37 0 .68-.46.68-1.02 0-.54-.3-.98-.66-.98H45v3h-1v-4Z" /><path d="M47.84 30.99s.16-2.51-1.34-2.51l1.06-.48.58.31s.66.27.72 1.5C48.93 31.03 49 31 49 31l-1.16-.01Z" /></svg>