<?xml version='1.0' encoding='utf-8'?>
<!-- by TradeStack -->
<svg width="56" height="56" viewBox="0 0 56 56" xmlns="http://www.w3.org/2000/svg"><path fill="#F0F3FA" d="M0 0h56v56H0z" /><path d="m40.07 29.17 5.31 3.12L28 42.46 10.62 32.3l5.31-3.12L8 32.3 28 44l20-11.71-7.93-3.12Z" fill="#152A50" /><path d="m40.07 29.97 1.8 2.32-1.8 1.05-1.08.63-6.56 3.83-.81.48-.52.3-3.11 1.82-3.39-1.99-.36-.21-.8-.48L17 33.96l-1.08-.63-1.79-1.05 1.8-2.32-3.95 2.32L17 35.22l6.43 3.76 1.17.7L28 41.64l3.1-1.82 1.34-.78 6.55-3.84L44 32.27l-3.93-2.3Z" fill="#2985B2" /><path d="M39 15.42v17.54l-6 3.5V15.41l.2-.22.11-.1.8-.85L36.18 12 39 15.42Z" fill="#2985B2" /><path d="M31 20.93v16.74l-2.86 1.85L25 37.5V20.92l3-3.4 3 3.41Z" fill="#2899C1" /><path d="M23 25.64V36.4l-6-3.43v-7.24l3.22-3.38 2.78 3.3Z" fill="#28C2E1" /></svg>