<!-- by TradeStack --><svg width="56" height="56" viewBox="0 0 56 56" xmlns="http://www.w3.org/2000/svg"><path fill="#F0F3FA" d="M0 0h56v56H0z"/><path d="M44 19H24l2.5 2.03L44 19Z" fill="#6D0101"/><path d="m36 28-9.5-6.97L44 19l-8 9Z" fill="#7B1106"/><path d="m28 10-4 9h2.09L28 10Z" fill="#BBBCBF"/><path d="m44 19-16-9-2 9h18Z" fill="#DCDCDD"/><path d="m28 10-16 9h12l4-9Z" fill="#CD4528"/><path d="m36 28-12 9 3.96 9L36 28Z" fill="#A7A9AC"/><path d="M24 37V19l12 9-12 9Z" fill="#A4A4A4"/><path d="M44 37.06 36 28l8-9.03v18.1Z" fill="#881A0B"/><path d="M44 36.99 28 46l8-18 8 8.99Z" fill="#9B3020"/><path d="m12 19 12 18H12V19Z" fill="#E1E1E1"/><path d="M24 37 12 19h12v18Z" fill="#A53422"/><path d="M14.48 19H12l12 18-9.52-18Z" fill="#8F2B12"/><path d="m28 46-16-9h12l4 9Z" fill="#CBCACA"/></svg>