<?xml version='1.0' encoding='utf-8'?>
<!-- by TradeStack -->
<svg width="56" height="56" viewBox="0 0 56 56" xmlns="http://www.w3.org/2000/svg"><path fill="url(#auihnuu5c)" d="M0 0h56v56H0z" /><path fill-rule="evenodd" d="M32 25v4h3.5v-.7H33v-1h2v-.6h-2v-1h2.5V25H32Zm-23.5.81-.61.44a1.86 1.86 0 0 0-1.41-.63c-.93 0-1.48.63-1.48 1.42 0 .78.72 1.34 1.48 1.34.6 0 1.08-.22 1.24-.33v-.61H6.48v-.61h1.95v1.55c-.18.2-.83.62-1.95.62C5.06 29 4 28.2 4 27.04S5.13 25 6.48 25c1.07 0 1.8.54 2.02.81ZM11 29v-3.96h3.5v.66H12v1h2v.6h-2v1h2.5v.7H11Zm26-4v4h3.5v-.63H38V25h-1Zm-13 0v4h1v-1.7h2v-.6h-2v-1h2.5V25H24Zm-7 0v4h1v-2.59L19.25 29h.45l1.3-2.8V29h1v-4h-1.07l-1.44 2.96L18.05 25H17Zm13 0h-1v4h1v-4Zm14.13 0H42v4h2.13c1.2 0 2.37-.9 2.37-2s-1.17-2-2.37-2Zm.05.7H43v2.6h1.18c.67 0 1.32-.58 1.32-1.3 0-.72-.65-1.3-1.32-1.3Zm7.7-.16-.56.48c-.19-.13-.7-.4-1.24-.4-.67 0-.96.26-.96.52s.4.37 1.15.51c.74.14 1.73.36 1.73 1.22 0 .85-1.3 1.13-1.92 1.13-.62 0-1.56-.24-2.08-.65l.56-.48c.18.18.74.54 1.52.54s1-.36 1-.54c.03-.12-.13-.39-1-.54-1.08-.2-1.9-.48-1.9-1.23 0-.76.9-1.1 1.9-1.1.8 0 1.53.36 1.8.54Z" fill="#fff" /><defs><linearGradient id="auihnuu5c" x1="10.42" y1="9.71" x2="68.15" y2="76.02" gradientUnits="userSpaceOnUse"><stop stop-color="#1A1E21" /><stop offset="1" stop-color="#06060A" /></linearGradient></defs></svg>