<?xml version='1.0' encoding='utf-8'?>
<!-- by TradeStack -->
<svg width="56" height="56" viewBox="0 0 56 56" xmlns="http://www.w3.org/2000/svg"><path fill="#F0F3FA" d="M0 0h56v56H0z" /><path d="M4 25h1.6v7H4zM28.4 25h2.7a2.07 2.07 0 0 1 .76 3.99L33.73 32h-1.88l-1.78-2.87H30V32h-1.6v-7Zm1.6 3h.6a.84.84 0 1 0 0-1.68H30V28ZM34.65 25H34v7h4v-1.58h-2.4v-1.13H38v-1.58h-2.4v-1.13H38V25H34.65ZM19 25h-1.6v7H21v-1.56h-2V25Z" /><path fill-rule="evenodd" d="M6.79 25H5.3v4.43H6.8a2.21 2.21 0 1 0 0-4.43Zm-.33 1.37H5.44V28h1.02a.81.81 0 0 0 0-1.63Z" /><path fill-rule="evenodd" d="M12.95 32c2 0 3.62-1.57 3.62-3.5S14.95 25 12.95 25s-3.62 1.57-3.62 3.5 1.62 3.5 3.62 3.5Zm0-1.64c1.06 0 1.92-.84 1.92-1.86s-.86-1.86-1.92-1.86-1.92.84-1.92 1.86.86 1.86 1.92 1.86Z" fill="#000004" /><path fill-rule="evenodd" d="M12.95 31.46c1.7 0 3.07-1.32 3.07-2.96a3.02 3.02 0 0 0-3.07-2.96A3.02 3.02 0 0 0 9.9 28.5a3.02 3.02 0 0 0 3.06 2.96Zm0-1.1c1.06 0 1.92-.84 1.92-1.86 0-1.03-.86-1.86-1.92-1.86s-1.92.83-1.92 1.86c0 1.02.86 1.86 1.92 1.86Z" fill="#00434C" /><path fill-rule="evenodd" d="M12.95 31.1a2.64 2.64 0 0 0 2.68-2.6c0-1.43-1.2-2.6-2.68-2.6a2.64 2.64 0 0 0-2.68 2.6c0 1.43 1.2 2.6 2.68 2.6Zm0-.74c1.06 0 1.92-.84 1.92-1.86 0-1.03-.86-1.86-1.92-1.86s-1.92.83-1.92 1.86c0 1.02.86 1.86 1.92 1.86Z" fill="#017792" /><path fill-rule="evenodd" d="M12.95 30.67c1.25 0 2.26-.98 2.26-2.18 0-1.2-1.01-2.18-2.26-2.18-1.24 0-2.25.98-2.25 2.18 0 1.2 1 2.18 2.25 2.18Zm0-.31c1.06 0 1.92-.84 1.92-1.86 0-1.03-.86-1.86-1.92-1.86s-1.92.83-1.92 1.86c0 1.02.86 1.86 1.92 1.86Z" fill="#01AFEE" /><path d="m21.18 32 2.5-7h1.87l2.47 7h-1.8l-.34-1h-2.56l-.34 1h-1.8Zm2.62-2.45h1.6l-.8-2.4-.8 2.4ZM38.25 32l2.5-7h1.87l2.47 7h-1.8l-.33-1h-2.57l-.34 1h-1.8Zm2.62-2.45h1.6l-.8-2.4-.8 2.4ZM45.4 25v7H47l.02-4.27L50.24 32H52v-7h-1.6v4.59L47.02 25H45.4Z" /></svg>