<!-- by TradeStack --><svg width="56" height="56" viewBox="0 0 56 56" xmlns="http://www.w3.org/2000/svg"><path fill="#F0F3FA" d="M0 0h56v56H0z"/><path d="m19.12 24.05 3.25-3.24A2.97 2.97 0 0 1 24.4 20h14.02c.87 0 1.57.7 1.57 1.57V28h2v-2.74c0-.7.56-1.26 1.25-1.26h1.5c.69 0 1.25.56 1.25 1.26v10.48c0 .7-.56 1.26-1.25 1.26h-1.5c-.69 0-1.25-.56-1.25-1.26V33h-2v1.72l-5.6 5.83c-.29.29-.68.45-1.09.45h-8.98c-.36 0-.7-.13-.99-.36L18.82 37h-1.57c-.69 0-1.25-.56-1.25-1.26V33h-2v2.74c0 .7-.56 1.26-1.25 1.26h-1.5c-.69 0-1.25-.56-1.25-1.26V25.26c0-.7.56-1.26 1.25-1.26h1.5c.69 0 1.25.56 1.25 1.26V28h2v-2.74c0-.7.56-1.26 1.25-1.26h1.52c.12 0 .24.02.35.05ZM25.23 14c-.68 0-1.23.51-1.23 1.14v1.72c0 .63.55 1.14 1.23 1.14H28v1h4v-1h2.77c.68 0 1.23-.51 1.23-1.14v-1.72c0-.63-.55-1.14-1.23-1.14h-9.54Z"/><path d="M28.7 24H32l-3.3 5.76H32L25.48 38l2.66-6.75H25L28.7 24Z" fill="#B14F1C"/></svg>