<!-- by TradeStack --><svg width="56" height="56" viewBox="0 0 56 56" xmlns="http://www.w3.org/2000/svg"><path fill="url(#alq2kjmcp)" d="M0 0h56v56H0z"/><path d="M35.57 17.97h.01v-.02c-.61 0-1.2.27-1.7.6A9.31 9.31 0 0 0 31.54 21a23.93 23.93 0 0 0-2.1 3.72v-.25c-.06-1.59.21-3.1.8-4.53a8.8 8.8 0 0 1 4.1-4.45c2.33-1.22 5.06-1.56 7.65-1.48.02 0 .02 0 0 .01a6.47 6.47 0 0 0-1.62 1.76 24.08 24.08 0 0 0-2.44 4.93 7.4 7.4 0 0 1-2.05 2.96A10.46 10.46 0 0 1 30.45 26a34.4 34.4 0 0 1 1.84-4.24c.31-.6.66-1.18 1.04-1.75.53-.8 1.27-1.74 2.2-2.04h.04Z" fill="#33BF54"/><path d="M20.74 41.25c-.31.4-.73.66-1.24.73-.15.02-.34.02-.5.02h-4.98c-.01 0-.02-.01 0-.02L24.9 28a.02.02 0 0 0 0-.02L14 14H14h5.13c.2 0 .37.01.48.03.58.12.91.43 1.26.88L42 41.98V42h-6.17l-7.82-10.03H28l-7.25 9.29Z" fill="#89F55E"/><defs><linearGradient id="alq2kjmcp" x1="10.42" y1="9.71" x2="68.15" y2="76.02" gradientUnits="userSpaceOnUse"><stop stop-color="#1A1E21"/><stop offset="1" stop-color="#06060A"/></linearGradient></defs></svg>