<?xml version='1.0' encoding='utf-8'?>
<!-- by TradeStack -->
<svg width="56" height="56" viewBox="0 0 56 56" xmlns="http://www.w3.org/2000/svg"><path fill="#F0F3FA" d="M0 0h56v56H0z" /><path fill-rule="evenodd" d="M29.18 20.27a12 12 0 1 0 0 15.47 11 11 0 1 0 0-15.47Zm-.35.36a11.5 11.5 0 1 0 0 14.73 11.1 11.1 0 0 1-.33-.38 11 11 0 0 1-5.5 3.6V36h3v-1h-3v-2h3v-1h-3v-2.02c1.7-.14 3-.97 3-1.98 0-1-1.3-1.84-3-1.98V25h3v-4h-3v-3.59a11 11 0 0 1 5.5 3.6l.33-.38ZM22 36v2.82a11.06 11.06 0 0 1-5-.23V26h1.5v-5h-1v4H17v-7.59a11 11 0 0 1 5-.23V21h-3v1h3v2h-3v1h3v1.02c-1.7.14-3 .97-3 1.98 0 1 1.3 1.84 3 1.98V32h-3v4h3ZM9 28a11 11 0 0 0 7 10.25V26h-2v-5h1v4h1v-7.25A11 11 0 0 0 9 28Zm13-.98c-.6.06-1.12.23-1.48.43-.48.28-.52.51-.52.55 0 .04.04.27.52.55.36.2.87.37 1.48.43v-1.96Zm1 0c.6.06 1.12.23 1.48.43.48.28.52.51.52.55 0 .04-.04.27-.52.55-.36.2-.87.37-1.48.43v-1.96ZM23 24v-2h2v2h-2Zm-3 9h2v2h-2v-2Zm-6-5v8h1v-8h-1Zm3.5 0v8h1v-8h-1ZM37 38c.34 0 .67-.02 1-.05V32h-7v-1h7v-6h-6v-1h6v-1.35l-5.93.85-.14-1 6.07-.86v-3.6A10 10 0 1 0 37 38Zm10-10a10 10 0 0 1-8 9.8V32h4v-1h-4v-6h4v-1h-4v-1.5l3.57-.5-.14-1-3.43.5v-3.3a10 10 0 0 1 8 9.8Z" fill="#A41B22" /></svg>