<?xml version='1.0' encoding='utf-8'?>
<!-- by TradeStack -->
<svg width="56" height="56" viewBox="0 0 56 56" xmlns="http://www.w3.org/2000/svg"><path fill="#F0F3FA" d="M0 0h56v56H0z" /><path d="M30.5 16H29v7h5v-1h-3.5v-2H33v-1h-2.5v-2H34v-1h-3.5ZM35.5 33H34v7h5v-1h-3.5v-2H38v-1h-2.5v-2H39v-1h-3.5ZM36.5 16H35v7h5v-1h-3.5v-6ZM42.5 16H41v7h5v-1h-3.5v-6ZM11.5 33H10v7h5v-1h-3.5v-6ZM16 33h1.5v7H16v-7ZM26 33h1.5v7H26v-7Z" fill="#0F3675" /><path fill-rule="evenodd" d="M43.07 33H40v7h3.07c1.07 0 1.93-.91 1.93-2.03v-2.95c0-1.12-.86-2.02-1.93-2.02Zm-1.01 1h-.56v5h.56c.8 0 1.44-.57 1.44-1.28v-2.44c0-.7-.65-1.28-1.44-1.28Z" fill="#0F3675" /><path d="M33.5 34.42V33H28v1.42h2V40h1.5v-5.58h2ZM10.68 16H10v7h1.5v-3H13a2 2 0 1 0 0-4h-2.32Zm.82 3v-2h1a1 1 0 1 1 0 2h-1Z" fill="#0F3675" /><path fill-rule="evenodd" d="M18.02 16c-1.12 0-2.02.99-2.02 2.2v2.6c0 1.21.9 2.2 2.02 2.2h.96c1.12 0 2.02-.99 2.02-2.2v-2.6c0-1.21-.9-2.2-2.02-2.2h-.96Zm.48 1c-.83 0-1 .57-1 1.28v2.44c0 .7.17 1.28 1 1.28s1-.57 1-1.28v-2.44c0-.7-.17-1.28-1-1.28Z" fill="#0F3675" /><path d="M20.5 40H19v-7h1.5l1.55 2.37L23.6 33H25v7h-1.5v-4.66l-1.01 1.65h-.9l-1.09-1.65V40ZM19.5 32H18v-7h1.5l1.55 2.37L22.6 25H24v7h-1.5v-4.66l-1.01 1.65h-.9l-1.09-1.65V32ZM23.5 16H22v7h1.5l1.55-2.37L26.6 23H28v-7h-1.5v4.66l-1.01-1.65h-.9l-1.09 1.65V16Z" fill="#0F3675" /><path d="m25 32 2.18-7h1.64L31 32h-1.35l-.31-1h-2.68l-.31 1H25Zm1.97-2h2.06L28 26.69 26.97 30Z" fill="url(#a)" /><path d="M35.38 25H37l-2.2 3.5L37 32h-1.62L34 29.79 32.62 32H31l2.2-3.5L31 25h1.62L34 27.21 35.38 25Z" fill="#0F3675" /><defs><linearGradient id="a" x1="28" y1="25" x2="28" y2="32" gradientUnits="userSpaceOnUse"><stop stop-color="#DFEFFA" /><stop offset=".26" stop-color="#5392C8" /><stop offset=".46" stop-color="#0F3675" /></linearGradient></defs></svg>