<?xml version='1.0' encoding='utf-8'?>
<!-- by TradeStack -->
<svg width="56" height="56" viewBox="0 0 56 56" xmlns="http://www.w3.org/2000/svg"><path d="M0 28a28 28 0 1 1 56 0 28 28 0 1 1-56 0Z" fill="#F0F3FA" /><circle cx="27.92" cy="28" r="16" fill="url(#ams4bekq4)" /><path d="M43.92 28c-1.45 3.9-6.39 9.04-14.32 8.67-10.61-.5-16.1-12.34-15.46-16.8A16 16 0 0 1 43.92 28Z" fill="url(#bms4bekq4)" fill-opacity=".8" /><path d="M29.06 27.7c-12.12-3.32-7.3-14.76-4.45-15.36A16.07 16.07 0 0 1 40.5 18.1c4.74 6-4.01 11.64-11.43 9.6Z" fill="url(#cms4bekq4)" fill-opacity=".8" /><circle cx="31.53" cy="20.07" r="6.31" fill="url(#dms4bekq4)" fill-opacity=".8" /><circle cx="31.53" cy="19.81" r="3.14" fill="#E2F1D9" fill-opacity=".4" /><path d="M21.05 28.84c-4.53-.6-8 1.1-9.17 2.02l-.55 1.5c1.7-1.07 6-3.03 9.72-2.31 3.73.72 7.79 3.24 9.35 4.4-.4.08-2.1.82-5.57 3.21-3.48 2.39-6.45 3.19-7.5 3.3l.56.65c2.81-.21 5.8-1.93 6.94-2.77 1.34-1.08 4.88-3.3 8.25-3.55s6.88 1.6 8.2 2.55l.67-.97c-5.52-3.58-9.3-3.28-10.5-2.68-3.12-2.8-7.62-4.33-9.47-4.74 1.97-2.06 6.05-4 9.48-4.17 2.74-.14 4.68.76 5.3 1.23 4.26 3.27 6.93 4.26 7.73 4.35l.18-1.06a15.07 15.07 0 0 1-6.23-3.29 10.16 10.16 0 0 0-6.98-2.33 17.66 17.66 0 0 0-10.4 4.66Z" fill="#F0F3FA" /><defs><linearGradient id="ams4bekq4" x1="30.15" y1="12" x2="22.77" y2="43.3" gradientUnits="userSpaceOnUse"><stop stop-color="#81C35D" /><stop offset=".62" stop-color="#27583A" /></linearGradient><linearGradient id="bms4bekq4" x1="32.65" y1="12.73" x2="26.09" y2="36.02" gradientUnits="userSpaceOnUse"><stop stop-color="#8FC76D" /><stop offset=".27" stop-color="#49AE50" /><stop offset=".45" stop-color="#0C9954" /><stop offset=".99" stop-color="#27583A" /></linearGradient><linearGradient id="cms4bekq4" x1="34.22" y1="13.22" x2="27.46" y2="26.92" gradientUnits="userSpaceOnUse"><stop stop-color="#9BCD7E" /><stop offset=".11" stop-color="#91C973" /><stop offset=".54" stop-color="#60B54E" /><stop offset="1" stop-color="#16814A" /></linearGradient><linearGradient id="dms4bekq4" x1="34.41" y1="14.59" x2="28.64" y2="25.26" gradientUnits="userSpaceOnUse"><stop offset=".08" stop-color="#99CC7C" /><stop offset=".57" stop-color="#C1DFAB" /><stop offset="1" stop-color="#30934B" /></linearGradient></defs></svg>