<?xml version='1.0' encoding='utf-8'?>
<!-- by TradeStack -->
<svg width="56" height="56" viewBox="0 0 56 56" xmlns="http://www.w3.org/2000/svg"><path fill="#F0F3FA" d="M0 0h56v56H0z" /><path d="M44.88 17.55c.03.01.04.04.05.07a25.52 25.52 0 0 1-.06 4.43 30.86 30.86 0 0 1-5.57 14.92 35.1 35.1 0 0 1-11.37 10.02 23.25 23.25 0 0 1-3.31-1.97 31.88 31.88 0 0 1-5.1-4.45 31.15 31.15 0 0 1-7.18-12.74 34.6 34.6 0 0 1-1.31-10.29c.93-.57 1.9-1.09 2.9-1.54a33.66 33.66 0 0 1 16.74-2.87c4.97.42 9.8 2 14.21 4.42Z" fill="#F8B142" /><path d="m30.86 17.8.01.49a18.2 18.2 0 0 1-7.13 14.6c-.6-.8-1.16-1.66-1.66-2.55v-.04a15.13 15.13 0 0 0 5.12-15.87l.03-.01h.01a31.15 31.15 0 0 1 16.27 4.13 30.48 30.48 0 0 1-7.9 20.43 30.97 30.97 0 0 1-7.66 6.16 31.24 31.24 0 0 1-3.05-2.02 27.9 27.9 0 0 0 10.58-9.19 27.2 27.2 0 0 0 4.7-13.46.07.07 0 0 0-.04-.07 28.12 28.12 0 0 0-3.2-1.28c-.09 3.56-.93 6.93-2.5 10.11a24.42 24.42 0 0 1-6.49 8.05 24.87 24.87 0 0 1-2.2-2.05 21.36 21.36 0 0 0 4.74-5.12 20.99 20.99 0 0 0 3.44-10.63l.03-.98c0-.06 0-.13-.02-.2 0-.02 0-.03-.02-.04a28.5 28.5 0 0 0-3.06-.46Z" /><path d="M17.93 29.37a27.57 27.57 0 0 0 7.24 9.88 24.58 24.58 0 0 1-3.07 1.55 30.83 30.83 0 0 1-5.97-7.7 30.34 30.34 0 0 1-3.7-14.58l.01-.02a33.4 33.4 0 0 1 5.34-2.42l1.51-.46a29.93 29.93 0 0 1 4.76-.95c.9 2.67.83 5.6-.2 8.23a12.24 12.24 0 0 1-5.92 6.47Z" /><path d="M15.77 20.4c1.88-.9 3.82-1.58 5.82-2.04.02 0 .03 0 .03.02a9 9 0 0 1-4.76 8.1 27.02 27.02 0 0 1-1.1-6.07Z" fill="#F8B142" /></svg>