<!-- by TradeStack --><svg xmlns="http://www.w3.org/2000/svg" width="56" height="56" viewBox="0 0 56 56"><path fill="#F0F3FA" d="M0 0h56v56H0z"/><path fill-rule="evenodd" d="M23.54 34.58c-.82-.25-.95-1.27-1.02-1.92l-1.27-11.17c-.04-.34-.1-.49-.23-.49s-.2.13-.29.3l-5.56 11.4-5.8-11.43c-.1-.2-.17-.27-.28-.27-.12 0-.2.13-.21.33L7.52 33.17l-.01.06c-.07.67-.15 1.34-.75 1.44-.29.06-.42.06-.57.06-.1 0-.19.03-.19.09 0 .12.13.18.32.18h3.35c.23 0 .35-.05.35-.18 0-.06-.08-.1-.16-.1-.11 0-.4-.01-.71-.08a.59.59 0 0 1-.5-.57c0-.3 0-.63.02-.92l.76-8.43h.07c.21.5 2.33 4.85 2.5 5.18a310.94 310.94 0 0 0 2.4 4.55c.22.4.3.55.4.55.14 0 .2-.13.42-.57l.21-.45 4.64-9.44h.06l.9 9.43c.05.32.03.63-.07.65-.1.02-.13.05-.13.13 0 .09.1.21.53.25h6.55c.3 0 .42-.04.42-.14s-.1-.11-.2-.11c-.22 0-.5 0-.73-.08-.19-.09-.24-.27-.24-.42 0-.16.07-.41.17-.69.16-.52.66-1.84 1.28-3.39.9-.26 1.94-.4 3.15-.37.72.02 1.4-.04 2.04-.14l1.22 3.12v.03c.29.7.5 1.25.5 1.48 0 .13-.03.27-.24.36-.17.08-.51.1-.72.1-.13 0-.19.03-.19.12 0 .1.17.13.51.13h3.98l.28-.01.15.01h4.15c.2 0 .3-.06.3-.15 0-.05-.04-.1-.15-.1-.17 0-.59-.05-.85-.08-.57-.08-.69-.48-.75-1.02l.01-4.02v-7.61c0-.19.07-.36.19-.4 1-.44 2.58.17 3.27.86 1 1 1.06 2.24 1.06 2.85 0 1.7-1.44 3.02-3.27 3.02-.4 0-.51.02-.51.17 0 .1.1.13.2.13.1.02.3.02.4.02 2.7 0 4.66-1.78 4.66-4.41 0-.98-.53-1.82-.95-2.2-.3-.28-1.15-1.06-3.52-1.06H39c-.2 0-.3.04-.3.15 0 .07.08.1.15.1.17 0 .5.03.65.06.5.1.5.32.5.72v.34c.02.34.02.65.01 1.37v1.88c-.97.72-2.64 1.68-5.16 2.2l-2.37-5.7-.04-.09c-.33-.8-.42-1.03-.64-1.03-.15 0-.23.17-.49.72l-.3.66c-.42.84-1.19 2.6-2.23 5l-.22.51-.55 1.26a9.48 9.48 0 0 0-4.42 5.45l-.05-.02Zm.07.02c.4.11.76.14.99.14.19 0 .5-.04.8-.21.24-.17.53-.48 1.04-1.71.11-.29.47-1.11.93-2.18a7.6 7.6 0 0 0-3.76 3.96Zm5.6-5.96c.76-.25 1.6-.4 2.55-.44.5-.02.97-.06 1.42-.1l-1.8-4.63c-.52 1.16-1.37 3.2-2.16 5.17Zm6.23.6 1.68 4.03c.42 1.02.7 1.22 1.36 1.4a2.78 2.78 0 0 0 1.22 0c.32-.07.31-.37.3-.78v-7.8a10.9 10.9 0 0 1-4.56 3.15Z" fill="#E10717"/></svg>