<!-- by TradeStack --><svg width="56" height="56" viewBox="0 0 56 56" xmlns="http://www.w3.org/2000/svg"><path fill="#114611" d="M0 0h56v56H0z"/><path d="M8 35V23H6l.64-1h3.86a4.5 4.5 0 1 1 0 9H9v4H8Zm2.5-12H9v7h1.5a3.5 3.5 0 1 0 0-7ZM29 35V23h-2l.64-1h3.86a4.5 4.5 0 1 1 0 9H30v4h-1Zm2.5-12H30v7h1.5a3.5 3.5 0 1 0 0-7ZM16 22v13h1V24.5l4.04 4.12L25 24.5V35h1V22l-4.96 5.12L16 22ZM43.51 35A6.5 6.5 0 0 0 50 29h-5.8l-.66 1h5.26a5.48 5.48 0 1 1-.9-4.72l.87-.61A6.5 6.5 0 1 0 43.51 35Z" fill="#F45A18"/></svg>