<!-- by TradeStack --><svg width="56" height="56" viewBox="0 0 56 56" xmlns="http://www.w3.org/2000/svg"><path fill="#F0F3FA" d="M0 0h56v56H0z"/><path d="M28.33 11a17.06 17.06 0 0 1 15.08 9.75 16.8 16.8 0 0 1-3.99 19.66 23.12 23.12 0 0 0-1.74-.57 15.84 15.84 0 0 0 4.1-5.03 15.2 15.2 0 0 0 .28-13.25 15.4 15.4 0 0 0-17-8.73 15.26 15.26 0 0 0-8.3 4.56 15.22 15.22 0 0 0-1.98 18.43 15.48 15.48 0 0 0 3.6 4.1 22.28 22.28 0 0 0-1.74.56 17.1 17.1 0 0 1-5.02-8.02 16.67 16.67 0 0 1-.5-6.54A16.98 16.98 0 0 1 27.67 11h.65Z" fill="url(#a)"/><path d="M28.1 23.32a3.32 3.32 0 0 0-.83-1.56l-.33-.35a4.55 4.55 0 0 1-1.18-2.98c0-.4.06-.81.18-1.2a3.8 3.8 0 0 1 1.86-2.35l-1.6.16h-.02c-.4.31-.73.66-1 1.04a4.03 4.03 0 0 0-.6 3.39 4.78 4.78 0 0 1-1.5-1.03 6.4 6.4 0 0 1-1.12-1.46l-1.09.94v.03c.08.13.18.25.27.38a10.16 10.16 0 0 0 2.83 2.48c.46.27.89.62 1.27 1.05a6.38 6.38 0 0 1 .93 1.38 13.57 13.57 0 0 0-2.33-.52.97.97 0 0 1-.31-.16.68.68 0 0 1-.21-.28 4.98 4.98 0 0 0-1.36-1.87l-.9.87v.02a4.34 4.34 0 0 1 1.21 1.58 4.2 4.2 0 0 1-1.98.18 5.7 5.7 0 0 1-1.93-.6l-.28 1.41v.02l.43.14a10.45 10.45 0 0 0 4.25.23 7.54 7.54 0 0 1 1.85.08l.34.1a1.31 1.31 0 0 1 .45 2.13l-1.21 1.22c-.18.18-.33.4-.45.68-.1.22-.17.49-.23.8a12.67 12.67 0 0 0-.24 2.35 53.14 53.14 0 0 0-.14 5.62 79.74 79.74 0 0 0 .12 3.18c-.97.12-1.93.29-2.88.5-1.52.34-2.89.77-4.1 1.31a11.84 11.84 0 0 0-1.39.77c2.21-.45 4.54-.77 7-.97 3.7-.3 7.42-.33 11.17-.1a62.4 62.4 0 0 1 8.39 1.06 15.13 15.13 0 0 0-3.16-1.43 28.2 28.2 0 0 0-5.25-1.17c.09-1.46.14-2.9.15-4.29a49.8 49.8 0 0 0-.2-5.17l-.01-.28c-.03-.43-.08-.85-.15-1.27a3.8 3.8 0 0 0-.43-1.24 1.73 1.73 0 0 0-.27-.34 118.1 118.1 0 0 1-1.36-1.39 1.3 1.3 0 0 1-.18-1.13c.1-.33.3-.58.6-.76.12-.07.27-.12.45-.16a7.53 7.53 0 0 1 2.09-.08c.36.03.67.06.95.07a10.22 10.22 0 0 0 3.54-.46l.01-.02-.29-1.4h-.01c-.5.25-1.01.42-1.53.53-.54.1-1.07.13-1.6.06-.26-.03-.52-.09-.76-.18-.01 0-.02-.01-.01-.02a4.38 4.38 0 0 1 1.22-1.59l-.9-.86h-.03a5 5 0 0 0-1.42 2.02.93.93 0 0 1-.65.34 13.37 13.37 0 0 0-2.2.49c.25-.5.57-.95.96-1.37a6.93 6.93 0 0 1 1.7-1.34 9.92 9.92 0 0 0 2.73-2.47l-1.03-.99h-.03a5.47 5.47 0 0 1-2 2.12c-.31.17-.62.3-.94.38-.01 0-.02 0-.02-.02a5.44 5.44 0 0 1 .04-2.1 7.77 7.77 0 0 1 .59-1.8l-1.41-.48h-.02a7.69 7.69 0 0 0-.63 5.76c.02.04 0 .04-.02.02a4.7 4.7 0 0 1-1.27-1.62 5.46 5.46 0 0 1-.54-1.94l-1.29.55a.04.04 0 0 0-.02.04c.03.67.24 1.33.63 2a7.62 7.62 0 0 0 1.55 1.87c-.16.17-.31.37-.43.6a5.5 5.5 0 0 0-.47 1.04l-.03-.2Z" fill="url(#b)"/><defs><linearGradient id="a" x1="28" y1="11" x2="28" y2="40.49" gradientUnits="userSpaceOnUse"><stop stop-color="#E66428"/><stop offset="1" stop-color="#A74C28"/></linearGradient><linearGradient id="b" x1="28.14" y1="14.88" x2="28.14" y2="43" gradientUnits="userSpaceOnUse"><stop stop-color="#848488"/><stop offset=".25" stop-color="#DBDCDF"/><stop offset=".44" stop-color="#B5B5B8"/><stop offset="1" stop-color="#5B5C5E"/></linearGradient></defs></svg>