<?xml version='1.0' encoding='utf-8'?>
<!-- by TradeStack -->
<svg width="56" height="56" viewBox="0 0 56 56" xmlns="http://www.w3.org/2000/svg"><path fill="#F0F3FA" d="M0 0h56v56H0z" /><path d="M41 26c-.09.5-.18.97-.32 1.47-1.44 6.74-8.6 7.13-14.05 7.5-7 .51-12.49 3.05-15.54 9.94.09.09.05.09-.09.09 2.56-7.54 6.73-13.76 15.14-14.35 3.46-.3 7.1.13 10.45-1.06 1.21-.44 3.54-2.52 4.41-3.59Zm-23 6c.53-5.72 5.08-8.79 10.63-9 4.71-.24 10.41.63 13.37-4-1.57 5.73-4.27 7.82-10 8.42-5.37.47-10.05.45-14 4.58Zm0-7c.53-5.72 5.08-8.79 10.63-9 4.71-.24 10.41.63 13.37-4-1.57 5.73-4.27 7.82-10 8.42-5.37.47-10.05.45-14 4.58Z" fill="#006C33" /></svg>