<!-- by TradeStack --><svg width="56" height="56" viewBox="0 0 56 56" xmlns="http://www.w3.org/2000/svg"><path fill="#F0F3FA" d="M0 0h56v56H0z"/><path d="M5 28v-7h2.5c.54 0 .99.19 1.35.38.36.2.62.46.8.8.18.32.27.7.27 1.11 0 .42-.1.8-.27 1.13-.18.33-.45.6-.8.79-.37.2-.82.29-1.36.29H5.78v-.87H7.4c.34 0 .62-.06.83-.17.22-.12.37-.28.47-.48.1-.2.15-.43.15-.69 0-.25-.05-.48-.15-.68-.1-.2-.25-.36-.47-.47-.21-.11-.5-.14-.85-.14H6v6H5ZM12.4 28a2.2 2.2 0 0 1-.9-.18 1.5 1.5 0 0 1-.64-.53 1.48 1.48 0 0 1-.23-.84c0-.29.06-.53.17-.71.12-.19.27-.34.46-.44.2-.11.41-.2.65-.25.24-.05.49-.1.73-.13l.77-.08c.2-.03.34-.06.43-.12.09-.05.13-.14.13-.26v-.02a.88.88 0 0 0-.25-.67c-.17-.16-.42-.24-.75-.24-.34 0-.61.07-.81.22-.2.15-.33.3-.4.49l-.97-.21c.12-.31.28-.56.5-.75.22-.2.48-.34.76-.42a3.06 3.06 0 0 1 1.58-.06c.23.04.45.13.66.26.2.12.38.3.5.54.14.23.2.53.2.9V28h-1v-.8h-.03a1.59 1.59 0 0 1-.8.69c-.22.07-.46.11-.75.11Zm.23-.8c.28 0 .52-.05.72-.16.2-.1.36-.25.46-.42.11-.18.16-.37.16-.57v-.66a.54.54 0 0 1-.2.1 3.36 3.36 0 0 1-.75.13l-.31.04c-.2.03-.38.07-.54.13a.93.93 0 0 0-.4.25c-.09.1-.14.24-.14.42 0 .25.1.43.28.56.2.12.43.18.72.18ZM17 24.86V28h-1v-5.2h.99v.82h.06c.2-.43.68-.9 1.17-.9 1.16 0 1.78.85 1.78 1.93V28h-1v-3.23c0-.68-.44-1.19-1.13-1.19-.52 0-.87.85-.87 1.28ZM28.85 23.24a2.05 2.05 0 0 0-.66-.95c-.15-.12-.32-.2-.52-.26a2.16 2.16 0 0 0-1.7.2c-.32.2-.57.49-.76.87-.18.37-.27.84-.27 1.39 0 .55.1 1.01.28 1.4.18.37.43.66.76.86.32.2.68.3 1.1.3.37 0 .7-.08.99-.23.28-.15.5-.36.66-.64.15-.27.23-.6.23-.97l.28.05h-2v-.85h2.74v.77c0 .57-.12 1.07-.37 1.49-.25.42-.6.74-1.03.97a3.2 3.2 0 0 1-1.5.34 2.91 2.91 0 0 1-2.78-1.63 4.04 4.04 0 0 1-.4-1.86c0-.54.07-1.03.22-1.46.16-.43.38-.8.66-1.1.28-.3.61-.53.99-.69a3.33 3.33 0 0 1 2.31-.08 2.87 2.87 0 0 1 1.51 1.17c.17.28.29.58.35.9h-1.09ZM32 21v7h-1v-7h1ZM35.47 27.99c-.5 0-.93-.1-1.3-.33a2.24 2.24 0 0 1-.85-.92c-.2-.4-.3-.85-.3-1.38 0-.53.1-.99.3-1.38.2-.4.49-.7.86-.93.36-.22.8-.32 1.29-.32s.92.1 1.28.32c.37.22.66.53.86.93.2.4.3.85.3 1.38 0 .53-.1.99-.3 1.38-.2.4-.49.7-.86.92-.36.22-.8.33-1.28.33Zm0-.83c.32 0 .58-.08.8-.25.2-.16.36-.38.46-.65.1-.27.15-.57.15-.9 0-.33-.05-.62-.15-.9-.1-.27-.26-.5-.47-.66a1.24 1.24 0 0 0-.8-.25c-.31 0-.58.09-.8.25-.2.17-.36.39-.46.66-.1.28-.15.57-.15.9 0 .33.05.63.15.9.1.27.26.49.47.65.21.17.48.25.8.25ZM39 28v-7h1v2.62h.03c.05-.1.14-.23.25-.37.11-.14.27-.26.47-.37.2-.1.46-.15.78-.15.43 0 .8.1 1.14.3.33.21.59.51.78.9.2.4.29.87.29 1.42 0 .55-.1 1.02-.29 1.42a2.06 2.06 0 0 1-1.91 1.22c-.32 0-.58-.06-.78-.16-.2-.1-.36-.22-.47-.36-.12-.14-.2-.27-.26-.38H40V28h-1Zm.94-2.66c0 .36.06.67.16.94.11.27.27.48.47.64.2.15.45.22.74.22.3 0 .56-.08.77-.23.2-.16.36-.38.46-.65.11-.27.16-.58.16-.92 0-.34-.05-.64-.15-.9-.1-.27-.26-.49-.47-.64-.2-.15-.46-.23-.77-.23-.3 0-.54.07-.75.22-.2.15-.35.36-.46.62-.1.27-.16.58-.16.93ZM46.41 28a2.2 2.2 0 0 1-.9-.18 1.5 1.5 0 0 1-.64-.53 1.48 1.48 0 0 1-.23-.84c0-.29.06-.53.17-.71.12-.19.27-.34.46-.44.2-.11.41-.2.65-.25.24-.05.48-.1.73-.13l.77-.08c.2-.03.34-.06.43-.12.08-.05.13-.14.13-.26v-.02a.88.88 0 0 0-.25-.67c-.17-.16-.42-.24-.75-.24-.34 0-.61.07-.81.22-.2.15-.33.3-.4.49l-.97-.21c.11-.31.28-.56.5-.75.22-.2.48-.34.76-.42a3.06 3.06 0 0 1 1.57-.06c.24.04.46.13.67.26.2.12.37.3.5.54.14.23.2.53.2.9V28h-1v-.8h-.03a1.59 1.59 0 0 1-.8.69c-.22.07-.47.11-.76.11Zm.23-.8c.28 0 .52-.05.72-.16.2-.1.36-.25.46-.42.1-.18.16-.37.16-.57v-.66a.54.54 0 0 1-.2.1 3.37 3.37 0 0 1-.75.13l-.31.04c-.2.03-.38.07-.55.13a.94.94 0 0 0-.38.25c-.1.1-.15.24-.15.42 0 .25.1.43.28.56.19.12.43.18.72.18ZM51 21v7h-1v-7h1ZM16 37v-7h2.47c.48 0 .88.08 1.2.24.3.16.54.38.7.65.15.27.23.58.23.92 0 .29-.05.53-.15.73-.1.19-.25.35-.42.47-.17.11-.36.2-.57.25v.07c.23.01.45.08.66.22.21.14.4.33.53.58.14.24.21.55.21.9a1.67 1.67 0 0 1-.99 1.61c-.33.17-.76.36-1.28.36H16Zm1-1h1.49c.49 0 .84-.1 1.05-.3.2-.19.31-.43.31-.72a1.15 1.15 0 0 0-.62-1.03c-.2-.1-.43-.16-.7-.16H17v2.2Zm0-3h1.38c.23 0 .44-.07.62-.16s.33-.21.44-.37c.1-.17.16-.36.16-.58 0-.29-.1-.52-.3-.72-.19-.19-.49-.17-.9-.17H17v2ZM22 37v-5.28h1v.82c.1-.28.25-.5.49-.65.23-.16.5-.25.8-.25a4.1 4.1 0 0 1 .41.03v.96a1.97 1.97 0 0 0-.51-.06c-.23 0-.44.05-.62.15-.18.1-.33.24-.43.41-.1.18-.14.38-.14.6V37h-1ZM27.13 37c-.32 0-.61-.06-.87-.18s-.46-.3-.62-.54a1.56 1.56 0 0 1-.22-.85c0-.3.06-.53.16-.72.11-.2.26-.34.45-.45.19-.1.4-.2.63-.25.23-.05.46-.1.7-.13l.74-.08c.19-.03.33-.07.41-.12.09-.06.13-.14.13-.26v-.03c0-.3-.08-.52-.24-.68-.16-.16-.4-.24-.72-.24-.33 0-.6.07-.79.22a1.2 1.2 0 0 0-.39.5l-.92-.22a1.82 1.82 0 0 1 1.21-1.18 2.82 2.82 0 0 1 1.52-.06c.23.05.44.13.64.26s.36.31.49.55c.13.23.19.54.19.92V37h-.96v-.82h-.04a1.43 1.43 0 0 1-.78.7c-.2.08-.44.12-.72.12Zm.21-.8c.28 0 .51-.06.7-.17a1.14 1.14 0 0 0 .6-1v-.67a.51.51 0 0 1-.2.1l-.34.08a36.77 36.77 0 0 1-.68.1c-.19.02-.36.06-.52.12a.9.9 0 0 0-.38.25c-.09.1-.13.25-.13.43 0 .25.09.44.27.57.18.12.4.18.68.18ZM32 33.82V37h-1v-5.28h1v.84h.01c.21-.49.71-.9 1.26-.9 1.03 0 1.73.66 1.73 1.94V37h-1v-3.28c0-.65-.37-1.2-1.07-1.2-.63 0-.93.78-.93 1.3ZM38.5 36.99c-.42 0-.78-.1-1.1-.32a2.17 2.17 0 0 1-.75-.92c-.18-.4-.27-.88-.27-1.44 0-.55.09-1.03.27-1.43.18-.4.44-.7.76-.91.32-.21.68-.32 1.09-.32.31 0 .57.06.76.17.19.1.34.22.44.37.11.14.2.26.26.37H40V30h1v7h-1v-.92h-.04c-.06.11-.15.24-.26.38a1.43 1.43 0 0 1-1.2.53Zm.21-.86c.28 0 .52-.08.72-.23.2-.15.35-.37.45-.64.1-.27.15-.6.15-.96 0-.35-.05-.67-.15-.94-.1-.27-.25-.48-.45-.63-.2-.15-.43-.22-.72-.22-.3 0-.54.08-.74.23-.2.16-.35.37-.45.65-.1.27-.15.57-.15.91 0 .35.05.66.15.94.1.27.25.49.45.65.2.16.45.24.74.24Z" fill="#305484"/></svg>