<!-- by TradeStack --><svg width="56" height="56" viewBox="0 0 56 56" xmlns="http://www.w3.org/2000/svg"><path fill="#F0F3FA" d="M0 0h56v56H0z"/><path d="m28.23 27.87 14.54 8.3V22.02H43V36.5l-14.89-8.43c-2.43 1.4-5.93 3.48-8.98 5.22-1.86 1.06-3.63 2.2-5.53 3.2l13.68 7.77-.11.2L13 36.48s4.37-2.45 6.01-3.39c3.05-1.73 6.56-3.82 9-5.22V12.41h.22v15.46Z" fill="#979797"/><path d="M13 19.54V36.5l3-1.7V19.54h-3Z" fill="#1F7FA7"/><path fill-rule="evenodd" d="M13 19.5 28.12 28 43 19.54 28.12 11 13 19.5Zm5.78 0 9.3 5.23 9.14-5.23-9.15-5.22-9.3 5.22Z" fill="url(#a42ch2bx5)"/><path d="m28 45-2.71-1.63L40 34.8l3 1.75L28 45Z" fill="#2B7CA7"/><path d="M28 28.07v16.86l3-1.74V29.62l12-6.75v-3.33l-15 8.53Z" fill="url(#b42ch2bx5)"/><path d="M40 32.66v2.15l3 1.75v-5.53l-3 1.63Z" fill="#299ED4"/><path d="m40 32.65-4-2.4 2.91-1.57 4 2.4L40 32.65Z" fill="#79CAEC"/><defs><linearGradient id="a42ch2bx5" x1="41.02" y1="18.96" x2="14.71" y2="18.96" gradientUnits="userSpaceOnUse"><stop stop-color="#1F7FA7"/><stop offset="1" stop-color="#28ABDC"/></linearGradient><linearGradient id="b42ch2bx5" x1="28.78" y1="38.46" x2="44.01" y2="30.65" gradientUnits="userSpaceOnUse"><stop stop-color="#26ADE1"/><stop offset="1" stop-color="#99D5FA"/></linearGradient></defs></svg>