<!-- by TradeStack --><svg viewBox="0 0 56 56" xmlns="http://www.w3.org/2000/svg"><path fill="#F0F3FA" d="M0 0h56v56H0z"/><path d="M9.48 28.2c-.02-.04-.04-.04-.08-.02-1.3 1.07-2.85 2.15-4.6 2.27-.33.02-.95-.15-.77-.6.19-.48 1.2-.25 1.51-.26.7 0 1.7-.57 2.26-.91.25-.16.55-.42.88-.78.53-.57.98-1.2 2.06-1.27.67-.04 1-.07 1.7-.45.22-.12.5-.32.87-.58.43-.32 1.02-.46 1.45-.75.3-.22.6-.39.89-.51a.16.16 0 0 0 .08-.08l.1-.2c.02-.07.06-.08.1-.03.27.24.67.16.95.4.08.06.27.17.57.34.04.03.08.07.1.12a.2.2 0 0 1-.01.15l-.27.6a.16.16 0 0 1-.11.1c-.18.04-.39.03-.63-.03a.17.17 0 0 0-.13.02 1.1 1.1 0 0 0-.41.37c-.19.37-.1.45.25.24.25-.15.7-.36 1.36-.63.5-.2.91-.07 1.24.39.09.13.14.23.16.3l-.01.1a.17.17 0 0 1-.06.08.18.18 0 0 1-.2.01c-.2-.11-.56-.3-.85-.26a3.3 3.3 0 0 0-1.2.4c-.34.2-.67.65-.95.9-.22.22-.47.22-.76 0a.25.25 0 0 0-.29-.01c-.82.45-1.69.43-2.55.52-.06 0-.08.03-.08.08.05.73-.72 1.37-1.35 1.61-.4.16-.82.25-1.26.28a.28.28 0 0 0-.2.1c-.27.35-.52.71-.77 1.1-.04.07-.18.16-.42.25-.3.12-.6.33-.82.4-.2.07-.33.04-.42-.1a.1.1 0 0 1 0-.12c.23-.36.4-.56.5-.6.3-.11.61-.17.78-.4.22-.3.27-.72.26-1.09a.26.26 0 0 1 .08-.2.28.28 0 0 1 .2-.08h1.24l.05-.01.05-.04a.1.1 0 0 0 0-.1l-.49-1.02ZM46.47 29.08v-1.16l-.01-1.43c-.02-.23-.07-.33-.29-.38a1.23 1.23 0 0 0-.22-.02c-.03 0-.05-.01-.05-.04 0-.04.03-.05.1-.05h1.53c.75 0 1.47.27 1.47 1.2 0 .48 0 1.1-.6 1.65.54.7.99 1.15 1.37 1.56a1.54 1.54 0 0 0 1.17.5c.03 0 .06.02.06.04 0 .04-.04.05-.16.05h-.57c-.37 0-.54-.03-.71-.13-.28-.15-.52-.47-.9-.97-.27-.36-.58-.68-.71-.85-.03-.02-.05-.04-.09-.04l-.81-.01c-.04 0-.05.02-.05.05v.16c0 .64 0 1.03.03 1.3.02.2.06.34.26.37l.3.03c.04 0 .05.02.05.04 0 .03-.03.05-.1.05H46.1c-.07 0-.1-.01-.1-.05 0-.02 0-.04.05-.04l.2-.03c.13-.03.16-.17.19-.36.03-.28.03-.8.03-1.44Zm.53-2.75v2.3c0 .03.01.05.05.07.1.06.4.1.7.1.15 0 .33-.01.49-.12.23-.16.2-.64.2-1.15 0-.82-.24-1.32-.94-1.32a2 2 0 0 0-.45.04.08.08 0 0 0-.05.08ZM43.4 29.09v-2.61c-.02-.23-.07-.33-.3-.38a1.32 1.32 0 0 0-.23-.02c-.02 0-.05 0-.05-.03 0-.04.03-.05.1-.05h2.71c.02 0 .03.03.03.06 0 .04-.04.12-.06.3l-.03.44c0 .03-.02.07-.05.07-.04 0-.05-.04-.05-.09 0-.04-.01-.15-.04-.23-.05-.1-.12-.24-.49-.28-.11-.02-.87-.02-.94-.02v1.99c.09 0 .94 0 1.1-.02.16-.01.25-.02.31-.09.05-.05.08-.08.1-.08.02 0 .04.01.04.05s-.04.15-.06.36l-.02.42c0 .05 0 .13-.05.13-.04 0-.05-.03-.05-.06 0-.07 0-.13-.03-.22-.02-.09-.08-.2-.35-.23-.18-.02-.87-.03-.99-.03v1.73c0 .47.1.54.76.54.18 0 .48 0 .65-.07.18-.07.26-.2.3-.47.02-.07.03-.1.07-.1.04 0 .04.05.04.1s-.06.5-.09.63c-.05.17-.1.17-.37.17h-2.33c-.08 0-.11-.01-.11-.05 0-.02.01-.04.05-.04.07 0 .15-.01.2-.03.14-.02.18-.17.2-.36.04-.27.04-.8.04-1.43ZM42 27.82V29c0 .63 0 1.25.03 1.53.02.19.06.33.25.36l.28.03c.04 0 .06.02.06.04 0 .03-.04.05-.1.05h-1.4c-.08 0-.11-.01-.11-.05 0-.02.01-.04.05-.04l.2-.03c.12-.03.15-.17.18-.36.03-.28.03-.9.03-1.53v-.7c0-.03-.02-.04-.04-.04h-2.4c-.01 0-.03 0-.03.04v.7c0 .63 0 1.25.03 1.53.02.19.06.33.25.36l.28.03c.04 0 .06.02.06.04 0 .03-.04.05-.1.05h-1.4c-.08 0-.11-.01-.11-.05 0-.02.01-.04.05-.04l.2-.03c.12-.03.15-.17.18-.36.03-.28.03-.9.03-1.53v-1.17c0-1.03 0-1.12-.02-1.33 0-.23-.06-.33-.27-.38a1.13 1.13 0 0 0-.21-.02c-.03 0-.05-.01-.05-.04 0-.04.03-.05.1-.05h1.34c.07 0 .1.01.1.05 0 .03-.03.04-.05.04a.9.9 0 0 0-.16.02c-.17.04-.22.15-.24.38L39 27.82v.14c0 .03.02.04.04.04h2.39c.02 0 .04 0 .04-.04v-.14c0-1.03 0-1.12-.02-1.33 0-.23-.06-.33-.27-.38a1.13 1.13 0 0 0-.21-.02c-.03 0-.05-.01-.05-.04 0-.04.03-.05.1-.05h1.34c.07 0 .1.01.1.05 0 .03-.03.04-.05.04a.9.9 0 0 0-.16.02c-.17.04-.22.15-.24.38L42 27.82ZM35.53 26.37v2.75c0 .62 0 1.13.03 1.4.02.2.06.34.25.36.09.02.22.03.28.03.04 0 .05.02.05.04 0 .03-.03.05-.1.05h-1.4c-.06 0-.1-.01-.1-.05 0-.02.02-.04.06-.04.05 0 .13-.01.19-.03.12-.02.15-.17.18-.35.03-.28.03-.79.03-1.41v-2.75l-.93.01c-.4.01-.55.06-.65.21-.07.11-.09.16-.1.2-.02.05-.04.07-.07.07-.02 0-.03-.02-.03-.06 0-.07.13-.62.14-.68.01-.04.04-.12.06-.12.05 0 .11.07.28.08l.5.03h2.14c.2 0 .35-.06.45-.08l.18-.03c.03 0 .03.04.03.08v.76c0 .06-.02.08-.04.08-.04 0-.05-.02-.05-.1l-.01-.08c-.02-.2-.19-.34-.8-.36l-.57-.01ZM28.78 27l.08 3.12c.02.53.08.7.25.75.12.03.25.04.3.04.04 0 .06.01.06.04 0 .04-.04.05-.11.05H28.1c-.06 0-.1 0-.1-.05 0-.03.02-.04.05-.04.05 0 .16 0 .25-.04.16-.04.2-.23.2-.82v-3.73c0-.25.02-.32.07-.32s.15.14.21.2l1.98 2.21 1.5 1.68-.07-3.36c-.01-.41-.05-.56-.25-.6a1.6 1.6 0 0 0-.3-.04c-.05 0-.05-.02-.05-.04 0-.04.05-.05.12-.05h1.18c.07 0 .11 0 .11.05 0 .02-.02.04-.07.04l-.15.02c-.2.04-.23.19-.23.57l-.01 3.86c0 .43-.01.46-.06.46-.05 0-.12-.07-.45-.41a73.98 73.98 0 0 1-3.25-3.6ZM23.8 30.29l1.49-4.04c.08-.21.1-.25.14-.25.04 0 .07.03.15.23.1.25 1.13 2.93 1.53 3.92.23.58.42.68.56.72.1.03.2.04.26.04.04 0 .07 0 .07.04s-.06.05-.13.05h-1.03c-.13 0-.2-.02-.2-.06 0-.02.02-.04.05-.04.04-.02.08-.08.04-.18l-.61-1.45c-.02-.02-.03-.04-.06-.04h-1.41c-.04 0-.06.02-.07.06l-.4 1c-.05.16-.08.31-.08.43 0 .13.13.19.25.19h.06c.05 0 .07.01.07.04 0 .04-.04.05-.1.05h-1.26c-.08 0-.12-.01-.12-.05 0-.03.03-.04.06-.04a2 2 0 0 0 .19-.01c.3-.04.43-.29.55-.61Zm.92-1.29h1.25c.04 0 .04-.02.03-.05l-.62-1.9c-.04-.1-.07-.1-.1 0l-.58 1.9c-.01.04 0 .05.02.05ZM20 29.08v-1.16c0-1.03 0-1.22-.02-1.43-.01-.23-.08-.33-.35-.38l-.27-.02c-.04 0-.07-.01-.07-.04 0-.04.04-.05.13-.05h1.95c.72 0 1.63.2 1.63 1.16 0 .94-.58 1.58-1.74 1.58h-.17c-.04 0-.09-.02-.09-.05 0-.06.05-.06.22-.06.79 0 1.14-.47 1.14-1.08 0-.9-.45-1.35-1.28-1.35-.14 0-.27.01-.35.04-.05.01-.06.06-.06.12v2.72c0 .64 0 1.16.04 1.44.02.19.07.33.32.36l.36.03c.05 0 .07.02.07.04 0 .03-.04.05-.13.05h-1.79c-.09 0-.13-.01-.13-.05 0-.02.02-.04.07-.04l.24-.03c.17-.03.2-.17.24-.36.04-.28.04-.8.04-1.44Z"/></svg>