<?xml version='1.0' encoding='utf-8'?>
<!-- by TradeStack -->
<svg width="56" height="56" viewBox="0 0 56 56" xmlns="http://www.w3.org/2000/svg"><path fill="#2B3F57" d="M0 0h56v56H0z" /><path d="M11 26c0 1.4-1.18 2-2.48 2H7.5v3H6v-7h2.52c1.32 0 2.48.59 2.48 2Zm-2.53 1c.76 0 1.03-.36 1.03-1 0-.68-.29-1-1.03-1H7.5v2h.97ZM13.5 25v2h2.2v1h-2.2v2H16v1h-4v-7h4v1h-2.5ZM23 31h-1.5l-3-4.8V31H17v-7h1.5l3 4.8V24H23v7ZM26.56 31c-1.2 0-2.54-.65-2.56-2h1.5c.04.57.5.87 1.03.87.65 0 .87-.38.87-.87 0-.72-.72-.86-1.27-1.02-1.05-.3-2.13-.7-2.13-1.98 0-1.34 1.25-2 2.45-2 1.25 0 2.45.67 2.55 2h-1.5c-.03-.57-.62-.86-1.15-.86-.53 0-.85.33-.85.86 0 .68.86.8 1.37.95 1.04.3 2.13.74 2.13 2C29 30.3 27.77 31 26.56 31ZM34.25 30h-2.5l-.35 1H30l2.26-7h1.48L36 31h-1.4l-.35-1Zm-.34-1L33 25.62 32.08 29h1.83ZM48.25 30h-2.5l-.35 1H44l2.26-7h1.48L50 31h-1.4l-.35-1Zm-.34-1L47 25.62 46.08 29h1.83ZM43 31h-1.5l-3-4.8V31H37v-7h1.5l3 4.8V24H43v7Z" fill="#FDFFF9" /></svg>