<?xml version='1.0' encoding='utf-8'?>
<!-- by TradeStack -->
<svg width="56" height="56" viewBox="0 0 56 56" xmlns="http://www.w3.org/2000/svg"><path fill="#F0F3FA" d="M0 0h56v56H0z" /><path d="M12 16h4v5h5v4h-5v5a5 5 0 0 0 5 5v4a9 9 0 0 1-9-9V16Z" fill="url(#a)" /><path d="M27 30.06c0-2.43-2.52-4.73-5-5.03V21a9.15 9.15 0 0 1 6.81 3.32A7.64 7.64 0 0 1 35 21c4.48 0 8 4.14 8 9.06V39h-4v-9.3c0-2.43-1.76-4.7-4-4.7s-4 2.27-4 4.7V39h-4v-8.94Z" fill="url(#b)" /><defs><linearGradient id="a" x1="10.75" y1="16.87" x2="24.52" y2="38.1" gradientUnits="userSpaceOnUse"><stop offset=".14" stop-color="#63281F" /><stop offset=".64" stop-color="#F86341" /><stop offset="1" stop-color="#803427" /></linearGradient><linearGradient id="b" x1="22" y1="21.59" x2="43.85" y2="39.77" gradientUnits="userSpaceOnUse"><stop stop-color="#505152" /><stop offset=".47" stop-color="#333334" /><stop offset="1" stop-color="#525253" /></linearGradient></defs></svg>