<?xml version='1.0' encoding='utf-8'?>
<!-- by TradeStack -->
<svg width="56" height="56" viewBox="0 0 56 56" xmlns="http://www.w3.org/2000/svg"><path fill="#F0F3FA" d="M0 0h56v56H0z" /><path d="M9 30.35c.16-.2 2.4-4.98 3.51-7.35l1.2 2.35.36-.62L19.5 36l-5.8-8.9-.33.41-.86-1.55-3.5 4.38H9Z" fill="#A47659" /><path fill-rule="evenodd" d="M17.57 30.68V31h2.49v-.32h-.32c-.34 0-.74-.28-.74-.63V25.3L24.5 31h.5v-6c0-.34.35-.63.7-.63h.3V24h-2.64v.37h.5c.35 0 .64.29.64.64v4.33L19.47 24h-1.9v.37h.25c.35 0 .68.29.68.64v5.04c0 .35-.33.63-.68.63h-.25ZM4 31h3.46v-.3H7c-.43 0-.99-.35-.99-.79V28.3h1.62c1.16 0 1.88-1.04 1.88-2.2 0-1.16-.72-2.1-1.88-2.1H4v.34h.3c.43 0 .7.35.7.8v4.77c0 .44-.27.8-.7.8H4V31Zm2.36-6.7h.52c.9 0 1.62.66 1.62 1.48v.74c0 .82-.73 1.48-1.62 1.48h-.52c-.2 0-.36-.15-.36-.33v-3.04c0-.18.16-.33.36-.33ZM35 27.5c0 1.93-1.8 3.5-4 3.5s-4-1.57-4-3.5 1.8-3.5 4-3.5 4 1.57 4 3.5Zm-1.01-.2c.16 1.77-1.04 3.29-2.7 3.4-1.64.1-3.11-1.24-3.28-3-.16-1.77 1.04-3.29 2.7-3.4 1.64-.1 3.11 1.24 3.28 3ZM48 31c2.2 0 4-1.57 4-3.5S50.2 24 48 24s-4 1.57-4 3.5 1.8 3.5 4 3.5Zm.3-.3c1.65-.11 2.85-1.63 2.69-3.4-.17-1.76-1.64-3.1-3.29-3-1.65.11-2.85 1.63-2.69 3.4.17 1.76 1.64 3.1 3.29 3ZM36 31h3.34v-.3h-.47c-.44 0-.87-.35-.87-.79V28.3h1.05l2.6 2.28c.18.14.68.42 1.19.42h1.48v-.21c-.35 0-1.19-.16-1.82-.72l-2.18-1.96a2.23 2.23 0 0 0 1.18-2c0-1.17-.85-2.11-2-2.11H36v.34h.17c.43 0 .83.35.83.8v4.77c0 .44-.4.8-.83.8H36V31Zm2.36-6.7h.52c.9 0 1.62.66 1.62 1.48v.74c0 .82-.73 1.48-1.62 1.48h-.52c-.2 0-.36-.15-.36-.33v-3.04c0-.18.16-.33.36-.33Z" fill="#053159" /></svg>