<?xml version='1.0' encoding='utf-8'?>
<!-- by TradeStack -->
<svg width="56" height="56" viewBox="0 0 56 56" xmlns="http://www.w3.org/2000/svg"><path fill="#F0F3FA" d="M0 0h56v56H0z" /><path d="M4.07 25.07 6.09 25c2.72-.1 2.93 1.28 2.93 1.63 0 1.23-1.3 1.67-2.38 1.78l-.02-.13c.84-.12 1.38-.54 1.38-1.42 0-1.14-.91-1.66-2-1.65v4.35c0 .96 0 1.13 1.21 1.3V31H4v-.13c1.12-.14.97-.4 1-1.31v-2.73c0-1.2.15-1.57-.93-1.62v-.14ZM9.8 28.7c-.08.91.59 1.75 1.65 1.75.49 0 .82-.2 1.1-.55l.15.1c-.36.56-1 1-1.73 1A1.92 1.92 0 0 1 9 29.08c0-1.12.85-2.08 2.1-2.08.85 0 1.41.5 1.45 1.27H9.84l-.04.44Zm1.87-.66c-.09-.4-.35-.85-.85-.85-.53 0-.85.49-.95.92l1.8-.07ZM15.17 31c-1.2 0-2.17-.75-2.17-1.98 0-1.2 1-2.02 2.19-2.02 1.2 0 2.16.76 2.16 1.98 0 1.18-1 2.02-2.18 2.02Zm0-3.81c-.96 0-1.36.97-1.36 1.77s.47 1.85 1.42 1.85c.9 0 1.3-1 1.3-1.74 0-.8-.4-1.88-1.37-1.88ZM19 32c0 .7.02.78 1 .87V33h-2.4v-.13c.63-.1.66-.2.67-.87v-3.72c0-.36 0-.47-.46-.78v-.09l1.1-.41.09.04v.46c.42-.28.91-.46 1.45-.46 1.06 0 1.76.86 1.76 1.79 0 1.09-1.1 2.23-2.61 2.17l-.6-.02V32Zm0-2.52c0 .46.03 1.26 1.13 1.26.91 0 1.3-.9 1.3-1.61 0-1.3-1.09-1.66-1.57-1.66-.34 0-.57.07-.86.25v1.76ZM22.26 31v-.13c.69-.09.73-.2.74-.84v-3.81c0-.35 0-.46-.47-.77v-.08L23.6 25l.1.04v4.99c0 .68.04.75.73.84v.12h-2.17V31ZM25.27 28.7c-.07.91.59 1.75 1.64 1.75.48 0 .81-.2 1.1-.55l.13.1c-.35.56-.98 1-1.7 1a1.9 1.9 0 0 1-1.95-1.92c0-1.12.83-2.08 2.08-2.08.83 0 1.4.5 1.43 1.27h-2.69l-.04.44Zm1.85-.66c-.08-.4-.34-.85-.83-.85-.53 0-.85.49-.95.92l1.78-.07ZM30.96 28.05l-.2.04c-.13-.4-.34-.88-.86-.88-.38 0-.61.25-.61.6 0 .9 1.92.87 1.92 1.99 0 .77-.79 1.2-1.54 1.2-.4 0-.8-.1-1.13-.32l-.07-.96.21-.04c.13.53.45 1.1 1.1 1.1.43 0 .72-.3.72-.69 0-.98-1.93-.79-1.93-2.02 0-.68.68-1.07 1.34-1.07.37 0 .74.1 1.03.29l.02.76ZM36.03 27.83c.84.19 2.05.56 2.05 1.6 0 1.61-2.22 1.58-2.68 1.57h-2.55v-.16c1.12-.14 1.13-.4 1.15-1.3V26.5c-.02-.9-.04-1.17-1.1-1.3V25h1.89c1.06 0 2.88.07 2.88 1.45 0 .86-.91 1.2-1.64 1.37v.01ZM35 29.53c0 .69 0 1.27.72 1.27.8 0 1.37-.5 1.37-1.27 0-.53-.53-1.6-1.91-1.54H35v1.54Zm0-1.7c.86-.02 1.75-.23 1.75-1.25 0-1.05-.8-1.38-1.75-1.38v2.62ZM40.5 28.77c.07-.94-.2-1.33-.93-1.33-.64 0-.58.29-.58.76l-.46.02c-.08 0-.22 0-.22-.09 0-.23 1.03-1.13 1.78-1.13.85 0 1.12.6 1.12 1.3v1.23c0 .76-.06.94.8 1.1v.14c-.35.1-.66.19-.93.19-.4 0-.54-.21-.59-.55-.3.31-.7.59-1.17.59-.6 0-.93-.47-.93-.98 0-.14.02-.26.05-.39l2.05-.86Zm-1.26.77c-.04.11-.07.22-.07.34 0 .37.23.69.66.69.25 0 .5-.16.66-.32v-1.3l-1.25.59ZM43 28.29c0-.37 0-.49-.46-.81v-.09l1.1-.39.1.04-.07.64c.53-.37 1.04-.67 1.63-.67 1.12 0 1.17.87 1.17 1.4v1.57c0 .72.04.79.73.89V31h-2.17v-.13c.69-.1.72-.2.73-.9v-1.01c0-.62.03-1.5-1.1-1.5-.39 0-.64.12-.95.38v2.14c0 .72.04.79.73.89V31h-2.17v-.13c.69-.1.71-.2.73-.9V28.3ZM48.75 29.98c0 .68.04.8.74.9V31h-2.2v-.13c.7-.09.7-.19.71-.89V26.2c0-.34.03-.45-.44-.75v-.08l1.08-.37.1.04v4.94Zm2.9-2.98v.17c-1.03.17-1.48.78-2.2 1.5l1.26 1.26c.38.36.78.72 1.29.92v.09c-.22.02-.42.06-.64.06-1.02 0-2.01-1.44-2.5-2.07.96-1.01 1.36-1.55.59-1.76V27h2.2Z" fill="#064032" /></svg>