<?xml version='1.0' encoding='utf-8'?>
<!-- by TradeStack -->
<svg width="56" height="56" viewBox="0 0 56 56" xmlns="http://www.w3.org/2000/svg"><path fill="#F0F3FA" d="M0 0h56v56H0z" /><path d="m27.5 17 5.5 5H22l5.5-5Z" fill="#63BCCE" /><path d="M22.83 35 24 33h-.99L22 34.73V33h-1v4h1v-1.78L23.03 37H24l-1.16-2h-.01ZM13 26h2v6h-2zm14.64 6 2.45-6h1.46L34 32h-1.95l-.41-1H30l-.4 1h-1.96Zm2.77-2h.82l-.4-1-.42 1ZM12 37l1.54-4h.92L16 37h-1.02l-.2-.54h-1.55l-.2.54H12Zm1.56-1.4h.88L14 34.45l-.44 1.13ZM32 37l1.54-4h.92L36 37h-1.02l-.2-.54h-1.55l-.2.54H32Zm1.56-1.4h.88L34 34.45l-.44 1.13ZM49 26v1.5h-3v1h2v1h-2v1h3V32h-9v-6h2v4.5h2V26h5ZM9 26h1a2 2 0 1 1 0 4H9v-1h.24a.76.76 0 0 0 0-1.52H9V26Zm0 0H7v6h2v-6Z" fill="#757E87" /><path fill-rule="evenodd" d="M8 33h1.85a1 1 0 0 1 0 2H10a1 1 0 1 1 0 2H8v-4Zm1 3.27h.5a.5.5 0 0 0 0-1H9v1Zm0-1.53v-.91h.55a.45.45 0 1 1 0 .9H9Z" fill="#757E87" /><path d="M16 26h1l2 2.28V26h2v6h-1l-2-2.34V32h-2v-6Zm6 0h1l2 2.28V26h2v6h-1l-2-2.34V32h-2v-6Zm-5 7h.73L19 34.7V33h1v4h-.6L18 35.18V37h-1v-4Zm22-5.75-.65.62c-.1-.25-.48-.87-1.11-.87-.8 0-1.24.87-1.24 2s.63 2 1.17 2c.43 0 1.01-.69 1.25-.9.14.13.44.47.58.65-.54.86-1.3 1.25-2.37 1.25A2.78 2.78 0 0 1 34 29.08 2.93 2.93 0 0 1 36.84 26c1.07 0 1.88.83 2.16 1.25ZM41 34v3h3v-1h-2v-.64h1.56v-.93H42V34h2v-1h-3v1Zm-13-1h1v1.5h1V33h1v4h-1v-1.57h-1V37h-1v-4Z" fill="#757E87" /><path fill-rule="evenodd" d="M37 33h1.8a1.2 1.2 0 0 1 .56 2.25L40 37h-1.08l-.6-1.61H38V37h-1v-4Zm1 1.96V34h.29a.48.48 0 1 1 0 .96H38Z" fill="#757E87" /><path d="m27.2 33.82-.46.3c-.1-.1-.3-.4-.66-.4-.36 0-.53.2-.53.4 0 .21.4.35.9.49.49.13.85.51.85 1.1 0 .57-.53 1.29-1.58 1.29-.84 0-1.3-.62-1.42-.92.1-.08.33-.26.46-.34.2.37.63.54.8.54.16 0 .52-.03.52-.37 0-.35-.2-.35-.72-.55-.76-.27-.96-.62-.96-1.13 0-.51.4-1.23 1.42-1.23.82 0 1.26.55 1.38.82Zm20.7 0-.46.3c-.1-.1-.3-.4-.66-.4-.36 0-.53.2-.53.4 0 .21.4.35.9.49.49.13.85.51.85 1.1 0 .57-.53 1.29-1.58 1.29-.85 0-1.3-.62-1.42-.92.1-.08.33-.26.46-.34.2.37.63.54.8.54.16 0 .52-.03.52-.37 0-.35-.2-.35-.73-.55-.75-.27-.95-.62-.95-1.13 0-.51.4-1.23 1.42-1.23.81 0 1.26.55 1.38.82Z" fill="#757E87" /><path d="M19.5 15 29 25H10l9.5-10Z" fill="#009EB7" /><path d="m38 19 6 6H32l6-6Z" fill="#01ABC4" /></svg>