<!-- by TradeStack --><svg viewBox="0 0 56 56" xmlns="http://www.w3.org/2000/svg"><path fill="#F0F3FA" d="M0 0h56v56H0z"/><path d="m7 36.68 1-.13V24.67l-1-.19V24h3v1.85c.58-1.18 1.52-1.85 2.87-1.85 2.47 0 4.13 1.9 4.13 4.32 0 2.42-1.66 3.68-4.13 3.68A3.1 3.1 0 0 1 10 30.18v6.35l1.57.15V37H7v-.32Zm5.7-5.08c1.6 0 2.3-1.1 2.3-2.6v-2c0-1.5-.7-2.6-2.3-2.6-1.61 0-2.67 1.49-2.7 3v1.1c0 1.55 1.03 3.1 2.7 3.1ZM18 36.68l1-.13V24.67l-1-.19V24h3v1.85c.58-1.18 1.52-1.85 2.87-1.85 2.47 0 4.13 1.9 4.13 4.32 0 2.42-1.66 3.68-4.13 3.68A3.1 3.1 0 0 1 21 30.18v6.35l1.57.15V37H18v-.32Zm5.7-5.08c1.6 0 2.3-1.1 2.3-2.6v-2c0-1.5-.7-2.6-2.3-2.6-1.61 0-2.67 1.49-2.7 3v1.1c0 1.55 1.03 3.1 2.7 3.1ZM29 31.68l1-.14V19.5l-1-.19V19h3v6.9c.77-1.07 1.74-1.9 3.19-1.9s2.81.8 2.81 2.35v5.19l1 .14V32h-4v-.32l1-.14v-5.16c0-1.14-.36-1.8-1.34-1.8-1.18 0-2.03.99-2.66 1.89v5.04l1 .16V32h-4v-.32ZM44.5 32c-2.32 0-4.5-1.56-4.5-4 0-2.4 1.7-4 4-4 2 0 3.96 1.25 4 3.26h-6.02v1.48c0 1.59.82 2.93 2.52 2.93 1.31 0 2.74-.69 3.05-2.08h.38C47.6 31.22 46.05 32 44.5 32Zm1.5-5c0-1.74-.75-2.67-2.02-2.67-1.5 0-1.88 1.26-1.98 2.67h4Z" fill="#717075"/><path fill="#58335C" d="M26 35h21v2H26z"/></svg>