<!-- by TradeStack --><svg width="56" height="56" viewBox="0 0 56 56" xmlns="http://www.w3.org/2000/svg"><path fill="#F0F3FA" d="M0 0h56v56H0z"/><path d="M33.48 17.9c-.4.1-.82.18-1.24.27a13.27 13.27 0 0 0-4.36 1.89c-.35.27-.4.4-.14.36-.42.52-.9.88-1.44 1.1a7.9 7.9 0 0 1-2.52.49c-2.3.12-4.62.05-6.95-.2l7.74-7.7c.42-.41.78-.68 1.09-.8a3.53 3.53 0 0 1 3.02.06c.32.17.77.53 1.33 1.09l3.47 3.45Z" fill="url(#a)"/><path d="M42.23 28.63c-.24.12-.49.25-.73.39-.22.12-.47.35-.77.47-.22.08-.37.15-.48.22-.84.53-1.94.72-2.97 1.1-.22.07-.47.25-.75.28-1.42.18-3.53.5-5.26.5-2.27 0-3.77-.02-5.5 0-.58 0-1.1.04-1.55.1-.87.13-1.66.26-2.36.4a3 3 0 0 0-.9.35c-.55.33-1.07.64-1.56.91-.47.26-.68 1.03-.58 1.52.05.28.16.57.33.86.3.53.75.74 1.34 1.04.23.12.46.2.7.23.57.1 1.17.15 1.82.17.4 0 .76-.03 1.08-.11.4-.1.93-.3 1.21-.19a.14.14 0 0 1 .09.09c.1.3-.16.51-.4.72-.13.12-.24.24-.33.36a6.8 6.8 0 0 0-.43.64.22.22 0 0 1-.08.08c-.34.18-.7.4-1.1.65-.14.1-.38.12-.5.35a.12.12 0 0 1-.09.06l-.2.04a5.77 5.77 0 0 1-4.7-.51 4.82 4.82 0 0 1-1.8-1.75 3.9 3.9 0 0 1-.5-1.38c-.18-1.12.1-1.92.65-2.96.17-.17.33-.35.49-.55a7.58 7.58 0 0 1 1.93-1.63 17.1 17.1 0 0 1 2.38-1.11c1.24-.5 3.03-.9 4.13-1.16.58-.14 1.08-.19 1.63-.3.22-.05.64-.1 1.23-.17l2.4-.25c.88-.09 1.46-.1 2.62-.15.76-.04 1.34-.1 1.75-.2a6.1 6.1 0 0 0 2.93-1.56c.37-.37.58-.63.65-.76.26-.55.34-1.22.2-2a2.93 2.93 0 0 0-1.05-1.61 8.17 8.17 0 0 0-3.72-1.52 18.87 18.87 0 0 0-5.74.13c-.26.04-.21-.09.14-.36a13.27 13.27 0 0 1 4.35-1.88l1.25-.27c3.41-.4 7.17.33 9.79 2.63.86.76 1.7 2.06 1.73 3.22.02.78-.1 1.43-.35 1.97A6.69 6.69 0 0 1 43 27.96c-.37.31-.62.53-.76.67Z" fill="#EB3335"/><path d="M33.48 20.3c-1.13.32-1.88.56-2.24.7-.9.37-1.22.9-.02 1.2 1.85.47 3.9.7 5.26 2.45.36.46.67.98.92 1.53a6.1 6.1 0 0 1-2.93 1.56c-.4.1-.99.16-1.75.2-1.16.05-1.74.06-2.61.15l-2.41.25c-.6.07-1 .12-1.23.17-.55.11-1.05.16-1.63.3-1.1.26-2.89.66-4.13 1.16-1.02.4-1.81.77-2.38 1.11-.63.38-1.4.97-1.93 1.63-.16.2-.32.38-.49.55a47.59 47.59 0 0 1-3.05-2.96 3.39 3.39 0 0 1-.25-4.2c.18-.27.52-.63.81-.92 1.15-1.13 2.29-2.25 3.41-3.38 2.33.26 4.65.33 6.95.2a7.9 7.9 0 0 0 2.52-.49 3.6 3.6 0 0 0 1.44-1.09 18.87 18.87 0 0 1 5.74-.13Z" fill="#C19D60"/><path d="M37.4 26.18a7.48 7.48 0 0 0-.92-1.53c-1.36-1.75-3.41-1.98-5.26-2.45-1.2-.3-.88-.83.02-1.2.36-.14 1.1-.38 2.24-.7 1.37.19 2.6.7 3.72 1.5a2.93 2.93 0 0 1 1.06 1.62c.13.78.06 1.45-.21 2-.07.13-.28.39-.65.76Z" fill="#AB8E52"/><path d="M42.23 28.63c-.15.32-.18.66-.37.94-.33.5-.65.9-.94 1.18a1149.57 1149.57 0 0 0-4.56 4.55l-6.4 6.32c-.52.5-.92.84-1.2.99-1.04.54-2.4.53-3.4-.09-.33-.2-.72-.52-1.16-.94-.59-.57-1.12-1.1-1.6-1.63a.3.3 0 0 0-.33-.1l.2-.03c.03-.01.06-.03.08-.06.12-.23.36-.26.5-.35.4-.25.76-.47 1.1-.65a.23.23 0 0 0 .08-.08c.16-.26.3-.48.43-.64.09-.12.2-.24.34-.36.23-.2.5-.42.39-.72a.14.14 0 0 0-.08-.09c-.29-.1-.82.08-1.22.19a3.9 3.9 0 0 1-1.08.1A12.7 12.7 0 0 1 21.2 37a2.42 2.42 0 0 1-.7-.23c-.59-.3-1.03-.51-1.34-1.04-.17-.3-.28-.58-.33-.86-.1-.49.11-1.26.58-1.52l1.57-.9a3 3 0 0 1 .89-.36c.7-.14 1.49-.27 2.36-.4.45-.06.97-.1 1.56-.1 1.72-.02 3.22 0 5.5 0 1.72 0 3.83-.32 5.25-.5.28-.03.53-.21.75-.29 1.03-.37 2.13-.56 2.97-1.1.1-.06.26-.13.48-.21.3-.12.55-.35.77-.47l.73-.4Z" fill="#9F8048"/><defs><linearGradient id="a" x1="25.16" y1="13" x2="25.16" y2="22.06" gradientUnits="userSpaceOnUse"><stop stop-color="#D2AE6F"/><stop offset="1" stop-color="#C19D60"/></linearGradient></defs></svg>