<!-- by TradeStack --><svg width="56" height="56" viewBox="0 0 56 56" fill="none" xmlns="http://www.w3.org/2000/svg">
<rect width="56" height="56" fill="#F0F3FA"/>
<path d="M6 32V29.5H7.15069C8.73973 29.5 10 28.3768 10 26.7536C10 25.1884 8.76712 24 7.15069 24H4V32H6ZM6 25.5H6.87671C7.47945 25.5 8 26.1159 8 26.7536C8 27.3913 7.47945 28 6.87671 28H6V25.5Z" fill="#008EA9"/>
<path d="M12 24V32H18V30.5H14V28.5H18V27H14V25.5H18V24H12Z" fill="#008EA9"/>
<path d="M21.9909 32V29.5362H23.1636C24.7455 29.5362 26 28.3768 26 26.7536C26 25.1884 24.7727 24 23.1364 24H20V32H21.9909ZM21.9909 25.5H22.8909C23.4909 25.5 24 26.1159 24 26.7536C24 27.3913 23.4909 28 22.8909 28H21.9909V25.5Z" fill="#008EA9"/>
<path d="M30 32V29.913L30.6944 29.0435L32.6111 32H35L32.0205 27.5L34.75 24H32.4722L30 27.3043V24H28V32H30Z" fill="#008EA9"/>
<path d="M35 27.9861C35 30.2036 36.6593 32 39 32C41.3704 32 43 30.2036 43 27.9861C43 25.7687 41.3407 24.0003 39 24.0003C36.6296 23.9723 35 25.7687 35 27.9861ZM37 27.9861C37 26.7511 37.7556 25.5 39 25.5C40.2444 25.5 41 26.723 41 27.9861C41 29.2212 40.2444 30.5 39 30.5C37.7556 30.5 37 29.2212 37 27.9861Z" fill="#008EA9"/>
<path d="M45 32H47V29.5H47.9922L50 32H52L50 29C50.7961 28.5668 51 27.6101 51 26.5993C51 25.0975 49.8588 24 48.2941 24H45V32ZM47.9922 25.5C48.651 25.5 49.0078 26.1083 49.0078 26.6282C49.0078 27.1769 48.651 28 47.9922 28H47V25.5H47.9922Z" fill="#008EA9"/>
</svg>
