<?xml version='1.0' encoding='utf-8'?>
<!-- by TradeStack -->
<svg width="56" height="56" viewBox="0 0 56 56" xmlns="http://www.w3.org/2000/svg"><path fill="#F0F3FA" d="M0 0h56v56H0z" /><path d="M40.96 13H15.04c-1.13 0-2.04.91-2.04 2.04v25.92c0 1.13.91 2.04 2.04 2.04h25.92c1.13 0 2.04-.91 2.04-2.04V15.04c0-1.13-.91-2.04-2.04-2.04z" fill="#ED1D24" /><path d="M36.28 28.26a10.04 10.04 0 0 1-10.12 9.64c-5.48 0-9.96-4.27-10.12-9.64h.5c0 4.23 3.5 7.65 7.8 7.65 4.31 0 7.8-3.42 7.8-7.65h4.14zm4.7 0C40.98 35.3 35.17 41 28 41 20.82 41 15 35.3 15 28.26h.53a10.57 10.57 0 0 0 10.63 9.72c5.6 0 10.24-4.24 10.62-9.72h4.2zm-9.35 0a7.22 7.22 0 0 1-7.29 7.14 7.22 7.22 0 0 1-7.28-7.14h.54v.17a5.09 5.09 0 0 0 2.54 4.6 5.3 5.3 0 0 0 5.34 0 5.09 5.09 0 0 0 2.54-4.6v-.17h3.61zm-7.26-.52a7.22 7.22 0 0 1 7.29-7.14c4.02 0 7.28 3.2 7.28 7.14h-.56v-.17a5.17 5.17 0 0 0-5.2-4.9c-2.8 0-5.1 2.16-5.21 4.9v.17h-3.6zm-9.35 0C15.02 20.7 20.83 15 28 15 35.18 15 41 20.7 41 27.74h-.53a10.57 10.57 0 0 0-10.63-9.72c-5.6 0-10.24 4.24-10.62 9.72h-4.2zm4.7 0a10.04 10.04 0 0 1 10.12-9.64c5.48 0 9.96 4.27 10.12 9.64h-.5c0-4.23-3.5-7.65-7.8-7.65a7.73 7.73 0 0 0-7.8 7.65h-4.14z" fill="#fff" /></svg>