<?xml version='1.0' encoding='utf-8'?>
<!-- by TradeStack -->
<svg width="56" height="56" viewBox="0 0 56 56" xmlns="http://www.w3.org/2000/svg"><path fill="#F0F3FA" d="M0 0h56v56H0z" /><path fill-rule="evenodd" d="M4 25v5h2v-1h3.5c.83 0 1.5-.8 1.5-1.59v-.93c0-.78-.67-1.48-1.5-1.48H4Zm2 1h2.4c.33 0 .6.36.6.8v.4c0 .44-.27.8-.6.8H6v-2Zm6 2.33v.6c-.03.43.4 1.07 2.29 1.07h2.86c.7 0 1.85 0 1.85-1.58.01-.5-.28-1.42-1.57-1.42H14.4c-.22 0-.4-.22-.4-.43v-.19a.4.4 0 0 1 .4-.38h2.34c.18 0 .26.14.26.3v.28h1.82v-.45c0-.37-.45-1.13-2.2-1.13H14c-.67-.01-2 .2-2 1.13v.95c0 .3.2.92 1.13.92h3.46c.23 0 .41.17.41.38v.16c0 .21-.18.46-.4.46h-2.2c-.22 0-.4-.25-.4-.46v-.21h-2ZM20 30v-5h5.49c.42.02 1.26.33 1.26 1.33 0 .6-.44.95-.67 1.05.31 0 .92.27.92 1.24 0 1.22-.99 1.38-1.51 1.38H20Zm.78-4.41h4.4c.43 0 .78.31.78.7v.16c0 .4-.35.71-.78.71h-4.4V25.6Zm0 2.15h4.55c.44 0 .8.33.8.73v.16c0 .4-.36.74-.8.74h-4.55v-1.63Zm7.72-.19H28v-.36c0-.51.86-.67 1.22-.69h2.4c1.12 0 1.4.77 1.4 1.16V30h-.52v-.36c-.3.28-.77.36-1.02.36h-2.41c-.6 0-1.07-.4-1.07-.9v-.2c0-.5.48-.9 1.07-.9h2.5c.43 0 .74.16.93.31v-.58c0-.68-.8-.73-1.34-.73h-1.8c-.68 0-.87.36-.86.55Zm4 1.2v.46c-.19.23-.76.29-1.02.29h-2.24c-.5 0-.74-.2-.74-.45v-.1c0-.25.23-.45.74-.45h2.3c.55 0 .87.17.96.25Zm1.5-1.5c.1-.3.46-.75 1.35-.75h1.96c.4 0 1.19.27 1.19 1.23V30H38v-2.12c0-.43-.3-.88-1.5-.88h-.26c-1.29 0-1.95 0-2.24 1.08V30h-.5v-3.5h.5v.74ZM39.5 25h.5v2.85h.37l2.46-1.35h1.01l-2.8 1.6 3.21 1.9H43.2l-2.88-1.69H40V30h-.5v-5Z" fill="#0A2A67" /><ellipse cx="47" cy="23.94" rx="1" ry=".94" fill="url(#aykhcpwni)" /><path d="m44.23 25.7.05-.12c.98.37 2.4.58 3.45.87 1.06.28 2.54 2.95 2.75 3.95L50.2 32h-.42l.05-.9c0-2.2-1.6-3.6-2.78-4.34a9.14 9.14 0 0 0-2.83-1.06Z" fill="#112862" /><path d="M46.14 26.23c-.66-.28-1.54-.53-1.9-.61l.3-.52c.45.04 2.74.7 4.75 2.08 1.6 1.1 2.48 3.67 2.71 4.82h-1.96c.02-.26.08-.84.08-1.05 0-2.96-3.15-4.37-3.98-4.72Z" fill="url(#bykhcpwni)" /><path d="M46.17 30h-1.84c-.23-3.24 2.99-4.66 5.27-5l.4.6c-3.47.47-4.11 2.38-4.11 3.09 0 .56.19 1.1.28 1.31Z" fill="#4E0D4D" /><path d="M45.85 30h-1.84c-.22-3.24 3.3-4.66 5.58-5l.38.53c-3.71.42-4.4 2.45-4.4 3.16 0 .56.19 1.1.28 1.31Z" fill="url(#cykhcpwni)" /><defs><linearGradient id="aykhcpwni" x1="46" y1="23.99" x2="47.93" y2="23.99" gradientUnits="userSpaceOnUse"><stop stop-color="#AB9E95" /><stop offset=".15" stop-color="#E2DBD3" /><stop offset=".45" stop-color="#C0B6AA" /><stop offset="1" stop-color="#827262" /></linearGradient><linearGradient id="bykhcpwni" x1="44.38" y1="25.97" x2="50.55" y2="25.97" gradientUnits="userSpaceOnUse"><stop offset=".08" stop-color="#2F447D" /><stop offset=".15" stop-color="#B8BCD7" /><stop offset=".35" stop-color="#888FB9" /><stop offset="1" stop-color="#203670" /></linearGradient><linearGradient id="cykhcpwni" x1="44.56" y1="29.68" x2="50.31" y2="29.68" gradientUnits="userSpaceOnUse"><stop offset=".06" stop-color="#510C4B" /><stop offset=".55" stop-color="#A183A5" /><stop offset=".8" stop-color="#CABBCE" /><stop offset=".88" stop-color="#754376" /></linearGradient></defs></svg>