<!-- by TradeStack --><svg width="56" height="56" viewBox="0 0 56 56" xmlns="http://www.w3.org/2000/svg"><path fill="#F0F3FA" d="M0 0h56v56H0z"/><path d="m28.22 10.05 17.73 17.93a.17.17 0 0 1 0 .24L34.18 39.96a.17.17 0 0 1-.24 0l-8.3-8.31a.17.17 0 0 1 0-.24l6.53-6.52a.17.17 0 0 0 0-.24l-9.3-9.33a.17.17 0 0 1 0-.24l5.1-5.03a.17.17 0 0 1 .25 0Z" fill="#4EA123"/><path d="m27.97 45.94-17.91-17.7a.19.19 0 0 1 0-.26l11.81-11.86a.2.2 0 0 1 .27 0l8.38 8.4a.19.19 0 0 1 0 .26l-6.5 6.49a.19.19 0 0 0 0 .27l9.18 9.15a.19.19 0 0 1 0 .27l-4.96 4.98a.2.2 0 0 1-.27 0Z" fill="#0C3680"/></svg>