<!-- by TradeStack --><svg width="56" height="56" viewBox="0 0 56 56" xmlns="http://www.w3.org/2000/svg"><path fill="#F0F3FA" d="M0 0h56v56H0z"/><path fill-rule="evenodd" d="M9 27v-7h2.38c1.34 0 2.12.95 2.12 2.28 0 1.34-.79 2.22-2.13 2.22H10V27H9Zm2.21-3.5H10V21h1.2c.76 0 1.3.53 1.3 1.28 0 .76-.53 1.22-1.29 1.22ZM40 20h1.48l1.98 5h.08l1.98-5H47v7h-1v-4.84h-.22L43.93 27h-.86l-1.85-4.85H41V27h-1v-7Zm-2.64 11.27c-.2-.7-.74-1.27-1.47-1.27C34.6 30 34 31.41 34 32.5c0 1.1.62 2.5 1.91 2.5 1.12 0 1.56-.98 1.56-2H36v-1h2.57v1.16c0 1.57-1.04 2.84-2.67 2.84-1.94 0-2.9-1.73-2.9-3.5 0-1.72.95-3.5 2.87-3.5 1.33 0 2.46.94 2.65 2.27h-1.16ZM28 29v7h1v-2.5h1.32l1.2 2.5h1.27l-1.35-2.76c.67-.37 1.06-1.09 1.06-2 0-1.33-.82-2.24-2.15-2.24H28Zm1 3.5h1.18c.73 0 1.32-.5 1.32-1.26S30.92 30 30.18 30H29v2.5ZM23 36v-7h4v1h-3v2h3v1h-3v2h3v1h-4Zm-1 0v-7h-1v4.77h-.15L17.99 29H17v7h1v-4.77h.15L21.02 36H22Zm-10 0v-7h4v1h-3v2h3v1h-3v2h3v1h-4Zm27-16h-1v4.4c0 .84-.67 1.6-1.5 1.6s-1.5-.76-1.5-1.6V20h-1v4.5C34 26 35.09 27 36.5 27s2.5-1.01 2.5-2.5V20Zm-6 7h-1v-7h1v7Zm-7.52-7H24v7h1v-4.85h.22L27.07 27h.86l1.85-4.84H30V27h1v-7h-1.48l-1.98 5h-.08l-1.98-5ZM19 20h4v1h-3v2h3v1h-3v2h3v1h-4v-7Zm-5 7h1v-2.63h1.31L17.57 27h1.29l-1.4-2.87c.66-.33 1.04-1 1.04-1.92 0-1.34-.8-2.21-2.12-2.21H14v7Zm2.21-3.67H15V21h1.2c.74 0 1.3.44 1.3 1.2 0 .77-.56 1.13-1.29 1.13ZM40.35 29H39l2.5 4.39V36h1v-2.61L45 29h-1.35l-1.62 3.1h-.06L40.35 29Z"/></svg>