<!-- by TradeStack --><svg width="56" height="56" viewBox="0 0 56 56" xmlns="http://www.w3.org/2000/svg"><path fill="#375A69" d="M0 0h56v56H0z"/><path fill-rule="evenodd" d="M18 40.26V17.08c0-.9.52-1.72 1.33-2.1l5.81-2.76c.63-.3 1.36-.3 1.99 0l13.55 6.45c.8.38 1.32 1.2 1.32 2.1v8.5c0 .9-.51 1.71-1.31 2.1L27 37.92v8.16l-1.64.92-6.79-5.54c-.36-.3-.57-.73-.57-1.2Zm9-20.18v-5.54l13 6.2v5.43l-13-6.09Zm-2 10.99v-16.4l-5 2.4v21.78l20-9.39v-.95l-4.9-2.34-10.1 4.9Zm2-8.78v5.54l5.41-2.75L27 22.29Zm-2 21.73v-5.2l-4 1.97 4 3.23Z" fill="#fff"/></svg>