<?xml version='1.0' encoding='utf-8'?>
<!-- by TradeStack -->
<svg width="56" height="56" viewBox="0 0 56 56" xmlns="http://www.w3.org/2000/svg"><path fill="#F0F3FA" d="M0 0h56v56H0z" /><path d="M42 21v1h-3v-1h3Zm-2 5v-5.49c0-1.07.7-1.51 1.41-1.51.38 0 .59.08.73.14v.93c-.1-.03-.35-.07-.53-.07-.4 0-.61.2-.61.59V26h-1ZM37.5 20a.49.49 0 0 1-.35-.14.48.48 0 0 1-.15-.36c0-.14.05-.26.15-.35.1-.1.21-.15.35-.15.14 0 .26.05.35.15.1.1.15.21.15.35 0 .14-.05.26-.15.36-.1.1-.21.14-.35.14Z" fill="#43526E" /><path d="M40.5 28a.49.49 0 0 1-.35-.14.48.48 0 0 1-.15-.36c0-.14.05-.26.15-.35.1-.1.22-.15.35-.15.14 0 .26.05.35.15.1.1.15.21.15.35 0 .14-.05.26-.15.36-.1.1-.2.14-.35.14Z" fill="#C09200" /><path d="M35.9 22.4h-1c-.11-.4-.47-.55-.87-.55-.33 0-.8.15-.8.56 0 .28.19.44.66.56l.8.17c.88.2 1.3.62 1.31 1.32C36 25.5 34.93 26 34 26c-1.14 0-1.87-.58-2-1.47h1.07c.1.44.42.6.93.6.35 0 1-.14 1-.57 0-.28-.33-.46-.76-.55l-.8-.18c-.9-.19-1.31-.66-1.3-1.36-.02-1.02.99-1.47 1.88-1.47 1.1 0 1.73.58 1.88 1.4ZM28.55 26c-.87 0-1.55-.56-1.55-1.46 0-1.02.87-1.37 1.76-1.47.54-.06.88-.09 1.03-.19.08-.05.21-.13.21-.24v-.02c0-.48-.37-.75-.88-.75-.41 0-.81.2-.95.62l-1.02-.15c.25-.9 1.08-1.34 1.97-1.34 1.02 0 1.88.57 1.88 1.66V26h-1v-.76c-.26.52-.89.76-1.45.76Zm.29-.84c.66 0 1.16-.46 1.16-1v-.56c-.03.03-.18.05-.26.08a4.06 4.06 0 0 1-.83.15c-.4.06-.91.23-.91.7 0 .42.38.63.84.63Z" fill="#43526E" /><path d="M32.55 34c-.87 0-1.55-.56-1.55-1.46 0-1.02.87-1.37 1.76-1.47.54-.06.88-.09 1.03-.19.08-.05.21-.13.21-.24v-.02c0-.48-.37-.75-.88-.75-.41 0-.81.2-.95.62l-1.02-.15c.25-.9 1.08-1.34 1.97-1.34 1.02 0 1.88.57 1.88 1.66V34h-1v-.76c-.26.52-.89.76-1.45.76Zm.29-.84c.66 0 1.16-.46 1.16-1v-.56c-.03.03-.18.05-.26.08a4.06 4.06 0 0 1-.83.15c-.4.06-.91.23-.91.7 0 .42.38.63.84.63Z" fill="#C09200" /><path d="M23.61 26c-1.49 0-2.61-.96-2.61-2.49A2.45 2.45 0 0 1 23.54 21C25 21 26 22 26 23.45V24h-4.4v-1h3.19c-.01-.68-.57-1-1.23-1-.68 0-1.3.39-1.3 1.1v.67c0 .8.57 1.34 1.37 1.34.55 0 .97-.15 1.13-.56h1.19C25.68 25.57 24.56 26 23.6 26ZM18.78 21c-.06-.58-.53-1-1.23-1-.54 0-1.17.3-1.18.93 0 .6.62.82 1.1.94l.62.16c.98.24 1.91.84 1.91 1.96 0 1.37-1.24 2.01-2.47 2.01-1.32 0-2.48-.6-2.53-2.02h1.16c.05.72.7 1.02 1.36 1.02.78 0 1.47-.44 1.48-1.02 0-.61-.86-.82-1.35-.95-1.1-.3-2.48-.63-2.48-2.02 0-1.3 1.21-2.01 2.4-2.01 1.16 0 2.32.73 2.34 2h-1.13Z" fill="#43526E" /><path d="M49 31.1V34h-1v-5h1v.9c.21-.55.76-.9 1.44-.9 1.05 0 1.56.9 1.56 1.86V34h-1v-2.96c0-.66-.4-1.06-.96-1.06-.56 0-1.04.4-1.04 1.13ZM39 29v1h-3v-1h3Zm-2-1h1v4.5c0 .35.38.55.73.55.15 0 .29-.03.35-.05l.2.89c-.12.04-.36.1-.7.1-.83.03-1.59-.4-1.58-1.3V28ZM28 34v-5h1v.9c.2-.58.96-.9 1.55-.9.14 0 .34.01.45.03v1.04c-.1-.04-.36-.07-.58-.07-.61 0-1.42.45-1.42 1.1V34h-1ZM24.5 34a2.4 2.4 0 0 1-2.5-2.5 2.4 2.4 0 0 1 2.5-2.5 2.4 2.4 0 0 1 2.5 2.5 2.4 2.4 0 0 1-2.5 2.5Zm0-1c.88 0 1.5-.73 1.5-1.5s-.62-1.5-1.5-1.5a1.5 1.5 0 1 0 0 3ZM44.5 34a2.4 2.4 0 0 1-2.5-2.5 2.4 2.4 0 0 1 2.5-2.5 2.4 2.4 0 0 1 2.5 2.5 2.4 2.4 0 0 1-2.5 2.5Zm0-1c.88 0 1.5-.73 1.5-1.5s-.62-1.5-1.5-1.5a1.5 1.5 0 1 0 0 3ZM21 28v6h-1v-6h1ZM14 36v-7h1v.9c.3-.59 1.15-.9 1.81-.9 1.45 0 2.19 1.28 2.19 2.6 0 1.3-.74 2.4-2.18 2.4-.66 0-1.5-.3-1.82-.88V36h-1Zm1-4.41c0 .78.68 1.41 1.47 1.41.9 0 1.53-.63 1.53-1.41 0-.79-.64-1.59-1.53-1.59-.8 0-1.47.6-1.47 1.59ZM10.12 29l.88 1.85.9-1.85h1.08l-1.31 2.5L13 34h-1.08L11 32.2l-.91 1.8H9l1.33-2.5-1.3-2.5h1.1ZM4 34v-7h4v1H5v2h2.5v1H5v2h3v1H4Z" fill="#C09200" /><path d="M37 21v5h1v-5h-1Z" fill="#43526E" /><path d="M40 29v5h1v-5h-1Z" fill="#C09200" /></svg>