<?xml version='1.0' encoding='utf-8'?>
<!-- by TradeStack -->
<svg width="56" height="56" viewBox="0 0 56 56" xmlns="http://www.w3.org/2000/svg"><path fill="#F0F3FA" d="M0 0h56v56H0z" /><path d="M37.5 17.1c3.37 3.27 6.88 8.06 6.47 13.03-.4 4.68-3.44 8.86-6.9 11.78a.03.03 0 0 1-.03 0h-.02c-2.12-4.14-5.4-7.63-8.98-10.5a.06.06 0 0 0-.08 0c-3.56 2.82-6.93 6.37-9 10.47-.01.04-.04.04-.07.02-3.8-3.2-7.3-8.21-6.85-13.54.15-1.84.86-3.72 1.76-5.32 2.02-3.6 4.87-6.22 8.01-9.02a93.58 93.58 0 0 1 6.15-5c.03-.03.06-.02.08 0 3.3 2.52 6.58 5.28 9.47 8.08Zm-2.75 6.11a46.35 46.35 0 0 0-6.76-6.4 47.4 47.4 0 0 0-6.24 5.8c-2.02 2.26-4.8 5.72-2.93 8.9l.03.02a.08.08 0 0 0 .07.01l.03-.02a80.63 80.63 0 0 1 3.54-3.48c1.27-1.17 2.6-2.42 4.41-3.8l.33-.22c.25-.15.47-.38.74-.53a.07.07 0 0 1 .09 0c.45.35.96.67 1.37 1a82.02 82.02 0 0 1 7.69 7.08v-.01c.24-.39.41-.8.54-1.22.73-2.57-1.36-5.31-2.91-7.13Z" fill="#327005" /><path d="M21.65 43.52c-.17-.1-.81-.54-.92-.75a.08.08 0 0 1 0-.08 28.34 28.34 0 0 1 7.18-8.19c.05-.04.1-.04.15 0a27.31 27.31 0 0 1 7.18 8.2v.08c-.08.11-.16.2-.24.26-2.5 1.9-5.77 2.13-8.77 1.87-1.7-.14-3.23-.6-4.58-1.39Z" fill="#3CF0A8" /></svg>