<?xml version='1.0' encoding='utf-8'?>
<!-- by TradeStack -->
<svg width="56" height="56" viewBox="0 0 56 56" xmlns="http://www.w3.org/2000/svg"><path fill="#F0F3FA" d="M0 0h56v56H0z" /><path d="M8.63 24c1.38 0 3.37.44 3.37 2.5 0 2.14-2.1 2.5-3.55 2.5H7.5v3H6v-8h2.63Zm-.1 1H7.5v3h.8c.85 0 2.2-.19 2.2-1.5 0-.92-.62-1.5-1.96-1.5ZM15.63 24C17 24 19 24.41 19 26.5c0 1.18-.75 1.65-1.64 1.96L20 32h-1.73l-2.24-3H14.5v3H13v-8h2.63Zm0 1H14.5v3h1.12c.8 0 1.88-.3 1.88-1.5 0-1.21-1.1-1.5-1.88-1.5ZM26 32h-5v-8h5v1h-3.5v2.5H26v1h-3.5V31H26v1ZM30.75 25c-1.48 0-2.25 1.31-2.25 3 0 1.74.65 3 2.17 3 .67 0 1.29-.14 1.96-.36l.08 1c-.69.27-1.4.36-2.11.36-2.12 0-3.6-1.47-3.6-4 0-2.53 1.7-4 3.76-4 .8 0 1.59.18 2.24.5l-.45.97a4.27 4.27 0 0 0-1.8-.47ZM44 29.78c0 1.74-1.65 2.22-2.82 2.22-.73 0-1.5-.1-2.18-.42V30.5c.72.32 1.4.5 2.18.5.58 0 1.32-.32 1.32-1.22 0-.47-.01-.68-.52-.95C40.9 28.24 39 27.84 39 26c0-1.6 1.57-2 2.67-2 .82 0 1.52.18 2.22.49l-.4.94a4.82 4.82 0 0 0-1.86-.43c-.53 0-1.13.22-1.13 1 0 .91.91 1.26 1.47 1.5.92.38 2.03.91 2.03 2.28ZM50 32h-5v-8h5v1h-3.5v2.5H50v1h-3.5V31H50v1ZM35.25 27h1.5v5h-1.5v-5Z" fill="#F49407" /><path d="M37 25a1 1 0 1 1-2 0 1 1 0 0 1 2 0Z" fill="#A1A2A4" /></svg>