<?xml version='1.0' encoding='utf-8'?>
<!-- by TradeStack -->
<svg width="56" height="56" viewBox="0 0 56 56" xmlns="http://www.w3.org/2000/svg"><path fill="#F0F3FA" d="M0 0h56v56H0z" /><path d="M13 16h5.32c3.68.64 4.43 5.25.78 6.43-.95.3-2.34.16-3.43.18-.1 0-.12.2-.11.3v1.96c0 .09-.04.13-.13.13L13 24.98v-4.4h4.45c2 .1 2.22-2.62-.3-2.58H13v-2ZM19.9 28h-2.3c-.05 0-.1.04-.1.1v8.8c0 .06.05.1.1.1h2.3c.05 0 .1-.04.1-.1v-8.8c0-.06-.05-.1-.1-.1ZM47.9 28h-2.3c-.05 0-.1.04-.1.1v8.8c0 .06.05.1.1.1h2.3c.05 0 .1-.04.1-.1v-8.8c0-.06-.05-.1-.1-.1ZM32 36.4v.37c.02.1-.04.23-.15.23h-2.1c-.15 0-.22-.09-.22-.24v-8.61c0-.1.05-.15.15-.15h2.12c.16 0 .2.08.2.23v2.84c0 .07.01.09.07.04 2.9-2.19 5.69.69 4.83 3.72-.62 2.24-2.93 2.77-4.84 1.48l-.06.09Zm1.45-1.1c.2 0 .38-.06.55-.14.18-.09.33-.21.46-.37a1.83 1.83 0 0 0-.06-2.31c-.13-.15-.3-.27-.47-.34a1.3 1.3 0 0 0-1.1.02c-.18.09-.33.21-.46.37a1.83 1.83 0 0 0 .06 2.31c.13.15.3.27.47.34.18.08.37.12.55.12ZM15.16 30.82c-1.42-.87-2.77-1.37-3.97-.12-2.2 2.28.53 5.43 3.2 3.96a.22.22 0 0 0 .12-.2v-1.88c0-.1.06-.16.16-.16h1.72c.1 0 .16.06.16.16v3.14a.3.3 0 0 1-.14.26c-1.9 1.14-4.24 1.43-6.2.33a4.37 4.37 0 0 1-1.13-6.68c1.87-2.14 5.29-2.05 7.47-.43.08.05.1.12.03.2l-1.14 1.37c-.08.1-.17.11-.28.05ZM34.2 18.71c.59-.5 1.18-.73 1.99-.7.14 0 .21.07.21.2v1.8a.14.14 0 0 1-.05.1.16.16 0 0 1-.11.05c-.6-.02-1.25-.12-1.69.34-.38.4-.5 1.17-.55 1.98v2.36c0 .1 0 .16-.12.16H31.7c-.15 0-.22-.07-.22-.22v-6.6c0-.04.02-.09.05-.12a.2.2 0 0 1 .14-.06h2.2a.14.14 0 0 1 .1.04l.02.04.01.05v.5l.02.06a.12.12 0 0 0 .18.02ZM39.43 22.4c.33 1.21 2.58.85 3.05.36.1-.05.17-.04.24.04l.95 1c.07.07.07.14 0 .21-1.2 1.31-3.6 1.16-4.94.45-2.6-1.39-2.16-5.2.58-6.18 2.68-.97 4.92.85 4.98 3.77 0 .13-.06.19-.19.19h-4.54c-.12 0-.16.06-.13.17Zm-.01-1.4h2.59c.02 0 .03-.03.03-.05 0-.14-.04-.4-.1-.53a1.06 1.06 0 0 0-.28-.34c-.12-.1-.26-.17-.41-.23a1.54 1.54 0 0 0-.5-.08h-.08c-.34 0-.66.11-.9.3-.24.2-.38.6-.38.88 0 .02 0 .05.03.05Z" fill="#0756B2" /><path d="M27.22 24.28c-1.44 1.22-3.79.82-4.72-.67a3.69 3.69 0 0 1-.5-1.72v-3.71c0-.11.13-.18.25-.18h2.11c.13 0 .2.06.18.18v3.18c0 .53.2 1 .43 1.24.96.99 2.5-.03 2.5-1.24v-3.21c0-.1.06-.15.16-.15h2.2c.1 0 .17.05.17.14v6.64c0 .1-.09.22-.2.22h-2.15c-.12 0-.19-.13-.19-.26v-.36c0-.12-.16-.16-.24-.1ZM28.28 33.5A3.51 3.51 0 0 1 24.8 37a3.46 3.46 0 0 1-3.47-3.5A3.51 3.51 0 0 1 24.8 30a3.46 3.46 0 0 1 3.47 3.5Zm-3.84-1.67c.6-.01 1.06-.32 1.34-.9.03-.08.01-.12-.07-.14a3.13 3.13 0 0 0-2.6.4.82.82 0 0 0-.37.86.83.83 0 0 0 .66.65c.32.06.59.2.8.45.04.04.07.03.1-.01l.05-.09a.18.18 0 0 0-.01-.21.9.9 0 0 1-.16-.81.27.27 0 0 1 .26-.2Zm2.26 3.85c.84-1.13-.02-1.52-.75-2.08a.38.38 0 0 0-.24-.08c-.49.02-.76.25-.8.7a.34.34 0 0 0 .12.3c.32.28.58.63.77 1.06.24.54.54.57.9.1ZM40.3 37h-.66c-2.4-.36-2.71-3.5-.27-4.1a9.8 9.8 0 0 1 2.48-.09c.1 0 .15-.05.14-.16-.15-1.44-2.26-.87-3.09-.44a.17.17 0 0 1-.24-.08l-.5-1.23c-.04-.1-.02-.17.08-.2 1.57-.73 4.72-1.3 5.8.48.32.55.38 1.4.41 2.35v3.18c0 .14-.07.29-.2.29h-2.06c-.13 0-.19-.14-.19-.27v-.35c0-.15-.06-.18-.17-.08-.42.4-.93.63-1.52.7Zm.08-1.66c.73.29 1.78-.07 1.62-1.14-.01-.1-.07-.15-.17-.15-.65-.03-2.1-.32-1.75.96a.51.51 0 0 0 .3.33Z" fill="#0756B2" /></svg>