<?xml version='1.0' encoding='utf-8'?>
<!-- by TradeStack -->
<svg width="56" height="56" viewBox="0 0 56 56" fill="none" xmlns="http://www.w3.org/2000/svg">
<rect width="56" height="56" fill="#F0F3FA" />
<path d="M36 13.9528C36 13.4266 36.4266 13 36.9528 13H43.0472C43.5734 13 44 13.4266 44 13.9528V20.0472C44 20.5734 43.5734 21 43.0472 21H36.9528C36.4266 21 36 20.5734 36 20.0472V13.9528Z" fill="#AE7939" />
<path d="M37 14.7146C37 14.3199 37.3199 14 37.7146 14H42.2854C42.6801 14 43 14.3199 43 14.7146V19.2854C43 19.6801 42.6801 20 42.2854 20H37.7146C37.3199 20 37 19.6801 37 19.2854V14.7146Z" fill="url(#paint0_linear_228_5189)" />
<path d="M28 17.4962C28 16.6699 28.6699 16 29.4962 16H32.5038C33.3301 16 34 16.6699 34 17.4962V20.5038C34 21.3301 33.3301 22 32.5038 22H29.4962C28.6699 22 28 21.3301 28 20.5038V17.4962Z" fill="#AE7939" />
<path d="M29 17.9975C29 17.4466 29.4466 17 29.9975 17H32.0025C32.5534 17 33 17.4466 33 17.9975V20.0025C33 20.5534 32.5534 21 32.0025 21H29.9975C29.4466 21 29 20.5534 29 20.0025V17.9975Z" fill="url(#paint1_linear_228_5189)" />
<path d="M35 24.4962C35 23.6699 35.6699 23 36.4962 23H39.5038C40.3301 23 41 23.6699 41 24.4962V27.5038C41 28.3301 40.3301 29 39.5038 29H36.4962C35.6699 29 35 28.3301 35 27.5038V24.4962Z" fill="#AE7939" />
<path d="M36 24.9975C36 24.4466 36.4466 24 36.9975 24H39.0025C39.5534 24 40 24.4466 40 24.9975V27.0025C40 27.5534 39.5534 28 39.0025 28H36.9975C36.4466 28 36 27.5534 36 27.0025V24.9975Z" fill="url(#paint2_linear_228_5189)" />
<path d="M29 24.5973C29 23.7151 29.7151 23 30.5973 23H32.4027C33.2849 23 34 23.7151 34 24.5973V26.4027C34 27.2849 33.2849 28 32.4027 28H30.5973C29.7151 28 29 27.2849 29 26.4027V24.5973Z" fill="#AE7939" />
<path d="M30 24.9584C30 24.4291 30.4291 24 30.9584 24H32.0416C32.5709 24 33 24.4291 33 24.9584V26.0416C33 26.5709 32.5709 27 32.0416 27H30.9584C30.4291 27 30 26.5709 30 26.0416V24.9584Z" fill="url(#paint3_linear_228_5189)" />
<path d="M31 30.5973C31 29.7151 31.7151 29 32.5973 29H34.4027C35.2849 29 36 29.7151 36 30.5973V32.4027C36 33.2849 35.2849 34 34.4027 34H32.5973C31.7151 34 31 33.2849 31 32.4027V30.5973Z" fill="#AE7939" />
<path d="M32 30.9584C32 30.4291 32.4291 30 32.9584 30H34.0416C34.5709 30 35 30.4291 35 30.9584V32.0416C35 32.5709 34.5709 33 34.0416 33H32.9584C32.4291 33 32 32.5709 32 32.0416V30.9584Z" fill="url(#paint4_linear_228_5189)" />
<path d="M23 22.5973C23 21.7151 23.7151 21 24.5973 21H26.4027C27.2849 21 28 21.7151 28 22.5973V24.4027C28 25.2849 27.2849 26 26.4027 26H24.5973C23.7151 26 23 25.2849 23 24.4027V22.5973Z" fill="#AE7939" />
<path d="M24 22.9584C24 22.4291 24.4291 22 24.9584 22H26.0416C26.5709 22 27 22.4291 27 22.9584V24.0416C27 24.5709 26.5709 25 26.0416 25H24.9584C24.4291 25 24 24.5709 24 24.0416V22.9584Z" fill="url(#paint5_linear_228_5189)" />
<path d="M25 29.5092C25 28.6757 25.6757 28 26.5092 28H27.4908C28.3243 28 29 28.6757 29 29.5092V30.4908C29 31.3243 28.3243 32 27.4908 32H26.5092C25.6757 32 25 31.3243 25 30.4908V29.5092Z" fill="#AE7939" />
<path d="M27 36.1319C27 35.5068 27.5068 35 28.1319 35H28.8681C29.4932 35 30 35.5068 30 36.1319V36.8681C30 37.4932 29.4932 38 28.8681 38H28.1319C27.5068 38 27 37.4932 27 36.8681V36.1319Z" fill="#AE7939" />
<path d="M25.5 29.6319C25.5 29.0068 26.0068 28.5 26.6319 28.5H27.3681C27.9932 28.5 28.5 29.0068 28.5 29.6319V30.3681C28.5 30.9932 27.9932 31.5 27.3681 31.5H26.6319C26.0068 31.5 25.5 30.9932 25.5 30.3681V29.6319Z" fill="url(#paint6_linear_228_5189)" />
<path d="M27.5054 36.2559C27.5054 35.8414 27.8414 35.5054 28.2559 35.5054H28.744C29.1585 35.5054 29.4945 35.8414 29.4945 36.2559V36.744C29.4945 37.1585 29.1585 37.4945 28.744 37.4945H28.2559C27.8414 37.4945 27.5054 37.1585 27.5054 36.744V36.2559Z" fill="url(#paint7_linear_228_5189)" />
<path d="M19 28.1319C19 27.5068 19.5068 27 20.1319 27H20.8681C21.4932 27 22 27.5068 22 28.1319V28.8681C22 29.4932 21.4932 30 20.8681 30H20.1319C19.5068 30 19 29.4932 19 28.8681V28.1319Z" fill="#AE7939" />
<path d="M19.5 28.2546C19.5 27.8378 19.8378 27.5 20.2546 27.5H20.7454C21.1622 27.5 21.5 27.8378 21.5 28.2546V28.7454C21.5 29.1622 21.1622 29.5 20.7454 29.5H20.2546C19.8378 29.5 19.5 29.1622 19.5 28.7454V28.2546Z" fill="url(#paint8_linear_228_5189)" />
<path d="M21 34C21 32.8954 21.8954 32 23 32C24.1046 32 25 32.8954 25 34C25 35.1046 24.1046 36 23 36C21.8954 36 21 35.1046 21 34Z" fill="#AE7939" />
<path d="M21.6609 33.9999C21.6609 33.2604 22.2604 32.6609 22.9999 32.6609C23.7395 32.6609 24.339 33.2604 24.339 33.9999C24.339 34.7395 23.7395 35.339 22.9999 35.339C22.2604 35.339 21.6609 34.7395 21.6609 33.9999Z" fill="url(#paint9_linear_228_5189)" />
<path d="M15 33C15 31.8954 15.8954 31 17 31C18.1046 31 19 31.8954 19 33C19 34.1046 18.1046 35 17 35C15.8954 35 15 34.1046 15 33Z" fill="#AE7939" />
<path d="M15.6609 32.9999C15.6609 32.2604 16.2604 31.6609 16.9999 31.6609C17.7395 31.6609 18.339 32.2604 18.339 32.9999C18.339 33.7395 17.7395 34.339 16.9999 34.339C16.2604 34.339 15.6609 33.7395 15.6609 32.9999Z" fill="url(#paint10_linear_228_5189)" />
<path d="M22 40C22 38.8954 22.8954 38 24 38C25.1046 38 26 38.8954 26 40C26 41.1046 25.1046 42 24 42C22.8954 42 22 41.1046 22 40Z" fill="#AE7939" />
<path d="M22.6609 39.9999C22.6609 39.2604 23.2604 38.6609 23.9999 38.6609C24.7395 38.6609 25.339 39.2604 25.339 39.9999C25.339 40.7395 24.7395 41.339 23.9999 41.339C23.2604 41.339 22.6609 40.7395 22.6609 39.9999Z" fill="url(#paint11_linear_228_5189)" />
<path d="M17 38.5C17 37.6716 17.6716 37 18.5 37C19.3284 37 20 37.6716 20 38.5C20 39.3284 19.3284 40 18.5 40C17.6716 40 17 39.3284 17 38.5Z" fill="#AE7939" />
<path d="M17.364 38.5C17.364 37.8726 17.8726 37.364 18.5 37.364C19.1274 37.364 19.636 37.8726 19.636 38.5C19.636 39.1274 19.1274 39.636 18.5 39.636C17.8726 39.636 17.364 39.1274 17.364 38.5Z" fill="url(#paint12_linear_228_5189)" />
<path d="M18 43.5C18 42.6716 18.6716 42 19.5 42C20.3284 42 21 42.6716 21 43.5C21 44.3284 20.3284 45 19.5 45C18.6716 45 18 44.3284 18 43.5Z" fill="#AE7939" />
<path d="M18.364 43.5C18.364 42.8726 18.8726 42.364 19.5 42.364C20.1274 42.364 20.636 42.8726 20.636 43.5C20.636 44.1274 20.1274 44.636 19.5 44.636C18.8726 44.636 18.364 44.1274 18.364 43.5Z" fill="url(#paint13_linear_228_5189)" />
<path d="M12 38.5C12 37.6716 12.6716 37 13.5 37C14.3284 37 15 37.6716 15 38.5C15 39.3284 14.3284 40 13.5 40C12.6716 40 12 39.3284 12 38.5Z" fill="#AE7939" />
<path d="M12.364 38.5C12.364 37.8726 12.8726 37.364 13.5 37.364C14.1274 37.364 14.636 37.8726 14.636 38.5C14.636 39.1274 14.1274 39.636 13.5 39.636C12.8726 39.636 12.364 39.1274 12.364 38.5Z" fill="url(#paint14_linear_228_5189)" />
<defs>
<linearGradient id="paint0_linear_228_5189" x1="37.4434" y1="14.312" x2="43" y2="20" gradientUnits="userSpaceOnUse">
<stop stop-color="#D29241" />
<stop offset="0.178473" stop-color="#F6DDBC" />
<stop offset="0.656427" stop-color="#DB9136" />
</linearGradient>
<linearGradient id="paint1_linear_228_5189" x1="29.2956" y1="17.208" x2="33" y2="21" gradientUnits="userSpaceOnUse">
<stop stop-color="#D29241" />
<stop offset="0.178473" stop-color="#F6DDBC" />
<stop offset="0.656427" stop-color="#DB9136" />
</linearGradient>
<linearGradient id="paint2_linear_228_5189" x1="36.2956" y1="24.208" x2="40" y2="28" gradientUnits="userSpaceOnUse">
<stop stop-color="#D29241" />
<stop offset="0.178473" stop-color="#F6DDBC" />
<stop offset="0.656427" stop-color="#DB9136" />
</linearGradient>
<linearGradient id="paint3_linear_228_5189" x1="30.2217" y1="24.156" x2="33" y2="27" gradientUnits="userSpaceOnUse">
<stop stop-color="#D29241" />
<stop offset="0.178473" stop-color="#F6DDBC" />
<stop offset="0.656427" stop-color="#DB9136" />
</linearGradient>
<linearGradient id="paint4_linear_228_5189" x1="32.2217" y1="30.156" x2="35" y2="33" gradientUnits="userSpaceOnUse">
<stop stop-color="#D29241" />
<stop offset="0.178473" stop-color="#F6DDBC" />
<stop offset="0.656427" stop-color="#DB9136" />
</linearGradient>
<linearGradient id="paint5_linear_228_5189" x1="24.2217" y1="22.156" x2="27" y2="25" gradientUnits="userSpaceOnUse">
<stop stop-color="#D29241" />
<stop offset="0.178473" stop-color="#F6DDBC" />
<stop offset="0.656427" stop-color="#DB9136" />
</linearGradient>
<linearGradient id="paint6_linear_228_5189" x1="25.7217" y1="28.656" x2="28.5" y2="31.5" gradientUnits="userSpaceOnUse">
<stop stop-color="#D29241" />
<stop offset="0.178473" stop-color="#F6DDBC" />
<stop offset="0.656427" stop-color="#DB9136" />
</linearGradient>
<linearGradient id="paint7_linear_228_5189" x1="27.6524" y1="35.6088" x2="29.4945" y2="37.4945" gradientUnits="userSpaceOnUse">
<stop stop-color="#D29241" />
<stop offset="0.178473" stop-color="#F6DDBC" />
<stop offset="0.656427" stop-color="#DB9136" />
</linearGradient>
<linearGradient id="paint8_linear_228_5189" x1="20.1478" y1="27.0905" x2="22" y2="28.9865" gradientUnits="userSpaceOnUse">
<stop stop-color="#D29241" />
<stop offset="0.178473" stop-color="#F6DDBC" />
<stop offset="0.656427" stop-color="#DB9136" />
</linearGradient>
<linearGradient id="paint9_linear_228_5189" x1="21.8588" y1="32.8001" x2="24.339" y2="35.339" gradientUnits="userSpaceOnUse">
<stop stop-color="#D29241" />
<stop offset="0.178473" stop-color="#F6DDBC" />
<stop offset="0.656427" stop-color="#DB9136" />
</linearGradient>
<linearGradient id="paint10_linear_228_5189" x1="15.8588" y1="31.8001" x2="18.339" y2="34.339" gradientUnits="userSpaceOnUse">
<stop stop-color="#D29241" />
<stop offset="0.178473" stop-color="#F6DDBC" />
<stop offset="0.656427" stop-color="#DB9136" />
</linearGradient>
<linearGradient id="paint11_linear_228_5189" x1="22.8588" y1="38.8001" x2="25.339" y2="41.339" gradientUnits="userSpaceOnUse">
<stop stop-color="#D29241" />
<stop offset="0.178473" stop-color="#F6DDBC" />
<stop offset="0.656427" stop-color="#DB9136" />
</linearGradient>
<linearGradient id="paint12_linear_228_5189" x1="17.5319" y1="37.4822" x2="19.636" y2="39.636" gradientUnits="userSpaceOnUse">
<stop stop-color="#D29241" />
<stop offset="0.178473" stop-color="#F6DDBC" />
<stop offset="0.656427" stop-color="#DB9136" />
</linearGradient>
<linearGradient id="paint13_linear_228_5189" x1="18.5319" y1="42.4822" x2="20.636" y2="44.636" gradientUnits="userSpaceOnUse">
<stop stop-color="#D29241" />
<stop offset="0.178473" stop-color="#F6DDBC" />
<stop offset="0.656427" stop-color="#DB9136" />
</linearGradient>
<linearGradient id="paint14_linear_228_5189" x1="12.5319" y1="37.4822" x2="14.636" y2="39.636" gradientUnits="userSpaceOnUse">
<stop stop-color="#D29241" />
<stop offset="0.178473" stop-color="#F6DDBC" />
<stop offset="0.656427" stop-color="#DB9136" />
</linearGradient>
</defs>
</svg>