<?xml version='1.0' encoding='utf-8'?>
<!-- by TradeStack -->
<svg viewBox="0 0 56 56" xmlns="http://www.w3.org/2000/svg"><path fill="#F0F3FA" d="M0 0h56v56H0z" /><path d="M6 20.24V20h3.18c.48 0 .77.09 1.16.23a1.86 1.86 0 011.27 1.82c0 .48-.16.98-.45 1.26-.3.29-.65.49-1.06.6-.42.12-.68.17-1.08.17H8v2.16c0 .23.06.38.2.45.16.07.48.1.8.1V27H6v-.2c.21 0 .52-.02.63-.04.1-.03.17-.08.22-.16.04-.07.15-.2.15-.36V20.8a.52.52 0 00-.26-.46 2 2 0 00-.74-.1zm2 .56v3.07h.7c.44 0 .66-.05.92-.14.27-.1.48-.28.62-.55a3 3 0 00.2-1.23c0-.35-.05-.66-.17-.91-.11-.26-.3-.46-.54-.6a1.33 1.33 0 00-.8-.22c-.26 0-.46.01-.58.03a.4.4 0 00-.28.15c-.06.08-.07.21-.07.4zm30-.55V20h3.17c1.17 0 2.7.46 2.7 1.89 0 1-.76 1.55-1.66 1.83a9.86 9.86 0 011.81 2.47c.19.38.49.56.98.56V27h-1.72c-.86-1.4-1.5-2.34-1.93-2.75-.24-.25-.76-.39-1.35-.42v2.36c0 .55.55.56 1 .56V27h-3v-.25c.48 0 1-.02 1-.56v-5.38c0-.48-.52-.56-1-.56zm3.04 3.33c1.1-.08 1.68-.68 1.68-1.7 0-1.04-.82-1.67-1.83-1.67-.45 0-.89.1-.89.6v2.81c.21 0 .62 0 1.04-.04zM33.5 24h-3.44c-.24 1.27.39 2.35 1.67 2.35a1.8 1.8 0 001.64-.99l.18.06c-.11.3-.28.58-.48.82-.2.24-.46.43-.75.56-.3.13-.62.2-.97.2-.73 0-1.3-.2-1.72-.62a2.18 2.18 0 01-.63-1.63 2.25 2.25 0 012.31-2.25c.56 0 1.03.13 1.42.38.39.25.65.64.77 1.13zm-3.37-.24h2.06c-.06-.7-.38-1.05-.99-1.05-.57 0-1.01.53-1.07 1.05zm19.81.24H46.5c-.23 1.27.4 2.35 1.68 2.35a1.8 1.8 0 001.63-.99l.19.06c-.12.3-.28.58-.49.82-.2.24-.45.43-.74.56-.3.13-.62.2-.98.2-.72 0-1.3-.2-1.71-.62a2.18 2.18 0 01-.63-1.63 2.25 2.25 0 012.31-2.25c.55 0 1.03.13 1.42.38.39.25.64.64.76 1.13zm-3.36-.24h2.05c-.05-.7-.38-1.05-.98-1.05-.57 0-1.01.53-1.07 1.05zM25.54 27h-2.08v-.2c.43-.02.54-.08.54-.55v-2.52c0-.38-.06-.54-.45-.64v-.11c.47-.13 1-.31 1.45-.48v.77a1.7 1.7 0 011.41-.77c.76 0 1.59.54 1.59 1.34v2.4c0 .45.27.53.65.57V27h-2.14v-.2c.44-.02.49-.08.49-.55V24c0-.65-.25-1.06-.95-1.06-.45 0-1.05.4-1.05.9v2.4c0 .45.14.53.54.56v.2zm-2.84-4h-1.15v2.7c0 .9.83.78 1.42.43.05.03.08.06.08.1 0 .03-.01.06-.03.08a.6.6 0 01-.1.1l-.08.06a1.63 1.63 0 01-1.2.53c-.36 0-.63-.11-.8-.34a1.36 1.36 0 01-.3-.87V23h-.53v-.08c.44-.42 1.12-.8 1.54-1.25v.84h1.4l-.26.49zm-4.05 4h-2.2v-.2c.27 0 .36-.04.43-.1.08-.05.12-.2.12-.44v-2.53c0-.3-.16-.46-.43-.58v-.1c.2-.06.44-.15.73-.27.3-.12.58-.2.7-.25v.72c.23-.24.38-.52.7-.67.1-.05.21-.08.32-.08a.7.7 0 01.42.12c.11.08.17.19.17.34 0 .11-.04.2-.13.27a.44.44 0 01-.3.11.99.99 0 01-.27-.09 1 1 0 00-.37-.08c-.2 0-.54.2-.54.43v2.66c0 .19.03.45.25.5.1.02.18.04.4.05V27zm17.55 0H34v-.2c.26 0 .35-.04.42-.1.08-.05.12-.2.12-.44v-2.53c0-.3-.16-.46-.43-.58v-.1c.2-.06.44-.15.73-.27.3-.12.58-.2.7-.25v.72c.23-.24.38-.52.7-.67.1-.05.22-.08.33-.08a.7.7 0 01.42.12c.1.08.16.19.16.34 0 .11-.04.2-.12.27a.44.44 0 01-.3.11.99.99 0 01-.28-.09 1 1 0 00-.37-.08c-.2 0-.54.2-.54.43v2.66c0 .19.03.45.25.5.1.02.18.04.4.05V27zm-21.9-2.62V23.3c0-.34-.15-.51-.63-.51-.22 0-.44.05-.67.14-.22.1-.33.21-.33.33v.22c0 .22-.03.38-.12.48-.08.11-.23.17-.46.17a.32.32 0 01-.24-.1.34.34 0 01-.1-.24c0-.19.13-.38.4-.59.26-.2.58-.37.97-.5.38-.13.74-.2 1.06-.2.34 0 .6.09.8.26.18.17.31.4.31.7v2.66c0 .3.05.46.23.46.15 0 .26-.1.32-.33h.18c-.06.5-.34.75-.84.75-.3 0-.87-.3-.88-.67l-.3.25-.37.22a1.78 1.78 0 01-.85.2c-.17 0-.34-.04-.5-.11a1 1 0 01-.38-.3.7.7 0 01-.14-.43c0-.26.09-.48.26-.66.17-.2.38-.35.65-.48.26-.13.53-.24.8-.33.27-.09.49-.2.82-.3zm0 1.72v-1.5c-.2.07-.36.16-.67.27-.31.11-.57.24-.78.38-.2.14-.3.3-.3.5s.07.37.23.52c.15.14.35.21.58.21.2 0 .36-.03.5-.09s.23-.16.44-.3z" fill="#010101" /><path fill="#FC3709" d="M32 30h17v3H32z" /><path fill="#010101" d="M14 36h18v3H14z" /></svg>