<?xml version='1.0' encoding='utf-8'?>
<!-- by TradeStack -->
<svg width="56" height="56" viewBox="0 0 56 56" xmlns="http://www.w3.org/2000/svg"><path fill="#F0F3FA" d="M0 0h56v56H0z" /><path d="M24.09 34C12.87 33.83 4 31.66 4 29c0-2.76 9.61-5 21.47-5 7.24 0 13.64.84 17.53 2.12h-5.1c-3.12-1.06-7.83-1.73-13.1-1.73-9.38 0-16.8 2.13-16.8 4.76 0 2.56 7.05 4.66 16.09 4.76V34ZM26 32.98c-7.37-.19-13-1.82-13-3.8 0-2 5.63-3.63 13-3.81-.47-.02-.94-.02-1.42-.02-8.05 0-14.58 1.71-14.58 3.82C10 31.3 16.53 33 24.58 33c.48 0 .95 0 1.42-.02Zm-10-4c0-1.49 3.51-2.72 8.15-2.98-3.7.61-6.15 1.7-6.15 2.93 0 1.34 2.84 2.5 7.01 3.07-5.05-.14-9.01-1.44-9.01-3.02Z" fill="url(#a)" /><circle cx="27.07" cy="22.07" r="1.07" fill="#0B4696" /><circle cx="27.33" cy="21.89" r=".71" fill="#BFC7EE" /><circle cx="26.2" cy="25.2" r="1.2" fill="#0B4696" /><circle cx="26.51" cy="24.98" r=".8" fill="#BFC7EE" /><circle cx="27.89" cy="19.89" r=".89" fill="#0B4696" /><circle cx="28.11" cy="19.75" r=".58" fill="#BFC7EE" /><path d="M48.2 29.17h1.75l.24-1.02c.06-.27.01-.36-.22-.36h-1.14c-.24 0-.33.1-.4.36l-.23 1.02Zm3.35.83h-3.53l-.21.85c-.06.27-.01.36.22.36h2.67c.15 0 .35-.02.58-.06l-.35.85h-3.96c-.82 0-1.12-.41-.9-1.34l.54-2.32c.22-.93.7-1.34 1.52-1.34h2.9c.82 0 1.12.41.9 1.34L51.55 30ZM46 27l-.32 1.1c-.37-.06-.63-.1-1.47-.1h-.84c-.24 0-.4.1-.45.27l-.75 2.6c-.17.6-.2.9-.2 1.13H40c.14-.23.28-.53.45-1.13l.79-2.74c.17-.6.2-.9.2-1.13h1.63l-.07.54h.02c.18-.4.5-.54 1.18-.54H46ZM38.74 32h-1.81l.09-.51h-.03c-.25.4-.44.51-.79.51h-2.06c-.97 0-1.31-.41-1.06-1.34l.7-2.53c.16-.6.2-.9.19-1.13h1.84l-1.06 3.85c-.08.27-.02.36.26.36h1.65c.28 0 .39-.1.46-.36l.75-2.72c.17-.6.2-.9.2-1.13H40l-1.07 3.87c-.16.6-.2.9-.19 1.13ZM29.33 27l-.01.48h.02c.15-.27.4-.48.7-.48h1.89c.9 0 1.23.42 1 1.36l-.6 2.28c-.25.94-.79 1.36-1.7 1.36h-1.8c-.16 0-.28-.02-.35-.1-.08-.08-.12-.21-.16-.42h-.04l-.34 1.37c-.15.61-.18.91-.17 1.15H26l1.5-5.85c.15-.61.18-.91.17-1.15h1.66Zm1.9.8h-1.65c-.26 0-.37.1-.44.37l-.7 2.66c-.07.27-.01.37.25.37h1.66c.26 0 .36-.1.43-.37l.7-2.66c.07-.27.02-.37-.25-.37Z" fill="#536FAB" /><path d="M25.23 27H27l-.96 3.87c-.14.6-.17.9-.16 1.13H24c.12-.23.24-.53.39-1.13l.67-2.74c.15-.6.18-.9.17-1.13Z" fill="#0B4696" /><defs><linearGradient id="a" x1="43" y1="29" x2="4" y2="29" gradientUnits="userSpaceOnUse"><stop offset=".52" stop-color="#17418B" /><stop offset="1" stop-color="#B1B5DA" /></linearGradient></defs></svg>