<?xml version='1.0' encoding='utf-8'?>
<!-- by TradeStack -->
<svg width="56" height="56" viewBox="0 0 56 56" fill="none" xmlns="http://www.w3.org/2000/svg">
<rect width="56" height="56" fill="#F0F3FA" />
<path d="M37.8629 32.8812C38.3741 34.597 35.2457 37.0045 30.8754 38.2586C26.505 39.5126 22.5478 39.1382 22.0366 37.4224C21.5254 35.7066 24.6538 33.299 29.0241 32.045C33.3944 30.7909 37.3517 31.1653 37.8629 32.8812Z" fill="#0070AD" />
<path d="M21.0172 33.4253C21.3709 34.6125 19.2063 36.2783 16.1824 37.146C13.1585 38.0137 10.4204 37.7547 10.0667 36.5675C9.71295 35.3803 11.8776 33.7144 14.9015 32.8467C17.9254 31.979 20.6635 32.2381 21.0172 33.4253Z" fill="#0070AD" />
<path d="M16.6197 28.5418C16.8972 29.4731 15.1992 30.7799 12.8271 31.4605C10.455 32.1412 8.30716 31.938 8.0297 31.0067C7.75223 30.0754 9.45024 28.7686 11.8223 28.088C14.1944 27.4073 16.3423 27.6105 16.6197 28.5418Z" fill="#50A346" />
<path d="M20.7491 22.9032C20.9834 23.6896 19.5495 24.7931 17.5464 25.3679C15.5433 25.9427 13.7295 25.7711 13.4952 24.9846C13.2609 24.1982 14.6948 23.0947 16.6979 22.52C18.701 21.9452 20.5148 22.1168 20.7491 22.9032Z" fill="#60AAC2" />
<path d="M28.0192 19.2514C28.2083 19.8859 27.0515 20.7761 25.4354 21.2398C23.8194 21.7036 22.3561 21.5651 22.167 20.9306C21.978 20.2962 23.1348 19.4059 24.7509 18.9422C26.3669 18.4785 27.8302 18.6169 28.0192 19.2514Z" fill="#60AAC2" />
<path d="M42.0592 17.9617C42.2639 18.6488 41.1198 19.5817 39.5037 20.0454C37.8877 20.5091 36.4117 20.328 36.207 19.641C36.0023 18.9539 37.1464 18.0211 38.7625 17.5574C40.3785 17.0936 41.8545 17.2747 42.0592 17.9617Z" fill="#50A346" />
<path d="M47.9693 20.5155C48.2266 21.3792 46.8391 22.5374 44.8702 23.1024C42.9012 23.6673 41.0965 23.4252 40.8392 22.5614C40.5818 21.6977 41.9693 20.5395 43.9383 19.9745C45.9072 19.4095 47.712 19.6517 47.9693 20.5155Z" fill="#50A346" />
<path d="M47.2075 26.4379C47.5523 27.5954 45.6929 29.1475 43.0543 29.9047C40.4156 30.6618 37.9971 30.3372 37.6522 29.1797C37.3073 28.0222 39.1668 26.4701 41.8054 25.7129C44.444 24.9558 46.8626 25.2804 47.2075 26.4379Z" fill="#0070AD" />
<path d="M34.7488 17.452C34.8953 17.9436 33.9991 18.6333 32.747 18.9925C31.495 19.3518 30.3614 19.2445 30.2149 18.753C30.0685 18.2614 30.9647 17.5717 32.2167 17.2125C33.4687 16.8532 34.6024 16.9605 34.7488 17.452Z" fill="#60AAC2" />
</svg>