<?xml version='1.0' encoding='utf-8'?>
<!-- by TradeStack -->
<svg width="56" height="56" viewBox="0 0 56 56" xmlns="http://www.w3.org/2000/svg"><path fill="#F0F3FA" d="M0 0h56v56H0z" /><path d="M44 30h7v-1.41h-5.38V26H50v-1.43h-4.38v-2.16H51V21h-7v9Zm-3.1-2.66v.03c0 .8-.66 1.23-1.73 1.23h-2.61V26h2.5c1.24 0 1.84.58 1.84 1.34Zm-.5-3.77c0 .82-.68 1.22-1.69 1.22h-2.15V22.4h2.27c1 0 1.57.44 1.57 1.15v.02ZM35 30h4.16c2 0 3.32-.86 3.32-2.47v-.02c0-1.23-.73-1.83-1.78-2.19.67-.35 1.28-.93 1.28-2v-.03a2.04 2.04 0 0 0-.6-1.5c-.51-.5-1.32-.79-2.35-.79H35v9Zm-20-4.54v-3.02h2.27c1.17 0 1.86.53 1.86 1.5v.02c0 .91-.71 1.5-1.84 1.5H15ZM13.4 30H15v-3h1.95l2.2 3h1.88l-2.42-3.4c1.24-.37 2.13-1.25 2.13-2.73v-.03a2.72 2.72 0 0 0-.75-1.94 3.61 3.61 0 0 0-2.59-.9h-4v9Zm-6.82-4.32v-3.24h1.84c1.18 0 1.93.55 1.93 1.6v.03c0 .94-.74 1.61-1.93 1.61H6.58ZM5 30h1.58v-3h1.78c1.98 0 3.6-.95 3.6-2.97v-.02c0-1.81-1.31-3.01-3.42-3.01H5v9Z" fill="#015A7C" /><path d="M39.9 33.37c1.62 0 2.68 1.12 2.68 2.63v.02c0 1.51-1.06 2.6-2.68 2.6h-1.53v-5.25h1.53ZM37 40h2.9c2.42 0 4.1-1.82 4.1-4v-.02A3.96 3.96 0 0 0 39.9 32H37v8Zm-7 0h5v-1.37h-3.58V32H30v8Zm-6.02-1.26c-1.54 0-2.63-1.24-2.63-2.74v-.02c0-1.5 1.07-2.72 2.6-2.72 1.54 0 2.63 1.24 2.63 2.74v.02c0 1.5-1.07 2.72-2.6 2.72ZM23.95 40A3.95 3.95 0 0 0 28 36v-.02a4.05 4.05 0 0 0-8.07.02v.02A3.93 3.93 0 0 0 23.95 40Zm-8.94 0c1.18 0 2.42-.43 3.32-1.2v-3.01H15V37h2v1.18c-.54.38-1.28.59-1.95.58-1.58 0-2.63-1.17-2.63-2.76v-.02c0-1.48 1.09-2.72 2.5-2.72.8-.02 1.58.27 2.17.82l.86-1.03A4.17 4.17 0 0 0 14.98 32 3.93 3.93 0 0 0 11 36v.02A3.83 3.83 0 0 0 15 40" fill="#D9AB18" /><path d="M27.82 30.28a5.14 5.14 0 1 0 0-10.28 5.14 5.14 0 0 0 0 10.28Z" fill="#015A7C" /><path d="m27.4 24.21 5.54 1.43a5.21 5.21 0 0 0-.25-2.15l-5.7-.17-3.76 4.14.23.4 3.95-3.65Z" fill="#D9AB18" /><path d="M27.82 30.28a5.14 5.14 0 0 0 4.44-2.54l-4.44-2.6-4.2 2.97a5.13 5.13 0 0 0 4.2 2.17Z" fill="#D9AB18" /></svg>