<!-- by TradeStack --><svg width="56" height="56" viewBox="0 0 56 56" xmlns="http://www.w3.org/2000/svg"><path fill="#F0F3FA" d="M0 0h56v56H0z"/><path d="M29 33.8v2.59c2.03 0 4.02-.52 5.8-1.52 1.77-1 3.26-2.43 4.34-4.18L37 29.3a9.5 9.5 0 0 1-3.43 3.3A9.28 9.28 0 0 1 29 33.8Z" fill="#3BC0CB"/><path d="M29 30.52v2.46a8.52 8.52 0 0 0 7.33-4.14l-2.04-1.33a6.26 6.26 0 0 1-5.3 3Z" fill="#2EAAE1"/><path d="M29 27.4v2.24a5.28 5.28 0 0 0 4.56-2.61l-1.84-1.22a3.18 3.18 0 0 1-2.73 1.6Z" fill="#2E6DB5"/><path d="m23.7 27.5-2.04 1.35A8.7 8.7 0 0 0 29 32.98v-2.46a6.13 6.13 0 0 1-5.3-3.01Z" fill="#2EAAE1"/><path d="M29 29.64V27.4a3.11 3.11 0 0 1-2.73-1.59l-1.84 1.21a5.39 5.39 0 0 0 4.56 2.6ZM22.77 24.2c0-1.27.38-2.5 1.08-3.56l-2.04-1.33a8.9 8.9 0 0 0-.15 9.54l2.04-1.34c-.6-1-.93-2.14-.93-3.31Z" fill="#3BC0CB"/><path d="M25.84 24.2c0-.67.2-1.32.58-1.86l-1.84-1.22a5.5 5.5 0 0 0-.15 5.91l1.84-1.21a3.23 3.23 0 0 1-.43-1.62Z" fill="#2EAAE1"/><path d="M35.21 24.2c0 1.16-.32 2.31-.92 3.3l2.04 1.34a8.9 8.9 0 0 0-.16-9.53l-2.03 1.34a6.37 6.37 0 0 1 1.07 3.55Z" fill="#3BC0CB"/><path d="m34.14 20.65 2.03-1.34a8.68 8.68 0 0 0-7.18-3.9v2.46a6.13 6.13 0 0 1 5.15 2.78Z" fill="#1383B7"/><path d="m31.57 22.34 1.84-1.21a5.38 5.38 0 0 0-4.42-2.38v2.23a3.1 3.1 0 0 1 2.58 1.36Z" fill="#1383B7"/><path d="m19 17.46 2.14 1.4A9.49 9.49 0 0 1 29 14.6V12c-1.98 0-3.93.5-5.67 1.45a12.06 12.06 0 0 0-4.32 4Z" fill="#2EAAE1"/><path d="m21.8 19.33 2.02 1.35a6.27 6.27 0 0 1 5.17-2.8V15.4c-2.99 0-5.64 1.57-7.2 3.92Z" fill="#3BC0CB"/><path d="M29 20.98v-2.23a5.27 5.27 0 0 0-4.42 2.37l1.84 1.21a3.17 3.17 0 0 1 2.57-1.35Z" fill="#3AC0CD"/><path d="m39 17.46-2.14 1.41A9.72 9.72 0 0 1 37 29.28l2.15 1.41A12.36 12.36 0 0 0 39 17.46Z" fill="#2E6DB5"/><path d="m39 17.46-2.15 1.41A9.49 9.49 0 0 0 29 14.6V12c1.98 0 3.93.5 5.67 1.45 1.75.96 3.23 2.33 4.33 4.01Z" fill="#3BC0CB"/><path d="M23 31.12c-1.64-1.56-3.13-3.67-3.36-5.94a6.43 6.43 0 0 1-.08-1c0-1.9.55-3.75 1.58-5.33L19 17.45c-1.3 1.99-2 4.33-2 6.73V45h6V31.12Z" fill="#1383B7"/></svg>