<?xml version='1.0' encoding='utf-8'?>
<!-- by TradeStack -->
<svg width="56" height="56" viewBox="0 0 56 56" xmlns="http://www.w3.org/2000/svg"><path fill="#F0F3FA" d="M0 0h56v56H0z" /><path d="M19.54 35 22 18l-12 5-2 12h11.54Z" fill="url(#a)" /><path d="M10 23c3.7-1.57 8.3-3.43 12-5 1.93 1.53 4.06 3.49 6 5l-4.13-11c-4.66 3.67-9.26 7.37-13.87 11Z" fill="#0071B3" /><path d="M25.62 28.02a4.22 4.22 0 0 0-4.51 3.29c-.4 1.67.35 3.17 1.84 3.57.44.12.93.14 1.4.1 1.93-.15 3.64-2.1 3.65-4.1 0-1.52-.98-2.7-2.38-2.86ZM24.5 33.5c-1.04.2-1.83-.49-1.83-1.59s.81-2.17 1.81-2.37c1.03-.2 1.77.4 1.84 1.47.08 1.1-.78 2.28-1.82 2.49ZM18.45 28.07c-1-.1-2.02-.06-3.03-.06-.07 0-.19.17-.2.28-.32 1.67-.62 3.35-.93 5.03l-.26 1.48c0 .07-.02.13-.03.2h1.65l.3-1.63.12-.65.2.34c.3.57.59 1.15.9 1.72.04.09.13.2.2.2.6.02 1.2.01 1.88.01l-1.41-2.36c1.21-.3 1.87-1.09 2.1-2.25.25-1.22-.33-2.18-1.49-2.3Zm-.18 2.32c-.04.59-.42 1.03-1 1.1-.3.04-.61 0-.98 0l.34-1.8c.01-.06.1-.14.16-.14.32.01.64 0 .95.07.38.08.56.37.53.77ZM12.08 28.04c-.83-.04-1.66-.01-2.5-.04-.27 0-.35.1-.4.36l-.83 4.67-.18 1L8 35h1.37l.28.01.06-.36.01-.05.14-.82.18-.97h.93c1.55-.05 2.5-.76 2.9-2.15.44-1.5-.27-2.55-1.8-2.61Zm-.24 3.03c-.18.1-.38.15-.58.17-.29.02-.59 0-.94 0 .1-.55.18-1.05.29-1.55 0-.06.13-.13.2-.13.25-.01.51-.01.77.01.46.05.65.2.72.5.07.36-.13.83-.46 1ZM35.76 28h-.5l-.04.21v.02l-.76 4.24L34 35h3.76l.27-1.53h-2.1l.08-.41-.08.41.24-1.24h2.02l.27-1.55h-2.02l.2-1.14h.54l.39.01H38.73l.27-1.5c-.05-.02-.07-.04-.1-.04-1.05 0-2.1-.01-3.14 0ZM32.45 28.07c-1-.1-2.02-.06-3.03-.06-.07 0-.19.17-.2.28-.32 1.67-.62 3.35-.93 5.03l-.26 1.48c0 .07-.02.13-.03.2h1.65l.3-1.63.12-.65.2.34c.3.57.59 1.15.9 1.72.04.09.13.2.2.2.6.02 1.2.01 1.88.01l-1.41-2.36c1.22-.3 1.87-1.09 2.1-2.25.25-1.22-.33-2.18-1.49-2.3Zm-.18 2.32c-.04.59-.42 1.03-1 1.1-.3.04-.61 0-.98 0l.34-1.8c0-.06.1-.14.16-.14.32.01.64 0 .95.07.38.08.56.37.53.77ZM43.3 28.02l-.1.5-.14.74-.02.11-.04.2h1.43l-1.03 5.37v.04l1.65.02h.18l.04-.22.04-.17.77-4.03.11-.58.04-.2.04-.24h1.44l.11-.6.13-.7.04-.2L48 28l-4.7.02ZM40.87 28h-.6l-.04.22-.17.92v.01l-.34 1.86v.04l-.1.54L39 35h1.5l.24.01.05-.3.04-.24.5-2.75.25-1.36.1-.58.04-.21.12-.66.05-.3.11-.6c-.4 0-.77.02-1.13 0Z" fill="#003A5E" /><defs><linearGradient id="a" x1="15.91" y1="20.56" x2="13.97" y2="33.81" gradientUnits="userSpaceOnUse"><stop offset=".05" stop-color="#D3DDE2" /><stop offset=".55" stop-color="#EAEFF1" stop-opacity=".48" /><stop offset="1" stop-color="#fff" stop-opacity="0" /></linearGradient></defs></svg>