<?xml version='1.0' encoding='utf-8'?>
<!-- by TradeStack -->
<svg width="56" height="56" viewBox="0 0 56 56" xmlns="http://www.w3.org/2000/svg"><path fill="#F0F3FA" d="M0 0h56v56H0z" /><path d="M22.39 20.98c.19 1.42.6 2.82 1.21 4.11 1.03 2.15 2.42 4.09 3.76 6.04.83 1.25 1.6 2.55 2.2 3.92a13.26 13.26 0 0 1 1.3 5.5c.02.3-.09.62.09.89a5.78 5.78 0 0 0 1.89 1.85c.08.04.18.16.28.1.25-.42.37-.89.49-1.35a9.57 9.57 0 0 0-.44-4.94 24.47 24.47 0 0 0-3.5-6.52 34.9 34.9 0 0 1-3.4-5.77 12.4 12.4 0 0 1 .4-10.87 7.37 7.37 0 0 1 2.7-2.91 8.53 8.53 0 0 0-2.24.12c-.5.08-.96.32-1.37.6a7.37 7.37 0 0 0-2.07 2.42 11.55 11.55 0 0 0-1.3 6.8zM24.1 40.03h-4.78a5.9 5.9 0 0 0 1.98 3.17 8.55 8.55 0 0 0 2.85 1.49c1.38.26 2.8.24 4.2.1a6.5 6.5 0 0 1-1.76-.88 7.25 7.25 0 0 1-2.49-3.88z" fill="#E8941A" /><path d="M32.6 43.84a7.03 7.03 0 0 1-3.2-3.8h-4.6a5.53 5.53 0 0 0 2.29 3.52A9.5 9.5 0 0 0 32.62 45c.67 0 1.36-.06 2-.26a1.64 1.64 0 0 0-.4-.18c-.57-.16-1.1-.45-1.63-.72zM33.99 31.08c-1.06-1.77-2.16-3.53-3.1-5.37A16.43 16.43 0 0 1 29.43 22a10.7 10.7 0 0 1-.25-3.3 9.63 9.63 0 0 1 2.04-5.48 8.26 8.26 0 0 1 2.44-2.01c-.79-.1-1.58-.15-2.37-.17-.42-.02-.83.1-1.21.29a6.5 6.5 0 0 0-2.44 2.26 11.42 11.42 0 0 0-1.73 7.4c.18 1.38.57 2.74 1.14 4.01 1.06 2.3 2.56 4.33 3.97 6.4a21.6 21.6 0 0 1 3.07 6.63 8.84 8.84 0 0 1-.05 4.8c-.09.32-.26.61-.33.94.51.21 1.04.4 1.6.44.5.04 1.03-.05 1.4-.4a3.63 3.63 0 0 0 1.25-2.45 9.93 9.93 0 0 0-.9-4.56c-.83-2-1.94-3.88-3.08-5.72z" fill="#E16F21" /><path d="M30.66 15.38a6.31 6.31 0 0 0-.53 1.72h7.5c.04-.85-.14-1.7-.38-2.52a6.85 6.85 0 0 0-1.18-2.35c-.32-.37-.75-.7-1.26-.71-.64-.02-1.2.35-1.7.7a8.15 8.15 0 0 0-2.45 3.16z" fill="#E16F21" /><path d="M20.22 25.56a35.9 35.9 0 0 0 2.85 4.8 28.22 28.22 0 0 1 2.89 4.93 14.53 14.53 0 0 1 1.19 4.2c1.03.02 2.07.01 3.1 0-.1-.06-.1-.18-.12-.29a13.68 13.68 0 0 0-1-3.5c-.72-1.7-1.65-3.3-2.71-4.8a97.3 97.3 0 0 1-1.7-2.51c-1.26-1.98-2.42-4.1-2.85-6.44-.48-2.69-.1-5.55 1.19-7.97a7.54 7.54 0 0 1 1.98-2.42 7.24 7.24 0 0 0-3.5 1.4 8.36 8.36 0 0 0-2.51 4.25c-.25 1.04-.3 2.12-.26 3.2.1 1.8.65 3.54 1.45 5.15zM18.62 40.04H15a6.32 6.32 0 0 0 3.09 3.67 9.02 9.02 0 0 0 5 1.17 6.06 6.06 0 0 1-2.21-1.14 7.15 7.15 0 0 1-2.26-3.7z" fill="#E9C900" /></svg>