<?xml version='1.0' encoding='utf-8'?>
<!-- by TradeStack -->
<svg width="56" height="56" viewBox="0 0 56 56" xmlns="http://www.w3.org/2000/svg"><path fill="#336" d="M0 0h56v56H0z" /><path d="M10 16h36v24H10V16Z" fill="#505083" /><path fill-rule="evenodd" d="M45.5 16.5h-35v23h35v-23ZM10 16v24h36V16H10Z" fill="#fff" /><path fill-rule="evenodd" d="M31.76 24.76a20.8 20.8 0 0 1 4.73-1.86c2.36-.56 4.4-.55 5.41.74 1.07 1.36 1.18 3.6.37 5.61a18.18 18.18 0 0 1-2.58 4.39l-.42-.28a15.53 15.53 0 0 0-7.5-8.6ZM30 23.98a23.3 23.3 0 0 1 6.12-2.58c2.46-.58 5.26-.6 6.9 1.49 1.59 2.02 1.23 4.58.35 6.75a18.8 18.8 0 0 1-2.8 4.61 33.38 33.38 0 0 1 5.2 4.53l-1.17 1.04c-1.4-1.52-3-2.9-4.72-4.15a15.13 15.13 0 0 1 .14 4.33H10v-7.92a15.52 15.52 0 0 1 5.33-6.32 51.4 51.4 0 0 0-5-.8v-.82h.01c1.7.17 3.88.4 6.35.79a15.95 15.95 0 0 1 13.3-.95Zm-.4 4.35h-.22a70.23 70.23 0 0 0-2.24-.84l.67-.84 1.79 1.68Zm-3.14-4.81c-2.01-.24-6.13-.18-6.7 1.96 1.68.34 3.44.76 5.22 1.3l1.48-1.22v-2.04Zm-14.84 8.23c.57-1.6 2.43-4.78 5.46-5.6l1.9.46 3.3 1.72-8.13 8.09.82-6.12-3.35 1.45Zm2.53 6.42 10.82-9.4 2.84 1.53-2.84 3.42.82 2.7-2.6-.73-3.44 1.9 1.57 1.96h-7.17v-1.38Z" fill="#fff" /></svg>