<!-- by TradeStack --><svg width="56" height="56" viewBox="0 0 56 56" xmlns="http://www.w3.org/2000/svg"><path fill="#F0F3FA" d="M0 0h56v56H0z"/><path d="M27.14 18.64a1.08 1.08 0 0 1 .27-1.85c.68-.3 1.53-.06 1.78.66.13.36.05.78-.23 1.06-.15.15-.34.26-.34.49a549.7 549.7 0 0 1-.12 8.2s0 .02-.03.02c-.22.03-1 0-1-.35-.03-2.6-.07-5.2-.13-7.8 0-.24-.02-.27-.2-.43Z" fill="#277FFF"/><path d="M37.6 21.9c-.07.46-.2.85-.73.8-.3-.01-.62-.06-.93-.11a.13.13 0 0 0-.14.06c-.49.97-1.01.65-1.84.49-.15-.03-.2.01-.28.14-.45.74-1.4.19-1.93-.08a.1.1 0 0 0-.12.02c-.16.16-.32.35-.52.44-.46.22-.85.13-1.37-.02-.19-.06-.53-.14-.7-.27a.06.06 0 0 1-.02-.04c-.02-.1-.02-.22-.02-.33V20.7c0-.03.08-.06.1-.05 1.03.16 1.23-.67 1.56-1.38.3-.66.57-1.05 1.1-1.47.4-.33.72-.28 1.2-.08 1.34.56 2.62 1.18 3.44 1.58 1.27.62 2.54 1.12 3.97.85.3-.05.65-.17.97-.26.2-.05.89-.19.58.31a2.59 2.59 0 0 1-2.1 1.31c-.05 0-.1.04-.15.1a.06.06 0 0 0-.02.04c.02.23-.1.32-.32.34-.58.03-1.14 0-1.7-.1-.02 0-.03 0-.04.02ZM20.14 22.58c-.34.06-.74.17-1.08.14-.55-.06-.58-.37-.67-.83 0-.02-.02-.02-.04-.02-.55.14-1.1.18-1.66.12-.23-.03-.4-.1-.36-.37a.1.1 0 0 0-.05-.1.1.1 0 0 0-.03 0c-.21-.03-.45-.05-.65-.1-.64-.18-1.4-.68-1.64-1.34-.2-.51 1.08-.07 1.24-.02 1.43.42 3.04-.09 4.35-.7 1-.47 1.98-1 3-1.43.49-.22.81-.34.96-.36 1.19-.14 1.72 1.44 2.15 2.3.27.56.6.85 1.25.77.07 0 .09.02.09.1v2.6a.09.09 0 0 1-.06.08c-.43.13-.79.24-1.18.34-.63.16-.88-.14-1.33-.5a.16.16 0 0 0-.14-.02c-.6.16-1.4.8-1.91.07a2.85 2.85 0 0 1-.15-.21h-.03c-.86.25-1.6.51-2.02-.5 0-.02-.02-.02-.04-.02ZM21.65 26.74c-.5-.44-1.1-1.3-.43-1.87a3.3 3.3 0 0 1 1.72-.6l1.73-.16c.3-.03.53-.03.68 0 .5.1.94.54 1.11.98.03.08.02.16-.03.25l-.03.03c-.43.25-.87.32-1.34.24-.4-.07-.74-.36-1.15-.46a3.8 3.8 0 0 0-1.56-.07c-.32.06-.54.18-.53.52 0 .83 2.02 1.39 2.62 1.52.91.2 1.9.22 2.9.27 1.46.08 3.5.47 4.52 1.62.42.48.53 1 .34 1.58-.32.94-1.35 1.66-2.22 2.1-.33.16-.53.09-.82-.09-.13-.07-.4-.14-.38-.33.01-.09.05-.14.12-.16.68-.22 1.59-.64 1.88-1.3.4-.92-.64-1.7-1.39-1.94-.2-.06-.53-.13-1-.2-.77-.11-1.56-.15-2.34-.23-1.54-.17-3.22-.64-4.4-1.7Zm3.95-2.2h-.02l-.16.26a.02.02 0 0 0 0 .01.02.02 0 0 0 .01.01l.52.15h.01a.02.02 0 0 0 .01-.02l-.37-.4Z" fill="#277FFF"/><path d="M29.59 25.38c-.16-.09-.07-.3-.02-.41.35-.7.88-.87 1.63-.85.8.02 4.23.1 3.83 1.6-.33 1.25-2.36 2.13-3.47 2.42-.07.01-.17 0-.3-.07a364.98 364.98 0 0 1-1.52-.68v-.02h.02c.94-.1 1.83-.2 2.73-.52.5-.17 1.1-.43 1.45-.8.4-.43.26-.85-.32-.96a3.33 3.33 0 0 0-2.37.43c-.45.26-1.21.1-1.66-.14Zm1.05-.55.01-.01a.02.02 0 0 0 0-.02l-.17-.26v-.01h-.02l-.35.41a.02.02 0 0 0 .02.03l.51-.14Z" fill="#277FFF"/><path d="M21.07 28c1.2 0 2.36.4 2.76 1.6.46 1.36 0 2.8-1.57 3.26-.4.12-.79.14-1.25.14h-2.99l-.01.01-.01.01v3.95c0 .02 0 .03-.03.03h-.93l-.02-.01a.04.04 0 0 1-.02-.02v-8.92c0-.01 0-.02.02-.03a7637.37 7637.37 0 0 1 4.05-.02Zm-3.08 1.09.01 2.86c0 .04.03.05.07.05h3.06c1.16 0 1.87-.63 1.87-1.62 0-.99-.9-1.38-1.87-1.38h-3.06l-.03.02a.08.08 0 0 0-.04.04v.03ZM37.07 28c1.2 0 2.36.4 2.76 1.6.46 1.36 0 2.8-1.57 3.26-.4.12-.79.14-1.25.14h-2.99l-.01.01-.01.01v3.95c0 .02 0 .03-.03.03h-.93l-.02-.01a.04.04 0 0 1-.02-.02v-8.92c0-.01 0-.02.02-.03a7637.37 7637.37 0 0 1 4.05-.02Zm-3.08 1.09.01 2.86c0 .04.03.05.07.05h3.06c1.16 0 1.87-.63 1.87-1.62 0-.99-.9-1.38-1.87-1.38h-3.06l-.03.02a.08.08 0 0 0-.04.04v.03Z" fill="#10C6C7"/><path d="M27.04 33.12c-1.29-.46-3.13-1.4-3.34-2.93-.07-.53.34-1.23.75-1.52.11-.08.32-.07.47-.04.53.1.91.12 1.33.21a.02.02 0 0 1 .02.02v.01l-.01.01c-.3.18-.7.37-.9.66-.7 1 .01 1.75.9 2.18.9.44 1.82.84 2.76 1.21.75.3 1.41.95 1.62 1.73.3 1.09-.58 2.31-1.4 2.88-.25.17-.51.03-.55-.26-.03-.22.05-.37.2-.53.33-.33.53-.51.71-.82.96-1.62-1.54-2.44-2.56-2.8Z" fill="#10C6C7"/><path d="M27.7 31.96c-.17-.08-.14-.28-.14-.43a1348.95 1348.95 0 0 0-.02-2.54c0-.04.03-.06.06-.05l.72.04c.09 0 .13.05.13.13l-.04 3.14v.01a.01.01 0 0 1-.01 0 3.71 3.71 0 0 1-.7-.3ZM27.67 36.46a.08.08 0 0 1-.04-.06 2.66 2.66 0 0 1-.03-.38l-.03-2.23c0-.07.03-.1.1-.06l.65.27a.06.06 0 0 1 .04.03c.03.08.04.16.04.24a1165.74 1165.74 0 0 1 0 2.55.08.08 0 0 1-.08.04c-.02 0-.03 0-.04-.02l-.61-.38Z" fill="#277FFF"/><path d="M27.95 37.9c-.9-.73-2.92-1.82-1.92-3.37.16-.24.7-.96 1.03-.59.12.14.1.38.07.55-.07.28-.33.45-.45.7-.16.32-.1.62.15.89.35.38.74.65 1.23 1.01.34.25.55.43.66.54.86.93.6 2.3-.03 3.28a.02.02 0 0 1-.02 0h-.01v-1.5c0-.62-.23-1.13-.71-1.52Z" fill="#277FFF"/><path d="M27.94 38.08c.4.35.35.8.35 1.28.01.34-.02.78 0 1.16a.03.03 0 0 1-.02.03.03.03 0 0 1-.04 0c-.5-.77-.45-1.59-.44-2.47v-.02c.04-.06.07-.06.1-.02l.05.04ZM27.42 38.17h.02l.02.1c.04.43 0 .93.03 1.28.06.58.27 1 .5 1.5v.02h-.01a.02.02 0 0 1-.02 0c-.64-.71-1.06-2-.54-2.9Z" fill="#277FFF"/><path fill-rule="evenodd" d="M28 43.94a15.94 15.94 0 1 0 0-31.88 15.94 15.94 0 0 0 0 31.88ZM28 45a17 17 0 1 0 0-34 17 17 0 0 0 0 34Z" fill="#277FFF"/></svg>