<!-- by TradeStack --><svg width="56" height="56" viewBox="0 0 56 56" xmlns="http://www.w3.org/2000/svg"><path fill="url(#aozit4kaj)" d="M0 0h56v56H0z"/><path d="M34 27.72v6.54a.3.3 0 0 1-.08.17 13.16 13.16 0 0 1-3.68 2.98l-1.16.58a.73.73 0 0 1-.04-.03.12.12 0 0 1-.04-.1V14.07c0-.05.02-.07.07-.07h4.79a.14.14 0 0 1 .14.14v13.58Z" fill="#03BD00"/><path d="M32.5 15.16c.54.24.5 1.56.5 2.14-.01.43.2.3.17.77 0 .05-.04.07-.08.07-1.13.03-1.85.04-2.17 0-.7-.06-.9-.6-.9-1.26-.03-.78-.13-1.64.82-1.84a2.67 2.67 0 0 1 1.66.12Zm-1.47 2.18h.95a.03.03 0 0 0 .02-.04v-1.14c0-.05-.01-.1-.03-.14a.38.38 0 0 0-.1-.13.44.44 0 0 0-.3-.1h-.17c-.11 0-.22.04-.3.1a.35.35 0 0 0-.1.28v1.16l.03.01Z" fill="#fff"/><path d="M23 18h4.92c.02 0 .04 0 .05.02l.03.05v19.78l-1.23.26a17.43 17.43 0 0 1-3.77-.55V18Z" fill="#03BD00"/><path d="M25.95 19h-.9c-.03 0-.05.02-.05.04v2.92c0 .02.03.04.05.04h.9c.03 0 .06-.02.06-.04L26 19.04c0-.03-.02-.04-.05-.04Z" fill="#fff"/><path d="M22 37.52a30.77 30.77 0 0 1-5-2.08V22.1a.1.1 0 0 1 .1-.1h4.76a.14.14 0 0 1 .14.14v15.38Z" fill="#03BD00"/><path d="M20.3 24.92v-.13a.2.2 0 0 0-.05-.14.2.2 0 0 0-.15-.07c-.47 0-1.3.1-1.7-.1-.63-.3-.62-1.3-.08-1.61.54-.31 1.84-.17 2.52-.17.05 0 .08.02.08.07v.63c0 .02 0 .04-.02.06a35.21 35.21 0 0 1-1.76 0 .48.48 0 0 0-.35.1.22.22 0 0 0-.06.23c0 .04.03.07.07.1.03.03.07.05.12.05.54.06 1.6-.12 1.97.34.33.41.29 1.06-.17 1.38-.46.31-1.96.17-2.55.16a.1.1 0 0 1-.07-.02.09.09 0 0 1-.02-.07l.04-.62c0-.04.03-.07.07-.07h1.98c.08 0 .12-.04.12-.12Z" fill="#fff"/><path d="M16 35.13c-1.86-1.3-3.56-2.25-5-3.96v-6.09c0-.02 0-.04.02-.06a.07.07 0 0 1 .06-.02h4.83c.06 0 .09.03.09.1v10.03Z" fill="#03BD00"/><path d="M12.8 28.6v-.64c0-.05.03-.08.09-.08h.2c.56.03 1.38.06 1.77-.27.66-.58.44-2.2-.6-2.21h-2.19c-.04 0-.07.03-.07.07v3.13c0 .04.03.07.08.07l.63.02a.09.09 0 0 0 .07-.02.09.09 0 0 0 .02-.06Zm.22-2.37h1.2c.11 0 .2.1.2.2v.41a.2.2 0 0 1-.2.2h-1.2a.2.2 0 0 1-.2-.2v-.41c0-.11.09-.2.2-.2Z" fill="#fff"/><path d="M27.66 37.77C17.7 38.69 9.74 30.32 7 26.02 9.43 33.8 18.9 42.27 30.47 41.9c9.27-.3 13.72-5.3 14.8-7.89H48l-1.4-11.49-3.22.69L34.93 27l2.35 1.83c-2.44 6.6-7.43 8.7-9.62 8.93Z" fill="#1B49E4"/><path d="m38.37 26.43-3.5.6 2.38 1.8 3.7-.28-2.58-2.12Z" fill="#0F1851"/><path d="m41.28 24.12-.5 1.28c2.7 2.94 3.35 8.32 3.23 10.57.86-.91 1.58-3.06 1.94-3.96l2.04 1.73-1.4-11.24-3.23.71-2.08.91Z" fill="url(#bozit4kaj)"/><path d="m40.82 25.12.12.26-2.57 1.08 2.68 2.05-.03.1a16.13 16.13 0 0 1-5.49 7.26C32.61 38 28.47 39.23 23.3 37.6c5.17 1.15 9.2.1 12.06-1.96a15.86 15.86 0 0 0 5.34-7.03l-2.91-2.22 3.03-1.27Zm-12.74 16.8c-12.21-1.98-18.33-10-19.86-13.78 1.86 3.45 7.81 11.53 19.9 13.48 1.63.19 4.37.11 7.28-.72a21.8 21.8 0 0 0 8.67-5.02c-2.37 2.9-5.63 4.45-8.58 5.3a20.2 20.2 0 0 1-7.4.73h-.01Z" fill="#fff"/><defs><linearGradient id="aozit4kaj" x1="10.42" y1="9.71" x2="68.15" y2="76.02" gradientUnits="userSpaceOnUse"><stop stop-color="#1A1E21"/><stop offset="1" stop-color="#06060A"/></linearGradient><linearGradient id="bozit4kaj" x1="46.53" y1="25.48" x2="43.51" y2="31.68" gradientUnits="userSpaceOnUse"><stop stop-color="#F0F1FD"/><stop offset="1" stop-color="#7F9BEE"/></linearGradient></defs></svg>