<!-- by TradeStack --><svg width="56" height="56" viewBox="0 0 56 56" xmlns="http://www.w3.org/2000/svg"><path fill="#F0F3FA" d="M0 0h56v56H0z"/><path d="M27.86 35.25c4.98-.31 9.8-1.24 13.98-3.68a8.85 8.85 0 0 0 2.6-2.25c2.26-2.93-1.2-5.42-3.48-6.44-2.24-1-4.87-1.61-7.88-1.84-.16 0-.24-.1-.23-.26v-.1a.3.3 0 0 1 .1-.22.29.29 0 0 1 .21-.08c3.73.26 7.47 1 10.63 2.9 1.85 1.1 3.44 2.93 3.18 5.16-.43 3.8-4.73 6.3-8.12 7.54a36.73 36.73 0 0 1-12.17 2.19c-.12 0-.2.05-.24.16l-2.04 5.5a.26.26 0 0 1-.31.16c-.17-.05-.25-.13-.23-.24a591.67 591.67 0 0 0 .88-5.5.13.13 0 0 0-.07-.07 31.18 31.18 0 0 1-7.3-.89c-3.81-.91-10.25-3.75-7.85-8.96 1.29-2.78 4.62-4.69 7.5-5.76a36.09 36.09 0 0 1 10.45-2.17c.14 0 .22.06.24.2.02.07 0 .13-.02.2a.4.4 0 0 1-.36.24c-3.89.3-7.44 1.15-10.66 2.57-1.77.78-4.92 2.68-5.16 4.76-.3 2.56 2.67 4.38 4.84 5.2a25.5 25.5 0 0 0 8.76 1.64c.08 0 .13-.04.14-.11.5-2.32-.22-5.1-2.9-5.59l-6.4-1.16a.27.27 0 0 1-.2-.28c0-.25.14-.4.4-.44l7.1-1.2c2.76-.47 4.82-2.94 5.76-5.45 1.09-2.94 2.18-5.85 3.27-8.72a.4.4 0 0 1 .32-.26.14.14 0 0 1 .12.03.15.15 0 0 1 .05.11c0 .43-.04.88-.11 1.35a632.4 632.4 0 0 0-1.26 7.6c-.27 1.72.03 3.82 1.52 4.82.46.3 1.06.52 1.8.64 1.85.3 3.83.66 5.93 1.07.07.01.14.05.2.1a.4.4 0 0 1 .1.19c.05.23-.04.37-.28.4-2.03.37-4.13.72-6.3 1.05a8.65 8.65 0 0 0-2.75.82c-1.83.98-3.17 2.89-3.94 4.82-.07.18-.01.26.18.25Z" fill="#010101"/></svg>