<?xml version='1.0' encoding='utf-8'?>
<!-- by TradeStack -->
<svg width="56" height="56" viewBox="0 0 56 56" xmlns="http://www.w3.org/2000/svg"><path fill="#F0F3FA" d="M0 0h56v56H0z" /><path d="M12.93 20H6.5a.5.5 0 0 0 0 1h1.08c.63.15.4.63.42.97v10.51C8 33.55 7.77 34 7.33 34H6.5a.5.5 0 0 0 0 1h5a.5.5 0 0 0 0-1h-.15c-1.1-.1-1.36-1-1.35-1.52V21.6c-.05-.6.36-.57.57-.6 1.52-.12 4.32.18 4.43 3.3.13 3.9-3.12 3.2-3.44 3.2-.31 0-.67-.33-.79 0-.09.26.12.4.23.45 2.07.68 6.11-.3 6-4.05-.1-2.99-2.75-3.85-4.07-3.9ZM27.26 20.65l.37 3.07c.02.16-.1.3-.26.3a.28.28 0 0 1-.27-.22 3.92 3.92 0 0 0-3.82-3.05c-3.39-.12-3.63 2.07-3.63 2.54 0 .47.04 1.69 2.73 2.5 2.7.82 5.51 1.45 5.62 4.57.1 3.11-2.33 4.55-5.15 4.64a7.33 7.33 0 0 1-4.29-1.04l-.52-3.11a.27.27 0 0 1 .27-.32.3.3 0 0 1 .29.25c.29 1.34 2.01 3.7 4.68 3.5 2.84-.2 3.63-2.06 3.6-3.1-.01-1.06-.22-1.94-2.65-2.56-2.43-.62-5.6-1.53-5.67-4.6-.06-3.08 2.58-3.95 4.72-4.02 1.7-.05 2.97.48 3.39.75v-.06a.3.3 0 0 1 .59-.04ZM35.02 20H31a.5.5 0 0 0-.5.5c0 .28.22.5.5.52.76.08.95.33 1 .6v11.3c-.01.85-.51 1.04-1 1.08-.27.02-.5.23-.5.5 0 .28.22.5.5.5h4a.5.5 0 0 0 .5-.5c0-.28-.22-.5-.5-.53-.75-.1-1-.4-1-.7V21.63c.03-.6.53-.69.98-.67.28 0 .52-.2.52-.48a.48.48 0 0 0-.48-.48Z" /><ellipse cx="44.32" cy="34.02" rx="5.68" ry=".98" fill="url(#airck15p4)" /><path d="m38.13 28.14-.13.59c.24.2.1 1.97 0 2.82.19.68 1.03 1.35 1.43 1.6 1.26.73 3 .92 3.71.92 4.11-.31 5.87-2.67 6.23-3.81 0-.66.42-1.19.63-1.37-.54-.23-.64-1.13-.63-1.55-.57-1.5-1.93-2.12-3.61-2.77-1.69-.65-2.64-.68-4.84-.41a3.4 3.4 0 0 0-2.8 2.34v1.64Z" fill="url(#birck15p4)" /><path d="m49.61 29.39-.04-.03-.1-.07c-.53-.38-.98-.3-1.66-.17-.3.06-.66.13-1.1.17-1.39.13-4.1.3-4.75.29l-.82-.04a36 36 0 0 0-3-.07c0 .64-.08 1.54-.14 2.08.19.68 1.03 1.35 1.43 1.6 1.26.73 3 .92 3.71.92 4.11-.31 5.87-2.67 6.23-3.81 0-.33.1-.63.24-.87Z" fill="url(#circk15p4)" /><path d="M49.37 27.55a.71.71 0 0 1-.14-.28c-.05-.33-.56-.84-.65-.93l-.01-.01c.53.54.3 1.04.25 1.1-.02.03-.2-.1-.45-.25a7.11 7.11 0 0 0-.86-.48.86.86 0 0 0-.53-.1 3.22 3.22 0 0 1-1.34-.2.92.92 0 0 0-.52-.07c-.25.03-.05.3.12.54.11.16.21.3.15.34-.13.06-.3.06-.64.06h-.29c-.35 0-.6-.15-.89-.32-.14-.09-.29-.18-.46-.25-.35-.16-.46-.1-.57-.05a.4.4 0 0 1-.2.05l-.21-.02a.63.63 0 0 0-.3.02c-.19.05-.22.07-.92.43-.41.2-.48.17-.64.08a1.52 1.52 0 0 0-.65-.2c-.53-.06-.53-.05-.56.02-.03.05-.06.13-.28.24-.35.17-.33.36-.32.56.01.12.02.23-.04.34a3 3 0 0 0-.3.02l-.12.54c.1.08.13.42.13.86.36-.03.8-.05 1.25.11l.54.2s-.16-.07-.13-.07l.15-.03a8.15 8.15 0 0 1 2.04-.32c.72 0 .88.1 1.06.2.08.05.17.1.33.15.32.1.59.07.91.04.2-.02.4-.04.64-.04.22 0 .38.01.53.03.33.02.69.05 1.72-.03.92-.06 1.03-.13 1.15-.2.08-.05.16-.1.5-.15.2-.03.44.02.69.12a2 2 0 0 1 .49-.7c-.47-.2-.6-.9-.63-1.35Z" fill="url(#dirck15p4)" /><path d="M40.02 29.56c.15-.43.5-.23 1.02 0 .44-.07 1.5-.2 2.13-.2.79 0 .62.2 2 .2 1.39 0 .94-.15 2.48-.2 1.53-.05 0 .2 0 .64 0 .45-.13.92-.62 1.92-.5 1-1.04.55-2.53 1.24-1.48.7-.27 0-1.7 0-.78 0-.78.05-.74.07.02.01.04.01 0 0a4.46 4.46 0 0 0-.3-.07c-.85-.17-.72-.1-2.43-.44-.17-.3.15-.18.42-.25.27-.08.27-.62 0-1.15-.27-.52-.22-.37 0-1.12.22-.74.12-.22.27-.64Z" fill="#86512D" /><path d="M44.17 26.3c-.89-.45-.5.1-.42.9-.21 0-.91-.26-2.03-.75-1.11-.5.25.5-1.19.74-1.43.25-.74-.42-1.68-.42s-.2.77-.5 1.3c-.3.52.03.24.3.54.27.3 1.68-.55 3.07-.72 1.39-.17 2.28-.37 2.92 0 .65.37.37.1 1.3.17.9.08 1.75.28 2.84.68 1.09.4.34-.1.5-.13.14-.02-.16-.8-.5-1.42-.35-.62-.25-.42-.67-.42-.42 0-.47-.25-1.11 0-.33.32-.4-.12-1.07-.47s-.37-.13-.32.64c.05.78-.55-.2-1.44-.64Z" fill="#C77F38" /><path d="M42.99 27.41c-.15-.55-.21-.53-.16-.72.04-.2-.03-.4.16-.1.19.32.06.57.35.7.29.12.04-.16.52.12 1 .38 1.05.37 1.18.42.12.06.1.08.28.08.2 0-.46-.2.48 0l.6.06h.02c1.11.14 1.18.25.72.19-.52-.07-.46-.15-.72-.18h-.02c-.25.1-1.14.16-1.55.18-.4-.13-.42-.09-.51-.25-.09-.16-.2-.36-.65-.43a5.72 5.72 0 0 0-.7-.07ZM39.03 28.87c.1-.01.63-.26.7-.64.08-.37.22-.31.11-.57-.1-.26-.12-.38-.15-.54a.6.6 0 0 1 0-.25c-.01.16.01.51.21.66.36.07.44.05.73-.18.28-.23.3-.61.64-.57.35.04.43.03.18.1-.25.05-.37.1-.39.19-.02.08-.2.28-.66.62-.45.34-.75.84-.56.87.2.03.12.07.37-.13.26-.2.4-.57.62-.6.23-.04.37 0 .3.07l-.12.2a.2.2 0 0 1 .12-.02c.2 0 .16 0 .26.05.1.04.43-.13.62.23.2.35.23.51.43.51.2 0 .87.31 1.22 0 .27-.25.46-.45.52-.51-.05.3-.35.86-1.18.73-1.05-.15-1.04-.58-1.38-.73-.35-.16-.32-.17-.46-.09-.13.09-.2 0-.33-.08-.12-.06-.29.17-.43.33s-.24.19-.3.19l-1.07.16ZM40.66 30.3c-.33-.43-.56-.41-.76-.53.1.14.32.5.37.87.07.45-.14.67 0 .47.14-.2.72 0 1.2 0s.18.05-.18.4c-.36.36-.88.3-.66.49.21.19.24 0 .66-.1.42-.1.58-.5.84-.79.26-.28.2-.4.37-.4.18 0 .28.13.52 0 .24-.11.54-.42.7-.6.17-.17.1 0 .46.18l.37.17-.5-.53a2.82 2.82 0 0 0-.76-.1c-.22.03-.46.51-.79.63s-.61.26-.85.38c-.23.12-.72.04-1.09.07-.36.03-.19-.59.07-.38.2.17.53.2.66.19-.1 0-.36-.1-.63-.43Z" fill="#42291F" /><path d="M43.2 31.57c-.1.23.18.32.33.34-.52-.25-.04-.34 0-.4.04-.04.33-.01.73.06.4.07.59-.23.63-.48.04-.25 0-.54.1-.84.1-.3.02-.13.14-.13.1 0 .37.14.57.2.2.08.18-.24.08-.31-.09-.08-.23-.13-.65-.15-.43-.02-.28.42-.4.69-.1.26.04.1-.05.54-.08.44-.62.22-.74.25-.11.03-.62-.06-.74.23Z" fill="#42291F" /><path d="M43.68 30.7c-.21.16-.16.25-.1.28.24 0 .57-.1.78-.17.2-.06-.15-.1-.24-.22a4.7 4.7 0 0 0-.54-.56c-.1-.07 0 .06.1.23s.25.26 0 .45ZM47.12 29.78c-.5 0-.5.17-.7.25-.05.05-.04.19.4.4.53.28.1-.24.3-.4.22-.15.91-.25.83-.25-.1 0-.32.02-.83 0ZM49.93 28.85l-.45.03a86.23 86.23 0 0 0-1.63.1c-.27.03-.6.07-1.87.07-.56 0-.97.02-1.32.04-.57.03-.98.05-1.6-.04-.57-.08-.84-.16-1.07-.23-.17-.05-.31-.1-.54-.12a6.58 6.58 0 0 0-1.73 0c-.41.06-1.25.02-1.7-.04l-.02.07c.04.03.07.1.09.2.22.05.32.05.61.05h1.85l.49-.02c.29-.01.34-.02 1.01.16.93.24 1.94.22 2.43.2.2 0 .95-.04 1.84-.1 1.35-.07 3-.17 3.47-.17h.06c.05-.07.1-.12.15-.16a.65.65 0 0 1-.07-.04Zm-3.75 4.5c-.4-.05-.86-.06-1.1-.06.2-.2.18-.48 0-.39-.07.04-.18.16-.29.29-.15.17-.31.36-.42.36-.07 0-.11.02-.16.03-.09.03-.2.07-.52.07-.35 0-.35-.1-.34-.17 0-.03 0-.05-.04-.05a.34.34 0 0 0-.13.04.72.72 0 0 1-.55.08c-.23-.06-.18-.1-.08-.17a.68.68 0 0 0 .21-.23c.1-.18.21-.24.34-.3l.21-.12c.12-.1.43-.1.84-.12.32-.02.7-.03 1.1-.08.95-.13 1.36-.8 1.36-.98 0-.12-.1-.02-.26.14l-.23.22-.05.04c-.25.22-.44.39-1.46.58-.68.12-.87.08-1.06.04-.1-.03-.22-.05-.45-.04-.32 0-.31.05-.3.14.01.07.03.17-.17.3-.34.24-.42.4-.41.46a.55.55 0 0 1-.15.22c-.1.08-.14.07-.38.03l-.2-.03c-.23-.03-.23-.07-.23-.1 0-.02 0-.02-.18 0-.16.02-.1.12-.03.23.85.22 1.66.29 2.09.3 1.2-.1 2.21-.37 3.04-.73Z" fill="#42291F" /><path d="M38.67 26.05a.1.1 0 0 1-.04.06c0-.02.02-.04.04-.06.04-.09 0-.23.25-.32.3-.11.3-.09.28-.26 0-.18.25-.13.83-.15.57-.03 1.1-.05 1.56.09.48.13.99.13 1.06.18.08.05.12-.02-.47.14s-.81.11-.85.2c-.03.09-.15.05.35.11.5.07.42.2.64.2.2.02.52.17.26.3-.26.12 0 .32-.4.15-.4-.16-.7-.28-.9-.3-.22-.03-.18 0-.53 0-.35 0-.61.14-.72.14-.12 0-.13-.01-.23-.15-.07-.34-.02-.56-.15-.45-.12.11-.05.18-.33.18h-.4c-.12-.1-.2-.1-.25-.06Z" fill="#F4E1BB" /><path d="M39.37 25.25c.07-.12.98-.57 1.15-.66.16-.08-.25-.2.05-.26.3-.05.13-.14.53-.07s.48.14.73.07.08-.15.44-.2c.35-.03.77.02.9-.05.14-.07.81.03.93.1.12.08.2-.07.97.28a8.1 8.1 0 0 1 1.45.79c.33.22.8.26.32.35-.49.08-.49 0-.7 0h-.61c-.46 0-.46.06-.46-.09s-.01-.3-.19-.26c-.15.04-.18.12-.19.16 0 .01 0 .01 0 0 0-.06 0-.32-.18-.4-.2-.08-.41-.1-.41-.05s-.27.3-.47.22c-.2-.07-.09-.28-.49-.17-.4.12-.43.3-.74.24-.31-.07-1.55-.07-2-.07-.36 0-.83.05-1.03.07ZM42.42 28.33c-.28-.09-.17-.18-.36-.26-.17-.08-.68-.41-.86-.5-.1-.05.4-.1.7.12.32.21.23.17.52-.27.3-.44.49-.04.62-.05.14 0 .39-.1 1.07.44s1.67.26 1.23.38c-.44.13-1.4.38-1.85.46-.44.07-.8-.22-1.07-.32Z" fill="#F4E1BB" /><path d="M43.06 25.24c-.43.03-.3.19-.33.23 0 .06.18 0 .5.06.32.05.85-.06 1.35.03.5.1.28-.09.14-.14-.14-.06-.14-.12-.33-.18-.18-.06-.37.16-.46.12a2.15 2.15 0 0 0-.87-.12ZM43 25.78l-.56.2c-.07.2.38.06.61.06.23 0 .23-.06.33-.12s.19 0 .56.12c.38.12.38 0 .55 0 .17 0 .64.08 1.08.19.45.1.65 0 .84-.1.2-.12-.16-.05-.4-.09-.23-.04-.7-.06-1.02-.2-.33-.13-.16-.06-.28-.06h-.55c-.25 0-.5-.06-.69-.13-.2-.06-.2.03-.47.13Z" fill="#F4E1BB" /><defs><linearGradient id="airck15p4" x1="44.32" y1="33.03" x2="44.32" y2="35" gradientUnits="userSpaceOnUse"><stop stop-color="#B0B3B2" /><stop offset=".58" stop-color="#434645" stop-opacity=".3" /><stop offset="1" stop-color="#B1B4B4" /></linearGradient><linearGradient id="birck15p4" x1="44" y1="24" x2="44" y2="34.07" gradientUnits="userSpaceOnUse"><stop stop-color="#EDB653" /><stop offset=".37" stop-color="#D08B44" /></linearGradient><linearGradient id="circk15p4" x1="44.36" y1="25.64" x2="43.86" y2="34.72" gradientUnits="userSpaceOnUse"><stop stop-color="#CA843B" /><stop offset="1" stop-color="#754529" /></linearGradient><linearGradient id="dirck15p4" x1="44" y1="26.32" x2="44" y2="29.9" gradientUnits="userSpaceOnUse"><stop stop-color="#D89748" /><stop offset=".5" stop-color="#BE7335" /></linearGradient></defs></svg>