<!-- by TradeStack --><svg width="56" height="56" viewBox="0 0 56 56" xmlns="http://www.w3.org/2000/svg"><path fill="#F0F3FA" d="M0 0h56v56H0z"/><path d="M20.42 12c4.08 0 10.64 2.55 15 4.91 4.8 2.6 11.57 7.9 11.58 11.57 0 3.9-6.92 9.05-11.57 11.57C31.2 42.33 24.79 45 20.57 45a5.74 5.74 0 0 1-2.72-.55C14.52 42.64 13 34.9 13 28.48c0-3.23.42-6.7 1.16-9.52.89-3.39 2.17-5.62 3.7-6.45.62-.34 1.49-.51 2.56-.51Z" fill="#DBDCDC"/><path d="M21.55 14c3.6 0 9.39 2.24 13.24 4.32 4.23 2.28 10.2 6.94 10.21 10.16 0 3.42-6.1 7.95-10.2 10.17-3.73 2-9.4 4.35-13.12 4.35-.99 0-1.8-.16-2.4-.49C16.34 40.92 15 34.13 15 28.48c0-2.83.37-5.88 1.03-8.36.78-2.98 1.9-4.94 3.25-5.67a4.8 4.8 0 0 1 2.27-.45Z" fill="url(#aqqptvpmz)"/><path d="M39.05 32c-.02 0-.03-.01-.03-.03v-2.95c0-.65-.25-.94-.81-.94-.2 0-.44.07-.69.2l-.5.28-.03.06v3.34c0 .02-.02.03-.03.03h-1.43c-.01 0-.03-.01-.03-.03v-4.8c0-.08.07-.16.15-.16h1.3c.02 0 .04.03.04.04v.45c0 .02.02.04.04.04h.03l.04-.04c.16-.11.4-.24.57-.3.36-.12.74-.19 1.05-.19 1.16 0 1.78.62 1.78 1.78v3.2l-.03.02h-1.42ZM41.03 32l-.03-.03v-6.44c0-.02 0-.03.05-.03.09 0 .9.4 1.15.64.2.18.3.4.3.65v5.19l-.03.02h-1.44Z" fill="#F0F3FA"/><path d="M27.5 29.5c0 1.69-1.12 2.5-2.5 2.5-1.39 0-2.5-.81-2.5-2.5 0-1.73 1.12-2.5 2.5-2.5s2.5.77 2.5 2.5Zm-1.5 0c0-.91-.38-1.31-1-1.31-.61 0-1 .4-1 1.31 0 .84.39 1.31 1 1.31.62 0 1-.47 1-1.31ZM34 25.55c0-.04-.02-.05-.06-.05-.1 0-1 .48-1.22.74-.17.19-.25.46-.25.74v3.2c0 1.38.73 1.82 1.54 1.82.47 0 .78-.07.97-.18a.15.15 0 0 0 .07-.13v-.91c0-.03-.02-.05-.04-.05-.05 0-.36.13-.55.13-.42 0-.46-.21-.46-.92v-1.73c0-.03.02-.05.04-.05h.93c.02 0 .03-.02.03-.05v-.95c0-.09-.05-.16-.13-.16h-.82c-.03 0-.05-.02-.05-.05v-1.4ZM17 27.15c0-.08.07-.15.15-.15h1.75c1.71 0 2.6 1.17 2.6 2.53 0 1.36-1 2.47-2.63 2.47h-.3c-.03 0-.07.04-.07.06v1.9c0 .03-.05.04-.09.04-.08 0-.93-.45-1.14-.69a1.08 1.08 0 0 1-.26-.7v-5.46H17Zm3.2 2.31c0-.58-.37-1.24-1.33-1.24h-.26c-.02 0-.11.02-.11.05v2.48c0 .03.04.05.07.05h.32c1.15 0 1.3-1.01 1.3-1.34ZM31.41 29.3c-.28-.19-.63-.26-.96-.34l-.34-.07c-.41-.1-.73-.17-.73-.43 0-.23.22-.38.57-.38.43 0 1.03.09 1.7.33.03.02.07 0 .07-.05v-.95a.16.16 0 0 0-.11-.15 5.54 5.54 0 0 0-1.49-.26c-.64 0-1.17.14-1.55.41-.37.27-.57.66-.57 1.13 0 1.07.88 1.27 1.7 1.46l.16.03c.38.08.77.17.77.48 0 .1-.04.17-.1.24-.11.1-.28.15-.59.15a8.8 8.8 0 0 1-1.86-.36h-.03a.05.05 0 0 0-.05.05v.95c0 .07.03.12.1.15 0 0 .9.31 1.73.31 1.43 0 2.17-.56 2.17-1.57 0-.5-.2-.87-.59-1.13Z" fill="#003893"/><path d="M22.84 26c-.12 0-.16-.15-.16-.28v-.5c0-.1.1-.22.21-.22h3.94c.11 0 .17.11.17.22v.5c0 .13 0 .28-.12.28h-4.04Zm3.65-1.5c-.04 0-.08 0-.1-.02v-.1c.14-.42.6-1.66.6-1.67.03-.08 0-.2-.09-.22l-.23-.08h-.04c-.05 0-.07.02-.08.04-.1.2-.15.35-.22.59-.02.04-.05.06-.11.06h-.45c-.03 0-.05 0-.06-.03-.02-.02-.02-.04-.01-.07.11-.4.24-.73.4-1.08.02-.06.1-.17.25-.17a7.06 7.06 0 0 1 1.03.28c.46.17.44.5.35.82-.05.2-.32.92-.48 1.36l-.08.22c-.02.05-.06.07-.13.07h-.55Zm-1.86.01c-.15 0-.15-.13-.15-.14v-2.62c0-.03.01-.08.04-.11a.09.09 0 0 1 .07-.03h.63c.03 0 .06.01.07.03.03.03.04.09.04.1v2.64s0 .12-.14.13h-.56Zm-1.85 0c-.07 0-.12-.03-.13-.07l-.08-.23-.48-1.36c-.09-.32-.1-.64.35-.8l.44-.15c.18-.06.35-.1.5-.13a.27.27 0 0 1 .34.15c.17.36.29.68.4 1.09v.07a.09.09 0 0 1-.07.03h-.45c-.06 0-.09-.02-.1-.06a4 4 0 0 0-.23-.6c0-.01-.03-.04-.08-.04h-.04l-.23.08c-.09.03-.12.14-.09.23l.6 1.66v.1c-.02.02-.05.04-.1.04h-.55Zm2.13-3.38a.14.14 0 0 1-.08-.03 2.84 2.84 0 0 1-.51-.5c-.02-.03-.06-.08 0-.13.16-.2.34-.37.54-.53h.05l.04.01c.2.15.39.33.55.53.04.04.02.08 0 .12-.15.19-.32.36-.51.5a.2.2 0 0 1-.08.03Z" fill="#F0F3FA"/><defs><linearGradient id="aqqptvpmz" x1="17.33" y1="13.1" x2="35.14" y2="40.96" gradientUnits="userSpaceOnUse"><stop offset=".27" stop-color="#F39F01"/><stop offset="1" stop-color="#E84F03"/></linearGradient></defs></svg>