<!-- by TradeStack --><svg width="56" height="56" viewBox="0 0 56 56" xmlns="http://www.w3.org/2000/svg"><path fill="#F0F3FA" d="M0 0h56v56H0z"/><path d="M4 33v-9h8.4c1.43 0 2.6 1.14 2.6 2.55v1.69c0 1.4-1.17 2.76-2.6 2.76H7v2H4Zm7.22-7H7v3h4.22c.43 0 .78-.45.78-1.01V27c0-.56-.35-1.01-.78-1.01ZM27.65 26.05v.71h-2.68v-.16c0-.38-.3-.6-.68-.6h-4.81c-.44 0-.8.27-.8.7 0 .44.36.8.8.8h6.13c1.22 0 2.39.99 2.39 2.22v1.06C28 32 26.83 33 25.61 33h-7.7A1.9 1.9 0 0 1 16 31.12V30h2.69v.36c0 .37.3.64.68.64h5.25c.46 0 .84-.34.84-.81a.85.85 0 0 0-.84-.85h-6.38c-1.22 0-2.24-1-2.24-2.22v-.9A2.24 2.24 0 0 1 18.24 24h7.37c1.13 0 2.04.92 2.04 2.05ZM40 24H29v2h4v7h3v-7h4v-2Z" fill="#11927C"/><circle cx="46.03" cy="22.34" fill="#1374FB" r=".34"/><ellipse cx="45.28" cy="23.46" rx=".48" ry=".47" fill="#1391EC"/><ellipse cx="46.73" cy="23.46" rx=".48" ry=".47" fill="#1391EC"/><ellipse cx="48.1" cy="23.87" rx=".48" ry=".47" fill="#1391EC"/><ellipse cx="49.27" cy="24.74" rx=".48" ry=".47" fill="#1391EC"/><ellipse cx="50.12" cy="25.89" rx=".48" ry=".47" fill="#1391EC"/><ellipse cx="43.91" cy="23.87" rx=".48" ry=".47" fill="#1391EC"/><ellipse cx="44.09" cy="25.36" rx=".52" ry=".51" fill="#14B2D8"/><ellipse cx="46.03" cy="24.74" rx=".52" ry=".51" fill="#14B2D8"/><ellipse cx="47.92" cy="25.32" rx=".52" ry=".51" fill="#14B2D8"/><ellipse cx="49.13" cy="26.98" rx=".52" ry=".51" fill="#14B2D8"/><ellipse cx="42.89" cy="26.98" rx=".52" ry=".51" fill="#14B2D8"/><ellipse cx="42.89" cy="28.99" rx=".52" ry=".51" fill="#14B2D8"/><ellipse cx="44.09" cy="30.61" rx=".52" ry=".51" fill="#14B2D8"/><ellipse cx="46.03" cy="31.25" rx=".52" ry=".51" fill="#14B2D8"/><ellipse cx="47.96" cy="30.68" rx=".52" ry=".51" fill="#14B2D8"/><ellipse cx="49.13" cy="29" rx=".52" ry=".51" fill="#14B2D8"/><ellipse cx="42.73" cy="24.74" rx=".48" ry=".47" fill="#1391EC"/><ellipse cx="41.9" cy="25.9" rx=".48" ry=".47" fill="#1391EC"/><ellipse cx="41.48" cy="27.3" rx=".48" ry=".47" fill="#1391EC"/><ellipse cx="41.48" cy="28.69" rx=".48" ry=".47" fill="#1391EC"/><ellipse cx="41.9" cy="30.03" rx=".48" ry=".47" fill="#1391EC"/><ellipse cx="42.76" cy="31.21" rx=".48" ry=".47" fill="#1391EC"/><ellipse cx="43.93" cy="32.05" rx=".48" ry=".47" fill="#1391EC"/><ellipse cx="45.37" cy="32.51" rx=".48" ry=".47" fill="#1391EC"/><ellipse cx="46.79" cy="32.52" rx=".48" ry=".47" fill="#1391EC"/><ellipse cx="48.11" cy="32.05" rx=".48" ry=".47" fill="#1391EC"/><ellipse cx="49.29" cy="31.21" rx=".48" ry=".47" fill="#1391EC"/><ellipse cx="50.12" cy="30.03" rx=".48" ry=".47" fill="#1391EC"/><ellipse cx="50.58" cy="28.65" rx=".48" ry=".47" fill="#1391EC"/><ellipse cx="50.58" cy="27.28" rx=".48" ry=".47" fill="#1391EC"/><circle cx="44.26" cy="22.6" fill="#1374FB" r=".34"/><circle cx="44.81" cy="24.51" fill="#15A6DD" r=".34"/><circle cx="45.2" cy="25.78" fill="#17C8CA" r=".31"/><circle cx="46.68" cy="25.73" fill="#17C8CA" r=".31"/><circle cx="47.84" cy="26.51" fill="#17C8CA" r=".31"/><circle cx="48.36" cy="27.91" fill="#17C8CA" r=".31"/><circle cx="47.96" cy="29.24" fill="#17C8CA" r=".31"/><circle cx="46.78" cy="30.16" fill="#17C8CA" r=".31"/><circle cx="45.34" cy="30.19" fill="#17C8CA" r=".31"/><circle cx="44.14" cy="29.39" fill="#17C8CA" r=".31"/><circle cx="43.68" cy="28.06" fill="#17C8CA" r=".31"/><circle cx="44.09" cy="26.67" fill="#17C8CA" r=".31"/><circle cx="42.96" cy="25.84" fill="#15A6DD" r=".34"/><circle cx="47.11" cy="24.51" fill="#15A6DD" r=".34"/><circle cx="48.93" cy="25.77" fill="#15A6DD" r=".34"/><circle cx="49.65" cy="27.91" fill="#15A6DD" r=".34"/><circle cx="49.01" cy="30.09" fill="#15A6DD" r=".34"/><circle cx="47.17" cy="31.46" fill="#15A6DD" r=".34"/><circle cx="44.89" cy="31.46" fill="#15A6DD" r=".34"/><circle cx="43.03" cy="30.16" fill="#15A6DD" r=".34"/><circle cx="42.28" cy="28.02" fill="#15A6DD" r=".34"/><circle cx="42.67" cy="23.4" fill="#1374FB" r=".34"/><circle cx="41.42" cy="24.64" fill="#1374FB" r=".34"/><circle cx="47.79" cy="22.6" fill="#1374FB" r=".34"/><circle cx="49.33" cy="23.4" fill="#1374FB" r=".34"/><circle cx="50.6" cy="24.64" fill="#1374FB" r=".34"/><circle cx="51.4" cy="26.24" fill="#1374FB" r=".34"/><circle cx="51.66" cy="27.96" fill="#1374FB" r=".34"/><circle cx="51.4" cy="29.69" fill="#1374FB" r=".34"/><circle cx="50.6" cy="31.28" fill="#1374FB" r=".34"/><circle cx="49.35" cy="32.52" fill="#1374FB" r=".34"/><circle cx="47.77" cy="33.32" fill="#1374FB" r=".34"/><circle cx="46.02" cy="33.66" fill="#1374FB" r=".34"/><circle cx="44.28" cy="33.32" fill="#1374FB" r=".34"/><circle cx="42.69" cy="32.52" fill="#1374FB" r=".34"/><circle cx="41.41" cy="31.28" fill="#1374FB" r=".34"/><circle cx="40.58" cy="29.69" fill="#1374FB" r=".34"/><circle cx="40.34" cy="27.96" fill="#1374FB" r=".34"/><circle cx="40.58" cy="26.24" fill="#1374FB" r=".34"/></svg>