<?xml version='1.0' encoding='utf-8'?>
<!-- by TradeStack -->
<svg width="56" height="56" viewBox="0 0 56 56" xmlns="http://www.w3.org/2000/svg"><path fill="#F0F3FA" d="M0 0h56v56H0z" /><path d="M13.86 22.34c.09.07.2.08.25.02.05-.06.01-.16-.08-.23-.1-.07-.2-.08-.25-.02-.05.06-.01.16.08.23ZM12.88 22.37c.12.07.25.08.29.02.04-.07-.02-.18-.14-.25-.12-.07-.25-.08-.29-.02-.04.06.02.18.14.25ZM14.78 22.34c.08.08.19.1.24.06.05-.05.02-.15-.06-.23-.07-.08-.18-.1-.23-.06-.05.05-.03.16.05.23ZM11.77 22.46c.11.1.24.12.3.06.04-.05-.02-.18-.14-.27-.11-.09-.25-.12-.3-.06-.04.06.02.18.13.27ZM15.56 22.37c.06.07.15.1.19.05.04-.03.03-.12-.03-.18-.06-.07-.15-.1-.2-.06-.03.04-.02.13.04.2ZM16.28 22.56c.06.07.14.1.19.05.04-.03.02-.12-.04-.18-.06-.07-.14-.1-.18-.06-.05.04-.03.13.03.2ZM10.68 22.74c.17.09.33.1.36.03.04-.07-.06-.2-.22-.28-.16-.08-.33-.1-.36-.02-.04.07.06.2.22.27ZM14.31 22.94c.14.07.3.07.34-.01.05-.08-.03-.21-.16-.3-.14-.07-.3-.07-.34.02-.05.08.03.2.16.29ZM16.9 22.71c.03.03.08.04.11.01s.02-.08-.01-.1c-.03-.04-.08-.05-.11-.02-.03.03-.02.08 0 .11ZM15.2 22.91c.12.09.25.1.3.03.05-.06 0-.19-.1-.27-.11-.09-.24-.1-.3-.04-.05.07 0 .2.1.28ZM13.33 23.07c.16.08.33.06.38-.04.05-.1-.03-.24-.2-.32-.15-.09-.32-.07-.37.03-.06.1.03.24.19.33ZM15.96 23c.1.09.23.12.29.06.06-.06.03-.19-.07-.29-.1-.1-.23-.12-.29-.06-.06.06-.03.18.07.28ZM9.43 23.02c.2.1.39.1.42.03.03-.07-.1-.2-.3-.29-.2-.09-.38-.1-.42-.03-.03.07.1.2.3.3ZM17.38 22.86c.02.05.07.07.1.05.04-.01.05-.06.03-.1-.02-.05-.06-.07-.1-.06-.04.02-.05.07-.03.11ZM12.25 23.24c.2.1.4.1.45 0 .05-.1-.06-.26-.26-.36-.19-.1-.39-.1-.44 0-.05.1.06.26.25.36ZM16.71 23.04c.07.07.15.1.19.06.03-.04 0-.12-.06-.19-.06-.06-.15-.09-.18-.05-.04.03-.01.12.05.18ZM17.22 23.19c.04.06.1.1.15.07.05-.02.05-.1.01-.16-.04-.07-.1-.1-.15-.08-.04.03-.05.1 0 .17ZM15.8 23.32c.09.07.2.08.25.03.04-.06 0-.17-.1-.24-.08-.07-.2-.09-.24-.03-.05.06-.01.17.08.24ZM15.1 23.36c.11.06.24.06.28-.01.04-.07-.02-.18-.14-.25-.11-.06-.24-.05-.28.02-.04.07.02.17.14.24ZM11.1 23.55c.25.08.48.06.52-.04.03-.11-.13-.26-.38-.35-.24-.08-.47-.06-.5.04-.04.11.13.26.37.35ZM14.31 23.44c.13.07.26.06.3-.02.04-.07-.03-.19-.15-.25-.12-.07-.26-.06-.3.02-.04.08.03.19.15.25ZM16.43 23.4c.09.08.2.1.25.06.05-.06.02-.17-.06-.25-.09-.08-.2-.1-.25-.05-.05.05-.02.16.06.24ZM8.3 23.52c.23.06.43.04.46-.05.02-.09-.14-.21-.37-.28-.22-.06-.43-.05-.46.04-.02.1.14.22.37.29ZM17.67 23.38c.02.05.08.08.12.06.05-.02.07-.08.05-.13-.02-.05-.08-.08-.12-.06-.05.02-.07.08-.05.13ZM16.98 23.46c.06.05.14.07.18.03.04-.05.03-.13-.03-.18-.05-.06-.14-.07-.18-.03-.04.04-.03.12.03.18ZM13.45 23.6c.15.08.3.08.35 0 .04-.08-.05-.2-.2-.28-.15-.07-.3-.07-.34 0-.04.08.05.2.2.28ZM15.65 23.7c.12.07.24.07.28 0 .04-.07-.02-.18-.13-.24-.12-.07-.24-.07-.28 0-.04.07.02.18.13.25ZM17.43 23.61c.04.06.11.1.15.06.05-.03.04-.1 0-.16-.05-.07-.11-.1-.16-.07-.04.03-.04.1 0 .17ZM15 23.8c.12.06.25.05.3-.03.03-.08-.04-.19-.16-.25-.12-.07-.26-.06-.3.02-.04.08.03.2.15.26ZM16.22 23.7c.08.06.17.07.21.02.04-.05 0-.13-.07-.2-.08-.05-.18-.06-.22-.01-.03.05 0 .13.08.2ZM12.57 23.87c.19.07.36.05.4-.03.02-.08-.1-.2-.3-.27-.18-.06-.35-.05-.38.04-.03.08.1.2.28.26ZM16.76 23.78c.08.06.17.07.21.03.04-.05.01-.14-.07-.2s-.17-.08-.2-.03c-.05.05-.02.14.06.2ZM10.04 24.07c.26.07.5.03.53-.09.04-.12-.14-.28-.4-.36-.26-.07-.5-.03-.53.09-.04.12.14.28.4.36ZM14.31 23.92c.15.07.3.07.35 0 .04-.08-.05-.2-.2-.28-.15-.08-.3-.08-.34 0-.04.07.04.2.2.28ZM17.15 23.84c.05.07.13.1.19.06.05-.03.05-.12 0-.19-.04-.07-.12-.1-.17-.06-.06.04-.06.12-.02.19ZM17.78 23.75c.02.04.07.07.1.05.04-.02.05-.07.03-.11-.02-.05-.07-.07-.1-.05-.04.02-.06.07-.03.11ZM7.04 24.13c.24.05.46 0 .48-.1.02-.1-.15-.22-.4-.27-.24-.06-.45-.02-.47.09-.03.1.15.22.4.28ZM13.65 24.12c.18.06.36.05.39-.03.03-.09-.1-.2-.29-.27-.19-.06-.36-.05-.39.03-.03.09.1.2.29.27Z" fill="#4F467E" /><path d="M17.54 24c-.02-.07-.02-.17.03-.2a.03.03 0 0 1 .03-.02c.19.05.13.22.13.22h.23c.47 0 .76.01.88.02.82.06 1.58.49 1.74 1.28.25 1.27-.67 2.05-1.95 2.1a21.8 21.8 0 0 1-1.08.02v1.15c0 .07 0 .12-.03.18a1175.97 1175.97 0 0 1-.78 1.24.08.08 0 0 1-.09-.02.07.07 0 0 1-.01-.04v-5.9l.01-.03h.89Zm0 .67.01 2.02.02.01h.97c.15 0 .3-.03.44-.07.14-.05.26-.12.37-.2.1-.1.19-.2.24-.31a.8.8 0 0 0 .09-.36v-.17a.86.86 0 0 0-.34-.66c-.21-.18-.5-.28-.8-.28h-.98a.02.02 0 0 0-.01.01v.01ZM11.72 24.24c.2.06.38.03.41-.07.03-.1-.11-.21-.3-.27-.2-.06-.4-.03-.42.07-.03.1.11.21.3.27ZM45.75 29.05a3.2 3.2 0 0 1-.62-3 2.8 2.8 0 0 1 2.15-1.97c1.7-.37 3.38.56 3.67 2.35a3.1 3.1 0 0 1-.69 2.6 3.15 3.15 0 0 1-4.5.02ZM48 29c1.11.04 2.05-.75 2-2.08-.05-1.22-.92-1.95-2-1.92-1.08.03-2.04.77-2 2.03.03 1.2.88 1.93 2 1.97ZM31.52 25.8l-.59.93h-.03l-1.72-2.7c0-.02 0-.02-.02-.02l-.02-.01h-1.03v.01l2.32 3.47.01.02V30l.02.01h.25l.02-.02.66-1.03a.12.12 0 0 0 .01-.06v-1.4l.01-.02.26-.38 2.07-3.07V24l-.01-.01H32.7l-.02.01-.02.02-1.14 1.77ZM38.13 26.83l.34.1c.89.25 1.3.96 1.1 1.77a1.7 1.7 0 0 1-1.03 1.09c-.38.16-.88.2-1.31.2h-2.18c-.03 0-.05 0-.05-.04V24.01h.02l2.2-.01c.84.01 1.7.34 1.88 1.16.17.7-.2 1.42-.97 1.66-.02 0-.02 0 0 0Zm.04-1.06c.11-.83-.5-1.08-1.3-1.1H36v1.9h.94c.58-.01 1.15-.22 1.23-.8ZM36 27.22v2.08h1.3c.36 0 .7-.1.94-.29a.86.86 0 0 0 .39-.68v-.14c0-.26-.14-.5-.39-.69a1.6 1.6 0 0 0-.93-.28H36ZM42 24h1v4.82L42.23 30H42v-6ZM12.93 24.44c.2.06.39.03.41-.07.03-.1-.1-.22-.3-.27-.2-.06-.38-.03-.41.07-.03.09.1.21.3.27ZM14.45 24.5c.16.07.32.06.36-.03.04-.1-.05-.22-.21-.3-.16-.06-.32-.05-.36.04-.05.08.05.21.21.29ZM9.04 24.66c.3.07.58.03.61-.1.03-.12-.2-.27-.5-.34-.32-.07-.59-.03-.62.1-.03.12.2.27.5.34ZM10.89 24.74c.24.05.45.02.47-.08.02-.1-.15-.21-.4-.27-.23-.05-.44-.01-.46.08-.02.1.15.22.39.27ZM13.88 24.74c.18.06.35.03.38-.06.03-.09-.08-.21-.26-.27-.18-.06-.35-.04-.38.05-.03.1.09.22.26.28ZM6 24.87c.26.06.48 0 .5-.1.03-.12-.15-.26-.4-.31-.25-.06-.47-.01-.5.1-.03.12.16.25.4.3ZM12.23 24.87c.24.05.45.02.47-.08.02-.1-.15-.22-.39-.27-.23-.05-.44-.02-.47.08-.02.1.16.22.4.27ZM13.34 25.08c.2.06.37.02.4-.08.03-.1-.1-.22-.3-.28-.19-.06-.37-.02-.4.08-.03.1.1.23.3.28ZM11.66 25.38c.27.03.5-.03.5-.15.02-.11-.18-.23-.45-.26-.26-.04-.5.03-.5.14-.02.11.18.23.45.27ZM8.26 25.51c.35.05.65-.04.66-.19.02-.14-.24-.3-.59-.34-.34-.05-.64.04-.66.19-.02.14.25.3.6.34ZM10.2 25.42c.26.03.49-.03.5-.15.02-.11-.19-.23-.45-.27-.27-.03-.5.03-.51.15-.01.11.19.23.45.27ZM12.84 25.49c.2.06.37.02.4-.08.03-.1-.1-.23-.3-.28-.18-.06-.36-.03-.4.08-.03.1.1.22.3.28ZM5.11 25.78c.28.04.52-.03.53-.14.02-.12-.2-.24-.47-.28-.28-.03-.52.03-.54.15-.01.11.2.23.48.27ZM12.48 26c.23.03.43-.04.44-.15.02-.12-.16-.24-.38-.27-.23-.02-.43.04-.44.16-.02.11.15.23.38.26ZM11.14 26.04c.28.04.51-.02.53-.14.02-.11-.2-.24-.48-.27-.27-.04-.51.02-.53.14-.01.11.2.24.48.27ZM9.71 26.2c.28.03.52-.03.53-.15.02-.11-.2-.24-.47-.27-.28-.04-.52.03-.53.14-.02.12.2.24.47.28ZM7.6 26.49c.37.04.68-.04.7-.19.02-.15-.26-.3-.62-.35-.36-.05-.67.03-.7.18-.01.15.26.3.63.36ZM12.2 26.58c.24.03.44-.03.46-.15.01-.11-.17-.23-.4-.26-.24-.04-.44.03-.46.15-.01.11.17.23.4.26ZM10.92 26.73c.28 0 .51-.1.51-.2 0-.12-.23-.22-.5-.22-.29 0-.52.1-.52.21 0 .12.23.21.51.21ZM4.56 26.79c.31.02.57-.07.58-.18 0-.12-.24-.22-.55-.24-.31-.01-.57.07-.58.18 0 .12.25.22.55.24ZM9.5 27.07c.28 0 .5-.1.5-.2 0-.12-.22-.22-.5-.22s-.51.1-.51.21c0 .12.23.21.5.21ZM12.12 27.15c.25 0 .45-.08.45-.19 0-.1-.2-.19-.45-.19s-.46.09-.46.2c0 .1.2.18.46.18ZM7.5 27.61c.37 0 .66-.12.66-.27 0-.15-.3-.27-.66-.27-.36 0-.66.12-.66.27 0 .15.3.27.66.27ZM10.92 27.51c.29 0 .51-.09.51-.2 0-.12-.22-.21-.5-.21-.29 0-.52.1-.52.2 0 .12.23.21.51.21ZM12.2 27.8c.24-.03.42-.15.4-.27-.01-.11-.22-.18-.46-.14-.25.03-.43.15-.41.27.01.11.22.18.47.14ZM9.6 27.97c.28 0 .5-.1.5-.2 0-.12-.22-.22-.5-.22s-.51.1-.51.21c0 .12.23.21.5.21ZM4.58 28.03c.3-.02.54-.14.53-.26-.01-.13-.26-.22-.56-.2-.3.03-.54.14-.53.27 0 .13.26.21.56.2ZM11.11 28.23c.28-.03.5-.16.48-.27-.02-.12-.26-.18-.53-.14-.28.04-.5.16-.48.28.02.11.26.17.53.13ZM12.46 28.46c.2-.07.34-.22.3-.34-.04-.12-.24-.16-.45-.09-.21.07-.35.22-.3.34.04.12.24.16.45.1ZM7.87 28.74c.36 0 .66-.12.66-.27 0-.15-.3-.28-.66-.28-.36 0-.66.13-.66.28 0 .15.3.27.66.27ZM10.03 28.95c.28-.04.5-.17.48-.28-.02-.12-.26-.18-.53-.14-.28.04-.5.16-.48.28.02.11.26.18.53.14ZM11.55 29.05c.24-.08.4-.25.35-.37-.04-.11-.27-.14-.5-.06-.24.09-.4.25-.35.37.04.12.27.15.5.06ZM12.79 29.03c.16-.12.23-.3.16-.4-.08-.1-.27-.07-.43.05-.16.12-.24.3-.16.4.07.1.27.07.43-.05ZM23.45 29.74c.52.24 1.06.31 1.62.22.7-.11 1.38-.46 1.65-1.08.37-.88-.1-1.72-1.03-2.07l-1.31-.5c-.34-.13-.6-.34-.65-.68-.1-.6.43-.93 1.02-.94a2.04 2.04 0 0 1 1.5.62l.46-.54v-.02a2.59 2.59 0 0 0-2.2-.73c-1.1.12-1.95.9-1.64 1.95.17.6.67.9 1.27 1.12l.9.33c.32.12.67.3.81.6.18.37.03.82-.33 1.05-.6.4-1.39.23-1.95-.14a3.04 3.04 0 0 1-.52-.46l-.52.53v.02c.26.3.57.53.92.72ZM5.11 29.34c.3-.04.51-.15.5-.25-.01-.1-.26-.16-.55-.11-.3.04-.51.15-.5.25.01.1.26.15.55.11ZM13.17 29.6c.14-.08.2-.23.15-.34-.07-.1-.24-.12-.38-.04-.15.09-.21.24-.15.35.06.1.23.12.38.04ZM12.2 29.72c.17-.12.25-.3.17-.4-.07-.11-.27-.1-.44.01-.17.12-.25.3-.17.41.07.11.27.1.44-.02ZM10.88 29.88c.24-.08.4-.25.35-.37-.04-.12-.27-.15-.5-.07-.24.08-.4.25-.35.37.04.12.27.15.5.07ZM8.82 29.97c.32-.04.57-.2.55-.35-.02-.15-.3-.23-.62-.19-.32.05-.57.2-.55.35.02.15.3.24.62.2ZM13.34 29.72c-.1.12-.11.26-.03.32.08.07.22.02.31-.1.1-.11.1-.26.03-.32-.08-.06-.22-.02-.31.1ZM12.41 30.1c-.08.16-.05.33.07.39.12.06.28-.01.36-.16.08-.15.05-.33-.07-.39-.12-.06-.28.01-.36.17ZM13.71 30.13c-.07.13-.06.27.03.32.09.05.22-.02.3-.15.06-.13.05-.28-.04-.32-.09-.05-.22.02-.29.15ZM11.84 30.62c.17-.12.24-.3.17-.4-.08-.11-.28-.1-.45.02-.17.12-.25.3-.17.41.08.1.28.1.45-.03ZM14.09 30.44c-.02.14.01.25.07.26.06 0 .13-.1.14-.23.02-.13-.01-.25-.07-.26-.06 0-.12.1-.14.23ZM6.23 30.7c.27-.05.48-.17.47-.28-.02-.1-.25-.17-.53-.13-.27.04-.48.16-.46.27.01.11.25.17.52.13ZM14.37 30.6c0 .12.02.21.07.21.04 0 .08-.09.09-.2 0-.11-.03-.2-.07-.21-.04 0-.08.09-.09.2ZM13.1 30.63c-.03.15.02.28.13.3.1.03.2-.07.24-.22.03-.14-.02-.28-.12-.3-.1-.02-.21.08-.25.22ZM10.13 31.07c.25-.09.42-.28.36-.44-.05-.15-.3-.2-.56-.12-.26.09-.42.29-.37.44.06.16.31.21.57.12ZM13.64 30.9c0 .13.05.24.13.25.08 0 .14-.1.15-.23 0-.13-.05-.24-.13-.25-.07 0-.14.1-.15.23ZM12.34 31c-.04.16.03.31.16.34.13.03.26-.08.3-.25.04-.16-.04-.32-.16-.35-.13-.03-.27.09-.3.25ZM14.08 31.14c0 .13.04.24.1.25.06 0 .12-.1.13-.24 0-.13-.04-.24-.1-.24-.06 0-.12.1-.13.23ZM14.4 31.23c0 .11.02.2.06.2.03.01.06-.08.07-.2 0-.11-.02-.21-.05-.21-.04 0-.07.09-.08.2ZM14.85 31.18c0 .1.02.17.05.17.02 0 .05-.07.05-.17 0-.09-.03-.16-.05-.16-.03 0-.05.07-.05.16ZM13.15 31.4c-.03.15.02.29.12.3.1.03.2-.07.24-.22.04-.14-.02-.28-.12-.3-.1-.02-.2.08-.24.22ZM47.17 33.82c-.94-.5-1.01-1.91-.17-2.53.55-.4 1.4-.4 1.92.07l.02.03v.03l-.16.28a.01.01 0 0 1-.01 0c-.64-.58-1.7-.4-1.89.52-.25 1.2 1.07 1.84 1.9 1.05h.03l.16.28a.02.02 0 0 1 0 .03c-.46.47-1.23.54-1.8.24ZM50.28 32.76c-.5-.2-1.22-.39-1.1-1.1.03-.26.2-.46.45-.57a1.17 1.17 0 0 1 1.31.28v.02l-.2.25c0 .02-.01.02-.02 0-.23-.21-.45-.33-.78-.28-.33.05-.48.42-.25.66.05.05.15.11.3.17.34.15.76.26.93.6.2.4.03.86-.36 1.07-.54.28-1.14.12-1.51-.34v-.03l.22-.25a.01.01 0 0 1 .02 0c.23.3.6.5.98.36.41-.15.41-.68.01-.84ZM33.48 32.69l.76 1.27h.01a.02.02 0 0 0 .02 0L35.4 31l.02-.01h.3l.03.01 1.12 2.97V34h-.43v-.02l-.27-.72a.05.05 0 0 0-.02-.02.07.07 0 0 0-.04-.01h-1.12l-.02.01-.27.73-.02.02h-.89l-.7-1.25-.01-.01h-.28c-.01-.01-.02 0-.02.01v1.24s0 .02-.02.02h-.36c-.01 0-.02 0-.02-.02v-2.94c0-.02.01-.02.02-.02.36-.01.66-.02.89 0 .39.01.77.25.81.7.05.5-.15.82-.6.95v.02Zm-.7-1.3-.01.94v.02h.44a.47.47 0 0 0 .48-.46v-.05a.47.47 0 0 0-.47-.48h-.43a.02.02 0 0 0-.02.01v.01Zm2.3 1.45v.01H36.03v-.01l-.46-1.27a.01.01 0 0 0-.02 0l-.46 1.27ZM26 31.35h-.8a.02.02 0 0 1 0-.01V31a.02.02 0 0 1 0-.01H27.29V31.35h-.81l-.01.01-.01.01V34h-.02l-.4.01v-.01l-.01-.01v-2.6a.02.02 0 0 0-.02-.03ZM28 32.62v1.36h-.01l-.01.02h-.4v-.01l-.01-.01V31h.01l.4-.01A.02.02 0 0 1 28 31v1.22h1.56a.02.02 0 0 0 .02 0V31a.02.02 0 0 1 0-.01H30V34l-.41.01h-.01a.01.01 0 0 1 0-.02v-1.37H28ZM30.75 33.63h1.31c.01 0 .02 0 .02.02v.32c0 .02 0 .03-.02.03h-1.73c-.02 0-.05-.03-.05-.03V31h1.75a.02.02 0 0 1 .02.01v.32c0 .02-.01.02-.03.02h-1.25a.03.03 0 0 0-.04.04v.83a.02.02 0 0 0 0 .02h1.22a.02.02 0 0 1 .02.02v.34l-.01.01h-1.22v1.02ZM37.51 32.74v1.24l-.01.02h-.38l-.01-.02v-2.96c0-.02 0-.02.02-.02h.82c1.15 0 1.2 1.65.02 1.71a7.98 7.98 0 0 1-.46.03Zm0-1.36v.97a.03.03 0 0 0 .03.01h.37c.14 0 .27-.05.36-.14.1-.1.15-.22.15-.35v-.04a.47.47 0 0 0-.15-.34.52.52 0 0 0-.36-.14h-.4v.03Z" fill="#4F467E" /><path d="M39.51 32.62v1.01h1.29V34l-1.67.01h-.01v-3h1.65V31.36h-1.25v.89h1.18V32.6h-1.17l-.01.01v.01ZM41.55 33.75c-.28-.25-.33-.6-.33-.96v-1.77l.03-.02h.37v1.72c0 .16.02.37.08.5.14.36.52.46.86.35.3-.1.43-.36.44-.67v-1.88L43 31h.38a156.22 156.22 0 0 1 .02 1.73c0 .39-.05.77-.36 1.03-.38.31-1.1.33-1.5-.01ZM44.78 31.37v2.62l-.02.01h-.38l-.01-.01v-2.62l-.02-.01h-.77V31h1.98l.01.01v.34h-.78l-.01.01v.01ZM46.2 31h-.4V34h.4l.01-.01V31L46.2 31ZM11.58 31.85c.19-.14.26-.35.16-.48s-.32-.12-.5.02c-.2.13-.27.35-.17.47.1.13.32.13.51-.01ZM8.01 31.87c.2-.1.3-.28.23-.39-.06-.1-.26-.1-.46 0-.19.11-.3.29-.23.4.06.1.27.1.46 0ZM13.78 31.71c0 .14.05.25.13.25.07 0 .14-.1.15-.23 0-.14-.05-.25-.13-.25s-.15.1-.15.23ZM14.77 31.72c0 .1.01.17.04.17.02 0 .05-.08.05-.17 0-.1-.01-.17-.04-.18-.02 0-.05.08-.05.18ZM14.23 31.8c0 .13.02.24.07.24.04 0 .08-.1.09-.23 0-.13-.03-.24-.07-.25-.04 0-.08.1-.09.24ZM12.4 32.16c-.04.18.03.35.15.37.13.03.26-.1.3-.27.04-.18-.03-.34-.16-.37-.12-.03-.25.1-.3.27ZM13.36 32.5c0 .18.08.32.18.32.1 0 .18-.14.18-.31 0-.18-.08-.32-.18-.32-.1 0-.18.14-.18.32ZM14.69 32.4c0 .09.03.17.06.17.04 0 .07-.08.07-.18 0-.1-.03-.18-.07-.18-.03 0-.06.08-.06.18ZM14.48 32.56c0 .13.03.23.07.23.03 0 .06-.1.06-.23s-.03-.24-.06-.24c-.04 0-.07.1-.07.24ZM14.08 32.62c0 .15.04.28.1.28.07 0 .12-.12.13-.27 0-.15-.04-.27-.1-.27-.06 0-.12.11-.13.26ZM9.85 32.78c.15-.12.21-.27.15-.35-.07-.08-.24-.05-.38.07-.15.12-.2.27-.14.35.06.08.23.05.37-.07ZM11.3 33.26c-.03.15.02.28.11.3.1.03.2-.08.24-.22.03-.15-.02-.28-.12-.3-.09-.03-.2.08-.23.22ZM14.71 33.61c.02.1.07.17.12.17.05-.01.07-.1.05-.2-.02-.1-.07-.17-.12-.16-.04 0-.07.1-.05.2ZM12.73 33.68c0 .13.06.24.14.24.07 0 .14-.11.14-.24s-.07-.24-.14-.24c-.08 0-.14.11-.14.24ZM14.38 33.75c0 .1.04.18.09.18.04 0 .08-.08.08-.18 0-.1-.04-.18-.09-.18-.04 0-.08.08-.08.18ZM13.76 33.8c0 .1.05.2.12.2.06 0 .12-.1.11-.2 0-.12-.05-.21-.12-.21-.06 0-.11.1-.11.2Z" fill="#4F467E" /></svg>