<?xml version='1.0' encoding='utf-8'?>
<!-- by TradeStack -->
<svg width="56" height="56" viewBox="0 0 56 56" xmlns="http://www.w3.org/2000/svg"><path fill="#F0F3FA" d="M0 0h56v56H0z" /><path d="M27.92 20c-4 0-7.75.32-11.09.9 2.56-.35 5.34-.53 8.24-.53 12.42 0 22.47 3.35 22.47 7.47 0 4.14-10.08 7.47-22.47 7.47a54.8 54.8 0 0 1-14.63-1.8C14.84 35.07 21.02 36 27.9 36 41.2 36 52 32.41 52 27.98c.02-4.4-10.76-7.98-24.08-7.98Z" fill="#E57100" /><path d="M5.86 33H4l3.13-7h1.86l-.25.63h.02c.37-.33.83-.63 1.84-.63h.5c2.2 0 2.17.68 1.73 1.66l-.32.7C12.07 29.38 11.5 30 9.31 30h-.34c-.97 0-1.27-.07-1.38-.7h-.03L5.86 33Zm3.7-6c-.66 0-1.1.26-1.35.84l-.2.4c-.26.58.04.76.73.76h.92c.83 0 1.03-.3 1.22-.73l.2-.46c.21-.43.23-.81-.6-.81h-.91Zm3.7 1.91c-.4.91.1 1.12 1.04 1.1h1.06c.78 0 .97-.09 1.59-.52l-.2.51h1.46l1.15-2.6c.42-.92.07-1.4-.99-1.4h-1.79c-1.31 0-1.93.18-2.41 1.22h1.5c.1-.23.22-.23.51-.22H17.32c.6 0 .66.04.48.42l-.16.33c-.16-.28-.62-.3-1.47-.3-1.5 0-2.3.04-2.79 1.1l-.11.36Zm2.22.09h-.09c-.53 0-.67 0-.56-.24.14-.33.35-.46 1-.46h.68c.85 0 .9.1.76.4-.11.26-.28.3-1.36.3h-.43Zm5.8-.25c-.1.2-.1.25.8.25h.91c.45.01.6.01.7-.17.11-.23.02-.33-.53-.33H21.7c-1.43 0-1.73-.3-1.24-1.38.43-.97 1.33-1.12 2.39-1.12h1.08c2.02 0 2.25.25 1.86 1.17h-1.54c.02-.18-.06-.18-.58-.17h-.86c-.55-.01-.7-.01-.79.2-.07.18.02.23.83.23h1.08c1.84 0 1.73.58 1.4 1.27-.46 1.02-1 1.3-2.78 1.3h-1.52c-1.42 0-1.8-.3-1.35-1.27h1.58v.02Zm5.9 1.25c-.77 0-1.56-.26-.98-1.54l.41-.92a2.45 2.45 0 0 1 2.4-1.54h2.3c.78 0 1.56.26.98 1.54l-.41.92a2.45 2.45 0 0 1-2.4 1.54h-2.3Zm2.24-3c-.71 0-1.13.26-1.38.82l-.19.39c-.25.53.03.79.74.79h.37c.99 0 1.24-.2 1.47-.72l.25-.54c.23-.5.1-.74-.9-.74h-.36Zm4.7-1h1.55l-.3.7h.02c.53-.55 1.13-.7 1.96-.7.97 0 2.28.03 1.52 1.73L37.86 30H36.3l1.02-2.27c.16-.39-.07-.73-.74-.73h-.34c-.67 0-1.2.45-1.45 1.01L33.9 30h-1.54l1.77-4Z" fill="#004E59" /></svg>