<?xml version='1.0' encoding='utf-8'?>
<!-- by TradeStack -->
<svg width="56" height="56" viewBox="0 0 56 56" fill="none" xmlns="http://www.w3.org/2000/svg">
<rect width="56" height="56" fill="#F0F3FA" />
<path fill-rule="evenodd" clip-rule="evenodd" d="M27.5625 30.1792C29.1056 30.5966 30.7056 30.8215 31.235 30.1792C32.9773 28.0654 29.7938 23.2346 24.5126 18.5489C22.2743 16.5631 19.9908 15.0564 18 14.0469C18.2332 14.0249 18.4783 14.0005 18.7343 14C22.6802 14 29.2242 16.5562 35.0217 21.7C41.4102 27.368 44.9999 34.1453 44.9999 37.9386C44.9999 38.8541 44.8691 39.5958 44.4484 40.1062C43.9997 40.6506 43.3262 41 42.4754 41C39.2992 41 33.2184 37.0594 27.5625 30.1792Z" fill="url(#paint0_linear_5085_142928)" />
<path fill-rule="evenodd" clip-rule="evenodd" d="M29.3042 25.4128C27.3767 24.7631 25.9013 24.768 25.2805 25.5073C23.4956 27.6329 26.7477 32.4985 32.1461 37.2204C34.5538 39.3263 36.8915 40.8018 38.9999 41.8125C38.4922 41.911 37.9211 42 37.2973 42C33.111 42 26.5506 39.4488 20.8288 34.444C14.4851 28.8953 11.0001 22.3521 11.0001 18.4683C11.0001 17.4154 11.2865 16.558 11.7813 15.9688C12.3059 15.3441 13.1223 15 14.1568 15C17.6594 15 23.6621 18.4557 29.3042 25.4128Z" fill="url(#paint1_linear_5085_142928)" />
<path d="M31.6806 30.3702C31.3581 30.7795 30.8342 30.9982 30.1995 31C29.1136 31.0031 27.7036 30.4134 26.4229 29.3615C24.8964 28.1079 24 26.5238 24.0044 25.3435C24 24.9547 24.1152 24.6097 24.3319 24.3348C24.6534 23.9269 25.1747 23.73 25.8064 23.7269C26.8932 23.7215 28.3063 24.2895 29.5897 25.3435C31.0892 26.575 32 28.1254 32 29.2986C32 29.7131 31.9089 30.0806 31.6806 30.3702Z" fill="#002C61" />
<defs>
<linearGradient id="paint0_linear_5085_142928" x1="37.0874" y1="20.6874" x2="25.8675" y2="30.7005" gradientUnits="userSpaceOnUse">
<stop offset="0.282167" stop-color="#F0E40E" />
<stop offset="0.484382" stop-color="#FABF00" />
<stop offset="0.891405" stop-color="#E71211" />
</linearGradient>
<linearGradient id="paint1_linear_5085_142928" x1="18.252" y1="35.0313" x2="30.4508" y2="24.8407" gradientUnits="userSpaceOnUse">
<stop offset="0.0952478" stop-color="#F0E40E" />
<stop offset="0.309523" stop-color="#FAED07" />
<stop offset="0.522412" stop-color="#FABF00" />
<stop offset="0.891405" stop-color="#E71211" />
</linearGradient>
</defs>
</svg>