<?xml version='1.0' encoding='utf-8'?>
<!-- by TradeStack -->
<svg width="56" height="56" viewBox="0 0 56 56" xmlns="http://www.w3.org/2000/svg"><path fill="#F0F3FA" d="M0 0h56v56H0z" /><path d="M4 22h36.56v12H4z" /><path fill-rule="evenodd" d="M7.24 24h2.93a3 3 0 0 1 0 6H8.48v2H6v-8h1.24Zm1.24 4v-2h1.33a1 1 0 1 1 0 2H8.48ZM20.76 24h2.93a3 3 0 0 1 0 6h-1.7v2h-2.47v-8h1.24ZM22 28v-2h1.32a1 1 0 1 1 0 2H22Z" fill="#fff" /><path fill-rule="evenodd" d="M16 32c2.27 0 4.11-1.8 4.11-4 0-2.21-1.84-4-4.1-4-2.28 0-4.12 1.79-4.12 4 0 2.2 1.84 4 4.11 4Zm0-2.16c.8 0 1.44-.82 1.44-1.84s-.65-1.85-1.44-1.85c-.79 0-1.43.83-1.43 1.85s.64 1.84 1.43 1.84ZM25.5 28c0 2.2 1.84 4 4.1 4 1.53 0 2.86-.8 3.57-2h-3.13c-.14.05-.28.08-.43.08-.6 0-1.13-.44-1.4-1.08h5.38a4.06 4.06 0 0 0-3.98-5c-2.27 0-4.11 1.79-4.11 4Zm5.48-1c-.27-.6-.79-1.01-1.37-1.01-.59 0-1.1.4-1.37 1.01h2.74Z" fill="#fff" /><path fill-rule="evenodd" d="M40.56 22H52v12H40.56V22Zm3.49 2c-1.33.22-1.61 1.52-1.6 2h3.77c1.52-.26 1.62-1.68 1.47-2.31l-1.02.31h-2.62Zm-1.78 5c-.4-.51-.17-1.67 0-2h4.4c1.16-.2 1.95-1.68 2.2-2.46v2.03c0 1.37-1.33 2.27-1.99 2.43h-4.6Zm5.15 1h-4.66c.15.52 1.29 2 3.46 2s4.07-1.23 4.28-3.9c.16-2.14-.75-3.38-1.23-3.74.09.07.28.65.32 2.43.05 1.8-1.42 2.88-2.17 3.21Z" fill="#0C614E" /></svg>