<?xml version='1.0' encoding='utf-8'?>
<!-- by TradeStack -->
<svg width="56" height="56" viewBox="0 0 56 56" fill="none" xmlns="http://www.w3.org/2000/svg">
<rect width="56" height="56" fill="#F0F3FA" />
<path d="M4 32V27H7.5C8.68404 27 9 27.4886 9 28.6655V28.9946C9 30.1719 8.68579 30.5 7.5 30.5H5V32H4ZM5 29.5H7.43052C7.86817 29.5 8 29.3106 8 28.909V28.5507C8 28.1643 7.7666 28 7.37428 28H5V29.5Z" fill="#173A85" />
<path d="M14.9849 30.6C14.9235 31.4964 14.3062 32 13.4211 32H11.5789C10.4664 32 10 31.4441 10 30.4015V29.5985C10 28.5591 10.4691 28 11.5789 28H13.4211C14.5279 28 15 28.5611 15 29.5985V30H11V30.5334C11 30.8599 11.1634 31.0107 11.5024 31.0107H13.4825C13.7857 31.0107 13.9486 30.896 13.9773 30.6H14.9849ZM11 29.6187H14V29.4817C14 29.1091 13.9247 29 13.4901 29H11.5099C11.0943 29 11 29.0809 11 29.4447V29.6187Z" fill="#173A85" />
<path d="M18.1335 32C17.3436 32 17 31.4824 17 30.6525V30.4279L17 29H16V28H17L17 27H18L18 28H20V29H18L18 30.4515C18 30.7947 18.1553 31 18.5 31C18.9483 31 19 30.8881 19 30.5894V30H20V30.7116C20 31.5306 19.5974 32 18.863 32H18.1335Z" fill="#173A85" />
<path d="M21 32V28H22V28.6148C22.2668 28.1477 22.583 28 23.2535 28C24.1579 28 24.5 28.4342 24.5 29.4358V30H23.4251V29.537C23.4251 29.1773 23.1162 29 22.7965 29C22.0466 29 22 29.3482 22 29.7882V32H21Z" fill="#173A85" />
<path d="M29.1256 29L27.8702 29C27.4261 29 27 28.992 27 29.52L27 30.4882C27 31.0113 27.4333 31 27.8702 31L29.1256 31C29.5632 31 30 31.013 30 30.4882L30 29.52C30 28.9924 29.5668 29 29.1256 29ZM29.1573 28C30.3492 28 31 28.5025 31 29.7114L31 30.2886C31 31.4943 30.3469 32 29.1573 32L27.8427 32C26.6495 32 26 31.4972 26 30.2886L26 29.7114C26 28.4996 26.6472 28 27.8427 28L29.1573 28Z" fill="#173A85" />
<path d="M39 28.7602H38C37.9878 28.3827 37.8449 28 37.5 28H34.8323C34.0995 28 34 28.3585 34 28.9541V30.0525C34 30.6461 34.2711 31 35 31H37.2195C37.6122 31 38 30.9129 38 30.5H36V29.5H39V30.2908C39 31.4757 38.3236 32 36.9619 32H34.5C33.1423 32 33 31.1424 33 30.0525V29C33 27.7478 33.3189 27 34.5 27H37.5C38.4155 27 39 27.4635 39 28.4031V28.7602Z" fill="url(#paint0_linear_228_4028)" />
<path d="M41.3666 31L43.644 31C43.8813 31 44 30.8865 44 30.6596V30.3441C44 30.1122 43.8813 30 43.644 30L41.3666 30C41.1514 30 41 30.1201 41 30.3441V30.6596C41 30.8865 41.1246 31 41.3666 31ZM40.1738 29.2803C40.1854 28.3746 40.5038 28.0704 42 28C42.3055 27.9856 43.1392 28 43.5 28C44.377 28 45 28.3422 45 29.2803V32L44 32V31.593C43.8004 31.8695 43.4988 32 43.1635 32L41.0002 32C40.3564 32 40 31.5397 40 30.9158V30.5532C40 29.871 40.4929 29.5097 41.1391 29.5097L43.1991 29.5097C43.501 29.5097 43.8121 29.6168 44 29.8649V29.3404C44 29.1243 43.8906 29 43.6725 29H42.0475C41.8417 29 41.5769 29.0491 41.5769 29.284L40.1738 29.2803Z" fill="url(#paint1_linear_228_4028)" />
<path d="M46 30.6226H47C47.0647 30.9647 47.3397 31 47.6271 31H49.1099C49.3758 31 50 31 50 30.7429C50 30.3814 49.3036 30.3645 49 30.3645H47.1022C46.5622 30.3225 46 30.0731 46 29.358V29.0472C46 28.1154 47.1759 28 47.8272 28H49.1922C49.8303 28 50.8118 28.1294 50.8118 29.0139V29.099H50C49.9837 28.8043 49.6371 28.7808 49.427 28.7808H47.573C47.3232 28.7808 47 28.8147 47 29.1508C47 29.4214 47.2324 29.461 47.4421 29.4764H49.9516C50.5027 29.5175 51 29.7365 51 30.5088V30.8418C51 31.7673 49.9958 32 49.3036 32H47.8092C47.0975 32 46 31.8786 46 30.8862L46 30.6226Z" fill="url(#paint2_linear_228_4028)" />
<path d="M41.9171 23.2213L41.0457 22C40.4357 22.6481 40 23.6201 40 24.1934C40 24.7667 40.4793 25.4646 41.1111 25.4646C41.7428 25.4646 42.2439 24.7667 42.2439 24.1934C42.2439 23.7348 42.026 23.3543 41.9171 23.2213Z" fill="url(#paint3_linear_228_4028)" />
<path d="M41.2687 21.4299C42.7015 19.8494 43.398 18.4848 43.5672 18C43.8657 19.2622 44.7314 20.3049 45.3284 20.9634C45.9254 21.622 47 22.3354 47 23.8171C47 26.2043 44.9403 27 43.5672 27C42.1941 27 41.4179 26.3567 41 26C42.6418 26.0823 43 24.8872 43 24.2287C43 23.2373 41.8434 22.0972 41.2687 21.4299Z" fill="url(#paint4_linear_228_4028)" />
<defs>
<linearGradient id="paint0_linear_228_4028" x1="34.2664" y1="27" x2="35.4607" y2="32.3723" gradientUnits="userSpaceOnUse">
<stop offset="0.112304" stop-color="#AEAEB0" />
<stop offset="0.546433" stop-color="#D0D0D0" />
<stop offset="0.971179" stop-color="#B2B2B4" />
</linearGradient>
<linearGradient id="paint1_linear_228_4028" x1="43.4386" y1="28" x2="42.654" y2="32.2393" gradientUnits="userSpaceOnUse">
<stop offset="0.112304" stop-color="#AEAEB0" />
<stop offset="0.546433" stop-color="#D0D0D0" />
<stop offset="0.971179" stop-color="#B2B2B4" />
</linearGradient>
<linearGradient id="paint2_linear_228_4028" x1="49.3065" y1="28" x2="47.7225" y2="31.9578" gradientUnits="userSpaceOnUse">
<stop offset="0.112304" stop-color="#AEAEB0" />
<stop offset="0.546433" stop-color="#D0D0D0" />
<stop offset="0.971179" stop-color="#B2B2B4" />
</linearGradient>
<linearGradient id="paint3_linear_228_4028" x1="40" y1="24.7916" x2="42.1012" y2="24.6639" gradientUnits="userSpaceOnUse">
<stop offset="0.112304" stop-color="#AEAEB0" />
<stop offset="0.546433" stop-color="#D0D0D0" />
<stop offset="0.971179" stop-color="#B2B2B4" />
</linearGradient>
<linearGradient id="paint4_linear_228_4028" x1="46.2537" y1="21.7866" x2="41.2891" y2="25.4691" gradientUnits="userSpaceOnUse">
<stop offset="0.21957" stop-color="#AEAEB0" />
<stop offset="0.546433" stop-color="#D0D0D0" />
<stop offset="0.863027" stop-color="#B2B2B4" />
</linearGradient>
</defs>
</svg>