<!-- by TradeStack --><svg width="56" height="56" viewBox="0 0 56 56" fill="none" xmlns="http://www.w3.org/2000/svg">
<rect width="56" height="56" fill="#F0F3FA"/>
<path d="M29.0106 28.7401C28.9993 28.774 28.997 28.8107 29.0039 28.846C29.0108 28.8813 29.0266 28.9138 29.0496 28.9399C29.0726 28.966 29.1018 28.9846 29.134 28.9937C29.1662 29.0028 29.2001 29.002 29.232 28.9914H29.7064C29.8283 28.9803 29.9451 28.9328 30.0437 28.8543L35.8524 23.9084C35.9385 23.8222 35.9912 23.7038 36 23.5772V18.3229C35.9867 18.1976 35.9346 18.0808 35.8524 17.9916L30.0753 13.1142C29.9745 13.0438 29.8579 13.0044 29.738 13H29.232C29.1825 13.0028 29.1357 13.0253 29.1006 13.0633C29.0656 13.1013 29.0447 13.152 29.0422 13.2056L29.0106 28.7401Z" fill="#BBD646"/>
<path d="M45.8405 32.2746C45.8885 32.2335 45.9275 32.1829 45.955 32.1259C45.9824 32.0689 45.9978 32.0068 46 31.9436V26.4987C45.9978 26.4355 45.9824 26.3734 45.955 26.3164C45.9275 26.2594 45.8885 26.2088 45.8405 26.1677L41.7842 23.0514C41.7377 23.018 41.6819 23 41.6247 23C41.5674 23 41.5116 23.018 41.4651 23.0514L29.1595 32.8225C29.1115 32.8636 29.0725 32.9142 29.045 32.9712C29.0176 33.0282 29.0022 33.1008 29 33.1641V41.7945C29 41.849 29.0216 41.9013 29.0601 41.9398C29.0985 41.9784 29.1507 42 29.2051 42H33.5349C33.6657 41.9928 33.7919 41.9494 33.8995 41.8744L45.8405 32.2746Z" fill="#BBD646"/>
<path d="M10.1595 32.2746C10.1115 32.2335 10.0725 32.1829 10.045 32.1259C10.0176 32.0689 10.0022 32.0068 10 31.9436V26.4987C10.0022 26.4355 10.0176 26.3734 10.045 26.3164C10.0725 26.2594 10.1115 26.2088 10.1595 26.1677L14.2158 23.0514C14.2623 23.018 14.3181 23 14.3753 23C14.4326 23 14.4884 23.018 14.5349 23.0514L26.8405 32.8225C26.8885 32.8636 26.9275 32.9142 26.955 32.9712C26.9824 33.0282 26.9978 33.1008 27 33.1641V41.7945C27 41.849 26.9784 41.9013 26.9399 41.9398C26.9015 41.9784 26.8493 42 26.7949 42H22.4651C22.3343 41.9928 22.2081 41.9494 22.1005 41.8744L10.1595 32.2746Z" fill="#505358"/>
<path d="M26.9989 28.8047C26.9989 28.8313 26.9939 28.8576 26.9842 28.882C26.9745 28.9065 26.9602 28.9285 26.9424 28.9468C26.9245 28.965 26.9033 28.9791 26.8802 28.9882C26.8571 28.9973 26.8325 29.0012 26.808 28.9997H26.3308C26.2081 28.9885 26.0907 28.9408 25.9914 28.862L20.1485 23.8729C20.1038 23.8316 20.0675 23.7807 20.0419 23.7235C20.0164 23.6662 20.0021 23.6038 20 23.5403V18.3447C20.0088 18.2175 20.0619 18.0987 20.1485 18.0121L25.9384 13.1147C26.0386 13.0412 26.1567 13.0013 26.2778 13H26.808C26.8354 13.0014 26.8623 13.0088 26.887 13.0219C26.9117 13.0349 26.9336 13.0533 26.9515 13.0759C26.9694 13.0984 26.9828 13.1247 26.9909 13.1531C26.9991 13.1814 27.0018 13.2113 26.9989 13.2409V28.8047Z" fill="#505358"/>
</svg>
