<?xml version='1.0' encoding='utf-8'?>
<!-- by TradeStack -->
<svg width="56" height="56" viewBox="0 0 56 56" xmlns="http://www.w3.org/2000/svg"><path fill="#F0F3FA" d="M0 0h56v56H0z" /><circle cx="28" cy="28" r="16" fill="url(#adttnlwtu)" /><path d="M14 31.3c-1.08-4.67-.24-14.68 11.71-17.28-9.97 3.57-11.97 13.01-11.72 17.28Z" fill="#447AAE" /><ellipse cx="21.86" cy="15.67" rx="1.79" ry="1" transform="rotate(-25.83 21.86 15.67)" fill="#6C8EC3" /><ellipse cx="24.72" cy="14.38" rx="1.12" ry=".63" transform="rotate(-14.85 24.72 14.38)" fill="#7193C4" /><ellipse cx="32.14" cy="41.88" rx="1.12" ry=".63" transform="rotate(-14.85 32.14 41.88)" fill="#7193C4" /><path d="M42.24 23.75c.55.1 1.06.18 1.27.3-.13-.5-.28-1-.45-1.48a9.1 9.1 0 0 0-1.5-.57c-.8-.23-2.17-.33-2.93-.39h-.03l.21 1.7c.15.02.47.03.82.05.49.02 1.04.04 1.26.1.38.12.88.2 1.35.29Zm-3.77-3.15.25.02c.8.06 2.25.17 3.11.42.23.06.46.14.68.22-.36-.79-.79-1.53-1.27-2.24-.92-.22-2.01-.3-2.73-.36l-.39-.03.31 1.63.04.34Zm-3.83-7.16c.85.38 1.65.84 2.41 1.37.37 1.62.76 3.62 1 5.58l.09 1.02c.07.75.14 1.5.14 2.25a435.7 435.7 0 0 1 0 5.1 11.87 11.87 0 0 1-2.36 6.12 9.82 9.82 0 0 1-8.07 3.83 9.86 9.86 0 0 1-8.74-4.77 12.4 12.4 0 0 1-1.86-5.82c0-1.12.41-3.6 1.93-5.9 1.61-2.43 4.45-4.56 8.97-4.56h.06l4.27.1.15 2.2-4.59-.23c-3.84 0-6.12 1.75-7.43 3.72A9.82 9.82 0 0 0 19 28.3c0 .7.34 2.84 1.58 4.82A8 8 0 0 0 27.73 37a7.96 7.96 0 0 0 6.6-3.1 9.97 9.97 0 0 0 1.97-5.1l.01-1.16v-3.8c-.03-3.41-1.05-8.04-1.67-10.4Zm-1.2-.5c-.54-.19-1.1-.36-1.67-.5.2.87.48 2.4.73 3.78l.31 1.67c.21.8.37 1.9.47 2.88.13 1.03.21 2.03.22 2.92a431.18 431.18 0 0 1 0 4.57v.14a7.1 7.1 0 0 1-1.36 3.56 5.05 5.05 0 0 1-4.3 1.97 5.1 5.1 0 0 1-4.67-2.52 8.14 8.14 0 0 1-1.13-3.3c0-.31.2-1.85 1.12-3.24.82-1.23 2.22-2.41 4.93-2.43l4.7.24v-.2l-.1-1.52-4.67-.23c-3.46 0-5.44 1.56-6.57 3.27A8.85 8.85 0 0 0 20 28.3c0 .53.3 2.48 1.43 4.3a7 7 0 0 0 6.3 3.4c2.82 0 4.65-1.2 5.8-2.7a8.97 8.97 0 0 0 1.77-4.58 2.3 2.3 0 0 0 0-.27l.01-.82v-3.77c-.03-3.48-1.26-8.7-1.87-10.91Z" fill="#FFD800" /><defs><linearGradient id="adttnlwtu" x1="15.06" y1="18.58" x2="41.95" y2="36.33" gradientUnits="userSpaceOnUse"><stop offset=".89" stop-color="#385587" /><stop offset="1" stop-color="#2673A0" /></linearGradient></defs></svg>