<!-- by TradeStack --><svg width="56" height="56" viewBox="0 0 56 56" xmlns="http://www.w3.org/2000/svg"><path fill="#F0F3FA" d="M0 0h56v56H0z"/><path d="M9.48 32.96c.48-.3.94-.64 1.36-1.02a95.64 95.64 0 0 0 4.68-4.44l1.57-1.6c2.05-2.1 4-4 5.87-5.72.62-.57 1.24-1.23 1.84-1.98.62-.5 1.32-.9 2.12-1.18.12-.05.16 0 .13.12a3.2 3.2 0 0 0-.09.42c-.03.49.12.53.45.14.07-.1.2-.17.37-.22.15-.05.18-.01.08.1l-.83.98a.3.3 0 0 0-.08.23v.1c0 .1-.04.16-.12.18-.75.22-.77.73-1.25 1.19a.3.3 0 0 0-.1.26c.08.73-.09 1.27-.5 1.63-.8.7-1.25 1.25-1.34 1.66-.04.17.01.2.15.1.17-.13.38-.37.62-.71.13-.18.27-.2.43-.04l.22.23c.14.14.15.3.03.45-.6.82-1.11 1.4-1.51 1.71a30.38 30.38 0 0 0-2.44 2.12c-1.01 1.13-1.62 1.78-1.84 1.95-.43.33-.63.76-1.05 1.12-1.06.91-2.04 2.03-2.98 2.88a135.16 135.16 0 0 0-5.08 4.81c-.3.3-.67.49-1.1.56a.28.28 0 0 1-.26-.09 5.1 5.1 0 0 1-.61-.72 5.33 5.33 0 0 1 1.26-5.22Z" fill="#72C0E4"/><path d="M38.87 20.23c-2.23.64-4.15 1.8-5.76 3.47-1.55 1.6-2.85 3.32-4.36 4.82-.45.45-1.75 1.89-3.9 4.31a17.1 17.1 0 0 1-4.66 3.63c-.63.34-1.1.84-1.6 1.33-.11.14-.22.22-.31.23a.82.82 0 0 1-.59-.13.85.85 0 0 1-.34-.5c-.07-.3-.22-.65-.44-1.04-.2-.36-.16-.66.12-.92.08.44.25.82.5 1.14.06.09.14.1.24.05.16-.09.29-.25.4-.48 3.3-2.02 5.42-4.24 8.18-7.38 1.99-2.25 3.9-4.56 5.73-6.94 1.05-1.35 2.69-2.68 3.64-3.56.23-.2.19-.3-.12-.27-.7.06-1.23.11-1.92.4-.55.24-1.14.45-1.76.65a9.75 9.75 0 0 1 1.67-1.36c.3-.18.73.03 1.09-.14.2-.1.37-.2.5-.28.11-.08.16-.05.13.09a.7.7 0 0 0 .03.4.2.2 0 0 0 .24.1 3.27 3.27 0 0 1 3.14.28c.83.56 1.07 1.44.15 2.1Z" fill="#4A8FCA"/><path d="M18.17 36.14a27.1 27.1 0 0 1 2.25-2.9c1.99-2.23 4.01-4.43 6.07-6.6.64-.67 1.17-1.72 0-2.18.53-.44 1.16-1.1 1.87-2a22.9 22.9 0 0 1 3.57-3.42c.6-.2 1.2-.41 1.75-.65a5.69 5.69 0 0 1 1.92-.4c.3-.03.35.06.12.27-.95.88-2.59 2.2-3.64 3.56-1.83 2.38-3.74 4.7-5.73 6.94-2.76 3.14-4.87 5.36-8.18 7.38Z" fill="#4381C0"/><path d="M24.8 18.2c-.6.75-1.22 1.41-1.84 1.98a153.9 153.9 0 0 0-5.87 5.72l-1.57 1.6a95.6 95.6 0 0 1-4.68 4.44c-.42.38-.88.72-1.36 1.02l1.9-2.42c1.16-1.3 1.87-2.2 2.14-2.71l1.65-3.18c2.2-2.29 4.76-5.23 7.57-6.35.5-.2 1.18-.23 2.06-.1Z" fill="#50A2D8"/><path d="M47.99 19.26c-.66 1.82-2.05 3.1-3.59 4.58a55.53 55.53 0 0 0-2.79 2.82 294.65 294.65 0 0 0-2.65 3c-2 2.3-4.02 4.36-6.07 6.51l-1.33 1.77c-.4.54-.66.48-.76-.17l-.04-.54a.21.21 0 0 0-.15-.19l-.43-.12a.27.27 0 0 0-.26.06.23.23 0 0 1-.18.06.22.22 0 0 1-.2-.17 1 1 0 0 0-.33-.5.3.3 0 0 1-.12-.25c.01-.19-.05-.24-.2-.17a2.23 2.23 0 0 1-.93.71c-.1.05-.12.02-.07-.07l1.13-1.98c.05-.1.07-.2.04-.3-.28-1.1.91-2.55 1.62-3.34 1.56-1.74 2.97-3.22 4.22-4.45.92-.9 2.14-1.62 3.11-2.44 1-.84 2.12-1.68 3.37-2.5.1-.06.32-.1.66-.1.1 0 .2-.04.28-.1 2.05-1.43 3.4-2.37 4.08-2.8.3-.2.68-.32 1.12-.35.1-.01.19.03.25.11.19.26.26.57.22.92Z" fill="#474B7F"/><path d="M47.99 19.26a6.69 6.69 0 0 1-1.79 3.86c-3.52 3.74-7.1 7.44-10.7 11.1-.78.78-1.65 1.44-2.61 1.95 2.05-2.15 4.07-4.2 6.07-6.5.44-.52 1.33-1.52 2.65-3.01.62-.7 1.55-1.63 2.8-2.82 1.53-1.48 2.92-2.76 3.58-4.58Z" fill="#6C6C97"/><path d="m38.87 20.23-14.4 15.23a.85.85 0 0 1-.25.17c-.38.19-.47.53-.7.75-.69.7-1.56 1.7-2.12 1.81-.1.02-.15.07-.16.17l-.02.15c-.01.16-.08.19-.2.07l-.36-.37a.17.17 0 0 0-.21-.02.22.22 0 0 0-.1.14.23.23 0 0 1-.15.16.22.22 0 0 1-.21-.04c-.4-.31-.87-.54-1.4-.66.5-.49.97-.99 1.6-1.33a17.11 17.11 0 0 0 4.66-3.63c2.15-2.42 3.45-3.86 3.9-4.3 1.51-1.5 2.81-3.22 4.36-4.83a12.82 12.82 0 0 1 5.76-3.47Z" fill="#50A2D8"/><path d="M18.17 36.14c-.11.23-.24.4-.4.48-.1.05-.18.04-.25-.05-.24-.32-.4-.7-.5-1.14.12-.48.33-.92.63-1.33.74-.99 1.47-2 2.28-2.9 2.1-2.35 4.28-4.6 6.57-6.74 1.16.46.63 1.51 0 2.19a278.77 278.77 0 0 0-6.08 6.6c-.82.91-1.57 1.88-2.25 2.9Z" fill="#376EB2"/><path d="m15.17 24.65-1.65 3.18c-.27.5-.98 1.41-2.14 2.71.02-.07-.07-.17-.27-.3-.08-.05-.08-.12-.01-.18a2.34 2.34 0 0 0 .67-1.16.12.12 0 0 1 .04-.04l.15-.08a.1.1 0 0 0 .06-.07c.14-.96.58-1.72 1.32-2.3.66-.5 1.1-1.25 1.83-1.76Z" fill="#72C0E4"/></svg>