<!-- by TradeStack --><svg width="56" height="56" viewBox="0 0 56 56" xmlns="http://www.w3.org/2000/svg"><path fill="#00523E" d="M0 0h56v56H0z"/><path fill-rule="evenodd" d="M8 27.39v1.2c.4 4.2 4.08 7.2 7.64 8.85 1.86.85 3.76 1.48 5.71 1.88 6.3 1.28 13.17.81 19.04-1.9 4.25-1.97 8.64-5.96 7.4-11.2-1.16-4.86-6.94-7.9-11.31-9.08a32.22 32.22 0 0 0-16.4-.15 23.85 23.85 0 0 0-5.7 2.22 16.16 16.16 0 0 0-3.74 2.83A8.93 8.93 0 0 0 8 27.4Zm33.57 8.39c3.6-2.06 5.62-4.86 5.62-7.78s-2.02-5.72-5.62-7.78C37.97 18.16 33.09 17 28 17c-5.1 0-9.98 1.16-13.58 3.22-3.6 2.06-5.62 4.86-5.62 7.78s2.02 5.72 5.62 7.78C18.02 37.84 22.9 39 28 39c5.09 0 9.97-1.16 13.57-3.22Z" fill="#FAA21D"/><path d="M20.82 28.3c.36-1.37.62-2.38 1.2-3.48.13-.24.29-.46.49-.65.1-.11.15-.1.13.06l-.51 3.38c-.01.05 0 .1.02.13l.31.53a.07.07 0 0 0 .09.03l.03-.02.82-1.16a.1.1 0 0 0 .02-.07l-.13-1.13a.02.02 0 0 1 .01-.02h.05l.02.03.26.64c.02.05.05.06.1.04l.27-.16c.04-.02.05-.01.04.03-.04.2-.1.4-.15.59a.2.2 0 0 0 0 .14l.59 1.46c.02.06.06.07.1.02l.43-.42c.04-.04.05-.1.05-.15-.2-1.42-.22-2.74-.07-3.97.03-.21.09-.4.17-.57.04-.08.06-.07.06.01a27.46 27.46 0 0 0 1.04 5.74l.04.02a.08.08 0 0 0 .07-.04l.12-.2a.17.17 0 0 0 .02-.13c-.44-1.85-.44-4.09.43-5.8h.02l.03.01.01.03a9.3 9.3 0 0 0 .01 3.34c.07.39.2.74.36 1.05.03.06.07.06.1.01l.33-.44a.2.2 0 0 0 .03-.16c-.38-2.25-.35-4.7.82-6.72.01-.02.03-.03.05-.01.02 0 .03.02.03.03a11.01 11.01 0 0 0-.08 5.58l.5-.5a.08.08 0 0 0 .02-.07 6.1 6.1 0 0 1 .85-4.88c.12-.17.16-.15.13.05-.12.73-.2 1.55-.27 2.48a4.75 4.75 0 0 0 .1 1.46.06.06 0 0 0 .06.02l.03-.02.32-.36c.06-.06.08-.21.08-.43a3.95 3.95 0 0 1 1-2.78c.13-.15.16-.13.1.05-.26.7-.43 1.44-.28 2.15 0 .06.04.08.09.04.25-.2.38-.35.39-.46a3.38 3.38 0 0 1 1.34-2.48.05.05 0 0 1 .06.05c.01.47-.05.95-.2 1.44-.02.06 0 .07.05.03.56-.34 1.32-.9 2.11-1.16.11-.04.13 0 .07.09a5.2 5.2 0 0 1-1.36 1.46c-.1.08-.1.1.03.06a4.75 4.75 0 0 1 2.53-.07c.46.1.45.17-.03.19-.41.01-.8.14-1.17.37-.74.47-1.63.54-2.69.64a.1.1 0 0 0-.07.04l-.32.32a.02.02 0 0 0 .01.04c1.19.1 2.28.01 3.29-.23.18-.04.2-.01.04.09a8.94 8.94 0 0 1-4.34 1.2l-.52.53v.02l.02.01a17.8 17.8 0 0 0 3.6-.44c.26-.07.27-.04.02.08a22.35 22.35 0 0 1-3.62 1.39c-.24.07-.55.11-.83.13a.33.33 0 0 0-.22.11l-.22.25c-.07.08-.05.1.05.08a42.5 42.5 0 0 0 4.65-1.21c.2-.07.21-.04.04.08a10.7 10.7 0 0 1-5.16 1.86.34.34 0 0 0-.26.15l-.08.13c-.07.1-.04.15.09.12 1.93-.33 3.76-.76 5.5-1.28.25-.08.26-.04.04.11-.43.3-.9.57-1.4.82a.2.2 0 0 0-.09.12l-.41 1.14c-.02.06 0 .09.07.07l.35-.1h.02a.03.03 0 0 1 .02.02v.05l-.57.36a.2.2 0 0 0-.1.13l-.94 3.48c0 .01 0 .02.02.02h.04c.01 0 .02 0 .03-.02.74-1.9 1.94-4.2 3.65-5.36.13-.09.15-.06.06.07a14.7 14.7 0 0 0-2.15 4.97c-.01.04 0 .05.01.04l.04-.02c.54-1.33 2.16-4.84 3.7-5.19.15-.03.18 0 .07.12-.48.52-.87 1.2-.81 1.94 0 .1.03.1.07.02.8-1.43 1.92-2.8 3.45-3.31.07-.02.08 0 .04.05-.48.68-1.15 1.43-1.43 2.31a.05.05 0 0 0 .02.06l.03.02.01-.01c.6-1 1.67-2.39 2.8-2.76.09-.02.1 0 .05.07-.56.75-1.1 1.5-1.3 2.34-.01.08 0 .09.06.04.38-.37.93-.99 1.53-1.22.26-.1.3-.05.13.17-.21.26-.34.56-.4.9-.03.2.02.23.16.07.46-.56 1.2-1.01 1.88-1.1.22-.02.24.03.06.16-.3.23-.52.5-.65.84-.03.07 0 .1.06.07.88-.23 1.52-.5 2.44-.34.22.04.22.1.02.17a5.63 5.63 0 0 0-2.29 1.26.1.1 0 0 0 .08.11c.78.11 2.16.46 2.59 1.1.08.13.05.17-.1.13-1.13-.3-2.64-.63-3.72-.43-.37.07-.36.13 0 .17a4.47 4.47 0 0 1 2.6 1.21.06.06 0 0 1-.03.06h-.04c-1.32-.4-2.6-.58-3.86-.57-.47 0-.88.07-1.23.2-.08.03-.08.05 0 .06 1.12.16 2.59.5 3.38 1.32.08.1.06.12-.06.1-1.08-.26-2.2-.47-3.34-.63-.83-.12-2.01-.26-2.7-.01-.28.1-.28.17.03.19 1.52.1 2.93.45 4.24 1.02.33.15.62.34.87.58.03.03.03.04-.03.03-1.77-.42-3.47-.86-5.25-1.04a2.72 2.72 0 0 0-1.15.1c-.5.17-.48.27.04.3 1.23.1 2.57.29 3.65.74.27.1.48.23.65.38.15.14.13.17-.06.11l-.2-.04c-1.1-.18-2.34-.27-3.72-.26-1.72 0-3.41.1-5.08.27-.06 0-.08-.01-.07-.07l.65-3.06c.02-.08-.01-.1-.09-.07l-.86.34c-.04.02-.06.05-.06.1l.25 2.13a.1.1 0 0 1-.06.1l-.84.34c-.05.02-.07 0-.07-.05a7.79 7.79 0 0 1 .1-2.2.04.04 0 0 0-.04 0l-3.44 1.37a.16.16 0 0 0-.1.11l-.19.72c-.01.05-.05.07-.1.06l-.8-.12c-.07 0-.1-.04-.08-.1l.03-.22-.01-.08-.75-1.28c-.05-.1-.1-.1-.16 0l-.46.8a.23.23 0 0 0-.02.21l.18.44c.03.07 0 .13-.08.15l-.9.26c-.12.03-.2-.01-.22-.13-.03-.12-.16-.2-.39-.24a22.4 22.4 0 0 0-7.05-.16c-.39.06-.4 0-.05-.18a5.86 5.86 0 0 1 1.67-.52 18.8 18.8 0 0 1 5.16-.13c.07 0 .1-.02.06-.08l-.14-.24a.22.22 0 0 0-.16-.11 22.33 22.33 0 0 0-7.23-.12c-.36.05-.38 0-.04-.15a8.61 8.61 0 0 1 4.5-.85c.35.04.37-.02.05-.18-1.23-.6-3-.56-4.38-.47-.22.02-.22-.02-.02-.1 1.77-.78 4.24-.61 6.02-.1.06.02.08 0 .04-.05-.13-.21-.27-.47-.55-.56-1.94-.64-4.18-.6-6.15-.16-.19.04-.2 0-.05-.12 1.14-.9 2.88-1 4.4-.78a14.62 14.62 0 0 1 1.38.23l-.3-.51a.1.1 0 0 0-.09-.06c-1.8-.11-3.57-.28-5.3-.5-.47-.06-.47-.14-.01-.22a15.01 15.01 0 0 1 3.62-.2c.05 5.23.05 5.23 0 0a45.8 45.8 0 0 0-3.26-.62c-.65-.1-1.23-.3-1.72-.6-.19-.12-.17-.18.04-.18 1.42 0 2.9.16 4.45.5.05.01.06 0 .04-.05-.12-.23-.28-.35-.5-.38a11.99 11.99 0 0 1-3.38-.9c-.15-.05-.14-.08.02-.08h2.2c.08 0 .1-.03.03-.1-.66-.59-1.37-1.1-2.13-1.5-.25-.14-.23-.18.04-.12.58.12 1.16.3 1.75.52.04.02.07 0 .06-.05-.02-.46-.13-.9-.32-1.32-.04-.1-.02-.11.07-.05a4.7 4.7 0 0 1 1.65 1.92c.07.13.09.13.07-.02a6.97 6.97 0 0 0-.52-1.92c-.03-.08 0-.11.08-.08 1.06.4 1.55 2.27 1.64 3.28 0 .07.02.08.05 0 .04-.1.07-.23.07-.39.03-.9-.07-1.77-.28-2.62-.05-.16 0-.19.13-.08.54.43.85 1.3.98 1.95a11.15 11.15 0 0 1 .22 2.46l.1.02c.04 0 .07-.01.07-.06l.32-4.38c.02-.31.08-.32.17-.02.14.45.24.94.3 1.47.11 1.18.18 2.5.2 3.98 0 .09.02.1.07.03.07-.1.12-.22.16-.38.38-1.55.46-3.48.57-4.72.02-.23.06-.23.13-.01.53 1.67.45 3.24.3 5.08-.02.1 0 .1.02 0Z" fill="#FAA21D"/><path d="m32.4 27.85-.92 1.48a.1.1 0 0 1-.05.04c-1.44.41-2.8.84-4.2.9a.09.09 0 0 1-.09-.09l.01-.04.36-.63a.2.2 0 0 1 .13-.1c1.61-.39 3.27-.8 4.76-1.56ZM21.33 30.38c-.06.1-.07.1-.04-.02l.66-2.22c.03-.1.06-.1.1 0l.16.6a.2.2 0 0 1-.02.17l-.86 1.47ZM23.52 30.29l-.38-.66a.32.32 0 0 1-.03-.25l.41-1.23c.02-.07.04-.07.06 0l.42 1.48-.01.06-.44.6a.02.02 0 0 1-.02 0h-.01ZM25.2 29.01l.54 1.43a.18.18 0 0 1-.02.17l-.16.2c-.05.08-.1.07-.13 0l-.54-1.2a.08.08 0 0 1 0-.08l.3-.51h.01ZM29.83 30.29l1.5-.6h.04a.03.03 0 0 1 0 .04l-.5 1.17a.22.22 0 0 1-.15.13l-.9.25c-.02.01-.03 0-.03-.02v-.92c0-.03.02-.04.04-.05ZM29.51 30.4c.02 0 .03 0 .02.02l-.34 1c0 .03-.03.04-.06.05l-3.03.87v-.01l.44-1.04a.08.08 0 0 1 .06-.05 12.1 12.1 0 0 0 2.91-.84ZM22.7 30.42l.29.7v.04c-.2.44-.46.8-.8 1.1a.17.17 0 0 1-.28-.13c.02-.56.47-1.27.75-1.72l.02-.01a.03.03 0 0 1 .02.02ZM24.34 30.78l.68 1.36a.18.18 0 0 1 0 .17l-.14.23c-.04.07-.08.07-.12 0l-.67-1.13a.09.09 0 0 1 0-.09l.25-.54Z" fill="#00523E"/><path d="M28.07 34.23a.18.18 0 0 1-.12-.05.17.17 0 0 1-.05-.13l.02-.24c.01-.28.06-.54.14-.73.07-.2.16-.3.26-.3h.05c.05 0 .1.04.13.1.04.05.08.13.1.22a2.94 2.94 0 0 1 .07.74l-.01.25a.17.17 0 0 1-.18.16l-.41-.02ZM27.55 34.14a.16.16 0 0 1-.2.18l-.08-.01c-.16-.03-.24-.13-.23-.29 0-.4.08-.66.24-.78a.1.1 0 0 1 .1-.01.11.11 0 0 1 .07.09l.1.82Z" fill="#FAA21D"/></svg>