<!-- by TradeStack --><svg width="56" height="56" viewBox="0 0 56 56" xmlns="http://www.w3.org/2000/svg"><path fill="#F0F3FA" d="M0 0h56v56H0z"/><path fill-rule="evenodd" d="M16.79 14.53c.22-.1.4-.23.54-.41a.28.28 0 0 1 .24-.12h8.75c.22 0 .31.1.28.32l-.02.16c-.03.22-.16.34-.4.36-.66.06-1.31.09-1.96.1-2.44 0-4.36.01-5.78.03-.23 0-.55-.02-.94-.06l-.54-.06c-.1-.01-.18-.08-.22-.2-.02-.05 0-.1.05-.12Zm18.54 26.5c.62.03 1.56-.01 2.83-.12.57-.05.97-.15 1.2-.32.37-.26.57-.65.6-1.16.06-1.08.09-2.78.06-5.11V32.9c0-.61-.02-1.46-.05-2.56a36.2 36.2 0 0 1 0-2.56v-.86c-.05-3.9-.13-7.08-.25-9.54a3.1 3.1 0 0 0-.4-1.31c-.16-.3-.38-.5-.67-.6-.44-.13-.88-.29-1.34-.45a3.76 3.76 0 0 0-.9-.09c-1.27-.02-2.56-.03-3.88-.02-.64 0-1.4.04-2.29.13-.48.04-1.26.07-2.33.1a.16.16 0 0 1-.12-.05l-.4-.38a.2.2 0 0 1-.05-.17c.05-.34.22-.51.51-.51 2.87-.03 5.93-.02 9.2.01.93.01 1.7.22 2.32.62.69.46 1.06 1.12 1.12 1.97l.11 1.67c.06.54.09 1.1.08 1.67-.01.74 0 1.35.02 1.82a241.4 241.4 0 0 1 .17 9.72c-.02 1.95 0 3.36.07 4.25.05.79.07 1.3.05 1.52l-.1 1.75c-.03.54-.1.96-.23 1.27-.15.36-.4.69-.77.97-.23.18-.58.31-1.03.4-.69.12-1.06.19-1.13.19-3 .02-6 .03-9 .02l-1.59.03c-.84.02-1.46.02-1.85.01-.36 0-.53-.18-.5-.52v-.05c.04-.33.24-.5.62-.48.13 0 .3.02.5.05.28.04.51.05.71.05.9 0 1.78 0 2.68.03l.61-.02c.11 0 .28 0 .5.03l.33.02.59.01a52.6 52.6 0 0 0 4-.02ZM15.97 19.3c-.07.05-.1.03-.1-.04.02-.92.02-1.8 0-2.66 0-.26.14-.76.43-1.51.1-.25 0-.37-.28-.36l-.21.01a.61.61 0 0 0-.37.14c-.1.09-.18.2-.2.33-.15.6-.22 1.1-.21 1.5.01 2.48 0 4.25-.02 5.31-.02.9.13 1.74.44 2.54.03.09.1.13.2.14.3 0 .43-.15.41-.46 0-.14-.04-.4-.08-.76-.07-.54-.11-.93-.12-1.18-.02-.91-.02-1.72-.01-2.43 0-.06.03-.1.08-.1.07 0 .16.04.26.13.06.06.12.06.19.01 0 0 .02 0 .03-.02a5.46 5.46 0 0 0 1.46-1.5c.52-.69.94-1.17 1.25-1.47.17-.15.16-.29-.02-.42l-.13-.1c-.17-.13-.33-.11-.47.05l-.47.71a7.49 7.49 0 0 1-2.06 2.14Zm6.98-.58.02.15c.07.6.16 1 .29 1.2.2.32.56.48 1.1.48.58 0 1.05-.04 1.42-.1.2-.03.34-.27.44-.72v-.03a.4.4 0 0 1 .21-.27l.37-.2a.2.2 0 0 1 .22 0c.06.04.1.1.09.18-.07.62-.3 1.13-.73 1.5-.13.13-.3.2-.5.23-2.02.2-3.12-.13-3.33-1a3.44 3.44 0 0 1-.1-1.46.82.82 0 0 0-.02-.42 5.29 5.29 0 0 1-.17-.88 4.53 4.53 0 0 0-.1-.59c-.03-.06 0-.1.06-.1.25 0 .48.02.7.1.06.02.09.06.09.12v1.05c0 .09.04.13.14.14.75.07 1.5-.01 2.23-.24a.58.58 0 0 0 .34-.32.6.6 0 0 1 .2-.24c.17-.1.33-.07.48.1.13.16.2.33.2.5.02.2-.07.3-.26.35-1.09.27-2.19.4-3.3.37-.07 0-.1.03-.1.1ZM39.3 17.5c.1 0 .13-.05.13-.13V17c-.01-.09-.06-.13-.14-.13l-7.83.2a9.6 9.6 0 0 0-1.33.12c-.37.06-.55.13-.55.2v.08c0 .07.19.13.56.18.37.04.82.06 1.34.05l7.82-.2Zm-1 3.17a8.92 8.92 0 0 1-.12-.99c-.01-.17.03-.36.13-.56a4 4 0 0 0 .06-.14c.03-.06.01-.1-.04-.14a1.13 1.13 0 0 0-.67-.2 49 49 0 0 1-6.17 0 .14.14 0 0 0-.12.06.13.13 0 0 0-.04.12c.06.28.08.62.07 1.02-.01.27.02.5.1.72.1.3.27.45.5.44l6.06-.05c.08 0 .14-.03.19-.09a.22.22 0 0 0 .05-.2Zm-6.16-1.24v.82c0 .07.03.1.1.1h5.2c.06 0 .09-.03.09-.1v-.82c0-.06-.03-.1-.1-.1h-5.2c-.06 0-.09.04-.09.1ZM16.07 29.1a.08.08 0 0 0-.09 0 .07.07 0 0 0-.04.07l.17 3.5c0 .16.09.26.25.3l1.54.39c.16.04.23.14.2.3l-.12.57c-.03.16-.11.18-.24.09a2.7 2.7 0 0 0-.65-.37c-.3-.12-.56-.16-.76-.12l-.57.08c-.05 0-.08.03-.1.09v.1c-.02.08-.05.08-.1.02a.45.45 0 0 1-.11-.29c-.02-.66.03-1.5.13-2.55.04-.33.03-.86 0-1.58-.01-.18-.03-.3-.06-.35-.14-.26-.21-.24-.21.07l-.03 3.1c0 .05-.02.07-.06.06h-.07c-.07-.01-.1-.05-.1-.12 0-.09.01-.21.04-.37.02-.21.03-.37.02-.48-.03-.34-.04-.9-.04-1.68 0-.71-.01-1.24-.03-1.58-.06-1.01-.05-1.83.04-2.44.01-.05.04-.1.09-.12l.38-.21c.04-.03.08-.02.11.01l.26.3c.04.05.06.1.06.15l-.06.52c-.01.1.03.17.13.2.05.03.1.02.13-.02a4.81 4.81 0 0 0 1.05-2.8v-2.02c0-.2-.02-.53-.07-.97-.05-.54-.08-.93-.08-1.19 0-.11.07-.17.18-.17h3.16c.07 0 .12-.02.16-.07.03-.05.04-.1.02-.16a2.4 2.4 0 0 0-.6-.97c-.06-.06-.08-.12-.06-.2a.2.2 0 0 1 .14-.15c.3-.09.6-.04.88.13.05.02.07.06.08.1l.26 1.28c.07.35-.1.56-.53.6-.9.09-1.83.14-2.77.15-.1 0-.15.05-.16.14l-.07.55c-.01.11.03.16.14.16h2.7c.25 0 .37.13.34.37l-.17 1.35c0 .04 0 .08.03.11a.8.8 0 0 1 .07.73c-.01.06-.06.09-.12.09H18c-.09 0-.14.04-.15.12l-.08.66c0 .06.02.1.09.1l2.3.04c.66 0 .97.2.92.57l-.04.37a5.75 5.75 0 0 1-.28 1.4c-.18.43-.5.72-.95.86-.47.14-.86.06-1.19-.25a.2.2 0 0 1-.05-.23c.03-.1.1-.14.2-.15h.04c.57-.05.95-.15 1.13-.32.35-.3.48-.72.4-1.26-.01-.14-.1-.22-.25-.24l-2.29-.26c-.05 0-.09.01-.11.06-.2.47-.44.98-.68 1.5-.2.44-.48.75-.83.91-.23.11-.3.46-.2 1.05.01.06.05.1.1.1.06.03.11.01.16-.03.12-.12.2-.2.25-.21.2-.08.37-.02.5.17a8 8 0 0 0 1.29 1.48c.2.17.35.39.46.63.05.1.02.17-.1.2a.8.8 0 0 1-.4.05.63.63 0 0 1-.32-.24c-.6-.71-1.21-1.3-1.85-1.78Zm4.2-7.2-2.22.02a.15.15 0 0 0-.15.15v.8c0 .08.07.15.16.15l2.22-.01c.09 0 .16-.07.15-.15v-.8a.15.15 0 0 0-.15-.15Zm2.87 3.25c.01.45.05.82.11 1.11.07.32.21.52.43.61.13.07.4.1.78.1l.16.01c.64.02 1.24-.08 1.82-.3.06-.02.09-.05.09-.11V26c0-.19.09-.26.27-.2l.33.07c.17.05.25.15.24.32-.02.37-.16.68-.42.94-.26.25-.58.4-.97.45-1.65.22-2.65.18-3-.13-.15-.13-.26-.45-.3-.94l-.32-3.37a2.17 2.17 0 0 0-.12-.5l-.07-.18c-.03-.1.01-.16.12-.17.31-.02.57.02.78.1.13.05.17.14.13.26a3.07 3.07 0 0 0-.14 1.58c.02.09.07.14.17.14.53.03 1.02-.09 1.5-.34.46-.25.82-.6 1.08-1.03.1-.18.27-.22.47-.1l.17.09c.19.1.22.23.11.4a2.4 2.4 0 0 1-.98.9c-.63.32-1.09.5-1.36.55a8 8 0 0 0-1 .21c-.06.02-.08.05-.08.1Zm8.44-2.86c.19 0 .2-.05.06-.16a.87.87 0 0 1-.33-.82c0-.04.03-.07.08-.08.41-.1.73 0 .95.32.07.09.1.24.07.45v.1c0 .07.02.1.1.11 2.15.03 4.39-.03 6.7-.19.21-.01.33.08.37.27l.04.19c.03.19-.05.29-.26.29l-4.65.07a.07.07 0 0 0-.07.04.06.06 0 0 0 0 .07c.35.6.8 1.18 1.33 1.72.1.1.2.1.31.03a30 30 0 0 0 1.82-1.26c.25-.19.48-.3.7-.35.2-.04.46-.03.76.04.06.01.1.04.11.1.05.2-.01.34-.2.42-.82.39-1.7.92-2.64 1.6-.12.1-.12.18 0 .27.8.65 1.68 1.1 2.65 1.38.36.1.5.33.44.69-.04.15-.11.26-.23.3-.2.1-.47 0-.81-.25-.13-.1-.23-.16-.29-.19-.9-.46-1.73-1-2.5-1.62a.15.15 0 0 0-.17-.02c-.45.22-.78.37-1 .45a41.05 41.05 0 0 1-4.3 1.41c-.4.1-.74.03-1.04-.23a.21.21 0 0 1-.07-.23c.03-.1.1-.15.19-.16l1.38-.25c.05 0 .07-.03.07-.08a.58.58 0 0 0-.04-.2.67.67 0 0 1-.05-.27c.02-.4.03-1.47.02-3.2 0-.08-.03-.1-.1-.1l-1.8.08c-.06 0-.1-.03-.11-.09-.07-.27.06-.44.39-.5.69-.14 1.4-.2 2.12-.15Zm.29 4.32c0-.18-.03-.44-.08-.79a4.96 4.96 0 0 1-.08-1.22c0-.52.04-.89.1-1.1a.86.86 0 0 1 .76-.61c.39-.06.78-.1 1.18-.11.1 0 .15.04.17.12.04.18.12.36.24.54.37.59.8 1.14 1.25 1.65.07.08.06.15-.03.21a4.3 4.3 0 0 1-1.13.58c-.63.22-1.4.47-2.32.77-.04.01-.06 0-.06-.04Zm2.36 2.22.08 1.58c0 .04-.02.06-.07.06-1.16.08-2.5.13-4 .16-.1 0-.27.05-.52.16a.12.12 0 0 0-.08.1 9.73 9.73 0 0 1-.52 2.19c-.03.07-.04.25-.05.55 0 .16.09.24.26.24l.4.01c.2 0 .28-.07.26-.23-.03-.44 0-.89.1-1.34.14-.63.37-.97.71-1.03.38-.06.67-.1.86-.1 2.35-.06 4.58-.08 6.7-.06.33 0 .52.15.58.44.05.23.08.69.08 1.38 0 .2.1.28.3.24l.2-.04c.2-.05.29-.17.28-.36l-.09-1.83c0-.1-.05-.17-.14-.22a2.18 2.18 0 0 0-1.03-.25c-1.21.01-2.37 0-3.48-.02a.2.2 0 0 1-.2-.12.2.2 0 0 1 .03-.22l.03-.04a.18.18 0 0 0 .04-.1l.14-1.08c.03-.24-.08-.37-.33-.4l-.15-.02c-.27-.03-.4.09-.39.35Zm-10.87 2.1c0 .04-.02.06-.06.06h-.03c-.57-.02-1 0-1.29.07-.52.1-.8.33-.83.67-.07.7-.07 1.47 0 2.32.02.37.1.65.2.81.15.21.39.35.73.4.38.08.75.13 1.09.17.2.03.3.14.3.34v4.35c0 .13.08.2.22.2.21 0 .4-.02.58-.09a.16.16 0 0 0 .1-.1.67.67 0 0 0 0-.4 195.45 195.45 0 0 0-.33-4.16c0-.18.08-.26.25-.27h1.43c.34 0 .59-.05.74-.16.17-.12.29-.33.34-.63.04-.22.05-.38.05-.5-.03-.62-.08-1.23-.13-1.82 0-.05 0-.1.02-.14.05-.13.03-.3-.06-.52l-.06-.13c-.12-.28-.33-.42-.65-.42l-1.77-.02c-.07 0-.1-.04-.1-.1v-1.04c0-.07.03-.1.1-.1H27c.17 0 .28-.1.32-.26a.37.37 0 0 0 .02-.08c-.03-.25-.17-.38-.4-.4-1.44-.06-2.81-.07-4.14-.03l-2.6.07c-.3 0-.5.14-.59.41-.02.05 0 .1.02.14.11.18.16.48.14.9-.05 1.37-.1 2.24-.12 2.62-.1 1.49-.41 2.93-.93 4.31-.16.41-.45.86-.88 1.34-.17.2-.15.38.06.54l.06.04c.2.15.36.12.5-.09.76-1.17 1.3-2.61 1.61-4.31.28-1.55.38-3.18.31-4.9 0-.14.06-.21.2-.22l2.64-.08c.1 0 .14.04.14.13v1.08Zm2.23 1.83c.16 0 .23.07.23.23v.13c0 .07-.05.14-.14.19a.68.68 0 0 1-.32.08l-3.17.07c-.2 0-.33.1-.38.26a.94.94 0 0 0-.01.5c.04.2.15.32.3.36.28.08.68.12 1.2.13.63.01 1.43 0 2.4-.03.27-.01.41-.16.41-.43v-2.32a.16.16 0 0 0-.1-.15c-.23-.1-.48-.15-.77-.16-.96-.02-1.93-.02-2.91 0-.32.01-.51.17-.57.47l-.05.28c-.09.27.02.4.33.4l3.55-.01Zm-10.33.69-.03-.14c0-.06 0-.1.02-.15.04-.1.05-.2.04-.3a.05.05 0 0 0-.03-.05l-.06.01-.1.09a.1.1 0 0 0-.02.07c0 .16.04.32.12.48.01.02.02.02.04.02s.02-.02.02-.03Zm17.4 3.61-.02-.05c-.04-.14 0-.16.11-.08.18.13.44.27.8.43.25.11.46.21.6.3a.1.1 0 0 1 .01.17c-.25.19-.5.36-.78.5-1.2.62-2.4 1.04-3.57 1.26-.25.05-.33.19-.22.42l.01.03c.11.24.3.34.58.29a9.61 9.61 0 0 0 4.69-2.17c.06-.06.13-.06.2-.01.73.52 1.29.92 1.68 1.18.54.37 1.08.66 1.62.87.18.07.32.03.42-.13l.3-.46c.1-.16.05-.26-.14-.3-.9-.15-2-.7-3.27-1.67-.05-.04-.05-.08-.02-.12l1.8-2.23c.05-.07.13-.11.22-.11h1.77c.14 0 .2-.07.2-.2v-.59c0-.13-.06-.2-.2-.2H34.4c-.07 0-.1-.03-.07-.1l.58-1.45c.1-.23 0-.36-.26-.39h-.07c-.3-.04-.5.08-.6.35l-.52 1.54a.24.24 0 0 1-.23.18l-3.45.29c-.1 0-.17.03-.2.07-.06.06-.07.15-.04.25.02.05.06.09.11.1.27.08.52.1.78.09.95-.07 1.68-.1 2.2-.1.08 0 .1.04.08.12-.11.32-.2.62-.25.9l-.03.36c-.01.24-.03.4-.06.51-.03.08-.02.14 0 .18.04.05.1.08.2.08.08 0 .11-.03.09-.1Zm6.4-2.52-1.35-.02a.05.05 0 0 0-.05.05c0 .03.02.06.05.06l1.35.01c.03 0 .06-.02.06-.05a.05.05 0 0 0-.05-.05Zm-5.4.47c.22-.07.4-.1.51-.1.84-.06 1.6-.05 2.3 0 .06 0 .1.02.12.06.02.04.02.08 0 .13a9.5 9.5 0 0 1-1.83 2.23c-.03.04-.07.04-.12.01l-1.23-.92c-.11-.08-.15-.2-.11-.33l.27-.99a.13.13 0 0 1 .09-.09ZM16.4 40.35c-.13-.2-.26-.57-.39-1.1-.01-.05.01-.08.07-.08.11 0 .23.03.37.05.3.07.63-.26.95-.96.13-.27.33-.66.62-1.17.27-.48.46-.85.58-1.1.1-.23.04-.39-.22-.47l-.05-.02c-.25-.08-.4 0-.48.25a6.4 6.4 0 0 1-1.56 2.67.08.08 0 0 1-.1.02.08.08 0 0 1-.05-.07l-.13-2.4c-.01-.31-.17-.45-.47-.4h-.02c-.3.02-.45.18-.45.48.02 1.65.08 2.95.2 3.88.11 1.03.76 1.68 1.93 1.94.81.18 1.85.17 3.12-.03a.9.9 0 0 0 .5-.28.23.23 0 0 0 .06-.26.24.24 0 0 0-.2-.16c-.37-.05-.92-.1-1.65-.12-.7-.03-1.24-.07-1.6-.11-.47-.06-.81-.25-1.03-.56Zm3.68-.54-.04-.02c-.2-.12-.23-.26-.06-.43l.18-.17c.24-.23.4-.42.5-.56.45-.66.77-1.39.98-2.19.05-.2.17-.26.37-.2l.14.05c.2.06.26.19.19.38a17 17 0 0 1-.72 1.64c-.3.58-.63 1.06-1 1.42-.16.17-.35.2-.54.08Zm5.46-3.44h-.04c-.22-.04-.3.06-.23.29.3.95.69 1.86 1.18 2.7.12.22.3.27.51.15l.17-.1c.2-.11.23-.26.08-.43a4.95 4.95 0 0 1-.77-1.02c-.17-.5-.32-.93-.45-1.26-.09-.2-.23-.32-.45-.33Z" fill="#EC0501"/></svg>