<?xml version='1.0' encoding='utf-8'?>
<!-- by TradeStack -->
<svg width="56" height="56" viewBox="0 0 56 56" xmlns="http://www.w3.org/2000/svg"><path fill="#F0F3FA" d="M0 0h56v56H0z" /><path d="M28 13c1.47 0 2.9.5 4.04 1.41h-8.08A6.47 6.47 0 0 1 28 13Zm4.43 1.74c.3.28.58.6.83.94H22.74c.25-.34.53-.66.83-.94h8.86ZM33.5 16c.18.28.33.7.46 1H22.03c.13-.3.28-.72.46-1H33.5Zm.63 1.34c.09.26.16.52.22.8H21.64a7 7 0 0 1 .22-.8h12.28Zm.3 1.26.06.72h-13c0-.24.03-.49.06-.72h12.88Zm.06 1.23-.07.64H21.57a6.08 6.08 0 0 1-.07-.64h13Zm-.18 1.2c-.05.2-.1.39-.17.58h-12.3a7.36 7.36 0 0 1-.17-.58h12.64Zm-.4 1.18c-.09.17-.17.34-.27.5h-11.3c-.1-.16-.18-.33-.26-.5H33.9Zm-.7 1.15c-.1.15-.22.3-.35.44h-9.74a6.68 6.68 0 0 1-.36-.44h10.46Zm-1.06 1.13c-.16.13-.32.26-.5.38h-7.33a7.88 7.88 0 0 1-.5-.38h8.33Zm-1.92 1.12a6.57 6.57 0 0 1-4.48 0h4.48ZM42 24.01c-8.29-.28-13 4.28-13 10.6V41h13V24.01ZM14 24.01c8.29-.28 13 4.28 13 10.6V41H14V24.01Z" fill="#FF1C25" /></svg>