<!-- by TradeStack --><svg width="56" height="56" viewBox="0 0 56 56" xmlns="http://www.w3.org/2000/svg"><path fill="#F0F3FA" d="M0 0h56v56H0z"/><path d="M16.92 15h1.6c5.36.34 10.1 3.76 11.44 8.96a9 9 0 1 1-.03 8.03c-2 5.67-6.13 8.68-12.4 9.01h-1.31c-1.6-.11-5.6-.93-6.22-2.48v-.28c.38-.78 1.6-.7 2.58-.63.33.02.64.04.88.03 8.68-.5 12.53-11.5 5.8-17.02a10.62 10.62 0 0 0-8-2.38c-.8.07-1.17-.86-.7-1.46.8-1.01 5.07-1.69 6.36-1.78Zm10.2 7.86a9.78 9.78 0 0 0-8.72-5.57c-.19 0-.2.04-.04.14 2.94 1.74 4.83 3.35 5.97 6.6 1.98 5.61-.67 11.46-5.75 14.5a.09.09 0 0 0-.04.11c0 .02.02.04.04.05a.1.1 0 0 0 .06.01c2.34-.46 4.36-.98 6.1-2.63 1.6-1.49 2.9-3.66 3.23-5.83.35-2.38.23-5.22-.85-7.38ZM38 35a7 7 0 1 0 0-14 7 7 0 0 0 0 14Zm4-7a4 4 0 1 1-8 0 4 4 0 0 1 8 0Z" fill="#1E2B81"/></svg>