<!-- by TradeStack --><svg width="56" height="56" viewBox="0 0 56 56" xmlns="http://www.w3.org/2000/svg"><path fill="#F0F3FA" d="M0 0h56v56H0z"/><path d="M35.33 20.17C27.73 12.03 19.28 10 16 10c1.87 1.21 5.86 5.2 2.58 13.31-3.28 8.11-2.58 11.75-.59 15.26 2 3.5 7.73 8.1 15.81 5.2 7.28-2.61 11.01-13.43 1.53-23.6Z" fill="#00873A"/><path d="M19.24 44.17c1.53 1.5 4.35.63 5.56 0-2.04-.76-3.7-2.2-4.28-2.83.51-1.43 2.4-4.18 3.28-5.37l1 1.5 6.11-11.77c-3.64.83-9.84 3.24-12.49 4.33l.82 1.89c-2.04 3.54-2.85 5.87-3 6.6l3 5.65Z" fill="url(#atq1ctxgr)"/><path d="M35.96 27.43a12.08 12.08 0 0 0 2.68-7.38l2.23 3.92c0 3.5-1.49 6.64-2.23 7.76l1.04 1.46c-5.35 3.32-10.36 4.62-12.2 4.85 4-4.18 6.67-10.25 7.52-12.76l.96 2.15Z" fill="url(#btq1ctxgr)"/><defs><linearGradient id="atq1ctxgr" x1="23.57" y1="25.7" x2="22.84" y2="43.32" gradientUnits="userSpaceOnUse"><stop stop-color="#FBF8FE"/><stop offset="1" stop-color="#3C3233"/></linearGradient><linearGradient id="btq1ctxgr" x1="39.9" y1="22.9" x2="29.58" y2="37.02" gradientUnits="userSpaceOnUse"><stop stop-color="#454641"/><stop offset="1" stop-color="#FAFBFB"/></linearGradient></defs></svg>