<?xml version='1.0' encoding='utf-8'?>
<!-- by TradeStack -->
<svg width="56" height="56" viewBox="0 0 56 56" xmlns="http://www.w3.org/2000/svg"><path fill="#F0F3FA" d="M0 0h56v56H0z" /><path d="m25.86 21 1.76 3.31 2.4-2.86-.28 3.76 3.53-1.08-2.21 3 3.54 1.05-3.46 1.3 2.43 2.84-3.6-.81.54 3.72-2.6-2.67L26.4 36l-.77-3.69-3.1 2.05 1.3-3.52-3.68.02 2.96-2.25L20 26.59l3.68-.26-1.55-3.42 3.23 1.82.5-3.73Z" fill="#99BA6A" /><path fill-rule="evenodd" d="M27.19 32.22a3.72 3.72 0 0 0 3.67-3.76 3.72 3.72 0 0 0-3.67-3.76 3.72 3.72 0 0 0-3.68 3.76 3.72 3.72 0 0 0 3.68 3.76Zm0 .26c2.17 0 3.93-1.8 3.93-4.02a3.97 3.97 0 0 0-3.93-4.02 3.97 3.97 0 0 0-3.93 4.02 3.97 3.97 0 0 0 3.93 4.02Z" fill="#fff" fill-opacity=".6" /><ellipse cx="27.19" cy="28.46" rx="2.36" ry="2.41" fill="#A3CB84" /><ellipse cx="27.19" cy="28.46" rx="1.24" ry="1.27" fill="#CEE3B8" /><path fill-rule="evenodd" d="M4 32v-7h2.94a3 3 0 0 1 1.38.4c.4.2.7.47.9.82.22.36.32.77.32 1.23A2.13 2.13 0 0 1 8.3 29.5c-.4.2-.86.3-1.41.3H5.72V32H4Zm2.57-3.5h-.85v-2.08h.85c.26 0 .47.04.65.13.18.08.31.2.4.36.1.15.14.33.14.54 0 .21-.05.4-.14.55a.92.92 0 0 1-.4.37c-.17.08-.39.13-.65.13Zm3.76 3.5v-1.27l2.6-2.18.5-.46c.13-.14.23-.29.3-.43a1.04 1.04 0 0 0-.02-.95.85.85 0 0 0-.35-.31 1.17 1.17 0 0 0-.52-.11c-.2 0-.37.03-.52.11a.83.83 0 0 0-.34.33c-.09.15-.13.32-.13.53h-1.63c0-.47.11-.87.33-1.2.22-.34.52-.6.92-.78.4-.19.85-.28 1.38-.28.54 0 1 .09 1.4.26.4.17.71.41.93.73.22.3.33.66.33 1.07 0 .26-.05.52-.16.77-.1.26-.3.54-.59.85-.28.3-.68.68-1.2 1.1l-.85.76v.04h2.89V32h-5.27Zm9.75-5.43c.18.13.29.32.3.57h1.66c0-.43-.12-.8-.35-1.12a2.2 2.2 0 0 0-.95-.75c-.4-.18-.88-.27-1.43-.27a3.7 3.7 0 0 0-1.45.27c-.42.17-.75.42-.99.74s-.36.69-.35 1.1c0 .53.17.94.53 1.24.35.3.84.52 1.45.66l.75.16c.26.06.47.12.64.2.17.06.3.14.37.23.08.1.13.2.13.33 0 .14-.05.26-.14.37a.86.86 0 0 1-.38.25c-.16.06-.36.09-.59.09-.25 0-.47-.04-.67-.12a1 1 0 0 1-.44-.33 1 1 0 0 1-.19-.55h-1.65c.01.54.14.98.38 1.32.25.35.6.61 1.04.78.44.17.96.26 1.55.26.6 0 1.1-.08 1.52-.25.43-.16.75-.4.97-.7.23-.31.34-.68.34-1.11a1.69 1.69 0 0 0-.57-1.32 2.53 2.53 0 0 0-.67-.44 4.45 4.45 0 0 0-.94-.3l-.6-.13a3.6 3.6 0 0 1-.45-.12c-.13-.04-.24-.1-.33-.15a.7.7 0 0 1-.2-.2.47.47 0 0 1-.07-.28c0-.12.04-.23.11-.32.08-.1.19-.18.34-.23.15-.06.33-.09.55-.09.34 0 .6.07.78.2ZM33 32v-7h1.66v5.63h3.11V32H33Zm7.25 0H38.4l2.4-7h2.3l2.4 7h-1.85l-.47-1.47h-2.46L40.25 32Zm1.72-5.24.8 2.49h-1.64l.79-2.49h.05ZM46.4 25v7H48v-2.4h.92l1.3 2.4H52l-1.48-2.66c.4-.18.7-.44.91-.77.22-.34.33-.75.33-1.24 0-.48-.1-.9-.32-1.24a2.07 2.07 0 0 0-.9-.8 3.12 3.12 0 0 0-1.38-.29h-2.77ZM48 28.27h.79c.26 0 .47-.03.65-.1a.82.82 0 0 0 .4-.3c.09-.14.13-.32.13-.54 0-.22-.04-.4-.13-.54a.81.81 0 0 0-.4-.32 1.7 1.7 0 0 0-.65-.1H48v1.9Z" fill="url(#ansrpkvhi)" /><defs><linearGradient id="ansrpkvhi" x1="28" y1="25" x2="28" y2="32" gradientUnits="userSpaceOnUse"><stop stop-color="#96B56B" /><stop offset="1" stop-color="#679331" /></linearGradient></defs></svg>