<?xml version='1.0' encoding='utf-8'?>
<!-- by TradeStack -->
<svg width="56" height="56" viewBox="0 0 56 56" xmlns="http://www.w3.org/2000/svg"><path fill="#F0F3FA" d="M0 0h56v56H0z" /><path d="m18.95 11.06-.35-.01c-.04 0-.08 0-.11.03-.1.07-.11.15-.07.24.03.05.07.09.12.12.38.21.7.46.96.75.04.05.08.07.14.08.07 0 .12.04.14.11.06.18.18.29.36.33.08.02.15.07.19.14a24.1 24.1 0 0 0 .6 1.05c.35.67.58 1.34.7 2 .09.43.1.94.03 1.53 0 .06-.03.14-.08.24a.64.64 0 0 0-.07.29c0 .14 0 .27-.04.4-.1.37-.2.73-.33 1.08l-.26.71-2.07 4.98a.83.83 0 0 1-.26-.4c1-2.3 1.66-3.88 2.01-4.78.73-1.9.87-3.53.43-4.9-.42-1.35-1.43-2.58-3.03-3.68-.28-.2-.25-.3.09-.35a3 3 0 0 1 .9.04Z" fill="#554446" /><path d="M18.95 11.06c3.4.36 5.76 1.63 7.09 3.82 1.26 2.07 1.6 4.94 1.05 8.6-.08-.14-.11-.34-.1-.62 0-.04 0-.07-.02-.1-.02-.06-.06-.08-.12-.08a.18.18 0 0 1-.16-.1l-.19-.36a.28.28 0 0 0-.15-.13c-.22-.08-.43-.2-.62-.34l-2.34-1.74a.6.6 0 0 1-.21-.3.29.29 0 0 0-.12-.15 6.72 6.72 0 0 1-1.38-1.27c-.06-.07-.08-.06-.06.03.02.1 0 .16-.08.2a.24.24 0 0 0-.1.13l-.3.8c.13-.36.24-.72.33-1.08.03-.14.05-.27.04-.41 0-.08.02-.17.07-.29.05-.1.07-.18.08-.24a5.2 5.2 0 0 0-.02-1.54 7.36 7.36 0 0 0-.73-2.03l-.58-1a.27.27 0 0 0-.2-.15.46.46 0 0 1-.34-.33.16.16 0 0 0-.15-.11.21.21 0 0 1-.14-.08 3.7 3.7 0 0 0-.96-.75.28.28 0 0 1-.12-.12c-.04-.1-.02-.17.07-.24a.16.16 0 0 1 .11-.03l.35.01Z" fill="#BE2734" /><path d="M27.86 14.87a14.31 14.31 0 0 1 .78 5.33l.02 1.16c-.1.27-.15.55-.13.85 0 .05-.02.1-.06.15l-.04.03c-.08.08-.12.06-.12-.04l-.01-.57a14.2 14.2 0 0 0-.84-6.75c-.05-.12-.01-.2.11-.25.14-.06.23-.03.29.09Z" fill="#554446" /><path d="M27.86 14.87a14.42 14.42 0 0 1 2.84 4.83c.7 2 1.13 4.08 1.29 6.21l-.04.27c0 .11-.04.12-.09.02l-.04-.08c-.02-.06-.04-.05-.05 0v.06c.01.12 0 .12-.07.02l-.21-.38a.32.32 0 0 0-.13-.12 3.77 3.77 0 0 1-1.07-.86 1.38 1.38 0 0 0-.4-.32 1.36 1.36 0 0 1-.36-.26c-.1-.1-.27-.2-.5-.26a1.92 1.92 0 0 1-.33-.12c-.05-.02-.08-.06-.07-.11l.04-.63c.07-1.18.06-2.17-.03-2.94a14.31 14.31 0 0 0-.78-5.33Z" fill="#2B61A0" /><path d="m27.09 23.48-.16 1.66a42.21 42.21 0 0 0-3.64-3.46 12.21 12.21 0 0 0-2.02-1.3 1.54 1.54 0 0 1-.4-.23l.27-.7.3-.8c.01-.05.05-.1.1-.12.08-.05.1-.12.08-.21-.02-.1 0-.1.06-.03.4.5.87.91 1.38 1.27.06.03.1.08.12.15a.6.6 0 0 0 .2.3c.75.54 1.53 1.12 2.36 1.74.18.15.39.26.61.34.07.03.12.07.15.13l.19.36c.03.07.09.1.16.1.06 0 .1.02.12.07l.02.1c-.01.29.02.5.1.63Z" fill="#B84750" /><path d="M31.49 18.51c.01.39.09.75.22 1.09.25.62.39.96.4 1.02.23.84.43 1.68.6 2.51-.13.07-.25.08-.36.02-.3-1.55-.76-3.07-1.38-4.55a.25.25 0 0 1 0-.21c.04-.09.12-.11.24-.08.18.05.27.12.28.2Z" fill="#554446" /><path d="M31.49 18.51a18.9 18.9 0 0 1 3.9 6.16c.39 1.04.77 2.27 1.17 3.7.13.5.33.93.6 1.32.24.34.52.5.86.5.34-.02.6-.22.8-.6v.3a.2.2 0 0 1-.09.15c-.07.06-.1.14-.07.23.01.06 0 .1-.03.15a.34.34 0 0 0-.07.26c.03.29-.12.59-.47.9-.02-.17 0-.3.07-.38.07-.07.05-.14-.04-.2-.3-.18-.61-.3-.94-.37a.3.3 0 0 1-.19-.12l-.23-.31c-.04-.06-.05-.05-.04 0 .01.03.01.05 0 .07 0 .08-.03.09-.07.02a1.57 1.57 0 0 0-.57-.58 2.86 2.86 0 0 1-.87-.9 1.5 1.5 0 0 0-.24-.25.78.78 0 0 1-.24-.31.33.33 0 0 0-.12-.15l-.51-.35a.34.34 0 0 1-.11-.13c-.13-.25-.32-.38-.57-.4-.06 0-.1-.04-.1-.1 0-.1-.04-.15-.11-.13a26.33 26.33 0 0 0-.5-3.86c-.17-.83-.37-1.67-.6-2.5-.01-.07-.15-.41-.4-1.03-.14-.34-.21-.7-.22-1.09Z" fill="#BE2734" /><path d="M20.88 20.15c.1.1.24.17.4.24.17.07.31.14.4.2l.42.27c.56.35.95.62 1.2.82a35.25 35.25 0 0 1 3.63 3.46l-.48 2.88a96.15 96.15 0 0 0-1.11 8.01l-.06-.58c0-.04-.02-.05-.06-.05l-.2.02c-.04 0-.05.02-.05.05.02.3-.05.59-.22.85-.03.04-.04.03-.03-.01a.1.1 0 0 0 0-.06c-.03-.05-.05-.05-.08 0-.02.04-.06.06-.1.05-.07 0-.12.02-.15.08l-.04.08c-.04.08-.08.09-.13 0a.2.2 0 0 0-.14-.1.3.3 0 0 0-.17 0c-.62.23-1.27.44-1.94.64-.41.12-.85.2-1.31.26-.47.06-.92.15-1.34.28a.38.38 0 0 0-.14.08l-.1.09a.22.22 0 0 1-.19.05.63.63 0 0 0-.38.04c-.06.03-.1.01-.1-.06-.02-.09-.07-.13-.15-.13-.06 0-.1.02-.13.06-.03.04-.04.1-.02.17a12.35 12.35 0 0 1-.87-4.38c-.05-2.92.47-5.7 1.57-8.33l2.07-4.98Z" fill="#9C121E" /><path d="M28.64 20.2a16.54 16.54 0 0 1-.01 3.57c0 .05.02.09.07.11.07.04.18.08.32.12.24.07.4.15.51.26.1.1.22.19.35.26.16.08.3.18.41.32.3.35.66.63 1.07.86.06.03.1.07.13.12l.21.38c.06.1.08.1.07-.02v-.06c.01-.05.03-.06.05 0l.04.08c.05.1.08.1.1-.02l.03-.27.33 4.4-4.04-3.86c-.05-.05-.09-.04-.12.02l-.16.3.66-5.4-.02-1.17Z" fill="#5471A3" /><path d="m28.66 21.36-.66 5.4c-.1.7-.26 1.67-.5 2.9-.34 1.8-.6 3.75-.76 5.82a13 13 0 0 0 .11 3.1c.13.95.33 1.66.62 2.15.48.82.9 1.4 1.25 1.73.5.48 1.3.99 2.38 1.52a5.68 5.68 0 0 1-4.03-3.25 7.63 7.63 0 0 1-.75-2.92c-.1-1.79 0-3.44.32-4.96.09-.42.15-.83.18-1.24.02-.39.17-.7.43-.97a.21.21 0 0 0 .07-.18l-.08-.9c-.03-.28-.01-.58.04-.88.4-2.3.73-4.6 1.02-6.9v.57c.01.1.05.12.13.04l.04-.03c.04-.05.06-.1.06-.15-.02-.3.03-.58.13-.85Z" fill="#A9B0B5" /><path d="M32.7 23.13c.27 1.3.44 2.58.5 3.86l.43 4.54c.21 1.17.47 2.16.77 2.97.48 1.33 1.52 2 3.1 2.03-.72.16-1.4.09-2.02-.23-.59-.3-1.04-.78-1.35-1.42a7.57 7.57 0 0 1-.53-1.77c-.02-.08-.06-.2-.13-.36-.09-.2-.13-.35-.13-.46-.01-.24-.04-.5-.09-.75a1.72 1.72 0 0 1 0-.48c.03-.27.01-.48-.05-.62a1.3 1.3 0 0 1-.11-.4c-.05-.44-.12-.9-.22-1.38a4.87 4.87 0 0 1-.08-1c.01-.63-.02-1.24-.1-1.82l-.34-2.69c.11.06.23.05.35-.02ZM18.55 24.72c.07.19.15.32.26.4a20.36 20.36 0 0 0-1.57 8.34c.03 1.55.32 3 .87 4.38.78 1.95 2 3.55 3.66 4.82.15.11.27.23.35.36.04.06.09.1.15.13.17.07.26.17.26.29a11.01 11.01 0 0 1-4.5-5.06c-.2-.45-.42-1.15-.65-2.1l-.17-.69a3.53 3.53 0 0 1-.12-.82c0-.18-.02-.37-.04-.58a9.13 9.13 0 0 1-.04-1.15v-1.87c.11-2.22.63-4.37 1.54-6.45Z" fill="#CFC1C2" /><path d="m32.32 30.32.18 1.97a2.7 2.7 0 0 0 0 1.59c.08.23.12.46.12.66.02.21.05.4.11.54.1.26.2.52.27.78.08.29.23.55.45.78.05.05.08.1.1.16.05.19.17.28.35.3a.1.1 0 0 1 .08.05c.03.06.08.1.15.12.07.02.12.07.15.14l.06.17c.01.04.04.05.07.05.03 0 .04-.02.05-.03.02-.03.03-.03.03 0v.02c0 .06-.01.07-.06.03-.04-.04-.08-.04-.13 0a.31.31 0 0 1-.3.07c-.16-.05-.4 0-.71.15-.17.08-.3.13-.38.15a13.36 13.36 0 0 1-2.78.43l-.45.08-.98.06c-.15 0-.3.04-.46.1-.28.11-.64.04-1.07-.2l-.01-.02a.2.2 0 0 0-.12-.22c-.09-.04-.14-.02-.15.08l-.04.26a13 13 0 0 1-.11-3.1c.17-2.08.42-4.02.76-5.83.24-1.23.4-2.2.5-2.9l.16-.3c.03-.05.07-.06.12-.01l4.04 3.87Z" fill="#224689" /><path d="M33.2 26.99c.08-.02.12.02.12.13 0 .06.04.1.1.1.25.02.44.15.57.4.02.05.06.1.11.13l.51.35c.06.04.1.09.12.15.05.12.13.22.24.3a1.5 1.5 0 0 1 .33.38c.3.4.55.65.78.78.23.14.42.33.57.58.04.07.07.06.08-.02v-.06c-.02-.06 0-.07.03-.01l.23.3c.05.07.1.1.18.13.34.07.65.2.95.37.1.06.1.13.04.2-.07.08-.1.2-.07.38-.53.7-1.2.96-2 .8a6.5 6.5 0 0 1-2.2-.93.32.32 0 0 1-.13-.16c-.04-.1-.08-.1-.12 0a.43.43 0 0 0-.01.24l-.42-4.54Z" fill="#B84750" /><path d="M37.5 36.53c-1.58-.03-2.62-.7-3.1-2.03-.3-.81-.56-1.8-.77-2.97a.43.43 0 0 1 .01-.24c.04-.1.08-.1.12 0 .02.07.06.12.13.16.74.48 1.48.79 2.2.93.8.16 1.47-.1 2-.8.35-.31.5-.61.47-.9a.34.34 0 0 1 .07-.26c.03-.05.04-.1.03-.15-.03-.1 0-.17.07-.23a.2.2 0 0 0 .08-.16l.02-.3.1-.34c.05-.13.1-.14.16 0 .68 1.41.98 2.88.9 4.41-.1 1.57-.92 2.53-2.49 2.88Z" fill="#820912" /><path d="M32.5 32.3c.1.9.27 1.77.5 2.61.23.87.55 1.5.96 1.93a3.83 3.83 0 0 0 3.07 1.06 3.3 3.3 0 0 0 2.58-1.12c.06-.06.1-.05.11.03v.1c-.6 2.1-1.6 3.83-3.02 5.2-1.67 1.62-3.54 2.24-5.6 1.87a10.02 10.02 0 0 1-2.38-1.52c-.36-.33-.77-.9-1.25-1.73-.29-.49-.5-1.2-.62-2.14l.04-.26c.01-.1.06-.12.15-.08a.2.2 0 0 1 .12.22v.01c.44.25.8.32 1.08.21.16-.06.31-.1.46-.1l.98-.06a23.79 23.79 0 0 1 .74-.11c.52 0 1.35-.14 2.49-.4.08-.02.2-.07.38-.15.31-.15.55-.2.71-.15.11.03.21 0 .3-.07.05-.04.1-.04.13 0 .05.04.07.03.06-.03v-.01c0-.04-.01-.04-.03-.01l-.05.03c-.03 0-.06-.01-.07-.05l-.06-.17a.25.25 0 0 0-.15-.14.25.25 0 0 1-.15-.12.1.1 0 0 0-.08-.06c-.18 0-.3-.1-.36-.29a.4.4 0 0 0-.09-.16 1.87 1.87 0 0 1-.45-.78 8.74 8.74 0 0 0-.27-.78c-.06-.15-.1-.33-.1-.54-.01-.2-.05-.43-.12-.66a2.7 2.7 0 0 1 0-1.59Z" fill="#243677" /><path d="M25.34 36.03c-.1 1.45 0 2.88.32 4.29.26 1.2.84 2.22 1.72 3.07a6.29 6.29 0 0 0 1.98 1.59c-2.48.13-4.76-.38-6.83-1.54 0-.12-.1-.22-.26-.3a.33.33 0 0 1-.15-.12 1.5 1.5 0 0 0-.35-.36 11.2 11.2 0 0 1-3.66-4.82c-.02-.07 0-.13.02-.17a.14.14 0 0 1 .13-.06c.08 0 .13.04.14.13 0 .07.05.09.1.06a.63.63 0 0 1 .4-.04c.06 0 .12 0 .17-.05l.1-.1a.38.38 0 0 1 .15-.07c.42-.13.87-.22 1.34-.28.46-.05.9-.14 1.31-.26.67-.2 1.32-.4 1.94-.63a.3.3 0 0 1 .17-.01.2.2 0 0 1 .14.1c.05.09.09.08.13 0l.04-.08c.03-.06.08-.09.14-.08.05 0 .09 0 .11-.05.03-.05.05-.05.07 0a.1.1 0 0 1 0 .06c0 .04.01.05.04 0 .17-.25.24-.54.22-.84 0-.03.01-.05.04-.05l.2-.02c.05 0 .07.01.07.05l.06.58Z" fill="#820912" /><path d="M39.72 36.92a.19.19 0 0 0 0-.1c-.01-.09-.05-.1-.1-.04a3.3 3.3 0 0 1-2.6 1.12 3.48 3.48 0 0 0 2.41-1.5c.05-.07.11-.11.2-.12.1-.02.17 0 .21.07.03.04.04.1.03.15a1.5 1.5 0 0 1-.15.42Z" fill="#CFC1C2" /><path d="M27.38 43.39c.4.19.79.39 1.16.59.2.12.37.26.49.42.13.19.24.38.33.58-.86-.47-1.52-1-1.98-1.59Z" fill="#554446" /></svg>