<!-- by TradeStack --><svg width="56" height="56" viewBox="0 0 56 56" fill="none" xmlns="http://www.w3.org/2000/svg"><path fill="#F0F3FA" d="M0 0h56v56H0z"/><path d="M15.88 19.07c.43.15.34.13.52.45 1.78 3.12-1.15 3.24-.52-.45Zm.45 15.31c1.91-.5 2.9-4.95 4.21-9.84a53.94 53.94 0 0 1 2.27-6.93c-.02-.02-.04-.07-.06-.04-.01.02-.05-.08-.25-.12-.2-.04-.26.01-.4.08l.83-1.3c-.75 0-.97.13-1.55.16.01-.46.28-1.22.33-1.44-.9.2-2.04.64-2.67 1.3l-.23.26c-.29.34-.66.73-.77 1.18-.4-.28-.37-.62-.82-.72-.11.52-.5.87-.64 1.45-.03.11-.07.66-.12.75-.17.31.02.13-.33-.14-.1-.08-.12-.08-.2-.13-.24.35-.41.69-.41 1.29h-.16c-.03-.31-.21-.65-.49-.72l-.33 1.21c-.04.13-.1.37-.15.5-.17.8-.1 1.12.07 1.82-.21-.07-.17-.17-.41-.32-.1.2-.2 1.4-.2 1.7l.17 1.2.02.04.1.27c-.25-.12-.57-.12-.82-.24 0 .74.21.8.37 1.56.32 1.45.41 1.2.52 1.66-.2-.1-.37-.14-.57-.23a4.5 4.5 0 0 0 1.16 2.46l.32.25c.16.13.2.18.3.34-.7-.06-.42.02-1.13.07l.33.4c.49.5.85 1.05 1.44 1.47.46.34.34.13.68.61-.28.01-.24 0-.41.14Z" fill="#636466"/><path d="M14.86 38.32c-.17.07-.28.1-.44.2-.37.24-.05.18-.45.22-.21.25-.32.26-.55.47A7.8 7.8 0 0 0 12 41c.15.12.98.67 1.23.8.32.19.69.51 1 .67.36-.4.8-2 2.5-2.83.68-.32 1.08-.29 1.38-.47-2.3-.15-3.15-.48-.8-.9-.24-.18-.18-.1-.56-.18a4.9 4.9 0 0 0-1.07-.01c-.41.06-.47.2-.82.23Z" fill="#842218"/><path d="M29.8 44.92a22.9 22.9 0 0 0 6.29-1.66c.68-.28 2.03-.92 2.58-1.4.37-.32.76-2.21-1.04-1.91-.43-.02-1.03-.03-1.48.02-.26.47-.42.58-.96 1.12-.8.32-1.6.62-2.53.71l-2.82.45c-.53.03-1.16.11-1.7.11-.57 0-1.13-.1-1.7-.09l-3.08-.47a8.45 8.45 0 0 1-2.1-.56c-.65-.15-1.14-.77-1.43-1.27h-1.96c-.33 0-.4-.08-.5.2.12.11.15.02.01.17-.02.92-.86 1.14.76 2.02a20.58 20.58 0 0 0 11.65 2.56Z" fill="url(#altpjbez2)"/><path d="M33.52 17.6c2.66 4.3-1.5 12.8 2.29 17.2-.72.21 2.43-.72 3.82-.5l-.16-.07c1.42-1.06 1.5-1.38 1.83-1.8.22-.27.43-.4.62-.68-.26-.02-1.14 0-1.14-.23.45-.12.95-.77 1.18-1.18.3-.52.46-1.1.62-1.72-.16.08-.48.2-.65.24.37-.55 1.03-2.91.9-3.21-.22.1-.49.13-.73.24.44-1.87.23-1.58.08-3.21h-.15c-.08.28-.03.18-.24.32.09-1.14.33-1.07-.17-2.64-.1-.29-.23-.59-.24-.98-1.07.7-.07 1.36-1.06-.48-.24.11-.45.11-.56.23-.13-.26-.06-.62-.2-1-.09-.22-.18-.34-.29-.54-.2-.35-.23-.28-.26-.62-.42.1-.52.5-.82.72-.12-.51-1-1.43-1.4-1.75a6.36 6.36 0 0 0-2.26-1c.06.26.17.52.2.7.02.18.06.5.11.74-.54-.04-.9-.15-1.54-.15.25.46.56.82.82 1.29-.3-.07-.27-.08-.65-.08l.05.17Z" fill="#636466"/><path d="M16.26 24.75c.03.22.08.08-.1.2l-.11-.17c.12-.15.06-.07.2-.03Zm-.46-1.79c0 .15-.07.4-.12.66-.07.32-.06.53-.02.88l-.38-.31.13.3c.08.1.23.26.32.34l-.07.01h-.02l-.45.29-.15.12c-.01 0-.04.05-.05.04-.01-.02-.04.02-.05.03l-.15-.39c-.04.1.07.34.1.55-.26.16-.1.14-.42.22.06.26.03.13.04.32l.15.13.04.03.04.04c.17.26.18.19.55.43l.06.04.18.13c0-.3.07-.97.2-1.17.26-.38.05-.14.36-.18.16-.03.09.02.24-.13 0 0 .07-.16.09-.17.12.4.4.68.5 1.1.2.27.28.74.28 1.1.17.13.14.4.17.64.24.34.15 1.13.28 1.52 0 .32.08.17-.16.33.01.03.04.03.05.07.02.04.04.04.06.05.09.06.1.08.2.13l.09-.48c-.02-.36-.02-.56.06-.89.15-.53.17-.43.36-.8v-.07c-.33.15-.53.44-.58.9 0 0 .13.11.01-.38-.05-.21-.08-.26-.13-.45-.1-.3-.19-.62-.25-.87-.17-.64.42-.89.53-1.47l.22.15.03-.22-.15-.17c-.17.04-.13.06-.25.12-.36.2.15.13-.1.07-.04-.1-.02.02 0-.13l.06-.34-.1.26-.04.05-.22.12-.04-.02-.26-.1c-.07.22 0 .12-.13.33-.04-.1-.39-.5-.2-.5-.03-.72.22-.94.45-1.47-.21.01-.12-.08-.25.02v.13l-.27.46c-.13.25-.12.08-.14.46.01-.02.2.06-.03-.23-.12-.14-.36-.24-.57-.02l.03.01c-.15-.1-.1-.31-.1-.56 0-.17-.02-.39.06-.48.01-.7.25-.7.32-1.15-.3.22-.33.25-.41.57Z" fill="#848688"/><path d="M27.25 11.99c.64-.82 1.28-2.48-.9-2.9v.16c-.26-.13-.46-.03-.63.1l-.18.15c-.38.36-.23.09-.88.16-.9.09-1.28.8-1.48.99-.14.32-.19.44-.24.84.2.15.87 1.4.96 1.37l3.35-.87Zm4.05.73c.99.55 1.43-.37 1.22-.64.22-.43.29-.2.47-.57l-.04-.24c-.01-.32-.08-.39-.16-.64-.22-.11-.13-.11-.27-.28l-.35-.3c-1.15-.73-1.11.06-1.8-.56-.6-.55-.67.03-.75-.38-2.6.62-1.84 2.54-.64 3.05.5.2.85-.03 1.27-.1-.04.27 1 .65 1.05.66Z" fill="url(#bltpjbez2)"/><path d="M35.68 40.22h-.21c-.28.12-.38.21-.67.33l-5.27 1.13c-.03.07-3.02.3-3.06 0a26.2 26.2 0 0 1-3.08-.5l-.37-.1c-.32-.07-.53-.14-.82-.23l-1.48-.63h-.16l-.23.06c1.35 1.08 5.55 1.72 7.64 1.72 1.6.02 7.05-.65 7.7-1.78Z" fill="#010101"/><path d="m33.63 17.6.95.88c.89.68 2.23 2.18 2.42 3.1l.03-.06.06-.13c.02-.03.1-.22.1-.25.13-.43-.2-.57-.36-1.42-.23-.05-.4-.12-.6-.22-.57-.32-.43-.22-.62-.1.1-.4.27-.03-.16-.49-.26-.29-.04-.26-.46-.56-.13-.01-.07.07-.19-.03l.35-.54c-.06-.08-.52-.15.6-.03l-.76-.57c.53.18.8.48.82.44.01-.01.04.03.06.04l-.26-.67c.32.06.1.13.37-.03a5.3 5.3 0 0 0-2.35-.55c.16.44.7.98.87 1.25.16.23.13.22.36.47-.03-.01-.06-.07-.07-.04-.05.06-.2-.3-.46-.4a1.5 1.5 0 0 0-.7-.08Z" fill="#D6D6D6"/><path d="M39.95 22.34c.45.89.6.78.49 2.18l.3-.2.07-.03c.18-.02.1.04.24-.13a.58.58 0 0 0 .08-.15c.09-.25 0 .2.04-.18 0-.03.04-.1.05-.12 0-.02.01-.05.03-.07v-.06c.02-1.12.14-.28.09-.78-.04-.42-.16-.3-.03-.81.13-.5.05-.02-.01-.33l-.03-1.38c.05-.26-.04-.04.08-.17l-.12-.4c-.21.3-.45.8-.67 1.25-.32.6-.5.71-.61 1.38Z" fill="#A5A5AD"/><path d="m19.98 39.82.05.27.05.07c.17 1.4 6.08 2.04 7.8 2.05 1.45.02 3.11-.13 4.51-.35 1.43-.23 3.31-.42 3.75-1.87l-.28-.04c-.66 1.11-6.26 2.01-7.86 2-2.1-.01-6.3-.58-7.65-1.66l.22-.05c.23-.15.1-.1.16 0 .3-.12.04.08.42-.08a2.6 2.6 0 0 0-.83-.6c-.15.2-.12.08.04.34l-.38-.08Z" fill="#9E3424"/><path d="M22.17 43.76c1.8.47 3.1.8 5.08.92 2.04.12 3.63-.24 5.5-.58 1.06-.43 2.04-.6 3.57-1.26.22-.09.36-.15.56-.26l.49-.33c-.64.09-1.32.6-2.06.8-.16.12-1.97.75-2.41.75-.5.28-2.4.65-3.03.54-.62.25-3.81.19-4.4-.07a8.19 8.19 0 0 1-2.36-.46c-.55-.08-1.94-.44-2.27-.77-.41-.01-1.87-.72-2.3-.9.26.5 3.2 1.46 3.63 1.62Z" fill="#FADC63"/><path d="M18 22.05c.18-.02.08.08.22-.09.14-.18.05.03.06-.26-.43.04-.06.03-.24-.16.15 0 .08.07-.05-.24l-.02-.04c-.04-.15.04-.3.14-.51.16-.31-.05-.08.28-.33-.32-.58.3.4-.1-.1-.06-.07-.05.02-.1-.16l-.07-.48c-.34 0-.05-.12-.33.12l-.1-.03c.1-.14-.03.12.1-.16-.1.15-.3.3-.42.42.01-.4-.04-.57.1-.88l.26-.55c-.16.12.04-.03-.1.13l-.1.1-.13.12c.02-.2.06-.42.06-.63l-.09-.48c-.07.1-.04.01-.08.18l.03 1.06c-.3-.04-.17-.8-.17-1.25l-.14.06c-.2.15-.25.38-.31.64-.18.73-.02.42.11.75.23.53-.2.07 0 .63.07.25.2.47.26.75.3.13-.03-.21.29 0-.21.39-.44.62-.04 1.16l.37.35c.2-.14.14-.1.3-.12Z" fill="#B5B5BD"/><path d="m17.87 29.64-.08.48c.02.2-.05 0 .15.18l.58.49c.3.02-.01-.1.16.07.1.1.03.03.1.14.16.28-.13.06.26.32l.1.25c.27.5.24.59.54.77.11.27.7.35 1.37.56-.17-.38-.06-.16-.41-.44l-.57-.72c-.1-.15-.17-.22-.28-.37l-.95-1.65c-.08.05.01.28-.17-.12-.04-.06-.1-.29-.15-.38l-.1.46-.22-.54a.14.14 0 0 0-.02.07.1.1 0 0 1-.03.05c-.25.46-.21.1-.28.38Z" fill="#949494"/><path d="M38.41 32.83c-.09.07-.13.07-.2.17-.11.17-.05.02-.11.26-.1.21-.62.5-.73.76-.1.23-.03 1.16-.05 1.4.37.1.17.09.5.02.42-.1.07-.18.49-.03v-.3l-.35.02c.18-.08.07-.03.18-.1l.16-.16-.35-.24c.35 0 .35-.02.58-.15l.45-.28-.06-.15c-.1-.3.2-.12-.06-.51.3.06.27.04.37-.03-.23-.09-.22-.05-.4-.23.27-.19.55-.38.85-.4-.2 0-.5.15-.83.19.04-.3.07-.43.24-.59-.21-.17.29.03-.07.03-.22 0 .16.25-.09-.03.27-.25.07-.06.05-.26-.35.08-.09-.1-.35.27-.07.1-.14.17-.22.34Z" fill="#9C9C9C"/><path d="m37.37 29.54-.42.92c-.5.74-.3.73-1.1 1.66l-.1.13c-.28.36-.1.34-.6.64.22-.04.35-.08.58-.17.3-.1.3.07.25-.3.15.22.1.11.52.06.23-.2.06-.01.22-.31.1-.21.05-.21.21-.33l.16-.34c.03-.04.23-.32.23-.34.16-.2.34-.35.5-.52.1-.08.1-.05.14-.1.16-.18.07.08.11-.18.1-.43.24 0 .32-.53.04-.24-.03-.5-.07-.75l-.04.5c-.28.14.27 0-.1-.02-.14-.01-.04-.05-.16.03.05-.34.04-.3-.06-.42l-.2.5-.13-.46c-.05.32 0 .46-.26.32ZM38.81 27.88c-.34.5-.25 1.38-.34 2 .34-.12.3-.28.7-.3l.38-.16c.28-.18.19-.22.33-.18.1.16.03.07.23.16l.32.1.25-1.23c-.22-.23-.1-.23-.18-.47-.11.1-.2.25-.3.31-.18.13-.07-.26-.21.16l-.07-.56c-.16.03-.18.48-.22.64l-.2-.21c-.15-.1-.19-.22-.3-.38-.15.31.2.16-.11.3-.32.12-.24-.09-.28-.18Z" fill="#94949C"/><path d="M21.26 41.27c.45.23 1.56.5 2.1.56l3.08.47c.56 0 1.13.1 1.7.09.54 0 1.17-.08 1.7-.12l2.82-.44c.93-.1 1.73-.4 2.53-.72.53-.26.69-.36.96-.83-.06-.08.04-.25-.18 0-.66.88-2.16 1.2-3.59 1.43-1.4.22-3.03.47-4.47.46-1.74-.02-7.64-.62-7.82-2l-.23.04c.27.48.75.89 1.4 1.06Z" fill="#FFE867"/><path d="M25.89 14.62c-.37.25-.91.31-1.23.65L26.6 15c1.22-.1 2.7.04 3.88.22.36.05.54.13 1 .13-.23-.22-.45-.26-.8-.4-.32-.13-.6-.16-.85-.33-.63-.01-1.22-.23-2.01-.23-.77 0-1.34.2-1.93.23ZM15.56 27.81c.04.16.06.12-.1.12-.07.43.11 1.3.36 1.57-.02-.19.16-.1.4-.08l-.01-.43a.3.3 0 0 1 .05.01l.05.01c.39.16.3.21.32.37.1.23.63.5.82.52.24-.14.16-.01.16-.33-.15-.39-.05-1.18-.28-1.52-.34-.12.46.31-.26-.24a.75.75 0 0 0-.11-.06c-.57.62-.49.69-.49.69l.01.04-.1-.48c-.16.15-.19.2-.21.47.05-.16-.4-.58-.61-.66Z" fill="#94949C"/><path d="M14.86 23.7c.09.2 0 .09.16.28l.25.21.38.31c-.03-.34-.05-.56.01-.88.06-.28.12-.51.12-.66l-.09-.13-.03-.03-.05-.07-.03-.04.08-1.5c0-.3-.33-1-.63-1.21-.19.31-.05 1.29-.05 1.72-.04.26 0 .03-.08.1l-.04.03-.04.03c0-.02-.03.01-.04.02.42.55.02.95.02.95.16.3.22.25.22.72.04.2.15.05-.16.16Z" fill="#9CA5A5"/><path d="M19.8 19.29c-.1.25 0 .2-.22.08.03-.19.08-.13.21-.08Zm-1.04-1.6-.12.18c-.1.23-.01-.18-.04.18-.12.38-.15.22-.26.48-.15.33-.08.4-.11.76.16.14-.08.06.26.09.15-.1.73-.48.97-.5-.01.4-.32 1.16-.46 1.52-.33.83-.14.58-.56.97-.25.24-.2-.06-.16.32.2-.12.48-.29.62-.4l.12.46.16-.2c-.33-.63-.12-.75.04-1.2.19-.58.28-.67.86-.84-.05-.2.03-.05-.06-.29-.12-.28-.32-.23-.32-.23 0-.05-.24-.35.69-.44l.02-.13-.24.09c-.2.17-.45.13-.75.17.1-.2.08-.17.23-.4-.4.21-.2.16-.32.12 0-.31-.07-.58.14-.75l-.34.09c.3-.28.36-.25.46-.56-.6.05-.3.39-.83.52Z" fill="#8C8C8F"/><path d="M39.17 29.59c-.16.1-.36.2-.56.35l-.27.2c-.14.1-.1.06-.26.19-.04.26.07 0-.1.18-.04.05-.04.03-.15.1h.21l.07.5c.03-.2-.01-.22.08-.4.1-.21.05-.1.16-.24l.02.7c.02-.2.27-.36.44-.45-.1.25-.2.42-.33.61.62-.23.42-.15.58 0l-.74.32.64.4c.26-.2.54-.86.63-1.25.15-.52.19-1.06.3-1.58-.14-.04-.05 0-.32.18l-.4.19Z" fill="#CECED6"/><path d="m19.95 17.05.18.2c.07.08.03.03.06.15l.34-.43c.01-.03.04-.03.07-.04l-.3.68c.3-.17.23-.22.7-.37l-.59.51.41-.06c.39-.02.13-.06.3.06l.13.08.02.06v.03c.21-.31.02-.13.41-.23-.09.6-.54.84-.65.82.23-.07-.11-.1.5-.19-.03.03-.06.04-.07.1-.06.23-.06.06-.1.13-.18.24-.23-.13-.03.05.31-.13.33-.22.6-.43l.35-.24c.24-.18.14.02.26-.3-.21-.11-.65.03-.9.1.12-.32.54-.75.92-1.39-1.04.18-1.72.17-2.61.7Z" fill="#DEDEDE"/><path d="M39.9 38.45c.42.05.86.15 1.12.35.3.1.48.17.64.45.31.05 1 .8 1.24 1.07.08.07.1.13.18.22l.16.27c-.2.24-1.07.81-1.32.94l-.21-.48c-.23-.13-.25-.25-.39-.45-.17-.24-.22-.23-.38-.52-.2-.17-.34-.31-.6-.52-.14-.12-.48-.27-.7-.44-.4-.04-.76-.21-1.2-.25-.45-.04-.89.01-1.33 0h-.06c0 .03-.04 0-.05.01-.13.07-.05.03-.12.1h1c1.74 0 2.77.97 3.66 2.22.12.19.23.36.3.6.15-.1.15-.07.25-.11l1.42-1.07a8.45 8.45 0 0 0-1.75-1.88c-1.08-.76-1.57-.7-3.08-.66-.28.03-.1-.02-.12.1l1.35.05Z" fill="#FFFB8C"/><path d="M17.22 35.75c-.11.04-.2.06-.33.08.22.29 2.57.56 2.86.56-.07.12-.04.1-.08.28l.1-.08s.03-.03.05-.03c.26-.1.42.05 1.02.13-.45-.13-.36.51-.36.65l-.5-.14c.4.56 1.93 0 2.07-.08-.2-.23-.38-.3-.7-.47l-.38-.17-.39-.18c-.25-.1-.54-.2-.84-.29-.56-.15-.7-.1-.86-.32l-.03-.01c-.45-.08-.87 0-1.2.03l.86.03c-.1.23-.1.14 0 .38l-.77-.14c-.28-.04-.1.03-.36-.04-.34-.12-.34 0-.16-.19Z" fill="#9C9C9C"/><path d="M13.8 41.85c.24.07.01 0 .17.07l.1.05a.1.1 0 0 1 .06.03c.86-1.5 1.93-2.78 3.97-2.8h1.04c-.26-.24-.01-.1-.29-.1-2.09.06-3.77.54-4.67 2.5-.06.1-.06.07-.13.14l-.17-.1-1.11-.83c.87-1.55 2.84-2.36 4.48-2.36l.2-.05c-.04-.12.15-.07-.15-.1-1.3-.06-2.07 0-3.02.65a6.64 6.64 0 0 0-1.8 1.97c.37.14.35.2.7.44.25.18.4.26.62.5Z" fill="#FFFB8C"/><path d="M38.59 21.9c-.03 0-.15.11-.27-.42-.32-1.34-.62-.89-.91-1.4.08.1.1.15.28.17h.16l.17.07.06-.3c.23.25.1.18.23.12-.25-.53-.37-.49-.52-.66-.13-.1-.25-.13-.29-.15-.21-.16-.12-.02-.16-.24l-.64-.24c-.03.4.38 1.5.56 1.89.22.44.19.57.5.8.22.16.55.5.73.6l.1-.24Z" fill="#D6D6D6"/><path d="M18.7 33.42c.06.12.07.12 0 .23-.2-.14-.13-.1 0-.23Zm-2.19-.56c.3.01.58.22.82.4l-.26.32s.04.02.05.05c.28.3.14.39.13.43l-.04.1c.25.06.44.15.72.21.31.07.58.07.9.13l-.03-.5.06-1.32c-.15.15-.14.18-.14.52-.23.01-.27 0-.33.15l-.15-.1c-.22-.18-.3-.34-.53-.47-.06-.14-.05-.2-.14-.29-.19-.17.1-.11-.25-.11-.2.22.08.1-.21.17l-.04-.16c.18.23.23.44.35.73-.27-.07-.74-.26-.91-.26Z" fill="#9C9C9C"/><path d="m16.81 31.4.48.96c.34 0 .07-.05.25.12.1.1.1.14.15.29v-.08c.05-.16.02-.14.34-.16-.33-.07-.2 0-.33-.24l.62.06-.46-.82c-.04-.17-.1.05.01-.17.07.07.28.44.33.57l.39-.37c.35-.28.17-.19.45-.23-.39-.27-.1-.05-.27-.32-.06-.12.02-.04-.09-.13-.17-.16.16-.05-.16-.08l-.54-.2c-.62-.41.33.07-.19-.15l.04.78c-.04-.27-.2-.29-.35-.35.1.4.04.18.2.47l-.61-.35c-.02 0 0 .05 0 .05v.05c-.03.2.13.14-.07.18-.08.25 0 0-.19.12Z" fill="#BDBDBD"/><path d="M36.66 17.19c.15-.18-.1.25-.18-.23-.02-.17 0-.1.02-.16.06-.26.14.26-.06-.7l.45.33.33.24a2.9 2.9 0 0 0-1.01-.9 10 10 0 0 0-1.53-.64l.3 1.37 1.64.65.04.04Z" fill="#D6D6D6"/><path d="M37.83 30.63c-.16.17-.35.31-.5.52-.01.01-.2.29-.22.34-.07.1-.11.2-.16.34l.14-.16c.28.2.1.16.32.4l.03-.62.22.78.45-.44c-.07.24-.13.4-.26.57l.62-.09c-.1.16 0 .12-.32.29.19.06.19.08.28.29.08-.17.13-.25.22-.38.27-.37 0-.2.36-.28l-.04-.13-.63-.4.74-.33c-.16-.14.04-.22-.59.02.14-.2.24-.37.33-.62-.17.1-.42.25-.43.46l-.03-.7c-.1.11-.06.02-.16.23-.09.2-.05.21-.08.4l-.06-.5-.23.01Z" fill="#B5BDBD"/><path d="M16.81 31.4c.19-.12.1.13.16-.14.2-.04.04.02.07-.19v-.1l.6.35c-.15-.29-.08-.06-.19-.47.16.07.33.1.36.35l-.04-.78c.51.22-.44-.26.18.14l.54.21-.58-.48c-.2-.17-.13.01-.14-.18-.1-.05-.14-.07-.21-.13l-.06-.05c-.01-.04-.04-.04-.05-.07-.19 0-.7-.29-.82-.52-.24-.22-.1-.12-.38-.23.17.9.25 1.48.56 2.29Z" fill="#D6D6D6"/><path fill-rule="evenodd" d="M18.5 19.38c-.07.1 0 .07-.15.2-.15.14-.03.07-.2.1.01.08.05.44.07.48.05.17.04.1.09.16.4.5-.21-.48.1.1-.34.24-.11 0-.27.33-.1.2-.19.36-.15.5 0 .02.02.05.03.05.13.3.2.23.05.24.17.19-.2.2.24.16-.03-.4-.08-.1.16-.31.42-.4.22-.15.55-.98.15-.35.45-1.12.47-1.51-.27 0-.85.38-1 .48Z" fill="#D6D6D6"/><path d="M19.26 16.34c0 .21.08 0 .12-.02.27-.2-.1-.13.33-.19l-.04.84c0 .15-.04.13-.14.1.3-.06.27-.15.6-.28 1.18-.43 1.01.18 1.34-1.66-.44.17-.86.31-1.28.52-.27.13-.3.13-.5.3-.24.17-.39.16-.43.4Z" fill="#D6D6D6"/><path d="M17.69 32.77c.24.13.3.28.53.47l.14.1c.07-.15.1-.14.33-.15 0-.34-.01-.37.15-.53.25 0 .3-.02.51-.09l.23-.1c.28-.18 0 .15.1-.12-.3-.18-.27-.26-.54-.77l-.1-.25c-.28.04-.1-.05-.45.23l-.39.37c-.05-.13-.26-.5-.33-.57-.1.22-.04 0-.01.17l.46.82-.62-.06c.13.24 0 .17.33.24-.32 0-.29-.01-.34.16v.08Z" fill="#A5A5AD"/><path d="M26.35 9.1c.27.41.57.2.86.41l.05.04.04.05.08.1.04.06c.17.2.27.33.32.61a2.8 2.8 0 0 1-.94-.2l.01 1.05c.7-.14.85-.2.88-.18.01.01.01-.12-.02.07 0 0-.09.3-.43.74-.6.2-1.09.45-1.59 0l.13-.25c.37-.02.16-.1.37.2.21-.5.08-.83-.5-.58-.15-.52-.2-.47-.38-.85-.32.04.04-.02-.14 0-.09.48-.15.47-.02 1l-.43.04c-.14.28-.02.46.1.66.2-.28.09-.22.26-.32l.21.12c-.08.35-.54.6-1 .72-.35.12-.37.06-.53-.15.07-.09-.01-.23.45-.05l-.07-.48c-.78-.2-.47.33-.6.01l-.06.02c-.17-.23-.28-.3-.51-.45l-.24-.26c.09.63.26 1.4 1.04 1.71-.04.1-.2.1.08.08-.08.3-.08.1-.16.4.2.3.21.1.24.54l.2-.03-.03.37.03.2c0 .02-.04.28-.04.38.2-.1.22-.17.38-.28.14-.1.3-.2.45-.28.3-.15.76-.27 1.04-.44h.29c1.27-.25 2.1-.12 3.34-.01l1 .28c.6.21.8.5 1.24.7l.1-.48-.05-.24.2-.1c.12-.4-.12-.18.16-.33.17-.36.08-.28-.08-.53l.2-.11.58-.63c.26-.38.32-.6.36-1.02-.14-.03.05-.05-.14.03l-.1.05c0-.41 0-.13-.08-.23l.04.23c-.19.4-.25.15-.48.58-.2-.1-.24-.17-.54-.1-.1.2-.15.24-.13.54 0-.01-.04-.17.2-.1.37.09.12-.12.23.27-.51.2-.6.1-1.03-.14-.28-.13-.54-.3-.5-.64.37-.1.33 0 .38.28.72-.99-.1-.52-.18-.96l-.08-.64-.1-.23-.55.9c-.21-.1-.18-.07-.4.03l-.06.57c.04-.02.06-.07.06-.06.03.06.04-.24.47-.09l-.02.34c-.43.07-.62.2-1.12 0-.83-.35-.42-.42-.85-.78.03-.35-.12-.13.1-.3l.8.34v-.58l-.02-.52c-.08.05-.3.12-.4.15-.57.1-.58.02-.32-.45.37-.23.08-.28.5-.45.18-.08.18-.03.36-.1.45-.18.15.02.32-.24-.35-.05-.4-.1-.72-.19a4.51 4.51 0 0 0-.34-.05c-.3-.08-.16.04-.32-.17-.35.12-.09.12-.49 0-.16.21-.01.1-.31.17-.19.05-.22.02-.33.04-.32.05-.41.13-.76.18Z" fill="url(#cltpjbez2)"/><path d="M36.93 31.82c-.16.13-.1.13-.2.32-.17.32.02.1-.23.32l.82.24c0 .26-.02.79.1 1.02.57-.14.3-.33.02-.44.4.09.3.45.67-.02.07-.24 0-.09.12-.26.07-.09.1-.1.2-.17-.1-.2-.1-.2-.28-.28.32-.17.23-.13.32-.29l-.62.1c.13-.2.2-.35.26-.58l-.45.44-.22-.78-.03.62c-.21-.24-.04-.2-.32-.4l-.16.16Z" fill="#A5A5AD"/><path d="M13.27 41.8c-.25-.13-1.11-.66-1.27-.8.05.53 1.28 1.13 1.7 1.43.22.15.36.32.65.4a6.23 6.23 0 0 1 1.71-2.54c.25-.14.25-.26.54-.38.19-.08.45-.17.65-.23.6-.2 1.05-.24 1.65-.2l.04-.06.41-.03c.06-.1.08-.1-.04-.1-.1-.12.06-.02-.2-.07h-1.04c-.3.18-.7.14-1.37.47-1.71.83-2.1 2.33-2.48 2.74-.28-.17-.63-.46-.95-.64Z" fill="#010101"/><path d="M17.03 17.88s.06-.01.13-.06c0 .44-.12 1.2.17 1.25L17.3 18c.04-.17 0-.08.08-.18l.1.48c0 .21-.04.43-.07.63l.13-.12c.02-.01.08-.1.1-.1.14-.16-.06-.02.1-.14l-.25.55c-.15.32-.1.48-.1.89.11-.12.31-.28.42-.42-.12.28 0 .01-.1.16l.1.02c.29-.23-.02-.11.33-.11.05-1.74-.08-1.44-.7-2.53-.27.15-.1-.05-.3.3-.09.2-.09.27-.11.44Z" fill="#D6D6D6"/><path d="M17.15 23.76c-.22.52-.48.74-.45 1.47l.4-.23.2-.65V25c.12.05.03 0 .23-.07.01.3-.03.03.16.15l-.07.34c-.01.15-.04.03.01.13.23.07-.27.13.1-.07.12-.06.08-.06.25-.12l.14.17.1-1.03c-.6-.83-.21-.87-.74-1.2-.1.19-.16.37-.33.46Z" fill="#CECECE"/><path d="m36.54 39.35.47.08c.41.1.89-.03 1.56.16.39.1.98.28 1.15.58.2.12.32.2.48.32l.82 1.05c.17.26.56.93.58 1.27.27-.07.95-.56 1.2-.75l1.17-.78v-.25c-.42.24-.83.68-1.3.81-.09.16-.2.2-.4.33l-.5.31c-.26-.4-.4-.73-.66-1.13a5.25 5.25 0 0 0-1.86-1.7c-.76-.36-.73-.22-1.25-.4l-.13-.07h-.99c-.24.07-.2.05-.34.17Z" fill="#010101"/><path d="m40.39 24.93-.15.19-.12.11c.17.37.33.29.46.67.22.58-.06.62.3.96.2.02.07.1.2-.09.15-.13.03-.09.24-.25.12-.09.07-.02.15-.1.19-.17.08.1.12-.17l.07-.13.06-.1c.13-.19-.01-.06.2-.2l-.1-.1c-.15-.15-.23-.24-.46-.3.02-.21.03-.12.06-.27.02-.14.04-.09.04-.18-.1 0-.28.35-.32.4l-.36-.38c-.43-.33-.09-.04-.4-.06Z" fill="#94949C"/><path d="M14.78 30.8c.24.2.09.16.29.34l.29.2c.25.2.21.28.6.33-.08-.08-.19-.11-.28-.18l.24-.17a.48.48 0 0 1-.15-.05l.32-.21-.47-.34.67.24c0-.02 0-.1.02-.1.07-.13.05-.1.12-.18-.16-.18-.2-.27-.33-.45-.1-.15-.21-.33-.37-.43-.26.13.1.03-.12 0l-.4-.13c.06-.1.14-.03.08.1-.06.14-.14.12-.14.12-.02-.02-.04.01-.07.02l.19.4c-.06-.12-.28-.21-.52-.32.19.5.15.18.46.54l-.49-.03c.1.25.07.08.06.3Z" fill="#C6C6C6"/><path d="M38.45 20.08c.18-.1.12-.09.04.08.16.15.33.37.47.58.12-.15.04 0 .14-.27.1-.23.07-.15.07-.37.1.15-.21.18-.45.24-.01-.39-.07-.3-.3-.6l.36.3c-.03-.96.03-.53-.33-1.46.15.16.04.17.28.38-.01-.32-.06-.69.02-1 .06-.27 0 .02.05-.17l.04-.24.01-.02.1-.05-.05-.29-.52.5c-.32.35-.73 1.77.07 2.4Z" fill="#D6D6D6"/><path d="m41.7 41.27.2.48a9.3 9.3 0 0 0 1.33-.94l-.16-.27c-.07-.1-.1-.15-.18-.22-.26-.26-.93-1.02-1.25-1.07-.14-.26-.33-.35-.63-.45-.27-.2-.7-.28-1.11-.35l-1.38-.05c-.34.06-.41.16-.73.29-.29.11-.5.14-.7.41.44.02.89-.04 1.34 0 .42.04.8.21 1.2.25.2.17.54.33.7.44l.6.53c.16.28.2.27.38.52.15.2.17.31.38.43Z" fill="url(#dltpjbez2)"/><path d="M16.44 33.63c-.14-.24-.25-.26-.35-.46l.2-.2a.1.1 0 0 1 .06-.02l.17-.1c-.42.06-.4.1-.78.02.2-.14.2-.05.41-.14-.3-.12-.53-.31-.71-.44l.77.3c0 .02 0-.02 0 0l.08-.37c0-.03 0-.05.02-.08l.16.55c.07-.13-.03.04.04-.17.05-.17-.03-.06.07-.25.08-.17.2-.2.33-.31-.77-.16-1.47-.38-2.3-.12.09.15.27.38.4.5.56.58.81 1.05 1.43 1.29Z" fill="#D6D6D6"/><path d="M36.66 17.19c-.32-.1-.23-.14-.65-.23-.28.16-.06.09-.37.03l.02.06c0 .02.03.04.03.05l.26.48c.28.57.3.01.48.46l.01-.08c.06-.46.18-.01.08-.38.02.3-.02.01.18.1l.31.25c.1-.58-.04-.14.23-.41l.16.17-.1-.62c.24.07.12.02.22.1.18.16.02.05.02.07l.05-.08c-.04-.22.04-.07-.11-.27-.02-.01-.12-.12-.14-.12l-.14-.11a3.18 3.18 0 0 0-.33-.24l-.45-.34c.2.97.12.45.05.7-.01.07-.05 0-.01.16.1.5.35.05.2.25ZM39.18 20.08c.4-.41.07-.5.08-.71.21-.51.4-.08.15-1-.1-.37-.21-.66-.47-.9l-.09.05-.01.02-.04.24c-.05.2.01-.1-.05.17-.08.3-.03.67-.02 1-.22-.2-.13-.22-.28-.38.37.93.3.5.33 1.45l-.35-.3c.22.31.28.22.29.61.25-.06.55-.09.46-.25Z" fill="#BDBDBD"/><path d="M40.44 29.73c.18.12-.04.12.51-.08-.25.22-.09-.01-.14.35.04-.06.06-.15.2-.16l.12.05c-.3.5.15.47-.11.62.24 0 .28-.01.42.1-.2.15-.4.33-.34.48.4-.21.54-.45.82-.96.24-.44.33-.79.46-1.27-.46.1-.43.32-1.52.64l-.24.07c-.23.12-.06-.07-.18.16Z" fill="#DEDEDE"/><path d="M16.2 22.4c-.07.45-.3.45-.32 1.15l.2-.32c.1.15.17.32.2.54.03-.4.1-.41.1-.87.13.06.16.08.25.16.44 0 .05-.07.57-.04l.14.36.04.07c.02-.24.02-.38 0-.63a2 2 0 0 0-.05-.27c-.07-.18-.04-.08-.12-.2-.21-.35.03-.04-.02-.87-.2.13-.55.31-.64.39-.1.08-.3.47-.36.53Z" fill="#BDC6C6"/><path d="M36.72 17.69c.2.24.12.46.13.83-.06-.08-.1-.18-.18-.25-.21-.18.04-.04-.28-.14.24.27.2.32.37.55-.28-.08-.49-.03-.71-.17l-.3-.1c.14.23.05.15.31.21.13.04.3.1.5.1.17 0 .28 0 .45.09.04 0 .13.06.16.09.17.14.08.04.17.2.03.21-.05.06.16.23.04.02.16.06.3.15.34-.2.07.04.14-.27v-.31c-.04-.29-.12-.32-.16-.62 0-.35-.1-.27-.34-.58l-.16-.17c-.27.27-.12-.17-.23.42l-.33-.26Z" fill="#949494"/><path d="M40.44 29.73c-.17.18-.16.26-.33.47-.21.26-.19.1-.27.44l.08.32c.2-.1.5-.2.76-.33-.18.12-.32.29-.56.4l.48.1-.32.18c.26.09.08-.04.17.18-.08.07-.05.1-.1.18.25-.13.23-.1.4-.28l.16-.16c.1-.08.1-.07.18-.16-.06-.14.14-.32.34-.47-.15-.11-.17-.09-.42-.1.26-.16-.19-.13.1-.63l-.12-.05c-.13 0-.14.1-.2.17.06-.36-.1-.13.15-.35-.54.2-.32.2-.5.1Z" fill="#C6C6C6"/><path fill-rule="evenodd" d="m20.16 18.52.24-.1-.03.14.2.05s-.05-.08-.14.16c-.18.4-.07.14.02.24l.36-.33c-.12.22-.27.3-.45.41.01.03.05.03.05.07l.12.27c.24-.15.69-.64.82-.82-.2-.18-.14.2.03-.05.05-.07.05.1.1-.13.02-.05.06-.05.07-.1-.6.1-.26.12-.49.19.1.03.57-.2.65-.82-.4.12-.2-.07-.41.23v-.02l-.03-.07-.12-.08a2.26 2.26 0 0 0-.88.19l-.24.13c.08.18.17.2.13.44Z" fill="#C6C6C6"/><path d="M17.07 40.97c.3-.18.17-.38.33-.6l-.02-.16c.1-.29.18-.21.5-.21H24.93c.2.2.9 1.05.94.64.37.1.61.37.9.56-.1.18-.18.28-.26.48.04.23.6.19.83.2l.24-.44c.4-.19.34-.17.82-.08.21.18.16.25.33.52l.5-.04c.36-.05.24.07.33-.16-.09-.28-.09-.16-.25-.4.1-.14.03-.01.1-.14.14-.21.03.01.15-.26.21.01-.05.09.25-.07.16-.08.02-.09.32-.17.13.25.27.46.41.72.24-.05 1.23-.51 1.39-.72-.19-.06-.45-.23-.49-.48.17.06.8-.05 1.03-.12.12-.04-.01.03.07-.04h5.1c1.71.04.78.6 1.37 1.3.34 0 .26 0 .49-.08.17-.07.3-.12.45-.25.17-.1.06.1.14-.22.07-.3.05-.08-.03-.26h.15a3.7 3.7 0 0 0-.48-.32c-.17-.3-.76-1.07-1.15-1.17H31c-.22 0-.26 0-.49.03.08.05.5 1.04.68 1.29-.2-.25-.13-.2-.38-.37-.37-.23-.3-.23-.3-.46-.62.25-.8.42-1.3.72-.14.03-.1 0 0 .1-.19 0-.23-.06-.08.07-.48.08-.16.08-.57.25-.21.09-.37.1-.52.12-.57 0-.57-.19-1.12-.37.04-.23.04-.01-.02-.16v-.05l-.06-.1-.08.05c-.27-.34-.19-.94-.57-1.12-1.18 0-3.2.12-6.28 0-.3.01-2.05.42-2.65.63-.2.06-.46.16-.65.23-.3.12-.29.23-.54.38l-.22.2v.03l.05.16c.05.22.05.17.1.36.23.06.14.04.4.08.1.1.19.17.4.16.02 0 .2-.07.22-.1.2-.14.1.03.06-.16Zm11.89-.18c-.04.07-.04.05 0 0Z" fill="url(#eltpjbez2)"/><path d="M34.14 37.12c.13.12.32.15.56.2.33.08.45.1.69.04-.1-.07.1-.1-.34-.16.42-.03.27-.1.32-.18l.06-.1h.04c0-.02.14-.03.17-.05l-.37-.22c.4-.06.25-.08.57-.02.3-.06.37-.1.6-.02 0-.3.19-.23.47-.26.06 0 .12.02.2-.02.3-.1.15.01.31-.19l-.51.03.33-.14c-.1 0-.12.01-.23-.02-.2-.05-.06 0-.18-.11-.68.15-2.48.82-2.69 1.22Z" fill="#949494"/><path d="m39.34 31.96.23.17c.05.05.05.03.1.14.08.19.05.17.03.4.04-.1.06-.25.14-.38.27-.45.06-.16.36-.3l-.26.62 1-.43-.9.54c.27.06.25-.02.44.13-.43.11-.33.06-.77-.02.33.19.25-.06.36.32.29.09-.07.02.04.23.33-.1.54-.5.86-.83l.66-.75a6.43 6.43 0 0 0-2.29.16ZM41.59 26.25c-.03.26.07 0-.12.17-.08.08-.03.01-.15.1-.2.17-.09.12-.23.25.37.01.2-.13.25.22l.26-.26c.03.32.08.37-.02.62.23-.19.22-.36.4-.58l-.23.7c.33-.19.24-.19.43-.03-.23.11-.25.2-.55.23.29.12.3.13.51.35l.57-2.17a2.9 2.9 0 0 0-1.12.4Z" fill="#D6D6D6"/><path d="M42.08 41.92c-.1.04-.1.01-.25.1a1.9 1.9 0 0 0-.3-.58c-.9-1.25-1.91-2.23-3.67-2.23l.13.06c.52.19.5.04 1.24.4a5.25 5.25 0 0 1 1.87 1.7c.26.4.4.73.65 1.14l.5-.32c.2-.13.33-.17.4-.32.46-.13.87-.58 1.3-.81 0 0 .14.05-.06-.24l-1.3-1.55-.31-.26-.14-.1a7.32 7.32 0 0 0-.04-.04l-.11-.1a4.92 4.92 0 0 0-.84-.42c-.33-.13-.7-.12-.96-.33 0 .14-.7.08-.86.1a1.9 1.9 0 0 0-.7.21c1.5-.02 2-.09 3.08.67.6.42 1.35 1.3 1.74 1.88l-1.37 1.04Z" fill="#B92123"/><path d="M39.1 26.65c-.1.33-.22.55-.18.93.3.14-.07.01.2-.08.2-.06.13-.04.29.01.58.15-.02-.06.67-.16l-.14.36.06.56c.15-.42.03-.03.21-.16.1-.06.19-.2.3-.3.07.23-.03.24.18.46.01-.5.1-1-.08-1.43l-.03.3c0-.02-.04-.04-.04-.06l-.17-.3c-.13.15-.26.3-.32.4l-.17-.2-.06-.08c-.1-.06-.1.05-.18.1-.05-.36 0-.18-.33-.25-.3-.08.03.32-.2-.1Z" fill="#B5B5BD"/><path d="M15.56 27.81c.2.08.66.5.6.64.03-.26.06-.31.22-.47l.1.49v-.04s-.09-.07.48-.7l.1.07c.73.55-.07.12.27.24-.03-.25 0-.51-.17-.64-.23-.24.1-.08-.2-.22-.45 0-.19-.02-.3.1l-.1-.35c0-.04-.01-.05-.02-.07-.08.26-.02.19-.2.4l-.1-.42-.11.3-.03.07-.03.07-.29-.43c.06.27.03.33.2.59-.17-.1-.13-.12-.34-.15.02-.04-.08.52-.08.52Z" fill="#ADADAD"/><path d="M14.76 23.58c-.07.14-.14.13.02.13h.08c.31-.1.2.04.17-.16 0-.47-.04-.43-.21-.72 0 0 .4-.41-.03-.95.01-.01.04-.04.04-.02l.04-.03.04-.03c.1-.07.04.16.08-.1 0-.43-.13-1.4.05-1.72l-.05-.26c-.19.23-.45 1.4-.54 1.75-.23.99.22 1.34.31 2.1Z" fill="#BDBDBD"/><path d="M14.78 30.8c.01-.22.02-.04-.08-.31l.49.02c-.32-.36-.28-.04-.47-.53.24.1.47.2.52.32l-.18-.4.06-.03s.08.03.15-.11c.05-.13-.03-.2-.08-.1l.4.14c.2.04-.15.13.11-.02-.02-.41-.37-.23-.98-.48-.4-.16-.38-.35-.9-.46.05.3.4 1.3.63 1.62.18.26.17.16.33.34Z" fill="#DEDEDE"/><path d="M41.18 23.81c-.03.38.05-.06-.04.18l-.08.16c-.15.17-.05.12-.24.13l-.05.03c.5.04.05.13.5-.05l.15.53.16-.4.04.5.35-.09-.04.07c-.05.34-.01-.01-.06.1-.1.26-.14-.05.02.1 0 0 .03 0 .03.02l.03.03.13.2c.01-1.27.14-.43-.01-2.38l-.47.39c-.2.2-.14.29-.42.48Z" fill="#D6D6D6"/><path d="M38.9 23.47c0 .06.04.21.07.28l.03.28c.12.1.02.02.18.02.21.04.12-.08.21.11.07-.09.12-.06-.01-.45.24.08.32.01.3.15v-.67l.03.06.16.51.22-.48c.07.13.04.27.07.34.16.37-.1-.08.1.09l.05.04.1.1c-.02-.29-.02-.53-.1-.8-.06-.19-.16-.44-.32-.54-.25.04-.1-.07-.25.26l-.27-.57c.04.14.1.24.1.39l-.03.35-.37-.4c.1.37.05.32.3.53-.4.1-.53-.05-.58.4Z" fill="#ADADB5"/><path d="m37.98 24.49.08.5.12.5-.04-.09c.06-.34.16-.43.16-.71l.55.05-.04-.75c0 .25.21.96.37 1.13-.02 0-.2.11 0-.03.02 0 .03-.03.04-.03a.29.29 0 0 1 .07-.04l.18-.09.07.4c.1-.45-.13-.9-.36-1.27-.16 0-.08.1-.18-.01l-.03-.29-.4-.4c-.2.35-.31.88-.6 1.13Z" fill="#CECED6"/><path d="M15.62 26.62c-.2.27-.11.9-.17 1.3.17 0 .13.04.1-.12l.11-.56c.2.03.16.05.35.14-.17-.26-.15-.3-.2-.58l.29.43.03-.07.02-.06.12-.32.1.43c.18-.2.11-.13.2-.4l.02.07.1.35c.11-.1-.15-.08.3-.1.29.14-.03 0 .2.22-.02-.37-.1-.84-.28-1.1-.16.07-.06-.07-.32 0-.33.08-.19.4-.28.2l-.04.07c-.01-.14 0-.69-.1-.78l-.07.77-.18-.23c-.2.27-.12.14-.22.54l-.08-.2Z" fill="#C6C6CE"/><path d="M14.29 28.6c.29.66.67.67 1.36.88-.07-.3-.17-.7-.24-.9-.08-.26-.01-.32-.04-.71a.29.29 0 0 0-.05-.07l-.12-.17c-.04-.06-.04-.12-.05-.15l-.07.6-.38-.34.29.5-.4-.03c-.35.33.03-.12-.06.13-.16.43.14-.23-.03.09l-.21.18Z" fill="#94949C"/><path d="M24.06 14.87c.03.3.12.38.24.57.13-.07.2-.08.35-.16.3-.36.9-.37 1.27-.63.59-.03 1.12-.24 1.89-.24.8 0 1.36.2 2 .24.25.18.54.16.85.3.36.15.57.17.81.42.07.13.16.02.24-.08.16-.18.13-.18.08-.43-.44-.23-.64-.53-1.25-.75l-.99-.3c-1.24-.11-2.07-.25-3.34.01h-.3c-.27.17-.74.3-1.03.47-.14.09-.31.18-.45.3-.14.1-.17.16-.37.28Z" fill="#DEDEDE"/><path d="m37.33 35.43-.01.4-.48.07c.12.1-.03.06.19.11.1.03.11.02.22.02-.08.05-.22.1-.33.14l.52-.03.27.1c.37-.13-.27.09.12-.03l.25-.07.84-.15c.4-.08.26 0 .38-.17-.49-.13-.53-.5-.98-.4-.4-.16-.06-.07-.49.02-.33.08-.13.1-.5-.01Z" fill="#BDBDBD"/><path d="m38.59 21.9.3-.04c.01-.13.01-.25.05-.37.12-.35.07-.1.14-.18-.15-.59-.44-.76-.59-1.16.08-.16.14-.17-.04-.08l-.17.07c-.13.06-.01.11-.22-.12l-.07.3a.92.92 0 0 0-.17-.07h-.16c-.18-.02-.2-.07-.28-.18.3.52.58.07.92 1.4.14.54.26.43.29.43Z" fill="#B5B5BD"/><path d="m13.72 26.76.34 1.28c.1-.1.06-.46.07-.56l.28-.08h.04c-.2-.17-.17-.28-.24-.55l.34.5.06-.51c.14.05.1.24.15.43l.43-.25.17.4c.05-1.03-.46-.6-.65-1.16l-.24-.08-.05.04-.05.04-.04.03-.04.01-.57.46Z" fill="#CECECE"/><path d="M40.93 27.57c-.02.14 0 .07-.04.22l-.03.05-.04.05c-.08.64-.12.94-.3 1.55.66-.13 1.02-.2 1.25-.75l-.09-.29-.01-.04-.01-.04c-.08-.24.27.19-.06-.09l-.4-.01c.16-.1.11-.18.2-.44l-.35.32c-.02-.36.05-.62-.12-.53Z" fill="#94949C"/><path d="m15.69 20.88.15.43c.33.34.27.53.5.8.17-.6.37-.23.6-.7.18-.34.22-.57.06-.9-.48.06.03-.1-.45.21l-.2.12-.05-.05-.21-.3c0 .05 0 .2-.02.23-.02.13-.04.12-.06.17-.24.07.01-.01-.17-.06-.12-.02.05-.1-.15.05Z" fill="#9C9CA5"/><path d="M16.33 34.38c-.19.06-.19.07-.41.1v.15c.63.05 1.46.58 1.95.52h.28l-.16-.14-.05-.05-.05-.07-.06-.06c.15-.04.25-.1.37-.15l-.09-.11c-.26-.04-.26-.06-.49-.16l-.24-.1c-.25-.13-.13-.08-.2-.15l-.85.22Z" fill="#BDC6C6"/><path d="m20.15 19.34-.07.17c-.58.17-.67.26-.86.83-.14.46-.37.58-.04 1.2.1-.32.78-1.35 1.05-1.64.2-.22.31-.27.29-.65l-.37.1Z" fill="#D6D6D6"/><path d="M39.22 20.58c-.28.3-.08.47.05.83l.04.13.02.07c.43.22.28.14.54.46.13-.15.18-.4.33-.62.16-.23.24-.3.36-.57-.32-.14-.13.01-.4.03l-.05-.49-.15.42-.55-.25c-.15-.05-.14.05-.15-.01h-.04Z" fill="#9C9CA5"/><path d="m14.06 28.05.23.56.21-.18c.17-.32-.13.32.03-.1.09-.24-.3.2.06-.12l.4.03-.3-.5.4.34.06-.6c.01.02.01.09.05.15l.12.17.05.07-.01-.45-.17-.4c-.15.09-.27.17-.43.25-.05-.19 0-.38-.15-.43l-.06.5-.34-.49c.08.29.05.4.24.55h-.04l-.28.08c0 .11.04.46-.07.57Z" fill="#B5B5B5"/><path d="M40.2 38.12c.26.21.62.2.97.33.3.12.6.29.83.43.05-.17.1-1.04-.3-1.17-.16-.06-1.16.03-1.5.41Z" fill="#94949C"/><path d="m37.6 22.96.36 1.36c.27-.44.35-.8.57-1.08l.12-.14c.37-.57-.49-.54-.5-.54l-.01.2c-.1-.17-.53-.84-.68-1 .19.33.3.62.44.96l-.28-.04c.16.52.08.14-.03.28Z" fill="#B5B5B5"/><path d="M38.32 35.11c.33.1.56-.09.93-.2.33-.1.66-.26 1.03-.28-.15-.2-.33-.28-.65-.34L39 34.2l-.45.28c-.25.13-.24.14-.59.15l.35.24-.16.15c-.1.08 0 .03-.17.1h.34Z" fill="#BDBDC6"/><path d="m38.1 26.54-.2 1.25c.08.34.48.44.53 1.1.09-.68.25-.97.4-1.58-.23-.24-.16-.17-.2-.47l-.11.06a.1.1 0 0 0-.05.03c-.17.06.04.05-.1 0l-.06-.93c-.08.16-.04.29-.05.52-.02.42-.04.4-.16.54v-.52Z" fill="#BDBDBD"/><path d="M40.76 24.3c-.11.14-.32.49-.37.62.3.03-.04-.27.38.07l.36.39c.04-.06.2-.42.31-.4 0 .07-.01.02-.04.18-.02.14-.02.03-.05.27.23.06.3.16.46.3l.1.09.17-.5-.13-.2-.03-.03s-.03-.01-.03-.03c-.16-.14-.13.17-.02-.09.05-.11.01.22.06-.1 0-.04.03-.04.04-.07l-.35.08-.04-.48-.16.39-.15-.53c-.46.2 0 .09-.51.05Z" fill="#ADADAD"/><path d="M38.9 23.47c.04-.44.18-.3.57-.4-.25-.21-.2-.16-.3-.52l.37.39.04-.35-.1-.4.26.58c.14-.31 0-.22.25-.26l-.04-.16c-.3-.18-.1-.1-.3-.35-.1-.13-.06-.07-.16-.16-.24-.23-.12-.02-.19-.2l-.22-.12-.12-.04c.04 1.22.16.52-.07.96-.13.29-.18.79 0 1.03Z" fill="#C6C6CE"/><path d="m18.02 22.55-.56.1.02.5.04.01c.04.17 0-.01.07.04 0 0 .1.01.24.38.12.3.23.44.33.74l.12-.13.19-.8c-.23-.37-.05-.3.1-.7-.34.12-.04.01-.25.1l-.06.03.38-.89c-.19.23-.37.5-.54.84l-.08-.22Z" fill="#B5B5B5"/><path d="M41.27 23.56c.3-.26.53-1.17.5-1.7-.04-.67-.31-1.15-.42-1.76-.12.13-.03-.1-.08.17l.03 1.38c.05.31.14-.17.01.32-.13.5-.01.4.03.81.06.51-.06-.32-.07.78Z" fill="#BDC6C6"/><path d="M15.88 23.55c-.07.1-.04.31-.06.48 0 .25-.05.47.1.56h-.03c.21-.23.45-.13.57.02.24.28.02.2.02.22.03-.38.02-.2.15-.46l.26-.45.12-.52-.49.48-.08-.75c.15-.18.06.17.14-.07.01-.03.05-.02.06-.03-.09-.08-.13-.1-.25-.16 0 .46-.06.47-.1.88-.03-.22-.1-.4-.2-.55l-.21.35Z" fill="#9C9C9C"/><path d="m17.33 27.08.25.88c.05.18.1.25.13.44.12.5 0 .4 0 .4.04-.48.24-.76.57-.92l-.12-.89-.2.04-.13-1.07-.06 1.07c-.15-.25-.02-.12-.27-.25l-.17.3Z" fill="#BDBDBD"/><path d="m14.1 25.42.4.62c-.01-.18.01-.05-.04-.31.33-.08.16-.08.41-.22-.03-.21-.13-.46-.1-.55.06.12.1.23.15.39.02-.01.04-.05.06-.04l.05-.04.14-.12.45-.28h.03l.07-.02c-.1-.07-.24-.24-.32-.33-.19-.08-.17-.1-.32.17-.01-.06-.02-.15-.06-.23l-.07-.18-.17.52-.2-.22v.26c-.01.12-.16.07-.34.05.05.1.13.16.2.25-.16.04-.11.01-.27.21l-.07.07Z" fill="#ADADAD"/><path d="m39.4 24.16.31.9c.13-.23-.1-.3.16-.48.16-.1.1-.06.25 0l.2.14.05.04.06-.92-.11-.1c-.01-.02-.04-.03-.04-.05-.19-.16.05.3-.1-.09-.03-.05 0-.2-.07-.34l-.23.49-.16-.51c0-.04-.02-.04-.02-.07l-.02.68c.03-.16-.05-.09-.29-.16.12.4.07.37 0 .47Z" fill="#9C9C9C"/><path d="M39 32.2c.01.2.22 0-.06.26.26.27-.13.02.1.02.35 0-.15-.2.06-.02-.18.15-.2.3-.24.58.34-.04.64-.2.84-.2.43.08.34.14.76.02-.18-.14-.17-.07-.43-.13l.9-.54c-.32.15-.72.3-1 .43l.26-.62c-.3.14-.1-.14-.36.3-.08.13-.1.29-.15.38.03-.22.07-.21-.02-.4-.05-.11-.05-.09-.1-.14l-.23-.17-.33.22Z" fill="#BDBDC6"/><path d="M18.28 21.7c0 .29.08.07-.06.26-.14.17-.04.08-.23.1l-.04.2c.25-.12.1.18.06.29l.06.22c.17-.34.35-.61.54-.84l-.38.9c.04 0-.05.02.07-.03.2-.1-.08 0 .23-.1-.14.37-.31.3-.09.7l.57-1.63-.12-.47c-.13.11-.4.28-.6.4Z" fill="#D6D6DE"/><path d="M16.06 25.5c-.3.2-.25.09-.37.41-.1.27-.1.44-.08.72l.07.26c.08-.4.01-.28.2-.55l.2.24.06-.77c.12.09.1.64.1.78.02-.01.03-.08.05-.07.09.19-.06-.13.27-.2.27-.07.18.06.32 0-.1-.44-.38-.7-.5-1.11-.02.01-.1.17-.1.17-.13.14-.06.09-.22.11Z" fill="#DEDEDE"/><path d="M20.19 17.4v.29c-.2.16-.06.03-.25.16l-.06.04-.16.13c-.1-.36.04-.14-.25-.36-.2.17-.14.44-.14.76.12.03-.08.09.32-.12-.15.22-.14.2-.23.39.3-.04.53 0 .75-.17.04-.22-.05-.25-.15-.46l.23-.13.26-.09c.25-.06.4-.09.63-.09-.17-.12.07-.08-.3-.06-.1 0-.3.03-.41.06l.6-.5c-.49.14-.42.19-.72.36l.3-.68c-.03.01-.07 0-.07.04l-.35.43Z" fill="#ADADAD"/><path fill-rule="evenodd" d="M16.51 32.86c.17.01.64.2.89.26-.1-.3-.18-.5-.36-.73l.04.16c.3-.07.01.05.21-.17l-.04-.04c0-.02-.03-.03-.04-.04-.24-.27-.03-.21-.36-.33-.11.12-.25.15-.33.32-.09.18-.01.07-.06.24-.07.21.02.04-.04.17l-.16-.54-.03.07-.08.37v.01l-.76-.31c.2.12.4.32.71.44-.21.1-.21 0-.41.15.41.06.4.02.82-.03Z" fill="#BDBDC6"/><path d="M19.26 16.34c-.28.25-.2.03-.43.34l-.14.2c-.14.22-.05.01-.16.24h.04c.12.33-.08-.11.28.08l-.01.24-.05.2-.03.06c.54-.13.22-.47.85-.52l-.07-.12c.1.04.14.05.14-.1l.04-.84c-.43.07-.06-.01-.33.18-.05.06-.13.26-.13.04Z" fill="#BDBDBD"/><path d="M38.14 25.39c.45-.05.29.23.54.27l-.07-.3.21.12s.32.03.35-.1c.01-.02.04-.02.05-.03-.05.31-.1.2.12.33l.16-.37-.07-.4-.18.09-.07.04-.04.02c-.2.15-.01.06 0 .03a2.68 2.68 0 0 1-.37-1.12l.04.74-.55-.05c.04.3-.06.39-.12.73Z" fill="#B5B5B5"/><path d="M15.72 19.91c-.16.2-.14.73-.03.97.21-.16.03-.07.17-.03.19.05-.06.13.17.07.04-.07.06-.04.07-.17l.01-.24.22.3c0 .02.02.04.05.06l.2-.12c.47-.31-.04-.16.45-.22l-.24-.45c-.32-.06-.45-.09-.6.12-.12-.32-.12-.35-.2-.68 0 .36-.07.62-.15.85l-.12-.46Z" fill="#BDBDBD"/><path d="m39.25 26.43-.15.21c.24.42-.09.01.2.1.3.08.28-.1.33.27.05-.06.07-.17.17-.1.02 0 .06.04.07.07l.17.2c.05-.1.2-.25.32-.4l.17.3.04.06.03-.3c.02-.28.04-.42-.1-.62l-.17.17c-.31-.2.17-.02-.06-.02l-.12.11c-.08-.93-.16-.65-.3-.67.1.27.11.28.03.54l-.06.13c-.1-.36.05 0-.37-.23-.22.5-.1.23-.2.18Z" fill="#CECED6"/><path d="m37.18 21.8.41 1.16c.11-.14.19.24.04-.27l.28.04c-.14-.35-.25-.64-.43-.95.14.16.58.82.67.99l.01-.2c-.13-.53.39-.3-.17-.78-.25-.22-.5-.35-.73-.57l-.08.57ZM14 24.87c.28-.21.06-.22.47-.46-.05-.45-.25-.69-.14-1.01.08.35.25.67.29 1 .16-.2.14-.26.4-.4-.16-.2-.07-.08-.16-.28h-.08c-.15 0-.1.01-.02-.13l-.51-.64c-.23.22-.07-.27-.19.4-.08.54-.01 1.15-.06 1.52Z" fill="#DEDEDE"/><path d="M35 18.35c.3.07.07-.03.25.1.06.04.15.16.2.21.17.21.2.26.42.38l.18-.43c-.27-.06-.17.01-.3-.22l.28.1c-.05-.14.04-.11-.08-.18.15-.09.15-.1.3-.17-.15-.06-.44-.39-1.09-.38l-.34.55c.12.1.05.03.18.04Z" fill="#C6C6C6"/><path d="M39.25 26.43c.1.05-.02.3.21-.2.42.24.26-.12.37.24l.07-.13c.08-.26.06-.27-.03-.55.13.03.21-.24.3.68l.11-.12c.24 0-.25-.15.07.03l.15-.17c.03-.59-.4-.76-.72-1.04-.19.39-.5.83-.53 1.26Z" fill="#DEDEDE"/><path d="m39.42 20.03-.21.55h.04c.01.05-.02-.05.14.01l.56.25.14-.42.06.49c.26-.02.08-.17.4-.03.03-.24.06-.57-.06-.76l-.04.45c.01-.72-.1-.17-.18-.42 0 0-.04-.57-.07-.67l-.12.6c-.34-.02-.21-.14-.66-.05Z" fill="#BDBDBD"/><path d="m41.58 27.34-.19.24c-.12-.08-.37-.17-.4-.33l-.06.3c.17-.09.1.19.12.54l.34-.33c-.1.26-.03.35-.2.45h.41c.35.28-.02-.15.06.1v.04l.02.04.1.28.36-.66c-.22-.22-.22-.23-.51-.35.32-.03.32-.12.55-.24-.2-.15-.09-.15-.43.04l.24-.7c-.18.23-.16.4-.41.58Z" fill="#ADADB5"/><path d="M17.87 29.64c.07-.3.02.08.27-.37a.1.1 0 0 0 .02-.05l.03-.06.23.53.09-.45c.05.09.1.3.14.37.2.4.1.17.18.12a17.1 17.1 0 0 0-.53-1.79c-.19.38-.22.28-.36.81-.08.33-.08.54-.07.89ZM37.37 29.54c.26.13.21-.02.28-.36l.12.46.2-.5c.1.12.1.08.06.42.12-.08.03-.02.16-.02.37.02-.17.15.1.02l.05-.5c-.04-.24-.1-.4-.18-.62-.09-.26-.1-.35-.29-.47-.14.46-.2 1.07-.5 1.57Z" fill="#ADB5B5"/><path d="M38.93 34.03c.23-.15.1-.17.27-.38.4.03.29.13.55.06.19-.06.27-.16.34-.3-.1-.21.24-.15-.04-.24-.1-.38-.02-.13-.35-.31-.3.03-.58.22-.86.4.18.19.17.16.4.24-.11.06-.08.09-.36.02.25.4-.04.23.05.51Z" fill="#BDBDC6"/><path d="M40.33 31.67c.06-.09.03-.11.1-.18-.08-.22.1-.1-.16-.18l.31-.17-.47-.12c.22-.09.38-.27.55-.39-.23.13-.55.22-.75.33l-.08-.32c-.22.15-.07-.2-.2.3-.05.21 0 .16-.1.38a9.2 9.2 0 0 1-.28.54l1.08-.19Z" fill="#9C9CA5"/><path d="M35.16 17.78c.65-.02.94.3 1.09.37-.15.07-.15.08-.3.17.12.08.03.06.08.19.23.14.44.09.72.17-.17-.23-.13-.28-.37-.55.33.12.06-.03.28.14.07.07.13.17.18.25-.01-.37.07-.59-.13-.83-.2-.1-.15.2-.17-.1.08.36-.03-.09-.08.37l-.02.08c-.18-.46-.2.1-.47-.46l-.27-.48-.02-.05c0-.03-.03-.04-.03-.06l.26.67c-.02-.01-.05-.07-.06-.04-.03.04-.3-.26-.82-.44l.75.57c-1.12-.13-.67-.05-.62.03Z" fill="#ADADAD"/><path d="M27.57 7.6c-.16.28.05.2.24.16v.42s-.39.04-.23.47c.12.33.01.08.13.12.4.12.14.12.5 0 .2.02-.02.1.13-.04.31-.33-.14-.26-.14-.95.4.09.14.05.24 0 0 0 .21-.48-.2-.33-.29-.82-.01-.23-.45-.42-.01.4 0 .34-.33.42.03-.02.1.15.1.15Z" fill="#EBCB36"/><path d="m38.11 25.7.17-.06c.19.2.12.34.32.5l.25.19c.1.09.12.14.21.2l.3-.85c-.22-.12-.16 0-.11-.33-.02.01-.05.01-.05.04-.04.12-.35.1-.35.1l-.21-.13.07.3c-.26-.05-.1-.32-.55-.27l.04.08-.12-.48.03.71Z" fill="#949494"/><path d="M18.85 39.1c-.13-.18.01-.04-.13-.15-.23-.17-1-.52-1.27-.55l-.2.05c-1.7 0-3.83.61-4.48 2.36l1.1.82.18.1c.07-.06.07-.05.13-.14.98-2.13 2.52-2.43 4.67-2.5Z" fill="url(#fltpjbez2)"/><path d="M16.44 33.63c.33.3.07.05.55.02l.1.21c.1.17.02.08.15.19.01-.03.16-.13-.13-.43l-.06-.06.27-.31c-.24-.18-.53-.4-.82-.4l-.17.09a.1.1 0 0 1-.06.02l-.2.2c.11.2.22.23.37.47Z" fill="#BDBDC6"/><path d="M17.22 35.75c-.18.2-.17.07.14.17.26.08.08 0 .35.04.26.04.48.1.77.15-.08-.24-.08-.16 0-.38l-.86-.03c.33-.04.76-.12 1.2-.04-.33-.4-.31-.14-.97-.39l-.35.2c-.13.09-.06.02-.2.14-.13.13-.04.03-.08.14Z" fill="#CECECE"/><path d="m15.97 31.67.92.21c-.09-.22-.2-.39-.27-.61l-.15-.5c0-.01-.03-.02-.03-.05 0-.02-.02-.04-.04-.05-.06.08-.05.05-.11.17-.02.01-.03.1-.03.1l-.66-.23.46.34-.32.2c.03.02.12.06.15.06l-.24.17c.13.08.23.11.32.2Z" fill="#9C9CA5"/><path d="m14 24.87.12.55.08-.12c.15-.2.09-.17.27-.21-.08-.08-.16-.16-.2-.25.18.03.32.08.34-.05v-.26l.2.22.17-.52.06.18c.03.08.04.17.07.22.13-.26.13-.24.32-.17l-.14-.3-.25-.2c-.25.14-.24.2-.4.4-.05-.33-.2-.65-.29-1-.1.32.1.56.15 1.01-.44.28-.22.29-.5.5Z" fill="#C6C6C6"/><path d="M38.11 25.7c-.07.33-.08.51 0 .82l.01.53c.12-.15.14-.12.16-.54.02-.23-.02-.36.06-.52l.06.93c.13.05-.08.06.1 0a.1.1 0 0 0 .05-.03l.12-.07c0 .3-.04.24.18.47.03-.28.13-.39.07-.64-.08-.23-.19-.26-.3-.53-.2-.16-.14-.27-.32-.5l-.19.08Z" fill="#DEE7E7"/><path d="M19.67 36.68c-.13.04-.04-.05-.22.14-.12.12-.1.17-.19.3.32.07.44.18.73.08l.49.14c0-.14-.1-.77.36-.65-.61-.08-.76-.23-1.02-.13l-.06.03-.09.09Z" fill="#B5B5B5"/><path d="M27.16 43.56c-.25-.34-.19-.45.08-.61.25.22.28.46-.08.61Zm-.4-.01c.24.14.28.18.61.1-.1.59-.32.47-.46.5l-.08.02c.55.27.96-.41.84-.96-.1-.44-1.05-.7-.9.34Z" fill="#fff"/><path d="m17.33 27.08.17-.3c.24.12.1 0 .27.25l.06-1.05.14 1.07.2-.04-.09-1.24-.22-.16c-.1.59-.7.84-.53 1.47Z" fill="#E7E7E7"/><path d="m15.72 19.91.08.42c.08-.23.15-.5.15-.85.08.33.08.36.2.68.16-.2.28-.17.6-.12-.15-.28-.21-.3-.35-.53-.18-.33-.1-.3-.52-.46-.06.38-.15.45-.16.86Z" fill="#D6D6D6"/><path d="m38.92 27.57-.1.3c.03.09-.05.3.28.17.33-.15-.04 0 .12-.3.12.15.15.27.3.37l.2.21c.03-.15.06-.61.22-.64l.14-.36c-.69.1-.1.31-.67.17-.16-.04-.1-.08-.28-.01-.28.1.1.23-.21.09Z" fill="#ADADAD"/><path d="M39.94 19.34c-.02.01-.04.01-.04.04l-.48.64c.45-.1.32.02.66.05l.12-.6.07.67c.06.24.2-.3.18.41l.04-.44c.01-.2 0-.43-.05-.6l-.25-.44-.25.27Z" fill="#D6D6D6"/><path d="M15.8 22.96c.08-.32.1-.35.4-.56.02-.56-.3-.63-.36-1.1-.15-.08.02.17-.15-.1l-.08 1.5s.01.03.03.03l.05.07.03.03c-.02 0 .08.13.08.13Z" fill="#C6C6C6"/><path d="M18.6 18.06c.03-.36-.08.06.04-.18.01-.03.1-.16.12-.17a.1.1 0 0 0 .03-.06l.05-.2.01-.23c-.37-.19-.16.24-.28-.08 0-.02-.02 0-.04 0-.58.77-.37.47-.34 1.35l.41-.43Z" fill="#A5ADAD"/><path d="M18.15 35.15c.16.19-.21.03.27.16.07.03.3.05.38.08v-.8l-.68-.04.1.12-.37.14.05.07.05.07c.02 0 .04.03.06.05l.14.15Z" fill="#9CA5A5"/><path d="M37.42 17.69c.24.3.35.23.35.58l.16.17.02-.06c.03.07.41-.89-.33-1.22l-.05.08c.01-.02.17.1-.03-.08-.1-.07.03-.02-.21-.09l.1.62Z" fill="#ADADAD"/><path d="M40.89 26.86c-.2.38-.03.51-.07 1.03l.04-.05.03-.05c.04-.15.02-.08.04-.22l.06-.3c.03.14.28.24.4.32l.19-.23c.1-.25.05-.29.02-.61l-.26.26c-.04-.36.12-.21-.25-.23-.14.19-.02.1-.2.08Z" fill="#BDBDC6"/><path d="M16.63 23.04c-.01.02-.05-.01-.07.03-.06.25.02-.12-.13.08l.08.74.49-.48-.12.52v-.13c.13-.1.04-.01.25-.03l.24-.32-.04-.07-.14-.36c-.5-.04-.12.02-.56.02Z" fill="#B5B5B5"/><path d="M29.68 44.2c.5-.01.77-.03.8-.61l-.3-.21c.29-.35.2-.68-.46-.6-.3.18-.4.35.03.16.37-.17.17-.03.25-.02.1.4.06.37-.2.52.16.08.48.12.36.46s-.36.1-.54-.01c.02.34-.04.1.06.31Z" fill="#FFF7F5"/><path d="M35.84 36.64c.3.34-.18.08.42.33a1.2 1.2 0 0 0-.62.32l.57-.09c.35.12.31-.05.72-.08-.2-.28-.22-.45-.49-.5-.23-.08-.3-.05-.6.02Z" fill="#BDBDBD"/><path d="M19.6 17.18c-.13.31-.17.28-.47.56l.34-.1c.3.23.15.02.25.37l.16-.13.06-.04c.2-.13.05 0 .25-.17v-.28c-.02-.12.01-.07-.06-.16l-.18-.2-.36.15Z" fill="#BDBDC6"/><path d="M35.39 37.36c-.02.08-.15.15.38.08l.21-.06c.25-.11.07.05.23-.18l-.57.1c.17-.2.38-.28.62-.33-.6-.24-.12 0-.42-.33-.32-.07-.15-.05-.57.03l.37.22a.66.66 0 0 0-.17.04l-.04.01-.06.1c-.05.08.1.15-.32.17.44.06.26.08.34.15Z" fill="#A5A5AD"/><path d="M16.7 25.23c-.18 0 .15.4.2.5.14-.21.07-.1.14-.33l.26.1.04.02.22-.12.04-.05.1-.26c-.18-.12-.13.16-.16-.14-.18.06-.1.11-.22.06l-.02-.65-.18.65-.41.22Z" fill="#ADB5B5"/><path d="m13.72 26.76.57-.46.04-.01.04-.03.05-.04.05-.04-.98-.37c-.02.5.1.54.23.95Z" fill="#DEDEDE"/><path d="M17.2 34.15c.06.07-.05.01.2.14 0 0 .2.1.23.1.23.11.23.12.5.16l.67.04v.8c-.08-.03-.3-.05-.38-.08-.47-.13-.11.03-.27-.16h-.28l-.02.12c.67.26.64 0 .98.4h.02v-1.45c-.01-.3-.02-.17-.1-.25l.04.5c-.32-.05-.59-.05-.9-.12-.26-.04-.44-.15-.7-.2Z" fill="#6B6B6C"/><path d="M28.16 43.12c.14.1.18.04.32.1l.03 1.03h.29l-.03-1.38-.6.25Z" fill="#fff"/><path d="M13.96 38.75c.4-.04.08.03.45-.22.16-.1.26-.13.43-.2.36-.05.41-.18.82-.22.35-.04.72-.02 1.08.02l-.98-.04c-.08-.28-.16-.3-.78-.43-.86-.19-.77-.1-.85.13-.15.2-.12.34-.15.64l-.02.32Z" fill="#B5B5B5"/><path d="m20.07 19.52.08-.18c0-.05-.03.03.1-.1.15-.15.1-.07.19-.24-.1-.1-.19.17-.03-.25.1-.23.15-.15.15-.15l-.2-.05c-.93.09-.69.39-.69.44 0 0 .19-.05.32.23.12.25.03.08.08.3Z" fill="#ADADB5"/><path d="M25.72 44.1c.34 0 .16.06.25-.21l.09-.78c.08-.6.1-.21-.07-.36l-.27.1-.22.11-.03.04c.2.04.13-.04.3.07l-.05 1.04Z" fill="#fff"/><path d="M35.88 19.05c.05.19-.08.1.29.3.2-.39.11-.2.43-.37l-.05-.25c-.21-.02-.36-.07-.5-.1l-.17.42Z" fill="#ADADAD"/><path d="M25.7 13.5c-.23 0-.22-.12-.25-.31.1-.12.3-.1.46 0 0 .2.03.31-.2.31Zm-.4-.12c.28.29.31.33.72.13l.1-.24-.24-.3c-.4-.03-.56.04-.59.41Z" fill="#A07B12"/><path d="M27.82 13.19c-.23-.45.3-.42.46-.24-.05.28-.16.42-.46.24Zm.1.14h.15c.37-.06.34-.23.27-.59l-.52-.05c-.3.34-.33.46.1.64Z" fill="#946F0A"/><path d="m29.05 13.47.26.02c.26-.08.06.06.22-.22-.37.1-.64.17-.5-.25.26-.13.15-.04.26-.07.66-.22-.39.36.24-.11-.63-.03-.74-.06-.67.56l.19.07Z" fill="#A28318"/><path d="M27.08 13.27c-.34.13-.32.14-.54-.1.08-.26.13-.32.45-.27l.09.37Zm-.4.17.41-.06v-.1c.21-.16.1-.24-.04-.47-.76-.08-.78.5-.37.63Z" fill="#946F0A"/><path d="M30.06 13.34c.2-.24.35-.3.54 0-.21.33-.39.32-.54 0Zm.11.33.33-.01.07-.47-.04-.07-.06-.14c-.35.08-.3.04-.53.2-.03.35-.04.43.23.49ZM28.06 10.79c-.43-.08-.32-.37.1-.27l-.1.27Zm-.19.18.27-.06c.12-.19.06.18.1-.23.03-.2-.04-.16-.09-.28l-.42-.02-.04.4c.04.02.05.04.05.06 0 .03.03.04.04.05.03 0 .08.06.1.08Z" fill="#A07B12"/><path d="m27.08 13.27-.1-.37c-.31-.04-.36.01-.44.26.2.25.2.24.54.1Z" fill="#EDD846"/><path d="M27.82 13.19c.3.18.41.04.46-.24-.18-.18-.69-.2-.46.24Z" fill="#FADC47"/><path d="M27.16 43.56c.36-.15.33-.4.08-.61-.27.16-.33.27-.08.61Z" fill="#CA1320"/><path d="M30.06 13.34c.15.32.33.32.54 0-.19-.28-.35-.23-.54 0ZM25.45 13.19c.03.2.03.32.25.31.24 0 .23-.12.21-.31-.18-.1-.35-.13-.46 0ZM31.31 13.92c.32-.08.19 0 .23-.25 0 0-.14-.26-.36-.04-.16.16.03.22.13.29Z" fill="#EBCB36"/><path d="m29.78 14.43.02-.25c-.18-.01-.38-.1-.57.05.18.2.24.16.55.2Z" fill="#010101"/><path d="M18.97 39.4c.05.08-.07.15.25.25.35.1-.02.03.33-.08l-.17-.2-.4.03Z" fill="#F7F7F7"/><path d="M31.9 14.4c.11.07.17.2.28-.03.06-.11.04-.06.02-.18-.07-.25-.1-.12-.15-.14l-.2.1.06.25Z" fill="#FEEB48"/><path d="M27.53 14.07c.21.2.29.25.57 0-.03 0 .08-.11-.28-.1-.38 0-.24.07-.3.1ZM26 14.22c-.11.27-.02.13.02.2l.33-.02c.15-.22.05-.01.16-.26l-.5.08Z" fill="#010101"/><path d="M30.76 14.71c.05.1-.03.16.26.22.32.07.24-.03.28-.05-.15-.18-.3-.25-.54-.17Z" fill="#1D1007"/><path d="m24.08 14.3.02-.36-.2.03c-.13.17-.07.05-.07.35.35.08.14.04.25-.01Z" fill="#FEEB48"/><path d="M24.35 15.04c.33-.08.43-.17.53-.44-.31.06-.42.17-.53.44Z" fill="#010101"/><path d="M24.54 13.75c.22.09.38-.05.32-.22-.2-.1-.32-.07-.32.22Z" fill="#EDD846"/><path d="m28.06 10.79.1-.27c-.42-.1-.53.2-.1.27Z" fill="#FADC47"/><path d="M39.43 19.47c.03.01.06.17.2 0 .1-.1.01-.14-.02-.22-.24.06-.26 0-.18.22ZM16 29.8c.06-.03.26.04.17-.17-.06-.12-.1-.08-.19-.08-.01.02-.24-.12.01.25ZM16.97 33.9c-.25-.2-.18-.22-.3.1.24.14.17.15.3-.1ZM39.47 33.92c.02-.23.03-.03-.09-.15-.26.12-.26.16 0 .31.1-.11.08 0 .1-.16ZM40.24 29.7c.15-.23-.03-.1-.04-.14-.21-.06-.22.03-.17.25.14-.04.08.09.21-.1Z" fill="#D6D6D6"/><path d="M36.34 19.37c.2.15.21.09.29.09-.1-.6-.23-.15-.3-.1Z" fill="#DEDEDE"/><path d="M38.24 22.42c.19.13.02.22.28 0-.18-.46-.22-.04-.28 0ZM17.28 22.07c-.04.22-.06.07.04.24.17-.06.13-.01.22-.2-.18-.1-.04-.08-.26-.04ZM38.7 22.04c-.06.26-.09.08.03.29.2-.07.16-.03.23-.23l-.25-.06ZM17.95 22.26l-.3.05c.1.28-.03.16.22.2l.08-.25ZM39.94 24.93c.25.03.35-.24-.03-.23v.18c0 .02.01.04.03.05ZM16.58 19.28c-.06.09-.16-.16-.04.2l.26-.03c-.08-.15-.1-.19-.22-.17ZM16.05 24.78l.1.17c.19-.12.14.02.1-.2-.14-.04-.08-.12-.2.03ZM19.58 19.37c.22.12.12.17.21-.08-.13-.05-.18-.1-.21.08Z" fill="#D6D6D6"/><path d="M28.07 35.95c5.59 0 10.12-4.47 10.12-9.97 0-5.51-4.53-9.98-10.12-9.98a10.05 10.05 0 0 0-10.12 9.98c0 5.5 4.53 9.97 10.12 9.97Z" fill="#2B2A29"/><path d="M28.07 35.86a9.95 9.95 0 0 0 10.03-9.88 9.95 9.95 0 0 0-10.03-9.89 9.95 9.95 0 0 0-10.03 9.89 9.95 9.95 0 0 0 10.03 9.88Z" fill="url(#gltpjbez2)"/><path d="M28.07 16.4a9.7 9.7 0 0 1 6.85 2.81 9.45 9.45 0 0 1 0 13.5 9.73 9.73 0 0 1-6.85 2.8 9.7 9.7 0 0 1-6.85-2.8 9.45 9.45 0 0 1 0-13.5 9.73 9.73 0 0 1 6.85-2.8Zm6.75 2.93a9.62 9.62 0 0 0-13.5 0 9.32 9.32 0 0 0 0 13.3 9.62 9.62 0 0 0 13.5 0 9.32 9.32 0 0 0 0-13.3Z" fill="#2B2A29"/><path d="M28.07 32.68c3.76 0 6.8-3 6.8-6.7s-3.04-6.7-6.8-6.7c-3.75 0-6.8 3-6.8 6.7s3.05 6.7 6.8 6.7Z" fill="#084272"/><path d="M33.43 37.45c.2-.1.5-.3.71-.34.2-.4 2-1.06 2.7-1.21l.48-.07c.1-.92.18-2.2.16-3.24-.4-.08-.98-.19-1.37-.16-.43.04-.9.64-1.48 1.02-.36.3-.86.45-1.28.69-.42.23-1.52.88-2.69 1.6-.37.23-1.33 1.3-2.55 1.34-1.32.07-5.01-2.68-5.42-2.81-.24-.08-1.14-1.19-1.97-1.6-1.4-.67-1.88-.18-1.88 0 0 .4-.13 1.61-.07 3 .02.34.64.3 1.38.47.74.19 1.61.6 1.97.81.7.4 2.5 1.95 3.32 2.27.05.25 2.13 1.54 3.13 1.16l.3-.12c.87-.06 3.43-2.28 4.56-2.81Z" fill="#463222"/><path d="M28.11 37.6c1.2 0 2.18-.97 2.18-2.16 0-1.19-.97-2.15-2.18-2.15-1.2 0-2.18.96-2.18 2.15s.98 2.15 2.18 2.15Z" fill="#2B2A29"/><path d="m26.95 26.54-.1.14-.11.42c-.19 2.04.37 3.03 1.23 4.61 1.1-.91 1.41-3.5 1.23-4.7l-.14-.38-.06-.29c1.88-.14 3.36-1.95 4.32-3.4l-.01.02c-.15-.3.08-.06-.23-.18-1.24-.44-4.3.88-5.13 1.93-1.33-1.21-3.25-2.25-5.17-1.89a6.71 6.71 0 0 0 3.44 3.31c.8.3.6.03.73.4Z" fill="#EBCB36"/><path d="M28.11 37.4c1.1 0 1.98-.88 1.98-1.96s-.88-1.95-1.98-1.95-1.98.87-1.98 1.95.88 1.96 1.98 1.96Z" fill="#EFD75C"/><path d="M28.11 37.08c.92 0 1.67-.73 1.67-1.64 0-.9-.75-1.64-1.67-1.64-.92 0-1.67.73-1.67 1.64 0 .9.75 1.64 1.67 1.64Z" fill="#2B2A29"/><path d="M32.1 23.37c-.99-.31-3.6.35-4.02 1.6.36.21.64.82.81 1.2 1.43-.2 2.8-1.4 3.22-2.8Z" fill="url(#hltpjbez2)"/><path d="m36.06 35.8.98-.18.03-2.57c-.2.06-.43.1-.61.14-.25.06-.23.02-.39.2-.5 0-1.8.45-2.26.7l-.2.16c-1.39.97-3.1 2.65-4.38 3.29-1.49.74-2.44-.13-3.4-.78-.7-.51-3.05-2.62-3.66-2.68-.17-.26-.46-.3-.8-.41-.35-.12-.59-.21-.92-.21.19-.16-.26-.13.28-.14-1.2-.47.71.17.95.22-.42-.51-.35-.42-1.1-.68-.68-.24-.78-.37-1.5-.17.37.46 1.94.66-.18.13l.03 2.39c-.01.62.05.5.17.56-.13-.2-.05.06-.1-.33l-.02-2.25c.07-.37 0-.12.1-.27.08.15.01 0 .02.15v.13l-.01 2.4.97.24c1.36.4 4.2 2.35 5.22 3.1.08.06.1.05.1.05 1.47.52 2.02 2.25 4.54.45.24-.17.37-.23.65-.39.04-.18-.05-.01.1-.17 1-.99 2.82-1.74 4.15-2.47.38-.23.8-.43 1.24-.6Z" fill="url(#iltpjbez2)"/><path d="M35.66 25.98c-.27.15-.1-.03-.16.18l1.2.62-1.2.1-.03.35.42.09c.37-.2 1.16-.01 1.5-.26-.07-.22.07-.13-.55-.43-.21-.1-.49-.26-.71-.34.34-.47 1.23-.34 1.3-.84-.4-.16-1.12-.09-1.4-.35h-.47c.06.32.06.24.47.29.24.03.47.05.7.1l-1.07.49ZM24.09 17.79c.52-.27.9-.2 1.14.29.31.65.02.96-.53 1.14-.02 0-.61-1.43-.61-1.43Zm-.45-.07.73 1.78.26-.04c.33-.24.6-.21.88-.51.26-.29.27-.7.09-1.08-.5-1.03-1.35-.16-1.96-.15ZM22.26 19.77c-.4-.35-.33-.27-.42-.53.41-.28.89.18.52.6l-.1-.07Zm-.75-.46c-.18.3.07-.11-.05.23.34.26.35.39.62.67.67.75.42.47.62.64.16-.15.2-.13.3-.31-.27-.29-.38-.2-.52-.59l.97.3c.12-.13.15-.13.26-.34l-.94-.24c0-.47.1-.4-.14-.8-.74-.14-.68.26-1.12.44ZM34.84 21.11c.07-.15.06-.35.63-.53.4.57-.22.66-.63.53Zm-1.03.08c.1.2.1.13.19.34.26-.13.45-.39.72-.47l-.4.88.27.36.41-.91c.45.08.54.2.86-.17.05-.46-.32-.89-.57-1.1-.14.16-.53.38-.74.54-.13.1-.63.43-.74.53ZM22.01 30.15c-.1-.29-.01-.1-.17-.18-.13.16-.78.5-1.06.62.1-.39.32-1.25.53-1.51l-.06-.33-1.53.79c-.2.18-.06-.07-.13.2.33.1.8-.47 1.2-.56-.03.58-.6 1.3-.44 1.83.2-.05 1.52-.74 1.66-.86ZM19.82 26.26l.08.38.7-.09c.08.74-.02 1.1-.85 1.1-.32-.02-.57-.14-.69-.38-.18-.4 0-.55.1-.8-.32-.01-.33-.04-.35.37-.02.53.3 1.23 1.03 1.25 1.02.01 1.17-1.06.76-1.85l-.78.02ZM20.92 23.62l-.75-.1c-.06.57.07.19.6.46-.01 1.45-2.35.77-1.42-.48l.08-.14c-.58-.2-.76 1.47.16 1.78 1 .35 1.48-.62 1.33-1.52ZM31.11 18.2a.84.84 0 0 1 .3-.74l.2.23c-.02.36-.14.53-.5.52Zm-.5.84c.2-.12.3-.5.34-.74.37.09.39.14.81.1.27-.44.35-.39.15-.9l-.93-.32-.69 1.68.32.18ZM27.16 17.37c.14.13.17.12.29.55l-.49.04.2-.59Zm-.3 1.25.05-.48.65-.05.25.5.43-.02c-.12-.34-.83-1.75-1.1-1.88l-.62 2.03.33-.1ZM32.75 19.24c.3-.07.3-.15.59-.25l-.18.59c-.35-.17-.3-.19-.4-.34Zm.32 1.25c.16.09.05.06.21.06.15-.57.57-1.54.48-2-.27.06-1.65.88-1.85 1.04.3.18.35-.04.65-.18.27.14.29.2.52.37-.11.46-.22.38 0 .7ZM35.73 23.13h.65c-.12.17-.04.08-.2.23-.23.2-.08.1-.34.2l-.11-.43Zm-.45 1.15.2.16c.33-.4 1.12-.82 1.41-1.18 0 0 .22-.14-.05-.23-.4-.14-.83-.01-1.35-.14l-.14-.04-.45.08c.17.28.25.17.63.18l.23.64c-.2.09-.23.11-.43.24l-.05.3ZM33.57 31.8c.08-.07.12-.09.2-.14l.21.6-.57-.26c.12-.17-.03-.01.16-.2Zm-.13.66c.4.06.53.33.83.28.1-.3-.14-.69-.26-1.01-.12-.3-.19-.72-.4-.93-.2.26 0 .27.1.74l-.45.33-.55-.26-.3.28 1.03.57Z" fill="#010101"/><path fill-rule="evenodd" clip-rule="evenodd" d="m22.6 31.8.31.24c-.14.23-.2.23-.6.35l.29-.59Zm-.43-.14c-.05.23-.1.35-.18.59-.12.3-.15.23-.04.5l.5-.16 1.35-.7c-.21-.27-.27-.05-.62.13l-.52-.33c.04-.25.13-.42.21-.6l-.16-.16c-.09-.08-.12-.1-.18-.13-.03-.01-.36.86-.36.86ZM20.52 21.57l.58.12c.01.1.05.05-.01.2-.1.21-.1.15-.23.21l-.14-.22-.2-.31Zm1.56.16.07-.28-2.07-.31c-.01.31.77 1.25 1.02 1.56l.21.21c.13-.39-.02-.3-.29-.52.07-.43.13-.29.25-.65.44 0 .43.13.8-.01ZM35.39 31.18c.06.23-.08.11.2.25.06-.33.52-.85.68-1.14l-.26-.1-.07.39c-.28-.1-.66-.37-.95-.55-.23-.14-.35-.25-.52-.35-.16.17-.16.1-.22.36.49.29.98.6 1.36.89l-.22.25ZM35.03 28.26v.28l.5.13 1.24.45.18-.35c-.33-.23-1.27-.47-1.71-.66l-.1.07c-.02.03-.09.06-.11.08Z" fill="#010101"/><path fill-rule="evenodd" clip-rule="evenodd" d="m27.25 25.95-.01.25c.57.08.94.06 1.5.01L28 24.96c-.2.17-.52.72-.75.99Zm1.43.48h-1.27s-.28-.02-.34-.04l-.08.37c-.3 1.3.4 3.02.95 4.1.6-.44 1.77-4.1.74-4.43Z" fill="url(#jltpjbez2)"/><path fill-rule="evenodd" clip-rule="evenodd" d="M27 26.15c.24-.38.57-.9.78-1.26-.38-.96-2.92-1.82-3.69-1.42.18.7.98 2.61 2.91 2.68Z" fill="url(#kltpjbez2)"/><path fill-rule="evenodd" clip-rule="evenodd" d="M28.07 18.99a7.03 7.03 0 0 1 7.08 6.97 7.03 7.03 0 0 1-7.08 6.98A7.03 7.03 0 0 1 21 25.96 7.03 7.03 0 0 1 28.07 19Zm0 .13a6.9 6.9 0 0 1 6.96 6.86 6.9 6.9 0 0 1-6.96 6.85 6.9 6.9 0 0 1-6.96-6.85 6.92 6.92 0 0 1 6.96-6.86Z" fill="#2B2A29"/><path fill-rule="evenodd" clip-rule="evenodd" d="M27.01 35.17c-.01.01-.02.05-.04.06l-.02.07.08.7c.09.24.46.46.58.5.45-.1.38-.16.9-.04.08-.38.02-.34.45-.46-.06-.48-.03-.29.09-.69-.12-.2-.2-.25-.34-.6-.41-.1-.33-.08-.65-.26-.28.16-.25.18-.66.14-.19.4-.07.28-.39.58Z" fill="#842218"/><path fill-rule="evenodd" clip-rule="evenodd" d="M27.74 35.75c.42 0 .41 0 .73-.08.33-.66.06-1.01-.82-.92-.16.6-.33.4.09 1Z" fill="#B92123"/><path fill-rule="evenodd" clip-rule="evenodd" d="M27.01 35.17c.32-.3.2-.2.39-.58.4.04.38.02.66-.14.33.18.24.16.65.26.14.34.2.38.34.6-.1.4-.15.2-.1.7-.42.1-.36.07-.44.45-.52-.1-.45-.07-.9.04.3.11.18 0 .45 0 .18 0 .25.06.47.07.37-.4.04-.18.59-.46-.03-.6.06-.46.13-.96-.37-.26-.27-.22-.43-.57-.68-.1-.4-.1-.76-.26l-.3.2c-.13.05-.31.05-.39.1-.07.03-.21.39-.36.55Z" fill="#D0B871"/><path fill-rule="evenodd" clip-rule="evenodd" d="M21.83 35.43c.12-.2-.07-.08.38-.32l-.08.49c-.21-.07-.1.01-.3-.17Zm.34-.58c-.28.16-.82.72-1.06.8.07.1.04.1.1.2.29-.16.17-.17.4-.33.23.08.28.14.5.23-.03.36-.08.4.07.67l.15-.01.27-1.66c-.3-.03-.15-.01-.43.1ZM20.27 33.97c-.21.64.12.56.24.88.15.42-.32.53-.59-.02l-.16.2.4.33c.33-.04.74-.14.68-.55 0-.03-.88-1.04.06-.76.66.41-.18-.56-.63-.08ZM24.4 37.8c.17-.25.27-.48.38-.7.14-.28.3-.42.33-.7-.48-.03-.73.38-1.2.47l.17-1.22c-.4.05-.2.02-.65.52-.2.22-.39.38-.57.59.36.2.37-.45.83-.62l-.18 1.07c.24 0 .22-.05.46-.2l.6-.3c-.1.3-.26.57-.48.86.17.18-.01.2.32.23ZM26 37.97c-.07-.3.17-.47.4-.56.1.32.03.6-.4.56Zm.51.2c.12-.19.45-.34.13-.7a3.37 3.37 0 0 0-.62-.35c-.2.26-.32.48-.48.73-.25.35-.43.37-.18.73.28-.12.33-.28.4-.53.38.1.29.2.75.12ZM27.9 39.5c-1-1.26 1.08-1.95.74-.38-.08.41-.26.48-.74.39Zm1.04-.21c.68-1.05-1.05-1.7-1.54-.81-.59 1.07.99 1.67 1.54.8ZM31.34 36.42c.42-.18.58.2.38.53-.24-.14-.29-.28-.38-.53Zm.8 1.2c-.2-.29-.31-.26-.4-.56l.74.3.34-.21c-1.03-.35-.65-.22-.8-1-.54-.1-.7.19-1.04.42.25.45.57.81.86 1.27l.3-.22ZM34.02 35.27l.24.4c-.44-.09-1.12-.48-1.5-.33-.02.17.2.43.34.67.18.32.2.53.45.75.04-.1.18-.04-.17-.54-.16-.22-.2-.3-.3-.54.48.06 1.1.45 1.56.39l-.56-1.1c-.2-.38-.07-.2-.33-.23l.27.53ZM35.41 34.42c.3.16.25.08.4.38l-.34.15-.06-.53Zm.54.46c.45.34.11.38.68.23a4.76 4.76 0 0 0-1.31-1.17c-.16.44-.03 1.23-.01 1.74.3-.12.2-.15.16-.57l.48-.23ZM30.82 38.58c.33-.27.2-.06.28-.35l-.56.29c-.09-.2-.07-.22-.25-.42.23-.25.39-.18.33-.44l-.47.2-.21-.32c.17-.2.37-.2.35-.44-.31.11-.4.3-.78.41.17.29.7 1.14.92 1.32.2-.16.15-.17.4-.25Z" fill="#010101"/><path fill-rule="evenodd" clip-rule="evenodd" d="m36.92 32.59.12.37s-1.76.3-2.06.51c0 0 .34-.55 1.94-.88Z" fill="#B19132"/><defs><linearGradient id="altpjbez2" x1="16.19" y1="40.72" x2="38.98" y2="34.04" gradientUnits="userSpaceOnUse"><stop stop-color="#842218"/><stop offset=".5" stop-color="#C82125"/><stop offset="1" stop-color="#7A1717"/></linearGradient><linearGradient id="bltpjbez2" x1="27.5" y1="8.5" x2="28.58" y2="12.34" gradientUnits="userSpaceOnUse"><stop stop-color="#CB2226"/><stop offset="1" stop-color="#7A1717"/></linearGradient><linearGradient id="cltpjbez2" x1="33.33" y1="12.81" x2="23.73" y2="12.81" gradientUnits="userSpaceOnUse"><stop stop-color="#A5842A"/><stop offset=".51" stop-color="#FFE867"/><stop offset="1" stop-color="#AC8B31"/></linearGradient><linearGradient id="dltpjbez2" x1="36.82" y1="38.78" x2="43.68" y2="37.97" gradientUnits="userSpaceOnUse"><stop stop-color="#842218"/><stop offset=".5" stop-color="#C82125"/><stop offset="1" stop-color="#7A1717"/></linearGradient><linearGradient id="eltpjbez2" x1="28.02" y1="38.92" x2="28.02" y2="41.88" gradientUnits="userSpaceOnUse"><stop stop-color="#E7E7E7"/><stop offset="1" stop-color="#524A4E"/></linearGradient><linearGradient id="fltpjbez2" x1="12.5" y1="38.78" x2="19.3" y2="37.98" gradientUnits="userSpaceOnUse"><stop stop-color="#842218"/><stop offset=".5" stop-color="#C82125"/><stop offset="1" stop-color="#7A1717"/></linearGradient><linearGradient id="gltpjbez2" x1="39" y1="25.5" x2="18" y2="25" gradientUnits="userSpaceOnUse"><stop stop-color="#A5842A"/><stop offset=".45" stop-color="#FFE867"/><stop offset="1" stop-color="#A5842A"/></linearGradient><linearGradient id="hltpjbez2" x1="28" y1="24.5" x2="32.5" y2="24" gradientUnits="userSpaceOnUse"><stop stop-color="#CB2226"/><stop offset="1" stop-color="#7A1717"/></linearGradient><linearGradient id="iltpjbez2" x1="37.88" y1="36.23" x2="18.91" y2="35.18" gradientUnits="userSpaceOnUse"><stop stop-color="#A5842A"/><stop offset=".45" stop-color="#FFE867"/><stop offset="1" stop-color="#A5842A"/></linearGradient><linearGradient id="jltpjbez2" x1="26.87" y1="27.43" x2="29.33" y2="27.36" gradientUnits="userSpaceOnUse"><stop stop-color="#CB2226"/><stop offset="1" stop-color="#7A1717"/></linearGradient><linearGradient id="kltpjbez2" x1="24.01" y1="24.53" x2="28.15" y2="24.1" gradientUnits="userSpaceOnUse"><stop stop-color="#CB2226"/><stop offset="1" stop-color="#7A1717"/></linearGradient></defs></svg>