<!-- by TradeStack --><svg width="56" height="56" viewBox="0 0 56 56" xmlns="http://www.w3.org/2000/svg"><path fill="#F0F3FA" d="M0 0h56v56H0z"/><path fill-rule="evenodd" d="M41 21H5v9h17v-5h.63l.05.88h.02c.3-.54.8-.88 1.52-.88 1 0 1.78.69 1.78 1.92 0 1.49-.92 2.08-1.91 2.08-.56 0-1.06-.24-1.33-.72h-.02V30H41v-9Zm-3 3-.58.2v.8H37v.57h.42v2.06c0 .6.15 1.37.9 1.37.23 0 .43-.05.55-.11l-.03-.57c-.1.04-.2.07-.37.07-.37 0-.47-.33-.47-.82v-2h1V25h-1v-1Zm-6 5h-.67v-4H32v4Zm-.42-6c.25 0 .41.2.42.45 0 .24-.16.45-.43.45-.25 0-.41-.2-.41-.45 0-.24.17-.45.42-.45Zm-8.84 4.15v-.23c0-.67.57-1.3 1.26-1.3.81 0 1.27.52 1.27 1.35 0 .99-.5 1.43-1.31 1.43-.68 0-1.22-.6-1.22-1.25Zm-1.35.05h-2.75c.01.88.6 1.32 1.33 1.32.53 0 .85-.1 1.12-.21l.11.52c-.23.1-.65.27-1.31.27-1.17 0-1.89-.81-1.89-1.98 0-1.15.68-2.12 1.82-2.12 1.3 0 1.6 1.2 1.6 1.88 0 .14 0 .25-.03.32Zm-2.75-.52h2.14c0-.34-.14-1.16-1.01-1.16-.75 0-1.07.67-1.13 1.16ZM16 25v4h.73v-2.06c0-.1.01-.22.03-.32.1-.56.46-.94.97-.94.1 0 .19 0 .27.03v-.69a.87.87 0 0 0-.2-.02c-.5 0-.94.34-1.14.92h-.02l-.03-.92H16Zm-1.03 0v4h-.56v-.81c-.16.35-.54.81-1.19.81-.49 0-1.22-.28-1.22-1.78V25h.6v2.08c0 .8.23 1.32.83 1.32.54 0 .98-.56.98-1.07V25h.56Zm18.59 0H33v4h.56v-2.33c0-.51.44-1.07.99-1.07.59 0 .82.53.82 1.32V29h.6v-2.22c0-1.5-.73-1.78-1.22-1.78-.65 0-1.02.46-1.19.81V25ZM7 29v-5.88c.4-.07.95-.12 1.65-.12 1.12 0 2.35.47 2.35 1.76 0 1.36-1.25 1.95-2.47 1.95-.27 0-.53-.02-.73-.07V29H7Zm.8-5.31v2.3c.2.05.47.08.76.08 1.03 0 1.63-.47 1.63-1.27 0-.85-.66-1.17-1.54-1.17-.4 0-.7.03-.85.06ZM29 29a2 2 0 1 0 0-4 2 2 0 0 0 0 4Z" fill="#000910"/><circle cx="29" cy="27" r="1" fill="#F8981D"/><path d="M29 27h.53v4.47H51V32H29v-5Z" fill="#F8981D"/><path d="M45 37v-4h.63l.04.77h.01c.24-.38.62-.77 1.34-.77.57 0 1 .37 1.18.85h.01c.13-.24.3-.4.46-.53.25-.2.53-.32.95-.32.5 0 1.38.32 1.38 1.8V37h-.7v-2.13c0-.84-.35-1.27-.94-1.27a1.02 1.02 0 0 0-1 1.02V37h-.7v-2.27c0-.68-.34-1.13-.89-1.13-.5 0-.84.4-.97.74-.04.1-.06.23-.06.35V37H45ZM40 37h-.8v-4h.8v4Zm-.5-6c.3 0 .5.22.5.5 0 .26-.2.49-.51.49a.48.48 0 0 1-.49-.5c0-.26.2-.49.5-.49ZM34 34.63V37h-.6l-.05-.6h-.02c-.2.3-.63.6-1.19.6-.78 0-1.14-.58-1.14-1.1 0-.9.77-1.44 2.29-1.43v-.06c0-.24-.07-.89-.87-.88-.36 0-.75.1-1.01.3l-.15-.47c.33-.23.79-.36 1.25-.36 1.19 0 1.49.9 1.49 1.63Zm-.7.97v-.63c-.81-.03-1.63.14-1.63.84 0 .44.28.66.64.66a1 1 0 0 0 .96-.66.78.78 0 0 0 .03-.21ZM23 31h.66v3.34c0 1.4.55 2.02 1.3 2.02.84 0 1.38-.64 1.38-2.02V31H27v3.3c0 1.91-.88 2.7-2.06 2.7-1.1 0-1.94-.73-1.94-2.68V31ZM28 37v-4h.61l.03.92h.02c.2-.58.64-.92 1.13-.92.08 0 .14 0 .21.02v.69a.92.92 0 0 0-.27-.03c-.51 0-.87.38-.97.94-.02.1-.03.21-.03.32V37H28ZM35 37v-4h.56v.81c.17-.35.54-.81 1.2-.81.48 0 1.21.28 1.21 1.78V37h-.6v-2.08c0-.8-.23-1.32-.82-1.32-.55 0-.99.56-.99 1.07V37H35ZM43.97 33v4h-.56v-.81c-.16.35-.54.81-1.19.81-.49 0-1.22-.28-1.22-1.78V33h.6v2.08c0 .8.23 1.32.83 1.32.54 0 .98-.56.98-1.07V33h.56Z"/></svg>