<!-- by TradeStack --><svg width="56" height="56" viewBox="0 0 56 56" xmlns="http://www.w3.org/2000/svg"><path fill="#F0F3FA" d="M0 0h56v56H0z"/><path d="M17.91 40.99a17.15 17.15 0 0 1-6.7-11 16.57 16.57 0 0 1 2.98-12.35 16.27 16.27 0 0 1 10.92-6.48 16.85 16.85 0 0 1 12.46 3.2L17.9 40.99Z" fill="#ED4522"/><path d="M37.06 14a17.18 17.18 0 0 1 6.73 11 16.57 16.57 0 0 1-2.97 12.35 16.25 16.25 0 0 1-10.91 6.49 16.86 16.86 0 0 1-12.47-3.2L37.06 14Z" fill="#0097D3"/><path d="M42.5 27.02a15 15 0 1 1-30 .95 15 15 0 0 1 30-.95Z" fill="#F0F3FA"/><path d="M18.43 21c-.06 0-.19.03-.21.08l-3.2 6.71c-.05.1.02.21.13.21h7.7c.11 0 .18-.11.14-.21l-3.2-6.7c-.02-.03-.08-.06-.12-.07-.04-.01-.06-.02-.02-.02h-1.22Zm.44 1.4a.15.15 0 0 1 .26 0l2 4.29c.05.1-.02.31-.13.31h-4c-.1 0-.18-.22-.13-.31l2-4.3ZM30.8 24h-5.6a.2.2 0 0 0-.2.2v6.6c0 .11.09.2.2.2h5.6a.2.2 0 0 0 .2-.2v-.6a.2.2 0 0 0-.2-.2h-4.6a.2.2 0 0 1-.2-.2v-1.6c0-.11.09-.2.2-.2h3.56c.24 0 .24-.12.24-.2v-.6c0-.07-.05-.2-.24-.2H26.2a.2.2 0 0 1-.2-.2v-1.6c0-.11.09-.2.2-.2h4.6a.2.2 0 0 0 .2-.2v-.6a.2.2 0 0 0-.2-.2Zm3 3h-.6a.2.2 0 0 0-.2.2v6.6c0 .11.09.2.2.2h.6a.2.2 0 0 0 .2-.2v-2.6c0-.11.09-.2.2-.2h3.6c.11 0 .2.09.2.2v2.6c0 .11.09.2.2.2h.6a.2.2 0 0 0 .2-.2v-6.6a.2.2 0 0 0-.2-.2h-.6a.2.2 0 0 0-.2.2v2.6a.2.2 0 0 1-.2.2h-3.6a.2.2 0 0 1-.2-.2v-2.6a.2.2 0 0 0-.2-.2Z" fill="#171C3B"/></svg>