<?xml version='1.0' encoding='utf-8'?>
<!-- by TradeStack -->
<svg width="56" height="56" viewBox="0 0 56 56" xmlns="http://www.w3.org/2000/svg"><path fill="#F0F3FA" d="M0 0h56v56H0z" /><path d="M6 34V22h4.61c.95 0 1.74.33 2.38.66.64.34 1.13.8 1.46 1.38.33.58.5 1.25.5 1.99 0 2.4-2.03 3.97-4.37 3.97H7.53v-2h2.75c1.34 0 2.4-.52 2.4-1.97 0-.42-.09-.78-.26-1.1a1.71 1.71 0 0 0-.79-.73c-.35-.18-.8-.2-1.36-.2H8.5v10H6ZM18.24 22l3.2 9.35h.12l3.2-9.35h2.45l-4.34 12h-2.75L15.8 22h2.45ZM29 34V22h8v2h-5.5v3H37v2h-5.5v3H37v2h-8ZM47.48 26c-.43-1.31-1.31-2-2.74-2-2.25 0-3.24 1.9-3.24 3.99 0 2.14 1 4.01 3.29 4.01 1.69 0 2.87-.96 2.87-2.7l.69.08H45v-1.65h5v1.4a4.5 4.5 0 0 1-2.52 4.28c-.79.4-1.69.59-2.7.59a5.97 5.97 0 0 1-2.99-.72 5.12 5.12 0 0 1-2-2.07 6.72 6.72 0 0 1-.71-3.2c0-.94.14-1.78.42-2.53.28-.74.68-1.37 1.19-1.88.5-.52 1.1-.92 1.79-1.19A5.96 5.96 0 0 1 44.7 22c.68 0 1.31.1 1.9.29.6.18 1.11.45 1.57.8.46.34.84.75 1.14 1.23.3.47.49 1.1.58 1.68h-2.42Z" /></svg>