<?xml version='1.0' encoding='utf-8'?>
<!-- by TradeStack -->
<svg width="56" height="56" viewBox="0 0 56 56" xmlns="http://www.w3.org/2000/svg"><path fill="#F0F3FA" d="M0 0h56v56H0z" /><path d="M4 31v-6h2.1c1.3 0 1.98.84 1.98 1.99 0 1.13-.82 2.01-2 2.01H4.7v-1h1.25c.66 0 1.1-.26 1.1-1.01 0-.7-.43-.99-1.1-.99H5v5H4ZM10 25v6H9v-6h1ZM16 25v6h-.92L12 26.91V31h-1v-6h.9l3.1 4.09V25h1ZM17 31v-6h4v1h-3v1.54h2.46v.91H18V30h3v1h-4ZM24.13 25l1.46 4.72h.06L27.1 25h1.12l-1.98 6H25l-1.97-6h1.11ZM29.02 31h-1.08l1.97-6h1.26l1.97 6h-1.08l-1.5-4.77h-.04L29.02 31Zm.04-2.35H32v.87h-2.95v-.87ZM34 31v-6h1v5h2.36v1H34ZM38 31v-6h1v5h2.5v1H38ZM42 31v-6h4v1h-3v1.54h2.47v.91H43V30h3v1h-4ZM46.9 25h1.16l1.37 2.65h.05L50.85 25H52l-2 3.76V31h-1v-2.24L46.9 25Z" /></svg>