<!-- by TradeStack --><svg viewBox="0 0 56 56" xmlns="http://www.w3.org/2000/svg"><path fill="#F0F3FA" d="M0 0h56v56H0z"/><path d="M47 23h-2v9h2v-5.5a1.5 1.5 0 1 1 3 0V32h2v-6.2a2.8 2.8 0 0 0-5-1.73V23Z" fill="#A7182F"/><path fill-rule="evenodd" d="M6 24.52V23H4v13h2v-5.52C6.73 31.4 7.8 32 9 32c2.2 0 4-2.01 4-4.5S11.2 23 9 23c-1.2 0-2.27.59-3 1.52Zm0 2.99c0 1.48 1.12 2.67 2.5 2.67s2.5-1.2 2.5-2.67c0-1.48-1.12-2.67-2.5-2.67S6 26.04 6 27.5Z" fill="#51616E"/><path d="M16 26.06V32h-2v-9h2v.83c1.24-1.34 2.75-.77 3.4-.28l-.89 1.76c-1.36-.67-2.14-.05-2.51.75Z" fill="#51616E"/><path fill-rule="evenodd" d="M23.5 32a4.5 4.5 0 1 0 0-9 4.5 4.5 0 0 0 0 9Zm0-2a2.5 2.5 0 1 0 0-5 2.5 2.5 0 0 0 0 5Z" fill="#51616E"/><path d="m31.73 32-4.35-9h2.2l2.15 4.64 2.2-4.64h2.2l-4.4 9ZM39.96 32c1.68 0 3.13-1 3.84-2.47l-1.64-.86a2.46 2.46 0 0 1-2.2 1.44c-1.18 0-2.18-.9-2.42-2.11H44.24a4.4 4.4 0 0 0-4.28-5 4.4 4.4 0 0 0-4.3 4.5 4.4 4.4 0 0 0 4.3 4.5Zm2.3-5.58h-4.6a2.5 2.5 0 0 1 2.3-1.7c1.05 0 1.94.7 2.3 1.7Z" fill="#A7182F"/></svg>