<?xml version='1.0' encoding='utf-8'?>
<!-- by TradeStack -->
<svg width="56" height="56" viewBox="0 0 56 56" xmlns="http://www.w3.org/2000/svg"><path fill="#F0F3FA" d="M0 0h56v56H0z" /><path d="m35.4 12.98.27.1c.09.05.08.06-.02.05-4.63-.4-9.44 1.06-13.32 3.65-4.46 2.98-9.56 7.97-10 13.86v.02h-.04l-.01-.02a14.5 14.5 0 0 1 1.5-9.87c4.24-7.75 13.8-10.41 21.62-7.79Z" fill="#033451" /><path d="M35.13 13.42c.77.03 1.9.09 2.55.54.07.04.06.06-.01.06-10.79-.3-18.64 12.06-19.12 22.08a9.07 9.07 0 0 0 1.48 5.52l-.01.02h-.05a20.07 20.07 0 0 1-7.33-9.52 1.75 1.75 0 0 1-.02-.52c.18-4.37 2.58-7.87 5.54-10.83 4.52-4.52 10.58-7.6 16.97-7.35Z" fill="#055382" /><path d="M21.8 42.46c-1.11-.48-1.7-1.64-2.11-2.76-.83-2.24-.65-5.2-.1-7.5 2.02-8.58 8.7-18.4 18.37-17.72.11.01.4.1.51.17 3.38 2.1 5.76 5.26 5.51 9.54 0 .02 0 .03-.02.04a.06.06 0 0 1-.04.02l-.04-.01a5.8 5.8 0 0 0-7.37-8.58c-6.04-.4-9.39 4.1-10.56 9.72-.76 3.7-.53 7.36.7 10.95a9.97 9.97 0 0 0 5.77 6.28c.52.22 1.2.38 1.8.54.1.02.1.05 0 .07-4.23 1.25-8.37 1-12.41-.76Z" fill="#00A26B" /><path d="M26.27 32.2c2.84 4.65 8.6 5.87 13.48 5.76a7.87 7.87 0 0 0 3.24-.8c.06-.03.07-.01.03.04a16.5 16.5 0 0 1-7.5 5.55c-.32.12-.49.2-.84.12-5.53-1.3-7.68-5.22-8.47-10.64-.01-.11 0-.12.06-.03Z" fill="#018055" /></svg>