<!-- by TradeStack --><svg width="56" height="56" viewBox="0 0 56 56" xmlns="http://www.w3.org/2000/svg"><path fill="#F0F3FA" d="M0 0h56v56H0z"/><path d="M24 19.55c0 3.85 2.67 7.3 4 8.55 1.33-1.24 4-4.7 4-8.55 0-3.85-2.67-7.3-4-8.55-1.33 1.25-4 4.7-4 8.55Z" fill="#8665AC"/><path d="M25 29.52c-.52-4.1-4.04-11.44-14-8.02.17 3.92 3.21 11.02 14 8.02Z" fill="#FCB328"/><path d="M31 29.52c.52-4.1 4.04-11.44 14-8.02-.17 3.92-3.21 11.02-14 8.02Z" fill="#0A91C9"/><path d="M25 33.14c-3.67-1.44-11.4-1.83-13 8.1 3.83 1.44 11.8 1.83 13-8.1Z" fill="#3BAF4A"/><path d="M31 33.14c3.67-1.44 11.4-1.83 13 8.1-3.83 1.44-11.8 1.83-13-8.1Z" fill="#CF1D2D"/></svg>