<?xml version='1.0' encoding='utf-8'?>
<!-- by TradeStack -->
<svg width="56" height="56" viewBox="0 0 56 56" xmlns="http://www.w3.org/2000/svg"><path fill="#F0F3FA" d="M0 0h56v56H0z" /><path d="M10.78 30.93c4.96 4.42 9.9 8.85 14.85 13.3a4.04 4.04 0 0 0 4.82-.07l13.06-10.7.47-.46c-1.71.84-12.13 5.27-12.6 5.5-.61.3-1.36.49-2.12.5a4.03 4.03 0 0 1-2.23-.58L15 32c1.79.3 4.17.38 7.13 0 6.84-.84 16.8-2.82 23.8-3.05.07-.15.07-.3.07-.38a63.5 63.5 0 0 0-12.2-.45c-3.35.3-12.6 1.38-15.1 1.38-2.01 0-5.43.03-8.7-.5.08.84.39 1.4.78 1.93Z" fill="#62B4DD" /><path d="M45.22 25.07c-4.96-4.42-9.9-8.85-14.85-13.3a4.04 4.04 0 0 0-4.82.07L12.5 22.54l-.47.46c1.71-.84 12.13-5.27 12.6-5.5.61-.3 1.36-.49 2.12-.5.78-.01 1.56.16 2.23.58L41 24c-1.79-.3-4.17-.38-7.13 0-6.84.84-16.8 2.82-23.8 3.05-.07.15-.07.3-.07.38 4.35.6 9.4.68 12.2.45 3.35-.3 12.6-1.38 15.1-1.38 2.01 0 5.43-.03 8.7.5a3.66 3.66 0 0 0-.78-1.93Z" fill="#003B4D" /></svg>