<!-- by TradeStack --><svg width="56" height="56" viewBox="0 0 56 56" xmlns="http://www.w3.org/2000/svg"><path fill="#F0F3FA" d="M0 0h56v56H0z"/><path d="M48 31v-6h1v2.76L50.89 25h1.1l-1.92 2.7L52 31h-1.08l-1.47-2.57-.45.78V31h-1ZM15.7 31 14 25h1.17l1.08 4.4h.06l1.16-4.4h1.06l1.16 4.41h.06L20.83 25H22l-1.7 6h-1.07l-1.2-4.21h-.05L16.78 31H15.7ZM4 31v-6h1.96A2 2 0 0 1 8 27c0 1.15-.84 2-2.05 2h-1.4v-1h1.37c.6 0 1.08-.33 1.08-1 0-.67-.48-1-1.08-1H5v5H4ZM14 28c0 1.5-.85 3-2.5 3S9 29.5 9 28s.84-3 2.5-3c1.65 0 2.5 1.5 2.5 3Zm-1 0c0-.94-.4-2-1.5-2S10 27.06 10 28s.4 2 1.5 2 1.5-1.06 1.5-2ZM41 28c0 1.5-.85 3-2.5 3S36 29.5 36 28s.84-3 2.5-3c1.65 0 2.5 1.5 2.5 3Zm-1 0c0-.94-.4-2-1.5-2S37 27.06 37 28s.4 2 1.5 2 1.5-1.06 1.5-2ZM23 31v-6h4v1h-3v1.5h2.5v1H24V30h3v1h-4ZM28 31v-6h1.96c1.14 0 2.04.8 2.04 1.92 0 1.15-.84 2.08-2.05 2.08h-1.4v-1h1.27c.63 0 1.18-.45 1.18-1.08 0-.64-.55-.92-1.18-.92H29v5h-1Zm2.7-2.72L32 31h-1.06l-1.27-2.72h1.03ZM33 31v-6h1v5h2v1h-3ZM47 27h-1c-.11-.67-.71-1-1.38-1C43.5 26 43 27.02 43 28s.49 2 1.61 2c.66 0 1.27-.34 1.39-1h1c-.17 1.2-1.2 2-2.4 2-1.68 0-2.6-1.45-2.6-3s.92-3 2.6-3c1.23 0 2.24.76 2.4 2Z"/></svg>