<!-- by TradeStack --><svg width="56" height="56" viewBox="0 0 56 56" xmlns="http://www.w3.org/2000/svg"><path fill="#F0F3FA" d="M0 0h56v56H0z"/><path d="M7 39v-8h2.58v6H12v2H7ZM12.52 39v-8H15v8h-2.48ZM20 33v6h-2.45v-6H15.7v-2h6.17v2H20ZM26.47 39v-3h-1.94v3H22v-8h2.53v3h1.94v-3H29v8h-2.53ZM30 39v-8h2.45v8H30ZM36.96 39c-1.82 0-3.42-1.1-3.42-3.03V31H36v4.8c0 .7.57.97.99.97.42 0 1.01-.26 1.01-.95V31h2.39v4.97c0 1.93-1.6 3.03-3.43 3.03ZM47.57 39l-.17-2.28c-.03-.34-.05-.72-.03-1.14h-.02c-.12.45-.23.77-.41 1.16L45.87 39h-1.02l-1.07-2.26a6.81 6.81 0 0 1-.42-1.16h-.03c.03.42.03.75 0 1.14L43.14 39h-2.33l.64-8h2.26l1.24 2.62c.17.36.4.9.55 1.34h.01c.14-.44.36-.96.53-1.34L47.28 31h2.07l.65 8h-2.43Z" fill="#89DC65"/><path d="M46.39 24.52c.76-.43 1.38-1.63 1.38-2.78A3.58 3.58 0 0 0 44.1 18H36.93L35.82 22a10.9 10.9 0 0 0-.35 2h-.04c-.1-.74-.23-1.46-.38-2.02L34 18h-3.04L29.84 22c-.18.65-.28 1.2-.36 2h-.04c-.1-.8-.2-1.37-.36-2L28.03 18h-3.4l.8 2.81a5.73 5.73 0 0 0-3.09-2.59v2.92c.8.64 1.32 1.65 1.32 2.8 0 1.93-1.45 3.5-3.24 3.5-1.79 0-3.24-1.56-3.24-3.5 0-1.13.51-2.14 1.29-2.78v-2.93a5.73 5.73 0 0 0-3.11 2.67 3.53 3.53 0 0 0-3.58-2.9H7v12h3.41v-4.53h1.37c1.19 0 2.18-.49 2.84-1.3a5.82 5.82 0 0 0 5.8 5.83 5.84 5.84 0 0 0 5.8-6.5l1.71 6.5h2.7l1.11-4.56c.17-.63.34-1.28.49-2.03h.03c.15.75.3 1.38.48 2.03L33.86 30h2.74l2.95-10.73V30H43v-4.53h.06L45.41 30h4.1l-3.12-5.48ZM11.3 22.65h-.9V21h.9a.8.8 0 0 1 .82.83.8.8 0 0 1-.82.82Zm32.33 0H43V21h.64a.8.8 0 0 1 .82.83.8.8 0 0 1-.82.82Z" fill="#3CB4E5"/><path d="M21.4 17H19.4v6h1.99v-6Z" fill="#3CB4E5"/></svg>