<?xml version='1.0' encoding='utf-8'?>
<!-- by TradeStack -->
<svg width="56" height="56" viewBox="0 0 56 56" xmlns="http://www.w3.org/2000/svg"><path fill="#F0F3FA" d="M0 0h56v56H0z" /><path d="M13.46 22.86c-3.19 1.13-4.77 2.46-5.26 3.24l-.63-.45c.63-1 2.4-2.4 5.64-3.56C16.47 20.93 21.25 20 27.97 20c6.98 0 11.77 1.16 14.9 2.43 1.55.64 2.7 1.31 3.48 1.89.4.28.7.55.93.77.22.22.38.42.47.59l-.68.39a1.93 1.93 0 0 0-.32-.39c-.2-.2-.47-.43-.83-.7a15.96 15.96 0 0 0-3.33-1.79c-3.02-1.24-7.72-2.62-14.62-2.62-6.65 0-11.35 1.16-14.51 2.29Z" fill="#DB8157" /><path d="M5 32v-5h1.17c.37 0 .68.07.91.21.24.14.42.33.54.57.11.24.17.5.17.8 0 .3-.06.56-.17.8-.12.25-.3.44-.53.58-.24.14-.54.21-.91.21h-.71v-.53h.69c.25 0 .46-.05.62-.14.15-.1.26-.22.33-.38s.11-.34.11-.54-.04-.38-.1-.54a.79.79 0 0 0-.35-.37c-.15-.09-.36-.13-.62-.13h-.57V32H5ZM12 32v-5h.58v2.23H15V27h.55v5H15v-2.24h-2.42V32H12ZM24.22 29.5c0 .51-.1.96-.31 1.33-.21.37-.5.66-.86.87-.36.2-.77.3-1.23.3-.47 0-.88-.1-1.24-.3-.36-.2-.65-.5-.85-.87a2.7 2.7 0 0 1-.32-1.33c0-.51.1-.96.32-1.33.2-.37.49-.66.85-.87.36-.2.77-.3 1.24-.3.46 0 .87.1 1.23.3.36.2.65.5.86.87.2.37.3.82.3 1.33Zm-.64 0c0-.42-.08-.78-.24-1.07a1.6 1.6 0 0 0-.63-.66 1.8 1.8 0 0 0-.9-.22c-.32 0-.62.08-.89.22-.27.15-.48.37-.63.66-.16.3-.24.65-.24 1.07 0 .42.08.78.24 1.07.15.29.36.5.63.66.27.14.57.22.9.22.32 0 .62-.08.89-.22.26-.15.48-.37.63-.66.16-.3.24-.65.24-1.07ZM28 32v-5h3v.54h-2.4v1.69h2.2v.53h-2.2v1.7H31V32h-3ZM39 27v5l-3.39-3.55V32H35v-5l3.4 3.62V27h.6ZM43.56 27v5H43v-5h.56ZM47.96 27l1.18 2.08h.03L50.35 27H51l-1.43 2.5L51 32h-.65l-1.18-2.04h-.03L47.96 32h-.65l1.47-2.5-1.47-2.5h.65Z" /></svg>