<!-- by TradeStack --><svg width="56" height="56" viewBox="0 0 56 56" xmlns="http://www.w3.org/2000/svg"><path fill="#F0F3FA" d="M0 0h56v56H0z"/><path d="M28.27 13.16c3.24-.17 9.17.51 11.33 5.13 1.73 3.7 1.15 5.73.72 6.44 1.1-1.52 2.67-4.87 1.44-7.98 1.44 1.89 3.67 6.68 1.08 10.79L44.46 26c-.72 3.6-3.56 10.99-9.17 11.81-7.02 1.03-11.88-2.57-12.42-10.27.54 1.71 2.6 5.13 6.48 5.13 4.86 0 8.1-8.21 7.55-11.3-.53-3.08-2.15-7.7-8.63-8.21Z" fill="url(#afispzo25)"/><path d="M28.81 31.65c-3.02.82-5.22-2.4-5.94-4.11 0 2.57 3.24 6.16 6.48 5.65 3.24-.52 5.4-3.08 4.86-6.68-.44-2.88-4.14-3.25-5.94-3.08 4.32.51 4.32 3.08 4.32 4.1 0 1.03 0 3.09-3.78 4.12Z" fill="url(#bfispzo25)"/><path d="M32.59 37.81c-6.91-.41-9.36-7.02-9.72-10.27-1.62 3.6.54 13.86 9.72 14.38 7.34.4 11.33-5.65 12.41-8.73-1.26 1.7-5.5 5.03-12.41 4.62Z" fill="url(#cfispzo25)"/><path d="M37.98 41.92c-16.4 0-16.55-12.33-14.57-18.5-8.63 14.9 1.62 20.55 7.02 20.55 4.32 0 6.83-1.37 7.55-2.05Z" fill="url(#dfispzo25)"/><path d="M34.2 11.1c-3.02-.4-7.37.52-9.17 1.03 6.91-1.64 12.95 2.4 15.11 4.62-.72-1.71-2.91-5.24-5.93-5.65Z" fill="url(#efispzo25)"/><path d="M12.62 20.35c.18.34.86 1.02 2.16 1.02.8 0 2.7-1.15 4.59-2.3 1.88-1.16 3.77-2.32 4.58-2.32 1.3 0 2.34.34 2.7.52.9-.35 3.02-.83 4.32 0-1.8 1.02-5.3 3.7-7.02 6.16-2.16 3.08-3.78 6.68-3.24 10.27.54 3.6 5.4 10.79 9.72 11.3-3.24 0-9.93-1.85-10.8-9.24-.18 2.22.44 7.19 4.32 9.24-2.34-.86-7.23-3.8-8.1-8.73-.17.17-.53.82-.53 2.05-.72-1.7-1.84-5.85-.54-8.73a15.7 15.7 0 0 1-3.24 3.08c.72-.51 2.27-2.46 2.7-6.16A4.1 4.1 0 0 1 11 28.05c1.26-.85 3.89-2.77 4.32-3.6l1.08-2.05c-.9.52-2.92.82-3.78-2.05Zm11.87-2.06 1.08-.51c-.18-.17-.65-.41-1.08 0-.43.41-.18.51 0 .51Z" fill="url(#ffispzo25)"/><defs><linearGradient id="afispzo25" x1="41.22" y1="20.86" x2="26.88" y2="36.47" gradientUnits="userSpaceOnUse"><stop stop-color="#5B2891"/><stop offset=".42" stop-color="#9D3463"/><stop offset="1" stop-color="#B21F18"/></linearGradient><linearGradient id="bfispzo25" x1="32.59" y1="24.97" x2="24.2" y2="30.48" gradientUnits="userSpaceOnUse"><stop stop-color="#5D2990"/><stop offset="1" stop-color="#FF3925"/></linearGradient><linearGradient id="cfispzo25" x1="22.33" y1="31.13" x2="41.56" y2="37.87" gradientUnits="userSpaceOnUse"><stop stop-color="#940500"/><stop offset=".43" stop-color="#DE3427"/><stop offset="1" stop-color="#5E2A91"/></linearGradient><linearGradient id="dfispzo25" x1="22.87" y1="24.46" x2="34.95" y2="43.5" gradientUnits="userSpaceOnUse"><stop stop-color="#830300"/><stop offset=".31" stop-color="#F17724"/><stop offset=".63" stop-color="#EC6023"/><stop offset="1" stop-color="#EA231E"/></linearGradient><linearGradient id="efispzo25" x1="27.19" y1="11.1" x2="38.89" y2="16.13" gradientUnits="userSpaceOnUse"><stop stop-color="#FEB300"/><stop offset="1" stop-color="#F4692E"/></linearGradient><linearGradient id="ffispzo25" x1="20.98" y1="16.75" x2="20.98" y2="45" gradientUnits="userSpaceOnUse"><stop stop-color="#FFB014"/><stop offset="1" stop-color="#D53630"/></linearGradient></defs></svg>