<!-- by TradeStack --><svg width="56" height="56" viewBox="0 0 56 56" xmlns="http://www.w3.org/2000/svg"><path fill="#F0F3FA" d="M0 0h56v56H0z"/><path d="M38 24 28 12 18 24h2.93L28 15.51 35.07 24H38Z" fill="#3EB0C8"/><path d="M33 29v5.1c.04.97.77 2.9 3.35 2.9.62 0 1.14-.11 1.32-.17-1.06-.13-3.17-.92-3.17-3v-4.49a.35.35 0 0 0-.36-.34H33Zm7 0v5.13c.02.71-.37 2.14-2.07 2.14a2.8 2.8 0 0 1-1.93-.68c.8.1 2.5-.07 2.5-1.46v-4.8c0-.18.16-.33.37-.33H40Zm-9 0-2.66 4-.84-1.03-.84 1.03L24 29h1.67l1.83 2.63L29.33 29H31Zm-3.5 4 3.5 4h-1.59l-1.91-2.19L25.59 37H24l3.5-4ZM8 29h3.43c.66.04 1.98.39 1.98 1.47 0 1.09-.57 1.62-.86 1.75.11-.62.04-1.72-1.12-1.72H9.5v3h2c1.46 0 2.23-1.7 2.5-2.5v1.3c0 1.58-1.34 2.09-2.07 2.2H9.5v2.05c0 .25-.2.45-.43.45H8v-8Zm9.44 0H16l3 4.65V37h1.5v-4h-.08a.25.25 0 0 0 .02-.09c-.44-.04-.85-.58-1-.85l-2-3.06ZM23 29h-1.56l-1.55 2.44c.05.28.3.86.83.9.18 0 .34-.26.4-.39L23 29Zm24.22 1.78.54-.73A5.6 5.6 0 0 0 44.93 29c-.78 0-1.2.66-1.2 1.05 0 .3.16.64.24.77.02-.16.24-.5.96-.5.52 0 1.12.3 1.55.58.24.15.58.1.74-.12Zm-4.63 4.18-.59.7c.22.13.42.28.62.42.63.47 1.25.92 2.44.92.9 0 1.38-.74 1.38-1.1 0-.3-.18-.6-.27-.73-.02.16-.26.47-1.06.47-.42 0-.9-.3-1.31-.55a7.99 7.99 0 0 0-.39-.24c-.26-.14-.64-.1-.82.1Zm.72-5.46c-.36.22-1.08.86-1.08 1.65 0 1 .96 1.66 2.46 2.32 1.5.66 2.35 1.21 2.35 2.26 0 .18-.16.63-.24.83.4-.22 1.2-.92 1.2-1.93 0-1.24-2.01-2.06-2.6-2.3l-.04-.02c-.55-.22-2.17-.94-2.17-1.93 0-.4.08-.75.12-.88Z" fill="#3F88CD"/></svg>