<?xml version='1.0' encoding='utf-8'?>
<!-- by TradeStack -->
<svg width="56" height="56" viewBox="0 0 56 56" xmlns="http://www.w3.org/2000/svg"><path fill="#F0F3FA" d="M0 0h56v56H0z" /><path fill-rule="evenodd" d="M15 29.75 17.68 14H42l-2.77 17c-.83-.42-3.53-1.25-7.69-1.25-2.9 0-5.06.33-6.96.63-.67.1-1.3.2-1.93.28l.7-3.27c.23.16.83.2 1.1.2 1.58 0 3.36-.9 3.36-3.26 0-1.88-1.6-2.34-2.28-2.33h-1.57c-.63 0-1.17.45-1.3 1.06l-1.5 7.73-.87.03c-2.6 0-4.61-.71-5.29-1.07Zm8.57-3.8.5-2.45c-.01-.16.1-.48.64-.48h.75c.34 0 1 .24.94 1.15-.07 1.14-.38 2.21-1.81 2.21h-.53a.48.48 0 0 1-.49-.43Zm7.9-2.95h-2.59c-.26 0-.46-.25-.46-.52 0-.26.2-.48.46-.48h3.97c.38 0 .6.45.37.77L29.4 28H32c.27 0 .49.21.49.5a.5.5 0 0 1-.5.5h-3.96c-.38 0-.6-.45-.37-.77l3.8-5.23Z" fill="#E70027" /><path fill-rule="evenodd" d="M13.91 33.08c.75 0 1.38.18 1.81.36.3.12.7.06.88-.2.18-.23.13-.56-.13-.7A6.73 6.73 0 0 0 13.9 32C9.8 32 9 35.56 9 36.79S9.9 40 12.48 40c1.65 0 2.8-.57 3.38-1.02.21-.16.21-.45.04-.66-.2-.24-.57-.28-.85-.12-.69.4-1.77.83-2.81.67-1.34-.2-1.7-1.47-1.72-2.08 0-2.36 1.94-3.7 3.4-3.7Zm2.72 5.1.66-3.68c.06-.29.32-.5.62-.5h.14c.38 0 .68.33.62.7l-.58 3.48-.01.05c-.07.45-.16 1.01.7 1.01.73 0 .98-.51 1.02-.77l.64-3.96c.04-.3.3-.51.62-.51h.22c.39 0 .69.33.62.7-.2 1.26-.51 3.06-.62 3.62-.18.85-.9 1.68-2.95 1.68-1.64 0-1.82-1.21-1.7-1.82Zm5.23.86c-.07.17-.12.56.25.7.46.19.98.26 1.64.26.66 0 2.26-.42 2.26-2.18 0-.23-.2-.8-1.02-1.25-1.03-.57-1.13-.92-.94-1.28.19-.37.75-.37 1.53-.14l.16.05a.6.6 0 0 0 .71-.31c.12-.25.02-.54-.25-.64a3.92 3.92 0 0 0-1.33-.25c-1.01 0-2.3.66-2.3 1.97 0 .67.63 1.1 1.19 1.48.52.35.99.67.82 1.11-.26.67-1.36.42-2 .2-.26-.1-.57 0-.7.24l-.02.04Zm4.8.7c-.37-.14-.32-.53-.25-.7l.02-.04c.12-.24.44-.33.7-.24.64.22 1.74.47 2-.2.16-.44-.3-.76-.82-1.11-.56-.38-1.18-.8-1.18-1.48 0-1.3 1.28-1.97 2.3-1.97.5 0 .97.12 1.32.25.27.1.36.39.25.64a.6.6 0 0 1-.71.3l-.17-.04c-.78-.23-1.34-.23-1.52.14-.2.36-.09.7.93 1.28.82.45 1.03 1.02 1.03 1.25 0 1.76-1.6 2.18-2.26 2.18-.66 0-1.18-.07-1.64-.25Zm15.7-.7c-.07.17-.12.56.25.7.46.19.99.26 1.64.26.66 0 2.26-.42 2.26-2.18 0-.23-.2-.8-1.02-1.25-1.02-.57-1.13-.92-.94-1.28.19-.37.75-.37 1.53-.14l.16.05a.6.6 0 0 0 .71-.31c.12-.25.02-.54-.25-.64a3.92 3.92 0 0 0-1.33-.25c-1.01 0-2.29.66-2.29 1.97 0 .67.62 1.1 1.18 1.48.52.35.99.67.82 1.11-.26.67-1.35.42-2 .2-.26-.1-.57 0-.7.24l-.02.04Zm-11.01-.78.4-2.42A2.26 2.26 0 0 1 34.02 34h1.03c.95 0 1.69.8 1.56 1.71l-.36 2.41A2.25 2.25 0 0 1 33.98 40H32.9c-.97 0-1.71-.83-1.56-1.74Zm1.36.39.51-3.02c.09-.51.55-.89 1.09-.89h.32c.33 0 .59.28.54.6l-.44 3.01c-.08.52-.54.9-1.1.9h-.37c-.34 0-.6-.28-.55-.6ZM37.45 40c-.46 0-.81-.41-.72-.85l.73-3.3A2.26 2.26 0 0 1 39.7 34h1.03c.95 0 1.69.81 1.56 1.72l-.78 3.75a.69.69 0 0 1-.68.53c-.43 0-.76-.37-.68-.78l.72-3.87a.54.54 0 0 0-.55-.6H40c-.54 0-1 .37-1.09.89l-.74 3.78a.73.73 0 0 1-.73.58Z" fill="#91A5A8" /></svg>