<?xml version='1.0' encoding='utf-8'?>
<!-- by TradeStack -->
<svg width="56" height="56" viewBox="0 0 56 56" xmlns="http://www.w3.org/2000/svg"><path fill="#F0F3FA" d="M0 0h56v56H0z" /><path d="M34.5 12c-.47 0-1.2.04-1.58 1h3.66c-.72-.96-1.6-1-2.08-1Zm-11.83 2.64c0-.36-.03-.76-.13-1.14h-4.15c-.14.31-.28.69-.4 1.14-.02.12-.05.24-.1.36h4.77v-.36Zm-.05.86a7.6 7.6 0 0 1-.32 1.5h-5.27c.26-.5.5-1 .7-1.5h4.89ZM21.36 19c.3-.48.55-.98.76-1.5h-5.37c-.2.37-.42.72-.64 1.06a16 16 0 0 0-.39.44h5.64Zm-.32.5c-.34.51-.71 1-1.1 1.5h-5.66c.32-.52.67-1.02 1.04-1.5h5.72Zm8.95 2h-3.98c-1.12.29-2.13.8-3 1.5h9.98a7.97 7.97 0 0 0-3-1.5Zm3.57 2H22.44a8.02 8.02 0 0 0-1.75 2.5H35.3a8.02 8.02 0 0 0-1.75-2.5ZM18 23.5c-.55.78-1.04 1.6-1.4 2.5h-4.28c.17-.86.42-1.7.73-2.5H18Zm-1.58 3h-4.2c-.14.81-.21 1.65-.22 2.5h4c.02-.91.17-1.74.42-2.5Zm-.42 3h-4c.03 1.2.19 2.38.47 3.5h4.17c-.38-1.1-.6-2.28-.64-3.5ZM14.1 37a15.66 15.66 0 0 1-1.5-3.5h4.23c.5 1.3 1.24 2.47 2.15 3.5H14.1Zm.3.5c.56.9 1.2 1.73 1.93 2.5h6.75c-1.36-.6-2.59-1.46-3.63-2.5H14.4ZM20.2 43a16.04 16.04 0 0 1-3.38-2.5h7.58a12.1 12.1 0 0 0 7.18 0h7.58c-1 .97-2.14 1.82-3.38 2.5H20.2Zm.98.5a16.07 16.07 0 0 0 13.61 0H21.2ZM39.67 40h-6.75c1.36-.6 2.59-1.46 3.63-2.5h5.05c-.56.9-1.2 1.73-1.93 2.5Zm-2.65-3h4.89c.62-1.1 1.13-2.27 1.48-3.5h-4.22a11.86 11.86 0 0 1-2.15 3.5Zm-7.03 0h-3.98a8.01 8.01 0 0 1-4.79-3.5h13.56a8.01 8.01 0 0 1-4.79 3.5Zm13.54-4h-4.17c.38-1.1.6-2.28.63-3.5h4a15.7 15.7 0 0 1-.46 3.5Zm-22.6 0h14.14c.56-1.05.89-2.24.93-3.5H20c.04 1.26.37 2.45.93 3.5ZM36 29H20c.03-.88.2-1.72.48-2.5h15.03c.3.78.46 1.62.49 2.5Zm4 0h4c-.01-.85-.09-1.69-.23-2.5h-4.2A8 8 0 0 1 40 29Zm2.95-5.5c.3.8.55 1.64.73 2.5h-4.31c-.39-.92-.93-1.74-1.53-2.5h5.1ZM19.4 21.67l.13-.17H14c-.27.48-.52.99-.74 1.5h5.11c.34-.45.7-.9 1.05-1.33ZM42.74 23h-5.31c-.39-.45-.8-.9-1.2-1.33l-.15-.17h5.93c.27.48.51.99.73 1.5Zm-7.11-2h6.09c-.32-.52-.67-1.02-1.04-1.5h-6.3a21 21 0 0 0 1.25 1.5Zm4.64-2h-6.24c-.32-.47-.6-.97-.81-1.5h5.74l.21.32c.39.38.76.77 1.1 1.18Zm-7.24-2h5.57l-.12-.17c-.34-.45-.64-.86-.86-1.33H32.7c.05.53.16 1.03.32 1.5Zm4.38-2h-4.74a7.7 7.7 0 0 1 .1-1.5h4.12a5.68 5.68 0 0 1 .52 1.5Zm-16.74-3c.9 0 1.41.43 1.69 1h-3.68c.67-1 1.5-1 1.99-1Z" fill="#83B03D" /></svg>