<!-- by TradeStack --><svg width="56" height="56" viewBox="0 0 56 56" xmlns="http://www.w3.org/2000/svg"><path fill="#0E77BE" d="M0 0h56v56H0z"/><path fill-rule="evenodd" d="m8.85 25-2.42 7H10l-1.64-1.66.88-.8 1.24 1.5L12.57 25H8.85Zm2.27 7.61.04-.11h37.22l-.43 1.07 1.2-.87.45 1.3.45-1.01 1.2.43-.45-1.16 1.2-.29-1.2-.58.45-1.3-1.2.72-.45-1.16-.45 1.16-1.35-.72.8 1.41H11.53l2.44-6.73a.58.58 0 0 0-.56-.77H8.44a.6.6 0 0 0-.56.39l-2.85 7.84c-.13.37.15.77.56.77h4.97a.6.6 0 0 0 .56-.39ZM14.71 25h.99c.1 0 .17.1.14.2l-1.32 4.6c-.03.1.04.2.13.2h1.43c.06 0 .12-.04.14-.1l1.5-4.8c.03-.06.08-.1.14-.1h1c.1 0 .16.1.13.2l-1.52 4.9c-.1.3-.46.9-1.14.9h-2.59c-.29 0-.86-.15-.72-.9l1.55-5c.02-.06.07-.1.14-.1Zm7.58 6h-.99c-.1 0-.17-.1-.14-.2l.65-1.8H20l-.73 1.9a.14.14 0 0 1-.13.1h-1c-.1 0-.16-.1-.13-.2l1.52-4.9c.1-.3.46-.9 1.14-.9h2.59c.29 0 .86.15.72.9l-1.55 5a.14.14 0 0 1-.14.1Zm-2.06-3 .63-1.9c.02-.06.08-.1.14-.1h1.43c.1 0 .16.1.13.2L22 28h-1.77Zm21.07 3h1c.06 0 .11-.04.13-.1l1.55-5c.14-.75-.43-.9-.72-.9h-2.59c-.68 0-1.05.6-1.14.9L38 30.8c-.03.1.04.2.13.2h1c.06 0 .11-.04.13-.1L40 29h1.81l-.65 1.8c-.03.1.04.2.14.2Zm-.44-4.9-.63 1.9H42l.56-1.8c.03-.1-.04-.2-.13-.2H41a.14.14 0 0 0-.14.1ZM26.8 25h-1.03a.15.15 0 0 0-.14.1c-.13.4-.3.93-.5 1.48-.46 1.4-1 3-1.1 3.52-.16.75.44.9.83.9h2.72c.07 0 .13-.04.15-.1l.26-.7a.15.15 0 0 0-.14-.2h-2.13c-.1 0-.17-.1-.14-.2l1.36-4.6a.15.15 0 0 0-.14-.2Zm5.88.9.31-.7c.03-.1-.03-.2-.13-.2h-2.44a.55.55 0 0 0-.52.39l-.55 1.6a.64.64 0 0 0 .17.68l1.82 1.61c.04.04.06.1.04.17l-.07.45a.14.14 0 0 1-.13.1h-1.73c-.06 0-.11.04-.13.1l-.31.7c-.03.1.03.2.13.2h2.68c.19 0 .42 0 .55-.45l.42-1.35c.13-.45.1-.52-.55-1.05-.48-.39-1.09-.95-1.43-1.27a.16.16 0 0 1-.04-.18l.2-.62a.14.14 0 0 1 .11-.08h1.47c.06 0 .11-.04.13-.1Zm2.71.1h-1.24c-.1 0-.18-.1-.14-.2l.34-.7c.02-.06.08-.1.14-.1h4.36c.1 0 .18.1.14.2l-.34.7a.15.15 0 0 1-.14.1h-1.44a.15.15 0 0 0-.15.1l-1.3 4.8a.15.15 0 0 1-.14.1h-1.05c-.1 0-.17-.1-.14-.2l1.25-4.6a.15.15 0 0 0-.15-.2Zm8.91 5h-1.15c-.1 0-.18-.1-.14-.2l1.83-5.05c.23-.6.73-.75 1.03-.75h2.63c.59 0 .54.6.44.9-.15.5-.5 1.62-.73 2.1-.19.38-.56.53-.83.58-.1.02-.17.12-.14.21l.62 2.02c.03.1-.04.19-.14.19H46.7a.15.15 0 0 1-.14-.1l-.8-2.2a.15.15 0 0 0-.14-.1h-.24a.15.15 0 0 0-.14.1l-.8 2.2a.15.15 0 0 1-.14.1Zm2.64-3.6h-1.16c-.1 0-.17-.1-.13-.2l.53-1.1c.02-.06.07-.1.13-.1h1.15c.1 0 .18.1.14.2l-.53 1.1a.15.15 0 0 1-.13.1Z" fill="#fff"/></svg>