<!-- by TradeStack --><svg width="56" height="56" viewBox="0 0 56 56" xmlns="http://www.w3.org/2000/svg"><path fill="#F0F3FA" d="M0 0h56v56H0z"/><path d="M45.68 38H10.56a3.62 3.62 0 0 1-3.41-4.65l3.36-11.7C10.83 20.5 11.85 20 13 20h8.54c.88-1.6 3.73-5.07 8.03-5.07 4.31 0 5.6 3.47 5.7 5.07h7.87c1.18 0 2.2.54 2.52 1.7l3.21 12.02a3.37 3.37 0 0 1-3.2 4.28Z" fill="url(#azlc03mu5)"/><path fill-rule="evenodd" d="M22.81 16.64A6.5 6.5 0 0 0 20.75 22c-2.47 0-4.94 0-7.42.02-.42 0-.8.3-.9.71l-3.07 11.4c-.25.94.43 1.87 1.37 1.87h.88a4.59 4.59 0 0 0 3.14 1.24c.5-.02 1.69-.12 2.52-.32h2.98l.37-.92h.28a6.02 6.02 0 0 0 3.54 1.18c1.45 0 2.45-.3 3.03-.57l-.1.39h14.1c.55.02 1.55-.21 2.53-1h1.5c.94 0 1.62-.93 1.37-1.87l-.55-2c.65-2.42-.3-3.67-1.15-4.23l-1.4-5.17a.95.95 0 0 0-.92-.7L35.47 22c.33-1.6.45-3.77-.45-5.37-1.56-2.81-8-4.16-12.2 0Zm7.37 14.48c0 4.02-3.75 4.93-5.63 4.88-3.18 0-3.95-2.1-3.95-3.12A5.47 5.47 0 0 1 26.13 28c3.41 0 4.12 2.08 4.05 3.12Zm-3.16 1.46a2.78 2.78 0 0 1-2.47 1.53c-.37-.04-1.1-.33-1.1-1.17 0-1.05.87-3.18 2.52-3.18s1.8 1.25 1.05 2.82ZM14.87 35.9c1.3 0 2.15-.3 2.7-.66V36h1.8l1.38-4h-3.9l-.52 1.4h1.1c-1.81 1.57-3.38.44-3.38-.68 0-1.2.9-3.06 2.72-3.06 1.46 0 1.6 1 1.48 1.49h2.57c.29-1.04-.05-3.12-3.7-3.12-4.56 0-5.74 3.03-5.74 4.7 0 1.65.68 3.17 3.49 3.17Zm14.22.1 2.7-8h2.68l-2.08 6h3.56l-.66 2h-6.2Zm9.1-8-2.5 8h4.24c3.23 0 5.53-1.53 5.53-4.75A3.04 3.04 0 0 0 42.43 28h-4.24Zm2.18 2L39 34c2.3.11 3.51-1.26 3.51-2.74 0-1.18-1.43-1.28-2.14-1.26Zm-13.3-3.86c.71.02 1.62-.07 2.56-.33l1.21 1.41 1.6-1.22-.9-1c1.6-.94 2.9-2.6 2.9-5.34.1-1.39-.83-4.15-5.3-4.15-5.6 0-7.24 5.12-7.24 6.48 0 1.36 1.01 4.15 5.17 4.15Zm3.23-4.54c-.22.46-.5.82-.82 1.1l-.96-1.06-1.36 1.29.56.64c-.26.05-.48.07-.65.07-.48-.06-1.43-.45-1.43-1.57 0-1.4 1.13-4.23 3.3-4.23 2.15 0 2.36 1.66 1.36 3.76Z"/><defs><linearGradient id="azlc03mu5" x1="10.83" y1="22.48" x2="40.43" y2="36.03" gradientUnits="userSpaceOnUse"><stop stop-color="#D7C877"/><stop offset="1" stop-color="#C2A935"/></linearGradient></defs></svg>