<!-- by TradeStack --><svg width="56" height="56" viewBox="0 0 56 56" xmlns="http://www.w3.org/2000/svg"><path fill="#F0F3FA" d="M0 0h56v56H0z"/><path d="M21 21h2v13h-2V21Zm3 0h2.4l3.59 10.92L33.59 21H35.98v13h-2V23.93L30.76 34h-1.52L26 23.93V34h-2V21Zm18.97 13c2.96 0 5.52-1.08 6.03-5h-2.1c-.43 2.73-2.07 3.5-3.94 3.5-2.19 0-3.96-1.74-3.96-5 0-3.27 1.77-5 3.96-5 1.62 0 3.07.57 3.7 2.5h2.15c-.79-3.1-3.15-4-5.84-4-3.3 0-5.99 2.25-5.99 6.5s2.68 6.5 5.99 6.5Z" fill="#1A3881"/><path d="M11.5 33a5.5 5.5 0 1 1 4.5-8.66 4.57 4.57 0 0 0-7.9 3.16 4.58 4.58 0 0 0 7.9 3.16A5.49 5.49 0 0 1 11.5 33Z" fill="#0E5C9A"/><path d="M15.1 34.83a7.5 7.5 0 1 0-6.98-12.55 6.07 6.07 0 0 1 3.37-1.02 6.25 6.25 0 0 1 6.19 6.3c0 3.5-2.77 6.32-6.2 6.32-1.07 0-2.09-.29-2.97-.78.89.8 1.97 1.38 3.17 1.68a6.9 6.9 0 0 0-2.35 1.3 4.91 4.91 0 0 1 3.44.26c.83.3 1.78.66 3.42.66 2.87 0 3.89-1.88 4.04-2.82-.19.44-.97 1.33-2.6 1.33-.99 0-1.52-.23-2.07-.48-.15-.07-.3-.14-.47-.2Z" fill="#19A3EC"/></svg>