<!-- by TradeStack --><svg width="56" height="56" viewBox="0 0 56 56" xmlns="http://www.w3.org/2000/svg"><path fill="#F0F3FA" d="M0 0h56v56H0z"/><path d="M29 41.65c0 1.23-.91 2.33-2.1 2.35h-.22A16.24 16.24 0 0 1 12 28a16 16 0 0 1 16-16 16.24 16.24 0 0 1 16 14.9c-.02 1.2-1.12 2.1-2.35 2.1-1.45 0-2.56-1.26-2.8-2.69A11.14 11.14 0 0 0 28 17a11 11 0 0 0-11 11c0 5.46 4.15 10.01 9.31 10.86 1.43.23 2.69 1.34 2.69 2.8Z" fill="#0F8D44"/><path d="M28.7 32.05a2.37 2.37 0 0 1 3.35-3.35l9.25 9.25a2.37 2.37 0 0 1-3.35 3.35l-9.25-9.25Z" fill="#313D49"/></svg>