<?xml version='1.0' encoding='utf-8'?>
<!-- by TradeStack -->
<svg width="56" height="56" viewBox="0 0 56 56" xmlns="http://www.w3.org/2000/svg"><path fill="#F0F3FA" d="M0 0h56v56H0z" /><path d="M21 18.46a10 10 0 1 0 2 .88v5.34a6 6 0 1 1-2-1.88v-4.34Z" fill="#29378F" /><path d="M36 18h-4v10.36L23 19v5.48L36 38V18ZM38 18h5a5 5 0 0 1 1.98 9.6A5.5 5.5 0 0 1 42.5 38H38v-3h3a3 3 0 1 0 0-6h-3v-2h3.02A3.01 3.01 0 0 0 44 23.98 2.98 2.98 0 0 0 41.02 21H38v-3ZM16.46 31.5a5.91 5.91 0 0 0-1.46-.25V28c.9.08 2.03.19 2.76.45 2.13.78 3.29 2.8 4.95 4.15A9.15 9.15 0 0 0 28 34.74V38a13.73 13.73 0 0 1-7.64-2.95c-1.23-1-2.78-3.15-3.9-3.56Z" fill="#29378F" /></svg>