<?xml version='1.0' encoding='utf-8'?>
<!-- by TradeStack -->
<svg width="56" height="56" viewBox="0 0 56 56" xmlns="http://www.w3.org/2000/svg"><path fill="#F0F3FA" d="M0 0h56v56H0z" /><path d="M33.99 29.17c1.1-.37.88.75.51 1.3-1-.07-1.05-.52-.51-1.3ZM18.7 27.96c.6-.3 1.38-.07.9.67-.21.31-1.22.54-.9-.67Zm.68 9.3c-.38.6-.32.29-.4 1.02.78.61.45.6 1.72.68-.06 1.3-.65.63-.72 1.74.46.37.76.52 1.01.5.56-.07.86-.88 2-.98 0 3.42-3.04 2.17-3.97 2.36l-.03.37c0 .9.53 1.64 1.17 1.95.31.15.56.2.75.2.64-.01.8-.96 1.4-.98.16 0 .41.05.68.18 0 .31-.02.96 0 1.68.03 1.05.5 2.05 2.21 2.05.26-.72.36-1.3.35-1.75 0-1.77-1.51-1.95-1.18-3.5.18-.82.7-.95.9-1.59.06-.17.08-.33.07-.49-.05-1-1.23-1.72-1.35-3.03 0-1.34.55-.81.55-1.84.01-1.2-.43-.26-.55-1.22v-.58c0-3.07-.01-5.46 2.8-6.26.54-.15 1-.23 1.4-.22.92.03 1.57.27 1.73 1.42.05.29.07.54.07.76.02 1.79-1.25 1.6-1.61 2.68.53 1.17.66 1.08 1.7 1.68.07.9-.1 1.57-.09 2.15.01.52.17.96.8 1.43.87.67.92.24 1.39 1.32.33.77 1.16.88.31 1.06-.6.13-1.03 0-1.75.7a2.3 2.3 0 0 0-.75 1.6c0 .2.05.43.15.66.22.1.4.15.6.14.59-.02 1.12-.49 2.1-.6 1.07-.14 2.21-.11 3.1-.38.04-.23.06-.44.05-.64-.05-1.7-1.8-2.47-1.1-3.36.5-.65 1.15-.74 1.37-1.74.4-1.78-.03-.76.77-2.28.91-1.72 1.94-7.79 2.03-10.04.09-2.12.78-3.1.9-4.88.03-.31.03-.72.03-1.19a20.72 20.72 0 0 0-.45-4.36c-.74-2.35-2.03-3.03-3.55-3.01-2.42.03-5.42 1.8-7.67 1.38-.85-.16-1.08-.75-2.16-1.03-.98-.25-1.61-.1-2.63-.49a7.68 7.68 0 0 0-2.7-.53 4.3 4.3 0 0 0-3.9 2.1c-.92 1.56-1.24 11.54-.63 13.7.53 1.85-.1 1.4-.03 2.33.08.97.75.3.72 2.24-.06 4.39 2.24 6.58 2.39 6.9Z" fill="#016F52" /><path d="M33 46.04c.46.12.64-.1 1-.41.11-2.6-1.11-1.41-1 .41Z" fill="#037151" /><path d="M20.55 47.05c-1.09 1.14-.5 2.3 1.26 1.85.24-.69.25-1.06.03-1.81l-1.3-.04Z" fill="#026E51" /><path d="M37.96 40.04c.18-1.25-.28-1.78-1.77-1.76-.46 1.5-.16 2.34 1.77 1.76ZM31.1 46.39c-.69-.5-.7-.4-1.1.2.57.68.95.6 1.1-.2Z" fill="#037151" /><path d="M34 48.72c.71.47.86.37 1-.45-.76-.47-.78-.24-1 .45Z" fill="#057553" /></svg>