<?xml version='1.0' encoding='utf-8'?>
<!-- by TradeStack -->
<svg width="56" height="56" viewBox="0 0 56 56" xmlns="http://www.w3.org/2000/svg"><path fill="#F0F3FA" d="M0 0h56v56H0z" /><path fill-rule="evenodd" d="M28 38a10 10 0 1 0 0-20 10 10 0 0 0 0 20Zm0-3a7 7 0 1 0 0-14 7 7 0 0 0 0 14Z" fill="#3BA8F2" /><path d="M35.05 40.65c.42.72.17 1.66-.6 2a16 16 0 1 1 6.22-4.88 1.4 1.4 0 0 1-2.07.12c-.6-.57-.62-1.51-.13-2.18a13 13 0 1 0-5.49 4.3 1.65 1.65 0 0 1 2.07.64Z" fill="#FFC501" /><path d="M32.2 29.7c.28-.45.5-.96.67-1.53-.93.07-2.34-.25-.54-2-.57 0-1.72-.29-1.81-1.47-.11.38-.5 1.14-1.23 1.14-.71 0-1.14-.82-1.26-1.23-.26.32-1.2.85-2.96.41.22.7.41 2.31-.5 3.15.78.26 1.9 1.1.12 2.36.47-.06 1.43.2 1.5 1.73.74-.74 2.2-1.67 2.2.56a6.7 6.7 0 0 0 1.76-.91l10.32 10.64c.58.6 1.52.6 2.1 0 .57-.6.57-1.56 0-2.16L32.2 29.71Z" fill="#DF431A" /></svg>