<?xml version='1.0' encoding='utf-8'?>
<!-- by TradeStack -->
<svg width="56" height="56" viewBox="0 0 56 56" xmlns="http://www.w3.org/2000/svg"><path fill="#F0F3FA" d="M0 0h56v56H0z" /><path d="M43.3 21.4c1.16 3.84.88 7.52-.83 11.04a16.87 16.87 0 0 1-2.25 3.39 66.75 66.75 0 0 1-3.54 4.09C34.1 42.7 31.78 45.4 29 48V33.77c-.03 0 0-.03 0 0 1.83.08 3.18-.25 4.89-.81a13.61 13.61 0 0 0 6.83-4.98 9.33 9.33 0 0 0 1.76-6.65 11.4 11.4 0 0 0-1.33-4.16 14.99 14.99 0 0 1 2.15 4.24Z" fill="url(#ae1oh4uha)" /><path d="M14.4 32.92c.09.18.16.36.21.55a15.6 15.6 0 0 0 12.86 6.68.07.07 0 0 0 .02-.04l-.03-7.2c0-.02-.01-.04-.04-.04a7.88 7.88 0 0 1-3.22-.69 7.75 7.75 0 0 1-4.57-8.63 7.93 7.93 0 0 1 5.7-6.24A14.41 14.41 0 0 0 18 20.16c-2.93 2.27-4.8 5.36-4.53 9.09.09 1.2.42 2.49.95 3.67Zm12.24-15.85a7.92 7.92 0 0 1 7.88 4.37 7.5 7.5 0 0 1 .38 6.5 7.98 7.98 0 0 1-7.17 4.93c.03.02.07.03.1.03 4.86.07 9.56-2.13 12.15-6.15 1.94-3 1.92-6.64.39-9.81a11.3 11.3 0 0 0-3.18-3.6 15.65 15.65 0 0 0-11.86-3.21v.24c.01.14.01.27.03.4.08.46.17.93.28 1.4.06.28.1.55.13.83.04.33.08.61.14.83.1.42.17.78.22 1.08a29.4 29.4 0 0 0 .49 2.14l.02.02Z" fill="#00B86F" /><path d="M18 20.16c.85-.64 1.74-1.18 2.67-1.6 1.27-.57 2.7-.94 4.14-1.09a7.9 7.9 0 0 1 10.53 7.48c0 2.33-1 4.42-2.6 5.87a7.5 7.5 0 0 1-5.01 2.05c.03.02.07.03.1.03 4.86.07 9.56-2.13 12.15-6.15 1.94-3 1.93-6.64.39-9.81a11.3 11.3 0 0 0-3.18-3.6 15.65 15.65 0 0 0-11.86-3.21 15.93 15.93 0 0 0-8.58 4.07 14.82 14.82 0 0 0-2.14 19.27 4.41 4.41 0 0 0-.2-.55 11.12 11.12 0 0 1-.95-3.67c-.26-3.73 1.6-6.82 4.54-9.1Z" fill="url(#be1oh4uha)" /><defs><linearGradient id="ae1oh4uha" x1="43.11" y1="23.12" x2="30.61" y2="47.4" gradientUnits="userSpaceOnUse"><stop stop-color="#24B677" /><stop offset="1" stop-color="#008BA6" /></linearGradient><linearGradient id="be1oh4uha" x1="40.67" y1="21.74" x2="12" y2="22.75" gradientUnits="userSpaceOnUse"><stop stop-color="#00B76F" /><stop offset="1" stop-color="#008BA6" /></linearGradient></defs></svg>