<?xml version='1.0' encoding='utf-8'?>
<!-- by TradeStack -->
<svg width="56" height="56" viewBox="0 0 56 56" xmlns="http://www.w3.org/2000/svg"><path fill="#F0F3FA" d="M0 0h56v56H0z" /><path d="M16.02 17h.83c2.06.2 3.6 1.3 4.5 3.16 1.14 2.4.8 5.3-.2 7.72-.23.87-.46 2.99 1.23 3.08 1.09.07 2.52-.09 2.62-1.32V25.1c0-.06 0-.1.06-.1h1.86c.08 0 .08.05.08.13v4.58c-.05 2.42-4.13 2.45-5.75 2.14a3.58 3.58 0 0 1-1.79-.9c-.02-.02-.05-.01-.07.02a11.24 11.24 0 0 1-6.01 4.3c-.05.02-.07.05-.05.1 2.32 4.96 8.3 3.88 11.38.53h.01l.01.02v.04A10.61 10.61 0 0 1 17.85 40h-.98a5.49 5.49 0 0 1-4.93-4.41c-.02-.05-.05-.07-.1-.08a9.63 9.63 0 0 1-1.5-.15c-2.7-.58-4.2-3.15-4.34-5.73v-1.36c.6-5.18 4.37-10.7 10.02-11.27Zm-1.7 9.06c.05-.02.09 0 .13.03.02.02.04.06.04.1-1.49 2.52-2.16 5.01-1.57 7.91.02.08.06.1.14.1a9.6 9.6 0 0 0 6.14-3.38.1.1 0 0 0 .02-.12c-.23-.57-.21-1.22-.22-1.95v-3.57c0-.12.07-.18.19-.18h1.73c.06 0 .08.03.08.08v2.73c0 .04 1.3-3.05.74-6.03a.17.17 0 0 0-.07-.1.17.17 0 0 0-.12-.03 9.33 9.33 0 0 0-6.1 3.37c-.07-.02-.12-.07-.16-.15 1.57-1.68 3.9-3.17 6.25-3.32.05 0 .07-.03.06-.08a5.32 5.32 0 0 0-6.27-3.88c-4.48.81-7.58 5.07-8.16 9.3-.43 3.13.98 6.55 4.42 7.22.08.02.12-.02.12-.1-.06-2.94.84-5.58 2.6-7.95ZM36.22 30.65c1.06.31 2.66.61 3.65.23.87-.34.53-1.23-.2-1.52-1.29-.5-3.46-1.14-3.56-2.47-.18-2.37 4.25-1.94 5.64-1.68.06.01.08.04.08.1l.02.89v.04a.1.1 0 0 1-.04.03.1.1 0 0 1-.09.01c-.8-.26-2.26-.55-3.05-.27-.44.16-.88.63-.39 1.02 1 .8 2.5.95 3.54 1.76.7.54.93 1.34.42 2.06-1.06 1.51-4.53 1.17-6.07.94-.06 0-.09-.04-.08-.1l.03-.98c0-.06.04-.08.1-.06ZM31 31h4v.97a.05.05 0 0 1-.03.03H29.03l-.02-.01a.04.04 0 0 1-.01-.04v-6.9c0-.02 0-.03.02-.04l.03-.01h5.92c.02 0 .03.02.03.05v.89c0 .03-.02.06-.05.06H31.02l-.02.03v1.92c0 .02 0 .03.02.04l.03.01h3.16l.04.01.01.04v.9l-.01.04-.04.01h-3.16c-.01 0-.03 0-.04.02l-.01.03V31ZM51 25v1h-2.87c-.03 0-.07 0-.1.02a.15.15 0 0 0-.03.1v5.8c0 .05-.02.08-.07.08h-1.86c-.05 0-.07-.03-.07-.07v-5.88c0-.01 0-.03-.02-.05H43.1c-.07 0-.1-.05-.1-.13v-.8c0-.05.02-.07.07-.07H51Z" fill="#1D5CC7" /><path d="M15.3 24.87c.03.08.08.13.14.15.3.69.14 1.11-.47 1.27a.26.26 0 0 1-.14 0l-.34-.1c0-.04-.02-.08-.04-.1a.13.13 0 0 0-.13-.03c-.13-.57-.25-1.15.51-1.3.05-.01.1 0 .14.02.13.07.24.1.32.09ZM19.27 30.62c.21.32.62.43.9.25.3-.18.35-.6.14-.91-.2-.32-.6-.44-.9-.25-.28.18-.35.59-.14.9Z" fill="#BBA032" /></svg>