<!-- by TradeStack --><svg width="56" height="56" viewBox="0 0 56 56" xmlns="http://www.w3.org/2000/svg"><path fill="#F0F3FA" d="M0 0h56v56H0z"/><path d="M13 15.42A2.42 2.42 0 0 1 15.42 13h25.16A2.42 2.42 0 0 1 43 15.42v16.15c0 1.77-1.23 3.43-3 3.43s-3-1.66-3-3.43V20.8c0-1-.81-1.81-1.81-1.81H20.8c-1 0-1.81.81-1.81 1.81V35.2c0 1 .81 1.81 1.81 1.81H31c1.77 0 3 1.23 3 3s-1.23 3-3 3H15.42A2.42 2.42 0 0 1 13 40.58V15.42ZM31 25h-6v6h6v-6Z" fill="url(#a)"/><defs><linearGradient id="a" x1="28" y1="13" x2="28" y2="43" gradientUnits="userSpaceOnUse"><stop stop-color="#D5B351"/><stop offset=".3" stop-color="#F7E9A6"/><stop offset=".52" stop-color="#DDB329"/><stop offset=".71" stop-color="#FCCE16"/><stop offset="1" stop-color="#CF912C"/></linearGradient></defs></svg>