<!-- by TradeStack --><svg xmlns="http://www.w3.org/2000/svg" width="56" height="56" viewBox="0 0 56 56"><path fill="#F0F3FA" d="M0 0h56v56H0z"/><path d="m37 27 6-6 6 6-6 6-6-6Z" fill="#CB161D"/><path d="m7 33 6-6 6 6-6 6-6-6Z" fill="#F5911D"/><path d="m43 33-6-6v12l6-6Z" fill="#F15830"/><path d="m31 45-6-6h12l-6 6Z" fill="#FFD905"/><path d="m19 33-6 6h12l-6-6Z" fill="#CB161D"/><path d="M37 27v12H25l12-12Z" fill="#F5911D"/><path d="M24.04 14 37 27l6-6-6.96-7h-12Z" fill="#EE5931"/><path d="m19 21-6 6 6 6 12-12H19Z" fill="#FFDC00"/></svg>