<?xml version='1.0' encoding='utf-8'?>
<!-- by TradeStack -->
<svg width="56" height="56" viewBox="0 0 56 56" xmlns="http://www.w3.org/2000/svg"><path fill="url(#a5c4orixf)" d="M0 0h56v56H0z" /><path d="M28.05 15 29 12.9c.05-.1.07-.21.04-.33-.09-.48.01-.92.44-1.22 1.9-1.34 2.9 2.34.6 2.12a.26.26 0 0 0-.25.13c-1.67 2.6-1.06 5.96.5 8.47.07.1.16.15.29.12 2.87-.67 5.62-2.6 6.36-5.57.02-.1 0-.19-.08-.27-.62-.65-.65-1.27-.09-1.84 1.2-1.23 3.1.88 1.33 1.94a.36.36 0 0 0-.18.27c-.11.74-.38 1.42-.8 2.04-.18.26-.13.31.15.15a6.43 6.43 0 0 1 2.09-.8.4.4 0 0 0 .27-.2c.66-1.1 2.27-.73 2.28.46 0 1.05-.99 1.56-1.93 1.07a.47.47 0 0 1-.21-.21c-.1-.2-.27-.26-.49-.18a8.14 8.14 0 0 0-5.4 6.47c-.02.09 0 .16.09.2 2.66 1.59 5.66 2.08 8.4.58a.45.45 0 0 0 .23-.48c-.2-1.04 1.28-1.51 1.95-.9a1.2 1.2 0 0 1-.44 2.06c-.44.14-.91-.2-1.38.26a.79.79 0 0 1-.28.17l-1.4.52c-.1.04-.1.08 0 .13l2.16.93c.1.05.21.06.32.03 1.79-.42 2 2.74-.02 2.3-.65-.13-.98-.6-1-1.4a.28.28 0 0 0-.18-.29 8.33 8.33 0 0 0-8.36.71.18.18 0 0 0-.09.2 8.27 8.27 0 0 0 5.26 6.38.65.65 0 0 0 .77-.22c.61-.85 2.15-.1 1.94 1.12-.2 1.14-1.6 1.26-2.2.4a.46.46 0 0 0-.22-.18l-2.2-.88a.08.08 0 0 0-.09.02.08.08 0 0 0 0 .1c.4.6.65 1.27.78 1.98.02.11.07.2.16.27 1.9 1.48-.44 3.27-1.48 1.78-.37-.54-.27-1.09.29-1.66a.36.36 0 0 0 .08-.39 8.31 8.31 0 0 0-6.45-5.41.2.2 0 0 0-.23.1c-1.6 2.58-2.1 5.74-.55 8.46.05.1.14.14.25.14.94-.05 1.41.34 1.42 1.18.02 1.66-2.73 1.6-2.41-.29.01-.1 0-.2-.04-.3l-.97-2.21c-.06-.15-.1-.14-.13.01-.12.76-.4 1.45-.87 2.06a.3.3 0 0 0-.05.26c.14.59.02 1.05-.37 1.38-1.75 1.5-3.08-2.31-.53-2.13.13.01.23-.04.29-.17a8.15 8.15 0 0 0-.68-8.36.2.2 0 0 0-.22-.1c-3.24.67-5.38 2.45-6.41 5.36-.08.2-.03.37.13.5.08.06.14.14.2.22.42.68.34 1.24-.24 1.67-1.3.97-2.8-1.03-1.34-2.02a.49.49 0 0 0 .18-.23l.82-2.14c.03-.06 0-.08-.06-.05l-2.14.82c-.1.04-.17.1-.23.18-.59.86-1.77.81-2.17-.18-.52-1.28 1.13-2.24 2.08-1.17.08.09.17.11.27.09 3.01-.76 5-3.5 5.6-6.37.02-.1-.01-.19-.1-.25-2.55-1.57-5.76-2.11-8.45-.57a.3.3 0 0 0-.15.25c-.07 2.31-3.03 1.41-2.32-.25.26-.64.78-.87 1.55-.7.11.02.22 0 .32-.07.6-.42 1.27-.7 2-.85.25-.05.26-.11.01-.2-.68-.22-2.08-1.02-2.7-.88-.11.02-.22.01-.32-.02-2.51-.87.37-3.81 1.38-1.64.04.1.06.2.05.3-.01.44.21.74.68.91a8.47 8.47 0 0 0 7.95-.92c.1-.06.13-.14.1-.25-.64-2.95-2.6-5.48-5.57-6.35a.24.24 0 0 0-.27.08c-.87 1.03-2.49.3-2.17-.96.27-1.1 1.57-1.3 2.24-.35.05.08.13.14.22.17l2.15.81c.05.02.07 0 .05-.05l-.82-2.1a.56.56 0 0 0-.2-.26c-1.49-1.14.24-3 1.37-2.03.71.61.71 1.25.01 1.93a.28.28 0 0 0-.08.27c.64 2.99 3.46 4.92 6.34 5.6.12.03.22 0 .28-.11 1.62-2.56 2.15-5.76.54-8.46a.25.25 0 0 0-.25-.13c-2.76.24-.67-4.14.89-1.8.16.24.2.55.11.93a.38.38 0 0 0 .03.26l.96 2.11c.02.05.04.05.06 0Zm4.17 13.02c0-1.1-.44-2.15-1.23-2.93a4.21 4.21 0 0 0-7.15 2.93c0 1.1.44 2.16 1.23 2.93a4.21 4.21 0 0 0 7.15-2.93Z" fill="#fff" /><defs><linearGradient id="a5c4orixf" x1="0" y1="28" x2="56" y2="28" gradientUnits="userSpaceOnUse"><stop stop-color="#333" /><stop offset="1" stop-color="#5F5F5F" /></linearGradient></defs></svg>