<!-- by TradeStack --><svg width="56" height="56" viewBox="0 0 56 56" xmlns="http://www.w3.org/2000/svg"><path fill="#F0F3FA" d="M0 0h56v56H0z"/><path d="M24.01 22c-1.14 0-1.93.44-2.37 1.33-.42.89-.64 2.3-.64 4.25 0 1.93.2 3.33.62 4.16.42.83 1.22 1.26 2.39 1.26 1.17 0 1.96-.42 2.38-1.23.4-.82.61-2.22.61-4.17 0-1.96-.2-3.38-.63-4.27-.43-.9-1.22-1.33-2.36-1.33Z" fill="#41CD52"/><path d="M35.98 35c-1.15 0-1.93-.27-2.36-.8-.42-.53-.62-1.54-.62-3.03V26h-2v-2h2v-3h2v3h3v2h-3v4.92c0 .85.24 1.4.36 1.67.12.28.43.41.92.41l1.66-.07.1 1.8c-.9.18-1.58.27-2.06.27Zm-6.93 1.69-2.09.99-1.8-3.01c-.26.08-.6.33-1.16.33-4.43 0-6-3.47-6-7.42 0-3.9 1.5-7.58 5.93-7.58 4.44 0 6.07 3.66 6.07 7.57 0 2.2-.64 4.97-2.64 6.33l1.69 2.79ZM40.92 15H16.44L12 19.52V41h27.56L44 36.48V15h-3.08Z" fill="#41CD52"/></svg>