<?xml version='1.0' encoding='utf-8'?>
<!-- by TradeStack -->
<svg width="56" height="56" viewBox="0 0 56 56" xmlns="http://www.w3.org/2000/svg"><path fill="#F0F3FA" d="M0 0h56v56H0z" /><path d="M42.77 40.91A14.9 14.9 0 0 0 39 34.2a13.26 13.26 0 0 0 1.33-11.61 13.06 13.06 0 0 0-3.2-5.03 12.34 12.34 0 0 0-16.26-.98 12.95 12.95 0 0 0-3.77 4.61 13.32 13.32 0 0 0-1.35 5.85 32.2 32.2 0 0 1 6.38-.67 6.64 6.64 0 0 1 2.88-4.81 6.23 6.23 0 0 1 9.38 3.27 6.68 6.68 0 0 1-.56 5.62c-5.44-2.72-11.65-3.34-19-1.4-4.8 1.25-7.27 3.44-9.83 6.88 4.55-2.9 5.75-4.12 11.36-4.93a13.13 13.13 0 0 0 2.51 4.58 12.4 12.4 0 0 0 14.09 3.61c-1.75-3.94-5.2-6.75-9.73-8.36 4.59.52 8.44 2.39 10.98 5.7 1.24 1.6 1.99 3.46 2.46 5.48H43c-.06-.36-.14-.74-.23-1.1" fill="#0D3B6A" /></svg>