<!-- by TradeStack --><svg width="56" height="56" viewBox="0 0 56 56" xmlns="http://www.w3.org/2000/svg"><path fill="#0E1C44" d="M0 0h56v56H0z"/><path d="m18 28.38-5.66 2.9a16 16 0 0 0 18.43 12.48l-3.83-5.81a10 10 0 0 1-8.93-9.57Z" fill="url(#a)"/><path d="M12.17 30.3a16 16 0 0 1 31.6-5.05l-5.78 3.13L38 28a10 10 0 0 0-19.99-.5l-5.84 2.8Z" fill="url(#b)"/><path d="M31.86 43.53a16 16 0 0 0 12.05-17.2l-6.01 3.11A10 10 0 0 1 28.09 38l3.77 5.53Z" fill="url(#c)"/><defs><linearGradient id="a" x1="13.94" y1="32.31" x2="26.06" y2="44.24" gradientUnits="userSpaceOnUse"><stop stop-color="#D755F4"/><stop offset=".3" stop-color="#702D99"/><stop offset="1" stop-color="#391C53"/></linearGradient><linearGradient id="b" x1="30.98" y1="14.08" x2="27.78" y2="30.29" gradientUnits="userSpaceOnUse"><stop stop-color="#97FAFF"/><stop offset=".38" stop-color="#45BDF1"/><stop offset="1" stop-color="#1F436B"/></linearGradient><linearGradient id="c" x1="32.38" y1="42.99" x2="30.42" y2="29.76" gradientUnits="userSpaceOnUse"><stop stop-color="#FD9C57"/><stop offset=".19" stop-color="#D35747"/><stop offset="1" stop-color="#4C3F5D"/></linearGradient></defs></svg>