<?xml version='1.0' encoding='utf-8'?>
<!-- by TradeStack -->
<svg width="56" height="56" viewBox="0 0 56 56" xmlns="http://www.w3.org/2000/svg"><path fill="#F0F3FA" d="M0 0h56v56H0z" /><path d="M6.3 29h.96l.56.75.4.49.97 1.26H8.17l-.66-.85-.28-.4L6.31 29Zm3.03-.96c0 .63-.12 1.1-.35 1.55A2.52 2.52 0 0 1 6.66 31a2.56 2.56 0 0 1-2.32-1.42A3.19 3.19 0 0 1 4 28.04c0-.64.12-1.19.35-1.64.23-.45.55-.8.95-1.04.4-.24.86-.36 1.36-.36a2.51 2.51 0 0 1 2.31 1.4c.24.45.36 1 .36 1.64Zm-1.06 0c0-.45-.07-.83-.2-1.14a1.55 1.55 0 0 0-.57-.7 1.48 1.48 0 0 0-.84-.24 1.48 1.48 0 0 0-1.4.94c-.14.31-.2.69-.2 1.14 0 .44.06.74.2 1.05.14.3.33.54.57.7.24.16.52.24.83.24.32 0 .6-.08.84-.24.24-.16.43-.4.57-.7.13-.31.2-.6.2-1.05ZM14 25h1v3.86c0 1.32-1.13 2.14-2.43 2.14-1.35 0-2.57-.58-2.57-2.14V25h1v3.77c0 .97.76 1.27 1.57 1.27.73 0 1.43-.53 1.43-1.27V25ZM16 31v-6h4v1h-3v1.58h2.6v.9H17V30h3v1h-4ZM21 31v-6h4v1h-3v1.58h2.6v.9H22V30h3v1h-4ZM31 25v6h-.94L27 26.82V31h-1v-6h.93L30 29.19V25h1ZM39.1 27h-1.06c-.03-.18-.09-.26-.17-.4a1.26 1.26 0 0 0-.71-.56 1.59 1.59 0 0 0-1.34.16c-.24.16-.43.4-.57.7-.14.32-.2.7-.2 1.14 0 .45.06.83.2 1.14.14.3.33.54.57.7a1.66 1.66 0 0 0 1.32.16 1.32 1.32 0 0 0 .72-.55c.09-.13.15-.32.18-.49h1.06a2.32 2.32 0 0 1-1.51 1.92c-.29.1-.6.15-.95.15a2.5 2.5 0 0 1-2.31-1.4c-.23-.45-.34-1-.34-1.63 0-.64.11-1.19.35-1.64a2.52 2.52 0 0 1 2.3-1.4c.33 0 .63.05.9.14A2.3 2.3 0 0 1 39.1 27ZM41 25v6h-1v-6h1ZM41.61 26v-1h4.63v1h-1.8v5H43.4v-5h-1.79ZM46.87 25h1.2l1.41 2.7h.06L50.8 25H52l-2 3.79V31h-1v-2.21L46.87 25Z" /></svg>