<!-- by TradeStack --><svg width="56" height="56" viewBox="0 0 56 56" xmlns="http://www.w3.org/2000/svg"><path fill="#F0F3FA" d="M0 0h56v56H0z"/><circle cx="28" cy="28" r="16" fill="url(#azgmhmia5)"/><path d="M41.4 36.74a15.93 15.93 0 0 0 2.13-12.61C42.19 22.92 40.37 22 38.67 22c-3.05 0-6.1 1.81-8.77 4.86a50.17 50.17 0 0 1-6.09 5.71c-.13.5-.38 1.6-.38 1.9 0 .26 10.4 1.45 17.97 2.27Z" fill="url(#bzgmhmia5)"/><path d="M28 44a16 16 0 0 0 16-16.14C41.12 30.82 37.33 33 32.57 33c-8.95 0-15.47-6.88-18.8-12.31A16 16 0 0 0 28 44Z" fill="url(#czgmhmia5)"/><defs><linearGradient id="azgmhmia5" x1="28" y1="12" x2="28" y2="31.81" gradientUnits="userSpaceOnUse"><stop offset=".16" stop-color="#C4ECED"/><stop offset="1" stop-color="#FEFEFE"/></linearGradient><linearGradient id="bzgmhmia5" x1="31.43" y1="23.14" x2="34.06" y2="33.74" gradientUnits="userSpaceOnUse"><stop stop-color="#89C074"/><stop offset="1" stop-color="#59A347"/></linearGradient><linearGradient id="czgmhmia5" x1="28" y1="28.37" x2="23.04" y2="42.85" gradientUnits="userSpaceOnUse"><stop stop-color="#8FCB6F"/><stop offset="1" stop-color="#70BD52"/></linearGradient></defs></svg>