<?xml version='1.0' encoding='utf-8'?>
<!-- by TradeStack -->
<svg width="56" height="56" viewBox="0 0 56 56" fill="none" xmlns="http://www.w3.org/2000/svg">
<rect width="56" height="56" fill="#F0F3FA" />
<path d="M37.1028 28.5164C37.3669 23.0531 34.5589 18.8329 29.64 17.9863C24.5444 17.1095 19.6136 19.77 18.5611 25.5478C17.5642 31.0175 20.2133 35.871 25.2136 37.3122C25.7723 37.4745 26.6765 37.5564 27.9263 37.5578C27.9978 37.5578 28.0587 37.5851 28.109 37.6397C29.7267 39.3444 31.5683 40.6901 33.6335 41.6768C33.7222 41.7199 33.7189 41.7522 33.6236 41.7737C31.1175 42.3482 28.6041 42.5464 26.0834 42.3683C20.1835 41.9525 13.7177 39.3028 11.7041 32.7193C10.8839 30.0437 10.7807 26.6055 11.3923 23.861C13.4457 14.6364 22.9379 12.4606 30.4701 13.1047C36.7215 13.639 43.0046 17.2259 44.3034 24.4685C45.0209 28.4611 44.4126 32.1944 42.4784 35.6685C42.2679 36.0477 42.1507 36.2286 41.6999 36.2049C39.4626 36.0872 37.3867 35.3935 35.4724 34.1239C35.4537 34.1116 35.4376 34.0952 35.4249 34.0757C35.4123 34.0563 35.4035 34.0342 35.3991 34.0108C35.3946 33.9874 35.3946 33.9632 35.399 33.9397C35.4034 33.9162 35.4122 33.8938 35.4247 33.874C36.4468 32.3 37.0061 30.5141 37.1028 28.5164Z" fill="#0E3B84" />
<path d="M31.1432 27.1963C31.3643 30.0696 32.5267 32.5307 34.6303 34.2164C38.4868 37.3051 43.5606 37.606 47.8758 35.6048C47.9552 35.5667 47.9962 35.596 47.9989 35.6926C48.0042 35.8552 47.9889 36.0719 47.9532 36.3429C47.6964 38.2672 47.4223 40.1887 47.1311 42.1072C47.1192 42.1863 47.0788 42.2353 47.0099 42.2544C40.1549 44.2469 32.1957 42.2544 27.5568 36.1693C25.71 33.747 24.7767 30.6342 24.7568 27.1941C24.7568 27.0945 24.7111 27 24.6198 27H20.6879C20.5886 27 20.578 27.011 20.6561 26.9436L27.8209 20.9127C27.848 20.8889 27.8816 20.8759 27.9162 20.8759C27.9509 20.8759 27.9845 20.8889 28.0116 20.9127L34.9878 26.858C34.9979 26.8669 35.0054 26.8791 35.0091 26.893C35.0128 26.9068 35.0125 26.9215 35.0084 26.9351C35.0043 26.9488 34.9965 26.9607 34.9861 26.9693C34.9756 26.9779 34.963 26.9996 34.95 27H31.2842C31.1809 27.0015 31.1339 27.082 31.1432 27.1963Z" fill="#44B64B" />
</svg>