<?xml version='1.0' encoding='utf-8'?>
<!-- by TradeStack -->
<svg width="56" height="56" viewBox="0 0 56 56" xmlns="http://www.w3.org/2000/svg"><path fill="#0C9" d="M0 0h56v56H0z" /><path d="M43 22.44v12.52c0 .64-.36 1.04-1 1.04s-1-.4-1-1.04v-12.8c0-.57-.3-1.1-.8-1.39l-11.35-6.55a1.63 1.63 0 0 0-.8-.22c-.29 0-.57.08-.82.22l-11.4 6.55c-.5.29-.83.82-.83 1.4v11.78c0 .58.33 1.1.82 1.4l11.38 6.44c.24.14.5.2.77.21.31 0 .62-.07.9-.24l5.42-3.5c.47-.29.71-.8.71-1.35V25.6c0-.57-.25-1.1-.73-1.38l-5.4-2.96c-.5-.3-1.15-.3-1.67 0l-5.35 2.96c-.49.29-.85.8-.85 1.37v4.95c0 .57.38 1.1.88 1.39l2.67 1.53c.54.3.73 1 .41 1.53-.32.54-1.02.72-1.56.4l-2.68-1.63c-1.3-.8-1.72-2.2-1.72-3.71v-4.1c0-1.55.45-2.97 1.79-3.76l5.02-2.58c1.37-.8 3.08-.8 4.46 0l4.97 2.58C36.57 23 37 24.4 37 25.94v10.88c0 1.55-.45 2.99-1.8 3.77l-4.96 2.83a4.42 4.42 0 0 1-4.4-.01l-10.66-6.16A4.34 4.34 0 0 1 13 33.49V22.45c0-1.56.84-3 2.2-3.77l10.64-6.1a4.42 4.42 0 0 1 4.4 0l10.58 6.1A4.34 4.34 0 0 1 43 22.44Z" fill="#fff" /></svg>