<!-- by TradeStack --><svg width="56" height="56" viewBox="0 0 56 56" xmlns="http://www.w3.org/2000/svg"><path fill="#F0F3FA" d="M0 0h56v56H0z"/><path d="M42 14H14v28h8V31h4.5v-3.64c-.63 1.35-1.98 2.64-4.79 2.64A7.81 7.81 0 0 1 17 28.34l1.52-2.93a4.1 4.1 0 0 0 3.01 1.44c1.5 0 1.81-.96 1.79-1.44 0-.37-.49-1.22-2.36-1.7-2.34-.59-3.35-2.08-3.35-4.26 0-2.17 1.61-4.45 4.78-4.45 2.05 0 3.49.89 3.95 1.33l-1.39 2.78c-.18-.35-.89-1.06-2.27-1.06-1.13 0-1.43.94-1.44 1.4 0 .27.27.85 1.29 1.08 1.27.3 2.65.95 3.46 1.88.14.16.33.44.51.79V22H30v5.97L34.57 22h4.6l-5.52 6.72L39.68 36h-4.73L30 29.78v1.8c.94.63 1.57 1.7 1.57 2.93v.28c0 1.23-.64 2.32-1.6 2.94A3.5 3.5 0 0 1 33 41.21v.28c0 .17-.01.34-.04.51H42V14ZM28.68 42a1.45 1.45 0 0 0-.99-2.51h-2.15V42h3.14Zm-3.14-8h1.17c.8 0 1.44.67 1.44 1.5s-.64 1.5-1.44 1.5h-1.17v-3Z" fill="#F1592A"/></svg>