<!-- by TradeStack --><svg width="56" height="56" viewBox="0 0 56 56" fill="none" xmlns="http://www.w3.org/2000/svg">
<rect width="56" height="56" fill="#01816A"/>
<path fill-rule="evenodd" clip-rule="evenodd" d="M10.0855 21H5.3338L5.13929 21.6023H5.59778C6.02015 21.6253 6.05164 21.9465 6.01459 22.1042L5.06982 26.9351C4.92532 27.4169 4.36124 27.5661 4.09726 27.5804L4 28H7.29281L7.47343 27.4657H7.11219C6.71206 27.4427 6.6676 27.1024 6.69538 26.9351L7.11219 25H7.83467L8.96006 27.5681C9.55749 29.0742 10.8959 29.1121 11.5721 28.9161V28.3425C11.0941 28.2507 10.8079 27.788 10.7246 27.5681L9.55749 24.7716C10.2151 24.633 11.5387 24.0202 11.5721 22.6779C11.6054 21.3356 10.5949 21 10.0855 21ZM9.14178 21.589H7.90758L7.28186 24.0548C7.178 24.5142 7.60346 24.5053 7.89872 24.4991C7.93093 24.4984 7.9616 24.4978 7.98986 24.4978C8.69869 24.4978 9.49122 24.276 9.77945 22.9372C9.99338 21.9436 9.44347 21.6244 9.14178 21.589ZM14.0019 23.0006C12.0276 23.0339 11.5816 24.1855 11.6054 24.7572L13.0331 24.3206C13.0168 23.7635 13.5226 23.5896 13.7775 23.5723C13.9781 23.548 14.3772 23.6221 14.369 24.1127C14.3608 24.6033 13.6993 24.92 13.3696 25.017C11.2077 25.6926 11.0445 26.3162 11.0037 26.7839C10.963 27.2517 11.2485 28 12.1765 28C12.9189 28 13.4852 27.5912 13.6756 27.3868C14.0182 28.1518 14.7361 28.0243 15.0522 27.8649C15.2426 27.7471 15.6539 27.4866 15.7763 27.3868C15.9293 27.262 16.072 27.0646 15.9598 26.9087C15.8701 26.7839 15.5485 26.9121 15.399 26.9918C15.3337 26.4846 15.5621 25.4639 15.6845 25.017C15.9462 24.331 15.9762 22.9673 14.0019 23.0006ZM12.564 26.7215C12.5069 26.0147 13.5192 25.5054 14.0325 25.3391C14.0325 26.524 13.5532 27.1372 13.0637 27.1684C12.6948 27.1919 12.564 26.8462 12.564 26.7215ZM16.1236 27.6267V28H18.7003V27.6267C18.2434 27.6267 18.2089 27.2979 18.2487 27.1335L18.7689 24.6732H20.6764C20.5613 25.2687 20.3819 26.4002 20.3075 26.9335C20.2331 27.4668 19.7098 27.6178 19.4574 27.6267V28H22V27.6267C21.5325 27.6267 21.5605 27.2979 21.5959 27.1335L22.1274 24.6732H23V24H22.2469C22.3665 22.9202 22.7515 21.8409 23.7875 21.8276C24.6163 21.8169 24.6818 22.4986 24.611 22.8408C24.3852 23.8317 23.9044 25.987 23.7875 26.6802C23.6706 27.3734 23.2391 27.6001 23 27.6267V28H25.4743V27.6267C25.0068 27.6267 24.9785 27.2357 25.0227 27.0401C25.2928 25.8759 25.8542 23.4487 25.9392 23.0541C26.0455 22.5608 26.2978 21.121 24.1992 21.081C22.5203 21.049 21.2463 23.0801 20.8523 24H18.8334C19.1256 21.667 20.5067 21.4676 20.9185 22.1609C21.2479 22.7154 21.6667 22.3919 21.835 22.1609C22.4194 21.1903 21.3967 20.9832 20.8122 21.001C18.6552 21.0117 17.6247 23.1445 17.4122 24.1133C16.6365 24.2839 16.54 24.5577 16.5887 24.6732H17.3059C17.1687 25.3087 16.9391 26.5176 16.8541 27.0401C16.7691 27.5627 16.3317 27.6489 16.1236 27.6267ZM29.3534 23.0027C31.1034 23.0741 31.2994 24.7782 31.1815 25.5686H27.8543C27.3827 26.6904 28.122 27.1586 29.0128 27.1204C29.7254 27.0898 30.2965 26.6317 30.493 26.4065L30.7157 26.7379C30.3489 27.1076 29.3534 28 27.9649 28C26.824 28 26 27.2224 26 26.1388C26 25.0552 27.1658 22.9135 29.3534 23.0027ZM29.0652 23.7166C28.384 23.694 28.0216 24.567 27.9256 25H29.5498C29.6721 24.5859 29.7463 23.7392 29.0652 23.7166ZM35.5029 23.3308L35.1342 24.6244H34.7803C34.8098 24.4855 34.7832 24.1242 34.4411 23.7908C34.099 23.4573 33.5007 23.6373 33.3793 23.7908C33.2578 23.9443 33.0165 24.2996 33.9839 24.7825C34.9514 25.2655 35.1539 25.9606 35.1342 26.2912C34.972 27.8292 33.1286 28.1963 32.351 27.9115C31.8565 27.7304 31.7423 27.9138 31.698 28H31.3146L31.4473 26.5073H32.0077C31.9488 27.1857 32.5731 27.3937 32.8926 27.4128C33.104 27.4128 33.5385 27.3093 33.5857 26.8954C33.6329 26.4814 33.3006 26.2246 33.1286 26.148C32.7353 25.9851 31.9606 25.4523 32.0077 24.6244C32.0667 23.5895 33.0253 22.9859 33.9839 23.0003C34.7508 23.0117 35.3161 23.2254 35.5029 23.3308ZM12.2487 29H13.3777L13.9321 32.3919H13.9829L15.8133 29H16.9423L16.0654 34H15.1774L15.6468 30.8912H15.6087L14.0273 34H13.4205L12.7693 30.8798H12.7334L12.2598 34H11.3718L12.2487 29ZM18.2743 34C17.9416 34 17.6661 33.913 17.4476 33.7677C17.2291 33.6209 17.0755 33.4135 16.9867 33.1456C16.8993 32.8762 16.8845 32.5576 16.9423 32.1898C16.9987 31.8311 17.1121 31.5163 17.2827 31.2454C17.4547 30.9744 17.6703 30.7633 17.9297 30.6119C18.189 30.4606 18.4779 30.3849 18.7965 30.3849C19.0107 30.3849 19.2045 30.422 19.3779 30.4962C19.5527 30.5688 19.6979 30.6793 19.8134 30.8276C19.929 30.9744 20.008 31.1583 20.0502 31.3793C20.0939 31.6003 20.0932 31.8591 20.0481 32.1558L20.008 32.4214H17.7964L17.7922 32.4464C17.764 32.6295 17.7697 32.7816 17.8091 32.9027C17.85 33.0238 17.9205 33.1146 18.0206 33.1751C18.1206 33.2342 18.2475 33.2637 18.4011 33.2637C18.5012 33.2637 18.5949 33.2485 18.6823 33.2183C18.7711 33.188 18.8501 33.1434 18.9191 33.0843C18.9882 33.0238 19.0446 32.9489 19.0883 32.8596L19.9107 32.9186C19.8346 33.1335 19.719 33.3212 19.564 33.4816C19.4089 33.6406 19.2222 33.7647 19.0037 33.854C18.7866 33.9418 18.5435 34 18.2743 34ZM17.8971 31.822H19.2489C19.2701 31.6828 19.2616 31.5594 19.2236 31.452C19.1855 31.3445 19.1221 31.2605 19.0333 31.2C18.9445 31.1379 18.8353 31.1069 18.7056 31.1069C18.5731 31.1069 18.4491 31.1417 18.3335 31.2113C18.2179 31.2809 18.1206 31.3725 18.0417 31.486C17.97 31.5896 17.9218 31.7016 17.8971 31.822ZM20.9187 33.77C21.0977 33.9062 21.3112 34 21.5593 34C21.7341 34 21.8863 33.9433 22.016 33.8812C22.147 33.8192 22.2584 33.7412 22.35 33.6474C22.443 33.552 22.5177 33.4559 22.5741 33.359H22.6122L22.5255 34H23.4135L24.2366 29H23.3381L22.961 31.0161H22.9335C22.9096 30.9222 22.8673 30.8269 22.8067 30.73C22.7461 30.6316 22.6594 30.5499 22.5466 30.4848C22.4353 30.4182 22.2894 30.3849 22.109 30.3849C21.8708 30.3849 21.6417 30.4515 21.4219 30.5847C21.202 30.7164 21.0117 30.9154 20.851 31.1818C20.6903 31.4467 20.579 31.7789 20.517 32.1785C20.4564 32.5674 20.4634 32.8959 20.5381 33.1638C20.6142 33.4302 20.7411 33.6322 20.9187 33.77ZM22.3458 33.0775C22.2302 33.1623 22.1005 33.2047 21.9568 33.2047C21.8088 33.2047 21.6911 33.1615 21.6037 33.0752C21.5163 32.9875 21.4592 32.8664 21.4324 32.712C21.4056 32.5561 21.4078 32.3767 21.4388 32.1739C21.4698 31.9726 21.5219 31.7955 21.5952 31.6427C21.6699 31.4898 21.7637 31.3702 21.8764 31.284C21.9906 31.1977 22.1217 31.1545 22.2697 31.1545C22.4163 31.1545 22.5339 31.1962 22.6227 31.2794C22.713 31.3627 22.7736 31.4807 22.8046 31.6336C22.8356 31.7865 22.8349 31.9666 22.8025 32.1739C22.7714 32.3813 22.7165 32.5622 22.6375 32.7165C22.5586 32.8709 22.4614 32.9912 22.3458 33.0775ZM24.1519 34L24.6931 30.4303H25.5938L25.0525 34H24.1519ZM26.4083 33.7586C26.624 33.91 26.8988 34 27.2329 34C27.5218 34 27.7804 33.9289 28.0088 33.8154C28.2371 33.7019 28.4267 33.5444 28.5775 33.3431C28.7297 33.1418 28.8347 32.9072 28.8925 32.6393H28.0426C28.006 32.7619 27.9538 32.8671 27.8862 32.9549C27.8185 33.0412 27.7396 33.107 27.6494 33.1524C27.5606 33.1978 27.464 33.2205 27.3597 33.2205C27.2202 33.2205 27.1046 33.1797 27.013 33.0979C26.9214 33.0162 26.8593 32.8974 26.8269 32.7415C26.7945 32.5856 26.7952 32.3964 26.829 32.1739C26.8615 31.9545 26.9178 31.7675 26.9982 31.6132C27.0799 31.4588 27.1793 31.3415 27.2963 31.2613C27.4147 31.1795 27.5444 31.1387 27.6853 31.1387C27.8488 31.1387 27.9728 31.1924 28.0574 31.2998C28.142 31.4073 28.1836 31.5473 28.1822 31.7199H29.03C29.0596 31.4504 29.0286 31.2158 28.9369 31.0161C28.8453 30.8163 28.7015 30.6611 28.5056 30.5506C28.3097 30.4401 28.0701 30.3849 27.7868 30.3849C27.4584 30.3849 27.1624 30.4613 26.8988 30.6142C26.6366 30.7656 26.4203 30.9767 26.2497 31.2476C26.0792 31.517 25.9671 31.8303 25.9136 32.1875C25.8586 32.5402 25.8734 32.852 25.958 33.1229C26.0439 33.3939 26.1941 33.6057 26.4083 33.7586ZM30.1859 34C29.9801 34 29.8018 33.9448 29.651 33.8676C29.5016 33.7889 29.3917 33.6723 29.3212 33.518C29.2507 33.3636 29.2331 33.1721 29.2683 32.9436C29.2994 32.7498 29.3578 32.5879 29.4438 32.4577C29.5312 32.326 29.6376 32.2201 29.7631 32.1399C29.8885 32.0597 30.0274 31.9984 30.1796 31.956C30.3332 31.9136 30.4918 31.8848 30.6553 31.8697C30.8442 31.8485 30.9978 31.8281 31.1162 31.8084C31.236 31.7887 31.3255 31.7607 31.3847 31.7244C31.4439 31.6866 31.4798 31.6306 31.4925 31.5564V31.5428C31.5137 31.4005 31.489 31.29 31.4185 31.2113C31.3495 31.1311 31.2388 31.091 31.0866 31.091C30.9259 31.091 30.7892 31.1288 30.6764 31.2045C30.5651 31.2802 30.4854 31.3763 30.4375 31.4928L29.6172 31.4202C29.6905 31.2083 29.8011 31.0251 29.9491 30.8708C30.0985 30.7149 30.2782 30.5953 30.4883 30.512C30.6983 30.4273 30.9337 30.3849 31.1944 30.3849C31.3748 30.3849 31.5433 30.4076 31.6997 30.453C31.8576 30.4984 31.9936 30.5688 32.1078 30.6642C32.2234 30.7595 32.3065 30.8821 32.3573 31.0319C32.4094 31.1803 32.42 31.3581 32.389 31.5655L32.0232 34H31.1691L31.2452 33.434H31.2198C31.1507 33.5429 31.0662 33.639 30.9661 33.7223C30.866 33.804 30.7511 33.8683 30.6215 33.9153C30.4918 33.9607 30.3466 34 30.1859 34ZM30.5475 33.3159C30.6785 33.3159 30.7991 33.2879 30.909 33.2319C31.0204 33.1744 31.112 33.0972 31.1839 33.0003C31.2571 32.9035 31.3037 32.7937 31.3234 32.6711L31.3784 32.3011C31.3502 32.3207 31.3093 32.3381 31.2557 32.3533C31.2036 32.3684 31.1465 32.3828 31.0845 32.3964C31.0239 32.4085 30.9626 32.4199 30.9005 32.4305C30.8385 32.4396 30.7828 32.4486 30.7335 32.4577C30.625 32.4744 30.5277 32.5009 30.4418 32.5372C30.3558 32.5735 30.286 32.6227 30.2324 32.6847C30.1789 32.7453 30.1458 32.821 30.1331 32.9118C30.1133 33.0435 30.1422 33.1441 30.2198 33.2137C30.2987 33.2818 30.4079 33.3159 30.5475 33.3159ZM33.6226 34L34.3415 29H33.4408L32.722 34H33.6226ZM38.8734 34L39.4146 30.4303H40.2878L40.1926 31.0388H40.2265C40.3195 30.8223 40.4442 30.6589 40.6007 30.5484C40.7586 30.4364 40.9284 30.3804 41.1102 30.3804C41.1553 30.3804 41.2025 30.3834 41.2519 30.3894C41.3026 30.394 41.3477 30.4016 41.3872 30.4121L41.2519 31.2726C41.2124 31.2575 41.156 31.2454 41.0827 31.2363C41.0109 31.2257 40.9425 31.2204 40.8777 31.2204C40.7466 31.2204 40.6247 31.2514 40.5119 31.3135C40.3991 31.374 40.304 31.4588 40.2265 31.5677C40.1504 31.6767 40.1003 31.8023 40.0764 31.9446L39.774 34H38.8734ZM41.8074 33.7586C42.0245 33.91 42.2986 34 42.6298 34C42.9554 34 43.2479 33.9115 43.5073 33.7632C43.7666 33.6133 43.9815 33.4044 44.1521 33.1365C44.3226 32.8686 44.4354 32.5569 44.4904 32.2012C44.5453 31.8394 44.5284 31.5223 44.4396 31.2499C44.3508 30.9775 44.1979 30.7656 43.9808 30.6142C43.7638 30.4613 43.4903 30.3849 43.1605 30.3849C42.8335 30.3849 42.5396 30.4598 42.2789 30.6097C42.0181 30.758 41.8032 30.9661 41.634 31.234C41.4649 31.5019 41.3535 31.8145 41.3 32.1717C41.245 32.5334 41.2612 32.8505 41.3486 33.1229C41.4374 33.3939 41.5903 33.6057 41.8074 33.7586ZM43.1225 33.0979C43.0055 33.1903 42.8709 33.2364 42.7186 33.2364C42.5706 33.2364 42.4537 33.1918 42.3677 33.1025C42.2817 33.0117 42.226 32.8883 42.2006 32.7324C42.1753 32.575 42.1774 32.3964 42.207 32.1966C42.238 31.9908 42.2923 31.8069 42.3698 31.6449C42.4473 31.483 42.5453 31.3558 42.6637 31.2635C42.7821 31.1697 42.9174 31.1228 43.0696 31.1228C43.2176 31.1228 43.3339 31.1682 43.4185 31.259C43.5044 31.3498 43.5608 31.4739 43.5876 31.6313C43.6144 31.7872 43.6123 31.9658 43.5812 32.1671C43.5502 32.3714 43.4953 32.5546 43.4163 32.7165C43.3388 32.877 43.2409 33.0041 43.1225 33.0979ZM47.1226 32.4327L47.4334 30.4303H48.3341L47.7928 34H46.9281L47.0254 33.2841H46.9915C46.8915 33.4884 46.7456 33.6527 46.5539 33.7768C46.3622 33.9009 46.1444 34 45.9006 34C45.6835 34 45.5003 33.91 45.3509 33.804C45.2029 33.6981 45.0979 33.5475 45.0359 33.3522C44.9738 33.157 44.9633 32.9231 45.0041 32.6507L45.3509 30.4303H46.2515L45.9344 32.4781C45.9048 32.684 45.9316 32.8467 46.0147 32.9663C46.0979 33.0858 46.2248 33.1456 46.3953 33.1456C46.5038 33.1456 46.6088 33.1191 46.7103 33.0662C46.8132 33.0117 46.902 32.9315 46.9767 32.8255C47.0514 32.7196 47.1001 32.5886 47.1226 32.4327ZM49.0651 30.4303L48.3341 35H49.2369L49.507 33.359H49.5408C49.5661 33.4559 49.6098 33.552 49.6719 33.6474C49.7339 33.7412 49.8206 33.8192 49.9319 33.8812C50.0447 33.9433 50.1884 34 50.3632 34C50.6099 34 50.8431 33.9062 51.063 33.77C51.2843 33.6322 51.4739 33.4302 51.6318 33.1638C51.791 32.8959 51.9003 32.5674 51.9595 32.1785C52.0215 31.7789 52.0123 31.4467 51.932 31.1818C51.8531 30.9154 51.7248 30.7164 51.5472 30.5847C51.3696 30.4515 51.1617 30.3849 50.9235 30.3849C50.7431 30.3849 50.5859 30.4182 50.452 30.4848C50.3181 30.5499 50.2061 30.6316 50.1159 30.73C50.0271 30.8269 49.9559 30.9222 49.9023 31.0161H49.8621L49.9531 30.4303H49.0651ZM49.6719 32.7165C49.6437 32.5622 49.6451 32.3813 49.6761 32.1739C49.7071 31.9666 49.7607 31.7865 49.8368 31.6336C49.9129 31.4807 50.008 31.3627 50.1222 31.2794C50.2378 31.1962 50.3681 31.1545 50.5133 31.1545C50.6627 31.1545 50.7811 31.1977 50.8685 31.284C50.9559 31.3702 51.0137 31.4898 51.0419 31.6427C51.0701 31.7955 51.0694 31.9726 51.0398 32.1739C51.0074 32.3767 50.9531 32.5561 50.877 32.712C50.8009 32.8664 50.7057 32.9875 50.5916 33.0752C50.4774 33.1615 50.347 33.2047 50.2004 33.2047C50.0552 33.2047 49.9383 33.1623 49.8495 33.0775C49.7607 32.9912 49.7015 32.8709 49.6719 32.7165ZM24.957 29H25.8374L25.643 30H24.7626L24.957 29ZM37.7246 30.3332C37.7628 30.4219 37.7878 30.5241 37.7996 30.6397H38.7706C38.7765 30.3989 38.7404 30.1787 38.6624 29.9791C38.5859 29.7779 38.4727 29.6044 38.3226 29.4587C38.174 29.3129 37.9953 29.2004 37.7863 29.1212C37.5789 29.0404 37.3472 29 37.0912 29C36.794 29 36.5079 29.0562 36.2328 29.1687C35.9591 29.2812 35.7097 29.4452 35.4847 29.6606C35.2596 29.8761 35.069 30.1391 34.9131 30.4496C34.7586 30.7586 34.6512 31.1103 34.5909 31.5048C34.5129 32.0181 34.5343 32.4617 34.6549 32.8356C34.777 33.2079 34.9822 33.4954 35.2706 33.6982C35.5604 33.8994 35.9172 34 36.3409 34C36.7219 34 37.0721 33.9176 37.3913 33.7529C37.4536 33.7208 37.514 33.6861 37.5723 33.6487V34H38.3226C38.3226 34 38.5291 32.3897 38.6027 32.0478C38.617 31.9815 38.6293 31.9135 38.6395 31.844L38.7366 31.2309H36.8454L36.7263 32H37.6884C37.6575 32.2075 37.5701 32.4601 37.4597 32.6122C37.3509 32.7643 37.2104 32.8823 37.0382 32.9663C36.8661 33.0486 36.6719 33.0898 36.4556 33.0898C36.2173 33.0898 36.0224 33.028 35.8708 32.9045C35.7208 32.7793 35.6185 32.5979 35.5641 32.3603C35.5111 32.1226 35.5111 31.8343 35.5641 31.4952C35.6156 31.1562 35.712 30.8695 35.8532 30.635C35.9944 30.3989 36.1651 30.2191 36.3652 30.0955C36.5667 29.972 36.783 29.9102 37.014 29.9102C37.1361 29.9102 37.2435 29.9268 37.3362 29.9601C37.4288 29.9933 37.5075 30.0417 37.5723 30.105C37.637 30.1668 37.6878 30.2429 37.7246 30.3332Z" fill="white"/>
</svg>
