<?xml version='1.0' encoding='utf-8'?>
<!-- by TradeStack -->
<svg width="56" height="56" viewBox="0 0 56 56" xmlns="http://www.w3.org/2000/svg"><path fill="#F0F3FA" d="M0 0h56v56H0z" /><path d="M47 28a8 8 0 0 1-13.3 6H31a9.98 9.98 0 0 0 18-6 10 10 0 0 0-18.66-5h2.41A7.99 7.99 0 0 1 47 28Z" /><path d="M38.5 32h-3l1.5-2.5 1.5 2.5Z" fill="#D28C00" /><path d="M37.5 25h-2l4.5 7h2.5l-2-3.5 2-3.5h-2L39 27l-1.5-2Z" /><path d="M34 26h-5v-.5l.5-.5h4l.5.5v.5ZM34 29h-5v-.5l.5-.5h4l.5.5v.5ZM34 32h-5v-.5l.5-.5h4l.5.5v.5Z" fill="#D28C00" /><path d="M22 32v-7h4.5l.5.5v.5h-4v2h3.5l.5.5v.5h-4v3h-1ZM7 32v-7h3c.67 0 2 .4 2 2s-1 2-1.5 2l1.5 3h-1l-1.5-3H8v3H7Zm1-4h2c.33 0 1-.2 1-1s-.67-1-1-1H8v2ZM14 32l2.5-7h1l2.5 7h-1l-.67-2h-2.66L15 32h-1Zm2-3h2l-1-3-1 3Z" /></svg>