<?xml version='1.0' encoding='utf-8'?>
<!-- by TradeStack -->
<svg width="56" height="56" viewBox="0 0 56 56" xmlns="http://www.w3.org/2000/svg"><path fill="#F0F3FA" d="M0 0h56v56H0z" /><path d="M21.7 18.7c-.19 2.18 2.92 5.64 4.5 7.1l1.47-3.56c.04-.9-.08-1.55.84-4.1.77-2.13 3-2.93 4.15-3.1-.83-1.44-3.47-3.96-4.68-5.04-3 2.64-6.07 5.97-6.29 8.7Z" fill="#3E6E47" /><path d="m28.4 21.98 1.44 3.5c4-3.87 6.19-4.56 7.58-4.54 1.1.02 2.52.82 3.1 1.21.46-2.95.32-5.8.19-6.87-2.08-.24-7.4-.1-9.79 1.1-1.9.97-2.47 4.14-2.51 5.6Z" fill="#BCD0BF" /><path d="M37.35 21.72c3.1.27 7.06 4.34 8.65 6.34-1.03 1.42-3.72 3.68-4.94 4.63a6.67 6.67 0 0 0-1.68-3.28c-1.1-1.12-3.72-1.6-4.9-1.7l-4.17-1.65c3.8-3.89 6.28-4.51 7.04-4.34Z" fill="#A8C1AC" /><path d="M39.23 30.35c-.97-1.34-4-1.9-5.38-2l-3.8 1.5-1.64 4.22c.47 4.64 1.76 5.62 4.45 6.29 2.15.53 6.15.48 7.88.4.32-6.2-.3-8.74-1.5-10.41Z" fill="#94B39A" /><path d="M21.66 37.24c0-2.3 3.04-5.7 4.57-7.13l1.37 3.57c.1 1.33.48 4.02 1.6 5.47.89 1.16 2.68 1.74 3.47 1.89-.88 1.4-3.5 3.89-4.7 4.96-2.27-2.06-6.31-5.9-6.31-8.76Z" fill="#81A488" /><path d="m22.18 28.35 3.46 1.33c-1.91 1.9-4.35 4.68-4.66 6.84a5.77 5.77 0 0 0 1.08 3.95c-2.66.51-5.65.35-6.82.2-.33-7.17.67-9.39 1.89-10.71.97-1.07 3.77-1.52 5.05-1.61Z" fill="#709778" /><path d="M10 28.02a24.9 24.9 0 0 0 4.96 4.65c.08-.75.56-2.5 1.89-3.49 1.33-1 3.62-1.37 4.6-1.44l4.03-1.63c-3.13-3.72-5.86-4.5-6.83-4.43-2.95.22-7 4.32-8.65 6.34Z" fill="#5D8867" /><path d="M22.06 15.53a5.64 5.64 0 0 0 .14 6.7 5.6 5.6 0 0 0-6.74-.16 26.82 26.82 0 0 1-.2-6.79c2.87-.33 5.73.03 6.8.25Z" fill="#4C7C57" /><path d="m29.92 26.07-1.86-4.6-1.8 4.6-4.86 1.81 4.87 1.86 1.79 4.79 1.86-4.8 4.68-1.85-4.68-1.8Z" fill="#1B2741" /><path d="m28.44 28.36-.31 3.63-.5-3.81L24.3 28l3.32-.61.5-3.12.31 3.12 3.17.6-3.17.37Z" fill="#828DA5" /><ellipse cx="28" cy="27.95" rx="1.19" ry="1.18" fill="#fff" /></svg>