<?xml version='1.0' encoding='utf-8'?>
<!-- by TradeStack -->
<svg width="56" height="56" viewBox="0 0 56 56" xmlns="http://www.w3.org/2000/svg"><path fill="#F0F3FA" d="M0 0h56v56H0z" /><path d="M28 24.54c-.76-1.17-1.83-4.52 0-8.54.76 1.7 1.83 5.8 0 8.54Zm1.06.35c.07-1.04.95-3.51 3.84-5.07-.31 1.35-1.52 4.26-3.84 5.07Zm-2.11 0c-.08-1.04-.95-3.51-3.85-5.07.32 1.35 1.53 4.26 3.85 5.07Zm-.67.62c-.4-.6-1.79-1.77-4.06-1.7.66.7 2.4 2.03 4.06 1.7Zm3.43 0c.4-.6 1.8-1.77 4.07-1.7-.66.7-2.4 2.03-4.07 1.7Zm-3.21.87c-.43-.26-1.63-.56-2.95.26.62.24 2.06.52 2.95-.26Zm3 0c.43-.26 1.62-.56 2.94.26-.61.24-2.06.52-2.94-.26Z" fill="#8FC84E" /><path d="M8 33h-.75l-1.12-1.83-.25.01v1.44l.07.16c.03.03.07.06.13.08l.21.03V33H5v-.1l.2-.05c.06-.02.1-.05.13-.09a.4.4 0 0 0 .05-.17l.02-.3v-2.57a2 2 0 0 0-.02-.25.34.34 0 0 0-.05-.16.23.23 0 0 0-.12-.08 1.08 1.08 0 0 0-.21-.04V29h1.29c.23 0 .43.1.61.19a.87.87 0 0 1 .54.59c.02.1.04.22.04.34 0 .27-.07.48-.2.64a1.2 1.2 0 0 1-.65.35l.97 1.5c.06.1.12.17.18.2.06.05.13.07.22.08V33Zm-2.12-2.03a5.25 5.25 0 0 0 .5-.05 1.1 1.1 0 0 0 .32-.16.56.56 0 0 0 .2-.26c.05-.11.07-.25.07-.4 0-.28-.07-.48-.2-.61-.15-.13-.36-.2-.66-.2-.1 0-.16.02-.19.05-.03.03-.04.08-.04.16v1.47ZM15.46 33h-1.2v-.1h.1a.9.9 0 0 0 .12-.04l.04-.02a.17.17 0 0 0 .05-.06.19.19 0 0 0 .02-.09c0-.1-.03-.23-.09-.4l-.2-.57H13.1l-.22.7-.03.11v.12c0 .08.02.14.06.18.05.04.14.06.25.06V33h-.93v-.1a.34.34 0 0 0 .27-.17c.04-.08.09-.17.13-.3l.19-.52.97-2.91h.09l1.16 3.37a4.84 4.84 0 0 0 .2.42c.02.04.06.06.1.07a.5.5 0 0 0 .13.03V33Zm-1.22-1.52-.54-1.64-.54 1.64h1.08ZM20.49 32.36l.01.27c.01.06.03.11.06.15.04.04.08.07.14.08.06.02.13.03.23.03V33H19.6v-.1a1 1 0 0 0 .21-.05c.06-.02.1-.05.12-.09.03-.04.05-.1.05-.17l.01-.3v-2.83a.3.3 0 0 0-.06-.15.23.23 0 0 0-.12-.08 1.08 1.08 0 0 0-.2-.04V29h1.23c.65 0 1.23.49 1.23 1.14 0 .2-.05.39-.13.56a.99.99 0 0 1-.32.4c-.1.06-.22.11-.35.14-.13.03-.29.05-.47.05h-.16l-.16-.01v1.08Zm0-1.33a4.4 4.4 0 0 0 .26.02c.54 0 .81-.29.81-.87 0-.3-.07-.53-.22-.68-.15-.14-.38-.2-.7-.2-.06 0-.1 0-.12.03-.02.03-.03.08-.03.16v1.54ZM28.7 30.87v-1.22l-.01-.25a.3.3 0 0 0-.06-.16.2.2 0 0 0-.12-.08 1.19 1.19 0 0 0-.22-.04V29h1.3v.12c-.1.01-.17.02-.22.04a.23.23 0 0 0-.13.08.34.34 0 0 0-.05.16l-.01.25V32.62l.07.15c.03.03.07.06.12.08l.22.04V33h-1.3v-.1l.22-.04c.05-.02.1-.05.12-.09a.4.4 0 0 0 .06-.18l.01-.3v-1.16h-1.42v1.23l.01.26c.01.06.04.1.07.15.03.03.07.06.12.08l.21.04V33h-1.3v-.1l.22-.04c.06-.02.1-.05.13-.09a.4.4 0 0 0 .05-.18l.02-.3v-2.64c0-.1 0-.2-.02-.25a.31.31 0 0 0-.06-.16.2.2 0 0 0-.12-.08 1.19 1.19 0 0 0-.22-.04V29h1.3v.12c-.09.01-.16.02-.21.04a.23.23 0 0 0-.13.08.37.37 0 0 0-.06.16v1.47h1.41ZM37.1 33h-1.2v-.1h.1a.9.9 0 0 0 .12-.04l.04-.02a.17.17 0 0 0 .05-.06.19.19 0 0 0 .02-.09c0-.1-.03-.23-.09-.4l-.2-.57h-1.21l-.22.7-.03.11v.12c0 .08.02.14.07.18.05.04.13.06.24.06V33h-.93v-.1a.34.34 0 0 0 .27-.17c.04-.08.09-.17.13-.3l.19-.52.97-2.91h.09l1.17 3.37a4.83 4.83 0 0 0 .19.42c.03.04.06.06.1.07a.5.5 0 0 0 .13.03V33Zm-1.21-1.52-.54-1.64-.54 1.64h1.08ZM43.82 33H41.3v-.1a.9.9 0 0 0 .2-.05c.06-.01.1-.04.13-.08a.34.34 0 0 0 .06-.15l.01-.26v-2.71l-.01-.25a.31.31 0 0 0-.06-.16.25.25 0 0 0-.13-.08.89.89 0 0 0-.2-.04V29h2.48v.85h-.1a2.03 2.03 0 0 0-.08-.32.42.42 0 0 0-.12-.2.38.38 0 0 0-.2-.08 1.98 1.98 0 0 0-.32-.02h-.63c-.06 0-.1.01-.12.04-.02.02-.03.08-.03.16v1.39h.71c.1 0 .18-.01.24-.03.06 0 .1-.04.14-.07a.4.4 0 0 0 .09-.18l.05-.29h.11v1.38h-.11a2.51 2.51 0 0 0-.05-.3.39.39 0 0 0-.08-.17.26.26 0 0 0-.15-.08 1.1 1.1 0 0 0-.24-.02h-.71v1.6l.03.06a.4.4 0 0 0 .16.05l.3.01h.13c.17 0 .3 0 .42-.03a.68.68 0 0 0 .29-.12.78.78 0 0 0 .21-.24c.06-.1.12-.23.18-.4h.13L43.82 33ZM51 31.97 50.77 33h-2.5v-.1a.9.9 0 0 0 .2-.05c.05-.01.1-.04.12-.08a.34.34 0 0 0 .06-.15l.02-.26v-2.71c0-.1 0-.19-.02-.25a.3.3 0 0 0-.06-.16.25.25 0 0 0-.12-.08.89.89 0 0 0-.2-.04V29h1.3v.12c-.09 0-.16.02-.22.04a.22.22 0 0 0-.13.08.34.34 0 0 0-.06.16l-.02.25v2.88l.01.13c.01.03.03.05.06.07.03.02.08.03.13.04h.52c.2 0 .36-.03.5-.09a.77.77 0 0 0 .41-.45l.11-.26H51Z" fill="#143460" /></svg>