<!-- by TradeStack --><svg width="56" height="56" viewBox="0 0 56 56" xmlns="http://www.w3.org/2000/svg"><path fill="#005130" d="M0 0h56v56H0z"/><path d="m6.86 24 .1.04c.03 0 .04.03.04.06v.8c0 .05-.02.1-.07.1H4.78c-.03 0-.05 0-.05.03v1.38c0 .06-.03.1-.1.09L4 26.47v-2.4a.2.2 0 0 0 .05-.07h2.8Z" fill="#01A261"/><path d="M34.5 26c.46 0 .82.17 1.09.5.24.32.37.75.4 1.28a17.39 17.39 0 0 1 0 1.44c-.03.53-.16.95-.4 1.27a1.3 1.3 0 0 1-1.09.51 1.3 1.3 0 0 1-1.09-.5 2.19 2.19 0 0 1-.4-1.28 17.39 17.39 0 0 1 0-1.44c.03-.53.16-.95.4-1.27.27-.34.63-.51 1.09-.51Zm-1.24 2.5c0 .68.06 1.17.18 1.48.18.5.53.74 1.06.74s.88-.25 1.06-.74c.12-.3.17-.8.17-1.48 0-.68-.05-1.17-.17-1.48-.18-.5-.54-.74-1.06-.74-.53 0-.88.25-1.07.74-.1.31-.17.8-.17 1.48ZM39 26c.06 0 .1.08.1.23.03 1.46.04 2.9.03 4.3 0 .05.01.07.04.08.48.14.84.16 1.08.04.3-.14.46-.48.47-1.01 0-.56.02-1.72.02-3.5 0-.06.03-.1.09-.1l.02-.01a.1.1 0 0 1 .1.03c.03.03.04.06.04.1v3.48c-.02 1.19-.68 1.6-1.97 1.23h-.04c-1.3.37-1.95-.04-1.97-1.23v-3.48c0-.04.01-.07.04-.1a.1.1 0 0 1 .1-.03h.02c.06.01.1.05.1.11l.01 3.5c.01.53.17.87.47 1 .24.13.6.11 1.08-.03.03-.01.04-.03.04-.07 0-1.41 0-2.85.03-4.31 0-.15.04-.23.1-.23ZM42 26.34c-.02 0-.02.01-.02.03v4.52c0 .07-.04.11-.1.11h-.06c-.06 0-.1-.04-.1-.11V26.2c0-.06.03-.09.07-.1.27-.05.6-.08.98-.1.32-.02.57 0 .74.07.49.2.73.7.74 1.54v3.27c0 .07-.03.1-.08.1h-.04c-.07 0-.13-.04-.13-.14v-3.22c-.01-.87-.27-1.32-.8-1.35-.35-.02-.75 0-1.2.06ZM17.57 28.7c-.02 0-.03.02-.01.05l1.17 2.05c.04.08.02.14-.05.17l-.04.02c-.06.03-.11 0-.15-.06l-1.2-2.12c-.03-.04-.07-.06-.11-.06h-.88c-.02 0-.04.01-.04.04v2.08c0 .09-.03.13-.1.13h-.08c-.05 0-.08-.03-.08-.1v-4.74c0-.08.04-.13.11-.13a9.5 9.5 0 0 1 1.27-.01c.42.02.73.16.94.42.21.26.3.64.26 1.12-.06.67-.4 1.05-1 1.14Zm-1.3-2.35v2.05c0 .04.01.06.05.06h1.06a.9.9 0 0 0 .66-.28.9.9 0 0 0 .28-.66v-.29a.9.9 0 0 0-.28-.66.9.9 0 0 0-.66-.28h-1.06c-.04 0-.06.02-.06.06ZM28.75 28.11v-1.98c0-.04.02-.07.04-.1.05-.03.08-.04.1-.02.07.04.1.1.1.17L29 30.9c0 .06-.03.09-.08.09h-.09c-.06 0-.09-.03-.09-.1v-2.38c0-.05-.02-.07-.06-.07h-2.35c-.04 0-.06.02-.06.06v2.38c0 .07-.03.11-.1.11h-.06c-.07 0-.11-.04-.11-.12v-4.71c0-.1.05-.16.14-.16h.03c.07 0 .1.03.1.1l.01 2.01c0 .04.02.06.06.06h2.35c.04 0 .06-.02.06-.07ZM29.71 26.25c0-.07.03-.13.07-.18a.2.2 0 0 1 .16-.07h.97c.43 0 .8.18 1.1.53.3.36.44.79.44 1.28v1.38c0 .5-.15.93-.45 1.28-.3.35-.67.53-1.1.53h-.97a.2.2 0 0 1-.16-.08.27.27 0 0 1-.06-.18v-4.49Zm.29.14v4.22c0 .08 0 .13.08.13h.8c.36 0 .67-.15.92-.45.26-.3.39-.66.39-1.09v-1.4c0-.42-.13-.78-.38-1.08-.26-.3-.56-.45-.92-.45h-.8c-.08 0-.09.04-.09.12ZM49.12 31a.12.12 0 0 1-.1-.04l-.02-.1v-1.73c0-.18-.06-.34-.12-.5-.43-.97-.79-1.8-1.07-2.48-.05-.1-.02-.15.08-.15h.05c.06 0 .1.03.13.1a157.27 157.27 0 0 0 1.06 2.46l.01-.02 1.06-2.44c.02-.06.07-.1.12-.1h.06c.1 0 .12.06.08.16l-1.08 2.47c-.07.16-.1.32-.12.5l-.01 1.73c0 .05-.01.08-.03.1a.12.12 0 0 1-.1.04ZM20.5 26c.42 0 .68.02.8.06.45.15.68.47.69.96v3.84c0 .1-.05.14-.14.14h-.04c-.07 0-.1-.04-.1-.11v-2.16c0-.04-.02-.06-.06-.06a52.23 52.23 0 0 0-2.3 0c-.03 0-.05.02-.05.06v2.16c0 .07-.04.1-.12.1h-.03c-.1.01-.14-.04-.14-.13v-3.84c.01-.5.24-.81.69-.96.12-.04.39-.06.8-.06Zm-1.17 2.37h2.34c.03 0 .04-.01.04-.04v-1.27c0-.22-.08-.4-.23-.56a.76.76 0 0 0-.56-.23h-.84c-.22 0-.4.08-.56.24a.76.76 0 0 0-.23.55v1.28c0 .02.02.03.04.03ZM23.87 26h1.4c.06 0 .09.04.09.1v.04c0 .09-.04.13-.11.13h-1.2c-.03 0-.05.02-.05.07v4.42c0 .16-.05.24-.13.24s-.11-.08-.12-.24v-4.42c0-.05-.02-.07-.06-.07H22.5c-.07 0-.1-.04-.1-.13v-.04c0-.07.02-.1.07-.1h1.4ZM45.3 28.5c-.03 0-.05.03-.05.07v1.72c0 .27.12.41.35.42l1.6.03c.07 0 .11.04.12.11v.04c0 .04-.02.1-.06.11-.86.04-1.43.01-1.72-.01-.21-.02-.35-.11-.44-.28-.06-.14-.1-.34-.1-.61v-3.3c0-.27.05-.47.14-.6.1-.12.26-.19.5-.2h1.54c.08 0 .12.05.12.13s-.03.13-.1.14H45.6c-.24 0-.36.15-.36.42v1.47c0 .05.02.07.06.07h1.91c.06 0 .1.03.09.1a.7.7 0 0 1 0 .05c-.02.08-.06.13-.13.13H45.3ZM6.17 26H5.1c-.05 0-.08.04-.08.1L5 28.1c0 .05.04.1.08.1h1.08c.05 0 .08-.04.08-.09l.01-2.02c0-.05-.03-.1-.08-.1Zm2.3 0H7.43c-.06 0-.1.06-.1.12v1.98c0 .06.04.11.1.11h1.04c.05 0 .1-.05.1-.11v-1.98c0-.06-.05-.11-.1-.11Zm.04 2.61a222.98 222.98 0 0 0-3.45 0c-.04 0-.05.03-.05.07v2.18c0 .1.04.14.12.14h1.01c.07 0 .1-.04.1-.12v-1.8c0-.05.02-.07.05-.06h1c.03 0 .04.01.04.05v1.8c0 .08.04.12.1.12h1.02c.08 0 .12-.04.12-.13v-2.19c0-.04-.02-.06-.06-.06ZM10.23 27.27c0-.06.03-.1.08-.1h.11c.42.01.72.06.87.14.26.14.42.42.47.85 0 .04.02.06.06.06h1.12c.03 0 .04-.02.04-.06a2.35 2.35 0 0 0-.71-1.64c-.4-.35-.91-.52-1.55-.52-.56 0-1.08.05-1.57.13-.1.01-.15.08-.15.2v1.84c0 .03.01.05.04.05h1.14c.03 0 .05-.02.05-.06v-.89Zm.5 2.55h-.44c-.04 0-.06-.02-.06-.06v-1.1c0-.04-.02-.06-.04-.06H9.04c-.03 0-.05.02-.05.05v2.02c0 .11.05.18.14.2.36.07.8.1 1.32.13 1.6.05 2.45-.72 2.54-2.32 0-.05-.02-.08-.06-.08h-1.1c-.05 0-.07.03-.07.08-.03.76-.38 1.14-1.04 1.14ZM13.77 26h1.16c.03 0 .07.04.07.08v2.06c0 .04-.04.07-.07.07h-1.16c-.03 0-.07-.03-.07-.07v-2.06c0-.04.04-.08.07-.08Zm.04 2.6h1.09c.05 0 .1.06.1.12v2.17c0 .06-.05.11-.1.11h-1.1c-.05 0-.1-.05-.1-.12v-2.16c0-.06.05-.12.1-.12Z" fill="#fff"/><path d="M52 29.5V32h-2.85a.25.25 0 0 1-.1-.06.14.14 0 0 1-.05-.1l.01-.73c0-.06.04-.11.1-.11h2.27c.03 0 .05 0 .05-.04v-1.35c0-.07.04-.11.11-.11H52Z" fill="#01A261"/></svg>