<?xml version='1.0' encoding='utf-8'?>
<!-- by TradeStack -->
<svg width="56" height="56" viewBox="0 0 56 56" fill="none" xmlns="http://www.w3.org/2000/svg">
<rect width="56" height="56" fill="#F0F3FA" />
<path d="M15.6257 31.98C16.6266 25.7199 22.7279 21.5575 28.8229 22.7607C32.5311 23.4914 35.4899 25.9356 37.0407 29.4129C37.0753 29.4906 37.0575 29.5048 36.9873 29.4554C33.2429 26.8301 28.3295 27.3089 25.3221 30.7925C23.3108 33.1233 22.6855 36.3659 23.7146 39.292C24.6344 41.9095 26.477 43.7206 29.2424 44.7253C29.2948 44.7442 29.2938 44.76 29.2393 44.7726C27.5282 45.1537 25.7825 45.0198 24.0996 44.6371C19.2443 43.5331 14.9689 40.0606 12.7738 35.6037C7.32296 24.5309 15.0584 11.3713 27.4685 11.0075C39.1808 10.6658 47.8339 22.0583 44.1351 33.4005C44.0785 33.5758 44.0665 33.5727 44.099 33.391C45.5398 25.4569 40.4646 17.8424 32.4903 16.4124C23.1616 14.7399 14.6687 22.4064 15.5659 31.9784C15.5657 31.9863 15.5687 31.994 15.5741 31.9998C15.5796 32.0055 15.5871 32.0089 15.595 32.0091C15.6029 32.0093 15.6106 32.0063 15.6164 32.0009C15.6221 31.9954 15.6254 31.9879 15.6257 31.98Z" fill="#007BC0" />
</svg>