<?xml version='1.0' encoding='utf-8'?>
<!-- by TradeStack -->
<svg width="56" height="56" viewBox="0 0 56 56" xmlns="http://www.w3.org/2000/svg"><path fill="#F0F3FA" d="M0 0h56v56H0z" /><path fill="#996C5C" d="M13 13h30v30H13z" /><path fill-rule="evenodd" d="M16 16v1h3v1.36l-3 2.14V22l3.04-2.17c.14.7.75 1.67 2.46 1.67 2 0 2.5-1.67 2.5-2.5v-3h-8Zm3.5 3.5c.17.5.8 1.4 2 1 1.2-.4 1.5-1.17 1.5-1.5v-2h-3.5v2.5Z" fill="#F6F8ED" /><path fill-rule="evenodd" d="M24 23h-8v3.5c0 1.5 1 2.5 2.5 2.5 1.2 0 1.5-1 1.5-1.5 0 .8 1.33 1 2 1 1.6 0 2-1 2-1.5v-4Zm-1 1h-3v1.5c0 .67.2 2 1 2 1 0 2 0 2-1.5v-2Zm-3.5 0h-3v2.5c0 .5.3 1.5 1.5 1.5 1.5 0 1.5-2 1.5-2.5V24Z" fill="#FCF7EE" /><path d="M16 31v-1h8v1h-8Z" fill="#FCF7EE" /><path fill-rule="evenodd" d="M16 33v2.5c0 1.5.8 4.5 4 4.5s4-3.33 4-5v-2h-8Zm7 1h-6.5v1.5c0 1.5 1 3.5 3.5 3.5 2 0 2.83-2.67 3-4v-1Z" fill="#FCF7EE" /><path fill-rule="evenodd" d="M37.76 13c.18 2.1.85 4.54 1.6 6.8.3.9.62 1.79.92 2.6A19.37 19.37 0 0 0 43 20.6v.63c-.73.56-1.59 1.1-2.54 1.63l.37.98.02.07c.43 1.11.77 2.01.9 2.52a4 4 0 0 0 .38.88 20.85 20.85 0 0 0 .87 1.4v.9l-.55-.83a21.3 21.3 0 0 1-.75-1.23c-.21-.37-.37-.72-.44-1-.12-.48-.46-1.36-.9-2.52v-.01l-.35-.92-.84.43c-1.38.67-2.9 1.28-4.46 1.78 0 .04.02.08.03.11.5 1.75.88 3.27.95 4.5.06 1.21-.2 2.2-1.05 2.78-.88.58-2.38.53-3.87-.84a10.6 10.6 0 0 1-2.4-3.56c.04.83.15 1.54.36 2.1.75 1.99 1.47 2.91 2.26 3.3.79.4 1.7.3 2.96.04l.47-.09c1.12-.22 2.28-.45 3.25-.77.55-.19 1.03-.4 1.4-.64l.36-.3c-.55-.41-1.05-.84-1.48-1.27a5.43 5.43 0 0 1-1.5-2.24c-.1-.36-.08-.7.08-1.01.17-.3.48-.53.9-.67a1.82 1.82 0 0 1 1.67.2c.45.3.76.8.96 1.34a5.79 5.79 0 0 1 .18 3.28l-.11.26c.9.63 1.9 1.2 2.87 1.57v.54c-1.06-.4-2.17-1-3.17-1.7-.14.15-.3.28-.49.41-.41.28-.94.51-1.51.7-1 .34-2.2.57-3.31.8-.16.02-.32.05-.47.09-1.24.24-2.33.4-3.29-.09-.96-.48-1.74-1.56-2.5-3.57a9.04 9.04 0 0 1-.38-3.32c-.6.36-.94.78-1.15 1.26-.23.55-.3 1.2-.26 2.03.02.67.11 1.43.2 2.3l.08.61c.12 1.12.28 1.87.49 2.38.2.49.46.73.79.85.35.14.82.16 1.48.14l.64-.03c.53-.03 1.15-.06 1.85-.06.97 0 1.86-.15 2.67-.34.33-.07.65-.16.97-.24.44-.1.87-.22 1.25-.3a3.5 3.5 0 0 1 1.88.05c.58.22 1.06.68 1.45 1.47.3.57.55 1.1.75 1.6l2.03.11v.5l-1.83-.1c.2.6.33 1.15.33 1.69 0 .61-.16 1.2-.5 1.81h-.58c.41-.64.58-1.22.58-1.81 0-.53-.13-1.09-.37-1.72-2.36-.12-4.8-.22-6.13-.22-1.37 0-2.3.9-2.9 2.11A7.92 7.92 0 0 0 31 43h-.5a8.5 8.5 0 0 1 .65-1.86c.65-1.3 1.71-2.39 3.35-2.39 1.3 0 3.63.1 5.92.21l-.64-1.35c-.36-.7-.76-1.06-1.19-1.22a3.02 3.02 0 0 0-1.6-.02c-.38.07-.78.17-1.2.28l-1 .25c-.84.19-1.76.35-2.79.35-.69 0-1.28.03-1.8.06-.24 0-.46.02-.67.03-.66.02-1.22 0-1.68-.17-.49-.18-.83-.54-1.07-1.13a9.51 9.51 0 0 1-.53-2.51l-.07-.6c-.1-.88-.19-1.66-.21-2.35-.03-.85.03-1.6.3-2.24.27-.65.75-1.17 1.5-1.59-.38-1.06-.72-2.29-1.02-3.7-.8-3.82-.89-6.64-.66-8.62.06-.53.14-1.01.24-1.43h.52c-.1.42-.2.92-.26 1.5-.22 1.9-.14 4.67.65 8.45.23 1.05.47 2 .73 2.84.15-1.5.44-3.12.78-4.72.42-1.9.93-3.78 1.4-5.35-.43-1-.84-1.93-1.16-2.72h.54l.85 1.99c.24-.78.47-1.45.67-1.99h.53c-.25.67-.56 1.6-.9 2.69l.49 1.08.3.68c1.2 2.73 2.49 5.63 3.09 7.4a33.1 33.1 0 0 0 5.28-2.21 84.7 84.7 0 0 1-.95-2.69A31.75 31.75 0 0 1 37.26 13h.5Zm2 18.42-.04.12c-.53-.4-1-.8-1.42-1.22a4.98 4.98 0 0 1-1.37-2c-.07-.28-.05-.49.04-.65.1-.17.27-.32.6-.43.53-.18.93-.1 1.25.12.33.23.59.63.77 1.12a5.29 5.29 0 0 1 .17 2.94Zm-8.65.08c-.92-.84-1.89-2.25-2.72-4.5.65-.3 1.51-.55 2.65-.75 1.06-.2 2.13-.46 3.19-.78l.03.1c.5 1.75.87 3.23.93 4.38.06 1.16-.19 1.92-.83 2.34-.62.42-1.87.47-3.25-.79Zm-.16-5.75c-1.02.2-1.86.41-2.53.69.12-1.62.43-3.46.82-5.26.37-1.67.8-3.32 1.23-4.75l.24.55.29.65c1.21 2.75 2.49 5.63 3.08 7.36-1.04.32-2.1.58-3.13.76Z" fill="#F6F8ED" /></svg>