<!-- by TradeStack --><svg width="56" height="56" viewBox="0 0 56 56" xmlns="http://www.w3.org/2000/svg"><path fill="#F0F3FA" d="M0 0h56v56H0z"/><path d="M29.8 17.23c.13-.21.2-.46.2-.73a1.5 1.5 0 1 0-2.77.8L25.18 22a2 2 0 0 0-1.73.74L17 19.42a1.5 1.5 0 1 0-.15.73l6.26 3.2a2 2 0 0 0 .15 1.63l-2.99 3.3a2.99 2.99 0 0 0-3.75 1.04l-5.55-2.11a1.5 1.5 0 1 0-.04.74l5.26 2a3 3 0 0 0 .45 2.9l-2.38 3.36a1.5 1.5 0 1 0 .52.5l2.37-3.35a2.99 2.99 0 0 0 4.29-.61L24 34.44v.06a1.5 1.5 0 0 0 3 .1l6.2-1.74a2 2 0 0 0 3.06.69l2.06 2.03a1.5 1.5 0 1 0 .56-.44L36.73 33a2 2 0 0 0-1.23-2.95V23c.37 0 .7-.13.97-.35l4.84 3.19 4.02 6.42A1 1 0 0 0 46 34a1 1 0 0 0 0-2l-3.96-6.34 4.44-3.8a1 1 0 1 0-.43-.56l-4.5 3.85-4.66-3.07a1.5 1.5 0 0 0-2.44-1.64l-4.64-3.2Zm-2.02.59a1.5 1.5 0 0 0 1.54-.06l4.75 3.28a1.5 1.5 0 0 0 .72 1.78v7.2c-.38.03-.73.18-1.01.4l-7-5.5a2 2 0 0 0-.9-2.72l1.9-4.38Zm-4.06 7.71a2 2 0 0 0 2.62-.04l6.96 5.46a1.99 1.99 0 0 0-.3 1.23l-6.12 1.73a1.5 1.5 0 0 0-2.67-.18l-2.43-1.6a3 3 0 0 0-.9-3.47l2.84-3.13Z" fill="url(#a)"/><defs><linearGradient id="a" x1="8" y1="27" x2="48" y2="25" gradientUnits="userSpaceOnUse"><stop stop-color="#FFCE75"/><stop offset="1" stop-color="#FF6648"/></linearGradient></defs></svg>