<!-- by TradeStack --><svg width="56" height="56" viewBox="0 0 56 56" xmlns="http://www.w3.org/2000/svg"><path fill="#F0F3FA" d="M0 0h56v56H0z"/><path d="m10 19-2 3h9L8 35v2h18c1.63 0 9-1.5 9-9.5 0-6.8-4.67-8.5-7-8.5h-4l-2 3h4c2-.17 6 .7 6 5.5s-4 6.33-6 6.5H12.5L22 19H10Z" fill="#B69D37"/><path d="M24 24h-2l-4 6h2l4-6ZM27 24h-2l-4 6h2l4-6Z" fill="#5F98D1"/><path d="m36 22-3-3h7c3.5 0 5.5 2 5.5 5.5 0 2.8-1.67 4.17-2.5 4.5l5 8h-3c-.83-1.33-2.7-4.3-3.5-5.5-.8-1.2-2-1.5-2.5-1.5h-2v-3h3c.83 0 2.5-.5 2.5-2.5s-1.33-2.5-2-2.5H36Z" fill="#B69D37"/></svg>