<?xml version='1.0' encoding='utf-8'?>
<!-- by TradeStack -->
<svg width="56" height="56" viewBox="0 0 56 56" xmlns="http://www.w3.org/2000/svg"><path fill="#1E376D" d="M0 0h56v56H0z" /><path fill-rule="evenodd" d="M12.5 16C10.55 16 9 17.5 9 19.33v17.34A3.42 3.42 0 0 0 12.5 40h31c1.94 0 3.5-1.5 3.5-3.33V19.33A3.42 3.42 0 0 0 43.5 16h-31ZM11 19.67c0-.92.79-1.67 1.76-1.67h30.48c.97 0 1.76.75 1.76 1.67v13.14c-.5.12-.91.28-1.32.44l-.05.02c-.78.3-1.52.58-2.74.58a9.46 9.46 0 0 1-2.52-.25 4.35 4.35 0 0 1-.75-.28 8.75 8.75 0 0 0-6.42-.15 8.5 8.5 0 0 1-3.3.7c-1.21 0-2.34-.31-2.75-.46a9.12 9.12 0 0 0-3.54-.82c-1.48 0-2.88.43-3.42.65l-.02.01h-.02a7.67 7.67 0 0 1-5.9.16c-.4-.2-.83-.36-1.25-.47V19.67Zm33.05 14.54c.32-.13.62-.24.95-.34v.68c-.5.12-.91.28-1.32.44l-.05.02c-.78.3-1.52.58-2.74.58a9.46 9.46 0 0 1-2.52-.25 4.35 4.35 0 0 1-.75-.28 8.75 8.75 0 0 0-6.42-.15 8.5 8.5 0 0 1-3.3.7c-1.21 0-2.34-.3-2.75-.46a9.12 9.12 0 0 0-3.54-.82c-1.48 0-2.88.43-3.42.65l-.02.01-.02.01a7.67 7.67 0 0 1-5.9.16c-.4-.2-.83-.36-1.25-.48v-.67c.26.09.53.2.77.32h.01l.01.01c.47.22 1.72.6 3.3.6a8.7 8.7 0 0 0 3.52-.76 8.91 8.91 0 0 1 3-.57c1.28 0 2.61.49 3.1.73h.02l.02.01a9.8 9.8 0 0 0 3.15.54c1.73 0 3.13-.53 3.72-.79a7.69 7.69 0 0 1 5.52.13l.2.09c.2.09.44.18.74.26.6.17 1.46.3 2.8.3 1.43 0 2.32-.34 3.13-.66l.04-.01Zm0 1.74c.32-.12.62-.24.95-.34v.74c-.5.12-.91.28-1.32.44l-.05.02c-.78.3-1.52.58-2.74.58a9.45 9.45 0 0 1-2.52-.25 4.33 4.33 0 0 1-.6-.21l-.15-.07-.37-.16a8.74 8.74 0 0 0-6.05 0 8.5 8.5 0 0 1-3.3.71c-1.21 0-2.34-.3-2.75-.46a9.12 9.12 0 0 0-3.54-.82c-1.48 0-2.88.43-3.42.66h-.02l-.02.01c-.41.21-1.65.66-3.06.66-1.42 0-2.5-.35-2.84-.5-.4-.2-.83-.36-1.25-.48v-.73c.26.09.53.2.77.32h.01l.01.01c.47.22 1.72.6 3.3.6a8.7 8.7 0 0 0 3.52-.76 8.91 8.91 0 0 1 3-.57c1.28 0 2.61.49 3.1.73h.02l.02.02a9.8 9.8 0 0 0 3.15.53c1.73 0 3.13-.53 3.72-.79a7.69 7.69 0 0 1 5.52.13l.2.1c.2.08.44.17.74.26.6.16 1.46.29 2.8.29 1.43 0 2.32-.34 3.13-.65l.04-.02ZM18.62 24.41c-3.96 0-5.92-2.23-6.4-3.35.54.31 2.08.93 3.9.93 1.58 0 3.65-.69 5.73-1.38 2.07-.69 4.15-1.37 5.73-1.37a5.55 5.55 0 0 1 4.54 2.07c-.3-.3-1.28-.88-2.8-.88-1.54 0-2.87.82-4.32 1.71-1.75 1.08-3.68 2.27-6.38 2.27ZM31.5 22H33v5h3v.5h3v.5h-3v1h3v.5h-3v1.35l8.31-.41c-.12.96-1.05 2.87-3.83 2.87-1.71 0-2.37-.32-3.05-.65-.69-.33-1.4-.67-3.25-.67-1.55 0-2.17.29-2.83.59-.74.34-1.52.7-3.65.7-2.1 0-2.83-.35-3.54-.68a5.78 5.78 0 0 0-3.16-.61V32h-.29c-.92.06-1.4.29-1.91.53-.74.36-1.56.75-3.9.75a7.58 7.58 0 0 1-3.2-.79V31H14v-1h-1v-1h1v-1h-1v-1h9.05a3.49 3.49 0 0 1 4.95.05V27h1v-2h3v2h.5v-5Zm-3.84 6c.15.31.25.65.3 1H35v-1h-7.34Zm-.71 1a2.5 2.5 0 0 0-4.9 0h4.9Zm-5.91 0c.05-.35.15-.69.3-1H15v1h6.04ZM20 31h-5v-1h5v1Zm1-1v1h7v-1h-7Zm12.1 1H29v-1h6v.9l-1.9.1ZM30 27v-1h-1v1h1Z" fill="#fff" /></svg>