<!-- by TradeStack --><svg width="56" height="56" viewBox="0 0 56 56" xmlns="http://www.w3.org/2000/svg"><path fill="#F0F3FA" d="M0 0h56v56H0z"/><path d="m18.63 18.97-9.35 16C8.5 36.3 9.44 38 10.95 38H36.1c.7 0 1.34-.38 1.69-1l8.96-16c.74-1.34-.2-3-1.7-3H20.3c-.68 0-1.32.37-1.67.97Z"/><path d="M12.53 32h13.94c.4 0 .66-.4.46-.72L23.59 26h-8.18l-3.34 5.28c-.2.32.05.72.46.72Zm3.5-7 3.01-4.76c.2-.32.71-.32.92 0l3 4.76h-6.92ZM43.47 24H29.53c-.4 0-.66.4-.46.72l6.97 11.04c.2.32.71.32.92 0l6.97-11.04c.2-.32-.05-.72-.46-.72Z" fill="#FC0"/><path d="M24.23 23.4c.08.6.26 1.13.48 1.46l4.09 7.27a.75.75 0 0 1-.66 1.12H11.78a.25.25 0 0 0-.22.12l-1.87 3c-.1.17.02.38.21.38H28a3.9 3.9 0 0 0 3.59-1.94c.61-1.08.64-2.36.2-3.19l-4.6-8.26a.75.75 0 0 1 .66-1.11H44.7c.09 0 .17-.05.22-.13l1.43-2.5a.25.25 0 0 0-.22-.37H27.5c-.95 0-1.64.27-2.14.67-.5.4-.82.97-1 1.59-.17.62-.2 1.28-.13 1.89Zm.81-3.87c.6-.48 1.41-.78 2.46-.78h18.64c.58 0 .93.62.65 1.12l-1.43 2.5a.75.75 0 0 1-.65.38H27.85c-.2 0-.31.2-.22.37l4.59 8.26c.55 1 .48 2.47-.2 3.68A4.4 4.4 0 0 1 28 37.25H9.9a.75.75 0 0 1-.63-1.15l1.87-3a.75.75 0 0 1 .64-.35h16.36c.2 0 .32-.2.22-.37l-4.07-7.25a4.01 4.01 0 0 1-.55-1.67c-.09-.66-.05-1.4.14-2.1.2-.68.57-1.34 1.16-1.83Z" fill="#FC0"/></svg>