<!-- by TradeStack --><svg width="56" height="56" viewBox="0 0 56 56" fill="none" xmlns="http://www.w3.org/2000/svg">
<rect width="56" height="56" fill="#F0F3FA"/>
<path d="M29 12.5144C29 10.5 29.5 9 29.5 6H26.5C26.5 8.5 27 10 27 12.5144C26.935 14.8119 24.252 17.5843 21.4906 20.1487C18.7645 22.77 17 26.742 17 30.2198C17 38.6217 21.9043 47 27.9504 47H28.0005H28.0506C34.0989 47 39 38.6217 39 30.2198C39 26.742 37.2366 22.77 34.5158 20.1487C31.7598 17.5843 29.064 14.8119 29 12.5144Z" fill="#0063A7"/>
<path d="M26 41.0139C26.0009 41.2718 25.9017 41.5198 25.7239 41.7043C25.5462 41.8887 25.304 41.9949 25.0496 42H24.9504C24.6963 41.9972 24.4536 41.8924 24.2755 41.7086C24.0974 41.5248 23.9983 41.2769 24 41.0193V41.0139C24 40.745 24.1054 40.4871 24.2929 40.297C24.4804 40.1068 24.7348 40 25 40C25.2652 40 25.5196 40.1068 25.7071 40.297C25.8946 40.4871 26 40.745 26 41.0139ZM25.5671 41.0139C25.5697 40.9363 25.557 40.859 25.5297 40.7865C25.5023 40.714 25.4608 40.6478 25.4077 40.5919C25.3546 40.536 25.291 40.4914 25.2206 40.4609C25.1502 40.4304 25.0745 40.4146 24.9979 40.4143C24.9218 40.414 24.8464 40.4293 24.7764 40.4593C24.7063 40.4893 24.6429 40.5334 24.5901 40.589C24.5373 40.6445 24.4961 40.7103 24.4691 40.7824C24.4421 40.8546 24.4298 40.9315 24.433 41.0086C24.4303 41.0863 24.443 41.1638 24.4704 41.2364C24.4979 41.309 24.5394 41.3753 24.5926 41.4313C24.6458 41.4874 24.7095 41.532 24.7801 41.5625C24.8506 41.5931 24.9265 41.609 25.0032 41.6092C25.0793 41.6094 25.1546 41.594 25.2246 41.5639C25.2947 41.5337 25.358 41.4895 25.4107 41.4338C25.4634 41.3782 25.5044 41.3123 25.5313 41.2401C25.5582 41.1679 25.5703 41.091 25.5671 41.0139Z" fill="#F0F3FA"/>
<path d="M21 25H22C22.9494 27.403 25.1333 28.9965 27.9973 29C30.8583 28.9957 33.0503 27.4019 34 25H35C34.0535 27.7649 31.3211 30 28 30C24.6789 30 21.9465 27.7649 21 25Z" fill="#F0F3FA"/>
<path d="M34 25H33C32.2618 23.3859 30.3077 21.5 28 21.5C25.6923 21.5 23.7382 23.3859 23 25H22C22.9231 22.3333 25.3149 20.5 28 20.5C30.6851 20.5 33.5385 22.7778 34 25Z" fill="#F0F3FA"/>
<path d="M32 25H31C30.5 24.5 29.5 23.3 27.9943 23.3C26.5 23.3 25.5 24.5 25 25H24C24.8889 23.8 26 22.5 28.0022 22.5C30 22.5 31.1111 23.8 32 25Z" fill="#F0F3FA"/>
<path d="M30 25H26C26.5482 24.3564 27.2609 24 28 24C28.7391 24 29.4518 24.3564 30 25Z" fill="#F0F3FA"/>
<path fill-rule="evenodd" clip-rule="evenodd" d="M28.0463 42H27.9474C27.3841 41.9937 26.9968 41.5061 27 41.0208V41.0155C27 40.5076 27.4101 40 28 40C28.5899 40 29 40.5076 29 41.0155H28.9937C28.9953 41.5013 28.6095 41.9888 28.0463 42ZM28.5611 41.0156C28.5637 40.9381 28.5508 40.8608 28.5234 40.7884C28.496 40.7161 28.4546 40.65 28.4016 40.5942C28.3486 40.5383 28.2851 40.4939 28.2149 40.4635C28.1446 40.433 28.0691 40.4172 27.9927 40.417C27.9169 40.4166 27.8417 40.4319 27.7719 40.4618C27.702 40.4918 27.6388 40.5358 27.5862 40.5913C27.5336 40.6467 27.4925 40.7125 27.4656 40.7845C27.4387 40.8565 27.4264 40.9333 27.4296 41.0102C27.427 41.0879 27.4399 41.1653 27.4673 41.2378C27.4948 41.3103 27.5363 41.3765 27.5894 41.4324C27.6425 41.4883 27.7061 41.5328 27.7765 41.5633C27.8468 41.5938 27.9225 41.6097 27.999 41.6099C28.0749 41.6101 28.15 41.5947 28.2198 41.5646C28.2896 41.5345 28.3527 41.4904 28.4052 41.4348C28.4578 41.3793 28.4987 41.3135 28.5255 41.2414C28.5523 41.1694 28.5644 41.0925 28.5611 41.0156Z" fill="#F0F3FA"/>
<path fill-rule="evenodd" clip-rule="evenodd" d="M32 40.9966C32 41.5591 31.5303 42 30.8495 42H30V40H30.8495C31.5303 40 32 40.4331 32 40.9966ZM31.5023 40.9965C31.5067 40.916 31.4928 40.8356 31.4615 40.7604C31.4302 40.6852 31.3823 40.6169 31.3207 40.56C31.2592 40.5031 31.1854 40.4588 31.1043 40.4299C31.0231 40.401 30.9363 40.3883 30.8494 40.3925H30.4854V41.604H30.8494C30.936 41.6088 31.0227 41.5967 31.1039 41.5683C31.1851 41.54 31.2589 41.4961 31.3205 41.4395C31.3822 41.3829 31.4302 41.3149 31.4615 41.2399C31.4929 41.165 31.5068 41.0847 31.5023 41.0044V40.9965Z" fill="#F0F3FA"/>
<path d="M33.2318 40.3795C33.0719 40.3795 33 40.4771 33 40.5703C33 40.7812 33.3074 40.7578 33.398 40.8131C33.7826 40.915 34 41.0559 34 41.3962V41.4017C34 41.7832 33.7123 42 33.3021 42C33.0054 42.0012 32.7186 41.8912 32.4966 41.6911L32.7395 41.3767C32.8947 41.5224 33.0964 41.6059 33.3074 41.6119C33.4249 41.6119 33.5823 41.5672 33.5823 41.4244C33.5823 41.3171 33.5184 41.2608 33.1987 41.1784C32.8162 41.0797 32.569 40.9714 32.569 40.5876V40.5822C32.569 40.231 32.8461 40.0002 33.2339 40.0002C33.4899 39.9958 33.7393 40.0824 33.9392 40.2451L33.7261 40.5703C33.5841 40.4573 33.4117 40.3907 33.2318 40.3795Z" fill="#F0F3FA"/>
<path d="M23.522 39.9951V40.3954L22.411 40.401V40.8283H23.3907V41.223H22.411V42H22V39.9951H23.522Z" fill="#F0F3FA"/>
<path fill-rule="evenodd" clip-rule="evenodd" d="M24.7604 34.3487C24.9436 34.4061 25.1588 34.7916 25.2412 35.0137C25.2412 35.0137 25.5326 35.7536 25.7004 36.2015L26 37H25.1341C24.6739 37 24.4999 36.8565 24.3207 36.3362C24.2985 36.271 24.2752 36.1908 24.2495 36.1024C24.1201 35.6561 23.9297 35 23.5 35V36.6843L22 36.9888V31H23.6628C25.4862 31 26 31.5 26 32.7006C26 33.9011 25.4425 34.1572 24.7604 34.3487ZM23.9983 32.3861H23.5V33.3955H24.0055C24.5883 33.3968 24.5883 32.9713 24.5883 32.8303C24.6049 32.5118 24.2826 32.3626 23.9983 32.3861Z" fill="#F0F3FA"/>
<path d="M28.5 32.7464C28.5 32.5279 28.288 32.374 28.0036 32.374L27.9951 32.3802C27.7108 32.3802 27.5 32.5341 27.5 32.7662V35.2487C27.5 35.4671 27.7108 35.621 27.9951 35.621C28.2196 35.621 28.5012 35.5141 28.5012 35.2487V34.8279L30 34.5014V35.2462C30 36.2813 29.1592 36.9752 28 37C26.8408 36.9752 26 36.2813 26 35.2462V32.7638C26 31.7286 26.8372 31 28 31C29.1567 31 30 31.7286 30 32.7638V33L28.5 33.3508V32.7464Z" fill="#F0F3FA"/>
<path d="M31.5 35.5H33.9987L34 37H30V31.3193L31.5 31V35.5Z" fill="#F0F3FA"/>
<path d="M34 39H22V38H34V39Z" fill="#F0F3FA"/>
</svg>
