<?xml version='1.0' encoding='utf-8'?>
<!-- by TradeStack -->
<svg width="56" height="56" viewBox="0 0 56 56" xmlns="http://www.w3.org/2000/svg"><path fill="#F0F3FA" d="M0 0h56v56H0z" /><path d="M45 28a17 17 0 1 1-34 0 17 17 0 0 1 34 0Zm-1.02 0a15.98 15.98 0 1 0-31.96 0 15.98 15.98 0 0 0 31.96 0Z" fill="#5675DF" /><path d="M43.98 28a15.98 15.98 0 1 1-31.96 0 15.98 15.98 0 0 1 31.96 0Z" fill="#3D4388" /><path d="M39.86 28a11.85 11.85 0 1 1-23.71 0 11.85 11.85 0 0 1 23.7 0Z" fill="#444C97" /><path d="M36.65 28a8.65 8.65 0 1 1-17.3 0 8.65 8.65 0 0 1 17.3 0Z" fill="#5057B0" /><path d="M33.14 28a5.43 5.43 0 1 1-10.86 0 5.43 5.43 0 0 1 10.86 0Z" fill="#5860C2" /><path d="M30.68 29.44c-.06-.08-.1-.15-.13-.22a638.08 638.08 0 0 1-.97-2.44h-.02a6.29 6.29 0 0 1-.85.18 250.63 250.63 0 0 1-1.2 1.09v-1.12c0-.02 0-.02-.02-.03a4.95 4.95 0 0 1 .29-9.8 4.94 4.94 0 0 1 4.4 7.9l1.01 1.1c.02.03.01.04-.01.03l-1.98-.16h-.01l-.47.31v.03l1.1 2.56c.06.14-.06.2-.17.25-.33.13-.65.23-.97.32Zm-6.17-4.97a4.45 4.45 0 0 0 3 1.92v-.82l-.01-.02A3.6 3.6 0 1 1 31.26 24l.56.6a.01.01 0 0 0 .01.01h.01a4.45 4.45 0 1 0-7.33-.14Zm.8-3.55a3.13 3.13 0 0 0 2.18 4.12l.02-.01V24.2a2.3 2.3 0 0 1-1.22-3.44 2.3 2.3 0 0 1 3.58-.36 2.33 2.33 0 0 1 .46 2.57v.01l.55.6h.03a3.11 3.11 0 1 0-5.6-2.67Zm3.23.07c.39.18.54.34.68.74.02.05.05.1.1.15a821.8 821.8 0 0 0 .64.67 1.81 1.81 0 0 0-2.1-2.3c-.02 0-.03 0-.02.02a23.61 23.61 0 0 0 .7.72Zm-1.05-.63a1.81 1.81 0 0 0 0 3.31h.01V22.7c-.47-.43-.4-1.05 0-1.5V20.37h-.01Zm2.58 5.24v-.01h.01l2.38.2a.01.01 0 0 0 .01-.02l-4.63-5.06h-.01V27.37h.01l1.68-1.56a.01.01 0 0 1 .01 0l1.3 3.28h.01l.63-.21v-.01l-1.4-3.26Z" fill="#fff" /><path d="m30.07 25.6 1.4 3.25v.01l-.63.23h-.01l-1.3-3.29a.01.01 0 0 0-.01 0l-1.68 1.56a.01.01 0 0 1-.02 0v-6.64a.01.01 0 0 1 .02 0l4.63 5.05a.01.01 0 0 1 0 .02l-2.39-.2a.01.01 0 0 0 0 .01Z" /><path d="m26.3 31.38.48-1.37.02-.01h1.9l.03.01.29.81 1.48 4.16-.01.02h-1.56l-.01-.01-.01-.01-.3-.98h-1.67l-.31.98s-.01.02-.03.02h-3.16l-.02-.03-.3-.97h-1.68l-.3.98c0 .01 0 .02-.02.02h-3.14l-.01-.02-1.13-1.78a.03.03 0 0 0-.02-.01h-.34l-.01.01v1.77c0 .02-.02.03-.04.03h-1.4c-.02 0-.03-.01-.03-.03v-4.94s0-.03.02-.03h2.02c.99.02 1.93.43 1.93 1.46 0 .65-.33 1.03-.9 1.36v.02l1.48 2.04c.01.02.02.02.03 0l1.71-4.86.01-.02h1.94v.02a5718.48 5718.48 0 0 0 1.78 4.93h.02l1.26-3.57Zm1.47-.53c-.18.7-.38 1.46-.59 2.15h1.18c-.2-.7-.42-1.45-.59-2.15Zm-5.5.02c-.16.7-.37 1.44-.58 2.13h1.18l-.6-2.13c0-.01 0-.01 0 0Zm-5.8.18v1.11h.4c.08 0 .16 0 .24-.03a.66.66 0 0 0 .2-.12.45.45 0 0 0 .19-.38v-.06a.5.5 0 0 0-.18-.38.71.71 0 0 0-.46-.15h-.39ZM31.4 35h-.38c-.01 0-.02 0-.02-.02v-4.96c0-.01 0-.02.02-.02h1.83c1.38.01 2.51.57 2.69 1.94.08.64 0 1.38-.35 1.94-.54.85-1.51 1.12-2.55 1.12H31.4Zm2.55-1.84c.23-.71.2-2.03-.96-2.06h-.5c-.03 0-.04.01-.04.04v2.73l.02.02c.65.04 1.28-.08 1.48-.73ZM38 33.2v1.78s0 .02-.02.02h-1.44V30h2.01c.83.04 1.77.27 1.94 1.16.15.73-.19 1.29-.86 1.65a.02.02 0 0 0 0 .03l1.55 2.13c0 .02 0 .03-.02.03H39.53l-.01-.02-1.14-1.79H38.02l-.02.01Zm0-2.2v1.15H38.42c.34.01.63-.23.63-.5v-.11c0-.32-.34-.54-.63-.54H38Z" fill="#fff" /></svg>