<?xml version='1.0' encoding='utf-8'?>
<!-- by TradeStack -->
<svg width="56" height="56" viewBox="0 0 56 56" xmlns="http://www.w3.org/2000/svg"><path fill="#F0F3FA" d="M0 0h56v56H0z" /><path d="M30.12 30.12a3 3 0 1 1-4.24-4.24 3 3 0 0 1 4.24 4.24Z" fill="url(#a2pgojn0e)" /><path d="M33.41 25.41a2 2 0 1 1-2.82-2.82 2 2 0 0 1 2.82 2.82Z" fill="#069DE0" /><path d="M37.41 21.41a2 2 0 1 1-2.82-2.82 2 2 0 0 1 2.82 2.82Z" fill="url(#b2pgojn0e)" /><path d="M39.7 17.7a1 1 0 1 1-1.4-1.4 1 1 0 0 1 1.4 1.4Z" fill="url(#c2pgojn0e)" /><path d="M42.7 14.7a1 1 0 1 1-1.4-1.4 1 1 0 0 1 1.4 1.4Z" fill="url(#d2pgojn0e)" /><path d="M43.7 18.7a1 1 0 1 1-1.4-1.4 1 1 0 0 1 1.4 1.4Z" fill="url(#e2pgojn0e)" /><path d="M43.7 38.7a1 1 0 1 1-1.4-1.4 1 1 0 0 1 1.4 1.4Z" fill="url(#f2pgojn0e)" /><path d="M41.7 21.7a1 1 0 1 1-1.4-1.4 1 1 0 0 1 1.4 1.4Z" fill="url(#g2pgojn0e)" /><path d="M41.7 35.7a1 1 0 1 1-1.4-1.4 1 1 0 0 1 1.4 1.4Z" fill="url(#h2pgojn0e)" /><path d="M38.7 24.7a1 1 0 1 1-1.4-1.4 1 1 0 0 1 1.4 1.4Z" fill="url(#i2pgojn0e)" /><path d="M39.7 32.7a1 1 0 1 1-1.4-1.4 1 1 0 0 1 1.4 1.4Z" fill="url(#j2pgojn0e)" /><path d="M36.41 29.41a2 2 0 1 1-2.82-2.82 2 2 0 0 1 2.82 2.82Z" fill="url(#k2pgojn0e)" /><path d="M30.59 33.41a2 2 0 1 1 2.82-2.82 2 2 0 0 1-2.82 2.82Z" fill="#069DE0" /><path d="M34.59 37.41a2 2 0 1 1 2.82-2.82 2 2 0 0 1-2.82 2.82Z" fill="url(#l2pgojn0e)" /><path d="M38.3 39.7a1 1 0 1 1 1.4-1.4 1 1 0 0 1-1.4 1.4Z" fill="url(#m2pgojn0e)" /><path d="M41.3 42.7a1 1 0 1 1 1.4-1.4 1 1 0 0 1-1.4 1.4Z" fill="url(#n2pgojn0e)" /><path d="M37.3 43.7a1 1 0 1 1 1.4-1.4 1 1 0 0 1-1.4 1.4Z" fill="url(#o2pgojn0e)" /><path d="M17.3 43.7a1 1 0 1 1 1.4-1.4 1 1 0 0 1-1.4 1.4Z" fill="url(#p2pgojn0e)" /><path d="M34.3 41.7a1 1 0 1 1 1.4-1.4 1 1 0 0 1-1.4 1.4Z" fill="url(#q2pgojn0e)" /><path d="M20.3 41.7a1 1 0 1 1 1.4-1.4 1 1 0 0 1-1.4 1.4Z" fill="url(#r2pgojn0e)" /><path d="M31.3 38.7a1 1 0 1 1 1.4-1.4 1 1 0 0 1-1.4 1.4Z" fill="url(#s2pgojn0e)" /><path d="M23.3 38.7a1 1 0 1 1 1.4-1.4 1 1 0 0 1-1.4 1.4Z" fill="url(#t2pgojn0e)" /><path d="M26.59 36.41a2 2 0 1 1 2.82-2.82 2 2 0 0 1-2.82 2.82Z" fill="url(#u2pgojn0e)" /><path d="M25.41 22.59a2 2 0 1 1-2.82 2.82 2 2 0 0 1 2.82-2.82Z" fill="#234C9C" /><path d="M21.41 18.59a2 2 0 1 1-2.82 2.82 2 2 0 0 1 2.82-2.82Z" fill="url(#v2pgojn0e)" /><path d="M17.7 16.3a1 1 0 1 1-1.4 1.4 1 1 0 0 1 1.4-1.4Z" fill="url(#w2pgojn0e)" /><path d="M14.7 13.3a1 1 0 1 1-1.4 1.4 1 1 0 0 1 1.4-1.4Z" fill="url(#x2pgojn0e)" /><path d="M18.7 12.3a1 1 0 1 1-1.4 1.4 1 1 0 0 1 1.4-1.4Z" fill="url(#y2pgojn0e)" /><path d="M38.7 12.3a1 1 0 1 1-1.4 1.4 1 1 0 0 1 1.4-1.4Z" fill="url(#z2pgojn0e)" /><path d="M21.7 14.3a1 1 0 1 1-1.4 1.4 1 1 0 0 1 1.4-1.4Z" fill="url(#aa2pgojn0e)" /><path d="M35.7 14.3a1 1 0 1 1-1.4 1.4 1 1 0 0 1 1.4-1.4Z" fill="url(#ab2pgojn0e)" /><path d="M24.7 17.3a1 1 0 1 1-1.4 1.4 1 1 0 0 1 1.4-1.4Z" fill="url(#ac2pgojn0e)" /><path d="M32.7 17.3a1 1 0 1 1-1.4 1.4 1 1 0 0 1 1.4-1.4Z" fill="url(#ad2pgojn0e)" /><path d="M29.41 19.59a2 2 0 1 1-2.82 2.82 2 2 0 0 1 2.82-2.82Z" fill="url(#ae2pgojn0e)" /><path d="M22.59 30.59a2 2 0 1 1 2.82 2.82 2 2 0 0 1-2.82-2.82Z" fill="#234C9C" /><path d="M18.59 34.59a2 2 0 1 1 2.82 2.82 2 2 0 0 1-2.82-2.82Z" fill="url(#af2pgojn0e)" /><path d="M16.3 38.3a1 1 0 1 1 1.4 1.4 1 1 0 0 1-1.4-1.4Z" fill="url(#ag2pgojn0e)" /><path d="M13.3 41.3a1 1 0 1 1 1.4 1.4 1 1 0 0 1-1.4-1.4Z" fill="url(#ah2pgojn0e)" /><path d="M12.25 37.17a.85.85 0 1 1 1.2 1.2.85.85 0 0 1-1.2-1.2Z" fill="url(#ai2pgojn0e)" /><path d="M12.3 17.3a1 1 0 1 1 1.4 1.4 1 1 0 0 1-1.4-1.4Z" fill="url(#aj2pgojn0e)" /><path d="M14.3 34.3a1 1 0 1 1 1.4 1.4 1 1 0 0 1-1.4-1.4Z" fill="url(#ak2pgojn0e)" /><path d="M14.3 20.3a1 1 0 1 1 1.4 1.4 1 1 0 0 1-1.4-1.4Z" fill="url(#al2pgojn0e)" /><path d="M17.3 31.3a1 1 0 1 1 1.4 1.4 1 1 0 0 1-1.4-1.4Z" fill="url(#am2pgojn0e)" /><path d="M17.3 23.3a1 1 0 1 1 1.4 1.4 1 1 0 0 1-1.4-1.4Z" fill="url(#an2pgojn0e)" /><path d="M19.59 26.59a2 2 0 1 1 2.82 2.82 2 2 0 0 1-2.82-2.82Z" fill="url(#ao2pgojn0e)" /><defs><linearGradient id="a2pgojn0e" x1="25.03" y1="28.09" x2="31.03" y2="28.09" gradientUnits="userSpaceOnUse"><stop stop-color="#294194" /><stop offset="1" stop-color="#09A5E0" /></linearGradient><linearGradient id="b2pgojn0e" x1="34.02" y1="20.06" x2="38.02" y2="20.06" gradientUnits="userSpaceOnUse"><stop stop-color="#294194" /><stop offset="1" stop-color="#09A5E0" /></linearGradient><linearGradient id="c2pgojn0e" x1="38.01" y1="17.03" x2="40.01" y2="17.03" gradientUnits="userSpaceOnUse"><stop stop-color="#294194" /><stop offset="1" stop-color="#09A5E0" /></linearGradient><linearGradient id="d2pgojn0e" x1="41.01" y1="14.03" x2="43.01" y2="14.03" gradientUnits="userSpaceOnUse"><stop stop-color="#294194" /><stop offset="1" stop-color="#09A5E0" /></linearGradient><linearGradient id="e2pgojn0e" x1="42.01" y1="18.03" x2="44.01" y2="18.03" gradientUnits="userSpaceOnUse"><stop stop-color="#294194" /><stop offset="1" stop-color="#09A5E0" /></linearGradient><linearGradient id="f2pgojn0e" x1="42.01" y1="38.03" x2="44.01" y2="38.03" gradientUnits="userSpaceOnUse"><stop stop-color="#294194" /><stop offset="1" stop-color="#09A5E0" /></linearGradient><linearGradient id="g2pgojn0e" x1="40.01" y1="21.03" x2="42.01" y2="21.03" gradientUnits="userSpaceOnUse"><stop stop-color="#294194" /><stop offset="1" stop-color="#09A5E0" /></linearGradient><linearGradient id="h2pgojn0e" x1="40.01" y1="35.03" x2="42.01" y2="35.03" gradientUnits="userSpaceOnUse"><stop stop-color="#294194" /><stop offset="1" stop-color="#09A5E0" /></linearGradient><linearGradient id="i2pgojn0e" x1="37.01" y1="24.03" x2="39.01" y2="24.03" gradientUnits="userSpaceOnUse"><stop stop-color="#294194" /><stop offset="1" stop-color="#09A5E0" /></linearGradient><linearGradient id="j2pgojn0e" x1="38.01" y1="32.03" x2="40.01" y2="32.03" gradientUnits="userSpaceOnUse"><stop stop-color="#294194" /><stop offset="1" stop-color="#09A5E0" /></linearGradient><linearGradient id="k2pgojn0e" x1="33.02" y1="28.06" x2="37.02" y2="28.06" gradientUnits="userSpaceOnUse"><stop stop-color="#294194" /><stop offset="1" stop-color="#09A5E0" /></linearGradient><linearGradient id="l2pgojn0e" x1="34.02" y1="36.06" x2="38.02" y2="36.06" gradientUnits="userSpaceOnUse"><stop stop-color="#294194" /><stop offset="1" stop-color="#09A5E0" /></linearGradient><linearGradient id="m2pgojn0e" x1="38.01" y1="39.03" x2="40.01" y2="39.03" gradientUnits="userSpaceOnUse"><stop stop-color="#294194" /><stop offset="1" stop-color="#09A5E0" /></linearGradient><linearGradient id="n2pgojn0e" x1="41.01" y1="42.03" x2="43.01" y2="42.03" gradientUnits="userSpaceOnUse"><stop stop-color="#294194" /><stop offset="1" stop-color="#09A5E0" /></linearGradient><linearGradient id="o2pgojn0e" x1="37.01" y1="43.03" x2="39.01" y2="43.03" gradientUnits="userSpaceOnUse"><stop stop-color="#294194" /><stop offset="1" stop-color="#09A5E0" /></linearGradient><linearGradient id="p2pgojn0e" x1="17.01" y1="43.03" x2="19.01" y2="43.03" gradientUnits="userSpaceOnUse"><stop stop-color="#294194" /><stop offset="1" stop-color="#09A5E0" /></linearGradient><linearGradient id="q2pgojn0e" x1="34.01" y1="41.03" x2="36.01" y2="41.03" gradientUnits="userSpaceOnUse"><stop stop-color="#294194" /><stop offset="1" stop-color="#09A5E0" /></linearGradient><linearGradient id="r2pgojn0e" x1="20.01" y1="41.03" x2="22.01" y2="41.03" gradientUnits="userSpaceOnUse"><stop stop-color="#294194" /><stop offset="1" stop-color="#09A5E0" /></linearGradient><linearGradient id="s2pgojn0e" x1="31.01" y1="38.03" x2="33.01" y2="38.03" gradientUnits="userSpaceOnUse"><stop stop-color="#294194" /><stop offset="1" stop-color="#09A5E0" /></linearGradient><linearGradient id="t2pgojn0e" x1="23.01" y1="38.03" x2="25.01" y2="38.03" gradientUnits="userSpaceOnUse"><stop stop-color="#294194" /><stop offset="1" stop-color="#09A5E0" /></linearGradient><linearGradient id="u2pgojn0e" x1="26.02" y1="35.06" x2="30.02" y2="35.06" gradientUnits="userSpaceOnUse"><stop stop-color="#294194" /><stop offset="1" stop-color="#09A5E0" /></linearGradient><linearGradient id="v2pgojn0e" x1="18.02" y1="20.06" x2="22.02" y2="20.06" gradientUnits="userSpaceOnUse"><stop stop-color="#294194" /><stop offset="1" stop-color="#09A5E0" /></linearGradient><linearGradient id="w2pgojn0e" x1="16.01" y1="17.03" x2="18.01" y2="17.03" gradientUnits="userSpaceOnUse"><stop stop-color="#294194" /><stop offset="1" stop-color="#09A5E0" /></linearGradient><linearGradient id="x2pgojn0e" x1="13.01" y1="14.03" x2="15.01" y2="14.03" gradientUnits="userSpaceOnUse"><stop stop-color="#294194" /><stop offset="1" stop-color="#09A5E0" /></linearGradient><linearGradient id="y2pgojn0e" x1="17.01" y1="13.03" x2="19.01" y2="13.03" gradientUnits="userSpaceOnUse"><stop stop-color="#294194" /><stop offset="1" stop-color="#09A5E0" /></linearGradient><linearGradient id="z2pgojn0e" x1="37.01" y1="13.03" x2="39.01" y2="13.03" gradientUnits="userSpaceOnUse"><stop stop-color="#294194" /><stop offset="1" stop-color="#09A5E0" /></linearGradient><linearGradient id="aa2pgojn0e" x1="20.01" y1="15.03" x2="22.01" y2="15.03" gradientUnits="userSpaceOnUse"><stop stop-color="#294194" /><stop offset="1" stop-color="#09A5E0" /></linearGradient><linearGradient id="ab2pgojn0e" x1="34.01" y1="15.03" x2="36.01" y2="15.03" gradientUnits="userSpaceOnUse"><stop stop-color="#294194" /><stop offset="1" stop-color="#09A5E0" /></linearGradient><linearGradient id="ac2pgojn0e" x1="23.01" y1="18.03" x2="25.01" y2="18.03" gradientUnits="userSpaceOnUse"><stop stop-color="#294194" /><stop offset="1" stop-color="#09A5E0" /></linearGradient><linearGradient id="ad2pgojn0e" x1="31.01" y1="18.03" x2="33.01" y2="18.03" gradientUnits="userSpaceOnUse"><stop stop-color="#294194" /><stop offset="1" stop-color="#09A5E0" /></linearGradient><linearGradient id="ae2pgojn0e" x1="26.02" y1="21.06" x2="30.02" y2="21.06" gradientUnits="userSpaceOnUse"><stop stop-color="#294194" /><stop offset="1" stop-color="#09A5E0" /></linearGradient><linearGradient id="af2pgojn0e" x1="18.02" y1="36.06" x2="22.02" y2="36.06" gradientUnits="userSpaceOnUse"><stop stop-color="#294194" /><stop offset="1" stop-color="#09A5E0" /></linearGradient><linearGradient id="ag2pgojn0e" x1="16.01" y1="39.03" x2="18.01" y2="39.03" gradientUnits="userSpaceOnUse"><stop stop-color="#294194" /><stop offset="1" stop-color="#09A5E0" /></linearGradient><linearGradient id="ah2pgojn0e" x1="13.01" y1="42.03" x2="15.01" y2="42.03" gradientUnits="userSpaceOnUse"><stop stop-color="#294194" /><stop offset="1" stop-color="#09A5E0" /></linearGradient><linearGradient id="ai2pgojn0e" x1="12.01" y1="37.79" x2="13.7" y2="37.79" gradientUnits="userSpaceOnUse"><stop stop-color="#294194" /><stop offset="1" stop-color="#09A5E0" /></linearGradient><linearGradient id="aj2pgojn0e" x1="12.01" y1="18.03" x2="14.01" y2="18.03" gradientUnits="userSpaceOnUse"><stop stop-color="#294194" /><stop offset="1" stop-color="#09A5E0" /></linearGradient><linearGradient id="ak2pgojn0e" x1="14.01" y1="35.03" x2="16.01" y2="35.03" gradientUnits="userSpaceOnUse"><stop stop-color="#294194" /><stop offset="1" stop-color="#09A5E0" /></linearGradient><linearGradient id="al2pgojn0e" x1="14.01" y1="21.03" x2="16.01" y2="21.03" gradientUnits="userSpaceOnUse"><stop stop-color="#294194" /><stop offset="1" stop-color="#09A5E0" /></linearGradient><linearGradient id="am2pgojn0e" x1="17.01" y1="32.03" x2="19.01" y2="32.03" gradientUnits="userSpaceOnUse"><stop stop-color="#294194" /><stop offset="1" stop-color="#09A5E0" /></linearGradient><linearGradient id="an2pgojn0e" x1="17.01" y1="24.03" x2="19.01" y2="24.03" gradientUnits="userSpaceOnUse"><stop stop-color="#294194" /><stop offset="1" stop-color="#09A5E0" /></linearGradient><linearGradient id="ao2pgojn0e" x1="19.02" y1="28.06" x2="23.02" y2="28.06" gradientUnits="userSpaceOnUse"><stop stop-color="#294194" /><stop offset="1" stop-color="#09A5E0" /></linearGradient></defs></svg>