<!-- by TradeStack --><svg width="56" height="56" viewBox="0 0 56 56" xmlns="http://www.w3.org/2000/svg"><path fill="#F0F3FA" d="M0 0h56v56H0z"/><path fill-rule="evenodd" d="M45 13.37 42.7 12v1.08l1.4 1.01h.9v-.72Zm-33.03.72H11l2.16-1.87v.86l-1.2 1.01Zm6.17 3.32 1.04-1.3-4.9-3.46c.02.72.3 2.34 1.18 3.03.9.7 2.16 1.45 2.68 1.73Zm2.9-1.73c.65-.58 2.25-1.79 3.5-2.02 1.25-.23 2.46-.29 2.9-.29v-.29h1.71v.3c1.59.09 5.06.68 6.25 2.3h-2.75a6.7 6.7 0 0 0-2.98-.72v1.15c1.02-.02 3.38.34 4.7 1.95l-.68.36a5.14 5.14 0 0 0-2.6-1c.34.09 1.26.6 2.16 1.87l-.9.36a3.44 3.44 0 0 0-2.68-1.23v.87c.55.15 1.64.8 1.64 2.31h-.97c-.05-.53-.5-1.56-1.93-1.44-1.43.11-1.74 1-1.71 1.44h-1.27c.25-.72.94-2.2 1.71-2.3v-.88a4.02 4.02 0 0 0-2.9 1.23l-.74-.36c.22-.5.92-1.59 1.93-1.88-.6-.07-1.92.03-2.45 1.01l-.9-.36c.38-.7 1.91-2.06 5.06-1.95v-1.15a5.56 5.56 0 0 0-3.2.72h-2.9Zm-3.86 1.95v.8h-1.72c-.3 0-.12.26.12.6.27.38.6.86.33 1.13-.31.3-.65.06-1.03-.22-.26-.18-.53-.37-.83-.43-.43-.09-.41.14-.4.42.02.2.04.44-.12.59-.37.36-1.34-1.52-1.34-2.1 0-.28.37-.37.76-.47.4-.1.84-.2.95-.54.1-.3-.15-.76-.41-1.2-.29-.5-.57-.98-.33-1.25.44-.5 1.11.72 1.63 1.8.42.87 1.77.94 2.39.87Zm-6.18-.5V14.6h.67v1.51L11 17.13Zm10.04 4.47h1.05l.89-.87-.9-.21-1.04 1.08ZM19 22l-.04-3-3.27 3.54.96.72L18 22.18v1.23l3.04.28L19 22Zm-3.9 1.91-2.39 2.74 1.34 6.07 1.04-.65-1.04-5.2 1.41-1.95-.37-1ZM17 25.5v-1l-1.9 2.37.81 4.9-1.49 2.68 2.23 3.75h2.31l.22 3.1 3.2 2.03c.92-.8 3.12-2.27 5.62-2.33 2.5-.06 4.92 1.82 5.7 2.83l3.12-2.52.22-2.89h2.23l1.86-3.9-1.56-2.45 1.19-5.42-2-2.38-.08 1.3.89 1.08-.6 4.4L36 32.73V35c.27-.07 1.1.14 1.04.9-.06.74-.82 1.27-1.2 1.44v2.1l-3.19 1.5L29 39.5V39l3.5-3H31l-2.5 1.99h-1L25 35.5V31h-1v5l3 3v.5l-3.5 1.45-3.05-1.52v-2.1c-.27-.09-.9-.41-1.27-.93-.35-.52.52-1.2.82-1.4v-2l-3.35-1.94-.37-4.4.72-1.16Zm4.04 10.18c.2.29.91.9 2.16 1.08v.8c-.62-.08-1.95-.34-2.3-.8l.14-1.08Zm2.16 2.74-1.71-.43v1.08l1.71.36v-1.01Zm9.45 0v1.01l1.71-.72.08-.87-1.79.58Zm.6-1.66v.8l2.15-.8v-1.08l-2.15 1.08ZM32 34.37h.97V33H32v1.37ZM18.96 25h-.86c-.22.48-.6 1.93-.48 3.03.12 1.1 1.24 1.7 1.79 1.87v-.94a2.35 2.35 0 0 1-.82-.79c-.3-.46.16-1.06.41-1.3L18.96 25Zm6.18-2.17v1.08c-.2.15-.55.52-.38.87.18.34.52.67.67.8v1.07c-.5-.16-1.53-.78-1.7-1.87-.19-1.1.86-1.76 1.4-1.95ZM27 23h-1c0-.31 1-1.04 2-1.04s1.95.78 2 1.04h-1c-.05-.14-.62-.46-1-.46-.86 0-1 .46-1 .46Zm5.95-2.27.74-.21 1.04 1.08H33.7l-.74-.87Zm-2.23 2.1v1.08c.2.12.6.46.6.87 0 .4-.4.7-.6.8v1.07c.54-.28 1.63-1.17 1.63-2.38s-1.09-1.47-1.63-1.44Zm10.04 9.24 1.19.65 1.64-5.49-2.46-3.54v1.52l1.12 2.02-1.5 4.84ZM30.05 46H28.7l2.23-1.95 1.41 1.3-2.3.65Zm-2.38 0-3.13-1.95-.82 1.3 2.23.65h1.72Zm13.09-23.46L37.04 19 37 22.5l-1.9 1.2 2.9-.2v-1.54l1.8 1.3.96-.72Zm-3.72-6.2 4.24-3.83c.02.43-.04 1.45-.52 2.09a14.4 14.4 0 0 1-2.68 2.16l-1.04-.43Zm7.29-1.74H45v3.03l-.74-1.15.07-1.88Zm-2.08 0c-.36 1.56-2.68 2.67-3.8 3.03-.22.87.23.8 1.12.43.9-.36.9.58.67 1.23-.07.2-.16.33-.23.44-.16.23-.23.34.23.79.6.59.85.1 1.22-.63l.12-.24c.38-.73.49-.12.6.53l.07.34c.15.72.74 0 .96-.87.13-.47.3-.64.43-.79a.7.7 0 0 0 .24-.44c.05-.28-.33-.36-.74-.45-.33-.07-.7-.15-.9-.34-.24-.24-.07-.48.18-.84.2-.28.44-.63.57-1.1.24-.87-.4-1.1-.74-1.1ZM31 29.5V28l2.5-3h3v3H33l-1 1.5h-1Zm-6-1.47v1.47h-1l-1.02-1.47L19.5 28v-3h3l2.5 3.03Zm12.04-2.46h.82c.2.2.6.91.6 2.24s-1.2 2.14-1.8 2.38l.16-1.23c.34-.19 1.04-.69 1.04-1.15 0-.46-.55-.58-.82-.58v-1.66ZM22.6 27H20.3v-1.5c.67-.07 2.07.23 2.3 1.5Zm12.8-1.5a2.47 2.47 0 0 0-2.09 1.5h2.08v-1.5Zm-19.43 9.02 1.34-2.1 1.57 1.1v1.15l-.82.14.07 2.74-.89-.07-1.27-2.96Zm20.99.15V33.5l1.56-1.08 1.34 2.1-1.12 3.02h-.74v-2.88h-1.04Z" fill="#903D1D"/></svg>