<?xml version='1.0' encoding='utf-8'?>
<!-- by TradeStack -->
<svg width="56" height="56" viewBox="0 0 56 56" xmlns="http://www.w3.org/2000/svg"><path fill="#F0F3FA" d="M0 0h56v56H0z" /><path d="M33.19 13.58c.08.23-.02.32-.25.33-.41.02-.78.17-1.1.45a9 9 0 0 0-3.53.2c-.33-.14-.67-.2-1.03-.2-.03 0-.05 0-.07-.02l-.03-.03c-.05-.06-.04-.09.04-.1.32-.04.64-.1.96-.2.19-.05.18-.07-.01-.05-.63.04-1.25.17-1.84.38-.24.1-.5.08-.73.18-.85.35-1.82.79-2.9 1.32-.19.1-.4.14-.63.16a6.4 6.4 0 0 0-1.73.36l-.03-.1 1-.74c.05-.04.04-.07-.03-.06h-.04c-.05 0-.07-.03-.06-.08.03-.23.22-.6.16-.8-.01-.03 0-.07.03-.1.1-.07.4-.34.16-.42a15.3 15.3 0 0 1 4.07-1.25c2.6-.37 5.13-.11 7.59.77Zm-2.52.42a2.92 2.92 0 0 0-1.43-.2c-.02 0-.02 0-.02.02a.7.7 0 0 1 0 .04c0 .02 0 .03.03.03.42-.11 1 .09 1.4.18a.04.04 0 0 0 .03 0 .04.04 0 0 0 .02-.03.04.04 0 0 0 0-.03.04.04 0 0 0-.03-.01Zm-9.08 1.44c1.35-.78 2.8-1.34 4.35-1.54l.06-.04v-.03s0-.02-.02-.02l-.02-.02h-.03c-.98.19-1.95.33-2.81.73-.2.09-1.57.74-1.58.89-.01.04 0 .05.05.03Z" fill="#173D70" /><path d="M33.19 13.58c2.83 1.05 5.4 2.47 7.23 4.87-.14.19-.45.7-.48.94a.48.48 0 0 0 0 .37c.03.06.01.1-.04.13a3.5 3.5 0 0 1-2.23.45c-.04 0-.06-.03-.05-.07.08-.48.44-1.2 1.03-1.06h-.06c-.04.01-.05.03-.03.06l.6.89c.02.04.05.04.09 0 .13-.13-.42-.78-.53-.9l.11-.08.72.64c.02.02.05.02.08 0 .07-.05-.26-.4-.3-.46 0-.25-.12-.42-.35-.5a.23.23 0 0 1-.1-.08c-1.4-1.72-3.12-3-5.17-3.84l-1.86-.58c.31-.28.68-.43 1.1-.45.22-.01.32-.1.24-.33Z" fill="#2F6D9E" /><path d="M30.67 14a.04.04 0 0 1 .03.01.04.04 0 0 1-.05.06c-.4-.1-.98-.3-1.4-.18-.02 0-.03 0-.03-.03a.7.7 0 0 0 0-.04c0-.02 0-.02.02-.03.5-.05.97.02 1.43.2Z" /><path d="M21.54 15.4c.01-.14 1.38-.8 1.58-.88.86-.4 1.83-.54 2.8-.73a.06.06 0 0 1 .06.02l.02.02v.03l-.06.04c-1.56.2-3 .76-4.35 1.54-.04.02-.06.01-.05-.03Z" fill="#B08F46" /><path d="m28.31 14.56-.38.13c-.5-.06-1.1-.24-1.59-.08-1 .35-1.95.77-2.88 1.28a.23.23 0 0 0-.1.1l-.06.12-.28.1-1.77.56c-.02-.26.43-.3.6-.45.05-.04.05-.06-.01-.06-.54 0-1.06.1-1.56.3-.06.02-.12.01-.18 0l.24-.2a6.4 6.4 0 0 1 1.73-.36c.23-.02.44-.07.63-.16 1.08-.53 2.05-.97 2.9-1.32.22-.1.49-.09.73-.18.6-.21 1.2-.34 1.84-.38.2-.02.2 0 .01.05-.32.1-.64.16-.96.2-.08.01-.1.04-.04.1.02 0 .02.02.03.03.02.02.04.03.07.02.36 0 .7.06 1.03.2Z" /><path d="M21.53 14.06c.23.08-.07.35-.16.43-.03.02-.04.06-.03.1.06.2-.13.56-.16.79 0 .05.01.08.06.08h.04c.07 0 .08.02.02.06l-1 .73-.3.25-.01-.09a.1.1 0 0 0-.11-.06 9.1 9.1 0 0 0-2.5 2.16.24.24 0 0 1-.12.09l-.27.08c-.04 0-.05 0-.04-.04a.48.48 0 0 0 .02-.37.2.2 0 0 1 .01-.16c.13-.25.15-.53.07-.82l-.04-.02h-.04l1.38-1.28c.99-.78 2.05-1.43 3.18-1.93Z" fill="#010D3F" /><path d="m31.85 14.36 1.86.58-.05.03a.07.07 0 0 0-.04.08l.02.06-.14-.03a6.68 6.68 0 0 0-4.34-.38l-.08.05c-.16 0-.3.06-.42.15-.57.17-1.09.45-1.55.83-.05.03-.04.05.01.06 1.05.02 2.2.12 3.48.27.25.03.46.1.63.18.05.03.09.02.12-.02a.15.15 0 0 0 .03-.07c.28.1.57.13.87.1.35.17.72.28 1.11.33 0 .12-.03.24-.11.34l-.97-.14a21.9 21.9 0 0 0-6.1-.25c-.11 0-.22.1-.33.28l-.26.32c-.67.76-1.24 1.58-1.73 2.47l-.48.94-.18.35-.3.66c-.02.06 0 .09.07.07l.71-.21c1.3-.3 2.6-.53 3.9-.7l1.01-.1a.97.97 0 0 0-.19.53c0 .04.02.07.05.08l.14.05-2.49.4c-.64.09-1.29.22-1.93.4l-.77.21-.52.14a.86.86 0 0 0-.33.09.17.17 0 0 0-.1.1l-1.1 3.36a.52.52 0 0 0-.3.04c-.06.03-.1.01-.1-.05a.21.21 0 0 0-.18-.16l.8-2.6c.02-.07 0-.08-.06-.06l-.65.25c.04-.05.09-.1.15-.13.04-.02.05-.04.02-.08l-.01-.03c-.01-.02-.03-.02-.04-.02-.11.04-.35.17-.4 0a.18.18 0 0 1 .01-.16c.12-.2.17-.4.14-.63l.83-.37a.19.19 0 0 0 .1-.1l.42-.95.48-.9a17.46 17.46 0 0 1 2.43-3.39v-.03a.06.06 0 0 0-.07-.04l-1.72.32.12-.08a.22.22 0 0 1 .09-.04l.2-.04c.04 0 .05-.02.05-.06a.26.26 0 0 0-.1-.17c-.05-.04-.05-.08 0-.12.1-.08.22-.1.34-.07.04 0 .06 0 .06-.05v-.06c0-.05-.02-.07-.07-.07h-.28c.79-.17 1.58-.27 2.38-.31.04 0 .08-.02.12-.05.58-.4 1.18-.76 1.82-1.07l.38-.13a9 9 0 0 1 3.54-.2Z" fill="#B08F46" /><path d="M33.5 15.08v.05c0 .03.01.05.04.06.85.38 1.64.87 2.34 1.48-.58-.1-1.14-.1-1.69 0-.32.07-.54 0-.83-.1-.39-.04-.76-.15-1.11-.32a9.92 9.92 0 0 0-3.17-1.5l.08-.05a6.68 6.68 0 0 1 4.34.38Z" fill="#2F6D9E" /><path d="M27.93 14.7c-.64.3-1.24.65-1.82 1.06a.24.24 0 0 1-.12.05c-.8.04-1.6.14-2.38.3l-.1.01h-.2l.06-.13a.23.23 0 0 1 .1-.1c.92-.5 1.88-.93 2.87-1.28.48-.16 1.1.02 1.59.08Z" fill="#173D70" /><path d="M29.08 14.75c1.14.31 2.2.81 3.17 1.5-.3.03-.59 0-.87-.1-.87-.5-1.78-.92-2.72-1.25.12-.1.26-.14.42-.15Z" /><path d="M28.66 14.9c.94.33 1.85.75 2.72 1.25 0 .03-.01.05-.03.07-.03.04-.07.05-.12.02a1.83 1.83 0 0 0-.63-.18 37.49 37.49 0 0 0-3.48-.27c-.05 0-.06-.03-.01-.06.46-.38.98-.66 1.55-.83Z" fill="#2F6D9E" /><path d="M33.7 14.94c2.06.84 3.78 2.12 5.17 3.84.03.04.07.07.11.08.23.08.35.25.35.5-.16-.16-.32-.3-.5-.43-.49-.38-.75-.84-1.34-1.15a.28.28 0 0 1-.1-.09c-.14-.2-.34-.36-.58-.45-.03 0-.04-.02-.04-.05v-.04a.13.13 0 0 0-.05-.11c-.96-.75-1.99-1.4-3.08-1.93l-.02-.06c0-.03 0-.06.04-.08l.05-.03Z" fill="#CDB37F" /><path d="m33.5 15.08.14.03c1.1.54 2.12 1.18 3.08 1.93.03.03.05.06.05.1v.05c0 .03.01.04.04.05.24.1.44.24.58.45l.1.1c.59.3.85.76 1.35 1.14.17.13.33.27.5.43.03.05.36.4.3.46-.04.02-.07.02-.1 0l-.7-.64a.86.86 0 0 0-.57-.25c-.12-.12-.22-.28-.39-.34a10.23 10.23 0 0 0-3.54-.7c-.06 0-.07.03-.03.07a21.8 21.8 0 0 1 2.04 2.37l-.41.03-2.15-2.35a.15.15 0 0 0-.13-.05l-.5.03c.26-.36.6-.65 1-.87a.17.17 0 0 1 .12-.02 17.11 17.11 0 0 1 3.85 1.4 5.93 5.93 0 0 0 .02-.05 9.27 9.27 0 0 0-2.32-1.08c.27-.04.56.02.87.18.07.04.13.03.18-.03.03-.03.03-.06 0-.1l-.29-.26v-.05a.08.08 0 0 0-.05-.07l-.66-.37c-.7-.61-1.49-1.1-2.34-1.48a.06.06 0 0 1-.04-.06v-.05Z" /><path d="m23.3 16.11.21.01a.52.52 0 0 1-.49.1l.28-.1Z" fill="#B08F46" /><path d="M23.51 16.12h.38c.05 0 .07.02.07.07v.06c0 .04-.02.06-.06.05a.37.37 0 0 0-.34.07c-.05.04-.05.08 0 .12.05.04.08.1.1.17 0 .04-.01.06-.05.06l-.2.04a.22.22 0 0 0-.1.04l-.11.08c-1.22.26-2.4.65-3.52 1.18l-.4.24c-1.2.53-1.56.94-2.1 2.17l-.17.32-.25.65-.2.46-.28.77c-.41 1.19-.7 2.42-.88 3.7-.03.23.01.24.13.05a8.13 8.13 0 0 1 1.93-2.15l.73-.56.35-.24c.69-.43 1.42-.8 2.19-1.13a.93.93 0 0 1-.14.63.18.18 0 0 0-.02.16c.06.17.3.04.4 0 .02 0 .04 0 .05.02l.01.03c.03.04.02.06-.02.08a.36.36 0 0 0-.15.13c-.66.3-1.3.64-1.91 1.02l-.38.25c-.55.36-1.05.77-1.48 1.24-.66.65-1.53 1.7-1.61 2.63-.1 1.1-.11 2.2-.05 3.3a13.24 13.24 0 0 0 .7 4.14.05.05 0 0 1-.1.01l-.46-.85c-.04-.29-.13-.56-.29-.81a.35.35 0 0 1-.04-.13l-.16-.9a20.79 20.79 0 0 1-.28-3.24c0-.34-.04-.68-.14-1.01.07-.44.23-.87.27-1.3.3-2.74.9-5.24 2.18-7.7.04-.06.03-.07-.03-.02-.8.78-1.48 1.65-2.03 2.62l-.04-.04c.3-.64.65-1.25 1.06-1.82l.9-1.1c.42-.41.86-.76 1.22-1.24.39-.5.8-.97 1.24-1.42l.57-.52.3-.25.04.1-.24.21c-.44.4-.83.83-1.18 1.3-.05.07-.04.09.04.04a13.3 13.3 0 0 1 2.29-1.13l1.77-.55c.18.05.35.02.49-.1Z" fill="#CDB37F" /><path d="M21.25 16.77c-.8.3-1.56.68-2.29 1.13-.08.05-.09.03-.04-.04.35-.47.74-.9 1.18-1.3.06.01.12.02.18 0 .5-.2 1.02-.3 1.56-.3.06 0 .06.02.02.06-.18.15-.63.2-.61.45Z" fill="#010D3F" /><path d="m20 16.5-.57.52c-.43.05-1.48 1.14-1.76 1.49l-.85 1.02c-.03.04-.03.07 0 .11.04.03.08.05.15.04l-.9 1.1-.1-.33c-.01-.05-.04-.06-.08-.03a11.66 11.66 0 0 0-1.08 2.04.15.15 0 0 1-.1.08.87.87 0 0 1-.69-.08.11.11 0 0 1-.06-.12l.06-.54c.03-.28 0-.28-.06-.01a.39.39 0 0 1-.16.21c.75-1.79 1.8-3.37 3.17-4.73h.04c.02 0 .04 0 .04.02.08.3.06.57-.07.82a.2.2 0 0 0 0 .16c.04.13.03.25-.03.37-.01.04 0 .05.04.04l.27-.08c.05-.01.1-.04.13-.08a9.1 9.1 0 0 1 2.49-2.17.1.1 0 0 1 .1.06c.02.03.02.06.02.09Z" fill="#00051F" /><path d="m32.28 16.78.4.3c.12.09.1.15-.05.17-1.49.2-2.95.51-4.38.95a.21.21 0 0 1-.21-.04c-.67-.55-1.4-1-2.2-1.35.12-.18.23-.27.34-.28a21.9 21.9 0 0 1 6.1.25Z" fill="#2F6D9E" /><path d="M22.56 20.02a7.53 7.53 0 0 0-2.88-1.96c1.13-.53 2.3-.92 3.52-1.18l1.72-.32a.06.06 0 0 1 .05.1c-.92 1.01-1.72 2.13-2.41 3.36Z" fill="#173D70" /><path d="M33.36 16.58c.3.09.5.16.83.1.55-.12 1.11-.12 1.7-.01l.65.37c.03.01.05.04.05.07v.05a4.81 4.81 0 0 0-1.73-.3.09.09 0 0 0-.03.05.09.09 0 0 0 .05.1l.95.36a9.27 9.27 0 0 1 2.33 1.1 5.93 5.93 0 0 1-.05.04 17.11 17.11 0 0 0-3.83-1.4.17.17 0 0 0-.12.01c-.4.22-.74.51-1 .87a6.84 6.84 0 0 0-1.39 2.3c-.02.05 0 .07.06.07 1.17-.06 2.34-.05 3.51 0h-1.02a.25.25 0 0 0-.13.04c-.22.13-.55.2-.48.55-.3 0-2.55-.05-2.33.36-.16.28-.26.55-.29.8a34.8 34.8 0 0 0-1 3.74l-.2 1.09c-.02.06 0 .09.07.07l1.34-.3c.2.28.57.05.82-.02.06-.01.1.01.1.07.05.2.17.37.34.5l-2.77.67a.11.11 0 0 0-.1.09l-.23 1.26-.04.28a.17.17 0 0 1-.08.1.08.08 0 0 1-.11-.04v-.05l.07-.86c0-.05 0-.1-.04-.14-.27-.37-.23-1-.57-1.18-.04-.02-.05-.05-.05-.1l.02-.06.27-1.22c.39-1.58.85-3.14 1.4-4.67l.06-.11c.03-.06.02-.1-.03-.13-.07-.05-.14-.04-.2.03l-1.57.14-.14-.05c-.03-.01-.05-.04-.05-.08.01-.2.08-.37.2-.52l1.04-.12 1.01-.05L32 18.17 33.24 17a.06.06 0 0 0 .02-.04l-.01-.04c.08-.1.11-.22.11-.34Z" fill="#CDB37F" /><path d="m32.28 16.78.97.14v.04l-.01.04L32 18.17c-1 .15-1.99.35-2.96.6-.06.02-.06.05-.02.09l1.63 1.6-1.01.04-1.4-1.35a.12.12 0 0 0-.13-.03l-.91.24-3.82 1.18.48-.94 3.46-1.15a.06.06 0 0 0 .05-.05v-.03a.06.06 0 0 0-.03-.03l-1.75-1.21.26-.32c.8.35 1.52.8 2.19 1.35.06.05.13.07.2.04 1.44-.44 2.9-.75 4.39-.95.15-.02.17-.08.04-.17l-.39-.3Z" /><path d="m36.6 17.16.27.26c.04.04.04.07 0 .1-.04.06-.1.07-.17.03-.3-.16-.6-.22-.87-.18l-.95-.36a.09.09 0 0 1-.05-.1.09.09 0 0 1 .08-.07c.6.01 1.16.12 1.68.32Z" fill="#2F6D9E" /><path d="M19.43 17.02c-.44.45-.85.92-1.24 1.42-.37.48-.8.83-1.22 1.24-.07 0-.11 0-.14-.04-.04-.04-.04-.07 0-.11l.84-1.02c.28-.35 1.33-1.44 1.76-1.49Z" fill="#010D3F" /><path d="m25.6 17.13 1.74 1.21a.06.06 0 0 1 .03.06.06.06 0 0 1-.05.05l-3.46 1.15c.49-.9 1.06-1.71 1.73-2.47Z" fill="#173D70" /><path d="M38.27 18.93c-.75.09-.99.73-1.17 1.36-.01.04-.04.07-.1.07l-.65-.03a21.8 21.8 0 0 0-2.04-2.37c-.04-.04-.03-.06.03-.06 1.23.02 2.4.25 3.54.69.17.06.27.22.39.34ZM35.94 20.36h-.6a37.57 37.57 0 0 0-3.51 0c-.06 0-.08-.02-.06-.08.31-.85.77-1.62 1.38-2.29l.51-.03c.05 0 .1.02.13.05l2.15 2.35Z" fill="#3A83B3" /><path d="M19.68 18.06a7.53 7.53 0 0 1 2.88 1.96l-.48.9c-1.3.44-2.63.8-3.98 1.1-.06.01-.08.05-.05.1l.49 1.35-.35.24a4.57 4.57 0 0 0-.56-1.68.13.13 0 0 0-.1-.07l-.98-.06.2-.46c.19.03.36.01.54-.04.05-.02.07-.05.06-.1a.98.98 0 0 0-.34-.5l.16-.33h.07c.02 0 .03 0 .04.02l.5.96c.03.04.06.06.11.05a27.3 27.3 0 0 0 3.78-1.1c.05-.02.06-.06.03-.1a7.89 7.89 0 0 0-2.43-2l.41-.24Z" /><path d="m32 18.17-1.35 2.28-1.63-1.59c-.04-.04-.04-.07.02-.08a26.3 26.3 0 0 1 2.96-.6Z" fill="#3A83B3" /><path d="M19.27 18.3c.95.5 1.76 1.17 2.43 2 .03.04.02.08-.03.1a27.3 27.3 0 0 1-3.78 1.1c-.05.01-.08 0-.1-.05l-.5-.96a.05.05 0 0 0-.05-.03h-.07c.55-1.22.9-1.63 2.1-2.16Z" fill="#010D3F" /><path d="M40.42 18.45c1.05 1.4 1.75 3 2.3 4.66.01.15.1.49.13.55.3.9.67 1.83.74 2.77l-1.27 1.12a.14.14 0 0 1-.11.06.3.3 0 0 1-.15-.03 4.31 4.31 0 0 1-.48-1.71v-1.3c0-.05-.03-.08-.07-.1-.06 0-.1.02-.11.08l-.07-.05a.17.17 0 0 1-.07-.1c-.14-.58-.33-1.15-.56-1.71.1-.4.06-.8-.1-1.2l.04-.04c.37.62.55 1.35.8 1.98.14.34.5 1.3.42 1.68-.03.1 0 .12.07.04.25-.28-.27-1.65-.4-1.99-.38-.92-.63-1.85-1.21-2.72a.1.1 0 0 1 0-.1c.1-.2-.28-.76-.38-.95.03-.23.34-.75.48-.94Z" fill="#173D70" /><path d="M38.27 18.93c.22.02.4.1.56.25l-.1.08-.08-.05c-.6-.15-.95.58-1.03 1.06-.01.04 0 .07.05.07.8.1 1.54-.05 2.23-.45.05-.03.07-.07.05-.13a.48.48 0 0 1-.01-.37c.1.2.49.74.38.94a.1.1 0 0 0 0 .11c.58.87.83 1.8 1.2 2.72.14.34.66 1.71.4 1.99-.06.08-.09.07-.06-.04.08-.38-.28-1.34-.42-1.68-.25-.63-.43-1.36-.8-1.98a6.11 6.11 0 0 0-.7-1.29c-.04-.06-.07-.05-.1.02-.04.11-.02.23.07.36l.24 1.23.25.94c.02.07.04.07.06 0l.08-.22c.28-.62-.26-.8-.14-1.22l.2.22c.16.4.2.8.1 1.2a.86.86 0 0 0-.1.42c-.07.1-.08.23-.04.4.22.87.4 1.9.54 3.06 0 .07.03.08.06.01.14-.27.22-.55.23-.85.08-.4.08-.79 0-1.18.02-.06.06-.09.12-.07.04 0 .07.04.07.08v1.3c-.2.66-.4 1.24-.31 1.65l.18 1.92c-.05.36-.03.73.05 1.12-.06.05-.06.12.01.2-.1.4-.14.83-.14 1.25-.12.9-.4 1.75-.84 2.54l-.04-.03c.33-.8.52-1.61.56-2.47 0-.06 0-.06-.03-.01l-.8 1.36-.18.25-.38.45c-.15.02-.22-.04-.21-.18l.21-.27c.1-.08.18-.2.25-.34l.35-.47.38-.62c.16-.21.27-.44.34-.7.03-.62.01-1.25-.05-1.89L40.81 28c0-.06-.02-.07-.06-.01l-.67 1-.18.26c-.72.83-1.53 1.56-2.43 2.19l-.42.27c-.12.57-.19 1.14-.2 1.72l-.1.66-.05.2a.26.26 0 0 1-.12.14c-.05.02-.07 0-.07-.04l-.04-.72c0-.08-.05-.1-.12-.06-.21.1-.14.26-.26.41-.04.07-.07.06-.08-.02l-.01-.3.14-1.37a.07.07 0 0 0-.03-.06.06.06 0 0 0-.06 0l-.5.26a.5.5 0 0 0-.27.07h-.02l-.02-.01c-.24-.25-.36-.44-.35-.55l.18-.1 1.14-.52a.12.12 0 0 0 .07-.12v-.55l.03-.21.04-.39-.02-1.03a28.19 28.19 0 0 0 .15-3.1.04.04 0 0 0-.04 0l-1.58.58-.53.21-1.77.44a.8.8 0 0 1-.33-.5c-.02-.05-.05-.07-.1-.06-.26.07-.63.3-.83.02 1.72-.4 3.42-.86 5.1-1.4.11-.04.15-.14.12-.3l.07-1.23.21-2.23c0-.15.02-.3.09-.48a.13.13 0 0 0-.07-.18.13.13 0 0 0-.07 0l-.43.04-2.61.02c-.07-.34.26-.42.48-.55a.25.25 0 0 1 .13-.03h1.62l.41-.04.65.03c.06 0 .09-.03.1-.07.18-.63.42-1.27 1.17-1.36Zm-.88 2.96c-.07.23-.09.45-.06.67-.1.82-.13 1.64-.1 2.46 0 .05.03.06.07.05l1.14-.53.25-.17c.47-.24.9-.56 1.27-.95a.12.12 0 0 0 .03-.11l-.47-2.7c-.01-.05-.04-.07-.08-.05-.6.2-1.2.3-1.83.29-.05 0-.08.02-.09.07l-.13.97Zm1.53 2.97c-.53.35-1.09.64-1.68.9a.13.13 0 0 0-.08.1c-.02.09-.02.19 0 .29l-.15 4.69c0 .06.02.07.07.04a10.76 10.76 0 0 0 2.95-2.5c.4-.45.8-.9.59-1.55l-.2-1.27-.32-1.71c-.01-.07-.04-.08-.08-.03-.33.39-.7.73-1.1 1.04Z" fill="#F1E6D2" /><path d="m29.64 20.5-1.05.12-1 .09-.07-.15a.36.36 0 0 1-.03-.12l-.04-.74c0-.07-.04-.1-.11-.1h-.35c-.02 0-.03-.01-.03-.03v-.04c0-.06.02-.08.08-.07.08.02.13-.02.16-.1l.9-.24c.06-.01.1 0 .13.03l1.4 1.35Z" fill="#2F6D9E" /><path d="m38.65 19.21.07.05c.1.12.66.77.53.9-.04.04-.07.04-.1 0l-.59-.9c-.02-.02 0-.04.03-.04h.06Z" /><path d="M27.2 19.36c-.03.08-.08.12-.16.1-.06 0-.08.01-.08.07v.04c0 .02 0 .03.03.03h.35c.07 0 .1.03.11.1l.04.74.03.12.06.15c-1.3.17-2.6.4-3.9.7a1.4 1.4 0 0 0-.48-.52l.18-.35 3.82-1.18Z" fill="#173D70" /><path d="M14.66 29.04a4.36 4.36 0 0 0-.14 1.73.04.04 0 0 0 .06-.02l.09-.63c0-.05.03-.07.07-.07h.06c.01 1.09.1 2.17.28 3.24l-.11.03c-.04.02-.06.04-.06.09.06.63.27 1.21.66 1.72l.46.85a.05.05 0 0 0 .1 0v-.04a13.24 13.24 0 0 1-.7-4.11c-.06-1.1-.04-2.2.05-3.3.08-.94.95-1.98 1.6-2.63 0 .16-.05.33-.12.49-.03.05-.01.1.05.11.8.25 1.62.4 2.46.43.05 0 .07-.03.05-.08l-.95-2.2.38-.24 1.06 2.57c.06.14.14.2.28.18.05 0 .08.01.09.06v.08l-.29 1.25c-.31-.07-.05-.5-.6-.56-.55-.05-1.09-.13-1.62-.23a5.95 5.95 0 0 1-1.54-.5.1.1 0 0 0-.06.03c-.48.66-.2 1.02-.07 1.67.08.41.37.81.5 1.14.02.04.06.06.1.05.18-.03.3.04.38.21a.3.3 0 0 0 .09.12c.32.27.7.35 1.1.25.06-.01.09.01.09.07l-.03.12c-1.5.98-2.54 2.31-2.35 4.22.02.21.08.37.16.48.07.1.1.08.07-.03-.46-2.25 1.4-3.75 3.27-4.5.05-.02.07 0 .06.05l-.84 4.62c0 .05-.04.07-.08.08a6.07 6.07 0 0 0-1.94.54.05.05 0 0 0 .05.06l1.8-.28c.04 0 .06.01.06.07-.07.47-.24.89-.5 1.27l-.64-.38a.05.05 0 0 0-.07.02v.03l.01.04.59.4a.52.52 0 0 1-.52.06.63.63 0 0 0-.34-.17c-.07-.01-.09.01-.04.07a11.55 11.55 0 0 0 3.5 3 .9.9 0 0 0 .04-.01c.03-.01.03-.03 0-.05A11.96 11.96 0 0 1 17.74 38c.16.02.31 0 .46-.07a.14.14 0 0 1 .12 0 18.55 18.55 0 0 0 6.95 1.55.03.03 0 0 1 0 .03 2.92 2.92 0 0 1-2.2 1.49c-.26-.15-.7-.33-1.31-.55-.63-.23-1.48-.7-2.54-1.4l-.06.01-.03.03c-.03.02-.02.04 0 .06 1.06.73 2.2 1.32 3.4 1.78.04.02.07.06.07.13a5.8 5.8 0 0 1-1.52-.35.04.04 0 0 0 0 .07c.97.51 1.98.73 3.02.65.15-.01.26.05.42.05.27.1.55.17.83.22a14.7 14.7 0 0 0 7.43-.6.03.03 0 0 1 0 .04 3.79 3.79 0 0 1-1.14.61v.03a.04.04 0 0 0 .04.04 4.59 4.59 0 0 0 2.21-1.12c.28-.26.45-.31.8-.44.62-.23 1.42-.72 2.4-1.45.14.12.3.14.5.07a.16.16 0 0 1 .12 0c.25.1.45.11.62.02.36-.2.7-.54 1.03-1.03.1-.15.47.23.6.34l-1.04.93c-2.46 2.43-5.6 3.64-9.04 4.12-6.62.8-12.68-2.5-15.73-8.4a15.92 15.92 0 0 1-1.18-10.4c.21-.84.5-1.66.83-2.45a.39.39 0 0 0 .16-.21c.07-.27.09-.27.06.01l-.06.54c0 .05.02.09.06.12.23.12.46.15.7.08a.15.15 0 0 0 .1-.08 11.66 11.66 0 0 1 1.08-2.04c.03-.03.06-.02.07.03l.1.33c-.41.57-.76 1.18-1.06 1.82-.12.2-.23.42-.32.65-.06.13-.05.14.04.02.13-.2.24-.4.32-.63.55-.97 1.23-1.84 2.03-2.62.06-.05.07-.04.03.02a21.13 21.13 0 0 0-2.18 7.7c-.04.43-.2.86-.27 1.3ZM31.26 42l-.01-.1-.01-.01h-.02l-1.35.16a8.7 8.7 0 0 0-.63.1c-.17.03-.26.06-.26.08 0 .02.1.03.27.02.17 0 .4-.03.63-.06l1.36-.16.01-.01V42ZM40.64 21.45l-.04.04-.2-.22-.49-.73c-.09-.13-.1-.25-.07-.36.03-.07.06-.08.1-.02.29.4.52.83.7 1.29Z" /><path d="m38.69 24.37-1.3-2.48.13-.97c0-.05.04-.08.09-.07.63.01 1.24-.08 1.83-.29.04-.02.07 0 .08.05l.47 2.7c0 .04 0 .08-.03.1-.37.4-.8.72-1.27.96Z" fill="#2F6D9E" /><path d="m39.91 20.54.49.73c-.12.43.42.6.14 1.22a1.83 1.83 0 0 0-.28-.78c-.01-.02-.03-.02-.05 0a.14.14 0 0 1-.06.05l-.24-1.22Z" fill="#173D70" /><path d="M17.01 20.8c.17.13.28.3.34.5.01.05 0 .08-.06.1-.18.05-.35.07-.53.04l.25-.65Z" fill="#010D3F" /><path d="M23.2 20.89c.2.13.37.3.48.52l-.71.2c-.07.03-.1 0-.06-.06l.3-.66ZM36.8 21.55a1.42 1.42 0 0 1-.48-.62l.43-.05a.13.13 0 0 1 .12.05.13.13 0 0 1 .02.14c-.07.17-.1.33-.09.48Z" /><path d="m22.08 20.92-.42.95a.19.19 0 0 1-.1.1l-.83.37c-.77.32-1.5.7-2.2 1.13l-.48-1.35c-.03-.05 0-.09.05-.1 1.35-.3 2.67-.66 3.98-1.1Z" fill="#010D3F" /><path d="M36.32 20.93c.1.25.26.46.48.62l-.2 2.23a1.1 1.1 0 0 1-.13-.53c0-.04 0-.04-.02 0-.32.8-2 1.25-2.7 1.27a37.2 37.2 0 0 0-2.37-3.2c-.22-.42 2.03-.38 2.33-.37l2.6-.02Z" fill="#3A83B3" /><path d="m30.33 21.34-.17-.21c.06-.07.13-.08.2-.03.05.03.06.07.03.13l-.06.11Z" /><path d="m30.16 21.13.17.21a46.32 46.32 0 0 0-1.4 4.67l-.61.1c.22-.28.19-.52-.1-.71a.2.2 0 0 1-.08-.1c-.08-.23-.19-.4-.4-.56-.4-.3-.66-.68-.8-1.15a.16.16 0 0 0-.06-.07l-.06-.06a.23.23 0 0 1-.08-.13c-.05-.25-.17-.7-.37-.79a.19.19 0 0 1-.1-.08c-.13-.24-.19-.5-.17-.79l2.5-.4 1.56-.14Z" fill="#2F6D9E" /><path d="M31.38 21.31a37.2 37.2 0 0 1 2.36 3.2l.37.58c.03.04.07.06.12.06l2.3-.14c.02.16-.02.26-.14.3-1.67.54-3.37 1-5.09 1.4l-1.34.3c-.07.02-.1 0-.08-.07l.2-1.1a28.94 28.94 0 0 1 3.13-.54.07.07 0 0 0 .02-.1l-2.09-2.91a.24.24 0 0 1-.04-.12v-.06c.02-.25.12-.52.28-.8ZM40.54 22.5l-.08.2c-.02.08-.04.08-.06 0l-.25-.93a.14.14 0 0 0 .06-.06c.02-.02.04-.02.05 0 .15.24.24.5.28.78Z" /><path d="M26.1 21.67c-.02.3.04.55.17.79.03.04.06.07.1.08.2.1.32.54.37.79.01.05.04.1.08.13l.06.06c.03.02.04.04.05.07.15.47.42.86.81 1.15.21.16.32.33.4.55a.2.2 0 0 0 .08.1c.29.2.32.44.1.72l-1.04.24c-.05.01-.09 0-.12-.05a57.04 57.04 0 0 0-2.99-4.23c.64-.18 1.29-.31 1.93-.4Z" fill="#173D70" /><path d="m16.55 21.9.98.06c.04 0 .08.03.1.07.3.52.48 1.08.56 1.68l-.73.56c.08-.14.2-.25.34-.34.18-.12.17-.14-.04-.09-.12.03-.23.08-.35.13a.1.1 0 0 1-.1 0c-.36-.27-.28-.86-.76-.82-.05 0-.07-.02-.07-.06l.03-.62c0-.03-.02-.05-.05-.05h-.06c-.03 0-.04.01-.03.04.02.1 0 .17-.1.2l.28-.76Z" fill="#010D3F" /><path d="m37.39 21.89 1.3 2.48-.25.17-1.1-1.98c-.04-.21-.02-.44.05-.67ZM24.17 22.07a57.04 57.04 0 0 1 3 4.23c.02.04.06.06.11.05l1.04-.24.61-.1-.27 1.22c-.35-.01-.66.1-.93.32a.6.6 0 0 0-.5.05.18.18 0 0 1-.13.02c-.19-.05-.3-.09-.5-.06a49.4 49.4 0 0 1-5.8.5l.24-.95a34.3 34.3 0 0 0 4.42-.47l.74-.1a.06.06 0 0 0 .05-.07v-.02l-2.85-4.17.77-.21Z" /><path d="M31.1 22.1v.07c0 .04.02.08.04.12l2.09 2.9a.07.07 0 0 1 0 .08.07.07 0 0 1-.05.04c-1.03.12-2.06.3-3.1.54.27-1.25.6-2.5 1.01-3.74Z" fill="#2F6D9E" /><path d="m23.4 22.28 2.84 4.17a.06.06 0 0 1 0 .05.06.06 0 0 1-.04.04l-.74.1-.74.02c-.05 0-.08-.02-.09-.07-.1-.5-.3-.72-.61-1.1-.25-.32-.38-.78-.84-1.04a.11.11 0 0 1-.06-.1c.01-.55-.21-1.07-.31-1.62-.01-.05 0-.08.04-.12.07-.05.08-.12.03-.2l.52-.13Z" fill="#173D70" /><path d="M17.46 24.27a8.13 8.13 0 0 0-1.93 2.15c-.12.19-.16.18-.13-.04.18-1.29.47-2.52.88-3.71.08-.04.11-.1.09-.21-.01-.03 0-.04.03-.04h.06c.03 0 .05.02.05.05l-.03.62c0 .04.02.06.07.06.48-.04.4.55.75.81a.1.1 0 0 0 .11.01c.12-.05.23-.1.35-.13.2-.05.22-.03.04.09-.14.1-.26.2-.34.34Z" /><path d="M22.88 22.42c.05.07.04.14-.03.2a.11.11 0 0 0-.04.11c.1.55.32 1.07.3 1.62 0 .04.03.08.07.1.46.26.6.72.84 1.03.3.4.5.6.61 1.11.01.05.04.08.1.07l.73-.02c-1.46.25-2.93.4-4.42.47l.32-1.14 1.1-3.36a.17.17 0 0 1 .09-.1c.1-.05.21-.09.33-.1Z" fill="#010D3F" /><path d="m37.33 22.56 1.1 1.98-1.13.53c-.04.01-.07 0-.07-.05-.03-.82 0-1.64.1-2.46Z" fill="#2F6D9E" /><path d="m15.01 22.6.04.04a2.7 2.7 0 0 1-.32.63c-.09.12-.1.11-.04-.02.09-.23.2-.45.32-.65Z" fill="#B08F46" /><path d="M40.7 22.69c.23.56.42 1.13.56 1.7.01.05.04.08.07.1l.07.06c.07.4.07.79 0 1.18-.07-.01-.1-.05-.08-.1v-.12c-.15-.7-.33-1.8-.72-2.4 0-.13.02-.27.1-.42Z" /><path d="m20.77 25.8-.39 1.5v-.08c-.01-.05-.04-.07-.09-.06-.14.02-.22-.04-.28-.18a304 304 0 0 1-1.06-2.57c.61-.38 1.25-.72 1.91-1.02l.65-.25c.06-.02.08 0 .06.05l-.8 2.6Z" fill="#010D3F" /><path d="M40.6 23.11c.39.6.57 1.7.72 2.4v.11c-.01.06.01.1.07.11-.01.3-.1.58-.23.85-.03.07-.05.06-.06 0a25.4 25.4 0 0 0-.54-3.08c-.04-.16-.03-.3.04-.39Z" fill="#173D70" /><path d="M36.6 23.78 36.51 25l-2.3.14a.12.12 0 0 1-.1-.06l-.38-.57c.7-.02 2.39-.47 2.71-1.27.02-.04.02-.04.02 0 0 .19.04.37.12.53Z" fill="#2F6D9E" /><path d="m40.42 25.56-1.37-.41a.12.12 0 0 1-.09-.1l-.04-.2c.4-.3.77-.64 1.1-1.03.04-.05.07-.04.08.02l.32 1.72Z" fill="#173D70" /><path d="m18.57 24.66.95 2.19c.02.05 0 .08-.05.08A9.5 9.5 0 0 1 17 26.5c-.06-.02-.08-.06-.05-.11.07-.16.12-.33.13-.5.43-.46.93-.87 1.48-1.23Z" fill="#010D3F" /><path d="m38.92 24.86.04.19c.01.05.04.09.1.1l1.36.4.2 1.28-1.08-.4c-.07-.03-.09 0-.07.06l.56 1.9a.7.7 0 0 1-.2.24l-.8-2.27a.13.13 0 0 0-.11-.09l-1.76-.12a.75.75 0 0 1 0-.3.13.13 0 0 1 .09-.1c.58-.25 1.14-.54 1.67-.9Z" /><path d="M20.77 25.8c.09.02.15.07.17.16.02.06.05.08.1.05.1-.05.2-.06.32-.04l-.32 1.14-.24.95-.12.39-.22.93c-.02.06 0 .09.07.08.23-.04.45-.12.65-.25h.1l.18.05c.06.02.06.04 0 .07l-.4.21a.1.1 0 0 0-.06.1v.16c0 .05.03.08.08.1l.29.07c.04 0 .06.03.05.07 0 .03-.01.05-.03.07l-.1.04-.29.11-.59.26a.13.13 0 0 0-.08.1l-.53 2.7-.35 2.25a.09.09 0 0 0 .06.1h.04l2.7-.37c.19.13.38.13.59 0 .1-.07.12-.05.09.06l-.05.15a.12.12 0 0 1-.1.08l-.9.15c-.04 0-.04.02 0 .05.03.02.08.02.13.01l-2.76.28c-.01 0-.03 0-.04.02a4.74 4.74 0 0 1-.68 1.64c-.03.04-.02.07.02.1 1.93.95 4.45 1.14 6.56 1.36l.44.03c.06 0 .08.03.08.08v.14c0 .04.02.08.05.11l.52.52c-.42.55-.96.95-1.61 1.18v.04l-.07.17c-.16 0-.27-.06-.42-.05a5.49 5.49 0 0 1-3.04-.67.04.04 0 0 1 .05-.05c.47.18.97.3 1.5.35l.46-.06a2.92 2.92 0 0 0 2.2-1.52.03.03 0 0 0-.03-.02 18.55 18.55 0 0 1-6.92-1.53.14.14 0 0 0-.12 0 .82.82 0 0 1-.46.07l-.13-.07a.15.15 0 0 1-.08-.1c-.02-.04 0-.1.03-.15.2.07.37.05.52-.06l.1-.11c.27-.38.44-.8.5-1.27.01-.06 0-.08-.06-.07l-1.8.28a.05.05 0 0 1-.04-.03.05.05 0 0 1 .02-.06 6.07 6.07 0 0 1 1.92-.51c.04 0 .07-.03.08-.08l.84-4.62c0-.05-.01-.07-.06-.05-1.87.75-3.73 2.25-3.27 4.5.03.11 0 .12-.07.03a.92.92 0 0 1-.16-.48c-.2-1.91.85-3.24 2.35-4.22l.73-.45.55-.27a.14.14 0 0 0 .08-.1l.3-1.55.3-1.25.38-1.5Z" fill="#CDB37F" /><path d="M41.58 25.87c.04.6.2 1.18.48 1.71.4 1.56.29 3.06-.34 4.52-.02.04-.04.04-.07.02a.5.5 0 0 0-.28-.12c0-.42.05-.84.14-1.25.24-.4.3-.7.45-1.13.16-.46.06-.8-.06-1.25-.01-.05-.03-.05-.06 0a.25.25 0 0 0-.06.15c.05.7-.04 1.37-.28 2.03-.08-.39-.1-.76-.05-1.12.12-.68.16-1.25.1-1.71-.02-.14-.11-.21-.28-.21-.1-.41.12-.99.3-1.64Zm.41 4.22c-.06 0-.38.84-.4.94-.02.22-.02.44 0 .67.02.17.05.17.1.01.2-.5.32-1.02.38-1.55 0-.06-.02-.08-.08-.07Z" /><path d="m36.33 29.12-1.47-2.52 1.58-.59h.02a.04.04 0 0 1 .04.04c0 1.02-.05 2.05-.17 3.07ZM37.16 26.15l1.76.12a.13.13 0 0 1 .11.09l.8 2.27c-.77.9-1.69 1.64-2.75 2.25-.05.03-.07.02-.07-.04l.15-4.7Z" fill="#173D70" /><path d="M43.6 26.43c.1 1.17-.1 2.38-.21 3.55a14.27 14.27 0 0 1-1.72 4.82c-.27.48-.23 1.18-.51 1.65-.53-.09-1.13.13-1.62.19-.05 0-.08-.02-.09-.07v-.08l.54-.73c.03-.03.02-.06-.03-.06h-.04a.1.1 0 0 0-.1.04c-.16.24-.28.4-.38.46-.9.67-1.8 1.2-2.7 1.61-.2.1-.36.18-.47.25a.33.33 0 0 1-.13.05.9.9 0 0 0-.48.23c.21-.41.38-.84.5-1.28.01-.07.08-.13.2-.2l.04.07a.1.1 0 0 0 .08.04c.93.07 1.78-.14 2.55-.64a.08.08 0 0 0 .04-.07.1.1 0 0 0-.01-.04.05.05 0 0 0-.03-.02.05.05 0 0 0-.03 0c-.5.27-1.54.62-2.06.3.75-.52 1.46-1.09 2.12-1.71l.78.83c.04.04.08.04.1-.02l.59-1.06c.44-.79.72-1.64.84-2.54.11.01.2.05.28.12.03.02.05.02.07-.02.63-1.46.74-2.96.34-4.52l.15.03c.05 0 .08-.02.1-.06l1.28-1.12Z" fill="#010D3F" /><path d="M40.62 26.83c.2.65-.19 1.1-.59 1.56l-.56-1.9c-.02-.07 0-.09.07-.06l1.08.4Z" fill="#173D70" /><path d="m34.86 26.6 1.47 2.52.02 1.03-.03.02c-.02.02-.04.01-.05 0l-1.94-3.36.53-.21Z" /><path d="m34.33 26.81 1.94 3.35c.01.02.03.03.05.01l.03-.02-.04.39-.39.04a.14.14 0 0 0-.1.07c-.05.08-.13.09-.23.02-.25-.17-.73.02-.73-.41 0-.03 0-.04-.03-.04h-.05c-.06 0-.09.03-.09.09 0 .13-.07.24-.2.33a.62.62 0 0 1-.11.05c-.44.17-.24.88-.6.86-.94-.04-1.6.09-2.66-.22-.18-.05-.33 0-.5-.02l-1.12-1.65a.22.22 0 0 1-.04-.13v-.25l.24-1.26c0-.05.04-.08.09-.1l2.77-.67 1.77-.44Z" fill="#173D70" /><path d="m28.66 27.23-.02.06c0 .05.01.08.05.1.34.17.3.8.57 1.18a.2.2 0 0 1 .04.14l-.08.86a.09.09 0 0 0 .04.08.08.08 0 0 0 .08 0 .17.17 0 0 0 .08-.09l-.2 1.48-.61 2.9c-.01.07.01.09.07.07l2.36-.61.86-.3 1.29-.41v.11c0 .06.01.08.07.07l.18-.02c.05 0 .08.01.1.06l.1.31c.03.06.06.08.12.06a.32.32 0 0 1 .16 0l-1.4.52-.87.26-2.05.55-1.16.26a.1.1 0 0 0-.09.08l-.14.5-.35 1.25-.2.59-.77 1.7a.06.06 0 0 0 0 .07.07.07 0 0 0 .07.03c.9-.04 1.8-.15 2.68-.3a20.51 20.51 0 0 0 5.46-1.69c.22-.1.26-.24.27-.47l.18-.7.26-1.17c.13.08.22.06.26-.06.02-.05.05-.07.1-.06l.31.09c.06.01.1-.01.1-.07a.5.5 0 0 1 .12-.26l-.4 1.95c0 .05.01.06.06.04.93-.52 1.78-1.16 2.53-1.91l.22-.22.34-.35c0 .14.06.2.21.18l-.44.5-.16.2c-.66.62-1.37 1.2-2.12 1.7l-.59.38c-.11.06-.18.12-.2.19a6.1 6.1 0 0 1-.49 1.28 6.92 6.92 0 0 1-1.2 1.85.05.05 0 0 0 .04.05h.03c1.07-.55 2.08-1.2 3.02-1.96-.1.23-.26.4-.47.52-.97.73-1.77 1.22-2.4 1.45-.34.13-.5.18-.79.44a4.59 4.59 0 0 1-2.24 1.11.04.04 0 0 1 .01-.08 3.79 3.79 0 0 0 1.13-.6.03.03 0 0 0-.05-.04 14.7 14.7 0 0 1-7.39.6 4.1 4.1 0 0 1-.83-.21l.07-.17c2.73.6 5.43.5 8.08-.3.83-.24 1.58-1.5 1.91-2.24l.52-1.15c.03-.06.01-.08-.05-.05l-1.94.75c-2.02.7-4 1.05-6.39 1.13a.14.14 0 0 0-.12.06l-.4.58-.52-.52a.16.16 0 0 1-.05-.11v-.14c0-.05-.02-.08-.08-.08l-.44-.03.4-.06c.04 0 .08-.03.1-.08.44-.85.8-1.74 1.07-2.67l.27-.87a.49.49 0 0 0 .07-.34c-.01-.06-.04-.08-.1-.07-1.63.29-3.26.52-4.9.7-.06 0-.1 0-.15-.02-.03-.03-.03-.04.01-.05l.9-.15c.05 0 .08-.03.1-.08l.05-.15c.03-.1 0-.13-.1-.07-.2.14-.4.14-.57.01l2.47-.4 2.64-.52a.1.1 0 0 0 .08-.07l.9-4.68.2-1.23c.02-.05 0-.07-.06-.06l-.85.22c-2.11.41-4.2.93-6.25 1.55a.12.12 0 0 0 .03-.07c0-.04 0-.06-.05-.07l-.29-.07c-.05-.02-.07-.05-.07-.1v-.15a.1.1 0 0 1 .05-.11l.4-.21c.06-.03.06-.05 0-.07l-.18-.05c2.11-.71 4.26-1.26 6.45-1.66.27-.23.58-.33.93-.32Z" fill="#B08F46" /><path d="M17.87 27.76c-.02.02-.05.03-.08.02-.04 0-.05 0-.05.04.04.3.33.8.6 1.3.2.42.5.76.78 1.12.03.03.04.07.04.11v.12l-.73.45a.27.27 0 0 0 .03-.12c0-.06-.03-.08-.09-.07-.4.1-.78.02-1.1-.25a.3.3 0 0 1-.1-.12c-.06-.17-.19-.24-.36-.2-.05 0-.09-.02-.1-.06-.14-.33-.43-.73-.51-1.14-.13-.65-.41-1.01.07-1.67a.1.1 0 0 1 .06-.04 5.95 5.95 0 0 0 1.54.5Z" fill="#00051F" /><path d="M27.73 27.55c-2.19.4-4.34.95-6.45 1.66h-.1c-.2-.17-.32-.38-.37-.63a.15.15 0 0 0-.07-.1l-.06-.03.12-.39a49.4 49.4 0 0 0 5.8-.5c.2-.03.31.01.5.06.05 0 .09 0 .13-.02a.6.6 0 0 1 .5-.05Z" fill="#010D3F" /><path d="M41.27 27.5c.17.01.26.08.28.22.06.46.02 1.03-.1 1.7l-.18-1.91Z" fill="#173D70" /><path d="M17.87 27.76c.53.1 1.07.18 1.61.23.56.05.3.49.61.56l-.3 1.54c-.01.05-.04.09-.08.1l-.55.28v-.12a.18.18 0 0 0-.04-.11c-.29-.36-.57-.7-.79-1.12-.26-.5-.55-1-.59-1.3 0-.03.01-.05.05-.04.03.01.06 0 .08-.02ZM40.93 29.62l-.16 1.92c0 .05.02.07.07.07s.1-.03.14-.1c-.07.26-.18.49-.34.7-.2-.9-.33-1.83-.38-2.75a.79.79 0 0 0-.18-.46l.67-1.01c.04-.06.06-.05.06.01l.12 1.62Z" fill="#010D3F" /><path d="M28.34 29.63c-.27-.3-.51-.66-.7-1.07l.85-.22c.06-.01.08 0 .07.06l-.22 1.23Z" /><path d="M41.51 30.75c-.07-.08-.07-.15-.01-.2.24-.66.33-1.34.28-2.03 0-.05.02-.1.06-.16.03-.04.05-.04.06.01.12.44.22.79.06 1.25-.14.42-.2.73-.45 1.13Z" fill="#173D70" /><path d="m20.68 28.45.06.03c.03.02.06.06.07.1.05.25.17.46.37.63-.2.13-.42.21-.65.25-.07 0-.09-.02-.07-.08l.22-.93Z" /><path d="M27.64 28.56c.19.41.43.77.7 1.07l-.9 4.68a.1.1 0 0 1-.07.07l-2.64.52c-.32.02-.32-.18-.46-.38-1-1.36-1.9-2.8-2.67-4.3a.1.1 0 0 0-.1-.07h-.22l.1-.04a67.06 67.06 0 0 1 6.26-1.55Zm-2.03 1.42c-.63.21-.5 1.13.22 1.15.05 0 .08.02.11.05.1.13.16.27.2.43 0 .04.02.07.05.1l.63.77c.03.05.07.06.13.04l.26-.08a.2.2 0 0 0 .12-.09c.25-.37.28-.77.1-1.18-.12-.28-.11-.57-.22-.78-.33-.62-.91-.61-1.57-.5v.06l-.03.03Z" fill="#010D3F" /><path d="M40.08 29c.1.13.16.28.18.46.05.92.18 1.84.38 2.75l-.38.62c.05-1.25-.07-2.36-.36-3.58l.18-.25Z" /><path d="M14.66 29.04c.1.33.15.67.14 1h-.06c-.04 0-.07.03-.07.08l-.09.63a.04.04 0 0 1-.07 0 4.36 4.36 0 0 1 .15-1.71Z" fill="#B08F46" /><path d="M39.9 29.25c.29 1.22.41 2.33.36 3.58l-.35.47-1.4.05a.1.1 0 0 1-.1-.06l-.94-1.85c.9-.63 1.7-1.36 2.43-2.2Z" fill="#010D3F" /><path d="M29.46 29.28v.25c0 .05.02.09.04.13l1.11 1.65 1.29 1.8-.86.29-1.82-2.36.2-1.48.04-.28Z" /><path d="M40.93 29.62c.06.64.08 1.27.05 1.9-.04.06-.09.1-.14.1-.05 0-.07-.03-.07-.08l.16-1.92Z" fill="#00051F" /><path d="M25.63 29.95v-.04l.01-.01c.66-.12 1.24-.13 1.57.5.1.2.1.49.22.77.18.41.15.8-.1 1.18a.2.2 0 0 1-.12.1l-.26.07c-.06.02-.1 0-.13-.04l-.63-.76a.25.25 0 0 1-.06-.11c-.03-.16-.1-.3-.19-.43a.14.14 0 0 0-.11-.05c-.73-.02-.85-.94-.22-1.15.02 0 .02-.02.02-.03Z" /><path d="M41.6 31.03c0-.1.33-.94.4-.94.05-.01.07.01.07.07a6.52 6.52 0 0 1-.37 1.55c-.06.16-.1.16-.11-.01a3.27 3.27 0 0 1 0-.67Z" fill="#010D3F" /><path d="M21.28 30.15h.22a.1.1 0 0 1 .1.06c.77 1.51 1.66 2.95 2.67 4.31.14.2.14.4.46.38l-2.47.4-2.71.36a.09.09 0 0 1-.1-.1l.35-2.25c.15.25.24.51.24.8 0 .05.03.09.08.11.41.2.72.42 1.2.48a43.05 43.05 0 0 0 2.11.2.12.12 0 0 0 .05-.18 36.49 36.49 0 0 1-2.44-4.1.31.31 0 0 1-.04-.14v-.22l.28-.11Z" /><path d="m36.31 30.54-.03.2a.78.78 0 0 0-.57.18c-.04.03-.08.03-.12 0a.64.64 0 0 0-.56-.14c-.04 0-.08 0-.12-.02l-.07-.05c-.06-.03-.1-.02-.15.02a.76.76 0 0 0-.21.78c.01.05.05.09.1.1l.32.1c.04 0 .06.04.06.08-.01.08.02.13.1.14l-.17.1-1.7.66-1.3.42-1.28-1.8c.18.02.33-.03.5.02 1.07.3 1.73.18 2.67.22.36.02.16-.69.6-.86a.62.62 0 0 0 .11-.05c.13-.09.2-.2.2-.33 0-.06.03-.09.1-.09h.04c.02 0 .03.01.03.04 0 .43.48.24.73.4.1.08.18.07.23-.01a.14.14 0 0 1 .1-.07l.4-.04Z" fill="#010D3F" /><path d="M21 30.26v.22c0 .05.01.1.04.14a36.49 36.49 0 0 0 2.46 4.16.12.12 0 0 1-.13.13c-.69-.06-1.38-.13-2.06-.21-.47-.06-.78-.29-1.2-.48a.12.12 0 0 1-.07-.11c0-.29-.09-.55-.24-.8l.53-2.7c0-.04.04-.07.08-.1l.6-.25Z" fill="#00051F" /><path d="M36.28 30.75v.55c0 .06-.02.1-.07.12l-1.14.51c-.09-.01-.12-.06-.11-.14 0-.04-.02-.07-.06-.08l-.32-.1a.14.14 0 0 1-.1-.1c-.08-.3 0-.56.21-.78.05-.04.1-.05.15-.02l.07.05c.04.02.08.03.12.02.2-.05.39 0 .56.14.04.03.08.03.12 0 .18-.14.37-.2.57-.17Z" /><path d="m29.22 31.04 1.82 2.36-2.36.61c-.06.02-.08 0-.07-.06l.6-2.91Z" fill="#010D3F" /><path d="m37.47 31.44.94 1.85a.1.1 0 0 0 .1.06l1.4-.05c-.07.14-.15.26-.25.34l-.73.03a.08.08 0 0 0-.08.08l.01.04.25.47-.22.22-.43-.67a.1.1 0 0 0-.12-.05l-1.42.22a.2.2 0 0 0-.1.04l-.08.07.1-.66c.36.03.7-.01 1.04-.13.04-.01.05-.04.04-.08a7.92 7.92 0 0 0-.87-1.5l.42-.28Z" /><path d="M37.05 31.71c.35.49.64.99.87 1.5.01.05 0 .08-.04.1-.34.1-.68.15-1.03.12.01-.58.08-1.15.2-1.72ZM40.49 34.5c-.25-.25-.22-.48.07-.68.04-.03.05-.06.03-.1l-.15-.3c-.02-.05-.06-.07-.1-.06l-.12.03.8-1.36c.03-.05.04-.05.03.01a7.38 7.38 0 0 1-.56 2.47Z" fill="#010D3F" /><path d="M34.9 32.04c-.02.11.1.3.34.55h.04a.5.5 0 0 1 .27-.06l-1.63.75a.32.32 0 0 0-.16 0c-.06.02-.1 0-.11-.06l-.11-.3c-.02-.06-.05-.08-.1-.07l-.18.02c-.06.01-.08-.01-.07-.07v-.11l1.7-.65Z" fill="#CDB37F" /><path d="m36 33.7-.06.21v-.14c0-.06-.03-.08-.09-.06-.96.22-1.93.38-2.91.5a.13.13 0 0 1-.12-.05l-.3-.36 1.4-.52 1.63-.75.5-.26a.06.06 0 0 1 .06 0l.03.03v.03L36 33.71Z" fill="#010D3F" /><path d="m15.08 33.29.16.9c0 .05.02.09.04.13.16.25.25.52.29.81a3.28 3.28 0 0 1-.66-1.72c0-.05.02-.07.06-.09l.11-.03Z" fill="#B08F46" /><path d="m40.49 34.5.04.04-.58 1.06c-.03.06-.07.06-.1.02l-.79-.83.16-.2.4.63c.05.06.1.07.15.03.28-.2.37-1.07.43-1.4 0-.05-.02-.08-.06-.1a.16.16 0 0 1-.1-.11l.18-.25.12-.03c.04 0 .08 0 .1.05l.15.32c.02.03 0 .06-.03.09-.3.2-.32.43-.07.69Z" /><path d="M36.7 34.3v.1a.5.5 0 0 0-.12.26c0 .06-.04.08-.1.07l-.3-.09c-.06 0-.1 0-.11.06-.04.12-.13.14-.26.06l.1-.67.03-.18.06-.2.01.29c0 .08.04.09.08.02.12-.15.05-.3.26-.41.07-.05.11-.02.12.06l.04.72c0 .05.02.06.07.04.05-.03.09-.07.12-.13Z" fill="#CDB37F" /><path d="m39.66 33.64-.21.27-.34.35-.25-.47a.08.08 0 0 1 0-.08.08.08 0 0 1 .07-.04l.73-.03ZM40.04 33.64c.01.05.05.09.1.1.04.03.06.06.06.1-.06.34-.15 1.2-.43 1.4-.06.05-.1.04-.14-.02l-.4-.63.43-.5.38-.45Z" fill="#010D3F" /><path d="m35.94 33.91-.04.18-.14.1a.3.3 0 0 1-.1.03l-1.88.36a.07.07 0 0 0-.06.09l.02.03 1.48 1.23c.04.03.09.05.14.04l.19-.04-.18.7c-.45.03-2.14-1.4-2.51-1.75a.14.14 0 0 0-.12-.04l-4.53.6.14-.5a.1.1 0 0 1 .09-.07l1.16-.26c.7-.03 1.38-.11 2.07-.24.04 0 .06-.03.04-.07l-.06-.24.88-.26.29.36c.03.03.07.05.12.04.98-.1 1.95-.27 2.91-.5.06 0 .08.01.09.07v.14Z" /><path d="M38.9 34.48c-.76.75-1.61 1.39-2.54 1.9-.05.03-.07.02-.06-.03l.4-1.95v-.1l.04-.21.08-.07a.2.2 0 0 1 .1-.04l1.42-.22a.1.1 0 0 1 .12.05l.43.67ZM31.65 34.06l.06.24c.02.04 0 .07-.04.07-.69.13-1.37.2-2.07.24l2.05-.55ZM35.9 34.1l-.09.66-.26 1.17-.19.04c-.05 0-.1 0-.14-.04l-1.48-1.23a.07.07 0 0 1-.02-.07.07.07 0 0 1 .06-.05l1.87-.36a.3.3 0 0 0 .11-.04l.14-.09ZM35.37 36.63c-.01.23-.05.37-.27.47-.55.27-1.12.5-1.7.71a.19.19 0 0 0 .02-.07c0-.03-.01-.05-.04-.05-.26 0-.53 0-.78.02-.3.02-.56.01-.78-.03l-2.46-.4a1.38 1.38 0 0 1-.63-.27.2.2 0 0 0-.12-.04c-.35 0-.55-.15-.6-.48 0-.04 0-.04-.03-.01l-.12.22.35-1.25 4.53-.6c.05-.01.09 0 .12.03.37.35 2.06 1.78 2.51 1.75Z" fill="#010D3F" /><path d="M26.95 35.52a.4.4 0 0 1-.35.03.37.37 0 0 0-.14-.02l-.77.03a.07.07 0 0 0-.05.05.07.07 0 0 0 .01.07l.62.61a.2.2 0 0 0 .11.06l.3.04c-.27.93-.63 1.82-1.07 2.67a.14.14 0 0 1-.1.08l-.4.06c-2.1-.22-4.63-.4-6.56-1.37-.04-.02-.05-.05-.02-.09a4.74 4.74 0 0 0 .68-1.64.08.08 0 0 1 .04-.02l2.76-.28c1.65-.17 3.28-.4 4.91-.69.06 0 .09.01.1.07.02.11 0 .23-.07.34Z" /><path d="m26.95 35.52-.27.87-.3-.04a.2.2 0 0 1-.1-.06l-.63-.61a.07.07 0 0 1-.01-.07.07.07 0 0 1 .05-.05l.77-.03c.05 0 .1 0 .14.02a.4.4 0 0 0 .35-.03Z" fill="#010D3F" /><path d="M39.45 36.5c-.14.14-.3.27-.46.38-.28.17-.4.38-.63.6l-.8.8a17.18 17.18 0 0 1-3.06 1.96.05.05 0 0 1-.03-.08c.5-.55.9-1.15 1.2-1.82a.9.9 0 0 1 .47-.23l.13-.05c.1-.07.27-.16.47-.25.9-.4 1.8-.94 2.7-1.6.1-.08.22-.23.37-.47a.1.1 0 0 1 .11-.05h.04c.05.01.06.04.03.07l-.54.73Z" /><path d="M41.16 36.45c-.34.57-.78 1.26-1.2 1.75-.13-.11-.5-.49-.6-.34-.33.49-.67.83-1.03 1.03-.17.1-.37.09-.62-.02a.16.16 0 0 0-.13 0 .45.45 0 0 1-.5-.07c.21-.12.37-.3.47-.52l.8-.8c.23-.21.36-.43.64-.6.17-.11.32-.24.46-.39v.08c0 .05.04.08.1.07.48-.06 1.08-.28 1.61-.2Z" fill="#00051F" /><path d="m36.35 36.87.59-.38c.52.33 1.56-.02 2.06-.29H39a.05.05 0 0 1 .04 0l.01.02.01.04c0 .03-.01.06-.04.07-.77.5-1.62.71-2.55.64a.1.1 0 0 1-.08-.04l-.05-.06Z" /><path d="M33.4 37.81c-1.23.44-2.48.77-3.76.97.1-.3-.62-.4-.84-.54-.18-.13-.44-.2-.59-.4a.3.3 0 0 0-.1-.09.83.83 0 0 1-.2-.13.21.21 0 0 1-.06-.1.46.46 0 0 0-.2-.23l.21-.6.12-.21c.02-.03.03-.03.04 0 .04.34.24.5.59.5a.2.2 0 0 1 .12.03c.2.15.42.25.63.28.82.12 1.64.25 2.46.4.22.03.48.04.78.02.25-.02.52-.03.78-.02.03 0 .04.02.04.05l-.02.07Z" fill="#00051F" /><path d="m18.18 37.5-.1.11-.59-.4a.05.05 0 0 1 .06-.09l.63.38Z" fill="#B08F46" /><path d="M27.65 37.29c.1.06.16.14.2.24.01.03.03.07.06.09.06.05.13.1.2.13a.3.3 0 0 1 .1.09c.15.2.4.27.6.4.2.15.93.24.83.54a21.14 21.14 0 0 1-2.72.3.07.07 0 0 1-.03-.08l.76-1.71Z" /><path d="M17.56 37.67c-.04.06-.05.1-.03.16.01.04.04.07.08.1l.13.06c.8 1 1.84 1.8 2.98 2.52.03.02.03.04 0 .05a.9.9 0 0 1-.04 0h-.02a11.55 11.55 0 0 1-3.48-3c-.05-.05-.03-.07.04-.06.13.02.24.08.34.17Z" fill="#B08F46" /><path d="M34.58 38.76c-.04-.3-.38.04-.49.07-.53.1-1.05.27-1.56.49a.14.14 0 0 1-.14-.02c-.13-.09-.28-.12-.45-.09-.1.02-.13-.02-.08-.1.12-.28.34-.4.65-.35.05 0 .09-.01.11-.07.07-.15.18-.22.34-.2.04.02.07.01.1 0 .1-.05.11-.1.05-.18l1.94-.75c.06-.03.08 0 .05.05l-.52 1.15Z" fill="#00051F" /><path d="M33.11 38.31c.06.08.04.13-.04.17a.18.18 0 0 1-.11.02c-.16-.03-.27.04-.34.2-.02.05-.06.07-.11.06-.31-.04-.53.07-.65.34-.05.1-.02.13.08.11.17-.03.32 0 .45.1.05.03.1.03.14 0 .5-.21 1.03-.38 1.56-.48.1-.03.45-.37.5-.07-.34.74-1.1 2-1.92 2.25-2.65.8-5.35.9-8.08.29v-.04a3.42 3.42 0 0 0 1.6-1.18l.41-.58a.14.14 0 0 1 .12-.06c2.4-.08 4.37-.42 6.4-1.13Z" /><path d="m23.07 40.99-.47.06c0-.07-.03-.11-.07-.13a16.14 16.14 0 0 1-3.4-1.78c-.02-.02-.03-.04 0-.06a.49.49 0 0 0 .03-.03c.02-.02.04-.02.06 0 1.06.7 1.9 1.16 2.54 1.39.6.22 1.05.4 1.31.55ZM31.26 42v.02h-.02l-1.36.17-.63.06c-.17 0-.26 0-.27-.02a8.7 8.7 0 0 1 .88-.18l1.36-.17h.02v.02l.02.1Z" fill="#B08F46" /><path fill-rule="evenodd" d="M44.56 24.29A16.9 16.9 0 0 0 24.1 11.47a17.02 17.02 0 0 0-12.62 12.5A17 17 0 0 0 22.7 44.16a16.97 16.97 0 0 0 10.8-.09 16.21 16.21 0 0 0 6.41-3.96 16.84 16.84 0 0 0 4.64-15.82Zm-5.74 14.59.96-1.08c.42-.5.8-1.03 1.14-1.6l.82-1.41a14.27 14.27 0 0 0 1.5-4.9c.1-1.17.11-2.34.01-3.51a11.6 11.6 0 0 0-.56-2.75 1.3 1.3 0 0 1-.04-.32 15.9 15.9 0 0 0-2.4-4.57 15.34 15.34 0 0 0-14.58-5.94 15.3 15.3 0 0 0-4.08 1.24c-1.12.51-2.18 1.16-3.17 1.94l-1.38 1.27A14.43 14.43 0 0 0 13.87 22c-.34.79-.62 1.6-.83 2.44a15.92 15.92 0 0 0 1.18 10.41 15.38 15.38 0 0 0 24.6 4.04Z" fill="url(#ai0w3vj1f)" /><defs><linearGradient id="ai0w3vj1f" x1="38.94" y1="12.54" x2="19.24" y2="44.01" gradientUnits="userSpaceOnUse"><stop offset=".09" stop-color="#B08F46" /><stop offset=".19" stop-color="#CDB37F" /><stop offset=".49" stop-color="#B08F46" /><stop offset=".73" stop-color="#CDB37F" /><stop offset=".92" stop-color="#B08F46" /></linearGradient></defs></svg>