<?xml version='1.0' encoding='utf-8'?>
<!-- by TradeStack -->
<svg width="56" height="56" viewBox="0 0 56 56" fill="none" xmlns="http://www.w3.org/2000/svg">
<rect width="56" height="56" fill="#F0F3FA" />
<path d="M6 28.2671C6 33.5006 8.59561 37.0444 9.89341 38.1621C8.80458 37.0882 6.6269 33.6058 6.6269 28.2671C6.6269 18.3722 15.8985 14.4931 20.7818 14.4931C23.8885 14.4931 26.3876 15.4793 27.2488 15.9724C26.5119 15.3149 24.2265 14 20.9798 14C11.2462 14 6 21.7253 6 28.2671Z" fill="#007BBE" />
<path d="M20.4625 42C28.1473 42 31.9419 36.7624 32.8786 34.1436C31.6647 36.5814 27.482 41.4572 20.4625 41.4572C11.3428 41.4572 5.93238 32.5361 7.72365 24.6798C5.12625 33.0429 11.5177 42 20.4625 42Z" fill="url(#paint0_linear_229_10977)" />
<path d="M20.51 40.9903C23.9234 40.9903 26.2898 40.1688 27.0463 39.7581C19.8824 43.9726 8.00977 39.7581 8.00977 28.0379C8.00977 18.9712 15.8766 15.318 19.6433 15.318C16.4099 15.5173 8.37644 19.0709 8.37644 28.0379C8.37644 37.0049 16.2433 40.9903 20.51 40.9903Z" fill="#90C4DD" />
<path d="M22.3127 39.7431C15.476 39.7431 13.1488 34.317 12.8398 31.604C13.5254 34.0669 16.3798 38.9927 22.3127 38.9927C28.4309 38.9927 31.042 33.759 31.5828 31.1422C31.3414 34.0092 29.1494 39.7431 22.3127 39.7431Z" fill="url(#paint1_linear_229_10977)" />
<path fill-rule="evenodd" clip-rule="evenodd" d="M17.5 26C18.8807 26 20 27.1193 20 28.5H19.5H16.3748H15.5C15.5 29.6046 16.3955 30.5 17.5 30.5C18.432 30.5 19.215 29.8626 19.437 29H19.95C19.7184 30.1411 18.7095 31 17.5 31C16.1193 31 15 29.8807 15 28.5C15 27.1193 16.1193 26 17.5 26ZM15.563 28C15.7851 27.1374 16.5681 26.5 17.5 26.5C18.432 26.5 19.215 27.1374 19.437 28H15.563ZM12 31V27.7576C12 26.8066 12.7482 26 13.6711 26H13.8231C14.1064 26.004 14.7925 26.1943 15.2703 26.7813L14.9102 27.097C14.7915 26.8997 14.3193 26.5 13.8231 26.5H13.6967C13.0814 26.5 12.5 27.2242 12.5 27.8582V31H12ZM32.5 28.5C32.5 27.1193 31.3807 26 30 26C28.6193 26 27.5 27.1193 27.5 28.5C27.5 29.8807 28.6193 31 30 31C31.2095 31 32.2184 30.1411 32.45 29H31.937C31.715 29.8626 30.9319 30.5 30 30.5C28.8955 30.5 28 29.6046 28 28.5H28.8748H32H32.5ZM30 26.5C29.0681 26.5 28.2851 27.1374 28.063 28H31.937C31.715 27.1374 30.9319 26.5 30 26.5ZM20.5 27.91V31H21V27.8856C21 27.1936 21.6048 26.5 22.2389 26.5C22.8585 26.5 23.4714 27.1623 23.4991 27.8383C23.4983 27.8621 23.4978 27.886 23.4978 27.91V31H23.5H24H24V27.91L24 27.902V27.8856C24 27.1936 24.6026 26.5 25.2367 26.5C25.8708 26.5 26.5 27.1936 26.5 27.8856V31H26.9978V27.91C26.9978 26.8551 26.2143 26 25.2478 26C24.612 26 24.0554 26.3701 23.7489 26.9237C23.4425 26.3701 22.8859 26 22.25 26C21.2835 26 20.5 26.8551 20.5 27.91Z" fill="url(#paint2_linear_229_10977)" />
<path fill-rule="evenodd" clip-rule="evenodd" d="M37.9973 24H37.5V26.9998C37.0439 26.3927 36.3178 26 35.5 26C34.1193 26 33 27.1193 33 28.5C33 29.8807 34.1193 31 35.5 31C36.8807 31 38 29.8807 38 28.5C38 28.444 37.9982 28.3884 37.9945 28.3333H37.9973V24ZM37.5 28.5C37.5 29.6046 36.6046 30.5 35.5 30.5C34.3954 30.5 33.5 29.6046 33.5 28.5C33.5 27.3954 34.3954 26.5 35.5 26.5C36.6046 26.5 37.5 27.3954 37.5 28.5ZM41 26C42.3807 26 43.5 27.1193 43.5 28.5H43H39.8747H39C39 29.6046 39.8954 30.5 41 30.5C41.9319 30.5 42.715 29.8626 42.937 29H43.45C43.2184 30.1411 42.2095 31 41 31C39.6193 31 38.5 29.8807 38.5 28.5C38.5 27.1193 39.6193 26 41 26ZM39.063 28C39.285 27.1374 40.0681 26.5 41 26.5C41.9319 26.5 42.715 27.1374 42.937 28H39.063ZM44 31V27.91C44 26.8551 44.8954 26 46 26C47.1046 26 48 26.8551 48 27.91V31H47.5V27.8856C47.5 27.1936 46.8975 26.5 45.9873 26.5C45.077 26.5 44.5 27.1936 44.5 27.8856V31H44ZM49 24H49.5V26H50.5V26.5H49.5V31H49V26.5H48V26H49V24Z" fill="#0060B3" />
<defs>
<linearGradient id="paint0_linear_229_10977" x1="7.46227" y1="30.4647" x2="29.5814" y2="30.4647" gradientUnits="userSpaceOnUse">
<stop stop-color="#9CCEDF" />
<stop offset="1" stop-color="#2B91C8" />
</linearGradient>
<linearGradient id="paint1_linear_229_10977" x1="14.8677" y1="36.0488" x2="30.2189" y2="33.8103" gradientUnits="userSpaceOnUse">
<stop stop-color="#D7E9BE" />
<stop offset="1" stop-color="#81C787" />
</linearGradient>
<linearGradient id="paint2_linear_229_10977" x1="12" y1="28.5" x2="30.423" y2="28.5" gradientUnits="userSpaceOnUse">
<stop stop-color="#C2DFA4" />
<stop offset="1" stop-color="#81C787" />
</linearGradient>
</defs>
</svg>