<!-- by TradeStack --><svg xmlns="http://www.w3.org/2000/svg" width="56" height="56" viewBox="0 0 56 56"><path fill="#F0F3FA" d="M0 0h56v56H0z"/><path d="M27.95 11.88v-.63a6.49 6.49 0 0 0-3.7 5.67v4.4l.86-.91 1.33-3.76c-.06-2.84.98-4.36 1.5-4.77z" fill="url(#ayukcwkwt)"/><path d="M33.56 12.85l.22-.6a6.5 6.5 0 0 0-5.42 4.08l-1.51 4.14 1.12-.57 2.54-3.08c.91-2.7 2.42-3.77 3.05-3.97z" fill="url(#byukcwkwt)"/><path d="M38.45 15.71l.42-.48a6.52 6.52 0 0 0-6.51 1.92l-2.87 3.35 1.25-.14 3.46-2c1.8-2.2 3.59-2.68 4.25-2.65z" fill="url(#cyukcwkwt)"/><path d="M42.13 19.85l.54-.32a6.53 6.53 0 0 0-6.78-.26l-3.8 2.25 1.23.27 3.92-.79c2.42-1.5 4.27-1.4 4.89-1.15z" fill="url(#dyukcwkwt)"/><path d="M44.1 25.13l.62-.12a6.52 6.52 0 0 0-6.3-2.54l-4.33.84 1.07.66 3.95.6c2.79-.6 4.48.12 4.98.56z" fill="url(#eyukcwkwt)"/><path d="M44.2 30.77l.62.1a6.5 6.5 0 0 0-5.04-4.53l-4.36-.7.77 1 3.52 1.9c2.82.38 4.16 1.64 4.48 2.23z" fill="url(#fyukcwkwt)"/><path d="M42.15 35.94l.55.3c.2-3.3-2-5.32-3.17-5.97l-3.86-2.15.38 1.2 2.65 2.98c2.52 1.33 3.35 2.98 3.45 3.64z" fill="url(#gyukcwkwt)"/><path d="M38.5 40.24l.4.48a6.47 6.47 0 0 0-.84-6.7l-2.84-3.37-.07 1.25 1.42 3.73c1.88 2.13 2.07 3.96 1.92 4.61z" fill="url(#hyukcwkwt)"/><path d="M33.49 43.14l.21.6a6.47 6.47 0 0 0 1.55-6.59l-1.5-4.14-.5 1.15.04 3.99c1.02 2.65.56 4.43.2 5z" fill="url(#iyukcwkwt)"/><path d="M27.98 44.05v.63A6.49 6.49 0 0 0 31.65 39l-.03-4.4-.85.92-1.31 3.77c.08 2.84-.96 4.36-1.48 4.77z" fill="url(#jyukcwkwt)"/><path d="M22.3 43.11l-.21.6a6.5 6.5 0 0 0 5.46-4.02l1.55-4.12-1.13.56-2.57 3.05c-.94 2.68-2.45 3.74-3.1 3.93z" fill="url(#kyukcwkwt)"/><path d="M17.37 40.26l-.4.48a6.52 6.52 0 0 0 6.49-1.96l2.85-3.37-1.26.15-3.44 2.02c-1.8 2.21-3.57 2.7-4.24 2.68z" fill="url(#lyukcwkwt)"/><path d="M13.76 36l-.55.32a6.53 6.53 0 0 0 6.77.36l3.83-2.2-1.22-.28-3.93.73c-2.44 1.46-4.29 1.32-4.9 1.07z" fill="url(#myukcwkwt)"/><path d="M11.8 30.8l-.62.13a6.52 6.52 0 0 0 6.28 2.56l4.34-.81-1.06-.68-3.95-.6c-2.8.59-4.49-.15-4.98-.6z" fill="url(#nyukcwkwt)"/><path d="M11.8 25.22l-.62-.1a6.5 6.5 0 0 0 5.04 4.53l4.36.7-.77-1-3.52-1.9c-2.82-.38-4.16-1.65-4.48-2.23z" fill="url(#oyukcwkwt)"/><path d="M13.68 19.93l-.55-.3c-.2 3.3 2 5.32 3.18 5.97l3.86 2.13-.38-1.19-2.66-2.98c-2.52-1.33-3.35-2.97-3.45-3.63z" fill="url(#pyukcwkwt)"/><path d="M17.36 15.68l-.41-.47a6.47 6.47 0 0 0 .94 6.7l2.9 3.31.05-1.25-1.48-3.7c-1.91-2.1-2.13-3.94-2-4.59z" fill="url(#qyukcwkwt)"/><path d="M22.27 12.79l-.23-.6a6.47 6.47 0 0 0-1.42 6.62l1.57 4.11.48-1.16-.1-3.98c-1.08-2.63-.65-4.43-.3-5z" fill="url(#ryukcwkwt)"/><defs><linearGradient id="ayukcwkwt" x1="27.63" y1="11.48" x2="24.27" y2="21.16" gradientUnits="userSpaceOnUse"><stop stop-color="#112E94"/><stop offset=".86" stop-color="#09A4F2"/></linearGradient><linearGradient id="byukcwkwt" x1="33.4" y1="12.37" x2="26.93" y2="20.33" gradientUnits="userSpaceOnUse"><stop stop-color="#112E94"/><stop offset=".86" stop-color="#09A4F2"/></linearGradient><linearGradient id="cyukcwkwt" x1="38.47" y1="15.2" x2="29.62" y2="20.4" gradientUnits="userSpaceOnUse"><stop stop-color="#112E94"/><stop offset=".86" stop-color="#09A4F2"/></linearGradient><linearGradient id="dyukcwkwt" x1="42.31" y1="19.38" x2="32.24" y2="21.45" gradientUnits="userSpaceOnUse"><stop stop-color="#112E94"/><stop offset=".86" stop-color="#09A4F2"/></linearGradient><linearGradient id="eyukcwkwt" x1="44.43" y1="24.75" x2="34.26" y2="23.27" gradientUnits="userSpaceOnUse"><stop stop-color="#112E94"/><stop offset=".86" stop-color="#09A4F2"/></linearGradient><linearGradient id="fyukcwkwt" x1="44.64" y1="30.52" x2="35.6" y2="25.64" gradientUnits="userSpaceOnUse"><stop stop-color="#112E94"/><stop offset=".86" stop-color="#09A4F2"/></linearGradient><linearGradient id="gyukcwkwt" x1="42.65" y1="35.86" x2="35.84" y2="28.18" gradientUnits="userSpaceOnUse"><stop stop-color="#112E94"/><stop offset=".86" stop-color="#09A4F2"/></linearGradient><linearGradient id="hyukcwkwt" x1="38.99" y1="40.34" x2="35.35" y2="30.77" gradientUnits="userSpaceOnUse"><stop stop-color="#112E94"/><stop offset=".86" stop-color="#09A4F2"/></linearGradient><linearGradient id="iyukcwkwt" x1="33.92" y1="43.41" x2="33.81" y2="33.17" gradientUnits="userSpaceOnUse"><stop stop-color="#112E94"/><stop offset=".86" stop-color="#09A4F2"/></linearGradient><linearGradient id="jyukcwkwt" x1="28.3" y1="44.45" x2="31.6" y2="34.75" gradientUnits="userSpaceOnUse"><stop stop-color="#112E94"/><stop offset=".86" stop-color="#09A4F2"/></linearGradient><linearGradient id="kyukcwkwt" x1="22.46" y1="43.6" x2="29.01" y2="35.7" gradientUnits="userSpaceOnUse"><stop stop-color="#112E94"/><stop offset=".86" stop-color="#09A4F2"/></linearGradient><linearGradient id="lyukcwkwt" x1="17.35" y1="40.77" x2="26.18" y2="35.51" gradientUnits="userSpaceOnUse"><stop stop-color="#112E94"/><stop offset=".86" stop-color="#09A4F2"/></linearGradient><linearGradient id="myukcwkwt" x1="13.57" y1="36.47" x2="23.67" y2="34.55" gradientUnits="userSpaceOnUse"><stop stop-color="#112E94"/><stop offset=".86" stop-color="#09A4F2"/></linearGradient><linearGradient id="nyukcwkwt" x1="11.47" y1="31.19" x2="21.64" y2="32.72" gradientUnits="userSpaceOnUse"><stop stop-color="#112E94"/><stop offset=".86" stop-color="#09A4F2"/></linearGradient><linearGradient id="oyukcwkwt" x1="11.36" y1="25.47" x2="20.4" y2="30.35" gradientUnits="userSpaceOnUse"><stop stop-color="#112E94"/><stop offset=".86" stop-color="#09A4F2"/></linearGradient><linearGradient id="pyukcwkwt" x1="13.18" y1="20.01" x2="20" y2="27.68" gradientUnits="userSpaceOnUse"><stop stop-color="#112E94"/><stop offset=".86" stop-color="#09A4F2"/></linearGradient><linearGradient id="qyukcwkwt" x1="16.86" y1="15.59" x2="20.66" y2="25.11" gradientUnits="userSpaceOnUse"><stop stop-color="#112E94"/><stop offset=".86" stop-color="#09A4F2"/></linearGradient><linearGradient id="ryukcwkwt" x1="21.83" y1="12.53" x2="22.13" y2="22.77" gradientUnits="userSpaceOnUse"><stop stop-color="#112E94"/><stop offset=".86" stop-color="#09A4F2"/></linearGradient></defs></svg>