<?xml version='1.0' encoding='utf-8'?>
<!-- by TradeStack -->
<svg fill="none" viewBox="0 0 56 56" xmlns="http://www.w3.org/2000/svg"><path fill="#1A2D5A" d="M0 0h56v56H0z" /><path d="M46 24h2v10h3V21h-2c-.364.743-2.242 1.345-3 1.5V24Z" fill="#F58220" /><path fill="#EF8226" d="M5 35h46v1H5z" /><path d="M19 26h6v3h-6v-3Zm1 5h6v3h-9V21h9v3h-6v7ZM28 34V21h3v13h-3ZM36 34V24h-3v-3h9v3h-3v10h-3Z" fill="#fff" /><path fill-rule="evenodd" clip-rule="evenodd" d="M5 21v13h3v-5l4 5h4l-4.654-5.688C12.333 28.177 14 27.276 14 25c0-2.844-2.461-4-5-4H5Zm6 4c0-1.625-1-2-3-2v4c2 0 3-.7 3-2Z" fill="#fff" /></svg>