<!-- by TradeStack --><svg width="56" height="56" viewBox="0 0 56 56" xmlns="http://www.w3.org/2000/svg"><path fill="#F0F3FA" d="M0 0h56v56H0z"/><path d="M15 33V23h6v2h-3.5v2H21v2h-3.5v2H21v2h-6Z" fill="url(#ahihi1amo)"/><path d="M22 33V23h6v2h-3.5v2H28v2h-3.5v4H22Z" fill="url(#bhihi1amo)"/><path d="M29 33V23h2.5v8H35v2h-6Z" fill="url(#chihi1amo)"/><path d="M36 33V23h6v2h-3.5v2H42v2h-3.5v2H42v2h-6Z" fill="url(#dhihi1amo)"/><path d="m47.2 25.33.02.02c.14.3.23.57.28.8a3.38 3.38 0 0 1 .3-.83L48.87 23h2.83l-2.93 4.8L52 33h-2.7l-1.5-2.96a4 4 0 0 1-.3-.83 4.09 4.09 0 0 1-.3.83L45.7 33H43l3.25-5.24L43.3 23h2.84l1.06 2.33Z" fill="url(#ehihi1amo)"/><path fill-rule="evenodd" d="M6 23h1.5v.4c0 .06.04.1.1.1h.3a.1.1 0 0 0 .1-.1V23h2c1.33 0 4 .7 4 3.5 0 1-.4 3.1-2 3.5l2 3h-2.5l-2-3h-1v3H4v-1h1.4a.1.1 0 0 0 .1-.1v-.3c0-.06.04-.1.1-.1h.8a.1.1 0 0 0 .1-.1v-.8a.1.1 0 0 0-.1-.1h-.3a.1.1 0 0 1-.1-.1v-1.3c0-.06.04-.1.1-.1h.3a.1.1 0 0 0 .1-.1v-1.3c0-.06.04-.1.1-.1h.3a.1.1 0 0 0 .1-.1V26h-.9a.1.1 0 0 1-.1-.1v-.8a.1.1 0 0 0-.1-.1H5v-1h1v-1Zm1.5 2.1c0-.06.04-.1.1-.1h.3c.06 0 .1.04.1.1v.3a.1.1 0 0 1-.1.1h-.3a.1.1 0 0 1-.1-.1v-.3ZM10 28H8.5v-3H10c.5 0 1.5.3 1.5 1.5S10.67 28 10 28Zm-2.5 1.1a.1.1 0 0 0-.1-.1h-.3a.1.1 0 0 0-.1.1v.3c0 .06.04.1.1.1h.3a.1.1 0 0 0 .1-.1v-.3Zm0 2.5c0-.06.04-.1.1-.1h.3c.06 0 .1.04.1.1v.3a.1.1 0 0 1-.1.1h-.3a.1.1 0 0 1-.1-.1v-.3ZM5.9 27a.1.1 0 0 0 .1-.1v-.3a.1.1 0 0 0-.1-.1h-.3a.1.1 0 0 0-.1.1v.3c0 .06.04.1.1.1h.3Zm-1.8 0a.1.1 0 0 0-.1.1v.8c0 .06.04.1.1.1h.8a.1.1 0 0 0 .1-.1v-.8a.1.1 0 0 0-.1-.1h-.8Zm1.4 3.1a.1.1 0 0 0-.1-.1h-.3a.1.1 0 0 0-.1.1v.3c0 .06.04.1.1.1h.3a.1.1 0 0 0 .1-.1v-.3Zm-1.4-.6a.1.1 0 0 0-.1.1v.3c0 .06.04.1.1.1h.3a.1.1 0 0 0 .1-.1v-.3a.1.1 0 0 0-.1-.1h-.3Zm1.84-2.25c.32 0 .32 0 .32.36 0 .2 0 .28-.04.33-.05.04-.13.04-.3.04-.15 0-.23 0-.27-.04-.04-.04-.04-.13-.04-.31 0-.2 0-.3.04-.34.05-.04.13-.04.29-.04Zm-.92 3.79c.04.03.04.11.04.27 0 .19 0 .28-.05.32-.04.04-.12.04-.27.04-.29 0-.29 0-.29-.32 0-.18 0-.27.04-.31.04-.04.12-.04.28-.04.14 0 .21 0 .25.04Zm.92-1.3c.01.12-.04.16-.14.15a.67.67 0 0 0-.17 0c-.13 0-.2 0-.24-.03-.04-.04-.04-.12-.04-.3 0-.15 0-.23.03-.27.04-.03.1-.03.24-.03.15 0 .23 0 .28.04.04.04.04.13.04.32v.12ZM4.03 28.6C4 28.58 4 28.5 4 28.35c0-.15 0-.22.03-.24.03-.03.09-.02.21-.02.23 0 .23 0 .23.25 0 .28 0 .29-.2.28-.14 0-.21.01-.24-.01Zm0-5.11c-.04-.03-.03-.1-.03-.28 0-.12 0-.17.02-.2.02-.02.08-.01.22-.01.12 0 .18 0 .2.02.04.03.03.1.03.27 0 .21 0 .22-.23.21-.13 0-.19.01-.22-.01Z" fill="url(#fhihi1amo)"/><defs><linearGradient id="ahihi1amo" x1="17.92" y1="23" x2="17.92" y2="33" gradientUnits="userSpaceOnUse"><stop stop-color="#C61AE5"/><stop offset="1" stop-color="#5C0F82"/></linearGradient><linearGradient id="bhihi1amo" x1="25" y1="23" x2="25" y2="33" gradientUnits="userSpaceOnUse"><stop stop-color="#C61AE5"/><stop offset="1" stop-color="#5C0F82"/></linearGradient><linearGradient id="chihi1amo" x1="32" y1="23" x2="32" y2="33" gradientUnits="userSpaceOnUse"><stop stop-color="#C61AE5"/><stop offset="1" stop-color="#5C0F82"/></linearGradient><linearGradient id="dhihi1amo" x1="39" y1="23" x2="39" y2="33" gradientUnits="userSpaceOnUse"><stop stop-color="#C61AE5"/><stop offset="1" stop-color="#5C0F82"/></linearGradient><linearGradient id="ehihi1amo" x1="47.5" y1="23" x2="47.5" y2="33" gradientUnits="userSpaceOnUse"><stop stop-color="#C61AE5"/><stop offset="1" stop-color="#5C0F82"/></linearGradient><linearGradient id="fhihi1amo" x1="5" y1="23" x2="12.5" y2="33" gradientUnits="userSpaceOnUse"><stop stop-color="#C41AE3"/><stop offset="1" stop-color="#5F1085"/></linearGradient></defs></svg>