<?xml version='1.0' encoding='utf-8'?>
<!-- by TradeStack -->
<svg width="56" height="56" viewBox="0 0 56 56" xmlns="http://www.w3.org/2000/svg"><path fill="#F0F3FA" d="M0 0h56v56H0z" /><path fill-rule="evenodd" d="M8 20v16h3v-6h2.67l3.16 6H20l-3.47-6.48a4.46 4.46 0 0 0 2.9-4.4c0-3.24-2.43-5.12-5.54-5.12H8Zm3 7.5h2.47c1.7 0 3.06-.54 3.06-2.38 0-1.85-1.35-2.62-3.08-2.62H11v5ZM27.34 36H22V20h5.45c4.7 0 7.55 3.43 7.55 7.98 0 4.63-2.92 8.02-7.66 8.02ZM25 33.5h2.2c3.36 0 4.8-2.33 4.8-5.52 0-3.11-1.4-5.47-4.7-5.47H25v10.98ZM39.15 20l3.28 5.86h.12l3.3-5.86h3.08l-4.6 8L49 36h-3.13l-3.32-5.82h-.12L39.12 36H36l4.7-8-4.64-8h3.1Z" /></svg>