<?xml version='1.0' encoding='utf-8'?>
<!-- by TradeStack -->
<svg width="56" height="56" viewBox="0 0 56 56" xmlns="http://www.w3.org/2000/svg"><path fill="#F0F3FA" d="M0 0h56v56H0z" /><path d="M31.12 41.31c-2.61 0-5.1-.57-7.33-1.65.23-1.69 1.58-3.87 3.95-6.14a28.22 28.22 0 0 1 5.48-4.14l.62-.38c.5-.39.84-.96.84-1.65 0-1.11-.92-2.04-2.03-2.04h-.15c-.35.04-.7.2-.89.27-.03.04-.07.04-.11.08a34.56 34.56 0 0 0-6.79 5.1c-3.75 3.69-5.36 7.14-4.52 9.17.12.23.54.73 1.84 1.38 1.19.58 2.42 1 3.72 1.27a.3.3 0 0 1-.2-.08A17.2 17.2 0 0 0 43 36.63a17.35 17.35 0 0 1-11.87 4.68Z" fill="#004A98" /><path d="M35.56 14.34c-.15-.27-.34-.5-.46-.61-.11-.08-.19-.2-.3-.27-1-.73-2.57-.42-3.34-.23-4.45 1.38-9.7 4.49-13.72 8.4a24.55 24.55 0 0 0-3.84 4.68c0 .04-.04.04-.04.08v.04c-.11.23-.23.42-.34.61-1.04 2.26-.3 4.72.3 6.06.16.35.35.7.54 1-.07-2.34 1.77-5.72 5.4-9.25 4.42-4.3 10.28-7.67 15-8.9.04 0 .04 0 .07-.03.7-.23.92-.62.92-1 0-.15-.07-.38-.19-.58Z" fill="#80BC00" /><path d="M38.86 20.9h.08c1.91-.34 1.88-1.45 1.76-1.95a4.11 4.11 0 0 0-.38-.85l-.12-.19c-.69-.92-1.84-.96-2.38-.92-4.98.61-11.96 4.34-17.05 9.28-3.34 3.23-5.14 6.33-5.37 8.6-.08.92.92 2.15 1.84 3.07l.38.38c.12.11.23.23.35.3l.76.66c-1-2.11.66-5.83 4.72-9.78C28 25 34.26 21.67 38.86 20.9Z" fill="#EA0029" /></svg>