<!-- by TradeStack --><svg width="56" height="56" viewBox="0 0 56 56" xmlns="http://www.w3.org/2000/svg"><path fill="#F0F3FA" d="M0 0h56v56H0z"/><path fill="#450023" d="M25 19h4v17h-4z"/><path d="m38.78 23.45-.7-.1.36.92.34-.82ZM38.68 24.65l.5-.31.46.53-.81.81-.15-1.03ZM40.15 27.3l-.5-.34-.39.43.38.87.5-.96ZM40.75 28.52l.1-.67-.97.36.87.31Z" fill="#CEB068"/><path d="m36.3 24.58-.35-.9c-.94.18-2.52 3-2.79 3.69-.26.7.31 2.33.7 3.7.38 1.37 2.28 1.32 4.34 2.84 1.66 1.21 4.04-.96 5.02-2.19L42.2 29.7l-3.15-1.35-.36-.67-2.37.67 1.13-1.68h-.56l1.32-1.15-.3-1.18-.18.62-1.41-.38Z" fill="#CEB068"/><path fill-rule="evenodd" d="M39.5 36a8.5 8.5 0 1 0 0-17 8.5 8.5 0 0 0 0 17Zm0-4a4.5 4.5 0 1 0 0-9 4.5 4.5 0 0 0 0 9Z" fill="#450023"/><path d="M42.77 23.9A9.86 9.86 0 0 0 38 26.86a31.7 31.7 0 0 1 4.94-2.08c.04.17.27.18.39.17L44.73 35l1.25-.14-1.81-10.11a.3.3 0 0 0 .31-.24l3.52-.6-.2-.91c-.5 0-2.53.43-3.49.65-.05-.21-.3-.19-.4-.15 0-.07-.07-.2-.44-.12-.37.08-.38.21-.34.27-.34.03-.38.19-.36.26ZM8 19h7.5a5.5 5.5 0 0 1 2.81 10.23L22 36h-4.64l-3.27-6H12v6H8V19Zm4 8h2.5a2.5 2.5 0 0 0 0-5H12v5Z" fill="#450023"/></svg>