<?xml version='1.0' encoding='utf-8'?>
<!-- by TradeStack -->
<svg width="56" height="56" viewBox="0 0 56 56" xmlns="http://www.w3.org/2000/svg"><path fill="#F0F3FA" d="M0 0h56v56H0z" /><path d="M33 13h-7.15c.74.99 1.15 2.2 1.15 3.44v11.35l6-6V13Zm-9.75 0h-6.4l1.24 1.28c1.04 1.07 1.91 2.5 1.91 3.99v16.52l5-5V16.44c0-1.05-.4-2.05-1.13-2.8l-.62-.64Zm-8.74 0H13v28.8l5-5V18.26c0-1.05-.4-2.05-1.13-2.8L14.5 13Zm-.3 30H43v-1.77l-2.16-2.1a4.02 4.02 0 0 0-2.8-1.13H19.2l-5 5ZM43 38.56v-5.9l-.55-.53a4.02 4.02 0 0 0-2.8-1.13H26.32v-.11L21.21 36h16.83c1.49 0 2.92.58 3.98 1.61l.98.95Zm0-8.48V23h-8.8l-6 6h11.45c1.21 0 2.38.38 3.35 1.08ZM43 21v-6.8L36.2 21H43Zm-1.2-8H35v6.8l6.8-6.8Z" fill="url(#api3xzcmw)" /><defs><linearGradient id="api3xzcmw" x1="43" y1="13" x2="13" y2="44.01" gradientUnits="userSpaceOnUse"><stop stop-color="#DBBC50" /><stop offset="1" stop-color="#FBF2D2" /></linearGradient></defs></svg>