<?xml version='1.0' encoding='utf-8'?>
<!-- by TradeStack -->
<svg viewBox="0 0 56 56" xmlns="http://www.w3.org/2000/svg"><path fill="#285B2F" d="M0 0h56v56H0z" /><path d="M37.681 12.668c.749-.79-.312-1.74-.935-2.116 0 0 2.375.917 1.367 2.61-1.008 1.692-4.678.493-10.437.916-4.651.342-8.757 2.399-10.22 3.598.215-.635 1.77-2.243 5.973-3.597 3.815-1.23 5.975-.776 9.142-.776 2.663 0 4.175.352 5.11-.635z" fill="#fff" /><path d="M29.48 13.091c.576-1.693 2.975-3.433 4.103-4.091-.456.07-1.656.339-2.807.846-1.44.635-3.24 2.187-3.743 3.88-.504 1.693-4.396 16.364-4.9 17.916-.503 1.551-1.183 3.95-2.23 4.937-.839.79-3.445.893-4.463.846L14 39.118c2.88-.282 4.536-.187 6.91-1.693 1.812-1.149 3.156-3.597 3.671-5.783.648-2.751 4.18-16.435 4.899-18.551z" fill="#fff" /><path d="M28.976 9.846c-.792.424-2.534 1.792-3.167 3.88-.792 2.61-4.323 16.434-5.115 18.974-.973 3.12-2.305 3.503-3.437 3.67-.429.173-.82.225-1.098.21.325-.117.7-.15 1.098-.21.868-.348 1.89-1.19 2.43-2.965 1.007-3.315 4.107-15.659 5.114-19.185.807-2.822 3.12-4.091 4.175-4.374z" fill="#fff" /><path d="M17.375 26.732l.017-.01c0 .019-.006.024-.017.01l-1.926 1.265c-.408-1.3-.907-4.506.36-6.944 1.583-3.046 6.548-5.313 11.512-5.88 4.965-.567 8.131.212 8.563 3.046.432 2.834-1.007 4.606-2.303 5.74-1.036.906-3.501 1.936-4.605 2.337.24 1.205.82 4.067 1.224 5.881.503 2.267 2.63 10.181 4.173 11.549 1.439 1.275 3.382 1.63 4.461.212.863-1.133 1.367-2.22 1.511-2.621L42 43.938c-.696.661-2.576 1.998-4.533 2.055-2.447.07-4.317-.354-6.116-2.693-1.799-2.337-3.022-6.801-3.67-10.485-.647-3.685-.791-5.385-1.367-5.74-.46-.283-1.2-.117-1.511 0l.36-1.062c.791.165 2.82.184 4.605-1.063 2.23-1.558 2.95-3.33 3.094-5.81.144-2.48-1.507-2.975-3.378-2.975-2.734 0-6.336-.265-9.138 2.054-2.025 1.677-3.746 3.245-3.458 5.74.241 2.089.432 2.7.487 2.773z" fill="#fff" /><path d="M37.105 19.862c.116-2.482-.863-3.95-1.367-4.373.743.165 2.217 1.27 2.16 4.373-.059 3.104-4.056 5.526-6.047 6.349 1.703-1.082 5.14-3.866 5.254-6.349zM29.62 43.915c-2.11-2.349-2.976-8.605-3.096-11.497.528 2.21 1.036 7.215 2.88 10.227 2.159 3.527 5.902 4.35 7.701 4.303-1.727.07-4.318.493-7.485-3.033z" fill="#fff" /></svg>