<?xml version='1.0' encoding='utf-8'?>
<!-- by TradeStack -->
<svg width="56" height="56" viewBox="0 0 56 56" xmlns="http://www.w3.org/2000/svg"><path fill="url(#awlxrvcr5)" d="M0 0h56v56H0z" /><path d="M26 15.77v1.5l-2 .56V16h-9v3.34h8.87c1.18 0 2.13.98 2.13 2.2v3.25C26 26 25.05 27 23.87 27H14.7c-.94 0-1.7-.8-1.7-1.77v-1.61l2-.6V25h9v-3.45h-8.43c-1.18 0-2.57-.99-2.57-2.2V16.2C13 15 14.39 14 15.57 14h8.73c.94 0 1.7.8 1.7 1.77ZM42 16.2v2.09l-2 .63V16h-9v9h9v-3.24l2 .78v2.26c0 1.21-.96 2.2-2.13 2.2h-8.74A2.17 2.17 0 0 1 29 24.8v-8.6c0-1.21.96-2.2 2.13-2.2h8.74c1.17 0 2.13.99 2.13 2.2ZM43 31.2v1.15l-2 .4V31H31v9h10v-3h-5v-2h7v4.8C43 41 41.97 42 40.7 42h-9.4c-1.27 0-2.3-.99-2.3-2.2v-8.6C29 30 30.03 29 31.3 29h9.4c1.27 0 2.3.99 2.3 2.2Z" fill="#fff" /><path fill-rule="evenodd" d="M23.84 29H13v13h2v-5h3.69l5.16 5H27l-5.17-5h2.01c1.2 0 2.16-1 2.16-2.24v-3.52A2.2 2.2 0 0 0 23.84 29Zm-.72 2H15v4h8.12c.48 0 .88-.34.88-.75v-2.5c0-.41-.4-.75-.88-.75Z" fill="#fff" /><defs><linearGradient id="awlxrvcr5" x1="10.42" y1="9.71" x2="68.15" y2="76.02" gradientUnits="userSpaceOnUse"><stop stop-color="#1A1E21" /><stop offset="1" stop-color="#06060A" /></linearGradient></defs></svg>