<!-- by TradeStack --><svg width="56" height="56" viewBox="0 0 56 56" xmlns="http://www.w3.org/2000/svg"><path fill="#F0F3FA" d="M0 0h56v56H0z"/><path fill-rule="evenodd" d="M43 13H13v30h30V13Zm-3 3H16v24h24V16Z" fill="#88BF32"/><path fill-rule="evenodd" d="M23.15 22c-1.57.02-3.03.14-3.56.2v10.58c5.84.83 7.9-.8 7.92-3.02.02-1.78-1.43-2.58-2.16-2.76.62-.02 1.82-.98 1.82-2.22 0-2.15-2.06-2.8-4.02-2.78Zm1.56 3c-.02-1.33-1.81-1.3-2.71-1.12v2.44c.91.11 2.73 0 2.71-1.32ZM22 28.16c.98-.21 2.93-.24 2.95 1.35.03 1.58-1.96 1.7-2.95 1.57v-2.92Z" fill="#1B3400"/><path d="M33.8 22c1.54.02 2.56.44 2.87.65l-.55 1.87c-1.1-.58-5.95-1.3-5.95 3 0 3.6 2.99 3.7 4.4 3.3V29H33v-2h4v5.37c-.35.2-1.48.61-3.2.63-2.17.02-6.07-.46-6.15-5.3-.07-4.85 4.2-5.72 6.14-5.7Z" fill="#1B3400"/></svg>