<?xml version='1.0' encoding='utf-8'?>
<!-- by TradeStack -->
<svg width="56" height="56" viewBox="0 0 56 56" xmlns="http://www.w3.org/2000/svg"><path fill="#F0F3FA" d="M0 0h56v56H0z" /><path d="M10 30v-4h1.58c.8 0 1.28.45 1.28 1.15 0 .85-.55 1.24-1.2 1.24l.1-.08h.1c.15 0 .28.04.4.11.12.08.22.2.29.38l.54 1.2h-.5l-.52-1.18c-.06-.17-.16-.28-.28-.32a1.22 1.22 0 0 0-.47-.08h-.86V30H10Zm.46-1.94h1.05c.6 0 .9-.42.9-.9 0-.47-.3-.73-.9-.73h-1.05v1.63ZM14.54 30v-4H15v4h-.46ZM18.48 30c-1.21 0-1.92-.8-1.92-2 0-1.14.71-2 1.9-2 .27 0 .52.04.72.13.21.08.4.2.56.36l-.17.36c-.12-.1-.24-.19-.35-.25a1.6 1.6 0 0 0-.77-.19c-.9 0-1.45.56-1.45 1.59s.5 1.6 1.49 1.6a2.63 2.63 0 0 0 1.01-.2l-.1.24v-1.27h-.99V28h1.38v1.7a3.35 3.35 0 0 1-1.31.28ZM21.46 30v-4h.45v1.78h2.33V26h.45v4h-.45v-1.83h-2.33V30h-.45ZM27.34 30v-3.56h-1.37V26h3.18v.44H27.8V30h-.45ZM31.58 30c-.31 0-.59-.04-.84-.12-.24-.08-.45-.2-.64-.35l.17-.37c.13.1.25.18.38.25a1.97 1.97 0 0 0 .93.19c.32 0 .57-.06.72-.19a.58.58 0 0 0 .24-.48c0-.18-.06-.3-.17-.4-.1-.1-.3-.17-.57-.22l-.58-.12c-.35-.07-.62-.2-.8-.36a.9.9 0 0 1-.25-.67c0-.24.06-.44.17-.61.12-.18.3-.31.5-.4a2.13 2.13 0 0 1 1.5-.02c.24.08.43.2.6.36l-.16.35a1.6 1.6 0 0 0-.55-.33 1.8 1.8 0 0 0-.63-.1c-.3 0-.54.06-.72.2a.63.63 0 0 0-.26.52c0 .18.06.33.17.43.1.1.29.18.54.23l.58.11c.38.08.65.2.83.35.17.16.26.37.26.65 0 .22-.06.4-.18.57-.1.17-.27.3-.48.4-.22.08-.47.13-.76.13Z" fill="#17366E" /><path d="M35.95 30c-1.2 0-1.95-.83-1.95-2s.76-2 1.95-2c.29 0 .55.04.78.13.23.08.43.2.6.37l-.18.36a1.72 1.72 0 0 0-1.2-.45c-.94 0-1.45.59-1.45 1.59s.5 1.59 1.45 1.59c.25 0 .46-.04.65-.11.18-.07.37-.19.55-.35l.18.37c-.17.16-.37.28-.6.37-.23.09-.49.13-.78.13ZM38.5 28c0-1.14.87-2 2.04-2 1.16 0 1.96.87 1.96 2s-.8 2-1.96 2a1.98 1.98 0 0 1-2.04-2Zm.5 0c0 1 .63 1.6 1.54 1.6.93 0 1.46-.74 1.46-1.6 0-1.01-.58-1.6-1.46-1.6-.9 0-1.54.59-1.54 1.6ZM44 30v-4h1.68c.87 0 1.32.47 1.32 1.16 0 .85-.58 1.17-1.24 1.17l.1-.08h.12c.16 0 .3.04.43.12.13.07.23.2.3.37L47.3 30h-.53l-.56-1.24c-.07-.17-.17-.28-.3-.32-.14-.05-.3-.08-.5-.08h-.91V30H44Zm.5-2h1.11c.64 0 .89-.36.89-.84 0-.47-.26-.78-.89-.78H44.5V28ZM49.01 30v-4h1.64c.86 0 1.35.46 1.35 1.17 0 .68-.48 1.21-1.35 1.21H49.5V30h-.49Zm.49-2h1.1c.6 0 .9-.37.9-.83 0-.47-.3-.8-.9-.8h-1.1V28Z" fill="#929294" /><path d="M9.5 30.33c-.33.1-.67.16-1.04.16A3.53 3.53 0 0 1 5 26.9c0-1.2.57-2.26 1.45-2.91A3.57 3.57 0 0 0 4 27.42 3.53 3.53 0 0 0 7.47 31c.76 0 1.46-.25 2.03-.67Z" fill="#959698" /><path d="M8.46 24.91a2.54 2.54 0 0 0-1.98 2.5c0 1.25.85 2.28 1.98 2.52a2.52 2.52 0 0 1-2.98-2.5 2.52 2.52 0 0 1 2.98-2.52Z" fill="#959698" /><path d="M9.2 25.39c-.97.12-1.73.99-1.73 2.03 0 1.04.76 1.9 1.74 2.03l-.25.02c-1.1 0-1.98-.92-1.98-2.05a2.02 2.02 0 0 1 2.23-2.03Z" fill="#959698" /></svg>