<!-- by TradeStack --><svg viewBox="0 0 56 56" xmlns="http://www.w3.org/2000/svg"><path fill="#F0F3FA" d="M0 0h56v56H0z"/><path fill-rule="evenodd" d="M36.3 16.5H35V15h-1v1.5h-1v1h1v3.8c0 1.02.6 1.71 1.64 1.7.38-.01.62-.08.76-.14l-.21-.91h-.03c-.08.02-.22.05-.38.05-.53 0-.78-.38-.78-.85V17.5h1.3v-1Zm4.12 2.17.97-.18a1.9 1.9 0 0 0-.68-1.08c-.34-.27-.81-.41-1.41-.41-.42 0-.79.07-1.1.22a1.8 1.8 0 0 0-.76.6c-.19.26-.28.56-.28.9 0 .41.12.76.37 1.02.25.27.63.47 1.15.6l.93.21c.27.06.46.16.59.28.13.12.2.28.2.46 0 .22-.11.41-.32.57-.21.15-.5.23-.85.23-.32 0-.59-.07-.79-.22-.2-.14-.33-.36-.4-.64l-1.04.16c.09.52.33.91.72 1.2.4.27.9.41 1.52.41.44 0 .84-.08 1.18-.23.34-.15.6-.37.8-.64.18-.27.28-.58.28-.93 0-.4-.12-.74-.37-1a2.32 2.32 0 0 0-1.14-.57l-.88-.21c-.3-.08-.53-.17-.67-.3a.59.59 0 0 1-.2-.46c0-.22.1-.4.3-.55.21-.14.46-.21.77-.21.22 0 .4.03.56.11.15.08.26.17.35.3.09.1.15.23.2.36ZM31 29.94c0 1.4.68 3.06 2.29 3.06.72 0 1.4-.41 1.71-1.04V33h1v-8h-1v2.93c-.32-.62-.97-.93-1.7-.93-1.64 0-2.3 1.54-2.3 2.94Zm4-.01c0 1.24-.55 2.07-1.48 2.07-.94 0-1.52-.81-1.52-2 0-1.17.56-2 1.52-2 .94 0 1.48.7 1.48 1.93ZM15 33v8h-1v-8h1Zm19.63 8c-.54 0-1.01-.12-1.4-.37-.4-.24-.7-.59-.91-1.04a3.67 3.67 0 0 1-.32-1.57c0-.6.1-1.12.32-1.58A2.38 2.38 0 0 1 34.56 35c.3 0 .6.05.9.16.3.11.56.28.79.51.23.23.41.54.55.9.13.37.2.82.2 1.35v.4h-3.93c.01.35.08.66.2.91.13.27.31.48.55.62.23.15.5.22.82.22.2 0 .39-.03.56-.1a1.2 1.2 0 0 0 .71-.73l1.02.2c-.08.3-.23.58-.44.82-.2.23-.47.42-.79.55-.3.13-.67.19-1.07.19Zm-1.38-4.23c-.1.22-.16.45-.18.7h2.88c0-.3-.06-.56-.18-.79a1.3 1.3 0 0 0-1.21-.75c-.3 0-.56.08-.79.24-.22.15-.4.35-.52.6Zm-6.75-7.29V33h-1v-6h1v1.04h.07a1.6 1.6 0 0 1 1.6-1.04c1.1 0 1.83.77 1.83 2.23V33h-1v-3.63c0-.86-.48-1.37-1.2-1.37s-1.3.53-1.3 1.48ZM30 35v3.52c0 .95-.58 1.48-1.3 1.48-.72 0-1.2-.51-1.2-1.37V35h-1v3.77c0 1.46.74 2.23 1.84 2.23.8 0 1.34-.41 1.59-1.04H30V41h1v-6h-1Zm-8.97-2c-1.05 0-2.03-.62-2.03-1.77 0-1.5 1.73-1.67 2.96-1.79l.36-.04c.23-.02.4-.07.5-.13.1-.06.18-.16.18-.3 0-.69-.64-1.06-1.32-1.06-.57 0-1.16.25-1.4.81l-1.1-.24c.4-1.07 1.4-1.48 2.49-1.48 1.27 0 2.33.7 2.33 2.02V33h-1v-.92h-.05c-.23.44-.92.92-1.92.92Zm.26-.9c.98 0 1.71-.64 1.71-1.32v-.75c-.12.12-.68.2-1.12.27l-.17.02c-.65.07-1.71.19-1.71.93 0 .62.75.84 1.29.84Zm-.9 4.4-.97.17c-.05-.13-.11-.25-.2-.37a.97.97 0 0 0-.35-.29 1.23 1.23 0 0 0-.56-.11c-.3 0-.56.07-.76.21-.2.14-.31.33-.31.55 0 .2.07.35.2.47.14.12.36.21.67.29l.88.21c.5.12.89.32 1.14.57.25.26.37.6.37 1 0 .35-.1.66-.29.93a1.9 1.9 0 0 1-.8.64c-.33.15-.73.23-1.17.23-.62 0-1.13-.14-1.52-.42-.4-.28-.63-.67-.72-1.19l1.04-.16c.07.28.2.5.4.64.2.15.47.22.79.22.35 0 .64-.08.85-.23.2-.16.31-.35.31-.57a.6.6 0 0 0-.2-.46 1.25 1.25 0 0 0-.58-.28l-.93-.22c-.52-.12-.9-.32-1.15-.59a1.47 1.47 0 0 1-.37-1.02c0-.34.1-.64.28-.9.18-.26.43-.46.75-.6.32-.15.7-.22 1.1-.22.6 0 1.08.14 1.42.4.34.28.57.64.68 1.1Zm4.03.17.97-.18a1.9 1.9 0 0 0-.68-1.08c-.34-.27-.81-.41-1.41-.41-.42 0-.79.07-1.1.22a1.8 1.8 0 0 0-.76.6c-.19.26-.28.56-.28.9 0 .41.12.76.37 1.02.25.27.63.47 1.15.6l.93.21c.27.06.46.16.59.28.13.12.2.28.2.46 0 .22-.11.41-.32.57-.21.15-.5.23-.85.23-.32 0-.59-.07-.79-.22-.2-.14-.33-.36-.4-.64l-1.04.16c.09.52.33.91.72 1.2.4.27.9.41 1.52.41.44 0 .84-.08 1.18-.23.34-.15.6-.37.8-.64.18-.27.28-.58.28-.93 0-.4-.12-.74-.37-1a2.32 2.32 0 0 0-1.14-.57l-.88-.21c-.3-.08-.53-.17-.67-.3a.59.59 0 0 1-.2-.46c0-.22.1-.4.3-.55.21-.14.46-.21.77-.21.22 0 .4.03.56.11.15.08.26.17.35.3.09.1.15.23.2.36Zm17.47-.18-.97.18c-.05-.13-.11-.25-.2-.37a.97.97 0 0 0-.35-.29 1.23 1.23 0 0 0-.56-.11c-.3 0-.56.07-.76.21-.2.14-.31.33-.31.55 0 .2.07.35.2.47.14.12.36.21.67.29l.88.21c.5.12.89.32 1.14.57.25.26.37.6.37 1 0 .35-.1.66-.29.93a1.9 1.9 0 0 1-.8.64c-.33.15-.73.23-1.17.23-.62 0-1.13-.14-1.52-.42-.4-.28-.63-.67-.72-1.19l1.04-.16c.07.28.2.5.4.64.2.15.47.22.79.22.35 0 .64-.08.85-.23.2-.16.31-.35.31-.57a.6.6 0 0 0-.2-.46 1.25 1.25 0 0 0-.58-.28l-.93-.22c-.52-.12-.9-.32-1.15-.59a1.47 1.47 0 0 1-.37-1.02c0-.34.1-.64.28-.9.18-.26.43-.46.75-.6.32-.15.7-.22 1.1-.22.6 0 1.08.14 1.42.4.34.28.57.64.68 1.1ZM29 19.44V23h-1v-8h1v2.97h.09c.25-.64.75-.97 1.58-.97 1.3 0 1.83 1.02 1.83 2.18V23h-1v-3.68c0-.7-.42-1.32-1.19-1.32-.81 0-1.31.68-1.31 1.44Zm-5.59 5.86c.31.12.69.19 1.12.19.47 0 .89-.08 1.26-.24.37-.16.66-.4.88-.74.22-.33.33-.76.33-1.27V17h-1v1.05h-.12c-.32-.62-.85-1.05-1.59-1.05-1.6 0-2.29 1.67-2.29 3.07 0 1.39.67 2.93 2.29 2.93.71 0 1.4-.37 1.71-1v1.19c0 .47-.2.81-.46 1.03-.26.21-.6.32-1 .32-.3 0-.53-.04-.72-.14-.19-.09-.33-.2-.44-.33-.1-.13-.2-.25-.26-.36l-.91.41a2.1 2.1 0 0 0 1.2 1.18ZM26 20.05c0 1.23-.55 1.99-1.48 1.99-.94 0-1.52-.8-1.52-1.99 0-.9.43-2.05 1.52-2.05.93 0 1.48.83 1.48 2.05ZM20 23v-6h1v6h-1Zm.52-6.66a.65.65 0 0 1-.47-.2.65.65 0 0 1-.2-.47c0-.18.07-.34.2-.47.13-.13.29-.2.47-.2s.34.07.47.2c.13.13.2.29.2.47 0 .19-.07.34-.2.48a.64.64 0 0 1-.47.2ZM14 15v8h1v-3h1.6l1.7 3h1.29l-1.87-3.26c.82-.4 1.28-1.2 1.28-2.23 0-1.57-1.24-2.51-2.52-2.51H14Zm1 4h1.37c1.12 0 1.63-.6 1.63-1.5s-.5-1.5-1.64-1.5H15v3Z"/></svg>