<?xml version='1.0' encoding='utf-8'?>
<!-- by TradeStack -->
<svg width="56" height="56" viewBox="0 0 56 56" fill="none" xmlns="http://www.w3.org/2000/svg">
<rect width="56" height="56" fill="url(#paint0_linear_4885_128347)" />
<path fill-rule="evenodd" clip-rule="evenodd" d="M8 37L10.5223 24.3503C13.2703 23.7425 18.8132 23.4933 19 27.3588C19 28.3617 18.4115 30.4905 16.0573 30.9828C16.4232 31.2183 17.1783 32.1179 17.2718 33.8319C17.3652 35.5459 17.6065 36.6581 17.7155 37H14.8662L14.3991 33.376C14.2979 32.9582 13.8947 32.0912 13.0913 32H11.8301L10.8259 37H8ZM12.9745 26.356C13.9243 26.1737 16.0573 26.1858 16.0573 27.7463C16.0573 29.866 13.1847 29.9572 12.2739 29.866L12.9745 26.356Z" fill="white" />
<path d="M21.9884 24H24.8409L22.3092 37H19.4567L21.9884 24Z" fill="white" />
<path fill-rule="evenodd" clip-rule="evenodd" d="M28.2687 36.3722C31.2746 37.9179 35.3045 36.511 37.2698 33.2297C39.2351 29.9484 38.3915 26.0354 35.3855 24.4897C32.3796 22.944 28.3497 24.3509 26.3844 27.6322C24.4191 30.9135 25.2627 34.8266 28.2687 36.3722ZM30.4276 34.5157C32.127 35.0217 34.137 33.6089 34.917 31.36C35.697 29.1111 34.9517 26.8777 33.2522 26.3717C31.5527 25.8656 29.5427 27.2785 28.7627 29.5274C27.9827 31.7763 28.7281 34.0096 30.4276 34.5157Z" fill="white" />
<path d="M45.4924 28.9555C47.1691 28.745 47.3637 29.6195 47.2515 30.0831C47.8503 30.0831 48 29.5819 48 29.3313C47.2515 26.3545 41.7248 26.8632 39.055 27.4896C40.3275 26.9634 46.2784 21.8517 47.2515 20.0475C48.2245 18.2434 47.2515 16.2513 44.4445 16.0258C41.6375 15.8003 38.3813 17.1158 37.7825 17.4165C37.3034 17.6571 36.8843 17.7172 36.7346 17.7172C36.525 18.8598 37.7451 20.0726 38.3813 20.5362C41.5252 18.3411 44.1575 18.1432 45.0807 18.3186C44.2723 19.8521 38.7806 25.247 36.1357 27.7527C35.1477 28.8653 33.6531 29.5945 33.0293 29.82C32.7898 30.722 34.0773 31.6492 34.7509 32C39.6164 29.632 43.3965 29.2186 45.4924 28.9555Z" fill="#B58F16" />
<defs>
<linearGradient id="paint0_linear_4885_128347" x1="10.4178" y1="9.71163" x2="68.1465" y2="76.0166" gradientUnits="userSpaceOnUse">
<stop stop-color="#1A1E21" />
<stop offset="1" stop-color="#06060A" />
</linearGradient>
</defs>
</svg>