<!-- by TradeStack --><svg width="56" height="56" viewBox="0 0 56 56" xmlns="http://www.w3.org/2000/svg"><path fill="url(#a)" d="M0 0h56v56H0z"/><path d="M4 34V22h5.5c1.56 0 3.5.4 3.5 4 0 2.88-2.38 4-3.5 4l2.94 4h-1.56L7.5 29h2c1.8 0 2.5-2.2 2.5-3 0-1.92-1-3-2.5-3H5v11H4ZM15 22h1v12h-1zM20.11 22H19l5 12 5-12h-1.11L24 31l-3.89-9Z" fill="#FFFEFF"/><path d="M27 22h-1.33L23 27.73l.67 1.27L27 22ZM31 22h6v1h-6zM31 27.5h6v1h-6v-1ZM31 33h6v1h-6zM40.5 22H39l4.5 5 1-.5-4-4.5ZM52 22h-1.5L39 34h1.5l5-5 5 5H52l-5.9-6 5.9-6ZM38 34.5v.5h14v-.5H38ZM4 21v.5h25V21H4Z" fill="#FFFEFF"/><defs><linearGradient id="a" x1="10.42" y1="9.71" x2="68.15" y2="76.02" gradientUnits="userSpaceOnUse"><stop stop-color="#1A1E21"/><stop offset="1" stop-color="#06060A"/></linearGradient></defs></svg>