<?xml version='1.0' encoding='utf-8'?>
<!-- by TradeStack -->
<svg width="56" height="56" viewBox="0 0 56 56" xmlns="http://www.w3.org/2000/svg"><path fill="url(#atd1ld22d)" d="M0 0h56v56H0z" /><path d="M14 29H7v6h13l-6-6ZM29 29h-7v6h13l-6-6ZM24 21h-2v6h7l6-6h-2.5l-4 4H24v-4ZM44 29h-7v6h13l-6-6Z" fill="#EBCB06" /><path fill-rule="evenodd" d="M7 27h11.5l1.5-2v-2l-1.5-2H7v6Zm10.5-2c.17-.17.5-.6.5-1s-.33-.83-.5-1H9v2h8.5ZM37 27h11.5l1.5-2v-2l-1.5-2H37v6Zm10.5-2c.17-.17.5-.6.5-1s-.33-.83-.5-1H39v2h8.5Z" fill="#EBCB06" /><defs><linearGradient id="atd1ld22d" x1="10.42" y1="9.71" x2="68.15" y2="76.02" gradientUnits="userSpaceOnUse"><stop stop-color="#1A1E21" /><stop offset="1" stop-color="#06060A" /></linearGradient></defs></svg>