<?xml version='1.0' encoding='utf-8'?>
<!-- by TradeStack -->
<svg width="56" height="56" viewBox="0 0 56 56" xmlns="http://www.w3.org/2000/svg"><path fill="url(#a2bfrhhec)" d="M0 0h56v56H0z" /><path d="M22 31.22c-1.1 0-1.99-.98-1.99-2.2 0-1.2.9-2.17 2-2.17s2 .93 2 2.16c0 1.26-.9 2.21-2 2.21ZM22 25c-2.35 0-4 1.8-4 4.01V36h2v-3.85c.59.6 1.37.9 2.28.9 2.06 0 3.72-1.81 3.72-4.04 0-2.2-1.65-4.01-4-4.01ZM40.86 25l-1.97 6.03L36.93 25h-2.1l2.97 8h2.17l2.96-8h-2.07ZM47.06 31.19c-1.12 0-2.02-.94-2.02-2.15 0-1.26.9-2.2 2.02-2.2s2.02.98 2.02 2.2c0 1.18-.9 2.15-2.02 2.15Zm0-6.19A3.96 3.96 0 0 0 43 29.02c0 2.2 1.7 3.98 3.78 3.98.95 0 1.62-.33 2.22-.96V33h2v-3.98A3.87 3.87 0 0 0 47.06 25ZM29 29.65V27h1.47v-2H29v-2h-2v2h-2a3.8 3.8 0 0 1 1.37 2H27v2.63c0 2.18 1.23 3.59 3.56 3.34v-1.85c-1.02.06-1.56-.36-1.56-1.47Z" fill="#fff" /><path fill-rule="evenodd" d="M11 31a4 4 0 1 0 0-8 4 4 0 0 0 0 8Zm0 2a6 6 0 1 0 0-12 6 6 0 0 0 0 12Z" fill="#fff" /><path fill="#fff" d="M32 25h2v8h-2z" /><circle cx="33" cy="23" r="1" fill="#fff" /><defs><linearGradient id="a2bfrhhec" x1="0" y1="28" x2="56" y2="28" gradientUnits="userSpaceOnUse"><stop stop-color="#003454" /><stop offset="1" stop-color="#08C7FD" /></linearGradient></defs></svg>