<?xml version='1.0' encoding='utf-8'?>
<!-- by TradeStack -->
<svg width="56" height="56" viewBox="0 0 56 56" xmlns="http://www.w3.org/2000/svg"><path fill="#F0F3FA" d="M0 0h56v56H0z" /><path d="M37 34.92c-1.01.7-3.82 2.1-6.95 2.1-5.6-.4-7.05-4.56-7.05-7.52 0-.53.04-1.03.12-1.45-4.6-.65-3.17 5.48-1.92 8.63.45.77 2.42 2.32 6.67 2.32 4.26 0 7.86-2.72 9.13-4.08Z" fill="url(#a)" /><path d="M39 15.2c0-3.47-4.79-6.24-7.18-7.2.97.75 2.9 2.8 2.9 4.95 0 2.68-2.9 6.72-8.2 8.8-5.3 2.08-9.52 5.64-9.52 9.99 0 3.47 4.3 5.8 6.44 6.54-.81-.63-2.43-2.44-2.43-4.58 0-2.69 1.81-5.94 6.25-8.03 6-2.62 11.74-6.12 11.74-10.46Z" fill="url(#b)" /><path d="M36.12 10.5C37.7 11.79 39 13.4 39 15.2c0 4.35-5.73 7.85-11.74 10.47-4.44 2.08-6.25 5.34-6.25 8.03 0 2.06 1.5 3.8 2.33 4.5a8.37 8.37 0 0 1-4-5.83c0-2.62.28-5.22 8.48-9.47 8.2-4.25 9.02-6.27 9.02-8.78 0-1.44-.37-2.76-.72-3.61Z" fill="url(#c)" /><path d="M21.02 18.86c0-5.33 6.36-5.22 9.54-4.5-1.33 0-5.1.69-5.1 4.5 0 7.96 8.54 14.37 8.54 21 0 3.27-1 6.14-5.35 6.14C19.6 46 15.78 38.66 15 34.99c2.95 5.87 6.66 6.83 9.09 6.83 2.43 0 5.08-1.45 5.08-4.53 0-3.09-8.15-11.8-8.15-18.43Z" fill="url(#d)" /><path d="M25.94 45.77C18.83 44.48 15.7 38.27 15 34.99c2.95 5.87 6.66 6.83 9.09 6.83 2.38 0 4.97-1.4 5.07-4.35.3.83.55 2.03.55 3.5 0 2.94-.97 4.59-3.77 4.8Z" fill="url(#e)" /><path d="M25.15 14.2c-.93.91-1.97 2.5-1.97 4.75 0 3.7 2.04 6.93 5.2 11.91l.27.44c1.76 3.05 3.25 6.83 3.25 8.86 0 1.9-1.51 5.53-7.41 5.26 1.24.37 2.63.58 4.16.58C33 46 34 43.13 34 39.86c0-3.16-1.94-6.28-3.98-9.53-2.23-3.57-4.56-7.31-4.56-11.47 0-3.81 3.77-4.5 5.1-4.5a13.74 13.74 0 0 0-5.4-.15Z" fill="url(#f)" /><defs><linearGradient id="a" x1="37" y1="35.3" x2="20.59" y2="32.04" gradientUnits="userSpaceOnUse"><stop stop-color="#B32A31" /><stop offset="1" stop-color="#752529" /></linearGradient><linearGradient id="b" x1="32.9" y1="8" x2="19.45" y2="36.13" gradientUnits="userSpaceOnUse"><stop stop-color="#AA1F29" /><stop offset="1" stop-color="#FF051C" /></linearGradient><linearGradient id="c" x1="33.55" y1="10.51" x2="21.07" y2="36.01" gradientUnits="userSpaceOnUse"><stop stop-color="#FF051C" /><stop offset="1" stop-color="#AA1F29" /></linearGradient><linearGradient id="d" x1="21.08" y1="15.29" x2="31.03" y2="43.19" gradientUnits="userSpaceOnUse"><stop stop-color="#00A2D7" /><stop offset=".56" stop-color="#00F4F9" /><stop offset="1" stop-color="#0362A4" /></linearGradient><linearGradient id="e" x1="29.71" y1="40.38" x2="15" y2="40.38" gradientUnits="userSpaceOnUse"><stop stop-color="#0060AA" /><stop offset="1" stop-color="#19398E" /></linearGradient><linearGradient id="f" x1="25.18" y1="13.99" x2="36.4" y2="44.7" gradientUnits="userSpaceOnUse"><stop stop-color="#1D3A8C" /><stop offset=".68" stop-color="#00F6F5" /><stop offset=".96" stop-color="#00B6DF" /></linearGradient></defs></svg>