<!-- by TradeStack --><svg width="56" height="56" viewBox="0 0 56 56" xmlns="http://www.w3.org/2000/svg"><path fill="#F0F3FA" d="M0 0h56v56H0z"/><path d="M29 18.02H16.53a9.34 9.34 0 0 0-5.76 1.9 9.55 9.55 0 0 0-1.9 13.27 9.38 9.38 0 0 0 16.51-2.8l.04-.12v-.02L28.9 18" fill="#CF232C"/><path d="M29.64 33h-2.25v-6h1.57c.3 0 .55.02.75.04.21.02.42.06.6.14.2.05.37.15.48.25.11.12.2.25.28.45.08.17.12.4.12.66 0 .56-.17.97-.5 1.27.35.13.61.33.78.54.17.23.25.53.25.9 0 .33-.06.62-.2.85-.1.24-.28.43-.48.55-.21.12-.44.21-.67.27a4.3 4.3 0 0 1-.73.08Zm-.25-5.08h-.94v1.48h1.04c.19 0 .36-.06.49-.16s.2-.3.2-.55c0-.29-.07-.48-.2-.6-.12-.12-.32-.17-.59-.17Zm.17 2.35h-1.11v1.81h1.04c.36 0 .64-.07.83-.21.19-.14.28-.37.28-.7 0-.6-.34-.9-1.04-.9ZM34.38 29.02l-.2.9h-.39a.94.94 0 0 0-.45.12c-.13.07-.28.16-.34.28V33h-1v-4h.98l.02.48a1.5 1.5 0 0 1 1.1-.48h.28v.02ZM38.5 32.2l-.09.8h-.38c-.45 0-.75-.16-.92-.46-.29.3-.72.46-1.29.46-.34 0-.62-.1-.85-.32a1.1 1.1 0 0 1-.34-.85c0-.26.08-.48.25-.67.17-.2.38-.34.64-.43.26-.08.51-.15.76-.2.24-.06.5-.08.72-.08a.73.73 0 0 0-.21-.5c-.12-.1-.3-.14-.57-.14-.34 0-.7.11-1.13.3l-.1-.77c.51-.23 1-.34 1.51-.34 1 0 1.5.51 1.5 1.56v1.04c0 .29.03.46.09.52.04.07.15.1.3.1h.11v-.02Zm-1.5-.23v-.88c-.34.02-.65.09-.91.2-.27.12-.38.28-.38.49 0 .32.19.46.57.46.24.02.51-.07.72-.27ZM42.5 33h-1v-2.12c0-.74-.05-1.08-.67-1.08-.35 0-.6.1-.83.34V33h-1v-4h1v.3c.3-.2.56-.3.91-.3 1.28 0 1.59.62 1.59 1.87V33ZM46.98 33h-.95l-.02-.3c-.3.2-.64.3-1 .3-.63 0-1.11-.2-1.47-.6a2.1 2.1 0 0 1-.54-1.44c0-.57.19-.97.54-1.36.36-.4.86-.6 1.48-.6.37 0 .72.1.98.28V27h1v6h-.02Zm-1.9-3.2c-.32 0-.58.1-.77.34-.19.23-.28.42-.28.8 0 .38.1.68.28.9a.9.9 0 0 0 .76.34c.32 0 .57-.11.71-.33.15-.21.23-.52.23-.91 0-.38-.08-.59-.23-.82-.14-.21-.39-.32-.7-.32ZM48.9 33c-.62 0-1.08-.09-1.4-.28l.1-.82c.12.1.33.2.57.27.24.09.49.12.7.12.23 0 .38-.03.5-.12.09-.09.14-.2.14-.3 0-.14-.05-.27-.18-.34a2.62 2.62 0 0 0-.58-.23 2.5 2.5 0 0 0-.36-.1l-.31-.13a.68.68 0 0 1-.28-.2 1.73 1.73 0 0 1-.17-.26.79.79 0 0 1-.07-.37c0-.34.1-.62.35-.87.24-.25.61-.37 1.16-.37.24 0 .5.04.74.09.24.05.43.12.54.21l-.1.83a1.69 1.69 0 0 0-1.11-.42c-.2 0-.35.03-.48.1a.33.33 0 0 0-.2.32c0 .04 0 .07.03.1 0 .04.02.08.03.1l.06.07.1.07.1.05.14.06.13.03c.03.02.09.02.16.04l.17.03c.36.09.62.23.82.4.2.19.3.45.3.82 0 .73-.54 1.1-1.6 1.1Z" fill="#828A91"/><path d="M13.75 30h-1.21l-1.25-2H10v2H9v-6h2.27c1.42 0 2.14.85 2.14 2 0 .78-.41 1.33-1.06 1.73l1.4 2.27Zm-2.73-5H10v2h.99c.65 0 1.24-.25 1.24-1 0-.72-.58-1-1.2-1ZM17.66 28h-2.85c.05.41.2.52.47.72.25.21.53.31.85.31.21 0 .44-.04.7-.12.27-.08.5-.17.68-.29l.06 1.01c-.44.25-.93.37-1.48.37-.77 0-1.36-.25-1.77-.72a2.61 2.61 0 0 1-.63-1.79c0-.7.2-1.3.57-1.77.38-.47.9-.72 1.55-.72.57 0 1.04.19 1.4.58.36.39.55.88.55 1.52-.02.23-.06.65-.1.9Zm-1.23-1.68a.73.73 0 0 0-.6-.32c-.27 0-.5.11-.66.3-.17.16-.29.4-.34.7h1.8c0-.27-.06-.5-.2-.68ZM22 29.02l-.1.98h-.38c-.46 0-.8-.18-.96-.55-.3.37-.74.55-1.32.55-.36 0-.65-.12-.89-.39a1.5 1.5 0 0 1-.35-1.04c0-.33.1-.6.26-.84.16-.23.39-.41.66-.54.28-.12.54-.2.78-.26.25-.07.5-.09.71-.1-.01-.3-.07-.5-.2-.62-.1-.12-.31-.19-.59-.19-.35 0-.74.13-1.18.37l-.09-.96a3.23 3.23 0 0 1 1.57-.43c1.05 0 1.56.64 1.56 1.93v1.29c0 .35.02.55.08.63.05.08.15.13.31.13H22v.04Zm-1.59-.29v-1.09c-.35.02-.66.1-.92.25-.25.14-.4.35-.4.61 0 .4.2.58.59.58.27 0 .51-.13.73-.35Z" fill="#fff"/><path d="m23.63 29.06-.1.94h-.4c-.37 0-.66-.12-.85-.33a1.27 1.27 0 0 1-.28-.87V23h1v5.31c0 .36.13.55.2.63.03.08.18.12.43.12Z" fill="#fff"/></svg>