<!-- by TradeStack --><svg xmlns="http://www.w3.org/2000/svg" width="56" height="56"><path fill="url(#acywic1mh)" d="M0 0h56v56H0z"/><path fill-rule="evenodd" d="M20 18h4v9a11 11 0 01-11 11V25a7 7 0 017-7zm-10 7a10 10 0 0110-10h5a2 2 0 012 2v10a14 14 0 01-14 14h-1a2 2 0 01-2-2V25zm26-7h-4v9a11 11 0 0011 11V25a7 7 0 00-7-7zm10 7a10 10 0 00-10-10h-5a2 2 0 00-2 2v10a14 14 0 0014 14h1a2 2 0 002-2V25z" fill="#fff"/><defs><linearGradient id="acywic1mh" x1="28" y1="0" x2="28" y2="56" gradientUnits="userSpaceOnUse"><stop stop-color="#7CB734"/><stop offset=".86" stop-color="#77B3DD"/></linearGradient></defs></svg>