<!-- by TradeStack --><svg width="56" height="56" viewBox="0 0 56 56" xmlns="http://www.w3.org/2000/svg"><path d="M0 28a28 28 0 1 1 56 0 28 28 0 1 1-56 0Z" fill="#F0F3FA"/><path fill-rule="evenodd" d="M23.5 24h.5v8h-.5v-8ZM11 25h-1v5h5v-1h-4v-4Zm6 0h-1v5h1v-2h3v2h1v-5h-1v2h-3v-2ZM4 25h3.5a1.5 1.5 0 0 1 .12 3l1.32 2H7.79l-1.31-2H5v2H4v-5Zm1 1h2.5a.5.5 0 0 1 0 1H5v-1Zm21 1v2h.65v-.69h.55c.24 0 .44-.02.61-.08.17-.05.3-.13.39-.23a.5.5 0 0 0 .13-.34.5.5 0 0 0-.13-.34.85.85 0 0 0-.38-.24 1.87 1.87 0 0 0-.6-.08H26Zm.65 1h.45c.2 0 .55-.07.55-.34a.25.25 0 0 0-.06-.17c-.08-.1-.24-.15-.5-.15h-.44V28Zm2.1-1v2h.66v-.67h.52l.54.67h.72l-.62-.76c.33-.11.51-.33.51-.58a.53.53 0 0 0-.13-.36.83.83 0 0 0-.38-.22 1.98 1.98 0 0 0-.6-.08h-1.22Zm.66 1h.44c.38 0 .57-.15.57-.34 0-.2-.2-.32-.57-.32h-.44V28Zm5.06 0a.8.8 0 0 1-.19.54c-.12.15-.3.26-.52.34-.22.08-.46.12-.73.12-.28 0-.53-.04-.74-.12a1.2 1.2 0 0 1-.52-.34.8.8 0 0 1-.2-.54c0-.21.07-.4.2-.54.13-.15.3-.26.52-.34.21-.08.46-.12.74-.12.27 0 .51.04.73.12.22.08.4.19.52.34.13.15.2.33.2.54Zm-.66 0a.6.6 0 0 0-.1-.35.6.6 0 0 0-.27-.21 1.08 1.08 0 0 0-.41-.08c-.16 0-.3.03-.42.08a.6.6 0 0 0-.27.21.6.6 0 0 0-.1.35c0 .14.03.25.1.35.06.1.15.16.27.21.12.05.26.08.42.08.15 0 .3-.03.41-.08a.6.6 0 0 0 .27-.21.6.6 0 0 0 .1-.35ZM35 27v2h.65v-.68h.55c.23 0 .44-.03.6-.09.17-.05.3-.13.39-.23a.5.5 0 0 0 .13-.34.5.5 0 0 0-.13-.34.85.85 0 0 0-.38-.24 1.87 1.87 0 0 0-.6-.08H35Zm.65 1h.44c.13 0 .23-.03.31-.06a.4.4 0 0 0 .19-.11c.04-.05.06-.1.06-.17a.25.25 0 0 0-.06-.17.38.38 0 0 0-.19-.11 1.02 1.02 0 0 0-.31-.04h-.44V28Zm1.97 1v-2h2.09v.34h-1.43v.49h1.32v.34h-1.32v.5h1.43V29h-2.09Zm2.73-2v2H41v-.66h.54l.53.66h.72l-.62-.76c.33-.12.52-.35.52-.6a.48.48 0 0 0-.14-.34.83.83 0 0 0-.38-.22 1.98 1.98 0 0 0-.6-.08h-1.22Zm.65 1h.45c.38 0 .55-.15.55-.34 0-.2-.17-.32-.55-.32H41V28Zm1.9-.63V27h2.54v.37h-.95V29h-.64v-1.63h-.95ZM45.8 29h.65v-2h-.66v2Zm1.2 0v-2h2.09v.34h-1.43v.49h1.32v.34h-1.32v.5h1.44V29H47Zm4.18-1.6c.09.05.14.11.15.19h.63a.42.42 0 0 0-.15-.31.99.99 0 0 0-.4-.2 2.18 2.18 0 0 0-.6-.08c-.23 0-.43.02-.6.07-.18.05-.32.12-.43.21a.4.4 0 0 0-.14.3c0 .15.07.27.22.35.15.09.36.15.62.19l.33.05.29.06c.08.02.14.05.18.08.04.03.06.06.06.1 0 .05-.02.1-.07.13a.5.5 0 0 1-.19.08 1.3 1.3 0 0 1-.6 0 .55.55 0 0 1-.2-.1.24.24 0 0 1-.1-.16h-.63c0 .14.06.26.17.35.1.1.24.17.43.22.18.05.4.07.65.07s.47-.02.64-.07a.97.97 0 0 0 .41-.2c.1-.1.15-.2.15-.31a.36.36 0 0 0-.07-.22.58.58 0 0 0-.2-.16 1.34 1.34 0 0 0-.29-.12 2.85 2.85 0 0 0-.37-.08l-.27-.04a2.4 2.4 0 0 1-.35-.08.33.33 0 0 1-.11-.07.12.12 0 0 1-.03-.09c0-.04.01-.08.05-.11s.1-.06.17-.08c.08-.02.17-.03.27-.03a.9.9 0 0 1 .38.07Z" fill="#294250"/></svg>