<!-- by TradeStack --><svg width="56" height="56" viewBox="0 0 56 56" fill="none" xmlns="http://www.w3.org/2000/svg">
<rect width="56" height="56" fill="#F0F3FA"/>
<path d="M4 25H52V26H4V25Z" fill="#B7B9BC"/>
<path d="M4 32H52V31H4V32Z" fill="#B7B9BC"/>
<path fill-rule="evenodd" clip-rule="evenodd" d="M36 25C36 25 32.8922 18 27.2104 18C23.7975 18 19.3471 20.7309 15 25H19C21.8218 22.0078 25.2465 20 28.2781 20C32.7206 20 35.2183 25 35.2183 25H36ZM9.00197 32C8.29652 33.0101 7.61012 33.9518 7 35H12C12 35 12.7226 33.8296 13.9809 32C14 32 9.00197 32 9.00197 32Z" fill="#386AB3"/>
<path d="M6 30V27H9.60656C10.0018 27 10.5492 27.057 10.5492 27.5671V28.2805C10.5492 28.7952 10.0059 29 9.60656 29H9.05328L11 30H9.58607L7.88525 29H7V30H6ZM9.15574 27.5H7V28.5H9.15574C9.32474 28.5 9.60656 28.4923 9.60656 28.2622V27.7195C9.60656 27.4846 9.32384 27.5 9.15574 27.5Z" fill="#404041"/>
<path d="M12 30V27H16V27.5H13V28.1707H15V28.7442H13V29.5H16V30H12Z" fill="#404041"/>
<path d="M35 30V27H39V27.5H36V28.1707H38V28.7442H36V29.5H39V30H35Z" fill="#404041"/>
<path d="M19 27.5V28.1747H20.8442C21.3678 28.1747 22 28.2906 22 28.8795V29.2952C22 29.8825 21.3699 30 20.8442 30H18.9004C18.3768 30 18 29.8841 18 29.2952V29.2048L19 29V29.5H21V28.7349H19.1558C18.6322 28.7349 18 28.619 18 28.0301V27.7048C18 27.1277 18.62 27 19.1385 27H21.0303C21.5567 27 22 27.1274 22 27.7048L21 27.8494V27.5H19Z" fill="#404041"/>
<path d="M24 30V27H25V30H24Z" fill="#404041"/>
<path d="M27 30V27H28V29.5H30V30H27Z" fill="#404041"/>
<path d="M32 30V27H33V30H32Z" fill="#404041"/>
<path d="M40 30V27H40.6846L43.6722 28.753C43.8797 28.8614 43.917 28.9699 44.0415 29.0783C44.0207 28.8072 44 28.6265 44 28.5723V27H45V30H44.3154L41.2033 28.1386C41.0581 28.0482 41.0415 27.9578 40.9585 27.9036C40.9793 28.0301 40.9793 28.1205 41 28.1928C41 28.247 41 28.3193 41 28.3916V30H40Z" fill="#404041"/>
<path d="M49 27.5V30H48V27.5H46V27H51V27.5H49Z" fill="#404041"/>
</svg>
