<!-- by TradeStack --><svg width="56" height="56" viewBox="0 0 56 56" xmlns="http://www.w3.org/2000/svg"><path fill="url(#a4ayscvk1)" d="M0 0h56v56H0z"/><path d="M28 41C16.95 41 8 35.18 8 28s8.95-13 20-13 20 5.82 20 13-8.95 13-20 13Zm0-1.46c1.3 0 2.58-.08 3.8-.24-.53-.75-.94-1.27-1.23-1.58-1.3-1.4-2.96-1.72-4.83-1.72H14.82A25.2 25.2 0 0 0 28 39.54ZM16.99 22.08l-.42.92H16v-.82c0-.1-.12-.18-.2-.18h-.65c-.08 0-.15.09-.15.18v9.66c0 .09.07.16.15.16h.64c.09 0 .2-.07.21-.16V31h.57l.42.97c.03.03.07.03.1.03h9.68c.09 0 .16-.05.16-.14v-.04c4.81-.3 8.1-2.25 8.07-4.75-.03-2.5-3.26-4.54-8.07-4.84v-.04c0-.09-.07-.19-.16-.19H17.1c-.05 0-.08.05-.11.08Zm11-5.62c-3.17 0-6.16.66-8.77 1.54h5.66C33.82 18 41 21.93 41 27c0 3.18-2.82 5.98-7.18 7.6.47.17 1.06.44 1.45.67 1.2.72 2.2 1.5 3.02 2.34 4.99-2.07 8.27-5.6 8.27-9.61 0-6.38-8.3-11.54-18.56-11.54Z" fill="#fff"/><defs><linearGradient id="a4ayscvk1" x1="10.42" y1="9.71" x2="68.15" y2="76.02" gradientUnits="userSpaceOnUse"><stop stop-color="#1A1E21"/><stop offset="1" stop-color="#06060A"/></linearGradient></defs></svg>