<?xml version='1.0' encoding='utf-8'?>
<!-- by TradeStack -->
<svg width="56" height="56" viewBox="0 0 56 56" xmlns="http://www.w3.org/2000/svg"><path fill="#F0F3FA" d="M0 0h56v56H0z" /><path d="M32.5 14.5h-9L28 10l4.5 4.5Z" fill="#FFF200" /><path d="M32.5 23.5h-9L28 19l4.5 4.5ZM23.5 32.5h-9L19 28l4.5 4.5ZM32.5 32.5h-9L28 28l4.5 4.5ZM32.5 41.5h-9L28 37l4.5 4.5ZM41.5 32.5h-9L37 28l4.5 4.5Z" fill="#FDB813" /><path d="M23.5 23.5h-9L19 19l4.5 4.5Z" fill="#FFF200" /><path d="M14.5 23.5h9L19 28l-4.5-4.5ZM23.5 23.5h9L28 28l-4.5-4.5ZM32.5 23.5h9L37 28l-4.5-4.5ZM23.5 14.5h9L28 19l-4.5-4.5ZM23.5 32.5h9L28 37l-4.5-4.5Z" fill="#FFD503" /><path d="M23.5 41.5h9L28 46l-4.5-4.5ZM14.5 32.5h9L19 37l-4.5-4.5ZM32.5 32.5h9L37 37l-4.5-4.5Z" fill="#FFE800" /><path d="M14.5 32.5v-9L10 28l4.5 4.5ZM23.5 32.5v-9L19 28l4.5 4.5ZM23.5 23.5v-9L19 19l4.5 4.5ZM32.5 23.5v-9L28 19l4.5 4.5Z" fill="#FFDE00" /><path d="M32.5 23.5v-9L37 19l-4.5 4.5Z" fill="#FFD503" /><path d="M23.5 23.5v-9L28 19l-4.5 4.5ZM14.5 32.5v-9L19 28l-4.5 4.5ZM23.5 32.5v-9L28 28l-4.5 4.5ZM32.5 32.5v-9L37 28l-4.5 4.5Z" fill="#FFCB08" /><path d="M41.5 32.5v-9L46 28l-4.5 4.5Z" fill="#FFE800" /><path d="M32.5 41.5v-9L37 37l-4.5 4.5Z" fill="#FFDA00" /><path d="M23.5 41.5v-9L28 37l-4.5 4.5Z" fill="#FFCB08" /><path d="M32.5 32.5v-9L28 28l4.5 4.5Z" fill="#FFDE00" /><path d="M23.5 41.5v-9L19 37l4.5 4.5Z" fill="#FFDA00" /><path d="M32.5 41.5v-9L28 37l4.5 4.5ZM41.5 32.5v-9L37 28l4.5 4.5Z" fill="#FFDE00" /><path d="M41.5 23.5h-9L37 19l4.5 4.5Z" fill="#FFF200" /></svg>