<?xml version='1.0' encoding='utf-8'?>
<!-- by TradeStack -->
<svg width="56" height="56" viewBox="0 0 56 56" fill="none" xmlns="http://www.w3.org/2000/svg">
<rect width="56" height="56" fill="#F0F3FA" />
<path d="M11.0598 27H31.0001C30.9804 26.2952 30.9176 25.681 30.8141 25H11.3663C11.2225 25.6794 11.1194 26.2936 11.0598 27Z" fill="#A1906C" />
<path d="M11.7483 23H30.0591C29.879 22.288 29.6538 21.6736 29.3865 21H12.5633C12.2478 21.6709 11.975 22.2854 11.7483 23Z" fill="#A1906C" />
<path d="M13.4632 19H28.6931C28.314 18.275 27.884 17.6601 27.4077 17H14.952C14.4057 17.6544 13.9076 18.2695 13.4632 19Z" fill="#A1906C" />
<path d="M16.0001 16H25.5894C24.8897 15.2412 24.1218 14.6247 23.2953 14H18.7052C18.2436 14.2825 16.4891 15.32 16.0001 16Z" fill="#A1906C" />
<path d="M17.3973 41.44H22.901C23.8272 40.8285 24.6904 39.7714 25.4789 39H15.0456C15.7068 39.7538 16.6096 40.7087 17.3973 41.44Z" fill="#6E6D6D" />
<path d="M13.9809 37.76H26.9228C27.4447 37.1036 27.919 36.7285 28.3407 36H12.7579C13.1169 36.7235 13.526 37.0983 13.9809 37.76Z" fill="#6E6D6D" />
<path d="M12.0643 34H29.2335C29.5326 33.3281 29.7892 32.7137 30 32H11.4373C11.6024 32.7113 11.8125 33.3256 12.0643 34Z" fill="#6E6D6D" />
<path d="M11.1464 30H30.734C30.8643 29.32 30.9538 28.7058 31 28H11C11.0065 28.7043 11.0562 29.3184 11.1464 30Z" fill="#6E6D6D" />
<path d="M45 23H11.801C11.9091 22.662 12.0276 22.3286 12.156 22H44.645C44.7734 22.3286 44.8918 22.662 45 23Z" fill="#A1906C" />
<path d="M43.002 19H13.6883C13.908 18.6583 14.1397 18.3247 14.3827 18H42.3077C42.5506 18.3247 42.7823 18.6583 43.002 19Z" fill="#A1906C" />
<path d="M16.1351 16H40.5553C40.1986 15.6511 39.8267 15.3174 39.4406 15H17.2497C16.8636 15.3174 16.4917 15.6511 16.1351 16Z" fill="#A1906C" />
<path d="M20.2785 13H36.4118C35.667 12.6131 34.8902 12.2782 34.0864 12H22.6039C21.8001 12.2782 21.0233 12.6131 20.2785 13Z" fill="#A1906C" />
<path d="M12.0346 34C11.9138 33.6712 11.8028 33.3378 11.7021 33H45C44.8993 33.3378 44.7765 33.6712 44.6556 34H12.0346Z" fill="#6E6D6D" />
<path d="M14.1489 38C13.9171 37.6748 13.6965 37.3413 13.4876 37H43.2027C42.9938 37.3413 42.7732 37.6748 42.5414 38H14.1489Z" fill="#6E6D6D" />
<path d="M18.035 42C17.6278 41.6494 17.3481 41.4027 16.945 41H39.8187C39.4145 41.3521 38.9936 41.6858 38.5573 42H18.035Z" fill="#6E6D6D" />
<path d="M21.7522 44C21.0399 43.7109 20.3514 43.3763 19.6904 43H36.9999C36.3389 43.3763 35.6504 43.7109 34.9381 44H21.7522Z" fill="#6E6D6D" />
</svg>