<?xml version='1.0' encoding='utf-8'?>
<!-- by TradeStack -->
<svg width="56" height="56" viewBox="0 0 56 56" xmlns="http://www.w3.org/2000/svg"><path fill="#F0F3FA" d="M0 0h56v56H0z" /><path d="M27.45 11v.07c0 .04.03.06.07.06l1-.07c.04 0 .06 0 .08.02.08.06.14.08.19.09 6.13.4 11.24 3.65 14.13 9.11-.05.2-.15.23-.29.11a16 16 0 0 0-14.38-8.85 16.54 16.54 0 0 0-16.62 18.92c.2 1.3.6 2.68 1.24 4.16a10.95 10.95 0 0 0 2.29 3.53.08.08 0 0 0 .08-.07l-.01-.05c-.14-.21-.34-.35-.48-.57-.13-.2-.34-.52-.66-.95a8.54 8.54 0 0 1-.86-1.78c-.02-.04 0-.06.04-.05.05 0 .09.04.12.1a17.74 17.74 0 0 0 5.08 6.08c1.9 1.38 4 2.31 6.3 2.79.1.2.28.3.52.34 1.18.19 2.34.27 3.48.25.52-.01 1.13-.13 1.75-.2 1.02-.1 2.18-.41 3.47-.95.04-.01.05-.04.04-.08l-.03-.15 1.92-.96a15.34 15.34 0 0 0 5.67-5.4l.2-.07a.16.16 0 0 0 .09-.08c.31-.57.72-1.16.98-1.68.48-.98.83-2 1.07-3.07 0-.05.03-.07.08-.05.13.06.23.17.3.35-1.66 7.63-8.6 12.73-16.17 12.84-5.09.08-9.71-2.07-13.05-5.93-.02-.02-.05 0-.09.06a16.67 16.67 0 0 1-3.83-13.2A17.28 17.28 0 0 1 27.45 11Z" fill="#BA9B40" /><path d="M27.45 11c12.66-.27 21.53 12.92 15.74 24.59C37.7 46.63 22.94 48.25 15 38.87c.04-.06.07-.08.09-.06 3.34 3.86 7.96 6 13.05 5.93 7.57-.11 14.51-5.2 16.17-12.84a16.82 16.82 0 0 0-15.52-20.74.39.39 0 0 1-.19-.08.12.12 0 0 0-.07-.02l-1.01.07c-.04 0-.06-.02-.06-.06V11Z" fill="#5C4522" /><path d="M37.6 14.67c-.05.07-.1.09-.14.06a15.1 15.1 0 0 0-3.85-2.02c-.5-.18-1.08-.3-1.63-.45-2.87-.83-6.1-.63-8.93.25a16.12 16.12 0 0 0-11.06 18.66c.15.62.25 1.28.46 1.86a33.5 33.5 0 0 0 .59 1.5l-.03.06c-.04.05-.08.06-.14.03a16.66 16.66 0 0 1-1.24-4.16 16.54 16.54 0 0 1 16.62-18.92 16 16 0 0 1 9.34 3.13Z" fill="#7C5B2A" /><path d="M37.6 14.67a16.92 16.92 0 0 1 5.03 5.72c.14.12.24.09.29-.1a16.62 16.62 0 0 1 1.39 11.61c-.07-.18-.17-.3-.3-.35-.05-.02-.07 0-.09.05a13.5 13.5 0 0 1-1.06 3.07c-.26.52-.67 1.11-.98 1.68a.16.16 0 0 1-.1.08l-.19.07A16.04 16.04 0 0 0 40.53 18l-1.21-1.43c-.03-.04-.06-.04-.1 0a.13.13 0 0 0-.03.08 2.24 2.24 0 0 1-.24-.21c-.66-.67-1.5-1.37-2.32-1.82-.8-.42-1.48-.91-2.32-1.25a15.8 15.8 0 0 0-4.18-1.1c-.24-.03-.5-.13-.73-.14-1.1-.03-2.46-.03-3.59.13-6.62.94-12.52 6.23-13.58 13.05-.36 2.14-.33 4.33.26 6.43 1 3.64 3.04 6.62 6.12 8.93-.07 0-.11.08-.14.2a17.73 17.73 0 0 1-5.08-6.08c-.03-.06-.07-.1-.13-.1-.04 0-.05 0-.03.05.32.84.6 1.43.86 1.79.31.42.53.74.66.94.14.22.34.36.48.57a.08.08 0 0 1-.02.1.08.08 0 0 1-.1 0c-.99-.98-1.7-2.25-2.24-3.51.06.03.1.02.14-.03a.12.12 0 0 0 .02-.12c-.2-.48-.4-.96-.58-1.44-.21-.58-.3-1.24-.46-1.86A16.12 16.12 0 0 1 23.05 12.5a16.04 16.04 0 0 1 8.93-.25c.54.15 1.13.27 1.63.45a15.1 15.1 0 0 1 3.85 2.02c.04.03.08 0 .13-.06Z" fill="#AC8D44" /><path d="m34.32 13.36-.04.08c-.02.04-.05.05-.1.04a16.31 16.31 0 0 0-12.2.04 8.85 8.85 0 0 0-1.76.94.11.11 0 0 0 .05.15c.24.1.37.26.4.5a15.26 15.26 0 0 0-6.34 7.04c-.2.13-.35.12-.46-.04-.03-.04-.03-.1 0-.16a.07.07 0 0 0 0-.07.07.07 0 0 0-.05-.04c-.1-.02-.15-.08-.17-.18a.05.05 0 0 0-.03-.04.05.05 0 0 0-.05.03c-.52 1.14-.9 2.32-1.13 3.56-.01.04-.04.07-.07.1-.06.03-.1.02-.14-.01 1.06-6.82 6.97-12.1 13.58-13.05 1.13-.16 2.5-.16 3.6-.13.22.01.49.11.72.14 1.44.17 2.83.54 4.19 1.1Z" fill="#D8B74C" /><path d="M34.31 13.36c.84.34 1.52.83 2.32 1.25.83.45 1.66 1.15 2.32 1.82l.24.2 1.27 1.45a16.37 16.37 0 0 1 1.65 16.98c.15-.33-.05-.54-.6-.61a.08.08 0 0 1-.07-.08v-.04c.81-1.67 1.27-3.44 1.4-5.32 0-.05-.02-.08-.05-.08-.03 0-.07 0-.12.03.12-2.74-.34-5.63-1.74-8.03-.23-.5-.52-.97-.87-1.41a11.9 11.9 0 0 0-2.29-2.6l-.7-.55a14.65 14.65 0 0 0-16.4-1.27c-.03-.23-.16-.4-.4-.5a.11.11 0 0 1-.06-.09.11.11 0 0 1 .04-.1c.53-.35 1.1-.65 1.73-.9 4.07-1.59 8.13-1.6 12.2-.03.05.01.08 0 .1-.04l.03-.08Z" fill="#BA9B40" /><path d="M37.07 16.37c0 .02-.03.04-.08.05a15.16 15.16 0 0 0-8.32-2.98c-2.76-.1-5.35.51-7.74 1.8a14.78 14.78 0 0 0-6.73 7.83 14.69 14.69 0 0 0 2.14 13.79c.03.04 0 .07-.08.1a14.27 14.27 0 0 1-1.93-14.81c1.35-3 3.46-5.36 6.33-7.05a14.65 14.65 0 0 1 16.4 1.27Z" fill="#5C4522" /><path d="m28.67 13.44-.22.04c-.02 0-.03.02-.02.05.02.06.01.1-.03.16a.14.14 0 0 0-.04.1c.03.43.16 1.76-.25 1.93-.04.01-.04.04-.02.06.05.04.05.07.01.1-.22-.22-.5-.29-.84-.2-.05 0-.07.04-.07.08l.02.97c0 .06.04.1.1.1l.44.04-.03.77c-1.57.05-3.04.43-4.4 1.14-.05-.24-.2-.43-.47-.58.13-.77-.14-1.1-.8-.98-.13-.28-.22-.54-.4-.8a5.06 5.06 0 0 1-.58-1.01.27.27 0 0 0-.07-.1l-.07-.07c2.4-1.29 4.98-1.9 7.74-1.8Zm-1.8 3.27c0 .08.02.14.08.17a.09.09 0 0 0 .12-.06v-.05l-.46-.95a.14.14 0 0 0-.15-.08.14.14 0 0 0-.12.11l-.22 1.07a.06.06 0 0 0 .03.07h.08a.06.06 0 0 0 .06-.04l.06-.29a.28.28 0 0 1 .3-.22c.06 0 .12.04.16.09.05.05.06.11.06.18Zm-1.78.3a.41.41 0 0 1-.36.17.08.08 0 0 0-.08.05c-.03.05-.01.1.04.12.04.03.08.03.13.02.24-.06.55-.3.38-.56-.12-.18-.36-.2-.55-.25a.13.13 0 0 1-.07-.2.13.13 0 0 1 .06-.05l.29-.12a.05.05 0 0 0 .03-.04v-.03l-.03-.02c-.2-.13-.53.17-.54.36a.23.23 0 0 0 .15.22l.52.2a.08.08 0 0 1 .05.05.08.08 0 0 1-.02.07Zm-1.02-.62a.08.08 0 0 0-.07-.05h-.03l-.02.01a.07.07 0 0 0-.04.04.08.08 0 0 0 0 .06l.36.99.02.02a.08.08 0 0 0 .05.03h.03l.02-.02a.08.08 0 0 0 .05-.06v-.03l-.37-1Zm-1.05.72v-.06a.04.04 0 0 1 .06 0l.8.58a.1.1 0 0 0 .14 0 .1.1 0 0 0 .03-.14l-.4-.93c-.03-.06-.07-.07-.11-.01l-.03.03a.08.08 0 0 0-.03.04l.01.06.31.58a.05.05 0 0 1-.06.06l-.77-.52a.1.1 0 0 0-.16.07.1.1 0 0 0 0 .06l.43.94a.08.08 0 0 0 .08.05c.05 0 .07-.03.05-.06a3.5 3.5 0 0 0-.35-.75Z" fill="#9C813E" /><path d="M28.67 13.44c3.05.16 5.83 1.15 8.32 2.98l.68.58c.84.73 1.57 1.53 2.2 2.4a.27.27 0 0 1-.05.37l-.58.47c-.03.03-.04.02-.04-.02v-.05c0-.05-.02-.06-.06-.03-1 .71-1.62 1.27-2.98 2.01a9.68 9.68 0 0 0-8.44-4.51l.03-.77c.43-.16.55-.5.35-1 .04-.02.04-.05 0-.09-.03-.02-.03-.05 0-.06.42-.17.3-1.5.26-1.93 0-.04.01-.07.04-.1.04-.05.05-.1.03-.16 0-.03 0-.04.03-.05l.21-.04Zm1.54 2.77-.13.76a.09.09 0 0 0 .02.06.1.1 0 0 0 .06.04.09.09 0 0 0 .09-.04 5.85 5.85 0 0 0 .14-1.05.14.14 0 0 0-.1-.14.14.14 0 0 0-.17.07l-.35.64a.04.04 0 0 1-.04.02.04.04 0 0 1-.03-.03l-.19-.76a.1.1 0 0 0-.18 0l-.26 1.03c0 .04 0 .07.05.08.05.01.08 0 .1-.06a10.1 10.1 0 0 0 .19-.72h.06l.02.04.09.7a.1.1 0 0 0 .07.09.1.1 0 0 0 .1-.05 8.12 8.12 0 0 0 .42-.72c.03 0 .04 0 .04.04Zm.48.7.2-.68c.01-.05.04-.07.09-.05l.3.09c.03 0 .05 0 .07-.03l.03-.06a.06.06 0 0 0-.03-.08l-.49-.13c-.07-.02-.11 0-.13.07l-.26.96v.04l.03.03.52.2a.05.05 0 0 0 .06-.01v-.02a.1.1 0 0 0 .01-.05 1.68 1.68 0 0 0-.04-.13l-.3-.05a.08.08 0 0 1-.06-.1Zm.82.31c.05-.28.13-.54.24-.8a.18.18 0 0 0 .02-.12.08.08 0 0 0-.07-.06.08.08 0 0 0-.08.06l-.32.92v.08a.1.1 0 0 0 .06.06l.4.14a.09.09 0 0 0 .1-.04.09.09 0 0 0-.01-.1.28.28 0 0 0-.26-.07c-.06.01-.08-.01-.08-.07Zm-.6-.6c.16.2.27.2.35 0a.12.12 0 0 0-.08-.15h-.06l-.17.04c-.07.02-.09.05-.04.1Zm1.7.03a.08.08 0 0 0-.04-.1h-.02c-.02-.02-.04-.02-.06 0a.08.08 0 0 0-.04.03l-.39.95a.08.08 0 0 0 .04.1l.03.01h.05c.02 0 .04-.02.04-.04l.4-.95Zm.25 1.34c.07.02.14.04.21.04.08 0 .15-.02.22-.06a.62.62 0 0 0 .18-.13.68.68 0 0 0 .16-.67.52.52 0 0 0-.28-.32.49.49 0 0 0-.2-.04.54.54 0 0 0-.22.05.62.62 0 0 0-.2.14.68.68 0 0 0-.15.66c.05.15.15.27.28.33Zm1.05-.06c.07.02.12.02.16 0a1.36 1.36 0 0 1-.08.65.06.06 0 0 0 .02.04.06.06 0 0 0 .04.02h.02l.02-.02.02-.02c.07-.14.1-.29.1-.44 0-.04.02-.06.05-.07.18-.03.29-.14.33-.33a.1.1 0 0 0-.03-.1l-.36-.34a.08.08 0 0 0-.07-.02.08.08 0 0 0-.06.04l-.59.89c-.02.03-.01.05.03.06h.04c.03.01.06 0 .08-.02l.28-.34Zm1.22.33c.02 0 .03.01.03.02l.02.04a.09.09 0 0 1-.01.07c-.16.23-.26.5-.3.78v.03c0 .02.02.02.03.03a.05.05 0 0 0 .06-.04l.36-.96a.13.13 0 0 0-.05-.15.13.13 0 0 0-.15 0c-.25.19-.52.38-.82.57-.05.03-.05.06-.01.1h.08a4.7 4.7 0 0 0 .7-.48h.06Z" fill="#B69445" /><path d="m20.93 15.24.07.07c.03.03.06.06.07.1.16.36.35.7.58 1.01.18.26.27.52.4.8-.61.61.12 1.52.8.98.26.15.42.34.47.58a9.98 9.98 0 0 0-3.92 3.84.07.07 0 0 0 .05.06h.04a.5.5 0 0 0 .32-.29c.16-.33.67-.88 1.04-1.37a7.24 7.24 0 0 1 2.11-1.59c.48.71.92 1.46 1.31 2.24.22.45.58.85.8 1.33.17.35.44.6.6.96.19.38.46.81.73 1.15.13.16.25.35.36.56-.11.25-.1.35.05.32L25.68 28a34.62 34.62 0 0 1-1.78-3.34.05.05 0 0 0-.05 0c-.01 0-.02 0-.02.02l-.03.06c-.03-.03-.05-.04-.07-.03-.05 0-.07.03-.08.08l-.15 1.16c-.45.03-1.55-.1-1.88-.45a1.27 1.27 0 0 0-.58-.34c-.83-.24-1.65-.49-2.47-.75-.23-.07-.45-.26-.67-.36-.29-.14-.57-.31-.83-.53.2-.4.35-.86.43-1.39 0-.03 0-.04-.04-.02l-.11.08-.02-.06c-.02-.03-.05-.04-.09-.01-.41.33-.74.7-.97 1.12a.85.85 0 0 1-.3.22.14.14 0 0 1-.13-.02c-.1-.06-.24-.03-.41.09-.06-.15-.12-.2-.2-.15l-.1-.06c-.1-.17-.64-.04-.93-.25a14.78 14.78 0 0 1 6.73-7.83Zm.47 2.57a.13.13 0 0 0-.14-.04.13.13 0 0 0-.04.02l-.31.26a.13.13 0 0 0-.02.19l.58.7a.13.13 0 0 0 .1.05.13.13 0 0 0 .08-.03l.31-.26a.13.13 0 0 0 .02-.19l-.58-.7Zm-1.01 1.72c.13.1.29.16.48.18h.01l.01-.02a.02.02 0 0 0 0-.03 9.46 9.46 0 0 0-1.16-.59.12.12 0 0 0-.09.04.12.12 0 0 0-.02.04.24.24 0 0 0 .02.2 14.63 14.63 0 0 1 .5.91h.04a.06.06 0 0 0 .02-.07l-.12-.3v-.06c0-.02.02-.04.03-.05a.34.34 0 0 0 .17-.22c.02-.06.05-.08.1-.03Z" fill="#D0AC4F" /><path d="M28.1 15.87c.2.5.08.84-.35 1l-.44-.04c-.06 0-.1-.04-.1-.1l-.02-.97c0-.04.02-.07.07-.08.34-.09.62-.02.84.2Zm-.72.06.02.66a.13.13 0 0 0 .08.12h.09a.52.52 0 0 0 .34-.13l.1-.15a.4.4 0 0 0 .03-.17v-.03a.4.4 0 0 0-.04-.17.44.44 0 0 0-.11-.14.49.49 0 0 0-.35-.12h-.04a.12.12 0 0 0-.11.08l-.01.05ZM30.17 16.17a8.14 8.14 0 0 1-.47.76.1.1 0 0 1-.12-.07l-.1-.71a.05.05 0 0 0-.04-.05l-.03.01-.02.03c-.05.25-.11.48-.17.7-.02.04-.05.06-.1.05-.04-.01-.06-.04-.05-.08l.26-1.03a.1.1 0 0 1 .1-.07.1.1 0 0 1 .08.07l.19.76v.02h.03a.04.04 0 0 0 .04-.01l.35-.64a.14.14 0 0 1 .16-.07.14.14 0 0 1 .1.14 5.85 5.85 0 0 1-.16 1.08.09.09 0 0 1-.14-.06.1.1 0 0 1 0-.03l.13-.76c0-.03 0-.04-.04-.04ZM26.87 16.71a.24.24 0 0 0-.22-.27.28.28 0 0 0-.3.22l-.06.29a.06.06 0 0 1-.06.04h-.05a.06.06 0 0 1-.06-.05v-.02l.22-1.07a.14.14 0 0 1 .12-.11.14.14 0 0 1 .15.08l.46.95a.09.09 0 0 1-.02.1.09.09 0 0 1-.1.01c-.06-.03-.09-.09-.08-.17Zm-.36-.66c-.1.08-.13.19-.08.34a.12.12 0 0 0 .2.03.12.12 0 0 0 .02-.08l-.04-.25c-.02-.06-.05-.07-.1-.04Z" fill="#5C4522" /><path d="M27.38 15.93a.13.13 0 0 1 .04-.1.12.12 0 0 1 .08-.03h.04a.52.52 0 0 1 .35.12c.04.04.08.09.1.14a.4.4 0 0 1 .05.17v.03a.4.4 0 0 1-.03.17.44.44 0 0 1-.1.15.52.52 0 0 1-.34.14h-.04a.12.12 0 0 1-.1-.04.12.12 0 0 1-.03-.09l-.02-.66Z" fill="#AC8D44" /><path d="m30.76 17.01.3.05.03.13a.1.1 0 0 1 0 .05l-.01.02a.05.05 0 0 1-.06.01l-.52-.2a.06.06 0 0 1-.03-.07l.26-.96c.02-.07.06-.1.13-.07l.49.13a.06.06 0 0 1 .04.03.06.06 0 0 1 0 .05l-.04.06c-.02.03-.04.03-.06.03l-.31-.1c-.05 0-.08 0-.1.06l-.19.68a.08.08 0 0 0 .07.1Z" fill="#5C4522" /><path d="m26.6 16.1.05.24c0 .03 0 .06-.02.08a.12.12 0 0 1-.07.05.11.11 0 0 1-.13-.08c-.05-.15-.02-.26.09-.34.04-.03.07-.02.09.04Z" fill="#AC8D44" /><path d="m25.06 16.88-.52-.2a.23.23 0 0 1-.15-.22c.01-.19.33-.49.54-.36l.02.02v.03a.05.05 0 0 1-.02.04l-.29.12a.13.13 0 0 0-.08.13.13.13 0 0 0 .09.12c.19.06.43.07.55.25.17.27-.14.5-.38.56a.15.15 0 0 1-.13-.02c-.05-.03-.07-.07-.04-.12a.08.08 0 0 1 .08-.05c.16 0 .28-.06.36-.18a.08.08 0 0 0 0-.1l-.03-.02ZM31.59 17.29c.1-.02.19 0 .26.06l.03.06a.09.09 0 0 1-.06.1h-.06l-.4-.15a.1.1 0 0 1-.06-.06.11.11 0 0 1 0-.08l.32-.92a.08.08 0 0 1 .08-.06l.04.02.03.04c0 .04 0 .08-.02.12-.1.26-.19.52-.24.8 0 .06.02.08.08.07ZM23.97 16.34l-.02.01a.08.08 0 0 0-.04.1l.36.99c.02.04.06.06.1.04h.02a.08.08 0 0 0 .04-.1l-.36-1a.08.08 0 0 0-.1-.04Z" fill="#5C4522" /><path d="m37.07 16.37.7.56c.02.05-.02.07-.1.07l-.68-.58c.05-.01.07-.03.08-.05Z" fill="#7C5B2A" /><path d="M30.9 16.62c-.04-.06-.02-.1.04-.11l.18-.05a.11.11 0 0 1 .14.1v.06c-.08.2-.2.2-.35 0ZM23.02 17.1c.14.23.26.48.35.76.02.03 0 .05-.05.06a.08.08 0 0 1-.08-.05l-.42-.94a.1.1 0 0 1 .02-.12.1.1 0 0 1 .13 0l.77.5a.05.05 0 0 0 .06 0 .05.05 0 0 0 0-.05l-.3-.58a.08.08 0 0 1-.02-.06c0-.02.02-.03.03-.04a.37.37 0 0 0 .03-.03c.04-.06.08-.05.1.01l.41.93a.11.11 0 0 1-.03.13.1.1 0 0 1-.13 0l-.8-.57h-.06a.04.04 0 0 0 0 .06ZM32.57 16.55h-.02a.08.08 0 0 0-.1.03l-.39.95c-.01.04 0 .09.04.1l.02.01c.04.02.09 0 .1-.04l.4-.95a.08.08 0 0 0-.05-.1Z" fill="#5C4522" /><path d="m40.53 17.99-.07.09-1.27-1.44c0-.04.02-.06.03-.08.04-.04.07-.04.1 0l1.21 1.43Z" fill="#9C813E" /><path d="M32.86 17.99a.52.52 0 0 1-.28-.33.68.68 0 0 1 .16-.66c.05-.06.12-.1.18-.14a.54.54 0 0 1 .22-.05.5.5 0 0 1 .2.04c.14.06.24.18.3.32.04.15.03.32-.04.47a.68.68 0 0 1-.13.2.62.62 0 0 1-.18.13.54.54 0 0 1-.22.06.49.49 0 0 1-.2-.04Zm.02-.17a.3.3 0 0 0 .14.04c.05 0 .1 0 .15-.03a.5.5 0 0 0 .15-.1.59.59 0 0 0 .18-.48c-.01-.06-.03-.1-.06-.15a.3.3 0 0 0-.24-.14c-.06 0-.1 0-.16.03a.5.5 0 0 0-.14.1.58.58 0 0 0-.19.48c.01.06.03.1.06.15a.3.3 0 0 0 .1.1Z" fill="#5C4522" /><path d="M37.77 16.93c.9.77 1.67 1.63 2.3 2.59.2.5.5.97.86 1.41a14.63 14.63 0 0 1 .66 12.59c-.2-.15-.37-.19-.52-.12-.02 0-.02 0-.02-.02a.8.8 0 0 0 0-.05c0-.03 0-.03-.03-.01l-.03.03c-.02.02-.04.02-.06 0l-.25-.25.4-.66c.04-.05.02-.08-.03-.08l-.07.03v-.06l-.05-.01c-.75-.07-1.27.5-1.68 1.04-.03.05-.12.09-.24.11.23-.6.3-1.38-.31-1.78-.01-.04-.06-.06-.15-.06 0-.04-.01-.07-.06-.08-.08-.01-.12 0-.14.06-.13.02-.21-.02-.27-.12a.33.33 0 0 0-.09-.1l-.22-.15a.25.25 0 0 0-.11-.05.8.8 0 0 1-.48-.23.21.21 0 0 0-.1-.06c-.82-.2-1.63-.47-2.41-.8-.45-.2-1.01.05-1.36-.3-.29-.3-.37-.45-.76-.36a.2.2 0 0 1-.13 0c-.4-.18-.75-.39-1.19-.49a8.08 8.08 0 0 1-.94-.27c-.3-.1-.57-.14-.88-.2v-2.72l.01-.05a.07.07 0 0 1 .12.03c.02.09.07.17.15.25 1 1.02 1.97 2.07 2.9 3.16.07.08.12.07.15-.03.02-.09.04-.2.03-.36 0-1.33.01-2.65.06-3.98 0-.05-.03-.08-.1-.08.03-.17.12-.3.29-.4.97-.58 1.94-1.2 2.88-1.85.02.06.09.13.2.2a.16.16 0 0 0 .25-.1c0-.03 0-.07-.02-.1l-.17-.3c1.36-.74 1.98-1.3 2.98-2.01.04-.03.06-.02.06.03v.05c0 .04.01.05.04.02l.58-.47a.27.27 0 0 0 .05-.37 13.89 13.89 0 0 0-2.2-2.4c.08 0 .12-.02.1-.07Zm.72 5.37-.07.16a.2.2 0 0 0-.01.12 3.21 3.21 0 0 0 1.18 1.98.06.06 0 0 0 .07-.05c.1-.93-.2-1.68-.91-2.24a.18.18 0 0 0-.12-.05h-.07c0-.06-.03-.1-.1-.12a.08.08 0 0 0-.06.01.08.08 0 0 0-.03.06c0 .07.04.11.12.13Zm2.16 1.15c-.05-.08-.11-.1-.17-.03a1.94 1.94 0 0 0-.47 1.81c0 .04.05.05.14.03l-.08.33a.1.1 0 0 0 .05.1.1.1 0 0 0 .11 0c.83-.64.73-1.33.55-2.26 0-.04-.03-.06-.07-.04-.02 0-.04.03-.06.06Zm-2.48 1.05a.1.1 0 0 0-.04.01c-.03.01-.04.04-.03.07.28.6 1.05 1.42 1.74 1.17.04-.01.05-.04.05-.08-.11-.54-.36-.88-.73-1.04a1.27 1.27 0 0 0-1.02-.25c-.06.01-.07.04-.03.08 0 .02.03.03.06.04Zm2.24 2.86c.93-.3 1.1-1.23.98-2.1 0-.04-.03-.05-.08-.02-.53.38-.8.9-.8 1.57 0 .18-.04.32-.17.42a.08.08 0 0 0 .02.13h.05Zm-1.84-1.48c.06.53.43.92.74 1.31.03.04.06.06.1.07l.6.11a.2.2 0 0 0 .2-.07.2.2 0 0 0 0-.21l-.52-.95c-.03-.04-.06-.05-.1-.03-.08.03-.15.03-.19.01.06-.1.04-.17-.07-.24-.27-.16-.52-.16-.76 0Zm3.1 1.12c-.16 0-.3.06-.44.16-.54.4-.66.85-.84 1.48l-.12-.04a.13.13 0 0 1-.09-.1c-.06-.3-.19-.59-.37-.84a.1.1 0 0 0-.07-.04l-.81-.16c-.06-.01-.08.01-.07.07.1.74.5 1.23 1.2 1.47.06.02.1 0 .12-.04l.14-.24c.01.05.05.1.12.11-.11.06-.1.12.03.16a.1.1 0 0 0 .06 0c.44-.12.77-.4 1-.82.14-.3.19-.68.13-1.17ZM39 28.97c-.13.84.18 1.36.94 1.58.07.02.12 0 .15-.09.01.03.05.04.11.04l-.03.06c0 .04.01.06.05.06.96.04 1.42-.92 1.53-1.73l-.01-.06h-.08c-.03-.06-.07-.08-.13-.06a2.14 2.14 0 0 0-1.24 1.35l-.19.17c-.05-.41-.17-1.31-.68-1.3 0-.12-.04-.19-.12-.2l-.07-.01a.95.95 0 0 0-.3-.08c-.05 0-.08.02-.08.07 0 .15.05.22.15.2Zm-.2 1.9c-.15.43.05.83.6 1.18a.12.12 0 0 0 .18-.06c.25-.8.08-1.36-.5-1.66-.05-.14-.14-.2-.3-.15a.13.13 0 0 0-.08.07c-.11.23-.08.43.1.61Zm1.07 1.2-.08.1a.07.07 0 0 0 0 .07.07.07 0 0 0 .06.04 1.9 1.9 0 0 0 1.68-1.61c0-.05-.01-.07-.06-.05a.19.19 0 0 0-.07.05.1.1 0 0 0-.01-.06c-.02-.03-.05-.04-.08-.02a.36.36 0 0 1-.25.07.2.2 0 0 0-.13.03c-.52.3-.89.72-1.11 1.28-.02.03 0 .06.02.08l.03.02Z" fill="#9C813E" /><path d="M32.78 17.23c-.12.22-.08.5.1.6.17.1.42 0 .55-.24.13-.22.09-.5-.1-.6-.17-.1-.42 0-.55.24Z" fill="#BA9B40" /><path d="M22.85 18.2c-.68.54-1.41-.37-.8-.98.66-.12.93.21.8.98Zm-.26-.02a.36.36 0 0 0 .16-.25.55.55 0 0 0-.18-.48.48.48 0 0 0-.14-.1.38.38 0 0 0-.16-.02.36.36 0 0 0-.31.3c-.02.11 0 .24.07.34.03.06.06.1.11.14.04.04.1.07.15.09.05.02.1.03.15.02.06 0 .1-.01.15-.04Z" fill="#5C4522" /><path d="M22.03 17.97c.12.22.38.32.56.21.18-.1.23-.37.1-.6-.13-.22-.38-.31-.57-.2-.18.1-.22.37-.1.6Z" fill="#BA9B40" /><path d="M34.07 17.92c.15.09.27.06.35-.08a.22.22 0 0 0-.05-.28.22.22 0 0 0-.28 0c-.06.04-.12.17-.18.37l-.28.34a.08.08 0 0 1-.08.03l-.04-.01c-.04 0-.05-.03-.03-.06l.6-.9a.08.08 0 0 1 .12 0l.36.34a.1.1 0 0 1 .03.09c-.04.19-.15.3-.33.33-.03 0-.05.03-.05.07a.97.97 0 0 1-.12.46.06.06 0 0 1-.1-.02.06.06 0 0 1 0-.05c.08-.2.1-.4.08-.63Z" fill="#5C4522" /><path d="M34.07 17.92c-.04.03-.1.03-.16.01.06-.2.12-.33.18-.38a.22.22 0 0 1 .36.14c0 .05 0 .1-.03.15-.09.14-.2.17-.35.08Z" fill="#BA9B40" /><path d="M27.72 17.64a9.68 9.68 0 0 1 8.44 4.51l.17.3a.16.16 0 0 1-.04.2.16.16 0 0 1-.19 0c-.11-.07-.18-.14-.2-.2a9.43 9.43 0 0 0-12.33-3.42c-.14.07-.34.2-.61.4-.59.33-1.61.93-2.1 1.6-.38.48-.89 1.03-1.05 1.36a.5.5 0 0 1-.33.3.07.07 0 0 1-.08-.07v-.04a9.98 9.98 0 0 1 3.92-3.8c1.36-.7 2.83-1.09 4.4-1.14ZM21.98 18.51a.13.13 0 0 1-.02.19l-.3.26a.13.13 0 0 1-.15.01.13.13 0 0 1-.04-.03l-.58-.7a.13.13 0 0 1 .02-.19l.3-.26a.13.13 0 0 1 .19.02l.58.7Zm-.52-.3a.1.1 0 0 0 .02-.1.1.1 0 0 0-.02-.04l-.14-.13a.1.1 0 0 0-.1-.02.1.1 0 0 0-.03.03l-.16.16a.1.1 0 0 0-.03.07.1.1 0 0 0 .03.07l.14.13a.1.1 0 0 0 .1.02.1.1 0 0 0 .04-.02l.15-.17Zm.19.14a.1.1 0 0 0-.07-.03.1.1 0 0 0-.07.03l-.15.15a.1.1 0 0 0-.03.06.1.1 0 0 0 .03.07l.15.16a.1.1 0 0 0 .07.03.1.1 0 0 0 .07-.03l.15-.14a.1.1 0 0 0 .02-.11.1.1 0 0 0-.02-.03l-.15-.16Z" fill="#7C5B2A" /><path d="m21.46 18.07-.14-.13a.1.1 0 0 0-.13 0l-.16.17a.1.1 0 0 0 0 .14l.14.13c.04.04.1.03.14 0l.15-.17a.1.1 0 0 0 0-.14Z" fill="#D0AC4F" /><path d="M27.4 18.01a.13.13 0 0 1-.07.03c-.03 0-.03.02 0 .03l.07.02c.04.01.05.04.03.08-.22.3.19 1.21.37 1.46l-.5 1.52a.1.1 0 0 1-.1.07c-.23 0-.67 0-1.33-.02-.14 0-.2.04-.16.13h-.05c-.06.01-.07.03-.02.07l1.33 1.03c-.25.46-.42.97-.5 1.54l-.1.15c-.01.03 0 .06.03.07h.06c.3.52.4 1 .3 1.48-.1-.21-.23-.4-.36-.56a5.77 5.77 0 0 1-.72-1.15c-.17-.36-.44-.61-.6-.96-.23-.48-.59-.88-.8-1.33-.4-.78-.84-1.53-1.32-2.24.27-.2.48-.33.61-.4 1.2-.6 2.48-.94 3.83-1.02Z" fill="#9C813E" /><path d="M27.4 18.01a9.43 9.43 0 0 1 8.5 4.44c-.95.65-1.9 1.27-2.88 1.85a.52.52 0 0 0-.28.4.1.1 0 0 1-.05.04c0-.1-.05-.14-.16-.12a.16.16 0 0 0-.14.17c.07 1 .07 2.04 0 3.1a49.61 49.61 0 0 1-2.98-3.14.4.4 0 0 0-.2-.1c0-.04-.02-.06-.03-.06a.09.09 0 0 0-.11.05 19.38 19.38 0 0 1-.15 3.83 1.71 1.71 0 0 0-.8-.44l-.42-3.53-.9 1.49c-.14.03-.15-.07-.04-.32.1-.47 0-.96-.3-1.48l1.36-1.03a.16.16 0 0 1 .2 0l1.41 1.07h.06a.04.04 0 0 0 .01-.05l-.55-1.75v-.05l.03-.04 1.4-1c.05-.04.05-.07 0-.1-.03-.01-.08 0-.13.04 0-.05 0-.07-.03-.07-.55.05-1.1.05-1.65 0a20.25 20.25 0 0 1-.53-1.6c-.06-.04-.09-.05-.1 0a.22.22 0 0 0-.14.02c-.18-.25-.6-1.16-.38-1.46.03-.04.02-.07-.02-.08l-.07-.02c-.03-.01-.03-.02 0-.03.03 0 .05-.02.07-.03Z" fill="#B69445" /><path d="M40.53 17.99A16.04 16.04 0 0 1 41.6 36.5a15.34 15.34 0 0 1-5.67 5.4l-1.92.96a16.84 16.84 0 0 1-9.23.79c-2.3-.48-4.4-1.4-6.3-2.79.03-.12.07-.2.14-.2a16.16 16.16 0 0 0 16.86 1.17 16 16 0 0 0 6.64-6.77c2.72-5.5 2-12.08-1.65-16.98l.07-.1Z" fill="#7C5B2A" /><path d="M35.13 18.26h-.05a4.71 4.71 0 0 1-.71.48.06.06 0 0 1-.08 0c-.04-.03-.04-.06 0-.09a13.2 13.2 0 0 0 .9-.6.13.13 0 0 1 .13.1v.08l-.36.96a.05.05 0 0 1-.06.04.05.05 0 0 1-.04-.06 1.83 1.83 0 0 1 .32-.82v-.03a.08.08 0 0 0-.05-.06Z" fill="#5C4522" /><path d="m21.51 18.35-.15.15a.1.1 0 0 0 0 .13l.15.16c.04.04.1.04.13 0l.16-.14a.1.1 0 0 0 0-.14l-.15-.16a.1.1 0 0 0-.14 0Z" fill="#D0AC4F" /><path d="M20.28 19.56a.34.34 0 0 1-.17.22.08.08 0 0 0-.04.05v.06l.13.3a.06.06 0 0 1-.03.07h-.04a14.54 14.54 0 0 0-.5-.91.24.24 0 0 1-.01-.2.12.12 0 0 1 .11-.08l.05.01a9.45 9.45 0 0 1 1.11.61.02.02 0 0 1-.02.02.92.92 0 0 1-.49-.18c-.05-.05-.08-.03-.1.03Zm-.14-.11-.3-.18c-.06-.04-.09-.03-.07.05.03.1.08.2.15.27.04.04.08.06.13.05.07 0 .1-.05.11-.14v-.03a.06.06 0 0 0-.02-.02Z" fill="#7C5B2A" /><path d="m20.14 19.45.02.02v.03c0 .09-.04.14-.11.14-.05 0-.09-.01-.13-.05a.54.54 0 0 1-.15-.27c-.01-.08 0-.1.07-.05l.3.18Z" fill="#E3C67C" /><path d="M40.06 19.52c.35.44.64.91.87 1.41a6.03 6.03 0 0 1-.87-1.41Z" fill="#7C5B2A" /><path d="m28.57 21.2-.05.07a.07.07 0 0 0 .02.1h.04c.56 0 1.13.1 1.67-.1.05-.03.1-.04.13-.02.05.02.05.05 0 .08l-1.4 1.01a.08.08 0 0 0-.03.04v.05l.55 1.75a.04.04 0 0 1-.04.06l-.03-.01-1.42-1.07a.16.16 0 0 0-.19 0l-1.36 1.03h-.06c-.04-.01-.04-.04-.02-.07l.1-.15c.32-.53.48-1.04.5-1.54l-1.34-1.03c-.05-.04-.04-.06.01-.06h.06c.23.1.46.01.67.03.27.02.95.1 1.08-.18.13-.28.3-.8.49-1.58 0-.05.03-.04.1 0l.03.08c.15.51.3 1.02.49 1.52Z" fill="#5C4522" /><path d="M27.8 19.63c.04-.02.1-.03.15-.02-.2.78-.36 1.3-.49 1.58s-.81.2-1.08.18c-.21-.02-.44.07-.67-.04-.04-.09.02-.13.16-.13a28.36 28.36 0 0 0 1.4 0 .1.1 0 0 0 .03-.05l.5-1.52ZM28.57 21.2c.54.06 1.1.06 1.64.01.03 0 .04.02.04.07-.54.19-1.11.08-1.68.1 0 0-.02 0-.03-.02a.07.07 0 0 1-.02-.09l.05-.06Z" fill="#E3C67C" /><path d="M14.33 22.15a14.27 14.27 0 0 0 1.93 14.8 16.03 16.03 0 0 0 5.46 4.28.28.28 0 0 0-.1.08.08.08 0 0 0 0 .06.07.07 0 0 0 .03.05 14.95 14.95 0 0 0 13.21-.25c.07-.03.12-.02.16.04.13.16.17.33.13.52 0 .05.01.07.06.06.1-.01.19 0 .26.04a16.16 16.16 0 0 1-16.86-1.17 16.36 16.36 0 0 1-6.12-8.93c-.59-2.1-.61-4.3-.26-6.43.04.03.08.04.14 0a.14.14 0 0 0 .07-.1 15.56 15.56 0 0 1 1.15-3.57.05.05 0 0 1 .05 0l.01.03c.02.1.07.16.17.18a.07.07 0 0 1 .06.04.08.08 0 0 1 0 .07c-.04.06-.04.12-.01.16.1.16.26.17.46.04Z" fill="#BA9B40" /><path d="M17.07 23.52a3.45 3.45 0 0 1-.89 1.02h-.02a.05.05 0 0 1-.03-.04c0-.05.02-.12.07-.2.1-.09.14-.18.11-.28.1 0 .18-.02.23-.08.42-.43.64-.94.65-1.52l.16-.23.11-.08c.03-.02.04-.01.04.02-.08.53-.22.99-.43 1.39Z" fill="#5C4522" /><path d="m17.34 22.2-.15.22c-.58.4-.87.94-.88 1.6.03.1 0 .2-.1.27-.07 0-.1-.04-.13-.15-.03-.2.12-.66.2-.9.22-.42.55-.79.96-1.12.04-.03.07-.02.09.01l.01.06Z" fill="#E3C67C" /><path d="M38.55 22.22a.19.19 0 0 1-.06.08c-.08-.02-.13-.06-.12-.13v-.03a.08.08 0 0 1 .1-.04c.06.02.1.06.08.12Z" fill="#D0AC4F" /><path d="M38.56 22.22h.07c.04 0 .08.02.12.05a2.37 2.37 0 0 1 .9 2.27.06.06 0 0 1-.06.02l-.03-.01c-.62-.51-1-1.17-1.15-1.97v-.12l.08-.16a.19.19 0 0 0 .07-.08Z" fill="#5C4522" /><path d="M26.97 22.43c0 .5-.17 1.01-.5 1.54.09-.57.25-1.08.5-1.54Z" fill="#E3C67C" /><path d="M17.2 22.42a2.21 2.21 0 0 1-.65 1.52.31.31 0 0 1-.24.08c0-.66.3-1.2.88-1.6Z" fill="#7C5B2A" /><path d="M14.2 23.07c.3.2.83.08.93.25-.25.46-.31.93-.17 1.4l-.03.13a.2.2 0 0 0 0 .12c.14.3.35.53.62.7a.13.13 0 0 0 .14 0 .3.3 0 0 0 .12-.15c0 .06.05.1.14.1-.04.06-.05.1-.04.15.01.04.04.06.08.05a2.3 2.3 0 0 0 1.73-1.31c.03-.04.01-.07-.03-.09-.08-.03-.1-.02-.07.04-.75-.3-1.28.28-1.58.87a.11.11 0 0 1-.1.06.17.17 0 0 0-.09.04.7.7 0 0 1-.03-.4 1.89 1.89 0 0 0-.4-1.5c.18-.12.32-.15.43-.09.03.03.07.03.11.02.09-.03.19-.1.31-.22-.07.24-.22.7-.18.9.01.11.05.16.12.15-.06.09-.08.16-.08.2v.03l.03.02a.05.05 0 0 0 .05 0c.32-.25.6-.6.86-1.02.26.22.54.4.83.53.22.1.45.29.67.36.82.26 1.64.5 2.47.75.24.07.44.18.58.34.33.34 1.43.48 1.88.45-.1.97-.25 1.93-.42 2.88 0 .05 0 .1.04.13l-.05.05c-.04.05-.03.08.04.08h.33c.04 0 .07-.02.07-.07l.32-3.06a.05.05 0 0 1 .04-.05.05.05 0 0 1 .05.03l1.58 3.13c.03.06.06.06.1 0l.85-1.78c.25.17.54.29.88.35.06.01.11.04.15.09.03.04.05.1.05.16-.01.27-.17.91.16 1.04a.18.18 0 0 0-.07.12c0 .04.01.07.06.07l.58.02c.07.1.15.2.26.27.03.02.05.05.07.1.06.23.28.43.68.62l-6.58.07c-.14 0-.28.02-.42.06-.1.02-.11.08-.06.16-.01.03 0 .08.06.15a.6.6 0 0 0-.33.16.01.01 0 0 1-.02 0v-.04c-.02-.04-.04-.06-.09-.05-.58.11-.9.46-1.44.65-.3.1-.55.26-.76.45-.08-.23-.2-.34-.4-.33a.13.13 0 0 0-.1.06.13.13 0 0 0-.01.12l.23.47-1.2.5a.3.3 0 0 0-.1.07.34.34 0 0 1-.16.1c-.52.48-.69.92-.5 1.3-.11.25-.03.53.26.86-.05.05-.1.1-.18.12-.21-.37-.5-.62-.87-.73-.32-.38-.72-.48-1.2-.32l-.03.01a.06.06 0 0 0 0 .08c.03.04.11.06.23.05-.18.02-.25.05-.2.1a1.4 1.4 0 0 0-.64.08 14.69 14.69 0 0 1-.56-11.21Zm.2 2.8c-.1.07-.13.18-.07.34.13.34.64 1.2 1.02 1.11.03 0 .06-.02.08-.05.03-.03.03-.06 0-.1-.03-.04-.04-.07 0-.09a.08.08 0 0 0 .03-.08c-.03-.4-.04-.9-.22-1.23-.15-.28-.35-.44-.62-.49.01-.13-.02-.18-.1-.17a.05.05 0 0 0-.03.03c-.1.23-.13.47-.1.73Zm1.28 1.36a.17.17 0 0 0-.03.12c0 .05.03.06.07.05a1.99 1.99 0 0 0 1.54-1.57l-.01-.02a.03.03 0 0 0-.04 0l-.1.05c-.75-.36-1.25.72-1.47 1.23-.04.09-.03.13.04.14Zm-1.44.01.05.44c0 .05-.02.07-.07.07a.1.1 0 0 0-.03 0c-.05.01-.06.04-.05.09.17.59.54.98 1.1 1.18a.13.13 0 0 0 .1 0 .13.13 0 0 0 .07-.08l.05-.17c-.01.1 0 .14.06.12-.06.09-.02.13.1.13h.06c.74-.31 1.18-.86 1.31-1.66 0-.04 0-.06-.04-.06h-.07c-.94-.03-1.12.81-1.4 1.52-.2-.55-.3-1.15-.72-1.53a.1.1 0 0 0-.1-.01c-.1.06-.15.05-.16-.01 0-.16-.1-.26-.27-.28-.04 0-.07.01-.09.06a.53.53 0 0 0 0 .38c.04.09.06.08.08 0l.02-.19Zm1.6 3.18c-.15.12-.1.14.15.08.72-.19.89-1.08.99-1.69 0-.03-.01-.06-.04-.07h-.04c-.02-.04-.05-.06-.08-.05-.45.11-.77.4-.96.84-.15.37-.16.67-.02.9Zm-1.68-1.44c-.05.51.1.95.49 1.32.22.23.53.33.83.33.1 0 .13-.04.11-.13-.05-.26-.44-1.56-.86-1.34a.75.75 0 0 0-.6-.38c-.05 0-.07.02-.06.06.02.07.05.11.1.14Zm2.1 2.57c.1.13.08.24-.04.33a.1.1 0 0 0-.05.08c0 .15.05.19.15.12.65-.4.92-1.03.81-1.86 0-.06-.03-.06-.07-.02l-.04.04c0-.08-.04-.1-.13-.06-.59.27-.85.74-.78 1.4l.02.04a.06.06 0 0 0 .07.02l.03-.03.03-.06Zm-1.93-.84c-.05.01-.07.03-.07.05.2.74.78 1.68 1.69 1.41.04 0 .05-.03.04-.07a1.54 1.54 0 0 0-.82-1.16c-.16-.3-.55-.34-.84-.4h-.03l-.02.01a.06.06 0 0 0-.02.05c0 .04.02.08.07.11Zm2.41 2.24c-.17.09-.13.28.1.57.03.03.06.03.1 0 .6-.54.77-1.19.51-1.93-.17-.06-.26-.04-.3.06-.53.36-.67.8-.4 1.3Zm-2.08-.54a1.03 1.03 0 0 1 .1.16c.24.6 1.14 1.56 1.85 1.1.03-.03.04-.06.03-.1-.22-.5-.54-.82-.96-.94-.12-.35-.46-.42-1.02-.22Z" fill="#9C813E" /><path d="m15.13 23.32.1.06-.27 1.34c-.14-.47-.08-.94.17-1.4Z" fill="#E3C67C" /><path d="M15.23 23.38c.08-.05.14 0 .2.15.34.42.46.92.38 1.5a.7.7 0 0 0 .04.4.22.22 0 0 0-.04.1.3.3 0 0 1-.12.13.13.13 0 0 1-.14 0 1.5 1.5 0 0 1-.61-.69.2.2 0 0 1-.01-.12l.03-.13.27-1.34ZM40.15 25.26c-.13-.7.03-1.3.5-1.8.02-.04.04-.06.06-.07.04-.02.07 0 .07.04.18.93.28 1.62-.55 2.26a.1.1 0 0 1-.16-.1l.08-.33Z" fill="#5C4522" /><path d="M40.65 23.45c-.47.5-.63 1.11-.5 1.81-.09.02-.14 0-.14-.03-.14-.73.01-1.33.47-1.8.06-.07.12-.06.17.02ZM39.16 24.63l-1-.13a.14.14 0 0 1-.05-.04c-.04-.04-.03-.07.03-.08.36-.07.7.02 1.02.25ZM17.62 24.46c-.41.04-.69.1-.82.2-.16.1-.32.25-.48.48-.1.15-.1.4-.37.49-.09-.01-.14-.05-.14-.1 0-.04.02-.07.04-.1a.17.17 0 0 1 .1-.04c.04 0 .07-.02.09-.06.3-.59.83-1.18 1.58-.87Z" fill="#E3C67C" /><path d="M15.95 25.63c.26-.1.26-.34.37-.5.16-.22.32-.38.47-.48.14-.08.42-.15.83-.19-.03-.06-.01-.07.07-.04.04.02.05.05.03.09A2.3 2.3 0 0 1 16 25.82c-.04 0-.07 0-.08-.05-.01-.05 0-.1.04-.14ZM38.17 24.5l1 .13c.36.16.6.5.72 1.04 0 .04-.01.07-.05.08-.69.25-1.46-.58-1.74-1.17-.01-.03 0-.06.03-.07a.1.1 0 0 1 .04 0ZM28.11 28.03l.15 1.11-.58-.02c-.05 0-.07-.03-.06-.07 0-.04.03-.08.07-.12a.24.24 0 0 0 .06-.2c-.03-.27-.07-.53-.12-.8 0-.04 0-.08.04-.11l.05-.04.06.03c.04.01.07 0 .06-.05 0-.06-.04-.11-.12-.14-.06-.28-.15-.5-.16-.8a2.23 2.23 0 0 0-.25-.93.04.04 0 0 0-.06.02l-.8 1.38-.86 1.78c-.03.06-.06.06-.09 0l-1.58-3.13a.05.05 0 0 0-.1.02l-.31 3.06c0 .05-.03.07-.07.07h-.33c-.07 0-.08-.03-.04-.08l.05-.05c.1.01.14-.03.15-.13l.45-3.26a3.3 3.3 0 0 1 .83 1.2.07.07 0 0 0 .09.01c.04-.02.05-.06.02-.1a593.47 593.47 0 0 1-.67-1.45.12.12 0 0 0-.05-.03c-.07 0-.12-.04-.14-.1v-.36l.03-.06a.05.05 0 0 1 .05-.03h.02l.02.03A34.62 34.62 0 0 0 25.68 28a.3.3 0 0 0-.07.16.08.08 0 0 0 .05.09.08.08 0 0 0 .09-.04l1.56-2.8c.14-.27.27-.57.4-.9l.4 3.52Z" fill="#5C4522" /><path d="m29.22 24.64-.05 4.18a.1.1 0 0 1-.07.1.29.29 0 0 1-.15 0c-.05-.01-.07-.04-.06-.08.06-.16.07-.29.02-.37a19.38 19.38 0 0 0 .16-3.83.1.1 0 0 1 .07-.05h.04l.04.05ZM27.7 24.5a6.1 6.1 0 0 1-.4.9 409.94 409.94 0 0 1-1.59 2.85.08.08 0 0 1-.1-.04.08.08 0 0 1 0-.05.3.3 0 0 1 .07-.16l1.13-2.01.9-1.49ZM32.69 24.74c-.3.57-.15 2.51-.13 3.31a.1.1 0 0 1-.11.1.1.1 0 0 1-.05-.02c-.08-.07-.09-.15-.01-.24.07-1.06.07-2.1 0-3.1a.16.16 0 0 1 .14-.17c.1-.02.16.02.16.12Z" fill="#E3C67C" /><path d="M29.22 24.64a.4.4 0 0 1 .2.1c.9 1.05 1.89 2.1 2.97 3.15-.08.09-.07.17 0 .24a.1.1 0 0 0 .15-.02.1.1 0 0 0 .02-.06c-.02-.8-.17-2.74.13-3.31a.1.1 0 0 0 .05-.04c.06 0 .1.03.1.08a83.72 83.72 0 0 0-.07 3.98c0 .15 0 .27-.03.36-.03.1-.08.11-.15.03a61 61 0 0 0-2.9-3.16.55.55 0 0 1-.15-.25.07.07 0 0 0-.13.02v2.87a.77.77 0 0 0 .03.41.6.6 0 0 1-.45.04c-.04-.01-.07-.03-.07-.05 0-.03 0-.06.03-.1l.15-.01a.1.1 0 0 0 .07-.1l.05-4.18Z" fill="#5C4522" /><path d="M23.8 24.74v.36l-.08.47-.45 3.26c0 .1-.06.14-.15.13a.14.14 0 0 1-.04-.13c.17-.95.31-1.91.41-2.88l.16-1.16c0-.05.03-.07.08-.08.02 0 .04 0 .07.03ZM14.62 25.28a1.98 1.98 0 0 0-.07.92l-.02.02h-.02c-.01 0-.02 0-.02-.02a.7.7 0 0 1-.1-.33 1.45 1.45 0 0 1 .12-.75h.02c.07-.02.1.03.09.16Z" fill="#E3C67C" /><path d="M23.8 25.1c.02.06.07.1.14.1a.12.12 0 0 1 .09.07l.63 1.4c.03.05.02.09-.02.11a.07.07 0 0 1-.1-.03 3.3 3.3 0 0 0-.82-1.18l.08-.47Z" fill="#9C813E" /><path d="M40.41 27.36a.07.07 0 0 1-.08-.03.08.08 0 0 1 .01-.1c.13-.1.16-.24.17-.42 0-.66.27-1.19.8-1.57.05-.03.07-.02.08.03.11.86-.05 1.79-.98 2.1ZM14.4 25.87c0 .13.03.24.09.33l.01.02h.03a.03.03 0 0 0 .02-.04c-.05-.3-.02-.6.07-.9.26.05.47.21.62.5.18.32.18.83.22 1.22 0 .03-.01.06-.04.08-.03.02-.02.05.01.1.03.03.03.06 0 .09a.16.16 0 0 1-.08.05c-.38.09-.89-.77-1.02-1.1-.06-.17-.04-.28.06-.35Z" fill="#5C4522" /><path d="M17.11 25.86c.01.07-.01.12-.07.12-.65.1-1.05.46-1.2 1.1a.16.16 0 0 1-.08.1l-.08.05c-.06 0-.08-.05-.04-.14.22-.51.72-1.59 1.47-1.23Z" fill="#E3C67C" /><path d="m15.68 27.23.08-.04a.16.16 0 0 0 .08-.1c.15-.65.55-1.02 1.2-1.1.06-.01.08-.06.07-.13l.1-.05a.03.03 0 0 1 .05.02v.02c-.21.83-.72 1.35-1.54 1.55-.04.01-.07 0-.07-.05 0-.04 0-.08.03-.12Z" fill="#5C4522" /><path d="m39.4 26.12-.83-.24c.24-.16.49-.16.76 0 .1.07.13.15.07.24Z" fill="#E3C67C" /><path d="m27.73 27.62-.01.16-.05.04a.12.12 0 0 0-.04.11c.05.27.1.53.13.8a.24.24 0 0 1-.07.2c-.33-.13-.17-.77-.16-1.04a.24.24 0 0 0-.05-.16.24.24 0 0 0-.15-.09 2.18 2.18 0 0 1-.87-.35l.79-1.38.02-.02h.04l.02.02c.14.28.22.59.23.9.01.3.1.53.17.81Z" fill="#D0AC4F" /><path d="m38.57 25.88.83.24c.04.02.1.02.19-.01.04-.02.07 0 .1.03l.52.95a.2.2 0 0 1-.2.28l-.6-.11a.17.17 0 0 1-.1-.07c-.31-.39-.68-.78-.74-1.3Z" fill="#5C4522" /><path d="M14.5 27.27c-.11-.04-.2-.05-.26-.03l-.02.18c-.02.1-.04.1-.07.01a.53.53 0 0 1 0-.38c0-.05.04-.07.09-.06.17.02.26.12.27.28Z" fill="#E3C67C" /><path d="M40.44 28.83c.1-.04.14-.08.15-.14.06-.85.46-1.18 1.07-1.69.06.49.02.88-.13 1.17-.23.43-.56.7-1 .83a.1.1 0 0 1-.06 0c-.13-.05-.14-.1-.03-.17Z" fill="#5C4522" /><path d="M41.66 27c-.61.5-1.01.84-1.07 1.69 0 .06-.06.1-.15.14-.07-.02-.1-.06-.12-.1l.07-.09c.18-.63.3-1.07.84-1.48.14-.1.28-.16.43-.16Z" fill="#E3C67C" /><path d="M14.5 27.27c0 .07.05.07.15.01a.1.1 0 0 1 .11.01c.42.38.53.98.71 1.53l-.01-.05-.06.17a.13.13 0 0 1-.16.08c-.57-.2-.93-.6-1.1-1.18-.02-.05 0-.08.05-.09h.03c.05 0 .07-.02.06-.07l-.04-.44c.06-.02.15-.01.26.03Z" fill="#5C4522" /><path d="M16.88 27.3c-.01.07-.04.12-.09.13-.61.15-.95.56-1 1.2-.02.1-.1.18-.27.26-.05.02-.08-.02-.06-.12l.01.05c.29-.71.47-1.55 1.4-1.52Z" fill="#E3C67C" /><path d="M15.52 28.9c.17-.09.25-.18.26-.26.06-.65.4-1.06 1.01-1.21.05-.01.08-.06.09-.13h.07c.03 0 .05.02.04.06-.13.8-.57 1.35-1.31 1.65a.14.14 0 0 1-.06.01c-.13 0-.16-.04-.1-.13ZM40.4 28.64l-.08.08-.14.24c-.02.04-.06.06-.11.04a1.7 1.7 0 0 1-1.21-1.47c0-.06.01-.08.07-.07l.81.16a.1.1 0 0 1 .07.04c.18.25.3.53.37.84.01.05.04.08.1.1l.11.04Z" fill="#5C4522" /><path d="M27.73 27.62c.07.03.11.08.11.14 0 .05-.01.06-.06.05a.14.14 0 0 1-.06-.03v-.16Z" fill="#9C813E" /><path d="M28.11 28.03c.27.05.54.2.8.44.05.08.04.2-.02.37-.01.04 0 .07.06.09-.03.04-.04.07-.03.1 0 .02.03.04.07.05.15.05.3.03.45-.04.06-.02.09-.05.1-.1.01-.04.03-.05.07-.04.19.05.35.14.48.29.03.03.06.06.1.07.19.08.34.2.46.36.03.03.04.07.04.12l-.02.42-1.4-.03c-.4-.19-.62-.4-.69-.63a.16.16 0 0 0-.06-.09.9.9 0 0 1-.26-.27l-.15-1.11Z" fill="#D0AC4F" /><path d="M38.35 31.6c-.13.38-.14.7-.04.96-.06.25-.02.41.14.48.1.24.26.4.46.5.03.02.06.01.08-.03l.02-.04c.12-.02.2-.06.24-.1.41-.56.93-1.12 1.68-1.05l.04.01c.01.02.02.03.01.06-.1.07-.17.1-.2.1-.62.02-1.05.5-1.39.96a.18.18 0 0 1-.07.06l-.17.09c-.06.03-.06.06 0 .1.2.1.43.1.68.01.35-.08.63-.28.85-.61l.25.25c.02.02.04.02.06 0l.03-.03c.02-.02.03-.02.03.01a.8.8 0 0 1 0 .05c0 .02 0 .02.02.02.15-.07.32-.03.52.12a14.81 14.81 0 0 1-6.05 7.07c-.06-.28-.02-.67.11-1.15.01-.18-.08-.25-.28-.2-.08 0-.12-.02-.13-.05.09-.02.13-.04.13-.05a.22.22 0 0 0-.17-.2 2.43 2.43 0 0 0-1.42.04.78.78 0 0 1-.46 0c.66-.44 1.17-1.01.9-1.86-.02-.02-.04-.02-.07-.02-.02-.03-.05-.04-.1-.04a.15.15 0 0 0-.08.03c-.2.14-.36.29-.49.43-.14-.03-.3-.02-.48.02a.07.07 0 0 0-.06.06c0 .05-.03.08-.06.09-.04-.05-.07-.06-.1-.01l.03-.21a.11.11 0 0 0-.02-.09l-.54-.65a.18.18 0 0 0-.09-.05.37.37 0 0 1-.22-.22.11.11 0 0 1 .02-.12c.26-.3.67-.46.91-.62.41-.27.81-.56 1.21-.85.59-.43 1.04-1.02 1.56-1.55.31-.32.6-.83.85-1.54.11-.06.18-.13.21-.23.02-.05 0-.08-.05-.1-.19-.05-.33.01-.42.2a9.08 9.08 0 0 1-4.61 4.26l-1.1-2.66c-.02-.05-.05-.06-.1-.04a.71.71 0 0 1-.47.03l.74-.49c.04-.03.05-.06.02-.1-.01-.03-.04-.03-.08-.03a1.67 1.67 0 0 0-.48-.59c-.07-.05-.09-.12-.06-.23a.1.1 0 0 0-.04-.1 1.27 1.27 0 0 1-.49-1.1l4-.05a.1.1 0 0 0 .08-.04.1.1 0 0 0 .01-.1l-.02-.06c0-.04-.04-.06-.08-.05h-.05c-.05-.08-.11-.12-.2-.12-.4-.01-.8-.02-1.22-.01.07-.32-.03-.54-.29-.64-.77-.3-1.54-.69-2.08-.7a.1.1 0 0 1-.09-.07c-.05-.16-.12-.2-.2-.13l-.01-.15c.3.06.58.1.88.2.31.11.62.2.94.27.44.1.79.31 1.2.48a.2.2 0 0 0 .12.01c.39-.09.47.06.76.36.35.35.91.1 1.36.3.78.33 1.59.6 2.42.8.04.01.07.03.1.06.13.13.29.2.47.23.04 0 .08.02.11.05l.22.15.1.1c.05.1.13.14.26.12Zm-.7 2.4c-.06 0-.07.03-.06.08.06.18.14.35.25.5.12.21.23.33.32.35l.18.1c.02.06.13.1.31.14.79.13 1.43-.46 1.76-1.11.03-.06.02-.08-.04-.06a.63.63 0 0 0-.23.16L40 34.1a.14.14 0 0 0 .02-.12.08.08 0 0 0-.1-.06c-.48.06-.88.27-1.2.64-.12.14-.23.17-.4.2.11-.58.43-1.08-.07-1.57.02-.05-.07-.2-.27-.42-.32.3-.43.71-.32 1.25Zm-.41.13c-.05-.06-.09-.06-.12-.01-.07.08-.2.3-.38.66l-.35.4a1.5 1.5 0 0 0-.72 1.18c0 .04.01.07.05.08.09.03.15 0 .19-.08a.7.7 0 0 1-.1.44.13.13 0 0 0 0 .12l.08.19c0 .03.02.06.05.09.03.03.06.03.1 0 .46-.38.67-.87.63-1.48-.11-.2-.11-.37 0-.52 0 .06 0 .1.05.12.03.02.08 0 .16-.05-.07.17-.1.29-.06.35.06.21.16.38.3.51.04.03.06.03.09 0 .36-.45.64-1.17.31-1.69a.9.9 0 0 0-.21-.36c-.03-.03-.05-.02-.06.02l-.01.03Zm.18 2.16c-.04.03-.04.07-.01.12.02.03.04.05.08.07.78.36 1.6-.31 2.04-.87a.07.07 0 0 0 .02-.04v-.04c-.03-.04-.06-.04-.09-.01a.4.4 0 0 1-.2.11c.05-.08.05-.13 0-.16-.6-.3-1.47.35-1.9.72-.04.03-.04.06 0 .08l.06.02Zm-2.76 1.37c-.17.14-.2.28-.06.41l.05.12.02.02a.06.06 0 0 0 .06.01l.02-.01c.52-.48 1.16-1.26.62-1.96-.02-.03-.04-.03-.07 0l-.02.03-.01-.05c-.03-.03-.05-.03-.08 0-.28.23-.83.96-.7 1.36 0 .04.04.06.08.06l.1.01Zm1.56-.23c-.05.06-.03.11.06.17.71.49 1.61-.01 2.17-.6l.01-.02a.03.03 0 0 0-.04-.04l-.13.04v-.11c0-.05-.02-.07-.06-.08a2.25 2.25 0 0 0-2 .57l-.01.02v.05Zm-1.07.94-.2.06c-.05.01-.08.03-.09.05 0 .03 0 .05.04.08.74.58 1.59.24 2.23-.26a.08.08 0 0 0-.01-.14h-.06l-.22.08a.15.15 0 0 1-.15-.07c.19-.05.16-.13-.07-.25a.27.27 0 0 0-.12-.03 3.25 3.25 0 0 0-1.49.35v.04c0 .02.01.03.03.04l.04.01c.03 0 .05.01.07.04Z" fill="#D0AC4F" /><path d="M32.08 30.17h-1.41l.02-.43a.18.18 0 0 0-.04-.12 1.1 1.1 0 0 0-.46-.36.26.26 0 0 1-.1-.07.91.91 0 0 0-.48-.3c-.04 0-.06.01-.07.05-.01.05-.04.08-.1.1a.77.77 0 0 1-.03-.41c.09-.07.16-.03.21.13a.1.1 0 0 0 .1.06c.53.02 1.3.4 2.07.71.26.1.36.32.3.64Z" fill="#BA9B40" /><path d="M16.9 28.74c-.25.23-.57.34-.74.62-.16.28-.27.64-.32 1.06-.14-.22-.14-.52.02-.9.2-.44.51-.72.96-.83.03-.01.06 0 .08.05Z" fill="#E3C67C" /><path d="m39.43 29-.42-.03c-.1.02-.15-.05-.15-.2 0-.05.03-.08.08-.07.1 0 .2.03.3.08l.07.02c.08 0 .13.07.12.2Z" fill="#D0AC4F" /><path d="M16.9 28.74h.04c.03.01.04.04.04.07-.1.61-.27 1.5-1 1.69-.25.06-.3.04-.14-.08.05-.42.16-.78.32-1.06.17-.28.5-.39.74-.62Z" fill="#5C4522" /><path d="m14.73 29.16-.57-.18a.22.22 0 0 1-.09-.14c0-.04 0-.06.05-.06.28.03.48.16.61.38ZM41.67 28.83c-.2.22-.5.29-.67.47-.24.24-.62 1.14-.79 1.2-.06 0-.1-.01-.11-.04.03-.1.03-.15.01-.17l.2-.17v-.02c.22-.62.62-1.06 1.23-1.33.06-.02.1 0 .13.06Z" fill="#E3C67C" /><path d="M41.67 28.83h.08c.01.01.02.03.01.06-.11.81-.57 1.77-1.53 1.73-.04 0-.06-.02-.05-.06 0-.02 0-.04.03-.06.17-.06.55-.96.79-1.2.18-.18.47-.25.67-.47ZM39.43 29c.51-.02.63.88.68 1.29.02.02.02.07-.01.17-.03.08-.08.11-.15.1-.76-.23-1.07-.75-.95-1.59l.43.03Z" fill="#5C4522" /><path d="M42.11 35.06a16 16 0 0 1-6.64 6.77.44.44 0 0 0-.26-.04c-.05 0-.07-.01-.06-.06a.61.61 0 0 0-.13-.52c-.04-.06-.1-.07-.16-.04a14.95 14.95 0 0 1-13.23.23.07.07 0 0 1 0-.09.28.28 0 0 1 .1-.08c4.5 2 9.47 1.84 13.81-.64a14.81 14.81 0 0 0 7.13-11.63l.12-.03c.03 0 .05.03.04.08a14.31 14.31 0 0 1-1.39 5.36l.01.03a.08.08 0 0 0 .06.05c.55.07.75.28.6.61Z" fill="#D8B74C" /><path d="m14.16 28.98.57.18c.42-.22.81 1.08.86 1.34.02.09-.02.13-.1.13-.31 0-.62-.1-.84-.33a1.53 1.53 0 0 1-.49-1.32Z" fill="#5C4522" /><path d="m29.27 30.13 1.4.03h1.41c.41 0 .82 0 1.2.02.1 0 .17.04.22.12a.42.42 0 0 1-.1.07.21.21 0 0 1-.1.03c-3.56-.03-7.12-.04-10.68-.03-.14 0-.28.02-.41.05-.06-.08-.03-.14.06-.16.14-.04.28-.06.42-.06l6.58-.07ZM17.02 30.24c-.45.42-.8.58-.76 1.31l-.03.06a.06.06 0 0 1-.1.01.06.06 0 0 1-.01-.03c-.08-.67.18-1.14.77-1.41.09-.05.13-.02.13.06Z" fill="#E3C67C" /><path d="M16.26 31.55c-.04-.73.3-.9.76-1.3l.04-.05c.04-.04.06-.04.07.02.1.83-.16 1.45-.8 1.86-.1.07-.16.03-.16-.12a.1.1 0 0 1 .05-.08c.12-.1.14-.2.04-.33Z" fill="#5C4522" /><path d="M39.09 30.33c-.24-.02-.33.15-.28.53-.18-.18-.21-.38-.1-.61a.13.13 0 0 1 .09-.07c.15-.05.25 0 .29.15Z" fill="#E3C67C" /><path d="M33.5 30.3h.05c.04 0 .07.01.08.05l.02.06a.1.1 0 0 1-.1.14l-3.99.04-7.29-.02c-.05-.07-.07-.12-.06-.15.13-.03.27-.05.42-.05 3.55 0 7.1 0 10.66.03.05 0 .08 0 .12-.03a.42.42 0 0 0 .09-.07ZM39.09 30.33c.58.3.75.85.5 1.66a.12.12 0 0 1-.08.08.12.12 0 0 1-.1-.02c-.55-.35-.75-.75-.6-1.19-.05-.38.04-.55.28-.53Z" fill="#5C4522" /><path d="m15.16 30.94-.83-.23c-.05-.03-.07-.07-.07-.11a.06.06 0 0 1 .02-.05.06.06 0 0 1 .04-.01c.3.06.69.1.84.4Z" fill="#E3C67C" /><path d="m22.27 30.57 7.3.02c-.03.45.14.82.48 1.1.04.03.05.07.04.11-.03.1 0 .18.06.23.2.14.36.37.48.6l-.32-.1c.05-.06.05-.1.03-.13-.67-.56-1.47-.32-2.08.19a.07.07 0 0 0-.03.05.07.07 0 0 0 .03.05l.05.05a.06.06 0 0 0-.04.05.1.1 0 0 0 .04.1c.54.4 1.09.51 1.64.35.13.04.29.03.47-.03.05-.02.08 0 .1.04l1.1 2.66a9.48 9.48 0 0 1-12-4.17c.22-.2.48-.34.77-.45.54-.2.86-.54 1.44-.65.05 0 .07 0 .08.05l.01.04a.01.01 0 0 0 .02 0 .6.6 0 0 1 .33-.16Zm2.95 2.16-.03.02c-.03.02-.03.04 0 .06.82.7 1.62.68 2.41-.04a.1.1 0 0 0 .03-.1.1.1 0 0 0-.09-.08c-.06 0-.12.03-.18.09a.46.46 0 0 0-.15-.18c.05-.05.06-.09.03-.11-.7-.54-1.43-.3-2.03.25-.04.03-.03.06.01.09Zm2.2 1.46-.04.36c-.01.04 0 .08.02.1l.43.65c.02.04.05.04.08 0 .75-.75.8-1.55.16-2.4a.05.05 0 0 0-.06-.03c-.06.02-.07.02-.03.03-.05-.05-.1-.06-.12-.04-.26.25-.66.81-.6 1.2.03.14.09.19.17.13Z" fill="#AC8D44" /><path d="M41.41 30.67c-.09.1-.2.15-.36.16a.26.26 0 0 0-.11.03c-.56.32-.72.75-1.06 1.2a.16.16 0 0 1-.03-.01c-.03-.02-.04-.05-.02-.08.22-.56.6-.99 1.1-1.28a.2.2 0 0 1 .14-.03c.1.01.18-.01.25-.07.03-.02.06-.01.08.02a.1.1 0 0 1 .01.06Z" fill="#E3C67C" /><path d="M39.88 32.07c.34-.46.5-.89 1.06-1.2a.26.26 0 0 1 .11-.04.52.52 0 0 0 .36-.16.19.19 0 0 1 .07-.05c.05-.02.07 0 .06.05a1.9 1.9 0 0 1-1.68 1.6.07.07 0 0 1-.07-.03.07.07 0 0 1 0-.07l.1-.1ZM14.33 30.71l.83.23c.44.22.72.6.83 1.16.01.04 0 .06-.04.07-.91.27-1.49-.67-1.69-1.41 0-.02.02-.04.07-.05Z" fill="#5C4522" /><path d="M19.62 31.74a9.48 9.48 0 0 0 12 4.17 9.08 9.08 0 0 0 4.6-4.26c.1-.19.24-.25.43-.2.05.02.07.05.05.1-.03.1-.1.17-.21.23a13.02 13.02 0 0 1-2.78 3.13c-.98.75-2.37 1.68-3.42 1.87-4.75.84-8.4-.73-10.94-4.72l-.23-.47a.13.13 0 0 1 .1-.18c.2-.01.33.1.4.33Z" fill="#7C5B2A" /><path d="M17.45 31.59c-.5.32-.74.77-.7 1.36-.27-.5-.13-.94.4-1.3.03-.1.13-.12.3-.06ZM38.55 31.63c-.2.19-.16.65-.24.93-.1-.27-.09-.58.04-.95.02-.05.06-.07.14-.06.05.01.07.04.06.08Z" fill="#E3C67C" /><path d="M16.74 32.95c-.03-.59.2-1.04.71-1.36.26.74.1 1.39-.52 1.93-.03.03-.06.03-.09 0-.23-.29-.27-.48-.1-.57Z" fill="#5C4522" /><path d="M38.55 31.63c.09 0 .14.02.15.06.2.54.43.86.18 1.5-.02.04-.04.04-.08.02a.66.66 0 0 0-.35-.17c-.16-.07-.2-.23-.14-.48.08-.28.04-.74.24-.93Z" fill="#7C5B2A" /><path d="M38.7 31.7c.6.4.54 1.16.3 1.77l-.02.04c-.01.04-.04.05-.07.03a.94.94 0 0 1-.46-.5c.13.01.24.07.35.17.03.02.06.02.07-.02.26-.64.04-.96-.17-1.5Z" fill="#5C4522" /><path d="M36.49 31.78a4.23 4.23 0 0 1-.85 1.54c-.52.53-.98 1.12-1.56 1.55-.4.3-.8.58-1.21.85-.24.16-.65.32-.91.62a.11.11 0 0 0-.02.12c.04.1.12.18.22.22.04 0 .07.03.09.05l.53.65a.11.11 0 0 1 .03.09l-.03.2c-.52.4-1.34.88-1.08 1.67-.06.05-.07.1-.05.14l.04.04h.05c.55-.21.96-.58 1.23-1.1.02-.05.03-.1.02-.15l-.08-.53c-.04.03-.05.01-.03-.05.03-.01.05-.04.06-.09 0-.03.03-.05.06-.06.18-.04.34-.05.48-.02l-.43.83a.11.11 0 0 0 0 .1c.05.13.12.22.2.28a.2.2 0 0 0-.09.13.08.08 0 0 0 .07.1l.1.02c.15.04.3.04.44 0 .5-.16.9-.17 1.43-.05a.22.22 0 0 1 .17.21c0 .01-.04.03-.13.05a1.97 1.97 0 0 0-1.66.03l-.14-.03a.06.06 0 0 0-.07.04.06.06 0 0 0 .01.07c.73.73 1.45.49 2.27.14-.13.48-.17.87-.11 1.15a15.08 15.08 0 0 1-13.82.64 16.03 16.03 0 0 1-5.46-4.28c.08-.02.11-.05.08-.1-.6-.8-1.13-1.65-1.58-2.57.15-.07.37-.1.65-.08.47.63 1.25 1.4 2.06.81a.43.43 0 0 0 .18-.12c.62-.45.65-1.3.4-1.98-.02-.05-.04-.07-.07-.04a.2.2 0 0 1-.03-.09c0-.02-.01-.03-.03-.03-.06 0-.06 0-.03-.02a.34.34 0 0 0 .16-.1.3.3 0 0 1 .1-.06l1.2-.5c2.55 3.98 6.2 5.55 10.94 4.7 1.05-.18 2.44-1.1 3.42-1.86a13.03 13.03 0 0 0 2.78-3.13Zm-18.26 3.34-.02.34c0 .03 0 .05.02.07l.38.6c.03.04.06.04.1 0 .42-.58.44-1.21.07-1.9-.05-.07-.1-.1-.14-.07v-.04c-.02-.03-.04-.04-.07-.02-.39.25-.5.6-.34 1.02Zm1 1.04c-.14.48.26.73.52 1.07.04.05.07.05.1 0 .16-.29.25-.53.25-.72 0-.46-.16-.9-.5-1.3-.15-.06-.26-.02-.33.15-.08.18-.13.37-.17.56-.02.16.02.24.12.24Zm-2.93-.51v.03c0 .03 0 .05.02.07.56.59 1.34 1.1 2.1.6.05-.02.06-.05.03-.1l-.18-.3c-.03-.04-.06-.05-.11-.03-.27.08-.4.04-.38-.12-.39-.41-.85-.5-1.4-.27-.1.05-.13.09-.08.12Zm4.07 1.42c.02.03 0 .05-.06.07-.04 0-.06.02-.04.06.11.38.34.66.69.83l.04.08.01.05a.08.08 0 0 0 .06.07.08.08 0 0 0 .09-.05c.3-.73.01-1.4-.51-2.05-.35.16-.5.42-.43.78.02.11.07.16.15.16Zm-3-.04c.37.39.75.63 1.13.73.4.1.76 0 1.1-.27.03-.02.03-.06.02-.1-.03-.05-.06-.07-.1-.05-.78-.66-1.5-.76-2.16-.31Zm4.22.7c-.11.13-.1.26.02.38.23.34.52.64.89.88-.06.02-.1.04-.13.08V39c-.01-.04-.03-.06-.06-.06-.85-.05-1.37-.3-2.12.27-.04.03-.03.06.01.1-.04.03-.04.07.01.11.69.43 1.7.51 2.24-.22a.1.1 0 0 0 .02-.1c-.02-.06-.01-.1.03-.12.4-.49.06-1.22-.4-1.61-.03-.16-.13-.26-.3-.3-.02-.03-.05-.05-.1-.05a.1.1 0 0 0-.1.06c-.03.11-.08.22-.15.33-.05.08-.06.13-.06.18.02.07.08.11.2.12Zm1.25.57c.14.58.55.98 1.25 1.2.06.02.1 0 .1-.07.05-.82-.34-1.33-1.18-1.52l.1-.1c.02-.04.02-.06 0-.09-.05-.04-.1-.06-.15-.05-.03 0-.07.03-.1.08a.52.52 0 0 0-.02.55Zm-3.86-.06v.04c-.1-.02-.18-.01-.23.03-.04.03-.04.06 0 .08.7.46 1.63.76 2.24-.01.04-.05.03-.07-.03-.07h-.05c0-.05-.03-.09-.1-.11-.66-.24-1.3-.47-1.98-.1a.08.08 0 0 0-.03.11l.04.02c.04.02.08.02.14 0Zm5.33.43-.03.06a.1.1 0 0 0 0 .1c.32.57.82.9 1.5 1.01.02 0 .03.03.02.1 0 .03-.01.04-.04.04-.06-.12-.17-.16-.32-.14-.65.13-1.26.25-1.8.76-.03.03-.04.06-.04.1 0 .03 0 .06.04.1l-.07.08c-.04.04-.03.06.02.07.88.2 2.25.03 2.26-1.15-.04-.73-.31-1.12-.84-1.17a.91.91 0 0 0-.61-.45c-.04 0-.07 0-.09.04-.08.17-.13.28-.13.35-.01.08.03.11.13.1ZM30 39.68l-.06.13c-.01.03 0 .06.04.07h.04c-.04.05-.07.09-.07.13 0 .06.04.1.11.14-.08.03-.1.07-.06.12.56.7 1.32.92 2.26.64a.07.07 0 0 0 .05-.06.07.07 0 0 0-.02-.06l-.48-.46a3.5 3.5 0 0 0-1.69-.43c.71-.37 1.4-.64 1.43-1.56 0-.02 0-.05-.02-.06a.09.09 0 0 0-.05-.03c-.05-.01-.08 0-.09.04-.16-.05-.32-.02-.5.11l-.31.24c-.39.25-.58.6-.58 1.04Zm-4.22-1c-.04.04-.06.07-.05.1.32.82.88.94 1.65 1.15a.19.19 0 0 0 .24-.14.2.2 0 0 0 0-.1c-.11-.35-.3-.61-.58-.78a3.7 3.7 0 0 0-1.24-.44.12.12 0 0 0-.05.04c-.08.09-.07.15.03.17Zm2.44 1.08c-.06.03-.07.09-.04.18l.02.03a.08.08 0 0 0 .1.01c.16-.1.35-.16.54-.2a1.4 1.4 0 0 0 1.2-1.14v-.06a.09.09 0 0 0-.06-.04.19.19 0 0 0-.12 0c0-.03-.04-.03-.1-.02-.72.14-1.25.51-1.58 1.13-.03.05-.02.09.04.11Zm-6.43.48c-.02.05.02.09.1.11.81.25 1.71.25 2.2-.58a.06.06 0 0 0-.02-.08h-.03c-.04-.01-.08 0-.12.03.01-.06 0-.1-.01-.14-.02-.02-.06-.03-.1-.02-.28.05-.53-.05-.75-.04-.5.02-.9.2-1.24.56a.12.12 0 0 0-.04.08.3.3 0 0 0 0 .08Zm9.99-.46-.02.03-.01.04.01.03c.57.76 1.36.66 2.19.46a.14.14 0 0 0 .1-.13.15.15 0 0 0-.08-.15l-.38-.18a1.18 1.18 0 0 0-.8-.36c-.25-.01-.6.09-.91.07a.13.13 0 0 0-.1.03.14.14 0 0 0-.04.1s0 .03.04.06Zm-6.23 1.38c-.04.04-.07.08-.07.11a.05.05 0 0 0 .02.05h.02c.86.08 1.78-.2 2.11-1.09.02-.04 0-.07-.04-.09a.1.1 0 0 0-.06 0c0-.05-.02-.1-.06-.14a.1.1 0 0 0-.12-.03c-.72.26-1.39.36-1.89 1.06-.02.04-.02.08.02.1a.1.1 0 0 0 .07.03Zm2.63-.95c-.04.04-.04.1-.01.16.36.79 1.41 1 2.17.95.05 0 .07-.04.06-.09-.09-.43-.3-.64-.67-.64 0-.16-.15-.29-.45-.36L28.27 40c-.05 0-.08.01-.1.06a.28.28 0 0 0 0 .15Z" fill="#AC8D44" /><path d="M27.21 32.5c-.66-.38-1.28-.31-1.85.2l-.14.03c-.04-.03-.05-.06-.01-.09.6-.55 1.34-.79 2.03-.25.03.02.02.06-.03.11ZM30.3 32.52c-.5-.13-.8-.46-1.4-.14-.2.1-.4.22-.59.36l-.05-.05a.07.07 0 0 1-.03-.05.07.07 0 0 1 .03-.05c.6-.5 1.4-.75 2.08-.19.02.02.02.07-.03.12Z" fill="#E3C67C" /><path d="m30.3 32.52.33.1c.04 0 .07 0 .08.03.03.04.02.07-.02.1l-.74.49c-.55.16-1.1.04-1.64-.36a.1.1 0 0 1-.04-.1c0-.02.02-.03.04-.04.2-.14.4-.26.6-.36.6-.32.89.01 1.4.14Z" fill="#5C4522" /><path d="M27.21 32.5c.05.03.1.09.15.18-.62.58-1.29.6-2 .03.57-.52 1.19-.6 1.85-.2Z" fill="#7C5B2A" /><path d="m15.68 32.63-1.02-.22c.56-.2.9-.13 1.02.22Z" fill="#E3C67C" /><path d="M40.68 33.1c-.22.33-.5.53-.86.61a.5.5 0 0 1-.03 0 .06.06 0 0 1-.04-.05l.01-.08.04-.02c.57-.16.9-.51.98-1.07.03 0 .1-.03.2-.1a.12.12 0 0 1 .07-.03c.05 0 .07.03.04.08l-.4.66ZM14.66 32.41l1.02.22c.42.12.74.43.96.93.01.05 0 .08-.03.1-.7.47-1.6-.49-1.86-1.1a.97.97 0 0 0-.1-.15Z" fill="#5C4522" /><path d="M40.78 32.49c-.08.56-.41.91-.98 1.07a.06.06 0 0 0-.04.02.1.1 0 0 0-.01.08c0 .02.02.04.04.04l.03.01a.83.83 0 0 1-.67-.02c-.06-.03-.06-.06 0-.1l.17-.08a.18.18 0 0 0 .07-.06c.34-.46.77-.94 1.39-.96Z" fill="#7C5B2A" /><path d="m25.22 32.73.14-.02c.71.56 1.38.55 2-.03.06-.06.12-.1.18-.09a.1.1 0 0 1 .09.07.1.1 0 0 1-.03.11c-.79.72-1.6.74-2.41.04-.03-.02-.03-.04 0-.06l.03-.02Z" fill="#5C4522" /><path d="M17.9 32.73c-.04.01-.03.02.02.02.02 0 .03.01.03.03l.03.09c-.31.3-.5.7-.58 1.16-.2-.38-.03-.82.5-1.3ZM37.97 32.76l-.23 1.22c0 .04-.02.05-.05.04l-.04-.01c-.1-.54 0-.95.32-1.25Z" fill="#E3C67C" /><path d="M17.98 32.87c.03-.03.06-.01.07.04.25.68.22 1.53-.4 1.98-.29-.33-.37-.61-.25-.86.07-.47.27-.86.58-1.16Z" fill="#5C4522" /><path d="M27.98 32.9c-.35.38-.53.82-.55 1.3-.09.05-.14 0-.16-.15-.07-.38.33-.94.59-1.2.02-.01.06 0 .12.05Z" fill="#E3C67C" /><path d="M27.43 34.2c.02-.48.2-.92.55-1.3-.04 0-.03-.01.03-.03.02 0 .04 0 .06.02.64.86.59 1.66-.16 2.42-.03.03-.06.03-.08-.01l-.43-.64a.16.16 0 0 1-.03-.11l.06-.36Z" fill="#5C4522" /><path d="M37.97 32.76c.2.23.3.37.27.42.1.53.05 1-.13 1.42-.02.04-.05.05-.08 0-.1-.1-.16-.1-.2-.03-.1-.14-.18-.3-.24-.49-.01-.05 0-.08.06-.07h.04c.03.02.04 0 .05-.03l.23-1.22Z" fill="#9C813E" /><path d="M38.24 33.18c.5.49.18 1 .08 1.57l-.16.18c-.1-.02-.2-.14-.32-.36.03-.08.1-.06.19.04.03.04.06.03.08-.01.18-.42.22-.9.13-1.42Z" fill="#5C4522" /><path d="M16.6 34.28a2.02 2.02 0 0 0-1-.18c-.12.01-.2 0-.23-.05a.06.06 0 0 1-.01-.05.06.06 0 0 1 .03-.04c.5-.16.9-.06 1.21.32ZM40 34.1c-.56.05-1.03.34-1.42.84a.4.4 0 0 0-.24.09l-.18-.1.16-.18c.16-.03.27-.06.39-.2.32-.37.72-.58 1.2-.64a.08.08 0 0 1 .1.06c.01.04 0 .08-.02.12Z" fill="#E3C67C" /><path d="M38.34 35.03a.4.4 0 0 1 .24-.09c.05 0 .1.02.13.05.04.03.08.04.12.04a1.52 1.52 0 0 0 1.31-.87.63.63 0 0 1 .23-.16c.06-.02.07 0 .04.06-.33.65-.97 1.24-1.76 1.1-.18-.02-.29-.07-.31-.13Z" fill="#5C4522" /><path d="m37.52 34.44-.06.04c-.03.02-.04.04-.03.08.11.46.03.88-.24 1.27-.03.03-.06.04-.09 0l-.29-.2c-.03-.07 0-.19.07-.36l.36-1.14v-.03c.02-.04.04-.05.07-.02.1.1.16.22.2.36Z" fill="#9C813E" /><path d="M15.6 34.1c.28-.04.62.02 1 .18.37.11.66.36.87.73-.81.6-1.59-.18-2.06-.81-.06-.05 0-.08.2-.1Z" fill="#5C4522" /><path d="M18.64 34.16c-.18.24-.31.56-.41.96-.16-.43-.05-.77.34-1.02.03-.02.05-.01.07.02v.04ZM37.24 34.13l-.36 1.14c-.08.05-.13.07-.16.05-.04-.02-.06-.06-.06-.12l.08-.42c.18-.35.3-.58.38-.66.03-.05.07-.05.12.01Z" fill="#E3C67C" /><path d="m40 34.1.14.06c-.29.54-.73.83-1.31.87-.04 0-.08-.01-.12-.04a.21.21 0 0 0-.13-.05c.4-.5.86-.79 1.41-.85Z" fill="#9C813E" /><path d="M18.23 35.12c.1-.4.23-.72.41-.96.05-.03.1 0 .14.08.37.68.35 1.3-.08 1.88-.03.05-.06.05-.09 0l-.38-.59a.13.13 0 0 1-.02-.07l.02-.34Z" fill="#7C5B2A" /><path d="M37.52 34.44c.33.52.05 1.24-.31 1.68-.03.04-.06.04-.09.01-.14-.13-.24-.3-.3-.5l.28.2c.03.04.06.03.09 0 .27-.39.35-.81.24-1.27-.01-.04 0-.06.03-.08l.06-.04Z" fill="#5C4522" /><path d="m36.73 34.78-.07.42c-.1.15-.1.32 0 .52l-.15.08a.1.1 0 0 0-.06.09c.02.5-.17.9-.56 1.22l-.09-.19a.13.13 0 0 1 .01-.12.7.7 0 0 0 .1-.44c.04-.34.2-.73.48-1.18l.34-.4Z" fill="#9C813E" /><path d="M19.6 35.22c-.2.32-.32.63-.38.94-.1 0-.14-.08-.12-.24.04-.2.1-.38.17-.56.07-.17.18-.21.33-.14ZM36.4 35.18c-.3.45-.45.84-.5 1.18-.03.09-.1.11-.18.08-.04-.01-.05-.04-.05-.08.07-.54.3-.93.72-1.18Z" fill="#E3C67C" /><path d="M19.22 36.16c.06-.31.18-.62.38-.94.34.4.5.83.5 1.29 0 .2-.09.43-.25.72-.03.05-.06.05-.1 0-.26-.34-.66-.6-.53-1.07Z" fill="#7C5B2A" /><path d="M17.78 35.8c-.51-.2-1-.25-1.48-.15-.05-.03-.03-.07.09-.12.54-.23 1-.14 1.39.27ZM39.27 35.63c0 .02-.02.03-.03.03-.6-.15-1.14.03-1.6.56l-.22.07c-.03 0-.05 0-.06-.02-.04-.02-.04-.05 0-.08.43-.37 1.3-1.02 1.9-.72.05.03.05.08 0 .16Z" fill="#E3C67C" /><path d="m37.42 36.29.22-.07c.23.59 1.4-.29 1.6-.56.01 0 .02 0 .03-.03a.4.4 0 0 0 .2-.11c.02-.03.05-.03.07 0l.01.05-.02.04c-.43.56-1.26 1.23-2.04.87a.17.17 0 0 1-.08-.07c-.03-.05-.03-.09 0-.12Z" fill="#5C4522" /><path d="M17.78 35.8c-.02.16.1.2.38.12.05-.02.09 0 .11.04l.18.3c.03.04.02.07-.02.1-.77.5-1.55-.02-2.1-.6a.08.08 0 0 1-.03-.08v-.03c.48-.1.97-.05 1.48.15Z" fill="#7C5B2A" /><path d="M39.24 35.66c-.2.27-1.37 1.15-1.6.56.46-.53 1-.71 1.6-.56Z" fill="#9C813E" /><path d="M36.67 35.72c.04.61-.17 1.1-.63 1.48-.04.03-.07.03-.1 0a.19.19 0 0 1-.05-.1c.4-.3.58-.71.57-1.21a.1.1 0 0 1 .05-.1l.16-.07Z" fill="#5C4522" /><path d="M20.65 36.13c-.17.33-.26.65-.28.94-.08 0-.13-.05-.15-.16-.06-.36.08-.62.43-.78Z" fill="#E3C67C" /><path d="M20.65 36.13c.52.65.81 1.32.5 2.05a.08.08 0 0 1-.08.05.08.08 0 0 1-.06-.07v-.05l-.05-.08a1.33 1.33 0 0 1-.7-.83c0-.04 0-.06.05-.06.05-.02.08-.04.06-.07.02-.3.11-.6.28-.94Z" fill="#7C5B2A" /><path d="M35.28 36.28v.07c-.37.37-.57.8-.62 1.31h-.09c-.04 0-.07-.03-.09-.07-.12-.4.43-1.13.7-1.37.04-.02.06-.02.09.01l.01.05Z" fill="#E3C67C" /><path d="M34.6 38.07c.43-.32.7-.73.8-1.24l-.01-.12-.12-.36.01-.07.02-.03c.03-.03.05-.03.07 0 .54.7-.1 1.48-.62 1.96l-.02.01a.06.06 0 0 1-.08-.03l-.05-.12Z" fill="#5C4522" /><path d="m35.27 36.35.12.36v.12c-.1.5-.36.92-.8 1.24-.12-.13-.1-.27.07-.4.05-.51.25-.95.61-1.32Z" fill="#9C813E" /><path d="m19.53 37.34-.12.03c-.05 0-.08 0-.12-.03-.5-.4-1.14-.5-1.93-.31.66-.45 1.38-.35 2.17.31ZM38.3 36.98l-.19.09c-.58-.35-1.2-.02-1.7.35h-.2v-.04s0-.02.02-.02c.56-.52 1.23-.7 2-.57.04 0 .06.03.06.08v.11Z" fill="#E3C67C" /><path d="M19.53 37.34c.03-.02.06 0 .09.05.01.04 0 .08-.03.1-.33.28-.69.37-1.09.27-.38-.1-.76-.34-1.14-.73.79-.2 1.43-.1 1.93.3.04.04.07.05.12.04l.12-.03Z" fill="#7C5B2A" /><path d="M38.11 37.07a1.6 1.6 0 0 1-1.48.48.17.17 0 0 1-.1-.05.31.31 0 0 0-.12-.08c.5-.37 1.13-.7 1.7-.35Z" fill="#9C813E" /><path d="M36.22 37.43h.19c.05.01.09.04.12.07.03.03.06.05.1.05a1.6 1.6 0 0 0 1.48-.48l.18-.09.13-.04a.03.03 0 0 1 .04.02.03.03 0 0 1 0 .04c-.57.59-1.47 1.09-2.18.6-.09-.06-.1-.11-.06-.17Z" fill="#5C4522" /><path d="m21.8 37.08-.21.64c-.12 0-.18-.05-.2-.12 0-.05.02-.1.06-.18.07-.1.12-.22.15-.33a.1.1 0 0 1 .1-.06c.05 0 .08.02.1.05Z" fill="#E3C67C" /><path d="M22.1 37.38a3.74 3.74 0 0 1 .37 1.3.08.08 0 0 1-.08.03l-.04-.01-.73-.6c-.13-.1-.14-.24-.03-.38l.2-.64c.18.04.29.14.32.3Z" fill="#7C5B2A" /><path d="m34.15 37.1-.09.15c-.4.33-.8.77-.72 1.35 0 .04-.03.08-.09.13a.58.58 0 0 1-.2-.28.11.11 0 0 1 0-.1l.43-.83c.13-.14.3-.29.5-.43a.15.15 0 0 1 .08-.03c.04 0 .07.01.09.04Z" fill="#E3C67C" /><path d="M34.15 37.1c.03 0 .05 0 .06.02.28.85-.23 1.42-.89 1.86l-.1-.03a.08.08 0 0 1-.05-.09c0-.05.03-.1.08-.13.06-.05.09-.1.09-.13h.04c.03 0 .06 0 .08-.02.52-.33.72-.78.6-1.33l.09-.15Z" fill="#5C4522" /><path d="M34.06 37.25c.12.55-.08 1-.6 1.33a.14.14 0 0 1-.08.02h-.04c-.09-.58.32-1.02.72-1.35Z" fill="#7C5B2A" /><path d="M22.1 37.38c.46.4.81 1.12.4 1.6a3.01 3.01 0 0 1-.88-.87l.73.59a.08.08 0 0 0 .13-.07c-.04-.38-.16-.8-.37-1.25Z" fill="#5C4522" /><path d="M23.01 37.91c0 .17-.05.3-.17.39-.1-.2-.09-.38.02-.55.03-.05.07-.08.1-.08.05 0 .1.01.14.05.03.03.03.05 0 .08l-.09.11ZM32.78 37.68c.03-.05.06-.04.1 0-.02.07 0 .09.03.06-.66.5-1.04.76-1.21 1.6-.26-.79.56-1.27 1.08-1.66Z" fill="#E3C67C" /><path d="m32.9 37.74.1.53c0 .05 0 .1-.03.15-.27.52-.68.89-1.23 1.1h-.05a.07.07 0 0 1-.04-.04c-.02-.04 0-.09.05-.14.17-.84.55-1.1 1.2-1.6Z" fill="#5C4522" /><path d="m20.9 38.3-.19.08c-.49-.26-1.22-.46-1.72-.14h-.15a.08.08 0 0 1-.04-.07.08.08 0 0 1 .04-.08c.67-.36 1.31-.13 1.98.1.06.03.1.07.09.12Z" fill="#E3C67C" /><path d="M23.01 37.91c.84.2 1.23.7 1.18 1.52 0 .06-.04.09-.1.07-.7-.22-1.11-.62-1.25-1.2.12-.09.17-.22.17-.39Z" fill="#7C5B2A" /><path d="M36.7 38.17a1.9 1.9 0 0 0-1.55.2c-.02-.03-.04-.04-.07-.04a.07.07 0 0 1-.07-.05.07.07 0 0 1 .04-.08c.45-.21.94-.32 1.45-.31l.12.03c.23.12.26.2.07.25Z" fill="#E3C67C" /><path d="M20.71 38.38c-.04.1-.08.15-.12.17-.58.24-1.11.16-1.6-.27v-.04c.5-.32 1.23-.12 1.72.14Z" fill="#7C5B2A" /><path d="M36.7 38.17c.02.05.07.08.14.07-.46.38-.96.5-1.5.38a.24.24 0 0 1-.1-.06.45.45 0 0 0-.29-.13l.2-.06a1.9 1.9 0 0 1 1.54-.2Z" fill="#9C813E" /><path d="M34.95 38.43c.1 0 .2.05.29.13.03.03.07.05.11.06.53.13 1.03 0 1.49-.38l.22-.08a.08.08 0 0 1 .1.04.08.08 0 0 1-.03.1c-.64.5-1.49.84-2.23.26-.04-.03-.05-.05-.04-.08.01-.02.04-.04.1-.05Z" fill="#5C4522" /><path d="m25.02 38.63-.47-.23c-.05-.03-.09-.01-.11.03l-.13.24c-.1.01-.14-.02-.13-.1 0-.07.05-.18.13-.35.02-.03.05-.04.09-.04.27.06.47.21.62.45ZM31.4 38.3c-.64.29-1.1.75-1.4 1.38 0-.44.2-.79.58-1.04l.32-.24c.17-.13.33-.16.5-.1Z" fill="#E3C67C" /><path d="M30.12 39.9c.1-.03.07-.03-.1-.01l-.04-.01c-.04-.01-.05-.04-.03-.07l.05-.13c.3-.63.76-1.1 1.4-1.39 0-.04.04-.05.08-.04.02 0 .04.01.05.03.02.01.02.04.02.06-.04.92-.72 1.2-1.43 1.56ZM18.98 38.28c.5.43 1.03.51 1.61.27.04-.02.08-.08.12-.17l.2-.07h.05c.06 0 .07.02.03.07-.61.77-1.54.47-2.24.01-.04-.02-.04-.05 0-.08.05-.04.13-.05.23-.03Z" fill="#5C4522" /><path d="M25.02 38.63c.52.05.8.44.83 1.17-.03-.03-.05-.02-.08.04a1.98 1.98 0 0 1-1.48-1 .1.1 0 0 1 0-.11l.02-.06.13-.24c.02-.04.06-.06.1-.03l.48.23Z" fill="#7C5B2A" /><path d="M27.04 38.9c-.06.08-.1.11-.13.1a2.16 2.16 0 0 0-1.13-.32c-.1-.02-.1-.08-.03-.17a.12.12 0 0 1 .11-.04c.46.1.85.24 1.18.44ZM29.87 38.54c-.06.07-.1.13-.2.15-.76.17-1.03.56-1.45 1.07-.06-.02-.07-.06-.04-.1.33-.63.86-1 1.59-1.14.05-.01.08 0 .1.02Z" fill="#E3C67C" /><path d="M29.86 38.54a.19.19 0 0 1 .12 0c.03 0 .04.02.05.04.01.02.02.04.01.06a1.4 1.4 0 0 1-1.2 1.14 1.82 1.82 0 0 0-.58.21.08.08 0 0 1-.08-.05c-.03-.09-.02-.15.04-.18.42-.51.7-.9 1.45-1.07.09-.02.14-.08.2-.15Z" fill="#5C4522" /><path d="M27.04 38.9c.27.18.47.44.58.8a.2.2 0 0 1-.14.23h-.1c-.77-.21-1.33-.33-1.65-1.16 0-.02 0-.05.05-.1.38 0 .76.11 1.13.33.02.01.07-.02.13-.1Z" fill="#7C5B2A" /><path d="M22.37 39.07a.29.29 0 0 1-.28.12 1.65 1.65 0 0 0-1.68.1.21.21 0 0 1-.12.03h-.09c-.04-.04-.05-.07-.01-.1.75-.56 1.27-.32 2.12-.27.03 0 .05.02.05.06l.01.06Z" fill="#E3C67C" /><path d="M22.09 39.2c-.17.6-1.26.36-1.65.18a.21.21 0 0 0-.12-.03.12.12 0 0 0-.1.08c-.06-.04-.06-.08-.02-.1h.09c.04 0 .08-.02.12-.04.5-.34 1.07-.37 1.68-.1Z" fill="#7C5B2A" /><path d="M22.5 38.99c-.04.03-.05.06-.03.11a.1.1 0 0 1-.02.11c-.53.73-1.55.65-2.24.22a.12.12 0 0 1 .1-.08c.04 0 .08 0 .13.03.4.18 1.48.42 1.65-.19.12.02.21-.03.28-.12.02-.04.07-.06.13-.08Z" fill="#5C4522" /><path d="M35.24 39.19c.01.03.05.05.13.05 0 .08-.03.12-.08.14-.73.21-1.16.4-1.71-.16a1.97 1.97 0 0 1 1.66-.03Z" fill="#7C5B2A" /><path d="M33.58 39.22c.55.56.98.37 1.7.16.06-.02.09-.06.09-.14.2-.05.3.02.28.2-.82.35-1.54.6-2.27-.14a.06.06 0 0 1 .06-.1l.14.02Z" fill="#5C4522" /><path d="M23.92 39.72c-.1.03-.14.07-.12.1a1.7 1.7 0 0 0-1.65.2.96.96 0 0 1-.36.22.3.3 0 0 1 0-.08c0-.03 0-.05.03-.08.34-.36.75-.54 1.24-.56.22-.01.47.1.74.04.05 0 .09 0 .1.02.03.03.03.08.02.14ZM33.59 39.88c-.72-.22-1.17-.11-1.81-.1l-.04-.06a.14.14 0 0 1 .04-.1.13.13 0 0 1 .1-.03c.3.02.66-.08.9-.07.33.02.6.14.8.36Z" fill="#E3C67C" /><path d="M21.79 40.24c.17-.06.3-.14.36-.21.53.47 1.08.4 1.65-.2-.02-.04.03-.08.12-.11.04-.03.08-.04.12-.04a.06.06 0 0 1 .05.06v.03c-.49.83-1.39.83-2.2.58-.08-.02-.12-.06-.1-.1Z" fill="#5C4522" /><path d="M23.8 39.83c-.57.6-1.12.67-1.65.2a1.7 1.7 0 0 1 1.65-.2Z" fill="#7C5B2A" /><path d="m33.59 39.88.38.18a.15.15 0 0 1 .05.23.14.14 0 0 1-.07.05c-.83.2-1.62.3-2.19-.46a.06.06 0 0 1-.01-.03v-.04l.03-.03c.64-.01 1.1-.12 1.8.1ZM25.85 39.8c0 1.18-1.38 1.35-2.26 1.15-.05 0-.06-.03-.02-.07l.07-.08a.3.3 0 0 0 .13-.07c.79.23 1.37.05 1.76-.54l.23-.21c.03 0 .04 0 .04-.04.01-.07 0-.1-.03-.1.03-.06.05-.07.08-.04Z" fill="#5C4522" /><path d="m25.76 39.98-.23.21c-.74-.13-1.32.05-1.76.54a.3.3 0 0 1-.13.07.15.15 0 0 1-.04-.1c0-.04.01-.07.05-.1.53-.51 1.14-.63 1.8-.76.14-.02.25.02.3.14ZM30.02 39.89a3.5 3.5 0 0 1 1.79.45 5.87 5.87 0 0 0-1.74-.2c-.08-.03-.12-.07-.11-.13 0-.04.02-.08.06-.12ZM27.53 40.14l-.12.13a2.04 2.04 0 0 0-1.7.72.52.52 0 0 1-.16.17.1.1 0 0 1-.07-.02c-.04-.03-.04-.07-.01-.1.5-.71 1.16-.81 1.88-1.07a.1.1 0 0 1 .12.03c.04.04.06.1.06.14ZM29.73 40.6a3.75 3.75 0 0 0-1.55-.39.28.28 0 0 1 0-.15c.01-.05.04-.07.09-.06l1 .23c.32.07.47.2.46.36Z" fill="#E3C67C" /><path d="M25.53 40.19c-.39.59-.97.77-1.76.54.44-.5 1.02-.67 1.76-.54Z" fill="#7C5B2A" /><path d="M27.53 40.14a.1.1 0 0 1 .06 0c.05.02.06.05.05.1-.34.88-1.26 1.16-2.12 1.09a.05.05 0 0 1-.03-.02l-.01-.02v-.02c0-.04.03-.07.07-.11a.52.52 0 0 0 .15-.17c.67.23 1.46 0 1.7-.72l.13-.13ZM30.06 40.15c.52-.03 1.1.03 1.75.18l.48.46a.07.07 0 0 1-.03.12c-.94.28-1.7.07-2.26-.64-.04-.05-.02-.1.06-.12ZM28.18 40.21c.5 0 1.02.13 1.55.38.36 0 .58.21.67.64.01.05 0 .08-.06.09-.76.05-1.8-.16-2.17-.95-.03-.06-.03-.12 0-.16Z" fill="#5C4522" /><path d="M27.4 40.27c-.24.72-1.03.95-1.7.72.42-.5 1-.74 1.7-.72Z" fill="#7C5B2A" /><path d="m34 42.86.03.15c.01.04 0 .07-.04.08-1.3.54-2.45.86-3.47.96-.62.06-1.23.18-1.75.19-1.14.02-2.3-.06-3.48-.25a.69.69 0 0 1-.52-.34c3.17.6 6.25.33 9.23-.8Z" fill="#9C813E" /></svg>