<?xml version='1.0' encoding='utf-8'?>
<!-- by TradeStack -->
<svg width="56" height="56" viewBox="0 0 56 56" xmlns="http://www.w3.org/2000/svg"><path fill="#F0F3FA" d="M0 0h56v56H0z" /><path d="M27.34 12.89c.04.04.09.06.14.07.74.1 2.03.11 2.08.72.1 1.2-1.93.95-2.64.75a.14.14 0 0 1-.1-.15v-.13c.01-.09.06-.12.13-.09.45.15 2.04.4 2.22-.13a.28.28 0 0 0 .01-.13.3.3 0 0 0-.04-.12.31.31 0 0 0-.22-.14l-1.42-.2c-.32-.04-.73-.27-.68-.65.11-.9 1.86-.71 2.52-.55.1.03.15.1.14.2v.07a.1.1 0 0 1-.1.1 3.23 3.23 0 0 0-1.95-.05c-.28.08-.3.22-.1.43ZM23.73 13.82a83.5 83.5 0 0 1 1.11.36.05.05 0 0 0 .02-.05l-.46-1.53a.14.14 0 0 1 .09-.17l.08-.03a.16.16 0 0 1 .17.05l.03.06.66 2.18a.06.06 0 0 1-.02.06l-.03.02h-.03a625.46 625.46 0 0 0-2.86-.94.05.05 0 0 0-.01.04l.46 1.53-.01.1a.14.14 0 0 1-.09.08l-.08.02a.16.16 0 0 1-.17-.05.16.16 0 0 1-.03-.06l-.65-2.17v-.04l.01-.03a.06.06 0 0 1 .07-.01l1.74.58Z" fill="#1D2F5C" /><path d="M31.54 13.68c-.36 1.1 1.18 1.52 1.96 1.47.1-.01.15.04.16.13l.01.07a.1.1 0 0 1-.1.12c-1.04.07-2.88-.51-2.41-1.92.46-1.4 2.28-.74 3.07-.06a.1.1 0 0 1 .04.08.11.11 0 0 1-.03.08l-.05.05c-.07.07-.14.07-.22 0-.58-.5-2.07-1.11-2.43-.02ZM37.45 17.43c.16-.07.3-.19.4-.32.2-.28.27-.65.17-1.04a2 2 0 0 0-1.25-1.31c-.2-.07-.4-.1-.6-.1-.19 0-.37.05-.53.13-.16.07-.3.19-.4.32-.2.28-.27.65-.17 1.04a2 2 0 0 0 1.25 1.31c.2.07.4.1.6.1.19 0 .37-.05.53-.13Zm.05-.55c-.34.42-1.03.41-1.56-.02s-.69-1.11-.35-1.53c.33-.42 1.03-.42 1.55.01.53.43.69 1.12.36 1.54Z" fill="#8BA9C1" /><path fill-rule="evenodd" d="M19.17 17.28a34.58 34.58 0 0 1 1.4-1.01l.43.15a.3.3 0 0 0 .32-.06l.05-.05c.1-.08.08-.14-.04-.19a75.24 75.24 0 0 0-2.48-.93.23.23 0 0 0-.22.04.23.23 0 0 0-.1.2c.03.57.09 1.46.19 2.67 0 .13.06.16.17.1l.05-.04c.1-.07.16-.17.15-.3l-.02-.45.03-.05a.53.53 0 0 1 .07-.08Zm-.27-1.57.1 1.12a.07.07 0 0 0 .05.06.07.07 0 0 0 .07-.01l.93-.71a.07.07 0 0 0 .01-.1.07.07 0 0 0-.03-.03l-1.03-.4a.07.07 0 0 0-.1.07Z" fill="#1D2F5C" /><path fill-rule="evenodd" d="M40 17.7c-.05-.01-.1 0-.13.02l-1.7 1.22a.18.18 0 0 0-.04.24l.9 1.3c.12.16.25.3.4.41.16.12.32.2.49.25.17.05.33.07.5.05.15-.02.3-.08.42-.17l.08-.06c.25-.18.4-.48.42-.84.02-.36-.1-.74-.33-1.06l-.9-1.3a.17.17 0 0 0-.11-.07Zm-.04.5c-.03-.02-.07 0-.1.02l-1.2.85a.15.15 0 0 0-.03.2l.66.95c.17.25.4.44.66.53.25.08.5.06.68-.07l.06-.04a.66.66 0 0 0 .21-.26.9.9 0 0 0 .08-.37c0-.13-.02-.27-.06-.41a1.53 1.53 0 0 0-.2-.4l-.66-.95a.14.14 0 0 0-.1-.06Z" fill="#8BA9C1" /><path fill-rule="evenodd" d="M16.79 19.3c-.1.02-.12-.02-.06-.1.07-.1.13-.22.18-.35.26-.67-.72-1.26-1.15-.67-.31.42-.72 1-1.21 1.73a.13.13 0 0 0-.02.1c0 .03.02.06.05.08l1.74 1.27c.08.05.15.04.2-.04l.07-.08c.05-.08.04-.14-.03-.2l-.65-.46a.1.1 0 0 1-.02-.15l.43-.62a.19.19 0 0 1 .13-.08l1.15-.17a.4.4 0 0 0 .26-.16l.08-.12c.08-.11.06-.16-.08-.14l-1.07.16Zm-1.77.62c0 .02.01.03.02.03l.44.31a.1.1 0 0 0 .08.02.1.1 0 0 0 .07-.04l.88-1.28c.06-.09.1-.2.08-.3 0-.1-.05-.19-.13-.24l-.04-.03a.3.3 0 0 0-.12-.05h-.15a.43.43 0 0 0-.14.08.5.5 0 0 0-.1.11l-.9 1.28a.1.1 0 0 0 0 .08v.03Z" fill="#1D2F5C" /><path d="M15.41 24.1a.34.34 0 0 1-.04.1.14.14 0 0 1-.07.05h-.08l-1.74-.55a.12.12 0 0 0-.13.04.12.12 0 0 0-.03.04l-.34 1.12c-.02.06-.06.1-.13.1a.25.25 0 0 1-.16-.06c-.03-.03-.03-.08-.01-.16l.42-1.4c.26-.86.4-1.32.44-1.4.02-.08.06-.12.1-.12.05 0 .1 0 .16.04.05.03.07.08.05.14l-.34 1.13a.12.12 0 0 0 .04.13l.04.02 1.75.55c.02 0 .05.02.06.04.02.03.03.05.03.08s0 .07-.02.11Z" fill="#1D2F5C" /><path d="m40.84 23.26.64 2.13a.06.06 0 0 1 0 .05l-.02.02h-.02l-.2.04a.06.06 0 0 1-.07-.04L40.43 23a.06.06 0 0 1 .04-.07l2.17-.68.05.01.02.03.74 2.45a.06.06 0 0 1 0 .05.06.06 0 0 1-.05.02l-.2.03a.06.06 0 0 1-.07-.04l-.62-2.06a.06.06 0 0 0-.03-.03.06.06 0 0 0-.04 0l-.46.13a.06.06 0 0 0-.04.07l.64 2.12a.06.06 0 0 1 0 .05.06.06 0 0 1-.05.02l-.19.03a.06.06 0 0 1-.06-.04l-.63-2.08a.06.06 0 0 0-.03-.03.06.06 0 0 0-.05 0l-.69.2a.06.06 0 0 0-.03.04v.04Z" fill="#8BA9C1" /><path d="M33.92 24H22.08c-.05 0-.08.03-.08.06v.88c0 .03.03.06.08.06h11.84c.05 0 .08-.03.08-.06v-.88c0-.03-.03-.06-.08-.06Z" fill="#162D3F" /><path d="M28.42 27h-.84c-.05 0-.08.05-.08.1v7.8c0 .05.03.1.08.1h.84c.05 0 .08-.05.08-.1v-7.8c0-.05-.03-.1-.08-.1ZM14.92 29h-2.84c-.04 0-.08.04-.08.09 0 .05.04.09.08.09h2.84c.04 0 .08-.04.08-.1 0-.05-.04-.09-.08-.09ZM43.95 28.99l-2.9.01c-.03 0-.05.02-.05.05v.09c0 .03.02.05.05.05h2.9c.03 0 .05-.03.05-.06v-.09c0-.03-.02-.05-.05-.05Z" fill="#8BA9C1" /><path fill-rule="evenodd" d="M16.2 35.06a13.28 13.28 0 0 0-.68-1.27.08.08 0 0 0-.06.01c-.05.04-.05.08-.02.14.1.16.17.3.2.42.02.06 0 .11-.06.14-.55.27-.98.5-1.31.68a.1.1 0 0 0-.05.05v.07a.1.1 0 0 0 .06.05h.08l1.3-.68c.06-.03.11-.02.15.03.08.1.15.23.22.4.03.07.07.1.12.08a.09.09 0 0 0 .05-.12Zm24.3.5c-.13.12-.26.1-.38-.07-.11-.2-.09-.38.05-.54l.28-.33c.03-.13 0-.16-.1-.1-.31.2-.72.88-.31 1.2.34.29.66-.04.91-.31l.18-.18c.12-.1.25-.1.38.01.08.07.1.16.08.26-.08.32-.22.53-.43.65-.25.14-.23.2.06.18.04 0 .13-.09.27-.26.2-.24.35-.55.24-.83-.09-.2-.25-.3-.48-.3a.26.26 0 0 0-.18.08l-.56.53Zm-23.76 1.8a57.4 57.4 0 0 0 .35.41.12.12 0 0 0 .14-.02l.4-.41c.07-.06.13-.07.19-.01.06.05.07.1.02.15-.1.1-.33.3-.68.58-.34.28-.57.46-.7.54-.06.04-.1.02-.14-.05-.04-.08-.02-.14.05-.18l.48-.31a.12.12 0 0 0 .06-.09.13.13 0 0 0-.03-.1 274.85 274.85 0 0 1-.64-.8.12.12 0 0 0-.15.03l-.4.41c-.06.06-.12.07-.19.01-.06-.05-.07-.1-.01-.15.1-.1.32-.3.67-.58.34-.28.58-.46.7-.54.06-.04.1-.02.14.05.04.07.02.13-.04.18l-.49.31a.12.12 0 0 0-.05.09.13.13 0 0 0 .02.1l.3.38Zm23.32.36c-.1.65-.79 1.04-1.3.58-.53-.46-.23-1.2.38-1.39.06-.01.08-.05.07-.1l-.01-.06v-.02a.04.04 0 0 0-.05-.01c-.78.22-1.22 1.14-.53 1.74.68.6 1.52.04 1.63-.77a.04.04 0 0 0-.02-.04H40.16c-.06-.01-.1.01-.1.07Zm-20.8 2.33c-.04.08-.27-.08-.69-.47-.08-.07-.15-.07-.21.02l-.25.34a.15.15 0 0 0 0 .17c0 .02.02.03.04.05l.7.5c.02.02.03.05.01.07l-.04.07a.04.04 0 0 1-.06.01l-.96-.69c-.04-.03-.04-.07-.01-.1a30.34 30.34 0 0 1 1.15-1.43c.04-.04.07-.04.11 0l.86.8a.04.04 0 0 1 0 .08l-.06.05c-.02.02-.05.02-.07 0l-.63-.6a.15.15 0 0 0-.21 0l-.29.31c-.07.08-.06.16.03.22.45.34.65.54.59.6Zm17.56-1.18a.1.1 0 0 1 .14.01l1.07 1.31a.1.1 0 0 1-.01.14.1.1 0 0 1-.14-.01L36.81 39a.1.1 0 0 1 0-.14Zm-.77 2.88a.1.1 0 0 1-.07.01.1.1 0 0 1-.06-.04c-.2-.32-.45-.74-.75-1.27-.03-.06-.08-.07-.14-.05-.1.04-.24.11-.4.22-.05.04-.1.04-.13 0a.08.08 0 0 1-.02-.07.09.09 0 0 1 .04-.05 12.1 12.1 0 0 1 1.23-.71.08.08 0 0 1 .05.05c.02.05 0 .09-.06.12-.17.08-.3.16-.39.25-.04.04-.05.09-.02.14.32.52.57.94.75 1.27a.1.1 0 0 1 .01.07c0 .03-.02.05-.04.06Zm-15.36-.2-.22.4a.06.06 0 0 1-.06.03h-.02l-.08-.06a.1.1 0 0 1-.05-.06v-.07l.87-1.5a.06.06 0 0 1 .08-.04c.4.17 1.06.48 1 .97-.04.35-.24.56-.6.62a.13.13 0 0 0-.09.07.14.14 0 0 0-.01.11c.05.16.07.32.06.49 0 .07-.03.08-.09.04-.06-.03-.09-.06-.09-.08l-.1-.6c-.02-.08-.05-.13-.1-.15l-.38-.2c-.05-.03-.1-.01-.12.04Zm.5-.98a.1.1 0 0 1 .14-.04l.36.18c.06.04.12.08.16.13.05.05.09.1.11.16.03.06.04.12.04.18s-.02.11-.04.16l-.04.08a.38.38 0 0 1-.28.19.6.6 0 0 1-.38-.07l-.36-.2a.1.1 0 0 1-.05-.14l.34-.63Zm12.09 2.56c-.8.28-1.04-.54-1.24-1.24a14.1 14.1 0 0 0-.08-.24c-.02-.07 0-.1.08-.1h.06c.03 0 .05.02.05.05l.08.25c.17.6.37 1.33 1 1.11.61-.22.33-.91.1-1.5-.04-.08-.08-.16-.1-.24-.02-.02-.01-.05 0-.07l.05-.04c.06-.05.1-.04.13.03.02.08.05.15.09.23.26.68.57 1.48-.22 1.76Zm-8.93-1.56c.04.01.07.04.08.1a35.08 35.08 0 0 1 .3 1.98.05.05 0 0 1-.04.03h-.03l-.07-.05a.08.08 0 0 1-.04-.05l-.07-.4c0-.05-.05-.08-.12-.1a7.37 7.37 0 0 0-.78-.23c-.08-.02-.13 0-.16.03l-.27.3-.02.03H23a.05.05 0 0 1-.04-.03v-.05c.4-.52.83-1.03 1.26-1.52.04-.04.08-.05.12-.04Zm-.7 1.03.55-.7a.06.06 0 0 1 .06-.02.06.06 0 0 1 .05.06l.12.87a.06.06 0 0 1-.07.07l-.67-.18a.06.06 0 0 1-.04-.04.06.06 0 0 1 0-.06Zm5.75.42-.1-.91c0-.05.02-.08.07-.09l1.17-.07a.04.04 0 0 1 .04.01.05.05 0 0 1 .01.04v.07c0 .04-.02.05-.05.05l-.86.06a.15.15 0 0 0-.13.1l-.01.06.02.42c.01.11.07.16.17.13.56-.1.84-.1.84-.02.03.09-.25.15-.81.2-.11 0-.16.06-.14.16l.08.42a.15.15 0 0 0 .07.1.15.15 0 0 0 .11.02l.85-.17c.03 0 .05 0 .06.04l.02.07a.05.05 0 0 1-.02.05h-.02l-1.15.24c-.05 0-.08-.01-.1-.06l-.12-.92Zm-2.65.36a.14.14 0 0 0-.14.07l-.02.05-.03.4c0 .04-.03.06-.07.06h-.05c-.07-.01-.1-.05-.1-.11l.13-1.69c0-.06.04-.1.1-.1.47-.02 1.22 0 1.3.56.13.73-.58.87-1.12.76Zm-.09-1.03a.11.11 0 0 1 .04-.07.1.1 0 0 1 .08-.03l.42.03a.6.6 0 0 1 .37.15c.04.05.08.1.1.16a.4.4 0 0 1 .03.17v.05a.4.4 0 0 1-.05.17.45.45 0 0 1-.13.14.54.54 0 0 1-.17.08.6.6 0 0 1-.2.02l-.43-.02a.1.1 0 0 1-.08-.04.11.11 0 0 1-.02-.08l.04-.73Z" fill="#1D2F5C" /></svg>