<?xml version='1.0' encoding='utf-8'?>
<!-- by TradeStack -->
<svg width="56" height="56" viewBox="0 0 56 56" xmlns="http://www.w3.org/2000/svg"><path fill="#F0F3FA" d="M0 0h56v56H0z" /><path d="M39.3 9.4c.09.46.97.9.86 1.33-.2.08-.22.35-.09.8.66 2.23 1.18 3.95.42 6.26-.32 1.01-1.6 2.1-2.52 2.56a.06.06 0 0 1-.08-.1 6.7 6.7 0 0 0 1.42-7.35 5.36 5.36 0 0 1-.01-3.5Z" fill="#EF3C26" /><path d="M39.31 12.9c-.4-1.06.01-3.63.4-4.9-.37.52-1.62 2.5-1.77 3.13-.1.37-.1.88-.1 1.41 0 1.12.01 2.38-.79 2.88-.67.42-1.7.28-2.17-.42s-.32-2.08-.16-2.8c.05-.27-.01-.3-.19-.1-.2.24-.4.55-.62.88-.37.56-.75 1.16-1.2 1.43a73.12 73.12 0 0 1-2.06 1.18.04.04 0 0 1-.02-.07l2.12-1.86c.07-.05.08-.13.05-.21-.36-.89-1.29-1.7-2.23-.9a263.82 263.82 0 0 0-5.06 4.4c-.13.11-.1.15.05.1 1.61-.42 3.25-.57 4.92-.46.07 0 .15-.01.21-.05l1.59-.97a.08.08 0 0 1 .08 0 .08.08 0 0 1 .04.07c0 .07-.04.13-.12.17-.4.24-.79.5-1.18.78-.09.07-.08.12.03.16.58.2 1.09.09 1.52-.35a.13.13 0 0 1 .07-.03h.08l.06.03a.1.1 0 0 1 .06.1.1.1 0 0 1-.01.03.82.82 0 0 1-.53.46.1.1 0 0 0-.07.1.1.1 0 0 0 .06.1c2.61 1.37 3.54 4.11 3.32 6.93-.3 3.28-2.58 5.44-5.27 7.22-.07.05-.08.11-.02.18a24.69 24.69 0 0 0 8.47 6.4c.06.03.1 0 .1-.06l1.12-9.56c.02-.16.1-.23.26-.24l2.7-.07a.18.18 0 0 0 .12-.06l.78-.86a.2.2 0 0 0 0-.25.2.2 0 0 0-.25-.05l-.57.3c-.38.2-.78.4-1.1.65-.02.02-.04.02-.06.01-.05-.02-.05-.05-.01-.08l1.6-1.3a.26.26 0 0 0-.12-.46.27.27 0 0 0-.18.03 463.87 463.87 0 0 1-5.86 3.27c-.05.02-.08.02-.11 0-.04-.01-.04-.04 0-.06 1.8-1.12 3.96-2.55 5.31-4.2v-.02a.03.03 0 0 0-.02-.02h-.01l-2.5 1.51c-.1.06-.12.04-.06-.05l.06-.1.06-.04c.86-.55 1.9-1.21 2.36-2.14a9.48 9.48 0 0 0 .52-7.28h-.04l-.01.03c.01.9-.18 2.3-1.27 2.46-.43.06-.81-.11-1.14-.53a.2.2 0 0 1-.02-.2c1.15-2.55.6-5.14-.37-7.82-.2.08-.22.35-.09.8l.02.04c.65 2.21 1.15 3.93.4 6.22-.32 1.01-1.6 2.1-2.52 2.56a.06.06 0 0 1-.09-.06l.01-.04a6.7 6.7 0 0 0 1.42-7.35Zm-3.7 13.23.35-1.79-.36 1.78Z" fill="url(#ay0aa4pyo)" /><path d="m26.15 23.28 3.56-2.12a.16.16 0 0 1 .1-.02l.08.04c1.77 1.61 1.31 4.3-.1 5.95-1.36 1.6-3 2.77-4.92 3.53-.07.03-.11 0-.12-.07l-.78-9.47c0-.08.03-.13.11-.16 1.52-.45 3.53-.76 5.06-.2a.15.15 0 0 1 .09.2.15.15 0 0 1-.05.07l-3.06 2.2v.04a.03.03 0 0 0 .03.01Zm-.2 15-.46.34a.13.13 0 0 1-.2-.1l-.43-5.18c-.01-.14.02-.15.1-.04.16.2.31.45.47.68.16.25.32.49.46.67a23.52 23.52 0 0 0 7.38 6.3V41a.06.06 0 0 1-.06.05l-7.58.04c-.1 0-.17-.06-.17-.17l-.12-1.86a.23.23 0 0 1 .1-.22c.23-.13.4-.3.56-.49.1-.14.09-.15-.05-.05Zm-.17.81-.22.22c-.08.08-.07.11.05.08.16-.05.24-.13.25-.26.01-.09-.01-.1-.08-.04Zm10.03 2.06c0-.01 0-.02-.02-.02a43.74 43.74 0 0 1-6.3-3.33v.02a31.65 31.65 0 0 0 3.62 2.51l.26.15c.9.54 1.42.85 2.41.73a.04.04 0 0 0 .04-.03v-.03Z" fill="#6D6E73" /><path d="m17.8 27.83-.64.34c-.6.33-1.28.7-1.9.7H13.9a.17.17 0 0 1-.16-.11c-.23-.51-.16-.94.18-1.27.85-.82 2.73-2.51 5.63-5.08.06-.06.1-.04.1.04l.6 8.2a.15.15 0 0 1-.07.14l-1.98 1.04a.08.08 0 0 1-.09 0 .08.08 0 0 1-.03-.09l.47-2.76a.18.18 0 0 0-.19-.2l-1.65.08a.08.08 0 0 1-.08-.05.08.08 0 0 1 .03-.1l1.2-.8.01-.03v-.03l-.03-.02h-.03Z" fill="url(#by0aa4pyo)" /><path d="M15.55 38.97c-.02.2-.19.4-.5.6a23.6 23.6 0 0 1-2.98 1.62c-1.45.66-1.46 2.25.18 2.63 1.73.39 3.52-.65 4.69-1.9a.08.08 0 0 1 .1 0 .08.08 0 0 1 .03.09l-.62 1.64a.25.25 0 0 0 .05.26.26.26 0 0 0 .25.08c.52-.12.9-.37 1.13-.77 3.25-3.03 2.82-8.12 2.4-12.06-.01-.09-.06-.11-.13-.07l-.13.08c-.65.39-2.15 1.29-2.18 1.91a.14.14 0 0 0 .09.14.14.14 0 0 0 .16-.05c.06-.08.15-.12.26-.1.13.01.13.05.02.12l-.55.31a.15.15 0 0 0-.08.12c-.06.8-.21 1.58-.44 2.34-.54 1.77-2.77 2.54-4.44 2.49a.54.54 0 0 0-.3.06c-.12.08-.18.18-.15.3a.46.46 0 0 0 .34.35c.87.21 1.8.15 2.8-.19Zm1.94 1.69c-1.11 1.75-3.81 3.87-5.96 2.54a.09.09 0 0 1-.04-.1v-.02l.03-.03a.09.09 0 0 1 .05-.02c1.63-.01 4.84-.87 5.77-2.4.02-.03.04-.04.08-.03a1.67 1.67 0 0 1 .07.04.02.02 0 0 1 0 .02Z" fill="url(#cy0aa4pyo)" /><path d="M25.86 39.13c-.01.13-.1.21-.25.26-.12.03-.13 0-.05-.08l.22-.22c.07-.06.1-.05.08.04ZM11.53 43.2a.09.09 0 0 1-.04-.1.09.09 0 0 1 .08-.07c1.63-.01 4.84-.87 5.77-2.4.02-.03.04-.04.08-.03a1.41 1.41 0 0 1 .07.03v.02c-1.11 1.76-3.81 3.88-5.96 2.55Z" fill="#ABB1CA" /><defs><linearGradient id="ay0aa4pyo" x1="34.71" y1="8" x2="34.71" y2="37.93" gradientUnits="userSpaceOnUse"><stop stop-color="#EF3C26" /><stop offset="1" stop-color="#911A1C" /></linearGradient><linearGradient id="by0aa4pyo" x1="15.78" y1="22.38" x2="15.78" y2="44" gradientUnits="userSpaceOnUse"><stop stop-color="#272C64" /><stop offset="1" stop-color="#184888" /></linearGradient><linearGradient id="cy0aa4pyo" x1="15.78" y1="22.38" x2="15.78" y2="44" gradientUnits="userSpaceOnUse"><stop stop-color="#272C64" /><stop offset="1" stop-color="#184888" /></linearGradient></defs></svg>