<?xml version='1.0' encoding='utf-8'?>
<!-- by TradeStack -->
<svg width="56" height="56" viewBox="0 0 56 56" xmlns="http://www.w3.org/2000/svg"><path fill="#F0F3FA" d="M0 0h56v56H0z" /><path d="M24.14 16.44a3.1 3.1 0 0 0-.8 1.7c-.03.14-.08.16-.18.06a3.45 3.45 0 0 0-.53-.48.15.15 0 0 1-.06-.1c0-.03 0-.07.02-.1.3-.43.63-.8.98-1.15.1-.1.23-.16.38-.17.04 0 .08 0 .12.02.15.04.17.11.07.22ZM42 22.51v1.75a2.09 2.09 0 0 1-1.3-1.34c-.2-.56-.05-1.19-.47-1.66a.07.07 0 0 0-.1 0l-.01.03c-.05.3-.15.58-.3.83-.03.05-.06.05-.08 0a16.7 16.7 0 0 1-.76-2.14.23.23 0 0 0-.1-.14 2.77 2.77 0 0 0-.87-.36c-.22-.05-.4.1-.58.21a.06.06 0 0 1-.05 0 .06.06 0 0 1-.03-.05c-.04-.89.14-1.64-.57-2.36-.02-.01-.02-.03 0-.05l.02-.03h.02a7.05 7.05 0 0 1 1.7 1.95c.1.15.24.28.42.39.41.24.88-.45 1.1-.72.26-.34.7-.17.86.17.06.11.09.23.1.37.04.38.33.8.35 1.07.03.49.07.8.1.97.07.37.26.74.55 1.11ZM15.41 36.27c-.04-.03-.06-.07-.04-.13.07-.24.25-.5.54-.3a.27.27 0 0 1 .08.37c-.13.2-.32.21-.58.06Z" fill="#C5B864" /><path fill-rule="evenodd" d="M42 14.65v-.76a9.52 9.52 0 0 0-1.31-.12c-.22 0-.4-.03-.54-.11a5.44 5.44 0 0 0-.78-.35c-.24-.09-.5-.3-.55-.57-.02-.1-.05-.1-.08 0-.1.31-.09.6.06.87.03.07.02.09-.05.05a.88.88 0 0 1-.36-.32c-.2-.29-.4-.57-.64-.83a.22.22 0 0 1-.05-.14l-.01-.3c0-.1-.03-.1-.06 0-.21.6-.13 1.14.26 1.61.11.14.08.18-.08.1a.73.73 0 0 1-.25-.17c-.07-.08-.09-.07-.04.02.4.75 1.33.76 2.07.64a5.21 5.21 0 0 1 1.73.05.07.07 0 0 1 .02.07c0 .02-.01.03-.03.03-.08.06-.18.11-.28.15-1.55.5-3.09.6-4.63.3-.88-.18-2.9-.43-3.45.52-.32.57-.6 1.33-.8 2.29-.03.14-.16.32-.26.42a10.4 10.4 0 0 0-1.44 1.62c-.3.46-.74 1.22-1.31 2.29-.15.28-.24.56-.34.85-.07.22-.14.45-.24.67-.06.13-.1.12-.1-.02a15.7 15.7 0 0 1 .04-3.5c.03-.21-.02-.56-.13-1.06-.06-.27-.1-.7-.1-1.25 0-.33-.07-.57-.2-.73l-1.13-1.25a.22.22 0 0 1-.06-.15c0-.35-.03-.7-.1-1.06-.03-.12-.1-.18-.21-.19-.08 0-.09.02-.03.07.07.06.11.13.14.21.02.08 0 .1-.07.05-.09-.07-.14-.15-.14-.25a.1.1 0 0 0-.07-.1l-.28-.1c-.14-.04-.15-.02-.04.07.13.1.24.22.33.35v.04l-.03.02c-.03.02-.05.01-.07-.01a1.15 1.15 0 0 0-.48-.42.13.13 0 0 0-.15.02l-.16.13c-.03.02-.03.05 0 .07.21.16.54.55.34.83-.05.07-.09.07-.12-.02a.26.26 0 0 1 .01-.2c.02-.03 0-.05-.02-.06h-.03a.1.1 0 0 0-.09.05c-.19.4.18.64.51.76.05.02.09.05.12.1.31.42.48.85.5 1.27a2.3 2.3 0 0 0 .13.65.08.08 0 0 0 .07.02l.03-.01c.1-.06.17-.13.25-.21h.02l.04.01-.33.44c-.05.05-.1.06-.15.03l-.38-.2c-.05-.03-.1-.03-.14.02l-.2.18a.16.16 0 0 1-.2.01c-.33-.23-.53-.57-.73-.9l-.2-.34a.08.08 0 0 1 0-.1l.51-.85a.07.07 0 0 0 0-.07.07.07 0 0 0-.06-.03c-.74.07-1.4.84-1.68 1.46-.18.42-.3.84-.39 1.28a.4.4 0 0 0-.03-.22.05.05 0 0 0-.08-.02c-.3.24-.62.83-.2 1.12a.2.2 0 0 0 .27-.06c.13-.22.23-.44.29-.67a.1.1 0 0 1 .12-.07.1.1 0 0 1 .05.02c.12.09.2.2.24.34a.2.2 0 0 0 .1.12l.71.35a.14.14 0 0 0 .17-.03l.1-.11c.04-.04.05-.04.05.02 0 .05-.02.08-.06.1-.52.36-.68.87-.48 1.52.11.36.21.74.3 1.13.05.23.13.45.2.67.1.28.2.56.24.86a22.12 22.12 0 0 1 .18 2.95.17.17 0 0 1-.05.06c-.2.15-.41.27-.64.34-.52.17-1.1.34-1.73.5a.53.53 0 0 1-.3-.01 4.34 4.34 0 0 0-1.22-.25 2.5 2.5 0 0 0-1.1.26c-.05.02-.06.05-.03.1.23.32.2.67-.11 1.04a6.3 6.3 0 0 1-1.65 1.37c-.13.08-.14.07-.02-.04.41-.36 2.12-1.94.86-2.37-1.15-.4-2.62-.15-3.79.12-.6.14-.6.22.02.25a11.65 11.65 0 0 1 2.53.45v.03c-.14.18-.3.3-.51.36-1.1.34-1.95.92-2.56 1.75-.2.28-.42.49-.63.63-.37.24-.77.48-1.2.73a4.3 4.3 0 0 1-2.72.53l-.65-.08v.4a4.56 4.56 0 0 0 4.6-.22.08.08 0 0 1 .07.04l.01.04.07.36c.06.23.11.45.06.7-.08.44-.06.9.05 1.41.05.24.02.48-.02.71l-.03.3a.37.37 0 0 0 .18.35c.24.14.46.3.67.47.39.31.65.2 1 .06l.2-.08c.1-.04.22-.1.32-.19l1.2-1.02c.2-.19.44-.3.72-.33.05 0 .1 0 .14.02.79.42 1.6.73 2.4.94.04 0 .05.02.04.05-.07.42-.08.87-.03 1.34a.7.7 0 0 1-.06.32l-.11.25c-.2.43-.4.85-.49 1.3-.12.6-.5 1.13-1.16 1.6a.26.26 0 0 0-.08.09c-.2.38-.46.67-.78.86a3.37 3.37 0 0 0-.87.85.1.1 0 0 0 .05.1 10.17 10.17 0 0 1 1.78.07c.1.01.23-.03.4-.14.16-.11.28-.29.39-.46.05-.08.1-.16.17-.24.09-.12.16-.25.22-.41a6.57 6.57 0 0 1 2.03-2.83c.28-.26.52-.6.54-1a3.76 3.76 0 0 1 .12-.78l.04.37c.01.17.06.18.15.04.17-.28.64-.96 1.03-.84a4.51 4.51 0 0 0 .44.1.09.09 0 0 0 .06-.11c-.23-.6-1.05-1.25-1.56-1.5-.2-.09-.36-.25-.5-.42-.1-.15-.1-.16.05-.05.22.17.46.33.72.44a6.86 6.86 0 0 1 1.55.9h.02v-.01c.24-.52.57-.96 1-1.33.2-.17.23-.15.08.07l-.05.07a6.06 6.06 0 0 0-1.2 2.4c-.1.6-.4 1.15-.73 1.65-.23.35-.26.75-.29 1.15-.03.38-.05.77-.26 1.12l-.6 1.05c-.12.2-.27.37-.41.52-.24.26-.47.5-.55.97a.08.08 0 0 0 .02.07.08.08 0 0 0 .07.03 21.4 21.4 0 0 0 1.97-.16c.57-.07.53-.65.41-1.05a1.03 1.03 0 0 1-.03-.4c.08-.78.16-1.48.78-1.96.17-.13.32-.29.46-.47.1-.13.21-.25.33-.36.15-.16.3-.31.42-.5.4-.69.97-1.38 1.65-1.79a.34.34 0 0 0 .17-.28c.02-.52 0-1.1-.06-1.72-.06-.71.06-1.39.35-2.03a.84.84 0 0 0 .01-.36 5.06 5.06 0 0 0-.72-1.77h.03c.33.47.6.93.8 1.4.05.11.09.11.12 0l.33-1.35a.37.37 0 0 0-.06-.3c-.13-.2-.32-.28-.5-.36-.21-.1-.42-.19-.58-.43a.2.2 0 0 0-.1-.09l-.24-.06a.65.65 0 0 1-.43-.23.27.27 0 0 0-.14-.1 6.27 6.27 0 0 1-.7-.23c-.87-.37-.95-1-1.05-1.84 0-.02 0-.03.03-.03.02 0 .03 0 .03.02.11.46.25.85.42 1.16.22.41.95.67 1.4.76.06.01.1.04.14.08.12.16.3.2.45.25.17.04.33.07.39.25.03.09.1.15.18.2l.1.03c.36.17.66.3.87.69.02.04.05.07.1.1.27.17.54.35.8.54a.3.3 0 0 0 .3.04c.04-.01.07 0 .07.06 0 .3-.04.56-.27.78-.1.1-.13.22-.09.4.01.05.04.07.1.05.45-.2.82-.45 1.12-.75.2-.2.25-.46.18-.8-.02-.06 0-.08.07-.05l.1.08a.1.1 0 0 0 .06.05.1.1 0 0 0 .07-.02c.13-.1.2-.2.25-.34a.16.16 0 0 0-.05-.18c-.5-.37-1-.78-1.49-1.24a.75.75 0 0 0-.23-.15c-.22-.1-.36-.25-.5-.42-.1-.11-.2-.22-.31-.31a5.68 5.68 0 0 0-1.47-.75.8.8 0 0 1-.3-.2 1.12 1.12 0 0 0-.27-.18.26.26 0 0 1-.16-.21 33.63 33.63 0 0 1-.1-2.05 71.98 71.98 0 0 1 .22 1.63c.01.13.04.25.08.37a.2.2 0 0 0 .1.11c.1.05.17.12.25.18.09.08.18.15.3.2a14.59 14.59 0 0 1 .98.41.03.03 0 0 0 0-.02c-.05-.34-.1-.65-.13-.95-.05-.46-.03-.46.05 0l.18 1c0 .04.03.08.07.1l.24.16a2 2 0 0 1 .38.37l.2.21c.09.09.19.14.3.2.1.04.2.1.28.17.5.45 1 .88 1.5 1.3a.28.28 0 0 1 .07.34c-.12.2-.27.38-.45.52a.23.23 0 0 0-.08.1l-.03.1c-.03.1-.06.2-.14.3-.4.44-.85.73-1.33.89a.28.28 0 0 1-.34-.4 8.33 8.33 0 0 1 .41-.74.05.05 0 0 0-.02-.03l-1.03-.68h-.02a.02.02 0 0 0-.01.01c-.07.56-.2 1.08-.4 1.55-.11.27-.17.54-.19.81a10.19 10.19 0 0 0 .05 1.76.05.05 0 0 0 .06.02l.02-.02c.53-.65.97-.98 1.84-1.58 1.26-.87 2.05-2.16 2.84-3.43.11-.2.23-.38.35-.56a.89.89 0 0 0 .15-.37 16.05 16.05 0 0 1 1.5-5.03 8.04 8.04 0 0 0 1.37-.48c.08-.04.12-.1.1-.2l-.07-.55c-.02-.15-.1-.21-.25-.18a.88.88 0 0 0-.44.26c-.32.34-.64.66-1.05.89-.67.36-1.38.6-2.13.71-.67.1-1.27-.05-1.67-.63a5.67 5.67 0 0 1-.94-2.18h.04v.01c.23.74.61 1.4 1.14 2.01.36.4.81.58 1.36.5a4.97 4.97 0 0 0 2.12-.78c.3-.2.55-.45.79-.7.29-.3.57-.58.95-.78a.18.18 0 0 1 .24.07 3 3 0 0 1 .36 1.37l.04.43c.12.9 1.3 1.56 2.08 1.8.16.05.25 0 .28-.18.06-.5-.06-.92-.37-1.25-.29-.3-.56-.6-.82-.92a.49.49 0 0 1-.11-.3v-.06c-.04-.78-.08-1.57-.4-2.3a3.11 3.11 0 0 1-.21-.8.22.22 0 0 0-.09-.15c-.2-.14-.43-.23-.68-.25-.06 0-.1 0-.15.04l-.61.42a.1.1 0 0 1-.15-.06 5.1 5.1 0 0 1 0-1.56v-.12c.1-.98-1.2-1.94-2.12-1.83a6.3 6.3 0 0 0-1.26.28.1.1 0 0 1-.07-.04.1.1 0 0 1-.02-.04c-.17-.6-.03-1.08.44-1.45.63-.5 1.43-.32 2.18-.15.28.06.55.12.8.15 1.54.16 3.02 0 4.46-.48.14-.05.31-.14.52-.29Zm-16.35-.21c.16.1.3.24.4.4.01.03.03.03.05.02l.03-.04v-.05a.88.88 0 0 0-.44-.42h-.03a.07.07 0 0 0-.02.03c-.02.02-.01.04.01.06Zm1.07 9.25a76.67 76.67 0 0 1-.33 1.87c.33-.98.5-1.85.51-2.6.02-.47-.09-.96-.3-1.46a1.67 1.67 0 0 1-.1-.34c-.05-.23-.1-.44-.35-.6-.07-.03-.09-.02-.05.06.11.2.18.42.2.63.02.18.09.34.16.5.08.18.16.36.18.56 0 .14.04.28.08.42.06.23.06.56 0 .96Zm-3.26 7.26c0-.02 0-.03.02-.05v-.01h.02a6.95 6.95 0 0 1-.55 2.02 1.8 1.8 0 0 0-.1.98c.01.1-.01.1-.07.03-.2-.25-.34-.55-.16-.87.34-.6.62-1.3.84-2.1Zm-3.64 2.5c-.27-.75-.46-1.53-.57-2.32-.03-.2-.04-.2-.05 0 0 .75.07 1.54.31 2.16.08.23-.01.42-.19.56a9.1 9.1 0 0 1-.23.17c-.23.17-.47.33-.65.58-.39.51-.74 1.05-1.05 1.61 0 .02 0 .03.02.03h.01c.32-.48.66-.95 1.03-1.42.12-.14.25-.26.39-.36.38-.25.7-.5.96-.88a.14.14 0 0 0 .02-.13Zm-2.52-1.8c.07.08.1.19.1.3a.2.2 0 0 1-.09.17l-.37.24c-.07.05-.1.03-.08-.06.06-.27.19-.53.37-.77.03-.03.05-.03.07.01v.1Zm11.1 3.5c-.11.19-.23.39-.45.46a5.13 5.13 0 0 0-1.32.7l.02.02c.01.03.03.03.05.02.42-.22.85-.35 1.3-.4.06 0 .1-.02.12-.06.17-.24.3-.49.38-.75.07-.2.05-.22-.07-.03l-.03.04ZM15.07 36.3c.15-.44.59-.93 1.07-.6.05.02.06.07.05.12l-.1.43a.28.28 0 0 1-.14.18c-.25.15-.53.14-.84-.02-.05-.03-.06-.06-.04-.11Zm11.97.83c.23-.3.47-.61.75-.89.02 0 .02-.02 0-.04h-.02a5.6 5.6 0 0 0-1.24 1.3c-.22.28-.45.58-.71.85-.01.01-.02.02 0 .04h.02c.5-.35.85-.8 1.2-1.26Zm-5 1.15v.01h-.02c-.02-.01-.02-.05 0-.1a4.43 4.43 0 0 1 .5-.85l.03-.05a7.2 7.2 0 0 1 .65-.75c.05-.03.08-.04.1-.03a.02.02 0 0 1 0 .03l-1.26 1.74Z" fill="#C5B864" /></svg>