<!-- by TradeStack --><svg width="56" height="56" viewBox="0 0 56 56" xmlns="http://www.w3.org/2000/svg"><path fill="#F0F3FA" d="M0 0h56v56H0z"/><path fill-rule="evenodd" d="M4.5 25.5v5h1.14v-2h.61a2 2 0 0 1 .52.54c.22.31.62 1.1.79 1.46H9c-.23-.6-.8-1.79-1.39-2.13.47-.24.8-.76.8-1.37 0-.83-.61-1.5-1.36-1.5H4.5Zm1.23.88v1.21h.86c.3 0 .55-.27.55-.6 0-.34-.24-.6-.55-.6h-.86Zm3.34 4.12 2.1-5h1.38l2.38 5h-1.36l-.45-1h-2.34l-.42 1H9.07Zm2.14-2h1.47l-.76-1.7-.71 1.7Zm3.79 2v-5h1.1l2.9 3v-3h1v5h-.9L16 27.41v3.09h-1Zm6.73 0v-5h2.94a2.4 2.4 0 0 1 2.23 2.48 2.46 2.46 0 0 1-2.23 2.52h-2.94Zm.77-1v-3h1.71c.43.04 1.29.38 1.29 1.49 0 1.1-.86 1.46-1.29 1.51H22.5Zm24-4v5h2.85a2.42 2.42 0 0 0 2.15-2.52 2.36 2.36 0 0 0-2.15-2.48H46.5Zm1.05 1.05v3.06H49c.37-.04 1.1-.42 1.1-1.54 0-1.13-.73-1.49-1.1-1.52h-1.46ZM32.5 26v.92a5.1 5.1 0 0 0-2.05-.36c-.74 0-1.67.71-1.67 1.55 0 .84 1.04 1.37 1.67 1.37.5 0 .85-.23.96-.35v-.64h-.91v-1h2v2.25c-.29.53-1.37.75-2.05.75-.68 0-2.95-.7-2.95-2.38s1.64-2.62 2.95-2.62c1.05 0 1.8.34 2.05.5Zm9-.51v5h4v-.94h-2.75V25.5H41.5Z" fill="#86754E"/><path fill-rule="evenodd" d="M5 25v5h1v-2h.74a2 2 0 0 1 .53.54c.21.31.6 1.1.78 1.46h1.43c-.22-.58-.76-1.71-1.32-2.1.5-.21.84-.76.84-1.4 0-.83-.57-1.5-1.32-1.5H5Zm1 1v1h1.4c.44 0 .6-.22.6-.5s-.16-.5-.6-.5H6Zm3.54 4 2.1-5h1.38l2.38 5h-1.36l-.44-1h-2.34l-.43 1H9.54Zm2.14-2h1.47l-.76-1.7-.71 1.7Zm3.82 2v-5h1.08l2.77 3v-3h1.15v5h-1l-2.83-3.09V30H15.5Zm6.5 0v-5h2.85c.72.06 2.15.64 2.15 2.48A2.42 2.42 0 0 1 24.85 30H22Zm1-1v-3h1.71c.43.04 1.29.38 1.29 1.49 0 1.1-.86 1.46-1.29 1.51H23Zm24-4v5h2.85A2.42 2.42 0 0 0 52 27.48 2.36 2.36 0 0 0 49.85 25H47Zm1 1v3h1.71A1.45 1.45 0 0 0 51 27.49c0-1.1-.86-1.45-1.29-1.49H48Zm-15-.5v.93c-.8-.3-1.3-.43-2.05-.43-.74 0-1.67.78-1.67 1.62 0 .84 1.04 1.37 1.67 1.37.5 0 .94-.23 1.05-.35V28h-1v-1h2v2.25c-.29.53-1.37.75-2.05.75-1.04 0-2.95-.7-2.95-2.38S29.64 25 30.95 25c1.05 0 1.8.34 2.05.5Zm9-.5v5h4v-1h-3v-4h-1Z" fill="#005480"/><path d="M40.86 26.85a1.64 1.64 0 0 0-.85-.41 2.27 2.27 0 0 0-1.35.21l-.01.01h-.02c-.47.33-1.24.82-2 1.22-.38.2-.75.38-1.08.5-.33.14-.6.2-.78.2-.7 0-1.12-.52-1.27-.84 0-.33.06-.64.16-.94l.11.18c.2.29.5.56.9.56.21 0 .47-.09.74-.2.27-.11.58-.27.88-.44.62-.34 1.25-.75 1.64-1.03a3.7 3.7 0 0 1 1.09-.42c.36-.08.7-.07.95.06.4.37.72.83.89 1.34Zm.14 1.03-.06.03c-.23-.6-.61-.83-1-.9-.4-.07-.81.04-1.07.17-.49.33-1.27.82-2.03 1.23a11 11 0 0 1-1.13.53 2.8 2.8 0 0 1-.94.23c-.44 0-.8-.16-1.07-.37.16.4.41.78.74 1.1.33.18.87.37 1.39.22.35-.1.93-.4 1.54-.73.6-.34 1.19-.7 1.55-.94.16-.11.55-.32.94-.32.4 0 .75.25.95.66.1-.29.18-.6.19-.91Zm-.52 1.53c-.08-.47-.35-.7-.62-.7s-.57.16-.69.24c-.38.24-.98.62-1.6.96a9.2 9.2 0 0 1-1.83.82c.46.17.97.27 1.51.27a3.9 3.9 0 0 0 3.23-1.6Zm-1.5-4.55a4.2 4.2 0 0 0-1.73-.36c-1.42 0-2.65.68-3.29 1.69.05.14.11.3.2.43.14.2.3.34.52.34.1 0 .3-.05.56-.16a21.3 21.3 0 0 0 2.45-1.43l.01-.01a4.15 4.15 0 0 1 1.28-.5Z" fill="#86754D"/></svg>