<!-- by TradeStack --><svg width="56" height="56" viewBox="0 0 56 56" xmlns="http://www.w3.org/2000/svg"><path fill="#F0F3FA" d="M0 0h56v56H0z"/><path d="M27.32 32.37a12.25 12.25 0 0 1-3.02 6.15 13.13 13.13 0 0 1-7.9 4.13c-.96-2.4-1.16-5-.58-7.5.2-.95.5-1.82.98-2.59-2.73 3.18-2.92 6.15-1.85 9.61.2.58.39 1.16.68 1.73l.1.1h.48c3.6-.38 6.73-2.02 9.06-4.52a13.3 13.3 0 0 0 3.02-5.19A14.12 14.12 0 0 0 40.37 44h.49l.2-.37c.48-1.16.77-2.12.97-3.37a11 11 0 0 0-2.44-7.97c.49.86.78 1.82.97 2.78.2.96.4 1.92.4 2.89 0 .96-.1 1.82-.2 2.69a7.9 7.9 0 0 1-.58 2.01 13.31 13.31 0 0 1-7.8-4.03l-.1-.1c-1.55-1.73-2.82-3.94-3.01-6.15-.1-1.44.1-2.98.97-4.32.3-.48.68-1.06 1.07-1.44 0 1.92.4 3.84 1.17 5.67a14.37 14.37 0 0 0 3.6 5.09c1.56 1.44 2.63.77.69-1.06a13.98 13.98 0 0 1-3.12-4.51 12.5 12.5 0 0 1-1.07-5.96v-.1c0-.77-.1-1.15-.4-1.25h-.28c-.2.1-.4.2-.69.48a9.62 9.62 0 0 0-2.04 2.4c-.3.49-.59.97-.78 1.54a7.62 7.62 0 0 0-.78-1.53c-.3-.49-1.56-2.5-2.43-2.8-.4-.18-.69 0-.78.78 0 1.92-.4 3.75-1.08 5.47a13.98 13.98 0 0 1-3.11 4.52c-2.05 2.02-.88 2.6.78.96a14.78 14.78 0 0 0 3.4-5 13.63 13.63 0 0 0 1.17-5.57c.4.39.69.87.98 1.35.68 2.3.88 3.74.78 5.28Zm1.85-8.84a13.9 13.9 0 0 1 3.12-5.76 13.99 13.99 0 0 1 8.47-4.42 14.48 14.48 0 0 1 .97 5.19c0 2.4-.58 4.6-1.65 6.53a14.36 14.36 0 0 1-4.1 4.61 10.49 10.49 0 0 1-.97-4.51c0-.39.1-.77.1-1.16a9.6 9.6 0 0 1 3.02-5.67c-3.4 2.21-4.77 5.2-4.19 9.13.2 1.15.68 2.3 1.27 3.46l.29.58.58-.39a14.49 14.49 0 0 0 5.07-5.47A14.89 14.89 0 0 0 43 18.53c0-1.05-.1-2.11-.3-3.17-.19-1.05-.58-2.01-.97-2.98l-.1-.38h-.48a15.1 15.1 0 0 0-9.74 4.9 15.88 15.88 0 0 0-3.31 5.86 16.69 16.69 0 0 0-3.31-5.86 15.33 15.33 0 0 0-9.84-4.9h-.49a23 23 0 0 0-1.17 3.36c-.2 1.06-.29 2.12-.29 3.17 0 2.6.68 5 1.85 7.12a14.49 14.49 0 0 0 5.07 5.47l.58.39.3-.58a10.55 10.55 0 0 0 1.26-3.46c.58-3.84-.78-6.82-4.1-9.03h-.09l.1.1a9.22 9.22 0 0 1 2.92 5.57 9.62 9.62 0 0 1-.88 5.67 14.7 14.7 0 0 1-4.09-4.71 13.58 13.58 0 0 1-1.36-9.42c.2-.77.39-1.54.68-2.3a13.99 13.99 0 0 1 11.88 10.18c.59 2.5 1.46 2.4 2.05 0Z" fill="#29AC44"/></svg>