<!-- by TradeStack --><svg width="56" height="56" viewBox="0 0 56 56" xmlns="http://www.w3.org/2000/svg"><path fill="#F0F3FA" d="M0 0h56v56H0z"/><path d="M24.37 11h2.37a.3.3 0 0 1 .28.2.31.31 0 0 1-.07.33l-5.06 5.1a.34.34 0 0 1-.55-.11.35.35 0 0 1-.01-.22l1.1-3.83A2.04 2.04 0 0 1 24.37 11ZM14.95 13.7l-.87 2.16c-.12.3-.13.63-.03.92.73 2.11 2.12 2.7 4.17 1.77a.22.22 0 0 1 .25.04.24.24 0 0 1 .07.25c-.58 1.93-.51 4.66-3.08 4-3.26-.81-4.22-2.95-2.87-6.39.57-1.44 1.28-2.42 2.13-2.94a.16.16 0 0 1 .2.02.15.15 0 0 1 .03.17ZM29.76 24.93c-1.2.26-2.2-.17-2.99-1.29a3.94 3.94 0 0 0 1.6-2.5 1.26 1.26 0 0 0-.32-1.08 1.22 1.22 0 0 0-1.06-.37c-.47.07-1.01.28-1.63.62-.2.1-.35.26-.45.46-1.76 3.58-3.04 5.53-2.42 8.83.6 3.2 2.23 5.92 4.88 8.15.04.46 0 .9-.13 1.34-4.35-1.47-7.12-4.35-8.3-8.64a.2.2 0 0 0-.16-.15.21.21 0 0 0-.2.09 56.75 56.75 0 0 0-6.2 11.72.2.2 0 0 1-.22.12.18.18 0 0 1-.15-.2c.11-1.4.37-2.86.77-4.4 1.81-7.08 3.88-12.84 7.3-18.84.24-.42.58-.78 1-1.03 2.87-1.78 6.89-3.14 9.9-1.84 2.25.98 2.46 3.72 1.45 5.8a8.8 8.8 0 0 1-2.67 3.21Z" fill="#D70545"/><path d="M35.56 18.91c-.86 1.5-.93 3.07-.16 3.53.78.46 2.1-.38 2.97-1.87.86-1.49.93-3.07.16-3.53-.78-.46-2.1.38-2.97 1.87ZM26.77 23.64c.8 1.12 1.79 1.55 3 1.3l1.6.15a.45.45 0 0 1 .4.38c.01.07 0 .14-.01.2l-.73 2.57a.7.7 0 0 1-.68.5 6.59 6.59 0 0 1-4.43-1.67c-.12-.1-.33-.14-.61-.1.5-.14.44-.63-.18-1.49a5.93 5.93 0 0 1 1.66-4.25.13.13 0 0 1 .14.06c.02.03.02.05.02.08l-.18 2.27ZM43.22 37.4a.2.2 0 0 1 .23.08.2.2 0 0 1-.03.24 8 8 0 0 1-7.13 1.92c-5.65-1.19-6.43-8.4-4.13-12.8a8.02 8.02 0 0 1 6.07-4.27c2.74-.49 5.89.96 5.77 4.13-.17 4.2-4.91 6.07-8.5 6.35a.26.26 0 0 1-.26-.37c.02-.06.06-.1.12-.12 1.65-.8 4.98-3.14 4.56-5.24a.86.86 0 0 0-.16-.35.97.97 0 0 0-.3-.27 1.14 1.14 0 0 0-.4-.13 1.26 1.26 0 0 0-.43 0c-2.49.51-3.46 3.2-3.68 5.4-.49 5.13 4.01 7.32 8.27 5.43Z" fill="#F39800"/><path d="M25.13 25.48c.62.86.68 1.35.18 1.49l-2.4.33a.2.2 0 0 1-.2-.13.2.2 0 0 1 .07-.23l2.35-1.46Z" fill="#D70545"/><path d="M27.24 39.1c.13-.44.17-.9.13-1.35l1.76-5.5a.34.34 0 0 1 .3-.23.32.32 0 0 1 .32.2l1.14 2.9c.05.12.05.25 0 .37l-3.77 9.36a.24.24 0 0 1-.28.14.25.25 0 0 1-.19-.27l.59-5.63Z" fill="#F39800"/></svg>