<?xml version='1.0' encoding='utf-8'?>
<!-- by TradeStack -->
<svg width="56" height="56" viewBox="0 0 56 56" xmlns="http://www.w3.org/2000/svg"><path fill="#F0F3FA" d="M0 0h56v56H0z" /><path d="m30.28 18.88-.08 2.05c0 .15-.06.17-.17.07l-1.02-1.02a.37.37 0 0 1 0-.53l3.1-3.09a.29.29 0 0 1 .2-.08c.07 0 .14.03.2.08l9.9 9.87c.33.33.78.35 1.33.04l.02-.02c.33-.55.32-1-.03-1.34l-5.12-5.1a.5.5 0 0 1-.15-.34c-.03-.83-.04-1.84-.03-3.05 0-.38-.04-.64-.13-.78-.37-.57-1.2-.66-1.62.03-.26.41-.33.87-.23 1.38.1.53.02.66-.22.41l-3.1-3.12a1.15 1.15 0 0 0-1.64 0l-4.03 4.02a.18.18 0 0 1-.25 0l-1.57-1.57a1.03 1.03 0 0 0-1.46 0L11.34 29.57c-.45.45-.45.9 0 1.36l.19.19a.79.79 0 0 0 1.12 0l12.25-12.2c.07-.07.14-.07.21 0l12.16 12.1c.46.45.9.45 1.32-.02l.02-.03c.44-.46.42-.91-.04-1.37l-6.28-6.24c-.1-.1-.29-.32-.29-.45v-4.12c0-.5-.34-.81-.84-.77h-.04c-.53.05-.81.33-.84.86Zm-4.2 2.08c-.4-.42-.76-.63-1.05-.63-.3 0-.65.2-1.06.62-3.25 3.31-6.4 6.5-9.44 9.55-.31.32-.5.76-.5 1.21-.02.84-.03 2.37-.03 4.6 0 1.74.83 2.62 2.5 2.65a150 150 0 0 0 4.54.02c2.53-.04 2.46-2.2 2.4-4.2-.06-1.76-.12-3.4 1.57-3.39 1.68 0 1.62 1.64 1.56 3.39-.08 2-.15 4.16 2.37 4.21.96.02 2.47.02 4.54 0 1.67-.02 2.51-.9 2.52-2.64l-.01-4.6c-.01-.45-.2-.89-.51-1.2a2007.8 2007.8 0 0 1-9.4-9.6Z" fill="#D7C129" /></svg>