<!-- by TradeStack --><svg width="56" height="56" viewBox="0 0 56 56" xmlns="http://www.w3.org/2000/svg"><path fill="#F0F3FA" d="M0 0h56v56H0z"/><path d="M26.3 16h1.07l.06 14.9c0 .04 0 .07-.02.1a.15.15 0 0 1-.07.05.16.16 0 0 1-.17-.03l-11.2-9.53a.53.53 0 0 1-.18-.4.52.52 0 0 1 .18-.4A18.68 18.68 0 0 1 26.3 16Z" fill="#FE4957"/><path d="M28.52 16h1c3.92.44 7.35 1.98 10.28 4.63a.66.66 0 0 1 .21.5.65.65 0 0 1-.23.5l-10.9 9.27a.2.2 0 0 1-.12.05c-.04 0-.08 0-.12-.02a.24.24 0 0 1-.13-.22L28.52 16Z" fill="#FC9D3E"/><path d="m29.46 31.64 11.16-9.5a.51.51 0 0 1 .71.06 17.7 17.7 0 0 1 4.23 9.4.35.35 0 0 1-.09.27.36.36 0 0 1-.27.13H29.6a.21.21 0 0 1-.12-.04.2.2 0 0 1-.08-.1.2.2 0 0 1 .06-.22Z" fill="#0BCA7A"/><path d="M15.62 22.51c3.49 2.99 6.97 6.01 10.42 9.03a.26.26 0 0 1-.17.46h-14.9a.52.52 0 0 1-.52-.6 18.07 18.07 0 0 1 3.82-8.83c.45-.56.82-.5 1.35-.06ZM26.27 36H8.34c-.1 0-.19-.08-.25-.2L8 35.63V34h39.75a.2.2 0 0 1 .1.03c.03.02.06.04.08.08.03.03.04.08.06.12 0 .04.01.1 0 .14v1.3c0 .18-.16.33-.29.33H26.27Z" fill="#38366B"/></svg>