<!-- by TradeStack --><svg width="56" height="56" viewBox="0 0 56 56" xmlns="http://www.w3.org/2000/svg"><path fill="#F0F3FA" d="M0 0h56v56H0z"/><path d="M23 22h-2v8c0 1.6 1.33 2 2 2h5v-2h-5v-8Z" fill="#232122"/><path d="M37.5 23.5 36 25c-.5-.5-1-1-2.5-1s-3 1-3 3 2 3 3 3c.8 0 1.67-.33 2-.5V28H33v-2h3.5c.8 0 1 .67 1 1v3.5c-.5.5-2 1.5-4 1.5s-5-1.5-5-5 3-5 5-5c2.1 0 3.5 1 4 1.5ZM40.5 22H38l3 5-3 5h2.5l2-3 2 3H47l-3-5 3-5h-2.5l-2 3-2-3Z" fill="#222021"/><path d="M16.46 32.42 16.92 16 10 40l18-5.47h-9.23c-1.85 0-2.3-1.4-2.3-2.1Z" fill="#FFE455"/><path fill-rule="evenodd" d="M16.46 32.42 16.92 16 10 40l18-5.47h-9.23c-1.85 0-2.3-1.4-2.3-2.1Zm8.7 2.53h-6.4a2.7 2.7 0 0 1-2.21-.97 2.6 2.6 0 0 1-.55-1.56v-.01l.36-12.8-5.7 19.74 14.5-4.4Z" fill="#252022"/></svg>