<!-- by TradeStack --><svg width="56" height="56" viewBox="0 0 56 56" xmlns="http://www.w3.org/2000/svg"><path fill="#F0F3FA" d="M0 0h56v56H0z"/><path d="M29.96 21.13c.27-.2.43-.43.43-.68 0-.8-1.7-1.45-3.78-1.45s-3.77.65-3.77 1.45c0 .24.14.46.4.65l-.01-.08c0-.8 1.5-1.45 3.37-1.45 1.86 0 3.37.65 3.37 1.45l-.01.1Z" fill="#37302F"/><ellipse cx="26.59" cy="20.82" rx="3.38" ry="1.27" fill="#025CAC"/><path d="M29.45 22.93c.24-.17.37-.36.37-.57 0-.68-1.44-1.23-3.2-1.23-1.78 0-3.21.55-3.21 1.23 0 .2.12.39.34.55v-.07c0-.68 1.27-1.23 2.85-1.23s2.86.55 2.86 1.23v.1Z" fill="#37302F"/><ellipse cx="26.59" cy="22.67" rx="2.87" ry="1.08" fill="#025CAC"/><path d="M28.64 24.55c.17-.13.27-.27.27-.41 0-.49-1.03-.88-2.3-.88-1.26 0-2.29.39-2.29.88 0 .14.09.27.24.4v-.06c0-.49.92-.88 2.04-.88 1.13 0 2.05.4 2.05.88v.07Z" fill="#37302F"/><ellipse cx="26.6" cy="24.36" rx="2.05" ry=".77" fill="#025CAC"/><path d="M25.4 25.47c-.86.2-.36.79 0 1.06l1.04 1.03v.78h.77v-.78l.88-1.03c.97-.6.4-.96 0-1.06h-2.7Z" fill="#025CAC"/><path d="M44.7 32a2.64 2.64 0 0 1-2.45-1.34 2.8 2.8 0 0 1-.36-1.42c0-.54.12-1.01.36-1.42.24-.42.57-.75 1-.98.42-.24.9-.35 1.45-.35.5 0 .95.1 1.33.32.4.2.69.52.89.93l-.94.56a1.47 1.47 0 0 0-1.3-.75c-.29 0-.56.07-.8.2-.24.14-.42.33-.56.59-.14.25-.2.55-.2.9s.06.65.2.9.32.45.56.58a1.62 1.62 0 0 0 1.53.02c.23-.12.42-.3.57-.56l.94.56c-.2.4-.5.72-.89.94-.38.21-.82.32-1.33.32ZM30 32v-7h1.84c.68 0 1.2.17 1.56.5.36.33.53.77.53 1.32 0 .37-.07.7-.2.96-.15.26-.34.46-.58.61-.23.14-.48.21-.76.21l.15-.36c.32 0 .6.07.86.22.25.14.45.35.6.62.15.27.23.61.23 1.02 0 .6-.19 1.07-.56 1.4-.38.33-.93.5-1.67.5h-2Zm1-1h.94c.4 0 .7-.1.9-.26.22-.16.32-.42.32-.77 0-.35-.1-.6-.31-.76-.22-.17-.52-.21-.91-.21h-.96v-1h.74c.37 0 .65-.13.85-.29.2-.16.3-.4.3-.72 0-.33-.1-.57-.3-.73a1.3 1.3 0 0 0-.85-.26H31v5ZM48.42 30.88l.02-1.48 2.2-2.4h1.2l-1.88 2.2-.52.53-1.02 1.15Zm-.8 1.12v-7h.98v7h-.99Zm3.18 0-1.54-2.27.62-.95L52 32h-1.2ZM11.2 32a2.61 2.61 0 0 1-2.7-2.7c-.01-.54.1-1 .34-1.4.24-.41.56-.73.97-.96.4-.23.87-.35 1.39-.35.52 0 1 .12 1.4.35.41.23.73.55.96.95.24.4.35.87.35 1.4 0 .52-.11.99-.35 1.4-.23.4-.55.73-.96.96-.4.23-.88.35-1.4.35Zm0-1.06c.29 0 .55-.06.78-.2.23-.13.4-.32.53-.57.14-.25.2-.54.2-.88 0-.34-.06-.63-.2-.88-.12-.25-.3-.44-.53-.57-.23-.13-.49-.2-.77-.2-.3 0-.56.07-.79.2-.22.13-.4.32-.53.57-.13.25-.2.54-.2.88 0 .34.07.63.2.88s.31.44.53.57c.23.14.5.2.78.2ZM4 32v-7h2.16c.47 0 .87.1 1.2.3.33.2.59.49.77.86.18.37.27.82.27 1.33 0 .51-.1.96-.27 1.33-.18.37-.44.65-.77.85-.33.2-.73.33-1.2.33H4.54l.44-.63L5 32H4Zm3.44 0L6.1 29.46h1.04L8.5 32H7.44Zm-2.46-2.49L4.54 29h1.58c.43 0 .75-.23.97-.48.22-.25.33-.59.33-1.03 0-.45-.11-.79-.33-1.03a1.3 1.3 0 0 0-.97-.46H4.54l.46-.54-.02 4.05ZM15.7 25h-1.08v1.67H14v1.15h.62V32h1.07v-4.18h.63v-1.15h-.63V25ZM23.56 25H22.5v1.67h-.62v1.15h.62V32h1.07v-4.18h.63v-1.15h-.63V25ZM35 25h1v7h-1v-7ZM21.42 26.6h-1.06v.43a2.46 2.46 0 0 0-1.46-.44 2.46 2.46 0 0 0-2.2 1.3c-.22.41-.33.87-.33 1.4 0 .52.11.99.33 1.4.22.4.52.73.9.96.38.23.81.35 1.3.35a2.48 2.48 0 0 0 1.46-.44V32h1.06v-5.4Zm-1.79 4.14c-.21.14-.45.2-.73.2-.27 0-.5-.06-.72-.2a1.4 1.4 0 0 1-.5-.57 1.95 1.95 0 0 1-.19-.88c0-.34.07-.63.2-.88.12-.25.28-.44.49-.57.21-.13.46-.2.73-.2a1.31 1.31 0 0 1 1.22.77c.13.25.19.54.19.88 0 .34-.06.63-.19.88-.12.25-.28.44-.5.57ZM41.61 26.6h-1.06v.43a2.5 2.5 0 0 0-1.45-.44 2.46 2.46 0 0 0-2.2 1.3c-.22.41-.33.87-.33 1.4 0 .52.1.99.33 1.4.22.4.52.73.9.96.38.23.81.35 1.3.35a2.48 2.48 0 0 0 1.45-.44V32h1.06v-5.4Zm-1.78 4.14c-.22.14-.46.2-.73.2-.27 0-.51-.06-.73-.2a1.4 1.4 0 0 1-.5-.57 1.95 1.95 0 0 1-.18-.88c0-.34.06-.63.19-.88.12-.25.29-.44.5-.57.2-.13.45-.2.73-.2a1.32 1.32 0 0 1 1.22.77c.12.25.18.54.18.88 0 .34-.06.63-.18.88s-.29.44-.5.57ZM26.77 32a2.61 2.61 0 0 1-2.7-2.7c-.01-.54.1-1 .34-1.4.24-.41.56-.73.96-.96.41-.23.88-.35 1.4-.35.52 0 1 .12 1.4.35.41.23.73.55.96.95a3.03 3.03 0 0 1 .28 2.1h-4.04a1.57 1.57 0 0 0 .62.75c.23.14.5.2.78.2.29 0 .55-.06.78-.2.18-.1.33-.25.45-.43l1.1.43c-.23.38-.54.69-.93.91-.4.23-.88.35-1.4.35Zm-1.48-3.1h2.96a1.6 1.6 0 0 0-.7-1.06c-.23-.13-.49-.2-.77-.2-.3 0-.56.07-.79.2a1.6 1.6 0 0 0-.7 1.06Z" fill="#262629"/></svg>