<?xml version='1.0' encoding='utf-8'?>
<!-- by TradeStack -->
<svg width="56" height="56" viewBox="0 0 56 56" xmlns="http://www.w3.org/2000/svg"><path fill="#F0F3FA" d="M0 0h56v56H0z" /><path d="M48.8 27.66a1.7 1.7 0 0 1 1.37-.66C51.3 27 52 28 52 29.06s-.7 2.1-1.83 2.1c-.6 0-1.08-.29-1.37-.66V33H48v-6h.8v.66Zm2.4 1.4c0-.68-.48-1.34-1.21-1.34-.74 0-1.19.67-1.19 1.35 0 .69.45 1.36 1.19 1.36s1.21-.69 1.21-1.37ZM47 27v3.94h-.8v-.46c-.21.32-.45.52-.85.52-.93 0-1.35-.85-1.35-1.68V27h.8v2.2c0 .7.18 1.1.7 1.1.5 0 .7-.4.7-1.1V27h.8ZM40.96 31A1.94 1.94 0 0 1 39 29c0-1.14.86-2 2-2 1.14 0 2 .86 2 2 0 1.14-.9 2-2.04 2Zm0-.7c.74 0 1.24-.6 1.24-1.3 0-.7-.48-1.3-1.21-1.3-.74 0-1.19.6-1.19 1.3 0 .69.42 1.3 1.16 1.3ZM36.8 27.64c.12-.2.3-.36.49-.47.2-.11.44-.17.71-.17v.84h-.2c-.33 0-.57.08-.74.25-.16.16-.26.44-.26.84V31H36v-4h.8v.64Z" fill="#341F6E" /><path d="M30.27 17c2.17 0 2.36 1.42 2.17 2.13-1.08.53-1.08-.54-2.17-.54-1.1 0-5.83 3.08-7.08 7.97-.54 2.13.55 6.34 2.18 6.38 2.72.07 7.62-5.85 7.07-6.9-.54-1.07-4.35 3.18-5.98 2.65-1.64-.53 4.35-4.78 7.07-4.78 2.72 0 .9 4.64.55 5.3-.55 1.07-1.1 4.26-2.72 4.26-1.31 0-.91-1.06-.55-1.6-1.22 1.8-4.35 2.13-5.44 2.13-1.09 0-3.81-1.06-3.81-5.84 0-5.85 5.99-11.16 8.7-11.16Z" fill="#3C264A" /><path d="M29.7 17c2.18 0 2.37 1.42 2.18 2.13-1.08.53-1.08-.54-2.17-.54-1.1 0-5.83 3.08-7.08 7.97-.54 2.13.55 6.34 2.18 6.38 2.72.07 7.62-5.85 7.07-6.9-.54-1.07-4.35 3.18-5.98 2.65-1.63-.53 4.35-4.78 7.07-4.78 2.72 0 .9 4.64.55 5.3-.55 1.07-1.1 4.26-2.72 4.26-1.31 0-.91-1.06-.55-1.6-1.22 1.8-4.35 2.13-5.44 2.13-1.09 0-3.81-1.06-3.81-5.84C21 22.3 26.99 17 29.7 17Z" fill="#EDB800" /><path d="M19.5 31c-.36 0-.7-.09-1-.26a1.94 1.94 0 0 1-1-1.74 1.94 1.94 0 0 1 1-1.74c.3-.17.64-.26 1-.26.37 0 .7.09 1.01.26.3.17.55.4.72.7A2 2 0 0 1 21.5 29c0 .38-.09.72-.27 1.03-.17.3-.42.54-.72.71-.3.17-.64.26-1 .26Zm0-.87c.32 0 .56-.1.75-.3.19-.22.28-.5.28-.83 0-.35-.1-.62-.28-.83a.95.95 0 0 0-.74-.3c-.32 0-.57.1-.76.3-.19.2-.28.48-.28.83 0 .34.1.62.28.83.19.2.44.3.76.3ZM16.04 28.95c.29.05.52.16.7.35.17.17.26.38.26.61 0 .34-.15.6-.44.8-.3.2-.7.29-1.22.29H13v-4h2.26c.5 0 .9.1 1.19.28.3.19.44.44.44.76a.8.8 0 0 1-.24.58c-.15.16-.36.27-.61.33ZM14 28.62h1.02c.2 0 .35-.04.46-.1a.35.35 0 0 0 .16-.32.35.35 0 0 0-.16-.31.8.8 0 0 0-.46-.1H14v.83Zm1.12 1.6c.2 0 .36-.04.47-.11a.37.37 0 0 0 .17-.33.38.38 0 0 0-.17-.33.83.83 0 0 0-.48-.12H14v.88h1.12ZM10.5 31c-.36 0-.7-.09-1-.26a1.94 1.94 0 0 1-1-1.74 1.94 1.94 0 0 1 1-1.74c.3-.17.64-.26 1-.26.37 0 .7.09 1.01.26.3.17.55.4.72.7A2 2 0 0 1 12.5 29c0 .38-.09.72-.27 1.03-.17.3-.42.54-.72.71-.3.17-.64.26-1 .26Zm0-.87c.32 0 .56-.1.75-.3.19-.22.28-.5.28-.83 0-.35-.1-.62-.28-.83a.95.95 0 0 0-.74-.3c-.32 0-.57.1-.76.3-.19.2-.28.48-.28.83 0 .34.1.62.28.83.19.2.44.3.76.3ZM6.6 31l-1.06-1.51H5V31H4v-4h2.08c.4 0 .75.06 1.03.17.28.1.5.26.64.45a1.05 1.05 0 0 1-.08 1.35c-.2.21-.47.36-.85.45L8 31H6.6ZM5 28.8h1.01c.23 0 .4-.04.5-.13a.44.44 0 0 0 .18-.37.42.42 0 0 0-.17-.36c-.11-.09-.28-.13-.5-.13H5v1Z" fill="#341F6E" /></svg>