<?xml version='1.0' encoding='utf-8'?>
<!-- by TradeStack -->
<svg width="56" height="56" viewBox="0 0 56 56" xmlns="http://www.w3.org/2000/svg"><path fill="#F0F3FA" d="M0 0h56v56H0z" /><path d="M30.22 11c-.92 1.42-3.44 5.2-6.1 9.03-3.1 4.43-5.7 8.4-6.07 12.75.63.01 1.14.3 1.54.52l.14.08c.46.25.91.46 1.6.46.63 0 1.16-.17 1.87-.4l.32-.1c.86-.27 1.9-.56 3.37-.56 1.46 0 2.76.28 3.88.55l.42.1c.96.23 1.71.41 2.37.41.72 0 1.47-.23 2.24-.5l.22-.07c.3-.1.6-.22.89-.3.33-.1.68-.18 1.03-.19-.34-2.85-1.95-5.68-3.45-8.32-1.1-1.95-2.16-3.8-2.6-5.5A85.8 85.8 0 0 1 30.22 11Z" fill="url(#apazbrvxr)" /><path d="M38 33.84c-.2 0-.44.05-.77.15-.25.07-.52.17-.82.27l-.23.08c-.76.27-1.68.57-2.62.57-.8 0-1.72-.23-2.65-.45l-.4-.1a15.3 15.3 0 0 0-3.62-.52 9.26 9.26 0 0 0-3.32.6c-.7.23-1.41.47-2.24.47-.97 0-1.63-.32-2.15-.6l-.13-.08c-.45-.25-.7-.39-1.05-.39 0 .52.03 1.06.1 1.6.5.01.84.13 1.14.23l.19.06c.35.11.85.24 1.9.24a8 8 0 0 0 2.6-.5l.02-.01a9.05 9.05 0 0 1 2.94-.55c1.18 0 2.5.28 3.67.54l.22.05c1.12.25 2.07.47 2.78.47.72 0 1.47-.23 2.24-.5l.22-.08.89-.3c.34-.1.7-.18 1.04-.18.03-.37.05-.73.05-1.07ZM37.8 35.98c-.16.02-.35.07-.57.13l-.82.27-.23.09c-.76.26-1.68.56-2.62.56a15 15 0 0 1-2.98-.48l-.28-.06a16.46 16.46 0 0 0-3.41-.52 8 8 0 0 0-2.6.5h-.02c-.83.27-1.74.56-2.94.56a6.93 6.93 0 0 1-2.49-.37 2.68 2.68 0 0 0-.56-.15c.1.53.25 1.06.42 1.59.53.02.86.15 1.14.26l.1.04c.3.1.64.23 1.4.23.68 0 1.37-.21 2.23-.46l.17-.05c.9-.27 1.95-.56 3.15-.56 1.18 0 2.5.28 3.67.55l.22.05c1.12.25 2.07.47 2.78.47.7 0 1.3-.23 1.92-.5l.18-.07.75-.3c.3-.1.64-.19.99-.2.16-.53.3-1.06.4-1.58Z" fill="#529CC9" /><path d="m36.98 38.7-.19.06c-.2.07-.42.16-.66.27l-.2.08c-.63.27-1.42.58-2.37.58-.85 0-1.92-.25-2.98-.49l-.28-.06a16.46 16.46 0 0 0-3.41-.52c-1.02 0-1.92.25-2.82.51l-.21.06c-.81.24-1.66.5-2.53.5-.91 0-1.4-.15-1.8-.3l-.1-.05a4.9 4.9 0 0 0-.28-.1c.32.7.7 1.38 1.17 2.01l.46.03c1.13 0 1.86-.34 2.7-.73l.03-.01c.88-.4 1.86-.85 3.38-.85a9.4 9.4 0 0 1 4.07 1c.35.14.66.27.96.37.4.14.75.22 1.08.22.59 0 1.4-.16 2.23-.38l.7-.2c.41-.64.76-1.31 1.05-2Z" fill="#529CC9" /><path d="M34.83 42.1c-.64.14-1.28.24-1.83.24-.5 0-1-.12-1.46-.28a18.1 18.1 0 0 1-1.4-.56 8.27 8.27 0 0 0-3.25-.75c-1.26 0-2.05.35-2.9.74l-.06.03c-.74.35-1.55.73-2.7.8.43.43.9.82 1.41 1.16.37-.17.79-.34 1.23-.5a9.26 9.26 0 0 1 3.02-.64c1 0 2.3.4 3.44.84.7.27 1.38.57 1.95.85a9.04 9.04 0 0 0 2.55-1.93Z" fill="#529CC9" /><path d="m30.92 44.58-1-.42a9.54 9.54 0 0 0-3.03-.75 8.15 8.15 0 0 0-3.07.73c1.19.54 2.57.86 4.18.86 1.07 0 2.04-.15 2.92-.42Z" fill="#529CC9" /><path d="M24.36 43.4c-8.44-7.64-2.04-19.47 2.22-24.43-1.48 3-4.44 10.1-4.44 14.34 0 4.25 1.48 8.5 2.22 10.1Z" fill="#F9F1F1" fill-opacity=".3" /><path d="M29.67 18.43c.74 1.94 2.44 6.27 3.33 7.97l.43.8c.93 1.73 2.03 3.78 2.3 6.14-.77.25-1.66.47-2.14.48 0-.17-.01-.35-.03-.52-.22-1.69-.8-3.12-1.44-4.74a30.31 30.31 0 0 1-2.45-10.13Z" fill="#180E0F" fill-opacity=".7" /><defs><linearGradient id="apazbrvxr" x1="29.67" y1="11.53" x2="27.12" y2="32.81" gradientUnits="userSpaceOnUse"><stop stop-color="#0F0C05" /><stop offset="1" stop-color="#5F554C" /></linearGradient></defs></svg>