<?xml version='1.0' encoding='utf-8'?>
<!-- by TradeStack -->
<svg width="56" height="56" viewBox="0 0 56 56" xmlns="http://www.w3.org/2000/svg"><path fill="#004E63" d="M0 0h56v56H0z" /><path d="m23 12.83-2 1.3v18l.14.24-2.05 1.14-.59-.22v-18L12 19.04v18l2.84 1.6 2.28-1.3-3.12-1.6v-15.4l2.5-1.15v15.4l2.67 1.6c2.29-1.22 4.34-2.45 6.62-3.75L23 30.84v-18ZM44 36.43v-2.6l-11-6.14v2.53l4.85 2.76-2.76 1.53-9.46 5.29L28 41.1l12.14-6.82L44 36.43Z" fill="#00A5D1" /><path d="m28 46 14.5-8.2-2.36-1.22L28 43.4l-6.38-3.6 12.21-6.82-2.36-1.3-14.5 8.12L28 46ZM27.86 19.73l-.86.3v-7.12l.86-.3L42 20.25v2.3l-13-6.82v2.6l13 6.83v2.3l-14.14-7.74Zm16.14-.7L27.86 10 25 11.6V23.87l2.86-1.6L44 31.22V19.04Z" fill="#00A5D1" /></svg>