<!-- by TradeStack --><svg width="56" height="56" viewBox="0 0 56 56" xmlns="http://www.w3.org/2000/svg"><path fill="#F0F3FA" d="M0 0h56v56H0z"/><path d="M48 23h-.5c0-1.7-.85-2-2.5-2H25c-.87 0-1 .27-1 .7v8.93c0 1.2.79 1.84 2 1.87v.5h-6v-.5c1.2-.03 2-.67 2-1.88V21.7c0-.24-.09-.7-.96-.7h-10c-1.4 0-2.5.42-2.54 2H8v-3h40v3Z" fill="#673A7F"/><path d="M46.65 23H47v3h-.35c-.39-1.48-2.17-2-3.65-2-2.42 0-3 1.83-3 4 0 2.23.59 4 3 4 1.7 0 2.98-.27 3.46-2H47v3h-.46l-.3-1.13A4.84 4.84 0 0 1 43 33c-2.8 0-5-2.19-5-5 0-2.96 2.09-5 5-5a7.7 7.7 0 0 1 3.46 1l.19-1ZM15.93 30.83a4.54 4.54 0 0 1 .27 1.1c0 .2-.08.33-.24.42-.16.08-.54.12-.96.12V33h4v-.53c-.2 0-.39-.02-.54-.06a.9.9 0 0 1-.4-.27 2.78 2.78 0 0 1-.4-.63c-.14-.28-.3-.65-.49-1.12L14.45 23h-.53L9.31 35.52c-.07.17-.15.32-.23.45a1.07 1.07 0 0 1-.61.46c-.13.04-.29.07-.47.1V37h3v-.47c-.34 0-.66-.04-.8-.13-.15-.09-.22-.25-.22-.48a4.86 4.86 0 0 1 .4-1.48c.7-1.96 2.42-6.75 3.54-9.69l2 6.08ZM33.76 30.78a4.67 4.67 0 0 1 .3 1.16c0 .2-.09.34-.26.42-.17.09-.35.13-.8.13V33h4v-.5c-.22 0-.4-.03-.57-.07a.94.94 0 0 1-.43-.29 2.9 2.9 0 0 1-.42-.65c-.14-.3-.3-.68-.5-1.17L32.2 23h-.55l-3.28 8.45c-.08.19-.16.34-.24.47a1.13 1.13 0 0 1-.64.48c-.14.05-.3.08-.5.1v.5h3v-.5c-.35 0-.53-.04-.69-.12-.15-.1-.22-.27-.22-.51 0-.09 0-.2.03-.34a5 5 0 0 1 .38-1.2c.75-2.05.92-2.37 2.1-5.43l2.16 5.88Z" fill="#673A7F"/></svg>