<!-- by TradeStack --><svg width="56" height="56" viewBox="0 0 56 56" xmlns="http://www.w3.org/2000/svg"><path fill="#F0F3FA" d="M0 0h56v56H0z"/><path d="M17.24 23.39c.83.17 1.33.34 1.5.52 1.34 1.35 2.41 2.91 4.53 3a.15.15 0 0 1 .14.13.15.15 0 0 1-.1.16c-2.02.59-3.92.02-5.8-.78-2.09-.87-3.42-1.34-5.32.01a.12.12 0 0 1-.13 0 .12.12 0 0 1-.06-.1c.27-4.36 3.37-6.9 7.7-6.54.08 0 .11-.03.1-.1-.57-4.63 2.26-7.13 6.48-7.69a.16.16 0 0 1 .14.26c-2.84 3.6 2.49 7.07.63 11.17-.04.08-.06.08-.07-.02a4.98 4.98 0 0 0-1.58-3.22c-1.04-.99-1.75-1.45-2.08-2.92a.12.12 0 0 0-.09-.1.11.11 0 0 0-.11.04c-1.3 1.3-1.31 3.35-.86 5.01a.08.08 0 0 1-.1.1c-1.3-.38-4.03-.52-5 .89a.11.11 0 0 0 .02.15l.06.03Z" fill="#C951A7"/><path d="M36.35 19.78c4.54-.47 7.27 2.4 7.65 6.62a.1.1 0 0 1-.05.1.1.1 0 0 1-.12 0c-2.13-1.69-4.07-.65-6.26.28-1.08.46-3.97 1.16-4.97.32a.12.12 0 0 1 0-.18.12.12 0 0 1 .08-.03c1.24-.08 2.1-.5 3.02-1.4.6-.62 1.2-1.44 2-1.8.34-.14.68-.27 1.03-.37.09-.03.1-.08.04-.14-1.18-1.28-3.4-1.34-4.9-.83a.14.14 0 0 1-.18-.18c.57-1.77.34-3.4-.7-4.88a.18.18 0 0 0-.19-.08.18.18 0 0 0-.14.14c-.56 2.5-3.45 2.93-3.6 6.14l-.02.04a.07.07 0 0 1-.08.02.06.06 0 0 1-.03-.03c-.5-.82-.43-2.09-.3-2.98.4-2.95 3.13-5.35.93-8.33a.12.12 0 0 1 .04-.18.12.12 0 0 1 .06-.02c3.69.2 6.54 2.62 6.55 6.46 0 .4 0 .8.03 1.21 0 .08.04.11.11.1Z" fill="#5EC235"/><path d="M40.5 18a2.5 2.5 0 1 0 0-5 2.5 2.5 0 0 0 0 5Z" fill="#5EC235"/><path d="M15.5 18a2.5 2.5 0 1 0 0-5 2.5 2.5 0 0 0 0 5Z" fill="#C951A7"/><path d="M17.22 32.69a.1.1 0 0 0-.08.12c0 .02.02.04.03.05 1.26 1.23 3.28 1.36 4.87.92.16-.05.22.01.18.17-.4 1.69-.37 3.6.93 4.88a.08.08 0 0 0 .13-.03c.54-2.07 1.88-2.37 2.94-3.98.44-.67.7-1.4.76-2.19a.1.1 0 0 1 .1-.09.1.1 0 0 1 .1.08 7.53 7.53 0 0 1-.32 4.55c-.9 2.2-2.16 4.42-.45 6.66a.1.1 0 0 1-.03.16.1.1 0 0 1-.07 0c-3.53-.52-6.08-2.09-6.54-5.81-.08-.58 0-1.25.03-1.87a.1.1 0 0 0-.12-.12l-1 .05c-4.03.16-6.43-2.82-6.66-6.6a.1.1 0 0 1 .1-.1.1.1 0 0 1 .06.02c1.33 1.01 2.71 1.05 4.3.46 2.21-.83 4.36-2.06 6.82-1.23a.13.13 0 0 1-.03.26c-1.71.16-2.54.94-3.6 2.17a4.48 4.48 0 0 1-2.45 1.47Z" fill="#57BDED"/><path d="M38.75 32.64c-2.66-.45-2.96-3.38-5.96-3.57-.11 0-.16-.07-.14-.17l.07-.1a.24.24 0 0 1 .09-.05c4.01-1.46 7.4 3.58 11 .8a.12.12 0 0 1 .18.11c-.38 4.23-3.1 7.13-7.68 6.5a.13.13 0 0 0-.15.14c.58 4.56-2.2 7.15-6.42 7.66a.12.12 0 0 1-.11-.06.12.12 0 0 1 0-.13c.91-1.3 1.05-2.7.43-4.19-.98-2.31-1.94-4.46-1.21-7.05a.1.1 0 0 1 .2.02c.04.99.36 1.87.97 2.65.98 1.27 2.35 1.72 2.63 3.5a.16.16 0 0 0 .12.14.16.16 0 0 0 .16-.06 5.05 5.05 0 0 0 .79-4.91c-.03-.09 0-.12.08-.1 1.8.45 3.5.35 5.03-.84a.16.16 0 0 0 .05-.17.16.16 0 0 0-.13-.12Z" fill="#3A64A0"/><path d="M40.5 43a2.5 2.5 0 1 0 0-5 2.5 2.5 0 0 0 0 5Z" fill="#3A64A0"/><path d="M15.5 43a2.5 2.5 0 1 0 0-5 2.5 2.5 0 0 0 0 5Z" fill="#57BDED"/></svg>