<?xml version='1.0' encoding='utf-8'?>
<!-- by TradeStack -->
<svg width="56" height="56" viewBox="0 0 56 56" xmlns="http://www.w3.org/2000/svg"><path fill="#F0F3FA" d="M0 0h56v56H0z" /><path d="M43.11 27.69h-1.87c-.1 0-.14-.04-.12-.14l.6-3.32c.01-.05.04-.2 0-.23h-.47c-.16 0-.3.3-.34.56a84.9 84.9 0 0 1-.96 5.28c-.02.11.02.16.13.16h.42c.12 0 .18-.09.2-.2l.3-1.7c0-.08.05-.1.14-.1h1.84a.14.14 0 0 1 .13.1v.07l-.34 1.66c-.02.11.03.17.13.17h.48c.07 0 .1-.04.12-.1l.7-3.73c.02-.1-.03-.16-.13-.17h-.36c-.12 0-.19.03-.2.14l-.27 1.44c-.01.07-.06.1-.13.1Zm-31.5 0-1.88.01c-.1 0-.14-.05-.12-.14l.6-3.33c.01-.04.04-.2 0-.22h-.47c-.16 0-.3.3-.34.55a84.9 84.9 0 0 1-.96 5.29c-.02.1.02.16.14.16H9c.11 0 .18-.1.2-.2l.29-1.7c.01-.08.06-.1.14-.1h1.84a.14.14 0 0 1 .1.04.14.14 0 0 1 .04.12l-.34 1.67c-.02.1.02.17.12.17h.49c.06 0 .1-.04.12-.11l.69-3.72c.02-.1-.02-.16-.13-.17h-.36c-.12-.01-.19.03-.2.14l-.27 1.43c0 .08-.05.11-.12.11Zm-7.04 2.16.93-5.03c.01-.08.06-.12.13-.13.77-.08 2.36-.23 2.83.53.37.6.05 1.34-.5 1.72-.57.39-1.24.5-2 .35a.15.15 0 0 0-.13.03.16.16 0 0 0-.06.1l-.4 2.43c-.02.1-.08.15-.18.15H4.7c-.11 0-.16-.04-.14-.15Zm1.41-2.82c1.83.54 2.75-1.97 1.14-2.08a9.48 9.48 0 0 0-.71-.02.17.17 0 0 0-.11.04.17.17 0 0 0-.06.1l-.35 1.82c-.01.07.02.12.1.14Zm9.05-.94a.2.2 0 0 0-.1-.06c-.24-.06-.41 0-.53.22-.67 1.2-1.3 2.4-1.93 3.58a.12.12 0 0 0 .06.16.13.13 0 0 0 .17-.03l.47-.8a.24.24 0 0 1 .22-.12h1.4c.1 0 .15.05.16.16l.06.67c0 .04.02.07.05.1.03.03.06.04.1.04h.4c.13 0 .18-.12.15-.24l-.64-3.58a.2.2 0 0 0-.04-.1Zm-.48.8c.03.02.04.05.05.08l.25 1.65a.15.15 0 0 1-.08.17.16.16 0 0 1-.07.01h-1.12a.16.16 0 0 1-.13-.07.15.15 0 0 1 0-.15l.85-1.66a.16.16 0 0 1 .17-.08c.03 0 .06.02.08.04Zm12.88-.86a.2.2 0 0 1 .15.16l.64 3.57c.02.13-.03.25-.15.25h-.4c-.04 0-.08-.01-.1-.04a.16.16 0 0 1-.05-.1l-.06-.67c-.01-.1-.07-.16-.17-.16h-1.4c-.1 0-.17.04-.22.13l-.47.79a.13.13 0 0 1-.22-.04.12.12 0 0 1 0-.09c.61-1.19 1.26-2.38 1.93-3.58.11-.21.29-.29.52-.22Zm-.33.94a.15.15 0 0 0-.13-.13.16.16 0 0 0-.16.08l-.86 1.66a.15.15 0 0 0 .06.2c.03.02.05.03.08.03h1.11a.16.16 0 0 0 .15-.12c.01-.02.01-.05 0-.07l-.25-1.65Zm9.8 1.26a1.7 1.7 0 0 0-.17-1.47c-.14-.2-.33-.38-.55-.5-.23-.13-.49-.21-.77-.24a2.77 2.77 0 0 0-1.67.43c-.5.33-.89.8-1.05 1.34a1.7 1.7 0 0 0 .18 1.47c.14.2.33.37.55.5.23.13.48.2.76.24a2.76 2.76 0 0 0 1.67-.43c.52-.33.9-.81 1.06-1.34Zm-2.34 1.55c-.2.02-.38 0-.55-.08a1.2 1.2 0 0 1-.66-.89c-.1-.42-.03-.92.18-1.37.1-.22.23-.43.4-.61.15-.18.33-.33.52-.44.19-.1.38-.17.58-.19.19-.02.37.01.54.08.33.15.57.47.66.9.1.42.03.9-.18 1.36-.1.23-.23.43-.39.61s-.34.33-.53.44c-.19.1-.38.17-.57.19Zm-13.77-2.73-.5 2.89c0 .02-.02.03-.03.05a.08.08 0 0 1-.06.02h-.1a.1.1 0 0 1-.1-.04.11.11 0 0 1-.01-.1l.67-3.43a.5.5 0 0 1 .47-.4.5.5 0 0 1 .5.36l.72 2.43a.08.08 0 0 0 .06.06.08.08 0 0 0 .07-.04l.36-.56c.49-.8 1.19-1.94 1.68-2.23a.41.41 0 0 1 .59.2c.03.08.04.16.02.24l-.59 3.25a.3.3 0 0 1-.12.2.3.3 0 0 1-.22.05c-.3-.04-.43-.15-.4-.33.2-.9.39-1.79.55-2.64a.14.14 0 0 0-.08-.16.13.13 0 0 0-.16.05l-2.03 3a.11.11 0 0 1-.1.05.11.11 0 0 1-.1-.08l-.87-2.86a.12.12 0 0 0-.04-.06.11.11 0 0 0-.18.07Zm-3.86 2.76.6-3.32c0-.07.04-.1.1-.12.46-.1.9-.05 1.31.16l.08.07c.03.03.05.07.05.1.3 1.14-.64 1.3-1.45 1.32-.13 0-.16.06-.1.17l.9 1.72c.03.06.08.1.15.1h.56a.1.1 0 0 0 .06-.02.11.11 0 0 0 .04-.04.12.12 0 0 0 0-.12l-.83-1.43a.11.11 0 0 1 .03-.15.1.1 0 0 1 .05-.02c.74-.06 1.38-.6 1.25-1.42-.18-1.04-1.93-.81-2.75-.7-.06.01-.1.04-.1.1l-.67 3.65c-.02.1.02.15.12.15h.38c.12 0 .2-.07.22-.2Zm13.14-3.33-.6 3.33c-.02.13-.1.2-.21.2h-.38c-.1 0-.14-.05-.12-.15l.66-3.65c.01-.06.05-.09.1-.1.83-.11 2.58-.34 2.75.7.14.82-.5 1.36-1.24 1.42a.1.1 0 0 0-.08.06.11.11 0 0 0 0 .1l.82 1.44a.12.12 0 0 1-.04.16.1.1 0 0 1-.05.02h-.57a.16.16 0 0 1-.15-.1l-.9-1.72c-.05-.1-.02-.17.1-.17.81-.03 1.76-.18 1.46-1.32a.28.28 0 0 0-.13-.17c-.41-.21-.85-.27-1.32-.16a.13.13 0 0 0-.1.11Zm8.57 3.07c.19-1.03.36-2.05.5-3.07.02-.1.08-.15.17-.15h.85c.05 0 .07-.06.06-.11a1.66 1.66 0 0 1 0-.14.1.1 0 0 0-.06-.05l-.02-.01-.02-.01h-2.46a.2.2 0 0 0-.12.04.18.18 0 0 0-.07.12c0 .1.04.15.13.15h.75c.08 0 .1.04.1.11l-.58 3.35c-.02.1.02.2.1.23h.42c.12-.06.2-.24.25-.46Z" fill="url(#ako4ptcpl)" /><path d="m43.3 31.11.08.76a.1.1 0 0 1 0 .05l-.04.04a.15.15 0 0 1-.05.03.18.18 0 0 1-.06.01H4.42c-.03 0-.07 0-.1-.02a.12.12 0 0 1-.04-.07L4 31.15a.1.1 0 0 1 0-.05c0-.02 0-.04.02-.05a.15.15 0 0 1 .05-.04l.07-.01h39c.03 0 .07.01.1.03.02.02.04.05.04.08Z" fill="#0181C9" /><path d="M47.84 26.12v.96h-.25v-.96h.25Zm1.5 2.69h1.09v.23h-1.08v-.23Zm-2.2.68-.7.89-.2-.15.71-.89.2.15Z" fill="#58A8B4" /><ellipse cx="47.98" cy="28.47" rx="1.6" ry="1.55" fill="url(#bko4ptcpl)" /><ellipse cx="45.66" cy="30.9" rx="1.14" ry="1.1" fill="url(#cko4ptcpl)" /><ellipse cx="51.15" cy="28.97" rx=".85" ry=".83" fill="url(#dko4ptcpl)" /><ellipse cx="47.67" cy="25.67" rx=".69" ry=".67" fill="url(#eko4ptcpl)" /><defs><linearGradient id="ako4ptcpl" x1="24.38" y1="24.01" x2="24.38" y2="30.01" gradientUnits="userSpaceOnUse"><stop stop-color="#0D69AC" /><stop offset="1" stop-color="#108BC8" /></linearGradient><linearGradient id="bko4ptcpl" x1="48.96" y1="27.43" x2="46.86" y2="29.41" gradientUnits="userSpaceOnUse"><stop stop-color="#DFF9FD" /><stop offset=".22" stop-color="#57A7B3" /></linearGradient><linearGradient id="cko4ptcpl" x1="46.36" y1="30.16" x2="44.86" y2="31.57" gradientUnits="userSpaceOnUse"><stop stop-color="#DFF9FD" /><stop offset=".22" stop-color="#57A7B3" /></linearGradient><linearGradient id="dko4ptcpl" x1="51.67" y1="28.42" x2="50.55" y2="29.47" gradientUnits="userSpaceOnUse"><stop stop-color="#DFF9FD" /><stop offset=".22" stop-color="#57A7B3" /></linearGradient><linearGradient id="eko4ptcpl" x1="48.09" y1="25.22" x2="47.19" y2="26.08" gradientUnits="userSpaceOnUse"><stop stop-color="#DFF9FD" /><stop offset=".22" stop-color="#57A7B3" /></linearGradient></defs></svg>