<!-- by TradeStack --><svg width="56" height="56" viewBox="0 0 56 56" xmlns="http://www.w3.org/2000/svg"><path fill="#880E14" d="M0 0h56v56H0z"/><path d="m6.16 23-.16.5h.5s.54.04.76.34c.23.31.28.44.28 1.23v6.4s.1.58-.36.88c-.47.28-.76.2-.76.2h-.34l.14.45h4.74l.1-.45h-.42s-1.05-.03-1.02-1.12v-7.9h1.21s.85 0 1.16.2c.32.18.79.61.79 1.4 0 .8-.72 2.56-2.45 2.71l-.1-.01 3.1 4.69s.1.48 1.13.48h4.1c.45 0 3.26 0 4.45-.56 1.2-.56 3-1.62 3.06-4.41.06-2.8-2.12-4.48-4-4.25 0 0 1.61 1.32 1.57 4.1-.03 2.77-.88 4.8-4.16 4.7 0 0-2.17.1-3.01-.34-.84-.43-1.73-.71-4.18-4.32 0 0 2.72-.31 2.89-2.74C15.33 23 12.06 23 11.92 23H6.16Z" fill="#fff"/><path d="M49.51 29.39c-.84 2.32-2.12 3.28-3.38 3.28-1.13 0-1.13-1.2-1.13-1.2v-6.66c0-1.36 1.56-1.16 1.56-1.16l-.13-.65h-4.85l-.1.65h.34c1.2.04 1.18 1.16 1.18 1.16v6.53s-.02 1.2-1.13 1.24c-.74.03-.94-.89-.94-.89L37.67 23H36.4l-3.17 7.83s-.47 1.8-1.6 1.8c-1.13 0-1.13-1.28-1.13-1.28v-2.43s1.02-1.75 1.91-3.23c.9-1.48 1.84-2.13 1.84-2.13l-.19-.56h-3.32l-.16.62.63.08c1.33.2.84 1.56.84 1.56l-1.55 2.76-2.45-4.83S24.34 23 23.45 23c-.9 0-3.2.19-3.2.19-4.22.5-4.49 4.51-4.49 4.51 0 4.96 4.03 4.61 4.03 4.61-1.61-1.29-1.65-4.28-1.65-4.28.2-4.97 3.32-4.55 4.1-4.58.79-.03 2.2-.08 3.15.34.95.43 1.64 1.75 1.64 1.75l1.49 2.57v3.3c0 1.23-1 1.14-1 1.14H27l.1.45h8.26l.19-.4c-2.39.04-1.63-1.75-1.63-1.75l.48-1.23h3.55l.45 1.26c.7 1.95-1.33 1.7-1.33 1.7l.12.42h12l.8-3.41-.48-.2ZM34.65 29l1.57-4.07 1.5 4.07h-3.07Z" fill="#fff"/></svg>