<!-- by TradeStack --><svg width="56" height="56" viewBox="0 0 56 56" xmlns="http://www.w3.org/2000/svg"><path fill="#F0F3FA" d="M0 0h56v56H0z"/><path d="M32 35v-6h2.2c1.37 0 2.08.9 2.08 2.05 0 1.1-.96 1.95-2.09 1.95h-1.57v-1h1.43c.6 0 1.11-.34 1.11-.95 0-.73-.46-1.05-1.12-1.05H33v5h-1Zm3.04-2.72L36.5 35h-1.2l-1.42-2.72h1.16ZM44 30v-1h5v1h-2v5h-1v-5h-2Z"/><path d="M7 22.62c12.61-11.61 23.95-5.35 28.05-.77-12.1-1.14-8.23 11.62-4.79 18.15C15.04 36.4 8.41 26.91 7 22.62Z" fill="url(#aeavaun0y)"/><path d="M38.35 36.08c.47.23 1.01.34 1.61.34.62 0 1.16-.12 1.64-.36.47-.25.85-.59 1.12-1.01.28-.43.42-.91.42-1.45 0-.62-.17-1.14-.5-1.56a2.12 2.12 0 0 0-1.38-.77v-.08c.47-.13.84-.39 1.12-.77.29-.38.43-.85.42-1.4a2.6 2.6 0 0 0-1.31-2.3 2.89 2.89 0 0 0-1.5-.37c-.54 0-1.04.12-1.49.34-.4.2-.74.48-1 .83l.94.91.1-.17c.17-.21.37-.38.62-.5.26-.11.53-.17.82-.17.3 0 .57.06.8.19.23.13.4.3.52.53.13.22.2.49.2.79a1.48 1.48 0 0 1-.81 1.37c-.26.13-.55.2-.88.2h-.76v1.2h.76c.41 0 .76.08 1.06.22a1.55 1.55 0 0 1 .9 1.46c0 .31-.08.6-.23.84-.16.24-.37.42-.65.56-.27.13-.58.2-.93.2-.33 0-.62-.06-.88-.18a1.6 1.6 0 0 1-.73-.62l-1.02.91c.26.35.6.62 1.02.82Z"/><defs><linearGradient id="aeavaun0y" x1="24.94" y1="17.23" x2="15.57" y2="27.89" gradientUnits="userSpaceOnUse"><stop stop-color="#BEC2F2"/><stop offset="1" stop-color="#A6CFD9"/></linearGradient></defs></svg>