<!-- by TradeStack --><svg viewBox="0 0 56 56" xmlns="http://www.w3.org/2000/svg"><path fill="#F0F3FA" d="M0 0h56v56H0z"/><path fill-rule="evenodd" d="M43 15H13a1 1 0 0 0-1 1v24a1 1 0 0 0 1 1h30a1 1 0 0 0 1-1V16a1 1 0 0 0-1-1Zm-30-1a2 2 0 0 0-2 2v24c0 1.1.9 2 2 2h30a2 2 0 0 0 2-2V16a2 2 0 0 0-2-2H13Z" fill="#D00000"/><path d="M13 18.19v20.17c0 .9.72 1.64 1.61 1.64h2.63c.89 0 1.76-.74 1.76-1.64V22h2.89c.6 0 1.11.44 1.11 1.04v2.55c0 .6-.52 1.41-1.11 1.41h-1.12c-.6 0-.77.18-.77.78v3.06c0 .6.18 1.16.77 1.16h.86l1.7 6.38c.25.96 1.1 1.62 2.08 1.62h15.44c1.19 0 2.15-.98 2.15-2.19v-10.4c0-1.2-.96-2.41-2.15-2.41h-4.76c-.6 0-1.09-.26-1.09-.87v-1.09c0-.6.5-1.04 1.1-1.04h5.82c.6 0 1.08-.54 1.08-1.14v-2.67c0-1.21-.96-2.19-2.15-2.19h-8.89c-1.19 0-1.96.98-1.96 2.19v10.65c0 1.2.77 2.16 1.96 2.16h4.86c.6 0 1.18.52 1.18 1.12v.94c0 .6-.59.94-1.18.94h-8.25l-1.28-3.32a1.05 1.05 0 0 0-1-.68H25v-1h.92c1.19 0 2.08-.97 2.08-2.18v-8.63c0-1.21-.89-2.19-2.08-2.19H15.15c-1.19 0-2.15.98-2.15 2.19Z" fill="#D00000"/></svg>