<?xml version='1.0' encoding='utf-8'?>
<!-- by TradeStack -->
<svg width="56" height="56" viewBox="0 0 56 56" xmlns="http://www.w3.org/2000/svg"><path fill="#464648" d="M0 0h56v56H0z" /><path fill-rule="evenodd" d="M11 40V16.34c3.34-.4 10.81-.78 13.94.91 3.92 2.11 5.17 10.2 0 13.34l5.1 8.44V16H45v3.04c0 1-.84 1.96-1.88 1.96H35v4h10v3.33c0 1-.84 1.67-1.88 1.67H35v5h10v3.2c0 1-.84 1.8-1.88 1.8H25.89a4.18 4.18 0 0 1-3.38-2.45L19.07 32H16v8h-5Zm5-20h3.4c1.99 0 3.6 1.63 3.6 3.64v.72c0 2.01-1.61 3.64-3.6 3.64H16v-8Z" fill="#FEE502" /></svg>