<!-- by TradeStack --><svg viewBox="0 0 56 56" xmlns="http://www.w3.org/2000/svg"><path fill="url(#aogofysow)" d="M0 0h56v56H0z"/><path d="M26.7 33.38c1.1.13 2.21-.05 3.3-.24v-1.11a7.77 7.77 0 0 1-5.03.3c-.29-.07-.58-.14-.87-.19a8.96 8.96 0 0 0-4.1.22v1.23c.05-.01.1-.04.14-.07l.08-.05a7.06 7.06 0 0 1 .82-.32 8.28 8.28 0 0 1 4.45 0c.4.09.8.18 1.21.23Zm3.3 1.17v-1.12a7.74 7.74 0 0 1-3.73.56c-.44-.05-.86-.15-1.29-.25l-.88-.2a8.96 8.96 0 0 0-4.1.23V35l.14-.08.08-.04a6.9 6.9 0 0 1 .82-.32 8.27 8.27 0 0 1 3.68-.17c.26.04.52.1.77.16.4.1.8.18 1.21.23 1.1.14 2.21-.04 3.3-.23Z" fill="#5094D5"/><path d="M20 35h-3.76l-4.76-6.55c-.35.02-.64.02-.86.02h-.3c-.1 0-.21 0-.32-.02v4.07c0 .88.1 1.43.3 1.64.26.3.65.46 1.18.46H12V35H6v-.38h.53c.6 0 1.02-.2 1.27-.58.15-.21.2-.72.2-1.52v-9.04c0-.88-.07-1.43-.27-1.64-.27-.3-.67-.46-1.2-.46H6V21h5.13c1.49 0 2.6.1 3.3.33.71.21 1.31.61 1.8 1.2.5.57.75 1.27.75 2.07 0 .86-.28 1.61-.85 2.24a4.79 4.79 0 0 1-2.62 1.35l2.91 4.01a7.17 7.17 0 0 0 1.71 1.84c.48.3 1.1.5 1.87.58V35Zm-10-7.2h.35l.24.01c1.34 0 2.35-.29 3.03-.86a2.77 2.77 0 0 0 1.03-2.21c0-.88-.28-1.59-.83-2.13a2.96 2.96 0 0 0-2.18-.83c-.4 0-.96.07-1.64.2v5.82ZM29.12 21l.24 3.58h-.24a4.49 4.49 0 0 0-1.4-2.32c-.6-.47-1.32-.7-2.17-.7-.7 0-1.34.18-1.92.53-.57.36-1.02.92-1.35 1.7-.33.77-.49 1.74-.49 2.89 0 .95.15 1.78.47 2.47.3.7.77 1.24 1.4 1.61.62.37 1.33.56 2.12.56.7 0 1.3-.15 1.84-.44a6 6 0 0 0 1.74-1.74l.25.15a5.58 5.58 0 0 1-1.87 2.06 4.8 4.8 0 0 1-2.55.65 4.84 4.84 0 0 1-4.1-1.94 5.5 5.5 0 0 1-1.09-3.4c0-1.05.24-2.01.72-2.9a5.15 5.15 0 0 1 1.97-2.03 5.38 5.38 0 0 1 2.74-.73c.77 0 1.53.19 2.28.56.22.11.38.17.47.17.14 0 .27-.05.37-.15.14-.14.24-.33.3-.58h.27ZM36.63 21c3.73 0 6.37 3.36 6.37 6.92 0 3.69-2.67 7.08-6.53 7.08-3.9 0-6.47-3.33-6.47-7.05 0-3.74 2.8-6.95 6.63-6.95Zm-.19.72c-3.25 0-4.44 3.52-4.44 6.2 0 2.65 1.16 6.38 4.45 6.38 3.31 0 4.55-3.36 4.55-6.11 0-2.83-1.11-6.47-4.56-6.47ZM50 34.62V35h-6v-.38h.5c.58 0 1-.17 1.26-.5.16-.23.24-.76.24-1.6v-9.04c0-.71-.04-1.18-.13-1.4a.94.94 0 0 0-.42-.45c-.3-.17-.62-.25-.95-.25H44V21h6v.38h-.5c-.58 0-1 .17-1.26.5-.17.23-.24.76-.24 1.6v9.04c0 .71.03 1.18.12 1.4.07.18.21.33.43.45.3.17.61.25.94.25H50Z" fill="#fff"/><defs><linearGradient id="aogofysow" x1="10.42" y1="9.71" x2="68.15" y2="76.02" gradientUnits="userSpaceOnUse"><stop stop-color="#1A1E21"/><stop offset="1" stop-color="#06060A"/></linearGradient></defs></svg>