<?xml version='1.0' encoding='utf-8'?>
<!-- by TradeStack -->
<svg width="56" height="56" viewBox="0 0 56 56" xmlns="http://www.w3.org/2000/svg"><path fill="#F0F3FA" d="M0 0h56v56H0z" /><path d="M7.31 27.96c.25.4.57.85.95 1.38l.73 1.06c.07.11.16.22.26.3a.3.3 0 0 0 .14.04h.1V31h-1l-1.4-2.01c-.26-.37-.53-.74-.82-1.09l.04-.14.33.02c.78.05 1.4-.57 1.37-1.33.02-.32-.1-.63-.3-.85a1.21 1.21 0 0 0-.9-.3c-.27 0-.55.05-.81.16l.02 5.12c.04.1.19.16.42.16h.3V31H4.5v-.26h.3c.22 0 .35-.05.39-.16l-.01-5.15c-.05-.1-.2-.16-.47-.16l-.22-.01V25h2.64c.83-.04 1.76.33 1.72 1.3 0 .86-.7 1.52-1.53 1.66ZM10.34 30.77h.22c.21 0 .4-.17.44-.27v-3.92c-.04-.1-.2-.36-.38-.36h-.28V26h2v.22h-.27c-.27-.03-.37.1-.35.36v3.92c.04.1.17.28.38.28h.24V31h-2v-.23ZM15.34 31c-.45-1.35-1.04-2.66-1.57-3.98-.18-.45-.29-.7-.32-.74-.02-.04-.13-.06-.3-.06h-.14V26h1.9v.22h-.35a.5.5 0 0 0-.23.03c-.07.05-.05.14-.03.2l.45 1.2.95 2.35.92-2.22c.2-.44.36-.9.47-1.37 0-.1-.07-.16-.2-.16h-.14l-.3-.03V26h1.56v.22h-.14c-.33-.03-.43.41-.51.65-.57 1.36-1.25 2.71-1.67 4.13h-.35ZM19.7 28.62v2.02c.6.05 1.19.07 1.78 0 .12-.01.07-.04.19-.09.06-.2.12-.24.18-.55h.25c-.05.34-.08.47-.1.8v.2h-3.63v-.22h.11c.25.02.52-.05.52-.34v-3.67c0-.35-.09-.5-.46-.5l-.26-.03V26H22c-.1.35-.13.64-.13 1h-.24c0-.2-.02-.31-.05-.52a2.21 2.21 0 0 0-.87-.15c-.33 0-.67.01-1.02.04v1.9a9.25 9.25 0 0 0 1.57-.03c.08-.04.11-.16.11-.36v-.22h.25a16.34 16.34 0 0 0 0 1.63h-.25v-.2c0-.23-.04-.37-.13-.42-.3-.07-.62-.1-.93-.07-.21 0-.62 0-.62.02ZM28.33 25.93V30.29c0 .3.19.44.49.44l.23.02V31h-1.7v-.25h.19c.25.03.46-.14.46-.39v-3.4l-.01-1.15a.84.84 0 0 0-.06-.33.48.48 0 0 0-.15-.16c-.14-.1-.27-.07-.44-.07V25h1.25c.25.34.48.66.68.98.91 1.4 1.67 2.74 2.75 4.02L32 25.5c-.09-.23-.45-.23-.66-.25V25H33v.25h-.23c-.23 0-.4.09-.43.26V31c-.2-.03-.33-.07-.53-.13a.5.5 0 0 1-.15-.13c-1.27-1.57-2.12-3.2-3.33-4.81ZM25.09 28.47c.2.33.45.7.74 1.14l.6.87c.05.1.12.2.2.27l.11.03h.08V31h-.81l-1.1-1.67c-.2-.31-.42-.62-.65-.9l.03-.13.27.02c.63.03 1.1-.5 1.1-1.1a.9.9 0 0 0-.97-.97c-.22 0-.48.05-.69.14v4.22c.03.09.2.17.4.17h.23V31h-1.8v-.22h.23c.17 0 .33-.09.36-.17v-4.22c-.04-.09-.2-.17-.4-.17h-.18V26h2.1c.7-.03 1.4.3 1.38 1.08 0 .7-.55 1.27-1.23 1.39ZM33 28.49C33 27 34.1 26 35.56 26c1.39 0 2.44 1 2.44 2.33C38 30 36.87 31 35.36 31 33.97 31 33 30 33 28.49Zm.67-.28c-.03 1.15.59 2.5 1.91 2.48 1.17.03 1.74-1.1 1.72-2.13.02-1.15-.65-2.3-1.9-2.27-1.07-.02-1.75.9-1.73 1.92ZM41.07 28.47c.2.33.45.7.75 1.14l.6.87c.06.1.13.2.2.27l.12.03h.07V31h-.82l-1.09-1.67c-.2-.31-.43-.62-.66-.9l.03-.13.27.02c.63.03 1.11-.5 1.1-1.1a.9.9 0 0 0-.95-.98c-.22 0-.44.05-.65.14-.03.37-.04.76-.04 1.19v3.04c0 .14.2.17.4.17h.23l-.02.22h-1.8v-.22h.23c.18 0 .36-.03.36-.14V26.4c-.04-.09-.21-.17-.42-.17h-.17V26h2.11c.71 0 1.4.3 1.38 1.08 0 .7-.55 1.27-1.23 1.39ZM45 26.32V30.5c0 .22.22.28.44.28h.24V31c-.4-.02-.75 0-1.03 0h-.97v-.22h.28c.2.02.4-.06.4-.28V26.31H43.1c-.08 0-.1.18-.13.36l-.04.33h-.21v-.27c0-.17 0-.41-.04-.73h4c-.05.4-.07.63-.08 1h-.2l-.03-.32c0-.18-.05-.37-.23-.36H45ZM48.57 28.52v2.01c0 .15.28.26.4.25h.21V31h-1.82v-.22h.2c.21 0 .44-.15.44-.28v-4.1c0-.1-.22-.18-.4-.18h-.24V26h1.82v.22h-.14c-.17-.02-.46 0-.47.22v1.74H51V26.5c0-.2-.22-.29-.41-.27h-.24V26h1.85v.23h-.22c-.2-.02-.41.06-.41.27v4c0 .13.21.28.4.28h.24V31h-1.86v-.22h.22c.17.02.41-.07.42-.28V28.53h-2.42Z" fill="#231F20" /></svg>