<?xml version='1.0' encoding='utf-8'?>
<!-- by TradeStack -->
<svg width="56" height="56" viewBox="0 0 56 56" xmlns="http://www.w3.org/2000/svg"><path fill="#F0F3FA" d="M0 0h56v56H0z" /><path fill-rule="evenodd" d="M14.16 17.92 9 28.1l5.17 9.99c.63 1.2 2.15 1.2 2.77-.02L22 28.11l-5.06-10.18c-.61-1.23-2.16-1.24-2.78-.01Zm.2 3.67L10 28.07l4.37 6.35c.53.78 1.82.77 2.34 0L21 28.07l-4.28-6.48c-.52-.78-1.83-.79-2.35 0Zm12.41-3.67L22 28.1l4.77 9.99c.58 1.2 1.99 1.2 2.56-.02L34 28.11l-4.66-10.18c-.57-1.23-2-1.24-2.57-.01Zm.2 3.67L23 28.07l3.98 6.35c.48.78 1.65.77 2.12 0l3.9-6.35-3.89-6.48a1.26 1.26 0 0 0-2.14 0Zm12.2-3.67L34 28.1l5.17 9.99c.63 1.2 2.15 1.2 2.77-.02L47 28.11l-5.05-10.18c-.62-1.23-2.16-1.24-2.78-.01Zm.2 3.67L35 28.07l4.38 6.35c.53.78 1.81.77 2.34 0L46 28.07l-4.28-6.48c-.52-.78-1.82-.79-2.35 0Z" fill="#6A0032" /><path d="m17.15 31-.34-.34c-.42.23-.84.34-1.41.34-1.6 0-2.4-1-2.4-2.96C13 26.4 14 25 15.74 25c.59 0 1.17.07 1.75.2v1.18h-.47c-.21-.65-.63-1-1.34-1-1.34 0-1.68 1.51-1.68 2.6 0 1.05.21 2.64 1.57 2.64.74 0 1.1-.29 1.1-.9 0-.8.05-1.31-.58-1.47v-.2H18v.2c-.45.14-.47.51-.47.93v1.73l-.38.09ZM27 28.37v1.52c0 .48.02.75.5.9V31h-2v-.22c.48-.13.5-.41.5-.88v-3.8c0-.48-.03-.74-.5-.88V25h2.32c1.35 0 2.18.49 2.18 1.53 0 .97-.77 1.38-1.65 1.69v.03c.18.07.33.18.46.32.6.64.71 2.05 1.68 2.21V31h-1.2c-.1-.16-.22-.32-.31-.5-.32-.58-.58-1.23-.96-1.77-.19-.27-.21-.36-.53-.36H27Zm0-2.96V28h.5c.78 0 1.5-.55 1.5-1.35 0-.84-.55-1.26-1.37-1.26-.26 0-.47 0-.63.02Zm14 4.49c0 .5-.01.77.5.88V31h-2v-.22c.51-.12.5-.38.5-.88v-3.8c0-.5 0-.75-.5-.88V25h2v.22c-.5.11-.5.38-.5.88v3.8Z" fill="#6A0032" /></svg>