<?xml version='1.0' encoding='utf-8'?>
<!-- by TradeStack -->
<svg width="56" height="56" viewBox="0 0 56 56" xmlns="http://www.w3.org/2000/svg"><path fill="#F0F3FA" d="M0 0h56v56H0z" /><path d="m26.34 27.9 1.03 1.56h2.06l1.02-1.55-.51-.52-2.57-.52-1.03 1.04Z" fill="#014F8D" /><path d="m22.81 24.67-6.68-13.61 1.07-.53 8.06 14.43L46 26.89v2.17l-19.65-1.89 6.57 13.23-1.84.93-7.17-14.44-8.84-1.54v-1.59l7.74.91Z" fill="#B7B7B7" /><path d="m17.73 44.94 19.83-26.83 1.22.95L18.27 46l-.54-1.06Z" fill="#B7B7B7" /><path d="M27.65 24.6 18.8 10.52l.25-.53 9.18 13.62 5.38-8.93.88.53-5.62 9.34 3.3 4.9h13.71v.66l-13 .38 4.68 6.96-.85.58-5.08-7.54h-6.34l-8.28 13.74-.88-.54 7.96-13.2-10.09.15v-1.06l10.71-.13 2.94-4.87Zm.63.93-2.37 3.93h5.02l-2.65-3.93Z" fill="#B7B7B7" /></svg>