<?xml version='1.0' encoding='utf-8'?>
<!-- by TradeStack -->
<svg width="56" height="56" viewBox="0 0 56 56" xmlns="http://www.w3.org/2000/svg"><path fill="#F0F3FA" d="M0 0h56v56H0z" /><path d="M45.59 33H42.5V23h3.15c.9 0 1.68.2 2.33.6.65.4 1.15.97 1.5 1.71.35.75.52 1.64.52 2.68 0 1.04-.18 1.94-.53 2.69a3.87 3.87 0 0 1-1.51 1.72c-.66.4-1.45.6-2.37.6ZM44 31.43h1.5c.64 0 1.17-.12 1.6-.38.41-.26.73-.64.95-1.15a5 5 0 0 0 .32-1.91c0-.76-.11-1.4-.32-1.9-.22-.51-.53-.9-.95-1.14a2.91 2.91 0 0 0-1.55-.38H44v6.86ZM39.26 26.24a2.61 2.61 0 0 0-.3-.69c-.13-.2-.28-.38-.46-.53a1.8 1.8 0 0 0-.6-.32 2.36 2.36 0 0 0-2.05.28c-.37.26-.67.65-.89 1.16-.21.5-.32 1.12-.32 1.85 0 .74.1 1.36.32 1.87.22.5.51.9.9 1.16.38.27.82.4 1.32.4 1.47 0 2.24-1.1 2.24-2.5l.37.08H37v-1.4h4v1.18c0 .83-.16 1.72-.5 2.32a3.5 3.5 0 0 1-1.35 1.41c-.57.33-1.23.49-1.98.49-.83 0-1.55-.2-2.18-.6a4.07 4.07 0 0 1-1.47-1.73 6.25 6.25 0 0 1-.52-2.66c0-.79.1-1.49.3-2.1.22-.62.5-1.15.88-1.58A3.72 3.72 0 0 1 37.13 23a4.01 4.01 0 0 1 2.54.9 3.64 3.64 0 0 1 1.26 2.34h-1.67ZM26 33V23h6v1.52h-4.38V27h3.71v1.54h-3.71V33H26ZM15 23h2.03l2.7 7.25h.12l2.7-7.25h2.03v10H23v-6.87h-.09L20.4 33h-1.2l-2.52-6.88h-.08V33H15V23ZM11.44 23H13v6.44c0 .7-.15 1.32-.44 1.86-.29.53-.7.95-1.22 1.25-.52.3-1.14.45-1.84.45-.7 0-1.32-.15-1.84-.45-.53-.3-.94-.72-1.23-1.25A3.86 3.86 0 0 1 6 29.44V23h1.56v6.29c0 .4.08.77.24 1.1.16.31.38.57.67.75.3.18.63.27 1.03.27s.74-.1 1.03-.27c.29-.18.51-.44.67-.76.16-.32.24-.68.24-1.1V23Z" /></svg>