<!-- by TradeStack --><svg width="56" height="56" viewBox="0 0 56 56" xmlns="http://www.w3.org/2000/svg"><path fill="#F0F3FA" d="M0 0h56v56H0z"/><path d="M28 16c-6.4 0-10 5.33-11 8h1c1-1.5 4.4-4.5 10-4.5s9 3 10 4.5h1c0-.5-3-8-11-8Zm0 24c-6.4 0-10-5.33-11-8h1c1 1.5 4.4 4.5 10 4.5s9-3 10-4.5h1c0 .5-3 8-11 8Z" fill="#DD3824"/><path d="M29.73 26.27C41.21 26.27 49.36 32.1 52 35c-9.1-5.24-17.32-6.18-20.29-6l-3.96 5.45L23.8 29c-7.53-.44-16.34 3.45-19.8 5.45 7.92-6.54 17.81-8.18 21.77-8.18l-1.48-2.72 1.48-.55.5.55V23h1.48v.55l.5-.55h1.48v1.1l.5-.55.5.54-1 2.18Z"/></svg>