<!-- by TradeStack --><svg width="56" height="56" viewBox="0 0 56 56" xmlns="http://www.w3.org/2000/svg"><path fill="#F0F3FA" d="M0 0h56v56H0z"/><path d="M7 24H5v10h2v-6.8c.38-.44 1.3-.83 3-.83v-2.16c-.62-.23-2.05-.46-3 .41V24Z" fill="#A51615"/><path fill-rule="evenodd" d="M14 24a4 4 0 0 0-4 4v2a4 4 0 0 0 8 0v-2a4 4 0 0 0-4-4Zm0 2a2 2 0 0 0-2 2v2a2 2 0 1 0 4 0v-2a2 2 0 0 0-2-2ZM23 24a4 4 0 0 0-4 4v2a4 4 0 0 0 8 0v-2a4 4 0 0 0-4-4Zm0 2a2 2 0 0 0-2 2v2a2 2 0 1 0 4 0v-2a2 2 0 0 0-2-2Z" fill="#A51615"/><path d="M28 31.52V22h2v2h1.5v2H30v4.72c-.05.84.38 1.26.6 1.28H32v1.62c-.37.28-1.18.37-1.4.38-2.13-.08-2.62-1.69-2.6-2.48Z" fill="#A51615"/><path fill-rule="evenodd" d="m36.37 34 3.89-6.72c.47-1.98.36-6.28-3.89-6.28-4.16 0-4.4 3.79-4.06 5.69.23 1.3 1.25 2.87 4.06 3.1L33.81 34h2.56Zm-.08-6.3c1.22 0 2.2-1.05 2.2-2.34 0-1.29-.98-2.33-2.2-2.33a2.27 2.27 0 0 0-2.2 2.33c0 1.29.98 2.34 2.2 2.34ZM41 21h5.08a3.48 3.48 0 0 1 2.24 6.14A3.74 3.74 0 0 1 46.26 34H41V21Zm2 2h2.77a1.5 1.5 0 0 1 0 3h-1.23l-.6 2H46a2 2 0 1 1 0 4h-3v-9Z" fill="#A51615"/></svg>