<!-- by TradeStack --><svg width="56" height="56" viewBox="0 0 56 56" fill="none" xmlns="http://www.w3.org/2000/svg">
<rect width="56" height="56" fill="#006372"/>
<path fill-rule="evenodd" clip-rule="evenodd" d="M41 33.9209C41 26.785 35.1796 21 28 21C20.8204 21 15 26.9433 15 34.0791C15 41.215 20.8204 47 28 47C35.1796 47 41 41.0567 41 33.9209ZM39 34C39 27.9249 34.0751 23 28 23C21.9249 23 17 27.9249 17 34C17 40.0751 21.9249 45 28 45C34.0751 45 39 40.0751 39 34Z" fill="#F0F3FA"/>
<path fill-rule="evenodd" clip-rule="evenodd" d="M23 33H25V45H23V33Z" fill="#F0F3FA"/>
<path d="M37 41.9999H33C32.9956 41.999 31.1163 42.2626 28 37C26.7047 34.8124 25.8569 33.9852 25.0867 34C24.373 34.0137 23.9524 34.6667 23.95 34.669L23 32.9999C23.0046 32.9956 23.8496 32.0102 25.1454 32C26.3157 31.9907 27.8535 32.7941 29.472 35.5271C31.9142 39.6517 32.9771 39.8952 33.2058 40H37.4656L37 41.9999Z" fill="#F0F3FA"/>
<path d="M18 26L29.7638 26.0031C29.7755 26.0034 34 26.0643 34 31.0964C34 35.9985 29.2305 36.9969 29.2171 37L28.8919 35.4036C28.9018 35.4014 32 34.6545 32 31.0964C32 27.8396 29.1437 28.009 28.8919 27.9975L18 28V26Z" fill="#F0F3FA"/>
<path d="M28 15C31.8837 15 34.4676 16.319 36 17V11C33.9448 11.5555 32.8561 12.1833 32 14L28 10L24 14C23.2081 12.3206 21.9248 11.5203 20 11V17C21.5608 16.3225 24.073 15 28 15ZM28 17C24.3045 17 21.1265 18.1786 18 19.9611V9C20 9 22.5651 8.98297 24 11L28 7L32 11C33.4954 8.89785 36 9 38 9V20C34.9156 18.1383 31.6866 17 28 17Z" fill="#F0F3FA"/>
</svg>
