<?xml version='1.0' encoding='utf-8'?>
<!-- by TradeStack -->
<svg width="56" height="56" viewBox="0 0 56 56" xmlns="http://www.w3.org/2000/svg"><path fill="#F0F3FA" d="M0 0h56v56H0z" /><path d="M27.19 39.66C31.95 37.73 34 33.46 34 28a13 13 0 1 0-10 12.66c0-.94-.07-4.12.25-5.75 1.05-5.31 4.77-10.8 4.77-10.8s-.52 6.32-1.01 10.6c-.23 1.93-.82 4.18-.82 4.95Z" fill="#6B5A53" /><path d="M35 41a13 13 0 1 0-13-13c0 2.47.13 4.43 1.32 6.4.81-5.72 5.46-9.62 5.46-9.62-1.48 3.5-1.83 13.03-1.83 13.33C29.15 39.9 31.9 41 35 41Z" fill="#6C8D3C" /><path d="M24 40.66c-2.16-2.5-3-6.44-3-9.64 0-8.14 4.94-14.24 11.06-15.7A17.35 17.35 0 0 1 35 24.97c0 7.65-3.66 12.99-8.36 15.02A39.9 39.9 0 0 1 28 27s-2.12 2.45-3.3 8.65a68.7 68.7 0 0 0-.7 5Z" fill="url(#aznext0wf)" /><defs><linearGradient id="aznext0wf" x1="38.59" y1="24.68" x2="19.2" y2="30.23" gradientUnits="userSpaceOnUse"><stop offset=".29" stop-color="#88B939" /><stop offset=".73" stop-color="#BBD33D" /></linearGradient></defs></svg>