<?xml version='1.0' encoding='utf-8'?>
<!-- by TradeStack -->
<svg width="56" height="56" viewBox="0 0 56 56" fill="none" xmlns="http://www.w3.org/2000/svg">
<rect width="56" height="56" fill="#F0F3FA" />
<path fill-rule="evenodd" clip-rule="evenodd" d="M29.9008 24.0027C34.9487 24.8787 38.6713 29.0481 38.6981 33.9683C38.6981 33.9707 38.6986 33.9731 38.6996 33.9753L38.701 33.9779C38.7018 33.9791 38.7027 33.9802 38.7038 33.9813L38.7052 33.9825L38.7075 33.984L38.71 33.9853C38.7112 33.9857 38.7123 33.989 38.7135 33.9923C38.7148 33.9961 38.7161 33.9999 38.7174 33.9999H50.9966L39.2139 30.5947C39.2099 30.5936 39.2063 30.5916 39.2033 30.5888C39.2004 30.5861 39.1981 30.5827 39.1968 30.579C37.9977 27.1135 35.1751 24.4506 31.522 23.3441C31.5117 23.3411 31.5051 23.3347 31.5021 23.3249L27.9819 12.0067C27.9819 12.0067 27.98 12.0031 27.9783 12.0019C27.9766 12.0007 27.9746 12 27.9725 12C27.9705 12 27.9685 12.0006 27.9668 12.0017C27.9652 12.0029 27.9634 12.0064 27.9634 12.0064L24.4364 23.3566C24.4351 23.3611 24.4325 23.3652 24.4291 23.3686C24.4256 23.3719 24.4213 23.3744 24.4166 23.3758C20.804 24.4964 18.0399 27.1468 16.8413 30.5782C16.838 30.5878 16.8313 30.594 16.8212 30.5969L5.00098 33.9999H17.3081C17.3134 33.9999 17.3184 33.9927 17.3229 33.9863C17.3251 33.9832 17.3272 33.9803 17.329 33.9786C17.3346 33.9734 17.3377 33.9663 17.3378 33.9589C17.3667 31.9154 17.965 30.0558 19.1327 28.3802C21.4628 25.0367 25.7344 23.2799 29.9008 24.0027ZM31.697 19.3348C31.7002 19.3376 31.7041 19.3396 31.7084 19.3406C37.5013 20.6824 42.0127 25.0068 43.3806 30.5288C43.3836 30.5411 43.3916 30.5487 43.4044 30.5518L44.4765 30.8073C44.4784 30.8077 44.4803 30.8077 44.4821 30.8072C44.4834 30.8069 44.4845 30.8064 44.4856 30.8058L44.487 30.8046L44.4876 30.804L44.489 30.8023L44.4893 30.8016L44.49 30.8001L44.4902 30.7994C44.4906 30.7979 44.4906 30.7963 44.4902 30.7947C43.8735 27.9873 42.5715 25.5106 40.5844 23.3648C40.5769 23.3568 40.5756 23.348 40.5805 23.3384L41.8636 20.7412C41.8641 20.74 41.8643 20.7387 41.864 20.7374C41.8637 20.7361 41.863 20.7349 41.862 20.734C41.861 20.7331 41.8597 20.7325 41.8584 20.7323C41.857 20.7321 41.8556 20.7324 41.8543 20.733L39.2559 22.0833C39.252 22.0852 39.2484 22.0848 39.245 22.0819C36.9842 20.1601 34.3673 18.899 31.3944 18.2986C31.3917 18.2981 31.389 18.2982 31.3864 18.299C31.3838 18.2998 31.3815 18.3012 31.3796 18.3031C31.3778 18.305 31.3765 18.3073 31.3759 18.3098C31.3753 18.3122 31.3754 18.3148 31.3762 18.3173L31.6902 19.3244C31.6915 19.3283 31.6939 19.3319 31.697 19.3348ZM16.731 22.0678C16.7364 22.0707 16.7426 22.0719 16.7488 22.0712C16.755 22.0706 16.7608 22.0681 16.7655 22.0641C19.0123 20.1618 21.6096 18.9094 24.5573 18.3069C24.5592 18.3065 24.5612 18.3066 24.563 18.3071C24.5648 18.3077 24.5665 18.3087 24.5678 18.31L24.5693 18.3119C24.5699 18.3128 24.5703 18.3138 24.5706 18.3148C24.5708 18.3156 24.5709 18.3165 24.5709 18.3174C24.5709 18.3183 24.5707 18.3193 24.5704 18.3202L24.2537 19.3372C24.2514 19.3446 24.2463 19.3494 24.2383 19.3513C18.4482 20.7026 13.9664 25.0396 12.6097 30.5462C12.6076 30.554 12.6026 30.5589 12.5946 30.5609L11.525 30.8238C11.5024 30.8293 11.4936 30.8212 11.4984 30.7996C12.1169 27.9832 13.4242 25.5002 15.4205 23.3504C15.4247 23.3459 15.4275 23.3402 15.4284 23.3342C15.4292 23.3282 15.4283 23.3221 15.4255 23.3166L14.1542 20.7431C14.1534 20.7417 14.1531 20.7401 14.1534 20.7385L14.1536 20.7378C14.154 20.7365 14.1547 20.7353 14.1558 20.7343C14.1565 20.7337 14.1574 20.7331 14.1583 20.7328L14.1602 20.7323C14.1619 20.7321 14.1636 20.7325 14.1651 20.7333L16.731 22.0678ZM20.475 21.8595L20.7939 21.6842C20.8046 21.6783 20.8183 21.6818 20.8245 21.692L21.9801 23.5978C21.9863 23.608 21.9827 23.621 21.972 23.6269L21.6531 23.8022C21.6424 23.808 21.6287 23.8045 21.6225 23.7943L20.4668 21.8886C20.4606 21.8784 20.4643 21.8654 20.475 21.8595ZM35.5453 21.8659L35.2098 21.6807C35.2039 21.6775 35.1964 21.6794 35.193 21.685L34.024 23.6049C34.0206 23.6105 34.0226 23.6177 34.0284 23.621L34.3639 23.8061C34.3698 23.8094 34.3773 23.8074 34.3808 23.8018L35.5498 21.8819C35.5532 21.8763 35.5512 21.8691 35.5453 21.8659ZM17.6916 23.8832L19.3405 25.453C19.3449 25.4572 19.3449 25.4639 19.3405 25.4681L19.0659 25.7296C19.0615 25.7337 19.0544 25.7337 19.05 25.7296L17.4011 24.1597C17.3967 24.1555 17.3967 24.1488 17.4011 24.1446L17.6757 23.8832C17.6801 23.879 17.6872 23.879 17.6916 23.8832ZM38.6017 24.1349L38.3433 23.8889C38.3336 23.8796 38.3178 23.8796 38.3081 23.8889L36.6754 25.4433C36.6657 25.4525 36.6657 25.4676 36.6754 25.4768L36.9338 25.7228C36.9436 25.7321 36.9593 25.7321 36.969 25.7228L38.6017 24.1684C38.6115 24.1592 38.6115 24.1441 38.6017 24.1349ZM15.3137 26.8054L17.3283 27.9128C17.3355 27.9168 17.338 27.9256 17.3338 27.9325L17.1425 28.2479C17.1384 28.2548 17.1291 28.2572 17.1219 28.2532L15.1072 27.1458C15.1 27.1419 15.0975 27.1331 15.1017 27.1262L15.293 26.8107C15.2972 26.8038 15.3064 26.8015 15.3137 26.8054ZM40.6979 26.8055L38.6818 27.9136C38.6747 27.9175 38.6723 27.9262 38.6764 27.9329L38.8677 28.2484C38.8718 28.2552 38.8809 28.2575 38.888 28.2536L40.9041 27.1454C40.9112 27.1415 40.9136 27.1329 40.9095 27.1261L40.7182 26.8106C40.7141 26.8039 40.705 26.8016 40.6979 26.8055ZM22.1682 33.1112C22.2488 33.0067 22.3294 33.0752 22.3932 33.1429C22.5049 33.2615 22.6241 33.3732 22.7508 33.478C23.0698 33.7415 23.1118 33.2841 23.0897 33.0928C23.0888 33.0842 23.0904 33.0762 23.0945 33.0685C23.1865 32.8969 23.4205 32.9236 23.5744 32.9961C23.6025 33.0093 23.6335 33.0253 23.6664 33.0424C23.8081 33.1157 23.9855 33.2076 24.1215 33.173C24.2589 33.1381 24.2108 32.9604 24.1766 32.8674C24.111 32.6889 24.0542 32.508 24.0062 32.3249C23.9575 32.1384 23.9634 31.9863 24.1397 31.8837C24.4131 31.7241 24.6252 31.9093 24.801 32.1094C24.9613 32.2919 25.1889 32.4976 25.441 32.6052C25.6031 32.6747 25.9398 32.8096 26.451 33.0099C26.7763 33.1374 27.0757 33.2263 27.349 33.2763C27.5298 33.3096 27.7013 33.2977 27.7268 33.0938C27.7434 32.9603 27.7323 32.8128 27.6935 32.6513C27.672 32.562 27.6654 32.5008 27.6736 32.4677C27.7181 32.2892 28.01 32.3358 28.1248 32.3942C28.1978 32.4314 28.2707 32.4689 28.3435 32.5063C28.7303 32.7052 29.1158 32.9034 29.5265 33.0568C29.6732 33.1114 30.0039 33.1146 30.0406 32.9127C30.0632 32.786 29.8383 32.6578 29.7308 32.5965C29.724 32.5926 29.7178 32.589 29.7121 32.5858C29.6223 32.5343 29.5186 32.4998 29.4153 32.4653C29.2851 32.4219 29.1554 32.3786 29.0541 32.302C28.9741 32.2418 28.6349 31.9421 28.6856 31.8427C28.7354 31.7452 28.8778 31.7356 28.98 31.7537C29.2447 31.8004 29.4625 31.9155 29.6334 32.099C29.6382 32.1042 29.644 32.1084 29.6506 32.1114C29.6571 32.1145 29.6642 32.1162 29.6714 32.1166C29.6787 32.117 29.686 32.116 29.6929 32.1138C29.6997 32.1115 29.7061 32.1079 29.7115 32.1032L29.8276 32.0031C29.8356 31.9962 29.8409 31.987 29.8428 31.977C29.8446 31.9669 29.8428 31.9566 29.8377 31.9477C29.531 31.4137 29.0765 31.0682 28.5895 30.6981C28.5729 30.6855 28.5564 30.6729 28.5398 30.6603C28.2899 30.4703 28.3523 29.7581 28.4345 29.5045C28.5641 29.1054 28.8356 29.1134 29.1532 29.326C29.5135 29.5669 29.7004 29.9108 29.8889 30.2577C30.0143 30.4884 30.1404 30.7205 30.3188 30.9243C30.5322 31.1683 30.7847 31.3699 31.0763 31.5288C31.4232 31.7179 31.7056 31.9661 31.9906 32.2166C32.1241 32.3339 32.2582 32.4517 32.3997 32.5642C32.6932 32.7974 33.0109 33.0247 33.3529 33.2462C33.3911 33.2711 33.4226 33.2902 33.4472 33.3035C33.4582 33.3096 33.4639 33.3065 33.4643 33.2945L33.485 32.8205C33.4853 32.8116 33.4884 32.8031 33.4938 32.7958C33.4992 32.7886 33.5067 32.7831 33.5154 32.7798C33.5241 32.7766 33.5335 32.7759 33.5427 32.7777C33.5518 32.7795 33.5601 32.7838 33.5667 32.7901C33.6967 32.9141 33.8271 33.0422 33.9577 33.1743C34.1029 33.3211 34.3693 33.558 34.5551 33.3134C34.6615 33.1735 34.552 33.003 34.4387 32.898C34.282 32.7529 34.1243 32.6086 33.9658 32.4651C33.8149 32.3286 34.12 32.3031 34.1896 32.3111C34.5062 32.3476 34.8246 32.5551 35.0832 32.7304C35.1398 32.7688 35.1963 32.8072 35.2529 32.8456C35.6899 33.1423 36.1267 33.4389 36.5829 33.709C37.0628 33.9936 37.579 34.0694 38.1316 33.9366C38.1329 33.9363 38.1341 33.9356 38.1349 33.9347C38.1356 33.934 38.136 33.9333 38.1363 33.9324C38.1364 33.9321 38.1365 33.9317 38.1365 33.9313C38.1367 33.93 38.1364 33.9288 38.1358 33.9277C38.1352 33.9266 38.1342 33.9257 38.133 33.9251C37.4924 33.6304 36.853 33.2977 36.2826 32.8953C35.8955 32.6222 35.5087 32.3485 35.1221 32.0745C34.8814 31.9038 34.5968 31.7524 34.2683 31.6205C34.1021 31.5539 33.9795 31.5531 33.8253 31.6261C33.2424 31.9024 32.651 32.0132 32.1686 31.4894C31.9039 31.2018 31.6241 30.929 31.3445 30.6564C31.0884 30.4067 30.8325 30.1572 30.5885 29.8967C30.1302 29.407 29.6113 28.9322 28.9724 28.6229C28.8177 28.548 28.5308 28.4249 28.3696 28.4931C27.7643 28.7497 27.1917 29.1733 26.7042 29.5964C26.6735 29.6231 26.6426 29.6501 26.6114 29.6774C26.4208 29.844 26.2228 30.0171 26.0301 30.1508C25.5519 30.4828 25.0271 30.7266 24.4556 30.8822C24.2167 30.9472 24.0387 31.0383 23.8445 31.1627C23.5284 31.3654 23.2322 31.5965 22.9373 31.8266C22.8931 31.8611 22.8488 31.8957 22.8045 31.9301C22.4897 32.1749 22.2238 32.3116 21.8578 32.435C21.4149 32.5843 20.9444 32.7614 20.4462 32.9662C19.7248 33.2626 18.9945 33.5425 18.2649 33.8222C18.1407 33.8698 18.0165 33.9174 17.8923 33.9651C17.8713 33.9732 17.8719 33.9795 17.8943 33.9837C17.9287 33.9902 17.9739 33.989 18.0118 33.988C18.0318 33.9874 18.0498 33.987 18.063 33.9877C18.4039 34.0061 18.7588 34.0042 19.0915 33.9147C19.3786 33.8376 19.6646 33.7566 19.9495 33.6717C19.9932 33.6587 20.0816 33.6456 20.1247 33.6446C20.5299 33.6335 20.9352 33.6273 21.3406 33.6259C21.5424 33.6254 21.6919 33.6171 21.8424 33.4732C21.9605 33.3604 22.0691 33.2398 22.1682 33.1112Z" fill="#363636" />
</svg>