<!-- by TradeStack --><svg width="56" height="56" viewBox="0 0 56 56" xmlns="http://www.w3.org/2000/svg"><path fill="#FF743A" d="M0 0h56v56H0z"/><path fill-rule="evenodd" d="M16.47 21.02h-7L6 35h5.12l.8-3.21.9 3.21h5.92l-2.14-5.49a4.95 4.95 0 0 0 3.4-4.95 3.56 3.56 0 0 0-3.52-3.54h-.01Zm-2.94 3.85L12.96 27c.15.03.43.09.65.09.27 0 1.34-.16 1.34-1.4 0-.62-.44-.8-.77-.8h-.65Z"/><path d="m9.86 21.55-3.2 12.91h4.06l1.16-4.68 1.33 4.68h4.76l-2.07-5.32a4.41 4.41 0 0 0 3.58-4.58c0-2.3-2.01-2.96-3.02-3h-6.6Zm2.63 5.77.72-2.9h.93c.4.01 1.22.28 1.22 1.2 0 1.16-.8 1.75-1.52 1.85-.38.06-.92-.03-1.35-.15Z" fill="url(#a)"/><path d="M26.13 21H21l.46 14h4.44l2.69-6.2-.32 6.2h4.23L40 21h-5.14l-3.13 7.54.43-7.54h-3.52l-3.2 7.07.7-7.07Z"/><path d="M25.5 21.54h-4.03l.42 12.92h3.61l2.96-6.83h.63l-.34 6.83h3.39l6.92-12.92h-3.93l-3.58 8.61h-.5l.5-8.61H28.9L25 30.15h-.34l.84-8.61Z" fill="url(#b)"/><path d="m47.8 26.48.65.9L50 21.85l-.36-.2a8.46 8.46 0 0 0-3.3-.64c-4.53 0-9.34 4.04-9.34 8.6 0 1.84.62 3.21 1.7 4.12A6.24 6.24 0 0 0 42.75 35a9.3 9.3 0 0 0 3.61-.61l2.06-5.94-1.4 1c-.32.24-1.38.77-2.72.77-.5 0-.93-.11-1.22-.33-.27-.2-.5-.53-.5-1.12 0-.59.33-1.37.94-2.02a3.3 3.3 0 0 1 2.4-1.09c1.04 0 1.7.58 1.87.82Z"/><path d="m49.4 22.15-1.16 4.01a2.98 2.98 0 0 0-2.32-1.03 4 4 0 0 0-3.88 3.64c0 1.5 1.13 1.99 2.26 1.99 1.47 0 2.64-.58 3.04-.87l-1.42 4.1c-.37.16-1.53.47-3.17.47-2.91 0-5.2-1.4-5.2-4.84 0-5.2 5.9-8.07 8.8-8.07 1.43 0 2.63.4 3.05.6Z" fill="url(#c)"/><defs><linearGradient id="a" x1="27.37" y1="21.54" x2="27.37" y2="34.46" gradientUnits="userSpaceOnUse"><stop stop-color="#A3B5DB"/><stop offset="1" stop-color="#0057A0"/></linearGradient><linearGradient id="b" x1="28" y1="21.54" x2="28" y2="34.46" gradientUnits="userSpaceOnUse"><stop stop-color="#A3B5DB"/><stop offset="1" stop-color="#0057A0"/></linearGradient><linearGradient id="c" x1="27.49" y1="21.54" x2="27.49" y2="34.46" gradientUnits="userSpaceOnUse"><stop stop-color="#A3B5DB"/><stop offset="1" stop-color="#0057A0"/></linearGradient></defs></svg>