<!-- by TradeStack --><svg width="56" height="56" viewBox="0 0 56 56" xmlns="http://www.w3.org/2000/svg"><path fill="#F0F3FA" d="M0 0h56v56H0z"/><path d="M12 23H8v13h4v-7.43c.95-1.86 2.63-1.86 3.58-1.86.76 0 1.26.31 1.42.47v-3.72a3.98 3.98 0 0 0-1.42-.46c-1.52 0-2.95 1.55-3.58 2.32V23Z" fill="#231F20"/><path d="M22 36h-4V25.79C18 23.8 19.25 23 19.88 23L22 28v8Z" fill="#93B614"/><path d="M44 36h4V25.79C48 23.8 46.83 23 46 23l-2 5v8Z" fill="#F56C1C"/><circle cx="20" cy="18" r="2" fill="#93B614"/><circle cx="2" cy="2" r="2" transform="matrix(-1 0 0 1 48 16)" fill="#F56C1C"/><path d="M25.32 23H21l4.8 13h4.8l2.4-8.36L35.4 36h4.8L45 23h-4.32L38 31.36 35.4 23h-4.8L28 31.36 25.32 23Z" fill="#231F20"/></svg>