<!-- by TradeStack --><svg width="56" height="56" viewBox="0 0 56 56" xmlns="http://www.w3.org/2000/svg"><path fill="#F0F3FA" d="M0 0h56v56H0z"/><path d="M10.06 23.83a7.3 7.3 0 0 1 1.9-.67c.9-.2 1.9-.16 2.84-.14.73.01 1.2.49 1.2.98 0 .71-.78 1-1.37 1-.97-.01-1.63 0-2.37.14A3.46 3.46 0 0 0 10 28.25v3.64c0 .67-.4 1.12-1 1.11-.65-.01-1-.53-1-1.18V24.2c0-.67.36-1.15 1-1.17.55-.02.87.34 1.06.81ZM20.33 33.28l-3.23-8.65c-.57-1.54 1.42-2.29 1.95-.87.78 2.1 1.55 4.09 2.3 6.13.03.06.09.11.15.11.05 0 .1-.04.13-.12.71-1.92 1.42-3.73 2.1-5.6.28-.71.45-1.23 1.18-1.28.55-.04 1.11.49 1.09 1.09 0 .18-.06.4-.15.65-1.55 4.15-3.21 8.32-4.78 12.51-.47 1.26-2.08.78-2.07-.35 0-.14.03-.3.1-.47.37-.98.86-1.98 1.23-3.01a.2.2 0 0 0 0-.14Z" fill="#EF325B"/><path fill-rule="evenodd" d="M35 19.35v4.32s-.05.13-.14.08a6.16 6.16 0 0 0-3-.75A5.06 5.06 0 0 0 27 28.1a5.03 5.03 0 0 0 4.84 4.88l2.38.02c1.45.01 2.78-.93 2.78-2.51V19.27c0-.69-.28-1.28-1-1.27-.73 0-1 .7-1 1.35ZM32 25c-1.66 0-3 1.17-3 3 0 1.8 1.58 3 3.14 3h1.6c.68 0 1.24-.53 1.26-1.2v-1.23c.03-1.67-.87-3.56-3-3.57ZM40.5 29.05c.02-.03.05-.05.08-.05h5.86c.83 0 1.59-.17 1.56-1.15A5.07 5.07 0 0 0 43 23a5.06 5.06 0 0 0-5 5 5.05 5.05 0 0 0 5 5c1.1 0 3.69-.62 3.67-2.08 0-.6-.51-1.08-1.1-1.09-.26 0-.51.09-.74.26-.57.42-1.17.68-1.82.69-1.51 0-2.5-1.05-2.5-1.73ZM43 25c-1.26-.01-2 .96-2.47 1.9v.04c0 .03.02.06.06.06h4.81c.04 0 .08-.04.08-.08l-.01-.04c-.5-.9-.97-1.86-2.46-1.88Z" fill="#EF325B"/><path d="M32 29a1 1 0 1 0 0-2 1 1 0 0 0 0 2Z" fill="#F990A8"/></svg>