<?xml version='1.0' encoding='utf-8'?>
<!-- by TradeStack -->
<svg width="56" height="56" viewBox="0 0 56 56" xmlns="http://www.w3.org/2000/svg"><path fill="#F0F3FA" d="M0 0h56v56H0z" /><path d="m19.35 18.06 2.53 1.88a.2.2 0 0 1 .12.19v7.79c0 .07-.03.14-.07.19l-6.74 7.64a.14.14 0 0 0 .03.22c.02.01.05.03.08.03h4.68c.07 0 .12-.05.14-.12l1.53-4.4.02-.02.03-.01a.05.05 0 0 1 .04.03l1.48 4.29c.05.16.17.23.34.23h4.47a.14.14 0 0 1 .13.1.13.13 0 0 1-.05.14l-3.7 2.84a.25.25 0 0 0-.09.28l1.48 4.53c.03.1 0 .11-.08.05l-3.94-2.85a.15.15 0 0 0-.18 0l-3.91 2.82a.06.06 0 0 1-.08 0 .06.06 0 0 1-.02-.07l1.51-4.55c.02-.07 0-.13-.06-.17l-3.82-2.96a.48.48 0 0 1-.21-.4L15 12.1c0-.06.03-.11.1-.11h15.14c7.18 0 12.68 3.98 12.22 11.55-.26 4.39-2.63 7.78-6.88 9.35a.13.13 0 0 0-.09.14l.02.06L43 43.92a.05.05 0 0 1 0 .05c0 .01 0 .02-.02.02l-.02.01h-9.09a.37.37 0 0 1-.17-.05.36.36 0 0 1-.13-.12l-10.7-15.71c-.06-.08-.04-.12.05-.12h7.69c3.1-.24 4.98-2.84 4.41-5.89A5.14 5.14 0 0 0 29.87 18h-10.5c-.1 0-.12 0-.02.06Z" fill="#C1912F" /></svg>