<!-- by TradeStack --><svg width="56" height="56" viewBox="0 0 56 56" xmlns="http://www.w3.org/2000/svg"><path fill="#F0F3FA" d="M0 0h56v56H0z"/><path d="M11.88 25.02a16.52 16.52 0 0 1 5.27-9.32 16.67 16.67 0 0 1 8.7-3.98c.06 0 .08.02.08.08-.06.86-.1 1.7-.13 2.54a54.91 54.91 0 0 1-.28 3.92c-.2 1.98-.55 4.15-2.37 5.27-.52.33-1.16.57-1.92.74-1.08.24-2.41.4-3.63.5l-4.05.25c-.63.03-1.18.04-1.64.04-.03 0-.04-.02-.03-.04Z" fill="#0671BF"/><path d="M34.17 24.1c-2.16-.63-3.16-2.18-3.45-4.35a54.56 54.56 0 0 1-.53-6.22 26.22 26.22 0 0 0-.08-1.8h.01a18.24 18.24 0 0 1 4.2 1.13 16.55 16.55 0 0 1 7.94 7 15.3 15.3 0 0 1 1.86 5.17c0 .02 0 .03-.02.03a51.2 51.2 0 0 1-2.6-.1c-.23-.02-.56-.01-.85-.03-2.27-.18-4.36-.23-6.48-.84Z" fill="#F80202"/><path d="M18.37 29.94c-1.65-.27-1.92-2.03-1.2-3.18.1-.18.35-.35.56-.45.8-.38 1.61-.41 2.42-.1.82.34 1.16.95 1.16 1.77 0 .6-.06 1.08-.54 1.51-.59.53-1.63.58-2.4.45Zm-.2-.96c.17.47.55.6 1.04.55.66-.05.92-.71.9-1.25-.02-.3.02-.6-.03-.9-.18-1.15-1.72-1.25-2-.09-.14.58-.11 1.14.09 1.7ZM13.68 28.28l.01 1.63c0 .03-.04.09-.08.09h-1.2c-.04 0-.05-.04-.05-.06v-3.91c0-.02 0-.03.03-.03h1.88c.38 0 .65.02.81.08.45.14 1 .68.85 1.18-.15.49-.5.77-1.05.86h-.02v.03l1.45 1.8v.03l-.01.02h-1.42c-.03 0-.1-.05-.1-.07l-1.1-1.65Zm0-1.79.01 1.32v.01H14c.07 0 .15 0 .22-.03a.6.6 0 0 0 .19-.11.5.5 0 0 0 .12-.16.43.43 0 0 0 .04-.2v-.35a.46.46 0 0 0-.17-.35.63.63 0 0 0-.4-.14h-.29l-.01.01ZM24.08 27.6h.01l.85-1.57A.05.05 0 0 1 25 26h.56l.02.02v.03a23.1 23.1 0 0 1-.85 1.52c-.13.22-.38.68-.4 1a21.1 21.1 0 0 0-.01 1.42.05.05 0 0 1-.04.01h-1.15v-.02l-.01-.01c.02-.65.15-1.38-.16-2-.33-.63-.71-1.28-.98-1.94 0-.02 0-.03.02-.03h1.2l.02.02.87 1.57ZM28.3 28.9h-1.45c-.02 0-.03 0-.04.03-.1.36-.23.7-.4 1.04a.06.06 0 0 1-.05.03h-.55c-.02 0-.02 0-.02-.03l1.64-3.95.04-.02h.95c.02 0 .03 0 .04.02l1.63 3.96c0 .01 0 .02-.02.02h-1.22a.1.1 0 0 1-.06-.02 5.59 5.59 0 0 0-.43-1.05.06.06 0 0 0-.06-.03Zm-1.24-.5v.01l.01.01h1.1a.02.02 0 0 0 .01-.01v-.02l-.55-1.35h-.03l-.54 1.36ZM33.61 29.6v.37l-.01.02-.02.01H31l-.01-.03v-3.94l.01-.02.02-.01h1.16l.01.03v3.5l.01.03.03.01h1.34l.02.01.01.02ZM34.4 26h1.23a.02.02 0 0 1 .01.01V30a.02.02 0 0 1-.01.01h-1.24v-4h.01ZM36.53 26.46v-.44a.02.02 0 0 1 0-.01h.01V26h3.59a.02.02 0 0 1 .01.01v.45a.02.02 0 0 1 0 .02H39v3.5a.02.02 0 0 1-.01.01l-.01.01h-1.24v-3.5l-.01-.01h-1.18l-.02-.01a.02.02 0 0 1 0-.02ZM42 28.22v1.34l.02.01h1.42V30l-.02.01H40.8l-.01-.02V26.01l.02-.01h2.64V26.49h-1.43v1.23h1.41l.02.01v.46a.02.02 0 0 1-.02.02h-1.41v.02Z" fill="#0671BF"/><path d="M32.05 33.06c.8-.85 2.13-1.27 3.25-1.48.94-.18 1.84-.34 2.77-.4 1.34-.07 2.68-.2 4.02-.25a55.94 55.94 0 0 0 2.05-.1v.02a15.84 15.84 0 0 1-3.17 7.14c-.28.34-.55.7-.85 1.02a16.74 16.74 0 0 1-7.53 4.66c-.82.21-1.66.46-2.5.56-.03 0-.03 0-.03-.03.08-.6.13-1.2.14-1.8.02-1.8.2-3.58.4-5.35.16-1.42.44-2.9 1.45-3.99Z" fill="#F80202"/><path d="M23.65 43.75a16.4 16.4 0 0 1-11.8-12.89c0-.03.02-.05.05-.05 1.14.1 2.25.11 3.37.2 2.38.17 4.84.2 7.11 1.02 2.65.97 2.97 3.76 3.19 6.14.1 1.21.23 2.44.24 3.65 0 .86.09 1.58.12 2.38a.06.06 0 0 1-.07.06c-.74-.15-1.47-.32-2.2-.51Z" fill="#0671BF"/><path fill-rule="evenodd" d="M28 44.6a16.6 16.6 0 1 0 0-33.2 16.6 16.6 0 0 0 0 33.2Zm0 .4a17 17 0 1 0 0-34 17 17 0 0 0 0 34Z" fill="#0671BF"/></svg>