<!-- by TradeStack --><svg width="56" height="56" viewBox="0 0 56 56" xmlns="http://www.w3.org/2000/svg"><path fill="#F0F3FA" d="M0 0h56v56H0z"/><path d="M35.59 40.94 8 40.02l12.14-4.49 15.45 5.41Z" fill="url(#a)"/><path d="m35.7 40.7-10.92-6.95 3.3-11.8c2.4 3.8 7.3 11.54 7.62 12.22.33.68.14 4.64 0 6.53Z" fill="url(#b)"/><path d="m27.8 10.04-9.15 28.88 7.12-5.21 2.65-9.89-.62-13.78Z" fill="url(#c)"/><path d="m35.58 40.83-16.8-2.16 7.07-5 10.1 6.7-.37.46Z" fill="url(#d)"/><path d="M41 38.41 27.84 10l.54 13.61L35.58 41 41 38.41Z" fill="url(#e)"/><defs><linearGradient id="a" x1="8" y1="37.19" x2="35.6" y2="39.18" gradientUnits="userSpaceOnUse"><stop stop-color="#BEBEBE"/><stop offset="1" stop-color="#777066"/></linearGradient><linearGradient id="b" x1="25.77" y1="31.92" x2="32.01" y2="29.94" gradientUnits="userSpaceOnUse"><stop stop-color="#9D885D"/><stop offset=".49" stop-color="#60462B"/><stop offset="1" stop-color="#282105"/></linearGradient><linearGradient id="c" x1="32.64" y1="25.82" x2="18.37" y2="29.06" gradientUnits="userSpaceOnUse"><stop offset=".42" stop-color="#0E0900"/><stop offset="1" stop-color="#624614"/></linearGradient><linearGradient id="d" x1="20.39" y1="37.99" x2="34.02" y2="41.84" gradientUnits="userSpaceOnUse"><stop stop-color="#8C713A"/><stop offset="1" stop-color="#130800"/></linearGradient><linearGradient id="e" x1="25.81" y1="13.31" x2="38.47" y2="39.19" gradientUnits="userSpaceOnUse"><stop stop-color="#EDC35F"/><stop offset=".33" stop-color="#F6C928"/><stop offset=".42" stop-color="#FFEBB8"/><stop offset=".5" stop-color="#FFFEE9"/><stop offset=".55" stop-color="#FCECD5"/><stop offset=".64" stop-color="#F3C33D"/></linearGradient></defs></svg>