<?xml version='1.0' encoding='utf-8'?>
<!-- by TradeStack -->
<svg width="56" height="56" viewBox="0 0 56 56" xmlns="http://www.w3.org/2000/svg"><path fill="#F0F3FA" d="M0 0h56v56H0z" /><path d="M14.57 37.46 10 20.04 19.39 41l-4.82-3.54Z" fill="url(#a0protxkc)" /><path d="m18.84 35.27-8.8-15.03 9.36 20.73-.56-5.7Z" fill="url(#b0protxkc)" /><path d="M28.04 13 19.1 32.79l.5 8.13L28.02 13Z" fill="url(#c0protxkc)" /><path d="m24.6 34.37-5.03 6.6 8.4-27.86-3.36 21.26Z" fill="url(#d0protxkc)" /><path d="M41.43 37.46 46 20.04 36.67 41l4.76-3.54Z" fill="url(#e0protxkc)" /><path d="m37.16 35.27 8.8-15.03L36.68 41l.5-5.73Z" fill="url(#f0protxkc)" /><path d="m27.96 13 8.94 19.79-.55 8.21-8.39-28Z" fill="url(#g0protxkc)" /><path d="M31.4 34.37 36.35 41l-8.32-27.9 3.35 21.27Z" fill="url(#h0protxkc)" /><defs><linearGradient id="a0protxkc" x1="10.46" y1="21.25" x2="17.91" y2="39.36" gradientUnits="userSpaceOnUse"><stop stop-color="#AD9F85" /><stop offset=".36" stop-color="#EBD385" /><stop offset="1" stop-color="#8F7E39" /></linearGradient><linearGradient id="b0protxkc" x1="11.13" y1="22.19" x2="18.55" y2="35.97" gradientUnits="userSpaceOnUse"><stop stop-color="#E5D395" /><stop offset="1" stop-color="#B29A50" /></linearGradient><linearGradient id="c0protxkc" x1="19.1" y1="34.12" x2="26.68" y2="14.24" gradientUnits="userSpaceOnUse"><stop stop-color="#8B7738" /><stop offset=".45" stop-color="#ECD07D" /><stop offset=".57" stop-color="#F0D481" /><stop offset="1" stop-color="#BDAE73" /></linearGradient><linearGradient id="d0protxkc" x1="27.4" y1="15.88" x2="19.91" y2="40.12" gradientUnits="userSpaceOnUse"><stop stop-color="#A3883B" /><stop offset=".7" stop-color="#F2CE7A" /><stop offset="1" stop-color="#A3883B" /></linearGradient><linearGradient id="e0protxkc" x1="45.54" y1="21.25" x2="38.09" y2="39.36" gradientUnits="userSpaceOnUse"><stop stop-color="#AD9F85" /><stop offset=".36" stop-color="#EBD385" /><stop offset="1" stop-color="#8F7E39" /></linearGradient><linearGradient id="f0protxkc" x1="44.87" y1="22.19" x2="37.45" y2="35.97" gradientUnits="userSpaceOnUse"><stop stop-color="#E5D395" /><stop offset="1" stop-color="#B29A50" /></linearGradient><linearGradient id="g0protxkc" x1="36.9" y1="34.12" x2="29.32" y2="14.24" gradientUnits="userSpaceOnUse"><stop stop-color="#8B7738" /><stop offset=".45" stop-color="#ECD07D" /><stop offset=".57" stop-color="#F0D481" /><stop offset="1" stop-color="#BDAE73" /></linearGradient><linearGradient id="h0protxkc" x1="28.6" y1="15.88" x2="36.09" y2="40.12" gradientUnits="userSpaceOnUse"><stop stop-color="#A3883B" /><stop offset=".7" stop-color="#F2CE7A" /><stop offset="1" stop-color="#A3883B" /></linearGradient></defs></svg>