<!-- by TradeStack --><svg viewBox="0 0 56 56" xmlns="http://www.w3.org/2000/svg"><path fill="#002043" d="M0 0h56v56H0z"/><path d="M22.62 15h.3a.03.03 0 0 1 .01.02.03.03 0 0 1-.02.03c-.03 0-3.9.53-3.9 5.77v4.05l.02 11.9v.35c0 .57-.01 3.22-1.42 4.44-1.29 1.1-3.15 1.44-4.68 1.44a316.22 316.22 0 0 1-1.93-.04v-.3c.15 0 .3 0 .47-.02 2.16-.1 6-.29 6.14-5.5V20.96c-.02-.57-.02-3 1.41-4.57a4.66 4.66 0 0 1 3.6-1.4Zm6.32 16.08c-.3 0-2.95.05-4.76 1.93l.03-7.1v-.08c-.04-2.44-.32-7.58-1.15-8.6a.02.02 0 0 0-.02 0 .02.02 0 0 0 0 .02h-.01L23 30.43c-.66.31-1.25.71-1.79 1.2V19.76c0-.1-.07-2.09 1.5-2.85h-.15c-.43 0-2.56.27-2.56 2.88v19.38c0 2.5 1.42 2.7 1.85 2.7H22c-.9-.31-.8-2.5-.79-2.66v-5.97a11.5 11.5 0 0 1 1.79-1.5l.03 4.8.01.01h.02c.1-.16 2.3-3.68 5.9-5.42h.01v-.03a.03.03 0 0 0-.02-.01l-.01-.01Zm-2.88-13.59c.49.05 1.58.13 2.4.16.6.03 1.08.04 1.66.05H30.55c3.25.04 5.09.35 5.6.95a.62.62 0 0 1 .16.5v.03c-.06.4-.21 1.55-9.23 2.55l-.08.01c-.66.09-1.46.19-1.76.35v.02a43.73 43.73 0 0 0 5.35-.09 1.49 1.49 0 0 0 1.46.97 1.49 1.49 0 0 0 1.25-1.33c1.93-.4 4.08-1.21 4.31-2.25a1.3 1.3 0 0 0-.34-1.19c-.48-.51-1.59-1.22-5.58-1.17l-6.71.12-.02.01c0 .12.68.26 1.1.3v.01Zm10.9 10.78h.07v.02a.78.78 0 0 1 .64.26c.31.39.19 1.06.17 1.14H34c-4.67-.04-7.24.85-8.34 1.36-.07.04-.1.04-.1.04l-.02-.01v-.06c.25-1.05 3.63-1.8 4.02-1.88 2.85-.65 4.12-1.97 4.36-3a1.36 1.36 0 0 0-.23-1.2c-.58-.74-1.7-1.17-3.94-1.24l-.33-.01a6.6 6.6 0 0 0-.35-.01c-.16-.02-.3-.02-.46-.02a8.1 8.1 0 0 1-1.6-.25l.01-.01.02-.01c.93-.11 1.88-.16 2.82-.17 1.68 0 2.96.2 3.82.56 1.17.47 1.73 1.2 1.65 2.19-.06.94-1.1 2.25-2.75 2.87l4.37-.57Zm2.14-3.14.18-.12c.38-.26.66-.46.67-1.85.5-.28 1.02-.53 1.56-.74l.07.13c.24.45.37.95.39 1.45.12 2.14-1.54 3.42-1.82 3.62-.08-.81-.62-.98-1.05-.98-.26 0-.5.05-.75.13A29.56 29.56 0 0 0 34.9 28h-.02a.04.04 0 0 0-.02.04s0 .02.02.02h.02c1.95-.36 3.02-.45 3.2-.47h.03a.87.87 0 0 1 .81.3c.38.47.23 1.37.2 1.48v.05a.03.03 0 0 0 .03 0c2.48-.97 3.38-2.52 3.67-3.65.2-.74.22-1.51.07-2.26a4.79 4.79 0 0 0-2.48-3.02 4.65 4.65 0 0 0-1.98-.7v.02a6.49 6.49 0 0 1 2.6 1.94c-.4.15-.8.33-1.17.54a2.9 2.9 0 0 0-2.05-2.32h-.02v.02c.78.55 1.4 1.9 1.4 2.98.03.72-.02 1.45-.13 2.17h.03Z" fill="#fff"/></svg>