<!-- by TradeStack --><svg width="56" height="56" viewBox="0 0 56 56" xmlns="http://www.w3.org/2000/svg"><path fill="#F0F3FA" d="M0 0h56v56H0z"/><path d="M15 19.62c0 1.67-1.53 2.38-3.02 2.38-.62 0-1.25-.07-1.83-.27L10 20.49c.56.57 1.29.86 2.2.86.98 0 1.8-.53 1.8-1.61 0-1.01-.94-1.33-1.73-1.63-.94-.36-2.27-.83-2.27-2 0-1.5 1.5-2.11 2.83-2.11.42 0 .91.05 1.45.16l.12 1.03a3.16 3.16 0 0 0-1.74-.55c-.76 0-1.66.37-1.66 1.24 0 .88 1.11 1.23 1.8 1.49 1.08.4 2.2.92 2.2 2.25ZM21 19.44A2.48 2.48 0 0 1 18.51 22C17.08 22 16 21 16 19.54A2.48 2.48 0 0 1 18.5 17c1.4 0 2.5 1.03 2.5 2.44Zm-1 .02c0-1-.42-1.93-1.5-1.93-1.1 0-1.5.98-1.5 2s.42 1.94 1.5 1.94c1.13 0 1.5-.98 1.5-2.01ZM26.3 22H25v-.7c-.34.43-.7.7-1.12.7-.96 0-1.79-.51-1.85-1.51-.05-.86-.03-1.73-.03-2.59 0-.36-.13-.6-.38-.75L23 17v3.1c0 .6.12 1.36.88 1.36.98 0 1.12-.75 1.12-1.65v-1.9c0-.37-.13-.62-.38-.76L26 17l.01 4.2c.01.3.05.62.28.8ZM29.49 21.26l-.2.66c-.35.05-.64.08-.88.08-.92 0-1.41-.54-1.41-1.39V17.5h-.28c-.18 0-.34.02-.48.05l.3-.55H27v-.78l1-.22v1h.67c.22 0 .39-.02.52-.05l-.3.55H28v3.1c0 .5.13.85.67.85.25 0 .53-.06.82-.19ZM37.49 29.26l-.2.66c-.35.05-.64.08-.88.08-.92 0-1.41-.54-1.41-1.39V25.5h-.28c-.18 0-.34.02-.48.05l.3-.55H35v-.78l1-.22v1h.67c.21 0 .39-.02.52-.05l-.3.55H36v3.1c0 .5.13.85.67.85.25 0 .53-.06.82-.19ZM22.49 29.26l-.2.66c-.35.05-.64.08-.88.08-.92 0-1.41-.54-1.41-1.39V25.5h-.28c-.18 0-.34.02-.48.05l.3-.55H20v-.78l1-.22v1h.67c.22 0 .39-.02.52-.05l-.3.55H21v3.1c0 .5.13.85.67.85.25 0 .53-.06.82-.19ZM20 30h-1.9c.15-.14.23-.29.23-.42 0-.11-.05-.27-.13-.47L17.3 27h-2.85l-.96 2.23a.97.97 0 0 0-.09.37c0 .14.07.28.22.4H12c.25-.18.42-.37.5-.59l2.7-6.47c.1-.26.15-.45.15-.57 0-.13-.06-.25-.19-.37h1.21l2.94 7.06c.09.22.17.37.23.47.09.14.24.3.46.47Zm-2.98-3.81-1.14-2.96-1.17 2.96h2.31ZM34.38 22h-1.76c.26-.15.38-.43.38-.83V19.1c0-.57-.04-1.5-.78-1.5-.76 0-1.22.83-1.22 1.51v2.05c0 .4.12.67.37.83h-1.75c.26-.15.38-.43.38-.83l-.01-6.1c0-.3-.04-.55-.28-.74L31 14v3.77c.47-.51.79-.77 1.4-.77 1 0 1.5.7 1.57 1.69.02.32.03.32.03.72v1.76c0 .4.13.67.38.83ZM24.48 30h-1.96c.33-.15.5-.43.5-.83l-.02-6.1c0-.23-.03-.37-.07-.46a.71.71 0 0 0-.3-.28L24 22v7.17c0 .4.16.67.48.83ZM29.22 30h-1.05a7.23 7.23 0 0 1-.07-.98c-.36.62-.64.98-1.5.98s-1.6-.5-1.6-1.42c0-1.16 1-1.58 2.58-1.58.18 0 .1.01.42.04v-.2c0-.8-.07-1.31-.9-1.31-.56 0-1.04.11-1.46.35l.18-.76c.46-.08.87-.12 1.24-.12 1.39 0 1.94.44 1.94 1.82v1.72a4.96 4.96 0 0 0 .22 1.46ZM28 27.5c-.32-.04-.25-.06-.48-.06-1.08 0-1.52.24-1.52 1.02 0 .6.36 1.05.96 1.05.58 0 .74-.4.91-.94.09-.27.13-.52.13-1.06ZM36.22 42h-1.05a7.23 7.23 0 0 1-.07-.98c-.36.62-.64.98-1.5.98s-1.6-.5-1.6-1.42c0-1.16 1-1.58 2.58-1.58.18 0 .1.01.42.04v-.2c0-.8-.07-1.31-.9-1.31-.56 0-1.04.12-1.46.35l.18-.76c.46-.08.87-.12 1.24-.12 1.39 0 1.94.44 1.94 1.82v1.72a4.96 4.96 0 0 0 .22 1.46ZM35 39.5c-.32-.04-.25-.06-.48-.06-1.08 0-1.52.24-1.52 1.02 0 .6.36 1.05.96 1.05.58 0 .74-.4.91-.94.09-.27.13-.52.13-1.06ZM34.38 30h-1.76c.25-.14.38-.4.38-.77v-2.25c0-.77.07-1.43-.78-1.43-.8 0-1.22.62-1.22 1.43v2.25c0 .37.12.62.37.77h-1.74c.26-.14.38-.4.38-.77L30 25.99c0-.2-.03-.35-.06-.44a.6.6 0 0 0-.22-.25L31 25v.77c.48-.5.82-.77 1.46-.77C34 25 34 26.35 34 27.58v1.65c0 .37.12.62.38.77ZM41.5 42h-1.88c.25-.14.38-.4.38-.77v-2.25c0-.77.07-1.43-.78-1.43-.8 0-1.22.62-1.22 1.43v2.25c0 .37.12.62.37.77h-1.74c.25-.14.38-.4.38-.77L37 37.99c0-.2-.03-.35-.06-.44a.6.6 0 0 0-.22-.25L38 37v.77c.48-.5.82-.77 1.46-.77C41 37 41 38.35 41 39.58v1.65c0 .37.25.62.5.77ZM31 39.64C31 41.3 29.83 42 28.3 42h-2.65c.23-.17.35-.48.35-.91v-6.16c0-.44-.12-.75-.35-.93h2.84c1.15 0 2.04.7 2.04 1.89 0 .71-.33 1.26-1 1.62.96.38 1.47 1.06 1.47 2.13Zm-1.3-3.67c0-.87-.47-1.3-1.39-1.3H27v2.56h.93c.9 0 1.76-.19 1.76-1.26Zm.3 3.68c0-1.19-.68-1.76-1.8-1.76H27v3.45h1.05c1.16 0 1.95-.36 1.95-1.69ZM39 23.96h-1V23h1v.96Zm.24 6.04h-1.49c.17-.15.25-.42.25-.82v-3.14c0-.21-.02-.37-.04-.45a.66.66 0 0 0-.15-.28L39 25v4.18c0 .4.08.67.24.82Z" fill="#003E7E"/><path d="M12.03 34.83A28 28 0 0 1 5 33.7c1.36.77 5.23 2.3 9.88 2.3 5.81 0 16-4.05 22.6-4.05 4.28 0 8.8 1.92 10.52 2.88C46.59 33.55 42.41 31 36.97 31c-6.8 0-18.77 3.83-24.94 3.83Z" fill="#B58323"/><path d="m44 29-.16.84c-.4.1-.8.16-1.2.16-1.47 0-2.64-.91-2.64-2.47 0-1.54 1.11-2.53 2.61-2.53.33 0 .68.03 1.06.1l.12.9c-.4-.26-.82-.39-1.26-.39-1.11 0-1.53.85-1.53 1.9 0 1.08.46 1.94 1.58 1.94.45 0 .92-.1 1.42-.45ZM46.5 42h-1.34c-1.14-1.15-1.17-1.39-2.16-2.38v1.55c0 .4.24.67.5.83h-2c.28-.23.5-.45.5-.83l-.01-6.1c-.01-.31-.05-.54-.29-.74L43 34v4.91c.32-.35 1.18-1.26 1.48-1.7 0-.06-.04-.13-.12-.21h1.16c-.73.85-1.02 1.36-1.85 2.23 1.05 1.03 1.16 1.34 2.14 2.2.2.18.36.37.69.57Z" fill="#003E7E"/></svg>