<?xml version='1.0' encoding='utf-8'?>
<!-- by TradeStack -->
<svg width="56" height="56" viewBox="0 0 56 56" xmlns="http://www.w3.org/2000/svg"><path fill="url(#atvth51v1)" d="M0 0h56v56H0z" /><path d="M16 12.01c-.6 0-.97.19-1 .83v3.76c.08.18.44.18.52 0a11.36 11.36 0 0 1 3.5-4.24c.13-.1.06-.36-.11-.36l-2.91.01Zm6.61 30.36c-.41.6-.34 1.2.26 1.57.05.04.12.06.19.06h16.67c.78 0 1.27-.24 1.27-1.1V13.58c0-.82 0-1.57-1-1.57h-9.2a.18.18 0 0 0-.11.04.2.2 0 0 0 0 .3c3.05 2.37 4.77 5.9 4.29 9.81-.27 2.21-1.25 4.08-2.5 5.88l-9.87 14.34Zm4.45-25.74c3.87-1.65 7.12 2.08 5.9 6-.8 2.5-3.24 2.83-5.39 3.1-.44.05-1.11 1-1.64 1.76l-.42.59c-.62.8-1.3-.12-1.96-1.03-.47-.63-.92-1.26-1.36-1.3-2.27-.26-4.83-.89-5.37-3.49-.57-2.75.3-4.65 2.61-5.7 1.88-.85 3.71.01 5.2 1.33.08.07.19.12.3.12.12 0 .23-.04.31-.11l.22-.18a7 7 0 0 1 1.6-1.1Zm-4.27 4.4a1.87 1.87 0 0 0-.52-1.3 1.78 1.78 0 0 0-1.25-.54 1.74 1.74 0 0 0-1.26.54 1.83 1.83 0 0 0-.52 1.3c0 .48.19.94.52 1.28a1.75 1.75 0 0 0 2.51 0c.34-.34.52-.8.52-1.29Zm7.84 0c0-.49-.2-.95-.52-1.3a1.75 1.75 0 0 0-2.52 0 1.85 1.85 0 0 0 .58 2.98 1.73 1.73 0 0 0 1.94-.4 1.83 1.83 0 0 0 .52-1.29Zm-9.43 12a46.8 46.8 0 0 0-2.96-3.82c-.72-.8-2.04-.25-2.29.66-.08.29-.04.7.11 1.21a9.9 9.9 0 0 1-.02 5.7c-.32 1.09.03 2.08 1.23 2.14.8.03 1.14-.4 1.58-.98l.12-.16c.74-.96 1.46-1.93 2.16-2.9.5-.7.56-1.17.07-1.86Z" fill="#FFC63E" /><defs><linearGradient id="atvth51v1" x1="10.42" y1="9.71" x2="68.15" y2="76.02" gradientUnits="userSpaceOnUse"><stop stop-color="#1A1E21" /><stop offset="1" stop-color="#06060A" /></linearGradient></defs></svg>