<!-- by TradeStack --><svg width="56" height="56" viewBox="0 0 56 56" xmlns="http://www.w3.org/2000/svg"><path fill="#2C78B6" d="M0 0h56v56H0z"/><path d="M8.61 29.73a6.18 6.18 0 0 1 2.22-7.9c1.77 10.82 18.05 13.2 25.97 13.04-15.1 5.14-25.97 0-28.19-5.14Z" fill="#010197"/><path d="M19.37 28.18a4.97 4.97 0 0 1 1.78-6.34c1.43 8.7 15.3 9.45 21.67 9.32-12.14 4.14-21.67 1.16-23.45-2.98Z" fill="#00065E"/><path d="M29.02 26.57A4.36 4.36 0 0 1 30.58 21c1.26 7.63 13.83 6.69 19.42 6.58-10.66 3.62-19.42 2.62-20.98-1.01Z" fill="#A5BFD8"/></svg>