<!-- by TradeStack --><svg width="56" height="56" viewBox="0 0 56 56" xmlns="http://www.w3.org/2000/svg"><path fill="#F0F3FA" d="M0 0h56v56H0z"/><path d="m27.93 17-6.59 6.92c-.03.04-.07.08-.12.08H16.8c-.09 0-.1-.07-.03-.13l11.16-11.84a.1.1 0 0 1 .14 0l11.2 11.88c.04.04.06.1 0 .09h-4.23c-.23 0-.4-.03-.58-.21l-6.4-6.8c-.05-.04-.08-.04-.12 0Zm22.02 18.99-1.78.01-.03-.01-10.37-7.9a.05.05 0 0 1 .03-.09h4.37a.05.05 0 0 1 .03.01l7.79 7.9a.05.05 0 0 1 0 .03v.02a.05.05 0 0 1-.04.03Zm-31.78-6.04L34.77 28H13.82c-.06 0-.1.02-.14.06l-7.66 7.86c-.04.05-.03.08.03.08h6.18c.06 0 .1-.03.14-.08l5.65-5.9c.04-.04.1-.07.15-.07Z" fill="#5C9D5A"/></svg>