<!-- by TradeStack --><svg width="56" height="56" viewBox="0 0 56 56" xmlns="http://www.w3.org/2000/svg"><path fill="#F0F3FA" d="M0 0h56v56H0z"/><path d="m20.14 39.82-1.36 1.65A16.11 16.11 0 0 1 12 31.74l2.93 2a14.1 14.1 0 0 0 5.2 6.08ZM27.79 12c-5.81 0-10.9 3.04-13.77 7.6l1.67 1.37c2.46-4.12 7-6.88 12.17-6.88 7.81 0 14.14 6.27 14.14 14a14 14 0 0 1-8.75 12.95L30.27 44A16.13 16.13 0 0 0 44 28.1C44 19.2 36.74 12 27.8 12ZM39 22.9c-.75.04-2.29.76-2.48 3.31-1.14.6-4.84 1.43-10.52 0 1.37-2.2 5.88-5.94 13-3.3Zm-8.14 5.25c3.2 0 5.34-.35 6.02-.53A21.55 21.55 0 0 1 18 47c10.44-4.64 13.34-12.71 13.48-16.17C16.88 29.55 11.78 22.41 11 19c6.79 6.77 15.86 9.15 19.86 9.15Zm-1.86 5c-4.24-.4-13.78-2.6-17.98-8.15-.29 1.87 1.9 6.49 12.98 10-.04 1.7-1.07 5.87-4.8 9 2.52-.9 8-4.32 9.8-10.84Z" fill="url(#a)"/><defs><linearGradient id="a" x1="42.43" y1="22.35" x2="15.21" y2="38.04" gradientUnits="userSpaceOnUse"><stop stop-color="#A17446"/><stop offset=".24" stop-color="#7D4D24"/><stop offset=".48" stop-color="#F3E1A7"/><stop offset=".77" stop-color="#A16539"/><stop offset=".97" stop-color="#A6794A"/></linearGradient></defs></svg>