<?xml version='1.0' encoding='utf-8'?>
<!-- by TradeStack -->
<svg width="56" height="56" viewBox="0 0 56 56" xmlns="http://www.w3.org/2000/svg"><path fill="#F0F3FA" d="M0 0h56v56H0z" /><path d="M28.22 13.33c-.17.03-.44.08-.38.33.08.34.11.71.1 1.12 0 .3 0 .66.02 1.02 0 .37.02.76.01 1.11a.12.12 0 0 0 .07.12l.12.06c.1.07.2.12.36.03a.04.04 0 0 1 .04 0c.22.12 1.48.24 1.6.07.1-.13.13-.4-.05-.49h-.03c-.33.03-1.56-.15-1.52-.31v-.04a5.56 5.56 0 0 1 .05-2.13c.05-.26.12-.98-.39-.89ZM31.07 17.11c.03.03.06.06.1.07l.02.01v.01l-.01.03c.04.1.1.17.22.19.01 0 .02 0 .03.02.13.18.6.3.8.2.39-.21.77-.53 1-.95l.23-.44c.21-.38.4-.72.5-1.1l.01-.01c.05-.18.1-.31-.08-.41-.22-.12-.3 0-.42.14l-.02.02-.01.04a.38.38 0 0 1-.11.34l-.01.03c0 .06-.02.1-.04.14-.2.34-.43.72-.7 1.13-.12.2-.34.49-.56.54-.46.1-.36-.66-.32-.87.04-.18.1-.36.16-.54.05-.13.1-.26.13-.4.06-.22.1-.45.15-.69l.1-.46c.02-.12-.03-.2-.09-.3a.08.08 0 0 0-.05-.04.09.09 0 0 0-.07 0 .29.29 0 0 1-.13.05c-.18 0-.2.1-.22.22l-.02.1-.14.54-.13.54-.05.19c-.06.2-.11.38-.2.6-.08.25-.2.71-.07.97v.09ZM22.27 16.84c.2.3.47.72.6 1.04.1.27-.02.51-.33.48-.01 0-.02 0-.02-.02.01-.04.01-.05-.01-.08-.16-.19-.24-.4-.33-.62-.06-.17-.12-.34-.22-.49a41.2 41.2 0 0 1-1.14-1.88c-.26-.46.42-.48.58-.11l.09.17.07.16.06.12c.08.14.15.3.22.47.02.05.05.06.1.03a9.32 9.32 0 0 0 .81-1.15c0-.03.02-.05.03-.08.13-.26.29-.55.62-.4 0 0 .02 0 .02.02.16.31 0 .47-.2.67l-.06.06-.07.11a.4.4 0 0 1-.1.14c-.18.13-.26.35-.34.56l-.08.22v.03a.03.03 0 0 0 .02.02l.95.13c.4.05.8.1 1.2.17.4.07.3.53 0 .65-.45.18-2-.37-2.28-.47-.08-.03-.13-.01-.18.02-.02 0-.02.02-.01.03ZM34.55 17.77l.56-1.06c.03-.04.04-.04.04.01-.01.58.03 1.12.08 1.67.02.26.05.52.06.79.02.24.14.33.37.35l.03-.01.23-.25.14-.17A9.8 9.8 0 0 0 37.62 17c-.02-.07-.05-.12-.1-.15-.26-.1-.52 0-.67.22l-.36.55c-.23.36-.47.73-.74 1.01h-.02a.28.28 0 0 1 0-.16c.12-.48.05-1.04-.02-1.58-.04-.3-.07-.6-.08-.88 0-.07.01-.13.03-.2.03-.17.05-.33-.19-.42-.18-.07-.43.38-.56.61a14.99 14.99 0 0 0-.49.85l-.11.22a4.3 4.3 0 0 1-.25.38l-.08.12-.13.21-.15.25c-.1.14-.13.23-.04.38.13.2.4.11.5-.04l.11-.16c.1-.14.2-.3.28-.45ZM21.02 18.08c.15-.1.28-.1.4.03.4.45-.48 1.42-.81 1.53-.42.13-.74.02-1.12-.17-.22-.12-.39-.35-.54-.56a7.54 7.54 0 0 0-.04-.05c-.5-.7-1.1-2.22.1-2.5h.05l.05.02h.02c.21-.07.55-.08.67.17.02.05.01.1.01.14v.07a.1.1 0 0 1-.06.1h-.04a1.42 1.42 0 0 0-.49.01l-.03.02a.8.8 0 0 1-.08.06c-.04.03-.08.07-.1.11-.17.27.01.71.12 1l.01.02c.13.32.32.56.56.8.11.11.2.14.32.16l.14.04c.53.18.57-.12.62-.44.03-.22.07-.44.24-.56ZM36.72 21.23c.05.12.1.18.2.26.29.24.61.37.98.37.43 0 .35-.64-.06-.66h-.19l-.27-.19c-.19-.12-.24-.33-.28-.54a.54.54 0 0 1 .1-.41c.23-.26.53-.5.91-.72.24-.14.49-.19.75-.15.12.02.3.1.36.18.1.11.06.24.02.37a.55.55 0 0 0-.03.28c.05.16.27.24.4.15.14-.1.31-.68.29-.84-.07-.43-.52-.71-.93-.75l-.07-.01a1.23 1.23 0 0 0-.48 0l-.1.03c-.17.05-.38.1-.5.23-.04.05-.12.08-.22.09l-.03.01-.2.19c-.08.06-.16.13-.22.2-.17.2-.3.43-.44.65l-.06.1c-.17.28-.04.88.07 1.16ZM17.73 19.73l.4.16c.4.17.83.34 1.25.48a.2.2 0 0 1 .12.12c.12.25-.2.4-.38.41-.06 0-.12-.04-.17-.08a.77.77 0 0 0-.55-.21h-.02c-.08.09-.15.22-.2.34-.03.03-.04.07-.06.1-.06.1-.14.2-.22.3l-.08.12c-.07.08-.1.16-.03.26.12.2.26.38.41.56.16.17 0 .39-.18.44-.21.07-.41-.33-.52-.56l-.04-.08c-.03-.06-.1-.09-.17-.09a.03.03 0 0 1-.02 0l-.14-.2v-.02c.05-.16-.08-.36-.2-.52l-.05-.09-.2-.34a4 4 0 0 0-.28-.49c-.07-.09-.12-.23-.17-.37-.07-.21-.14-.43-.3-.51v-.03l.23-.3h.03l.08.01c.18.04.33.07.5.2.1.08.2.1.3.13h.04l.03.02c.06.06.12.08.18.1l.11.04.14.06h.03l.05-.04h.03l.02.05.03.03Zm-.52 1.05c.04.06.11.12.18.16h.03a2.85 2.85 0 0 0 .36-.64c-.14-.1-.28-.15-.42-.2l-.26-.1a2 2 0 0 0-.28-.11c-.04-.02-.05 0-.02.03.03.05.04.1.05.15l.05.12.31.59ZM27.71 28.29l-.2.05h-.03a.06.06 0 0 1-.03-.04c-.03-.1.03-.15.1-.2l.1-.1c.32-.55 1.32-.42 1.84-.23v.02c-.02.08-.06.13-.1.15-.42.18-1.27-.03-1.58.36h-.06l-.04-.01Z" /><path d="M33.3 26.77v-.17a1.84 1.84 0 0 0-.01-.07h-.07a8.4 8.4 0 0 1 .13-1.08c.03-.13.09-.26.14-.38l.08-.2.02-.02c.76-.27 1.1-.31.32-.65h-.04c-.28.24-.98.23-1.31.31-1.8.43-3.74.64-5.46 1.3a.8.8 0 0 1-.35.04h-.02l-.01-.02c.16-.45.27-.88.28-1.38v-.03c0-.55.11-2.05-.43-2.58-.2-.2-.38-.32-.66-.35a.16.16 0 0 1-.11-.08v-.02c.1 0 .18-.02.26-.03l.25-.04h.04c1.64-.18 5.89-2 7.2-1.35.12.06.36.24.5.36.32.29.39.75.45 1.18l.01.11c.12.78-.33 1.71-.2 2.4l.02.02c.06.1.2.16.34.2l.16.07h.02c.44-.65.36-2.29.23-3l-.07-.37c-.08-.5-.3-.82-.64-1.13v-.24a2.26 2.26 0 0 0-.74-.27c-2.1-.36-4.97 1.15-7 1.48-.35.06-.66.05-.97.05l-.5.01h-.02v.02c0 .06-.02.1-.07.11v.01l-.01.01V21l.01.01.12.05a.03.03 0 0 1 .02.03l-.01.02-.28.15c-.06.03-.14.04-.22.06-.1.02-.2.05-.3.1a2.3 2.3 0 0 0-.74.62l-.79 1.16c-2.42 3.56-2.47 6.46-2.93 10.67 0 .08-.04.14-.07.21l-.01.02-.01.03a.56.56 0 0 0-.04.28v.03c.12.14.28.2.44.27l.2.09c1.38.71 3.23 2.04 4.86 2.26h.02a.03.03 0 0 0 .01-.01c.04-.05.09-.05.13-.06l.07-.01c2.61-.94 8.55-2.5 9.4-5.1v-.03c-.3-1.65-1.17-3.42-1.63-5.08Zm-8.72-4.8-.12.1a7.34 7.34 0 0 0-1.72 3.83c-.29 2.07.55 4.62.1 6.6l-.01.09-.02.03-.17.1-.11.07-.27.17c-.43.21-.98.42-1.3.78-.08.1-.15.12-.25.17h-.01l-.02-.01c-.09-3.8.64-8.16 3.15-11.2l.15-.2c.18-.25.4-.54.66-.63a.01.01 0 0 1 .01.03l-.07.07Zm1.22 1.3v.01l-.07.27a.04.04 0 0 1-.02.02h-.04l-.24-.25a.07.07 0 0 0-.11.02l-.16.3a.04.04 0 0 1-.06 0l-.2-.2-.02-.02a.05.05 0 0 0-.06.02.51.51 0 0 0-.1.2c-.11.59-.09 1.1.05 1.67.1.41.18.8.51 1.08.01.02.03.03.03.05 0 .02.02.02.03.03l.06.03c.06.03.11.06.18.06.1 0 .21-.01.31-.04a.02.02 0 0 1 .03 0c.02.07.05.09.12.08 2.27-.34 4.6-1 6.85-1.57.01 0 .02 0 .01.01a2.6 2.6 0 0 0-.21.83c-.1 1.05-1.57 1.15-2.38 1.61a.08.08 0 0 0-.04.08l.02.03c.04.08.17.1.26.12l.05.01h.03c.65-.28 1.49-.61 2.16-.71.24-.04.96 4.4 1.45 4.82.05.04.06.1.03.15-1.27 2.54-6.2 2.53-8.54 3.96a.82.82 0 0 1-.4.13h-.02v-.02l.01-2.96c0-.54-.1-1.13-.22-1.65-.16-.7-.18-1.44-.2-2.15v-.17a11.85 11.85 0 0 1 1.08-.39v-.02l-.1-.18c-.25-.16-.8-.08-1.06-.01a.07.07 0 0 1-.06-.01.06.06 0 0 1-.02-.05 5.97 5.97 0 0 0-.07-.56l-.05-.3a17.09 17.09 0 0 1-.1-2.49c-.02-.8 0-2.56.96-3.05.46-.23.56.05.68.36l.07.17.04.17.01.07c0 .03.02.06.04.1.02.06.05.12.02.21a8.7 8.7 0 0 1-.15.37.03.03 0 0 1-.03-.01.53.53 0 0 0-.33-.24h-.01l-.02.01Zm-1.21 12.6c.01 0 .02 0 .02.02l.05.1a.03.03 0 0 0 .01.02l.1.04.02.04v.1l-.01.02-.02.01c-.04 0-.08 0-.12-.03-.77-.62-1.99-1.13-2.93-1.48a4.29 4.29 0 0 1-.89-.42c.34-.2.68-.4 1.02-.58l.37-.16c.41-.15.73-.37 1.06-.61.07-.05.12-.1.12-.18.19-2.81-.72-5.4.28-8.24l.21-.58.2-.42.2-.48h.02v.05a6.5 6.5 0 0 0-.36 1.56c-.27 2.11.13 4.33.56 6.38.03.19.07.35.08.49.04.29.06.72.08 1.18l.1 2.66c0 .04 0 .04-.02 0a2.86 2.86 0 0 1-.04-.11c-.26-.67-.47-1.48-1-1.98a.05.05 0 0 0-.04-.01c-.1 0-.15-.05-.17-.14a.05.05 0 0 0-.08-.03c-.1.07-.13.16-.08.25.14.28.65 2.39 1.26 2.53Zm.95-11.88c.06.11.25.26.39.15l.02-.03.03-.26v-.01H26a.01.01 0 0 1 .02 0l.28.25.02.01h.04l.01-.02.08-.18h.01a.02.02 0 0 1 .03.01 78.96 78.96 0 0 1 0 .1c.02.23.03.47 0 .68-.08.45-.25.95-.6 1.27-.08.09-.25-.05-.33-.13-.2-.18-.31-.52-.38-.76a3.08 3.08 0 0 1-.08-.6c0-.08 0-.16-.02-.24 0-.08.02-.1.08-.05.05.04.1.06.15.08a.06.06 0 0 0 .07-.02v-.02l.07-.22c.02-.09.05-.1.1 0ZM39.13 22.9 39 23c-.2.15-.42.31-.71.29h-.05c-.07-.01-.13-.01-.2-.06a.04.04 0 0 1 0-.03c0-.17.06-.3.19-.4.13-.12.26-.2.4-.3.16-.1.32-.2.47-.33.18-.16.37-.29.57-.42.17-.11.34-.22.51-.37a.84.84 0 0 1 .4-.14h.02l.17.1.01.02.02.15c.02.18-.23.37-.36.46a22.61 22.61 0 0 0-.66.49l.14.52c.03.15.1.21.19.3l.1.14c.08.16.21.34.38.46h.04a4.5 4.5 0 0 0 .7-.44l.08-.02.02-.01c.12-.12.44-.32.56-.1.03.07.07.14.12.2v.02h-.02v.01a.02.02 0 0 0 0 .02l.03.05a.03.03 0 0 1 0 .03l-.04.05a.04.04 0 0 0-.01.03c.03.12-.01.19-.12.2-.02 0-.03.01-.04.03l-.02.03-.03.01c-.04-.02-.07-.02-.1 0l-.62.35c-.35.2-.7.4-1.06.58l-.15.07c-.14.06-.28.13-.4.23h-.03c-.1.03-.2.06-.3.11-.47.24-.55-.48-.1-.6a2.74 2.74 0 0 0 .85-.42c.01-.01.02-.02 0-.04-.4-.38-.66-.83-.8-1.37h-.02ZM13.94 23.21c.01.32.05.57.28.78.51.48 1.18.21 1.58-.25l.15-.23a.83.83 0 0 1 .23-.3c.16-.11.43-.04.53.12.15.23.2.48.16.75-.1.58-.78.69-1.25.73-.15.02-.23.12-.18.27.04.12.16.17.28.2h.04c.05-.02.1-.02.13.02a.04.04 0 0 0 .04.01c.09 0 .16.02.2.09h.03c.13-.13.3-.22.47-.3.19-.1.38-.2.52-.37.32-.39.34-.95.12-1.4-.21-.45-.79-.9-1.31-.61-.17.1-.37.2-.46.38l-.02.05c-.06.1-.11.22-.22.3l-.23.13c-.47.27-.58-.24-.6-.57 0-.08.02-.13.04-.19a1 1 0 0 0 .02-.06c.1-.35.48-.38.78-.41h.01l.03-.02c.07-.07.18-.33.05-.4a.33.33 0 0 1-.15-.13h-.02c-.05.03-.08.02-.11-.02a.02.02 0 0 0-.03 0l-.07.04c-.1.07-.21.14-.35.18-.54.15-.72.7-.7 1.21ZM39.16 31.2c0 .2.06.34.18.49.21.27.47.44.83.41.23-.02.31-.11.44-.31.16-.28.38-.51.64-.71.27-.2.48-.02.54.25.08.36-.04.88-.37 1.1a.04.04 0 0 1-.04 0c-.2-.05-.33.1-.18.28.22.24.5.17.75.02a.4.4 0 0 0 .13-.13c.32-.51.47-1.09.17-1.64a.43.43 0 0 1-.02-.07.26.26 0 0 0-.08-.13c-.13-.11-.37-.31-.55-.3h-.39c-.42.06-.63.41-.83.75a7.7 7.7 0 0 1-.1.17c-.15.24-.42.14-.52-.06-.12-.22.02-.55.19-.71l.08-.07c.13-.1.27-.21.14-.38-.06-.08-.35-.29-.44-.18l-.4.5c-.16.2-.17.47-.17.73ZM14.44 31.38c-.29.08-.57.15-.87.2h-.04c-.12-.06-.18-.17-.18-.33 0-.22.13-.21.28-.2l.16-.01.42-.11c.31-.08.62-.2.92-.33.63-.26 1.25-.52 1.94-.36a.1.1 0 0 1 .06.06c.08.19.13.4.15.61v.03l.01.08.01.03c0 .35-.14.7-.39.94-.3.3-.43.42-.83.43-.2 0-.34-.08-.5-.17a2.76 2.76 0 0 0-.2-.1c-.09-.04-.22-.28-.3-.42l-.1-.15a.66.66 0 0 1-.15-.29c0-.01 0-.02-.02-.01l-.37.1Zm2.2-.66-1.33.37v.01l.04.16c.05.2.17.37.33.48.16.1.34.14.5.09l.09-.02a.58.58 0 0 0 .23-.13.66.66 0 0 0 .16-.21.79.79 0 0 0 .07-.28c0-.1 0-.2-.03-.3l-.04-.16h-.01ZM39.57 33.6a9.09 9.09 0 0 1 .48.3.03.03 0 0 1-.02.02l-.28.08-.17.04a4.56 4.56 0 0 0-.6.13h-.02l-.05.02a5 5 0 0 0-.27.08c-.22.06-.44.13-.64.13s-.39.01-.57.04c-.2.04-.2.25-.12.39.05.07.14.1.22.12h.02c.18.06.28.14.41.26l.06.06c.39.38.85.82 1.32 1.16.14.1.33.18.46.03l.03-.02h.07l.02-.01a.33.33 0 0 0 .03-.1c.01-.05.02-.09.06-.13v-.02a.43.43 0 0 1-.1-.18.05.05 0 0 0-.02-.03.48.48 0 0 1-.16-.16l-.07-.09a558.8 558.8 0 0 0-.93-.8c-.01-.03 0-.04.03-.04.42 0 .8-.1 1.21-.2l.37-.08.32-.08.09-.04c.08-.03.16-.06.24-.07.09-.02.22-.21.13-.3-.2-.2-.47-.42-.8-.68-.12-.1-.28-.2-.43-.29-.17-.1-.35-.21-.5-.34l-.2-.13c-.1-.08-.22-.16-.31-.26-.08-.1-.15-.08-.26-.05h-.04c-.29.07-.33.4-.1.56l.6.4.5.28ZM16.1 34.08h-.03l-.32.16c-.2.1-.4.2-.56.31a.6.6 0 0 1-.12.07l-.14.07c-.08.06-.17.1-.26.12a3.2 3.2 0 0 0-.1.03c-.2-.11-.3-.52-.02-.6.24-.06.44-.14.6-.23.44-.27.85-.47 1.32-.7l.8-.4c.11-.06.2-.12.28-.19h.21l.02.02.1.2h.01l.17.11.02.02c.02.07.07.12.12.16l.08.1c.21.36.4.84.18 1.25-.12.23-.42.39-.67.47a.88.88 0 0 1-.87-.2.03.03 0 0 0-.02.01l-.01.01c-.26.35-.48.72-.66 1.1V36c-.1.2-.22.45-.44.52h-.03c-.2-.08-.26-.35-.18-.53.08-.21.19-.4.31-.6.07-.11.16-.21.25-.31a1.92 1.92 0 0 0 .35-.52v-.02l-.4-.45Zm.56-.26c.17.4.54.73 1 .64.28-.05.39-.24.37-.5-.02-.23-.17-.41-.35-.57a.19.19 0 0 0-.2-.04 3.17 3.17 0 0 0-.82.44v.03ZM20.4 36.24c-.1-.16-.2-.34-.38-.4-.01-.01-.02-.02-.01-.03.06-.4-.55-.32-.75-.23l-.06.02c-.25.11-.48.21-.7.36a3 3 0 0 0-.87.94 2.2 2.2 0 0 0-.26.96c0 .14 0 .23.1.34l.1.14c.06.08.11.16.18.22.13.12.28.2.46.24.08.02.17.01.25 0h.1c.34-.03.71-.18.98-.39.63-.5.98-1.08.97-1.9a.37.37 0 0 0-.05-.16 3.65 3.65 0 0 1-.06-.1Zm-.53.3-.05.07a.02.02 0 0 0 0 .01.02.02 0 0 0 0 .01c.05.01.07.04.07.07-.02.6-.57 1.28-1.15 1.48-.12.04-.42.08-.54.03-.21-.1-.21-.42-.16-.61.18-.7.61-1.16 1.3-1.4.17-.06.51.12.54.31l-.01.03ZM35.9 38.6c-.33-.38-1-1.28-.77-1.81v-.04l-.01-.07v-.04l.08-.16c.04-.07.08-.13.1-.2a1.82 1.82 0 0 0 .16-.21c.11-.16.22-.31.49-.36.52-.1.99.04 1.4.4.34.3.6.63.76 1.01.08.18.11.37.14.57 0 .01 0 .03.02.03.03.05.03.09.03.13v.05c.03.49-.14 1-.57 1.27-.26.15-.64.11-.9.03h-.1v-.01l-.02-.01a.1.1 0 0 0-.05-.06 2 2 0 0 1-.76-.52Zm.53-.42.06.06.11.09c.11.04.21.1.31.16l.24.14c.29.14.53-.08.54-.37.02-.27-.04-.51-.15-.74l-.06-.16a.55.55 0 0 0-.1-.23l-.03-.03c-.3-.37-.5-.6-1.02-.7-.33-.05-.5.08-.55.39-.07.52.26 1.07.65 1.4ZM22.85 38.4a1.97 1.97 0 0 1-.12-.5v-.04c-.2-.26-.63-.53-.97-.49h-.03l-.03-.02h-.03a.33.33 0 0 0-.1.1l-.53.69c-.13.18-.28.36-.4.54-.28.36-.56.72-.86 1.06-.2.22 0 .38.18.52l.04.01h.04v.01c.04.14.12.23.26.28l.06-.02h.04c.22.1.46.13.7.12.16-.02.36-.08.56-.13a8.38 8.38 0 0 1 .3-.1c0-.01.02-.03.04-.03.5-.2.86-.6.96-1.14.07-.34.03-.56-.1-.86ZM21 40.1c-.2 0-.36-.1-.51-.22a.02.02 0 0 1 0-.02l.46-.56a13 13 0 0 0 .72-1l.16-.22a.31.31 0 0 1 .08-.08h.03c.09 0 .16.04.2.1.36.46.27 1.1-.03 1.56-.2.3-.77.44-1.11.44ZM33.65 38a.05.05 0 0 1-.03-.03v-.03c.05-.03.05-.06.01-.1v-.02c0-.06.02-.12.07-.16a.04.04 0 0 0 .02-.03c0-.29.25-.32.38-.08l.45.78c.28.48.56.96.81 1.45l.12.17c.1.12.18.24.12.42l-.02.05c-.05.17-.16.52-.4.4a.38.38 0 0 1-.13-.13 4.13 4.13 0 0 0-.13-.18c-.08-.12-.17-.23-.23-.36l-.22-.5-.46-.99a2.45 2.45 0 0 1-.06-.12c-.05-.13-.1-.25-.23-.37l-.01-.02-.04-.13a.04.04 0 0 0-.02-.02ZM30.2 39.19c.02.13.15.43.34.36a17.87 17.87 0 0 0 .82-.34h.01l.01.02.13.3c.34.64.62 1.66.78 2.35.02.12.1.21.24.27h.03c.1-.06.19-.13.26-.22v-.03a1.5 1.5 0 0 1-.12-.5c-.03-.5-.2-1-.36-1.48a9.68 9.68 0 0 1-.28-1 .1.1 0 0 1 .05-.05l.04-.02.05-.03h.01c.2-.1.4-.2.6-.28a.34.34 0 0 0 .23-.26c.04-.16-.36-.4-.49-.3-.18.14-.33.26-.54.35l-.09.03-.65.26a2.49 2.49 0 0 1-.74.2c-.1 0-.21 0-.28.1a.35.35 0 0 0-.05.27ZM23.57 41.26c-.02.3.16.55.37.76.55.53 1.32.4 1.7-.25l.45-.75c.2-.34.28-.72.36-1.1l.06-.24a.8.8 0 0 1 .12-.25l.01-.04v-.04c0-.07.01-.15-.02-.2-.06-.09-.2-.11-.3-.13-.22-.03-.34.22-.3.4v.03l-.1.29c-.08.23-.16.46-.26.66-.18.38-.6 1.17-.99 1.36-.09.04-.17.02-.26-.07-.3-.3-.34-.65-.13-1.05a.25.25 0 0 1 .07-.08l.02-.03.21-.68.07-.27.08-.29.08-.16c.04-.08.08-.16.08-.3l-.01-.02c-.15-.15-.52-.33-.64-.04l-.15.33c-.1.24-.21.48-.29.73-.05.15-.08.28-.1.4l-.08.25a.66.66 0 0 0-.03.18c0 .2 0 .4-.02.6ZM27.54 42.18a.9.9 0 0 1-.12-.28.7.7 0 0 1-.01-.13c0-.08-.01-.16-.05-.24v-.04a.72.72 0 0 0 0-.22.9.9 0 0 1 0-.3c.17-.66.5-1.81 1.32-1.95.23-.03.58.13.78.25h.1l.03.01c.26.2.3.54-.12.56-.1 0-.19-.05-.27-.12-.07-.04-.14-.1-.21-.11-.41-.1-.77.75-.83 1.06l-.03.09a.6.6 0 0 0-.05.22v.08c0 .04-.02.1-.04.14a.73.73 0 0 0-.03.2c.01.17.04.48.13.64l.02.02c.28.06.5.03.76 0h.06c.17-.03.41-.32.5-.45.07-.09.13-.11.22-.06h.03a.3.3 0 0 1 .28-.04.03.03 0 0 1 .03.02l.04.24-.01.04-.02.02c-.38.63-.95 1.04-1.72.88a1.62 1.62 0 0 1-.8-.53Z" /><path fill-rule="evenodd" d="M45 28a17 17 0 1 1-34 0 17 17 0 0 1 34 0Zm-.94 0a16.06 16.06 0 1 1-32.12 0 16.06 16.06 0 0 1 32.12 0Z" /></svg>