<?xml version='1.0' encoding='utf-8'?>
<!-- by TradeStack -->
<svg width="56" height="56" viewBox="0 0 56 56" xmlns="http://www.w3.org/2000/svg"><path fill="#253491" d="M0 0h56v56H0z" /><path fill-rule="evenodd" d="M28 44a16 16 0 1 0 0-32 16 16 0 0 0 0 32Zm0 1a17 17 0 1 0 0-34 17 17 0 0 0 0 34Z" fill="#fff" /><path d="M12.15 28c.8 1.03 2.18 2.46 3.94 3.68C18 32.98 20.3 34 22.74 34s4.84-1.01 6.85-2.33A20.67 20.67 0 0 0 33.8 28c-1.23-2.14-4.93-6-11.07-6-6.15 0-9.54 3.87-10.6 6Zm-1.04-.14C12.12 25.54 15.85 21 22.74 21c6.89 0 10.93 4.53 12.11 6.84l-.1.26.05.27a21.28 21.28 0 0 1-4.67 4.13c-2.1 1.37-4.67 2.5-7.39 2.5-2.72 0-5.21-1.13-7.21-2.5-2-1.38-3.54-3.03-4.36-4.14l-.17-.23.11-.27Z" fill="#fff" /><path d="M34.84 28.05c.63.87 1.61 2.06 2.69 3.06.6.55 1.2 1.04 1.8 1.38.58.35 1.11.51 1.55.51a2.1 2.1 0 0 0 1.36-.4c.3-.25.51-.6.6-1.03a3.24 3.24 0 0 0-1.03-2.85l-.34-.34.33-.35c.95-.99 1.35-2.3 1.2-3.34a2 2 0 0 0-.63-1.22c-.33-.29-.8-.47-1.49-.47-.5 0-1.07.17-1.68.52-.6.35-1.21.85-1.8 1.41a19.45 19.45 0 0 0-2.56 3.12Zm3.85-5.37c.7-.4 1.44-.68 2.2-.68.88 0 1.61.26 2.15.74.53.47.83 1.11.94 1.8a5.03 5.03 0 0 1-1.15 3.82c.87 1.03 1.21 2.3.99 3.4a2.72 2.72 0 0 1-.95 1.6 3.1 3.1 0 0 1-1.99.64c-.7 0-1.4-.27-2.07-.66-.67-.4-1.34-.93-1.97-1.52a23.42 23.42 0 0 1-3.02-3.48l.07-.23-.08-.3c.6-.96 1.66-2.38 2.9-3.58.61-.6 1.28-1.15 1.98-1.55Z" fill="#fff" /></svg>