<!-- by TradeStack --><svg width="56" height="56" viewBox="0 0 56 56" xmlns="http://www.w3.org/2000/svg"><path fill="#F0F3FA" d="M0 0h56v56H0z"/><path d="M28.88 12a16.48 16.48 0 0 1 7.93 2.64.1.1 0 0 1-.07.14c-.89.2-1.81.46-2.77.78a44.72 44.72 0 0 0-15.44 8.79c-2.91 2.55-5.44 6.01-5.1 10.05 0 .16-.02.16-.08.02A16.47 16.47 0 0 1 12 28.88v-1.8A16.04 16.04 0 0 1 27.06 12h1.82Zm13.24 23.32c-4.17 1.38-8.77 2.16-13.08 1.62-1.91-.25-4.04-.98-5.4-2.32-3.07-3-1.3-7.26 1-10.03 3.4-4.1 8.25-7.12 13.14-9.2.05-.01.09 0 .13.03 6 4.8 7.78 12.85 4.38 19.76a.28.28 0 0 1-.17.14Zm-12.84 8.61a16.3 16.3 0 0 0 12.25-7.4c.1-.14.06-.17-.09-.1-5.85 2.85-12.65 4.53-19.19 4.02-2.3-.18-4.37-.84-6.2-1.96-.15-.1-.17-.08-.05.06 2.16 2.4 4.8 4.02 7.95 4.86 1.97.53 3.75.7 5.33.52Z" fill="#A89443"/></svg>