<!-- by TradeStack --><svg width="56" height="56" viewBox="0 0 56 56" xmlns="http://www.w3.org/2000/svg"><path fill="#F0F3FA" d="M0 0h56v56H0z"/><path d="M27.14 39.9c.19-.18.16-.33.5-.25 3.25.73 6.4.6 9.42-.39.86-.28 1.85-.75 2.98-1.4a12.77 12.77 0 0 0 3.83-3.37.05.05 0 0 1 .06.03v.03a16.75 16.75 0 0 1-7.06 8.34c-2.65 1.59-6.15 2.44-9.13 1.67-4.9-1.26-7.48-6.11-8.81-10.63a.04.04 0 0 0-.04-.03.04.04 0 0 0-.04.02 9.7 9.7 0 0 0-.67 2.04c-.72 4.11 1.84 7.2 5.3 8.95.2.1.19.11-.02.06a10.85 10.85 0 0 1-5.65-3.35c-3.67-4.16-3.36-10.25-.86-14.88.68-1.25 1.5-2.43 2.45-3.55a.17.17 0 0 1 .2-.05c.5.17.88.23 1.4.12a2.12 2.12 0 0 0 1.64-2.12c-.08-2.74-3.98-2.89-4.26-.09-.04.34.09.7.16 1.04a.1.1 0 0 1-.03.09 20.57 20.57 0 0 0-3.08 4.53c-.21.41-.37.88-.55 1.33a14.9 14.9 0 0 0-.17 11.14.03.03 0 0 1-.04-.01 16.71 16.71 0 0 1-3.51-8.13c-.64-4.3.6-9.66 4.38-12.26 3.58-2.46 8.14-2.17 12.14-1.21h.02l.02-.01v-.04c-.2-.28-.42-.55-.63-.81-2.93-3.53-7.7-3.12-11.11-.6a.05.05 0 0 1-.07-.01.05.05 0 0 1 0-.07c.22-.27.54-.49.74-.68a10.2 10.2 0 0 1 1.94-1.48c.92-.52 2.01-.9 3.28-1.16 2.06-.41 3.94-.14 5.86.57 4.39 1.62 7.53 5.79 8.91 10.17.01.04 0 .07-.03.09-.28.2-.46.37-.63.68-.38.68-.4 1.7.08 2.36 1.04 1.44 3.42 1.07 3.8-.74.3-1.35-.52-2.45-1.86-2.68a.07.07 0 0 1-.06-.06c-1.78-5.78-6.3-10.9-12.48-11.8l-.04-.02a.06.06 0 0 1 0-.08.06.06 0 0 1 .04-.02c5.19-.78 10.77 1.03 14.25 5.07a11.1 11.1 0 0 1 2.13 3.62c1.74 4.97-1.19 10.07-4.55 13.5a.06.06 0 0 0-.01.06.06.06 0 0 0 .06.03c4.75-.37 7-4.03 7.12-8.5.01-.33-.04-.7-.05-1.05a.06.06 0 0 1 .05-.05.06.06 0 0 1 .07.04c.22.97.44 2 .47 2.95.09 3.16-1.23 6.16-3.52 8.28a14.23 14.23 0 0 1-9.61 3.61 14.7 14.7 0 0 1-4.14-.48.09.09 0 0 1-.02-.05A2.12 2.12 0 0 0 23.98 37c-1.03 1.2-.26 3.38 1.47 3.4.67.01 1.2-.03 1.7-.49ZM28 27.08 31.81 33h4.75a.1.1 0 0 0 .09-.05.1.1 0 0 0 0-.1l-8.63-14.77c-.02-.03-.03-.03-.05 0l-8.72 14.75c-.03.05-.03.17.03.17h4.94L28 27.08Z" fill="#7BB931"/></svg>