<?xml version='1.0' encoding='utf-8'?>
<!-- by TradeStack -->
<svg width="56" height="56" viewBox="0 0 56 56" xmlns="http://www.w3.org/2000/svg"><path fill="#F0F3FA" d="M0 0h56v56H0z" /><path d="m44.04 31.98.1.02h1.6c.98.04 1.94-.22 2.75-.74a6.57 6.57 0 0 0 2.14-2.48l.91-1.7.17-.31a1.86 1.86 0 0 0 0-1.98 2.06 2.06 0 0 0-1.83-.78h-1.55a.3.3 0 0 0-.17.05.3.3 0 0 0-.11.14l-4.07 7.51a.18.18 0 0 0 .06.27Zm3-7.98a.19.19 0 0 1 .18.1.18.18 0 0 1 0 .19c-.05.07-.81 1.48-1.67 3.07l-2.4 4.45a.3.3 0 0 1-.12.14.3.3 0 0 1-.17.05h-1.55c-.86 0-1.5-.26-1.83-.78a1.86 1.86 0 0 1 0-1.98l1.06-2.01c.48-1 1.22-1.85 2.13-2.49a4.75 4.75 0 0 1 2.75-.74h1.62Zm-5.78 0h-10.8c-.06 0-.12 0-.16.03a.23.23 0 0 0-.1.12l-2.3 4.24c-.1.18.03.28.2.16l4.36-3.29c.2-.13.25.02.2.12l-3.45 6.4c-.07.12 0 .22.12.22h4.54c.04 0 .08-.02.12-.04a.23.23 0 0 0 .07-.1l.31-.57.01-.01 3.24-5.97a.15.15 0 0 1 .05-.07.15.15 0 0 1 .23.07l.6 2.05.34 1.13c.03.13.12.14.2 0l2.29-4.23c.1-.17.07-.26-.07-.26Zm-19.1 8h5.5a.12.12 0 0 0 .11-.05.11.11 0 0 0 .02-.1c0-.1-2.22-7.58-2.25-7.67a.25.25 0 0 0-.1-.13.26.26 0 0 0-.16-.05h-1.65a.21.21 0 0 0-.18.07l-2.58 2.54-.3.29a.16.16 0 0 0-.03.19l1.38 4.76c.01.05.05.1.1.12.04.02.1.04.15.03Zm-8.8 0H4.14a.14.14 0 0 1-.13-.06.13.13 0 0 1 0-.13 1264.32 1264.32 0 0 1 3.1-5.66.14.14 0 0 1 .2.06l.66 2.23.66 2.25a.3.3 0 0 0 .1.15c.06.04.12.06.18.07h.3l.06-.02a.14.14 0 0 0 .07-.1l-.01-.07-1.63-5.5a.28.28 0 0 1 .03-.23l.14-.2a2.33 2.33 0 0 1 1.8-.79h9.14c.16 0 .22.1.16.23l-3.04 5.6c-.09.16-.24.1-.27 0l-1.33-4.52a.31.31 0 0 0-.12-.16.33.33 0 0 0-.2-.06h-.22c-.04 0-.2 0-.14.2l1.63 5.52c.03.1-.02.18-.14.35a2.14 2.14 0 0 1-1.8.84Zm7.68 0h-5.39c-.17 0-.17-.14-.1-.21l4.17-4.14a.23.23 0 0 1 .2-.06.23.23 0 0 1 .17.14l1.17 4.02c.04.15-.07.25-.22.25Z" fill="#0081CC" /></svg>