<!-- by TradeStack --><svg viewBox="0 0 56 56" xmlns="http://www.w3.org/2000/svg"><path fill="#F0F3FA" d="M0 0h56v56H0z"/><path d="M23.36 17.84a.06.06 0 0 0-.08.05l.01.04a4.9 4.9 0 0 1 .64 4.81.96.96 0 0 1-.33.45 1 1 0 0 1-.54.2c-1.46.08-2.56 0-3.5.48a.17.17 0 0 0-.05.26c.7.92 1.29 1.73 1.04 2.9-.18.83-.69 1.2-1.53 1.1a.67.67 0 0 1-.56-.37.37.37 0 0 1-.04-.2c.01-.07.04-.13.08-.18a.27.27 0 0 1 .34-.07c.32.16.75.28 1.03-.08.62-.8.17-1.68-.56-2.33-.43-.39-.82-.5-1.18-.32-.56.28-1.01.14-1.48.32a.48.48 0 0 1-.4-.03c-.25-.14-.5-.26-.83-.2-.6.12-1.14.06-1.63-.17a.63.63 0 0 0-.5-.03c-.1.04-.17-.02-.24-.16a.6.6 0 0 0-.2-.26c-.6-.38-1.02-.68-1.28-.9a.2.2 0 0 1-.03-.25.2.2 0 0 1 .25-.07l2.64 1.2c.04.03.08.04.12.04l1.13.04a.22.22 0 0 0 .21-.13.21.21 0 0 0-.05-.24c-.35-.33-.55-.65-.59-.98a.37.37 0 0 1 .25-.4l.05-.02a.22.22 0 0 1 .27.1.2.2 0 0 1 .02.09c.04.75.3 1.47 1.16 1.55a.6.6 0 0 0 .33-.08l.3-.17c.22-.12.46-.18.7-.18a3.1 3.1 0 0 0 1.86-.53c.19-.13.4-.2.63-.2a8 8 0 0 0 2.76-.41.39.39 0 0 0 .24-.3.37.37 0 0 0-.16-.36l-.27-.2a.2.2 0 0 1-.09-.2.2.2 0 0 1 .04-.07c.78-1.12-.02-2.67-.98-3.57-.64-.6-2.21-1.83-2.33-2.68a.11.11 0 0 1 .06-.11.13.13 0 0 1 .14 0l.85.63c.12.09.25.16.38.22l1.17.51c.14.06.26.15.36.27.41.48.94.85 1.6 1.09 2.76 1 4.37 2.38 6.62 4.07.2.15.52.3.96.48 1.24.47 3.15 1.27 5.75 2.4 2.44 1.07 4.9 2.62 5.08 5.45 0 .02 0 .05-.02.07a.13.13 0 0 1-.13.07.13.13 0 0 1-.07-.04c-2.74-2.38-5.87-5-9.41-6.82-2.14-1.1-3.5-2.05-5.85-3.6a17.17 17.17 0 0 0-4.16-1.98Z"/><path d="M38.13 17.24a.15.15 0 0 0 .16-.02.15.15 0 0 0 .05-.15c-.07-.2-.08-.65-.06-.87a.22.22 0 0 1 .23-.2h3.35c.04 0 .08.01.1.04.03.02.04.06.04.09v7.69c0 .05-.02.1-.05.13a.19.19 0 0 1-.13.05h-3.25a.19.19 0 0 1-.13-.05.18.18 0 0 1-.05-.13c-.05-1.18.05-2.11-1.21-2.78-1.73-.92-3.25-.7-4.54.63a.29.29 0 0 1-.26.08c-.28-.05-.62-.2-1-.45a163.13 163.13 0 0 1-3.4-2.3.26.26 0 0 1 .03-.32c2.51-2.64 5.6-3.67 9.12-2.17.4.17.78.63 1 .73ZM18.92 16.74c.14-.12.17-.3.08-.4-.1-.09-.28-.06-.41.06-.13.13-.17.3-.08.4.1.1.28.07.41-.06ZM17.24 17.82c.15-.1.22-.27.14-.39-.07-.12-.26-.13-.42-.04-.16.1-.22.28-.15.4.08.11.27.13.43.03ZM23.5 30c-.47-.59-1.22-1.27-2.27-2.03a.13.13 0 0 1-.03-.16.13.13 0 0 1 .06-.06.13.13 0 0 1 .08-.01c.81.2 1.48.6 2 1.23l1.77 2.17a4.9 4.9 0 0 0 2.07 1.59.1.1 0 0 0 .07-.04.1.1 0 0 0-.02-.14l-3.32-3.26a.11.11 0 0 1 .02-.18l.1-.05a.16.16 0 0 1 .18.03l1.6 1.57a.11.11 0 0 0 .13 0 .1.1 0 0 0 .04-.12c-.2-.52-.5-.92-.9-1.17a9.19 9.19 0 0 0-1.27-.78.18.18 0 0 1-.02-.12c0-.06.01-.1.03-.13a.17.17 0 0 0-.01-.2.19.19 0 0 0-.06-.04c-.32-.19-.74-.65-.53-1.08a.44.44 0 0 1 .28-.23.47.47 0 0 1 .37.05c.74.43 1.33.8 1.77 1.13.04.03.06.06.07.1 0 .05 0 .09-.03.12l-.05.07a.1.1 0 0 1-.05.04 6.35 6.35 0 0 1-1.26-.7c-.02-.07-.05-.1-.1-.08a.06.06 0 0 0-.05.05.06.06 0 0 0 .03.06L26.25 29a20.09 20.09 0 0 0 3.2 2.7c.53.35.93.18.96 1.07.01.2.19.46.54.76a.15.15 0 0 1 .04.14c0 .06-.03.1-.05.09a.78.78 0 0 1-.59-.31 9.62 9.62 0 0 0-1.72-1.7.14.14 0 0 0-.2.08v.09c.66 1.39 3.44 3.08 4.86 3.48 1 .29 2.53 0 2.96-1.14.67-1.8-1.12-2.64-2.65-3-1.58-.39-3.35-.74-4.66-1.54a.86.86 0 0 1-.24-.22c-.56-.76-.8-1.22-1.5-1.84a26.15 26.15 0 0 0-4.04-2.94c-.15-.1-.3-.23-.44-.41a.16.16 0 0 1 .06-.25.17.17 0 0 1 .1-.02l1.37.22a.27.27 0 0 0 .23-.08l.74-.72a.21.21 0 0 0 .06-.1v-.12c-.12-.33-.27-.63-.46-.9a.35.35 0 0 1 .11-.5l.83-.48a.26.26 0 0 0 .1-.36l-.22-.37a.2.2 0 0 1-.02-.14c0-.05.03-.1.07-.12.32-.24.6-.38.84-.42.1-.02.21-.01.3.03.43.14.85.36 1.28.66 1.58 1.08 2.93 1.79 3.75 3.05.07.1.16.18.28.23.66.28 1.44.5 1.92 1.14L36 27.72c.06.09.13.16.21.22l3.1 2.12c.03.02.04.04.05.06a.1.1 0 0 1 0 .08l-.06.1a.2.2 0 0 1-.13.12.21.21 0 0 1-.17-.03l-1.87-1.28a.1.1 0 0 0-.13.02.1.1 0 0 0-.01.13c.6.73 1.4 1.44 2.42 2.14.06.04.1.1.14.15a.4.4 0 0 1 .06.19c0 .06-.02.12-.05.16a.22.22 0 0 1-.13.09c-.05.01-.14-.06-.28-.2a.06.06 0 0 0-.06-.02l-.02.01-.01.03-.02.08v.02l.02.02 1.73 1.43a.13.13 0 0 1 .03.16.14.14 0 0 1-.19.04c-.37-.23-.8-.52-1.27-.86-.4-.3-.91-.45-.72-1.08a.23.23 0 0 0-.02-.17.24.24 0 0 0-.13-.11c-.3-.11-.9-.58-1.83-1.41-.9-.8-2.29-1.75-3.12-2.2-.17-.1-.3-.14-.38-.12a.22.22 0 0 0-.16.15.21.21 0 0 0 .05.2c2.66 2.82 5.8 4.9 9.23 7.57a.3.3 0 0 1 .07.39c-1.6 2.43-3.58 4.18-6.73 4.08-1.88-.06-4.07-.64-5.45-1.94a.1.1 0 0 0-.15.01.1.1 0 0 0-.02.06v.62c0 .06-.03.13-.08.18a.26.26 0 0 1-.18.07H27.2a.2.2 0 0 1-.14-.06.2.2 0 0 1-.06-.14v-3.64a.18.18 0 0 0-.05-.12.19.19 0 0 0-.12-.05 4.62 4.62 0 0 1-2.07-.72.42.42 0 0 0-.55.07.4.4 0 0 0-.09.17v.07c-.01.05-.03.1-.07.15a.28.28 0 0 1-.14.09c-.25.07-.56.1-.92.09a.39.39 0 0 1-.22-.08.36.36 0 0 1-.13-.18.28.28 0 0 1 0-.2.28.28 0 0 1 .16-.14l.08-.1a.27.27 0 0 0 .02-.24.95.95 0 0 1-.07-.35c0-.11.06-.19.18-.23.3-.1.6-.03.92.21a.05.05 0 0 0 .08-.02v-.03c-.14-.39-.51-.68-1.11-.88a.36.36 0 0 1-.2-.16.34.34 0 0 1-.04-.23l.03-.16a.24.24 0 0 1 .14-.19.25.25 0 0 1 .23.02c.7.41 1.1.88 1.25 1.4 0 .03.01.05.03.07.01.01.03.03.05.03l2.25.94a.26.26 0 0 0 .26-.02.25.25 0 0 0 .1-.23c-.01-.1 0-.2.03-.29a.15.15 0 0 1 .1-.09.15.15 0 0 1 .13.03c.47.37.72.63 1.17.78.11.04.2.04.25.02a.17.17 0 0 0 .1-.13.2.2 0 0 0 0-.09.2.2 0 0 0-.05-.08 2.28 2.28 0 0 0-.94-.6 8.2 8.2 0 0 1-3.58-2.37 1.51 1.51 0 0 0-.25-.22 44.45 44.45 0 0 1-2.86-2.32.97.97 0 0 1-.2-.24.12.12 0 0 1 .02-.14.12.12 0 0 1 .13-.03c.84.25 1.52 1.03 2.38 1.7a.04.04 0 0 0 .06 0 .04.04 0 0 0 0-.06ZM16.82 22.02c.26-.1.43-.25.39-.36-.04-.1-.28-.1-.53 0-.26.1-.43.26-.39.36.04.1.28.1.53 0ZM20.87 24.98c.14.11.32.12.4.02.09-.1.04-.27-.1-.38-.15-.11-.33-.12-.41-.02-.08.1-.03.27.1.38ZM35.5 26.28c.16.1.34.1.4 0s-.02-.25-.18-.35c-.16-.1-.34-.1-.4 0s.02.26.18.35Z"/><path d="M21.82 27.47c.17.11.36.12.44.01.08-.1 0-.28-.16-.4-.17-.12-.36-.13-.44-.02-.08.1 0 .29.16.4ZM37.54 28.39c.44.34.86.52.95.4.1-.1-.18-.47-.62-.81-.43-.34-.86-.53-.95-.41-.1.1.19.48.62.82ZM16.37 28.55l1.07-.61a.13.13 0 0 1 .06-.02c.03 0 .05 0 .07.02l1.83 1a.2.2 0 0 1 .1.18.2.2 0 0 1-.1.18l-.07.04a.44.44 0 0 1-.46-.02l-.25-.17a.14.14 0 0 0-.18.02.13.13 0 0 0-.03.06.5.5 0 0 1-.12.28.24.24 0 0 1-.3.05l-1.62-.91a.06.06 0 0 1-.03-.05.06.06 0 0 1 .03-.05Z"/><path d="M12.18 29.59c-.19-.12-.28-.28-.29-.47a.14.14 0 0 1 .06-.12.15.15 0 0 1 .14-.02l.26.08a.41.41 0 0 0 .35-.05 3.45 3.45 0 0 1 2.7-.39c.3.07.54-.04.84-.08a.14.14 0 0 1 .11.04.13.13 0 0 1 .04.11c-.07.52-.32.68-.84.61-.96-.11-1.77-.27-2.46.35-1.37 1.24-2.55 2.19-4.25 2.68-.19.05-.35.15-.49.29-.17.17-.3.28-.4.33a.17.17 0 0 1-.19-.04.16.16 0 0 1-.02-.18l.59-1.12a.15.15 0 0 1 .05-.05.16.16 0 0 1 .14-.02l.06.04.02.03c.04.05.1.1.16.12.06.02.13.03.2.02a3.35 3.35 0 0 0 1.73-.8.1.1 0 0 0-.02-.1.1.1 0 0 0-.05-.03l-1.8-.57a.29.29 0 0 1-.18-.14.28.28 0 0 1-.01-.21l.05-.15a.27.27 0 0 1 .13-.15.28.28 0 0 1 .2-.02c1.19.34 1.93.53 2.23.56.27.02.58-.08.94-.32a.14.14 0 0 0 .07-.12.13.13 0 0 0-.07-.11ZM22.66 31.09c-.74-.56-1.61-1-2.61-1.34a.36.36 0 0 1-.17-.13.34.34 0 0 1-.07-.2.17.17 0 0 1 .07-.14.18.18 0 0 1 .16-.03l1.66.56.06.03c.46.35.8.72 1.03 1.13a.1.1 0 0 1-.07.13l-.06-.01ZM15.13 32.32l.01.02v.03h-.01c-.1.1-.25.14-.43.1a1.25 1.25 0 0 1-.56-.28l-.12-.1c-.17-.16-.3-.34-.36-.52s-.05-.33.04-.43h.01c0-.02.02-.02.03-.02h.02l1.37 1.2ZM6.15 31.95c.08.18.24.29.34.24.11-.05.13-.23.05-.41-.09-.18-.24-.28-.35-.24-.1.05-.12.24-.04.41ZM18.44 32.56l-1.06-.77a.16.16 0 0 0-.22.03l-.02.02a.15.15 0 0 0 .04.21l1.07.77c.07.05.17.04.22-.03v-.02a.15.15 0 0 0-.03-.21ZM21.38 32.22c0 .26.12.47.28.47.16 0 .3-.2.3-.45 0-.26-.12-.47-.28-.47-.16 0-.3.2-.3.45ZM19.72 33.13c.17.16.39.22.48.13.08-.1.01-.3-.17-.46-.17-.17-.39-.22-.47-.13-.1.1-.02.3.16.46ZM6.77 33.34c.14-.02.25-.12.23-.23-.01-.11-.14-.18-.28-.17-.14.02-.25.12-.24.23.02.11.15.18.29.17ZM21.9 34.27a.08.08 0 0 1-.1.02l-.1-.05c-.22-.14-.43-.3-.56-.43-.14-.14-.2-.24-.17-.3l.04-.05c.02-.03.06-.04.11-.04.06 0 .14.02.23.05a2.55 2.55 0 0 1 .65.32l.08.05c.02 0 .03.03.03.05v.05l-.21.33Z"/></svg>