<!-- by TradeStack --><svg width="56" height="56" viewBox="0 0 56 56" xmlns="http://www.w3.org/2000/svg"><path fill="#F0F3FA" d="M0 0h56v56H0z"/><path d="M8.1 33.17h6.39a9.02 9.02 0 0 0 5.79-3.05c.8-.98 1.59-2.32 2.47-3.82 2.14-3.65 4.84-8.24 9.56-10.87a23.75 23.75 0 0 0-4.6-.43C15.9 15 8.99 25.32 8.1 33.17ZM27.43 36H48c-.06-3.6-1.2-9.07-4.5-13.52-.22-.03-.5-.05-.81-.05-1.7 0-7.9.54-11.49 7.21A75.85 75.85 0 0 1 27.43 36Z" fill="#7E0018"/><path d="M8 34.35V36h7.03c1.4 0 4.62-1.64 6.08-3.22 1.59-1.72 3.13-4.4 3.96-5.85l.33-.57.04-.07c.79-1.35 4.33-7.4 10-9.49a8.54 8.54 0 0 0-1.63-.73 23.37 23.37 0 0 0-9.19 9.04c-2.84 4.69-5.6 9.24-9.9 9.24H8ZM18.38 36h1.77c.84-.36 2.9-1.81 4.36-4 .6-.9 1.25-2 1.92-3.12 1.36-2.3 2.83-4.76 4.27-6.27a19.1 19.1 0 0 1 7.3-4.7c-.2-.14-.74-.51-1.28-.76-1.76.68-5.96 3-8.7 6.79-1.08 1.49-1.83 2.89-2.54 4.21-1.53 2.89-2.89 5.42-7.1 7.85Zm5.27 0h-1.7a17.6 17.6 0 0 0 4.81-6.1c.61-1.12 1.3-2.4 2.42-4.04 3.26-4.75 7.89-6.87 9.8-7.33.58.18 1.21.68 1.45.9-7.54 1.28-11.42 8.38-13.02 11.34A25.9 25.9 0 0 1 23.65 36Zm1.37 0h1.53c.9-1.32 2.95-4.62 4.03-6.85 1.35-2.78 5.83-7.22 12.03-7.66l-1.07-1.13c-1.16.01-4.14.75-7.35 2.87-2.6 1.7-4.1 4.46-5.65 7.28A32.35 32.35 0 0 1 25.02 36Z" fill="#6F7170"/></svg>