<?xml version='1.0' encoding='utf-8'?>
<!-- by TradeStack -->
<svg width="56" height="56" viewBox="0 0 56 56" xmlns="http://www.w3.org/2000/svg"><path fill="#F0F3FA" d="M0 0h56v56H0z" /><path d="M6.69 25.4a.65.65 0 0 0-.27-.48 1 1 0 0 0-.6-.17c-.18 0-.33.02-.46.08a.67.67 0 0 0-.28.22.57.57 0 0 0-.04.6c.05.07.1.13.18.18.08.05.17.1.26.13l.28.09.44.11c.17.04.34.1.5.18.17.07.31.16.44.27a1.21 1.21 0 0 1 .42.95c0 .29-.07.54-.2.75a1.4 1.4 0 0 1-.61.51c-.26.12-.58.18-.95.18-.36 0-.67-.06-.94-.18a1.41 1.41 0 0 1-.62-.5c-.15-.23-.23-.5-.24-.83h.83c0 .17.06.31.15.42.08.12.2.2.34.25.14.06.3.09.47.09.19 0 .35-.03.48-.09a.78.78 0 0 0 .33-.24.6.6 0 0 0 .12-.37.48.48 0 0 0-.1-.3.78.78 0 0 0-.3-.22l-.43-.15-.53-.14c-.38-.1-.68-.26-.9-.47a1.1 1.1 0 0 1-.34-.84c0-.28.08-.53.22-.75.15-.21.36-.38.61-.5.26-.12.55-.18.88-.18.33 0 .61.06.86.18s.45.28.59.5c.14.2.21.45.22.72h-.81ZM9 24v5H8v-5h1ZM10 29v-5h1v4.19h2V29h-3ZM13.82 24l1.2 3.9h.05l1.2-3.9h1.03l-1.73 5h-1.04l-1.74-5h1.03ZM18 29v-5h3v.8h-2v1.32h1.87v.74H19v1.33h2V29h-3ZM22 29v-5h1.76c.36 0 .66.13.9.26s.42.31.55.55c.12.23.19.5.19.81 0 .31-.07.58-.2.81-.12.23-.3.4-.55.53-.24.13-.55.19-.9.19H22.5v-.73h1.13c.2 0 .37-.03.5-.1a.62.62 0 0 0 .3-.26.9.9 0 0 0 .1-.44.93.93 0 0 0-.1-.44.63.63 0 0 0-.3-.28c-.13-.07-.3-.1-.5-.1H23V29h-1Zm2.42-2.28L25.57 29h-1.03l-1.13-2.28h1ZM27.5 29v-5h1.7c.33 0 .61.12.83.23.23.11.4.26.5.45.11.2.17.4.17.65 0 .2-.04.36-.1.5a.94.94 0 0 1-.3.34 1.2 1.2 0 0 1-.41.2v.04c.16 0 .32.06.47.16.16.1.28.23.38.4.1.18.14.39.14.63 0 .25-.06.48-.17.68-.12.2-.3.36-.53.47-.23.12-.53.25-.88.25h-1.8Zm1-.8h.58c.3 0 .52-.07.66-.2.13-.12.2-.27.2-.47a.75.75 0 0 0-.1-.39.71.71 0 0 0-.3-.27.93.93 0 0 0-.44-.1h-.6v1.42Zm0-2.07h.5a.9.9 0 0 0 .4-.08c.11-.06.2-.14.27-.24.07-.1.1-.23.1-.37a.62.62 0 0 0-.19-.46c-.12-.13-.31-.19-.56-.19h-.52v1.34ZM34.5 24h1v3.24c0 1.02-1.08 1.76-2 1.76-.97 0-2-.7-2-1.76V24h1v3.17c0 .6.34 1.04 1 1.04.61 0 1-.43 1-1.04V24ZM40.26 25.7h-.84a1.14 1.14 0 0 0-.14-.38 1.03 1.03 0 0 0-.57-.47 1.24 1.24 0 0 0-.4-.06c-.25 0-.47.07-.67.2-.2.13-.35.32-.46.58-.1.25-.16.56-.16.93s.05.68.16.94c.12.25.27.44.46.57a1.3 1.3 0 0 0 1.06.14 1.05 1.05 0 0 0 .72-.84h.84a1.97 1.97 0 0 1-.61 1.2 2.12 2.12 0 0 1-1.35.49c-.4 0-.77-.1-1.1-.3-.31-.2-.57-.49-.75-.86a3 3 0 0 1-.28-1.34c0-.53.1-.97.28-1.35.19-.37.44-.66.76-.85a2.21 2.21 0 0 1 1.8-.18 1.82 1.82 0 0 1 1.03.86c.11.22.19.46.22.73ZM41 29v-5h1v2.14L43.67 24h1.1l-1.8 2.25L44.78 29h-1.1l-1.3-2.08-.38.56V29h-1ZM45.5 29v-5h1v4.19h1.82V29H45.5ZM49 29v-5h3v.8h-2v1.32h1.83v.74H50v1.33h2V29h-3ZM18 31h1.06l1.4 3.59h.06L21.93 31H23v5h-1v-2.92L20.8 36h-.61L19 33.08V36h-1v-5ZM25 31v5h-1v-5h1ZM30 31v5h-.87l-2.63-3.38V36h-1v-5h.99L29 34.38V31h1ZM30.5 36v-5h3.15v.8H31.5v1.32h2v.74h-2v1.33h2.17V36H30.5ZM37.11 32.4a.65.65 0 0 0-.27-.48 1.03 1.03 0 0 0-.62-.17c-.18 0-.34.02-.47.08a.69.69 0 0 0-.3.22.56.56 0 0 0-.03.6c.05.07.11.13.19.18.08.05.17.1.26.13l.3.09.44.11c.18.04.35.1.52.18.16.07.31.16.44.27.14.11.24.24.32.4.08.16.11.34.11.55 0 .29-.07.54-.2.75-.15.22-.36.39-.63.51-.26.12-.59.18-.97.18-.37 0-.69-.06-.96-.18a1.44 1.44 0 0 1-.64-.5c-.15-.23-.23-.5-.24-.83h.84a.75.75 0 0 0 .5.67c.15.06.32.09.5.09s.35-.03.49-.09a.8.8 0 0 0 .33-.24.6.6 0 0 0 .12-.37.47.47 0 0 0-.1-.3.8.8 0 0 0-.3-.22l-.45-.15-.54-.14c-.4-.1-.7-.26-.93-.47a1.1 1.1 0 0 1-.34-.84c0-.28.08-.53.23-.75.15-.21.36-.38.62-.5.27-.12.56-.18.9-.18.33 0 .63.06.88.18.26.12.46.28.6.5.15.2.22.45.23.72h-.83Z" /></svg>