<!-- by TradeStack --><svg viewBox="0 0 56 56" xmlns="http://www.w3.org/2000/svg"><path fill="#F0F3FA" d="M0 0h56v56H0z"/><path d="M28.49 12a4.51 4.51 0 1 1 0 9.02 7.88 7.88 0 0 0-7.43 7.05l-.04.42a4.51 4.51 0 1 1-4.5-4.51l.4-.03a7.65 7.65 0 0 0 7.06-7.44c0-2.49 2.02-4.51 4.51-4.51ZM21 16.5a4.5 4.5 0 1 1-9 0 4.5 4.5 0 0 1 9 0Zm23 23a4.5 4.5 0 1 1-9 0 4.5 4.5 0 0 1 9 0Zm0-11.99a4.51 4.51 0 1 0-9.02 0 7.65 7.65 0 0 1-7.06 7.44l-.4.03a4.51 4.51 0 1 0 4.5 4.5l.04-.4a7.88 7.88 0 0 1 7.43-7.06c2.49 0 4.51-2.02 4.51-4.51Zm0-11.15a4.36 4.36 0 1 0-8.72 0 7.4 7.4 0 0 1-6.83 7.2l-.4.02c-1.23 0-2.34.51-3.13 1.34-.83.79-1.34 1.9-1.34 3.14a7.4 7.4 0 0 1-6.82 7.19l-.4.03a4.36 4.36 0 1 0 4.36 4.36l.04-.4a7.62 7.62 0 0 1 7.18-6.82c1.24 0 2.35-.51 3.14-1.34.83-.79 1.34-1.9 1.34-3.14l.04-.4a7.62 7.62 0 0 1 7.18-6.82c2.4 0 4.36-1.95 4.36-4.36Z" fill="url(#aja3fwku0)"/><defs><linearGradient id="aja3fwku0" x1="14.66" y1="13.28" x2="42.9" y2="42" gradientUnits="userSpaceOnUse"><stop stop-color="#F2D3AC"/><stop offset="1" stop-color="#CBAB84"/></linearGradient></defs></svg>