<?xml version='1.0' encoding='utf-8'?>
<!-- by TradeStack -->
<svg width="56" height="56" viewBox="0 0 56 56" xmlns="http://www.w3.org/2000/svg"><path fill="#F0F3FA" d="M0 0h56v56H0z" /><path d="M18 31.79c-.67.16-1.35.21-2.02.21-2.41 0-3.98-1.07-3.98-3.58 0-2.4 1.63-3.42 3.93-3.42.67 0 1.4.05 2.07.16v1.18c-.5-.06-.95-.11-1.4-.11-1.85 0-2.6.5-2.6 2.27 0 1.66.7 2.27 2.6 2.27.5 0 .95-.05 1.4-.1v1.12ZM43 32h2v-7h-2v7Zm0-8h2v-2h-2v2ZM42 31.73c-.35.05-1.62.27-2.9.27-2.36 0-4.1-1.04-4.1-3.57 0-2.42 1.56-3.63 3.93-3.63.35 0 .78.06 1.07.06V22h2v9.73Zm-2-1.05v-4.5c-.23 0-.43-.06-.83-.06-1.68 0-2.17.79-2.17 2.38 0 1.43.43 2.3 2.1 2.3.35 0 .5-.06.9-.12ZM34 32h-2v-4.54c0-.76-.25-1.2-1.44-1.2-.83 0-1.56.13-1.56.13v5.58L27 32v-6.67c.12 0 2.5-.33 3.86-.33 1.66 0 3.14.27 3.14 2.35V32ZM26 31.84c-1.33.1-2.35.16-3.5.16-1.93 0-3.5-.27-3.5-2.17 0-1.86 1.93-1.97 3.68-2.02H24c0-1.17 0-1.59-1.92-1.59-.97 0-2 .16-2.6.26v-1.21c.73-.16 1.87-.22 2.72-.27 2.17 0 3.8.21 3.8 2.23v4.61Zm-2-1v-1.92h-1.2c-1.14 0-1.8.13-1.8 1.08 0 .95.84.94 1.74.94.54-.05.78-.05 1.26-.1ZM52 31.79c-.67.16-1.35.21-2.02.21-2.41 0-3.98-1.07-3.98-3.58 0-2.4 1.63-3.42 3.93-3.42.67 0 1.4.05 2.07.16v1.18c-.5-.06-.95-.11-1.4-.11-1.85 0-2.6.5-2.6 2.27 0 1.66.7 2.27 2.6 2.27.5 0 .95-.05 1.4-.1v1.12ZM11 28.94C11 31.08 9.38 32 6.97 32c-1.57 0-2.8-.29-2.97-.35v-1.5c.56.12 1.85.4 2.86.4 1 0 2.14-.4 2.14-1.55 0-.75-.4-.87-1.42-1.16l-1.17-.35C5.06 27.1 4 26.51 4 24.9 4 22.58 5.8 22 7.86 22c1.24 0 1.97.23 2.14.29v1.39c-.22-.06-.9-.3-1.97-.3-1 0-2.03-.04-2.03 1.12 0 .87.52 1.26 1.47 1.49.45.17.9.23 1.35.4 1.17.35 2.18.93 2.18 2.55Z" fill="#CD0921" /></svg>