<!-- by TradeStack --><svg width="56" height="56" viewBox="0 0 56 56" xmlns="http://www.w3.org/2000/svg"><path fill="#F0F3FA" d="M0 0h56v56H0z"/><path d="M27.58 11.05c-1.27.3-2.8 2.1-4.29 5.05-.44.87-1.2 2.6-1.17 2.65.01.02.35.06.76.08a61.13 61.13 0 0 1 4.84.41c.17.02.91-.03 1.66-.11 1.5-.16 2.5-.25 3.7-.3.43-.02.78-.06.78-.08 0-.1-.49-1.23-.93-2.13-1.09-2.27-1.99-3.62-3.07-4.65a3.02 3.02 0 0 0-1.43-.9c-.37-.09-.52-.1-.85-.02Zm-8.89 2.69a17.02 17.02 0 0 0-4.94 4.95c-.34.52-.46.75-.37.75l.57-.12c.8-.16 2.01-.33 2.97-.4.45-.04 1.05-.09 1.32-.1l.49-.05.01-.31c0-.18.05-.78.1-1.35.12-1.43.28-2.47.53-3.64.02-.07 0-.12-.02-.12-.03 0-.33.17-.66.39Zm17.93-.32.11.64a32.8 32.8 0 0 1 .52 4.66c0 .05.16.08.62.1 1.59.1 2.74.24 4.02.48.42.08.78.13.8.12.03-.03-.86-1.36-1.3-1.94a23.66 23.66 0 0 0-2.93-2.91 18.1 18.1 0 0 0-1.8-1.22c-.03 0-.04.03-.04.07Zm-9.54 6.16c-1.74.4-3.5.88-5.05 1.38-.69.22-.82.28-.89.42-.04.08-.22.62-.4 1.19-.73 2.39-1.37 4.93-1.37 5.48 0 .57.64 3.1 1.4 5.58l.4 1.19c.19.21 4.36 1.39 6.68 1.88.34.07 4.2-.91 6.21-1.59l.75-.25.27-.83a61.33 61.33 0 0 0 1.42-5.24l.17-.74-.17-.73c-.44-2-1.54-5.87-1.72-6.07a53.02 53.02 0 0 0-5.49-1.58c-1.37-.31-1.27-.3-2.2-.1Zm-9.19 2.9c-3.64 1.59-6.12 3.32-6.75 4.76-.11.24-.14.4-.14.81 0 .42.03.57.14.82.63 1.42 3.06 3.14 6.57 4.66.48.21.91.38.96.38.07 0 .08-.1.08-.47 0-.76.19-3.02.4-4.89.05-.34.05-.66 0-.98-.17-1.43-.4-4.18-.4-4.9 0-.42 0-.48-.1-.47-.05 0-.4.13-.76.29Zm19.36-.17c0 .55-.22 3.46-.35 4.5a8.41 8.41 0 0 0 0 2.48c.16 1.43.35 3.83.35 4.5 0 .06.03.12.07.12.12 0 1.44-.58 2.48-1.1 2.86-1.42 4.63-2.84 5.1-4.1.09-.22.11-.4.1-.75-.03-.7-.25-1.08-1.09-1.92-1-1.01-2.04-1.7-4.07-2.72a21.79 21.79 0 0 0-2.53-1.13c-.03 0-.06.06-.06.12Zm4.76 14.48a30.29 30.29 0 0 1-4.74.53l-.08.96c-.1 1.52-.24 2.61-.45 3.73-.07.33-.1.6-.1.62.04.04 1.16-.71 1.79-1.18.68-.52 2.32-2.14 2.87-2.83.4-.51 1.3-1.82 1.3-1.9 0-.06.02-.06-.6.07Zm-28.6-.03a17 17 0 0 0 4.47 4.92c.66.5 1.38.94 1.42.9.02-.02-.03-.4-.1-.83a33.95 33.95 0 0 1-.46-4.16l-.01-.26-.64-.04c-1.2-.08-2.53-.23-3.36-.37-1.11-.19-1.32-.21-1.32-.16Zm13.87.14c-.97.13-3.13.32-4.36.38-.41.02-.77.05-.79.07-.1.1 1.47 3.36 2.16 4.48.87 1.4 1.86 2.51 2.62 2.93l.43.24H28c.57 0 .68-.02.92-.14.96-.48 2.03-1.73 3.12-3.62.6-1.06 1.9-3.83 1.83-3.9a61.6 61.6 0 0 1-5.02-.41 5.12 5.12 0 0 0-1.56-.03Z" fill="#245397"/></svg>