<!-- by TradeStack --><svg width="56" height="56" viewBox="0 0 56 56" xmlns="http://www.w3.org/2000/svg"><path fill="#F0F3FA" d="M0 0h56v56H0z"/><path fill-rule="evenodd" d="M4.94 28.94c-.22-.22-.54-.1-.67 0-.26.13-.29.57-.26.78.08.42.61 1.28 2.04 1.28 1.78 0 3.03-1.1 3.03-2.54 0-1.3-1.47-1.6-2.22-1.76a8.51 8.51 0 0 1-.23-.05c-.62-.15-.86-.6-.58-1.05.28-.44.79-.5 1.08-.5.3 0 .78.04 1.04.5.2.37.43.48.52.5.53 0 .72-.43.75-.64C9.4 24.97 8.93 24 7.38 24c-1.94 0-2.79 1.41-2.79 2.46 0 1.04 1.09 1.38 2.14 1.68 1 .29 1 .55 1 .76v.04c0 .22-.2.95-1.33.95-.87 0-1.1-.4-1.29-.7-.06-.1-.1-.19-.17-.25ZM11.63 27l-.5 2.66c-.02.15.05.4.46.3.19-.03.54-.01.45.28-.12.35-.4.76-1.06.76-.67 0-1.05-.3-.9-1.34l.45-2.66h-.4c-.28 0-.24-.3-.2-.45.12-.4.4-.53.53-.55h.24l.2-1.2c.08-.26.32-.8.73-.8s.49.3.48.44L11.8 26h.5c.29 0 .49.01.49.49 0 .38-.33.5-.49.51h-.68Zm27.07 2.66.5-2.66h.68c.16-.01.49-.13.49-.51 0-.48-.2-.49-.5-.49h-.49l.3-1.56c0-.15-.07-.44-.48-.44-.4 0-.66.54-.73.8l-.2 1.2h-.24c-.13.02-.41.15-.52.55-.06.15-.09.45.18.45h.4l-.43 2.66c-.16 1.04.22 1.34.88 1.34.67 0 .95-.4 1.06-.76.1-.29-.25-.3-.44-.28-.41.1-.48-.15-.46-.3Zm-24.92-2.14c-.09-.12-.2-.36-.03-.6a3 3 0 0 1 2.26-.92c1.23 0 1.62.5 1.45 1.4-.11.6-.25 1.75-.34 2.47l-.08.63v.02c-.04.1-.15.48-.63.48-.52 0-.62-.53-.58-.85-.25.28-.94.85-1.73.85-.98 0-1.16-.6-1.16-1.18 0-.57.43-1.51 1.86-1.67 1.43-.15 1.58-.43 1.58-.75 0-.33-.34-.53-.77-.53s-1.05.4-1.17.57c-.12.18-.57.2-.66.08Zm2.33 1.06c-.03.54-.35 1.6-1.41 1.6-.22.02-.67-.08-.67-.56 0-.6.84-.78 1.18-.8.28 0 .71-.16.9-.24Zm2.93-2.29-.9 4.18c-.02.18.05.53.47.53s.64-.44.7-.67l.5-2.3c.09-.26.44-.77 1.13-.81.68-.04.8-.52.77-.76-.03-.19-.22-.55-.67-.44-.46.1-.97.8-1.16 1.13l.12-.79c0-.11-.11-.34-.43-.34-.33 0-.43.14-.5.23a.45.45 0 0 1-.03.04Zm2.74 4.06 1.14-5.9c.09-.18.22-.45.7-.45.4 0 .46.34.43.52l-1.1 5.7c-.05.25-.27.78-.72.78-.44 0-.48-.44-.45-.65Zm3.26-3.91-.76 3.93c-.03.21 0 .63.45.63s.67-.5.72-.76l.73-3.74c.02-.17-.03-.5-.43-.5-.48 0-.62.26-.7.42v.02Zm4.82 3.64c-.3.5-.8.92-1.54.92-1.32 0-1.53-1.36-1.47-2.05.13-.98.84-2.95 2.64-2.95.25.02.74.23.97.85.26-.83.64-.9.82-.82.3 0 .33.39.3.59a61.65 61.65 0 0 1-.89 4.32c-.3 1.07-1.44 2.06-2.3 2.06-.86 0-1.24-.16-1.51-.41-.27-.26-.37-.76-.09-1.07.23-.24.54-.1.66 0 .23.45.72.56.94.56.79-.01 1.21-.92 1.47-2Zm.2-.98c-.22.37-.74.95-1.2.95-.54 0-.99-.35-.83-1.25.16-.9.64-1.76 1.46-1.76.47 0 .67.48.75.92l-.04.27-.14.87Zm1.9 1.25 1.14-5.9c.1-.18.23-.45.71-.45.4 0 .45.34.43.52l-.43 2.2A2.75 2.75 0 0 1 35.6 26c1.17 0 1.12 1.48.95 2.21l-.41 2.07c-.03.24-.2.72-.72.72s-.43-.8-.32-1.2l.44-2.03c.03-.27-.1-.8-.86-.8-.42 0-.79.34-1.06.74l-.48 2.5c-.06.26-.28.79-.72.79-.45 0-.49-.44-.46-.65Z" fill="#373E44"/><path d="M46.17 19.37c-5-1.46-13.86 1.73-17.66 3.5 2.6-.95 8.9-2.86 13.22-2.86 4.31 0 5.51 1.87 5.57 2.81a37.07 37.07 0 0 0-9.6-1.1c3.37.1 7.9 1.31 9.75 1.9-.1 4.96-5.95 12.1-6.2 12.38C46.83 33.94 52 29.2 52 26.92c0-1.82-1.84-2.96-2.77-3.3-.25-2.93-2.14-4.05-3.06-4.25Zm.72 11.08a16.37 16.37 0 0 0 2.28-5.94c.5.34 1.41 1.34 1.04 2.52-.37 1.2-2.37 2.78-3.32 3.42ZM24.5 24l1.21-.34.69-1.16v1.16l1.1.34-1.1.3-.69 1.2-.2-1.12L24.5 24Z" fill="#C2D848"/></svg>