<?xml version='1.0' encoding='utf-8'?>
<!-- by TradeStack -->
<svg width="56" height="56" viewBox="0 0 56 56" xmlns="http://www.w3.org/2000/svg"><path fill="#004260" d="M0 0h56v56H0z" /><path d="M37 27.5c0-.28.09-.53.18-.65.2-.24.51-.32.9-.35H41V25h-2c-1.8.01-3.94.26-4 2.52V31h2v-2h4v-1.5h-4Zm8-2.5h-2v6h2v-6Zm5.3 4.5H52v1.49H49.57a4.93 4.93 0 0 1-.85-.1c-.59-.14-1.2-.43-1.5-1.08a2.4 2.4 0 0 1-.22-1.16V25h2v4.01c.07.47.76.48 1.26.49h.05ZM29 31h-2v-6h2.28L32 28.56V25h2v6l-2.13-.01L29 27c.02.22 0 4 0 4Zm-7.71-1h2.59l.43 1h2.19l-3.07-6h-1.87l-3.06 6h2.12v-.01l1.3-2.78.01-.04.52-1.12.84 1.72c-.7.25-1.48.69-2 1.23Zm-7.16-2.9c-.2.67-.16 1.54.14 2.09.15.22.46.28.8.31H18V31H14.7c-1.03-.04-2.1-.66-2.47-1.55-.37-1.06-.38-2.56.47-3.53a3.44 3.44 0 0 1 2.4-.92h2.87l.02 1.5h-3c-.37.03-.78.28-.87.6Zm-7.98.08a.48.48 0 0 1 0-.46c.07-.11.2-.18.45-.2l4.4-.02V25H6.26c-.33.03-.65.1-.96.2-.73.17-1.21.79-1.28 1.35-.06.6-.04 1.43.79 1.89.6.29 1.29.34 1.92.34h.62c.4-.02.8-.03 1.18 0a28 28 0 0 0 .26.06c.06.01.09.03.11.06.08.09.1.27.05.44-.05.08-.19.15-.43.18H4V31h4.62l.78-.07c1.03-.19 1.6-.88 1.6-1.92 0-.53-.12-1.06-.73-1.4a4.4 4.4 0 0 0-1.77-.3h-.64c-.36.02-.72.03-1.05 0-.36.01-.55-.03-.66-.13Z" fill="#F3F0EC" /></svg>