<!-- by TradeStack --><svg width="56" height="56" viewBox="0 0 56 56" xmlns="http://www.w3.org/2000/svg"><path fill="#F0F3FA" d="M0 0h56v56H0z"/><path fill-rule="evenodd" d="M42.81 20H38v16h4.81c4.7 0 6.19-3.58 6.19-8s-1.49-8-6.19-8Zm.02 3H41v10h1.83c2.14 0 3.17-2.24 3.17-5s-1.03-5-3.17-5Z" fill="#275DA8"/><path d="M20 20h-2v16h9v-4h-1.74l-.09 1H21v-4h4v-3h-4v-3h4.17l.1 1H27v-4h-7ZM30 20h-2v16h9v-4h-1.74l-.09 1H31v-4h4v-3h-4v-3h4.17l.1 1H37v-4h-7ZM9 32.72V32H7v4h2v-.54c.21.33.58.54.99.54h4.53A2.49 2.49 0 0 0 17 33.5v-2.76a3.1 3.1 0 0 0-1.48-2.65l-5-2.8a1.1 1.1 0 0 1-.52-.94v-1.02c0-.38.31-.7.7-.7H14c.38 0 .69.32.69.7V24H17v-4h-2.18v.63a.98.98 0 0 0-.9-.63H9.48A2.49 2.49 0 0 0 7 22.5v2.7c0 1.09.57 2.1 1.5 2.66l4.96 2.75c.33.2.54.56.54.95v1.16a.7.7 0 0 1-.7.7H9.7a.7.7 0 0 1-.7-.7Z" fill="#275DA8"/></svg>