<!-- by TradeStack --><svg width="56" height="56" viewBox="0 0 56 56" xmlns="http://www.w3.org/2000/svg"><path fill="#F0F3FA" d="M0 0h56v56H0z"/><path d="M19 10a4 4 0 0 0-4 4v13c3.53 3.5 9.28 9 12 9 2.57 0 9.16-8.42 13.52-13.99l.48-.61V14a4 4 0 0 0-4-4H19Zm9.58 17.45c.35 2.46-.69 4.65-2.33 4.89-1.64.23-3.25-1.57-3.6-4.03-.36-2.46.68-4.65 2.32-4.88 1.64-.24 3.26 1.56 3.61 4.02Z" fill="#126FB7"/><path d="M41 25.64c-2.34 3.42-5.53 8.46-6.5 11.36-1.02 3.06-.67 6.81-.23 9H37a4 4 0 0 0 4-4V25.64Z" fill="#73C169"/><path d="M21.52 46A18.54 18.54 0 0 0 15 31.72V42a4 4 0 0 0 4 4h2.52Z" fill="#1BA5C9"/></svg>