<!-- by TradeStack --><svg width="56" height="56" viewBox="0 0 56 56" xmlns="http://www.w3.org/2000/svg"><path fill="#F0F3FA" d="M0 0h56v56H0z"/><path d="M12.03 29.02a16 16 0 0 1 12.18-16.55c4.03-.98 7.95-.43 11.76 1.64.08.04.1.1.08.19-1.26 4.65-6.29 5.37-10.7 6-1.01.14-1.99.28-2.88.46-4.72.96-8.62 3.57-10.2 8.3a.12.12 0 0 1-.2.04.12.12 0 0 1-.04-.08Zm4.75 9.58c-.06-1.15-.07-2.46.03-3.6.23-2.91 1.56-4.78 4.31-5.97 1.67-.71 3.01-1.18 4.03-1.39a51 51 0 0 0 5.69-1.5c2.4-.8 4.35-1.98 5.85-3.55a10.68 10.68 0 0 0 2.64-5.45.02.02 0 0 1 .02.02c1.44 6.43-1.89 12.2-8.7 13.16-5.15.72-12.02 2.57-13.77 8.29-.06.2-.1.2-.1-.01Zm3.75 3.58 1.06.46a15.85 15.85 0 0 0 15.24-1.3c4.18-2.77 6.55-6.82 7.14-12.15l.03-.48c0-.18-.03-.18-.1-.02-1.7 4.46-5.84 6.71-10.45 7.14-4.93.47-10.3 1.16-13.03 6.02a.23.23 0 0 0 .03.27c.02.03.05.05.08.06Z" fill="#C56211"/></svg>