<!-- by TradeStack --><svg width="56" height="56" viewBox="0 0 56 56" xmlns="http://www.w3.org/2000/svg"><path fill="#F0F3FA" d="M0 0h56v56H0z"/><path d="M34.8 19c-.84.22-1.39.64-1.66 1.26a3.02 3.02 0 0 0-.1 1.86c.02.09.07.12.15.1.83-.22 1.39-.63 1.67-1.25.25-.58.22-1.27.09-1.87-.02-.08-.08-.12-.16-.1Zm-2 3.21c-.12-.7-.43-1.2-.94-1.47a2.59 2.59 0 0 0-1.57-.22c-.07.01-.1.05-.09.13.12.7.44 1.2.94 1.47.47.25 1.06.28 1.57.21.07 0 .1-.05.1-.12Z" fill="#389A4A"/><path d="M19.42 25.18c.08.3.33.56.72.77 1.32.7 2.92 1.16 2.7 3.06a1.96 1.96 0 0 1-.88 1.46c-1.15.79-2.8.62-3.99 0-.06-.04-.08-.09-.06-.16l.3-.83a.1.1 0 0 1 .07-.07.1.1 0 0 1 .1.02c.79.62 1.95.95 2.8.28.2-.16.32-.39.35-.67.06-.6-.18-1.03-.73-1.31l-1.6-.84a1.95 1.95 0 0 1-1.08-2.2c.2-1.18 1.43-1.7 2.51-1.69a4.02 4.02 0 0 1 2 .56.13.13 0 0 1 .02.1l-.02.05-.45.62c-.06.08-.13.09-.2.03a2.3 2.3 0 0 0-1.55-.44c-.68.04-1.21.55-1.01 1.26ZM6.34 32.16c.7-.25.66-1.18.66-1.8v-6.28c0-.32.07-.64 0-.98a.09.09 0 0 1 .01-.07.08.08 0 0 1 .07-.03h1.14a.1.1 0 0 1 .1.1v7.22c0 1.48-.5 2.54-2.09 2.68a.12.12 0 0 1-.12-.1l-.1-.55c-.02-.03 0-.06.06-.1.03 0 .12-.04.27-.1ZM12.1 29.85c.91.5 2.22.23 2.67-.7.13-.29.23-.83.23-1.62v-4.47c0-.04 0-.06.03-.06h.87c.06 0 .1.03.1.08v5.14c0 1-.47 1.96-1.38 2.43-1 .5-2.74.5-3.63-.24-.9-.74-1-1.72-.99-2.84.01-1.75.02-2.98 0-3.68 0-.3-.03-.56-.08-.8-.02-.06 0-.09.07-.09h1.22a.1.1 0 0 1 .07.03.1.1 0 0 1 .04.08v5.04c0 .7.16 1.35.79 1.7ZM26.63 23h2.74c.03 0 .06.02.09.05.02.02.03.05.03.09v.73c0 .09-.04.13-.13.13h-2.04c-.02 0-.04.01-.05.03a.07.07 0 0 0-.02.05v6.88a.1.1 0 0 1-.03.06 8.3 8.3 0 0 1-1.2 0 .1.1 0 0 1-.01-.06l-.05-6.88c0-.02.04-.04.02-.05a.07.07 0 0 0-.05-.02L23.9 24c-.09 0-.13-.04-.13-.13v-.73a.13.13 0 0 1 .03-.1.12.12 0 0 1 .04-.02l.05-.02h2.75ZM32.27 27.34a.06.06 0 0 0-.04.02.07.07 0 0 0-.02.05v2.49c0 .03.01.06.03.08.02.02.05.02.08.02h3.14c.1 0 .14.06.14.15v.73c0 .08-.04.12-.11.12H31.1a.1.1 0 0 1-.07-.03c-.02-.02-.04-.04-.04-.07v-6.85c0-.36-.05-.62-.12-.93-.02-.08 0-.12.09-.12h4.53a.1.1 0 0 1 .07.03.1.1 0 0 1 .02.07v.77c0 .03 0 .06-.03.08-.02.02-.05.05-.08.05h-3.23a.06.06 0 0 0-.04.05v2.31c0 .02 0 .04.02.05l.05.02h2.44a.1.1 0 0 1 .07.03.1.1 0 0 1 .02.07v.68c0 .09-.04.13-.13.13h-2.4Z" fill="#FDA61C"/><path fill-rule="evenodd" d="m38.23 27.45.04-.02h.72a.3.3 0 0 1 .25.14l2 3.38a.1.1 0 0 0 .1.05h1.17a.08.08 0 0 0 .07-.04.08.08 0 0 0 0-.09l-2.13-3.57a.07.07 0 0 1 .01-.09l.03-.01c1.2-.47 1.74-1.68 1.28-2.95-.35-.95-1.4-1.23-2.28-1.24a118.52 118.52 0 0 0-2.58 0l-.03.02a.07.07 0 0 0 0 .06c.07.33.12.66.12 1v6.75c0 .1.07.16.17.16h.9c.1 0 .15-.05.15-.15v-3.37l.01-.03Zm.02-3.42a.1.1 0 0 0-.03.06v2.39l.03.06c.01.02.03.03.06.03h1.01a1.47 1.47 0 0 0 .94-.35 1.07 1.07 0 0 0 .39-.84v-.2c0-.31-.14-.61-.39-.83a1.42 1.42 0 0 0-.94-.35h-1.01c-.03 0-.05 0-.06.03ZM43.72 31h.82c.03 0 .05 0 .07-.02a.12.12 0 0 0 .04-.06l.82-2.4c0-.03.02-.05.04-.06a.11.11 0 0 1 .07-.02h2.2c.02 0 .04 0 .06.02.02.01.04.03.05.06l.8 2.4.05.05c.02.02.04.03.07.03h1.07a.11.11 0 0 0 .1-.05.12.12 0 0 0 .01-.11l-2.62-7.76a.12.12 0 0 0-.04-.06.11.11 0 0 0-.07-.02h-.9c-.03 0-.05 0-.07.02a.12.12 0 0 0-.05.06l-2.63 7.76a.12.12 0 0 0 .01.11l.04.04.06.01Zm2.93-6.2-.85 2.67a.05.05 0 0 0 .01.05h.02l.02.01h1.67a.04.04 0 0 0 .04-.01.05.05 0 0 0 0-.04l-.83-2.68-.01-.02a.04.04 0 0 0-.07.02Z" fill="#FDA61C"/></svg>