<!-- by TradeStack --><svg viewBox="0 0 56 56" xmlns="http://www.w3.org/2000/svg"><path fill="#F0F3FA" d="M0 0h56v56H0z"/><path d="M27 29c9.73-.12 11.36-8.04 10.94-12-10.4-.27-12.26 6.55-11.9 10A9.86 9.86 0 0 1 33 21a13.04 13.04 0 0 0-6 8ZM18 20h1.01c3.31 0 5.99 2.82 5.99 6.3V28h-1.01C20.68 28 18 25.18 18 21.7V20ZM48.02 35H50v1h-3v-4h1.02v3ZM42 32v1h-1v3h-1v-3h-1v-1h3ZM37 36v-4h1v4h-1ZM34.6 32c.93 0 1.4.42 1.4 1.25v.31c0 .83-.47 1.25-1.4 1.25H34V36h-1v-4h1.6Zm.4 1.55v-.3c0-.31-.16-.46-.51-.46H34V34h.49c.35 0 .51-.14.51-.45ZM30.95 36l-.2-.71h-1.47l-.22.71H28l1.34-4h1.32L32 36h-1.05Zm-1.44-1.5h1l-.5-1.66-.5 1.67ZM44.95 36l-.2-.71h-1.47l-.22.71H42l1.34-4h1.32L46 36h-1.05Zm-1.44-1.5h1l-.5-1.66-.5 1.67ZM25.87 36c-1.22 0-1.87-.53-1.87-1.51v-1c0-.98.66-1.5 1.87-1.49.38 0 .75.05 1.1.16l-.2.81c-.22-.1-.48-.14-.79-.14-.64 0-.98.22-.98.76v.8c0 .55.34.77.97.77.29 0 .57-.05.84-.15l.19.82c-.37.1-.74.17-1.13.17ZM20.47 32c1 0 1.53.53 1.53 1.53v.93c0 1-.53 1.54-1.53 1.54H19v-4h1.47Zm.53 2.45v-.91c0-.48-.2-.71-.64-.71H20v2.33h.36c.44 0 .64-.24.64-.7ZM12 35.18h2V36h-3v-4h3v.81h-2v.76h1.72v.78H12v.83ZM16 35.18h2V36h-3v-4h3v.81h-2v.76h1.72v.78H16v.83ZM8.35 36A5.3 5.3 0 0 1 7 35.85l.12-.82c.35.11.74.16 1.18.16.55 0 .7-.1.7-.4 0-.3-.32-.37-.55-.41l-.33-.07C7.37 34.15 7 33.83 7 33.19c0-.8.58-1.19 1.65-1.19.39 0 .77.05 1.14.13l-.12.83a2.8 2.8 0 0 0-.97-.17c-.53 0-.7.1-.7.36 0 .22.18.32.66.42l.34.08c.7.16 1 .48 1 1.12 0 .82-.55 1.23-1.65 1.23Z" fill="#003697"/></svg>