<?xml version='1.0' encoding='utf-8'?>
<!-- by TradeStack -->
<svg width="56" height="56" viewBox="0 0 56 56" xmlns="http://www.w3.org/2000/svg"><path fill="#F0F3FA" d="M0 0h56v56H0z" /><path d="m44 32 1.46-9h5.08L52 32h-3.36l-.18-2h-.93l-.18 2H44Zm3.65-4h.69L48 25l-.35 3ZM40.5 32v-3.36c0-.47-.21-.64-.59-.64h-.41v4H36v-9h5.71c1.59 0 2.28.58 2.28 2.14 0 1.2-.4 1.78-1.46 2.05 1.08.25 1.47 1 1.47 2.5V32h-3.5Zm-1-7v1.33h.41c.38 0 .59-.18.59-.64s-.2-.69-.59-.69h-.41ZM30 32v-7h-1.5v-2H35v2h-1.5v7H30ZM28 28.5v1.59c0 1.4-.68 1.91-2.22 1.91h-3.65c-1.46 0-2.13-.58-2.13-1.91v-4.97c0-1.58.6-2.12 2.13-2.12h3.65c1.6 0 2.22.48 2.22 2.12v1.38h-3.5v-.85c0-.44-.16-.65-.5-.65-.33 0-.5.2-.5.65v3.7c0 .44.17.65.5.65.31 0 .5-.2.5-.65v-.85H28ZM13 32v-9h6v2h-2.5v1H19v2h-2.5v2H19v2h-6ZM6.2 32C4.74 32 4 31.42 4 30.33V29h3.5v.34c0 .44.2.66.52.66s.48-.24.48-.71c0-.6-.15-.71-.64-.91l-2.43-.97C4.45 27 4 26.63 4 25.6v-.95C4 23.58 4.75 23 6.2 23h3.6c1.45 0 2.2.58 2.2 1.66v1.05H8.44v-.1c0-.4-.16-.6-.46-.6-.25 0-.42.17-.42.43 0 .34.24.44.63.6l2.84 1.18c.77.33.97.87.97 1.9v.98c0 1.3-.7 1.9-2.2 1.9H6.2Z" fill="#757575" /></svg>