<?xml version='1.0' encoding='utf-8'?>
<!-- by TradeStack -->
<svg width="56" height="56" viewBox="0 0 56 56" xmlns="http://www.w3.org/2000/svg"><path fill="#F0F3FA" d="M0 0h56v56H0z" /><path d="M49.9 27.99c0-1.34-1.03-1.99-2.3-1.99-1.16 0-2.5.74-2.5 1.99h4.8ZM45.07 29c.1 1.24 1.45 2 2.61 2 .89 0 1.78-.25 2.29-1l.77.6a3.8 3.8 0 0 1-3.06 1.4C45.7 32 44 30.54 44 28.5c0-1.99 1.63-3.5 3.6-3.5 1.9 0 3.4 1.4 3.4 3.33V29h-5.93ZM42 32h-1v-7h1v7Zm-3-6h-2v3.88c0 .46-.03.93.49 1.07a1.99 1.99 0 0 0 .94-.02c.17-.05.34-.12.49-.2l.04 1.02a3.22 3.22 0 0 1-1.92.18c-.82-.2-1.04-1-1.04-1.77V26h-1.59v-1H36v-2h1v2h2v1Zm-6 0h-2v3.88c0 .46.19.93.7 1.07a1.99 1.99 0 0 0 .94-.02c.18-.05.34-.12.5-.2l.04 1.02a3.22 3.22 0 0 1-1.92.18c-.82-.2-1.26-1-1.26-1.77V26h-1.37v-1H30v-2h1v2h2v1Zm-6.01 2.5c0-.37-.06-.72-.18-1.04a2.35 2.35 0 0 0-2.32-1.6 2.27 2.27 0 0 0-1.81.77c-.2.23-.37.5-.49.83a3.02 3.02 0 0 0 0 2.08c.12.32.28.6.5.84.2.24.46.42.77.56.3.14.65.2 1.03.2a2.35 2.35 0 0 0 2.32-1.6c.12-.32.18-.67.18-1.04Zm1.01 0c0 .5-.09.97-.26 1.4a3.36 3.36 0 0 1-3.25 2.1c-.5 0-.97-.09-1.4-.26a3.3 3.3 0 0 1-1.83-1.85 3.9 3.9 0 0 1 0-2.79A3.36 3.36 0 0 1 24.5 25c.52 0 1 .09 1.42.26a3.3 3.3 0 0 1 1.83 1.85c.17.42.26.89.26 1.39Zm-10.12-1.76a2.09 2.09 0 0 0-1.75-.88c-.41-.02-.78.05-1.1.18a2.41 2.41 0 0 0-1.36 1.4c-.12.33-.18.68-.18 1.06s.06.73.18 1.06a2.37 2.37 0 0 0 1.36 1.4c.32.13.69.2 1.1.19a2.09 2.09 0 0 0 1.75-.89l.8.59c-.34.39-.74.67-1.18.86a4.1 4.1 0 0 1-2.92.04 3.43 3.43 0 0 1-1.17-.73 3.12 3.12 0 0 1-.74-1.12 3.8 3.8 0 0 1-.25-1.4c0-.5.08-.97.25-1.4.17-.43.42-.8.74-1.12.33-.31.72-.55 1.18-.73a4.1 4.1 0 0 1 2.91.04c.44.19.84.47 1.19.86l-.81.59Zm-8.58.01a1.65 1.65 0 0 0-1.51-.9 2.24 2.24 0 0 0-.99.24 1 1 0 0 0-.34.3.78.78 0 0 0-.13.46c0 .31.12.54.35.68.23.14.57.27 1.03.37l1 .23c.5.1.9.32 1.22.63.33.32.49.72.49 1.2a1.8 1.8 0 0 1-.85 1.56 2.7 2.7 0 0 1-.87.37c-.33.07-.67.11-1 .11-.54 0-1.05-.1-1.51-.3a2.69 2.69 0 0 1-1.19-1l.85-.55a2.1 2.1 0 0 0 1.84 1 2.46 2.46 0 0 0 1.13-.27c.16-.09.28-.2.38-.35.1-.14.14-.3.14-.5 0-.33-.13-.56-.39-.71a3.52 3.52 0 0 0-.94-.35l-.96-.21a6.7 6.7 0 0 1-.49-.15 2.1 2.1 0 0 1-1.1-.81 1.41 1.41 0 0 1-.2-.8c0-.34.07-.63.21-.89.15-.26.34-.46.59-.63.24-.16.52-.28.83-.36a3.78 3.78 0 0 1 2.32.15c.41.18.74.49.97.93l-.88.55Z" fill="#6485B4" /><path d="m41.5 23.5 1.25-2.5h-2.5l1.25 2.5Z" fill="#D4AF37" /></svg>