<?xml version='1.0' encoding='utf-8'?>
<!-- by TradeStack -->
<svg width="56" height="56" viewBox="0 0 56 56" xmlns="http://www.w3.org/2000/svg"><path fill="#04304E" d="M0 0h56v56H0z" /><path fill-rule="evenodd" d="M13.03 31.25a2 2 0 0 1-.94.23H12V32h7.27v-.52h-.74a2.6 2.6 0 0 1-2.44-3.51l3.9-10.6 4.98 12.86a.91.91 0 0 1-.84 1.25h-.57V32H32v-.52h-.62c-.52 0-1-.32-1.2-.8L21.94 11h-.46l-6.57 17.28-.12.33c-.38 1.04-.8 2.14-1.76 2.64ZM27 22h8.49c2.78 0 5.51 2.22 5.51 4.95 0 2.48-2.17 4.43-4.48 5.06A5.65 5.65 0 0 1 42 37.64c0 3-2.48 5.36-5.53 5.36H32v-.65h.93c2.94 0 4.57-1.57 4.57-4.71 0-4.03-2.97-5.04-4.5-5.04V32c1.13-.14 3.52-1.33 3.52-4.83 0-3.6-2.19-4.65-3.19-4.65H31V31l-4-9Zm4.97 11c.18 2.79-.4 8.67-3.97 10-3.57-1.33-4.15-7.21-3.97-10h7.94Zm-1 1c.15 2.23-.29 6.94-2.97 8-2.68-1.06-3.12-5.77-2.98-8h5.96Z" fill="#fff" /></svg>