<!-- by TradeStack --><svg width="56" height="56" viewBox="0 0 56 56" xmlns="http://www.w3.org/2000/svg"><path fill="#F0F3FA" d="M0 0h56v56H0z"/><path d="m29 12.5-.48-.5-10.06 12.04 8.14 10.03h.48v-.5l-6.23-9.53L29 12.5Z" fill="url(#amb4wiqur)"/><path d="m19.47 24.7 7.5 9.23a.2.2 0 0 1 0 .27l-3.12 3.73a.19.19 0 0 1-.26.02L8.35 24.82c-.47-.4-.47-1.16.01-1.56l13.4-11.22a.19.19 0 0 1 .12-.04h6.7c.16 0 .25.2.14.33L19.48 23.4c-.31.37-.31.93 0 1.3Z" fill="url(#bmb4wiqur)"/><path d="M27.5 22v.5l6.1 8.91a1 1 0 0 1-.02 1.16L25.5 43.5v.5l11-11.5V31l-9-9Z" fill="url(#cmb4wiqur)"/><path d="m30.72 18.07-3.3 3.73a.2.2 0 0 0 0 .27l7.9 8.73a1 1 0 0 1 .01 1.33L25.05 43.67a.2.2 0 0 0 .15.33h7.6a.2.2 0 0 0 .14-.04l14.68-11.7a1 1 0 0 0-.02-1.57L31 18.04a.2.2 0 0 0-.28.03Z" fill="url(#dmb4wiqur)"/><defs><linearGradient id="amb4wiqur" x1="27.08" y1="14.01" x2="26.56" y2="33.56" gradientUnits="userSpaceOnUse"><stop stop-color="#D0B38B"/><stop offset=".51" stop-color="#A8834C"/><stop offset="1" stop-color="#DEC394"/></linearGradient><linearGradient id="bmb4wiqur" x1="18.22" y1="12" x2="18.22" y2="38.08" gradientUnits="userSpaceOnUse"><stop stop-color="#F4D6A0"/><stop offset=".34" stop-color="#F1D5A5"/><stop offset=".44" stop-color="#C19B5C"/><stop offset=".47" stop-color="#90693E"/><stop offset="1" stop-color="#9B6E37"/></linearGradient><linearGradient id="cmb4wiqur" x1="31" y1="22" x2="29" y2="43.5" gradientUnits="userSpaceOnUse"><stop stop-color="#7B643B"/><stop offset="1" stop-color="#E3CEA5"/></linearGradient><linearGradient id="dmb4wiqur" x1="36.69" y1="17.93" x2="36.69" y2="44" gradientUnits="userSpaceOnUse"><stop stop-color="#F3D8A3"/><stop offset=".41" stop-color="#F2D89B"/><stop offset=".51" stop-color="#CAA860"/><stop offset=".55" stop-color="#906A3B"/><stop offset="1" stop-color="#8F6B3A"/></linearGradient></defs></svg>