<?xml version='1.0' encoding='utf-8'?>
<!-- by TradeStack -->
<svg width="56" height="56" viewBox="0 0 56 56" xmlns="http://www.w3.org/2000/svg"><path fill="#F0F3FA" d="M0 0h56v56H0z" /><path fill-rule="evenodd" d="M27.94 46 10.5 16h35L27.94 46ZM15.67 22.58 12.5 17h2.07a.46.46 0 0 0-.04.5c.08.18 1.95 3.43 1.95 3.43s1.75-2.96 1.95-3.34c.2-.38 0-.59 0-.59h2.07s-3.09 5.5-3.17 5.62c-.08.17-.08.38-.08.38H15.8c0-.13-.12-.42-.12-.42ZM22.65 17h-1.79s.13.13.13.46v5.03s0 .34-.26.51h2s-.23-.17-.23-.6v-5.02c0-.1.05-.28.15-.38ZM30 22.44l-.73-1.24s-.12.16-.28.32c-.2.12-1.13.36-2.1.36-1.02 0-2.51-.68-2.51-1.96 0-1.32 1.74-1.76 2.5-1.76.73 0 1.5.16 1.78.28.29.12.57.36.57.36l.77-1.16s-.24-.04-.57-.16a7.28 7.28 0 0 0-2.55-.48c-1.25 0-3.88.68-3.88 2.88 0 2.24 2.47 3.12 3.88 3.12 1.27 0 2.35-.42 2.65-.53l.07-.03c.16-.04.4 0 .4 0Zm5.91.56H38c-.22-.08-.35-.38-.35-.38s-2.13-4.61-2.17-4.74l-.09-.2a1.54 1.54 0 0 1-.13-.34c0-.09.13-.34.13-.34h-2.74l.04.2c.02.16.04.24 0 .3l-.9 1.93-1.53 3.28c-.09.16-.26.29-.26.29h2.13c-.26-.17-.17-.42-.13-.55.04-.12.35-.45.35-.45h3.3l.35.58c.09.34-.09.42-.09.42Zm-3.08-2L34 18.22 35.09 21h-2.26Zm3.43-4h6.12l.12 1.22s-.45-.22-.61-.22h-1.92v4.7c0 .13.08.3.17.3h-1.78s.14-.17.14-.34V18h-2l-.48.22.24-1.22Zm-8.3 26.5L16.5 24h23L27.96 43.5Z" fill="#004587" /></svg>