<!-- by TradeStack --><svg width="56" height="56" viewBox="0 0 56 56" xmlns="http://www.w3.org/2000/svg"><path fill="#F0F3FA" d="M0 0h56v56H0z"/><path d="M43.57 14.3c-13.93-5.98-26.4-2.49-30.89 0-4.9 11.27-1.97 22.93.1 27.35 13.92 6.07 26.32 2.53 30.79 0 4.4-11.74 1.83-23.12 0-27.35Z" fill="url(#aeyidoldt)"/><path fill-rule="evenodd" d="M14.4 15.76c4-2.23 15.11-5.35 27.52 0 1.64 3.77 3.92 13.95 0 24.44-3.98 2.26-16.85 5.37-27.98 0-1.72-4.3-3.9-14.38.46-24.44Zm.96.86c3.72-2.07 14.04-4.97 25.57 0 1.52 3.51 3.65 12.97 0 22.72-3.7 2.1-15.65 4.99-26 0-1.6-4-3.63-13.36.43-22.72Z" fill="url(#beyidoldt)"/><path d="M20.4 21.27c-.73-.38-1.36-.7-1.36-1.28 0-.51.58-.71 1.08-.71.58 0 1.14.15 1.85.54l.11.06.03-1.4-.05-.03c-.3-.16-.98-.45-2.01-.45-1.6 0-2.7.9-2.7 2.17 0 .56.19 1.03.54 1.42.42.44 1 .74 1.52 1 .73.39 1.36.7 1.36 1.28 0 .6-.68.8-1.24.8-.6 0-1.2-.2-1.78-.55l-.07-.05-.68 1.17.05.04c.72.47 1.57.72 2.5.72 1.71 0 2.91-.94 2.91-2.26.05-1.4-1.08-1.95-2.06-2.47ZM23.77 18a.83.83 0 0 0-.85.83c0 .47.38.83.85.83.48 0 .86-.38.86-.83.02-.47-.36-.83-.86-.83ZM24.55 20H23v6h1.55v-6ZM31.63 20c-.63 0-1.34.3-1.94.84-.29-.54-.8-.84-1.44-.84-.6 0-1.2.26-1.83.72a50.3 50.3 0 0 0-.13-.72h-1.3v6h1.54v-4.07c.45-.35.85-.53 1.25-.53.6 0 .71.44.71 1.09V26H30v-3.9l.03-.17c.44-.35.84-.53 1.24-.53.6 0 .73.41.73 1.07V26h1.52v-3.95c-.02-1.77-1.18-2.05-1.9-2.05ZM39.13 22.95c0-1.77-1.04-2.95-2.55-2.95-1.52 0-2.58 1.23-2.58 3 0 1.39.74 3 2.81 3 .74 0 1.48-.23 2.05-.64l.04-.02-.38-1.04-.07.04c-.5.27-.92.39-1.4.39-.8 0-1.4-.53-1.48-1.28h3.56v-.5Zm-3.58-.65c.02-.55.4-1.1 1.01-1.1.68 0 .95.57 1 1.1h-2ZM16.96 27H15v8h1.87c2.7 0 4.42-1.6 4.42-4.06 0-2.47-1.64-3.94-4.33-3.94Zm-.03 6.62h-.38v-5.27h.36c1.73 0 2.72.94 2.72 2.6 0 .82-.27 2.67-2.7 2.67ZM33 29.46c-.4 0-.73.07-1 .13V27h-1.56v7.6l.05.02c.47.25 1.12.38 1.87.38 1.97 0 3.37-1.22 3.37-2.95 0-1.79-1.37-2.59-2.72-2.59Zm-.37 4.34c-.25 0-.43-.02-.63-.08v-2.87c.18-.06.4-.14.72-.14.96 0 1.46.73 1.46 1.45 0 .92-.66 1.64-1.55 1.64Z" fill="#F0F3FA"/><path d="M39.85 29s-1.12 3.29-1.19 3.54c-.09-.23-1.62-3.54-1.62-3.54h-1.82s2.54 5.52 2.56 5.59c-.36 1.1-.78 1.62-1.37 1.62h-.06l.02 1.26h.07c1.32 0 2.2-.4 3.03-2.59L41.63 29h-1.78ZM29.4 29c-.55 0-1.06.05-1.6.49l-.03-.49h-1.32v6H28v-3.7c0-.18.09-.37.3-.53a1.95 1.95 0 0 1 1.56-.42H30v-1.33l-.6-.02ZM26.15 35c-.07-.25-.15-.8-.15-1.65v-1.8c-.02-1.36-.35-2.25-1.94-2.53a3.6 3.6 0 0 0-2.25.55l-.05.03v.04c.07.32.12.64.16 1.01v.1l.1-.05c.6-.28 1.1-.42 1.54-.42.54 0 .79.26.86.9l-.9.02c-1.5.05-2.39.76-2.39 1.92 0 1.1.77 1.88 1.9 1.88.6 0 1.12-.2 1.57-.57l.22.57h1.33Zm-1.69-1.58c-.25.2-.56.32-.92.32-.52 0-.83-.27-.83-.7 0-.28.11-.67 1.03-.7l.72-.02v1.1Z" fill="#F0F3FA"/><defs><linearGradient id="aeyidoldt" x1="43.87" y1="14.16" x2="12.69" y2="41.92" gradientUnits="userSpaceOnUse"><stop stop-color="#FBA831"/><stop offset=".47" stop-color="#EE3834"/><stop offset="1" stop-color="#CA2629"/></linearGradient><linearGradient id="beyidoldt" x1="41.72" y1="15.73" x2="14.69" y2="40.91" gradientUnits="userSpaceOnUse"><stop stop-color="#CC2629"/><stop offset=".53" stop-color="#EE3233"/><stop offset="1" stop-color="#FBAA30"/></linearGradient></defs></svg>