<!-- by TradeStack --><svg width="56" height="56" viewBox="0 0 56 56" fill="none" xmlns="http://www.w3.org/2000/svg">
<rect width="56" height="56" fill="#F0F3FA"/>
<path d="M43.4051 26.2798C43.6532 27.191 43.6483 28.1624 42.8353 28.6936C42.8268 28.6991 42.8173 28.7023 42.8076 28.7029C42.7978 28.7034 42.7881 28.7014 42.7793 28.6968C42.7705 28.6923 42.7629 28.6854 42.7571 28.6768C42.7513 28.6682 42.7475 28.6582 42.746 28.6476C42.3165 25.7355 41.223 22.6275 39.2116 20.6135C39.2063 20.6086 39.2027 20.6017 39.2016 20.5942C39.2004 20.5866 39.2018 20.5788 39.2054 20.5723C39.2089 20.5658 39.2145 20.5609 39.2211 20.5586C39.2276 20.5563 39.2347 20.5567 39.241 20.5598C41.3985 21.5498 42.7529 23.8814 43.4051 26.2798Z" fill="black"/>
<path fill-rule="evenodd" clip-rule="evenodd" d="M33.1055 19.0046H33.942C34.89 19.0521 35.8354 19.2354 36.7782 19.5544C36.7863 19.5564 36.7935 19.5618 36.7981 19.5695C36.8028 19.5772 36.8046 19.5866 36.8032 19.5957C36.8018 19.6049 36.7973 19.6131 36.7907 19.6187C36.784 19.6242 36.7757 19.6267 36.7674 19.6256C33.8234 19.4865 30.7145 20.4021 28.047 21.6856C26.814 22.2792 25.7967 22.7578 24.9951 23.1214C20.4662 25.1759 14.3388 26.4704 10.2895 22.3668C10.2378 22.3142 10.2424 22.3069 10.3032 22.3449C15.5725 25.615 22.1619 23.0348 27.183 20.6036C29.0817 19.6836 31.0558 19.1507 33.1055 19.0046ZM10.5964 23.3634C14.1161 26.1616 18.3194 25.925 22.3383 24.6689C24.2136 24.0824 25.9812 23.2436 27.634 22.4593L27.6342 22.4592C27.9382 22.3149 28.2382 22.1725 28.5344 22.0339C31.3608 20.7087 34.8315 19.745 37.8589 20.2575C38.0184 20.2845 38.1874 20.3754 38.3659 20.5302C38.4006 20.5602 38.396 20.5766 38.3522 20.5795C35.008 20.8095 31.758 21.9112 28.7806 23.3777C27.2225 24.145 26.1935 24.6448 25.6933 24.8769C20.78 27.1603 14.6692 28.2084 10.5807 23.3831C10.5245 23.3174 10.5297 23.3108 10.5964 23.3634ZM25.8708 25.3862C21.032 27.6324 15.343 28.5545 10.9583 24.578C10.9119 24.5363 10.9083 24.5407 10.9475 24.5911C14.3309 29.0079 19.1569 29.3014 23.8417 27.6893C25.1415 27.2425 26.249 26.7741 27.1644 26.2842C31.2647 24.0895 35.1335 22.3898 39.5124 21.5597C39.5157 21.5589 39.5187 21.557 39.5211 21.5544C39.5235 21.5517 39.5252 21.5483 39.5259 21.5446C39.5266 21.5409 39.5264 21.5371 39.5252 21.5335C39.524 21.53 39.5219 21.5269 39.5192 21.5246L39.0328 21.1424C39.0073 21.1227 38.9795 21.1129 38.9494 21.1129C36.7841 21.1008 34.5588 21.621 32.4621 22.3909C30.7141 23.0329 28.966 23.8865 27.4663 24.6188C26.8937 24.8985 26.3572 25.1604 25.8708 25.3862Z" fill="url(#paint0_linear_229_19652)"/>
<path d="M44.0163 27.0267C43.9914 27.064 43.9617 27.0705 43.927 27.0465C43.893 27.0231 43.8708 26.9734 43.8603 26.8975C43.5249 24.5276 42.5416 22.6406 40.9104 21.2366C40.7894 21.1322 40.8019 21.1059 40.9477 21.1578C42.3658 21.6626 43.7387 22.7414 44.3144 24.3304C44.6871 25.3588 44.5988 26.1561 44.0163 27.0267Z" fill="black"/>
<path d="M42.5871 21.5925C43.9512 21.8838 46.6737 23.3064 45.0261 25.3872C44.9875 25.4354 44.9656 25.4274 44.9604 25.3631C44.8044 23.5693 43.7845 22.5705 42.5675 21.6462C42.5624 21.6424 42.5586 21.6368 42.5568 21.6302C42.555 21.6237 42.5553 21.6167 42.5576 21.6104C42.5599 21.6041 42.5641 21.5988 42.5695 21.5956C42.5749 21.5923 42.5811 21.5912 42.5871 21.5925Z" fill="black"/>
<path d="M4 33V32.8789L4.11474 32.4029C4.12193 32.3735 4.14155 32.3588 4.17358 32.3588C5.56291 32.3557 6.95158 32.3478 8.3396 32.3349C8.6142 32.3331 8.95548 32.3487 9.14868 32.1061C9.57823 31.5668 9.06924 31.3022 8.56026 31.3012C7.58283 31.2982 6.60409 31.2893 5.62404 31.2746C4.8689 31.2627 4.31284 30.9889 4.39522 30.1932C4.50212 29.1641 5.31904 29.006 6.30857 29.0033C7.64036 29.0002 8.97313 28.9993 10.3069 29.0005C10.3435 29.0005 10.3585 29.0174 10.352 29.0511L10.2441 29.5968C10.2376 29.6299 10.2163 29.6465 10.1804 29.6465C8.72436 29.644 7.26933 29.6422 5.81528 29.6409C4.97187 29.64 4.71003 30.715 5.65444 30.7049C6.66783 30.6933 7.6809 30.6957 8.69363 30.7123C9.32128 30.7224 9.81065 30.8014 10.0019 31.3646C10.2108 31.9757 9.81457 32.6464 9.20654 32.8733C8.99471 32.9518 8.61158 32.9925 8.05716 32.9956L4 33Z" fill="black"/>
<path d="M28.0992 31.6683L27.8514 32.9325C27.8442 32.9732 27.8184 33 27.774 33H27.1767C27.129 33 27.1091 32.9717 27.1169 32.9279L27.8338 29.0495C27.839 29.0215 27.8573 29.0072 27.8887 29.0066C29.197 28.9981 30.5013 28.9978 31.8017 29.0057C32.1626 29.0081 32.4722 29.0419 32.7304 29.107C33.6317 29.335 33.697 30.4679 33.2086 31.0362C32.835 31.4713 32.1465 31.6564 31.5483 31.6136C31.5412 31.6133 31.5342 31.6151 31.5283 31.6188C31.5225 31.6225 31.518 31.6278 31.5156 31.634C31.5132 31.6402 31.513 31.647 31.515 31.6533C31.517 31.6596 31.5211 31.6652 31.5267 31.6692L33.5846 32.9434C33.5905 32.9472 33.595 32.9527 33.5973 32.959C33.5996 32.9653 33.5996 32.9722 33.5974 32.9785C33.5952 32.9849 33.5909 32.9904 33.5851 32.9943C33.5792 32.9981 33.5722 33.0001 33.565 33L32.5549 33C32.5198 32.9994 32.4858 32.9794 32.4578 32.9599C31.7916 32.4965 31.1217 32.125 30.4568 31.6592C30.4282 31.6385 30.3927 31.6273 30.3558 31.6273H28.1512C28.1211 31.6273 28.1038 31.6409 28.0992 31.6683ZM31.8033 31C32.7967 30.9973 33.208 29.6734 32.0469 29.667C30.8681 29.6615 29.686 29.6612 28.5007 29.6661C28.4693 29.6667 28.451 29.6813 28.4457 29.7099L28.2339 30.8738C28.2293 30.8999 28.2368 31 28.2649 31H31.8033Z" fill="black"/>
<path d="M12.7057 29.7763C12.9852 29.4859 13.2911 29.5109 13.6491 29.5867C13.6811 29.5934 13.7057 29.6106 13.7227 29.6386L15.7733 32.9312C15.8014 32.9771 15.789 33 15.736 33H15.0123C14.9717 33 14.9404 32.9824 14.9181 32.9471L14.5906 32.4203C14.5729 32.391 14.5471 32.3764 14.5131 32.3764H11.1709C11.1388 32.3764 11.111 32.388 11.0875 32.4113L10.5462 32.9621C10.5223 32.9863 10.4902 33 10.4569 33H9.66255C9.65534 32.9999 9.64832 32.9976 9.64235 32.9935C9.63638 32.9894 9.63171 32.9836 9.62891 32.9768C9.6261 32.9701 9.62529 32.9626 9.62656 32.9554C9.62783 32.9482 9.63114 32.9415 9.63607 32.9361C10.6593 31.8918 11.6825 30.8385 12.7057 29.7763ZM11.7416 31.7269C11.737 31.7316 11.7338 31.7377 11.7325 31.7442C11.7313 31.7508 11.7319 31.7576 11.7344 31.7638C11.737 31.77 11.7412 31.7753 11.7467 31.779C11.7522 31.7827 11.7586 31.7847 11.7652 31.7847L14.1326 31.7837C14.1385 31.7838 14.1444 31.7822 14.1496 31.7791C14.1547 31.7761 14.159 31.7716 14.1619 31.7663C14.1648 31.761 14.1662 31.7551 14.1661 31.749C14.1659 31.7429 14.1642 31.737 14.161 31.7319L13.245 30.2382C13.2424 30.2339 13.2388 30.2302 13.2345 30.2275C13.2303 30.2247 13.2255 30.223 13.2205 30.2224C13.2155 30.2219 13.2104 30.2224 13.2057 30.2241C13.2009 30.2258 13.1966 30.2286 13.1931 30.2322L11.7416 31.7269Z" fill="black"/>
<path d="M17.0408 30.3897L16.6064 32.9551C16.6011 32.985 16.5835 33 16.5534 33H15.9297C15.922 33 15.9144 32.9982 15.9075 32.9949C15.9005 32.9916 15.8943 32.9868 15.8894 32.9808C15.8844 32.9748 15.8808 32.9678 15.8788 32.9603C15.8768 32.9527 15.8764 32.9448 15.8777 32.9371L16.4485 29.6334C16.4501 29.6234 16.4548 29.6142 16.4618 29.6071C16.4689 29.5999 16.4779 29.5952 16.4877 29.5935C16.7976 29.5326 17.0575 29.4957 17.3291 29.7072C18.3798 30.5308 19.4311 31.3533 20.4831 32.1748C20.4884 32.1791 20.4948 32.1818 20.5015 32.1828C20.5082 32.1838 20.5151 32.183 20.5214 32.1805C20.5277 32.178 20.5333 32.1738 20.5376 32.1685C20.5419 32.1631 20.5447 32.1567 20.5458 32.1499L20.9764 29.6005C20.9782 29.5894 20.9838 29.5793 20.9923 29.572C21.0007 29.5647 21.0114 29.5606 21.0225 29.5605L21.6472 29.5566C21.6559 29.5564 21.6645 29.5582 21.6725 29.5619C21.6804 29.5656 21.6875 29.571 21.6931 29.5778C21.6987 29.5846 21.7028 29.5925 21.705 29.6011C21.7073 29.6097 21.7076 29.6187 21.706 29.6274L21.1323 32.9341C21.1251 32.978 21.0993 33 21.0548 33H20.4674C20.4353 33 20.4066 32.99 20.3811 32.9701L17.0692 30.3788C17.0668 30.3768 17.064 30.3755 17.061 30.375C17.0579 30.3745 17.0548 30.3749 17.0519 30.376C17.0491 30.3771 17.0465 30.3789 17.0446 30.3813C17.0426 30.3838 17.0413 30.3866 17.0408 30.3897Z" fill="black"/>
<path d="M25.5491 29.594C26.4072 29.599 27.1114 30.0759 27.1114 31.0118C27.1104 32.4516 25.9551 32.9914 24.6773 32.9964C23.6567 33.0004 22.641 33.0011 21.6303 32.9984C21.6207 32.9984 21.6114 32.9963 21.6027 32.9922C21.5941 32.9881 21.5865 32.9821 21.5804 32.9747C21.5743 32.9673 21.5699 32.9586 21.5675 32.9492C21.5651 32.9399 21.5648 32.9301 21.5665 32.9206L22.149 29.6309C22.1556 29.5943 22.1772 29.576 22.2138 29.576C23.3305 29.5807 24.4423 29.5867 25.5491 29.594ZM26.3043 30.8562C26.2013 30.2086 25.3775 30.2216 24.8921 30.2116C24.2017 30.1983 23.5083 30.1983 22.812 30.2116C22.7826 30.2123 22.7656 30.2273 22.761 30.2565L22.4187 32.302C22.4135 32.3326 22.4263 32.3479 22.457 32.3479C23.1977 32.3545 23.9382 32.3545 24.6783 32.3479C25.558 32.3399 26.4769 31.9378 26.3043 30.8562Z" fill="black"/>
<path d="M34.4855 29.6065H35.1406C35.1459 29.6066 35.151 29.6078 35.1557 29.61C35.1604 29.6123 35.1646 29.6155 35.168 29.6195C35.1713 29.6235 35.1738 29.6282 35.1751 29.6333C35.1765 29.6383 35.1768 29.6436 35.1759 29.6488L34.5905 32.9695C34.5891 32.9779 34.5848 32.9856 34.5783 32.9912C34.5719 32.9968 34.5637 32.9999 34.5552 33H33.9C33.8948 32.9999 33.8897 32.9987 33.885 32.9965C33.8802 32.9942 33.8761 32.991 33.8727 32.987C33.8694 32.983 33.8669 32.9783 33.8655 32.9732C33.8642 32.9682 33.8639 32.9629 33.8647 32.9577L34.4502 29.637C34.4516 29.6286 34.4559 29.6209 34.4623 29.6153C34.4688 29.6097 34.477 29.6066 34.4855 29.6065Z" fill="black"/>
<path d="M35.75 29.6537C35.752 29.6408 35.7587 29.6291 35.7688 29.6206C35.7788 29.6122 35.7916 29.6075 35.8049 29.6075C36.7758 29.6049 37.7545 29.6049 38.7411 29.6075C39.8375 29.6095 40.8084 29.9377 40.7025 31.2635C40.5868 32.7052 39.204 32.9941 38.0379 33H35.1939C35.1612 33 35.1478 32.9839 35.1537 32.9518L35.75 29.6537ZM36.3511 30.3465L36.0118 32.3052C36.0059 32.3406 36.021 32.3583 36.0569 32.3583C36.8683 32.3635 37.679 32.3556 38.4891 32.3347C38.8833 32.3248 39.2099 32.223 39.4688 32.029C40.1151 31.5426 40.1058 30.3102 39.0868 30.2561H37.3849H36.4747C36.4041 30.2463 36.3629 30.2764 36.3511 30.3465Z" fill="black"/>
<path d="M45.5392 31.5409H43.8887C43.8527 31.5409 43.8383 31.5232 43.8455 31.4878L43.9308 31.059C43.9342 31.0424 43.9433 31.0275 43.9565 31.0167C43.9697 31.006 43.9863 31.0001 44.0034 31H46.3512C46.3584 31.0001 46.3655 31.0016 46.372 31.0047C46.3784 31.0077 46.3842 31.0121 46.3888 31.0175C46.3933 31.023 46.3967 31.0293 46.3985 31.0362C46.4003 31.043 46.4006 31.0501 46.3993 31.057L46.0441 32.9476C46.0383 32.9817 46.018 32.9987 45.9833 32.9987C44.8817 33.0007 43.782 33.0004 42.6843 32.9978C41.681 32.9948 40.8837 32.5434 40.9876 31.4025C41.1083 30.0885 42.1919 29.6203 43.3688 29.6095C44.3528 29.601 45.3367 29.6016 46.3207 29.6115C46.3527 29.6115 46.3658 29.6272 46.3599 29.6587L46.2609 30.1977C46.2584 30.2107 46.2514 30.2224 46.2412 30.2309C46.231 30.2393 46.2182 30.2439 46.205 30.2439C45.3093 30.2465 44.4149 30.2491 43.5218 30.2518C42.8157 30.2547 42.086 30.3914 41.8144 31.1212C41.5653 31.792 41.936 32.3339 42.6588 32.3467C43.5702 32.3637 44.4822 32.367 45.3949 32.3565C45.4237 32.3565 45.4407 32.3421 45.4459 32.3132L45.5833 31.594C45.5892 31.5586 45.5745 31.5409 45.5392 31.5409Z" fill="black"/>
<path d="M47.3586 32.3583H51.4844C51.4889 32.3583 51.4932 32.3594 51.4973 32.3613C51.5013 32.3632 51.5048 32.3661 51.5076 32.3695C51.5104 32.373 51.5124 32.377 51.5135 32.3814C51.5146 32.3857 51.5147 32.3902 51.5138 32.3946L51.405 32.9725C51.4036 32.9795 51.3998 32.9858 51.3942 32.9903C51.3887 32.9948 51.3817 32.9972 51.3746 32.997L46.5113 32.998C46.5068 32.9981 46.5024 32.9972 46.4984 32.9953C46.4943 32.9935 46.4907 32.9908 46.4878 32.9874C46.4849 32.9841 46.4828 32.9801 46.4816 32.9758C46.4804 32.9715 46.4802 32.967 46.4809 32.9627L47.0673 29.6321C47.0685 29.6249 47.0722 29.6183 47.0778 29.6136C47.0834 29.6089 47.0904 29.6064 47.0977 29.6065H51.9689C51.9734 29.6064 51.9779 29.6074 51.982 29.6092C51.9862 29.6111 51.9898 29.6139 51.9927 29.6174C51.9957 29.6209 51.9978 29.625 51.9989 29.6294C52 29.6338 52.0001 29.6384 51.9993 29.6429L51.8865 30.2207C51.8851 30.2278 51.8813 30.2341 51.8757 30.2386C51.8702 30.2431 51.8632 30.2454 51.8561 30.2453H47.7097C47.7026 30.2454 47.6957 30.2481 47.6904 30.2527C47.685 30.2574 47.6814 30.2638 47.6803 30.2709L47.542 30.9685C47.5413 30.9729 47.5415 30.9774 47.5427 30.9817C47.5439 30.986 47.5461 30.99 47.549 30.9933C47.5519 30.9967 47.5555 30.9994 47.5595 31.0012C47.5636 31.003 47.568 31.004 47.5724 31.0039H51.199C51.2036 31.0038 51.2081 31.0048 51.2122 31.0066C51.2163 31.0085 51.22 31.0113 51.2229 31.0148C51.2258 31.0183 51.2279 31.0224 51.2291 31.0268C51.2302 31.0312 51.2303 31.0358 51.2294 31.0403L51.1323 31.5199C51.131 31.5267 51.1273 31.5329 51.122 31.5374C51.1166 31.5418 51.1099 31.5443 51.1029 31.5444H47.4596C47.4523 31.5443 47.4453 31.5469 47.4397 31.5515C47.4341 31.5562 47.4304 31.5628 47.4292 31.57L47.3292 32.3229C47.3285 32.3272 47.3287 32.3316 47.3298 32.3358C47.331 32.34 47.333 32.3439 47.3358 32.3473C47.3386 32.3506 47.3421 32.3534 47.346 32.3553C47.3499 32.3571 47.3542 32.3582 47.3586 32.3583Z" fill="black"/>
<defs>
<linearGradient id="paint0_linear_229_19652" x1="12.7727" y1="25.6875" x2="36.3418" y2="21.5505" gradientUnits="userSpaceOnUse">
<stop stop-color="#320000"/>
<stop offset="1" stop-color="#BD2E1A"/>
</linearGradient>
</defs>
</svg>
