<!-- by TradeStack --><svg width="56" height="56" viewBox="0 0 56 56" fill="none" xmlns="http://www.w3.org/2000/svg">
<rect width="56" height="56" fill="#F0F3FA"/>
<path d="M35 22H37.9826L39.0044 23H35V25H39.0923L39.9886 25.9741C39.9906 25.9762 39.992 25.9788 39.9925 25.9817C39.9931 25.9846 39.9928 25.9876 39.9917 25.9904C39.9906 25.9931 39.9887 25.9955 39.9863 25.9972C39.984 25.9989 39.9811 25.9999 39.9783 26H34.9655C34.947 26 34.9309 25.9931 34.9171 25.9793L34.0223 25.068C34.0074 25.0531 34 25.0347 34 25.0128C34 25.0128 34.0011 21.2488 34 19.3691C34 19.1978 34.0495 19.1052 34.1745 19.0144C34.1879 19.0048 34.2028 19 34.2191 19H39.1025C39.1221 19 39.1387 19.0071 39.1525 19.0213L40 20H35V22Z" fill="#495827"/>
<path d="M47 23.5199H41.9961L41.9961 26L41.0319 24.996C41.0113 24.9718 41 24.941 41 24.909C41 23.3704 41 21.8265 41 20.2775C41 19.7265 41.1066 19.2873 41.6273 19.0835C41.7698 19.0278 42.0109 19 42.3503 19C43.814 19.0008 45.2774 19.001 46.7407 19.0006C47.6713 19 47.9992 19.3984 47.9992 20.3132C48 22.2026 48.0002 24.0929 47.9998 25.9839C47.9997 25.9872 47.9986 25.9903 47.9967 25.993C47.9948 25.9957 47.9922 25.9977 47.9892 25.9989C47.9861 26.0001 47.9828 26.0003 47.9796 25.9996C47.9764 25.9989 47.9735 25.9972 47.9713 25.9948L47 24.9155L47 23.5199ZM47 20.0034C47 19.9993 47.0029 20.0063 47 20.0034H41.9961L41.9961 22.5699H47C47 22.5741 47.0029 22.567 47 22.5699L47 20.0034Z" fill="#495827"/>
<path d="M45.6102 29.6503C45.5961 29.6806 45.581 29.7176 45.581 29.7524C45.581 30.4611 45.581 31.0931 45.581 31.801C45.581 32.0588 45.1427 32.0466 45.0146 31.8717C45.0049 31.8581 45 31.843 45 31.8264V28.1555C45 28.1331 45.0079 28.1139 45.0238 28.0981C45.1438 27.9822 45.4437 27.9458 45.5599 28.1185L45.5599 28.9102C45.5593 28.9613 45.6382 29 45.688 29H47.1678C47.738 28.9989 47.9979 29.2468 47.999 29.8313C48.0001 30.5135 48.0003 31.1194 47.9996 31.8016C47.999 32.0787 47.4191 32.05 47.4186 31.8121C47.4179 31.0876 47.4182 30.4379 47.4186 29.7104C47.4186 29.6851 47.4087 29.6608 47.3912 29.6429C47.3736 29.625 47.3499 29.6149 47.3251 29.6149H45.6642C45.6529 29.6149 45.6418 29.6183 45.6322 29.6245C45.6227 29.6308 45.615 29.6397 45.6102 29.6503Z" fill="#80BD51"/>
<path d="M35.6771 28.6372C35.2494 28.6375 34.8223 28.6372 34.3958 28.636C34.0701 28.6354 33.9891 27.9994 34.4811 28C35.4897 28 36.4982 28 37.5064 28C37.9799 28 37.9756 28.6348 37.4863 28.6354C37.1043 28.6362 36.7225 28.637 36.3409 28.6377C36.3217 28.6377 36.3121 28.6478 36.3121 28.6679C36.311 29.6495 36.311 30.6301 36.3121 31.6098C36.3126 32.1392 35.707 32.1212 35.7119 31.6086C35.7206 30.6293 35.7193 29.6497 35.7081 28.6696C35.7081 28.648 35.6978 28.6372 35.6771 28.6372Z" fill="#80BD51"/>
<path d="M38.6366 30.8812L38.6329 31.2937C38.6329 31.3019 38.6344 31.31 38.6374 31.3176C38.6404 31.3252 38.6448 31.332 38.6504 31.3378C38.656 31.3437 38.6627 31.3483 38.67 31.3514C38.6774 31.3546 38.6852 31.3562 38.6932 31.3562C39.3953 31.3558 40.101 31.3562 40.8102 31.3573C41.0369 31.3578 41.1035 31.9988 40.7679 31.9988C40.1348 31.9999 39.5017 32.0002 38.8686 31.9999C38.2086 31.9999 38.0046 31.7544 38.0009 31.0916C37.9988 30.6413 38.0004 30.1908 38.0057 29.7401C38.012 29.1978 38.328 29 38.8042 29C39.2442 29.0004 39.6842 29.0007 40.1242 29.0011C40.6738 29.0011 40.9979 29.166 41 29.7637V30.6128C40.9995 30.7026 40.918 30.8155 40.8371 30.8177C40.1202 30.8359 39.4022 30.8412 38.6831 30.8336C38.671 30.8334 38.6592 30.8383 38.6505 30.8473C38.6418 30.8562 38.6368 30.8684 38.6366 30.8812ZM40.3652 29.6316C40.3652 29.6241 40.3623 29.6168 40.3572 29.6115C40.352 29.6062 40.345 29.6032 40.3377 29.6032H38.6615C38.6542 29.6032 38.6472 29.6062 38.642 29.6115C38.6369 29.6168 38.634 29.6241 38.634 29.6316V30.0951C38.634 30.1026 38.6369 30.1099 38.642 30.1152C38.6472 30.1206 38.6542 30.1236 38.6615 30.1236H40.3377C40.345 30.1236 40.352 30.1206 40.3572 30.1152C40.3623 30.1099 40.3652 30.1026 40.3652 30.0951V29.6316Z" fill="#80BD51"/>
<path d="M42.0044 29.6633V31.2713C42.0044 31.2939 42.0132 31.3155 42.0289 31.3314C42.0446 31.3473 42.0659 31.3563 42.0881 31.3563C42.8093 31.3566 43.5289 31.3566 44.2468 31.3563C44.4849 31.3563 44.5752 32 44.174 32C43.547 32 42.9198 32 42.2925 32C41.6787 32.0005 41.3689 31.8428 41.3667 31.1979C41.3652 30.7629 41.3649 30.3279 41.3656 29.8929C41.3667 29.2952 41.5493 29.0032 42.1582 29.0015C42.8667 28.9993 43.5753 28.9995 44.2838 29.0021C44.4724 29.0026 44.5741 29.6025 44.1941 29.6025C43.4917 29.6033 42.7817 29.6034 42.0642 29.6031C42.0243 29.6031 42.0044 29.6232 42.0044 29.6633Z" fill="#80BD51"/>
<path d="M21.4961 16.6211V11.9983C25.2679 14.2637 29.1843 16.6354 32.9978 18.928L33 23.5244L21.4961 16.6211Z" fill="#495827"/>
<path d="M21.4995 12.0026V16.6299L13.8081 21.0599C13.7867 21.0338 13.7491 21.0054 13.6952 20.9747C12.4685 20.2773 11.2415 19.5808 10.0142 18.8852L21.4995 12.0026Z" fill="#578E44"/>
<path d="M10 18.8853L13.9915 20.9578L10.0608 23.3511C10.0508 23.3571 10.04 23.3602 10.0282 23.3602H10.0021L10 18.8853Z" fill="#A1CC3A"/>
<path d="M13.9972 20.9236V25.784L10.002 23.3888V23.3604H10.028C10.0398 23.3604 10.0507 23.3574 10.0606 23.3513C10.3905 23.1474 13.9972 20.9236 13.9972 20.9236Z" fill="#578E44"/>
<path d="M21.5164 21.1407L21.502 25.6605L17.7413 27.9999C17.7376 28.0025 17.7354 28.0059 17.7347 28.0101C17.7343 28.0127 17.7339 28.0152 17.7335 28.0175L13.8472 25.6769C13.8531 25.6747 13.8577 25.6696 13.861 25.6616C13.8647 25.6533 13.8706 25.6468 13.8787 25.6423L21.5164 21.1407Z" fill="#578E44"/>
<path d="M21.5163 21.1407C25.3324 23.3834 29.1459 25.6289 32.9568 27.8772C32.9716 27.8859 32.9804 27.8995 32.9834 27.9181L29.0038 30.4573V25.8398L25.3645 27.9845L21.502 25.6605L21.5163 21.1407Z" fill="#106BB4"/>
<path d="M10.0021 23.3887L13.8033 25.6463L13.847 25.6769L17.7334 28.0174L21.5135 30.2915L21.5124 34.8374C21.5124 34.8483 21.5166 34.8574 21.5251 34.8646L21.5412 34.8777C21.5334 34.9038 21.5207 34.9114 21.503 34.9004C17.685 32.6135 13.8599 30.3201 10.0276 28.0203C10.0194 28.0155 10.0125 28.0085 10.0077 28C10.003 27.9915 10.0005 27.9818 10.0005 27.972L10.0021 23.3887Z" fill="#495827"/>
<path d="M28.9998 30.4437L21.541 34.8777L21.5249 34.8646C21.5164 34.8574 21.5122 34.8483 21.5122 34.8373L21.5133 30.2915L25.3643 27.9845L28.9998 25.8125V30.4437Z" fill="#80BD51"/>
<path d="M33.0002 27.918L33.0002 37.1097C33.0002 37.123 32.9968 37.136 32.9904 37.1474C32.984 37.1589 32.9748 37.1684 32.9636 37.175L21.4468 44V39.49C24.0174 37.9478 26.5895 36.4085 29.1631 34.872C29.1786 34.8625 29.1981 34.844 29.2217 34.8163C29.2837 34.8379 32.5712 32.8336 32.9249 32.6218C32.9284 32.6197 32.9314 32.6167 32.9335 32.6131C32.9355 32.6094 32.9367 32.6054 32.9367 32.6012C32.9368 32.5971 32.9358 32.593 32.9338 32.5894C32.9318 32.5859 32.9289 32.5829 32.9255 32.5809L29.0039 30.4535L33.0002 27.918Z" fill="#A3DAF6"/>
<path d="M29 30.437L32.9252 32.5809C32.9286 32.5829 32.9315 32.5858 32.9335 32.5894C32.9355 32.593 32.9365 32.597 32.9364 32.6012C32.9364 32.6053 32.9353 32.6094 32.9332 32.613C32.9311 32.6166 32.9281 32.6196 32.9246 32.6217L29 34.9767V30.437Z" fill="#106BB4"/>
<path d="M21.4466 39.4899V44L10.0227 37.2153C10.0076 37.2062 10 37.1926 10 37.1744V32.6603C10 32.6575 10.0008 32.6547 10.0022 32.6523C10.0036 32.6498 10.0056 32.6478 10.008 32.6463C10.0104 32.6449 10.0131 32.6441 10.0159 32.6441C10.0186 32.6441 10.0214 32.6448 10.0238 32.6462L21.4466 39.4899Z" fill="#106BB4"/>
</svg>
