<?xml version='1.0' encoding='utf-8'?>
<!-- by TradeStack -->
<svg width="56" height="56" viewBox="0 0 56 56" xmlns="http://www.w3.org/2000/svg"><path fill="#F0F3FA" d="M0 0h56v56H0z" /><path fill="#213277" d="M12 34h32v7H12z" /><path fill-rule="evenodd" d="M44 15H12v17h32V15Zm-11 8.5a5.5 5.5 0 0 1 5.5-5.5H40v2.5h-1a3 3 0 1 0 0 6h1V29h-1.5a5.5 5.5 0 0 1-5.5-5.5ZM15.77 18H19a4.8 4.8 0 0 0-.04 1.1c0 .83.52 1.42 1.13 2.1.87.98 1.91 2.15 1.91 4.52 0 1.94-1.7 3-2.54 3.28H15v-3c.26.1.97.31 1.77.31 1 0 2.23-.59 2.23-1.13 0-1.2-.87-2.05-1.75-2.91-.89-.88-1.79-1.77-1.79-3.02 0-.69.2-1.12.3-1.25ZM28 18h-3.23c-.1.13-.3.56-.3 1.25 0 1.25.9 2.14 1.78 3.02.88.86 1.75 1.72 1.75 2.9 0 .55-1.23 1.14-2.23 1.14-.8 0-1.51-.2-1.77-.31v3h4.46c.85-.29 2.54-1.34 2.54-3.28 0-2.37-1.04-3.54-1.9-4.52-.62-.68-1.14-1.27-1.14-2.1A4.8 4.8 0 0 1 28 18Z" fill="#213277" /></svg>