<!-- by TradeStack --><svg width="56" height="56" viewBox="0 0 56 56" xmlns="http://www.w3.org/2000/svg"><path fill="#181B1E" d="M0 0h56v56H0z"/><path fill-rule="evenodd" d="M28 45a17 17 0 1 0 0-34 17 17 0 0 0 0 34Zm0-1a16 16 0 1 0 0-32 16 16 0 0 0 0 32Z" fill="#899196"/><path d="M29.5 28.86c.48.3.42.25-.21.24-.97-.02-.82 0-1.43 0-.76 0-1.25-.03-1.56-.07-.84-.1-.27-.35 0-.82.3-.49.36-1.2.37-1.8.09-3.8-1.88-4.16-3.88-4.53-.57-.1-1.14-.23-1.7-.41-.45-.15-.91-.3-1.38-.3-.23 0-.54.05-.9.09-1.2.15-2.82.36-2.81-.76.54-.05.75.07.97.2.14.07.28.15.51.2-.08-.16-.16-.27-.23-.36-.12-.16-.23-.3-.28-.67.6-.01.73.31.9.68.07.18.16.38.3.55.76.03 1.36-.16 1.57-.75-.26-.69-.91-.62-1.53-.55-.58.06-1.13.11-1.3-.46a.9.9 0 0 1 .55-.13c.17 0 .33 0 .52-.14-.36-.29-.52.01-.8-.46.17-.32.31-.36.72-.28.32.06.47.2.78.28l-.08-.14c-.2-.39-.45-.86-.17-1.4.64.15.71.66.8 1.29.07.46.15.98.47 1.45.55.8 1.56 1.3 2.78 1.32a1.45 1.45 0 0 0-.38-.58c-.2-.23-.41-.45-.4-.84a.63.63 0 0 1 .3-.5c.38.15.44.41.53.8l.07.27c.05-.08.04-.05.1-.2l.17-.63c.13-.32.34-.44.67-.45.07.65-.06.95-.19 1.23-.08.2-.17.4-.19.72.82.7.75.36 1.75.69.26.09.51.27.75.44.28.2.54.4.8.4.37-1.75-.81-3.39-1.76-3.94a2.96 2.96 0 0 0-2.33-.28c-.54.2-.67.51-.78.8-.12.29-.22.54-.76.54-.02-.44.19-.59.4-.74.18-.13.36-.25.43-.53-.2-.1-.44-.1-.67-.11-.41-.01-.79-.02-.85-.61.13 0 .24.02.35.04.16.03.3.06.48.02l.19-.08c-.28-.26-.66-.29-1-.31-.44-.03-.81-.06-.8-.6.34-.25.63-.15.92-.05.11.04.22.08.34.1-.05-.25-.2-.3-.33-.4-.02-.53.05-1.21.54-.94.13.25.14.48.14.71 0 .32 0 .65.34 1.05.34.39.88.71 1.61.62-.01-.04-.1-.12-.22-.23a4.38 4.38 0 0 1-1-1.18c-.37-.75-.43-1.77.41-1.98.2.31.2.49.22.68.01.14.02.29.1.5.26.02.37-.03.5-.09.1-.04.22-.1.46-.12.02.75-.24.82-.6.91-.17.05-.36.1-.55.23.25.67 1.14 1.02 2.02 1.37.65.26 1.3.51 1.69.9l.24.27c.24.29.49.59.93.6.52-1.04 0-2.47-.62-3.21-.45-.54-1.03-.63-1.5-.7-.57-.09-1-.16-.92-.93.59-.12.91.15 1.23.42.26.22.53.44.94.45.02-.67-.41-.87-.83-1.07-.43-.2-.85-.38-.72-1.08.44-.02.66.16.89.34.15.11.3.23.52.3 0-.58.02-.99.54-1.1.03.3.02.4.01.47 0 .1 0 .11.14.51.07.2-.01.3-.11.4-.24.27-.57.65 1.01 3.04.88-.02.76-1.36.51-2.08a1.26 1.26 0 0 0-.52-.66c-.29-.22-.56-.42-.5-1.3.38.05.48.19.6.34.07.1.16.22.34.33l.1-.3c.12-.46.25-.92.83-.77.22.6 0 .87-.25 1.17-.08.1-.16.19-.23.3-.3.47-.1.93.07 1.37.06.15.12.29.16.43.44-.26 1.71-1.13 1.77-1.65-.17-.12-.4-.14-.64-.17a1.38 1.38 0 0 1-.59-.13l-.02-.47c.46-.13.75.02 1.03.17l.15.07c.07-.1.1-.23.14-.34.1-.3.2-.58.61-.59.14.61.02.8-.11 1-.07.12-.15.23-.18.43.53.1.8-.15 1.07-.42.27-.26.54-.52 1.07-.44-.02.44-.2.58-.38.72-.1.08-.2.15-.28.27l.24.06c.42.09.66.14.65.7-.57.18-.86-.05-1.13-.26-.32-.25-.63-.5-1.38-.07-2.23 1.27-3.65 6.05-2.45 7.13.24-.06.24-.07.35-.23l.06-.1c.34-.52.55-1.21.77-1.94.4-1.33.83-2.76 2.16-3.44.27-.14.49-.23.69-.32.4-.17.72-.31 1.24-.7v-.36c0-.49 0-.94.43-1.09.37.2.36.48.34 1-.43.34-.74.87-1.15 1.24l-.1.1c.33.08.88.14 1.2-.08.17-.12.31-.3.46-.5.26-.35.52-.7.97-.62v.05c.06.3.16.93-.78 1.02l.1.06c.34.23.86.57.9.91l-.07.01c-.4.05-1 .13-1.57-.7l-.35.03c-1.18.11-3.02.5-3.25 2.03.86.03 2.06-.03 2.66-.48.08-.74.13-1.14.75-1.27.06.6-.03.8-.17 1.1l-.14.34c.8.02 1.66-.22 2.04-.72.22-.3.25-.65.27-.96.03-.47.06-.86.71-.85l-.01.93c-.12.32-.19.37-.33.49l-.17.15c.07.02.16 0 .28-.05.27-.1.68-.24 1.33.04-.03.65-.44.6-.92.52-.36-.06-.76-.12-1.09.08a7.13 7.13 0 0 1-3.25.94c-1.24.13-2.22.23-2.7 1.54-.77 2.07 1.6 1.95 3 .77.53-.44.88-.93 1.2-1.37.55-.76.97-1.34 1.92-1.13.05.36-.02.57-.3.76a.9.9 0 0 1-.3.13l-.13.05-.38.18a.54.54 0 0 0-.07.05l.07.01c.43.07.89.14 1.14.42-.46.8-1.17.34-1.44.16l-.1-.05c-.53-.15-1.13.75-1.12 1.12l.37.03c.53.03 1 .06 1.17.58l-.02.05c-.1.18-.11.22-.36.33-.16.07-.39.12-.6.1-.35-.04-.45-.18-.55-.34a.76.76 0 0 0-.28-.28c-.3-.16-.43-.08-.65.05-.26.16-.64.4-1.59.44h-.1c-.87.03-1.47.05-1.9.8-.86 1.52-.54 4.87.48 5.52ZM14.18 29a3.4 3.4 0 0 1-1.04-.13c-.12-.04-.14-.06-.14-.18 0-.28.03-.58.04-.66 0-.08.02-.14.08-.14.07 0 .07.05.07.09 0 .07.03.17.07.26.16.38.58.52 1.02.52.65 0 .97-.32.97-.59 0-.25-.11-.48-.7-.81l-.34-.19c-.79-.44-1.06-.8-1.06-1.2 0-.57.66-.97 1.66-.97.47 0 .77.05.95.09.07 0 .1.02.1.06 0 .06-.03.21-.03.61 0 .11-.02.15-.07.15s-.08-.03-.08-.09c0-.04-.03-.2-.18-.34-.11-.1-.32-.25-.78-.25-.54 0-.86.22-.86.53 0 .23.17.41.76.73l.2.11c.87.47 1.18.82 1.18 1.3 0 .3-.16.65-.67.9-.36.15-.77.2-1.15.2ZM17.26 28.3v-.33c0-.21-.04-.3-.09-.41l-.68-1.15a.96.96 0 0 0-.27-.29.39.39 0 0 0-.16-.05c-.03 0-.06 0-.06-.03s.03-.04.07-.04l.5.01.4-.01c.05 0 .06.01.06.04 0 .02-.02.02-.08.04a.07.07 0 0 0-.05.07c0 .03.01.08.04.14l.66 1.18c.04-.1.53-.97.58-1.09a.53.53 0 0 0 .06-.2c0-.05-.02-.09-.08-.1-.04-.01-.07-.02-.07-.04 0-.03.01-.04.06-.04l.37.01.41-.01c.04 0 .07 0 .07.03s-.03.04-.07.04a.41.41 0 0 0-.17.05c-.09.04-.13.09-.21.2-.13.15-.67 1.08-.74 1.26-.06.14-.06.26-.06.4v.32l.01.4c0 .11.04.2.16.21l.2.02c.04 0 .05.01.05.03 0 .03-.03.04-.08.04l-.59-.01-.48.01c-.06 0-.09 0-.09-.04 0-.02.02-.03.06-.03.06 0 .1 0 .14-.02.08-.01.11-.1.12-.22l.01-.4ZM21.02 29c-.6 0-1.1-.11-1.48-.42a1.37 1.37 0 0 1-.54-1.13c0-.26.1-.7.5-1.04.32-.26.73-.41 1.37-.41.27 0 .43.02.63.04l.43.06c.04 0 .06.03.06.05l-.02.21-.01.41c0 .06-.02.1-.05.1-.04 0-.05-.04-.05-.1a.52.52 0 0 0-.17-.35c-.14-.13-.48-.23-.87-.23-.38 0-.62.08-.81.23-.32.26-.4.62-.4 1 0 .9.78 1.36 1.36 1.36.38 0 .62-.04.79-.22a.61.61 0 0 0 .14-.25c.02-.06.03-.08.06-.08s.04.03.04.06c0 .05-.05.38-.1.51-.02.07-.03.09-.1.11-.18.06-.5.09-.78.09Z" fill="#899196"/><path d="M25.39 28H24.3c-.02 0-.03 0-.04.02l-.26.56a.62.62 0 0 0-.08.23c0 .07.05.12.2.12h.07c.06 0 .07 0 .07.03s-.03.04-.08.04l-.51-.01-.58.01c-.06 0-.09 0-.09-.04 0-.02.02-.03.06-.03h.15c.22-.03.31-.16.41-.35l1.22-2.43c.06-.1.09-.15.14-.15.04 0 .07.03.12.12l1.2 2.37c.19.35.33.4.43.43l.2.01c.05 0 .07 0 .07.03s-.04.04-.22.04h-.92c-.09-.01-.15-.01-.15-.04 0-.02.02-.03.07-.03.03-.01.07-.05.04-.1l-.39-.8c0-.03-.02-.04-.04-.04Zm-.99-.2h.9c.02 0 .02-.01.02-.02l-.44-.95c0-.02 0-.04-.02-.04s-.03.02-.03.04l-.45.94c0 .02 0 .03.02.03ZM28.42 28.61l.48-2.51c.01-.07.04-.1.08-.1s.07.02.13.12l1.32 2.17 1.32-2.2c.04-.06.06-.09.1-.09.05 0 .08.04.1.12l.44 2.38c.04.25.09.36.23.4.14.03.24.03.3.03.05 0 .08 0 .08.03s-.06.04-.13.04l-.98-.02c-.11-.01-.14-.02-.14-.05 0-.01.02-.03.05-.04.03 0 .05-.06.03-.16l-.3-1.7h-.01l-1.06 1.75c-.1.18-.13.22-.18.22a30.16 30.16 0 0 1-.73-1.07l-.5-.86h-.01l-.26 1.54-.01.18c0 .07.06.1.14.12l.2.02c.05 0 .08 0 .08.03s-.04.04-.12.04l-.5-.01-.48.01c-.05 0-.09 0-.09-.04 0-.02.03-.03.08-.03l.14-.01c.14-.02.18-.17.2-.3ZM34.97 29c-1.4 0-1.97-.82-1.97-1.5 0-.65.55-1.5 2.02-1.5 1.22 0 1.98.55 1.98 1.43 0 .88-.78 1.57-2.03 1.57Zm.2-.2c.35 0 1.14-.12 1.14-1.23 0-.85-.63-1.39-1.43-1.39-.56 0-1.2.25-1.2 1.2 0 .8.56 1.43 1.5 1.43ZM37.51 27.85V26.3c-.02-.14-.06-.2-.23-.23h-.2c-.05 0-.08-.02-.08-.04 0-.03.04-.04.11-.04l.7.01.71-.01a2 2 0 0 1 .93.17c.15.08.35.28.35.54 0 .3-.16.57-.67.9.45.44.8.8 1.1 1.04.28.23.5.25.57.27h.14c.04 0 .06.02.06.04 0 .03-.04.04-.1.04h-.48c-.28 0-.4-.02-.54-.08-.22-.09-.41-.27-.7-.58-.2-.22-.43-.49-.5-.55-.02-.02-.05-.02-.09-.02l-.44-.01c-.02 0-.04 0-.04.03v.06c0 .36 0 .68.03.84.01.12.04.2.2.22l.24.02c.04 0 .06.01.06.03 0 .03-.03.04-.1.04l-.74-.01-.62.01c-.07 0-.1-.01-.1-.04 0-.02.02-.03.08-.03.07 0 .13 0 .18-.02.1-.01.13-.1.15-.22.02-.16.02-.48.02-.84Zm.6-1.6v1.21c0 .05.01.06.05.08.1.02.25.04.38.04.2 0 .27-.02.36-.07.15-.09.3-.27.3-.6 0-.56-.48-.72-.78-.72l-.26.01c-.04.01-.05.03-.05.06ZM41.4 27.85v-1.51c-.02-.14-.05-.2-.18-.23a.83.83 0 0 0-.15 0c-.05 0-.07-.02-.07-.04 0-.03.03-.04.09-.04h.32l.25.01h.99l.17-.02.06-.02c.02 0 .02.02.02.04l-.03.25c0 .04 0 .21-.02.26 0 .02 0 .04-.04.04-.02 0-.03-.02-.03-.05 0-.03 0-.1-.03-.14-.02-.08-.06-.12-.26-.15l-.56-.01c-.02 0-.03.01-.03.04v.99c0 .02 0 .04.03.04h.63c.1-.02.15-.03.2-.07.02-.03.03-.05.05-.05.02 0 .03.01.03.03l-.03.29-.02.26c0 .03 0 .08-.03.08s-.04-.02-.04-.04l-.01-.14c-.02-.08-.08-.14-.22-.15l-.57-.01c-.02 0-.02.01-.02.04V28.46c0 .27.07.33.47.33.1 0 .27 0 .38-.05.1-.05.15-.13.17-.29.01-.04.02-.06.05-.06.03 0 .03.04.03.07 0 .1-.03.36-.05.44-.03.1-.06.1-.22.1l-.68-.01-.41-.01h-.5c-.05 0-.08 0-.08-.03 0-.02.02-.03.06-.03l.15-.02c.07-.01.1-.1.11-.21.02-.17.02-.48.02-.84Z" fill="#899196"/><path fill-rule="evenodd" d="M28 44.27c8.55 0 15.55-6.75 16.07-15.27H11.93A16.19 16.19 0 0 0 28 44.27ZM23.16 29a48.65 48.65 0 0 1 .22.65l.31.98c.07.23.13.27.17.28h.08c.02 0 .03.01.03.03 0 .02-.02.02-.09.02h-.37c-.04 0-.06 0-.06-.02s.01-.02.03-.02c.01 0 .03-.03.02-.06l-.16-.54-.02-.01h-.43l-.02.02-.1.36a.61.61 0 0 0-.03.15c0 .05.01.08.07.08h.03c.03 0 .03 0 .03.02s0 .02-.03.02h-.44c-.02 0-.03 0-.03-.02s0-.02.02-.02h.06c.1-.02.13-.1.17-.23l.48-1.59c.03-.07.04-.1.06-.1Zm3.88 0c.01 0 .02.01.05.08l.53 1.42.53-1.44.04-.06c.02 0 .03.03.04.08l.18 1.56c.01.16.03.23.1.25.05.03.09.03.11.03.02 0 .03 0 .03.02s-.02.02-.05.02a8.03 8.03 0 0 1-.45-.04c0-.01 0-.02.02-.03.01 0 .02-.03.01-.1l-.12-1.12-.43 1.15c-.04.12-.05.14-.07.14-.02 0-.03-.04-.06-.1v-.02a23.95 23.95 0 0 1-.34-.88l-.1-.26-.1 1v.13c0 .04.02.07.05.08a.3.3 0 0 0 .08 0c.02 0 .03.01.03.03 0 .02-.02.02-.05.02h-.2a1.72 1.72 0 0 0-.2 0c-.01 0-.03 0-.03-.02s.01-.02.03-.02h.06c.06-.02.07-.12.08-.2l.2-1.65c0-.05.01-.07.03-.07Zm.8 11.48c.28.65.81 1.67 1.07 1.96l.04-.04.06-.1-.02-.13a4.33 4.33 0 0 1-.05-.25c.14.05.21.1.26.15.08.07.12.1.31.02a25.39 25.39 0 0 0-1.56-1.74l-.1-.38c-.12-.42-.25-.84.11-2.23.23-.95.82-.34 1.12 0 .3.35.68.72 1.02 1.05.36.33 1.72 1.5 2.48 1.53.24.35.74.94 1.16 1.02-.1-.4-.26-.5-.43-.6-.16-.08-.33-.18-.46-.56.25.04.5.1.74.18.38.1.77.22 1.19.18-.3-.27-.86-.38-1.39-.49-.26-.05-.52-.1-.73-.17-1.37.1-4.83-3.19-3.58-4.24.31-.1.74.13 1.13.34.18.1.35.2.5.25.73.28 1.5.4 2.25.52 1.18.19 2.3.36 3.1 1.13v-.04L36 37.6c0-.07.02-.14.05-.2l.02-.05c.26.1.53.24.8.38.37.2.74.4 1.1.47-.43-.64-3.22-1.44-4.5-1.81l-.2-.06-.3-.09c-1.44-.4-3.96-1.11-3.68-2.46.3-.32 1.01-.4 1.69-.47.39-.04.77-.08 1.05-.17l.25-.08c.37-.11.74-.23 1.14-.25 1.12-.07 1.99.67 2.8 1.36a21.83 21.83 0 0 0 .93.76l.23.16c.12.16.34.51.68 1.12.58 1.05.86 1.13 1.03 1.07-.37-.33-.8-.98-1.1-1.53.13-.17.11-.25.1-.33-.03-.1-.05-.2.1-.4l.07-.09c.24.01.58.04 1.05.09 1.23.13 1.45-.04 1.5-.22a8.7 8.7 0 0 1-2.66-.08l-3.49-1.94c-.04-.08-.07-.15-.07-.34.87-.56 2.46-.45 3.47-.28 1.06.18 1.6.58 1.96.86.28.21.46.34.7.23-.1-.1-.2-.14-.28-.18-.19-.1-.28-.14-.24-.54.19-.12.3-.13.41-.14.11 0 .22-.01.38-.12-.1-.03-.4-.01-.75.02-.34.02-.72.05-.96.03-.43-.04-.74-.14-1.08-.25l-.4-.13a7.45 7.45 0 0 0-3.4-.05c-.59.14-1.13.3-1.63.45-1.84.56-3 .91-3.2-1.35H26.6c-.1 1.27-.43 1.9-1.81 1.97-1 .04-1.45-.2-1.93-.45-.3-.16-.6-.31-1.03-.42a4.64 4.64 0 0 0-1.6-.05 4.9 4.9 0 0 1-1.9-.1c-.59-.17-2.84-.54-3.32-.12.26.1.72.06 1.21.02 1.03-.09 2.21-.19 2.2.87a9.77 9.77 0 0 0-1.86 1.48c-.14.22 0 .26.09.17.3-.29 1.33-1.07 1.94-1.5l.23-.09c.88-.3 2.4-.82 2.81.12-.11.13-.27.22-.42.3l-.12.07c-1.12.3-1.97 1.03-2.65 1.6-.3.26-.57.48-.8.62-.31.18-.57.2-.78.22-.23.01-.42.03-.58.22.12.07.41.05.72.02.23-.01.47-.03.64-.01a.93.93 0 0 1-.2.47c-.1.14-.2.26-.22.63.18-.12.3-.32.46-.61.2-.37.48-.87 1.08-1.54.28-.31.57-.57.98-.83l1.2-.6c1.45-.27 1.76-.32 3.17.1 1.35.4 1.8.31 2.24.22.24-.04.47-.1.82-.06.27 1.17-.65 1.28-1.92 1.42-.7.07-1.5.16-2.28.46-1.13.42-3.15 1.88-3.38 2.54.25-.17.5-.4.76-.64.18-.18.37-.36.57-.5 2.11-1.68 5.39-2.15 5.03-.47-.3 1.43-2.3 1.93-3.98 2.35-1.21.3-2.25.56-2.37 1.1.16-.08.27-.16.39-.23.17-.12.34-.24.67-.35 1.03-.36 3.28-1.01 4.3-.77.14 1.04-.48 1.4-1.03 1.72-.27.16-.52.3-.66.52.43-.07.98-.6 1.32-.92l.15-.14a7.95 7.95 0 0 0 1.9-3.07c.34-.8.58-1.42 1.07-1.5.17.4.15.71.12 1.03-.01.23-.03.46.02.75-.14.18-.16.44-.17.68l-.02.18a8.4 8.4 0 0 1-.27 1.48l-.19.79a2 2 0 0 1-1.04 1.45c-.26.17-.5.33-.63.64.32-.07.47-.22.62-.36.17-.16.33-.31.73-.33.08.32.07.57.06.77a1 1 0 0 0 .06.49l.03.06c.03.07.04.08.05.08.02 0 .04 0 .1.05l.03-.25c0-.08-.02-.17-.04-.26l-.03-.22a5.5 5.5 0 0 1 0-.9c.04-.54.17-1.03.7-.89ZM14.2 30.23v-.98c-.01-.08-.03-.12-.1-.14a.3.3 0 0 0-.07 0c-.02 0-.03-.01-.03-.03 0-.02.01-.02.04-.02h.77a.61.61 0 0 0 .11-.02c.01 0 .02 0 .02.02v.02c-.01.02-.02.06-.02.14V29.4l-.03.03-.02-.04v-.09c-.02-.04-.04-.08-.14-.09a4.8 4.8 0 0 0-.27-.01c-.01 0-.02 0-.02.02v.64c0 .02 0 .03.02.03h.3c.05 0 .08-.02.1-.04l.03-.03.01.02v.02l-.01.16V30.18c0 .02 0 .05-.03.05l-.01-.03v-.02l-.01-.07c-.01-.05-.04-.08-.11-.1h-.28v.62c0 .17.03.2.23.2.05 0 .13 0 .18-.02.05-.03.07-.09.09-.2 0-.02 0-.03.02-.03l.01.05-.02.28c-.02.06-.03.06-.1.06H14.51l-.2-.01h-.12a1.35 1.35 0 0 0-.13 0c-.03 0-.04 0-.04-.02 0-.01 0-.02.03-.02l.07-.01c.04-.01.05-.07.06-.14v-.54Zm1.35.4-.02-1.07.05.06a14.92 14.92 0 0 0 .68.91l.31.4c.02.04.05.07.07.07.01 0 .02-.03.02-.08l.02-1.6c0-.14.02-.2.08-.21h.05c.03 0 .04-.02.04-.03 0-.02-.02-.02-.05-.02H16.38c-.03 0-.05 0-.05.02 0 .01 0 .02.03.02s.07 0 .1.02c.05.02.07.07.07.22l.02 1.14h-.01l-.14-.2-.29-.38-.6-.8-.02-.03c-.02-.04-.04-.06-.06-.06-.01 0-.02.04-.02.09l-.02 1.5c0 .21 0 .29-.06.3a.27.27 0 0 1-.09.02c-.02 0-.03 0-.03.02s.02.02.05.02h.17a.74.74 0 0 1 .09 0h.19c.02 0 .04 0 .04-.02s-.01-.02-.03-.02c-.03 0-.07 0-.1-.02-.04-.02-.07-.08-.07-.28Zm2-.4V29.2h-.29c-.11.01-.16.02-.19.08a.35.35 0 0 0-.03.09c0 .02 0 .03-.02.03-.01 0-.02-.01-.02-.04a4.28 4.28 0 0 1 .07-.34h.02c.01.02.03.03.06.03l.2.01h.9l.02-.02h.03a7.19 7.19 0 0 1 .01.19v.15c0 .03 0 .04-.02.04-.01 0-.02 0-.02-.05v-.02c0-.07-.06-.14-.23-.15h-.24v1.57c.01.07.02.13.08.14h.1c.02 0 .03.02.03.03 0 .02-.01.02-.04.02h-.55c-.02 0-.03 0-.03-.02 0-.01 0-.02.03-.02l.07-.01c.04-.01.05-.07.05-.14l.01-.54Zm1.14-.44v.44l-.01.54c0 .07-.02.13-.06.14a.25.25 0 0 1-.07 0c-.02 0-.03.02-.03.03 0 .02.02.02.04.02a1.11 1.11 0 0 0 .14 0H19.07l.28.01c.07 0 .09 0 .1-.06l.03-.28c0-.03 0-.05-.02-.05-.01 0-.02.01-.02.04-.01.1-.04.16-.09.19-.05.03-.13.03-.18.03-.2 0-.23-.04-.23-.22V30.01h.28c.08.02.1.05.11.1v.07l.01.02c0 .02 0 .03.02.03s.02-.03.02-.05v-.08a7.99 7.99 0 0 0 .02-.25v-.02c0-.02 0-.02-.02-.02l-.02.02c-.02.03-.05.04-.1.05h-.31l-.01-.03v-.66l.29.01c.1.01.11.05.13.1v.08l.02.04c.02 0 .02-.02.02-.03l.01-.12a2.4 2.4 0 0 1 .02-.19v-.02l-.01-.02h-.03a.61.61 0 0 1-.09.02H18.54c-.03 0-.05 0-.05.02s.02.02.04.02a.3.3 0 0 1 .07 0c.07.03.08.07.09.15v.54Zm1.24.44v-.98c0-.08-.02-.12-.08-.14h-.08c-.02 0-.03-.01-.03-.03 0-.02.01-.02.04-.02h.54c.12 0 .25.01.36.1.05.05.13.18.13.35 0 .19-.06.36-.26.57l.07.1c.14.24.26.42.36.56.1.14.18.16.21.17h.06c.02 0 .02.02.02.03 0 .02-.01.02-.03.02h-.19c-.1 0-.16 0-.2-.04a1.14 1.14 0 0 1-.27-.37l-.1-.19a3.61 3.61 0 0 0-.1-.16c0-.02-.02-.02-.03-.02h-.17l-.02.01v.04l.01.54c0 .07.02.13.08.14h.1l.02.03c0 .02-.02.02-.04.02h-.52c-.03 0-.04 0-.04-.02 0-.01 0-.02.03-.02l.07-.01c.04-.01.05-.07.05-.14l.01-.54Zm.23-1.01v.77c0 .03 0 .04.02.04.04.02.1.03.15.03.08 0 .1-.01.14-.04.06-.06.11-.18.11-.38 0-.36-.18-.47-.3-.47l-.1.01-.02.04Zm1.51-.02v1.57c-.01.07-.02.13-.06.14a.25.25 0 0 1-.07 0c-.03 0-.03.02-.03.03 0 .02.01.02.04.02h.54c.03 0 .04 0 .04-.02 0-.01 0-.02-.03-.02l-.1-.01c-.06-.01-.07-.07-.07-.14l-.01-.54V29.2h.24c.18.01.23.08.23.15v.02c0 .04.01.05.03.05l.01-.04v-.16a7.18 7.18 0 0 0 0-.18h-.04l-.02.01-.13.01h-.97a.15.15 0 0 1-.06-.03l-.02-.01-.03.05-.04.29c0 .03 0 .04.02.04.01 0 .02-.01.02-.03l.03-.09c.03-.06.08-.07.2-.07l.28-.01Zm1.26.98h.36v-.02l-.17-.62v-.02c-.02 0-.02.01-.02.02l-.18.62v.02Zm1.26-.4v1c-.02.08-.03.12-.07.13a.25.25 0 0 1-.07 0c-.02 0-.03.02-.03.03 0 .02.02.02.04.02H24.61c.02 0 .04 0 .04-.02 0-.01-.01-.02-.03-.02l-.1-.01c-.06-.01-.07-.06-.08-.12v-1.54c0-.09.01-.13.07-.14h.06c.02 0 .03-.01.03-.03 0-.02-.02-.02-.04-.02a3.55 3.55 0 0 0-.24 0h-.25c-.04 0-.05 0-.05.02s.01.02.03.02l.07.01c.04.01.06.06.07.14v.54Zm.98-.22.02 1.06c0 .2.03.26.07.28.03.02.07.02.1.02.02 0 .03 0 .03.02s-.02.02-.04.02a3.3 3.3 0 0 1-.28 0h-.18c-.02 0-.04 0-.04-.02s.01-.02.03-.02l.09-.01c.05-.02.06-.1.06-.32l.02-1.5c0-.04 0-.08.02-.08s.03.02.06.06l.02.02c.02.03.31.45.6.81l.29.39.14.19-.01-1.14c0-.15-.02-.2-.07-.22-.03-.02-.08-.02-.1-.02-.03 0-.03 0-.03-.02s.02-.02.05-.02H26.44c.03 0 .05 0 .05.02 0 .01-.01.02-.04.02h-.06c-.05.03-.07.08-.07.22l-.02 1.6c0 .05 0 .08-.02.08-.03 0-.05-.03-.07-.06l-.32-.4-.25-.34-.43-.58-.04-.06Zm3.8.67v-.98c0-.08-.02-.12-.09-.14a.3.3 0 0 0-.07 0c-.02 0-.04-.01-.04-.03 0-.02.02-.02.05-.02h.76a.62.62 0 0 0 .1-.02h.02l.01.02v.02l-.01.14v.05l-.01.12-.02.03c-.02 0-.02-.02-.02-.04l-.01-.09c-.02-.04-.04-.08-.13-.09a4.8 4.8 0 0 0-.28-.01l-.01.02v.64l.01.03h.31c.05 0 .08-.02.1-.04l.03-.03.01.02v.02l-.02.16V30.18c0 .02 0 .05-.02.05-.01 0-.02-.01-.02-.03V30.11c-.02-.05-.04-.08-.12-.1h-.27l-.01.02V30.63c0 .17.03.2.23.2.05 0 .13 0 .18-.02.05-.03.08-.09.1-.2l.01-.03c.02 0 .02.02.02.05l-.03.28c-.01.06-.03.06-.1.06h-.34l-.2-.01h-.11a1.34 1.34 0 0 0-.14 0c-.02 0-.04 0-.04-.02 0-.01.01-.02.04-.02l.07-.01c.03-.01.04-.07.05-.14l.01-.54Zm1.35.4-.02-1.07.05.06.42.58.26.33c.13.17.24.32.32.4.02.04.04.07.06.07.02 0 .03-.03.03-.08l.02-1.6c0-.14.02-.2.07-.21h.06c.02 0 .03-.02.03-.03 0-.02-.01-.02-.04-.02H31.15c-.03 0-.05 0-.05.02 0 .01.01.02.03.02.03 0 .08 0 .1.02.05.02.07.07.07.22l.02 1.14-.15-.2-.28-.38c-.29-.36-.58-.78-.6-.8l-.03-.03c-.02-.04-.03-.06-.05-.06-.02 0-.03.04-.03.09l-.01 1.5c0 .21-.01.29-.06.3a.27.27 0 0 1-.1.02c-.01 0-.02 0-.02.02s.02.02.04.02h.18a.74.74 0 0 1 .09 0h.18c.03 0 .05 0 .05-.02s-.01-.02-.04-.02-.06 0-.1-.02c-.04-.02-.06-.08-.07-.28Zm2-.4V29.2h-.28c-.12.01-.16.02-.2.08a.34.34 0 0 0-.02.09c0 .02-.01.03-.03.03l-.01-.04a4.29 4.29 0 0 1 .06-.34h.02c.02.02.03.03.06.03l.2.01h.9l.03-.02h.03l.01.05V29.38c0 .03 0 .04-.02.04s-.02 0-.02-.05v-.02c0-.07-.06-.14-.23-.15h-.25v1.03l.01.54c0 .07.02.13.08.14h.1c.02 0 .03.02.03.03 0 .02-.02.02-.04.02h-.55c-.03 0-.04 0-.04-.02 0-.01 0-.02.03-.02l.07-.01c.04-.01.05-.07.06-.14v-.54Zm3.3.57V30.22c0-.1.01-.14.07-.15h.05c.01 0 .02-.01.02-.03 0-.02 0-.02-.03-.02h-.51c-.03 0-.04 0-.04.02s0 .02.02.02l.08.01c.06.02.08.06.08.14v.54c0 .04 0 .08-.03.1-.05.02-.12.02-.17.02-.4 0-.67-.4-.67-.95 0-.3.07-.5.18-.62a.48.48 0 0 1 .38-.15c.22 0 .38.11.43.2.06.06.07.14.07.2 0 .02 0 .04.02.04s.02-.02.02-.06l.01-.38v-.03c0-.02 0-.03-.02-.03a1 1 0 0 1-.16-.03 1.82 1.82 0 0 0-.34-.04.78.78 0 0 0-.52.16c-.18.14-.34.43-.34.83 0 .7.42.99.9.99.15 0 .34-.03.47-.11.02-.02.02-.03.02-.1Zm.54-.57v-.98c0-.08-.02-.12-.08-.14H36c-.02 0-.03-.01-.03-.03 0-.02.01-.02.04-.02h.54c.12 0 .25.01.36.1.05.05.13.18.13.35 0 .19-.06.36-.25.57l.06.1c.14.24.26.42.36.56.1.14.18.16.21.17h.06c.02 0 .02.02.02.03 0 .02-.01.02-.03.02h-.19c-.1 0-.16 0-.2-.04a1.14 1.14 0 0 1-.27-.37l-.1-.19a3.49 3.49 0 0 0-.1-.16c0-.02-.02-.02-.03-.02h-.17l-.02.01v.04l.01.54c.01.07.02.13.08.14h.1l.02.03c0 .02-.02.02-.04.02h-.52c-.03 0-.04 0-.04-.02 0-.01 0-.02.03-.02l.07-.01c.04-.01.05-.07.05-.14l.01-.54Zm.23-1.01v.77c0 .03 0 .04.02.04.04.02.1.03.15.03.08 0 .1-.01.14-.04.06-.06.11-.18.11-.38 0-.36-.18-.47-.3-.47l-.1.01-.02.04Zm1.04.79c0 .45.23.99.79.99.5 0 .8-.46.8-1.04 0-.57-.3-.94-.78-.94-.59 0-.8.56-.8.99Zm1.32.05c0 .73-.31.81-.45.81-.37 0-.6-.41-.6-.94 0-.63.26-.79.48-.79.32 0 .57.35.57.92Zm.63.1v-.91c0-.08-.02-.12-.09-.14h-.07c-.02 0-.04-.01-.04-.03 0-.02.02-.02.05-.02h.18a3.2 3.2 0 0 0 .34 0c.03 0 .04 0 .04.02s0 .02-.03.02h-.05c-.06.02-.07.06-.08.15v.89c0 .37.06.52.15.62.09.1.18.1.25.1.08 0 .19-.03.26-.13.11-.14.12-.37.12-.63V29.25c-.01-.08-.03-.12-.1-.14a.3.3 0 0 0-.06 0c-.02 0-.03-.01-.03-.03 0-.02.01-.02.04-.02H40.7c.03 0 .04 0 .04.02s0 .02-.03.02h-.06c-.05.02-.07.06-.07.15v.81c0 .28-.03.58-.19.76a.5.5 0 0 1-.4.18c-.1 0-.3 0-.44-.17-.1-.12-.17-.3-.17-.67Zm1.75-.37v.98c-.02.07-.03.13-.06.14a.25.25 0 0 1-.07 0c-.03 0-.04.02-.04.03 0 .02.02.02.04.02h.16a2.8 2.8 0 0 1 .18 0h.21c.02 0 .04 0 .04-.02 0-.01-.01-.02-.03-.02l-.1-.01c-.06-.01-.07-.07-.08-.14v-1.6h.08c.05 0 .13.01.2.1.1.12.11.29.11.37 0 .26-.15.42-.26.42-.04 0-.05 0-.05.03 0 .01 0 .02.02.02h.04c.28 0 .48-.25.48-.61a.5.5 0 0 0-.1-.3c-.03-.04-.12-.14-.36-.14h-.38a4.8 4.8 0 0 0-.22.02c0 .02 0 .02.03.02h.07c.07.03.08.07.09.15v.54Z" fill="#899196"/></svg>