<?xml version='1.0' encoding='utf-8'?>
<!-- by TradeStack -->
<svg width="56" height="56" viewBox="0 0 56 56" fill="none" xmlns="http://www.w3.org/2000/svg">
<rect width="56" height="56" fill="#1C2045" />
<path fill-rule="evenodd" clip-rule="evenodd" d="M44 28C44 19.1635 36.8365 12 28 12C19.1635 12 12 19.1635 12 28C12 36.8365 19.1635 44 28 44C36.8365 44 44 36.8365 44 28ZM41 28C41 20.8203 35.1797 15 28 15C20.8203 15 15 20.8203 15 28C15 35.1797 20.8203 41 28 41C35.1797 41 41 35.1797 41 28Z" fill="#F0F3FA" />
<path fill-rule="evenodd" clip-rule="evenodd" d="M25.7182 14C25.7182 14 20 15.9855 20 21.4721C20 26.9586 23.8489 28.4738 26.2131 30.3549C28.5773 32.236 30.9446 33.8439 30.9446 36.6133C30.9446 39.3827 29.2251 41.765 24.9149 41.4419C20.6048 41.1189 26.2131 43 26.2131 43L31.6564 41.955L31.4902 41.3309C31.4902 41.3309 36 38.6108 36 34.3783C36 30.1459 32.866 27.272 30.3368 25.7045C27.8076 24.137 24.9608 22.6364 24.9608 19.5534C24.9608 16.4705 26.5967 14.8955 29.7588 14.5261C32.921 14.1568 25.7182 14 25.7182 14Z" fill="#F0F3FA" />
</svg>