<?xml version='1.0' encoding='utf-8'?>
<!-- by TradeStack -->
<svg width="56" height="56" viewBox="0 0 56 56" xmlns="http://www.w3.org/2000/svg"><path fill="#F0F3FA" d="M0 0h56v56H0z" /><path d="M18.84 22h2.53l6.64-12 6.62 12h3.04c3.75.04 6.33 2.61 6.33 7 0 2.2-1 4.72-2.84 6.1.63 1.1 1.26 2 1.89 2.9.65.92 1.3 1.85 1.95 3H11l3.9-6.04A9.27 9.27 0 0 1 13 29c.01-3.94 2.1-6.96 5.84-7Zm5.8 0h6.71L28 15.7 24.65 22Zm13.83 12A5.7 5.7 0 0 0 42 29c0-2.17-1.85-5-3.5-5H17.9c-2.07.22-2.96 3.07-2.9 5 .06 1.84.93 4.39 2.76 5h20.71Zm-22.16 4H39.7l-1.15-2H17.49l-1.18 2Zm6.27-8.32c-.1-.04-.54-.16-1-.27-1.06-.25-2.32-.65-2.31-1.78 0-.93.81-1.46 1.8-1.6a4.4 4.4 0 0 1 1.82.16c.6.2 1.17.86 1.17 1.36l-1.25.26-.09-.24c-.16-.43-.49-.6-1.11-.6-.48 0-.77.07-.96.24-.3.26-.16.65.27.81l1 .27c1.15.28 2.32.65 2.33 1.88 0 1.15-1.06 1.74-2.27 1.82-1.63.1-2.73-.56-2.95-1.79l-.03-.19.51-.03.63-.06c.1-.02.13 0 .18.19.1.33.36.65.64.77.49.21 1.29.18 1.66-.08.48-.32.46-.89-.04-1.12Zm3.4 2.32v-6H31v1h-4v1.5h3.5v1H27V31h4v1h-5.02Zm8.32 0h1.4l2.3-6h-1.35l-1.61 4.34L33.37 26h-1.4l2.33 6Z" fill="#2F518E" /></svg>