<!-- by TradeStack --><svg viewBox="0 0 56 56" xmlns="http://www.w3.org/2000/svg"><path fill="#F0F3FA" d="M0 0h56v56H0z"/><path d="M7 25v-4h2.56v.7H7.8v.95h1.63v.7H7.8v.95h1.77v.7H7Z" fill="#072233"/><path d="M49.5 35v-4H52v.7H50.3v.95H52v.7h-1.69v.95H52v.7h-2.5ZM4.2 30v-4h2.58v.7H5v.95h1.79v.7H5v.95h1.79v.7H4.2ZM24 31.7V31h2.82v.7H25.8V35H25v-3.3h-1ZM38.2 31.7V31H41v.7h-1V35h-.8v-3.3h-1ZM13.2 35v-4h1.52c.28 0 .53.05.73.16.2.1.36.26.47.46.1.2.16.42.16.69 0 .26-.05.5-.16.68-.11.2-.27.34-.48.44-.2.1-.45.15-.74.15h-1v-.68h.87c.15 0 .28-.02.38-.06.1-.05.18-.11.23-.2.05-.1.07-.2.07-.33a.68.68 0 0 0-.07-.34.47.47 0 0 0-.23-.2.9.9 0 0 0-.39-.08H14V35h-.8Zm2.07-1.82.95 1.82h-.9l-.92-1.82h.87ZM46 35v-4h1.52c.28 0 .53.05.73.16.2.1.36.26.47.46.1.2.16.42.16.69 0 .26-.05.5-.16.68-.11.2-.27.34-.48.44-.2.1-.45.15-.74.15h-1v-.68h.87c.15 0 .28-.02.38-.06.1-.05.18-.11.23-.2.05-.1.07-.2.07-.33a.68.68 0 0 0-.07-.34.47.47 0 0 0-.23-.2.9.9 0 0 0-.39-.08h-.56V35H46Zm2.07-1.82.95 1.82h-.9l-.92-1.82h.87ZM27.53 35v-4h1.5c.3 0 .54.05.74.16.2.1.36.26.47.46.1.2.16.42.16.69 0 .26-.06.5-.17.68-.1.2-.26.34-.47.44-.2.1-.45.15-.75.15h-1v-.68h.87c.16 0 .28-.02.39-.06.1-.05.17-.11.22-.2.05-.1.08-.2.08-.33a.68.68 0 0 0-.08-.34.47.47 0 0 0-.23-.2.9.9 0 0 0-.38-.08h-.54V35h-.8Zm2.06-1.82.94 1.82h-.88l-.93-1.82h.87ZM10.2 35v-4h2.54v.7H11v.95h1.58v.7H11V35h-.8ZM25 26h1.05l1.1 2.69h.05L28.3 26h1.05v4h-.8v-2.6l-1.1 2.58h-.56l-1.09-2.6V30H25v-4ZM19.55 26v4h-.77l-1.98-2.52V30H16v-4h.8l1.98 2.52V26h.77ZM9.55 31v4h-.77L6.8 32.48V35H6v-4h.8l1.98 2.52V31h.77Z" fill="#49648C"/><path d="M17.2 21h.8v2.56c0 .29-.06.54-.19.76-.12.21-.3.38-.52.5-.23.12-.5.18-.79.18-.3 0-.56-.06-.79-.18a1.3 1.3 0 0 1-.52-.5 1.48 1.48 0 0 1-.19-.76V21h.8v2.49c0 .43.25.78.7.78.48 0 .7-.35.7-.78V21Z" fill="#072233"/><path d="M33.2 31h.8v2.56c0 .29-.06.54-.19.76-.12.21-.3.38-.52.5-.22.12-.49.18-.79.18-.3 0-.56-.06-.78-.18a1.3 1.3 0 0 1-.53-.5 1.48 1.48 0 0 1-.19-.76V31h.8v2.49c0 .43.25.78.7.78.48 0 .7-.35.7-.78V31ZM44.2 31h.8v2.56c0 .29-.06.54-.19.76-.12.21-.3.38-.52.5-.23.12-.5.18-.79.18-.3 0-.56-.06-.79-.18a1.3 1.3 0 0 1-.52-.5 1.48 1.48 0 0 1-.19-.76V31h.8v2.49c0 .43.25.78.7.78.48 0 .7-.35.7-.78V31Z" fill="#49648C"/><path d="M5.6 21c.58.01.97.3 1.1.43l-.54.6c-.05-.07-.28-.24-.61-.25-.33-.01-.56.17-.57.33 0 .16.09.44.63.55.54.1 1.09.4 1.09 1.1 0 .72-.55 1.25-1.37 1.24A2.2 2.2 0 0 1 4 24.55l.6-.63c.17.24.56.31.73.32.19 0 .56-.1.55-.4-.02-.36-.42-.44-.64-.5-.22-.06-1.14-.3-1.11-1.13.02-.82.76-1.23 1.48-1.21Z" fill="#072233"/><path d="M22.39 31c.57.01.96.3 1.09.43l-.54.6c-.05-.07-.28-.24-.61-.25-.33-.01-.56.17-.57.33 0 .16.09.44.63.55.54.1 1.09.4 1.09 1.1 0 .72-.55 1.25-1.37 1.24a2.2 2.2 0 0 1-1.33-.45l.6-.63c.17.24.56.31.73.32.19 0 .56-.1.55-.4-.02-.36-.42-.44-.64-.5-.22-.06-1.14-.3-1.11-1.13.02-.82.76-1.23 1.48-1.21Z" fill="#49648C"/><path d="M23.2 21h.8v4h-.8v-4Z" fill="#072233"/><path fill="#49648C" d="M30.2 26h.8v4h-.8zM4.2 31H5v4h-.8z"/><path d="m26.23 21-1.48 4h.9l.95-2.57.96 2.57h.88l-1.54-4h-.67Z" fill="#072233"/><path fill-rule="evenodd" d="M20.68 25c1.07 0 1.95-.9 1.95-2s-.88-2-1.95-2c-1.07 0-1.95.9-1.95 2s.88 2 1.95 2Zm0-.82c.63 0 1.15-.53 1.15-1.18 0-.65-.52-1.18-1.15-1.18-.63 0-1.15.53-1.15 1.18 0 .65.52 1.18 1.15 1.18Z" fill="#072233"/><path fill-rule="evenodd" d="M13.25 30c1.08 0 1.95-.9 1.95-2s-.87-2-1.95-2c-1.07 0-1.94.9-1.94 2s.87 2 1.94 2Zm0-.82c.64 0 1.15-.53 1.15-1.18 0-.65-.51-1.18-1.15-1.18-.63 0-1.14.53-1.14 1.18 0 .65.51 1.18 1.14 1.18ZM22.28 30c1.07 0 1.94-.9 1.94-2s-.87-2-1.94-2c-1.08 0-1.95.9-1.95 2s.87 2 1.95 2Zm0-.82c.63 0 1.14-.53 1.14-1.18 0-.65-.51-1.18-1.14-1.18-.64 0-1.15.53-1.15 1.18 0 .65.51 1.18 1.15 1.18Z" fill="#49648C"/><path d="M10.93 29.35a1.9 1.9 0 0 1-1.42.63 1.96 1.96 0 0 1-1.93-1.99c0-1.1.86-1.99 1.93-1.99.5 0 .94.19 1.28.5l-.6.56a1.1 1.1 0 0 0-.67-.23c-.63 0-1.14.52-1.14 1.16 0 .65.51 1.17 1.14 1.17.31 0 .6-.14.8-.35l.6.54ZM35.06 29.36c-.35.4-.86.64-1.42.64-1.06 0-1.93-.9-1.93-2s.87-2 1.93-2c.5 0 .94.19 1.28.5l-.6.56a1.1 1.1 0 0 0-.67-.23c-.63 0-1.13.53-1.13 1.17 0 .65.5 1.17 1.13 1.17.31 0 .6-.13.8-.35l.61.54ZM37.99 34.36c-.36.4-.86.64-1.42.64-1.07 0-1.94-.9-1.94-2s.87-2 1.94-2c.49 0 .94.19 1.28.5l-.6.56a1.1 1.1 0 0 0-.68-.23c-.62 0-1.13.53-1.13 1.17 0 .65.5 1.17 1.13 1.17.32 0 .6-.13.81-.35l.6.54ZM16.69 35l1.58-4h.71l1.63 4h-.93l-.29-.76h-1.45l-.29.76h-.96Zm1.55-1.57h.84l-.42-1.1-.42 1.1Z" fill="#49648C"/><path fill-rule="evenodd" d="M11.95 25H11.88A1.98 1.98 0 0 1 10 23c0-1.1.87-2 1.95-2 1.07 0 1.94.9 1.94 2 0 .49-.17.93-.45 1.28h.74V25h-2.23Zm1.14-2c0 .66-.5 1.18-1.14 1.18-.63 0-1.14-.52-1.14-1.17 0-.65.51-1.17 1.14-1.17.63 0 1.14.52 1.14 1.17Z" fill="#072233"/></svg>