<!-- by TradeStack --><svg width="56" height="56" viewBox="0 0 56 56" xmlns="http://www.w3.org/2000/svg"><path fill="#F0F3FA" d="M0 0h56v56H0z"/><path fill-rule="evenodd" d="M7.33 25.29c.21.16.33.38.36.67H8.8c0-.38-.1-.72-.3-1.01-.2-.3-.46-.53-.8-.7A2.65 2.65 0 0 0 6.5 24c-.44 0-.84.08-1.19.25-.35.17-.63.4-.84.7-.2.3-.3.66-.3 1.06 0 .48.15.87.45 1.17.3.3.72.51 1.25.65l.72.2c.23.07.43.14.6.22.17.07.3.17.4.29.1.11.15.26.15.44 0 .2-.06.36-.17.5-.1.15-.25.27-.45.35-.18.08-.4.12-.66.12-.24 0-.45-.04-.65-.12a1.1 1.1 0 0 1-.47-.35 1.07 1.07 0 0 1-.2-.6H4c.02.46.13.84.33 1.16.2.31.49.55.85.71.37.17.8.25 1.3.25s.94-.08 1.3-.25c.36-.17.63-.4.83-.71.19-.3.28-.65.28-1.05 0-.3-.05-.55-.15-.77a1.7 1.7 0 0 0-.43-.57 2.42 2.42 0 0 0-.6-.38c-.22-.1-.45-.18-.7-.24l-.59-.16a3.6 3.6 0 0 1-.39-.13c-.13-.04-.24-.1-.35-.18a.72.72 0 0 1-.34-.63.8.8 0 0 1 .14-.45c.09-.14.22-.24.4-.32.17-.08.37-.12.61-.12.34 0 .62.08.84.25ZM10 31v-7h3.98v1.06H11v1.9h2.77v1.07H11v1.9h3V31h-4Zm8.34-5.71c.22.16.34.38.37.67h1.1c0-.38-.1-.72-.3-1.01-.19-.3-.46-.53-.8-.7a2.65 2.65 0 0 0-1.19-.25c-.44 0-.84.08-1.2.25-.35.17-.63.4-.83.7-.2.3-.3.66-.3 1.06 0 .48.14.87.45 1.17.3.3.72.51 1.24.65l.73.2c.22.07.42.14.6.22.17.07.3.17.4.29.09.11.14.26.14.44 0 .2-.06.36-.16.5-.11.15-.26.27-.45.35-.2.08-.41.12-.66.12-.24 0-.46-.04-.66-.12a1.1 1.1 0 0 1-.46-.35 1.07 1.07 0 0 1-.21-.6h-1.14c.02.46.13.84.33 1.16.2.31.5.55.86.71.36.17.8.25 1.29.25.5 0 .94-.08 1.3-.25.36-.17.64-.4.83-.71.19-.3.29-.65.29-1.05a1.7 1.7 0 0 0-.58-1.33 2.42 2.42 0 0 0-.6-.4c-.23-.1-.46-.17-.7-.23l-.6-.16a3.6 3.6 0 0 1-.38-.13c-.13-.04-.25-.1-.36-.18a.72.72 0 0 1-.34-.63.8.8 0 0 1 .14-.45c.1-.14.22-.24.4-.32.17-.08.38-.12.62-.12.34 0 .62.08.83.25Zm9.44.67c-.06-.57-.53-.96-1.23-.96-.54 0-1.17.3-1.18.93a.71.71 0 0 0 .35.63c.1.08.23.14.36.18.13.05.26.1.4.13l.6.16c1 .24 1.92.84 1.92 1.96 0 1.37-1.24 2.01-2.47 2.01-1.32 0-2.48-.58-2.53-2h1.16c.05.72.7 1 1.36 1 .59 0 1.3-.34 1.3-1.02 0-.61-.68-.82-1.17-.95l-.74-.2a2.94 2.94 0 0 1-1.27-.65c-.31-.3-.47-.69-.47-1.17 0-1.3 1.21-2.01 2.4-2.01 1.16 0 2.32.7 2.34 1.96h-1.13ZM32.5 31c1.83 0 2.5-1.98 2.5-3.5s-.68-3.5-2.5-3.5c-1.83 0-2.5 1.97-2.5 3.5s.67 3.5 2.5 3.5Zm0-6c1.2 0 1.5 1.55 1.5 2.5s-.3 2.5-1.5 2.5c-1.21 0-1.5-1.55-1.5-2.5s.3-2.5 1.5-2.5Zm3.5 6v-7h1v6h3v1h-4Zm4.37 0h1.24l.6-2h2.24l.6 2h1.24l-2.25-7h-1.42l-2.25 7Zm3.77-3-.78-2.56h-.05L42.52 28h1.62ZM47 24v7h1v-2.56h1.4L50.67 31H52l-1.43-2.8a2.05 2.05 0 0 0 1.19-1.96c0-1.37-.96-2.24-2.3-2.24H47Zm1 3.38h1.28c.74 0 1.27-.36 1.27-1.14 0-.78-.53-1.24-1.28-1.24H48v2.38Z"/></svg>