<!-- by TradeStack --><svg width="56" height="56" viewBox="0 0 56 56" xmlns="http://www.w3.org/2000/svg"><path fill="#F0F3FA" d="M0 0h56v56H0z"/><path d="M36.53 23h2.12l-.54 3H40l-.35 2h-1.88l-.58 2.43c-.06.31.12.57.42.57h1.35l-.34 2h-1.96c-1.13 0-1.85-1-1.62-2.21l1.5-7.79Z" fill="#019E97"/><path d="M21.75 23H19.2l-.44 2h2.56l.44-2ZM21 26h-2.42L17 33h2.42L21 26Zm-7.9-3h2.32l-.59 3h1.82c.92 0 1.5.73 1.31 1.64L16.8 33h-2.31l1.03-4.7c.06-.28-.12-.5-.4-.5h-.66L13.32 33H11l2.1-10Z" fill="#004098"/><path d="M50.66 33h-3.53c-.77 0-1.26-.68-1.1-1.51L47.08 26h2.06l-.92 4.77c-.05.27.1.48.35.48h.37l1-5.25H52l-1.34 7Zm-4.76-4.72h-1.78c.14-.64-.28-.8-.65-.8s-.66.16-.72.42c-.08.38.43.8 1.12 1.1.68.31 1.72.84 1.44 2.21S44.17 33 42.61 33c-2.41 0-2.72-1.3-2.58-1.94l.13-.65h1.93c-.22.73-.06 1.03.57 1.03.64 0 .67-.15.71-.38.07-.34-.34-.68-.8-.95-.92-.46-2-.95-1.72-2.36.29-1.4 1.54-1.75 2.7-1.75 2.5 0 2.61 1.52 2.36 2.28Z" fill="#019E97"/><path d="M11.87 26.26H9.5c.19-.92-.36-1.26-.85-1.26s-.88.34-.95.72c-.11.54.55 1.14 1.44 1.57.9.44 2.26 1.2 1.87 3.16C10.62 32.4 9.47 33 7.4 33c-3.18 0-3.57-1.85-3.37-2.77l.2-.93h2.54c-.3 1.04-.1 1.47.74 1.47.83 0 .87-.22.94-.54.1-.5-.44-.98-1.05-1.36-1.2-.65-2.62-1.36-2.21-3.37.4-2.01 2.08-2.5 3.6-2.5 3.3 0 3.42 2.17 3.07 3.26ZM27 27l1.03-4-.54 4 1.03-4-.54 4 1.04-4-.54 4 1.03-4-.54 4L30 23h-2.47L27 27Z" fill="#004098"/><path d="M30.15 23H36l-.4 2h-3.48l-.48 2h2.8l-.4 2h-2.8l-.46 2h3.48l-.41 2H28l1.14-4.2 3.89-.27-4.01-.27v-.03l4.13-.27-4-.28v-.02l4.13-.27-3.78-.26.45-3.22.2-.91Zm-3.12 6-.54 4H26l1.03-4Zm-.05 4h-.49l1.03-4-.54 4ZM27.48 33l.54-4-1.04 4h.5Z" fill="#019E97"/><path d="M27.97 33h-.5l1.04-4-.54 4Z" fill="#019E97"/><path d="M27.97 33 29 29l-.54 4h-.5Z" fill="#019E97"/><path d="M25.68 26h-4.11L20 33h2.4l.95-4.26h.7l-1.2-.08 3.91-.25.02-.05-3.8-.25 3.9-.25.02-.06-3.8-.25 3.9-.25c.05-.73-.5-1.3-1.32-1.3Z" fill="#004098"/><path d="m26.65 28.92-2.36-.16-.95 4.24h2.4l.91-4.08Z" fill="#004098"/></svg>