<!-- by TradeStack --><svg width="56" height="56" viewBox="0 0 56 56" xmlns="http://www.w3.org/2000/svg"><path fill="#F0F3FA" d="M0 0h56v56H0z"/><path d="m26.7 21-4.24-8H41v20.28A31.9 31.9 0 0 1 30.02 39c1.97-1.75 1.98-3.95 1.98-3.95.04-3.23-4.01-4.64-4.01-4.64v9.33c-2.3.53-4.55.55-7.02.55-2.04 0-4.04-.19-5.97-.55V13h6.26c-.87 2.62-1.76 8 5.45 8Zm2.24-1.49c0-.61-.44-1.1-.98-1.1-.55 0-.99.49-.99 1.1 0 .61.45 1.1.99 1.1s.98-.49.98-1.1Zm-6 13.96c.56 1.66 1.13 3.37 1.03 5.54l-.03.06L27.61 30h-4.7l-.04.07c-.26.42-.68 1.12-.11 2.85l.18.55ZM29.66 21c3.34 0 4.89-2 4.89-2v-.01C36.43 16.67 37 14 37 14c-1.75.33-3.77 1.24-3.77 1.24-4.35 1.88-3.57 5.76-3.57 5.76ZM24 25.5a3.5 3.5 0 1 0 7 0 3.5 3.5 0 0 0-7 0Zm3.5 1.5a1.5 1.5 0 1 0 0-3 1.5 1.5 0 0 0 0 3Z" fill="url(#a)"/><path d="M41 33.28a31.9 31.9 0 0 1-26 6.47v2.7c1.93.36 3.93.55 5.97.55 7.57 0 14.54-2.48 20.03-6.88v-2.84Z" fill="url(#b)"/><defs><linearGradient id="a" x1="14.92" y1="26.66" x2="40.89" y2="26.66" gradientUnits="userSpaceOnUse"><stop stop-color="#4593D0"/><stop offset=".25" stop-color="#4CABE1"/><stop offset=".5" stop-color="#4593D0"/><stop offset=".75" stop-color="#0068B6"/><stop offset="1" stop-color="#003F8E"/></linearGradient><linearGradient id="b" x1="15.62" y1="38.14" x2="40.67" y2="38.14" gradientUnits="userSpaceOnUse"><stop stop-color="#D2B559"/><stop offset=".25" stop-color="#E6D19A"/><stop offset=".5" stop-color="#D2B559"/><stop offset=".75" stop-color="#86782E"/><stop offset="1" stop-color="#594C00"/></linearGradient></defs></svg>