<!-- by TradeStack --><svg viewBox="0 0 56 56" xmlns="http://www.w3.org/2000/svg"><path fill="#F0F3FA" d="M0 0h56v56H0z"/><path d="M27.35 14.61 21 19.68v1.27L27.35 16h7.15l9.5 7.51v-1.28l-9.5-7.62h-7.15Z" fill="#394AA9"/><path d="m44 32.47-9.5-7.68h-7.15L21 29.92v-1.3l6.35-5.11h7.14l9.5 7.68v-1.28l-9.5-7.67h-7.14L21 27.36v-1.29L27.35 21h7.14l9.5 7.62v-1.26l-9.5-7.68h-7.14L21 24.79v-1.28l6.35-5.24h7.14l9.5 7.8V24.8L34.5 17h-7.14L21 21.97h-9v1.54l9 7.68L27.35 26H35v1.36h-7.65L21 32.47l-9-7.66v1.26l9 7.68 6.35-5.11H35V30h-7.65L21 35.03l-9-7.67v1.28l9 7.68 6.35-5.03H35v1.18h-7.65L21 37.6l-9-7.68v1.29l9 7.68 6.35-4.92H44v-1.5Z" fill="#394AA9"/><path d="M34.5 12h-7.15L21 17.11v1.27l6.35-4.98h7.15l9.5 7.55v-1.27L34.5 12ZM21 40.17l-9-7.68v1.28l9 7.66 6.35-5.1H35V35h-7.65L21 40.17Z" fill="#394AA9"/><path d="m21 42.72-9-7.66v1.26L21 44h7.65L35 38.89V38h-7.65L21 42.72Z" fill="#394AA9"/></svg>