<?xml version='1.0' encoding='utf-8'?>
<!-- by TradeStack -->
<svg width="56" height="56" viewBox="0 0 56 56" xmlns="http://www.w3.org/2000/svg"><path fill="#F0F3FA" d="M0 0h56v56H0z" /><path d="m24.46 24-.88 3h-4.46l.88-3h-9.97C8.35 24 5 24.9 5 27c0 1.44 2.55 2 3.5 2h1.37c.38 0 1.12-.07 1.13.5.02.97-1.22 1-1.98 1H4.55L4 32h5.3c1.66 0 4.69-.84 4.7-2.92 0-1.46-2.23-2.08-3.2-2.08H9.53C9.1 27 8 27 8 26.5c0-1 1.37-1 2.05-1H17L15 32h2.58l1.15-3.5H23L22 32h2.54L27 24h-2.54ZM26 32l2.38-8H31l-2.38 8H26ZM32.14 28.1c1.2-4.03 5.94-4.1 5.97-4.1H52l-.4 1.5h-3.45L46.21 32H43.6l1.94-6.5H37.9c-1.17 0-2.4.5-2.9 2.1h6l-.4 1.4h-5.97l-.98 3H31l1.14-3.9Z" fill="#D70027" /></svg>