<?xml version='1.0' encoding='utf-8'?>
<!-- by TradeStack -->
<svg width="56" height="56" viewBox="0 0 56 56" xmlns="http://www.w3.org/2000/svg"><path fill="#F0F3FA" d="M0 0h56v56H0z" /><path d="M20 29h3v1h-4v-7h1v6ZM35 23v1h-2v6h-1v-6h-2v-1h5ZM45.62 27.83a2.5 2.5 0 1 1 0-2.66l.85-.53a3.5 3.5 0 1 0 0 3.72l-.85-.53ZM38 23v7h-1v-7h1ZM6.55 30c-.49 0-.93-.08-1.31-.24a2.22 2.22 0 0 1-.9-.66 1.65 1.65 0 0 1-.34-1h1.03c.03.33.17.6.42.82.25.22.62.32 1.1.32.46 0 .82-.1 1.08-.31.26-.22.4-.5.4-.82a.89.89 0 0 0-.24-.64 1.5 1.5 0 0 0-.58-.38 9.6 9.6 0 0 0-.94-.27 9 9 0 0 1-1.17-.35c-.29-.12-.54-.3-.75-.55-.2-.26-.3-.6-.3-1.03 0-.37.1-.7.3-.99.2-.28.49-.5.86-.66.37-.16.8-.24 1.27-.24.7 0 1.26.16 1.7.48.44.32.69.75.75 1.28H7.87c-.04-.26-.18-.5-.45-.69-.26-.2-.6-.3-1.03-.3-.4 0-.73.1-.98.29a.95.95 0 0 0-.38.8c0 .25.07.46.22.61.15.16.34.28.56.37.22.08.54.17.94.27.48.13.88.25 1.17.38.3.11.55.3.76.55.21.25.32.6.32 1.03 0 .33-.1.64-.29.94-.19.3-.47.53-.84.72-.37.18-.82.27-1.32.27ZM26.55 30c-.49 0-.93-.08-1.31-.24a2.22 2.22 0 0 1-.9-.66 1.65 1.65 0 0 1-.34-1h1.03c.03.33.17.6.42.82.25.22.62.32 1.1.32.46 0 .81-.1 1.08-.31.26-.22.4-.5.4-.82a.89.89 0 0 0-.24-.64 1.5 1.5 0 0 0-.58-.38 9.59 9.59 0 0 0-.94-.27 9 9 0 0 1-1.17-.35c-.29-.12-.54-.3-.75-.55-.2-.26-.3-.6-.3-1.03 0-.37.1-.7.3-.99.2-.28.49-.5.86-.66.37-.16.8-.24 1.27-.24.7 0 1.26.16 1.7.48.44.32.69.75.75 1.28h-1.06c-.04-.26-.18-.5-.45-.69-.26-.2-.6-.3-1.03-.3-.4 0-.73.1-.98.29a.95.95 0 0 0-.38.8c0 .25.07.46.22.61.15.16.34.28.56.37.22.08.54.17.94.27.48.13.88.25 1.17.38.3.11.55.3.76.55.21.25.32.6.32 1.03 0 .33-.1.64-.29.94-.19.3-.47.53-.84.72-.37.18-.82.27-1.32.27ZM49 24v2h3v1h-3v2h3v1h-4v-7h4v1h-3Z" fill="#1B3D6E" /><path d="M13.5 30a3.5 3.5 0 1 0-3.47-3.03 2.63 2.63 0 1 1 3 3c.15.02.31.03.47.03ZM22.1 34.18c-.1-.2-.25-.34-.43-.44-.19-.1-.4-.15-.64-.15-.26 0-.5.05-.7.17-.2.12-.37.28-.49.5-.11.21-.17.46-.17.74 0 .28.06.53.17.75.12.21.28.38.49.5.2.11.44.17.7.17.36 0 .64-.1.87-.3.22-.19.35-.45.4-.79h-1.5v-.51H23v.5A1.94 1.94 0 0 1 21.03 37 1.97 1.97 0 0 1 19 35a1.93 1.93 0 0 1 1-1.74c.32-.17.66-.26 1.03-.26.42 0 .8.1 1.13.31.33.2.57.5.72.87h-.78ZM26 37a1.95 1.95 0 0 1-2-2 1.91 1.91 0 0 1 1-1.74c.3-.17.64-.26 1-.26a2 2 0 0 1 1.74.97c.17.3.26.64.26 1.03a1.9 1.9 0 0 1-1 1.75c-.3.17-.63.25-1 .25Zm0-.56c.26 0 .49-.06.7-.17.2-.12.35-.29.47-.5.11-.23.17-.48.17-.77 0-.3-.06-.54-.17-.76a1.2 1.2 0 0 0-.48-.5c-.2-.12-.43-.18-.69-.18-.26 0-.49.06-.7.18-.2.11-.36.28-.47.5-.11.22-.17.47-.17.76 0 .29.06.54.17.76a1.27 1.27 0 0 0 1.17.68ZM30.65 36.47H32V37h-2v-4h.65v3.47ZM35.14 33c.38 0 .7.08.98.25.28.16.5.4.65.7.15.3.23.66.23 1.06 0 .41-.08.76-.23 1.06-.15.3-.37.53-.65.7-.28.15-.6.23-.98.23H34v-4h1.14Zm0 3.46c.41 0 .73-.12.94-.38.22-.25.33-.6.33-1.07 0-.46-.1-.82-.33-1.08-.21-.26-.53-.4-.94-.4h-.57v2.93h.57Z" fill="#D7AB28" /></svg>