<!-- by TradeStack --><svg width="56" height="56" viewBox="0 0 56 56" xmlns="http://www.w3.org/2000/svg"><path fill="#F0F3FA" d="M0 0h56v56H0z"/><path d="M20.37 12H12v15.41c0-.04 0-.07.03-.1l.03-.06c.05 0 .1-.02.15-.06.59-.43 1.2-.75 1.82-.96a3.86 3.86 0 0 1 1.89-.18c.24.04.4.13.59.23l.19.1c.02 0 .03.02.05.04l.02.06c.1.64.14 1.3.1 1.96 0 .09.04.2.07.3.07.24.14.48-.14.61-.3.15-.6.25-.89.3-.64.13-1.27.2-1.9.26l-.7.08c-.17.02-.36.01-.57-.01a4.3 4.3 0 0 0-.59-.04c-.05 0-.1-.01-.12-.04-.02-.03-.03-.07-.03-.12V44h9.2l-.11-.86a8.26 8.26 0 0 1-.03-2.23 4.3 4.3 0 0 1 1.79-2.86.2.2 0 0 1 .21-.03l2.8 1.1c.05.01.09.05.11.1.03.03.04.08.02.13a11.32 11.32 0 0 1-1.04 2.71c-.22.45-.98 1.94-1.2 1.94h5.15c-.07-.35-.24-.7-.4-1.05a6.2 6.2 0 0 1-.35-.83 3.52 3.52 0 0 1 .37-2.85 25.46 25.46 0 0 0 3.41-.27l.08.01.06.06c.27.57.46 1.15.56 1.74l.08.46c.11.64.23 1.28.24 1.92 0 .04 0 .1.02.17.03.25.09.64-.15.64H44V12H30.82c.06 0 .1.02.15.07.1.27.18.55.23.83.17.85.05 1.7-.36 2.47-.02.02 0 .06.04.05.55-.15 1.14-.3 1.76-.44.37-.08.74 0 1.1.08l.49.09c.34.07.7.08 1.07.09a3.6 3.6 0 0 1 1.66.3c.11.05.2.18.27.36l.29.74c.02.04.02.08 0 .12-.06.21-.18.4-.35.54a7.4 7.4 0 0 1-4.22 1.86c-.12.02-.32.07-.4.12-.36.24-.83.47-1.32.7-.84.4-1.74.83-2.21 1.4-.82.98-1.45 1.64-1.87 1.98-.53.43-1.07.8-1.63 1.13a.33.33 0 0 0-.1.1c-.27.38-.41.77-.56 1.17-.18.53-.37 1.05-.86 1.56-.16.16-.14.32.04.48 1.06.86 2 1.74 2.84 2.61.34.36.62.63.85.82.22.17.54.44.95.8.42.37.91.5 1.49.42 1-.16 1.94-.46 2.87-.77 1-.33 2.01-.65 3.1-.8a1.74 1.74 0 0 1 .46.04.05.05 0 0 0 .03-.04v-.02c-.05-.25-.77-1.67-.96-1.7-.5-.08-1.3-.17-2.4-.25a3.42 3.42 0 0 1-2.35-1.32c-.28-.46.15-1.38.4-1.92l.05-.12a.15.15 0 0 1 .09-.08c.36-.15.63-.2.8-.18.8.11 1.65.11 2.5.11a32.1 32.1 0 0 1 1.64.04c.43.01.87.03 1.28.11.37.08.64.16.83.25 1 .5 1.77 1.78 2.48 2.95.3.52.6 1.01.9 1.42.45.6.8 1.25 1.08 1.99.06.17.02.33-.01.52v.01c-.07.34-.07.65-.07 1.07v.4c-.01.34-.08.6-.2.75a.89.89 0 0 1-.42.29l-1.54.58c-.87.34-1.74.69-2.6.92-.08.02-.11.13-.05.18a14.55 14.55 0 0 1 2.65 3.4c.33.56.56 1.2.78 1.83.24.67.47 1.33.82 1.89l-.25-.06c-1.8-.4-3.62-.82-5.09-2.04a5.13 5.13 0 0 1-1.92-2.89c-.08-.33 0-.58.25-.75l1.9-1.34c.11-.08.2-.19.25-.31a.13.13 0 0 0 0-.11c-.2-.44-.38-.79-.55-1.04-.13-.18-.14-.35-.03-.52.14-.2.22-.44.25-.63a7 7 0 0 1-.16.11c-.18.12-.37.25-.51.4l-.37.44c-.64.75-1.32 1.55-2.2 1.96-.7.32-1.36.5-1.97.53-.53.02-1.66.02-3.4-.01-.4-.01-.69.04-.84.13-.43.3-.69.25-1.17.06-.15-.06-.3-.1-.46-.14a4.04 4.04 0 0 1-.47-.14c-.6-.23-1.22-.44-1.84-.64-.96-.31-1.92-.63-2.81-1.06-.23-.11-.41-.1-.54.06a13.09 13.09 0 0 1-3.49 2.66c-1.07.6-2.27 1.07-3.45 1.4.13-.35.24-.8.3-1.16.4-2 1.33-4.05 2.96-5.33a5.1 5.1 0 0 1 2.06-.87.12.12 0 0 0 .09-.14 89.49 89.49 0 0 1-.62-4.39c-.2-1.55-.4-3.1-.67-4.64a.2.2 0 0 0-.17-.17c-1.27-.24-2.48-.9-3.6-1.53l-.17-.09c-.3-.17-.9-.54-1.64-1.1V19.2c0-.02.02-.05.06-.08l.33-.05c1.11-.25 2.24-.46 3.39-.43a5.9 5.9 0 0 1 3.45 1.18c.2.14.39.36.58.64a.22.22 0 0 0 .25.09c.28-.1.54-.23.78-.4l.8-.6c.86-.65 1.72-1.3 2.66-1.83 1.19-.69 2.3-1.2 3.62-1.51.44-.1.88-.23 1.32-.36l.7-.2c-.3-.06-.51-.09-.64-.08-.47 0-1.03.07-1.7.19a.13.13 0 0 1-.15-.1 25.9 25.9 0 0 1-.67-3.54c-.02-.08.04-.13.17-.13h-6.58Zm0 0c.29 0 .56.16.82.31l.16.1A4.9 4.9 0 0 1 24 15.94c.03.2-.02.34-.13.44-.64.5-1.33 1.04-2.07 1.58a.15.15 0 0 1-.2-.02 15.06 15.06 0 0 1-1.77-2.14c-.7-1.02-1.3-2.31-1.82-3.81h2.37Z" fill="#DF0037"/></svg>