<!-- by TradeStack --><svg width="56" height="56" viewBox="0 0 56 56" xmlns="http://www.w3.org/2000/svg"><path fill="#F0F3FA" d="M0 0h56v56H0z"/><path d="M28 41.6V45c-5.77 0-10-4.47-10-9s3.08-7.43 4.8-9.13A136.2 136.2 0 0 0 28 21.2V28c-2.12 1.13-6 4.42-6 8.5s3.88 5.1 6 5.1Z" fill="#474743"/><path d="M28 41.6V45c5.77 0 10-4.47 10-9s-3.08-7.43-4.8-9.13A136.2 136.2 0 0 1 28 21.2V28c2.12 1.13 6 4.42 6 8.5s-3.88 5.1-6 5.1Z" fill="#98652C"/><path d="M28 16.67V11c-.58.76-3.44 2.81-8.08 7.37C14.15 24.03 13 28.57 13 32.53c0 3.97 3.65 7.94 5.77 9.64A14.72 14.72 0 0 1 15 32.53c0-4.53 8.58-12.46 13-15.86Z" fill="#9E6027"/><path d="M28 16.67V11c.58.76 3.44 2.81 8.08 7.37C41.85 24.03 43 28.57 43 32.53c0 3.97-3.65 7.94-5.77 9.64A14.72 14.72 0 0 0 41 32.53c0-4.53-8.58-12.46-13-15.86Z" fill="#181617"/></svg>