<!-- by TradeStack --><svg viewBox="0 0 56 56" xmlns="http://www.w3.org/2000/svg"><path fill="#D7DF20" d="M0 0h56v56H0z"/><path fill-rule="evenodd" d="M16.95 31H14.2c-.06 0-.1.03-.1.09l-1.1 6.77c-.02.05 0 .09.02.13l3.54 4.9a.28.28 0 0 0 .23.11h17.05c.04 0 .08-.02.12-.05 2.4-2.33 3.9-3.77 4.51-4.32.16-.15.26-.3.29-.47.36-2.31.95-5.94 1.76-10.88 0-.06 0-.11-.04-.16l-2.35-3.06v-.02a.04.04 0 0 1 .01-.04H41l.02-.01.01-.02.97-5.91a.23.23 0 0 0-.06-.2l-4.07-4.75a.3.3 0 0 0-.22-.1L21.85 13c-.25 0-.41.03-.5.1-.45.39-2.11 1.79-4.99 4.2a.45.45 0 0 0-.16.28l-1.72 10.65c0 .07.01.14.06.2l2.41 2.53v.01a.03.03 0 0 1 0 .03Zm6.92-11h8.74a.2.2 0 0 1 .16.07l1.67 1.88c.01.02.03.03.06.04l.06.01H39.13l.01-.02.45-3.46a.24.24 0 0 0-.05-.19l-2.74-3.25a.23.23 0 0 0-.18-.08H22.5a.5.5 0 0 0-.32.12l-3.7 3.14a.5.5 0 0 0-.18.3c-.8 5.08-1.27 8.02-1.42 8.82-.03.15.02.3.16.46l2.67 3.1c.04.04.08.06.13.06h2.2c.05 0 .08-.02.09-.07l1.72-10.9s0-.02.02-.02Zm3.61 2.04L25.43 33.9c-.01.07.02.1.09.1h2.34c.2 0 .41-.07.57-.2a.8.8 0 0 0 .3-.48l1.87-10.83a.39.39 0 0 0-.01-.18.41.41 0 0 0-.1-.16.46.46 0 0 0-.15-.11.5.5 0 0 0-.2-.04h-2.6a.05.05 0 0 0-.06.04Zm-6.08 13.9a.04.04 0 0 0 .01.04.04.04 0 0 0 .04.02h8.64c.1 0 .21-.04.3-.1.44-.39.83-.65 1.17-.89.27-.18.51-.34.74-.54a.63.63 0 0 0 .24-.4c.17-1.13.64-4.13 1.44-9 0-.05.03-.07.07-.07h1.52a.17.17 0 0 1 .13.06l2.32 2.95c.13.17.11.29.08.49l-.02.07-1.45 8.86c0 .05-.02.09-.06.12l-3.42 3.34a.37.37 0 0 1-.26.11H17.9a.17.17 0 0 1-.13-.07l-2.34-3.2a.2.2 0 0 1-.04-.15l.62-3.55.01-.02.03-.01h5.58a.08.08 0 0 1 .06.02.08.08 0 0 1 .02.07l-.3 1.86Z" fill="#231F1F"/></svg>