<?xml version='1.0' encoding='utf-8'?>
<!-- by TradeStack -->
<svg width="56" height="56" viewBox="0 0 56 56" xmlns="http://www.w3.org/2000/svg"><path fill="#F0F3FA" d="M0 0h56v56H0z" /><path d="M8 26c-.05-.58-.4-1-.96-1-.44 0-1.03.3-1.04.93 0 .81 1 .94 1.47 1.1.79.24 1.53.84 1.53 1.96C9 30.36 8 31 7.02 31c-1.05 0-1.98-.58-2.02-2h1c.04.72.48.95 1.02.95.47 0 .97-.29.98-.97 0-.56-.41-.8-.88-.95-.88-.3-2.12-.63-2.12-2.02C5 24.7 6.1 24 7.05 24c.93 0 1.93.73 1.95 2H8Z" /><path fill-rule="evenodd" d="M10 31h1.11l.64-2h2.49l.64 2H16l-2.28-7h-1.44L10 31Zm3.92-3L13 25.1l-.93 2.9h1.85Z" /><path d="M31.7 26.27c-.22-.73-.84-1.27-1.59-1.27-1.3 0-2.11 1.34-2.11 2.5 0 1.17.8 2.5 2.14 2.5.96 0 1.68-.76 1.68-1.74l.27.05H30v-.97h3v.82A2.76 2.76 0 0 1 30.13 31C28.14 31 27 29.38 27 27.5c0-1.83 1.13-3.5 3.1-3.5 1.36 0 2.63.87 2.84 2.27H31.7ZM22 24v7h-.98L18 26v5h-1v-7h.88l3.14 5v-5H22Z" /><path fill-rule="evenodd" d="M37 31c1.66 0 3-1.57 3-3.5S38.66 24 37 24s-3 1.57-3 3.5 1.34 3.5 3 3.5Zm0-1c1.1 0 2-1.12 2-2.5s-.9-2.5-2-2.5-2 1.12-2 2.5.9 2.5 2 2.5Z" /><path d="M41 31v-7h1v6h3v1h-4ZM48.06 31H46v-7h2.1c1.97 0 2.9 1.7 2.9 3.5 0 2.18-1.1 3.5-2.94 3.5ZM47 30h1c1.4 0 2-1.26 2-2.5 0-1.23-.58-2.5-1.97-2.5H47v5Z" /></svg>