<?xml version='1.0' encoding='utf-8'?>
<!-- by TradeStack -->
<svg width="56" height="56" viewBox="0 0 56 56" xmlns="http://www.w3.org/2000/svg"><path fill="#F0F3FA" d="M0 0h56v56H0z" /><path fill-rule="evenodd" d="M6.6 22h3.06l-1.55 7.77c-.12.57.4 1.06.92.86L15 28.4v1.86L7.47 32.9c-1.36.48-2.7-.79-2.43-2.29L6.6 22Zm15.38 2.5-.1.5H17.2l-.37 1.5h4.72l-.35 1.65c-4.02-.47-5.18 1.21-5.18 2.24 0 1.02.65 2.61 3.84 2.61 2.55 0 3.65-1.43 3.88-2.14.57.27 1.63 1.13 2.08 1.52l.46-2.54c-1-.63-1.85-.97-2.15-1.07l.48-2.27h2.2l.37-1.5h-2.25l.1-.5h2.27l.37-1.5h-2.32l.22-1H22.5l-.2 1h-4.6l-.37 1.5h4.65Zm-2.64 6.84c.83 0 1.4-1.08 1.57-1.63-1.74-.28-2.3.52-2.35.95 0 .23.13.68.78.68ZM33.2 24.5l-.42 2.33a2.96 2.96 0 0 0-1.76-.8c-1.42-.23-2.7 1.14-3.09 3.03-.39 1.9.09 3.59 1.6 3.89.91.19 1.92-.15 2.66-.88.24.47.73.93 1.64.93h2.23c.7 0 1.98-.36 2.3-1.95l.6-3.05h-2.54l-.36 2.4c-.09.22-.4.65-.96.65-.55 0-.55-.65-.49-.97l1.13-5.58h3.8l.4-1.5h-3.9l.19-.96h-2.59l-.17.96h-4.32l-.4 1.5h4.45Zm-2.47 6.46c.57.2 1.28-.32 1.49-1.26.21-.94.3-1.9-.7-2.18-.53-.15-1.07.51-1.28 1.45-.21.94-.08 1.8.49 2ZM36.59 27l.35-1.5h2.54l-.3 1.5h-2.6Zm9.79-5L46 24h4.7l.3-2h-4.62Zm-5.73 5.45.68-3.45h2.9c-.06.3-.22 1.36-.31 2.08-.1.73.17.98.32.92h4.74c.8 0 .91.47.86.79-.22 1.14-.7 3.57-.86 4.17-.16.6-.63.99-.84 1.04h-8.65l.52-2h5.73c.4 0 .6-.29.65-.42l.23-1.4c.09-.58-.22-.7-.38-.69h-4.77a.86.86 0 0 1-.82-1.04Z" fill="#C01733" /></svg>