<?xml version='1.0' encoding='utf-8'?>
<!-- by TradeStack -->
<svg width="56" height="56" viewBox="0 0 56 56" xmlns="http://www.w3.org/2000/svg"><path fill="#F0F3FA" d="M0 0h56v56H0z" /><path d="M28.47 10.4c-1.42.52-2.49 1.34-4.53 3.5-2.46 2.58-4.08 3.14-4.48 1.55-.16-.66.59-1.46 1.16-1.24.39.14.42-.18.05-.55-.39-.39-1.77-.31-2.31.13-2.16 1.74-.83 5.8 1.9 5.8 1.16 0 1.15.3-.06.87-2.12 1.03-4.83-.31-3.43-1.7.2-.21.16-.27-.21-.27-.6 0-1.34.92-1.52 1.9-.48 2.53 3.58 4.6 6.3 3.21.93-.47.93-.47.93.06 0 1.4-1.8 2.26-2.54 1.2-.4-.58-.48-.12-.14.8.77 2 3.63 1.93 4.48-.13.27-.64.27-.64 2.09 1.22a40.8 40.8 0 0 0 3.57 3.2c3.82 2.9 4.63 5.05 3.24 8.58-2.07 5.3-10.82 3.96-9.8-1.5.94-5.02 7.37-5.3 7.42-.3.02 1.83-1.85 3.54-2.23 2.04-.19-.77-2.76-1.72-2.76-1.02 0 .65 1.02 2.22 1.44 2.22.25 0 .95.07 1.57.14 1.07.13 1.15.1 2.26-.83 3.8-3.18-.13-9.24-5.43-8.38-7.1 1.15-7.43 11.85-.45 14.05l1.47.47c.24.07.25.16.03.42-.23.28-.17.33.39.33 1.17 0 1.82 1.31 1.04 2.1-.2.18-.57.34-.83.35-.43 0-.44.03-.1.22 1.34.78 2.97-1.55 1.94-2.78-.22-.27-.2-.33.08-.33.42 0 .81.66.81 1.34 0 .42.05.45.36.2.23-.2.32-.55.26-1.02-.08-.7-.04-.73 1.26-1.2 8.36-3.03 8.4-12.11.09-18.91-6.52-5.33-4.7-12 2.31-8.46 1.75.88 2.16.98 2.16.5 0-.18.08-.35.17-.4.54-.23.94-1.55.61-2.02a3.06 3.06 0 0 1-.33-1.44c0-3.06-4.6-5.26-8.24-3.92Z" fill="#150A0E" /></svg>