<!-- by TradeStack --><svg xmlns="http://www.w3.org/2000/svg" width="56" height="56" viewBox="0 0 56 56"><path fill="#F0F3FA" d="M0 0h56v56H0z"/><path d="m22.12 18.9-9.52 6.41-.5 2.57L35 12.12 33.5 12 22 19.9l.12-1Zm-8.9 2.97-.5 2.57 17.81-12.32-2.84.75-4.94 3.31.25-.83-9.78 6.52Zm-1.34 7.27 9.62-6.8-.12 1.11 15.46-10.7 1 .5-26.34 18.1.38-2.21ZM11 32.8l9.78-6.88 1.1.24L39.56 14.1l.75.5L13.34 33.2 11 32.81Zm3.72.52 9.75-6.67 1 .11 16.19-11.06.62.6-25.35 17.5-2.21-.48Zm3.31.83 9.78-6.76 1 .12 14.47-9.96.5.99L20.4 34.67l-2.37-.51Zm3.47.63 9.9-6.77 1 .25 12-8.25.22 1.1-20.65 14.17-2.47-.5Zm2.12 1.47 9.63-6.52-.25.98 12-7.98v.98L23.12 38.85l.5-2.6Zm-.87 3.82 9.77-6.75-.12.98 12.48-8.5-.36 1.47-22.14 15.14.37-2.34Zm-.37 3.59L32.03 37l-.13.87 11.75-8.02-1.75 2.48L21.88 46l.5-2.33Z" fill="#174E94"/></svg>