<!-- by TradeStack --><svg width="56" height="56" viewBox="0 0 56 56" xmlns="http://www.w3.org/2000/svg"><path fill="#F0F3FA" d="M0 0h56v56H0z"/><path fill-rule="evenodd" d="M42.42 37a16.99 16.99 0 0 1-31.4-10H13v-2.52h2.04a2.74 2.74 0 1 0 0-5.48h-1.46a16.99 16.99 0 0 1 28.84 0H39v8H44.97a17.25 17.25 0 0 1 0 2H39v8h3.42Zm.88-1.6c.29-.58.54-1.19.76-1.8H41v1.8h2.3Zm1.23-3.4c.1-.46.2-.93.27-1.4H41V32h3.53ZM41 20.6h2.3c.23.45.43.92.61 1.4H41v-1.4Zm0 3h3.42c.16.59.29 1.2.38 1.8H41v-1.8Zm-28-3.11V23h1.53a1.26 1.26 0 0 0 0-2.51H13ZM18 19h4.04a2.72 2.72 0 0 1 1.21 5.16c.2.2.43.5.54.9l.84 1.94h-2.05l-.88-1.95a1.21 1.21 0 0 0-.76-.6H20V27h-2v-8Zm2 4v-2.52h1.5a1.26 1.26 0 1 1 0 2.52H20Zm8-4h-2v8h2v-8Zm-2 10h2v8h-2v-8Zm-7 0h6v1.53h-2V37h-2v-6.47h-2V29Zm11-10v8h2v-4.35l1.43 2.94h1.11L36 22.65V27h2v-8h-1.9l-2.08 4.41L31.91 19H30Zm0 18v-8h1.9l2.12 4.41L36.1 29H38v8h-2v-4.35l-1.46 2.94h-1.1L32 32.65V37h-2Z" fill="#6C712F"/></svg>