<!-- by TradeStack --><svg width="56" height="56" viewBox="0 0 56 56" xmlns="http://www.w3.org/2000/svg"><path fill="#F0F3FA" d="M0 0h56v56H0z"/><path d="M31.93 22.62c-.69-.15-1.37-.36-2.02-.63a7.29 7.29 0 0 0-1.98-.15c-.18 0-.22-.31-.1-.45.78-.78 1.82-.18 2.68 0l.79.15c.26.35.73.66.62 1.1m7.94-3.97a2.33 2.33 0 0 0-1.31-1.25c-2.07-.88-3.78 1.42-5.7.08a2.87 2.87 0 0 0-3.1-.54c-.72.22-1.23-.33-1.85-.53-1.04-.38-2 .18-3.08.17-.71.12-.52.9-.9 1.26l-.3.88c-.14.35-.68.35-.7.77a1.78 1.78 0 0 1 .57 1.48c.3.5 1.21.05 1.37.72 0 .06-.03.1-.07.15a.24.24 0 0 1-.14.07c-.87-.06-1.73 0-2.58.2-.79.11-1.42.55-2.25.57-.18 0-.19-.21-.15-.32.58-.89 1.07-1.82 1.47-2.8 0-.53-.31-.98-.17-1.55-.08-.25.17-.65-.16-.67-.18.07-.18.29-.28.39h-.05c0-.5.34-.82.4-1.3 0-.06-.07-.2-.18-.13-.36.31-.31.12-.4-.27 0-.13-.17 0-.26.14-.12.2-.2.42-.28.64a2.23 2.23 0 0 0-.27 1.79c.16.32.23.67.2 1.03-.13.63-.79 1.08-1.23 1.51-.58.68-1.64 1.46-1.43 2.52a1.33 1.33 0 0 0 .9.78c1.81.45 3.81 0 5.68-.09l.25.14c.2.74-.4 1.32-.42 2.03.28.59.78 1.05 1.39 1.29l.38.78c.12.92 1.89 1.66.69 2.6-1.58.4-3.07 1.07-4.4 1.98-1.2.91-2.3 2.14-1.94 3.73.2 1.13 1.33 1.9 2.28 2.4 4.92 1.95 9.64-1.38 14.63-.1.68.16 1.33.43 1.92.78.11-1.78-1.46-3.23-2.94-3.99-.2-.84-.2-1.77-.71-2.47a4.07 4.07 0 0 0-2.61-1.65l.48.92a3.08 3.08 0 0 1-.9 3.46c-1.47 1.38-3.8 1.35-5.82 1.18-.58-.16-1.52-.1-1.57-.9 0-.2.28-.35.42-.43l4.18-.86a3.72 3.72 0 0 0 2.49-3.11c.5-2.33-1.7-3.66-1.94-5.75-.06-.67-.26-1.56.38-1.96 1.57.15 3.03.78 4.68.37.32-.15.7-.4.7-.77-.1-1.33-1.4-2.06-2.18-2.97.34-.4.96-.38 1.53-.36 1.1 0 1.85-.82 2.77-1.19a1.1 1.1 0 0 1 .98.2.73.73 0 0 1 .13.7c-.32.4-.78.68-1.29.78.14.1.3.14.48.13a2.64 2.64 0 0 0 2.2-1.18c.2-.5.2-1.06 0-1.55" fill="#023886"/><path fill-rule="evenodd" d="M40 13H16a2 2 0 0 0-2 2v26c0 1.1.9 2 2 2h24a2 2 0 0 0 2-2V15a2 2 0 0 0-2-2Zm-24-1a3 3 0 0 0-3 3v26a3 3 0 0 0 3 3h24a3 3 0 0 0 3-3V15a3 3 0 0 0-3-3H16Z" fill="#023886"/></svg>