<!-- by TradeStack --><svg width="56" height="56" viewBox="0 0 56 56" xmlns="http://www.w3.org/2000/svg"><path fill="#F0F3FA" d="M0 0h56v56H0z"/><path d="M21.66 24.36c-1.12.48-5.94 2.79-3.7 4.4.65.48 1.42.81 2.32 1.01 1.67.38 3.42.61 5.23.69 2.76.12 5.67.11 8.73-.02.05 0 .07.02.08.06l.03.19c.01.05-.01.08-.06.09a64.09 64.09 0 0 1-15.4.63 25.53 25.53 0 0 1-6.27-1.31 6.86 6.86 0 0 1-1.68-1.08c-1.16-.92-1.2-2.2-.37-3.37a10.4 10.4 0 0 1 3.24-2.85 34.7 34.7 0 0 1 5.33-2.63A85.9 85.9 0 0 1 40.88 15a.1.1 0 0 1 .05.09.1.1 0 0 1-.02.05l-3.04 4.34c-.19.26-.47.44-.78.5-5.22 1-10.69 2.34-15.43 4.37Z" fill="#00873C"/><path d="M36.67 29.89a2.55 2.55 0 0 0-1.4-.94 26.35 26.35 0 0 0-7.11-.89c-1.78-.01-3.53.04-5.23.15-.07 0-.1-.03-.08-.1l.05-.15a.21.21 0 0 1 .18-.16 59.7 59.7 0 0 1 11.52-.5c1.97.11 3.67.37 5.1.78 1.09.3 2.4.88 3 1.78 1.34 2.03-2.2 4.35-3.8 5.19a38.6 38.6 0 0 1-5.28 2.32 75.38 75.38 0 0 1-16.28 3.62v-.03a36.3 36.3 0 0 1 1.58-3.83 5.26 5.26 0 0 0 17.72-6.18.88.88 0 0 0 .03-1.06Z" fill="#D31C30"/></svg>