<?xml version='1.0' encoding='utf-8'?>
<!-- by TradeStack -->
<svg width="56" height="56" viewBox="0 0 56 56" xmlns="http://www.w3.org/2000/svg"><path fill="#F0F3FA" d="M0 0h56v56H0z" /><path fill-rule="evenodd" d="M10.26 35.55a185.33 185.33 0 0 1-4.92-4.86 6.52 6.52 0 0 1-1-1.18 3.19 3.19 0 0 1-.34-1.6c.01-.37.12-.71.32-1.02.15-.22.48-.64 1.01-1.25.5-.56 1.09-1.2 1.79-1.91 1.57-1.6 2.9-2.92 4-3.97.32-.3.7-.52 1.12-.65.26-.07.68-.1 1.25-.1L43.2 19c.37 0 .67.03.9.08.3.07.57.2.8.4a25.68 25.68 0 0 1 1.5 1.45 233.43 233.43 0 0 1 4.86 5.18c.31.38.53.85.66 1.41.11.46.1.93-.02 1.39-.1.39-.22.7-.33.92-.1.2-.3.44-.6.74a20668.31 20668.31 0 0 1-4.81 4.95c-.41.43-.73.73-.95.9a2.77 2.77 0 0 1-2 .58H13.34c-.6 0-1.04-.06-1.34-.16-.3-.12-.58-.28-.83-.49-.3-.25-.6-.52-.9-.8Zm1.07-1.66a165 165 0 0 1-4.6-4.45 3 3 0 0 1-.64-.8c-.18-.45-.1-.9.25-1.35.19-.26.37-.46.52-.62 1.31-1.29 3.08-2.98 5.29-5.07.12-.11.26-.2.4-.25.37-.13.74-.23 1.11-.28.34-.05.74-.07 1.21-.07a8713.73 8713.73 0 0 1 27.14.08c.37.02.73.09 1.09.18.52.14 1 .43 1.45.86 1.83 1.8 3.48 3.45 4.93 4.97l.24.3c.35.44.37.92.07 1.42-.13.23-.29.43-.47.6l-.49.46c-.34.31-.59.56-.76.73a182.5 182.5 0 0 1-3.35 3.34c-.25.24-.52.45-.81.64-.24.14-.5.25-.82.3-.17.03-.45.05-.85.05L13.63 35c-.34 0-.6-.02-.78-.06a1.62 1.62 0 0 1-.66-.31c-.22-.17-.5-.42-.86-.74Zm26.4-7.57v-1.06c0-.2.17-.26.34-.26h2.08c.23 0 .4-.03.49-.1.16-.1.24-.28.23-.52v-.65c0-.16-.02-.29-.04-.37a.47.47 0 0 0-.23-.27 1.02 1.02 0 0 0-.46-.07c-1.22 0-2.69 0-4.39-.02-.23 0-.39.02-.48.07-.18.1-.27.27-.27.5v8.67c0 .24.03.4.08.5.09.17.25.26.48.26h4.9a.5.5 0 0 0 .45-.25c.06-.1.09-.25.09-.46v-.77c-.02-.47-.33-.52-.7-.52H37.98c-.06 0-.12-.06-.16-.1l-.02-.03a.26.26 0 0 1-.08-.18v-1.52c0-.05.02-.1.05-.15.04-.07.08-.1.13-.12.15-.04.43-.06.85-.05h.46c.41 0 .78-.15.78-.62v-.7c0-.36-.15-.75-.58-.75h-1.37a.43.43 0 0 1-.22-.07.1.1 0 0 1-.04-.06 1.1 1.1 0 0 1-.06-.33Zm-16 2.56a.22.22 0 0 0-.15.07.24.24 0 0 0-.07.17l-.03 3.39c0 .14-.07.26-.18.36a.77.77 0 0 1-.43.13h-1.21c-.35-.03-.55-.14-.59-.32-.04-.15-.07-.4-.07-.74V23.72c0-.32.07-.51.2-.58.13-.06.29-.13.46-.14h1.12c.32 0 .53.1.61.22l.1.17c.05.2.08.4.08.6 0 1.3.01 2.06.02 2.31 0 .07.02.13.07.18.04.05.1.07.16.07h1.32c.08 0 .14-.03.2-.08a.3.3 0 0 0 .08-.22l-.01-2.12c0-.26.01-.5.05-.7.05-.26.24-.42.58-.43h1.24c.3.01.72.18.72.54v7.76c0 .61-.03 1.06-.09 1.35-.04.22-.29.35-.74.35h-.86c-.23 0-.44-.07-.63-.13-.18-.06-.26-.31-.27-.75v-2.97a.27.27 0 0 0-.08-.2.24.24 0 0 0-.18-.07h-1.41ZM42.5 23H44c.27 0 .5.25.5.55v8.9c0 .3-.23.55-.5.55h-1.5c-.27 0-.5-.25-.5-.55v-8.9c0-.3.23-.55.5-.55Zm-26.68 7.82c-.02-.17-.05-.27-.1-.32a78.68 78.68 0 0 1-2-2.35 31.88 31.88 0 0 1-1.47-1.96 1.8 1.8 0 0 1-.24-1.06c.02-.36.15-.72.37-1.07.24-.38.54-.64.92-.79.42-.16.83-.25 1.22-.24l2.33-.03c.34 0 .63.01.88.06.17.03.27.14.3.32.04.14.05.32.04.52l-.03.53a.58.58 0 0 1-.39.47c-.1.04-.29.06-.55.05l-1.94-.03c-.06 0-.1.03-.13.07-.09.13-.11.25-.08.37.02.08.1.2.21.33a125.8 125.8 0 0 1 3.12 3.67c.3.38.46.8.47 1.26.02.43-.09.87-.32 1.32-.21.4-.62.71-1.22.92-.2.07-.52.1-.95.11l-3.14.03c-.26 0-.49-.02-.7-.07a.15.15 0 0 1-.06-.04.48.48 0 0 1-.14-.3l-.02-.15c-.08-.44-.07-.8.03-1.06a.43.43 0 0 1 .27-.27c.08-.03.22-.04.43-.05h.1a91.4 91.4 0 0 1 2.11 0c.3 0 .5-.04.62-.12a.12.12 0 0 0 .06-.12Zm12-7.25c.27-.38.63-.57 1.07-.57h3.18c.22 0 .46.05.7.16.21.1.39.24.53.45.34.45.55 1.2.62 2.22.11 1.48.1 2.94-.02 4.4-.04.43-.1.83-.19 1.23-.08.39-.22.73-.43 1.01-.25.35-.54.52-.87.53h-3.68c-.3 0-.56-.1-.76-.28-.37-.34-.6-.77-.7-1.29-.1-.47-.15-.85-.18-1.12a28.58 28.58 0 0 1 0-4.58c.07-.88.31-1.6.73-2.16ZM30.49 25a.8.8 0 0 1 .66.34c.17.21.26.47.26.76a669.55 669.55 0 0 1 0 3.8c0 .29-.09.54-.26.76a.8.8 0 0 1-.66.34.8.8 0 0 1-.67-.34 1.22 1.22 0 0 1-.25-.77 733.52 733.52 0 0 1 0-3.79c0-.3.09-.55.25-.76.18-.23.4-.34.67-.34Z" fill="#344885" /></svg>