<!-- by TradeStack --><svg viewBox="0 0 56 56" xmlns="http://www.w3.org/2000/svg"><path fill="#F0F3FA" d="M0 0h56v56H0z"/><path d="M29.46 10.48a3.6 3.6 0 0 1-.26-.13l-.26-.13a2.8 2.8 0 0 0-1.18-.16c.64-.16 1.21-.02 1.7.42Z" fill="#55ABDF"/><path d="M27.76 10.06c.43-.02.82.03 1.18.16l.26.13c.09.05.17.1.26.13.34.27.57.59.7.96l.14.49.14.5c.97 2.94 2.02 5.85 3.16 8.73a187.86 187.86 0 0 0 3.7 8.67 49.64 49.64 0 0 0 2.07 3.96 59.92 59.92 0 0 0 3.21 5.06c.44.61.53 1.27.28 1.97-.21.34-.46.62-.76.83-.09.07-.28.16-.6.3a.7.7 0 0 1-.29.05c-1.5-.02-3-.02-4.49-.02a169.6 169.6 0 0 0-3.6-.07 5195.7 5195.7 0 0 1-15.4-.02c-.96-.02-1.92-.02-2.9-.02a1.8 1.8 0 0 1-1.43-.79c-.2-.27-.3-.52-.35-.76a2.4 2.4 0 0 1 .02-.98c.04-.16.2-.44.46-.83a93.04 93.04 0 0 0 2.16-3.38c1.36-2.21 2.6-4.5 3.72-6.84a367.74 367.74 0 0 0 1.57-3.37c.98-2.2 2.03-4.73 3.14-7.62l2.15-5.61c.19-.5.35-.84.5-1.01.25-.31.59-.52 1-.62Z" fill="#F3BA49"/><path d="m36.58 29.4.93 1.9a62.2 62.2 0 0 0 4.12 7.2c.09.12.18.27.27.44.21.39.32.73.32 1.04 0 .32-.14.6-.4.82-.2.16-.43.26-.68.3-.06.02-.3.02-.72.02L28.6 41c-1.69-.02-3.38-.03-5.08-.02-.04 0-.08 0-.1.03-2.26-.06-4.52-.08-6.77-.05h-.95c-.42 0-.79-.07-1.1-.2a1.16 1.16 0 0 1-.72-1.37c.04-.14.13-.32.28-.56l1.87-2.99c.83-1.34 1.6-2.69 2.32-4.04.77-1.46 1.48-2.9 2.14-4.29 1.55-3.31 2.99-6.67 4.3-10.07a679.6 679.6 0 0 0 2.06-5.36c.12-.3.22-.52.3-.65.1-.16.25-.32.45-.48.22-.18.47-.26.75-.25.27 0 .52.1.74.29.1.08.21.24.32.47.16.38.28.66.34.85.33 1.02.63 1.91.9 2.68l.5 1.35c.65 1.63 1.28 3.25 1.9 4.85a166.98 166.98 0 0 0 3.54 8.21Z" fill="#F0F3FA"/><path d="M29.26 11.67a3.2 3.2 0 0 0-.56-.6.87.87 0 0 0-.46-.15c.18-.03.3-.03.37-.01.28.1.5.28.63.55.03.06.04.13.02.2Z" fill="#55ABDF"/><path d="M28.24 10.92c.21.02.37.07.46.14.17.13.36.33.56.6.2.37.35.76.47 1.18a138.34 138.34 0 0 0 1.86 5.25c1.37 3.57 2.75 6.96 4.16 10.2.44 1 .92 2 1.43 3 .48.92 1 1.92 1.6 3 .72 1.33 1.67 2.9 2.86 4.71a1.62 1.62 0 0 1-.45-.26 25.6 25.6 0 0 1-.64-.5l-1.64-1.27a343.02 343.02 0 0 1-6.84-5.36c.03-.26.02-.47-.03-.64a2.73 2.73 0 0 0-.42-.84c-.1-.23-.23-.47-.35-.7a2.2 2.2 0 0 1-.26-.58 2.15 2.15 0 0 1 .03-1 5748.32 5748.32 0 0 0 .08-4.61c0-.49 0-1.38-.03-2.7a1.94 1.94 0 0 0-.61-1.4l-.18.03a.09.09 0 0 0-.06.04.58.58 0 0 0-.1.22 3.64 3.64 0 0 1-.16.5c-.03.07-.06.1-.08.1-.07 0-.1-.03-.1-.1l-.04-1.43a4.98 4.98 0 0 0-.44-1.89 8.76 8.76 0 0 0-.99-1.64c-.01-.02-.03-.02-.06-.01a14.8 14.8 0 0 0-.72 1.13 6.9 6.9 0 0 0-.8 2.91l-.02.9c-.03.04-.07.03-.11 0a.34.34 0 0 1-.1-.16 2.6 2.6 0 0 0-.14-.4c-.04-.07-.11-.12-.22-.14-.11-.02-.2.03-.27.14a2.2 2.2 0 0 0-.4 1.16c-.06.32-.1.64-.1.98-.03 2.47-.03 4.99-.02 7.55l-.08.24-.04.05c-.27.2-.47.45-.6.76-.1.12-.16.23-.21.33-.06.12-.14.33-.26.64l-.35.75a.69.69 0 0 1-.16.2l-.72.5-5.34 3.98-2.1 1.55c-.34.27-.7.52-1.1.74a81.64 81.64 0 0 0 5.97-10.45 151.74 151.74 0 0 0 4.58-10.5 1253.19 1253.19 0 0 0 2.39-6.08v.05c.1-.3.26-.53.49-.7a.9.9 0 0 1 .4-.17Z" fill="#011379"/><path d="M29.98 19.93c-.07.47-.1 1-.12 1.63-.05 2.4-.06 4.03-.03 4.9.01.22.05.43.11.63.17.52.38 1 .64 1.47.05.1.08.09.09-.01.02-.42.03-.89.03-1.42l.03-5.18c0-.41 0-.83-.03-1.24 0-.23-.04-.5-.1-.78l-.12-.78c.4.38.6.85.61 1.4.03 1.3.04 2.2.03 2.7l-.05 4.15c0 .17-.01.32-.03.46l-.07.4c-.01.2 0 .4.04.6.03.14.12.34.26.58l.35.7c-.29-.31-.53-.59-.72-.83a5.7 5.7 0 0 1-.8-1.38 14.66 14.66 0 0 1-.89-3.1h-.03c-.03.03-.04.06-.04.12a367.2 367.2 0 0 0-.03 5.5c0 .15.03.28.07.42a6.16 6.16 0 0 1 .32 1.38l.02.03-.06.06c-.03.17-.04.34-.03.53a.1.1 0 0 1-.03.08.11.11 0 0 1-.08.04l-.4.01a.2.2 0 0 0 .06-.14c0-.63-.07-1.25-.22-1.85a2.24 2.24 0 0 1-.07-.53c0-3.45 0-5.68.02-6.68 0-.27-.11-.45-.36-.54a.41.41 0 0 0-.47.1l-.16.21c-.1.16-.17.14-.19-.04 0-.04.02-.1.07-.19.19-.33.52-.46 1-.4.05 0 .06-.01.06-.05a7.6 7.6 0 0 0-.33-1.38.44.44 0 0 0-.08-.16.08.08 0 0 0-.07-.02.08.08 0 0 0-.06.04 5.77 5.77 0 0 0-.7 2.86 169.06 169.06 0 0 1-.07 5.34c0 .42 0 .72-.02.92-.01.18-.05.37-.1.54-.1.27-.14.44-.15.52-.04.28-.09.55-.16.82.02-.07-.03-.11-.13-.11-.05 0-.07.02-.08.06l-.02.6c0 .14.03.29.1.43l.24.56-.01.03-.32.04c-.04 0-.06.03-.04.07l.1.37c.01.03 0 .05-.03.05l-.42.04-.06-.52c0-.03 0-.05.03-.05l.18-.03c.1-.02.12-.07.1-.15a7.48 7.48 0 0 0-.1-.23c-.1-.27-.15-.48-.15-.63l-.01-.58c0-.08-.04-.13-.13-.14a3.35 3.35 0 0 0-.92 0 .59.59 0 0 1 .02-.3c.52.07 1.01.19 1.5.36h.05a.07.07 0 0 0 .04-.06c.06-.5.16-.99.3-1.44.02-.07.04-.17.04-.3v-.9l.03-2.1c.02-.82.03-1.6.02-2.35 0-.1-.02-.1-.06-.01a18.3 18.3 0 0 1-.55 1.9 7.72 7.72 0 0 1-2 3.1c.14-.3.34-.56.6-.76a.12.12 0 0 0 .05-.05l.08-.24c.37-.46.67-.95.88-1.48a.6.6 0 0 0 .05-.2c.03-1.86.04-3.96.04-6.32 0-.57-.06-1.18-.18-1.83.1.02.18.07.22.15.06.12.1.25.15.39.02.06.05.1.09.15.04.04.08.05.11 0 .03.14.05.25.05.34a577.25 577.25 0 0 0-.01 5.61.23.23 0 0 0 .07-.12c.2-.73.34-1.47.44-2.2a5.19 5.19 0 0 1 .66-2.14c.14-.23.28-.28.44-.13.1.1.2.26.29.5.14.36.26.77.37 1.22a27.75 27.75 0 0 1 .25 1.4h.03v-.01c.06-2.03.08-3.7.06-5.02a8.15 8.15 0 0 0-.77-3.4 6.4 6.4 0 0 1-.33-.83c-.01-.05-.05-.06-.1-.02.02-.07.05-.11.1-.13.02-.01.04-.01.05.01.44.59.77 1.14 1 1.64.27.62.41 1.25.43 1.9l.03 1.42c0 .07.04.1.1.1.03 0 .06-.03.1-.1ZM25.89 19.34l-.4 1.16c.02-.43.16-.81.4-1.16Z" fill="#A6A7AC"/><path d="m28.84 33.05.07.36c.01.05 0 .07-.05.07l-.4.02c.05-.04.06-.09.02-.15-.02-.04-.06-.05-.1-.03a.07.07 0 0 0-.03.05c-.02.08 0 .13.07.14-.05.02-.09.05-.1.09l-.09.48c-.02.14-.07.15-.14.03a.18.18 0 0 1-.03-.1.58.58 0 0 0 .07-.31 150.82 150.82 0 0 1-.03-2.59c-.02-.02-.03-.01-.03.01-.08.38-.12.63-.12.77 0 .29.03.7.1 1.26.02.13 0 .27-.08.41a.19.19 0 0 1-.06-.04c.03-.15 0-.26-.12-.33-.04-.02-.04-.04-.01-.07.06-.05.08-.1.08-.17 0 0 0-.2-.03-.58a3.84 3.84 0 0 1 .24-1.61c0-.02.02-.03.04-.03.03 0 .04 0 .05.02.26.5.36 1.04.3 1.6l-.04.59c0 .09.03.13.12.12h.3Z" fill="#A6A7AC"/><path d="m24.18 31.05.02.5c0 .05.02.08.06.09l1.01.24c-.03.1-.04.2-.02.3-.03.27-.05.55-.06.83 0 .2-.03.34-.07.45l-.16.43c0 .03 0 .05.04.05h.27c.03 0 .04.02.04.05l-.1.49c-.01.03 0 .04.03.05.35.04.71.04 1.07-.02l.42-.04c.03 0 .04-.02.03-.05l-.1-.37c-.02-.04 0-.06.04-.07l.32-.04a181.43 181.43 0 0 1-.23-.58c-.07-.15-.1-.3-.1-.45l.02-.59c0-.04.03-.06.08-.06.1 0 .15.04.13.11l.03.51c0 .04.02.05.05.06.14.02.25.04.34.08.1.03.13.1.1.19l-.05.26c0 .04 0 .05.04.05h.48l.06.04c0 .15.03.3.1.44-.01.04 0 .07.02.11.07.12.12.1.14-.03a13 13 0 0 1 .1-.48c0-.04.04-.07.1-.09h.03l.4-.03c.04 0 .06-.02.05-.07l-.07-.36.08-.05.4-.01c.03 0 .06-.01.08-.04a.1.1 0 0 0 .03-.08c0-.19 0-.36.03-.53l.06-.06h.08c.03.02.05.04.06.07-.05.01-.07.05-.06.11.05.35 0 .65-.13.91a9.88 9.88 0 0 0-.23.58l.36.08c.02 0 .03.02.03.05l-.09.4c0 .04.01.06.05.06h1.02l.42-.01c.04 0 .06-.02.05-.07l-.1-.35v-.06a.07.07 0 0 1 .07-.03h.3s.02 0 .03-.02a.05.05 0 0 0 0-.05l-.29-.7a.45.45 0 0 1-.03-.18V31.9l.82-.19c.1-.02.16-.06.2-.1 2.24 1.8 4.52 3.6 6.83 5.36l-.84-.03c-.38-.03-.66-.05-.84-.05l-4.26-.09c-1.85-.02-3.4-.06-4.66-.1a331 331 0 0 0-5.91-.12l-3.2-.06-.74.02c-.28 0-.57-.02-.85-.06l5.34-3.98c.3-.07.54-.24.72-.5a.69.69 0 0 0 .16-.2l.35-.75Z" fill="#217DC9"/><path d="M28.06 34c-.06-.14-.09-.29-.09-.44.07-.14.1-.28.08-.41-.07-.55-.1-.97-.1-1.26 0-.14.04-.4.12-.77 0-.02.01-.03.03 0l.01.03c0 .85 0 1.7.02 2.55 0 .13-.02.23-.07.3Z" fill="#F0F3FA"/><path d="m31.07 31.9-.01 1.17c0 .07.01.13.03.18l.3.7V34l-.05.02h-.3a.07.07 0 0 0-.05.03.07.07 0 0 0-.01.06l.1.35c0 .05 0 .07-.05.07l-.42.02a.98.98 0 0 0-.06-.5l.01-.05a.05.05 0 0 1 .05-.03h.22c.03 0 .05-.01.07-.03a.08.08 0 0 0 .01-.08 17.2 17.2 0 0 0-.08-.23c-.12-.3-.17-.54-.17-.7l-.02-.53c0-.06-.03-.1-.09-.1a1.78 1.78 0 0 0-.89.05.17.17 0 0 0-.06-.07 7.7 7.7 0 0 1 1.47-.38Z" fill="#A6A7AC"/><path d="m28.46 33.5-.04.01c-.06-.01-.09-.06-.07-.14 0-.02.01-.04.04-.05.03-.02.07 0 .1.03.03.06.02.11-.03.15Z" fill="#F0F3FA"/><path d="M17.6 36.48c.3.04.58.06.86.06l.74-.02 3.2.06c3.1.04 5.07.08 5.91.11 1.26.05 2.81.09 4.66.11l4.26.09c.18 0 .46.02.84.05l.84.03 1.64 1.28c-.2.06-.36.1-.48.1a15.6 15.6 0 0 1-2.74-.16 1 1 0 0 1 0-.43c.01-.05 0-.07-.06-.05l-.05.03a.43.43 0 0 1-.17.04c-.61.02-1.23.02-1.85 0-.03 0-.03.01-.02.04.06.1.08.2.07.33-.71-.04-1.42-.04-2.11 0-.04-.15 0-.25.08-.31.05-.03.05-.05-.01-.05h-.65c-.02 0-.02 0-.03.02l.01.03c.04.02.07.06.1.12l-.57.1.01-.32c0-.03-.01-.04-.04-.03l-.13.05a43.42 43.42 0 0 1-1.82.02.36.36 0 0 1-.15-.04.78.78 0 0 0-.06-.03c-.02-.01-.04 0-.04.03l.01.24h-.34l.02-.25c0-.03-.02-.04-.04-.02h-.02a.5.5 0 0 1-.2.07h-1.75a.3.3 0 0 1-.12-.04.49.49 0 0 0-.07-.02c-.02 0-.04 0-.05.02a.1.1 0 0 0 0 .06h-.48l-.62.02-1.14-.02h-.62c-.06-.01-.06.01 0 .06l.08.06c.01.02.02.03.01.04v.43c-.28.1-.58.15-.87.12l.07-.69c0-.02-.01-.03-.03-.03h-.58c-.04 0-.05.02-.02.05l.08.08V38.63c0 .02 0 .03-.03.03h-1.26c-.04 0-.05-.01-.05-.05v-.6l.02-.07.05-.1c.01-.03 0-.05-.03-.05h-.56c-.02 0-.03.01-.02.03l.07.2h-.82c-.48-.2-.94-.28-1.38-.24-.4.03-.66.23-.77.6-.56-.02-1.25-.06-2.07-.12a1.9 1.9 0 0 1-.8-.23l2.1-1.55Z" fill="#449CD8"/><path d="m26.18 37.82.1.1.03.06v1.28c0 .07-.04.14-.1.2-.15.14-.42.18-.83.13-.23-.03-.36-.16-.39-.39-.03-.32-.02-.79.05-1.4l1.14.02Z" fill="#55ABDF"/><path d="M27.28 37.8c.02.13.02.27 0 .42l.01.03h.05a.47.47 0 0 1 .17-.06h.6c.04 0 .06.03.06.07v1.34c.01.12-.01.24-.07.36-.01.02 0 .03.02.03h.62c.02 0 .03-.01 0-.03l-.06-.06a.1.1 0 0 1-.04-.08v-1.59c0-.02.02-.03.04-.03l.55-.01c.09 0 .17.03.25.07.02.02.04.01.04-.02v-.26h.33V38.27h.04a.37.37 0 0 1 .18-.08h.61c.03 0 .04.02.04.04v1.58c0 .03 0 .05-.02.07l-.05.07c-.02.02-.01.04.02.04h.6c.03 0 .04-.02.01-.04a.26.26 0 0 1-.07-.19v-1.53c0-.03 0-.04.03-.04h.62l.05.01.13.06c.03.02.04 0 .04-.02v-.17l.56-.11v1.87c0 .02-.01.05-.03.06l-.07.04c-.07.04-.06.06.02.06h1.84a1.15 1.15 0 0 1 .3.05c.04.01.06 0 .05-.04a1.59 1.59 0 0 1 0-.47c0-.03 0-.04-.04-.03l-.06.03a.53.53 0 0 1-.22.06h-1.27c-.02 0-.02-.01-.02-.03v-1.4c.7-.05 1.4-.05 2.11-.01v1.64c0 .02 0 .04-.02.07l-.05.08c-.02.03-.02.04.02.04H37c.11 0 .21.03.31.07.03 0 .04 0 .04-.03v-.5c0-.03-.01-.04-.03-.03-.12.07-.2.1-.23.1h-1.33c-.02 0-.03-.01-.03-.04v-.47c0-.03.01-.05.04-.05h.8l.07.02.07.06c.06.11.1.1.1-.03v-.5c0-.05-.03-.06-.06-.02-.07.06-.13.1-.2.1h-.76c-.04 0-.06-.02-.06-.07v-.37c0-.05.02-.07.06-.07l1.2.01.16.03c.1.04.17.04.18 0 .9.14 1.82.19 2.74.16.12 0 .28-.04.48-.1l.64.5c.18.13.33.22.45.25.1.15.17.31.23.49.1.27.1.52.03.76a.97.97 0 0 1-.5.57c-.1.05-.26.08-.49.08a954.58 954.58 0 0 1-10.24-.1 3789.56 3789.56 0 0 0-13.31-.05c-.34 0-1.04 0-2.11-.04-.27-.01-.47-.04-.58-.1a1.1 1.1 0 0 1-.49-.43.99.99 0 0 1-.13-.64c.02-.25.15-.5.37-.77.38-.22.75-.47 1.09-.74.24.13.51.21.8.23.82.06 1.5.1 2.07.11-.02.26.06.44.25.56.1.06.25.1.43.12l.69.07c.16.01.26.05.31.12a.1.1 0 0 1 .03.07c0 .1-.07.18-.2.23-.35.11-.7.1-1.06-.06a.37.37 0 0 1-.18-.16.05.05 0 0 0-.04-.03.05.05 0 0 0-.05.03l-.2.44v.03c.02.01.03.02.04.01.07 0 .12 0 .17.02.31.13.6.18.87.17.78-.03 1.16-.28 1.12-.76-.01-.23-.15-.4-.41-.49a2.87 2.87 0 0 0-.85-.11.76.76 0 0 1-.37-.1.15.15 0 0 1-.07-.14c0-.05.02-.1.07-.13.14-.1.32-.14.54-.12.2 0 .38.06.55.14.04.02.09.06.13.12l.08.08c.02.02.03.02.05 0l.25-.47h.82a89.6 89.6 0 0 1-.03 1.85.2.2 0 0 1-.04.06c-.05.04-.04.06.03.07h.57c.04 0 .04-.01.02-.04l-.06-.08a.12.12 0 0 1-.02-.07v-.7c0-.02.02-.04.04-.04h1.28c.02 0 .03.01.03.04v.72c0 .03-.01.05-.04.07l-.05.04c-.05.04-.04.06.02.06h.6c.04 0 .05-.01.01-.04l-.04-.08a103.66 103.66 0 0 1-.03-1.36c.3.03.59-.01.87-.12v.59c0 .29.03.48.07.59.13.3.5.44 1.12.42.28 0 .48-.03.61-.08.2-.07.33-.2.4-.39.03-.1.05-.29.04-.56 0-.4.01-.78.05-1.16h.48ZM42.86 40.82c-.24.6-.69.98-1.35 1.13.3-.14.5-.23.59-.3.3-.21.55-.5.76-.83Z" fill="#55ABDF"/></svg>