<?xml version='1.0' encoding='utf-8'?>
<!-- by TradeStack -->
<svg width="56" height="56" viewBox="0 0 56 56" xmlns="http://www.w3.org/2000/svg"><path fill="#F0F3FA" d="M0 0h56v56H0z" /><path d="M48.5 26.54v-.28h.5v-1.03l1.3-.23v1.26h1.57v.28H50.3v3.3c0 .47.28.83.7.83.47 0 .64-.6.72-.97l.28.04c-.05.3-.13.54-.23.72-.2.36-.56.54-1.08.54l-.25-.01c-.82-.1-1.44-.68-1.44-1.73v-2.72h-.5ZM45.5 30.7l.1.02c.08.01.12.1.12.28H43.5v-.3h.14c.27-.04.36-.23.36-.58V26.3h-.5V26h1.69l.05 1.04c.05-.13.13-.26.22-.39.33-.43.72-.65 1.18-.65.16 0 .32.03.47.09.56.23.89.81.89 1.74v2.88h.38c.08.02.12.12.12.29h-2.2v-.3c.1 0 .17 0 .24-.03.14-.05.2-.23.2-.55v-2.48l-.01-.3c-.07-.5-.28-.76-.64-.76-.1 0-.19.03-.28.08-.32.19-.5.58-.55 1.17v2.88h.23ZM42.7 30.71l.14.01c.1.02.16.11.16.28h-3v-.29c.1 0 .2 0 .28-.02.28-.04.72-.23.72-.55v-3.59h-1v-.28h2.5v4.44h.2Zm-.33-5.88c0 .13-.04.27-.13.4-.17.26-.43.4-.79.4a.98.98 0 0 1-.43-.1c-.31-.15-.47-.38-.47-.7 0-.14.04-.28.1-.4a.88.88 0 0 1 .8-.43c.16 0 .3.04.44.11.32.15.48.4.48.72Z" fill="#1F5990" /><path d="M36.49 28.5c0 .7.04 1.2.13 1.51.13.47.42.7.86.7.26 0 .46-.07.62-.23.28-.27.41-.95.41-2.02a5.9 5.9 0 0 0-.13-1.46c-.13-.48-.42-.71-.89-.71a.82.82 0 0 0-.64.25c-.24.28-.36.94-.36 1.97Zm1.06-2.5c.62 0 1.15.17 1.6.52.56.46.85 1.1.85 1.92 0 .61-.18 1.16-.54 1.63a2.4 2.4 0 0 1-2 .93A2.4 2.4 0 0 1 35 28.46c0-.58.17-1.1.5-1.54a2.44 2.44 0 0 1 2.05-.92ZM32.6 24.32H32v3.33h.57c.67 0 1-.63 1.02-1.7 0-1.07-.34-1.62-.99-1.63ZM33 31h-3v-.32h.68v-6.36H30V24h3.14c.41 0 .77.09 1.07.27.53.32.79.84.79 1.57 0 .3-.04.57-.12.8-.28.86-.96 1.36-2.04 1.36H32v2.68h.75c.14.02.22.13.26.32ZM27.74 30.72a.6.6 0 0 1 .12.01c.1.02.14.1.14.27h-3v-.28c.2 0 .36-.01.48-.04.24-.07.52-.25.52-.54v-5.86h-1V24h2.37v6.72h.37ZM23.93 31a1.25 1.25 0 0 1-1.2-1c-.21.64-.68 1-1.35 1-.2 0-.38-.03-.55-.08-.55-.18-.83-.6-.83-1.25 0-.96.81-1.46 2.64-1.5v-.7c0-.8-.08-1.18-.54-1.18-.1 0-.18.01-.26.05-.12.07-.22.26-.3.55l-.07.22c-.1.3-.3.46-.62.46a.62.62 0 0 1-.2-.03c-.26-.07-.4-.25-.4-.54 0-.12.04-.24.1-.35.25-.43.86-.65 1.83-.65 1.08 0 1.82.6 1.82 1.77v2.3c0 .35.2.53.35.55.2-.01.33-.27.37-.77H25c-.02.23-.05.42-.1.57-.12.39-.45.58-.97.58Zm-2-.47c.05 0 .11-.01.17-.04.3-.11.4-.43.54-.94v-1.07c-.32.02-.47.06-.67.12-.39.15-.58.47-.58.95 0 .64.19.96.54.98ZM16.49 28.5c0 .7.04 1.2.13 1.51.13.47.42.7.86.7.26 0 .46-.07.62-.23.28-.27.41-.95.41-2.02a5.9 5.9 0 0 0-.13-1.46c-.13-.48-.42-.71-.89-.71a.82.82 0 0 0-.64.25c-.24.28-.36.94-.36 1.97Zm1.06-2.5c.62 0 1.15.17 1.6.52.56.46.85 1.1.85 1.92 0 .61-.18 1.16-.54 1.63a2.4 2.4 0 0 1-2 .93A2.4 2.4 0 0 1 15 28.46c0-.58.17-1.1.5-1.54a2.44 2.44 0 0 1 2.05-.92ZM11.5 30.72l.1.01c.09.02.13.1.13.27H9.5v-.28l.13-.01c.29-.03.37-.21.37-.55v-5.88h-.5V24h1.76v3.18c.05-.1.1-.2.17-.3.3-.45.7-.67 1.22-.67.94 0 1.35.93 1.35 1.75v2.76h.26l.12.01c.08.02.12.1.12.27h-2.13v-.28c.11 0 .2-.02.26-.05.08-.05.11-.22.11-.51v-2.38c0-.43-.12-1-.65-1a.6.6 0 0 0-.31.1c-.34.2-.52.62-.52 1.26v2.58h.24ZM9 29c0 .5-.17.92-.5 1.27-.5.49-1.2.73-2.12.73-.79 0-1.46-.2-2.01-.58 0 .13 0 .23-.02.3-.04.13-.16.19-.35.19v-2.4h.42c.03.4.11.76.24 1.07.31.73.85 1.1 1.61 1.1.2 0 .39-.04.55-.1.47-.18.7-.54.7-1.08 0-.16-.04-.31-.1-.46-.15-.32-.54-.65-1.16-.99-.7-.37-1.08-.58-1.17-.64-.68-.44-1.03-.98-1.03-1.6 0-.43.15-.79.43-1.1.44-.47 1.1-.71 1.97-.71.66 0 1.3.15 1.9.44v-.18c.04-.14.16-.21.36-.21V26H8.3c-.01-.4-.1-.67-.28-.96-.3-.47-.74-.7-1.34-.7-.15 0-.3.02-.43.07-.41.14-.62.43-.62.88 0 .17.04.34.11.5.15.32.53.64 1.14.98a524 524 0 0 1 1.14.63c.65.44.98.98.98 1.6Z" fill="#1F5990" /></svg>