<!-- by TradeStack --><svg width="56" height="56" viewBox="0 0 56 56" fill="none" xmlns="http://www.w3.org/2000/svg">
<rect width="56" height="56" fill="#F0F3FA"/>
<path d="M11 28.0077C11 18.6091 18.608 11 28.0051 11C37.3869 11 45 18.6091 45 28.0077C45 37.3909 37.3869 45 28.0051 45C18.608 45 11 37.3909 11 28.0077ZM40.2989 35H15.7011C18.0953 39.3224 22.7042 42 28.0051 42C33.2856 42 37.8996 39.3224 40.2989 35ZM14.7322 33H41.2627C41.7702 31.5438 42 29.628 42 28.0077C42 20.2448 35.7566 14 28.0051 14C20.2382 14 14 20.2448 14 28.0077C14 29.628 14.2247 31.5438 14.7322 33Z" fill="#003084"/>
<path d="M36 19H20V22H36V19ZM20 27H36V24H20V27ZM33 42.2722V29H18V17H38V29H35V42.2722" fill="#003084"/>
<path d="M22 28.6794L24 28.6537V35.5707C23.9692 38.3241 23.0425 40.7647 21.038 42.3235L18.7925 41.1134C20.5612 40.1443 21.7488 38.3446 22 36.2372V28.6794Z" fill="#003084"/>
<path d="M13.5941 32.8161L15.737 35H17.5621L26.4928 25.9609L24.5087 23.9622L16.6444 31.8844L15.5884 30.7705" fill="#8FD301"/>
</svg>
