<?xml version='1.0' encoding='utf-8'?>
<!-- by TradeStack -->
<svg width="56" height="56" viewBox="0 0 56 56" xmlns="http://www.w3.org/2000/svg"><path fill="#F0F3FA" d="M0 0h56v56H0z" /><path d="M39.04 30.97c-1.7.96-18.33 8.48-18.61 9.03H25c1.07-1.13 6.76-1.7 8.69-3 1.76-1.16 5.77-3.58 7.18-4.06-1.62-2.4-.59-1.6-1.84-1.97Z" fill="#96E878" /><path d="M11.79 40h4.29c.9-.56.6-.1 1.79-.2.02-.05 18.14-8.05 21.42-9.75-.36-.49-2.05-2.65-2.45-2.87-3.49 1.3-22.1 10.6-25.05 12.82Z" fill="#C3ECB4" /><path d="M11 40h.79c1.03-.77.93-.3 1.96-.64.91-.3.75-.6 1.46-.88.64-.25 1.28-.14 1.79-.41 1.18-.64.32-1.06 2.15-1.6 3.43-1.03 2.27-.9 3.68-1.66l2.25-.7a7.9 7.9 0 0 1 2.43-1.6c2.81-1.1 5.13-2.5 7.73-3.91.3-.3.81-.4 1.23-.57l1.07-.7c-.38-.61-.25-.62-.84-1.03l-3.27 1.58c-1.14.5-.86.64-1.52 1.07-.8.53-.88-.07-1.84.52-.99.61-2.09 1.22-3.13 1.85-1.92 1.15-2.3.44-3.5 1.41-2.42 1.94-3.5 1.56-5.44 2.7-2.27 1.32-3.04 1.06-4.54 2.18-.9.67-1.53-.3-2.46 2.39Z" fill="#211D1D" /><path d="M33.44 31.99c-.82 1.09-2.77 1.54-4.19 1.93-1.19.33-1.23.73-2 1.27l-.37.22c-2.4 1.35-1.21.06-2.5.82-.21.12-.8.5-1 .6-.44.25-.6.23-1.08.49-.49.27-.59.5-.8.63-1.1.67-.59-.45-2.1.41-.88.5-1.13.55-1.53 1.44-1.18.1-.88-.36-1.8.2h4.36c.53-1.05.15.15 1.65-.6l1.51-.9c2.06-.89 2.39-.28 4.88-2.04.86-.62 1.63-.4 2.95-1.58.75-.66.52-.71 1.69-.53.53-1.04.24-.59 2.9-1.47.82-.27.88-.44 1.47-.68.72-.29.78-.15 1.48-.54l.73-.6-.4-1.01c-1.17.03-.81.28-2.4.7l-.66.14c-1.75.38.41.24-2.8 1.1Z" fill="#1D221B" /><path d="M29.83 40h5.13c1.4-.96 6.8-3.09 7.66-3.9l-.77-1.5c-.7.18-11.05 4.75-12.02 5.4Z" fill="#63D73B" /><path d="M13.77 35.24c.51-.23.24-.17.57-.28l.62-.14c2.67-.59 2.9-1.77 4.22-2.25 1.51-.56 1.66-.23 3.08-1.1.36-.22 1.07-.86 1.28-.94.9-.34.5.3 1.65-.06 1.43-.45 1.91-1.2 3.02-2.17 1.01-.9 1.46-.42 2.57-.76.98-.3.5-.54 1.06-1.04.88-.78 3.28-1.23 4.04-1.87l-.42-.92c-.9.1-2.65 1.02-3.54 1.52l-6.3 2.99c-1.63 1.44-2.05.63-3.44 1.7l-2.02 1.15c-.6.2-1 .27-1.7.48l-2.87 1.26c-.81.33-1.5 1.5-1.82 2.43ZM16.47 30.62c.76-.11 1.55-.58 2.1-1.04.61-.5.22-.23 1-.58 1.6-.72 2.9-1.45 4.6-2.14 1.78-.72 2.15-1.34 5.62-2.68 3.18-1.23 2.71-1.5 4.46-2.22l-.88-1.66c-1.3.67-1.24 1.1-3.11 1.88-2.3.96-2.28 1.25-5.33 2.4-1.13.55-2.12 1.15-3.22 1.8-1.15.34-.62-.34-1.75.75-.48.46-.29.25-1.03.56-1.33.55-1.95 1.49-2.46 2.93Z" fill="#211D1D" /><path d="M25.01 40h4.82c.66-.44.95-.3 1.6-.55.75-.27 2.06-1.08 2.91-1.47.59-.28 1-.3 1.7-.47 2.34-.55 4-2.44 5.8-2.91-.3-.58-.63-1.1-.96-1.66a52.23 52.23 0 0 0-7.7 3.81c-.41.27-3.37 1.44-4.11 1.6-.66.16-1.52.57-2.18.8-1.08.36-1.08 0-1.88.85Z" fill="#1C2314" /><path d="M24.58 16.5c-.05.02-.12.01-.13.08l-.45.4c-.32.48-.42 1.17-.94 2.03 2.64-.43 5.63-2.15 7.57-3.33l-1-1.67c-1.42.73-3.93 2.5-5.05 2.49Z" fill="#F4C58F" /><path d="M21.13 23.5c-1.03.15-1.6 1.47-1.94 2.43l5.2-2.37c1.6-.93 3.01-1.37 4.6-2.52.98-.7 2.5-1.2 3.8-1.31-.17-.92-.32-.95-.78-1.69l-2.2.97c-.61.31-.44.45-.91.66a44.49 44.49 0 0 0-4.9 2.47c-2.55.64-1.14.37-2.87 1.35Z" fill="#231D1B" /><path d="M34.08 40h5.65c1.68-1.55 3.79-.98 4.07-2.07a5.73 5.73 0 0 0-1.18-1.83c-1.09 1.03-4.28 1.33-5.37 2.5-1 1.07-1.74.42-3.17 1.4Z" fill="#1C2314" /><path d="M23.06 19c-.34.82-.96 1.7-1.36 2.45.96-.02.63-.33 1.4-.7.46-.2 5.15-2.69 5.67-2.87l1.95-.56c.82-.58.26-.17.52-.79l-.6-.85c-.77.21-1 .67-1.81.93-2 .64-3.82 2.09-5.77 2.4ZM25.76 14.78c-.4.43-.23.12-.6.68-.23.32-.4.68-.58 1.04.85.01 2.23-.43 2.8-.92 1.46-1.26 1.73-.17 2.25-1.57l-.55-.8c-.97.13-1.2.15-1.77.62-.55.46-.74.76-1.55.95Z" fill="#231D1B" /><path d="M39.73 40H45c-.28-.84-.8-1.36-1.2-2.07-.28 1.09-2.4.52-4.07 2.07Z" fill="#2AC90B" /><path d="M27.22 11.94c-.4.62-.79 1.17-1.11 1.85l-.35 1c.8-.2 1-.5 1.55-.96.56-.47.8-.49 1.77-.63l-.86-1.45c-.12 0-.8.17-.81.15-.04-.06-.13.03-.19.04Z" fill="#EDAF70" /><path d="M27.22 11.94c.06-.01.15-.1.19-.04.03.06.25-.05.35-.07.22-.04.08-.05.46-.08-.33-.76 0-.3-.62-.75-.15.62-.07.38-.38.94Z" fill="#332519" /></svg>