<?xml version='1.0' encoding='utf-8'?>
<!-- by TradeStack -->
<svg width="56" height="56" viewBox="0 0 56 56" xmlns="http://www.w3.org/2000/svg"><path fill="#21515F" d="M0 0h56v56H0z" /><path d="M24.59 24c2.67-1.76 5.77-5.2 6.1-7.84.4-3.04-2.01-5.16-2.01-5.16s-1.7 6.1-12.66 13.37c0 0 1.19-.37 4.07-.37h4.5Z" fill="#A8C32F" /><path d="M14.56 39h6.77c2.4-.16 4.68-1.17 6.43-2.85l8.99-7.9c.74-.7.78-1.9.08-2.66-.36-.38-.85-.6-1.36-.59H19.89c-3.26 0-4.92.81-7.8 2.37C11.12 27.9 9 29 9 29h21s-8.5 7.82-15.44 10Z" fill="#F7F7F5" /><path d="M44 39c-.22-.89-.7-1.7-1.39-2.34-1.9-1.69-3.78-1.66-6.86-1.66h-4.62l-2.96 2.46c-1.35 1.3-2.36 1.42-2.68 1.54H44Z" fill="#A8C32F" /></svg>