<!-- by TradeStack --><svg width="56" height="56" viewBox="0 0 56 56" xmlns="http://www.w3.org/2000/svg"><path fill="#F0F3FA" d="M0 0h56v56H0z"/><path d="M49.08 25c.59 0 1.1.13 1.54.38.44.25.78.6 1.02 1.06.24.45.36.97.36 1.56 0 .59-.12 1.1-.36 1.56-.24.46-.58.81-1.03 1.06-.44.25-.94.38-1.53.38H47v-6h2.08ZM49 29.73c.5 0 .9-.15 1.2-.45.28-.3.42-.73.42-1.28s-.14-.98-.43-1.3c-.28-.3-.68-.45-1.2-.45h-.49v3.48h.5ZM44.25 31l-1.33-2.27h-.42V31H41v-6h2.6c.5 0 .93.08 1.28.25a1.76 1.76 0 0 1 .7 2.7c-.23.32-.58.54-1.05.67L46 31h-1.75Zm-1.75-3.3h1.01c.29 0 .5-.06.64-.2a.71.71 0 0 0 .22-.55c0-.23-.08-.4-.22-.54-.14-.13-.35-.2-.64-.2H42.5v1.5ZM37 31a2.92 2.92 0 0 1-3-3 2.92 2.92 0 0 1 1.5-2.61c.45-.26.96-.39 1.5-.39.56 0 1.06.13 1.52.38.46.26.82.62 1.08 1.07A3 3 0 0 1 40 28c0 .57-.13 1.09-.4 1.55-.27.45-.63.81-1.08 1.07-.46.25-.96.38-1.51.38Zm0-1.3c.48 0 .85-.16 1.13-.47.28-.31.42-.72.42-1.23 0-.52-.14-.93-.42-1.24A1.42 1.42 0 0 0 37 26.3c-.47 0-.85.16-1.13.46-.28.3-.42.72-.42 1.25 0 .51.14.93.41 1.24.29.3.67.46 1.14.46ZM33 25v1.17h-2.5v1.27h1.87v1.13H30.5V31H29v-6h4ZM28 25v6h-1.5v-3.6L25.11 31H23.9l-1.4-3.6V31H21v-6h1.78l1.73 4.15L26.23 25H28ZM18.1 30h-2.22l-.36 1H14l2.16-6h1.68L20 31h-1.54l-.36-1Zm-.37-1.19-.74-2.2-.73 2.2h1.47ZM14.71 25v1.17H13V31h-1.57v-4.83H9.7V25h5ZM6.58 31a3.8 3.8 0 0 1-1.3-.2c-.38-.15-.69-.35-.92-.63-.23-.27-.35-.6-.36-.98h1.72c.02.22.1.38.25.5a.9.9 0 0 0 .57.17c.24 0 .43-.05.56-.15.14-.1.21-.23.21-.4a.45.45 0 0 0-.17-.36c-.1-.1-.24-.18-.4-.24a6.69 6.69 0 0 0-.68-.2A8.09 8.09 0 0 1 5 28.14a1.9 1.9 0 0 1-.7-.51c-.2-.23-.3-.53-.3-.9 0-.54.23-.97.68-1.27A2.99 2.99 0 0 1 6.43 25c.73 0 1.32.16 1.77.47.44.3.68.73.72 1.28H7.17a.57.57 0 0 0-.24-.44.89.89 0 0 0-.55-.17c-.2 0-.35.05-.47.15-.12.08-.18.21-.18.39 0 .19.1.33.3.44.2.1.51.22.94.34.43.13.78.25 1.04.37.27.12.5.29.7.5.2.23.29.52.29.87 0 .33-.1.63-.3.9-.18.28-.46.5-.82.66-.37.16-.8.24-1.3.24Z" fill="#E41B14"/></svg>