<?xml version='1.0' encoding='utf-8'?>
<!-- by TradeStack -->
<svg width="56" height="56" viewBox="0 0 56 56" xmlns="http://www.w3.org/2000/svg"><path fill="#F0F3FA" d="M0 0h56v56H0z" /><path d="M20.28 26.22c3.4 5.5 11.47 5.37 11.47 5.37s-3.5-.78-6.57-3.32c-2.8-2.57-2.92-6.56-2.24-8.71.69-2.15 2.17-4.86 6.49-6.56-4.04.64-6.8 2.38-8.1 3.83l-.13.17c-.69.88-3.67 4.7-.92 9.22Zm11.78 5.82s-10.54 1.67-15.23-3.86c-2.97-4.06-2.25-6.65-1.64-8.88l.03-.1c.71-2.5 4.44-5.85 9.27-5.69-1.89.68-5.95 3.44-6.45 7.53-.93 11.45 14.02 11 14.02 11Zm-8.9-9.27c-.9-2.73 4.68-13.5 14.58-7.17-5.33-.38-9.58 1.13-14.58 7.17Zm.31.4c5.77-7.98 20.66-10.85 21.53 3.91-5.34-12.5-19.73-5.2-21.53-3.92Zm.34.31c1.55-.93 10.61-5.37 17.56-.06 6.58 6.43 1.4 14.27-.28 15.17l.02-.04c1.03-2.16 2.78-5.84-.58-10.76-3.9-5.66-13.58-5.18-16.72-4.3Zm15.36 4.34c-4.69-5.53-15.23-3.86-15.23-3.86S38.89 23.51 37.96 35c-.47 4.09-4.53 6.82-6.42 7.53 4.8.13 8.53-3.22 9.24-5.73l.03-.12c.62-2.25 1.31-4.8-1.64-8.85Zm-14.92-3.4s8.06-.13 11.47 5.36c2.76 4.51-.23 8.34-.92 9.22l-.13.17c-.93 1.26-4.03 3.22-8.1 3.83 4.28-1.67 5.8-4.37 6.49-6.56.68-2.15.55-6.14-2.27-8.71-3.04-2.54-6.54-3.32-6.54-3.32Zm8.59 8.84c.9 2.73-4.68 13.5-14.58 7.17 5.3.35 9.55-1.16 14.58-7.17Zm-.34-.42C26.76 40.8 11.84 43.7 11 28.92c5.34 12.5 19.73 5.2 21.5 3.92Zm-17.84-.26c6.92 5.3 15.98.87 17.53-.06-3.14.87-12.85 1.35-16.7-4.31-3.33-4.88-1.62-8.52-.6-10.71l.05-.1c-1.68.94-6.86 8.75-.28 15.18Z" fill="#E60012" /></svg>