<!-- by TradeStack --><svg width="56" height="56" viewBox="0 0 56 56" xmlns="http://www.w3.org/2000/svg"><path fill="#333" d="M0 0h56v56H0z"/><path d="m19.65 26.8 1.03 1.32a68.4 68.4 0 0 0 2.16 2.5c1.06 1.19 1.91 2.08 2.96 3.23.7.77 1.35 1.49 1.93 2.17.27.32.52.64.75.95.21.3.4.62.55.95.17.4.28.86.22 1.3-.1.69-.72 1.01-1.36 1.13-.36.06-.74.09-1.15.08a9.9 9.9 0 0 1-1.97-.23 12.24 12.24 0 0 1-5.7-3.08l-.5-.5a1.81 1.81 0 0 0-.37-.32.68.68 0 0 0-.5-.1c-.37.07-.66.43-.58.8a2.11 2.11 0 0 0 .6.98h-.01a15.28 15.28 0 0 1-3.06-3.85 14.67 14.67 0 0 1-1.21-11.46 15.1 15.1 0 0 1 7.51-8.95 15.6 15.6 0 0 1 11.57-1.08l-.01.01c-1-.25-2.03-.4-3.08-.44-.64-.02-1.3 0-1.96.04-1.28.09-2.56.33-3.77.75a11.71 11.71 0 0 0-3.86 2.2 7.22 7.22 0 0 0-2.28 7.43c.27 1.05.72 2.04 1.28 2.96.25.41.52.81.81 1.2Z" fill="#fff"/><path d="M28.56 13.6a2.5 2.5 0 0 0-1.26.45c-.38.3-.49.74-.43 1.2-.39.31-.65.68-.66 1.18 0 .18.01.35.06.51.16.62.46 1.17.87 1.68.32.4.66.77 1.03 1.12l2.44 2.45c.44.45.92.87 1.46 1.32 1 .82 2.02 1.58 3.2 2.15a31.09 31.09 0 0 1 1.86 2.5v.01l.07.1.22.36h.01l3.65 6.2.01.01v.02c.13.2 1.1 1.85 2.9 4.93V40h-5.5v-.19l-.72-1.22.01-.01v-.01a232.82 232.82 0 0 0-.5-.82L27.97 21.8h-.02l-4.39 7.57c-.34-.32-.69-.7-1.05-1.12a39.4 39.4 0 0 1-1.35-1.7c-.26-.34-.51-.7-.7-1.1l7.53-12.8H28l.56.95Z" fill="#04B2D9"/><path d="M41.1 34.84h-.02a63014 63014 0 0 1-3.66-6.2l-.22-.37-.06-.1-.02-.04-.46-.68c-.43-.59-.9-1.19-1.4-1.79l-1.05-1.25c-.79-.9-1.5-1.69-2.13-2.37-.81-.86-1.51-1.62-2.1-2.27a54.4 54.4 0 0 1-1.93-2.22c-.13-.15-.27-.34-.43-.57a4.9 4.9 0 0 1-.61-1.13c-.07-.2-.11-.4-.14-.6-.06-.46.05-.9.43-1.2a2.5 2.5 0 0 1 1.26-.45l.44-.03c.92-.02 1.8.08 2.68.3 1.02.27 2 .66 2.94 1.19a11.2 11.2 0 0 1 2.85 2.24c.17.19.37.37.6.47.23.1.5.04.68-.12.6-.51.04-1.21-.34-1.63a14.95 14.95 0 0 1 4.92 11.29c-.06 2.7-.8 5.22-2.24 7.53Z" fill="#fff"/><path d="M26.87 15.26c.03.2.07.4.14.6a1.44 1.44 0 0 0-.1 1.3c.2.57.55 1.04.96 1.5l.69.73a339.22 339.22 0 0 0 1.59 1.57c.25.27.55.57.9.92a19.56 19.56 0 0 0 3.16 2.53l1.06 1.25a16.01 16.01 0 0 1-3.2-2.15c-.54-.45-1.02-.87-1.46-1.32-.83-.85-1.65-1.66-2.44-2.45-.37-.35-.7-.73-1.03-1.12a4.45 4.45 0 0 1-.87-1.68 1.8 1.8 0 0 1-.06-.51c.01-.5.27-.87.66-1.17Z" fill="#04A6CA"/><path d="M27 15.85c.16.4.36.77.62 1.13.16.23.3.42.43.57.61.76 1.27 1.5 1.93 2.22l2.1 2.27a97.2 97.2 0 0 1 2.13 2.37 19.55 19.55 0 0 1-3.15-2.53 64.7 64.7 0 0 1-1.2-1.2l-1.3-1.3c-.23-.22-.46-.47-.69-.71a4.38 4.38 0 0 1-.96-1.52 1.44 1.44 0 0 1 .1-1.3Z" fill="#0387A5"/><path d="M20.45 25.45c.18.4.44.76.7 1.1.37.5.82 1.07 1.35 1.7.36.42.71.8 1.05 1.12l-.72 1.24-.01-.02a68.5 68.5 0 0 1-3.17-3.8l.8-1.34ZM15 34.72a15.28 15.28 0 0 0 2.7 3.24c.26.06.49.16.7.31l-.26.45a2.02 2.02 0 0 0-.73-.37l-.8-.26a4.4 4.4 0 0 1-1.6-.95c-.32-.3-.6-.62-.9-.93l.88-1.5Z" fill="#04A6CA"/><path d="m19.06 37.12-.66 1.15c-.21-.15-.44-.25-.7-.3-.24-.26-.5-.6-.58-.96-.08-.38.21-.74.58-.82.17-.03.34.02.5.11.14.09.26.2.38.32l.48.5Z" fill="#04A6CA"/><path d="m18.14 38.72-.64 1.09V40H12a.74.74 0 0 1 0-.2l2.1-3.59c.3.31.58.63.9.93.46.43 1 .75 1.6.95l.8.26c.27.08.52.19.73.37Z" fill="#04B2D9"/><path d="M37.77 38.59A15.37 15.37 0 0 1 27.7 42a15.47 15.47 0 0 1-4.1-.64 14.92 14.92 0 0 0 4.74.42c.75-.04 1.46-.13 2.13-.25 2.09-.4 4-1.23 5.62-2.56a8.65 8.65 0 0 0 1.18-1.2c.02 0 .03 0 .04.03a216.77 216.77 0 0 1 .45.8Z" fill="#fff"/></svg>