<!-- by TradeStack --><svg width="56" height="56" viewBox="0 0 56 56" xmlns="http://www.w3.org/2000/svg"><path fill="#F0F3FA" d="M0 0h56v56H0z"/><path d="M13 15a1 1 0 0 1 1-1h29v2H15v18h17c1.36 0 2-1.3 2-2.5s-.64-2.5-2-2.5h-7c-2.25 0-4-1.75-4-4s1.75-4 4-4h17a1 1 0 0 1 1 1v19a1 1 0 0 1-1 1H13v-2h28V23H25c-1.17 0-2 .84-2 2 0 1.16.83 2 2 2h7c2.46 0 4 2.2 4 4.5S34.46 36 32 36H14a1 1 0 0 1-1-1V15Z" fill="url(#akfb2ofdk)"/><defs><linearGradient id="akfb2ofdk" x1="34.5" y1="15.5" x2="13" y2="41.5" gradientUnits="userSpaceOnUse"><stop stop-color="#297189"/><stop offset=".49" stop-color="#1B98D0"/><stop offset="1" stop-color="#30B1C5"/></linearGradient></defs></svg>