<!-- by TradeStack --><svg width="56" height="56" viewBox="0 0 56 56" xmlns="http://www.w3.org/2000/svg"><path fill="#F0F3FA" d="M0 0h56v56H0z"/><path d="M51 25.4c-21.6-.1-31.08 4.4-36.43 7.75-1.14 2.2-2.57 4.83-2.57 4.83h5.9c8.27-9.39 25.25-11.72 33.1-12.57Z" fill="#2A489E"/><path d="M26.15 27.32 24.33 24l-2.6 4.75c1.36-.48 2.84-.96 4.42-1.43ZM19 38a36.38 36.38 0 0 1 9.57-6.26L32 38H19Z" fill="#307A36"/><path d="M23.81 15.3c.22-.4.78-.4 1 0l5.8 10.8c-1.24.3-2.43.63-3.56.96L24.3 22l-3.93 7.3c-2.1.8-3.9 1.62-5.38 2.41l8.81-16.41ZM29.35 31.35 32.9 38H37l-4.32-8.04c-1.13.44-2.25.9-3.33 1.4Z" fill="#9B2520"/></svg>