<!-- by TradeStack --><svg width="56" height="56" viewBox="0 0 56 56" xmlns="http://www.w3.org/2000/svg"><path fill="#F0F3FA" d="M0 0h56v56H0z"/><path d="M44 16H12v23h23.92c.46-2.33 1.1-6-1.7-6-2.48 0-3.9.43-5.44 1.34a6.86 6.86 0 0 0 1.19-4.62c-.24-2.4-3.74-1.9-7.81-1.3l-.16.01C25.27 26.78 29.5 25 33.02 25c.6-.98.98-2.19.98-3.16 0-1.93-2.52-1.57-6-1.1 1.92-.91 6.5-2.74 9.4-2.74 1.96 0 1.88 1.93 1.6 3 .76-.29 2.66-.64 4.12-.64.36 0 .65.05.88.14V16ZM37.14 38.57C38.94 36.46 42 33.4 42 30.5c0-.84-.19-1.7-.88-2.2 1.8-1.58 4.05-4.18 3.5-6.8.46.06 1.38.44 1.38 1.35 0 1.84-1.46 3.17-2 4.83V39h-5.2c-1.34 1.5-2.2 1.96-2.5 2 .66-.55.77-1.87.84-2.43Z" fill="#489F6F"/><path d="M38.48 24c1.69 0 1.98 2.32 1.88 3.95a3.84 3.84 0 0 0-1-.12c-1.75 0-4.42.24-5.33.6.25-1 .7-2.4-.03-3.06 1.38-.58 3.22-1.37 4.48-1.37Z" fill="#489F6F"/></svg>