<!-- by TradeStack --><svg viewBox="0 0 56 56" xmlns="http://www.w3.org/2000/svg"><path fill="#F0F3FA" d="M0 0h56v56H0z"/><path d="m29.35 31.15.09.04c.06.04.08.08.05.15l-.04.09c-.13.09-.2.17-.24.25a.23.23 0 0 1-.07.1.25.25 0 0 1-.13.05c-.04 0-.09 0-.13-.02a.3.3 0 0 1-.12-.08 1.58 1.58 0 0 0-.57-.41c-.2-.09-.33 0-.48-.1a.18.18 0 0 0-.18 0c-.2.1-.33.22-.38.36a.13.13 0 0 1-.13.1c-.23 0-.37.16-.42.47-.01.07-.05.1-.11.1a.86.86 0 0 1-.63-.3.05.05 0 0 0-.04-.01h-.1l-.02.01a.04.04 0 0 0-.02.06l.12.2c.03.05.02.08-.03.1a.34.34 0 0 0-.14.13.19.19 0 0 0-.01.18l.07.2c.03.08 0 .12-.07.14a.72.72 0 0 1-.18.03c-.23 0-.25-.07-.06-.2.04-.02.08-.08.1-.17.03-.06 0-.09-.05-.1l-.2-.03c-.06-.01-.07-.04-.05-.1.07-.17.01-.37-.16-.6a.08.08 0 0 0-.05-.04h-.05a.38.38 0 0 0-.05.03c-.04.02-.03.07.04.13.12.1.14.24.04.41-.03.06-.08.08-.14.06-.16-.04-.28.01-.37.17-.03.05-.07.07-.12.04-.3-.1-.38-.28-.28-.53.08-.17.03-.2-.13-.13-.06.03-.16.03-.3 0a.05.05 0 0 1-.04-.04l-.02-.05a.05.05 0 0 1 .03-.07h.03c.17.02.3 0 .43-.06a.2.2 0 0 0 .1-.14l.07-.4c.02-.08-.01-.12-.08-.13-.49-.11-1-.12-1.54-.05-.05.01-.08.03-.1.05a.16.16 0 0 0-.04.1c0 .06.02.1.08.13l.16.06c.32-.04.36.05.11.27l-.33.31a.16.16 0 0 0-.05.16c.01.05 0 .11-.02.18 0 .02-.01.02-.03.02l-.06-.01c-.05-.01-.07-.04-.05-.1.04-.1.04-.18 0-.24-.05-.07-.1-.08-.17-.04l-.11.06a.06.06 0 0 1-.05 0 .13.13 0 0 1-.05-.01.07.07 0 0 1-.02-.06.07.07 0 0 1 .02-.05c.17-.16.26-.26.28-.3.04-.06.03-.1-.02-.13h-.18a.07.07 0 0 1-.07-.05v-.05c0-.04.01-.06.04-.07a.9.9 0 0 0 .32-.13c.08-.07.07-.1-.04-.1l-1.03-.03c-.05 0-.1.02-.14.05a.25.25 0 0 0-.1.1c-.1.29-.24.5-.42.63-.46.36-.61.83-1.02 1.35a.05.05 0 0 0 .04.09l.07.01c.01 0 .03 0 .05-.02a137.27 137.27 0 0 0 .33-.3l.07-.01c.05-.02.07.02.05.12-.02.11.03.23.16.35.05.05.1.06.17.03.06-.02.08-.06.08-.13a.48.48 0 0 1 0-.2c0-.03.02-.05.04-.07a.1.1 0 0 1 .07-.02l.28.01c.05 0 .1 0 .17-.03l.77-.27.02.05c.02.03 0 .05-.04.06-.17 0-.29.08-.33.24a.1.1 0 0 0 .02.1.1.1 0 0 0 .1.02c.19-.06.32-.12.41-.18.13-.1.17-.06.12.1-.01.04 0 .1.05.16.04.05.1.06.16.05.12-.04.25-.01.39.06.05.03.1.05.17.05h.67c.24.33.23.33 0-.01h-.01a4.05 4.05 0 0 1-1.17.46.4.4 0 0 1-.17-.12.1.1 0 0 0-.15-.02.73.73 0 0 0-.22.27c-.03.06-.07.07-.14.02l-.16-.14a.1.1 0 0 0-.09-.01.09.09 0 0 0-.04.02.08.08 0 0 0-.02.04.29.29 0 0 0 0 .14v.04s0 .02-.02.02a.08.08 0 0 1-.07 0l-.23-.1a.2.2 0 0 0-.18 0 1.9 1.9 0 0 1-.72.2.18.18 0 0 0-.15.08c-.07.12-.04.23.08.36.01 0 .02.02.01.03l-.02.05c-.02.04-.04.05-.07.01a.86.86 0 0 0-.44-.33.14.14 0 0 0-.17.08.14.14 0 0 0-.02.06l.05 1.02a.1.1 0 0 0 .07.1.1.1 0 0 0 .11-.03 6.23 6.23 0 0 1 1.94-1.21c.5-.19 1.3-.47 2.37-.84a.39.39 0 0 0 .24-.22c.03-.06.07-.09.14-.07l.35.05c.07.01.11 0 .15-.05a.43.43 0 0 1 .1-.1.16.16 0 0 1 .17-.01c.13.06.3.07.5.02.06 0 .11 0 .16.05.4.4.82-.08 1.18-.22a.05.05 0 0 0 .03-.04.05.05 0 0 0-.02-.04c-.32-.24-.6-.3-.84-.17-.18.1-.22.05-.15-.13.06-.14.18-.19.35-.14.21.06.36-.04.45-.3a.07.07 0 0 1 .08-.06l.03.02c.07.04.07.09-.01.14-.06.04-.08.09-.04.15.03.07.08.1.15.08.55-.09.92-.1 1.1-.02a.2.2 0 0 0 .18-.02 131.75 131.75 0 0 0 1.27-.67c.31-.16.68-.2 1.12-.12.13.02.27 0 .4-.03.32-.07.47-.03.7.15.04.04.1.06.16.07.42.03.78.19 1.09.47-.22.04-.41.14-.59.29-.04.04-.1.05-.19.05l-.49-.03c-.24-.01-.29.08-.15.29.04.05.16.05.35 0 .07-.02.12 0 .17.03.1.09.22.11.35.08.07-.02.13 0 .18.05.08.08.11.16.1.22 0 .07-.04.1-.1.09-.18-.02-.3.02-.38.1a.08.08 0 0 1-.06.03.08.08 0 0 1-.06-.03.36.36 0 0 0-.14-.13c-.06-.03-.1-.01-.13.05-.1.25-.31.39-.64.43-.1 0-.12-.03-.08-.12l.07-.18a.13.13 0 0 0-.01-.13c-.13-.16-.3-.18-.52-.08l-.15.1c-.08.04-.1.02-.07-.06l.05-.11c.02-.05.02-.1-.02-.13-.04-.04-.1-.05-.17-.04a.28.28 0 0 0-.17.09c-.2.22-.5.27-.86.16-.06-.03-.11 0-.14.06l-.02.06c-.03.06-.08.08-.15.07a9.03 9.03 0 0 0-2.03-.2c-.06 0-.15.04-.26.11-.08.05-.07.08.02.09l.8.06h.01v.06c.01.03 0 .04-.03.04-.48-.06-.92.06-1.3.34a.1.1 0 0 0-.02.13.1.1 0 0 0 .04.04c.13.04.23.13.3.27.03.06.02.07-.04.05-.04-.02-.07-.05-.08-.07-.03-.09-.08-.1-.13-.03a.18.18 0 0 1-.12.05c-.26.04-.43-.16-.74-.04-.07.03-.13.01-.15-.06-.03-.06-.07-.07-.12-.02a.11.11 0 0 0-.03.05c-.01.04 0 .07.05.09a.1.1 0 0 1 .05.03c.03.04.02.06-.02.07-.39.09-.68 0-.9-.27-.04-.05-.1-.06-.16-.04-.07.02-.14 0-.2-.06a.13.13 0 0 0-.17-.02.32.32 0 0 1-.34-.02c-.06-.04-.05-.06.02-.07.15-.02.16-.07.03-.15l-.03-.01h-.03l-2.07.73c-.07.03-.1.08-.1.16 0 .14-.1.2-.3.2a.3.3 0 0 0-.18.04c-1.21.76-1.85 2.91-1.78 4.2L19 40a5.57 5.57 0 0 0 .36 1.93.1.1 0 0 1-.1.08.1.1 0 0 1-.05-.01.73.73 0 0 0-.56-.06.76.76 0 0 1-.19.02l-1.1-.01c-.05 0-.08-.02-.08-.07 0-.04.02-.07.05-.09a.6.6 0 0 0 .22-.14.3.3 0 0 0 .08-.2l.02-1.29c0-.39-.07-.76-.22-1.12-.5-1.14-.93-1.8-1.14-2.8a12.4 12.4 0 0 0-.62-1.77.3.3 0 0 0-.35-.06c-.26.12-.61.1-1.06-.05-.09-.02-.1-.07-.03-.14l.2-.23c.04-.05.03-.08-.03-.1a.96.96 0 0 0-.6-.04c-.03 0-.04 0-.03-.05l.03-.05-.01-.05c-.11-.1-.37-.06-.78.1a.07.07 0 0 1-.08-.02c-.11-.16-.26-.22-.46-.18-.08.02-.13-.01-.14-.1v-.07a.1.1 0 0 1 .09-.1c.17 0 .44-.02.78-.08a.53.53 0 0 0 .31-.15c.05-.04.1-.07.16-.08.22-.02.34-.06.38-.1a.46.46 0 0 1 .32-.2.49.49 0 0 1 .37.1c.13.11.35.17.65.17a.06.06 0 0 0 .06-.04v-.04a.06.06 0 0 0-.03-.03l-1.2-.52a.17.17 0 0 0-.18.02l-.18.14a.15.15 0 0 1-.09.03h-.85c-.1 0-.11-.02-.05-.09.01-.01.06-.01.14 0l.01-.01v-.01a.88.88 0 0 0-.3-.05c-.1.01-.11.05-.05.11l.24.24c.35.26.32.32-.1.2a1.24 1.24 0 0 1-.26-.2c-.05-.05-.1-.06-.16-.03l-.23.12c-.17.1-.16.17.06.22.04.01.07.04.1.08.04.08.02.11-.08.1l-.2-.04c-.09-.01-.12-.06-.1-.14l.06-.35a.14.14 0 0 1 .11-.11c.1-.02.17-.05.2-.1.05-.06.04-.11-.03-.14-.07-.04-.14-.03-.22.01-.19.1-.35.13-.49.08-.07-.03-.1 0-.1.07a.6.6 0 0 1-.25.52.28.28 0 0 1-.17.06.76.76 0 0 0-.4.13c-.08.04-.12.02-.12-.06a.1.1 0 0 1 .04-.07c.02-.02.04-.04.06-.04a.92.92 0 0 0 .6-.33c.07-.1.09-.2.04-.3a.1.1 0 0 0-.15-.04c-.11.05-.2.06-.28.02-.07-.04-.07-.08.02-.1l.2-.04a.04.04 0 0 0 .02-.02.04.04 0 0 0 0-.04l-.03-.05a22.28 22.28 0 0 1-.72.15c-.1.02-.17.02-.2 0a.2.2 0 0 1-.1-.14.11.11 0 0 0-.05-.07.12.12 0 0 0-.09-.02.4.4 0 0 0-.29.18.2.2 0 0 1-.14.1c-.32.03-.73.1-1.04-.02-.08-.03-.07-.05 0-.05.46-.04.7.02 1.28-.3a.35.35 0 0 1 .17-.04.4.4 0 0 0 .33-.14c.03-.04.04-.07.03-.1a.1.1 0 0 0-.03-.04.09.09 0 0 0-.1 0l-.15.09a.44.44 0 0 1-.16.05l-2.13.27c-.05.01-.1 0-.15-.02a.48.48 0 0 0-.39-.05c-.1.03-.13 0-.1-.1l.08-.11a.29.29 0 0 1 .22-.12l.37-.01a.3.3 0 0 0 .17-.06c.24-.17.45-.27.63-.32.23-.06.44-.15.64-.28.32-.22.72-.29 1.2-.22.07 0 .12.03.16.08.08.09.17.1.29.06.06-.03.11-.01.15.05.04.06.1.1.15.1.22.01.42.07.6.16.03.02.1.02.17.01l1.19-.14c.3-.04.32-.12.04-.25-.07-.04-.23-.02-.46.05a.37.37 0 0 1-.16 0l-.17-.02a.39.39 0 0 0-.18 0c-.19.07-.39.1-.59.07-.04 0-.06-.03-.07-.07v-.1a.12.12 0 0 0-.08-.12l-.56-.24a.31.31 0 0 0-.17-.03 1 1 0 0 0-.39.14.24.24 0 0 1-.17.03 8.31 8.31 0 0 0-1.65-.13c-.11 0-.2-.03-.25-.11-.04-.07-.02-.1.06-.12.1-.02.15-.02.17-.01.24.09.3.01.19-.22a.48.48 0 0 0-.45-.28h-.03a.07.07 0 0 1-.03-.05v-.09c.01-.05.04-.07.1-.06.23.02.37-.03.41-.18.07-.23.17-.25.3-.03l.2.3a.15.15 0 0 0 .15.07c.03 0 .06-.02.08-.04a.15.15 0 0 0 .04-.08l.07-.36c.05-.3.17-.33.35-.08.07.1.13.2.18.32a.17.17 0 0 0 .14.1.17.17 0 0 0 .15-.07l.2-.31c.18-.3.43-.34.68-.08a.05.05 0 0 1 0 .08h-.03a.4.4 0 0 0-.32.24c-.03.06-.01.1.06.13.43.14.78.1 1.06-.13.05-.04.1-.04.15.02.07.09.14.14.2.15a.09.09 0 0 1 .07.13c-.03.04-.02.08.02.11.04.04.09.05.14.04.07-.02.23-.04.46-.06.3-.03.53.23.84.15.07-.01.12 0 .16.07.03.05.04.12.02.21a.28.28 0 0 1-.12.17c-.18.12-.31.23-.41.32-.08.09-.1.17-.03.24.05.06.11.08.19.06l.79-.19c.07-.01.1.01.08.09l-.02.07c-.04.08-.02.11.07.1.34-.1.62 0 .83.28.06.08.1.07.1-.03 0-.01 0-.04-.02-.07-.02-.04-.01-.06.04-.07h.1a.08.08 0 0 1 .06.03c.01 0 .02.01.02.03v.03l-.03.2c-.02.06.01.1.08.12.53.13.9.15 1.24.37a13.13 13.13 0 0 0 1.1.55.09.09 0 0 0 .08-.04l.01-.05-.02-.48a.26.26 0 0 0-.05-.12l-.74-1.14a.09.09 0 0 0-.12-.03.17.17 0 0 0-.04.04c-.02.02-.02.04 0 .06.13.1.2.22.22.4 0 .07-.03.1-.1.09-.13-.03-.22-.14-.25-.35-.02-.06-.05-.1-.11-.1-.14 0-.22.06-.26.21-.01.06-.04.07-.08.03-.15-.13-.33-.18-.57-.14a.05.05 0 0 1-.06-.03l-.03-.08c0-.03 0-.05.04-.05l.86-.11.05-.02a.09.09 0 0 0-.02-.14 3.18 3.18 0 0 0-1.53-.4c-.05 0-.06.03-.04.07l.04.06c0 .02.02.02.04.02.11 0 .2.03.29.1.05.04.04.08-.03.1a66.91 66.91 0 0 1-1 .22c-.1-.04-.1-.08 0-.12l.1-.04.02-.03a.06.06 0 0 0-.01-.07l-.03-.02-.36-.05c-.08-.02-.1-.06-.08-.13l.03-.08c.02-.04 0-.1-.05-.15-.4-.46-.9-.58-1.5-.39a.17.17 0 0 1-.16-.02.38.38 0 0 1-.12-.15.24.24 0 0 0-.13-.12c-.16-.07-.36-.1-.58-.06a.17.17 0 0 0-.09.03.17.17 0 0 0-.05.08.2.2 0 0 1-.13.12c-.08.02-.11 0-.1-.08.04-.38-.04-.58-.23-.6-.38-.02-.41-.14-.1-.35.29-.2.57-.15.85.12.04.05.1.07.16.08.37.03 1.05.11 2.03.25.25.04.48.02.69-.06.17-.06.42-.11.72-.15.07 0 .12.02.16.07.1.15.24.24.4.28.1.03.16.09.19.18l.02.06c.03.08 0 .13-.09.13l-.43.02c-.1 0-.1.03-.03.09l.44.28h.05a.65.65 0 0 1 .05-.03.07.07 0 0 1 .06 0c.06.02.08.06.05.12s-.01.1.06.14c.38.16 1.26.39 1.5.95a1.87 1.87 0 0 0 .48.65.07.07 0 0 0 .07-.01l.02-.03c.39-.68.04-1.13-.6-1.66a.18.18 0 0 0-.16-.04c-.13.03-.2.01-.23-.07-.02-.07-.06-.1-.13-.1-.35.01-.64-.12-.86-.4a.3.3 0 0 1-.07-.16.42.42 0 0 0-.09-.21.25.25 0 0 0-.15-.1c-.21-.05-.33-.14-.37-.27-.02-.07-.06-.1-.13-.08-.11.03-.2.04-.28.03-.13-.02-.46 0-1 .07-.2.03-.79-.03-1.77-.18a.4.4 0 0 0-.2.01c-.27.1-.5.02-.7-.23a.25.25 0 0 0-.16-.09l-.42-.07a.4.4 0 0 1-.1-.03c-.08-.04-.1-.08-.07-.13a.07.07 0 0 1 .07-.03c.37.01.8-.06 1.3-.22.07-.02.07-.06 0-.1a1.1 1.1 0 0 0-.42-.17c-.1-.02-.11-.06-.02-.13l.12-.09a.32.32 0 0 1 .27-.05c.57.17 1.03.01 1.56-.15.08-.03.1-.08.06-.15l-.05-.08c-.04-.07-.02-.11.06-.13.1-.03.17-.06.2-.1a.12.12 0 0 0 .02-.1.08.08 0 0 0-.04-.06.09.09 0 0 0-.07-.01 1.08 1.08 0 0 1-.56 0 .02.02 0 0 1 0-.02l.03-.07.03-.03.05-.01c.35.07.66.02.94-.17.15-.1.28-.08.37.09.09.16.18.24.26.23.09 0 .13-.05.13-.12v-.07c.01-.08.06-.1.15-.1.24.04.43.11.57.2l.48.34a4 4 0 0 0 .59.2c.1.03.17.03.24 0 .11-.05.19-.1.22-.16a.1.1 0 0 1 .12-.04c.03 0 .05.01.06.03.07.05.06.1-.02.13-.03.01-.05.02-.06.04-.02.04 0 .07.03.09l.4.17c.2.08.24.03.13-.15-.12-.2-.44-.56-.71-.43-.07.04-.12.04-.17.03l-.33-.13a.2.2 0 0 0-.17.02.4.4 0 0 1-.33 0c-.26-.1-.25-.16.02-.22.16-.03.38-.1.63-.2.06-.02.08-.06.06-.12 0-.03-.04-.05-.1-.04-.36.04-.7.07-1.04.12a.1.1 0 0 1-.07-.02.1.1 0 0 1-.04-.06l-.01-.06c-.01-.04 0-.06.04-.07l1.27-.3c.05-.02.1-.04.13-.08l.2-.2a.13.13 0 0 1 .08-.03c.03 0 .06 0 .09.02l.16.13c.06.05.13.05.2.02.4-.2.95-.28 1.41-.05.17.09.4.15.69.17.07.01.12.04.17.08.17.18.34.28.52.31.05.01.1.04.16.1.04.03.07.08.1.16.04.07.1.1.18.1l.77-.03c.08 0 .15.02.21.08l.17.17c.05.05.1.06.15.03l.2-.11h.03l.03.01c.01.01.02.03.01.04l-.01.03c-.12.11-.17.26-.14.46a.25.25 0 0 1-.08.21.25.25 0 0 1-.23.06c-.48-.1-.92-.06-1.33.15-.27.13-.54.1-.83.2a.2.2 0 0 1-.15-.02.2.2 0 0 1-.1-.1l-.07-.2a.13.13 0 0 0-.11-.08l-.08.02a142.1 142.1 0 0 1-.48 1.05c-.13.33-.14.7-.03 1.12.02.06.05.07.1.04l.17-.1a.1.1 0 0 0 .05-.05.1.1 0 0 0 0-.07c-.18-.39-.16-.77.08-1.14.04-.06.09-.1.16-.12l2.24-.53c.06-.02.11 0 .16.02.16.09.33.14.5.15a.2.2 0 0 0 .17-.07l.3-.33a.1.1 0 0 0 .02-.07c0-.02 0-.05-.02-.07a.2.2 0 0 0-.15-.08c-.13 0-.15-.05-.05-.12.3-.23.55-.32.75-.28.2.05.4.08.61.11.05 0 .1.02.13.05.1.08.24.05.41-.08.07-.05.13-.05.19.01.25.27.54.4.86.4.19 0 .38.04.57.13l.54.26c.28.18.47.17.8.24.3.05.5.25.72.35.42.19.39.3-.09.32a4.5 4.5 0 0 0-.9.13.34.34 0 0 1-.18 0 1.15 1.15 0 0 0-.5-.02c-.35.06-.56.4-1.02.28a.17.17 0 0 0-.16.04l-.14.12a.2.2 0 0 1-.14.05c-.2-.02-.32.12-.38.4-.02.08.01.11.09.1a.97.97 0 0 0 .67-.4.11.11 0 0 1 .1-.04l.68.11a.1.1 0 0 0 .12-.06.1.1 0 0 0 0-.04.48.48 0 0 0-.03-.13c-.03-.07 0-.11.07-.14.22-.08.42-.11.6-.1a.08.08 0 0 1 .08.05.2.2 0 0 1 0 .1c0 .03 0 .05.05.05l.34-.02a.09.09 0 0 1 .07.03.08.08 0 0 1 .02.07l-.02.15c-.02.09-.08.13-.17.12-.14-.02-.23 0-.3.04-.06.06-.05.1.03.12.25.09.5.13.71.14.08 0 .28-.04.58-.14.29-.08.57 0 .84.27.06.05.05.1-.01.14-.03.02-.07.02-.14.01-.12-.01-.13-.04-.04-.1.03-.01.04-.04.01-.07a.21.21 0 0 0-.1-.08.72.72 0 0 0-.45 0c-.06.02-.08.05-.07.1l.02.07c.02.02.04.03.07.03.1-.01.22 0 .33.02.11.03.12.07 0 .1l-.73.28c-.2.07-.2.13 0 .18.05.01.15 0 .3-.05a.21.21 0 0 1 .17.02c.18.1.39.12.63.08.08-.02.12.01.14.09l.04.16c.01.04 0 .06-.05.05l-.87-.14a.02.02 0 0 0-.02 0 .02.02 0 0 0 0 .02.3.3 0 0 0 0 .04c0 .02 0 .03.02.04.02 0 .04 0 .06.02.03 0 .05.03.06.07.01.17.1.29.26.36.05.03.07.07.05.12-.03.1-.02.16.05.19Z" fill="#212121"/><path d="m39.1 15.51-.02.68a.2.2 0 0 0 .06.14.22.22 0 0 0 .16.06c.18 0 .37.04.57.12.03.01.05.03.05.06l.01.06c.01.04 0 .05-.04.05-.28 0-.55.06-.79.2l-3.7.45 1.21-.73c.16-.1.23-.22.19-.35-.02-.06-.07-.1-.14-.1a1.1 1.1 0 0 1-.36-.1.25.25 0 0 1-.12-.15c-.1-.26-.24-.67-.18-1.02.04-.2.04-.39 0-.57-.09-.44.11-1.7.67-1.96.8-.35 1.54-.6 2.29.04.26.22.44.48.54.78.06.2.05.5-.06.88-.13.48-.25.97-.34 1.46Z" fill="#463F39"/><path d="M41.74 16c0 .5.04 1 .11 1.48.14.98.04 1.58-.08 2.54-.02.16-.06.17-.12.01-.32-.83-.55-1.68-.7-2.56-.01-.09-.05-.1-.1-.02l-.5.64c.32-.81.5-1.61.54-2.4l-.02-2.6c0-.05.02-.07.07-.06.03.01.04.03.05.06l.75 2.92Z" fill="#5C5E57"/><path d="M39.1 15.51c-.01.23.02.43.09.63.02.07.08.12.16.13l.63.1a.22.22 0 0 0 .18-.05.18.18 0 0 0 .05-.08.17.17 0 0 0 0-.09.38.38 0 0 1 .03-.23c.03-.06.08-.1.15-.1.22-.02.38-.06.5-.12a7.28 7.28 0 0 1-.55 2.39c-.48.72-.94 1.33-1.38 1.82-.16.18-.4.33-.71.46-.06.02-.1.06-.1.12-.01.42-.36.56-.62.86-.05.05-.04.1.02.14.42.26.37.73.54 1.13a6.4 6.4 0 0 0-.42 1.43c-.33 2.28-.67 4.55-1.03 6.82-.01.07.01.1.08.13.15.05.31.05.5 0-.54.38-1.27.5-2.2.36-.34-.05-.55-.23-.65-.53-.01-.05-.04-.08-.07-.09-.03 0-.08.02-.12.08l-.12-.65a.47.47 0 0 1 0-.18 1 1 0 0 0-.17-.83c.11-.16.16-.34.15-.53a.28.28 0 0 0-.07-.16.57.57 0 0 1-.14-.41c.05-.75.23-1.4.53-1.94.13-.23.12-.49.24-.74a4.2 4.2 0 0 0 .5-1.63c0-.03 0-.06-.04-.09a.1.1 0 0 0-.08-.01.1.1 0 0 0-.08.04c-.06.11-.13.18-.2.2-.45.16-.69.41-1.18.61-.31.13-.6.3-.87.5l-.47-1.1a2.1 2.1 0 0 1-.17-1l.13-1.27a.2.2 0 0 1 .1-.16l1.01-.6c1.08-.21 2.08-.57 3.02-1.1 1.2-.65 2.35-1.77 3.4-2.75a.1.1 0 0 0 .02-.13.12.12 0 0 0-.05-.05.13.13 0 0 0-.08-.01l-.46.04c.24-.13.5-.2.79-.19.04 0 .05-.01.04-.05a.27.27 0 0 1-.01-.06c0-.03-.02-.05-.05-.06-.2-.08-.4-.11-.57-.12a.23.23 0 0 1-.16-.06.2.2 0 0 1-.06-.14l.02-.68Z" fill="#904B3E"/><path d="M41.74 16c.2.67.38 1.33.54 2 .06.2.03.59-.07 1.14a3.2 3.2 0 0 0-.04 1.05c.46 3.07.71 4.82.75 5.26.05.46.3.74.74.83l.08.05.02.08c-.03.37-.01.76.06 1.16.07.38-.12.54-.4.72a.44.44 0 0 0-.16.18.4.4 0 0 0-.03.23L45 41.2c.02.19-.07.28-.27.3-.19 0-.29-.09-.3-.27.12.03.19.02.22-.01a.35.35 0 0 0 .06-.26 24.5 24.5 0 0 0-.32-1.84c-.47-2.19-1.09-4.97-1.08-7.22 0-.46-.2-.85-.14-1.36 0-.07 0-.13-.03-.19-.09-.16-.16-.2-.15-.43l.02-1.3c0-.08-.04-.12-.1-.15a1.15 1.15 0 0 1-.38-.22.2.2 0 0 1-.07-.15l-.03-.65a.16.16 0 0 0-.03-.09.18.18 0 0 0-.08-.06c-.1-.04-.15-.03-.15.01-.18-.1-.3-.24-.4-.4a.24.24 0 0 1-.02-.17c.09-.35.1-.6.03-.75-.37-.82-.72-1.68-1.06-2.56a.33.33 0 0 1-.02-.18.67.67 0 0 0-.11-.53c-.2-.29-.18-.35-.12-.62 0-.07 0-.12-.05-.15-.06-.04-.11-.04-.15.03-.32.49-.27.92.14 1.3.04.04.07.1.07.16s-.02.12-.06.17c-.16.18-.26.33-.19.6.11.41.12.84.33 1.19.22.36.23.78.5 1.19.33.47 1.26 2 1.1 2.58-.06-.1-.15-.12-.27-.03a.14.14 0 0 0-.05.07 7.17 7.17 0 0 1 .16 2.54c0 .06-.04.11-.09.15-.74.64-2.68.57-3.6.41a.41.41 0 0 0-.2.02c-.15.06-.27.05-.37-.01-.07-.04-.12-.03-.15.03-.55.9-.62 1.75-.67 2.8-.07 1.38-.47 2.65-.59 4-.04.5-.34.98-.88 1.47-.3.27-.64.5-1.03.71l1.04-1.08c.04-.04.07-.09.08-.14a.27.27 0 0 0-.02-.16 2.33 2.33 0 0 1-.18-.88c0-.47-.26-1.07-.23-1.55.02-.34-.21-.62-.22-1.02 0-.63.01-1.05.03-1.25.02-.24-.12-.48-.08-.7.08-.37-.02-.68.06-.98a2.77 2.77 0 0 0-.72-2.75c.04-.06.09-.08.12-.08s.05.04.07.09c.1.3.31.48.65.53.93.14 1.66.02 2.2-.37l1.17-.71a5.68 5.68 0 0 0 1.82-1.07v-.04a.08.08 0 0 0-.03-.04.09.09 0 0 0-.04-.02l-1.44-.23a.18.18 0 0 1-.1-.04.16.16 0 0 1-.04-.07v-.1c0-.02.02-.05.05-.07a3.56 3.56 0 0 1 1.3-.7.19.19 0 0 0 .04-.07.18.18 0 0 0 0-.15c-.28-.64-.6-1.24-.92-1.8-.04-.07-.03-.17.02-.3.16-.36.1-.34-.05-.76-.27-.74-.57-1.48-.9-2.2-.18-.4-.13-.87-.55-1.13-.06-.04-.07-.09-.02-.14.26-.3.6-.44.62-.86 0-.06.04-.1.1-.12.31-.13.55-.28.71-.46.44-.5.9-1.1 1.38-1.82l.5-.64c.06-.08.1-.07.11.02.15.88.38 1.73.7 2.56.06.16.1.15.12-.01.12-.96.22-1.56.08-2.54-.07-.48-.1-.98-.1-1.47Z" fill="#463F39"/><path d="m39.1 16.87.46-.04.08.01.05.05a.1.1 0 0 1 .01.07l-.03.06c-1.05.98-2.2 2.1-3.4 2.76-.94.52-1.94.88-3.02 1.08l.6-.5c.05-.05.09-.1.1-.16.13-.4.25-.6.18-1.02-.07-.42.01-.81.25-1.18.09-.14.24-.27.45-.39.19-.1.38-.2.57-.28l3.7-.46ZM38.1 22.62l.29 7.66-1.17.71a.83.83 0 0 1-.5.01c-.07-.02-.1-.07-.08-.13.36-2.27.7-4.54 1.03-6.82.05-.37.19-.84.42-1.43Z" fill="#CA5042"/><path d="m38.39 30.28-.3-7.66c.34.72.64 1.46.91 2.2.15.42.2.4.05.76-.05.13-.06.23-.02.3a20.14 20.14 0 0 1 .94 1.88c0 .02 0 .05-.02.07a.19.19 0 0 1-.05.06 3.56 3.56 0 0 0-1.3.7.16.16 0 0 0-.04.09v.09c0 .02.02.05.05.07.02.02.05.04.09.04l1.44.23c.02 0 .03 0 .04.02.02 0 .02.02.03.04v.04l-.02.04c-.53.44-1.12.79-1.8 1.03Z" fill="#904B3E"/><path d="M33.9 29.16c-.04-.3-.14-.6-.3-.88a.41.41 0 0 1-.05-.17l-.13-2.48c0-.07 0-.13.04-.19.13-.21.2-.36.23-.44.12-.3.02-.37-.3-.2l-.73.42a.08.08 0 0 1-.07 0 .06.06 0 0 1-.03-.03v-.03c0-.05.03-.1.09-.16.27-.2.56-.37.87-.5.5-.2.73-.45 1.18-.6.07-.03.14-.1.2-.2a.1.1 0 0 1 .08-.05.1.1 0 0 1 .08.01c.03.03.05.06.04.1-.08.37-.16.73-.26 1.1-.03.08-.1.25-.24.52-.12.25-.1.5-.24.74-.3.54-.48 1.19-.53 1.94 0 .14.04.28.14.4.04.05.07.11.07.17a.86.86 0 0 1-.14.53Z" fill="#463F39"/><path d="M44.42 41.23c-.19-.65-.19-1.38-.31-1.97a222.3 222.3 0 0 1-1.57-9.64s-.04-.12-.03-.18c.05-.28 0-.55-.15-.8a.16.16 0 0 1-.02-.06l-.17-1.27c0-.04.05-.05.15 0 .03 0 .06.02.08.05.02.03.03.05.03.09l.03.65c0 .06.03.1.07.15.13.1.25.18.37.22.07.03.1.07.1.14.01.32 0 .76-.01 1.31 0 .22.15.43.15.43a136.57 136.57 0 0 0 1.57 10.61.35.35 0 0 1-.06.26c-.03.03-.1.04-.23 0Z" fill="#5C5E57"/><path d="M42.16 29.17c.02.23.1.72.23 1.48.17.98-.16 1.61-.99 1.9-.3.1-.83.14-1.57.13-.8 0-1.32-.02-1.59-.03-.36-.01-.6.14-.7.45-.28.74-.39 1.5-.33 2.27.02.42 0 .8-.08 1.1-.14.55-.31 1.1-.35 1.7a59.1 59.1 0 0 0-.1 2.1c0 .25.08.46.24.62.02.02.04.05.04.08s0 .05-.02.08c-.18.26-.24.36-.6.42-.3.05-.56.13-.77.25-.61.32-1.06.35-1.6.17-.3-.1-.3-.2-.01-.32.12-.05.28-.13.46-.24.39-.2.73-.44 1.03-.71.54-.49.84-.98.88-1.48.12-1.34.52-2.6.59-3.99.05-1.05.12-1.9.67-2.8.03-.06.08-.07.15-.03.1.06.22.07.36.01a.41.41 0 0 1 .2-.02c.93.16 2.87.23 3.61-.4.05-.05.08-.1.09-.17a7.17 7.17 0 0 0-.16-2.53.15.15 0 0 1 .05-.07c.12-.09.2-.08.27.03Z" fill="#212121"/><path d="M37.82 22.16c-.44 1.33-.8 2.41-1.06 3.26-.07.23-.13.36-.17.42-.26.32-.35.28-.27-.11.07-.32.13-.57.2-.75a53.64 53.64 0 0 0 1.04-3.31l.04-.02h.05l.03.04.1.16a.36.36 0 0 1 .04.3Z" fill="#CA5042"/><path d="M40.65 29.45c.05 0 .1.04.13.11.24.55.44 1.12.61 1.7.02.08 0 .15-.07.2-.2.16-.4.24-.58.25-.19 0-.39-.07-.6-.21-.08-.05-.1-.12-.1-.2.14-.59.3-1.16.5-1.73.02-.08.06-.12.11-.12Z" fill="#904B3E"/></svg>