<?xml version='1.0' encoding='utf-8'?>
<!-- by TradeStack -->
<svg width="56" height="56" viewBox="0 0 56 56" xmlns="http://www.w3.org/2000/svg"><path fill="#01336E" d="M0 0h56v56H0z" /><path d="M17.81 21.73c2.63-.4 5.26-.66 7.9-.8.07 0 .13-.03.17-.07a.3.3 0 0 0 .1-.16 1.8 1.8 0 0 0-.7-1.9c-.64-.53-.53-2.05-.35-2.77.88-3.59 6.2-2.05 5.43 1.73-.2 1.01-1.55 1.78-1.16 2.83.02.08.08.14.14.18.07.05.14.07.22.06 1.98-.12 6.52-.14 8.05 1.35a8.72 8.72 0 0 1 1.68 2.27c.26.51.33 1.15.5 1.75.04.12.1.13.17.03a20.7 20.7 0 0 0 2.07-3.26.12.12 0 0 0-.03-.09.11.11 0 0 0-.04-.03l-1.2-.41a.26.26 0 0 1-.17-.16.27.27 0 0 1 .03-.24c.76-1.2 1.44-2.82 2.84-3.36 1.5-.59 1.74.9 1.41 1.99-1.07 3.6-3.52 6.32-5.97 9.32a6.08 6.08 0 0 1-1.59 1.4.16.16 0 0 1-.18 0l-.96-.68a.15.15 0 0 1-.06-.12.16.16 0 0 1 .05-.12c.79-.7 1.49-1.47 2.1-2.34a.34.34 0 0 0 .05-.24c-.64-5.1-3.68-5.13-7.72-4.2-.07 0-.1.05-.1.13.21 3.2-.32 4.82 2.2 7.22a16.61 16.61 0 0 1 4.17 5.83c.5 1.25 3.2 7.01.66 7.13-1.39.07-1.7-2.59-1.92-3.56a13.08 13.08 0 0 0-5.72-7.97c-.99-.62-1.74-.63-2.85-.18-.97.39-2.49 2.14-3.1 3a15.24 15.24 0 0 0-2.61 6.44c-.26 1.56-2.34 1.88-2.24.22a16.78 16.78 0 0 1 3.2-8.75c.74-.96 1.55-1.52 2.27-2.33 1.35-1.54.7-5.54.43-7.42 0-.07-.05-.1-.11-.1-1.12-.04-2.28-.22-3.32-.13-1.2.1-2.38.33-3.55.67-.06.01-.09.06-.07.12.32 1.1.49 2.2.5 3.33.01.05 0 .09-.03.12a.18.18 0 0 1-.1.07l-.97.24c-.1.03-.17-.01-.2-.1-1.02-2.7-1.21-5.65-1.94-8.46-.02-.07-.06-.1-.14-.1l-1.23-.01a.58.58 0 0 1-.39-.16.61.61 0 0 1-.2-.37c-.08-.76-.72-2.16.57-2.29 1.65-.16 3.2-.18 4.83-.54.04 0 .1 0 .13.03.04.02.07.06.08.11l.46 1.98c.02.06 0 .12-.02.18a.23.23 0 0 1-.15.1l-1.53.38c-.33.08-.48.3-.45.64.08.84.25 1.67.5 2.47.03.08.08.11.16.1Z" fill="#fff" /></svg>