<!-- by TradeStack --><svg width="56" height="56" viewBox="0 0 56 56" xmlns="http://www.w3.org/2000/svg"><path fill="#F0F3FA" d="M0 0h56v56H0z"/><path d="M12.84 22.77 12 17.91A391.28 391.28 0 0 0 39.03 13c.66 1.42 1.97 4.79 1.97 6.94A105.06 105.06 0 0 1 13.47 25l-.63-2.23Z" fill="url(#amqx5r4s2)"/><path d="M35 30.34c.04-2.24-.63-5.83-.97-7.34-9.83 2.4-17.3 3.22-19.8 3.33-.23 1.76-.48 5.74.29 7.6 11.03.58 18.4-2.59 20.48-3.6Z" fill="url(#bmqx5r4s2)"/><path d="m14.02 29.1 20.98.75a29.03 29.03 0 0 0-.34-3.41l-15.78-.56c-2.13.27-3.73.4-4.65.45-.09.67-.18 1.68-.21 2.77Z" fill="url(#cmqx5r4s2)"/><path d="M16.44 42.9c-1.11-2.23-1.42-5.43-1.44-6.75 7.19-.58 25.28-3.61 27.12-4.15 1.19.44 1.88 4.69 1.88 6.64-15.62 4.55-25.43 4.55-27.56 4.25Z" fill="url(#dmqx5r4s2)"/><path d="m43.43 34.46-27.23 7.9c-.43-1-.71-2.14-.9-3.2l20.65-5.99c3.18-.54 5.56-1 6.17-1.17.55.2 1 1.23 1.31 2.46Z" fill="url(#emqx5r4s2)"/><defs><linearGradient id="amqx5r4s2" x1="26.55" y1="15.38" x2="26.55" y2="23.43" gradientUnits="userSpaceOnUse"><stop stop-color="#602584"/><stop offset=".43" stop-color="#911F85"/><stop offset="1" stop-color="#702181"/></linearGradient><linearGradient id="bmqx5r4s2" x1="34.28" y1="28.49" x2="14.03" y2="29.46" gradientUnits="userSpaceOnUse"><stop offset=".01" stop-color="#CC7858"/><stop offset=".12" stop-color="#EB8458"/><stop offset=".39" stop-color="#CB694E"/><stop offset=".79" stop-color="#FFC5A8"/><stop offset="1" stop-color="#E8885A"/></linearGradient><linearGradient id="cmqx5r4s2" x1="34.27" y1="27.86" x2="14.34" y2="30.5" gradientUnits="userSpaceOnUse"><stop stop-color="#E8885A"/><stop offset=".21" stop-color="#FFC5A8"/><stop offset=".61" stop-color="#CB694E"/><stop offset=".89" stop-color="#F0B799"/><stop offset=".99" stop-color="#CC7858"/></linearGradient><linearGradient id="dmqx5r4s2" x1="44" y1="38.89" x2="15.95" y2="41.35" gradientUnits="userSpaceOnUse"><stop stop-color="#F7B972"/><stop offset=".15" stop-color="#D47F2F"/><stop offset=".61" stop-color="#F3E0C9"/><stop offset=".94" stop-color="#EEC57E"/></linearGradient><linearGradient id="emqx5r4s2" x1="43.43" y1="38.49" x2="16.24" y2="40.95" gradientUnits="userSpaceOnUse"><stop offset=".06" stop-color="#EEC57E"/><stop offset=".39" stop-color="#F3E0C9"/><stop offset=".81" stop-color="#D47F2F"/><stop offset="1" stop-color="#F7B972"/></linearGradient></defs></svg>