<?xml version='1.0' encoding='utf-8'?>
<!-- by TradeStack -->
<svg width="56" height="56" viewBox="0 0 56 56" xmlns="http://www.w3.org/2000/svg"><path fill="#F0F3FA" d="M0 0h56v56H0z" /><path d="M36.1 42h-6.78c.36-.17.82-.8 1-1.08l7.44-13.06-7.43-12.84a3.24 3.24 0 0 0-1-1.02h6.79c.61 0 1.19.33 1.5.87l7.13 12.1c.33.55.33 1.24.01 1.8l-7.14 12.35c-.31.55-.9.88-1.51.88Z" fill="#7B77B8" /><path d="M26.32 42h-6.78c.35-.17.81-.8 1-1.08l7.43-13.06-7.43-12.84a3.24 3.24 0 0 0-1-1.02h6.79c.62 0 1.19.33 1.5.87l7.14 12.1c.32.55.33 1.24 0 1.8l-7.14 12.35c-.31.55-.89.88-1.51.88Z" fill="#7B77B8" /><path d="M19.9 14h6.78c-.36.17-.82.8-1 1.08l-7.44 13.06 7.43 12.84c.38.58.83.92 1 1.02h-6.79c-.61 0-1.19-.33-1.5-.87l-7.13-12.1a1.78 1.78 0 0 1-.01-1.8l7.14-12.35c.31-.55.9-.88 1.51-.88Z" fill="#003162" /><path d="M29.68 14h6.78c-.35.17-.81.8-1 1.08l-7.43 13.06 7.43 12.84c.37.58.83.92 1 1.02h-6.79c-.62 0-1.19-.33-1.5-.87l-7.14-12.1a1.78 1.78 0 0 1 0-1.8l7.14-12.35c.31-.55.89-.88 1.51-.88Z" fill="#003162" /></svg>