<!-- by TradeStack --><svg width="56" height="56" viewBox="0 0 56 56" xmlns="http://www.w3.org/2000/svg"><path fill="#F0F3FA" d="M0 0h56v56H0z"/><path d="M16.8 26.63A30.37 30.37 0 0 0 4 29.75a97.43 97.43 0 0 1 13.87-1.25c6.4 0 8.53 2.5 19.2 2.5 8.53 0 13.5-3.33 14.93-5-2.49 1.04-8.32 3.13-11.73 3.13-4.27 0-16.54-2.5-23.47-2.5Z" fill="#255888"/><path d="M4 32.9c.69.2 2.68.55 5.16.55 3.09 0 8.76-2.72 11.86-4.9C24.1 26.36 29.78 22 33.9 22c.74 0 2.03.57 2.69.89.3.1.4.2.4.2l-.4-.2a8.03 8.03 0 0 0-2.7-.34c-3.09 0-7.21 5.45-11.34 7.63-4.12 2.18-9.8 3.82-13.4 3.82C5.55 34 4 32.9 4 32.9Z" fill="#AC162C"/><path d="M27.97 29.08C23.4 32.12 16.59 33.43 14 33.43c7.24 1.63 11.38-.54 15.52-2.72 4.14-2.18 8.48-8.17 11.38-8.17 1.29 0 2.24.37 3.1.55A8.26 8.26 0 0 0 40.9 22c-4.14 0-7.24 3.27-12.93 7.08Z" fill="#AC162C"/><path d="M27.12 33.45c-2.5.17-3.12 0-3.12 0 .35.19 1.45.55 3.12.55 2.07 0 6.75-.55 11.42-4.36 2.39-1.96 8.3-7.1 9.86-7.1 1.25 0 2.25.37 2.6.55A5.34 5.34 0 0 0 48.4 22c-5.7 0-12.98 10.9-21.28 11.45Z" fill="#3CA1D1"/></svg>