<!-- by TradeStack --><svg width="56" height="56" viewBox="0 0 56 56" xmlns="http://www.w3.org/2000/svg"><path fill="#F0F3FA" d="M0 0h56v56H0z"/><path fill="#293E9B" d="M13 13h30v30H13z"/><path fill-rule="evenodd" d="M21.12 31.26c.07 0 .12.05.13.12l.07 2.2c0 .07-.03.12-.1.16l-.94.5c-.69.38-1.36.75-2.14 1.01-1.02.35-1.76 1-2.5 1.64-.5.43-1 .86-1.58 1.2l-.02.02c-.52.3-1.02.6-1.04 1.33v2.4c0 .09.06.15.14.19.68.34 1.54-.03 2.17-.33.44-.2.9-.22 1.35-.24.4-.02.81-.04 1.2-.18.8-.3 1.55-.63 2.18-1.23.25-.23.52-.47.8-.7a8.74 8.74 0 0 0 1.98-2.17c.46-.83.42-2.09.37-3-.02-.4.27-.6.6-.7 2.2-.75 4.54-1.3 6.63.03.47.3.68.68.65 1.17-.06.89-.3 1.57-.73 2.07-.83.96-1.91 2.05-2.98 2.6-.58.3-1.14.65-1.67 1.06-1.07.8-2.23 1.43-3.38 2.06l-.69.38c-.17.09-.16.15.03.15h4.1c.19 0 .38-.04.56-.12a100.8 100.8 0 0 1 3.81-1.66c1.11-.46 2.7-1.3 3.54-2.12A5 5 0 0 0 35 36.14c0-1.63-1.14-2.84-2.72-3.22a5.5 5.5 0 0 1-1.25-.46 4.49 4.49 0 0 0-1.33-.4c-.96-.16-1.8-.24-2.5-.25a13 13 0 0 0-2.42.32c-.31.06-.54.2-.79.35l-.3.18a.22.22 0 0 1-.32-.2c.02-.24.09-.55.19-.77.33-.74.58-1.5.74-2.26.08-.37.33-.64.64-.82l2.14-1.22c.44-.25.76-.57 1.11-.91h.01l.12-.13c.11-.1.63-.15 1.54-.15.35 0 .48-.16.38-.5l-.02-.07a.79.79 0 0 0-.72-.55h-.48c-.64 0-1.33 0-1.87-.33a3.99 3.99 0 0 0-2.29-.53.34.34 0 0 0-.2.08c-.8.64-1.6 1.23-2.45 1.78-.4.25-.75.6-.77 1.11-.01.62-.07 1.73-.79 1.96a12 12 0 0 0-2.83 1.36 1.2 1.2 0 0 1-.73.2.2.2 0 0 1-.18-.3 145.82 145.82 0 0 1 6.28-5.67 3.65 3.65 0 0 0 1.37-1.89c.08-.24.33-.38.57-.52.2-.1.4-.22.51-.39.22-.32.41-.7.56-1.12.03-.08 0-.15-.06-.2l-.82-.66a.3.3 0 0 0-.27-.05c-.25.07-.5.12-.76.16-.9.16-1.6.55-2.37.99l-.13.07c-.66.38-1.32.75-1.96 1.2-.43.31-.93.58-1.5.83-.1.04-.19-.05-.15-.14.19-.53.51-.78 1.05-1.01 1.39-.6 2.67-1.4 3.95-2.2l.14-.08a8.63 8.63 0 0 1 2.12-.85 8.74 8.74 0 0 0 2.1-.83 8.2 8.2 0 0 0 3.12-3.32c.23-.43-.08-.95-.33-1.37l-.12-.21a.28.28 0 0 0-.1-.1.29.29 0 0 0-.15-.05h-4.38c-.12 0-.2.06-.23.17-.02.06-.04.12.02.15l.03.02c.7.04 1.26.23.7 1a13.74 13.74 0 0 1-3.03 3.03c-.54.4-1.06.83-1.57 1.27a90.3 90.3 0 0 1-2.44 2.04c-.32.27-.67.49-1.03.66-.5.24-.94.57-1.35 1-.27.29-.62.45-1.03.48-.63.05-1 .45-.74 1.1.23.57.59 1.1 1.08 1.6.35.33.87.2 1.27.05.62-.24 1.2-.42 1.74-.53.64-.13.7.01.2.42a13.7 13.7 0 0 0-2.02 1.87c-.45.5-1.04.87-1.65 1.18a3.3 3.3 0 0 0-1.76 2.2c-.06.3-.19.55-.38.77-.06.05-.06.11-.02.17.28.4.51.86.7 1.35a.3.3 0 0 0 .23.19c.5.07.96.2 1.41.4.4.17.83.25 1.25.31a.4.4 0 0 0 .24-.04 7.4 7.4 0 0 0 1.4-.9 16.83 16.83 0 0 1 2.52-1.7Zm4.3-5.55-.5.65c-.18.22.09.55.35.41l.76-.37c.1-.04.16-.14.16-.24v-.09a.65.65 0 0 0 0-.24.28.28 0 0 0-.26-.21l-.27-.01a.28.28 0 0 0-.23.1ZM17.7 39.13c-.23.23-.5.36-.83.41-.07 0-.11-.02-.14-.07-.1-.19-.06-.36.1-.51.7-.64 1.3-1.33 1.79-2.08.29-.45 1.8-2.29 2.38-1.41.04.07.05.15 0 .22a10.2 10.2 0 0 1-1.38 2.01c-.29.32-.65.54-1 .76-.33.2-.65.4-.92.67Zm3.23-21.06-.78-.75c-.06-.06-.06-.12-.02-.19.38-.63.86-1.11 1.44-1.45a.97.97 0 0 0 .43-.56.1.1 0 0 0-.08-.12l-.05.01c-.24.12-.49.18-.73.24s-.48.11-.7.22c-.53.26-1.1.5-1.73.72a.62.62 0 0 1-.4 0 2.39 2.39 0 0 1-.52-.22 2.3 2.3 0 0 0-.9-.3l-1.63-.1c-.45-.04-.84.09-1.18.4a.24.24 0 0 0 .04.38c.22.12.45.16.67.19.42.06.79.11.94.78l.09.45c.12.68.26 1.52.85 1.83.85.45 1.75.61 2.55-.01.5-.4 1.09-.76 1.65-1.1a.28.28 0 0 0 .06-.42Z" fill="#FFF036"/></svg>