<!-- by TradeStack --><svg width="56" height="56" viewBox="0 0 56 56" xmlns="http://www.w3.org/2000/svg"><path fill="#F0F3FA" d="M0 0h56v56H0z"/><path d="m16.98 33.3 1.2-1.78c-.08.04-.06.02.06-.05a69.14 69.14 0 0 1 11.25-9.9c1.18-.12 2.4-.12 3.68 0a56.43 56.43 0 0 0-9.49 6.89c-.87.78-1.74 1.65-2.6 2.62a10.6 10.6 0 0 0-1.6 1.98c-.7.86-1.24 1.82-1.65 2.89-.15.41-.35 1.38.05 1.72.55.47 1.59.48 2.26.4 1.04-.14 1.98-.34 2.82-.62a36.06 36.06 0 0 0 6.7-3.06 59.68 59.68 0 0 0 7.47-5.16c2.1-1.7 3.98-3.56 5.65-5.58.63-.78 4.1-5.46 1.2-5.72-1.87-.16-3.82.47-5.65 1.16-.81.3-1.63.66-2.45 1.07l-3.4-.38c1.72-.99 3.47-1.83 5.28-2.53 1.1-.43 2.22-.76 3.38-1.01 2.6-.56 6.13-.38 5.84 3.33-.02.25-.14.7-.37 1.36-.15.44-.35.87-.58 1.28a23.35 23.35 0 0 1-3.2 4.27 49.97 49.97 0 0 1-8.6 7.26 68.4 68.4 0 0 1-3.05 1.96 40.15 40.15 0 0 1-7 3.34c-1.74.63-3.87 1.15-5.73.9-1.7-.24-2.88-1.53-2.69-3.32.14-1.25.6-2.1 1.22-3.32Z" fill="#1D2088"/><path d="m32.49 19.78 3.39.38c1.1.27 1.9.6 2.4 1 2.34 1.85.9 4.18-.92 5.6a20.4 20.4 0 0 1-4.19 2.5 47.93 47.93 0 0 1-13.7 3.8 10.6 10.6 0 0 1 1.6-1.98c3.83-.6 7.48-1.67 10.94-3.2 1.4-.6 2.65-1.3 3.74-2.05a7.58 7.58 0 0 0 1.65-1.53c.2-.26.34-.54.4-.84.1-.43-.45-.94-.78-1.08a9.62 9.62 0 0 0-3.85-.81 18.6 18.6 0 0 0-3.68 0c-3.71.27-7.32.97-10.8 2.07a37.52 37.52 0 0 0-5.09 2.01c-1.24.6-2.24 1.2-3 1.77-.63.48-1.1.92-1.41 1.3-.5.64-.8 1.34 0 1.84.55.34 1.08.57 1.59.68 1.59.35 3.25.48 4.96.4a246 246 0 0 0 2.44-.12l-1.2 1.78c-1.3.06-2.25.08-2.87.06a22.1 22.1 0 0 1-3.13-.32c-2.08-.37-4.77-1.62-3.76-4.33.38-1.03 1.53-2.1 2.45-2.74 1.8-1.25 3.87-2.3 6.17-3.15a52.1 52.1 0 0 1 9.05-2.42c2.64-.45 5.18-.66 7.6-.62Z" fill="#0F9EA7"/></svg>