<!-- by TradeStack --><svg width="56" height="56" viewBox="0 0 56 56" fill="none" xmlns="http://www.w3.org/2000/svg">
<rect width="56" height="56" fill="#F0F3FA"/>
<path d="M27.2865 47C27.2865 47 30.9257 43.7265 37.5498 39.0305C37.7533 38.8692 37.9375 38.7013 38.1065 38.5284C40.5036 36.0764 37.6764 32.7731 33.0154 29.7585C34.1808 30.9324 33.442 32.2288 30.8546 34.2973C29.4277 35.5109 27.5017 36.9082 25.4513 38.6086C20.2769 42.8992 27.2865 47 27.2865 47Z" fill="#6EAFBD"/>
<path d="M38.1614 38.4709C41.5941 34.6307 42.5547 25.2831 37.3933 21.8776C33.1004 19.0451 31.8272 20.2938 29.8581 21.8201C26.4877 24.4331 26.6222 25.2202 27.9535 26.1968C33.0537 29.9381 41.5906 34.6341 38.1614 38.4709Z" fill="#095D67"/>
<path d="M28.7137 9C28.7137 9 25.0745 12.2735 18.4504 16.9695C18.2469 17.1308 18.0627 17.2987 17.8937 17.4716C15.4966 19.9236 18.3238 23.2269 22.9848 26.2414C21.8194 25.0676 22.5582 23.7712 25.1456 21.7027C26.5725 20.4891 28.4985 19.0918 30.5489 17.3914C35.7233 13.1003 28.7137 9 28.7137 9Z" fill="#6EAFBD"/>
<path d="M17.839 17.5291C14.4066 21.3693 13.4456 30.717 18.6074 34.1224C22.9003 36.955 24.1735 35.7062 26.1427 34.1799C29.513 31.567 29.3786 30.7798 28.0473 29.8032C22.9471 26.0615 14.4101 21.3656 17.839 17.5291Z" fill="#095D67"/>
</svg>
