<!-- by TradeStack --><svg width="56" height="56" viewBox="0 0 56 56" xmlns="http://www.w3.org/2000/svg"><path fill="#F0F3FA" d="M0 0h56v56H0z"/><path d="M28 30c1.85.68 6.99 3.81 11.66 10.23l.06.08a17 17 0 0 0-11.07-29.3l-.04.13c-.03.31-.1.75-.17 1.26A33.81 33.81 0 0 0 28 17V30Zm.14-19H28a17 17 0 1 0 10.76 30.16l-.1-.11C36.68 38.77 31.2 34 25.17 34c-2.72 0-4.58.3-5.17.5 1.75-2.7 5.53-9.69 6.57-17.32.34-2.53.95-4.62 1.57-6.18Z" fill="#56719F"/><path d="M33.37 33.45A21 21 0 0 0 28 30V17.01c0-1.12.13-2.36.28-3.45A12.07 12.07 0 0 1 37 25c0 3.3-1.39 6.28-3.63 8.45Zm-2.48 1.86A14.17 14.17 0 0 0 25.17 34c-2.72 0-4.58.3-5.17.5 1.75-2.7 5.53-9.69 6.57-17.32.2-1.44.47-2.73.8-3.86-.93-.21-1.89-.32-2.87-.32C17.6 13 12 18.37 12 25s5.6 12 12.5 12c2.34 0 4.52-.62 6.4-1.69Z" fill="#8393B1"/><path d="M29.09 30.5c-.44-.23-.8-.4-1.09-.5V17.01c0-.44.02-.9.06-1.37A9.64 9.64 0 0 1 32 23.5a9.72 9.72 0 0 1-2.91 7Zm-8.05 2.28c1.92-3.37 4.66-9.26 5.53-15.6.1-.78.24-1.52.39-2.22A8.58 8.58 0 0 0 23 14c-4.97 0-9 4.25-9 9.5 0 4.54 3.01 8.33 7.04 9.28Z" fill="#A8AEC0"/><path d="M23.56 27.67a6.5 6.5 0 1 1 2.98-10.27 42.12 42.12 0 0 1-2.98 10.27Z" fill="#DED5D6"/></svg>