<!-- by TradeStack --><svg width="56" height="56" viewBox="0 0 56 56" xmlns="http://www.w3.org/2000/svg"><path fill="#F0F3FA" d="M0 0h56v56H0z"/><path d="M28 21h11v8l-11-8Z" fill="#AFADB0"/><path d="m17 32 11 7v7l-11-7v-7Z" fill="#231F20"/><path d="M39 39.15v-4.98L28 27v7l4.25 2.5L28 39v7l11-6.85Z" fill="#AFADB0"/><path d="M17 21v6l11 7v-7l-8.31-6H17ZM17 19h11v1H17z" fill="#231F20"/><path fill="#AFADB0" d="M28 19h11v1H28z"/><path d="M28 18v-8l-3.28 3.46c.76.23 1.31.9 1.31 1.7a1.9 1.9 0 0 1-3.8 0c0-.27.06-.51.16-.73l-5.39-2V18h11Z" fill="#231F20"/><path d="M28 18v-8l3.28 3.46c-.76.23-1.31.9-1.31 1.7a1.9 1.9 0 0 0 3.8 0c0-.27-.06-.51-.16-.73l5.39-2V18H28Z" fill="#AFADB0"/></svg>