<?xml version='1.0' encoding='utf-8'?>
<!-- by TradeStack -->
<svg width="56" height="56" viewBox="0 0 56 56" xmlns="http://www.w3.org/2000/svg"><path fill="#FC3" d="M0 0h56v56H0z" /><path d="M9 39h4.67c0-1.18-.64-1.76-1.35-1.76a2.9 2.9 0 0 0-1.48.57c.8-1.43.77-2.63.65-3.04l2.83-1.44c2.62.2 3.86-1.09 4.15-1.75l1.26 1.5c.98 1.23-.55 2.24-1.44 2.58.96.53 3.09 1.66 3.92 1.97A1.8 1.8 0 0 1 23.38 39h4.1c0-.74-.28-2.23-1.45-2.26a3.55 3.55 0 0 0-2.12.5v-.79c0-1.07-1.52-.43-1.7-1.68-.18-1.26 2.1-1.76 2.27-2.51.15-.6-.84-1.51-1.35-1.89l7.08 2.96c.98-.67 3.1-1.9 3.74-1.43.63.46-.38 1.46-.97 1.9l5.08 3.44c.27.98 1.23 1.58 1.67 1.76h3.98c.03-.75.07-1.94-1.01-2.08-.86-.12-1.6.55-1.87.9-.83-.44-.04-1.3 0-1.8.03-.5-1.51-2.22-2.96-3.52-1.15-1.03-.35-1.55.19-1.68h1.67l5.02-4.87c.01.47.42 1.39 1.95 1.22 1.52-.18 1.4-2.02 1.15-2.92H45.4c-2.09 0-3.85 3.1-6.66 3.13-2.25.03-2.27-2.74-2-4.13l1.5.64c.66-.3.76-1.3.73-1.77-1.98 0-1.98-.7-2.04-.87-.06-.19-.03-.95 1.13-.98.92-.02 1.5.48 1.67.73.07-1.12.43-.82.5-1.64.05-.82-1.75-.91-2.36-1.18-.48-.22-.3-.44-.15-.52 0-.63-1.44-1.32-2.16-1.59.17-.44 1.51-.18 2.16 0-.43-1.04-2.6-1.33-3.32-.84-.59.39-2.05.72-2.7.84a10.32 10.32 0 0 0-3.27 3.64c.48-.2.74-.08.81 0a3.56 3.56 0 0 0-1.75 2.2c.45-.5 1.03-.3 1.26-.14-1.26.59-1.37 1.9-1.26 2.48.14-.61.69-.74.94-.73.29 1.57-2.45 3.84-6.74 2.1-3.42-1.4-6.34-.98-7.37-.6-2.14-.94-2.39-2.48-2.39-2.9 0-.42-.35-2.97 2.4-2.76 2.73.2 5.75 3.35 8.8 3.18 3.06-.17 2.99-2.83 2.4-3.18a1.49 1.49 0 0 1-.71-.91c.56-1.15-.38-1.53-.91-1.57.42.56-.18 1.28-.53 1.57.03 1.36 1.72 1.12 1.65 2.03-.07.9-2.5 1.68-4.95 0-2.46-1.68-4.46-2.55-5.76-2.55-1.3 0-4.07.24-4.07 3.84a6.08 6.08 0 0 0 2.6 5.14c-.83.56-1.3 2.3-.53 3.46.62.92 0 1.8-.39 2.13h-1.68c-1.1.03-1.29.88-1.24 1.3V39Z" fill="#231E24" /></svg>