<?xml version='1.0' encoding='utf-8'?>
<!-- by TradeStack -->
<svg width="56" height="56" viewBox="0 0 56 56" xmlns="http://www.w3.org/2000/svg"><path fill="url(#avu00tkrk)" d="M0 0h56v56H0z" /><path d="M27.7 24.6c-5.65.9-6.28 4.91-5.88 6.8-4.12 0-8.82-5.67-8.82-8.5 0-2.27 1.96-4.34 2.94-5.1-.4 1.88.27 3.11.84 3.7.13.12.33.02.33-.16v-2.97c0-2.27 1.57-4.73 2.35-5.67-.39 1.89-.47 5.67 2.36 5.67 2.82 0 2.35-4.91 1.76-7.37 2.94 0 3.52 5.1 5.88 5.1 1.88 0 3.91-3.4 4.7-5.1 1.17 2.27 0 3.4 0 4.53 0 1.14 0 1.7 1.76 2.27 1.41.45 5.29-1.32 7.05-2.27.59 9.64-8.23 7.94-15.28 9.07Z" fill="url(#bvu00tkrk)" /><path d="M43 33.67c0-4.99-5.7-8.13-8.55-9.07 0 6.23-6.28 8.5-14.26 8.5-6.4 0-6.47 4.91-5.7 7.37 2.08-.76 6.5-2.04 7.4-1.14 1.15 1.14 0 2.27 0 3.4 0 .91.39 1.9.58 2.27.95-1.51 3.2-4.53 4.56-4.53 1.71 0 1.71.56 2.28 2.26.46 1.36 2.47 2.08 3.42 2.27-1.14-3.4 0-7.37 2.29-7.37 1.82 0 1.9 3.78 1.7 5.67 4-1.7 1.15-8.5 2.29-8.5.91 0 1.14 2.64 1.14 3.97a7.17 7.17 0 0 0 2.85-5.1Z" fill="url(#cvu00tkrk)" /><defs><linearGradient id="avu00tkrk" x1="10.42" y1="9.71" x2="68.15" y2="76.02" gradientUnits="userSpaceOnUse"><stop stop-color="#1A1E21" /><stop offset="1" stop-color="#06060A" /></linearGradient><linearGradient id="bvu00tkrk" x1="31.81" y1="16.1" x2="17.02" y2="29.67" gradientUnits="userSpaceOnUse"><stop stop-color="#D42232" /><stop offset=".48" stop-color="#DF4B2D" /><stop offset="1" stop-color="#E96E20" /></linearGradient><linearGradient id="cvu00tkrk" x1="37.87" y1="25.73" x2="14.57" y2="40.6" gradientUnits="userSpaceOnUse"><stop stop-color="#D53D2F" /><stop offset="1" stop-color="#ED8C23" /></linearGradient></defs></svg>