<?xml version='1.0' encoding='utf-8'?>
<!-- by TradeStack -->
<svg width="56" height="56" viewBox="0 0 56 56" xmlns="http://www.w3.org/2000/svg"><path fill="#F0F3FA" d="M0 0h56v56H0z" /><path d="m22.99 35.28-3.99 6a16.64 16.64 0 0 0 18 .16l-3.88-6.08a9.32 9.32 0 0 1-10.13-.08Z" fill="#62B394" /><path d="m19.35 25.5-6.59-2.4c-.44 1.52-.75 3.2-.76 4.89-.01 1.6.25 3.2.68 4.63a18 18 0 0 0 5.38 8l4.12-5.75a8.98 8.98 0 0 1-2.83-9.37Z" fill="#422D75" /><path d="m36.65 25.5 6.59-2.4c.44 1.52.75 3.2.76 4.89.01 1.6-.25 3.2-.68 4.63a18 18 0 0 1-5.38 8l-4.12-5.75a8.98 8.98 0 0 0 2.83-9.37Z" fill="#E79A41" /><path d="M37.3 14.98A17.07 17.07 0 0 0 28.4 12v7a9.01 9.01 0 0 1 7.97 5.7l6.51-2.58a16 16 0 0 0-5.58-7.14Z" fill="#1E4671" /><path d="M18.56 15.08a16 16 0 0 0-5.5 7.2l6.53 2.5A9.03 9.03 0 0 1 27.5 19v-7a17.35 17.35 0 0 0-8.94 3.08Z" fill="#50A8DE" /></svg>