<!-- by TradeStack --><svg width="56" height="56" viewBox="0 0 56 56" xmlns="http://www.w3.org/2000/svg"><path fill="#F0F3FA" d="M0 0h56v56H0z"/><path d="m7 34 5.08-12h2.84L20 34h-2.69l-1.27-3h-5.08l-1.27 3H7Zm4.8-5h3.4l-1.7-4-1.7 4Z" fill="#818285"/><path fill-rule="evenodd" d="M22.25 22H20v12h3v-4h4a4 4 0 0 0 0-8h-4.75Zm.75 2v4h3a2 2 0 1 0 0-4h-3Z" fill="#818285"/><path d="M48 37h-1.77l-6.6-9.17h1.77L48 37ZM30.68 19H29l5.32 8.83L30.95 34h1.68L36 27.83 30.68 19ZM45 22h-1.77l-3.6 5.83h1.77L45 22Z" fill="#ED1C24"/><path d="M33.77 19H32l5.62 8.83L34 34h1.77l3.62-6.17L33.77 19Z" fill="#ED1C24"/><path d="M40.28 22H42l-3.6 5.89h-1.7L40.3 22ZM43 37h1.72l-6.32-9.11h-1.7L43 37Z" fill="#ED1C24"/><circle cx="38" cy="27.83" r=".83" fill="#fff"/></svg>