<!-- by TradeStack --><svg viewBox="0 0 56 56" xmlns="http://www.w3.org/2000/svg"><path fill="#F0F3FA" d="M0 0h56v56H0z"/><path d="m47.16 26 .91 3.81.87-3.81H51l-1.76 5.91C48.77 33.51 48.25 34 47 34c-.46 0-.92-.04-1.38-.1v-1.58h.57c.37 0 .64-.16.64-.37 0-.3-.16-.56-.2-.84L45 26h2.16ZM39 24h2v2.7c.54-.55 1-.7 1.62-.7 1.44 0 2.38 1.11 2.38 3 0 1.83-.94 3-2.39 3-.68 0-1.02-.18-1.61-.8v.8h-2v-8Zm3 3.65c-.58 0-1 .49-1 1.33 0 .85.44 1.35 1 1.35.57 0 1-.46 1-1.34 0-.85-.46-1.34-1-1.34ZM36.22 28c-.07-.53-.3-.75-.74-.75-.32 0-.48.17-.48.43 0 .33.46.44.7.52l1.07.27c.76.21 1.23.8 1.23 1.55 0 1.4-1.24 1.98-2.48 1.98-1.21 0-2.52-.65-2.52-2h1.76c.04.48.2.72.74.72.36 0 .5-.22.5-.49 0-.2-.12-.38-.6-.5-.55-.13-.93-.23-1.08-.28-.76-.22-1.2-.78-1.2-1.54 0-1.1 1-1.91 2.39-1.91 1.3 0 2.44.83 2.49 1.85V28h-1.78ZM30 31.35c-.55.52-.88.65-1.5.65-1.53 0-2.5-1.35-2.5-3.09 0-1.72.99-2.91 2.44-2.91 1.06 0 1.56.5 1.56.5V26h2v5.71c0 .59-.18 1.15-.49 1.52-.42.48-1.35.77-2.5.77-1.08 0-2.65-.28-2.74-1.6h2.18c.08.46.25.6.7.6.59 0 .85-.3.85-.96v-.69Zm-.93-3.73c-.58 0-1.07.48-1.07 1.29 0 .83.5 1.26 1.06 1.26.6 0 .94-.43.94-1.26 0-.86-.35-1.3-.93-1.3ZM19 26h2v.89c.41-.63.93-.89 1.76-.89 1.47 0 2.24.8 2.24 2.39V32h-2v-2.93c0-.71-.44-1.07-.96-1.07S21 28.43 21 29.07V32h-2v-6ZM16 26h2v6h-2v-6Z"/><path d="M19 23h-2.1l-.9 2h2.1l.9-2Z" fill="#90C762"/><path d="M13 23h2v9h-2v-9ZM7.44 29c.1.72.43.99 1.21.99.55 0 .81-.22.81-.61 0-.32-.17-.52-.74-.67-1.6-.45-3.72-.93-3.72-2.96C5 23.84 6.8 23 8.52 23c1.83 0 3.2 1.16 3.3 3H9.46c-.12-.54-.4-1-1-1-.54 0-.96.19-.96.53 0 .57 1.14.72 1.52.82 1.43.4 2.98.98 2.98 2.73C12 30.99 10.44 32 8.65 32c-1.98 0-3.52-.98-3.65-3h2.44Z"/></svg>