<!-- by TradeStack --><svg width="56" height="56" viewBox="0 0 56 56" xmlns="http://www.w3.org/2000/svg"><path fill="#F0F3FA" d="M0 0h56v56H0z"/><path d="M44 32H13c.2-8.32 7.06-15 15.5-15 8.44 0 15.3 6.68 15.5 15Z" fill="url(#a)"/><path d="M49 32c-3.6-12.32-14.7-15.8-20.15-16 12.16 1.34 17 11.22 17.46 16H49Z" fill="#3E318D"/><path d="M29.88 16.07C35.59 16.65 45.62 20.41 49 32h-1.91c-.9-4.8-5.48-14.35-17.21-15.93Z" fill="#2AB0D3"/><path d="M33.59 16.8C39.21 18.4 46.27 22.64 49 32h-1.23c-.8-4.36-4.91-12.36-14.18-15.2Z" fill="#EEF863"/><path d="M40.23 19.85A21.47 21.47 0 0 1 49 32h-.72c-.6-3.24-3.03-8.5-8.05-12.15Z" fill="#E98D20"/><path d="M48.8 33v1h-.08a1.18 1.18 0 0 0-.15-.46.72.72 0 0 0-.29-.27.85.85 0 0 0-.4-.1.55.55 0 0 0-.38.13.4.4 0 0 0-.15.3c0 .1.03.18.1.25.09.1.3.25.65.42.28.15.48.26.58.33.1.08.18.17.24.27a.73.73 0 0 1-.18.9.99.99 0 0 1-.69.23 1.51 1.51 0 0 1-.53-.1 1.3 1.3 0 0 0-.27-.06.12.12 0 0 0-.1.03.4.4 0 0 0-.04.13h-.08v-.98h.08c.04.2.1.36.16.46.06.1.16.19.3.25.13.07.28.1.44.1.18 0 .33-.04.43-.13.11-.1.16-.2.16-.33a.43.43 0 0 0-.06-.22.64.64 0 0 0-.19-.2 5.46 5.46 0 0 0-.47-.27 4.81 4.81 0 0 1-.55-.33.9.9 0 0 1-.25-.27.69.69 0 0 1 .16-.86.9.9 0 0 1 .64-.22c.16 0 .33.04.51.11a.4.4 0 0 0 .17.05c.04 0 .07 0 .1-.03a.31.31 0 0 0 .06-.13h.08ZM46 33h1v.08h-.05a.63.63 0 0 0-.35.2c-.06.06-.13.17-.22.3l-.68 1.15v.75c0 .18.02.3.06.35.05.06.13.09.25.09h.09V36h-1.2v-.08h.1c.11 0 .2-.04.25-.12.03-.04.04-.15.04-.32v-.71l-.78-1.26a2.5 2.5 0 0 0-.18-.27.71.71 0 0 0-.2-.14.27.27 0 0 0-.13-.02V33h1.22v.08h-.07a.36.36 0 0 0-.18.05.16.16 0 0 0-.08.15c0 .05.04.15.13.28l.6.97.55-.92a.7.7 0 0 0 .13-.31.2.2 0 0 0-.12-.19.39.39 0 0 0-.17-.03V33Zm-3.08 2.02h-1.1l-.19.46a.75.75 0 0 0-.07.26c0 .04.02.08.06.12.04.03.13.05.27.06V36H41v-.08c.12-.02.2-.05.23-.08.07-.07.15-.21.23-.43l1-2.41h.07l.98 2.44c.08.2.16.32.22.38s.15.1.27.1V36h-1.11v-.08c.1 0 .18-.03.22-.06a.15.15 0 0 0 .06-.12.92.92 0 0 0-.08-.3l-.17-.42Zm-.06-.16-.48-1.19-.49 1.19h.97ZM41 33v.08a.36.36 0 0 0-.18.04.4.4 0 0 0-.14.15l-.13.37-.8 2.36h-.08L39 34.12 38.36 36h-.07l-.86-2.44a4.1 4.1 0 0 0-.12-.32.27.27 0 0 0-.11-.12.4.4 0 0 0-.2-.04V33h1.06v.08h-.05a.29.29 0 0 0-.17.05.16.16 0 0 0-.06.13c0 .05.03.16.1.35l.56 1.64.48-1.4-.09-.24-.07-.2a1.08 1.08 0 0 0-.1-.2.26.26 0 0 0-.06-.06.38.38 0 0 0-.11-.06.45.45 0 0 0-.13-.01V33h1.12v.08h-.08a.29.29 0 0 0-.17.05.18.18 0 0 0-.05.14c0 .08.03.2.1.39l.54 1.6.55-1.62c.06-.18.09-.3.09-.38a.15.15 0 0 0-.03-.09.16.16 0 0 0-.08-.06.6.6 0 0 0-.2-.03V33H41Zm-8 3v-.08h.11c.13 0 .22-.04.27-.12a.74.74 0 0 0 .05-.33v-1.94c0-.19-.02-.3-.06-.35-.06-.07-.15-.1-.26-.1H33V33h1.21c.45 0 .79.05 1.02.15.23.1.42.27.56.51.14.24.21.51.21.82 0 .42-.13.77-.38 1.05-.28.31-.71.47-1.29.47H33Zm.85-.22c.19.04.34.07.47.07.34 0 .62-.13.84-.37.23-.24.34-.56.34-.97 0-.42-.11-.74-.34-.98a1.13 1.13 0 0 0-.86-.36 2 2 0 0 0-.45.06v2.55Zm-1.93-.76h-1.1l-.19.46a.75.75 0 0 0-.07.26c0 .04.02.08.06.12.04.03.13.05.27.06V36H30v-.08c.12-.02.2-.05.23-.08.07-.07.15-.21.23-.43l1-2.41h.07l.98 2.44c.08.2.16.32.22.38s.15.1.27.1V36h-1.11v-.08c.1 0 .18-.03.22-.06a.15.15 0 0 0 .06-.12.92.92 0 0 0-.08-.3l-.17-.42Zm-.06-.16-.48-1.19-.49 1.19h.97ZM28.53 33c.4 0 .74.14 1.03.43.3.28.44.63.44 1.05A1.48 1.48 0 0 1 28.49 36a1.46 1.46 0 0 1-1.5-1.51c.01-.46.18-.83.5-1.12.3-.25.64-.37 1.04-.37Zm-.04.15c-.28 0-.5.1-.66.29-.2.24-.31.58-.31 1.04 0 .47.1.83.32 1.08.16.2.38.29.65.29.29 0 .52-.1.71-.32.19-.2.28-.54.28-.99 0-.5-.1-.86-.3-1.1a.86.86 0 0 0-.7-.29ZM27 36h-1.07l-1.36-1.87h-.43v1.16c0 .25.03.41.09.47.07.09.19.13.34.13h.15V36H23v-.1h.15c.17 0 .3-.06.37-.17.04-.07.06-.21.06-.44v-2.58c0-.25-.03-.41-.08-.47-.08-.09-.2-.13-.35-.13H23V32h1.46c.43 0 .75.03.95.1.2.06.37.17.51.34.15.16.22.36.22.59a.9.9 0 0 1-.25.64c-.16.18-.4.3-.74.38l.83 1.15c.19.26.35.44.49.53.13.08.31.14.53.16V36Zm-2.86-2.06h.17c.38 0 .67-.08.87-.24.2-.17.29-.38.29-.63a.81.81 0 0 0-.24-.61.84.84 0 0 0-.62-.24c-.11 0-.27.02-.47.06v1.66ZM22 36h-.8l-1.03-1.4h-.31v.87c0 .19.02.3.06.35.06.07.14.1.25.1h.12V36H19v-.08h.11c.13 0 .22-.04.28-.13.03-.04.04-.15.04-.32v-1.94c0-.19-.02-.3-.06-.35-.06-.07-.14-.1-.26-.1H19V33h1.1c.32 0 .55.02.7.07a.8.8 0 0 1 .4.26c.1.12.15.27.15.44a.7.7 0 0 1-.18.48 1 1 0 0 1-.56.29l.62.86c.15.2.27.33.37.4.1.06.24.1.4.12V36Zm-2.14-1.54h.12c.3 0 .5-.06.65-.19a.6.6 0 0 0 .22-.47.61.61 0 0 0-.18-.45.63.63 0 0 0-.46-.18c-.09 0-.2.01-.35.04v1.25Zm-1.94.56h-1.1l-.19.46a.75.75 0 0 0-.07.26c0 .04.02.08.06.12.04.03.13.05.27.06V36H16v-.08c.12-.02.2-.05.23-.08.07-.07.15-.21.23-.43l1-2.41h.07l.98 2.44c.08.2.16.32.22.38s.15.1.27.1V36h-1.11v-.08c.1 0 .18-.03.22-.06a.15.15 0 0 0 .06-.12.92.92 0 0 0-.08-.3l-.17-.42Zm-.06-.16-.48-1.19-.49 1.19h.97Zm-1.94.31.08.02-.3.81H13v-.08h.13c.15 0 .25-.04.32-.13.03-.04.05-.15.05-.32v-1.94c0-.19-.02-.3-.07-.35-.07-.07-.17-.1-.3-.1H13V33h1.58v.08c-.19 0-.32.02-.4.05a.3.3 0 0 0-.14.11.84.84 0 0 0-.04.34v1.89c0 .12 0 .2.04.25.02.03.05.05.1.07.04.01.17.02.4.02h.25c.27 0 .45-.02.56-.05.11-.04.2-.1.3-.18.09-.09.18-.22.27-.41ZM11.53 33c.4 0 .74.14 1.03.43.3.28.44.63.44 1.05A1.48 1.48 0 0 1 11.49 36a1.46 1.46 0 0 1-1.5-1.51c.01-.46.18-.83.5-1.12.3-.25.64-.37 1.04-.37Zm-.04.15c-.28 0-.5.1-.66.29-.21.24-.31.58-.31 1.04 0 .47.1.83.32 1.08.16.2.38.29.65.29.29 0 .52-.1.71-.32.19-.2.28-.54.28-.99 0-.5-.1-.86-.3-1.1a.86.86 0 0 0-.7-.29ZM9.2 32v1.33h-.1c-.04-.26-.1-.46-.18-.6a.92.92 0 0 0-.36-.37.96.96 0 0 0-.48-.13.64.64 0 0 0-.47.18.55.55 0 0 0-.18.4c0 .12.04.23.12.33a3 3 0 0 0 .8.56c.34.2.57.34.7.44a1.03 1.03 0 0 1 .39.8 1 1 0 0 1-.32.75c-.22.2-.5.31-.84.31a1.7 1.7 0 0 1-.65-.13 1.47 1.47 0 0 0-.33-.09.14.14 0 0 0-.1.05c-.03.02-.05.08-.06.17h-.1v-1.3h.1c.04.26.1.47.18.6.08.14.2.26.37.35.16.09.34.13.54.13.22 0 .4-.06.53-.19a.58.58 0 0 0 .12-.72.82.82 0 0 0-.23-.27 6.5 6.5 0 0 0-.57-.35 5.78 5.78 0 0 1-.68-.44 1.25 1.25 0 0 1-.3-.36A.92.92 0 0 1 7 33c0-.27.1-.5.3-.7.2-.2.46-.3.78-.3.19 0 .4.05.62.15l.2.07c.06 0 .1-.02.12-.05A.33.33 0 0 0 9.1 32h.1Z"/><path d="M7.2 32C10.79 19.68 22.56 16.2 28 16a18.18 18.18 0 0 0-16.57 16H7.2Z" fill="url(#b)"/><path d="M13.5 23.6c-.53.62-1.05 1.27-1.36 1.67l-.35-.26c.31-.4.83-1.06 1.37-1.68.54-.62 1.1-1.23 1.5-1.54l.27.33c-.36.29-.9.86-1.43 1.49Zm4.29-3.88c-.47.32-.9.68-1.15.9l-.2-.23c.25-.23.7-.58 1.17-.92.47-.33 1-.66 1.42-.8l.1.28a6.1 6.1 0 0 0-1.34.77ZM9.8 30.3a30 30 0 0 0-.53 1.87l-.43-.1a36.02 36.02 0 0 1 .85-2.83c.1-.26.21-.5.32-.63l.35.26a2.3 2.3 0 0 0-.26.53c-.1.25-.2.57-.3.9Z" fill="#fff"/><defs><linearGradient id="a" x1="28.5" y1="17" x2="28.5" y2="32" gradientUnits="userSpaceOnUse"><stop stop-color="#FCFD02"/><stop offset=".78" stop-color="#F9C82E"/><stop offset="1" stop-color="#EEE0C5"/></linearGradient><linearGradient id="b" x1="17.6" y1="16" x2="17.6" y2="32" gradientUnits="userSpaceOnUse"><stop offset=".85" stop-color="#3F6016"/><stop offset="1" stop-color="#C9D1C7"/></linearGradient></defs></svg>