<?xml version='1.0' encoding='utf-8'?>
<!-- by TradeStack -->
<svg width="56" height="56" viewBox="0 0 56 56" xmlns="http://www.w3.org/2000/svg"><path fill="#F0F3FA" d="M0 0h56v56H0z" /><path d="m24.87 25.24-12.29 6.88a.08.08 0 0 0-.03.1l.58 1.26c.04.07.02.12-.05.15l-1.78.81a.09.09 0 0 1-.07 0 .09.09 0 0 1-.05-.04 16.56 16.56 0 0 1 1.35-14.91 18.26 18.26 0 0 1 19.25-8.1c11.71 2.45 18.16 15.56 11.6 26.1-.03.05-.07.06-.11.03l-1.67-.96a.1.1 0 0 1-.04-.06.1.1 0 0 1 0-.07 15.36 15.36 0 0 0 2.01-5.18.12.12 0 0 0-.05-.05l-4.47-2.54a.18.18 0 0 0-.16-.01l-4 1.62a.15.15 0 0 1-.13 0l-9.74-5.03a.16.16 0 0 0-.15 0Zm.16-2.75 9.68 5.77c.05.03.1.03.15.01l3.98-1.63a.24.24 0 0 1 .2.01l4.67 2.63a.09.09 0 0 0 .09 0 .09.09 0 0 0 .04-.07 15 15 0 0 0-4.72-11.66c-9.79-9.5-27-3.03-27.02 11.07 0 .25.02.5.05.74.01.06.04.08.1.05l12.61-6.92c.06-.03.11-.03.17 0Z" fill="#96989A" /><path d="M24.97 21.9a.04.04 0 0 0-.04 0L12.7 28.6a.07.07 0 0 1-.07 0 .07.07 0 0 1-.03-.06 15.18 15.18 0 0 1 16.14-14.98c8.07.44 14.47 6.62 14.64 14.86a.06.06 0 0 1-.06.07l-.03-.01-4.24-2.4a.15.15 0 0 0-.13 0l-4 1.64a.15.15 0 0 1-.15 0l-9.79-5.83Z" fill="#6D83AB" /><path d="M18.8 34.53c.64.22 1.43.18 2.12.24 1.34.12 1.37 1.62.23 2.02a3.5 3.5 0 0 1-2.9-.23.27.27 0 0 0-.17-.03l-.26.04c-.1.02-.13-.02-.07-.1l.43-.65a.13.13 0 0 1 .12-.06c.1 0 .15.1.1.19-.01.04 0 .08.04.1.67.42 2.29.77 2.82.04.36-.5-.15-.8-.62-.81-.65-.02-1.9-.02-2.38-.46-.5-.45-.31-1.13.23-1.47.86-.53 2.16-.4 3.02 0 .05.02.1.01.14-.02a.32.32 0 0 1 .2-.05c.09 0 .1.04.06.11l-.43.71c-.04.07-.1.07-.15.02-.06-.06-.07-.13-.05-.22.01-.04 0-.08-.05-.1a2.7 2.7 0 0 0-2.3-.1c-.38.15-.45.4-.24.75a.2.2 0 0 0 .11.08ZM31.63 36.52h1.93c.05 0 .09-.02.12-.05l.12-.14c.1-.12.16-.1.16.06v.74c0 .1-.04.13-.13.08a.25.25 0 0 1-.11-.12.12.12 0 0 0-.12-.08h-2.74c-.08 0-.1-.04-.06-.1l.15-.3a.3.3 0 0 0 .04-.14V33.9a.2.2 0 0 0-.05-.13l-.14-.2c-.06-.08-.04-.12.06-.12h2.65c.05 0 .1-.02.14-.05l.16-.13c.1-.07.15-.05.14.08l-.04.73c0 .11-.05.13-.12.05l-.12-.13a.2.2 0 0 0-.15-.07l-1.83.01a.14.14 0 0 0-.1.05.14.14 0 0 0-.04.1v.77c0 .06.03.09.09.09l1.12-.01a.2.2 0 0 0 .15-.06l.16-.15c.08-.07.13-.06.13.06v.76c0 .14-.05.17-.16.06l-.13-.13a.18.18 0 0 0-.13-.06h-1.15c-.06 0-.08.03-.08.08v.95c0 .05.02.08.08.08ZM22.61 33.7a.26.26 0 0 1-.16-.15c-.03-.08 0-.12.08-.12h.83c.1 0 .13.04.06.13l-.13.19a.23.23 0 0 0-.05.14v2.69c0 .05.02.1.05.13l.15.15c.09.09.07.13-.05.13l-.88.01c-.12 0-.14-.04-.06-.13l.17-.2c.04-.04.06-.09.06-.15V33.8c0-.05-.02-.08-.07-.1ZM24.88 36.56c.73-.1 1.5.12 2.14-.22.05-.02.07 0 .07.05v.76c0 .08-.03.1-.1.07a.3.3 0 0 1-.13-.14.14.14 0 0 0-.13-.08h-2.71c-.02 0-.04 0-.05-.02a.09.09 0 0 1-.03-.04.1.1 0 0 1 .01-.1l.15-.16c.04-.05.06-.1.06-.16v-2.69a.15.15 0 0 0-.09-.14.2.2 0 0 1-.11-.16c-.01-.07.02-.1.09-.1h.78a.1.1 0 0 1 .09.06.1.1 0 0 1-.02.1l-.12.12a.2.2 0 0 0-.06.15v2.56a.15.15 0 0 0 .05.11.14.14 0 0 0 .11.03ZM28.02 36.65a.1.1 0 0 0 .01-.1l-1.17-2.6a.68.68 0 0 0-.11-.17l-.2-.21c-.09-.1-.07-.14.06-.14h.94c.11 0 .13.05.06.14l-.13.17a.12.12 0 0 0-.02.13l.97 2.26a.07.07 0 0 0 .06.04h.04l.02-.04.97-2.25a.15.15 0 0 0-.03-.18l-.12-.11c-.1-.1-.08-.16.07-.16h.86c.13 0 .15.04.05.13l-.22.22a.44.44 0 0 0-.1.14l-1.14 2.65a.11.11 0 0 0 .02.12l.13.18c.06.09.04.13-.07.13h-1.06c-.11 0-.13-.04-.06-.13l.17-.22ZM36.96 35.45c.19.37.59 1.15.98 1.34l.04.04a.09.09 0 0 1-.03.1.08.08 0 0 1-.05.03h-.84c-.07 0-.1-.03-.08-.1l.03-.12a.23.23 0 0 0-.03-.17l-.67-1.1a.14.14 0 0 0-.13-.07h-.9c-.05 0-.09.03-.1.08-.1.5-.05.96.15 1.4.02.05 0 .08-.06.08h-.82c-.12 0-.14-.04-.05-.14l.14-.15a.2.2 0 0 0 .05-.14V33.8c0-.06-.03-.1-.08-.14a.2.2 0 0 1-.12-.16c0-.06.02-.1.09-.1.75-.02 1.49-.01 2.23 0 1.21.04 1.54 1.62.3 1.95-.06.01-.08.05-.05.1Zm-1.8-1.5V34.9l.01.03.03.01h1.4c.17 0 .33-.04.46-.14.12-.09.19-.22.19-.35v-.07a.44.44 0 0 0-.2-.35.77.77 0 0 0-.45-.14h-1.38a.07.07 0 0 0-.06.04v.03ZM18.8 41.73l.14.12c.11.1.1.15-.06.15h-.9c-.14 0-.16-.05-.05-.14l.15-.13a.16.16 0 0 0 .07-.12v-3.22c0-.06-.03-.1-.09-.12-.08-.03-.12-.08-.12-.16 0-.05.03-.08.1-.09 1.1-.04 2.06-.03 2.87.04 1.37.1 1.46 1.97.07 2.15a.1.1 0 0 0-.04.02.09.09 0 0 0-.03.03.08.08 0 0 0 .01.08c.31.42.76 1.27 1.22 1.49l.04.04v.06c0 .01 0 .03-.03.04a.1.1 0 0 1-.05.02l-.99.01c-.1 0-.13-.04-.07-.12l.1-.13c.02-.04.02-.07 0-.11l-.85-1.28a.15.15 0 0 0-.13-.07l-1.3-.02c-.08 0-.11.04-.11.1v1.25c0 .04.01.08.05.1Zm-.06-3.13v1.08c0 .03.02.05.04.07a.1.1 0 0 0 .07.03l1.69-.01c.22 0 .43-.06.58-.16.16-.1.25-.23.25-.36V39a.36.36 0 0 0-.07-.2.58.58 0 0 0-.18-.17.97.97 0 0 0-.27-.1c-.1-.03-.21-.05-.32-.05l-1.69.01a.1.1 0 0 0-.07.03.1.1 0 0 0-.03.07ZM35.91 39.84c.52.02 1.25.1 1.38-.13.03-.05.07-.07.12-.06.15.02.14.81 0 .82a.14.14 0 0 1-.13-.07c-.14-.21-1.08-.13-1.35-.13-.06 0-.1.03-.1.1v.88c0 .07.04.1.1.1h1.96c.05 0 .1-.02.13-.07l.09-.13c.06-.1.1-.08.13.03.05.24.06.48.01.73-.02.1-.07.12-.15.04l-.13-.13a.18.18 0 0 0-.13-.05H35.2c-.27 0-.29-.07-.06-.2l.11-.07a.1.1 0 0 0 .06-.1v-2.56c0-.05-.02-.1-.05-.13l-.15-.13c-.12-.1-.1-.15.06-.15h2.72c.06 0 .1-.03.11-.08a.2.2 0 0 1 .12-.1c.09-.03.13 0 .13.09V39c0 .14-.05.16-.15.06l-.14-.13a.19.19 0 0 0-.13-.05h-1.87c-.08 0-.12.04-.12.11v.77c0 .05.02.07.07.07ZM33.12 40.7a.23.23 0 0 1-.16.15c-.07.02-.1 0-.1-.07v-.72c0-.14.06-.17.16-.08.04.04.06.08.08.13.02.06.06.09.12.09h1.36c.05 0 .08.02.09.07 0 .06-.01.1-.05.12a.24.24 0 0 0-.11.12c-.14.3-.1.53.11.7.05.04.05.08 0 .12-1.23 1.05-3.85 1-3.86-1.13 0-1.72 2.04-2.24 3.32-1.48.04.02.09.03.13.03l.3-.03c.1-.01.12.03.07.11l-.44.7c-.05.07-.09.07-.13 0a.24.24 0 0 1-.03-.16c0-.05 0-.09-.04-.11-.7-.52-1.36-.58-2-.17-.65.4-.77 1.38-.3 1.96.47.57 1.34.57 1.98.33.32-.11.42-.33.3-.66a.1.1 0 0 0-.1-.07h-.61c-.04-.01-.07.01-.09.05ZM23.94 38.7c-.08-.04-.15-.07-.13-.18 0-.03.03-.04.06-.05l1-.04c.07 0 .1.03.07.1a.3.3 0 0 1-.12.16c-.05.04-.06.08-.04.14l1.23 2.7c.03.06.07.1.13.15l.22.18c.12.08.1.13-.04.13l-.94.01c-.15 0-.17-.05-.06-.16l.11-.12c.04-.04.04-.08.02-.12l-.25-.5a.16.16 0 0 0-.16-.09H23.6c-.06 0-.1.03-.13.08l-.2.48a.12.12 0 0 0 0 .13l.12.16c.07.09.04.14-.07.14h-.82a.1.1 0 0 1-.08-.05.1.1 0 0 1-.01-.1c.03-.07.1-.12.17-.15.06-.01.1-.05.12-.1l1.28-2.8c.02-.05 0-.08-.04-.1Zm-.22 1.8a.07.07 0 0 0 .03.1H24.9a.06.06 0 0 0 .05-.03.07.07 0 0 0 0-.06l-.55-1.26a.06.06 0 0 0-.12 0l-.56 1.26ZM27.23 39.38v2.22c0 .05.02.1.06.13l.13.11c.12.1.1.16-.05.16h-.75c-.14 0-.16-.05-.06-.15l.13-.14a.2.2 0 0 0 .06-.15v-2.7a.2.2 0 0 0-.06-.14l-.13-.13c-.08-.08-.06-.13.05-.13.18 0 1.14-.09 1.18.04.01.03 0 .06-.01.09l-.13.14c-.04.05-.04.1 0 .14L29.5 41a.05.05 0 0 0 .06.01.05.05 0 0 0 .03-.05v-2.08c0-.06-.01-.1-.05-.14l-.18-.18c-.08-.08-.06-.13.06-.13h.8c.12 0 .14.05.05.14l-.13.15a.21.21 0 0 0-.06.14l-.04 2.73c0 .07.03.12.09.15.07.02.12.08.15.15.02.08 0 .11-.08.11h-.87c-.06 0-.1-.03-.1-.09 0-.08.03-.14.1-.18.05-.03.06-.07.01-.12l-2.01-2.27-.03-.02h-.04a.06.06 0 0 0-.04.06Z" fill="#353334" /></svg>