<!-- by TradeStack --><svg width="56" height="56" viewBox="0 0 56 56" fill="none" xmlns="http://www.w3.org/2000/svg">
<rect width="56" height="56" fill="#F0F3FA"/>
<path d="M43.6356 18.076C43.6356 18.4963 43.3036 18.837 42.8941 18.837C42.4846 18.837 42.1527 18.4963 42.1527 18.076C42.1527 17.6558 42.4846 17.3151 42.8941 17.3151C43.3036 17.3151 43.6356 17.6558 43.6356 18.076Z" fill="#FCD800"/>
<path d="M42.0386 19.0906C42.0386 19.4462 41.7577 19.7345 41.4112 19.7345C41.0647 19.7345 40.7838 19.4462 40.7838 19.0906C40.7838 18.735 41.0647 18.4468 41.4112 18.4468C41.7577 18.4468 42.0386 18.735 42.0386 19.0906Z" fill="#F0B61C"/>
<path d="M40.1945 20.31C40.1945 20.6279 39.9434 20.8856 39.6336 20.8856C39.3239 20.8856 39.0728 20.6279 39.0728 20.31C39.0728 19.9922 39.3239 19.7345 39.6336 19.7345C39.9434 19.7345 40.1945 19.9922 40.1945 20.31Z" fill="#D68F28"/>
<path d="M38.7876 21.1003C38.7876 21.3804 38.5663 21.6076 38.2933 21.6076C38.0203 21.6076 37.799 21.3804 37.799 21.1003C37.799 20.8201 38.0203 20.593 38.2933 20.593C38.5663 20.593 38.7876 20.8201 38.7876 21.1003Z" fill="#21753B"/>
<path d="M36.9435 22.0856C36.9435 22.3496 36.735 22.5636 36.4777 22.5636C36.2205 22.5636 36.0119 22.3496 36.0119 22.0856C36.0119 21.8216 36.2205 21.6075 36.4777 21.6075C36.735 21.6075 36.9435 21.8216 36.9435 22.0856Z" fill="#425A2A"/>
<path d="M35.1183 23.3147C35.1183 23.5356 34.9438 23.7147 34.7286 23.7147C34.5134 23.7147 34.3389 23.5356 34.3389 23.3147C34.3389 23.0938 34.5134 22.9148 34.7286 22.9148C34.9438 22.9148 35.1183 23.0938 35.1183 23.3147Z" fill="#778B48"/>
<path d="M11.6514 37.8404C11.6514 37.4201 11.9833 37.0794 12.3928 37.0794C12.8023 37.0794 13.1343 37.4201 13.1343 37.8404C13.1343 38.2606 12.8023 38.6013 12.3928 38.6013C11.9833 38.6013 11.6514 38.2606 11.6514 37.8404Z" fill="#FCD800"/>
<path d="M13.2484 36.8258C13.2484 36.4702 13.5293 36.182 13.8757 36.182C14.2222 36.182 14.5031 36.4702 14.5031 36.8258C14.5031 37.1814 14.2222 37.4697 13.8757 37.4697C13.5293 37.4697 13.2484 37.1814 13.2484 36.8258Z" fill="#F0B61C"/>
<path d="M15.0924 35.6064C15.0924 35.2885 15.3435 35.0308 15.6533 35.0308C15.963 35.0308 16.2141 35.2885 16.2141 35.6064C16.2141 35.9243 15.963 36.182 15.6533 36.182C15.3435 36.182 15.0924 35.9243 15.0924 35.6064Z" fill="#D68F28"/>
<path d="M16.4993 34.8162C16.4993 34.536 16.7206 34.3089 16.9936 34.3089C17.2666 34.3089 17.4879 34.536 17.4879 34.8162C17.4879 35.0964 17.2666 35.3235 16.9936 35.3235C16.7206 35.3235 16.4993 35.0964 16.4993 34.8162Z" fill="#21753B"/>
<path d="M18.3434 33.8309C18.3434 33.5669 18.5519 33.3529 18.8092 33.3529C19.0665 33.3529 19.275 33.5669 19.275 33.8309C19.275 34.0949 19.0665 34.3089 18.8092 34.3089C18.5519 34.3089 18.3434 34.0949 18.3434 33.8309Z" fill="#425A2A"/>
<path d="M20.1685 32.6018C20.1685 32.3809 20.343 32.2018 20.5583 32.2018C20.7735 32.2018 20.948 32.3809 20.948 32.6018C20.948 32.8227 20.7735 33.0017 20.5583 33.0017C20.343 33.0017 20.1685 32.8227 20.1685 32.6018Z" fill="#778B48"/>
<path d="M29.8429 20.3857C29.8429 21.0012 29.3567 21.5002 28.7569 21.5002C28.1571 21.5002 27.6709 21.0012 27.6709 20.3857C27.6709 19.7702 28.1571 19.2712 28.7569 19.2712C29.3567 19.2712 29.8429 19.7702 29.8429 20.3857Z" fill="#778B48"/>
<path d="M30.2712 18.5785C30.2712 19.2762 29.72 19.8418 29.0402 19.8418C28.3603 19.8418 27.8092 19.2762 27.8092 18.5785C27.8092 17.8807 28.3603 17.3151 29.0402 17.3151C29.72 17.3151 30.2712 17.8807 30.2712 18.5785Z" fill="#425A2A"/>
<path d="M30.9763 16.4441C30.9763 17.38 30.237 18.1387 29.325 18.1387C28.4131 18.1387 27.6738 17.38 27.6738 16.4441C27.6738 15.5082 28.4131 14.7495 29.325 14.7495C30.237 14.7495 30.9763 15.5082 30.9763 16.4441Z" fill="#21753B"/>
<path d="M31.247 14.9396C31.247 15.9522 30.4471 16.7731 29.4604 16.7731C28.4737 16.7731 27.6738 15.9522 27.6738 14.9396C27.6738 13.9269 28.4737 13.106 29.4604 13.106C30.4471 13.106 31.247 13.9269 31.247 14.9396Z" fill="#D68F28"/>
<path d="M31.817 13.1402C31.817 14.276 30.9198 15.1968 29.8131 15.1968C28.7064 15.1968 27.8092 14.276 27.8092 13.1402C27.8092 12.0044 28.7064 11.0837 29.8131 11.0837C30.9198 11.0837 31.817 12.0044 31.817 13.1402Z" fill="#F0B61C"/>
<path d="M32.1501 11.2769C32.1501 12.5345 31.1567 13.5539 29.9314 13.5539C28.7061 13.5539 27.7127 12.5345 27.7127 11.2769C27.7127 10.0194 28.7061 9 29.9314 9C31.1567 9 32.1501 10.0194 32.1501 11.2769Z" fill="#FCD800"/>
<path d="M25.2248 35.6122C25.2248 34.9967 25.711 34.4977 26.3108 34.4977C26.9105 34.4977 27.3968 34.9967 27.3968 35.6122C27.3968 36.2277 26.9105 36.7267 26.3108 36.7267C25.711 36.7267 25.2248 36.2277 25.2248 35.6122Z" fill="#778B48"/>
<path d="M24.7965 37.4194C24.7965 36.7217 25.3476 36.1561 26.0275 36.1561C26.7073 36.1561 27.2585 36.7217 27.2585 37.4194C27.2585 38.1171 26.7073 38.6827 26.0275 38.6827C25.3476 38.6827 24.7965 38.1171 24.7965 37.4194Z" fill="#425A2A"/>
<path d="M24.0913 39.5538C24.0913 38.6179 24.8306 37.8592 25.7426 37.8592C26.6545 37.8592 27.3938 38.6179 27.3938 39.5538C27.3938 40.4897 26.6545 41.2484 25.7426 41.2484C24.8306 41.2484 24.0913 40.4897 24.0913 39.5538Z" fill="#21753B"/>
<path d="M23.8206 41.0584C23.8206 40.0457 24.6205 39.2248 25.6072 39.2248C26.5939 39.2248 27.3938 40.0457 27.3938 41.0584C27.3938 42.071 26.5939 42.8919 25.6072 42.8919C24.6205 42.8919 23.8206 42.071 23.8206 41.0584Z" fill="#D68F28"/>
<path d="M23.2506 42.8576C23.2506 41.7218 24.1478 40.8011 25.2545 40.8011C26.3613 40.8011 27.2585 41.7218 27.2585 42.8576C27.2585 43.9934 26.3613 44.9142 25.2545 44.9142C24.1478 44.9142 23.2506 43.9934 23.2506 42.8576Z" fill="#F0B61C"/>
<path d="M22.918 44.721C22.918 43.4634 23.9113 42.444 25.1366 42.444C26.362 42.444 27.3553 43.4634 27.3553 44.721C27.3553 45.9785 26.362 46.9979 25.1366 46.9979C23.9113 46.9979 22.918 45.9785 22.918 44.721Z" fill="#FCD800"/>
<path d="M27.1449 19.9518C27.3508 20.5299 27.0609 21.1698 26.4976 21.3811C25.9342 21.5923 25.3107 21.2949 25.1048 20.7167C24.899 20.1386 25.1888 19.4986 25.7522 19.2874C26.3155 19.0762 26.9391 19.3736 27.1449 19.9518Z" fill="#778B48"/>
<path d="M26.943 18.1034C27.1763 18.7588 26.8477 19.4842 26.2092 19.7236C25.5706 19.963 24.8638 19.6259 24.6305 18.9705C24.3972 18.3152 24.7257 17.5898 25.3643 17.3504C26.0028 17.1109 26.7096 17.4481 26.943 18.1034Z" fill="#425A2A"/>
<path d="M26.8914 15.8503C27.2044 16.7294 26.7637 17.7024 25.9071 18.0236C25.0506 18.3447 24.1025 17.8925 23.7895 17.0134C23.4766 16.1344 23.9173 15.1614 24.7738 14.8402C25.6304 14.519 26.5785 14.9713 26.8914 15.8503Z" fill="#21753B"/>
<path d="M26.6426 14.3418C26.9812 15.293 26.5044 16.3457 25.5776 16.6932C24.6508 17.0408 23.625 16.5514 23.2864 15.6003C22.9478 14.6491 23.4246 13.5964 24.3514 13.2489C25.2782 12.9014 26.304 13.3907 26.6426 14.3418Z" fill="#D68F28"/>
<path d="M26.5764 12.4511C26.9562 13.5179 26.4214 14.6987 25.3819 15.0885C24.3423 15.4783 23.1917 14.9294 22.8119 13.8626C22.4321 12.7957 22.967 11.6149 24.0065 11.2252C25.046 10.8354 26.1966 11.3842 26.5764 12.4511Z" fill="#F0B61C"/>
<path d="M26.2661 10.5836C26.6866 11.7647 26.0945 13.0721 24.9435 13.5036C23.7926 13.9352 22.5187 13.3275 22.0982 12.1464C21.6777 10.9652 22.2698 9.65785 23.4208 9.2263C24.5717 8.79475 25.8456 9.40242 26.2661 10.5836Z" fill="#FCD800"/>
<path d="M27.9689 35.6692C27.8248 35.0717 28.18 34.4675 28.7622 34.3196C29.3445 34.1718 29.9332 34.5363 30.0773 35.1338C30.2214 35.7313 29.8662 36.3356 29.2839 36.4834C28.7017 36.6313 28.113 36.2668 27.9689 35.6692Z" fill="#778B48"/>
<path d="M27.9761 37.5291C27.8128 36.8518 28.2154 36.1669 28.8753 35.9993C29.5353 35.8317 30.2027 36.2449 30.366 36.9222C30.5293 37.5995 30.1267 38.2844 29.4667 38.452C28.8068 38.6196 28.1394 38.2064 27.9761 37.5291Z" fill="#425A2A"/>
<path d="M27.7913 39.7748C27.5722 38.8663 28.1123 37.9476 28.9975 37.7228C29.8828 37.498 30.778 38.0523 30.997 38.9608C31.2161 39.8693 30.676 40.788 29.7908 41.0128C28.9055 41.2376 28.0103 40.6833 27.7913 39.7748Z" fill="#21753B"/>
<path d="M27.8805 41.3021C27.6435 40.3191 28.2279 39.325 29.1857 39.0818C30.1435 38.8386 31.1121 39.4383 31.3491 40.4212C31.5862 41.4042 31.0018 42.3983 30.044 42.6415C29.0862 42.8847 28.1176 42.2851 27.8805 41.3021Z" fill="#D68F28"/>
<path d="M27.7486 43.1894C27.4828 42.0868 28.1382 40.9718 29.2125 40.699C30.2868 40.4262 31.3732 41.0988 31.6391 42.2014C31.9049 43.3039 31.2495 44.4189 30.1752 44.6917C29.1009 44.9645 28.0144 44.2919 27.7486 43.1894Z" fill="#F0B61C"/>
<path d="M27.8611 45.0801C27.5668 43.8594 28.2925 42.6249 29.4819 42.3229C30.6714 42.0208 31.8742 42.7655 32.1686 43.9862C32.4629 45.2069 31.7372 46.4414 30.5478 46.7434C29.3583 47.0455 28.1555 46.3008 27.8611 45.0801Z" fill="#FCD800"/>
<path d="M24.5506 20.6454C24.9283 21.1235 24.8568 21.8254 24.3909 22.213C23.925 22.6007 23.2411 22.5273 22.8634 22.0492C22.4857 21.571 22.5572 20.8692 23.0231 20.4815C23.489 20.0939 24.1729 20.1673 24.5506 20.6454Z" fill="#778B48"/>
<path d="M23.7743 18.9647C24.2024 19.5067 24.1214 20.3022 23.5933 20.7416C23.0652 21.181 22.29 21.0979 21.8618 20.5559C21.4337 20.0139 21.5147 19.2183 22.0428 18.779C22.5709 18.3396 23.3461 18.4227 23.7743 18.9647Z" fill="#425A2A"/>
<path d="M23.0122 16.8511C23.5865 17.5781 23.4778 18.6452 22.7694 19.2346C22.061 19.824 21.0212 19.7124 20.4469 18.9854C19.8726 18.2584 19.9813 17.1913 20.6897 16.6019C21.3981 16.0125 22.4379 16.1241 23.0122 16.8511Z" fill="#21753B"/>
<path d="M22.2993 15.5074C22.9207 16.294 22.8031 17.4486 22.0366 18.0863C21.2701 18.7241 20.145 18.6034 19.5236 17.8167C18.9023 17.0301 19.0199 15.8755 19.7863 15.2378C20.5528 14.6001 21.6779 14.7208 22.2993 15.5074Z" fill="#D68F28"/>
<path d="M21.638 13.7412C22.335 14.6235 22.2031 15.9186 21.3434 16.6339C20.4837 17.3492 19.2218 17.2138 18.5248 16.3315C17.8278 15.4492 17.9597 14.1541 18.8194 13.4389C19.6791 12.7236 20.9411 12.859 21.638 13.7412Z" fill="#F0B61C"/>
<path d="M20.7527 12.0791C21.5244 13.0559 21.3783 14.4898 20.4265 15.2817C19.4747 16.0736 18.0775 15.9237 17.3058 14.9469C16.5342 13.9701 16.6802 12.5362 17.6321 11.7443C18.5839 10.9523 19.9811 11.1022 20.7527 12.0791Z" fill="#FCD800"/>
<path d="M30.502 35.3334C30.155 34.8313 30.2704 34.1356 30.7597 33.7796C31.2489 33.4235 31.9268 33.5419 32.2737 34.044C32.6207 34.5461 32.5053 35.2418 32.016 35.5979C31.5268 35.9539 30.8489 35.8355 30.502 35.3334Z" fill="#778B48"/>
<path d="M31.1712 37.0618C30.778 36.4927 30.9087 35.7041 31.4633 35.3006C32.0179 34.897 32.7863 35.0312 33.1795 35.6003C33.5728 36.1695 33.442 36.958 32.8874 37.3616C32.3329 37.7652 31.5645 37.631 31.1712 37.0618Z" fill="#425A2A"/>
<path d="M31.7992 39.2214C31.2717 38.458 31.4471 37.4002 32.191 36.8589C32.9349 36.3175 33.9656 36.4975 34.4931 37.261C35.0206 38.0244 34.8451 39.0822 34.1012 39.6235C33.3573 40.1649 32.3267 39.9849 31.7992 39.2214Z" fill="#21753B"/>
<path d="M32.4263 40.6095C31.8555 39.7834 32.0454 38.639 32.8502 38.0532C33.6551 37.4675 34.7703 37.6623 35.3411 38.4883C35.9118 39.3143 35.722 40.4588 34.9171 41.0445C34.1122 41.6303 32.9971 41.4355 32.4263 40.6095Z" fill="#D68F28"/>
<path d="M32.9753 42.4156C32.3351 41.4891 32.548 40.2054 33.4508 39.5484C34.3536 38.8914 35.6044 39.1099 36.2446 40.0364C36.8848 40.9629 36.6719 42.2466 35.7691 42.9036C34.8663 43.5606 33.6155 43.3421 32.9753 42.4156Z" fill="#F0B61C"/>
<path d="M33.7542 44.133C33.0454 43.1072 33.2811 41.686 34.2806 40.9586C35.2802 40.2312 36.665 40.4731 37.3738 41.4988C38.0826 42.5246 37.8469 43.9459 36.8473 44.6733C35.8478 45.4007 34.4629 45.1588 33.7542 44.133Z" fill="#FCD800"/>
<path d="M22.4542 22.3318C22.9686 22.6484 23.1355 23.3329 22.827 23.8608C22.5185 24.3887 21.8514 24.5599 21.337 24.2433C20.8227 23.9267 20.6558 23.2422 20.9643 22.7143C21.2728 22.1864 21.9399 22.0152 22.4542 22.3318Z" fill="#778B48"/>
<path d="M21.1644 21.0252C21.7474 21.3841 21.9366 22.1601 21.5869 22.7584C21.2372 23.3567 20.4811 23.5509 19.8981 23.192C19.315 22.8331 19.1259 22.0571 19.4756 21.4588C19.8253 20.8605 20.5814 20.6663 21.1644 21.0252Z" fill="#425A2A"/>
<path d="M19.7434 19.3068C20.5255 19.7882 20.7792 20.8291 20.3102 21.6317C19.8411 22.4343 18.8269 22.6947 18.0448 22.2133C17.2628 21.7319 17.009 20.6911 17.4781 19.8885C17.9471 19.0858 18.9614 18.8254 19.7434 19.3068Z" fill="#21753B"/>
<path d="M18.6255 18.2947C19.4717 18.8156 19.7462 19.9418 19.2387 20.8102C18.7312 21.6786 17.6338 21.9604 16.7876 21.4395C15.9414 20.9187 15.6669 19.7924 16.1744 18.924C16.6819 18.0556 17.7793 17.7739 18.6255 18.2947Z" fill="#D68F28"/>
<path d="M17.4151 16.8675C18.3643 17.4517 18.6722 18.7149 18.1029 19.689C17.5337 20.663 16.3028 20.979 15.3537 20.3948C14.4046 19.8106 14.0967 18.5474 14.6659 17.5734C15.2352 16.5993 16.466 16.2833 17.4151 16.8675Z" fill="#F0B61C"/>
<path d="M16.0291 15.6164C17.0799 16.2633 17.4209 17.6618 16.7906 18.7403C16.1604 19.8187 14.7976 20.1686 13.7468 19.5217C12.6959 18.8749 12.355 17.4764 12.9853 16.3979C13.6155 15.3195 14.9783 14.9696 16.0291 15.6164Z" fill="#FCD800"/>
<path d="M32.8181 33.9456C32.3233 33.5978 32.1969 32.9041 32.5358 32.3963C32.8748 31.8885 33.5507 31.7588 34.0455 32.1066C34.5403 32.4545 34.6667 33.1481 34.3278 33.656C33.9888 34.1638 33.3129 34.2935 32.8181 33.9456Z" fill="#778B48"/>
<path d="M34.0289 35.3295C33.468 34.9353 33.3247 34.149 33.7089 33.5734C34.0931 32.9977 34.8593 32.8507 35.4202 33.245C35.9811 33.6393 36.1243 34.4255 35.7401 35.0012C35.3559 35.5768 34.5898 35.7238 34.0289 35.3295Z" fill="#425A2A"/>
<path d="M35.3464 37.1326C34.594 36.6038 34.4019 35.5491 34.9172 34.7769C35.4326 34.0048 36.4602 33.8076 37.2126 34.3365C37.965 34.8654 38.1571 35.9201 37.6418 36.6922C37.1265 37.4643 36.0988 37.6615 35.3464 37.1326Z" fill="#21753B"/>
<path d="M36.4029 38.2121C35.5888 37.6399 35.3809 36.4987 35.9385 35.6633C36.4961 34.8278 37.608 34.6145 38.4221 35.1867C39.2362 35.7589 39.4441 36.9001 38.8865 37.7355C38.3289 38.571 37.2169 38.7843 36.4029 38.2121Z" fill="#D68F28"/>
<path d="M37.5272 39.7116C36.6141 39.0697 36.3809 37.7898 37.0064 36.8527C37.6318 35.9156 38.879 35.6763 39.792 36.3182C40.7051 36.96 40.9383 38.24 40.3129 39.177C39.6875 40.1141 38.4403 40.3534 37.5272 39.7116Z" fill="#F0B61C"/>
<path d="M38.8372 41.046C37.8262 40.3354 37.5681 38.9183 38.2605 37.8808C38.9529 36.8433 40.3338 36.5784 41.3447 37.289C42.3556 37.9996 42.6138 39.4167 41.9214 40.4542C41.2289 41.4917 39.8481 41.7567 38.8372 41.046Z" fill="#FCD800"/>
<path d="M21.8584 24.8901C22.4435 25.0254 22.811 25.6218 22.6792 26.2223C22.5474 26.8228 21.9662 27.2 21.3811 27.0647C20.796 26.9295 20.4285 26.333 20.5603 25.7325C20.6921 25.132 21.2733 24.7549 21.8584 24.8901Z" fill="#778B48"/>
<path d="M20.2346 24.0642C20.8978 24.2175 21.3144 24.8936 21.165 25.5743C21.0156 26.2549 20.3568 26.6824 19.6936 26.5291C19.0303 26.3758 18.6138 25.6997 18.7632 25.0191C18.9125 24.3384 19.5713 23.9109 20.2346 24.0642Z" fill="#425A2A"/>
<path d="M18.3606 22.8893C19.2503 23.095 19.809 24.0019 19.6086 24.9149C19.4083 25.8279 18.5246 26.4013 17.6349 26.1957C16.7453 25.99 16.1865 25.0832 16.3869 24.1701C16.5873 23.2571 17.471 22.6837 18.3606 22.8893Z" fill="#21753B"/>
<path d="M16.9899 22.2877C17.9525 22.5102 18.557 23.4914 18.3402 24.4793C18.1234 25.4672 17.1673 26.0876 16.2047 25.8651C15.2421 25.6426 14.6375 24.6614 14.8544 23.6735C15.0712 22.6856 16.0273 22.0652 16.9899 22.2877Z" fill="#D68F28"/>
<path d="M15.4046 21.3217C16.4843 21.5713 17.1624 22.6719 16.9192 23.7799C16.676 24.8879 15.6036 25.5839 14.5239 25.3343C13.4442 25.0847 12.7661 23.9841 13.0093 22.8761C13.2525 21.7681 14.3249 21.0721 15.4046 21.3217Z" fill="#F0B61C"/>
<path d="M13.7067 20.5788C14.9021 20.8551 15.6528 22.0736 15.3836 23.3004C15.1143 24.5272 13.927 25.2977 12.7316 25.0214C11.5362 24.745 10.7855 23.5265 11.0547 22.2997C11.324 21.073 12.5113 20.3025 13.7067 20.5788Z" fill="#FCD800"/>
<path d="M34.1415 31.4923C33.5564 31.3571 33.1889 30.7606 33.3207 30.1601C33.4525 29.5597 34.0337 29.1825 34.6188 29.3178C35.2039 29.453 35.5714 30.0495 35.4396 30.65C35.3078 31.2504 34.7267 31.6276 34.1415 31.4923Z" fill="#778B48"/>
<path d="M35.7654 32.3183C35.1021 32.165 34.6856 31.4889 34.835 30.8083C34.9844 30.1276 35.6431 29.7001 36.3064 29.8534C36.9696 30.0067 37.3862 30.6828 37.2368 31.3635C37.0874 32.0441 36.4286 32.4716 35.7654 32.3183Z" fill="#425A2A"/>
<path d="M37.6394 33.4931C36.7497 33.2875 36.1909 32.3806 36.3913 31.4676C36.5917 30.5546 37.4754 29.9811 38.365 30.1868C39.2547 30.3924 39.8135 31.2993 39.6131 32.2123C39.4127 33.1253 38.529 33.6988 37.6394 33.4931Z" fill="#21753B"/>
<path d="M39.0101 34.0948C38.0475 33.8723 37.4429 32.891 37.6598 31.9032C37.8766 30.9153 38.8327 30.2948 39.7953 30.5173C40.7579 30.7399 41.3624 31.7211 41.1456 32.709C40.9288 33.6968 39.9727 34.3173 39.0101 34.0948Z" fill="#D68F28"/>
<path d="M40.5954 35.0607C39.5157 34.8112 38.8376 33.7106 39.0808 32.6025C39.324 31.4945 40.3964 30.7986 41.4761 31.0482C42.5558 31.2977 43.2339 32.3983 42.9907 33.5063C42.7475 34.6144 41.6751 35.3103 40.5954 35.0607Z" fill="#F0B61C"/>
<path d="M42.2933 35.8037C41.0979 35.5274 40.3471 34.3089 40.6164 33.0821C40.8856 31.8553 42.0729 31.0848 43.2683 31.3611C44.4637 31.6374 45.2145 32.856 44.9452 34.0827C44.676 35.3095 43.4887 36.08 42.2933 35.8037Z" fill="#FCD800"/>
<path d="M31.9986 20.8027C31.9986 21.3334 31.5794 21.7636 31.0623 21.7636C30.5452 21.7636 30.126 21.3334 30.126 20.8027C30.126 20.272 30.5452 19.8418 31.0623 19.8418C31.5794 19.8418 31.9986 20.272 31.9986 20.8027Z" fill="#778B48"/>
<path d="M33.0905 19.1452C33.0905 19.7744 32.5935 20.2844 31.9804 20.2844C31.3673 20.2844 30.8703 19.7744 30.8703 19.1452C30.8703 18.516 31.3673 18.0059 31.9804 18.0059C32.5935 18.0059 33.0905 18.516 33.0905 19.1452Z" fill="#425A2A"/>
<path d="M34.0836 17.3177C34.0836 18.0431 33.5106 18.6312 32.8037 18.6312C32.0969 18.6312 31.5239 18.0431 31.5239 17.3177C31.5239 16.5923 32.0969 16.0043 32.8037 16.0043C33.5106 16.0043 34.0836 16.5923 34.0836 17.3177Z" fill="#21753B"/>
<path d="M35.0331 15.7798C35.0331 16.6245 34.3659 17.3093 33.5429 17.3093C32.7198 17.3093 32.0526 16.6245 32.0526 15.7798C32.0526 14.9352 32.7198 14.2504 33.5429 14.2504C34.3659 14.2504 35.0331 14.9352 35.0331 15.7798Z" fill="#D68F28"/>
<path d="M35.738 14.2066C35.738 15.1256 35.0121 15.8705 34.1167 15.8705C33.2212 15.8705 32.4953 15.1256 32.4953 14.2066C32.4953 13.2877 33.2212 12.5427 34.1167 12.5427C35.0121 12.5427 35.738 13.2877 35.738 14.2066Z" fill="#F0B61C"/>
<path d="M36.7526 12.519C36.7526 13.5455 35.9418 14.3776 34.9416 14.3776C33.9414 14.3776 33.1305 13.5455 33.1305 12.519C33.1305 11.4925 33.9414 10.6604 34.9416 10.6604C35.9418 10.6604 36.7526 11.4925 36.7526 12.519Z" fill="#FCD800"/>
<path d="M23.3145 35.3033C23.2879 34.7733 23.685 34.3215 24.2015 34.2942C24.7179 34.2669 25.1581 34.6744 25.1847 35.2044C25.2113 35.7344 24.8142 36.1862 24.2978 36.2135C23.7813 36.2408 23.3411 35.8332 23.3145 35.3033Z" fill="#778B48"/>
<path d="M22.3072 37.0156C22.2756 36.3873 22.7464 35.8517 23.3587 35.8193C23.971 35.787 24.4928 36.2701 24.5244 36.8985C24.5559 37.5268 24.0851 38.0624 23.4729 38.0948C22.8606 38.1271 22.3387 37.644 22.3072 37.0156Z" fill="#425A2A"/>
<path d="M21.4071 38.8931C21.3707 38.1686 21.9135 37.5511 22.6194 37.5138C23.3253 37.4765 23.927 38.0335 23.9633 38.758C23.9997 39.4824 23.4569 40.0999 22.751 40.1372C22.0451 40.1745 21.4434 39.6175 21.4071 38.8931Z" fill="#21753B"/>
<path d="M20.5358 40.479C20.4934 39.6354 21.1255 38.9164 21.9474 38.873C22.7694 38.8295 23.4701 39.4781 23.5124 40.3217C23.5547 41.1653 22.9227 41.8843 22.1007 41.9278C21.2787 41.9712 20.5781 41.3226 20.5358 40.479Z" fill="#D68F28"/>
<path d="M19.9107 42.0874C19.8647 41.1697 20.5523 40.3874 21.4465 40.3401C22.3408 40.2929 23.103 40.9985 23.1491 41.9163C23.1951 42.834 22.5075 43.6163 21.6133 43.6635C20.719 43.7108 19.9568 43.0051 19.9107 42.0874Z" fill="#F0B61C"/>
<path d="M18.9819 43.8262C18.9305 42.8011 19.6986 41.9273 20.6974 41.8745C21.6963 41.8217 22.5478 42.61 22.5992 43.6351C22.6507 44.6602 21.8826 45.534 20.8837 45.5868C19.8848 45.6396 19.0334 44.8514 18.9819 43.8262Z" fill="#FCD800"/>
<path d="M33.4956 21.6076C33.4956 21.9891 33.1942 22.2983 32.8225 22.2983C32.4508 22.2983 32.1494 21.9891 32.1494 21.6076C32.1494 21.2261 32.4508 20.9168 32.8225 20.9168C33.1942 20.9168 33.4956 21.2261 33.4956 21.6076Z" fill="#778B48"/>
<path d="M34.905 20.0785C34.905 20.5243 34.5529 20.8857 34.1185 20.8857C33.6841 20.8857 33.3319 20.5243 33.3319 20.0785C33.3319 19.6326 33.6841 19.2712 34.1185 19.2712C34.5529 19.2712 34.905 19.6326 34.905 20.0785Z" fill="#425A2A"/>
<path d="M36.3727 18.467C36.3727 19.0055 35.9474 19.442 35.4227 19.442C34.898 19.442 34.4726 19.0055 34.4726 18.467C34.4726 17.9285 34.898 17.492 35.4227 17.492C35.9474 17.492 36.3727 17.9285 36.3727 18.467Z" fill="#21753B"/>
<path d="M37.5282 17.3093C37.5282 17.891 37.0686 18.3626 36.5018 18.3626C35.935 18.3626 35.4754 17.891 35.4754 17.3093C35.4754 16.7276 35.935 16.256 36.5018 16.256C37.0686 16.256 37.5282 16.7276 37.5282 17.3093Z" fill="#D68F28"/>
<path d="M38.6722 15.8705C38.6722 16.4896 38.1832 16.9915 37.5799 16.9915C36.9766 16.9915 36.4876 16.4896 36.4876 15.8705C36.4876 15.2514 36.9766 14.7495 37.5799 14.7495C38.1832 14.7495 38.6722 15.2514 38.6722 15.8705Z" fill="#F0B61C"/>
<path d="M40.102 14.2505C40.102 15.0025 39.508 15.6121 38.7752 15.6121C38.0425 15.6121 37.4485 15.0025 37.4485 14.2505C37.4485 13.4985 38.0425 12.8889 38.7752 12.8889C39.508 12.8889 40.102 13.4985 40.102 14.2505Z" fill="#FCD800"/>
<path d="M22.1104 34.3633C22.1104 33.9818 22.4117 33.6725 22.7835 33.6725C23.1552 33.6725 23.4566 33.9818 23.4566 34.3633C23.4566 34.7448 23.1552 35.054 22.7835 35.054C22.4117 35.054 22.1104 34.7448 22.1104 34.3633Z" fill="#778B48"/>
<path d="M20.7008 35.8923C20.7008 35.4465 21.053 35.0851 21.4874 35.0851C21.9218 35.0851 22.274 35.4465 22.274 35.8923C22.274 36.3381 21.9218 36.6996 21.4874 36.6996C21.053 36.6996 20.7008 36.3381 20.7008 35.8923Z" fill="#425A2A"/>
<path d="M19.2333 37.5038C19.2333 36.9653 19.6586 36.5288 20.1833 36.5288C20.708 36.5288 21.1334 36.9653 21.1334 37.5038C21.1334 38.0423 20.708 38.4788 20.1833 38.4788C19.6586 38.4788 19.2333 38.0423 19.2333 37.5038Z" fill="#21753B"/>
<path d="M18.0778 38.6615C18.0778 38.0797 18.5373 37.6082 19.1042 37.6082C19.671 37.6082 20.1305 38.0797 20.1305 38.6615C20.1305 39.2432 19.671 39.7148 19.1042 39.7148C18.5373 39.7148 18.0778 39.2432 18.0778 38.6615Z" fill="#D68F28"/>
<path d="M16.9337 40.1003C16.9337 39.4811 17.4228 38.9792 18.0261 38.9792C18.6293 38.9792 19.1184 39.4811 19.1184 40.1003C19.1184 40.7194 18.6293 41.2213 18.0261 41.2213C17.4228 41.2213 16.9337 40.7194 16.9337 40.1003Z" fill="#F0B61C"/>
<path d="M15.5039 41.7203C15.5039 40.9684 16.0979 40.3588 16.8306 40.3588C17.5634 40.3588 18.1574 40.9684 18.1574 41.7203C18.1574 42.4723 17.5634 43.0819 16.8306 43.0819C16.0979 43.0819 15.5039 42.4723 15.5039 41.7203Z" fill="#FCD800"/>
<path d="M34.4151 22.5246C34.4151 22.767 34.2236 22.9636 33.9873 22.9636C33.7511 22.9636 33.5596 22.767 33.5596 22.5246C33.5596 22.2821 33.7511 22.0856 33.9873 22.0856C34.2236 22.0856 34.4151 22.2821 34.4151 22.5246Z" fill="#778B48"/>
<path d="M36.0465 21.1783C36.0465 21.5016 35.7911 21.7636 35.4761 21.7636C35.1611 21.7636 34.9058 21.5016 34.9058 21.1783C34.9058 20.855 35.1611 20.593 35.4761 20.593C35.7911 20.593 36.0465 20.855 36.0465 21.1783Z" fill="#425A2A"/>
<path d="M37.7992 19.8418C37.7992 20.2567 37.48 20.593 37.0863 20.593C36.6925 20.593 36.3734 20.2567 36.3734 19.8418C36.3734 19.427 36.6925 19.0907 37.0863 19.0907C37.48 19.0907 37.7992 19.427 37.7992 19.8418Z" fill="#21753B"/>
<path d="M39.073 18.7922C39.073 19.2264 38.7389 19.5784 38.3268 19.5784C37.9147 19.5784 37.5806 19.2264 37.5806 18.7922C37.5806 18.358 37.9147 18.006 38.3268 18.006C38.7389 18.006 39.073 18.358 39.073 18.7922Z" fill="#D68F28"/>
<path d="M40.7841 17.4477C40.7841 17.9994 40.3595 18.4467 39.8358 18.4467C39.3122 18.4467 38.8876 17.9994 38.8876 17.4477C38.8876 16.8959 39.3122 16.4486 39.8358 16.4486C40.3595 16.4486 40.7841 16.8959 40.7841 17.4477Z" fill="#F0B61C"/>
<path d="M42.1528 16.256C42.1528 16.8409 41.7028 17.3151 41.1476 17.3151C40.5924 17.3151 40.1423 16.8409 40.1423 16.256C40.1423 15.671 40.5924 15.1968 41.1476 15.1968C41.7028 15.1968 42.1528 15.671 42.1528 16.256Z" fill="#FCD800"/>
<path d="M21.1684 33.5738C21.1684 33.3314 21.3599 33.1348 21.5962 33.1348C21.8324 33.1348 22.024 33.3314 22.024 33.5738C22.024 33.8163 21.8324 34.0128 21.5962 34.0128C21.3599 34.0128 21.1684 33.8163 21.1684 33.5738Z" fill="#778B48"/>
<path d="M19.5371 34.9201C19.5371 34.5968 19.7925 34.3348 20.1075 34.3348C20.4225 34.3348 20.6778 34.5968 20.6778 34.9201C20.6778 35.2434 20.4225 35.5054 20.1075 35.5054C19.7925 35.5054 19.5371 35.2434 19.5371 34.9201Z" fill="#425A2A"/>
<path d="M17.7843 36.2566C17.7843 35.8417 18.1035 35.5054 18.4973 35.5054C18.891 35.5054 19.2102 35.8417 19.2102 36.2566C19.2102 36.6714 18.891 37.0077 18.4973 37.0077C18.1035 37.0077 17.7843 36.6714 17.7843 36.2566Z" fill="#21753B"/>
<path d="M16.5106 37.3062C16.5106 36.872 16.8446 36.52 17.2568 36.52C17.6689 36.52 18.003 36.872 18.003 37.3062C18.003 37.7404 17.6689 38.0924 17.2568 38.0924C16.8446 38.0924 16.5106 37.7404 16.5106 37.3062Z" fill="#D68F28"/>
<path d="M14.7995 38.6507C14.7995 38.0989 15.224 37.6516 15.7477 37.6516C16.2714 37.6516 16.6959 38.0989 16.6959 38.6507C16.6959 39.2025 16.2714 39.6498 15.7477 39.6498C15.224 39.6498 14.7995 39.2025 14.7995 38.6507Z" fill="#F0B61C"/>
<path d="M13.4307 39.8424C13.4307 39.2575 13.8807 38.7832 14.4359 38.7832C14.9911 38.7832 15.4412 39.2575 15.4412 39.8424C15.4412 40.4274 14.9911 40.9016 14.4359 40.9016C13.8807 40.9016 13.4307 40.4274 13.4307 39.8424Z" fill="#FCD800"/>
<ellipse cx="17.9319" cy="27.6756" rx="2.09891" ry="2.15404" fill="#D68F28"/>
<ellipse cx="17.263" cy="27.6756" rx="2.09891" ry="2.15404" fill="#F0B61C"/>
<ellipse cx="16.3001" cy="27.6756" rx="2.09891" ry="2.15404" fill="#FCD800"/>
<ellipse cx="2.09891" cy="2.15404" rx="2.09891" ry="2.15404" transform="matrix(-1 0 0 1 40.4072 25.5216)" fill="#D68F28"/>
<ellipse cx="2.09891" cy="2.15404" rx="2.09891" ry="2.15404" transform="matrix(-1 0 0 1 41.0762 25.5216)" fill="#F0B61C"/>
<ellipse cx="2.09891" cy="2.15404" rx="2.09891" ry="2.15404" transform="matrix(-1 0 0 1 42.0391 25.5216)" fill="#FCD800"/>
<ellipse cx="23.9729" cy="27.6343" rx="1.61452" ry="1.65692" fill="#21753B"/>
<ellipse cx="23.163" cy="27.7543" rx="1.8212" ry="1.79456" fill="#D68F28"/>
<ellipse cx="22.6127" cy="27.7169" rx="1.97012" ry="1.90997" fill="#F0B61C"/>
<ellipse cx="22.0022" cy="27.6756" rx="2.09891" ry="2.15404" fill="#FCD800"/>
<ellipse cx="1.69317" cy="1.65692" rx="1.69317" ry="1.65692" transform="matrix(-1 0 0 1 33.6348 26.0559)" fill="#21753B"/>
<ellipse cx="1.90992" cy="1.79456" rx="1.90992" ry="1.79456" transform="matrix(-1 0 0 1 34.7002 26.0383)" fill="#D68F28"/>
<ellipse cx="2.06609" cy="1.90997" rx="2.06609" ry="1.90997" transform="matrix(-1 0 0 1 35.4336 25.8855)" fill="#F0B61C"/>
<ellipse cx="2.20116" cy="2.15404" rx="2.20116" ry="2.15404" transform="matrix(-1 0 0 1 36.209 25.6002)" fill="#FCD800"/>
<ellipse cx="27.8905" cy="27.7543" rx="2.35823" ry="2.42017" fill="#FCD800"/>
</svg>
