<?xml version='1.0' encoding='utf-8'?>
<!-- by TradeStack -->
<svg width="56" height="56" viewBox="0 0 56 56" xmlns="http://www.w3.org/2000/svg"><path fill="url(#afy2tiumj)" d="M0 0h56v56H0z" /><path d="M35.73 21.86A12.76 12.76 0 0 1 33.16 10c-3.86 1.32-17.76 12.39-17.5 22.67.2 8.22 6.43 11.33 9.78 11.33 15.18 0 15.95-15.29 10.29-22.14Z" fill="#6BA5BB" /><path d="M15.91 35.1c1.42 1 3.03 1.85 4.38 1.78 5.4-.26 8.23-3.95 8.5-8.17v-.18c.24-3.83.7-11.6 4.02-17.12-.4 2.4-.3 6.54 2.92 10.45C41.39 28.71 40.62 44 25.43 44c-2.99 0-8.29-2.49-9.52-8.9Z" fill="url(#bfy2tiumj)" /><path d="M34.7 20.45c.3.47.64.94 1.03 1.41C41.39 28.71 40.62 44 25.43 44a9.48 9.48 0 0 1-5.64-2.22c.65.07 1.33.11 2.05.11 10.5 0 12.95-10.19 12.86-15.29v-6.15Z" fill="url(#cfy2tiumj)" /><path d="M31.1 43.2c-10.5-7.16-6.1-19.85-2.58-25.3-2.83 11.6-1.02 18.2 7.98 21.36-1.03 1.68-4.03 3.33-5.4 3.95Z" fill="#5C8895" fill-opacity=".8" /><path d="M24.4 19.49c0-.85.87-1.06 1.3-1.06.34 0 .97.21.77 1.06-.26 1.05-.78 1.05-1.03 1.05-.26 0-1.03 0-1.03-1.05ZM20.55 23.44a4.3 4.3 0 0 1 3.09-2.63c1.8 0 1.28 1.58 1.03 2.63-.26 1.06-2.58 5.27-4.38 5.27-1.8 0-.77-2.9.26-5.27ZM17.2 30.82a2.05 2.05 0 0 1 1.55-1.58c.51 0 1.54.26 1.54 1.32 0 1.32-1.28 1.84-1.8 1.84-.51 0-1.54-.26-1.29-1.58Z" fill="#8AB7CA" /><path d="M24.67 36.62c-2.68-1.26-6.78-5.8-8.5-7.9-.61 1.26-.6 4.21-.51 5.53 1.85 1.26 6.78 2.1 9 2.37Z" fill="#5C8895" fill-opacity=".8" /><path d="M37.53 39.52c-12.35-.84-11.15-14.58-9-21.35a28.6 28.6 0 0 0-3.1 14.5c.52 8.17 8.76 10.8 11.84 10.8 3.09 0 7.46-.79 7.72-5.27.2-3.58-3.34-6.41-5.14-7.38a6.17 6.17 0 0 1 2.31 5.27c-.2 2.74-3.17 3.43-4.63 3.43Z" fill="url(#dfy2tiumj)" /><path d="M28.52 18.17c-2.14 6.77-3.34 20.5 9.01 21.35 1.46 0 4.43-.69 4.63-3.43a6.22 6.22 0 0 0-1.63-4.64c2.92 2.75 2.92 4.22 2.92 5.7 0 1.58-.77 4.74-6.43 4.74S26.98 37.94 26.2 30.3a22.5 22.5 0 0 1 .6-7.99 22.75 22.75 0 0 1 1.71-4.13Z" fill="url(#efy2tiumj)" /><path d="M34.44 40.05c1.37.44 4.84.73 7.72-1.58-.77 1.4-3.4 3.69-7.72 1.58Z" fill="#EFC22A" /><path d="M14.37 22.39c1.86 0 3 .35 3.35.52a3.2 3.2 0 0 0-3.35 2.9c0 4.43 7.04 9.05 10.55 10.81C13.34 34.52 10 28.45 10 26.08c0-2.37 2.06-3.7 4.37-3.7Z" fill="url(#ffy2tiumj)" /><path d="M17.72 22.91a3.2 3.2 0 0 0-3.35 2.9c0 4.43 7.04 9.05 10.55 10.81-5.4-1.58-12.86-6.06-12.86-10.54 0-3.59 3.77-3.6 5.66-3.17Z" fill="url(#gfy2tiumj)" /><path d="M15.15 29.77c-.78-.8-2.17-2.95-1.55-5.27-.68 1.23-1.34 4 1.55 5.27Z" fill="#FED92A" /><defs><linearGradient id="afy2tiumj" x1="10.42" y1="9.71" x2="68.15" y2="76.02" gradientUnits="userSpaceOnUse"><stop stop-color="#1A1E21" /><stop offset="1" stop-color="#06060A" /></linearGradient><linearGradient id="bfy2tiumj" x1="27.44" y1="11.41" x2="27.44" y2="44" gradientUnits="userSpaceOnUse"><stop stop-color="#5E8EA2" /><stop offset="1" stop-color="#728DA8" /></linearGradient><linearGradient id="cfy2tiumj" x1="29.38" y1="20.45" x2="29.38" y2="44" gradientUnits="userSpaceOnUse"><stop stop-color="#5B7E91" /><stop offset="1" stop-color="#4D648D" /></linearGradient><linearGradient id="dfy2tiumj" x1="25.44" y1="26.08" x2="44.96" y2="37" gradientUnits="userSpaceOnUse"><stop stop-color="#F6B92B" /><stop offset=".45" stop-color="#F3AF02" /><stop offset="1" stop-color="#F31C00" /></linearGradient><linearGradient id="efy2tiumj" x1="26.13" y1="25.58" x2="43.61" y2="35.12" gradientUnits="userSpaceOnUse"><stop stop-color="#FEDF36" /><stop offset=".45" stop-color="#FDC200" /><stop offset="1" stop-color="#FF3F01" /></linearGradient><linearGradient id="ffy2tiumj" x1="11.8" y1="23.18" x2="22.38" y2="35.31" gradientUnits="userSpaceOnUse"><stop stop-color="#F61F00" /><stop offset=".56" stop-color="#F19B01" /><stop offset="1" stop-color="#F4A800" /></linearGradient><linearGradient id="gfy2tiumj" x1="13.61" y1="23.49" x2="24.04" y2="34.05" gradientUnits="userSpaceOnUse"><stop stop-color="#FF4900" /><stop offset=".56" stop-color="#FF9D01" /><stop offset="1" stop-color="#FECA01" /></linearGradient></defs></svg>