<!-- by TradeStack --><svg width="56" height="56" viewBox="0 0 56 56" xmlns="http://www.w3.org/2000/svg"><path fill="#F0F3FA" d="M0 0h56v56H0z"/><path d="M16.92 29.13c-1.22 2.66-3.67 7.67-3.76 8.1 1.25-1.96 4.18-6.31 5.85-8.1 2.08-2.23 1.16-1.81 1.9-3.05.58-.99 5.1-9.86 7.28-14.16a23 23 0 0 0-1.99 2.32l-4.75 6.95a97.2 97.2 0 0 0-4.53 7.94Z" fill="url(#as235i05c)"/><path d="M28.28 11.79c.06.04.09.13.05.2-.84 1.65-1.32 2.97-1.86 4.43l-.5 1.34a59.75 59.75 0 0 1-4.03 8.46c-.24.42-.26.6-.3.8 0 .09-.02.18-.05.3-.11.34-.4.8-1.44 1.92-.64.68-1.5 1.77-2.42 2.95l-.86 1.09a33.67 33.67 0 0 1-3.6 4.06.16.16 0 0 1-.2.02.15.15 0 0 1-.07-.17l.15-.38.32-.72 1-2.14.6-1.27 1.71-3.61a95.7 95.7 0 0 1 4.54-7.96c1.42-2.07 4.36-6.35 4.75-6.95.4-.62 1.5-1.83 2-2.35a.16.16 0 0 1 .21-.02Zm-.7 1c-.47.54-1 1.16-1.25 1.53-.4.61-3.33 4.89-4.74 6.95a97.05 97.05 0 0 0-4.52 7.93l-1.7 3.61-.61 1.27a194.65 194.65 0 0 0-1.19 2.55c.92-.9 2-2.22 3.05-3.55l.85-1.07c.94-1.19 1.8-2.29 2.45-2.98 1.04-1.12 1.28-1.53 1.36-1.8l.05-.22c.03-.2.07-.47.33-.94 2.2-3.92 3.25-6.4 4.02-8.42l.5-1.33c.42-1.17.83-2.27 1.4-3.53Z" fill="#7B8184"/><path d="M19.2 36.5c-.54.87-2.76 6.6-3.8 9.34.72-.88 2.49-3.06 3.8-4.7 1.63-2.04 1.92-3.74 2.11-4.17.2-.43.72-1.57 1.54-2.66.82-1.1 1.06-1.14 1.54-1.7.48-.58.39-1.34.68-1.72.28-.38.72-.7.72-1.61 0-.9.86-1.14.86-1.38 0-.23.82-1.37 1.16-1.85.33-.47 2.02-3.13 1.78-3.46-.2-.27 4.44-9.07 6.78-13.44-1.7 2.27-5.14 6.85-5.29 7.08-.2.28-.91 1.18-1.25 1.94-.34.76-2.98 4.99-3.18 5.27-.19.29-.29.8-.86 1.76-.58.95-2.94 4.7-2.94 4.98 0 .29-1.44 2.61-2.07 3.51-.62.9-.91 1.71-1.58 2.8Z" fill="url(#bs235i05c)"/><path d="M36.46 9.02c.07.05.09.14.05.2a121.24 121.24 0 0 0-3.95 8.46 110.91 110.91 0 0 0-1.95 4.89 3.9 3.9 0 0 0-.1.4.3.3 0 0 1 .03.13.7.7 0 0 1-.02.17 11.2 11.2 0 0 1-.72 1.45 31.8 31.8 0 0 1-1.14 1.75 8.56 8.56 0 0 0-.94 1.94.3.3 0 0 1-.08.2 4.02 4.02 0 0 1-.44.33.94.94 0 0 0-.39.78c0 .5-.2.89-.43 1.2-.12.16-.24.3-.35.42l-.05.06-.22.25c-.1.13-.12.28-.14.5l-.01.1c-.04.26-.1.57-.37.89a6.88 6.88 0 0 1-.54.58 16.05 16.05 0 0 0-2.35 3.45c-.06.12-.18.3-.34.55l-.64.9c-.53.7-1.23 1.6-2.05 2.62a630.85 630.85 0 0 1-3.8 4.7.16.16 0 0 1-.2.04.15.15 0 0 1-.07-.19 347.5 347.5 0 0 1 3.13-7.91c.3-.7.54-1.24.68-1.47a19.45 19.45 0 0 0 .8-1.46c.24-.45.48-.88.8-1.34a42 42 0 0 0 1.99-3.3l.04-.1v-.03l.02-.08.02-.07.08-.17.28-.52.88-1.48 1.2-1.96.48-.78c.29-.47.45-.83.57-1.1l.07-.18.08-.2.15-.28a145.66 145.66 0 0 0 2.56-4.16c.3-.51.53-.9.6-1.09.28-.61.8-1.32 1.1-1.72l.17-.25 5.3-7.08a.16.16 0 0 1 .2-.04Zm-1.06 1.7a912.8 912.8 0 0 0-4.4 5.86c-.3.4-.78 1.07-1.04 1.65a114.02 114.02 0 0 1-3.19 5.3c-.04.05-.07.12-.12.22a10.56 10.56 0 0 0-.15.37c-.12.29-.3.66-.59 1.15l-.48.79c-.35.55-.79 1.26-1.2 1.95a61.75 61.75 0 0 0-1.21 2.13.45.45 0 0 0-.02.04l-.02.12-.06.13-.17.36-.57.99c-.44.73-.96 1.54-1.28 2a11.54 11.54 0 0 0-.83 1.43c-.21.42-.44.86-.75 1.36-.13.2-.36.71-.66 1.42a338.44 338.44 0 0 0-2.78 7l3.18-3.95a97.66 97.66 0 0 0 2.68-3.5c.16-.25.27-.42.3-.5a16.3 16.3 0 0 1 2.42-3.54l.14-.15c.12-.11.22-.22.4-.42.2-.25.25-.5.28-.73l.01-.1c.03-.2.05-.44.2-.65l.25-.27.05-.06c.1-.12.22-.25.32-.39.21-.28.38-.62.38-1.02 0-.52.26-.82.5-1.02a3.9 3.9 0 0 1 .4-.3c0-.05.02-.1.04-.16l.08-.23a9.37 9.37 0 0 1 .88-1.71c.17-.24.68-1 1.13-1.73.22-.37.42-.73.55-1.02a2.13 2.13 0 0 0 .14-.45.2.2 0 0 1-.02-.09v-.06l.01-.12.1-.35a111.57 111.57 0 0 1 1.95-4.91c.97-2.25 2.12-4.8 3.14-6.86Z" fill="#7B8184"/><path d="M26.4 36.52c-.27.25-2.15 5.09-3.24 7.96l6.4-9.42.43-1.08c.13-.34.38-1.05.38-1.22 0-.2.36-1.39 1.27-2.43a12.69 12.69 0 0 0 1.87-3.5 289 289 0 0 1 3.77-7.76l-6.55 9.97c-.43.6-1.32 1.87-1.52 2.09-.24.28.14 1.08 0 1.22-.14.13-1.02.8-1.34 1.04-.31.24-.31 1.53-.52 1.9-.22.4-.6.88-.96 1.23Z" fill="url(#cs235i05c)"/><path d="M37.35 18.94c.08.04.1.13.07.2-.97 1.95-2.08 5.45-2.54 6.9l-.2.62c-.1.3-.37 1.02-.73 1.8-.35.76-.8 1.6-1.27 2.15a8.75 8.75 0 0 0-1.4 2.22.63.63 0 0 0 0 .07c0 .07-.03.16-.06.26a6.78 6.78 0 0 1-.35 1.01l-.42 1.08-.02.04-7.36 9.86a.16.16 0 0 1-.2.05.15.15 0 0 1-.07-.2 370.07 370.07 0 0 1 2.94-7.48 20.6 20.6 0 0 1 .44-.97.69.69 0 0 1 .1-.14c.35-.34.72-.82.93-1.19a11.85 11.85 0 0 0 .2-.96 4.92 4.92 0 0 1 .22-.8.56.56 0 0 1 .15-.2l.27-.2.05-.04a119.93 119.93 0 0 0 .99-.77v-.1l-.05-.22a10.88 10.88 0 0 1-.07-.51.6.6 0 0 1 .12-.4c.1-.1.36-.46.67-.88l.84-1.18 6.55-9.97c.04-.07.13-.1.2-.05Zm-8.27 13.32ZM36.4 20.7l-5.53 8.43a129.25 129.25 0 0 1-1.53 2.1.4.4 0 0 0-.05.19c0 .1.02.22.05.34l.02.1a3.88 3.88 0 0 1 .05.42c0 .05-.02.12-.08.18a10.7 10.7 0 0 1-1.03.8l-.05.04-.27.21a.26.26 0 0 0-.06.09 4.61 4.61 0 0 0-.21.9l-.07.4c-.04.18-.08.35-.15.47-.22.4-.61.9-.98 1.25l-.04.08-.11.22a104.2 104.2 0 0 0-1.25 3c-.54 1.36-1.13 2.9-1.61 4.15l6.67-8.95.42-1.06a17.26 17.26 0 0 0 .38-1.16l.03-.16.08-.21a9.06 9.06 0 0 1 1.37-2.12c.44-.51.87-1.32 1.22-2.09a23.24 23.24 0 0 0 .9-2.34c.35-1.07 1.07-3.36 1.83-5.28Z" fill="#7B8184"/><path d="M32.49 38.24c-.18.18-1.46 3.5-2.2 5.46l4.36-6.46.28-.74c.1-.23.27-.72.27-.83 0-.15.24-.96.86-1.67.62-.72 1.13-2 1.27-2.41.11-.32 1.76-3.68 2.56-5.32l-4.45 6.85c-.3.4-.9 1.27-1.03 1.43-.17.19.1.74 0 .83-.1.1-.7.55-.91.72-.22.16-.22 1.04-.36 1.3-.15.27-.41.6-.65.84Z" fill="url(#ds235i05c)"/><path d="M39.95 26.18a.1.1 0 0 1 .04.14 39.86 39.86 0 0 0-1.73 4.74l-.13.42c-.08.2-.26.7-.5 1.23s-.54 1.1-.87 1.48a6 6 0 0 0-.95 1.56v.01c0 .05-.02.11-.04.18a4.7 4.7 0 0 1-.23.7l-.3.73v.03l-5.01 6.77a.1.1 0 0 1-.14.03.1.1 0 0 1-.05-.13 256.72 256.72 0 0 1 2-5.14 14.02 14.02 0 0 1 .37-.76c.24-.24.5-.56.63-.81.03-.05.05-.14.08-.27l.04-.26.02-.13a3.37 3.37 0 0 1 .15-.56c.02-.05.06-.1.1-.13l.18-.14.04-.03a64.99 64.99 0 0 0 .67-.53v-.06l-.03-.15-.02-.08a1.49 1.49 0 0 1-.03-.28.4.4 0 0 1 .09-.26l.45-.61.57-.81 4.45-6.84a.1.1 0 0 1 .15-.04Zm-5.63 9.14Zm4.97-7.93-3.76 5.78a86.16 86.16 0 0 1-1.04 1.45c-.02.01-.03.05-.03.12a1.29 1.29 0 0 0 .04.3 2.67 2.67 0 0 1 .03.3.2.2 0 0 1-.05.12 7.22 7.22 0 0 1-.7.55l-.03.03a51.12 51.12 0 0 0-.23.2 3.2 3.2 0 0 0-.14.62l-.05.27c-.03.13-.05.25-.1.33a4.7 4.7 0 0 1-.66.86l-.04.05-.07.15-.22.5a241.74 241.74 0 0 0-1.73 4.41l4.54-6.15.29-.72a12.05 12.05 0 0 0 .25-.8l.02-.11.06-.15a6.22 6.22 0 0 1 .93-1.46c.3-.34.6-.9.84-1.42.23-.52.41-1 .48-1.2l.13-.4c.23-.74.73-2.32 1.24-3.63Z" fill="#7B8184"/><defs><linearGradient id="as235i05c" x1="14.87" y1="34.59" x2="28.65" y2="13.84" gradientUnits="userSpaceOnUse"><stop stop-color="#7B8184"/><stop offset=".12" stop-color="#C4C7C8"/><stop offset=".75" stop-color="#BEBAAC"/><stop offset="1" stop-color="#BEA364"/></linearGradient><linearGradient id="bs235i05c" x1="18.33" y1="45.23" x2="36.23" y2="11.52" gradientUnits="userSpaceOnUse"><stop stop-color="#9C9FA1"/><stop offset=".39" stop-color="#ACA899"/><stop offset="1" stop-color="#E2B524"/></linearGradient><linearGradient id="cs235i05c" x1="35.31" y1="25.26" x2="29" y2="38.46" gradientUnits="userSpaceOnUse"><stop stop-color="#D1A208"/><stop offset="1" stop-color="#A79A71"/></linearGradient><linearGradient id="ds235i05c" x1="38.55" y1="30.52" x2="34.2" y2="39.55" gradientUnits="userSpaceOnUse"><stop stop-color="#D1A208"/><stop offset="1" stop-color="#A79A71"/></linearGradient></defs></svg>