<?xml version='1.0' encoding='utf-8'?>
<!-- by TradeStack -->
<svg width="56" height="56" viewBox="0 0 56 56" xmlns="http://www.w3.org/2000/svg"><path fill="#F0F3FA" d="M0 0h56v56H0z" /><path d="M16.87 29.66c-1.33-.03-1.94-.46-2.66-1.62a49.17 49.17 0 0 0-2.88-4.18c-.9-1.16.31-3.07.7-4.22.38-1.1.72-2.03 1.01-2.78.48-1.23 1.27-1.73 2.54-2.3 1.62-.72 3.25-1.42 4.89-2.1a4.72 4.72 0 0 1 3.67-.18l3.27.9c1.08.3 1.74-.32 2.92.13 1.14.43 2.3.71 3.5.84.85.08 1.58.4 1.92 1.12.83 1.76 1.45 3.56 2.81 4.98 1.47 1.54 2.93 3.07 4.38 4.62.04.04.06.1.06.15 0 .58-.32 1.05-.58 1.54-.28.55-.4 1.16-.58 1.74-.59 1.83-1.8 3.37-2.16 5.29-.23 1.14-.14 2.6-.2 3.88-.1 2.1-1.49 2.7-2.42 4.39-.57 1.03-.9 2.29-1.49 3.18a8.77 8.77 0 0 1-2.67 2.61c-.94.6-1.64.41-2.29-.4a337.84 337.84 0 0 1-3.67-4.68 6.6 6.6 0 0 1-1.39-3.8l-.23-5.58a.85.85 0 0 0-.42-.7c-.77-.44-1.64-.83-2.23-1.45-.36-.39-.86-1.4-1.41-1.36-1.43.1-2.95.03-4.39-.02Zm3.25-9.63A326.01 326.01 0 0 0 14 23.25c-.57.31-.97.81-.8 1.45.1.4.8 1.7 1.36 2.07a.15.15 0 0 0 .18 0l7.13-5.54c1.68-1.35 3.48-1.44 5.87-1.83.06-.01.07 0 .04.06l-.05.09a.17.17 0 0 1-.1.08c-2.22.77-3.98 1.26-5.65 3.02l-6.06 5.94a.06.06 0 0 0-.02.05.06.06 0 0 0 .05.05c1.97.32 3.36-.3 4.75-1.72l2.7-2.8a7.99 7.99 0 0 1 3.9-2.25c.18-.05.25 0 .2.17a.17.17 0 0 1-.08.1c-2.37 1.4-3.85 3.86-5.4 6.17a.2.2 0 0 0 .01.24l.88 1.11c.04.05.08.06.14.04.35-.11.62-.33.82-.64l1.98-3.18a4.85 4.85 0 0 1 2.42-2.02c.13-.05.2-.01.22.13l-.03.09a.22.22 0 0 1-.06.08c-1.61 1.58-2.68 4.02-3.6 6.23-.06.15-.04.42-.04.58a.19.19 0 0 0 .07.15c.56.44 1.13-.01 1.41-.51.83-1.5 1.59-3.58 3.23-4.34a.08.08 0 0 1 .11.04l.04.08c.03.06.02.11-.03.16-1.2 1.28-1.87 2.82-2.65 4.62-.78 1.8-.68 3.84-.5 5.54.08.93.22.94.4.02.28-1.47.45-2.95 1.17-4.29.49-.9 1.14-1.93 1.96-3.12.02-.03.05-.03.07 0 .04.04.04.1.02.14-.84 1.81-1.97 3.92-2.13 5.85l-.45 4.98c-.05.54-.06 1.65.52 1.95a.13.13 0 0 0 .15-.02.87.87 0 0 0 .3-.52l.6-5.4c.23-2.01.96-3.27 1.87-4.9a2 2 0 0 1 .4-.52.05.05 0 0 1 .08.05c-.77 2.04-1.42 3.52-1.47 5.16l-.21 7.24c-.01.46.53 2.57 1.22 2.7.31.05.4-.19.4-.46.05-2.95.1-5.9.13-8.85.02-1.4.35-2.89 1-4.44.07-.17.11-.5.3-.65.1-.07.14-.05.12.07-.26 1.8-.37 3.54-.31 5.2.05 1.44.17 4.18.38 8.21.02.45.41.68.8.4 1.5-1.11 2.08-2.64 1.72-4.58-.52-2.82-1.22-5.58-1.1-8.38a.15.15 0 0 1 .12-.14.15.15 0 0 1 .16.1c.6 2.24 1.16 4.52 1.68 6.85.08.35.24.54.48.58a.4.4 0 0 0 .44-.23c.37-.8.43-1.43.3-2.36-.24-1.68-.48-3.57-1.28-5.04a.2.2 0 0 1 .19-.3c.04 0 .09.02.12.05 1.2 1.14 1.32 3.13 1.67 4.52.2.76.29.75.3-.04 0-1.02-.07-2.12.14-3.06a9.7 9.7 0 0 1 1.05-2.76c.48-.84.26-1.48-.8-1.47a16.17 16.17 0 0 1-2.04-.14.1.1 0 0 1 .04-.16c1.07-.32 2.27-.41 3.37-.66 1.6-.35.67-1.84.22-2.63a.16.16 0 0 1-.02-.08c0-.03 0-.06.02-.08.41-.63.96-.13 1.28-.34.19-.13.2-.27.04-.42-1.34-1.3-2.63-2.6-3.87-3.88-1.21-1.25-1.77-2.6-2.45-4.18-.4-.92-.84-1.65-1.8-1.78-1.01-.13-1.8-.25-2.35-.38-1.03-.22-1.56-.63-2.69-.3-.72.2-3.67-.9-4.51-1.17-1.83-.6-2.95.05-5.05.94-1.27.54-2.52 1.09-3.76 1.65-.17.07-.16.13.02.16a578.4 578.4 0 0 0 5.3-1.02 8.35 8.35 0 0 1 2.79-.19c2.28.54 4.56 1.1 6.84 1.68.06.01.07.04.02.09-.05.05-.12.07-.2.06l-5.97-.56a9.57 9.57 0 0 0-3.28.2c-1.55.36-3.53.89-5.95 1.56-.75.2-1.27.57-1.58 1.09-.14.25-1.08 2.49-.88 3.14.01.03.03.06.06.08.02.02.05.03.08.03.23.02.48-.03.74-.16 2.32-1.11 4.64-2.24 6.94-3.38 1.26-.63 2.28-1.03 3.53-.97a25029.33 25029.33 0 0 1 5.15.29.07.07 0 0 1 .02.07.07.07 0 0 1-.03.04h-.03c-1.33.2-2.68.36-4.06.48-1.71.15-3.3.7-4.78 1.65Z" fill="#2F2720" /><path d="M32.7 20.9a.04.04 0 0 1 0-.05l.08-.07a.12.12 0 0 1 .1-.04c.77.14 1.5.04 2.19-.28a.14.14 0 0 1 .17.04l1.14 1.37c.07.1.05.13-.07.1l-2.22-.37c-.54-.08-.91-.42-1.38-.7Z" fill="#2F2720" /><path d="M21.99 22.65c1.52-1.6 3.12-2.15 5.08-2.82l.58-.2a.17.17 0 0 0 .09-.08l.05-.1c.03-.04.02-.06-.04-.05l-.96.15c-1.93.29-3.46.52-4.9 1.68l-7.14 5.54a.15.15 0 0 1-.18 0 5.4 5.4 0 0 1-1.36-2.07c-.17-.64.23-1.14.8-1.45 2.02-1.1 4.06-2.17 6.1-3.22a10.4 10.4 0 0 1 4.8-1.65 65.74 65.74 0 0 0 4.1-.5.07.07 0 0 0 .01-.05.07.07 0 0 0-.02-.04l-.02-.02h-.02l-5.11-.27c-1.25-.06-2.27.34-3.53.97-2.3 1.14-4.62 2.27-6.94 3.38-.26.13-.51.18-.74.16a.16.16 0 0 1-.14-.1c-.2-.66.74-2.9.89-3.15.3-.52.82-.88 1.57-1.09 2.42-.67 4.4-1.2 5.95-1.57a9.57 9.57 0 0 1 3.28-.2l5.97.57c.09.01.15-.01.2-.06.05-.05.04-.08-.02-.1-2.28-.57-4.56-1.13-6.84-1.67a8.35 8.35 0 0 0-2.8.19 582.13 582.13 0 0 1-5.29 1.02c-.18-.03-.19-.09-.02-.16 1.24-.56 2.5-1.11 3.76-1.65l.6-.26c1.74-.75 2.8-1.21 4.45-.68l.55.19c1.19.4 3.36 1.15 3.96.98.83-.24 1.34-.09 1.95.1.23.07.47.14.74.2.55.13 1.34.25 2.35.38.96.13 1.4.86 1.8 1.78l.07.16c.65 1.5 1.2 2.81 2.38 4.02 1.24 1.29 2.53 2.58 3.87 3.88.16.15.15.3-.04.42-.12.08-.27.06-.44.03-.28-.04-.59-.08-.84.3a.16.16 0 0 0-.02.09c0 .03 0 .06.02.08l.04.07c.46.8 1.3 2.22-.26 2.56-.44.1-.9.18-1.36.25-.68.11-1.37.22-2 .41a.1.1 0 0 0-.07.1.1.1 0 0 0 .08.08c.66.08 1.33.12 1.99.12 1.05 0 1.27.63.8 1.47a9.7 9.7 0 0 0-1.06 2.76c-.16.73-.15 1.56-.15 2.38v.68c0 .79-.1.8-.29.04-.08-.3-.14-.65-.21-1-.25-1.23-.52-2.63-1.46-3.52a.2.2 0 0 0-.33.1.2.2 0 0 0 .02.15c.76 1.4 1.01 3.17 1.24 4.77l.04.27c.13.93.07 1.56-.3 2.36a.4.4 0 0 1-.43.23c-.25-.04-.41-.23-.49-.58-.52-2.33-1.08-4.6-1.68-6.84a.15.15 0 0 0-.16-.11.15.15 0 0 0-.13.14c-.09 2.27.35 4.5.8 6.77l.31 1.61c.36 1.95-.21 3.47-1.72 4.58-.39.28-.78.05-.8-.4-.2-4.03-.33-6.77-.38-8.21-.06-1.66.05-3.4.3-5.2.03-.12-.01-.14-.1-.07-.15.11-.2.32-.26.48-.01.07-.03.12-.05.17a11.96 11.96 0 0 0-1 4.44c-.03 2.95-.08 5.9-.13 8.85 0 .27-.09.51-.4.46-.7-.13-1.23-2.24-1.22-2.7l.2-7.24c.06-1.44.56-2.76 1.21-4.44l.27-.72v-.03a.05.05 0 0 0-.07-.02 2 2 0 0 0-.4.52l-.1.16c-.86 1.55-1.55 2.8-1.77 4.73l-.61 5.41a.87.87 0 0 1-.3.52.13.13 0 0 1-.07.03l-.08-.01c-.58-.3-.57-1.4-.52-1.95l.45-4.98c.14-1.64.98-3.42 1.75-5.03l.38-.82a.13.13 0 0 0-.02-.14c-.02-.03-.05-.03-.07 0a35.15 35.15 0 0 0-1.96 3.12c-.6 1.1-.81 2.3-1.03 3.51l-.14.78c-.18.92-.32.91-.4-.02-.18-1.7-.28-3.74.5-5.54.78-1.8 1.45-3.34 2.65-4.62.05-.05.06-.1.03-.16l-.04-.07a.08.08 0 0 0-.1-.04c-1.34.6-2.1 2.09-2.77 3.43l-.47.9c-.28.5-.85.95-1.4.51a.19.19 0 0 1-.08-.15v-.08c0-.17-.01-.37.04-.5.92-2.21 1.99-4.65 3.6-6.23a.22.22 0 0 0 .06-.08.4.4 0 0 0 .03-.1c-.02-.13-.09-.17-.22-.12a4.85 4.85 0 0 0-2.42 2.02l-1.98 3.18c-.2.31-.47.53-.82.64-.05.02-.1 0-.14-.04l-.88-1.11a.2.2 0 0 1 0-.24l.43-.65c1.4-2.11 2.81-4.25 4.96-5.52a.17.17 0 0 0 .08-.1c.05-.16-.02-.22-.2-.17a7.99 7.99 0 0 0-3.89 2.24c-.9.94-1.8 1.88-2.71 2.8-1.4 1.42-2.78 2.05-4.75 1.73a.06.06 0 0 1-.05-.05v-.03l.02-.02 6.06-5.94Zm10.72-1.74.35.22c.32.21.63.41 1.03.47.74.12 1.48.24 2.22.38.12.02.14-.02.07-.1l-1.14-1.38a.14.14 0 0 0-.17-.04 3.57 3.57 0 0 1-2.25.29.12.12 0 0 0-.04.03l-.08.07v.05h.01Z" fill="url(#anplkmliz)" /><defs><linearGradient id="anplkmliz" x1="35.5" y1="18.62" x2="21.67" y2="29.96" gradientUnits="userSpaceOnUse"><stop stop-color="#AD995A" /><stop offset=".62" stop-color="#AB975A" /><stop offset="1" stop-color="#5B5033" /></linearGradient></defs></svg>