<!-- by TradeStack --><svg width="56" height="56" viewBox="0 0 56 56" xmlns="http://www.w3.org/2000/svg"><path fill="#F0F3FA" d="M0 0h56v56H0z"/><path d="M36 14a28.72 28.72 0 0 1-6.44 12.91.24.24 0 0 1-.19.1H14.05l-.03-.02a.05.05 0 0 1-.02-.04V14h22Z" fill="#E2606F"/><path d="M42 14v12.9c0 .06-.04.1-.12.1h-10.8c-.08 0-.1-.03-.05-.1a82.51 82.51 0 0 0 1.55-2.07A29.52 29.52 0 0 0 37.26 14H42Z" fill="#CB67A4"/><path d="M14.09 28h7.8c.07 0 .11.04.11.11v4.9c0 .06-.03.1-.08.13a29.22 29.22 0 0 1-7.8 3.02c-.08.02-.12-.01-.12-.1V28.1c0-.06.03-.09.09-.09Z" fill="#51B870"/><path d="M23 32.36V28.1c0-.06.03-.09.1-.09h5.32a.04.04 0 0 1 .04.05l-.01.02a29.35 29.35 0 0 1-5.43 4.33.04.04 0 0 1-.02-.04Z" fill="#FFE33B"/><path d="M23.1 33.71A31.3 31.3 0 0 0 30 28.07c.04-.05.1-.07.17-.07h11.69c.09 0 .13.04.13.13v13.8c0 .04-.03.07-.08.07H23.07a.07.07 0 0 1-.05-.02.07.07 0 0 1-.02-.05v-8.05c0-.07.03-.13.1-.17Z" fill="#2A71B9"/><path d="M21.91 42h-7.82c-.06 0-.09-.03-.09-.09V37.5a.1.1 0 0 1 .08-.1 31.28 31.28 0 0 0 7.83-2.9c.06-.02.09 0 .09.06v7.36c0 .03 0 .05-.03.06a.1.1 0 0 1-.06.03Z" fill="#23ADCF"/></svg>