<?xml version='1.0' encoding='utf-8'?>
<!-- by TradeStack -->
<svg width="56" height="56" viewBox="0 0 56 56" xmlns="http://www.w3.org/2000/svg"><path fill="#F0F3FA" d="M0 0h56v56H0z" /><path d="m28 16 .67 6.54 1.8-6.32-.48 6.55 2.87-5.92-1.62 6.38 3.87-5.33-2.7 6 4.73-4.59-3.71 5.44 5.46-3.7-4.6 4.72 6.02-2.7-5.35 3.85 6.4-1.6-5.94 2.85L42 27.7l-6.35 1.8L31.64 31l-8.04-3.87-3.25 2.35L14 27.7l6.59.48-5.95-2.86 6.4 1.61-5.35-3.84 6.02 2.69-4.6-4.72 5.46 3.7-3.7-5.44 4.73 4.58-2.7-6 3.86 5.34-1.62-6.38L26 22.77l-.48-6.55 1.8 6.32L28 16Z" fill="#C1B27C" /><path d="M34 29.87 30.98 31l-7.93-3.8L21 28.68A6.66 6.66 0 0 1 27.38 24 6.64 6.64 0 0 1 34 29.87Z" fill="#D9CFAC" /><path d="m32 30.54-1.19.46L24 27.65c.83-1.01 2.08-1.65 3.47-1.65 2.48 0 4.5 2.03 4.53 4.54Z" fill="#fff" /><path d="M6 34.9c4.26-.29 9.95-5.35 10.57-5.35.37 0 .4.3.4.58 0 .93-2.12 2.64-3.19 3.38.76-.35 2.8-1.38 4.85-2.65 2.56-1.6 4.44-2.76 5.16-2.76.71 0 3.02 1.82 4.26 2.46 1.24.64 2.02.9 2.02 1.43 0 .54-2.88 2.37-4.43 3.01 3.34 0 9.5-4.14 10.52-4.14 1.02 0 2.36.82 4.63 1.86 4.98 2.34 7.48 1.94 9.21 1.94-5.76-.94-12.8-5.7-13.84-5.7-1.04 0-2.19 1.42-3.77 1.42-2.9 0-7.98-4.38-8.95-4.38-.96 0-4.24 2.53-4.63 2.6-.39.08-1.43-.4-2.03-.4-7.23 5.3-9.04 6.01-10.77 6.7Z" fill="#822A28" /><path d="M25.08 30.2c0-.57-.72-.99-1.08-1.13 1.57-.25 1.17.15 2.11 1.34.76.95 1.58 1.25 1.89 1.28l-2.74 1.3c-.08.05.3-.75.3-1.3s-.48-.8-.48-1.5ZM21.32 31.42c.1-.46 1.17-1.8 1.68-2.42-.2 0-1.53 1.07-2.18 1.61-.65.54-.67 0-1.05.32-1.2 1.65-2.12 1.74-2.26 1.88L15 35c.47-.34 1.63-1.16 2.5-1.68 1.1-.65 1.05-.48 1.18-.5.13-.04.98-1.16 1.7-1.16s-.2 1.77-.6 2.82a9.13 9.13 0 0 0 1.54-3.06ZM38.5 33.21c-1.15-1.16-1.4-1.2-1.5-1.21.05.2.17.66.3.99.64.49.97.99 1.05 1.17.03-.08.13-.27.26-.32 1.81 1 3.02 1.2 3.39 1.16-.78-.21-2.57-.86-3.5-1.79Z" fill="#C1B27C" /></svg>