<!-- by TradeStack --><svg width="56" height="56" viewBox="0 0 56 56" xmlns="http://www.w3.org/2000/svg"><path fill="#F0F3FA" d="M0 0h56v56H0z"/><path d="m4 24.09 3.58.27c2.44-1.44 10.5-4.33 23.21-4.33 6.39 0 15.98 1.26 19.99 1.9 0-.04.04-.05.1-.07.1-.05.23-.1-.04-.27-.31-.2-.81-.35-1.02-.4-2.88-.73-11.13-2.19-21.1-2.19-12.44 0-13.88.2-24.72 3.27v1.82ZM15.64 28h-.97c0-1.04-.85-2.29-2.6-2.29-1.76 0-2.73.74-2.73 1.85 0 .89.58 1.27.88 1.35.35.13 1.52.49 3.42.87 1.89.38 2.35 1.77 2.35 2.42.12.93-.5 2.79-3.98 2.79s-4.12-2.25-4-3.38h1.02c0 1.32.68 2.6 2.98 2.6s3-1.16 3-1.86c0-.69-.29-1.1-.95-1.44-.56-.28-1.22-.43-2.64-.74l-.95-.22c-1.67-.38-2.1-1.6-2.1-2.15-.06-.94.58-2.81 3.6-2.81 3.03 0 3.7 2 3.67 3ZM22 25h-3.56v1H22v9h1v-9h3.44v-1H22Zm10.51 0-3.99 10h1.02l1.15-3h4.63l1.15 3h1l-3.88-10h-1.08Zm2.43 6h-3.86L33 25.97 34.94 31ZM41 25v10h1v-4h3.42c.37 0 .74-.04 1.08-.13.36.1.75.33.91.94.15.56.19 1.19.23 1.75.04.64.07 1.19.25 1.44H49c-.14-.06-.42-.4-.45-1.2l-.12-2.03a2.03 2.03 0 0 0-.9-1.3 2.89 2.89 0 0 0 1.46-2.57l.01-.36C49 26 47.7 25 46.1 25H41Zm1 1h3.9c1.16 0 2.1.85 2.1 1.9 0 1.06-.94 2.1-2.1 2.1H42v-4Z"/></svg>