<!-- by TradeStack --><svg viewBox="0 0 56 56" xmlns="http://www.w3.org/2000/svg"><path fill="#F0F3FA" d="M0 0h56v56H0z"/><path d="M41.88 30 43 28l-30 1v1h28.88Z" fill="#2EA64C"/><path d="M38 22.42c0-3.54-2.48-7.09-3.73-8.42-.5 6.42-3.72 10.61-5.27 11.9l8.08 1.1c.3-.64.92-2.45.92-4.58Z" fill="#E31F35"/><path d="M27.03 26.59c6.79-5.78 6.43-14.8 5.4-18.59C30.55 18.13 22.69 24.83 19 26.91L31.1 28l.48-.69-4.55-.72Z" fill="#CB2634"/><path d="M43 37h-1l-.67-1.56h-2.71L37.98 37H37l2.44-6h1.08L43 37Zm-4.08-2.5h2.1L40 32l-1.08 2.5ZM31 31h2.1c1.77 0 2.9 1.25 2.9 3s-1.13 3-2.9 3H31v-6Zm1 5h1.08c1.3 0 1.92-.59 1.92-2 0-1.41-.63-2-1.92-2H32v4ZM29 31h1v6h-1.06L26 32.5V37h-1v-6h1.06L29 35.5V31ZM21.5 37c-1.43 0-2.5-.84-2.5-2.32V31h1v3.46c0 1.02.49 1.54 1.5 1.54 1.02 0 1.5-.53 1.5-1.54V31h1v3.68c0 1.48-1.07 2.32-2.5 2.32ZM15.6 37c-1.3 0-2.59-.53-2.6-2h1c.02.86.5 1.27 1.61 1.27.93 0 1.39-.35 1.39-.96 0-.7-.83-.85-1.36-.96l-.53-.1c-1.27-.24-2.06-.75-2.06-1.7 0-1.14 1.36-1.55 2.32-1.55 1.17 0 2.52.46 2.55 1.81H17c-.07-.84-.87-1.08-1.62-1.08-.81 0-1.38.3-1.38.81 0 .7.93.86 1.47.97l.54.1c.92.18 1.99.57 1.99 1.67 0 1.29-1.33 1.72-2.4 1.72ZM41.7 39.84l.56-.84H43l-1.67 2.4V43h-.65v-1.6L39 39h.75l.58.84a74.78 74.78 0 0 0 .69 1.03c.2-.34.43-.68.68-1.03ZM36.01 41.49V41H38v2h-.49l-.11-.6c-.32.4-.78.6-1.39.6A1.94 1.94 0 0 1 34 41c0-1.19.88-2 2.05-2 .86 0 1.75.42 1.9 1.35h-.65c-.13-.57-.7-.84-1.24-.84-.86 0-1.4.66-1.4 1.49 0 .84.54 1.49 1.4 1.49.65 0 1.32-.3 1.34-1h-1.39ZM32 43h-.65l-.7-1.5h-1.09V43H29v-4h1.64c.64 0 1.3.44 1.3 1.2 0 .5-.28 1.02-.7 1.1L32 43Zm-2.44-2h1.09c.4 0 .7-.35.7-.8 0-.45-.35-.68-.74-.68h-1.05V41ZM21.3 39h.7v4h-.85c-.82-1.06-2.45-3.22-2.45-3.22V43H18v-4h.85c.83 1.07 2.45 3.23 2.45 3.23V39ZM16 39v.54h-2.37v1.13h2.15v.53h-2.15v1.26H16V43h-3v-4h3ZM27 39v.54h-2.37v1.13h2.15v.53h-2.15v1.26H27V43h-3v-4h3Z" fill="#323232"/></svg>