<?xml version='1.0' encoding='utf-8'?>
<!-- by TradeStack -->
<svg width="56" height="56" viewBox="0 0 56 56" xmlns="http://www.w3.org/2000/svg"><path fill="#F0F3FA" d="M0 0h56v56H0z" /><path d="M33.5 24v8H32v-8h1.5ZM8.5 26.24c-.08-.74-.77-1.05-1.44-1.05-.63 0-1.55.28-1.56 1.02 0 .5.56.77 1 .93.15.05.3.1.47.14l.73.18c1.14.26 2.3.93 2.3 2.24 0 1.62-1.55 2.3-2.97 2.3-1.81 0-2.97-.86-3.03-2.41h1.5c.06.85.75 1.2 1.52 1.2.68 0 1.47-.3 1.48-1.1 0-.71-.76-.94-1.32-1.08l-.89-.23C5.24 28.11 4 27.5 4 26.3 4 24.76 5.72 24 7.08 24c1.34 0 2.79.75 2.81 2.24H8.5ZM15.5 24H17v5.15c0 1.71-1.33 2.85-3 2.85s-3-1.13-3-2.85V24h1.5v5.03c0 .97.52 1.7 1.5 1.7s1.5-.73 1.5-1.7V24ZM24 24v8h-1.18l-3.26-5h-.06v5H18v-8h1.18l3.26 5h.06v-5H24Z" /><path fill-rule="evenodd" d="M25 24v8h1.5v-2.5h1.57L29.5 32H31l-1.6-2.8a2.77 2.77 0 0 0 1.6-2.55c0-1.68-1.32-2.65-2.9-2.65H25Zm1.5 4h1.37c.9 0 1.63-.4 1.63-1.35 0-.95-.74-1.15-1.64-1.15H26.5V28Z" /><path d="M36.97 32H34.5v-8h2.52c2.37 0 3.48 1.94 3.48 4 0 2.49-1.3 4-3.53 4ZM36 30.5h.9c1.69 0 2.1-1.08 2.1-2.5 0-1.4-.4-2.5-2.06-2.5H36v5ZM45.7 26.6c-.23-.85-.84-1.1-1.59-1.1-1.3 0-1.61 1.15-1.61 2.5 0 1.37.32 2.5 1.64 2.5.95 0 1.68-.41 1.68-1.55l.27.05h-1.66v-1H47v.94c0 1.93-1.24 3.06-2.87 3.06-1.96 0-3.13-1.81-3.13-4 0-2.12 1.2-4 3.1-4 1.34 0 2.69.97 2.9 2.6h-1.3ZM48 32v-8h4v1.5h-2.5v1.89H51v1.21h-1.5v1.9H52V32h-4Z" /></svg>