<?xml version='1.0' encoding='utf-8'?>
<!-- by TradeStack -->
<svg width="56" height="56" viewBox="0 0 56 56" xmlns="http://www.w3.org/2000/svg"><path fill="#F0F3FA" d="M0 0h56v56H0z" /><path d="M44 21h1v13h3v1h-4V21ZM39 21h4v1h-3v5h3v1h-3v6h3v1h-4V21ZM32 21h1.76L36 34V21h1v14h-1.8L33 22v13h-1V21Z" fill="#EE6429" /><path fill-rule="evenodd" d="M33 17.63c-2.4 2.59-4 6.06-4 9.87 0 3.81 1.6 7.28 4 9.87A14.43 14.43 0 0 1 8 27.5a14.43 14.43 0 0 1 25-9.87ZM21 21h1l1.5 6.5L25 21h1l-2 8.05V35h-1v-5.95L21 21Zm-1 3.66v-1.3c0-1.7-.36-2.36-1.97-2.36-1.52 0-2.03.87-2.03 2.83v.79c0 .47.1 1.17.59 2.01l1.81 2.89.06.1c.25.47.54 1 .54 1.63v.94c0 1.25-.3 1.81-1 1.81-.63 0-1-.4-1-1.41V31h-1v1.63c0 1.67.36 2.37 1.97 2.37 1.7 0 2.03-.89 2.03-3v-.92c0-.92-.26-1.7-.73-2.52l-1.73-2.7a3.68 3.68 0 0 1-.54-1.68v-.66c0-1.03.45-1.52 1.03-1.52.6 0 .97.4.97 1.4v1.26h1Z" fill="#EE6429" /></svg>