<?xml version='1.0' encoding='utf-8'?>
<!-- by TradeStack -->
<svg width="56" height="56" viewBox="0 0 56 56" xmlns="http://www.w3.org/2000/svg"><path fill="#F0F3FA" d="M0 0h56v56H0z" /><path d="M19.51 21.72a14.45 14.45 0 0 1 4.57-2.18c.06-.01.1-.05.13-.1.03-.04.04-.1.03-.16a19.03 19.03 0 0 1-.4-4.73c.04-.85.3-1.68.77-2.5a2.1 2.1 0 0 1 1.53-1.04.93.93 0 0 1 .9.36l.07.1c.24.32.17.53-.21.6-.46.1-.76.36-.93.79a7.55 7.55 0 0 0-.47 2.78c0 1.37.09 2.49.23 3.35a.31.31 0 0 0 .35.26 13.25 13.25 0 0 1 9.8 2.32.2.2 0 0 0 .16-.04.2.2 0 0 0 .05-.06c1.35-2.58 2.85-5.14 5-7.17.23-.22.5-.39.81-.5.3-.12.59-.28.9-.49a.38.38 0 0 1 .47.05l.68.67a.18.18 0 0 1-.08.3c-.77.22-1.45.6-2.04 1.14a22.7 22.7 0 0 0-3.32 4.74l-1.22 2.3a.34.34 0 0 0 .06.38 12.5 12.5 0 0 1 3.2 5.56c1.16 4.2.37 7.89-2.36 11.08-.7.81-1.76 1.66-3.21 2.56a12.35 12.35 0 0 1-8.96 1.7c-.71-.13-1.21-.4-1.87-.73-.43-.2-.83-.12-1.25-.13a.53.53 0 0 1-.31-.12c-.43-.34-.7-.56-1.22-.76a10.1 10.1 0 0 1-2.14-1.07 12.22 12.22 0 0 1-4.87-9.33 10.6 10.6 0 0 1 .29-3.2c.55-2.12 1.81-3.9 3.37-5.6a.36.36 0 0 0 .03-.45l-4.93-7.23a.62.62 0 0 1-.05-.65c.1-.23.34-.45.69-.65 1.1-.6 2.1-1.1 3.01-.55a.29.29 0 0 1 .12.35.29.29 0 0 1-.07.11c-.49.46-1.1.8-1.84 1.03a.27.27 0 0 0-.18.31c0 .04.02.09.05.12a45.14 45.14 0 0 1 4.4 6.42c.06.12.15.14.26.06Zm5.57 19.73.17.44c.04.1.11.17.22.2 1.94.5 3.69.56 5.23.19a12.7 12.7 0 0 0 6.23-3.51 9.18 9.18 0 0 0 2.15-3.53c.5-1.47.67-2.88.51-4.22a11.5 11.5 0 0 0-2.88-6.5c-.16-.18-.3-.16-.4.05-.55 1.1-1.05 1.98-.92 2.93a.86.86 0 0 1-.36.82c-.6.42-1.16.41-1.7-.03-.3-.25-.26-.76-.34-1.13a.33.33 0 0 1 .08-.3c.4-.45.8-.83 1.03-1.5.24-.7.57-1.39 1-2.09.06-.08.05-.17-.03-.24-2.2-2.12-5.71-2.7-8.67-2.26a.16.16 0 0 0-.13.21c0 .03.02.06.04.08.3.25.53.44.72.58.73.53.92 1.25.14 1.84-.55.41-1.12.36-1.7-.16a.43.43 0 0 1-.15-.3c-.07-.69-.3-1.28-.72-1.77a.27.27 0 0 0-.29-.09 12 12 0 0 0-3.97 1.82c-.16.12-.16.24.02.34l1.16.67a.29.29 0 0 1 .14.2c.19.84-.12 1.38-.91 1.62-.98.3-1.25-.79-1.5-1.57a.24.24 0 0 0-.4-.1 9.44 9.44 0 0 0-3 7.8 9.98 9.98 0 0 0 4.7 8.04.26.26 0 0 0 .32-.02.26.26 0 0 0 .06-.3c-.4-.8-.46-1.44-.18-1.96.5-.95.87-.9 1.12.13.03.12.08.38.13.78.02.11.07.21.15.29.32.3.59.7.8 1.21.06.11.13.2.23.28.3.22.7.37 1.17.46a.96.96 0 0 1 .73.6Z" fill="#201815" /><path d="M23.9 28.64c1.94-2.07 5.24-2.19 6.86.46.34.55 1.1 1.24 1.25 2.06.28 1.45.03 2.65-.75 3.6a7.37 7.37 0 0 1-2.44 1.86c-.88.45-1.72.6-2.52.49-2.25-.35-3.05-2.05-3.67-4.17a4.57 4.57 0 0 1 .23-3.27c.23-.5.68-.65 1.03-1.03Z" fill="#E60014" /></svg>