<?xml version='1.0' encoding='utf-8'?>
<!-- by TradeStack -->
<svg width="56" height="56" viewBox="0 0 56 56" xmlns="http://www.w3.org/2000/svg"><path fill="#F0F3FA" d="M0 0h56v56H0z" /><path fill-rule="evenodd" d="M13.38 31h-2l3.1-6h2.38l3.16 6h-2.1l-.46-1h-3.59l-.49 1Zm2.34-4.76 1.05 2.26H14.6l1.1-2.26ZM10.8 27v-.86c-.03-.38-.44-1.14-1.93-1.14H5.6c-.54 0-1.6.26-1.6 1.33v.81c0 .8.6 1.45 1.34 1.45h3.54c.24 0 .42.2.42.45v.16c0 .25-.18.45-.42.45H6.02c-.24 0-.42-.2-.42-.45V29H4v.37c0 .9.68 1.63 1.51 1.63h4.15c.74 0 1.34-.65 1.34-1.45v-.93c0-.75-.56-1.36-1.26-1.36H6.02c-.24 0-.42-.2-.42-.45v-.03c0-.25.18-.45.42-.45h2.65c.23 0 .33.2.33.45V27h1.8ZM21 25v6h1.8v-4.42L26.18 31H29v-6h-1.82v4.4L23.82 25H21Zm11.57 2.29h-.8v-2.27H30v5.82h1.77v-2.2h.8L35.14 31h2.54l-3.54-3.1 2.35-2.29 2.74 3.34V31H41v-2.05L44.2 25H42l-1.88 2.47L38.18 25H34.8l-2.23 2.29ZM45 25.05v4c0 1.05.8 1.9 1.78 1.9h3.44c.98 0 1.78-.85 1.78-1.9v-4h-1.72v3.74c0 .4-.3.72-.68.72h-2.21c-.37 0-.68-.32-.68-.72v-3.74H45Z" fill="#007AC3" /></svg>