<!-- by TradeStack --><svg width="56" height="56" viewBox="0 0 56 56" xmlns="http://www.w3.org/2000/svg"><path fill="#F0F3FA" d="M0 0h56v56H0z"/><path d="M15.45 21.59a.77.77 0 0 1-.56-.23.77.77 0 0 1-.23-.57c0-.22.07-.4.23-.56a.77.77 0 0 1 .56-.23c.22 0 .4.08.54.23.15.15.23.34.23.56 0 .23-.08.41-.23.57a.71.71 0 0 1-.54.23ZM16 23v7h-1.03l.03-7h1ZM24 25.7c0 .25-.01.5-.04.78h-5.74c.07 1.32.94 2.52 2.33 2.52.94 0 1.73-.61 2.02-1.52h1.29a3.32 3.32 0 0 1-3.3 2.52C18.31 30 17 28.08 17 25.99c0-2.12 1.3-3.99 3.55-3.99 2.08 0 3.45 1.7 3.45 3.7Zm-1.23-.27c0-1.3-.88-2.43-2.22-2.43-1.33 0-2.21 1.18-2.32 2.43h4.54ZM28.8 22c1.98 0 3.2 1.45 3.2 3.37V30h-1v-4.44C31 24 29.92 23 28.5 23c-1.48 0-2.5 1.27-2.5 2.66V30h-1v-8h1v1.26c.54-.85 1.82-1.26 2.8-1.26ZM36.8 22c1.98 0 3.2 1.45 3.2 3.37V30h-1v-4.44C39 24 37.92 23 36.5 23c-1.48 0-2.5 1.27-2.5 2.66V30h-1v-8h1v1.26c.54-.85 1.82-1.26 2.8-1.26ZM46 28.46c-.45.95-1.65 1.54-2.69 1.54A2.26 2.26 0 0 1 41 27.7c0-1.56 1.25-2.7 2.72-2.7H46c-.03-1.06-.8-2-2-2-1.01 0-1.55.87-1.7 1.82h-1.12c.19-1.6 1.3-2.82 2.96-2.82C46 22 47 23.35 47 25.06V30h-1v-1.54Zm-2.5.54c1.41 0 2.5-1.68 2.5-3h-2.28c-1.04 0-1.72.91-1.72 1.7 0 .8.74 1.3 1.5 1.3Z" fill="#1B405B"/><path d="M10.13 32c.86 0 2.5.33 3.2.5H22.93c2.67 0 2.14 0 3.74.5s8 0 10.13 0H48c-2.13 1.2-8 1.17-10.67 1l5.87.5-5.87.5 1.6.5H28.8c-1.07 0-3.73.5-4.8 0-1.07-.5-3.73.5-5.33.5s-2.67-.5-4.27-.5c-1.6 0-2.13 0-3.2-.5-1.07-.5-1.6 0-1.6-.5s-1.07-.5-.53-1C9.6 33 8 33 8 32.5s.53.5 1.07 0c.53-.5 0-.5 1.06-.5Z" fill="url(#azlctjk1j)"/><path d="M11 30c-1.47 0-2.9-.87-3-2.5h1c.09.92 1.17 1.5 2 1.5.7 0 2-.4 2-1.23 0-.88-1.35-1.1-2-1.27-1.26-.33-2.84-.78-2.84-2.34C8.16 22.7 9.73 22 11 22c1.5 0 2.92.9 3 2.5h-1c-.06-.9-1.17-1.5-2-1.5-.66 0-1.84.22-1.84 1.16s1.64 1.15 2.34 1.34c1.2.32 2.47.8 2.5 2.27 0 1.5-1.67 2.23-3 2.23Z" fill="#1B405B"/><defs><linearGradient id="azlctjk1j" x1="10.13" y1="33" x2="44.27" y2="33.57" gradientUnits="userSpaceOnUse"><stop stop-color="#153D56"/><stop offset=".56" stop-color="#527186"/><stop offset="1" stop-color="#597286"/></linearGradient></defs></svg>