<?xml version='1.0' encoding='utf-8'?>
<!-- by TradeStack -->
<svg width="56" height="56" viewBox="0 0 56 56" xmlns="http://www.w3.org/2000/svg"><path fill="#F0F3FA" d="M0 0h56v56H0z" /><path d="M44 39.47C44 37 42.1 35 39.77 35c-2.25 0-3.37 2.3-5.53 2.51a3.99 3.99 0 0 1-.76 0c-2.13-.2-3.23-2.45-5.43-2.51-2.26 0-3.37 2.3-5.53 2.51a3.99 3.99 0 0 1-.76 0c-2.16-.2-3.28-2.51-5.53-2.51-2.34 0-4.23 2-4.23 4.47v.06C12 42 13.9 44 16.23 44c2.25 0 3.37-2.3 5.53-2.51a4.03 4.03 0 0 1 .76 0c2.16.2 3.27 2.51 5.53 2.51 2.2-.06 3.3-2.31 5.43-2.51a4.02 4.02 0 0 1 .76 0c2.16.2 3.28 2.51 5.53 2.51 2.34 0 4.23-2 4.23-4.47v-.06ZM27.83 24c2.3 0 4.17 1.78 4.17 3.97v.06c0 2.2-1.87 3.97-4.17 3.97-2.22 0-3.32-2.05-5.46-2.23a4.36 4.36 0 0 0-.74 0c-2.14.18-3.24 2.23-5.46 2.23A4.07 4.07 0 0 1 12 28.03v-.06c0-2.2 1.87-3.97 4.17-3.97 2.22 0 3.32 2.05 5.46 2.23a4.35 4.35 0 0 0 .74 0c2.14-.18 3.24-2.23 5.46-2.23ZM44 28a4 4 0 1 1-8 0 4 4 0 0 1 8 0ZM44 16a4 4 0 1 1-8 0 4 4 0 0 1 8 0ZM32 16a4 4 0 1 1-8 0 4 4 0 0 1 8 0ZM20 16a4 4 0 1 1-8 0 4 4 0 0 1 8 0Z" fill="#40BBCD" /></svg>