<?xml version='1.0' encoding='utf-8'?>
<!-- by TradeStack -->
<svg width="56" height="56" viewBox="0 0 56 56" xmlns="http://www.w3.org/2000/svg"><path fill="#F0F3FA" d="M0 0h56v56H0z" /><path d="M28 34.73c-7.2 0-17 1.51-21 2.27 4.17-1.06 14.2-3.18 21-3.18 6.8 0 16.83 2.12 21 3.18-4-.76-13.8-2.27-21-2.27Z" fill="#007DA4" /><path fill-rule="evenodd" d="m13.5 34.35-2-5.82 2.11-.4c8.02-1.47 20.78-3.84 24.89-3.84 3.2 0 6.33.71 7.5 1.06l-5.5 8.47a92.14 92.14 0 0 0-13-1.06c-5.2 0-11.5 1.06-14 1.6Zm19.5-7.4c0 .28-.22.52-.5.52a.52.52 0 0 1-.5-.53c0-.3.22-.53.5-.53s.5.24.5.53Zm-6.5 1.58c.28 0 .5-.24.5-.53 0-.3-.22-.53-.5-.53s-.5.24-.5.53c0 .3.22.53.5.53Zm-5.5.53c0 .3-.22.53-.5.53a.52.52 0 0 1-.5-.53c0-.3.22-.53.5-.53s.5.24.5.53Zm-5 1.06c0 .29-.22.53-.5.53a.52.52 0 0 1-.5-.53c0-.3.22-.53.5-.53s.5.24.5.53Z" fill="#007DA4" /><path d="M43.56 29.12c-1.5-.3-3.52-.6-5.56-.6-4.11 0-16.87 2.37-24.89 3.85l-.27.06.66 1.92a78.3 78.3 0 0 1 14-1.59c5.2 0 10.83.71 13 1.06l3.06-4.7Z" fill="#092A48" /><path d="M35.5 22.7a9.5 9.5 0 0 0-5.5 2.12c.67-1.76 1.5-5.3 5.5-5.3s4.83 2.83 5.5 4.24c-.83-.35-3.1-1.05-5.5-1.05ZM29 23.76a11.4 11.4 0 0 0-5.5 1.6c1.2-4.24 5.17-4.6 7-4.24-.4.42-1.17 1.94-1.5 2.64ZM23 24.82c-2 0-4.17 1.06-5 1.6a5.04 5.04 0 0 1 6-3.71c-.4.42-.83 1.58-1 2.11Z" fill="#F1B556" /><path d="M17 26.94h-1L13 19l7 1.59.5 2.12-1-1.06-5-1.06 2.5 6.35Z" fill="#F1B556" /></svg>