<!-- by TradeStack --><svg width="56" height="56" viewBox="0 0 56 56" xmlns="http://www.w3.org/2000/svg"><path fill="#F0F3FA" d="M0 0h56v56H0z"/><path d="M39.44 14a8.47 8.47 0 0 0 1.05 1.29c.26.22.47.4.47.94 0 .51-.39.94-.58 1.09-.75.48-2.43 1.54-3.09 1.94a7.44 7.44 0 0 0-1.79 2.13 19.2 19.2 0 0 1 1.8-1.43c.33-.16 2.84-1.57 3.55-2.43 0 .21-.05.7-.22.95-.17.26-.1.58-.04.7.01-.16.09-.52.26-.67.04.01.1.1.1.36v.1c0 .31.01.72-.24 1.06-.09.13-.22.25-.33.37-.25.24-.47.46-.35.62.13.2.24.54.28.68v-1l.43-.38v.86c0 .3-.1.92-.43 1-.41.1-.56.16-.56.46 0 .13.04.22.08.31.06.1.11.22.11.42 0 .24-.13.39-.27.54-.09.1-.18.2-.24.32-.08.15-.12.3-.17.46a3.77 3.77 0 0 1-.6 1.27c-.3.46-.66 1.02-.79 1.6-.08.4-.1.7-.1.94-.02.26-.03.44-.13.6l-.06.1c-.13.23-.2.36-1.02.36.11.03.37.1.49.07-.05.1-.28.25-.8.16l.2.16c-.06.05-.28.13-.75.09l.24.12a166.05 166.05 0 0 0-2.82 1.45c-.25.16-.56.34-.83.36h-.17l.24.08h-.71l.43.15-.77.09.34.12v.17l-.7.06.5.09-.18.16-.43.05.43.08-.06.09h-.63l.44.11v.18l-.62.05.55.07-.03.1-.55.07.47.07v.16l-.55.04.47.08-.02.18-.39.05.4.06v.1l-.52.04.42.07v.18l-.4.06.4.06v.1l-.38.07.33.05v.18l-.25.07.2.05v.11l-.2.03.2.08v.07l-.2.06.2.05c-.01.6-.05 1.95-.12 2.47-.08.66-.2 1.32-.5 1.72.13-.05.47-.31.72-.91.26-.6.46-.99.53-1.1l-.53.54v-.84c.04-.24.15-.73.32-.76.17-.03.21.23.21.37.07-.24.1-.73-.34-.8.03-.8.26-2.59.91-3.23.83-.8 1.39-.96 2.02-1.02l-.62-.15 2-1.14c.66-.32 2.05-1.01 2.3-1.28-.1.57-.4 1.86-.82 2.5l-.1.28h-.34l.26.15h-.51l.42.19v.05l-.62.03.5.08V33h-.65l.51.16v.16h-.7l.64.12v.06l-.18.13h-.64l.6.1-.07.1h-.72l.68.11-.07.18h-.8l.7.14-.06.07h-.72l.61.13-.04.18h-.73l.62.12-.12.18h-.65l.58.13-.15.2h-.52l.45.1-.05.09h-.77l.65.12-.13.19h-.75l.66.11-.1.19h-.73l.64.12-.2.18h-.7l.6.13-.1.18H33l.72.11-.18.2h-.8l.75.11-.19.19h-.64l.55.13-.03.08h-.5l.4.11-.08.18h-.51l.44.13-.4.5c-.35.63-1.15 2-1.57 2.39-.23.2-.36.43-.5.67-.18.33-.38.69-.86 1.04.04.01.22 0 .59-.21-.1.32-.28 1.11-.28 1.7h7.18c2.7 0 4.9-2.24 4.9-5V14h-2.56Zm-4.76 17.4a5.47 5.47 0 0 0 2.13-1.03c-.31.51-1.18 1.57-2.22 1.67.24-.07.8-.32 1.11-.8l-1.02.15Zm-1.57-9.31c-.77.12-1.31.43-1.49.56.2-.1.86-.15 1.43-.2.27-.02.53-.04.71-.07.46-.06 1.1-.58 1.35-.83-.34.13-1.22.41-2 .54Zm3.12.3c0-.13.06-.41.3-.57a.8.8 0 0 1 .3-.12.6.6 0 0 0 .3-.15c.16-.14.28-.37.4-.6.06-.12.12-.24.19-.34.19-.27.48-.43.7-.45-.12.06-.38.23-.48.45a3.1 3.1 0 0 0-.1.29c-.09.24-.18.52-.37.69-.17.15-.32.2-.47.25-.09.03-.18.06-.27.11-.2.11-.41.33-.5.43Zm2.15-.92a.94.94 0 0 1-.44.37c.72 0 1.07-.79 1.24-1.17l.05-.11c.12-.25.5-.64.67-.8-.7.26-1.07.84-1.18 1.1-.05.1-.2.4-.34.61Zm-5.48 2.24c.08-.1.3-.3.52-.3.13 0 .2.03.27.05.09.02.18.05.4.05.15 0 .33-.1.54-.22.35-.2.78-.45 1.21-.28-.08-.02-.34-.02-.72.22-.16.09-.28.17-.38.25-.2.16-.35.26-.65.26-.16 0-.3-.03-.43-.06-.24-.05-.46-.1-.76.03Zm1.06 1.06a.92.92 0 0 1-.57.15c.37.18.76.06 1.1-.15.34-.21.73-.35 1.1-.35.2 0 .3.03.4.05.11.02.23.05.43.05.38 0 .55-.35.73-.74l.01-.03.01-.02.01-.02c.13-.26.27-.35.41-.44.1-.05.18-.1.26-.2.19-.2.18-.46.15-.56-.09.22-.27.35-.45.47-.1.07-.22.14-.3.23-.14.15-.23.32-.32.5-.06.1-.11.22-.19.33-.18.27-.44.33-.7.23a1.5 1.5 0 0 0-.54-.09c-.68 0-1.08.28-1.38.48-.05.04-.1.08-.16.1Zm-7.34 1.98c.17.1.63.28 1.07.28.26 0 .58-.1.92-.21.36-.12.73-.24 1.05-.24.6 0 1.25-.1 1.5-1.22.06.4.32 1.22.84 1.22.3 0 .55.05.75.09.23.04.4.07.56.02.07-.03.16-.1.28-.2.36-.27.94-.71 1.68-.47-.05-.01-.72.14-1.07.4-.29.22-.35.36-.35.4.25.03.85.07 1.26.04-.17.1-.62.27-1.06.26-.28 0-.43-.07-.59-.13a1.5 1.5 0 0 0-.62-.13l-.32.01c-.45.01-.82.03-1.06-.24-.24-.26-.3-.43-.3-.49-.1.23-.46.7-1.15.72-.44.02-.81.13-1.15.23-.33.1-.63.19-.95.19-.64-.01-1.04-.13-1.3-.53Zm10.06-.07c-.23.23-.63.22-.8.2.09.03.34.1.7.1.46 0 1.07-.81 1.18-1 .08-.14.38-.3.51-.36-.24-.15-.54.06-.66.18l-.93.88Zm-8.53-.75c.12.06.53.18 1.2.18.85 0 1.43-.45 1.87-1.15.24.39.92 1.13 1.75 1.06.12 0 .43-.03.64-.19.26-.2.56-.32 1.02-.23.47.09.88.1 1.26.1.37 0 .78-.1 1.1-.4.12-.12.35-.4.6-.73.45-.56.98-1.24 1.24-1.38-.19.05-.65.23-.96.62l-.61.84c-.15.21-.58.66-1.09.75-.39.07-.8.01-1.2-.04a5.04 5.04 0 0 0-.65-.06c-.25 0-.42.1-.6.19-.2.1-.4.22-.72.22-.61 0-1.5-.56-1.61-.95l-.04-.72c.26.25.99.68 1.84.42-.52-.06-1.62-.3-1.84-.77v-.27c.09.1.32.27.53.27.26 0 .43.03.52.12-.01-.07-.1-.23-.35-.33a.83.83 0 0 0-.24-.05c-.18-.01-.33-.02-.46-.42-.06.02-.2.07-.32.13l-.15.1c-.17.12-.41.3-.64.32l-.14.02c-.19.03-.27.04-.48.18l-.04.03c-.28.19-.92.63-1.6.54.3.06.99.14 1.28 0 .36-.17 1.38-.64 1.56-.64.18 0 .27.17.04.47-.23.3-.72.74-1.2.88-.24.07-.5.08-.73.1-.2 0-.38 0-.53.05-.25.09-.72-.03-.93-.1.12.13.46.37.82.35.23 0 .35-.04.46-.06.1-.02.18-.04.32-.04h.07c.29.01.66.02.96-.2l.93-.76c-.05.3-.3.98-.93 1.27-.65.3-1.57.31-1.95.28Zm1.57-2.97c.44-.01.97-.19 1.18-.27-.26 0-.9-.03-1.41-.13a23.8 23.8 0 0 0-3.35-.16c-.64.02-1.45-.19-1.78-.3 1.02.86 1.96.8 2.75.75l.41-.02c.46 0 .9.04 1.3.08.34.03.64.06.9.05Zm-2.14 1.43c-.11-.17-.45-.53-.96-.65a1.93 1.93 0 0 0-1.14.28c.22-.01.72-.03 1 0 .28.02.85.25 1.1.37Zm-7.28-4.3a4.79 4.79 0 0 1-1.39-.75c.1.21.6.77 1.74 1.3 1.14.53 2.07.93 2.38 1.07-1.13-1.24-2.13-1.48-2.7-1.6l-.03-.02Zm1.9 1.86c.3.04.93.18 1.14.35.27.2 1.16.8 1.8.78-.8.38-1.56-.32-1.8-.54a5.24 5.24 0 0 0-1.14-.6Zm-4.04-3.09a.94.94 0 0 0-.58-.23c.1.1.34.32.48.48l.15.2c.22.32.58.86 1.07.95-.44-.24-.65-.64-.83-.96-.1-.19-.18-.35-.29-.44Zm-2.14-3.79.3-.22c.22.8.81 2.57 1.4 3.23a6.02 6.02 0 0 1-1.7-3Zm.38 2.35c-.02-.27-.2-.59-.3-.71.16.25.14.9.1 1.27-.04.32.24.8.39 1.05l.05.1c.09.15.28.57.37.76.03-.42-.19-.85-.35-1.18l-.13-.25c-.11-.27-.12-.57-.13-.85v-.2Zm.56.7c0 .11.02.36.13.52.14.18.43.68.48.95 0-.22-.06-.69-.24-.9-.19-.2-.33-.46-.37-.57Zm.86 1.52Zm.03.08c.17.34.96 1.2 2.06 1.42 1.2.23 2.34 1.64 2.9 2.37.52.7 2.09.65 2.3.65h.02c-1.72.68-2.83-.64-3.1-.97a1.84 1.84 0 0 0-.06-.06l-.1-.12a7.13 7.13 0 0 0-1.09-1.05c-.4-.3-.75-.41-.87-.44.07.34.6.9.87 1.15-.64-.16-.97-.72-1.17-1.05l-.06-.1c-.12-.2-.37-.34-.64-.5a6.66 6.66 0 0 1-.38-.23c-.3-.2-.56-.75-.68-1.07Zm-1.73-.65c-.01.24.01.8.2 1.13l.1.2c.28.49.75 1.31.73 1.75.06-.23.12-.77-.17-1.17-.3-.4-.66-1.39-.8-1.76l-.06-.15Zm1.69 2.1a2.3 2.3 0 0 0-.5-.93c.56.08.6.31.67.76.03.23.08.52.2.88.36.98.53.98 1.33.96h.18c.95-.02 1.47.28 1.92.9.25.33.3.37.39.48l.52.61c.56.68 1.39.8 1.73.76-1.39.6-2.16-.55-2.46-1a6.36 6.36 0 0 0-.05-.08l-.05-.06c-.24-.35-.44-.64-.96-1.01-.26-.19-.63-.09-1 .01-.39.1-.79.21-1.09-.01-.5-.36-.67-1.37-.78-1.97l-.05-.3Zm-1.13 2.04c.2 0 .71.11 1.1.54l.4.5c.47.62 1.09 1.43 1.7 1.61-.96.15-1.85-1.12-2.3-1.76a9.34 9.34 0 0 0-.16-.23c-.3-.38-.61-.6-.74-.66Zm4.42 1.93c-.39 0-.63.11-.7.17.76-.09 1.25.39 1.62.75.13.13.25.24.36.32l.14.09c.4.27.87.58 1.34.58.52 0 .92-.26 1.13-.41l.16-.14c.19-.18.44-.4.8-.4.38 0 .96.32 1.2.48-.17-.3-.63-.9-1.13-.9-.5 0-.82.2-.92.3-.17.2-.65.6-1.24.6-.72 0-1.02-.24-1.45-.57l-.03-.03-.35-.3c-.3-.28-.57-.54-.93-.54Zm-5.3-1.96a3.46 3.46 0 0 1 .94 1.33c.22.43.38.74.65 1.01.33.34.54.66.53 1.06a2.66 2.66 0 0 0-.64-.83 2.65 2.65 0 0 1-.93-1.35c-.06-.37-.4-.96-.56-1.22Zm.78-.4c.03-.14.03-.5-.2-.86-.3-.45-.71-1.08-.61-2.12.1-1.04.14-2.21.1-2.97-.04-.62-.05-1.32-.05-1.6A5.14 5.14 0 0 0 14 19.3v20.5c.59-.52 1.94-1.84 2.66-2.94.72-1.1 1.61-2.53 1.97-3.1l.4.17.05.1-.49.05.52.03.1.2-.62.06.65.03.11.23-.69.04.73.04.1.2-.93.08h.97l.13.25-.86.05.9.04.05.1-1.47.06 1.53.04.11.22-1.83.06 1.9.07.12.22h-2.07l2.14.12-2.4.08 2.49.08.09.16-2.5.08 2.58.06.1.16-2.7.1h2.75l.13.2-2.74.1 2.81.02.14.22-1.88.05 1.95.06.06.09-2.6.06 2.66.03.13.2-1.84.06 1.9.04.07.1-1.91.1 1.99.02.14.2-1.4.13 1.47-.02c1.74 2.45 4 4.65 6.31 4.52-.33.01-.93-.11-1.68-.53l.45-.05h-.54l-.24-.15.43-.05-.56-.03a7.64 7.64 0 0 1-.26-.19h.69l-.89-.14a9.57 9.57 0 0 1-.06-.05h.65l-.8-.12-.08-.06.76-.02-.88-.09a9.23 9.23 0 0 1-.07-.06l.73-.06-.87-.07-.05-.05.8-.1-1-.1c-.03 0-.04-.03-.06-.04l.58-.05-.69-.06-.13-.14.57-.02-.7-.12-.05-.05.4-.04-.47-.05-.06-.06.29-.08-.4-.04c-.21-.26-.43-.53-.65-.84l-.58-.8.15-.02-.2-.03c-.03-.06-.08-.12-.12-.17l.18-.03-.22-.03a79.5 79.5 0 0 1-.08-.12l.13-.03-.16-.01-.13-.19h.11l-.14-.03-.17-.25.3-.05-.35-.02-.11-.16.4-.03-.45-.04-.14-.2.45-.04-.49-.02-.11-.18.52-.03-.57-.04-.15-.23.61-.03-.66-.04-.09-.13.64-.03-.67-.03-.16-.25.74-.04-.8-.04-.08-.14.65-.04-.7-.05c-.05-.07-.1-.14-.13-.21l.77-.04-.82-.03-.13-.23.93-.04-.98-.05-.09-.14.67-.03-.71-.06-.15-.25 1-.03-1.04-.04-.08-.16 1.05-.06H19.9l-.15-.27 1.5-.03-1.52-.03-.1-.2 1.1-.06-1.15-.03-.08-.15 1.32-.03-1.35-.04-.06-.14.96-.03-1-.04-.1-.23 1.15-.04-1.18-.03-.1-.24 1.17-.03-1.2-.03-.07-.15.98-.03-1-.05-.1-.23 1.07-.03-1.1-.03-.04-.12.9-.05-.94-.04-.09-.23.9-.04-.93-.05-.07-.2.9-.05-.93-.03-.04-.11.74-.06-.77-.03-.08-.23.66-.05-.69-.04-.07-.2.49-.07-.51-.03-.05-.14.16-.03-.17-.02-.05-.15-.12-.49c0 .23-.07.65-.31.5-.3-.2-1.07-1.99-1.27-3.14a7.38 7.38 0 0 1-1.26-2.89c-.23-1.49-.16-2 .42-1.6-.1-.3-.31-.95-.32-1.19l.01-.44c.03-.35.05-.76-.01-.93l-.1-.2c-.15-.3-.37-.75-.28-1.2.11-.56.33-1.09.52-1.09.18 0 .27.75.18 1.1-.08.34-.18.92-.18 1.1 0 .16.15 1.1.38 1.33.18.18.54 1 .7 1.39Zm.5 3.36a3.13 3.13 0 0 0 .23 1.35c.18.46.48 1.18.42 1.83.06-.28.15-.97 0-1.42-.07-.22-.18-.46-.28-.7a5.35 5.35 0 0 1-.37-1.06Zm5.6 3.74c-.9-.2-1.8-.68-2.12-.9.33 1.04 4.5 1.95 5.78 2.23l.37.08c.15.06.37.1.46.12l-.26.11.7.1-.6.1.8.09-.58.11.81.12-.67.09.88.08-.59.11.78.08-1.02.12.86.12-.78.09.82.1-.9.11.83.1-.88.11.83.1-.87.1.87.12-.94.08.94.08-1 .12.77.2-.77.12.91.07-.07-.11.28-.04c.05 0-.22-.1-.35-.15l.35-.05v-.28l.24-.04-.24-.21h.24l-.16-.16.28-.06-.24-.14.27-.04-.27-.2h.27l-.27-.14.27-.06c-.16-1.22-1.8-1.8-2.6-1.94-.77-.13-2.52-.43-3.43-.64Zm4.56 4.4.5-.06.36.05-.42.08-.44-.08Zm.4.2.31.08-.01.1-.8-.03v-.1l.49-.04Zm-.43.37h.45l.2-.1c-.08.14-.3.35-.65.1Zm-5.4-3.92c2.26-.1 3.52.35 3.86.58a11.2 11.2 0 0 0-3.36-.32 3.1 3.1 0 0 0 3.2 1.15c-1.76.87-3.2-.58-3.7-1.41Zm4.27 6.41c0-.51.37-.87.55-1l-.06.15.43.07-.47.04-.06.24.43.05-.44.07v.2l.34.07-.33.05v.05l.33.13-.28.05.05.14.1.07-.05.03a1.05 1.05 0 0 0 .27.32l.02.02.03.03c.32.25 1.14.89 1.37 1.25.2.31.73.66.96.8-.28-.01-1.21-.21-1.52-.36-.26-.13-.38-.14-.77-.18l-.23-.03c-.46-.05-.82-.54-.95-.78.14.14.5.45.83.55.22.07.4.05.58.04.15-.01.29-.02.43.02.24.08.38.1.42.1-.16-.2-.56-.63-.85-.81-.37-.23-1.13-.74-1.13-1.38Zm1.04 3.22c.61.2 2 .47 2.67 0-.8.95-2.11.4-2.67 0Z" fill="#133058"/></svg>