<?xml version='1.0' encoding='utf-8'?>
<!-- by TradeStack -->
<svg width="56" height="56" viewBox="0 0 56 56" xmlns="http://www.w3.org/2000/svg"><path fill="url(#awq2ctkws)" d="M0 0h56v56H0z" /><path d="M17.15 29.58c.03-.24 0-.43-.06-.6-.07-.16-.17-.3-.3-.4-.12-.12-.27-.21-.43-.29l-.48-.21c-.26-.11-.52-.24-.77-.39a3.42 3.42 0 0 1-.69-.53 2.2 2.2 0 0 1-.47-.72c-.11-.28-.16-.6-.14-.98.03-.42.13-.79.3-1.1.18-.3.4-.57.68-.77a3.03 3.03 0 0 1 1.87-.59 2.24 2.24 0 0 1 2.06 1.26c.2.4.3.87.28 1.42h-1.26a1.8 1.8 0 0 0-.1-.78c-.08-.22-.2-.4-.39-.52-.17-.12-.4-.18-.66-.19-.24 0-.46.04-.68.13-.22.09-.4.22-.56.41-.15.2-.25.43-.29.73-.02.2 0 .39.08.54.07.15.18.28.32.39.14.1.28.19.44.26l.44.2c.28.1.55.24.8.4.26.15.49.33.69.54.2.22.35.47.45.76.11.3.15.63.13 1.02-.03.43-.14.8-.31 1.11-.18.31-.4.56-.67.76a3.3 3.3 0 0 1-2.88.37 2.42 2.42 0 0 1-1.38-1.42 3.05 3.05 0 0 1-.17-1.16h1.26c-.02.26 0 .49.06.69a1.16 1.16 0 0 0 .7.8c.18.06.37.1.59.1.23 0 .46-.04.68-.12.22-.08.4-.22.56-.4.16-.18.26-.42.3-.72ZM22.95 30.51l.52-3.23c.08-.63-.25-1.14-.93-1.15-.6-.02-1.2.25-1.34.87h-1.5c.1-1.44 1.73-2.02 3-2 1.32.02 2.42.9 2.29 2.31l-.51 3a7.9 7.9 0 0 0-.08.73c-.02.25.02.48.1.71l-.01.25h-1.5c-.06-.21-.1-.57-.1-.8 0-.24.02-.46.06-.69Zm.7-2.74-.16.93-1-.01c-.2 0-.42.02-.63.06-.22.03-.42.1-.6.19-.2.09-.35.21-.48.37a1.1 1.1 0 0 0-.17 1.07c.06.13.17.23.3.31a1 1 0 0 0 .5.13c.24 0 .5-.05.74-.15.24-.1.46-.24.64-.42.18-.19.3-.4.38-.64l.4.67A2.67 2.67 0 0 1 21.05 32c-.39 0-.74-.1-1.05-.26-.32-.16-.57-.4-.75-.69a1.7 1.7 0 0 1-.25-1.02 2.02 2.02 0 0 1 1.14-1.78c.33-.18.7-.3 1.08-.38.4-.07.78-.1 1.16-.1h1.27ZM27.3 26.68 26.43 32H25l1.14-7h1.33l-.17 1.68Zm-.5 1.63h-.43c.04-.4.14-.8.28-1.2.15-.4.34-.77.58-1.09.23-.32.52-.57.86-.76a2.3 2.3 0 0 1 1.19-.26c.35.01.64.08.88.22s.42.33.55.57c.13.24.22.5.26.81a4 4 0 0 1 0 .96l-.7 4.44h-1.43l.71-4.46a2.2 2.2 0 0 0-.02-.66.8.8 0 0 0-.27-.47.9.9 0 0 0-.59-.18c-.28-.01-.53.04-.74.16-.22.12-.4.28-.55.5-.16.2-.28.42-.38.67-.1.25-.16.5-.2.75ZM33.27 30.38 35.46 25h.9l-.52 1.7-2.18 5.3h-.8l.41-1.62Zm0-5.38.25 5.56L33.4 32h-.84L32 25h1.28Zm3.54 5.33L38.65 25H40l-2.69 7h-.89l.4-1.67ZM36.46 25l.55 5.47-.07 1.53h-.74l-.6-5.45.02-1.55h.84ZM42.13 26l-1.06 6h-1.34l1.07-6h1.33ZM41 23.79c0-.23.06-.42.21-.56a.76.76 0 0 1 .55-.23c.2 0 .38.06.53.2.15.14.23.32.23.54 0 .23-.07.42-.23.56a.77.77 0 0 1-.53.22.71.71 0 0 1-.76-.73ZM45.09 26.53 44.28 32H43l1.02-7h1.21l-.14 1.53ZM47 25.09l-.14 1.42a4.7 4.7 0 0 0-.5-.06c-.23 0-.43.03-.6.1-.18.08-.34.2-.47.34-.13.14-.25.3-.34.5-.09.2-.16.42-.2.66l-.31.02c.03-.33.1-.68.18-1.04.1-.36.22-.69.38-1 .16-.3.36-.56.6-.75.25-.2.55-.29.9-.28.08 0 .17 0 .25.03.08.01.17.03.25.06ZM49.34 32c-1.72-.04-2.43-1.75-2.33-3.25l.02-.26c.14-1.57 1.1-3.54 2.91-3.49 1.72.04 2.17 1.9 2.04 3.3l-.08.7h-4.33l.15-1h3.06l.02-.25c.08-.66-.13-1.53-.93-1.56-.84-.02-1.26.8-1.45 1.51-.06.27-.11.54-.14.8l-.02.24c-.07.84.16 2.03 1.2 2.07.6.02 1.1-.34 1.5-.83l.61.77A2.52 2.52 0 0 1 49.34 32Z" fill="#89AEFA" /><path d="M7.33 25.25c-.4 0-.75.37-1.1.6-.13.1-.28.15-.45.15-.5 0-.9-.45-.9-1s.4-1 .9-1c.17 0 .32.05.46.14.34.24.68.61 1.09.61h.45c.4 0 .75-.37 1.1-.6.13-.1.29-.15.45-.15.5 0 .9.45.9 1s-.4 1-.9 1a.81.81 0 0 1-.46-.14c-.34-.24-.68-.61-1.09-.61h-.45ZM9.1 27.75c-.4 0-.74.37-1.08.6-.14.1-.3.15-.46.15-.5 0-.9-.45-.9-1s.4-1 .9-1c.16 0 .32.05.46.14.34.24.68.61 1.09.61h.45c.4 0 .74-.37 1.1-.6.13-.1.28-.15.45-.15.5 0 .89.45.89 1s-.4 1-.89 1a.81.81 0 0 1-.46-.14c-.35-.24-.68-.61-1.09-.61h-.45ZM6.44 30.25c-.4 0-.74.37-1.1.6-.13.1-.28.15-.45.15-.5 0-.89-.45-.89-1s.4-1 .89-1c.17 0 .32.05.46.14.35.24.68.61 1.09.61h.45c.41 0 .75-.37 1.1-.6.13-.1.29-.15.45-.15.5 0 .9.45.9 1s-.4 1-.9 1a.81.81 0 0 1-.45-.14c-.35-.24-.69-.61-1.1-.61h-.45Z" fill="#fff" /><defs><linearGradient id="awq2ctkws" x1="10.42" y1="9.71" x2="68.15" y2="76.02" gradientUnits="userSpaceOnUse"><stop stop-color="#1A1E21" /><stop offset="1" stop-color="#06060A" /></linearGradient></defs></svg>