<?xml version='1.0' encoding='utf-8'?>
<!-- by TradeStack -->
<svg width="56" height="56" viewBox="0 0 56 56" fill="none" xmlns="http://www.w3.org/2000/svg">
<rect width="56" height="56" fill="#F0F3FA" />
<path d="M8.33396 32L6 36H22.796C25.462 36 27.6233 33.8798 27.6233 31.2645C27.6233 28.6492 25.462 27 22.796 27H13.1645C12.4357 27 12 26.4006 12 25.2345C12 24.5195 12.4357 24 13.1645 24H41.4172C43.147 24 44.5493 25.3155 44.5493 27.0124V28.0719C44.5493 29.7688 43.147 31 41.4172 31H35V26H30V36H41.8449C46.3488 36 50 32.4183 50 28C50 23.5817 47.1521 20 42.6481 20H11.2407C8.62739 20 6.50888 22.0782 6.50888 24.6418C6.50888 27.2054 8.62739 29.5 11.2407 29.5H21.3332C22.0422 29.5 22.617 29.8475 22.617 30.5431C22.617 31.2386 22.0422 32 21.3332 32H8.33396Z" fill="url(#paint0_linear_229_9756)" />
<path d="M6 36L8.33396 32H21.3332C22.0422 32 22.5946 31.517 22.5946 30.8214C22.5946 30.1259 22.0422 30 21.3332 30H11.2407C8.62739 30 6.50888 27.2054 6.50888 24.6418C6.50888 24.193 6.57381 23.7591 6.69495 23.3486C7.80432 24.4674 9.63214 26.147 12.345 26.7182C12.5701 26.8934 12.8548 26.969 13.1645 26.969H22.796C25.462 26.969 27.6233 28.6492 27.6233 31.2645C27.6233 33.8798 25.462 36 22.796 36H6Z" fill="url(#paint1_linear_229_9756)" />
<rect x="30" y="26" width="5" height="10" fill="url(#paint2_linear_229_9756)" />
<path d="M6 36L8.33396 32H21.3332C21.5841 32 21.9809 31.7319 22.1786 31.6099C24.687 31.4389 26.3574 30.318 27.2742 29.493C27.4993 30.0403 27.6233 30.6382 27.6233 31.2645C27.6233 33.8798 25.462 36 22.796 36H6Z" fill="url(#paint3_linear_229_9756)" />
<defs>
<linearGradient id="paint0_linear_229_9756" x1="8.08744" y1="25.5363" x2="48.4036" y2="25.6873" gradientUnits="userSpaceOnUse">
<stop stop-color="#005EA6" />
<stop offset="0.487072" stop-color="#22AAE4" />
<stop offset="1" stop-color="#024387" />
</linearGradient>
<linearGradient id="paint1_linear_229_9756" x1="7.21463" y1="26.5198" x2="27.4539" y2="37.2775" gradientUnits="userSpaceOnUse">
<stop stop-color="#0EA3DF" />
<stop offset="0.739586" stop-color="#0758AA" />
</linearGradient>
<linearGradient id="paint2_linear_229_9756" x1="32.5" y1="26" x2="32.5" y2="36" gradientUnits="userSpaceOnUse">
<stop stop-color="#113F7B" />
<stop offset="1" stop-color="#00B9DE" />
</linearGradient>
<linearGradient id="paint3_linear_229_9756" x1="6.8872" y1="36" x2="23.1687" y2="29.2754" gradientUnits="userSpaceOnUse">
<stop offset="0.326222" stop-color="#00487D" />
<stop offset="1" stop-color="#12B0F7" />
</linearGradient>
</defs>
</svg>