<?xml version='1.0' encoding='utf-8'?>
<!-- by TradeStack -->
<svg width="56" height="56" viewBox="0 0 56 56" xmlns="http://www.w3.org/2000/svg"><path fill="#F0F3FA" d="M0 0h56v56H0z" /><path d="M10.58 26.83a4.3 4.3 0 0 1-2.03-.6c-.9-.47-2.17-.95-3.25-.6-.62.2-.89.58-.9.6-.07.11-.21.13-.3.05a.27.27 0 0 1-.06-.34c.05-.09 1.29-1.96 4.68-.17h.01c2.66 1.5 3.82-.47 3.86-.56.07-.11.2-.15.3-.07.11.07.14.22.08.34a2.9 2.9 0 0 1-1.09 1.02 2.7 2.7 0 0 1-1.3.33Zm.1 2.1c-.8 0-1.56-.31-2.13-.63-3.05-1.61-4.1.08-4.15.16-.06.11-.2.14-.3.07a.27.27 0 0 1-.06-.35c.01-.02.33-.57 1.09-.87.98-.4 2.18-.22 3.59.53h.01c2.66 1.5 3.82-.31 3.87-.4.07-.1.2-.13.3-.05.1.07.13.23.06.34a2.7 2.7 0 0 1-2.28 1.2Zm-2.14 1.43c.58.32 1.36.64 2.17.64a2.77 2.77 0 0 0 2.25-1.15.27.27 0 0 0-.05-.35c-.1-.08-.24-.06-.31.06-.05.07-1.2 1.83-3.86.35h-.01c-.97-.52-2.39-1.01-3.6-.43-.75.36-1.06.96-1.07.98-.06.12-.03.27.08.34.1.07.24.03.3-.09.01-.02 1.05-1.96 4.1-.35Z" fill="url(#a)" /><path d="M28.45 22.35c0-.1-.03-.18-.1-.25a.4.4 0 0 0-.28-.1c-.66 0-1.18.21-1.54.64-.36.42-.53.99-.53 1.7V25h-.65c-.1 0-.2.04-.25.1a.33.33 0 0 0-.1.24c0 .1.03.17.1.24.06.06.14.1.25.1H26v6.02c0 .48-.13.87-.35 1.16-.22.3-.55.44-.99.44a.4.4 0 0 0-.28.1.32.32 0 0 0-.1.25c0 .1.03.18.1.25.08.07.17.1.28.1.66 0 1.18-.21 1.54-.64.36-.42.55-1 .55-1.7v-5.99h1.19c.1 0 .19-.03.25-.1.06-.06.1-.13.1-.23s-.04-.18-.1-.24a.34.34 0 0 0-.25-.1h-1.2v-.7c0-.48.12-.87.34-1.16.22-.3.55-.44.99-.44a.4.4 0 0 0 .27-.1.32.32 0 0 0 .11-.25ZM16.63 25c-.55 0-1.01.14-1.38.43-.37.29-.55.7-.55 1.22 0 .4.16.74.47 1.03.32.28.8.48 1.43.6.49.08.85.21 1.08.38.22.18.34.4.34.65 0 .28-.13.5-.35.68-.23.17-.57.26-1.02.26-.32 0-.6-.06-.86-.17a1.5 1.5 0 0 1-.61-.46.35.35 0 0 0-.29-.15.38.38 0 0 0-.24.1c-.1.1-.15.2-.15.32 0 .08.03.16.1.25.22.27.52.48.89.63a3.04 3.04 0 0 0 2.23.01c.32-.14.57-.34.75-.6.18-.26.27-.55.27-.88 0-.43-.15-.8-.45-1.09-.3-.29-.8-.5-1.49-.63-.51-.09-.87-.21-1.07-.37a.74.74 0 0 1-.3-.62c0-.24.1-.44.32-.6.22-.17.5-.25.86-.25.55 0 .98.2 1.3.6.1.11.2.17.34.17.08 0 .14-.02.18-.06.1-.07.16-.17.16-.29a.53.53 0 0 0-.08-.24c-.2-.3-.45-.52-.77-.68a2.45 2.45 0 0 0-1.11-.24Z" fill="#050706" /><path d="M22 25.75c.42 0 .8.1 1.12.3.33.19.6.46.78.8.19.34.28.72.28 1.16 0 .43-.1.8-.28 1.14-.19.34-.45.61-.78.8-.33.2-.7.3-1.12.3a2.16 2.16 0 0 1-1.9-1.1 2.3 2.3 0 0 1-.29-1.14c0-.43.1-.82.29-1.16.19-.34.45-.61.78-.8.34-.2.71-.3 1.12-.3Z" fill="#437CBF" /><path d="M23.9 29.15c-.19.34-.45.61-.78.8-.33.2-.7.3-1.12.3a2.16 2.16 0 0 1-1.9-1.1A2.3 2.3 0 0 1 19.8 28c0-.42.1-.81.29-1.15.19-.34.45-.61.78-.8.34-.2.71-.3 1.12-.3.41 0 .8.1 1.12.3.33.19.6.46.78.8.19.34.28.72.28 1.15 0 .44-.1.81-.28 1.15Zm.7-2.69a2.84 2.84 0 0 0-1.07-1.07A3.04 3.04 0 0 0 22 25c-.57 0-1.08.13-1.54.39-.45.26-.81.62-1.07 1.07-.26.46-.39.98-.39 1.55 0 .56.13 1.07.39 1.53.26.46.62.81 1.07 1.07.46.26.97.39 1.54.39.57 0 1.08-.13 1.54-.39a2.8 2.8 0 0 0 1.07-1.07c.26-.46.39-.97.39-1.53 0-.57-.13-1.09-.4-1.55ZM35.66 25c-.18 0-.3.1-.36.32l-1.27 4.25-1.14-4.24a.49.49 0 0 0-.13-.24.34.34 0 0 0-.24-.09c-.1 0-.18.03-.25.09a.49.49 0 0 0-.13.24l-1.17 4.27-1.27-4.28c-.07-.21-.2-.32-.38-.32-.21 0-.32.12-.32.36l.03.23 1.55 5.14c.03.08.08.14.14.2.07.04.14.07.23.07a.37.37 0 0 0 .35-.27l1.2-4.37 1.19 4.37c.02.08.06.14.13.2a.38.38 0 0 0 .46 0c.06-.06.1-.12.13-.2l1.55-5.14a.62.62 0 0 0 .04-.23c0-.1-.03-.2-.09-.26a.32.32 0 0 0-.25-.1ZM39 25c-.56 0-1.07.13-1.53.4-.45.26-.81.62-1.08 1.08-.26.46-.39.97-.39 1.53s.13 1.06.38 1.52A2.84 2.84 0 0 0 38.91 31a2.8 2.8 0 0 0 2.25-1.1v.64c0 .12.04.22.12.3.08.07.18.1.3.1a.4.4 0 0 0 .42-.4V28c0-.56-.13-1.07-.4-1.53a2.87 2.87 0 0 0-1.07-1.09c-.46-.26-.97-.39-1.53-.39Zm0 5.25c-.41 0-.78-.1-1.12-.3-.33-.19-.6-.46-.78-.8A2.31 2.31 0 0 1 36.8 28c0-.42.1-.8.29-1.14a2.12 2.12 0 0 1 1.9-1.1 2.13 2.13 0 0 1 1.9 1.1c.18.34.28.72.28 1.14 0 .43-.1.81-.29 1.15a2.1 2.1 0 0 1-1.89 1.1ZM46.8 25.04a.28.28 0 0 0-.16-.04.33.33 0 0 0-.32.23l-1.82 4.56-1.84-4.56a.32.32 0 0 0-.12-.16.32.32 0 0 0-.18-.06c-.05 0-.1.02-.15.04a.38.38 0 0 0-.21.36l.03.15 2.13 5.16c.08.19.2.28.34.28.16 0 .29-.1.37-.28l2.1-5.17a.5.5 0 0 0 .03-.16.37.37 0 0 0-.2-.35ZM49.55 25c-.49 0-.93.13-1.32.38-.38.26-.69.61-.9 1.07-.22.46-.33.97-.33 1.56 0 .58.12 1.09.35 1.54a2.58 2.58 0 0 0 3.3 1.25c.34-.13.6-.3.82-.5.07-.07.11-.15.11-.25a.4.4 0 0 0-.13-.29.34.34 0 0 0-.21-.08.4.4 0 0 0-.26.1 1.99 1.99 0 0 1-1.28.47c-.55 0-1-.18-1.36-.54a2.24 2.24 0 0 1-.63-1.44h3.94c.1 0 .19-.03.25-.1.07-.07.1-.16.1-.27 0-.56-.1-1.06-.3-1.5-.21-.44-.5-.78-.87-1.03s-.8-.37-1.28-.37Zm0 .74c.5 0 .89.17 1.2.5.31.35.5.8.55 1.34h-3.57c.07-.55.27-1 .6-1.33.32-.34.73-.5 1.22-.5Z" fill="#050706" /><defs><linearGradient id="a" x1="4" y1="28" x2="12.26" y2="28" gradientUnits="userSpaceOnUse"><stop stop-color="#41434F" /><stop offset="1" stop-color="#8196A9" /></linearGradient></defs></svg>