<!-- by TradeStack --><svg width="56" height="56" viewBox="0 0 56 56" xmlns="http://www.w3.org/2000/svg"><path fill="#F0F3FA" d="M0 0h56v56H0z"/><path d="M32.48 25.56c-.52.04-1 .35-.98 1 .02.36.35.43.6.44H34c1.11-.02 2 .6 2 1.85a3.04 3.04 0 0 1-1.6 2.55c-.31.17-.79.3-1.43.37a32.25 32.25 0 0 1-7.86-.02c-.89-.1-2.1-.43-2.1-1.84 0-1.41 1.03-3.96 1.49-5.9l2.35-.01c-.39 1.63-1.05 3.48-1.42 5.12-.16.69.23 1.14.89 1.2 1.98.18 4.49.18 6.36 0 .69-.08 1.18-.22 1.32-1.07.05-.32-.16-.5-.41-.5h-2.61c-.86 0-1.68-.45-1.72-1.58-.05-1.51.83-2.9 2.4-3.08 1.6-.18 3.41-.08 5.34.18-.12.34-.29.65-.49.93-.22.31-.5.45-.85.42-1.08-.1-2.25-.12-3.18-.06ZM48.46 27.55 52 31.88a5.9 5.9 0 0 1-2.03.06c-.55-.08-.84-.43-1.31-.98L46 27.91 49.95 24H52l-3.54 3.55Z" fill="#1D50A2"/><path fill-rule="evenodd" d="M45.17 29.88c.15-.42.28-.9.39-1.43l.18-.82c.28-1.06.57-2.46-.49-3.1a3.27 3.27 0 0 0-1.35-.43c-1.2-.13-2.34-.13-3.4-.01-.42.04-.82.14-1.22.3-1.06.4-1.46 1.6-1.74 2.75l-.44 1.93c-.09.4-.12.8-.09 1.21.08 1.02 1 1.47 1.77 1.58 1.09.14 2.22.18 3.39.1 1.39-.1 2.43-.45 3-2.08Zm-4.57-4.23c-.45.09-.75.39-.89.9-.24.89-.48 1.93-.71 3.12 0 .33.23.63.55.68a8.4 8.4 0 0 0 3.02-.06c.53-.17.69-.7.82-1.28A214.1 214.1 0 0 0 44 26.2c0-.36-.27-.48-.58-.53a9.66 9.66 0 0 0-2.82 0ZM18.17 30.64c.8 0 1.59-.6 1.83-1.51V32h2v-6c0-.89-.55-1.55-1.2-1.79-.42-.16-.9-.23-1.45-.2-1.14.04-2.01.74-2.59 1.96-.93 1.97-1.84 4.01-2.76 6.03h2.14l.65-1.37h1.38Zm1.83-4.3c0-.23 0-.55-.49-.55-.37 0-.54.2-.7.54L17.56 29H20v-2.67Z" fill="#1D50A2"/><path d="M4 24h10L4 32v-8Z" fill="#1D50A2"/><path d="M14 32H4l10-8v8Z" fill="#FFF100"/></svg>