<!-- by TradeStack --><svg width="56" height="56" viewBox="0 0 56 56" xmlns="http://www.w3.org/2000/svg"><path fill="#F0F3FA" d="M0 0h56v56H0z"/><path d="m11.18 23.32-.83.6A3.83 3.83 0 0 0 7.82 23C6.53 23 5 23.93 5 25.27c0 1.03 1.03 1.8 2.82 2.14 2.45.52 4.18 1.02 4.18 3.17S10.27 34 7.82 34A4.97 4.97 0 0 1 4 32.07l.95-.63c.22.52 1.1 1.56 2.87 1.56 2.22 0 3.18-1 3.18-2.25 0-.78-.44-1.66-3.03-2.15C5.37 28.1 4 27.2 4 25.27 4 23.34 5.54 22 7.97 22c1.94 0 2.95.88 3.2 1.32ZM51.18 23.32l-.83.6a3.83 3.83 0 0 0-2.53-.92c-1.29 0-2.82.93-2.82 2.27 0 1.03 1.03 1.8 2.82 2.14 2.45.52 4.18 1.02 4.18 3.17S50.27 34 47.82 34A4.97 4.97 0 0 1 44 32.07l.95-.63c.22.52 1.1 1.56 2.87 1.56 2.22 0 3.18-1 3.18-2.25 0-.78-.44-1.66-3.03-2.15-2.6-.49-3.97-1.4-3.97-3.33 0-1.93 1.54-3.27 3.97-3.27 1.94 0 2.95.88 3.2 1.32Z" fill="#006BD6"/><path fill-rule="evenodd" d="M18.5 34c3.04 0 5.5-2.69 5.5-6s-2.46-6-5.5-6-5.5 2.69-5.5 6 2.46 6 5.5 6Zm0-1c2.49 0 4.5-2.24 4.5-5s-2.01-5-4.5-5-4.5 2.24-4.5 5 2.01 5 4.5 5Z" fill="#006BD6"/><path d="M23 22h5.23c1.72 0 2.77 1.42 2.77 3.5S29.95 29 28.23 29L32 34h-1.47L26 28h2.11c1.05 0 1.9-1.23 1.9-2.5s-.85-2.5-1.9-2.5h-4.06L23 22ZM40 22h-9l1.08 1H35v11h1V23h4v-1ZM42 22v12h-1V22h1Z" fill="#006BD6"/></svg>