<?xml version='1.0' encoding='utf-8'?>
<!-- by TradeStack -->
<svg width="56" height="56" viewBox="0 0 56 56" fill="none" xmlns="http://www.w3.org/2000/svg">
<rect width="56" height="56" fill="#F0F3FA" />
<path fill-rule="evenodd" clip-rule="evenodd" d="M26.3735 15.5439L27.9605 20.0388C27.9638 20.0478 27.9697 20.0557 27.9775 20.0613C27.9854 20.0669 27.9947 20.07 28.0043 20.0702C28.014 20.0704 28.0234 20.0676 28.0314 20.0622C28.0394 20.0569 28.0456 20.0493 28.0492 20.0403L29.6439 15.5561C29.6472 15.5462 29.6472 15.5354 29.6439 15.5255L28.0538 11.0306C28.0504 11.0216 28.0443 11.0139 28.0364 11.0084C28.0285 11.0029 28.0191 11 28.0094 11C27.9998 11 27.9904 11.0029 27.9825 11.0084C27.9746 11.0139 27.9685 11.0216 27.9651 11.0306L26.3735 15.5133C26.3701 15.5232 26.3701 15.534 26.3735 15.5439ZM19.4781 13.2957L20.3405 17.951C20.3517 18.0101 20.3802 18.0596 20.4261 18.0993L24.0221 21.156C24.0273 21.1604 24.0337 21.1632 24.0405 21.1638C24.0473 21.1645 24.0542 21.1631 24.0602 21.1598C24.0661 21.1564 24.071 21.1514 24.074 21.1452C24.077 21.1391 24.0781 21.1322 24.0771 21.1254L23.2056 16.4609C23.1954 16.4079 23.1694 16.3641 23.1277 16.3295L19.5378 13.262C19.4858 13.2172 19.4659 13.2284 19.4781 13.2957ZM32.8698 16.3463L36.4735 13.262C36.5234 13.2192 36.5423 13.2299 36.5301 13.2941L35.6739 17.9587C35.6647 18.0096 35.6402 18.0514 35.6005 18.084L31.9923 21.156C31.9872 21.1602 31.9809 21.1627 31.9744 21.1632C31.9678 21.1637 31.9612 21.1622 31.9556 21.1589C31.9499 21.1555 31.9454 21.1505 31.9427 21.1446C31.9399 21.1386 31.9391 21.1319 31.9403 21.1254L32.8148 16.4425C32.8219 16.4038 32.8403 16.3717 32.8698 16.3463ZM13.2906 19.5466C14.2131 20.6613 15.1508 21.7577 16.1038 22.8357C16.156 22.8945 16.1918 22.944 16.2224 22.9862C16.3101 23.1073 16.3545 23.1687 16.6175 23.2208C18.0996 23.5082 19.5923 23.7838 21.0957 24.0477C21.1732 24.0619 21.1864 24.039 21.1355 23.9789L18.0975 20.4148C18.0649 20.3771 18.0241 20.3536 17.9752 20.3444L13.3319 19.4763C13.2544 19.4621 13.2407 19.4855 13.2906 19.5466ZM42.7634 19.5161L39.6857 23.1245C39.6531 23.1633 39.6123 23.1872 39.5634 23.1964L34.8941 24.066C34.8863 24.0677 34.878 24.0669 34.8707 24.0636C34.8633 24.0604 34.8571 24.0549 34.8531 24.048C34.849 24.041 34.8472 24.033 34.848 24.0249C34.8488 24.0169 34.8521 24.0094 34.8574 24.0033L37.9168 20.4193C37.9555 20.3735 38.0044 20.345 38.0636 20.3338L42.7374 19.4702C42.7432 19.4689 42.7492 19.4695 42.7547 19.4719C42.7601 19.4743 42.7646 19.4783 42.7675 19.4835C42.7704 19.4886 42.7716 19.4946 42.7709 19.5005C42.7701 19.5063 42.7675 19.5118 42.7634 19.5161ZM15.5611 29.6353L20.0484 28.0413C20.0571 28.0379 20.0645 28.0321 20.0698 28.0244C20.075 28.0168 20.0778 28.0077 20.0778 27.9985C20.0778 27.9892 20.075 27.9801 20.0698 27.9725C20.0645 27.9649 20.0571 27.959 20.0484 27.9557L15.5611 26.3646C15.5512 26.3612 15.5404 26.3612 15.5305 26.3646L11.0294 27.9572C11.0207 27.9605 11.0133 27.9664 11.0081 27.974C11.0028 27.9817 11 27.9907 11 28C11 28.0093 11.0028 28.0183 11.0081 28.0259C11.0133 28.0336 11.0207 28.0395 11.0294 28.0428L15.5305 29.6353C15.5404 29.6388 15.5512 29.6388 15.5611 29.6353ZM35.9766 27.9541L40.4655 26.3631C40.4763 26.3592 40.4882 26.3592 40.4991 26.3631L44.9681 27.9541C44.9775 27.9576 44.9855 27.9639 44.9912 27.9721C44.9969 27.9803 45 27.99 45 28C45 28.01 44.9969 28.0197 44.9912 28.0279C44.9855 28.0361 44.9775 28.0424 44.9681 28.0458L40.4945 29.6369C40.4837 29.6408 40.4717 29.6408 40.4609 29.6369L35.9766 28.0458C35.9672 28.0424 35.9592 28.0361 35.9534 28.0279C35.9477 28.0197 35.9447 28.01 35.9447 28C35.9447 27.99 35.9477 27.9803 35.9534 27.9721C35.9592 27.9639 35.9672 27.9576 35.9766 27.9541ZM13.3273 36.5236L18.0195 35.651C18.0302 35.6491 18.0399 35.6438 18.0471 35.6357L21.1309 32.0226C21.1374 32.0152 21.1415 32.006 21.1425 31.9961C21.1435 31.9863 21.1415 31.9764 21.1366 31.9678C21.1317 31.9592 21.1242 31.9524 21.1153 31.9482C21.1063 31.9441 21.0962 31.9428 21.0865 31.9447L16.402 32.8113C16.3913 32.8131 16.3816 32.8185 16.3744 32.8265L13.283 36.4457C13.2764 36.4531 13.2724 36.4624 13.2713 36.4722C13.2703 36.482 13.2724 36.4919 13.2773 36.5005C13.2822 36.5091 13.2896 36.516 13.2986 36.5201C13.3076 36.5243 13.3176 36.5255 13.3273 36.5236ZM40.0297 33.2866C40.941 34.3371 41.8471 35.3988 42.7481 36.4717C42.7869 36.5186 42.7762 36.5364 42.716 36.5252L38.0605 35.6632C38.0055 35.653 37.9601 35.627 37.9244 35.5852L34.8819 32.0181C34.834 31.962 34.8467 31.9401 34.9201 31.9523C36.4337 32.2081 37.9377 32.4873 39.4319 32.7899C39.6905 32.8425 39.7843 32.9677 39.9053 33.129C39.9424 33.1785 39.982 33.2314 40.0297 33.2866ZM19.5393 42.7364L23.1276 39.6705C23.1694 39.6349 23.1954 39.5906 23.2056 39.5376L24.0725 34.8715C24.0735 34.8654 24.0726 34.8592 24.07 34.8537C24.0674 34.8481 24.0632 34.8435 24.0579 34.8403C24.0527 34.8372 24.0466 34.8357 24.0404 34.8361C24.0343 34.8365 24.0284 34.8387 24.0236 34.8425L20.4062 37.919C20.3675 37.9527 20.343 37.9949 20.3328 38.0459L19.4766 42.6997C19.4634 42.77 19.4843 42.7823 19.5393 42.7364ZM35.6631 37.9832L36.5346 42.6768C36.5365 42.6865 36.5352 42.6966 36.5311 42.7055C36.5269 42.7145 36.5201 42.722 36.5115 42.7268C36.5029 42.7317 36.493 42.7338 36.4832 42.7328C36.4733 42.7318 36.4641 42.7277 36.4566 42.7211L32.8347 39.6308C32.8266 39.6236 32.8212 39.6139 32.8194 39.6033L31.954 34.9173C31.9525 34.9079 31.9539 34.8982 31.9581 34.8896C31.9622 34.881 31.9688 34.8738 31.9771 34.869C31.9853 34.8642 31.9948 34.862 32.0044 34.8628C32.0139 34.8635 32.023 34.867 32.0305 34.873L35.6479 37.9557C35.6559 37.9629 35.6613 37.9726 35.6631 37.9832ZM26.3705 40.4836L27.9666 44.9694C27.97 44.9784 27.9761 44.9861 27.984 44.9916C27.9919 44.9971 28.0013 45 28.011 45C28.0206 45 28.03 44.9971 28.0379 44.9916C28.0458 44.9861 28.0519 44.9784 28.0553 44.9694L29.6438 40.4745C29.6472 40.4646 29.6472 40.4538 29.6438 40.4439L28.0553 35.9551C28.0519 35.9461 28.0458 35.9383 28.0379 35.9329C28.03 35.9274 28.0206 35.9245 28.011 35.9245C28.0013 35.9245 27.9919 35.9274 27.984 35.9329C27.9761 35.9383 27.97 35.9461 27.9666 35.9551L26.3705 40.4531C26.3671 40.463 26.3671 40.4737 26.3705 40.4836Z" fill="#B79954" />
</svg>