<!-- by TradeStack --><svg viewBox="0 0 56 56" xmlns="http://www.w3.org/2000/svg"><path fill="#F0F3FA" d="M0 0h56v56H0z"/><path d="M14.45 12A2.45 2.45 0 0 0 12 14.45V28.1L17 33V18.07c0-.59.48-1.07 1.07-1.07H33l-4.9-5H14.44Z" fill="#073A76"/><path d="M41.55 44C42.9 44 44 42.9 44 41.55V27.9L39 23v14.93c0 .59-.48 1.07-1.07 1.07H23l4.9 5h13.65Z" fill="#452156"/><path d="M24 25.04c0-.58.46-1.04 1.04-1.04h5.92c.58 0 1.04.46 1.04 1.04v5.92c0 .58-.46 1.04-1.04 1.04h-5.92c-.58 0-1.04-.46-1.04-1.04v-5.92Z" fill="#073A76"/></svg>