<!-- by TradeStack --><svg width="56" height="56" viewBox="0 0 56 56" xmlns="http://www.w3.org/2000/svg"><path fill="#F0F3FA" d="M0 0h56v56H0z"/><path d="M15.05 19c-.04 0-.05.03-.05.07v7.68c0 .03-.02.05-.06.05h-.03a.05.05 0 0 1-.02-.04c-.92-3.57-1.97-7.13-2.88-10.67-.02-.07 0-.1.07-.09l31.9 2.93c.01 0 .02 0 .02.02v.03c0 .02 0 .02-.02.02H15.05Z" fill="#218C3E"/><path d="M24.3 30.51c0-.06-.03-.09-.1-.08l-.07.01c-.75.11-1.32.17-1.74.17h-3.9c-.26 0-1.07-.1-2.42-.28-.06 0-.08-.04-.06-.09l.4-1.13c.03-.06.08-.09.15-.08 2.57.5 4.93.58 7.08.28 1.15-.16 1.85-.5 2.1-1.04.11-.26.06-.54-.18-.83a2.09 2.09 0 0 0-.75-.58c-.45-.22-1-.41-1.62-.59l-3.22-.83c-.19-.05-.7-.22-1.54-.5a4.35 4.35 0 0 1-1.55-.87c-.5-.45-.71-.97-.64-1.55.08-.64.5-1.18 1.24-1.6a6.02 6.02 0 0 1 2.06-.7l.19-.04c.67-.11 1.17-.17 1.48-.17h3.36a21.26 21.26 0 0 1 2.28.19c.1 0 .12.05.1.14l-.33 1.14c-.01.04-.04.06-.08.05-1.7-.28-3.42-.4-5.14-.36-.68.01-1.34.1-1.97.28-.57.16-.9.45-1 .85-.1.43.14.79.7 1.08.3.16.69.3 1.18.44l3.98 1.04c.89.25 1.57.5 2.05.75.72.38 1.24.85 1.57 1.41.02.04.05.05.1.03 1.5-.6 3.22-.94 5.18-1.01 1.64-.06 3.23-.01 4.75.15.03 0 .05.03.04.06l-.35 1.22c-.01.03-.03.04-.06.04-2.54-.36-4.7-.39-6.5-.08-1 .17-1.87.48-2.59.93a3.26 3.26 0 0 0-1.62 2.07c-.2.95.15 1.82 1.05 2.62.72.63 1.62 1.1 2.68 1.38 1.92.51 3.96.64 6.12.39.04 0 .06-.03.05-.07a6.67 6.67 0 0 1-.21-1.8c0-.52-.06-1.4-.19-1.87-.01-.05 0-.08.06-.08h2.37c.16 0 .23.08.2.24a15.36 15.36 0 0 0-.04 3.32 6.57 6.57 0 0 1 .03.96c0 .05-.03.08-.07.09-2.14.38-4.46.48-6.94.3-1.3-.08-2.54-.3-3.7-.67a7.7 7.7 0 0 1-2.75-1.5 3.32 3.32 0 0 1-1.23-3.23Z" fill="#003"/><path d="M39.9 37c.04 0 .1 0 .1-.04V25.34c0-.05.02-.06.07-.04.03.01.04.04.05.08.25 1.35 1.52 6.19 3.1 14.52.01.08-.02.1-.1.1L24.9 37.12c-.03 0-.04-.01-.04-.04l.01-.04c0-.02.02-.04.04-.04h15Z" fill="#003"/></svg>