<?xml version='1.0' encoding='utf-8'?>
<!-- by TradeStack -->
<svg width="56" height="56" viewBox="0 0 56 56" xmlns="http://www.w3.org/2000/svg"><path fill="#F0F3FA" d="M0 0h56v56H0z" /><path d="m46.19 23.03-1.29 2.23a5.89 5.89 0 0 0-3.32-2.69c-3.16-1.03-6.66.73-7.59 3.77-.62 2.07-.14 3.95 1.44 5.64l-2.3.9a7.22 7.22 0 0 1-1.63-3.9 7.87 7.87 0 0 0-.17-.91.1.1 0 0 0-.13 0 4.58 4.58 0 0 1-3.07 1.83.12.12 0 0 0-.01.18l2.84 3.26-2.62.46-4.1-4.72a.46.46 0 0 1-.12-.3v-.7c0-.06.03-.11.07-.15.03-.04.09-.06.14-.06 1.2 0 2.89.16 3.73-.18 1.74-.7 2.37-2.77 1.18-4.2-.66-.8-1.5-1.03-2.58-1.02h-3.22a.2.2 0 0 0-.13.05.18.18 0 0 0-.06.13v11.47H21l.01-6.6c0-.01 0-.03-.02-.04a.08.08 0 0 0-.1-.02.08.08 0 0 0-.03.04c-.84 2.01-2.48 3.04-4.84 3.1h-3.47a.17.17 0 0 0-.12.04.16.16 0 0 0-.05.11l-.01 1.54-2.37-.74V20h5c1.7.02 2.88.25 3.52.58a5.22 5.22 0 0 1 2.37 2.8.07.07 0 0 0 .08-.01.06.06 0 0 0 .02-.04v-3.14c0-.04.01-.07.04-.1.02-.03.06-.09.1-.09h5.73c2.95.06 4.7 1.65 5.27 4.36 0 .02.02.04.03.05a.1.1 0 0 0 .15-.03c2.81-5.3 9.89-5.85 13.88-1.35Zm-33.8-.62-.04 5.84c0 .03.02.06.04.08.02.03.05.04.08.04l3.45.01a3.09 3.09 0 0 0 2.11-.82 2.84 2.84 0 0 0 .88-2.01v-.23c0-.75-.3-1.62-.86-2.16a3.04 3.04 0 0 0-2.1-.84l-3.45-.02a.12.12 0 0 0-.08.03.11.11 0 0 0-.04.08Z" fill="#1D9DEA" /><path d="m46.19 23.03.22.28c-.26 1.09-.62 2.01-1.09 2.78l-.42-.83 1.29-2.23Z" fill="#44ADEC" /><path d="M46.4 23.31a7.84 7.84 0 0 1 1.52 5.74c-.92 6.13-8.34 9.16-13.54 5.1l2.52-1.1c1.8.9 3.56.94 5.25.14 2.94-1.4 4-3.76 3.17-7.1.47-.77.83-1.7 1.09-2.78Z" fill="#71C0EF" /><path d="M42.55 28c0 .72-.3 1.43-.84 1.94a2.92 2.92 0 0 1-4.06 0 2.7 2.7 0 0 1 0-3.9 2.92 2.92 0 0 1 4.06 0c.53.52.84 1.22.84 1.95Zm-.34 0a2.4 2.4 0 0 0-.75-1.74 2.6 2.6 0 0 0-3.6 0 2.4 2.4 0 0 0 0 3.46 2.6 2.6 0 0 0 3.6 0 2.4 2.4 0 0 0 .75-1.73Z" fill="#1C93DB" fill-opacity=".56" /><path d="m12.37 32.3-.01 1.51L10 33v-1.44l2.37.74ZM35.44 31.98l1.46 1.07-2.52 1.1-1.24-1.27 2.3-.9Z" fill="#44ADEC" /><path d="M12.36 33.81v2.06c0 .04-.02.08-.05.1-.04.04-.08.03-.12.03H10v-3.01l2.36.82Z" fill="#71C0EF" /><path d="m30.96 33.34 1.13 1.3-2.39.7-1.36-1.54 2.62-.46ZM23.25 34l.05 1.54c0 .07 0 .13-.03.2a.45.45 0 0 1-.1.15.36.36 0 0 1-.14.1.32.32 0 0 1-.17 0c-.47-.09-.95-.09-1.42 0a.32.32 0 0 1-.17-.01.36.36 0 0 1-.14-.1.45.45 0 0 1-.1-.15.52.52 0 0 1-.03-.2V34h2.25Z" fill="#44ADEC" /><path d="m29.7 35.33 2.39-.69.99 1.22.02.04a.08.08 0 0 1-.04.07c-.02.01-.03.03-.05.03h-2.74c-.14 0-.4-.4-.56-.67Z" fill="#71C0EF" /></svg>