<!-- by TradeStack --><svg viewBox="0 0 56 56" xmlns="http://www.w3.org/2000/svg"><path fill="#F0F3FA" d="M0 0h56v56H0z"/><path d="M29.65 30.86a1.89 1.89 0 0 0-.4-.01l-.4.02a8.43 8.43 0 0 1-3.91-1.05 9.99 9.99 0 0 1-4.34-4.72c-.18-.42-.37-1.1-.59-2.03a7.93 7.93 0 0 1-.08-2.71c.06-.55.25-1.3.56-2.27.08-.28.2-.53.34-.77l.2-.38c.14-.27.26-.48.35-.61a10.6 10.6 0 0 1 3.32-3.13 12.06 12.06 0 0 1 2.07-.87c1.61-.4 3.2-.44 4.77-.12.54.1.96.23 1.25.37l1 .44c.24.1.24.16-.02.2-.24.05-.6.15-1.06.3l-.51.15a7.4 7.4 0 0 0-1.2.43 11.68 11.68 0 0 0-3.2 2.1c-.83.8-1.59 1.85-2.25 3.14a7.63 7.63 0 0 0-.72 3.88A4.88 4.88 0 0 0 25.84 26c.27.4.49.71.66.93.63.8 1.04 1.3 1.23 1.5.8.9 1.43 1.7 1.92 2.44Z" fill="#7482BF"/><path d="m34.54 29.46-1.14.57a4.7 4.7 0 0 0-.63-1.16l-.4-.53c-.27-.34-.45-.58-.57-.71a63.93 63.93 0 0 1-1.84-2.17 19.73 19.73 0 0 1-1.71-2.48 6.8 6.8 0 0 1-.6-1.37 8.2 8.2 0 0 1-.21-2.07c.02-.8.16-1.48.42-2a5.1 5.1 0 0 1 2.51-2.4c.36-.17.62-.29.8-.36.27-.1.54-.17.8-.21 1.25-.18 2.5-.19 3.73 0 .15.02.26.04.33.07.08.04.16.12.24.22.06.08.17.2.32.34a10.41 10.41 0 0 1 1.78 2.84c.09.2.2.63.35 1.26.3 1.25.36 2.4.18 3.45-.1.54-.25 1.16-.48 1.9a8.42 8.42 0 0 1-.77 1.61c-.09.16-.22.36-.41.62l-.25.34c-.09.13-.25.32-.48.56-.15.15-.25.25-.3.32-.1.11-.25.25-.46.43l-.31.27c-.1.1-.26.21-.48.36-.19.12-.33.22-.42.3Z" fill="#7482BF"/><path d="M29.65 30.86c.22.41.4.8.55 1.15.18.43.27.86.26 1.27A5.4 5.4 0 0 1 29 37.07c-.93.99-1.96 1.74-3.09 2.27a11.82 11.82 0 0 1-6.6.99.86.86 0 0 1-.48-.2 2.6 2.6 0 0 1-.35-.44c-.14-.2-.32-.53-.54-.98l-.22-.44a9.87 9.87 0 0 1-.18-6.95c.1-.25.22-.52.37-.8l.2-.37c.15-.3.27-.52.37-.67.6-.91 1.34-1.71 2.2-2.4.09-.07.2-.15.36-.23l.38-.23a9.99 9.99 0 0 0 4.49 3.64 8.43 8.43 0 0 0 3.74.6Z" fill="#7ECDC2"/><path d="M34.54 29.46c.5.74.9 1.59 1.18 2.54a9 9 0 0 1 .08 4.87l-.13.42c-.1.4-.2.68-.27.84-.36.85-.83 1.64-1.41 2.37-.08.1-.2.23-.4.42l-.35.38a8.18 8.18 0 0 1-3.1 2.03c-.5.22-.89.36-1.15.41-1.46.31-2.94.34-4.43.1a5.97 5.97 0 0 1-1.27-.37c-.72-.29-1.13-.46-1.23-.52-.47-.27-.94-.57-1.4-.9-.15-.1-.28-.23-.37-.37a.1.1 0 0 1-.01-.1.1.1 0 0 1 .09-.06c.65 0 1.31-.1 1.98-.3l.84-.24a32.96 32.96 0 0 0 4.18-1.53c1.53-.77 3-1.85 4.39-3.26.2-.21.51-.63.91-1.24.55-.85.88-1.73 1-2.66.1-.74 0-1.49-.27-2.26l1.14-.57Z" fill="#7ECDC2"/></svg>