<!-- by TradeStack --><svg width="56" height="56" viewBox="0 0 56 56" xmlns="http://www.w3.org/2000/svg"><path fill="#EFF0EB" d="M0 0h56v56H0z"/><path d="M8.54 21a3.81 3.81 0 0 1 4.06 4h-2.2c-.17-1.44-1.22-1.96-1.86-2-.64-.04-2.1.18-2.11 1.59-.02 1.12 1.6 1.65 2.4 1.77 3.62.7 4.28 2.84 4.16 3.82-.17 2.92-2.84 3.76-4.16 3.82-3.7 0-4.76-2.55-4.83-3.82l2.14-.82c.03 2.12 1.8 2.65 2.7 2.64.28 0 1.91-.36 1.9-1.82-.02-1.17-1.78-1.73-2.66-1.87-3.87-.72-3.83-3.16-3.83-3.41s.04-3.96 4.3-3.9Z" fill="#000F64"/><path d="M10.74 30.18c-.02-1.17-1.78-1.73-2.66-1.87-.1-.6 0-1.58.75-1.95 3.62.7 4.28 2.84 4.16 3.82-.17 2.92-2.84 3.76-4.16 3.82-3.7 0-4.76-2.55-4.83-3.82l2.14-.82c.03 2.12 1.8 2.64 2.7 2.63.28 0 1.91-.35 1.9-1.81Z" fill="#0373FD"/><path fill-rule="evenodd" d="M18.5 34a4.5 4.5 0 1 0 0-9 4.5 4.5 0 0 0 0 9Zm0-2c1.4 0 2.5-1.1 2.5-2.5a2.5 2.5 0 0 0-2.5-2.53 2.53 2.53 0 0 0-2.53 2.53A2.5 2.5 0 0 0 18.5 32Z" fill="#000F64"/><path d="M20.89 25.69a4.5 4.5 0 0 0-4.86 7.58l.86-1.83A2.54 2.54 0 0 1 16 29.5c0-1.4 1.1-2.5 2.5-2.5.66 0 1.25.24 1.7.65l.69-1.96Z" fill="#0373FD"/><path fill="#000F64" d="M24 25h2v9h-2z"/><path d="M28.65 25a3.3 3.3 0 0 0-2.79 1.79v2.73c0-.55.55-2.57 2.3-2.52 1.4.04 1.82 1.42 1.84 2.07V34h2v-5.18c-.04-2.2-1.4-3.86-3.35-3.82Z" fill="#0373FD"/><path d="m27.11 27.27.86-2.19a3.38 3.38 0 0 0-2.1 1.7v2.74c0-.42.31-1.7 1.24-2.25Z" fill="#000F64"/><path fill-rule="evenodd" d="M37.5 34a4.5 4.5 0 1 0 0-9 4.5 4.5 0 0 0 0 9Zm0-2c1.4 0 2.5-1.1 2.5-2.5S38.9 27 37.5 27 35 28.1 35 29.5s1.1 2.5 2.5 2.5Z" fill="#000F64"/><path fill="#000F64" d="M40 25h2v9h-2z"/><path d="M36.47 31.78A2.48 2.48 0 0 1 35 29.5a2.48 2.48 0 0 1 3.04-2.44L37.57 25h-.07a4.5 4.5 0 0 0-2.85 7.97l1.82-1.19Z" fill="#0373FD"/><path fill-rule="evenodd" d="M47.5 34c1.6 0 3-.84 3.8-2.1l-1.58-1.24A2.48 2.48 0 0 1 47.5 32a2.47 2.47 0 0 1-2.38-1.73H51.93A4.5 4.5 0 1 0 47.5 34Zm2.4-5.23A2.48 2.48 0 0 0 47.5 27c-1.14 0-2.09.73-2.4 1.77h4.8Z" fill="#000F64"/><path d="m46.44 27.23-1.65-1.33a4.5 4.5 0 1 0 6.5 6.01l-1.56-1.27A2.48 2.48 0 0 1 47.5 32c-1.4 0-2.5-1.1-2.5-2.5 0-1.02.58-1.88 1.44-2.27Z" fill="#0373FD"/></svg>