<?xml version='1.0' encoding='utf-8'?>
<!-- by TradeStack -->
<svg width="56" height="56" viewBox="0 0 56 56" xmlns="http://www.w3.org/2000/svg"><path fill="#F0F3FA" d="M0 0h56v56H0z" /><path d="m25.07 12 1.89.2c3.52.35 6.81 1.23 9.88 2.67.78.36 1.36.9 1.74 1.63.06.11.03.15-.1.1a21.31 21.31 0 0 0-7.4-1.6 7.32 7.32 0 0 0-3.63.66c-.82.44-1.23 1.34-.9 2.23.42 1.13 1.72 1.86 2.78 2.34.93.42 1.88.77 2.83 1.07 2.13.65 3.77 1.18 4.9 1.59 1.11.4 2.13.86 3.04 1.39 1.94 1.11 3.18 2.57 2.84 4.84-.21 1.45-1 2.5-2.15 3.44-.17.14-.21.1-.12-.1l.23-.48c.7-1.69.56-3.08-.43-4.18a6.58 6.58 0 0 0-2.58-1.48A25.25 25.25 0 0 0 32.62 25l-2.26-.5c-1.2-.28-2.37-.57-3.5-.9-2.8-.79-5.71-2.11-7.92-4.05-1.33-1.17-2.34-2.77-1.84-4.52.31-1.13 1.5-2 2.55-2.35a13.8 13.8 0 0 1 3.63-.68h1.8Z" fill="#EE7A00" /><path d="M32.62 25c-2.53.75-4.84 1.9-6.9 3.45-1.36 1.02-2.85 2.56-3.28 4.22-.44 1.72 1.04 2.74 2.5 2.93 1.35.18 2.73.1 4.16-.24a22.8 22.8 0 0 0 8.61-4.14 5.87 5.87 0 0 0 1.88-2.27c.06-.15.12-.14.15.02.2.88.12 1.74-.23 2.58-.5 1.2-1.2 2.3-2.1 3.26a22.6 22.6 0 0 1-4.93 3.99 31.7 31.7 0 0 1-8.04 3.51c-1.49.4-2.95.63-4.4.68-.85.03-1.7-.04-2.52-.22-2.67-.58-4.1-2.46-3.3-5.3.35-1.17.95-2.32 1.82-3.44a23.52 23.52 0 0 1 4.52-4.44 32.39 32.39 0 0 1 7.45-4.19l2.35-.9 2.26.5Z" fill="#1155A6" /></svg>