<!-- by TradeStack --><svg width="56" height="56" viewBox="0 0 56 56" xmlns="http://www.w3.org/2000/svg"><path fill="#F0F3FA" d="M0 0h56v56H0z"/><path d="M22.02 20 6.85 28.67c4.16-1.39 9.87-1.47 12.2-1.34l-2.23-1.66 4.46-.4-3.1-1.4 4.28-.87v-1.13l8.48 6.06 1.3-.6-2.79-2.4 4.21-.53-1.11-1h2.6l-1.49-1.07 2.42-.46v-.67l3.22 2.67 1.05-.47-4.58-3.4-7.3 4.4-6.45-4.4Z"/><path d="m50.5 30.13-9.03-7.6-12.63 5.84c2.98-.4 8.09-.15 10.27.03l-2.23-1.13c.25-.54 2.3-.67 3.29-.67l-2.3-1 1-.4 4.45.8 4.96 3.73 2.23.4Z" fill="#DDAC3A"/><path d="M4 31.2V34c19.77-5.08 40.24-2.65 48-.8v-.78c-14.62-4.78-38.09-2.8-48-1.22Z"/></svg>