<?xml version='1.0' encoding='utf-8'?>
<!-- by TradeStack -->
<svg width="56" height="56" viewBox="0 0 56 56" xmlns="http://www.w3.org/2000/svg"><path fill="#F0F3FA" d="M0 0h56v56H0z" /><path fill-rule="evenodd" d="m28 10 18 18-18 18-18-18 18-18Zm1.33 14.85c.9-1.32 1.75-3.12 1.49-4.73-.32-1.91-2.42-2.38-4.2-2-1.75.38-3.34 1.3-4.69 2.44a14.15 14.15 0 0 0-4.74 8.32 8.7 8.7 0 0 0-.08 1.65c0 .25.07.52.26.7.2.2.58.3.74.01.1-.18.1-.42.1-.64v-.22a12.49 12.49 0 0 1 .45-2.85 12.9 12.9 0 0 1 1.19-2.7l.06-.08c.06-.09.14-.2.14-.25.9-1.48 2.09-2.81 3.5-3.88a8.14 8.14 0 0 1 4.25-1.79c.47-.03.97 0 1.34.27.52.37.62 1.07.57 1.68a7.6 7.6 0 0 1-1.44 3.72 29.5 29.5 0 0 1-3.82 4.26c-1.08 1.06-2.17 2.12-3.1 3.3h-.01V31.72l-.03-.8c0-1.28.14-2.5.4-3.67.3-1.32.64-2.62 1.18-3.89.13-.31-.01-.65-.35-.8-.37-.17-.58-.1-.79.27l-.08.15-.03.06-.02.07c-.4.83-.61 1.68-.77 2.4a26.42 26.42 0 0 0-.64 3.9 18.66 18.66 0 0 0 .22 4.49c.1.5.23 1.08.47 1.65a.7.7 0 0 0 .66.45.9.9 0 0 0 .07 0c.15 0 .25-.04.32-.11.07-.09.08-.21.03-.39l-.1-.3a11.04 11.04 0 0 1-.43-1.97l-.03-.19-.04-.23c.47.03.76-.18 1-.42l1.16-1.11c.71-.7 1.43-1.38 2.12-2.09a31.02 31.02 0 0 0 3.67-4.34Zm5.64 3.79c.1-.28-.03-.53-.31-.62-.13-.04-.2-.01-.28.1l-.11.15c-.3.44-.61.88-.89 1.33-.28.45-.51.91-.75 1.38l-.11.22-.02.02a27.84 27.84 0 0 1-.32.62c.03-.5.11-.98.2-1.47l.1-.49c.06-.22.11-.45.15-.67.01-.11.01-.26-.1-.35a1.47 1.47 0 0 0-.38-.18c-.14-.06-.28.2-.33.3l-.28.6-.34.7-.06.12c-.34-.06-.4-.03-.5.25-.07.15-.14.31-.18.48-.19.68-.35 1.36-.44 2.06-.03.2-.04.51.11.66.1.08.24.16.36.14.29-.04.43-.56.51-.88l.05-.16.1-.33a6.41 6.41 0 0 0 .17-.6c.01-.06.03-.12.07-.16v.08c0 .33.03.67.07 1 .02.2.15.34.4.42.16.05.31 0 .4-.13.23-.3.4-.67.55-1.02l.14-.32.1-.18.08-.19h.02l-.08.27-.07.27c-.15.54-.29 1.07-.33 1.64-.02.19.04.28.17.3.24.02.3-.01.37-.2l.36-1.08a94.12 94.12 0 0 1 1.04-3.04l.36-1.04Zm-6.19 1.05c.16.22.15.45 0 .65a18.6 18.6 0 0 1-2.1 1.83l-.13.1-.37.27.16.01h.02a13.13 13.13 0 0 1 1 .12.6.6 0 0 1 .25.17c.07.06.1.15.07.23a.22.22 0 0 1-.16.15c-.16.05-.35.08-.55.1a26.43 26.43 0 0 1-1.23.04v.01l-.04.22c-.04.2-.07.38-.08.56-.02.2-.07.3-.14.33a.2.2 0 0 1-.1.03.74.74 0 0 1-.29-.1c-.15-.06-.22-.16-.23-.3l-.01-.15v-.05c-.02-.11-.03-.24 0-.35.03-.2-.06-.3-.2-.4a.52.52 0 0 1-.17-.18c-.09-.15-.04-.3.1-.37.42-.2.54-.77.56-1.17l-.1.01-.03.01c-.24.07-.31.07-.44-.09-.12-.16-.12-.35 0-.5.43-.51.97-.94 1.62-1.2.46-.2.95-.34 1.46-.36.43-.01.87.03 1.13.38Zm-2.73 1.85.1-.07.02-.02c.56-.4 1.15-.83 1.56-1.4-.55.07-1.02.21-1.44.43-.02.01-.04.05-.07.15l-.03.16a3.56 3.56 0 0 1-.03.15V31l-.09.4-.02.12Zm11.32-1.86a1.9 1.9 0 0 0-.92.12c-.96.37-1.63 1.6-1.99 2.44-.2.48-.26.94-.2 1.4.06.53.59.87 1.04.87h.07c.3-.03.52-.18.75-.4.44-.41.77-.98 1.07-1.5l.02-.03c.37-.63.79-1.38.79-2.12 0-.37-.21-.71-.63-.78Zm-.26.78c.17.26-.4 1.28-.55 1.53l-.02.03a7.56 7.56 0 0 1-1.08 1.57c-.07.08-.36.35-.42.08-.06-.2 0-.42.05-.62l.01-.04c.08-.29.21-.57.35-.84l.03-.07a5.46 5.46 0 0 1 .95-1.4c.12-.11.44-.37.63-.29l.05.05Zm-8.25.53c.05-.15.2-.22.38-.18.32.06.55.38.5.7-.04.2-.11.4-.19.6l-.12.37-.16.6-.1.4c-.05.19-.05.47 0 .66.05.13.04.23-.02.3-.05.05-.12.07-.23.07h-.09c-.26-.04-.42-.16-.5-.38-.23-.73 0-1.48.21-2.18l.16-.48c.06-.16.12-.32.16-.48Zm1.2-1.24c.1 0 .25-.12.29-.25.03-.13.07-.27.09-.42a1.96 1.96 0 0 1 .32-.93c.07-.13.16-.29.12-.44-.03-.16-.17-.3-.32-.37-.36-.17-.58.26-.7.5a2.31 2.31 0 0 0-.13 1.64c.04.15.14.23.3.26h.02Z" fill="#FFD520" /></svg>