<!-- by TradeStack --><svg viewBox="0 0 56 56" xmlns="http://www.w3.org/2000/svg"><path fill="#F0F3FA" d="M0 0h56v56H0z"/><path d="m46 29.32.74-.65A2.62 2.62 0 0 0 49.1 30c1.1 0 1.89-.36 1.89-1.08 0-.76-.7-1.09-2.04-1.53-1.5-.48-2.66-1-2.66-2.32 0-1.38 1.37-2.07 2.65-2.07a3.2 3.2 0 0 1 2.83 1.48l-.77.68A2.42 2.42 0 0 0 48.95 24c-.85 0-1.62.26-1.62 1.06 0 .76.7 1.02 1.94 1.43 1.51.5 2.73 1.01 2.73 2.42 0 1.22-1.22 2.09-2.89 2.09-1.55 0-2.66-.76-3.11-1.68ZM38 27c0-2.29 1.66-4 3.77-4 1.32 0 2.46.68 3.19 1.83l-.7.53A2.78 2.78 0 0 0 41.77 24c-1.6 0-2.77 1.2-2.77 3s1.2 3 2.8 3c1.03 0 1.89-.37 2.53-1.33l.67.5A3.76 3.76 0 0 1 41.8 31c-2.12 0-3.8-1.72-3.8-4ZM31 31v-8h6v1h-5v2.5h4v1h-4V30h5v1h-6ZM24 31h-1v-8h3.3c1.63 0 2.7.94 2.7 2.46 0 1.5-1.07 2.54-2.7 2.54H24v3Zm0-7v3h2.26c1.12 0 1.74-.6 1.74-1.54 0-.95-.62-1.46-1.74-1.46H24ZM16 29.32l.74-.5c.42.72 1.18 1.18 2.37 1.18 1.1 0 1.87-.37 1.87-1.09 0-.77-.68-1.08-2.02-1.52-1.5-.48-2.66-1-2.66-2.32 0-1.38 1.37-2.07 2.65-2.07a3.2 3.2 0 0 1 2.83 1.48l-.77.54A2.36 2.36 0 0 0 18.95 24c-.85 0-1.62.26-1.62 1.06 0 .76.7 1.02 1.94 1.43 1.51.5 2.73 1.01 2.73 2.42 0 1.22-1.22 2.09-2.89 2.09-1.55 0-2.66-.76-3.11-1.68ZM7 23h1l5 6.5V23h1v8h-1l-5-6.5V31H7v-8ZM4 31v-8h1v8H4ZM4 33h8v1H4zM43 33h9v1h-9z" fill="#201D1D"/><path d="M38 33.5c0-.86.71-1.5 1.62-1.5.56 0 1.05.26 1.36.68l-.3.2a1.28 1.28 0 0 0-1.06-.55c-.69 0-1.22.5-1.22 1.17 0 .67.54 1.17 1.23 1.17.44 0 .8-.18 1.08-.55l.29.2c-.3.41-.8.68-1.37.68-.91 0-1.63-.64-1.63-1.5ZM37 35h-2v-3h.34v2.67H37V35ZM32.33 35H32v-3h1.1c.54 0 .9.35.9.92 0 .56-.36.92-.9.92h-.77V35Zm0-2.66v1.17h.76c.37 0 .57-.24.57-.59s-.2-.58-.57-.58h-.76ZM28.33 35H28v-3h1.1c.54 0 .9.35.9.92 0 .56-.36.92-.9.92h-.77V35Zm0-2.66v1.17h.76c.37 0 .57-.24.57-.59s-.2-.58-.57-.58h-.76ZM26 35c-.6 0-1-.43-1-1.1V32h.3v1.88c0 .48.27.78.7.78.43 0 .7-.3.7-.78V32h.3v1.9c0 .67-.4 1.1-1 1.1ZM22.5 35c-.85 0-1.5-.6-1.5-1.5s.65-1.5 1.5-1.5 1.5.6 1.5 1.5-.65 1.5-1.5 1.5Zm-1.13-1.5c0 .7.47 1.17 1.13 1.17.66 0 1.13-.47 1.13-1.17s-.47-1.17-1.13-1.17c-.66 0-1.13.47-1.13 1.17ZM18 32h1.08c.51 0 .85.34.85.89 0 .43-.21.74-.56.85L20 35h-.36l-.6-1.22h-.73V35H18v-3Zm1.07.33h-.76v1.13h.76c.35 0 .54-.23.54-.57 0-.34-.19-.56-.54-.56ZM15.54 35a1.5 1.5 0 1 1 0-3c.54 0 1 .24 1.3.66l-.3.2a1.19 1.19 0 0 0-1-.53c-.65 0-1.16.5-1.16 1.17 0 .67.49 1.17 1.17 1.17.67 0 1-.44 1.06-.87h-1.07v-.32H17v.13c0 .76-.54 1.39-1.46 1.39Z"/></svg>