<?xml version='1.0' encoding='utf-8'?>
<!-- by TradeStack -->
<svg width="56" height="56" viewBox="0 0 56 56" xmlns="http://www.w3.org/2000/svg"><path fill="#0D4261" d="M0 0h56v56H0z" /><path fill-rule="evenodd" d="M8.92 25.6c5-3.17 8.84-3.05 12.07-1.6.62.27 1.08.64 1.39 1.07.33-1.7-.24-3.05-1.8-3.7-3.12-1.29-9.05.86-13.24 4.8 0 0-3.15 2.75 3.77 2.05 0 0-6.63.22-2.19-2.62Zm5.06 1.58c.07.36-.26.98-.73 1.37-.48.4-.92.43-1 .07-.07-.36.26-.97.74-1.37.47-.4.91-.43.99-.07Zm-8.5 4.83c3.23 1.44 7.07 1.56 12.07-1.61 4.37-2.8-2-2.62-2.19-2.62 6.92-.7 3.76 2.05 3.76 2.05-4.18 3.94-10.11 6.09-13.24 4.8-1.55-.65-2.12-2-1.8-3.7.32.43.78.8 1.4 1.08Zm17.05-5.46.44-1.31-.77.3-.38 1.01-.58-.03c-.36.27-.55.4-.88.59l.05.12 1.1.03a7.57 7.57 0 0 0-.7 2.61c0 .58.2.93.53.93.4 0 1.24-.47 1.68-.73.34-.2.46-.41.46-.75 0-.1-.04-.19-.1-.19-.08 0-.23.18-.37.42-.2.38-.45.64-.63.64-.3 0-.58-.48-.58-1 0-.4.2-1.19.5-1.96l1.3.03.28-.69-1.35-.02Zm4.62 1.36c-.63 1.16-1.6 2.12-2.13 2.12-.24 0-.37-.14-.37-.4 0-.65.6-1.84 1.34-2.6.23-.23.36-.3.6-.3.35 0 .56.35.56.97v.21Zm1.43 2.6h-.07c-.5 0-.86-.52-.86-1.25 0-.34 0-.34.35-1.7-.17.07-.28.11-.42.14.1-.4.14-.63.14-.94 0-.46-.14-.73-.38-.73-.8 0-3.74 2.32-3.74 4.2 0 .35.18.57.48.57.65 0 1.46-.67 2.69-1.7l-.06.8c.02.85.25 1.25.72 1.25.2 0 .36-.07.8-.3l.38-.2v.03l.34-.12.47-.2.2-.07c1.05-1.75 1.87-2.57 2.27-2.77.16.08.21.2.21.5 0 .16-.03.41-.06.76-.07.57-.1.86-.1 1.16 0 .67.22 1.11.56 1.11.14 0 .18-.02 1.08-.56l.04-.03c.1.24.27.38.5.38.65 0 1.9-1.15 2.7-2.6 0 .1-.02.19-.05.36-.05.39-.08.77-.08 1.12 0 .82.3 1.47.68 1.47.1 0 .16-.05.2-.16.14-.04.2-.05.4-.08.37-.06.5-.12.7-.3.07.1.2.15.34.15.65 0 1.46-.67 2.7-1.7-.03.28-.05.42-.06.8.01.85.25 1.25.72 1.25.2 0 .35-.07.79-.3l.51-.26-.04-.1c-.08.02-.14.02-.18.02-.5 0-.86-.52-.86-1.25v-.17c.01-.22.07-.43.34-1.54-.17.08-.27.12-.42.15.1-.4.15-.63.15-.94 0-.46-.15-.73-.39-.73-.79 0-3.74 2.32-3.74 4.2 0 .14.04.26.1.36-.45 0-1.06-.1-1.06-1.68 0-.47.05-1.1.13-1.47l.18-.96c.07-.35.07-.35.19-.6.31-.63.63-1.7.64-2.18 0-.13-.02-.18-.07-.18-.04 0-.11.04-.2.1-.17.12-.4.23-.69.35-.25.72-.38 1.34-.6 2.44l-.07.27c-.15-.27-.27-.4-.4-.4-.4 0-1.34.58-1.9 1.18a4.16 4.16 0 0 0-1.22 2.6c0 .09 0 .18.02.26a1.03 1.03 0 0 1-.16.02c-.4 0-.56-.36-.56-1.2 0-.44.04-.86.12-1.46.04-.27.05-.43.05-.53 0-.24-.09-.4-.27-.4-.1 0-.42.21-.62.34l-.16.1c-.77.4-1.03.6-1.83 1.47.35-.86.53-1.5.53-1.98 0-.35-.13-.58-.38-.58-.08 0-.11.02-.32.17a23.01 23.01 0 0 1-.5.33h-.01c-.18.1-.43.25-.5.31a.67.67 0 0 0-.25.48c0 .06.02.1.04.1l.2-.1.24-.1.03-.04.02-.04c.07-.14.15-.25.24-.33.13.04.19.12.19.4 0 .25-.17 1.37-1.1 3.23Zm7.35-3.5c.36 0 .73.3.73.6 0 .1-1 2.32-1.77 2.32-.26 0-.44-.23-.44-.54 0-.55.52-1.68 1-2.19a.59.59 0 0 1 .48-.19Zm4.02 3.02c.54 0 1.5-.96 2.14-2.12v-.21c0-.62-.21-.97-.57-.97-.24 0-.37.07-.6.3-.73.76-1.34 1.95-1.34 2.6 0 .26.14.4.37.4Zm3.52-1.41.06-.1c.48-.76.52-.83.74-1.41-.37-.02-.57-.13-.57-.32 0-.44 1.22-1.05 1.4-1.05.07 0 .13.06.13.16 0 .14-.07.33-.27.7l.12-.02c.4-.02.6-.03 1.14-.03.54 0 .76.08.76.25 0 .07-.14.29-.33.47-.4.41-1.21 1.5-1.21 2.36 0 .4.25.72.54.72.14 0 .33-.1.76-.4l.02.25c-.9.44-1.4.66-1.73.66-.45 0-.67-.27-.67-.75 0-.74.75-1.93 1.2-2.43.2-.22.35-.45.35-.53 0-.12-.14-.19-.42-.19-.26 0-.4.03-.74.11l-.11.22c-.41.71-.57.96-.98 1.5l-.19-.17Zm6.47-1.02c0-.3-.37-.59-.72-.59a.59.59 0 0 0-.48.2 4.32 4.32 0 0 0-1 2.18c0 .31.18.54.44.54.77 0 1.76-2.22 1.76-2.33Zm.03-1.31c.13 0 .25.12.4.39l.06-.27c.22-1.1.35-1.72.6-2.44.3-.12.52-.23.7-.35.08-.06.15-.1.2-.1.04 0 .07.05.07.18a6.93 6.93 0 0 1-.65 2.18c-.12.25-.12.25-.18.6l-.19.96c-.08.36-.13 1-.13 1.47 0 1.7.7 1.69 1.15 1.67-.21.24-.34.3-.75.37-.19.03-.25.04-.39.08-.05.1-.1.16-.2.16-.38 0-.68-.65-.68-1.47a8.4 8.4 0 0 1 .12-1.48c-.8 1.45-2.04 2.6-2.7 2.6-.33 0-.56-.31-.56-.79 0-.79.5-1.85 1.23-2.6.56-.59 1.5-1.16 1.9-1.16Z" fill="#fff" /></svg>