<?xml version='1.0' encoding='utf-8'?>
<!-- by TradeStack -->
<svg width="56" height="56" viewBox="0 0 56 56" xmlns="http://www.w3.org/2000/svg"><path fill="#F0F3FA" d="M0 0h56v56H0z" /><path fill-rule="evenodd" d="M15.5 22H4v12h11.5V22Zm12 0H16v12h11.5V22Zm.5 0h12v12H28V22Zm-16.47 4.02 1.78-.16c-.06-.95-.83-2.86-3.43-2.86-3.25 0-3.4 2.25-3.4 2.8 0 .55.15 1.74 2.35 2.54l1.05.37c1.3.44 1.62.55 1.62 1.47 0 1.13-1.29 1.32-1.64 1.32-.35 0-1.62-.3-1.93-2.03l-1.86.26A3.55 3.55 0 0 0 9.87 33c3.57 0 3.63-2.73 3.63-3.13v-.01c0-.42 0-2.2-2.83-2.95l-1.9-.64c-.47-.16-.59-.52-.59-.68-.01-.36.29-1.09 1.6-1.09a1.65 1.65 0 0 1 1.75 1.52ZM19 23v10h2v-3.5h2.27c1.5 0 2.73-1.51 2.73-3.17V26c0-1.66-1.22-3-2.73-3H19Zm2 2h1.79c.67 0 1.21.56 1.21 1.25s-.54 1.25-1.21 1.25H21V25Zm12.65 2.61v1.76h2.29v1c-.34.27-1.3.78-2.4.78-1.37 0-2.57-1.07-2.57-3.08 0-2 1.04-3.3 2.68-3.3 1.31 0 1.97 1.08 2.13 1.61l2.1-.67C37.3 24.07 36.04 23 33.65 23A4.67 4.67 0 0 0 29 27.86c0 3 1.59 5.14 4.65 5.14 2.45 0 3.92-1.15 4.35-1.73v-3.66h-4.35Zm17.85-5.1H41V33.5h10.5v-11Zm-11-.51v12H52V22H40.5Zm3.77 11 2.23-3.41L48.73 33H51l-3.37-5.15L50.81 23h-2.27l-2.04 3.12L44.46 23H42.2l3.18 4.85L42 33h2.27Z" fill="#032354" /></svg>