<!-- by TradeStack --><svg width="56" height="56" viewBox="0 0 56 56" fill="none" xmlns="http://www.w3.org/2000/svg">
<rect width="56" height="56" fill="#F0F3FA"/>
<rect x="6" y="19" width="24.1108" height="18" fill="#194999"/>
<rect x="30.1108" y="19" width="19.8892" height="18" fill="#828282"/>
<rect x="15" y="24" width="2" height="11" fill="#F0F3FA"/>
<rect x="21" y="21" width="2" height="11" fill="#F0F3FA"/>
<path fill-rule="evenodd" clip-rule="evenodd" d="M25.3798 24C23.5652 24 22.0941 25.4849 22.0941 27.3167V32H23V27.6825C23 26.7533 23.8082 26 24.8051 26C25.465 26 26 26.4986 26 27.1137V32H28V26.1954C28 24.9829 27.0263 24 25.8251 24H25.3798Z" fill="#F0F3FA"/>
<path d="M12.8988 24C14.118 24 14.9195 24.4246 15.1678 24.6369L15.0832 26.4022C13.3899 25.4195 11.8892 25.817 11.8151 26.2748C11.7609 26.6096 12.1425 26.7783 12.34 26.8207C14.2636 27.2429 14.9703 27.5668 15.0832 27.676V31.1155C13.7421 32.484 10.7776 31.9647 9.55846 31.5341V29.5687C11.7428 30.4604 13.2713 30.2966 13.2713 29.7324C13.2713 29.1683 12.4755 29.0409 12.0691 28.9499C11.6627 28.8589 9.44451 28.6405 9.56304 26.6569C9.68157 24.6733 11.3749 24 12.8988 24Z" fill="#F0F3FA"/>
<path fill-rule="evenodd" clip-rule="evenodd" d="M19.2757 32C21.267 32 22.8812 30.2091 22.8812 28C22.8812 25.7909 21.267 24 19.2757 24C17.2845 24 15.6703 25.7909 15.6703 28C15.6703 30.2091 17.2845 32 19.2757 32ZM18.8906 29.9956C20.0556 29.9956 21 29.1012 21 27.9978C21 26.8944 20.0556 26 18.8906 26C17.7257 26 16.7813 26.8944 16.7813 27.9978C16.7813 29.1012 17.7257 29.9956 18.8906 29.9956Z" fill="#F0F3FA"/>
<path fill-rule="evenodd" clip-rule="evenodd" d="M21 31.5138C22.1208 30.8354 22.8812 29.5162 22.8812 28C22.8812 26.4838 22.1208 25.1646 21 24.4862V27.9978V31.5138Z" fill="#D9DBF2"/>
<rect x="42.4997" y="26" width="1" height="6.00064" fill="#F0F3FA"/>
<rect x="42.4997" y="24" width="1" height="1.2803" fill="#F0F3FA"/>
<path fill-rule="evenodd" clip-rule="evenodd" d="M34.2529 24H30.9004V24H30V32H31V28.6242H34.0843C34.4048 28.6292 35.064 28.9346 35.1373 30.1162C35.178 30.724 35.3082 31.9518 35.5035 32H36.6939C36.5413 31.7539 36.2391 31.147 36.2513 30.6889V29.8298C36.2376 29.342 35.9795 28.4008 35.0933 28.1634C35.8723 27.8352 36.4192 27.0646 36.4192 26.1662C36.4192 24.9698 35.4493 24 34.2529 24ZM31 27.7152V25H34.0252C34.775 25 35.3828 25.6078 35.3828 26.3576C35.3828 27.1074 34.775 27.7152 34.0252 27.7152H31Z" fill="#F0F3FA"/>
<path fill-rule="evenodd" clip-rule="evenodd" d="M39.4391 26C37.9229 26 36.6938 27.2291 36.6938 28.7452V29.2548C36.6938 30.7709 37.9229 32 39.4391 32C40.6969 32 41.7572 31.154 42.0819 30H41.0118C40.7348 30.5908 40.1347 31 39.4391 31C38.4803 31 37.703 30.2227 37.703 29.2639V29.2529H41.1751V29.2529H42.1843V28.7452C42.1843 27.2291 40.9552 26 39.4391 26ZM41.151 28.4459C41.0129 27.6253 40.299 27 39.4391 27C38.5791 27 37.8652 27.6253 37.7271 28.4459H41.151Z" fill="#F0F3FA"/>
<path d="M45 26V24H46V26H47V27H46V30.6827C46 30.8728 46.0688 31 46.2428 31H47V32.0006H45.8972C45.3751 32.0006 45 31.5383 45 30.9681V27H44V26H45Z" fill="#F0F3FA"/>
</svg>
