<!-- by TradeStack --><svg width="56" height="56" viewBox="0 0 56 56" xmlns="http://www.w3.org/2000/svg"><path fill="#F0F3FA" d="M0 0h56v56H0z"/><path d="M22.75 15c.34 0 .6.1.8.3.15.15.25.25.3.28a2 2 0 0 0 .4.13c.26.06.48.24.65.54.17.3.22.58.15.84-.06.2-.1.34-.1.4 0 .07.04.2.1.42.07.26.03.54-.14.83-.18.3-.4.48-.66.55l-.4.12c-.05.04-.15.13-.3.29-.19.2-.45.3-.8.3-.34 0-.6-.1-.8-.3a2.07 2.07 0 0 0-.3-.29 2.1 2.1 0 0 0-.4-.12 1.05 1.05 0 0 1-.65-.54c-.17-.3-.22-.58-.14-.84.06-.21.09-.35.09-.41 0-.07-.03-.2-.1-.41-.07-.26-.02-.54.15-.84.17-.3.39-.48.65-.54a2 2 0 0 0 .4-.13c.05-.03.16-.13.3-.28.2-.2.46-.3.8-.3ZM43.65 15c.35 0 .6.08.72.24.11.14.24.26.38.34.14.08.3.14.49.16.2.03.39.2.57.5.17.31.22.56.15.75-.07.17-.1.34-.1.5 0 .17.03.34.1.51.07.19.02.44-.15.74-.18.3-.37.48-.57.5a1.35 1.35 0 0 0-.87.51c-.12.16-.36.24-.71.24-.36 0-.6-.08-.72-.24a1.42 1.42 0 0 0-.39-.34c-.14-.08-.3-.13-.48-.16-.2-.03-.4-.2-.57-.5-.18-.3-.23-.56-.15-.75.07-.17.1-.34.1-.5 0-.17-.03-.34-.1-.5-.08-.2-.03-.44.15-.75.17-.3.36-.47.56-.5a1.35 1.35 0 0 0 .87-.5c.13-.17.37-.25.72-.25Z" fill="#0453A6"/><path d="M12.29 15.04c.04 0 .4.2 1.07.58.68.4 1.03.61 1.05.65.02.03.03.44.03 1.22 0 .79-.01 1.2-.04 1.23-.02.04-.36.25-1.04.64-.68.4-1.03.59-1.08.59-.04 0-.4-.2-1.07-.59-.68-.39-1.03-.6-1.05-.64-.02-.03-.02-.44-.02-1.23 0-.78 0-1.2.03-1.23.02-.03.37-.25 1.04-.64a10.3 10.3 0 0 1 1.08-.58ZM34.15 15.03c.02 0 .38.2 1.07.6.68.4 1.03.6 1.05.63.01.03.02.44.02 1.23 0 .8 0 1.2-.02 1.23-.02.03-.37.24-1.06.64-.68.4-1.04.6-1.07.6-.03 0-.38-.2-1.07-.6-.68-.4-1.03-.61-1.05-.64-.01-.02-.02-.43-.02-1.23s0-1.2.02-1.23c.02-.02.37-.24 1.05-.63.69-.4 1.05-.6 1.08-.6Z" fill="#E60012"/><path d="m28.74 21.52 1.21-.01a.1.1 0 0 1 .09.05.1.1 0 0 1 0 .1l-.61 1.04a.1.1 0 0 0 0 .1l.6 1.05a.1.1 0 0 1 0 .1.1.1 0 0 1-.08.04h-1.2a.1.1 0 0 0-.09.04l-.6 1.06a.1.1 0 0 1-.08.05.1.1 0 0 1-.09-.05l-.6-1.06a.1.1 0 0 0-.08-.05L26 24a.1.1 0 0 1-.08-.05.1.1 0 0 1 0-.1l.6-1.04a.1.1 0 0 0 0-.1l-.6-1.05a.1.1 0 0 1 .08-.14h1.21a.1.1 0 0 0 .08-.04l.6-1.06a.1.1 0 0 1 .17 0l.6 1.06a.1.1 0 0 0 .08.05ZM39.2 21.51h1.21a.1.1 0 0 1 .1.09.1.1 0 0 1-.02.05l-.61 1.05a.1.1 0 0 0 0 .1l.62 1.05a.1.1 0 0 1-.04.13.1.1 0 0 1-.05 0H39.2a.1.1 0 0 0-.08.05l-.6 1.06a.1.1 0 0 1-.08.05.1.1 0 0 1-.09-.05l-.6-1.06a.1.1 0 0 0-.08-.04h-1.22a.1.1 0 0 1-.1-.09l.02-.05.61-1.05a.1.1 0 0 0 0-.1l-.61-1.05a.1.1 0 0 1 0-.1.1.1 0 0 1 .08-.04h1.21a.1.1 0 0 0 .09-.04l.6-1.06a.1.1 0 0 1 .12-.04.1.1 0 0 1 .04.04l.6 1.06a.1.1 0 0 0 .08.04ZM18.28 21.52l1.24-.02a.09.09 0 0 1 .09.09l-.01.04-.64 1.07a.09.09 0 0 0 0 .09l.64 1.07a.09.09 0 0 1 0 .08.09.09 0 0 1-.08.05l-1.23-.02a.08.08 0 0 0-.08.05l-.6 1.09a.08.08 0 0 1-.08.04.08.08 0 0 1-.08-.04l-.6-1.09a.09.09 0 0 0-.08-.04l-1.24.02a.09.09 0 0 1-.07-.13l.63-1.08a.09.09 0 0 0 0-.08l-.64-1.07a.09.09 0 0 1 0-.09.09.09 0 0 1 .08-.04l1.24.01.04-.01.03-.03.6-1.1a.09.09 0 0 1 .16 0l.6 1.1a.09.09 0 0 0 .08.04Z"/><path d="M12.3 25.5c.58 0 .73.36 1.1.58.39.22.77.17 1.06.67.29.5.05.81.05 1.25 0 .44.24.75-.05 1.25-.3.5-.67.45-1.05.67-.38.22-.53.58-1.1.58-.59 0-.74-.36-1.11-.58-.38-.22-.76-.17-1.05-.67-.3-.5-.06-.81-.06-1.25 0-.44-.24-.75.06-1.25.29-.5.67-.45 1.05-.67.37-.22.52-.58 1.1-.58Z" fill="#0453A6"/><path d="M22.86 25.54c.03 0 .38.2 1.07.6.69.4 1.04.6 1.05.63.01.02.02.44.02 1.23 0 .8-.01 1.2-.02 1.23-.02.03-.37.24-1.06.63-.69.4-1.05.6-1.07.6-.03 0-.39-.2-1.07-.6a17.2 17.2 0 0 1-1.05-.64A15.7 15.7 0 0 1 20.7 28c0-.8 0-1.2.02-1.23l1.06-.63c.68-.4 1.04-.6 1.07-.6Z" fill="#E60012"/><path d="M33.2 25.5c.38 0 .63.09.75.26.1.15.22.26.35.33.13.08.29.13.47.14.2.02.4.2.59.52.19.33.24.59.15.78-.07.16-.11.32-.11.47 0 .15.04.31.1.47.1.2.05.45-.14.78s-.39.5-.6.52c-.17.01-.33.06-.46.14-.13.07-.25.18-.35.33-.12.17-.37.26-.74.26-.38 0-.63-.09-.75-.26-.1-.15-.22-.26-.35-.33a1.12 1.12 0 0 0-.47-.14c-.2-.02-.4-.2-.59-.52-.19-.33-.24-.59-.15-.78.08-.16.11-.32.11-.47 0-.15-.03-.31-.1-.47-.1-.2-.05-.45.14-.78s.39-.5.6-.52c.17-.01.33-.06.46-.14.13-.07.25-.18.35-.33.12-.17.37-.26.75-.26Z" fill="#0453A6"/><path d="M44.73 26.13c.68.4 1.03.6 1.05.64.02.03.03.44.03 1.23s-.01 1.2-.03 1.23c-.01.03-.36.24-1.04.63-.68.4-1.04.6-1.08.6-.03 0-.39-.2-1.07-.6-.68-.39-1.03-.6-1.05-.63-.02-.03-.02-.44-.02-1.23s0-1.2.02-1.23c.02-.03.37-.24 1.05-.64s1.04-.59 1.07-.59c.04 0 .4.2 1.07.6Z" fill="#E60012"/><path d="m18.28 32.02 1.24-.02a.09.09 0 0 1 .09.09l-.01.04-.64 1.07a.09.09 0 0 0 0 .1l.64 1.06a.09.09 0 0 1-.08.13l-1.24-.01a.09.09 0 0 0-.07.04l-.61 1.09a.09.09 0 0 1-.15 0l-.61-1.09a.09.09 0 0 0-.07-.04l-1.25.01a.09.09 0 0 1-.08-.08l.01-.05.63-1.07a.09.09 0 0 0 0-.09l-.63-1.07a.09.09 0 0 1 .07-.13l1.25.02a.09.09 0 0 0 .07-.05l.6-1.08a.09.09 0 0 1 .16 0l.6 1.08a.09.09 0 0 0 .08.05ZM28.74 32.01h1.21a.1.1 0 0 1 .08.04.1.1 0 0 1 0 .1l-.6 1.05a.1.1 0 0 0 0 .1l.6 1.04a.1.1 0 0 1-.08.15h-1.2a.1.1 0 0 0-.1.04l-.6 1.06a.1.1 0 0 1-.08.04.1.1 0 0 1-.08-.04l-.6-1.06a.1.1 0 0 0-.08-.05L26 34.5a.1.1 0 0 1-.09-.15l.61-1.04a.1.1 0 0 0 0-.1l-.6-1.05A.1.1 0 0 1 26 32l1.2.01a.1.1 0 0 0 .1-.05l.6-1.05a.1.1 0 0 1 .12-.04.1.1 0 0 1 .04.04l.6 1.05a.1.1 0 0 0 .08.05ZM39.2 32.01h1.24a.08.08 0 0 1 .08.07l-.01.05-.63 1.08a.08.08 0 0 0 0 .08l.63 1.08a.08.08 0 0 1-.07.12h-1.25a.08.08 0 0 0-.07.04l-.62 1.08a.08.08 0 0 1-.14 0l-.61-1.08a.08.08 0 0 0-.08-.05l-1.25.01a.08.08 0 0 1-.08-.08l.01-.04.63-1.08a.08.08 0 0 0 0-.08l-.63-1.08a.08.08 0 0 1 .03-.12h1.29a.08.08 0 0 0 .08-.04l.6-1.09a.08.08 0 0 1 .08-.04.08.08 0 0 1 .07.04l.62 1.09a.08.08 0 0 0 .07.04Z"/><path d="M12.29 36.04c.04 0 .4.2 1.07.6.68.39 1.03.6 1.05.63.02.03.03.44.03 1.23 0 .8-.01 1.2-.03 1.23-.02.04-.37.25-1.05.64-.68.4-1.04.6-1.08.6-.03 0-.39-.2-1.07-.6-.68-.4-1.03-.6-1.05-.64-.02-.03-.02-.44-.02-1.23s0-1.2.02-1.23c.02-.03.37-.25 1.05-.64.68-.4 1.04-.59 1.08-.6Z" fill="#E60012"/><path d="M22.76 36c.37 0 .6.09.72.25.11.15.23.27.37.35.14.08.3.13.48.15.2.01.4.19.58.5.18.33.23.58.15.76-.08.17-.12.34-.12.5 0 .15.04.32.12.49.08.18.03.43-.16.75-.18.32-.37.5-.57.51-.19.02-.35.07-.48.15-.14.08-.26.2-.37.34-.12.17-.36.25-.73.25s-.61-.08-.73-.25c-.1-.15-.23-.26-.37-.34a1.2 1.2 0 0 0-.48-.15c-.2-.02-.39-.2-.57-.51-.19-.33-.24-.58-.16-.76.08-.17.12-.33.12-.5 0-.15-.04-.32-.11-.49-.09-.18-.03-.43.15-.75.19-.32.38-.5.58-.5a1.2 1.2 0 0 0 .85-.5c.11-.17.36-.25.73-.24ZM43.65 36c.38 0 .64.1.77.28a1.03 1.03 0 0 0 .77.45c.22.02.43.2.62.52.19.34.24.6.14.8-.06.16-.1.3-.1.45 0 .15.04.3.1.45.1.2.05.47-.14.8-.2.33-.4.5-.62.53-.17.02-.31.06-.44.13-.12.08-.24.18-.33.32-.13.18-.39.27-.77.27s-.63-.1-.76-.27c-.1-.14-.21-.24-.34-.32a1.1 1.1 0 0 0-.43-.13c-.23-.03-.43-.2-.62-.53-.2-.33-.24-.6-.15-.8.07-.15.1-.3.1-.45 0-.15-.03-.3-.1-.45-.09-.2-.04-.47.15-.8.2-.33.4-.5.62-.53.16-.01.31-.06.44-.13.12-.07.23-.18.33-.31.13-.18.39-.27.76-.27Z" fill="#0453A6"/><path d="M33.15 36.04c.02 0 .38.2 1.07.6.68.4 1.03.6 1.05.63.01.03.02.44.02 1.23 0 .8-.01 1.2-.02 1.23-.02.03-.37.24-1.05.63-.7.4-1.05.6-1.08.6-.03 0-.38-.2-1.07-.6-.68-.4-1.03-.6-1.05-.63-.01-.02-.02-.43-.02-1.23s0-1.2.02-1.23c.02-.03.37-.24 1.05-.63.69-.4 1.05-.6 1.08-.6Z" fill="#E60012"/></svg>