<!-- by TradeStack --><svg width="56" height="56" viewBox="0 0 56 56" xmlns="http://www.w3.org/2000/svg"><path fill="#F0F3FA" d="M0 0h56v56H0z"/><path d="M32 17a4 4 0 1 1-8 0 4 4 0 0 1 8 0ZM21 28a4 4 0 1 1-8 0 4 4 0 0 1 8 0Zm7 15a4 4 0 1 0 0-8 4 4 0 0 0 0 8Zm15-15a4 4 0 1 1-8 0 4 4 0 0 1 8 0Zm-4-7a4 4 0 1 0-4-4 7 7 0 1 1-14 0 4 4 0 1 0-4 4 7 7 0 1 1 0 14 4 4 0 1 0 4 4 7 7 0 1 1 14 0 4 4 0 1 0 4-4 7 7 0 1 1 0-14Zm-9 7a2 2 0 1 1-4 0 2 2 0 0 1 4 0Z" fill="url(#agz3sle1n)"/><defs><linearGradient id="agz3sle1n" x1="14.5" y1="14.5" x2="40.5" y2="41.5" gradientUnits="userSpaceOnUse"><stop stop-color="#264090"/><stop offset="1" stop-color="#1FB6E1"/></linearGradient></defs></svg>