<?xml version='1.0' encoding='utf-8'?>
<!-- by TradeStack -->
<svg width="56" height="56" viewBox="0 0 56 56" xmlns="http://www.w3.org/2000/svg"><path fill="#F0F3FA" d="M0 0h56v56H0z" /><path d="M12.58 32.27a15.98 15.98 0 0 1-.55-5.22c2.39 1.8 4.9 3.5 7.61 4.95-2.54-.19-4.9-.06-7.06.27Zm19.67 3.67a59.83 59.83 0 0 1 6.16 4.2 16.1 16.1 0 0 0 3.64-4.47 40.7 40.7 0 0 1-6.05.47c-1.27 0-2.52-.07-3.75-.2ZM28 44c.88 0 1.74-.07 2.59-.2-5.37-4.21-10.56-8.05-17.14-9.13A16 16 0 0 0 28 44Zm-5.8-10.15a32.53 32.53 0 0 0-6.68-.35c6.48 1.59 11.62 5.6 17.01 9.85 1.66-.5 3.21-1.25 4.6-2.22-4.6-3.47-9.25-6.4-14.94-7.28ZM28 12a16 16 0 0 0-15.77 13.26c7.86 5.97 16.57 11.16 30.62 8.7A16 16 0 0 0 28 12Z" fill="url(#a)" /><defs><linearGradient id="a" x1="33.44" y1="12.77" x2="24.25" y2="41.1" gradientUnits="userSpaceOnUse"><stop offset=".04" stop-color="#fff" /><stop offset=".24" stop-color="#FDF3CF" /><stop offset=".56" stop-color="#FBDB6C" /><stop offset=".75" stop-color="#FBD244" /><stop offset="1" stop-color="#FBA444" /></linearGradient></defs></svg>