<!-- by TradeStack --><svg width="56" height="56" viewBox="0 0 56 56" xmlns="http://www.w3.org/2000/svg"><path fill="#2C54CD" d="M0 0h56v56H0z"/><path d="M19 31c-.87 0-1.69-.63-1.97-1.35-.08-.21 0-.46.19-.57.19-.08.42 0 .5.21.13.36.54.71 1.23.71.85 0 1.05-.42 1.05-1 0-.77-.5-.86-1-1-.82-.23-1.99-.77-1.99-2.1 0-1.08.9-1.9 1.96-1.9.81 0 1.48.42 1.76 1.1.1.21.02.63-.17.71-.19.1-.41.02-.51-.18-.13-.3-.48-.63-1.1-.63-.63 0-.95.5-.95.9s.13.79 1.04 1.04c.82.23 1.96.54 1.96 2 0 1.13-.89 2.06-2 2.06ZM28 27.5c0 1.9-1 3.5-3 3.5-.9 0-1.49-.4-2-1.1v3.7c0 .22-.3.4-.5.4s-.5-.18-.5-.4v-9.22c0-.22.3-.38.5-.38s.5.18.5.38v.7c.55-.66 1.11-1.08 2-1.08 1.9 0 3 1.6 3 3.5Zm-1 0c0-1.45-.72-2.5-2-2.5-1.3 0-2 1.07-2 2.5s.7 2.5 2 2.5c1.26 0 2-1.07 2-2.5ZM29.5 23c.27 0 .5.2.5.41 0 .24-.2.42-.5.42-.27 0-.5-.18-.5-.42.02-.21.25-.41.5-.41Zm0 8c-.25 0-.5-.18-.5-.4v-5.8c0-.2.25-.37.5-.37s.5.18.5.38v5.78c0 .23-.23.41-.5.41ZM35 24.5c0 .23-.18.5-.39.5-1.07 0-1.61.78-1.61 2v3.58c0 .23-.29.42-.5.42-.21 0-.5-.19-.5-.42v-6.16c0-.23.3-.42.5-.42.21 0 .5.21.5.42v.42c.47-.53.89-.84 1.61-.84.21.02.39.27.39.5ZM38.02 31C36.24 31 35 29.49 35 27.51c0-1.73 1.14-3.51 3.02-3.51 1.74 0 2.98 1.47 2.98 3.49 0 .23-.18.51-.4.51H36c.18 1.32.8 2 2 2 .82 0 1.6-.26 2-1.02.12-.19.35-.25.53-.12.18.12.23.37.14.56A3.04 3.04 0 0 1 38.02 31ZM36 27h4c-.14-1.37-.82-2-2-2-1.2 0-1.84.65-2 2ZM47 27v3.58c0 .23-.31.42-.5.42-.2 0-.5-.19-.5-.42V27c0-1.26-.46-2-1.44-2-1.05 0-1.56.8-1.56 2v3.58c0 .23-.3.42-.5.42s-.5-.19-.5-.42v-6.16c0-.23.31-.42.5-.42.2 0 .5.21.5.42v.46c.47-.54.85-.88 1.56-.88C46.5 24 47 25.56 47 27ZM51.85 29.63c.2.15.2.41.04.6-.35.4-.83.77-1.33.77-.97 0-1.56-.78-1.56-1.73V25h-.59c-.24 0-.41-.26-.41-.5s.2-.5.41-.5H49v-1.57c0-.24.26-.43.5-.43s.5.2.5.43V24h1.52c.24 0 .48.28.48.5 0 .24-.24.5-.48.5H50v4.3c0 .47.09.7.56.7.27 0 .5-.1.66-.3.2-.2.45-.24.63-.07ZM9 31.23A4.19 4.19 0 0 1 4.86 28H5.9l-1.65-2.6-.02.05c-.16.46-.24.93-.24 1.45v.38c0 .08 0 .14.02.22v.04a5.02 5.02 0 0 0 9.32 1.96l-.48-.75A4.23 4.23 0 0 1 9 31.23ZM14 27c0-.14 0-.3-.02-.44v-.02a5 5 0 0 0-9.36-1.98l.48.75A4.25 4.25 0 0 1 9 22.75 4.2 4.2 0 0 1 13.16 26h-1.1l1.66 2.67c.16-.42.24-.88.28-1.35V27Z" fill="#FFFCFF"/></svg>