<!-- by TradeStack --><svg width="56" height="56" viewBox="0 0 56 56" xmlns="http://www.w3.org/2000/svg"><path fill="#F0F3FA" d="M0 0h56v56H0z"/><path d="M14.79 17.66c-2.34-.04-4.18.6-4.68 2.28-1.05 3.47 5.72 7.19 8.9 8.96.7.38.99.14.55-.37-2.01-2.34-4.88-6.97-.83-9.68.2-.13.43-.28.65-.4l.06-.05h-.06a18.8 18.8 0 0 0-4.6-.74Zm21.76 9.27c-.35-.07-.44.15-.11.53 2.01 2.35 4.88 6.97.83 9.69l-.64.4-.07.05h.07c4.25 1.18 8.45 1.14 9.26-1.55 1.05-3.46-5.72-7.18-8.9-8.95-.18-.1-.33-.15-.44-.17Z" fill="#F67200"/><path d="M34.24 15c-9.45 0-14.8 3.4-14.8 3.4 6.27 1.2 18.68 7.58 22.66 7.58 1.55 0 2.3-1.52 2.3-3.33 0-2.12-.75-4.42-2.12-5.79-1.3-1.3-4.38-1.86-8.04-1.86ZM13.9 30.01c-1.55 0-2.3 1.53-2.3 3.34 0 2.12.75 4.42 2.12 5.78 1.3 1.3 4.39 1.87 8.05 1.87 9.44 0 14.8-3.4 14.8-3.4C30.28 36.4 17.87 30 13.9 30Z" fill="#DE1823"/></svg>