<!-- by TradeStack --><svg width="56" height="56" viewBox="0 0 56 56" fill="none" xmlns="http://www.w3.org/2000/svg">
<rect width="56" height="56" fill="#F0F3FA"/>
<path d="M34.3159 22.31C34.1333 22.5562 33.9068 22.7572 33.6366 22.9129C33.3439 22.5588 33.0321 22.2239 32.7012 21.908C30.6003 19.8971 27.4741 19.6478 24.8959 20.7437C21.7361 22.0854 20.0518 25.0742 20.109 28.4572C20.1592 31.4071 20.2063 34.3574 20.2505 37.3081L20.246 37.8852C20.2453 37.9234 20.2322 37.9559 20.2067 37.9829L19.9979 38.2063L17.1828 41.0133C17.1461 41.0492 17.1083 41.0503 17.0693 41.0166C13.192 37.6786 10.8956 32.8955 10.9989 27.7364C11.2976 12.7068 29.5448 5.31215 40.1887 16.1627C40.2187 16.1942 40.225 16.2301 40.2078 16.2705C40.1599 16.3813 40.0847 16.4891 39.9821 16.5939C38.1039 18.5026 36.2151 20.408 34.3159 22.31ZM30.5003 12.0679C29.319 11.8905 27.8963 11.8164 26.6982 11.9343C26.6638 11.9381 26.6484 11.9568 26.6522 11.9905L27.4606 19.0999C27.4651 19.1396 27.4872 19.1598 27.5269 19.1605L29.1753 19.2167C29.2053 19.2182 29.2232 19.204 29.2292 19.174L30.5452 12.1308C30.552 12.0941 30.537 12.0732 30.5003 12.0679ZM24.942 19.6984L26.5309 19.2672C26.5638 19.2582 26.5784 19.2369 26.5747 19.2032L25.7493 12.0769C25.7456 12.0485 25.7295 12.0365 25.7011 12.041C24.4374 12.2274 23.212 12.556 22.0247 13.0268C22.0177 13.0295 22.0113 13.0336 22.006 13.0388C22.0006 13.0441 21.9964 13.0504 21.9935 13.0573C21.9907 13.0642 21.9893 13.0717 21.9895 13.0792C21.9896 13.0867 21.9913 13.0941 21.9944 13.1009L24.86 19.6591C24.8757 19.6957 24.9031 19.7088 24.942 19.6984ZM31.7007 20.0026C31.7083 20.0058 31.7169 20.0059 31.7246 20.003C31.7323 20 31.7386 19.9943 31.7423 19.9869L35.0997 13.5927C35.1177 13.5582 35.1091 13.5324 35.0739 13.5152C33.9315 12.9628 32.7416 12.5436 31.5042 12.2577C31.4645 12.2487 31.441 12.2644 31.4335 12.3048L30.1084 19.3469C30.104 19.3724 30.1137 19.39 30.1376 19.3997L31.7007 20.0026ZM17.8644 15.5418L22.5356 20.9503C22.5618 20.981 22.5921 20.9854 22.6266 20.9637L24.0212 20.0925C24.0467 20.0767 24.0534 20.0554 24.0414 20.0285L21.1634 13.4613C21.1462 13.4231 21.1193 13.413 21.0826 13.431C19.9387 13.9894 18.8686 14.6642 17.8722 15.4554C17.84 15.4808 17.8374 15.5096 17.8644 15.5418ZM32.5339 20.5225L33.7085 21.5611C33.7377 21.5865 33.7661 21.5858 33.7938 21.5588L39.0198 16.3323C39.0535 16.2993 39.0527 16.2668 39.0175 16.2346C38.0893 15.3775 37.079 14.6312 35.9868 13.9957C35.9486 13.9733 35.9194 13.9819 35.8992 14.0216L32.5182 20.4394C32.5017 20.4708 32.507 20.4985 32.5339 20.5225ZM14.6551 19.0999L20.7143 22.8893C20.7397 22.9058 20.7626 22.9024 20.7828 22.8792L21.8551 21.6194C21.8776 21.594 21.8776 21.5682 21.8551 21.542L17.1715 16.1234C17.1666 16.1177 17.1606 16.113 17.1538 16.1097C17.147 16.1063 17.1396 16.1044 17.1321 16.104C17.1245 16.1035 17.1169 16.1046 17.1098 16.1072C17.1027 16.1098 17.0962 16.1138 17.0907 16.1189C16.1706 16.9895 15.3509 17.9453 14.6315 18.9865C14.5993 19.0329 14.6072 19.0707 14.6551 19.0999ZM14.1846 19.8735C14.133 19.8406 14.0918 19.8507 14.0611 19.9038C13.4285 20.9967 12.9292 22.1475 12.5631 23.3564C12.5504 23.3998 12.5658 23.4271 12.6092 23.4383L19.5296 25.2719C19.5603 25.2801 19.582 25.2696 19.5947 25.2404L20.2494 23.728C20.2636 23.6958 20.2558 23.6704 20.2258 23.6517L14.1846 19.8735ZM12.306 24.3602C12.0365 25.4739 11.7962 26.947 11.8894 28.1001C11.8946 28.1653 11.9302 28.1967 11.9961 28.1945L19.1052 27.9048C19.1314 27.9033 19.146 27.8894 19.1489 27.8632L19.332 26.2094C19.3336 26.1935 19.3295 26.1775 19.3205 26.1644C19.3114 26.1512 19.298 26.1417 19.2826 26.1375L12.3824 24.3152C12.3412 24.304 12.3157 24.319 12.306 24.3602ZM19.1209 28.8052L11.9916 29.0927C11.9437 29.0942 11.9216 29.1189 11.9253 29.1668C12.0234 30.4385 12.2611 31.6841 12.6384 32.9034C12.6474 32.9326 12.6661 32.9423 12.6945 32.9326L19.1557 30.6545C19.1969 30.6402 19.2171 30.6111 19.2163 30.5669L19.1759 28.8569C19.1751 28.821 19.1568 28.8037 19.1209 28.8052ZM19.2713 33.8802L19.2399 31.6594C19.2392 31.6092 19.2148 31.5924 19.1669 31.6088L13.0123 33.7814C13.0054 33.7839 12.999 33.7878 12.9936 33.7928C12.9882 33.7977 12.9839 33.8038 12.9808 33.8105C12.9778 33.8172 12.9761 33.8244 12.976 33.8318C12.9758 33.8391 12.9771 33.8464 12.9797 33.8533C13.4454 35.0427 14.0435 36.1621 14.7741 37.2115C14.7958 37.243 14.822 37.2471 14.8527 37.2239L19.2231 33.9768C19.256 33.9528 19.2721 33.9206 19.2713 33.8802ZM15.3906 38.0255C15.86 38.6554 16.4439 39.2875 17.0222 39.813C17.0381 39.8272 17.0588 39.8348 17.0801 39.8342C17.1014 39.8336 17.1217 39.8248 17.1367 39.8096L19.2781 37.6741C19.3125 37.6397 19.3294 37.5985 19.3286 37.5506L19.2949 35.1546C19.2942 35.0872 19.2669 35.0737 19.213 35.1142L15.403 37.9413C15.3708 37.9653 15.3667 37.9933 15.3906 38.0255Z" fill="#C53831"/>
<path d="M20.2503 38V36.9989L23.455 37C23.4924 37.0007 23.5243 37.0176 23.5505 36.9899L25.7165 35.0019C25.742 34.9757 25.7472 34.9457 25.7323 34.9121L23.7065 30.4411C23.6908 30.4075 23.6998 30.3828 23.7335 30.367L24.4533 30.0392C24.4802 30.0272 24.5001 30.0347 24.5128 30.0616L27.7737 36.8771C27.7901 36.9129 27.8163 36.9433 27.8494 36.9646C27.8824 36.9859 27.9209 36.9972 27.9601 36.9972H40.5259L37.7779 31.0737C37.7615 31.037 37.7334 31 37.6937 31H34.8218C34.7821 31 34.7544 30.982 34.7387 30.9461L32.3199 26.0449C32.3035 26.0082 32.275 26.0007 32.2346 26H28.7794C28.7499 26.0005 28.7272 26.0178 28.739 26.0449L29.4229 27.5754C29.4408 27.615 29.4296 27.6439 29.3892 27.6618L28.6975 27.9751C28.6548 27.9938 28.6237 27.9818 28.6043 27.9392L27.3028 25.0648C27.2849 25.0244 27.298 25.0042 27.3421 25.0042H32.8297C32.8672 25.0042 32.8938 25.0214 32.9095 25.0559L35.2846 29.9291C35.3011 29.9658 35.3295 30 35.3699 30H37.3077C37.3519 30 37.3646 29.9798 37.3459 29.9393C36.4352 27.934 35.1601 24.9238 33.6363 22.9129C33.9066 22.7572 34.133 22.5562 34.3157 22.31C35.2305 23.5832 36.0072 24.9197 36.6457 26.3194C38.25 29.839 39.8497 33.3593 41.445 36.8803C41.4467 36.8842 41.4494 36.8876 41.4529 36.8901C41.4564 36.8926 41.4605 36.8941 41.4647 36.8945C41.469 36.8948 41.4733 36.894 41.4771 36.8921C41.481 36.8902 41.4842 36.8873 41.4865 36.8837C45.1831 31.1676 44.99 23.9458 41.0059 18.4319C40.9782 18.3944 40.9835 18.3626 41.0216 18.3364L41.6067 17.9311C41.6441 17.9057 41.6763 17.9113 41.7032 17.9479C43.8397 20.9106 44.9364 24.2015 44.9933 27.8206C45.118 35.753 39.4563 42.9501 31.6758 44.5949C27.122 45.5575 22.8438 44.8045 18.841 42.3359C18.7924 42.306 18.7826 42.2667 18.8118 42.218L19.1712 41.6218C19.1759 41.6136 19.1824 41.6064 19.19 41.6008C19.1977 41.5951 19.2065 41.5911 19.2158 41.5889C19.2251 41.5867 19.2348 41.5864 19.2443 41.588C19.2538 41.5896 19.2629 41.5931 19.2711 41.5982C26.3049 46.0153 35.0866 44.3549 40.5259 38.1729C40.6277 38.0576 40.6019 38 40.4484 38H27.3234C27.295 38 27.2671 37.9918 27.2432 37.9762C27.2193 37.9607 27.2004 37.9385 27.1887 37.9124L26.2185 35.9686C26.211 35.9519 26.1996 35.9374 26.1851 35.9263C26.1706 35.9151 26.1536 35.9077 26.1355 35.9047C26.1174 35.9017 26.0989 35.9032 26.0814 35.9091C26.0639 35.9149 26.0482 35.925 26.0354 35.9383L23.9424 37.9691C23.9162 37.9968 23.884 38 23.8458 38H20.2503Z" fill="#3A312B"/>
</svg>
