<?xml version='1.0' encoding='utf-8'?>
<!-- by TradeStack -->
<svg width="56" height="56" viewBox="0 0 56 56" xmlns="http://www.w3.org/2000/svg"><path fill="#F0F3FA" d="M0 0h56v56H0z" /><path d="M6 25v1c-.3 0-1 .33-1 .75 0 .67.33.75 1 .75h1.5c.84 0 1.5.9 1.5 1.75C9 30.46 8.21 31 7 31v-1c.67 0 1-.08 1-.75 0-.3-.2-.75-.5-.75H6c-1.21 0-2-.54-2-1.75C4 25.7 5.1 25 6 25Z" fill="url(#afwbl02b5)" /><path d="M10 29v-4l1 1v3c0 .58.42 1 1 1 .58 0 1-.42 1-1v-1h1v1c0 1.13-.87 2-2 2s-2-.87-2-2Z" fill="url(#bfwbl02b5)" /><path d="M17.5 26H16l-1-1h2.5c1.13 0 2 .87 2 2s-.87 2-2 2H16v2h-1v-3h2.5c.58 0 1-.42 1-1 0-.58-.42-1-1-1Z" fill="url(#cfwbl02b5)" /><path d="M24 25h-4l1 1h3v-1Z" fill="url(#dfwbl02b5)" /><path d="M21 28.5v-1h3v1h-3Z" fill="url(#efwbl02b5)" /><path d="m21 30-1 1h4v-1h-3Z" fill="url(#ffwbl02b5)" /><path d="M25.5 26h2c.58 0 1 .42 1 1 0 .58-.42 1-1 1h-.86l1.71 3h1.15l-1.22-2.15A1.94 1.94 0 0 0 29.5 27c0-1.13-.87-2-2-2H25l.5 1Z" fill="#5C3780" /><path d="M30 26.32 35 31v-6h-1v3.74L30 25v1.32Z" fill="url(#gfwbl02b5)" /><path fill-rule="evenodd" d="M39 30a2 2 0 1 0 0-4 2 2 0 0 0 0 4Zm0 1a3 3 0 1 0 0-6 3 3 0 0 0 0 6Z" fill="url(#hfwbl02b5)" /><path d="M43 25h-1l3 6 .5-1-2.5-5Z" fill="url(#ifwbl02b5)" /><path d="M46 31h1l2-4 1 2h1l-2-4-3 6Z" fill="url(#jfwbl02b5)" /><path d="M51.5 30h-1l.5 1h1l-.5-1Z" fill="url(#kfwbl02b5)" /><defs><linearGradient id="afwbl02b5" x1="5" y1="26" x2="6.5" y2="31" gradientUnits="userSpaceOnUse"><stop stop-color="#543B98" /><stop offset="1" stop-color="#9B5199" /></linearGradient><linearGradient id="bfwbl02b5" x1="10" y1="25" x2="12" y2="31" gradientUnits="userSpaceOnUse"><stop stop-color="#7C489C" /><stop offset="1" stop-color="#A54D9D" /></linearGradient><linearGradient id="cfwbl02b5" x1="17.25" y1="25" x2="17.25" y2="31" gradientUnits="userSpaceOnUse"><stop stop-color="#663281" /><stop offset="1" stop-color="#AA499A" /><stop offset="1" stop-opacity="0" /></linearGradient><linearGradient id="dfwbl02b5" x1="23" y1="26.5" x2="20.5" y2="31" gradientUnits="userSpaceOnUse"><stop stop-color="#592B80" /><stop offset="1" stop-color="#8D4098" /></linearGradient><linearGradient id="efwbl02b5" x1="23" y1="26.5" x2="20.5" y2="31" gradientUnits="userSpaceOnUse"><stop stop-color="#592B80" /><stop offset="1" stop-color="#8D4098" /></linearGradient><linearGradient id="ffwbl02b5" x1="23" y1="26.5" x2="20.5" y2="31" gradientUnits="userSpaceOnUse"><stop stop-color="#592B80" /><stop offset="1" stop-color="#8D4098" /></linearGradient><linearGradient id="gfwbl02b5" x1="30" y1="26" x2="35" y2="29" gradientUnits="userSpaceOnUse"><stop stop-color="#4E3673" /><stop offset="1" stop-color="#464B9D" /></linearGradient><linearGradient id="hfwbl02b5" x1="39.5" y1="25" x2="37.5" y2="31" gradientUnits="userSpaceOnUse"><stop stop-color="#66A0CA" /><stop offset="1" stop-color="#4E51A2" /></linearGradient><linearGradient id="ifwbl02b5" x1="43.75" y1="25" x2="45.5" y2="31" gradientUnits="userSpaceOnUse"><stop stop-color="#6BA1BC" /><stop offset="1" stop-color="#525392" /></linearGradient><linearGradient id="jfwbl02b5" x1="47.5" y1="28" x2="51" y2="31" gradientUnits="userSpaceOnUse"><stop stop-color="#555098" /><stop offset="1" stop-color="#6145B0" /></linearGradient><linearGradient id="kfwbl02b5" x1="47.5" y1="28" x2="51" y2="31" gradientUnits="userSpaceOnUse"><stop stop-color="#555098" /><stop offset="1" stop-color="#6145B0" /></linearGradient></defs></svg>