<?xml version='1.0' encoding='utf-8'?>
<!-- by TradeStack -->
<svg width="56" height="56" viewBox="0 0 56 56" xmlns="http://www.w3.org/2000/svg"><path fill="#F0F3FA" d="M0 0h56v56H0z" /><path d="M15.87 24H4l7.07 10 10.8-1.7-1.65-2.3h-.27l.38.52-2.18.28-.54-.8h-.26l.55.83-2.34.3-.8-1.13h-.28l.83 1.15-2.35.3-1.25-1.67.29-.03v-.24l-.46.05-1.22-1.65L12 27.8v-.24l-1.85.14-1.22-1.65 2.62-.12.45.63v-.38l-.2-.26 2.7-.13.16.22h.26l-.16-.23 2.05-.1.24.33h.27l-1.45-2ZM5.66 25.96l-1.22-1.72H7.3l1.18 1.59-2.83.13Zm3.1-.15-1.18-1.57h2.76l1.04 1.45-2.63.12Zm2.88-.13-1.03-1.44h2.86l.88 1.3-2.7.14Zm2.97-.15-.87-1.3h2.03l.87 1.2-2.03.1Zm3.68 5.49 2.2-.28.99 1.38-2.21.35-.98-1.45Zm-.24.03.98 1.46-2.22.35-1.09-1.52 2.33-.29Zm-2.58.32 1.1 1.52-2.27.36-1.18-1.58 2.35-.3Zm-2.6.33 1.18 1.59-2.89.46-1.19-1.69 2.9-.36Zm-.16-.22-2.9.36-1.2-1.71 2.85-.32 1.25 1.67Zm-1.42-1.9-2.84.33-1.25-1.76 2.86-.22 1.23 1.66Zm-1.4-1.87-2.85.21-1.22-1.73 2.84-.13L9.9 27.7Z" fill="url(#an2o1fi1v)" /><path d="M13.16 27.11a.37.37 0 0 1 .25-.11h1.45v.29h-1.45a.2.2 0 0 0-.13.05c-.04.04-.07.1-.07.23s.03.2.07.23c.04.04.1.06.13.06h1.04c.07 0 .17.02.25.11.1.1.16.24.16.46 0 .22-.06.37-.16.46a.37.37 0 0 1-.25.11H13v-.29h1.45a.2.2 0 0 0 .13-.05c.04-.04.08-.1.08-.23s-.04-.2-.08-.23a.2.2 0 0 0-.13-.06h-1.04a.37.37 0 0 1-.25-.11c-.1-.1-.16-.24-.16-.46 0-.22.07-.37.16-.46ZM15.49 27h1.34c.08 0 .18.04.27.15.09.12.15.3.15.56 0 .26-.06.45-.15.56-.09.12-.2.16-.27.16H15.7V29h-.2v-2Zm.2 1.14h1.14c.03 0 .08-.01.13-.07.04-.06.08-.16.08-.36 0-.2-.04-.3-.08-.35-.05-.06-.1-.07-.13-.07H15.7v.85ZM19.42 27h-1.45v2h1.45v-.29h-1.24v-.57h1.24v-.28h-1.24v-.57h1.24V27ZM20.37 27.08a.28.28 0 0 1 .2-.08h1.34v.29h-1.35a.1.1 0 0 0-.07.03c-.01.01-.03.04-.03.1v1.15c0 .03 0 .07.02.1.01.02.03.04.08.04h1.35V29h-1.35c-.11 0-.2-.07-.25-.17a.6.6 0 0 1-.06-.26v-1.14c0-.16.05-.28.12-.35ZM22.53 27.29h.83V29h.2v-1.71h.83V27h-1.86v.29ZM27.42 27.08a.28.28 0 0 1 .19-.08h1.34v.29h-1.34a.1.1 0 0 0-.07.03c-.02.01-.04.04-.04.1v1.15c0 .03 0 .07.02.1.02.02.04.04.09.04h1.34V29h-1.34c-.12 0-.2-.07-.25-.17a.6.6 0 0 1-.07-.26v-1.14c0-.16.06-.28.13-.35ZM29.57 27v1.57c0 .07.02.17.06.26.05.1.14.17.25.17h1.45c.07 0 .15-.02.21-.09.07-.08.1-.2.1-.34V27h-.2v1.57c0 .08-.02.1-.03.12-.01.01-.03.02-.08.02h-1.45c-.04 0-.07-.02-.08-.04a.23.23 0 0 1-.02-.1V27h-.2ZM32.27 27h.2v1.71h1.25V29h-1.45v-2ZM38.59 27h-1.35v2h.2v-.86h.88l.42.86h.25l-.42-.86h.02c.06 0 .16-.02.25-.11.1-.1.16-.24.16-.46 0-.22-.07-.37-.16-.46a.37.37 0 0 0-.25-.11Zm0 .86h-1.14v-.57h1.14a.2.2 0 0 1 .13.05c.04.04.07.1.07.23s-.03.2-.07.23a.2.2 0 0 1-.13.06ZM35.48 27l-1.04 2h.2l.84-1.57.83 1.57h.2l-1.03-2ZM24.6 29l1.04-2 1.03 2h-.2l-.83-1.57L24.8 29h-.2Z" /><path d="M40.16 27.11a.37.37 0 0 1 .25-.11h1.66v.29H40.4a.2.2 0 0 0-.13.05c-.04.04-.07.1-.07.23s.03.2.07.23c.04.04.1.06.13.06h1.25c.06 0 .16.02.25.11.1.1.16.24.16.46 0 .22-.07.37-.16.46a.37.37 0 0 1-.25.11H40v-.29h1.66a.2.2 0 0 0 .13-.05c.04-.04.07-.1.07-.23s-.03-.2-.07-.23a.2.2 0 0 0-.13-.06H40.4a.37.37 0 0 1-.25-.11c-.1-.1-.16-.24-.16-.46 0-.22.07-.37.16-.46ZM42.75 27.17c.05-.1.13-.17.25-.17h1.45c.05 0 .12.02.19.08.07.07.12.19.12.35v1.14a.6.6 0 0 1-.06.26c-.05.1-.14.17-.25.17H43a.28.28 0 0 1-.19-.08.47.47 0 0 1-.12-.35v-1.14a.6.6 0 0 1 .06-.26Zm.17.16a.23.23 0 0 0-.02.1v1.14c0 .07.01.1.03.11a.1.1 0 0 0 .07.03h1.45c.05 0 .07-.02.08-.04a.23.23 0 0 0 .02-.1v-1.14c0-.07-.02-.1-.03-.11a.1.1 0 0 0-.07-.03H43c-.05 0-.07.02-.08.04ZM45.59 27h-.21v2h1.45v-.29h-1.24V27ZM50.34 27h1.25c.06 0 .16.03.25.11.1.1.16.24.16.46 0 .21-.05.36-.14.46a.36.36 0 0 1-.27.11h-.02L52 29h-.25l-.42-.86h-.77V29h-.2v-2Zm.21.86h1.04a.2.2 0 0 0 .14-.06c.03-.03.06-.1.06-.23 0-.12-.03-.19-.07-.23a.2.2 0 0 0-.13-.05h-1.04v.57ZM47.45 29l1.03-2 1.04 2h-.21l-.83-1.57-.82 1.57h-.21Z" fill="#4799BB" /><defs><linearGradient id="an2o1fi1v" x1="7.25" y1="28.52" x2="17.54" y2="27.23" gradientUnits="userSpaceOnUse"><stop stop-color="#6AB2CA" /><stop offset="1" stop-color="#0D0A35" /></linearGradient></defs></svg>