<!-- by TradeStack --><svg width="56" height="56" viewBox="0 0 56 56" xmlns="http://www.w3.org/2000/svg"><path fill="#F0F3FA" d="M0 0h56v56H0z"/><path d="M44.5 25H43v1.5h-.5V28h.5v3h1.5v-3h1v-1.5h-1V25Z"/><path d="M26.75 24.99a3 3 0 1 0-.5 0V31h.5v-6.01ZM28 21a.5.5 0 1 1-1 0 .5.5 0 0 1 1 0Z" fill="#FF5800"/><path d="M6.66 31c-.5 0-.95-.07-1.35-.22-.39-.14-.7-.34-.93-.59a1.45 1.45 0 0 1-.38-.85h1.75c.02.16.11.3.28.4.16.11.37.16.61.16a1 1 0 0 0 .5-.1c.13-.08.2-.17.2-.29 0-.14-.1-.24-.27-.3a5.46 5.46 0 0 0-.83-.23 9.79 9.79 0 0 1-1.04-.25c-.28-.1-.51-.24-.71-.43-.2-.2-.3-.46-.3-.8 0-.27.09-.52.27-.75.18-.23.45-.42.8-.55.36-.13.79-.2 1.28-.2.72 0 1.29.15 1.7.45.43.3.67.7.73 1.2H7.33a.57.57 0 0 0-.27-.4c-.14-.1-.33-.14-.58-.14a.9.9 0 0 0-.47.1c-.11.06-.17.15-.17.27 0 .14.09.24.26.31.18.07.46.14.83.21.43.1.78.19 1.05.28.26.09.5.23.7.44.2.2.31.46.32.8 0 .28-.1.54-.29.77-.19.22-.46.4-.82.52-.35.13-.76.19-1.23.19ZM11.5 26.72c.28-.43.74-.72 1.41-.72 1.32 0 2.09 1.18 2.09 2.4 0 1.23-.76 2.43-2.09 2.43-.65 0-1.12-.3-1.41-.73V33H10v-7h1.5v.72Zm2.02 1.69c0-.61-.4-1.16-1.04-1.16-.65 0-.98.55-.98 1.16 0 .6.33 1.17.98 1.17.65 0 1.04-.56 1.04-1.17ZM20.5 28.42c0 .14 0 .29-.03.44h-3.45c.02.3.12.53.3.7.17.15.39.23.64.23.39 0 .65-.16.8-.47h1.62a2.21 2.21 0 0 1-1.27 1.46c-.32.15-.69.22-1.1.22-.48 0-.91-.1-1.3-.3a2.2 2.2 0 0 1-.89-.88 2.64 2.64 0 0 1-.32-1.32c0-.5.1-.95.31-1.32.22-.38.51-.67.9-.88.38-.2.81-.3 1.3-.3s.92.1 1.3.3c.37.2.66.48.87.84.21.37.32.8.32 1.28Zm-1.56-.39a.76.76 0 0 0-.27-.61 1 1 0 0 0-.67-.23 1 1 0 0 0-.65.22.97.97 0 0 0-.32.62h1.9ZM21 28.5c0-1.48 1.1-2.5 2.55-2.5 1.18 0 2.18.66 2.45 1.83h-1.66a.8.8 0 0 0-.81-.56c-.57 0-.94.43-.94 1.23 0 .78.36 1.23.94 1.23a.8.8 0 0 0 .8-.56H26c-.27 1.16-1.28 1.83-2.45 1.83C22.1 31 21 29.98 21 28.5ZM34.5 28.5c0-1.48 1.1-2.5 2.55-2.5 1.18 0 2.18.66 2.45 1.83h-1.66a.8.8 0 0 0-.81-.56c-.57 0-.94.43-.94 1.23 0 .78.36 1.23.94 1.23a.8.8 0 0 0 .8-.56h1.67c-.27 1.16-1.28 1.83-2.45 1.83-1.46 0-2.55-1.02-2.55-2.5ZM42 26h-1.5v5H42v-5ZM29 26.5h-1V28h1v3h1.5v-3h1v-1.5h-1v-1c0-.33.2-1 1-1s1 .67 1 1H34c0-.83-.5-2.5-2.5-2.5S29 24.33 29 25v1.5Z"/><path d="M34 31v-4.5h-1.5V31H34ZM52 26l-3.32 7h-1.74l1.21-2.42L46 26h1.81l1.22 2.97L50.25 26H52ZM42 24.7a.75.75 0 1 1-1.5 0 .75.75 0 0 1 1.5 0Z"/></svg>