<?xml version='1.0' encoding='utf-8'?>
<!-- by TradeStack -->
<svg width="56" height="56" viewBox="0 0 56 56" xmlns="http://www.w3.org/2000/svg"><path fill="#F0F3FA" d="M0 0h56v56H0z" /><path d="M12.73 23.21c1.74.08 3.85-.18 5.92-1.08.4 1.58.97 3.2 1.76 4.8a19.44 19.44 0 0 1-8.4 1.23L12 28a16 16 0 0 1 .73-4.79Zm.34-.99a16.04 16.04 0 0 1 4.83-6.63c-.04 1.66.1 3.55.52 5.55a12.43 12.43 0 0 1-5.35 1.08Zm5.86-7.4c-.1 1.68-.01 3.7.42 5.84 2.47-1.41 4.78-3.98 5.96-8.43-2.34.4-4.5 1.3-6.38 2.59Zm7.45-2.74c-1.25 5.1-3.9 8.04-6.81 9.6.39 1.6.96 3.23 1.76 4.85.37-.18.74-.37 1.1-.59 3.8-2.22 6.91-6.39 7.06-13.87a16.19 16.19 0 0 0-3.11.01Zm4.11.11c-.18 7.74-3.44 12.21-7.55 14.62-.38.22-.76.42-1.15.6a21.88 21.88 0 0 0 3.84 5.05c.27-.14.54-.3.8-.45 4.55-2.77 8.3-8.25 8.56-18.4-1.4-.69-2.91-1.17-4.5-1.42Zm5.48 1.93c-.37 10.11-4.2 15.8-9.02 18.74l-.54.32a22.93 22.93 0 0 0 4.5 3.08l.22-.2c4.48-3.8 8.23-9.73 8.82-18.7a16.07 16.07 0 0 0-3.98-3.24Zm4.9 4.37c-.82 8.58-4.53 14.43-9 18.25a30.58 30.58 0 0 0 7.63 2.38 15.95 15.95 0 0 0 1.37-20.63ZM38.6 39.97a30.81 30.81 0 0 1-7.58-2.53 27.43 27.43 0 0 1-10.04 4.95 15.94 15.94 0 0 0 17.62-2.41Zm-18.94 1.7c3.08-.64 6.9-2.1 10.38-4.74a23.7 23.7 0 0 1-4.59-3.26 20.95 20.95 0 0 1-11.68 1.66c1.35 2.62 3.4 4.8 5.9 6.34Zm-6.4-7.43c3.27.56 7.54.44 11.41-1.31a22.37 22.37 0 0 1-3.8-5.1 20.39 20.39 0 0 1-8.84 1.34c.13 1.79.55 3.5 1.22 5.07Z" fill="url(#atx45kzvh)" /><defs><linearGradient id="atx45kzvh" x1="36" y1="14.5" x2="19" y2="41.5" gradientUnits="userSpaceOnUse"><stop stop-color="#0CC500" /><stop offset="1" stop-color="#0D8604" /></linearGradient></defs></svg>