<!-- by TradeStack --><svg width="56" height="56" viewBox="0 0 56 56" xmlns="http://www.w3.org/2000/svg"><path fill="#F0F3FA" d="M0 0h56v56H0z"/><path d="M10 32h.7v1.01c.35-.73 1.1-1.01 1.88-1 .54-.01 1.12.2 1.43.66.11.15.19.32.23.5.15-.37.42-.68.76-.88.33-.19.7-.29 1.08-.29 1.28 0 1.92.68 1.92 2.04V38h-.7v-3.91c0-.9-.44-1.39-1.38-1.39-1.15 0-1.57 1.02-1.56 2V38h-.7v-3.95c0-.73-.39-1.35-1.22-1.35-1.18 0-1.75 1-1.74 2.06V38H10v-6ZM21.53 37.3c-1.13 0-1.73-.9-1.73-2H24c0-1.88-.71-3.3-2.47-3.3-1.76 0-2.54 1.43-2.53 3-.01 1.6.86 3 2.53 3 1.22 0 2.15-.75 2.42-2h-.74c-.23.84-.83 1.3-1.68 1.3Zm-.01-4.6c1.02-.02 1.63.88 1.67 1.9H19.8c.08-1 .69-1.92 1.72-1.9ZM31.3 30h.7v1h-.7v-1Zm0 2h.7v6h-.7v-6ZM35.67 32.7c.84-.05 1.45.48 1.6 1.3H38a2.28 2.28 0 0 0-2.32-2C34 32 33 33.22 33 35c0 1.79 1.04 3 2.67 3 1.19 0 2.1-.88 2.33-1.97h-.76c-.19.7-.77 1.27-1.57 1.27-1.27 0-1.97-1.17-1.97-2.3 0-1.23.7-2.33 1.97-2.3ZM38.75 33.9c.07-1.25 1-1.9 2.22-1.9 1.13 0 2.03.64 2.03 1.83V37c0 .28.2.3.3.3.1 0 .24-.05.3-.17v.77a.8.8 0 0 1-.44.1c-.61 0-.86-.47-.86-.99a2.3 2.3 0 0 1-1.96.99c-.99 0-1.84-.58-1.84-1.66s.96-1.61 1.88-1.73l1.07-.13c.5-.05.85-.13.85-.73 0-.84-.76-1.05-1.43-1.05-.73 0-1.4.38-1.42 1.21h-.7Zm3.55.89c-.12.18-.37.22-.57.25-.79.15-2.53.02-2.53 1.26 0 .66.58 1 1.2 1 1 0 1.92-.61 1.9-1.66v-.85ZM44.3 30h.7v8h-.7v-8ZM7.79 28a3.4 3.4 0 0 1-2.04-.54c-.47-.34-.76-.9-.75-1.47l1.6.01c0 .58.34 1 1.19 1 .63 0 1.11-.27 1.11-.77 0-.35-.44-.53-.75-.62-1.07-.34-2.98-.5-2.98-1.88 0-1.28 1.4-1.73 2.62-1.73 1.25 0 2.54.45 2.54 2H8.8c0-.7-.52-1-1.05-1-.6 0-.97.22-.97.57 0 .3.33.49.61.57.96.32 2.27.28 2.9 1.12.16.23.22.5.22.76 0 .65-.24 1.14-.73 1.48-.49.33-1.15.5-1.98.5ZM14.37 28c-.53 0-1.06-.1-1.53-.34-.48-.23-.87-.6-1.12-1.04a3.18 3.18 0 0 1-.42-1.61 3 3 0 0 1 3.06-3c1.75-.04 2.94 1.4 2.94 3.08l-.01.3h-4.4c.04.88.42 1.61 1.53 1.61a1.4 1.4 0 0 0 1.37-1h1.37a2.7 2.7 0 0 1-2.79 2Zm-.05-5c-.7 0-1.42.58-1.42 1.39h2.8A1.4 1.4 0 0 0 14.32 23ZM22.4 27.23c-.34.57-1.16.77-1.76.77-1.61.02-2.64-1.38-2.64-2.89 0-1.75.97-3.11 2.64-3.11.85 0 1.3.2 1.76.72V22H24v8h-1.6v-2.78ZM21 27c1.18 0 1.39-1.14 1.39-2 0-.86-.1-2-1.36-2-1.13 0-1.44 1.03-1.44 2s.32 2 1.41 2ZM27.47 28c-1.65 0-2.07-.97-2.07-2.37V22H27v3.31c0 .74.07 1.69 1.04 1.69.98 0 1.36-.87 1.36-1.9V22H31v6h-1.6v-.84c-.3.5-1.1.84-1.93.84ZM42.53 22c1.65 0 2.07.97 2.07 2.37V28H43v-3.31c0-.74-.07-1.69-1.04-1.69-.98 0-1.36.87-1.36 1.9V28H39v-6h1.6v.84c.3-.5 1.1-.84 1.93-.84ZM34.1 28c-1 0-2.1-.54-2.1-1.7 0-.83.54-1.39 1.32-1.59.67-.17 1.36-.18 2.04-.31.41-.07.64-.2.64-.62 0-.64-.55-.78-.99-.78-.61 0-1 .36-1.01 1h-1.6c.02-1.51 1.29-2 2.61-2 1.6 0 2.59.36 2.59 1.78v2.86c0 1.1.26 1.2.4 1.36h-1.75c-.18-.16-.24-.47-.25-.66-.38.41-1.02.66-1.9.66Zm-.5-1.77c0 .58.42.77 1.05.77.64 0 1.35-.5 1.35-1.25V25c-.14.13-.4.29-.93.34-.51.03-1.47.2-1.47.89ZM47.5 28c-1 0-2.1-.54-2.1-1.7 0-.83.54-1.39 1.32-1.59.68-.17 1.37-.18 2.05-.31.4-.07.63-.2.63-.62 0-.64-.55-.78-.99-.78-.61 0-1 .36-1.01 1h-1.6c.02-1.51 1.3-2 2.61-2 1.6 0 2.59.36 2.59 1.78v2.86c0 1.1.26 1.2.4 1.36h-1.75c-.18-.16-.24-.47-.25-.66-.38.41-1.02.66-1.9.66Zm-.5-1.77c0 .58.42.77 1.06.77.63 0 1.34-.5 1.34-1.25V25c-.14.13-.39.29-.93.34-.51.03-1.47.2-1.47.89Z" fill="#015487"/><path fill-rule="evenodd" d="M29.31 38H30v-8h-.69v2.81c-.6-.6-1.21-.81-2.05-.81-1.6 0-2.66 1.44-2.66 3 0 1.53 1 3 2.82 3 1 0 1.78-.63 1.9-.97V38Zm-2-.7c1.06 0 2-.82 2-2.26 0-1.55-.94-2.34-2-2.34s-1.92.92-1.92 2.34c0 1.43.86 2.26 1.92 2.26Z" fill="#015487"/></svg>