<?xml version='1.0' encoding='utf-8'?>
<!-- by TradeStack -->
<svg width="56" height="56" viewBox="0 0 56 56" xmlns="http://www.w3.org/2000/svg"><path fill="#F0F3FA" d="M0 0h56v56H0z" /><circle cx="9" cy="38" r="2" fill="#FF9E16" /><path fill-rule="evenodd" d="M39.53 16c5.85.08 8.44 6 8.47 11 .03 6.62-4.9 12.9-11.91 13-4.52.06-6.9-2.02-8.76-3.65-1.18-1.04-2.15-1.89-3.33-1.88-.75 0-1.55.25-2.5.55-1.4.44-3.12.98-5.5.98-3.5 0-8-2-8-6.62C8 25 11.75 22.02 16.05 22c2.07 0 3.8.7 5.44 1.37 1.37.56 2.67 1.1 4.02 1.13 2.1.05 3.68-1.66 5.42-3.56 2.16-2.35 4.58-5 8.6-4.94ZM22 31h1.46c1.03 0 1.54-.37 1.54-1.11 0-.28-.07-.5-.22-.67a.83.83 0 0 0-.57-.3c.2-.06.36-.18.47-.34.12-.17.18-.37.18-.6 0-.31-.11-.55-.32-.72-.2-.17-.57-.26-1.07-.26H22v4Zm.3-1.9h1.26c.76 0 1.15.25 1.15.77 0 .29-.1.5-.3.64-.2.14-.5.2-.91.2h-1.2V29.1Zm0-1.81h1.19c.38 0 .66.06.82.18.17.12.25.3.25.56a.7.7 0 0 1-.27.58c-.18.13-.42.2-.72.2H22.3V27.3ZM26 31v-4h.32v4H26Zm1.57-3.42c-.38.38-.57.86-.57 1.42a1.96 1.96 0 0 0 2 2c.56 0 1.03-.2 1.42-.57.39-.39.58-.86.58-1.43 0-.58-.2-1.05-.58-1.43A1.94 1.94 0 0 0 29 27c-.56 0-1.04.2-1.43.58Zm.24 2.65c-.33-.33-.5-.74-.5-1.23a1.68 1.68 0 1 1 3.38 0c0 .49-.16.9-.49 1.23-.32.33-.72.5-1.2.5-.47 0-.86-.17-1.2-.5ZM31 27.3V27h3v.29h-1.36V31h-.28v-3.71H31Zm6.94-.29H35v4h3v-.29h-2.68v-1.6h2.45v-.29h-2.45V27.3h2.62V27Zm3.92 3.18.14.2c-.12.18-.29.33-.52.45-.22.11-.47.17-.73.17-.53 0-.96-.18-1.28-.54A2.15 2.15 0 0 1 39 29c0-.58.15-1.05.46-1.43.3-.38.72-.57 1.23-.57.28 0 .53.06.75.17.22.12.4.26.51.43l-.15.2c-.16-.18-.33-.31-.5-.4a1.36 1.36 0 0 0-.63-.12c-.43 0-.78.16-1.03.48-.25.32-.37.73-.37 1.24 0 .52.13.94.4 1.25.28.32.64.47 1.1.47.44 0 .8-.18 1.09-.54Zm3.84.82h.3v-4h-.3v1.71h-2.4V27H43v4h.3v-2h2.4v2Zm-29.05-.87a2 2 0 1 0-.53.53l.35.34.53-.53-.35-.34Zm-.73-.74A1 1 0 0 0 15 28a1 1 0 1 0 .4 1.92l-.4-.4.53-.52.39.4ZM18 27h3v1l-1.8 2H21v1h-3v-1l1.8-2H18v-1Zm-6.54 1.15.46-.61a1.9 1.9 0 0 0-1.38-.54c-.92 0-1.46.62-1.46 1.15 0 .63.68.9 1.26 1.12.43.17.81.31.81.58 0 .23-.3.3-.61.3-.25 0-.77-.3-1-.46l-.54.54c.28.26 1 .77 1.62.77.76 0 1.38-.46 1.38-1.23 0-.69-.74-.97-1.32-1.18-.38-.14-.68-.26-.68-.44 0-.3.3-.38.54-.38.18 0 .7.26.92.38Z" fill="#42C2DC" /></svg>