<!-- by TradeStack --><svg viewBox="0 0 56 56" xmlns="http://www.w3.org/2000/svg"><path fill="#1B5A7D" d="M0 0h56v56H0z"/><path fill-rule="evenodd" d="M17 19h2.5v-2.48c0-1.4-1.07-2.52-2.44-2.52h-1.59A2.5 2.5 0 0 0 13 16.52v1.54c0 .72.28 1.42.78 1.93l2.74 2.84c.25.26.48.6.48.97v1.63c0 .34-.36.62-.7.62-.32 0-.8-.28-.8-.62V22H13v3.48A2.5 2.5 0 0 0 15.47 28h1.84c1.36 0 2.19-1.13 2.19-2.52v-2.03c0-.7-.23-1.37-.7-1.88l-2.73-3.24-.05-.06c-.23-.25-.52-.56-.52-.88V16.3c0-.33.48-.6.8-.6.34 0 .7.27.7.6V19Zm3-5h2.5v2H20v-2Zm0 3h2.5v11H20V17Zm3 2.01A2 2 0 0 1 25 17h.55a2 2 0 0 1 1.45.62V17h2.5v11.03c0 1.09-1.19 1.97-2.3 1.97h-3.6v-1.57h2.22c.5 0 1.18-.4 1.18-.88v-.17a2 2 0 0 1-1.45.62H25A2 2 0 0 1 23 25.99v-6.98Zm3 .39c0-.22.22-.4.5-.4s.5.18.5.4v6.2c0 .22-.22.4-.5.4s-.5-.18-.5-.4v-6.2Zm4 8.6V17h2.5v.6c.35-.31.9-.6 1.63-.6.81 0 1.3.46 1.56 1 .28-.41.93-1 1.99-1 1.5 0 1.82 1.57 1.82 2.28V28H37v-8.88a.44.44 0 0 0-.87-.15l-.13.4v8.6h-2.5v-8.85c0-.25-.24-.46-.49-.46-.19 0-.36.12-.42.31l-.09.25V28H30Zm10-7v-1.54A2.5 2.5 0 0 1 42.48 17h1.12c1.32 0 2.4 1.1 2.4 2.46V28h-2.25v-.32l-.02-.15c-.28.29-.67.47-1.1.47h-1.1c-.85 0-1.53-.7-1.53-1.57V24.5c0-.87.45-1.67 1.17-2.12l2.33-1.42V19.3c0-.3-.19-.54-.48-.54a.53.53 0 0 0-.52.54V21H40Zm3.5 5.07v-2.52c0-.19-.23-.3-.4-.18l-.3.19c-.19.12-.3.32-.3.54v1.97c0 .24.22.45.5.45s.5-.2.5-.45ZM13 43V29h3.94c1.47 0 2.56 1.25 2.56 2.8v1.11c0 1.12-.58 2.09-1.45 2.53.82.41 1.4 1.3 1.4 2.31v3.53c0 .9.37 1.52.55 1.72h-2.83a2.62 2.62 0 0 1-.49-1.31v-4.52c0-.78-.69-.99-1.18-1V43H13Zm4-11.24c0-.59-.67-1.06-1.5-1.06v4c.83 0 1.5-.48 1.5-1.06v-1.88Zm3 2.72C20 33.1 21.21 32 22.71 32h1.58c1.5 0 2.71 1.11 2.71 2.48v6.04C27 41.9 25.79 43 24.29 43h-1.58c-1.5 0-2.71-1.11-2.71-2.48v-6.04Zm3-.53c0-.25.22-.45.5-.45s.5.2.5.45v7.1c0 .25-.22.45-.5.45s-.5-.2-.5-.45v-7.1Zm5 .53C28 33.1 29.21 32 30.71 32h1.58c1.5 0 2.71 1.11 2.71 2.48V36h-3v-2.05c0-.25-.22-.45-.5-.45s-.5.2-.5.45v7.1c0 .25.22.45.5.45s.5-.2.5-.45V39h3v1.52C35 41.9 33.79 43 32.29 43h-1.58c-1.5 0-2.71-1.11-2.71-2.48v-6.04Z" fill="#FAFFFF"/></svg>