<?xml version='1.0' encoding='utf-8'?>
<!-- by TradeStack -->
<svg width="56" height="56" viewBox="0 0 56 56" xmlns="http://www.w3.org/2000/svg"><path fill="#F0F3FA" d="M0 0h56v56H0z" /><path fill-rule="evenodd" d="M7.38 25.92c.15.11.24.28.26.48h.8c0-.27-.08-.51-.22-.72a1.4 1.4 0 0 0-.57-.5 1.9 1.9 0 0 0-.86-.18c-.31 0-.6.06-.85.18s-.45.29-.6.5c-.15.22-.22.47-.22.75 0 .35.1.63.33.84.21.21.51.37.89.47l.51.14.43.15c.13.06.22.13.29.21.07.08.1.19.1.31 0 .14-.04.27-.11.37a.77.77 0 0 1-.32.24c-.14.06-.3.09-.48.09-.17 0-.32-.03-.46-.09a.78.78 0 0 1-.34-.25.77.77 0 0 1-.15-.42H5c.01.32.1.6.24.82.14.23.35.4.6.51.27.12.58.18.93.18.37 0 .68-.06.93-.18.26-.12.46-.3.6-.5.13-.22.2-.47.2-.76 0-.2-.04-.4-.11-.55a1.21 1.21 0 0 0-.3-.4c-.13-.11-.27-.2-.43-.27a2.82 2.82 0 0 0-.5-.18l-.43-.11-.28-.09c-.09-.03-.17-.08-.25-.13a.52.52 0 0 1-.24-.45c0-.12.03-.23.1-.33.06-.1.16-.17.28-.22.12-.06.27-.08.44-.08.25 0 .45.05.6.17Zm1.06-.16V25h4v.76h-1.55V30H10v-4.24H8.44Zm8.26 3.09c.2-.38.3-.83.3-1.35 0-.52-.1-.97-.3-1.35A2.09 2.09 0 0 0 14.75 25a2.11 2.11 0 0 0-1.96 1.15c-.2.38-.29.83-.29 1.35 0 .52.1.97.3 1.35A2.13 2.13 0 0 0 14.74 30c.43 0 .81-.1 1.15-.3.34-.2.6-.48.8-.85Zm-.77-2.28c.12.25.18.56.18.93s-.06.68-.18.94a1.3 1.3 0 0 1-.47.57c-.2.13-.44.2-.71.2-.27 0-.5-.07-.7-.2-.2-.13-.37-.32-.49-.57a2.28 2.28 0 0 1-.17-.94c0-.37.06-.68.17-.93.12-.26.28-.45.48-.58.2-.13.44-.2.71-.2.27 0 .5.07.7.2.2.13.37.32.48.58ZM22 25v5h-.78l-2.3-3.4h-.04V30H18v-5h.79l2.29 3.4h.04V25H22Zm1 0v5h3.28v-.76h-2.37v-1.36h2.18v-.76h-2.18v-1.36h2.35V25H23Zm4 5v-5h1.92c.36 0 .66.06.9.17.24.11.42.27.54.46.12.2.18.42.18.67 0 .2-.04.37-.11.52a.99.99 0 0 1-.32.35c-.13.09-.28.15-.44.2v.04c.18 0 .35.06.5.16.17.1.3.24.41.42.1.18.16.4.16.65 0 .26-.06.49-.19.7-.12.2-.31.36-.57.48-.25.12-.57.18-.95.18H27Zm1-.76h.88c.33 0 .57-.06.72-.18a.62.62 0 0 0 .22-.5.75.75 0 0 0-.43-.68c-.13-.07-.3-.1-.48-.1H28v1.46Zm0-2.11h.8c.16 0 .3-.03.43-.09a.66.66 0 0 0 .4-.63c0-.19-.06-.35-.2-.47-.13-.13-.34-.2-.6-.2H28v1.39ZM31.5 25v5h.9v-1.83h.93l.99 1.83h1.01l-1.08-1.98.1-.04c.26-.13.46-.31.6-.55.13-.23.2-.51.2-.83 0-.32-.07-.6-.2-.84a1.37 1.37 0 0 0-.6-.56c-.26-.13-.59-.2-.97-.2H31.5Zm.9 2.42h.85c.22 0 .4-.03.55-.1a.66.66 0 0 0 .32-.27c.07-.12.1-.27.1-.45a.92.92 0 0 0-.1-.46.67.67 0 0 0-.32-.28c-.15-.07-.33-.1-.56-.1h-.83v1.66ZM37 25v5h-1v-5h1Zm1 5h1.64c1.48 0 2.36-1.08 2.36-2.5 0-1.41-.86-2.5-2.32-2.5H38v5Zm1.6-.78H39v-3.44h.63c1.03 0 1.37.75 1.37 1.72 0 .98-.36 1.72-1.4 1.72Zm6.39-2.6a1.24 1.24 0 0 0-.43-.6c-.1-.08-.2-.14-.34-.17a1.45 1.45 0 0 0-1.13.14c-.21.13-.38.32-.5.58-.12.25-.18.56-.18.92 0 .37.06.68.18.93.12.26.29.45.5.59.21.13.46.2.74.2.25 0 .47-.05.66-.15.19-.1.33-.23.43-.4.1-.17.15-.37.15-.59h-1.15v-.69h2.03v.59c0 .41-.09.77-.27 1.08-.18.3-.44.53-.76.7a2.4 2.4 0 0 1-1.1.24c-.46 0-.86-.1-1.21-.3-.35-.2-.62-.49-.82-.86-.2-.37-.29-.82-.29-1.33 0-.4.06-.74.17-1.05.12-.3.28-.57.49-.79.2-.21.45-.38.73-.49a2.46 2.46 0 0 1 1.69-.05c.23.08.44.19.63.33a1.87 1.87 0 0 1 .7 1.17H46ZM48 30v-5h2.98v.76H49v1.36h1.83v.76H49v1.36h2V30h-3Z" /></svg>