<?xml version='1.0' encoding='utf-8'?>
<!-- by TradeStack -->
<svg width="56" height="56" viewBox="0 0 56 56" xmlns="http://www.w3.org/2000/svg"><path fill="#F0F3FA" d="M0 0h56v56H0z" /><circle cx="9.5" cy="28.5" r="2.5" fill="#0085BD" /><path d="M6.34 33h6.32a5.5 5.5 0 1 0-6.32 0ZM13 28.5a3.5 3.5 0 1 1-7 0 3.5 3.5 0 0 1 7 0Z" fill="#0085BD" /><path fill-rule="evenodd" d="M16.4 26.2c0-1.21 1.03-2.2 2.3-2.2H20v1.5h-1.05c-.56 0-.95.3-.95.85 0 .43.36.93.86.93H19c1.6 0 3 1.18 3 2.83 0 1.6-1.34 2.89-3 2.89a2.94 2.94 0 0 1-3-2.94l.02-.06h1.34a.23.23 0 0 1-.02.07c-.01.02-.02.03-.02.1 0 .86.73 1.56 1.63 1.56.9 0 1.63-.7 1.63-1.57 0-.81-.77-1.51-1.63-1.51-1.12 0-2.54-.84-2.54-2.45Zm5.1-2.2H26v1.5h-1.5v5.02L29.34 24H31v1.55L32.34 24H34v9h-1.5v-1H31v1h-1.5v-1h-4.14l-.7 1H23v-7.5h-1.5V24Zm25 0H42v1.5h1.5V33H45v-7.5h1.5V24Zm-17 7h-3.43l3.43-4.87V31Zm3 0H31v-3.22l1.5-1.89V31Zm2.5-7H39.14A2.96 2.96 0 0 1 42 26.98c0 1.21-.72 2.25-1.7 2.72l2.06 3.3h-1.54l-2.54-4.06c-.27.32-.6.58-.98.76l2.06 3.3h-1.54L35 28.5h1.06c.82 0 1.49-.63 1.49-1.52s-.68-1.48-1.5-1.48H35V24Zm3.61 1.5a3.01 3.01 0 0 1-.02 3h.47c.82 0 1.49-.63 1.49-1.52s-.68-1.48-1.5-1.48h-.44ZM48.69 24c-1.26 0-2.28.99-2.28 2.2 0 1.61 1.42 2.45 2.54 2.45.86 0 1.63.7 1.63 1.51a1.6 1.6 0 0 1-1.63 1.57c-.9 0-1.63-.7-1.63-1.57 0-.06 0-.07.02-.09l.02-.07h-1.34l-.02.06v.05c0 1.6 1.34 2.89 3 2.89s3-1.3 3-2.89c0-1.65-1.4-2.83-3-2.83h-.14c-.5 0-.86-.5-.86-.93 0-.54.39-.85.95-.85H50V24h-1.3Z" fill="#0085BD" /></svg>