<?xml version='1.0' encoding='utf-8'?>
<!-- by TradeStack -->
<svg width="56" height="56" viewBox="0 0 56 56" xmlns="http://www.w3.org/2000/svg"><path fill="#F0F3FA" d="M0 0h56v56H0z" /><path d="M19 41.44V46l13.7-10.46 1.12-1.5.72-4.13-5.2-1.84c.4.35 1.18 1.37 1.18 2.65 0 1.29-1.56 2.46-2.34 2.89l-6.87 3.88A4.54 4.54 0 0 0 19 41.44Z" fill="url(#a)" /><path d="M33.27 33.58c0 1.1-.66 2-.99 2.32A8.97 8.97 0 0 0 36 28.63V23.6c0-.88-.71-1.6-1.6-1.6h-.27a3.2 3.2 0 0 0-1.61.44l-3.32 1.93c-.37.16-1.1.7-1.1 1.55 0 .99.81 1.86 1.22 2.18l1.5 1.45c1.04.93 2.46 2.67 2.46 4.03Z" fill="url(#b)" /><path d="M36 14.56V10L22.3 20.46l-1.12 1.5-.72 4.13 5.2 1.84a3.81 3.81 0 0 1-1.18-2.65c0-1.29 1.56-2.46 2.34-2.89l6.87-3.88A4.54 4.54 0 0 0 36 14.56Z" fill="url(#c)" /><path d="M21.73 22.42c0-1.1.66-2 .99-2.32A8.97 8.97 0 0 0 19 27.37v5.03c0 .88.71 1.6 1.6 1.6h.27a3.2 3.2 0 0 0 1.61-.44l3.32-1.93c.37-.16 1.1-.7 1.1-1.55 0-.99-.81-1.86-1.22-2.18l-1.5-1.45c-1.04-.93-2.46-2.67-2.46-4.03Z" fill="url(#d)" /><defs><linearGradient id="a" x1="33.78" y1="33.03" x2="19.98" y2="33.03" gradientUnits="userSpaceOnUse"><stop stop-color="#002A81" /><stop offset="1" stop-color="#00A8E7" /></linearGradient><linearGradient id="b" x1="28.27" y1="25.86" x2="36.24" y2="25.86" gradientUnits="userSpaceOnUse"><stop stop-color="#00358B" /><stop offset="1" stop-color="#00BBFB" /></linearGradient><linearGradient id="c" x1="21.22" y1="22.97" x2="35.02" y2="22.97" gradientUnits="userSpaceOnUse"><stop stop-color="#002A81" /><stop offset="1" stop-color="#00A8E7" /></linearGradient><linearGradient id="d" x1="26.73" y1="30.14" x2="18.76" y2="30.14" gradientUnits="userSpaceOnUse"><stop stop-color="#00358B" /><stop offset="1" stop-color="#00BBFB" /></linearGradient></defs></svg>