<!-- by TradeStack --><svg width="56" height="56" viewBox="0 0 56 56" xmlns="http://www.w3.org/2000/svg"><path fill="#F0F3FA" d="M0 0h56v56H0z"/><path d="m27.21 10-.53.85c2.6 4.14 8.08 12.82 9.13 14.44 1.3 2.02 2.69 3.66 2.69 7.22 0 6.86-6.02 10.99-12.37 10.99-5.56 0-9.55-3.92-10.85-5.95l-.28.19C17.03 42.19 20.6 46 27.8 46 37 46 41 38.5 41 34.1c0-2.59-1.68-5.89-2.5-7.13L27.2 10Z"/><path d="m21.32 30.57-.92-.48-.66-1.4 7.59-13.88L32 22.74l-2.96 4.81-3.17-1.8-4.55 4.82Z" fill="url(#a)"/><path d="M19.02 29.34 15.05 33c-.42-2.97 1.72-6.2 3.02-8.38L25.67 12l1.7 2.88c-1.36 2.53-4.36 8.09-5.4 10.05a15.74 15.74 0 0 0-1.56 3.98v1.18l-1.39-.75Z" fill="url(#b)"/><path d="m35.61 27.8-2.4-3.8L30 29.35l-2.85-1.54-4.49 5.56-1.6-.95L17 37.13c2.02 2.52 4.16 4.87 9.34 4.87C35.47 42 37 34.33 37 32.17c0-1.73-.92-3.63-1.39-4.36Z"/><defs><linearGradient id="a" x1="25.87" y1="14.81" x2="25.87" y2="30.57" gradientUnits="userSpaceOnUse"><stop stop-color="#78D2F7"/><stop offset="1" stop-color="#5EB4E5"/></linearGradient><linearGradient id="b" x1="21.19" y1="12" x2="21.19" y2="33" gradientUnits="userSpaceOnUse"><stop stop-color="#52CBF5"/><stop offset="1" stop-color="#0086CD"/></linearGradient></defs></svg>