<!-- by TradeStack --><svg width="56" height="56" viewBox="0 0 56 56" xmlns="http://www.w3.org/2000/svg"><path fill="#F0F3FA" d="M0 0h56v56H0z"/><path d="M11.5 24.12a.51.51 0 0 0-.24-.39c-.15-.09-.34-.13-.57-.13-.16 0-.3.02-.42.06-.12.05-.2.1-.27.18a.41.41 0 0 0-.1.26c0 .08.03.15.07.21.04.06.1.11.17.16l.24.1.26.07.4.09a3 3 0 0 1 .48.14c.15.06.29.13.4.22a.89.89 0 0 1 .4.76c0 .23-.07.43-.2.6-.13.17-.31.3-.56.4-.24.1-.54.15-.88.15-.34 0-.63-.05-.88-.14a1.3 1.3 0 0 1-.58-.41c-.13-.18-.2-.4-.22-.66h.77c.01.14.06.25.14.34.08.09.19.16.32.2.13.05.28.07.44.07.17 0 .32-.02.45-.07a.73.73 0 0 0 .3-.2.44.44 0 0 0 .12-.29c0-.1-.04-.18-.1-.25a.73.73 0 0 0-.28-.16 2.82 2.82 0 0 0-.4-.13l-.5-.1c-.35-.1-.63-.22-.84-.38a.82.82 0 0 1-.3-.67c0-.23.06-.43.2-.6.14-.18.33-.31.57-.4.24-.1.5-.15.81-.15.3 0 .58.05.8.14.24.1.42.23.55.4.14.17.2.36.2.58h-.74ZM13 27v-4h1.64c.78 0 1.52.48 1.52 1.34 0 .25-.06.47-.17.66-.12.2-.3.35-.52.46-.23.11-.5.17-.84.17h-1.08v-.58h.97c.2 0 .35-.03.48-.1a.61.61 0 0 0 .27-.24c.06-.11.1-.23.1-.37 0-.49-.41-.7-.85-.7h-.72V27H13ZM17.78 23v4H17v-4h.78ZM18.5 27v-4h1.62c.77 0 1.53.44 1.53 1.3 0 .25-.06.46-.18.65-.12.18-.3.32-.52.42-.23.1-.5.15-.84.15h-1.15v-.59H20c.19 0 .35-.02.47-.07a.55.55 0 0 0 .28-.21c.06-.1.09-.22.09-.35 0-.49-.42-.66-.85-.66h-.72V27h-.78Zm2.23-1.82L21.8 27h-.87l-1.05-1.82h.85ZM23 23v4h-.78v-4H23ZM23.66 23.64V23h3.45v.64h-1.33V27H25v-3.36h-1.34ZM29.69 24.12a.51.51 0 0 0-.25-.39c-.15-.09-.34-.13-.57-.13-.16 0-.3.02-.42.06-.11.05-.2.1-.27.18a.4.4 0 0 0-.1.26c0 .08.03.15.07.21.04.06.1.11.17.16l.24.1.26.07.4.09a3 3 0 0 1 .48.14c.15.06.29.13.4.22a.89.89 0 0 1 .4.76c0 .23-.06.43-.2.6-.12.17-.31.3-.56.4-.24.1-.53.15-.88.15-.34 0-.63-.05-.88-.14a1.3 1.3 0 0 1-.57-.41c-.14-.18-.22-.4-.23-.66h.77c.01.14.06.25.14.34.08.09.19.16.32.2.13.05.28.07.44.07.17 0 .32-.02.45-.07a.73.73 0 0 0 .3-.2.44.44 0 0 0 .12-.29c0-.1-.04-.18-.1-.25a.73.73 0 0 0-.27-.16 2.82 2.82 0 0 0-.41-.13l-.5-.1c-.35-.1-.63-.22-.84-.38a.82.82 0 0 1-.3-.67c0-.23.06-.43.2-.6.14-.18.33-.31.57-.4.24-.1.51-.15.81-.15.31 0 .58.05.8.14.24.1.42.23.56.4.13.17.2.36.2.58h-.75ZM32.89 23.64V23h3.45v.64H35V27h-.78v-3.36H32.9ZM38 23v4h-.78v-4H38ZM39 23h.96l1.28 2.87h.05L42.58 23h.95v4h-.75v-2.73h-.04L41.54 27H41l-1.2-2.74h-.04V27H39v-4ZM44.22 27v-4h2.76v.64H45v1.06h1.84v.59H45v1.06h2V27h-2.78ZM4.8 29v4H4v-4h.8ZM9.27 29v4h-.7l-2.08-2.7h-.03V33h-.8v-4h.71l2.07 2.7h.04V29h.8ZM9.85 29.64V29h3.51v.64H12V33h-.79v-3.36H9.85ZM14 33v-4h2.86v.64H14.8v1.06h1.91v.6H14.8v1.06h2.08V33H14ZM18 33v-4h1.65c.77 0 1.55.43 1.55 1.3 0 .25-.06.46-.18.65-.12.18-.3.32-.53.42-.23.1-.51.15-.85.15h-1.18v-.58h1.07c.2 0 .36-.03.49-.08a.56.56 0 0 0 .28-.21c.06-.1.09-.21.09-.35 0-.5-.43-.66-.86-.66h-.73V33H18Zm2.27-1.82 1.1 1.82h-.9l-1.07-1.82h.87ZM25.61 29v4h-.7l-2.08-2.7h-.03V33H22v-4h.71l2.07 2.7h.04V29h.8ZM27.27 33h-.85l1.55-4h.98l1.55 4h-.85l-1.18-3.15h-.03L27.27 33Zm.03-1.58h2.32V32H27.3v-.58ZM29.88 29.64V29h3.5v.64H32V33h-.76v-3.36h-1.36ZM34.8 29v4H34v-4h.8ZM39.65 31c0 1.17-.85 2-2.02 2a1.94 1.94 0 0 1-2.02-2c0-1.17.86-2 2.02-2 1.16 0 2.02.83 2.02 2Zm-.8 0c0-.74-.43-1.37-1.22-1.37-.78 0-1.22.63-1.22 1.37 0 .74.43 1.37 1.22 1.37s1.22-.63 1.22-1.37ZM44 29v4h-.7l-2.08-2.7h-.04V33h-.8v-4h.72l2.07 2.7h.04V29H44ZM45.45 33h-.85l1.55-4h.99l1.55 4h-.85l-1.18-3.15h-.03L45.45 33Zm.03-1.58h2.32V32h-2.32v-.58ZM49.2 33v-4h.8v3.36h2V33h-2.8Z"/></svg>