<!-- by TradeStack --><svg width="56" height="56" viewBox="0 0 56 56" xmlns="http://www.w3.org/2000/svg"><path fill="#F0F3FA" d="M0 0h56v56H0z"/><path d="M19.68 22H8.74c-1.42.01-4.26.77-4.26 3.67S7.32 29.04 8.74 29h8.08c.1-.6.58-1.68 1.7-2H9.27a.97.97 0 0 1-.96-.95c0-.5.43-1.05.96-1.05h7.8l2.61-3ZM4 34h14.73a3.68 3.68 0 0 1-1.95-3H6.45L4 34Z" fill="#59C4E8"/><path d="M29.72 22h-9.15l-2.56 3h10.8c.5 0 .91.52.91 1 0 .47-.4 1-.9 1H21c-2.05 0-3.7 1.4-3.7 3.33v.13A3.65 3.65 0 0 0 21 34h9.94l2.56-3h-11.4c-.48 0-.86-.58-.86-1.03 0-.44.38-.97.86-.97h7.61c2.1 0 3.8-1.43 3.8-3.4 0-1.96-1.7-3.6-3.8-3.6Z" fill="#C9C9C9"/><path d="M31.79 22h14.96a4.52 4.52 0 0 1 4.63 4.4 4.7 4.7 0 0 1-2.67 4.15l3.29 3.4h-5.24L44.23 31H38v3h-4v-6h11.8c.8 0 1.45-.8 1.45-1.56S46.61 25 45.81 25H34.13c-.04-.7-.57-2.2-2.34-3Z" fill="#59C4E8"/></svg>