<?xml version='1.0' encoding='utf-8'?>
<!-- by TradeStack -->
<svg width="56" height="56" viewBox="0 0 56 56" xmlns="http://www.w3.org/2000/svg"><path fill="#F0F3FA" d="M0 0h56v56H0z" /><path d="M46.86 27.95c-6 1.3-10.1 2.46-19.09 2.46-5.31 0-10.72-.58-14.32-1.5 2.42-1.34 7.92-2.26 14.32-2.26 1.22 0 2.42.04 3.55.1.26 0 .5-.1.68-.27.19-.17.3-.4.3-.65a.89.89 0 0 0-.28-.65.94.94 0 0 0-.66-.27 84.03 84.03 0 0 0-3.59-.07c-7.68 0-14.42 1.02-18.3 2.56-.93-.56-1.45-1.18-1.45-1.82 0-2.66 8.84-4.82 19.75-4.82 5.4 0 10.28.53 13.85 1.38.12.02.23 0 .33-.06s.17-.16.2-.27a.42.42 0 0 0-.2-.44.44.44 0 0 0-.15-.06A68.7 68.7 0 0 0 27.77 20C15.75 20 6 22.5 6 25.58c0 .87.77 1.69 2.15 2.42C6.77 28.73 6 29.55 6 30.42 6 33.5 15.75 36 27.77 36c12.75 0 22.34-2.48 22.23-5.58-.08-2.23-3.14-2.47-3.14-2.47Zm-3.56 2.97c-1.32 1.95-8.01 3.27-15.53 3.27-8.64 0-15.64-1.69-15.64-3.77.02-.33.16-.63.4-.86 3.93.99 9.3 1.63 15.24 1.6 6.28-.03 11.53-.57 15.47-1.59a1.17 1.17 0 0 1 .06 1.35Z" fill="#E60021" /></svg>