<?xml version='1.0' encoding='utf-8'?>
<!-- by TradeStack -->
<svg width="56" height="56" viewBox="0 0 56 56" xmlns="http://www.w3.org/2000/svg"><path fill="#F0F3FA" d="M0 0h56v56H0z" /><path d="M35 17H8l13 22h27L35 17Z" fill="#202D59" /><path d="M33 19H11l11 18.5L33 19Z" fill="#00499C" /><path d="m15.5 20-.5 4 7 12.5 5-8.5-2.5.5L27 25l-3.5 2 1.5-3.5-3 2.5 1-4-3 3 .5-4-2 3.5L18 20l-1.5 4-1-4Z" fill="url(#atbmdgd14)" /><path fill-rule="evenodd" d="m11 19 11 18.5L33 19H11Zm1.76 1L22 35.54 31.24 20H12.76Z" fill="#A9B6CF" /><defs><linearGradient id="atbmdgd14" x1="24.5" y1="22.5" x2="18.5" y2="31" gradientUnits="userSpaceOnUse"><stop stop-color="#FB850C" /><stop offset="1" stop-color="#FBC00A" /></linearGradient></defs></svg>