<!-- by TradeStack --><svg width="56" height="56" viewBox="0 0 56 56" xmlns="http://www.w3.org/2000/svg"><path fill="#F0F3FA" d="M0 0h56v56H0z"/><path d="M48 27h4v1h-1.5v4h-1v-4H48v-1Z" fill="url(#a)"/><path d="M36 27h1v2.78c0 .75.41 1.22.98 1.22.65 0 1.02-.63 1.02-1.22V27h1v2.91c0 1.2-.78 2.09-2 2.09s-2-.89-2-2.09V27Z" fill="url(#b)"/><path d="M30 28v3h.74c.8 0 1.26-.76 1.26-1.5s-.46-1.5-1.26-1.5H30Zm-1 4v-5h1.69C32.1 27 33 28.17 33 29.52c0 1.36-.9 2.48-2.31 2.48H29Z" fill="url(#c)"/><path d="m18.23 30.45.62 1.55H20l-.89-2.37-.88.82Z" fill="url(#d)"/><path d="m17 31-.86 1H15l1.85-5h1.28l.36.96-.92.5-.08-.24-.65 1.81.16.97Z" fill="url(#e)"/><path d="M35.65 22c-9.29 0-16.48 5.38-18.92 8.06-.45.38-1.02 1.14.27.94 3.34-3.54 10.38-8 18.65-8A44.8 44.8 0 0 1 52 26.5C49.77 25 43.28 22 35.65 22Z" fill="url(#f)"/><path d="M9.56 27h3.94v1H12v4h-1v-4H9.56v-1Z" fill="url(#g)"/><path d="m7.99 27.79-.71.77c-.44-.43-.78-.56-1.2-.56-.29 0-.72.06-.72.43 0 .28.29.41.52.49a6.13 6.13 0 0 0 .8.2c.7.2 1.32.54 1.32 1.34C8 31.52 7.03 32 6.1 32a2.9 2.9 0 0 1-2.1-.79l.67-.8c.4.38.95.59 1.43.59.3 0 .73-.08.73-.45 0-.3-.31-.43-.56-.51-.07-.03-.2-.06-.37-.1-.18-.05-.3-.09-.38-.1-.7-.2-1.32-.55-1.32-1.35 0-1.01.94-1.49 1.84-1.49.7 0 1.48.23 1.95.79Z" fill="url(#h)"/><path d="m45.99 27.79-.71.77c-.44-.43-.78-.56-1.2-.56-.29 0-.72.06-.72.43 0 .28.29.41.52.49a6.14 6.14 0 0 0 .8.2c.7.2 1.32.54 1.32 1.34 0 1.06-.97 1.54-1.9 1.54a2.9 2.9 0 0 1-2.1-.79l.67-.8c.4.38.95.59 1.43.59.3 0 .73-.08.73-.45 0-.3-.31-.43-.56-.51-.07-.03-.2-.06-.37-.1-.18-.05-.3-.09-.38-.1-.7-.2-1.32-.55-1.32-1.35 0-1.01.94-1.49 1.84-1.49.7 0 1.48.23 1.95.79Z" fill="url(#i)"/><path d="M24 32v-1.64h.77L25.8 32H27l-1.32-1.95c.6-.3.89-.78.89-1.45 0-1.12-.99-1.6-1.91-1.6H23v1h1.72c.37 0 .78.18.78.63 0 .48-.4.87-.8.87H23V32h1Z" fill="url(#j)"/><defs><linearGradient id="a" x1="50.65" y1="29.02" x2="48.56" y2="31.73" gradientUnits="userSpaceOnUse"><stop stop-color="#13006E"/><stop offset="1" stop-color="#3AA0FF"/></linearGradient><linearGradient id="b" x1="38.65" y1="29.02" x2="36.56" y2="31.73" gradientUnits="userSpaceOnUse"><stop stop-color="#13006E"/><stop offset="1" stop-color="#3AA0FF"/></linearGradient><linearGradient id="c" x1="31.65" y1="29.02" x2="29.56" y2="31.73" gradientUnits="userSpaceOnUse"><stop stop-color="#13006E"/><stop offset="1" stop-color="#3AA0FF"/></linearGradient><linearGradient id="d" x1="18.31" y1="29.02" x2="16.38" y2="32.15" gradientUnits="userSpaceOnUse"><stop stop-color="#13006E"/><stop offset="1" stop-color="#3AA0FF"/></linearGradient><linearGradient id="e" x1="18.31" y1="29.02" x2="16.38" y2="32.15" gradientUnits="userSpaceOnUse"><stop stop-color="#13006E"/><stop offset="1" stop-color="#3AA0FF"/></linearGradient><linearGradient id="f" x1="16.8" y1="29.62" x2="51.88" y2="26.66" gradientUnits="userSpaceOnUse"><stop stop-color="#2C64C8"/><stop offset=".04" stop-color="#0C0066"/><stop offset="1" stop-color="#FFFA62"/></linearGradient><linearGradient id="g" x1="12.65" y1="29.02" x2="10.56" y2="31.73" gradientUnits="userSpaceOnUse"><stop stop-color="#13006E"/><stop offset="1" stop-color="#3AA0FF"/></linearGradient><linearGradient id="h" x1="6.65" y1="29.02" x2="4.56" y2="31.73" gradientUnits="userSpaceOnUse"><stop stop-color="#13006E"/><stop offset="1" stop-color="#3AA0FF"/></linearGradient><linearGradient id="i" x1="44.65" y1="29.02" x2="42.56" y2="31.73" gradientUnits="userSpaceOnUse"><stop stop-color="#13006E"/><stop offset="1" stop-color="#3AA0FF"/></linearGradient><linearGradient id="j" x1="25.65" y1="29.02" x2="23.56" y2="31.73" gradientUnits="userSpaceOnUse"><stop stop-color="#13006E"/><stop offset="1" stop-color="#3AA0FF"/></linearGradient></defs></svg>