<?xml version='1.0' encoding='utf-8'?>
<!-- by TradeStack -->
<svg width="56" height="56" viewBox="0 0 56 56" xmlns="http://www.w3.org/2000/svg"><path fill="#CA0936" d="M0 0h56v56H0z" /><path d="M25.15 17.5c.31.33.85.11.85-.34V13c0-.55 0-1 1.02-1h2c.98 0 .98.45.98 1v4.26c0 .44.54.66.86.36l2.98-2.85a1 1 0 0 1 1.44.06l1.28 1.45a1 1 0 0 1-.05 1.38l-6.34 6.14c-.1.1-.17.22-.17.36V25c0 .55.46 1 1.02 1h1.05a.5.5 0 0 0 .35-.14l6.2-6.04a1 1 0 0 1 1.44.05l1.28 1.44a1 1 0 0 1-.06 1.38l-2.53 2.45a.5.5 0 0 0 .35.86H43c.56 0 1 .5 1 1v2c0 .56-.47 1-1.02 1h-4.23a.5.5 0 0 0-.36.84l2.99 3.21a1 1 0 0 1 0 1.37l-1.33 1.4a1 1 0 0 1-1.46 0l-6.24-6.66A.5.5 0 0 0 32 30h-1a1 1 0 0 0-.99 1.02v1.04c0 .14.07.26.17.36l6.34 6.14a1 1 0 0 1 .05 1.38l-1.28 1.45a1 1 0 0 1-1.44.06l-2.98-2.85c-.32-.3-.86-.08-.86.36V43c0 .55-.43 1-.98 1h-2c-.55 0-1.02-.45-1.02-1v-3.94a.49.49 0 0 0-.85-.34l-2.48 2.64a1 1 0 0 1-1.47-.01l-1.27-1.43a1 1 0 0 1 .03-1.36l5.92-6.14c.09-.1.12-.22.12-.35v-1.09a1 1 0 0 0-1-.98h-.54a.5.5 0 0 0-.37.16l-6.17 6.65a1 1 0 0 1-1.46 0l-1.32-1.4a1 1 0 0 1-.02-1.36l2.95-3.21a.5.5 0 0 0-.37-.84H13c-.56 0-1-.5-1-1v-2c0-.5.47-1 1.02-1h4.4a.5.5 0 0 0 .34-.86l-2.53-2.45a1 1 0 0 1-.05-1.38l1.28-1.44a1 1 0 0 1 1.44-.05l6.2 6.04c.09.09.21.14.34.14h.58c.55 0 .98-.45.98-1v-.85a.48.48 0 0 0-.12-.35l-5.92-6.14a1 1 0 0 1-.03-1.36l1.27-1.43a1 1 0 0 1 1.47-.01l2.48 2.64Z" fill="#FBFFFF" /></svg>