<!-- by TradeStack --><svg width="56" height="56" viewBox="0 0 56 56" xmlns="http://www.w3.org/2000/svg"><path fill="#F0F3FA" d="M0 0h56v56H0z"/><path d="M41.73 18c.63 0 1.51.05 2.4.17 1.56.21 2.88.9 3.93 2.08 1.35 1.5 2 3.26 1.94 5.27a9.09 9.09 0 0 1-.79 3.44c-2.76 6.24-9.08 7.25-15.08 7H5c.18-.4.39-.73.63-1 .13-.14.32-.25.58-.33.88-.27 1.77-.52 2.65-.73.23-.06.36-.18.48-.4 2.3-4.28 4.79-8.46 7.15-12.7.07-.14.14-.29.19-.46a.2.2 0 0 0-.09-.22l-1.84-1.05a.1.1 0 0 1-.06-.11c0-.02 0-.03.02-.04l.43-.77a.29.29 0 0 1 .25-.15h26.34Z" fill="#5985C6"/><path fill-rule="evenodd" d="M44.13 18.17c-.89-.12-1.77-.17-2.4-.17H15.4a.29.29 0 0 0-.25.15l-.43.77a.11.11 0 0 0 .04.15l1.84 1.05a.19.19 0 0 1 .09.22c-.05.17-.12.32-.2.46-.93 1.68-1.88 3.34-2.83 5-1.46 2.56-2.92 5.1-4.31 7.7-.12.22-.25.34-.48.4-.88.21-1.77.46-2.65.73-.26.08-.45.19-.58.33-.16.18-.31.4-.45.64L5 36h29.13c7.39 0 12.32-.8 15.08-7.04.49-1.1.75-2.25.79-3.44a7.29 7.29 0 0 0-1.94-5.27 6.23 6.23 0 0 0-3.93-2.08Zm5.5 7.34a6.92 6.92 0 0 0-1.84-5.01 5.87 5.87 0 0 0-3.7-1.96c-.88-.12-1.75-.17-2.36-.17h-26.3l-.28.5 1.62.93a.55.55 0 0 1 .26.65c-.06.2-.13.37-.22.53-.94 1.68-1.9 3.35-2.85 5.02-1.46 2.55-2.91 5.09-4.3 7.67-.07.14-.16.27-.29.37-.12.1-.27.17-.43.21-.87.22-1.75.46-2.62.73a.91.91 0 0 0-.42.23 3 3 0 0 0-.3.4h28.54c6 .23 12.08-.78 14.74-6.8.47-1.06.72-2.15.75-3.3Z"/><path d="M12.29 33.75c.13-.25.21-.5.33-.7l1.9-3.4c.22-.39.49-.8.69-1.16a614.4 614.4 0 0 1 4.17-7.44c.06-.1.13-.24.2-.41.12-.24.22-.5.49-.5 3-.02 9.5-.03 19.5-.02l1.04.16c1.49.23 2.7.93 3.6 2.08.35.42.6 1.05.76 1.87a7.26 7.26 0 0 1-1.08 5.25 9.2 9.2 0 0 1-4.03 3.54c-1.15.54-2.26.8-3.34.8-8.94-.04-16.63-.04-23.07.01a19.84 19.84 0 0 1-1.16-.04.04.04 0 0 1 0-.04Z"/><path d="M14.92 33.55a175.15 175.15 0 0 1-2.22-.01.07.07 0 0 1-.02-.1l7.22-12.79a.4.4 0 0 1 .36-.22c1.08-.04 2.54 0 3.35 0H39.2c1 0 1.7.06 2.1.18 1.13.33 2.04.98 2.72 1.96.45.63.7 1.35.78 2.17.13 1.42-.1 2.7-.7 3.84-.2.4-.48.85-.82 1.33-.7 1-1.5 1.74-2.53 2.35a14 14 0 0 1-1.64.8 6.24 6.24 0 0 1-2.86.48 973.69 973.69 0 0 1-14.71.03c-2.2.02-4.4-.03-6.61-.02Z" fill="#fff"/><path d="M14.37 32.53c-.06 0-.08-.03-.04-.09l.73-1.24a1945.7 1945.7 0 0 1 3.36-5.95c.68-1.2 1.36-2.4 2.02-3.62.15-.26.45-.22.72-.22a2413 2413 0 0 1 18.7 0c.32 0 .76.06 1.32.2.42.1.87.35 1.34.73a4 4 0 0 1 1.3 2.88c.03.88-.14 1.78-.53 2.7a7.59 7.59 0 0 1-2.3 3 7.85 7.85 0 0 1-4.45 1.6c-7.13.35-14.95.02-22.17.01Z" fill="#25337C"/><path d="M20.63 30.03c.08-.04.17-.03.29-.03H32.1c.36 0 .68-.06.94-.16.26-.1.47-.3.61-.61.3-.62 0-1.36-.64-1.61a3.14 3.14 0 0 0-1-.12h-5.07a7.22 7.22 0 0 1-1.6-.09 2 2 0 0 1-1.36-.93c-.82-1.26-.29-2.74 1.1-3.34.25-.09.6-.14 1-.14h12.3c.08 0 .11.04.07.12l-.36.74a.22.22 0 0 1-.22.14H26.41c-.7 0-1.26.06-1.58.66-.35.63-.12 1.47.62 1.7.16.06.44.08.86.09l5.73.02c.5 0 1.08.03 1.54.28.73.4 1.14.96 1.23 1.7.13 1.21-.6 2.2-1.82 2.46-.26.05-.66.1-1.22.09H20.63a1.1 1.1 0 0 1-.43-.07c-.04-.01-.06-.04-.04-.09.1-.31.26-.58.47-.81Z" fill="#fff"/></svg>