<!-- by TradeStack --><svg width="56" height="56" viewBox="0 0 56 56" xmlns="http://www.w3.org/2000/svg"><path fill="#F0F3FA" d="M0 0h56v56H0z"/><path fill-rule="evenodd" d="M46.37 26.52c.2.19.74.82 1.65 1.9l3.83 4.5c.1.12.15.1.15-.05v-9.8c0-.05-.03-.07-.08-.07h-1.08c-.06 0-.09.02-.09.07v6.36c0 .12-.04.14-.12.05-.19-.19-.74-.82-1.65-1.9l-3.83-4.5c-.1-.12-.15-.1-.15.05v9.78c0 .06.03.09.08.09h1.08c.06 0 .09-.03.09-.08v-6.35c0-.12.04-.14.12-.05Zm-36.22 3.34c-.06-.52-.42-.87-1.07-1.05-.79-.22-1.35-.39-1.67-.5-2.01-.67-2.48-3.1-.94-4.53a2.9 2.9 0 0 1 4.68 1.1c.05.11.02.2-.1.25l-.75.31c-.12.05-.2.02-.27-.1-1.21-2.3-4.12-.2-2.86 1.28.24.29.65.5 1.24.65 1.35.34 2.46.63 2.95 2.12.34 1.02.07 1.94-.81 2.76-.78.74-1.8 1-3.03.77-1.16-.21-2-.94-2.5-2.18-.05-.13-.01-.21.11-.27l.79-.33c.12-.04.2-.01.27.1l.09.2c.05.1.1.23.15.28C7.44 32 8.6 32.1 9.93 31c.22-.2.3-.57.22-1.14Zm20 .03c-.06-.51-.42-.86-1.07-1.04-.79-.21-1.34-.37-1.67-.48a2.59 2.59 0 0 1-.93-4.46 2.92 2.92 0 0 1 4.67 1.08c.05.12.02.2-.1.25l-.75.31c-.12.05-.2.02-.26-.1-1.22-2.26-4.12-.21-2.87 1.26.24.28.66.5 1.24.64 1.35.33 2.46.62 2.95 2.08.34 1 .07 1.9-.81 2.71-.79.73-1.8.98-3.03.75-1.16-.2-2-.92-2.5-2.14-.05-.12-.01-.21.11-.26l.79-.33c.12-.04.2-.01.27.1l.09.19c.05.11.1.23.15.28 1 1.27 2.18 1.36 3.5.28.22-.19.3-.56.22-1.12ZM23.2 23h-1.1a.1.1 0 0 0-.1.1v9.8c0 .05.05.1.1.1h1.1a.1.1 0 0 0 .1-.1v-9.8a.1.1 0 0 0-.1-.1ZM43 28a5 5 0 1 1-10 0 5 5 0 0 1 10 0Zm-1.28.15a3.73 3.73 0 1 1-7.45 0 3.73 3.73 0 0 1 7.45 0ZM16.02 23a.13.13 0 0 0-.06 0c-.03 0-.05.02-.06.04L12 32.73a.06.06 0 0 0 .03.07h1.17c.06 0 .1-.03.12-.08l.9-2.26c.03-.09.1-.14.22-.14a45.58 45.58 0 0 1 3.11 0c.12 0 .2.05.23.14l.9 2.25c.02.06.06.09.12.09h1.15a.05.05 0 0 0 .04-.03.06.06 0 0 0 0-.05l-3.92-9.68c0-.02-.02-.03-.05-.04Zm1.12 5.88L16.1 26.3a.1.1 0 0 0-.03-.05.1.1 0 0 0-.15.05l-1.05 2.56a.12.12 0 0 0 .01.11l.04.04a.1.1 0 0 0 .05.01h2.1c.09 0 .12-.04.08-.14ZM40 28a2 2 0 1 1-4 0 2 2 0 0 1 4 0Zm-2 .78a.78.78 0 1 0 0-1.56.78.78 0 0 0 0 1.56Z" fill="#00489F"/></svg>