<!-- by TradeStack --><svg width="56" height="56" viewBox="0 0 56 56" xmlns="http://www.w3.org/2000/svg"><path fill="url(#a)" d="M0 0h56v56H0z"/><path d="M5.99 24c1.81 0 2.08 1.56 2 2.34h-1.4v-.26c0-.33-.25-.6-.56-.6-.3 0-.55.27-.55.6v.32c0 .34.27.53.41.58l1.15.53c.78.39.96 1.07.95 1.36v1.4c0 .95-.73 1.73-1.61 1.73H5.6C4.72 32 4 31.22 4 30.26v-.62h1.43v.32c0 .35.26.63.58.63.32 0 .57-.28.57-.63v-.37c0-.86-.83-1.03-1.67-1.43-.68-.32-.89-1.16-.91-1.55v-.57C4 24.4 5.33 24 5.99 24ZM13.27 24h-4v1.5h1.23V32H12v-6.5h1.27V24ZM30.25 24h-4v1.5h1.25v6.4H29v-6.4h1.25V24ZM31.5 24H33v8h-1.5v-8ZM34.5 24H38v1.5h-2V27h1.5v1.5H36V32h-1.5v-8Z" fill="#fff"/><path fill="#BBE3E5" d="M42.5 24H46v1.5h-3.5z"/><path fill-rule="evenodd" d="M49.78 24H47.5v8h2.28c1.23 0 2.22-.99 2.22-2.2v-3.6C52 25 51 24 49.78 24Zm.01 1.5H49v5h.8c.38 0 .7-.3.7-.65v-3.7c0-.36-.32-.65-.7-.65Z" fill="#fff"/><path fill="#BBE3E5" d="M42.5 30.5H46V32h-3.5zM42.5 27.25H46v1.5h-3.5z"/><path d="M39.5 24H41v8h-1.5v-8ZM15 24.03V32h1.5v-3h.5l.96 3h1.63l-1.08-3.38c.55-.4.91-1.1.91-1.82v-.7c0-1.15-.9-2.07-2.02-2.07H15Zm1.5 1.47h.75c.42 0 .75.3.75.65v.7c0 .36-.33.65-.75.65h-.75v-2ZM21.75 32h-1.6l1.96-8h1.54l1.96 8h-1.6l-.3-1.5h-1.66l-.3 1.5Zm.6-3h1.05l-.52-2.63-.53 2.63Z" fill="#fff"/><defs><linearGradient id="a" x1="10.42" y1="9.71" x2="68.15" y2="76.02" gradientUnits="userSpaceOnUse"><stop stop-color="#1A1E21"/><stop offset="1" stop-color="#06060A"/></linearGradient></defs></svg>