<?xml version='1.0' encoding='utf-8'?>
<!-- by TradeStack -->
<svg width="56" height="56" viewBox="0 0 56 56" fill="none" xmlns="http://www.w3.org/2000/svg">
<rect width="56" height="56" fill="#F0F3FA" />
<path fill-rule="evenodd" clip-rule="evenodd" d="M6 21.6661C6 19 8.508 19 8.508 19H47.492C50 19 50 21.6661 50 21.6661V34.3339C50 37 47.492 37 47.492 37H8.508C6 37 6 34.3339 6 34.3339V21.6661ZM33 27H34V22H33V27ZM26.7736 27H27.8482L28.2943 26H30.8895L31.3356 27H32.3899L30.2407 22H28.9634L26.7736 27ZM28.7201 25L29.602 23L30.4739 25H28.7201ZM21.5 27H22.5V25H23.8388L25.1747 27H26.3777L24.968 24.9313C25.647 24.8931 26.2522 24.4046 26.2522 23.5344C26.2522 22.374 25.4698 22 24.3775 22H21.5V27ZM22.5028 24V23H24.2373C24.968 23 25.3444 23.0992 25.3444 23.5496C25.3444 24 24.968 24 24.2373 24H22.5028ZM18 27H19V23H21V22H16V23H18V27ZM15.3805 23.2748C15.2698 22.9466 14.9229 22 12.9448 22C12.5906 22 10.8045 22 10.8045 23.4275C10.8045 24.1527 11.4023 24.6336 12.4577 24.7786L13.5574 24.9389C14.2143 25.0229 14.4041 25.2441 14.4041 25.5495C14.4041 25.9617 13.9265 26.0983 13.1884 26.0983C11.978 26.0983 11.6966 25.6414 11.5343 25.2979L10.6273 25.6336C10.738 25.9924 11.2178 27 13.1884 27C14.4136 27 15.4543 26.5802 15.4543 25.458C15.4543 24.6565 14.8491 24.2443 13.8158 24.084L12.7308 23.916C12.0716 23.8115 11.8544 23.626 11.8544 23.4275C11.8544 22.9924 12.3396 22.9083 12.9448 22.9083C14.0372 22.9083 14.3325 23.2354 14.4727 23.6629L15.3805 23.2748ZM21.2736 34H22.3482L22.7943 33H25.3895L25.8356 34H26.8899L24.7407 29H23.4634L21.2736 34ZM23.2201 32L24.102 30L24.9739 32H23.2201ZM16 34H17V32H18.3388L19.6747 34H20.8777L19.468 31.9313C20.147 31.8931 20.7522 31.4046 20.7522 30.5344C20.7522 29.374 19.9698 29 18.8775 29H16V34ZM17.0028 31V30H18.7373C19.468 30 19.8444 30.0992 19.8444 30.5496C19.8444 31 19.468 31 18.7373 31H17.0028ZM42.9915 22C44.9696 22 45.3165 22.9466 45.4272 23.2748L44.5194 23.6629C44.3792 23.2354 44.0839 22.9083 42.9915 22.9083C42.3863 22.9083 41.9011 22.9924 41.9011 23.4275C41.9011 23.626 42.1183 23.8115 42.7775 23.916L43.8625 24.084C44.8958 24.2443 45.501 24.6565 45.501 25.458C45.501 26.5802 44.4603 27 43.2351 27C41.2645 27 40.7847 25.9924 40.674 25.6336L41.5809 25.2979C41.7433 25.6414 42.0247 26.0983 43.2351 26.0983C43.9732 26.0983 44.4508 25.9617 44.4508 25.5495C44.4508 25.2441 44.261 25.0229 43.6041 24.9389L42.5044 24.7786C41.449 24.6336 40.8511 24.1527 40.8511 23.4275C40.8511 22 42.6373 22 42.9915 22ZM37.0021 27H38.0021V23H40.0021V22H35.0021V23H37.0021V27ZM13.51 34H12.51V30H10.51V29H15.51V30H13.51V34ZM43 31.2576V32.1881H44.4681C44.3924 32.6823 43.9508 33 43.0649 33C42.0905 33 41.5286 32.4305 41.5286 31.4388C41.5286 30.886 41.8105 30 43.0649 30C44.1205 30 44.289 30.3685 44.3924 30.6055H45.4715C45.25 29.4052 44.091 29 43.0354 29C41.2046 29 40.459 30.2385 40.459 31.5077C40.459 33.4037 41.8838 34 43.0575 34C43.9508 34 44.4306 33.6789 44.7775 33.4419L44.9547 34H45.501V31.2576H43ZM35.0017 34H36V30.6055L38.99 34H40V29H39L38.99 32.4305L35.954 29H35.0017V34ZM33 34H34V29H33V34ZM27.5 34H29.7034C31.2241 34 32.4264 33.1055 32.4264 31.4847C32.4264 29.7722 31.1207 29 29.6665 29H27.5V34ZM28.5 33V30H29.2531C30.759 30 31.3791 30.315 31.3791 31.4847C31.3791 32.6009 30.7812 33 29.2531 33H28.5Z" fill="#770F16" />
</svg>