<?xml version='1.0' encoding='utf-8'?>
<!-- by TradeStack -->
<svg width="56" height="56" viewBox="0 0 56 56" xmlns="http://www.w3.org/2000/svg"><path fill="#F0F3FA" d="M0 0h56v56H0z" /><path d="M31.9 44c-2.53 0-6.32-.66-7.9-1 7.98-1.8 10.44-5.52 10.44-9.32 0-3.8-2.02-7.34-5.18-12.68C35.5 28.24 39 35.3 39 39.2c0 3.9-3.95 4.8-7.1 4.8Z" fill="url(#a4mpzwre4)" /><path d="M27.1 13c2.53 0 6.32.66 7.9 1-7.98 1.8-10.44 5.52-10.44 9.32 0 3.8 2.02 7.34 5.18 12.68C23.5 28.76 20 21.7 20 17.8c0-3.9 3.95-4.8 7.1-4.8Z" fill="url(#b4mpzwre4)" /><path d="M24.58 12c2.7 0 6.74.7 8.42 1.04-8.51 1.89-11.13 5.76-11.13 9.73 0 3.97 2.15 7.66 5.52 13.23C20.74 28.44 17 21.07 17 17c0-4.06 4.21-5 7.58-5Z" fill="url(#c4mpzwre4)" /><path d="M28.42 43c-2.7 0-6.74-.7-8.42-1.04 8.51-1.89 11.13-5.76 11.13-9.73 0-3.97-2.15-7.66-5.52-13.23C32.26 26.56 36 33.93 36 38c0 4.06-4.21 5-7.58 5Z" fill="url(#d4mpzwre4)" /><defs><linearGradient id="a4mpzwre4" x1="23.91" y1="42.91" x2="39" y2="42.91" gradientUnits="userSpaceOnUse"><stop offset=".15" stop-color="#B5B7B9" /><stop offset="1" stop-color="#838487" /></linearGradient><linearGradient id="b4mpzwre4" x1="35.09" y1="14.09" x2="20" y2="14.09" gradientUnits="userSpaceOnUse"><stop stop-color="#B5B7B9" /><stop offset="1" stop-color="#898B8E" /></linearGradient><linearGradient id="c4mpzwre4" x1="33" y1="13.13" x2="17.09" y2="13.13" gradientUnits="userSpaceOnUse"><stop offset=".11" stop-color="#9B3E28" /><stop offset="1" stop-color="#F1A03D" /></linearGradient><linearGradient id="d4mpzwre4" x1="20" y1="41.87" x2="35.91" y2="41.87" gradientUnits="userSpaceOnUse"><stop offset=".22" stop-color="#9B3E28" /><stop offset="1" stop-color="#F1A03D" /></linearGradient></defs></svg>