<!-- by TradeStack --><svg width="56" height="56" viewBox="0 0 56 56" xmlns="http://www.w3.org/2000/svg"><path fill="#F0F3FA" d="M0 0h56v56H0z"/><path fill-rule="evenodd" d="M25.7 23.48c-.04.26-.36.68-.95 1.28-.46.46-.83.86-1.11 1.2-1.32 1.54-1.17 3.1.43 4.69 2.36 2.3 5.5 5.49 9.42 9.54.52.54 1.15.81 1.9.81.73 0 1.36-.28 1.88-.81l9.77-10.2c1.3-1.39 1.28-2.77-.05-4.14-2.68-2.78-5.85-6.03-9.5-9.76a3.09 3.09 0 0 0-1.32-.87c-.39-.1-.92-.11-1.59-.02-.37.05-.75.28-1.14.69-.2.21-.54.53-1.04.93-.54.46-1.04.46-1.47 0l-1.3-1.33c-.47-.5-1.08-.5-1.82-.05l-.04.04c-.56.51-.55 1.07.03 1.68l9.6 9.94c.24.25.35.54.35.88 0 .35-.11.64-.35.89l-4.84 4.98c-.42.44-.9.52-1.44.27-.69-.33-.97-.86-.83-1.6.05-.26.37-.68.97-1.28.45-.46.82-.86 1.1-1.2 1.32-1.54 1.17-3.1-.43-4.69a543 543 0 0 1-9.42-9.54 2.53 2.53 0 0 0-1.9-.81c-.73 0-1.36.28-1.88.81l-9.77 10.2c-1.3 1.39-1.28 2.77.05 4.14 2.68 2.78 5.85 6.03 9.5 9.76.44.46.88.75 1.32.87.39.1.92.11 1.59.02.37-.05.75-.28 1.14-.69.2-.21.54-.53 1.04-.93.54-.46 1.04-.46 1.47 0l1.3 1.33c.47.5 1.08.5 1.82.05l.04-.04c.56-.51.55-1.07-.03-1.68l-9.6-9.94a1.23 1.23 0 0 1-.35-.88c0-.35.11-.64.35-.89l4.84-4.98c.42-.44.9-.52 1.44-.27.69.33.97.86.83 1.6Zm-9.72 6.2a2.41 2.41 0 0 1-.64-1.68c0-.65.21-1.22.64-1.69 1.27-1.39 3.18-3.37 5.74-5.95.63-.62.63-1.25.02-1.88l-.1-.12c-.59-.6-1.17-.6-1.76-.01-3 2.97-5.91 5.95-8.74 8.94a.98.98 0 0 0-.24.7c0 .3.08.53.24.7 2.81 3 5.71 6 8.7 8.98.59.6 1.17.59 1.75 0l.1-.12c.63-.63.62-1.26 0-1.89a189.93 189.93 0 0 1-5.71-5.97Zm28.48-.47c.44-.45.66-.84.66-1.18 0-.33-.22-.73-.66-1.18-2.4-2.5-5.12-5.3-8.17-8.44-.62-.63-1.24-.64-1.86-.04l-.04.04c-.63.65-.65 1.29-.05 1.92l5.4 5.62c.64.66.96 1.35.96 2.08 0 .72-.32 1.42-.95 2.08l-5.42 5.61c-.6.63-.59 1.27.05 1.92l.04.04c.62.6 1.24.59 1.86-.04 3.05-3.13 5.78-5.94 8.18-8.43Zm-17.32-3.36-1.12 1.06a1.44 1.44 0 0 0-.07 2L27 30.04c.51.57 1.37.6 1.93.07l1.11-1.07c.55-.52.59-1.41.07-1.98l-1.03-1.15a1.34 1.34 0 0 0-1.93-.07Z" fill="#208C8E"/></svg>