<?xml version='1.0' encoding='utf-8'?>
<!-- by TradeStack -->
<svg width="56" height="56" viewBox="0 0 56 56" xmlns="http://www.w3.org/2000/svg"><path fill="#F0F3FA" d="M0 0h56v56H0z" /><path d="M28.03 12.06c-2.94.17-3.86.3-3.97.58-.05.13.2.83.57 1.56.8 1.58 1.28 2.82 1.15 2.95-.3.29-1.1-.3-2.7-1.96a14.55 14.55 0 0 0-1.96-1.85c-.32 0-3.1 1.9-3.92 2.7-.9.84-1.67 2.37-1.6 3.13l.06.5 2.8.8c3 .83 3.6 1.12 2.88 1.39-.23.08-1 .23-1.7.34-4 .59-4.42 1.07-2.87 3.33 1.5 2.15 2.42 2.34 5.37 1.09 2.86-1.21 3.69-1.13 3.69.36 0 .58-.12.85-.66 1.52a3.6 3.6 0 0 0-.67 1.03c0 .41.51.7 1.95 1.13 3.53 1.02 4 1.25 4 1.92a5 5 0 0 1-.65 1.38c-1.21 1.92-.86 2.36 2.28 2.91a9.2 9.2 0 0 1 1.96.5c.32.25.27 1.42-.09 1.99-.9 1.43-2.4 2.3-4.73 2.74-1.59.3-2.02.52-1.84.97.1.25.29.27 1.72.17 2.95-.19 5.46-1 7.78-2.52 2.68-1.75 4.42-3.9 4.6-5.72.14-1.23-.02-1.61-1.05-2.67-.85-.87-.91-.98-.75-1.34.1-.22 1.09-1.1 2.2-1.95 1.1-.86 2.04-1.67 2.09-1.8a9.21 9.21 0 0 0-.54-3.28c-.53-1-1.17-.84-2.9.74-1.24 1.13-1.8 1.45-1.8 1.02 0-.1.56-1.26 1.25-2.6.83-1.61 1.28-2.67 1.34-3.2a3 3 0 0 0-1.16-2.78c-.88-.7-4.87-2.87-5.12-2.79-.14.04-.2.73-.2 2.22 0 1.89-.05 2.27-.36 2.93-.21.44-.48.77-.62.77-.23 0-.26-.34-.26-2.38 0-2.93-.08-3.38-.73-4.42-.85-1.38-1.6-1.6-4.84-1.41Zm1.09 3.25c.07.2.45 2.09.82 4.19.38 2.1.8 4.13.94 4.5.26.72 1.05 1.79 2.28 3.11.7.76.75.78.76.4.02-.83.54-2.38 1.41-4.14.71-1.44.96-1.81 1.24-1.81.53 0 .41.5-.47 1.96-1 1.66-1.34 2.62-1.34 3.8 0 1.09.43 2.06 1.94 4.4 1.54 2.36 1.83 3.58 1.26 5.2-.32.9-1.35 2.03-1.86 2.03s-.44-.3.3-1.26c.85-1.1 1.08-1.9.85-2.95-.23-1.04-.47-1.47-1.96-3.6-4.17-5.96-10.87-12.01-14.2-12.83-.91-.22-1.2-.54-.84-.9.25-.23.33-.23 1.03.03 1.32.49 4.35 2.53 7.17 4.81l1.38 1.12-.1-.62-.27-2c-.29-2.27-.64-3.95-1-4.74-.18-.4-.29-.81-.23-.9.18-.3.74-.17.89.2ZM16.45 28.64a5.1 5.1 0 0 0-1.02.32c-.18.09-.62.17-.98.17-.68 0-.86.17-.86.83 0 .17-.18.55-.4.84-1.47 1.87-1.59 5.04-.28 7.75.46.98 2.21 2.98 2.6 2.98.08 0 .52-.3.98-.66a157.1 157.1 0 0 1 7.68-5.57 9.16 9.16 0 0 0 1.95-1.53c.08-.4-.92-1.85-1.94-2.82a8.94 8.94 0 0 0-3.63-2.05 11.46 11.46 0 0 0-4.1-.26ZM27.1 34.7c-.33.83-.04 1.36.73 1.36.38 0 .39-.02.1-.69-.3-.7-.7-1.02-.83-.67Zm-1.56.47c-.44.3-.5.39-.28.47.47.17.9.11.9-.13 0-.12.05-.34.1-.48.15-.35-.08-.3-.72.14Zm-1.3 1.88c-.14.84-.13.87.27.97.23.05.61.1.85.12.4.02.44-.05.55-.8.06-.46.09-.85.06-.88-.03-.02-.4-.1-.82-.16l-.77-.1-.14.85Zm-1.52.04c-.68.48-.7.5-.33.6.8.22.92.17 1.02-.45.06-.33.09-.6.07-.62-.02-.01-.36.2-.76.47Zm4.02.06-.18.88c-.1.36.66.57 1.01.29.23-.18.67-1.43.55-1.53a4.1 4.1 0 0 0-.66-.15c-.6-.1-.62-.1-.72.5Zm-5.3 1.92c-.06.48-.07.9-.03.95.04.04.4.11.82.17l.75.1.1-.86c.06-.47.08-.87.05-.9-.03-.03-.4-.11-.81-.19l-.76-.14-.12.87Zm-1.68.12-.7.54.7.09c.38.05.71.08.73.06.12-.12.23-1.24.11-1.23-.07 0-.45.25-.84.54Zm4.2-.2c-.3 1.42-.31 1.4.35 1.51l.86.13c.17.02.28-.23.37-.85.08-.47.12-.88.1-.9-.03-.03-.4-.1-.83-.16-.73-.1-.78-.09-.86.27Zm2.47.23c-.18.46-.1.64.16.32.13-.18.24-.37.24-.45 0-.23-.3-.14-.4.13Zm-7.78 1.88c-.06.45-.05.86.03.93.07.06.44.16.81.21l.68.1.11-.82c.07-.45.09-.85.05-.88-.03-.04-.4-.13-.81-.2l-.76-.14-.1.8Zm-1.46.09c-.57.57-.56.67.03.67.35 0 .5-.09.58-.36.24-.89.05-.98-.61-.31Zm3.94.13-.16.89c-.04.2.12.28.7.36.41.05.78.07.82.03.1-.1.39-1.58.33-1.63a5.9 5.9 0 0 0-.82-.16l-.77-.1-.1.61Zm2.42.4.05.7 1.17.4c1.27.43 1.73.38 1.73-.2 0-.44-1.38-1.3-2.37-1.47l-.63-.11.05.68Zm-7.47.84c0 .14.27.52.6.84.67.65.88.56.89-.37 0-.44-.06-.52-.37-.53-.2 0-.54-.04-.75-.1-.27-.07-.37-.02-.37.16Zm2.25.61c-.18.9-.17.92.66.77.93-.17 1.06-.25 1.06-.63 0-.2-.15-.34-.41-.4l-.81-.16c-.33-.07-.41 0-.5.42Z" fill="#75232F" /></svg>