<!-- by TradeStack --><svg width="56" height="56" viewBox="0 0 56 56" xmlns="http://www.w3.org/2000/svg"><path fill="#081F3F" d="M0 0h56v56H0z"/><path d="M34.42 15.18c-.36.21-.65 1.4-.8 3.25-.1 1.3-.1 1.31.55 1.94.61.6.93 1.2.39.75-.2-.16-.32-.11-.54.23-.16.25-.7.63-1.2.87-.79.37-1.3.44-4.7.58-3.98.16-7.2.45-7.88.7-.22.08-.67.11-1 .06-.56-.08-.73.03-2.09 1.41a13.17 13.17 0 0 0-3.44 6.14c-.19.76-.5 1.56-.7 1.78-.2.22-.44.76-.54 1.2-.1.45-.47 1.28-.82 1.86-.67 1.08-.84 2.1-.42 2.53.27.27 1.16.28 1.66.02.36-.2.36-.22.06-.55-.23-.26-.3-.54-.22-1 .21-1.27.7-1.98 1.87-2.68.6-.37 1.39-.9 1.74-1.2.34-.3.68-.48.74-.42.06.06-.13.5-.43.97-.9 1.47-.99 1.64-1 2.06 0 1.11.87 1.78 1.74 1.32.31-.17.32-.21.05-.5-.72-.8-.04-2.28 1.6-3.48.88-.64 1.45-1.42 1.45-2 0-.16-.08-.29-.18-.29a.19.19 0 0 1-.2-.18c0-.63 5.95.5 6.21 1.2.3.76.5 4.05.32 5.04-.17.92-.14 1.23.2 2.36.23.72.48 1.4.57 1.51.22.3 1.6.45 2.13.25.6-.23.55-.54-.19-1.24-1.1-1.03-1.05-1.93.37-6.85.04-.15.42-.24 1.04-.24a6 6 0 0 0 2.1-.46c1.3-.53 1.21-.51 1.21-.28 0 .1-.33.37-.74.6-.71.4-.74.46-.74 1.37 0 .93.54 2.85.95 3.34.24.3 2.12.35 2.3.06.07-.1-.17-.51-.52-.9-.36-.4-.7-.98-.78-1.3-.15-.68.67-3.74 1.2-4.48a27.1 27.1 0 0 0 1.87-3.09c0-.07-.26-.27-.56-.45-.3-.17-.56-.44-.56-.6 0-.23.1-.22.6.08 1.34.77 2.98.65 5.1-.37 1.5-.73 1.77-1.06 1.8-2.16.03-.77-.06-1.01-.57-1.63-.33-.4-.6-.94-.6-1.2s-.18-.75-.4-1.1c-.35-.59-.38-.81-.26-2.52.1-1.55.08-1.9-.15-2.1-.33-.27-.54-.02-1.33 1.66l-.49 1.04-1.24.1a5.8 5.8 0 0 1-1.4.01 9.76 9.76 0 0 1-.9-1.28c-.67-1.06-1.5-1.94-1.81-1.92-.07 0-.25.09-.42.18Z" fill="#F04A24"/></svg>