<!-- by TradeStack --><svg width="56" height="56" viewBox="0 0 56 56" xmlns="http://www.w3.org/2000/svg"><path fill="#F0F3FA" d="M0 0h56v56H0z"/><path d="M30.67 13a9.72 9.72 0 0 1 1.57 4.68 4.74 4.74 0 0 0 4.8 4.68c2.66 0 4.81-2.1 4.81-4.68a4.74 4.74 0 0 0-4.8-4.68h-6.38Zm-10.3.22A7.38 7.38 0 0 0 15 20.2v.14c0 .66 0 1.18.1 1.67.33 1.76 1.88 3.3 8.91 10.23l.41.4 1.66 1.63c5.45 5.39 7.07 6.98 7.2 7.55v.06c.1.42.16.68.31.84.27.28.83.28 2.32.28A7.96 7.96 0 0 0 41 40.81 6.92 6.92 0 0 0 43 35.75v-.01c0-.65 0-1.15-.1-1.64-.33-1.81-1.92-3.38-9.4-10.74l-.05-.06c-7.47-7.37-8.65-8.62-8.8-9.4l-.17-.9-1.74.02c-.96.01-2.02.1-2.36.2Zm4.04 24.22c0 1.4.81 4.17 1.88 5.56H18.7A5.63 5.63 0 0 1 13 37.44a5.63 5.63 0 0 1 5.7-5.56c3.16 0 5.71 2.49 5.71 5.56Z" fill="#003840"/></svg>