<?xml version='1.0' encoding='utf-8'?>
<!-- by TradeStack -->
<svg fill="none" viewBox="0 0 56 56" xmlns="http://www.w3.org/2000/svg"><path fill="#F0F3FA" d="M0 0h56v56H0z" /><path d="M32.5 27.364V18l2.5 1v8.364h-2.5Z" fill="url(#a)" /><path d="M30.286 19.09 32.5 18v9.364h-2.214V19.09Z" fill="url(#b)" /><path d="m26 21-6-3-6 22h10l2-19Z" fill="url(#c)" /><path d="m17 19 3-1-6 22h-3l6-21Z" fill="url(#d)" /><path d="M28 12v26h-8l5-24 3-2Z" fill="url(#e)" /><path d="M28 12v26h7l-4-24-3-2Z" fill="url(#f)" /><path d="m27 23-5-2-3 17h8V23Z" fill="url(#g)" /><path d="M20 22.046 22 21l-3 19h-3l4-17.954Z" fill="url(#h)" /><path d="m39 21-2-1 4.5 20H45l-6-19Z" fill="url(#i)" /><path d="M32 22.045 37 20l5 20h-9.5L32 22.045Z" fill="url(#j)" /><path d="m37 25-1.5-1L38 40h3l-4-15Z" fill="url(#k)" /><path d="m31 25 4.5-1L38 40h-7V25Z" fill="url(#l)" /><path d="M29 40V23l6 4 2 13h-8Z" fill="url(#m)" /><path d="m23 27 6-4v17h-8l2-13Z" fill="url(#n)" /><defs><linearGradient id="a" x1="33.714" y1="17.909" x2="33.714" y2="27.364" gradientUnits="userSpaceOnUse"><stop stop-color="#19438F" /><stop offset="1" stop-color="#BABEDC" /></linearGradient><linearGradient id="b" x1="31.428" y1="17.909" x2="31.428" y2="27.364" gradientUnits="userSpaceOnUse"><stop stop-color="#D9DBEC" /><stop offset="1" stop-color="#234A94" /></linearGradient><linearGradient id="c" x1="20" y1="17.909" x2="20" y2="38" gradientUnits="userSpaceOnUse"><stop stop-color="#19438F" /><stop offset="1" stop-color="#BCBFDD" /></linearGradient><linearGradient id="d" x1="18.857" y1="17.909" x2="12.78" y2="37.89" gradientUnits="userSpaceOnUse"><stop stop-color="#E3E5F1" /><stop offset=".46" stop-color="#8B91C1" /><stop offset=".855" stop-color="#1B4590" /></linearGradient><linearGradient id="e" x1="25.714" y1="13.182" x2="24.187" y2="37.994" gradientUnits="userSpaceOnUse"><stop stop-color="#E9EAF4" /><stop offset="1" stop-color="#19438F" /></linearGradient><linearGradient id="f" x1="30.286" y1="33.864" x2="29.675" y2="17.32" gradientUnits="userSpaceOnUse"><stop stop-color="#E9EAF4" /><stop offset="1" stop-color="#19438F" /></linearGradient><linearGradient id="g" x1="22.857" y1="20.864" x2="22.857" y2="38" gradientUnits="userSpaceOnUse"><stop offset=".095" stop-color="#19438F" /><stop offset=".627" stop-color="#6672AD" /><stop offset="1" stop-color="#C0C4DF" /></linearGradient><linearGradient id="h" x1="21.143" y1="20.864" x2="17.487" y2="37.951" gradientUnits="userSpaceOnUse"><stop stop-color="#D8DAEB" /><stop offset=".485" stop-color="#8F95C4" /><stop offset=".844" stop-color="#204892" /></linearGradient><linearGradient id="i" x1="40.571" y1="20.273" x2="40.571" y2="38" gradientUnits="userSpaceOnUse"><stop stop-color="#224A94" /><stop offset="1" stop-color="#BBBEDD" /></linearGradient><linearGradient id="j" x1="36.857" y1="20.273" x2="36.857" y2="38" gradientUnits="userSpaceOnUse"><stop stop-color="#CED0E6" /><stop offset="1" stop-color="#274D95" /></linearGradient><linearGradient id="k" x1="38" y1="23.818" x2="38" y2="38" gradientUnits="userSpaceOnUse"><stop stop-color="#244A94" /><stop offset="1" stop-color="#B9BEDC" /></linearGradient><linearGradient id="l" x1="34.857" y1="23.818" x2="34.857" y2="38" gradientUnits="userSpaceOnUse"><stop stop-color="#E0E3F0" /><stop offset="1" stop-color="#1C4691" /></linearGradient><linearGradient id="m" x1="32.571" y1="25" x2="33.182" y2="37.998" gradientUnits="userSpaceOnUse"><stop offset=".208" stop-color="#30539A" /><stop offset="1" stop-color="#B8BCDC" /></linearGradient><linearGradient id="n" x1="25.143" y1="25" x2="24.837" y2="37.999" gradientUnits="userSpaceOnUse"><stop stop-color="#D9DBEB" /><stop offset=".499" stop-color="#9096C5" /><stop offset="1" stop-color="#1F4892" /></linearGradient></defs></svg>