<?xml version='1.0' encoding='utf-8'?>
<!-- by TradeStack -->
<svg width="56" height="56" viewBox="0 0 56 56" xmlns="http://www.w3.org/2000/svg"><path fill="#531DA6" d="M0 0h56v56H0z" /><path d="M29 12c.63 0 1 .38 1 1.06v4.9c0 .62-.37 1.04-1 1.04h-.02c-.63 0-.98-.4-.98-1.04v-4.89c0-.68.37-1.07 1-1.07Zm-6.68 2c.34 0 .66.22.84.54l2.8 4.41c-1.06.38-1.96 1.15-1.96 2.1 0 1.66 2.15 2.3 5.26 3.2l.4.13c2.11.51 4.47 1.1 6.38 2.27 2.13 1.3 3.96 3.32 3.96 6.8C40 38.9 35.33 43 28.77 43c-6.82 0-11.05-3.14-12.77-8.94l6-2.03c.81 3.57 3.32 5.17 7.02 5.17 2.54 0 3.98-1.32 3.98-3.14 0-2.37-2.69-2.98-4.75-3.45l-.9-.21-.09-.03C23.02 29.27 17 27.7 17 21.27c0-2.43 1.22-4.34 3.03-5.94l.04-.03c.58-.51 1.48-1.3 2.25-1.3Zm14.11 1.06c.32-.6.18-1.12-.38-1.42-.56-.3-1.07-.12-1.39.48l-2.3 4.35c-.3.56-.17 1.09.38 1.38l.02.01c.56.3 1.08.1 1.37-.45l2.3-4.35ZM41 19.81c0 .3-.2.59-.54.82l-4.14 2.66c-.52.34-1.08.26-1.43-.27V23c-.35-.53-.2-1.04.33-1.39l4.14-2.66c.57-.37 1.1-.27 1.45.26.13.2.19.4.19.6Z" fill="#fff" /></svg>