<?xml version='1.0' encoding='utf-8'?>
<!-- by TradeStack -->
<svg width="56" height="56" viewBox="0 0 56 56" xmlns="http://www.w3.org/2000/svg"><path fill="#F0F3FA" d="M0 0h56v56H0z" /><path d="M27.61 12c-5.11 0-8.9 2.68-10.37 4.23a12.24 12.24 0 0 0-3.14 3.81c1.23-2.12 5.55-6.36 13.03-6.36 6.93 0 11.96 2.76 13.27 4.14-1.52-1.64-6.37-4.93-13.69-4.93-1.06 0-2.05.1-2.98.28 1.29-.4 2.62-.66 3.88-.66 4.05 0 8.04 1.62 9.53 2.43-1.48-.98-5.45-2.94-9.53-2.94Zm-1 2.74c7.48 0 12.82 3.63 14.55 5.44-1.1-1-7.2-4.48-14.24-4.48-11.1 0-13.72 6.7-14.28 8.13l-.03.08c.32-3.87 4.65-9.17 14-9.17ZM12.09 28.09c-.6-3.56 1.5-10.68 14.8-10.68 6.81 0 12.38 3.85 14.3 5.78-1.8-1.56-7.2-4.69-14.3-4.69-8.87 0-14.07 4.62-14.8 9.59Zm31.89-.66A5.4 5.4 0 0 0 43 25c.19.33.6 1.28.71 2.47a8.94 8.94 0 0 1-.09 2.53c.16-.42.46-1.52.36-2.57Zm-.7 4.18c0-1.5-.77-3.02-1.28-3.61.32.5.72 1.9.72 3.61s-.46 3.09-.7 3.56a6.7 6.7 0 0 0 1.25-3.56ZM41 27c-1.5-1.94-6.86-6-15.12-6-10.32 0-13.2 4.9-13.75 7.12 0 1.23.17 3.9.97 5.13v-.03a9.95 9.95 0 0 0 2.27 4.15c1.4 3.02 5.42 5.62 10.45 6.4 6.68 1.04 12.63-1.53 13.27-5.73A4.69 4.69 0 0 0 38 34c.5.98.5 2.45.5 3.31v.05c-.16 2.45-2.47 4.37-5.7 5.28 1.73-.76 2.92-1.96 3.16-3.42A4.29 4.29 0 0 0 35 36c.5.81.58 1.79.51 2.76-.19 2.71-4.11 4.56-8.31 4.28a11.9 11.9 0 0 1-.67-.06c2.82.18 5.2-.98 5.48-2.77.02-.1.03-.21.03-.32-.25 1.36-2.16 2.32-4.4 2.17a5.52 5.52 0 0 1-3.22-1.19c.3.07.63.1.97.12 1.38.06 2.55-.33 2.6-.88.07-.55-1-1.04-2.38-1.1a4.69 4.69 0 0 0-2.03.3v-.17c.1-1.46 2.08-2.52 4.42-2.36 1.43.1 2.66.62 3.38 1.34-.87-1.13-2.55-2.04-4.56-2.35-3.18-.48-6 .72-6.31 2.68-.12.77.16 1.53.73 2.21a3.9 3.9 0 0 1-1.3-3.02c.2-2.71 3.44-4.79 7.64-4.51 2.09.14 5.09.9 6.42 1.87a12.64 12.64 0 0 0-6.56-2.83A15.2 15.2 0 0 0 25 32c-4.04.05-7.29 1.88-7.7 4.46a3.5 3.5 0 0 0-.04.51c-.09-.4-.12-.81-.1-1.23.26-3.7 4.75-6.4 10.57-6.01 2.92.2 7.1 1.3 8.93 2.65l.1.08c-1.98-1.89-5.03-3.35-8.6-3.9-6.68-1.04-12.62 1.53-13.27 5.73-.08.5-.08 1.01 0 1.51a5.88 5.88 0 0 1-.34-2.03c0-1.5 2.4-7.77 13.48-7.77 4.63 0 9.2 2.72 10.97 4a19.28 19.28 0 0 0-13.26-5.54c-7.6 0-11.93 3.58-12.64 6.85v-.8c0-1.33 2.18-8.24 15.24-8.24 2.53 0 8.12.86 12.66 4.73Zm-.95 4.06c.31.77.94 2.55.94 3.56 0 1.27-.66 3.12-1.5 4.08 1.15-.93 2.05-2.37 2.05-3.77s-.31-2.7-1.49-3.87Z" fill="#F9A01B" /></svg>