<?xml version='1.0' encoding='utf-8'?>
<!-- by TradeStack -->
<svg viewBox="0 0 56 56" xmlns="http://www.w3.org/2000/svg"><path fill="#EF273A" d="M0 0h56v56H0z" /><path d="M20.5 21.02l.52.6c.18.24.47.38.77.38H24v-.98h-3.5zM24 25h-4v2h4v1h-5v-7h1v3h4v1zm0 8.5a3.5 3.5 0 107 0 3.5 3.5 0 00-7 0zm1 0a2.49 2.49 0 012.5-2.5c1.33 0 2.47 1 2.5 2.5a2.45 2.45 0 01-2.5 2.5 2.51 2.51 0 01-2.5-2.5zm22.01-11.88l-.52-.6H50V22h-2.2a.96.96 0 01-.78-.38zM46 25h4v-1h-4v-3h-1v7h5v-1h-4v-2zm-20-4l4 5.3V21h1v7h-1l-4-5.2V28h-1v-7h1zm8 1v6h1v-6h2v-1h-5.35l.47.64c.17.24.42.36.7.36H34zm-21 2.5a2.48 2.48 0 004.45 1.52l.66.82a3.5 3.5 0 110-4.67l-.66.8A2.34 2.34 0 0015.5 22a2.5 2.5 0 00-2.5 2.5zm26.98-2.9l-.47-.6h1.94c.9 0 1.73.57 2 1.41a2.01 2.01 0 01-1.38 2.54c-.08.03-.16.05-.25.06L44 28h-1.27l-2.16-3H39v3h-1v-7h1v3h2.44a1 1 0 001.02-1c0-.62-.62-1-1.12-1h-.6c-.3-.03-.6-.17-.76-.4zM19.5 30l.47.6c.17.23.45.37.76.4h.6c.5 0 1.12.38 1.12 1a1 1 0 01-1.02 1H19v-3h-1v7h1v-3h1.57l2.16 3H24l-2.18-2.99a2.01 2.01 0 001.63-2.6 2.08 2.08 0 00-2-1.41h-1.94zm21.53.65l-.56-.65h1.92c1.15 0 2.1.91 2.1 2.03 0 1.12-.95 1.97-2.1 1.97H40v3h-1v-6.98h1V33h2.4c.52 0 1.1-.25 1.1-1 0-.62-.6-1-1.1-1h-.6c-.3-.02-.58-.11-.76-.35zM13.38 33h2.85l.77 1.04a3.53 3.53 0 01-6.1 1.79 3.48 3.48 0 01.27-4.94 3.53 3.53 0 014.98.28l-.6.8a2.58 2.58 0 00-1.54-.91 2.5 2.5 0 00-2.93 1.9c-.3 1.3.6 2.67 1.9 2.97a2.6 2.6 0 003-1.93h-1.35a.88.88 0 01-.74-.34l-.51-.66zm-2.79-8.45c-.53-.4-1.1-.58-1.68-.74a5.1 5.1 0 01-1.07-.4c-.29-.16-.43-.33-.45-.56-.01-.32.28-.51.4-.59l.02-.01c.57-.3 1.4-.16 1.9.1.29.15.56.36.8.6l.64-.9a6.29 6.29 0 00-.93-.67 3.38 3.38 0 00-2.9-.1c-.62.3-1.02.93-1 1.62.03.61.38 1.12 1 1.47.4.21.84.37 1.29.48.5.15.96.3 1.33.56a.7.7 0 01.25.8c-.13.35-.53.72-1.34.7a3.06 3.06 0 01-2.21-1.08l-.64.9c.83.8 1.8 1.24 2.83 1.27h.07c1.34 0 2.08-.73 2.32-1.44.25-.73.01-1.55-.63-2.01zM37 34.29V30h1v4.29c0 1.47-1.37 2.74-3.05 2.7-1.63-.02-2.95-1.2-2.95-2.64V30h1v4.45c.05.86 1.03 1.55 2 1.55s2.02-.89 2-1.71z" fill="#fff" /></svg>