<?xml version='1.0' encoding='utf-8'?>
<!-- by TradeStack -->
<svg width="56" height="56" viewBox="0 0 56 56" xmlns="http://www.w3.org/2000/svg"><path fill="#F0F3FA" d="M0 0h56v56H0z" /><path d="M13 22.6 27.37 12c.34 3.82 2.38 12.74 7.79 17.9-1.91 2.42-6.04 8.56-7.27 13.78C26.02 38.6 20.42 27.27 13 22.6Zm6.47 8.21c1.97 2.46 6.2 8.93 7.38 15.19L15.06 35.12l4.4-4.3ZM28.57 46c1.2-6.26 5.42-12.73 7.39-15.19l4.4 4.31L28.58 46Zm7.33-16.55 7.1-6.97-14.37-10.14c.36 3.34 2.32 11.45 7.27 17.11Z" fill="#0070E0" /></svg>