<?xml version='1.0' encoding='utf-8'?>
<!-- by TradeStack -->
<svg width="56" height="56" viewBox="0 0 56 56" xmlns="http://www.w3.org/2000/svg"><path fill="#F0F3FA" d="M0 0h56v56H0z" /><path d="M51 21v.2c-.4 0-.72.05-.97.13-.63.2-1.03.77-1.03 1.46v10.56c0 .85.67 1.3 1.46 1.37l.54.07v.03l-.03.09a.1.1 0 0 1-.03.05.08.08 0 0 1-.05.02h-5.16a.1.1 0 0 1-.06-.03.1.1 0 0 1-.03-.07.1.1 0 0 1 .02-.08.08.08 0 0 1 .06-.02c.94 0 1.43-.28 1.43-1.43a1047.21 1047.21 0 0 1-.02-5.54.06.06 0 0 0-.04-.01h-5.96a.09.09 0 0 0-.07.02c-.01.02-.06.05-.06.07V33c0 .53.07.9.16 1.08.3.62.94.7 1.57.71l.03.01.02.02a.08.08 0 0 1 .01.07l-.01.04c-.01.03-.02.05-.04.06a.1.1 0 0 1-.06.02H4.08a.09.09 0 0 1-.05-.03.1.1 0 0 1-.03-.07v-.03c0-.04.01-.07.03-.1a.11.11 0 0 1 .09-.03h33.76c.86 0 1.28-.48 1.28-1.43V23.06c0-.6-.03-1-.11-1.17-.28-.6-.95-.67-1.54-.65a.1.1 0 0 1-.07-.03.11.11 0 0 1-.03-.08v-.04a.09.09 0 0 1 .02-.06.08.08 0 0 1 .06-.03h5.2a.1.1 0 0 1 .08.03c.02.02.03.05.03.08v.05s0 .02-.02.03l-.02.01c-1.26.06-1.78.33-1.76 1.8v4.52l.06.04.04.02h5.94a.1.1 0 0 0 .08-.04.12.12 0 0 0 .03-.08v-4.88c0-1.1-.52-1.4-1.41-1.35a.1.1 0 0 1-.04 0 .1.1 0 0 1-.06-.06l-.01-.05v-.05a.07.07 0 0 1 .02-.05.06.06 0 0 1 .04-.02H51Z" fill="#750F0F" /><path fill-rule="evenodd" d="M21.2 32.98c3.37-.05 4.91-2.74 4.91-5.98s-1.54-5.93-4.9-5.98C20.05 21 18.32 21 16.01 21a.08.08 0 0 0-.06.02.1.1 0 0 0-.02.07v.03l.01.04.04.02c.42.02.67.04.73.06.51.14.76.53.76 1.19a2190.73 2190.73 0 0 0 0 9.12c0 .66-.25 1.05-.76 1.2a6.7 6.7 0 0 1-.77.07.06.06 0 0 0-.02.04v.03c0 .03.01.05.03.07l.06.02h5.18Zm-2.19-11.72-.01.05v11.38a.13.13 0 0 0 .04.1.13.13 0 0 0 .1.03h1.76a3.3 3.3 0 0 0 2.55-1.3 5.02 5.02 0 0 0 1.05-3.14v-2.76c0-1.18-.38-2.3-1.05-3.14a3.3 3.3 0 0 0-2.55-1.3h-1.77a.14.14 0 0 0-.1.04.13.13 0 0 0-.02.04ZM34.85 28.87a89.4 89.4 0 0 0-.93-1.57l.01-.02.02-.02c1.15-.37 2.2-1.08 2.41-2.44.39-2.5-1.24-3.73-3.4-3.79a129.86 129.86 0 0 0-4.91-.01.08.08 0 0 0-.04.05.1.1 0 0 0 .02.1l.02.02h.04c.52 0 1.08.05 1.34.56.07.14.1.46.1.96v9c-.02.9-.7 1.12-1.44 1.1a.07.07 0 0 0-.05.02l-.02.03v.07l.01.05.05.02h4.52a.09.09 0 0 0 .07-.03.1.1 0 0 0 .02-.07.09.09 0 0 0-.05-.09h-.03c-.8 0-1.6-.21-1.6-1.19v-4.1a.1.1 0 0 1 .02-.07.1.1 0 0 1 .07-.03h.92l.12.03c.03.02.06.05.09.1a618 618 0 0 0 2.4 4.02c.45.74.82 1.2 1.66 1.34a7.74 7.74 0 0 0 1.69.05.07.07 0 0 0 0-.1.07.07 0 0 0-.04-.02c-.4-.08-.72-.3-.97-.64-.76-1.05-1.45-2.22-2.12-3.33ZM31 21.27a.1.1 0 0 0-.01.05l.03 5.8a.1.1 0 0 0 .04.08.12.12 0 0 0 .08.04l1.5-.01c.63 0 1.23-.25 1.67-.67.44-.43.68-1 .68-1.6v-1.52a2.17 2.17 0 0 0-.71-1.59 2.38 2.38 0 0 0-1.68-.65h-1.5a.13.13 0 0 0-.08.04.1.1 0 0 0-.02.03ZM15.33 32.82h-.02c-.49.04-.82-.18-1-.66a2668.69 2668.69 0 0 1-4.13-11.14.12.12 0 0 0-.07-.02h-.68a.1.1 0 0 0-.06.02 5169.35 5169.35 0 0 1-3.54 10.61c-.36 1.08-.7 1.2-1.7 1.19h-.04l-.02.02a.08.08 0 0 0-.02.05v.04l.01.05.04.01h3.85l.03-.01.02-.04v-.04c0-.02 0-.04-.02-.06a.08.08 0 0 0-.06-.02H7.8c-.53 0-1.69 0-1.78-.6-.04-.28 0-.59.1-.92.1-.28.39-1.12.84-2.5a.22.22 0 0 1 .08-.1.2.2 0 0 1 .12-.04h4.12a.1.1 0 0 1 .06.02 130.26 130.26 0 0 1 1.02 2.85c.43 1.27-.48 1.35-1.35 1.28h-.03a.06.06 0 0 0-.04.04v.07a.08.08 0 0 0 .02.06.07.07 0 0 0 .05.02h4.3c.01 0 .03 0 .04-.02a.08.08 0 0 0 .03-.05v-.04a.07.07 0 0 0-.03-.05l-.02-.02ZM9.13 22.3l-.02.02-2 6.06a.08.08 0 0 0 .02.07l.02.02.04.01h4.02l.03-.03a.09.09 0 0 0 0-.08c-.67-1.83-1.28-3.55-1.81-5.15a13.5 13.5 0 0 1-.29-.92h-.01Z" fill="#3B3937" /></svg>