<!-- by TradeStack --><svg width="56" height="56" viewBox="0 0 56 56" xmlns="http://www.w3.org/2000/svg"><path fill="#181B1E" d="M0 0h56v56H0z"/><path d="M12 21.22A6.66 6.66 0 0 1 16 15c-1.5 3.7 1.57 6.36 3.23 7.3L26 25.63v-9.25A1.4 1.4 0 0 0 24.57 15H23v-1h8v11.22A6.36 6.36 0 0 1 36.4 22c4.12 0 5.6 3.47 5.6 5.74v10.2c0 .59.51 1.06 1.11 1.06H44v1h-9v-1h.9c.61 0 1.1-.47 1.1-1.05V28a3.38 3.38 0 0 0-3.4-3 3.3 3.3 0 0 0-2.6 1.32v11.33c0 .73.64 1.35 1.3 1.35h.7v1H23v-1c1.47 0 3-.65 3-3.09 0-2.43-1.04-4.18-6.77-6.88-5.73-2.7-7.23-4.68-7.23-7.81ZM12 32h1.1c.23 1.96 1.53 6.1 4.9 7v1l-2.07-1-.44-.26c-.32-.2-.56-.34-.99-.34-.6 0-1.21.87-1.21 1.6h-.79l-.5-8Z" fill="#fff"/></svg>