<?xml version='1.0' encoding='utf-8'?>
<!-- by TradeStack -->
<svg width="56" height="56" viewBox="0 0 56 56" xmlns="http://www.w3.org/2000/svg"><path fill="#F0F3FA" d="M0 0h56v56H0z" /><path d="M35 18h-2v5h2v-2h1l2 2h2l-2.5-2.5L40 18h-2l-2 2h-1v-2ZM47 18h-6v5h6v-1h-4v-1h4v-1h-4v-1h4v-1ZM15 19v.5h-2c0-.4-.33-.5-.5-.5h-1c-.17 0-.5.1-.5.5s.5.5.5.5h2c.5 0 1.5.3 1.5 1.5S14 23 13.5 23H10c-.8 0-1-.67-1-1v-.5h2c0 .4.33.5.5.5h1c.17 0 .5-.1.5-.5s-.33-.5-.5-.5H10c-.8 0-1-.67-1-1v-1c0-.8.67-1 1-1h4c.8 0 1 .67 1 1ZM16 19v-1h6v1h-2v4h-2v-4h-2ZM9 24h5.5c.67 0 2 .4 2 2 0 2-1.5 2-2 2H11v2H9v-6Zm2 3h2.5c.17 0 1 0 1-1s-.83-1-1-1H11v2Z" /><path fill-rule="evenodd" d="M23 18v5h2v-1h1.5c.8 0 1 .67 1 1h2v-1c0-.4-.5-.5-1-.5l.04-.01c.49-.16.96-.32.96-1.49 0-1.5-1-2-2-2H23Zm2 1v2h1.5c.5 0 1-.5 1-1s-.2-1-1-1H25Z" /><path d="M30.5 18h2v5h-2v-5ZM27 24h2v6h-2v-6ZM33 24h-3v6h2v-5l4 5h3v-6h-2v5l-4-5ZM40 25v-1h7v1h-2.5v5h-2v-5H40ZM19 27.1v.9a1 1 0 0 0 1 1h1.4v1H19a2 2 0 0 1-2-2v-.9h2Zm2.4-2.1H20a1 1 0 0 0-1 1v.9h-2V26c0-1.1.9-2 2-2h2.4v1Zm2.6 1.9V26a1 1 0 0 0-1-1h-1.4v-1H24a2 2 0 0 1 2 2v.9h-2ZM21.6 29H23a1 1 0 0 0 1-1v-.9h2v.9a2 2 0 0 1-2 2h-2.4v-1ZM21.4 26.9V26h.2v.9h.9v.2h-.9v.9h-.2v-.9h-.9v-.2h.9Z" /><path d="M22 27a.5.5 0 1 1-1 0 .5.5 0 0 1 1 0Z" fill="#F7E583" /><path fill-rule="evenodd" d="M15.09 32.5c.35-.01.91-.02.91.83h2v-1.16c0-.4-.2-1.17-1-1.17h-7c-.33 0-1 .23-1 1.17v4.66c0 .4.2 1.17 1 1.17h7c.33 0 1-.23 1-1.17V34h-5v1.34h3v.58c0 .2-.1.58-.5.58h-4c-.17 0-.5-.12-.5-.58v-2.59c0-.39.2-.83 1-.83h3.09Zm6.91 0h3c.55 0 1 .52 1 1.17v1.66c0 .65-.45 1.17-1 1.17h-3c-.55 0-1-.52-1-1.17v-1.66c0-.65.45-1.17 1-1.17Zm-3 .83c0-1.29.9-2.33 2-2.33h5c1.1 0 2 1.04 2 2.33v2.34c0 1.29-.9 2.33-2 2.33h-5c-1.1 0-2-1.04-2-2.33v-2.34ZM32 31h-2v7h7v-1.5h-5V31Zm6 0h7c.67 0 2 .4 2 2v3c0 .67-.4 2-2 2h-7v-7Zm2 5.5v-4h3.5c1.2 0 1.5 1 1.5 1.5v1c0 1.2-1 1.5-1.5 1.5H40Z" fill="url(#agp0cpwon)" /><defs><linearGradient id="agp0cpwon" x1="9.5" y1="35.5" x2="46" y2="35" gradientUnits="userSpaceOnUse"><stop stop-color="#E2C65E" /><stop offset=".41" stop-color="#FDE781" /><stop offset="1" stop-color="#D2AD54" /></linearGradient></defs></svg>