<?xml version='1.0' encoding='utf-8'?>
<!-- by TradeStack -->
<svg width="56" height="56" viewBox="0 0 56 56" xmlns="http://www.w3.org/2000/svg"><path fill="#F0F3FA" d="M0 0h56v56H0z" /><path d="M7.67 29.96c.1-.22.15-.46.14-.7a1.58 1.58 0 0 0-.64-1.35c-.19-.15-.4-.27-.62-.36a20.1 20.1 0 0 1-.6-.26 2.06 2.06 0 0 1-.46-.27.45.45 0 0 1-.14-.17.48.48 0 0 1-.05-.21c0-.1.02-.2.07-.3a.62.62 0 0 1 .22-.18 1 1 0 0 1 .27-.12l.3-.03c.18 0 .36.03.52.1.15.07.28.17.4.28l.54-.85a2.37 2.37 0 0 0-2.24-.42c-.21.06-.41.17-.59.31-.16.15-.3.32-.4.52-.1.22-.15.46-.14.7-.01.29.07.57.23.8.14.22.33.4.54.53.18.11.37.21.57.28.19.07.38.16.56.25.16.08.3.19.44.32.06.05.1.12.13.19.04.07.05.15.05.23a.71.71 0 0 1-.21.53.8.8 0 0 1-.58.22c-.25 0-.49-.06-.7-.18a2 2 0 0 1-.58-.46l-.7.77c.27.27.58.49.92.64.33.16.7.23 1.06.23a1.95 1.95 0 0 0 1.27-.48c.17-.15.3-.34.4-.55h.02ZM11 26h1.52v-1H8.6v1H10v5h1v-5Zm3 5h1v-6h-1v6Zm3 0h2.5v-1H18v-5h-1v6Zm4 0h2.5v-1H22v-5h-1v6Zm5-5h2v-1h-3v6h1v-2.5h2v-1h-2V26Zm5.95 1.5H31V26h.95c.29-.01.55.2.65.48.15.42-.18 1.04-.65 1.02ZM34.7 31l-2.03-2.75c.6-.2 1.04-.87 1-1.54.02-.89-.75-1.74-1.66-1.71H30v6h1v-2.5h.48l1.94 2.5h1.28Zm4.93-3a2.05 2.05 0 0 1-1.1 1.84 1.7 1.7 0 0 1-2-.42 2.05 2.05 0 0 1-.5-1.42 2.18 2.18 0 0 1 .5-1.4 1.74 1.74 0 0 1 1.28-.59 1.67 1.67 0 0 1 1.28.59 1.98 1.98 0 0 1 .54 1.4Zm.84 1.18a3.35 3.35 0 0 0 0-2.34 2.87 2.87 0 0 0-1.48-1.6 2.81 2.81 0 0 0-3.78 1.6 3.27 3.27 0 0 0 0 2.34 2.79 2.79 0 0 0 3.78 1.59c.33-.16.64-.37.9-.64.25-.28.45-.6.58-.95ZM46 31h1v-6h-1v4.18L43 25h-1.02l.02 6h1v-4.16L46 31Zm6-5v-1h-4v1h1.5v5h1v-5H52Z" /></svg>