<!-- by TradeStack --><svg width="56" height="56" viewBox="0 0 56 56" xmlns="http://www.w3.org/2000/svg"><path fill="#F0F3FA" d="M0 0h56v56H0z"/><path d="M28.5 19c8.4 0 17.8 2.55 21.54 4-21.63-1.78-23.92.2-26.04 1 18.22.46 27 1.01 27 5.66C51 34.32 35.7 37 26.63 37c-9.06 0-12.82-1.86-16.84-3.5 15.3 2.26 22.35.01 23.21-.5-7.02.64-28-1.81-28-6.02C5 22.77 17.99 19 28.5 19Z" fill="#A3915D"/><path fill-rule="evenodd" d="M23.5 25.4c-.23-.28-.46-.57-.68-.87h-.2c.02.25.1.57.27.94-.93.09-1.8.13-2.56.13.25-.32.56-.68.96-1.09-.42.2-1.04.59-1.55 1.08-1.28-.05-2.1-.24-2.14-.56-.05-.56 2.45-1.3 5.57-1.64 3.13-.35 5.7-.18 5.76.39.01.14-.14.3-.42.45a72.7 72.7 0 0 0-3.89-.25c1.05.06 2.3.18 3.65.36-.42.2-1.03.38-1.77.56-.8-.2-1.65-.37-2.54-.51.56.14 1.26.35 2.04.62-.74.15-1.6.29-2.5.4Zm3.46-.05c-.91.2-1.95.38-3.07.51.4.45.8.87 1.21 1.26 1.7-.2 3.15-.47 4.33-.77-.86-.38-1.7-.72-2.47-1Zm.65-.16c.96.28 1.86.59 2.7.92 1.04-.31 1.84-.64 2.42-.94a43.46 43.46 0 0 0-3.16-.63c-.48.22-1.15.45-1.96.65Zm2.27-.82c.35-.2.53-.4.52-.59-.07-.74-3.26-1-7.12-.57-3.87.43-6.94 1.38-6.87 2.12.04.44 1.16.71 2.88.77a1.93 1.93 0 0 0-.41 1.35c-2.34-.02-5.26-.52-4.33-1.65-.27.14-.8.52-.8.89 0 .44 1.04 1.22 5.2 1.28.1.46.32.97.75 1.5-2.08 0-6.08-.3-6.7-1.2 0 .35.74 1.74 6.37 1.74h.86a8.1 8.1 0 0 0 2.18 1.34l-1.35.03c-2.81 0-4.95-.48-5.67-.71.16.58 4.35 1.13 6.43 1.13l1.73-.01c1.06.36 2.37.67 3.96.92-2.1.07-3.9.03-5.1-.06 12.43 1.38 17.3-1.73 17.56-2.09-.73.28-1.5.53-2.29.75a3.83 3.83 0 0 0-.7-1c1.44-.4 2.48-.82 3.23-1.23.2.36.32.74.34 1.15l.18.05c.1-.1.29-.46.29-1.03 0-.11-.04-.3-.16-.56.87-.6 1.14-1.1 1.14-1.35 0-.4-.15-.69-.42-.69-.09.54-.48 1.02-1.11 1.44a5.8 5.8 0 0 0-1.5-1.23c.49-.38.76-.79.76-1.23 0-.73-1.3-1.01-1.5-1.01.14.1.43.37.43.67 0 .18-.27.53-.9.96-.78-.35-1.77-.7-2.98-1 .34-.27.53-.55.53-.85 0-.77-2.66-1.15-3.58-1.22.92.11 2.1.57 2.1 1.03 0 .16-.2.4-.63.68-.98-.2-2.08-.37-3.32-.52ZM20 26.11a2.23 2.23 0 0 0-.28 1.33c1.6-.01 3.06-.1 4.37-.21a7.63 7.63 0 0 1-.95-1.28c-1.14.11-2.2.16-3.14.16Zm.74 3.35a3.53 3.53 0 0 1-.93-1.48c1.27-.02 2.95-.12 4.73-.3.5.5 1.11 1 1.87 1.52-1.68.15-3.56.24-5.67.26Zm2.95 1.83c-.87-.36-1.68-.8-2.35-1.3 1.9-.04 3.87-.15 5.78-.32.64.4 1.36.79 2.17 1.18-2.06.23-4.04.37-5.6.44Zm5.02 1.37a23.15 23.15 0 0 1-3.77-.9 78.8 78.8 0 0 0 5.59-.34c.69.29 1.43.58 2.23.86-1.39.18-2.76.3-4.05.38Zm11.1-4.17a6.16 6.16 0 0 0-1.48-1.22c-.85.47-2.05.88-3.5 1.23.6.4 1.1.8 1.52 1.18 1.35-.33 2.55-.73 3.45-1.2Zm-2.67-1.86c-.87-.4-1.84-.75-2.88-1.06-.7.38-1.7.71-2.87 1 .93.43 1.78.87 2.52 1.33 1.42-.42 2.48-.86 3.23-1.27Zm-11.55.94c1.64-.2 3.32-.45 4.81-.77.85.4 1.71.86 2.55 1.36-1.47.36-3.26.7-5.43.93-.64-.45-1.29-.95-1.93-1.52Zm2.63 2c2.02-.22 3.95-.5 5.63-.85.57.37 1.11.76 1.63 1.17-1.64.35-3.45.63-5.22.85-.64-.33-1.33-.72-2.04-1.18Zm3.22 1.75c1.9-.22 3.47-.5 4.77-.81.34.3.66.61.95.93-1.21.32-2.48.56-3.74.75l-.64-.28c-.36-.16-.82-.35-1.34-.6Z" fill="#2C3481"/></svg>