<!-- by TradeStack --><svg width="56" height="56" viewBox="0 0 56 56" xmlns="http://www.w3.org/2000/svg"><path fill="#F0F3FA" d="M0 0h56v56H0z"/><path d="M28.11 24.5a47.61 47.61 0 0 1 11.38-4c.9-.2 2.01-.34 3.33-.45 1.5-.12 3.39-.05 4.64.71 1.23.75 1.13 2.03.56 3.15-.1.18-.13.17-.13-.03.09-1.85-2.57-2.41-4.01-2.5a21.97 21.97 0 0 0-3.81.05c-2.74.3-5.45.88-8.11 1.73a64.95 64.95 0 0 0-3.86 1.35l.01-.02Z" fill="#EE3E69"/><path fill-rule="evenodd" d="M19.61 30.06c-.22 0-.37-.05-.47-.13a.61.61 0 0 1-.22-.5v-4.99c0-.29-.15-.43-.45-.44h-.02c-.3.01-.45.17-.45.45v4.53c0 .51.04.87.13 1.09.4.94 1.32.97 2.21.9.24 0 .38-.15.44-.42v-.01c-.04-.3-.18-.45-.44-.46l-.73-.02Zm3.73.02-.73-.02c-.22 0-.37-.05-.47-.13a.61.61 0 0 1-.22-.5v-4.99c0-.29-.15-.43-.45-.44h-.02c-.3.01-.44.16-.44.45L21 28.98c0 .51.04.87.13 1.09.39.94 1.32.97 2.21.9.24 0 .38-.15.44-.42v-.01c-.04-.3-.18-.45-.44-.46ZM6.91 27.83v1.41c.01.56.36.66.84.66h3.21c.3 0 .45.16.49.45v.05c-.07.28-.22.42-.46.42H8c-.57 0-.98-.06-1.23-.2-.8-.43-.78-1.33-.76-2.3a20.91 20.91 0 0 0 0-.98c-.03-.97-.05-1.88.76-2.3.25-.14.66-.21 1.23-.21h3c.23 0 .38.14.45.42v.05c-.04.3-.2.45-.49.45H7.75c-.48 0-.83.1-.83.66v1.42Zm40.41.03h-.06l-1.93-1.72c-.23-.2-.42-.18-.6.03l-.01.03c-.2.24-.18.46.05.67a207.88 207.88 0 0 0 1.8 1.63v.03l-1.8 1.6c-.23.2-.24.43-.05.67l.02.03c.17.22.37.23.59.03a206.5 206.5 0 0 0 1.96-1.72h.03c.77.7 1.41 1.26 1.94 1.72.22.2.42.18.59-.03l.02-.03c.19-.24.17-.46-.05-.67a243.06 243.06 0 0 0-1.8-1.63v-.03l1.8-1.6c.22-.2.24-.43.05-.67l-.02-.03c-.17-.22-.37-.23-.6-.03l-1.93 1.72Zm-19.07-1.43c.31-.3.69-.43 1.14-.43l1.26.03c.53.01.9.08 1.07.2.62.44.73.98.74 1.8l-.01 2.47c0 .27-.15.44-.42.5-.02 0-.07 0-.16-.03a.46.46 0 0 1-.25-.18.51.51 0 0 1-.1-.3v-2.9c0-.15-.05-.3-.15-.4a.52.52 0 0 0-.38-.17h-1.76a.54.54 0 0 0-.4.18.6.6 0 0 0-.17.43v2.84c0 .29-.15.46-.44.52h-.02c-.32-.02-.47-.18-.48-.5l-.01-2.88c0-.38-.21-.57-.63-.58h-1.55c-.55 0-.6.37-.6.88 0 .82 0 1.66-.02 2.53 0 .28-.13.46-.38.54a.17.17 0 0 1-.05.02c-.3-.03-.45-.19-.46-.48L24 28.06c0-.57.07-.98.21-1.24.3-.54.77-.81 1.45-.81h1.44c.35 0 .7.14 1.04.42.04.03.08.03.11 0Zm-15.4 2.65c-.24 0-.32.13-.24.37l.06.2c.1.25.26.37.51.37h3.43c.26 0 .4.17.45.51 0 .01 0 .06-.04.15-.07.2-.22.31-.42.32l-3.29-.01c-.65 0-1.12-.27-1.4-.78a4.18 4.18 0 0 1-.2-1.84v-.44c-.03-1.11.46-1.89 1.56-1.92l1.95-.01c.5 0 .85.04 1.05.12 1.03.4 1 1.57.93 2.55 0 .12-.05.22-.13.3a.4.4 0 0 1-.28.11h-3.94Zm-.2-.96-.04-.02a.06.06 0 0 1-.01-.04v-.43c0-.18.06-.35.18-.48.12-.12.28-.2.45-.2h2.45a.6.6 0 0 1 .45.2.67.67 0 0 1 .18.48v.43l-.01.04a.05.05 0 0 1-.04.02h-3.6Zm21.27 1.33c-.09-.25 0-.45.24-.45h3.94c.1 0 .2-.03.28-.1l.02-.03c.06-.06.1-.1.1-.2.07-.98.1-2.14-.92-2.55-.2-.08-.56-.12-1.05-.12h-1.95c-1.1.04-1.6.81-1.57 1.93v.44c-.02.58-.04 1.37.21 1.84.28.51.74.77 1.4.78h3.28c.2 0 .35-.1.42-.3a.73.73 0 0 0 .05-.16c-.05-.34-.2-.53-.45-.53h-3.43c-.26 0-.42-.1-.51-.36l-.06-.19Zm.01-1.47L34 28h3.56c.02 0 .04 0 .05-.02a.07.07 0 0 0 .03-.05v-.34c0-.16-.07-.3-.2-.42a.68.68 0 0 0-.45-.17h-2.43a.68.68 0 0 0-.45.17.56.56 0 0 0-.2.42v.34c0 .02.02.04.03.05Zm9.55-2.03V24.4c0-.26.14-.4.44-.4h.02c.28.02.42.17.42.45v4.47c0 .85-.06 1.52-.81 1.9-.27.14-.73.2-1.39.18l-1.5-.02c-.85 0-1.37-.34-1.57-1.02-.07-.27-.1-.61-.08-1.04v-.5c-.01-.84-.02-1.86.82-2.25.27-.12.74-.18 1.43-.17h2.15c.04 0 .07 0 .07-.05Zm-.09 1.06c.05 0 .08.03.08.08v2.3c0 .16-.06.31-.17.43a.56.56 0 0 1-.4.18h-2.03c-.6 0-.95 0-.96-.74l.01-1.72c.02-.35.23-.52.63-.53h2.84Z" fill="#010101"/><path d="M8.39 31.97c-.42 2.89 5.82 2.82 7.59 2.7a54.74 54.74 0 0 0 13.89-2.84l-.01.02a57.6 57.6 0 0 1-12.36 3.7c-1.65.3-3.34.44-5.08.45-1.4 0-3.23-.18-4.24-1.09-.96-.86-.5-2.1.11-2.98.09-.12.12-.1.1.04Z" fill="#00AABC"/></svg>