<!-- by TradeStack --><svg width="56" height="56" viewBox="0 0 56 56" xmlns="http://www.w3.org/2000/svg"><path fill="#F0F3FA" d="M0 0h56v56H0z"/><path d="M28.26 11c.76.07 1.52.16 2.28.26a16.3 16.3 0 0 1 6.84 2.54c-.18.34-.18.34 0 0-4.82-2.58-9.69-2.83-14.61-.75a15.96 15.96 0 0 0-6.34 4.83 16.24 16.24 0 0 0-.6 19.44 16.18 16.18 0 0 0 10.52 6.75 16.33 16.33 0 0 0 11.3-1.99 17.22 17.22 0 0 1-19.38-.15c-2-1.36-3.61-3.07-4.85-5.14a16.83 16.83 0 0 1-2.26-6.45 17.07 17.07 0 0 1 3.64-13.06c3.25-3.98 7.61-6.07 13.08-6.28h.38Z" fill="#06375F"/><path d="m21.98 41.83.36-.2a9.44 9.44 0 0 0 3.74 1.24c1.28.17 2.6.17 3.97 0 .15-.02.23-.06.24-.14.1.07.18.1.27.1.03 0 .06-.01.07-.04a.08.08 0 0 0-.01-.1 18.28 18.28 0 0 0-6.02-4.36c-.83-.38-1.42-.7-1.78-.94-.61-.4-1.06-.88-1.36-1.42a6.46 6.46 0 0 1-.7-2.67c-.09-1.21.14-2.1.68-2.65.67-.69 1.44-.75 2.3-.2a13.8 13.8 0 0 1 3.74 3.56 31.7 31.7 0 0 1 2.04 3c.06.1.09.24.1.41v.13c0 .1.04.18.1.26 1 1.33 1.7 2.8 2.12 4.38.03.1.09.13.18.09l.09-.03c.03-.02.04-.04.03-.07a12.97 12.97 0 0 0-2.17-4.5.24.24 0 0 1-.02-.26c1.2-2.52 1.63-4.73 1.28-6.64-.04-.18-.03-.39 0-.6.04-.16.08-.16.14-.01l.41 1.08c.05.12.12.14.2.04l.07-.08c.08-.08.15-.08.22 0 .44.55.87 1.12 1.28 1.7l.07.05c.07.02.1 0 .1-.08v-.17c0-.1.06-.14.15-.09.44.22.81.48 1.13.8.14.14.27.14.4 0l.45-.44c.07-.07.13-.06.16.04l.12.3c.03.09.1.14.18.16.09.01.16 0 .22-.07l1.31-1.3a.17.17 0 0 1 .18-.05c.07.02.11.07.12.14.02.07.04.13.09.17.06.06.11.05.14-.03l.85-2.1c.03-.08.08-.11.16-.11s.13.03.16.1c.04.08.11.14.23.17.1.03.15 0 .15-.11 0-.2-.1-.36-.3-.49.18-.1.22-.16.1-.18l.36.15c.09.04.13.11.14.2.08 1.64-.05 3.24-.4 4.8a12.86 12.86 0 0 1-1.78 4.48l.01.02c.02.02.04.02.07 0l1.1-1.07a14.46 14.46 0 0 0 4.05-10.93 14.68 14.68 0 0 0-3.53-8.93 14.5 14.5 0 0 0-8.25-4.95 15 15 0 0 0-12.3 2.63V16a16.3 16.3 0 0 1 11.58-3.55 15.4 15.4 0 0 1 10.66 5.63 15.64 15.64 0 0 1-19.45 23.75Z" fill="#5DBB46"/><path d="m39.22 38.2-1.1 1.06c-.03.03-.05.03-.07.01l-.01-.02v-.03c.81-1.23 1.41-2.7 1.79-4.45.34-1.56.47-3.16.39-4.8 0-.09-.06-.16-.14-.2l-.35-.15a64 64 0 0 0 .02-1.9c0-.61-.1-1.24-.27-1.89-.34-1.28-.64-2.5-.89-3.68a5.54 5.54 0 0 0-.32-.94.38.38 0 0 1-.02-.27c.18-.5.26-1 .26-1.52a.35.35 0 0 0-.04-.15c-.03-.07-.08-.1-.15-.1-.12 0-.17-.06-.16-.19.02-.15-.02-.24-.1-.27-.04.02-.09.01-.14-.02a.34.34 0 0 1-.16-.19c-.06-.2-.15-.38-.25-.52-.17-.23-.26-.2-.27.08-.04.6-.26 1.06-.65 1.36l-.53.38c-.76.54-1.25.99-1.47 1.36-.04.07-.1.08-.15.01a9.24 9.24 0 0 0-1.85-1.57c-.58-.4-.87-.86-.84-1.41.02-.48-.1-.52-.36-.1-.25.4-.33.9-.24 1.48.12.76.82 1.6 2.1 2.5.16.12.24.28.24.48 0 .2-.08.37-.25.49-.2.14-.45.2-.73.2-.32.01-.53-.1-.62-.33-.26-.62-.2-1.04.17-1.25.13-.08.15-.17.04-.28l-.26-.26c-.07-.07-.16-.08-.25-.02-.48.31-.74.73-.77 1.24-.04.53.18.97.67 1.3.3.2.82.26 1.58.16.58-.08 1.03-.54 1.37-1.38.1-.25.15-.24.18.02.03.34.17.64.4.9.26.29.7.45 1.32.49.65.05 1.1-.07 1.37-.34.62-.64.6-1.4-.06-2.27-.17-.22-.35-.23-.55-.03l-.1.1c-.16.15-.16.3 0 .45.3.3.32.65.07 1.08-.35.58-.8.64-1.37.18-.38-.3-.37-.61.03-.93l.26-.2a5.13 5.13 0 0 0 1.62-1.72c.1-.25.22-.49.37-.73 0 .5-.12.9-.35 1.18-.1.14-.1.27.02.4.38.38.6.79.68 1.2.06.39 0 .74-.2 1.05-.2.32-.48.54-.87.68-.4.14-.85.16-1.34.06-.43-.08-.73-.08-.9.02-.21.11-.33.38-.36.8-.02.4-.12.42-.3.08l-.1-.32c-.15-.57-.49-.78-1-.64-.72.2-1.33.17-1.84-.1-.55-.3-.81-.83-.78-1.57.02-.53.27-.96.74-1.28.07-.05.09-.12.04-.2a2.79 2.79 0 0 1-.44-1.92c0-.02 0-.04-.03-.06a.2.2 0 0 0-.08-.02c-.08-.01-.13.03-.13.11-.01.15-.08.28-.2.41a.35.35 0 0 0-.1.26c0 .42.07.83.22 1.22.03.08.03.16.01.24l-1.12 4.55c-.03.1 0 .18.1.23.82.44 1.5 1.92 2.07 4.43.06.27.2.42.42.44.09 0 .16.04.2.11l.96 1.37c.06.1.13.1.2 0l.06-.07c.05-.06.1-.07.16-.02l1.37 1.07c.07.05.13.05.2-.02l.62-.62c.08-.07.13-.05.17.06l.14.37c.03.06.08.1.14.12.08.01.13 0 .18-.05l1.4-1.4c.05-.05.1-.05.15 0l.08.08c.09.08.15.07.2-.04l.75-1.87c.04-.1.1-.13.2-.11.1.01.2.07.3.15.2.13.3.3.3.49 0 .1-.05.14-.15.11-.12-.03-.2-.09-.23-.17a.16.16 0 0 0-.16-.1.16.16 0 0 0-.16.1l-.85 2.1c-.03.1-.08.1-.14.04a.28.28 0 0 1-.09-.17.17.17 0 0 0-.12-.14.17.17 0 0 0-.18.04l-1.3 1.31a.23.23 0 0 1-.23.07.23.23 0 0 1-.18-.16l-.12-.3c-.03-.1-.09-.1-.16-.04l-.44.45c-.14.13-.27.13-.4 0-.33-.33-.7-.6-1.14-.8-.1-.06-.14-.03-.14.08v.17c0 .08-.04.1-.1.08a.18.18 0 0 1-.08-.06c-.41-.57-.84-1.14-1.28-1.68-.07-.09-.14-.09-.22 0l-.07.07c-.08.1-.15.08-.2-.04l-.41-1.08c-.06-.15-.1-.15-.13 0-.04.22-.05.43-.01.61.34 1.9-.08 4.12-1.29 6.64-.04.1-.03.18.03.27a12.97 12.97 0 0 1 2.17 4.49c.01.03 0 .05-.03.07l-.09.03c-.1.04-.15 0-.18-.1a12.64 12.64 0 0 0-2.13-4.37.48.48 0 0 1-.1-.26v-.13c0-.17-.03-.3-.09-.4a31.7 31.7 0 0 0-2.18-3.19 13.8 13.8 0 0 0-3.6-3.38c-.86-.55-1.63-.49-2.3.2-.54.55-.77 1.44-.69 2.65.08 1.05.31 1.94.71 2.67.3.54.75 1.01 1.35 1.42.37.25.96.56 1.8.94a18.28 18.28 0 0 1 6.01 4.36c.02.03.02.06.01.1a.08.08 0 0 1-.07.04c-.09 0-.18-.03-.28-.1a21.34 21.34 0 0 0-5.9-4.21c-1.03-.5-1.74-.9-2.12-1.2a4.22 4.22 0 0 1-1.32-1.77 6.8 6.8 0 0 1-.45-2.41 4.41 4.41 0 0 1 .51-2.46c.27-.42.56-.77.86-1.04a10.3 10.3 0 0 1 1.45-1.03c.52-.35.72-.93.6-1.73l.24.12c0 .54-.15 1-.44 1.36-.18.22-.5.5-.99.84-.37.27-.65.48-.82.64-.03.03-.03.06 0 .09l.04.06c.02.03.04.04.07.01.38-.3.92-.26 1.64.11a11.3 11.3 0 0 1 1.69 1.17c.06.05.09.04.06-.05a40.92 40.92 0 0 1-.73-3.55 6.14 6.14 0 0 0-.34-.97.67.67 0 0 1 .24-.25c.21.33.33.55.36.68l.69 3.31c.18.91.63 1.66 1.33 2.24.03.02.06.02.1 0 .02 0 .04-.03.04-.07.03-1.93.4-3.8 1.14-5.59.06-.14.21-.38.46-.72.3-.39.46-.66.5-.81.5-2.31.9-3.83 1.16-4.55.04-.1.04-.18.02-.28a5 5 0 0 1-.12-1.76c.01-.1.06-.12.15-.1l.1.01c.08.01.14-.03.17-.11.2-.6.55-1.07 1.06-1.38a.16.16 0 0 1 .17 0c.06.03.1.08.1.15-.05 1.42.43 2.06 1.44 1.9a6.56 6.56 0 0 1 2.13 0c.9.15 1.36-.44 1.39-1.78 0-.3.13-.37.38-.2.43.3.72.68.87 1.16.03.09.09.15.17.18l.16.05c.1.03.15.1.17.2.08.6.04 1.18-.12 1.76-.03.1-.02.18.02.27.08.17.18.47.28.9l1.17 4.42c.33 1.25.54 2.68.62 4.29.13 2.6-.36 5.13-1.46 7.57Z" fill="#001B56"/><path d="m38.05 18.71-.07.71a5.13 5.13 0 0 1-2 2.46l-.25.2c-.4.3-.4.62-.03.92.57.46 1.03.4 1.37-.18.25-.43.23-.79-.07-1.08-.15-.15-.15-.3 0-.46l.1-.1c.2-.2.38-.18.55.04.66.88.68 1.63.06 2.27-.27.27-.72.39-1.36.34-.63-.04-1.07-.2-1.32-.48a1.54 1.54 0 0 1-.41-.9c-.03-.27-.09-.28-.18-.03-.34.84-.8 1.3-1.37 1.38-.76.1-1.28.04-1.58-.16-.49-.33-.71-.77-.67-1.3.03-.51.29-.93.77-1.24.1-.06.18-.05.25.02l.26.26c.1.1.1.2-.04.28-.37.21-.42.63-.17 1.25.09.23.3.34.62.34.29 0 .53-.07.73-.21a.56.56 0 0 0 .25-.48c0-.2-.08-.37-.24-.49-1.28-.9-1.98-1.74-2.1-2.5-.09-.59 0-1.08.25-1.49.25-.4.37-.37.35.1-.03.56.26 1.03.84 1.42.73.47 1.34 1 1.85 1.57.06.07.1.06.15-.01.22-.37.71-.82 1.47-1.36l.53-.38c.4-.3.61-.76.65-1.36.01-.28.1-.3.27-.08.1.14.19.32.25.52.03.09.09.15.16.2.05.02.1.03.13.01Z" fill="#5DBB46"/><path d="M35.62 19.87c-.5.33-.85.63-1.04.9-.05.08-.11.08-.17 0a4.1 4.1 0 0 0-1.04-.88c-.2-.12-.19-.19.05-.19h2.15c.2 0 .21.06.05.17Z" fill="#5DBB46"/><path d="M24.57 26.46a.67.67 0 0 0-.24.25l-.1-.07c-.1-.07-.13-.05-.12.07l.04.3-.24-.13c-.17-.6-.5-1.03-.95-1.29-.28-.15-.33-.09-.18.18.04.07.1.16.21.28l-.17.08c-.22-.37-.52-.49-.9-.36-.54.19-.54.37 0 .56.1.03.2.2.29.52a.13.13 0 0 0-.11.1c-.14-.3-.33-.5-.57-.57a.63.63 0 0 0-.58.09.66.66 0 0 0-.3.52c0 .25.1.5.32.73l-.07.2c-.56-.5-.66-1-.3-1.47.29-.37.76-.66 1.41-.86.3-.09.47-.2.54-.32.11-.22 0-.47-.35-.73.15-.14.27-.15.36-.04.24.3.57.65.98 1.06.07.07.1.06.07-.04-.05-.2-.28-.52-.69-.97a7.19 7.19 0 0 1-.29-.32c-.18-.23-.34-.21-.48.04-.13.26-.46.48-.98.68l-1.38.72a.17.17 0 0 1-.2-.01.16.16 0 0 1-.06-.17.53.53 0 0 1 .15-.25l.18-.37c.4-.84.77-1.31 1.12-1.43.15-.05.14-.08-.01-.09-.41-.03-.82.46-1.24 1.48-.03.09-.1.12-.18.1-.14-.14-.27-.13-.4.03a.4.4 0 0 0-.08.28l-.15.13-.79-.23c-.35-.1-.52.03-.52.39v2.68c0 .1-.03.2-.1.27-.34.5-.82.82-1.43.97-.1.02-.14-.02-.1-.11.57-1.47.78-2.98.62-4.55a.17.17 0 0 0-.14-.15c-.16-.04-.25-.07-.26-.1-.04-.09 0-.16.09-.23l4.33-2.99c.1-.07.21-.09.33-.05l6.44 2.09c.04 0 .06.03.06.07 0 .04 0 .07-.04.1l-3.13 2.16c-.09.06-.1.13-.05.23l.34.54Z" fill="#06375F"/><path d="M32.53 22.66c.14.02.26-.08.38-.31.04-.09.1-.11.19-.07l.1.04a.2.2 0 0 1 .13.15.2.2 0 0 1-.04.18c-.28.31-.55.44-.81.4-.27-.05-.48-.27-.62-.66a.2.2 0 0 1 .02-.2.2.2 0 0 1 .18-.08h.1c.1 0 .16.04.16.13.03.26.1.4.2.42ZM36.47 23.05c-.26.05-.53-.08-.8-.4a.2.2 0 0 1-.05-.18.2.2 0 0 1 .13-.15l.1-.04c.1-.04.16-.01.2.07.1.23.23.34.37.31.12-.02.19-.15.21-.4.01-.1.06-.15.16-.15h.11a.2.2 0 0 1 .17.1.2.2 0 0 1 .02.2c-.14.38-.35.6-.62.64Z" fill="#F0F3FA"/><path d="M22.2 24.54c.35.26.46.5.35.73-.06.13-.24.23-.53.32-.66.2-1.13.49-1.42.86-.36.48-.26.97.3 1.47.96.14 1.4-.22 1.3-1.07-.09-.31-.18-.49-.28-.52-.54-.19-.54-.37 0-.56.38-.13.68 0 .9.36.43.89.31 1.6-.36 2.14a.46.46 0 0 1-.26.1 5.58 5.58 0 0 1-1.82-.18c-.23-.06-.48-.3-.76-.7-.06-.09-.13-.1-.22-.04-.15.11-.26.32-.32.6-.07.33-.22.53-.44.6a.26.26 0 0 1-.26-.05c-.35-.3-.37-.63-.07-.96l.09.16c-.06.12 0 .2.15.27.1.04.17 0 .2-.1a.6.6 0 0 0-.02-.24l.05-.04c.34-.3.41-.49.22-.55.02-.09.02-.16-.02-.22a.17.17 0 0 0 .05-.09c.01-.08-.03-.13-.1-.14a.38.38 0 0 0-.33.1c-.12.11-.16.09-.14-.07l.06-.36a.5.5 0 0 1 .13-.26l.86-.95c.06.05.11.08.17.1a.53.53 0 0 0-.15.24c-.01.07.01.13.07.17.06.04.12.05.19.01l1.38-.72c.33.04.67-.1 1.03-.41ZM17.03 24.76c.28-.02.44.03.48.13.03.12 0 .21-.09.3-.1.07-.2.08-.3.02-.12-.07-.18-.19-.18-.36 0-.06.02-.1.09-.1ZM19.55 24.93c-.15.04-.3.15-.48.31a.4.4 0 0 1 .08-.28c.13-.16.26-.17.4-.03Z" fill="#5DBB46"/><path d="m19.55 24.93-.04.22-.86.95a.5.5 0 0 0-.13.26l-.06.36c-.02.16.02.18.14.08.1-.09.2-.12.32-.1.08 0 .12.05.11.13 0 .03-.02.06-.05.1-.2-.01-.3.05-.32.19 0 .05-.04.08-.1.07a.21.21 0 0 1-.1-.03c-.08-.05-.12-.03-.13.07l-.02.41c-.3.33-.28.65.07.96.07.07.16.09.26.06.22-.08.37-.28.44-.6.06-.3.17-.5.32-.6.09-.07.16-.06.22.03.28.4.53.64.75.7.59.16 1.2.22 1.83.18.1 0 .19-.04.26-.1.67-.54.79-1.25.36-2.14l.17-.08c.44 1.03.33 1.77-.3 2.21-.6.4-1.37.45-2.33.13a.66.66 0 0 0-.53.06.86.86 0 0 0-.4.44l-.03.12c-.04.16-.05.16-.05 0s-.14-.26-.43-.28a.61.61 0 0 0-.36.07c-.1.05-.12.13-.08.23.13.35.17.66.12.93-.04.16-.15.38-.33.67-.19.3-.32.57-.4.78a7.24 7.24 0 0 0 1.36 7.52 13.6 13.6 0 0 0 3.11 2.7l-.36.2a11.01 11.01 0 0 1-3.52-3 7.64 7.64 0 0 1-1.47-4.38 6.88 6.88 0 0 1 1.2-4.42.36.36 0 0 0 .06-.27c-.06-.52-.2-1-.45-1.44-.13-.23-.06-.67.2-1.31.13-.32.2-.55.22-.68.03-.23.24-.53.64-.9l.06-.06.15-.13c.17-.16.34-.27.48-.3Z" fill="#001B56"/><path d="M17.26 25.54c-.05.83-.06 1.6-.02 2.34.02.3-.16.63-.53 1.01-.04.04-.07.04-.11.02-.04-.02-.06-.05-.05-.1l.54-3.27c.01-.03.03-.04.05-.04h.08c.03 0 .04.01.04.04Z" fill="#5DBB46"/><path d="M34.48 26.2c.12 0 .26.02.42.07.1.02.19.02.28-.01l1.65-.62c.04-.02.09-.01.13.02.04.04.05.08.04.13-.12.46-.18.81-.18 1.05 0 .25.06.6.18 1.05.01.05 0 .1-.04.13a.13.13 0 0 1-.14.03l-1.64-.62a.42.42 0 0 0-.28-.01c-.16.05-.3.07-.42.07s-.26-.02-.42-.07a.42.42 0 0 0-.28 0l-1.64.63a.13.13 0 0 1-.14-.03.12.12 0 0 1-.04-.13c.12-.46.18-.8.18-1.05 0-.24-.06-.6-.18-1.05-.01-.05 0-.1.04-.13a.12.12 0 0 1 .14-.03l1.64.62c.1.04.18.04.28.02.16-.05.3-.08.42-.08Z" fill="#06375F"/><path d="m19.8 26.03.15-.1c.04-.02.04-.01.03.02a.33.33 0 0 0-.03.07c0 .01 0 .02-.02.03-.15.08-.27.18-.38.3-.07.08-.12.08-.14 0l.01-.08c0-.03.02-.06.05-.08l.15-.06a.77.77 0 0 0 .19-.1Z" fill="#001B56"/><path d="m29.77 36.82-2.31-3.32a.31.31 0 0 1-.06-.19c.08-3.28.64-5.6 1.7-6.93.32-.42.62-.4.9.05.4.67.69 1.43.85 2.27.42 2.2.3 4.45-.36 6.71-.22.77-.4 1.24-.54 1.41-.07.08-.13.08-.18 0ZM24.33 26.7c.2.5.32.83.34.98.21 1.3.46 2.48.73 3.55.03.09 0 .1-.06.05l-.04-.03a11.3 11.3 0 0 0-1.65-1.14c-.72-.37-1.26-.4-1.64-.1-.03.02-.05.01-.07-.02l-.05-.06c-.02-.03-.02-.06.01-.09.17-.16.45-.37.82-.64.48-.34.81-.62.99-.84.29-.37.44-.82.44-1.36l-.04-.29c-.01-.12.03-.14.12-.07l.1.07ZM33.99 26.86c-.3.07-.49.05-.55-.08-.04-.1-.02-.13.08-.13.22 0 .38.04.49.1.09.05.08.09-.02.11Z" fill="#5DBB46"/><path d="M35.56 26.76c-.17.12-.34.15-.5.09-.1-.04-.1-.08 0-.12a.7.7 0 0 1 .49-.04c.05.02.05.04.01.07Z" fill="#F0F3FA"/><path d="M21.28 27.32a.27.27 0 1 0 0-.54.27.27 0 0 0 0 .54ZM22.2 26.85c.1.85-.34 1.21-1.3 1.07l.07-.2c.3.13.57.11.8-.05.25-.16.36-.4.33-.72.02-.06.05-.1.1-.1ZM19 27.14c.2.06.12.25-.22.55-.22-.3-.15-.48.22-.55Z" fill="#001B56"/><path d="M18.73 27.73c.02.1.03.17.01.24-.02.1-.09.14-.19.1-.16-.07-.21-.15-.15-.27l.33-.07ZM19.44 31.28c.1 1.16.22 2.33.35 3.5.06.51-.06 1.03-.35 1.55l-.2.4c-.05.1-.12.1-.2.03a2.5 2.5 0 0 1-.72-2.28c.14-1.01.33-2.04.57-3.06.06-.3.1-.68.08-1.17 0-.1.05-.17.14-.21.2-.1.48-.14.84-.12.11.01.14.07.08.17l-.53.92a.44.44 0 0 0-.06.27Z" fill="#06375F"/></svg>