<!-- by TradeStack --><svg width="56" height="56" viewBox="0 0 56 56" xmlns="http://www.w3.org/2000/svg"><path fill="#F0F3FA" d="M0 0h56v56H0z"/><path d="M9.08 22.76A2.94 2.94 0 0 1 11 22h7v2h-7a.94.94 0 0 0-.58.24c-.18.16-.42.5-.42 1.26 0 .66.42 1.15 1.36 1.6.46.21.98.38 1.5.53l.53.15a20.08 20.08 0 0 1 1.33.4c.67.2 1.6.5 2.37.97a3.76 3.76 0 0 1 1.05 5.64C17.47 35.55 16.42 36 15 36H8v-2h7c.98 0 1.43-.3 1.66-.54.24-.28.34-.64.34-.96 0-.82-.37-1.28-.96-1.65a7.88 7.88 0 0 0-1.8-.72l-.56-.18a15.04 15.04 0 0 0-1.37-.4c-.56-.16-1.2-.36-1.8-.65C9.33 28.35 8 27.34 8 25.5c0-1.24.42-2.15 1.08-2.74ZM21 36V22h2v14h-2ZM28 24h-4v-2h10v2h-4v12h-2V24ZM44 24h-2v-2h2c.96 0 1.96.32 2.73 1A3.9 3.9 0 0 1 48 26v6c0 .86-.17 1.87-.82 2.69C46.5 35.55 45.42 36 44 36h-2v-2h2c.98 0 1.4-.3 1.62-.56.25-.31.38-.8.38-1.44v-6c0-.73-.26-1.2-.6-1.5A2.1 2.1 0 0 0 44 24ZM39 24h2v-2h-2a4.1 4.1 0 0 0-2.73 1A3.9 3.9 0 0 0 35 26v6c0 .86.17 1.87.82 2.69.69.86 1.76 1.31 3.18 1.31h2v-2h-2c-.98 0-1.4-.3-1.62-.56-.25-.31-.38-.8-.38-1.44v-6c0-.73.26-1.2.6-1.5.36-.32.86-.5 1.4-.5Z"/></svg>