<?xml version='1.0' encoding='utf-8'?>
<!-- by TradeStack -->
<svg viewBox="0 0 56 56" xmlns="http://www.w3.org/2000/svg"><path fill="#F0F3FA" d="M0 0h56v56H0z" /><path d="M22.35 37.58a14.22 14.22 0 01-5.4-19.37 14.22 14.22 0 0119.45-5.1c.73.43 1.4.88 2 1.35L24.54 38.63a16.69 16.69 0 01-2.18-1.05z" fill="#A77BCA" /><path d="M33.69 18.67a14.22 14.22 0 015.4 19.38 14.22 14.22 0 01-19.45 5.09 16.7 16.7 0 01-2-1.35L31.5 17.62c.72.28 1.45.63 2.17 1.05z" fill="#642F6C" /><path d="M20.69 36.47a16.7 16.7 0 003.84 2.16L35.35 19.8a14.7 14.7 0 00-1.67-1.12 16.69 16.69 0 00-2.17-1.05L20.7 36.47z" fill="#411756" /></svg>