<?xml version='1.0' encoding='utf-8'?>
<!-- by TradeStack -->
<svg width="56" height="56" viewBox="0 0 56 56" xmlns="http://www.w3.org/2000/svg"><path fill="#F0F3FA" d="M0 0h56v56H0z" /><path d="m28 10 16 9.1v17.65L28 46l-16-9.24V19.09L28 10Zm-15 9.7v16.46l14.98 8.64L43 36.17V19.68L27.98 11.2 13 19.7Z" /><path d="M15 23.05v8.97l4.54-4.31L15 23.05Z" fill="url(#akqztxn0t)" /><path d="M15 33.51v1.9l3.17 1.6 5.2-5.17-3.1-3.35L15 33.5Z" fill="#403E3F" /><path d="m32.37 39.95 4.83-2.6-8.93-8.87-3.41 3.39 7.5 8.08Z" fill="url(#bkqztxn0t)" /><path d="m19.15 37.53 8.85 5.3 3.4-2.36-7.3-7.85-4.95 4.91Z" fill="url(#ckqztxn0t)" /><path d="m21.02 27.74 3.25-3.23 3.24 3.23-3.38 3.35-3.11-3.35Z" fill="url(#dkqztxn0t)" /><path d="m38.18 36.82 2.82-1.4V20.58l-3.1-1.68-8.88 8.83 9.16 9.08Z" fill="#414143" /><path d="m19.38 18.17 8.62-5 8.96 5.2-8.7 8.62-8.88-8.82Z" fill="#989898" /><path d="M18.43 18.72 15 20.59v.9l5.3 5.47 3.21-3.2-5.08-5.04Z" fill="#939393" /><path d="M32.54 22.74 28.27 27l-1.38-1.37a8.54 8.54 0 0 1 5.65-2.88Z" fill="#414143" /><path d="M33.79 23A8.5 8.5 0 0 1 41 27.5v-6.91l-3.1-1.68-4.11 4.1Z" fill="#989898" /><defs><linearGradient id="akqztxn0t" x1="15.73" y1="27.47" x2="18.93" y2="27.47" gradientUnits="userSpaceOnUse"><stop stop-color="#323232" /><stop offset="1" stop-color="#535353" /></linearGradient><linearGradient id="bkqztxn0t" x1="26.93" y1="31.18" x2="33.81" y2="38.64" gradientUnits="userSpaceOnUse"><stop stop-color="#535353" /><stop offset="1" stop-color="#777" /></linearGradient><linearGradient id="ckqztxn0t" x1="21.6" y1="36.47" x2="27.96" y2="41.81" gradientUnits="userSpaceOnUse"><stop stop-color="#575757" /><stop offset="1" stop-color="#818284" /></linearGradient><linearGradient id="dkqztxn0t" x1="22.67" y1="26.94" x2="24.78" y2="29.6" gradientUnits="userSpaceOnUse"><stop stop-color="#AEAEB0" /><stop offset="1" stop-color="#B9B9BB" /></linearGradient></defs></svg>