<!-- by TradeStack --><svg width="56" height="56" viewBox="0 0 56 56" xmlns="http://www.w3.org/2000/svg"><path fill="#F0F3FA" d="M0 0h56v56H0z"/><path d="m28.1 46-.22-.04c-.23-.05-5.83-1.17-9.64-2.8-3.38-1.44-5.37-3.1-6.09-5.06l-.03-.08c-.6-1.65-.58-3.68.1-6.4l.44-1.7c1.19-4.5 2.2-8.37-1.1-11.52l-.56-.53 2.07-5.1.83.06c.02 0 .42.03 1.1.03 2 0 7.23-.26 12.53-2.65l.47-.2.46.2A31.84 31.84 0 0 0 41 12.86c.7 0 1.1-.03 1.1-.03l.83-.07 2.07 5.1-.56.54c-3.3 3.15-2.28 7.02-1.1 11.5v.02l.44 1.7c.69 2.75.71 4.8.08 6.44l-.04.11c-.5 1.38-1.62 3.19-5.85 5-3.8 1.62-9.41 2.74-9.65 2.79l-.22.04Z" fill="#fff"/><path d="m12.46 37.96.01.02c.68 1.87 2.61 3.46 5.9 4.87 3.78 1.61 9.34 2.72 9.58 2.77l.15.03.16-.03c.23-.05 5.8-1.16 9.57-2.77 4.11-1.76 5.19-3.49 5.67-4.8l.04-.1c.6-1.6.58-3.57-.09-6.24l-.44-1.7v-.02c-1.21-4.59-2.26-8.55 1.19-11.84l.4-.37-1.9-4.66-.57.05s-.42.03-1.13.03c-2.02 0-7.31-.26-12.68-2.68l-.32-.15-.33.15a32.2 32.2 0 0 1-13.8 2.65l-.58-.05-1.89 4.66.4.37C15.25 21.44 14.2 25.4 13 30c-.16.57-.3 1.14-.45 1.72-.66 2.65-.7 4.62-.1 6.2l.01.05ZM28.1 46l-.22-.05c-.23-.04-5.83-1.16-9.64-2.79-3.38-1.44-5.37-3.1-6.09-5.06l-.03-.08c-.61-1.65-.58-3.68.1-6.4l.44-1.7c1.18-4.5 2.2-8.37-1.1-11.52l-.56-.54 2.07-5.1.83.06c.02 0 .42.03 1.1.03 2 0 7.23-.25 12.53-2.64L28 10l.46.2A31.84 31.84 0 0 0 41 12.86c.7 0 1.1-.03 1.1-.03l.83-.06 2.07 5.1-.56.54c-3.3 3.15-2.28 7.02-1.1 11.5v.02l.44 1.7c.69 2.75.71 4.8.08 6.44l-.04.11c-.5 1.38-1.62 3.18-5.86 5-3.8 1.62-9.4 2.74-9.64 2.78l-.22.05" fill="#7A7878"/><path d="M41.38 21.2 12.86 36.1c.05.55.17 1.06.34 1.51l.02.06c.44 1.2 1.71 2.8 5.46 4.4 3.75 1.6 9.42 2.72 9.42 2.72s5.68-1.12 9.42-2.72c3.75-1.6 4.8-3.14 5.23-4.34l.04-.12c.53-1.38.52-3.2-.11-5.75-.95-3.81-2.22-7.43-1.3-10.67Z" fill="url(#akqhljvgd)"/><path fill-rule="evenodd" d="M13.32 31.86a14.2 14.2 0 0 0-.5 3.6l28.82-15.05a8.2 8.2 0 0 1 2.01-2.88l-1.46-3.61s-.43.03-1.19.03c-2.29 0-7.58-.3-13-2.74a32.77 32.77 0 0 1-13 2.74c-.76 0-1.19-.03-1.19-.03l-1.46 3.61c3.79 3.61 2.64 7.95 1.41 12.62l-.44 1.71ZM22 20a4 4 0 1 0 0 8 4 4 0 0 0 0-8Z" fill="#ED2126"/><path d="M21.92 27.31c-.7 0-1.5-.22-2.3-.94l.16-.08s.69.33 1.59.33a3.2 3.2 0 0 0 2.34-.98c1.7-1.73 1.17-2.6 1.03-3.45 0 0 1.72 2.34-.81 4.5 0 0-.85.62-2 .62Z" fill="#BABABA"/><path d="m18.69 24.74.52.49.73 1.22-.12.1s-.9-.71-1.13-1.81ZM21.14 26.76l.52-.79 1.46-.03.3.78s-.45.28-1.2.48c0 0-.74-.17-1.08-.44ZM19.63 24.46l1.35.35.77-1.27-.83-1.16-1.31.58.02 1.5ZM23.2 23.48l.7 1.28.98-.38s.06-.97-.04-1.36l-.97-.6-.67 1.06ZM20.93 20.86s1.15-.44 2.27.08l-.17.45s-1.04-.1-1.5 0l-.6-.53ZM18.71 23.12s.2-.86.92-1.5l-.49.96-.43.54Z" fill="#211E1E"/><path d="M27.85 33.99c-.33.06-.65-.11-.72-.4a.47.47 0 0 1 .03-.29.57.57 0 0 1-.16-.34c-.02-.19.1-.38.36-.6l.2-.15h.01l4.04-2.06.13.12.05.05c0-.37.32-.59.56-.65.29-.06.48.01.6.09a.8.8 0 0 1 .45-.3c.28-.06.48 0 .59.08.11-.16.3-.26.45-.3.29-.06.48.01.6.09a.8.8 0 0 1 .44-.3h.01c.3-.07.49.01.6.09.06.04.11.09.15.14l.41.13-.04.2c-.05.27-.03.4-.02.44l.66.26c.39.18.5.44.5.47.05.1.06.19.05.28.1.07.16.17.19.29a.5.5 0 0 1-.12.43c-.09.1-.22.18-.37.21L27.85 34Z" fill="#fff"/><path d="m32.73 32.23-.12.03-.02-.1.12-.03c.05-.01.08 0 .09.03 0 .04-.02.06-.07.07Zm-.2-.32.1-.02c.06-.01.09 0 .1.03 0 .03-.02.06-.07.07l-.1.02-.03-.1Zm.33.1c.07-.04.11-.1.1-.2a.15.15 0 0 0-.08-.1c-.05-.02-.12-.03-.22-.01l-.4.08.16.7.4-.08c.18-.04.25-.14.23-.25-.02-.1-.1-.14-.2-.14ZM33.49 32.06c-.08.01-.15-.04-.17-.13-.02-.09.02-.17.1-.19.06-.01.1.02.15.06l.17-.15a.37.37 0 0 0-.37-.12c-.21.05-.35.24-.3.45.05.22.26.33.46.29a.37.37 0 0 0 .3-.27l-.23-.06c-.02.06-.05.1-.11.12ZM34.48 31.31l-.24.05.08.4c.02.08-.01.12-.08.14-.07.01-.12-.02-.14-.1l-.09-.4-.24.06.09.39c.05.23.2.3.42.25.22-.04.34-.17.29-.4l-.09-.39Z" fill="#211E1E"/><path d="M37.43 31.57a.33.33 0 0 1-.18.1l-2.21.46.4-.5 1.72-.37c.15-.03.3.04.32.15.01.05 0 .1-.05.16Zm-2.51.59-7.02 1.46c-.15.03-.3-.04-.32-.15-.02-.11.08-.23.23-.26l4.34-.9v-.02l-.1-.5a.15.15 0 0 1 .11-.18l2.32-.48c.08-.02.16.03.18.11l.1.44v.08l.56-.11-.4.5Zm-3.37-1.58c.24.24.51.38.77.46l.09.03a2.28 2.28 0 0 0 .93.05l.1-.02h.03l.74-.18.13-.03.88-.2.13-.03.46-.1.09-.04a.54.54 0 0 0 .18-.24l.04-.1v-.02l.07.14a.2.2 0 0 0 .12.07l.27.11-8.49 1.86 3.46-1.76Zm.82.2h-.04l-.03-.01v-.05l-.02-.02v-.03l-.02-.06-.04-.01v-.05l.22-.05h.01l.03.02.04.16v.02l-.15.07Zm-.18-.31v-.09c0-.26.28-.33.3-.34a.59.59 0 0 1 .12-.01c.31 0 .36.3.36.32.02.12.01.2-.04.27l-.06.06a.29.29 0 0 1-.1.04l-.07.02h-.04l-.02-.02-.04-.04v-.03l-.03-.14a.1.1 0 0 0-.1-.1h-.05l-.23.06Zm.28.35.1-.04c.02.02.06.04.1.04h.05l.05-.01s.06 0 .12-.04l.05.01c.06.05.12.15.15.25v.03c-.18 0-.4 0-.66-.07l.05-.1-.01-.07Zm.6-.45.07-.01v.1h.06v.08l.02.01v.03c.02.03.05.08.12.08l.06-.01c-.1.2-.1.33-.1.4a2 2 0 0 1-.12 0v-.04a.57.57 0 0 0-.18-.29l-.02-.01.03-.04c.05-.08.07-.18.05-.3Zm.42-.54.13-.01c.31 0 .36.3.36.32.03.12.01.2-.03.27l-.07.06a.28.28 0 0 1-.1.04l-.07.02h-.04l-.02-.02-.03-.04v-.02l-.01-.01-.03-.14a.1.1 0 0 0-.1-.1h-.05l-.23.06v-.09c0-.26.28-.34.3-.34Zm-.22.57-.04-.01v-.05l.22-.05h.01l.03.02.04.16v.02l-.15.07-.04.02-.03-.02v-.05l-.02-.01v-.03l-.02-.07Zm.21.21.1-.04c.02.02.06.04.1.04h.05l.06-.01.11-.04.05.02c.06.05.13.14.15.24v.05l-.65.15h-.05c-.01-.04-.01-.14.09-.34v-.07Zm.6-.45.07-.01v.1h.06v.08l.02.02v.02c.02.03.05.08.12.08l.06-.01v.01c-.09.18-.1.3-.09.37l-.13.03v-.05a.57.57 0 0 0-.18-.29l-.02-.01.03-.04c.06-.08.07-.18.05-.3Zm.42-.54.13-.01c.31 0 .36.3.36.32.03.12.02.2-.03.27l-.07.06-.1.04-.07.02h-.03l-.03-.02-.03-.04v-.03l-.04-.14a.1.1 0 0 0-.1-.1h-.04l-.24.06v-.09c0-.26.28-.33.3-.34Zm-.22.57-.04-.01v-.05l.23-.05.04.02.03.16v.02l-.15.07-.04.02-.03-.02v-.05l-.02-.01v-.03l-.02-.07Zm.21.21.1-.04c.03.02.06.04.11.04h.04l.06-.01.11-.04.05.02a.5.5 0 0 1 .15.24v.02l-.7.17c0-.06 0-.15.09-.32v-.08Zm.6-.45.08-.01v.03l-.01.06.06.02V30.12l.03.01v.03c0 .03.04.08.11.08l.06-.01v.01a.73.73 0 0 0-.1.34l-.12.03v-.02a.58.58 0 0 0-.18-.29L35 30.3l.03-.04a.39.39 0 0 0 .05-.3Zm.43-.54a.6.6 0 0 1 .12-.01c.32 0 .36.3.36.32.03.12.02.2-.03.27l-.07.06c-.04.03-.09.04-.1.04l-.07.02h-.03l-.02-.02-.04-.04v-.03l-.04-.14a.1.1 0 0 0-.1-.1h-.04l-.24.06v-.09c0-.26.28-.33.3-.34Zm-.22.57-.04-.01v-.05l.22-.05.04.02.03.16v.02l-.15.07-.04.02-.02-.02-.01-.05-.02-.01v-.03l-.01-.07Zm.72.22c-.05.14-.12.25-.23.28l-.37.08a.7.7 0 0 1 .09-.3v-.07l.1-.04c.02.02.05.04.1.04h.04l.06-.01.12-.04.04.01.05.05Zm1.54 1.2c-.03-.12-.14-.2-.27-.22.06-.05.12-.15.05-.3 0 0-.07-.2-.36-.33l-.12-.05h-.02l-.51-.2s-.23-.01-.1-.67l-.08-.03s-.02.27-.1.51l-.02-.02-.02-.01.03-.04c.06-.08.08-.2.05-.33 0 0-.06-.4-.45-.4-.04 0-.1 0-.14.02 0 0-.45.11-.36.53l-.06.08v-.02s-.06-.4-.45-.4c-.05 0-.1 0-.14.02-.01 0-.45.1-.36.53h-.01l-.05.08v-.02s-.06-.4-.45-.4c-.05 0-.1 0-.15.02 0 0-.44.1-.36.53l-.05.08v-.02s-.06-.4-.45-.4c-.05 0-.1 0-.15.02 0 0-.44.1-.36.53l-.06.1.1-.02v.03l-.02.06.06.02v.01l.01.06.02.01v.03c.01.03.05.08.12.08l.06-.01-.04.1a1.85 1.85 0 0 1-.79-.47l-3.75 1.9-.17.13c-.13.1-.28.26-.26.39 0 0 0 .24.27.28-.11.07-.17.18-.15.3.03.15.22.25.42.2l7.03-1.46h.01l2.3-.48a.4.4 0 0 0 .24-.13.26.26 0 0 0 .06-.23Z" fill="#211E1E"/><path fill="#F0F3FA" fill-opacity=".7" d="M18 35h20v2H18zM25 37h6v2h-6zM17 17h22v2H17z"/><defs><linearGradient id="akqhljvgd" x1="26.06" y1="28.13" x2="31.46" y2="44.78" gradientUnits="userSpaceOnUse"><stop stop-color="#1E53A7"/><stop offset="1" stop-color="#0E86D2"/></linearGradient></defs></svg>