<!-- by TradeStack --><svg width="56" height="56" viewBox="0 0 56 56" xmlns="http://www.w3.org/2000/svg"><path fill="#F0F3FA" d="M0 0h56v56H0z"/><path d="M12 15.18A3.18 3.18 0 0 1 15.18 12h25.64A3.18 3.18 0 0 1 44 15.18v25.64A3.18 3.18 0 0 1 40.82 44H15.18A3.18 3.18 0 0 1 12 40.82V15.18Z" fill="#D82F36"/><path d="M28.64 18.96 28 14l-.64 4.96-1.34-4.82.06 5-2-4.6.76 4.95-2.62-4.27L23.67 20l-3.2-3.87 2.1 4.54-3.7-3.39 2.72 4.2-4.15-2.84 3.29 3.8-4.52-2.25 3.8 3.3-4.79-1.6 3.63 2.36a26.34 26.34 0 0 1 18.24.04l3.69-2.4-4.79 1.6 3.8-3.3-4.52 2.25 3.3-3.8-4.16 2.85 2.73-4.2-3.72 3.38 2.11-4.54-3.2 3.87 1.45-4.8-2.62 4.28.76-4.95-2 4.6.06-5-1.34 4.82Zm8.89 5.5c.43.17.85.35 1.26.54l2.73-1.28-3.99.74Zm2.7 1.25.55.29 1.22-.38-1.76.09Zm-25.1.26c.16-.1.32-.18.49-.27L14 25.62l1.12.35Zm2-1c.4-.2.82-.36 1.24-.53l-3.89-.72 2.65 1.24ZM16.26 34.2c.18.59.4 1.05.66 1.4.44.61.99.92 1.65.92.35 0 .66-.14.91-.4.26-.26.4-.63.4-1.1 0-.43-.14-.8-.4-1.11-.17-.2-.53-.5-1.07-.9l-.95-.7a3.57 3.57 0 0 1-.69-.64 2.2 2.2 0 0 1-.47-1.37c0-.66.19-1.2.56-1.64.37-.44.87-.66 1.48-.66.26 0 .56.07.92.22.35.15.56.22.61.22.14 0 .23-.04.28-.11.06-.08.1-.19.13-.33h.23l.24 2.78h-.27c-.18-.84-.47-1.42-.87-1.75-.4-.33-.8-.5-1.19-.5a1.13 1.13 0 0 0-1.14 1.2c0 .33.1.62.27.85.17.25.44.5.8.76l.99.71c.6.44 1.04.85 1.29 1.22s.37.81.37 1.33c0 .68-.22 1.25-.66 1.71-.44.46-1 .69-1.69.69-.34 0-.7-.08-1.08-.23a3.6 3.6 0 0 0-.64-.23c-.13 0-.22.05-.27.14-.04.1-.07.2-.08.3h-.25L16 34.2h.26Z" fill="#FDFBFD"/><path d="M24.68 25c-5.15 0-8.6 2.35-9.68 3.53a17.73 17.73 0 0 1 9.4-2.93c3.5 0 5.76 1 7.91 2.68.37.29.6.57.84.86v5.93c0 .96-.11 1.59-1.15 1.7V37h3v-.24c-1.07-.11-1.27-.64-1.27-1.69v-5.26l5.8 7.19h.22v-7.07c0-.69.09-1.13.25-1.32.17-.2.5-.32 1-.37V28h-3.08v.24c.48.05.8.14.94.28.2.22.32.69.32 1.4v4.56c-4.3-5.36-6.73-9.48-14.5-9.48Z" fill="#FDFBFD"/><path d="m31.56 27.9-1.78-.9h-.64v.3c1.3.14 1.46.9 1.46 2.1v4.23c0 1.98-.64 3.64-2.92 3.64-2.03 0-2.68-1.53-2.68-3.3v-5.2c0-1.07.36-1.4 1.41-1.47V27H22v.3c1.03.09 1.4.41 1.4 1.46v5.1c0 2.44 1.33 4.14 3.93 4.14 2.75 0 3.96-1.84 3.96-4.37v-4.24c0-.64.04-1.14.27-1.5Z" fill="#FDFBFD"/><path fill-rule="evenodd" d="M41.6 13.33H14.4c-.59 0-1.07.48-1.07 1.07v27.2c0 .59.48 1.07 1.07 1.07h27.2c.59 0 1.07-.48 1.07-1.08V14.4c0-.59-.48-1.07-1.08-1.07ZM14.4 13c-.77 0-1.4.63-1.4 1.4v27.2c0 .77.63 1.4 1.4 1.4h27.2c.77 0 1.4-.63 1.4-1.4V14.4c0-.77-.63-1.4-1.4-1.4H14.4Z" fill="#FDFBFD"/></svg>