<?xml version='1.0' encoding='utf-8'?>
<!-- by TradeStack -->
<svg width="56" height="56" viewBox="0 0 56 56" xmlns="http://www.w3.org/2000/svg"><path fill="#F0F3FA" d="M0 0h56v56H0z" /><path d="M28.26 12.24c-1.85.3-3.66.87-5.36 1.67a22.02 22.02 0 0 0-8.35 6.85c-1.12 1.52-2 3.2-2.63 4.99a15.89 15.89 0 0 0-.92 5.57c.03 1.87.46 3.71 1.27 5.4a12.21 12.21 0 0 0 3.78 4.58 14.05 14.05 0 0 0 6.6 2.56c2.78.34 5.61.04 8.27-.88a21.78 21.78 0 0 0 7.55-4.44 20.6 20.6 0 0 0 5.04-6.81 16.13 16.13 0 0 0 1.47-7.53 12.37 12.37 0 0 0-6-10.14 14.35 14.35 0 0 0-5.11-1.85c-1.86-.29-3.75-.28-5.6.03Z" fill="url(#apj53zxqi)" /><path d="m38.64 18.6.02.32v.98a12 12 0 0 1-.33 2.18 14.4 14.4 0 0 1-.75 2.24 17.5 17.5 0 0 1-1.15 2.25c-.47.76-.98 1.49-1.54 2.18l2.02-.47-2.98 1.34-.6-4.33-1.68 4.41-2.7-1.16.91 2.7-4.63 1.12 4.28 1.06-1.72 2.73.7-1.91a22.78 22.78 0 0 1-5.14 2.24c-.85.24-1.71.41-2.59.52a14.88 14.88 0 0 1-3.2.06l-.34-.03a6.69 6.69 0 0 1-.34-.05 9.4 9.4 0 0 0 2.73.75 10.9 10.9 0 0 0 2.63.04 20.1 20.1 0 0 0 3.65-.71c.6-.17 1.16-.36 1.66-.55v.01l.31-.13a42.67 42.67 0 0 0 1.92-.85c.38-.19.77-.38 1.13-.58l.5 5.77 1.93-5.62 3.35 1.7-1.42-3.4 5.6-1.23-5.52-1.08a25.34 25.34 0 0 0 1.76-2.7l.15-.27h-.01a18.48 18.48 0 0 0 1.37-3.19 13.25 13.25 0 0 0 .53-2.84 10.15 10.15 0 0 0-.26-2.7 7.87 7.87 0 0 0-.24-.79" fill="url(#bpj53zxqi)" /><defs><linearGradient id="apj53zxqi" x1="35.38" y1="40.86" x2="21.96" y2="14.46" gradientUnits="userSpaceOnUse"><stop stop-color="#00437B" /><stop offset=".31" stop-color="#00457E" /><stop offset=".62" stop-color="#004B8B" /><stop offset=".94" stop-color="#00559E" /><stop offset="1" stop-color="#0058A4" /></linearGradient><linearGradient id="bpj53zxqi" x1="40.72" y1="20.36" x2="24.51" y2="43.19" gradientUnits="userSpaceOnUse"><stop stop-color="#AAACAD" /><stop offset=".09" stop-color="#BEBFBF" /><stop offset=".18" stop-color="#CCCDCC" /><stop offset=".3" stop-color="#D4D5D3" /><stop offset=".51" stop-color="#D7D8D6" /><stop offset=".61" stop-color="#D2D3D2" /><stop offset=".72" stop-color="#C4C6C6" /><stop offset=".85" stop-color="#ACB0B3" /><stop offset=".98" stop-color="#8C9298" /></linearGradient></defs></svg>