<?xml version='1.0' encoding='utf-8'?>
<!-- by TradeStack -->
<svg width="56" height="56" viewBox="0 0 56 56" xmlns="http://www.w3.org/2000/svg"><path fill="#282828" d="M0 0h56v56H0z" /><path fill-rule="evenodd" d="M13 13h30v30H13V13Zm1 1h28v28H14V14Zm21.02 1.88c-.12.63.36 1.05 1.05 1.09.09 0 .1.04.06.1l-.58.83c-.05.07-.03.1.06.1h.56a.2.2 0 0 0 .17-.08 6.1 6.1 0 0 0 .97-1.45c.56-1.65-2.03-2-2.3-.6Zm1.52-.16c.1.09.15.2.15.32s-.05.23-.15.32a.52.52 0 0 1-.34.13.52.52 0 0 1-.35-.13.43.43 0 0 1-.14-.32c0-.12.05-.23.14-.32.1-.08.22-.13.35-.13.13 0 .25.05.34.13Zm1.96.14c.11-.23.3-.31.57-.24.06.02.1.05.13.1.2.33-.46.85-.98 1.25l-.4.32a.17.17 0 0 0-.06.13v.5c0 .05.03.08.09.08h2.05c.07 0 .1-.03.1-.1v-.36c0-.08-.04-.12-.13-.12h-1.1c-.09 0-.1-.03-.03-.09l.2-.15c.41-.32.92-.7 1-1.13.12-.52-.25-.96-.81-1.03-.48-.06-.92.1-1.3.5a.24.24 0 0 0-.04.28c.02.05.05.09.1.11.05.03.1.04.15.04h.32c.07 0 .12-.03.14-.09ZM33.82 21c.39 3.12.81 6.25 1.27 9.36 1.44 9.6-13.57 10.67-14.3 1.68-.04-.58.01-1.36.16-2.35l.06-.35c.26-1.73 1.22-8.05 1.1-8.2-.04-.03-.06-.03-.07.02-.48 2.71-.92 5.43-1.32 8.15-.2 1.3-.26 2.3-.2 2.96.89 9.14 16.46 8.1 14.87-2.21-.46-2.97-.94-5.93-1.44-8.9 0-.05.01-.14.07-.16h.2c.06 0 .1.03.1.08.49 3.24.99 6.48 1.5 9.71a9.9 9.9 0 0 1 .16 2.38C35.16 40.9 20.8 41 20.02 33.1c-.06-.57 0-1.45.2-2.62.49-3.13.97-6.25 1.44-9.38.01-.06.04-.09.1-.09l2.76-.01c.07 0 .1.12.1.18a777.4 777.4 0 0 1-1.17 10.32c-.44 3.75 3.1 5.34 6.29 4.43 2.35-.68 3-2.57 2.73-4.82-.39-3.31-.75-6.62-1.09-9.93 0-.05.02-.18.07-.18h2.37Zm-11.29 6.1a.33.33 0 0 0-.1-.23.34.34 0 0 0-.48 0 .33.33 0 0 0 .11.55.34.34 0 0 0 .44-.18.33.33 0 0 0 .03-.13Zm11.53 0a.34.34 0 0 0-.1-.23.35.35 0 0 0-.49 0 .34.34 0 0 0 0 .48.35.35 0 0 0 .5 0c.06-.07.1-.15.1-.24ZM21.8 30.66c.09 0 .18-.04.24-.1a.33.33 0 0 0 0-.48.34.34 0 0 0-.55.11.33.33 0 0 0 .07.37.34.34 0 0 0 .24.1Zm12.67-.33a.33.33 0 0 0-.1-.24.34.34 0 0 0-.48 0 .33.33 0 0 0 .1.55.35.35 0 0 0 .45-.19.33.33 0 0 0 .03-.12ZM22.24 33.5a.33.33 0 0 0-.1-.23.34.34 0 0 0-.47 0 .33.33 0 0 0 0 .46.34.34 0 0 0 .57-.23Zm12.11 0a.33.33 0 0 0-.2-.31.35.35 0 0 0-.46.18.33.33 0 0 0 .08.37.34.34 0 0 0 .48 0c.07-.07.1-.15.1-.24Zm-10.33 2.64a.33.33 0 0 0-.1-.23.34.34 0 0 0-.48 0 .33.33 0 0 0 0 .47.34.34 0 0 0 .48 0c.06-.06.1-.15.1-.24Zm8.55 0a.33.33 0 0 0-.1-.23.34.34 0 0 0-.47 0 .33.33 0 0 0 0 .46.34.34 0 0 0 .47 0c.07-.06.1-.14.1-.23Z" fill="#F2C243" /></svg>