<?xml version='1.0' encoding='utf-8'?>
<!-- by TradeStack -->
<svg width="56" height="56" viewBox="0 0 56 56" fill="none" xmlns="http://www.w3.org/2000/svg">
<rect width="56" height="56" fill="#F0F3FA" />
<path fill-rule="evenodd" clip-rule="evenodd" d="M38.5507 36.6802C39.1911 35.9972 38.9902 35.6114 40.5809 35.9972L40.3218 34.9052C41.5878 34.1101 41.9922 33.7359 42.8367 32.7394C43.2017 31.9914 43.4319 31.6394 43.2632 30.6663C43.4624 29.3207 43.0254 29.5175 42.455 28.7143C41.2835 27.0648 42.0065 25.6081 39.6411 22.5098C37.5915 19.8254 34.5808 16.9815 31 17.0001C28.2786 17.0142 25.757 18.3622 23.4526 19.0398C20.4655 19.9182 17.1388 20.9549 14 21C13.3626 20.0931 12.3198 19.3981 11.6939 18.51C8.40959 18.494 9.2979 18.5943 8 24C9.84713 23.3099 10.5769 21.2319 10.7467 19.3599C10.8192 18.5573 13.3817 21.7723 14.5736 22.3328C12.9269 27.2166 15.5454 28.3261 16.4523 29.9587C15.7472 30.5538 15.3878 30.7604 14.6695 31.2372C14.5614 33.2917 14.2783 33.6855 14.0215 35.3563C14.0097 35.4331 14.0015 35.5196 14 35.6114C13.9946 35.9423 14.0759 36.342 14.3872 36.5996C15 37 14.9004 37.0174 16 37C14.7436 34.2124 15.7215 31.9514 18.7717 31.7382C20.2104 33.2044 19.7361 32.9009 20.0826 34.459L20.4706 35.6114C21.8985 37.0207 23.235 36.7926 23.5 39.5L27.6549 40C26.7085 37.7304 22.4508 36.263 22.2528 32.8302C22.1921 31.7763 22.4876 30.8999 23 30C23.718 31.1739 24.0307 31.7374 24.52 33.5909C25.7305 32.1458 25.2817 30.9074 25.8322 30.1986C26.2111 29.7106 27.0638 29.4734 29.257 29.5923C29.7259 30.9652 30.0466 31.1357 31 32C30.7088 36.0486 29.3666 35.2314 29.0753 36.962C28.9783 37.5384 29.0305 38.5727 29.3311 40H31.7408C31.0801 38.2219 30.5622 38.2388 31.5947 36.2678C32.2285 35.3794 33.2725 33.744 33.9854 33.0412C34.7448 34.6129 34.3495 35.4486 34.5461 37.3906C35.4456 37.8924 35.8512 38.2845 37.1252 38.6386L38.5507 36.6802Z" fill="#171717" />
<path fill-rule="evenodd" clip-rule="evenodd" d="M42.8369 32.7394C44.7732 33.5156 45.3539 35.6107 48.0002 36.1072C47.2131 35.149 46.4993 34.5558 45.6505 33.4414C44.3263 31.7027 45.1101 31.8395 43.2634 30.6663C43.4321 31.6394 43.202 31.9914 42.8369 32.7394Z" fill="#5F686B" />
<path fill-rule="evenodd" clip-rule="evenodd" d="M39.5134 38.2356L40.4445 39.051C40.8519 39.4175 40.8206 39.4631 41.1892 39.9408L43.6228 40L41.9762 37.8907C41.3605 37.3839 40.4132 36.7711 39.3418 36.3533L39.5134 38.2356Z" fill="#171717" />
<path fill-rule="evenodd" clip-rule="evenodd" d="M41.9953 38C42.0748 37.2357 41.1271 36.4586 40.625 36.032C39.2971 35.2264 38.9903 34.5432 39 33.8756C39.0165 32.7425 40.1243 31.6547 40 30.0906C39.7481 30.0299 39.5136 30.0006 39.296 30C38.0037 29.9964 37.3021 31.0057 37.0433 32.4895C36.4779 36.228 41.625 37.3903 41.9953 38Z" fill="#5F686B" />
</svg>