<?xml version='1.0' encoding='utf-8'?>
<!-- by TradeStack -->
<svg width="56" height="56" viewBox="0 0 56 56" xmlns="http://www.w3.org/2000/svg"><path fill="#F0F3FA" d="M0 0h56v56H0z" /><path d="M34.58 14 37 22h-1.37c-2.9-5.28-7.37-6.5-8.91-6.5S22 16.64 22 19.1c0 2.47 3.86 4.4 7.45 5.82 3.6 1.4 8.55 4.05 8.55 8.27 0 7.93-7.18 8.81-8.89 8.81-1.7 0-4.61-1.4-5.81-1.4-.96 0-2.23.6-2.8.9L18 33.7l1.37-.7c2.73 5.28 6.84 7 9.57 7 2.74 0 5.06-1.63 5.06-3.92s-3.7-4.12-6.26-5.17C25.18 29.85 19 26.86 19 21.22S23.47 14 26.2 14c2.74 0 3.94 1 5.99 1 1.64 0 2.22-.7 2.39-1Z" fill="#003D59" /><path fill-rule="evenodd" d="M28 45a17 17 0 1 0 0-34 17 17 0 0 0 0 34Zm0-1a16 16 0 1 0 0-32 16 16 0 0 0 0 32Z" fill="#003D59" /></svg>