<?xml version='1.0' encoding='utf-8'?>
<!-- by TradeStack -->
<svg width="56" height="56" viewBox="0 0 56 56" xmlns="http://www.w3.org/2000/svg"><path fill="#F0F3FA" d="M0 0h56v56H0z" /><path d="M38.02 27.02h-.13c-.22-.48-.8-.67-1.3-.67s-1.1.22-1.1.82c0 .72.84.92 1.51 1.33 1 .5 1.5 1.2 1.5 2 0 1.08-1.25 1.5-2.14 1.5-.63 0-1.3-.13-1.86-.41l.13-.9h.13c.21.65.94.96 1.57.96.5 0 1.17-.33 1.17-.95 0-.56-.58-.91-1-1.2-.75-.52-2-.93-2-2 0-.97 1.28-1.5 2.09-1.5.5 0 .98.12 1.46.27l-.03.75ZM7.52 27.02h-.13c-.22-.48-.8-.67-1.3-.67s-1.1.22-1.1.82c0 .72.84.92 1.51 1.33 1 .5 1.5 1.2 1.5 2C8 31.58 6.75 32 5.86 32c-.63 0-1.3-.13-1.86-.41l.13-.9h.13c.21.65.94.96 1.57.96.5 0 1.17-.33 1.17-.95 0-.56-.58-.91-1-1.2-.75-.52-2-.93-2-2 0-.97 1.28-1.5 2.09-1.5.5 0 .98.12 1.46.27l-.03.75Z" /><path d="M12 29H9v1.36c0 .53.1 1.1.24 1.62V32H7.88v-.02c.15-.51.12-1.09.12-1.62v-2.72c0-.53.03-1.1-.12-1.62V26h1.36v.02C9.1 26.53 9 27.1 9 27.64v.9h3v-.9c0-.53.03-1.11-.12-1.62V26h1.24v.02c-.15.51-.12 1.09-.12 1.62v2.72c0 .53-.03 1.1.12 1.62V32h-1.24v-.02c.15-.5.12-1.1.12-1.62V29ZM13.85 26h4.1l-.25.55a4.84 4.84 0 0 0-.9-.11 7.76 7.76 0 0 0-1.3 0H15v2.26a31.96 31.96 0 0 0 2.47-.13l-.16.6a49.25 49.25 0 0 0-1.46-.12c-.25-.02-.61-.03-.85-.03v2.58a17.86 17.86 0 0 0 2.17-.13c.3-.04.58-.08.83-.14l-.15.67h-4c.18-.5.15-1.13.15-1.64v-2.68c0-.53.03-1.17-.15-1.68ZM18.5 26h3.96l-.26.55a4.84 4.84 0 0 0-.9-.11 7.77 7.77 0 0 0-1.3 0h-.39v2.26a25.3 25.3 0 0 0 2.36-.13l-.16.6a49.26 49.26 0 0 0-1.46-.12l-.74-.03v2.58a14.68 14.68 0 0 0 2.89-.27l-.15.67H18.5c.11-.44.11-1.13.11-1.64v-2.68c0-.53 0-1.18-.11-1.68ZM24 30.38c0 .52-.03 1.1.13 1.6V32h-1.26v-.02c.15-.5.13-1.08.13-1.6v-2.7l-.01-.62c-.01-.33-.02-.74-.12-1.06h1.95c.98 0 2.18.52 2.18 1.61 0 .76-.64 1.37-1.33 1.66l1.57 2.04a4.8 4.8 0 0 0 .4.46l.19.13c.05.04.11.06.17.08V32h-1.3a1.96 1.96 0 0 0-.26-.47l-1.57-2.07a131.65 131.65 0 0 0-.42.02h-.25l-.2-.04v.94Zm0-1.26.19.04h.24A1.48 1.48 0 0 0 26 27.65c0-.74-.49-1.36-1.29-1.36-.2 0-.37.01-.49.03-.12.02-.16.04-.22.06v2.75ZM28 24v.02c-.12.37.07.86.18 1.2l2 5.78 2.1-5.73.16-.5a1.85 1.85 0 0 0 .08-.67.45.45 0 0 0-.02-.08V24h1v.02c-.06.08-.14.22-.23.42-.08.2-.18.45-.28.75L30.19 33h-.4l-2.66-7.51c-.17-.5-.34-1.03-.63-1.47V24H28ZM38.88 32s.12-1.11.12-1.64v-2.72c0-.53.03-1.13-.12-1.64h1.24c-.15.52-.12 1.11-.12 1.64v2.72c0 .53-.03 1.13.12 1.64h-1.24ZM32.88 31.98s.12-1.09.12-1.62v-2.72c0-.53.03-1.13-.12-1.64h1.24c-.15.52-.12 1.11-.12 1.64v2.72c0 .53-.03 1.1.12 1.62V32h-1.24v-.02ZM43.27 26a3 3 0 0 1 3.11 3.02A2.92 2.92 0 0 1 43.5 32c-1.73 0-3.12-1.24-3.12-3 0-1.63 1.24-3 2.89-3Zm.23 5.64c1.33 0 1.88-.92 1.88-2.14 0-1.4-.52-3.14-2.11-3.14-1.33 0-1.89.91-1.89 2.14 0 1.4.52 3.14 2.12 3.14ZM47.26 26l4.1 4 .04-2.39a19.87 19.87 0 0 0-.03-1.06 3.22 3.22 0 0 0-.09-.53V26H52v.02c-.02.05-.03.13-.04.21a4.52 4.52 0 0 0-.06.77l-.01.61v4.37h-.14l-4.15-4.12v2.43c0 .52-.03 1.19.12 1.7V32H47v-.02c.14-.5.12-1.17.12-1.69v-2.68a19.84 19.84 0 0 0-.04-1.06 3.22 3.22 0 0 0-.08-.53V26h.26Z" /></svg>