<?xml version='1.0' encoding='utf-8'?>
<!-- by TradeStack -->
<svg width="56" height="56" viewBox="0 0 56 56" xmlns="http://www.w3.org/2000/svg"><path fill="#F0F3FA" d="M0 0h56v56H0z" /><path d="M36.47 40.58v-1.37c0-2.63 0-2.97-.45-3.05V36h2.4v.16c-.41.07-.42.43-.42 2.63v.6l1.25-1.55c1.08-1.3 1.25-1.64.92-1.69V36h2.46v.15c-.34.04-.58.41-1.78 1.78l-1.55 1.8 1.86 2.25c1.22 1.49 1.5 1.8 1.84 1.86V44c-.87-.03-1.74-.02-2.61 0v-.15c.35-.04.02-.47-.98-1.74L38 40.34v.77c0 2.36 0 2.65.47 2.74V44H36v-.16c.47-.08.47-.4.47-3.26ZM34.57 39.22V44h-.25l-3.78-3.42c-.5-.45-.92-.94-1.54-1.58v1.65c0 2.72-.02 3.16.46 3.19V44H27v-.15c.48-.04.48-.48.48-3.3V36h.26l3.8 3.5c.52.47.87.88 1.46 1.49v-1.84c0-2.55.07-2.96-.42-3V36H35v.15c-.43.04-.43.45-.43 3.07Z" fill="#1F4D9C" /><path d="M24.26 42.4H21.6c-.46 1.07-.59 1.4-.16 1.44V44l-1.27-.01L19 44v-.16c.33-.03.52-.37 1.8-3.22L22.92 36h.26l2.07 4.63c1.25 2.83 1.43 3.18 1.76 3.2V44l-1.18-.01-1.4.01v-.16c.42-.03.28-.37-.16-1.44Zm-2.18-1.17h1.73l-.01-.03a31.67 31.67 0 0 1-.83-2.19h-.01c-.08.24-.24.64-.87 2.19l-.01.03ZM19 41.72c0 .81-.48 1.43-1.12 1.8-.57.32-1.32.48-2.64.48H13v-.15c.5-.02.5-.42.5-3.26v-1.37c0-2.65-.04-3.02-.5-3.06V36h2.49c.56 0 1.13.06 1.55.18.69.19 1.59.74 1.59 1.92 0 .86-.67 1.55-1.49 1.72v.01c1 .14 1.86.88 1.86 1.89Zm-2-3.47c0-.64-.6-1.02-1.36-1.02l-.64.03v2.04l.46.01c.65 0 1.54-.29 1.54-1.06Zm0 3.36v-.02c0-.85-.73-1.1-1.42-1.1l-.58.02v1.98c0 .15.02.17.1.2.13.03.46.03.6.03.67 0 1.3-.32 1.3-1.11ZM13.41 13C12.28 16.38 12 18.3 12 18.83l.7-.58A5.24 5.24 0 0 1 16 17h6.56c-3.51 8.75-5.54 15.07-6 17h5.4c.72-7.62 4.33-17.18 6.05-21H13.41ZM29.41 13C28.28 16.38 28 18.3 28 18.83l.7-.58A5.24 5.24 0 0 1 32 17h6.56c-3.51 8.75-5.54 15.07-6 17h5.4c.72-7.62 4.33-17.18 6.05-21H29.41Z" fill="#1F4D9C" /></svg>