<!-- by TradeStack --><svg viewBox="0 0 56 56" xmlns="http://www.w3.org/2000/svg"><path fill="#F0F3FA" d="M0 0h56v56H0z"/><circle cx="5" cy="26" r="1" fill="#DFD41C"/><path d="M5.75 29.25a.75.75 0 1 1-1.5 0 .75.75 0 0 1 1.5 0ZM5.5 32a.5.5 0 1 1-1 0 .5.5 0 0 1 1 0ZM5.38 34.38a.38.38 0 1 1-.76 0 .38.38 0 0 1 .75 0ZM5.25 36.25a.25.25 0 1 1-.5 0 .25.25 0 0 1 .5 0Z" fill="#DFD41C"/><circle cx="8" cy="23" r="1" fill="#DFD41C"/><path d="M8.75 26.25a.75.75 0 1 1-1.5 0 .75.75 0 0 1 1.5 0ZM8.5 29a.5.5 0 1 1-1 0 .5.5 0 0 1 1 0ZM8.38 31.38a.38.38 0 1 1-.76 0 .38.38 0 0 1 .75 0ZM8.25 33.25a.25.25 0 1 1-.5 0 .25.25 0 0 1 .5 0Z" fill="#DFD41C"/><circle cx="1" cy="1" r="1" transform="matrix(1 0 0 -1 10 31.5)" fill="#DFD41C"/><path d="M11.75 27.25a.75.75 0 1 0-1.5 0 .75.75 0 0 0 1.5 0ZM11.5 24.5a.5.5 0 1 0-1 0 .5.5 0 0 0 1 0ZM11.38 22.13a.38.38 0 1 0-.76 0 .38.38 0 0 0 .76 0ZM11.25 20.25a.25.25 0 1 0-.5 0 .25.25 0 0 0 .5 0Z" fill="#DFD41C"/><path d="M17 25.64c0 .29-.07.53-.21.74-.14.2-.34.35-.59.46-.25.1-.55.16-.89.16a4.69 4.69 0 0 1-.95-.1 1.86 1.86 0 0 1-.36-.13v-.54a3.08 3.08 0 0 0 1.33.28c.24 0 .45-.03.61-.1a.8.8 0 0 0 .38-.28.76.76 0 0 0 .13-.44c0-.17-.04-.3-.11-.42a.94.94 0 0 0-.36-.3c-.17-.1-.4-.2-.68-.3-.2-.08-.38-.16-.53-.24a1.67 1.67 0 0 1-.4-.3c-.1-.11-.18-.24-.23-.39a1.5 1.5 0 0 1-.08-.5c0-.26.07-.48.2-.66.12-.2.3-.33.53-.43.23-.1.5-.15.8-.15a3.18 3.18 0 0 1 1.3.27l-.18.49a3.7 3.7 0 0 0-.54-.19 2.4 2.4 0 0 0-.6-.07c-.2 0-.38.03-.52.1a.7.7 0 0 0-.32.25.7.7 0 0 0-.1.4c0 .16.03.3.1.42.07.11.18.21.34.3.15.09.36.18.62.28.28.1.51.21.71.33.2.11.34.26.45.42.1.17.15.38.15.64ZM19.38 27c-1.19 0-1.88-.84-1.88-1.99 0-1.18.72-2.01 1.93-2.01.42 0 .83.09 1.07.2l-.19.5a2.8 2.8 0 0 0-.89-.19c-.9 0-1.42.68-1.42 1.5 0 .79.5 1.48 1.37 1.48.44 0 .78-.1 1.07-.22v.53c-.28.13-.6.2-1.07.2ZM21.52 22v2c.48-.5.7-.57 1.17-.57.82 0 1.31.45 1.31 1.28V27h-.54v-2.26c0-.58-.27-.87-.83-.87-.8 0-1.08.45-1.08 1.29V27H21l-.03-5h.55ZM25 27h-.5v-5h.5v5ZM29.5 25c0 1.2-.86 2-2.06 2-1.17 0-1.94-.83-1.94-2 0-1.2.77-2 1.97-2 1.18 0 2.03.83 2.03 2ZM26 25c0 .83.56 1.51 1.46 1.51.9 0 1.54-.67 1.54-1.51s-.65-1.5-1.54-1.5c-.9 0-1.46.55-1.46 1.5ZM33 25.87c0 .25-.07.46-.2.63-.14.16-.33.29-.58.37a4.01 4.01 0 0 1-1.66.06c-.21-.04-.4-.1-.56-.17v-.54c.17.08.38.15.61.21.24.06.49.1.73.1.37 0 .63-.06.8-.17a.5.5 0 0 0 .24-.44c0-.1-.03-.2-.1-.28a.92.92 0 0 0-.32-.23 5.08 5.08 0 0 0-.64-.26c-.27-.09-.5-.18-.7-.27-.2-.1-.35-.21-.45-.34A.82.82 0 0 1 30 24c0-.32.14-.57.43-.75.29-.17.67-.26 1.13-.26a3.4 3.4 0 0 1 1.34.25l-.22.47a4.2 4.2 0 0 0-.55-.17 2.6 2.6 0 0 0-.6-.07c-.3 0-.53.04-.69.13-.15.1-.23.21-.23.37 0 .12.03.22.1.3.08.07.2.14.36.21.16.07.37.15.64.24.26.1.49.18.68.28.2.1.34.2.44.35.1.13.16.3.16.51ZM36.5 25.87c0 .25-.07.46-.2.63-.14.16-.33.29-.58.37a4.01 4.01 0 0 1-1.66.06c-.21-.04-.4-.1-.56-.17v-.54c.17.08.38.15.61.21.24.06.49.1.73.1.37 0 .63-.06.8-.17a.5.5 0 0 0 .24-.44c0-.1-.03-.2-.1-.28a.92.92 0 0 0-.32-.23 5.08 5.08 0 0 0-.64-.26c-.27-.09-.5-.18-.7-.27-.2-.1-.35-.21-.45-.34a.82.82 0 0 1-.16-.53c0-.32.14-.57.43-.75.29-.17.67-.26 1.13-.26a3.4 3.4 0 0 1 1.34.25l-.22.47a4.2 4.2 0 0 0-.55-.17 2.6 2.6 0 0 0-.6-.07c-.3 0-.53.04-.69.13-.15.1-.23.21-.23.37 0 .12.03.22.1.3.08.07.2.14.36.21.16.07.37.15.64.24.26.1.49.18.68.28.2.1.34.2.44.35.1.13.16.3.16.51ZM20 28l-1.28 5h-.56l-.95-3.37a14.05 14.05 0 0 1-.2-.8l-.04-.15-.02.15a4.01 4.01 0 0 1-.12.51l-.07.3-.93 3.36h-.56L14 28h.58l.77 3.14a9.27 9.27 0 0 1 .23 1.15 4.78 4.78 0 0 1 .1-.58 19.8 19.8 0 0 1 .15-.6l.86-3.11h.57l.9 3.13a10.36 10.36 0 0 1 .26 1.16 8.94 8.94 0 0 1 .23-1.16l.77-3.13H20ZM21.68 29c.45 0 .78.1 1 .31.21.2.32.54.32 1V33h-.41l-.11-.64h-.03c-.1.14-.22.26-.33.35-.11.1-.25.17-.4.22a1.83 1.83 0 0 1-1.15-.05.96.96 0 0 1-.42-.38c-.1-.16-.15-.38-.15-.63 0-.39.15-.68.44-.9.3-.2.75-.31 1.36-.33l.65-.03v-.23c0-.34-.07-.57-.21-.7a.81.81 0 0 0-.6-.2c-.19 0-.37.02-.55.08-.18.06-.35.13-.5.2l-.18-.44c.17-.08.36-.16.58-.22.22-.07.45-.1.69-.1Zm.76 2.02-.57.03c-.47.02-.8.1-1 .24a.68.68 0 0 0-.28.58c0 .23.07.39.2.5.13.1.3.15.51.15.34 0 .6-.1.82-.28.21-.2.32-.48.32-.86v-.36ZM25.38 33c-.38 0-.7-.07-.98-.21-.29-.15-.5-.37-.66-.66-.16-.3-.24-.66-.24-1.1 0-.48.08-.86.25-1.15.16-.3.4-.52.69-.67.29-.14.62-.21 1-.21a2.88 2.88 0 0 1 1.06.2l-.19.5a3.38 3.38 0 0 0-.89-.19c-.29 0-.52.06-.71.17-.19.12-.33.29-.43.51-.09.22-.14.5-.14.82 0 .32.05.58.14.8.1.22.23.4.4.51.2.12.42.17.7.17a2.52 2.52 0 0 0 1.06-.22v.53c-.14.06-.3.11-.46.15-.17.03-.37.05-.6.05ZM27.54 28v1.5a5.2 5.2 0 0 1-.02.5h.03c.08-.13.17-.24.28-.32.12-.09.25-.15.4-.2.14-.04.3-.06.46-.06.3 0 .53.05.73.14.19.09.34.22.43.41.1.2.15.44.15.74V33h-.54v-2.26c0-.3-.07-.51-.2-.66-.14-.14-.35-.22-.63-.22-.27 0-.48.05-.64.15a.83.83 0 0 0-.34.44c-.07.2-.1.43-.1.7V33H27v-5h.54ZM32.32 29c1.02 0 1.68.64 1.68 1.64V31h-2.85c.01.9.5 1.5 1.35 1.5.52 0 .88-.09 1.31-.26v.51c-.43.18-.88.25-1.34.25-1.18 0-1.97-.8-1.97-1.97 0-1.1.66-2.03 1.82-2.03Zm0 .48c-.68 0-1.09.32-1.16 1.05h2.18c0-.64-.35-1.05-1.03-1.05ZM36.51 29c.98 0 1.49.42 1.49 1.42V33h-.5v-2.55c0-.95-.54-.96-1.07-.96-.88 0-1.43.6-1.43 1.42V33h-.5v-4h.5l.16.63h.03c.28-.44.82-.63 1.32-.63ZM39.02 28v2c.48-.5.7-.58 1.17-.58.82 0 1.31.46 1.31 1.29V33H41v-2.26c0-.58-.3-.88-.87-.88-.77 0-1.11.56-1.11 1.3V33h-.52v-5h.52ZM43.82 29c1.02 0 1.68.64 1.68 1.64V31h-2.85c.01.9.5 1.5 1.35 1.5.52 0 .88-.09 1.32-.26v.51c-.44.18-.88.25-1.35.25-1.18 0-1.97-.8-1.97-1.97 0-1.1.66-2.03 1.82-2.03Zm0 .48c-.68 0-1.09.32-1.16 1.05h2.18c0-.64-.34-1.05-1.03-1.05ZM46.6 29v4H46v-4h.6Zm-.25-1c.1 0 .17.03.24.1.07.05.1.15.1.28 0 .13-.03.22-.1.28a.35.35 0 0 1-.24.1.35.35 0 0 1-.25-.1c-.07-.06-.1-.15-.1-.28 0-.13.03-.23.1-.29.06-.06.15-.09.25-.09ZM50.83 29c.38 0 .68.11.87.34.2.23.3.59.3 1.09V33h-.53v-2.54c0-.32-.06-.56-.18-.72-.13-.16-.3-.24-.55-.24-.34 0-.59.11-.74.33-.16.22-.23.55-.23.97V33h-.54v-2.54c0-.22-.02-.4-.08-.54a.62.62 0 0 0-.24-.31.72.72 0 0 0-.41-.1.9.9 0 0 0-.56.15.91.91 0 0 0-.31.48c-.07.21-.1.47-.1.78V33H47v-4h.43l.08.63h.03a1.15 1.15 0 0 1 1.05-.63c.27 0 .5.06.67.17.19.1.32.28.4.5h.03c.11-.22.27-.4.47-.5.2-.11.43-.17.67-.17Z" fill="#707173"/></svg>