<?xml version='1.0' encoding='utf-8'?>
<!-- by TradeStack -->
<svg width="56" height="56" viewBox="0 0 56 56" fill="none" xmlns="http://www.w3.org/2000/svg">
<rect width="56" height="56" fill="#F0F3FA" />
<path d="M43.6273 21.2945C43.569 21.1612 43.5106 21.0279 43.449 20.8957C41.266 16.1371 37.0224 12.6538 31.945 11.4531C26.8677 10.2523 21.5227 11.4679 17.4554 14.7483C16.9805 15.1348 16.5265 15.5467 16.0955 15.9821C14.714 17.3645 13.5812 18.9768 12.7473 20.7475C12.649 20.9558 12.5556 21.1655 12.4671 21.3766C11.5853 23.4743 11.1329 25.7289 11.1369 28.006C11.1366 29.2765 11.2761 30.5432 11.5531 31.7829L11.7463 31.8426C11.9979 31.9253 12.2566 31.9846 12.5191 32.0196C12.9724 32.0921 13.3015 32.2137 13.6805 32.2329C12.6208 28.5971 12.9642 24.6937 14.6422 21.3009C14.7166 21.1537 14.7909 21.0077 14.8694 20.8637C17.0207 16.8468 20.871 14.0279 25.3366 13.2007C29.8022 12.3734 34.4003 13.6272 37.8365 16.6091C38.0711 16.8117 38.2972 17.0207 38.5191 17.2382C39.6716 18.3661 40.6367 19.6722 41.3779 21.1068C41.4055 21.1633 41.4352 21.2188 41.4628 21.2764C43.6649 25.6934 43.5665 30.9151 41.1995 35.2453C40.6688 34.6801 40.138 34.0723 40.0764 33.8814C39.9628 33.5103 39.707 33.3962 39.5934 33.3962C39.4798 33.3962 38.5722 32.8833 38.259 33.3962C37.9458 33.9091 36.053 34.1373 36.053 34.1373L35.3726 33.9902L35.2218 34.4839C35.07 34.9787 35.2218 34.4839 34.4649 34.5596C33.708 34.6353 32.9787 33.4005 32.9787 33.4005C32.9787 33.4005 31.19 34.9403 30.8779 35.7102C30.8151 35.8557 30.7199 35.9848 30.5998 36.0877L30.6613 33.7673C30.6613 33.7673 31.3344 32.9143 31.3216 32.4408C31.3089 31.9674 31.6911 31.3926 31.863 31.2199C32.035 31.0471 32.3376 31.4417 32.3376 31.4417C32.2314 30.8712 32.6422 30.1546 32.8004 30.2079C32.9586 30.2612 32.9586 30.7645 32.9586 30.7645C33.2356 30.5396 33.5403 28.7087 33.5403 28.7087C33.6508 28.8197 33.7324 28.9563 33.7781 29.1064C33.9225 28.5892 33.8099 27.058 33.8099 27.058C33.9702 27.283 34.5392 27.4205 34.5753 27.4291C34.1072 27.1348 33.983 25.9895 33.983 25.9895C34.0615 26.1228 34.4182 26.1889 34.4182 26.1889C33.8238 25.579 33.9883 24.9157 33.9883 24.9157C34.207 25.0416 34.5032 24.9157 34.5032 24.9157C33.9426 24.6065 33.7908 23.7534 33.7908 23.7534C33.9628 23.9667 34.1008 23.9262 34.1008 23.9262C33.5824 23.3641 33.3728 22.5816 33.5403 21.8341L33.8004 22.106C33.8004 22.106 33.4246 20.6238 33.6942 19.8176C33.9639 19.0115 33.6645 18.7513 33.5456 19.0925C33.4267 19.4338 33.2675 19.3111 33.2675 19.3111C33.5159 18.376 32.862 17.958 32.7038 17.9377C32.5456 17.9174 31.5828 19.5137 31.4883 19.8326C31.3938 20.1514 30.7993 20.3657 30.7993 20.3657C30.0329 20.9757 30.3747 21.1122 30.1911 21.64C30.0074 22.1678 28.897 22.9654 28.897 22.9654L28.7654 23.1243C28.7654 23.1243 29.7654 23.0454 29.5775 23.6521C29.3896 24.2589 28.4777 24.2088 28.4777 24.2088C28.4777 24.2088 28.6656 24.7867 28.5371 25.1343C28.4087 25.482 28.0308 24.9211 28.0063 24.8774C28.018 24.9115 28.1804 25.3967 28.0658 25.483C27.9511 25.5694 27.6497 25.1631 27.6497 25.1631C27.6015 25.3528 27.543 25.5397 27.4745 25.723C27.3949 25.9096 25.362 26.8117 24.4904 27.6072C23.6189 28.4026 21.8492 27.8321 21.5584 28.2469C21.2675 28.6617 19.1422 29.8251 18.6667 30.0394C18.1911 30.2538 17.9002 30.1834 17.9002 30.1834L18.1253 30.4884C18.1253 30.4884 18.2176 30.8861 16.0785 32.7831C15.5454 33.2611 14.8723 33.5526 14.1603 33.6138C13.5164 33.6606 12.8698 33.5764 12.259 33.3664C12.1529 33.3312 12.0531 33.2949 11.9575 33.2598C11.6248 33.1346 11.3043 32.979 11 32.7948C11.0202 32.83 11.6645 33.9411 11.9554 34.3058C12.1698 34.5667 12.4003 34.8139 12.6454 35.0458C12.7166 35.1141 12.7611 35.1525 12.7611 35.1525C12.7439 35.1624 12.7258 35.1706 12.707 35.177C12.5642 35.2117 12.4148 35.208 12.2739 35.1663C12.38 35.2676 12.5828 35.3124 12.7845 35.3412C12.9076 35.3593 13.0308 35.37 13.1263 35.3839C13.2622 35.4031 13.3386 35.4276 13.3025 35.4841C13.2771 35.5147 13.2478 35.542 13.2155 35.5652C13.1357 35.6193 13.0511 35.666 12.9628 35.7048C12.8333 35.7635 12.7208 35.8019 12.7208 35.8019C12.8246 35.8583 12.9404 35.8886 13.0584 35.8904C13.156 35.8989 13.2707 35.9021 13.3853 35.9021C13.8302 35.8932 14.2742 35.8601 14.7155 35.8029C14.6094 35.9442 14.4603 36.0468 14.2909 36.0951C14.5435 36.1591 14.966 36.0301 15.3057 35.8968C15.603 35.7784 15.8365 35.6579 15.8365 35.6579C15.8185 35.8616 15.638 36.1164 15.5318 36.2519C15.4862 36.3105 15.4543 36.3468 15.4543 36.3468C15.4942 36.3376 15.5329 36.3244 15.5701 36.3073C16.0764 36.094 16.9501 35.1994 16.9501 35.273C16.9501 35.3466 16.8705 35.7368 16.8705 35.7368C17.1172 35.4628 17.3425 35.1701 17.5446 34.8614C17.5711 35.1813 17.1614 35.8829 17.1614 35.8829C17.4616 35.6226 17.6739 35.2749 17.7686 34.888C17.9405 34.2248 18.6475 34.0062 18.6475 34.0062C18.2325 35.3018 17.2452 36.3361 17.2452 36.3361C17.29 36.9658 17.2243 37.5985 17.0509 38.2054C16.8671 38.858 16.573 39.474 16.1815 40.0267L16.1433 40.0789L16.7081 40.6121C16.9331 40.8182 17.1631 41.0173 17.3981 41.2092L17.4713 41.2679L17.4777 41.2732C17.8719 41.5924 18.2778 41.8913 18.6953 42.17L18.7282 42.1924L18.7611 42.2137L18.8673 42.283L19.017 42.38L19.1889 42.4867L19.2877 42.5475L19.4575 42.6541L19.5467 42.7063C19.6104 42.7447 19.6751 42.781 19.7399 42.8183C19.8047 42.8556 19.8991 42.9079 19.9798 42.9516H19.9873L20.2219 43.0774L20.2431 43.0892L20.4554 43.1958L20.4915 43.2139L20.6072 43.2715L20.724 43.3291L20.7728 43.3525L20.9989 43.4592C21.0807 43.4976 21.1635 43.5359 21.2473 43.5722H21.2558C25.2742 45.332 29.8128 45.4702 33.9299 43.9582C34.2547 43.8388 34.5757 43.7087 34.8928 43.5679C35.0106 43.5157 35.1284 43.4613 35.2463 43.4059C35.4809 43.2992 35.7123 43.1798 35.9416 43.0593C36.1709 42.9388 36.3981 42.8108 36.622 42.6786C36.7346 42.6125 36.846 42.5453 36.9564 42.476C37.1772 42.3381 37.3956 42.1959 37.6114 42.0495C37.8273 41.903 38.0396 41.7498 38.2484 41.5899C38.8809 41.109 39.4796 40.5849 40.0403 40.0213C41.0337 39.0258 41.9005 37.9104 42.621 36.7008C45.3859 32.0183 45.7629 26.2923 43.6358 21.2849L43.6273 21.2945ZM31.6688 20.6878C31.6688 20.6878 31.6953 21.3851 31.6688 21.4107C31.6422 21.4363 31.3418 21.2796 31.3418 21.2796L31.6688 20.6878ZM20.8408 36.9332C20.6284 37.4302 19.9915 37.6296 19.9915 37.6296C19.9915 37.6296 20.2887 38.4826 20.3875 38.7631C20.4289 38.8793 20.432 39.2653 20.4236 39.6844C20.0297 39.6481 19.672 39.7025 19.6136 39.7462C19.4146 39.8371 19.2113 39.9179 19.0042 39.9883C18.9851 39.9744 18.9681 39.9595 18.9501 39.9456C18.9448 39.968 18.9395 39.9904 18.9352 40.0139C18.5011 40.1706 17.931 40.3604 17.4597 40.4841C17.4851 40.2709 17.5212 40.0373 17.5658 39.7707C17.6156 39.4892 17.6866 39.2119 17.7781 38.9411C18.259 37.5037 19.1221 37.1284 19.483 36.8789C19.9076 36.5878 20.7643 35.8787 20.7643 35.8787C20.7643 35.8787 21.0541 36.4353 20.8365 36.9332H20.8408ZM26.5955 38.0102C26.2931 38.0329 25.9895 38.0351 25.6868 38.0166C25.4214 37.9782 25.4405 38.1307 25.0998 38.5498C24.759 38.9689 24.2675 38.5871 24.2102 38.4741C24.1529 38.3611 23.4342 38.0177 23.4342 38.0177C23.4342 38.0177 22.8853 39.084 22.3365 39.6726C22.0647 39.9659 21.8057 40.0192 21.5541 39.9829V37.9889C21.5541 37.9889 23.6539 36.5099 24.0106 35.4351C24.3673 34.3602 24.3407 34.9445 24.7898 34.2013C25.2388 33.4581 25.5127 34.2845 25.5127 34.2845C25.5127 34.2845 25.2749 34.8411 25.2749 34.9808C25.2749 35.1205 25.3811 34.8614 25.6613 34.6918C25.9416 34.5223 26.2983 33.2832 26.7431 33.7204C27.1879 34.1576 26.7431 37.1817 26.7431 37.1817L27.1401 37.7405L26.5955 38.0102ZM28.242 37.1892L28.1932 37.2137C28.1613 37.1753 28.1306 37.1398 28.1008 37.1071C27.8726 36.8789 28.1008 33.875 28.1008 33.875C28.1008 33.875 28.5063 33.2875 28.7049 33.4069C28.9034 33.5263 28.8959 34.4732 28.8959 34.4732C28.8959 34.4732 29.2919 32.6733 29.2144 33.5487C29.1688 34.0488 29.3736 35.4948 29.5573 36.6624C29.0828 36.8533 28.5892 37.0122 28.2378 37.1892H28.242Z" fill="url(#paint0_linear_229_10511)" />
<defs>
<linearGradient id="paint0_linear_229_10511" x1="1246.36" y1="5163.22" x2="2852.52" y2="-6612.88" gradientUnits="userSpaceOnUse">
<stop stop-color="#D1D3D4" />
<stop offset="1" stop-color="#58595B" />
</linearGradient>
</defs>
</svg>