<?xml version='1.0' encoding='utf-8'?>
<!-- by TradeStack -->
<svg width="56" height="56" viewBox="0 0 56 56" xmlns="http://www.w3.org/2000/svg"><path fill="#F0F3FA" d="M0 0h56v56H0z" /><path d="M46.49 38.73c.7.28.7.77-.08 1.15-.8.37-2.18.03-3.2-.15A65.46 65.46 0 0 0 28.54 39c-6.74.34-11.9.94-17.4 1.95-1.39.25-1.44-.33-.54-.6a78.4 78.4 0 0 1 18.24-3.18c7-.42 13.57-.05 17.65 1.57Z" fill="#D31B32" /><path d="M25.5 18v.58c.98 0 1.5.76 1.5 1.85v7.54c0 1.33-.25 2.53-1.5 2.53v.5h6v-.5c-1 .08-1.5-1.08-1.5-2.53V17c-1.78.42-2.7.66-4.5 1Z" fill="#9D9D9C" /><path d="M28 35c7.15 0 12-4.1 12-11 0-7.4-5.98-11-12-11-6.62 0-12 4.22-12 11 0 6.61 4.92 11 12 11Zm9-11c0 3.5-2.24 10-9 10-4.78 0-9-3.71-9-10s3.35-10 9-10c6.07 0 9 4.58 9 10Z" /></svg>