<?xml version='1.0' encoding='utf-8'?>
<!-- by TradeStack -->
<svg width="56" height="56" viewBox="0 0 56 56" xmlns="http://www.w3.org/2000/svg"><path fill="#F0F3FA" d="M0 0h56v56H0z" /><path d="M34 23h-5.19C27.26 23 26 24.42 26 26.17s1.26 3.33 2.81 3.33h.66c.3 0 .53.1.53.43 0 .33-.24.57-.53.57H26V33h3.28c1.5 0 2.72-1.37 2.72-3.07 0-1.7-1.22-2.93-2.72-2.93h-.66c-.34 0-.62-.45-.62-.83 0-.38.28-.67.62-.67H34V23Z" fill="#373136" /><path d="M35 23v6.13L33 33V23h2Z" fill="#373136" /><path d="M39.1 23H42l-9 10v-3.1l6.1-6.9Z" fill="url(#a)" /><path d="M11.69 24.2c.37.32.42.87.1 1.24l-6.24 7.25a.89.89 0 0 1-1.24.1.86.86 0 0 1-.1-1.23l6.24-7.25a.89.89 0 0 1 1.24-.1ZM14 24c.26 0 .51.13.68.35l3.13 4.03c.3.4.24.96-.15 1.27a.88.88 0 0 1-1.26-.15l-2.45-3.16-5.38 6.34a.88.88 0 0 1-1.26.1.92.92 0 0 1-.1-1.28l6.09-7.18c.17-.21.43-.33.7-.32Z" fill="#ADBED4" /><path d="M17.12 23c.25 0 .49.11.65.33l6.03 8.12c.21.28.26.67.12 1a.82.82 0 0 1-.74.55h-9.36c-.45 0-.82-.42-.82-.94s.37-1.06.82-1.06h7.57l-4.22-5.56-1.07 1.6c-.28.4-.8.48-1.16.16-.36-.32-.42-.9-.15-1.32l1.7-2.51a.8.8 0 0 1 .63-.37Z" fill="#26529A" /><path d="M46 23h-2v10h2v-7.5h2.05c.52 0 .95.45.95 1s-.43 1-.95 1H47V30h1.74c1.8 0 3.26-1.51 3.26-3.38v-.24A3.32 3.32 0 0 0 48.74 23H46Z" fill="url(#b)" /><path d="M43.1 23H46l-9 10v-3.1l6.1-6.9Z" fill="url(#c)" /><defs><linearGradient id="a" x1="42" y1="23" x2="31.9" y2="31.73" gradientUnits="userSpaceOnUse"><stop stop-color="#5F6365" /><stop offset=".63" stop-color="#373136" /></linearGradient><linearGradient id="b" x1="52" y1="23" x2="42.14" y2="30.57" gradientUnits="userSpaceOnUse"><stop stop-color="#5F6365" /><stop offset=".63" stop-color="#373136" /></linearGradient><linearGradient id="c" x1="46" y1="23" x2="35.9" y2="31.73" gradientUnits="userSpaceOnUse"><stop stop-color="#A2B5CF" /><stop offset=".93" stop-color="#27539A" /></linearGradient></defs></svg>