<?xml version='1.0' encoding='utf-8'?>
<!-- by TradeStack -->
<svg width="56" height="56" viewBox="0 0 56 56" xmlns="http://www.w3.org/2000/svg"><path fill="#F0F3FA" d="M0 0h56v56H0z" /><path d="M28 41a13 13 0 1 0 0-26 13 13 0 0 0 0 26Zm0 3a16 16 0 1 0 0-32 16 16 0 0 0 0 32Z" /><circle cx="28" cy="28" r="13" fill="#F9B661" /><path d="M19.24 26.4c.08-.17.22-.3.41-.39a.13.13 0 0 1 .12 0c.12.07.25.07.4 0 .04 0 .05-.04.04-.09l-.05-.14a.06.06 0 0 1 .03-.06.06.06 0 0 1 .07 0c.09.1.18.1.27.03.05-.03.1-.03.13 0 .05.06.11.07.18.04a.15.15 0 0 1 .17.04l.2.25a.28.28 0 0 0 .29.1.28.28 0 0 0 .21-.2c.05-.22.15-.4.3-.58a.14.14 0 0 0 .04-.14c-.07-.22.01-.35.24-.41a.05.05 0 0 0 .03-.04v-.02l-.01-.03-.07-.07c-.1-.09-.07-.13.05-.13h.1c.07 0 .1-.03.08-.1-.06-.14 0-.26.15-.33.05-.03.1-.03.15 0l.09.06a.13.13 0 0 0 .13 0c.12-.06.16-.15.1-.27-.03-.07 0-.1.07-.08.04 0 .08.04.1.1.01.08.06.09.11.04l.26-.24a.16.16 0 0 1 .12-.04c.17 0 .3-.08.38-.26a.11.11 0 0 1 .1-.07c.18 0 .3-.07.4-.2.04-.05.09-.07.15-.05.2.05.34.18.41.38a.1.1 0 0 0 .08.06.1.1 0 0 0 .09-.04l.15-.26c.04-.06.08-.07.14-.03.14.12.24.1.3-.05.03-.06.07-.07.11-.01.1.13.25.2.43.2.05 0 .09 0 .12-.04 2.5-2.2 5.34-3.43 8.54-4.3.99-.26 1.18 1 .92 1.63-.48 1.16-1.82 1.56-2.97 1.61a17.67 17.67 0 0 0-6.18 1.42.13.13 0 0 0-.02.12l.03.06c.15.12.2.27.15.45-.02.09.01.12.1.09 1.95-.65 7.82-2.73 9.45-1.29.7.63.3 1.7-.44 2.06a4.8 4.8 0 0 1-2.18.48.13.13 0 0 0-.13.08.13.13 0 0 0 .04.15 8.21 8.21 0 0 1 2.66 5.4c.2 1.94-.68 3.35-2.03 4.68-.04.04-.08.04-.12.01-.85-.63-1.6-1.37-2.2-2.21-.81-1.11-1.52-2.85-2.32-4.25a.2.2 0 0 0-.1-.1.69.69 0 0 1-.39-.31.14.14 0 0 0-.13-.08 2.2 2.2 0 0 0-.93.17.26.26 0 0 1-.14.01 6.17 6.17 0 0 0-1.52-.05.13.13 0 0 0-.05.16c.36.8.12 1.26.16 2.03.06 1.17-.65 1.3-1.38 1.9-.02.02-.05.02-.07 0a.32.32 0 0 0-.04-.05v-.03l.45-.39a.17.17 0 0 0 .07-.13c.02-.52.14-1.01.35-1.5a.2.2 0 0 0 .01-.15c-.14-.41-.2-.83-.2-1.26a.23.23 0 0 0-.22-.24c-.04 0-.08 0-.12.02a.83.83 0 0 1-.7.04.11.11 0 0 0-.15.05.1.1 0 0 0 0 .05l.05 1.12a.22.22 0 0 1-.08.17.23.23 0 0 1-.19.06c-.3-.06-.83-.17-.8.35 0 .05.01.1.04.14.27.4.4.82.37 1.3 0 .07.03.1.1.12l.17.03.02.01v.02a.03.03 0 0 1-.02.04l-.17.05a.19.19 0 0 0-.13.14.18.18 0 0 0 .06.18c.2.16.28.33.34.59.03.12.12.19.25.2.06.02.07.04.02.08-.77.56-1.18-.62-1.3-1.2a.15.15 0 0 0-.08-.11c-.89-.41-.87-1.11-1.1-1.89-.02-.05-.05-.07-.11-.06-.56.17-1.59.2-1.66.95a.1.1 0 0 1-.08.09.1.1 0 0 1-.11-.04 4.76 4.76 0 0 1-.99-2.59.1.1 0 0 0-.1-.1l-.62-.05c-.07-.01-.1.02-.12.09l-.11.67v.01a.04.04 0 0 1-.08 0V30l.07-.63a.14.14 0 0 0-.08-.14.14.14 0 0 0-.16.04l-2.15 2.46c-.05.04-.06.04-.06-.03.01-.15.06-.26.13-.33.5-.5.95-1.02 1.34-1.6.28-.4.64-.7 1.07-.9a.14.14 0 0 0 .1-.1c.04-.24.19-.33.44-.29a.16.16 0 0 0 .12-.03c.12-.08.15-.18.1-.3-.06-.16-.25-.24-.41-.34a.07.07 0 0 1-.02-.1c.16-.18.16-.32-.01-.44a.08.08 0 0 1-.02-.1l.02-.02.28-.22c.04-.04.05-.08.01-.12a1 1 0 0 1-.19-.4c-.02-.08 0-.1.08-.06l.12.07c.04.02.06.02.08-.02Zm9.37.28a.1.1 0 0 0 .2-.01l.47-1.24a.1.1 0 0 0-.02-.1.1.1 0 0 0-.08-.05h-1.13a.1.1 0 0 0-.1.16l.66 1.24ZM18.9 29l.44-.05a.05.05 0 0 0 .03-.02v-.11a.15.15 0 0 0-.03-.07.18.18 0 0 0-.05-.05.22.22 0 0 0-.07-.03h-.08l-.12.02c-.06 0-.1.03-.14.07a.16.16 0 0 0-.05.13l.01.07a.04.04 0 0 0 .02.03.05.05 0 0 0 .04.01Zm4.85.56c-.03-.18-.14-.26-.32-.24a.27.27 0 0 0-.25.23c-.06.48-.36.79-.36 1.22 0 .53.12 1.03.38 1.49a.1.1 0 0 0 .11.04.1.1 0 0 0 .08-.1c-.04-.44-.34-1.33.27-1.5.54-.15.76-.5.66-1.07a.1.1 0 0 0-.04-.07.1.1 0 0 0-.08 0l-.33.08a.1.1 0 0 1-.08-.01.1.1 0 0 1-.04-.07ZM23.02 39c-.19 0-.36-.03-.52-.1a.83.83 0 0 1-.5-.77h.6c0 .12.04.21.11.28.08.07.18.1.3.1.13 0 .23-.02.3-.09a.34.34 0 0 0 .12-.26.3.3 0 0 0-.08-.21.5.5 0 0 0-.19-.13 2.5 2.5 0 0 0-.3-.11 3.57 3.57 0 0 1-.45-.17.82.82 0 0 1-.28-.24.76.76 0 0 1-.12-.45c0-.17.04-.32.12-.45.08-.13.2-.23.34-.3.15-.07.32-.1.51-.1.28 0 .52.07.7.22.17.15.27.35.29.62h-.61c0-.1-.05-.19-.12-.25a.42.42 0 0 0-.3-.1c-.1 0-.2.03-.26.08-.06.06-.1.15-.1.26 0 .08.03.14.08.2.05.05.1.09.18.12l.3.11c.19.06.33.11.45.17a.73.73 0 0 1 .41.7.84.84 0 0 1-.45.76 1.1 1.1 0 0 1-.53.11ZM29.88 39l-.6-1.17h-.24V39h-.54v-3h1c.21 0 .39.04.53.12.15.08.26.2.33.34.07.13.1.29.1.46 0 .2-.04.38-.14.54a.79.79 0 0 1-.46.32L30.5 39h-.62Zm-.84-1.62h.44c.15 0 .26-.04.33-.12.07-.08.1-.19.1-.33 0-.13-.03-.24-.1-.32-.07-.07-.18-.11-.33-.11h-.44v.88ZM28 36l-.8 3h-.67L26 36.86 25.44 39h-.67L24 36h.61l.5 2.33.58-2.33h.64l.55 2.31.5-2.31H28ZM34 36v3h-.55v-1.95L32.7 39h-.42l-.74-1.95V39H31v-3h.63l.87 2.23.88-2.23H34Z" /></svg>