<!-- by TradeStack --><svg width="56" height="56" viewBox="0 0 56 56" xmlns="http://www.w3.org/2000/svg"><path fill="#F0F3FA" d="M0 0h56v56H0z"/><path fill-rule="evenodd" d="M12.75 32c1.8 0 3.25-1.47 3.25-4 0-2.53-1.46-4-3.25-4-1.8 0-3.25 1.29-3.25 4s1.46 4 3.25 4Zm.05-1.5c.69 0 1.25-.92 1.25-2.5s-.56-2.5-1.25-2.5-1.25.8-1.25 2.5.56 2.5 1.25 2.5Zm-4.5-4.38.7-1.25c-.71-.5-1.34-.8-2.33-.8-1 0-2.42.67-2.42 2.3 0 1.62 1.1 2.01 2.15 2.38.83.3 1.02.75 1.01.94.01.28-.18.82-1.01.82-.84 0-1.5-.54-1.73-.82L4 30.97c.44.42 1.16.85 2.4.85S9 31.47 9 29.7c0-1.77-1.26-2.26-2.15-2.5-.7-.18-.92-.63-.94-.83-.05-.27.07-.81.94-.81.87 0 1.33.38 1.45.57ZM29.24 28c0 2.53-1.4 4-3.12 4C24.4 32 23 30.71 23 28s1.4-4 3.12-4c1.72 0 3.12 1.47 3.12 4Zm-1.99 0c0 1.55-.5 2.44-1.13 2.44-.63 0-1.13-.78-1.13-2.44s.5-2.44 1.13-2.44c.62 0 1.13.9 1.13 2.44ZM16 24.57c.16.17.5.72.5 1.56V32h2v-5.85c.25-.27.57-.48.92-.48.74 0 1.06.54 1.08.82V32h2v-6.33c0-.58-.88-1.67-2.3-1.67-.78 0-1.42.51-1.85 1.02a3.33 3.33 0 0 0-.8-1.02l-1.55.57Zm13.52 0c.16.17.47.72.47 1.56V32H32v-5.84c.24-.27.53-.48.85-.48.63 0 .64.45.65.74V32h2v-5.73c.25-.32.58-.59.94-.59.58 0 .57.4.56.68V32h2v-6.32c0-.58-.5-1.68-1.83-1.68-.77 0-1.41.59-1.8 1.12a1.9 1.9 0 0 0-1.8-1.12c-.71 0-1.31.51-1.71 1.01a3.18 3.18 0 0 0-.78-1.01l-1.56.57Zm10.5.21.59 1.4c.2-.24.8-.7 1.57-.7.86 0 .84.36.82.67V27h-1.1c-.77.04-2.31.62-2.31 2.63.02.79.47 2.37 2.13 2.37.86 0 1.41-.27 1.74-.6l.5.6 1.5-.86c-.14-.15-.46-.52-.46-.85v-4.54c-.04-.59-.56-1.75-2.4-1.75-1.06 0-2.14.56-2.58.78ZM43 30.36v-2.07h-.63c-.93 0-1.14.95-1.14 1.27 0 .32.26 1.1 1.07 1.1.3 0 .53-.13.7-.3ZM47.24 32l1.7-2.56 1.7 2.56 1.36-.87-2.06-3.2 2.06-3.1-1.51-.83-1.55 2.4-1.55-2.4-1.51.83 2.06 3.1-2.06 3.2 1.36.87Z" fill="#F58231"/></svg>