<?xml version='1.0' encoding='utf-8'?>
<!-- by TradeStack -->
<svg width="56" height="56" viewBox="0 0 56 56" xmlns="http://www.w3.org/2000/svg"><path fill="url(#aclg03rap)" d="M0 0h56v56H0z" /><path d="M9.98 27.3c-1.33-.9-3.65-.66-3.65-2.18 0-1.09.64-1.3 1.64-1.3.82 0 1.45.22 1.45.22l.22.96h.86v-1.48S9.32 23 7.72 23C6.12 23 5 23.73 5 25.25c0 1.46.68 2.08 2.6 2.63 1.5.43 1.92.76 1.98 1.6.09 1.5-.76 1.7-1.88 1.7-.93 0-1.76-.4-1.76-.4l-.2-1.28H5v1.86s1.47.64 2.77.64C9.6 32 11 31.63 11 29.5c0-1.1-.27-1.69-1.02-2.2ZM41 32v-.5l1-.2V28c0-.8-.5-1-1-1-.75 0-1.5 0-2 1v3.3l1 .2v.5h-3v-.5l1-.2v-4.7l-1-.16V26h2v1c.42-.82 1.46-1 2-1 1.24 0 2 .74 2 2v3.3l1 .2v.5h-3Zm-6-3c-1.43 0-3 .09-3 1s1.03 1 1.4 1c.56 0 1.6-.5 1.6-.5V29Zm0 3v-.5c-.77.46-1.45.5-2 .5-1 0-2-.56-2-2 0-2.05 2.72-1.98 4-2 0-1-.66-1.15-1.6-1.15-.54 0-1.4.15-1.4.15v.5h-.53v-1.02S32.6 26 33.9 26c1.43 0 2.11.61 2.11 2v3.3l.5.2v.5H35Zm-7.5-5c-.66 0-1.5.5-1.5.5v3s.78.5 1.51.5c.86 0 1.49-.52 1.49-2 0-1.64-.71-2-1.5-2Zm.01 5c-1.12 0-1.51-.5-1.51-.5v.5h-1v-8.28l-1-.22V23h2v3.54s.36-.54 1.5-.54c1.3 0 2.5.84 2.5 3 0 2.07-1.12 3-2.49 3ZM22 27.5s-.72-.5-1.46-.5c-.86 0-1.54.52-1.54 2 0 1.64.75 2.05 1.54 2.05.66 0 1.46-.55 1.46-.55v-3Zm0 4.5v-.5s-.59.5-1.5.5c-1.3 0-2.5-.93-2.5-3s1.13-3 2.5-3c.99 0 1.3.33 1.5.45v-2.77l-1-.18V23h2v8.3l1 .2v.5h-2Zm-4.84-5.39-2.4 6.6C14.26 34.62 13.14 35 12 35c-.58 0-1-.17-1-.17V33h.5l.2 1.28s.12.02.3.02c.4 0 1.54-.06 2-1.34l.3-.96H14l-2-5.39-1-.11V26h3v.5l-1 .11L14.6 31l1.7-4.39-1.3-.11V26h3v.5l-.84.11ZM51.2 31.33l-2.6-2.9 1.9-1.86 1-.16V26h-3v.4l.73.17L47.75 28H47v-5h-2v.5l1 .18v7.64l-1 .18v.5h3v-.5l-1-.18V29h.86l2.1 2.33-.96.17v.5h3v-.5l-.8-.17Z" fill="#F0F3FA" /><defs><linearGradient id="aclg03rap" x1="12" y1="5" x2="40.5" y2="53.5" gradientUnits="userSpaceOnUse"><stop stop-color="#2A5478" /><stop offset=".23" stop-color="#294C6E" /><stop offset="1" stop-color="#20335B" /></linearGradient></defs></svg>