<!-- by TradeStack --><svg width="56" height="56" viewBox="0 0 56 56" xmlns="http://www.w3.org/2000/svg"><path fill="#F0F3FA" d="M0 0h56v56H0z"/><path d="m35.94 10-.03.02-.25.26a.06.06 0 0 0-.02.05c0 .02.01.03.03.04l.03.03a3.53 3.53 0 0 0 .55.38c.08.04.15.07.21.08.06 0 .1 0 .12-.02l.02-.03c.04-.04 0-.15-.1-.3-.1-.14-.27-.3-.45-.46l-.04-.03a.07.07 0 0 0-.05-.02h-.02Zm-.4 1.05a1.05 1.05 0 0 1-.53-.68.27.27 0 0 0-.08-.14.32.32 0 0 0-.32-.05.3.3 0 0 0-.14.1c-.15.22-.16.43-.02.63a.2.2 0 0 0 .23.1c.3-.07.5.03.6.3 0 .03.02.05.04.07a.16.16 0 0 0 .24-.05l.04-.08c.04-.08.02-.15-.07-.2Zm-2.02-.51c.06.02.11.06.14.1.04.05.05.11.04.17-.06.41.12.65.54.7.06.01.11.04.15.08.04.04.06.08.07.13.01.2-.08.35-.3.44a.16.16 0 0 1-.12 0 .14.14 0 0 1-.05-.03.13.13 0 0 1-.03-.05c-.13-.38-.4-.54-.83-.5a.34.34 0 0 1-.28-.1c-.48-.47-.03-1.16.67-.94Zm-.76 2.05a.34.34 0 0 0-.12-.04c-.56-.05-.8-.32-.75-.83 0-.08 0-.15-.04-.22-.54-1.01-1.9-.15-1.33.72.24.37.64.4 1.05.26.11-.03.2 0 .27.09l.45.58c.05.07.12.1.2.1.24.02.38-.1.43-.34a.28.28 0 0 0-.05-.24.32.32 0 0 0-.1-.08Zm-3.82-.26c.43.2.6.53.48 1-.02.08 0 .16.05.23.38.51.9.84 1.53.99.08.02.15.05.2.1.06.06.1.13.11.2.06.27-.05.47-.34.58-.25.1-.44.04-.55-.2A2.5 2.5 0 0 0 29.21 14a.4.4 0 0 0-.3-.04l-.46.13a.37.37 0 0 1-.26-.03c-1.18-.62-.51-2.3.75-1.74Zm-2.6 3.84c.08 0 .14.03.19.07l1.98 1.59a.24.24 0 0 1 .09.2c-.01.44.22.65.68.63.1 0 .2-.05.28-.12.39-.37.29-1.16-.47-1.03a.35.35 0 0 1-.28-.06l-2.04-1.6a.24.24 0 0 1-.07-.1.22.22 0 0 1-.01-.11c.16-.79-.29-1.6-1.22-1.5-1.56.2-.94 2.88.68 2.06a.36.36 0 0 1 .2-.03Zm-3.92 1.13c1-.4 1.87.72 1.65 1.54a.45.45 0 0 0 0 .26c.03.08.08.16.15.22 1 .84 2 1.64 3 2.4.18.13.42.18.74.14.09 0 .17 0 .25.05 1.43.84-.94 2.4-1.15.67-.02-.19-.08-.33-.2-.41-1-.8-2-1.6-3-2.44a.3.3 0 0 0-.3-.04c-1.97.84-2.93-1.65-1.14-2.39Zm15.42 8.3c-.4-.95-1.35-1.16-2.3-.74a.27.27 0 0 1-.27-.03l-3.76-3a.33.33 0 0 1-.08-.1.3.3 0 0 1-.04-.13c-.1-1.5-2.27-.68-1.35.54.04.04.08.07.14.08l.8.16c.08.02.16.05.23.11l3.64 2.93c.07.05.1.13.07.21-.84 2.84 4.02 2.59 2.92-.04Zm-16.47-.3a.24.24 0 0 0-.25-.03c-1.87.9-3.02-1.66-1.33-2.45 1.27-.6 2.19.63 1.9 1.76l.01.1a.2.2 0 0 0 .07.1l3.96 3.16.1.05h.1c.61-.11.97.1 1.05.62.17 1.01-1.55 1.32-1.6.01a.27.27 0 0 0-.02-.11.29.29 0 0 0-.08-.1l-3.9-3.11Zm15.5 6.6c0-1.28-1.03-1.52-2.15-1.15-.1.03-.19.02-.27-.05l-3.77-3.04a.4.4 0 0 1-.13-.2l-.02-.05c-.1-.32-.2-.7-.5-.87-1-.65-1.84 1.77-.1 1.48h.13a.3.3 0 0 1 .12.07l3.89 3.08c.03.03.06.07.07.11.02.04.02.09.01.13-.52 2.27 2.72 2.57 2.73.49ZM18 30.2v-.98c1.37-1.84 3.36-.77 2.96 1.16-.02.1.01.17.09.23l3.8 3.03.12.05c.05.01.1 0 .14 0 1.08-.34 1.46 1.72-.1 1.52a.34.34 0 0 1-.23-.13 1.7 1.7 0 0 1-.35-.74.32.32 0 0 0-.11-.18l-3.75-3a.21.21 0 0 0-.23-.03c-1.15.52-1.93.21-2.34-.92Zm14.12 6.12-3.14-2.53a.35.35 0 0 1-.13-.22c-.32-1.94-2.45-.48-1.25.5.06.05.13.07.21.07h.56c.08 0 .16.03.22.08l3.05 2.43c.08.06.12.13.14.2a.5.5 0 0 1 0 .24c-.25 1 .67 1.97 1.77 1.58 1.63-.58.74-3.29-1.22-2.33a.18.18 0 0 1-.21-.02Zm-2.58 3.47.94-.15a.1.1 0 0 1 .07.01c1.02.55 1.08 2.12-.21 2.22-.9.07-1.33-.74-1.2-1.48.01-.05 0-.1-.01-.14a.27.27 0 0 0-.09-.12L27.1 38.6a.38.38 0 0 0-.24-.08h-.24a.6.6 0 0 1-.42-.17.5.5 0 0 1-.14-.41c.03-.3.19-.5.46-.62a.45.45 0 0 1 .25-.04c.08.01.16.05.24.1a.64.64 0 0 1 .24.48c0 .18.13.35.37.53.58.43 1.14.87 1.68 1.34.07.06.15.08.24.07Zm-1.78 3.93c1.07-.48.42-2.32-.86-1.67a.23.23 0 0 1-.26-.02l-.95-.81a.37.37 0 0 1-.13-.27c-.02-.3-.2-.46-.56-.44a.48.48 0 0 0-.22.07.45.45 0 0 0-.15.15c-.24.4.02.68.43.8.52.14.95.44 1.3.88.05.07.07.14.06.23-.04.7.55 1.43 1.34 1.08Zm-2.59 1.1c-.49.45-1.33-.12-1.21-.81.01-.1-.01-.18-.08-.25-.17-.2-.4-.32-.67-.36a.35.35 0 0 1-.15-.05.32.32 0 0 1-.1-.12.3.3 0 0 1 .01-.29c.1-.16.26-.24.46-.24.05 0 .1.02.15.06.04.03.07.07.08.12.12.51.45.69.97.53a.4.4 0 0 1 .25.01c.7.26.81.93.3 1.4Zm-3.75-.89a.25.25 0 0 0-.04.2c.07.25.25.38.53.4l.08.04c.02.02.04.04.04.07l.15.58c.02.08.07.16.14.22.08.07.17.1.26.12.1 0 .2 0 .28-.05.09-.04.16-.1.2-.18.19-.31.18-.59-.03-.84a.27.27 0 0 0-.13-.08.29.29 0 0 0-.15 0c-.4.1-.66-.02-.75-.37a.32.32 0 0 0-.15-.17.36.36 0 0 0-.24-.05.29.29 0 0 0-.19.11Zm-.12 1.08a.2.2 0 0 1 .11.02c.04.02.07.06.08.1.1.25.05.45-.16.6a.36.36 0 0 1-.36.05.35.35 0 0 1-.14-.1.31.31 0 0 1-.06-.17.61.61 0 0 0-.41-.53.16.16 0 0 1-.06-.04.14.14 0 0 1-.01-.18l.08-.12a.12.12 0 0 1 .16-.03.1.1 0 0 1 .04.05c.14.28.38.4.73.35Zm-1.12.87a.16.16 0 0 0 0-.1c-.11-.32-.36-.51-.73-.6-.15-.02-.19.03-.13.15.12.27.32.48.6.64a.2.2 0 0 0 .2 0 .17.17 0 0 0 .06-.1Z" fill="url(#axrizlhlc)"/><defs><linearGradient id="axrizlhlc" x1="29.5" y1="13.5" x2="19.5" y2="47" gradientUnits="userSpaceOnUse"><stop stop-color="#8C52DD"/><stop offset=".72" stop-color="#2858C5"/><stop offset="1" stop-color="#2064CC"/></linearGradient></defs></svg>