<?xml version='1.0' encoding='utf-8'?>
<!-- by TradeStack -->
<svg width="56" height="56" viewBox="0 0 56 56" xmlns="http://www.w3.org/2000/svg"><path fill="#F0F3FA" d="M0 0h56v56H0z" /><path d="m37.15 12.64-.23-.15a4.8 4.8 0 0 0-.44-.21l-.13-.05a3 3 0 0 0-.34-.11l-.25-.06-.24-.06h-1.04c-.16 0-.33 0-.49.06h-.04c-1.82.25-3.82 1.56-5.35 4.12l-.11.18a12.44 12.44 0 0 0-.5.93c-.02.08-.15.32-.21.48l-.11.28c-.03.09-.14.3-.14.44s-.06.2-.1.3l-.13.42c0 .1-.06.2-.09.31l-.1.4-.06.32-.08.4-.06.32c0 .13 0 .25-.05.38l-.04.33c0 .12 0 .24-.03.36-.04.12 0 .22-.04.34-.03.11 0 .2 0 .32V23.26c0 .74.03 1.5.11 2.24v.04c0 .18.04.36.07.54v.03l.08.53c.04.28.1.55.15.8v.05l.14.77.04.3c.04.24.07.5.08.75v.21a10.76 10.76 0 0 1-2.79 8.9l-.06.06-.24.25-.29.27-.06.05c-1.3 1.17-2.04 1.23-2.52 1.07h-.1a1.8 1.8 0 0 1-.2-.1c-.42-.24-.98-.56-.6-2.17 0-.07.04-.14.06-.22l.1-.33c-1-.75-1.88-1.66-2.6-2.69-2.2 4-1.3 7.33.78 8.72l.23.14a4 4 0 0 0 .44.22l.1.04.37.12c.08 0 .16.04.25.06l.24.06c.11.02.23.03.34.03l.17-.02h.53l.49-.06h.04c1.82-.3 3.79-1.6 5.35-4.17l.1-.18c.14-.23.27-.47.38-.7l.11-.23.23-.48c.07-.16.07-.19.1-.28l.17-.44.1-.3c.05-.14.1-.27.13-.41l.09-.31.1-.41.07-.31.08-.4c0-.1.04-.21.05-.32l.05-.38c.02-.13 0-.22.05-.33.04-.11 0-.24 0-.36v-1.23c0-.75-.04-1.5-.12-2.25v-.03c0-.18-.04-.36-.07-.54 0-.19-.05-.37-.08-.54a22.36 22.36 0 0 0-.18-.99c-.05-.2-.09-.42-.12-.64 0-.1 0-.19-.04-.29-.03-.25-.07-.5-.08-.76v-.22a10.76 10.76 0 0 1 2.92-8.98l.24-.25.3-.27.05-.05c1.3-1.17 2.03-1.23 2.51-1.06l.09.03.2.1c.42.24.98.57.6 2.18 0 .07 0 .14-.05.22l-.1.32c1 .76 1.87 1.67 2.59 2.7 2.2-4 1.3-7.34-.77-8.72Z" fill="url(#a)" /><path d="m19.14 12.5-.24.12a5.7 5.7 0 0 0-.41.27l-.1.09c-.1.08-.2.15-.28.23l-.17.19a2.22 2.22 0 0 0-.37.45l-.1.14c-.04.05-.15.23-.21.36l-.06.08-.2.45v.04c-.64 1.7-.48 4.04 1 6.67l.1.18a14.98 14.98 0 0 0 .89 1.3l.19.24.3.36.2.24c.08.07.2.21.3.32l.24.23.3.28.24.22.31.27.26.2.3.24.27.2.3.2.29.2.26.17.33.2.17.1c.65.38 1.33.72 2.02 1.02h.04l.5.21.52.2.77.27h.06c.24.1.5.17.74.27l.27.11.7.3.21.1a11.04 11.04 0 0 1 6.41 6.83v.08l.1.33.1.39v.08c.36 1.7.06 2.35-.32 2.67l-.06.05-.18.11c-.43.25-.99.56-2.21-.57l-.2-.07a2.87 2.87 0 0 1-.23-.24c-1.16.47-2.4.76-3.65.85 2.41 3.88 5.77 4.79 8.04 3.69l.24-.12c.14-.08.28-.17.4-.27l.1-.07.3-.26.17-.19c.14-.13.26-.29.37-.45l.1-.14c.08-.11.14-.23.21-.36 0 0 0-.05.05-.08l.2-.46c.65-1.7.49-4.04-.99-6.66 0-.06-.05-.12-.1-.18a6.51 6.51 0 0 0-.41-.64l-.15-.22-.32-.42-.18-.24-.3-.35-.22-.24-.3-.32-.22-.23-.28-.35-.23-.22-.3-.26a4.03 4.03 0 0 0-.26-.2l-.3-.24-.27-.2-.3-.21-.29-.2-.27-.17-.32-.2-.17-.1c-.67-.38-1.36-.72-2.06-1.02h-.04l-.5-.2h-.03l-.51-.2-.77-.28-.18-.06-.62-.22-.27-.11-.71-.31-.2-.09a11.04 11.04 0 0 1-6.4-6.83.6.6 0 0 1 0-.08c0-.12-.08-.23-.1-.34l-.1-.38v-.07c-.37-1.7-.06-2.36.32-2.69l.07-.05.18-.12c.44-.25 1-.56 2.22.57l.16.16.24.24c1.16-.47 2.4-.76 3.65-.85-2.42-3.93-5.79-4.84-8.05-3.73Z" fill="url(#b)" /><path d="M10 27.83v.26a4.1 4.1 0 0 0 .04.65c.01.11.03.23.06.34 0 .09.05.17.07.25l.08.23.14.31.07.15a3.54 3.54 0 0 0 .26.45c.09.14.2.27.3.4v.03c1.17 1.4 3.3 2.44 6.33 2.48h1.28l.53-.05.3-.04.46-.08.32-.06.43-.1.32-.08.4-.12.31-.1.39-.13.31-.12.36-.14.31-.13.33-.15.31-.15.29-.14.34-.18.17-.1c.66-.36 1.3-.77 1.91-1.21h.03l.44-.33c.15-.11.3-.22.43-.34l.65-.52.04-.03.6-.5.23-.18c.2-.16.41-.31.65-.45l.18-.13a11.1 11.1 0 0 1 9.23-2.17H39l.34.09.39.11h.07c1.68.54 2.1 1.12 2.2 1.62V27.78c0 .5 0 1.14-1.62 1.62l-.22.06-.33.08a11.75 11.75 0 0 1-1.08 3.54c4.6-.12 7.09-2.56 7.25-5.02v-.27a4.08 4.08 0 0 0-.07-.97c0-.08-.05-.16-.08-.24l-.07-.23-.14-.32-.07-.15a4.47 4.47 0 0 0-.21-.37l-.05-.08-.3-.39v-.03c-1.18-1.4-3.3-2.44-6.34-2.49h-1.28l-.53.06-.3.04-.46.07-.31.07-.44.1-.31.08-.41.11-.31.1-.38.13-.32.12-.35.14-.31.13-.34.15-.31.15-.28.15-.34.17-.18.1c-.66.36-1.3.77-1.9 1.22l-.45.33-.42.34-.65.52-.15.12-.5.41-.23.18c-.2.16-.4.31-.65.45l-.18.13a11.1 11.1 0 0 1-9.22 2.18h-.09l-.34-.09-.39-.11h-.06c-1.68-.54-2.1-1.13-2.2-1.62V28.15c0-.5 0-1.14 1.6-1.61l.18-.12.33-.08a11.8 11.8 0 0 1 1.08-3.54c-4.6.12-7.07 2.54-7.25 5.03Z" fill="url(#c)" /><defs><linearGradient id="a" x1="22.16" y1="41.44" x2="37.56" y2="14.76" gradientUnits="userSpaceOnUse"><stop stop-color="#2462AA" /><stop offset=".48" stop-color="#B4C1DF" /><stop offset=".9" stop-color="#185AA5" /></linearGradient><linearGradient id="b" x1="16.08" y1="15.43" x2="38.61" y2="36.23" gradientUnits="userSpaceOnUse"><stop stop-color="#BEDFC8" /><stop offset="0" stop-color="#019653" /><stop offset=".5" stop-color="#B4DCC2" /><stop offset=".9" stop-color="#009653" /></linearGradient><linearGradient id="c" x1="11.52" y1="28.43" x2="46.48" y2="28.95" gradientUnits="userSpaceOnUse"><stop stop-color="#119C5D" /><stop offset=".48" stop-color="#BEDFC8" /><stop offset=".9" stop-color="#009653" /></linearGradient></defs></svg>