<!-- by TradeStack --><svg width="56" height="56" viewBox="0 0 56 56" xmlns="http://www.w3.org/2000/svg"><path fill="#F0F3FA" d="M0 0h56v56H0z"/><path d="M22.04 13h3.16l8.96 6.07c.34.1.82.24 1.23.42.22.1.44.21.62.34.1.07.19.16.26.26.08.1.16.26.16.45a4.7 4.7 0 0 0 .1 1.01c.22.03.43.13.59.22.19.1.39.24.56.36h.01c.2.14.36.25.5.33l.22.1h.02c.24 0 .65 0 1 .07.18.03.4.1.58.23.2.14.38.37.38.7a2.86 2.86 0 0 1-.07.54 2.35 2.35 0 0 0-.05.46h.12a3.05 3.05 0 0 0 1-.17l.22-.04c.08-.01.2-.02.34.04.16.06.28.18.35.33.06.12.07.25.07.35v.08l.03.2.1.64a75.85 75.85 0 0 1 .29 1.77c.1.63.18 1.28.2 1.81.01.26.01.52-.01.73-.01.1-.03.22-.07.32a.85.85 0 0 1-.2.34c-.3.3-.6.46-.85.59h-.01c-.25.13-.43.22-.62.41-.64.65-1.33.65-2.23.65h-.1c-1.02 0-1.3.02-1.62.36-.64.65-1.32.65-1.82.65h-.02c-.19 0-.4-.05-.58-.1l-.56-.18-.52-.16a1.37 1.37 0 0 0-.32-.07c-.24 0-.45 0-.7.06-.26.05-.59.16-1.05.4-.2.1-.3.19-.36.25-.06.07-.1.15-.16.27l-.01.01c-.06.13-.15.3-.3.48a2.1 2.1 0 0 1-.66.5l-.6.28c-.03 0-.05.02-.08.03-.2.09-.33.15-.46.23-.22.13-.4.3-.62.74-.14.3-.34.54-.61.66-.28.13-.54.08-.69.04l-.15-.04-.04-.01a.63.63 0 0 0-.08-.02c-.03.03-.06.09-.1.21l-.04.26-.03.26c-.04.21-.1.47-.24.73-.15.26-.38.48-.71.65-.24.12-.35.2-.4.24l-.03.03-.01.05c-.03.13-.1.51-.33.96-.12.24-.16.37-.18.43l-.01.1c0 .08 0 .2-.05.37a3.7 3.7 0 0 1-.25.6c-.26.54-.6.97-1.07 1.09-.5.13-.92-.16-1.2-.45a1.31 1.31 0 0 0-.04-.03l-.1.06c-.12.06-.3.12-.5.12h-2.5c-.1 0-.25 0-.37-.03a.7.7 0 0 1-.48-.38c-.09-.16-.1-.35-.11-.49l-.01-.6v-.01a12.18 12.18 0 0 0-.04-.78c-.01-.06-.04-.1-.31-.37a2.3 2.3 0 0 1-.39-.57 9.58 9.58 0 0 1-.1-.2l-.14-.27a.75.75 0 0 0-.2-.25.5.5 0 0 0-.3-.07c-.16 0-.2.03-.2.04a.47.47 0 0 0-.1.12l-.03.05c-.07.1-.23.34-.54.41-.29.06-.57-.04-.84-.17a1.26 1.26 0 0 0-.18-.08.86.86 0 0 1-.5.27c-.26.03-.53-.05-.8-.2-.2-.1-.38-.15-.53-.18l-.17-.04h-.05a1.77 1.77 0 0 1-.24-.06.7.7 0 0 1-.33-.23.67.67 0 0 1-.14-.47c.01-.12.05-.24.09-.34l.16-.35a1.38 1.38 0 0 0 .15-.45.88.88 0 0 0-.16-.14l-.03-.03c-.1-.07-.23-.18-.37-.31a.43.43 0 0 0-.17-.11l-.1-.03h-.01v-.01a1.1 1.1 0 0 1-.2-.07.64.64 0 0 1-.3-.3.7.7 0 0 1-.05-.41c.03-.2.13-.41.25-.66.15-.3.09-.5-.02-.78l-.02-.05c-.05-.13-.13-.32-.15-.51a.95.95 0 0 1 .28-.8c.03-.03.06-.09.1-.21l.03-.21v-.04l.04-.23c.04-.18.1-.44.32-.65.22-.23.52-.32.85-.32.55 0 1.1.14 1.58.26h.02c.5.14.94.25 1.37.25.4 0 .7-.1.99-.22l.13-.05c.1-.05.21-.1.31-.13.16-.05.34-.1.55-.1.22 0 1.28.08 2.47.18l3.12.28.33-1.03L22.04 13Zm1.08 1 1.45 16.66-.65 1.99-.4-.04a676.27 676.27 0 0 0-5.88-.5c-.05 0-.11.01-.22.05a4.53 4.53 0 0 0-.4.16c-.34.14-.78.3-1.36.3-.56 0-1.1-.15-1.58-.27h-.03c-.5-.13-.94-.24-1.36-.24-.1 0-.14.01-.15.02-.01 0-.03.05-.05.14l-.03.18v.04l-.06.3c-.04.2-.13.46-.34.67 0 .05.03.1.08.24l.02.04a1.84 1.84 0 0 1-.07 1.72c.14.06.3.16.45.32l.27.23.05.03c.1.08.25.2.36.38.29.43.17.91-.09 1.45l-.03.05h.04c.2.05.47.13.76.28l.18.08a.86.86 0 0 1 .5-.27c.26-.04.53.05.8.19l.14.06c.05-.09.16-.24.31-.36.21-.17.48-.26.82-.26a1.47 1.47 0 0 1 1.35.81l.2.39.07.13c.08.15.14.26.21.33l.04.04c.2.2.41.41.51.72.05.16.07.32.08.48v.62l.01.5h2.47c.05 0 .05 0 .08-.02.02-.01.07-.05.2-.11a.74.74 0 0 1 .56-.06c.2.06.36.2.5.34.1.1.17.15.22.17.04.02.05.01.05.01.03 0 .19-.07.42-.55.12-.24.17-.37.19-.43v-.1c0-.08 0-.2.06-.37.04-.16.12-.35.25-.61.15-.3.18-.45.2-.6l.08-.28c.06-.18.16-.33.33-.48.15-.13.35-.25.6-.37a.67.67 0 0 0 .3-.27c.05-.09.08-.2.11-.37l.02-.16.07-.42c.05-.22.14-.48.36-.7.23-.24.5-.31.75-.3a1.42 1.42 0 0 1 .38.08 1.64 1.64 0 0 0 .14.04.7.7 0 0 0 .12-.2c.28-.57.6-.9 1-1.14.18-.11.37-.2.56-.3l.08-.02.56-.27c.2-.1.3-.19.36-.26s.1-.14.16-.27c.07-.13.15-.3.3-.48.16-.18.37-.35.66-.5a5.1 5.1 0 0 1 1.3-.48c.36-.07.65-.07.9-.07.2 0 .4.05.58.1l.56.17.52.17c.16.05.27.06.32.06.49 0 .8 0 1.14-.35.64-.66 1.33-.65 2.23-.65h.1c1.02 0 1.3-.03 1.62-.36.3-.3.62-.47.86-.59h.01c.23-.12.4-.21.58-.38l.02-.1c.01-.13.02-.32 0-.56-.02-.48-.1-1.09-.18-1.71a75.27 75.27 0 0 0-.4-2.4v-.09c-.25.07-.6.15-1.03.15-.32 0-.64-.08-.86-.33a1.08 1.08 0 0 1-.25-.74c0-.2.04-.43.07-.59l.04-.26a4.5 4.5 0 0 0-.98-.1c-.26.01-.51-.11-.69-.2l-.56-.37h-.01a7.08 7.08 0 0 0-.5-.33l-.22-.1a.83.83 0 0 1-.7-.38 1.6 1.6 0 0 1-.22-.59 5.12 5.12 0 0 1-.08-.94 2.3 2.3 0 0 0-.43-.23 8.2 8.2 0 0 0-1.16-.38l-.09-.03-8.85-6h-1.78Zm18.6 11.35Zm-.34-.29Z" fill="#A6A08F"/><path d="M8.96 31A4.58 4.58 0 0 1 6 30.07l.48-1.13c.69.56 1.6.86 2.48.86.66 0 1.67-.16 1.67-1.01 0-.82-1.15-1.02-1.76-1.16-1.28-.3-2.7-.75-2.7-2.3 0-1.66 1.58-2.33 3.02-2.33.86 0 1.78.2 2.5.69l-.44 1.12a4.01 4.01 0 0 0-2.07-.61c-.68 0-1.63.2-1.63 1.06 0 .84 1.12 1 1.75 1.15 1.26.3 2.7.73 2.7 2.28C12 30.34 10.39 31 8.96 31ZM18 25l-3.46 8h-1.51l1.21-2.7L12 25h1.59l1.44 3.8 1.46-3.8H18ZM18.5 31v-8H20v8h-1.5ZM21 31v-8h1.5v8H21ZM26.5 31v-3.5c0-.81-.25-1.36-1.16-1.36-.6 0-1.22.18-1.67.58l-.5-1a3.7 3.7 0 0 1 2.32-.72c1.55 0 2.51.94 2.51 2.49V31h-1.5Zm-1.45 0C24 31 23 30.39 23 29.25c0-1.3 1.15-1.75 2.29-1.75h1.6v.91h-1.5c-.53 0-.89.15-.89.78 0 .5.16.81.82.81.64 0 1.17-.31 1.4-.9l.2.81c-.24.69-.88 1.09-1.87 1.09Z" fill="#241F20"/><path d="M33 31c1.03 0 2.2-.32 3-.99V27h-2.98v1h1.48v1.33c-.47.29-.89.4-1.43.4-1.51 0-2.57-1.2-2.57-2.73 0-1.54 1.03-2.73 2.58-2.73.81 0 1.47.28 2.05.89l.87-.9A3.73 3.73 0 0 0 33.02 23 3.95 3.95 0 0 0 29 27c0 2.29 1.75 4 4 4ZM39.49 31c-1.7 0-3-1.31-3-3 0-1.7 1.3-3 3-3s3 1.29 3 3c0 1.7-1.3 3-3 3Zm0-1.17c1.04 0 1.5-.84 1.5-1.83 0-.98-.46-1.84-1.49-1.84S38 27.01 38 28c0 .98.46 1.84 1.49 1.84ZM43 31v-8h1.5v8H43ZM47.86 31C46.2 31 45 29.64 45 28c0-1.65 1.2-3 2.86-3 1.67 0 2.64 1.46 2.64 3 0 1.55-.95 3-2.64 3Zm.16-1.14c1 0 1.83-.89 1.83-1.86a1.9 1.9 0 0 0-1.83-1.87c-1 0-1.52.89-1.52 1.87 0 .98.51 1.86 1.52 1.86ZM49.5 31l-.03-8H51v8h-1.5Z" fill="#AB9961"/></svg>