<?xml version='1.0' encoding='utf-8'?>
<!-- by TradeStack -->
<svg width="56" height="56" viewBox="0 0 56 56" xmlns="http://www.w3.org/2000/svg"><path fill="#F0F3FA" d="M0 0h56v56H0z" /><path d="m16.22 34-1.14 4h-.57l-.9-3.19-.95 3.19h-.57L11 34h.54l.86 3.37.94-3.37h.57l.9 3.35.86-3.35h.55ZM18.51 34.47v1.3h1.43v.42H18.5v1.35h1.6V38H18v-4h2.1v.47h-1.59ZM22.51 37.55h1.37V38H22v-4h.51v3.55ZM26 37.55h1.38V38H25.5v-4h.5v3.55ZM32 38h-.51l-1.98-3.15V38H29v-4h.51l1.98 3.15V34H32v4ZM34.51 34.47v1.3h1.43v.42H34.5v1.35h1.6V38H34v-4h2.1v.47h-1.59ZM39.28 38c-.25 0-.49-.04-.7-.13-.2-.1-.35-.23-.47-.39a1 1 0 0 1-.18-.56h.55c.02.18.09.34.22.46.14.13.33.19.58.19.25 0 .44-.06.58-.18a.6.6 0 0 0 .21-.47.53.53 0 0 0-.12-.37.79.79 0 0 0-.31-.21l-.5-.16a4.53 4.53 0 0 1-.62-.2 1.03 1.03 0 0 1-.4-.31.96.96 0 0 1-.16-.59 1 1 0 0 1 .61-.95c.2-.09.43-.13.68-.13.37 0 .67.1.9.27.23.19.37.43.4.73h-.56a.6.6 0 0 0-.24-.39.83.83 0 0 0-.55-.17.79.79 0 0 0-.52.17c-.14.1-.2.26-.2.46 0 .14.04.25.11.34.09.1.19.16.3.21.12.05.29.1.5.16.26.07.47.14.62.21a.92.92 0 0 1 .57.9c0 .2-.04.38-.15.54-.1.17-.25.3-.44.41-.2.1-.44.16-.7.16ZM43.7 38c-.26 0-.5-.04-.7-.13-.2-.1-.36-.23-.47-.39a.99.99 0 0 1-.18-.56h.54c.02.18.1.34.23.46.13.13.32.19.58.19.24 0 .43-.06.57-.18a.6.6 0 0 0 .21-.47.53.53 0 0 0-.12-.37.79.79 0 0 0-.3-.21l-.5-.16a4.54 4.54 0 0 1-.63-.2 1.04 1.04 0 0 1-.4-.31.96.96 0 0 1-.16-.59 1 1 0 0 1 .62-.95c.2-.09.42-.13.67-.13.37 0 .67.1.9.27.24.19.37.43.4.73h-.56a.6.6 0 0 0-.24-.39.83.83 0 0 0-.55-.17.79.79 0 0 0-.52.17c-.13.1-.2.26-.2.46 0 .14.04.25.12.34.08.1.18.16.3.21.12.05.28.1.5.16.25.07.46.14.62.21a.92.92 0 0 1 .57.9c0 .2-.05.38-.15.54-.1.17-.25.3-.45.41-.2.1-.43.16-.7.16Z" fill="#7D8392" /><path d="m17 26-2 3.74V32h-1v-2.26L12 26h1.2l1.3 2.5 1.3-2.5H17ZM24 32h-1l-3-4.5V32h-1v-6h1l3 4.5V26h1v6ZM27 27v1.5h2v1h-2V31h2v1h-3v-6h3v1h-2ZM33.85 32 32 30v2h-1v-6h1.9c1.06 0 2.1.5 2.1 2 0 .86-.5 2-1.75 2L35 32h-1.15ZM32 29h1c.83 0 1-.3 1-1s-.26-1-1.1-1H32v2ZM50 25l-2.5 5v3h-1v-3L44 25h1.11L47 28.8l1.89-3.8H50ZM8.55 33C7.4 33 6.03 32.32 6 31h1.03c.08.8.79 1 1.52 1 .7 0 1.45-.1 1.45-.9 0-.6-.8-.93-1.5-1.1-1.07-.26-2.46-.8-2.46-2.1 0-1.32 1.3-1.9 2.44-1.9 1.1 0 2.32.78 2.45 2H9.87c-.1-.7-.45-1-1.37-1-.67 0-1.5.12-1.5.87 0 .74.88.96 1.55 1.13 1.06.27 2.45.76 2.45 2.07C11 32.36 9.68 33 8.55 33ZM40 31a2 2 0 0 0 1.73-1H40v-1h3a3 3 0 1 1-.17-1h-1.1A2 2 0 1 0 40 31Z" fill="#64964E" /><path d="M14.5 18.47 6 20.8c0 1.4 2.5 4.2 8 4.2 9.01 0 16.5-4.45 20-4.67 2.8-.17 5.83 1.17 7 1.87l9-2.8c-1.67-.47-6-1.4-10-1.4-5 0-11.5 4.2-16.5 4.2-4 0-7.67-2.64-9-3.73Z" fill="url(#apctamiww)" /><defs><linearGradient id="apctamiww" x1="9" y1="21.27" x2="45.5" y2="21.27" gradientUnits="userSpaceOnUse"><stop stop-color="#E9EDEE" /><stop offset=".21" stop-color="#DFEBDE" /><stop offset=".47" stop-color="#A4ADAA" /><stop offset=".76" stop-color="#D6E7EE" /><stop offset="1" stop-color="#E2E6E9" /></linearGradient></defs></svg>