<?xml version='1.0' encoding='utf-8'?>
<!-- by TradeStack -->
<svg width="56" height="56" viewBox="0 0 56 56" xmlns="http://www.w3.org/2000/svg"><path fill="#F0F3FA" d="M0 0h56v56H0z" /><path d="M8.36 26.12c-.67-.05-.86-.44-.86-.82 0-.38.22-.8.89-.8H12V22H8.13A3.13 3.13 0 0 0 5 25.25c-.05 1.77 1.67 3.27 3.47 3.38.67.06 1.03.33 1.03.88 0 .51-.42.99-.94.99H5V33h3.22a3.7 3.7 0 0 0 3.3-1.77c.64-1.07.64-2.4.03-3.47-.61-1.04-1.83-1.56-3.2-1.64ZM24.5 21H22v12h2.5V21ZM28.5 25H26v8h2.5v-8ZM32.5 30.02V27.5H34V25h-1.5v-3H30v8.22c-.05 1.67 1.5 2.78 3.12 2.78h1.15l-.52-2.32h-.61c-.4 0-.64-.16-.64-.66ZM47.46 25C45.65 25 44 26.25 44 28.4V33h2.5v-4.57c0-.5.46-.93.99-.93h.02c.53.03.99.44.99.95V33H51v-4.57c0-1.9-1.56-3.43-3.49-3.43h-.05ZM39 25a4 4 0 1 0-.01 7.99A4 4 0 0 0 39 25Zm0 5.63c-.9 0-1.63-.72-1.63-1.63 0-.9.72-1.63 1.63-1.63.9 0 1.63.72 1.63 1.63 0 .9-.72 1.63-1.63 1.63ZM27.5 24c-.82 0-1.5-.68-1.5-1.51 0-.84.68-1.49 1.5-1.49s1.5.68 1.5 1.51c0 .84-.68 1.49-1.5 1.49ZM14.6 29.44h.05c.36 0 .66 0 .9-.43l.62-1.33c.2-.44.46-.68.82-.68.16 0 .57.05.84.65l.62 1.3c.22.44.38.5.87.5H21v-.25c0-2.23-1.79-4.2-4.01-4.2-2.23 0-3.99 1.97-3.99 4.2v.24h1.6Z" fill="#B8193F" /><path d="M19.35 30c-.65 0-1.17-.14-1.55-.9 0 0-.57-.9-.62-1A.22.22 0 0 0 17 28c-.06 0-.1.05-.15.1l-.65 1.06c-.3.6-.98.84-1.54.84H13.1a4 4 0 0 0 4.88 2.88A3.95 3.95 0 0 0 20.92 30h-1.57Z" fill="#B8193F" /></svg>