<!-- by TradeStack --><svg viewBox="0 0 56 56" xmlns="http://www.w3.org/2000/svg"><path fill="#F0F3FA" d="M0 0h56v56H0z"/><path d="M46 26h.7l.62 1.98a5.5 5.5 0 0 1 .18.77h.02a5.03 5.03 0 0 1 .19-.77l.6-1.98H49l-1.3 3.94c-.08.22-.17.41-.28.57a1.01 1.01 0 0 1-.89.49c-.09 0-.17 0-.24-.02a1.72 1.72 0 0 1-.17-.03v-.6a1.23 1.23 0 0 0 .33.05c.11 0 .21-.03.3-.08a.66.66 0 0 0 .2-.22c.07-.1.12-.2.15-.32l.11-.33L46 26ZM43.5 31c-.48 0-.85-.08-1.11-.25a.79.79 0 0 1-.39-.7c0-.21.07-.39.2-.53.14-.15.34-.25.6-.3a.65.65 0 0 1-.25-.2.5.5 0 0 1 .01-.62c.07-.08.18-.17.34-.26a.97.97 0 0 1-.46-.37 1.1 1.1 0 0 1-.17-.6c0-.25.06-.46.17-.63.1-.18.27-.31.48-.4a1.9 1.9 0 0 1 .98-.13 2.76 2.76 0 0 1 .36.05h1.24v.4l-.6.12a.97.97 0 0 1 .18.59 1 1 0 0 1-.38.83c-.26.2-.6.3-1.05.3-.11 0-.22 0-.32-.02a.58.58 0 0 0-.18.15.3.3 0 0 0-.06.19c0 .05.02.1.06.13.04.03.1.06.18.08l.3.02h.62c.4 0 .7.08.9.24.2.16.3.39.3.7a1 1 0 0 1-.5.9c-.33.2-.82.31-1.45.31Zm.03-.5c.27 0 .49-.03.67-.08a.9.9 0 0 0 .41-.22c.1-.09.14-.2.14-.32 0-.11-.03-.2-.09-.26a.49.49 0 0 0-.26-.12 2.32 2.32 0 0 0-.43-.03h-.56c-.14 0-.27.02-.38.06-.1.04-.19.1-.25.18a.48.48 0 0 0-.09.3c0 .15.08.27.22.35.15.09.35.13.62.13Zm.15-2.67c.22 0 .39-.06.5-.17a.7.7 0 0 0 .16-.5c0-.22-.06-.4-.17-.51-.11-.12-.28-.17-.5-.17-.2 0-.37.05-.48.17-.11.12-.17.3-.17.52 0 .21.06.37.17.49.11.11.28.17.5.17ZM41.65 26a1.66 1.66 0 0 1 .35.04l-.06.78a1.34 1.34 0 0 0-.31-.04.86.86 0 0 0-.66.3c-.08.09-.15.21-.2.36a1.6 1.6 0 0 0-.07.5V30H40v-4h.54l.1.77h.03c.06-.14.14-.27.24-.39.1-.11.2-.2.33-.27s.26-.11.41-.11ZM38.05 26c.3 0 .56.07.78.21.21.14.38.35.5.6.11.27.17.58.17.94v.44h-2.26c0 .37.1.66.26.86.17.2.4.3.71.3a2.23 2.23 0 0 0 1.12-.28v.67a2.15 2.15 0 0 1-1.15.26 1.52 1.52 0 0 1-1.47-.88 2.5 2.5 0 0 1-.21-1.1c0-.42.06-.8.2-1.1.12-.3.3-.53.53-.68.24-.16.5-.24.82-.24Zm0 .62a.69.69 0 0 0-.55.25c-.14.16-.22.41-.25.73h1.55c0-.19-.03-.36-.09-.5a.73.73 0 0 0-.24-.36.66.66 0 0 0-.42-.12ZM34.78 26c.38 0 .68.11.9.34.21.23.32.6.32 1.1V30h-.72v-2.4c0-.3-.06-.54-.17-.69-.1-.15-.28-.23-.5-.23-.33 0-.56.12-.7.35-.12.24-.19.58-.19 1.02V30H33v-4h.56l.1.6h.05a1.09 1.09 0 0 1 .64-.53c.14-.05.28-.07.43-.07ZM32.5 30H30v-5h2.5v.7h-1.78v1.35h1.67v.69h-1.67v1.57h1.78V30Z" fill="#F18128"/><path d="M27.14 26c.45 0 .79.1 1.01.32.23.22.35.56.35 1.01V30h-.53l-.15-.62h-.02c-.1.14-.2.26-.31.35-.11.09-.24.16-.38.2a1.62 1.62 0 0 1-1.07-.06.93.93 0 0 1-.4-.39c-.1-.17-.14-.4-.14-.66 0-.4.14-.7.4-.9.28-.2.7-.3 1.24-.32l.62-.03v-.2c0-.27-.06-.46-.18-.57-.1-.12-.27-.17-.48-.17-.17 0-.34.03-.51.08l-.49.2-.24-.57a2.6 2.6 0 0 1 1.28-.34Zm.61 2.09-.45.01c-.38.02-.64.09-.8.21a.63.63 0 0 0-.22.52c0 .19.05.33.15.42.11.08.25.13.42.13a.9.9 0 0 0 .64-.24c.18-.17.26-.4.26-.72v-.33ZM24.9 26v4h-.7v-4h.7Zm-.34-1c.1 0 .2.03.28.09.08.05.12.15.12.3 0 .13-.04.23-.12.29a.45.45 0 0 1-.28.09.46.46 0 0 1-.28-.1c-.08-.05-.12-.15-.12-.29 0-.14.04-.24.12-.3a.46.46 0 0 1 .28-.08ZM21.5 31c-.48 0-.85-.08-1.11-.25a.79.79 0 0 1-.39-.7c0-.21.07-.39.2-.53.14-.15.34-.25.6-.3a.65.65 0 0 1-.25-.2.5.5 0 0 1 .01-.62c.07-.08.18-.17.34-.26a.97.97 0 0 1-.46-.37 1.1 1.1 0 0 1-.17-.6c0-.25.06-.46.17-.63.1-.18.27-.31.48-.4a1.9 1.9 0 0 1 .98-.13 2.76 2.76 0 0 1 .36.05h1.24v.4l-.6.12a.97.97 0 0 1 .18.59 1 1 0 0 1-.38.83c-.26.2-.6.3-1.05.3-.11 0-.22 0-.32-.02a.58.58 0 0 0-.18.15.3.3 0 0 0-.06.19c0 .05.02.1.06.13.04.03.1.06.18.08l.3.02h.62c.4 0 .7.08.9.24.2.16.3.39.3.7a1 1 0 0 1-.5.9c-.33.2-.82.31-1.45.31Zm.03-.5c.27 0 .49-.03.67-.08a.9.9 0 0 0 .41-.22c.1-.09.14-.2.14-.32 0-.11-.03-.2-.09-.26a.49.49 0 0 0-.26-.12 2.32 2.32 0 0 0-.43-.03h-.56c-.14 0-.27.02-.38.06-.1.04-.19.1-.25.18a.48.48 0 0 0-.09.3c0 .15.08.27.22.35.15.09.35.13.62.13Zm.15-2.67c.22 0 .39-.06.5-.17a.7.7 0 0 0 .16-.5c0-.22-.06-.4-.17-.51-.11-.12-.28-.17-.5-.17-.2 0-.37.05-.48.17-.11.12-.17.3-.17.52 0 .21.06.37.17.49.11.11.28.17.49.17ZM19.65 26a1.66 1.66 0 0 1 .35.04l-.06.78a1.34 1.34 0 0 0-.31-.04.86.86 0 0 0-.66.3c-.08.09-.15.21-.2.36a1.6 1.6 0 0 0-.07.5V30H18v-4h.54l.1.77h.03c.06-.14.14-.27.24-.39.1-.11.2-.2.33-.27s.26-.11.41-.11ZM16.05 26c.3 0 .56.07.78.21.21.14.38.35.5.6.11.27.17.58.17.94v.44h-2.26c0 .37.1.66.26.86.17.2.4.3.71.3a2.23 2.23 0 0 0 1.12-.28v.67a2.15 2.15 0 0 1-1.15.26 1.52 1.52 0 0 1-1.47-.88 2.5 2.5 0 0 1-.21-1.1c0-.42.06-.8.2-1.1.12-.3.3-.53.53-.68.24-.16.5-.24.82-.24Zm0 .62a.69.69 0 0 0-.55.25c-.14.16-.22.41-.25.73h1.55c0-.19-.03-.36-.09-.5a.73.73 0 0 0-.24-.36.66.66 0 0 0-.42-.12ZM12.78 26c.38 0 .68.11.9.34.21.23.32.6.32 1.1V30h-.72v-2.4c0-.3-.06-.54-.17-.69-.1-.15-.28-.23-.5-.23-.33 0-.56.12-.7.35-.12.24-.19.58-.19 1.02V30H11v-4h.56l.1.6h.05a1.09 1.09 0 0 1 .64-.53c.14-.05.28-.07.43-.07ZM7.5 26h.7l.62 1.98a5.42 5.42 0 0 1 .18.77h.02a5.02 5.02 0 0 1 .19-.77l.6-1.98h.69l-1.3 3.94c-.08.22-.17.41-.28.57a1.01 1.01 0 0 1-.89.49c-.09 0-.17 0-.24-.02a1.69 1.69 0 0 1-.17-.03v-.6a1.23 1.23 0 0 0 .33.05c.11 0 .21-.03.3-.08a.66.66 0 0 0 .2-.22c.07-.1.12-.2.15-.32l.11-.33L7.5 26ZM7 28.6c0 .3-.07.55-.2.75-.14.21-.33.37-.59.48-.25.11-.55.17-.9.17a3.88 3.88 0 0 1-.93-.12 2.35 2.35 0 0 1-.38-.14V29c.19.09.4.16.64.23.23.07.47.1.72.1.2 0 .36-.02.49-.07a.62.62 0 0 0 .3-.23c.06-.1.09-.23.09-.36a.6.6 0 0 0-.11-.37c-.08-.1-.19-.19-.34-.27a5.57 5.57 0 0 0-.57-.27c-.15-.06-.3-.14-.44-.22a1.8 1.8 0 0 1-.37-.29 1.25 1.25 0 0 1-.35-.93c0-.27.06-.5.19-.7.13-.2.3-.35.54-.45.23-.1.5-.16.8-.16a2.89 2.89 0 0 1 1.34.3l-.24.65c-.2-.08-.38-.15-.56-.2a2.1 2.1 0 0 0-.55-.07 1 1 0 0 0-.42.08.58.58 0 0 0-.26.21.6.6 0 0 0-.08.33c0 .14.03.26.1.36.07.1.17.18.31.26.14.08.33.17.55.27.26.1.48.22.66.34.18.13.32.27.42.44.1.17.14.38.14.64Z" fill="#16446C"/><path d="M44.62 34.06A35.47 35.47 0 0 1 32.6 36C25.8 36 10.7 33.71 4 32.57l.08-.42c6.7 1.14 21.76 3.42 28.52 3.42a35 35 0 0 0 11.86-1.91c3.43-1.27 6.05-3.17 7.13-5.66l.41.16c-1.15 2.65-3.9 4.6-7.38 5.9Z" fill="#99B4CC"/></svg>