<?xml version='1.0' encoding='utf-8'?>
<!-- by TradeStack -->
<svg width="56" height="56" viewBox="0 0 56 56" xmlns="http://www.w3.org/2000/svg"><path fill="#F0F3FA" d="M0 0h56v56H0z" /><path fill-rule="evenodd" d="M43 13H13v30h30V13Zm-14.5 3.01A12 12 0 0 1 40 27.49L41 28l-1.01.5A12 12 0 0 1 28.51 40L28 41l-.5-1.01A12 12 0 0 1 16 28.51L15 28l1.01-.5A12 12 0 0 1 27.49 16L28 15l.5 1.01ZM38 28a10 10 0 1 1-20 0 10 10 0 0 1 20 0Zm-5.69-5.52a6.97 6.97 0 0 0-8.03-.4l-1.44-1.45a8.96 8.96 0 0 1 10.9.43l-1.43 1.42ZM27 36.95a9.1 9.1 0 0 0 2 0v-8.93c.93-.64 1.83-1.21 2.7-1.78 1.42-.9 2.78-1.76 4.07-2.8-.37-.61-.8-1.19-1.3-1.7l-6.41 4.5-6.02-4.99c-.45.4-.87.86-1.24 1.35 1.49 1.48 3.2 2.9 4.93 4.31L27 27.97v8.98ZM37 28a9 9 0 0 1-7 8.78V34.7a7 7 0 0 0 4.6-9.05l1.63-1.3c.5 1.1.77 2.34.77 3.64Zm-16.76-4.56 1.47 1.48A7 7 0 0 0 26 34.71v2.07a9 9 0 0 1-5.76-13.34Z" fill="#005AA5" /></svg>