<?xml version='1.0' encoding='utf-8'?>
<!-- by TradeStack -->
<svg fill="none" viewBox="0 0 56 56" xmlns="http://www.w3.org/2000/svg"><path fill="#F0F3FA" d="M0 0h56v56H0z" /><path fill-rule="evenodd" clip-rule="evenodd" d="M46 33h2v-5.38c0-.697-.104-1.366-.562-1.859-.468-.503-.781-.77-1.438-.77V33zM37.812 35h2.126L44.4 23h-2.123l-4.465 12zM10.22 27.322c-.624-.1-2.784-.404-3.21-.47v.718c0 .317.11.624.31.866.2.243.478.404.784.456l1.669.252a.937.937 0 01.638.303c.167.181.26.421.258.67 0 1.008-1.084 1.167-1.828 1.167a1.956 1.956 0 01-1.362-.407 1.48 1.48 0 01-.352-.487 1.895 1.895 0 01-.132-.665h-2.02c.012.403.102.875.265 1.242.163.368.396.698.685.973a4.03 4.03 0 002.89 1.062c1.225 0 2.349-.318 3.071-1.063.257-.264.458-.58.592-.927.133-.347.196-.718.185-1.09 0-1.449-1.033-2.37-2.45-2.593M20.757 27.002h.92a1.322 1.322 0 001.3-1.067c.038-.2.03-.406-.025-.601a4.46 4.46 0 00-.11-.329c-.586-1.514-2.07-1.995-3.8-1.995-2.255 0-4.057.948-4.208 3.216h2.353c.061-.933.716-1.37 1.843-1.37 1.38 0 1.715.575 1.715 1.525" fill="#11244D" /><path fill-rule="evenodd" clip-rule="evenodd" d="M46 24.991h6V23h-3.802c-.582 0-1.14.21-1.553.583-.412.373-.644.88-.645 1.408zM39.327 29.838L36.727 23h-2.155l2.042 5.35c.149.4.411.744.753.985.564.398 1.3.39 1.96.503zM21.004 29c0 1.531-1.29 1.984-2.81 1.984-.754.052-1.36-.283-1.36-.989 0-.705.95-1.04 1.658-.985h2.287v-2.008h-2.707a4.48 4.48 0 00-.952.12c-1.58.362-2.724 1.555-2.724 3.214 0 1.66 1.48 2.669 3.651 2.669.984.023 2.304-.364 2.965-1.005v1.005H23V29h-1.996zM11.688 24.189c-.755-.917-1.937-1.234-3.013-1.189-1.077.045-2.255.487-2.93 1.493-.192.296-.33.631-.408.987a4.73 4.73 0 00-.127 1.055l1.807.316s.025-.227.028-.28c.004-.053.03-.195.051-.292a2.43 2.43 0 01.177-.552c.155-.336.41-.6.723-.743.31-.13.644-.18.975-.146.747.046 1.449.588 1.449 1.162h2.052c-.036-.776-.318-1.265-.795-1.827" fill="#3AABC4" /><path fill-rule="evenodd" clip-rule="evenodd" d="M27.218 27.058c-1.433 0-2.41 1.06-2.256 2.308 0 .056 0 .145.022.157.13.738.44 1.434.906 2.025.402.46.9.83 1.459 1.08a4.29 4.29 0 001.782.377 4.125 4.125 0 001.765-.37 4.078 4.078 0 001.431-1.087c.435-.582.681-1.28.707-2.003h-2.196c-.014.304-.107.6-.27.858a1.644 1.644 0 01-1.436.691 1.853 1.853 0 01-1.362-.59c-.537-.588-.628-1.457-.628-2.327-.006-.373.02-.746.08-1.115" fill="#11244D" /><path fill-rule="evenodd" clip-rule="evenodd" d="M27.77 25.719c.175-.2.387-.36.622-.467.235-.107.488-.16.743-.154.278-.019.555.04.806.17.25.13.466.327.627.573.162.28.255.6.27.929h2.196a4.15 4.15 0 00-.722-2.191 4.13 4.13 0 00-1.425-1.177A3.826 3.826 0 0029.13 23a3.996 3.996 0 00-1.782.414 4.306 4.306 0 00-1.459 1.18 5.396 5.396 0 00-.95 2.464h2.278c.062-.494.254-.959.552-1.339z" fill="#3AABC4" /></svg>