<!-- by TradeStack --><svg viewBox="0 0 56 56" xmlns="http://www.w3.org/2000/svg"><path fill="#FF1E00" d="M0 0h56v56H0z"/><path d="M41.61 24.6c-.6 0-1.2.17-1.73.48l-2.77-2.78a2.55 2.55 0 0 0-3.4-3.4l-2.78-2.77a3.4 3.4 0 1 0-5.53.46c.46.55.9.93 1.6 1.1v7.23c-.68.18-1.1.58-1.53 1.14a3.19 3.19 0 0 0 0 3.88c.43.55.85.95 1.53 1.14v7.22c-.3.08-.43.2-.7.36l-2.79-2.79a2.55 2.55 0 0 0-3.38-3.38l-2.79-2.79a3.4 3.4 0 0 0-.03-3.46l2.76-2.76a2.54 2.54 0 1 0-1.17-1.18l-2.77 2.77a3.4 3.4 0 1 0 .06 5.82l2.74 2.75a2.55 2.55 0 0 0 3.43 3.43l2.74 2.74a3.4 3.4 0 1 0 5.5-.4 2.97 2.97 0 0 0-1.6-1.1v-7.22c.68-.19 1.1-.59 1.53-1.14a3.19 3.19 0 0 0 0-3.88A2.78 2.78 0 0 0 29 24.93V17.7c.33-.08.47-.21.76-.39l2.76 2.76a2.55 2.55 0 0 0 3.41 3.42l2.76 2.75a3.4 3.4 0 0 0-.02 3.5l-2.74 2.78a2.55 2.55 0 1 0 1.17 1.18l2.74-2.79a3.4 3.4 0 1 0 1.76-6.3h.01Zm-20.39-4.24a.84.84 0 1 1 .01 1.68.84.84 0 0 1 0-1.68Zm-7.92 7.65v-.1a1.12 1.12 0 0 1 1.04-1.04h.08a1.12 1.12 0 0 1 0 2.24h-.02a1.12 1.12 0 0 1-1.1-1.1Zm7.2 7.2a.85.85 0 1 1 1.47-.84.85.85 0 0 1-1.48.83Zm8.63 6.36A1.13 1.13 0 0 1 28 42.69h-.03a1.12 1.12 0 0 1-1.1-1.1v-.02a1.12 1.12 0 1 1 2.25 0ZM29.06 28a1.05 1.05 0 1 1-2.1 0 1.05 1.05 0 0 1 2.1 0ZM28 15.53a1.12 1.12 0 1 1 0-2.25h.08a1.12 1.12 0 0 1 1.04 1.05v.08A1.12 1.12 0 0 1 28 15.53Zm6.07 6.1a.83.83 0 0 1 .03-.9.84.84 0 1 1-.04.89Zm.73 14a.86.86 0 0 1-.82-.67.85.85 0 0 1 .82-1.01c.46 0 .84.38.84.84 0 .46-.38.84-.84.84Zm6.82-6.52h-.04c-.62.01-1.15-.5-1.15-1.13a1.13 1.13 0 0 1 1.23-1.11c.54.04 1 .5 1.04 1.03v.11c-.01.58-.5 1.08-1.08 1.1Z" fill="#fff"/></svg>