<!-- by TradeStack --><svg width="56" height="56" viewBox="0 0 56 56" xmlns="http://www.w3.org/2000/svg"><path fill="#F0F3FA" d="M0 0h56v56H0z"/><path d="M50 26h-2.07c-.23-1.35-1.35-2-2.7-2-2.24 0-3.23 2.05-3.23 4 0 1.96.97 4 3.22 4 1.32 0 2.46-.69 2.7-2.01L50 30a4.7 4.7 0 0 1-4.8 4c-3.36 0-5.2-2.89-5.2-6 0-3.1 1.85-6 5.2-6 2.46 0 4.48 1.52 4.8 4ZM30 34V22h4.62c1.92 0 3.9.94 3.9 3.11 0 1.46-.92 2.27-2.1 2.56v.11c1.55.09 2.58 1.47 2.58 2.95 0 2.3-2.09 3.27-4.12 3.27H30Zm2-2h2.76c1.05 0 2.24-.2 2.24-1.44 0-1.2-1.07-1.56-2.19-1.56H32v3Zm0-5h2.35c1.01 0 2-.5 2-1.6s-.97-1.4-1.96-1.4H32v3ZM28 22v12h-1.96L20 25.83V34h-2V22h1.97L26 30.18V22h2ZM8.3 34H6l4.17-12h2.65L17 34h-2.3l-3.16-9.54h-.09L8.3 34Zm.07-5h6.25v2H8.37v-2Z"/></svg>