<!-- by TradeStack --><svg viewBox="0 0 56 56" xmlns="http://www.w3.org/2000/svg"><path fill="url(#ap1dia5fu)" d="M0 0h56v56H0z"/><path d="m6.65 27.61 1.3.2c1.01.15 2.05.84 2.05 1.98 0 .85-.76 2.21-2.96 2.21C5.1 32 4 30.87 4 29.62c0-.25.12-.35.3-.35.17 0 .28.1.28.33 0 1.14 1.19 1.82 2.44 1.82 1.07 0 2.4-.47 2.4-1.64 0-.86-.84-1.3-1.56-1.41l-1.28-.2c-1.06-.15-2.24-.83-2.24-1.99 0-1.45 1.2-2.18 2.65-2.18H7c1.78.1 2.75.96 2.75 2.15 0 .26-.11.35-.29.35-.17 0-.29-.1-.29-.33 0-1.07-1.17-1.6-2.17-1.6h-.03c-1.08 0-2.05.46-2.05 1.63 0 .68.67 1.25 1.73 1.41ZM44 31.13v-2.5c0-.12-.07-.2-.22-.2h-2.3c-.27 0-.39.11-.39.28 0 .17.12.29.4.29h1.88v2.02c-.6.3-1.52.4-2.23.4-2.17 0-3.5-1.36-3.5-3.34 0-1.87 1.26-3.5 3.35-3.5.84.02 1.65.3 2.26.8.08.07.19.12.3.13a.36.36 0 0 0 .2-.09.28.28 0 0 0 .1-.18c0-.06-.02-.1-.05-.16A4.42 4.42 0 0 0 40.98 24C38.5 24 37 25.84 37 28.05 37 30.4 38.6 32 41.16 32c.84 0 1.94-.14 2.62-.48a.4.4 0 0 0 .18-.17.33.33 0 0 0 .04-.22ZM51.58 24a.4.4 0 0 1 .27.06h.01l.1.1.04.11-.01.12a.3.3 0 0 1-.06.1L48.8 28.2c-.07.09-.1.2-.1.3v3.21a.3.3 0 0 1-.12.21.4.4 0 0 1-.26.08.38.38 0 0 1-.24-.1.28.28 0 0 1-.09-.23v-3.3c0-.1.01-.2.05-.29a2843.42 2843.42 0 0 1 3.3-3.96.37.37 0 0 1 .23-.12Zm-16.73.06a.4.4 0 0 0-.27-.06.37.37 0 0 0-.23.13l-3.12 3.71a.7.7 0 0 0-.18.25c-.04.1-.06.2-.05.3v3.3c0 .07.03.15.1.2.06.07.14.1.23.1a.4.4 0 0 0 .25-.06.3.3 0 0 0 .13-.2V28.51c0-.1.03-.21.1-.3l3.12-3.71a.28.28 0 0 0 .07-.23.3.3 0 0 0-.14-.2l-.01-.01ZM27.67 24c.08 0 .16.04.22.09.03.02.06.05.08.09.02.03.03.07.03.1a.4.4 0 0 1-.12.25l.02.01-.02-.01-5.88 6.9h5.47c.13 0 .26.03.37.09.03.02.06.05.08.09.02.03.03.07.03.1a.2.2 0 0 1-.03.12.25.25 0 0 1-.08.1.69.69 0 0 1-.37.07h-6.1a.5.5 0 0 1-.25-.07.25.25 0 0 1-.09-.08.2.2 0 0 1-.03-.1c.01-.1.06-.2.13-.27l5.82-6.92h-5.36a.7.7 0 0 1-.37-.07.25.25 0 0 1-.08-.1.21.21 0 0 1-.02-.1c0-.05 0-.08.02-.12a.25.25 0 0 1 .08-.09.69.69 0 0 1 .37-.08h6.08Zm-9.82.06a.39.39 0 0 0-.27-.05.4.4 0 0 0-.13.04.34.34 0 0 0-.1.08l-3.12 3.7a.7.7 0 0 0-.18.25c-.04.1-.06.2-.05.3v3.29c0 .08.03.16.09.22s.15.1.24.1a.4.4 0 0 0 .26-.06.3.3 0 0 0 .12-.26V28.5c0-.1.03-.21.1-.3l3.12-3.7a.28.28 0 0 0 .07-.23.3.3 0 0 0-.15-.21Z" fill="#fff"/><defs><linearGradient id="ap1dia5fu" x1="10.42" y1="9.71" x2="68.15" y2="76.02" gradientUnits="userSpaceOnUse"><stop stop-color="#1A1E21"/><stop offset="1" stop-color="#06060A"/></linearGradient></defs></svg>