<!-- by TradeStack --><svg width="56" height="56" viewBox="0 0 56 56" xmlns="http://www.w3.org/2000/svg"><path fill="#F0F3FA" d="M0 0h56v56H0z"/><path d="M38.6 40a16 16 0 1 1-1.2-24.94c-1.38.11-3.13.48-4.99 1.28-.85-.24-1.79-.34-2.78-.34-2.76 0-5.31.98-7.17 2.65A9.84 9.84 0 0 0 19.5 18c-.67 0-1.27.1-1.74.41-.52.35-.75.88-.75 1.43v.09c.14 1.26.48 2.49.98 3.67a4.06 4.06 0 0 0-2.12 2.05c-.51.97-.77 2.05-.85 2.77l-.01.06v.06a9.57 9.57 0 0 0 5.24 7.97c.7.92 1.67 1.82 2.76 2.62 2.2 1.6 5.1 2.87 7.69 2.87 2.13 0 3.67-1.18 4.76-2.73a8.18 8.18 0 0 0 3.14.72Zm3-3.56A15.92 15.92 0 0 0 44 28c0-3.5-1.12-6.73-3.02-9.36a8.37 8.37 0 0 1-.65 3.78 12.12 12.12 0 0 1-2.85 4.1c.07.22.13.5.18.84.1.64.18 1.5.2 2.66a21.1 21.1 0 0 1 3.73 6.42Zm-6.88-9.8a44.22 44.22 0 0 0-6.83-5.32l.1-.09c4.18.29 6.27 2.04 7.25 3.48-.05.53-.13 1.1-.24 1.7l-.28.22Zm-8.26-6.16a28.6 28.6 0 0 1 1.66-1.5c.59-.5 1.2-.93 1.8-1.32h-.3c-2.05 0-3.93.63-5.4 1.7.7.31 1.45.68 2.24 1.12Zm-3.53.08a22.67 22.67 0 0 1 2.37 1.13 32.37 32.37 0 0 0-3.71 4.91l-.4-.55v-.8c0-1.8.65-3.42 1.74-4.69Zm-1.67-.6a6.89 6.89 0 0 0-1.77-.34c-.54 0-.78.1-.86.15a.16.16 0 0 0-.02.02v.02c.13 1.25.5 2.47 1.07 3.66.26-1.3.81-2.49 1.58-3.51Zm-2.55 5.16c-.5.11-.97.55-1.35 1.29-.38.72-.6 1.58-.67 2.15A8 8 0 0 0 19 33.58v-.1c0-.9.26-1.97.7-3.12.27-.7.61-1.46 1.02-2.24a21.37 21.37 0 0 1-2-3Zm3.14 4.32a17.8 17.8 0 0 0-.65 1.48 7.7 7.7 0 0 0-.6 2.56v.03c1.2.03 2.89-.14 4.78-.68a35.69 35.69 0 0 1-3.53-3.39Zm6.8 3.91a19.3 19.3 0 0 0 5.6-3.91c-.87 2.63-2.1 4.28-3.33 5.3l-.12.1a48.3 48.3 0 0 1-2.15-1.49Zm-1.74.7a19.01 19.01 0 0 1-5.68 1.1h.01c1.57.82 3.7 1.2 5.67 1.2.6 0 1.45-.15 2.38-.58-.78-.52-1.58-1.1-2.38-1.71Zm3.97 2.76A7.83 7.83 0 0 1 26.91 38c-1 0-2.08-.09-3.14-.29l.18.14c2.05 1.49 4.6 2.56 6.74 2.56 1.34 0 2.43-.69 3.29-1.84a39.7 39.7 0 0 1-3.1-1.76Zm1.4-1.04a45.1 45.1 0 0 0 2.53 1.42l.11-.23a16.28 16.28 0 0 0 1.34-6.36l-.44-.52a13.08 13.08 0 0 1-3.54 5.69Zm3.99 2.1.11-.25a17.41 17.41 0 0 0 1.37-5.09 15.88 15.88 0 0 1 2.61 5.54c-.09.07-.28.17-.61.23a6.54 6.54 0 0 1-3.48-.44Zm-9.1-5.66a34.52 34.52 0 0 1-4.51-4.28l.29-.49a30.8 30.8 0 0 1 3.77-4.94 42.65 42.65 0 0 1 6.86 5.27c-2 2.17-4.26 3.56-6.42 4.44Zm11.62-15.62c-.97-.03-2.54.1-4.34.68.56.4 1.05.9 1.44 1.52.88 1.37 1.23 3.23 1.07 5.6l.13.23a10.3 10.3 0 0 0 1.75-2.8c.65-1.58.84-3.39-.05-5.23Zm-6.36 1.49c-.91.44-1.84 1-2.76 1.7 2.57.42 4.37 1.4 5.6 2.5-.11-1.11-.4-1.97-.8-2.61a3.95 3.95 0 0 0-2.04-1.59Z" fill="#C65E2E"/></svg>