<!-- by TradeStack --><svg width="56" height="56" viewBox="0 0 56 56" xmlns="http://www.w3.org/2000/svg"><path fill="#F0F3FA" d="M0 0h56v56H0z"/><path d="M30.94 10.35C23.78 12.37 17 18.35 17 22.51c.02.35.09.56.3 1.17-.29.5-.48.85-.69 1.3a6.9 6.9 0 0 0-.61 2.75c-.01 2.46 1.62 3.8 4.63 3.77 1.27 0 3-.38 7.86-1.67 5.13-1.37 7.72-1.17 7.72.6 0 .45-.24.51-2.04.51-5.18 0-11.59 3.37-13.85 7.27-1.24 2.13-.73 2.31 1.2.42 2.76-2.68 7.67-4.85 10.96-4.84 2.1 0 2.26.3.87 1.6a24.12 24.12 0 0 1-8.63 5.06c-3.45 1.18-2.01 1.8 1.56.69a28.8 28.8 0 0 0 7.62-3.85c.96-.7 1.75-1.19 1.75-1.1 0 .67-1.36 2.59-2.8 3.93-4.5 4.21-11.52 5.65-11.52 2.36 0-.7.3-1.28 1.12-2.24 2.21-2.53.77-2.2-2.19.5C16.91 43.82 17.5 46 21.67 46c6.06 0 18.55-6.15 16.94-13.82.27-.42.41-.7.6-1.1 1.61-3.22.7-5.73-2.31-6.41-1.7-.39-3.83-.06-9.4 1.47-3.9 1.07-6.4 1.22-7.26.43-.33-.3-.6-.78-.6-1.07 0-.46.25-.52 2.14-.52 2.6 0 4.92-.57 7.6-1.87 3.14-1.51 6.83-5.24 6.83-6.88 0-.66-.14-.58-1.75.99a16.1 16.1 0 0 1-6.77 4.1c-2.3.82-5.85 1.14-6.2.57-.18-.3 1.41-1.81 3.27-3.1 1.72-1.2 6.23-3.41 7.42-3.64.53-.1.94-.35.94-.57 0-1.41-7.88 1.5-11.17 4.13-.8.64-1.5 1.16-1.58 1.16-.07 0 0-.38.15-.84 1.06-3.07 7.72-7.38 11.43-7.4 3.02-.01 3.6 2.1 1.2 4.38-.78.75-1.15 1.58-.7 1.58 1.4 0 5.59-3.71 5.55-5.48-.04-1.76-2.17-2.05-3.51-2.1-1.2-.05-2.7.1-3.55.34Z" fill="#0075C2"/></svg>