<!-- by TradeStack --><svg width="56" height="56" viewBox="0 0 56 56" xmlns="http://www.w3.org/2000/svg"><path fill="#F0F3FA" d="M0 0h56v56H0z"/><path fill-rule="evenodd" d="M42.85 37.2C46.79 34.74 49 31.44 49 28c0-3.45-2.21-6.75-6.15-9.2C38.9 16.38 33.57 15 28 15s-10.91 1.37-14.85 3.8C9.21 21.26 7 24.56 7 28c0 3.45 2.21 6.75 6.15 9.2C17.1 39.62 22.43 41 28 41s10.91-1.37 14.85-3.8Zm-.35-.36c3.85-2.34 6.01-5.52 6.01-8.84 0-3.32-2.16-6.5-6-8.85-3.85-2.34-9.07-3.66-14.51-3.66-2.7 0-5.36.32-7.85.95a24.22 24.22 0 0 0-6.65 2.71C9.65 21.5 7.49 24.68 7.49 28c0 3.32 2.16 6.5 6 8.84a24.22 24.22 0 0 0 6.66 2.72c2.49.62 5.16.95 7.85.95 5.44 0 10.66-1.32 14.5-3.67Z" fill="#0AA547"/><path fill-rule="evenodd" d="M46.39 32.5c1-1.45 1.51-3 1.51-4.56 0-1.57-.51-3.12-1.51-4.57-1-1.45-2.47-2.76-4.32-3.87a23.73 23.73 0 0 0-6.46-2.58c-2.41-.6-5-.91-7.61-.91-5.28 0-10.34 1.26-14.07 3.5-3.74 2.23-5.83 5.26-5.83 8.43 0 3.16 2.1 6.2 5.83 8.43 3.73 2.24 8.79 3.5 14.07 3.5 2.61 0 5.2-.31 7.61-.91 2.42-.6 4.61-1.48 6.46-2.59a13.79 13.79 0 0 0 4.32-3.87Zm-27.3 1.58c.12-.07.34-.08.48-.08h25.3c.02 0 .04-.02.05-.04l.03-.03a9.62 9.62 0 0 0 2.5-4.46 7.4 7.4 0 0 0-1.35-5.99c-.9-1.26-2-2.31-3.3-3.15a21.9 21.9 0 0 0-3.1-1.72 27.2 27.2 0 0 0-8.58-2.2c-3.4-.31-6.76-.1-10.1.62-1.9.42-3.75 1.08-5.5 1.9-.98.47-1.91 1.02-2.8 1.66a11.38 11.38 0 0 0-3.7 4.42 7.5 7.5 0 0 0 .58 7c.4.67.96 1.3 1.67 1.88.94.78 2 1.19 3.2 1.3a7.1 7.1 0 0 0 4.62-1.1Z" fill="#0AA547"/><path fill-rule="evenodd" d="M27.88 18.78c-.02.07 0 .14.07.2V19c-.09-.02-.15-.02-.2 0a.14.14 0 0 0-.07.13c0 .08.02.13.07.17l.07.03h.08l.07-.04a.14.14 0 0 0 .04-.07c0-.03 0-.1-.02-.18 0-.03 0-.05.03-.05.12 0 .15-.06.19-.16.02-.04.03-.04.03 0 .01.15.09.2.23.15a.16.16 0 0 0 .1-.11.16.16 0 0 0-.04-.15l-.01-.02c-.05-.04-.04-.07.02-.08.19-.02.28-.1.28-.26a.17.17 0 0 0-.03-.1.17.17 0 0 0-.08-.06.37.37 0 0 0-.42.1c-.02.02-.04.02-.07 0-.16-.13-.34-.21-.56-.12a2.02 2.02 0 0 1-.33.11v.03h-.02l-.03.02c-.37.12-.7.32-.99.6a3.4 3.4 0 0 0-.87 3.29c.1.43.29.82.55 1.16.01.02.04.03.06.02.32-.1.68-.11 1.07 0 .16.04.37.15.63.31.42.27.74.44 1.2.47.13 0 .27-.03.41-.13.44-.3.76-.65.96-1.04.45-.91.52-1.86.2-2.86a2.9 2.9 0 0 0-1.56-1.75.06.06 0 0 0-.06.04l-.01.02c-.02.05-.01.08.04.1 1.03.48 1.58 1.6 1.62 2.73v.01a.04.04 0 0 1-.03.03H29.4a.08.08 0 0 1-.08-.05 1.4 1.4 0 0 1 .22-1.42h-.8s-.02 0-.03.02c-.31.4-.38.86-.2 1.37v.07a.13.13 0 0 0 0 .09c.17.5.1.96-.2 1.37l-.04.02h-.73a.01.01 0 0 1-.02-.01.02.02 0 0 1 0-.02c.3-.4.36-.86.18-1.37-.01-.03 0-.05.03-.05h.7c.02 0 .03-.01.02-.03a1.35 1.35 0 0 1 .18-1.46h-.79c-.01 0-.03 0-.03.02-.33.4-.4.86-.22 1.36a.1.1 0 0 1 0 .07l-.02.04.02.08a1.35 1.35 0 0 1-.21 1.36h-.77v-.01c.33-.4.31-.86.2-1.39 0-.03.01-.04.04-.04h.65c.03 0 .04-.01.03-.04a1.36 1.36 0 0 1 .2-1.44l-.01-.01h-.77c-.01 0-.03 0-.04.02-.33.38-.4.84-.21 1.38.01.05 0 .07-.05.07h-1.12c-.03 0-.05-.02-.05-.05.04-1 .41-1.8 1.13-2.4.2-.16.5-.33.74-.4a.58.58 0 0 1 .48.08l.04-.01v-.02a.59.59 0 0 0-.4-.17c-.04 0-.04-.01-.01-.03.08-.06.18-.05.28.02.23.15.42.24.58.27.04 0 .04.02.02.04l-.1.1-.03-.01a.25.25 0 0 0-.07-.08c-.13-.07-.22-.04-.25.1Zm.73 2.6a1.47 1.47 0 0 1-.18 1.42h.72l.04-.01c.33-.42.39-.89.18-1.4a.03.03 0 0 0-.04-.03h-.72v.02Z" fill="#0AA547"/><path d="M28.01 16.71c.18 0 .32.15.52.31.08.07.17.08.28.04l.3-.12c.37-.15.4.4.66.53.04.03.11.03.2.02a1.4 1.4 0 0 1 .37 0l.01.01v.04l-.51 1.17h-.01a.02.02 0 0 1-.02.01A2.83 2.83 0 0 0 28 18a2.83 2.83 0 0 0-1.82.71.02.02 0 0 1-.01-.01l-.51-1.17v-.04a.04.04 0 0 1 .03-.02h.34c.1.02.17.02.22 0 .26-.14.28-.69.65-.54l.3.12c.1.04.2.03.28-.03.2-.16.34-.31.52-.31Z" fill="#0AA547"/><path d="m28.6 18.38-.25.03c-.04 0-.05 0-.03-.04.08-.14.32-.2.4-.03.02.02.02.04 0 .07-.03.07-.1.12-.2.14-.07.01-.14 0-.23-.05l-.53-.28v-.02c.01-.01.02-.02.03-.01.17.08.33.16.48.26.1.06.21.05.31 0 .02 0 .03 0 .03-.02a.1.1 0 0 0 0-.03c0-.01 0-.02-.02-.02Z" fill="#F0F3FA"/><path d="M27.54 18.6c-.59.15-1.05.48-1.38.99a3.15 3.15 0 0 0-.53 1.66l-.05.02a.02.02 0 0 1-.02-.01v-.01c.01-.17.03-.33.06-.5.15-.88.59-1.55 1.31-2 .16-.09.35-.16.6-.2h.01v.05ZM27.65 19c.1 0 .18-.08.18-.18 0-.1-.08-.18-.18-.18-.1 0-.17.08-.17.18 0 .1.08.18.17.18ZM30.42 21.29h-.04a.02.02 0 0 1 0-.02c-.02-.5-.15-.97-.39-1.43-.28-.54-.7-.92-1.25-1.16-.02 0-.02-.01 0-.02l.03-.02h.03c.42.17.77.44 1.03.8.4.53.6 1.14.62 1.82 0 .02-.01.02-.03.03ZM28.22 19.33c.1 0 .18-.08.18-.18 0-.1-.08-.17-.18-.17-.1 0-.17.08-.17.17 0 .1.08.18.17.18ZM28.03 19.66c.1 0 .17-.08.17-.18 0-.1-.07-.17-.17-.17s-.17.07-.17.17.08.18.17.18ZM24.73 20.06c-.04.02-.06.05-.06.1 0 .17.06.31.16.4a.87.87 0 0 1 .22 1.01.03.03 0 0 1-.04 0l-.01-.01c-.08-.17-.2-.36-.37-.55-.24-.3-.33-.48-.3-.86.03-.16.1-.24.26-.28.5-.14.52.38.44.74 0 .03-.02.04-.05.04-.04 0-.06-.03-.06-.07 0-.2-.02-.34-.04-.43-.01-.07-.05-.1-.1-.1h-.05ZM31.28 20.07a.16.16 0 0 0-.03-.02c-.07 0-.1.04-.11.1-.02.1-.03.24-.04.44 0 .04-.02.06-.06.07-.03 0-.05-.01-.05-.04-.08-.36-.06-.88.44-.75.15.05.23.13.25.3.04.37-.05.54-.3.84a2.92 2.92 0 0 0-.37.57.03.03 0 0 1-.05-.01.88.88 0 0 1 .23-1c.1-.09.15-.23.16-.41a.09.09 0 0 0-.07-.1ZM24.6 21.7c.12.1.33.2.46.34.16.2.25.41.26.65 0 .14-.02.15-.1.03a.87.87 0 0 0-.48-.4c-.44-.15-.5-.71-.45-1.13l.02-.02.03-.02c.02 0 .04 0 .04.04.02.19.1.36.23.5ZM31.41 21.7a.86.86 0 0 0 .24-.5c0-.03.01-.04.04-.04.01 0 .02 0 .03.02l.01.02c.05.42-.02.99-.46 1.14a.87.87 0 0 0-.49.4c-.07.11-.1.1-.1-.04.02-.24.11-.46.28-.65.12-.14.34-.23.45-.35ZM25.88 23.8c-.04-.05-.11-.09-.23-.11a3 3 0 0 0-.25-.04c-.49-.05-.76-.34-.82-.86a.03.03 0 0 1 .01-.03c.02-.02.05-.02.07 0l.28.31c.08.08.17.13.27.15.34.07.6.26.8.57.06.09.04.12-.07.09l-.06-.08ZM30.13 23.82a.35.35 0 0 1-.06.07c-.11.04-.13 0-.07-.09.2-.3.46-.5.8-.57.1-.02.2-.07.27-.14l.29-.31c.02-.03.04-.03.07-.01a.03.03 0 0 1 .01.03c-.06.53-.34.82-.82.87l-.26.03c-.12.03-.2.07-.23.12ZM25.2 24.06c.2.13.54.07.82.05a.8.8 0 0 1 .76.31c.03.05.02.07-.03.06a1.92 1.92 0 0 0-.56 0c-.3.04-.48.05-.55.04a.86.86 0 0 1-.59-.46.04.04 0 0 1 0-.05.04.04 0 0 1 .06 0 .9.9 0 0 1 .08.05ZM30.82 24.07a.98.98 0 0 1 .08-.05h.03a.04.04 0 0 1 .03.06.86.86 0 0 1-.6.45c-.06.02-.24 0-.54-.04a1.95 1.95 0 0 0-.56 0c-.06 0-.07-.01-.03-.06a.81.81 0 0 1 .76-.31c.28.03.63.08.83-.05Z" fill="#0AA547"/><path fill-rule="evenodd" d="m26.98 25.11.36-.05c.02 0 .03 0 .04.03l.01.03.04.01c.14.03.28.02.42-.03.02 0 .04-.02.06-.04a.13.13 0 0 0 .02-.07.18.18 0 0 0-.06-.17c-.16-.13-.27-.22-.48-.16l-.13.03c-.36.1-.68.17-1 .06-.1-.04-.12 0-.06.09.13.22.59.3.78.27Zm.51-.1c-.03.02-.03.03 0 .04.1.02.17.02.22 0h.01l.02-.03c0-.03-.02-.04-.04-.04a.52.52 0 0 0-.2.04ZM28.62 25.12l.01-.03c0-.02.02-.03.04-.03l.36.06c.19.03.64-.05.78-.27.05-.1.03-.12-.07-.09-.32.11-.63.03-1-.07l-.12-.03c-.2-.05-.32.04-.47.16a.18.18 0 0 0-.07.17c0 .03.01.05.03.07l.05.04c.14.04.28.06.42.03h.04Zm-.28-.06.16-.01c.03 0 .03-.02.01-.03-.06-.04-.11-.05-.17-.04-.1.03-.1.06 0 .08Z" fill="#0AA547"/><path fill-rule="evenodd" d="M16.36 22.1c-.25.18-.41.27-.5.28a.52.52 0 0 1-.19 0 2.7 2.7 0 0 0-2.15.1c-.85.42-1.2 1.26-1.15 2.2 0 .15.05.3.12.47.29.62.88 1.02 1.48 1.24.6.22 1.07.4 1.41.55.64.26 1.07.7 1.32 1.32.3.8.15 1.49-.46 2.08-.3.3-.66.47-1.07.53a2.2 2.2 0 0 1-2.06-.7 1.33 1.33 0 0 1-.4-1.18c.12-.67.8-.83 1.36-.97l.07-.01c.16-.04.27-.1.33-.19.12-.17.18-.48.04-.67-.3-.42-.92-.5-1.4-.44a2.33 2.33 0 0 0-1.92 2.84 3.4 3.4 0 0 0 2.38 2.64c.37.13.72.2 1.05.2.87 0 1.64-.23 2.33-.72a3.32 3.32 0 0 0 1.42-3.24c-.1-.9-.47-1.59-1.1-2.09a5.6 5.6 0 0 0-1.37-.72c-.4-.16-.8-.33-1.16-.57-.07-.05-.2-.15-.36-.3a.57.57 0 0 1-.2-.4c-.03-.44.16-.72.58-.83.43-.12.81-.02 1.16.3.09.08.18.19.27.3.3.36.65.77 1.14.73.26-.02.41-.16.45-.4.03-.2.03-.38-.02-.56a7.95 7.95 0 0 0-.47-1.32c-.1-.25-.2-.48-.43-.54a.55.55 0 0 0-.5.08Zm7.19 3.52c-.41 0-.75-.36-.75-.8 0-.45.33-.82.75-.82.41 0 .75.36.75.81 0 .45-.34.81-.75.81Zm12.04-.81c0 .45.33.81.75.81.41 0 .74-.36.74-.81 0-.45-.33-.81-.74-.81-.42 0-.75.36-.75.81Zm-8.77 4.37h-.28c-.14 0-.17-.06-.1-.18.36-.52.82-1.14 1.37-1.86.24-.3.37-.52.1-.84-.04-.07-.13-.1-.24-.1a24.93 24.93 0 0 0-1.63 0l-.15-.16a.12.12 0 0 0-.08-.04c-.17-.01-.3.06-.4.22-.13.21-.26.5-.39.87-.04.13-.03.38.13.45.35.16.54-.05.73-.27l.08-.08c.1-.11.23-.15.37-.12h.03c.16.02.19.09.1.22a41.35 41.35 0 0 0-1.44 2c-.15.26-.07.64.26.7.14.02.28.02.43.01h1.19c.07 0 .12-.01.18.03.19.14.46.28.63.02.23-.33.4-.7.51-1.1.06-.21 0-.37-.2-.46-.2-.09-.39.06-.52.2l-.33.34c-.1.1-.21.15-.35.15Zm16.41-1.7c.14 0 .18-.1.17-.23 0-.15-.02-.29-.15-.35a.54.54 0 0 0-.3-.06.74.74 0 0 0-.32.18c-.3.22-.59.42-.97.28-.13-.05-.21-.12-.24-.23-.08-.35.12-.57.4-.74a2.32 2.32 0 0 1 1.86-.24c.28.08.64.32.73.63.03.07.04.21.03.43l-.03 1.78c0 .22.13.3.28.4l.03.02c.27.18.17.62-.15.65h-1.01c-.07 0-.1-.07-.1-.13v-1.6l-.02-.03c-.27-.32-.7-.03-.96.2-.12.1-.16.23-.12.37.01.05.04.08.07.11.04.02.08.04.13.03l.16-.03c.2-.05.44-.1.56.13a.4.4 0 0 1 .05.23c-.06.65-.7.78-1.25.7-.39-.07-.68-.28-.87-.63a1.25 1.25 0 0 1 .3-1.47c.4-.33.92-.36 1.42-.38.1 0 .2 0 .3-.02Zm-22.26-.23c0 .12-.04.22-.17.23l-.3.02c-.5.02-1.03.05-1.43.37a1.25 1.25 0 0 0-.3 1.48c.2.35.48.56.88.62.54.1 1.18-.04 1.24-.69a.4.4 0 0 0-.04-.23c-.13-.23-.36-.18-.57-.13l-.16.03a.18.18 0 0 1-.2-.14c-.04-.14 0-.26.13-.37.25-.23.67-.52.94-.2l.01.03v1.62c0 .07.05.1.12.1h1.01a.6.6 0 0 0 .2-.05.1.1 0 0 0 .05-.05c.06-.17.06-.41-.1-.52l-.03-.01c-.15-.1-.28-.19-.27-.4 0-.42 0-1.11.02-1.8.01-.22 0-.37-.02-.44-.1-.3-.45-.55-.73-.62-.68-.19-1.3-.1-1.86.23-.29.17-.48.39-.4.74.02.1.1.18.24.23.38.14.67-.06.96-.28.14-.11.24-.17.32-.18.1 0 .2 0 .3.06.14.06.15.2.16.35Zm12.49-.84c0 .08.03.11.1.09.14-.05.22-.15.3-.24.05-.06.1-.11.16-.15.2-.14.4-.15.62-.03.26.14.34.56.37.83.07.53-.15.8-.65.78a.62.62 0 0 1-.19-.05c-.13-.05-.17-.24-.2-.4l-.01-.04a.29.29 0 0 0-.04-.1.15.15 0 0 0-.06-.05c-.04-.02-.1 0-.17.03-.13.06-.13.15-.14.27v.05c-.02.55 0 1.1.02 1.65 0 .05.03.09.09.1l.06.03c.16.05.37.12.4.27.03.21-.02.38-.14.5-.03.03-.05.05-.07.05h-1.66c-.13-.01-.18-.1-.21-.22-.09-.33.1-.54.4-.6.02 0 .04-.02.05-.04.05-.15.09-.29.1-.4 0-.31 0-.75-.05-1.3a.14.14 0 0 0-.04-.09.13.13 0 0 0-.08-.04l-.34-.02a.08.08 0 0 1-.07-.05.34.34 0 0 1 .03-.36c.24-.38.56-.66.95-.84.17-.08.33-.04.45.1a.1.1 0 0 1 .03.08l-.01.2Zm5.93 1.98a.07.07 0 0 1-.03-.02 1.45 1.45 0 0 1-.17-.32l-.33-.75c-.13-.25.02-.38.17-.53.17-.15.34-.3.19-.6-.07-.14-.26-.16-.36-.17h-1.2a.7.7 0 0 0-.29.05c-.16.08-.28.3-.21.48.06.15.2.25.37.36l.13.09c.06.04.12.12.15.18.38.8.74 1.64 1.05 2.5.03.09.05.16.04.2 0 .2-.2.44-.35.52a.9.9 0 0 1-.4.06c-10.76-.01-17.18 0-18.96.02-.2 0-.33.07-.4.2-.36.63-.8 1.14-1.33 1.52-.82.62-1.71.92-2.66.92a4.23 4.23 0 0 1-3.82-2.36.77.77 0 0 0-.27-.31c-.3-.15-.63.05-.7.37-.03.1 0 .24.08.4.32.65.72 1.17 1.21 1.56.74.6 1.58.98 2.53 1.16.52.1 1.04.1 1.56.03a5.47 5.47 0 0 0 4.08-2.45 4006.43 4006.43 0 0 0 19.28 0c.35 0 .6-.32.78-.65.22-.4.43-.87.64-1.41a111.12 111.12 0 0 0 .86-2.45v-.01c.03-.06.04-.1.09-.14l.07-.05c.1-.07.24-.16.27-.25.12-.29.01-.54-.3-.54H39.83c-.3 0-.36.26-.29.5.02.09.06.14.12.17.12.06.23.13.32.22a.1.1 0 0 1 .03.07c-.01.16-.03.28-.07.37a10.25 10.25 0 0 1-.48 1.05.07.07 0 0 1-.06 0Zm-16.46-1.12c-.06-.03-.13-.02-.19-.02-.05 0-.1.01-.14 0-.1-.04-.15-.11-.16-.23 0-.13.02-.23.08-.28.35-.33.62-.55.82-.67.1-.05.21-.08.37-.07.24.02.29.16.29.43v2.46c0 .23.15.28.3.34.14.04.27.1.31.25.03.15.02.34-.1.43-.04.04-.11.06-.21.07-.7.03-1.24.03-1.6-.02-.23-.03-.22-.36-.17-.54.03-.1.17-.16.3-.22l.08-.04a.15.15 0 0 0 .07-.06.17.17 0 0 0 .02-.08v-1.65c0-.02 0-.04-.02-.06a.11.11 0 0 0-.05-.04Zm12.76-.02c.1 0 .18 0 .24.02.03 0 .04.02.05.04.02.02.02.04.02.06v1.65c0 .03 0 .05-.02.08a.15.15 0 0 1-.06.06l-.15.06c-.14.05-.3.11-.32.2-.05.18-.07.51.16.54.37.05.9.05 1.6.02.1-.01.17-.03.22-.07.11-.1.13-.28.1-.43-.04-.16-.16-.2-.27-.25-.14-.06-.27-.1-.26-.34V26.42c0-.26-.13-.4-.38-.42a.64.64 0 0 0-.36.07c-.2.12-.48.34-.83.67-.06.05-.08.15-.08.28.01.12.06.2.16.23h.18Zm-6.16 1.04a.15.15 0 0 1 .1-.05h1.6c.29 0 .47-.07.5-.38.13-.97-.25-1.57-1.15-1.8a1.8 1.8 0 0 0-1.27.14c-.63.3-.91.94-.95 1.62-.02.34 0 .62.04.84.12.55.6 1.13 1.21 1.27.46.1.89.1 1.29-.01.35-.1.71-.4.85-.76.06-.18.06-.32-.02-.42-.18-.24-.4-.32-.66-.16l-.14.1c-.14.1-.3.2-.42.23-.4.08-1.04.09-1.02-.52 0-.04.01-.07.04-.1Zm.68-.63h.05l.2-.02c.2-.04.26-.19.25-.37-.02-.33-.47-.35-.7-.33-.27.02-.46.18-.56.46a.18.18 0 0 0 .07.2c.15.11.49.08.69.06Zm9.68 3.06c-.12.32-.22.6-.56.74-.02 0-.02.02 0 .02.02.02.05.02.08.02 1.03-.01 2.73-.02 5.1-.01.16 0 .26-.02.32-.06.23-.18.21-.66.02-.84-.07-.06-.2-.09-.4-.09h-4.43c-.03 0-.05.01-.06.04l-.07.18Z" fill="#E5011A"/><path fill-rule="evenodd" d="M39.8 32.12a3.37 3.37 0 0 1-.1-.09.02.02 0 0 1 .02-.02c.2-.04.32.03.38.22.01.02 0 .04-.03.04-.1.02-.15-.03-.21-.09l-.06-.06ZM22.5 33.2a.1.1 0 0 0-.05-.14 4.52 4.52 0 0 0-.14-.03c-.2-.05-.44-.1-.48-.23-.1-.3.08-.49.37-.5.26 0 .48.03.54.32 0 .04 0 .06-.04.06h-.15a.07.07 0 0 1-.06-.04c-.06-.1-.16-.14-.3-.12-.06 0-.1.03-.12.07a.1.1 0 0 0 .06.14l.37.09c.12.02.26.1.28.24.04.38-.3.47-.62.43-.22-.03-.34-.14-.38-.33 0-.04.01-.06.05-.06h.14c.04 0 .07.02.09.07.03.09.13.12.28.11.07 0 .13-.03.16-.08Zm12.8.03c-.27.14-.44-.08-.44-.33 0-.26.17-.48.44-.34.02.02.04.03.05.06.05.1.14.13.29.1.02-.01.03-.03.02-.05-.07-.27-.26-.4-.57-.37-.36.02-.5.27-.5.6 0 .32.14.57.5.6.3.02.5-.1.57-.38.01-.02 0-.04-.02-.04-.15-.04-.24 0-.29.1a.12.12 0 0 1-.05.05Zm-13.8-.91h-.2a.03.03 0 0 0-.03.03v1.1c0 .01.01.03.03.03h.2c.02 0 .03-.02.03-.03v-1.1a.03.03 0 0 0-.03-.03Zm2.4 0a77.54 77.54 0 0 1-.92 0c-.03 0-.04.02-.04.04v.14c0 .03.02.04.04.04h.28c.03 0 .04.01.04.03l.01.86c0 .03.01.04.04.05a.95.95 0 0 0 .19 0c.02-.01.04-.02.04-.05v-.86c0-.02 0-.03.03-.03h.28c.03 0 .04-.02.04-.04v-.14c0-.03 0-.04-.03-.04Zm4.55.43v.7a.03.03 0 0 1-.03.03h-.17c-.03 0-.04-.02-.04-.04v-1.08c0-.02.01-.04.04-.04h.2a.07.07 0 0 1 .06.04l.4.67c.02.05.04.04.04-.02v-.65c0-.03 0-.04.04-.04h.15c.03 0 .04.02.04.04v1.08c0 .03 0 .04-.04.04h-.17l-.04-.01a.08.08 0 0 1-.03-.03l-.4-.7c-.04-.05-.05-.04-.05.01Zm1.35.72H30c.03 0 .04-.01.04-.04v-.86c0-.02.02-.03.04-.03h.28c.03 0 .04-.02.04-.04v-.14c0-.03 0-.04-.03-.04a56.5 56.5 0 0 1-.93 0c-.02 0-.03.01-.03.04v.14c0 .02.01.04.04.04h.28c.03 0 .04 0 .04.03v.86c0 .03.01.04.04.04ZM31 33c-.02 0-.03 0-.03.03v.19c0 .02.01.03.04.03h.57c.03 0 .04.02.04.04v.16c0 .02 0 .04-.04.04h-.83c-.03 0-.04-.01-.04-.04v-1.08c0-.03.01-.04.04-.04h.82c.02 0 .03.02.03.04v.14c0 .02-.01.04-.04.04h-.55c-.03 0-.04 0-.04.03v.14c0 .03 0 .04.04.04h.5c.02 0 .03.01.03.04v.16c0 .03-.01.04-.04.04H31Zm1.97.03c0-.02.02-.03.04-.03h.5c.02 0 .04-.01.04-.04v-.16c0-.02-.02-.04-.04-.04H33c-.03 0-.04-.01-.04-.04v-.14c0-.02.02-.03.04-.03h.56c.02 0 .04-.02.04-.04v-.14c0-.02-.02-.03-.04-.03h-.82c-.02 0-.04 0-.04.03v1.08c0 .02.02.04.04.04h.84c.02 0 .04-.01.04-.04v-.16c0-.02-.02-.04-.04-.04H33c-.03 0-.04 0-.04-.03v-.19Zm4.56-.25H38l.02.01V32.98L38 33h-.5V33.46l-.01.02h-.25V32.33H38.06a.03.03 0 0 1 .03.02v.16l-.01.02h-.55l-.03.02v.21l.03.01Zm1.08-.2c0-.02 0-.03.04-.03h.5c.03 0 .05-.01.05-.04v-.14l-.01-.02-.03-.02h-.77c-.03 0-.04.01-.04.04v1.1c0 .01 0 .02.02.02h.22l.02-.02v-.43c0-.03 0-.04.03-.04h.45c.03 0 .05-.02.05-.05v-.13c0-.03-.01-.04-.04-.04h-.46c-.02 0-.04 0-.04-.03v-.17Zm1.13.67h.6a.03.03 0 0 1 .03.03v.18l-.01.02h-.87a.03.03 0 0 1-.03-.02v-1.1a.03.03 0 0 1 .03-.03h.84a.03.03 0 0 1 .02.02v.17l-.01.02h-.59a.03.03 0 0 0-.03.04V32.74l.03.01h.5l.03.01V32.96a.03.03 0 0 1-.02.03h-.52a.03.03 0 0 0-.03.03v.2l.01.02h.02Zm-14.47-.26a.52.52 0 0 1-.33.48.53.53 0 0 1-.2.04h-.1a.53.53 0 0 1-.38-.16.52.52 0 0 1-.15-.37v-.15a.52.52 0 0 1 .32-.48.53.53 0 0 1 .2-.04h.11c.14 0 .28.06.37.16.1.1.16.23.16.37v.15Zm-.9-.08c0 .21.15.39.32.39.18 0 .32-.18.32-.4 0-.21-.15-.38-.32-.38-.18 0-.32.18-.32.39Zm-4.11.17c0-.03.01-.04.03-.04h.31c.04 0 .06.02.07.06l.04.34c0 .04.02.06.07.06l.2-.03c.02 0 .03 0 .02-.03a.66.66 0 0 1-.05-.33.2.2 0 0 0-.02-.08.15.15 0 0 0-.04-.06c-.03-.02-.03-.04 0-.06.13-.14.15-.37-.02-.5a.28.28 0 0 0-.14-.07 5.91 5.91 0 0 0-.7 0c-.02 0-.03.01-.03.03v1.1c0 .01 0 .02.02.02h.22l.02-.02v-.4Zm.01-.52v.02l-.01.2a.04.04 0 0 0 .01.03.04.04 0 0 0 .03.01h.25a.2.2 0 0 0 .12-.03.1.1 0 0 0 .05-.09v-.03a.1.1 0 0 0-.02-.04.13.13 0 0 0-.03-.04.18.18 0 0 0-.06-.03.22.22 0 0 0-.06-.01h-.28Zm5.54.52v.39c0 .01 0 .02-.02.02h-.22c-.01 0-.02 0-.02-.02v-1.1c0-.02.02-.03.04-.03h.69c.05.01.1.03.14.07.17.13.15.36.02.5-.02.02-.02.04 0 .06l.05.06a.2.2 0 0 1 .02.08c-.01.14 0 .25.04.33.01.02 0 .03-.02.04l-.2.02c-.04 0-.07-.02-.07-.06l-.04-.34c0-.04-.03-.06-.07-.06h-.3c-.03 0-.04.01-.04.04Zm0-.5a.04.04 0 0 1 .02-.02.04.04 0 0 1 .02-.02h.25l.07.02c.02 0 .03.01.05.03.02 0 .03.02.04.04v.08c0 .03-.01.06-.04.08a.2.2 0 0 1-.12.03h-.25a.04.04 0 0 1-.03-.01.04.04 0 0 1 0-.03v-.2Zm1.43.68a2.19 2.19 0 0 1 .33 0c.03 0 .06.01.06.03l.04.14c0 .02.01.03.03.04.01.02.03.02.05.02h.2a.04.04 0 0 0 .02-.05l-.4-1.05a.07.07 0 0 0-.05-.05.8.8 0 0 0-.23 0 .07.07 0 0 0-.06.05l-.4 1.05v.02l.01.01.01.01h.02l.19.01c.02 0 .03 0 .05-.02a.08.08 0 0 0 .03-.04l.04-.14c0-.02.02-.03.06-.03Zm.28-.27c-.06-.22-.1-.32-.11-.32-.02 0-.06.1-.13.31 0 .03 0 .04.03.05a.52.52 0 0 0 .18 0c.02 0 .03-.02.03-.04Zm8.9-.66a.8.8 0 0 1 .11.01c.03 0 .05.02.06.05l.4 1.05a.04.04 0 0 1-.04.05h-.19c-.02 0-.03 0-.05-.02a.08.08 0 0 1-.03-.04l-.04-.14c0-.02-.02-.03-.06-.03a2.38 2.38 0 0 0-.33 0c-.03 0-.05.01-.06.03l-.04.14c0 .02-.01.03-.03.04a.08.08 0 0 1-.05.02h-.2l-.02-.02a.04.04 0 0 1 0-.03l.4-1.05a.07.07 0 0 1 .06-.05h.11Zm0 .7h-.09c-.03 0-.04-.02-.03-.04.06-.21.1-.32.11-.32.02 0 .06.1.12.31 0 .03 0 .04-.03.05h-.08Z" fill="#E5011A"/></svg>