<!-- by TradeStack --><svg viewBox="0 0 56 56" xmlns="http://www.w3.org/2000/svg"><path fill="#F0F3FA" d="M0 0h56v56H0z"/><path d="M13 19h14.62c1 0 1.9-.65 2.32-1.54L32.2 13c-.2.28-1.1 1-2.3 1H17c-1 0-1.9.41-2.31 1.3L13 19Zm6.43 21.06L29.13 20h8.82c5.77 0 6.37 4.09 5.94 6.13-.9 5.35-6.15 6.79-8.67 6.87h-6.69a385.3 385.3 0 0 0-3.3 6.85c-.67 1.46-1.7 2.04-2.12 2.15h-5.56a4.6 4.6 0 0 0 1.88-1.94ZM32.5 24l-2.28 5h4.25c2.06 0 4.14-1.03 4.14-3.03 0-1.6-1.51-1.98-2.27-1.97H32.5Z" fill="#F9B000"/></svg>