<?xml version='1.0' encoding='utf-8'?>
<!-- by TradeStack -->
<svg width="56" height="56" viewBox="0 0 56 56" xmlns="http://www.w3.org/2000/svg"><path fill="url(#apoogabz4)" d="M0 0h56v56H0z" /><path d="M8.81 19.18c.61-.8 1.53-1.18 2.7-1.18 1.7 0 3.46.7 4.96 1.53 1.51.83 2.8 1.83 3.53 2.5l-.65.74A18.3 18.3 0 0 0 16 20.4a9.8 9.8 0 0 0-4.5-1.41c-.96 0-1.55.3-1.92.8-.4.52-.62 1.37-.62 2.61 0 1.14.59 2.62 1.74 3.79a6.11 6.11 0 0 0 4.93 1.8l.07.99a7.07 7.07 0 0 1-5.69-2.09A6.73 6.73 0 0 1 8 22.4c0-1.33.23-2.43.81-3.22Z" fill="#88C5F8" /><path d="M13.47 22.46c1.82.48 3.52 1.26 4.53 1.83l-.6.71a19.48 19.48 0 0 0-4.25-1.72c-1.73-.46-3.44-.6-4.68-.1L8 22.42c1.63-.66 3.68-.43 5.47.05Z" fill="#88C5F8" /><path d="M19.5 21.98A13.93 13.93 0 0 1 28 19v.98c-2.53 0-5.57.86-7.97 2.79-2.38 1.9-4.13 4.87-4.13 9.14a5.6 5.6 0 0 0 1.55 4.12 7.96 7.96 0 0 0 3.7 1.97c1.45.38 2.7 1.12 3.77 1.75l.18.1c1.15.68 2.05 1.17 2.9 1.17V42c-1.12 0-2.23-.64-3.33-1.29l-.16-.09c-1.09-.64-2.24-1.32-3.58-1.67-1.51-.4-3-1.08-4.1-2.2A6.62 6.62 0 0 1 15 31.9c0-4.6 1.9-7.85 4.5-9.93ZM47.19 19.18c-.61-.8-1.53-1.18-2.7-1.18-1.7 0-3.46.7-4.96 1.53-1.51.83-2.8 1.83-3.53 2.5l.65.74A18.3 18.3 0 0 1 40 20.4a9.8 9.8 0 0 1 4.5-1.41c.96 0 1.55.3 1.92.8.4.52.62 1.37.62 2.61 0 1.14-.59 2.62-1.74 3.79a6.11 6.11 0 0 1-4.93 1.8l-.07.99a7.07 7.07 0 0 0 5.69-2.09A6.73 6.73 0 0 0 48 22.4c0-1.33-.23-2.43-.81-3.22Z" fill="#88C5F8" /><path d="M42.53 22.46A20.64 20.64 0 0 0 38 24.29l.6.71c.94-.53 2.55-1.27 4.25-1.72 1.73-.46 3.44-.6 4.68-.1l.47-.77c-1.63-.66-3.68-.43-5.47.05Z" fill="#88C5F8" /><path d="M36.5 21.98A13.93 13.93 0 0 0 28 19v.98c2.53 0 5.57.86 7.97 2.79 2.38 1.9 4.13 4.87 4.13 9.14a5.6 5.6 0 0 1-1.55 4.12 7.96 7.96 0 0 1-3.7 1.97c-1.45.38-2.7 1.12-3.77 1.75l-.18.1c-1.15.68-2.05 1.17-2.9 1.17V42c1.12 0 2.23-.64 3.33-1.29l.16-.09c1.09-.64 2.24-1.32 3.58-1.67 1.51-.4 3-1.08 4.1-2.2A6.62 6.62 0 0 0 41 31.9c0-4.6-1.9-7.85-4.5-9.93Z" fill="#88C5F8" /><path d="M27.27 40.07c-.65.47-1.43.78-1.95.93l-.32-.9a5.47 5.47 0 0 0 1.6-.77c.54-.4.87-.84.87-1.33h1.07c0 .39.3.82.86 1.24.53.4 1.17.7 1.6.87l-.4.88a7.78 7.78 0 0 1-1.9-1.03 4.38 4.38 0 0 1-.66-.62c-.22.28-.49.52-.77.73Z" fill="#88C5F8" /><circle cx="22.5" cy="32.5" r="1.5" fill="#88C5F8" /><path fill-rule="evenodd" d="M21 38a6 6 0 1 0 0-12 6 6 0 0 0 0 12Zm0-2a4 4 0 1 0 0-8 4 4 0 0 0 0 8ZM35 38a6 6 0 1 0 0-12 6 6 0 0 0 0 12Zm0-2a4 4 0 1 0 0-8 4 4 0 0 0 0 8Z" fill="#88C5F8" /><circle cx="35.5" cy="32.5" r="1.5" fill="#88C5F8" /><path fill-rule="evenodd" d="M34.5 38c3.59 0 6.5-3.13 6.5-7s-2.91-7-6.5-7-6.5 3.13-6.5 7 2.91 7 6.5 7Zm.01-.67c3.25 0 5.88-2.84 5.88-6.33 0-3.5-2.63-6.33-5.88-6.33-3.24 0-5.87 2.84-5.87 6.33 0 3.5 2.63 6.33 5.87 6.33ZM21.5 38c3.59 0 6.5-3.13 6.5-7s-2.91-7-6.5-7-6.5 3.13-6.5 7 2.91 7 6.5 7Zm.01-.67c3.25 0 5.88-2.84 5.88-6.33 0-3.5-2.63-6.33-5.88-6.33-3.24 0-5.87 2.84-5.87 6.33 0 3.5 2.63 6.33 5.87 6.33Z" fill="#88C5F8" /><defs><linearGradient id="apoogabz4" x1="28" y1="0" x2="28" y2="56" gradientUnits="userSpaceOnUse"><stop stop-color="#00558B" /><stop offset="1" stop-color="#3D9DCD" /></linearGradient></defs></svg>