<?xml version='1.0' encoding='utf-8'?>
<!-- by TradeStack -->
<svg width="56" height="56" viewBox="0 0 56 56" xmlns="http://www.w3.org/2000/svg"><path fill="#002550" d="M0 0h56v56H0z" /><path d="M12 36h5V23h4v-3H8v3h4v13Zm5.59 0h4.22L23 33h6l1.04 3h4.55l-6-16H23.5L17.6 36ZM28 30h-4l2-6.7h.05L28 30Zm14-3h6v8.3c-2.64.66-4.6.7-6.04.7-4.15 0-8.96-2.08-8.96-7.93 0-5.83 4.14-8.07 9.86-8.07 1.03 0 3.2.11 4.72.69l-.34 3.36a8.14 8.14 0 0 0-3.8-1.05C40.06 23 37 24.45 37 28.07 37 31.1 39.46 33 42.5 33c.56 0 1.12-.15 1.5-.32V30h-2v-3Z" fill="#fff" /></svg>