<!-- by TradeStack --><svg viewBox="0 0 56 56" xmlns="http://www.w3.org/2000/svg"><path fill="#F0F3FA" d="M0 0h56v56H0z"/><path d="M24.86 17.48c1.78-1.12 4.9-3 9.39-5.65.23-.14.67-.33 1.34-.57 3.37-1.2 4.37 2 4.38 4.59.02 1.91.02 5.56 0 10.95 0 .15-.05.17-.16.06a18.23 18.23 0 0 0-6.57-4.48 36.65 36.65 0 0 0-7.17-2.2 85.5 85.5 0 0 0-4.34-.65c-.26-.03-.28-.11-.05-.24 1.38-.8 2.3-1.25 3.18-1.8ZM34.77 31.46c.52 3.8-2.38 7.7-5.31 9.8a.31.31 0 0 1-.28.06c-.18-.05-.4-.14-.63-.28-4.28-2.46-9.66-5.58-16.15-9.33a6.42 6.42 0 0 1-1.76-1.55c-1.69-2.1.29-4.4 2.11-5.5l6.85-4.1a.36.36 0 0 1 .28-.03c5.8 1.4 13.98 4.39 14.89 10.93ZM38.37 44.6c-1.26.76-2.88.3-4.12-.33-.59-.3-1.78-.95-3.59-1.96-.2-.12-.2-.2.04-.26a18.52 18.52 0 0 0 9-5.39c.15-.17.23-.14.24.1.05 2.06.07 3.41.06 4.07-.03 1.39-.38 3.03-1.63 3.78Z" fill="#0E2D6D"/></svg>