<!-- by TradeStack --><svg viewBox="0 0 56 56" xmlns="http://www.w3.org/2000/svg"><path fill="#F0F3FA" d="M0 0h56v56H0z"/><path d="M47 29.17v2.2h-.15c-.33-.96-.85-2.22-2.56-2.22-2.22 0-2.29 1.62-2.29 3.88 0 2.97.93 3.82 2.29 3.82 1.36 0 2.25-1.14 2.53-2.3H47v2.29h-.18c-.08-.17-.16-.23-.38-.23-.35 0-1.19.39-2.16.39-2.24 0-4.28-1.76-4.28-3.97 0-2.44 2.32-4.03 4.28-4.03.95 0 1.77.4 2.18.4.2 0 .31-.03.36-.23H47ZM33 29.16V29h4.02v.16H36v7.68h1.44c.96 0 2.04-.59 2.42-2.34H40V37h-7v-.16h1v-7.68h-1ZM28 33v3.84h.89V37H25v-.16h1V29.2h-1V29h3.5c1.42 0 3.5.28 3.5 2 0 1.16-1.18 2-3.71 2H28Zm0-3.81v3.65h.17c1.35 0 1.83-.46 1.83-1.84 0-1.3-.36-1.84-1.74-1.84-.16 0-.13.02-.26.03ZM16 29.16V29h4v.16h-1v7.68h1V37h-4v-.16h1v-7.68h-1ZM8 37v-.15h.84L11.78 29h.26l3.11 7.85H16V37h-3.31v-.15h.91L12.46 34h-2.3l-1.09 2.85h.8V37H8Zm4.37-3.24-1.1-2.7-1 2.7h2.1ZM43 25.85v-1.59h.16c.36.82.71 1.59 1.8 1.59.27 0 1.04 0 1.04-.85 0-.27-.1-.72-.92-1l-.95-.33c-.43-.15-1.13-.33-1.13-1.1 0-.86.85-1.57 1.98-1.57.59 0 1.05.27 1.24.27.16 0 .2-.07.22-.14h.16v1.34h-.15c-.31-.72-.58-1.32-1.55-1.32-.51 0-.9.25-.9.76 0 .2.06.56.85.82l.87.28c.84.28 1.28.73 1.28 1.41 0 .97-.97 1.58-2 1.58-.57 0-1.35-.3-1.63-.3-.13 0-.16.04-.2.15H43Z"/><path d="M36 18.16V18h2v5.3h.06l2.88-2.14H40V21h2v.16h-.8l-2.23 1.75 3.17 2.93H43V26h-3.34v-.16h.9l-2.5-2.4H38v2.4h1.15V26H36v-.16h1v-7.68h-1ZM34.9 25.57l.1.1c-.2.32-.63.33-.97.33-.72 0-.94-.3-1.03-.75-.23.59-.71.75-1.47.75-.7 0-1.53-.25-1.53-1.1 0-.85.67-1.29 1.38-1.5 1.13-.45 1.35-.45 1.62-.55v-.92c0-.38-.31-.78-.84-.78-.33 0-.61.13-.61.54l.06.6c0 .45-.46.45-.65.45-.3 0-.63-.07-.63-.56 0-.76.9-1.18 1.84-1.18 1.09 0 1.86.3 1.86 1.54v2.72c0 .27.15.52.46.52.19 0 .3-.08.41-.2Zm-1.9-1v-1.3c-.7.13-2 .67-2 1.44 0 .34 0 1.04 1.08 1.04.36 0 .92-.32.92-1.17ZM29 23h-3v.6c0 1.03.33 2.25 1.44 2.25.98 0 1.4-1.02 1.43-1.27l.13.05A1.73 1.73 0 0 1 27.3 26c-1.3 0-2.3-.95-2.3-2.52 0-1.25.96-2.48 2.17-2.48.85 0 1.83.51 1.83 2Zm-3-.15h2v-.64c0-.3-.26-1.06-.86-1.06-.84 0-1.11.95-1.14 1.7ZM20.5 21.16V21H22v1.06c.23-.58.44-1.06 1.08-1.06.54 0 .92.37.92.97 0 .46-.19.73-.6.73-.29 0-.59-.11-.59-.51 0-.1.07-.53.07-.57 0-.02 0-.28-.23-.28-.27 0-.65.6-.65 1.58v2.92h.6V26h-2.1v-.16h.5v-4.68h-.5ZM17 21v-1.16l1-.84v2h1.6v.15H18V25c0 .42.3.8.85.8.59 0 .84-.51.97-.95l.18.03c-.2.98-.98 1.13-1.56 1.13C17 26 17 25.21 17 24.7v-3.55h-1V21h1ZM10 25.84v-2.4h.17c.07.35.3 1.18.94 1.76.7.65 1.33.65 1.8.65 1.61 0 2.09-1.11 2.09-1.67 0-2.14-5-.87-5-3.96 0-1.14 1.33-2.22 2.96-2.22 1.02 0 1.5.4 1.87.4.21 0 .26-.06.33-.23h.18V20h-.15c-.36-1-.74-1.85-2.24-1.85-1.23 0-1.95.71-1.95 1.35 0 1.99 5 1.03 5 3.88C16 24.8 14.7 26 12.8 26c-.94 0-1.94-.4-2.26-.4-.2 0-.27.04-.35.24H10Z"/></svg>