<!-- by TradeStack --><svg width="56" height="56" viewBox="0 0 56 56" xmlns="http://www.w3.org/2000/svg"><path fill="#F0F3FA" d="M0 0h56v56H0z"/><path d="m18.53 45 .63-.74A23.91 23.91 0 0 1 16 39.08V45h2.53Zm18.52 0H22.42c7.16-1.87 12.74-.78 14.63 0Zm2.95-.52v-1.6a25.66 25.66 0 0 0-12.67-.71c-.93.2-1.99.46-3.2.76l-2.76.69-.74.64c4.35-1.37 12.06-3.05 19.37.22Zm0-2.59v-1.84c-3.4-.71-7.52-1.12-17.16 1.76l-.63.75c3.18-1.4 11.12-3.45 17.79-.67Zm0-2.87V37.3c-2.19-.42-6.27-.82-15.9 2.82l-.84 1.06c3.14-1.73 10.8-4.55 16.74-2.15Zm0-2.77v-1.5c-2.12-.27-7.5.11-14.53 3.66l-.54.75c3.3-1.77 10.8-4.74 15.07-2.91Zm0-2.58v-1.22c-2.83-.1-8.1 1.23-13.37 4.26l-.52.64c2.6-1.63 8.96-4.59 13.89-3.68Zm0-2.4v-1.43c-2.57.32-8 1.99-12.53 5.5 2.17-1.53 7.64-4.43 12.53-4.07ZM40 29v-1.68c-2.66.57-8.05 3.16-11.37 6.1C31.36 31.46 36.25 28.39 40 29Zm0-2.5v-1.89c-3.86 1.47-8.99 5.24-10.42 6.9 2.14-1.68 7.12-4.95 10.42-5Zm0-2.62v-1.92c-1.96.85-6.1 3.78-9.37 7.63 1.57-1.75 5.59-5.28 9.37-5.7Zm0-2.62v-1.69a30.73 30.73 0 0 0-8.53 7.8c1.47-1.76 5.16-5.35 8.53-6.1Zm0-2.38v-1.66c-1.27.7-4.14 2.99-7.68 7.8 1.64-2 5.37-5.87 7.68-6.14Zm0-2.37v-1.37c-1.78 1.18-5.23 4.08-7.05 7.76 1.4-1.86 4.7-5.62 7.05-6.4Zm0-2.28v-1.62c-1.93 1.42-5.47 4.63-6.42 7.85.81-1.44 3.21-4.64 6.42-6.23Zm0-2.54V11h-1.34c-1.76 1.88-4.27 4.88-4.55 6.48.97-1.42 3.46-4.49 5.89-5.79ZM37.9 11h-2.54a35.5 35.5 0 0 1-.62 3.82c.43-.76 1.59-2.4 3.16-3.82Zm-3.03 0h-.53c.17.56.3 1.17.3 1.38.06-.3.16-.85.23-1.38Zm-1.32 0h-1c.73 1.56 1.45 3.8 1.45 5.2.35-.76.55-2.77-.45-5.2Zm-1.74 0h-1.46a21.95 21.95 0 0 1 3.02 8.29c.26-.9.27-3.73-1.56-8.29Zm-2.12 0h-1.7c3.3 4.01 4.18 8.86 4.54 11.16l.42-1.28A41.95 41.95 0 0 0 29.69 11Zm-2.39 0H16v11.13a22.86 22.86 0 0 1 9.05 14.9l.84-1.06c-.4-.78-.8-1.97-1.23-3.24a33.44 33.44 0 0 0-1.48-3.88c-2.27-4.6-4.97-8.1-6.23-9.14 7.6 5.12 9.1 13.4 9.42 15.13l.05.28.63-1.28c-.27-.63-.53-1.44-.82-2.3-.37-1.17-.79-2.43-1.3-3.54a46.63 46.63 0 0 0-5.88-9.46c7.31 5.64 8.15 12.5 8.37 14.3l.05.37.64-.96c-.53-2.55-2.68-9.16-7.06-15.2 5.8 4.26 7.33 12.16 7.58 14.03l.53-.85-.03-.06c-.17-.47-.7-1.93-1.66-5.57-.59-2.23-3.13-6.78-4.73-8.82 5.16 3.93 6.59 10.73 6.84 13.7l.63-1.05c-.6-2.84-2.55-9.63-5.58-14.14 4 3.3 5.5 9.18 6 12.75l.53-1.59c-.42-2.51-2-8.56-4.95-12.64 3.9 3.29 5.3 9.1 5.47 11.9l.32-1.5A32.83 32.83 0 0 0 27.3 11ZM16 22.99v2.54c2.34 1.77 6.57 6.56 7.9 13.1l.7-.93C23.04 32.35 19 25.5 16 22.99Zm0 4.03v1.92a19.15 19.15 0 0 1 4.48 5.75c.9 1.74 1.6 3.55 1.94 5.85l1.05-1.17a24.35 24.35 0 0 1-1.68-3.61c-.83-2.21-2.7-6.18-5.79-8.74Zm0 3.85v1.83c1.37 1.67 4.15 5.68 5.05 9.32l.95-1.06a15.98 15.98 0 0 1-1.5-2.87 22.25 22.25 0 0 0-4.5-7.22Zm0 3.95v1.52c1.09 1.64 3.2 5.19 3.68 7.5l.95-1.18c-.26-.44-.62-1.1-1.04-1.88-1.02-1.9-2.4-4.47-3.59-5.96Z" fill="#82C40A"/></svg>