<!-- by TradeStack --><svg width="56" height="56" viewBox="0 0 56 56" fill="none" xmlns="http://www.w3.org/2000/svg">
<rect width="56" height="56" fill="#F0F3FA"/>
<path fill-rule="evenodd" clip-rule="evenodd" d="M13.5 24.3548V23H19.5V24.3548H18.9946V23.714C18.9946 23.5535 18.8625 23.4234 18.6994 23.4234H17V29.2319C17 29.4726 17.2213 29.6677 17.4647 29.6677H18V29.9999H14.997V29.6677H15.5753C15.8187 29.6677 16 29.4726 16 29.2319V23.4234H14.3006C14.1375 23.4234 14.0054 23.5535 14.0054 23.714V24.3548H13.5Z" fill="#1461C9"/>
<path fill-rule="evenodd" clip-rule="evenodd" d="M20.3607 26.3473V25.5379C20.5716 25.3586 21.2353 25 22.203 25C23.4128 25 24 25.873 24 26.5219V29.2435C24.0605 29.4439 24.1752 29.7845 24.6724 29.5441V29.7951C24.6206 29.8634 24.4138 30 24.001 30C23.4849 30 23.1353 29.6926 23.1353 29.3033C22.9429 29.5355 22.3395 30 21.465 30C20.3718 30 20 29.1445 20 28.5861C20 28.0277 20.7269 27 22.2308 27H23V26.127C22.9778 25.8641 22.7424 25.3381 22.0144 25.3381C21.1043 25.3381 20.9989 25.9529 20.9989 26.0912V26.3473H20.3607ZM23 27.3163V29.0043C22.8828 29.176 22.5018 29.5194 21.9692 29.5194C21.3035 29.5194 21 28.9653 21 28.4849C21 28.0045 21.6176 27.3163 22.2599 27.3163H23Z" fill="#1461C9"/>
<path fill-rule="evenodd" clip-rule="evenodd" d="M38.3895 26.3473V25.5379C38.6004 25.3586 39.2641 25 40.2318 25C41.4416 25 42 25.873 42 26.5219V29.2435C42.0605 29.4439 42.204 29.7845 42.7012 29.5441V29.7951C42.6494 29.8634 42.4426 30 42.0298 30C41.5137 30 41.1641 29.6926 41.1641 29.3033C40.9717 29.5355 40.3683 30 39.4938 30C38.4006 30 38 29.1445 38 28.5861C38 28.0277 38.7558 27 40.2596 27H41V26.127C40.9778 25.8641 40.7712 25.3381 40.0432 25.3381C39.1331 25.3381 39.0277 25.9529 39.0277 26.0912V26.3473H38.3895ZM41 27.3163V29.0043C40.8853 29.176 40.5257 29.5194 40.0046 29.5194C39.3532 29.5194 39 28.9654 39 28.4849C39 28.0045 39.6605 27.3163 40.289 27.3163H41Z" fill="#1461C9"/>
<path d="M25.5741 28.4202H25V29.5928C25.3231 29.7286 26.1746 30 26.9953 30C28.0212 30 29 29.4463 29 28.5831C29 27.7199 28.3412 27.4756 27.1929 27.0928C26.0447 26.7101 26 26.3599 26 26.1889C26 26.0179 25.9882 25.3013 26.9953 25.3013C27.8009 25.3013 28.0275 25.703 28.04 25.9039V26.4169H28.5294V25.3013C28.04 25.1059 27.56 25 26.9953 25C26.4306 25 25.0659 25.228 25.0659 26.3111C25.0659 27.3941 26.2201 27.7795 27.3307 28.089C28.4413 28.3984 28.1153 29.7394 26.9953 29.7394C26.0993 29.7394 25.6745 29.3431 25.5741 29.1449V28.4202Z" fill="#1461C9"/>
<path fill-rule="evenodd" clip-rule="evenodd" d="M29.1924 25V25.2459H29.6726C29.916 25.2459 30.0002 25.4391 30.0002 25.6774V29.3109C30.0002 29.5492 29.916 29.7424 29.6726 29.7424H29.1924V30H31.9075V29.7424H31.4513C31.2078 29.7424 31.0002 29.5492 31.0002 29.3109V26.2634C31.3739 25.9308 31.9118 25.5632 32.3868 25.5632C33.0375 25.5632 33.0241 26.0077 33.0002 26.2299V29.3465C33.0002 29.5805 32.931 29.7701 32.6876 29.7701H32.2672V30H34.9106V29.7701H34.4543C34.2108 29.7701 34.0002 29.5809 34.0002 29.347V26.5977C34.0002 26.4899 33.9922 26.3663 33.972 26.2367C34.3962 25.902 34.9487 25.5632 35.364 25.5632C36.0147 25.5632 36.0241 26.0077 36.0002 26.2299V29.3465C36.0002 29.5805 35.9082 29.7701 35.6648 29.7701H35.2444V30H37.8878V29.7701H37.4315C37.1881 29.7701 37.0002 29.5809 37.0002 29.347V26.5977C37.0002 26.023 36.7515 25 35.6511 25C35.0252 25 34.3404 25.4861 33.8965 25.9144C33.7457 25.446 33.4004 25 32.6739 25C31.9942 25 31.3754 25.4887 31.0002 25.9002V25H29.1924Z" fill="#1461C9"/>
<path fill-rule="evenodd" clip-rule="evenodd" d="M43.1182 25.2459V25H44.9966V25.7181C45.3871 25.3573 45.9415 25 46.5419 25C47.6789 25 47.9999 26.023 47.9999 26.5977V29.347C47.9999 29.5809 48.1299 29.7424 48.3814 29.7424H48.9999V30H46.1218V29.7424H46.5561C46.8076 29.7424 47.0115 29.5805 47.0115 29.3465V26.2299C47.0363 26.0077 46.9176 25.5632 46.2453 25.5632C45.828 25.5632 45.3636 25.829 44.9966 26.1131V29.3109C44.9966 29.5492 45.2005 29.7424 45.452 29.7424H45.9234V30H43.1182V29.7424H43.6143C43.8658 29.7424 43.9999 29.5492 43.9999 29.3109V25.6774C43.9999 25.4391 43.8658 25.2459 43.6143 25.2459H43.1182Z" fill="#1461C9"/>
<path fill-rule="evenodd" clip-rule="evenodd" d="M9.13334 26.4821C10.2944 27.7359 11.7832 29.8211 11.6739 32.2061C12.0792 31.2612 12.4334 28.8617 10.6085 26.8228C8.32745 24.2743 8.55965 21.862 10.7315 19C8.18725 20.4359 6.99768 24.1757 9.13334 26.4821ZM9.30457 19.2308C8.20305 19.7912 6 21.6895 6 24.7989C6 26.7561 6.899 28.0157 7.79159 29.2663C8.67156 30.4992 9.5453 31.7233 9.5453 33.5987C9.53091 33.8568 9.45841 34.4984 9.28358 35C9.84816 34.6774 10.9773 33.5935 10.9773 31.8381C10.9773 29.6439 8.95576 27.0545 8.35475 26.4003C7.75375 25.7461 7.48057 24.5741 7.48057 23.3339C7.48057 22.0937 8.3421 20.3066 9.30457 19.2308Z" fill="url(#paint0_linear_229_11367)"/>
<path fill-rule="evenodd" clip-rule="evenodd" d="M14 32.1236V32H15.1945C15.3597 32.0056 15.6902 32.1292 15.6902 32.5787C15.6902 32.8871 15.4759 33.0195 15.2648 33.0761L15.7737 33.8704H15.9947V34H15.4094L14.8405 33.118H14.6092V33.8876H14.8063V34H14V33.8876H14.2269V32.1236H14ZM14.612 32.1412H14.7905C15.0479 32.1412 15.2565 32.3295 15.2565 32.5617C15.2565 32.7939 15.0479 32.9821 14.7905 32.9821H14.612V32.1412ZM28.7696 32.1236V32H29.9641C30.1293 32.0056 30.4598 32.1292 30.4598 32.5787C30.4598 32.8871 30.2455 33.0194 30.0345 33.0761L30.5434 33.8704H30.7643V34H30.1791L29.6102 33.118H29.3788V33.8876H29.5759V34H28.7696V33.8876H28.9965V32.1236H28.7696ZM29.3817 32.1412H29.5602C29.8175 32.1412 30.0261 32.3295 30.0261 32.5617C30.0261 32.7939 29.8175 32.9821 29.5602 32.9821H29.3817V32.1412ZM17.0642 34V33.8618H17.2636V32.1475H17.0642V32H18.6153V32.4194H18.4549V32.2884C18.4549 32.2106 18.3883 32.1475 18.3061 32.1475H17.6963V32.8664H18.1651C18.2473 32.8664 18.3139 32.8032 18.3139 32.7254V32.7051H18.4354V33.2304H18.3139V33.1686C18.3139 33.0908 18.2473 33.0277 18.1651 33.0277H17.6963V33.8618H18.3061C18.3883 33.8618 18.4549 33.7986 18.4549 33.7208V33.6452H18.6153V34H17.0642ZM34.8074 33.8618V34H36.3585V33.6452H36.1981V33.7208C36.1981 33.7986 36.1315 33.8618 36.0493 33.8618H35.4395V32.9964H35.9083C35.9905 32.9964 36.0571 33.0595 36.0571 33.1374V33.1992H36.1786V32.6738H36.0571V32.6941C36.0571 32.772 35.9905 32.8351 35.9083 32.8351H35.4395V32.1475H36.0493C36.1315 32.1475 36.1981 32.2106 36.1981 32.2884V32.4194H36.3585V32H34.8074V32.1475H35V33.8618H34.8074ZM19.8435 33.8811V33.491H20.0044C20.0044 33.7858 20.2161 33.861 20.4372 33.861C20.6583 33.861 20.8447 33.807 20.8447 33.5773C20.8447 33.3476 20.6089 33.2287 20.3867 33.1396C20.1644 33.0504 19.8435 32.9099 19.8435 32.5586C19.8435 32.2074 20.26 32.0204 20.6089 32.0204C20.8881 32.0204 21.0773 32.1159 21.1371 32.1637V32.494H20.9556C20.9556 32.494 20.944 32.2194 20.6462 32.2194C20.3484 32.2194 20.246 32.3647 20.246 32.4682C20.246 32.5716 20.2762 32.6711 20.5135 32.7607C20.7509 32.8502 21.2743 33.1169 21.2743 33.491C21.2743 33.8652 20.9091 34.0204 20.4647 34.0204C20.1092 34.0204 19.9024 33.9275 19.8435 33.8811ZM37.7276 33.4706V33.8607C37.7865 33.9071 37.9933 34 38.3488 34C38.7931 34 39.1584 33.8448 39.1584 33.4706C39.1584 33.0965 38.6349 32.8298 38.3976 32.7403C38.1603 32.6507 38.1301 32.5512 38.1301 32.4478C38.1301 32.3443 38.2324 32.199 38.5302 32.199C38.828 32.199 38.8397 32.4736 38.8397 32.4736H39.0211V32.1433C38.9614 32.0955 38.7722 32 38.493 32C38.144 32 37.7276 32.187 37.7276 32.5382C37.7276 32.8895 38.0484 33.03 38.2707 33.1192C38.493 33.2083 38.7288 33.3272 38.7288 33.5569C38.7288 33.7866 38.5424 33.8406 38.3213 33.8406C38.1001 33.8406 37.8885 33.7654 37.8885 33.4706H37.7276ZM23.4733 34C24.0973 34 24.6032 33.5523 24.6032 33C24.6032 32.4477 24.0973 32 23.4733 32C22.8492 32 22.3433 32.4477 22.3433 33C22.3433 33.5523 22.8492 34 23.4733 34ZM23.4733 33.8215C23.8356 33.8215 24.1293 33.4537 24.1293 33C24.1293 32.5463 23.8356 32.1785 23.4733 32.1785C23.111 32.1785 22.8173 32.5463 22.8173 33C22.8173 33.4537 23.111 33.8215 23.4733 33.8215ZM25.7744 32.1473V32H26.6629V32.1473H26.4429V33.3702C26.4429 33.6388 26.6901 33.8566 26.9949 33.8566C27.2998 33.8566 27.547 33.6047 27.547 33.2391V32.1473H27.2479V32H28V32.1473H27.7141V33.2481C27.7141 33.6633 27.3321 34 26.8608 34C26.3895 34 26.0075 33.6633 26.0075 33.2481V32.1473H25.7744ZM33.6458 32.5157H33.7979V32.1521C33.7238 32.1014 33.4874 32 33.1349 32C32.5655 32 32 32.2777 32 33.005C32 33.7322 32.5694 34 33.1349 34C33.5873 34 33.7992 33.7994 33.8486 33.6992H33.6458C33.5938 33.741 33.4274 33.8248 33.1778 33.8248C32.6474 33.8248 32.4212 33.5471 32.4212 33.0645C32.4212 32.5818 32.6045 32.2248 33.1349 32.2248C33.5592 32.2248 33.6523 32.4187 33.6458 32.5157ZM42.3619 32.1737V32H43.2488V32.1737H43V33.7981H43.7652L43.8696 33.4977H44V34H42.3619V33.8592H42.628V32.1737H42.3619ZM44.8071 32.4547V32H46.8175V32.4547H46.6476V32.1678H46V33.8809H46.3078V34.0001H45.3168V33.8809H45.5999V32.1678H45.0053V32.4547H44.8071ZM47.7479 33.8295V34H49.0008C49.3071 33.9879 50 33.7685 50 32.9871C50 32.2057 49.3888 32.0034 49.1233 32H47.7479V32.1344H48V33.8295H47.7479ZM48.4328 32.1189H48.7359C49.1467 32.1189 49.5525 32.428 49.5525 32.8092V33.1289C49.5525 33.5101 49.1467 33.8192 48.7359 33.8192H48.4328V32.1189Z" fill="#7AC2D7"/>
<defs>
<linearGradient id="paint0_linear_229_11367" x1="9" y1="19" x2="9" y2="35" gradientUnits="userSpaceOnUse">
<stop stop-color="#91D1E5"/>
<stop offset="1" stop-color="#EBF8FA"/>
</linearGradient>
</defs>
</svg>
