<!-- by TradeStack --><svg width="56" height="56" viewBox="0 0 56 56" xmlns="http://www.w3.org/2000/svg"><path fill="#2CB5EB" d="M0 0h56v56H0z"/><path d="M26.18 27.06c.13 1.36.2 2.07-.9 3.24a35.82 35.82 0 0 1-6.88 5.17c-1.24.72-2.9 1.59-4.15 2.06-.94.33-1.71.48-2.1-.2-.25-.46-.14-.86 0-1.2 1.01-2.8 3.93-8.02 5.83-11.4l.4-.7c.06-.13.13-.24.2-.36a221.72 221.72 0 0 1 7.58-12.44c.1-.13.31-.3.5-.2.14.08.14.27.12.4l-.02.12-.04.17c-1.27 5.18-1.12 10.26-.54 15.34Zm4.27 1.59c-1.23-.57-1.87-.87-2.32-2.4-.47-1.61-.95-5.24-.95-8.65 0-1.44.08-3.34.31-4.68.18-.99.45-1.76 1.24-1.76.49 0 .77.32 1.02.62 1.82 2.21 4.69 7.18 6.63 10.54l.16.28a228.85 228.85 0 0 1 7.4 13.94c.07.17.12.43-.07.55-.16.09-.3-.02-.4-.08a2.99 2.99 0 0 0-.22-.2c-3.78-3.71-8.2-6.14-12.8-8.16Zm-.28 2.12c-1.54-.37-2.12.05-3.22.86-4.03 3.04-8.3 5.7-13.34 7.18l-.28.09c-.12.05-.26.13-.26.31-.02.22.23.3.4.34 1.26.17 8.54.43 14.38.45h1.62c3.84-.04 9.44-.08 12.22-.57.38-.07.77-.15 1.03-.6.38-.69-.13-1.3-.89-1.96a37.13 37.13 0 0 0-11.66-6.1Z" fill="#fff"/></svg>