<?xml version='1.0' encoding='utf-8'?>
<!-- by TradeStack -->
<svg width="56" height="56" viewBox="0 0 56 56" xmlns="http://www.w3.org/2000/svg"><path fill="#F0F3FA" d="M0 0h56v56H0z" /><path d="M27.51 38c.02 0 .03-.05.02-.07a253.08 253.08 0 0 0-1.44-3.26c-.3-.05-.58-.12-.88-.22l-1.38-.46c-.16-.05-.36-.1-.53-.12-.14-.02-.27.1-.37.2l-.31.37c-.17.23-.34.43-.51.62-.04.04-.1.09-.2.14-.42.25-.7.57-.75 1.08 0 .13 0 .31.05.53l.11.56c.04.2.14.54.36.58.09.02.17.07.26.05.28 0 .73.06.82.27.19.42-.2.73-.6.73H9.61c-.1 0-.23 0-.32-.03-.25-.08-.3-.3-.29-.54a.5.5 0 0 1 .04-.18c.1-.25.31-.31.56-.34.29-.04.4-.27.51-.5.1-.2.18-.4.22-.58.1-.46.08-.93.14-1.4a2 2 0 0 1 .19-.67c.11-.22.25-.43.34-.65a4.6 4.6 0 0 0 .4-2.05c0-.14.05-.3.13-.47a.96.96 0 0 1 .59-.54c.29-.1.51-.29.65-.56.09-.18.14-.36.16-.54a7.43 7.43 0 0 1 2.57-4.86.76.76 0 0 0 .2-.24c.07-.18-.15-.44-.24-.58a2.6 2.6 0 0 1-.41-1.36c-.01-.77.27-1.55.87-2.06a2.6 2.6 0 0 1 2.33-.56c.42.1.7.34.86.73.17.42.22.85.26 1.3.02.16.1.32.3.27l.3-.05.7-.08a528.71 528.71 0 0 1 5.9-.67c.3-.04.45-.2.6-.46.22-.43.5-.83.8-1.18a3.65 3.65 0 0 1 2.28-1.24c.38-.05.61-.4.75-.73.06-.14.12-.35 0-.47-.27-.33-.5-.64-.48-1.09.02-.3.18-.54.4-.76A3.2 3.2 0 0 1 33 14.84c.22-.03.44-.05.67-.03l.66.07c.35.04.64-.08.94-.28.2-.12.44-.24.74-.34a5.38 5.38 0 0 1 3.46.07c.44.18.79.43 1.1.79.23.28.53.59.88.68l.27.05h.2c.52-.1.95.37 1.1.82.2.56.41 1.15.93 1.49.1.07.23.1.31.18.23.21.28.5.27.82-.01.59.2 1.22.38 1.81.09.3.11.58.07.87a4.3 4.3 0 0 1-1.01 2.25c-.32.38-.7.73-1.14 1.08l-.77.58a.76.76 0 0 0-.31.43c-.02.1-.03.24 0 .44a6.86 6.86 0 0 1-.62 3.66c-.44 1.1-.83 2.09-1.16 2.98a3.06 3.06 0 0 0-.1 2.06c.1.33.25.62.4.93.15.34.27.67.4 1.01.17.44.45.66.94.6a.9.9 0 0 1 .3 0c.28.06.4.27.42.54a.8.8 0 0 1-.05.35c-.06.18-.25.25-.42.25H25.65a.43.43 0 0 1-.35-.29.74.74 0 0 1-.03-.34c.05-.35.3-.37.62-.37h1.62Z" fill="#234677" /><path d="M39.63 17.41c-.37-.83-1-1.5-1.76-1.98-.03-.02-.03-.03 0-.04.43-.08.83-.06 1.2.07.6.2.83.78.76 1.36a3.65 3.65 0 0 1-.15.65h-.01l-.01-.01a.44.44 0 0 1-.03-.05Z" fill="#F0F3FA" /><path d="M36.76 20.68a5.7 5.7 0 0 0-.38.18c-.23.12-.42.09-.58-.1h-.03l-.01.01c-.02-.01-.04-.02-.05 0-.32.27-.48.63-.45 1.07.01.3.05.57.1.84.03.15.02.31.06.47v.02l-.02.01a6.61 6.61 0 0 1-3.34-2.29c-.2-.25-.33-.46-.39-.6-.2-.51.17-1.04.54-1.39.09-.08.19-.09.28 0 .15.11.23.3.4.39l.32.18c.17.12.38.2.6.25.68.16 1.1-.25 1.33-.84l.36-.97c.1-.3.17-.57.2-.79.03-.22.07-.4.1-.52.07-.23.2-.37.4-.42a.92.92 0 0 1 .44.03c.22.06.43.12.61.23.16.09.52.18.56.37.05.26-.1.38-.32.47-.26.11-.49.24-.67.37a.93.93 0 0 0-.35.54l-.03.15c-.02.12.01.23.02.35a.02.02 0 0 0 .04 0l.3-.28c.26-.23.55-.45.87-.53.14-.04.31-.07.51-.09.07 0 .13 0 .17.02.1.05.18.21.1.32-.08.11-.2.19-.29.29-.32.33-.6.7-.84 1.1-.22.37-.4.76-.56 1.16Z" fill="#C4B095" /><path d="M32.57 28.67c.06-.17.1-.29.11-.37.02-.1.02-.23 0-.4a8.36 8.36 0 0 0-2.47-4.88 2.87 2.87 0 0 1-.99-2.14l.36-.35c.15.02.3.02.44 0 .1.32.22.62.4.9.17.27.39.5.66.7l.65.37.62.35c1.24.7 2.5 1.29 3.84 1.67.61.17 1.25.21 1.87.27.03 0 .03 0 0-.02a6.63 6.63 0 0 1-1.85-1.9 3.52 3.52 0 0 1-.44-2.11h.03c.16.19.35.22.58.1l.38-.18c.15.08.25.19.3.32.1.27.16.57.37.76a.02.02 0 0 0 .02 0l.01-.01a5.8 5.8 0 0 1 .74-2.07c.27-.45.6-.9 1-1.38a.19.19 0 0 1 .14-.07l.04.02v.05l-.02.01-.05.02c-.02 0-.02.02-.02.03.03.13.03.24.02.33-.03.22-.08.48.01.68.02.03.03.04.06.02l.67-.54c.26-.2.62-.38.95-.35.16.01.34.03.55.07.16.02.35.03.54.02.14-.01.27-.07.4-.1.1-.01.16.14.18.22.01.07.03.15.07.21.11.14.22.28.01.41-.33.21-.65.47-.95.79a7.42 7.42 0 0 1-1.48 1.2c-.4.27-.77.5-1.2.68a2.56 2.56 0 0 1-1.69.05c-.02 0-.02 0-.02.02.13.62.56.96 1.16 1.07a2.9 2.9 0 0 0 2-.4c.55-.3 1.03-.63 1.44-1a13.58 13.58 0 0 0 1.17-1.17l.03.01c.42.31.46.77.38 1.26a3.03 3.03 0 0 1-1.24 2.02c-.22.16-.48.28-.72.4-.4.22-.6.65-.84.98a4.34 4.34 0 0 1-2.62 1.7l-2.46.64c-.05.02-.05.03 0 .05.39.14.79.25 1.2.34.57.12 1.11.1 1.68-.04a11.54 11.54 0 0 0 1.77-.66c.05.92-.1 1.86-.66 2.57-.26.31-.57.6-.94.85a18.65 18.65 0 0 1-6.31 2.65c-.03 0-.04 0-.04-.04l.06-.65.1-1.62c.03-.66.03-1.44 0-2.36Z" fill="#F0F3FA" /><path d="M30.02 20.53c-.14.02-.29.02-.44 0 .02-.2.2-.35.41-.29a.05.05 0 0 1 .04.04c.02.08.02.16 0 .25ZM29.22 20.89c.02.6.2 1.13.52 1.6.11.15.27.33.47.53a8.36 8.36 0 0 1 2.46 4.88c.03.17.03.3.01.4a2.15 2.15 0 0 1-.22.6l-.1.23-.4 1.02c-.06.18-.15.37-.25.56-.24.45-.42.93-.44 1.44-.04.6.12 1.11.46 1.57.09.12.18.28.06.4l-.18.22a.54.54 0 0 0-.14.14 2.6 2.6 0 0 1-.14.06c-.2.06-.4.16-.6.3l-.64.42c-.15.1-.25.18-.23.37 0 .09.02.17.06.26l.42.85c.08.15.14.35.15.5.02.18-.03.56-.15.76h-1.38c-.1-.01-.16-.2-.19-.3a7.4 7.4 0 0 0-.24-.73l-.37-.9a4.63 4.63 0 0 1-.33-1.22c-.03-.21-.02-.41.01-.63a6.54 6.54 0 0 0 .05-1.75 17 17 0 0 0-.71-3.15c-.03-.07-.05-.07-.08 0a7.1 7.1 0 0 0-.48 2.01 4.31 4.31 0 0 1-1.77-.64c-.85-.53-1.6-1.24-2.34-1.95l-1.34-1.3a.47.47 0 0 0-.31-.14h-.04a.05.05 0 0 0-.01.04c-.02.2-.05.38-.05.58 0 .49.02.9-.07 1.32l-.05.23a7.85 7.85 0 0 1-2.52 3.16 7.94 7.94 0 0 1-2.6 1.36c-.22.07-.41.14-.56.21-.35.17-.67.5-.83.85a.4.4 0 0 0-.02.08 7.41 7.41 0 0 0-.56-.09 1.2 1.2 0 0 0-.6.08c-.15.06-.26.17-.38.25-.14.1-.24.07-.31-.08-.08-.16-.07-.3.02-.43.03-.04.04-.09 0-.14h-.01l-.04-.01.21-.84c.05-.16.1-.44.13-.83 0-.08.03-.18.06-.3.13-.41.46-.54.86-.59.15-.02.27-.26.32-.4.06-.16.1-.34.15-.5l.42-1.62c.12-.43.24-.84.37-1.22.23-.67.56-1.35 1.1-1.83.4-.37.9-.6 1.47-.72.23-.04.48-.06.72-.11a31.5 31.5 0 0 0 1.2-.3 3.94 3.94 0 0 0-1.2-.6l-.91-.28-.16-.07-.01-.02c.35-.12.51-.47.9-.48.24 0 .47-.03.71-.05l.33-.02 1.1-.1a69.88 69.88 0 0 0 5.35-.7c.24-.05.46-.08.65-.09.2 0 .38.03.54.11.17.08.27.29.31.46.07.27.1.57.16.84.03.11.08.23.14.36.13.26.23.53.37.78.2.37.43.72.68 1.06l.95 1.26.51.73c.03.04.04.04.03-.02-.02-.18 0-.36-.03-.55-.13-1.1-.44-2.17-.89-3.2a4.05 4.05 0 0 1-.38-2.03c.04-.67.27-1.28.68-1.81.03-.05.08-.1.15-.14ZM16.6 22.14c.19-.33.47-.54.84-.6l.19-.04c.11-.02.21 0 .32.02.41.1.61.5.63.9.01.17-.11.24-.27.24-.23 0-.47-.02-.68 0a2.03 2.03 0 0 0-1.15.63h-.01l-.01-.01v-.63c-.01-.19.05-.34.14-.51Z" fill="#C4B095" /><path d="M26.62 31.33c0 .35-.02.7-.04 1.08-.01.24-.02.5 0 .75.02.08 0 .17-.02.26-.08.23-.32.17-.49.1-1.39-.48-2.79-.95-4-1.8a4.24 4.24 0 0 1-.83-.78c-.33-.4-.53-.9-.6-1.47l.05-.23c.1-.43.08-.83.08-1.32 0-.2.02-.39.04-.58a.05.05 0 0 1 .05-.04c.12 0 .22.05.3.14l1.35 1.3c.74.7 1.49 1.42 2.34 1.95.54.35 1.14.56 1.77.64Z" fill="#F0F3FA" /><path d="M39.06 32.12c-.37.67-.63 1.4-.66 2.16 0 .21 0 .45.04.7.06.4.18.85.37 1.32a65.26 65.26 0 0 0 .65 1.66v.02l-.02.02h-1.96c-.17 0-.45.05-.53-.14l-.4-1c-.1-.29-.19-.58-.23-.87-.03-.18-.04-.4-.02-.64.03-.55.12-1.05.21-1.61a.91.91 0 0 1 .1-.32c.07-.1.15-.2.26-.26.3-.17.63-.27.94-.39.1-.04.22-.1.37-.2a9.75 9.75 0 0 1 .9-.5l-.02.05ZM19.54 33.8c.5-.32 1.09-.6 1.68-.7.18-.03.36.03.45.22.09.18-.15.45-.29.56l-.52.42c-.27.23-.5.48-.72.77a2.26 2.26 0 0 0-.38 1.84c.04.17.07.33.04.5-.08.45-.58.39-.68 0a5.63 5.63 0 0 1-.08-.37 2.46 2.46 0 0 0-.48-1.1l-.3-.32c-.21-.26-.33-.62-.12-.9a.78.78 0 0 1 .24-.2c.35-.19.74-.43 1.16-.71Z" fill="#C4B095" /><path d="M35.3 34.14c-.33.74-.4 1.46-.24 2.2a4.99 4.99 0 0 0 .62 1.53c.02.03 0 .04-.02.03-.23-.02-.48.03-.71.05l-.31.03c-.17.02-.35.03-.54 0a.92.92 0 0 1-.27-.06c-.38-.16-.66-.74-.78-1.11-.12-.34-.21-.69-.28-1.03-.28-1.28 1.8-1.63 2.57-1.79.02 0 .02 0 .01.02l-.05.13Z" fill="#E6E5E5" /><path d="M31.61 34.34c.02.15-.08.12-.12.22-.19.46-.2.9-.07 1.38.06.25.15.5.27.75a31.84 31.84 0 0 1 .46 1.11l-.01.2v-.19.19h-1.8c.12-.2.17-.58.16-.76a1.48 1.48 0 0 0-.16-.5l-.41-.85a.71.71 0 0 1-.07-.26c-.02-.19.08-.27.23-.37l.64-.42a2.1 2.1 0 0 1 .71-.34c.02 0 .03-.01.03-.02.04-.06.09-.1.14-.14ZM12.23 34.71h.04l.02.01c.03.05.02.1 0 .14-.1.12-.1.27-.03.43.07.15.17.17.3.08.13-.08.24-.19.39-.25.19-.08.4-.1.6-.08l.56.1c.03.23.02.45-.04.63-.09.26-.27.65-.33.92-.06.25-.02.54-.03.8-.01.2-.08.35-.26.43-.12.04-.23.08-.33.08h-1.7c-.02 0-.03-.08-.03-.1l.21-.91c.1-.39.15-.89.21-1.27.05-.3.17-.56.37-.78.04-.04.06-.12.05-.23Z" fill="#F0F3FA" /><path d="M15.13 36.26a2.21 2.21 0 0 1 1.55-1.24.03.03 0 0 1 .01.02c.04.43.18.82.4 1.19.15.23.34.45.46.68.1.21.19.46.25.76.01.09.02.23-.07.28a.35.35 0 0 1-.17.05h-2.33c-.1 0-.16-.08-.2-.18a2.15 2.15 0 0 1 .1-1.56Z" fill="#E6E5E5" /></svg>