<?xml version='1.0' encoding='utf-8'?>
<!-- by TradeStack -->
<svg width="56" height="56" viewBox="0 0 56 56" xmlns="http://www.w3.org/2000/svg"><path fill="#F0F3FA" d="M0 0h56v56H0z" /><path d="M42.55 28.85a7.67 7.67 0 0 0-2.78-5.12c-1.85-1.42-4.63-1.75-6.94-1.28a7.63 7.63 0 0 0-6.06 6.18c-.34 1.63-.31 3.24.1 4.81a7.53 7.53 0 0 0 5.44 5.7.11.11 0 0 1-.03.17l-4.12 2.63a.4.4 0 0 1-.43 0L6.08 28.14a.16.16 0 0 1-.08-.15.17.17 0 0 1 .08-.14c2.14-1.36 4.3-2.87 6.46-4.25.6-.4.95-.6 1.66-.6h3.6c.05 0 .1.03.14.07a.2.2 0 0 1 .06.15v11.66c0 .09.04.12.13.12h4.75c.07 0 .12-.03.12-.12V23.1l.03-.06.06-.03h4.71c.05 0 .1 0 .12-.04.04-.03.08-.07.08-.12v-3.68c0-.04-.04-.08-.07-.11a.16.16 0 0 0-.12-.05H19.8a.08.08 0 0 1-.07-.06.08.08 0 0 1 .03-.09l7.97-4.78a.46.46 0 0 1 .5 0l21.75 13.87a.08.08 0 0 1 .02.1l-.02.03c-2.77 1.73-5.16 3.4-7.2 4.72-.21.14-.62.21-1.2.2h-3.83a.16.16 0 0 0-.16.12c-.28.96-.48 1.7-1.54 2.09-1.78.64-3.42-.1-3.93-1.95a8.26 8.26 0 0 1 .14-5.2 2.66 2.66 0 0 1 2.68-1.75c1.5.03 2.38 1 2.64 2.61l.03.06a.1.1 0 0 0 .07.03h4.75c.1 0 .14-.05.13-.15Z" fill="#E80122" /></svg>