<!-- by TradeStack --><svg width="56" height="56" viewBox="0 0 56 56" xmlns="http://www.w3.org/2000/svg"><path fill="#F0F3FA" d="M0 0h56v56H0z"/><path d="M36.77 14.47c-.16.64-.37 1.28-.63 1.92h-.01c-.88-.85-1.83-1.6-2.86-2.23-.89-.56-1.83-1.01-2.83-1.36a13.66 13.66 0 0 0-6.82-.62c-1.05.15-2.05.4-3.01.75a9.35 9.35 0 0 0-3.8 2.4c-.54.6-.97 1.27-1.27 2a6.26 6.26 0 0 0 .15 5.12 7.5 7.5 0 0 0 3.06 3.27c.96.56 2.03.97 3.1 1.27 1.3.35 2.6.54 3.91.58a13.16 13.16 0 0 0 4.02-.52 15.99 15.99 0 0 0 4.77-2.34 15.6 15.6 0 0 0 3.93-4.3 16.9 16.9 0 0 0 2.2-5.58c.15-.82.23-1.93.25-2.83h-3.86c-.01.74-.11 1.73-.3 2.47Zm-10.56 1.7c1.48.03 2.87.35 4.19.98a12.32 12.32 0 0 1 3.55 2.55c.07.07.02.13-.04.2-.7.74-1.44 1.37-2.23 1.9a10.67 10.67 0 0 1-6.23 1.78c-1.08-.03-2.14-.2-3.17-.54a7.9 7.9 0 0 1-2.25-1.09c-.6-.43-1.04-1.02-1.09-1.79 0-.2 0-.43.05-.66.08-.46.28-.84.59-1.19.33-.37.74-.69 1.23-.94.36-.2.73-.36 1.11-.5a12.63 12.63 0 0 1 4.29-.7Zm8.57 24.7c.49-.38.94-.8 1.36-1.25.54 1.38.83 2.9.82 4.38h3.86c0-.76-.07-1.54-.19-2.28a17.13 17.13 0 0 0-1.85-5.43 16.44 16.44 0 0 0 .36-15.88 16.65 16.65 0 0 1-2.8 3.44 12.57 12.57 0 0 1 .53 6.03A12.1 12.1 0 0 1 34 35.85c-.76.86-1.64 1.63-2.6 2.24a10.2 10.2 0 0 1-5.4 1.66c-.44 0-.9 0-1.37-.04-.78-.06-1.57-.19-2.32-.4a7.77 7.77 0 0 1-2.24-1.08 3.26 3.26 0 0 1-.76-.71 2.12 2.12 0 0 1-.4-1.71c.19-1.16 1.11-1.86 2.08-2.33a12.35 12.35 0 0 1 5.77-1.02c1.4.12 2.73.5 3.97 1.16a12.87 12.87 0 0 1 2.65 1.88l.11.1h.02c.54-.6 1.03-1.24 1.42-1.94a17.5 17.5 0 0 0 .66-1.34 14.91 14.91 0 0 0-5.72-3.26c-1.49-.47-3.01-.68-4.57-.63-1.19.04-2.37.22-3.54.52-.97.26-1.92.62-2.8 1.09-.42.22-.81.47-1.18.74A6.65 6.65 0 0 0 15 35.93a6.86 6.86 0 0 0 1.42 4.25 7.59 7.59 0 0 0 2.03 1.86c.8.51 1.7.9 2.62 1.19 1.48.46 3 .72 4.57.76 1.2.04 2.38-.09 3.52-.38a15.2 15.2 0 0 0 5.62-2.74Z" fill="#A11F24"/></svg>