<?xml version='1.0' encoding='utf-8'?>
<!-- by TradeStack -->
<svg width="56" height="56" viewBox="0 0 56 56" xmlns="http://www.w3.org/2000/svg"><path fill="#F0F3FA" d="M0 0h56v56H0z" /><path d="M4.06 29.04c0 .48.48.92 1.2 1.2h.04l-.05-.03-.04-.04.1.06-.07-.05.07.05a1.81 1.81 0 0 1 0-2.43h.03-.06l-.08.05c-.73.28-1.2.7-1.2 1.19h.06ZM18.03 19a14.76 14.76 0 0 0-.2 20 12.53 12.53 0 0 1-4.91-10.05A12.47 12.47 0 0 1 18.03 19ZM12.31 21.65a10.9 10.9 0 0 0-.15 14.76 9.25 9.25 0 0 1-2.6-11.53 9.26 9.26 0 0 1 2.75-3.23ZM51.94 29.04c0 .48-.47.92-1.2 1.2h-.03l.05-.03.04-.04-.1.06.07-.05-.07.05a1.8 1.8 0 0 0 0-2.43h.02l.08.05c.73.28 1.2.7 1.2 1.19h-.06ZM37.95 19a14.76 14.76 0 0 1 .2 20 12.53 12.53 0 0 0 4.91-10.05A12.47 12.47 0 0 0 37.95 19ZM43.66 21.65a10.91 10.91 0 0 1 .16 14.76 9.25 9.25 0 0 0 2.6-11.53 9.25 9.25 0 0 0-2.76-3.23Z" fill="#0098D7" /><path fill-rule="evenodd" d="M28 37a9 9 0 1 0 0-18 9 9 0 0 0 0 18Zm-4-4h2v-8h3v-2h-8v2h3v8Zm8 0h2V23h-2v4h-4v2h4v4Z" fill="#0098D7" /></svg>