<!-- by TradeStack --><svg width="56" height="56" viewBox="0 0 56 56" xmlns="http://www.w3.org/2000/svg"><path fill="#F0F3FA" d="M0 0h56v56H0z"/><path d="M4 24.5V24h4.5v.5h-2V31H6v-6.5H4Zm7 2.05V26c-.8-.08-1.3.56-1.5 1V26H9v5h.5v-3.11c.11-1.06 1.06-1.34 1.5-1.34Zm.32 1.01h.5c.02-.37.28-1.1 1.29-1.1 1.25 0 1.55 1.47.62 1.57h-.04c-.93.1-2.59.28-2.59 1.64.03.45.37 1.33 1.52 1.33.73 0 1.4-.53 1.65-.79v.45c.03.11.16.34.52.34s.55-.05.6-.07v-.51c-.06.02-.22.05-.37.05-.2 0-.27-.05-.27-.42V27.2c-.03-.4-.4-1.2-1.64-1.2-1.55 0-1.8 1.3-1.8 1.56Zm2.94.89v1.06c-.13.36-.64 1.09-1.6 1.09-.76 0-1-.56-1.05-.9-.02-.24.1-.77.8-.95.46-.1.99-.18 1.39-.23l.46-.07ZM16 26h.5v1.02c.2-.36.76-1.02 1.53-1.02 1 0 1.47.74 1.47 1.43V31H19v-3.57c-.03-.3-.33-.93-1.08-.93-.72 0-1.23.92-1.42 1.43V31H16v-5Zm5.7 0c1.33 0 1.73.94 1.77 1.41h-.56c0-.45-.4-1-1.21-1-1 0-1.09.66-1.09.87v.04c0 .24-.01.79 1.33.94 1.25.15 1.67.93 1.68 1.2.02.51-.3 1.54-1.76 1.54s-1.85-1.03-1.86-1.54h.5c.02.35.4 1.05 1.36 1.05.96 0 1.2-.59 1.2-.88 0-.2-.29-.68-1.4-.9-1.4-.3-1.56-.95-1.56-1.45v-.02c0-.27-.01-1.26 1.6-1.26Zm6.33 0h1.41c-.34-1.18-1.17-2-2.62-2-2 0-2.82 1.57-2.82 3.5s.9 3.5 2.82 3.5c1.33 0 2.21-.82 2.6-2H28c-.25.5-.65.82-1.2.82-1.02 0-1.49-1.04-1.49-2.32 0-1.28.43-2.32 1.5-2.32.59 0 .98.32 1.22.82Zm1.66 1.64h1.2c.01-.23.18-.69.8-.69.79 0 .86.46.86.57 0 .12-.05.41-.85.5l-.17.02c-.8.08-1.94.19-1.94 1.72.05.41.4 1.24 1.41 1.24.7 0 1.32-.53 1.55-.8v.8h2.81v-3.28c.17-.33.49-.72.97-.72.63 0 .67.52.67.78V31h1.36v-3.43c0-1.04-.72-1.57-1.7-1.57-.58 0-1.03.33-1.3.63V26H34v4.98c-.12-.13-.33-.41-.33-.6V27.4c-.02-.47-.44-1.41-1.97-1.41-1.54 0-1.98 1.1-2.01 1.64Zm2.85.94c.04.5-.11 1.52-1.1 1.52-.22 0-.68-.1-.68-.57 0-.57.54-.67.93-.73.3-.06.7-.17.85-.22Zm12.58-.94h-1.2c.03-.55.47-1.64 2-1.64 1.54 0 2.06.94 2.08 1.4v2.98c0 .2.13.5.24.62h-1.46v-.8c-.23.27-.85.8-1.55.8a1.38 1.38 0 0 1-1.4-1.24c0-1.53 1.13-1.64 1.93-1.72l.17-.02c.8-.09.85-.38.85-.5 0-.11-.07-.57-.85-.57-.63 0-.8.46-.8.7Zm.56 2.46c.98 0 1.13-1.01 1.09-1.52a7.9 7.9 0 0 1-.85.22c-.39.06-.93.16-.93.73 0 .46.46.57.69.57ZM41.66 26c-.58 0-1.03.33-1.3.63V26H39v5h1.36v-3.28c.17-.33.49-.72.97-.72.63 0 .67.52.67.78V31h1.36v-3.43c0-1.04-.72-1.57-1.7-1.57Z"/><path d="M49.56 25.56a5.6 5.6 0 0 1-.51.23c-.14-.06-.45-.1-.8-.01.18-.14.4-.27.63-.3.2-.02.46.02.68.08Zm.44-.27c-.2-.05-.5-.09-.85-.04-.46.06-.96.4-1.25.66-.06.02-.11.05-.17.09l-.1-.01c.13-.17.43-.46.96-.74.64-.3 1.36-.32 1.84-.27l-.43.31Zm.76-.63a3.97 3.97 0 0 0-1.68.2c-.8.3-1.37.83-1.6 1.1a2.2 2.2 0 0 1-.12-.03c.13-.3.6-.92 1.7-1.33.79-.3 1.54-.38 2.06-.37-.1.15-.23.3-.36.43Zm.54-.69a5.88 5.88 0 0 0-2.34.38c-1.16.44-1.7 1.12-1.85 1.5a2.25 2.25 0 0 1-.1-.04c.16-.3.56-.88 1.27-1.31a8.09 8.09 0 0 1 3.3-1.08c-.08.19-.17.37-.28.55Zm.4-.81a6.3 6.3 0 0 0-1.64.27c-.72.22-1.4.53-1.92.84a3.8 3.8 0 0 0-1.36 1.42 1.87 1.87 0 0 1-.09-.06c.14-.38.65-1.18 1.82-1.86a7.6 7.6 0 0 1 3.34-1.15c-.04.18-.1.36-.16.54Zm.21-.81a7.8 7.8 0 0 0-3.53 1.19 4.5 4.5 0 0 0-1.9 1.91 1.58 1.58 0 0 1-.09-.08c.16-.4.66-1.24 1.7-1.97a10.74 10.74 0 0 1 3.9-1.64c-.02.2-.04.39-.08.59Zm.09-.86a11 11 0 0 0-4.07 1.7 5.24 5.24 0 0 0-1.72 1.93 1.52 1.52 0 0 1-.07-.13c.16-.5.77-1.58 2.3-2.5 1.31-.78 2.68-1.34 3.54-1.64.02.2.02.42.02.64Zm-.05-.91c-.88.3-2.29.87-3.64 1.68-1.32.8-2 1.7-2.3 2.33l-.01-.13.02-.07c.07-.34.42-1.94 5.81-4.39.05.17.09.36.12.58Z" fill="url(#aruprcycq)"/><defs><linearGradient id="aruprcycq" x1="51.77" y1="22.62" x2="47.26" y2="24.63" gradientUnits="userSpaceOnUse"><stop stop-color="#4F8E3B"/><stop offset="1" stop-color="#AED14E"/></linearGradient></defs></svg>