<?xml version='1.0' encoding='utf-8'?>
<!-- by TradeStack -->
<svg width="56" height="56" viewBox="0 0 56 56" xmlns="http://www.w3.org/2000/svg"><path fill="#F0F3FA" d="M0 0h56v56H0z" /><path d="M43.89 36H40.1v-.25c.64 0 .89-.19.89-1.05v-6.2c-1.48 0-1.67.29-1.8 1.57H39V28h6v2.07h-.2c-.13-1.28-.32-1.58-1.8-1.58v6.2c0 .87.25 1.06.89 1.06V36ZM33 35.91v-2.65h.2c.2 1.42 1.13 2.26 2.19 2.26.66 0 1.21-.32 1.21-1 0-1.81-3.58-1.31-3.58-4.16 0-1.61 1.2-2.36 2.37-2.36 1.08 0 1.52.59 1.86.59.18 0 .27-.11.3-.46h.19v2.3h-.2c-.23-1.22-1.02-1.95-2.05-1.95-.56 0-1 .31-1 .98 0 1.58 3.51 1.02 3.51 3.99 0 1.81-1.04 2.55-2.44 2.55-.8 0-1.76-.46-1.95-.46-.2 0-.36.18-.42.37H33ZM25 28h3.8v.24c-.64 0-.8.2-.8 1.04v4.62c0 1.17.45 1.57 1.09 1.57.76 0 1.46-.6 1.46-2.06v-4.13c0-.68-.12-1.01-.72-1.04V28H32v.24c-.64 0-1 .2-1 1.04v4.07c0 1.84-.94 2.65-2.5 2.65-1.5 0-2.5-.75-2.5-2.63v-4.09c0-.85-.36-1.04-1-1.04V28ZM25 36h-2.37l-1.43-3.5H21v2.2c0 .86.24 1.05.86 1.05V36H18v-.25c.62 0 1-.19 1-1.05v-5.4c0-.86-.38-1.05-1-1.05V28h3.65c1.68 0 2.35.74 2.35 2.2 0 1.08-.33 1.63-1.1 2.01l1.32 2.85c.21.46.35.67.78.7V36Zm-4-7.5V32c1 0 1.26-.38 1.26-1.74 0-1.4-.18-1.77-1.26-1.77ZM16.04 36h-4.08v-.25c.75 0 1.04-.19 1.04-1.05v-6.2c-1.73 0-1.95.29-2.1 1.57h-.23V28h6.66v2.07h-.23c-.16-1.28-.37-1.58-2.1-1.58v6.2c0 .87.3 1.06 1.04 1.06V36Z" fill="#201715" /><path d="M12 22.17c-4.91 1.31-8 3.21-8 5.33s3.09 4.02 8 5.33v-1.11c-4.52-1.16-7.34-2.8-7.34-4.62 0-1.82 2.82-3.46 7.34-4.62v-.3Zm32 9.55c4.52-1.16 7.34-2.8 7.34-4.62 0-1.82-2.82-3.46-7.34-4.62v-.3c4.91 1.3 8 3.2 8 5.32s-3.09 4.02-8 5.33v-1.11Z" fill="#201715" /><path d="M44.99 28a.22.22 0 0 0-.18-.14c.12-.15-.04-.23-.48-.24H42.8c-.08 0-.15-.04-.2-.13a10.92 10.92 0 0 1-1.2-2.15c-.02-.07-.1-.13-.22-.2l-1.13-.55c-.41-.21-.83-.3-1.26-.37-.72-.14-2.25-.97-2.6-1.66-.44-.86-.3-.9-1.22-1.46-.52-.31-.9-.13-1.33.06-.26.11-.44 0-.63-.17a.81.81 0 0 1-.16-.3c-.04-.11-.09-.35-.24-.39a.17.17 0 0 0-.13.03c-.13.09-.22.14-.27.15-.65.18-1.25.3-1.83.34a.09.09 0 0 0-.08.05 2.2 2.2 0 0 0-.06.2c-.09.29-.38.5-.66.61-.08.04-.13.01-.15-.07-.07-.3.03-.48.28-.56.03-.01.06-.03.07-.05a.14.14 0 0 0 .03-.09v-.03c0-.1-.04-.13-.14-.1l-.42.15a.97.97 0 0 1-.4.07c-.3-.03-.6 0-.85.1a.17.17 0 0 0-.1.22l.06.07c.13.1.23.22.24.4.02.2.12.52.04.71-.08.2-.2.39-.36.54-.16.16-.46.23-.73.3-.16.05-.27.04-.32-.02-.06-.08 0-.19.09-.2.41-.05.74-.26.98-.6a.6.6 0 0 0 .06-.62c-.03-.07-.13-.09-.18-.03-.2.2-.42.36-.67.5-.32.18-.43.44-.57.73-.02.03-.05.05-.08.04-.14-.02-.2-.1-.21-.25-.02-.2-.17-.27-.34-.32-.17-.05-.24.01-.21.17.06.42 0 .77-.17 1.06a.13.13 0 0 1-.07.06c-.13.03-.28.1-.46.2-.31.15-.59.15-.9.22a.23.23 0 0 0-.13.07.21.21 0 0 0-.05.14c0 .35.08.63-.4.7-.2.02-.42.02-.65-.02a.1.1 0 0 0-.07.02l-.08.04c-.04.02-.06.01-.06-.03-.04-.41-.2-.75-.47-1a.28.28 0 0 0-.3-.05c-.42.17-.8.4-1.16.69-.2.16-.29.3-.46.55a.08.08 0 0 1-.1.02c-.39-.25-.18-.79-.35-1.16a.77.77 0 0 0-.39-.37c-.14-.06-.32-.1-.54-.1-.1 0-.29 0-.55-.02a.76.76 0 0 1-.64-.37c-.04-.07-.1.05-.1.08l.02.07c.07.1.16.2.28.3.12.08.68 0 .67.16l-.01.03a.52.52 0 0 1-.23.18c-.84.34-1.37.54-1.6.6-.21.03-.34-.06-.38-.29a6.5 6.5 0 0 0-.19-.75c-.05-.17-.13-.21-.24-.12a.11.11 0 0 0-.03.04 69.72 69.72 0 0 1 .15 1.1c.04.33.28.26.53.22a.15.15 0 0 1 .12.04.14.14 0 0 1 .05.1c0 .21-.1.36-.3.46-.37.19-.81.34-1.19.56a.66.66 0 0 0-.23.24c-.1.16-.26.5-.5 1.03a.32.32 0 0 1-.12.14.33.33 0 0 1-.17.05h-3.33c-.13 0-.22-.14-.16-.26.09-.14.2-.3.34-.47.06-.06.1-.18.1-.24 0-.45 0-.72.16-1 .02-.04 0-.08-.05-.08-.52.07-1.08.09-1.66.05-.14 0-.24-.04-.31-.17-.14-.21-.23-.37-.28-.46a.19.19 0 0 1 .01-.21c.23-.29.46-.56.69-.82.13-.15.33-.3.6-.43l1.56-.75a.16.16 0 0 0 .09-.17l-.06-.34c0-.03.01-.05.04-.06.42-.1.74-.15.96-.19.08 0 .13-.06.13-.15 0-.03-.01-.06-.05-.07a1.84 1.84 0 0 0-1.21.14c-.18.08-.33.13-.48.14l.17-.23.73-.27c.43-.12.73-.42 1.1-.6.14-.06.25-.2.39-.27.17-.07.43.11.32.3l-.03.03-.23.12c-.18.1.1.2.2.16l.82-.28a.16.16 0 0 0 .11-.15v-.29c0-.09.05-.18.13-.23.2-.12.45-.22.73-.3l1.21-.42c.35-.12.77-.24 1.13-.14.14.03.24.14.3.32l-.01.07-.17.27c-.02.04 0 .06.02.08.05.02.1.02.17-.02.42-.25.72-.39 1.24-.35.37.03.8.04 1.27.03.11 0 .2-.03.3-.07.45-.24.68-.36 1.13-.44l1.98-.34c.45-.08.74-.1 1.18-.01.57.12 1.23.42 1.82.45l1.31.05c.27 0 .46.1.7.22.07.04.22.06.42.08l1.7.07c.1 0 .36.08.76.25.13.05.3.04.42-.04.32-.19.5-.29.55-.3.46-.2 1.16.06 1.63.14.26.06 1.02.12 1.24-.01.12-.07.25-.21.4-.25.24-.05.47-.05.7-.01a.2.2 0 0 1 .13.1c.08.19.03.28-.15.3h-.5c-.1.01-.1.02 0 .04.28.05.52.06.81-.05.08-.03.3-.08.67-.16.2-.05.41-.05.63-.01.36.07.78.1 1.25.1.02 0 .04-.02.04-.04v-.02a.92.92 0 0 1 0-.58c0-.03.02-.05.05-.05.32-.02.63-.02.94.02.36.04.57-.23.95-.14l1.48.35c.17.05.26.15.26.32v.77c0 .06-.04.11-.1.13-.44.15-.76.28-1.05.58-.17.18-.66.49-1.28.95-.04.04-.11.12-.2.25-.14.2-.34.33-.59.42a.18.18 0 0 0-.08.06.75.75 0 0 0-.17.41c-.01.14-.06.15-.15.05l-.2-.24a.13.13 0 0 0-.1-.05h-.77a.16.16 0 0 0-.16.14c-.04.23.2.34.4.45.2.1.47-.04.69.06l.08.07c.26.41.77.77 1.3.75.63-.01 1.68-.08 2.2.35.22.18.41.28.58.32.8.17 1.26.28 1.4.33.22.08.23.26.25.46.07.54.15 1.07.24 1.59a.1.1 0 0 1-.09.11l-.92.15Zm-4.14-7.36-.12.21c-.05.08 0 .18.09.2.3.05.57.16.81.34.13.1.27.1.44.03.02-.01.02-.03 0-.05-.12-.17-.3-.29-.42-.46-.08-.14-.22-.42-.37-.57-.29-.3-.65-.41-1.1-.34-.04 0-.06.03-.05.07 0 .06.04.11.11.15.1.05.27.1.5.17.12.03.17.15.11.25Zm-25.12.13-.37-.01c-.12 0-.2.08-.2.18-.02.1.02.15.12.14l.48-.05c.18-.01.34-.05.46-.1.29-.14.51-.32.66-.56.1-.15.07-.2-.1-.16a.59.59 0 0 0-.2.14c-.23.2-.55.45-.85.42Zm23.35-.33-.3.33c-.11.12-.09.2.07.24.3.08.58.25.85.52.06.06.15.05.2 0a.12.12 0 0 0 .03-.07c.01-.22-.04-.46.02-.7l.1-.31a.1.1 0 0 0-.09-.12l-.48-.04a.46.46 0 0 0-.4.15Zm-20.8 2.1c0 .04.01.07.03.1l.07.07c.13.06.35-.08.39-.2l.12-.4c.04-.12-.08-.24-.2-.21-.14.02-.35.02-.36.2l-.04.44Zm-3.63-.53c.23.13.3.29.24.48-.11.3-.38.04-.45-.12-.15-.32-.86-.17-1.17-.09-.25.07-.24.3-.5.36-.03 0-.03.01 0 .02.28.08.36.06.63.01.05 0 .1 0 .14.02.04.01.07.04.1.08.19.28.36.32.7.33.35.02.73.03 1.16.03.2 0 .44.06.6.08.1 0 .16-.03.19-.1a.13.13 0 0 0 0-.1.14.14 0 0 0-.06-.06 5.3 5.3 0 0 0-.7-.35 1.1 1.1 0 0 1-.3-.16 5.02 5.02 0 0 0-.52-.47c-.02-.02-.1.01-.06.04Zm1.38.26c-.06.04-.04.13.03.13h1.17c.06 0 .1-.07.06-.11l-.25-.32a.07.07 0 0 0-.06-.02c-.43.06-.6.1-.95.32Z" fill="#4F7CB6" /><path d="M40.22 19.35c-.14.04-.2.14-.2.27l-.05.09a.14.14 0 0 1-.1.03h-.86a.1.1 0 0 1-.1-.07 1.38 1.38 0 0 0-.33-.49.1.1 0 0 1-.02-.11.1.1 0 0 1 .1-.06l1.6.14a.1.1 0 0 1 .1.07.1.1 0 0 1-.03.1l-.11.03ZM26.47 25.09c.05.15.2.33.46.55a.2.2 0 0 1 .06.07v.09c0 .03-.01.05-.03.08a.24.24 0 0 1-.09.06l-.05.02c-.16.07-.29.05-.39-.07a1.6 1.6 0 0 1-.22-1.88h.02l.02-.01h.02c.05.03.08.07.08.14.03.47.07.79.12.95ZM25.6 25.73l-.03-.02c-.08-.02-.13 0-.14.06l-.11.47a.34.34 0 0 1-.07.14.25.25 0 0 1-.12.08c-.23.08-.46.2-.69.35-.2.13-.33.2-.42.19-.43-.02-.78-.6-1-1.09a.24.24 0 0 1-.01-.16.2.2 0 0 1 .03-.07.15.15 0 0 1 .05-.04c.25-.12.25-.36.42-.53.06-.06.14-.1.22-.11a.1.1 0 0 1 .06.01l.04.04.02.05a2.23 2.23 0 0 1-.19.79.24.24 0 0 0-.01.13c.01.14.13.58.27.68a.18.18 0 0 0 .2.02.23.23 0 0 0 .08-.07.32.32 0 0 0 .05-.11c.13-.52.24-.7.62-.95a17.43 17.43 0 0 0 .52-.33l.09.01c.03.01.06.03.08.06.03.03.05.06.06.1.08.2.18.34.33.4a.1.1 0 0 1 .04.05l.01.07-.03.52c-.01.13-.07.19-.17.18a.3.3 0 0 1-.16-.09c-.08-.07-.1-.16-.07-.28l.1-.34c.03-.07 0-.14-.07-.21ZM27.93 27.7c-.06-.21-.56-.38-.8-.47-.1-.03-.14-.1-.13-.18 0-.04.03-.05.06-.05.24.01.47.12.7.12.27 0 .5.1.71.27.15.13.31.18.47.28.06.04.07.08.05.13l-.01.01h-.76c-.02 0-.04.01-.05.03l-.17.15h-.07l-.01-.03c-.01-.1.03-.18.01-.25ZM28.8 29.26c.21.21.25.44.13.69-.24.5-.38.8-.41.89-.03.07-.11.13-.23.15a.32.32 0 0 1-.2-.02.18.18 0 0 1-.07-.05.1.1 0 0 1-.02-.06V29.1l.01-.03c.09-.08.22-.1.4-.03.18.05.3.13.4.22ZM24.8 29.26c.21.21.25.44.13.69-.24.5-.38.8-.41.89-.03.07-.11.13-.23.15a.32.32 0 0 1-.2-.02.18.18 0 0 1-.07-.05.1.1 0 0 1-.02-.06V29.1l.01-.03c.09-.08.22-.1.4-.03.18.05.3.13.4.22ZM13 29.6a.95.95 0 0 1-.51.72l-1.07.63a.32.32 0 0 1-.3.03.2.2 0 0 1-.07-.05.17.17 0 0 1-.04-.07v-.08c0-.03.01-.06.03-.08l1.53-1.67.03-.02c.13-.03.24.02.31.17.08.14.1.28.08.42Z" fill="#4F7CB6" /></svg>