<?xml version='1.0' encoding='utf-8'?>
<!-- by TradeStack -->
<svg width="56" height="56" viewBox="0 0 56 56" xmlns="http://www.w3.org/2000/svg"><path fill="#F0F3FA" d="M0 0h56v56H0z" /><path d="m31 29-.01 10-8.49-5 8.5-5Z" fill="#231F20" /><path d="M45 24.87 34 18v19l11-6.87v-5.26Z" fill="url(#a)" /><path d="m26 23 8-5v10l-8-5Z" fill="#2D598E" /><path d="M20.16 46 31 39l-15-9v13.43L20.16 46Z" fill="#5E5F5F" /><path d="M16 12.58V26l15-9.29L20.16 10 16 12.58Z" fill="#ED1C24" /><path d="m24 31-8-5.01L23.99 21 24 31Z" fill="#AA1E22" /><defs><linearGradient id="a" x1="45" y1="27.5" x2="34" y2="27.5" gradientUnits="userSpaceOnUse"><stop stop-color="#0056A7" /><stop offset="1" stop-color="#0071BB" /></linearGradient></defs></svg>