<!-- by TradeStack --><svg width="56" height="56" viewBox="0 0 56 56" xmlns="http://www.w3.org/2000/svg"><path fill="#F0F3FA" d="M0 0h56v56H0z"/><circle cx="30.5" cy="20.5" r=".5" fill="#FCBE11"/><circle cx="32.5" cy="19.5" r=".5" fill="#FCD762"/><circle cx="34.5" cy="18.5" r=".5" fill="#FCD762"/><path d="M5 31.6c0-4.67 16.18-9.01 24.27-10.6C16.78 24.2 11 27.8 11 30.17c0 2.38 4.33 4.36 15.94 4.36 9.28 0 20.58-1.69 25.06-2.53-4.65 1.33-17.2 4-30.25 4C5.44 36 5 32.7 5 31.6Z" fill="#F7C30F"/><path d="M11.05 26.38C7.5 27.97 5 29.76 5 31.6 5 32.71 5.44 36 21.75 36c10.91 0 21.48-1.87 27.36-3.26-5.64 1.02-17.4 2.9-25.9 2.9C12.3 35.65 6 33.88 6 31.2c0-1.57 2.59-3.46 5.05-4.8Z" fill="#ED8915"/><path d="M47.07 31c-.2 0-.41-.03-.62-.08a1.37 1.37 0 0 1-1.1-1.35c0-.18.03-.36.06-.52l.5-2.58H45l.28-1.47h.9l.64-1.8 2.3-.2-.4 2H50l-.28 1.47h-1.28l-.46 2.36v.14c0 .26.19.32.51.32a2.97 2.97 0 0 0 .7-.08l-.3 1.65c-.6.06-1.21.14-1.82.14Z" fill="url(#a)"/><path d="M42.4 25h2.24l-.26 1.6h-2.25l.27-1.6Zm-.34 2h2.3l-1.07 6H41l1.06-6Z" fill="url(#b)"/><path d="M39.37 25h2.29l-1.37 8H38l1.37-8Z" fill="url(#c)"/><path d="M32.38 25h2.13l-.13.9c.32-.59 1.25-.9 1.89-.9 1.2 0 1.73 1.12 1.73 2.17 0 1.66-1.06 3.83-2.99 3.83-.45 0-.96-.1-1.28-.44L33.31 33H31l1.38-8Zm2.15 4.67c.62 0 .87-.92.96-1.38.06-.28.1-.57.1-.88 0-.6-.18-.92-.49-.92-.59 0-.76.66-.84 1.13l-.2 1.11c-.08.42-.07.94.47.94Z" fill="url(#d)"/><path d="M27.9 31c-1.52 0-2.75-.76-2.9-2.34l2.13-.42c.05.67.58.95 1.2.95.39 0 .9-.1.9-.59 0-.4-.72-.5-1-.56-1.09-.22-2.23-.7-2.23-2 0-1.87 1.58-3.04 3.34-3.04 1.2 0 2.48.6 2.66 1.91l-1.97.61c-.1-.54-.52-.8-1.05-.8-.51 0-.98.24-.98.58 0 .53 1.27.6 1.6.65 1.1.17 2.06.8 2.06 2.01 0 2.01-2 3.04-3.77 3.04Z" fill="url(#e)"/><path d="M22.24 31c-.54 0-1.5-.27-1.69-.86l-.45.86H19l1.26-8h2.09l-.44 2.8c.3-.54.86-.8 1.47-.8 1.18 0 1.62 1.23 1.62 2.17 0 1.59-.87 3.83-2.76 3.83Zm-.37-1.43c.61 0 .82-1.02.89-1.47.04-.27.07-.56.07-.86 0-.54-.15-.86-.44-.86-.6 0-.73.9-.8 1.33-.07.48-.29 1.13-.1 1.6.07.17.2.26.38.26Z" fill="url(#f)"/><path d="M13.25 23h2.9c1.71 0 2.85 1.46 2.85 3.12 0 .64-.1 1.25-.3 1.84-.55 1.65-1.93 3.04-3.75 3.04H12l1.25-8Zm1.8 6c.88 0 1.33-.92 1.5-1.64.08-.35.12-.71.12-1.1 0-.6-.22-1.26-.95-1.26h-.54l-.67 4h.54Z" fill="url(#g)"/><path d="M8.84 25H7l.3-2H13l-.3 2h-1.72l-.92 6H7.92l.92-6Z" fill="url(#h)"/><defs><linearGradient id="a" x1="47.5" y1="23" x2="47.5" y2="31" gradientUnits="userSpaceOnUse"><stop offset=".51" stop-color="#4DA750"/><stop offset=".51" stop-color="#109135"/></linearGradient><linearGradient id="b" x1="42.5" y1="25" x2="42.5" y2="33" gradientUnits="userSpaceOnUse"><stop offset=".51" stop-color="#4DA750"/><stop offset=".51" stop-color="#109135"/></linearGradient><linearGradient id="c" x1="39.5" y1="25" x2="39.5" y2="33" gradientUnits="userSpaceOnUse"><stop offset=".51" stop-color="#4DA750"/><stop offset=".51" stop-color="#109135"/></linearGradient><linearGradient id="d" x1="34.5" y1="21.02" x2="34.5" y2="33" gradientUnits="userSpaceOnUse"><stop offset=".51" stop-color="#4DA750"/><stop offset=".51" stop-color="#109135"/></linearGradient><linearGradient id="e" x1="28.5" y1="23" x2="28.5" y2="31" gradientUnits="userSpaceOnUse"><stop offset=".51" stop-color="#4DA750"/><stop offset=".51" stop-color="#109135"/></linearGradient><linearGradient id="f" x1="22" y1="23" x2="22" y2="31" gradientUnits="userSpaceOnUse"><stop offset=".51" stop-color="#4DA750"/><stop offset=".51" stop-color="#109135"/></linearGradient><linearGradient id="g" x1="15.5" y1="23" x2="15.5" y2="31" gradientUnits="userSpaceOnUse"><stop offset=".51" stop-color="#4DA750"/><stop offset=".51" stop-color="#109135"/></linearGradient><linearGradient id="h" x1="10" y1="23" x2="10" y2="31" gradientUnits="userSpaceOnUse"><stop offset=".51" stop-color="#4DA750"/><stop offset=".51" stop-color="#109135"/></linearGradient></defs></svg>