<!-- by TradeStack --><svg width="56" height="56" viewBox="0 0 56 56" xmlns="http://www.w3.org/2000/svg"><path fill="#F0F3FA" d="M0 0h56v56H0z"/><path d="m33 26.18-.99.46c-.12-.27-.51-.64-1.19-.64-.84 0-1.38.49-1.38 1.05 0 .57.54.87 1.63 1.49 1.39.72 1.93 1.54 1.93 2.51 0 .98-.99 1.95-2.43 1.95-1.14 0-2.19-1.1-2.57-1.64l1.09-.3c.18.32.73.97 1.48.97.94 0 1.44-.52 1.44-.98 0-.46-.15-1.02-1.44-1.64-1.28-.62-2.17-1.54-2.17-2.36 0-.82 1.04-2.05 2.42-2.05 1.11 0 1.92.79 2.18 1.18Z" fill="#002F7B"/><path fill-rule="evenodd" d="M4.6 25H15a4 4 0 0 1 0 8h-3v-6.5H9V33H7v-6.5H4l.6-1.5Zm9.4 1a3 3 0 1 1 0 6v-6ZM37.5 33c1.93 0 3.5-1.8 3.5-4s-1.57-4-3.5-4-3.5 1.8-3.5 4 1.57 4 3.5 4Zm0-1c1.38 0 2.5-1.34 2.5-3s-1.12-3-2.5-3-2.5 1.34-2.5 3 1.12 3 2.5 3Z" fill="#002F7B"/><path d="M27 30.8a3.68 3.68 0 0 1-3.3 2.2c-2.04 0-3.7-1.8-3.7-4s1.66-4 3.7-4c1.44 0 2.69.9 3.3 2.2l-1.57.6c-.3-.92-.97-1.55-1.73-1.55-1.06 0-1.7 1.23-1.7 2.75s.64 2.75 1.7 2.75c.76 0 1.42-.63 1.73-1.56l1.57.61ZM52 25v1h-3v7h-1v-7h-5v2h4v1h-4v4h-1v-8h10Z" fill="#002F7B"/><circle cx="8" cy="22" r="2" fill="url(#afftg0xkh)"/><ellipse cx="13.5" cy="22" rx="2.5" ry="2" fill="url(#bfftg0xkh)"/><ellipse cx="5.5" cy="22" rx="1.5" ry="2" fill="url(#cfftg0xkh)"/><defs><linearGradient id="afftg0xkh" x1="10" y1="22" x2="6" y2="22" gradientUnits="userSpaceOnUse"><stop stop-color="#61B7D8"/><stop offset="1" stop-color="#FDF2E3"/></linearGradient><linearGradient id="bfftg0xkh" x1="16" y1="22" x2="11" y2="22" gradientUnits="userSpaceOnUse"><stop stop-color="#F18D01"/><stop offset="1" stop-color="#FDF2E3"/></linearGradient><linearGradient id="cfftg0xkh" x1="7" y1="22" x2="4" y2="22" gradientUnits="userSpaceOnUse"><stop stop-color="#A8A9A9"/><stop offset="1" stop-color="#FDF2E3"/></linearGradient></defs></svg>