<!-- by TradeStack --><svg xmlns="http://www.w3.org/2000/svg" width="56" height="56"><path fill="#F0F3FA" d="M0 0h56v56H0z"/><path d="M24.21 42a2.37 2.37 0 01-2.13-3.37l6.2-13.4a2.35 2.35 0 114.27 2l-6.2 13.4A2.34 2.34 0 0124.2 42z" fill="#1A6232"/><path d="M44.14 18.89C43.13 17.29 41.4 16 39.52 16h-8.3a2.54 2.54 0 00-2.42 2.5c0 1.31 1.12 2.5 2.43 2.5h8.55c4.98 0 4.3 4.04 4.3 4.04l.41-.87a5.52 5.52 0 00-.35-5.28z" fill="#0E4C85"/><path d="M39.82 21c.2.07.32.21.38.31.09.13.2.4.05.73l-7.7 16.6A2.37 2.37 0 0034.68 42c.89 0 1.73-.5 2.14-1.37l7.27-15.6S44.8 21 39.82 21z" fill="#153156"/><path d="M13.35 42a2.37 2.37 0 01-2.13-3.37l11.62-25.26a2.35 2.35 0 114.27 2L15.49 40.64A2.35 2.35 0 0113.35 42z" fill="#1A6232"/></svg>