<!-- by TradeStack --><svg width="56" height="56" viewBox="0 0 56 56" xmlns="http://www.w3.org/2000/svg"><path fill="#F0F3FA" d="M0 0h56v56H0z"/><path d="m22 23.9 5.82 5.79c.02.06.06.11.1.15.06.05.12.05.18.02l.09-.06a.7.7 0 0 0 .04.3.35.35 0 0 0-.14-.09c-.04 0-.08 0-.13.06L22 35.69c-.09.08-.16.07-.22-.04L10.1 12.3c-.17-.35-.12-.39.15-.11L22 23.89Z" fill="#4E4D4B"/><path d="M28.52 12.68c-.29-.1-.43.03-.43.4.02 5.42.02 10.84-.01 16.25 0 .25-.1.37-.26.36L22 23.89l5.95-11.82c.04-.08.1-.1.18-.04a1 1 0 0 1 .39.65Z" fill="#A29C9C"/><path d="m37.23 29.69-3.04-5.72-.03-.1 11.36-11.32c.52-.52.62-.46.29.2-1.18 2.38-3.54 7.08-7.07 14.11-.45.88-.86 1.78-1.24 2.69a.22.22 0 0 1-.17.13.3.3 0 0 1-.1 0Z" fill="#DDEDF7"/><path d="m28.52 12.68 5.64 11.19.03.1-6 5.83-.1.06a.14.14 0 0 1-.16-.02.36.36 0 0 1-.11-.15c.17 0 .25-.11.26-.36.03-5.41.03-10.83.01-16.25 0-.37.14-.5.43-.4Z" fill="#7C7C7A"/><path d="m34.2 23.97 3.03 5.72c.04.12.04.23 0 .3-.74 1.54-1.74 3.48-2.99 5.82l-6.15-5.83.14.12a.7.7 0 0 1-.04-.3l6-5.83Z" fill="#223464"/><path d="m34.24 35.81-5.78 11.07a.2.2 0 0 1-.13.1c-.21.06-.32-.05-.32-.34.08-5.45.1-11 .08-16.66l6.15 5.83Z" fill="#D8DAD2"/></svg>