<?xml version='1.0' encoding='utf-8'?>
<!-- by TradeStack -->
<svg width="56" height="56" viewBox="0 0 56 56" xmlns="http://www.w3.org/2000/svg"><path fill="#F0F3FA" d="M0 0h56v56H0z" /><path fill-rule="evenodd" d="M30.42 19.7c.6 0 1.08-.5 1.08-1.1 0-.6-.48-1.1-1.08-1.1-.4 0-.74.22-.93.54-.16.28-.38.57-.7.61-.23.03-.45-.07-.65-.2a1.09 1.09 0 0 0-1.64.94c0 .62.49 1.11 1.08 1.11.41 0 .77-.23.95-.57.14-.26.33-.52.6-.58.26-.06.51.06.73.2.17.1.36.15.56.15ZM20.5 19v6.52c0 .82.6 1.48 1.36 1.48h1.3c1.57 0 2.84-1.39 2.84-3.1v-.14c0-1.68-1.25-2.71-2.79-2.71-.27 0-.79.1-1.21.44V19h-1.5Zm1.5 5.98v-1.04c0-.8.56-1.44 1.25-1.44s1.25.64 1.25 1.44v.12c0 .8-.56 1.44-1.26 1.44h-.78c-.26 0-.46-.23-.46-.52Zm-12.5.53V22.5h-1V21h1v-2H11v2h2v1.5h-2v2.4c0 .34.24.6.59.6H13V27h-2a1.5 1.5 0 0 1-1.5-1.49ZM20 24a3 3 0 1 1-6 0 3 3 0 0 1 6 0Zm-1.5 0a1.5 1.5 0 1 1-3 0 1.5 1.5 0 0 1 3 0Zm10-3H27v6h1.5v-6Zm1 0H31v6h-1.5v-6Z" fill="#0C0C40" /><path fill-rule="evenodd" d="M13 28v8.32a.7.7 0 0 1-.69.68h-1.25C9.76 37 8 36.63 8 33.87c0-.94.45-2.82 2.3-2.82.35 0 1.1.2 1.7.87V28h1Zm-1 8v-3.13c-.27-.3-1-.87-1.7-.87-.87 0-1.3.75-1.3 1.98 0 1.24.83 2.02 1.59 2.02H12Zm2.9-5h-1.17l2.38 5.78-.01.04a4.1 4.1 0 0 1-.25.72c-.22.53-.86.5-1.15.46v1h.48c.8 0 1.45-.81 1.57-1.15L19.2 31h-1.1l-1.49 4.46L14.9 31Zm5.1 6v-5.34c0-.37.3-.66.67-.66h2.04c1.26 0 2.29 1 2.29 2.23V37h-1v-3.8c0-.73-.55-1.2-1.3-1.2H21v5h-1Zm6.15-5.33.48.96h.01c.36-.2 1.2-.63 2.07-.63 1.12 0 1.29.5 1.29 1.05v.92a3.39 3.39 0 0 0-1.92-.47c-1.29 0-2.08.72-2.08 1.82 0 .56.4 1.68 1.94 1.68h2.4c.36 0 .66-.29.66-.65v-3.72c0-.05 0-.1-.02-.16-.15-.53-.78-1.47-2.27-1.47-1.17 0-2.2.44-2.56.67ZM30 36v-1.1a4.3 4.3 0 0 0-1.8-.4c-1.05 0-1.2.6-1.2.74 0 .13.14.76 1.2.76H30Zm1.5-5 1.85 5.5c.1.3.36.5.66.5.3 0 .57-.2.66-.5L36.5 31h-1.09l-1.4 4.64L32.65 31H31.5Zm8 6c1.79 0 2.5-1.34 2.5-3s-.87-3-2.5-3-2.5 1.34-2.5 3 .71 3 2.5 3Zm0-1c1.07 0 1.5-.9 1.5-2s-.52-2-1.5-2-1.5.9-1.5 2 .43 2 1.5 2Zm7.4 1-1.4-2.1-1.35 2.1h-1.2l1.98-2.95L42.88 31h1.1l1.5 2.23L46.97 31H48l-1.97 3.06L48 37h-1.1Z" fill="#02A75A" /></svg>