<?xml version='1.0' encoding='utf-8'?>
<!-- by TradeStack -->
<svg width="56" height="56" viewBox="0 0 56 56" xmlns="http://www.w3.org/2000/svg"><path fill="url(#aczz45og0)" d="M0 0h56v56H0z" /><path d="M32.81 9.78c1.06.4 2.04 1.04 2.19 2.14v.03l-.02.03-.03.01a.1.1 0 0 1-.03.01h-13.7c-.03 0-.07 0-.1-.02a.22.22 0 0 1-.07-.06.19.19 0 0 1-.05-.08v-.08c.4-1.4 2.11-2.08 3.6-2.4a15.3 15.3 0 0 1 8.21.42Z" fill="#3DDB84" /><path d="M39 42.17c0 .75-.3 1.47-.85 2-.54.53-1.27.83-2.04.83H19.9c-.77 0-1.5-.3-2.04-.83a2.8 2.8 0 0 1-.85-2V15.83c0-.75.3-1.47.85-2a2.92 2.92 0 0 1 2.04-.83H36.1c.77 0 1.5.3 2.04.83.55.53.85 1.25.85 2v26.34Zm-2-26.33c0-.25-.02-.5-.2-.68-.18-.18-.43-.16-.7-.16H19.9c-.27 0-.51-.02-.7.16-.18.18-.2.43-.2.68v26.32c0 .26.02.5.2.68.19.18.43.16.7.16h16.2c.27 0 .52.02.7-.16.18-.18.2-.43.2-.68V15.84Z" fill="#fff" /><path d="M35 39.65c0 .36-.15.7-.42.95-.27.26-.64.4-1.02.4H22.44c-.38 0-.75-.14-1.02-.4-.27-.25-.42-.6-.42-.95v-21.3c0-.36.15-.7.42-.95.27-.26.64-.4 1.02-.4h11.12c.38 0 .75.14 1.02.4.27.25.42.6.42.95v21.3Zm-8.88-8.48-.98 6.7 1.25.2s4.48-8.68 5.12-9.85c.01-.03 0-.05-.04-.06l-2.12-.35-.02-.01-.03-.02v-.06l1.72-8.62c0-.03-.01-.05-.05-.06l-1.45-.18c-.04 0-.06 0-.08.04l-5.35 11.56a.03.03 0 0 0 .01.03h.01l1.97.62c.03 0 .05.03.04.06Z" fill="#3DDB84" /><defs><linearGradient id="aczz45og0" x1="10.42" y1="9.71" x2="68.15" y2="76.02" gradientUnits="userSpaceOnUse"><stop stop-color="#1A1E21" /><stop offset="1" stop-color="#06060A" /></linearGradient></defs></svg>