<!-- by TradeStack --><svg width="56" height="56" viewBox="0 0 56 56" xmlns="http://www.w3.org/2000/svg"><path fill="#F0F3FA" d="M0 0h56v56H0z"/><path d="M11.8 28a10.2 10.2 0 0 1 8.63-10.08 12.5 12.5 0 0 1 3.33-1.79 12 12 0 1 0 0 23.74 12.5 12.5 0 0 1-3.32-1.8A10.2 10.2 0 0 1 11.8 28Z" fill="#8C999F"/><path d="M30.16 19.2a9.6 9.6 0 0 0-1.67.94 10.2 10.2 0 0 1 0 15.72c.52.37 1.08.68 1.67.94a12 12 0 0 0 0-17.6Z" fill="#CBCFD1"/><path d="M17.8 28a10.2 10.2 0 0 1 8.64-10.08 12.5 12.5 0 0 1 3.32-1.79 12 12 0 1 0 0 23.74 12.5 12.5 0 0 1-3.32-1.8A10.2 10.2 0 0 1 17.8 28Z" fill="#166089"/><path d="M40 28a11.98 11.98 0 0 1-4.69 9.51c-1.1.15-2.23.11-3.32-.12a10.2 10.2 0 0 0 0-18.78 9.67 9.67 0 0 1 3.32-.12A11.96 11.96 0 0 1 40 28Z" fill="#73A0B8"/><path d="M34 16a12 12 0 1 0 0 24 12 12 0 0 0 0-24Zm0 22.2a10.2 10.2 0 1 1 0-20.4 10.2 10.2 0 0 1 0 20.4Z" fill="#4C1D4F"/></svg>