<!-- by TradeStack --><svg viewBox="0 0 56 56" xmlns="http://www.w3.org/2000/svg"><path fill="#F0F3FA" d="M0 0h56v56H0z"/><path d="M42.5 31c-.27 0-.5-.2-.5-.47v-5.06c0-.25.22-.47.5-.47.27 0 .5.2.5.47v5.06a.5.5 0 0 1-.5.47ZM13.5 31c-.27 0-.5-.2-.5-.47v-5.06c0-.25.22-.47.5-.47.27 0 .5.2.5.47v5.06c0 .26-.23.47-.5.47ZM8.55 25h-4.1c-.25 0-.45.21-.45.49 0 .26.2.51.44.51H6v4.51c0 .27.25.49.5.49.24 0 .5-.21.5-.49V26h1.56c.24 0 .44-.24.44-.51-.02-.27-.21-.49-.45-.49ZM26 31a2 2 0 1 1 0-4 2 2 0 0 1 0 4Zm0-3c-.5 0-1 .5-1 1s.5 1 1 1 1-.42 1-1c0-.58-.5-1-1-1ZM39.12 25h-1.7c-.23 0-.42.21-.42.49v5.02c0 .27.26.49.5.49.23 0 .5-.21.5-.49V29h1c1.1 0 2-.84 2-2.01S40.22 25 39.12 25ZM39 28h-1v-2h1c.64 0 1 .37 1 .99 0 .63-.37 1.01-1 1.01ZM21.14 31c-1.18 0-2.14-.9-2.14-2s.96-2 2.14-2c.72 0 1.38.33 1.78.89a.4.4 0 0 1-.11.55c-.2.12-.47.27-.6.1a1.32 1.32 0 0 0-1.07-.54c-.7 0-1.14.34-1.14 1 0 .66.43 1 1.14 1 .43 0 .83-.2 1.07-.53.13-.19.4-.03.6.1.2.12.25.37.12.55-.4.55-1.07.88-1.79.88ZM34.09 27c-.66 0-1.2.34-1.54.83A1.8 1.8 0 0 0 31 27c-.47 0-.67.22-1 .5 0-.21-.3-.5-.5-.5-.22 0-.5.25-.5.48v3.11c0 .22.28.41.5.41.22 0 .5-.18.5-.4v-1.4c0-.65.3-1.2 1-1.2.8 0 1 .47 1 1.09v1.5c0 .22.28.41.5.41.22 0 .5-.18.5-.4v-1.4c0-.65.3-1.2 1-1.2.8 0 1 .47 1 1.09v1.5c0 .22.28.41.5.41.22 0 .5-.18.5-.4v-1.51c-.02-1.23-.8-2.09-1.91-2.09ZM47.5 27c-.22 0-.5.18-.5.4v1.4c0 .66-.28 1.2-1 1.2-.83 0-1-.47-1-1.08V27.4c0-.22-.27-.41-.5-.41-.22 0-.5.18-.5.4v1.52c0 1.22.85 2.08 2 2.08.48 0 .5 0 1-.3 0 .21.29.3.5.3.22 0 .5-.07.5-.3v-3.3c0-.21-.28-.4-.5-.4ZM18.5 28.95a2 2 0 0 0-4 0c-.02.93.66 1.78 1.6 2 .7.16 1.44-.05 1.94-.55a.4.4 0 0 0 0-.56.4.4 0 0 0-.57 0c-.3.3-.76.43-1.2.32-.44-.1-.78-.42-.92-.82h2.79l.04-.02h.04l.04-.02c.02 0 .02-.02.03-.02l.03-.01.04-.03.03-.02.02-.03.03-.03.01-.04.02-.03v-.04l.01-.04.01-.04.01-.02Zm-3.13-.37.03-.07.01-.03c.2-.42.63-.68 1.09-.68a1.2 1.2 0 0 1 1.08.7l.04.08h-2.25ZM12.5 28.95a2 2 0 0 0-4 0c-.02.93.66 1.78 1.6 2 .69.16 1.43-.05 1.93-.55a.4.4 0 0 0 0-.56.4.4 0 0 0-.56 0c-.3.3-.76.43-1.2.32-.43-.1-.77-.4-.9-.81h2.78l.04-.02h.04l.04-.02.03-.02.03-.01.03-.03.04-.02.02-.03.02-.04.02-.03.02-.03v-.04l.01-.04.01-.04v-.03Zm-3.13-.37.03-.07.01-.03c.2-.42.63-.68 1.08-.68h.01a1.2 1.2 0 0 1 1.08.7l.03.08H9.37ZM50.47 31c-.4 0-.82-.05-1.16-.23-.29-.14-.4-.55-.24-.82.1-.18.27-.25.46-.17.38.16.67.22.95.22.34 0 .52-.06.52-.23 0-.15-.15-.23-.33-.26l-.75-.14a1.12 1.12 0 0 1-.92-1.14c0-.85.8-1.23 1.6-1.23a2 2 0 0 1 1.03.23c.2.1.27.29.26.49-.01.09-.04.25-.1.33-.08.16-.25.23-.46.14-.3-.13-.52-.19-.72-.19-.37 0-.61.05-.61.23 0 .13.18.22.35.26l.75.14c.58.1.9.45.9 1.05 0 .87-.72 1.32-1.53 1.32Z" fill="#1E0A46"/></svg>