<?xml version='1.0' encoding='utf-8'?>
<!-- by TradeStack -->
<svg width="56" height="56" viewBox="0 0 56 56" xmlns="http://www.w3.org/2000/svg"><path fill="#F0F3FA" d="M0 0h56v56H0z" /><path d="M14.99 38.89a.9.9 0 0 0 1.4.04c.33-.38.36-1 .03-1.39A15 15 0 1 1 42.7 25.02c.15.72.49 1.39 1.04 1.87l.43.38c.32.29.83.23.83-.37A17.05 17.05 0 0 0 28 11a16.98 16.98 0 0 0-13.01 27.89ZM25.25 29 37 16 19 29h6.25Zm-6.67 10.55L36 26h-6.25l-11.6 13.83-.1.07c-.14.12-.27.23-.59.58-.27.3.02.85.34 1.09A18.41 18.41 0 0 0 28.23 45c6.9 0 16.04-5.84 16.04-13.43 0-3.06-2.4-4.32-5.17-4.57-.83 0-2.1.65-2.1 1.34 0 .4.4.66 1.5.66 1.9 0 3.5.34 3.5 2.57C42 38.35 34.31 43 28.23 43c-4.22 0-7.08-1.82-9.06-3.08l-.59-.37Z" fill="red" /></svg>