<!-- by TradeStack --><svg viewBox="0 0 56 56" xmlns="http://www.w3.org/2000/svg"><path fill="#36515A" d="M0 0h56v56H0z"/><path d="M30 43c6-1.03 9-6.6 9-10.84 0-1.43-.3-2.8-.79-4.15H30V43Zm-4 0c-6-1.03-9-6.6-9-10.84 0-1.43.3-2.8.79-4.15H26V43Zm-6.17-18.99h16.34c-.87-1.4-1.87-2.77-2.88-4.15-2.06-2.83-4.15-5.7-5.29-8.86-1.14 3.16-3.23 6.03-5.29 8.86-1 1.38-2 2.76-2.88 4.15Z" fill="url(#alukw2k3m)"/><defs><linearGradient id="alukw2k3m" x1="28" y1="11" x2="28" y2="43" gradientUnits="userSpaceOnUse"><stop stop-color="#0D9D46"/><stop offset="1" stop-color="#B5CD21"/></linearGradient></defs></svg>