<!-- by TradeStack --><svg width="56" height="56" viewBox="0 0 56 56" xmlns="http://www.w3.org/2000/svg"><path fill="#F0F3FA" d="M0 0h56v56H0z"/><path d="M28.55 24.52 25.47 18 16 38h2.31l7.19-15 1.85 3.86 1.2-2.34Zm-8.47 2.7L17.6 22 10 38h2.23l5.27-11 1.3 2.7 1.28-2.48Z" fill="#183253"/><path fill-rule="evenodd" d="M34.53 14 46 38h-2.4l-4.46-9.32c-.63.19-1.55.32-2.83.32-3.33 0-5.01-1.5-5.49-2.32L25.4 38h-2.33l11.46-24Zm-3.69 12.64L34.5 19l3.73 7.8c-.97.28-2.55.65-3.94.65a7.29 7.29 0 0 1-3.45-.81Z" fill="#183253"/></svg>