<!-- by TradeStack --><svg width="56" height="56" viewBox="0 0 56 56" xmlns="http://www.w3.org/2000/svg"><path fill="#F0F3FA" d="M0 0h56v56H0z"/><path d="M28 11 13 36.53V19.21L28 11Z" fill="#98C21E"/><path d="M28 45 13 19.47v17.31L28 45Z" fill="#C1D100"/><path d="M13 19.47 18.01 28 13 36.53V19.47Z" fill="#4C9D35"/><path d="m28 45 15-25.53v17.31L28 45Z" fill="#98C21E"/><path d="m28 11 15 25.53V19.21L28 11Z" fill="#C1D100"/><path d="M43 36.53 37.99 28 43 19.47v17.06Z" fill="#4C9D35"/><path fill-rule="evenodd" d="M27.45 36c.2-.45.6-1.66.6-2.94 0-.62-.43-1.1-.98-1.7A6.58 6.58 0 0 1 25 26.43c0-3.43 3.37-5.71 5.06-6.43a4.25 4.25 0 0 0-1.6 3.32c0 .93.46 1.67.99 2.52A8.37 8.37 0 0 1 31 30.67 5.73 5.73 0 0 1 27.45 36Zm.76-1a8 8 0 0 0 .58-3.2 4 4 0 0 0-.88-2.4c-.38-.57-.74-1.1-.74-1.86 0-1.3.36-1.74.54-1.8.03.33.27 1.22.94 2.1.85 1.12 1.3 1.73 1.3 3.31 0 1.27-1.16 3.1-1.74 3.85Z" fill="#004E70"/></svg>