<!-- by TradeStack --><svg width="56" height="56" viewBox="0 0 56 56" xmlns="http://www.w3.org/2000/svg"><path fill="#F0F3FA" d="M0 0h56v56H0z"/><path d="M17.93 28.43a4.12 4.12 0 0 0-1.6-1.84 4.19 4.19 0 0 0-6.31 3.01 4.7 4.7 0 0 0 .2 1.8 3.8 3.8 0 0 0 1.97 2.27c.53.25 1.02.33 1.8.33a5.1 5.1 0 0 0 3.24-1.23.93.93 0 0 0 0-1.34.99.99 0 0 0-1.37 0c-.28.28-1.03.57-1.86.57-1 0-2-.69-2-2s1-2 2-2c.66 0 1.29.43 1.4.56l-2.26 1.05a.94.94 0 0 0-.44 1.27c.24.47.82.67 1.3.43l3.46-1.67a.94.94 0 0 0 .47-1.2Zm7.98-1.1a.94.94 0 0 0-1.7-.78L22.25 31l-2.49-4.5a.94.94 0 1 0-1.66.89l3.3 6.12a.94.94 0 0 0 1.68-.06l2.82-6.11Zm1.82-.77A4.16 4.16 0 0 1 30 26c1 0 2.55.64 3.2 1.52.6.84.8 1.75.8 2.48v3c0 .5-.5 1-1 1s-1-.5-1-1v-3a2 2 0 1 0-4 0c0 1.4 1.26 2 2 2s1.5 0 1.5 1-1.01 1-1.5 1c-1.64 0-2.7-.9-3.3-1.75A3.97 3.97 0 0 1 26 30c0-.27 0-1.17.5-2.11.25-.5.64-.98 1.23-1.33ZM36 26c.5 0 1 .5 1 .72 0-.22 1-.72 2-.72s2.02.3 2.76.78A2.52 2.52 0 0 1 43 29.15a95.77 95.77 0 0 1 0 1.32c-.01.8-.02 1.69 0 2.53a1 1 0 0 1-1 1c-.69.02-.99-.6-1-1v-3c.02-1.55-.78-2-2-2-1 0-2 .81-2 2v3c0 .4-.23 1-1 1s-1-.6-1-1v-6.28c0-.22.5-.72 1-.72Z" fill="#2574BA"/><path fill-rule="evenodd" d="M48 34a4 4 0 1 0 0-8 4 4 0 0 0 0 8Zm0-2a2 2 0 1 0 0-4 2 2 0 0 0 0 4Z" fill="#2574BA"/><path d="M5 22c.47 0 1 .33 1 .74H4c0-.4.53-.74 1-.74Zm1 4v-3.26H4V30c0 2 1.5 4 4 4 .47 0 1-.4 1-1s-.53-1-1-1c-.94 0-2-1-2-2v-2h2c.47 0 1-.5 1-1 0-.55-.53-1-1-1H6Z" fill="#2574BA"/></svg>