<?xml version='1.0' encoding='utf-8'?>
<!-- by TradeStack -->
<svg width="56" height="56" viewBox="0 0 56 56" xmlns="http://www.w3.org/2000/svg"><path fill="#F0F3FA" d="M0 0h56v56H0z" /><path d="m48 22-4 7.82V34h-2v-4.18L38 22h2.5l2.52 5.48L45.5 22H48ZM33.52 34l-2.36-4.5H30V34h-2V22h4.02c2.16 0 3.86 1.45 3.86 3.68 0 1.59-.89 3.17-2.44 3.63L36 34h-2.48ZM30 27.5h1.94c1.1 0 1.73-.69 1.73-1.77 0-1.11-.58-1.73-1.73-1.73H30v3.5ZM26 22v2h-6v3h5v2h-5v5h-2V22h8ZM16 22v1.94h-3V34h-2V23.94H8V22h8Z" /></svg>