<!-- by TradeStack --><svg width="56" height="56" viewBox="0 0 56 56" xmlns="http://www.w3.org/2000/svg"><path fill="#F0F3FA" d="M0 0h56v56H0z"/><path d="M4 31v-6h4v1H5v1.5h3v1H5V31H4ZM10 25v6H9v-6h1ZM14.96 27c-.2-.63-.8-1-1.46-1-1.13 0-1.5.99-1.5 2 0 1.03.35 2 1.5 2 .83 0 1.57-.5 1.57-1.35l.24.35H14v-1h2.1v.56c0 1.45-1.09 2.44-2.51 2.44-1.71 0-2.59-1.37-2.59-3 0-1.6.86-3 2.56-3 1.17 0 2.3.78 2.5 2h-1.1ZM17 31v-6h1v2.5h3V25h1v6h-1v-2.5h-3V31h-1ZM23 26v-1h5v1h-2v5h-1v-5h-2ZM30.02 31v-.74L33.14 26H30v-1h4.51v.74L31.4 30h3.14v1h-4.51ZM41 28c0 1.65-1.29 3-3 3s-3-1.35-3-3 1.29-3 3-3c1.7 0 3 1.35 3 3Zm-1 0c0-1.04-.85-2-2-2s-2 .75-2 2a2 2 0 0 0 2 2c1.15 0 2-.96 2-2ZM47 25v6h-1l-3-4.06V31h-1v-6h1l3 4.06V25h1ZM48 31v-6h4v1h-3v1.5h3v1h-3V30h3v1h-4Z"/></svg>