<!-- by TradeStack --><svg xmlns="http://www.w3.org/2000/svg" width="56" height="56"><path fill="#F0F3FA" d="M0 0h56v56H0z"/><path d="M12 20.47c0-2.34 1.73-3.19 2.56-3.19 1.42 0 2.47 1.12 2.59 1.53a6.33 6.33 0 00-1.37-.14c-1.55.1-1.8 1.26-1.78 1.8v11.38c0 1.77-1.62 2.84-2.98 2.77-1.27-.08-2.12-1.14-2.38-1.67.42.25.94.17 1.24.15 1.5-.15 2.12-1.02 2.12-1.57V20.47z" fill="url(#agtvme10p)"/><path d="M20 20.22c0-2.48-3.13-3.45-4.75-3.17 2.25.57 2.78 2.36 2.75 3.17v3.26c-.03 1.48-1.16 1.52-1.75 1.52h-6.7A3.43 3.43 0 006 28.36v3.5c.13 2.4 2.63 3.12 3.6 3.14H11c-2.3-.5-3.03-2.33-3-3.15V29c0-1.34 1.52-2 2.08-2h6.41A3.66 3.66 0 0020 23.48v-3.26z" fill="#B4290D"/><path d="M22.8 25h-2.78c-.34 1.01-1.49 1.75-2.02 2h4.26c1.56-.05 1.76.88 1.74 1.44v3.2c0 1.22-.71 1.36-1.35 1.36H20.7c.36.85 1.96 1.78 2.48 1.84 2.23-.35 2.82-1.6 2.82-2.54v-3.86A3.32 3.32 0 0022.8 25z" fill="url(#bgtvme10p)"/><path d="M18 31.72V27h2v4.72c.05 2.07 1.84 3.04 2.79 3.27-3.8.21-4.79-2.09-4.79-3.27zM38.77 23c1.71.05 2.87.7 3.23 1-.06.06-.14.2-.25.36-.18.29-.4.64-.59.75-.35.2-.84.2-1.28.07-.34-.1-.88-.16-1.11-.18-2.42.02-2.8 1.61-2.77 2.45v3.22c.28 3 3.47 2.3 3.76 2.22.23-.08.5-.11.6-.12.73.04 1.31.86 1.57 1.21l.07.1c-.82.7-2.5.9-3.23.92-3.78.02-4.76-2.64-4.77-3.96v-3.6c.15-3.58 2.63-4.5 4.77-4.44zM27 23a2 2 0 00-2 2h4v10a2 2 0 002-2v-8h1.43c1.33 0 2.54-.78 3.07-2H27zm23 1a5.58 5.58 0 00-3.23-1c-2.14-.06-4.62.86-4.77 4.45v3.59c.01 1.32.99 3.98 4.77 3.96.73-.01 2.4-.22 3.23-.92l-.07-.1c-.26-.35-.84-1.17-1.57-1.21-.1 0-.37.04-.6.12-.3.09-3.48.79-3.76-2.22v-3.22c-.02-.84.35-2.43 2.77-2.45.23.02.77.08 1.11.18.44.12.93.12 1.28-.07.19-.1.41-.46.6-.75.1-.16.18-.3.24-.36z" fill="#B4290D"/><defs><linearGradient id="agtvme10p" x1="12.53" y1="17.28" x2="12.53" y2="34.69" gradientUnits="userSpaceOnUse"><stop stop-color="#7E7E7E"/><stop offset="1" stop-color="#C5C6C6"/></linearGradient><linearGradient id="bgtvme10p" x1="22" y1="25.24" x2="22" y2="34.84" gradientUnits="userSpaceOnUse"><stop stop-color="#7E7E7E"/><stop offset=".88" stop-color="#C5C6C6"/></linearGradient></defs></svg>