<!-- by TradeStack --><svg width="56" height="56" viewBox="0 0 56 56" xmlns="http://www.w3.org/2000/svg"><path fill="#F0F3FA" d="M0 0h56v56H0z"/><path d="m36.24 20.91-6.38 5.92c-.39.23-.79.23-1.2-.02-.3-.18-.88-.72-1.72-1.6a259.3 259.3 0 0 1-4.44-4.28c-1.2-1.18-.08-2.64 1.51-2.06a160.05 160.05 0 0 0 3.72 1.3c.93.35 1.61.61 2.46-.05l4.73-3.17 6.62-4.43c.9-.6 1.7-.85 2.32.2.23.4.18.77-.16 1.1a210.75 210.75 0 0 1-7.46 7.1Z" fill="url(#a)"/><path d="M20.21 21.81c-2.1-2.14-4.18-4.28-6.25-6.42-.63-.66-1.65-.45-1.93.35-.09.25.01.6.3 1.02 1.1 1.64 2.22 3.23 3.38 4.8 1.2 1.73 3.27 3.75 3.73 5.86-.5 1.26-.98 2.53-1.43 3.82-.18.48-.22.84-.14 1.07.26.75 1.18.92 1.78.34 1.4-1.33 2.81-2.71 4.27-4.13.3-.26.59-.56.85-.92.41-.57.22-.91-.2-1.36a32.1 32.1 0 0 0-1.95-1.95l-2.4-2.48Z" fill="url(#b)"/><path d="m35.32 29.5.67-1.8c.32-.88.14-1.6-.88-1.7a.85.85 0 0 0-.67.24l-3.36 3.28-1.64 1.53c-.61.55-.59 1.15.07 1.78l4.68 4.74 5.98 6.08c.43.44.9.47 1.4.09l.03-.03c.47-.42.52-.87.18-1.36l-6.85-9.72c-.33-.43-.44-.79-.33-1.07.26-.67.5-1.36.72-2.06Z" fill="url(#c)"/><path d="m19.06 40.6 5.4-4.03c1.52-.07 3.02.53 4.81 1.35.43.19.77.24 1.04.15.74-.25.9-1.12.39-1.69-.39-.42-2-2.08-4.83-4.97a1.25 1.25 0 0 0-.63-.4.88.88 0 0 0-.77.22l-6.51 6.37A160.27 160.27 0 0 0 13.5 42c-.52.54-.75 1.05-.17 1.63.45.45.93.49 1.44.12l4.28-3.15Z" fill="url(#d)"/><defs><linearGradient id="a" x1="42.73" y1="13.68" x2="27.38" y2="25.83" gradientUnits="userSpaceOnUse"><stop stop-color="#EE2823"/><stop offset="1" stop-color="#FBA818"/></linearGradient><linearGradient id="b" x1="14.93" y1="17.9" x2="21.86" y2="27.69" gradientUnits="userSpaceOnUse"><stop stop-color="#EE2823"/><stop offset="1" stop-color="#FBA818"/></linearGradient><linearGradient id="c" x1="41.86" y1="43.54" x2="31.92" y2="30.39" gradientUnits="userSpaceOnUse"><stop stop-color="#EE2823"/><stop offset="1" stop-color="#FBA818"/></linearGradient><linearGradient id="d" x1="16.44" y1="42.55" x2="26.59" y2="34.45" gradientUnits="userSpaceOnUse"><stop stop-color="#EE2823"/><stop offset="1" stop-color="#FBA818"/></linearGradient></defs></svg>