<?xml version='1.0' encoding='utf-8'?>
<!-- by TradeStack -->
<svg width="56" height="56" viewBox="0 0 56 56" xmlns="http://www.w3.org/2000/svg"><path fill="#F0F3FA" d="M0 0h56v56H0z" /><path fill-rule="evenodd" d="M13 37.32V19.77L28 11l15 8.77v16.46L28 45l-15-7.68ZM40 32v-7h1v7h-1Zm-3.04-6.06V32h1.1v-6.06H39V25h-3v.94h.96ZM32 32l1.34-7h1.32L36 32h-1.14l-.26-1.62h-1.17L33.15 32H32Zm1.55-2.43h.91l-.45-2.94-.46 2.94ZM29 25v7h1v-3.11h.54c.3 0 .55-.06.77-.2.22-.12.39-.32.5-.6.13-.28.19-.65.19-1.1 0-.42-.05-.78-.15-1.07-.1-.3-.24-.53-.45-.69-.2-.15-.47-.23-.8-.23H29Zm1.38 2.99H30v-2.1h.38c.2 0 .35.05.45.12.1.08.16.2.19.36a3.2 3.2 0 0 1-.02 1.2.52.52 0 0 1-.2.33c-.1.06-.24.09-.42.09ZM26.5 32c-.4 0-.7-.1-.92-.28a1.47 1.47 0 0 1-.45-.8 5.4 5.4 0 0 1-.13-1.25V25h.95v4.82c0 .21 0 .42.03.61.02.19.07.34.15.46.08.12.2.17.37.17.17 0 .3-.05.37-.17.08-.12.13-.27.15-.46.03-.2.04-.4.04-.61V25H28v4.67c0 .49-.04.9-.13 1.25-.08.34-.23.61-.45.8-.21.19-.52.28-.92.28ZM21 25v7h.96v-3.2h.44l.64 3.2H24l-.73-3.45c.16-.08.29-.2.38-.36.1-.16.16-.36.2-.58.04-.22.06-.48.06-.76 0-.47-.07-.84-.2-1.1a1.1 1.1 0 0 0-.55-.58 2.08 2.08 0 0 0-.9-.17H21Zm1.26 2.99h-.3v-2.12h.35c.27 0 .46.1.55.27.1.17.15.44.15.79 0 .24-.02.45-.07.61a.61.61 0 0 1-.24.35c-.1.07-.25.1-.44.1ZM19 32v-7h1v7h-1Zm-3.04-6.06V32h1.1v-6.06H18V25h-3v.94h.96Z" /><path d="m29.49 14.7-2.24-1.34v-1.92l-.5.3v1.62l-2.23 1.34-1.2-.96-.46.27 1.39 1.11v2.71l-2.23.9-2.27-1.37v-1.53l-.5.29v1.24l-2.27 1.36-1.3-.52-.54.32 1.61.65v2.69l-2.27 1.36-1.48-.59v.54l1.25.5v2.71l-1.25 1v.64l1.52-1.22 1.44.87v-.59l-1.21-.72v-2.72L17 22.3l2.25 1.35V25h.5v-1.36L22 22.3l2.25 1.35v2.72l-.35.2a4.42 4.42 0 0 1 0 .6l.6-.37.5.3v-.58l-.25-.15v-2.72L27 22.3l2.25 1.35V25h.5v-1.36L32 22.3l2.25 1.35V25h.4l.1.5v-1.86L37 22.3l2.25 1.35v2.72l-1.2.71v.59l1.45-.87.5.3v-.58l-.25-.15v-2.72L42 22.3l1 .6v-.58l-.75-.45v-2.52l-.5-.3v2.82L39.5 23.2l-2.25-1.35v-2.71l2.36-1.36-.5-.29-2.13 1.22-2.23-.89v-2.88l-.5-.3v3.2L32 19.22l-2.25-1.35v-2.73l2.39-1.7-.47-.29-2.18 1.56ZM17.06 27.67v3.62l2.19.88v2.69L17 36.2l-2.25-1.35v-2.7l1.2-.47v-.54l-1.45.58-1.5-.6v.54l1.25.5v2.69L13 35.6v.58l1.5-.9 2.25 1.35v2.6l.5.26v-2.86l2.25-1.35 2.25 1.35v2.7l-2.62 1.12.58.3 2.27-.98 2.27 1.36v1.94l.5.26v-2.2L27 39.8l2.25 1.35v2.7l-1.77.9.52.26 1.75-1.02v-2.84L32 39.8l2.25 1.35v.2l3.26-1.9-.26-.1v-2.7l2.27-1.36 2.2.88v.81l.5-.29v-.5l.78-.31v-.54l-1 .4-2.25-.9v-2.66l.42-.17H40v-.47l-.5.2-1.44-.58v.54l1.19.48v2.69L37 36.2l-2.25-1.35v-2.7l.42-.16h-.3l-.07-.39-.3.12-1.22-.49-.08.5 1.05.43v2.69L32 36.2l-2.25-1.35v-2.7l2.25-.9.13.06.12-.62v-2.53l.53-.21.1-.58-.86.34-.08-.05a2.03 2.03 0 0 1-.19.56v2.6l-1.75.7V32h-1v-.47l-1.17-.47c-.05.18-.13.33-.22.45l1.64.66v2.69L27 36.2l-2.25-1.35v-2.7l.93-.36a1.25 1.25 0 0 1-.37-.4l-.81.33-.6-.24.1.51h-.17l.42.17v2.69L22 36.2l-2.25-1.35v-2.7l1.25-.5v-.53l-1 .4V32h-1v-.47l-1.75-.7v-2.69L19 27.1v-.58l-1.94 1.16Zm3.94.02-1-.6v-.58l1 .6v.58Zm1.78.14a.66.66 0 0 0 .16-.29c.04-.12.06-.27.07-.44l-1.01.6-.04-.01v.3h.3a1 1 0 0 0 .32-.05l.2-.11Zm-.53.96h-.29v2.5l.04-.02.97.39-.12-.59-.6-.24V28.8ZM29 27.1l-1 .6v-.58l1-.6v.58Zm-2 .62.06-.04v2.15c0 .21-.01.42-.04.61-.02.19-.07.34-.15.46-.08.12-.2.17-.37.17a.5.5 0 0 1-.22-.04l.47-.19v-2.69l-.8-.48v-.58l1.05.63Zm3-1.2v.58l.97.58a2 2 0 0 0 .09-.53L30 26.51Zm6.96 4.78-1.02.4-.1-.5.91-.36v-2.66l-1.6-.64-.12-.59 1.93.77v3.58Zm-2.9-4.38.07.5-.26.11.09-.57.1-.04ZM42 31.27l-1 .4v-.54l.75-.3v-2.69L41 27.7v-.58l1.02.61.98-.39v.54l-.75.3v2.66l.75.3v.54l-1-.4ZM24.75 17.83v-2.69L27 13.8l2.25 1.35v2.7l-2.25.9-2.25-.9Zm7.5 1.81 2.27-1.36 2.23.89v2.69L34.5 23.2l-2.25-1.35v-2.22ZM34.5 35.3l2.25 1.35v2.72L34.5 40.7l-2.25-1.35v-2.72l2.25-1.35Zm-2.75 1.35v2.72L29.5 40.7l-2.25-1.35v-2.72l2.25-1.35 2.25 1.35Zm-5 0v2.72L24.5 40.7l-2.25-1.35v-2.72l2.25-1.35 2.25 1.35ZM19.5 23.21l-2.25-1.35v-2.72l2.25-1.35 2.25 1.35v2.72L19.5 23.2Zm2.75-1.35v-2.7l2.25-.9 2.25.9v2.7L24.5 23.2l-2.25-1.35Zm5 0v-2.7l2.23-.88 2.27 1.36v2.22L29.5 23.2l-2.25-1.35Z" fill="#8E8F8E" /></svg>