<!-- by TradeStack --><svg width="56" height="56" viewBox="0 0 56 56" xmlns="http://www.w3.org/2000/svg"><path fill="#F0F3FA" d="M0 0h56v56H0z"/><path d="M8.4 22h.4s.39.01.4.62v2.46h-.8V22Z" fill="#0E88CA"/><path d="m8.4 24.71 2.27-1.31s.79-.48 1.07-.1c.21.28.26.42.26.42l-2.9 1.7s-.7.33-.7-.08v-.63Z" fill="#29B3DF"/><path d="m4.51 23.98-.23.4s-.26.45.28.77l2.2 1.22.51-.85-2.76-1.54Z" fill="#5E6D70"/><path d="m6.95 25.34-2.3 1.2s-.82.43-.62.85c.14.31.25.43.25.43l2.97-1.59s.63-.37.26-.58l-.56-.31Z" fill="#9DB9BE"/><path d="M8 30h-.27s-.52-.01-.53-.62v-2.46H8V30Z" fill="#5EB34F"/><path d="M8 27.29 5.83 28.6s-.76.48-1.04.1c-.2-.28-.25-.42-.25-.42l2.83-1.7s.63-.33.63.08v.63Z" fill="#A5C64A"/><path d="M8 22h-.27s-.52.01-.53.62v2.46H8V22Z" fill="#EB5B28"/><path d="M8 24.71 5.83 23.4s-.76-.48-1.04-.1c-.2.28-.25.42-.25.42l2.83 1.7s.63.33.63-.08v-.63Z" fill="#F9B03B"/><path d="M12.5 26v.8H11V31h-1v-4.19H8.5V26h4ZM15.41 31l-1.03-2H14v2h-1v-5h1.76c.9 0 1.69.57 1.69 1.53 0 .68-.41 1.26-1.07 1.44L16.5 31h-1.09ZM14 28.3h.72c.52 0 .76-.28.76-.75 0-.46-.25-.72-.76-.72H14v1.47Z"/><path fill-rule="evenodd" d="m35.38 29 1.03 2h1.09l-1.12-2.03.2-.07c.54-.23.87-.76.87-1.37 0-.96-.78-1.53-1.7-1.53H34v5h1v-2h.38Zm-.58 1.8v-2h.7l1.04 2h.62l-1.08-1.95.25-.07c.56-.16.92-.65.92-1.25 0-.42-.17-.75-.44-.97a1.62 1.62 0 0 0-1.05-.36H34.2v4.6h.6Zm0-2.3v-1.87h.92c.29 0 .54.07.71.25.18.17.25.4.25.67s-.07.51-.24.69a.96.96 0 0 1-.72.26h-.92Zm.92-.2c.52 0 .76-.28.76-.75 0-.46-.25-.72-.76-.72H35v1.47h.72Z"/><path d="M19.5 31c-1.4 0-2.5-1.1-2.5-2.5s1.12-2.5 2.5-2.5c1.4 0 2.5 1.1 2.5 2.5 0 1.39-1.1 2.5-2.5 2.5Zm0-.87c.93 0 1.5-.75 1.5-1.63 0-.89-.58-1.62-1.5-1.62s-1.5.73-1.5 1.62c0 .89.58 1.63 1.5 1.63Z"/><path fill-rule="evenodd" d="M38.2 28.5c0 1.28 1.02 2.3 2.3 2.3 1.29 0 2.3-1.02 2.3-2.3 0-1.28-1.02-2.3-2.3-2.3a2.29 2.29 0 0 0-2.3 2.3Zm4 0c0 .96-.64 1.83-1.7 1.83s-1.7-.86-1.7-1.83c0-.97.65-1.82 1.7-1.82 1.06 0 1.7.85 1.7 1.82Zm-4.2 0c0 1.4 1.1 2.5 2.5 2.5s2.5-1.11 2.5-2.5c0-1.4-1.1-2.5-2.5-2.5-1.38 0-2.5 1.1-2.5 2.5Zm4 0c0 .88-.57 1.63-1.5 1.63-.92 0-1.5-.74-1.5-1.63 0-.89.58-1.62 1.5-1.62s1.5.73 1.5 1.62ZM44.3 29.06V26.2h-.6v2.86c0 .53.19.96.5 1.26.3.3.75.48 1.28.48 1.04 0 1.82-.7 1.82-1.74V26.2h-.6v2.86c0 .37-.1.69-.32.91a1.2 1.2 0 0 1-.89.33c-.35 0-.66-.1-.88-.33a1.27 1.27 0 0 1-.31-.9Zm.2-3.06h-1v3.06c0 1.15.83 1.94 1.98 1.94 1.14 0 2.02-.78 2.02-1.94V26h-1v3.06c0 .67-.36 1.04-1 1.04-.65 0-1-.37-1-1.04V26ZM49.3 28.88h.97c.42 0 .8-.13 1.08-.35.27-.22.45-.55.45-.98 0-.44-.17-.77-.44-1a1.7 1.7 0 0 0-1.1-.35H48.7v4.6h.6v-1.92Zm.2.2h.77c.92 0 1.73-.55 1.73-1.53 0-1-.8-1.55-1.73-1.55H48.5v5h1v-1.92Zm-.2-2.46h.93c.28 0 .54.06.72.23.18.18.25.42.25.7 0 .26-.07.5-.25.67-.17.18-.42.25-.72.25h-.93v-1.85Zm.93 1.65c.53 0 .77-.27.77-.72 0-.49-.25-.73-.77-.73h-.73v1.45h.73Z"/><path d="m27 31-3-2.75V31h-1v-5l3 2.75V26h1v5Z"/><path fill-rule="evenodd" d="M31.96 29.2c-.2.58-.67.92-1.37.92-.93 0-1.59-.7-1.59-1.62 0-.88.64-1.6 1.55-1.6.54 0 .95.22 1.17.64h1.16a2.14 2.14 0 0 0-.08-.2c-.38-.88-1.3-1.34-2.25-1.34A2.49 2.49 0 0 0 28 28.5c0 1.44 1.14 2.5 2.56 2.5 1.14 0 2.21-.76 2.44-1.9V28h-3v1h2.01l-.05.2Zm-1.76-.4h2.06l-.05.24c-.09.4-.27.72-.55.94-.28.22-.65.34-1.07.34-1.05 0-1.79-.8-1.79-1.82 0-.98.72-1.8 1.75-1.8.55 0 1 .22 1.29.64h.74c-.36-.74-1.17-1.14-2.03-1.14-1.31 0-2.35.99-2.35 2.3 0 1.33 1.04 2.3 2.36 2.3 1.05 0 2.03-.7 2.24-1.73v-.87h-2.6v.6Z"/></svg>