<!-- by TradeStack --><svg width="56" height="56" viewBox="0 0 56 56" fill="none" xmlns="http://www.w3.org/2000/svg">
<rect width="56" height="56" fill="#F0F3FA"/>
<path d="M33.8972 33L32.1077 33.2338C32.2985 38.8584 30.7821 42.7462 30 43.987C30.2784 44.1299 31.0419 44.5325 31.8691 45C34.096 40.4493 34.149 35.1039 33.8972 33Z" fill="#262875"/>
<path d="M8 22.9646C12.7816 20.3224 24.0758 18.277 31 31.2336C28.5184 32.3171 14.6579 37.4496 8 22.9646Z" fill="#262875"/>
<path d="M30.5219 12C34.1489 14.1918 39.6395 20.8604 32.5857 30C30.9144 28.7602 22.2534 21.5085 30.5219 12Z" fill="#262875"/>
<path d="M46 23.111C45.7065 26.2178 42.817 32.5457 34 31.9623C34.2962 30.437 36.5087 21.9363 46 23.111Z" fill="#262875"/>
</svg>
