<?xml version='1.0' encoding='utf-8'?>
<!-- by TradeStack -->
<svg width="56" height="56" viewBox="0 0 56 56" xmlns="http://www.w3.org/2000/svg"><path fill="#F0F3FA" d="M0 0h56v56H0z" /><path fill-rule="evenodd" d="M17.7 15.7a1 1 0 0 0-1.4-1.4l-7 7a1 1 0 1 0 1.4 1.4l.76-.74 5.1 5.1a11.96 11.96 0 0 0-.38 8.94 12 12 0 1 0 6.03-14.77L17 16.42l.7-.71ZM37.76 36a11 11 0 1 0-20.5 0h20.5Z" fill="#4C4C4C" /><path d="M41.2 20.5c-1.46.4-2.74 3.17-3.2 4.5.37-.8 2.9-1.67 4.13-2-1.47.8-2.52 2.5-3.13 3.5.92-.5 2.2.5 4.5-.5 1.83-.8 4.43-5 5.5-7-.92 1-5.96 1-7.8 1.5ZM43.5 19c-2 0-3.5 1.33-4 2-2.4-.8-3-4.33-3-6 .17.5.9 1.5 2.5 1.5s3.67 1.67 4.5 2.5Z" fill="#0E8194" /><path d="M23.6 23.5v1.56L26 26.5v3l2.5 1.5 2.4-1.44V28h.2v1.56L33.5 31v2.75l1.5 1.13 1.97-1.48h1.53v.2h-1.47L35 35.12 33.5 34 31 35.5 28.5 34 26 35.5l-2.41-1.45-1.02 1.02-.14-.14.83-.83H21.5v-.2h2V31l-.28-.17-1.66 1.25-.12-.16 1.6-1.2L21 29.5v-3l2.4-1.44V23.5h.2Zm1.3 3.5v2.5h.2V27h-.2Zm7.5 4.5v2h.2v-2h-.2Z" fill="#007E91" /></svg>