<!-- by TradeStack --><svg width="56" height="56" viewBox="0 0 56 56" xmlns="http://www.w3.org/2000/svg"><path fill="#F0F3FA" d="M0 0h56v56H0z"/><path d="M45 28a17 17 0 1 1-8.77-14.88l-1.17 1.64a15 15 0 1 0 5.78 5.48l1.4-1.52A16.92 16.92 0 0 1 45 28Z" fill="#0C3B57"/><path d="M37.1 16.14A16.7 16.7 0 0 0 35 14.73l1.1-1.68c.53.17 1.75 1.12 2.34 1.53-.49.57-1.27 1.56-1.33 1.56Z" fill="#42925D"/><path d="M40.84 20.25a24.44 24.44 0 0 0-1.82-2.4l1.52-1.17a9.51 9.51 0 0 1 1.69 2.07c-.45.49-1.34 1.51-1.39 1.5Z" fill="#B80000"/><path d="M19.62 33 15 25h26l-4.62 8-4.2-7.27-4.2 7.27-4.18-7.24L19.62 33Z" fill="#0C3B57"/></svg>