<!-- by TradeStack --><svg width="56" height="56" viewBox="0 0 56 56" xmlns="http://www.w3.org/2000/svg"><path fill="#F0F3FA" d="M0 0h56v56H0z"/><path d="M35.4 39h-.38l-2.36-1.98c-.15-.12-.14-.23.05-.31.92-.42 1.27-1 1.29-1.72v-8.8c0-.8-.1-1.15-.92-1.22-.82.01-1.08.34-1.08 1.12v8.74c0 .1-.06.17-.17.17h-3.7c-.08 0-.13-.05-.13-.14V18.08c0-.05.02-.1.04-.14a.21.21 0 0 1 .12-.08l3.76-.86c.04 0 .08.02.08.06v5.05c0 .14.04.2.17.18.44-.05.94-.5 1.51-.54 1.78-.1 2.76.47 3.62 1.72.5.74.73 1.95.7 3.64v7a6.5 6.5 0 0 1-.5 2.8A4.8 4.8 0 0 1 35.4 39ZM8.06 21.75c.03-.47-.01-1.1-.12-1.42-.11-.34.02-.55.4-.63l3.24-.68c.28-.07.42.04.42.3v2.37c0 .2.1.31.31.31h1.78c.33 0 .5.13.5.43v2.21c0 .1-.05.2-.13.28-.08.08-.2.08-.3.08H12.2c-.06 0-.11.06-.15.1-.04.03-.05.08-.05.14v6.18c0 .15.05.28.16.38.11.1.26.16.42.16h1.13c.2 0 .29.1.29.28v2.33c0 .23-.1.34-.35.36-2.22.15-5.7.3-5.65-2.4v-7.2c0-.2-.09-.33-.3-.33H6.42c-.28 0-.42-.1-.42-.35v-2.24c0-.28.16-.41.47-.41H7.8c.17 0 .26-.1.27-.25ZM20.98 35a5.11 5.11 0 0 1-3.89-1.9 7.14 7.14 0 0 1-1.6-4.6c0-1.72.57-3.38 1.6-4.6A5.11 5.11 0 0 1 21 22c1.45 0 2.85.68 3.88 1.9a7.14 7.14 0 0 1 1.61 4.6c0 1.72-.58 3.38-1.6 4.6a5.11 5.11 0 0 1-3.9 1.9Zm0-3.12c.28 0 .56-.08.81-.25.26-.17.5-.42.69-.74.2-.31.35-.68.46-1.1.1-.4.16-.85.16-1.29 0-.9-.23-1.76-.62-2.4-.4-.63-.94-.98-1.5-.98s-1.1.35-1.5.99a4.6 4.6 0 0 0-.61 2.39c0 .9.22 1.76.62 2.4.4.63.93.98 1.5.98ZM44.5 35a5.11 5.11 0 0 1-3.89-1.9A7.14 7.14 0 0 1 39 28.5c0-1.72.58-3.38 1.61-4.6A5.11 5.11 0 0 1 44.5 22c1.46 0 2.86.68 3.89 1.9A7.14 7.14 0 0 1 50 28.5c0 1.72-.58 3.38-1.61 4.6A5.11 5.11 0 0 1 44.5 35Zm0-3.12c.28 0 .55-.08.8-.25.27-.17.5-.42.7-.74.2-.31.35-.68.45-1.1.11-.4.16-.85.16-1.29 0-.9-.22-1.76-.61-2.4-.4-.63-.94-.98-1.5-.98s-1.1.35-1.5.99a4.6 4.6 0 0 0-.62 2.39c0 .9.23 1.76.62 2.4.4.63.94.98 1.5.98Z" fill="#E60012"/></svg>