<!-- by TradeStack --><svg width="56" height="56" viewBox="0 0 56 56" xmlns="http://www.w3.org/2000/svg"><path fill="#F0F3FA" d="M0 0h56v56H0z"/><path d="M34.18 18.32c.31.13.62.24.93.33.2.06.2.13.02.21-1.5.7-2.95 1.57-4.36 2.62a58.8 58.8 0 0 1-3.51 2.46 7.26 7.26 0 0 1-7.35.35c-3.26-1.75-4.32-5.61-2.35-8.57 1.73-2.59 5.22-3.38 8.17-2.15a19.5 19.5 0 0 1 3.16 1.65c1.7 1.12 3.37 2.28 5.3 3.1Z" fill="#6EABDB"/><path d="M25.21 28.02c-.16-.03-.16-.06 0-.08a11.2 11.2 0 0 0 5.14-2.33l3.55-2.66a8.21 8.21 0 0 1 6.87-1.49 6.7 6.7 0 0 1 4.27 9.99c-1.6 2.6-4.56 3.77-7.77 3.14a8.92 8.92 0 0 1-3.69-1.77 127.47 127.47 0 0 0-4.02-2.96 11 11 0 0 0-4.35-1.84ZM16.22 28.05c.03-.03.03-.05 0-.07a7.48 7.48 0 0 1-2.2-4.95c-.02-.56-.02-1.1-.02-1.6 0-.21.03-.21.07 0 .73 3.61 4.12 6.14 8.07 6.56h.01a.01.01 0 0 1 0 .02 9.75 9.75 0 0 0-6.67 3.5 6 6 0 0 0-1.37 3.13h-.05c-.02 0-.03-.01-.03-.03-.05-.92-.03-1.7.06-2.32a7.22 7.22 0 0 1 2.13-4.24Z" fill="#D41D3A"/><path d="M34.6 36.89a27.2 27.2 0 0 1 .64.32.08.08 0 0 1-.01.09 15.44 15.44 0 0 0-2.95 1.33c-2.16 1.27-4.19 2.86-6.65 3.84-4.08 1.62-8.5-.62-9-4.68a6.1 6.1 0 0 1 3.55-6.23 7.36 7.36 0 0 1 6.11-.02c.67.33 1.3.7 1.89 1.12 2.09 1.48 4.12 3.15 6.43 4.23Z" fill="#6EABDB"/></svg>