<?xml version='1.0' encoding='utf-8'?>
<!-- by TradeStack -->
<svg width="56" height="56" viewBox="0 0 56 56" xmlns="http://www.w3.org/2000/svg"><path fill="#F0F3FA" d="M0 0h56v56H0z" /><path d="M30.61 23H11v-3h19.62c.34 0 .51.14.63.32.13.22.19.5.19.69V22h13.52a11.04 11.04 0 0 1-.16 3H32.68a2.6 2.6 0 0 0-.31-.74c-.33-.53-.91-1.26-1.76-1.26ZM15 28v-4h12.5c.34 0 .51.14.63.32.13.22.19.5.19.69V26h16.23a10.23 10.23 0 0 1-2.39 4H30.74a2.6 2.6 0 0 0-.32-.74c-.33-.52-.91-1.26-1.76-1.26H15Zm0 3v-2h13.66c.34 0 .5.14.62.32.14.22.2.5.2.69V31H41.1c-1.13.93-2.33 1.6-3.34 2h-8.02a2.6 2.6 0 0 0-.32-.74c-.33-.52-.91-1.26-1.76-1.26H15Zm0 1v3h12.66c.85 0 1.43.74 1.76 1.26.15.25.25.5.32.75H39.8L37.35 34h-8.88v-1c0-.18-.05-.46-.19-.68-.11-.18-.28-.32-.62-.32H15Zm0 6v-2h12.66c.34 0 .5.14.62.32.14.22.2.5.2.69V38H40.6l1.64 2H29.74a2.6 2.6 0 0 0-.32-.74c-.33-.52-.91-1.26-1.76-1.26H15Zm0 1v3h28.87l-.81-1H28.47v-1c0-.18-.05-.46-.19-.68-.11-.18-.28-.32-.62-.32H15Zm-4-24v-1h23.42c1.62 0 5.73.4 8.33 3H32.7a7.65 7.65 0 0 1-.04-.2c-.07-.27-.15-.66-.27-.85a2 2 0 0 0-1.77-.95H11Zm0 1h19.62c.34 0 .51.07.63.25.13.21.19.5.19.69V18h12.14a7.72 7.72 0 0 1 1.25 3H32.7a2.6 2.6 0 0 0-.31-.74c-.34-.52-.92-1.26-1.77-1.26H11v-3Z" fill="#38348F" /></svg>