<!-- by TradeStack --><svg width="56" height="56" viewBox="0 0 56 56" xmlns="http://www.w3.org/2000/svg"><path fill="#121A3F" d="M0 0h56v56H0z"/><path d="M28.87 15.7v-1.36h-.01l-.35.34-.01 1.24h.01l.35-.2v-.01Zm-5.15.22v-1.24h-.01l-.35-.34h-.01v1.37l.35.22h.01Zm.48-.77v1.06l-.01.01-.3-.18v-1.18l.3.28Zm4.13.88v-1.17h-.01l-.3.28v1.08l.3-.18Zm-4.61.2v1.17c0 .01 0 .01 0 0l-.35-.05-.01-.01v-1.3l.36.18Zm5.14 1.1v-1.28a.01.01 0 0 0 0-.01h-.01l-.35.18-.01 1.18.36-.05v-.01Zm-4.66-.85v1.01h-.01l-.29-.05-.01-1.12.3.15Zm4.12.96v-1.12l-.3.15v1.02l.3-.04v-.01Zm-4.95 1.73v-1.45l.35.03v1.33l-.34.1Zm5.12-1.41v1.32l.34.1h.01v-1.46l-.34.03h-.01Zm-.47 1.18v-1.15l.3-.03v1.26h-.01l-.29-.08Zm-4.13-1.17v1.25h.01l.3-.08v-1.15h-.01l-.29-.02Zm0 2.9v-1.35l.3-.11v1.24l-.28.23h-.01Zm4.13-1.45v1.23l.28.24h.01v-1.37l-.28-.11h-.01Zm-4.63 1.86-.01-1.56.34-.13h.01l.01 1.42v.01l-.34.27h-.01Zm5.1-1.68-.02 1.41v.01l.34.27h.01l.02-1.57h-.01l-.34-.13ZM38.87 28.6a1166.2 1166.2 0 0 0-.01 2.98 561.98 561.98 0 0 1 .03 2.42h-1.4c-.01 0-.02 0-.02-.02a1064.67 1064.67 0 0 0 .08-2.56l-.06-5.39V26h1.67l.02.03 3.02 5.38v.01h.1v-.01L42.27 26c-.01 0 0-.01 0 0h1.45v.01a3403.23 3403.23 0 0 1-.08 5.62 287.9 287.9 0 0 0 .03 2.37H42v-.02l-3.02-5.37-.01-.01h-.09ZM6.97 27.32h-.5a92.12 92.12 0 0 0-1.38.06l-.08-.1a.07.07 0 0 1-.01-.05l.1-1.22 5.25-.01a.04.04 0 0 1 .04.02l.07.1v.04l-.08 1.22-.02.01-1.16-.06a10.77 10.77 0 0 0-.68 0 8545.74 8545.74 0 0 0-.05 4.34A1452.1 1452.1 0 0 0 8.53 34H7s0 .02 0 0v-6.66l-.03-.01ZM21.36 31.75a1278.15 1278.15 0 0 1 .05 2.25h-1.55a.01.01 0 0 1 0-.01 3259.77 3259.77 0 0 1 .07-2.6 25634.68 25634.68 0 0 1-.07-5.4h1.57V26h.01v.02a8325.73 8325.73 0 0 0-.08 5.73ZM32.37 30.62a18.7 18.7 0 0 0 .03 2.05 290.22 290.22 0 0 0 1.58 0 458.14 458.14 0 0 1 1.56-.05c.03.05.09.1.08.15A132.22 132.22 0 0 0 35.5 34h-4.63l-.01-.01a677.32 677.32 0 0 1 .07-2.6 5341.96 5341.96 0 0 1-.07-5.39h4.7l.02.01a1 1 0 0 0 .06.1l.02.05a290.18 290.18 0 0 0-.14 1.23 252.1 252.1 0 0 1-1.97-.06 830.87 830.87 0 0 1-1.12.02l-.04 1.91.02.01a54.11 54.11 0 0 1 1.47.02 447.58 447.58 0 0 1 1.01-.02l.07.08a1198.02 1198.02 0 0 0-.1 1.28l-1.11-.02c-.46-.02-.91 0-1.37 0v.01ZM47.48 27.32h-.5a234.4 234.4 0 0 0-1.4.06l-.07-.11-.01-.02v-.06a155.3 155.3 0 0 0 .1-1.2h5.29l.03.02.07.1.01.04-.09 1.21c0 .02-.01.03-.03.03l-1.19-.07H49V34h-1.52a.02.02 0 0 1-.01-.02 2454.4 2454.4 0 0 1 .08-2.6 22312.04 22312.04 0 0 1-.07-4.06Z" fill="#EFF0F2"/><path fill-rule="evenodd" d="M13.5 31.32a.5.5 0 0 1 0-.07h1.12c.4.85.83 1.68 1.28 2.5l.03.06c.04.07.12.13.18.17.01.02.03.02.05.02a5.5 5.5 0 0 0 1.5-.34l.03-.14a.1.1 0 0 0-.03-.07c-.59-.8-1.2-1.75-1.75-2.68v-.01a2.84 2.84 0 0 0 1.37-2.59 2.2 2.2 0 0 0-.72-1.65 2.73 2.73 0 0 0-1.82-.52H12l-.01.02a7112.45 7112.45 0 0 0 .07 5.75l-.04 1.3L12 34h1.57l-.07-2.68Zm.07-4.04a1243.47 1243.47 0 0 0-.03 2.67 187.92 187.92 0 0 1 1.15.04c.47-.16.8-.53.91-1.05.05-.24.06-.48.02-.73-.08-.65-.52-.91-1.1-.98h-.43a89.97 89.97 0 0 1-.52.05Z" fill="#EFF0F2"/><path d="M24.9 14.26 26.15 12l1.26 2.26h-.73V22h2.05c.3 0 .54-.38.54-.7v-6.94l1.8 2.23h-.7v4.7c0 .95-.72 1.7-1.6 1.7h-5.21c-.89 0-1.56-.75-1.56-1.7v-4.7h-.74L23 14.36v6.95c0 .31.27.69.57.69h2.03v-7.74h-.7ZM22.52 24h7.17v.26c0 .96-.65 1.74-1.45 1.74H27v8h-2v-8h-1.03c-.8 0-1.45-.78-1.45-1.74V24Z" fill="#B07964"/></svg>