<!-- by TradeStack --><svg width="56" height="56" viewBox="0 0 56 56" xmlns="http://www.w3.org/2000/svg"><path fill="#600" d="M0 0h56v56H0z"/><path d="M43 15c-2.26-1.27-4.87-2-7.67-2C26.87 13 20 19.72 20 28c0 8.28 6.86 15 15.33 15 2.8 0 5.41-.73 7.67-2v-7.37a9.64 9.64 0 0 1-7.67 3.74c-5.29 0-9.58-4.2-9.58-9.37 0-5.18 4.3-9.38 9.58-9.38A9.64 9.64 0 0 1 43 22.38v-7.36Z" fill="#fff"/><circle cx="16" cy="18" r="3" fill="#FF006A"/><path d="M19 28a3 3 0 1 1-6 0 3 3 0 0 1 6 0Z" fill="#FC6502"/><circle cx="16" cy="38" r="3" fill="#63FF00"/></svg>