<!-- by TradeStack --><svg width="56" height="56" viewBox="0 0 56 56" xmlns="http://www.w3.org/2000/svg"><path fill="#F0F3FA" d="M0 0h56v56H0z"/><path fill="#494E62" d="M13 13h30v30H13z"/><path d="m17.5 39.89 1 3.11h1l1-4.15-3 1.04Z" fill="#FFE3AD"/><path d="M13 41.96V43h5.5l-1-3.11-4.5 2.07Z" fill="#C98D2D"/><path d="m16 36.26-3-.52v-2.07l2-3.11 1 5.7Z" fill="#CA8B2E"/><path d="m16 36.26-3-.52v4.15l3-3.63Z" fill="#A16B2B"/><path d="m13.5 39-.5.89v2.07l8-3.1-2-1.05L13.5 39Z" fill="#FCC438"/><path d="M19 37.81 13.5 39l2.5-2.74 3 1.55Z" fill="#FEF8E2"/><path d="m15 30.56 1 5.7 7-2.76-8-2.94Z" fill="#EEB220"/><path d="m23 33.5-7 2.76 5 2.6 2-5.36Z" fill="#C48F29"/><path d="M18.5 29 15 30.56l8 2.94-4.5-4.5Z" fill="#FDFBFC"/><path d="m23 33.5-2 5.35 6-2.07v-.52l-4-2.76Z" fill="#FFCA65"/><path d="M20.5 38.85h.5l5 2.6L23 43h-3.5l1-4.15Z" fill="#FCBD30"/><path d="m22.5 38.33-1.5.52 5 2.6-3.5-3.12Z" fill="#DD9E25"/><path d="m23 43 3-1.56L28 43h-5Z" fill="#EBAC20"/><path d="m27 36.26-4.5 2.07 3.5 3.11L28 43v-6.22l-1-.52Z" fill="#FFC034"/><path d="m29 34.19-2 2.07 4 2.07-2-4.14Z" fill="#FBDA95"/><path d="M34.5 35.74 29 34.2l2 4.14 1 .52 2.5-3.1Z" fill="#FDF4E3"/><path d="M28 43v-6.22l2.5 1.03L28 43Z" fill="#E3A423"/><path d="m32 38.85-1.5-1.04L31 43h1l1-3.11-1-1.04Z" fill="#D99E2A"/><path d="m31 43-.5-5.19L28 43h3Z" fill="#CB8F2D"/><path d="M34.5 35.74 32 38.85l1 1.04L36 43h1l-2.5-7.26Z" fill="#B57F27"/><path d="m36 43-3-3.11L34 43h2Z" fill="#A2702E"/><path d="m32 43 1-3.11L34 43h-2Z" fill="#8C6427"/><path d="m38.5 36.78-4-1.04L37 43l1.5-6.22Z" fill="#EBAE20"/><path d="m43 40.93-4.5-4.15L37 43h6v-2.07Z" fill="#DEA029"/><path d="M43 36.78h-4.5l4.5 4.15v-4.15Z" fill="#FFC03A"/><path d="m41 32.63-2.5 4.15H43v-2.6l-2-1.55Z" fill="#B98030"/><path d="m41 32.63-8.5 2.6 2 .51 4 1.04 2.5-4.15Z" fill="#FDE8B9"/><path d="M17 17v.66h-1V22h-1v-4.34h-1V17h3ZM20.38 22l-1.06-2.03H19V22h-1.01v-5h1.59c1.42 0 1.92.55 1.92 1.48 0 .68-.7 1.25-1.36 1.42L21.3 22h-.9ZM19 19.32h.58c.57 0 .92-.33.92-.84 0-.52-.35-.82-.92-.82H19v1.66ZM23 17v5h-1v-5h1ZM25 17v3.16c0 .75.35 1.14 1 1.14.67 0 1-.4 1-1.14V17h1v3.14c0 1.07-.92 1.86-2 1.86s-2-.8-2-1.86V17h1ZM33.5 17v5h-1v-3.44l-1 3.44h-1l-1-3.44V22h-1v-5h1.2l1.3 4 1.3-4h1.2ZM37.5 18.47c0 .94-.65 1.53-1.54 1.53H35v2h-1v-5h1.96c.88 0 1.54.54 1.54 1.47Zm-1.9.8c.55 0 .9-.26.9-.77 0-.54-.48-.84-.9-.84H35v1.62h.6ZM42 17v5h-1v-2h-2v2h-1v-5h1v2.34h2V17h1Z" fill="#FDFCFF"/><path d="M17.87 24.47c-.26-.49-.73-.74-1.33-.74-1.01 0-1.54.78-1.54 1.77 0 1 .52 1.77 1.54 1.77.83 0 1.34-.44 1.46-1.27l-1.74.01v-.64H19V26c-.17 1.22-1.25 2-2.46 2a2.5 2.5 0 1 1 0-5c1 0 1.94.53 2.31 1.47h-.98ZM22.5 28c-1.4 0-2.5-1.1-2.5-2.5s1.1-2.5 2.5-2.5 2.5 1.1 2.5 2.5-1.1 2.5-2.5 2.5Zm0-.7c1.02 0 1.5-.82 1.5-1.8 0-.98-.48-1.8-1.5-1.8s-1.5.81-1.5 1.8.47 1.8 1.5 1.8ZM27 27.34h2V28h-3v-5h1v4.34ZM31.52 23C33 23 34 24.06 34 25.52A2.37 2.37 0 0 1 31.52 28H30v-5h1.52Zm0 4.33c1.1 0 1.48-.68 1.48-1.83 0-1.05-.38-1.83-1.48-1.83H31v3.66h.52Z" fill="#D5A63A"/></svg>