<!-- by TradeStack --><svg width="56" height="56" viewBox="0 0 56 56" xmlns="http://www.w3.org/2000/svg"><path fill="#EE1C25" d="M0 0h56v56H0z"/><path d="M32.44 26.05a563.74 563.74 0 0 0-1.04 4l-.07.26c-.16.7-.4 1.69-1.65 1.69h-.17c-1 0-1.33.3-1.48.81L27.7 34h1.96c.8 0 1.11-.18 1.29-.6l.09-.24c.02-.06.03-.11.07-.18.24-.63.75-.98 1.23-.98h.42c.58 0 1.1-.11 1.31-.89v-.01l.01-.02L35.65 25H33.5c-.79 0-.91.48-1.04.96l-.02.09ZM50.52 25c-.68 0-.84.32-.96.76l-1.28 4.93s0-.15-.04-.3l-.44-1.63-.84-3.12c-.17-.62-.77-.64-1.42-.64h-3.3l-1.82 7h1.01c1 0 1.26-.22 1.46-.87l1.25-4.83s0 .15.05.37l1.16 4.29c.3.85.75 1.04 1.85 1.04h2.98L52 25h-1.48Zm-24.53.96c.13-.49.26-.96 1.04-.96h2.15l-1.82 7h-2.94l1.55-5.96.02-.08ZM35.65 32l1.55-5.96.03-.08c.13-.49.25-.96 1.04-.96h2.14l-1.82 7h-2.94ZM22.6 26.46h-2.86c-.8 0-.9.18-1.06.66a9.26 9.26 0 0 0-.13.48h4.6l-.01.05c-.2.62-.44 1.35-2.5 1.35h-2.46l-.09.33-.07.3c-.08.28-.08.9.6.9h5.15c-.3 1.17-.81 1.47-2.19 1.47h-3.97c-2.77 0-2.89-1.1-2.51-2.52l.68-2.62C16.2 25 17.52 25 19.32 25H24.8c-.14.8-.7 1.46-2.19 1.46ZM5.55 25h10.2c-.14.48-.6 1.5-2.36 1.5h-2.2l-1.16 4.46-.02.06c-.13.5-.26.98-1.44.98H6.73l1.42-5.5H4l.3-.86c.22-.64.66-.64 1.23-.64h.02Z" fill="#fff"/></svg>