<!-- by TradeStack --><svg width="56" height="56" viewBox="0 0 56 56" xmlns="http://www.w3.org/2000/svg"><path fill="#F0F3FA" d="M0 0h56v56H0z"/><path d="M6 24v-2h10v2h-4v10h-2V24H6ZM22 22h2v8.32c-.01 2.33-1.87 3.68-4.08 3.68C17.9 34 16 32.66 16 30.46h2c.01.97 1.08 1.54 2 1.54 1.15 0 1.99-.6 2-1.68V22ZM28 34V22h4.62c1.92 0 3.9.94 3.9 3.11 0 1.3-.85 2.26-2.1 2.56v.11c1.55.09 2.58 1.47 2.58 2.95 0 2.3-2.09 3.27-4.12 3.27H28Zm2-2h2.76c1.05 0 2.24-.26 2.24-1.5 0-1.2-1.07-1.5-2.19-1.5H30v3Zm0-5h2.5c1.02 0 2-.5 2-1.6s-.96-1.4-1.95-1.4H30v3ZM40 34V22h2v5h6v-5h2v12h-2v-5h-6v5h-2Z"/></svg>