<!-- by TradeStack --><svg width="56" height="56" viewBox="0 0 56 56" xmlns="http://www.w3.org/2000/svg"><path fill="#F0F3FA" d="M0 0h56v56H0z"/><path d="M29.2 22.04c1.77.08 2.68.95 2.74 2.7.08 1.9.08 4.56 0 6.47-.06 1.77-1 2.68-2.8 2.75-1.36.06-3.05.05-4.4 0-1.74-.08-2.62-.98-2.69-2.76-.07-1.9-.07-4.56 0-6.45.08-1.76.98-2.63 2.75-2.7 1.36-.06 3.04-.06 4.4 0Zm.2 9.89c.4-.04.5-.14.53-.53.07-1.3.07-5.6 0-6.85-.03-.36-.13-.45-.55-.49-.98-.08-4.03-.08-4.89.01-.34.04-.39.1-.41.46-.08 1.22-.08 5.56 0 6.87.02.4.07.48.4.52.85.09 3.95.1 4.92 0ZM19 32h-2.54c-.35 0-.46.05-.46.42v1.08c0 .36.11.5.46.5h4.07c.26 0 .47-.23.47-.5V22.6c0-.37-.22-.6-.57-.6l-2.25.01c-.26 0-.6.18-.75.4 0 0-2.13 2.42-3.6 5.07-1.63 2.96-2.77 5.86-2.77 5.86-.16.4 0 .66.31.66h1.5c.26 0 .5-.2.61-.45 0 0 1.07-2.36 2.38-4.8A32.45 32.45 0 0 1 19 24.1V32Zm-5.48-10H4.48a.5.5 0 0 0-.48.5v1.02c0 .27.22.48.48.48H8v9.5c0 .28.19.5.45.5h1.09c.26 0 .46-.22.46-.5V24h3.52c.26 0 .48-.2.48-.48V22.5a.5.5 0 0 0-.48-.5Zm23.55 8.96C35.97 29.46 35 28.4 35 28.4v5.1c0 .27-.21.5-.48.5h-1.04a.49.49 0 0 1-.48-.5v-11c0-.27.21-.49.48-.49h1.05c.26 0 .47.22.47.5v4.82s1.41-1.5 2.13-2.43c.71-.93 1.95-2.5 1.95-2.5.17-.22.52-.39.78-.39h1.25c.48 0 .6.32.3.67l-4 4.93-.02.04c-.11.18-.17.28-.17.37 0 .1.07.2.2.39l.02.02 4 4.96c.2.24.22.62-.2.62h-1.4c-.26 0-.61-.17-.78-.39 0 0-1.13-1.46-2-2.65ZM48.84 32h-2.4c-.27 0-.44.11-.44.39v1.11c0 .28.17.5.43.5h4.79c.6 0 .99-.3.66-1.08 0 0-1.04-2.53-2.96-5.88a37.88 37.88 0 0 0-2.9-4.57c-.16-.21-.55-.47-.8-.47h-2.46c-.43 0-.76.35-.76.8v10.66c0 .28.21.5.47.5h1.16c.26 0 .31-.22.31-.5V23.8a63 63 0 0 1 4.9 8.2Z" fill="#008FD8"/></svg>