<!-- by TradeStack --><svg width="56" height="56" viewBox="0 0 56 56" xmlns="http://www.w3.org/2000/svg"><path fill="#F0F3FA" d="M0 0h56v56H0z"/><path fill-rule="evenodd" d="m20 36.69 2.68-17.46c.02-.12.12-.23.24-.23h12.84c.15 0 .26.15.24.3l-2.16 13.5a.24.24 0 0 1-.23.2h-6.5c-.11 0-.21.1-.23.22l-.25 1.5c-.01.14.1.28.24.28h6.25c.14 0 .25.12.23.27l-.23 1.5c-.02.11-.12.23-.24.23h-8.6c-.14 0-.26-.17-.23-.32l.98-5.48c.02-.11.12-.2.24-.2h6.44c.11 0 .2-.08.23-.2l.23-1.48c.03-.15-.08-.32-.23-.32h-8.46c-.12 0-.22.12-.24.24l-1.06 7.52c-.02.12-.12.24-.24.24h-1.7c-.15 0-.26-.16-.24-.31ZM32.53 27h-8.6a.25.25 0 0 1-.24-.29l.96-5.5c.02-.12.12-.21.23-.21h8.64c.16 0 .28.15.24.3l-.33 1.51a.24.24 0 0 1-.23.19h-6.67a.24.24 0 0 0-.24.22l-.24 1.47c-.03.15.09.31.24.31h6.48c.15 0 .27.12.24.27l-.24 1.52a.24.24 0 0 1-.24.21Z" fill="#0266BC"/><path d="M13.13 36.18c-.2-.37-.24-.8-.12-1.2.2-.72.87-1.2 1.61-1.2h.15c.73 0 1.38.41 1.75 1.04a13.13 13.13 0 0 0 11.38 6.57c6.6 0 12.08-4.73 13.19-10.96h3.67A16.98 16.98 0 0 1 27.9 45c-6.44 0-11.9-3.57-14.77-8.82Z" fill="url(#a)"/><path d="M42.43 36.6a1.69 1.69 0 0 1-2.85-.09l-.08-.13c-.36-.63-.32-1.4.04-2.03a12.92 12.92 0 0 0 .1-13.07 13.44 13.44 0 0 0-16.15-5.89l-1.83-3.17A17.09 17.09 0 0 1 42.8 19.5a16.51 16.51 0 0 1-.36 17.1Z" fill="url(#b)"/><path d="M28.42 11.12a1.66 1.66 0 0 1 1.35 2.5l-.08.13c-.36.62-1.06.97-1.79.97a13.14 13.14 0 0 0-8.52 23.27l-1.85 3.16a16.8 16.8 0 0 1-4.22-21.78 16.78 16.78 0 0 1 15.11-8.25Z" fill="url(#c)"/><defs><linearGradient id="a" x1="31.26" y1="42.24" x2="37.04" y2="32.86" gradientUnits="userSpaceOnUse"><stop stop-color="#0085C9"/><stop offset="1" stop-color="#4B96CF" stop-opacity="0"/></linearGradient><linearGradient id="b" x1="38.7" y1="17.97" x2="27.63" y2="17.58" gradientUnits="userSpaceOnUse"><stop stop-color="#00A669"/><stop offset="1" stop-color="#05A46A" stop-opacity="0"/></linearGradient><linearGradient id="c" x1="14.03" y1="23.64" x2="19.16" y2="33.37" gradientUnits="userSpaceOnUse"><stop stop-color="#5AC3D8"/><stop offset="1" stop-color="#59C5D8" stop-opacity="0"/></linearGradient></defs></svg>