<!-- by TradeStack --><svg width="56" height="56" viewBox="0 0 56 56" xmlns="http://www.w3.org/2000/svg"><path fill="#F0F3FA" d="M0 0h56v56H0z"/><path fill-rule="evenodd" d="M16 23c-7.6 0-11.17 3.33-12 5 1 2 5.5 4 12 4h24c6 0 10.5-2.67 12-4-4-4-9.67-5-12-5H16Zm4 1c-8 0-10.67 2.5-11 3.5v1c0 2 7.33 2.33 11 2.5h14c8.4 0 13-1.5 13-2.5v-1c-.4-2.4-8.83-3.5-13-3.5H20Zm-6.5 2v-1h6v1h-2v4h-2v-4h-2Zm6.5.5c0-.33.2-1 1-1h2.5c.33 0 1 .2 1 1v1c0 .33-.2 1-1 1H22v.5h2.5v1H21c-.33 0-1-.2-1-1v-2.5Zm2-.2v1.5c0 .11.09.2.2.2h.1a.2.2 0 0 0 .2-.2v-1.5a.2.2 0 0 0-.2-.2h-.1a.2.2 0 0 0-.2.2Zm11-.8c-.8 0-1 .67-1 1V29c0 .8.67 1 1 1h3.5v-1H34v-.5h1.5c.8 0 1-.67 1-1v-1c0-.8-.67-1-1-1H33Zm1 2.3v-1.5c0-.1.09-.2.2-.2h.1c.11 0 .2.1.2.2v1.5a.2.2 0 0 1-.2.2h-.1a.2.2 0 0 1-.2-.2Zm3-2.3V30h2v-4h1v4h2v-3c0-1.2-1-1.5-1.5-1.5H37Zm-5.5 0v.5h-1c-.5 0-1 .1-1 .5 0 .2.34.5.75.84.56.49 1.25 1.07 1.25 1.66 0 .8-1 1-1.5 1h-2.5v-.5h1c.5 0 1-.1 1-.5 0-.2-.34-.5-.75-.84-.56-.49-1.25-1.07-1.25-1.66 0-.8 1-1 1.5-1h2.5ZM27 30h-2v-2.5h2V30Zm-1-3a1 1 0 1 0 0-2 1 1 0 0 0 0 2Z" fill="#D93519"/></svg>