<?xml version='1.0' encoding='utf-8'?>
<!-- by TradeStack -->
<svg width="56" height="56" viewBox="0 0 56 56" xmlns="http://www.w3.org/2000/svg"><path fill="#F0F3FA" d="M0 0h56v56H0z" /><path d="M42.39 37c-1.93 0-4-.62-5.39-2.01l1.04-3.04C39.2 33.05 40.38 34 42 34c1.2 0 3-.58 3-2 0-1.52-1.9-2.04-3.07-2.36-2.65-.81-4.67-2.2-4.67-5.22 0-3.26 2.37-5.42 5.58-5.42 1.62 0 3.33.5 4.6 1.54l-.95 3.06C45.44 22.8 44.33 22 43 22c-1.26 0-2.7.8-2.7 2.22 0 1.52 1.86 1.89 3.01 2.24 2.64.79 4.69 2.1 4.69 5.14 0 3.25-2.44 5.4-5.61 5.4ZM23 37V19h6.4c2.84 0 4.95 1.74 4.95 4.68 0 1.55-.53 3.18-1.9 4.06-.58.38-1.25.57-2.01.57l.35-1.06c.83 0 1.56.2 2.2.57 1.5.85 2.01 2.64 2.01 4.27 0 3.15-2.18 4.91-5.23 4.91H23Zm3-3h3.54c1.6 0 2.46-.99 2.46-2.5a2.4 2.4 0 0 0-2.46-2.5H25.8v-3h3.23c1.5 0 2.28-.34 2.28-1.75 0-1.37-.96-2.25-2.28-2.25H26v12ZM12.5 37V22H8v-3h12v3h-4.5v13l-3 2Z" fill="#0050FF" /></svg>