<!-- by TradeStack --><svg width="56" height="56" viewBox="0 0 56 56" xmlns="http://www.w3.org/2000/svg"><path fill="#F0F3FA" d="M0 0h56v56H0z"/><path d="M18.35 13h.27c4.46.4 7.94 3.6 10.77 6.88l.97 1.27 3.58 5.14a7.77 7.77 0 0 1-1.34 1.64c-1.57-1.52-2.86-2.99-4.71-4.57-.52-.5-1.07-.96-1.66-1.39a39.78 39.78 0 0 0-12.45-6.34.11.11 0 0 0-.08.1c0 .03 0 .06.02.08a116.8 116.8 0 0 0 7.37 9.7l-1.33 1.05c-2.32-3.6-4.7-7.32-6.58-11.16a.15.15 0 0 1 .02-.16A6.5 6.5 0 0 1 18.35 13Z" fill="#ABD190"/><path d="m36.18 29.56-1.26.97-5.09 3.53a19.1 19.1 0 0 1-1.77-1.47c1.53-1.46 3.03-2.96 4.47-4.5.07-.07.05-.08.07-.16a7.77 7.77 0 0 0 1.38-1.65s.02 0 .02-.02a42.94 42.94 0 0 0 6.31-12.4c.04-.13 0-.2-.15-.2a.22.22 0 0 0-.12.05 141.65 141.65 0 0 0-9.69 7.44l-.96-1.27c2.8-1.9 5.68-3.7 8.6-5.41.82-.47 1.65-.92 2.5-1.33a.25.25 0 0 1 .28.04c4 3.79 1.96 9.05-.96 12.64a27.7 27.7 0 0 1-3.63 3.74ZM26.23 21.97c.59.43 1.14.9 1.66 1.39A46 46 0 0 0 23.34 28l-1.44 1.74a39.44 39.44 0 0 0-6.28 12.45.12.12 0 0 0 .1.08c.03 0 .06 0 .08-.02a124.4 124.4 0 0 0 9.62-7.4l1.07 1.38c-3.57 2.3-7.21 4.59-11 6.52-.1.05-.2.04-.28-.03-1.55-1.24-2.12-3-2.21-5.05v-.57c.5-4.32 3.5-7.93 6.76-10.55l1.33-1.04 5.14-3.55Z" fill="#195126"/><path d="M23.34 28c1.46 1.6 3 3.12 4.59 4.54.02.02.06.03.13.05a36.63 36.63 0 0 0 13.9 7.69c.06.02.12.03.17.02a.11.11 0 0 0 .09-.07.11.11 0 0 0-.01-.1c-2.3-3.3-4.73-6.5-7.3-9.6l1.27-.97c1.75 2.64 3.41 5.31 5 8.02.57.96 1.09 1.94 1.57 2.95a.21.21 0 0 1-.03.23c-2.03 2.37-5.24 2.74-8.07 1.67-3.27-1.23-5.96-3.52-8.16-6.2l-1.07-1.36-3.52-5.12 1.44-1.74Z" fill="#ABD190"/></svg>