<!-- by TradeStack --><svg width="56" height="56" viewBox="0 0 56 56" xmlns="http://www.w3.org/2000/svg"><path fill="#F0F3FA" d="M0 0h56v56H0z"/><path d="M10.25 28.4a.45.45 0 0 1 0-.8l7.1-3.55c.3-.15.65.07.65.4v7.1c0 .33-.35.55-.65.4l-7.1-3.55Z" fill="#F4CD45"/><path d="m42.44 12.04-16.23 8.27a.4.4 0 0 0-.13.58l5.24 6.96c.15.2.46.2.61 0l11-15.23c.23-.33-.13-.76-.49-.58Z" fill="#162F89"/><path d="m42.44 43.96-16.23-8.27a.4.4 0 0 1-.13-.58l5.24-6.96c.15-.2.46-.2.61 0l11 15.23c.23.33-.13.76-.49.58ZM18 23.6V12.4a.4.4 0 0 1 .72-.24l6.2 7.97c.15.2.09.49-.14.6l-6.19 3.22a.4.4 0 0 1-.59-.36ZM18 32.4v11.2c0 .38.49.55.72.24l6.2-7.97a.4.4 0 0 0-.14-.6l-6.19-3.22a.4.4 0 0 0-.59.36Z" fill="#162F89"/></svg>