<?xml version='1.0' encoding='utf-8'?>
<!-- by TradeStack -->
<svg width="56" height="56" viewBox="0 0 56 56" xmlns="http://www.w3.org/2000/svg"><path fill="#F0F3FA" d="M0 0h56v56H0z" /><path d="M27 19h-3.5l6 9-7 10h4l4.5-7 4 7h4l-6-10 6-9h-4l-4 6-4-6Z" fill="#FCB040" /><path d="M23.5 19H22l6 9-7 10h1.5l7-10-6-9Z" fill="#5588C7" /><path d="M22 19h-2l4.5 7H18l-4 4h10.5L19 38h2l7-10-6-9Z" fill="#6EA3CF" /><path fill-rule="evenodd" d="M28 44a16 16 0 1 0 0-32 16 16 0 0 0 0 32Zm0 1a17 17 0 1 0 0-34 17 17 0 0 0 0 34Z" fill="#415877" /></svg>