<!-- by TradeStack --><svg width="56" height="56" viewBox="0 0 56 56" xmlns="http://www.w3.org/2000/svg"><path fill="#F0F3FA" d="M0 0h56v56H0z"/><path d="m28.37 16.42.23-4.48c.01-.3-.14-.44-.45-.44h-.26c-.12 0-.18.06-.18.18l.04 4.42v5.79c0 .24-.1.44-.3.6a5.2 5.2 0 0 0-1.3 1.43c-.11.19-.22.2-.34 0l-2.92-4.7a.67.67 0 0 1 0-.7l4.4-7.1a.86.86 0 0 1 .33-.3.94.94 0 0 1 .89 0c.13.06.25.17.32.3l4.38 7.08c.14.22.14.45 0 .67l-2.92 4.71c-.2.34-.38.33-.53-.03-.22-.56-.59-.98-1.1-1.27-.24-.13-.36-.33-.36-.59l.07-5.57Zm0 28.44c-.44.3-.87.12-1.27-.53l-4.22-6.83a.54.54 0 0 1 0-.62l2.7-4.36a.18.18 0 0 0 0-.2l-.14-.22a.19.19 0 0 0-.07-.06.2.2 0 0 0-.1-.03l-.09.03a.17.17 0 0 0-.06.06l-2.79 4.5a.67.67 0 0 1-.6.33H12.8a.84.84 0 0 1-.4-.1.78.78 0 0 1-.3-.27.7.7 0 0 1 0-.75l4.4-7.11c.14-.21.33-.32.58-.32h5.63c.03 0 .07 0 .1-.02a.22.22 0 0 0 .08-.06.2.2 0 0 0 .03-.2l-.07-.22c-.04-.12-.13-.18-.27-.18h-5.4a.81.81 0 0 1-.38-.1.74.74 0 0 1-.28-.26l-4.38-7.06a.72.72 0 0 1 0-.77.8.8 0 0 1 .3-.28c.14-.07.28-.1.43-.1h8.84c.3 0 .53.12.68.36l2.84 4.58c.08.13.04.21-.1.25l-1.67.48c-.36.1-.7.07-1.03-.1l-9.85-5.3c-.08-.05-.13-.03-.16.05l-.1.23c-.04.12 0 .22.11.29l9.76 5.25c.22.11.36.28.43.5l.8 2.42a.37.37 0 0 1-.09.39c-.4.42-.63.99-.69 1.69a.65.65 0 0 1-.36.54l-9.89 5.32c-.08.05-.1.11-.08.2l.07.2c.05.15.15.18.3.1l9.93-5.35a.7.7 0 0 1 .75.02c.5.32 1.05.4 1.65.27a.83.83 0 0 1 .47.04c.15.05.28.15.36.28.51.74 1.04 1.3 1.59 1.65.17.11.26.26.27.46.12 3.06.11 6.16-.02 9.29-.03.66.2 1.2.7 1.62Zm0 0-.05-10.77c0-.25.1-.45.34-.6.5-.31.88-.74 1.11-1.27.15-.35.33-.36.53-.03l2.94 4.74a.54.54 0 0 1-.01.59l-4.86 7.34Zm5.2-20.11 9.8-5.3c.48-.25.44-.38-.1-.38h-8.96c-.25 0-.43.1-.55.3l-2.88 4.66c-.2.33-.1.48.3.46.54-.04 1.06.06 1.57.29a.9.9 0 0 0 .81-.03Zm5.7 2.93-5.64-.04c-.22 0-.33.1-.33.3v.24c0 .17.09.25.27.25l5.64-.08 4.68 7.55c.2.31.13.38-.2.2l-9.6-5.17a1.11 1.11 0 0 1-.55-.64l-.65-1.97a1.1 1.1 0 0 1 .02-.76l.76-2c.07-.18.18-.3.35-.4l9.62-5.18a.26.26 0 0 1 .29.04c.04.03.06.07.07.12 0 .05 0 .1-.03.14l-4.7 7.4Zm-8.38.06-1.09-.8a.27.27 0 0 1-.07-.09.3.3 0 0 1-.04-.12l-.08-1.47a.3.3 0 0 0-.04-.13.26.26 0 0 0-.09-.1.23.23 0 0 0-.24 0l-1.15.68a.22.22 0 0 1-.22 0l-1.16-.65a.22.22 0 0 0-.23 0 .27.27 0 0 0-.1.1.3.3 0 0 0-.03.14l-.06 1.46a.3.3 0 0 1-.03.12.27.27 0 0 1-.08.1l-1.07.82a.27.27 0 0 0-.08.1.31.31 0 0 0 0 .26c.02.04.05.08.08.1l1.09.8c.03.02.06.05.07.09a.3.3 0 0 1 .04.12l.08 1.47c0 .05.02.1.04.13.02.04.05.07.09.1l.12.03.12-.03 1.15-.68a.22.22 0 0 1 .22 0l1.16.65a.22.22 0 0 0 .23 0 .27.27 0 0 0 .1-.1.3.3 0 0 0 .03-.14l.06-1.46a.3.3 0 0 1 .03-.12.27.27 0 0 1 .08-.1l1.07-.82a.27.27 0 0 0 .08-.1.3.3 0 0 0 0-.26.27.27 0 0 0-.08-.1Zm12.59 8.79c.52.24.5.37-.1.37h-9.17a.5.5 0 0 1-.46-.25l-2.95-4.77c-.2-.33-.11-.45.29-.37.59.14 1.08.1 1.47-.13a.8.8 0 0 1 .72-.05c.87.31 1.37.51 1.5.59 4 2.23 6.89 3.76 8.7 4.6Z" fill="red"/></svg>