<!-- by TradeStack --><svg width="56" height="56" viewBox="0 0 56 56" xmlns="http://www.w3.org/2000/svg"><path fill="#F0F3FA" d="M0 0h56v56H0z"/><path d="M17.48 33.68c-.3-.63-.77-.79-1.55-.79-.4 0-.86.47-1.17.79-.39.4.39 1.58.39 1.97 0 .4.39.8.78 1.58.39.8.78 1.98 3.11 3.95 2.34 1.98 5.45 2.37 8.57 2.77 2.5.32 5.45-.92 6.62-1.58h-1.95c-.78 0-1.56.4-2.33.4-.78 0 0-.8-1.56-.8s-5.84-2.37-6.62-2.76c-.78-.4-1.56-1.98-1.95-2.77-.39-.79-1.17-.39-1.56-1.18-.3-.63.13-.53.4-.4 0-.39-.79-.39-1.18-1.18Z" fill="#799443"/><path d="M20.47 20.05c.57-.4.65-.9.53-1.68-.07-.39-.6-.78-.96-1.05-.44-.33-1.47.64-1.86.7-.38.06-.7.51-1.42 1.03-.7.51-1.8 1.09-3.36 3.74-1.55 2.65-1.45 5.83-1.35 9.01.08 2.55 1.75 5.32 2.57 6.39l-.3-1.95c-.12-.78-.63-1.5-.75-2.28-.12-.78.77-.13.53-1.69-.25-1.56 1.4-6.22 1.65-7.06.27-.84 1.68-1.87 2.4-2.38.7-.52.2-1.24.9-1.75.57-.41.54.05.45.33.38-.06.26-.84.97-1.36Z" fill="#FFB30D"/><path d="M34.08 19.79c.54.45 1.03.4 1.74.08.36-.16.6-.79.75-1.2.2-.53-.99-1.29-1.14-1.65-.16-.36-.68-.56-1.35-1.12s-1.5-1.48-4.43-2.33c-2.92-.84-5.93.09-8.93 1-2.4.75-4.61 3.1-5.42 4.18l1.78-.8c.71-.32 1.27-1 1.98-1.33.71-.32.32.73 1.74.08 1.42-.64 6.28-.24 7.15-.2.87.04 2.22 1.16 2.9 1.73.66.56 1.22-.13 1.89.44.54.45.1.53-.2.52.16.36.87.04 1.54.6Z" fill="#DD9140"/><path d="M38.69 29.7c-.17.7.08 1.12.66 1.64.3.26.96.21 1.4.18.54-.03.72-1.45.98-1.74.26-.3.22-.86.44-1.72.21-.85.69-2 .2-5.05-.48-3.04-2.57-5.42-4.67-7.8-1.67-1.89-4.7-2.93-6.01-3.21l1.47 1.3c.59.52 1.43.74 2.02 1.26.58.51-.52.6.66 1.63 1.17 1.04 2.87 5.68 3.2 6.5.33.81-.1 2.52-.32 3.38-.22.85.62 1.07.4 1.93-.17.68-.43.3-.54.04-.26.3.33.81.11 1.67Z" fill="#E57920"/><path d="M29.04 38.29c-.7 0-1.04.37-1.38 1.08-.17.36.05.99.2 1.41.18.53 1.57.32 1.92.5.36.17.88-.02 1.75-.04.87-.01 2.09.14 4.85-1.14 2.77-1.3 4.46-3.97 6.15-6.65 1.36-2.15 1.54-5.39 1.45-6.74l-.84 1.78c-.33.71-.32 1.6-.65 2.3-.34.72-.7-.33-1.38 1.1-.67 1.42-4.62 4.32-5.31 4.86-.69.54-2.43.57-3.3.59-.87.01-.85.9-1.72.91-.7.02-.42-.34-.19-.52-.35-.17-.68.54-1.55.56Z" fill="#548045"/></svg>