<!-- by TradeStack --><svg width="56" height="56" viewBox="0 0 56 56" xmlns="http://www.w3.org/2000/svg"><path fill="#F0F3FA" d="M0 0h56v56H0z"/><circle cx="17" cy="32" r="1" fill="#FF9609"/><circle cx="14" cy="34" r="1" fill="#FF9609"/><circle cx="17" cy="36" r="1" fill="#FF9609"/><circle cx="21" cy="37" r="1" fill="#FF9609"/><circle cx="25" cy="37" r="1" fill="#FF9609"/><circle cx="37" cy="31" r="1" fill="#FF9609"/><circle cx="39" cy="28" r="1" fill="#FF9609"/><circle cx="40" cy="25" r="1" fill="#FF9609"/><circle cx="41" cy="22" r="1" fill="#FF9609"/><circle cx="41" cy="19" r="1" fill="#FF9609"/><circle cx="39" cy="16" r="1" fill="#FF9609"/><circle cx="36" cy="18" r="1" fill="#FF9609"/><circle cx="34" cy="20" r="1" fill="#FF9609"/><path d="M24 29V17h1v12h-1ZM11 18H7v-1h9v1h-4v11h-1V18ZM19 20c2.38 0 3.5 2.42 3.5 4.5v.5h-6.47c.2 1.6 1.23 3 2.97 3 1.08 0 2.5-.5 2.5-1.5h1c0 1.63-2 2.5-3.5 2.5-2.48 0-4-2.17-4-4.5 0-2.44 1.37-4.5 4-4.5Zm-2.98 4h5.45c-.14-1.39-.85-3-2.47-3-1.84 0-2.84 1.28-2.98 3ZM31 20c2.38 0 3.5 2.42 3.5 4.5v.5h-6.47c.2 1.6 1.23 3 2.97 3 1.08 0 2.5-.5 2.5-1.5h1c0 1.63-2 2.5-3.5 2.5-2.48 0-4-2.17-4-4.5 0-2.44 1.37-4.5 4-4.5Zm-2.98 4h5.45c-.14-1.39-.85-3-2.47-3-1.84 0-2.84 1.28-2.98 3ZM35 30v2h1v-2h-1Zm0 3v9h1v-9h-1ZM40.48 37.6 37 33h1.2l2.86 3.78L43.75 33h1.17l-3.26 4.58L45 42h-1.2l-2.72-3.6-2.56 3.6h-1.17l3.13-4.4ZM26 30h7v1h-6v5h6v1h-6v5h-1V30Z" fill="#003977"/></svg>