<!-- by TradeStack --><svg width="56" height="56" viewBox="0 0 56 56" fill="none" xmlns="http://www.w3.org/2000/svg">
<rect width="56" height="56" fill="#F0F3FA"/>
<path d="M8.28557 20.7205C7.91285 20.7205 7.75487 20.7395 7.51416 20.7776C7.28121 20.8158 7.08709 20.8958 6.93179 21.0178C6.78426 21.1398 6.6639 21.3113 6.57072 21.5324C6.48531 21.7459 6.40378 22.0318 6.32613 22.3901H6L6.08153 20H13.4337L13.5152 22.3901H13.1891C13.1115 22.0318 13.0261 21.7459 12.9329 21.5324C12.8475 21.3113 12.731 21.1398 12.5835 21.0178C12.4359 20.8958 12.2418 20.8158 12.0011 20.7776C11.7604 20.7395 11.4498 20.7205 11.0693 20.7205H10.3588V27.5934C10.3588 27.8297 10.3743 28.0203 10.4054 28.1652C10.4365 28.31 10.4947 28.4244 10.5801 28.5083C10.6733 28.5921 10.8014 28.6531 10.9645 28.6912C11.1353 28.7217 11.3566 28.7446 11.6284 28.7598V29H7.76143V28.7598C8.03321 28.7446 8.25062 28.7217 8.41369 28.6912C8.57675 28.6531 8.70099 28.5883 8.7864 28.4968C8.87958 28.3977 8.93782 28.2643 8.96112 28.0966C8.99218 27.9288 9 27.7078 9 27.4333V20.7205H8.28557Z" fill="#1C5F9A"/>
<path d="M18.1096 20C18.7385 20 19.3364 20.1296 19.9033 20.3888C20.4779 20.648 20.9632 21.0064 21.3592 21.4638C21.6853 21.8526 21.9377 22.3062 22.1163 22.8247C22.2949 23.3431 22.3842 23.8996 22.3842 24.4943C22.3842 25.1576 22.2754 25.7675 22.058 26.324C21.8484 26.8729 21.5494 27.3456 21.1612 27.7421C20.7807 28.1385 20.3226 28.4473 19.7868 28.6684C19.2588 28.8895 18.6764 29 18.0397 29C17.3952 29 16.8051 28.8895 16.2693 28.6684C15.7335 28.4473 15.2754 28.1385 14.8949 27.7421C14.5144 27.338 14.2193 26.8577 14.0097 26.3011C13.8 25.7446 13.6952 25.1309 13.6952 24.46C13.6952 23.8043 13.8039 23.202 14.0213 22.6531C14.2387 22.1042 14.5416 21.6353 14.9298 21.2465C15.3181 20.8501 15.7801 20.5451 16.3159 20.3316C16.8594 20.1105 17.4573 20 18.1096 20ZM17.9931 20.4574C17.6281 20.4574 17.2787 20.5413 16.9448 20.709C16.6109 20.8691 16.3197 21.094 16.0713 21.3837C15.9393 21.5362 15.8189 21.7268 15.7102 21.9555C15.6093 22.1842 15.52 22.4358 15.4423 22.7103C15.3647 22.9771 15.3064 23.263 15.2676 23.568C15.2288 23.8729 15.2094 24.1779 15.2094 24.4828C15.2094 25.2681 15.3142 25.9657 15.5238 26.5756C15.7335 27.1855 16.0247 27.6429 16.3974 27.9479C16.8633 28.3367 17.4146 28.5311 18.0513 28.5311C18.3852 28.5311 18.6997 28.4701 18.9948 28.3482C19.2976 28.2262 19.5616 28.0546 19.7868 27.8335C20.5089 27.1398 20.87 26.0038 20.87 24.4257C20.87 23.6709 20.7613 23 20.5439 22.413C20.3342 21.8259 20.0391 21.3723 19.6587 21.0521C19.1695 20.6557 18.6143 20.4574 17.9931 20.4574Z" fill="#1C5F9A"/>
<path d="M31.1215 22.939C31.0594 22.7255 30.9973 22.5426 30.9351 22.3901C30.873 22.23 30.807 22.0889 30.7371 21.967C30.675 21.8374 30.6012 21.723 30.5158 21.6239C30.4382 21.5248 30.345 21.4219 30.2363 21.3151C29.9723 21.0483 29.6695 20.8501 29.3278 20.7205C28.9939 20.5832 28.6367 20.5146 28.2562 20.5146C27.7748 20.5146 27.3361 20.6061 26.9401 20.7891C26.5518 20.972 26.2179 21.2351 25.9384 21.5781C25.6666 21.9136 25.457 22.3215 25.3095 22.8018C25.1619 23.2821 25.0882 23.8158 25.0882 24.4028C25.0882 25.1652 25.193 25.8323 25.4026 26.4041C25.6123 26.9759 25.9112 27.4219 26.2995 27.7421C26.8818 28.1995 27.5768 28.4282 28.3844 28.4282C28.9357 28.4282 29.4443 28.3253 29.9102 28.1194C30.3761 27.9136 30.8575 27.5781 31.3544 27.1131L31.5874 27.3418C31.1836 27.8679 30.6673 28.2757 30.0383 28.5654C29.4171 28.8551 28.726 29 27.9651 29C27.305 29 26.7033 28.8933 26.1597 28.6798C25.6162 28.4663 25.1503 28.169 24.762 27.7878C24.3738 27.399 24.0709 26.9339 23.8535 26.3926C23.6439 25.8513 23.539 25.249 23.539 24.5858C23.539 23.831 23.6711 23.1525 23.9351 22.5502C24.1991 21.9403 24.5873 21.4295 25.0998 21.0178C25.5036 20.6976 25.9578 20.4498 26.4625 20.2745C26.9673 20.0915 27.4759 20 27.9884 20C28.6484 20 29.3006 20.1067 29.9451 20.3202C30.1625 20.3964 30.3372 20.4346 30.4692 20.4346C30.6012 20.4346 30.7138 20.3964 30.807 20.3202C30.908 20.244 30.9778 20.1372 31.0167 20H31.2962L31.4243 22.939H31.1215Z" fill="#1C5F9A"/>
<path d="M40.3247 22.939C40.2626 22.7255 40.2005 22.5426 40.1384 22.3901C40.0763 22.23 40.0103 22.0889 39.9404 21.967C39.8783 21.8374 39.8045 21.723 39.7191 21.6239C39.6414 21.5248 39.5483 21.4219 39.4395 21.3151C39.1755 21.0483 38.8727 20.8501 38.531 20.7205C38.1972 20.5832 37.84 20.5146 37.4595 20.5146C36.9781 20.5146 36.5393 20.6061 36.1433 20.7891C35.7551 20.972 35.4212 21.2351 35.1417 21.5781C34.8699 21.9136 34.6602 22.3215 34.5127 22.8018C34.3652 23.2821 34.2914 23.8158 34.2914 24.4028C34.2914 25.1652 34.3962 25.8323 34.6059 26.4041C34.8155 26.9759 35.1145 27.4219 35.5027 27.7421C36.0851 28.1995 36.7801 28.4282 37.5876 28.4282C38.1389 28.4282 38.6475 28.3253 39.1134 28.1194C39.5793 27.9136 40.0607 27.5781 40.5577 27.1131L40.7906 27.3418C40.3869 27.8679 39.8705 28.2757 39.2415 28.5654C38.6203 28.8551 37.9293 29 37.1683 29C36.5083 29 35.9065 28.8933 35.363 28.6798C34.8194 28.4663 34.3535 28.169 33.9653 27.7878C33.577 27.399 33.2742 26.9339 33.0568 26.3926C32.8471 25.8513 32.7423 25.249 32.7423 24.5858C32.7423 23.831 32.8743 23.1525 33.1383 22.5502C33.4023 21.9403 33.7906 21.4295 34.303 21.0178C34.7068 20.6976 35.1611 20.4498 35.6658 20.2745C36.1705 20.0915 36.6791 20 37.1916 20C37.8516 20 38.5039 20.1067 39.1484 20.3202C39.3658 20.3964 39.5405 20.4346 39.6725 20.4346C39.8045 20.4346 39.9171 20.3964 40.0103 20.3202C40.1112 20.244 40.1811 20.1372 40.2199 20H40.4995L40.6276 22.939H40.3247Z" fill="#1C5F9A"/>
<path d="M50 29H46.6106V28.7456C46.7271 28.7456 46.8241 28.7456 46.9018 28.7456C46.9794 28.738 47.0416 28.7303 47.0882 28.7227C47.1425 28.7075 47.1891 28.696 47.2279 28.6884C47.2667 28.6732 47.3056 28.6541 47.3444 28.6312C47.4065 28.5931 47.4531 28.5474 47.4842 28.494C47.523 28.433 47.5424 28.372 47.5424 28.311C47.5424 28.0975 47.457 27.8002 47.2862 27.419L46.7271 26.1725H43.2562L42.6389 27.6935C42.6078 27.7773 42.5806 27.865 42.5573 27.9565C42.5418 28.0404 42.534 28.1242 42.534 28.2081C42.534 28.3834 42.6039 28.5169 42.7437 28.6083C42.8834 28.6998 43.1164 28.7456 43.4425 28.7456V29H40.7986V28.7456C40.9616 28.738 41.1014 28.7113 41.2179 28.6655C41.3343 28.6198 41.4508 28.5245 41.5673 28.3796C41.6838 28.2272 41.808 28.0137 41.94 27.7392C42.0798 27.4571 42.2545 27.0759 42.4641 26.5956L45.2246 20H45.4808L48.8003 27.602C48.909 27.846 49.0022 28.0404 49.0799 28.1852C49.1653 28.3301 49.2507 28.4444 49.3361 28.5283C49.4215 28.6045 49.5147 28.6579 49.6156 28.6884C49.7243 28.7189 49.8525 28.738 50 28.7456V29ZM46.5524 25.6465L45.0149 21.8755L43.4775 25.6465H46.5524Z" fill="#1C5F9A"/>
<path fill-rule="evenodd" clip-rule="evenodd" d="M23.3562 40L24.0114 37.6429H23.6721C23.5629 37.873 23.4615 38.0714 23.3679 38.2381C23.2822 38.4048 23.1925 38.5437 23.0989 38.6548C22.8571 38.9325 22.5451 39.1389 22.1629 39.2738C21.7885 39.4087 21.3167 39.4762 20.7473 39.4762H19.8582C19.6086 39.4762 19.4097 39.4722 19.2615 39.4643C19.1133 39.4484 18.9963 39.4206 18.9105 39.381C18.8247 39.3413 18.7662 39.2857 18.735 39.2143C18.7116 39.1349 18.6999 39.0357 18.6999 38.9167V32.4881C18.6999 32.25 18.7155 32.0556 18.7467 31.9048C18.7779 31.754 18.8364 31.6349 18.9222 31.5476C19.008 31.4524 19.1328 31.3889 19.2966 31.3571C19.4604 31.3175 19.6749 31.2897 19.94 31.2738V31H16.1846V31.2738C16.4264 31.2897 16.6213 31.3175 16.7695 31.3571C16.9255 31.3968 17.0464 31.4603 17.1322 31.5476C17.218 31.6349 17.2726 31.754 17.296 31.9048C17.3272 32.0556 17.3428 32.25 17.3428 32.4881V38.5357C17.3428 38.7738 17.3272 38.9683 17.296 39.119C17.2648 39.2698 17.2063 39.3889 17.1205 39.4762C17.0425 39.5635 16.9255 39.627 16.7695 39.6667C16.6213 39.7063 16.4264 39.7341 16.1846 39.75V40H23.3562ZM33.1054 40L38.8437 40.0001L39.318 37.9577H39.017C38.8893 38.2893 38.7586 38.5574 38.6248 38.762C38.491 38.9665 38.3329 39.1288 38.1504 39.2487C37.9741 39.3687 37.7582 39.4498 37.5028 39.4921C37.2534 39.5344 36.9433 39.5556 36.5723 39.5556H36.214C35.9586 39.5556 35.6174 39.545 35.4289 39.5238C35.2465 39.4956 35.1309 39.4638 35.0823 39.4286C35.0519 39.4004 35.0306 39.358 35.0184 39.3016C35.0063 39.2452 35.0002 39.157 35.0002 39.037V36.0039L36.7821 36.004C37.0011 36.004 37.1774 36.0181 37.3112 36.0463C37.445 36.0745 37.5514 36.1309 37.6305 36.2156C37.7095 36.2932 37.7703 36.4096 37.8129 36.5648C37.8555 36.713 37.895 36.914 37.9315 37.168H38.1778V34.3637H37.9315C37.895 34.6107 37.8555 34.8082 37.8129 34.9563C37.7703 35.1045 37.7065 35.2209 37.6213 35.3055C37.5423 35.3831 37.4359 35.4361 37.3021 35.4643C37.1683 35.4925 36.995 35.5066 36.7821 35.5066L35.0002 35.5066V32.8783C35.0002 32.7019 35.0215 32.5891 35.064 32.5397C35.1127 32.4903 35.2069 32.4656 35.3468 32.4656L36.9372 32.4657C37.2291 32.4657 37.4663 32.4798 37.6487 32.508C37.8372 32.5362 37.9862 32.5962 38.0957 32.6879C38.2112 32.7796 38.2994 32.9101 38.3602 33.0794C38.421 33.2417 38.4758 33.4604 38.5244 33.7355H38.7707L38.7525 32.0001L33.1054 32V32.2434C33.2939 32.2575 33.446 32.2822 33.5615 32.3175C33.6831 32.3527 33.7774 32.4092 33.8443 32.4868C33.9112 32.5644 33.9538 32.6702 33.972 32.8042C33.9963 32.9383 34.0002 33.1111 34.0002 33.3228V38.6984C34.0002 38.9101 33.9963 39.0829 33.972 39.2169C33.9477 39.351 33.9021 39.4568 33.8352 39.5344C33.7744 39.612 33.6831 39.6684 33.5615 39.7037C33.446 39.739 33.2939 39.7637 33.1054 39.7778V40ZM25.0006 33.2396V33.2394C25.003 32.8446 25.0056 32.405 24.5405 32.3069C24.4067 32.2787 24.2303 32.2575 24.0114 32.2434V32.0001H27.0266V32.2434C26.8077 32.2505 26.6313 32.2717 26.4976 32.3069C26.3638 32.3352 26.2604 32.3881 26.1874 32.4657C26.1144 32.5433 26.0658 32.6526 26.0415 32.7937C26.0171 32.9277 26.005 33.1041 26.005 33.3228V38.6985C26.005 38.9172 26.0171 39.0971 26.0415 39.2381C26.0719 39.3722 26.1236 39.478 26.1965 39.5556C26.2695 39.6332 26.3729 39.6896 26.5067 39.7249C26.6405 39.7531 26.8138 39.7708 27.0266 39.7778V40.0001H24.0114V39.7778C24.2303 39.7708 24.4067 39.7531 24.5405 39.7249C25.0026 39.6031 25.0014 39.1598 25.0003 38.7567L25.0002 38.6985V33.3228C25.0002 33.2955 25.0004 33.2679 25.0006 33.24V33.2398V33.2396ZM32.0478 37.1605C32.0174 36.9206 31.9779 36.7266 31.9293 36.5785C31.8867 36.4233 31.8228 36.3033 31.7377 36.2187C31.6586 36.134 31.5492 36.0776 31.4093 36.0494C31.2755 36.0141 31.1052 35.9965 30.8985 35.9965H29.3934V38.6985C29.3934 38.9101 29.4025 39.0829 29.4207 39.217C29.445 39.351 29.4907 39.4604 29.5576 39.545C29.6305 39.6226 29.7278 39.6791 29.8495 39.7143C29.9772 39.7426 30.1414 39.7637 30.342 39.7778V40.0001H27.4321V39.7778C27.6267 39.7637 27.7818 39.739 27.8974 39.7038C28.019 39.6685 28.1102 39.6085 28.171 39.5239C28.2379 39.4322 28.2805 39.3122 28.2987 39.1641C28.323 39.0089 28.3352 38.8043 28.3352 38.5503V33.3228C28.3352 33.1112 28.323 32.9383 28.2987 32.8043C28.2805 32.6702 28.2379 32.5644 28.171 32.4868C28.1041 32.4092 28.0099 32.3528 27.8882 32.3175C27.7727 32.2822 27.6207 32.2575 27.4321 32.2434V32.0001H32.96L32.9783 33.7355H32.732C32.6833 33.4604 32.6286 33.2417 32.5678 33.0794C32.507 32.9101 32.4188 32.7796 32.3033 32.6879C32.1938 32.5962 32.0448 32.5362 31.8563 32.508C31.6738 32.4798 31.4367 32.4657 31.1448 32.4657H29.7309C29.5849 32.4657 29.4907 32.4904 29.4481 32.5397C29.4116 32.5891 29.3934 32.702 29.3934 32.8784V35.4991H30.8985C31.1052 35.4991 31.2755 35.485 31.4093 35.4568C31.5492 35.4286 31.6586 35.3721 31.7377 35.2875C31.8228 35.2028 31.8867 35.0864 31.9293 34.9383C31.9779 34.7901 32.0174 34.5961 32.0478 34.3562H32.2941V37.1605H32.0478Z" fill="#1C5F9A"/>
</svg>
