<!-- by TradeStack --><svg width="56" height="56" viewBox="0 0 56 56" xmlns="http://www.w3.org/2000/svg"><path fill="#F0F3FA" d="M0 0h56v56H0z"/><path d="M4 24.69 4.48 23l.38.26h7.1l.63-.26-.17 1.9h-.2c.04-.35-.03-.9-.66-.9H9v7.98c0 .42.4.76.84.76h.43V33H7.02v-.26h.15c.44 0 .83-.34.83-.76V24H5.1l-.04.01c-.22.07-.62.19-.77.68H4Zm19.25 8.13c.43 0 .75-.34.75-.77v-8.03a.75.75 0 0 0-.75-.76H23V23h3v.26h-.17c-.43 0-.83.34-.83.76v7.96c0 .28.28.51.57.51h2.4c.71 0 1.03-.87 1.1-1.3h.19L28.88 33h-5.92v-.18h.29Zm-11.3-.02v.2h3.1v-.2h-.6c-.32 0-.34-.44-.32-.65l1.06-3.02h3.12l1.43 3.67h-.38v.2h2.88v-.2h-.67c-.52 0-.93-.62-1.06-.93L17.04 23h-.3s-2.6 7.22-3.06 8.32a4.28 4.28 0 0 1-.92 1.48h-.82Zm6.22-4.03H15.3l1.35-3.85 1.5 3.85ZM41 32.84V33h3.4v-.16h-.42c-.58 0-.98-.47-.98-1.03V25l7.45 8H51v-8.64c0-.56.25-1.03.83-1.03H52V23h-3.33v.33h.4c.58 0 .93.47.93 1.03v6.86L42.42 23H42v8.8a1 1 0 0 1-1 1.04Zm-5.48.16c2.62 0 4.8-1.65 5.37-3.87l-1.35.15a4.06 4.06 0 0 1-3.52 3.2c-2.28.2-4.35-1.63-4.62-4.1-.04-.3-.04-.58-.02-.86-.6-.33-.99-.7-1.16-.93-.14.45-.22.92-.22 1.41 0 2.76 2.47 5 5.52 5Zm0-10c2.83 0 5.17 1.94 5.48 4.43h-1.39c-.35-2.37-2.38-4.1-4.6-3.9a3.92 3.92 0 0 0-2.96 1.87l-1.13-.16a5.68 5.68 0 0 1 4.6-2.24Z" fill="url(#awmegexuc)"/><path d="M29.85 25.26a4.88 4.88 0 0 1-1.89-1.23l.78.98-2.02-.98 1.88 1.23-1.68-.7 1.19.8-1.32-.46 1.43.7c.18.07.7.49 1 .62.3.13.63.1.94.27.32.17 1.58 1.14 2.26 1.44.53.23 1.34.67 1.68.87-.53.38-1.56 1.17-1.52 1.31.06.17.96.32 1 .3.04-.03.28-.34 1.26-.98.8-.51.82-.48.74-.4.42.02 1.48.04 2.42 0 1.16-.06 2.78-.3 3.74-.36.96-.07 1.36-.4 1.4-.42.03 0 .43-.32.62-.47l-.93.35.48-.63s-.43.33-.66.43c-.23.1-.58 0-1.63-.15-1.06-.15-2.56-.1-3.56-.18-.8-.06-.8-.16-.71-.2l.2-.1c-.01-.12-.08-.38-.3-.41-.27-.05-.38 0-.57.16-.15.13-.43.14-.55.13-.82-.13-1.32-.56-2.04-.96a5.47 5.47 0 0 0-1.16-.52c-.03 0-1.55-.2-2.48-.44Z" fill="url(#bwmegexuc)"/><defs><linearGradient id="awmegexuc" x1="28" y1="23" x2="28" y2="33" gradientUnits="userSpaceOnUse"><stop stop-color="#09556F"/><stop offset="1" stop-color="#103748"/></linearGradient><linearGradient id="bwmegexuc" x1="25.99" y1="25.05" x2="31.86" y2="28.15" gradientUnits="userSpaceOnUse"><stop stop-color="#084863"/><stop offset="1" stop-color="#020B12"/></linearGradient></defs></svg>