<!-- by TradeStack --><svg width="56" height="56" viewBox="0 0 56 56" xmlns="http://www.w3.org/2000/svg"><path fill="#F0F3FA" d="M0 0h56v56H0z"/><circle cx="28" cy="28" r="16.45" fill="url(#a)"/><path fill-rule="evenodd" d="M28 45a17 17 0 1 0 0-34 17 17 0 0 0 0 34Zm0-1a16 16 0 1 0 0-32 16 16 0 0 0 0 32Z" fill="#545253"/><circle cx="28" cy="28" r="13" fill="#291414"/><ellipse cx="28" cy="28.5" rx="11" ry="12.5" fill="url(#b)"/><path d="M24 22.44c.36.5.24 1.18-.19 1.62A5.78 5.78 0 0 0 28 33.8a5.78 5.78 0 0 0 4.19-9.75c-.43-.44-.55-1.13-.2-1.62.36-.49 1.05-.6 1.49-.19a7.91 7.91 0 0 1 2.52 5.8c0 4.39-3.58 7.95-8 7.95s-8-3.56-8-7.95c0-2.29.97-4.35 2.52-5.8.44-.41 1.13-.3 1.48.19Z" fill="#FFFDF3"/><path d="M26.5 20.32c0-.73.67-1.32 1.5-1.32s1.5.59 1.5 1.32v8.36c0 .73-.67 1.32-1.5 1.32s-1.5-.59-1.5-1.32v-8.36Z" fill="#FFFDF3"/><defs><linearGradient id="a" x1="28" y1="11.55" x2="28" y2="44.45" gradientUnits="userSpaceOnUse"><stop offset=".36" stop-color="#FDFDF9"/><stop offset=".89" stop-color="#929090"/></linearGradient><linearGradient id="b" x1="28" y1="16" x2="28" y2="41" gradientUnits="userSpaceOnUse"><stop stop-color="#A08688"/><stop offset=".49" stop-color="#833441"/><stop offset=".74" stop-color="#CF8527"/><stop offset="1" stop-color="#FAE66C"/></linearGradient></defs></svg>