<!-- by TradeStack --><svg width="56" height="56" viewBox="0 0 56 56" xmlns="http://www.w3.org/2000/svg"><path fill="#007F91" d="M0 0h56v56H0z"/><path fill-rule="evenodd" d="m10.9 26.84-1.85.8.05-.14h-.47l.44-1.5h-.74l-.45 1.5h-.42l-.32.6h.56l-.05.18-1.95.92L4 30c.8-.32 2.03-.78 3.53-1.31l-.26.88c-.13.47-.13 1.43.96 1.43a3 3 0 0 0 .79-.17l.05-.62a.99.99 0 0 1-.65.21c-.42 0-.4-.7-.25-1.27l.2-.76 2.32-.79-.96 3.4h.92l.6-2.12c.3-.5.93-1.22 1.73-1.22 1.13 0 .78 1.23.47 2.2-.25.78-.34 1.08-.35 1.14h.86c.25-.74.73-2.34.73-2.86 0-.64-.45-1.14-1.32-1.14-.63 0-1.34.35-1.8.8l.16-.54c3.83-1.25 8.3-2.55 12.08-3.31 7.11-1.42 18.07-2.3 18.07.23 0 1.26-2 2.87-4.1 4.17l-.7-1.35h-1.4l-3.21 3.43h-2.78l.84-3.43H29.4l-1.07 4h4.84l3.14-3.48.58 1.36a35 35 0 0 1-2.6 1.35c.78-.28 1.7-.68 2.68-1.16l.81 1.93h1.35l-1.23-2.39c3.48-1.78 7.22-4.23 7.22-5.46 0-1.69-3.96-3.37-18.3-.9a72.08 72.08 0 0 0-14.85 4.15l.4-1.4h-.94l-.52 1.84ZM16.13 29h3.27a1 1 0 0 0 .33-.73c0-.5-.42-1.27-1.64-1.27s-2.87.92-2.87 2.71 2.95 1.3 3.61.98v-.61a4 4 0 0 1-1.57.38c-.8 0-1.72-.4-1.13-1.46Zm.14-.5h2.6c.12-.33.08-1-.98-1s-1.52.67-1.62 1Zm4.56 2.5h-.85l.98-4h.84l-.19.77a2.8 2.8 0 0 1 1.86-.77v.82a2.15 2.15 0 0 0-2.1.97L20.81 31Zm3.13-3.33.6.26c.06-.11.33-.34.9-.34.7 0 .83.23.83.62l-.05.35c-1.22-.04-3.36.22-3.36 1.62 0 .6.79.78 1.19.79.38 0 1.11-.07 1.7-.57l-.16.6h.86c.25-.74.74-2.35.74-2.88 0-.68-.73-1.12-1.6-1.12-.7 0-1.38.32-1.65.67Zm1.98 2.13c.07-.29.15-.57.2-.82a4.44 4.44 0 0 0-1.58.15c-.71.24-1.25 1.3-.2 1.3.73 0 1.3-.37 1.58-.63Zm14.32.3a8.4 8.4 0 0 0-.5.65c.1.08.66.25 2.17.25 1.9 0 3.24-.49 3.24-1.13 0-.65-1.23-.98-1.7-1.06l-.11-.01c-.53-.1-1.62-.27-1.62-.64 0-.4.6-.66 1.74-.66.9 0 1.3.32 1.39.49l.6-.5a3.94 3.94 0 0 0-1.92-.49c-1.76 0-2.9.47-2.9 1.16 0 .7 1.25.99 1.77 1.06.52.08 1.56.29 1.52.65-.04.36-.64.64-1.96.64-1.06 0-1.59-.28-1.72-.42ZM51 27h-4.56l-.96 4h4.72l.12-.55H46.7l.26-1.1h3.21l.18-.35h-3.3l.36-1.5h3.45L51 27Z" fill="#fff"/></svg>