<!-- by TradeStack --><svg width="56" height="56" viewBox="0 0 56 56" xmlns="http://www.w3.org/2000/svg"><path fill="#F0F3FA" d="M0 0h56v56H0z"/><path d="M26.74 16a8.98 8.98 0 0 1-7.46 3.33H11v-2.71a.6.6 0 0 1 .18-.44.63.63 0 0 1 .45-.18h15.11Z" fill="#1975FE"/><path d="M45 18v5h-8.32c-5.1.04-8.68 4.23-8.68 9.13V42l-5 3.86a.62.62 0 0 1-.92-.15.6.6 0 0 1-.1-.33V31.62c0-3.12-2.3-5.64-5.4-5.62h-4.95a.66.66 0 0 1-.44-.2.62.62 0 0 1-.19-.44V24h10.39c6.48 0 9.6-6 15.99-6H45Z" fill="#72BF44"/><path d="M45 23v2.36a.66.66 0 0 1-.63.64h-4.96A5.48 5.48 0 0 0 34 31.66v5.76a.7.7 0 0 1-.33.62L28 42V32c0-4.86 3.68-8.96 8.69-9H45Z" fill="#1975FE"/><path d="M45 16.62V18h-7.62c-6.3 0-9.58 6-16 6H11v-5h8.28c3.03 0 5.56-.66 7.46-3h17.63a.63.63 0 0 1 .58.38.6.6 0 0 1 .05.24Z" fill="#31D8FF"/></svg>