<!-- by TradeStack --><svg width="56" height="56" viewBox="0 0 56 56" xmlns="http://www.w3.org/2000/svg"><path fill="#F0F3FA" d="M0 0h56v56H0z"/><path d="M38.3 24c-2.16-4.68-6.98-7.58-12.14-6.46-9.35 2.02-11.63 14.11-3.75 19.32A11.72 11.72 0 0 0 29 38.7v2.27c0 .09-.04.13-.13.13l-1.6.04a.32.32 0 0 0-.27.17l-1.37 2.6a.18.18 0 0 1-.2.1 18.16 18.16 0 0 1-3.37-1 .16.16 0 0 1-.1-.16l.28-3.01a.2.2 0 0 0-.1-.2l-2.5-1.7a.18.18 0 0 0-.19-.02l-2.77 1.4c-.07.04-.14.02-.19-.04l-2.13-2.76c-.07-.08-.06-.16 0-.23l2.06-2.3a.19.19 0 0 0 .04-.2l-1.04-2.85a.19.19 0 0 0-.15-.12l-3.03-.5c-.1-.02-.15-.08-.15-.18L12 26.67c0-.04.01-.07.03-.1a.16.16 0 0 1 .1-.06l3.02-.67a.2.2 0 0 0 .15-.13l.86-2.85a.24.24 0 0 0-.06-.23l-2.13-2.14c-.06-.06-.07-.12-.03-.2a17.47 17.47 0 0 1 1.97-2.86c.09-.1.19-.12.3-.07l2.73 1.18c.07.04.14.03.2-.02l2.43-1.86c.06-.04.08-.1.07-.17l-.49-3.02a.19.19 0 0 1 .12-.2l3.22-1.15a.25.25 0 0 1 .3.11l1.57 2.63c.03.06.08.09.15.08l3.03-.07a.2.2 0 0 0 .17-.1l1.41-2.7c.03-.05.08-.08.15-.07 1.14.2 2.25.52 3.3.97.1.03.13.1.13.2l-.29 2.97a.19.19 0 0 0 .08.16l2.53 1.72a.2.2 0 0 0 .2.02l2.76-1.4c.09-.04.16-.02.22.05l2.12 2.73c.06.08.06.16-.01.23l-2.05 2.32a.17.17 0 0 0-.04.19l.62 1.66c.03.1 0 .18-.1.18H38.3Z" fill="#2C4169"/><path d="M38.3 24h-1.16c-2.37-4.73-7.7-6.9-12.65-4.83-5.81 2.42-7.57 9.79-3.75 14.71 1.91 2.47 4.78 3.71 8.26 3.72v1.1c-2.43.01-4.72-.6-6.6-1.84-7.87-5.2-5.59-17.3 3.76-19.32 5.16-1.12 9.98 1.78 12.14 6.46Z" fill="#F8951D"/><path d="M37.14 24h-2.51c-.1 0-.2-.08-.25-.15-3.84-5.2-12.2-3.6-13.25 2.9-.75 4.7 3.02 8.63 7.75 8.53.08 0 .12.04.12.12l-.02 2.2c-3.48-.01-6.33-1.25-8.24-3.72-3.82-4.92-2.06-12.3 3.75-14.71 4.96-2.07 10.28.1 12.65 4.83Z" fill="#2C4169"/><path d="m36.68 27.1-5.91 10.59c-.04.07-.08.07-.12 0l-1.48-2.58a.17.17 0 0 1 0-.17l4.37-7.87c.02-.03 0-.07-.04-.07h-8.95a.15.15 0 0 1-.15-.08l-1.43-2.27c-.04-.07.01-.15.1-.15H43.9c.09 0 .11.1.07.16l-1.52 2.2c-.04.08-.1.14-.18.14h-5.44a.18.18 0 0 0-.16.1Z" fill="#2C4169"/><path d="M25.08 28h6.85c.05 0 .09.12.06.17l-3.35 5.8-.03.02a.08.08 0 0 1-.08 0 .08.08 0 0 1-.02-.03L25 28.11a.07.07 0 0 1 0-.07l.03-.03.04-.01ZM37.56 28.01l4.35-.01a.1.1 0 0 1 .04.01c.02 0 .03.02.04.03a.08.08 0 0 1 0 .09l-7.17 11.7c-.5.8-1.1 1.41-2.1 1.08-.81-.28-1.28-1.27-1.7-2a.2.2 0 0 1 .01-.2l6.37-10.6c.03-.07.09-.1.16-.1Z" fill="#F8951D"/></svg>