<?xml version='1.0' encoding='utf-8'?>
<!-- by TradeStack -->
<svg width="56" height="56" viewBox="0 0 56 56" xmlns="http://www.w3.org/2000/svg"><path fill="#F0F3FA" d="M0 0h56v56H0z" /><path d="M34 32v-5.97h1.5V32H34Zm0-6.5V24h1.5v1.5H34Zm-1 .5v5.08c0 1.03-.14 1.5-.58 2-.6.65-1.47.92-2.88.92-1.39 0-3.1-.17-3.32-1.77h1.97c.08.52.53.77 1.35.77 1.1 0 1.96-.6 1.96-1.46v-.6c-.57.62-1.47.89-2.4.89-1.78 0-3.1-1.23-3.1-2.9C26 27.2 27.26 26 29.1 26c.96 0 1.89.29 2.4.93V26H33Zm-3.49 1.33c-1.07 0-1.73.6-1.73 1.54 0 1.03.61 1.64 1.72 1.64 1.11 0 2.06-.6 2.06-1.63 0-.96-.97-1.55-2.05-1.55ZM19 32v-6h1.5v1.13A2.77 2.77 0 0 1 22.79 26c1.55 0 2.21.95 2.21 2.36V32h-1.5v-3.25c0-.78-.53-1.35-1.38-1.35-1.01 0-1.62.78-1.62 1.68V32H19Zm25 0v-6h1.5v1.13A2.77 2.77 0 0 1 47.79 26c1.55 0 2.21.95 2.21 2.36V32h-1.5v-3.25c0-.78-.53-1.35-1.38-1.35-1.01 0-1.62.78-1.62 1.68V32H44Zm-28.02-2h1.96c-.63 1.3-1.74 2-3.47 2-2.16 0-3.47-1.1-3.47-2.94 0-1.88 1.32-3.06 3.45-3.06 2.18 0 3.55 1.22 3.55 3.17v.23h-5.16c.07.94.74 1.42 1.68 1.42.7 0 1.07-.26 1.46-.82Zm-3.05-1.64h3.16c-.13-.74-.73-1.17-1.58-1.17-.88 0-1.45.41-1.58 1.17ZM10 30.51V32h-.97C7.4 32 7 31.26 7 29.78v-2.4H6V26h1v-2h1.5v2H10v1.37H8.5v2.27c0 .73.13.87.74.87H10Z" fill="#005280" /><path fill-rule="evenodd" d="M39.96 26c.06.02.12.02.18.02h.17a5.86 5.86 0 0 1 1.74.44l.11.06c.06.02.12.06.17.1l.18.13c.12.08.23.19.33.3l.06.06c.05.05.08.1.11.15l.05.07a1.72 1.72 0 0 1 .22.45.7.7 0 0 1 .08.23c0 .04.02.07.03.1a3.96 3.96 0 0 1-.08 2.05 2.16 2.16 0 0 1-.37.66l-.06.08a7.28 7.28 0 0 1-.59.51 5.13 5.13 0 0 1-.67.31 4.5 4.5 0 0 1-.63.17l-.35.05-.17.03a15.91 15.91 0 0 1-1.22.02c-.12 0-.24-.02-.35-.04a5.26 5.26 0 0 0-.39-.06 1.8 1.8 0 0 0-.13-.03 3.6 3.6 0 0 1-.88-.3 3.07 3.07 0 0 1-1-.8 2.6 2.6 0 0 1-.4-.89 3.85 3.85 0 0 1-.02-1.61 2.54 2.54 0 0 1 .61-1.24l.09-.1a3.3 3.3 0 0 1 1.57-.78c.07 0 .14-.02.2-.03l.1-.01a3.53 3.53 0 0 1 .55-.07l.22-.01h.14c.17-.02.3-.02.4-.01Zm-.57.1-.06.01a.13.13 0 0 0-.1.15v.04c0 .07.07.12.15.11h.05a.13.13 0 0 0 .12-.15v-.04a.13.13 0 0 0-.16-.11Zm1 .13a.15.15 0 0 1-.13.18.17.17 0 0 1-.2-.12c0-.08.05-.16.15-.18.09-.02.17.04.19.12Zm-1.7.26c.1 0 .17-.07.17-.16a.16.16 0 0 0-.17-.16.16.16 0 0 0-.16.16c0 .09.07.16.16.16Zm2.87-.03c0 .1-.07.16-.17.16a.16.16 0 0 1-.16-.16c0-.09.07-.16.16-.16.1 0 .17.07.17.16Zm-3.65-.11-.04.02a.14.14 0 0 0-.05.2l.02.02c.04.07.13.1.2.05l.04-.02a.14.14 0 0 0 .04-.2l-.02-.02a.14.14 0 0 0-.19-.05Zm3.12.26c0 .09-.08.16-.17.16a.16.16 0 0 1-.16-.16c0-.1.07-.16.16-.16.1 0 .17.07.17.16Zm-1.38-.09h-.05a.13.13 0 0 0-.12.16v.03c.01.08.08.13.16.12h.04a.15.15 0 0 0 .13-.15v-.04a.14.14 0 0 0-.16-.12Zm2.57.12.02.03c.06.05.07.13.02.2l-.03.02a.14.14 0 0 1-.2.01l-.02-.02a.14.14 0 0 1-.02-.2l.03-.02a.14.14 0 0 1 .2-.02Zm-4.85.3c.1 0 .16-.08.15-.17 0-.09-.09-.15-.18-.14a.16.16 0 0 0-.15.17c0 .1.09.16.18.15Zm1.23-.11c0 .09-.08.16-.17.16a.17.17 0 0 1-.17-.16c0-.1.08-.17.17-.17.1 0 .17.08.17.17Zm1.65-.12-.04.01a.2.2 0 0 0-.15.25v.04c.03.11.15.18.26.15h.04a.2.2 0 0 0 .16-.26l-.01-.04a.21.21 0 0 0-.26-.15Zm-.9.32c0 .13-.11.23-.24.23a.23.23 0 0 1-.24-.23c0-.12.1-.23.24-.23.13 0 .23.1.23.23Zm2.2.12a.16.16 0 0 0 .07-.22.17.17 0 0 0-.23-.05.16.16 0 0 0-.06.22c.05.07.15.1.23.05Zm-3.5 0a.18.18 0 0 1-.22.1.15.15 0 0 1-.11-.2c.02-.08.12-.13.2-.1.1.03.15.12.12.2Zm-.77.3c.09 0 .16-.08.16-.17a.16.16 0 0 0-.16-.16.16.16 0 0 0-.16.16c0 .1.07.16.16.16Zm5.09-.16c0 .09-.08.16-.17.16a.16.16 0 0 1-.16-.16c0-.1.07-.17.16-.17.1 0 .17.08.17.17Zm-5.62.18c.09 0 .16-.07.16-.16a.16.16 0 0 0-.16-.16c-.1 0-.17.07-.17.16s.08.16.17.16Zm4.44-.02c0 .15-.13.27-.28.27a.28.28 0 0 1-.28-.27c0-.15.13-.27.28-.27.15 0 .28.12.28.27Zm1.6.08c.08 0 .16-.08.16-.17a.16.16 0 0 0-.17-.16.16.16 0 0 0-.16.16c0 .1.07.17.16.17Zm-4.31.26a.27.27 0 0 1-.27-.29.28.28 0 0 1 .29-.26c.15 0 .27.13.26.28 0 .16-.13.28-.28.27Zm1.26 0c.15 0 .28-.13.28-.28a.28.28 0 0 0-.28-.27.28.28 0 0 0-.28.27c0 .15.13.28.28.28Zm2.18-.17c0 .13-.1.23-.23.23a.23.23 0 0 1-.24-.23c0-.13.1-.23.24-.23.13 0 .23.1.23.23Zm-4.22.32c.13 0 .23-.1.23-.23s-.1-.23-.23-.23-.24.1-.24.23c0 .12.1.23.24.23Zm-.53-.13c0 .1-.07.16-.17.16a.16.16 0 0 1-.16-.16c0-.09.07-.16.16-.16.1 0 .17.07.17.16Zm5.32-.13h-.03a.14.14 0 0 0-.15.14v.02c-.01.08.05.15.13.15h.03c.08.01.15-.05.16-.13v-.03a.14.14 0 0 0-.14-.15Zm-2.99.53c0 .21-.17.38-.39.38a.39.39 0 0 1-.4-.38.4.4 0 0 1 .4-.39c.22 0 .4.18.4.39Zm.88.38c.21 0 .39-.17.39-.38a.39.39 0 0 0-.4-.39.4.4 0 0 0-.39.39c0 .21.18.38.4.38Zm-3.83-.56c0 .09-.07.16-.16.16a.16.16 0 0 1-.17-.16c0-.09.08-.16.17-.16.09 0 .16.07.16.16Zm6.58.23c.1 0 .17-.08.17-.17a.16.16 0 0 0-.17-.16.16.16 0 0 0-.16.16c0 .1.07.17.16.17Zm-4.8.07c0 .15-.13.27-.29.27a.28.28 0 0 1-.28-.27c0-.15.13-.27.28-.27.16 0 .28.12.28.27Zm3.04.27c.15 0 .28-.13.28-.28a.28.28 0 0 0-.28-.27.28.28 0 0 0-.28.27c0 .15.12.28.28.28Zm1-.21c0 .12-.1.22-.23.22a.23.23 0 0 1-.24-.22c0-.13.1-.23.24-.23.13 0 .23.1.23.23Zm-5.16.25c.14 0 .24-.1.24-.23s-.1-.24-.24-.24c-.13 0-.23.1-.23.24 0 .12.1.23.23.23Zm5.71-.12c0 .1-.07.17-.16.17a.16.16 0 0 1-.16-.17c0-.08.07-.16.16-.16s.16.08.16.16Zm-6.34.17c.1-.01.16-.09.15-.17 0-.1-.1-.15-.18-.14-.1 0-.16.08-.16.17.01.09.1.15.19.14Zm3.64.43c0 .25-.2.45-.46.45a.46.46 0 0 1-.46-.45c0-.26.2-.46.46-.46s.46.2.46.46Zm-1.63.35a.4.4 0 0 0 .4-.39.39.39 0 0 0-.4-.38.4.4 0 0 0-.4.38c0 .22.18.39.4.39Zm2.7-.37a.4.4 0 0 1-.4.39.39.39 0 0 1-.39-.39.4.4 0 0 1 .4-.38c.21 0 .39.17.39.38Zm-3.7.26c.16 0 .29-.12.29-.27a.27.27 0 0 0-.28-.27.27.27 0 0 0-.28.27c0 .15.12.27.28.27Zm4.51-.27c0 .15-.12.27-.28.27a.28.28 0 0 1-.28-.27c0-.15.13-.27.28-.27.16 0 .28.12.28.27Zm-5.25.23c.13 0 .24-.1.24-.23 0-.12-.1-.23-.24-.23-.13 0-.23.1-.23.23s.1.23.23.23Zm5.98-.22c0 .13-.1.23-.23.23a.23.23 0 0 1-.23-.23c0-.12.1-.23.23-.23s.23.1.23.23Zm.43.15c.09 0 .16-.07.16-.16a.16.16 0 0 0-.16-.16.16.16 0 0 0-.17.16c0 .09.08.16.17.16Zm-6.84-.15c0 .1-.08.16-.17.16a.16.16 0 0 1-.16-.16c0-.09.07-.16.16-.16.1 0 .17.07.17.16Zm.03.55c.02.08.1.14.2.12.08-.03.14-.11.11-.2a.16.16 0 0 0-.2-.12.16.16 0 0 0-.11.2Zm6.5 0c0 .1-.07.17-.16.18-.1.01-.18-.05-.19-.14 0-.09.06-.17.16-.18.09 0 .17.06.18.15Zm-5.72.33c.13 0 .23-.1.23-.23a.23.23 0 0 0-.47 0c0 .13.11.23.24.23Zm.75.11a.27.27 0 0 1-.2-.32.28.28 0 0 1 .32-.22.28.28 0 0 1-.12.54Zm4.15-.07c.12 0 .23-.1.23-.23s-.1-.23-.23-.23-.24.1-.24.23.1.23.24.23Zm-.51-.16c0 .15-.13.27-.28.27a.28.28 0 0 1-.28-.27c0-.15.12-.27.28-.27.15 0 .28.12.28.27Zm-2.52.53c.21 0 .39-.17.39-.39a.39.39 0 0 0-.4-.38.39.39 0 0 0-.39.38c0 .22.18.39.4.39Zm1.66-.36a.4.4 0 0 1-.4.38.39.39 0 0 1-.39-.38.4.4 0 0 1 .4-.39.4.4 0 0 1 .39.39Zm-4.37-.1-.03.01a.14.14 0 0 0-.09.18l.02.04c.02.07.1.1.18.08h.03a.15.15 0 0 0 .08-.19l-.01-.04a.14.14 0 0 0-.18-.08Zm6.67.08.03.01c.08.01.13.09.12.17v.03a.15.15 0 0 1-.17.11H43a.14.14 0 0 1-.12-.17v-.03a.15.15 0 0 1 .18-.12Zm-6.13.43c.09 0 .16-.07.16-.16a.16.16 0 0 0-.16-.16.16.16 0 0 0-.16.16c0 .09.07.16.16.16Zm5.58-.27.03.02c.06.05.07.14.02.2l-.03.03a.14.14 0 0 1-.2.02l-.03-.03a.14.14 0 0 1-.02-.2l.03-.02a.14.14 0 0 1 .2-.02Zm-5.16.22c.01.13.12.22.25.21a.23.23 0 0 0 .2-.25.23.23 0 0 0-.24-.2.23.23 0 0 0-.21.24Zm4.57.06a.23.23 0 0 1-.47 0c0-.13.1-.23.24-.23.13 0 .23.1.23.23Zm-3.55.35c.15 0 .27-.12.27-.27a.27.27 0 0 0-.27-.28.27.27 0 0 0-.28.28c0 .15.12.27.28.27Zm2.88-.17c0 .15-.12.27-.28.27a.28.28 0 0 1-.28-.27c0-.15.13-.27.28-.27.16 0 .28.12.28.27Zm-1.51.32c.15 0 .28-.12.28-.27a.28.28 0 0 0-.28-.27.28.28 0 0 0-.28.27c0 .15.12.27.28.27ZM37 30.8c0 .1-.07.17-.17.17a.16.16 0 0 1-.16-.17c0-.08.07-.16.16-.16.1 0 .17.08.17.16Zm5.18.16a.15.15 0 0 0 .11-.2c-.02-.08-.11-.13-.2-.1-.1.02-.14.11-.12.2.02.08.12.13.2.1Zm.64-.14c0 .1-.08.17-.17.17a.16.16 0 0 1-.16-.17c0-.09.07-.16.16-.16.1 0 .17.07.17.16Zm-5.48.25c.1 0 .17-.07.17-.16a.16.16 0 0 0-.17-.16.16.16 0 0 0-.16.16c0 .1.07.16.16.16Zm1.96-.01c0 .13-.1.23-.24.23a.23.23 0 0 1-.24-.23c0-.13.11-.23.24-.23s.24.1.24.23Zm-1.39.09c.1 0 .17-.07.17-.16a.16.16 0 0 0-.17-.16c-.09 0-.16.07-.16.16s.07.16.16.16Zm3.45.03a.16.16 0 0 1-.03-.22c.06-.08.16-.1.23-.04.07.05.09.15.03.22a.17.17 0 0 1-.23.04Zm-1.02.2c.13 0 .24-.1.24-.23s-.1-.23-.24-.23c-.13 0-.23.1-.23.23 0 .12.1.23.23.23Zm-1.74-.27a.16.16 0 0 1-.12.2.17.17 0 0 1-.2-.1.16.16 0 0 1 .1-.2c.1-.03.19.02.22.1Zm2.33.29c.1 0 .17-.08.17-.16a.16.16 0 0 0-.17-.16.16.16 0 0 0-.16.16c0 .08.07.16.16.16Zm1 .09a.16.16 0 0 1 .07-.32c.09.01.14.1.12.19a.16.16 0 0 1-.19.13Zm-4.24.03c.08-.05.1-.15.06-.22a.17.17 0 0 0-.23-.05.15.15 0 0 0-.05.22c.04.08.14.1.22.05Zm1.93-.28h.03c.08-.03.16.01.19.1v.02a.14.14 0 0 1-.1.18h-.02a.15.15 0 0 1-.19-.09v-.03a.14.14 0 0 1 .1-.18Zm1.52.56c.1 0 .17-.08.17-.17a.16.16 0 0 0-.17-.16.16.16 0 0 0-.16.16c0 .1.07.17.16.17Zm-2.73-.3h.06c.07-.01.14.04.15.1v.05a.13.13 0 0 1-.1.15l-.06.01a.13.13 0 0 1-.15-.1v-.05a.13.13 0 0 1 .1-.15Zm1.74.11-.04.02a.14.14 0 0 0-.05.2v.02c.05.06.13.09.2.05l.04-.02c.07-.03.1-.12.05-.19v-.02a.14.14 0 0 0-.2-.06Zm-1 .29c.04.04.13.06.18 0a.13.13 0 0 1 .05-.02l.01-.01h.01v-.02c.02-.06.03-.15-.03-.2-.09-.05-.2-.08-.26.04a.2.2 0 0 0-.01.13c0 .03.02.06.04.08Z" fill="#004A7A" /></svg>