<!-- by TradeStack --><svg width="56" height="56" viewBox="0 0 56 56" fill="none" xmlns="http://www.w3.org/2000/svg">
<rect width="56" height="56" fill="#F0F3FA"/>
<path d="M30.0338 28.0866C30.0188 28.3195 30.1898 28.4473 30.4479 28.4527C31.8432 28.4823 32.7414 28.5245 33.1425 28.5792C34.2797 28.7327 34.1597 30.8042 33.1725 30.8944C32.3053 30.9752 29.6497 31.169 28.9865 30.6723C28.6915 30.4498 28.6004 30.1209 28.7135 29.6857C28.7235 29.6435 28.7525 29.6224 28.8005 29.6224H29.9107C29.9567 29.6224 29.9792 29.643 29.9782 29.6843C29.9752 29.9167 30.1088 30.0379 30.3788 30.0478C30.991 30.0693 31.6036 30.0679 32.2168 30.0437C32.8094 30.0208 32.6864 29.4703 32.3473 29.4636C31.4241 29.4429 30.5034 29.3972 29.5852 29.3263C28.3084 29.2267 28.4029 27.1726 29.6497 27.0623C30.5019 26.9878 31.4916 26.9802 32.6188 27.0394C33.47 27.0834 33.8561 27.4746 33.7771 28.2131C33.7731 28.2553 33.7476 28.2764 33.7006 28.2764H32.5843C32.5303 28.2764 32.4958 28.253 32.4808 28.2064C32.4218 28.0251 32.2893 27.9282 32.0832 27.9156C31.7847 27.8968 30.6279 27.812 30.1253 27.9762C30.0683 27.9951 30.0378 28.0319 30.0338 28.0866Z" fill="black"/>
<path d="M4 27H9V28H7.26087C7.21256 28 7.18841 28.0452 7.18841 28.0919V31H5.81159V28.0919C5.81159 28.0415 5.79543 28.0009 5.74325 28H4V27Z" fill="black"/>
<path d="M14.5007 29.5101C15.0963 29.6445 14.9998 30.4766 14.9998 31H13.6605C13.6433 31 13.6268 30.994 13.6143 30.9831C13.6017 30.9721 13.5941 30.9572 13.593 30.9412V30.1766C13.5889 30.1311 13.5668 30.0885 13.5311 30.0572C13.4953 30.0259 13.4484 30.0009 13.3994 30H11.073C11.019 29.9991 10.9998 29.9997 10.9998 30.0492V30.895C10.9998 30.965 10.9545 31 10.8795 31H9.73859C9.68858 31 9.66357 30.9767 9.66357 30.93V27.0862C9.66357 27.0424 9.68708 27.0009 9.73409 27L14.0866 27C15.2628 27.0266 15.3319 29.0298 14.4902 29.4317C14.4182 29.4662 14.4217 29.4924 14.5007 29.5101ZM10.9998 29.0039L13.2404 29C13.4681 29.0007 13.6747 28.791 13.6755 28.5887V28.4123C13.6763 28.21 13.4712 28.0007 13.2434 28L10.9998 27.9961V29.0039Z" fill="black"/>
<path d="M17.1687 30.3614L16.8431 30.9719C16.8385 30.9804 16.8314 30.9875 16.8226 30.9925C16.8139 30.9974 16.8039 31 16.7936 31H15.3848C15.3753 31 15.3659 30.9978 15.3575 30.9934C15.3492 30.9891 15.3422 30.9828 15.3372 30.9751C15.3323 30.9675 15.3295 30.9588 15.3291 30.9499C15.3288 30.941 15.3309 30.9321 15.3353 30.9242L17.5453 27.0281C17.5499 27.0198 17.5568 27.0128 17.5652 27.0079C17.5736 27.0029 17.5834 27.0002 17.5933 27H19.5918C19.6017 27.0002 19.6114 27.0029 19.6199 27.0079C19.6283 27.0128 19.6352 27.0198 19.6398 27.0281L21.8183 30.9242C21.8227 30.9321 21.8248 30.941 21.8244 30.9499C21.8241 30.9588 21.8213 30.9675 21.8163 30.9751C21.8114 30.9828 21.8044 30.9891 21.796 30.9934C21.7877 30.9978 21.7783 31 21.7688 31H20.3704C20.3602 31 20.3502 30.9974 20.3415 30.9925C20.3327 30.9875 20.3256 30.9804 20.3209 30.9719L19.9939 30.3614C19.9892 30.3529 19.9821 30.3458 19.9733 30.3409C19.9646 30.3359 19.9546 30.3333 19.9444 30.3333H17.2182C17.208 30.3333 17.198 30.3359 17.1893 30.3409C17.1805 30.3458 17.1734 30.3529 17.1687 30.3614ZM18.501 27.9446L17.7028 29.3439C17.6738 29.3953 17.6908 29.4211 17.7539 29.4211H19.3802C19.4652 29.4211 19.4877 29.386 19.4477 29.3158L18.6766 27.9446C18.6682 27.9296 18.6556 27.917 18.6401 27.9082C18.6246 27.8995 18.6069 27.8948 18.5888 27.8948C18.5707 27.8948 18.553 27.8995 18.5375 27.9082C18.522 27.917 18.5094 27.9296 18.501 27.9446Z" fill="black"/>
<path d="M23.6589 31H22.4316C22.4153 31 22.3997 30.9939 22.3881 30.9831C22.3766 30.9724 22.3701 30.9577 22.3701 30.9425V27.0575C22.3701 27.0423 22.3766 27.0276 22.3881 27.0169C22.3997 27.0061 22.4153 27 22.4316 27H24.6581C24.6678 27.0001 24.6773 27.0022 24.6859 27.0064C24.6945 27.0105 24.702 27.0165 24.7076 27.0239L26.9116 29.953C26.9414 29.9943 27.0016 29.9691 27.0002 29.9193V27.0575C26.9994 27.0268 27.0003 27 27.0332 27H28.2725C28.2888 27 28.3044 27.0061 28.316 27.0169C28.3275 27.0276 28.334 27.0423 28.334 27.0575V30.9425C28.334 30.9577 28.3275 30.9724 28.316 30.9831C28.3044 30.9939 28.2888 31 28.2725 31H26.067C26.0573 30.9999 26.0477 30.9978 26.0391 30.9936C26.0305 30.9895 26.0231 30.9835 26.0174 30.9761L23.8329 28.0737C23.8256 28.0635 23.8149 28.0557 23.8025 28.0516C23.79 28.0475 23.7765 28.0472 23.7639 28.0508C23.7513 28.0544 23.7403 28.0618 23.7324 28.0717C23.7246 28.0816 23.7204 28.0936 23.7204 28.106V30.9425C23.7204 30.9577 23.7139 30.9724 23.7024 30.9831C23.6909 30.9939 23.6752 31 23.6589 31Z" fill="black"/>
<path d="M39.0039 30V30.9285C39.0039 30.9474 38.9958 30.9656 38.9815 30.9791C38.9671 30.9925 38.9476 31 38.9273 31H34.6742C34.6539 31 34.6344 30.9925 34.6201 30.9791C34.6057 30.9656 34.5977 30.9474 34.5977 30.9285V27.0716C34.5977 27.0526 34.6057 27.0344 34.6201 27.021C34.6344 27.0076 34.6539 27 34.6742 27H35.9465C35.987 27 36.0006 27.0336 36.0006 27.0716V30H39.0039Z" fill="#CB2127"/>
<path d="M41.0001 29.401C41.0001 29.7073 41.1894 29.9863 41.5811 30C42.6049 29.9473 44.0032 30.2059 44.0001 29.265V27.0728C44.0001 27.0243 44.0145 27 44.068 27H45.2938C45.3132 27 45.3317 27.0066 45.3456 27.0184C45.3594 27.0303 45.3674 27.0463 45.3678 27.0632V29.8276C45.3298 30.4686 44.88 30.873 44.1142 30.938C43.0473 31.0286 41.9839 31.0199 40.9241 30.9119C39.9897 30.8171 39.6659 30.4677 39.6382 29.6532L39.6382 27.0879C39.6392 27.0293 39.6726 27 39.7384 27H40.9118C40.9817 27 41.0001 27.0312 41.0001 27.0934V29.401Z" fill="#CB2127"/>
<path d="M48.7522 29.6344L47.4469 30.9845C47.4424 30.9894 47.4369 30.9932 47.4306 30.9959C47.4244 30.9986 47.4177 31 47.4109 31H45.618C45.6084 30.9999 45.5991 30.9972 45.5913 30.9922C45.5834 30.9871 45.5773 30.98 45.5737 30.9718C45.5702 30.9635 45.5694 30.9544 45.5714 30.9457C45.5734 30.937 45.5781 30.929 45.5849 30.9228L47.6374 29.0028C47.6463 28.9944 47.6513 28.983 47.6513 28.9712C47.6513 28.9594 47.6463 28.9481 47.6374 28.9396L45.729 27.0758C45.7225 27.0694 45.7182 27.0615 45.7166 27.0529C45.7149 27.0442 45.716 27.0354 45.7197 27.0273C45.7233 27.0193 45.7294 27.0124 45.7372 27.0075C45.745 27.0027 45.7541 27.0001 45.7635 27H47.4769C47.4837 27 47.4904 27.0014 47.4967 27.0041C47.5029 27.0067 47.5084 27.0106 47.5129 27.0154L48.7522 28.3291C48.7567 28.3339 48.7622 28.3377 48.7684 28.3403C48.7746 28.343 48.7814 28.3443 48.7882 28.3443C48.795 28.3443 48.8017 28.343 48.8079 28.3403C48.8141 28.3377 48.8197 28.3339 48.8242 28.3291L50.071 27.0154C50.0754 27.0106 50.081 27.0067 50.0872 27.0041C50.0934 27.0014 50.1001 27 50.107 27H51.8414C51.8507 27.0001 51.8598 27.0027 51.8676 27.0075C51.8754 27.0124 51.8815 27.0193 51.8852 27.0273C51.8888 27.0354 51.8899 27.0442 51.8883 27.0529C51.8866 27.0615 51.8823 27.0694 51.8759 27.0758L49.9314 28.9396C49.9225 28.9481 49.9176 28.9594 49.9176 28.9712C49.9176 28.983 49.9225 28.9944 49.9314 29.0028L51.9854 30.9228C51.9922 30.929 51.997 30.937 51.999 30.9457C52.001 30.9544 52.0001 30.9635 51.9966 30.9718C51.9931 30.98 51.987 30.9871 51.9791 30.9922C51.9712 30.9972 51.9619 30.9999 51.9524 31H50.176C50.1693 31.0001 50.1626 30.999 50.1564 30.9965C50.1502 30.9941 50.1446 30.9905 50.14 30.986L48.8242 29.6344C48.8197 29.6296 48.8141 29.6258 48.8079 29.6231C48.8017 29.6205 48.795 29.6192 48.7882 29.6192C48.7814 29.6192 48.7746 29.6205 48.7684 29.6231C48.7622 29.6258 48.7567 29.6296 48.7522 29.6344Z" fill="#CB2127"/>
</svg>
