<?xml version='1.0' encoding='utf-8'?>
<!-- by TradeStack -->
<svg width="56" height="56" viewBox="0 0 56 56" xmlns="http://www.w3.org/2000/svg"><path fill="#13113C" d="M0 0h56v56H0z" /><path d="M5.75 26v4h-.62v-4h.62Zm1.13 0v.59H4V26h2.88ZM8 26v4h-.62v-4H8ZM10.26 26.57 9.18 30h-.66l1.36-4h.42l-.04.57Zm.9 3.43-1.08-3.43-.05-.57h.42l1.37 4h-.66Zm-.05-1.53V29H9.14v-.53h1.97ZM15 26v4h-.62l-1.76-2.84V30h-.63v-4h.63l1.76 2.85V26H15ZM16 26h1.28c.73 0 1.3.45 1.3 1.22 0 .2-.03.37-.1.52-.06.15-.15.27-.27.37-.12.1-.27.18-.44.23l-.19.1h-1.15v-.53h.86c.15 0 .27-.03.37-.08.1-.06.18-.14.23-.24.05-.1.07-.2.07-.33 0-.42-.27-.67-.68-.67h-.66V30H16v-4Zm2.07 4-.85-1.8h.65l.86 1.8h-.66ZM22 27.9v.2c0 .92-.46 1.9-1.5 1.9-1.03 0-1.5-.98-1.5-1.9v-.2c0-.92.47-1.9 1.5-1.9s1.5.98 1.5 1.9Zm-.62.2v-.21c0-.44-.08-1.03-.51-1.25a.77.77 0 0 0-.37-.1c-.7 0-.88.78-.88 1.35v.22c0 .56.18 1.34.88 1.34s.88-.78.88-1.34ZM25.37 26v4h-.62L23 27.16V30h-.62v-4H23l1.75 2.85V26h.62ZM29 27.96v1.48c-.3.43-.9.56-1.38.56-1.04 0-1.54-.92-1.54-1.87v-.27c0-.93.44-1.86 1.49-1.86.77 0 1.3.48 1.39 1.24h-.61c-.07-.42-.33-.7-.77-.7-.7 0-.87.75-.87 1.32v.27c0 .6.21 1.34.93 1.34.25 0 .52-.04.7-.24v-.77h-.76v-.5H29ZM31.25 26h.56l1.05 3.06L33.9 26h.56l-1.38 4h-.45l-1.38-4ZM31 26h.53l.1 2.65V30H31v-4Zm3.18 0h.54v4h-.63v-1.35l.1-2.65ZM37.75 29.41V30h-1.93v-.59h1.93ZM36 26v4h-.62v-4H36Zm1.5 1.68v.52h-1.68v-.52h1.67Zm.23-1.68v.59h-1.9V26h1.9ZM39.35 30h-.7v-.59h.7c.74 0 1.02-.66 1.02-1.3v-.22c0-.64-.26-1.3-1-1.3h-.73V26h.73c1.04 0 1.63.93 1.63 1.9v.2c0 .99-.6 1.9-1.65 1.9ZM39 26v4h-.62v-4H39ZM42 26v4h-.62v-4H42ZM45.25 28.68h.63A1.37 1.37 0 0 1 44.46 30c-1.01 0-1.46-.94-1.46-1.84v-.32c0-.9.47-1.84 1.48-1.84.8 0 1.32.56 1.4 1.34h-.62c-.05-.47-.28-.8-.78-.8-.7 0-.85.73-.85 1.3v.32c0 .55.14 1.3.83 1.3.5 0 .74-.3.8-.78ZM47.76 26.57 46.68 30h-.65l1.36-4h.42l-.05.57Zm.91 3.43-1.08-3.43-.05-.57h.42l1.37 4h-.66Zm-.02-1.53V29h-1.97v-.53h1.97ZM52 29.41V30h-1.82v-.59H52ZM50.36 26v4h-.63v-4h.63Z" fill="#fff" /></svg>