<!-- by TradeStack --><svg width="56" height="56" viewBox="0 0 56 56" fill="none" xmlns="http://www.w3.org/2000/svg">
<rect width="56" height="56" fill="#F0F3FA"/>
<path fill-rule="evenodd" clip-rule="evenodd" d="M10 21H19.2874L16.0877 31.3106L19.9382 30.3043L16.63 44L26.5546 24.9379L23.6261 25.7205L25.6869 21H28.2901L30.5136 17H12.3456L10 21ZM30.6923 21H44.7076L47 17H33.1411L30.6923 21ZM35.5377 38H21.5225L23.9712 34H37.8301L35.5377 38ZM26.1074 30H36.7882L39.0806 26H28.3478L26.1074 30Z" fill="#EDE401"/>
<path fill-rule="evenodd" clip-rule="evenodd" d="M19.9661 20.5L16.8319 30.5993L20.6205 29.6093L18.0774 40.1372L25.5868 25.7141L22.7526 26.4714L25.3596 20.5H27.996L29.6636 17.5H12.632L10.8728 20.5H19.9661ZM10 21H19.2874L16.0877 31.3106L19.9382 30.3043L16.63 44L26.5546 24.9379L23.6261 25.7205L25.6869 21H28.2901L30.5136 17H12.3456L10 21ZM44.7075 21L47 17H33.1411L30.6923 21H44.7075ZM31.5847 20.5H44.4178L46.1371 17.5H33.4212L31.5847 20.5ZM35.2479 37.5L36.9673 34.5H24.2514L22.4148 37.5H35.2479ZM21.5225 38H35.5377L37.8301 34H23.9712L21.5225 38ZM36.4984 29.5L38.2178 26.5H28.6408L26.9605 29.5H36.4984ZM36.7882 30L39.0806 26H28.3478L26.1074 30H36.7882Z" fill="black"/>
</svg>
