<!-- by TradeStack --><svg width="56" height="56" viewBox="0 0 56 56" xmlns="http://www.w3.org/2000/svg"><path fill="#F0F3FA" d="M0 0h56v56H0z"/><path d="M27.5 6h-1v8H26v1h.5v5H26v1h-1v1h-1v1h1v2h1v20h2V25h1v-2h1v-1h-1v-1h-1v-1h-.5v-5h.5v-1h-.5V6Z" fill="#F26365"/><path d="M29.62 27h-2.13v1h2.13a4.9 4.9 0 0 1 2.7 1.56 2.97 2.97 0 0 1-.04-.3 2.26 2.26 0 0 0-.2-.8A3.02 3.02 0 0 0 29.63 27Zm-2.13 2.5h2.44c1.14 0 2.38.69 2.83 1.45.16.26.2.56.22.81l.05.3a6.17 6.17 0 0 0-3.1-1.63h-2.44v-.93Zm-2.2 2.8-1.38 12.93.93-.25L26 32l-.7.3Zm-2.9 13.36 2-13.05.7-.3-1.68 13.06-1.02.29Zm1.04-12.53-2.68 13 1.05-.4 2.47-13.07-.84.47Zm-1.02.69L19 46.86l1.07-.54 3.18-12.98-.84.48Zm9.27 9.96h-4.19V45h4.19c1 .08 3.31.61 5.32 2-.03-.1-.06-.23-.08-.37-.05-.32-.1-.7-.37-1.02-.77-.97-2.9-1.83-4.87-1.83ZM27.49 41h3.88c1.81 0 3.79.8 4.5 1.69.25.3.3.65.35.94l.07.34c-1.86-1.28-3.99-1.9-4.92-1.97h-3.88v-1Zm3.44-3h-3.44v1h3.44c.83.07 2.72.53 4.37 1.7l-.07-.31c-.04-.27-.09-.59-.3-.86-.64-.8-2.39-1.53-4-1.53Zm-3.44-3h3.17c1.48 0 3.1.73 3.68 1.53.2.27.25.6.28.86l.06.3A8.72 8.72 0 0 0 30.66 36h-3.17v-1Zm2.81-3h-2.8v1h2.8c.68.07 2.23.53 3.58 1.7-.03-.1-.04-.2-.05-.31-.04-.27-.08-.59-.25-.86-.52-.8-1.96-1.53-3.28-1.53ZM26.39 32H27l-.22 13H25.5l.89-13Z" fill="#030951"/></svg>