<?xml version='1.0' encoding='utf-8'?>
<!-- by TradeStack -->
<svg width="56" height="56" viewBox="0 0 56 56" xmlns="http://www.w3.org/2000/svg"><path fill="#FF5757" d="M0 0h56v56H0z" /><path d="M27.43 21.82c-.04-.22-.02-.44 0-.65.03-.2.05-.4.01-.58-.64-3.18-4.62-4.22-7.39-3.75-.6.1-1.2.33-1.83.56-.7.25-1.42.51-2.2.63-.07.02-.1.06-.06.13 1.75 3.5 5.46 5.9 9.42 4.57.35-.12.65-.15.88-.1.9.24 1.13.75 1.2 1.68.13 1.54.24 5.73-1.47 6.58-.5.24-1-.06-1.46-.32l-.14-.09c-2.18-1.25-4.3-1.38-6.38-.37-1.97.95-3.05 2.72-2.72 4.88.6 3.92 4.8 6.03 8.25 6.73 4.3.87 8.32.31 12.08-1.7 2.71-1.44 4.77-3.8 3.74-7.07-1.33-4.25-5.5-3.45-8.75-2.44-.47.14-.92.3-1.33.43l-.1.03c-.96.32-.76-1.14-.69-1.62.29-2.05.3-4.1.03-6.17 0-.07.02-.14.08-.19l1.34-1.2c.05-.04.1-.04.15 0 2.06 1.66 4.85 1.32 7.03.05a12.06 12.06 0 0 0 4.43-4.75c.07-.1.3-.26.59-.45.7-.46 1.67-1.08.65-1.55-3.57-1.64-9.24-1.33-11.95 1.85a8.1 8.1 0 0 0-1.37 2.92c-.13.39-.25.78-.4 1.15-.23.6-.81 1.3-1.52.97a.2.2 0 0 1-.12-.16Zm-7.86 9.35a4.02 4.02 0 0 1 3.28 1.14.2.2 0 0 1 .05.2c-.06.28-.35.25-.58.16a5.04 5.04 0 0 0-2.07-.35c-.48.01-.82-.16-1.01-.52a.43.43 0 0 1 .33-.63Z" fill="#FCF8F5" /></svg>