<?xml version='1.0' encoding='utf-8'?>
<!-- by TradeStack -->
<svg width="56" height="56" viewBox="0 0 56 56" xmlns="http://www.w3.org/2000/svg"><path fill="#F0F3FA" d="M0 0h56v56H0z" /><path d="M34.86 21.79h-.45c3.32-6.49.57-8.24-1.22-8.3-7.16 0-15.54 9.87-17.68 14.3-.46.97-3.96 8.21 1.49 8.21 4.36 0 10.32-4.92 12.73-7.42l-1.8 7.01C26.1 37.16 21.42 40 17.28 40c-4.14 0-5.24-2.84-5.28-4.4C11.73 23.8 27.56 13 32.9 13c1.75 0 3.53.9 3.53 3.56 0 2.11-1.04 4.37-1.56 5.23Z" fill="#00A84D" /><path d="M28.88 29h-6.17l1.05-3h11.98l-4.8 15h-5.81l3.75-12Z" fill="#005BAC" /><circle cx="31.5" cy="22.5" r="2.5" fill="#00A84D" /><circle cx="40.5" cy="19.5" r="1.5" fill="#00A84D" /><path d="M42.44 30.97c-.97 1.75-2.85 2.52-4.2 1.7-1.34-.8-1.64-2.89-.68-4.64.97-1.75 2.85-2.52 4.2-1.7 1.34.8 1.64 2.89.68 4.64Z" fill="#005BAC" /></svg>