<?xml version='1.0' encoding='utf-8'?>
<!-- by TradeStack -->
<svg width="56" height="56" viewBox="0 0 56 56" xmlns="http://www.w3.org/2000/svg"><path fill="#F0F3FA" d="M0 0h56v56H0z" /><path d="M42.24 20.15c-.3.96-.13 1.55.53 1.8.15.05.17.13.06.23-.18.2-.42.35-.73.45l-.38.08c-.35.08-.35.16-.01.25l.72.2c.32.26.58.6.78 1.02a.5.5 0 0 0 .33.27c.36.1.89.1 1.59-.05.44.43.03.98-1.22 1.64a.43.43 0 0 0-.25.42c0 .2.09.33.26.42.2.1.39.27.57.51.08.12.06.21-.07.27-.16.08-.35.1-.56.08-.06 0-.1.02-.1.08l-.01.14.85.16c.17.04.31-.01.43-.14.18-.2.4-.27.67-.21.19.04.22.13.1.27-.22.24-.22.42-.03.53.17.1.18.2.01.31-.45.3-.77.45-.96.45-.28 0-.41.1-.41.28a.52.52 0 0 1-.35.48.42.42 0 0 1-.45-.06l-.44-.34c-.16-.13-.2-.1-.12.1.21.48.57.89 1.08 1.22.13.08.22.07.28-.03l.09-.14c.07-.12.2-.13.4-.03.05.02.1.03.17.01.18-.04.2-.13.05-.24-.58-.43-.67-.73-.28-.9 1.28.43 1.5 1.34.67 2.71-.1.14-.05.36.11.66l-.02.1c-.16-.04-.26.01-.3.14-.03.12 0 .23.1.34 0 .08 0 .13.02.17-1.19.2-2.25.2-3.18 0 0-.36.1-.58.34-.63a.23.23 0 0 0 .16-.13.3.3 0 0 0 .03-.12c.01-.13-.05-.22-.19-.25a.97.97 0 0 0-.76.12c-.13.09-.26.1-.39.04l-.53-.23a.41.41 0 0 0-.34 0l-2.98 1.2c-.06.03-.07.07-.05.13l.05.15c.03.05.07.07.12.05 1.01-.37 2.03-.67 3.06-.9.15-.04.23.05.24.26a.55.55 0 0 0-.32.08.34.34 0 0 0-.16.23v.18c0 .1-.05.15-.15.16-.68.07-1.34.12-2 .15-.32.02-.65.24-.98.68-.54.09-.81-.05-.83-.42a.36.36 0 0 0-.23-.35.36.36 0 0 0-.4.06c-.27.21-.44.52-.52.92-.42.25-.51.58-.26 1l.07.08c.31.5.31 1.05 0 1.66-.09.16-.05.28.11.36.3.15.68.25 1.13.3.16 0 .23-.07.23-.22 0-.22.06-.37.18-.45.15-.09.24-.05.28.12.05.27.26.54.63.81l5.07.46c1.51.14 1.52.25.02.35-.25.01-.67.07-1.25.17-.44.08-.86.1-1.27.05a8 8 0 0 0-2.15.04c-.3.05-.71.04-1.23-.03l-1.21-.18c-.2-.04-.34-.03-.45.03-.35.2-.76.19-1.24-.01a.7.7 0 0 0-.43-.04 9.1 9.1 0 0 1-4.12.04l.01-.2 4.07-.48c.29-.03.46-.19.52-.47.12-.51.16-1.16.13-1.95-.02-.7-.26-1.21-.72-1.56-.4-.3-.94-.39-1.61-.25a2 2 0 0 1-1.08 0 5.13 5.13 0 0 1-1.34-.68c-.17-.16-.16-.27.04-.3.2-.05.38.07.55.38.1.16.2.18.34.04.1-.11.18-.26.23-.43.03-.14.12-.2.26-.2.07.01.12.04.17.1.1.1.23.17.38.19l1 .15c.13.12.29.2.46.22.23.28.42.36.57.24.1-.07.1-.15.02-.23a.6.6 0 0 0-.26-.14 1.87 1.87 0 0 1-.66-.22 3.66 3.66 0 0 0-1.93-.58c.06-.2.06-.34 0-.41-.08-.11-.15-.1-.2.03-.03.11.01.22.13.34-.65.25-1.24.22-1.77-.08a.15.15 0 0 0-.1 0 .2.2 0 0 0-.12.07c-.06.09-.05.16.04.2.17.1.29.24.36.4.07.14.03.24-.11.28l-1.06.36c-.25.08-.35.02-.3-.18 0-.07-.01-.14-.06-.2-.09-.11-.2-.14-.33-.1l-1.03.36c-.27-.12-.46-.43-.58-.9a.35.35 0 0 1 .1-.36c.13-.12.12-.24 0-.36a1.08 1.08 0 0 0-.38-.43c-.08-.2-.11-.38-.11-.54.2-.04.24-.25.11-.64-.1-.61.12-.95.68-1.02a.35.35 0 0 0 .17-.07.24.24 0 0 0 .09-.12c.04-.13 0-.21-.14-.25l-.47-.15c-.16-.05-.23-.16-.21-.32a.3.3 0 0 1 .1-.2c.12-.11.15-.24.08-.39l-.23-.47c.33-.1.6-.08.81.06l.4.26c.18.05.35.04.52-.04.15-.06.15-.13 0-.2l-.75-.34c.15-.2.4-.4.76-.56l.47-.34c-.4-.83.04-.83 1.3.01l1.67 1.09c.14.09.28.1.44.02.69-.35 1.39-.4 2.1-.16.02.01.06 0 .12-.02a.26.26 0 0 0 .1-.06c.1-.1.08-.18-.05-.25a.62.62 0 0 1-.17-.11c-.12-.14-.05-.2.19-.17.36.05.77.02 1.24-.1.12-.03.2-.1.22-.23a.26.26 0 0 0-.14-.3c-.43-.27-.9-.16-1.43.32-.3.28-.52.42-.64.43-.63.07-1.24.12-1.83.14-.17 0-.3-.03-.38-.1-.15-.14-.17-.31-.05-.53.08-.16.04-.2-.12-.1a.21.21 0 0 0-.11.14c-.03.17-.13.24-.3.2a1.53 1.53 0 0 1-.71-.43 3.1 3.1 0 0 0-2.3-.97c-.5 0-.75-.26-.75-.76 0-.06.16-.25.47-.59.42-.45 1.04-.7 1.85-.75.6.03 1.05-.08 1.35-.34.13-.1.11-.17-.06-.18l-1.72-.09c-.13-.62-.03-1.08.28-1.38.43-.42 1.07-.6 1.92-.56.07 0 .1-.03.1-.1v-.14a2.78 2.78 0 0 1-1.22-.37 4.46 4.46 0 0 1 2.57-.46c.15.01.18-.04.1-.15-.2-.3-.46-.48-.8-.56a.42.42 0 0 1-.33-.32.43.43 0 0 1 .12-.45c.6-.56 1.11-.81 1.55-.76.1.36.3.5.6.4.23-.09.43-.32.61-.72a.43.43 0 0 1 .31-.25l1.42-.35c.04-.01.07-.04.07-.09v-.26c0-.1-.05-.14-.15-.1-.6.24-1.18.32-1.75.24a2.15 2.15 0 0 1 1.65-.77c.4 0 1.03.15 1.88.43.47.16.9.44 1.33.84.56.53 1.25.91 2.1 1.16.14.04.27.11.38.22l1.67 1.5Z" fill="#20376A" /><path d="M28.91 20.6a2.78 2.78 0 0 0 1.22.38v.13c0 .07-.03.1-.1.1-.85-.05-1.5.14-1.92.56-.31.3-.4.76-.28 1.38l-.94-.37c-.05-.02-.1-.01-.12.03l-.1.1.01.03 1.58.82c-.81.04-1.43.3-1.85.75a2.88 2.88 0 0 0-.63-.91.43.43 0 0 0-.4-.14c-.38.06-.71-.12-.98-.55-.1-.15-.23-.19-.39-.12l-1.35.55c-.12.05-.18.14-.18.27v.11c0 .08.04.12.12.11a1.7 1.7 0 0 0 1.03-.37c.11-.1.23-.1.36-.04.49.28.93.44 1.33.49.14.01.26.07.36.17.2.2.45.35.73.43-.31.34-.47.53-.47.59 0 .5.25.76.75.76.9 0 1.66.32 2.3.97-.05.04-.1.11-.15.22-1.26-.84-1.7-.84-1.3-.01l-1.1-.46c-.21-.08-.35-.13-.43-.14l-1.31-.17c-.16-.03-.22-.12-.2-.28.05-.3.03-.5-.06-.6-.11-.12-.23-.13-.37-.05-.2.1-.37.1-.51-.02-.52-.45-1-.7-1.46-.76a.9.9 0 0 1-.42-.15c-.52-.34-.91-.47-1.17-.38-.6.22-.58.43.05.62l2.72.85c.18.05.24.17.18.35l-.06.16c-.06.16-.17.21-.33.14-.72-.3-1.22-.37-1.51-.22-.14.07-.14.14 0 .2.98.4 1.86.47 2.64.2.2-.08.33 0 .38.2.03.12.09.24.17.36.09.12.2.18.34.2l1.98.29c-.36.16-.61.35-.76.56a2.65 2.65 0 0 0-1.24-.26.44.44 0 0 1-.38-.2.48.48 0 0 0-.25-.17c-.06-.02-.1 0-.15.04a.13.13 0 0 0-.02.15c.26.49.61.72 1.06.7l.23.47c.07.15.04.28-.09.38a.3.3 0 0 0-.1.2c-.01.17.06.28.22.33l.47.15c.13.04.18.12.14.25a.24.24 0 0 1-.09.12.35.35 0 0 1-.17.07c-.56.07-.78.4-.68 1.02l-.57.1c-.18.02-.28-.05-.28-.24v-.43c0-.1-.05-.15-.15-.15h-.2c-.1 0-.15.06-.13.16.09.72.5 1.12 1.22 1.2 0 .16.03.34.1.54a8.1 8.1 0 0 1-1-.18c-.33-.08-.58-.08-.75 0-.24.12-.46.28-.65.49-.11.12-.09.16.07.1 1.01-.36 1.83-.28 2.45.26.12.1.2.08.25-.06.03-.05.03-.11.02-.18.12.12.13.24 0 .36-.1.1-.13.21-.1.35.12.48.31.79.58.91-1.58-.36-2.87-.16-3.87.6-.13.09-.2.21-.22.37-.11.86-.12 1.7-.03 2.5.04.35.19.65.45.9.26.24.57.37.92.4l6.16.33-.01.2c-2.55.1-5.1.13-7.66.1-1.1 0-2.9.05-5.4.17-.48.02-.83.01-1.04-.02-.95-.16-.97-.31-.06-.47.86-.15 1.8-.23 2.82-.24.53 0 .81-.28.85-.81.02-.39 0-1.08-.04-2.07-.02-.45-.18-.8-.47-1.01a2.73 2.73 0 0 0-1.97-.49c-.33.04-.59.05-.78.05-.15 0-.27-.05-.35-.13-.12-.13-.1-.25.04-.35.07-.05.11-.1.12-.13.01-.1-.03-.16-.12-.18-.17-.04-.31-.02-.42.08a.38.38 0 0 1-.4.08c-.47-.15-1-.09-1.62.2-.19.1-.32.06-.4-.08-.08-.13-.19-.19-.34-.16-.43.1-.86.14-1.3.14-.4.01-.63-.1-.7-.3a.82.82 0 0 1 .04-.66c.1-.2.25-.3.45-.32.16 0 .36.1.61.35.17.16.29.13.35-.1.02-.09 0-.17-.09-.25a.42.42 0 0 0-.22-.1c-.76-.14-1.2-.4-1.32-.78-.15-.47-.11-.96.12-1.46a.54.54 0 0 1 .3-.29l.57-.23c.13-.06.15-.14.06-.25a.83.83 0 0 0-.64-.32c-.16 0-.25-.08-.28-.24-.03-.15 0-.26.1-.33.14-.1.16-.23.08-.39-.03-.04-.12-.11-.27-.2-.2-.1-.19-.18.04-.22.4-.06.76 0 1.05.16.2.12.4.13.56.05.14-.07.16-.17.06-.3l-.13-.13c-.1-.1-.14-.2-.13-.29.02-.14.16-.25.41-.32.24-.02.45.12.64.4.12.18.3.27.5.26a.47.47 0 0 0 .45-.31l.05-.13c.04-.11.11-.16.21-.15.39.03.7.18.91.45.1.1.21.16.35.18.53.06 1.1.01 1.7-.14.17-.05.3-.06.4-.04l.61.11c.12.02.22-.02.32-.13l.5-.59c.25.06.47.08.68.05.17-.01.23-.1.19-.27a.53.53 0 0 0-.3-.34c-.6-.29-.98-.18-1.15.31-.77.48-1.72.67-2.87.58-.6-.05-.63-.22-.12-.53.17-.1.58-.15 1.23-.15.16 0 .25-.07.27-.23 0-.14-.07-.27-.24-.4a12.85 12.85 0 0 0-1.34-.83l-.09.09c-.04.05-.05.1 0 .15.2.25.47.46.8.64.04.02.06.07.06.12-.02.06-.05.1-.1.1-.4.07-.84.21-1.36.45-.13.06-.23.02-.3-.12-.19-.42-.51-.65-.96-.67-1.03.1-1.81-.18-2.37-.83-.1-.12-.1-.24.01-.35l.84-.8c.03-.04.1-.06.2-.08.82-.12 1.66-.36 2.52-.7.48-.18.47-.3-.06-.36l-1.3-.13c-.16-.01-.24-.1-.23-.28 0-.32.12-.64.33-.95.37-.23.75-.41 1.15-.54.07-.02.46-.04 1.16-.06.5 0 .81-.22.95-.62a.39.39 0 0 1 .33-.27c.27-.04.49 0 .67.1.16.1.18.22.08.37-.13.18-.32.34-.58.46-.05.03-.06.06-.04.12l.05.12c.04.1.1.12.2.05.67-.56 1.26-.57 1.76-.05.12.12.26.17.43.15.28-.03.54-.14.77-.32.12-.09.26-.12.42-.1.23.05.45.15.65.3a.6.6 0 0 0 .38.14h1.06c.05 0 .1-.03.12-.09l.05-.14c.01-.05 0-.07-.06-.06l-.56.07c-.15.02-.26-.04-.31-.18l-.13-.31c-.07-.18-.01-.28.17-.3.27-.04.46-.16.57-.35.05-.08.06-.16.02-.23-.08-.14-.2-.17-.33-.1-1.46.7-2.4 1.08-2.83 1.15-.33.05-.55-.07-.66-.38-.05-.14-.15-.21-.3-.22-.25 0-.48-.11-.7-.31a.52.52 0 0 0-.4-.16c-.43.03-.76-.13-1-.48a.5.5 0 0 0-.25-.2.47.47 0 0 0-.35.02l-.17-.26c-.1-.15-.1-.27.03-.37l.85-.62c.13-.1.25-.11.38-.05a2 2 0 0 0 .93.21c.15 0 .27-.07.36-.2.35-.48.54-.9.56-1.28a.8.8 0 0 1 .31-.6c.2-.15.4-.2.65-.17.95.13 1.9.37 2.82.7a.8.8 0 0 1 .35.24l.24.3c.27.33.54.55.82.66a8.77 8.77 0 0 1 3.5 2.5c.08.1.12.2.12.32v.16c0 .08.05.13.13.14.65.06 1.17-.11 1.56-.52Z" fill="#7689BA" /><path d="M19.6 17.23c-.24.12-.4.18-.46.17-.18-.01-.26-.11-.23-.29.04-.35.14-.57.28-.65.15-.07.38-.03.7.14.16.08.2.2.1.35-.03.06-.16.15-.4.28ZM32.12 17.9c.32-.03.45-.24.37-.62a.33.33 0 0 1 .14-.36.87.87 0 0 1 .6-.15c.57.08 1.15 0 1.75-.24.1-.04.15 0 .15.1v.26c0 .05-.03.08-.07.09l-1.42.35a.43.43 0 0 0-.3.25c-.19.4-.4.63-.62.71-.3.1-.5-.03-.6-.39Z" fill="#BAC1DA" /><path d="m35.28 18.35-.15.05c-.14.04-.15 0-.05-.1.27-.27.6-.39.98-.36.2.02.24.1.14.27-.14.22-.37.27-.69.15a.36.36 0 0 0-.23 0ZM20.62 18.08a.5.5 0 0 1 .29.03c.13.06.14.14.03.23-.32.26-.58.3-.78.12-.27-.25-.22-.4.15-.47.02 0 .07.01.15.05l.16.04Z" fill="#DEDEE6" /><path d="M36.72 18.66c.1-.09.18-.07.23.06.03.08.03.16 0 .24-.06.17-.15.18-.26.04-.1-.12-.09-.23.03-.34Z" fill="#BAC1DA" /><path d="M34.52 19.18a.8.8 0 0 1-.23.18c-.36.16-.4.07-.11-.28a.65.65 0 0 1 .2-.16c.48-.24.53-.15.14.26Z" fill="#DEDEE6" /><path d="M17.55 19.36c-.17-.12-.15-.2.04-.25.36-.09.68.04.95.37.04.06.05.12.01.2a.22.22 0 0 1-.17.11c-.11.02-.39-.12-.83-.43Z" fill="#BAC1DA" /><path d="M32.94 19.24c.3-.1.52-.06.63.12.08.11.05.17-.1.18-.17.01-.36-.03-.55-.14-.12-.06-.12-.12.02-.16ZM35.35 19.79c-.04.06-.05.12-.05.17 0 .08-.02.1-.1.05-.07-.04-.1-.13-.1-.24a.4.4 0 0 1 .23-.35c.7-.36 1.44-.2 2.25.5.02 0 .12.13.3.37s.6.24 1.25 0c.2-.06.24-.01.1.16-.24.33-.54.48-.89.44a.53.53 0 0 1-.38-.23 2.2 2.2 0 0 0-1.36-.87.66.66 0 0 0-.42.04c-.18.08-.37.05-.57-.1-.1-.07-.19-.05-.26.06Z" fill="#DEDEE6" /><path d="M12.98 21.86c.04-.32.23-.54.57-.67a.3.3 0 0 0 .2-.25c.07-.54.41-.8 1.01-.8.4 0 .67-.02.8-.04.17-.02.23-.12.18-.3a.94.94 0 0 0-.27-.36.47.47 0 0 1 .35-.02c.1.03.18.1.25.2.24.35.57.51 1 .48.15 0 .3.05.4.16.22.2.45.3.7.31.15 0 .25.08.3.22.1.3.33.43.66.38.43-.07 1.37-.46 2.83-1.15.14-.07.25-.03.33.1.04.07.03.15-.02.23-.1.2-.3.3-.57.35-.18.02-.24.12-.17.3l.13.31c.05.14.16.2.31.18l.56-.07c.05-.01.07.01.06.06l-.05.14c-.03.06-.06.09-.12.09h-1.06a.6.6 0 0 1-.38-.14c-.2-.15-.42-.25-.65-.3a.51.51 0 0 0-.42.1c-.23.18-.49.29-.77.32a.48.48 0 0 1-.43-.15c-.5-.52-1.09-.5-1.76.05-.1.07-.16.05-.2-.05l-.05-.12c-.02-.06 0-.1.04-.12.26-.12.45-.28.58-.46.1-.15.08-.27-.08-.37a.99.99 0 0 0-.67-.1.39.39 0 0 0-.33.27c-.14.4-.46.61-.95.62-.7.02-1.1.04-1.16.06-.4.13-.78.3-1.15.54Z" fill="#BAC1DA" /><path d="M20.86 19.87c.22.07.43.01.48-.13.04-.14-.1-.3-.33-.37-.22-.07-.44-.01-.48.13-.04.14.1.3.33.37ZM38.58 19.5c.1-.02.14.02.11.12-.02.1-.15.2-.37.26-.3.09-.36 0-.19-.27 0-.01.16-.05.45-.11ZM22.84 19.63h.64c.2 0 .22.07.08.2-.18.18-.44.18-.77.02-.06-.02-.08-.07-.06-.13.01-.06.05-.09.11-.09Z" fill="#DEDEE6" /><path d="M32.34 20.38c-.24-.23-.2-.3.12-.2.08.03.12.09.11.17 0 .09-.05.12-.12.1a.37.37 0 0 1-.11-.07ZM45.13 24.4c-.7.14-1.23.16-1.6.05a.5.5 0 0 1-.32-.27c-.2-.42-.46-.76-.78-1.03.02-.1.02-.2 0-.3a.2.2 0 0 0-.17-.2l-.16-.02c.3-.1.55-.25.73-.45.1-.1.09-.18-.06-.24-.66-.24-.83-.83-.53-1.79.26.3.5.6.74.9.22.27.32.49.3.65-.01.16-.06.32-.16.47-.09.15-.06.27.1.36.33.2.48.48.43.85-.01.15.05.23.2.25.45.06.87.31 1.28.77Z" fill="#657396" /><path d="M36.78 21.25c.07.06.11.12.11.17 0 .1-.04.18-.14.22-.1.05-.2.03-.28-.05-.62-.55-1.36-.56-2.22-.02-.16.1-.38.02-.65-.27-.02-.02.01-.05.08-.1a.21.21 0 0 1 .2-.02c.3.11.48.04.52-.21.03-.18.14-.26.31-.26.39 0 1-.17 1.86-.52.16-.06.3-.02.4.12.12.14.12.28 0 .42l-.22.3c-.06.08-.05.15.03.22Z" fill="#DEDEE6" /><path d="m40.3 20.99-.41-.43c-.19-.2-.15-.28.11-.24.16.02.3.08.4.2.1.11.15.23.15.36 0 .07-.03.11-.1.14-.05.02-.1.01-.15-.03Z" fill="#7689BA" /><path d="M22.7 20.8c.23-.37.58-.45 1.07-.26.21.09.21.17 0 .26l-.8.32c-.1.04-.18.02-.25-.06-.07-.09-.08-.18-.02-.27Z" fill="#DEDEE6" /><path d="M31.1 20.45c.1-.07.2-.1.3-.06.09.04.1.1.03.17-.16.14-.38.23-.67.26-.08 0-.15-.03-.2-.11-.09-.12-.05-.2.1-.23.14-.03.29-.04.44-.03Z" fill="#BAC1DA" /><path d="M32.26 21.06c.15-.1.32-.14.52-.1.16.04.17.1.03.2-.22.14-.49.2-.8.18-.17-.01-.19-.06-.03-.15a.6.6 0 0 1 .15-.07.58.58 0 0 0 .13-.06Z" fill="#DEDEE6" /><path d="M22.53 22.55c-.25.1-.44.33-.57.67a.56.56 0 0 1-.3.3c-.4.2-.82.2-1.24-.01-.2-.1-.2-.18.03-.24a5.95 5.95 0 0 0 3.08-1.9c.04-.05.1-.05.16 0l.1.09-.02.06c-.32.47-.73.82-1.24 1.03Z" fill="#fff" /><path d="M38.58 21.44c.05-.09.12-.13.2-.1.07 0 .1.04.13.1.02.07 0 .13-.04.17-.13.13-.24.17-.33.13-.09-.03-.11-.09-.08-.17l.04-.04.08-.09Z" fill="#BAC1DA" /><path d="M18.17 23.1a2.9 2.9 0 0 0-.55-.19c-.22-.06-.24-.11-.06-.16.08-.02.14-.06.16-.11.08-.16.08-.27.01-.33a1.47 1.47 0 0 1-.1-.1c-.05-.06-.07-.13-.05-.21a.2.2 0 0 1 .06-.12c.09-.07.16-.06.2.04a3 3 0 0 0 .68.88c.2.2.27.43.2.71a.64.64 0 0 1-.54.5c-.74.14-1.26.27-1.56.37-.07.03-.13.03-.18 0a.18.18 0 0 1-.09-.1c-.01-.05 0-.1.05-.12a4.5 4.5 0 0 1 1.65-.58c.52-.08.56-.24.12-.48Z" fill="#DEDEE6" /><path d="M35.42 23.3a7.86 7.86 0 0 0 2.62-1.37c.19-.15.23-.12.12.1-.12.26-.32.47-.6.63-.12.07-.22.17-.31.28l-.52.68c-.1.14-.23.18-.4.12l-.9-.33c-.11-.04-.11-.07 0-.1Z" fill="#fff" /><path d="M28.88 21.93c.06-.08.16-.1.29-.09.05.01.1.04.13.09.15.18.05.28-.28.28a.16.16 0 0 1-.16-.1.16.16 0 0 1 .02-.18Z" fill="#7689BA" /><path d="M40.82 21.95c.13-.06.24-.06.33.01.09.06.09.11 0 .17a.33.33 0 0 1-.34.02c-.13-.07-.13-.14 0-.2Z" fill="#657396" /><path d="M34.94 22.11c.13-.13.22-.1.28.07.03.1.01.26-.05.48-.06.18-.17.23-.34.15-.27-.12-.23-.35.11-.7Z" fill="#7689BA" /><path d="M14.95 22.28c.24 0 .38.14.44.4.02.07 0 .12-.05.16a.15.15 0 0 1-.17.02c-.22-.1-.36-.22-.4-.36-.03-.15.02-.22.18-.22Z" fill="#BAC1DA" /><path d="M20.47 22.51a.8.8 0 0 1-.43.18c-.14.01-.18-.05-.12-.17.14-.3.33-.32.56-.08.03.02.03.05 0 .07Z" fill="#DEDEE6" /><path d="M29.91 22.45c-.03-.12.01-.17.13-.15.16.02.26.11.3.27.03.1-.01.14-.11.12-.17-.03-.28-.1-.32-.24Z" fill="#BAC1DA" /><path d="M35.7 22.57a.37.37 0 0 1-.14.02c-.22-.07-.23-.14 0-.22.24-.09.42-.09.5 0 .05.05.05.1-.01.14a.39.39 0 0 1-.2.05.5.5 0 0 0-.15.01Z" fill="#7689BA" /><path d="M33.43 23.2a.5.5 0 0 0-.09-.1.4.4 0 0 0-.21-.07c-.35-.03-.56-.1-.64-.18-.09-.11-.06-.2.07-.24.3-.1.6-.14.93-.08.15.02.23.12.23.28v.85c0 .18-.09.29-.27.32a.46.46 0 0 1-.31-.05c-.17-.1-.19-.19-.04-.28l.31-.22c.1-.06.1-.14.02-.23Z" fill="#fff" /><path d="m41.02 23.34-.76.35-.68-.08a.52.52 0 0 1-.36-.19c-.43-.52-.55-.48-.37.13-.21.15-.28-.01-.21-.5l.38-.21c.14-.08.27-.07.39.04.42.37.96.53 1.6.46Z" fill="#DEDEE6" /><path d="M38.64 23.06c-.07.48 0 .64.2.49.72.36.4.42-.94.18-.16-.03-.22-.12-.18-.28.09-.33.4-.46.92-.4ZM30.7 23.14c.14 0 .25.04.33.09.16.1.18.21.03.34a.51.51 0 0 1-.11.08c-.07.03-.12.03-.15-.02l-.2-.25c-.16-.17-.12-.26.1-.24Z" fill="#fff" /><path d="M15.37 23.58c.02-.13.05-.21.08-.24.06-.07.12-.1.17-.1.2-.03.34.02.44.15.13.17.1.3-.1.4-.35.17-.52.44-.49.8.01.16-.06.23-.2.22-.34-.01-.8.1-1.38.34-.29.13-.33.07-.11-.16.22-.25.67-.6 1.36-1.07.12-.08.2-.2.23-.34Z" fill="#BAC1DA" /><path d="M34.16 23.33c.26-.12.41-.12.45 0 .04.11 0 .18-.12.19-.24.02-.37 0-.4-.06-.01-.06.01-.1.07-.13Z" fill="#7689BA" /><path d="M41.6 24.97a.78.78 0 0 0-.24-.27c-.2-.12-.33-.1-.43.08a.6.6 0 0 1-.07-.23c.05.02.08.02.12.01.05-.02.07-.05.05-.11a.9.9 0 0 0-.56-.62c-.07 0-.14-.06-.2-.14l.75-.35.91.63c.11.08.16.19.14.32a.31.31 0 0 1-.2.28c-.15.06-.23.2-.27.4Z" fill="#657396" /><path d="M31.77 24.09c.2-.28.38-.4.56-.34.18.06.2.15.05.27-.2.16-.38.25-.52.25-.15 0-.18-.06-.1-.18Z" fill="#DEDEE6" /><path d="M40.86 24.55c-.36-.1-.49-.34-.4-.72.28.1.47.3.57.62.02.06 0 .1-.05.11a.15.15 0 0 1-.12 0Z" fill="#BAC1DA" /><path d="M30.54 24c.06-.02.1 0 .13.04.04.05.04.1.02.15-.16.32-.48.46-.95.44-.24-.02-.27-.1-.09-.26.2-.18.5-.3.9-.38ZM38.77 24.82c.06.01.08.05.04.1l-.32.42c-.06.08-.14.1-.24.07l-2.95-1.05c-.2-.07-.2-.16-.03-.26.22-.13.42-.17.62-.1.89.29 1.85.56 2.88.82Z" fill="#fff" /><path d="M40.24 24.58c-.33.35-.56.52-.7.5-.23-.02-.29-.12-.15-.29.18-.23.42-.37.74-.42.25-.04.29.03.11.21Z" fill="#BAC1DA" /><path d="M17.75 24.62c.3-.07.5-.08.61 0 .17.1.17.2 0 .3-.28.15-.5.16-.68.03a.17.17 0 0 1-.07-.18.18.18 0 0 1 .14-.15ZM33.26 25.02c-.22-.09-.34-.17-.36-.24a.16.16 0 0 1 .06-.19.2.2 0 0 1 .21-.02c.28.1.44.24.5.4.08.18.03.25-.14.23-.03 0-.07-.03-.12-.08a.5.5 0 0 0-.15-.1ZM41.6 24.97c-.4.37-.83.58-1.3.65-.18.02-.23-.04-.15-.2.14-.27.4-.48.78-.64.1-.18.24-.2.43-.08.1.07.18.16.24.27ZM32.72 25.8c.1.05.15.1.17.14.04.08.02.16-.05.23a.28.28 0 0 1-.27.07c-.4-.08-.6-.35-.55-.8.04-.38.16-.4.36-.07l.11.18c.07.11.14.2.23.24Z" fill="#DEDEE6" /><path d="M34.66 25.88c-.27-.29-.54-.2-.79.25-.07.13-.18.18-.32.16-.14-.03-.21-.17-.22-.43 0-.12.04-.23.12-.33.48-.53.86-.62 1.15-.28l.62.68c.05.06.05.12 0 .19l-.11.1c-.04.05-.09.06-.14.04a.43.43 0 0 1-.25-.27.28.28 0 0 0-.06-.11ZM19.25 25.91c-.27.03-.53.12-.79.27-.18.1-.29.06-.3-.16-.02-.17.1-.4.34-.69.13-.15.3-.22.49-.2.2.02.34.12.44.29.18.32.55.37 1.1.13.1-.05.17-.02.21.09l.06.13c.02.05 0 .09-.06.1l-.97.3a.18.18 0 0 1-.19-.06.5.5 0 0 1-.07-.09.26.26 0 0 0-.26-.11ZM38.95 25.37c.17-.14.35-.14.53 0l.3.23c.17.13.17.26-.03.36-.47.27-.87.41-1.22.43a6.4 6.4 0 0 1-1.78-.33c-.21-.06-.22-.13-.02-.23.38-.17.8-.15 1.25.06.13.06.24.05.34-.03l.63-.5Z" fill="#fff" /><path d="m35.61 25.42.14-.06c.07-.02.12 0 .16.05a.5.5 0 0 1 .1.22c0 .13-.05.18-.17.15a.4.4 0 0 1-.28-.17c-.07-.08-.05-.15.05-.19ZM18.06 27.14c.13.1.32.18.58.25l-.5.59c-.1.1-.2.15-.32.13l-.6-.11c-.1-.02-.24 0-.42.04-.6.15-1.16.2-1.69.14a.55.55 0 0 1-.35-.18 1.27 1.27 0 0 0-.9-.45c-.1 0-.18.04-.22.15l-.05.13c-.08.2-.23.3-.44.3a.54.54 0 0 1-.51-.25c-.19-.28-.4-.42-.64-.4l1.04-1.14c.45.02.77.25.96.67.07.14.17.18.3.12.52-.24.97-.38 1.35-.45.06 0 .1-.04.1-.1.01-.05 0-.1-.06-.12-.32-.18-.59-.39-.8-.64-.04-.05-.03-.1.01-.15l.1-.1h.04c.64.39 1.08.67 1.29.84.17.13.25.26.24.4-.02.16-.1.24-.27.23-.65 0-1.06.05-1.23.15-.51.3-.47.48.12.53 1.15.1 2.1-.1 2.87-.58Z" fill="#BAC1DA" /><path d="M17.06 25.5c.28.05.48.2.6.46.04.08.04.16-.01.24a.21.21 0 0 1-.2.1c-.37 0-.59-.18-.66-.54-.04-.22.05-.31.27-.26Z" fill="#DEDEE6" /><path d="m42.06 26.78.12-.15a.1.1 0 0 1 .07-.05c.14 0 .23.07.26.23.02.1-.05.18-.19.25a.99.99 0 0 1-.5.07l-1.99-.2c-.25-.01-.28-.11-.1-.3.27-.23.61-.33 1.04-.28.15.02.28-.01.4-.1.45-.32.93-.54 1.46-.66.31-.07.34 0 .08.19l-1.03.77c-.08.06-.08.12 0 .18l.1.09c.11.08.2.06.28-.04Z" fill="#fff" /><path d="M43.43 26.47a.97.97 0 0 1-.03.12c-.03.07-.07.1-.12.1-.12.02-.2 0-.27-.04-.16-.1-.18-.24-.06-.4l.18-.23c.05-.07.11-.1.2-.06.2.06.25.18.15.35a.54.54 0 0 0-.05.16Z" fill="#7689BA" /><path d="M28.84 27.05c.06-.1.1-.18.15-.22.2.2.43.35.71.42.17.05.27-.02.3-.2.01-.05.05-.1.11-.14.16-.09.2-.05.12.11-.12.22-.1.39.05.52.08.08.2.12.38.11.6-.02 1.2-.07 1.83-.14.12 0 .33-.15.64-.43.52-.48 1-.59 1.43-.31.11.06.16.16.14.29-.03.13-.1.2-.22.23-.47.12-.88.15-1.24.1-.24-.03-.3.03-.19.17l.17.11c.13.07.14.15.04.25a.26.26 0 0 1-.1.06c-.05.02-.09.03-.11.02a2.6 2.6 0 0 0-2.1.16.42.42 0 0 1-.44-.02l-1.67-1.09Z" fill="#DEDEE6" /><path d="M35.62 27.74c.06.42.29.73.5.7.23-.04.36-.4.3-.8-.06-.42-.28-.73-.5-.7-.22.03-.35.39-.3.8Z" fill="#BAC1DA" /><path d="M20.91 27.15c.17 0 .25.14.25.43 0 .78-.08 1.17-.24 1.17-.15 0-.24-.39-.25-1.16 0-.3.08-.44.24-.44Z" fill="#DEDEE6" /><path d="M37.02 27.6c-.06-.19-.01-.33.16-.43.13-.07.23-.05.31.09.07.11.08.26.03.43a.22.22 0 0 1-.18.16.22.22 0 0 1-.24-.09.68.68 0 0 1-.08-.16Z" fill="#BAC1DA" /><path d="M28.01 27.76c.16.13.36.14.45.02.1-.11.04-.3-.11-.44-.16-.12-.36-.13-.45-.01-.1.11-.04.3.11.43ZM22.39 27.64c-.09.08-.2.14-.34.2-.1.04-.18.01-.21-.1a.68.68 0 0 1-.02-.11c0-.12.04-.2.15-.25.17-.07.3-.04.42.07.06.06.06.13 0 .19ZM26.31 27.94l.75.34c.15.07.15.14 0 .2a.75.75 0 0 1-.52.04l-.4-.26c-.2-.14-.48-.16-.8-.06-.46.02-.81-.21-1.07-.7a.13.13 0 0 1 .02-.15c.04-.04.09-.06.15-.04.1.03.2.09.25.17.1.13.22.2.38.2.48 0 .9.08 1.24.26Z" fill="#DEDEE6" /><path d="M38.35 27.4c.12-.1.28-.1.49-.03.2.07.23.19.11.36-.15.23-.36.23-.6.02-.15-.13-.15-.24 0-.35Z" fill="#7689BA" /><path d="M41.23 28.3c-.03.1-.1.16-.22.2a.46.46 0 0 1-.27-.03c-.86-.32-1.26-.58-1.2-.77.08-.2.54-.14 1.41.15.11.04.19.09.23.15.07.1.09.2.05.3Z" fill="#fff" /><path d="m42.38 28.02-.39.16c-.12.05-.16.02-.1-.1l.12-.24c.12-.12.25-.11.4 0 .08.08.08.14-.03.18Z" fill="#BAC1DA" /><path d="M23.4 28.45c-.17.02-.27.02-.3 0-.57-.17-.56-.3 0-.39.82-.12 1.36.07 1.6.56.04.07.03.12 0 .17-.05.05-.1.07-.17.04l-.82-.36a.76.76 0 0 0-.32-.02ZM40.12 29.45c.16-.06.18-.15.04-.26l-1.24-.94c-.1-.08-.09-.14.03-.19l.14-.05c.05-.03.1-.02.13.02.36.3.71.53 1.07.67.26.1.4.3.42.58.03.28-.09.48-.34.6-.16.09-.3.06-.45-.08-.13-.12-.1-.22.06-.29l.14-.06Z" fill="#DEDEE6" /><path d="M37.97 28.27c.1-.1.2-.13.29-.12.3.05.3.14 0 .27a.34.34 0 0 1-.27 0c-.08-.05-.09-.1-.02-.15ZM29.88 28.73l-.3.4c-.03.04-.07.04-.12 0l-.12-.09c-.12-.08-.12-.18-.02-.28.44-.47.9-.48 1.35-.03.06.06.05.1-.02.13l-.12.05c-.02 0-.04 0-.05-.02a1 1 0 0 0-.22-.22c-.15-.1-.28-.08-.38.06Z" fill="#BAC1DA" /><path d="M42.32 29.35c-.32.23-.64.26-.97.09-.13-.07-.13-.13-.03-.2l1.37-.75c.14-.07.21-.03.23.13.02.1 0 .2-.05.31a.45.45 0 0 1-.18.19l-.37.23Z" fill="#fff" /><path d="M14.33 29.48c.77.07 1.37.28 1.8.63.06.06.07.12.03.2a.23.23 0 0 1-.13.12c-.04.01-.08.01-.13-.01-.28-.12-.62-.29-1.02-.5-.17-.1-.35-.07-.53.08a.37.37 0 0 1-.39.08l-.37-.13c-.17-.07-.31-.03-.42.12l-1.1 1.44c-.1.13-.2.15-.35.06-.15-.1-.29-.16-.4-.18-.22-.03-.28-.15-.16-.34.07-.1.17-.2.3-.3.07-.05.18-.04.35.04l.11.05c.06.02.1.02.16 0 .8-.39 1.17-.97 1.1-1.75-.02-.17.06-.22.24-.16l.52.4c.11.09.24.14.39.15Z" fill="#DEDEE6" /><path d="M28.45 29.5a.98.98 0 0 1-.09-.2c-.07-.2 0-.3.23-.3h.17c.13 0 .2.06.22.19.04.2.15.28.34.28a1 1 0 0 1 .54.2c.18.12.17.2-.04.23-.36.05-.68 0-.96-.16-.14-.08-.26-.06-.36.06a.7.7 0 0 0-.13.34c0 .05-.04.1-.1.11a.26.26 0 0 1-.13.03c-.09-.01-.11-.05-.07-.13.06-.12.17-.24.32-.36.1-.08.11-.17.06-.28ZM18.36 29.1c.09-.02.16 0 .22.08.06.07.08.14.04.23-.08.21-.2.4-.4.53-.14.12-.25.09-.3-.1-.15-.4 0-.64.44-.74ZM32.04 29.5c-.2-.07-.32-.13-.33-.2a.16.16 0 0 1 .06-.19c.07-.04.13-.04.18.02.1.1.15.2.16.32 0 .05-.02.07-.07.05Z" fill="#fff" /><path d="M33.6 29.62c-.4.06-.64.3-.72.73 0 .05-.03.07-.08.05l-.15-.05c-.04-.02-.06-.05-.05-.09.12-.47.34-.84.67-1.1.12-.1.25-.13.4-.07.2.07.3.15.27.24a.39.39 0 0 1-.34.3Z" fill="#DEDEE6" /><path d="M16.56 29.18c.1-.06.25-.03.46.1.09.04.13.14.14.27 0 .15-.07.2-.2.14-.2-.1-.35-.19-.44-.28-.09-.1-.08-.18.04-.23Z" fill="#BAC1DA" /><path d="M26.26 29.28c.1-.13.21-.13.33-.03.04.03.08.08.11.14.08.14.04.24-.1.3-.09.04-.2 0-.32-.09-.12-.08-.13-.2-.02-.32Z" fill="#7689BA" /><path d="M37.33 29.73a.5.5 0 0 1-.15-.24c.2-.31.4-.41.62-.31.38.18.58.52.6 1.03.02.08-.02.13-.1.13h-.16c-.13 0-.2-.07-.22-.2a.9.9 0 0 0-.18-.47.21.21 0 0 0-.21-.09c-.08.01-.15.06-.2.15Z" fill="#DEDEE6" /><path d="M39.13 29.22c.03 0 .08 0 .14.04.05.04.05.06 0 .09-.07.03-.12.01-.16-.06-.02-.03-.02-.05.02-.07Z" fill="#657396" /><path d="M22.96 29.59c.07.02.15.04.22.08a.3.3 0 0 1 .17.21c.03.1 0 .22-.07.33-.09.15-.22.2-.38.14-.29-.1-.46-.35-.52-.75-.04-.22.06-.27.28-.14l.12.07.18.06Z" fill="#fff" /><path d="M37.18 29.49c.04.12.09.2.15.24.06.38.02.65-.13.82-.13.14-.21.12-.24-.07-.07-.37 0-.7.22-.99ZM44.41 29.61a.63.63 0 0 1 .43.06c-.4.18-.3.48.28.9.15.12.13.2-.05.25a.21.21 0 0 1-.16 0c-.2-.1-.34-.1-.41.02l-.09.14c-.06.1-.15.11-.28.03a2.83 2.83 0 0 1-1.08-1.22c-.08-.2-.04-.23.12-.1l.44.34c.14.1.29.12.45.06a.52.52 0 0 0 .35-.48Z" fill="#657396" /><path d="M30.27 29.94c-.12-.08-.1-.14.03-.18.48-.13.81 0 .99.35.08.18.03.25-.16.22a1.97 1.97 0 0 1-.86-.39Z" fill="#fff" /><path d="M34.3 31.6c-.1.12-.21.2-.36.23-.2.04-.27-.03-.24-.23l.24-1.44c.03-.14.1-.14.23 0 .46.5.51.98.14 1.44Z" fill="#DEDEE6" /><path d="M18.89 31.52c-.35-.43-.33-.87.06-1.32.13-.13.2-.1.24.07.11.62.14 1.06.1 1.35-.03.23-.16.36-.38.4-.18.01-.22-.05-.1-.2l.08-.12c.05-.06.05-.12 0-.18Z" fill="#fff" /><path d="M27.14 31.27c-.23.07-.48 0-.75-.18a.14.14 0 0 1-.07-.13c.01-.06.04-.1.1-.12a17.23 17.23 0 0 1 1.05-.34c.05-.02.1-.01.14.03.04.05.05.1.03.15-.11.32-.28.51-.5.59ZM39.32 31.05c.04.15.14.23.3.23.17 0 .3-.07.38-.22a.74.74 0 0 1 .42-.35c.15-.07.19-.02.12.13-.1.2-.27.34-.51.43-.15.05-.22.16-.19.32.04.16.15.29.34.37.16.07.15.1-.02.1-.26-.01-.48-.14-.67-.38a.25.25 0 0 0-.26-.1.25.25 0 0 0-.21.18c-.1.32-.27.49-.5.5-.64.01-.71-.18-.23-.57.05-.04.24-.26.56-.65.05-.05.1-.1.18-.1.17-.04.26 0 .29.1Z" fill="#DEDEE6" /><path d="M22.4 31.22c-.26.28-.36.6-.22.73.13.13.45 0 .7-.27.26-.27.36-.6.22-.72-.13-.13-.45-.01-.7.26Z" fill="#fff" /><path d="M35.9 30.9c.16.42.15.74-.04.96-.15.18-.23.15-.25-.08-.03-.32.03-.6.17-.88.05-.1.1-.1.13 0ZM37.5 31.08c-.15.17-.2.37-.12.44.08.08.27 0 .42-.17.15-.17.21-.37.13-.44-.08-.08-.27 0-.42.17Z" fill="#657396" /><path d="M16.74 32.1c-.08.16-.26.15-.52-.01a4.98 4.98 0 0 1-.9-.88c-.02-.01-.01-.02 0-.03l.16-.06c.04-.02.07 0 .1.03.44.59.88.7 1.3.32.16-.13.29-.11.4.06l.61.92c.21.32.13.45-.25.39-.32-.05-.52-.28-.6-.69-.05-.32-.15-.33-.3-.06ZM32.1 31.52a.55.55 0 0 1 .05-.2c.07-.06.13-.06.19.01l.85 1.22c.07.1.04.15-.08.15h-.34a.1.1 0 0 1-.08-.04c-.33-.35-.67-.53-1.03-.55a.42.42 0 0 1-.35-.21 2.6 2.6 0 0 0-.6-.61c-.08-.06-.08-.12-.01-.17l.1-.1h.02c.21.29.53.51.95.68.17.07.28 0 .32-.18Z" fill="#fff" /><path d="M41.7 31.23c.17-.04.26.03.25.2-.03.34-.33.46-.93.36a.16.16 0 0 1-.14-.12.16.16 0 0 1 .06-.18c.1-.09.36-.18.76-.26Z" fill="#DEDEE6" /><path d="M18.2 31.48c.05-.09.13-.1.22-.04.14.1.19.2.15.29a.16.16 0 0 1-.14.1.16.16 0 0 1-.17-.07c-.08-.12-.1-.21-.07-.28Z" fill="#BAC1DA" /><path d="M20.38 31.61c.07-.12.15-.12.23 0 .06.09.07.22.02.37a.16.16 0 0 1-.13.12.16.16 0 0 1-.17-.06c-.08-.09-.06-.23.05-.43Z" fill="#DEDEE6" /><path d="M29.75 32.21c.34.13.65.13.69.01.04-.11-.2-.31-.53-.43-.34-.13-.64-.13-.69-.01-.04.11.2.31.53.43Z" fill="#fff" /><path d="M43.08 31.63c.3 0 .58.14.84.38.02.02.03.04.02.06 0 .05-.03.08-.07.1a.1.1 0 0 1-.1 0c-.25-.14-.48-.21-.7-.22-.23-.01-.47.04-.73.15a.1.1 0 0 1-.1 0 .1.1 0 0 1-.06-.1c0-.02 0-.05.03-.06.28-.22.57-.33.87-.31Z" fill="#657396" /><path d="M14.57 32.27c.3.12.6.13.64.01.04-.11-.17-.3-.48-.43-.31-.12-.6-.12-.65 0-.04.11.18.3.49.42Z" fill="#fff" /><path d="M25.26 32.37c.17.11.3.25.38.43.01.07 0 .13-.02.18-.05.14-.13.15-.25.06-.62-.54-1.44-.62-2.45-.26-.16.06-.18.02-.07-.1.19-.2.4-.37.65-.48.17-.09.42-.1.75-.01.33.08.67.14 1 .18Z" fill="#BAC1DA" /><path d="m28.36 32.35-.86.26c-.27.07-.3.02-.08-.16.5-.44.97-.45 1.42-.02.3.3.28.36-.06.2l-.23-.23a.17.17 0 0 0-.19-.05Z" fill="#7689BA" /><path d="M13.2 32.55c-.14 0-.16-.04-.07-.15.08-.08.2-.13.35-.13.34-.02.38.05.12.2a.88.88 0 0 1-.4.08ZM21.3 32.5c.06-.1.12-.17.16-.2.18-.15.23-.1.17.16-.08.31-.22.45-.43.41-.15-.02-.17-.09-.07-.2a.78.78 0 0 1 .1-.07.23.23 0 0 0 .07-.1Z" fill="#BAC1DA" /><path d="M44.69 33.1c-.2.04-.3-.03-.33-.23-.04-.28.15-.47.56-.57.2-.05.3.03.3.23.02.27-.16.46-.53.56ZM35.4 33.19a.32.32 0 0 0-.12.16c-.03.1 0 .2.07.28l.15.15c.15.16.14.24-.03.27a.68.68 0 0 1-.13-.04.44.44 0 0 1-.3-.31.41.41 0 0 1 .1-.41l.54-.6c.14-.14.26-.13.39.02.13.16.13.29 0 .38-.09.07-.27.08-.55.06a.17.17 0 0 0-.13.04Z" fill="#7689BA" /><path d="M42.24 33.8c-.38 0-.8-.1-1.24-.3 0-.22-.09-.31-.24-.28-1.03.24-2.05.54-3.06.9-.05.03-.1.01-.12-.04l-.05-.15c-.02-.06 0-.1.05-.13l2.98-1.2a.41.41 0 0 1 .34 0l.53.23c.13.06.26.05.4-.04a.97.97 0 0 1 .75-.12c.14.03.2.12.2.25a.3.3 0 0 1-.04.12.23.23 0 0 1-.16.13c-.23.05-.34.27-.34.64Z" fill="#BAC1DA" /><path d="M30.67 33.35a1.39 1.39 0 0 1-.07-.04c-.12-.12-.16-.23-.12-.34.04-.13.1-.14.2-.03.05.07.05.2-.01.4ZM45.42 33.8a.5.5 0 0 1-.02-.17c.2-.09.27-.25.2-.49l.02-.1c.22.14.32.3.31.46 0 .19-.18.29-.51.3Z" fill="#7689BA" /><path d="M14.66 33.37c.06-.05.22-.11.48-.18a.82.82 0 0 1 .49.04c.89.34 1.8.7 2.74 1.1.04 0 .05.03.04.07l-.05.14c-.02.06-.06.07-.12.04-.47-.3-.96-.46-1.46-.47a.73.73 0 0 1-.4-.14c-.44-.32-.95-.4-1.53-.25-.33.09-.58.12-.74.09a2.72 2.72 0 0 1-.8-.33c-.12-.07-.12-.13 0-.18l.28-.1a.11.11 0 0 1 .1 0l.58.26c.12.06.25.03.39-.09ZM23.5 33.8c-.35.19-.7.35-1.04.5-.02.02-.03.01-.04-.01l-.07-.16c-.03-.07 0-.12.07-.15.66-.28 1.26-.55 1.8-.82.18-.09.36-.04.54.16.12.13.1.22-.08.26l-.46.06c-.32.03-.56.09-.71.16Z" fill="#fff" /><path d="M34.08 33.42c-.06-.12-.03-.18.1-.15.05 0 .08.02.12.04.06.04.07.1.03.16-.08.13-.17.12-.25-.05Z" fill="#657396" /><path d="M19.92 33.82c.03-.07.1-.1.21-.1.15-.01.2.06.15.2-.02.06-.1.1-.24.1-.14 0-.18-.07-.12-.2Z" fill="#DEDEE6" /><path d="M41.5 33.9c.08-.1.17-.12.26-.06.14.1.14.2 0 .3-.26.17-.57.24-.95.2-.21-.03-.22-.1-.03-.2.04-.03.23-.08.57-.15a.27.27 0 0 0 .15-.1ZM33.26 34.15a.37.37 0 0 0-.33.13.9.9 0 0 1-.46-.22c.05-.02.1-.06.13-.13.19.1.41.18.66.22Z" fill="#7689BA" /><path d="M21.07 34.95a.38.38 0 0 0-.11.04c-.02 0-.03.02-.03.04a2.2 2.2 0 0 1-.62 1.54c-.1.12-.2.11-.26-.04l-.21-.55a.37.37 0 0 1 .08-.43c.37-.36.66-.74.87-1.15.2-.37.35-.35.47.07.03.14.15.33.34.58.08.1.11.23.08.36a5.8 5.8 0 0 0-.15 2.28c.09.5-.03.55-.34.15-.5-.67-.54-1.18-.1-1.56.12-.1.17-.22.15-.36l-.05-.95c0-.03-.04-.04-.12-.02Z" fill="#fff" /><path d="M33.26 34.15c.12.04.2.08.26.14.08.08.07.16-.02.23-.15.12-.34.04-.57-.24.09-.1.2-.14.33-.13Z" fill="#DEDEE6" /><path d="m37.39 34.97-.14 1.63a2.2 2.2 0 0 1-1.23.34.37.37 0 0 1-.33-.23c-.12-.26-.28-.4-.47-.45l-.07-.08L36 36c.07.15.16.24.29.27.16.04.28-.02.36-.17.1-.18.12-.38.08-.58-.04-.18-.14-.23-.3-.15-.17.08-.3.27-.39.56a1.45 1.45 0 0 0-.64-.75c.08-.4.25-.7.51-.92.13-.1.26-.12.41-.06.15.07.23.18.23.35.02.37.3.51.83.42Z" fill="#BAC1DA" /><path d="M35.41 35.18c.3.17.51.42.64.75l-.04.07-.86.18c-.25-.42-.16-.75.26-1Z" fill="#DEDEE6" /><path d="m36 36 .05-.07c.09-.29.22-.48.4-.56.15-.08.25-.03.29.15.04.2.01.4-.08.58-.08.15-.2.2-.36.17-.13-.03-.22-.12-.3-.27Z" fill="#20376A" /><path d="M37.25 36.6v.68c-.33-.07-.64-.1-.91-.06-.16.02-.25.12-.25.29v.16c0 .08.05.12.14.12l1.1-.08.45 1.13c-.37-.27-.58-.54-.63-.81-.04-.17-.13-.21-.28-.12-.12.08-.18.23-.18.45 0 .15-.07.22-.23.21a3.08 3.08 0 0 1-1.13-.29c-.16-.08-.2-.2-.11-.36.31-.61.31-1.16 0-1.66.2.04.35.2.47.45.07.14.18.21.33.23.36.03.77-.08 1.23-.34Z" fill="#657396" /><path d="M37.25 37.28c.08.12.1.26.07.43l-1.1.08c-.08 0-.13-.04-.13-.13v-.15c0-.17.09-.27.25-.29.27-.03.58-.01.91.06Z" fill="#BAC1DA" /></svg>