<?xml version='1.0' encoding='utf-8'?>
<!-- by TradeStack -->
<svg width="56" height="56" viewBox="0 0 56 56" xmlns="http://www.w3.org/2000/svg"><path fill="#F0F3FA" d="M0 0h56v56H0z" /><path fill-rule="evenodd" d="M51.13 23.47c1.13.28.84 1.88.84 1.9v5.47s.2 1.41-.82 1.66c-1.19.3-11.6 2.5-23.04 2.5h.01c-11.44 0-21.78-2.15-22.96-2.45C3.85 32.2 4 30.58 4 30.58v-5.55s-.06-1.19 1.06-1.48c1.18-.3 11.4-2.57 23.05-2.55 11.66.02 21.96 2.2 23.01 2.47ZM34 26.74 33.98 32H32V30h-1.5l-.03-2H32v-.66S32.04 26 31 26c-1 0-1.02 1.3-1.02 1.3L30 32h-1.98L28 26.74s.2-2.73 3-2.74c2.8-.01 3 2.74 3 2.74ZM27.47 32l-1.34.01c-3.63 0-3.63-4-3.63-4s0-4 3.51-4h1.49v2h-1.3c-1.7 0-1.7 2-1.7 2s0 2 1.7 1.96h1.3V32l-.03-.01ZM9 24.03v1.98h1.5l-.02 5.97h2.02l.02-5.96L14 26v-1.98l-5 .01Zm26 0V32l4-.03v-1.98L37 30v-6l-2 .02ZM45 28a2 2 0 1 1-4 0 2 2 0 0 1 4 0Zm2 0a4 4 0 1 1-8 0 4 4 0 0 1 8 0Zm-29 2a2 2 0 1 0 0-4 2 2 0 0 0 0 4Zm0 2a4 4 0 1 0 0-8 4 4 0 0 0 0 8Z" fill="#FC5C43" /></svg>