<!-- by TradeStack --><svg width="56" height="56" viewBox="0 0 56 56" xmlns="http://www.w3.org/2000/svg"><path fill="#F0F3FA" d="M0 0h56v56H0z"/><path fill-rule="evenodd" d="M20.35 35.88c.82 0 1.6-.12 2.33-.33a19.18 19.18 0 0 1 10.64 0c.73.22 1.51.33 2.33.33 4.48 0 8.35-3.53 8.35-7.88s-3.87-7.88-8.35-7.88c-.82 0-1.6.11-2.33.33a19.18 19.18 0 0 1-10.64 0 8.33 8.33 0 0 0-2.33-.33C15.87 20.12 12 23.65 12 28s3.87 7.88 8.35 7.88Zm3.54 3.62c1.31-.38 2.71-.5 4.11-.5 1.4 0 2.8.12 4.1.5 1.13.33 2.32.5 3.55.5C42.47 40 48 34.63 48 28s-5.53-12-12.35-12c-1.23 0-2.42.17-3.54.5-1.31.38-2.71.5-4.11.5-1.4 0-2.8-.12-4.1-.5-1.13-.33-2.32-.5-3.55-.5C13.53 16 8 21.37 8 28s5.53 12 12.35 12c1.23 0 2.42-.17 3.54-.5Z" fill="#70C7D4"/></svg>