<?xml version='1.0' encoding='utf-8'?>
<!-- by TradeStack -->
<svg width="56" height="56" viewBox="0 0 56 56" xmlns="http://www.w3.org/2000/svg"><path fill="#F0F3FA" d="M0 0h56v56H0z" /><path fill-rule="evenodd" d="M30 13.05c7.72.62 14 7.08 14 14.95 0 7.87-6.28 14.33-14 14.95v-29.9Zm0-1c8.27.62 15 7.52 15 15.95s-6.73 15.33-15 15.95c-.33.03-.66.04-1 .05V12c.34 0 .67.02 1 .05Z" fill="#8B0304" /><path d="M12 28a16 16 0 0 1 16.01-16v11.58l-2.66.42L20 23l-3-3-1 1.45L19 26l4 1 3 6v4l2 1h.01v6A16 16 0 0 1 12 28Zm25-5-5.35 1-2.65-.4V38l3-1v-4l2-6 4-1 3-4.5-1-1.5-3 3Z" fill="#8B0304" /></svg>