<?xml version='1.0' encoding='utf-8'?>
<!-- by TradeStack -->
<svg width="56" height="56" viewBox="0 0 56 56" xmlns="http://www.w3.org/2000/svg"><path fill="#F0F3FA" d="M0 0h56v56H0z" /><path fill-rule="evenodd" d="M40.76 18.56a.38.38 0 0 0 .48.08l.9-.5a.24.24 0 0 1 .3.06 12.7 12.7 0 0 1 1.52 2.5.46.46 0 0 1-.2.58l-.65.37a.45.45 0 0 0-.2.22.43.43 0 0 0-.01.28c.19.67.37 1.25.53 1.77.17.5.3 1.08.38 1.72.4 2.78.09 5.47-.92 8.07a.5.5 0 0 0 0 .37c.05.12.15.22.27.28.16.07.34.17.53.27.25.13.31.3.21.52l-.11.24a7.1 7.1 0 0 1-1.45 2.37.17.17 0 0 1-.18.05 2.24 2.24 0 0 1-.53-.22c-.4-.22-.77-.41-1.21.12-.45.53-.89.98-1.32 1.34l-.98.84c-.33.3-.67.57-1.01.78a17.74 17.74 0 0 1-6.73 2.59.56.56 0 0 0-.31.16.53.53 0 0 0-.15.3l-.1.88a.4.4 0 0 1-.13.24.42.42 0 0 1-.25.1c-.85.08-1.79.08-2.8.01-.3-.02-.46-.16-.47-.41v-.77c.01-.1-.02-.2-.09-.28a.46.46 0 0 0-.25-.17l-.96-.19c-.56-.1-1.14-.2-1.6-.35a17.47 17.47 0 0 1-4.57-2.14c-.48-.32-.98-.73-1.5-1.21l-1.38-1.35a1.75 1.75 0 0 1-.17-.2c-.13-.18-.26-.36-.52-.45a.27.27 0 0 0-.23.02l-.86.48c-.15.09-.28.07-.4-.06a9.05 9.05 0 0 1-1.58-2.62.23.23 0 0 1 .05-.25 2 2 0 0 1 .7-.55.55.55 0 0 0 .29-.3.53.53 0 0 0 0-.39 15.05 15.05 0 0 1-.04-11.21c.23-.6-.27-.95-.74-1.18a.43.43 0 0 1-.22-.23.42.42 0 0 1 0-.3c.4-1 .94-1.87 1.63-2.62a.28.28 0 0 1 .35-.05l.89.5a.29.29 0 0 0 .35-.06c.55-.62.97-1.08 1.25-1.36a15.47 15.47 0 0 1 9.08-4.5c.13-.01.27-.1.42-.27.04-.04.06-.1.07-.15l.11-.88c.01-.1.06-.2.13-.26a.45.45 0 0 1 .27-.12c.87-.09 1.82-.09 2.84 0 .16.02.25.1.27.27l.02.29c.05.64.08 1.06.9 1.2 1.54.3 2.47.5 2.78.64l1.44.62c2.27.97 4.22 2.55 5.86 4.47Zm-.5 8.68c.2 3.13-.88 6.2-3.03 8.56a12.47 12.47 0 0 1-8.43 4 12.7 12.7 0 0 1-8.9-2.9 11.86 11.86 0 0 1-2.9-3.66 11.47 11.47 0 0 1 1.8-13.02 12.47 12.47 0 0 1 8.43-4 12.7 12.7 0 0 1 8.9 2.9 11.86 11.86 0 0 1 2.9 3.66c.71 1.4 1.13 2.91 1.23 4.46Zm-17.6-.58a.16.16 0 0 1-.04-.11c.04-.7.33-1.35.86-1.96a5.87 5.87 0 0 1 8.33-.67c.28.23.62.56 1.01.96a.38.38 0 0 0 .28.12h3.5a.16.16 0 0 0 .13-.06.15.15 0 0 0 .02-.13c-.11-.42-.26-.8-.46-1.12-1.38-2.31-3.88-4.2-6.58-4.57-3.9-.53-6.98.66-9.27 3.6a8.34 8.34 0 0 0-1.74 5.95c0 .09.05.17.12.23.07.07.17.1.26.1h5.5c.25.02.44.11.5.23.46.78 1.11 1.4 1.95 1.66.73.23 1.44.21 2.13-.05.72-.28 1.29-.85 1.7-1.54.12-.19.27-.29.46-.3h1.83c.17.01.32.2.32.36 0 .23-.07.57-.2.82-.39.82-.85 1.54-1.64 2.11-1.78 1.3-3.82 1.48-5.99.67-.26-.1-.44-.22-.6-.33-.12-.08-.24-.16-.39-.23-.43-.2-.77-.6-1.1-.97l-.2-.24c-.07-.07-.22-.18-.32-.19h-3.52a.22.22 0 0 0-.15.08.2.2 0 0 0-.04.17c.09.4.24.85.46 1.2a9.5 9.5 0 0 0 7.7 4.53c3.35.2 6.44-1.3 8.32-3.95a9.45 9.45 0 0 0 1.62-4.74l-.07-1.1c-.02-.22-.18-.46-.45-.47h-5.21c-.3.02-.53.04-.75-.2l-.17-.2a4.15 4.15 0 0 0-1.04-.97c-1.6-.85-3.36-.5-4.36.97-.22.33-.34.37-.72.4h-1.88a.18.18 0 0 1-.11-.06Z" fill="#2E3698" /></svg>