<?xml version='1.0' encoding='utf-8'?>
<!-- by TradeStack -->
<svg width="56" height="56" viewBox="0 0 56 56" xmlns="http://www.w3.org/2000/svg"><path fill="#F0F3FA" d="M0 0h56v56H0z" /><path d="M7.55 31.75a3.1 3.1 0 0 1-2.33-1.1A4.02 4.02 0 0 1 4.25 28c0-1 .35-1.94.97-2.65a3.1 3.1 0 0 1 2.33-1.1l41.45.01v7.48H7.55Zm0-7.75c-.46 0-.92.1-1.35.3-.44.2-.83.49-1.16.86-.33.37-.59.81-.77 1.3a4.48 4.48 0 0 0 .77 4.38c.33.37.72.67 1.16.87.43.2.89.3 1.35.29H51v-8H7.55Z" /><path d="m37.18 29.53.08.08-.28.27.1.13-.36-.03v.31h-.05v-.3l-.35.02.1-.13-.28-.27.08-.08-.1-.2.2.03.04-.12.16.2-.06-.4.15.06.1-.29.1.29.13-.05-.06.4.16-.21.03.12.2-.04-.09.2Z" fill="#E1251B" /><path d="M45.63 26h2.12v.03c-.27.06-.36.21-.36.4V30h-.81L43 27.43v2.15c0 .24.1.34.37.42h-2.13c.22-.04.38-.16.38-.34V26.4c0-.2-.16-.3-.38-.37V26h2.14L46 27.9v-1.38c0-.25-.06-.43-.37-.5V26ZM38.9 28.75c.68 1.18.7 1.2 1 1.24V30h-2.16v-.01c.17 0 .25-.09.25-.18 0-.04-1.32-2.59-1.32-2.59s-1.32 2.55-1.32 2.59c0 .09.08.18.25.18h-2.17c.3-.04.33-.06 1.01-1.24L36.11 26h1.12l1.67 2.75ZM8.4 26h5.21l.52 1.27h-.02c-.16-.18-.66-.27-.98-.27H12v2.57c0 .2-.04.31.25.42V30H9.77v-.01c.26-.07.23-.2.23-.4v-2.6H8.9c-.3 0-.84.1-.99.29h-.04L8.4 26ZM32.59 28.82c-.7.8-1.58 1.18-2.88 1.18-.94 0-1.62-.17-2.19-.57-.68-.47-.89-.96-.89-1.42 0-1.22 1.17-2.01 3.24-2.01.5.01 1 .1 1.48.25l.19-.06h.25l.43 1.48h-.41c-.44-.48-.96-.67-1.83-.67-.96 0-1.63.2-1.63.98 0 .71.61 1.02 1.52 1.02.3.01.61-.04.9-.16.28-.13.53-.31.75-.55l1.07.53ZM15.58 26h2.97c.92 0 1.78.1 1.78.96 0 .51-.34.87-.98 1.06 1.37.82 1.12 1.82 1.67 1.98h-2.29c.06-.03.1-.07.14-.13a.4.4 0 0 0 .05-.2c0-.26-.32-.92-.92-1.36v-.63c.41.01.68-.1.68-.37s-.3-.31-.75-.31h-.32v2.45c0 .13.02.25.09.35.07.1.16.18.27.2h-2.38c.2-.06.41-.17.41-.52v-2.72c0-.45-.15-.68-.42-.76ZM22.59 26h2.4c-.3.1-.35.3-.35.5v3.08c0 .21.1.36.35.4V30h-2.4v-.01c.33-.08.41-.28.41-.46V26.5c0-.2-.1-.4-.41-.49Z" /></svg>