<?xml version='1.0' encoding='utf-8'?>
<!-- by TradeStack -->
<svg width="56" height="56" viewBox="0 0 56 56" xmlns="http://www.w3.org/2000/svg"><path fill="#F0F3FA" d="M0 0h56v56H0z" /><path d="m42 19.51-4.43 7.47V27H28.68v-.02l-4.43-7.47a.03.03 0 0 1 0-.02L28.68 12h.01l.02-.01h8.84a.03.03 0 0 1 .02.01L42 19.5a.03.03 0 0 1 0 .02Z" fill="#A7AAAC" /><path fill-rule="evenodd" d="M34.22 18c1.14-.02 1.13 1.26 1.04 2.03-.06.46-.32.9-.84.96-.8.08-1.14-.46-1.18-1.16-.05-.69 0-1.82.98-1.83Zm.42.9c.09.36.2 1.47-.33 1.56-.35.06-.48-.36-.5-.63-.02-.3-.06-1.23.38-1.28.24-.03.39.09.45.35Zm-2.94 2.07c1.5.33 1.75-2.1.18-1.95l-.02-.01.1-.45c0-.02.01-.03.04-.03h.9l.01-.03v-.48c0-.01 0-.02-.02-.02h-1.3c-.04 0-.06.02-.07.05l-.34 1.54c0 .03.01.05.05.06l.34.08c.04 0 .08 0 .12-.03.28-.24.63-.16.69.23.07.48-.52.75-.8.3a.1.1 0 0 0-.09-.04h-.46c-.06 0-.09.03-.07.09.12.38.37.6.74.69Z" fill="#fff" /><path d="M9 28.04v-.07l4.4-7.93a.07.07 0 0 1 .07-.04h8.78c.03 0 .05.01.07.04l4.39 7.91a.1.1 0 0 1 0 .1l-4.39 7.91a.07.07 0 0 1-.06.04h-8.8a.08.08 0 0 1-.07-.05L9 28.04Z" fill="#A7AAAC" /><path fill-rule="evenodd" d="M16.58 27.33a.8.8 0 0 1-.13-.88c.17-.4.7-.52 1.1-.41.59.15.78.84.37 1.29-.02.03-.02.05 0 .07.62.5.41 1.48-.44 1.58a1.5 1.5 0 0 1-.71-.06c-.65-.25-.7-1.08-.2-1.5.03-.03.04-.06.01-.09Zm.67-.18a.3.3 0 0 0 .31-.3.3.3 0 0 0-.3-.3.3.3 0 0 0-.32.3c0 .16.14.3.31.3Zm.46.94c0 .21-.21.38-.46.38-.25-.01-.45-.2-.44-.41 0-.22.21-.39.46-.38.25 0 .45.19.44.4Zm-5.65-1.52h.56l.01.03v2.35l.01.03h.02l.5.02a.03.03 0 0 0 .02-.01.03.03 0 0 0 0-.02V26l-.02-.01h-.81l-.01.02-.3.5a.03.03 0 0 0 0 .03v.01h.02Zm2.17 0h.55V28.98l.02.01h.54a.03.03 0 0 0 .02 0 .03.03 0 0 0 0-.02v-2.94a.03.03 0 0 0-.01-.03h-.81a.03.03 0 0 0-.02.01l-.3.5-.01.02v.02h.01l.01.01Zm6.64-.02h-1.06c-.03 0-.05-.01-.05-.04v-.46c0-.04.02-.05.05-.05h1.8c.05 0 .06.02.06.06v.12c0 .08 0 .17-.04.25A204.08 204.08 0 0 0 20.36 29h-.04l-.4-.2c-.04 0-.05-.03-.03-.06l1.03-2.11c.02-.05 0-.08-.05-.08Zm1.29.01h.52l.02.01v2.4l.02.02h.56V26l-.02-.01h-.81l-.01.01-.3.5a.03.03 0 0 0 0 .05h.02Zm-2.88 2.1c0 .18-.14.32-.32.32a.32.32 0 0 1-.33-.31c0-.18.15-.32.33-.32.18 0 .32.14.32.32Z" fill="#fff" /><path d="M37.58 44h-8.9l-4.4-7.46a.07.07 0 0 1 0-.08l4.38-7.42a.07.07 0 0 1 .07-.04h8.8c.03 0 .05 0 .06.03l4.4 7.43v.08L37.57 44Zm-7.3-12s.02 0 0 0c0 0 .01 0 0 0l-2.67 4.49a.05.05 0 0 0 0 .04L30.28 41s.01 0 0 0h5.7c-.02 0 0 0 0 0-.01 0 0 0 0 0l2.69-4.48a.05.05 0 0 0 0-.05L35.97 32c-.01 0 0 0 0 0h-5.68Z" fill="#106EA3" /></svg>