<!-- by TradeStack --><svg viewBox="0 0 56 56" xmlns="http://www.w3.org/2000/svg"><path fill="#F0F3FA" d="M0 0h56v56H0z"/><path d="M31.64 39c-14.73-.12-26.58-5-26.58-11s11.85-10.88 26.58-11h-.53C16.14 17 4 21.92 4 28s12.14 11 27.11 11h.53Z" fill="#70716F"/><path d="M26 17.29C14 18.42 5.06 22.79 5.06 28c0 6.08 12.14 11 27.11 11 4.24 0 8.26-.4 11.83-1.1-1.82.15-3.7.23-5.64.23-15.32 0-27.75-4.92-27.75-11 0-4.31 6.27-8.04 15.4-9.84Z" fill="#004080"/><path d="M15 27.55c-.08-3.2 2.63-3.68 4-3.52v1.8c-.26-.15-2.3-.74-2.32 1.72-.02 1.97 1.54 1.95 2.32 1.69v1.7c-.45.07-3.9.6-4-3.39ZM49.63 25H51v6h-1.37zM45.38 25h1.84a1.79 1.79 0 0 1 .94 3.31l1 2.69h-1.52l-.89-2.37V31h-1.37v-6Zm1.37 2.56h.15a.66.66 0 0 0 0-1.3h-.15v1.3ZM19.53 25h1.37v2H22v-2h1.37v6H22v-2.6h-1.1V31h-1.37v-6ZM24.74 25H24v6h3v-1.38h-1.52v-.93H27v-1.38h-1.52v-.93H27V25h-2.26ZM27.73 25v6H29v-3.2l1.61 3.2h1.4v-6h-1.4v3.05L29.01 25h-1.28ZM32.34 31l1.58-6h1.5l1.61 6h-1.48l-.22-1h-1.35l-.2 1h-1.44Zm1.85-2h.91l-.47-2.15-.44 2.15ZM40.41 31l1.58-6h1.5l1.6 6h-1.48l-.22-1h-1.34l-.21 1h-1.43Zm1.84-2h.92l-.48-2.15-.44 2.15ZM37.87 31l-1.57-6h1.43l.85 4.15.92-4.15h1.48l-1.6 6h-1.5Z" fill="#004080"/></svg>