<?xml version='1.0' encoding='utf-8'?>
<!-- by TradeStack -->
<svg width="56" height="56" viewBox="0 0 56 56" xmlns="http://www.w3.org/2000/svg"><path fill="#B0B9C0" d="M0 0h56v56H0z" /><path d="M46 30v1h-3.1v-1H46Zm-3-5v6h-1v-6h1ZM41 30v1h-3.1v-1H41Zm-3-5v6h-1v-6h1ZM35 27.87v.26c0 1.5-.89 2.87-2.5 2.87-1.6 0-2.5-1.37-2.5-2.87v-.26c0-1.5.89-2.87 2.5-2.87 1.6 0 2.5 1.38 2.5 2.87Zm-1 .26v-.27c0-.77-.53-1.86-1.5-1.86-.96 0-1.5 1.09-1.5 1.86v.27c0 .78.53 1.87 1.5 1.87.96 0 1.5-1.1 1.5-1.87ZM15 27.87v.26c0 1.5-.89 2.87-2.5 2.87-1.6 0-2.5-1.37-2.5-2.87v-.26c0-1.5.89-2.87 2.5-2.87 1.6 0 2.5 1.38 2.5 2.87Zm-1 .26v-.27c0-.77-.53-1.86-1.5-1.86-.96 0-1.5 1.09-1.5 1.86v.27c0 .78.53 1.87 1.5 1.87.96 0 1.5-1.1 1.5-1.87ZM26.63 31H25.5v-1h1.13c.97 0 1.37-1.08 1.37-1.86v-.28c0-.79-.4-1.86-1.37-1.86h-1.15v-1h1.15c1.55 0 2.37 1.46 2.37 2.87v.27c0 1.4-.81 2.86-2.37 2.86ZM26 25v6h-1v-6h1ZM23 25v6h-1v-6h1ZM16 25h1.94c1.1 0 1.88.68 1.88 1.81 0 .8-.34 1.46-1.08 1.78l-.37.24h-1.65V27.8h1.22c.5 0 .75-.4.75-.87s-.24-.92-.75-.92H17v5h-1v-6Zm2.8 6-1.14-2.67h1.19l1.15 2.6V31h-1.2ZM7 25v6H6v-6h1Zm2 0v1H4v-1h5ZM47 27.5v1h3.5l-1.5 2 1 .5 2-3-2-3-1 .5 1.5 2H47Z" fill="#fff" /></svg>