<?xml version='1.0' encoding='utf-8'?>
<!-- by TradeStack -->
<svg width="56" height="56" viewBox="0 0 56 56" xmlns="http://www.w3.org/2000/svg"><path fill="#F0F3FA" d="M0 0h56v56H0z" /><path fill-rule="evenodd" d="M15 14c0-1.66 1.4-3 3.14-3h19.72A3.07 3.07 0 0 1 41 14v19H15V14Zm3 2h6v2h-2v10h-2V18h-2v-2Zm18.38 0H32v2h1v10h2v-5.67h.51a.5.5 0 0 1 .49.5V28h2v-4.83c0-.74-.47-1.37-1.11-1.59A1.66 1.66 0 0 0 38 20v-2.33c0-.92-.73-1.67-1.62-1.67Zm-.87 4.5H35V18h.51a.5.5 0 0 1 .49.5V20a.5.5 0 0 1-.49.5ZM25 28.78V16.22a4.12 4.12 0 0 1 6 .17v12.22a4.13 4.13 0 0 1-6 .17Zm2-10.94c0-.46.55-.84 1-.84.45 0 1 .38 1 .84v9.32c0 .46-.55.84-1 .84-.45 0-1-.38-1-.84v-9.32Z" fill="#2A2D56" /><path d="M17.97 34.89h-.28l.02-.14a.5.5 0 0 0-.1-.31c-.08-.08-.21-.12-.4-.12a.61.61 0 0 0-.48.2c-.1.1-.14.21-.14.36 0 .17.08.25.33.33l.55.2a.5.5 0 0 1 .3.26c.06.1.09.2.09.3 0 .23-.12.52-.28.7-.2.22-.47.33-.8.33-.5 0-.78-.28-.78-.75 0-.09 0-.15.03-.25h.28l-.02.16c0 .36.17.52.53.52.26 0 .45-.07.58-.22a.6.6 0 0 0 .15-.37c0-.2-.1-.3-.36-.4l-.55-.18a.55.55 0 0 1-.36-.53c0-.2.1-.48.24-.65a.92.92 0 0 1 .76-.33c.25 0 .42.06.55.2.1.12.17.3.17.47 0 .06 0 .1-.03.22ZM19.5 35.73 19.3 37H19l.48-3h.94c.39 0 .58.23.58.66 0 .34-.11.65-.3.85a.62.62 0 0 1-.5.22h-.7Zm.05-.34h.6c.2 0 .34-.08.44-.25.08-.12.11-.26.11-.4 0-.26-.13-.4-.37-.4h-.6l-.18 1.05ZM22.5 35.63l-.16 1.03h1.3l-.06.34H22l.47-3H24l-.05.34H22.7l-.15.96h1.2l-.06.33h-1.2ZM27 34.93h-.3c-.02-.42-.17-.61-.48-.61-.27 0-.5.17-.68.52-.16.3-.25.69-.25 1.05 0 .47.21.8.53.8a.7.7 0 0 0 .6-.38l.18-.44h.3c-.11.31-.2.53-.33.7a.96.96 0 0 1-.8.43.65.65 0 0 1-.6-.33 1.37 1.37 0 0 1-.17-.71c0-.5.15-1.03.39-1.4.24-.38.53-.56.89-.56.29 0 .5.15.62.42.06.13.1.28.1.51ZM28.8 34l-.5 3H28l.5-3h.3ZM31.6 36.1h-.9l-.39.9H30l1.3-3h.38l.32 3h-.32l-.09-.9Zm-.04-.32-.12-1.37-.6 1.37h.72ZM33.8 34l-.44 2.66h1.16l-.05.34H33l.5-3h.3ZM36.14 34.34 35.67 37h-.32l.47-2.66H35l.06-.34H37l-.06.34h-.8ZM38.86 35.82 38.68 37h-.3l.2-1.18L38 34h.35l.42 1.47.89-1.47H40l-1.14 1.82Z" fill="#2A2D56" /><path fill-rule="evenodd" d="M15 38h26v4.14c0 1.58-1.4 2.86-3.14 2.86H18.14C16.41 45 15 43.72 15 42.14V38Zm3 5v-1.71L17.6 43h-.24L17 41.29V43h-1v-3h1.31l.19 1.57.19-1.57H19v3h-1Zm2 0v-3h1v3h-1Zm3-1.42.72 1.42H25v-3h-1v1.46L23.32 40H22v3h1v-1.42ZM26 43v-3h2v.8h-1v.31h.85v.75H27v.32h1V43h-2Zm4.07-1.08.28 1.08h.76l-.43-1.28c.15-.08.32-.34.32-.75 0-.6-.28-.97-.9-.97H29v3h1v-1.08h.07ZM30 40.77h.1c.07 0 .2.04.2.26 0 .21-.14.26-.23.26H30v-.52ZM33.25 43l-.06-.42h-.4l-.07.42H32l.55-3h.9l.55 3h-.75Zm-.27-2.1-.12.97h.24l-.11-.97h-.01ZM35 40v3h2v-.85h-1V40h-1Zm3.92 3c-.4 0-.73-.16-.92-.31l.44-.67c.12.1.29.18.44.18.1 0 .14-.05.14-.14 0-.1-.06-.16-.26-.25-.33-.14-.76-.36-.76-.85 0-.7.7-.96 1.16-.96.36 0 .65.12.84.29l-.45.66a.56.56 0 0 0-.35-.16c-.1 0-.2.04-.2.14 0 .09.08.12.3.22.24.12.66.35.66.87 0 .7-.52.98-1.04.98Z" fill="#C60C1A" /></svg>