<!-- by TradeStack --><svg width="56" height="56" viewBox="0 0 56 56" xmlns="http://www.w3.org/2000/svg"><path fill="#EDA820" d="M0 0h56v56H0z"/><path d="M28 13.8a2.2 2.2 0 1 1 0 4.41 2.2 2.2 0 0 1 0-4.41Zm-1.1-2.7a1.1 1.1 0 1 0 2.2 0 1.1 1.1 0 0 0-2.2 0Zm-13.78 9.55a1.1 1.1 0 1 0 1.1-1.92 1.1 1.1 0 1 0-1.1 1.92Zm1.1 16.57a1.1 1.1 0 1 0-1.5-.4c.3.52.98.7 1.5.4ZM29.1 44.9a1.1 1.1 0 1 0-2.2 0 1.1 1.1 0 0 0 2.2 0Zm13.78-9.6a1.1 1.1 0 1 0-1.1 1.92 1.1 1.1 0 1 0 1.1-1.92Zm-1.1-16.57a1.1 1.1 0 1 0 1.5.4 1.1 1.1 0 0 0-1.5-.4ZM16.54 23.9a2.2 2.2 0 1 0 2.2-3.82 2.2 2.2 0 1 0-2.2 3.82ZM18.9 16a2.2 2.2 0 1 0 4.41.01 2.2 2.2 0 0 0-4.41 0ZM13.1 29.9a2.2 2.2 0 1 0 2.2-3.83 2.2 2.2 0 1 0-2.2 3.83Zm9.1 11.97a2.21 2.21 0 1 0-2.2-3.83 2.21 2.21 0 0 0 2.2 3.83Zm14.9-1.92a2.2 2.2 0 1 0-4.41 0 2.2 2.2 0 0 0 4.41 0Zm5.8-13.88a2.2 2.2 0 1 0-2.2 3.83 2.2 2.2 0 1 0 2.2-3.83ZM33.8 14.1a2.21 2.21 0 1 0 2.2 3.83 2.21 2.21 0 0 0-2.2-3.83ZM18.76 35.87a2.21 2.21 0 1 0-2.22-3.82 2.21 2.21 0 0 0 2.22 3.82Zm11.45 4.07a2.2 2.2 0 1 0-4.42 0 2.2 2.2 0 0 0 4.42 0Zm9.24-7.9a2.2 2.2 0 1 0-2.2 3.83 2.2 2.2 0 1 0 2.2-3.82Zm-2.2-11.96a2.21 2.21 0 1 0 2.2 3.82 2.21 2.21 0 0 0-2.2-3.82ZM18.1 26.5a2.95 2.95 0 1 0 5.11 2.95 2.95 2.95 0 0 0-5.1-2.95Zm3.68 9.33a2.94 2.94 0 1 0 5.1-2.94 2.94 2.94 0 0 0-5.1 2.94Zm9.9 1.47a2.94 2.94 0 1 0 0-5.89 2.94 2.94 0 0 0 0 5.89Zm6.22-7.85a2.95 2.95 0 1 0-5.11-2.95 2.95 2.95 0 0 0 5.1 2.95Zm-3.68-9.33a2.94 2.94 0 1 0-5.1 2.94 2.94 2.94 0 0 0 5.1-2.94Zm-9.9-1.47a2.94 2.94 0 1 0 0 5.89 2.94 2.94 0 0 0 0-5.89Z" fill="#111"/></svg>