<!-- by TradeStack --><svg width="56" height="56" viewBox="0 0 56 56" xmlns="http://www.w3.org/2000/svg"><path fill="#181B1E" d="M0 0h56v56H0z"/><path d="M20.52 32.58c.46.95 2.31.96 3.48 1.05-.47.54-.89.83-.7 2.02 1 .58 1.5.3 2.7.18-.58 3.2-5.73 5.91-5.52 8 .41.12.77.17 1.1.17 1.27-.01 2.03-.82 2.97-1.1.58.02.94.6 1.6.6.64-.07 1.1-.72 1.52-1.23.34.15.33.23.92.23.91 0 1.37-.92 1.67-1.76.51-1.4.36-2.44.3-4.04.17-.14.13-.12.4-.25l2.07-.56c4.92-1.53 6-4.17 5.97-6.69-.03-3.27-1.78-5.85 2-6-1.13-1.77-.27-.43-.48-2.35a3.41 3.41 0 0 0-2.26-.85c-1.76 0-2.72 1.2-3.42 2.51C34.29 23.52 34 25 32.62 25c-.62 0-2.3-1.59-2.64-1.92a19 19 0 0 1-5.45-8.4c-.8-2.25-.64-2.75-1.81-2.67-1.04 1.6-.08 3.4.28 4.99-1.05-.4-1.67-1.08-3-1 .24 1.22 2.5 3.36 3.36 4.15 3.5 3.2 7.05 4.12 8.96 5.56.88.67 1.66 2 1.68 3.4.01.63-.07 1.28-.47 1.89.04-4.31-3.93-3.18-9.9-8.08-4.65-3.8-7.63-9.02-8.27-9.5-.3.9-.39 1.72-.35 2.44.11 2.5 1.75 3.88 1.99 4.4-1.41.27-2.03.74-2 1.21.03.6.84 1.22 1 1.45a2.1 2.1 0 0 0-.35 1.42c.06.43.37.8.9 1.3a9.36 9.36 0 0 0 2.2 1.5c-.45.48-1.25.86-1.25 1.72 0 1.14 2.4 2.46 3.25 2.54.17.01.24.09.25.2.02.3-.4.83-.48.98Z" fill="#FAB03B"/></svg>