<!-- by TradeStack --><svg width="56" height="56" viewBox="0 0 56 56" xmlns="http://www.w3.org/2000/svg"><path fill="#F0F3FA" d="M0 0h56v56H0z"/><path fill-rule="evenodd" d="M49 28c0 3.71-2.21 7.27-6.15 9.9C38.9 40.53 33.57 42 28 42s-10.91-1.48-14.85-4.1C9.21 35.27 7 31.71 7 28s2.21-7.27 6.15-9.9C17.1 15.47 22.43 14 28 14s10.91 1.47 14.85 4.1C46.79 20.73 49 24.3 49 28Zm-1.05 0c0 1.7-.51 3.39-1.52 4.96-1 1.58-2.47 3-4.32 4.2a22.77 22.77 0 0 1-6.48 2.82c-2.42.65-5.01.99-7.63.99-5.3 0-10.37-1.37-14.11-3.8-3.74-2.43-5.84-5.73-5.84-9.17 0-3.44 2.1-6.74 5.84-9.17 3.74-2.43 8.82-3.8 14.1-3.8 2.63 0 5.22.34 7.64 1 2.43.64 4.63 1.6 6.48 2.8a14.29 14.29 0 0 1 4.32 4.21A9.18 9.18 0 0 1 47.95 28Zm-26.3 3.16a585.81 585.81 0 0 1-1.9 5.82l.01.01.03.01h5.4a.1.1 0 0 0 .09-.06 24.45 24.45 0 0 1 3.3-5.83 29.11 29.11 0 0 1 15.14-10.05c.15-.04.14-.06 0-.06H13.38a.1.1 0 0 0-.06.02.1.1 0 0 0-.04.04l-1.27 2.85a.06.06 0 0 0 0 .07.07.07 0 0 0 .06.02h3.58c1.66.01 3.43.18 4.72 1.3 1.72 1.48 1.94 3.8 1.27 5.86Z" fill="#E61F26"/></svg>