<?xml version='1.0' encoding='utf-8'?>
<!-- by TradeStack -->
<svg width="56" height="56" viewBox="0 0 56 56" xmlns="http://www.w3.org/2000/svg"><path fill="#F0F3FA" d="M0 0h56v56H0z" /><path d="M27.72 32.74c-.18-.17-.3-.31-.4-.45-.17-.27.02-.47.24-.64.24-.18.49-.36.7-.56.5-.49.89-1.06 1.22-1.67.1-.2.4-.6.16-.76a4.12 4.12 0 0 1-.85-.72 3.32 3.32 0 0 1-.2-4.13 4.38 4.38 0 0 1 3.34-1.77c2.04-.19 4.13.3 5.93 1.22.66.33.8.63.79 1.35a37.3 37.3 0 0 1-.67 6.42c-.17.82-.37 1.54-.6 2.14-.15.38-.79.4-1.13.42-.86.08-1.44.11-1.75.12-.51 0-.73-.22-.68-.71l.2-1.93c.02-.23 0-1.17-.48-1-.4.14-.65.65-.87.99-.44.72-.94 1.4-1.49 2.06-.26.32-.53.56-.8.74-.34.22-.68.15-1.06 0a5.04 5.04 0 0 1-1.6-1.12Zm5.91-8.97-.66.84c-.16.2-.24.26-.5.25l-1.17-.03c-.1 0-.2.03-.27.1a.05.05 0 0 0-.02.03c-.03.21.52.82.7 1.03.14.19.24.36.17.57-.08.26-.22.64-.44 1.14a.45.45 0 0 0-.03.2l.01.03c.08.08.17.1.27.06.2-.06.56-.2 1.08-.4.27-.1.44-.11.66.07l.7.59c.15.13.5.37.5-.06l.05-1.12c.01-.17.07-.3.21-.4.33-.2.66-.42.98-.65.2-.14.28-.33-.03-.43l-1.18-.42a.5.5 0 0 1-.32-.33l-.34-1a.7.7 0 0 0-.1-.16.05.05 0 0 0-.03-.02c-.1-.01-.17.03-.24.11Z" fill="#2952A1" /><path d="M10.43 23.94c.3-.04.47.1.56.35.13.4.2.82.2 1.27 0 .2-.08.27-.28.33l-1.67.48c-.18.06-.43.1-.43.33.02 1.39.38 2.83.8 4.15.05.16.08.34.06.47-.04.16-.18.2-.35.25-.41.13-.83.25-1.26.36-.6.15-.8.18-.96-.44-.33-1.34-.55-2.7-.67-4.07a.7.7 0 0 0-.15-.4c-.1-.13-.27-.12-.44-.11l-1.36.05c-.29 0-.44-.13-.45-.4-.04-.6-.04-1.2 0-1.8 0-.26.23-.35.47-.35a34.57 34.57 0 0 0 5.93-.46Z" fill="#E10050" /><path d="M18.18 32.39c-.63.21-1.67-.83-1.99-1.25-.1-.14-.1-.3.06-.41.42-.34 1.72-1.46 1.52-2.03a.91.91 0 0 0-.14-.22l-1.94-2.55c-.2-.26-.42-.53-.02-.73.53-.26 1.02-.46 1.47-.61.14-.05.26-.01.36.11l1.5 1.88c.16.2.3.36.5.07.44-.64.8-1.34 1.18-2.02.09-.15.26-.2.44-.2l1.4.04c.36 0 .54.06.42.48-.07.26-.21.62-.43 1.08a29.07 29.07 0 0 1-2.5 4.42c-.35.5-.72.97-1.14 1.42-.2.21-.43.43-.7.52Z" fill="#5ABC2B" /><path d="M50.37 31.82c-1.58.54-3.89-.06-4.83-1.43a.48.48 0 0 1-.07-.45c.11-.33.4-.76.75-.89.15-.05.29.15.38.25.37.4.82.63 1.37.7.55.06.97-.37.4-.78a1.73 1.73 0 0 0-.2-.12 4.38 4.38 0 0 1-1.73-1.4c-.36-.56-.16-1.36.2-1.87.54-.8 1.5-1.2 2.5-1.14.96.05 1.75.4 2.39 1.06.28.3-.35 1.34-.79.96-.4-.34-.96-.61-1.52-.59-.27.02-.58.25-.36.53.23.28.67.47 1.12.67 1.05.48 2.22 1.33 2 2.6-.16.85-.76 1.6-1.61 1.9ZM22.3 30.37c-.15-.13-.23-.2-.22-.4.01-.25.34-1.03.7-.77.46.3 1.31 1.05 1.85.78.41-.2.2-.6-.12-.74-.8-.33-1.92-1.01-1.87-1.99.02-.58.27-1.07.72-1.45 1.27-1.07 3-.67 4.2.23.26.2-.18 1.11-.61.86-.35-.21-1.06-.58-1.45-.33-.29.2-.18.5.05.68.27.21.6.33.9.48 1.13.52 1.82 1.65 1.08 2.78-.98 1.49-3.23 1.28-4.56.4a8.38 8.38 0 0 1-.67-.53Z" fill="#E10050" /><path d="M42.35 31.59c-1.5.33-2.93-.68-2.9-2.2.04-1.25.42-2.61 1.15-3.65.23-.32.53-.27.9-.15.34.11.93.29 1.04.47.1.17.1.4 0 .58a5.79 5.79 0 0 0-.77 2c-.1.77.53 1.14 1.17.6.87-.73.93-2.08.93-3.1 0-.8.37-.8 1.12-.79.48 0 .54.3.55.71.02 2.12-.64 4.97-3.19 5.53Z" fill="#5ABC2B" /><path d="M10.03 28.84a2.88 2.88 0 0 1 2.43-2.95c1.45-.27 2.8.37 3.45 1.65.25.5.34 1.02.26 1.56-.19 1.23-1.17 2.04-2.37 2.35a2.96 2.96 0 0 1-3.77-2.61Zm2.47 1.04c.22.03.44-.07.62-.28.18-.2.3-.49.34-.8.02-.16.01-.31 0-.46a1.3 1.3 0 0 0-.14-.4.86.86 0 0 0-.23-.28.6.6 0 0 0-.3-.13c-.21-.02-.43.08-.61.28s-.3.5-.34.8c-.02.16-.02.31 0 .46.03.15.07.28.13.4s.14.22.23.29c.1.07.2.1.3.12Z" fill="#EC880E" /></svg>