<?xml version='1.0' encoding='utf-8'?>
<!-- by TradeStack -->
<svg width="56" height="56" viewBox="0 0 56 56" xmlns="http://www.w3.org/2000/svg"><path fill="#F0F3FA" d="M0 0h56v56H0z" /><path d="M25.94 11.78c.26.72-.4 1.63-1.47 2.03-1.08.4-2.16.14-2.41-.59-.26-.72.4-1.63 1.47-2.03 1.08-.4 2.16-.14 2.41.59ZM18.8 13.16c.41.37.17 1.27-.54 2.01-.71.74-1.63 1.04-2.05.67-.42-.37-.18-1.27.53-2.01.71-.74 1.63-1.04 2.05-.67Z" fill="#E50018" /><path d="M14.78 17.05c.35.22.27 1.05-.16 1.85-.43.8-1.06 1.27-1.4 1.05-.35-.22-.27-1.05.16-1.85.43-.8 1.06-1.27 1.4-1.05ZM11.77 21c.23.04.3.75.15 1.57-.15.83-.46 1.47-.69 1.43-.23-.04-.3-.75-.15-1.57.15-.83.46-1.47.69-1.43ZM17.24 19.09c.72.32.97 1.44.57 2.5-.41 1.05-1.33 1.65-2.05 1.32-.72-.32-.97-1.44-.57-2.5.41-1.05 1.33-1.65 2.05-1.32ZM21.93 40.38c-.24.67-1.09.82-1.88.33-.79-.49-1.23-1.42-.98-2.1.24-.66 1.09-.81 1.88-.32.79.49 1.23 1.42.98 2.1ZM29.9 40.08c0 .85-.85 1.53-1.9 1.53-1.04 0-1.88-.68-1.88-1.53s.84-1.54 1.89-1.54c1.04 0 1.89.69 1.89 1.54Z" fill="#182845" /><path d="M15.58 31c-.82.04-1.53-.82-1.58-1.93-.04-1.1.6-2.03 1.42-2.07.83-.04 1.53.82 1.58 1.93.04 1.1-.6 2.03-1.42 2.07Z" fill="#E50018" /><path d="M39.75 35.9c-.72-.3-.96-1.16-.55-1.93.41-.78 1.33-1.17 2.05-.87.72.3.96 1.16.55 1.93-.41.78-1.33 1.17-2.05.87Z" fill="#182845" /><circle cx="24" cy="28" r="2" fill="#182845" /><circle cx="33" cy="27" r="2" fill="#182845" /><circle cx="37" cy="22" r="2" fill="#182845" /><path d="M44.97 30.18c-.13 1.1-.67 1.91-1.2 1.81-.54-.1-.87-1.07-.74-2.17.13-1.1.67-1.91 1.2-1.81.54.1.87 1.07.74 2.17ZM43.26 38.14c-.71.75-1.63 1.07-2.05.72-.42-.36-.19-1.25.53-2 .71-.75 1.63-1.07 2.05-.72.42.36.19 1.25-.53 2ZM35.14 43.82c-1.1.21-2.06.24-2.14.07-.07-.18.76-.5 1.86-.7 1.1-.22 2.06-.25 2.14-.08.07.18-.76.5-1.86.7ZM14.93 39.24c-.77-.53-1.13-1.08-.82-1.21.32-.13 1.2.2 1.96.73.77.53 1.13 1.08.82 1.21-.32.13-1.2-.2-1.96-.73ZM21.63 19.1a2.96 2.96 0 0 1 2.22-1.87c1.2 0 1.96.8 1.96 1.87 0 1.06-.64 1.67-2.34 2.38-1.7.71-1.84 1.42-2.17 2.72-.33 1.3-1.06 2-2.08 2s-1.75-.84-1.75-1.9c0-1.07.78-2.25 1.75-2.53 1.65-.52 1.72-1 2.4-2.67ZM30.37 18.25c.55-1.35 1.25-1.87 2.22-1.87 1.2 0 2.13.92 2.13 1.98 0 1.07-.55 1.66-2.5 2.27-1.77.55-1.28 1.25-1.61 2.55a2.98 2.98 0 0 1-2.65 2.18c-1.02 0-2.08-1.02-2.08-2.08s.83-2.2 1.8-2.48c1.65-.52 2-.88 2.69-2.55ZM34.43 36.19c-.56 1.35-1.57 1.81-2.55 1.81-1.23 0-1.88-.86-1.88-1.93 0-1.08.55-1.67 2.55-2.3 1.8-.55 1.69-1.24 2.02-2.55.34-1.31 1.28-2.22 2.31-2.22 1.04 0 2.12 1.03 2.12 2.1 0 1.08-1.13 1.96-2.12 2.24-1.68.53-1.75 1.15-2.45 2.85ZM25.93 37.1c-.18 1.4-.88 1.9-2.11 1.9C22.8 39 22 37.8 22 36.74c0-1.05.43-1.4 2.08-2 1.48-.55 1.36-1.42 1.64-2.71A2.62 2.62 0 0 1 28.07 30c.86 0 1.93 1.17 1.93 2.23 0 1.05-1.11 2.22-1.93 2.5-1.39.52-1.92.67-2.14 2.36Z" fill="#E50018" /><path d="M17.4 32.85c.05-1.15 1.1-1.71 1.62-1.85 1.23 0 1.98 1.07 1.98 2.21s-.64 1.64-1.41 1.71c-.78.07-1.72.69-1.65 1.69.07 1 0 1.39-.89 1.39C15.9 38 15 36.38 15 35.9s.48-1.14 1.03-1.16c.54-.02 1.3-.46 1.37-1.9ZM11 29.87v-1.9c.44-.22.72-.81.72-1.74 0-.93.62-2.23 1.24-2.23s1.04.68 1.04 1.55c0 .86-.5 1.83-1.22 2.18-1.18.58-.67 3.27-1.06 3.27-.32 0-.61-.75-.72-1.13ZM28.2 45l1.93-.15c.19-.4.77-.7 1.71-.77.94-.07 2.21-.73 2.16-1.28-.05-.55-.78-.86-1.66-.8-.87.08-1.81.6-2.11 1.26-.49 1.09-3.26.85-3.23 1.2.03.27.81.47 1.2.54ZM38.9 41.6c-.8.44-1.63.53-1.85.2-.22-.32.25-.95 1.05-1.4.8-.44 1.63-.53 1.85-.2.22.32-.25.95-1.05 1.4Z" fill="#182845" /><path d="m13.43 36.51-1.22-2.53a.63.63 0 0 0 .37-.59c0-.45-.23-1.09-.23-1.44 0-.35.1-.83.54-.83.69 0 1.7 1.5 1.7 2.46 0 .97-.8 1.02-1.16 1.16-.35.14.17 1.06.22 1.32.03.2-.13.39-.22.45ZM21 43.2l2.43.8c.03-.1.18-.33.51-.36.41-.03 1.02.1 1.35.08.32-.03.75-.14.7-.51-.05-.57-1.51-1.28-2.4-1.2-.9.07-.86.74-.96 1.04-.1.3-1-.05-1.24-.07-.2-.01-.34.14-.39.21Z" fill="#E50018" /></svg>