<!-- by TradeStack --><svg width="56" height="56" viewBox="0 0 56 56" xmlns="http://www.w3.org/2000/svg"><path fill="#F0F3FA" d="M0 0h56v56H0z"/><path fill-rule="evenodd" d="M38 16H18v14.33L10 33v1l2.77 1.08L10 36v1l18 7 18-7v-1l-2.77-.92L46 34v-1l-8-2.67V16Zm0 15.83v1.5l2.95.99L43 33.5l-5-1.67Zm.9 3.3-.9-.3v.67l.9-.36Zm-2.15.87h-17.8L28 39.5l8.75-3.5ZM18 35.63v-.9l-1.27.4 1.27.5Zm-3.35.18-2.15.69 15.5 6 15-6-1.85-.62L28 41l-13.35-5.2Zm.16-1.41L18 33.33v-1.6l-5.5 1.77 2.31.9Zm9.34-14.41V25h1.7v-5.01H27V19h-4v.99h1.15Zm3-.99L27 25h1.31l.12-4.02L29.45 25h1.15l.96-4 .15 4H33l-.14-6h-1.88L30 22.49 29.1 19h-1.96Zm5.24 14c-.38 0-.7-.06-.96-.2a1.27 1.27 0 0 1-.58-.6c-.13-.27-.2-.62-.22-1.05l1.16-.17c0 .25.03.45.07.6.04.16.1.27.18.34.08.07.18.1.29.1.14 0 .23-.05.27-.14.04-.09.07-.18.07-.28a.99.99 0 0 0-.18-.61 2.7 2.7 0 0 0-.5-.5l-.53-.44c-.23-.2-.43-.4-.59-.64a1.59 1.59 0 0 1-.23-.88c0-.5.15-.87.46-1.13.3-.27.73-.4 1.26-.4.32 0 .59.05.78.16.2.1.36.24.46.42.1.16.18.34.21.54.04.18.06.36.07.54l-1.17.13c0-.17-.02-.32-.04-.44a.56.56 0 0 0-.1-.3c-.06-.07-.14-.1-.26-.1a.3.3 0 0 0-.28.14c-.05.1-.08.2-.08.3 0 .22.05.4.16.54.1.13.25.28.43.43l.5.42c.27.22.5.46.68.73.19.28.28.62.28 1.02a1.4 1.4 0 0 1-.76 1.27c-.23.14-.52.2-.85.2Zm-5.4-.23c.27.15.64.23 1.1.23.46 0 .83-.08 1.1-.23.27-.15.46-.38.58-.66.11-.3.17-.63.17-1.03V28.9c0-.4-.06-.75-.17-1.03-.12-.28-.31-.5-.59-.65a2.21 2.21 0 0 0-1.1-.23c-.45 0-.82.08-1.09.23-.26.15-.46.37-.57.65-.12.28-.18.63-.18 1.03v2.17c0 .4.06.74.18 1.03.11.29.3.5.57.66Zm1.4-.79c-.06.07-.16.1-.3.1-.15 0-.25-.03-.32-.1a.53.53 0 0 1-.12-.25l-.02-.33v-2.8c0-.12.01-.23.03-.33a.5.5 0 0 1 .13-.26c.06-.07.16-.1.3-.1.14 0 .24.03.3.1.07.07.11.15.13.26.02.1.03.2.03.32v2.81c0 .11 0 .22-.03.33a.5.5 0 0 1-.12.25Zm-6.39.93v-5.83h2.06c.37 0 .67.07.9.2.25.13.42.32.54.58.12.25.17.55.17.91 0 .45-.07.8-.23 1.04-.16.23-.37.4-.64.49-.27.09-.57.14-.9.14h-.54v2.47H22Zm1.36-3.37h.45c.17 0 .3-.03.38-.1a.4.4 0 0 0 .17-.25c.03-.12.04-.26.04-.44 0-.15-.01-.28-.04-.39a.43.43 0 0 0-.16-.27c-.08-.07-.22-.1-.4-.1h-.44v1.55Z" fill="#547DBF"/></svg>