<?xml version='1.0' encoding='utf-8'?>
<!-- by TradeStack -->
<svg width="56" height="56" viewBox="0 0 56 56" xmlns="http://www.w3.org/2000/svg"><path fill="#F0F3FA" d="M0 0h56v56H0z" /><path d="M14 20h-4v-1h9v1h-4v6h-1v-6ZM20 21.77c0-.43.35-.77.78-.77h5.44c.43 0 .78.34.78.77v1.4c0 .42-.35.83-.77.83H21v1h6v1h-6.22a.77.77 0 0 1-.78-.77v-3.46ZM21 23h5v-1h-5v1ZM42 30.77c0-.43.35-.77.78-.77h5.44c.43 0 .78.34.78.77v1.4c0 .42-.35.83-.77.83H43v1h6v1h-6.22a.77.77 0 0 1-.78-.77v-3.46ZM43 32h5v-1h-5v1ZM45 26h-6.22a.77.77 0 0 1-.78-.77v-1.4c0-.42.35-.83.77-.83H44v-1h-6v-1h6.22c.43 0 .78.34.78.77V26Zm-1-2h-5v1h5v-1ZM30 22h6v-1h-6.16c-.46 0-.84.35-.84.8V26h1v-4ZM17 31h6v-1h-6.16c-.46 0-.84.35-.84.8V35h1v-4ZM6 28.83c0-.46.37-.83.83-.83h7.34c.46 0 .83.37.83.83v2.37a.8.8 0 0 1-.83.8H7v3H6v-6.17ZM7 31h7v-2H7v2Z" fill="#0B408E" /><path fill-rule="evenodd" d="M31 31h-6v3h6v-3Zm-5.95-1c-.58 0-1.05.43-1.05.95v3.1c0 .52.47.95 1.05.95h5.9c.58 0 1.05-.43 1.05-.95v-3.1c0-.52-.47-.95-1.05-.95h-5.9Z" fill="#0B408E" /><path d="M34 28h-1v5.98c0 .56.47 1.02 1.05 1.02h5.9c.58 0 1.05-.46 1.05-1.02v-2.11c0-.57-.47-.87-1.05-.87H34v-3Zm0 4h6v2h-6v-2Z" fill="#0B408E" /></svg>