<?xml version='1.0' encoding='utf-8'?>
<!-- by TradeStack -->
<svg width="56" height="56" viewBox="0 0 56 56" xmlns="http://www.w3.org/2000/svg"><path fill="#F0F3FA" d="M0 0h56v56H0z" /><path d="M52 28.05a10.1 10.1 0 0 1-2.58 6.72c-.27.3-.45.3-.72 0-.82-.84-.82-.83-.12-1.73 1.14-1.45 1.42-3.21 1.42-5 0-1.95-.41-3.93-1.78-5.5-.29-.34-.3-.55.03-.83.17-.14.34-.3.48-.49.27-.34.46-.26.72.04A10.22 10.22 0 0 1 52 28.05Z" fill="#3FC0BA" /><path d="M49 28.02a7.57 7.57 0 0 1-1.66 4.72c-.23.29-.4.38-.65.04-.22-.3-.62-.48-.68-.84-.07-.36.34-.58.53-.87.58-.94.96-2 .96-3.05 0-1.22-.47-2.44-1.26-3.44-.28-.37-.28-.58.03-.9.85-.84.64-1.01 1.44.12A7.25 7.25 0 0 1 49 28.02Z" fill="#3FC0BA" /><path d="M46 28.05c-.03 1-.3 1.93-.87 2.74-.17.24-.31.3-.49.03-.2-.28-.48-.43-.61-.8-.13-.35.24-.55.35-.84.15-.39.28-.81.29-1.18a2.8 2.8 0 0 0-.54-1.62c-.16-.26-.17-.42.03-.63.17-.18.33-.38.48-.59.17-.22.32-.21.48.02.57.82.86 1.76.88 2.87ZM4 25h5.5v1.5h-2V31H6v-4.5H4V25Zm7 0h4v1.5h-2.5v1H14v1h-1.5v1H15V31h-4v-6Zm6 6v-6h2.62c1.11 0 1.97.43 1.97 1.67 0 .82-.44 1.46-1.23 1.68.42.17.7.49.88.91L22 31h-1.77l-.84-1.83c-.13-.3-.38-.6-.75-.6h-.14V31H17Zm1.5-3.5h.74c.4 0 .77-.12.77-.83 0-.46-.33-.67-.74-.67h-.77v1.5Zm9.44 2.5h-1.93l-.27 1H24l2.07-6h1.86L30 31h-1.78l-.28-1Zm-.35-1.28-.61-2.16-.6 2.16h1.2Z" fill="#3FC0BA" /><path d="M33.66 28.5v-1H36v2.56c-.75.61-1.5.94-2.42.94-1.52 0-2.58-1.13-2.58-3 0-1.9 1.12-3 2.64-3 1.06 0 1.97.31 2.29 1.64l-1.46.31c-.13-.44-.42-.68-.86-.68-.8 0-1.11.88-1.11 1.73 0 .9.3 1.73 1.15 1.73.37 0 .54-.16.85-.39v-.84h-.84ZM38 28c0-1.8.99-3 2.5-3 1.49 0 2.5 1.14 2.5 2.95 0 1.81-.92 3.05-2.45 3.05-1.53 0-2.55-1.13-2.55-3Zm1.5.01c0 .8.22 1.65 1 1.65.83 0 1-.9 1-1.72 0-.8-.26-1.58-1.01-1.58-.78 0-.99.87-.99 1.65Z" /></svg>