<!-- by TradeStack --><svg width="56" height="56" viewBox="0 0 56 56" xmlns="http://www.w3.org/2000/svg"><path fill="#F0F3FA" d="M0 0h56v56H0z"/><path d="M48.73 26.54v1.32h2.03v.42h-2.03v1.36H51v.43h-3V26.1h3v.43h-2.27ZM47 30.07h-.66l-2.68-3.15v3.15H43V26.1h.66l2.68 3.14v-3.14H47v3.96ZM42 26.11l-1.66 2.46v1.5h-.67v-1.5L38 26.11h.74l1.26 2 1.26-2H42ZM34.85 26.11c.65 0 1.2.08 1.68.25.47.16.84.38 1.09.68.25.3.38.65.38 1.06 0 .4-.13.75-.38 1.05-.25.3-.62.53-1.1.68a5.4 5.4 0 0 1-1.67.24H33V26.1h1.85Zm0 3.53c.77 0 1.35-.13 1.75-.4.4-.27.6-.65.6-1.14 0-.5-.2-.88-.6-1.15-.4-.28-1-.42-1.75-.42h-1.07v3.11h1.07Z" fill="#1C1E68"/><path d="M29.5 30.07c-.46 0-.88-.09-1.26-.25-.39-.17-.69-.4-.91-.7a1.7 1.7 0 0 1-.33-1.03c0-.38.11-.72.33-1.02.22-.3.52-.53.9-.7.39-.17.8-.26 1.27-.26s.89.09 1.27.26.68.4.9.7c.22.3.33.64.33 1.02s-.11.72-.33 1.02c-.22.3-.52.54-.9.7-.38.17-.8.26-1.27.26Zm0-.44c.35 0 .66-.07.94-.2.28-.12.5-.3.65-.53.16-.23.25-.5.25-.81 0-.31-.09-.58-.25-.81a1.53 1.53 0 0 0-.65-.54c-.27-.13-.59-.19-.94-.19s-.67.06-.94.2a1.4 1.4 0 0 0-.9 1.35 1.42 1.42 0 0 0 .9 1.34c.28.12.6.19.94.19ZM25.37 28.03c.2.02.4.08.56.18.18.1.32.2.41.35.1.14.16.29.16.45 0 .2-.07.38-.22.54-.15.16-.37.29-.65.38-.28.1-.61.14-1 .14H22.5V26.1h2.05c.4 0 .72.05 1 .14.27.09.48.2.61.36a.74.74 0 0 1-.07 1.1c-.18.14-.42.25-.72.32Zm-2.12-.21h1.25c.35 0 .63-.06.82-.17.19-.11.28-.27.28-.47 0-.2-.1-.36-.28-.47-.2-.11-.47-.17-.83-.17h-1.24v1.28Zm1.32 1.82c.37 0 .66-.06.87-.18.2-.12.31-.29.31-.5 0-.22-.1-.4-.33-.52-.22-.13-.5-.2-.87-.2h-1.3v1.4h1.32ZM21.08 30.07l-1.4-1.62h-.92v1.62H18V26.1h1.9c.43 0 .8.05 1.1.16.32.1.55.24.7.41.15.17.22.37.22.6 0 .27-.11.5-.35.72-.23.2-.58.34-1.04.41L22 30.07h-.92Zm-2.32-2.03h1.13c.42 0 .73-.07.93-.2.21-.15.31-.33.31-.56a.6.6 0 0 0-.3-.55c-.2-.13-.52-.2-.94-.2h-1.13v1.5ZM14.2 26.11v2.48c0 .35.1.6.34.77.23.17.55.26.96.26.41 0 .73-.09.96-.26.23-.16.35-.42.35-.77v-2.48h.69v2.47c0 .33-.09.6-.27.83-.17.22-.42.38-.72.5-.3.1-.64.16-1.01.16-.38 0-.72-.06-1.02-.17a1.6 1.6 0 0 1-.72-.5c-.17-.22-.26-.49-.26-.82v-2.47h.7ZM13 26.11v.42h-1.61v3.54h-.77v-3.54H9v-.42h4Z" fill="#22522A"/><path d="M10.49 33.8c-4-4.94 1-9.26 4-10.8-2 1.03-6.5 6.68-3.5 9.77 2.4 2.47 8 1.37 10.5.51L20 32h6l-1.5 3.34-1-1.03c-6.8 3.29-11.5 1.03-13.01-.51Z" fill="#637C66" fill-opacity=".6"/><path d="M30.13 22.16c-1.54-1.55-4.8-.78-6.25-.13H21c2.88-1.46 7.2-3.27 10.1-.84 2.3 1.95-.33 5.35-1.93 6.81.96-1.3 2.5-4.28.96-5.84Z" fill="#1C1E68"/><path d="M6.49 32.8c-4-4.94 1-9.26 4-10.8-2 1.03-6.5 6.68-3.5 9.77 2.4 2.47 8 1.37 10.5.51L16 31.25H22l-1.5 3.09-1-1.03C12.7 36.6 8 34.34 6.49 32.8Z" fill="#1F6123"/></svg>