<!-- by TradeStack --><svg width="56" height="56" viewBox="0 0 56 56" xmlns="http://www.w3.org/2000/svg"><path fill="#F0F3FA" d="M0 0h56v56H0z"/><path fill-rule="evenodd" d="M4 22h11v2.8a6.64 6.64 0 0 1 5.5-2.8c3.59 0 6.5 2.69 6.5 6s-2.91 6-6.5 6-6.5-2.69-6.5-6c0-1.1.32-2.12.87-3H11v9H8v-9H4v-3Zm19.5 6a3 3 0 1 1-6 0 3 3 0 0 1 6 0Zm27.63 3a5.62 5.62 0 0 0-.93-7.14v-.03c.08-.16.77-.74 1.1-1a8.2 8.2 0 0 0-1.55.63l-.03-.02a7.63 7.63 0 0 0-3.13 2.93l.72.66-.2.28 4.02 3.7Zm-1.47 1.61-3.7-4.27-.25.2-.66-.82c-.96.56-3.04 2.25-3.98 4.67a6.9 6.9 0 0 0 7.44.94L50.15 37 52 35.37l-2.35-2.75Zm-8.72-.33A5.77 5.77 0 0 1 39 28c0-3.31 2.91-6 6.5-6 1.24 0 2.4.32 3.39.88a12.1 12.1 0 0 0-3.6 2.2l-.34-.35-1.42 1.28.36.36c-2.3 2.33-2.91 4.7-2.95 5.9ZM28 22h6.44a4.08 4.08 0 0 1 4.06 4.22 4.3 4.3 0 0 1-2.1 3.77L39 34h-3.8l-2.27-3.5H31V34h-3V22Zm3 3h2.86c.9 0 1.64.56 1.64 1.25s-.74 1.25-1.64 1.25H31V25Z" fill="url(#apetfsl4r)"/><defs><linearGradient id="apetfsl4r" x1="28" y1="21.59" x2="28" y2="36.59" gradientUnits="userSpaceOnUse"><stop stop-color="#69462A"/><stop offset=".33" stop-color="#937C4D"/><stop offset=".75" stop-color="#714A2A"/></linearGradient></defs></svg>