<!-- by TradeStack --><svg width="56" height="56" viewBox="0 0 56 56" xmlns="http://www.w3.org/2000/svg"><path fill="#F0F3FA" d="M0 0h56v56H0z"/><path d="M30.73 23c-.8-.93-2.33-2-4.67-2-3.89 0-9.06 2.59-9.06 9.2a10.5 10.5 0 0 0 5.48 9.26l1.55-5.41a5.86 5.86 0 0 1-1.76-2.21l.22.18c.36.3.9.76 1.78 1.17L24.9 31H21l2.11-8h7.62Zm1.08 0c-.76-1.64-3.55-3.5-6.62-3.5C21.6 19.5 15 21.77 15 30.77c0 8.46 6.8 12.03 10.37 13.9L26 45c-4.34-.82-8.91-4.01-10.6-5.66l-.95.66c-.82-1.48-2.45-5.47-2.45-9.23C12 23.3 18.38 17 25.2 17c5.34 0 8.88 3.89 10.05 6h-3.44Zm5.49 0C34.18 12.48 23.67 11.05 19 11.65c.83-.21 3.3-.65 4.75-.65 13.58 0 17.32 12.16 18 15 1.45-2.72 1.11-7 .76-9 .5.54 1.49 2.7 1.49 7.52 0 9.98-7.67 15.59-13.6 16.47l1.73-6.07a7.52 7.52 0 0 0 4.15-3.73l.05-.19h.56L39 23h-1.7Zm-2.38 8h-1.67l-.63 2.21a10.32 10.32 0 0 0 2.3-2.21Z" fill="#859AA0"/></svg>