<!-- by TradeStack --><svg width="56" height="56" viewBox="0 0 56 56" xmlns="http://www.w3.org/2000/svg"><path fill="#F0F3FA" d="M0 0h56v56H0z"/><path fill="#72C597" d="M17 20h2v16h-2zM33 21.12A7.86 7.86 0 0 0 28.94 20 7.97 7.97 0 0 0 21 28c0 4.42 3.55 8 7.94 8 1.48 0 2.87-.41 4.06-1.12v-2.4a6 6 0 1 1 0-8.94V21.1ZM46 21.12A7.86 7.86 0 0 0 41.94 20 7.97 7.97 0 0 0 34 28c0 4.42 3.55 8 7.94 8 1.48 0 2.87-.41 4.06-1.12v-2.4a6 6 0 1 1 0-8.94V21.1ZM16 30v-9c-.9 1.65-2 5.74-2 6.62A5.15 5.15 0 0 1 16 30ZM16 34v1c-.32-.07-.96-.27-1-.43-.04-.17.65-.45 1-.57Z"/><path d="M10 27c4.68.46 5.95 3.53 6 5-2.7-1.76-3.85-1.68-4.95-1.68C10 28.98 10 27.82 10 27Z" fill="#63D0D3"/><path d="M11.73 31A5.94 5.94 0 0 1 16 33.07 6.17 6.17 0 0 1 11.73 35c-2.05 0-4-1.29-4.73-1.93.71-.69 2.65-2.07 4.73-2.07Z" fill="#8BD6DF"/></svg>