<?xml version='1.0' encoding='utf-8'?>
<!-- by TradeStack -->
<svg width="56" height="56" viewBox="0 0 56 56" xmlns="http://www.w3.org/2000/svg"><path fill="#F0F3FA" d="M0 0h56v56H0z" /><path d="m33.78 11.01-.53 2.48a8.12 8.12 0 0 0-2.87.48l-1.05-2.1c1.37-.58 2.88-.93 4.45-.86Zm3.19 3.6 1.4-2.1a10.1 10.1 0 0 0-3.58-1.4l-.52 2.48a7.36 7.36 0 0 1 2.7 1.02Zm4.65 1.95-2.51.4a5.27 5.27 0 0 0-1.33-1.75l1.42-2.11a7.18 7.18 0 0 1 2.42 3.46Zm.27 4c.13-.92.17-1.96-.02-3.02l-2.42.38c.16.63.2 1.26.16 1.86l2.28.79Zm-2.42.24 2.23.77a8.8 8.8 0 0 1-.92 2.46c-.44-.26-.94-.65-1.34-.96-.28-.22-.51-.4-.65-.48.28-.48.53-1.1.68-1.8Zm-10.03-6.44-1.03-2.05a17.4 17.4 0 0 0-6.26 5.77 23.69 23.69 0 0 0-2.44 6.94A2.44 2.44 0 0 0 18 27.4c0 1.42 1.1 2.6 2.5 2.6a2.54 2.54 0 0 0 2.5-2.5c.03-.88-.2-1.63-.97-2.15.09-1.3.6-3.45 2.16-6.04a12.65 12.65 0 0 1 5.25-4.95ZM42 35.5l-2.26-.09c.14-2.24-.49-4.7-1.76-6.89a13.7 13.7 0 0 0-4.24-4.7 2.56 2.56 0 1 1 1.32-1.77c1.18.95 3.7 3.14 4.95 5.3A17.17 17.17 0 0 1 42 35.5Zm-3.33 3.61 1.89 1.64a9.91 9.91 0 0 0 1.38-4.25l-2.31-.1a8 8 0 0 1-.96 2.71Zm-10.99 3.43 1.73-1.56a5.93 5.93 0 0 1-1.21-1.44l-.73.34c-.47.2-1.03.44-1.47.69.11.24.7 1.08 1.68 1.97Zm3.4 2.07c-1-.34-1.89-.87-2.62-1.43l1.76-1.59c.5.32 1.07.59 1.68.75l-.83 2.27Zm1.82-2.1-.86 2.36c1.25.24 2.64.18 4.14-.44l-1.14-2.23c-.75.27-1.46.36-2.14.3ZM37.07 44l-1.13-2.22.1-.05a7.25 7.25 0 0 0 2.07-1.79l1.88 1.63A9.43 9.43 0 0 1 37.07 44ZM16.2 19.48l.5 2.3a6.26 6.26 0 0 1 1.91-.33c0-.17.04-.46.08-.8.07-.51.14-1.13.14-1.65a9.16 9.16 0 0 0-2.63.48Zm-3.62 1.92a9.71 9.71 0 0 1 2.64-1.57l.5 2.35c-.54.28-1.07.64-1.54 1.1l-1.6-1.88Zm.94 2.66-1.67-1.94a7.1 7.1 0 0 0-1.76 3.85l2.6.13a5.2 5.2 0 0 1 .83-2.04ZM10 26.97l2.56.13v.1c0 .99.19 1.9.53 2.74l-2.44.82a9.38 9.38 0 0 1-.66-3.79Zm3.54 3.88-2.45.82a10.1 10.1 0 0 0 3.1 3.37l1.27-1.97a8.15 8.15 0 0 1-1.92-2.22Zm1.5 4.75 1.25-1.93a13.1 13.1 0 0 0 7.08 1.96c3.09 0 5.34-.77 6.53-1.35.06-1.38 1.02-2.28 2.44-2.28A2.58 2.58 0 0 1 35 34.55c0 1.43-1.19 2.45-2.65 2.45-.67 0-1.16-.23-1.62-.63-1.46.54-4.77 1.63-7.35 1.63-1.76 0-5.32-.6-8.33-2.4Z" fill="url(#aufmcgswz)" /><defs><linearGradient id="aufmcgswz" x1="40.17" y1="13.89" x2="20.08" y2="38.66" gradientUnits="userSpaceOnUse"><stop offset=".07" stop-color="#00C0BB" /><stop offset=".71" stop-color="#231085" /></linearGradient></defs></svg>