<!-- by TradeStack --><svg viewBox="0 0 56 56" xmlns="http://www.w3.org/2000/svg"><path fill="#F0F3FA" d="M0 0h56v56H0z"/><path d="m33.48 13.89 6.6 5.82s1.5 1.42 2.31 3.44c.81 2.26.58 3.92.58 3.92l-1.16 9.5s-.34 2.38-2.31 2.86c-1.5.24-2.66-.71-4.17-1.66-1.5-.95-3.47-2.74-3.58-3.45-.24-.71 2.66-16.51 2.66-16.51s.23-.83 0-2.02c-.47-1.43-.93-1.9-.93-1.9Z" fill="url(#a)"/><path d="m13 30.88 1.62-8.8s.46-2.13 1.74-3.8c1.5-1.9 3-2.5 3-2.5l8.68-3.56s2.2-.83 3.59.72c.93 1.18.81 2.73.7 4.51-.12 1.78-.58 4.52-1.05 5-.58.47-15.27 5.81-15.27 5.81s-1.04.12-1.85.95C13.12 30.28 13 30.88 13 30.88Z" fill="url(#b)"/><path d="m37.65 40.74-8.22 2.85s-1.97.6-4.05.35a7.77 7.77 0 0 1-3.59-1.42l-7.4-5.82s-1.85-1.55-1.27-3.45c.46-1.42 1.85-2.02 3.47-2.85 1.62-.83 4.05-1.66 4.74-1.54.7.35 12.5 10.69 12.5 10.69s.58.71 1.73.95c1.5.47 2.09.24 2.09.24Z" fill="url(#c)"/><defs><linearGradient id="a" x1="40.62" y1="38.99" x2="31.53" y2="14.63" gradientUnits="userSpaceOnUse"><stop stop-color="#B04C9B"/><stop offset=".25" stop-color="#BB5FA4"/><stop offset=".73" stop-color="#CD7DB3"/><stop offset="1" stop-color="#D488B9"/></linearGradient><linearGradient id="b" x1="10.95" y1="25.15" x2="33.28" y2="17.24" gradientUnits="userSpaceOnUse"><stop stop-color="#8ACAEC"/><stop offset=".16" stop-color="#7AC5EA"/><stop offset=".49" stop-color="#4FB9E6"/><stop offset=".94" stop-color="#0AA6DF"/><stop offset="1" stop-color="#00A3DE"/></linearGradient><linearGradient id="c" x1="14.13" y1="31.4" x2="35.97" y2="43.68" gradientUnits="userSpaceOnUse"><stop stop-color="#888E92"/><stop offset=".1" stop-color="#8F9599"/><stop offset=".69" stop-color="#B5B9BB"/><stop offset="1" stop-color="#C3C7C8"/></linearGradient></defs></svg>