<!-- by TradeStack --><svg width="56" height="56" viewBox="0 0 56 56" xmlns="http://www.w3.org/2000/svg"><path fill="#F0F3FA" d="M0 0h56v56H0z"/><path d="M43.92 22c.07.8.1 1.42.07 2.15-.07 1.7-.38 3.36-1.19 4.88a8.9 8.9 0 0 1-4.68 4.23 9.5 9.5 0 0 1-4.08.62.08.08 0 0 0-.05.04v.03a59.2 59.2 0 0 0-.01 2.18c.06 3.42-1.65 6.66-5.05 7.65a.23.23 0 0 0-.1.06.3.3 0 0 1-.2.09c-.42.04-.8.07-1.11.07H22V32.12a8.8 8.8 0 0 1 2.98-5.81 8.56 8.56 0 0 1 4.76-2.22c.5-.07 1.18-.1 2.03-.09h8.9c1.37 0 2.95-.43 3.25-2Z" fill="#4FA485"/><path d="M34 22V12h-4.86c-2.68.02-5.23 1.25-6.53 3.8a7.57 7.57 0 0 0-.61 3.54V22c0 .02.01-.01 0 0h-2.72C15.71 22 12 24.7 12 28.72v4.98c0 .07.14.3.21.3h9.8c.05-1.01.08-1.13.11-1.42.24-2.32 1.13-4.68 2.86-6.24a8.56 8.56 0 0 1 4.76-2.22c.5-.07 1.18-.13 2.03-.12h9.17c1.39 0 2.72-.62 2.98-2 0-.01 0 0 0 0 0-.01 0 0 0 0s.01 0 0 0H34Z" fill="url(#aggq1bemt)"/><path d="M34 33.99c-.01.74-.02 1.45 0 2.14 0 .78-.04 1.47-.16 2.08a7.5 7.5 0 0 1-1.19 2.83c-.18.26-.37.5-.58.7l-.29.3c-.16.16-.32.33-.51.49-.73.58-1.52 1-2.38 1.25a.23.23 0 0 0-.1.06.29.29 0 0 1-.18.09c-.43.04-.8.07-1.1.07h-5.39c-.07 0-.12-.05-.12-.13v-3.23c3.12-6.7 9.13-7.26 12-6.65Z" fill="url(#bggq1bemt)"/><defs><linearGradient id="aggq1bemt" x1="32.24" y1="18.65" x2="14.29" y2="33.02" gradientUnits="userSpaceOnUse"><stop stop-color="#183338"/><stop offset="1" stop-color="#275751"/></linearGradient><linearGradient id="bggq1bemt" x1="26.54" y1="35.5" x2="29.23" y2="42.19" gradientUnits="userSpaceOnUse"><stop stop-color="#3A7E6F"/><stop offset="1" stop-color="#4FA485"/></linearGradient></defs></svg>