<?xml version='1.0' encoding='utf-8'?>
<!-- by TradeStack -->
<svg width="56" height="56" viewBox="0 0 56 56" fill="none" xmlns="http://www.w3.org/2000/svg">
<rect width="56" height="56" fill="#F0F3FA" />
<path d="M35.588 19.4804C34.2695 18.0799 32.6989 16.9635 30.966 16.1949C29.2331 15.4262 27.3717 15.0205 25.4881 15.0008C23.6045 14.981 21.7357 15.3477 19.9883 16.0799C18.2408 16.8121 16.649 17.8954 15.3037 19.268C13.9585 20.6406 12.8861 22.2756 12.1477 24.0797C11.4094 25.8838 11.0197 27.8216 11.0007 29.7825C10.9818 31.7434 11.334 33.689 12.0373 35.5081C12.7406 37.3273 13.7812 38.9845 15.0997 40.385L35.588 19.4804Z" fill="#184C73" />
<path d="M20.412 36.5196C21.7305 37.9201 23.3011 39.0365 25.034 39.8051C26.7669 40.5738 28.6283 40.9795 30.5119 40.9992C32.3955 41.019 34.2643 40.6523 36.0117 39.9201C37.7592 39.1879 39.351 38.1046 40.6963 36.732C42.0415 35.3594 43.1139 33.7244 43.8523 31.9203C44.5906 30.1162 44.9803 28.1784 44.9993 26.2175C45.0182 24.2566 44.666 22.311 43.9627 20.4919C43.2594 18.6727 42.2188 17.0155 40.9003 15.615L20.412 36.5196Z" fill="#5B5B5D" />
</svg>