<?xml version='1.0' encoding='utf-8'?>
<!-- by TradeStack -->
<svg width="56" height="56" viewBox="0 0 56 56" xmlns="http://www.w3.org/2000/svg"><path fill="#F0F3FA" d="M0 0h56v56H0z" /><path d="M39 16H13v7h13.77c3.4-3.93 5.92-6.7 12.23-7Z" fill="#C4D500" /><path d="m38.36 16.02.72-.02H45v1h-5.92c-7.4.02-14.06 6.56-14.08 13.93V43h-.91V30.93c0-1.76.31-3.52.93-5.18a15.05 15.05 0 0 1 13.34-9.73ZM26 30.77C26 24 32.13 18 39 18h6v1h-6c-6 .03-11.97 5.86-12 11.77V43h-1V30.77ZM38.87 20C33.41 20 28 25.24 28 30.55V43h1V30.55c.01-4.44 5.31-9.54 9.87-9.55H45v-1h-6.13ZM31 30.3V43h-1V30.3c.01-3.83 4.65-8.29 8.66-8.3H45v1h-6.34C35.59 23 31 27.37 31 30.3Z" fill="#53565B" /></svg>