<!-- by TradeStack --><svg width="56" height="56" viewBox="0 0 56 56" xmlns="http://www.w3.org/2000/svg"><path fill="#F0F3FA" d="M0 0h56v56H0z"/><path d="M10 24v1H7.5v6h-1v-6H4v-1h6ZM20 31h-1.25l-1-2h-3.5l-1 2H12l3.5-7h1l3.5 7Zm-5.25-3h2.5L16 25.5 14.75 28ZM52 31h-1.25l-1-2h-3.5l-1 2H44l3.5-7h1l3.5 7Zm-5.25-3h2.5L48 25.5 46.75 28ZM28.75 31l-2-3H25v3h-1v-7h2.9c1.29 0 2.6.45 2.6 2 0 1.12-.5 1.8-1.5 2l2 3h-1.25ZM25 27h2c.75 0 1.5-.13 1.5-1 0-.73-.56-.99-1.6-.99H25V27ZM41 27.5V27h-1v2.41c-.53.44-1.25.71-2.04.71-1.64 0-2.97-1.17-2.97-2.62 0-1.45 1.33-2.63 2.97-2.63.95 0 1.8.4 2.34 1l.7-.62A4.18 4.18 0 0 0 37.96 24C35.77 24 34 25.57 34 27.5s1.77 3.5 3.96 3.5c1.22 0 2.31-.49 3.04-1.25V27.5Z"/></svg>