<!-- by TradeStack --><svg width="56" height="56" viewBox="0 0 56 56" xmlns="http://www.w3.org/2000/svg"><path fill="#501E52" d="M0 0h56v56H0z"/><path d="M21.27 14.37c1.06-.41 2.22-.7 3.47-.85a15.25 15.25 0 0 1 13.28 5.28c.02.03.04.03.05 0v-.03a11.64 11.64 0 0 0-3.38-3.33 15.04 15.04 0 0 0-19.17 2.28A11.64 11.64 0 0 0 13 21.75l.01.04c.02.02.04.01.05-.02a15.24 15.24 0 0 1 8.2-7.4ZM39.06 21.91c-.04 0-.09 0-.14.02-.03-.13.02-.2.13-.22a.16.16 0 0 0 .12-.08c.03-.07.08-.1.14-.1.07 0 .13-.02.18-.07.18-.16.33-.35.43-.56.05-.1.15-.22.3-.37.1-.1.16-.19.2-.24a368.97 368.97 0 0 1 2.06-2.98.1.1 0 0 0-.04-.05h-.04c-.2.16-.38.35-.53.57-.34.48-.68.96-1 1.45-.17.25-.4.5-.7.75-.06.04-.08.1-.08.17 0 .15-.2.4-.63.73-.15.12-.14.16.05.13l.16-.14c.04-.03.06-.02.08.02l.02.06v.03l-.36.23-.06.03a.2.2 0 0 1-.03-.02l-.02-.02c-.03-.02-.05-.02-.06 0l-.48.55c-.04.05-.02.1.06.12h.1c-.06.12-.04.2.06.26.05.03.06.07 0 .1-.24.16-.39.31-.46.47-.08.2-.2.37-.37.52-.3.28-.6.63-.87 1.07-.11.17-.31.38-.6.62l-.04.03-.03.03-.03.03-.03.02-.02.01a3.22 3.22 0 0 0-.03.04l.04.05c.01.02.03.02.06 0l.18-.12c.15-.1.26-.19.32-.26.31-.42.77-.98 1.36-1.67.09-.1.24-.24.45-.4.23-.2.4-.35.5-.47a51.06 51.06 0 0 0 2.78-3.84c.04-.06.15-.16.33-.3l.21-.09c.08-.03.13-.1.16-.19.03-.08 0-.1-.06-.04a1.5 1.5 0 0 1-.18.14c-.15.08-.17.05-.07-.1.34-.5.7-.97 1.08-1.4.17-.19.2-.17.12.07-.07.15-.2.34-.42.57-.21.22-.35.41-.42.57-.02.06 0 .08.05.06a.9.9 0 0 0 .07-.02c.06-.03.09 0 .08.06A.34.34 0 0 1 43 18l-.4.26c-.12.08-.23.2-.33.33-.5.67-.89 1.36-1.17 2.07-.03.1-.05.1-.06.01a.2.2 0 0 0-.02-.07.06.06 0 0 0-.05-.03.06.06 0 0 0-.06.03c-.16.33-.47.74-.93 1.22-.39.4-.8.8-1.23 1.2a.04.04 0 0 0-.02.04c.01.02.02.03.04.03l.91.07c.03 0 .05-.01.06-.03.48-.75 1.05-1.49 1.7-2.22.1-.1.2-.12.32-.03l1.12.78c.08.05.1.03.09-.05a.85.85 0 0 0-.62-.69.4.4 0 0 1-.27-.26.4.4 0 0 1 .06-.36l.42-.6c.1-.14.21-.16.35-.06l1.16.81c.08.05.15.05.22 0l.08-.06c.07-.05.07-.1 0-.15l-1.22-.85c-.18-.13-.2-.29-.08-.47l.38-.54c.11-.16.26-.2.43-.1l.92.54c.05.03.1.02.14-.02.03-.04.04-.1.02-.18a.13.13 0 0 0-.04-.07l-.81-.65c-.14-.11-.16-.24-.06-.4.08-.1.21-.27.4-.48.11-.11.23-.12.37-.02l1.1.76c.05.04.08.03.08-.04l.01-.17c.01-.1-.03-.2-.12-.26l-1.02-.71c-.08-.06-.09-.12 0-.19.17-.15.32-.34.45-.6.02-.03.01-.05-.01-.07l-.48-.39h-.04l-.5.72c-.04.06-.09.07-.15.03l-1.16-.66c-.08-.05-.1-.1-.05-.19l.32-.55c.07-.11.04-.2-.08-.26l-.18-.09c-.12-.06-.2-.03-.26.09l-.33.66c-.04.07-.1.09-.16.04-.42-.27-.8-.57-1.13-.88-.06-.06-.1-.05-.14.02l-.02.05c-.04.09-.03.16.03.23l.93.93c.1.1.11.2.05.32l-.12.26c-.1.19-.24.23-.42.12-.48-.3-.87-.58-1.16-.85a.07.07 0 0 0-.08-.02.08.08 0 0 0-.05.07l-.01.18c0 .05.01.09.05.12l1.03.72c.16.1.2.25.1.43l-.29.49c-.11.19-.26.22-.44.1l-1.07-.76c-.08-.05-.14-.04-.18.05l-.03.06c-.06.1-.03.19.07.25l1.08.7c.09.05.1.13.05.22-.52.83-1.08 1.63-1.68 2.4-1.23 1.58-2.67 3.4-4.33 5.45-.06.07-.05.13.03.18l.04.02c.1.06.18.04.26-.04.11-.15.28-.35.5-.61.57-.69 1-1.23 1.29-1.63.47-.66.91-1.24 1.34-1.75a65.26 65.26 0 0 0 2.78-3.52l.75-1.28c.2-.33.38-.57.56-.71.2-.16.38-.4.56-.7.04-.07.1-.1.17-.07.3.12.57.25.8.39.05.04.05.07-.01.1a.2.2 0 0 1-.11.02.09.09 0 0 1-.08-.05c-.05-.1-.14-.17-.24-.17-.07 0-.12.02-.14.08l-.51 1.02c-.02.03-.02.06.02.08.03.02.06.02.09 0a3.95 3.95 0 0 0 .62-.86h.09c.04 0 .05.03.03.06l-4.02 5.73c-.02.03-.06.05-.1.04-.04-.01-.06-.04-.06-.08v-.06c0-.04-.03-.06-.07-.07Z" fill="#F9FFFF"/><path d="M42.19 16.87v-.22l.54-.86c.01-.02.03-.02.05 0l.05.06v.03l-.84 1.5-.02.01h-.1c-.04 0-.05 0-.02-.05l.33-.45a.03.03 0 0 0 0-.02ZM26.02 29.44a7.24 7.24 0 0 1-1.47-1.13c-.1-.09-.08-.1.03-.05l1.76.88c.09.05.17.04.25-.02l.13-.1c.09-.05.09-.11 0-.16l-4.37-2.52c-.08-.05-.07-.08.02-.09.15-.02.4.02.72.13.59.2 1.16.48 1.73.83.34.21.86.57 1.53 1.08l.64.47c.08.05.16.06.23 0l.22-.15c.03-.03.04-.06.01-.09a6.6 6.6 0 0 0-1.33-1.47c-.07-.05-.08-.11-.05-.18l.58-1.16c.03-.06.09-.09.16-.06l1.69.54c.46.18.88.19 1.25 0a.34.34 0 0 0 .15-.13c.2-.34.1-.74-.31-1.18a4.1 4.1 0 0 0-1.08-.83.17.17 0 0 1-.1-.16c0-.39-.08-.72-.25-.99-.05-.08-.03-.12.07-.1.31.03.54.03.7-.02.11-.03.13-.1.06-.2l-.93-1.3a.25.25 0 0 1-.04-.23.25.25 0 0 1 .15-.18c.71-.3 1.28-.61 1.7-.92.53-.39.95-.85 1.24-1.4.28-.5.33-1 .15-1.45-.18-.47-.56-.76-1.14-.88-.8-.16-1.68.14-2.64.91-.74.6-1.37 1.3-1.9 2.15L24.2 21.5a6.12 6.12 0 0 1-2.65 2.37c-.18.08-.5.19-.94.3-.37.1-.64.18-.8.25-.29.12-.28.18.04.2.71.03 1.5-.15 2.37-.51.04-.02.05 0 .05.03v.07c0 .02-.02.03-.03.04-.8.38-1.63.56-2.5.55-.03 0-.04.01-.04.04l.01.05c.9.14 1.81.1 2.75-.1.1-.01.13.02.13.12l-.05.67c0 .08-.05.13-.12.15l-1.55.53c-.06.02-.06.04 0 .06a8.02 8.02 0 0 1 2.85 1.8 71.44 71.44 0 0 0 1.71 1.8l.6-.41c.03-.03.03-.05 0-.07Zm-1.24-2.51a6.6 6.6 0 0 0-2.02-1.3c-.06-.03-.08-.07-.07-.13 0-.02 0-.04.02-.06.03-.07.08-.09.15-.08.96.2 1.64.7 2.03 1.49.15.28.11.3-.11.08ZM21.8 18.51l-.05-.03c-.03-.05-.04-.09-.03-.12a.8.8 0 0 1 .38-.52 3 3 0 0 1 1.93-.48c.29.03.3-.01.03-.11-.81-.32-1.74-.23-2.78.24a6.7 6.7 0 0 0-2.3 1.72c-.06.08-.07.08-.02-.02.36-.64.87-1.19 1.55-1.65.91-.63 1.8-.97 2.68-1.02 1-.06 1.87.26 2.63.96.05.05.06.1.01.16l-.81 1.03a.2.2 0 0 1-.18.08c-.43-.01-.96.04-1.58.18-1.18.25-1.96.9-2.34 1.96-.02.06-.05.06-.1.02a4.09 4.09 0 0 0-2.06-1.27c-.1-.03-.1-.05 0-.08.41-.09.78-.04 1.12.16.24.14.52.4.84.77.03.05.07.04.1-.02l.07-.17c.19-.4.34-.66.45-.8a4 4 0 0 0 .52-.85c.03-.06.01-.11-.06-.14ZM41.92 16.89c0-.06 0-.07-.06-.04a.23.23 0 0 0-.09.1c-.05.1-.02.13.09.05.03-.01.05-.05.06-.11ZM41.64 17.4c-.05-.08-.07-.07-.07.02 0 .12.03.2.11.2.07.02.09 0 .05-.06l-.09-.16ZM38.29 21.98a.89.89 0 0 1-.02-.06l.01-.05a137.54 137.54 0 0 0 3.3-4.13l.06.04c.02.02.02.04 0 .06-.4.51-.78 1.04-1.15 1.58-.05.08-.17.2-.35.39-.09.08-.16.17-.22.28-.08.14-.14.24-.2.3-.46.53-.94 1.06-1.43 1.59Z" fill="#F9FFFF"/><path d="M38.29 21.98c0 .08-.04.18-.14.32l-1.26 1.67a4.26 4.26 0 0 1-.57.64c-.02-.01-.02-.03-.02-.05v-.01l.02-.03a169 169 0 0 0 1.97-2.54ZM24.8 18.95a4.43 4.43 0 0 0-3.29 2c-.13.2-.12.2.02.02.74-.9 1.73-1.39 2.97-1.48.04 0 .07-.02.09-.06l.25-.43c.02-.04.01-.06-.03-.05Z" fill="#F9FFFF"/><path d="M23.48 20.66c-.78.35-1.4.89-1.86 1.6-.1.17-.1.38-.01.63v.04c.03.06.01.11-.05.14a3.46 3.46 0 0 1-2.79.17 2.55 2.55 0 0 1-1.57-1.62c-.1-.3-.01-.57.24-.84.42-.45.96-.58 1.64-.38.58.16 1.1.5 1.54 1l.64.7c.05.06.1.06.14 0 .37-.5.61-.82.73-.95a4.77 4.77 0 0 1 2.16-1.39c.1-.03.12 0 .07.09a11.25 11.25 0 0 1-2.29 2.88c-.29.25-.33.2-.13-.1.44-.68.98-1.3 1.62-1.84.28-.24.26-.29-.08-.13ZM39.38 21.76c.03-.1 0-.13-.1-.1l-.09.04c-.03 0-.05.03-.05.07a.2.2 0 0 0 0 .08c.03.05.06.07.11.04.06-.03.1-.07.13-.13ZM38.82 22.2c0-.02-.02-.04-.03-.04-.06-.01-.1-.04-.1-.09 0-.03 0-.05-.02-.06h-.05a.15.15 0 0 0-.07.07c-.03.07-.01.1.06.12l.18.03c.02 0 .03 0 .03-.03ZM38.36 22.52c0-.05.04-.1.1-.17.05-.05.08-.04.1.01.01.03 0 .06-.01.09-.03.05-.08.08-.15.1-.03 0-.04 0-.04-.03ZM38.28 22.65c-.01 0-.02 0-.03.03a.3.3 0 0 1-.04.04l-.03.04c0 .04.01.06.06.05.02 0 .04-.04.07-.1 0-.03 0-.05-.03-.06ZM37.66 23.38c.07-.13.16-.25.27-.35.05-.05.06-.04.04.02-.04.12-.14.22-.31.33ZM37.66 23.38c0 .04 0 .08-.02.12a.1.1 0 0 1-.05.07.13.13 0 0 1-.06 0c-.03 0-.03-.01-.02-.04a.33.33 0 0 1 .15-.15ZM15.9 25a1.42 1.42 0 0 0-.4-.06c-.1 0-.1-.02-.03-.08.05-.03.07-.1.09-.22 0-.07.04-.11.1-.14.25-.1.44-.07.57.08.05.05.11.07.18.05l.3-.1c.08-.03.09-.07.02-.12a.15.15 0 0 0-.1-.03c-.26.02-.43-.1-.52-.37-.02-.04 0-.07.04-.09l.05-.02c.03 0 .06 0 .07.03l.16.22c.04.06.1.07.16.02l.26-.19c.04-.03.05-.06.01-.1a.9.9 0 0 0-.26-.14c-.08-.03-.09-.07-.03-.13.1-.09.11-.17.04-.26-.06-.06-.12-.07-.18 0-.08.07-.14.06-.2-.02-.05-.06-.11-.08-.19-.05-.2.09-.5.16-.94.23a.3.3 0 0 0-.2.1c-.06.08-.04.12.07.1l.28-.05c.04 0 .07.01.08.06l-.01.07c-.03.06-.16.13-.4.2a1.7 1.7 0 0 0-.91.63c-.1.14-.08.16.06.06l.34-.24c.19-.14.23-.1.12.1-.1.22-.28.44-.5.66a.3.3 0 0 0-.09.1c-.02.08 0 .09.08.02a.3.3 0 0 1 .14-.07c.08-.02.1.01.07.09-.07.17-.21.46-.43.87-.01.02 0 .03.01.05.02.01.04 0 .05-.02a7 7 0 0 1 .83-1.07.09.09 0 0 1 .1-.02l.07.05c.04.04.04.09.02.14-.2.38-.3.7-.3.97-.01.2.04.21.16.07.3-.38.39-.8.26-1.3a.2.2 0 0 1 .04-.17c.1-.12.16-.22.18-.3.02-.11.06-.12.1 0a.3.3 0 0 1 .02.11c0 .08-.04.13-.12.16a.17.17 0 0 0-.08.06c-.04.07-.03.12.03.16.21.13.33.29.35.48l.04.43c.01.14.04.15.08.01.1-.28.07-.57-.06-.85-.02-.06-.01-.1.04-.12a.2.2 0 0 1 .08-.02c.07 0 .1.03.11.1.01.15.05.27.11.37.15.24.25.23.31-.04.01-.04-.04-.08-.16-.12-.08-.03-.1-.08-.04-.15a.1.1 0 0 0 .02-.08c-.01-.05-.06-.08-.15-.1Zm-.52-.6c-.02-.02 0-.05.03-.1.04-.05.07-.04.1.01.01.04 0 .08-.05.11-.03.02-.06.02-.08-.01Zm-.46.13c-.04.03-.08.04-.1.03-.08-.02-.07-.05.02-.1a.09.09 0 0 1 .08 0c.04.03.04.05 0 .07ZM38.57 23.53l.06-.03c.03-.02.05-.04.05-.06l-.02-.06a.08.08 0 0 0-.08-.02.45.45 0 0 0-.32.28c-.03.07-.01.09.05.04l.26-.15Z" fill="#F9FFFF"/><path d="M26.69 43h.07c.25-.04.64-.08 1.16-.13a14.9 14.9 0 0 0 9.6-4.46 14.73 14.73 0 0 0 4.25-9.16c.1-.99.05-1.93-.13-2.81-.04-.19-.07-.18-.07 0a106 106 0 0 1-.18 2.93c-.14 1.87-.71 3.7-1.74 5.5A14.91 14.91 0 0 1 30.57 42c-.2.06-.24.01-.1-.14.54-.56 1.05-1.2 1.55-1.93.45-.65.82-1.38 1.13-2.18.5-1.3.84-2.47 1.04-3.51.01-.07.05-.1.12-.06a6.3 6.3 0 0 0 1.6.53c.28.04.52-.05.72-.28.72-.81 1.22-2.12 1.5-3.92.16-1.13.3-1.97.39-2.5a.18.18 0 0 1 .12-.15 3.1 3.1 0 0 0 1.97-2.17c.15-.53.26-.89.34-1.08a.26.26 0 0 0 0-.2c-.17-.46-.53-.68-1.1-.65-.08 0-.1.03-.02.08.24.17.4.3.46.37.17.22.13.3-.14.23a4.28 4.28 0 0 0-2.1.1c-.05.01-.11 0-.18-.04a.1.1 0 0 1-.05-.06c-.03-.1-.09-.11-.16-.03-.1.11-.35.45-.73 1l-5.9 8.61a.3.3 0 0 0-.05.2c.05.53 0 1.06-.17 1.6-.05.19-.22.42-.5.7-.05.05-.06.12-.02.19l.07.11c.02.03.02.06 0 .09a.08.08 0 0 1-.08.03c-.97-.16-2-.13-3.09.1-.86.17-1.65.2-2.36.1-.54-.07-1.63-.24-3.28-.52-1.75-.29-2.85-.8-3.3-1.52a8.5 8.5 0 0 1-1.21-3.58c-.14-1.22.03-2.3.5-3.25.27-.51.6-.9 1.02-1.13a.12.12 0 0 1 .12 0c.04.01.06.05.07.1a.3.3 0 0 1-.07.21 5.05 5.05 0 0 0-1.01 3.28c.04.92.17 1.75.4 2.5a3.2 3.2 0 0 0 1.19 1.73 4.8 4.8 0 0 0 2.02.71c.25.04.26.02.01-.06a3.62 3.62 0 0 1-2.34-2.28c-1.08-2.83-1.04-4.82.1-5.96a.22.22 0 0 1 .19-.07c.18.01.36-.02.53-.08.2-.08.4-.09.58-.03.19.06.33.17.43.34A9.35 9.35 0 0 0 24.33 31c.06.04.1.03.15-.02l.52-.52c.05-.04.05-.1 0-.14l-2.33-2.25a4.16 4.16 0 0 0-3.09-1.21c-.77.02-1.5.27-2.16.73a5.29 5.29 0 0 0-1.65 1.7c-.42.77-.59 1.5-.52 2.22.09.77.45 1.4 1.1 1.88.34.25.65.45.93.6.1.04.15.12.17.23l.44 2.68c.05.34.13.6.22.77.2.38.62.71 1.23 1 .47.21 1 .38 1.58.48.08.01.13.06.17.12l.96 1.66c.05.08.03.15-.06.2-.16.09-.3.2-.4.32-.04.05-.1.07-.16.04a14.3 14.3 0 0 1-7.17-5.63 12.81 12.81 0 0 1-2.03-5.72c-.07-.78-.1-1.99-.09-3.63 0-.04-.01-.06-.04-.04l-.04.04-.06 3.06v1.63a14.66 14.66 0 0 0 11.82 11.47c.43.07 1.38.18 2.87.33ZM38.5 24.93c-.19-.03-.53.01-1.01.13-.04 0-.06-.01-.06-.05l.01-.08c0-.04.03-.07.07-.08.23-.04.45-.1.66-.17a2.24 2.24 0 0 1 1.92.2c.27.16.25.23-.06.21-.48-.02-.99-.08-1.53-.16Zm-1.18.26h.29c.46 0 .94-.02 1.46-.04.15 0 .32.09.5.28.07.07.07.13 0 .2l-.04.04c-.09.09-.18.1-.27.03a1.16 1.16 0 0 0-.7-.22c-.5.03-.9 0-1.23-.06-.06-.01-.09-.05-.08-.11v-.06c0-.04.03-.06.07-.06Zm.02.61 1.1-.05v.02c.01.16-.16.25-.5.27h-.07c-.35.02-.53-.06-.53-.22v-.01Zm-2.68 4.98a.08.08 0 0 1-.03-.09c.1-.7.32-1.32.66-1.85.6-.92 1.12-1.65 1.57-2.17.14-.16.2-.14.16.07a7.45 7.45 0 0 1-.9 2.77c-.35.6-.8 1.03-1.37 1.28a.09.09 0 0 1-.09-.01Zm-4.95 10.25-.04-.06c-.02-.03-.02-.05 0-.08 1.34-1.56 2.18-2.9 2.53-4.04a124.98 124.98 0 0 1 1.7-5.2h.06c.04 0 .06.02.05.06a83.5 83.5 0 0 1-1.47 4.97 11.15 11.15 0 0 1-2.7 4.36c-.04.05-.09.04-.13-.01Zm.02-3.54c-.05.02-.16.02-.31 0a1.14 1.14 0 0 1-.3-.04c-.33-.13-.32-.19.03-.16a13.87 13.87 0 0 1 .57.04c.34.03.34.08 0 .16Zm-.15.77c.26 0 .46-.02.6-.04.18-.02.3-.02.38.01.23.08.23.15.02.2-.53.14-.97.15-1.34.03-.32-.1-.31-.16.01-.19l.33-.01Zm-2.71 2.06a.09.09 0 0 0-.02.05c0 .07.02.08.06.04a.27.27 0 0 0 .05-.1c.03-.08.08-.1.16-.06l.37.18c.08.04.09.1.03.16-.1.1-.23.14-.4.1a1.6 1.6 0 0 1-.94-.65.2.2 0 0 0-.17-.09.75.75 0 0 1-.43-.13c-.07-.05-.08-.11-.03-.18.29-.4.66-.64 1.11-.7.03 0 .04 0 .05.03V39.04c-.31.08-.58.25-.81.49-.08.08-.1.16-.08.23.02.08.05.08.1.02.06-.1.1-.16.14-.15.08 0 .13.05.15.14.03.1.08.13.15.1.08-.02.12 0 .1.1l-.03.16c-.03.1 0 .13.1.06l.09-.07a.16.16 0 0 1 .12-.03c.06.01.1.03.13.05.05.04.05.1 0 .18Zm.05-.9c.34-.18.52-.25.54-.2.03.04-.13.15-.47.33-.33.19-.51.26-.54.21-.02-.04.13-.15.47-.34Zm-4.89.15c0 .13-.02.22-.07.29-.06.1-.11.09-.15-.02l-.11-.34c-.04-.1 0-.14.1-.12l.14.04c.07.02.1.07.1.15Zm5.1.2a4.5 4.5 0 0 0 .75-.15c.03.03.03.06 0 .07a2.07 2.07 0 0 1-.81.19c-.04 0-.06-.02-.04-.06.01-.03.04-.04.1-.05Zm-.72 1.91c-.19 0-.3-.1-.35-.32-.02-.09-.08-.13-.17-.14-.14 0-.47-.13-.99-.35-.23-.11-.29-.3-.15-.55a.3.3 0 0 1 .23-.17c.11-.02.2.02.27.1.14.15.34.26.6.31.07.02.12.05.16.11.15.22.34.36.56.42.08.02.13.07.14.15.04.16.02.27-.04.34a.35.35 0 0 1-.26.1Zm-2.84.2-1.48-.54c-.01 0-.02-.02-.01-.04.02-.07.12-.1.28-.1.15 0 .33.04.53.12l.08.02c.2.08.36.16.49.26.12.1.17.19.15.25v.01c-.01.02-.03.02-.04.02Z" fill="#F9FFFF"/><path d="M38.35 23.89c.24.03.52.03.86-.02.04 0 .06.02.05.05v.11c0 .03-.02.04-.04.04l-.9-.07a.3.3 0 0 0-.2.05l-.19.12c-.09.06-.11.04-.08-.06.04-.11.14-.21.3-.3.05-.02.1-.01.13.03.02.03.05.05.07.05ZM37.17 24.06a.31.31 0 0 0-.07.15c-.19.07-.31.17-.37.3-.03.08-.02.1.06.04.12-.1.23-.2.31-.34a.22.22 0 0 0 .12-.07c.03-.03.04-.06.03-.08 0-.06-.03-.06-.08 0ZM15.78 24.62c.02.28.24.45.68.5.16.02.18-.02.05-.12l-.58-.46c-.11-.08-.16-.05-.15.08ZM35.48 25.87l.06.06c.02.02.02.03 0 .05-.71.95-1.41 1.9-2.1 2.88a5.5 5.5 0 0 1-.9.79l-.05-.04c-.02-.02-.02-.04 0-.06.22-.16.45-.4.7-.73A63.06 63.06 0 0 0 35.31 26c.03-.05.02-.07-.04-.05a.23.23 0 0 0-.12.1c-.01.02-.03.03-.05.03-.03 0-.05-.02-.06-.05V26l1.18-1.17c.04-.05.09-.05.13 0l.05.04v.05c-.26.23-.5.49-.74.76.02.12-.03.17-.16.17-.03 0-.03.01-.02.03ZM36.75 25.27c.04.04-.11.27-.47.68h-.02a.19.19 0 0 1-.04-.02.15.15 0 0 1-.04-.04v-.02c.33-.43.52-.63.57-.6ZM15.2 25.7a.13.13 0 0 1-.03-.1c.01-.1.05-.17.12-.19.08-.02.12.01.12.1.01.3-.05.57-.18.77-.02.03-.04.04-.07.04-.04 0-.05-.02-.04-.05l.1-.48c0-.04 0-.07-.03-.1ZM35.81 25.91l-.03.13c-.19.1-.31.25-.38.42-.02.08 0 .1.07.05a.8.8 0 0 0 .31-.47c.08 0 .13-.01.17-.06.03-.03.03-.06 0-.09a.13.13 0 0 0-.03-.02h-.02c-.05-.02-.08 0-.09.04ZM32.78 27.78c-.98.58-1.85 1.04-2.6 1.36-.35.16-1.07.59-2.16 1.28-.93.6-1.6 1.1-1.98 1.52a7 7 0 0 0-1.8 4.07c0 .05-.03.06-.07.04l-.48-.28a.07.07 0 0 1-.04-.07c.05-1.33.7-2.7 1.95-4.1a9.5 9.5 0 0 1 2.37-1.85 42.74 42.74 0 0 1 4.1-2.1c.4-.18 1.1-.7 2.13-1.58.05-.05.08-.04.09.04l.03.26a.25.25 0 0 1-.07.2c-.36.44-.85.84-1.47 1.21ZM36.17 26.2c-.12.12-.22.26-.32.4-.01.02-.03.03-.05 0l-.04-.04v-.01l.35-.45c.03-.04.05-.04.06.02V26.19Z" fill="#F9FFFF"/><path d="M34.83 26.2c0 .04.02.05.05.02.04-.02.05-.04.05-.06 0-.04-.02-.05-.07-.02a.07.07 0 0 0-.03.06ZM34.12 27.04c.1-.2.3-.41.56-.63.04-.04.05-.03.02.01-.14.22-.33.43-.58.62ZM27.98 28.48c.09-.02.16-.08.21-.17.04-.07.1-.09.16-.07.21.06.4.01.55-.14.05-.05.05-.1-.02-.13l-2.17-1.25c-.1-.06-.11-.04-.06.06.09.15.26.37.52.64.36.38.59.7.67.98.02.06.06.1.14.08ZM35.3 26.7l-.02-.02a.06.06 0 0 0-.08.01l-1.94 2.73a.06.06 0 0 0 .02.08l.02.01c.02.02.06.02.08 0l1.93-2.73a.06.06 0 0 0 0-.08ZM35.73 26.69c.02.01.03.04.02.06l-3.44 5a.05.05 0 0 1-.08-.06l3.44-4.99a.05.05 0 0 1 .06-.01ZM34.12 27.04c-.03.12-.07.17-.13.15a.26.26 0 0 1 .13-.15ZM33.88 27.32a.32.32 0 0 0-.18.13c-.1.02-.15.08-.15.16s.03.1.09.04l.27-.28c.07-.06.06-.08-.03-.05ZM24.1 31.48l-.63.89c-.02.03-.04.03-.08.02a6.2 6.2 0 0 1-2.6-1.74c-.63-.8-.89-1.79-.77-2.97.01-.09.05-.1.11-.03.35.38.89 1 1.61 1.86.7.83 1.47 1.46 2.33 1.88.04.02.05.05.03.09ZM31.7 30.15l-.07.03a.04.04 0 0 1-.04 0 .08.08 0 0 1-.03-.04l.01-.07 1.72-2.3c.03-.04.02-.06-.03-.07h-.1a304.63 304.63 0 0 0-1.81 2.45c-.07.1-.2.24-.38.4l-.17.16a.4.4 0 0 0-.1.17.87.87 0 0 1-.19.32l-.29.34c-.27.41-.53.84-.76 1.26 0 .02 0 .04.02.07.02.03.04.02.06-.02.35-.56.74-1.1 1.15-1.62 0-.02.1-.14.26-.38.19-.29.45-.5.78-.62.02 0 .04-.02.04-.05 0-.04-.03-.06-.07-.03ZM33.26 28.26a.3.3 0 0 1-.14.17c-.04.02-.05.01-.04-.03.02-.1.12-.22.28-.37.05-.05.07-.04.05.03a.38.38 0 0 1-.15.2Z" fill="#F9FFFF"/><path d="M22.57 35.15a7.94 7.94 0 0 1 .6-2.2c-.9-.43-1.69-1-2.37-1.7a5.14 5.14 0 0 1-1.45-3.04c0-.1-.03-.1-.07-.02-.18.38-.28.7-.32.97a6.08 6.08 0 0 0 1.46 4.9c.44.52 1.12.9 2.04 1.16.07.02.1 0 .11-.07ZM29.14 34.84c-.05-.08-.11-.08-.18-.02-.35.35-.56.54-.64.59-.14.08-.35.13-.62.14-.3 0-.52.08-.67.2-.7.64-1.5.79-2.35.44-.07-.02-.1-.07-.09-.14a7.09 7.09 0 0 1 2.43-4.59c.72-.62 1.46-1.12 2.2-1.5a39.87 39.87 0 0 0 3-1.61c.04-.05.08-.1.13-.13.03-.02.06-.01.09.01.02.03.02.06 0 .09l-3.34 4.24c-.04.06-.1.1-.18.12a2.5 2.5 0 0 0-1.91 2.42c0 .05.01.09.06.1l.08.05c.12.06.2.02.22-.11.09-.53.28-1 .58-1.4.27-.36.62-.56 1.05-.58.42-.03.79.1 1.12.4.43.38.59.92.47 1.61-.06.36-.27.78-.62 1.27a.17.17 0 0 1-.15.08l-2.12-.16c-.07 0-.1-.04-.08-.1l.03-.05a59.43 59.43 0 0 1 .8-.23c.27-.06.41-.2.43-.43 0-.06.08-.2.21-.44.07-.12.09-.21.05-.27ZM32.61 29.09c0-.03-.02-.04-.04-.01-.06.1-.07.12-.01.1.04-.03.06-.06.05-.1ZM32.34 29.33c.03-.02.04-.03.03 0l-.01.02c-.04.02-.05.01-.02-.02Z" fill="#F9FFFF"/><path d="M32.5 29.9c.07-.13.18-.24.31-.33.02-.01.03 0 .04.01l.01.07c.01.03 0 .05-.01.07a.76.76 0 0 0-.23.37c0 .03-.02.05-.05.06-.06.02-.1 0-.1-.07 0-.1-.05-.12-.12-.04l-.45.44c-.01.02-.03.02-.05 0l-.05-.04v-.04l.52-.52c.02-.02.05-.02.07 0l.06.02h.05ZM33.08 29.89c0 .05.02.05.05 0l.1-.18c.04-.07.03-.08-.04-.04-.1.05-.13.12-.11.22ZM32.9 30.11c.04-.1.08-.13.1-.1.02.03.02.06.02.09-.02.05-.05.07-.09.08-.05 0-.06-.02-.04-.07ZM32.14 30.68a18.32 18.32 0 0 0 .25-.33c.03-.09.01-.1-.06-.05a2.63 2.63 0 0 0-.25.34c-.03.09 0 .1.06.04ZM32.76 30.29c.03-.04.05-.04.06.01 0 .04 0 .08-.03.1-.1.12-.13.1-.08-.03 0-.02.02-.04.05-.08ZM31.4 31.05c-.03-.13 0-.18.06-.16 0-.11.04-.19.1-.23.05-.04.08-.03.1.03l.02.06c.02.05.04.06.08.03.08-.05.07-.12-.02-.2-.08-.07-.17-.08-.27-.03-.26.14-.34.37-.25.69.02.06.05.06.09.02l.06-.06c.04-.04.05-.1.04-.15ZM32.58 30.76c-.02.03-.05.04-.08 0-.04-.04-.03-.1.04-.17.02-.02.05-.02.07 0 .03.02.03.04.02.07l-.05.1Z" fill="#F9FFFF"/><path d="M31.6 30.92c-.02-.04-.07-.05-.14-.03.02.1.06.12.12.08.02 0 .03-.03.02-.05ZM31.95 30.9l-.01-.01a.05.05 0 0 0-.08.01l-1.03 1.51a.05.05 0 0 0 .01.08h.02c.02.03.06.02.07 0l1.04-1.52a.05.05 0 0 0-.02-.07ZM32.3 30.98a.53.53 0 0 0-.05.18c.1-.07.15-.13.16-.18 0-.02-.02-.04-.05-.04a.07.07 0 0 0-.06.04ZM32.24 31.16c-.01.12-.05.2-.1.25-.1.08-.12.07-.08-.06.02-.07.08-.14.18-.19ZM31.1 31.64h-.06c-.04 0-.06-.01-.07-.04-.02-.08.01-.15.1-.2a.1.1 0 0 0 .05-.09c0-.03 0-.05-.03-.05-.1 0-.17.03-.2.09-.17.32-.38.6-.65.84-.03.03-.03.05 0 .07l.03.04h.04c.2-.12.37-.29.5-.5a.13.13 0 0 1 .15-.06c.07.02.12 0 .15-.06.02-.03.01-.05-.02-.04ZM31.94 31.52a.4.4 0 0 0-.12.26c.18-.13.22-.21.12-.26ZM31.82 31.78c-.18.14-.22.23-.13.29.07-.07.11-.17.13-.3ZM31.72 32.6a19.77 19.77 0 0 1-.52.7c-.03 0-.04-.01-.02-.04a12.21 12.21 0 0 1 .97-1.4c.02-.02.03-.02.04 0l-.01.05-.46.7ZM31.57 32.18c-.01-.04-.03-.05-.05-.01a.27.27 0 0 0-.06.1c-.03.12 0 .14.09.04.03-.03.04-.08.02-.13ZM30.46 32.4c.01-.04.02-.06.04-.07.03-.01.04 0 .05.03a.2.2 0 0 1-.07.19c-.04.03-.06.02-.07-.03 0-.05.01-.09.05-.12ZM30.1 32.43c-.05-.01-.08 0-.1.05 0 .03 0 .05.03.06.08.04.12.03.13-.03 0-.04-.01-.07-.05-.08ZM31.39 32.52a.53.53 0 0 1-.05.1c-.08.09-.11.07-.1-.05 0-.1.03-.14.09-.14.07 0 .09.03.06.1ZM30.33 32.61c-.06-.03-.1-.01-.12.05-.01.03 0 .06.02.07.04.03.08.03.11 0 .05-.05.04-.09-.01-.12ZM30.45 33l.14-.16c.08-.1.1-.1.06.03-.03.11-.08.18-.13.21-.17.1-.2.07-.07-.07ZM31.07 32.83c-.02.01-.03.04-.04.08 0 .05.01.06.05.03.04-.02.05-.04.05-.07 0-.06-.02-.07-.06-.04ZM30.33 33.22l-.19-.14a.15.15 0 0 0-.13-.01h-.07c-.02-.01-.03 0-.04.02l.01.04.34.24c.03.02.05.01.07-.02l.03-.06c.01-.03 0-.06-.02-.07ZM30.87 33.14c0-.02.02-.04.04-.05.04-.01.06 0 .06.04s-.01.06-.03.07c-.08.03-.1.01-.07-.06ZM30.66 35.58c.06-.06.08-.01.04.13-.01.05-.04.06-.07.02-.03-.05-.02-.1.03-.15ZM30.49 35.9c-.03 0-.05.02-.07.04-.03.08-.02.12.02.14.03.01.05 0 .07-.01.03-.04.04-.08.03-.12a.06.06 0 0 0-.05-.04Z" fill="#F9FFFF"/></svg>