<?xml version='1.0' encoding='utf-8'?>
<!-- by TradeStack -->
<svg width="56" height="56" viewBox="0 0 56 56" xmlns="http://www.w3.org/2000/svg"><path fill="#F0F3FA" d="M0 0h56v56H0z" /><path d="M13 23v11h-3V23H7v-3h9v3h-3ZM21 26.46h-.79c-.84 0-1.21.34-1.21 1.02V34h-3V23h3v.82c.4-.53 1.06-.82 2-.82v3.46ZM22.25 20.67a1.5 1.5 0 1 0 2.5 1.66 1.5 1.5 0 0 0-2.5-1.66ZM25 34h-3V24h3v10ZM30 34h-3V19h3v4.73a4.61 4.61 0 0 1 2.89-.94c3.17 0 5.11 2.37 5.11 5.71 0 3.22-2.1 5.5-5.33 5.5-1.03 0-2-.33-2.67-.91V34Zm2.48-2.92c1.54 0 2.52-1.04 2.52-2.58 0-1.56-1.04-2.83-2.54-2.83-1.56 0-2.46 1.27-2.46 2.83s1 2.58 2.48 2.58M41.92 29.54c.14 1.02 1.15 1.64 2.33 1.64 1.08 0 1.7-.66 2.07-1.26l2.34 1.43A4.6 4.6 0 0 1 44.23 34c-3.1 0-5.23-2.05-5.23-5.45 0-3.18 2.04-5.55 5-5.55 3.12 0 5 2.13 5 5.31 0 .32 0 .7-.04 1.23h-7.04ZM42 27.3h4c-.08-.88-.9-1.64-2-1.64-1.06 0-1.92.78-2 1.64Z" fill="#353535" /><path d="M16 35H7v2h9v-2Z" fill="#F1CB30" /></svg>