<!-- by TradeStack --><svg width="56" height="56" viewBox="0 0 56 56" xmlns="http://www.w3.org/2000/svg"><path fill="#F0F3FA" d="M0 0h56v56H0z"/><path d="m25.13 15.84 2.1-3.47c.32-.51 1.02-.49 1.3.04L38.9 31.74c.3.56-.06 1.26-.66 1.26h-3.77a.75.75 0 0 1-.65-.4l-8.7-15.87a.9.9 0 0 1 .02-.9Z" fill="url(#a0zaop2be)"/><path d="M42.22 39H20.78c-.6 0-.98-.7-.67-1.25l1.82-3.34c.14-.25.4-.41.68-.41h17.52c.26 0 .5.14.65.37l2.09 3.33c.34.56-.03 1.3-.65 1.3Z" fill="url(#b0zaop2be)"/><path d="m26.87 22.01-2.19-3.41a.78.78 0 0 0-1.35.06L13.1 37.76c-.3.56.09 1.24.7 1.24h3.74c.29 0 .55-.16.7-.42l8.65-15.7a.86.86 0 0 0-.02-.87Z" fill="url(#c0zaop2be)"/><defs><linearGradient id="a0zaop2be" x1="26.39" y1="14.19" x2="38.53" y2="32.02" gradientUnits="userSpaceOnUse"><stop stop-color="#9F0E31"/><stop offset="1" stop-color="#590A24"/></linearGradient><linearGradient id="b0zaop2be" x1="22.55" y1="35.25" x2="40.96" y2="36.72" gradientUnits="userSpaceOnUse"><stop stop-color="#6D0926"/><stop offset="1" stop-color="#44071D"/></linearGradient><linearGradient id="c0zaop2be" x1="25.55" y1="20.37" x2="14.98" y2="38.63" gradientUnits="userSpaceOnUse"><stop stop-color="#9F0E31"/><stop offset="1" stop-color="#590A24"/></linearGradient></defs></svg>