<!-- by TradeStack --><svg width="56" height="56" viewBox="0 0 56 56" xmlns="http://www.w3.org/2000/svg"><path fill="#F0F3FA" d="M0 0h56v56H0z"/><path fill-rule="evenodd" d="M28 45a17 17 0 1 0 0-34 17 17 0 0 0 0 34Zm0-2a15 15 0 1 0 0-30 15 15 0 0 0 0 30Z" fill="#020202"/><path fill-rule="evenodd" d="M21 41h14v-1.64l-1.55-1.33-.72-5.03h-1.29l-2-3.08L30 29l-.4-1.03 1.84-1.18c.06.31.27.93.72.93.46 0 .57-.31.57-.46-.19.05-.57.03-.57-.47 0-.33.32-.58.63-.83.13-.1.25-.2.35-.3l.28-.24c.65-.55 2.04-1.74 2.09-3.04.84-.71 2.49-2.6 2.49-4.4 0-1.28-1.59-2.52-2.4-2.98l-1.64 1.23-.36 1.64c-.3-.4-.97-1.18-1.18-1.18-.2 0-.36.2-.41.31h-7.97c-.05-.1-.2-.3-.41-.3-.2 0-.87.78-1.18 1.17l-.36-1.64L20.44 15c-.8.46-2.44 1.7-2.44 2.97 0 1.8 1.7 3.7 2.54 4.41.05 1.3 1.44 2.49 2.1 3.04l.27.25c.1.1.23.2.35.3.31.24.63.5.63.82 0 .5-.38.52-.57.47 0 .15.11.46.57.46.45 0 .67-.62.72-.93l1.85 1.18L26 29l.61.92-2 3.08h-1.29l-.72 5.03-1.6 1.33V41Zm5.3-16.72.7-.66V19h-2.86c-.12.19-.46.56-.87.56s-.75-.34-.87-.5c-.21.26-.7.81-1.03.81-.62 0-1.05-.85-1.19-1.28.72 0 1.19-.46 1.19-.77 0-.25-.65-.75-.98-.97-.43.27-1.39 1-1.39 1.69 0 1.18 1.34 2.77 2.06 2.77.57 0 .82-.65.87-.98l.88.2a2.57 2.57 0 0 1-.88 1.7c.13 1.1 3.42 3.98 5.07 5.28v-2.36l-.7-.87Zm3.45 0-.75-.66V19h2.9c.13.19.47.56.88.56.41 0 .76-.34.88-.5.2.26.7.81 1.02.81.62 0 1.05-.85 1.19-1.28-.72 0-1.19-.46-1.19-.77 0-.25.65-.75.98-.97.43.27 1.34 1 1.34 1.69 0 1.18-1.29 2.77-2 2.77-.58 0-.83-.65-.88-.98l-.88.2c.13.95.64 1.53.88 1.7-.13 1.1-3.47 3.98-5.12 5.28v-2.36l.75-.87Zm1 11.72c.3 0 .58.07.8.2.23.14.34.28.34.44 0 .07-.02.14-.08.2-.06.05-.15.08-.27.08a.38.38 0 0 1-.23-.07.43.43 0 0 1-.15-.22l-.04-.15a.38.38 0 0 0-.17-.23.97.97 0 0 0-1.06.25c-.2.2-.3.47-.3.82 0 .31.12.6.33.84.22.25.52.38.89.38.26 0 .49-.08.7-.22.1-.08.24-.2.38-.38l.11.05c-.14.25-.3.45-.45.6-.3.27-.66.41-1.06.41-.39 0-.74-.13-1.04-.38a1.3 1.3 0 0 1-.45-1.05c0-.43.16-.8.5-1.1.32-.32.74-.47 1.24-.47Zm-4.43 2.8c-.06.05-.16.1-.3.11V39h1.36v-.09c-.15 0-.25-.03-.32-.08-.07-.06-.1-.16-.1-.31v-1.78c.11-.12.2-.2.27-.25a.67.67 0 0 1 .38-.12c.18 0 .3.06.37.18.06.12.1.27.1.45v1.36c0 .22-.03.36-.1.42-.05.07-.16.11-.31.13V39H29v-.09c-.14 0-.24-.04-.3-.1-.06-.07-.1-.18-.1-.34V37c0-.42-.1-.7-.33-.87a.65.65 0 0 0-.39-.12.92.92 0 0 0-.5.16c-.11.06-.26.19-.45.37v-.51L26.9 36l-.3.1-.6.2v.11a2.4 2.4 0 0 1 .13-.01c.12 0 .2.04.24.12.03.05.04.15.04.29v1.61c0 .2-.03.32-.09.38ZM24 38.9c.22-.02.33-.06.4-.11.05-.06.08-.21.08-.46v-1.52a1 1 0 0 0-.03-.3c-.03-.08-.1-.12-.2-.12h-.06l-.19.06v-.1l.14-.05a10.73 10.73 0 0 0 .85-.31l.01.05v2.29c0 .24.03.4.08.45.06.06.19.1.39.12V39H24v-.09Zm0-4.4c0-.14.05-.26.14-.36.1-.1.22-.15.36-.15.14 0 .25.05.35.15.1.1.15.21.15.35 0 .14-.05.26-.15.36-.1.1-.21.14-.35.14a.49.49 0 0 1-.5-.5Z" fill="#020202"/></svg>