<?xml version='1.0' encoding='utf-8'?>
<!-- by TradeStack -->
<svg width="56" height="56" viewBox="0 0 56 56" xmlns="http://www.w3.org/2000/svg"><path fill="#F0F3FA" d="M0 0h56v56H0z" /><path d="M25.07 46.08a12.87 12.87 0 0 0 5.86 0c.23-.05.38-.08.47-.08.31 0 .6.17.6.49 0 1-2.69 1.51-4 1.51s-4-.52-4-1.51c0-.32.29-.49.6-.49.09 0 .24.03.47.08Zm-.74-3c.7.12 1.9.4 3.67.4 1.76 0 2.98-.28 3.67-.4.27-.05.47-.08.58-.08.4 0 .75.17.75.49 0 1-3.36 1.51-5 1.51-1.64 0-5-.52-5-1.51 0-.32.36-.49.75-.49.11 0 .3.03.58.08Z" fill="#E31C93" /><path fill-rule="evenodd" d="M28 38c-5.78 0-11.59-4.76-12-10.46.18-2.95 1.85-4.54 5.26-4.54 1.5 0 2.94.86 4.22 1.62l.37.22c.8.49 1.53.93 2.15.97a5.74 5.74 0 0 0 2.15-.97l.37-.22c1.28-.76 2.73-1.62 4.22-1.62 3.41 0 5.08 1.59 5.26 4.54C39.59 33.24 33.73 38 28 38Zm-6-9c0 1.1-.45 2-1 2s-1-.9-1-2 .45-2 1-2 1 .9 1 2Zm13 2c.55 0 1-.9 1-2s-.45-2-1-2-1 .9-1 2 .45 2 1 2Z" fill="#E31C93" /><path fill-rule="evenodd" d="M28 42a16 16 0 1 0 0-32 16 16 0 0 0 0 32Zm0-2a14 14 0 1 0 0-28 14 14 0 0 0 0 28Z" /></svg>