<?xml version='1.0' encoding='utf-8'?>
<!-- by TradeStack -->
<svg width="56" height="56" viewBox="0 0 56 56" xmlns="http://www.w3.org/2000/svg"><path fill="url(#ag3dt15fi)" d="M0 0h56v56H0z" /><path d="M34.32 14.3c.4-.4 1.07-.4 1.48 0l2.98 2.88a1 1 0 0 1 0 1.45L19.45 37.37l1.5 1.45 16.34-15.87c.4-.4 1.07-.4 1.48 0l2.98 2.89a1 1 0 0 1 0 1.44l-8.92 8.65c-.41.4-1.08.4-1.49 0a1 1 0 0 1 0-1.44l8.18-7.93-1.49-1.44-10.4 10.1 4.46 4.32 13.37-12.98-5.2-5.05a1 1 0 0 1 0-1.44c.41-.4 1.08-.4 1.49 0l5.94 5.77a1 1 0 0 1 0 1.44L32.83 41.7c-.41.4-1.08.4-1.49 0l-5.2-5.05-4.46 4.33c-.4.4-1.07.4-1.48 0l-2.97-2.88a1 1 0 0 1 0-1.45L36.55 17.9l-1.49-1.44L18.7 32.33c-.4.4-1.07.4-1.48 0l-2.98-2.89a1 1 0 0 1 0-1.44l8.18-7.93c.4-.4 1.07-.4 1.48 0a1 1 0 0 1 0 1.44l-7.43 7.21 1.49 1.44 9.66-9.37-4.46-4.33-12.63 12.26 5.2 5.05a1 1 0 0 1 0 1.44c-.41.4-1.08.4-1.49 0l-5.94-5.77a1 1 0 0 1 0-1.44l14.12-13.7c.4-.4 1.07-.4 1.48 0l5.2 5.05 5.2-5.05Z" fill="url(#bg3dt15fi)" /><defs><linearGradient id="ag3dt15fi" x1="10.42" y1="9.71" x2="68.15" y2="76.02" gradientUnits="userSpaceOnUse"><stop stop-color="#1A1E21" /><stop offset="1" stop-color="#06060A" /></linearGradient><linearGradient id="bg3dt15fi" x1="42.12" y1="25.48" x2="8.34" y2="29.68" gradientUnits="userSpaceOnUse"><stop stop-color="#B67334" /><stop offset="1" stop-color="#BF9D4F" /></linearGradient></defs></svg>