<!-- by TradeStack --><svg width="56" height="56" viewBox="0 0 56 56" xmlns="http://www.w3.org/2000/svg"><path fill="#F0F3FA" d="M0 0h56v56H0z"/><path d="M36.98 28A9.45 9.45 0 0 0 38 23.71C38 18.35 33.52 14 28 14s-10 4.35-10 9.71c0 1.32.27 2.58.76 3.73.53.22 1.93.5 3.3.12 1.98-.54 6.86-.48 9.27 0 1.84.36 4.43.44 5.65.44Z" fill="#FAAD1A"/><path d="M10 32.35V34c2.07-1.25 7.95-3.76 14.93-3.76 6.97 0 16.95 2.31 21.07 3.46v-2.63C42.8 30.04 34.72 28 28.1 28c-10.24 0-16.33 2.9-18.1 4.35Z" fill="#005285"/><path d="M10 35.08v.84a22.72 22.72 0 0 1 10.33-2.57c5.89 0 10.57 1.73 15.62 3.76A518.3 518.3 0 0 0 46 41v-5.92C41.21 33.72 30.08 31 23.83 31A27.13 27.13 0 0 0 10 35.08Z" fill="#0BA4DE"/></svg>