<!-- by TradeStack --><svg viewBox="0 0 56 56" xmlns="http://www.w3.org/2000/svg"><path fill="#F0F3FA" d="M0 0h56v56H0z"/><path fill-rule="evenodd" d="M10 25v-4h2v-1H7v1h2v4h1Zm4.88-5H13v5h1v-2h.8l1.06 2H17v-.05l-1.21-2.2c.11-.06.22-.13.31-.22.33-.29.45-.73.45-1.2 0-.52-.37-.97-.78-1.16a2.1 2.1 0 0 0-.89-.17ZM14 22h.88c.41 0 .6-.13.6-.55 0-.32-.32-.45-.6-.45H14v1Zm7.86-2H20v5h1v-2h1.24c.63 0 1.26-.65 1.26-1.66 0-.53-.36-.98-.77-1.17a2.05 2.05 0 0 0-.87-.17ZM21 22h.86c.35 0 .6-.13.6-.55 0-.34-.35-.45-.6-.45H21v1Zm22.57 0v-.7H43V20l-1 .53v.77h-.5v.7h.5v1.88c0 .26 0 .48.1.64.09.17.22.29.39.36.17.08.38.12.62.12a2 2 0 0 0 .64-.1v-.63c-.28.05-.75.02-.75-.35V22h.57Zm1.96 2.57L44 21h1.14l.87 2.34.86-2.34H48l-1.73 4.1-.16.29a1.25 1.25 0 0 1-.64.52 1.77 1.77 0 0 1-1.05.03v-.65h.09a1.66 1.66 0 0 0 .48-.04c.1-.03.18-.08.24-.14a.76.76 0 0 0 .16-.25l.14-.3Zm-8.65.43c-.3 0-.55-.05-.79-.14a1.73 1.73 0 0 1-.96-1 2.04 2.04 0 0 1-.13-.73V23c0-.3.04-.56.12-.8.08-.25.2-.46.35-.63.16-.18.34-.32.56-.41.22-.1.47-.15.74-.15s.5.05.71.14c.21.09.38.21.52.38.15.17.25.37.32.6.08.23.11.49.11.77v.43h-2.41l.05.24c.05.13.1.24.19.34.35.4.9.43 1.23 0l.94.18-.06.1c-.1.15-.24.37-.35.46a1.72 1.72 0 0 1-1.14.36Zm-.85-2.37h1.41v-.08a.9.9 0 0 0-.07-.38.6.6 0 0 0-.23-.27.68.68 0 0 0-.38-.1.63.63 0 0 0-.34.1.68.68 0 0 0-.24.24 1.38 1.38 0 0 0-.15.5Zm-4.06-1.22c.24-.26.69-.41 1.03-.41.83 0 1.5.73 1.5 1.8v.07c0 1.04-.67 2.13-1.5 2.13-.35 0-.72-.14-1-.39V26h-1v-5h.94l.03.4Zm.03 1.8c.01.48.14.92.76.92.39 0 .74-.73.74-1.26v-.07c0-.55-.38-.94-.75-.94-.71 0-.75.56-.75 1.14v.22Zm-5.5-.17v-.08c0-.28.04-.54.13-.78s.21-.44.38-.62.38-.31.63-.41c.25-.1.53-.15.86-.15.32 0 .61.05.86.15a1.72 1.72 0 0 1 1.01 1.03c.09.24.13.5.13.78v.08c0 .28-.04.54-.13.78a1.73 1.73 0 0 1-1 1.03c-.26.1-.54.15-.87.15-.32 0-.6-.05-.86-.15a1.72 1.72 0 0 1-1.01-1.03c-.09-.24-.13-.5-.13-.78Zm1-.08v.08c0 .48.3 1.2 1 1.2.71 0 1-.74 1-1.2v-.08c0-.47-.2-1.2-1-1.2s-1 .73-1 1.2ZM25 25v-2.69c.14-.2.42-.35.94-.31l.39-.77c-.07-.08-.28-.23-.66-.23-.26 0-.55.24-.77.47l-.09-.47H24v4h1Zm15-2.69V25h-1v-4h.81l.1.47c.2-.23.5-.47.76-.47.38 0 .6.15.66.23l-.39.77c-.52-.04-.8.11-.94.31ZM22 35v4h-1v-4h-2v-1h5v1h-2Zm2 0h.81l.1.47c.2-.23.5-.47.76-.47.38 0 .6.15.66.23l-.39.77c-.52-.04-.8.12-.94.31V39h-1v-4Zm12.52 1v-.73H36V34l-1 .53v.74h-.55V36H35v1.88c0 .53.1.85.43 1 .17.08.38.12.63.12a2 2 0 0 0 .63-.1v-.63c-.28.05-.69.02-.69-.35V36h.52Zm-7.86 2.87c.15-.09.29-.2.4-.36l.07.49H30v-4h-1v2.92a.6.6 0 0 1-.51.26c-.37 0-.49-.15-.49-.67V35h-1v2.5c0 .28.03.51.08.7.05.2.13.35.22.47.1.11.22.2.35.25.14.05.28.08.45.08.2 0 .39-.04.56-.13Zm4.14-1.03a.24.24 0 0 0-.07-.17.57.57 0 0 0-.23-.13 3.34 3.34 0 0 0-.48-.13c-.2-.04-.37-.1-.55-.16a1.9 1.9 0 0 1-.44-.24.93.93 0 0 1-.4-.79c0-.16.03-.32.1-.46.07-.15.18-.28.32-.4.14-.1.31-.2.52-.26.2-.07.43-.1.7-.1.35 0 .66.05.92.16.26.1.46.25.6.44.14.19.21.4.21.65h-1.24c0-.1-.02-.18-.05-.24a.32.32 0 0 0-.16-.16.64.64 0 0 0-.3-.06.58.58 0 0 0-.23.05.42.42 0 0 0-.16.13.3.3 0 0 0-.07.19c0 .05.02.1.04.14l.12.12.2.09.31.07c.27.05.52.11.75.2.23.09.42.22.57.38.14.16.22.38.22.65 0 .17-.04.33-.13.47-.08.15-.2.27-.34.38-.16.1-.34.2-.55.25a2.69 2.69 0 0 1-1.69-.1c-.26-.14-.46-.3-.6-.5-.12-.2-.19-.41-.19-.62h1.15c0 .12.04.22.1.3a.5.5 0 0 0 .22.16c.09.04.2.05.32.05.11 0 .2-.01.28-.04a.4.4 0 0 0 .17-.13.32.32 0 0 0 .06-.19ZM11 27h-1v5h1v-5Zm18.46 1.27V29H29v1.92c0 .37.3.4.58.35v.63c-.13.05-.3.1-.43.1-.48 0-.84-.15-1.02-.48a1.34 1.34 0 0 1-.13-.64V29h-.46v-.73H28v-.74l1-.53v1.27h.46ZM13 29.09V32h-1v-4h.87l.07.49c.11-.16.25-.27.4-.36.17-.09.36-.13.56-.13.17 0 .31.03.45.08.13.05.25.14.35.25.1.12.17.27.22.46.05.2.08.43.08.7V32h-1v-2.5c0-.53-.12-.68-.49-.68a.6.6 0 0 0-.51.27ZM16.84 32H17.93l1.42-4h-1.17l-.8 2.72L16.6 28h-1.18l1.42 4Zm8.96-1.16a.24.24 0 0 0-.07-.17.57.57 0 0 0-.23-.13 3.34 3.34 0 0 0-.48-.13c-.2-.04-.37-.1-.55-.16a1.9 1.9 0 0 1-.44-.24.93.93 0 0 1-.4-.79c0-.16.03-.32.1-.46.07-.15.18-.28.32-.4.14-.1.31-.2.52-.26.2-.07.43-.1.7-.1.35 0 .66.05.92.16.26.1.46.25.6.44.14.19.21.4.21.65h-1.24c0-.1-.02-.18-.05-.24a.32.32 0 0 0-.16-.16.64.64 0 0 0-.3-.06.58.58 0 0 0-.23.05.42.42 0 0 0-.16.13.3.3 0 0 0-.07.19c0 .05.02.1.04.14l.12.12.2.09.31.07c.27.05.52.11.75.2.23.09.42.22.57.38.14.16.22.38.22.65 0 .17-.04.33-.13.47-.08.15-.2.27-.34.38-.16.1-.34.2-.55.25a2.69 2.69 0 0 1-1.69-.1c-.26-.14-.46-.3-.6-.5-.12-.2-.19-.41-.19-.62h1.15c0 .12.04.22.1.3a.5.5 0 0 0 .22.16c.09.04.2.05.32.05.11 0 .2-.01.28-.04a.4.4 0 0 0 .17-.13.32.32 0 0 0 .06-.19ZM41 32v-2.91a.6.6 0 0 1 .51-.27c.37 0 .49.15.49.67V32h1v-2.5c0-.28-.03-.51-.08-.7-.05-.2-.13-.35-.22-.47a.85.85 0 0 0-.35-.25 1.2 1.2 0 0 0-.45-.08 1.16 1.16 0 0 0-.96.49l-.07-.49H40v4h1Zm-10 0v-2.81c.12-.23.3-.37.56-.37.35 0 .44.15.44.67V32h1v-2.5c0-.16 0-.3-.02-.43a.67.67 0 0 1 .18-.17c.1-.05.2-.08.33-.08.37 0 .51.15.51.67V32h1v-2.5c0-.28-.03-.51-.08-.7-.05-.2-.13-.35-.23-.47a.86.86 0 0 0-.35-.25 1.24 1.24 0 0 0-.45-.08 1.2 1.2 0 0 0-1.04.57 1 1 0 0 0-.15-.24.83.83 0 0 0-.33-.25 1.14 1.14 0 0 0-.43-.08c-.2 0-.38.04-.55.13a1.21 1.21 0 0 0-.46.46l-.12-.59H30v4h1Zm-9.58 0c-.3 0-.57-.05-.8-.14a1.76 1.76 0 0 1-1.12-1.73V30c0-.3.04-.56.12-.8.09-.25.2-.46.36-.63.16-.18.35-.32.57-.41.22-.1.48-.15.76-.15.27 0 .51.05.72.14.21.09.39.21.53.38.15.17.26.37.33.6.07.23.11.49.11.77v.43h-2.46l.05.24c.05.13.11.24.2.34.35.4.9.43 1.25 0l.96.18-.06.1c-.1.15-.25.37-.36.46-.13.1-.3.2-.5.26-.19.07-.41.1-.66.1Zm.57-2.37h-1.44l.02-.11c.03-.15.08-.27.14-.38.06-.1.14-.19.24-.25.1-.06.2-.09.34-.09a.7.7 0 0 1 .4.1c.1.07.17.16.22.27.06.11.08.24.08.38v.08Zm14.62 2.23c.24.1.51.14.8.14.26 0 .48-.03.67-.1.2-.07.37-.16.5-.26.11-.09.26-.31.36-.46l.06-.1-.96-.18c-.34.43-.9.4-1.26 0a1.04 1.04 0 0 1-.24-.58H39v-.43c0-.28-.04-.54-.11-.77a1.66 1.66 0 0 0-.33-.6c-.14-.17-.32-.3-.53-.38a1.83 1.83 0 0 0-.72-.14c-.28 0-.54.05-.76.15-.22.1-.41.23-.57.4-.15.18-.27.4-.36.64-.08.24-.12.5-.12.8v.14c0 .26.04.5.13.73a1.76 1.76 0 0 0 .98 1Zm-.06-2.23H38v-.08a.89.89 0 0 0-.08-.38.6.6 0 0 0-.22-.27.7.7 0 0 0-.4-.1.66.66 0 0 0-.34.1.69.69 0 0 0-.24.24 1.36 1.36 0 0 0-.16.5Zm9.06-1.36V29H45v1.92c0 .37.5.4.79.35v.63a1.85 1.85 0 0 1-.64.1c-.24 0-.45-.04-.63-.12a.81.81 0 0 1-.39-.36 1.34 1.34 0 0 1-.13-.64V29h-.46v-.73H44v-.74l1-.53v1.27h.61Z" fill="#3394CD"/></svg>