<!-- by TradeStack --><svg width="56" height="56" viewBox="0 0 56 56" xmlns="http://www.w3.org/2000/svg"><path fill="#5BC2E7" d="M0 0h56v56H0z"/><path d="M18.08 37.74c.37-3.72 2.32-9.45 2.32-9.45S19 26.84 13 23.72c.59-.3 6.22-2.38 11.45-2.68 4.05-3.98 8.06-7.63 12.3-9.04-7 4.98-9.72 10.27-9.72 10.27-6.52.37-9.76 1.74-9.76 1.74s4.09 1.94 6.3 3.76a61.63 61.63 0 0 0-5.49 9.97Zm14.54-16.22s6.3.52 11.38 2.6A39.28 39.28 0 0 0 34.17 29c.59 1.93 2.2 10.56 2.2 10.56s-7.32-4.83-8.9-5.76c-6.7 4.08-9.6 7.24-11.53 9.34l-.8.86c4.5-7.36 9.5-12.36 12.37-13.44 2.13 1.3 5.15 3.8 6.14 4.72a58.79 58.79 0 0 0-2.1-7.1c2.58-2.05 7.22-3.83 7.22-3.83s-3.13-1.04-7.7-1.41c.2-2.09 1.3-4.88 1.88-6.18-.47 3.13-.33 4.76-.33 4.76Z" fill="#fff"/></svg>