<?xml version='1.0' encoding='utf-8'?>
<!-- by TradeStack -->
<svg width="56" height="56" viewBox="0 0 56 56" xmlns="http://www.w3.org/2000/svg"><path fill="#F0F3FA" d="M0 0h56v56H0z" /><path fill-rule="evenodd" d="M6.14 24H4v1.3h2.14V32h1.72v-6.7H10V24H6.14Zm43.16 0H51v8h-1.7v-8Zm-33.55 2.25c0-.75-.53-2.25-2.73-2.25-2.76 0-2.9 2.1-2.9 2.45 0 .35.02 1.42 1.63 1.81 1.62.4 2.51.9 2.51 1.6 0 .7-.65 1.05-1.31 1.05s-1.35-.57-1.35-1.3h-1.57c-.15.8.23 2.39 2.92 2.39 2.68 0 3.14-1.73 3.04-2.6a1.93 1.93 0 0 0-1.38-1.63 12.92 12.92 0 0 1-2.38-.86c-.2-.15-.48-.35-.48-.8 0-.5.48-.91 1.16-.91.69 0 1.15.35 1.15 1.05h1.69Zm.25 2.73V24h1.8v5.06c0 .89.72 1.72 1.62 1.72h.23c.9 0 1.63-.83 1.63-1.72V24H23v4.98A3.04 3.04 0 0 1 19.95 32h-.9A3.04 3.04 0 0 1 16 28.98Zm14.5-2.63-.25-.79c-.03-.15-.43-1.56-2.83-1.56s-3.92 1.46-3.92 4.17S25.15 32 27.42 32c1.81 0 2.8-.26 3.08-.39v-3.95h-3.2V29h1.4v1.68c-.1.04-.38.13-1.28.13-1.12 0-2.1-.68-2.1-2.89 0-2.2 1.11-2.72 2.1-2.72s1.33.82 1.32 1.15h1.76Zm.2 5.65h1.72l.6-1.7h3.5l.6 1.7H39l-3.2-8h-1.92l-3.18 8Zm5.37-3-1.3-3.7-1.3 3.7h2.6Zm4.16-5H39v8h1.57v-6.24L42.7 32H44.16l2.15-6.28V32H48v-8h-2.7l-1.87 5.72L41.57 24h-1.34Z" fill="#184185" /></svg>