<?xml version='1.0' encoding='utf-8'?>
<!-- by TradeStack -->
<svg width="56" height="56" viewBox="0 0 56 56" xmlns="http://www.w3.org/2000/svg"><path fill="#F0F3FA" d="M0 0h56v56H0z" /><path d="M16.41 23.03V27l-.03.01H15l-.01-.03v-6.53c0-.02 0-.03.02-.04l1.36-.4a.02.02 0 0 1 .02 0v.01l.01.01v1.96a181.56 181.56 0 0 0 2.34.02c.25 0 .43.02.55.06.5.2.7.73.7 1.3a2178.1 2178.1 0 0 0-.03 3.64h-1.35l-.02-.01-.01-.02V23.4c0-.33-.2-.41-.48-.41h-1.67c-.02 0-.03.01-.03.03Zm14 9V36l-.03.01H29l-.01-.03v-6.53c0-.02 0-.03.02-.04l1.36-.4a.02.02 0 0 1 .02 0v.01l.01.01v1.96a181.56 181.56 0 0 0 2.34.02c.25 0 .43.02.55.06.5.2.7.73.7 1.3a2178.1 2178.1 0 0 0-.03 3.64h-1.35l-.02-.01-.01-.02V32.4c0-.33-.2-.41-.48-.41h-1.67c-.02 0-.03.01-.03.03Zm-7.94-10.75h-1.44a.03.03 0 0 1-.03-.03v-.84l.02-.01 1.45-.4c.02 0 .03.02.03.03v1.22c0 .01-.01.03-.03.03Zm14 9h-1.44l-.02-.01-.01-.02v-.84l.02-.01 1.45-.4c.02 0 .03.01.03.03v1.22c0 .01-.01.03-.03.03ZM24.53 26h1.94c.38 0 .53-.19.53-.52v-2.04c0-.3-.16-.44-.47-.44a101.61 101.61 0 0 0-1.52-.01.03.03 0 0 1 0-.03l.3-.93c0-.02.02-.03.04-.03h1.64c.84 0 1.52.4 1.51 1.34v2.21c0 .24-.01.43-.04.56-.1.4-.48.75-.93.85-.11.03-.28.04-.5.04a1263.28 1263.28 0 0 0-4.02-.01l-.01-.02V20.4c0-.01 0-.02.02-.02l1.45-.39h.01l.02.02v5.95c0 .02.01.03.03.03Zm-2.06-4h-1.44c-.02 0-.03 0-.03.02v4.96c0 .01.01.02.03.02h1.44c.02 0 .03 0 .03-.02v-4.96c0-.01-.01-.02-.03-.02Zm-13.74.46c0 .24.02.38.3.4l3.89.18c.6.02 1.06.4 1.07 1.04v1.59c0 .26-.02.49-.16.72-.16.26-.38.44-.66.55-.12.04-.32.06-.59.06H8.21c-.6 0-1.15-.5-1.2-1.1a4.93 4.93 0 0 1 .02-.63l1.5-.42a.04.04 0 0 1 .04 0 .04.04 0 0 1 .02.04l.02.82c.01.17.1.29.29.29h2.73c.4 0 .73-.01.75-.52l-.01-1.08c-.01-.13-.08-.2-.22-.21a603.17 603.17 0 0 1-4.18-.24c-.56-.04-.95-.34-.95-.94v-1.74c0-.61.38-1.1.98-1.24.1-.02.34-.03.71-.03h3.62c.44 0 .73.02.87.08.4.17.66.46.76.86a2.56 2.56 0 0 1 .02.76l-.02.01-1.51.44h-.02a.03.03 0 0 1-.03-.03c0-.23 0-.64-.03-.85-.02-.19-.16-.27-.34-.27H8.98c-.19 0-.24.17-.25.34v1.12ZM36.47 31h-1.44c-.02 0-.03 0-.03.02v4.96c0 .01.01.02.03.02h1.44c.02 0 .03-.01.03-.02v-4.96c0-.01-.01-.02-.03-.02ZM9.5 30.41l.09 5.55c0 .03-.02.04-.04.04H8v-6.96c0-.03.01-.05.04-.05h2.38c.03 0 .05.02.06.05l1.48 4.82c0 .03.02.03.03 0l1.53-4.83a.05.05 0 0 1 .05-.04h2.39a.04.04 0 0 1 .04.03v6.97h-.03L14.5 36v-5.57l-1.82 5.54c0 .02-.02.03-.03.03h-1.37c-.02 0-.02 0-.03-.02L9.5 30.41ZM44.64 22l-.33 1H43.2c-.45 0-.73.04-.73.41v3.55c0 .03-.02.04-.04.04h-1.39a.03.03 0 0 1-.03-.03v-3.59c0-.7.37-1.38 1.16-1.38h2.48Zm-8.14 3.6c0 .3.19.4.43.4a115.4 115.4 0 0 0 1.27-.02c.31-.04.3-.29.3-.6a3438.28 3438.28 0 0 0 .02-3.38h1.45c.02 0 .03.01.03.03v3.73c0 .52-.24 1-.7 1.18-.12.04-.35.06-.69.06H36.1c-.74 0-1.1-.57-1.1-1.3v-3.66c0-.03.01-.04.04-.04h1.45l.01.03v3.58ZM24.95 32c-.25 0-.45.1-.45.38v2.22c0 .3.18.4.44.4a875.46 875.46 0 0 0 3.05.01v.96c0 .02 0 .03-.03.03H24.2c-.19 0-.34-.02-.46-.06a1.1 1.1 0 0 1-.7-.87 2.38 2.38 0 0 1-.04-.45v-2.28c0-.71.35-1.34 1.13-1.34h3.84c.02 0 .03.01.03.03v.94a.03.03 0 0 1-.03.03h-3.02Zm14.57 0h-.01v.02l-.01 3.95c0 .02 0 .03-.03.03h-1.46l-.01-.02v-4.97l.01-.01h3.8c.7 0 1.19.46 1.19 1.18a1202.88 1202.88 0 0 1-.02 3.82h-1.45c-.02 0-.03-.01-.03-.03v-3.46c0-.36-.09-.5-.43-.51h-1.55Z" fill="#004C8D" /><path fill-rule="evenodd" d="M32.57 23.37v.6c0 .02 0 .03-.03.03H29.6c-.4 0-.6.17-.6.61v1c0 .25.02.45.06.59.14.47.54.8 1.02.8h3.91v-3.74c0-.5-.21-1.02-.68-1.2a1.66 1.66 0 0 0-.55-.06 329.95 329.95 0 0 1-2.8 0l-.01.03-.25.93c0 .02 0 .04.02.04h2.46c.25 0 .38.12.4.37Zm0 2.6V25h-2.05c-.06 0-.09.03-.09.1-.01.2-.01.4 0 .56.04.3.28.34.51.34a473.23 473.23 0 0 1 1.63 0v-.02Zm-12 6.4v.6c0 .02 0 .03-.03.03H17.6c-.4 0-.6.17-.6.61v1c0 .25.02.45.06.59.14.47.54.8 1.02.8h3.91v-3.74c0-.5-.21-1.02-.68-1.2a1.66 1.66 0 0 0-.55-.06 329.95 329.95 0 0 1-2.8 0l-.01.03-.25.93c0 .02 0 .04.02.04h2.46c.25 0 .38.12.4.37Zm0 2.6V34h-2.05c-.06 0-.09.03-.09.1-.01.2-.01.4 0 .56.04.3.28.34.51.34a473.23 473.23 0 0 1 1.63 0v-.02Zm27-11.6v.6c0 .02 0 .03-.03.03H44.6c-.4 0-.6.17-.6.61v1c0 .25.02.45.06.59.14.47.54.8 1.02.8h3.91v-3.74c0-.5-.21-1.02-.68-1.2a1.66 1.66 0 0 0-.55-.06 329.95 329.95 0 0 1-2.8 0l-.01.03-.25.93c0 .02 0 .04.02.04h2.46c.25 0 .38.12.4.37Zm0 2.6V25h-2.05c-.06 0-.09.03-.09.1-.01.2-.01.4 0 .56.04.3.28.34.51.34a473.23 473.23 0 0 1 1.63 0v-.02Zm-2.07 8.6-.01-.53c0-.02.01-.04.03-.04h3.17c.16 0 .3-.08.3-.28v-1.46c0-.71-.36-1.26-1.06-1.26H45.4c-.85 0-1.4.39-1.39 1.33v2.44c0 .72.43 1.23 1.1 1.23a801.51 801.51 0 0 1 3.5-.02l.25-.95c0-.02-.01-.03-.02-.03h-2.85c-.27 0-.49-.09-.49-.43Zm0-2.28a9.08 9.08 0 0 0 .01.71h1.89c.05 0 .1-.05.1-.11v-.52c-.01-.28-.18-.37-.4-.37h-1.26c-.22 0-.33.1-.34.29Z" fill="#004C8D" /></svg>