<?xml version='1.0' encoding='utf-8'?>
<!-- by TradeStack -->
<svg width="56" height="56" viewBox="0 0 56 56" xmlns="http://www.w3.org/2000/svg"><path fill="#F0F3FA" d="M0 0h56v56H0z" /><path fill-rule="evenodd" d="M17.67 16 12 22h9.35s-3.86 4.05-5.8 6h4.3l-5.95 6h5.08s-4.22 3.98-6.32 6h8.69l5.87-6h-.63l5.75-6h-1.19l-5.77 6h-.59l5.75-6h-.7l5.75-6h.99l5.74-6h-1.18l-5.78 6h-.59l5.75-6h-1.19l-5.77 6h-.7l5.83-6H17.67Zm11.68 12-5.77 6h-.91l6.13-6h.55Zm3.16-6h-.62l-5.75 6h.6l5.77-6Zm-4.57 6h.7l5.77-6h-.72l-5.75 6Zm-3 0 5.76-6h-.58l-5.84 6h.65Zm13.54-6h-1.21l5.77-6h1.18l-5.74 6Zm.56 0h1.21L46 16H44.8l-5.77 6ZM27.28 34h.76l-5.9 6h1.24l5.87-6h-.76l5.75-6h-1.18l-5.78 6Zm-3.3 6h1.24l5.87-6h-1.2l-5.9 6Zm3.18 0h-1.23l5.9-6h1.2l-5.87 6Z" fill="#09F" /></svg>