<?xml version='1.0' encoding='utf-8'?>
<!-- by TradeStack -->
<svg width="56" height="56" viewBox="0 0 56 56" xmlns="http://www.w3.org/2000/svg"><path fill="#F0F3FA" d="M0 0h56v56H0z" /><path d="M11.03 25.37a4 4 0 1 0 0 5.66L8.2 28.2l2.83-2.83Z" fill="#1F3580" /><path d="M12.4 24H4v8.4h8.4v-.2H4.2v-8h8.2V24Z" fill="#1F3580" /><path d="m8.2 28.2 4 4v-.5l-3.5-3.5 3.5-3.5v-.5l-4 4Z" fill="#D97468" /><path d="m9.2 28.2 3-3v.5l-2.5 2.5 2.5 2.5v.5l-3-3Z" fill="#D97468" /><path d="m10.2 28.2 2-2v.5l-1.5 1.5 1.5 1.5v.5l-2-2Z" fill="#D97468" /><path fill="#203682" d="M13 24h38v1H13zM13 31h38v1H13zM13 27v-1h5v1h-1.5v3h-2v-3H13ZM24 26h-5v4h5v-1h-3v-.5h3v-1h-3V27h3v-1ZM44 26h-5v4h5v-1h-3v-.5h3v-1h-3V27h3v-1ZM32.5 26H31v4h1v-1.5l1 1.5h2l1-1.5V30h2v-4h-2.5L34 28l-1.5-2ZM51 26v1.5h-2V27h-2v2h2v-.5h2V30h-6v-4h6ZM25 26h5v1h-3v.5h3V30h-5v-1h3v-.5h-3V26Z" /></svg>