<!-- by TradeStack --><svg width="56" height="56" viewBox="0 0 56 56" xmlns="http://www.w3.org/2000/svg"><path fill="#F0F3FA" d="M0 0h56v56H0z"/><path d="M15 22H6v2h3v10h2V24h3.14l.86-2Zm-.15 4.38c.1.62.15 1.26.15 1.89V34h2v-5.12c0-.37-.02-.74-.05-1.1.28-.53.86-.78 1.18-.84h.96c.14-.47.44-1.51.51-1.84-1.6 0-2.55.51-2.96.9l-.05-.18-.23-.82-1.65.58.14.8ZM21 25.7l2-.7v9h-2v-8.3Z" fill="#3B235F"/><circle cx="22" cy="23" r="1" fill="#3B235F"/><path d="M46 25.25v6.99c0 .97.65 1.76 1.44 1.76h2.09l.47-1.63h-1.56c-.24 0-.44-.24-.44-.54v-6.37a8.5 8.5 0 0 0-.56-3.46l-1.94.5c.13.89.5 1.84.5 2.75Z" fill="#3B235F"/><path d="M28.74 25H37l-.95 2h-7.44c-.68 0-1.11.14-1.11.6 0 .45.46.7 1.8.9 1.34.21 2.7.95 2.7 2.84 0 2.1-2.19 2.65-3.39 2.66H24l.88-2h4c.84 0 1.12-.07 1.12-.66 0-.6-.05-.8-1.58-1.23-1.54-.42-2.92-.77-2.92-2.52 0-2.07 2.14-2.59 3.24-2.59Z" fill="#00A794"/><path d="M33 25.7v-.45c0-.9-.37-1.86-.5-2.75l1.94-.5a8.5 8.5 0 0 1 .56 3.46v.23h-2Zm0 2.23v4.3c0 .98.65 1.77 1.44 1.77h2.09l.47-1.63h-1.56c-.24 0-.44-.24-.44-.54v-4.61c-.68.23-1.56.53-2 .7Zm11.72 4.41L44.13 34h-2.87c-1.42.05-4.26-.77-4.26-4.52C37 26.1 39.56 25 41.12 25s3.88.62 3.88 5h-5.82c-.01.71.45 2.34 2.36 2.34h3.18Zm-5.45-3.93h3.78a1.9 1.9 0 0 0-3.78 0Z" fill="#3B235F"/></svg>