<!-- by TradeStack --><svg width="56" height="56" viewBox="0 0 56 56" xmlns="http://www.w3.org/2000/svg"><path fill="#F0F3FA" d="M0 0h56v56H0z"/><path d="M10 36h16v1H10v-1Z" fill="#263B83"/><path d="M41.97 29.74c1 .73 2.52 1.2 2.6 1.03.03-.05-.07-.11-.22-.22a3.08 3.08 0 0 1-1.34-1.78 2.03 2.03 0 0 1-.05-.37c-.02-.2-.04-.4-.17-.6-.05-.1-.12-.15-.19-.2a.8.8 0 0 1-.19-.2.76.76 0 0 1-.1-.29c-.01-.1-.03-.2-.1-.3-.27-.34-1.06-.63-1.57-.45-.37.13-.94.54-.73.72.06.05.16-.02.29-.12.19-.14.45-.33.76-.29l.33.03c.28.01.52.02.75.26.18.18.2.38.21.6.02.15.03.3.09.46.08.23.1.38.12.61v.04l.02.16c.03.16.05.32 0 .33-.11.02-.16-.06-.23-.19a1.24 1.24 0 0 0-.4-.46c-.54-.35-1.4-.54-1.46-.46-.12.1.6.99 1.58 1.69Zm-3.35-6.94v-.08c.02-.3-.02-.81-.13-.75-.1-.03-.37 1.16-.19 1.26l.1.04c.2.03.2-.24.22-.47Zm5.1 5.07c1.18 1.37 2.05 2.38 3.49 3.99.5.57.98 1.13.71 1.86-.2.55-.39.75-1.16.93-.21.04-.36.16-.52.27-.17.14-.34.27-.6.3-.43.07-.7 0-1.1-.16-.22-.09-.36-.2-.5-.33a1.82 1.82 0 0 0-.45-.3c-.33-.16-.56-.2-.89-.27l-.12-.02c-.2-.04-.36-.04-.52-.04a1.88 1.88 0 0 1-.93-.2c-.1-.05-.18-.09-.3-.12-.27-.08-.42-.11-.7-.13-.36-.03-1.1.4-1.22.88L38.48 36h-4.2A5.65 5.65 0 0 0 30 34.15c.28-.6.58-1.1.89-1.6.65-1.07 1.3-2.13 1.64-4.13.15-.87.42-1.3.76-1.84a21.2 21.2 0 0 0 .28-.45l.15-.27c.15-.34.11-.58.07-.86a2.4 2.4 0 0 1 0-.94 11.6 11.6 0 0 1 1.67-4.19c.2-.29.4-.56.56-.98.2-.52.27-.84.33-1.39.05-.2.22-.3.48-.28-.1-.82-.24-1.33-.47-2.15l-.11-.43c-.38-1.38-.84-3.43-.56-3.64.1-.03.18.25.31.68l.24.71c.14.39.32.82.5 1.24l.46 1.18c.33.93.5 1.41.78 2.33.2.02.32.09.34.2v.74c-.02.18-.03.35.02.58.1.5.47 1.26.58 1.16.08-.02.05-.14-.01-.46-.13-.55-.38-1.7-.43-4-.02-.7-.1-1.56-.18-2.33-.11-1.08-.2-1.98-.06-2 .16-.1.37.64.57 1.32l.15.52a17.57 17.57 0 0 1 .65 4.15c.04.75.07 1.4.38 2.24l.12.38c.1.36.21.71.36.68.13.05.7-.65 1.09-1.49.16-.35.3-.74.41-1.06.15-.42.25-.72.34-.7.21 0 .14 1.25-.07 1.99-.1.31-.33.7-.5.98-.12.2-.2.34-.16.33.14.16.55-.3.79-.62.15-.2.2-.39.25-.59.04-.16.09-.33.2-.51.26-.46.69-1.16.88-1.03.26-.01-.49 2.63-1.63 3.67l-.32.29c-.33.27-.6.49-.82 1-.55 1.23.8 2.97 1.95 4.3l.84.99ZM35 37a12.07 12.07 0 0 1 1.41 5 50.62 50.62 0 0 0 1.76-5h-3.17Z" fill="#969793"/><path d="M12.95 29.19c.04.1.07.2.09.31a2 2 0 0 1 .03.33h.88c0-.58-.11-1.04-.33-1.35-.22-.32-.59-.48-1.09-.48-.3 0-.54.06-.73.19-.2.12-.36.3-.47.55-.12.25-.2.56-.26.92a15.11 15.11 0 0 0-.02 2.61c.04.39.1.7.2.97.1.26.24.45.42.57.17.13.4.19.68.19.22 0 .4-.05.56-.14.16-.1.29-.26.4-.49h.01V34H14v-3h-1.49v.65h.6v.59c0 .3-.08.7-.38.87a.37.37 0 0 1-.18.05.4.4 0 0 1-.32-.15c-.08-.11-.15-.26-.2-.46-.04-.2-.07-.44-.09-.72l-.02-.94c0-.72.05-1.24.15-1.56.1-.31.25-.47.47-.47.1 0 .18.03.24.1.07.06.12.13.17.23Zm2.55 3.48c-.05-.17-.08-.39-.09-.66a19.35 19.35 0 0 1 0-1.99c.01-.27.04-.5.09-.66.04-.18.1-.3.18-.38a.44.44 0 0 1 .32-.12c.13 0 .24.04.32.12.08.08.14.2.18.38.05.17.08.4.09.66a19.1 19.1 0 0 1 0 1.99c-.01.27-.04.5-.09.66-.04.17-.1.3-.18.38a.44.44 0 0 1-.32.11.44.44 0 0 1-.32-.11.78.78 0 0 1-.18-.38Zm-.75-3.83c-.1.27-.17.59-.2.96a14.68 14.68 0 0 0 0 2.43c.03.37.1.68.2.95.1.27.26.47.45.6.2.15.47.22.8.22.33 0 .6-.07.8-.21.2-.14.35-.34.45-.61.1-.27.17-.58.2-.95a14.64 14.64 0 0 0 0-2.43c-.03-.37-.1-.69-.2-.96a1.4 1.4 0 0 0-.45-.62A1.3 1.3 0 0 0 16 28c-.33 0-.6.07-.8.22-.2.15-.35.36-.45.62Zm3.25-.76h.9v5h1.61v.99H18v-5.99ZM22.71 33c-.1.07-.23.1-.39.1h-.4v-4.2h.38c.18 0 .32.03.42.12.1.09.18.22.23.39.06.17.1.38.1.64a13.94 13.94 0 0 1 0 1.92c-.01.28-.05.5-.1.67a.73.73 0 0 1-.24.36Zm.56-4.8c-.2-.13-.45-.2-.77-.2H21v6h1.44c.3 0 .56-.06.76-.19.2-.12.36-.3.48-.56.11-.25.2-.57.25-.96a11.25 11.25 0 0 0 .01-2.58 3.24 3.24 0 0 0-.22-.92c-.1-.25-.26-.45-.45-.58Z"/><path d="M10 20h3v1h-1v6h-1v-6h-1v-1Zm4 0h2.93v1h-1.87v2h1.76v1h-1.76v2H17v1h-3v-7Zm4.27 4.78H17.2v.28c0 .62.13 1.1.39 1.44.26.33.7.5 1.3.5.57 0 1.02-.16 1.35-.48.32-.33.48-.85.48-1.57 0-.2-.01-.4-.04-.56a1.42 1.42 0 0 0-.16-.47 1.44 1.44 0 0 0-.3-.4c-.14-.12-.3-.24-.5-.36l-.83-.45a.99.99 0 0 1-.44-.39c-.07-.14-.1-.32-.1-.53 0-.1 0-.2.02-.3.02-.09.05-.17.1-.24a.54.54 0 0 1 .19-.18.6.6 0 0 1 .3-.07c.2 0 .35.1.44.27.09.17.13.42.13.74h1.02v-.2c0-.31-.04-.59-.12-.82-.08-.23-.2-.42-.34-.56a1.19 1.19 0 0 0-.52-.33c-.2-.07-.42-.1-.65-.1-.51 0-.91.16-1.2.5-.3.32-.44.82-.44 1.49 0 .28.02.52.08.74.05.2.14.4.25.56.12.15.26.3.44.41.17.12.38.23.61.34.18.07.33.15.45.22s.22.15.3.24c.07.09.12.19.15.3.04.11.05.24.05.4 0 .28-.06.49-.2.63a.6.6 0 0 1-.44.2.73.73 0 0 1-.34-.08.6.6 0 0 1-.22-.21.86.86 0 0 1-.11-.32 2.96 2.96 0 0 1-.03-.44v-.2Zm3.02 1.26a7.51 7.51 0 0 1-.29-2.53c0-1.03.05-1.91.29-2.52.12-.31.3-.55.53-.72.23-.18.54-.27.93-.27s.7.09.93.27c.23.17.4.4.52.72.13.3.2.68.24 1.11a15.92 15.92 0 0 1 0 2.84c-.03.42-.11.8-.24 1.1-.12.31-.29.55-.52.71-.23.17-.54.25-.93.25s-.7-.08-.93-.25c-.23-.16-.4-.4-.53-.7Zm1.09-4.9c-.38.44-.38 1.76-.38 2.37 0 .65 0 2.04.38 2.38.1.09.22.13.37.13a.5.5 0 0 0 .37-.13.9.9 0 0 0 .21-.43c.06-.2.09-.46.1-.78a19.9 19.9 0 0 0 0-2.32 3.85 3.85 0 0 0-.1-.78.85.85 0 0 0-.21-.43.49.49 0 0 0-.37-.15.51.51 0 0 0-.37.15ZM26 23v-2h.57c.5 0 .74.32.74.94 0 .37-.07.63-.2.79a.8.8 0 0 1-.6.27H26Zm-1-3v6.76h1V24h.71c.19 0 .32 0 .4.13.1.15.15.36.16.63l.03 1.3c0 .13.01.26.03.38.01.12.05.23.1.32h1.16v-.05c-.1-.07-.16-.2-.2-.4a11.61 11.61 0 0 1-.05-1.3l-.02-.43c-.03-.37-.11-.65-.23-.82a.9.9 0 0 0-.59-.33v-.02c.3-.08.52-.27.67-.55.14-.29.21-.66.21-1.12 0-.58-.12-1.02-.37-1.3-.25-.3-.6-.44-1.04-.44H25Zm4.29 6.04a7.51 7.51 0 0 1-.29-2.53c0-1.03.05-1.91.29-2.52.12-.31.3-.55.53-.72.23-.18.54-.27.93-.27s.7.09.93.27c.23.17.4.4.52.72.13.3.2.68.24 1.11a15.92 15.92 0 0 1 0 2.84c-.03.42-.11.8-.24 1.1-.12.31-.3.55-.52.71-.23.17-.54.25-.93.25s-.7-.08-.93-.25c-.23-.16-.4-.4-.53-.7Zm.7-2.74.01.21c0 .65 0 2.04.38 2.38.1.09.22.13.37.13a.5.5 0 0 0 .37-.13.9.9 0 0 0 .21-.43c.06-.2.09-.46.1-.78a20 20 0 0 0 0-2.32 3.85 3.85 0 0 0-.1-.78.85.85 0 0 0-.21-.43.49.49 0 0 0-.37-.15.51.51 0 0 0-.37.15c-.4.39-.39 1.48-.38 2.15ZM10 38h36v-1H10v1Z" fill="#A12629"/></svg>