<!-- by TradeStack --><svg width="56" height="56" viewBox="0 0 56 56" xmlns="http://www.w3.org/2000/svg"><path fill="#0B122F" d="M0 0h56v56H0z"/><path d="M8 21.5c0-1.38 1.14-2.5 2.54-2.5h34.92c1.4 0 2.54 1.12 2.54 2.5S46.86 24 45.46 24H10.54A2.52 2.52 0 0 1 8 21.5Zm12 8c0-1.38 1.19-2.5 2.65-2.5h10.7c1.46 0 2.65 1.12 2.65 2.5S34.81 32 33.35 32h-10.7C21.19 32 20 30.88 20 29.5Zm2.65 5.5C21.19 35 20 36.12 20 37.5s1.19 2.5 2.65 2.5h10.7c1.46 0 2.65-1.12 2.65-2.5S34.81 35 33.35 35h-10.7Z" fill="#fff"/></svg>