<!-- by TradeStack --><svg width="56" height="56" viewBox="0 0 56 56" xmlns="http://www.w3.org/2000/svg"><path fill="#425668" d="M0 0h56v56H0z"/><path d="M51 33V23h1v10h-1ZM42 33l.17-10h1.24L45 31.11 46.6 23h1.23L48 33h-1.01l-.1-7.26L45.35 33h-.72l-1.51-7.26-.1 7.26H42ZM37 33c-1.85 0-2-2.01-2-3.44V23h1v6.62c0 .73-.07 2.38 1 2.38 1.08 0 1-1.65 1-2.38V23h1v6.56c0 1.42-.14 3.44-2 3.44ZM30.1 33c-.45 0-.84-.12-1.14-.36-.3-.25-.53-.58-.69-1a5.01 5.01 0 0 1-.27-1.5l.98-.32c.02.34.06.68.13 1 .07.32.18.59.34.8.15.2.37.3.65.3.29 0 .5-.1.65-.29.15-.2.22-.49.22-.86 0-.44-.08-.8-.24-1.06a5.2 5.2 0 0 0-.62-.83l-1.33-1.45a2.8 2.8 0 0 1-.76-2.17c0-.71.17-1.27.5-1.67.33-.4.78-.59 1.36-.59a2 2 0 0 1 .82.16c.24.1.44.25.6.46.16.2.29.47.38.8.1.31.16.68.2 1.11l-.95.31a5.73 5.73 0 0 0-.11-.88c-.06-.27-.17-.5-.32-.65-.14-.17-.35-.26-.62-.26a.8.8 0 0 0-.65.28c-.15.18-.22.45-.22.8 0 .3.04.55.11.74.09.2.22.4.4.6l1.35 1.45c.3.32.56.7.79 1.16.23.44.34.97.34 1.58a3 3 0 0 1-.24 1.26c-.17.35-.4.62-.68.8-.28.19-.6.28-.98.28ZM23.5 33v-9H22v-1h4v1h-1.5v9h-1ZM5.46 33l.04-9H4.04L4 23h4l.04 1h-1.5l-.04 9H5.46ZM18 33c-1.85 0-2-2.01-2-3.44V23h1v6.62c0 .73-.07 2.38 1 2.38 1.08 0 1-1.65 1-2.38V23h1v6.56c0 1.42-.14 3.44-2 3.44ZM12.1 33c-.45 0-.84-.12-1.14-.36-.3-.25-.53-.58-.69-1a5.01 5.01 0 0 1-.27-1.5l.98-.32c.02.34.06.68.13 1 .07.32.18.59.34.8.15.2.37.3.65.3.29 0 .5-.1.65-.29.15-.2.22-.49.22-.86 0-.44-.08-.8-.24-1.06a5.2 5.2 0 0 0-.62-.83l-1.33-1.45a2.8 2.8 0 0 1-.76-2.17c0-.71.17-1.27.5-1.67.33-.4.78-.59 1.36-.59a2 2 0 0 1 .82.16c.24.1.44.25.6.46.16.2.29.47.38.8.1.31.16.68.2 1.11l-.95.31a5.73 5.73 0 0 0-.11-.88c-.06-.27-.17-.5-.32-.65-.14-.17-.35-.26-.62-.26a.8.8 0 0 0-.65.28c-.15.18-.22.45-.22.8 0 .3.04.55.11.74.09.2.22.4.4.6l1.35 1.45c.3.32.56.7.79 1.16.23.44.34.97.34 1.58a3 3 0 0 1-.24 1.26c-.17.35-.4.62-.68.8-.28.19-.6.28-.98.28Z" fill="#fff"/></svg>