<?xml version='1.0' encoding='utf-8'?>
<!-- by TradeStack -->
<svg width="56" height="56" viewBox="0 0 56 56" xmlns="http://www.w3.org/2000/svg"><path fill="#F0F3FA" d="M0 0h56v56H0z" /><path d="M48.27 21h-4.01L41 33h4.01l1.5-5.03c.22-.19.5-.35.82-.35.58 0 .6.54.53.8L46.48 33h3.8c.57-1.85 1.72-5.31 1.72-5.95 0-.8-.28-2.05-2.1-2.05-1.08 0-2.14.5-2.84.93L48.27 21ZM42 25.54l-.8 2a2.4 2.4 0 0 0-1.47-.54C38.06 27 37 28.63 37 29.36c0 .53.2 1.3 1.5 1.3 1.04 0 2-.32 2.21-.48l-.87 2.46c-.22.12-1.05.36-2.58.36-3.24 0-4.26-1.78-4.26-2.9 0-3.86 3.86-5.1 6.06-5.1 1.76 0 2.7.36 2.94.54ZM31.9 30.71l-.58 1.73c-.36.19-1.5.56-3.28.56-2.21 0-4.04-1.35-4.04-2.93A5.48 5.48 0 0 1 29.64 25c2.45 0 3.36 1.61 3.36 2.7 0 .86-.5 1.94-.7 2.3h-5.1c-.03.41.44 1.1 2.02 1.1s2.45-.26 2.69-.39ZM29.17 27c-.53 0-.98.26-1.05.58L28 28h1.89l.1-.42c.06-.3-.31-.58-.83-.58Z" fill="#004A9A" /><path d="M15 22H4.7L4 25h3.22l-1.87 8h5.27c-.98-.35-1.27-.55-1.42-.98l.59-2.5a4.9 4.9 0 0 0 2.88 1.13c1.29 0 2.18-.29 2.18-.93 0-.52-.46-.66-1.45-.98l-.85-.28a2.76 2.76 0 0 1-1.96-2.28l.24-1.18h3.47l.7-3Z" fill="#F77822" /><path d="m18.54 22 1.69.69-.83 2.67c-.15-.4-.87-1.2-2.52-1.2-1.11 0-1.88.39-1.88.97 0 .18.41.31.97.48 1.21.37 3.12 1.13 3.12 2.99 0 2.72-2.86 4.4-3.69 4.4h5.7l2.23-8h2.8l.87-3h-8.46Z" fill="#004A9A" /></svg>