<?xml version='1.0' encoding='utf-8'?>
<!-- by TradeStack -->
<svg width="56" height="56" viewBox="0 0 56 56" fill="none" xmlns="http://www.w3.org/2000/svg">
<rect width="56" height="56" fill="#F0F3FA" />
<path d="M22.315 14.9734C16.0153 21.2876 12.9663 26.2932 12.2292 28.0067C12.0562 29.9173 11.8141 33.2882 12.2292 31.4867C12.7482 29.2349 15.907 23.9579 18.2762 21.183C20.6453 18.408 25 13.4705 25 12.6289C25 11.9556 23.586 11.9541 22.8791 12.0375C23.3905 12.0906 24.4134 12.265 24.4134 12.5379C24.4134 12.8791 23.5108 13.6541 22.315 14.9734Z" fill="#8D4395" />
<path d="M15 35.4119V37.8067L17 40V37.8067C17 33.5991 21.1297 27.4668 24.3152 23.9082C27.5008 20.3497 31 15.9855 31 13.2774C31 11.1109 28.4741 10.8827 27.2112 11.0393C28.0558 11.1811 30 11.7152 30 12.7179C30 15.0231 26.1976 19.0292 21.1297 24.5349C17.0754 28.9394 15.3539 33.6215 15 35.4119Z" fill="#F37A23" />
<path d="M36.5 15.3828C36.5 13.5234 35.2003 12.8529 34.5 12.5C35.6467 12.8682 38 13.7628 38 16.3954C38 19.6862 34.7446 25.1862 32.5743 27.9247C24.7937 37.636 24 40.0063 24 42.1234C24 43.8172 25.3304 44.2469 26 44.5C24.6763 44.2852 22 43.7895 22 41.5251C22 38.6946 24.101 35.5188 28.1876 30.1109C34.583 21.7573 36.5 17.7071 36.5 15.3828Z" fill="#F1E721" />
<path d="M26.2339 25.1409C24.1436 16.4221 22.5403 13.2475 22 12.5C25.2419 13.6437 28.1452 20.7905 29.9355 27.0918C31.7258 33.3931 33.3468 44 32.9355 44C31.6048 43.1703 28.8468 36.0392 26.2339 25.1409Z" fill="#D0262F" />
<path d="M17 23.6001C17 16.6355 20.902 12.9648 22.8529 12C19 14.4141 19 20.174 19 23.5933V23.6001C18.8142 37.7847 27.0361 43.3909 31 44.5C31.1703 44.6139 31.1068 44.8419 29.4903 44.8419C19.8748 41.1727 17 32.3059 17 23.6001Z" fill="#289F4B" />
<path fill-rule="evenodd" clip-rule="evenodd" d="M41.7219 38.7222C38.5502 42.5529 33.7148 45 28.2979 45C18.7445 45 11 37.3888 11 28C11 18.6112 18.7445 11 28.2979 11C33.8756 11 38.8368 13.5946 42 17.6226L41.5664 18.0443C38.5866 14.116 33.8857 11.5815 28.5969 11.5815C19.5898 11.5815 12.2881 18.9323 12.2881 28C12.2881 37.0676 19.5898 44.4184 28.5969 44.4184C33.727 44.4184 38.3039 42.0338 41.2935 38.3055L41.7219 38.7222Z" fill="#1A95D5" />
</svg>