<?xml version='1.0' encoding='utf-8'?>
<!-- by TradeStack -->
<svg width="56" height="56" viewBox="0 0 56 56" xmlns="http://www.w3.org/2000/svg"><path fill="#37517E" d="M0 0h56v56H0z" /><path fill-rule="evenodd" d="M5 26.67V26h3v.67H7V30H6v-3.33H5Zm7 0V26h3v.67h-1V30h-1v-3.33h-1ZM24 30v-.67h-2V26h-1v4h3Zm-12-2a2 2 0 1 1-4 0 2 2 0 0 1 4 0Zm-1 0c0 .74-.45 1.35-1 1.35s-1-.6-1-1.35c0-.74.45-1.35 1-1.35s1 .6 1 1.35Zm6.67-2 2.22 4h-.99l-.52-1h-1.5l-.48 1h-1l2.08-4h.19Zm-.48 2.38.42-.87.45.87h-.87ZM26 26v.67h1V30h1v-3.33h1V26h-3Zm11 4v-.67h-2V26h-1v4h3Zm8.5-2a2 2 0 1 1-4 0 2 2 0 0 1 4 0Zm-1-.08c0 .7-.45 1.27-1 1.27s-1-.57-1-1.27c0-.7.45-1.27 1-1.27s1 .57 1 1.27Zm-3.9-1.58a2.57 2.57 0 0 0-1.29-.34c-1.27 0-2.31.9-2.31 2s1.04 2 2.31 2c.48 0 .92-.12 1.3-.34v-1c-.24.41-.7.69-1.2.69-.77 0-1.41-.6-1.41-1.35 0-.74.64-1.35 1.4-1.35.52 0 .97.28 1.2.7v-1.01ZM30 26v4h3v-.57h-2V28.2h1.75v-.58H31v-.98h2V26h-3Zm16 4h.9l.22-2.21 1.26 1.85h.24l1.2-1.85.3 2.21H51l-.58-4h-.15l-1.78 2.48L46.73 26h-.18L46 30Z" fill="#fff" /></svg>