<?xml version='1.0' encoding='utf-8'?>
<!-- by TradeStack -->
<svg width="56" height="56" viewBox="0 0 56 56" xmlns="http://www.w3.org/2000/svg"><path fill="#F0F3FA" d="M0 0h56v56H0z" /><path d="M41 26.12v3.74c7.84-5.62 7.53-9.82 6.42-11.21-.42 3.12-4.45 6.28-6.42 7.47Z" fill="#4070A0" /><path fill-rule="evenodd" d="M31 39h-4l1-15h2l1 15Zm-14 0V28h4.9c2.27 0 4.1 1.77 4.1 3.96v3.08A4.03 4.03 0 0 1 21.9 39H17Zm2.5-2v-7h2.18c1 0 1.82 1.13 1.82 2.52v1.96c0 1.4-.82 2.52-1.82 2.52H19.5ZM32 39V28h7v2h-4.5v3h4v2h-4v4H32Z" fill="#4E5357" /><path d="M18.9 21.45a29.38 29.38 0 0 0-6.8 5c.92-1.25 2.83-3.82 3.13-4.02a42.88 42.88 0 0 1 9.07-4.54c-1.96.73-4.38 2.64-5.4 3.56Z" fill="#4070A0" /><path d="M15 34.55v3.1c-5.8-.3-7.89-3.54-8-5.12 0-4.71 6.72-9.47 10.08-11.27-6.6 5.65-6.92 9.6-6.25 10.88-2.1-2.54 1.51-6.99 3.58-8.9-1.73 1.47-5.19 5.03-5.19 7.58 0 2.54 3.99 3.55 5.78 3.73ZM39.32 15c-9.4 0-17.42 4.2-20.26 6.3 8.39-3.84 12.11-4.5 16.38-4.5 4.26 0 7.63 1.59 7.63 3.9 0 1.84-1.3 4.17-2.07 5.1 3.18-2 4.54-4.96 4.54-6.44 0-1.18-1.07-2.53-1.6-3.06 1.3.3 2.86 1.51 3.48 2.09-1.38-2.75-5.97-3.4-8.1-3.39Z" fill="#FE0000" /><path d="M30.96 20.49c.21.54-.5 1.33-1.58 1.75-1.09.42-2.13.32-2.34-.23-.21-.54.5-1.33 1.58-1.75 1.09-.42 2.13-.32 2.34.23Z" fill="#FE0000" /></svg>