<!-- by TradeStack --><svg width="56" height="56" viewBox="0 0 56 56" xmlns="http://www.w3.org/2000/svg"><path fill="#F0F3FA" d="M0 0h56v56H0z"/><path fill-rule="evenodd" d="M28.4 10.1a.81.81 0 0 0-.8 0l-6.7 3.85a.8.8 0 0 0-.4.7v7.7c0 .28.15.55.4.7l6.7 3.84c.25.15.55.15.8 0l6.7-3.84a.8.8 0 0 0 .4-.7v-7.7a.8.8 0 0 0-.4-.7l-6.7-3.84Zm5.1 5.15L28 12l-5.5 3.25v6.5L28 25l5.5-3.25v-6.5Z" fill="#005890"/><path fill-rule="evenodd" d="M19.1 25.1a.82.82 0 0 1 .8 0l6.7 3.85c.25.15.4.42.4.7v7.7a.8.8 0 0 1-.4.7l-6.7 3.84a.82.82 0 0 1-.8 0l-6.7-3.84a.8.8 0 0 1-.4-.7v-7.7a.8.8 0 0 1 .4-.7l6.7-3.84Zm.4 1.82 5.72 3.3v6.57l-5.72 3.29-5.72-3.3v-6.57l5.72-3.29ZM18.52 30h1.96v2.5H23v2h-2.52V37h-1.96v-2.5H16v-2h2.52V30Z" fill="#6D97A7"/><path fill-rule="evenodd" d="M36.1 25.1a.82.82 0 0 1 .8 0l6.7 3.85c.25.15.4.42.4.7v7.7a.8.8 0 0 1-.4.7l-6.7 3.84a.82.82 0 0 1-.8 0l-6.7-3.84a.8.8 0 0 1-.4-.7v-7.7a.8.8 0 0 1 .4-.7l6.7-3.84Zm.4 1.82 5.72 3.3v6.57l-5.72 3.29-5.72-3.3v-6.57l5.72-3.29Zm-3 5.58v2h6v-2h-6Z" fill="#02B1E0"/><path fill-rule="evenodd" d="M28 22a3.5 3.5 0 1 0 0-7 3.5 3.5 0 0 0 0 7Zm0-1.6a1.9 1.9 0 1 0 0-3.8 1.9 1.9 0 0 0 0 3.8Z" fill="#005890"/></svg>