<!-- by TradeStack --><svg width="56" height="56" viewBox="0 0 56 56" xmlns="http://www.w3.org/2000/svg"><path fill="#F0F3FA" d="M0 0h56v56H0z"/><path d="M28.37 44C13.27 44 8.5 33.33 8 28h.36c.8 4.89 6.04 14.66 20.01 14.66 13.98 0 18.69-9.77 19.3-14.66H48c-.25 5.33-4.52 16-19.63 16Zm-.05-3C15.48 41 11.42 32.33 11 28h.3c.68 3.97 5.14 11.91 17.02 11.91 11.88 0 15.88-7.94 16.4-11.91H45c-.21 4.33-3.84 13-16.68 13ZM14 28c.35 3.67 3.69 11 14.26 11S41.83 31.67 42 28h-.23c-.43 3.36-3.73 10.08-13.5 10.08-9.8 0-13.46-6.72-14.02-10.08H14Z" fill="#43B040"/><path fill-rule="evenodd" d="M28 37c6.08 0 11-4.03 11-9s-4.92-9-11-9-11 4.03-11 9 4.92 9 11 9Zm.08-11.83c-4.13 0-7.23-1.12-8.26-1.68 2.75 1.89 8.26 7.08 8.26 12.71 1.1-7.06 5.6-11.33 7.81-12.65-1 .57-3.82 1.62-7.81 1.62Z" fill="#43B040"/><path d="M27.63 13.66a.39.39 0 0 0-.17-.29.65.65 0 0 0-.38-.1c-.1 0-.2.02-.28.05a.45.45 0 0 0-.19.15.36.36 0 0 0-.06.22c0 .07.01.12.04.17.03.05.07.09.12.12l.16.08.15.05.24.06.22.08c.07.03.15.07.22.12.07.05.13.12.18.2.05.08.07.18.07.3a.68.68 0 0 1-.4.63c-.14.06-.3.1-.48.1s-.33-.03-.45-.1a.73.73 0 0 1-.3-.24.7.7 0 0 1-.13-.36h.3c.02.1.05.18.1.24.06.06.12.1.2.13.1.03.18.05.28.05.11 0 .21-.02.3-.06.1-.04.16-.09.21-.16a.39.39 0 0 0 .08-.24.3.3 0 0 0-.06-.2.5.5 0 0 0-.18-.13 1.82 1.82 0 0 0-.24-.09l-.3-.08a1.1 1.1 0 0 1-.45-.25.54.54 0 0 1-.17-.4c0-.15.04-.27.11-.38.08-.1.18-.18.3-.24a.98.98 0 0 1 .42-.09c.16 0 .3.03.42.09.12.05.22.13.3.23.06.1.1.22.1.34h-.28ZM34.59 13.7l-.82 2.59.3.1.37-1.16 1.34.44-.36 1.16.3.1.81-2.59-.3-.1-.36 1.16-1.34-.45.36-1.16-.3-.1ZM38.32 17.91l1.28-2.23.26.16-1.14 2 1 .6-.13.25-1.27-.78ZM39.95 18.93l.64.45c.21.15.42.23.62.25.2.01.4-.03.58-.14.18-.1.35-.27.5-.5.14-.21.22-.43.25-.64.03-.22 0-.42-.08-.6a1.25 1.25 0 0 0-.44-.5l-.66-.46-1.4 2.14Zm.78.2-.38-.25 1.1-1.68.4.28c.17.11.28.24.35.38.06.15.08.3.05.46-.03.17-.1.33-.21.5-.11.18-.24.31-.38.4a.72.72 0 0 1-.44.11.98.98 0 0 1-.5-.2ZM42.1 20.49l1.56-1.92-.22-.2-1.56 1.92.23.2ZM47.73 24.6a.4.4 0 0 1-.14.3l.16.25c.1-.07.17-.16.2-.28a.77.77 0 0 0 .04-.38 1.04 1.04 0 0 0-.16-.41 1.03 1.03 0 0 0-.3-.32.72.72 0 0 0-.36-.12.58.58 0 0 0-.36.1.53.53 0 0 0-.25.37c-.02.16 0 .33.06.53l.09.3a2 2 0 0 1 .06.26v.22a.3.3 0 0 1-.13.17.36.36 0 0 1-.24.07.51.51 0 0 1-.25-.1.88.88 0 0 1-.32-.49.54.54 0 0 1 0-.25.4.4 0 0 1 .14-.21l-.17-.26a.7.7 0 0 0-.23.3.77.77 0 0 0-.03.4c.02.13.08.28.18.43.1.16.21.28.34.36.12.08.25.12.37.12.13 0 .25-.04.36-.12.1-.06.16-.14.2-.22a.65.65 0 0 0 .07-.26c0-.1 0-.18-.03-.27a2.31 2.31 0 0 0-.06-.22l-.08-.25-.04-.16a.93.93 0 0 1-.02-.17c0-.06 0-.12.03-.17a.3.3 0 0 1 .11-.14.34.34 0 0 1 .22-.06c.07 0 .15.03.22.08s.14.13.2.22a.7.7 0 0 1 .12.38ZM45.51 20.4l-1.7 1.84-.21-.2.37-2.4-.02-.02-1.34 1.44-.21-.21L44.1 19l.2.2-.36 2.42.02.01 1.34-1.44.21.2ZM38.1 17.24c.16-.15.3-.36.4-.62.1-.26.14-.5.13-.73a1.08 1.08 0 0 0-.68-.98 1.05 1.05 0 0 0-1.15.21c-.17.15-.3.36-.4.62-.1.26-.15.5-.14.73.02.23.09.42.2.6.12.16.28.3.49.38a1.05 1.05 0 0 0 1.15-.2Zm.23-1.32c0 .18-.03.37-.11.59-.09.21-.2.38-.32.5a.76.76 0 0 1-.85.16.79.79 0 0 1-.34-.28.87.87 0 0 1-.15-.45c0-.18.03-.37.11-.58.09-.22.2-.38.32-.5a.81.81 0 0 1 .4-.22c.15-.02.3 0 .44.05.15.07.26.16.35.28.09.13.14.28.15.45ZM33.1 13.5l-.42 2.58-.3-.05-1.02-2.27h-.03L31 15.79l-.3-.06.42-2.58.3.05 1.03 2.27h.02l.34-2.03.3.06Z" fill="#43B040"/><path fill-rule="evenodd" d="m28.32 15.53.3.02.3-.7 1 .06.2.73.31.02-.75-2.6-.3-.02-1.06 2.49Zm1.52-.9-.33-1.18h-.02l-.46 1.13.8.05Z" fill="#43B040"/><path d="M25.83 14.3c.04.26.02.5-.05.71-.07.2-.18.38-.33.51a1.1 1.1 0 0 1-.56.25c-.21.03-.41 0-.6-.07-.18-.08-.34-.2-.46-.39-.13-.18-.2-.4-.25-.67-.04-.26-.02-.5.05-.7.07-.22.18-.39.33-.52.16-.13.34-.21.56-.25.21-.03.41 0 .6.07.18.08.34.21.46.39.13.18.2.4.25.67Zm-.3.04c-.03-.22-.1-.4-.2-.53a.8.8 0 0 0-.34-.3.78.78 0 0 0-.43-.05.8.8 0 0 0-.4.18c-.12.1-.2.23-.25.39-.05.16-.06.35-.03.57.03.22.1.4.19.53.1.14.21.24.35.3.13.06.28.08.43.05a.79.79 0 0 0 .65-.57c.05-.16.06-.35.03-.57ZM21.65 16.45l.72-.2c.24-.06.43-.17.57-.31a1 1 0 0 0 .27-.52c.04-.2.02-.44-.04-.69a1.5 1.5 0 0 0-.3-.6.95.95 0 0 0-.48-.32c-.18-.05-.39-.05-.62.02l-.75.2.63 2.42Zm.63-.45-.42.11-.49-1.9.45-.12a.88.88 0 0 1 .5-.01.7.7 0 0 1 .35.25c.1.12.17.28.22.48.06.2.07.37.04.53-.02.16-.09.3-.2.4-.1.12-.25.2-.45.26ZM20 14.31l.27-.12.67 1.57c.07.16.1.32.08.48a.9.9 0 0 1-.18.44c-.1.14-.25.24-.43.33-.18.08-.35.11-.51.1a.84.84 0 0 1-.74-.54L18.5 15l.28-.13.66 1.55c.05.12.12.2.2.28.1.06.2.1.3.11.12.01.24-.01.37-.07a.75.75 0 0 0 .3-.23.6.6 0 0 0 .11-.3.7.7 0 0 0-.05-.35l-.67-1.55ZM16.73 15.87l1.03 2.28.26-.13-.46-1.02.96-.46-.11-.24-.96.46-.34-.77 1.05-.51-.1-.25-1.33.64ZM15.12 16.88l.23-.19.99 1.3a.87.87 0 0 1 .11.9c-.06.14-.17.28-.32.4s-.3.2-.46.22a.8.8 0 0 1-.8-.32l-1-1.3.23-.19.98 1.28a.54.54 0 0 0 .56.24c.1-.02.21-.07.32-.15.1-.09.18-.18.23-.29.04-.1.05-.2.04-.31a.66.66 0 0 0-.14-.31l-.97-1.28ZM12.27 19.06l-.26.23 1.64.57.66.82.23-.2-.66-.82-.25-1.77-.27.23.22 1.39-.02.02-1.29-.47ZM12.58 22.88l-2.17-1.7.2-.27 1.07.84.02-.02-.34-1.86.26-.35.3 1.7h1.88l-.24.33-1.59-.01.1.52.7.55-.2.27ZM11.69 22.84a1.6 1.6 0 0 0-.5-.54 1.54 1.54 0 0 0-.65-.3 1.07 1.07 0 0 0-.61.08c-.19.08-.34.21-.47.4a1.14 1.14 0 0 0-.05 1.2c.1.2.27.38.49.54.22.16.44.26.66.3a1.09 1.09 0 0 0 1.07-.47 1.14 1.14 0 0 0 .06-1.21Zm-1.2-.53c.18.03.35.11.53.24.19.13.32.28.4.43.09.15.13.3.12.46-.01.15-.06.3-.15.43a.8.8 0 0 1-.34.29.8.8 0 0 1-.45.05c-.17-.03-.35-.11-.53-.24a1.32 1.32 0 0 1-.4-.43.83.83 0 0 1 .03-.89c.1-.13.2-.23.34-.29a.79.79 0 0 1 .46-.05ZM8.25 25.8 8 25.7l.77-1.8.25.12-.32.75 2.06.95-.13.29-2.06-.95-.32.75ZM46.34 22.92c.05-.08.1-.15.12-.23a.74.74 0 0 0-.1-.71.76.76 0 0 0-.35-.28.78.78 0 0 0-.45-.03c-.17.03-.34.11-.52.25-.18.13-.3.28-.38.43a.84.84 0 0 0 .05.89c.09.12.19.21.3.27.12.05.25.07.37.05a.81.81 0 0 0 .37-.15l-.4-.57.23-.16.57.8-.22.18-.84.63-.16-.24.24-.18a.92.92 0 0 1-.27-.08c-.16-.08-.3-.2-.42-.37a1.14 1.14 0 0 1-.1-1.2c.1-.2.27-.39.49-.55.16-.13.32-.21.49-.27.16-.05.32-.07.47-.05a1 1 0 0 1 .42.13 1.19 1.19 0 0 1 .56 1.04 1.03 1.03 0 0 1-.28.66l-.19-.26Z" fill="#43B040"/></svg>