<!-- by TradeStack --><svg width="56" height="56" viewBox="0 0 56 56" xmlns="http://www.w3.org/2000/svg"><path fill="url(#a)" d="M0 0h56v56H0z"/><path d="M8 22h9v2h-3.5v10h-2V24H8v-2ZM18 22h2v6.87c0 1.68.5 3.13 2.5 3.13s2.5-1.45 2.5-3.13V22h2v7.54c.11 5.95-9.1 5.94-9 0V22Z" fill="#F1F2F2"/><path d="M32.02 22h1.96L38 34h-2l-.95-3h-4.1L30 34h-2l4.02-12Zm-.44 7h2.84L33 24.5 31.58 29ZM41 30c-.04 1.58 1.37 2.02 2.79 2 1.08.03 2.21-.62 2.21-1.5 0-1.05-1.25-1.47-2.21-1.71-1.9-.49-4.3-.83-4.29-3.29-.05-2.2 2-3.49 3.95-3.5 2.14-.01 4.6 1.67 4.55 4.02h-2c-.1-1.31-1.24-2.07-2.55-2.02-.9 0-1.99.4-1.95 1.5-.07 1.35 1.6 1.23 2.6 1.51 1.85.5 3.9 1.06 3.9 3.4.07 2.43-2.25 3.6-4.4 3.59-2.38.02-4.62-1.4-4.6-4h2Z" fill="#fff"/><defs><linearGradient id="a" x1="10.42" y1="9.71" x2="68.15" y2="76.02" gradientUnits="userSpaceOnUse"><stop stop-color="#1A1E21"/><stop offset="1" stop-color="#06060A"/></linearGradient></defs></svg>