<!-- by TradeStack --><svg width="56" height="56" viewBox="0 0 56 56" xmlns="http://www.w3.org/2000/svg"><path fill="url(#ahxbtdkn3)" d="M0 0h56v56H0z"/><path d="M40.33 35h-5.29l-2.07-3H31v3h-3V23h6.32c2.3 0 4.15 1.88 4.15 4.2 0 1.64-.93 3.37-2.29 4.23l1.26 1.6L43.85 18 51 35h-3.7l-3.45-8.32L40.33 35ZM5 26v-3h11v3h-2v9h-3v-9H5Zm12-3v7c0 2.77 2.08 5 4.64 5h.72c2.56 0 4.64-2.23 4.64-5v-7h-3v7.07c0 1.12-.96 1.93-2 1.93s-2-.81-2-1.93V23h-3Zm14 3v3h2.53c.81 0 1.47-.67 1.47-1.5s-.66-1.5-1.47-1.5H31Z" fill="#fff"/><defs><linearGradient id="ahxbtdkn3" x1="10.42" y1="9.71" x2="68.15" y2="76.02" gradientUnits="userSpaceOnUse"><stop stop-color="#1A1E21"/><stop offset="1" stop-color="#06060A"/></linearGradient></defs></svg>