<?xml version='1.0' encoding='utf-8'?>
<!-- by TradeStack -->
<svg width="56" height="56" viewBox="0 0 56 56" xmlns="http://www.w3.org/2000/svg"><path fill="#002B55" d="M0 0h56v56H0z" /><path fill-rule="evenodd" d="m15.62 16.33-.21 1.01c.1-.17.33-.33.43-.34h.98l-.9 4.44c-.05.19-.04.56.47.56h1.28c-.17-.07-.47-.33-.37-.82l.84-4.18H19c.17 0 .32-.03.38-.2l.27-.8h-3.62a.4.4 0 0 0-.4.33Zm4.62-.33-.95 4.37c-.13.54-.06 1.62 1.28 1.62h1.32c.44.06 1.4-.19 1.72-1.62l.86-3.84c0-.18-.12-.53-.59-.53h-1.2c.16.1.43.4.37.71l-.72 3.33c-.04.3-.27 1-.84 1-.7 0-.9-.25-.7-1.2.14-.75.53-2.52.7-3.31-.01-.18-.1-.53-.37-.53h-.88Zm4.04 5.68 1.1-5.68h1.02c.38 0 .37.38.32.57L25.78 21h1.5c.17 0 .33-.23.39-.32-.03.16-.13.57-.26.93-.14.35-.3.4-.35.39h-2.3c-.5 0-.52-.21-.48-.32Zm4.5-5.68-1.1 5.68c-.04.1-.01.32.48.32h2.3c.06.01.21-.04.35-.4.14-.35.23-.76.26-.92-.05.09-.21.32-.39.32h-1.5l.94-4.43c.05-.2.06-.57-.32-.57h-1.02Zm2.93 2.23c.26-.94.6-2.23 2.5-2.23 2.55 0 2.04 2.32 1.86 3.1l-.05.21c-.2.9-.58 2.69-2.7 2.69-2.3 0-2.08-1.54-1.75-3.28.05-.14.1-.3.14-.49Zm1.29.5c0-.06.23-1.83 1.17-1.73.93.1.58 1.65.46 2.17l-.04.13c-.13.6-.4 1.78-1.18 1.7-.84-.1-.65-1.12-.41-2.28ZM37.12 16h1.4l-.83 4.24c-.04.23.03.76.54.76.64 0 .81-.55.92-.99l.82-4.01h1.36l-.86 4.17c-.03.25.06.83.64.83.57 0 .8-.63.84-.9l.75-3.6c-.02-.17-.11-.5-.34-.5h1.4c.1.01.3.16.22.62-.08.47-.62 3.13-.89 4.4-.14.33-.73.98-1.98.98-1.26 0-1.52-.29-1.49-.43-.1.14-.55.43-1.58.43-1.3 0-1.88-.56-1.71-1.53l.8-4.47ZM16.7 23h23.07c-.76.2-1.21 1.05-1.34 1.45-.26 1.1-.83 3.66-1.04 5.18-.25 1.9.34 2.78 1.78 2.78 1.16 0 2.05-.72 2.35-1.08-.21.9-.72 3.3-1.1 5.7-.37 2.42-2.03 2.99-2.81 2.97h-4.71c-1.7 0-1.85-1.69-1.7-2.53.24-1.18.79-3.93 1.07-5.48.28-1.54-.85-2-1.45-1.99h-4.52c-1.54 0-2.04 1.07-2.1 1.57l-1.22 6.26A2.5 2.5 0 0 1 20.63 40h-6.86c-1.69 0-1.86-1.53-1.74-2.3.66-3.38 2.07-10.62 2.4-12.49.32-1.87 1.64-2.25 2.26-2.2Zm12.94 1.36c-.59.66-1.77 2.18-1.77 3.01 0 1.05.48 1.43 1.13 1.43.64 0 1.36-.54 1.4-1.58a8.64 8.64 0 0 0-.76-2.86ZM16.67 36.19l2.26-9.9a.81.81 0 0 1 1.59.34l-2 9.96a.94.94 0 1 1-1.85-.4ZM23.35 40c.3-.04.95-.37 1.2-1.4l1.24-5.87a.94.94 0 0 1 .93-.73h2.6c.6 0 1.05.52.93 1.09l-1.1 5.34A2 2 0 0 1 27.16 40h-3.81Zm16.7-13.74c0-.38.11-1 .17-1.26h.45c-.16.8-.2 1.33.33 1.33.42 0 .62-.89.67-1.33h.46l-.2 1.05c-.14.74-.6.95-1.09.95-.49 0-.8-.27-.8-.74Zm.79.74h.87l-.17.58h-2.5l.2-.58h1.6Zm.93 3h-2.53c.01-.67.28-2 1.24-2 1 0 .95.95.8 1.42h.62l-.13.58Zm-.93-.57h-1.06c0-.29.13-.86.65-.86.51 0 .49.57.41.86Z" fill="#fff" /></svg>