<?xml version='1.0' encoding='utf-8'?>
<!-- by TradeStack -->
<svg width="56" height="56" viewBox="0 0 56 56" fill="none" xmlns="http://www.w3.org/2000/svg">
<rect width="56" height="56" fill="#F0F3FA" />
<path d="M25.1678 41.121L23.297 42.9569C23.291 42.9628 23.2837 42.9676 23.2758 42.9708C23.2678 42.9741 23.2593 42.9757 23.2507 42.9757C23.2421 42.9757 23.2336 42.9741 23.2256 42.9708C23.2177 42.9676 23.2105 42.9628 23.2044 42.9569L8.01928 28.0701C8.01317 28.0641 8.00832 28.0571 8.00501 28.0493C8.0017 28.0415 8 28.0331 8 28.0247C8 28.0162 8.0017 28.0079 8.00501 28.0001C8.00832 27.9923 8.01317 27.9852 8.01928 27.9793L23.1981 13.0244C23.2042 13.0185 23.2114 13.0137 23.2193 13.0105C23.2273 13.0072 23.2358 13.0056 23.2444 13.0056C23.253 13.0056 23.2615 13.0072 23.2695 13.0105C23.2774 13.0137 23.2846 13.0185 23.2907 13.0244L25.1741 14.8789C25.1802 14.8848 25.1851 14.8919 25.1884 14.8997C25.1917 14.9074 25.1934 14.9158 25.1934 14.9242C25.1934 14.9327 25.1917 14.941 25.1884 14.9488C25.1851 14.9566 25.1802 14.9637 25.1741 14.9696L11.9376 27.9463C11.9315 27.9522 11.9267 27.9593 11.9234 27.9671C11.92 27.9749 11.9183 27.9832 11.9183 27.9917C11.9183 28.0001 11.92 28.0085 11.9234 28.0163C11.9267 28.024 11.9315 28.0311 11.9376 28.0371L25.1678 41.0303C25.1739 41.0362 25.1788 41.0433 25.1821 41.0511C25.1854 41.0588 25.1871 41.0672 25.1871 41.0756C25.1871 41.0841 25.1854 41.0924 25.1821 41.1002C25.1788 41.108 25.1739 41.1151 25.1678 41.121Z" fill="#808185" />
<path d="M29.8692 41.1047L27.9921 42.9447C27.9845 42.9524 27.9753 42.9586 27.9652 42.9628C27.9551 42.967 27.9442 42.9692 27.9332 42.9692C27.9222 42.9692 27.9114 42.967 27.9012 42.9628C27.8911 42.9586 27.882 42.9524 27.8743 42.9447L12.6871 28.0579C12.6792 28.0504 12.6729 28.0414 12.6686 28.0315C12.6643 28.0216 12.6621 28.0109 12.6621 28.0002C12.6621 27.9894 12.6643 27.9787 12.6686 27.9688C12.6729 27.9589 12.6792 27.9499 12.6871 27.9424L27.8512 13.068C27.8588 13.0603 27.868 13.0541 27.8781 13.0499C27.8882 13.0457 27.8991 13.0435 27.9101 13.0435C27.9211 13.0435 27.9319 13.0457 27.9421 13.0499C27.9522 13.0541 27.9614 13.0603 27.969 13.068L29.8735 14.9348C29.8813 14.9423 29.8876 14.9513 29.8919 14.9612C29.8962 14.9711 29.8984 14.9818 29.8984 14.9925C29.8984 15.0033 29.8962 15.014 29.8919 15.0239C29.8876 15.0338 29.8813 15.0428 29.8735 15.0503L16.7295 27.9403C16.7217 27.9478 16.7154 27.9568 16.7111 27.9667C16.7068 27.9767 16.7046 27.9873 16.7046 27.9981C16.7046 28.0089 16.7068 28.0195 16.7111 28.0295C16.7154 28.0394 16.7217 28.0484 16.7295 28.0559L29.8692 40.9892C29.8771 40.9967 29.8834 41.0057 29.8877 41.0156C29.892 41.0255 29.8942 41.0362 29.8942 41.047C29.8942 41.0578 29.892 41.0684 29.8877 41.0783C29.8834 41.0883 29.8771 41.0972 29.8692 41.1047Z" fill="#58595B" />
<path d="M32.672 13.0394L17.4347 27.9752C17.4125 27.997 17.4125 28.0322 17.4347 28.054L32.6422 42.9606C32.6644 42.9824 32.7004 42.9824 32.7226 42.9606L47.9599 28.0248C47.9821 28.003 47.9821 27.9678 47.9599 27.946L32.7523 13.0394C32.7302 13.0176 32.6942 13.0176 32.672 13.0394Z" fill="#E04A25" />
</svg>