<?xml version='1.0' encoding='utf-8'?>
<!-- by TradeStack -->
<svg width="56" height="56" viewBox="0 0 56 56" xmlns="http://www.w3.org/2000/svg"><path fill="#F0F3FA" d="M0 0h56v56H0z" /><path d="M17 21H4v1h5v13h3V22h5v-1Z" fill="url(#a)" /><path d="M19.45 21H17l6.97 14h.43L31 21h-1.28l-4.96 10.72L19.45 21Z" fill="url(#b)" /><path d="M44 31.65A7.7 7.7 0 0 1 37.55 35C33.38 35 30 31.87 30 28s3.38-7 7.55-7A7.7 7.7 0 0 1 44 24.35l-1 .56a5.46 5.46 0 0 0-4.8-3.18c-3.06 0-5.2 2.8-5.2 6.27 0 3.46 2.14 6.27 5.2 6.27a5.46 5.46 0 0 0 4.8-3.18l1 .56Z" fill="url(#c)" /><path d="M40.15 25.25c-.05.22 0 .43.13.62.05.06.1.1.17.1.05.02.14 0 .26-.03.05-.02.1 0 .13.06.01.03.02.07.01.12a.15.15 0 0 1-.05.1.74.74 0 0 0-.18.18c-.05.08-.04.14.03.2.18.17.2.38.04.64a.38.38 0 0 1-.51.13 6.54 6.54 0 0 0-1.53-.65c-.08-.02-.11-.07-.1-.16v-.06c.04-.08.1-.12.18-.12l.2-.01c.03-.1-.03-.23-.17-.38-.2-.2-.23-.4-.09-.59.07-.09.13-.08.18.01l.2.34c.04.07.08.08.14.02.13-.13.23-.34.3-.61.19-.07.41-.04.66.09Z" fill="#57A6FA" /><path d="M40.15 25.25c.76.3 1.23.78 1.4 1.42-.31-.08-.53-.06-.63.06a2.4 2.4 0 0 0-.16.49c-.13.49 0 .89.37 1.2.08.06.15.05.22-.03.05-.07.11-.08.18-.03l.4.3a2.95 2.95 0 0 1-.81 1.45l-1.18-.26c-.09-.02-.13-.08-.12-.17l.02-.13c.09-.08.12-.16.1-.22 0-.05-.06-.09-.16-.11a3.25 3.25 0 0 1-1.2-.65.56.56 0 0 1 .51-.29c.02 0 .03 0 .03-.02v-.09a.14.14 0 0 0-.1-.08c-.55-.14-1-.33-1.37-.57-.3-.19-.38-.12-.25.22.03.09.13.2.29.34a.1.1 0 0 1 .03.07.1.1 0 0 1-.02.07l-.06.05c-.05.05-.1.05-.15 0a1.6 1.6 0 0 1-.3-.53.27.27 0 0 0-.11-.15.27.27 0 0 0-.17-.04c-.3.01-.35.11-.18.29.32.33.53.6.63.78a.29.29 0 0 1-.15.4 4.3 4.3 0 0 0-.59.29c-.12.06-.14.2-.06.41a2.71 2.71 0 0 1-.52-2.17c.1-.7.4-1.22.88-1.56.01.07.02.15.01.21.56.17.46.53 1.47-.08l.15.1a.07.07 0 0 1 .06.01l.02.03c.03.07.13.1.3.1l-.2.02a.18.18 0 0 0-.17.12l-.02.06c0 .09.03.14.11.16.56.16 1.07.38 1.53.65a.37.37 0 0 0 .5-.13c.17-.26.15-.47-.03-.64-.07-.06-.08-.12-.03-.2.02-.04.08-.1.18-.18a.15.15 0 0 0 .06-.1c0-.05 0-.1-.02-.12-.03-.06-.07-.08-.13-.06a.68.68 0 0 1-.26.04.26.26 0 0 1-.17-.11.76.76 0 0 1-.13-.62Z" fill="#358CF9" /><path d="M41.56 26.67c.41.5.53 1.16.37 1.99l-.4-.3c-.07-.05-.13-.04-.18.03-.07.08-.14.09-.22.02-.38-.3-.5-.7-.37-1.2.08-.3.13-.45.16-.48.1-.12.32-.14.64-.06Z" fill="#0148E0" /><path d="M38.58 28.57c-.46-.4-.84-.37-1.14.13a.74.74 0 0 0-.1.5c.03.17.12.31.26.4.16.12.3.33.4.62a.6.6 0 0 0 .62.4.6.6 0 0 0 .24-.09l.74-.43a.13.13 0 0 0 .05-.17l-.06-.12c-.04-.05-.03-.1.02-.14a.77.77 0 0 1 .23-.12l-.02.13c0 .1.03.15.12.17l1.18.26c-.4.37-.73.5-1.21.72-.53.24-1.22.19-1.86.08-.49-.09-1.27-.8-1.5-1.19-.07-.21-.05-.35.07-.41.22-.13.41-.22.6-.29a.29.29 0 0 0 .14-.4c-.1-.19-.3-.45-.63-.78-.17-.18-.12-.28.18-.3.06 0 .12.02.17.05.05.04.09.09.1.15.06.16.16.34.31.52.05.06.1.06.15.01l.05-.05a.1.1 0 0 0 0-.14.99.99 0 0 1-.3-.34c-.12-.34-.04-.41.26-.22.37.24.82.43 1.36.57.05.02.08.04.1.08.02.03.02.06.01.1l-.03.01c-.23 0-.4.1-.5.3Z" fill="#026BF6" /><path d="M38.58 28.57c.36.3.76.52 1.2.65.1.02.15.06.17.1.01.07-.02.15-.11.23a.78.78 0 0 0-.23.12c-.05.04-.06.09-.02.14l.06.12a.13.13 0 0 1-.05.17l-.74.43a.6.6 0 0 1-.85-.3c-.11-.3-.25-.51-.41-.63a.62.62 0 0 1-.25-.4.74.74 0 0 1 .1-.5c.29-.5.67-.54 1.13-.13Z" fill="#0037A9" /><path d="M41.12 27.65c.01.15.11.27.22.26.1-.01.19-.14.17-.3-.01-.14-.11-.26-.22-.25-.1.01-.18.14-.17.3ZM38.14 29.6c-.16 0-.29-.1-.38-.31-.04-.1-.01-.15.09-.18.15-.04.25-.03.3.02.1.1.15.2.14.34 0 .1-.06.14-.15.13Z" fill="#358CF9" /><path d="M39.69 25.1c-.07.28-.37.54-.5.67-.06.06-.1.05-.14-.02l-.2-.34c-.05-.1-.11-.1-.18 0-.14.19-.1.38.1.58.13.15.19.27.16.38-.17 0-.27-.04-.3-.11a.07.07 0 0 0-.05-.04.07.07 0 0 0-.06.02l-.98.98a.1.1 0 0 1-.12.02.2.2 0 0 1-.09-.29c.07-.11.1-.22.1-.33 0-.06-.03-.08-.08-.05l-.14.09a.23.23 0 0 0-.12.14.86.86 0 0 1-.36.48c-.08.06-.14.04-.17-.05-.1-.32-.02-.6.26-.82a.3.3 0 0 0 .11-.2l-.01-.22a2.65 2.65 0 0 1 2.77-.88Z" fill="#0148E0" /><path d="M38.22 25.9c.15-.06.25-.17.22-.25-.03-.07-.17-.1-.32-.04-.15.05-.25.16-.22.24.02.08.17.1.32.04Z" fill="#358CF9" /><path d="M47.93 20A10 10 0 0 1 52 28.03 10.01 10.01 0 0 1 47.8 36l-1.11-1.42A7.87 7.87 0 0 0 50 28.02c.02-2.67-1.04-5-3.2-6.62l1.13-1.4Z" fill="#A0CD49" /><path d="M46.19 22.39A7 7 0 0 1 49.04 28a7 7 0 0 1-2.94 5.58l-1.3-1.4a5.28 5.28 0 0 0 2.2-4.2 5.27 5.27 0 0 0-2.14-4.22l1.33-1.38Z" fill="#A0CD49" /><path d="M44.33 24.7A4.11 4.11 0 0 1 46 27.97a4.12 4.12 0 0 1-1.72 3.27l-1.09-1.38a2.4 2.4 0 0 0 1-1.9c.01-.74-.36-1.46-.96-1.91l1.1-1.37Z" fill="#A0CD49" /><defs><linearGradient id="a" x1="10.5" y1="21" x2="10.5" y2="35" gradientUnits="userSpaceOnUse"><stop stop-color="#4C6388" /><stop offset=".08" stop-color="#072558" /></linearGradient><linearGradient id="b" x1="24" y1="21" x2="24" y2="35" gradientUnits="userSpaceOnUse"><stop stop-color="#4C6388" /><stop offset=".08" stop-color="#072558" /></linearGradient><linearGradient id="c" x1="37" y1="21" x2="37" y2="35" gradientUnits="userSpaceOnUse"><stop stop-color="#4C6388" /><stop offset=".08" stop-color="#072558" /></linearGradient></defs></svg>