<?xml version='1.0' encoding='utf-8'?>
<!-- by TradeStack -->
<svg width="56" height="56" viewBox="0 0 56 56" xmlns="http://www.w3.org/2000/svg"><path fill="#F0F3FA" d="M0 0h56v56H0z" /><path d="M18.5 20.67c-5.7 0-8.55-2.3-9.5-3.67v7.33c1.62 1.23 5.6 2.75 9.5 2.75 2.67 0 5-.8 7.46-1.66 2.79-.97 5.76-2 9.64-2 5.85 0 9.94 3.05 11.4 4.58v-7.33C44.56 19.29 40.47 17 35.6 17c-3.9 0-6.22.92-8.54 1.83-2.33.92-4.65 1.84-8.56 1.84ZM9 28v7.33c1.62 1.23 5.6 2.75 9.5 2.75 2.67 0 5-.8 7.46-1.66 2.79-.97 5.76-2 9.64-2 5.85 0 9.94 3.05 11.4 4.58v-7.33C44.56 30.29 40.47 28 35.6 28c-3.9 0-6.22.92-8.54 1.83-2.33.92-4.65 1.84-8.56 1.84-5.7 0-8.55-2.3-9.5-3.67Z" fill="#00798C" /></svg>