<?xml version='1.0' encoding='utf-8'?>
<!-- by TradeStack -->
<svg width="56" height="56" viewBox="0 0 56 56" xmlns="http://www.w3.org/2000/svg"><path fill="url(#aeu2nvbty)" d="M0 0h56v56H0z" /><path d="M23.23 12a12.5 12.5 0 0 0-12.06 10.43l-.04.23c-.1.52-.22 1.14-.02 1.56.35.72 1.66.64 1.74-.15.58-5.7 4.64-9.85 10.26-10.15.44-.02.74-.09.9-.2.87-.55.24-1.74-.78-1.72Zm-.7 5.36c.49-.1.62-.67.33-1-.32-.38-.8-.25-1.24-.14h-.04a6.56 6.56 0 0 0-5.14 6.58c.01.78 1.15.79 1.23-.04.32-3.05 1.94-4.85 4.86-5.4Zm-.03 7.14a2 2 0 1 0 0-4 2 2 0 0 0 0 4Zm10.63 12.01.01.02c.71 1.82 1.44 3.65 2.18 5.48.15.38.33.64.54.78 1.08.73 1.6-.6 1.9-1.38l.06-.17c.86-2.15 1.73-4.2 2.6-6.26.81-1.95 1.63-3.9 2.46-5.94.4-1.02-.26-2.04-1.12-2.04-.78 0-1.17.67-1.43 1.3a273.3 273.3 0 0 1-1.7 4.03c-.72 1.69-1.44 3.37-2.15 5.16l-.02.03a.05.05 0 0 1-.06 0l-.02-.03c-.66-1.66-1.32-3.22-1.98-4.79-.61-1.45-1.23-2.9-1.85-4.44-.27-.68-.65-1.38-1.51-1.26-1.06.15-1.34 1.15-1 2.02.29.73.57 1.37.86 2 .26.57.51 1.13.77 1.77a.2.2 0 0 1 0 .16l-1.84 4.57a.06.06 0 0 1-.05.03l-.03-.01-.02-.02-5.26-13.85a.06.06 0 0 0-.05-.03.06.06 0 0 0-.05.02c-.5.83-1.23 1.2-2.2 1.1-.07 0-.09.03-.06.1 1.19 2.96 2.34 6.03 3.5 9.1 1 2.7 2.02 5.38 3.05 8 .44 1.12 1.64 1.46 2.16.16a5911.24 5911.24 0 0 1 2.3-5.61h.01Z" fill="#fff" /><defs><linearGradient id="aeu2nvbty" x1="1.05" y1="2.77" x2="42.38" y2="50.27" gradientUnits="userSpaceOnUse"><stop stop-color="#1EA2D9" /><stop offset="1" stop-color="#232860" /></linearGradient></defs></svg>