<!-- by TradeStack --><svg width="56" height="56" viewBox="0 0 56 56" xmlns="http://www.w3.org/2000/svg"><path fill="#F0F3FA" d="M0 0h56v56H0z"/><path d="M31.77 15.01c.71-.02 1.42-.01 2.13 0 .07 0 .13.04.2.06l.05-.05c.24.08.5.04.74.1 1.06.19 2.12.47 3.11.9.47.2.94.4 1.38.68a12.16 12.16 0 0 1 4.6 4.4c.28.38.49.8.72 1.2.17.4.38.79.51 1.2.2.62.43 1.24.5 1.9a10.23 10.23 0 0 1 .1 4.28 14.84 14.84 0 0 1-1.62 4.73c-.38.65-.8 1.28-1.26 1.87-.37.47-.84.85-1.27 1.27a13.52 13.52 0 0 1-5.17 2.86l-1.24.28c-.29.05-.57.07-.85.13-.4.02-.78.1-1.18.09-.84.01-1.7.06-2.54-.09-.31 0-.61-.12-.93-.16-.3-.05-.58-.15-.88-.2-.26-.04-.51-.15-.78-.18-.2.02-.4.1-.6.17-.94.23-1.9.44-2.87.48-.58.09-1.17.02-1.75.07-.47-.05-.94-.07-1.4-.1-.87-.15-1.74-.26-2.57-.57a12.34 12.34 0 0 1-4.84-2.78c-.42-.42-.86-.84-1.23-1.31-.35-.39-.64-.83-.94-1.25-.18-.26-.3-.56-.48-.82-.43-.83-.82-1.7-1.01-2.61-.19-.58-.26-1.18-.35-1.77.02-.35-.07-.7-.05-1.05.02-.74-.03-1.5.14-2.24a12.93 12.93 0 0 1 2.65-6.02c.24-.25.42-.55.67-.78.17-.22.36-.4.55-.6a13.21 13.21 0 0 1 5.1-3.05c.36-.14.74-.21 1.12-.31.86-.23 1.76-.33 2.64-.44.69 0 1.37 0 2.06.02.3.04.58.1.87.16.46.1.89.3 1.31.5.15.06.31.03.45-.03.46-.19.92-.37 1.4-.47.69-.25 1.42-.3 2.14-.42.22-.02.45.01.67-.05Zm-1.03 1.2c-.4.08-.81.12-1.19.3-.02.1.1.12.17.17.8.45 1.58.96 2.3 1.54l1.17 1.11c.18.22.38.42.57.63.26.34.53.67.75 1.04-.98 0-1.96 0-2.95-.02-.13.01-.28 0-.4.09.01.37.3.66.36 1.02-.15-.12-.18-.32-.27-.48-.1-.18-.14-.37-.26-.53-.07-.1-.2-.08-.3-.09H28c-.08 0-.1.09-.13.14-.01.32 0 .65-.02.97h-.05c-.03-.35 0-.7-.05-1.04-.1-.03-.2-.03-.28-.1l-.05.07c-.32-.05-.63-.02-.94-.04-.58-.01-1.16 0-1.74.01-.2.21-.3.5-.46.75l-.14.27-.1.03c.17-.32.35-.64.49-.98-.08-.02-.15-.06-.23-.06-.92-.03-1.84-.01-2.77-.01-.1 0-.19.02-.28.06.31-.43.6-.88.93-1.29.43-.52.92-.98 1.4-1.45.53-.46 1.08-.9 1.66-1.3.2-.13.45-.24.61-.43-.1-.03-.2-.1-.31-.11-.43-.06-.86-.14-1.3-.13a12.68 12.68 0 0 0-5.2.74c-.64.26-1.28.54-1.87.93-.23.12-.45.26-.67.4-.38.21-.7.5-1 .78-.27.3-.63.49-.89.78a12.5 12.5 0 0 0-2.52 3.62c-.07.14-.14.28-.19.43a12.2 12.2 0 0 0-.83 3.5 14 14 0 0 0 .13 2.8 13.48 13.48 0 0 0 1.2 3.56 11.8 11.8 0 0 0 2.25 2.7c.63.56 1.26 1.12 2 1.52.34.22.7.37 1.04.57.33.14.65.31.99.42.53.24 1.1.36 1.66.54.88.2 1.78.36 2.69.38.58 0 1.17.06 1.76-.03.58-.05 1.16-.1 1.73-.26l-.01-.07c-.17-.13-.38-.2-.53-.35-.3-.11-.55-.31-.82-.48-.64-.45-1.25-.92-1.83-1.45-.3-.33-.64-.64-.94-.97-.34-.4-.65-.81-.95-1.23-.12-.2-.27-.37-.35-.59.2.26.38.53.61.75.95.01 1.9-.02 2.86 0l.14-.07c-.16-.4-.42-.75-.56-1.16.28.4.45.85.74 1.23 1.02-.01 2.04.02 3.06 0 0-.35.03-.7.01-1.04H28c.02.33.03.66.07 1 .35-.01.7.06 1.04.03l.02.08-.01.04c-.35.02-.71-.02-1.06.03-.02.31.03.63-.03.94l-.05.05c-.03-.31-.02-.62-.02-.93-.07-.03-.15-.07-.23-.06-.9 0-1.8.02-2.7.01.05.23.17.43.28.63.24.46.55.87.83 1.3.2.03.48-.08.58.16h-.39c.02.1.04.21.1.3.25.43.56.81.88 1.19.14.14.3.3.52.29.08-.1.12-.22.11-.34 0-.46.04-.93-.04-1.38a.22.22 0 0 0-.13-.06c-.35.02-.7 0-1.04 0-.1-.22.16-.12.27-.11.29 0 .57-.05.85-.05.2-.26.06-.62.12-.92l.07-.04c.02.32 0 .65.02.97h1.17c.24-.01.48.02.72-.02.24-.3.4-.65.6-.98.13-.3.34-.59.39-.93-.47-.01-.93-.07-1.4-.05-.1 0-.21.03-.3-.04v-.07c.57.02 1.13-.02 1.7 0a.2.2 0 0 0 .2-.14l.46-.99c-.1.36-.26.7-.35 1.07.08.02.15.05.22.09-.11.12-.35.04-.42.2-.24.5-.5.98-.75 1.46-.05.1-.15.21-.12.35.19.07.4.03.6.05.2-.02.4.07.6.01.27-.06.59.06.84-.11.4-.28.79-.59 1.16-.9l.59-.62c.09-.09.22-.21.14-.35h-1.52c-.38.05-.77 0-1.16-.02.04-.08.1-.11.18-.1h1.04c.12 0 .24.07.36.03.19-.05.38-.02.57.01.25-.05.5-.03.76-.03-.17.34-.43.6-.67.89-.22.27-.47.5-.7.77-.89.93-1.94 1.7-3.05 2.35l-.01.12c.36.14.75.22 1.13.28.42.03.83.13 1.25.13.6 0 1.2.02 1.8-.02.44-.06.88-.12 1.31-.21.34-.07.66-.18 1-.25.45-.14.89-.32 1.33-.48.48-.21.94-.48 1.4-.75.42-.3.84-.6 1.2-.96a11.2 11.2 0 0 0 3.4-4.3c.22-.43.36-.9.54-1.35a13.63 13.63 0 0 0 .62-3.16 10.1 10.1 0 0 0-.43-3.64 8.5 8.5 0 0 0-1.01-2.53c-.5-.7-.98-1.4-1.58-2-.7-.84-1.55-1.52-2.43-2.14a11.7 11.7 0 0 0-2.27-1.12 13.06 13.06 0 0 0-4.84-.88c-.52-.07-1.06.07-1.59.1Zm-2.83.66c-.02.29 0 .58-.03.87 0 .34-.05.69.03 1.02.56.02 1.12 0 1.68 0l-.09.11c-.53.02-1.07-.06-1.59.1-.02.23-.05.46-.04.7 0 .39-.03.78.04 1.17.08.02.15.04.23.04.9.02 1.8-.03 2.7-.05-.07-.31-.26-.58-.4-.87-.15-.32-.33-.63-.51-.93-.08-.13-.24-.15-.38-.18l.09-.22c-.17-.3-.35-.58-.57-.84-.25-.35-.6-.62-.92-.89-.07-.06-.16-.03-.24-.03Zm-.36.05c-.33.26-.63.56-.87.9-.2.3-.45.58-.55.93.54 0 1.09.05 1.63 0l.05-.07c.02-.53-.1-1.06 0-1.58 0-.13-.13-.25-.26-.18Zm-.67.17c-.36.13-.72.26-1.05.45-.6.3-1.2.61-1.74 1.02-.08.03-.06.12-.07.18.29.03.57.01.86.03.32-.01.62.05.94.03.19-.06.26-.27.38-.41.27-.46.62-.86.92-1.3-.08 0-.16-.03-.24 0Zm1.77-.02c.12.29.38.47.53.72.24.31.46.63.68.96.43.02.86 0 1.3 0 .2 0 .42.05.6-.07-.31-.3-.71-.5-1.07-.75a9.4 9.4 0 0 0-2.04-.86Zm-5.39 2.06c-.31.26-.63.51-.91.8-.28.29-.6.55-.79.9.24.06.49.07.73.05.68 0 1.35.04 2.02-.01.15 0 .35.08.43-.1.34-.6.72-1.17 1.02-1.79-.17-.03-.34-.09-.51-.08h-1.56c-.17 0-.3.13-.43.23Zm2.69-.21c-.39.57-.75 1.15-1.07 1.76-.04.07.02.14.02.21.72-.03 1.44.04 2.16-.03.23 0 .47 0 .7-.02.06-.47.02-.96.04-1.43-.01-.15.04-.32-.07-.44-.58-.17-1.19-.07-1.78-.05Zm4.09.02c0 .06.02.12.05.18l.6 1.13c.09.2.23.38.3.6.4.02.8-.03 1.19.03.31.03.63 0 .94.01.36.02.7-.05 1.07-.05l.02-.08c-.09-.22-.28-.38-.43-.55-.3-.28-.61-.54-.92-.8-.18-.2-.4-.35-.65-.44-.56-.17-1.15-.08-1.73-.1-.15 0-.31-.02-.44.07Zm-8.12 16.55c.02.06.04.12.08.17.26.35.56.66.89.93.33.28.65.57 1.02.79.1.05.2.04.3.04.54-.02 1.09.03 1.63 0l.12-.06-.53-.92c-.22-.32-.4-.68-.64-.98-.7-.02-1.42-.03-2.13-.02-.24.04-.5.04-.74.05Zm2.4 2.1c.11.19.3.3.48.42.52.32 1.06.59 1.6.86.21.07.42.2.66.18a.55.55 0 0 0-.1-.25c-.26-.39-.54-.77-.81-1.16-.23-.18-.54-.08-.8-.1-.35-.03-.7.05-1.04.05Zm3.7.33c-.02.48.08.97.05 1.45.2 0 .4-.06.56-.19.43-.4.78-.9 1.1-1.4.05-.05.06-.13.08-.2-.56-.02-1.11-.07-1.67-.05-.15.06-.1.26-.11.39Zm2-.3c-.28.28-.47.64-.71.95-.08.13-.16.25-.22.39.37 0 .68-.25 1.02-.36.37-.2.75-.38 1.1-.6.16-.13.38-.19.44-.4a8.54 8.54 0 0 0-.65-.02c-.18 0-.35-.06-.52-.02-.16.03-.35-.1-.47.05Z" fill="#FEC977"/><path d="M33.5 33 39 23h4v10h-3v-2h-2.5l-1 2h-3Zm5-4H40v-3l-1.5 3ZM22.5 23H14l-1 3h3l-2 7h3l2-7h2.5l1-3ZM26 23h-3v10h3l2.5-4v4h3l5-10h-3l-2 4-.5-4h-2.5L26 27v-4Z" fill="#FD212D"/></svg>