<!-- by TradeStack --><svg width="56" height="56" viewBox="0 0 56 56" xmlns="http://www.w3.org/2000/svg"><path fill="#F0F3FA" d="M0 0h56v56H0z"/><path fill-rule="evenodd" d="M28.08 6c-.2 1.99-1.6 6.83-5.61 10.32-5.01 4.36-8.47 9.76-8.47 16.6C14 39.77 20.28 46 28.08 46S42 39.72 42 32.92s-5.03-13.04-8.23-16.6l-.36-.4c-3.02-3.37-5.33-5.94-5.33-9.92Zm-.02 3.57a14.24 14.24 0 0 1-4.6 8.47c-4.12 3.59-6.96 8.02-6.96 13.65 0 5.63 5.16 10.74 11.56 10.74 6.41 0 11.44-5.16 11.44-10.74 0-5.59-4.13-10.71-6.76-13.65l-.3-.32c-2.48-2.77-4.38-4.88-4.38-8.15Z" fill="#00652E"/><path d="M24.47 17.94a14.13 14.13 0 0 0 3.6-6.56 14.8 14.8 0 0 0 3.32 6.56c2.59 2.79 6.92 7.24 6.92 12.13 0 9.46-8.32 10.81-9.77 10.81-1.44 0-11-1.15-11-9.14 0-8 3.91-10.66 6.93-13.8Z" fill="url(#ags2cam33)"/><g opacity=".4" fill="#D2DF28"><path opacity=".3" d="M29.7 20.53c2.57 1.9 3 5.4.97 7.82a6.22 6.22 0 0 1-8.35.95c-2.57-1.9-3.01-5.4-.97-7.82a6.22 6.22 0 0 1 8.34-.95Z"/><path opacity=".5" d="M28.74 21.67c1.9 1.4 2.23 4 .72 5.8a4.61 4.61 0 0 1-6.19.7c-1.9-1.4-2.23-4-.72-5.8a4.61 4.61 0 0 1 6.19-.7Z"/><path opacity=".5" d="M27.95 22.6a2.8 2.8 0 0 1 .51 4.12 3.28 3.28 0 0 1-4.4.5 2.8 2.8 0 0 1-.5-4.11 3.28 3.28 0 0 1 4.39-.5Z"/><path opacity=".5" d="M27.47 23.17c1.03.76 1.2 2.15.4 3.11a2.48 2.48 0 0 1-3.33.38 2.12 2.12 0 0 1-.39-3.11 2.48 2.48 0 0 1 3.32-.38Z"/></g><path d="M18.4 26.36a3.84 3.84 0 0 0-.98 4.65c.41-2.52 5.73-4.95 6.79-5.47 1.06-.53 6-3.72 6-7.15 0-2.74-1.2-4.85-1.81-5.56.19.55.31 2.4-.69 5.3-1.25 3.63-6.97 6.12-9.32 8.23Z" fill="url(#bgs2cam33)"/><path d="M38.41 29.99c-5.84 8-13.84 9.36-17.1 9.04 9.61 2.72 17.82-6.2 17.82-7.1 0-.73-.48-1.6-.72-1.94Z" fill="url(#cgs2cam33)"/><defs><linearGradient id="ags2cam33" x1="19.41" y1="20.84" x2="33.56" y2="39.88" gradientUnits="userSpaceOnUse"><stop offset=".02" stop-color="#007D37"/><stop offset=".17" stop-color="#6EB842"/><stop offset=".53" stop-color="#28963E"/><stop offset=".76" stop-color="#006931"/><stop offset=".92" stop-color="#288234"/><stop offset="1" stop-color="#909F3A"/></linearGradient><linearGradient id="bgs2cam33" x1="30.03" y1="15.35" x2="18.71" y2="31.17" gradientUnits="userSpaceOnUse"><stop stop-color="#2C318B"/><stop offset=".27" stop-color="#4E96D1"/><stop offset=".49" stop-color="#F4F6F1"/><stop offset=".67" stop-color="#599DD8"/><stop offset="1" stop-color="#2C318C"/></linearGradient><linearGradient id="cgs2cam33" x1="26.66" y1="38.92" x2="35.08" y2="30.89" gradientUnits="userSpaceOnUse"><stop stop-color="#2C318C"/><stop offset="1" stop-color="#5A9ED5"/></linearGradient></defs></svg>