<?xml version='1.0' encoding='utf-8'?>
<!-- by TradeStack -->
<svg width="56" height="56" viewBox="0 0 56 56" xmlns="http://www.w3.org/2000/svg"><path fill="#F0F3FA" d="M0 0h56v56H0z" /><path d="M13.08 16h1.23l-1.97 3.8a.38.38 0 0 1-.12.13.4.4 0 0 1-.18.07l-.9.09c-.14.01-.17-.04-.11-.16L13.08 16ZM19.14 16h1.22l-2.7 5.2a.12.12 0 0 1-.15.04l-.79-.38c-.06-.04-.08-.09-.05-.15L19.14 16ZM25.2 16h1.37c-.48.49-.72 1-.73 1.56 0 .34.07.66.22.94a6582.51 6582.51 0 0 0 7.4 14.28.1.1 0 0 1-.01.05.1.1 0 0 1-.1.03l-2.5-.7c-.1-.02-.12.01-.08.1.81 1.43.35 3.44-1.25 4.17-.1.04-.1.08 0 .1l11.25 3.1c.27.07.7.12.97.25.16.07.15.11-.03.11-8.86-.01-17.62 0-26.26.01-.48 0-.94-.02-1.37-.05-.11 0-.12-.03-.01-.07.22-.08.49-.08.7-.14l13.63-3.73c1.19-.32 2-1.18 1.94-2.4-.05-1.1-1-2.05-2.16-2.13a3.3 3.3 0 0 0-1.1.15 680.56 680.56 0 0 1-4.5 1.24.08.08 0 0 1-.04-.03.08.08 0 0 1-.01-.08l4.93-9.48a.32.32 0 0 0 0-.29l-2.31-4.47c-.02-.02-.03-.02-.04 0l-3.48 6.7a.02.02 0 0 1-.03 0l-.65-1.02a.07.07 0 0 1 0-.07L25.19 16ZM29.47 16h1.33l4.18 8c.05.1.05.2 0 .3l-.52.88a.06.06 0 0 1-.06.03.07.07 0 0 1-.05-.03L29.47 16ZM35.64 16h1.24l2.44 4.69c.02.02.02.06.01.09a.12.12 0 0 1-.06.07l-.66.34c-.15.08-.26.04-.33-.1L35.64 16ZM41.89 16h1.03l2.05 3.91c.07.14.03.2-.13.18l-.87-.1a.4.4 0 0 1-.18-.06.39.39 0 0 1-.13-.14l-1.82-3.52a.15.15 0 0 0-.08-.07.15.15 0 0 1-.05-.05c-.04-.04-.03-.08.03-.1l.15-.05Z" fill="#243588" /><path d="M27.98 24.5c.02-.04.05-.04.07 0l3.5 6.7a.06.06 0 0 1 0 .07l-.04.02h-.04c-.83-.22-1.65-.44-2.45-.67a3.55 3.55 0 0 0-1.91-.02 133.2 133.2 0 0 0-2.6.7.05.05 0 0 1-.03-.04v-.02l3.5-6.73Z" fill="#8DC641" /></svg>