<!-- by TradeStack --><svg width="56" height="56" viewBox="0 0 56 56" xmlns="http://www.w3.org/2000/svg"><path fill="#F0F3FA" d="M0 0h56v56H0z"/><path d="M28.02 28.17a267.4 267.4 0 0 1-5.97-1.75L29.6 19l-11.28-2.8 5.2-5.2 16.95 4.57-12.46 12.6Z" fill="#66C5EC"/><path d="m29.57 34.06-1.53-5.9 12.4-12.55 4.56 17-5.15 5.22-2.97-11.16-7.3 7.4Z" fill="#33B2E5"/><path d="M15.5 40.6 11 23.66l7.66 1.97 2.41 9.36 9.38 2.55L32.5 45l-17-4.4Z" fill="#003D6D"/><path d="m15.81 18.64-4.72 5.02 7.62 2 4.62-5-7.52-2.02Z" fill="#668BA7"/><path d="m35.35 32.88-4.91 4.7 2.07 7.4 4.87-4.72-2.03-7.38Z" fill="#33648A"/><path d="m29.57 34.07-1.53-5.93-6-1.73 1.73 6.08 5.8 1.58Z" fill="#009FDF"/></svg>