<!-- by TradeStack --><svg width="56" height="56" viewBox="0 0 56 56" xmlns="http://www.w3.org/2000/svg"><path fill="#F0F3FA" d="M0 0h56v56H0z"/><path d="m28 9-6 10h12L28 9Z" fill="#026F4A"/><path d="M25.08 24.4c-.78 0-1.42.04-1.92.14-.49.1-.89.3-1.21.61-.31.31-.56.75-.76 1.31-.18.55-.35 1.27-.5 2.18H20l.17-5.64h15.66l.17 5.64h-.68c-.16-.9-.34-1.63-.54-2.18a3.2 3.2 0 0 0-.73-1.3c-.3-.32-.7-.52-1.21-.62-.5-.1-1.15-.14-1.95-.14H30v17.02c0 2.02.41 2.97 2.06 2.97v.6H24v-.6C25.7 44.39 26 43.14 26 41V24.4h-.92Z"/></svg>