<!-- by TradeStack --><svg width="56" height="56" viewBox="0 0 56 56" xmlns="http://www.w3.org/2000/svg"><path fill="#F0F3FA" d="M0 0h56v56H0z"/><path fill-rule="evenodd" d="M27.22 14.34a23 23 0 0 1-.38-.65.04.04 0 0 0-.05.01v.03l.04 1.66c0 .02 0 .04-.02.06a.1.1 0 0 1-.07.03h-.2a.1.1 0 0 1-.06-.02.1.1 0 0 1-.03-.07l-.07-2.24a.09.09 0 0 1 .03-.07.09.09 0 0 1 .06-.02h.3a.16.16 0 0 1 .14.08 1234.72 1234.72 0 0 0 1 1.66.04.04 0 0 0 .02-.04l-.05-1.66c0-.03.01-.05.03-.07a.1.1 0 0 1 .06-.02l.2-.01a.1.1 0 0 1 .09.06.1.1 0 0 1 0 .03l.07 2.25a.09.09 0 0 1-.05.08H27.95a.16.16 0 0 1-.14-.08l-.6-1Zm1.39.45a.08.08 0 0 1 .03-.07.08.08 0 0 1 .06-.02l.24.04c.03 0 .06.02.08.04.02.02.03.05.03.08.02.31.26.43.72.35a.32.32 0 0 0 .2-.12.33.33 0 0 0 .06-.22c0-.1-.05-.17-.14-.22l-.83-.38a.51.51 0 0 1-.31-.37c-.22-1.08 1.6-1.18 1.73-.2a.14.14 0 0 1-.05.12.15.15 0 0 1-.12.04l-.07-.01a.26.26 0 0 1-.2-.19c-.11-.39-.66-.37-.85-.11-.13.18-.07.33.2.44l.15.06c.28.1.72.27.83.48.17.32.07.7-.26.9-.54.3-1.46.1-1.5-.64Zm2.7.93a1.73 1.73 0 0 0 .28.05.16.16 0 0 0 .08-.11l.33-1.88c0-.02.01-.03.03-.05a.08.08 0 0 1 .06-.01l.56.1a.12.12 0 0 0 .11-.06l.02-.04.02-.08a.13.13 0 0 0-.11-.15 73.81 73.81 0 0 0-1.73-.26.13.13 0 0 0-.05.09l-.01.07a.11.11 0 0 0 .05.12l.04.02.55.1c.03 0 .04.01.06.03v.06l-.33 1.87a.15.15 0 0 0 .03.13Zm-6.64-.04a1.02 1.02 0 0 0 1.17-.44c.09-.13.15-.28.19-.44a1.4 1.4 0 0 0-.43-1.33c-.12-.1-.26-.17-.4-.22a1.02 1.02 0 0 0-1.18.44 1.4 1.4 0 0 0 .25 1.77c.12.1.25.17.4.22Zm.4-.29c-.38.06-.75-.31-.83-.82-.08-.52.16-.98.54-1.04.39-.06.76.31.84.82.08.52-.16.98-.54 1.04Zm-2.7-1.66c-.75.13-1.03.87-.84 1.54.2.66.84 1.14 1.54.85.41-.16.6-.47.59-.9a.08.08 0 0 0-.04-.07.08.08 0 0 0-.07 0l-.23.1a.12.12 0 0 0-.07.1l-.02.16a.3.3 0 0 1-.07.16c-.53.53-1.06.01-1.22-.52-.15-.54.02-1.25.75-1.08.05 0 .1.04.14.1.05.05.09.09.1.12a.12.12 0 0 0 .13.05l.24-.03.04-.02.02-.03v-.07a.88.88 0 0 0-1-.46Zm11.9 2.67.02-.04c0-.1.02-.2.05-.32.06-.25.12-.52-.04-.78a.08.08 0 0 1 .02-.11h.01c.32-.2.53-.32.42-.77-.1-.42-.7-.56-1.2-.68l-.19-.05a.13.13 0 0 0-.16.1l-.61 2.09a.13.13 0 0 0 .09.16l.13.04c.03 0 .07 0 .1-.02a.14.14 0 0 0 .07-.08l.22-.74a.19.19 0 0 1 .1-.12.2.2 0 0 1 .16 0l.34.15c.08.03.14.1.17.17.04.08.05.16.02.24l-.14.5a.18.18 0 0 0 .1.2l.2.1a.1.1 0 0 0 .1 0 .1.1 0 0 0 .02-.04Zm-.73-2.31a.11.11 0 0 0-.05.07l-.14.47a.1.1 0 0 0 .01.09.11.11 0 0 0 .07.05l.41.12c.1.03.22.02.31-.02a.3.3 0 0 0 .18-.19l.02-.06a.3.3 0 0 0-.05-.25.47.47 0 0 0-.26-.17l-.41-.12h-.09Zm2.57 2.32c-.13.27-.4.32-.66.21-.26-.1-.41-.33-.3-.61a29.1 29.1 0 0 1 .64-1.49.12.12 0 0 0-.03-.08.11.11 0 0 0-.04-.03l-.17-.07a.11.11 0 0 0-.15.06l-.65 1.51-.01.05c-.06.46.14.79.58.97.43.18.82.1 1.1-.26a.18.18 0 0 0 .03-.04l.66-1.51a.1.1 0 0 0 0-.09.11.11 0 0 0-.06-.06l-.17-.07a.12.12 0 0 0-.13.03 28.06 28.06 0 0 1-.64 1.48Zm-16.26.96c-.42.21-.81.15-1.13-.18a.18.18 0 0 1-.03-.04l-.76-1.47a.11.11 0 0 1 .05-.15l.16-.08a.11.11 0 0 1 .1 0 .12.12 0 0 1 .06.05c.25.52.5.99.72 1.4.15.27.42.3.67.17.26-.13.39-.36.25-.64a27.99 27.99 0 0 0-.73-1.43.12.12 0 0 1 .02-.1.11.11 0 0 1 .04-.02l.16-.08a.11.11 0 0 1 .09 0 .11.11 0 0 1 .06.05l.76 1.47.02.04c.09.45-.1.8-.51 1Zm17.98.4c-.76-.03-.73-.76-.44-1.24s.94-.84 1.3-.19c.03.04.04.1.03.17l-.02.16a.12.12 0 0 0 .04.12l.2.15a.08.08 0 0 0 .07.01.08.08 0 0 0 .05-.05c.13-.42.02-.76-.33-1.02-.6-.45-1.35-.16-1.7.43-.37.6-.29 1.38.4 1.7.4.18.76.12 1.07-.19a.08.08 0 0 0 .02-.07.08.08 0 0 0-.04-.06l-.23-.1a.12.12 0 0 0-.13.02l-.13.1a.3.3 0 0 1-.16.05ZM18 18.41a.64.64 0 0 1-.1.05.12.12 0 0 1-.14-.03l-.5-.67a.24.24 0 0 0-.09-.07l-1.36-.6a.06.06 0 0 1-.04-.05.05.05 0 0 1 .03-.05l.2-.15a.18.18 0 0 1 .2-.01 358.34 358.34 0 0 1 1 .5l.03-.03-.18-1.08a.17.17 0 0 1 .07-.17l.2-.15a.06.06 0 0 1 .06 0 .06.06 0 0 1 .04.04l.14 1.47c0 .04.02.08.05.11l.48.67a.11.11 0 0 1-.01.15.83.83 0 0 1-.08.07Zm23.15-.65a109.97 109.97 0 0 0-1.25-1.06.13.13 0 0 0-.18.01l-.05.06a.11.11 0 0 0-.03.09.12.12 0 0 0 .04.07l.42.37c.02.01.03.03.03.05 0 .02 0 .04-.02.06l-1.25 1.43a.15.15 0 0 0-.04.12l.1.1.12.1a.16.16 0 0 0 .12-.06l1.25-1.44a.08.08 0 0 1 .05-.03c.03 0 .05 0 .06.02l.43.36a.12.12 0 0 0 .13.02l.03-.03.05-.06a.13.13 0 0 0-.01-.18Zm-26.2 0 .25-.25a.05.05 0 0 1 .05-.01.05.05 0 0 1 .02.04l.12 1.19a.04.04 0 0 0 .04.04l1.6.24a.05.05 0 0 1 .03.04.05.05 0 0 1-.01.04l-.29.28-.02.01h-.02l-1.27-.2-.02.01a.05.05 0 0 0-.04.05l.04.4s0 .02.02.03l.5.49a.04.04 0 0 1 0 .06l-.24.23h-.01a.05.05 0 0 1-.06 0L14 18.82a.05.05 0 0 1 0-.07l.22-.2a.05.05 0 0 1 .03-.02.05.05 0 0 1 .03.01l.73.72a.05.05 0 0 0 .08-.01v-.03l-.14-1.42a.05.05 0 0 1 .02-.04Zm24.86 2 1.67-1.52a.1.1 0 0 1 .13 0l.15.16c.03.04.03.1 0 .13l-1.67 1.53a.1.1 0 0 1-.13 0l-.15-.17a.09.09 0 0 1 0-.13Zm3.28.42a.99.99 0 0 0-.48-.7 1.14 1.14 0 0 0-.43-.15 1.44 1.44 0 0 0-1.3.56c-.1.13-.17.27-.2.42a.99.99 0 0 0 .45 1.16c.12.08.27.13.42.15a1.44 1.44 0 0 0 1.3-.56c.1-.13.17-.28.2-.43.05-.15.06-.3.04-.45Zm-.44-.23c.22.31.04.8-.4 1.1-.44.29-.97.27-1.18-.05-.22-.31-.04-.8.4-1.1.44-.29.97-.27 1.18.05ZM15.01 21.6c-.15.26-.42.43-.73.48-.32.06-.66-.01-.94-.18-.3-.18-.5-.45-.6-.75-.1-.3-.06-.6.1-.86.15-.25.42-.42.73-.48.32-.05.66.01.94.19.3.17.5.44.6.74.1.3.06.61-.1.86Zm-1.45-.06c.45.27.98.23 1.18-.1.2-.32 0-.8-.45-1.08-.45-.27-.98-.23-1.18.1-.2.32 0 .8.45 1.08Zm29.36 1.1a24.2 24.2 0 0 1 .5-.55.04.04 0 0 0-.02-.04h-.03l-1.58.55h-.07a.09.09 0 0 1-.04-.05l-.07-.19a.1.1 0 0 1 .06-.12l2.14-.74a.09.09 0 0 1 .07 0 .09.09 0 0 1 .04.05l.1.28a.15.15 0 0 1-.04.16l-.8.86a29.85 29.85 0 0 1-.5.55v.03a.04.04 0 0 0 .05.01l1.59-.55a.09.09 0 0 1 .1.05l.07.19a.1.1 0 0 1-.05.12L42.3 24a.09.09 0 0 1-.07 0 .09.09 0 0 1-.05-.06l-.09-.27a.15.15 0 0 1 .04-.16l.79-.87Zm-28.89 1 .05-.13.04-.14a.16.16 0 0 0-.1-.09l-1.83-.55a.08.08 0 0 1-.05-.1l.16-.53a.11.11 0 0 0-.07-.14l-.08-.02h-.1a.13.13 0 0 0-.06.08 125.96 125.96 0 0 0-.48 1.55.13.13 0 0 0 0 .1c.02.03.05.05.08.06l.08.02a.12.12 0 0 0 .14-.07l.17-.53a.08.08 0 0 1 .1-.05l1.82.56a.16.16 0 0 0 .13-.01ZM37.24 30.06a6.64 6.64 0 0 0 0-6.12 8.14 8.14 0 0 0-2.17-2.6 10.45 10.45 0 0 0-3.24-1.73A12.2 12.2 0 0 0 28 19c-2.65 0-5.2.84-7.07 2.34A7.29 7.29 0 0 0 18 27a7.29 7.29 0 0 0 2.93 5.66A11.4 11.4 0 0 0 28 35c1.31 0 2.61-.2 3.83-.6 1.21-.41 2.31-1 3.24-1.74a8.14 8.14 0 0 0 2.17-2.6Zm-3.43-5.6a13.24 13.24 0 0 1 2.1-1.39c-1.65.56-3.22.95-4.7 1.2-2.53.41-5.12.33-7.79-.26a29.5 29.5 0 0 1-3.5-1c2.55 1.31 4.5 3.33 6.01 5.74a13.98 13.98 0 0 1 2.08 5.66c.45-3.84 2.8-7.47 5.8-9.94Z" fill="#46B035"/><path d="M35.79 34.41c-2.32 1.44-5.15 1.93-7.79 1.94-2.64 0-5.47-.5-7.79-1.93-2.43-1.51-4-3.72-4.67-6.64a5.9 5.9 0 0 1-.1-.72.1.1 0 0 0-.04-.03l-.06-.03a.05.05 0 0 0-.07.03v.02a10.8 10.8 0 0 0 3.53 7.55c2.1 1.87 4.84 2.7 7.55 2.98.64.07 1.19.1 1.65.1.46 0 1.02-.03 1.66-.1 2.7-.29 5.45-1.1 7.54-2.98A10.8 10.8 0 0 0 40.71 27h-.05l-.06.01a.1.1 0 0 0-.04.04 10.19 10.19 0 0 1-4.77 7.36ZM46 27.05v.39l-.12.7a15.34 15.34 0 0 1-7.55 11.28 21.08 21.08 0 0 1-8.45 2.49c-1.18.12-2.4.12-3.62.01a21.34 21.34 0 0 1-8.07-2.21 15.16 15.16 0 0 1-7.78-10.03c-.16-.62-.3-1.45-.41-2.48v-.1c0-.04.03-.08.07-.1a.07.07 0 0 1 .06.01l.02.02.01.03a15.4 15.4 0 0 0 5.1 9.27c3.23 2.82 7.38 4 11.6 4.3.62.05 1.28.06 2 .02 2.1-.1 4.13-.47 6.06-1.1a15.67 15.67 0 0 0 10.27-9.84c.3-.85.51-1.72.64-2.6 0-.06.02-.1.05-.1.03 0 .07 0 .12.04ZM28 38.49c.67 0 1.5-.06 2.48-.18 1.88-.22 3.62-.69 5.21-1.4a12.62 12.62 0 0 0 7.53-9.88.08.08 0 0 1 .06-.02l.04.01s.02 0 .02.02l.01.02c-.04.58-.13 1.13-.25 1.66-1.35 5.87-5.53 9.63-11.18 10.7-1.26.24-2.62.43-3.92.43-1.3 0-2.66-.19-3.92-.43-5.65-1.06-9.82-4.82-11.18-10.7a11.35 11.35 0 0 1-.24-1.68l.02-.01h.04a.08.08 0 0 1 .06 0 .08.08 0 0 1 .03.06 12.62 12.62 0 0 0 7.5 9.82c1.6.71 3.34 1.18 5.21 1.4.99.12 1.81.18 2.48.18Z" fill="#46B035"/></svg>