<?xml version='1.0' encoding='utf-8'?>
<!-- by TradeStack -->
<svg width="56" height="56" viewBox="0 0 56 56" xmlns="http://www.w3.org/2000/svg"><path fill="#F0F3FA" d="M0 0h56v56H0z" /><path d="M11 23H4v2h2v8h3v-8h2v-2Z" fill="#332D2B" /><path fill-rule="evenodd" d="M48 23c-2.2 0-4 1.66-4 3.71v2.58c0 2.05 1.8 3.71 4 3.71s4-1.66 4-3.71v-2.58c0-2.05-1.8-3.71-4-3.71Zm0 1.55c-.71 0-1.5 1.14-1.5 2.56v1.78c0 1.41.79 2.56 1.5 2.56s1.5-1.14 1.5-2.56v-1.78c0-1.42-.79-2.56-1.5-2.56Z" fill="#332D2B" /><path d="M52 28.92c-.9-.21-1.6-.42-2.5-.6v.57c0 1.42-.79 2.56-1.5 2.56s-1.5-1.14-1.5-2.56V27.8c-.9-.17-1.6-.32-2.5-.47v1.96c0 2.05 1.8 3.71 4 3.71s4-1.66 4-3.71v-.37Z" fill="#0096D8" /><path fill-rule="evenodd" d="M36 23h3.94a2.72 2.72 0 0 1 1.64 4.89 2.72 2.72 0 0 1-1.3 5.11H36V23Zm2 1.43h1.17a1.3 1.3 0 0 1 0 2.58H38v-2.58Zm0 4.56h1.4a1.3 1.3 0 0 1 0 2.58H38V29Z" fill="#332D2B" /><path d="M42.32 27.03c-.18.33-.43.63-.74.86a2.72 2.72 0 0 1-1.3 5.11H36v-6.71c.71.06 1.3.13 2 .2v.52h1.17c.32 0 .6-.11.83-.3.78.1 1.55.2 2.32.32Zm-2.92 1.96H38v2.58h1.4a1.3 1.3 0 1 0 0-2.58Z" fill="#0096D8" /><path fill-rule="evenodd" d="M31 23c-2.2 0-4 1.66-4 3.71v2.58c0 2.05 1.8 3.71 4 3.71s4-1.66 4-3.71v-2.58c0-2.05-1.8-3.71-4-3.71Zm0 1.55c-.71 0-1.5 1.14-1.5 2.56v1.78c0 1.41.79 2.56 1.5 2.56s1.5-1.14 1.5-2.56v-1.78c0-1.42-.79-2.56-1.5-2.56Z" fill="#332D2B" /><path d="M34.96 26.18c-.93-.06-1.69-.15-2.62-.18.07.33.16.73.16 1.1v1.8c0 1.4-.79 2.55-1.5 2.55s-1.5-1.14-1.5-2.56v-1.78c0-.4.08-.76.17-1.1l-2.6-.01c-.04.24-.07.46-.07.71v2.58c0 2.05 1.8 3.71 4 3.71s4-1.66 4-3.71v-2.58c0-.18-.01-.36-.04-.53Z" fill="#0096D8" /><path d="M19 23h2.54l1.73 4.26L24.98 23H27l-3.02 6.62.02.05V33h-2v-3.33h.03L19 23Z" fill="#332D2B" /><path d="M25.7 25.89 24 29.67V33h-2v-3.33l-1.57-3.51 2.33-.16.51 1.26.53-1.3c.66-.03 1.22-.06 1.9-.07ZM9 27.91c-1 .2-2 .41-3 .64V33h3v-5.09Z" fill="#0096D8" /><path fill-rule="evenodd" d="M15 23c-2.2 0-4 1.66-4 3.71v2.58c0 2.05 1.8 3.71 4 3.71s4-1.66 4-3.71v-2.58c0-2.05-1.8-3.71-4-3.71Zm0 1.55c-.71 0-1.5 1.14-1.5 2.56v1.78c0 1.41.79 2.56 1.5 2.56s1.5-1.15 1.5-2.56v-1.78c0-1.42-.79-2.56-1.5-2.56Z" fill="#332D2B" /><path d="M18.98 26.38c-.84.07-1.68.15-2.51.24.02.16.03.32.03.49v1.78c0 1.41-.79 2.56-1.5 2.56s-1.5-1.14-1.5-2.56V27c-.84.12-1.67.24-2.5.38v1.92c0 2.05 1.8 3.71 4 3.71s4-1.66 4-3.71v-2.58c0-.11 0-.22-.02-.33Z" fill="#0096D8" /></svg>