<!-- by TradeStack --><svg width="56" height="56" viewBox="0 0 56 56" xmlns="http://www.w3.org/2000/svg"><path fill="url(#a)" d="M0 0h56v56H0z"/><path fill-rule="evenodd" d="M19.73 42.7 11.46 28l8.27-14.7h16.54L44.54 28l-8.27 14.7H19.73ZM10 28l9-16h18l9 16-9 16H19l-9-16Zm10.48 12.5-6.8-12.93 7.53-12.51 14.31.43 6.8 12.94-7.53 12.51-14.31-.43Zm-8.26-12.98 8.3-13.78 15.77.48 7.49 14.26-8.3 13.78-15.77-.48-7.49-14.26Zm4.03-.16 5.34 10.77 11.75.63 6.41-10.12-5.34-10.77-11.75-.63-6.41 10.12ZM22 15.9 14.8 27.3l6 12.1 13.2.7 7.2-11.38-6-12.1-13.2-.7Zm.08 19.73-3.47-9.08 5.91-7.62 9.4 1.44 3.47 9.08-5.91 7.62-9.4-1.44Zm-4.92-9.3 6.83-8.8 10.84 1.67 4 10.47-6.82 8.8-10.83-1.67-4.02-10.47Zm5.24 5.88.28 1.12 5.12 1.48-5.4-2.6Zm-.25-.98-.5-6.1-.81.8 1.31 5.3Zm.2-6.81 4.9-3.5-1.09-.32-3.8 3.82Zm5.85-3.23 5.4 2.6-.28-1.12-5.12-1.48Zm5.65 3.58.5 6.1.81-.8-1.31-5.3Zm-.2 6.81-4.9 3.5 1.09.32 3.8-3.82ZM25.8 19.15l-6.37 6.38 2.2 8.85 8.57 2.47 6.37-6.38-2.2-8.85-8.57-2.47Zm-2.37 12.12-.48-5.7 4.57-3.27 5.05 2.43.48 5.7-4.57 3.27-5.05-2.43Z" fill="#fff"/><defs><linearGradient id="a" x1="10.42" y1="9.71" x2="68.15" y2="76.02" gradientUnits="userSpaceOnUse"><stop stop-color="#1A1E21"/><stop offset="1" stop-color="#06060A"/></linearGradient></defs></svg>