<?xml version='1.0' encoding='utf-8'?>
<!-- by TradeStack -->
<svg width="56" height="56" viewBox="0 0 56 56" xmlns="http://www.w3.org/2000/svg"><path fill="url(#a)" d="M0 0h56v56H0z" /><path d="m13 21-3 1v2H8v3h2v3c0 3 2.91 4 4.5 4 1.27 0 2.15-.33 2.5-.5l-1.06-3c-.42.4-1.09.5-1.44.5-1.06 0-1.5-1-1.5-1.5V27h3v-3h-3v-3ZM32 24h-3v10h3v-5.5c.8-2.64 2.33-2.2 3-1.65l2-3.3a5.72 5.72 0 0 0-2.5-.55c-1.2 0-2.17 1.47-2.5 2.2V24ZM21 28.82V24h-3v6.43c0 2.14 2 3.57 4 3.57 1 0 2-.71 2-.9a3.08 3.08 0 0 1-2 2.9v3c4 0 5-3.57 5-5.36V24h-3v4.82c0 .54 0 1.6-1.5 1.6s-1.5-1.06-1.5-1.6Z" fill="#fff" /><path d="M48 29c0-3.87-3.15-7-7.03-7l.03 5c1 0 2 1 2 2h5Z" fill="url(#b)" /><path d="M48 29c0 3.87-3.15 7-7.03 7v-5C42 31 43 30 43 29h5Z" fill="url(#c)" /><path d="M36 29a5 5 0 0 1 5-5v3a2 2 0 1 0 0 4v3a5 5 0 0 1-5-5Z" fill="#fff" /><defs><linearGradient id="a" x1="10.42" y1="9.71" x2="68.15" y2="76.02" gradientUnits="userSpaceOnUse"><stop stop-color="#1A1E21" /><stop offset="1" stop-color="#06060A" /></linearGradient><linearGradient id="b" x1="42.05" y1="29" x2="46.36" y2="24.68" gradientUnits="userSpaceOnUse"><stop stop-color="#6CAEEE" /><stop offset="1" stop-color="#69A9E7" stop-opacity=".4" /></linearGradient><linearGradient id="c" x1="42.05" y1="30.08" x2="46.37" y2="33.32" gradientUnits="userSpaceOnUse"><stop stop-color="#6CAEEE" /><stop offset="1" stop-color="#69A9E7" stop-opacity=".4" /></linearGradient></defs></svg>