<?xml version='1.0' encoding='utf-8'?>
<!-- by TradeStack -->
<svg width="56" height="56" viewBox="0 0 56 56" xmlns="http://www.w3.org/2000/svg"><path fill="#F0F3FA" d="M0 0h56v56H0z" /><path d="m24.59 32.08 1.89.79-.8-1.9 1.63 1.07.68-.69-3.23-2.54-.66.65.73 1.76-1.76-.73-.65.66 2.54 3.23.7-.69-1.07-1.61Z" fill="#0960AF" /><path d="m12.13 12.13 1.23.19 1.75 1.75.42-1.77 1.32.93-.4 2.17.96.96.68-2.4L19.4 15l-.58 2.78 1.02 1.02.66-2.93 1.35.78-.7 3.45 1.14 1.15.77-3.67 1.42.9-.9 4.06 1 .99.07-1.77 1.33.88-1.2-2.1.87-1.3 1.54 2.68.62-1.22-1.48-2.29.74-1.38 1.36 2.3.55-1.09-1.32-1.84.93-1.27 1.1 1.74.6-1.12-1.02-1.47.88-1.4.81 1.29.83-1.74.71-.42.61.86-1.07 1.88 1.57-.18-.24 1.48-1.91.23-.6 1.15 2.08-.19-.3 1.34-2.4.22-.62 1.2 2.93-.4-.46 1.55-3.02.24-1.35 2.66-2.3 1.36-1.37 2.3-2.66 1.36-.24 3.02-1.55.46.4-2.93-1.2.62-.22 2.4-1.34.3.19-2.09-1.15.6-.23 1.92-1.48.24.18-1.57-1.88 1.07-.86-.6.42-.72 1.74-.83-1.3-.81 1.4-.88 1.48 1.02 1.12-.6-1.74-1.1 1.27-.93 1.84 1.32 1.08-.55-2.29-1.36 1.38-.74 2.29 1.48 1.22-.62-2.68-1.54 1.3-.87 2.1 1.2-.88-1.33 1.77-.08-.99-.99-4.05.9-.9-1.42 3.66-.77-1.15-1.15-3.45.7-.78-1.34 2.93-.66-1.02-1.02-2.78.58-1.03-1.3 2.4-.68-.96-.97-2.17.4-.93-1.3 1.77-.43-1.75-1.75-.19-1.23Zm.55 1.05 2.16 2.15-1.89.45.46.64 2.12-.4 1.58 1.58-2.48.7.51.66 2.76-.57 1.66 1.67-3.1.7.38.64 3.38-.7 1.8 1.82-3.82.8.46.7 4-.87 1.76 1.76-1.97.1.95 1.43-.26.28-2.6-1.5-.58.4 2.76 1.58-2.06 1.05-2.28-1.48-.57.3 2.31 1.37-1.92.98-1.81-1.29-.58.43 1.82 1.14-1.92 1.03-1.45-1-.66.4 1.36.87-2.27 1.08-.17.3.36.26 2.33-1.33-.2 1.82.68-.11.22-1.82 1.96-1.04-.2 2.27.54-.12.2-2.33 2.07-1.06-.42 3.07.71-.2.24-2.98 2.75-1.4 1.36-2.3 2.3-1.35 1.4-2.75 2.96-.24.21-.71-3.07.42 1.06-2.06 2.33-.2.12-.55-2.27.2 1.04-1.96 1.82-.22.1-.68-1.8.2 1.32-2.33-.26-.36-.3.17L31 14.96l-.86-1.36-.41.66 1 1.45-1.03 1.92-1.14-1.82-.43.58 1.3 1.81-.99 1.92-1.36-2.3-.3.56 1.47 2.28-1.05 2.06-1.59-2.76-.38.58 1.49 2.6-.28.26-1.44-.95-.09 1.97-1.76-1.77.88-4-.71-.45-.8 3.83-1.81-1.81.69-3.38-.65-.38-.7 3.1-1.66-1.66.57-2.76-.65-.51-.71 2.48-1.58-1.58.4-2.12-.64-.46-.45 1.89-2.15-2.16-.58-.08.08.58ZM43.87 43.87l-.19-1.23-1.75-1.75 1.77-.42-.93-1.32-2.17.4-.97-.96 2.4-.68-1.02-1.3-2.78.58-1.02-1.02 2.93-.66-.78-1.34-3.45.7-1.15-1.15 3.67-.77-.9-1.42-4.06.9-.99-1 1.77-.07-.88-1.33 2.1 1.2 1.3-.87-2.68-1.54 1.22-.62 2.29 1.48 1.38-.74-2.3-1.36 1.09-.55 1.84 1.32 1.27-.93-1.74-1.1 1.12-.6 1.47 1.02 1.4-.88-1.29-.81 1.74-.83.42-.71-.86-.61-1.88 1.07.18-1.57-1.48.24-.23 1.91-1.15.6.19-2.08-1.34.3-.22 2.4-5.25 2.52-1.36 2.3-2.3 1.37-2.53 5.25-2.4.22-.3 1.34 2.09-.19-.6 1.15-1.92.23-.24 1.48 1.57-.18-1.07 1.88.6.86.72-.42.83-1.74.81 1.3.88-1.4-1.02-1.48.6-1.12 1.1 1.74.93-1.27-1.32-1.84.55-1.08 1.36 2.3.74-1.4-1.48-2.28.62-1.22 1.54 2.68.87-1.3-1.2-2.1 1.33.88.08-1.77.99.99-.9 4.05 1.42.9.77-3.66 1.15 1.15-.7 3.45 1.34.78.66-2.93 1.02 1.02L36.6 41l1.3 1.03.68-2.4.97.96-.4 2.17 1.3.93.43-1.77 1.75 1.75 1.23.19Zm-1.05-.55-2.15-2.16-.45 1.89-.64-.46.4-2.12-1.58-1.58-.7 2.48-.66-.51.57-2.76-1.67-1.66-.7 3.1-.64-.38.7-3.38-1.82-1.8-.8 3.82-.7-.46.87-4-1.76-1.76-.1 1.97-1.43-.95-.28.26 1.5 2.6-.4.58-1.58-2.76-1.05 2.06 1.48 2.28-.3.57-1.37-2.31-.98 1.92 1.29 1.81-.43.58-1.14-1.82-1.03 1.92 1 1.45-.4.66-.87-1.36-1.08 2.27-.3.17-.26-.36 1.33-2.33-1.82.2.11-.68 1.82-.22 1.04-1.96-2.27.2.12-.54 2.33-.2 2.57-5.35 2.3-1.36 1.35-2.29 5.34-2.57.2-2.33.55-.12-.2 2.27 1.96-1.04.22-1.82.68-.1-.2 1.8 2.33-1.32.36.26-.17.3L41.04 25l1.36.86-.66.41-1.45-1-1.92 1.03 1.82 1.14-.58.43-1.81-1.3-1.92.99 2.3 1.36-.56.3-2.28-1.47-2.06 1.05 2.76 1.59-.58.38-2.6-1.49-.26.28.95 1.44-1.97.09 1.77 1.76 4-.88.45.71-3.83.8 1.81 1.81 3.38-.69.38.65-3.1.7 1.66 1.66 2.76-.57.51.65-2.48.71 1.58 1.58 2.12-.4.46.64-1.89.45 2.16 2.15.08.58-.58-.08Z" fill="#536268" /><path d="m14.44 37.89-2.34 2.34.89.9.72-.73 2.66 2.65.89-.89-2.66-2.65.73-.73-.9-.89ZM19.51 33.96l-1.77 1.77 2.98 2.97 1.76-1.76-.73-.74-1 1-.36-.35.7-.7-.73-.73-.7.7-.42-.42 1-1-.73-.74ZM34.47 19l-1.77 1.77 2.97 2.98 1.77-1.77-.73-.74-1 1-.36-.34.7-.7-.73-.74-.7.7-.42-.41 1-1-.73-.74ZM36.53 16.95l-1.77 1.77 2.97 2.97 1.77-1.77-.74-.73-1 1-.35-.35.7-.7-.74-.74-.7.7-.42-.41 1.01-1-.73-.74ZM40.87 12.6l-1.77 1.78 2.97 2.97 1.77-1.77-.74-.73-1 1-.35-.35.7-.7-.74-.74-.7.7-.41-.41 1-1-.73-.74ZM22.77 36.65l-2.96-2.97 1.34-1.35c.26-.2.95-.45 1.62.22.32.32.34.95.3 1.23l1.84.65-.86.87-1.8-.7 1.28 1.29-.76.76Zm-1.6-3.05.89.89c.17-.22.43-.74.07-1.1-.36-.35-.79 0-.96.2ZM33.35 26.07l-2.97-2.97 1.35-1.35c.26-.2.95-.45 1.61.22.33.32.34.95.31 1.23l1.84.65-.87.87-1.79-.69 1.28 1.28-.76.76Zm-1.6-3.05.88.89c.18-.22.43-.74.08-1.1-.36-.35-.8 0-.97.21ZM17.46 36.02l-.77.76 1.12 1.12-.82.82-1.12-1.12-.76.76 2.98 2.97.76-.76-1.12-1.12.82-.82 1.12 1.12.76-.76-2.97-2.97ZM28.66 23.79h.01l1.04-1.04.83.83-1.04 1.04.48.48.77-.77.82.83-.76.77 1.34 1.34-.9.9-3.48-3.5.9-.88ZM38.87 14.63l-2.1 2.1.72.72 1.04-1.03 1.17 3.37 2.1-2.1-.7-.69-.96.96-1.27-3.33ZM26.1 27.2l2.03 4.15.8-.8-.23-.46 1.13-1.12.46.22.8-.8-4.15-2.04-.85.85Zm1.52.68 1.29.63-.66.66-.63-1.3Z" fill="#0960AF" /></svg>