<?xml version='1.0' encoding='utf-8'?>
<!-- by TradeStack -->
<svg width="56" height="56" viewBox="0 0 56 56" xmlns="http://www.w3.org/2000/svg"><path fill="#F0F3FA" d="M0 0h56v56H0z" /><path d="M20.68 34H51l-.68 1H20l.68-1Z" fill="#A3C4D4" /><path fill-rule="evenodd" d="M5 22h3v6.51c0 .82.52 1.49 1.16 1.49H12v-8h3v10H8.05A3.05 3.05 0 0 1 5 28.95V22Zm43 0h3v6.95A3.1 3.1 0 0 1 47.86 32H44v-2h2.55c.8 0 1.45-.63 1.45-1.4V22Zm-13 3.4v3.2c0 .77.64 1.4 1.42 1.4H41v2h-5.92A3.06 3.06 0 0 1 32 28.95v-3.9A3.06 3.06 0 0 1 35.08 22H41v2h-4.58c-.78 0-1.42.63-1.42 1.4Zm-14.86.64A7.54 7.54 0 0 1 26.23 22H29v10h-3v-2h-5.22l-2.47 5H5l.68-1h10.3l4.16-7.96ZM26 24.2V28h-4.36l.46-.87A4.96 4.96 0 0 1 26 24.2Z" fill="url(#a)" /><defs><linearGradient id="a" x1="27.97" y1="22" x2="27.97" y2="35" gradientUnits="userSpaceOnUse"><stop stop-color="#009AC2" /><stop offset="1" stop-color="#00266A" /></linearGradient></defs></svg>