<?xml version='1.0' encoding='utf-8'?>
<!-- by TradeStack -->
<svg width="56" height="56" viewBox="0 0 56 56" fill="none" xmlns="http://www.w3.org/2000/svg">
<rect width="56" height="56" fill="#2A2247" />
<path d="M14.8217 27H25.8485C25.939 27 25.9981 26.9647 26 26.8781V12.4205C26 12.361 26.1318 12.2526 26.1921 12.2429L27.7726 12.0052C27.917 11.9813 28 12.0393 28 12.1793V28.8232C28 28.8701 27.9808 28.915 27.9467 28.9482C27.9126 28.9814 27.8663 29 27.8181 29L12.1448 28.9641C12.0543 28.9641 12.0091 28.9208 12.0091 28.8342C12.0091 27.9307 11.9513 27.0549 12.1275 26.168C13.141 21.0179 15.4397 17.0642 20.1928 14.3123C20.212 14.3009 20.2335 14.2936 20.2559 14.2908C20.2782 14.288 20.301 14.2898 20.3226 14.2961C20.3441 14.3024 20.3641 14.313 20.381 14.3272C20.398 14.3414 20.4116 14.359 20.421 14.3786L21.3133 16.3071C21.3537 16.3937 21.3315 16.4628 21.2468 16.5143C17.4139 18.907 15.225 22.4777 14.6802 26.856C14.6686 26.9573 14.7158 27 14.8217 27Z" fill="white" />
<path d="M40.4478 23H31.1174C31.0867 23 31.0572 23.0028 31.0354 23.0239C31.0137 23.0451 31.0015 23.0738 31.0015 23.1037V28.721C31.0015 28.8383 30.9424 28.9963 30.8236 29H29.2134C29.0739 29.0055 29 28.8869 29 28.7512V12.2531C28.9999 12.2398 29.0027 12.2267 29.0083 12.2145C29.014 12.2024 29.0223 12.1916 29.0327 12.1827C29.0432 12.1739 29.0555 12.1672 29.0688 12.1632C29.0822 12.1592 29.0963 12.158 29.1103 12.1596C38.1911 13.3011 44.0394 19.919 43.9998 28.7677C43.9999 28.8442 43.8692 28.9985 43.7987 29H41.6723C41.5114 29.0061 41.3471 28.8052 41.3556 28.6577C41.4687 26.8551 41.2312 24.8375 40.6429 23.1284C40.6109 23.0367 40.5459 23 40.4478 23ZM39.3656 20.7221C37.5047 17.5232 34.8193 15.7629 31.1513 14.8882C31.0514 14.8662 31.0015 14.9047 31.0015 15.0037V20.8295C31.0015 20.9432 31.0599 21 31.1768 21H39.2129C39.2433 20.9999 39.2732 20.9672 39.2996 20.9525C39.326 20.9377 39.3479 20.9165 39.3633 20.891C39.3788 20.8654 39.3871 20.8364 39.3875 20.8068C39.3878 20.7772 39.3803 20.748 39.3656 20.7221Z" fill="white" />
<path d="M43.8861 30H12.1201L12.4125 31.411H43.5619C43.6037 31.411 43.6376 31.3828 43.6376 31.3481L43.8861 30Z" fill="white" />
<path d="M25.8578 36H17.7695C17.6796 35.9997 17.6346 36.1488 17.6858 36.2133C18.8015 37.563 20.1162 38.6847 21.63 39.5781C21.7358 39.6414 21.7454 39.7162 21.6589 39.8024L20.0806 41.3727C20.0438 41.4099 19.9952 41.4331 19.943 41.4384C19.8909 41.4436 19.8385 41.4306 19.795 41.4015C16.35 39.1621 14.0042 36.0819 12.7578 32.1611C12.727 32.0633 12.7626 32.0144 12.8645 32.0144L14.8871 32.0029C15.1641 32.001 15.3593 32.1265 15.4728 32.3796L16.1809 33.8101C16.2367 33.9348 16.3329 33.9971 16.4695 33.9971H25.7885C25.8451 33.9971 25.8994 33.9743 25.9395 33.9339C25.9795 33.8934 26.002 33.8386 26.002 33.7814V32.1812C26.002 32.1331 26.0215 32.087 26.0561 32.0531C26.0907 32.0191 26.1377 32 26.1867 32H27.789C27.9275 32 27.9977 32.0872 27.9996 32.2272V43.662C28.0016 43.9131 27.8287 43.9956 27.5593 43.9956H26.404C26.1521 43.9668 26.002 43.708 26.002 43.4549V36.1759C26.002 36.08 25.9539 36 25.8578 36Z" fill="white" />
<path d="M31.1695 41.0728C33.0369 40.6007 34.5077 39.7764 36.045 38.6C36.0985 38.5581 36.1639 38.5352 36.2312 38.5347C36.2986 38.5342 36.3643 38.5561 36.4185 38.5971L38.1358 39.8974C38.1552 39.912 38.1711 39.931 38.1823 39.9529C38.1934 39.9747 38.1995 39.9989 38.2 40.0233C38.2006 40.0478 38.1956 40.072 38.1854 40.0939C38.1753 40.1159 38.1602 40.135 38.1415 40.1499C35.4876 42.288 32.4791 43.5708 29.116 43.9984C29.0387 44.0081 29 43.9733 29 43.8939V32.1451C29 32.1066 29.0149 32.0697 29.0414 32.0425C29.068 32.0153 29.1039 32 29.1415 32H43.0277C43.0594 32.0001 43.0905 32.0082 43.1185 32.0234C43.1465 32.0387 43.1704 32.0607 43.1882 32.0876C43.206 32.1144 43.2172 32.1453 43.2208 32.1776C43.2244 32.2099 43.2203 32.2425 43.2088 32.2728L42.5015 33.8393C42.46 33.9457 42.3836 33.9989 42.2723 33.9989H31.1412C31.1037 33.9989 31.0677 34.0142 31.0412 34.0414C31.0147 34.0687 30.9998 34.1056 30.9998 34.1441V40.9335C30.9997 40.9553 31.0043 40.9768 31.0134 40.9964C31.0225 41.016 31.0357 41.0332 31.0521 41.0467C31.0685 41.0602 31.0876 41.0695 31.108 41.074C31.1283 41.0786 31.1494 41.0782 31.1695 41.0728Z" fill="white" />
</svg>