<?xml version='1.0' encoding='utf-8'?>
<!-- by TradeStack -->
<svg width="56" height="56" viewBox="0 0 56 56" xmlns="http://www.w3.org/2000/svg"><path fill="#F0F3FA" d="M0 0h56v56H0z" /><path fill-rule="evenodd" d="M4 25.24V25h2.96v.24h-.52c-.15 0-.44.07-.44.33v3.37c.03.57.5 1.72 2.18 1.72 1.53 0 1.7-.39 1.8-.63l.02-.06v-4.4c-.01-.11-.16-.33-.6-.33h-.39V25h2.94v.24h-.5c-.13.01-.45.1-.45.33V31h-.21l-.8-.63-.1.08c-.26.23-.64.55-1.92.55C6.15 31 5 30.5 5 28.94v-3.37c0-.11-.11-.33-.48-.33H4Zm9-.08V25h4.04c.64-.02 1.96.25 1.96 1.47 0 .88-.9 1.4-1.73 1.67a6.18 6.18 0 0 0 2.4 2.57h.45V31h-1.38c-1.04-.49-2.09-1.92-2.52-2.6a2.2 2.2 0 0 1-.27.02H15v2.32h.72V31H13v-.26h1v-5.58h-1Zm2 .08v2.97c1 .09 3-.11 3-1.6 0-1.1-1.02-1.37-1.52-1.37H15Zm6 .04V25h3.84c.65 0 1.95.25 1.95 1.24 0 .86-.9 1.3-1.34 1.42.63.17 1.88.76 1.88 1.8 0 1.3-1.75 1.54-2.82 1.54H21v-.22h1v-5.5h-1Zm2 2.35v-2.34h1.25c.46.02 1.38.25 1.38 1.05 0 .9-.99 1.24-1.48 1.29H23Zm0 3.18V28h1.54c.57.02 1.7.27 1.7 1.24 0 1.1-1.2 1.5-1.81 1.57H23Zm7.23.19h-2.5v-.2h.8l3.45-5.8 3.2 5.8h.7v.2h-2.95v-.2h1.12l-1.34-2.52h-2.16l-1.36 2.51h1.04V31Zm1.4-4.74.93 1.74H30.7l.94-1.74ZM44 31h2.45v-.2h-1.01l1.33-2.52h2.12l1.3 2.51H49.1V31H52v-.2h-.7L48.17 25l-3.38 5.8H44v.2Zm4.74-3-.9-1.74L46.9 28h1.83Zm-12.69 3h2.3v-.24h-.88v-4.47L43.5 31v-5.74h.99V25h-2.63v.26H43v4.49L37 25v5.76h-.95V31Z" fill="#082859" /></svg>