<!-- by TradeStack --><svg width="56" height="56" viewBox="0 0 56 56" xmlns="http://www.w3.org/2000/svg"><path fill="#F0F3FA" d="M0 0h56v56H0z"/><path d="M33.07 13.76c0 .23-.07.46-.07.7 0 8.05-.02 16.1 0 24.16 0 .93.16 1.86.23 2.79.02.24.1.48.18.7.24.61.49.86 1.11.88 1.65.06 1.47-1.5 1.48-2.5.04-2.7 0-5.41 0-8.12v-6.96c2.81.22 6.05 2.52 6.8 5.25.15.57.21 1.19.2 1.78a61.04 61.04 0 0 1-.21 4.7c-.15 1.52-.98 2.72-1.93 3.84-2.02 2.4-4.67 3.16-7.61 3a16.05 16.05 0 0 1-3.45-.6c-2.54-.71-3.72-2.31-3.75-5.01-.03-2.61 0-5.23 0-7.84 0-3.64 0-7.28-.05-10.92a2.8 2.8 0 0 1 .85-2.16c.44-.43.92-.84 1.45-1.14 1.38-.8 2.79-1.54 4.18-2.3.13-.07.24-.17.35-.25h.24ZM15.09 13c1.26.64 2.52 1.27 3.77 1.94.77.4 1.51.85 2.23 1.33.77.52.91 1.5.91 2.42v14.88c0 1.1.55 2.18.97 3.21.2.46.46.87.92 1.13.1.05.15.2.22.3l-.06.1c-.33-.05-.67-.05-1-.13-2.1-.53-4.06-1.3-5.74-2.69a6.09 6.09 0 0 1-2.21-4.26 15.6 15.6 0 0 1-.08-1.59V13.42L15 13h.09Z" fill="#00567D"/></svg>