<?xml version='1.0' encoding='utf-8'?>
<!-- by TradeStack -->
<svg width="56" height="56" viewBox="0 0 56 56" xmlns="http://www.w3.org/2000/svg"><path fill="#F0F3FA" d="M0 0h56v56H0z" /><path d="M48 22v12h-2v-5h-5v5h-2V22h2v5h5v-5h2ZM38 22l-4 7.82V34h-2v-4.18L28 22h2.5l2.52 5.48L35.5 22H38ZM24.97 27.85c1.3.27 2.03 1.64 2.03 2.9 0 2-1.54 3.25-3.47 3.25H19V22h4.34c1.85 0 3.42 1.14 3.42 3.1 0 1.2-.62 2.32-1.8 2.75ZM21 27h2.04c1.01 0 1.56-.6 1.56-1.54 0-.97-.56-1.46-1.56-1.46H21v3Zm2.23 5c1.04 0 1.77-.5 1.77-1.5 0-.98-.83-1.5-1.81-1.5H21v3h2.23ZM10 22v7.35c0 1.41.97 2.65 2.45 2.65A2.57 2.57 0 0 0 15 29.35V22h2v7.34C17 32 15.15 34 12.45 34 9.75 34 8 31.98 8 29.34V22h2Z" /></svg>