<!-- by TradeStack --><svg width="56" height="56" viewBox="0 0 56 56" xmlns="http://www.w3.org/2000/svg"><path d="M0 28a28 28 0 1 1 56 0 28 28 0 1 1-56 0Z" fill="#F0F3FA"/><path fill-rule="evenodd" d="M8.5 34a4.5 4.5 0 1 0 0-9 4.5 4.5 0 0 0 0 9Zm0-1.48a3.02 3.02 0 1 0 0-6.04 3.02 3.02 0 0 0 0 6.04Z"/><path d="M16.53 25a2.56 2.56 0 0 1 2.26 1.6l-1.32.7c-.07-.22-.48-.85-1.03-.85s-.98.34-.98.84c0 .36.3.86 1.64 1.3 1.33.43 2.13 1.62 2.15 2.54.01.92-.55 2.89-2.81 2.87-1.81-.01-2.8-1.48-3.08-2.2l1.48-.67c.1.26.55 1.4 1.6 1.37 1.05-.03 1.24-.89 1.22-1.08-.01-.2.03-.98-1.41-1.48-1.45-.5-2.23-1.4-2.28-2.44-.05-1.03.87-2.56 2.56-2.5ZM23.26 25a2.56 2.56 0 0 1 2.27 1.6l-1.32.7c-.08-.22-.49-.85-1.04-.85s-.97.34-.97.84c0 .36.3.86 1.63 1.3 1.34.43 2.14 1.62 2.15 2.54.02.92-.55 2.89-2.81 2.87-1.8-.01-2.8-1.48-3.08-2.2l1.48-.67c.1.26.55 1.4 1.6 1.37 1.05-.03 1.24-.89 1.23-1.08-.02-.2.03-.98-1.42-1.48-1.44-.5-2.23-1.4-2.28-2.44-.04-1.03.87-2.56 2.56-2.5ZM27.68 34a7.98 7.98 0 0 0 1-10l-2.17 1.96c2.98 2.37 2.02 6.35 1.17 8.04Z"/><circle cx="28.5" cy="21.5" r="1.5" fill="#55236B"/><path fill-rule="evenodd" d="M38 32.85A4.03 4.03 0 0 1 35.2 34c-2.32 0-4.2-2.01-4.2-4.5s1.88-4.5 4.2-4.5c1.08 0 2.06.43 2.8 1.15V25h1.57v9H38v-1.15Zm0-2.97c-.17 1.5-1.31 2.64-2.7 2.64-1.5 0-2.72-1.35-2.72-3.02s1.22-3.02 2.72-3.02c1.39 0 2.53 1.15 2.7 2.64v.76Z"/><path d="M41 25h1.57v.86a2.73 2.73 0 0 1 4.26.34A2.84 2.84 0 0 1 52 27.85V34h-1.53v-5.95a1.59 1.59 0 0 0-3.17 0V34h-1.53v-5.94a1.6 1.6 0 1 0-3.2 0V34H41v-9Z"/></svg>