<?xml version='1.0' encoding='utf-8'?>
<!-- by TradeStack -->
<svg width="56" height="56" viewBox="0 0 56 56" fill="none" xmlns="http://www.w3.org/2000/svg">
<rect width="56" height="56" fill="#3D4256" />
<path fill-rule="evenodd" clip-rule="evenodd" d="M26.6158 45.5882C30.8526 47.9546 32.8173 39.4588 33.2161 36.9766C33.2357 36.8464 33.3076 36.8023 33.4319 36.8442C36.3185 37.8503 44.1578 39.8957 43.9976 34.7625C43.9257 32.598 40.4048 29.2784 38.7932 28.0142C38.6886 27.9303 38.6864 27.8443 38.7866 27.756C40.6893 26.099 42.0416 24.6196 42.8436 23.3178C44.3245 20.9084 44.4389 18.178 40.9835 17.7213C38.3257 17.3672 35.8968 18.1317 33.3926 18.9525C33.2706 18.9922 33.1998 18.947 33.1801 18.8168C32.8107 16.3445 31.405 10.4964 28.2765 10.0265C24.9061 9.52009 23.2094 16.4206 22.8792 18.7307C22.8711 18.7852 22.8513 18.8372 22.8212 18.883C22.7911 18.9289 22.7514 18.9675 22.705 18.9962C22.6586 19.0249 22.6065 19.043 22.5525 19.0492C22.4984 19.0553 22.4437 19.0494 22.3921 19.0319C20.0874 18.2508 11.2936 16.0797 12.0454 21.2692C12.3887 23.6356 15.3211 26.4123 17.1747 27.9513C17.2684 28.0307 17.2706 28.1124 17.1812 28.1962C15.5565 29.7286 13.0294 32.1247 12.4018 34.1899C10.4763 40.5477 20.1953 37.8338 22.6275 37.0494C22.743 37.0119 22.8117 37.0538 22.8335 37.1752C23.2159 39.4191 24.4909 44.4 26.6158 45.5882ZM32.0131 19.3629L28.0673 21.0739C27.9692 21.1159 27.8722 21.1159 27.7763 21.0739L23.9875 19.5151C23.8894 19.4732 23.848 19.4004 23.8632 19.2967C24.0986 17.7312 26.047 8.96408 29.0807 11.4728C30.7545 12.8562 31.7287 16.9171 32.1667 19.0617C32.1972 19.2051 32.146 19.3055 32.0131 19.3629ZM33.9026 24.2346L33.4678 20.2035C33.4569 20.0954 33.5016 20.0237 33.6019 19.9884C35.5764 19.3033 40.4702 17.8967 42.2584 19.3033C44.3997 20.9912 39.3914 25.8795 37.9073 27.0279C37.831 27.0853 37.7536 27.0864 37.6752 27.0312L34.0399 24.4696C33.9593 24.4122 33.9135 24.3339 33.9026 24.2346ZM22.5196 20.4087L22.1175 24.2909C22.1066 24.399 22.0576 24.485 21.9704 24.549L18.2763 27.2497C18.2001 27.3026 18.1249 27.3015 18.0508 27.2463C16.511 26.0681 12.8954 22.6857 13.1243 20.5642C13.4381 17.665 20.6105 19.5449 22.4183 20.2432C22.4946 20.2719 22.5283 20.3271 22.5196 20.4087ZM29.4292 21.6899C29.4402 21.6738 29.4553 21.661 29.473 21.6531L32.2321 20.3955C32.247 20.3886 32.2633 20.3854 32.2796 20.386C32.296 20.3867 32.312 20.3912 32.3263 20.3993C32.3406 20.4073 32.3528 20.4186 32.362 20.4324C32.3712 20.4461 32.3771 20.4618 32.3792 20.4782L32.7225 23.523C32.7245 23.5425 32.7212 23.5622 32.7128 23.5799C32.7045 23.5976 32.6915 23.6126 32.6752 23.6232C32.6589 23.6339 32.6401 23.6397 32.6207 23.6401C32.6014 23.6406 32.5823 23.6355 32.5656 23.6256L29.4632 21.8418C29.4464 21.832 29.4327 21.8177 29.4234 21.8006C29.4142 21.7834 29.4099 21.7639 29.4109 21.7444C29.4119 21.7248 29.4182 21.706 29.4292 21.6899ZM23.2708 23.655C23.2627 23.6376 23.2595 23.6183 23.2617 23.5992L23.6246 20.7099C23.6265 20.6944 23.6319 20.6796 23.6403 20.6665C23.6488 20.6535 23.6601 20.6426 23.6733 20.6346C23.6865 20.6266 23.7014 20.6218 23.7167 20.6205C23.7321 20.6192 23.7475 20.6215 23.7619 20.6271L26.4425 21.6796C26.4599 21.6866 26.475 21.6984 26.4861 21.7135C26.4973 21.7287 26.5041 21.7467 26.5058 21.7655C26.5075 21.7844 26.504 21.8033 26.4957 21.8203C26.4874 21.8372 26.4747 21.8515 26.4589 21.8616L23.4154 23.6984C23.3992 23.7085 23.3805 23.7138 23.3615 23.7136C23.3425 23.7134 23.3239 23.7078 23.3079 23.6975C23.2918 23.6871 23.279 23.6724 23.2708 23.655ZM28.1359 22.4474L32.6865 24.8998C32.802 24.9616 32.8598 25.0587 32.8598 25.1911L32.8761 30.589C32.8761 30.6834 32.8515 30.7759 32.805 30.8568C32.7584 30.9377 32.6915 31.0041 32.6113 31.0491L28.3027 33.4684C28.2002 33.5258 28.0945 33.5302 27.9856 33.4816C27.9422 33.4618 27.8911 33.4385 27.8331 33.4121C26.7342 32.9115 23.1764 31.2909 23.1702 30.417C23.1571 28.7048 23.1571 27.0566 23.1702 25.4724C23.171 25.3476 23.2044 25.2253 23.267 25.1177C23.3296 25.0102 23.4191 24.9213 23.5265 24.8601L27.7469 22.4507C27.8755 22.3779 28.0052 22.3768 28.1359 22.4474ZM21.9109 30.1222C21.8911 30.1209 21.8722 30.1141 21.856 30.1025L19.123 28.1366C19.1087 28.1268 19.0969 28.1137 19.0886 28.0983C19.0803 28.0829 19.0759 28.0657 19.0755 28.0481C19.0752 28.0306 19.0791 28.0133 19.0868 27.9976C19.0945 27.9818 19.1058 27.9683 19.1198 27.9579L21.8429 25.9721C21.8591 25.9606 21.8781 25.9538 21.8978 25.9525C21.9175 25.9511 21.9372 25.9553 21.9548 25.9645C21.9723 25.9737 21.987 25.9877 21.9973 26.0048C22.0075 26.0219 22.0129 26.0415 22.0129 26.0615L22.026 30.0132C22.026 30.0332 22.0206 30.0528 22.0103 30.0699C22.0001 30.087 21.9854 30.1009 21.9678 30.1102C21.9503 30.1194 21.9306 30.1236 21.9109 30.1222ZM34.1213 25.8481C34.1401 25.8492 34.1583 25.8555 34.174 25.8662L36.8906 27.7924C36.9043 27.802 36.9155 27.8147 36.9234 27.8295C36.9313 27.8443 36.9355 27.8608 36.9358 27.8776C36.9362 27.8945 36.9325 27.9111 36.9252 27.9262C36.9179 27.9413 36.9072 27.9545 36.8938 27.9645L34.1641 29.9602C34.1485 29.9719 34.13 29.9789 34.1106 29.9806C34.0913 29.9822 34.0718 29.9783 34.0545 29.9694C34.0372 29.9604 34.0227 29.9468 34.0126 29.93C34.0025 29.9132 33.9973 29.8938 33.9974 29.8742L34.0105 25.9523C34.0108 25.9332 34.0161 25.9145 34.0261 25.8982C34.036 25.8819 34.0501 25.8687 34.0668 25.8598C34.0836 25.851 34.1024 25.8469 34.1213 25.8481ZM37.9857 28.696C39.6268 29.99 41.4771 31.8268 42.4905 33.7994C45.1614 39.0186 35.0828 36.2816 33.6084 35.7951C33.5081 35.762 33.4635 35.6925 33.4744 35.5866L33.8993 31.6812C33.9124 31.5555 33.9691 31.4562 34.0693 31.3834L37.7307 28.6893C37.8157 28.6276 37.9007 28.6298 37.9857 28.696ZM13.8827 33.6968C14.9549 31.8666 16.4097 30.3342 17.9985 28.9376C18.0944 28.8537 18.1946 28.8482 18.2992 28.921L21.9802 31.4694C22.0827 31.54 22.1393 31.6382 22.1502 31.764L22.5294 35.7785C22.5382 35.8734 22.4967 35.9374 22.4052 35.9705C20.7445 36.5497 10.5351 39.4058 13.8827 33.6968ZM32.7377 32.3185C32.7453 32.3355 32.7479 32.3544 32.7454 32.3729L32.3629 35.2622C32.3608 35.2769 32.3556 35.2909 32.3475 35.3032C32.3394 35.3156 32.3288 35.3259 32.3162 35.3335C32.3037 35.3411 32.2896 35.3458 32.2751 35.3472C32.2605 35.3486 32.2458 35.3467 32.2321 35.3416L29.5547 34.2594C29.5375 34.2526 29.5225 34.241 29.5115 34.2259C29.5004 34.2108 29.4939 34.1929 29.4925 34.1742C29.4911 34.1555 29.495 34.1368 29.5037 34.1203C29.5124 34.1037 29.5256 34.09 29.5416 34.0807L32.5982 32.2736C32.6141 32.2641 32.6324 32.2593 32.6508 32.2598C32.6693 32.2603 32.6873 32.2661 32.7026 32.2764C32.718 32.2868 32.7302 32.3014 32.7377 32.3185ZM26.6121 34.2669C26.6015 34.2824 26.587 34.2947 26.57 34.3024L23.8109 35.5237C23.7964 35.53 23.7806 35.5327 23.7649 35.5318C23.7491 35.5308 23.7338 35.5261 23.7201 35.518C23.7065 35.51 23.6948 35.4989 23.6862 35.4855C23.6776 35.4721 23.6721 35.4568 23.6704 35.4409L23.2715 32.4193C23.2691 32.4004 23.2719 32.3811 23.2796 32.3638C23.2874 32.3464 23.2998 32.3315 23.3154 32.3209C23.331 32.3102 23.3492 32.3042 23.368 32.3034C23.3869 32.3027 23.4055 32.3073 23.4219 32.3167L26.5798 34.1204C26.5959 34.1299 26.609 34.1438 26.6178 34.1603C26.6266 34.1769 26.6307 34.1956 26.6297 34.2144C26.6287 34.2332 26.6226 34.2514 26.6121 34.2669ZM25.1819 36.0395C26.4939 35.4245 27.9459 34.7438 28.7309 35.0769C29.8337 35.5468 30.9463 35.9958 32.0687 36.4239C32.1711 36.4636 32.2125 36.5386 32.1929 36.6489C31.8267 38.6248 30.5126 44.4563 28.1719 44.8468C25.7626 45.2506 24.1673 38.6148 23.8959 36.7846C23.8807 36.6765 23.9221 36.6026 24.0201 36.5629C24.3775 36.4166 24.7729 36.2312 25.1819 36.0395ZM30 28C30 29.1046 29.1046 30 28 30C26.8954 30 26 29.1046 26 28C26 26.8954 26.8954 26 28 26C29.1046 26 30 26.8954 30 28Z" fill="white" />
</svg>