<?xml version='1.0' encoding='utf-8'?>
<!-- by TradeStack -->
<svg width="56" height="56" viewBox="0 0 56 56" xmlns="http://www.w3.org/2000/svg"><path fill="#F0F3FA" d="M0 0h56v56H0z" /><path d="M49 27.5c0 1.15-.22 2.14-.66 2.96a4.62 4.62 0 0 1-1.78 1.89A5 5 0 0 1 44 33a4.7 4.7 0 0 1-4.35-2.54A6.24 6.24 0 0 1 39 27.5c0-1.15.22-2.14.65-2.96A4.66 4.66 0 0 1 44 22a5 5 0 0 1 2.56.65 4.61 4.61 0 0 1 1.78 1.9c.44.81.66 1.8.66 2.95Zm-1.98 0c0-.81-.13-1.5-.39-2.05-.25-.57-.6-.99-1.06-1.28a2.85 2.85 0 0 0-1.57-.43c-.6 0-1.11.15-1.57.43-.45.29-.8.71-1.07 1.28a4.93 4.93 0 0 0-.38 2.05c0 .81.13 1.5.38 2.06.26.56.62.98 1.07 1.27.46.29.98.43 1.57.43.6 0 1.11-.14 1.57-.43.45-.29.8-.71 1.06-1.27a4.9 4.9 0 0 0 .39-2.06ZM35.32 25c-.05-.46-.26-.73-.63-.98a2.49 2.49 0 0 0-1.44-.38c-.42 0-.77.06-1.07.18-.3.12-.53.29-.68.5a1.18 1.18 0 0 0-.09 1.3c.1.16.25.3.43.41.19.11.39.2.61.28.22.08.45.14.67.2l1.04.25c.41.09.81.22 1.2.38.38.16.73.36 1.03.6.3.25.55.54.73.88.18.35.27.75.27 1.22 0 .62-.16 1.17-.5 1.65-.32.47-.8.85-1.42 1.11-.62.27-1.37.4-2.25.4-.86 0-1.6-.13-2.23-.39a3.3 3.3 0 0 1-1.48-1.12c-.35-.5-.54-1.1-.57-1.81h1.96c.03.37.15.68.36.93.2.25.48.43.81.55.34.12.71.18 1.13.18.43 0 .81-.06 1.14-.18.33-.13.59-.3.77-.54.19-.23.28-.5.29-.8a1 1 0 0 0-.26-.69c-.16-.18-.4-.34-.69-.46-.3-.12-.64-.23-1.03-.33l-1.25-.32A5.1 5.1 0 0 1 30.02 27a2.34 2.34 0 0 1-.79-1.85c0-.63.18-1.18.53-1.65.35-.48.84-.84 1.45-1.1.6-.27 1.3-.4 2.06-.4.78 0 1.47.13 2.06.4.59.26 1.05.62 1.39 1.09.33.46.5.9.52 1.51h-1.92ZM27.52 25.76H25.5a2.4 2.4 0 0 0-.9-1.5c-.22-.17-.49-.3-.78-.38a3.14 3.14 0 0 0-2.53.3 2.9 2.9 0 0 0-1.09 1.28 4.8 4.8 0 0 0-.39 2.04c0 .82.13 1.5.4 2.07.26.56.62.98 1.08 1.27a3.28 3.28 0 0 0 2.5.3c.3-.1.56-.22.79-.39a2.27 2.27 0 0 0 .92-1.45h2a4.13 4.13 0 0 1-1.46 2.62c-.4.34-.87.6-1.4.8-.54.19-1.14.28-1.8.28-.96 0-1.82-.22-2.58-.65a4.61 4.61 0 0 1-1.8-1.9 6.23 6.23 0 0 1-.65-2.95c0-1.15.22-2.14.66-2.96a4.65 4.65 0 0 1 1.8-1.89 5.61 5.61 0 0 1 4.29-.4c.52.17 1 .41 1.4.74.42.32.75.71 1.02 1.18.27.46.44 1 .53 1.59ZM14 22h2v7.08a3.73 3.73 0 0 1-2.13 3.43c-.68.33-1.47.49-2.37.49-.9 0-1.7-.16-2.37-.5-.68-.32-1.2-.78-1.57-1.37A3.75 3.75 0 0 1 7 29.08V22h2v6.92c0 .45.11.85.31 1.2s.5.63.87.83c.37.2.81.3 1.32.3.5 0 .95-.1 1.32-.3.38-.2.67-.48.87-.83.2-.35.31-.75.31-1.2V22Z" /></svg>