<?xml version='1.0' encoding='utf-8'?>
<!-- by TradeStack -->
<svg width="56" height="56" viewBox="0 0 56 56" xmlns="http://www.w3.org/2000/svg"><path fill="#F0F3FA" d="M0 0h56v56H0z" /><path d="M32.24 43.38c0-6.47 3.17-11.3 4.76-12.88-5.8 1.94-10.6 9.51-12.28 13.04.54.15 1.96.46 3.3.46 1.7 0 3.7-.41 4.22-.62Z" fill="#429439" /><path d="M17.81 40.41c6.78-7.56 14.05-9.73 17.19-9.87-8.86 3.85-12.04 11.24-12.83 12.43a17.9 17.9 0 0 1-4.36-2.56Z" fill="#429439" /><path d="M13.77 35.32C19.55 31.85 29.1 30.66 33 30.5a47.02 47.02 0 0 0-16.9 8.14 17.75 17.75 0 0 1-2.33-3.3ZM27 30.5c-7.85 0-13.14.43-14.74.64.13.54.5 1.84.93 2.68C16.8 32.04 25.16 30.71 27 30.5ZM25 30l-12.84-.2c-.2-1.27-.17-2.46-.13-2.9L25 30ZM25 28l-12.77-2.8c.3-1.72.87-3.1 1.11-3.57L25 28ZM17.63 15.77 26.06 27c-3.42-2.19-10.77-7-11.56-7.54.4-1.1 2.26-2.91 3.13-3.69ZM27.63 25l-7.4-11.01c1.62-1.12 4.4-1.8 5.58-1.99l1.82 13ZM30 12v13c1.48-3.74 4.27-11.1 4.51-11.7-1.39-.71-3.59-1.16-4.51-1.3ZM38.68 16 32 26c2.85-2.38 8.45-6.94 9-7.44A14.08 14.08 0 0 0 38.68 16Z" fill="#429439" /><path d="M43.62 24.24 33 28l11-1.15-.38-2.6Z" fill="#EE3123" /></svg>