<!-- by TradeStack --><svg viewBox="0 0 56 56" xmlns="http://www.w3.org/2000/svg"><path fill="#E30713" d="M0 0h56v56H0z"/><path d="M15 17v6c0 2.11-1 4-3.54 4C9 27 8 25.1 8 23v-6h2v6c0 1.17.18 2 1.5 2 1.31 0 1.5-.85 1.5-2v-6h2ZM23 27h-2.13L18 21v6h-2V17h2.11L21 23v-6h2v10ZM24 27V17h2v10h-2ZM31.48 27H29.5v-8H27v-2h7v2h-2.52v8ZM40 27h-5V17h5v2h-3v2h3v2h-3v2h3v2ZM48 21.9c0 2.9-1.57 5.1-4.61 5.1H41V17h2.65C46.5 17 48 19.22 48 21.9Zm-2 .1c0-1.6-.42-3-2.26-3H43v6h.56c1.75 0 2.44-.82 2.44-3ZM8 40V30h1v9h4v1H8ZM21.5 40l-1-3h-4l-1 3h-1l3.3-10h1.4l3.3 10h-1Zm-1.4-4c-.45-1.48-1.6-5-1.6-5s-1.15 3.53-1.6 5h3.2ZM24 30h2c1.7 0 3 .55 3 2.5 0 .97-.13 1.78-1.15 2 1.18.25 1.65 1.32 1.65 2.48a2.9 2.9 0 0 1-3 3.02H24V30Zm1 4h1.2c.95 0 1.8-.47 1.8-1.5 0-.94-.7-1.5-1.94-1.5H25v3Zm0 1v4h1.5c1.07 0 2-.5 2-2s-1-2-2-2H25ZM36 40h-5V30h5v1h-4v3h4v1h-4v4h4v1ZM37.5 40V30h1v9h3v1h-4ZM48 37.22c0 1.67-1.16 2.78-2.82 2.78a4.3 4.3 0 0 1-2.18-.52v-1.16c.7.38 1.46.68 2.26.68.84 0 1.74-.9 1.74-1.78 0-.98-1.23-1.83-2-2.22-1.18-.6-2-1.13-2-2.5 0-1.53 1.12-2.5 2.67-2.5.82 0 1.52.22 2.22.61l-.4.93a4.04 4.04 0 0 0-1.86-.54c-.75 0-1.63.75-1.63 1.5 0 .97 1.21 1.48 1.97 1.87C47.17 35 48 35.8 48 37.22ZM8 28h40v1H8z" fill="#fff"/></svg>