<!-- by TradeStack --><svg width="56" height="56" viewBox="0 0 56 56" xmlns="http://www.w3.org/2000/svg"><path fill="#F0F3FA" d="M0 0h56v56H0z"/><path d="M40.28 25.45c-.07.32.08.7.46 1.1a8.62 8.62 0 0 0 1.15 1c.32.25.3.29-.06.12a21.4 21.4 0 0 1-3.23-1.77c-.44-.3-.74-.67-.9-1.12-.17-.5-.13-.97.13-1.43.2-.37.64-.67 1.3-.9.5-.18 1.05-.3 1.63-.36 4.35-.45 7.73-.81 10.16-1.09.07 0 .1.03.07.1l-.8 2.25c-.1.25-.26.38-.52.4-3.16.26-5.78.53-7.86.8-.67.08-1.15.32-1.45.73a.47.47 0 0 0-.08.17Z" fill="#ADCD07"/><path d="M23.38 30.15c.13.51.5.86 1.08 1.03.36.1.9.16 1.6.15 3.16 0 5.5 0 7 .02.06 0 .08.03.06.09l-.88 2.44c-.02.05-.05.07-.1.07l-5.9.05c-1.19.01-2.43-.11-3.7-.37a3.73 3.73 0 0 1-1.3-.54c-.98-.64-1.33-1.59-1.04-2.86.22-.93.68-2.86 1.4-5.78.02-.09.08-.14.16-.15l2.77-.3c.1-.01.14.04.12.14l-1.29 5.52c-.03.16-.03.32.02.5ZM8.78 31.1c.35.2.75.3 1.18.32.82.04 1.55.05 2.2.03.86-.03 1.52-.2 1.97-.48a2.89 2.89 0 0 0 1.26-1.88 618 618 0 0 0 .98-4.2c0-.05.04-.07.08-.08l2.87-.3c.07-.02.1.02.09.1-.4 1.77-.83 3.6-1.3 5.5a4.28 4.28 0 0 1-2.01 2.79c-.85.5-1.78.8-2.8.94-1.64.2-3.3.21-5.02.03a4.77 4.77 0 0 1-2.15-.75C5.38 32.62 5 31.98 5 31.2c0-.47.08-1.05.24-1.72.2-.77.46-1.88.81-3.35.02-.08.06-.12.14-.12l2.78-.3c.1-.02.13.03.11.12-.4 1.67-.67 2.86-.83 3.57-.18.83 0 1.4.53 1.7ZM45.05 30.73c.14-.1.16-.21.07-.36a4.8 4.8 0 0 0-1.07-1.21c-.43-.35-.77-.64-1.04-.88-.36-.32-.33-.37.09-.14 1.12.62 2.19 1.27 3.2 1.95.2.13.44.35.71.64.23.24.39.5.46.8.2.73-.03 1.34-.65 1.83-.2.14-.6.28-1.24.4-.72.15-1.7.23-2.96.23-2.4.02-5.26.01-8.6 0-.04 0-.06-.03-.04-.08l.83-2.4c.06-.15.16-.23.32-.22 2.37.02 4.56 0 6.56-.04.92-.02 1.83-.11 2.72-.27.24-.04.45-.12.64-.25Z" fill="#15A73E"/></svg>