<!-- by TradeStack --><svg width="56" height="56" viewBox="0 0 56 56" xmlns="http://www.w3.org/2000/svg"><path fill="#F0F3FA" d="M0 0h56v56H0z"/><path d="M16.16 14h20.02L45 40H13l3.16-26Zm.65.7-3 24.6H44l-8.35-24.6H16.81Z"/><path d="M35 27h-4.45L28 35h3.74c.4 0 .75-.25.87-.62L35 27ZM18.57 21h4.77c0 .23.66.65.66.95 0 .25-.08.51-.12.61l-2.81 9.31a9.65 9.65 0 0 0-.65 2.21c0 .46.18.8.26.92h-3.27c-1.39 0-1.57-1.61-1.31-2.4 1.38-4.31 3.2-10 3.2-10.23 0-.34-.12-.5-.39-.72-.21-.18-.32-.51-.34-.65Z" fill="#015289"/><path d="M25.4 21h11.27c.23 0 .39.2.31.4l-1.13 2.93c-.15.4-.55.67-1 .67H30a.57.57 0 0 0-.55.38l-2.82 8.91c-.13.42-.54.71-1 .71h-2.66c-.65 0-1.12-.6-.93-1.19l3.75-11.78c.06-.43-.23-.86-.4-1.03Z" fill="#F03224"/></svg>