<!-- by TradeStack --><svg width="56" height="56" viewBox="0 0 56 56" xmlns="http://www.w3.org/2000/svg"><path fill="#F0F3FA" d="M0 0h56v56H0z"/><path d="M26.12 22.14C28.71 21.06 35.07 19 40.8 19c7.27 0 8.2 2.71 8.2 3.73 0 1.03-.29 2.4-3.57 5.27.67-.96 1.53-2.36 1.53-3.67 0-1.3-1.82-4.09-9.16-4.09-4.94 0-10.05 1.24-11.68 1.9Z" fill="url(#ayz54jfp5)"/><path d="M29.88 33.86C27.29 34.94 20.93 37 15.2 37 7.93 37 7 34.29 7 33.27c0-1.03.29-2.4 3.57-5.27-.67.96-1.53 2.36-1.53 3.67 0 1.3 1.82 4.09 9.16 4.09 4.94 0 10.05-1.24 11.68-1.9Z" fill="url(#byz54jfp5)"/><path d="M15 23h-2v5.08c0 1.06.77 1.92 1.71 1.92h4.58c.94 0 1.71-.86 1.71-1.92V23h-2v4.25c0 .41-.3.75-.67.75h-2.66c-.37 0-.67-.34-.67-.75V23Z" fill="url(#cyz54jfp5)"/><path d="M34 24.82c0-1 .84-1.82 1.87-1.82h5.26c1.03 0 1.87.81 1.87 1.82V26h-2v-.24c0-.42-.45-.76-1-.76h-3c-.55 0-1 .34-1 .76v1.48c0 .42.45.76 1 .76h3c.55 0 1-.34 1-.76V27h2v1.18c0 1-.84 1.82-1.87 1.82h-5.26A1.84 1.84 0 0 1 34 28.18v-3.36Z" fill="url(#dyz54jfp5)"/><path d="M22 23h3.54l1.94 4.55L29.4 23H33v7h-2v-5.32h-.25L28.3 30h-1.64l-2.44-5.32H24V30h-2v-7Z" fill="url(#eyz54jfp5)"/><path d="M13 32h10v.25H13V32ZM33 32h10v.25H33V32ZM24 31h.58v2H24v-2ZM27 31h.41l1.18 1.33V31H29v2h-.41l-1.18-1.32V33H27v-2ZM32 31.35a1.2 1.2 0 0 0-.87-.35c-.62 0-1.13.45-1.13 1s.5 1 1.13 1c.33 0 .63-.12.84-.32l-.37-.33a.65.65 0 0 1-.46.2c-.35 0-.62-.25-.62-.55 0-.3.27-.54.62-.54.2 0 .38.08.5.22l.36-.33Z" fill="#727272"/><defs><linearGradient id="ayz54jfp5" x1="37.5" y1="19" x2="37.5" y2="28" gradientUnits="userSpaceOnUse"><stop stop-color="#C80D00"/><stop offset="1" stop-color="#920A01"/></linearGradient><linearGradient id="byz54jfp5" x1="18.5" y1="37" x2="18.5" y2="28" gradientUnits="userSpaceOnUse"><stop stop-color="#939597"/><stop offset="1" stop-color="#6A6B6E"/></linearGradient><linearGradient id="cyz54jfp5" x1="17" y1="23" x2="17" y2="30" gradientUnits="userSpaceOnUse"><stop stop-color="#C80D00"/><stop offset="1" stop-color="#920A01"/></linearGradient><linearGradient id="dyz54jfp5" x1="38.5" y1="23" x2="38.5" y2="30" gradientUnits="userSpaceOnUse"><stop stop-color="#C80D00"/><stop offset="1" stop-color="#920A01"/></linearGradient><linearGradient id="eyz54jfp5" x1="27.5" y1="23" x2="27.5" y2="30" gradientUnits="userSpaceOnUse"><stop stop-color="#C80D00"/><stop offset="1" stop-color="#920A01"/></linearGradient></defs></svg>