<!-- by TradeStack --><svg width="56" height="56" viewBox="0 0 56 56" xmlns="http://www.w3.org/2000/svg"><path fill="#F0F3FA" d="M0 0h56v56H0z"/><path d="M21.96 28.1a11.5 11.5 0 0 0-2.75 4.18 4.7 4.7 0 0 0 .56 4.33l-4.77.12c-.27-1.46-.22-2.94.17-4.44v-.03c.2-1.24.55-3.32-.6-4.2-.06-.04-.05-.06.02-.06h7.32c.1 0 .12.04.05.1Zm-6.62 4.09c.32.06.66.07 1 .02-.32-.08-.65-.09-1-.02Z" fill="url(#a)"/><path d="M19.77 36.61c1.11 1.2 2.21.82 3.56.34h.02c-.16.2-.5.56-1.05 1.05a4.73 4.73 0 0 1-4.56 1.22 4.46 4.46 0 0 1-2.64-2.13c-.04 0-.07-.12-.1-.36l4.77-.12Z" fill="url(#b)"/><path d="M32.73 12c.5.11.79.33.86.67.04.18-.02.49-.2.9l-2.46 5.81a.3.3 0 0 1-.13.15.21.21 0 0 1-.17.02c-.17-.06-.24-.17-.2-.34.52-2.19 1.04-4.41 1.55-6.66a.76.76 0 0 1 .45-.55h.3Z" fill="#EAC653"/><path d="M23.64 13.89c-.26-.65-.8-1.64.45-1.8.62-.09.8.35.92.9a2327.93 2327.93 0 0 1 1.32 6.37l-.03.1a.24.24 0 0 1-.06.07.25.25 0 0 1-.28.01.3.3 0 0 1-.13-.15c-1-2.53-1.72-4.36-2.19-5.5Z" fill="#DAAF35"/><path d="M28.4 19.24c-.11 0-.17-.1-.18-.3a721.2 721.2 0 0 1-.16-4.73c-.01-.5.07-.84.64-.81.57.03.62.37.55.87-.2 1.57-.4 3.13-.62 4.7-.03.19-.1.28-.22.27Z" fill="#EAC653"/><path d="M24.36 20.44c-.1.07-.2.03-.33-.12l-2.97-3.7c-.31-.38-.45-.7.02-1.04.48-.33.72-.08.97.36l2.32 4.15c.1.16.1.28 0 .35ZM36.04 15.75c.47.36.31.68-.02 1.07a749.55 749.55 0 0 1-3.18 3.62c-.12.14-.24.18-.33.1-.1-.07-.1-.2 0-.36l2.53-4.11c.27-.43.53-.68 1-.32Z" fill="#DAAF35"/><path d="M38.73 17.48c.53-.5 1.3-1.4 1.9-.2.3.6-.06.93-.56 1.24l-5.59 3.54a.28.28 0 0 1-.2.04.23.23 0 0 1-.15-.1l-.01-.01a.27.27 0 0 1-.04-.2.31.31 0 0 1 .1-.18c2.1-1.88 3.6-3.26 4.55-4.13Z" fill="#EAC653"/><path d="M17.15 18.79c-.6-.4-1.64-.9-.67-1.8.48-.44.88-.17 1.3.23a2147.62 2147.62 0 0 1 4.8 4.58c.02.03.03.06.03.1v.1a.22.22 0 0 1-.06.08.26.26 0 0 1-.17.09.3.3 0 0 1-.2-.05c-2.3-1.54-3.98-2.65-5.03-3.33ZM16.61 22.63c-.55-.16-1.46-.31-.92-1.23.27-.45.65-.34 1.06-.13a1930.52 1930.52 0 0 1 4.75 2.42l.04.07a.2.2 0 0 1 .02.08.18.18 0 0 1-.03.08.21.21 0 0 1-.11.11.24.24 0 0 1-.16.01c-2.13-.66-3.68-1.13-4.65-1.41ZM35.21 23.91c-.04-.12.03-.23.22-.31l4.63-2.11c.48-.22.86-.28 1.06.32.2.6-.12.79-.64.93l-4.9 1.29c-.2.05-.32.01-.37-.12ZM33.39 25.04c-.68-.18-1.24-.39-1.7-.6a45.23 45.23 0 0 0-5.16-2.12c2.7-.93 5.53.24 6.86 2.72Z" fill="#F6DC78"/><path d="M26.53 22.32c1.66.55 3.38 1.26 5.16 2.12.46.21 1.02.42 1.7.6.35.66.54 1.14.57 1.87 0 .06-.02.08-.08.08h-6.11c-.54-.38-.91-.47-1.12-.7-.51-.6-.71-1.39.37-1.5 1.32-.13 2.73.54 4.04 1.04.24.09.3.06.17-.1-.03-.04-.13-.1-.29-.2-1.08-.6-2.13-1-3.16-1.2-1.03-.2-2.72-.12-2.81 1.3-.01.15 0 .45.02.89.01.37-.1.66-.52.64a6.26 6.26 0 0 1-1.67-.33 5.49 5.49 0 0 1 3.72-4.51Z" fill="#EAC653"/><path d="M27.77 27h-1.44c-.05 0-.08.03-.09.09a31.32 31.32 0 0 1-1.12 4.86c-.02.05-.05.06-.1.03a5.43 5.43 0 0 1-2.22-5.15c.64.2 1.19.32 1.67.33.42.02.53-.27.52-.64a10.1 10.1 0 0 1-.02-.89c.09-1.42 1.78-1.5 2.82-1.3a10.8 10.8 0 0 1 3.44 1.4c.13.16.07.19-.17.1-1.31-.5-2.72-1.17-4.04-1.04-1.08.11-.88.9-.37 1.5.2.23.58.32 1.12.71ZM13 25.2v-.38c.12-.67.54-.93 1.26-.78l6.6 1.4c.16.04.23.14.2.3v.02c0 .06-.03.12-.09.16a.28.28 0 0 1-.18.06l-7.11-.28c-.35-.01-.57-.18-.68-.5Z" fill="#DAAF35"/><path d="M44 24.73v.46c-.15.47-.49.7-1 .7-.57-.02-1.14-.02-1.7-.01l-.13-1.46 1.8-.36c.59-.12.93.1 1.03.67Z" fill="#F6DC78"/><path d="m41.17 24.42.13 1.46-5.35.06c-.18 0-.27-.08-.27-.25a.2.2 0 0 1-.01-.1c0-.03.02-.07.04-.1a.28.28 0 0 1 .08-.06.3.3 0 0 1 .1-.04l5.28-.97ZM15.83 28.86c.3.01.56-.01.56-.05 0-.03-.25-.07-.56-.07-.3-.01-.56.01-.56.05 0 .03.25.07.56.07ZM17.81 28.76l-1.18-.02a.05.05 0 0 0-.05.05c0 .03.02.05.05.05l1.18.03c.03 0 .05-.03.05-.05a.05.05 0 0 0-.05-.06ZM19.33 28.76l-1.18-.02a.05.05 0 0 0-.06.05c0 .03.03.06.05.06l1.2.02c.02 0 .04-.03.04-.05a.05.05 0 0 0-.05-.06ZM20.8 28.73l-1.14.02a.05.05 0 0 0-.05.06c0 .03.02.05.05.05l1.14-.02c.03 0 .05-.02.05-.05a.05.05 0 0 0-.05-.06ZM17.8 30.49l-1.14-.02a.05.05 0 0 0-.06.06c0 .04.03.06.06.06l1.14.01c.03 0 .06-.02.06-.05a.05.05 0 0 0-.06-.06ZM19.3 30.48h-1.12a.06.06 0 0 0-.06.05c0 .04.02.06.06.06h1.12c.03 0 .06-.02.06-.05a.06.06 0 0 0-.06-.06ZM16.62 31.45c0-.04.2-.05.6-.05.4.01.6.03.6.07 0 .03-.2.04-.6.03-.4 0-.6-.02-.6-.05ZM18.14 31.45c0-.03.19-.05.56-.05.38 0 .57.02.57.06 0 .03-.19.04-.57.04-.37 0-.56-.02-.56-.05Z" fill="#F6DC78"/><path d="M18.5 33.27c.21 0 .4-.03.4-.06 0-.04-.18-.07-.4-.07-.23 0-.4.03-.4.06s.17.06.4.07ZM15.74 34.08c.34.01.61 0 .62-.04 0-.03-.28-.06-.62-.06-.34 0-.61.01-.61.04s.27.06.61.06ZM18.4 34.08c.18 0 .32-.02.32-.05 0-.04-.14-.06-.31-.07-.17 0-.31.03-.31.06s.13.06.3.06ZM17.24 34.08c.36 0 .66-.02.66-.05 0-.02-.3-.05-.66-.05-.37 0-.67.02-.67.05 0 .03.3.05.67.05Z" fill="#3986C3"/><path d="m36.04 34.36 3.87-.07a33.21 33.21 0 0 0 3.03-6.2c.02-.06 0-.09-.06-.09h-5.89a.1.1 0 0 0-.1.07 34.27 34.27 0 0 1-3.2 6.23.05.05 0 0 0 .05.05l2.3.01Zm-12.32 8.6c6.8.4 12.62-2.72 16.19-8.67l-3.87.07a18.64 18.64 0 0 1-12.32 8.58c-.08.01-.08.02 0 .03Z" fill="url(#c)"/><path d="M18.48 35.01c.22 0 .4-.03.39-.07 0-.03-.18-.06-.4-.05-.2 0-.38.03-.38.07 0 .03.17.05.39.05Z" fill="#3986C3"/><path d="m24.66 35.65 5.42-.08a19.27 19.27 0 0 0 3.3-7.55l-.01-.01-.02-.01H27.3c-.06 0-.09.03-.1.08-.22 1.1-.38 1.84-.47 2.24a19 19 0 0 1-2.07 5.33Zm5.02.49.4-.57-5.42.08c-.32.53-.66 1.04-1.04 1.52a.7.7 0 0 1-.14.13 9.92 9.92 0 0 1-1.18 1.25 4.58 4.58 0 0 1-4.56 1.28c-1.02-.27-1.9-1.01-2.64-2.24a6.41 6.41 0 0 0 3.67 4.65c1.65.73 3.39.94 5.22.6 3.5-.63 6.5-3.63 8.58-6.55.04-.06.03-.1-.04-.1h-2.85a.04.04 0 0 1 0-.05Z" fill="url(#d)"/><path d="M15.8 35.85c.32 0 .58-.02.58-.05 0-.04-.26-.07-.58-.08-.32 0-.58.02-.58.06 0 .03.26.06.58.07Z" fill="#3986C3"/><defs><linearGradient id="a" x1="18.94" y1="28" x2="18.94" y2="39.38" gradientUnits="userSpaceOnUse"><stop stop-color="#3986C3"/><stop offset="1" stop-color="#0C5BA2"/></linearGradient><linearGradient id="b" x1="18.94" y1="28" x2="18.94" y2="39.38" gradientUnits="userSpaceOnUse"><stop stop-color="#3986C3"/><stop offset="1" stop-color="#0C5BA2"/></linearGradient><linearGradient id="c" x1="26.87" y1="41.3" x2="26.87" y2="35" gradientUnits="userSpaceOnUse"><stop stop-color="#28A742"/><stop offset="1" stop-color="#7EC02D"/></linearGradient><linearGradient id="d" x1="20.15" y1="41.58" x2="20.15" y2="35.97" gradientUnits="userSpaceOnUse"><stop stop-color="#28A742"/><stop offset="1" stop-color="#7EC02D"/></linearGradient></defs></svg>