<?xml version='1.0' encoding='utf-8'?>
<!-- by TradeStack -->
<svg width="56" height="56" viewBox="0 0 56 56" xmlns="http://www.w3.org/2000/svg"><path fill="#F0F3FA" d="M0 0h56v56H0z" /><path d="M28.02 11 28 13.37a14.6 14.6 0 0 0-13.82 10.08c-.02.06-.07.1-.13.1h-2.37c-.06 0-.08-.04-.07-.1a16.83 16.83 0 0 1 6.24-9.1A16.41 16.41 0 0 1 28.02 11Z" fill="#FEC85C" /><path d="m28 13.37.02-2.37c2.21 0 4.18.32 5.9 1 5.18 2.01 8.68 5.83 10.5 11.43.02.06 0 .1-.06.1h-2.4c-.05 0-.1-.03-.11-.1a14.7 14.7 0 0 0-5.3-7.27A14.31 14.31 0 0 0 28 13.37Z" fill="#FDBA12" /><path d="M28.03 45a977.4 977.4 0 0 1 .09-24.65c0-.51-.18-.8-.55-.85l.38-.28c.11-.08.22-.08.31.02l4.14 4.16c.1.1.08.15-.06.15H29.6c-.16 0-.22.07-.17.22l5.84 19.5c.01.03 0 .07-.04.09A16.1 16.1 0 0 1 28.03 45Z" fill="#231F20" /><path d="M27.57 19.5c.37.05.56.34.55.85A977.4 977.4 0 0 0 28.03 45c-2.56 0-4.95-.52-7.17-1.6-.1-.04-.13-.12-.1-.22l5.85-19.47c.03-.1-.01-.16-.12-.16h-2.9c-.16 0-.18-.06-.07-.17l4.05-3.88Z" fill="#4D4D4F" /><path d="M21.96 28.36c.1-.1.08-.14-.06-.14l-3.32.05c-.77.01-.8-.11-.06-.37l5.96-2.12c.06-.02.12-.01.16.04.04.04.05.1.02.15L18 41.07c-.07.15-.16.17-.29.08a17.38 17.38 0 0 1-5.43-7.12 16.45 16.45 0 0 1-1.09-8.87c.02-.1.08-.16.18-.16h13.36c.14 0 .14.02.01.06-.95.27-2.39.6-4.32 1.01-1.37.29-2.38.51-3.04.67a57.1 57.1 0 0 1-3.72.77c-.13.02-.19.1-.19.23-.02 2.45.6 4.8 1.87 7.04.05.1.11.1.2.03l6.42-6.45Z" fill="#4D4D4F" /><path d="M34.12 28.23c-.04 0-.06.02-.08.06a.08.08 0 0 0 .02.1l6.37 6.38c.1.11.2.1.27-.04 1.18-2.08 1.8-4.4 1.87-6.97 0-.12-.06-.2-.17-.22-4.3-.9-7.89-1.7-10.76-2.35-.54-.13-.53-.19.02-.19h12.92c.1 0 .16.05.18.14.2.95.27 1.9.23 2.87a17.09 17.09 0 0 1-6.66 13.12c-.14.11-.25.09-.33-.09L31.3 25.88c-.06-.15-.02-.2.14-.14l5.67 2.05c.3.1.56.21.76.32.15.08.14.12-.04.12h-3.72Z" fill="#231F20" /></svg>