<!-- by TradeStack --><svg width="56" height="56" viewBox="0 0 56 56" xmlns="http://www.w3.org/2000/svg"><path fill="#F0F3FA" d="M0 0h56v56H0z"/><path d="m22.45 22.84-.07-.03.36-.86c.04-.07.02-.1-.06-.1h-.46a.2.2 0 0 0-.17.09l-1.25 2.28c-.06.1-.1.08-.13-.03L20.3 22a.16.16 0 0 0-.16-.13h-.36c-.1-.01-.13.03-.11.12l.53 2.96a.2.2 0 0 0 .2.16h.34a.3.3 0 0 0 .25-.14l1.33-2.05.04.03a.5.5 0 0 1 .19.15c-.17.2-.27.33-.31.4-.22.4-.2.79.05 1.13.38.5.9.63 1.59.4a.16.16 0 0 1 .11.01c.26.1.57.16.65-.21l.11-.6c.13.04.23.1.32.16.02 0 .04.02.04.04l-.14.46-3.03 1.47h-1.67c-.12 0-.2.06-.22.18l-.26 1.2-1.67 1.08c-.04.03-.03.05 0 .07l3.44 1.84c.1.05.1.1-.02.13a.47.47 0 0 0-.3.22c-.55.04-1 .28-1.36.72L7.1 38.95c-.13.08-.13.06-.02-.03l9.48-8.17c.04-.03.03-.05 0-.08l-3.68-1.96-.01-.01a.03.03 0 0 1 0-.03v-.01l7.06-3.94a.05.05 0 0 0 .02-.05v-.02l-.03-.02-3.4-2.35c-.02 0-.02-.01-.03-.02a.05.05 0 0 1 .02-.07A6672.68 6672.68 0 0 0 30.68 15v.03l-8.23 7.8Z" fill="#1384F7"/><path d="M20.61 24.59c.02.08.04.09.08.02l1.42-2.48a.16.16 0 0 1 .05-.05.14.14 0 0 1 .05-.02l.26-.06h.03l.02.03a.07.07 0 0 1 0 .06l-1.49 2.55c-.12.2-.2.32-.26.34a.63.63 0 0 1-.39-.02c-.04-.02-.07-.05-.07-.1l-.5-2.74c0-.06.01-.09.07-.09h.2c.05 0 .08.03.09.08l.44 2.48Zm12.65-1.25.3-1.22c.02-.08.07-.12.15-.12h.12c.07 0 .1.04.09.11l-.7 2.78a.1.1 0 0 1-.02.04.11.11 0 0 1-.05.03.38.38 0 0 1-.24 0l-.02-.02-.02-.02v-.05a.24.24 0 0 0 .05-.1c0-.06-.01-.07-.06-.04-.4.29-.81.35-1.25.19-.93-.35-.78-1.4.02-1.76.6-.27 1.12-.2 1.57.2.03.03.05.02.06-.02Zm-.16.39a.65.65 0 0 0-.16-.25.8.8 0 0 0-.27-.17 1.1 1.1 0 0 0-1 .15.91.91 0 0 0-.23.25c-.06.09-.1.19-.1.29a.62.62 0 0 0 .18.54.8.8 0 0 0 .28.16c.1.04.21.07.33.07a1.1 1.1 0 0 0 .67-.22.9.9 0 0 0 .22-.24c.06-.1.1-.2.11-.3.01-.1 0-.2-.03-.28Zm1.44-1.32c.11.02.2.01.26-.03.05-.05.08-.14.09-.27 0-.04-.02-.07-.06-.09-.13-.03-.22-.02-.27.02-.05.05-.08.14-.08.28 0 .05.02.08.06.09Zm-10.37 2.3-.01-.01h-.03c-.92.79-2.52-.1-1.68-1.21.4-.56 1.45-.68 1.95-.15.08.08.11.06.1-.04 0-.2.12-.29.34-.26a.07.07 0 0 1 .05.03.07.07 0 0 1 .02.06l-.45 1.75a.1.1 0 0 1-.06.07.36.36 0 0 1-.22.01.07.07 0 0 1-.04-.03.07.07 0 0 1-.01-.05l.04-.16Zm.19-.96a.66.66 0 0 0-.16-.26.8.8 0 0 0-.27-.17 1.1 1.1 0 0 0-.7-.03 1 1 0 0 0-.55.4.68.68 0 0 0-.09.59c.03.1.09.18.16.25a.8.8 0 0 0 .27.18c.1.04.22.07.33.07.12 0 .24 0 .36-.04a1 1 0 0 0 .55-.4c.13-.19.16-.4.1-.59Zm1.75-.6c-.1.06-.15.1-.19.1-.05.02-.06 0-.05-.04l.02-.1c.01-.04 0-.06-.04-.08a.3.3 0 0 0-.22.02.12.12 0 0 0-.07.08l-.43 1.76c-.02.07 0 .1.08.1h.12c.08 0 .13-.03.15-.1l.07-.34c.13-.6.24-1.12.82-1.27.44-.11.89.08.76.6l-.24 1.01c-.02.07 0 .11.08.11h.12c.07 0 .12-.04.14-.11.18-.7.27-1.1.27-1.2-.03-.72-.9-.83-1.4-.53Zm3.8 1.57v-.02a.02.02 0 0 0-.03 0c-.93.79-2.54-.1-1.7-1.21.42-.56 1.46-.68 1.97-.15.07.08.1.06.1-.04 0-.2.12-.29.34-.26h.03l.03.03v.06l-.44 1.75a.1.1 0 0 1-.07.07.36.36 0 0 1-.21.01.07.07 0 0 1-.05-.03.07.07 0 0 1 0-.05l.03-.16Zm.17-1a.65.65 0 0 0-.16-.24.8.8 0 0 0-.27-.17 1.1 1.1 0 0 0-1 .15.9.9 0 0 0-.23.24c-.06.1-.1.2-.1.3a.62.62 0 0 0 .19.53.8.8 0 0 0 .27.17 1.1 1.1 0 0 0 1-.15.9.9 0 0 0 .23-.24c.06-.1.1-.2.1-.3.02-.1 0-.2-.03-.29Zm5.22-.23c-.84 1.11.77 2 1.7 1.2a.02.02 0 0 1 .03.02l-.04.17v.05c.02.01.03.03.05.03.08.02.15.02.22 0a.1.1 0 0 0 .07-.08l.44-1.75a.07.07 0 0 0-.01-.06.07.07 0 0 0-.05-.03c-.23-.03-.34.06-.34.26 0 .1-.03.11-.1.04-.51-.53-1.56-.4-1.97.15Zm1.74 0c.08.07.13.15.16.24.07.2.04.4-.08.59a1 1 0 0 1-.54.4 1.1 1.1 0 0 1-.7-.02.8.8 0 0 1-.26-.17.65.65 0 0 1-.16-.25.67.67 0 0 1 .08-.58 1 1 0 0 1 .55-.4c.11-.04.23-.06.35-.05.12 0 .23.02.34.06.1.04.2.1.26.17Zm1.68-.28c0 .05 0 .06.06.05l.18-.1c.5-.3 1.37-.2 1.4.52 0 .11-.09.52-.27 1.21-.02.07-.07.11-.15.11h-.11c-.08 0-.1-.04-.09-.1l.25-1.02c.12-.52-.32-.71-.77-.6-.57.15-.69.68-.81 1.27l-.08.33c-.02.08-.07.12-.14.12h-.12c-.08 0-.1-.04-.09-.11l.43-1.76a.12.12 0 0 1 .08-.08.3.3 0 0 1 .21-.02c.04.02.06.04.05.08l-.03.1ZM34.02 25h.17a.1.1 0 0 0 .06-.02.1.1 0 0 0 .04-.06l.44-1.8a.1.1 0 0 0-.02-.08.1.1 0 0 0-.08-.04h-.16a.1.1 0 0 0-.07.02.1.1 0 0 0-.03.06l-.44 1.8a.1.1 0 0 0 .02.08.1.1 0 0 0 .08.04Z"/><path d="m23.14 23.38 1.12.6a.7.7 0 0 1-.1.28.86.86 0 0 1-.22.23.95.95 0 0 1-.54.17.76.76 0 0 1-.5-.17.58.58 0 0 1-.21-.43c0-.13.04-.27.12-.39.08-.12.2-.22.33-.3Z" fill="#1384F7"/><path d="m38.66 27.7.65-.7a.04.04 0 0 1 .04-.01h.02v.03l-.01.47v.01a.04.04 0 0 0 .05.02l.57-.23a.04.04 0 0 1 .04.01.04.04 0 0 1 0 .04l-.2.59v.01a.04.04 0 0 0 0 .03h.02l.38.07a.04.04 0 0 1 .01.07l-1.12.8-.01.01a.04.04 0 0 0 0 .04l.21.3a.04.04 0 0 1 0 .04.04.04 0 0 1-.03.02l-1.01-.14a.04.04 0 0 0-.03 0l-.01.02v1.1l-.03.02h-.27a.04.04 0 0 1-.02-.03V29.2a.04.04 0 0 0-.04-.03l-1.21.15a.04.04 0 0 1-.03-.06l.21-.29a.04.04 0 0 0 .01-.03.04.04 0 0 0-.01-.02l-1.13-.81a.04.04 0 0 1 0-.06h.02l.37-.07a.04.04 0 0 0 .03-.05l-.2-.58v-.02a.04.04 0 0 1 .02-.03h.02l.57.22h.04v-.02l.01-.01-.04-.47v-.03l.02-.01a.04.04 0 0 1 .04 0l.67.72.02.02h.02a.04.04 0 0 0 .02-.05l-.3-1.37v-.02a.04.04 0 0 1 .03-.02h.02l.54.3h.02a.04.04 0 0 0 .03-.02l.27-.86.01-.02h.05v.02l.24.85v.02a.04.04 0 0 0 .05 0l.55-.29a.03.03 0 0 1 .04 0l.01.02v.02l-.3 1.37v.03l.02.01h.04Z" fill="#ED3237"/><path d="m21.01 26.9-.48.33c0-.1.04-.2.1-.27a.14.14 0 0 1 .08-.07c.1-.01.2 0 .3.02Z" fill="#1384F7"/><path d="m21.2 28.95.04-.16v-.05l-.03-.02H20.08a.07.07 0 0 1-.04-.03l-.01-.02v-.03l.19-.75c0-.01 0-.02.02-.03l.04-.01h1.17l.05-.02a.06.06 0 0 0 .01-.04v-.13l-.01-.05a.07.07 0 0 0-.05-.01h-1.09l-.03-.01-.02-.02a.06.06 0 0 1 0-.05l.18-.72c0-.01 0-.02.02-.03l.04-.01h1.15c.01 0 .03 0 .04-.02l.02-.03.04-.14a.06.06 0 0 0-.02-.05l-.02-.01-.03-.01h-1.49l-.04.01a.06.06 0 0 0-.02.04l-.6 2.38a.06.06 0 0 0 0 .05l.02.01.03.01h1.5l.05-.01.02-.04Zm4.06-.42-.06-.1c-.12-.19-.07-.29.15-.29h1.85c.08 0 .12-.04.11-.12-.07-1.06-1.19-1.22-1.97-.82-.39.2-.7.77-.53 1.23.34.96 1.8.9 2.32.15.07-.1.04-.14-.07-.14h-.1c-.11 0-.2.04-.28.13-.21.24-.52.34-.9.3a.68.68 0 0 1-.52-.34Zm1.64-.64-1.66.02h-.01v-.02c0-.08.01-.16.05-.23.05-.08.1-.14.18-.2a.9.9 0 0 1 .27-.13c.1-.03.21-.05.32-.05h.02c.22 0 .43.06.59.17.16.1.25.26.25.42a.01.01 0 0 1-.01.02Zm1.38-.67c-.02.1 0 .12.08.05.2-.16.45-.25.75-.27.08 0 .1.03.09.1l-.02.07c0 .03-.03.06-.05.08a.16.16 0 0 1-.1.03c-.43 0-.7.2-.83.61-.07.26-.16.58-.25.97-.02.1-.08.14-.18.14h-.07c-.1 0-.14-.05-.11-.14l.43-1.73a.1.1 0 0 1 .06-.07.21.21 0 0 1 .18 0c.04.01.05.04.04.08l-.02.08Zm3.27.11c0 .1-.03.11-.1.04-.61-.66-1.84-.4-2.15.48-.16.46.04.89.43 1.12.47.27.93.24 1.4-.1.05-.05.07-.03.06.03-.11.68-.51.94-1.19.79-.16-.04-.26-.1-.32-.2a.27.27 0 0 0-.24-.13h-.1c-.11 0-.14.04-.08.14.08.15.21.27.38.35.65.3 1.62.19 1.83-.66.14-.57.3-1.24.47-2.02.01-.06-.01-.1-.07-.11-.2-.06-.3.04-.32.27Zm-.32.2a.7.7 0 0 1 .15.27c.07.2.03.42-.09.62a1 1 0 0 1-.9.47.92.92 0 0 1-.33-.07.78.78 0 0 1-.27-.19.7.7 0 0 1-.15-.27.76.76 0 0 1 .1-.62 1 1 0 0 1 .9-.47c.1 0 .22.03.32.07.1.05.2.11.27.19Zm-8.53-.32c0 .05.01.07.06.05l.18-.1c.5-.3 1.38-.2 1.4.52 0 .1-.08.51-.26 1.2-.02.08-.07.12-.14.12h-.12c-.07 0-.1-.04-.09-.11l.25-1.01c.12-.52-.33-.71-.77-.6-.58.15-.7.68-.81 1.27l-.08.34c-.02.07-.07.1-.14.11h-.12c-.08 0-.1-.03-.09-.1l.43-1.77a.12.12 0 0 1 .07-.08.3.3 0 0 1 .21-.01c.04 0 .06.04.05.08l-.03.1Zm11.66-.2h-.26l-.01.02L33 28.7l-.02.02h-.03l-.03-.01-.01-.03-.3-1.63c0-.02 0-.03-.02-.04l-.03-.01h-.27l-.02.02v.05l.37 2.12a.06.06 0 0 1 0 .05l-.44.67v.06l.02.02.03.01h.26l.02-.02 1.86-2.88v-.06a.06.06 0 0 0-.02-.02l-.02-.01ZM40.59 31.35c.1-.09.12-.22.05-.3-.07-.08-.2-.07-.3.02-.1.1-.12.23-.06.3.07.08.2.07.3-.02ZM20.86 31.43c-.95.4-1.12 1.94 0 2.23.54.13 1 0 1.4-.38.07-.06.14-.1.23-.1h.19c.12 0 .14.05.05.15-.54.59-1.2.79-2 .6-1.28-.3-1.42-1.84-.38-2.56.82-.57 2.08-.53 2.63.45l.01.05v.04l-.03.03a.07.07 0 0 1-.04.01h-.18a.24.24 0 0 1-.2-.1c-.42-.57-.98-.71-1.68-.42Zm17.83.83h-.27c-.01 0-.03 0-.04-.02a.08.08 0 0 1-.03-.04c0-.06 0-.11.03-.16a.11.11 0 0 1 .04-.03l.04-.01h.3c.04 0 .06-.03.07-.07l.19-.83c0-.03.02-.05.04-.07a.11.11 0 0 1 .07-.03h.18c.07 0 .09.03.08.1l-.18.78a.1.1 0 0 0 .01.08l.03.03H39.53c.05 0 .07.04.06.1l-.02.09c-.01.07-.05.1-.12.09a.69.69 0 0 0-.26 0 .1.1 0 0 0-.05.03.12.12 0 0 0-.02.06l-.32 1.5c-.02.1-.08.14-.17.14h-.1c-.1 0-.13-.05-.1-.14l.32-1.52c.01-.05 0-.08-.06-.08Zm-13.12 1.26a.82.82 0 0 0 .05-1.11c-.09-.1-.2-.2-.34-.26a1.39 1.39 0 0 0-.45-.14 1.63 1.63 0 0 0-.5.02c-.33.06-.63.22-.83.45-.2.22-.28.5-.23.75.03.13.09.25.18.36.08.1.2.2.33.26.14.07.3.12.46.14.16.02.33.01.5-.02.33-.06.63-.22.83-.45Zm-.32-1.04c.07.07.13.16.16.25.07.19.04.4-.08.58a1 1 0 0 1-.55.4 1.1 1.1 0 0 1-.68-.02.8.8 0 0 1-.27-.17.64.64 0 0 1-.16-.25.66.66 0 0 1 .08-.58 1 1 0 0 1 .54-.4 1.1 1.1 0 0 1 .7.02c.1.04.19.1.26.17Zm1.52-.26c-.02.1 0 .12.08.05.2-.17.44-.25.75-.27.07 0 .1.03.08.1l-.01.07c-.01.03-.03.06-.06.08a.16.16 0 0 1-.1.03c-.42 0-.7.2-.82.61l-.24.97c-.03.1-.09.14-.19.14h-.07c-.1 0-.13-.05-.11-.14l.43-1.73a.1.1 0 0 1 .06-.07.2.2 0 0 1 .18 0c.04.01.05.04.04.08l-.02.08Zm1.38 1.47c.01-.04.03-.04.06-.01.45.4.98.47 1.57.2.81-.37.96-1.44.02-1.79-.44-.17-.85-.1-1.25.19-.05.03-.07.02-.06-.04 0-.03.02-.06.04-.1a.06.06 0 0 0 0-.07l-.03-.01a.37.37 0 0 0-.24-.01.11.11 0 0 0-.05.03.1.1 0 0 0-.03.05l-.7 2.76c-.01.07.02.11.1.11h.1c.1 0 .14-.04.16-.12l.31-1.19Zm1.74-1.21a.65.65 0 0 1 .2.55.92.92 0 0 1-.34.54 1.06 1.06 0 0 1-1.01.15.8.8 0 0 1-.27-.17.64.64 0 0 1-.2-.55.91.91 0 0 1 .34-.54 1.06 1.06 0 0 1 1-.16c.11.04.2.1.28.18Zm3.45.29a.87.87 0 0 1-.23.75c-.2.23-.5.4-.83.45-.17.03-.34.04-.5.02a1.4 1.4 0 0 1-.45-.14 1.05 1.05 0 0 1-.34-.26.82.82 0 0 1-.17-.36.87.87 0 0 1 .22-.75c.2-.23.5-.4.83-.45.17-.03.34-.04.5-.02.17.02.32.07.46.14.13.07.25.16.33.26.1.1.15.23.18.36Zm-.4-.05a.71.71 0 0 0-.43-.42 1.06 1.06 0 0 0-1.22.4c-.06.1-.1.2-.1.3-.02.1 0 .2.03.28.07.19.22.34.43.42a1.06 1.06 0 0 0 1.23-.4c.05-.1.09-.2.1-.3.01-.1 0-.2-.03-.28Zm1.46-.45c-.08.07-.11.05-.09-.05l.02-.08c.02-.04 0-.07-.04-.08a.2.2 0 0 0-.18 0 .1.1 0 0 0-.06.07l-.43 1.73c-.02.1.02.14.12.14h.07c.1 0 .16-.05.18-.14.09-.39.17-.7.25-.97.12-.4.39-.61.81-.6.04 0 .08-.02.1-.04a.15.15 0 0 0 .06-.08l.02-.07c.01-.07-.02-.1-.1-.1-.3.02-.54.1-.73.27Zm2.92 1.45v-.01a.02.02 0 0 0-.02-.01h-.01c-.93.79-2.53-.1-1.7-1.22.42-.55 1.47-.67 1.98-.14.07.08.1.07.1-.04 0-.2.11-.29.34-.25h.03l.02.03a.07.07 0 0 1 .01.05l-.45 1.75a.1.1 0 0 1-.07.08.37.37 0 0 1-.22 0 .07.07 0 0 1-.04-.03.07.07 0 0 1 0-.05l.03-.16Zm.18-1a.65.65 0 0 0-.16-.24.8.8 0 0 0-.27-.17 1.1 1.1 0 0 0-.69 0 1 1 0 0 0-.54.4.67.67 0 0 0-.08.58c.04.1.1.18.17.25a.8.8 0 0 0 .27.17 1.1 1.1 0 0 0 .69 0 1 1 0 0 0 .54-.4c.11-.19.14-.4.07-.58Zm5.62.8c.2-.22.28-.5.23-.75a.82.82 0 0 0-.18-.36c-.09-.1-.2-.2-.34-.26a1.4 1.4 0 0 0-.45-.14 1.63 1.63 0 0 0-.5.02c-.33.06-.63.22-.83.45-.2.22-.28.5-.23.75.03.13.09.25.18.36.09.1.2.2.34.26.13.07.29.12.45.14.16.02.33.01.5-.02.33-.06.63-.22.83-.45Zm-.32-1.04c.07.07.13.15.16.24.07.19.04.4-.08.58a1 1 0 0 1-.54.4 1.11 1.11 0 0 1-.68 0 .8.8 0 0 1-.27-.17.64.64 0 0 1-.17-.25.65.65 0 0 1 .08-.58 1 1 0 0 1 .54-.4 1.1 1.1 0 0 1 .69.01c.1.04.2.1.27.17Zm1.57-.27c-.02.05 0 .07.05.05l.18-.1c.5-.3 1.37-.2 1.4.52 0 .11-.09.51-.27 1.2-.02.08-.07.12-.14.12h-.12c-.07 0-.1-.04-.08-.1l.24-1.02c.13-.52-.32-.71-.76-.6-.58.15-.7.68-.82 1.27l-.07.34c-.02.07-.07.1-.15.1h-.12c-.07 0-.1-.03-.08-.1l.43-1.76a.12.12 0 0 1 .07-.08.3.3 0 0 1 .21-.02c.05.02.06.04.05.09l-.02.1ZM39.79 34h.19a.09.09 0 0 0 .08-.07l.44-1.82a.09.09 0 0 0-.01-.08.09.09 0 0 0-.07-.03h-.2a.09.09 0 0 0-.08.07l-.44 1.82a.09.09 0 0 0 .05.1l.04.01Z"/></svg>