<!-- by TradeStack --><svg viewBox="0 0 56 56" fill="none" xmlns="http://www.w3.org/2000/svg">
<rect width="56" height="56" fill="#F0F3FA"/>
<path d="M9.53595 34H5.16151C5.16151 34 6 33.5048 6 31.7961V25.0557C6 23.6294 5 22.7949 5 22.7949L8.5 22V26.3038C9.07751 25.7194 10.3811 25 11.4529 25C12.652 25 13.5 25.7862 13.5 27.8093V31.7912C13.5 33.5469 14.5217 33.9951 14.5217 33.9951H10.2196C10.2196 33.9951 11 33.7251 11 31.7912V27.7425C11 26.7545 10.572 26.284 9.85254 26.284C9.51729 26.284 8.75694 26.4152 8.5 26.5266V31.7887C8.5 33.6385 9.53595 34 9.53595 34Z" fill="black"/>
<path d="M18.5446 25C20.486 25 21.5 25.9119 21.5 27.9828V31.4705C21.5 33.1912 22.8148 33.0547 22.8148 33.0547C22.8148 33.0547 21.5834 34 20.5314 34C19.7807 34 19.2475 33.5776 19.1232 32.7688C18.6091 33.3406 17.7771 34 16.7609 34C15.6515 34 14.7119 33.2247 14.7119 31.9754C14.7119 30.5432 15.8248 29.227 19 28.8406V27.7948C19 26.4296 18.2935 25.6388 17.2439 25.6388C16.8207 25.6388 16.4453 25.7753 16.1799 25.9093C16.8996 26.0613 17.306 26.5842 17.306 27.1895C17.306 27.8798 16.7753 28.4362 16.1345 28.4362C15.5081 28.4362 14.9605 27.9313 14.9605 27.1895C14.9629 25.9273 16.5744 25 18.5446 25ZM19 29.3815C18.8733 29.348 18.8434 29.3146 18.6713 29.3146C17.9516 29.3146 17.2319 29.9044 17.2319 31.1022C17.2319 32.2304 17.887 32.7224 18.468 32.7224C18.6856 32.7224 18.7824 32.6528 19 32.5369V29.3815Z" fill="black"/>
<path d="M27.5266 34H23C23 34 24 33.2597 24 31.6552V28.1906C24 26.673 23 25.8457 23 25.8457L26.5 25V26.3621C27.0433 25.743 28.2142 25.0185 29.2885 25.0185C30.5047 25.0185 31.5 25.743 31.5 27.9324V31.6552C31.5 33.5231 32.4785 34 32.4785 34H28.087C28.087 34 29 33.4731 29 31.6552V27.8613C29 26.81 28.3904 26.3094 27.6538 26.3094C27.2868 26.3094 26.7741 26.4306 26.5 26.5676V31.6525C26.5025 33.4494 27.5266 34 27.5266 34Z" fill="black"/>
<path d="M34.2544 29.9545C34.2397 30.1734 34.2397 30.3768 34.2397 30.5777C34.2397 31.9605 34.9616 32.8361 35.9527 32.8361C36.8336 32.8361 37.7146 32.2979 38.434 31.4893L38.5294 31.6077C38.0498 32.4678 36.721 34 35.1035 34C33.4689 34 32.588 32.5992 32.588 30.7966C32.588 27.7477 35.3434 25 37.3597 25C38.4316 25 39.2317 25.5047 39.2317 26.5657C39.2317 27.7296 38.434 28.976 34.2544 29.9545ZM34.2715 29.7588C37.0416 28.9502 37.7929 27.3768 37.7929 26.3983C37.7929 25.7082 37.4723 25.3889 37.0074 25.3889C35.9992 25.3889 34.575 27.4489 34.2715 29.7588Z" fill="#004250"/>
<path d="M49.4804 22C48.1345 22 46.632 22.7027 45.9591 25.2719L45.7976 26H44.4541H42.6262L43.1694 24H42.0805C41.2999 26.3057 39.5991 27 39.5991 27H40.8961L39.5869 31.6253C39.073 33.5406 39.4107 34.0042 40.1791 34.0042C40.9817 34.0042 42.4524 32.9672 42.981 32.3768V32.3109C41.3145 33.077 40.7884 32.9331 41.1384 31.6253L42.4426 27H45.5994L43.5585 34.4677C42.5185 37.1711 41.6522 38 41.6522 38C42.7877 37.5852 44.7258 36.2537 45.3669 33.8456L47.2316 27H48.6313L49.2186 26H49.2063H47.4298L47.6378 25.0474C48.1517 22.9394 48.9029 22.3172 49.6395 22.3026C49.7692 22.3026 49.9282 22.3172 50.0726 22.366C49.5612 22.5417 49.1917 22.8296 49.1917 23.4347C49.1917 23.8982 49.6248 24.1861 50.009 24.1861C50.5694 24.1861 51 23.8348 51 23.1809C51.0025 22.5758 50.3956 22 49.4804 22Z" fill="#004250"/>
</svg>
