<!-- by TradeStack --><svg viewBox="0 0 56 56" xmlns="http://www.w3.org/2000/svg"><path fill="#F0F3FA" d="M0 0h56v56H0z"/><path d="M6 21v9.15A4.75 4.75 0 0 0 10.64 35h.72A4.75 4.75 0 0 0 16 30.15V21h-2v9.01A2.86 2.86 0 0 1 11 33c-1.73 0-3-1.18-3-2.99V21H6Zm12 9.7h2.12c-.01.9.59 2.67 3.07 2.67 3.1 0 2.72-2.36 2.54-2.86-.19-.5-.59-1.14-2.57-1.75l-.4-.12c-1.94-.58-4.32-1.3-4.32-3.79 0-2.66 2.03-3.85 4.72-3.85 2.68 0 4.47 1.85 4.4 3.85h-2.17c.01-.73-.5-2.2-2.6-2.2-2.63 0-3.08 3.05-.75 3.76 2.33.7 3.73 1.33 4.53 1.84.8.51 1.43 1.54 1.43 2.69S27.38 35 23.16 35c-4.23 0-5.25-2.9-5.15-4.3ZM29 35l4.94-14h2.1L41 35h-2.06l-1.03-3h-5.87l-1.03 3H29Zm8.22-5-2.25-6.55L32.73 30h4.5ZM43 21v14h2v-6h5v-2h-5v-4h6v-2h-8Z" fill="url(#a)"/><defs><linearGradient id="a" x1="30.21" y1="21" x2="30.21" y2="34.14" gradientUnits="userSpaceOnUse"><stop offset=".52" stop-color="#0A3161"/><stop offset=".74" stop-color="#F7E9ED"/><stop offset="1" stop-color="#B41D45"/></linearGradient></defs></svg>