<!-- by TradeStack --><svg xmlns="http://www.w3.org/2000/svg" width="56" height="56" viewBox="0 0 56 56"><path fill="#F0F3FA" d="M0 0h56v56H0z"/><path d="M38.53 15.2a15.38 15.38 0 0 0-8.24-2.4c-8.68 0-15.72 7.21-15.72 16.1 0 8.44 6.33 15.36 14.4 16.04-.45.04-.9.06-1.36.06C18.44 45 11 37.39 11 28s7.44-17 16.6-17c4.19 0 8 1.58 10.93 4.2Z" fill="#497A51"/><path d="M44.86 30.93a14.58 14.58 0 0 0-3.17-8.38 13.89 13.89 0 0 0-19.85-2.05 14.66 14.66 0 0 0-4.44 15.82 15.37 15.37 0 0 1 3.48-19.21 14.54 14.54 0 0 1 20.79 2.14 15.34 15.34 0 0 1 3.19 11.68Z" fill="#B1C450"/><path d="M24.75 41.56c.9.39 1.85.67 2.86.82a11.31 11.31 0 0 0 12.77-9.74c.9-6.3-3.36-12.16-9.52-13.08l-.54-.07a11.7 11.7 0 0 1 3.16.04c6.53.98 11.05 7.19 10.1 13.87a12 12 0 0 1-13.55 10.34 11.75 11.75 0 0 1-5.28-2.18Z" fill="#497A51"/><path d="M18.15 30.26c.16.88.43 1.74.82 2.58a9.95 9.95 0 0 0 13.42 4.83 10.4 10.4 0 0 0 4.5-14.18 11.03 11.03 0 0 1-3.46 16.98c-5.32 2.6-11.69.31-14.23-5.12a11.09 11.09 0 0 1-1.05-5.09Z" fill="#B1C450"/></svg>