<!-- by TradeStack --><svg width="56" height="56" viewBox="0 0 56 56" xmlns="http://www.w3.org/2000/svg"><path fill="#F0F3FA" d="M0 0h56v56H0z"/><path d="M43.88 18.95V19c-.01.02-.02.04-.05.05L36 23.28l-7.97-4.7a.08.08 0 0 0-.08 0l-7.96 4.81-7.73-4.15a.16.16 0 0 0-.11-.02l-.15.02c0-.16.08-.28.24-.37 5.23-2.97 10.46-5.92 15.7-8.86a.1.1 0 0 1 .1 0l15.84 8.94Z" fill="#B19E00"/><path d="M43.88 18.95a.2.2 0 0 1 .07.06c.03.03.05.07.05.11v18.19l-8-4.16v-9.87l7.83-4.23a.07.07 0 0 0 .04-.05l.01-.05Z" fill="#BCB04A"/><path d="M20 23.39v9.82l-8 3.91V19.24l.15-.02c.04 0 .07 0 .1.02L20 23.39Z" fill="#C1B765"/><path d="M36 23.27v9.83l-7.98-4.83-.01-.02a.04.04 0 0 1 0-.04v-.01L36 23.27Z" fill="#D1C98D"/><path d="m19.99 33.16 7.88 4.62a.22.22 0 0 0 .21 0L36 33.12l8 4.18-15.97 8.69a.1.1 0 0 1-.1 0L12 37.12l7.99-3.96Z" fill="#B19E00"/></svg>