<?xml version='1.0' encoding='utf-8'?>
<!-- by TradeStack -->
<svg width="56" height="56" viewBox="0 0 56 56" xmlns="http://www.w3.org/2000/svg"><path fill="#F0F3FA" d="M0 0h56v56H0z" /><path d="M49 29h-4v-2h6v2.96c0 2.32-1.13 3.03-3.1 3.04h-5.07c-.4 0-.83-.12-1.33-.34-1.19-.52-1.49-1.72-1.5-3v-3.38c.02-3.64 2.77-3.29 5.14-3.26 1.03.01 2.38-.05 3.51.05C50.32 23.22 51 24.23 51 26h-2.1c-.07-.33-.15-.58-.47-.78A2.28 2.28 0 0 0 47.3 25h-3.63c-1.1 0-1.65.62-1.67 1.74v2.39c0 .8.13 1.76 1.09 1.87h4.62c1.3-.03 1.31-.87 1.3-2ZM39 31v2h-8.96l-.03-.01-.01-.03V23h2v8h7ZM16 23v6.93c0 1.97-1.02 2.99-2.84 3.07H9.22c-2.68 0-4.21-.57-4.22-3.73v-6.23c0-.03.02-.04.04-.04H7v6.43C7 30.8 8.08 30.98 9.2 31h2.93c1.31-.04 1.87-.62 1.87-1.9V23h2ZM20.67 29c-1.2 0-2.57-.4-2.85-1.95-.45-2.48.35-4 2.83-4.03 1.4-.02 2.8-.02 4.2-.02 1.69 0 3.2.8 3.11 3h-2.11c0-.7-.5-1-1.04-1h-3.43c-.6 0-1.3-.1-1.48.58-.19.7.11 1.42.87 1.42h4.16c1.53 0 2.73-.02 3 1.96.33 2.47-.38 4.02-2.8 4.04h-4.87c-1.7 0-2.8-1-2.76-3h2.17c.19.75.65 1 1.34 1h3.73c.91 0 1.47-.85 1.1-1.67-.15-.34-1.7-.33-1.7-.33h-3.47Z" fill="#0D4C8A" /></svg>