<?xml version='1.0' encoding='utf-8'?>
<!-- by TradeStack -->
<svg width="56" height="56" viewBox="0 0 56 56" xmlns="http://www.w3.org/2000/svg"><path fill="#F0F3FA" d="M0 0h56v56H0z" /><path d="M39 25v6h-1v-6h1Zm-14 0v6h-1v-6h1Zm-15 0h1v3.86C11 30.25 9.78 31 8.5 31S6 30.25 6 28.86V25h1v3.77c0 .79.75 1.27 1.5 1.27s1.5-.48 1.5-1.27V25Zm5.02 1.68c-.05-.5-.42-.68-.98-.68-.46 0-.94.14-.95.65 0 .36.26.58.57.7.1.04.21.08.32.1l.49.14c.2.06.38.12.57.21.59.28.96.81.96 1.47 0 1.13-.93 1.73-1.98 1.73-1.11 0-1.98-.65-2.02-1.81h.93c.04.6.52.81 1.09.81.5 0 1-.17 1-.73 0-.5-.49-.7-.9-.81l-.6-.17c-.76-.22-1.38-.72-1.38-1.57 0-1.06.9-1.72 1.91-1.72.99 0 1.86.65 1.88 1.68h-.91ZM17 31v-6h1v5h2v1h-3Z" /><path fill-rule="evenodd" d="M30.33 30.11c.45-.57.67-1.34.67-2.11 0-1.5-.85-3-2.5-3-1.66 0-2.5 1.5-2.5 3s.85 3 2.5 3c.48 0 .9-.13 1.24-.35L30 31h1l-.67-.89Zm-.62-.83c.2-.37.29-.84.29-1.28 0-.94-.4-2-1.5-2S27 27.06 27 28s.4 2 1.5 2c.25 0 .46-.05.64-.15L28.5 29h1l.2.28Z" /><path d="M36 25h1v3.86c0 1.39-1.22 2.14-2.5 2.14s-2.5-.75-2.5-2.14V25h1v3.77c0 .79.75 1.27 1.5 1.27s1.5-.48 1.5-1.27V25Zm6.06 6H40v-6h2.1c1.77 0 2.9 1.25 2.9 3 0 1.76-1.16 3-2.94 3ZM41 30h1c1.27 0 1.91-.79 1.91-2 0-1.2-.63-2-1.88-2H41v4Zm8.02-3.32c-.05-.5-.42-.68-.98-.68-.46 0-.94.14-.95.65 0 .36.26.58.57.7.1.04.21.08.32.1l.49.14c.2.06.38.12.57.21.59.28.96.81.96 1.47 0 1.13-.93 1.73-1.98 1.73-1.11 0-1.98-.65-2.02-1.81h.93c.04.6.52.81 1.09.81.5 0 1-.17 1-.73 0-.5-.49-.7-.9-.81l-.6-.17c-.76-.22-1.38-.72-1.38-1.57 0-1.06.9-1.72 1.91-1.72.99 0 1.86.65 1.88 1.68h-.91Z" /></svg>