<?xml version='1.0' encoding='utf-8'?>
<!-- by TradeStack -->
<svg width="56" height="56" viewBox="0 0 56 56" xmlns="http://www.w3.org/2000/svg"><path fill="#F0F3FA" d="M0 0h56v56H0z" /><path d="M7 23H4v6c0 1.33.9 4 4.5 4s4.5-2.67 4.5-4v-6h-3v6c0 .67-.3 2-1.5 2S7 29.67 7 29v-6Z" /><path fill="#00BFD3" d="M14 29h5v2h-5z" /><path d="M19 28h-3v-5h2.5l4.5 5v-5h3v10h-2.5L19 28ZM33.5 25v-2H27v10h6.5v-2H30v-2h3.5v-2H30v-2h3.5ZM37.5 23h-3l2.5 5-2.5 5h3l1.5-3 1.5 3h3L41 28l2.5-5h-3L39 26l-1.5-3ZM52 23h-8v2h2.5v8h3v-8H52v-2Z" /></svg>