<?xml version='1.0' encoding='utf-8'?>
<!-- by TradeStack -->
<svg width="56" height="56" viewBox="0 0 56 56" xmlns="http://www.w3.org/2000/svg"><path fill="#F0F3FA" d="M0 0h56v56H0z" /><path d="M28.56 13.13a1.34 1.34 0 0 0-1.14 0l.34 15.82-1.07-8.66c-.4-.1-.78-.05-1.13.17l1.36 8.13-3.6-14.84c-.41-.06-.79.04-1.1.3l3.57 12.37-2.11-5.33c-.41-.01-.77.14-1.05.45l4.07 9.12L18.4 15.4c-.4.05-.75.24-.99.58l7.62 12.64-4.43-5.94c-.4.1-.7.34-.9.7l3.65 4.48-8.98-9.44c-.38.15-.66.43-.8.81L24.8 30.1l-6.59-5.03c-.35.2-.58.52-.66.93l8.4 5.86-14.89-9.1c-.33.25-.53.59-.57 1l12.27 6.78-6.2-2.63c-.3.29-.44.65-.42 1.07l7.47 2.79-14.58-4.28c-.26.33-.36.7-.3 1.11l10.97 2.7 1.4.52-5.57-.73c-.2.36-.25.75-.13 1.14l9.39.82-16.67-.31c-.17.38-.17.77 0 1.15l13.03-.29-5.63.86c-.1.4-.04.78.2 1.13l9.07-1.7-16.05 4.01c-.07.41.03.79.3 1.11l17.65-5.12h.32v-.75c0-.54.44-.98.97-.98s.97.44.97.98v.75h.34L46.96 39c.26-.32.36-.7.3-1.1l-16.07-4.3 9.09 1.98c.23-.35.3-.73.2-1.13l-5.64-.86 13.03.29c.17-.38.17-.77 0-1.15l-16.67.31 9.39-.82c.12-.4.08-.78-.13-1.14l-5.56.73 12.35-3.22c.07-.4-.03-.78-.3-1.1l-14.57 4.27 7.47-2.8c.02-.4-.12-.77-.42-1.06l-6.2 2.63 12.27-6.78a1.36 1.36 0 0 0-.57-1l-14.89 9.1 8.4-5.86c-.08-.4-.3-.72-.66-.93l-6.6 5.03 11.26-10.86a1.36 1.36 0 0 0-.8-.8l-8.98 9.43 3.64-4.48c-.19-.36-.5-.6-.9-.7l-4.42 5.94 7.62-12.64a1.35 1.35 0 0 0-.99-.58L29.3 30.66l4.07-9.12c-.28-.3-.64-.46-1.05-.45l-2.11 5.33 3.58-12.37c-.32-.26-.7-.36-1.1-.3L29.08 28.6l1.36-8.13a1.34 1.34 0 0 0-1.13-.17l-1.1 8.85.35-16.01Z" fill="#960410" /></svg>