<?xml version='1.0' encoding='utf-8'?>
<!-- by TradeStack -->
<svg width="56" height="56" viewBox="0 0 56 56" xmlns="http://www.w3.org/2000/svg"><path fill="#F0F3FA" d="M0 0h56v56H0z" /><path d="m38 25 2 5.7 2-5.7h1l-2.45 7H39.4L37 25h1ZM33 25h1v1.34c.23-.67.94-1.34 1.67-1.34h.1l.23.03v1a1.4 1.4 0 0 0-.34-.03C34.65 26 34 27.1 34 28.06V32h-1v-7ZM29.1 25c2.22 0 2.9 2.16 2.9 4h-5c.03 1.05.74 2 2.02 2 .86 0 1.57-.49 1.8-1.31h1.09c-.17 1.46-1.62 2.31-2.98 2.31-1.9 0-2.93-1.67-2.93-3.42 0-1.84 1.12-3.58 3.1-3.58Zm1.9 3c-.1-1.07-.78-2-1.96-2-1.08 0-2 .98-2.04 2h4ZM47.1 25c2.22 0 2.9 2.16 2.9 4h-5c.03 1.05.74 2 2.02 2 .86 0 1.57-.49 1.8-1.31h1.09c-.17 1.46-1.62 2.31-2.98 2.31-1.9 0-2.93-1.67-2.93-3.42 0-1.84 1.12-3.58 3.1-3.58Zm1.9 3c-.1-1.07-.78-2-1.96-2-1.08 0-2 .98-2.04 2h4ZM20.98 29.69c.07.91.66 1.31 1.59 1.31.68 0 1.42-.25 1.42-1.03 0-.66-.7-.81-1.21-.95l-.81-.23c-.87-.23-1.8-.66-1.8-1.7 0-1.3 1.04-2.09 2.28-2.09 1.22 0 2.3.69 2.28 2h-.96c-.06-.8-.65-1-1.4-1-.76 0-1.17.3-1.17.82 0 .58.58.83 1.06.96l.68.17c1.05.28 2.06.63 2.06 1.9 0 1.4-1.18 2.15-2.48 2.15-1.46 0-2.46-.82-2.52-2.31h.98Z" fill="#999997" /><path d="M18 25h1v7h-1v-7Z" fill="#E64F25" /><path d="M7 25v4.52c0 1 .48 1.47 1.26 1.47 1.45 0 1.74-1.5 1.74-2.64V25h1v7h-1v-1.19A2.14 2.14 0 0 1 8.07 32C6.62 32 6 30.95 6 29.63V25h1ZM16 32v-4.52c0-1-.48-1.47-1.26-1.47-1.45 0-1.74 1.5-1.74 2.64V32h-1v-7h1v1.19A2.14 2.14 0 0 1 14.93 25c1.45 0 2.07 1.05 2.07 2.37V32h-1Z" fill="#999997" /><circle cx="18.5" cy="23.5" r=".5" fill="#E64F25" /></svg>