<!-- by TradeStack --><svg width="56" height="56" viewBox="0 0 56 56" xmlns="http://www.w3.org/2000/svg"><path fill="#F0F3FA" d="M0 0h56v56H0z"/><circle cx="28" cy="28" r="10" fill="#395E8E"/><path d="M23.93 18.86c.65.63 1.4 1.67 1.07 2.64-.18.53-.55.94-.9 1.33-.64.72-1.24 1.38-.6 2.67.58 1.15 1.65 2.14 2.65 3.06.74.67 1.43 1.3 1.85 1.94.42.62.23 1.33.04 2.02-.25.97-.5 1.9.96 2.48a4.31 4.31 0 0 1 2.3 2.44c.5-.18 1-.39 1.45-.64.15-.64.25-1.42.25-2.3 0-.34.01-.68.03-1.01.07-1.63.13-3.08-1.53-3.49l-1.18-.27c-1.26-.28-2.04-.45-2.82-1.23l-.53-.5c-.9-.83-1.8-1.67-.97-2.5.45-.45 1-.6 1.6-.76.75-.2 1.57-.41 2.4-1.24l.65-.62c.97-.92 1.19-1.12.35-2.38a5.72 5.72 0 0 1-.67-1.52 6.84 6.84 0 0 0-.27-.77 10.04 10.04 0 0 0-6.13.65Z" fill="#08644C"/><path fill-rule="evenodd" d="M28 43.5a15.5 15.5 0 1 0 0-31 15.5 15.5 0 0 0 0 31Zm0 .5a16 16 0 1 0 0-32 16 16 0 0 0 0 32Z" fill="#717173"/><path fill-rule="evenodd" d="M31.77 39.85c1.06-3 1.73-7.2 1.73-11.85 0-4.65-.67-8.84-1.73-11.85a11.5 11.5 0 0 0-1.82-3.5c-.67-.8-1.33-1.15-1.95-1.15-.62 0-1.28.36-1.95 1.16a11.5 11.5 0 0 0-1.82 3.49c-1.06 3-1.73 7.2-1.73 11.85 0 4.65.67 8.84 1.73 11.85a11.5 11.5 0 0 0 1.82 3.5c.67.8 1.33 1.15 1.95 1.15.62 0 1.28-.36 1.95-1.16a11.5 11.5 0 0 0 1.82-3.49ZM28 45c3.31 0 6-7.61 6-17s-2.69-17-6-17-6 7.61-6 17 2.69 17 6 17Z" fill="#717173"/><path fill-rule="evenodd" d="M16.15 31.77c3 1.06 7.2 1.73 11.85 1.73 4.65 0 8.84-.67 11.85-1.73a11.5 11.5 0 0 0 3.5-1.82c.8-.67 1.15-1.33 1.15-1.95 0-.62-.36-1.28-1.16-1.95a11.5 11.5 0 0 0-3.49-1.82c-3-1.06-7.2-1.73-11.85-1.73-4.65 0-8.84.67-11.85 1.73a11.5 11.5 0 0 0-3.5 1.82c-.8.67-1.15 1.33-1.15 1.95 0 .62.36 1.28 1.16 1.95.8.67 1.98 1.29 3.49 1.82ZM11 28c0 3.31 7.61 6 17 6s17-2.69 17-6-7.61-6-17-6-17 2.69-17 6Z" fill="#717173"/><path fill-rule="evenodd" d="M39.05 33.72c-1.38-2.88-3.87-6.32-7.16-9.6-3.3-3.3-6.73-5.8-9.6-7.17a11.5 11.5 0 0 0-3.76-1.18c-1.04-.1-1.76.12-2.2.56-.44.44-.65 1.16-.56 2.2.1 1.04.5 2.31 1.18 3.75 1.38 2.88 3.87 6.32 7.16 9.6 3.3 3.3 6.73 5.8 9.6 7.17a11.5 11.5 0 0 0 3.76 1.18c1.04.1 1.76-.12 2.2-.56.44-.44.65-1.16.56-2.2-.1-1.04-.5-2.31-1.18-3.75Zm.97 6.3c2.34-2.34-1.14-9.62-7.78-16.26-6.64-6.64-13.92-10.12-16.26-7.78-2.34 2.34 1.14 9.62 7.78 16.26 6.64 6.64 13.92 10.12 16.26 7.78Z" fill="#717173"/></svg>