<!-- by TradeStack --><svg width="56" height="56" viewBox="0 0 56 56" xmlns="http://www.w3.org/2000/svg"><path fill="#F0F3FA" d="M0 0h56v56H0z"/><ellipse cx="8.99" cy="28" rx="4.99" ry="5" fill="#730208"/><path d="M5 25c.9-1.19 2.38-2 3.99-2 1.6 0 3.08.81 3.99 2-.26 1.72-1.96 3-4 3-2.02 0-3.73-1.28-3.98-3Z" fill="#A92C32"/><path d="M8.99 33a5 5 0 0 0 4.99-5v-.04a5.44 5.44 0 0 1-3.5 2.14c-2.2.37-3.86-1.16-4.98-2.2-.4-.36-.74-.67-1-.8a.86.86 0 0 0-.4-.1 5 5 0 0 0 4.89 6Z" fill="url(#a3aftlmh5)"/><path d="M13.98 27.5a5 5 0 0 1-9.93 0 5 5 0 1 0 9.93 0Z" fill="#883E3E"/><path d="M11.48 25c0 .83-1.12 1.5-2.5 1.5-1.37 0-2.49-.67-2.49-1.5s1.12-1.5 2.5-1.5c1.37 0 2.5.67 2.5 1.5Z" fill="url(#b3aftlmh5)"/><path fill="#FBC912" fill-opacity=".6" d="M6 22h6v12H6z"/><path d="M17 24v5.05c0 1.2.92 1.95 2 1.95 1.11 0 2-.76 2-1.95V24h1v5.03A2.88 2.88 0 0 1 18.98 32 2.85 2.85 0 0 1 16 29.03V24h1ZM51 32v-5.05c0-1.2-.92-1.95-2-1.95-1.11 0-2 .76-2 1.95V32h-1v-5.03A2.88 2.88 0 0 1 49.02 24 2.85 2.85 0 0 1 52 26.97V32h-1ZM30 25v5c0 .67.37 1 1 1h1v1h-1c-1.41 0-2-.68-2-2v-5h-.5v-.99h.5V22h1v2.01h2V25h-2ZM33 32v-8h1v2l-.08-.14c.23-.6.6-1.06 1.13-1.38A3.68 3.68 0 0 1 37 24v1c-.82 0-1.62.15-2.21.8-.48.5-.79 1.26-.79 2.2v4h-1ZM41 32c-2.27 0-4-1.75-4-4 0-2.27 1.73-4 4-4 2.26 0 4 1.72 4 4 0 2.27-1.74 4-4 4Zm0-1c1.73 0 3-1.3 3-3 0-1.68-1.28-3-3-3-1.73 0-3 1.31-3 3 0 1.67 1.28 3 3 3Z" fill="#8F0002"/><circle cx="25" cy="28" r="1" fill="#8F0002"/><defs><linearGradient id="a3aftlmh5" x1="8.99" y1="30" x2="8.99" y2="33" gradientUnits="userSpaceOnUse"><stop stop-color="#863033"/><stop offset="1" stop-color="#701C1C"/></linearGradient><linearGradient id="b3aftlmh5" x1="8.99" y1="24" x2="8.99" y2="26.5" gradientUnits="userSpaceOnUse"><stop stop-color="#D9D9D9"/><stop offset="1" stop-color="#D9D9D9" stop-opacity="0"/></linearGradient></defs></svg>