<!-- by TradeStack --><svg width="56" height="56" viewBox="0 0 56 56" xmlns="http://www.w3.org/2000/svg"><path fill="#F0F3FA" d="M0 0h56v56H0z"/><path d="M33 34.4v8.35l1-.8 1-.79v-6.34c-.57-.08-1.4-.21-1.87-.36L33 34.4ZM21 34.84v6.32l1 .8 1 .8V34.4l-.2.07c-.53.19-1.28.3-1.8.36ZM25 33.03V44.4l2 1.6V31c-.6.79-1.25 1.47-2 2.03ZM31 44.4V33.03c-.75-.56-1.4-1.24-2-2.03v15l2-1.6Z" fill="#B9202C"/><path d="M45.9 28.11c-.4-1.02-1.82-1.4-3.16-.83s-2.1 1.86-1.71 2.88c.17.43.52.74.96.92a7.75 7.75 0 0 1-1.99.16c-9.65-.52-6.91-6.59-6.3-7.44-.03.02-4.05.87-4.54 2.24 0-3.1 4.87-3.61 5.23-3.77.36-.16.59-.47.5-1.17h-.13c-.78-.04-.36-.6-.16-1.05.18-.39.28-.82.31-1.3A7.24 7.24 0 0 0 28.18 12V12h-.36v.01a7.24 7.24 0 0 0-6.73 6.74c.03.48.13.91.3 1.3.21.44.63 1-.15 1.05h-.14c-.08.7.15 1.01.5 1.17.37.16 5.24.67 5.24 3.77-.49-1.37-4.5-2.22-4.54-2.24.61.85 3.35 6.92-6.3 7.44a7.5 7.5 0 0 1-2-.16c.45-.18.8-.49.97-.92.4-1.02-.37-2.31-1.71-2.88-1.34-.57-2.76-.2-3.15.83-.1.26-.13.54-.1.82.06.4.26.8.56 1.16l.2.21a10.73 10.73 0 0 0 9.14 3.15A10.8 10.8 0 0 0 28 27.67a11.51 11.51 0 0 0 1.34 2 10.8 10.8 0 0 0 9.46 3.82c2.5-.29 4.73-1.45 6.43-3.19l.2-.2c.3-.37.5-.77.55-1.17.04-.28.02-.56-.09-.82Z" fill="#1B1D4E"/></svg>