<!-- by TradeStack --><svg width="56" height="56" viewBox="0 0 56 56" xmlns="http://www.w3.org/2000/svg"><path fill="#F0F3FA" d="M0 0h56v56H0z"/><path d="M27.46 10.07c-1.05 1.82-2.74 3.65-5.98 6.49-4.34 3.8-8.55 8.17-8.48 14.4.04 3.26 1.2 6.52 3.34 8.92 2.88 3.2 7.4 5.15 11.66 5.12 8.75 0 15-5.84 15-13.95.05-6.6-4.17-10.82-8.83-14.85-3.14-2.76-4.9-4.7-5.74-6.46L28.07 9l-.6 1.07Zm.97 1.82c.5 1.25 2.58 3.54 5.44 6.04 3.83 3.34 7.19 7.7 7.13 13.12-.03 4.2-1.74 7.95-5.5 9.95H34v-3.5c0-2.97.45-5.8-1.66-8.34l-.54-.62h.92c1.98 0 4.72 1.67 5.08 3.1.18.72.34.66.99-.33.74-1.12.9-2.57.4-3.51-.48-.87-1.83-1.75-3.57-2.32a5.4 5.4 0 0 1-1.37-.56c0-.34 1.03-.64 1.72-.52.7.14.72.14.48-.32a5.43 5.43 0 0 0-5-3.04c-.72 0-1.57.12-1.87.22-.75.3-1.65-.38-1.5-1.08.15-.53-.2-.65-.86-.28-.44.22-1.03 1.58-1.03 2.35v.52l-.46-.42c-1.43-1.35-3.5-1.05-5.36.76-.85.83-.87.89-.46 1.03.52.2.54.34.14.78-.35.38-.77 1.6-.55 1.6.08 0 .24-.15.39-.35.32-.53 1.49-1.05 2.35-1.05.4 0 .73.04.73.1 0 .06-.36.44-.83.85a4.1 4.1 0 0 0-1.49 4c.14.98.4 1.14.59.4.12-.52 1.04-1.73 1.3-1.73.1 0 .23.46.29 1.03.08.56.34 1.4.62 1.87.5.84 2.14 2.5 2.86 2.89.37.18.39.12.4-1.05a4.47 4.47 0 0 1 2.79-4.24l1-.5v2.12a9.08 9.08 0 0 1-4.47 7.3C24.74 39 22.33 40 20.5 40h-2c-2.04-2.84-3.35-5.25-3.5-9 0-4.33.9-6.84 4.54-10.5 1.27-1.27 3.17-3.08 4.2-4 1.9-1.71 3.78-3.96 3.98-4.79.17-.64.39-.58.71.18Z" fill="#116734"/></svg>