<?xml version='1.0' encoding='utf-8'?>
<!-- by TradeStack -->
<svg width="56" height="56" viewBox="0 0 56 56" xmlns="http://www.w3.org/2000/svg"><path fill="#ED1B24" d="M0 0h56v56H0z" /><path fill-rule="evenodd" d="m37.94 22-14.13-7.8 1.93 7.61L11 14l5.2 19H46l-9.44-6h6.24l-9.71-5h4.85Zm-23.67-5.04L29.92 32h11.87l-9.41-6h5.95l-9.27-5h5.07l-8.56-4.66 1.85 7.64-13.15-7.02Zm-1.11.41L28.4 32H16.97l-3.81-14.63Zm.75 20.35 2.1-3.72h2.1l-1.7 3.43c-.13.24.07.57.36.57h1.13l1.98-4h2.16l-2.68 5h-4.6c-.71 0-1.18-.7-.85-1.28ZM25.63 39h-5.06l.72-1h2.83c.93 0 1.26-.77 1.3-1h-2.74c-.85 0-.77-.52-.62-.81l.52-1.01a2.06 2.06 0 0 1 1.7-1.18h5.04l-.7 1h-3.08c-.56 0-.93.69-1.07.95l-.02.05h3.85l-.17.31c-.2.4-.5.98-.78 1.57-.36.79-1.3 1.07-1.72 1.12Zm4.77-5-2.58 5h3.42a2.66 2.66 0 0 0 1.63-.77l.54.77h2.35c.44-.02 1.5-.42 2.24-1.93A67.92 67.92 0 0 1 39.58 34h-2.15l-1.26 2.43a13 13 0 0 0-.08.15c-.24.48-.71 1.42-1.17 1.42h-.83l1.9-4h-2.01l-1.3 2.58-.05.1c-.19.43-.59 1.32-1.03 1.32h-.87l1.86-4h-2.2Zm15.52 0-.65 1h-2.93l-.46 1h2.98l-.54 1h-3.04l-.55 1h3.2c-.33.77-1.1.91-1.52.99h-.04l-.03.01h-4.26l2.65-5h5.19Z" fill="#FFFEFE" /></svg>