<!-- by TradeStack --><svg width="56" height="56" viewBox="0 0 56 56" xmlns="http://www.w3.org/2000/svg"><path fill="#F0F3FA" d="M0 0h56v56H0z"/><path d="m45.37 25.96-.77-.82a.12.12 0 0 1 0-.17l.77-.82a.13.13 0 0 1 .2 0l.73.82c.05.05.05.12 0 .17l-.73.82a.13.13 0 0 1-.2 0Z" fill="#433630"/><path fill-rule="evenodd" d="M4 23.39V23h4.04v.39H7.8c-.44 0-.81.34-.81.76v5.26c.03.65.64 1.97 2.78 1.97 2.53 0 2.5-2.17 2.5-2.84v-4.39a.78.78 0 0 0-.8-.76h-.66V23h3.13v.39h-.16a.78.78 0 0 0-.8.76v3.8C13 29.68 12.4 32 9.5 32c-3.64 0-4.06-1.78-4.06-3.43v-4.42a.78.78 0 0 0-.79-.76H4Zm9.5 3.85V27h2.6v.24c-.27.03-.76.24-.51.8.24.55.83 1.73 1.1 2.25l1.2-1.88-.38-.7a.9.9 0 0 0-.76-.47V27h2.84v.24c-.31.03-.87.22-.62.75.24.52.83 1.66 1.09 2.16l1.2-2.31c.04-.2-.07-.6-.85-.6V27h2.09v.24a.95.95 0 0 0-.78.6c-.19.46-1.41 2.96-2 4.16h-.24L18 28.98 16.26 32h-.25l-1.87-4.16c-.08-.2-.33-.6-.64-.6Zm8.66-2.17v-.3c.53-.1 1.7-.39 2.1-.77h.11v3.79c.38-.37.97-.79 1.6-.79 1.08 0 2.03.68 2.03 1.96v2.28c.07.16.27.48.85.48V32h-2.87v-.28c.22 0 .68-.07.68-.48v-2.28c-.07-.42-.42-1.27-1.35-1.27-.45 0-.74.2-.94.45v3.18c.1.15.4.45.91.45V32h-3.12v-.23c.28-.04.84-.18.84-.45v-5.76c0-.16-.18-.49-.84-.49ZM29 28.24c0 .23.38.29.57.28.61 0 .72-.3.7-.45-.12-.24-.17-.71.65-.71.81 0 1.03.71 1.08 1.07V29c-.22.07-.56.16-.96.22-.74.1-2.04.46-2.04 1.77.03.33.3 1 1.16 1 .69 0 1.4-.37 1.84-.66.04.23.35.66 1.06.66.73 0 1.2-.4 1.33-.6l-.2-.08c-.7.27-.89-.12-.9-.34V28.6c0-.74-.28-1.6-2.1-1.6-1.83 0-2.19.95-2.19 1.24Zm1.36 2.39c-.02-.35.29-1.04 1.64-1.18v1.48c-.24.22-.59.44-.96.44-.55 0-.69-.5-.68-.74Zm3.83-2.75v-.28c.38 0 1.3-.14 1.92-.6h.2v1.02a4.3 4.3 0 0 1 1.26-1c.38-.11.92.38 1.15.63.04.05.1.2-.05.4-.15.2-.38.45-.47.55a2.3 2.3 0 0 1-.67-.3.65.65 0 0 0-.49-.18c-.24 0-.56.38-.73.63v2.56c.1.15.45.44 1 .44V32h-3.12v-.25c.27-.04.81-.18.81-.44v-2.86c0-.19-.2-.57-.8-.57Zm5.02-.28v.28c.61 0 .78.38.79.57v2.86c0 .26-.52.4-.79.44V32h3.12v-.25c-.55 0-.9-.3-1-.44v-2.56c.16-.25.49-.63.73-.63a.7.7 0 0 1 .5.18l.13.1c.17.1.42.18.53.2.1-.1.32-.35.47-.55.14-.2.09-.35.04-.4-.22-.25-.77-.74-1.14-.63-.33.09-.9.63-1.27 1V27h-.2c-.62.46-1.53.6-1.9.6Zm5.02 0v.28c.61 0 .76.38.77.57v2.86c0 .26-.5.4-.77.44V32h3.12v-.25c-.55 0-.9-.3-1-.44V27h-.2a3.7 3.7 0 0 1-1.92.6Zm6.78 1.58-1.72.31c-.48.09-.86.53-.64.96.3.55.9.82 1.58.82.66 0 1.23-.3 1.52-.5a.16.16 0 0 1 .2.02c.05.04.06.1.03.16-.22.4-.92 1.05-2.33 1.05-1.91 0-2.45-1.53-2.45-1.94V30c0-.52-.01-3.01 2.26-3.01 1.26 0 1.9.6 2.19 1.2.21.45-.15.9-.64.98Zm-.77-.38c-.3.12-1.33.27-1.8.33-.1.01-.27-.05-.23-.4.06-.43.7-1.39 1.28-1.39.57 0 .9.4 1.05.68.16.28.08.65-.3.78Z" fill="#433630"/><path d="M27.98 23.33c-2.77-3.78-8.25-3.6-10.65-3.04 5.75-3.04 9.5 0 10.65 1.9 2.8-4.52 8.48-3.15 10.98-1.9-6.38-1.08-9.98 1.58-10.98 3.04Z" fill="#6B8335"/></svg>