<!-- by TradeStack --><svg width="56" height="56" viewBox="0 0 56 56" xmlns="http://www.w3.org/2000/svg"><path fill="url(#adylvjixc)" d="M0 0h56v56H0z"/><path d="M12.8 19.14c.13.25.33.46.61.62.05.03.09.07.1.12.13.3.4.39.52.64.04.1.07.22.06.34-2.75 1.68-1.6 2.56-3.18 4.97a90.55 90.55 0 0 1-6.7-2.18c0 .01 0-.02 0 0 .3-.52 6.54-4.47 7.07-4.58.6-.11 1.1-.1 1.52.07Z" fill="#FBE192"/><path d="M12.8 19.14c.56.11 1.11.34 1.56.45a71.9 71.9 0 0 1 6.44 1.91c0 .06.09.15.26.3l-5.97 4.64c-.01-.06.02-.12.08-.19a.2.2 0 0 0 .06-.14c.01-.17-.07-.26-.23-.29a.4.4 0 0 1-.2-.1.45.45 0 0 0-.34-.1c-.15.02-.17-.03-.08-.15.33-.4.71-.79 1.14-1.15.04-.04.1-.06.15-.06l.44.01a.11.11 0 0 0 .12-.13c-.04-.3-.03-.63.02-.97a.38.38 0 0 1 .12-.22c.06-.05.14-.09.23-.1.3-.02.57-.1.82-.23a.17.17 0 0 0 .08-.11.17.17 0 0 0-.03-.14l-.03-.04a.11.11 0 0 0-.06-.05.1.1 0 0 0-.08.02.76.76 0 0 1-.42.1l.56-.24a.08.08 0 0 0 .05-.08l-.01-.05a.08.08 0 0 0-.04-.03.44.44 0 0 0-.26 0c-.48.12-.9.27-1.26.44-.07.03-.1 0-.11-.07l-.09-.72c0-.08-.05-.12-.13-.12h-.12c-.1 0-.14.05-.12.15.07.25.1.5.1.78 0 .02-.01.05-.03.07a.12.12 0 0 1-.06.05l-1.46.45a.15.15 0 0 1-.18-.2c.22-.5.38-1 .5-1.54a.5.5 0 0 0-.13-.43.8.8 0 0 0-.06-.34c-.11-.25-.4-.33-.51-.64a.25.25 0 0 0-.1-.12 1.5 1.5 0 0 1-.62-.62Z" fill="#AB7E1C"/><path d="M11.99 21.63c-.29.18-.59.34-.9.5a.35.35 0 0 1-.48-.18c-.03-.07-.01-.18.05-.36l.52-1.39c.04-.1.1-.1.17-.03l.03.05c.07.08.09.17.05.27L11 21.62c-.1.29-.02.37.25.24.2-.1.33-.35.54-.48.52-.3 1.03-.52 1.54-.68.04 0 .06 0 .08.04l.02.04c.01.03 0 .05-.02.06l-1.42.79Z" fill="#AB7E1C"/><path d="M14.1 20.86a.5.5 0 0 1 .11.43 7.8 7.8 0 0 1-.5 1.61.15.15 0 0 0 .1.13h.09l1.46-.45c.03-.01.05-.03.06-.05a.12.12 0 0 0 .03-.07c0-.28-.03-.53-.1-.78-.02-.1.02-.15.12-.15h.12c.08 0 .12.04.13.12l.09.72c0 .08.04.1.1.07.37-.17.8-.32 1.27-.45.09-.02.17-.02.26.01l.04.03.01.05a.08.08 0 0 1-.05.08l-.56.24-1.01.26a.11.11 0 0 0-.09.12l.1.98a.11.11 0 0 1-.04.09.1.1 0 0 1-.1.03l-.08-.02a.25.25 0 0 1-.2-.25l.03-.7a.13.13 0 0 0-.05-.1.12.12 0 0 0-.11-.01c-.41.15-.8.27-1.14.36-.25.07-.5 0-.76-.21-.05-.04-.05-.1 0-.14.1-.09.14-.2.13-.34a.15.15 0 0 0-.12-.14c-.2-.03-.4-.1-.56-.21-.3-.21-.85.2-1.1.37-.04.03-.07.02-.09-.02l-.02-.04c.18-.22.4-.4.65-.54.73-.32 1.17-.66 1.78-1.03Z" fill="#412000"/><path d="M13.65 22a.26.26 0 0 1-.25.1l-.44-.04a.07.07 0 0 1-.06-.05.08.08 0 0 1 .03-.08c.28-.23.57-.41.87-.57.14-.07.19-.03.13.13-.05.16-.15.33-.28.5Z" fill="#FBE192"/><path d="M16.88 22.4c.14.01.28-.02.42-.1a.1.1 0 0 1 .08-.02.1.1 0 0 1 .06.05l.03.04a.17.17 0 0 1-.05.25c-.25.14-.53.21-.83.24a.37.37 0 0 0-.22.1.38.38 0 0 0-.12.21 3.58 3.58 0 0 0-.03 1.02.12.12 0 0 1-.1.08h-.45a.22.22 0 0 0-.15.05c-.43.36-.8.75-1.14 1.15-.1.12-.07.17.08.15.13 0 .25.03.34.1a.4.4 0 0 0 .2.1c.16.03.24.12.23.29a.2.2 0 0 1-.06.14c-.06.07-.09.13-.08.2l-.14.46a.2.2 0 0 1-.13.14c-.24.1-.44.03-.6-.2-.16-.23-.33-.37-.6-.41-.58-.1-1.18-.37-1.64-.5-.6-.19-1.2-.4-1.79-.63.36.03.63-.05.81-.26a.16.16 0 0 1 .14-.05c.21.01.32-.1.32-.33 0-.14 0-.3.03-.5.05.13.07.26.05.4 0 .01 0 .02.02.02.03 0 .04 0 .03-.04-.02-.15 0-.3.06-.46a.35.35 0 0 0 .02-.19c-.07-.4-.15-.53-.24-.37-.04-.27-.03-.9.24-1.1l.02.04c.02.04.05.05.09.02.25-.18.8-.58 1.1-.37.17.11.36.18.55.21.04 0 .07.03.09.05.02.02.03.06.04.09a.39.39 0 0 1-.13.34c-.05.05-.05.1 0 .14.25.21.5.28.76.21a12.4 12.4 0 0 0 1.2-.37c.02 0 .03.01.05.03a.12.12 0 0 1 .05.1l-.03.7c0 .05.02.1.06.16.03.04.09.07.14.08l.09.02a.1.1 0 0 0 .09-.03.11.11 0 0 0 .04-.1l-.1-.97a.12.12 0 0 1 .09-.12l1.01-.26Z" fill="#E5C067"/><path d="M21.39 22.31c.08 1.24.07 2.48-.02 3.73l-.04 1.61a76.5 76.5 0 0 0-.18 3.67c-.01.28-.08.54-.2.76-.21.39-.43.7-.65.93-1.55 1.68-5.6 4.94-5.6 4.94v-4.94c-.09-1.83.21-3.55.27-5.3 0-.26.1-.47.28-.64a38.16 38.16 0 0 1 2.82-2.41c.95-.72 1.79-1.44 2.52-2.16.23-.23.5-.3.8-.19Z" fill="#F0A527"/><path d="M9.29 22.75h-.17a.1.1 0 0 1-.1-.1.1.1 0 0 1 0-.04c.04-.13.11-.18.23-.17a.3.3 0 0 1 .16.07 3.08 3.08 0 0 0 .53.33l-.02.04c-.02.04-.05.05-.09.04a.77.77 0 0 0-.25-.07.14.14 0 0 0-.13.05l-.53.7c-.06.09-.1.08-.14-.02a.16.16 0 0 1 .02-.15c.14-.21.32-.39.53-.54.13-.1.11-.14-.04-.14Z" fill="#9D9C9D"/><path d="M10.3 23.03c.34-.1.57 0 .7.33v.05l-.04.03-.04.01c-.07.03-.11.01-.14-.06-.06-.17-.17-.26-.32-.25-.22 0-.27.1-.15.28l.3.5c.03.04.02.06-.02.08l-.05.01c-.04.01-.06 0-.07-.05-.07-.3-.36-.4-.4-.63-.01-.05 0-.09.02-.13a.37.37 0 0 1 .21-.17ZM11.48 24.17a1.22 1.22 0 0 0-.67.17h-.02a.03.03 0 0 1-.01-.01l-.02-.05c-.01-.03 0-.05.02-.05.35-.12.77-.19.65-.7.1-.16.17-.03.24.37 0 .07 0 .13-.02.19a.89.89 0 0 0-.06.46c0 .03 0 .04-.03.04-.02 0-.02 0-.02-.02a.72.72 0 0 0-.05-.4ZM10.31 24.1c.03 0 .04 0 .03.03v.05h-.02a.85.85 0 0 1-.74-.46c-.01-.02 0-.04.02-.05l.03-.02a.07.07 0 0 1 .1.03c.13.3.33.43.58.42Z" fill="#7D7C7D"/><path d="M4.17 23.72c0 .05 0 .1.02.14.02.06.06.09.12.09.43-.01.73 0 .9.06 2.78.86 5.61 1.86 8.5 3 .13.05.53.37.87.75.17 3.35.14 10.24.14 10.24-2.78-.77-5.95-2.53-8.73-3.44-.7-.23-.96-1.08-1.02-1.73-.12-1.3-.27-2.57-.45-3.84-.07-.52-.07-1.03-.14-1.54l-.36-2.52c-.04-.28-.02-.65.04-1.12.05 0 .09-.03.11-.1Z" fill="#F0A527"/><path d="M11.98 23.87a.55.55 0 0 1 .36-.1c.07 0 .08.03.01.07-.1.07-.21.1-.35.1-.08 0-.08-.03-.02-.07Z" fill="#7D7C7D"/><path d="M13.11 24.66c-.17.34-.08.44.27.3.27-.1.45-.35.72-.47a.34.34 0 0 1 .25-.01c.17.05.17.1.01.17l-1.16.48c-.24.1-.34.01-.3-.24.04-.33.16-.6.36-.8l.04-.02.04.03c.03 0 .04.03.02.06l-.25.5Z" fill="#412000"/><path d="M25.62 27.16c.23-.96.5-1.94.82-2.94a.32.32 0 0 1 .11-.16.3.3 0 0 1 .19-.06h1.8c.03 0 .05.02.07.03l.05.05a.15.15 0 0 1 .01.13c-.46 1.14-.93 2.36-1.4 3.66-.17.45-.41 1.37-.72 2.04a.16.16 0 0 1-.06.06.15.15 0 0 1-.08.03h-1.69c-.03 0-.06-.02-.08-.04a.16.16 0 0 1-.06-.07l-2.05-5.7c-.03-.1 0-.19.1-.2h1.9c.08 0 .14.06.17.14.33 1.07.6 2.08.8 3.02.04.17.08.17.12 0Z" fill="#FEB812"/><path d="M23.27 24.82a.21.21 0 0 1 .01-.16.2.2 0 0 1 .12-.1h.02c.2-.08.43-.07.62.01.2.09.34.24.4.44l.35 1.04c.03.1.05.2.04.3-.01.1-.04.2-.1.3a.85.85 0 0 1-.47.4h-.02a.2.2 0 0 1-.26-.12l-.7-2.1ZM26.57 25.5c.03-.07.02-.11.02-.19l.03-.1.43-.56a.17.17 0 0 1 .12-.07l.44-.03a.2.2 0 0 1 .18.09.22.22 0 0 1 .03.2l-.47 1.4c-.08.23-.24.33-.47.31l-.16-.02c-.25-.02-.36-.16-.31-.42.03-.2.09-.41.16-.6Z" fill="#FFF6C5"/><path fill-rule="evenodd" d="M31.58 29.4c.07.01.11.05.12.12l.05.35c.02.08.06.13.15.13h1.62a.09.09 0 0 0 .07-.04.09.09 0 0 0 .01-.08l-1.55-4.7a.26.26 0 0 0-.25-.18h-1.82c-.03 0-.06.02-.08.05l-.02.01a.19.19 0 0 0-.07.1l-1.53 4.54a.38.38 0 0 1-.05.1.25.25 0 0 0-.03.07c-.03.09 0 .13.09.13h1.83c.06 0 .1-.03.1-.1l.07-.35c.01-.09.07-.14.16-.15.36-.04.73-.04 1.13 0Zm-.25-1.37-.35-1.15c-.06-.17-.09-.17-.1.02-.01.36-.08.73-.2 1.1-.04.11 0 .16.11.16l.45-.01c.08 0 .11-.04.09-.12Z" fill="#FEB812"/><path d="M30.65 26.33a1.6 1.6 0 0 0-.19.43.56.56 0 0 1-.25.33.78.78 0 0 1-.46.12.13.13 0 0 1-.12-.15 6.46 6.46 0 0 0 .72-1.33.46.46 0 0 1 .36-.29c.25-.03.48-.02.68.02.17.04.27.15.32.32a4.7 4.7 0 0 0 .32.77.15.15 0 0 1-.09.13.15.15 0 0 1-.07.02l-.41-.02a.3.3 0 0 1-.27-.18c-.08-.18-.22-.26-.43-.24a.14.14 0 0 0-.1.07Z" fill="#FFF6C5"/><path d="M39.4 26.28v-.88c0-.2.08-.4.47-.4h2.87c.15 0 .26.07.26.22v.91c0 .1-.06.15-.17.16h-.72c-.07 0-.1.04-.1.1v3.44c0 .11-.06.17-.17.17h-1.45a.1.1 0 0 1-.1-.1V26.4c0-.08-.04-.13-.13-.13h-.76Z" fill="#FEB812"/><path d="M40.84 25.42c.53.05 1.03.05 1.56.03.12 0 .16.06.15.17l-.01.06c-.03.15-.11.21-.26.17-.3-.07-.51.04-.63.33-.08.2 0 .39-.1.58a.3.3 0 0 1-.19.15.64.64 0 0 1-.54-.04.22.22 0 0 1-.1-.21c.04-.37-.03-1.01-.57-.83a.26.26 0 0 1-.3-.08.13.13 0 0 1-.02-.1c0-.08.04-.13.12-.15.31-.07.6-.1.89-.08Z" fill="#FFF6C5"/><path d="M21.06 21.8c.13.1.24.27.33.51a.73.73 0 0 0-.8.19 24.5 24.5 0 0 1-2.52 2.16c-.74.55-1.68 1.35-2.82 2.41a.87.87 0 0 0-.28.63c-.06 1.76-.04 3.56.04 5.39l-.08 3.95a.24.24 0 0 1-.12.2l-.04.03c-.07.04-.1.02-.1-.06 0-1.16 0-2.36-.02-3.61-.01-.44-.05-.88-.05-1.31.03-1.57-.03-3.12-.18-4.63-.34-.38-.58-.6-.7-.65a117.4 117.4 0 0 0-8.51-3 3.23 3.23 0 0 0-.9-.06c-.06 0-.1-.03-.12-.09a.31.31 0 0 1-.02-.14c.04-.16.13-.23.27-.2.76.12 1.64.39 2.66.8.56.23 1.6.56 3.09.99a24 24 0 0 0 1.8.62c.45.14 1.05.41 1.63.5.27.05.44.19.6.41.16.24.36.3.6.2a.2.2 0 0 0 .13-.13l.14-.47 5.97-4.65Z" fill="#412000"/><path d="M37.24 27.21c.03-.09 0-.2 0-.28v-1.8c0-.06.03-.13.09-.13h1.54a.09.09 0 0 1 .08.05c0 .01.05.02.05.04v4.78c0 .09-.04.13-.13.13h-1.58a.21.21 0 0 1-.18-.12c-.43-.72-.76-1.54-1.23-2.23-.11-.16-.15-.1-.15.1v2.14a.1.1 0 0 1-.03.08.12.12 0 0 1-.08.03h-1.45c-.08 0-.13-.04-.14-.12l-.03-.34v-4.41c0-.07.04-.13.11-.13h1.57c.07 0 .12.04.15.1l1.29 2.13c.06.1.1.09.12-.02Z" fill="#FEB812"/><path d="M35.17 26.9a2.7 2.7 0 0 0-.23.24c-.28.35-.44.3-.47-.13-.02-.3 0-.61.08-.93a.8.8 0 0 0 .01-.3c-.02-.14.04-.23.19-.28a.9.9 0 0 1 .56.03c.05.02.1.05.12.1.1.23.18.37.24.42.14.11.23.25.27.42 0 .06-.02.1-.07.11l-.35.1a.9.9 0 0 0-.35.21ZM38.56 26.66c0 .05-.01.1-.05.13a.2.2 0 0 1-.13.06h-.07c-.07.01-.15 0-.22-.01a.6.6 0 0 1-.2-.1.5.5 0 0 1-.14-.15.44.44 0 0 1-.05-.19l-.04-.41c0-.07 0-.13.03-.2a.5.5 0 0 1 .12-.17.6.6 0 0 1 .18-.12.67.67 0 0 1 .22-.05h.06c.06 0 .1 0 .14.04.04.03.07.08.07.13l.08 1.04Z" fill="#FFF6C5"/><path d="M46.61 29.46v.23c0 .06.03.1.09.08a.3.3 0 0 0 .18-.1l1.4-2.34a.12.12 0 0 0 0-.14c-.49-.66-.96-1.38-1.42-2.13V25h1.89l.03.02.02.02c.22.36.37.68.43.94.05.2.1.2.17.01l.26-.74c.06-.17.19-.25.37-.25h1.48c.18 0 .22.1.12.25l-1.3 1.97c-.04.05-.04.1 0 .16.26.38.53.75.74 1.17a7.43 7.43 0 0 0 .78 1.22l.07.07c.12.1.1.16-.05.16h-1.73a.26.26 0 0 1-.26-.16l-.54-1.18c-.03-.07-.06-.07-.1 0l-.54 1.2a.22.22 0 0 1-.08.1.23.23 0 0 1-.12.04h-5.02a.1.1 0 0 1-.07-.03.1.1 0 0 1-.03-.07V25h3.12l.06.03.03.06.02 1.1c0 .04-.03.07-.08.07h-1.4c-.1 0-.14.08-.13.17v.14c0 .09.04.13.13.13h1.28c.05 0 .07.04.07.09-.05.36-.07.78-.04 1.13 0 .05-.02.08-.07.08H45.1a.1.1 0 0 0-.07.03c-.02.02-.02.04-.02.07v.57c0 .05.04.06.09.06h1.42a.1.1 0 0 1 .11.1v.63Z" fill="#FEB812"/><path d="M44.66 26.61c-.07.25-.35.49-.59.6a.21.21 0 0 1-.3-.2l.05-1.35a.2.2 0 0 1 .19-.19l1.94-.03c.1 0 .17.04.22.13.02.04.03.09.03.15-.01.05-.05.09-.11.09l-1.08.05c-.05 0-.1.02-.14.06a.58.58 0 0 0-.2.54v.15ZM48.55 26.6a1.22 1.22 0 0 1-.43-.5.45.45 0 0 0-.1-.14c-.14-.12-.16-.27-.06-.43a.14.14 0 0 1 .1-.07c.34-.04.5.09.5.4 0 .03.02.07.05.1l.36.39a.42.42 0 0 0 .55.06c.28-.19.49-.43.63-.74.1-.2.24-.26.44-.15.05.03.07.07.05.13-.14.41-.34.74-.6 1a.32.32 0 0 1-.16.07c-.25.05-.5.12-.74.21-.13.05-.23.05-.3.01a.35.35 0 0 1-.19-.21.26.26 0 0 0-.1-.13Z" fill="#FFF6C5"/><defs><linearGradient id="adylvjixc" x1="10.42" y1="9.71" x2="68.15" y2="76.02" gradientUnits="userSpaceOnUse"><stop stop-color="#1A1E21"/><stop offset="1" stop-color="#06060A"/></linearGradient></defs></svg>