<?xml version='1.0' encoding='utf-8'?>
<!-- by TradeStack -->
<svg width="56" height="56" viewBox="0 0 56 56" xmlns="http://www.w3.org/2000/svg"><path fill="#F0F3FA" d="M0 0h56v56H0z" /><path d="M34.79 24c-.73 0-1.5.53-1.79.8 1.75-.43 2.9.37 4 1.2-.2-.73-1.3-2-2.21-2Z" fill="#1D71AE" /><path d="M47.18 33.64c-3.05 0-7.4-4.43-9.18-6.64 1.8 5.4 4.18 9 6.5 9 1.87 0 3.78-1.7 4.5-2.55-.36.06-1.22.19-1.82.19Z" fill="url(#auvxc21b3)" /><path d="M48.98 30.23 52 28c-.68 3.76-3.24 4.75-4 5 .82-.92 1-2.23.98-2.77Z" fill="url(#buvxc21b3)" /><path d="M7 23.06 8.4 20H10l-2.3 5H6.3L4 20h1.6L7 23.06Z" fill="url(#cuvxc21b3)" /><path d="M30.55 20c-.86 0-1.55.64-1.55 1.44V25h1.55v-3.4c0-.33.3-.6.65-.6H33v-1h-2.45Z" fill="url(#duvxc21b3)" /><path d="M12.4 29c-.77 0-1.4.64-1.4 1.44V34h1v-3.73c0-.33.26-.64.6-.64H14V29h-1.6Z" fill="url(#euvxc21b3)" /><path fill-rule="evenodd" d="M15 21.44c0-.8-.58-1.44-1.3-1.44H11v1h2.17c.3 0 .54.27.54.6v.4H11.5a1.5 1.5 0 0 0 0 3H15v-3.56ZM13.7 24v-1h-1.85a.5.5 0 1 0 0 1h1.86Z" fill="url(#fuvxc21b3)" /><path fill-rule="evenodd" d="M25.5 25a2.5 2.5 0 1 0 0-5 2.5 2.5 0 0 0 0 5Zm0-1.26c.6 0 1.08-.56 1.08-1.24 0-.68-.48-1.24-1.08-1.24-.6 0-1.08.56-1.08 1.24 0 .68.48 1.24 1.08 1.24Z" fill="url(#guvxc21b3)" /><path fill-rule="evenodd" d="M17.5 20H16v7h1.5v-2h2a2.5 2.5 0 0 0 0-5h-2Zm0 4h1.51a1.5 1.5 0 0 0 0-3H17.5v3Z" fill="url(#huvxc21b3)" /><path fill-rule="evenodd" d="M18.98 30.44c0-.8-.64-1.44-1.43-1.44H15v.5h2.4c.33 0 .6.34.6.67V31h-2.5a1.5 1.5 0 1 0 0 3h3.48v-3.56ZM18 33v-1.47h-2.27a.73.73 0 1 0 0 1.47H18Z" fill="url(#iuvxc21b3)" /><path d="M25 30.44c0-.8-.73-1.44-1.64-1.44H20v5h1v-4.5h2.31c.38 0 .69.32.69.65V34h1v-3.56Z" fill="url(#juvxc21b3)" /><path d="M33.36 29c-.75 0-1.36.52-1.36 1.27s.73 1.27 1.48 1.27h1.63c.5 0 .89.48.89.97 0 .48-.4.99-.89.99H32v.5h3.57c.79 0 1.43-.64 1.43-1.42 0-.78-.64-1.58-1.43-1.58h-1.88c-.39-.07-.69-.32-.69-.73 0-.46.38-.77.84-.77h2.7V29h-3.18Z" fill="url(#kuvxc21b3)" /><path d="M6 27H5v7h2.55A2.47 2.47 0 0 0 10 31.5c0-1.37-1.1-2.49-2.45-2.49H6V27Zm0 6v-3.5h1.2c1 0 1.8.87 1.8 1.89S8.2 33 7.2 33H6Z" fill="url(#luvxc21b3)" /><path d="M30 27h1v7h-2.55A2.47 2.47 0 0 1 26 31.5c0-1.37 1.1-2.49 2.45-2.49H30V27Zm0 6v-3.5h-1.2c-1 0-1.8.87-1.8 1.89S27.8 33 28.8 33H30Z" fill="url(#muvxc21b3)" /><defs><linearGradient id="auvxc21b3" x1="37.27" y1="27.32" x2="47.01" y2="35.66" gradientUnits="userSpaceOnUse"><stop stop-color="#257EA2" /><stop offset=".27" stop-color="#03AFE2" /><stop offset="1" stop-color="#0E75A7" /></linearGradient><linearGradient id="buvxc21b3" x1="52.2" y1="28.29" x2="48.78" y2="33.51" gradientUnits="userSpaceOnUse"><stop stop-color="#519AB3" /><stop offset="1" stop-color="#206E88" /></linearGradient><linearGradient id="cuvxc21b3" x1="7" y1="20" x2="7" y2="25" gradientUnits="userSpaceOnUse"><stop stop-color="#14B4CC" /><stop offset="1" stop-color="#077EB3" /></linearGradient><linearGradient id="duvxc21b3" x1="31" y1="20" x2="31" y2="25" gradientUnits="userSpaceOnUse"><stop stop-color="#14B4CC" /><stop offset="1" stop-color="#077EB3" /></linearGradient><linearGradient id="euvxc21b3" x1="12.5" y1="29" x2="12.5" y2="34" gradientUnits="userSpaceOnUse"><stop stop-color="#A7A7A7" /><stop offset="1" stop-color="#767676" /></linearGradient><linearGradient id="fuvxc21b3" x1="12.5" y1="20" x2="12.5" y2="25" gradientUnits="userSpaceOnUse"><stop stop-color="#14B4CC" /><stop offset="1" stop-color="#077EB3" /></linearGradient><linearGradient id="guvxc21b3" x1="25.5" y1="20" x2="25.5" y2="25" gradientUnits="userSpaceOnUse"><stop stop-color="#14B4CC" /><stop offset="1" stop-color="#077EB3" /></linearGradient><linearGradient id="huvxc21b3" x1="19" y1="20.09" x2="19" y2="25.36" gradientUnits="userSpaceOnUse"><stop stop-color="#14B4CC" /><stop offset="1" stop-color="#077EB3" /></linearGradient><linearGradient id="iuvxc21b3" x1="16.49" y1="29" x2="16.49" y2="34" gradientUnits="userSpaceOnUse"><stop stop-color="#A7A7A7" /><stop offset="1" stop-color="#767676" /></linearGradient><linearGradient id="juvxc21b3" x1="22.5" y1="29" x2="22.5" y2="34" gradientUnits="userSpaceOnUse"><stop stop-color="#A7A7A7" /><stop offset="1" stop-color="#767676" /></linearGradient><linearGradient id="kuvxc21b3" x1="34.5" y1="29" x2="34.5" y2="34" gradientUnits="userSpaceOnUse"><stop stop-color="#A7A7A7" /><stop offset="1" stop-color="#767676" /></linearGradient><linearGradient id="luvxc21b3" x1="7.5" y1="28.58" x2="7.5" y2="34" gradientUnits="userSpaceOnUse"><stop stop-color="#A7A7A7" /><stop offset="1" stop-color="#767676" /></linearGradient><linearGradient id="muvxc21b3" x1="28.5" y1="28.58" x2="28.5" y2="34" gradientUnits="userSpaceOnUse"><stop stop-color="#A7A7A7" /><stop offset="1" stop-color="#767676" /></linearGradient></defs></svg>