<?xml version='1.0' encoding='utf-8'?>
<!-- by TradeStack -->
<svg width="56" height="56" viewBox="0 0 56 56" xmlns="http://www.w3.org/2000/svg"><path fill="#F0F3FA" d="M0 0h56v56H0z" /><path fill-rule="evenodd" d="M43.83 26c1.39-.04 4.15.58 4.15 3.41 0 3.55-2.61 5.59-5.91 5.59-3.3 0-4.07-2.01-4.07-3.63 0-1.6 1.5-5.37 5.83-5.37Zm-.27 2c.48.03 1.44.37 1.44 1.47 0 1.39-.72 3.53-2.44 3.53-.88 0-1.56-.56-1.56-1.38 0-.83.56-3.62 2.56-3.62Z" fill="#00447E" /><path d="M9 21h3.96l.42 5.04-3.16 2L9 21Zm18.94 8.18L26.84 35h-3.2l.27-1.4a4.43 4.43 0 0 1-3.1 1.4C18.49 35 18 33.84 18 32.94c0-2.79 3.05-3.46 4.57-3.45h2.1c.15-.96.21-1.82-.8-1.82-.93 0-1.44.91-1.57 1.33h-3.15c.31-1.75 2.15-3 5.14-3 3.52 0 3.9 2.12 3.65 3.18ZM24.29 31h-1.22c-.7.03-2.08.25-2.08 1.38 0 .27.16.81 1.25.81 1.1 0 1.97-1.05 2.05-2.19ZM37 28.98h-2.6c0-.74-.41-.98-1.24-.98-.83 0-1.16.26-1.16.62 0 .37.6.66 1.31.82 2.18.45 3.2 1.25 3.2 2.3 0 2.41-2.66 3.26-4.6 3.26-3.74 0-4.12-1.97-3.84-3h2.8c0 .98.42 1 1.22 1 .81 0 1.4-.12 1.4-.61 0-.5-.64-.66-1.58-.87-2.24-.55-2.91-1.3-2.91-2.3 0-1.98 1.88-3.22 4.31-3.22 3.12 0 3.76 1.99 3.68 2.98Z" fill="#00447E" /><path d="M31.8 21.4c7.5 0 13.26 2.27 15.2 3.4-3.43-3.3-10.09-4.8-15.7-4.8C15.2 20 8.45 29 8 30c5.61-5 14.4-8.6 23.8-8.6Z" fill="#F61A29" /><path d="m10.27 28.8 1.17 6.2h3.4l7.18-14h-3.44l-4.62 10.63-.47-4.6-3.22 1.77Z" fill="#00447E" /></svg>