<!-- by TradeStack --><svg width="56" height="56" viewBox="0 0 56 56" xmlns="http://www.w3.org/2000/svg"><path fill="#2A2F33" d="M0 0h56v56H0z"/><path d="m17.5 19-4.41 12h-.67L8 19h.68l4.08 11.2 4.1-11.2h.64ZM37.5 19l-4.41 12h-.67L28 19h.68l4.08 11.2 4.1-11.2h.64ZM47.36 31l-4.1-11.19L39.18 31h-.68l4.43-12h.66L48 31h-.65Z" fill="#fff"/><path d="M18.36 36.62V33H18v4h2.3l.1-.38h-2.04ZM9.96 33l.86.01h.1l-.1.38h-.06a20.44 20.44 0 0 0-.92-.01c-.6 0-.96.07-1.17.25-.2.18-.28.48-.28 1v.76c0 .51.08.8.28.98.21.18.56.26 1.15.26h.8v-1.25h-.94l.1-.38H11v1.67c0 .1 0 .2-.08.27a.24.24 0 0 1-.11.05.75.75 0 0 1-.15.01h-.84c-.66 0-1.12-.1-1.41-.35-.3-.26-.41-.68-.41-1.27v-.75c0-.59.1-1 .41-1.27.3-.26.76-.36 1.43-.36h.12Zm3.4.37c.25-.26.63-.37 1.14-.37.51 0 .89.1 1.14.36.25.27.36.66.36 1.2v.88c0 .53-.1.93-.36 1.19-.25.26-.63.37-1.14.37-.51 0-.89-.1-1.14-.36-.25-.26-.36-.66-.36-1.2v-.88c0-.53.1-.93.36-1.19Zm.25.27c-.17.18-.26.47-.26.92v.88c0 .45.09.74.26.92.18.19.46.28.89.28s.71-.1.89-.28c.17-.18.26-.47.26-.92v-.88c0-.45-.09-.74-.26-.92-.18-.19-.46-.28-.89-.28s-.71.1-.89.28ZM23 33h1.24c.63 0 1.07.13 1.36.42.29.3.4.76.4 1.37v.42c0 .61-.11 1.07-.4 1.37-.28.3-.73.42-1.36.42H23v-4Zm.37.37v3.25h.87c.55 0 .9-.11 1.1-.33.2-.21.28-.55.28-1.08v-.42c0-.53-.09-.87-.29-1.09-.2-.22-.54-.33-1.1-.33h-.86Zm11.07-.36-.62-.01h-.14c-.61 0-1.04.1-1.3.36-.28.27-.38.69-.38 1.26v.76c0 .58.1 1 .37 1.26s.7.36 1.3.36h.7l.06-.01.1-.37h-.11l-.74.01c-.54 0-.86-.08-1.05-.26-.18-.18-.26-.48-.26-.99v-.75c0-.5.06-.79.24-.97.18-.2.5-.28 1.07-.28a26.75 26.75 0 0 0 .7 0l.06.01.1-.38h-.1Zm1.92.36c.25-.26.63-.37 1.14-.37.51 0 .89.1 1.14.36.25.27.36.66.36 1.2v.88c0 .53-.1.93-.36 1.19-.25.26-.63.37-1.14.37-.51 0-.89-.1-1.14-.36-.25-.26-.36-.66-.36-1.2v-.88c0-.53.1-.93.36-1.19Zm.25.27c-.17.18-.26.47-.26.92v.88c0 .45.09.74.26.92.18.19.46.28.89.28s.71-.1.89-.28c.17-.18.26-.47.26-.92v-.88c0-.45-.09-.74-.26-.92-.18-.19-.46-.28-.89-.28s-.71.1-.89.28Zm5.65-.64H41v4h.36v-1.66h1.1l1 1.66h.42l-1.04-1.7a.99.99 0 0 0 .57-.32c.16-.18.23-.44.23-.77v-.08c0-.4-.1-.7-.34-.89-.23-.18-.57-.24-1.04-.24Zm-.9 1.97v-1.6h.9c.41 0 .66.06.8.17.14.1.2.28.2.6v.07c0 .33-.05.5-.19.6-.14.12-.4.16-.8.16h-.91ZM45 33h1.44c.53 0 .93.06 1.19.24.26.2.37.49.37.9v.08c0 .4-.11.7-.38.88-.26.18-.65.25-1.18.25H45.4V37H45v-4Zm.41.38v1.6h1.03c.47 0 .76-.05.92-.17.16-.1.23-.27.23-.6v-.07c0-.32-.08-.5-.23-.6-.17-.12-.45-.16-.92-.16h-1.03Z" fill="#C5A900"/><path d="m24.59 20.52 1.4-1.52H20l1.41 1.52h3.18Z" fill="#C5AB2F"/><path d="M24.59 29.48h-3.2L20 31h6l-1.41-1.52Z" fill="#766914"/><path d="M21.4 29.46v-8.93h.02L20.02 19V31l1.39-1.5v-.03Z" fill="#675C0C"/><path d="m25.99 19-1.41 1.52v8.95l1.4 1.52V19Z" fill="#B39C29"/><path d="M25 20h-4v10h4V20Z" fill="url(#akjje1lu1)"/><defs><linearGradient id="akjje1lu1" x1="23" y1="30" x2="23" y2="20" gradientUnits="userSpaceOnUse"><stop stop-color="#C5B32E"/><stop offset="1" stop-color="#6E6310"/></linearGradient></defs></svg>