<?xml version='1.0' encoding='utf-8'?>
<!-- by TradeStack -->
<svg width="56" height="56" viewBox="0 0 56 56" xmlns="http://www.w3.org/2000/svg"><path fill="#F0F3FA" d="M0 0h56v56H0z" /><path d="M12.42 29h36.56L50 28H13.82l-.73.34-.67.66Z" fill="url(#anmzkmveb)" /><path d="M11.67 32H4.91L4 33h6.43l.65-.35.6-.65Z" fill="url(#bnmzkmveb)" /><path d="m7.73 41 11.04-11H7.73l6.3-6.3-1.6 5.32 1.4-1.02 2.49-8L5.28 31h11.04l-6.3 6.3 1.61-5.3-1.26.98L7.73 41Z" fill="#F0B743" /><path d="m19.58 20 .06 4.68L22.58 20h2.72l-4.86 7h-2.77l-.36-7h2.27ZM28.57 20l-2.21 7H24l2.24-7h2.32ZM36 20l-.56 2h-1.87l-1.67 5h-2.35l1.67-5h-2.07l.56-2h6.3ZM41.82 20l.68 7h-2.23l-.07-1h-2.55l-.6 1h-2.49l4.47-7h2.8Zm-1.8 1.73-1.54 2.8h1.65l-.11-2.8ZM47.93 20l-1.69 5h3l-.53 2h-5.34l2.2-7h2.36ZM20.55 30c.16 0 .4 0 .56.08.06.04.21.15.21.4a.5.5 0 0 1-.35.49.65.65 0 0 1-.2.02h-.06c.14.02.29.05.37.2.04.08.05.15.05.2a.6.6 0 0 1-.2.43.71.71 0 0 1-.47.17H19.09l.6-1.99h.86Zm-.7 1.55h.26s.15.01.24-.03a.21.21 0 0 0 .14-.2s0-.05-.04-.08c-.05-.05-.12-.05-.25-.05h-.23l-.11.36Zm.24-.77h.22c.13 0 .18 0 .25-.03.1-.04.11-.13.11-.18 0-.03 0-.1-.07-.12-.05-.03-.11-.03-.22-.03h-.18l-.1.36ZM23.14 30l.18 2h-.6l-.03-.3h-.7l-.16.3h-.68l1.22-2h.77Zm-.5.5-.42.8h.46l-.04-.8ZM25.8 30l-.15.5h-.51l-.46 1.5h-.65l.46-1.5h-.57l.15-.5h1.73ZM27.78 30l-.16.5h-.51l-.46 1.5H26l.46-1.5h-.57l.16-.5h1.73ZM29.6 30l-.14.46h-.85l-.1.32h.75l-.12.42h-.76l-.1.34h.88l-.14.46H27.5l.6-2h1.5ZM30.81 30c.22 0 .48 0 .64.2a.5.5 0 0 1 .09.3c0 .16-.07.32-.18.41-.1.1-.22.12-.35.14a.3.3 0 0 1 .16.07c.05.04.1.12.1.27 0 .12-.02.15-.05.36v.13l.01.1.03.02h-.63l-.02-.12c0-.11.03-.28.03-.3l.01-.15c0-.02 0-.12-.06-.16-.05-.03-.11-.02-.22-.02h-.18l-.22.75h-.65l.61-2h.88Zm-.49.82h.15c.15 0 .23 0 .3-.03a.25.25 0 0 0 .13-.2.15.15 0 0 0-.02-.1c-.05-.06-.13-.05-.25-.06h-.18l-.13.4ZM32.55 30l.09.79.54-.79h.75l-1.14 1.42-.18.58h-.65l.19-.6-.21-1.4h.6ZM36 30l-.1 1.24.69-1.24h.9l-.62 2h-.6l.47-1.42-.78 1.42h-.55l.07-1.4-.38 1.4h-.6l.61-2H36ZM39.36 30l-.14.46h-.85l-.1.32h.76l-.13.42h-.76l-.1.34h.88l-.14.46h-1.52l.6-2h1.5ZM41.33 30l-.15.5h-.51L40.2 32h-.65l.46-1.5h-.57l.15-.5h1.73ZM42.93 30l.19 2h-.61l-.03-.3h-.7l-.16.3h-.68l1.23-2h.76Zm-.5.5-.41.8h.45l-.03-.8ZM44.6 30l-.46 1.52h.82l-.14.48h-1.47l.6-2h.66ZM46.79 30.66a.2.2 0 0 0-.09-.21.46.46 0 0 0-.22-.05c-.09 0-.32.03-.32.18 0 .04.02.06.02.07.04.03.12.06.24.08l.25.07.22.07c.2.07.33.2.33.43a.6.6 0 0 1-.35.55c-.14.07-.38.15-.75.15-.05 0-.44 0-.67-.16a.49.49 0 0 1-.21-.4c0-.04 0-.09.02-.16h.6c0 .03-.02.1.03.18.06.11.21.14.32.14.2 0 .32-.1.32-.21 0-.05-.03-.09-.07-.12l-.21-.06c-.28-.08-.43-.11-.55-.2a.42.42 0 0 1-.18-.35c0-.18.1-.3.13-.34.14-.17.4-.32.87-.32.06 0 .33 0 .56.1.03.01.1.04.18.1.06.06.1.12.14.2l.02.16-.01.1h-.62Z" fill="#1E5396" /><defs><linearGradient id="anmzkmveb" x1="26.04" y1="23.43" x2="39.86" y2="37.51" gradientUnits="userSpaceOnUse"><stop stop-color="#F0B743" /><stop offset=".2" stop-color="#F4CA74" /><stop offset=".48" stop-color="#F9E0AF" /><stop offset=".71" stop-color="#FCF1DB" /><stop offset=".89" stop-color="#FEFBF5" /><stop offset="1" stop-color="#fff" /></linearGradient><linearGradient id="bnmzkmveb" x1="8.79" y1="33.56" x2="5.93" y2="30.96" gradientUnits="userSpaceOnUse"><stop stop-color="#F0B743" /><stop offset=".2" stop-color="#F4CA74" /><stop offset=".48" stop-color="#F9E0AF" /><stop offset=".71" stop-color="#FCF1DB" /><stop offset=".89" stop-color="#FEFBF5" /><stop offset="1" stop-color="#fff" /></linearGradient></defs></svg>