<!-- by TradeStack --><svg width="56" height="56" viewBox="0 0 56 56" xmlns="http://www.w3.org/2000/svg"><path fill="#F0F3FA" d="M0 0h56v56H0z"/><path d="M9 20h9.38L25 40h-8.16c-.73 0-1.37-.46-1.6-1.14L9 20ZM45 30h-9.53l-2.92 8.69c-.2.56-.66 1.02-1.26 1.21L31 40h9.4c.74 0 1.4-.45 1.62-1.1L45 30Z" fill="#52C4C4"/><path d="M25.35 17.49A2.04 2.04 0 0 1 27.3 16H35l-6.57 22.51A2.04 2.04 0 0 1 26.48 40H18l.13-.05c.46-.17.82-.55.96-1.04l6.26-21.42Z" fill="#4F3069"/><path d="M45 26h-9.53l-2.92-8.69a1.96 1.96 0 0 0-1.26-1.21L31 16h9.4c.74 0 1.4.45 1.62 1.1L45 26Z" fill="#52C4C4"/></svg>