<?xml version='1.0' encoding='utf-8'?>
<!-- by TradeStack -->
<svg width="56" height="56" viewBox="0 0 56 56" xmlns="http://www.w3.org/2000/svg"><path fill="#F0F3FA" d="M0 0h56v56H0z" /><path d="M23.65 38.02c3.9-3.08 7.3-6.37 9.9-10.12 1.13-1.64 2.27-3.58 2.56-5.56.21-1.43.5-2.86.87-4.3a1.67 1.67 0 0 1 1.1-1.17l5.65-1.86a.2.2 0 0 1 .1 0c.1 0 .17.1.17.2-.02 5.82-3.44 11.36-7.4 15.5a.69.69 0 0 0-.18.5l.22 6.56c0 .15-.03.23-.1.23-.04 0-.1-.03-.18-.1a2.39 2.39 0 0 1-.86-1.79 178.1 178.1 0 0 1-.2-3.56c-.01-.27-.12-.32-.31-.12a63.64 63.64 0 0 1-9.88 7.93c-.57.37-1.07.64-1.78.63-2.97-.02-6-.01-9.33.01 5.24-3.29 6.9-9.64 7.3-15.6.01-.1-.09-.18-.18-.14a94.58 94.58 0 0 1-8.71 2.78c-1.14.3-2.24 0-3.41-.04a84.9 84.9 0 0 0 12.08-4.37.5.5 0 0 0 .3-.5c-.08-1.24.57-2.13 1.64-2.72 2.05-1.14 4.02-2.2 5.9-3.15.15-.07.25-.03.3.13.02.07 0 .14-.06.2a5.39 5.39 0 0 0-1.4 1.95c0 .05.05.1.1.12h.08a.94.94 0 0 0 .46-.26c.39-.4.78-.78 1.18-1.12.56-.49.77-.36.62.37-.24 1.12-1.01 2.15-2.31 3.08a.52.52 0 0 0-.22.39c-.27 5.75-.98 10.92-4.02 15.9Z" fill="#E61129" /></svg>