<!-- by TradeStack --><svg width="56" height="56" viewBox="0 0 56 56" fill="none" xmlns="http://www.w3.org/2000/svg">
<rect width="56" height="56" fill="#019541"/>
<path fill-rule="evenodd" clip-rule="evenodd" d="M27.5632 28.1901C27.6649 27.966 27.7808 27.7076 27.9099 27.4198C29.9485 22.8746 35.2746 11 39.8811 11C43.0127 11 43.0048 16.1946 42.9996 19.6992C42.9994 19.8321 42.9992 19.9625 42.9991 20.0902C42.9996 29.8218 39.7074 44 34.2946 44C31.9134 44 29.0023 41.0133 26.1131 34.1502C24.824 36.5342 22.2459 39 18.2502 39C13.8027 39 10 35.7851 10 31.0133C10 26.2227 14.3218 23 18.83 23C21.9508 23 24.6367 24.6768 27.5632 28.1901ZM35.4223 35C32.4108 35 30.0587 31.5353 29 29.2669C31.5309 22.5635 34.7189 20 37.2449 20C39.4587 19.9999 41.002 21.9287 41 25.3561C41.002 28.7187 39.3369 35.0015 35.4223 35ZM14 31.7504C14 35.2507 16.625 37 19.045 37C20.7469 37 23.4375 36.0124 25 32.7505C23.25 28.8127 21 27 18.125 27C16.375 27 14 28.5626 14 31.7504Z" fill="white"/>
</svg>
