<?xml version='1.0' encoding='utf-8'?>
<!-- by TradeStack -->
<svg width="56" height="56" viewBox="0 0 56 56" fill="none" xmlns="http://www.w3.org/2000/svg">
<rect width="56" height="56" fill="#F0F3FA" />
<path d="M9.45943 31.0934C9.78605 30.3566 10.103 29.6163 10.4102 28.8725C11.7605 25.5998 13.7629 22.7847 16.4176 20.4272C16.732 20.1478 17.2305 19.8587 17.6042 20.0763C17.883 20.2395 17.939 20.5947 17.854 20.8785C17.7398 21.2604 17.265 21.4652 16.9032 21.7073C16.1397 22.2161 15.3074 23.0919 14.6883 23.8834C12.5347 26.6356 10.9583 29.9712 9.66187 33.0914C9.56137 33.3346 9.45333 33.5056 9.33776 33.6044C8.93827 33.9458 8.10377 33.8978 8.03917 33.294C8.03414 33.2492 8.05352 33.0003 8.09731 32.5473C8.33277 30.0939 8.44044 27.6347 8.42034 25.1699C8.40958 23.7298 8.40742 22.7164 8.20391 21.5409C8.17161 21.3581 8.09623 21.1455 7.97779 20.903C7.962 20.8696 7.93615 20.8465 7.90026 20.8337C6.79764 20.4326 5.02312 24.7229 4.66563 25.4856C4.57841 25.6723 4.45458 25.7299 4.26076 25.7427C4.22845 25.7448 4.19831 25.7377 4.17031 25.7214C3.99156 25.6183 3.95352 25.4689 4.05617 25.2734C4.60102 24.2365 5.15412 23.2029 5.71548 22.1724C6.13219 21.4086 7.33926 19.6059 8.43542 20.5318C9.56711 21.4865 9.49604 25.0269 9.51758 26.3945C9.54019 27.8442 9.45405 29.5189 9.40452 31.0817C9.40164 31.1798 9.41995 31.1837 9.45943 31.0934Z" fill="#022649" />
<path d="M23.873 33.8626C22.2503 34.0375 21.9628 32.7916 22.1685 31.5147L22.33 30.928C23.3045 28.481 25.6809 26.8126 28.3718 26.9897C28.4084 26.9925 28.431 26.9762 28.4396 26.9406C29.0534 24.293 28.8143 20.3526 24.785 21.2113C24.747 21.2198 24.7222 21.2426 24.7107 21.2795L21.6839 30.9014L21.531 31.4881L20.7224 33.9725C20.7101 34.0101 20.685 34.0343 20.647 34.045C20.2579 34.1524 19.9467 34.0525 19.7134 33.7452C19.6912 33.7161 19.6854 33.6844 19.6962 33.6503L20.3218 31.6267L20.4995 31.008L20.6599 30.5611C20.6721 30.5277 20.6962 30.5099 20.732 30.5077C21.1035 30.4928 21.6548 30.608 21.7701 30.2944C21.7794 30.269 21.783 30.2419 21.7806 30.215C21.7781 30.1881 21.7697 30.1621 21.756 30.1387C21.7422 30.1153 21.7234 30.0951 21.7009 30.0796C21.6784 30.0641 21.6528 30.0537 21.6258 30.0491C21.3297 30 20.8494 29.9541 20.9872 29.5146C21.8142 26.8955 22.6358 24.2745 23.452 21.6518C23.4635 21.6134 23.4502 21.601 23.4121 21.6145C22.6724 21.879 21.8928 22.6705 21.362 23.2978C21.2449 23.4365 21.0938 23.4717 20.9086 23.4034C20.8756 23.3913 20.8516 23.3692 20.8365 23.3372C20.7726 23.2007 20.7859 23.0723 20.8763 22.9522C23.8321 19.033 30.4435 18.9072 30.4639 25.1709C30.4647 25.2143 30.4435 25.2421 30.4004 25.2541C30.2698 25.2904 30.2023 25.3782 30.198 25.5176C30.1973 25.561 30.2156 25.5941 30.2529 25.6168L30.4295 25.7214C30.4668 25.7434 30.484 25.7761 30.4812 25.8195L30.3638 27.2265C30.362 27.2502 30.3689 27.2736 30.3831 27.2925C30.3974 27.3114 30.4181 27.3243 30.4413 27.3289L30.8344 27.4121C30.8753 27.4207 30.8954 27.4455 30.8947 27.4868L30.8936 28.0095C30.8936 28.0465 30.8753 28.0614 30.8387 28.0543L30.3024 27.9455C30.2572 27.9362 30.2274 27.9533 30.2131 27.9967C29.3624 31.1017 26.919 33.5331 23.873 33.8626ZM22.9922 30.8566L22.7962 31.4881C22.6422 32.0054 22.5723 32.9729 23.2679 33.0967C24.0905 33.2417 25.4699 31.9734 25.9458 31.3814L26.3991 30.879C27.1625 29.9765 28.011 28.7701 28.3319 27.6276C28.3336 27.6214 28.3338 27.615 28.3326 27.6087C28.3315 27.6024 28.3289 27.5965 28.3252 27.5914C28.3215 27.5863 28.3167 27.5821 28.3111 27.5791C28.3056 27.5761 28.2994 27.5745 28.2932 27.5743C26.0201 27.4665 23.9376 28.8351 22.9922 30.8566Z" fill="#022649" />
<path d="M17.2354 30.1738L17.4736 30.1856C17.5041 30.187 17.5286 30.1994 17.5471 30.2229L17.5683 30.2507C17.5749 30.2593 17.5789 30.2695 17.5798 30.2801C17.5807 30.2908 17.5784 30.3015 17.5734 30.311C17.5683 30.3206 17.5605 30.3285 17.551 30.3341C17.5414 30.3396 17.5304 30.3425 17.5193 30.3424L13.5119 30.3381C13.4966 30.3381 13.4819 30.3323 13.471 30.3219C13.4601 30.3115 13.454 30.2974 13.454 30.2827V30.2357C13.454 30.203 13.4715 30.1881 13.5064 30.1909C13.8522 30.2179 13.9963 30.0437 14 29.6682L14 25.9944C14 25.4429 13.4129 25.6488 13.4552 25.4568C13.4582 25.443 13.4663 25.4306 13.478 25.4217C13.4898 25.4127 13.5045 25.4078 13.5197 25.4077L15.5512 25.4088C15.5646 25.409 15.5776 25.4134 15.5881 25.4215C15.5985 25.4295 15.6059 25.4407 15.6089 25.4532C15.612 25.4657 15.6106 25.4789 15.605 25.4905C15.5994 25.5022 15.5899 25.5117 15.5779 25.5176C15.4948 25.5574 15.4073 25.5727 15.3152 25.5635C15.2715 25.5585 15.2329 25.5699 15.1995 25.5976C15.08 25.6972 15.0015 25.8561 15 26.0744L15 29.4879C15.0015 29.6992 15.0507 29.8876 15.1115 30.0533C15.1249 30.0903 15.1516 30.1138 15.1917 30.1237C15.5245 30.2058 16.2603 30.2667 16.4373 29.8805C16.6299 29.4613 18.49 25.2499 18.5979 25.2712C18.7241 25.2968 18.7961 25.3295 18.8139 25.3693C19.4551 26.8123 20.0947 28.2491 20.733 29.68C20.8851 30.0199 21.1537 30.1934 21.5389 30.2005C21.5582 30.2005 21.5708 30.2094 21.5767 30.2272C21.5804 30.2393 21.586 30.2524 21.5934 30.2667C21.5974 30.2743 21.5993 30.2828 21.5989 30.2913C21.5985 30.2998 21.5958 30.3081 21.5911 30.3154C21.5864 30.3227 21.5799 30.3287 21.5721 30.3328C21.5643 30.337 21.5556 30.3392 21.5467 30.3392L19.7701 30.3371C19.755 30.3371 19.7404 30.3321 19.7288 30.323C19.7172 30.3139 19.7093 30.3012 19.7063 30.287C19.7033 30.2728 19.7054 30.2579 19.7124 30.2449C19.7193 30.2319 19.7307 30.2215 19.7445 30.2154C19.8658 30.1642 19.868 30.065 19.8224 29.953C19.6584 29.5548 19.4907 29.1583 19.3192 28.7636C19.3052 28.7309 19.2792 28.7146 19.2413 28.7146H17.6373C17.5935 28.7146 17.5634 28.7341 17.5471 28.7732L17.0751 29.937C17.0647 29.9626 17.0608 29.9902 17.0638 30.0175C17.0667 30.0448 17.0764 30.0711 17.092 30.0942C17.1077 30.1173 17.1288 30.1366 17.1537 30.1504C17.1787 30.1643 17.2067 30.1723 17.2354 30.1738ZM17.7664 28.2644C17.7642 28.2696 17.7634 28.2753 17.764 28.2809C17.7646 28.2865 17.7667 28.2918 17.77 28.2964C17.7733 28.3011 17.7777 28.3049 17.7829 28.3075C17.7881 28.3101 17.7939 28.3114 17.7998 28.3114L19.0699 28.3178C19.0756 28.3177 19.0813 28.3164 19.0863 28.3139C19.0914 28.3113 19.0958 28.3077 19.0991 28.3031C19.1023 28.2986 19.1044 28.2935 19.1052 28.288C19.1059 28.2826 19.1053 28.277 19.1033 28.2719L18.4766 26.7038C18.4741 26.6973 18.4695 26.6916 18.4635 26.6877C18.4576 26.6837 18.4505 26.6815 18.4432 26.6815C18.4359 26.6815 18.4288 26.6837 18.4229 26.6877C18.4169 26.6916 18.4123 26.6973 18.4098 26.7038L17.7664 28.2644Z" fill="#022649" />
<path d="M44.5657 27.1391C44.0646 28.1475 43.5582 29.1523 43.0463 30.1536C43.0406 30.1642 43.0345 30.1739 43.028 30.1824C42.8866 30.3687 42.7664 30.3716 42.6673 30.1909C42.1375 29.2266 41.6451 28.2417 41.19 27.2361C41.1864 27.2272 41.1799 27.2198 41.1716 27.215C41.1632 27.2102 41.1534 27.2083 41.1439 27.2096C41.1343 27.211 41.1254 27.2155 41.1188 27.2224C41.1121 27.2294 41.108 27.2383 41.1071 27.2479L40.7668 29.9616C40.756 30.0498 40.7948 30.1031 40.8831 30.1216L41.2837 30.2048C41.3253 30.2133 41.3397 30.2379 41.3267 30.2784C41.2987 30.367 39.2809 30.3424 39.0504 30.3456C38.2719 30.3584 37.4859 29.0784 37.0186 28.3754C36.9992 28.3462 36.9715 28.3309 36.9356 28.3295H36.267V29.7269C36.2907 30.0846 36.4777 30.2333 36.828 30.1728C36.8624 30.1664 36.8944 30.1728 36.9238 30.192L36.9722 30.2229C37.0376 30.2656 37.0322 30.2966 36.9561 30.3158C36.8585 30.3399 36.7311 30.3495 36.5738 30.3446C36.08 30.3275 35.5136 30.3278 34.8747 30.3456C34.8563 30.3458 34.8383 30.3397 34.824 30.3283C34.8096 30.3169 34.7997 30.3009 34.7958 30.283C34.792 30.2651 34.7946 30.2465 34.8031 30.2303C34.8116 30.2141 34.8255 30.2013 34.8424 30.1941C34.8977 30.1714 34.9554 30.1693 35.0157 30.1877C35.0408 30.1954 35.0672 30.1979 35.0933 30.195C35.1194 30.1921 35.1447 30.1839 35.1675 30.1709C35.1903 30.1579 35.2102 30.1404 35.226 30.1194C35.2417 30.0985 35.253 30.0745 35.2591 30.0491C35.2971 29.8898 35.3323 29.7036 35.3345 29.5421V25.9934C35.3334 25.363 34.8047 25.7257 34.6723 25.4856C34.6682 25.4779 34.6662 25.4692 34.6665 25.4605C34.6668 25.4518 34.6693 25.4433 34.6739 25.4358C34.6784 25.4283 34.6848 25.4221 34.6924 25.4178C34.7001 25.4134 34.7087 25.4111 34.7175 25.411C35.543 25.4024 36.366 25.4053 37.1865 25.4195C37.6829 25.427 38.1642 25.6158 38.4356 26.035C38.8911 26.739 38.3128 27.5241 37.7131 27.9743C37.6836 27.9971 37.6801 28.0234 37.7023 28.0532C37.9381 28.3647 39.9861 31.1542 40.2058 29.7749C40.4434 28.2836 40.6792 26.8148 40.9132 25.3683C40.9182 25.338 40.9327 25.31 40.9547 25.2884C40.9767 25.2667 41.0051 25.2526 41.0358 25.248C41.0664 25.2433 41.0978 25.2485 41.1253 25.2626C41.1528 25.2768 41.1751 25.2992 41.1889 25.3267L43.056 29.0229C43.0578 29.0265 43.0606 29.0295 43.064 29.0317C43.0674 29.0338 43.0714 29.0349 43.0754 29.0349C43.0795 29.0349 43.0834 29.0338 43.0869 29.0317C43.0903 29.0295 43.093 29.0265 43.0948 29.0229C43.6763 27.8495 44.2613 26.674 44.8499 25.4963C44.8966 25.4031 44.9573 25.3235 45.0319 25.2574C45.0463 25.2444 45.064 25.2356 45.0831 25.2318C45.1022 25.228 45.1219 25.2294 45.1403 25.2359C45.1586 25.2424 45.1748 25.2536 45.1872 25.2685C45.1996 25.2833 45.2077 25.3012 45.2107 25.3203C45.444 26.7995 45.6701 28.2509 45.889 29.6747C45.9235 29.8976 46.0129 30.0587 46.2422 30.1344C46.772 30.3083 46.9906 29.9797 47.1855 29.5306C47.7497 28.2307 48.3146 26.931 48.8803 25.6318C48.9503 25.4686 48.9901 25.2648 49.199 25.2542C49.2414 25.252 49.2712 25.2705 49.2884 25.3096C49.8677 26.6388 50.4416 27.9668 51.0102 29.2938C51.1997 29.7344 51.3784 30.1963 51.8651 30.1781C51.9391 30.1753 51.9836 30.2059 51.9987 30.2699C52.0006 30.2785 52.0006 30.2875 51.9986 30.2961C51.9967 30.3047 51.9928 30.3127 51.9873 30.3196C51.9818 30.3265 51.9749 30.332 51.9669 30.3358C51.959 30.3395 51.9504 30.3414 51.9416 30.3414H50.3081C50.26 30.3414 50.2349 30.3179 50.2327 30.2709C50.2299 30.2112 50.2543 30.1586 50.306 30.1131C50.3332 30.0889 50.3401 30.0601 50.3264 30.0267L49.8117 28.7669C49.7981 28.732 49.7722 28.7146 49.7342 28.7146H48.1707C48.1291 28.7146 48.1011 28.7338 48.0867 28.7722L47.6162 30.0043C47.5982 30.0519 47.6126 30.0871 47.6593 30.1099C47.7734 30.1664 48.0932 30.1621 48.1244 30.2645C48.1274 30.2749 48.128 30.2859 48.1261 30.2965C48.1241 30.3072 48.1198 30.3172 48.1133 30.3258C48.1068 30.3344 48.0984 30.3414 48.0887 30.3461C48.0791 30.3508 48.0684 30.3532 48.0577 30.3531L44.9576 30.3115C44.9405 30.3112 44.9239 30.3059 44.9099 30.2963C44.8958 30.2867 44.8849 30.2733 44.8785 30.2576C44.872 30.2419 44.8704 30.2247 44.8738 30.2081C44.8771 30.1915 44.8853 30.1763 44.8973 30.1643L44.9673 30.0939C44.9953 30.0661 45.0068 30.0331 45.0018 29.9947L44.6174 27.1476C44.617 27.1416 44.6145 27.1359 44.6104 27.1315C44.6064 27.127 44.6009 27.1241 44.5949 27.1231C44.5889 27.1221 44.5828 27.1231 44.5775 27.126C44.5722 27.1289 44.568 27.1335 44.5657 27.1391ZM36.2207 25.9859L36.2271 27.7695C36.2271 27.7961 36.2324 27.8224 36.2427 27.8469C36.253 27.8714 36.2681 27.8937 36.2871 27.9124C36.3061 27.9312 36.3287 27.946 36.3535 27.9561C36.3783 27.9661 36.4049 27.9712 36.4317 27.9711L36.745 27.97C36.9996 27.9689 37.2434 27.8618 37.4226 27.6722C37.6019 27.4826 37.7021 27.226 37.7012 26.9588V26.7881C37.7008 26.6556 37.6755 26.5246 37.6267 26.4024C37.578 26.2802 37.5068 26.1692 37.4172 26.0759C37.3276 25.9826 37.2213 25.9087 37.1045 25.8585C36.9877 25.8083 36.8626 25.7827 36.7364 25.7833L36.4231 25.7843C36.3693 25.7846 36.3178 25.806 36.2799 25.8437C36.242 25.8815 36.2207 25.9326 36.2207 25.9859ZM48.3053 28.2644C48.3032 28.2697 48.3024 28.2753 48.303 28.2809C48.3036 28.2865 48.3056 28.2918 48.3088 28.2965C48.312 28.3011 48.3163 28.3049 48.3213 28.3075C48.3263 28.3101 48.3319 28.3114 48.3376 28.3114L49.5705 28.3178C49.5762 28.3178 49.5818 28.3165 49.5868 28.3139C49.5919 28.3113 49.5962 28.3075 49.5994 28.3029C49.6026 28.2982 49.6045 28.2929 49.6051 28.2873C49.6058 28.2817 49.605 28.2761 49.6028 28.2708L48.9945 26.7038C48.992 26.6973 48.9876 26.6917 48.9818 26.6877C48.976 26.6837 48.9692 26.6816 48.9621 26.6816C48.9551 26.6816 48.9482 26.6837 48.9425 26.6877C48.9367 26.6917 48.9323 26.6973 48.9298 26.7038L48.3053 28.2644Z" fill="#022649" />
<path d="M31.9986 25.8835V27.4356C31.9986 27.4811 32.0212 27.5049 32.0665 27.507C32.4692 27.5273 33.28 27.5999 33.5944 27.3492C33.6043 27.3414 33.6162 27.3367 33.6288 27.3356C33.6413 27.3345 33.6539 27.3371 33.665 27.343C33.6761 27.3489 33.6852 27.3578 33.6912 27.3688C33.6972 27.3798 33.6999 27.3922 33.6989 27.4046L33.6019 28.4244C33.6012 28.4368 33.5963 28.4485 33.5882 28.4579C33.58 28.4673 33.5689 28.4737 33.5567 28.4762C33.5445 28.4788 33.5318 28.4773 33.5205 28.472C33.5092 28.4667 33.5 28.4578 33.4943 28.4468C33.4372 28.3423 33.4663 28.2228 33.4189 28.1311C33.2617 27.8217 32.3755 27.8921 32.0632 27.8857C32.0266 27.885 32.0016 27.9028 32.0001 27.9391V29.3535C31.9969 30.1248 33.0453 30.0341 33.5061 29.888C33.7699 29.8037 33.7538 29.4954 33.8625 29.3077C33.9192 29.2102 33.9512 29.2177 33.9584 29.3301C33.9785 29.6458 33.944 29.9562 33.855 30.2613C33.8335 30.3331 33.785 30.3683 33.7096 30.3669H30.5062C30.4603 30.3662 30.4481 30.3011 30.4696 30.2613C30.5112 30.1831 30.5898 30.161 30.7054 30.1952C30.7344 30.2038 30.7649 30.2062 30.7949 30.2023C30.8249 30.1984 30.8537 30.1882 30.8793 30.1725C30.905 30.1568 30.927 30.1358 30.9438 30.111C30.9606 30.0862 30.9718 30.0582 30.9768 30.0288C31.0162 29.8026 30.9965 29.5758 31.0001 29.3482V26.0275C30.9994 25.7388 30.8759 25.5777 30.5062 25.5443C30.4845 25.5423 30.4622 25.5339 30.4411 25.5197C30.42 25.5054 30.4006 25.4858 30.3845 25.4621C30.3695 25.4408 30.4351 25.4013 30.4664 25.4013C31.5683 25.4205 32.6695 25.4159 33.7699 25.3875C33.8044 25.3868 33.8195 25.4031 33.8151 25.4365L33.7053 26.3401C33.7003 26.3827 33.6762 26.4019 33.6332 26.3977C33.49 26.3827 33.6633 25.9134 33.1379 25.8547C32.7179 25.8085 32.3608 25.7942 32.0665 25.812C32.0212 25.8142 31.9986 25.838 31.9986 25.8835Z" fill="#022649" />
<path d="M33.3865 29.4517C33.0754 29.6586 32.4691 28.9941 32.1946 28.7615C32.168 28.7395 32.1551 28.7114 32.1558 28.6772L32.1623 28.1535C32.163 28.108 32.1834 28.0962 32.2236 28.1183C32.7017 28.3807 33.1059 28.7277 33.4361 29.1594C33.453 29.1815 33.4652 29.2068 33.4718 29.2338C33.4785 29.2607 33.4796 29.2887 33.4749 29.3161C33.4703 29.3435 33.4601 29.3696 33.4449 29.3929C33.4297 29.4162 33.4098 29.4362 33.3865 29.4517Z" fill="#022649" />
<path d="M28.8682 30.848C29.9772 30.864 51.1473 31.1851 51.1979 31.3302C51.1979 32.1864 50.4667 32.1863 49.8685 32.1864L28.4956 31.3131C28.6026 31.1055 28.7268 30.9504 28.8682 30.848Z" fill="#60879F" />
<path d="M22.9924 30.8566L26.3993 30.879L25.946 31.3814L22.7964 31.4881L22.9924 30.8566Z" fill="#60879F" />
<path d="M21.6842 30.9014L22.3302 30.928L22.1687 31.5147C21.9526 31.546 21.7401 31.5371 21.5312 31.4881L21.6842 30.9014Z" fill="#60879F" />
<path d="M20.4997 31.0081L20.3221 31.6268C19.2625 31.662 12.4541 31.9894 12.2323 33.0882C12.2251 33.1259 12.2326 33.16 12.2549 33.1906C12.6673 33.7506 13.7537 34.109 14.4084 34.3181C16.3064 34.9254 18.232 35.4342 20.1853 35.8446C20.3282 35.8744 20.4746 35.9139 20.6246 35.963C20.7316 35.9985 20.7291 36.0085 20.6171 35.9928C19.3196 35.8062 10.3845 34.6669 10.4986 33.0572C10.6031 31.5937 19.2291 31.0625 20.4997 31.0081Z" fill="#60879F" />
</svg>