<!-- by TradeStack --><svg width="56" height="56" viewBox="0 0 56 56" xmlns="http://www.w3.org/2000/svg"><path fill="#F0F3FA" d="M0 0h56v56H0z"/><path d="m17.6 13.21 3.5-1.1c.46 1.58 1.4 3.23 1.8 3.86.72-.7.81-1.52.76-1.84l3.75-.06c-.29 1.07-1.1 3.47-2.04 4.46a6.6 6.6 0 0 0-1.52 2.7l-4.43-.87-1.81-7.15Z" fill="url(#a)"/><path d="m38.4 42.79-3.5 1.1a16.73 16.73 0 0 0-1.8-3.85c-.72.69-.81 1.51-.76 1.83l-3.75.06c.29-1.07 1.1-3.47 2.04-4.46a6.61 6.61 0 0 0 1.52-2.7l4.43.87 1.81 7.15Z" fill="url(#b)"/><path d="m35.6 11.6 2.71 2.48a16.73 16.73 0 0 0-2.43 3.5c.96.27 1.71-.07 1.97-.27l1.92 3.21c-1.07.29-3.56.79-4.89.47a6.61 6.61 0 0 0-3.1.03l-1.45-4.27 5.28-5.14Z" fill="url(#c)"/><path d="m20.4 44.4-2.71-2.48c1.13-1.19 2.1-2.82 2.43-3.5a2.31 2.31 0 0 0-1.97.27l-1.92-3.21c1.07-.29 3.56-.79 4.89-.47 1.32.32 2.61.12 3.1-.03l1.45 4.27-5.28 5.14Z" fill="url(#d)"/><path d="m46 26.4-.79 3.57c-1.6-.39-3.5-.4-4.24-.36.24.97.9 1.45 1.21 1.57l-1.82 3.27c-.78-.78-2.46-2.69-2.84-4a6.61 6.61 0 0 0-1.58-2.66l2.97-3.4 7.09 2Z" fill="url(#e)"/><path d="m10 29.6.79-3.57c1.6.39 3.5.4 4.24.36a2.31 2.31 0 0 0-1.21-1.57l1.82-3.27c.78.78 2.46 2.69 2.84 4a6.61 6.61 0 0 0 1.58 2.66l-2.97 3.4-7.09-2Z" fill="url(#f)"/><path d="m26.4 10 3.57.79c-.39 1.6-.4 3.5-.36 4.24.97-.24 1.45-.9 1.57-1.21l3.28 1.82c-.8.78-2.7 2.46-4 2.84a6.61 6.61 0 0 0-2.67 1.58l-3.4-2.97 2-7.09Z" fill="url(#g)"/><path d="m29.6 46-3.57-.79c.39-1.6.4-3.5.36-4.24-.97.24-1.45.9-1.57 1.21l-3.28-1.82c.8-.78 2.7-2.46 4-2.84a6.61 6.61 0 0 0 2.67-1.58l3.4 2.97-2 7.09Z" fill="url(#h)"/><path d="m42.79 17.6 1.1 3.5c-1.58.46-3.23 1.4-3.86 1.8.7.72 1.52.81 1.84.76l.06 3.75c-1.07-.29-3.47-1.1-4.46-2.04a6.61 6.61 0 0 0-2.7-1.52l.87-4.43 7.15-1.81Z" fill="url(#i)"/><path d="m13.21 38.4-1.1-3.5c1.58-.46 3.23-1.4 3.86-1.8-.7-.72-1.52-.81-1.84-.76l-.06-3.75c1.07.29 3.47 1.1 4.46 2.04 1 .94 2.21 1.4 2.7 1.52l-.87 4.43-7.15 1.81Z" fill="url(#j)"/><path d="m44.4 35.6-2.48 2.71a16.73 16.73 0 0 0-3.5-2.43c-.27.96.07 1.71.27 1.97l-3.21 1.92c-.29-1.07-.79-3.56-.47-4.89a6.61 6.61 0 0 0-.03-3.1l4.27-1.45 5.14 5.28Z" fill="url(#k)"/><path d="m11.6 20.4 2.48-2.71c1.2 1.13 2.82 2.1 3.5 2.43a2.31 2.31 0 0 0-.27-1.97l3.21-1.92c.29 1.07.79 3.56.47 4.89a6.61 6.61 0 0 0 .03 3.1l-4.27 1.45-5.14-5.28Z" fill="url(#l)"/><defs><linearGradient id="a" x1="23.25" y1="9.64" x2="22.79" y2="20.03" gradientUnits="userSpaceOnUse"><stop stop-color="#8ABFE0"/><stop offset="1" stop-color="#449DD3"/></linearGradient><linearGradient id="b" x1="33.76" y1="33.53" x2="33.29" y2="43.92" gradientUnits="userSpaceOnUse"><stop stop-color="#8ABFE0"/><stop offset="1" stop-color="#449DD3"/></linearGradient><linearGradient id="c" x1="35.35" y1="11.46" x2="34.58" y2="21.33" gradientUnits="userSpaceOnUse"><stop stop-color="#8ABFE0"/><stop offset="1" stop-color="#449DD3"/></linearGradient><linearGradient id="d" x1="21.21" y1="32.3" x2="20.44" y2="42.18" gradientUnits="userSpaceOnUse"><stop stop-color="#8ABFE0"/><stop offset="1" stop-color="#449DD3"/></linearGradient><linearGradient id="e" x1="42.1" y1="22.26" x2="41.68" y2="32.02" gradientUnits="userSpaceOnUse"><stop stop-color="#8ABFE0"/><stop offset="1" stop-color="#449DD3"/></linearGradient><linearGradient id="f" x1="14.87" y1="21.7" x2="14.45" y2="31.45" gradientUnits="userSpaceOnUse"><stop stop-color="#8ABFE0"/><stop offset="1" stop-color="#449DD3"/></linearGradient><linearGradient id="g" x1="26.09" y1="10" x2="33.97" y2="16.61" gradientUnits="userSpaceOnUse"><stop stop-color="#599FD2"/><stop offset=".76" stop-color="#00396A"/></linearGradient><linearGradient id="h" x1="29.91" y1="46" x2="22.03" y2="39.39" gradientUnits="userSpaceOnUse"><stop stop-color="#599FD2"/><stop offset=".76" stop-color="#00396A"/></linearGradient><linearGradient id="i" x1="42.63" y1="17.35" x2="40.85" y2="27.47" gradientUnits="userSpaceOnUse"><stop stop-color="#599FD2"/><stop offset=".76" stop-color="#00396A"/></linearGradient><linearGradient id="j" x1="13.37" y1="38.65" x2="15.15" y2="28.53" gradientUnits="userSpaceOnUse"><stop stop-color="#599FD2"/><stop offset=".76" stop-color="#00396A"/></linearGradient><linearGradient id="k" x1="44.54" y1="35.35" x2="34.88" y2="38.87" gradientUnits="userSpaceOnUse"><stop stop-color="#599FD2"/><stop offset=".76" stop-color="#00396A"/></linearGradient><linearGradient id="l" x1="11.46" y1="20.65" x2="21.12" y2="17.13" gradientUnits="userSpaceOnUse"><stop stop-color="#599FD2"/><stop offset=".76" stop-color="#00396A"/></linearGradient></defs></svg>