<?xml version='1.0' encoding='utf-8'?>
<!-- by TradeStack -->
<svg width="56" height="56" viewBox="0 0 56 56" xmlns="http://www.w3.org/2000/svg"><path fill="#F0F3FA" d="M0 0h56v56H0z" /><path fill-rule="evenodd" d="M52 22H4v12h48V22Zm-.38.4H4.38v11.2h47.24V22.4Z" /><path fill="#008ECE" d="M5 23h46v10H5z" /><path d="M17 24h9v3h-2v-1h-3.31v1h3.51v2H26v3h-9v-2h.81v-4H17v-2Zm3.69 5v1H24v-1h-3.31Z" /><path d="M25.64 24.4h-8.3v1.22h.8v4.87h-.8v1.22h8.3v-2.23h-1.36v1.01h-3.97v-1.72h3.52v-1.22h-3.52v-1.93h3.97v1.02h1.36V24.4Z" fill="#fff" /><path d="M27 24h9v3h-2v-1h-3.31v1h3.51v2H36v3h-9v-2h.81v-4H27v-2Zm3.69 5v1H34v-1h-3.31Z" /><path d="M35.64 24.4h-8.3v1.22h.8v4.87h-.8v1.22h8.3v-2.23h-1.36v1.01h-3.97v-1.72h3.52v-1.22h-3.52v-1.93h3.97v1.02h1.36V24.4Z" fill="#fff" /><path d="M6 24h5.26v2h-.49l1.35 2.5L13.5 26h-.34v-2H17v2h-.89l-3.34 6h-2.26l-3.34-6H6v-2Z" /><path d="M10.88 24.4h-4.5v1.2H7.4l3.34 6h1.82l3.34-6h.73v-1.2h-3.06v1.2h.61l-2.06 3.7-2-3.7h.77v-1.2Z" fill="#fff" /><path fill-rule="evenodd" d="M37 24h4.65l1.8 3.67 1.8-3.67H50v2h-1v4h1v2h-5v-1.91L44 32h-1.94l-.96-1.86V32H37v-2h1v-4h-1v-2Zm8.9 6v-1.62L45.07 30h.83Zm-5.6-1.42L41 30h-.7v-1.42Z" /><path d="M37.4 24.4v1.19h1v4.77h-1v1.2h3.3v-1.2h-.8v-2.78h.33l2.07 4.02h1.45l2.12-4.02h.43v2.78h-.9v1.2h4.2v-1.2h-1v-4.77h1v-1.2h-4.1l-2.05 4.18-2.05-4.17h-4Z" fill="#fff" /></svg>