<?xml version='1.0' encoding='utf-8'?>
<!-- by TradeStack -->
<svg width="56" height="56" viewBox="0 0 56 56" xmlns="http://www.w3.org/2000/svg"><path fill="#F0F3FA" d="M0 0h56v56H0z" /><path d="M25.5 12.76A10.84 10.84 0 0 1 31.23 11c2.15 0 5.77 2 5.77 4.06-.01 1.51-2.65 1.93-4.1 1.94-.27 0-.5 0-.66-.03-1.66-.17-3.9-1.34-5.53-1.72-3.42-.81-6.23.11-8.43 2.78-1.34 1.62-3.03 4.1-5.12 5.76-.51.41-1.14.22-1.16-.53-.1-4 5.01-6.03 7.76-7.2a38.44 38.44 0 0 0 5.74-3.3ZM11 29.86v-.71c.66-3.66 3.46-3.92 6.3-3.08 4.94 1.47 9.13-2.5 13.09-4.68 1.3-.72 3.12-1.39 4.76-1.39 2.31 0 3.84 1.74 3.85 4 0 2.42-2.07 3.97-4.52 4-3.18.04-5.9-1.58-9.02-1.88a9.5 9.5 0 0 0-7.66 2.7c-1.3 1.23-3.08 3.65-5.15 3.1-.93-.24-1.48-.93-1.65-2.06Z" fill="#B7CD01" /><path d="m17.13 16-.06-.01a.13.13 0 0 1-.04-.04.15.15 0 0 1-.02-.12c.7-2.65 3.65-3.85 5.88-3.83.1 0 .13.05.1.16-.96 2.38-3.64 3.76-5.86 3.84ZM35.58 17.95c-1.19.14-2.21.1-3.07-.11-.6-.16-1.26-.4-1.98-.65-1.74-.61-3.76-1.33-5.72-1.17-2.37.2-3.87 1.11-5.5 2.91a4.55 4.55 0 0 0-1.3 2.96c-.07 2.84 3.7 2.16 5.14 1.64.44-.16 1.37-.66 2.79-1.5l.85-.52c2.76-1.67 5.59-3.38 8.92-3.23.84.1 1.61.36 2.33.78.75.43 1.32 1.03 1.86 1.6.97 1.03 1.89 2 3.75 1.86.08 0 .14-.05.17-.14.91-2.47-1.85-5.35-4.14-5.38-.23 0-.45.02-.67.08-1.16.3-2.3.62-3.43.87ZM35.73 29.49c1.3-.21 2.26.1 3.23.41.67.22 1.35.44 2.15.5 4.05.23 5.48-6.45 1.65-6.4-1.6.02-2.86 1.23-3.88 2.44a11.77 11.77 0 0 1-3.12 2.64c-3.59 1.37-6.9.38-10.55-1.04a6.87 6.87 0 0 0-3.16-.4c-2.3.22-3.78 1.53-4.02 4.03-.2 2.13.77 3.5 2.56 4.08 3.47 1.11 7.3-1.76 10.17-3.92l.73-.55a10.6 10.6 0 0 1 4.24-1.8ZM25.62 39.61c3.97 1.44 8.84 2.29 11.96-1.39 1.2-1.4 2.3-2.9 3.3-4.47a3.6 3.6 0 0 1 2.6-1.74c.3-.05.47.1.5.43.27 2.94-2.58 4.95-4.68 6.04a209.85 209.85 0 0 0-8.82 4.86c-3.36 1.95-7.64 2.6-10.63-.38-.96-.96-1.28-2.66-.04-3.5 1.3-.9 4.52-.32 5.81.15Z" fill="#B7CD01" /><path d="M17.14 38.85c-.3.1-.6.15-.9.15-2.08 0-3.81-1.85-4.21-3.87a1.73 1.73 0 0 1-.04-.32c0-.6.4-.8 1.01-.81 1.52 0 2.58.67 3.67 1.68 1.06.98 2.15 2 3.73 2.2-.01-.01 0 0 0 0 2.44-.1 4.9-.88 7.33-2.35a82.02 82.02 0 0 1 4.16-2.4c1.38-.72 5.61-2.25 6.07.22a4.4 4.4 0 0 1-.57 2.6A7.18 7.18 0 0 1 30.82 40c-1.65.04-3.74-.61-5.64-1.2-.52-.17-1.04-.33-1.52-.46-2.13-.61-4.46-.16-6.52.51ZM33 43.9c.53-2.03 3.78-2.97 5.91-2.9.09 0 .11.04.07.1-1.04 1.88-3.54 2.81-5.87 2.9h-.05a.1.1 0 0 1-.04-.03.08.08 0 0 1-.02-.04v-.03Z" fill="#B7CD01" /></svg>