<!-- by TradeStack --><svg width="56" height="56" viewBox="0 0 56 56" xmlns="http://www.w3.org/2000/svg"><path fill="#00083F" d="M0 0h56v56H0z"/><path fill-rule="evenodd" d="M28.14 36.84c-1.36-1.56-4.4-6.44-5.71-13.51-1.64-8.84-5.08-5.27-5.54-4.47-.47.8-1.9 6.57.29 14.65C19.36 41.59 22.05 45 25.71 45c2.92 0 4.21-2.53 4.49-3.79 2.18.1 7-2.67 8.82-14.52 1.05-4.81 2.15-14.48-1.85-14.69-4-.2-6.31 7.64-6.97 11.58-.27 1.23-1.05 5.61-2.06 13.26Zm4.03-1.18c.7-4.86 2.47-15.38 3.91-18.65 1.8-4.08-1.05 15.11-3.9 18.65Zm-5.78 3.92c-3.46-2.33-5-5.46-5.5-6.96.8 2.88 2.85 8.62 4.55 8.62 1.7 0 1.24-1.25.95-1.66Z" fill="url(#a2pnghalp)"/><defs><linearGradient id="a2pnghalp" x1="22.57" y1="14.1" x2="28.02" y2="45" gradientUnits="userSpaceOnUse"><stop stop-color="#1D83FB"/><stop offset=".84" stop-color="#0AE73C"/></linearGradient></defs></svg>