<!-- by TradeStack --><svg width="56" height="56" viewBox="0 0 56 56" xmlns="http://www.w3.org/2000/svg"><path fill="#F0F3FA" d="M0 0h56v56H0z"/><path d="M28 12c-9.54 0-17 7-17 16s7.46 16 17 16 17-7.01 17-16-7.46-16-17-16ZM17.7 39.04a.13.13 0 0 1 0 .2h-.22A14.91 14.91 0 0 1 12 28.04c0-4.24 2.2-8.56 5.48-11.2.09-.08.18-.09.22 0a.13.13 0 0 1 0 .2c-2.74 3-4.22 6.96-4.1 11.03a15.72 15.72 0 0 0 4.1 10.97Zm5.26-4.17c-.04.06-.12.07-.23 0-2.37-1.44-4.25-3.76-4.25-6.88s1.88-5.44 4.25-6.88c.1-.06.2-.04.23 0 .04.05 0 .11-.04.17a8.75 8.75 0 0 0-3 6.7 8.81 8.81 0 0 0 3 6.7c.06.08.08.14.04.19Zm5.04.59c-3.66 0-7-3.22-7-7.46s3.31-7.43 7-7.43 7 3.2 7 7.43c0 4.24-3.31 7.46-7 7.46Zm5.26-.59c-.1.07-.18.06-.22 0-.04-.05 0-.1.04-.17a8.76 8.76 0 0 0 3-6.7 8.8 8.8 0 0 0-3-6.69c-.06-.06-.08-.12-.04-.17.04-.05.12-.07.22 0 2.38 1.47 4.26 3.76 4.26 6.88s-1.9 5.42-4.26 6.85Zm5.24 4.33c-.08.08-.17.08-.22 0a.13.13 0 0 1 0-.2c2.75-3 4.22-6.96 4.1-11.04a15.72 15.72 0 0 0-4.13-11.08.13.13 0 0 1 .03-.16c.05-.04.14-.03.22 0a14.97 14.97 0 0 1 5.5 11.2c0 4.24-2.23 8.57-5.5 11.2v.08Z"/></svg>