<!-- by TradeStack --><svg width="56" height="56" viewBox="0 0 56 56" xmlns="http://www.w3.org/2000/svg"><path fill="#F0F3FA" d="M0 0h56v56H0z"/><path d="m7 20 7.87 16h2.23L25 20h-3.27l-5.8 11.56L10.4 20H7Zm33 8a8 8 0 1 1-3.5-6.62l-1.73 2.45A5 5 0 1 0 36.9 29H32v-3h8v2Z" fill="url(#akcmucfjg)"/><path fill="url(#bkcmucfjg)" d="M42 16h3v3h-3z"/><path fill="url(#ckcmucfjg)" d="M42 20h3v16h-3z"/><defs><linearGradient id="akcmucfjg" x1="31.24" y1="22.61" x2="24.1" y2="35.91" gradientUnits="userSpaceOnUse"><stop stop-color="#1E2A76"/><stop offset="1" stop-color="#1B2352"/></linearGradient><linearGradient id="bkcmucfjg" x1="42" y1="19" x2="45.12" y2="16.3" gradientUnits="userSpaceOnUse"><stop stop-color="#7A3153"/><stop offset=".47" stop-color="#FE5603"/><stop offset="1" stop-color="#FFD3B3"/></linearGradient><linearGradient id="ckcmucfjg" x1="45" y1="20.41" x2="37.61" y2="35.06" gradientUnits="userSpaceOnUse"><stop stop-color="#A61C10"/><stop offset=".54" stop-color="#262D7B"/><stop offset="1" stop-color="#09114A"/></linearGradient></defs></svg>