<!-- by TradeStack --><svg width="56" height="56" viewBox="0 0 56 56" xmlns="http://www.w3.org/2000/svg"><path fill="#F0F3FA" d="M0 0h56v56H0z"/><path d="M48.96 28c0 7.18-9.4 13-20.98 13C16.4 41 7 35.18 7 28c0-5.93 9.4-13 20.98-13 11.59 0 20.98 6.77 20.98 13Z" fill="url(#aha0dopdw)"/><path d="m36.36 38.43-1.2 1.3c2.95-.35 7.72-3.5 9.73-5.04h-2.34l-.35-.78-1.21.24-.6-.48c-.84.08-2.59.24-2.78.24-.4.46-1.46.71-1.93.78l.44.68c-.48.27-1.43.98-1.43 1.63 0 .65 1.12 1.23 1.67 1.43ZM32.58 34.84c.4.94 2.07 1.1 2.22 1.14.35-.66-.19-.68-.72-.68-.43 0-.37-.64-.28-.96h-1.72c.3-.4.84-1.22.6-1.37-.29-.2-1.27.93-2.37.93-.87 0-1.2-.76-1.26-1.14-.39.37-1.09 1.21-.8 1.58.38.46 1.67.2 2.38 0 .24.19 1.46.5 1.95.5ZM40.25 22.29c-2.07.01-4.01-1.67-4.72-2.51l.44-1.28 4.28 1.5-.9.83c.25.3.76 1.01.9 1.46Z" fill="#F0F3FA"/><path d="m28.17 33.43.01-.02 3.31-6.52 1.43.31c-.18-.04-.55-.02-.55.34 0 .37.28.57.42.62l.32-.96.86.58.74-.58-2.12-.43-.97-.54a9.12 9.12 0 0 1 1.3-1.34c.13.02.77.74 1.3.74.54 0 .34-.95.36-.95.02 0-.88-.86-.61-1.66.59-.3 2.08.4 2.75.8-.02-.17-.01-.52.18-.62.55.5 2.01 1.19 2.68 1.48l-.5.61c-.25.03-.77.13-.88.34-.13.26.4 1 .67.78.22-.18.65-.2.84-.18-.35.32-1.08.97-1.25.97-.16 0-.07-.38 0-.57l-2.49 2.19.37.5-1.48 1.19c.24.16.72.56.65.8-.1.3-.32.4-.5.27-.19-.12-.93-.91-1.6-.91-.54 0-.92.22-1.04.34-.06-.06-.43-.13-1.45 0-1.25.15-2.56 2.07-2.74 2.4l-.01.02Z" fill="#F0F3FA"/><path d="M39.95 25.01c.33.09 1 .27 1.06.3.17.42-.11.46-.56.38-.36-.06-.72.16-.85.28v-1.3l.35.34ZM34.1 21.33h2.19c.48.58-1 .52-1.1.58-.07.05.99.47 1.53.68-.05.06-.18.2-.28.2-.23.12-1.93.11-2.75.1l.4-1.56ZM32.31 15.86h-8.73L28 35l4.31-19.14ZM24.4 31l2.56 2.2c-1.51-3.85-4.77-11.63-5.69-11.99-1.15-.43-1.56-1.27-2.47-1.27-.73 0-1.2.68-1.34 1.02-.3-.12-.89-.3-.89 0s.38.46.58.5c-.5.09-1.49.35-1.49.72 0 .46.58.54.58.71 0 .13-.39.34-.58.42l1.06.38c.3-.42.89-1.15.87-.8-.02.44.6.13.8 0 .12.44.93.71 1.32.8.6.72 1.82 2.2 1.82 2.32 0 .12-.17.33-.26.42.09 0 .35.05.69.34.43.35-.56 2-.43 2.32.52.08.81.66.9.94l1.85 1.53v.48l1.38 1.16.28-.15-1.66-1.72.11-.33Z" fill="#F0F3FA"/><path d="m28.28 21.63-2.88.32 3.4.12v-.56c0-.1.28.04.43.12 0 .23.02.67.13.64.13-.04.4-.46.42-.64.02-.14-.44-.4-.67-.5a5.3 5.3 0 0 1-1.11-.46c-.13-.14.4-.18.43-.45.02-.28-1.04-.42-1-.8.02-.3.58.13.85.38H29c.14-.02.3-.37.36-.54-.1-.11-.3-.34-.36-.34-.07 0-2.41-.8-2.52-.8-.12 0-.73.38-.88.8-.12.34.7 1 1.14 1.3L25.25 20l1.99.67c.2.15.65.47.89.6s.2.3.15.36Z" fill="url(#bha0dopdw)"/><path d="M20.07 19 28 35a700.42 700.42 0 0 0-4.06-19.76C20.86 15.5 7 19.3 7 28.28c0 7.18 9.51 11 14.27 12.01-4.02-1.49-12.06-5.7-12.06-10.62 0-6.64 7.27-9.88 10.86-10.66Z" fill="#62B9E4"/><path fill-rule="evenodd" d="M20.07 19 28 35l-.53-2.73a674.06 674.06 0 0 0-3.53-17.03C20.86 15.5 7 19.3 7 28.28c0 4.7 4.07 7.95 8.21 9.93a28.42 28.42 0 0 0 6.06 2.08 33.98 33.98 0 0 1-5.72-2.8c-3.29-2.03-6.34-4.79-6.34-7.82 0-6.64 7.27-9.88 10.86-10.66ZM9.47 33a6.4 6.4 0 0 1-1-3.33c0-3.68 2.02-6.37 4.4-8.18a18.91 18.91 0 0 1 7.05-3.27l.55-.12 5.73 11.6a707.78 707.78 0 0 0-2.82-13.58c-1.8.3-5.4 1.28-8.73 3.1-3.81 2.08-6.9 5.07-6.9 9.06 0 1.76.65 3.33 1.73 4.71Z" fill="#4891BF"/><path d="M35.93 19 28 35a700.42 700.42 0 0 1 4.06-19.76C35.14 15.5 49 19.3 49 28.28c0 7.18-9.51 11-14.27 12.01 4.02-1.49 12.06-5.7 12.06-10.62 0-6.64-7.27-9.88-10.86-10.66Z" fill="#62B9E4"/><path fill-rule="evenodd" d="M35.93 19 28 35l.53-2.73a674.06 674.06 0 0 1 3.53-17.03C35.14 15.5 49 19.3 49 28.28c0 4.7-4.07 7.95-8.21 9.93a28.42 28.42 0 0 1-6.06 2.08 33.98 33.98 0 0 0 5.72-2.8c3.28-2.03 6.34-4.79 6.34-7.82 0-6.64-7.27-9.88-10.86-10.66Zm10.6 14a6.4 6.4 0 0 0 1-3.33c0-3.68-2.02-6.37-4.4-8.18a18.91 18.91 0 0 0-7.05-3.27l-.55-.12-5.73 11.6c1.01-5.1 2.25-11.07 2.82-13.58 1.8.3 5.4 1.28 8.73 3.1 3.81 2.08 6.9 5.07 6.9 9.06 0 1.76-.65 3.33-1.73 4.71Z" fill="#4891BF"/><defs><linearGradient id="aha0dopdw" x1="27.98" y1="15" x2="27.98" y2="41" gradientUnits="userSpaceOnUse"><stop offset=".15" stop-color="#F0F3FA"/><stop offset=".37" stop-color="#2AB3E9"/></linearGradient><linearGradient id="bha0dopdw" x1="27.52" y1="18.13" x2="27.52" y2="22.27" gradientUnits="userSpaceOnUse"><stop stop-color="#FEFEFE"/><stop offset="1" stop-color="#AEDBF0"/></linearGradient></defs></svg>