<!-- by TradeStack --><svg width="56" height="56" viewBox="0 0 56 56" xmlns="http://www.w3.org/2000/svg"><path fill="#F0F3FA" d="M0 0h56v56H0z"/><path d="M52 25v7h-1v-6l-2 1.05v-.93L51 25h1ZM44 32v-.9c.85-.98 1.68-1.95 2.43-3 .26-.36.57-.71.57-1.1 0-.56-.4-1-1-1-.64 0-1 .43-1 1h-1c0-1.15.74-2 1.96-2 1.14 0 1.95.88 1.95 2 0 .52-.14.99-.56 1.6-.56.81-1.24 1.64-1.87 2.4H48v1h-4Z"/><path fill-rule="evenodd" d="M32 32c1.95 0 3-1.7 3-3.5S33.95 25 32 25s-3 1.7-3 3.5 1.05 3.5 3 3.5Zm0-1c1.3 0 2-1.22 2-2.5s-.7-2.5-2-2.5-2 1.22-2 2.5.7 2.5 2 2.5Z"/><path d="M5.2 25 7 30.74 8.82 25H10l-2.28 7H6.28L4 25h1.2ZM11 32v-7h4v1h-3v2h2.5v1H12v2h3v1h-4ZM22 27.4h-1c-.14-.81-1.07-1.4-1.86-1.4-1.32 0-2.14 1.33-2.14 2.5s.8 2.5 2.13 2.5c.78 0 1.72-.57 1.87-1.36l1 .01C21.8 31.1 20.52 32 19.12 32 17.14 32 16 30.36 16 28.5c0-1.85 1.15-3.5 3.12-3.5 1.45 0 2.68.92 2.88 2.4ZM23 26v-1h5v1h-2v6h-1v-6h-2ZM36 32v-7h2.45c1.35 0 2.31.63 2.31 2 0 1.34-.8 2-2.32 2h-1.75v-1h1.71c.74 0 1.28-.22 1.28-1s-.54-1-1.28-1H37v6h-1Zm3.38-3.17L41 32h-1.15l-1.59-3.17h1.12Z"/></svg>