<!-- by TradeStack --><svg width="56" height="56" viewBox="0 0 56 56" xmlns="http://www.w3.org/2000/svg"><path fill="#F0F3FA" d="M0 0h56v56H0z"/><path d="M11 19H6v1h1.65l6.34 17c2.44-5.4 6.47-13.57 8.17-17h1.47v-1H19v1h1.33c-.83 3.39-4.25 10.54-5.85 13.72L9.72 20H11v-1ZM31 19h-6v1h2v16h-2v1h6v-1h-2V20h2v-1ZM31.31 36v1h4.58v-1H34.6c.48-3.09 3.98-10.46 5.67-13.85 2.2 5.3 4.09 11.39 4.76 13.85h-1.77v1H49v-1h-1.83l-6.34-17c-1.9 4.17-6.24 13.01-8.18 17h-1.34Z"/><ellipse cx="40.2" cy="30.48" rx="1.33" ry="1.75" fill="#6CCBA2"/></svg>