<?xml version='1.0' encoding='utf-8'?>
<!-- by TradeStack -->
<svg width="56" height="56" viewBox="0 0 56 56" xmlns="http://www.w3.org/2000/svg"><path fill="#181B1E" d="M0 0h56v56H0z" /><path fill-rule="evenodd" d="M28.36 21.04c0-.46-.31-1.39-1.57-1.39-1.15 0-2.72 2.25-4.65 5.02-.7 1.02-1.46 2.1-2.27 3.17l-1.5 2.04C16 33.14 13.9 36 12.51 36c-.88 0-1.3-.54-1.3-1.36 0-.65 2.03-6.87 3.04-9.89.21-.74.2-2.47-1.5-2.47-1.47 0-2.27 1.52-2.27 2.33 0 .82.3 1.27 1.52 1.1-.14.47-.61 1.29-1.7 1.29-1.08 0-2.3-.9-2.3-2.56C8 22.78 10.2 20 13.13 20A3.67 3.67 0 0 1 17 23.56c0 .95-1.7 5.4-2.5 7.44l8.52-12c.4-.66 1.63-2 3.28-2 2.06 0 3.63 2.28 2.06 4.04Zm1.62 2.68-.17.28H28.5v.2l1 .32-.18.3-1.07-.48-.14.27.94.66-.24.4-.9-.85-.15.27.7 1.18-.18.3-.8-1.34-.25.2.5 2.07-.24.38-.76-2.55-.28.17.36 3.53-1.32 2.22c-.72.86-1.6 1.79-2.52 1.79-.84 0-.54-.92-.29-1.38 1.04-1.23 3.1-3.82 3.1-4.28 0-.58-.32-1.38-1.76-1.38a2.7 2.7 0 0 0-2.46 1.51c1.13-.3 1.05.24.87.55-1.14 1.45-3.43 4.5-3.43 4.98 0 .61.18 1.96 1.66 1.96 1.14 0 2.72-.83 3.36-1.3l-.64 1.1c.04.07.32.2 1.08.2.71 0 1.64-.8 2.09-1.27.3.68 1 1.22 2.38 1.22 3.62 0 6.07-5.34 6.07-7.13s-1.1-2.55-2.11-2.55c-.53 0-.97.16-1.27.33.98-1.68 1.69-3 1.69-3.32 0-1-.37-2.28-1.87-2.28s-2.18 1.04-2.49 1.6c.8-.13 1.2.04 1.37.34l-1.82.75V23l1.9-.42c-.01.13-.05.27-.1.41l-1.8.26v.17h1.63l-.15.3ZM28.59 33c-.8 0-1.13-.15-1.22-.52.8-1.24 1.73-2.73 2.62-4.18l.4-.58c.15-.24.61-.72 1.2-.72.73 0 .73.9.73 1.34 0 .45-1.57 4.66-3.73 4.66Zm19.51-1.23c-.04-.43-.37-1.29-1.31-1.29-.88 0-1.84.8-2.71 1.52-.3.25-.59.49-.85.68-.19.13-.39.3-.6.47-.96.79-2.25 1.85-4.52 1.85-2.76 0-3.11-2.68-3.11-3.39 0-.7 1.62-6.61 6.22-6.61 1.8 0 2.5 1.23 2.5 2.16 0 .94-1.4 2.26-5.6 5.26l.13.15c.19.22.37.43.62.43.31 0 1.13-.32 4.22-2.87 1.76-1.3 2.83-1.8 3.77-1.8.93 0 2.14.7 2.14 1.86 0 .93-.6 1.44-.9 1.58ZM37 31c.1-.9.78-2.79 2.66-3.77.36-.2.84-.35 1.17-.1.1.09.17.21.17.37 0 .26-2.67 2.44-4 3.5Zm-11.5-6a1.5 1.5 0 1 0 0-3 1.5 1.5 0 0 0 0 3Z" fill="url(#a)" /><defs><linearGradient id="a" x1="9.5" y1="25.5" x2="46" y2="25.5" gradientUnits="userSpaceOnUse"><stop stop-color="#FD8000" /><stop offset=".43" stop-color="#FFA50D" /><stop offset="1" stop-color="#FF8000" /></linearGradient></defs></svg>