<!-- by TradeStack --><svg width="56" height="56" viewBox="0 0 56 56" xmlns="http://www.w3.org/2000/svg"><path fill="#F0F3FA" d="M0 0h56v56H0z"/><path d="M18 31h1v6.7l2 1.69V46h-1v-6.21l-2-1.7V31ZM26 22v12.78l-3 3.33V46h-1v-8.27l3-3.32V22h1ZM30 46V15h1v31h-1Z" fill="#313131"/><path d="M37 25v7l-9 9.11V46h-1v-5.27l9-9.11V25h1ZM36 46v-5h1v5h-1Z" fill="#313131"/><path fill-rule="evenodd" d="M30.5 16a3.5 3.5 0 1 0 0-7 3.5 3.5 0 0 0 0 7Zm0-1a2.5 2.5 0 1 0 0-5 2.5 2.5 0 0 0 0 5ZM36.5 26a3.5 3.5 0 1 0 0-7 3.5 3.5 0 0 0 0 7Zm0-1a2.5 2.5 0 1 0 0-5 2.5 2.5 0 0 0 0 5ZM36.5 42a3.5 3.5 0 1 0 0-7 3.5 3.5 0 0 0 0 7Zm0-1a2.5 2.5 0 1 0 0-5 2.5 2.5 0 0 0 0 5ZM25.5 23a3.5 3.5 0 1 0 0-7 3.5 3.5 0 0 0 0 7Zm0-1a2.5 2.5 0 1 0 0-5 2.5 2.5 0 0 0 0 5ZM18.5 32a3.5 3.5 0 1 0 0-7 3.5 3.5 0 0 0 0 7Zm0-1a2.5 2.5 0 1 0 0-5 2.5 2.5 0 0 0 0 5Z" fill="#313131"/></svg>