<!-- by TradeStack --><svg width="56" height="56" viewBox="0 0 56 56" xmlns="http://www.w3.org/2000/svg"><path fill="#F0F3FA" d="M0 0h56v56H0z"/><path d="m15 23-2.14 6.99H11.5L10 24.7l-1.6 5.29-1.34.01L5 23h1.26l1.5 5.7L9.38 23h1.33l1.51 5.66L13.73 23H15ZM19 30l-.03-1.67L19 27c0-.67-.7-1-1.62-1-.57 0-1.24.09-1.71.44l-.5-.84c.66-.45 1.53-.6 2.32-.6 1.34 0 2.51.6 2.51 2.07V30h-1Zm-1.95 0c-.9 0-2.05-.4-2.05-1.46 0-1.2 1.33-1.54 2.29-1.54h1.81v1h-1.72c-.44 0-1.11-.09-1.11.5 0 .4.36.5 1.02.5.64 0 1.46-.17 1.68-.67l.28.78c-.25.57-1.21.89-2.2.89Z"/><path d="M41 25v5h-1v-5h1ZM44.76 25C46 25 47 25.8 47 27.1V30h-1v-2.75c0-.82-.68-1.25-1.5-1.25s-1.5.42-1.5 1.25V30h-1v-5h1v.64c.37-.4 1.12-.64 1.76-.64ZM49 25v5h-1v-5h-1v-.99h1V23h1v1.01h1V25h-1ZM32.95 27A2.5 2.5 0 0 0 29 25.5V25h-1v7h1v-2.5a2.5 2.5 0 0 0 3.95-1.5h-1.04a1.5 1.5 0 1 1 0-1h1.04ZM38.04 25.5c-.42-.31-.95-.5-1.54-.5-1.25 0-2.24.84-2.46 2.01h1.03c.18-.6.7-1.01 1.43-1.01.33 0 .61.08.85.23l.7-.73Zm.65.76-.75.78c.04.14.06.3.06.46 0 .87-.63 1.5-1.54 1.5-.74 0-1.22-.4-1.39-.99h-1.02a2.4 2.4 0 0 0 2.4 1.99A2.48 2.48 0 0 0 39 27.5c0-.46-.11-.88-.3-1.24Z" fill="#00AF86"/><circle cx="30.5" cy="27.5" r=".5"/><circle cx="36.5" cy="27.5" r=".5"/><circle cx="40.5" cy="23.5" r=".5"/><path d="m40.57 23.57-4.03 4.03H30.5v-.2h5.96l3.97-3.97.14.14ZM35 34v-3h1.7c.66 0 1.87.14 1.87 1.03 0 .42-.3.73-.87.9-.27.08-.6.07-1 .07h-1.43l.21-.1V34H35Zm3.11 0-1.17-1.09h.52L38.64 34h-.53Zm-2.63-1.07-.21-.15h1.42c.92 0 1.4-.28 1.4-.75 0-.48-.48-.76-1.4-.76h-1.42l.21-.15v1.8ZM40 32.34h2.34v.27H40v-.27Zm0 1.39h2.72V34H39.5v-3h3.13v.27H40v2.46ZM44 34v-3h.48v3H44ZM47 34v-2.73h-1.6V31H49v.27h-1.52V34H47ZM23.84 32 27 25h-1.26l-1.72 4.15L22.36 25H21l2.32 5.35-.74 1.65h1.26Z"/></svg>