<!-- by TradeStack --><svg width="56" height="56" viewBox="0 0 56 56" xmlns="http://www.w3.org/2000/svg"><path fill="url(#aeygl0sf4)" d="M0 0h56v56H0z"/><path d="M42 32v-1l4.38-5.6H42V24h7v1l-4.29 5.6H49V32h-7ZM26.6 32h-2.07l3.16-8h2.5l3.16 8h-2.07l-2.3-6.17h-.07L26.6 32Zm-.12-3.14h4.9v1.32h-4.9v-1.32ZM24 24v8h-1.53L19 27.56V32h-2v-8h1.55L22 28.53V24h2ZM41 24v8h-1.53L36 27.56V32h-2v-8h1.55L39 28.53V24h2ZM16 24v8h-2v-8h2ZM6.2 24l2.26 6.08h.08L10.81 24H13l-3.22 8H7.23L4 24h2.2Z" fill="#fff"/><path fill="#F1D22B" d="M50 30h2v2h-2z"/><defs><linearGradient id="aeygl0sf4" x1="10.42" y1="9.71" x2="68.15" y2="76.02" gradientUnits="userSpaceOnUse"><stop stop-color="#1A1E21"/><stop offset="1" stop-color="#06060A"/></linearGradient></defs></svg>