<?xml version='1.0' encoding='utf-8'?>
<!-- by TradeStack -->
<svg width="56" height="56" viewBox="0 0 56 56" xmlns="http://www.w3.org/2000/svg"><path fill="#F0F3FA" d="M0 0h56v56H0z" /><path d="M41.5 19 28 40 14.5 19H10l18 28 18-28h-4.5Z" fill="#241E20" /><path d="M17.17 17.18a.64.64 0 0 1 0-.86C19.54 13.7 23.53 12 28 12c4.53 0 8.47 1.76 10.84 4.43.22.25.21.6 0 .85l-1.35 1.6a.38.38 0 0 1-.3.12.4.4 0 0 1-.31-.14C34.96 16.55 31.52 15 28 15c-3.47 0-6.95 1.6-8.89 3.87a.4.4 0 0 1-.3.13.39.39 0 0 1-.3-.13l-1.34-1.69Z" fill="#670D0C" /><path d="M34.83 21.73c.23.25.22.59 0 .84l-1.1 1.3c-.16.18-.48.17-.64 0A7.13 7.13 0 0 0 28 21.65a7.45 7.45 0 0 0-5.12 2.21.44.44 0 0 1-.33.13.4.4 0 0 1-.29-.13l-1.1-1.36c-.21-.25-.22-.6.01-.85C22.7 20.05 25.2 19 28 19a9.27 9.27 0 0 1 6.83 2.73Z" fill="url(#a4bzgah0c)" /><path d="M25.27 26.1c-.42.42-.3 1.12.06 1.6.66.9 1.57 2.18 2.26 3.09a.5.5 0 0 0 .82 0c.68-.9 1.6-2.18 2.26-3.08.36-.5.48-1.19.06-1.62A4.11 4.11 0 0 0 28 25c-.7 0-1.96.32-2.73 1.1Z" fill="url(#b4bzgah0c)" /><defs><linearGradient id="a4bzgah0c" x1="21" y1="22.19" x2="35.09" y2="22.62" gradientUnits="userSpaceOnUse"><stop stop-color="#621319" /><stop offset=".51" stop-color="#E54C44" /><stop offset="1" stop-color="#621015" /></linearGradient><linearGradient id="b4bzgah0c" x1="28" y1="26.25" x2="28" y2="31" gradientUnits="userSpaceOnUse"><stop stop-color="#77282F" /><stop offset=".51" stop-color="#E54C44" /><stop offset="1" stop-color="#6B1B26" /></linearGradient></defs></svg>