<?xml version='1.0' encoding='utf-8'?>
<!-- by TradeStack -->
<svg width="56" height="56" viewBox="0 0 56 56" xmlns="http://www.w3.org/2000/svg"><path fill="#F0F3FA" d="M0 0h56v56H0z" /><path d="m5 24 3.77 8h4.36L17 24h-3.16l-2.6 5.46c-.04.05-.1.1-.17.1h-.17a.18.18 0 0 1-.17-.1L8.11 24H5Zm13 0v8h9v-2h-6v-6h-3Zm10 2.22C28 25 29.14 24 30.55 24h5.9c1.4 0 2.55 1 2.55 2.22V27h-3c0-.55-.48-1-1.05-1h-2.9c-.58 0-1.05.45-1.05 1.01V29c0 .56.47 1.01 1.05 1.01h2.9c.57 0 1.04-.45 1.05-1h3v.78C39 31 37.86 32 36.45 32h-5.9c-1.4 0-2.55-1-2.55-2.22v-3.56ZM40 32v-8h3.03L48 28.67V24h3v8h-3.03L43 27.3V32h-3Z" /></svg>