<!-- by TradeStack --><svg width="56" height="56" viewBox="0 0 56 56" xmlns="http://www.w3.org/2000/svg"><path fill="#F0F3FA" d="M0 0h56v56H0z"/><path d="M22.33 25.49c-.1-8.14 1.49-15.05 2.3-17.49 0 6.18 1.14 14.6 1.71 18.04-2.53 1.53-3.73.27-4.01-.55Z" fill="url(#aohkbmezv)"/><path d="M23.97 26.75c.02-7.83.42-15.52.64-18.7l.02-.05c0 6.18 1.14 14.6 1.71 18.04-.98.59-1.76.76-2.37.7Z" fill="url(#bohkbmezv)"/><path d="M20.53 28.5c-1.57.55-5.71-8.42-7.58-12.97 1.36 1.92 6.09 7.3 8.28 9.74.7.47.86 2.7-.7 3.23Z" fill="url(#cohkbmezv)"/><path d="M21.31 27.95c.69-.87.47-2.3-.08-2.68-2.2-2.45-6.92-7.82-8.28-9.74l.58 1.4c1.76 3.07 4.84 7.96 7.78 11.02Z" fill="url(#dohkbmezv)"/><path d="M20.36 31.95c.16 1.83-6.18-1.68-9.36-3.67 2.05.55 6.78.4 7.74.6.95.2 1.43.8 1.62 3.07Z" fill="url(#eohkbmezv)"/><path d="m19.93 33.93-3.2 5.69c1.65-.71 5.17-2.3 6.06-2.97 1.1-.83 0-1.81-1.1-2.72-.9-.73-1.54-.3-1.76 0Z" fill="url(#fohkbmezv)"/><path d="M24.77 36.16c-1.63-.04 1.83 6.54 3.77 9.84-.37-1.3-.7-6.95-.84-7.96-.14-1.01-.88-1.83-2.93-1.88Z" fill="url(#gohkbmezv)"/><path d="M28.26 36.01c-1.38 1.43 7.92 5.68 12.73 7.63-3.2-2.13-7.37-5.97-9.06-7.63-.51-.48-1.95-1.78-3.67 0Z" fill="url(#hohkbmezv)"/><path d="M47.92 31.58H48c-4.68 1.76-14.46 2.92-15.88 2.88-1.43-.05-2.1-1.26-2.2-2.37-.08-1.1 1.21-2.07 3.76-1.43 2.34.59 10.37.81 14.24.92Z" fill="#3E557E"/><path d="M48 31.58h-.08c-3.87-.1-11.9-.33-14.24-.92-2.55-.64-3.84.32-3.75 1.43.02.25.07.5.15.75 3.04-.07 12.33-.74 17.64-1.15l.28-.1Z" fill="url(#iohkbmezv)"/><path d="m27.32 25.86 14.46-11.43c-3.2 4.53-9.81 13.82-10.63 14.74-1.02 1.15-3.02.26-3.83-1.15-.64-1.13-.26-1.91 0-2.16Z" fill="#A6B2CC"/><path d="m41.2 15.26.58-.83-14.46 11.43c-.26.25-.64 1.03 0 2.16.2.33.44.63.73.88L41.2 15.26Z" fill="url(#johkbmezv)"/><defs><linearGradient id="aohkbmezv" x1="24.33" y1="8" x2="24.33" y2="26.76" gradientUnits="userSpaceOnUse"><stop stop-color="#354F74"/><stop offset="1" stop-color="#4E648B"/></linearGradient><linearGradient id="bohkbmezv" x1="25.16" y1="8" x2="25.16" y2="26.76" gradientUnits="userSpaceOnUse"><stop stop-color="#001245"/><stop offset="1" stop-color="#C9CFDF"/></linearGradient><linearGradient id="cohkbmezv" x1="12.95" y1="16.17" x2="19.96" y2="28.3" gradientUnits="userSpaceOnUse"><stop offset=".04" stop-color="#0C2253"/><stop offset="1" stop-color="#A3ADD0"/></linearGradient><linearGradient id="dohkbmezv" x1="13.46" y1="16.1" x2="21.67" y2="26.98" gradientUnits="userSpaceOnUse"><stop stop-color="#798AA8"/><stop offset="1" stop-color="#2E437E"/></linearGradient><linearGradient id="eohkbmezv" x1="13.1" y1="28.73" x2="19.97" y2="31.76" gradientUnits="userSpaceOnUse"><stop stop-color="#939FB9"/><stop offset="1" stop-color="#355484"/></linearGradient><linearGradient id="fohkbmezv" x1="19.06" y1="35.08" x2="20.7" y2="37.85" gradientUnits="userSpaceOnUse"><stop stop-color="#AAB1CE"/><stop offset="1" stop-color="#5F7398"/></linearGradient><linearGradient id="gohkbmezv" x1="25.47" y1="38.18" x2="28.09" y2="44.19" gradientUnits="userSpaceOnUse"><stop stop-color="#174171"/><stop offset="1" stop-color="#9FA6C3"/></linearGradient><linearGradient id="hohkbmezv" x1="32.39" y1="36.54" x2="30.72" y2="39.58" gradientUnits="userSpaceOnUse"><stop stop-color="#3B5681"/><stop offset="1" stop-color="#9BA4C1"/></linearGradient><linearGradient id="iohkbmezv" x1="46.57" y1="31.35" x2="29.92" y2="31.62" gradientUnits="userSpaceOnUse"><stop stop-color="#3C5086"/><stop offset="1" stop-color="#A3BBDA"/></linearGradient><linearGradient id="johkbmezv" x1="30.94" y1="22.72" x2="32.35" y2="24.13" gradientUnits="userSpaceOnUse"><stop stop-color="#B7C2D4"/><stop offset="1" stop-color="#6D7D9F"/></linearGradient></defs></svg>