<?xml version='1.0' encoding='utf-8'?>
<!-- by TradeStack -->
<svg width="56" height="56" viewBox="0 0 56 56" xmlns="http://www.w3.org/2000/svg"><path fill="#F0F3FA" d="M0 0h56v56H0z" /><path d="M20.98 13.84c-.8.6-1.29 1.4-1.45 2.4-.09.58-.02 1.13.2 1.66a6.11 6.11 0 0 0 1.88 2.6c.72.7 1.52 1.28 2.4 1.76a30.29 30.29 0 0 0 5.6 2.78 41.6 41.6 0 0 0 4.46 1.66c1.36.5 2.72.94 4.08 1.32l5.37 1.6a.39.39 0 0 1 .28.4c-.1 1.46-.54 2.92-1.07 4.28-.02.05-.05.05-.1.02-.2-.16-.36-.26-.5-.3-2.89-.92-5.79-1.8-8.7-2.62A83.47 83.47 0 0 1 27 28.89l-3.43-1.7a33.96 33.96 0 0 1-4.17-2.78l-1.82-1.77-.24-.37c-.48-.74-.9-1.37-1-2.4l.14-1.65c.2-.76.5-1.47.93-2.14 1.32-1.52 3.06-2.37 4.9-3.08a.14.14 0 0 1 .1 0c.03 0 .03.02 0 .03-.54.17-1.01.44-1.44.8Zm1.26 2.96c.99.95 2.1 1.7 3.35 2.27 1.17.65 2.39 1.11 3.63 1.4.1.09.24.16.43.21 2.72.78 5.28 1.32 7.67 1.6 1.63.27 3.94.62 5.75.3.05 0 .08.02.1.07.4 1.42.67 2.86.83 4.33 0 .05-.01.06-.05.03a7.21 7.21 0 0 0-2.88-1.12 87.77 87.77 0 0 1-7.53-2.03 51.7 51.7 0 0 1-6.57-2.74l-2.64-1.7a10.87 10.87 0 0 1-2.36-2.55l-.25-.62c-.02-.06-.01-.06.03-.01l.5.56Zm-7.4 2.82.38-1.31a10.96 10.96 0 0 0-2.36 5.24 8.68 8.68 0 0 0 .49 3.06c.27.67.61 1.3 1.02 1.89.87 1 1.81 1.93 2.83 2.78l2.17 1.53 4.18 2.36 2.79 1.22 3.86 1.36c2.6.72 5.2 1.37 7.84 1.95.1.03.27.1.48.24.04.03.08.03.12-.01.93-.92 1.8-1.9 2.61-2.95a.32.32 0 0 0-.17-.51l-4.07-1.11a33.5 33.5 0 0 1-3.77-1.2 31.2 31.2 0 0 1-4.1-1.4 34.48 34.48 0 0 1-5.37-2.45c-1-.49-1.97-1.04-2.91-1.66a19.3 19.3 0 0 1-3.66-2.82 9.03 9.03 0 0 1-1.5-1.85c-.62-.9-.94-1.9-.97-2.98-.04-.47 0-.93.11-1.38Zm-2.71 7c.01.63.15 1.23.42 1.8.17.64.45 1.22.84 1.76a11.53 11.53 0 0 0 2.35 2.71c.66.6 1.37 1.12 2.13 1.58 1.16.8 2.36 1.52 3.62 2.15.83.45 1.68.84 2.56 1.19.9.4 1.8.74 2.7.98.45.2 1 .39 1.64.58 2.66.78 5.32 1.49 7.98 2.12.14.03.15.08.02.14l-3.24 1.6a.22.22 0 0 1-.15.02 63.57 63.57 0 0 1-9.46-2.67l-1.42-.57L20 39l-3.06-1.8-1.85-1.45a11.5 11.5 0 0 1-1.89-2.36 11.4 11.4 0 0 1-1.06-6.79Zm4.83 11.89c-.65-.46-1.24-.99-1.77-1.57l-1.07-1.1c3.65 5.92 9.48 9 16.5 7.96.09-.01.09-.02 0-.04-2.6-.41-5.11-1.09-7.56-2.03l-.9-.36c-.76-.27-1.48-.6-2.17-1.02-1.08-.5-2.1-1.1-3.03-1.84Z" fill="url(#aolbdou1r)" /><path d="M20.98 13.84c-.8.6-1.29 1.4-1.45 2.4a38.35 38.35 0 0 1 12.34-3.33.03.03 0 0 0-.01-.04c-.8-.66-1.61-.96-2.7-.84-2.23.24-4.53.63-6.67 1.33l-1.5.48Zm1.26 2.96c.99.95 2.1 1.7 3.35 2.27a64.55 64.55 0 0 1 9.46-2.4v-.03a13.53 13.53 0 0 0-1.83-2.53.15.15 0 0 0-.13-.05 51.49 51.49 0 0 0-9.55 2.17 7.1 7.1 0 0 0-1.3.57Zm-4.82-.72a7.65 7.65 0 0 0-.93 2.14h-.04l-.06.01-1.55 1.4.38-1.32c.64-.84 1.37-1.59 2.2-2.23Zm6.9 3.34a10.87 10.87 0 0 1-2.35-2.55c-.79.27-1.54.61-2.25 1.03a6.12 6.12 0 0 0 1.9 2.6c.92-.3 1.83-.65 2.7-1.08Zm13 2.87c-2.39-.3-4.95-.83-7.67-1.6a1.01 1.01 0 0 1-.43-.22 52.7 52.7 0 0 1 6.84-1.67c.05 0 .09.01.11.06.52 1.1.9 2.25 1.16 3.43Zm-19.97-.02c-.48-.74-.9-1.37-1-2.4-.6.28-1.14.66-1.62 1.13.03 1.09.35 2.08.97 2.98.6-.5 1.23-.94 1.9-1.34l-.25-.37Zm9.62-1.15a51.7 51.7 0 0 0 6.57 2.74l-3.93 1.18a30.29 30.29 0 0 1-5.6-2.78c.97-.43 1.96-.82 2.96-1.14Zm-13.62 5.5c-.35-1-.5-2.02-.49-3.07-.5.98-.7 1.96-.73 3.06.01.64.15 1.24.42 1.8l.8-1.8Zm6.06-2.2a33.98 33.98 0 0 0 4.17 2.77c-.36.22-.74.4-1.12.58-.55.27-1.1.54-1.6.88a19.3 19.3 0 0 1-3.66-2.82l2.21-1.42Zm14.66 2.28c1.36.5 2.72.94 4.08 1.32l-.17-2.16a.07.07 0 0 0-.02-.05.07.07 0 0 0-.06-.01c-1.3.2-2.58.5-3.83.9Zm-19.7 1.8c.87 1 1.81 1.93 2.83 2.78-.27.24-.5.52-.72.8-.24.29-.47.57-.74.81-.93-.78-1.71-1.68-2.35-2.7l.98-1.7Zm19.06 2.9A83.5 83.5 0 0 1 27 28.89c-1.14.32-2.22.8-3.24 1.42a34.5 34.5 0 0 0 5.36 2.46l4.3-1.37ZM19.37 32.8l4.18 2.36-2 1.3a.1.1 0 0 0-.05.09v.06a29.88 29.88 0 0 1-3.63-2.15 4.9 4.9 0 0 1 1.5-1.61v-.05Zm13.88 1.36c1.24.47 2.5.87 3.76 1.19l.56-2.03c.05-.16-.02-.23-.18-.2-1.44.2-2.83.55-4.14 1.04Zm-20.06-.77a11.5 11.5 0 0 0 1.9 2.36c-.05.3-.01.6.11.89.02.04.03.1.02.14l-.03.15-1.07-1.1a4.68 4.68 0 0 1-.93-2.44Zm17 4.35-3.85-1.36c-.82.38-1.58.86-2.29 1.42.9.4 1.8.74 2.7.98a33.5 33.5 0 0 1 3.45-1.04Zm-13.26-.54 3.06 1.8v1.34c-1.08-.5-2.1-1.1-3.03-1.84l.02-.04a.08.08 0 0 0 0-.07 2.22 2.22 0 0 1-.21-1c0-.04.02-.08.06-.11l.1-.08Zm6.61 3.37-1.42-.57c-.17.46-.16.9.04 1.36l.9.36c.1-.41.26-.8.48-1.15Z" fill="#B3B4B4" /><defs><linearGradient id="aolbdou1r" x1="41.44" y1="31.5" x2="16.63" y2="32.36" gradientUnits="userSpaceOnUse"><stop stop-color="#501313" /><stop offset="1" stop-color="#9E1C20" /></linearGradient></defs></svg>