<!-- by TradeStack --><svg viewBox="0 0 56 56" xmlns="http://www.w3.org/2000/svg"><path fill="#F0F3FA" d="M0 0h56v56H0z"/><path d="M4 24h1.62l1.88 4.82L9.38 24H11l-2.81 7H6.8L4 24ZM11.5 26H13v5h-1.5zM15.5 26H14v5h1.5v-2.6c.1-1.05 1.18-1.19 1.7-1.13V26c-.9 0-1.45.32-1.7.58V26Z" fill="#E20817"/><ellipse cx="12.25" cy="24.87" rx=".97" ry=".87" fill="#E20817"/><path fill-rule="evenodd" d="M20.25 31c1.52 0 2.75-1.12 2.75-2.5S21.77 26 20.25 26s-2.75 1.12-2.75 2.5 1.23 2.5 2.75 2.5Zm0-1.16c.73 0 1.32-.6 1.32-1.34 0-.74-.6-1.34-1.32-1.34-.73 0-1.32.6-1.32 1.34 0 .74.6 1.34 1.32 1.34Z" fill="#E20817"/><path d="M52 24h-1.5v2.5a2.5 2.5 0 1 0 0 4v.5H52v-7Zm-1.6 4.5c0 .74-.56 1.34-1.26 1.34s-1.26-.6-1.26-1.34c0-.74.56-1.34 1.26-1.34s1.26.6 1.26 1.34ZM32 31v-7h1.43L36 28.27 38.57 24H40v7h-1.5v-4.18L36.36 30h-.72l-2.14-3.18V31H32ZM43.25 31c.85 0 1.62-.35 2.12-.91l-1.03-.83a1.3 1.3 0 0 1-2.35-.38h3.98c.02-.13.03-.25.03-.38 0-1.38-1.23-2.5-2.75-2.5s-2.75 1.12-2.75 2.5 1.23 2.5 2.75 2.5Zm1.24-2.95H42c.18-.52.67-.89 1.24-.89s1.06.37 1.24.89Z" fill="#58B581"/><path fill-rule="evenodd" d="M31 27.5a3.5 3.5 0 1 1-7 0 3.5 3.5 0 0 1 7 0Zm-.42 0a3.08 3.08 0 1 1-6.16 0 3.08 3.08 0 0 1 6.16 0Zm-5.76-.17v.46h1.39l.39-1.25.66 2.7h.24l.58-1.91.26 1.13h.27l.3-.67h1.22v-.46h-1.31l-.26.46-.33-1.25h-.4l-.45 1.57-.57-2.62h-.27l-.55 1.84h-1.17Z" fill="#58B581"/></svg>