<?xml version='1.0' encoding='utf-8'?>
<!-- by TradeStack -->
<svg width="56" height="56" viewBox="0 0 56 56" xmlns="http://www.w3.org/2000/svg"><path fill="#F0F3FA" d="M0 0h56v56H0z" /><path fill-rule="evenodd" d="M27.8 14c9.61-.1 16.68 6.81 20.2 14-4.27 6.93-10.59 14.1-20.2 14-9.42-.1-15.94-7.07-19.8-14 4.15-6.83 10.38-13.9 19.8-14Zm.02 1c9.12-.1 15.83 6.33 19.18 13-4.06 6.44-10.06 13.1-19.18 13-8.96-.1-15.15-6.56-18.82-13 3.95-6.34 9.86-12.9 18.82-13Zm-.95 22.94a9.96 9.96 0 0 1-1.28-.23l-.4 2.04c.43.08.86.14 1.3.18l.38-2Zm-1.36-.25-.68 1.99c-.43-.09-.85-.2-1.26-.32l.42-1.23-.6 1.18c-.42-.13-.83-.28-1.23-.44l1.06-2.09c.71.4 1.48.7 2.3.9Zm-2.46-1-1.4 1.97c-.4-.18-.79-.37-1.17-.58l1.49-2.1c.34.26.7.5 1.08.7Zm-1.27-.86-1.86 1.94c-.37-.22-.74-.46-1.1-.7l2-2.1c.3.3.63.6.96.86Zm-1.02-.93-2.36 1.87c-.36-.26-.7-.53-1.04-.8l2.58-2.05c.25.34.53.67.82.98Zm-1.07-1.33-3.05 1.76c-.33-.3-.65-.6-.96-.92l3.37-1.94c.2.38.4.75.64 1.1Zm-.72-1.27-3.84 1.53-.89-1.02 4.08-1.62-4.48 1.11a29.1 29.1 0 0 1-.83-1.1l5.17-1.29c.17.84.43 1.64.8 2.4Zm-.83-2.6-5.75.6c-.27-.4-.52-.8-.76-1.2l6.38-.66c.02.43.06.85.13 1.26Zm-.13-1.33-6.92-.21L11 28a47 47 0 0 1 .68-1.1l6.36.2a10.12 10.12 0 0 0-.03 1.27Zm.04-1.4-5.76-1 .81-1.14 5.16.88c-.1.41-.16.83-.2 1.26Zm.24-1.37-4.65-1.48c.27-.36.56-.71.86-1.06l4.17 1.33c-.15.39-.28.8-.38 1.21Zm.45-1.38-3.7-1.79c.3-.33.6-.66.92-.97l3.34 1.61c-.21.37-.4.76-.56 1.15Zm.63-1.27-2.93-1.97c.32-.3.65-.6.98-.88l2.66 1.79a10 10 0 0 0-.71 1.06Zm.84-1.22-2.26-2.06c.34-.28.7-.54 1.05-.78l2.08 1.89c-.3.3-.6.61-.87.95Zm.95-1.03-1.74-2.1c.37-.23.74-.46 1.12-.67l1.62 1.95c-.35.25-.68.53-1 .82Zm1.15-.92-1.28-2.1c.39-.2.78-.38 1.19-.55l1.2 1.98a10 10 0 0 0-1.11.67Zm1.23-.73-.9-2.09c.41-.15.82-.28 1.25-.4l.85 1.98c-.41.15-.81.31-1.2.5Zm1.37-.56-.54-2.06c.42-.1.84-.18 1.28-.25l.52 1.99c-.43.08-.85.18-1.26.32Zm1.47-.36-.22-2.02c.43-.05.86-.09 1.3-.1l.22 2c-.44 0-.87.05-1.3.12Zm1.44-.13.08-2c.44 0 .87.01 1.3.04l-.07 2.02a10.11 10.11 0 0 0-1.3-.06Zm1.54.1.39-2c.43.04.86.1 1.29.18l-.4 2.07c-.42-.11-.84-.2-1.28-.26Zm1.36.27.69-2.01c.43.09.85.2 1.26.32l-.72 2.13c-.4-.17-.8-.32-1.23-.44Zm1.53.57 1.04-2.06c.41.14.82.3 1.21.47l-1.12 2.22a9.97 9.97 0 0 0-1.13-.63Zm1.26.71 1.47-2.08c.4.19.78.39 1.16.6l-1.6 2.26c-.33-.28-.67-.54-1.03-.78Zm1.16.9 1.98-2.07c.37.23.74.47 1.1.72l-2.18 2.26c-.28-.32-.58-.63-.9-.91Zm.92.94 2.53-2.01c.35.26.7.54 1.03.82l-2.63 2.08 3.02-1.74c.33.3.65.61.96.93l-3.52 2.03c-.37-.77-.84-1.47-1.4-2.11Zm1.47 2.27 4.01-1.59c.3.34.6.68.88 1.03l-4.42 1.75c-.13-.4-.29-.8-.47-1.19Zm.51 1.34 4.91-1.22c.28.37.54.74.8 1.11l-5.42 1.35a9.92 9.92 0 0 0-.29-1.24Zm.3 1.3 5.91-.61c.25.4.48.8.7 1.2l-6.49.67c-.01-.43-.05-.85-.12-1.27Zm.13 1.33 6.97.21.03.06-.75 1.2-6.3-.2a10.11 10.11 0 0 0 .05-1.27Zm-.06 1.37 5.71.98c-.26.39-.53.77-.81 1.15l-5.12-.88c.1-.4.17-.82.22-1.25Zm-.24 1.33 4.63 1.47c-.28.36-.57.72-.87 1.06l-4.15-1.31c.16-.4.29-.8.4-1.22Zm-.44 1.35 3.68 1.78-.91.98-3.33-1.61c.21-.37.4-.76.56-1.15Zm-.6 1.24 2.91 1.96c-.32.3-.64.6-.98.89l-2.65-1.79c.26-.33.5-.69.71-1.06Zm-.83 1.2 2.26 2.06c-.34.28-.68.54-1.04.79l-2.08-1.9c.3-.3.6-.61.86-.95Zm-.92 1.01 1.75 2.1c-.37.24-.74.47-1.12.68l-1.62-1.95c.35-.26.68-.53.99-.83Zm-1.11.92 1.29 2.11c-.39.2-.78.39-1.18.56l-1.21-1.99c.38-.2.75-.43 1.1-.68Zm-1.2.73.9 2.1c-.4.16-.81.3-1.23.42l-.86-2c.41-.15.8-.32 1.2-.52Zm-1.34.58.55 2.06c-.42.11-.84.2-1.27.27l-.53-2c.43-.08.85-.2 1.25-.33Zm-1.44.37.22 2.04c-.42.05-.85.1-1.3.11l-.21-2c.44-.02.87-.07 1.3-.15ZM28.4 38l-.07 2a16.21 16.21 0 0 1-1.3-.02l.07-2.01a10.14 10.14 0 0 0 1.3.03ZM28 36a8 8 0 1 0 0-16 8 8 0 0 0 0 16Zm0-1.38a6.62 6.62 0 0 0 6.62-6.67 4 4 0 0 1-4.03-6.05A6.62 6.62 0 1 0 28 34.62ZM28 31a2 2 0 1 0 0-4 2 2 0 0 0 0 4Zm-2 0a1 1 0 1 1-2 0 1 1 0 0 1 2 0Z" fill="#020202" /></svg>