<?xml version='1.0' encoding='utf-8'?>
<!-- by TradeStack -->
<svg width="56" height="56" viewBox="0 0 56 56" xmlns="http://www.w3.org/2000/svg"><path fill="#F0F3FA" d="M0 0h56v56H0z" /><path d="m20 21 1 3.5 1-3.5h1l-1.52 5h-.96L19 21h1ZM20 28v5h-1v-5h1ZM35 28v5h-1v-5h1ZM41 28v5h-1v-5h1ZM25 21h1.06l1.44 3.62L28.94 21H30v5h-1v-3l-1.19 2.99h-.62l-1.19-3V26h-1v-5ZM31.45 21.76V21h4.1v.76H34V26h-1v-4.24h-1.55ZM29.45 28.76V28h4.1v.76H32V33h-1v-4.24h-1.55ZM12.02 29.4a.64.64 0 0 0-.3-.48c-.17-.12-.4-.17-.68-.17-.2 0-.37.02-.5.08a.75.75 0 0 0-.33.22c-.08.1-.11.2-.12.33 0 .1.03.19.08.26.05.08.12.14.2.2.1.04.19.09.3.12l.31.09.49.11c.2.04.38.1.57.18.55.21.96.6.96 1.22 0 1.06-1.09 1.44-1.98 1.44-.4 0-.75-.06-1.05-.18-.3-.11-.53-.28-.7-.5-.17-.23-.26-.5-.27-.83h.93a.7.7 0 0 0 .17.42c.1.12.22.2.38.25.16.06.34.09.54.09.42 0 1-.17 1-.7 0-.45-.55-.59-.9-.67l-.6-.14c-.42-.1-.76-.26-1.01-.47a1.04 1.04 0 0 1-.37-.84c0-.28.08-.53.25-.75.16-.21.4-.38.68-.5.29-.12.62-.18.98-.18.37 0 .7.06.97.18.28.12.5.28.66.5.16.2.24.45.25.72h-.91ZM18 29.7h-1c-.09-.54-.35-.9-.9-.9-.93 0-1.1.92-1.1 1.7 0 .79.17 1.7 1.09 1.7.54 0 .82-.34.91-.88h1A1.91 1.91 0 0 1 16.08 33C14.7 33 14 31.75 14 30.5s.7-2.5 2.08-2.5c1.01 0 1.8.7 1.92 1.7ZM46 29.7h-1c-.09-.54-.35-.9-.9-.9-.93 0-1.1.92-1.1 1.7 0 .79.17 1.7 1.09 1.7.54 0 .82-.34.91-.88h1A1.91 1.91 0 0 1 44.08 33C42.7 33 42 31.75 42 30.5s.7-2.5 2.08-2.5c1.01 0 1.8.7 1.92 1.7ZM21 33v-5h3v.76h-2v1.36h1.5v.76H22v1.36h2V33h-3ZM36 33v-5h3v.76h-2v1.36h1.5v.76H37V33h-1ZM29 28v5h-.78L26 29.8V33h-1v-5h.79L28 31.3V28h1Z" /></svg>