<?xml version='1.0' encoding='utf-8'?>
<!-- by TradeStack -->
<svg width="56" height="56" viewBox="0 0 56 56" xmlns="http://www.w3.org/2000/svg"><path fill="#1C3444" d="M0 0h56v56H0z" /><path fill-rule="evenodd" d="M44.5 28a16.5 16.5 0 1 1-33 0 16.5 16.5 0 0 1 33 0Zm.5 0a17 17 0 1 1-34 0 17 17 0 0 1 34 0Zm-13.27-6H29v-2h-2v2h-2.6s-2.4-.26-2.4 2.04v7.05c0 2.18 1.8 3.91 4.07 3.91 0 0-2.07-.58-2.07-4.55V24h8v6.45c0 4.04-2.07 4.55-2.07 4.55A3.96 3.96 0 0 0 34 31.09v-7.05c.07-2.18-2.27-2.04-2.27-2.04ZM28 26l-2 2 2 2 2-2-2-2Z" fill="#F6F9F9" /></svg>