<?xml version='1.0' encoding='utf-8'?>
<!-- by TradeStack -->
<svg width="56" height="56" viewBox="0 0 56 56" xmlns="http://www.w3.org/2000/svg"><path fill="url(#alaydxq33)" d="M0 0h56v56H0z" /><path d="M11 21.45c0-3.01 2.42-5.45 5.42-5.45C19.4 16 22 18.44 22 21.45V32.4c.06.99.2 2.43.9 3.74 5.76-5.7 11.42-12.63 17.1-18.42A5.61 5.61 0 0 1 44 16c3.06.01 4.99 2.7 5 5.44 0 1.38-.5 2.77-1.55 3.82l-8.6 9.66C36.12 37.78 32.6 41 28.04 41c-2.44 0-4.47-.75-5.68-2.13a8.1 8.1 0 0 1-5.5 2.13C13 41 11 37.2 11 33.7V21.45Zm10.38 15.93A9.32 9.32 0 0 1 20 32.54H20v-11.1c0-2.1-1.76-3.44-3.58-3.44A3.34 3.34 0 0 0 13 21.45V33.7c0 1.8 1.25 5.3 3.88 5.3 1.93 0 3.22-.53 4.5-1.62Zm2.9.22c.96 1.1 1.85 1.4 3.77 1.4 3.73 0 6.52-2.28 9.2-5.08l8.56-9.65a4.3 4.3 0 0 0 1.19-3A3.35 3.35 0 0 0 43.86 18a3.53 3.53 0 0 0-2.55 1.16C35.6 25 30.1 31.9 24.28 37.6Z" fill="#FFFDFF" /><defs><linearGradient id="alaydxq33" x1="28" y1="0" x2="28" y2="56" gradientUnits="userSpaceOnUse"><stop stop-color="#3BA28A" /><stop offset="1" stop-color="#485A5A" /></linearGradient></defs></svg>