<?xml version='1.0' encoding='utf-8'?>
<!-- by TradeStack -->
<svg width="56" height="56" viewBox="0 0 56 56" xmlns="http://www.w3.org/2000/svg"><path fill="#F0F3FA" d="M0 0h56v56H0z" /><path fill-rule="evenodd" d="M6.9 32 4 24h1.42l2.07 5.88L9.58 24H11l-2.9 8H6.9Zm18.13 0 3.05-8h1.18l3.12 8h-1.4l-.8-2h-2.44l.98-1.3h.95l-1.01-2.58L26.43 32h-1.4ZM12 32v-8h4.7v1.23h-3.34v5.5h3.33V32H12Zm4.47-3.6h-2.73l.65-1.2h2.08v1.2ZM18 24v8h1.3v-5.7l3.74 5.7h1.3v-8H23v5.73L19.31 24H18Zm13.59 1.3V24h3.71v8H34v-6.7h-2.41Zm6.08 0h-2l.69-1.3h1.3v1.3Zm3.98 6.7c2.64 0 3.65-1.8 3.65-4s-1.05-4-3.65-4c-2.6 0-3.65 1.8-3.65 4s1.01 4 3.65 4Zm0-1.2c1.7 0 2.35-1.25 2.35-2.8 0-1.55-.68-2.8-2.35-2.8S39.3 26.45 39.3 28c0 1.55.65 2.8 2.35 2.8Zm7.42-6.8H46v8h1.31v-6.7h1.56c.6 0 1.13.5 1.13 1.16 0 .67-.53 1.22-1.13 1.22h-.52L47.7 29h.86l1.8 3H52l-1.99-3.24a2.55 2.55 0 0 0 1.3-2.27c0-1.37-1-2.49-2.24-2.49Z" fill="url(#a)" /><defs><linearGradient id="a" x1="4" y1="28" x2="52.12" y2="28" gradientUnits="userSpaceOnUse"><stop stop-color="#091A6A" /><stop offset="1" stop-color="#A7072A" /></linearGradient></defs></svg>