<!-- by TradeStack --><svg width="56" height="56" viewBox="0 0 56 56" fill="none" xmlns="http://www.w3.org/2000/svg">
<rect width="56" height="56" fill="url(#paint0_linear_229_4283)"/>
<path d="M6.95498 31.7627C6.52137 30.0496 6.13766 29.2383 6 29.0467C7.63121 27.6887 8.69288 29.6126 9.01981 30.7442L10.2587 34.9227L15.2917 25.1556C15.4036 24.8422 15.8957 24.3512 16.9694 24.8944C18.0431 25.4376 17.7781 26.4091 17.5114 26.8269L14.9046 31.4232C12.5507 35.1838 11.6008 37.5342 11.4202 38.2393C11.6886 38.9079 11.0502 39.0228 10.6975 38.9966L8.81333 38.4221C8.45872 37.7045 7.53239 34.0443 6.98571 31.8841L6.95498 31.7627Z" fill="white"/>
<path d="M19.8601 25.939C18.4354 27.8193 15.3433 33.5299 13.9754 36.1501C14.3677 36.6724 15.6186 36.9945 16.1951 37.0902C16.9178 35.5651 18.9396 32.1022 19.8601 30.5614C19.8601 32.5044 20.2387 34.4352 20.428 35.1577C20.7635 35.3666 21.6101 35.8367 22.3121 36.0456C23.0142 36.2545 22.8972 35.6452 22.7509 35.3144L29.2293 22.6746C29.7042 20.0631 28.1883 19.8281 27.3709 20.037C27.0612 22.0009 23.7661 28.1849 22.1573 31.0315L22.3121 26.9836C21.734 26.0017 20.4366 25.8781 19.8601 25.939Z" fill="white"/>
<path d="M27.3709 30.8487C27.3709 29.6996 29.2465 25.5821 30.1843 23.667L31.5264 24.5027C32.2904 24.9832 31.8447 26.0609 31.5264 26.5397C29.9158 29.8198 29.7541 31.2143 29.8745 31.5016C33.5293 29.3915 35.9228 24.4243 36.6627 22.2046C37.7983 22.0165 38.5468 22.7182 38.7791 23.0925C38.2199 24.6159 36.5852 28.2528 34.5204 30.6137C32.4556 32.9745 30.5628 34.087 29.8745 34.3481L27.7323 32.7812C27.3709 32.3895 27.3709 32.285 27.3709 30.8487Z" fill="white"/>
<path d="M37.2563 30.8748L41.928 19.2274L48.1999 18C48.6954 18.3552 48.9398 19.5408 49 20.0892C48.2567 20.5697 45.094 21.2122 43.6056 21.4733L42.5216 23.7976L45.6705 23.0925C46.1247 23.4059 46.3932 24.6507 46.4706 25.2339L41.3085 26.5397C40.813 27.3545 40.4826 28.4809 40.3793 28.9423L46.4706 27.4276C47.2965 28.4513 47.1589 29.3166 46.9868 29.6213L39.5276 31.3188C38.1855 31.6739 37.4542 31.1708 37.2563 30.8748Z" fill="white"/>
<defs>
<linearGradient id="paint0_linear_229_4283" x1="10.4178" y1="9.71163" x2="68.1465" y2="76.0166" gradientUnits="userSpaceOnUse">
<stop stop-color="#1A1E21"/>
<stop offset="1" stop-color="#06060A"/>
</linearGradient>
</defs>
</svg>
