<?xml version='1.0' encoding='utf-8'?>
<!-- by TradeStack -->
<svg width="56" height="56" viewBox="0 0 56 56" xmlns="http://www.w3.org/2000/svg"><path fill="#F0F3FA" d="M0 0h56v56H0z" /><path d="M40.12 39c-.65 0-1.2-.13-1.67-.4a2.7 2.7 0 0 1-1.07-1.13 3.77 3.77 0 0 1-.38-1.74c0-.65.13-1.22.38-1.72a2.8 2.8 0 0 1 2.67-1.56c.41 0 .8.07 1.15.2a2.56 2.56 0 0 1 1.58 1.6c.14.41.22.88.22 1.42v.48h-5.3V35h3.66c0-.25-.05-.41-.16-.61s-.26-.35-.46-.46c-.19-.11-.41-.17-.66-.17a1.33 1.33 0 0 0-1.36 1.36v1.04c0 .31.06.58.17.81.12.23.29.4.5.53.21.12.46.19.76.19.19 0 .37-.03.53-.09.16-.05.3-.13.41-.24.11-.11.2-.25.26-.4l1.61.1c-.08.39-.25.73-.5 1.02-.25.3-.58.52-.97.68-.4.16-.86.24-1.37.24ZM27 39v-6.34h1.64v1.11h.07c.13-.37.34-.66.64-.88.3-.21.67-.32 1.09-.32.42 0 .78.11 1.08.33.3.21.5.5.6.87h.06c.13-.36.36-.65.69-.87a2.1 2.1 0 0 1 1.18-.33c.58 0 1.05.2 1.4.57.37.37.55.9.55 1.6V39h-1.71v-3.92c0-.35-.1-.62-.28-.8a.95.95 0 0 0-.68-.26c-.32 0-.56.1-.73.3-.18.2-.27.47-.27.8V39h-1.66v-3.96c0-.3-.09-.56-.26-.74a.89.89 0 0 0-.68-.28c-.2 0-.37.05-.52.15-.15.1-.27.23-.36.41-.09.17-.13.38-.13.61V39H27ZM24 39v-6.34h1.67V39H24Zm.84-7.16a.89.89 0 0 1-.9-.9c0-.24.08-.45.26-.62.18-.17.4-.26.64-.26.25 0 .46.09.64.26s.27.38.27.63c0 .24-.1.45-.27.63a.87.87 0 0 1-.64.26ZM19 39v-6.34h1.63v1.1h.06c.11-.4.3-.69.56-.89.26-.2.56-.3.9-.3a2.4 2.4 0 0 1 .53.06v1.56a2.8 2.8 0 0 0-.71-.1c-.25 0-.47.06-.67.17-.19.11-.34.27-.45.46-.11.2-.17.43-.17.69V39H19ZM12 39v-9h3.14c.6 0 1.12.13 1.55.4.42.25.75.6.97 1.07.23.45.34.98.34 1.58 0 .6-.11 1.12-.34 1.58C17.14 35.66 16.2 36 15.1 36h-2v-1.44h1.73c.32 0 .59-.07.8-.2.21-.12.37-.3.48-.52.1-.23.15-.5.15-.79 0-.3-.05-.56-.15-.78-.1-.23-.27-.4-.48-.53a1.57 1.57 0 0 0-.8-.18h-1.15V39H12ZM43.21 30a3.56 3.56 0 0 1-1.1-.18l.4-1.27c.2.06.39.1.55.1.17 0 .31-.03.43-.11a.83.83 0 0 0 .3-.4l.1-.26-2.26-6.28h1.84l1.3 4.48h.07l1.31-4.48H48l-2.45 6.76c-.11.33-.27.62-.47.86-.2.25-.46.44-.76.57-.3.13-.68.2-1.1.2ZM40.84 21.53v1.33H37v-1.33h3.84ZM38 20h1.69v5.95c0 .16.02.29.07.38a.4.4 0 0 0 .2.19.8.8 0 0 0 .3.05c.08 0 .16 0 .24-.02l.19-.04.26 1.32a4.66 4.66 0 0 1-.92.17c-.4.01-.77-.04-1.07-.17-.31-.13-.55-.34-.72-.61a1.91 1.91 0 0 1-.24-1.04V20ZM34 28v-6.34h1.66V28H34Zm.83-7.16a.88.88 0 0 1-.63-.26.87.87 0 0 1-.27-.63c0-.25.1-.46.27-.63a.87.87 0 0 1 .63-.26c.25 0 .46.09.64.26.17.17.26.38.26.63 0 .24-.09.45-.26.63a.87.87 0 0 1-.64.26ZM32.68 19v9H31v-9h1.68ZM26.49 28c-.4 0-.76-.07-1.07-.2a1.72 1.72 0 0 1-.74-.63 1.88 1.88 0 0 1-.27-1.04c0-.35.06-.65.19-.88.13-.24.3-.43.52-.58.22-.14.47-.25.75-.32.28-.08.58-.13.89-.16l.88-.1c.22-.04.38-.1.49-.16.1-.07.15-.17.15-.3v-.03a.75.75 0 0 0-.25-.6 1 1 0 0 0-.68-.21c-.32 0-.56.07-.75.2-.18.14-.3.31-.37.52l-1.6-.13a2.2 2.2 0 0 1 1.4-1.64 4 4 0 0 1 2.32-.1c.32.08.6.2.86.38.25.17.44.4.59.66a2 2 0 0 1 .2.96V28h-1.63v-.99h-.05a1.77 1.77 0 0 1-1.01.87 2.5 2.5 0 0 1-.82.12Zm.5-1.2c.25 0 .47-.05.67-.15.2-.1.35-.25.46-.42.11-.18.17-.37.17-.6v-.66a.93.93 0 0 1-.23.1 4.13 4.13 0 0 1-.66.14l-.32.04c-.2.03-.38.08-.53.14a.85.85 0 0 0-.36.27.65.65 0 0 0-.12.4c0 .25.08.43.25.55.18.13.4.19.66.19ZM23.4 21.53v1.33h-3.65v-1.33h3.66ZM20.59 20h1.69v5.95c0 .16.02.29.07.38a.4.4 0 0 0 .2.19c.08.03.18.05.3.05.07 0 .15 0 .23-.02l.18-.04.27 1.32a4.56 4.56 0 0 1-.91.17c-.41.01-.77-.04-1.07-.17a1.5 1.5 0 0 1-.71-.61 1.93 1.93 0 0 1-.25-1.04V20ZM17 28v-6.39h1.71V28H17Zm.88-7.2a.89.89 0 0 1-.65-.27.87.87 0 0 1-.26-.64c0-.24.09-.45.26-.62.18-.18.4-.27.65-.27s.46.09.64.27c.17.17.26.38.26.62 0 .25-.09.46-.26.64a.87.87 0 0 1-.64.26ZM9.97 19 12 25.84h.08L14.1 19h1.96l-2.89 9H10.9L8 19h1.97Z" fill="#03102C" /></svg>