<?xml version='1.0' encoding='utf-8'?>
<!-- by TradeStack -->
<svg width="56" height="56" viewBox="0 0 56 56" xmlns="http://www.w3.org/2000/svg"><path fill="#F0F3FA" d="M0 0h56v56H0z" /><path fill-rule="evenodd" d="M36 26a4 4 0 1 0 0-8 4 4 0 0 0 0 8Zm0-1.2a2.8 2.8 0 1 0 0-5.6 2.8 2.8 0 0 0 0 5.6ZM27 35a4 4 0 1 0 0-8 4 4 0 0 0 0 8Zm0-1.2a2.8 2.8 0 1 0 0-5.6 2.8 2.8 0 0 0 0 5.6ZM49 22a4 4 0 1 1-8 0 4 4 0 0 1 8 0Zm-1.2 0a2.8 2.8 0 1 1-5.6 0 2.8 2.8 0 0 1 5.6 0ZM36 35a4 4 0 1 0 0-8 4 4 0 0 0 0 8Zm0-1.2a2.8 2.8 0 1 0 0-5.6 2.8 2.8 0 0 0 0 5.6ZM31 40a4 4 0 1 1-8 0 4 4 0 0 1 8 0Zm-1.2 0a2.8 2.8 0 1 1-5.6 0 2.8 2.8 0 0 1 5.6 0Z" /><path fill-rule="evenodd" d="M12 26a4 4 0 1 0 0-8 4 4 0 0 0 0 8Zm0-1.2a2.8 2.8 0 1 0 0-5.6 2.8 2.8 0 0 0 0 5.6ZM27 26a4 4 0 1 0 0-8 4 4 0 0 0 0 8Zm0-1.2a2.8 2.8 0 1 0 0-5.6 2.8 2.8 0 0 0 0 5.6ZM22 31a4 4 0 1 1-8 0 4 4 0 0 1 8 0Zm-1.2 0a2.8 2.8 0 1 1-5.6 0 2.8 2.8 0 0 1 5.6 0Z" fill="#D0112B" /></svg>