<!-- by TradeStack --><svg width="56" height="56" viewBox="0 0 56 56" xmlns="http://www.w3.org/2000/svg"><path fill="#F0F3FA" d="M0 0h56v56H0z"/><path fill-rule="evenodd" d="M28 45a17 17 0 1 0 0-34 17 17 0 0 0 0 34Zm0-2a15 15 0 1 0 0-30 15 15 0 0 0 0 30Z" fill="#2FAAE0"/><path fill="#2FAAE0" d="M27 24h2v8h-2zM36 31.17 37.13 30 43 35.83 41.87 37 36 31.17Z"/><path fill-rule="evenodd" d="M35 32a4 4 0 1 0 0-8 4 4 0 0 0 0 8Zm0-2a2 2 0 1 0 0-4 2 2 0 0 0 0 4Z" fill="#2FAAE0"/><path d="M21.5 24 20 27l-1.5-3H16l4 8 4-8h-2.5Z" fill="#2FAAE0"/></svg>