<?xml version='1.0' encoding='utf-8'?>
<!-- by TradeStack -->
<svg width="56" height="56" viewBox="0 0 56 56" xmlns="http://www.w3.org/2000/svg"><path fill="#234D46" d="M0 0h56v56H0z" /><path d="M4.69 25 8 29.35 11.33 25l.57.71c.16.36.13.77-.1 1.09l-2.64 3.62c-.56.77-1.76.77-2.32 0L4.2 26.8a1.06 1.06 0 0 1-.1-1.09l.58-.71ZM14 29.77c0 .68.52 1.23 1.16 1.23h4.68c.64 0 1.16-.82 1.16-1.5h-5.5v-.73h2.74c.64 0 1.16-.82 1.16-1.5h-3.9v-.77H21c0-.68-.52-1.5-1.16-1.5h-4.68c-.64 0-1.16.55-1.16 1.23v3.54ZM45 29.77c0 .68.52 1.23 1.16 1.23h4.68c.64 0 1.16-.82 1.16-1.5h-5.5v-.73h2.74c.64 0 1.16-.82 1.16-1.5h-3.9v-.77H52c0-.68-.52-1.5-1.16-1.5h-4.68c-.64 0-1.16.55-1.16 1.23v3.54ZM25.43 25c-.76.04-1.43.65-1.43 1.4v3.2c0 .77.71 1.4 1.5 1.4v-4.5h4.24c.35 0 .63.12.63.5 0 .37-.28.5-.63.5H26c0 .73.55 1.5 1.22 1.5h1.8l1 1.39c.45.63 1.33.78 1.98.34l-1.35-1.9a2.02 2.02 0 0 0 1.1-1.83c0-1.1-.83-2-1.85-2H25.43Z" fill="#F0F3FA" /><path fill-rule="evenodd" d="M36.35 25c-.74 0-1.35.65-1.35 1.45v3.1c0 .8.6 1.45 1.35 1.45h2.85c1.55 0 2.8-1.34 2.8-3s-1.25-3-2.8-3h-2.85Zm2.55 1.5h-2.4v3h2.4c.88 0 1.6-.55 1.6-1.5s-.72-1.5-1.6-1.5Z" fill="#F0F3FA" /></svg>