<!-- by TradeStack --><svg width="56" height="56" viewBox="0 0 56 56" xmlns="http://www.w3.org/2000/svg"><path fill="#F0F3FA" d="M0 0h56v56H0z"/><path d="M14.72 18.24C10.67 21.87 9.1 26.57 9 28.62c.7 8.76 21.79 17.67 31.4 8.07.36-.37.57-.86.6-1.37.3-5.83-1.08-15.66-9.38-18.68-8.83-3.2-14.98-.18-16.9 1.6Z" fill="#B5DDD4"/><path d="M9 28.62c.05.6.2 1.2.42 1.8 3.11 8.1 22.03 15.21 30.98 6.27.36-.37.57-.86.6-1.37.02-.42.03-.85.03-1.31-1.82 3.1-4.5 5.87-11.24 6.04-6.76.17-17.2-3-20.79-11.43Z" fill="url(#any0app5f)"/><path d="M19.63 16.9A5.81 5.81 0 0 0 15.29 19c-.03.05.02.1.07.07 1.26-.73 3.2-1.62 4.29-2.1a.05.05 0 0 0-.02-.08Z" fill="url(#bny0app5f)"/><path d="M14.72 18.24c-.38.34-.73.68-1.07 1.04 1.53-1.15 3-2 4.6-2.6a17.45 17.45 0 0 1 9.07-.7c4.76.87 9.6 3.88 12.74 10.54-1.2-4.17-3.68-8.14-8.44-9.88-8.83-3.2-14.98-.18-16.9 1.6Z" fill="url(#cny0app5f)"/><path d="M11.33 32.46c.6.45.86 0 .45-.4-.3-.3-.76-1.04-1.1-1.84-.09-.17-.18-.5-.42-.52-.1-.01-.2.1-.15.52.1.85.61 1.8 1.22 2.24Z" fill="url(#dny0app5f)"/><path d="M22.3 42.8c2.23 2.63 4.85 3.12 5.88 3.04 2.01 0 4.94-1.16 7.53-2.74 2.94-1.79 6.06-4.35 6.53-7.94a9.04 9.04 0 0 0-.66-4.54c-2.32-5.98-9.03-8.71-15.25-8.34-1.67.1-3.54.34-4.83 1.5-5.47 4.89-2.18 15.92.8 19.01Z" fill="url(#eny0app5f)"/><path d="M41.43 30.67c-2.29-5.89-8.91-8.6-15.09-8.23-1.68.1-3.49.34-4.74 1.45-2.67 2.4-3.22 6.31-2.71 10.05a21.3 21.3 0 0 0 1.4 5.2c.65 1.54 1.4 2.8 2.13 3.55 2.2 2.6 4.77 3.07 5.74 3h.02c.98 0 2.2-.29 3.5-.77 1.29-.49 2.66-1.17 3.95-1.95 2.93-1.79 6-4.32 6.46-7.83a8.9 8.9 0 0 0-.66-4.47Zm-15.1-8.54c6.25-.38 13.04 2.37 15.4 8.43a9.2 9.2 0 0 1 .67 4.62c-.49 3.67-3.67 6.26-6.6 8.05-1.3.8-2.7 1.48-4.02 1.97-1.31.5-2.56.79-3.6.8-1.08.08-3.74-.44-5.99-3.1-.76-.8-1.54-2.08-2.18-3.64a21.6 21.6 0 0 1-1.43-5.28c-.52-3.77.02-7.82 2.81-10.31 1.34-1.2 3.26-1.44 4.93-1.54Z" fill="#004821"/><path d="M22.56 42.14c-1.3-1.28-2.3-4.8-2.62-6.86 0-.04.02-.08.06-.1.04-.01.1.02.1.06 1.1 3.53 1.76 4.87 2.71 6.26.83 1.2.07 1.01-.25.64Z" fill="url(#fny0app5f)"/><path d="M28.18 45.84c2.01 0 4.94-1.16 7.53-2.74a12.09 12.09 0 0 0 4.2-4.3c.19-.3.1-.4-.1-.4-.55.01-1.09.41-1.57.65-5.68 2.75-10.9 1.86-15.63 1.09-.92-.1-1.48.02-1.21 1.06.34.88.84 1.59 1.51 2.25 2.08 2.06 4.33 2.46 5.27 2.39Z" fill="#D1EAE7"/><path d="M36.46 41.14a46 46 0 0 1-6.21 3.25c2.81-.8 5.1-2.24 6.27-3.19.04-.03 0-.1-.06-.06Z" fill="url(#gny0app5f)"/><path d="M35.73 42.14c-2.6 1.58-5.52 2.74-7.54 2.74-.94.08-3.19-.32-5.26-2.38a6.32 6.32 0 0 1-1.48-2.16c-.13.17-.16.44-.05.86.34.88.84 1.59 1.51 2.25 2.08 2.06 4.33 2.46 5.27 2.39 2.01 0 4.94-1.16 7.53-2.74a12.09 12.09 0 0 0 4.2-4.3c.19-.3.1-.4-.1-.4l-.25.03a12.07 12.07 0 0 1-3.83 3.71Z" fill="#B3DCD8"/><path opacity=".5" d="M24.08 23.48c-.3-.15-1.57-.05-2.08.9-.22.42.11.43.5.3.48-.16.93-.45 1.32-.74.42-.3.36-.41.26-.46Z" fill="#fff"/><ellipse cx="35.21" cy="20.69" rx="7.79" ry="7.69" fill="url(#hny0app5f)"/><path d="M43 20.69c-.4-4.75-3.9-7.44-7.8-7.44-.95 0-1.82.24-2.67.65-1.42.68-1.94 1.84-.56 3.14l-3.04-.91A7.82 7.82 0 0 1 35.21 13c4.3 0 7.79 3.44 7.79 7.69Z" fill="url(#iny0app5f)"/><path d="M40.1 26.67a7.83 7.83 0 0 1-12.68-5.98c0-1.82.64-3.5 1.7-4.81.81.2 1.64.45 2.5.76 1.65.6 3.19 1.56 4.45 2.77.66.64 1.26 1.35 1.78 2.07 1.18 1.61 2.18 3.44 2.97 3.15 2.43-.9 2.03-5 2.03-5 .5 1.95-.3 5.09-2.75 7.04Z" fill="url(#jny0app5f)"/><path d="M33.9 14.25c-2.03.05-2.8 1.23-3.08 1.83-.02.04.04.08.08.05a16 16 0 0 1 3.02-1.79c.05-.02.03-.1-.02-.1Z" fill="url(#kny0app5f)"/><path d="M40.96 20.93a4.92 4.92 0 0 0-1.15-4.16c-.33-.38-.43-.13-.3.17.49 1.11.9 2.72 1.16 4 .06.3.25.22.29 0Z" fill="url(#lny0app5f)"/><path d="M37.94 27.8c-1.57.67-3.3.77-5.21.17-2.73-.85-5.04-3.74-4.66-4.94.75-2.12 9.38.7 10.67 3.4.38.78-.14 1.08-.8 1.37Z" fill="url(#mny0app5f)"/><path d="M38 27.67a7.3 7.3 0 0 1-5.22.13c-2.73-.86-4.89-3.57-4.5-4.77.04-.11.1-.21.18-.3 1.28 4.64 7.5 6.24 10.28 3.7.38.78-.1.96-.75 1.24Z" fill="#006A30"/><path d="M38.81 27.16a.9.9 0 0 0-.12-.57c-1.3-2.56-9.8-5.34-10.5-3.34-.09.26-.05.6.12 1-.23-.48-.34-.9-.24-1.22.75-2.12 9.38.7 10.67 3.4.15.3.16.54.07.73Z" fill="#00290D"/><path d="M30.55 25.13c.27-.01.17-.4.06-.55a8.5 8.5 0 0 1-1.44-4.31c0-.06-.12-.06-.13 0-.26.77 0 4.9 1.51 4.86Z" fill="url(#nny0app5f)"/><path d="M39.95 25.37c-.8.67-1.8 1.21-2.57 1.54-.06.02-.03.1.03.09a4.96 4.96 0 0 0 2.6-1.58c.04-.04-.01-.1-.06-.05Z" fill="url(#ony0app5f)"/><path d="M40.94 32.53c-.22-1.42-1.3-2.9-2-3.66a.27.27 0 0 0-.43.03.28.28 0 0 0 0 .33 7.28 7.28 0 0 1 1.38 3.26c.04.32.33.58.65.53.25-.03.43-.25.4-.5Z" fill="url(#pny0app5f)"/><path d="M21.43 40.37c.34.74.72 1.37 1.13 1.77.32.37 1.08.55.25-.64-.3-.44-.57-.88-.84-1.38-.25.02-.44.1-.54.25Z" fill="#fff"/><defs><linearGradient id="any0app5f" x1="25.44" y1="22.23" x2="25.03" y2="40.84" gradientUnits="userSpaceOnUse"><stop offset=".48" stop-color="#163434" stop-opacity="0"/><stop offset="1" stop-color="#17AD97"/></linearGradient><linearGradient id="bny0app5f" x1="19.57" y1="17.24" x2="15.09" y2="19.33" gradientUnits="userSpaceOnUse"><stop stop-color="#fff"/><stop offset="1" stop-color="#fff" stop-opacity="0"/></linearGradient><linearGradient id="cny0app5f" x1="35.92" y1="19.89" x2="24.9" y2="31.77" gradientUnits="userSpaceOnUse"><stop stop-color="#00ACA0"/><stop offset="1" stop-color="#90CCBE"/></linearGradient><linearGradient id="dny0app5f" x1="10.26" y1="29.87" x2="11.9" y2="32.68" gradientUnits="userSpaceOnUse"><stop stop-color="#ECF5F7"/><stop offset="1" stop-color="#fff" stop-opacity="0"/></linearGradient><linearGradient id="eny0app5f" x1="27.57" y1="22.28" x2="30.36" y2="45.86" gradientUnits="userSpaceOnUse"><stop stop-color="#29AC85"/><stop offset=".43" stop-color="#61BBA5"/><stop offset="1" stop-color="#29AC85"/></linearGradient><linearGradient id="fny0app5f" x1="20.18" y1="35.36" x2="21.46" y2="42.51" gradientUnits="userSpaceOnUse"><stop stop-color="#63BDB2"/><stop offset="1" stop-color="#78C6C9"/></linearGradient><linearGradient id="gny0app5f" x1="36.02" y1="41.15" x2="30.54" y2="44.3" gradientUnits="userSpaceOnUse"><stop stop-color="#fff"/><stop offset="1" stop-color="#fff" stop-opacity=".62"/></linearGradient><linearGradient id="hny0app5f" x1="33.79" y1="13.3" x2="40.33" y2="25.8" gradientUnits="userSpaceOnUse"><stop stop-color="#7FC8C1"/><stop offset="1" stop-color="#B6DEE0"/></linearGradient><linearGradient id="iny0app5f" x1="35.97" y1="13" x2="30.6" y2="16.76" gradientUnits="userSpaceOnUse"><stop stop-color="#006B80"/><stop offset="1" stop-color="#0076AD"/></linearGradient><linearGradient id="jny0app5f" x1="28.02" y1="17.99" x2="40.47" y2="26.08" gradientUnits="userSpaceOnUse"><stop stop-color="#2CB1A4"/><stop offset="1" stop-color="#22AFA1"/></linearGradient><linearGradient id="kny0app5f" x1="30.96" y1="15.99" x2="33.57" y2="14.27" gradientUnits="userSpaceOnUse"><stop stop-color="#fff"/><stop offset="1" stop-color="#fff" stop-opacity="0"/></linearGradient><linearGradient id="lny0app5f" x1="40.24" y1="16.58" x2="40.76" y2="21.09" gradientUnits="userSpaceOnUse"><stop stop-color="#fff" stop-opacity="0"/><stop offset="1" stop-color="#fff"/></linearGradient><linearGradient id="mny0app5f" x1="34.06" y1="23.19" x2="32.58" y2="27.92" gradientUnits="userSpaceOnUse"><stop stop-color="#008049"/><stop offset="1" stop-color="#00814A"/></linearGradient><linearGradient id="nny0app5f" x1="28.93" y1="20.64" x2="30.47" y2="24.89" gradientUnits="userSpaceOnUse"><stop offset=".46" stop-color="#fff"/><stop offset="1" stop-color="#fff" stop-opacity=".25"/></linearGradient><linearGradient id="ony0app5f" x1="40.07" y1="25.58" x2="37.2" y2="27.16" gradientUnits="userSpaceOnUse"><stop stop-color="#fff" stop-opacity=".69"/><stop offset=".51" stop-color="#fff"/><stop offset="1" stop-color="#fff" stop-opacity=".14"/></linearGradient><linearGradient id="pny0app5f" x1="38.85" y1="28.67" x2="40.53" y2="33.18" gradientUnits="userSpaceOnUse"><stop stop-color="#6BC0B8"/><stop offset="1" stop-color="#A4D6D5"/></linearGradient></defs></svg>