<?xml version='1.0' encoding='utf-8'?>
<!-- by TradeStack -->
<svg width="56" height="56" viewBox="0 0 56 56" xmlns="http://www.w3.org/2000/svg"><path fill="#F0F3FA" d="M0 0h56v56H0z" /><path d="M27 45a17 17 0 1 1 2 0c1.18-1.74 3.24-3.37 5.4-4.54a14 14 0 1 0-12.8 0c2.16 1.18 4.22 2.8 5.4 4.54Z" fill="#D21347" /><path d="m19 21 9 18 9-18h-2.23a3.5 3.5 0 0 0-3.22 2.15c-.76 1.8-1.63 3.85-1.97 4.6-.5 1.1-1.26 3.4-1.58 4.42a54.62 54.62 0 0 0-1.58-4.42c-.34-.75-1.21-2.8-1.97-4.6A3.5 3.5 0 0 0 21.23 21H19Z" fill="#D21347" /></svg>