<?xml version='1.0' encoding='utf-8'?>
<!-- by TradeStack -->
<svg width="56" height="56" viewBox="0 0 56 56" xmlns="http://www.w3.org/2000/svg"><path fill="#F0F3FA" d="M0 0h56v56H0z" /><path d="M6.42 31C6.33 29.76 6 28.5 6 27.25c0-1.02.31-2.03.93-2.84-.91 0-2.44 1-2.44 1.96 0 .12.04.26.12.4.1.17.15.3.15.4 0 .08-.02.15-.08.2a.28.28 0 0 1-.2.08c-.12 0-.22-.06-.31-.18a1.03 1.03 0 0 1-.17-.6c0-1.6 2-2.52 3.4-2.61L8 24a6.5 6.5 0 0 0-1.17 3.27c-.05.81.17 1.64.27 2.42l1.07-1.13c1.06-1.07 3.15-2.56 3.15-4.26 0-.33-.21-.61-.21-.93 0-.2.18-.37.39-.37.14 0 .26.07.35.22.1.14.15.36.15.67 0 2.97-3.83 5.17-5.58 7.11Z" fill="url(#a13svgvxp)" /><path d="m11.3 27.36-.3-.2c.45-.42.86-.72 1.23-.9a2 2 0 0 1 .87-.26c.15 0 .26.03.34.08.07.05.11.13.11.22 0 .1-.15.58-.44 1.4a12.26 12.26 0 0 0-.72 2.45c0 .06.02.1.05.14.03.03.07.05.1.05.15 0 .6-.23 1.2-.7l.26.21c-.62.5-1.15.8-1.44.94-.28.14-.43.21-.61.21a.55.55 0 0 1-.38-.13.45.45 0 0 1-.14-.34c0-.48.34-1.65 1.02-3.5a.7.7 0 0 0 .05-.23c0-.08-.04-.12-.13-.12a.7.7 0 0 0-.3.1c-.12.05-.37.25-.77.58Z" fill="url(#b13svgvxp)" /><path d="M13.88 24.11a.42.42 0 0 0-.3-.11c-.16 0-.3.06-.4.17a.55.55 0 0 0-.18.41c0 .12.04.22.12.3a.4.4 0 0 0 .3.11c.15 0 .28-.06.4-.18a.58.58 0 0 0 .18-.42c0-.11-.04-.2-.12-.28Z" fill="url(#c13svgvxp)" /><path d="m35.3 27.36-.3-.2c.45-.42.86-.72 1.23-.9.38-.17.7-.26.96-.26.14 0 .25.03.33.08.08.05.11.13.11.22 0 .1-.14.58-.44 1.4a12.26 12.26 0 0 0-.71 2.45c0 .06.01.1.04.14.04.03.07.05.1.05.15 0 .52-.23 1.12-.7l.26.21c-.62.5-1.07.8-1.35.94-.29.14-.52.21-.7.21a.55.55 0 0 1-.38-.13.45.45 0 0 1-.14-.34c0-.48.34-1.65 1.02-3.5a.7.7 0 0 0 .05-.23c0-.08-.04-.12-.13-.12a.7.7 0 0 0-.3.1c-.12.05-.37.25-.77.58Z" fill="url(#d13svgvxp)" /><path d="M37.88 24.11a.42.42 0 0 0-.3-.11c-.16 0-.3.06-.4.17a.55.55 0 0 0-.18.41c0 .12.04.22.12.3a.4.4 0 0 0 .3.11c.15 0 .28-.06.4-.18a.58.58 0 0 0 .18-.42c0-.11-.04-.2-.12-.28Z" fill="url(#e13svgvxp)" /><path d="m15.33 25.34.9-.34-.4 1.6H17l-.1.4h-1.16l-.5 1.8c-.16.55-.24.94-.24 1.16 0 .2.1.28.25.28.11 0 .3-.07.54-.2.31-.18.62-.39.9-.62l.22.26c-.83.6-1.38.98-1.66 1.12-.28.13-.5.2-.68.2-.27 0-.45-.18-.45-.64 0-.26.07-.67.21-1.21l.59-2.15H14l.1-.4h.92l.31-1.26Z" fill="url(#f13svgvxp)" /><path d="m20.46 26.08.32-.08-.37 1.4c-.22.85-.52 1.82-.52 2.7 0 .12.04.17.12.17.3 0 .66-.43.83-.62l.16.21c-.43.45-1 1.14-1.68 1.14-.17 0-.25-.1-.25-.26 0-.06.01-.13.04-.23l.2-.75c-.36.48-1 1.23-1.67 1.23-.51 0-.64-.62-.64-1.02s.1-.83.27-1.31c.47-1.2 1.37-2.39 2.75-2.39.1 0 .21 0 .32.02l.12-.21Zm-.61.85a2.05 2.05 0 0 0-.45-.06c-1.2 0-1.66 1.71-1.66 2.68 0 .5.17.71.4.71.75 0 1.17-1.02 1.3-1.6l.4-1.73Z" fill="url(#g13svgvxp)" /><path d="M26.62 26h-.3c.05-.36.07-.64.07-.82 0-.54-.34-.87-.88-.87-.72 0-1.51.56-1.51 1.35 0 1.31 2 1.63 2 3.04 0 1.5-1.8 2.3-3.09 2.3-.66 0-1.91-.34-1.91-1.2 0-.15.05-.28.14-.38.1-.1.21-.15.34-.15a.4.4 0 0 1 .31.14c.06.06.11.18.16.38.1.34.24.62.58.77.16.07.32.1.5.1.89 0 1.97-.61 1.97-1.61 0-.14-.03-.28-.08-.41-.37-1.04-1.88-1.43-1.88-2.64 0-1.23 1.5-2 2.58-2 .47 0 .92.12 1.38.18a5.1 5.1 0 0 0-.2.64L26.63 26Z" fill="url(#h13svgvxp)" /><path d="m26.28 27.3-.23-.2c.35-.38.7-.65 1.06-.83.35-.18.65-.27.91-.27.1 0 .17.02.23.07.06.04.09.1.09.18 0 .1-.02.2-.04.31-.03.1-.1.35-.24.74.6-.52 1-.85 1.22-.97.37-.21.7-.31 1.01-.31.2 0 .37.08.5.24.14.17.21.42.21.75 0 .83-.3 1.62-.88 2.37-.6.75-1.24 1.13-1.96 1.13-.28 0-.56-.07-.84-.2l-.5 1.7a.91.91 0 0 0-.05.25c0 .47.93.45 1.23.48l-.08.26H25l.08-.26c.55-.05.82-.31.97-.84L27.1 28c.2-.73.3-1.13.3-1.22 0-.09-.05-.13-.15-.13-.17 0-.5.22-.98.66Zm1.18 2.44c.3.27.62.4.95.4.47 0 .87-.32 1.23-.96.35-.64.53-1.27.53-1.88 0-.2-.05-.34-.15-.44a.52.52 0 0 0-.4-.16c-.19 0-.4.08-.63.24-.37.25-.64.5-.83.75-.14.18-.27.49-.4.93l-.3 1.12Z" fill="url(#i13svgvxp)" /><path d="M32.07 31h-.83l.39-1.5a52.72 52.72 0 0 0 .54-2.43c0-.09-.04-.13-.12-.13-.06 0-.14.04-.26.11-.11.08-.32.27-.62.57l-.17-.2c.36-.38.7-.67 1.06-.86.35-.2.63-.3.82-.3.06 0 .11.03.15.06.04.03.06.07.06.12 0 .05-.02.18-.07.38l-.24 1c.37-.59.8-1.1 1.27-1.52.22-.2.41-.3.56-.3.11 0 .2.04.28.11a.34.34 0 0 1 0 .51 1.6 1.6 0 0 1-.54.26c-.27.09-.5.2-.67.33-.17.13-.36.33-.57.6-.2.27-.34.5-.42.71-.08.2-.2.66-.38 1.4L32.07 31Z" fill="url(#j13svgvxp)" /><path d="m38.2 27.36-.2-.2c.5-.47 1.17-1.16 1.91-1.16.25 0 .28.16.23.36l-.26 1.15c.4-.43.88-.84 1.47-1.21.31-.2.57-.3.77-.3.3 0 .48.2.48.56 0 .12-.02.25-.05.4-.06.25-.22.8-.48 1.63-.25.78-.37 1.3-.37 1.55 0 .15.05.23.13.23.11 0 .29-.1.52-.32l.5-.43.15.21c-.35.39-.72.7-1.1.94a1.2 1.2 0 0 1-.59.23c-.29 0-.46-.2-.46-.67 0-.34.21-1.19.64-2.54a6 6 0 0 0 .2-.84c0-.12-.08-.18-.22-.18-.15 0-.35.08-.59.24-.36.24-.66.52-.9.84-.15.2-.28.53-.38.98L39.13 31h-.85c.16-.57.3-1.29.42-1.81l.5-2.18c.03-.09.04-.15.04-.19 0-.1-.04-.15-.12-.15-.33 0-.73.48-.93.69Z" fill="url(#k13svgvxp)" /><path d="M47.58 26.1 48 26c-.25.9-.49 1.79-.7 2.69-.16.64-.26 1.17-.32 1.6-.03.22-.09.52-.09.85-.02 1.5-.72 2.86-2.37 2.86-.7 0-1.52-.4-1.52-1.2 0-1.12 1.26-1.49 2.02-2.02-.26.15-.46.22-.6.22-.36 0-.46-.47-.46-.76 0-1.39.78-2.9 1.96-3.66.33-.2.74-.32 1.24-.32.1 0 .22 0 .36.02l.06-.18Zm-.59.85a2.24 2.24 0 0 0-.45-.05c-.33 0-.61.1-.85.29-.67.53-.96 1.76-.96 2.57 0 .25.14.64.45.64.42 0 .83-.45 1.02-.78.14-.22.27-.6.4-1.14l.39-1.53Zm-.71 3.12c-.77.75-2.68 1.44-2.68 2.7 0 .49.45.86.9.86.48 0 .95-.26 1.28-.75.41-.6.4-1.3.4-2 .01-.11.07-.4.1-.8Z" fill="url(#l13svgvxp)" /><path d="M50.89 26c.35 0 .63.07.82.2.2.13.29.28.29.46 0 .1-.04.2-.13.27a.4.4 0 0 1-.29.11.4.4 0 0 1-.2-.04 1.17 1.17 0 0 1-.23-.25c-.2-.25-.4-.38-.59-.38-.34 0-.56.3-.56.64 0 .49.35.85.67 1.17.44.46.66.89.66 1.3 0 .4-.18.76-.54 1.06-.36.3-.82.46-1.38.46-.48 0-.83-.1-1.06-.28a.86.86 0 0 1-.35-.69.45.45 0 0 1 .45-.46c.12 0 .21.03.3.1.07.07.11.16.11.25l-.01.15v.13c0 .13.05.23.16.32.1.09.26.13.44.13.22 0 .4-.03.57-.1a.86.86 0 0 0 .52-.75.77.77 0 0 0-.13-.42 5.14 5.14 0 0 0-.57-.68c-.42-.45-.63-.88-.63-1.29 0-.88.88-1.41 1.68-1.41Z" fill="url(#m13svgvxp)" /><defs><linearGradient id="a13svgvxp" x1="8" y1="23" x2="8" y2="31" gradientUnits="userSpaceOnUse"><stop stop-color="#686868" /><stop offset=".21" stop-color="#93BFB0" /><stop offset=".36" stop-color="#6BA491" /><stop offset=".46" stop-color="#72A695" /><stop offset=".57" stop-color="#7FBEA9" /><stop offset=".73" stop-color="#7DA99A" /><stop offset=".95" stop-color="#A8D0C5" /></linearGradient><linearGradient id="b13svgvxp" x1="12.72" y1="23.57" x2="12.72" y2="31" gradientUnits="userSpaceOnUse"><stop offset=".36" stop-color="#6BA491" /><stop offset=".46" stop-color="#72A695" /><stop offset=".57" stop-color="#7FBEA9" /><stop offset=".73" stop-color="#7DA99A" /><stop offset=".95" stop-color="#A8D0C5" /></linearGradient><linearGradient id="c13svgvxp" x1="12.5" y1="24" x2="12.5" y2="31" gradientUnits="userSpaceOnUse"><stop stop-color="#686868" /><stop offset=".21" stop-color="#93BFB0" /></linearGradient><linearGradient id="d13svgvxp" x1="36.72" y1="23.57" x2="36.72" y2="31" gradientUnits="userSpaceOnUse"><stop offset=".36" stop-color="#6BA491" /><stop offset=".46" stop-color="#72A695" /><stop offset=".57" stop-color="#7FBEA9" /><stop offset=".73" stop-color="#7DA99A" /><stop offset=".95" stop-color="#A8D0C5" /></linearGradient><linearGradient id="e13svgvxp" x1="36.5" y1="24" x2="36.5" y2="31" gradientUnits="userSpaceOnUse"><stop stop-color="#686868" /><stop offset=".21" stop-color="#93BFB0" /></linearGradient><linearGradient id="f13svgvxp" x1="15.5" y1="25" x2="15.5" y2="31" gradientUnits="userSpaceOnUse"><stop stop-color="#686868" /><stop offset=".21" stop-color="#93BFB0" /><stop offset=".36" stop-color="#6BA491" /><stop offset=".46" stop-color="#72A695" /><stop offset=".57" stop-color="#7FBEA9" /><stop offset=".73" stop-color="#7DA99A" /><stop offset=".95" stop-color="#A8D0C5" /></linearGradient><linearGradient id="g13svgvxp" x1="19" y1="26" x2="19" y2="31" gradientUnits="userSpaceOnUse"><stop stop-color="#686868" /><stop offset=".21" stop-color="#93BFB0" /><stop offset=".36" stop-color="#6BA491" /><stop offset=".46" stop-color="#72A695" /><stop offset=".57" stop-color="#7FBEA9" /><stop offset=".73" stop-color="#7DA99A" /><stop offset=".95" stop-color="#A8D0C5" /></linearGradient><linearGradient id="h13svgvxp" x1="24" y1="24" x2="24" y2="31" gradientUnits="userSpaceOnUse"><stop stop-color="#686868" /><stop offset=".21" stop-color="#93BFB0" /><stop offset=".36" stop-color="#6BA491" /><stop offset=".46" stop-color="#72A695" /><stop offset=".57" stop-color="#7FBEA9" /><stop offset=".73" stop-color="#7DA99A" /><stop offset=".95" stop-color="#A8D0C5" /></linearGradient><linearGradient id="i13svgvxp" x1="28" y1="26" x2="28" y2="33" gradientUnits="userSpaceOnUse"><stop stop-color="#686868" /><stop offset=".21" stop-color="#93BFB0" /><stop offset=".36" stop-color="#6BA491" /><stop offset=".46" stop-color="#72A695" /><stop offset=".57" stop-color="#7FBEA9" /><stop offset=".73" stop-color="#7DA99A" /><stop offset=".95" stop-color="#A8D0C5" /></linearGradient><linearGradient id="j13svgvxp" x1="33" y1="26" x2="33" y2="31" gradientUnits="userSpaceOnUse"><stop stop-color="#686868" /><stop offset=".21" stop-color="#93BFB0" /><stop offset=".36" stop-color="#6BA491" /><stop offset=".46" stop-color="#72A695" /><stop offset=".57" stop-color="#7FBEA9" /><stop offset=".73" stop-color="#7DA99A" /><stop offset=".95" stop-color="#A8D0C5" /></linearGradient><linearGradient id="k13svgvxp" x1="40.5" y1="26" x2="40.5" y2="31" gradientUnits="userSpaceOnUse"><stop stop-color="#686868" /><stop offset=".21" stop-color="#93BFB0" /><stop offset=".36" stop-color="#6BA491" /><stop offset=".46" stop-color="#72A695" /><stop offset=".57" stop-color="#7FBEA9" /><stop offset=".73" stop-color="#7DA99A" /><stop offset=".95" stop-color="#A8D0C5" /></linearGradient><linearGradient id="l13svgvxp" x1="45.5" y1="26" x2="45.5" y2="34" gradientUnits="userSpaceOnUse"><stop stop-color="#686868" /><stop offset=".21" stop-color="#93BFB0" /><stop offset=".36" stop-color="#6BA491" /><stop offset=".46" stop-color="#72A695" /><stop offset=".57" stop-color="#7FBEA9" /><stop offset=".73" stop-color="#7DA99A" /><stop offset=".95" stop-color="#A8D0C5" /></linearGradient><linearGradient id="m13svgvxp" x1="50" y1="26" x2="50" y2="31" gradientUnits="userSpaceOnUse"><stop stop-color="#686868" /><stop offset=".21" stop-color="#93BFB0" /><stop offset=".36" stop-color="#6BA491" /><stop offset=".46" stop-color="#72A695" /><stop offset=".57" stop-color="#7FBEA9" /><stop offset=".73" stop-color="#7DA99A" /><stop offset=".95" stop-color="#A8D0C5" /></linearGradient></defs></svg>