<?xml version='1.0' encoding='utf-8'?>
<!-- by TradeStack -->
<svg width="56" height="56" viewBox="0 0 56 56" xmlns="http://www.w3.org/2000/svg"><path fill="#F0F3FA" d="M0 0h56v56H0z" /><path d="M7.49 21v4h-1v-4H5v-1h3.99v1h-1.5ZM45 21v4h-1v-4h-1.49v-1h3.99v1H45ZM15 20v5h-1v-2h-2v2h-1v-5h1v2h2v-2h1ZM16 25v-5h2.42c1.03 0 1.58.4 1.58 1.47 0 .71-.1 1.27-.87 1.42v.04c.54.03.87.35.87.97V25h-.98v-.91c0-.52-.25-.77-.75-.77H17V25h-1Zm1-2.48h1.27c.6 0 .73-.17.73-.76 0-.56-.07-.76-.67-.76H17v1.52ZM22 21v1h1.87v.79H22V24h2v1h-3v-5h3v1h-2ZM26 21v1h1.87v.79H26V24h2v1h-3v-5h3v1h-2ZM33.88 21.48h-.92v-.1c-.05-.59-.38-.63-.9-.63-.53 0-1.06 0-1.06.64 0 .76.61.66 1.24.7 1.03.05 1.76.2 1.76 1.36 0 1.39-.81 1.55-2.06 1.55-1.1 0-1.94-.17-1.94-1.42v-.18h.91v.1c0 .78.5.75 1.18.75.61 0 .87-.07.87-.75 0-.48-.15-.59-.6-.61l-.51-.04c-1.1-.06-1.83-.2-1.83-1.42 0-1.26.86-1.43 1.97-1.43.99 0 1.89.12 1.89 1.29v.19ZM36 20v5h-1v-5h1ZM41.9 20l-1.58 2.42L42 25h-1.17l-.75-1.2-.33-.57-.1-.2-.12-.19h-.01l-.11.2c-.14.24-.29.5-.46.76L38.2 25H37l1.72-2.58-1.6-2.42h1.19l.7 1.11.3.52.1.18.1.18h.01l.1-.18.1-.17.3-.52.7-1.12h1.18ZM51 20l-1.61 3.1V25h-1v-1.9L46.82 20h.96l1.11 2.2c.23-.4 1.01-1.94 1.14-2.2H51ZM13.76 29H12c-.01-.1 0 .04 0 0 0-1-.9-1-2-1-1.03 0-2 0-2 1 0 2.06 6-.28 6 3.9 0 1.3-.25 2.15-.76 2.53-.51.38-1.63.57-3.36.57-1.56 0-2.6-.19-3.11-.56-.5-.38-.76-1.44-.76-2.58L6 32.5h1.83v.2c0 1.42 1 1.3 2.17 1.3 1.18 0 2-.12 2-1 0-1.62-4.02-.93-5.31-1.94-.44-.34-.68-1.1-.68-2.22 0-1.15.29-1.88.81-2.26.53-.39 1.58-.58 3.15-.58 1.5 0 2.5.18 3.01.53.52.35.78 1.08.78 2.1V29ZM27 26v8h5v2h-7V26h2ZM38.54 34h-4.06l-.59 2H32l3.13-10h2.69L41 36h-1.86l-.6-2Zm-.41-1.32-1.63-5.2-1.6 5.2h3.23ZM42 36V26h4.83c1.2 0 2.03.21 2.49.64.45.42.68 1.2.68 2.3 0 1.02-.11 1.7-.34 2.08-.23.37-.7.63-1.4.77v.06c1.09.07 1.74.72 1.74 1.94V36h-2v-1.45c0-1.03-.47-1.55-1.46-1.55H44v3h-2Zm2-5h2.42c1.07 0 1.58-.42 1.58-1.5 0-1.06-.36-1.5-1.45-1.5H44v3Z" fill="#439BD6" /><circle cx="19" cy="31" r="5" fill="#FFF100" /><path d="m16.41 26.72 1.23 1.6-.27-2.05.31-.1.55 2.03.6-2.2a5.08 5.08 0 0 1 .29 0l-.3 2.31 1.62-2.1.23.08-1.35 2.36 2.5-1.45a.1.1 0 0 1 .13.17l-2.3 1.77 2.88-.38a.1.1 0 0 1 .04.21l-2.8.76 2.8.75a.1.1 0 0 1-.04.2l-2.88-.37 2.3 1.77a.1.1 0 0 1-.11.17l-2.52-1.44 1.45 2.5a.1.1 0 0 1-.18.13l-1.77-2.3.38 2.87a.1.1 0 0 1-.2.05l-.77-2.8-.75 2.8a.1.1 0 0 1-.2-.04l.37-2.88-1.77 2.3a.1.1 0 0 1-.17-.11l1.44-2.52-2.51 1.45a.1.1 0 0 1-.12-.17l2.3-1.77-2.81.37.02-.24 2.67-.72-2.33-.62.12-.26 2.33.3-1.7-1.3.2-.24 1.83 1.04-1.01-1.75.27-.18Z" fill="#439BD6" /><path d="m16.32 26.78 1.48 1.9-.32-2.44.1-.04.65 2.4.7-2.6h.08l-.35 2.69 1.88-2.45.03.01-1.54 2.68 2.85-1.64-2.6 2 3.26-.42-3.18.86 3.18.85-3.26-.42 2.6 2-2.85-1.64 1.65 2.85-2.01-2.6.43 3.26-.87-3.17-.85 3.17.42-3.26-2 2.6 1.64-2.84-2.86 1.64 2.61-2-3.17.4 3.08-.84-2.69-.72.03-.06 2.75.35-2-1.54.07-.07 2.17 1.24-1.2-2.09.1-.06Z" fill="#F0F3FA" /></svg>