<!-- by TradeStack --><svg width="56" height="56" viewBox="0 0 56 56" xmlns="http://www.w3.org/2000/svg"><path fill="#F0F3FA" d="M0 0h56v56H0z"/><path d="M10.74 31H9.27L7 25h1.2l1.8 5 1.8-5H13l-2.26 6ZM15.41 25.7c0 .13-.05.26-.14.37-.1.12-.22.2-.37.26a.97.97 0 0 1-.48.03.88.88 0 0 1-.42-.19.66.66 0 0 1-.22-.35.58.58 0 0 1 .05-.4.73.73 0 0 1 .3-.3c.13-.08.3-.12.46-.12.1 0 .21.02.31.05.1.03.2.08.27.15.08.06.14.14.18.23.04.08.06.17.06.26ZM15 31h-1v-4h1v4ZM25 29c0 .11 0 .23-.02.34H22c.07.46.66.82 1.15.79.38 0 .74-.14 1.02-.37l.64.66c-.47.4-1.09.6-1.72.58C21.86 31 21 30.2 21 29c0-1.2.83-2.01 2.04-2.01 1.16 0 1.96.8 1.96 2Zm-3-.5h2s-.13-.5-1-.5c-.88 0-1 .5-1 .5ZM30 28.86V31h-1v-2.14c0-.56-.44-.87-.97-.87-.48 0-1.03.28-1.03.87V31h-1v-4h1v.55c.28-.36.7-.55 1.35-.55.98 0 1.65.66 1.65 1.86ZM34 27.43V26h1v5h-1v-.45c-.27.29-.77.45-1.33.45C31.6 31 31 30 31 29s.62-2 1.67-2c.42-.01 1.06.15 1.33.43ZM32 29c0 .6.46 1 1 1 .6 0 1-.48 1-1a1 1 0 0 0-1-1 1 1 0 0 0-1 1ZM19 27.43V26h1v5h-1v-.45c-.27.29-.77.45-1.33.45C16.6 31 16 30 16 29s.62-2 1.67-2c.42-.01 1.06.15 1.33.43ZM17 29c0 .6.46 1 1 1 .6 0 1-.48 1-1a1 1 0 0 0-1-1 1 1 0 0 0-1 1ZM40 29.24c0 1.23-.94 1.76-2 1.76-1.05 0-2-.53-2-1.76V27h1v2.14c0 .63.5.88 1 .88s1-.25 1-.88V27h1v2.24ZM49 28.52V31h-1v-2.14c0-.56-.69-.87-1.29-.87-.57 0-1.21.29-1.21.88V31h-1v-2.14c0-.56-.52-.87-1.13-.87-.57 0-1.37.29-1.37.88V31h-1v-4h1v.56c.32-.36 1.18-.58 1.75-.56.64-.01 1.27.25 1.62.68.38-.5 1.03-.67 1.68-.67 1.16 0 1.95.6 1.95 1.51ZM6 23v-2h7v-1H5v3h1ZM43 21h7v2h1v-3h-8v1ZM50 33v2h-7v1h8v-3h-1ZM13 35H6v-2H5v3h8v-1Z" fill="#111216"/></svg>