<?xml version='1.0' encoding='utf-8'?>
<!-- by TradeStack -->
<svg width="56" height="56" viewBox="0 0 56 56" xmlns="http://www.w3.org/2000/svg"><path fill="#54595F" d="M0 0h56v56H0z" /><path d="M13.2 15h29.34l.13.83c.57 3.74.56 10.59-1.28 16.2a22.08 22.08 0 0 1-13 13.82L28 46l-.39-.14c-7.52-2.73-10.94-8.2-12.86-13.83-1.9-5.6-1.9-12.45-1.61-16.13l.06-.9Zm1.94 2c-.2 3.57-.07 9.6 1.58 14.45 1.75 5.15 4.73 9.96 11.25 12.46 5.97-2.5 9.74-7.3 11.44-12.45 1.6-4.89 1.73-10.93 1.32-14.46H15.14Z" fill="#fff" /><path d="M22.31 38c-2.07-2-3.97-6.5-4.65-8.5l21.2-4.5-16.55 13Z" fill="#fff" /></svg>