<?xml version='1.0' encoding='utf-8'?>
<!-- by TradeStack -->
<svg width="56" height="56" viewBox="0 0 56 56" xmlns="http://www.w3.org/2000/svg"><path fill="#F0F3FA" d="M0 0h56v56H0z" /><path d="M15.82 15 8 39h9.19l3.38-10.9L15.82 15Z" fill="#D58449" /><path d="m19.81 26-4-11-.85 2.63c1.46 1.64 3.46 5.44 4.85 8.37Z" fill="#BB653B" /><path d="M40.18 15 48 39h-9.19l-3.38-10.9L40.18 15Z" fill="#D58449" /><path d="m36.19 26 4-11 .85 2.63c-1.46 1.64-3.46 5.44-4.85 8.37Z" fill="#BB653B" /><path d="m23.57 39-7.75-23.91c7.3-.96 11.25 6.1 12.31 9.75 3.02-8.96 9.3-10.23 12.05-9.75L32.5 39h-8.93Z" fill="#3A3A3C" /><path d="m22.67 36.23.9 2.77h.29l3.55-12.47c-1.97 6.04-3.7 8.73-4.74 9.7Z" fill="#212122" /></svg>