<!-- by TradeStack --><svg width="56" height="56" viewBox="0 0 56 56" xmlns="http://www.w3.org/2000/svg"><path fill="#F0F3FA" d="M0 0h56v56H0z"/><path d="M28 45c-7.53 0-13.9-5.05-16-12h32c-2.1 6.95-8.47 12-16 12ZM17.5 23H44a17.04 17.04 0 0 0-2.38-4.88l-8.36 1.93c-.71.2-1.1.28-1.47.29a4.8 4.8 0 0 1-.55-.03l-.11-.01-.6-.05c-.94-.06-1.9.12-2.26.22L17.5 23Zm-2.16 0 12.8-3.02c.4-.1 1.42-.3 2.42-.23l.61.06h.12c.2.02.34.04.5.03.3 0 .63-.06 1.34-.27l8.17-1.9-.24-.3-7.93 1.8c-.71.21-1.1.29-1.47.3l-.55-.03-.11-.02-.6-.05c-.93-.06-1.9.12-2.26.22L13.66 23h1.68Zm-2.77 0-.06-.24 15.5-3.65a8.23 8.23 0 0 1 3.04-.18l.11.01.5.03c.3 0 .63-.07 1.34-.27l7.71-1.76-.45-.51-7.97 1.79c-.71.2-1.13.29-1.53.3-.2 0-.39-.01-.58-.03l-.12-.01a7.47 7.47 0 0 0-2.75.16h-.01l-15.01 3.5L12 23h.57Zm.22-2.1 14.25-3.33c.42-.11 1.46-.3 2.5-.24l.62.06h.12c.19.03.32.04.46.03.26 0 .57-.05 1.27-.26h.01l7.34-1.65c-.31-.29-.63-.57-.96-.83l-6.18 1.46c-.71.2-1.1.28-1.47.29l-.55-.03-.11-.01-.6-.05c-.94-.07-1.9.12-2.26.21L13.29 19.9c-.18.33-.34.66-.5 1Zm.83-1.6A16.68 16.68 0 0 1 28 11c3.7 0 7.12 1.22 9.9 3.29l-5.8 1.37h-.01c-.7.2-1.04.27-1.35.27-.15 0-.3 0-.5-.02l-.1-.02-.62-.05c-1-.07-2.02.13-2.41.23L13.6 19.3Z" fill="#F8CF65"/><path d="m15.84 27.77 1.1-2.75v-.01l.03-.01H18l.01.02a.04.04 0 0 1 0 .03l-1.53 3.93-.01.01-.02.01h-1.3l-.01-.02-1.56-3.93v-.03l.02-.01h.01l1.1-.01h.02l.01.02 1.03 2.75.01.01h.04l.01-.01ZM19.5 26.96c.04 1.68 2.52 1.68 2.5-.16v-1.78a.06.06 0 0 1 .05-.02h.8c.09 0 .15.05.15.15 0 1.42.16 3.06-1.2 3.71-.44.19-.98.14-1.46.13a1.84 1.84 0 0 1-1.76-1.34c-.22-.68-.13-1.76-.13-2.51 0-.03.03-.09.05-.1a.1.1 0 0 1 .07-.04h.8c.08 0 .13.05.12.14l.01 1.82ZM25 27.5c0 .92 1.45.69 1.96.68 0 0 .02 0 .03.02l.01.03v.7c0 .02-.01.04-.04.04-1.14 0-2.9.4-2.96-1.54v-2.36c0-.03.07-.07.07-.07h.79c.1 0 .14.06.14.2v2.3ZM29.52 28.18c.6.05 1.27.03 2.19.03.03 0 .06.07.06.1v.64c0 .03-.01.05-.04.05h-2.15c-.38 0-.66-.04-.85-.11-1.65-.68-1.57-3.14.06-3.77.21-.08.5-.12.87-.12h2.05c.03 0 .05.02.05.05v.71c0 .03-.01.05-.04.05l-1.88.03c-.32 0-.55.04-.72.12-.94.46-.75 2.11.4 2.22ZM36 28.13c0-.39.07-1.3-.15-1.71-.2-.38-.52-.57-.96-.58-.68-.02-1.37-.02-2.06 0-.13 0-.25 0-.38-.03-.03-.01-.05-.03-.05-.07v-.67c0-.05.03-.07.07-.07h2.28c.45 0 .8.05 1.03.13.93.36 1.22 1.15 1.22 2.16v1.65c0 .04-.03.06-.06.06h-4.47c-.04 0-.06-.02-.06-.05-.02-.31-.05-.58.12-.86a177.17 177.17 0 0 1 1.01-1.62.16.16 0 0 1 .08-.02h1.04l.01.03a.06.06 0 0 1 0 .05l-.88 1.48c-.12.2.23.18.33.18h1.8c.03 0 .08-.02.08-.06ZM39 25.89v3.02c0 .06-.03.09-.08.09h-.88c-.03 0-.04-.02-.04-.05v-3.9l.01-.04h.03l2.3-.01c.39 0 .7.04.9.12a2 2 0 0 1 1.25 1.8V29l-.03.01h-.92c-.02 0-.04-.02-.04-.05v-1.62c0-1.8-1.29-1.5-2.45-1.5-.03 0-.05.03-.05.06ZM15.76 30.15v-.08c0-.03.03-.05.06-.05.46 0 1.2-.08 1.59.1.64.28.6 1.25.6 1.84 0 .02-.04.04-.07.04h-.43c-.04 0-.06-.02-.05-.05.01-.55.13-1.23-.37-1.45-.2-.09-.52-.05-.75-.05h-.02a.03.03 0 0 0-.02.02v1.48c0 .03-.01.05-.05.05h-.44c-.03 0-.05-.02-.05-.04v-.84c0-.72-.6-.7-1.17-.66-.03 0-.05.01-.05.05v1.44c0 .03-.02.05-.05.05h-.45c-.02 0-.04-.01-.04-.04v-1.88c0-.04.02-.06.06-.06.51 0 1.2-.1 1.65.15.03.02.05.01.05-.02ZM18.99 30h-.49a.02.02 0 0 0-.02.03v1.95c0 .02 0 .03.02.03h.48c.02 0 .02-.01.02-.02v-1.96l-.01-.02ZM20.96 30.46a4.56 4.56 0 0 0-.78 0c-.03 0-.05.02-.05.05v1.45c0 .03-.01.04-.04.04h-.48c-.03 0-.05-.02-.05-.05v-1.88l.01-.03.04-.02c.5 0 1.38-.09 1.82.1.69.28.64 1.17.63 1.84 0 .03-.01.04-.04.04h-.46c-.03 0-.04-.01-.04-.04-.01-.53.04-1.4-.56-1.5ZM24.17 30.47c-.52-.07-1.28-.07-1.17.64.1.66 1.38.5 1.89.48.03 0 .04.01.04.04v.3c0 .03-.01.04-.04.04-.5 0-1.44.1-1.87-.1a.95.95 0 0 1 .07-1.77c.44-.16 1.31-.08 1.8-.07.03 0 .04.01.04.04.02.46-.3.82-.57 1.17a.07.07 0 0 1-.07.03h-.55a.04.04 0 0 1-.03-.02.03.03 0 0 1 0-.03l.49-.7c.02-.03 0-.05-.03-.05ZM25.3 30.81c0-.94 1.02-.8 1.64-.8.04 0 .06.02.06.05v.33c0 .03-.02.05-.06.05-.44 0-1.09-.16-1.1.47v1.05c0 .03 0 .04-.03.04h-.47c-.03 0-.04-.01-.04-.04v-1.15ZM28.17 31.6l1.08.01c.03 0 .05-.01.06-.05.02-.41.12-1.08-.53-1.1h-1.33c-.04 0-.07-.03-.07-.07v-.31c0-.03.02-.05.05-.05.5-.01 1.41-.1 1.86.1.78.33.6 1.18.6 1.83 0 .03-.02.04-.05.04h-2.42c-.03 0-.04-.01-.04-.04v-.27c0-.02 0-.05.02-.07l.57-.85a.08.08 0 0 1 .07-.03h.55l.01.02v.05l-.47.73c-.03.05-.02.07.04.07ZM30.52 31.8c-.4-.31-.29-1.1-.26-1.76 0-.03.01-.04.04-.04h.46c.04 0 .06.02.06.06v1.12c0 .54.73.42 1.08.41.03 0 .05.02.05.05v.3c0 .03-.02.04-.04.04-.43 0-1.05.1-1.4-.18ZM32.84 31c-.42-.19-.57-.51-.46-.97 0-.02.02-.03.04-.03h.42c.03 0 .05.02.06.05.03.2-.05.36.13.51.12.1.35.09.51.12.4.1.56.34.5.73-.13.73-.99.58-1.65.57-.02 0-.04-.01-.04-.04v-.3c0-.03.02-.05.05-.05.33.01 1.13.07 1.08-.32-.03-.26-.48-.18-.64-.26ZM36.53 30h-.48a.05.05 0 0 0-.05.05v1.9c0 .03.02.05.05.05h.48c.02 0 .04-.02.04-.05v-1.9a.05.05 0 0 0-.04-.05ZM38.95 31.19c0-.86-.64-.75-1.3-.74-.04 0-.06.03-.06.07v1.43c0 .03-.02.05-.05.05h-.49c-.03 0-.05-.02-.05-.05v-1.86c0-.02 0-.03.02-.05a.07.07 0 0 1 .05-.01c.5 0 1.41-.1 1.84.1.78.37.6 1.16.6 1.83 0 .03-.02.04-.05.04H39c-.03 0-.04-.01-.04-.04v-.77Z"/><path d="M40.12 31.78a.96.96 0 0 1 .16-1.66c.4-.18 1.17-.1 1.66-.1.04 0 .06.02.06.05v.32a.06.06 0 0 1-.04.05h-.02c-.49 0-1.98-.2-1.67.75.18.55 1.22.4 1.68.4.03 0 .05.01.05.04v.3c0 .03-.01.04-.04.04-.52 0-1.43.13-1.84-.19Z"/></svg>