<!-- by TradeStack --><svg width="56" height="56" viewBox="0 0 56 56" xmlns="http://www.w3.org/2000/svg"><path fill="#F0F3FA" d="M0 0h56v56H0z"/><path fill-rule="evenodd" d="M4 25h3l2.56 3.64L12.13 25H13l-4.21 6h-.68L4 25Zm9 0h3v6h-3v-6Zm31 0h-3v5.48l-3-3.27L40.44 25H39l-1.74 1.48L35.49 25h-8.15A2.4 2.4 0 0 0 25 27.46v1.08A2.4 2.4 0 0 0 27.34 31h5.83l2.45-2.26L37.69 31H44v-6Zm-12 0v1h-3.24c-.42 0-.76.41-.76.92v2.16c0 .5.34.92.76.92H32v1l3-3-3-3Zm13 0v1h2v5h3v-5h2v-1h-7Zm-28 0v6h3v-5.02h1.43c.2.02.57.17.57.64 0 .48-.38.63-.57.64h-1v.6L22.8 31h2.66l-2-2.8c.42-.17 1.26-.5 1.26-1.58 0-1.26-.93-1.6-1.4-1.62H17Zm12.25 2.5a.25.25 0 0 0-.25.25v.5c0 .14.11.25.25.25h2.5c.14 0 .25-.11.25-.25v-.5a.25.25 0 0 0-.25-.25h-2.5Z" fill="url(#acdnib02x)"/><defs><linearGradient id="acdnib02x" x1="52" y1="26.33" x2="4" y2="26.33" gradientUnits="userSpaceOnUse"><stop offset=".12" stop-color="#CAD5E2"/><stop offset=".82" stop-color="#0E3F90"/></linearGradient></defs></svg>