<?xml version='1.0' encoding='utf-8'?>
<!-- by TradeStack -->
<svg width="56" height="56" viewBox="0 0 56 56" xmlns="http://www.w3.org/2000/svg"><path fill="#F0F3FA" d="M0 0h56v56H0z" /><path d="M43 26v5h-1v-5h1ZM5.27 31 4 26h1l.71 3.5.89-3.5h.8l.89 3.5L9 26h1l-1.27 5h-.8L7 27.8 6.08 31h-.8ZM11 31v-5h3v.76h-2v1.36h1.5v.76H12v1.36h2V31h-3ZM33 31v-5h3v.76h-2v1.36h1.5v.76H34v1.36h2V31h-3ZM17.02 27.4a.64.64 0 0 0-.3-.48c-.17-.12-.4-.17-.68-.17-.2 0-.37.02-.5.08a.75.75 0 0 0-.33.22c-.08.1-.11.2-.12.33 0 .1.03.19.08.26.05.08.12.14.2.2.1.04.19.09.3.12l.31.09.49.11c.2.04.38.1.57.18.55.21.96.6.96 1.22 0 1.06-1.09 1.44-1.98 1.44-.4 0-.75-.06-1.05-.18-.3-.11-.53-.28-.7-.5-.17-.23-.26-.5-.27-.83h.93a.7.7 0 0 0 .17.42c.1.12.22.2.38.25.16.06.34.09.54.09.42 0 1-.17 1-.7 0-.45-.55-.59-.9-.67l-.6-.14c-.42-.1-.76-.26-1.01-.47a1.04 1.04 0 0 1-.37-.84c0-.28.08-.53.25-.75.16-.21.4-.38.68-.5.29-.12.62-.18.98-.18.37 0 .7.06.97.18.28.12.5.28.66.5.16.2.24.45.25.72h-.91ZM18 26.76V26h4.1v.76h-1.55V31h-1v-4.24H18ZM22.95 31H22l1.52-5h.96L26 31h-.94L24 27.23 22.95 31Zm-.09-2h2.27v1h-2.27v-1ZM48.95 31H48l1.52-5h.96L52 31h-.94L50 27.23 48.95 31Zm-.09-2h2.27v1h-2.27v-1ZM27 26h1.06l1.44 3.62L30.94 26H32v5h-1v-3l-1.19 2.99h-.62l-1.19-3V31h-1v-5ZM37 31v-5h1.96c.99 0 1.85.44 1.85 1.5 0 .96-.65 1.5-1.86 1.5h-1.4v-.75h1.27c.54 0 1.02-.15 1.02-.75s-.48-.74-1.02-.74H38V31h-1Zm2.7-2.27L41 31h-1.06l-1.27-2.43 1.03.16ZM48 27.7h-1c-.09-.54-.35-.9-.9-.9-.93 0-1.1.92-1.1 1.7 0 .79.17 1.7 1.09 1.7.54 0 .82-.34.91-.88h1A1.91 1.91 0 0 1 46.08 31C44.7 31 44 29.75 44 28.5s.7-2.5 2.08-2.5c1.01 0 1.8.7 1.92 1.7Z" /></svg>