<!-- by TradeStack --><svg width="56" height="56" viewBox="0 0 56 56" xmlns="http://www.w3.org/2000/svg"><path fill="#F0F3FA" d="M0 0h56v56H0z"/><path d="M23.93 14.7c-.07.52.07.57.4.17l2.9-3.61c.2-.25.33-.63.6-.82.69-.49 1.38-.96 2.1-1.42.05-.04.08-.02.07.05a7.83 7.83 0 0 1-.04.15c-.09.12-.31.35-.68.7-.64.64-1.1 1.21-1.7 1.87-.28.29-.6.69-.99 1.19l-1.71 2.23c-.44.57-.87.98-1.32 1.46a.37.37 0 0 0-.07.1l-.05.11c-.16.19-.22.16-.18-.09.08-.47.27-.9-.1-1.33a.6.6 0 0 1-.15-.24c-.11-.51.77-1.54 1.13-1.87.13-.12.17-.1.11.07-.17.55-.28.97-.32 1.27ZM28.81 39.91a19.24 19.24 0 0 0-2.72 2.36c-.26.3-.42.48-.48.53-.5.46-.91.99-1.25 1.57a.47.47 0 0 1-.19.18.07.07 0 0 1-.09-.02v-.03c-.28-2.57.75-4.62 2.18-6.72.61-.9 1.15-1.8 1.6-2.7.1-.2.21-.58.36-1.17.13-.53.14-1.08.04-1.64-.02-.14-.07-.15-.15-.03a9.14 9.14 0 0 1-1.18 1.43c-.28.28-.6.48-.95.62-2.83 1.06-5.29-1.11-4.77-3.92 0-.06-.01-.07-.06-.03-.26.2-.43.4-.53.62a.1.1 0 0 1-.13.06c-.4-.12-.32-.85-.22-1.13.25-.72.68-1.6.4-2.3a3.23 3.23 0 0 0-1.1-1.2 9.31 9.31 0 0 1-2.57-2.7l.01-.05a.1.1 0 0 1 .08-.05c1.42-.13 2.93-.09 4.53.12.41.05 1 .04 1.27-.15.5-.34.77-.58 1.2-.65a.24.24 0 0 1 .2.07.22.22 0 0 1 .07.2c-.2.8-.64 1.94-1.45 2.32-.43.2-1.1.37-1.43.75-.4.46-.32 1.2-.02 1.67.18.29.44.56.77.83a7.81 7.81 0 0 0 4.2 1.7 6.6 6.6 0 0 0 3.6-.82c.5-.28.76-.77.76-1.47.02-2.23-1.14-4.36-2.44-6.2a42.47 42.47 0 0 0-1.8-2.42.22.22 0 0 1 0-.28c.6-.68 1.13-1.31 1.6-1.9.23-.27.46-.64.67-1.1a.9.9 0 0 0 .01-.85c-.08-.2-.1-.4.05-.6.5-.61 1.16-1.1 1.75-1.64.1-.09.2-.15.29-.17a.13.13 0 0 1 .12.04l.03.06v.06l-.66 1.7a.21.21 0 0 0 .03.2.22.22 0 0 0 .2.1c.64-.04 1.28.08 1.9.36.47.22.77.34.91.38.45.12.99.13 1.48.28.06.02.08.06.06.12l-.02.06a.14.14 0 0 1-.09.08c-.49.16-1 .28-1.53.36-.26.04-.59.25-.85.48-.82.74-1.26.6-2.32.5-.4-.04-.65.05-.95.33-.4.37-.69.75-.89 1.12-.23.44.29 1.1.6 1.53.21.27.7.86 1.49 1.79 1.47 1.73 2.38 4.04 1.97 6.3-.12.67-.44 1.3-.96 1.86-.16.17-.13.3.08.42.39.2.65.48.98.83a4.44 4.44 0 0 1 1.29 3.56c-.04.42-.2 1.05-.5 1.89l-.63 1.85a16.61 16.61 0 0 0-.4 7.36 79.8 79.8 0 0 1 .32 2.35.06.06 0 0 1-.06.03l-.04-.01a6.72 6.72 0 0 1-2.52-3.7 4.45 4.45 0 0 1-.18-1.3.07.07 0 0 0-.04-.02l-.04-.01a14.24 14.24 0 0 0-2.76 3.23 766.47 766.47 0 0 1-.8 1.3h-.02v-.02a8.79 8.79 0 0 1 .14-3.48c.14-.58.34-1.47.65-2.13.39-.8.8-1.51 1.27-2.14.2-.27.5-.49.67-.78.03-.06.02-.06-.04-.03Zm2.94-23.93-1.17.32a.2.2 0 0 0-.13.23l.02.08c.02.07.06.14.11.2.16.19.43.26.67.2l.32-.1c.16-.04.3-.14.38-.28.09-.13.1-.3.07-.44l-.03-.08a.19.19 0 0 0-.1-.12.2.2 0 0 0-.14-.01Z"/></svg>