<!-- by TradeStack --><svg width="56" height="56" viewBox="0 0 56 56" xmlns="http://www.w3.org/2000/svg"><path fill="#F0F3FA" d="M0 0h56v56H0z"/><path d="M18.41 39.9c-3.5 0-4.68-1.74-5.26-2.9 0 1.74 1.16 4.65 5.85 4.65 6.58 0 12.87-5.82 15.8-8.73a24.56 24.56 0 0 0 7.01-12.8c.94-4.65-2.34-6.6-4.1-6.98 5.27 3.5 1.18 12.22-3.5 17.45-4.68 5.24-10.72 9.31-15.8 9.31Z" fill="#FC6608"/><path d="M37.36 33.67c-5.76 6.27-13.83 9.69-17.29 10.26 2.88.57 11.53-2.28 17.87-9.12 7.27-7.85 6.53-13.12 5.19-14.83.57 1.52.63 6.73-5.77 13.69Z" fill="#FC6608"/><path fill-rule="evenodd" d="M29.87 22.83c-.77-.76-3.37-.08-5.19 1.71-1.73 1.71-2.43 3.8-1.73 4.56 1.05 1.15 3.8-.98 4.61-1.7.81-.73 3.79-3.1 2.3-4.57Zm-2.3 5.13c2.3-2.28 4.5-5.7 3.45-6.84-1.2-1.31-5.06-.3-7.7 2.09-2.65 2.38-3.3 5.72-2.1 7.04 1.16.57 4.04-.57 6.34-2.29Z" fill="#FC6608"/><path fill-rule="evenodd" d="M30.44 18.84c-2.6-2.1-6.93 1.8-8.64 3.42-1.3 1.24-5.19 6.27-3.47 7.55 2.45 1.47 7.52-1.93 9.23-3.56 1.31-1.24 4.54-6.08 2.88-7.4Zm-1.9 8.25c3.92-3.71 5.2-8.8 3.06-10.53-2.14-1.72-7.04.28-10.96 4-3.9 3.7-6.17 8.53-4.03 10.26 2.14 1.72 8.03-.02 11.94-3.73Z" fill="#FC6608"/><path fill-rule="evenodd" d="M33.33 14.28c-3.46-2.28-10.92 2.86-13.84 5.7C17.02 22.4 12 30.82 14.9 33.1c3.71 2.73 11.5-2.86 14.4-5.7 2.47-2.42 6.92-10.27 4.04-13.12Zm-2.57 14.73c6.14-6 8.4-13.12 5.05-15.9-3.36-2.78-11.06-.17-17.2 5.83-6.15 6-8.41 13.11-5.06 15.9C16.91 37.6 24.61 35 30.76 29Z" fill="#FC6608"/></svg>