<?xml version='1.0' encoding='utf-8'?>
<!-- by TradeStack -->
<svg width="56" height="56" viewBox="0 0 56 56" xmlns="http://www.w3.org/2000/svg"><path fill="url(#akgtevt1t)" d="M0 0h56v56H0z" /><path d="M4 28.05v.56l.14.14c.05.05.07.1.04.18a.85.85 0 0 0 .2.9c.04.05.07.11.06.18 0 .35.13.62.42.8.06.04.1.09.1.16.1.55 1.31 1.34 1.78 1.6.1.06.13.03.07-.08l-.04-.1c-.04-.06-.03-.13.03-.18A5.71 5.71 0 0 1 9 30.93c.11-.03.18-.11.2-.24a.07.07 0 0 0-.02-.05l-.03-.02h-.03c-1 .3-1.88.82-2.64 1.53-.05.05-.11.06-.18.03l-.21-.12a.34.34 0 0 1-.05-.57 9.32 9.32 0 0 1 3.73-1.8c.12-.03.17-.11.15-.25 0-.08-.05-.11-.13-.1l-.46.17c-.12.06-.24.1-.36.14-1.19.33-2.26.92-3.2 1.75a.36.36 0 0 1-.27.09.35.35 0 0 1-.25-.15c-.1-.13-.1-.26 0-.37.06-.08.12-.09.2-.04.07.04.15.05.24.03.13-.02.14-.07.03-.14l-.16-.1c-.09-.06-.09-.12 0-.18.87-.67 1.83-1.18 2.86-1.55.1-.04.13-.1.12-.17a.11.11 0 0 0-.05-.08.1.1 0 0 0-.08-.01 8.75 8.75 0 0 0-3.32 1.84.15.15 0 0 1-.18.03l-.26-.14c-.09-.05-.1-.11-.06-.2l.08-.14c.04-.07.1-.1.19-.1l.15.03c.1.01.14-.03.1-.13l-.06-.18c-.03-.08-.02-.14.05-.18 1.33-.95 2.77-1.61 4.33-2 .08-.02.1-.06.07-.14-.09-.24-.58-.03-.85.09l-.15.06c-1.1.32-2.13.8-3.11 1.43-.08.05-.14.03-.17-.06-.07-.19-.22-.25-.43-.2-.2.06-.2.01 0-.15A9.13 9.13 0 0 1 7.72 27a.35.35 0 0 0 .17-.13.1.1 0 0 0-.04-.14H7.8c-1.28.37-2.42 1-3.42 1.88a.15.15 0 0 1-.17.01.15.15 0 0 1-.06-.07.16.16 0 0 1-.01-.09l.08-.43c.02-.13.09-.17.2-.12l.35.14a.12.12 0 0 0 .17-.11c.01-.19-.07-.27-.26-.25l-.04-.01a.08.08 0 0 1-.04-.09l.03-.04A12.48 12.48 0 0 1 8.9 25.6a.1.1 0 0 0 0-.12.1.1 0 0 0-.06-.04c-.22-.04-.47.06-.68.15l-.2.07c-.97.3-1.76.62-2.36 1-.28.17-.53.18-.75.03-.07-.05-.07-.1 0-.15.69-.52 1.43-.91 2.24-1.19.11-.04.2-.1.26-.2a.1.1 0 0 0 0-.1.08.08 0 0 0-.04-.03h-.06l-1.84.84c-.06.02-.12.01-.16-.04l-.03-.05c-.06-.06-.05-.13 0-.18.18-.17.38-.28.62-.32A.43.43 0 0 0 6 25.2a5.5 5.5 0 0 1 2-.83c.07-.02.11-.06.13-.13.02-.1-.01-.14-.11-.1l-2.14.8c-.05.02-.09 0-.1-.06v-.07c0-.07.03-.13.1-.16l1.16-.54c.22-.1.21-.13-.02-.08-.56.12-1.05.38-1.5.77-.05.05-.06.11-.03.18.06.13-.2.35-.46.57-.17.14-.33.28-.39.38-.04.07-.03.1.05.06l.2-.08c.06-.02.1 0 .14.05.12.2-.32.47-.46.5a.2.2 0 0 0-.14.11l-.19.39a.05.05 0 0 0 .01.06.05.05 0 0 0 .06 0c.19-.1.33-.13.45-.1.09.03.11.08.08.17-.13.3-.35.44-.65.39-.07-.01-.1.02-.08.08.05.19.02.36-.11.5Zm.54 1.6c-.52-.15-.25-.85.2-.6l.15.03h.19c.13 0 .15.05.05.14l-.44.39a.15.15 0 0 1-.15.03Zm5.7-5.2a.1.1 0 0 0-.05-.04c-.12-.08-.23-.08-.34 0-.07.06-.07.1 0 .16.11.07.22.08.32.04a.1.1 0 0 0 .05-.04.11.11 0 0 0 .01-.11Zm-.83 0a.12.12 0 0 1 .1.03c.21.21-1.2.44-1.24.42a.1.1 0 0 1-.05-.04.1.1 0 0 1 .02-.12.1.1 0 0 1 .05-.03l1.12-.26Zm1.5 1.78-.05-.3c-.26.12-.52.16-.8.12-.07-.01-.12 0-.17.05-.1.11-.26.12-.43.13-.2.01-.43.03-.62.2-.1.08-.08.13.05.14.26.02.5-.05.7-.2a.2.2 0 0 1 .16-.04c.26.04.5 0 .71-.13a.25.25 0 0 1 .19-.03l.26.06Zm.4 1.73.05.3-.15.01c-.09 0-.12-.03-.09-.11a.33.33 0 0 1 .18-.2Zm-.4.18c-.11-.2-.48.01-.61.1a.18.18 0 0 1-.17.03.62.62 0 0 0-.69.19c-.1.1-.08.16.07.16.24 0 .46-.07.66-.21.05-.03.1-.04.15-.03a.7.7 0 0 0 .53-.07c.08-.04.1-.1.05-.17Zm.2 2.14c-.03-.04-.03-.07 0-.1l.08-.08a.14.14 0 0 1 .13-.05h.07c.12.03.14.08.06.18-.11.13-.22.15-.33.05Zm-.23-.13a.53.53 0 0 0-.38.08.27.27 0 0 1-.18.04c-.17-.02-.32.03-.45.18-.03.02-.03.05 0 .07l.05.05c.03.04.08.05.12.03.07-.04.24-.08.41-.13.23-.06.46-.13.49-.17.06-.08.03-.13-.06-.15ZM7.5 32.57c.59-.75 1.7-1.12 2.55-1.38h.03a.06.06 0 0 1 .05.04v.03c-.01.11-.38.26-.83.44-.75.3-1.7.69-1.53 1.11.03.07 0 .1-.07.09a.3.3 0 0 1-.22-.16.15.15 0 0 1 .02-.17Zm3.17-.68c.12-.1.1-.14-.05-.1l-.59.15c-.18.04-.18.08 0 .1.26.04.47-.01.64-.15ZM8.73 33h-.15c-.3-.42.67-.82.99-.95l.04-.01c.05-.02.07 0 .07.06v.05c0 .02-.01.04-.03.05l-.71.39a.26.26 0 0 0-.13.16l-.08.25Zm1.2-.56c-.03 0-.05.01-.06.04a.45.45 0 0 0-.39.22c-.05.1-.03.13.08.1a.65.65 0 0 0 .41-.28c.04-.05.02-.08-.03-.08Z" fill="#28B2E8" /><path d="m11 25 .94 3.65a.6.6 0 0 0 .54.35c.3 0 .58-.33.68-.5l1.33-2.51 1.29 2.51c.08.17.33.5.66.5.4 0 .51-.32.64-.67v-.02c.1-.28.66-2.32.92-3.31h-.91l-.65 2.9-1.4-2.5c-.09-.13-.33-.4-.55-.4-.29 0-.47.18-.6.4-.12.19-1 1.74-1.41 2.5l-.54-2.9H11Zm13 0v.8h-4.72c-.26 0-.46.2-.46.43v1.53c0 .24.2.43.46.43H24V29h-4.72c-.7 0-1.28-.53-1.28-1.18v-1.64c0-.65.57-1.18 1.28-1.18H24Zm-4.77 1.61H24v.8h-4.77v-.8ZM24.3 29v-4h4.4c.35.05 1.05.37 1.05 1.28 0 .29-.21.61-.31.74.1.13.3.49.3.88 0 .49-.4 1.1-.96 1.1H24.3Zm.7-3.2v2.44h3.52c.23 0 .42-.19.42-.41a.42.42 0 0 0-.42-.42h-3a.21.21 0 0 1-.2-.2v-.4c0-.12.09-.21.2-.21h3.01a.4.4 0 0 0 .41-.4.4.4 0 0 0-.4-.4H25Zm5 2.39v.8h4.47c.68 0 1.24-.53 1.24-1.19 0-.65-.56-1.18-1.24-1.18H31.2a.4.4 0 0 1-.4-.38.4.4 0 0 1 .4-.4H38V29h.7v-3.15H41V25h-9.79c-.67 0-1.21.59-1.21 1.23 0 .63.54 1.15 1.21 1.15h3.32c.23 0 .42.18.42.4 0 .23-.19.41-.42.41H30Zm12.27-2.79L40 29h.93c.4-.61 1.01-1.67 1.39-2.31l.31-.53.01-.02c.1-.15.22-.33.4-.33.14 0 .3.23.37.35L45.1 29H46a193.5 193.5 0 0 0-2.23-3.6l-.04-.05c-.12-.15-.27-.35-.7-.35-.38 0-.66.27-.76.4Zm3.96-.4v4H47v-3.14h3.72c.25 0 .45.2.45.43v.34c0 .24-.2.37-.45.37h-3.35v.77h2.68L50.9 29H52l-1.02-1.3c.6-.16 1.02-.62 1.02-1.26 0-.8-.67-1.44-1.5-1.44h-4.27Z" fill="#FEFEFE" /><path opacity=".5" d="M34 30H15v2h19v-2Zm13 0H36v2h11v-2Z" fill="#28B2E8" /><path d="m43.05 26.65.33 1.08h1.09l-.88.66.34 1.08-.88-.67-.87.67.33-1.08-.87-.66h1.08l.33-1.08Z" fill="#FAB53F" /><defs><linearGradient id="akgtevt1t" x1="10.42" y1="9.71" x2="68.15" y2="76.02" gradientUnits="userSpaceOnUse"><stop stop-color="#1A1E21" /><stop offset="1" stop-color="#06060A" /></linearGradient></defs></svg>