<?xml version='1.0' encoding='utf-8'?>
<!-- by TradeStack -->
<svg width="56" height="56" viewBox="0 0 56 56" xmlns="http://www.w3.org/2000/svg"><path fill="#F0F3FA" d="M0 0h56v56H0z" /><path fill-rule="evenodd" d="M47 35a5 5 0 1 0-10 0 5 5 0 0 0 10 0Zm-3 0a2 2 0 1 0-4 0 2 2 0 0 0 4 0Z" fill="#181B1E" /><path d="M8 21h3.65c1.08 0 1.99 1.1 2.23 2.1l3.54 14.95A2.58 2.58 0 0 0 20 40a2.57 2.57 0 0 0 2.53-2L26 22.5 29.47 38A2.57 2.57 0 0 0 32 40c1.24.01 2.3-.79 2.58-1.95L39 18h-3l-4 17.5-3.37-15.51A2.62 2.62 0 0 0 26 18c-1.26 0-2.25.81-2.5 2L20 35.5l-2.77-12.81a6.05 6.05 0 0 0-5.9-4.69H8v3Z" fill="#181B1E" /></svg>