<!-- by TradeStack --><svg viewBox="0 0 56 56" xmlns="http://www.w3.org/2000/svg"><path fill="#F0F3FA" d="M0 0h56v56H0z"/><path d="M33.6 22.55c.22.2.52.3.9.3h.06c1.11 0 8.7.12 7.12 2.35a.49.49 0 0 0-.1.3v2.44c0 .1.05.2.13.27.27.27.23.57-.14.9l.02.54v7.86c0 .14.05.25.17.33.32.22.32.47-.01.74a.41.41 0 0 0-.16.32v2.16c0 .1.03.2.08.29.24.38.25.56 0 .56-1.8 1.94-5.14 2.01-8.07 2.08-2.8.07-5.5-.53-7.25-1.83a.25.25 0 0 1-.11-.21v-3.04c0-.1-.03-.2-.1-.28-.21-.26-.2-.52.03-.77a.42.42 0 0 0 .08-.14.37.37 0 0 0 .02-.12v-2.06c0-.11-.05-.2-.15-.24l-.13-.05c.33-.13.4-.55.21-1.29l.06-3c0-.2-.06-.21-.18-.06l-.1.13a.64.64 0 0 0-.08-.33l-.36-.49c-.07-.1-.06-.19.04-.26l.59-.43c.14-.03.28-.16.43-.4.3.2.54.23.74.06.08-.06.18-.1.29-.08a.9.9 0 0 0 .54-.13c.2-.17.26-.37.2-.57a1.63 1.63 0 0 1-.45-.46.39.39 0 0 1-.05-.31c.09-.34.26-.65.51-.93l.16-.5a.65.65 0 0 1 .34-.52.6.6 0 0 0 .18-.15c.22-.26.47-.47.76-.61a.22.22 0 0 1 .17-.01.21.21 0 0 1 .13.11l.06.14c.03.08 0 .12-.09.12l-.37-.02c-.08 0-.1.04-.09.1l.06.14.01.01.04.02 1.73.05c.77.07 1.4.05 1.9-.05.26-.06.56-.19.92-.4.4 0 .52-.25.37-.75a.4.4 0 0 1 .04-.3c.1-.2.06-.37-.14-.55a20.8 20.8 0 0 0-1.22-.96l.26-.02Z" fill="#3F4041"/><path d="M27.45 11.79c.18.46.49.8.92 1.02 0 .17.07.32.24.44a.15.15 0 0 1 .06.12l-.01.06-.04.05c-.07.06-.2.1-.37.13.03 0 .06 0 .09-.02a6.79 6.79 0 0 0-2.57-2.77.22.22 0 0 0-.16.04.2.2 0 0 0-.06.06c-.08.14-.12.36-.12.66 0 .06-.04.1-.13.16a.19.19 0 0 1-.22-.05.16.16 0 0 1-.04-.1l.02-.55a.4.4 0 0 0-.04-.2.41.41 0 0 0-.15-.16 2.46 2.46 0 0 0-1.55-.4.36.36 0 0 0-.29.17c-.16.27-.38.39-.65.34.5-.72 1.1-.95 1.8-.68l1.11.44c.77.23 1.49.65 2.16 1.24Z" fill="#493F1E"/><path d="M28.34 13.6a5.93 5.93 0 0 0-3.91-1.38 4.39 4.39 0 0 0-3.9 2.16c-.07-.04-.16-.05-.27-.02v-.43c.66-.5.91-1.46 1.26-2.07a.31.31 0 0 1 .12-.11.33.33 0 0 1 .43.1 1 1 0 0 0 .5.42c.04.02.07 0 .09-.04l.06-.14a.14.14 0 0 0 0-.1.15.15 0 0 0-.05-.07c-.4-.3-.49-.67-.3-1.13.28.05.5-.07.66-.34.06-.1.16-.16.29-.17.52-.05 1.03.08 1.55.4.06.04.11.1.15.15a.4.4 0 0 1 .04.2l-.02.56c0 .03.01.07.04.1.02.03.05.05.1.06l.12-.01c.09-.05.13-.1.13-.15 0-.3.04-.53.12-.67a.2.2 0 0 1 .13-.1.22.22 0 0 1 .17.03 6.79 6.79 0 0 1 2.49 2.74Z" fill="#FFFF01"/><path d="M22.38 10.8c-.2.45-.1.82.29 1.12.02.02.04.04.05.08v.1l-.06.13c-.02.04-.05.06-.1.04a1 1 0 0 1-.49-.41.31.31 0 0 0-.11-.11.33.33 0 0 0-.44.11c-.35.61-.6 1.57-1.26 2.07l-.04-1.07.42-1.1c.31.2.52.24.63.12.36-.41.73-.78 1.1-1.09Z" fill="#646567"/><path d="M28.47 11.72c-.05.2-.05.4 0 .59 0 .13-.03.3-.1.5a1.89 1.89 0 0 1-.92-1.02c.21-.38.42-.6.63-.7.12-.04.21-.01.28.1.07.14.11.32.1.53Z" fill="#706E8C"/><path d="m20.64 11.75-.42 1.11c-.07-.41-.02-.79.15-1.13.04-.07.1-.1.17-.06.05.02.09.05.1.08Z" fill="#303249"/><path d="m28.34 13.6-.1.01c-.06.08-.1.13-.15.14-.73-.6-1.7-.8-2.93-.6.07-.06.07-.15 0-.29-.06-.1-.14-.13-.25-.1l-2.57.63c-.76.25-1.27.6-1.52 1.04-.06-.11-.16-.13-.3-.05a4.39 4.39 0 0 1 3.91-2.16 5.93 5.93 0 0 1 3.9 1.37Z" fill="#9B8E05"/><path d="m25.16 13.15.24.8c-.3.4-.52.55-.66.43-.07-.07-.15-.07-.22 0l-.09.08a.12.12 0 0 0-.03.05.12.12 0 0 0 .02.11 2.04 2.04 0 0 0 .83.19c.12-.02.16.13.12.43a3.5 3.5 0 0 1-.75 1.81c-.08.1-.16.1-.26.04a3.4 3.4 0 0 1-1.12-1.47.86.86 0 0 0-.56-.52c-.02-.14.03-.21.16-.2l.69.13c.1.03.2.08.27.16.15.17.33.2.54.05.11-.06.12-.14.02-.23-.07-.06-.17-.08-.3-.06-.18.04-.25-.02-.23-.18.01-.04.08-.11.2-.2.02-.02.02-.04.01-.07l-.03-.08c-.04-.07-.09-.09-.16-.04-.08.04-.15.1-.22.15a.36.36 0 0 1-.2.09c-.25.02-.43-.1-.53-.36.06-.41-.13-.7-.56-.87l2.57-.63c.11-.03.2 0 .25.1.07.14.07.23 0 .29Z" fill="#18191C"/><path d="m28.09 13.75-.02.25c.03.16-.05.29-.23.4-.26.16-.33.28-.2.36l-1.52.87c-.05.03-.09.02-.13 0l-.07-.08c-.04-.04-.03-.07.01-.1.13-.1.2-.19.23-.28.04-.14-.02-.19-.16-.14l-.63.21c.04-.3 0-.45-.12-.43.23-.16.28-.44.15-.86l-.24-.8c1.23-.2 2.2 0 2.93.6Z" fill="#8E8DC0"/><path d="m31.26 13.22-2.23.86c-.03.01-.06 0-.08-.03l-.04-.11c-.01-.02 0-.03.02-.04l2.29-.8.01.01.02.02.01.03v.04l.01.02h-.01Z" fill="#18191C"/><path d="m23.9 13.77-.22-.22c-.1-.1-.1-.2.02-.28a.34.34 0 0 1 .2-.05c.04 0 .1.04.14.11.1.13.1.27.05.4-.04.1-.1.11-.19.04Z" fill="#706E8C"/><path d="M22.34 13.39c.43.16.62.46.56.87-.3.06-.33.27-.06.64-.13-.01-.18.06-.16.2a1.12 1.12 0 0 0-.66.08c-.12.06-.14.14-.03.23.13.12.22.26.25.4.02.12-.03.18-.17.16a3.5 3.5 0 0 0-1.55.08c-.1.04-.13.1-.09.19l.4.92a.37.37 0 0 0 .23.2c.37.12.68.13.94.02.1-.04.2-.03.28.05.37.33.78.58 1.23.74.57.2 1.27 0 1.97-.04a.05.05 0 0 1 .04.02v.04l-.01.09c-.02.04-.05.07-.1.07h-1.03c-.05 0-.1.01-.14.04a.21.21 0 0 0-.08.12l-.05.2c-.04.15-.12.18-.26.12a1.06 1.06 0 0 1-.1-.06.35.35 0 0 0-.34-.04c-.5.2-.65-.14-1.02-.06a.69.69 0 0 0-.33.17l-.53-.36c-.21-.14-.32-.09-.32.16v.63c0 .03-.01.07-.04.1a.16.16 0 0 1-.1.04l-.12.02-.6-1.06a.32.32 0 0 0-.23-.17.6.6 0 0 1-.4-.23c-.04-.09-.05-.15-.02-.17l-.3-1.36.15-.27c.08-.06.1-.16.05-.27l.41-.58c.34-.06.45-.2.33-.43.2-.13.35-.28.48-.46.25-.44.76-.8 1.52-1.04Z" fill="#8E8DC0"/><path d="M20.26 13.93v.43a.54.54 0 0 1-.21 0c-.15-.04-.17-.12-.09-.23a.62.62 0 0 1 .3-.2Z" fill="#18191C"/><path d="M28.91 14.36c-.37-.04-.61.05-.72.27-.22 0-.4.05-.55.13-.13-.08-.06-.2.2-.36.18-.11.26-.24.23-.4.5.07.79.2.84.36Z" fill="#303249"/><path d="M28.91 14.36c.24.09.44.2.6.36 0 .18-.06.28-.2.3-.07.02-.17 0-.3-.07a1.5 1.5 0 0 0-.5-.17c-.04-.09-.14-.14-.32-.15.1-.22.35-.31.72-.27Z" fill="#8E8DC0"/><path d="M19.65 15.02a4.95 4.95 0 0 0-1.63-.34c-.24 0-.24-.02 0-.04.53-.04 1.09.04 1.65.25.02 0 .03.02.02.04l-.04.09Z" fill="#18191C"/><path d="M29.9 15.73c.24-.37-.02-.5-.75-.4l-2.02.21c-.04 0-.05 0-.05-.04 0-.03.02-.04.04-.05.35-.03.7-.08 1.05-.15.25-.05.36-.22.35-.52.16.02.32.08.5.17.12.06.22.09.3.08.13-.03.2-.13.2-.3.46.22.71.57.74 1.05 0 .11-.04.14-.14.08l-.21-.13Z" fill="#3F4041"/><path d="M20.34 14.89c.12.22 0 .37-.33.43.02-.2.12-.35.33-.43Z" fill="#292A2D"/><path d="M32.07 14.92c0 .03-.59.08-1.77.14-.03 0-.05 0-.05-.03l-.01-.03v-.03c0-.03.02-.04.05-.04 1.18-.04 1.78-.04 1.78-.01Z" fill="#18191C"/><path d="M29.9 15.73c-.08.05-.13.14-.15.28.15.27.16.47.05.6l-1.52-.15c-.08-.12-.3-.15-.64-.1-.34.03-.63-.1-.87-.4-.08-.09-.06-.11.06-.07 1.1.42 1.87.24 2.32-.56.73-.1.99.03.76.4Z" fill="#706E8C"/><path d="m29.97 16.18.12.4c.1.27.13.5.06.66-.04.1-.12.13-.22.06l-.4-.28c-.13-.16-.04-.3.27-.4.11-.14.1-.34-.05-.61.09.04.16.1.22.17Z" fill="#303249"/><path d="m30.09 16.57-.12-.39c.18.15.22.28.12.4ZM31.5 16.63c.7.1 1.26.15 1.27.1 0-.05-.54-.17-1.23-.28a4.5 4.5 0 0 0-1.26-.1c-.01.05.54.18 1.23.28Z" fill="#18191C"/><path d="m19.4 16.44.3 1.36-.05-.12c-.04-.1-.11-.12-.2-.03l-.27.25c-.15.15-.2.12-.16-.08l.07-.35c.03-.14-.03-.19-.17-.14l-.9.28c.26-.23.57-.36.92-.4.12-.02.2-.09.24-.2l.23-.57Z" fill="#303249"/><path d="m28.28 16.46 1.52.15c-.3.12-.4.25-.28.41l.01.35a.8.8 0 0 1-.14.38c-.06.06-.17.11-.35.15a.79.79 0 0 0-.51.3.32.32 0 0 0-.39-.07c-.08.04-.15.12-.23.24-.08.14-.17.26-.27.38-.16 0-.3.05-.39.17-.48-.02-.93.17-1.33.55a.22.22 0 0 1-.17.06c-.13 0-.2-.07-.22-.2 0-.14-.08-.23-.23-.26-.23-.06-.4-.11-.5-.17-.19-.1-.18-.15.02-.14l.38.02c.12 0 .22-.04.3-.14.13-.17.2-.33.18-.47 0-.11.03-.2.1-.3.81-.96 1.65-1.44 2.5-1.4Z" fill="#8E8DC0"/><path d="m30.86 18.29-.2.05c-.11.03-.2.1-.26.2-.18.36-.5.67-.96.92a.46.46 0 0 1-.33.05c-.72-.13-1.27.16-1.98.22-.17-.03-.26-.13-.26-.27.13-.1.26-.28.38-.54.1-.12.23-.18.4-.17a.32.32 0 0 0-.05.13c0 .12.05.16.16.12.45-.14.7-.4.77-.8.1-.15.28-.26.51-.3.18-.04.3-.09.35-.15a.8.8 0 0 0 .14-.38c-.02.26.03.4.15.44.4.1.8.27 1.18.48Z" fill="#303249"/><path d="M18.02 17.6a.52.52 0 0 1-.44.17c-.13 0-.13-.03 0-.06l.44-.1Z" fill="#18191C"/><path d="m20.95 19.43-.36.13c-.1.07-.27.3-.54.7-.11.16-.25.2-.42.13-.1-.05-.15-.13-.12-.24.12-.43.04-.64-.26-.66l.98-.87a.1.1 0 0 0 .04-.06.1.1 0 0 0 0-.06.11.11 0 0 0-.05-.05.12.12 0 0 0-.06-.02.3.3 0 0 0-.27.17c-.1.17-.18.17-.26 0-.1-.2-.07-.4.08-.63.1.12.23.2.41.23.1.02.19.08.24.17l.59 1.06Z" fill="#303249"/><path d="M30.86 18.29c-.15.66-.64.92-1.28 1.33-.1.06-.14.15-.12.26.08.42.11.77.1 1.04-.01.56.16.61.5.17.37-.46.44-.93 1.22-.73.12.03.2 0 .27-.1.11-.19.27-.3.46-.33a.4.4 0 0 1 .06.24c-.06.22-.03.34.1.37l-.04.51c0 .12-.07.18-.2.17l-.56-.02a.3.3 0 0 0-.27.13c-.17.24-.4.44-.7.58-.16.09-.15.16.02.21.53.17.49.4 1.24.29.6-.1 1.16-.04 1.68.16.43.32.84.64 1.22.96.2.18.25.36.14.54a.4.4 0 0 0-.04.3c.15.5.02.76-.37.76a.64.64 0 0 0-.1-.66.24.24 0 0 1-.02-.29c.09-.14.06-.26-.08-.34a.23.23 0 0 0-.13-.04c-.6.03-.96-.23-1.07-.78a.58.58 0 0 0-.27-.39.64.64 0 0 0-.49-.07c-.55.14-1.11.15-1.7.03a.4.4 0 0 0-.24.03c-.12.05-.17.12-.17.21 0 .14-.05.17-.16.1-.16-.1-.32-.06-.48.1a.45.45 0 0 0-.14.31c-.01.28-.07.49-.16.64-.08.14-.04.2.12.2.45-.02.94.12 1.46.43a.28.28 0 0 0 .37-.1.25.25 0 0 0 .03-.13c0-.25-.15-.45-.44-.6a.46.46 0 0 1-.22-.23.75.75 0 0 1-.04-.5c.02-.05.05-.1.1-.14a.3.3 0 0 1 .32-.04l.12.11c.26.47.63.75 1.12.86.13.03.18.11.15.23-.12.5-.35 1-.7 1.5l-1.73-.04c-.02 0-.04-.01-.05-.03a.66.66 0 0 1-.06-.13c-.01-.07.01-.1.09-.1l.37.01c.1 0 .12-.04.09-.12l-.06-.14a.2.2 0 0 0-.13-.11.22.22 0 0 0-.17 0c-.29.15-.54.36-.76.62a.6.6 0 0 1-.18.15c-.2.1-.31.28-.34.52-.43.18-.82.46-1.15.83a.53.53 0 0 1-.3.17l-2.23.52c-.07-.65.24-.77.38-1.22.3-.96.32-2.24 1.76-2.15l.7.04c.12 0 .22.06.28.16.17.27.44.35.8.26a.38.38 0 0 0 .17-.1.36.36 0 0 0-.02-.54l-.85-.7.82-.5a.28.28 0 0 0 .11-.11.27.27 0 0 0-.02-.29.29.29 0 0 0-.12-.1c-.62-.27-.74-.67-.38-1.2.4.15.54-.07.46-.64a.58.58 0 0 0-.2-.34.61.61 0 0 0-.37-.15l-1.24-.05c-.17-.01-.22-.09-.14-.23a.38.38 0 0 1 .13-.13c.7-.06 1.26-.35 1.98-.22.12.02.23 0 .33-.05.45-.25.78-.56.96-.91.06-.1.15-.18.27-.2l.19-.06Z" fill="#8E8DC0"/><path d="M32.01 19.93a.67.67 0 0 0-.46.32c-.06.1-.15.14-.27.11-.78-.2-.85.27-1.21.73-.35.44-.52.39-.5-.17 0-.27-.03-.62-.1-1.04-.03-.11.01-.2.11-.26.64-.4 1.13-.67 1.28-1.33.54.34.93.89 1.15 1.64Z" fill="#303249"/><path d="M22.06 18.84c.4 1.23 2.18.78 2.82 1.85a.27.27 0 0 0 .16.13.29.29 0 0 0 .21-.03c.67-.37 1.2-.8 1.62-1.33 0 .14.09.24.26.27a.38.38 0 0 0-.13.13c-.08.14-.03.22.14.23l1.24.05c.14 0 .27.06.37.15.1.09.18.2.2.34.08.57-.07.8-.46.65.13-.23.19-.41.18-.55-.02-.14-.14-.23-.38-.28a3.74 3.74 0 0 0-2.96.59.42.42 0 0 1-.33.06.42.42 0 0 1-.27-.2c-.28-.5-.8-.78-1.54-.85a.27.27 0 0 0-.22.08.33.33 0 0 1-.26.1c-.81-.08-1.38.15-1.69.7a6.2 6.2 0 0 0-.7 4.14l.05.14a.1.1 0 0 1-.01.08c-.05.07-.07.06-.08-.02-.02-.19-.12-.3-.3-.33-.27 0-.41-.08-.4-.26.35-.34.39-.84.1-1.52a.14.14 0 0 0-.05-.08c-.04-.03-.08-.03-.12 0l-.08.07-.09.02-.07-.08c.43-.22.53-.54.27-.97.1-.16.28-.32.52-.5l.1.09c.1.08.17.07.21-.05.2-.53.5-1 .89-1.43.08-.1.08-.18 0-.27a1.4 1.4 0 0 0-.67-.4l.36-.13.12-.02c.04 0 .07-.02.1-.04a.14.14 0 0 0 .04-.1v-.63c0-.25.1-.3.32-.16l.53.36Z" fill="#706E8C"/><path d="M19.25 19.5c.3 0 .38.22.26.65-.03.11.01.2.12.24.17.08.3.03.42-.14.27-.38.44-.62.54-.7.27.09.5.22.67.41.08.09.08.18 0 .27-.4.43-.69.9-.89 1.43-.04.12-.11.13-.21.05l-.1-.09.29-.96c.07-.23.01-.26-.17-.1-.32.3-.5.59-.53.89 0 .05-.02.1-.06.14a.26.26 0 0 1-.14.08.8.8 0 0 1-.68-.17.25.25 0 0 1-.1-.2c0-.04.02-.08.04-.11a.26.26 0 0 1 .08-.1c.25-.16.3-.36.18-.59-.19-.34-.22-.47-.05-.8l.33-.2Z" fill="#8E8DC0"/><path d="M18.92 19.7c-.17.33-.14.46.05.8.13.23.07.43-.18.6a.25.25 0 0 0-.09.31l.07.1c.2.15.43.2.68.16.05-.01.1-.04.14-.08a.24.24 0 0 0 .06-.14c.03-.3.2-.6.53-.88.18-.17.24-.14.17.1l-.29.95c-.24.18-.41.34-.52.5l-.9.3c-.27.01-.45-.07-.53-.26a.67.67 0 0 0-.2-.26l-.72-.55a.97.97 0 0 1-.23-.24c-.15-.25-.45-.32-.88-.23a.14.14 0 0 0-.07.04.13.13 0 0 0-.02.14c0 .03.03.05.05.06.43.26.9.47 1.38.65.59.21.57.34-.05.38l-.37-.1a.3.3 0 0 0-.31.08c-.27.26-.56.35-.86.27a.49.49 0 0 0-.44.1.45.45 0 0 0-.14.41c.29 1.46.75 2.75 1.39 3.85l-.03.28c-.22-.12-.41-.15-.58-.1l.16-.1c.12-.06.14-.15.08-.27-.57-1-.98-2.05-1.24-3.16a.52.52 0 0 0-.19-.3c-.27-.22-.37-.54-.3-.95a.3.3 0 0 0-.11-.29.48.48 0 0 1-.08-.08.23.23 0 0 1 .04-.31c1.25-1.07 3.24-1.34 4.53-1.79Z" fill="#303249"/><path d="m32.23 20.42-.06.12c-.13-.03-.16-.15-.1-.37l.16.25Z" fill="#3F4041"/><path d="m33.6 22.55-.26.02a3.22 3.22 0 0 0-1.68-.16c-.75.11-.71-.12-1.24-.29-.17-.05-.18-.12-.02-.2.3-.15.53-.35.7-.6a.3.3 0 0 1 .27-.12l.57.02c.12.01.19-.05.2-.17l.03-.5.06-.13c.14.91.6 1.62 1.37 2.13Z" fill="#303249"/><path d="M18.63 22.41c-.08.18-.07.38.03.58-.44.1-.87.01-1.27-.28-.1-.08-.2-.07-.3.02l-.08.07a.32.32 0 0 1-.33.08c-.22-.08-.4-.1-.56-.08-.15.01-.22.1-.22.24v.55c0 .16.08.23.23.2.16-.02.32.05.49.23.08.09.17.1.28.04l.25-.14a.22.22 0 0 1 .2 0c.11.05.17.13.17.25 0 .13.07.2.2.21l1.13.16-.03.34c-.33.19-.65.17-.95-.05-.1-.07-.17-.06-.23.04-.25.42-.55.52-.92.3-.37-.22-.44-.15-.2.2l.11.26c.05.1.12.18.23.22.47.2.72.5.76.9l-.52.48c-.08.08-.17.07-.25-.01a.76.76 0 0 1-.21-.46c-.64-1.1-1.1-2.39-1.4-3.85a.43.43 0 0 1 .15-.4.47.47 0 0 1 .44-.11c.3.08.59-.01.86-.27a.3.3 0 0 1 .3-.08l.38.1c.62-.04.64-.17.05-.38a8.49 8.49 0 0 1-1.43-.7.12.12 0 0 1 .02-.15.14.14 0 0 1 .07-.04c.43-.09.73-.02.88.23.06.09.13.17.23.24l.71.55c.1.07.16.16.2.26.1.19.27.27.53.25Z" fill="#8E8DC0"/><path d="M34.3 25.13c-.37.21-.67.34-.93.4-.5.1-1.13.12-1.9.05.35-.52.58-1.02.7-1.5.03-.13-.02-.2-.15-.24-.49-.1-.86-.4-1.12-.86a.28.28 0 0 0-.13-.1.3.3 0 0 0-.32.03.28.28 0 0 0-.09.14.75.75 0 0 0 .04.5c.05.1.12.18.22.23.3.15.44.35.44.6 0 .05 0 .1-.03.13a.26.26 0 0 1-.1.1.28.28 0 0 1-.27 0c-.52-.3-1-.45-1.46-.44-.16.01-.2-.05-.12-.19.1-.15.15-.36.16-.64 0-.12.05-.22.14-.31.16-.16.32-.2.48-.1.1.07.16.04.16-.1 0-.09.05-.16.17-.21a.4.4 0 0 1 .24-.03c.59.12 1.15.1 1.7-.03a.65.65 0 0 1 .49.07.61.61 0 0 1 .27.4c.11.54.47.8 1.07.77.05 0 .1.01.13.04.14.08.17.2.08.34-.06.1-.05.2.02.3.16.19.2.4.1.65ZM18.66 23c.12.18.32.21.6.1l.08.07-.36.12c-.11.03-.17.1-.16.21l.03 1.04-1.13-.16c-.13-.01-.2-.08-.2-.21 0-.12-.06-.2-.17-.26a.22.22 0 0 0-.2 0l-.25.15c-.11.06-.2.05-.28-.04-.17-.18-.33-.25-.49-.23-.15.03-.23-.04-.23-.2v-.55c0-.14.07-.23.22-.24.16-.02.34 0 .56.08a.33.33 0 0 0 .33-.08l.08-.07c.1-.1.2-.1.3-.02.4.29.83.38 1.27.28Z" fill="#303249"/><path d="M19.68 23.16h-.25l.08-.08c.04-.03.08-.03.12 0 .03.02.05.05.05.08Z" fill="#18191C"/><path d="m28.08 23.46.85.7c.05.05.09.1.11.17a.36.36 0 0 1-.09.38.39.39 0 0 1-.17.1c-.36.1-.63 0-.8-.26a.32.32 0 0 0-.28-.16l-.7-.04c-1.44-.1-1.47 1.2-1.76 2.15-.14.45-.45.57-.38 1.22-.12.04-.09.16.1.35.28.3.41.62.9.54.12-.02.21.01.28.1.13.18.29.32.46.41-.15.24-.3.37-.43.4-.04-.32-.19-.5-.44-.5-.05 0-.1 0-.15.04a.22.22 0 0 0-.08.12l-.15.57c-.02.08-.07.13-.16.14-.25.02-.4.12-.45.3a6.02 6.02 0 0 1-1.24 2.24l-.14-.27a4.16 4.16 0 0 0 1.21-2.1c.03-.11.1-.2.19-.27.6-.41.6-.95 0-1.61a.9.9 0 0 1-.06-1.13 3.9 3.9 0 0 0 .7-1.82c.08-.67.55-.89 1.2-1.07.5-.15 1-.38 1.48-.7Z" fill="#646567"/><path d="m18.82 24.88.05.47c.01.17.07.18.17.05l.53-.72c0 .18.14.26.42.26-.52.41-.9.9-1.1 1.49l-1.27.32c-.04-.4-.3-.7-.76-.9a.4.4 0 0 1-.23-.22l-.11-.26c-.24-.35-.17-.42.2-.2.37.22.67.12.92-.3.06-.1.14-.11.23-.04.3.22.62.24.95.05Z" fill="#303249"/><path d="M18.88 26.43c-.03 1.73.7 3 2.18 3.8l-.36.98a.1.1 0 0 1-.05.05.1.1 0 0 1-.08 0 1.82 1.82 0 0 0-.73-.13.1.1 0 0 0-.06.04.11.11 0 0 0-.02.08c0 .02.01.06.03.08l.07.08.16.1c.05.02.08.06.1.11.02.05.02.1 0 .15-.08.2-.27.35-.56.42a.22.22 0 0 0-.08.03.19.19 0 0 0-.05.06c-.12.17-.03.32.27.42.12.05.26.05.39.02.12-.03.24-.1.32-.2a3.4 3.4 0 0 1 1.4-1c.5.53 1.01.75 1.55.64l.14.27c.65.55 1.93.3 1.55-.81a.28.28 0 0 1 .02-.24.36.36 0 0 1 .2-.16c.45-.14.66-.32.63-.52.05.1.08.2.08.33l-.57 1.08a.4.4 0 0 0-.03.32c.08.24.11.48.1.72-.01.13.03.23.13.3l.6.51c.18.74.11 1.16-.22 1.29a1.94 1.94 0 0 1-.88-.63.26.26 0 0 0-.29-.1c-.24.06-.44.16-.6.29-.15-.23-.28-.3-.4-.22a11.06 11.06 0 0 1-3.56-1.36.75.75 0 0 0-.33-.1.73.73 0 0 1-.54-.27.27.27 0 0 0-.19-.1l-.13.01c-.11.08-.2.04-.24-.1l-.24-.79a.47.47 0 0 0-.19-.24.91.91 0 0 1-.45-.87c.01-.1 0-.2-.05-.3l-.4-.98c-.27-.21-.37-.5-.3-.87.02-.14 0-.24-.03-.28-.07-.08-.18-.1-.36-.07.27-.19.34-.42.2-.72-.04-.09-.1-.11-.2-.08l-.14.06c-.11.05-.16.01-.16-.1.01-.14.04-.27.1-.39l.03-.28c.02.19.09.34.2.46.09.08.18.09.26 0l.52-.47 1.26-.32Z" fill="#493F1E"/><path d="m16.03 26.94-.24.37c-.07.1-.13.1-.18-.02l-.1-.21a.15.15 0 0 0-.11-.1c-.03 0-.05 0-.07.02a.14.14 0 0 0-.06.04.96.96 0 0 0-.18.82c-.1.06-.14.2-.12.4-.15-.53-.12-.95.09-1.27.06-.1.15-.14.27-.13l.7.08Z" fill="#18191C"/><path d="M15.1 27.86c.01.59.27 1.06.75 1.4.13.1.3.1.5.03-.01.16.28.3.87.41l1.25 3.28a.5.5 0 0 0-.1.12c-.5-.41-.43-1.23-1.28-1.32-.4-.04-.47.09-.22.39.46.54.78.99.98 1.34.11.2.18.55.2 1.03 0 .22-.05.24-.19.07l-.3-.41a.25.25 0 0 0-.23-.12c-.06 0-.1.02-.13.03-.1.05-.13.13-.1.22l.13.3-.12-.12c-.07-.07-.1-.06-.1.04.03.4.1.46.23.15.06.02.1.06.12.1.05.07.02.12-.06.16a.28.28 0 0 1-.2 0 .25.25 0 0 1-.18-.2c-.06-.32-.2-.61-.4-.88-.03-.82-1.06-1.16-1.69-.77-.95.6-.57 2.83-.24 3.69a1 1 0 0 0-.19.78c.01.09 0 .1-.04.02a.12.12 0 0 1 0-.08c.02-.2 0-.37-.07-.5a6.18 6.18 0 0 1-.1-3.34c.3-1.06 1.65-1.24 2.3-.33.11.14.15.13.14-.05l-.1-1.08a7.8 7.8 0 0 1 .19-2.44.07.07 0 0 0-.05-.03c-.98-.14-1.55-.64-1.7-1.5-.02-.2.02-.33.12-.4Z" fill="#303249"/><path d="M16.81 28.27c.18-.03.3 0 .36.07.04.04.05.14.02.28-.06.37.04.66.3.87-.14.06-.23.14-.27.21-.6-.11-.88-.25-.88-.41l.47-1.02Z" fill="#706E8C"/><path d="m26.17 29.52-.59.43c-.1.07-.11.16-.04.26l.36.49c.03.2-.18.38-.63.52a.36.36 0 0 0-.2.16.28.28 0 0 0-.02.24c.38 1.11-.9 1.36-1.55.81.56-.62.97-1.36 1.24-2.23.05-.18.2-.29.45-.31.09-.01.14-.06.16-.14l.15-.57c.01-.05.04-.1.08-.12.05-.03.1-.05.15-.04.25 0 .4.18.44.5ZM17.5 29.49l.4.98c.04.1.06.2.05.3-.02.37.13.66.45.87.1.06.16.15.19.24l.24.78c.05.15.13.19.24.11.03-.01.07-.02.13-.01a.28.28 0 0 1 .2.1c.12.16.3.25.53.27.12 0 .23.04.33.1 1.03.63 2.22 1.09 3.56 1.36l-.86 1.13c-.1.13-.17.12-.22-.03-.1-.28-.3-.44-.61-.5a.57.57 0 0 1-.31-.14c-.3-.3-.75-.53-1.32-.7a.22.22 0 0 1-.16-.17v-.09c0-.12-.07-.17-.2-.14-.29.06-.48.22-.58.49l-.48-.13a.24.24 0 0 1-.18-.2l-.23-.9a.3.3 0 0 0-.11-.18.67.67 0 0 0-.09-.05l-1.25-3.28c.04-.07.13-.15.27-.21Z" fill="#8E8DC0"/><path d="M21.8 31.51a3.4 3.4 0 0 0-1.39 1c-.08.1-.2.18-.32.21a.66.66 0 0 1-.4-.02c-.29-.1-.38-.25-.26-.42a.2.2 0 0 1 .05-.06.22.22 0 0 1 .08-.03c.3-.07.48-.21.56-.42a.21.21 0 0 0-.1-.26 2.18 2.18 0 0 1-.16-.1.25.25 0 0 1-.07-.08.2.2 0 0 1-.03-.08c0-.03 0-.06.02-.08a.1.1 0 0 1 .06-.04c.14-.02.39.02.73.14h.08a.1.1 0 0 0 .05-.06l.36-.98c.6.52.84.95.74 1.28Z" fill="#9B8E05"/><path d="M18.36 33.1c.17.57.18 1.15.03 1.73-.02.09-.14.1-.36.06-.2.03-.19.2.02.54a.34.34 0 0 1 .03.3l-.14.34c-.05.13-.02.24.1.33.5.34.6.66.26.96-.1.1-.11.2-.02.3.05.08.14.14.24.19.13.05.16.14.1.26-.05.1-.2.18-.44.23-.15.04-.27 0-.36-.12a2.46 2.46 0 0 1-.47-1.13c-.04-.26-.16-.37-.36-.53.16-.64.02-1.07-.42-1.3l-.05-1.38c.2.27.34.56.4.88.02.1.08.17.19.2.06.02.12.02.19 0 .08-.04.1-.09.06-.17-.02-.03-.06-.07-.12-.09l-.01-.07-.12-.3c-.04-.1-.01-.17.09-.22a.43.43 0 0 1 .13-.03c.1 0 .17.04.22.12l.31.4c.14.18.2.16.19-.06a2.5 2.5 0 0 0-.2-1.03c-.2-.35-.52-.8-.98-1.34-.25-.3-.18-.43.22-.39.85.1.79.9 1.27 1.32Z" fill="#8E8DC0"/><path d="M32.72 35.4c-2.62-1.05-2.51-4.42.05-5.46 4.89-1.08 4.8 6.48-.05 5.46Zm1.94-2.78a14.68 14.68 0 0 1-.72-1.98l-.02-.02h-.03l-.02.02a9.8 9.8 0 0 0-1.03 1.61c-1.49 3.25 2.92 3.03 1.82.37Z" fill="#E0D324"/><path d="M19.56 34.44c-.05.1-.03.15.04.16-.57.15-.86.3-.87.48-.05-.1-.28-.16-.7-.2.22.06.34.04.36-.05.15-.58.14-1.16-.03-1.73a.5.5 0 0 1 .11-.12l.09.05c.05.05.1.1.1.17l.24.92c.02.1.08.16.18.19l.48.13Z" fill="#646567"/><path d="M23.82 34.59c.12-.08.25 0 .4.22-.72.92-1.6 1.72-2.63 2.38-.13.09-.17.2-.14.36l.6 2.42c.03.11.1.2.21.23.57.22.91.57 1.03 1.06-.1 0-.2-.05-.26-.14a.91.91 0 0 0-.33-.48.49.49 0 0 0-.32-.1c-.5.03-.88-.1-1.12-.42-.09-.1-.18-.11-.27 0-.2.22-.45.3-.72.22-.43-.11-.51 0-.25.35a5.12 5.12 0 0 0 .66.66l.06.08.03.05v.03h-.01c-.05.03-.13-.03-.24-.16-.19-.2-.43-.37-.71-.48a.31.31 0 0 0-.32.04c-.3.21-.66.28-1.12.2-1.67-.28-3.09-.55-4.02 1.19l-.1.63c-.23-.47-.1-.92.37-1.37a.26.26 0 0 0 .08-.29 1.32 1.32 0 0 0-.23-.42c.07-.1.1-.22.08-.36.09.18.2.33.32.46.08.09.19.1.3.05a4.1 4.1 0 0 1 1.99-.37c.02 0 .04-.02.05-.03a.15.15 0 0 0 .04-.13c-.03-.14-.14-.29-.32-.44a.3.3 0 0 0-.36-.03.52.52 0 0 1-.24.04c-.21 0-.23-.06-.04-.16l.38-.22c.1-.05.15-.13.15-.24l.04-.9a.2.2 0 0 0-.1-.2.88.88 0 0 0-.54-.07l-.11-1.32a.29.29 0 0 1 .12-.27c.56-.4.82-.43.76-.1.2.16.32.27.36.53.06.4.21.78.47 1.13.09.12.2.16.36.12.24-.05.4-.13.44-.23.06-.12.03-.2-.1-.26a.66.66 0 0 1-.24-.19c-.1-.1-.09-.2.02-.3.34-.3.25-.62-.26-.96-.12-.09-.15-.2-.1-.33l.14-.34a.33.33 0 0 0-.03-.3c-.2-.33-.21-.51-.02-.54.42.03.65.1.7.19.2.72.57 1.22 1.12 1.5.11.06.2.15.26.26.14.28.37.46.7.54a.15.15 0 0 0 .13-.02.14.14 0 0 0 .04-.04.13.13 0 0 0 .01-.06c.03-.63-.16-1.09-.57-1.37a.75.75 0 0 1-.24-.26l-.58-1.03c-.07 0-.09-.06-.04-.16.1-.27.3-.43.59-.5.12-.02.18.03.18.15l.01.1c.02.07.07.13.16.16.57.17 1.01.4 1.32.7.08.08.19.13.3.15.32.05.52.2.62.49.05.15.12.16.22.03l.86-1.13Zm-5.2 4.22a.6.6 0 0 0-.07-.08c-.02-.03-.04-.04-.05-.04l-1.31-.17c-.11-.02-.17.04-.17.17.01.7.06 1.14.14 1.3.5 1 1.31 1.24 2.44.73a.24.24 0 0 0 .14-.27.27.27 0 0 0-.05-.1l-1.07-1.54Z" fill="#303249"/><path d="m19.6 34.6.58 1.03c.06.1.14.2.24.26.41.29.6.74.57 1.37a.13.13 0 0 1-.05.1.14.14 0 0 1-.12.02 1.02 1.02 0 0 1-.71-.54.58.58 0 0 0-.26-.26 2.24 2.24 0 0 1-1.12-1.5c0-.17.3-.33.87-.48Z" fill="#8E8DC0"/><path d="M17 36.56c.05-.33-.2-.3-.77.1a.29.29 0 0 0-.12.27l.1 1.32c-1-.2-.6-1.63-.23-2.11.2-.26.4-.55.59-.87.44.22.58.65.42 1.29ZM14.59 36.8c.25 1.33-.14 2.43-.04 3.7.02.13 0 .25-.08.35l-.07-2.28-.11-1.54c.07.12.1.29.06.5l.01.07c.04.07.05.07.04-.02a1 1 0 0 1 .19-.78Z" fill="#706E8C"/><path d="m21.06 37.76.2.45v.13a.22.22 0 0 1-.07.1c-.2.16-.48.21-.81.15a.64.64 0 0 0-.35.04l-.6.23c-.15.06-.23.01-.25-.14 0-.04 0-.09.04-.13a.2.2 0 0 1 .1-.09 15.55 15.55 0 0 0 1.63-.8.12.12 0 0 1 .08.02.1.1 0 0 1 .03.04Z" fill="#8E8DC0"/><path d="M14.47 40.85a.58.58 0 0 1-.13-.36c-.02-.64 0-1.28.06-1.92l.07 2.28Z" fill="#18191C"/><path d="M23.3 41.26c.01.78-.38 1.27-1.18 1.48h-1.27l-.85-.11-.23-.22c.6 0 1.2.02 1.81.04.92.02 1.4-.42 1.45-1.33.07.1.16.14.26.14ZM16.71 43.66c-.31-.03-.56-.01-.75.04-.27.1-.51.1-.73.02a.4.4 0 0 1-.25-.2c-.15-.3-.4-.5-.73-.6l.1-.62c-.02.22.03.38.15.49.1.1.2.1.31 0l.77-.74a.17.17 0 0 1 .23 0l.14.13v.02a.03.03 0 0 1-.01.03c-.62.2-.87.53-.78.98.02.06.05.13.1.17.05.05.11.09.18.1a.42.42 0 0 0 .4-.12l.64-.71a.15.15 0 0 1 .11-.05h.22l.02.03v.05c-.16.2-.29.39-.38.59-.06.14.02.27.26.39Z" fill="#646567"/><path d="m19.77 42.4.23.23c-.26 0-.49.05-.63.27-.51.79-1.24.78-2.33 1.07a.55.55 0 0 1-.34 0l-.74-.27c.19-.05.44-.07.75-.04a6.14 6.14 0 0 0 1.68-.38c.53-.2.81-.64 1.38-.87Z" fill="#3F4041"/></svg>