<?xml version='1.0' encoding='utf-8'?>
<!-- by TradeStack -->
<svg width="56" height="56" viewBox="0 0 56 56" xmlns="http://www.w3.org/2000/svg"><path fill="#F0F3FA" d="M0 0h56v56H0z" /><path d="M38 27V12h-7v7h-6v-7h-7v38c0-2.27 1.27-4.3 3.15-6.15.24-.24.55-.54.91-.84 4.85-4.24 12.6-7.89 15.03-12.9.49-.96.91-2.04.91-3.11Z" fill="url(#apkvhpdbm)" /><path d="M18 45.7c.06-2.21 1.2-4.12 2.96-5.86.3-.3.67-.6.97-.9 4.65-4.24 12.2-7.82 14.86-12.6A7.26 7.26 0 0 0 38 22.75v-4.42c-.06 2.21-1.39 4.13-3.14 5.92-.3.3-.67.6-.97.9-4.65 4.24-12.2 7.76-14.92 12.6a7.6 7.6 0 0 0-.97 3.59v4.36Z" fill="url(#bpkvhpdbm)" /><defs><linearGradient id="apkvhpdbm" x1="28" y1="31.78" x2="28" y2="10.86" gradientUnits="userSpaceOnUse"><stop stop-color="#fff" /><stop offset="1" stop-color="#003896" /></linearGradient><linearGradient id="bpkvhpdbm" x1="17.34" y1="32.02" x2="38.73" y2="32.02" gradientUnits="userSpaceOnUse"><stop stop-color="#0E3E95" /><stop offset="1" stop-color="#00032E" /></linearGradient></defs></svg>