<!-- by TradeStack --><svg width="56" height="56" viewBox="0 0 56 56" xmlns="http://www.w3.org/2000/svg"><path fill="#F0F3FA" d="M0 0h56v56H0z"/><path fill-rule="evenodd" d="M19.44 15H16.7c-1.73 2.51-5.7 8.53-5.7 11.99 0 1.37.61 2.51 1.77 2.51 1.16 0 4.44-1.65 6.23-3.73 0 .68.17 2.39.8 3.4l-.23.56c-.26.6-.57 1.31-.57 2.17 0 1.15 1.1 3.1 3.96 3.1 2.87 0 5.96-2.48 6.79-3.3H28.5c-.94.84-3.27 2.3-5.08 2.3-1.45 0-1.93-1-1.93-1.85 0-.55.37-1.72.62-2.52l.15-.46a9.36 9.36 0 0 0 5.67-3.77 63.52 63.52 0 0 0 2.4-3.98c.1-.14.54-.4 1.45-.4 1.13 0 1.9 1.22 1.9 2.07.25-.12.81-.33 1.35-.53l.96-.37c-.46-.76-2.04-2.19-3.75-2.19-.4 0-1.13.08-1.45.16l.03-.06c.5-1.28 1.54-3.99 1.54-5.1H30a50.35 50.35 0 0 1-2.06 6.02l-.06.04c-1.23.69-4.67 2.64-7.22 6.6a3.53 3.53 0 0 1-.37-1.6c0-.53.25-1.36.37-1.72C22.3 22.41 25 18 25 15h-1.4c-1.28 1.6-3.6 5.53-3.78 8.4-.99 1.2-4.29 4.6-6.11 4.6-.52 0-.71-.6-.71-1.41 0-.82 2.58-6.16 6.44-11.59Zm7.68 7.98c-1.04.59-3.37 2.4-4.35 4.91.76-.28 2.79-1.41 4.35-4.91Z" fill="#4E2A0E"/><path d="m23.63 30.5 3.83-3.66c1.46-.95 5.21-2.84 8.55-2.84 4.16 0 5.22 1.93 5.22 3.81 0 1.01-1.06 3.1-1.6 4l-.09.19H45l-.44 1h-5.53l-4.61 9h-2.27l4.4-9H32l.44-1h4.6l1.54-3.14c.24-.43.72-1.41.72-1.92 0-.63-.47-1.82-2.81-1.82-2.35 0-8.72 2.38-12.86 5.38Z" fill="#828D60"/></svg>