<!-- by TradeStack --><svg width="56" height="56" viewBox="0 0 56 56" xmlns="http://www.w3.org/2000/svg"><path fill="#F0F3FA" d="M0 0h56v56H0z"/><path d="M10.31 21H6l4.92 15h3.9l2.62-8 2.4 8h10.69v-.25C27 34.9 25 31.98 25 28.5s1.97-6.4 5.53-7.25V21h-6.2l-2.5 8-2.65-8h-3.7l-2.6 8-2.57-8Zm20.22 2.7a5.3 5.3 0 0 0-3 4.8 5.31 5.31 0 0 0 3 4.8v-9.6Z" fill="#201D1D"/><path d="M38 23.46A6.9 6.9 0 0 0 32.73 21h11.96c2.57 0 4.31 2.03 4.31 4.54 0 2.23-1.23 4.08-3.4 4.46l4.4 6h-2.2l-5.5-7.5H44c1.65 0 3-1.16 3-2.77S45.8 23 44.15 23H40v13h-7.27A6.9 6.9 0 0 0 38 33.53l-1.63-1.56C35.42 33.1 34.3 34 32.73 34 29.86 34 27 31.43 27 28.5s2.86-5.5 5.73-5.5c1.56 0 2.69.9 3.64 2.02L38 23.46ZM32.73 36H27v-2.24A8.41 8.41 0 0 0 32.73 36Zm0-15c-2.06 0-4.4.86-5.73 2.24V21h5.73Z" fill="#0059C1"/></svg>