<!-- by TradeStack --><svg xmlns="http://www.w3.org/2000/svg" width="56" height="56" viewBox="0 0 56 56"><path fill="#ED1B24" d="M0 0h56v56H0z"/><path d="M26.5 13h3L47 34.25V37H9v-2.75L26.5 13z" fill="#fff"/><path d="M27.04 13.58L10 34.5h36L29 13.58h-1.96z" fill="#94959A"/><path d="M28.23 14h-.46l-.05 1h.56l-.05-1zm.08 1.5h-.62l-.13 2.5h.88l-.13-2.5zm.18 3.5h-.98l-.15 3h1.28l-.15-3zm.5 10H27l-.25 5h2.5L29 29z" fill="#FEFFFF"/><path d="M12.27 32.5L8 23.5h4.27l1.28 3.17 1.18-3.17h3.36l1.4 3.17 1.2-3.17H25l-4.15 9h-2.76l-1.67-3.68-1.36 3.68h-2.79zM35 24.26v2.9c-.31-.32-1.4-.96-3.23-.97-2.3-.02-3.36.74-3.36 1.83 0 1.08 1.1 1.7 2.82 1.77a12.7 12.7 0 0 0 3.77-.58v2.57c0 .23-.9.7-4.46.72-4.46.03-6.54-1.91-6.54-4.48 0-2.57 2.77-4.52 6.54-4.52 3.01 0 4.23.5 4.46.76zM40 23.5h-3.5v2.7H40v6.3h4v-6.3h3.5v-2.7H40z" fill="#0E1920"/><path d="M13.27 32L9 23h4.27l1.28 3.17L15.73 23h3.36l1.4 3.17 1.2-3.17H26l-4.15 9h-2.76l-1.67-3.68L16.06 32h-2.79z" fill="#E42022"/><path fill-rule="evenodd" d="M13.27 23H9l4.27 9h2.8l1.35-3.68L19.1 32h2.76L26 23h-4.3l-1.22 3.17L19.1 23h-3.36l-1.18 3.17L13.27 23zm2.8.5l-1.5 4.06-1.64-4.06H9.8l3.8 8h2.12l1.67-4.5 2.03 4.5h2.12l3.69-8h-3.18l-1.52 3.99-1.76-3.99h-2.69z" fill="#fff"/><path d="M35.15 23.93v2c-.32-.32-1.11-.44-2.95-.45-2.29-.02-3.3.95-3.3 2.04 0 1.08 1.1 1.7 2.83 1.77a12.7 12.7 0 0 0 3.77-.58s-.35 1.44-.35 2.3c0 .23-.54.96-4.11.99-4.46.03-6.54-1.91-6.54-4.48 0-2.57 2.77-4.52 6.54-4.52 3.01 0 3.87.68 4.1.93z" fill="#E42022"/><path d="M35.5 31.28V28.7l-.5.14c-.83.22-2.15.49-3.27.44-1.72-.07-2.82-.69-2.82-1.77 0-1.09 1.06-1.85 3.36-1.83a8.44 8.44 0 0 1 3.1.63l.13-2.56S34.05 23 31.04 23c-3.77 0-6.54 1.95-6.54 4.52 0 2.57 2.08 4.51 6.54 4.48 3.57-.03 4.46-.72 4.46-.72zm-.6-5.67a9.02 9.02 0 0 0-2.64-.42c-1.18 0-2.12.18-2.79.57a1.99 1.99 0 0 0-1.06 1.76c0 .74.39 1.32 1 1.7.6.35 1.4.54 2.3.57 1.12.05 2.43-.2 3.29-.42v1.6c-.12.05-.28.11-.52.17-.62.17-1.7.35-3.44.36-2.17.02-3.68-.45-4.64-1.17a3.37 3.37 0 0 1-1.4-2.81c0-1.09.58-2.08 1.64-2.81a7.75 7.75 0 0 1 4.4-1.21c1.46 0 2.54.18 3.24.36.3.08.54.16.7.22l-.07 1.53z" fill="#fff"/><path d="M40.57 23H37v2.7h3.57V32h4.36v-6.3h3.57V23h-7.93z" fill="#E42022"/><path fill-rule="evenodd" d="M40.57 25.7V32H45v-6.3h3.5V23H37v2.7h3.57zm-3.07-.5H41v6.3h3.43v-6.3H48v-1.7H37.5v1.7z" fill="#fff"/><path fill="#0E1920" d="M10 34.5h36V36H10z"/></svg>