<?xml version='1.0' encoding='utf-8'?>
<!-- by TradeStack -->
<svg width="56" height="56" viewBox="0 0 56 56" xmlns="http://www.w3.org/2000/svg"><path fill="#F0F3FA" d="M0 0h56v56H0z" /><path d="M8 33h3.28l1.1 4.25h.03L13.68 33h2.69l1.26 4.25 1.1-4.25H22l-2.48 7H16.2l-1.18-3.88L13.84 40h-3.32L8 33ZM27 35h2.29c1.55 0 2.18.38 2.18 1.5 0 1.08-.63 1.5-2.18 1.5H27v-3Zm-3 5h6.63C33.5 40 35 38.96 35 36.5c0-2.58-1.51-3.5-4.4-3.5H24v7ZM41 34.63h2.41c.82 0 1.15.21 1.15.76 0 .5-.33.61-1.15.61H41v-1.37ZM38 40h3v-2h3.8c2.34 0 3.2-1.23 3.2-2.57 0-1.55-.86-2.43-3.2-2.43H38v7Z" fill="#7F7E7D" /><path d="M38 17.49v2.15L28 23l-10-3.36v-2.15L8 21l20 7 20-7-10-3.51Z" fill="#EE730A" /><path d="m28 14-10.06 3.49L28 21l10-3.5L28 14Z" fill="#7F7E7D" /></svg>