<?xml version='1.0' encoding='utf-8'?>
<!-- by TradeStack -->
<svg width="56" height="56" viewBox="0 0 56 56" xmlns="http://www.w3.org/2000/svg"><path fill="#181B1E" d="M0 0h56v56H0z" /><path fill-rule="evenodd" d="M45 28 28 11 11 28l17 17 17-17Zm-1.3 0L28 12.3 12.3 28 28 43.7 43.7 28Z" fill="url(#a)" /><path d="M27 16v1.62l-10.38 10.2 2.17 2.17L24.5 24v1.62l-4.9 5.18 2.31 2.3 12.16-12.13L41 27.91v.01L28 41v-1.62l11.38-11.47-2.17-2.17-5.74 5.76v-1.62l4.93-4.95-2.34-2.33-12.13 12.14L15 27.83v-.02L27 16Z" fill="url(#b)" /><defs><linearGradient id="a" x1="45" y1="28" x2="11" y2="28" gradientUnits="userSpaceOnUse"><stop stop-color="#C99300" /><stop offset=".49" stop-color="#F5F319" /><stop offset="1" stop-color="#8F6B00" /></linearGradient><linearGradient id="b" x1="41" y1="28.5" x2="15" y2="28.5" gradientUnits="userSpaceOnUse"><stop stop-color="#C99300" /><stop offset=".49" stop-color="#F5F319" /><stop offset="1" stop-color="#8F6B00" /></linearGradient></defs></svg>