<?xml version='1.0' encoding='utf-8'?>
<!-- by TradeStack -->
<svg width="56" height="56" viewBox="0 0 56 56" xmlns="http://www.w3.org/2000/svg"><path fill="#F0F3FA" d="M0 0h56v56H0z" /><path fill-rule="evenodd" d="M8 21h3.61l1.8 7.16 2.3-7.16h2.58l2.3 7.16 1.8-7.16H26l-3.88 14h-2.9l.02-.1-2.2-6.87-.04-.2-.03.2-2.2 6.87.01.1h-2.9L8 21Zm29 0h3v10.38c0 .34.28.62.62.62H42v3h-2.05A2.97 2.97 0 0 1 37 32.02V21Zm9 0h-3v11.02A2.97 2.97 0 0 0 45.95 35H48v-3h-1.38a.62.62 0 0 1-.62-.62V21Zm-11 6.99V35h-3v-.82c-.32.6-1.22.8-1.5.82h-1.04c-1.32 0-3.46-.56-3.46-3.5 0-2.35 2.3-3.02 3.46-3.06H32c0-.76-.37-1.94-1.78-1.94-1.13 0-1.64.48-1.75.73l-1.94-1.76c.37-.49 1.66-1.47 3.79-1.47 3.79 0 4.7 2.66 4.68 3.99Zm-5.97 3.58c0-.52.4-.94.9-.94h1.82v.46c0 .78-.6 1.41-1.36 1.41h-.46c-.5 0-.9-.42-.9-.93Z" fill="#004385" /></svg>