<!-- by TradeStack --><svg width="56" height="56" viewBox="0 0 56 56" xmlns="http://www.w3.org/2000/svg"><path fill="#F0F3FA" d="M0 0h56v56H0z"/><path fill-rule="evenodd" d="M35.27 23h-1.45v1.42h1.45V23Zm-5.69 1.96V26h-1.01v1.31h1.01V32H31v-4.69h3V32h1.5v-5.46L34.04 26H31v-.68c0-1.34 1.28-1.22 1.9-1V23.1c-2.64-.49-3.31 1.04-3.32 1.87ZM4 23l2.3 9h2.37l1.66-7.24L11.88 32h2.57l2.05-8.39-1.53-.61-1.58 7.58h-.26l-1.48-6.8L9.32 23 7.7 30.58h-.47l-1.3-6.97L4 23Zm18 6c0 .15-.01.29-.03.43h-4.55c.16.98.85 1.71 1.67 1.71.6 0 1.14-.4 1.44-.99l1.04.4A3 3 0 1 1 22 29Zm-1.23-.43c-.16-.98-.85-1.71-1.68-1.71-.82 0-1.51.73-1.67 1.71h3.35Zm21.22.69L42 29a3 3 0 1 0-.35 1.4c-.3-.1-.77-.28-1.18-.44-.3.58-.85.96-1.47.96-.85 0-1.56-.72-1.7-1.66H42ZM39 26.93c-.83 0-1.52.68-1.68 1.59h3.36c-.16-.91-.85-1.59-1.68-1.59ZM23 32v-9l1.5.5V32H23Zm3-9v9h1.5v-8.5L26 23Zm16.5 9v-9l1.5.5V32h-1.5Zm7-9v4.05A2.1 2.1 0 0 0 47.66 26C45.65 26 45 27.34 45 29s.49 3 2.66 3c.82 0 1.44-.4 1.84-1.05V32H51v-8.5l-1.5-.5Zm-1.49 4.13c.77 0 1.29.5 1.49 1.19v1.36c-.2.7-.72 1.19-1.49 1.19-1.47 0-1.8-.84-1.8-1.87 0-1.03.44-1.87 1.8-1.87Z" fill="url(#aepdkdboq)"/><defs><linearGradient id="aepdkdboq" x1="8.75" y1="27.5" x2="52" y2="27.5" gradientUnits="userSpaceOnUse"><stop stop-color="#B9C3C2"/><stop offset=".6" stop-color="#F86054"/></linearGradient></defs></svg>