<!-- by TradeStack --><svg width="56" height="56" viewBox="0 0 56 56" xmlns="http://www.w3.org/2000/svg"><path fill="#F0F3FA" d="M0 0h56v56H0z"/><path d="M16 20h2.29l1.23 6.96 1.53-6.91-.02-.05h1.93v.05l1.52 6.91L25.7 20H28l-2.29 11h-2.14L22 24.18 20.43 31h-2.14L16 20ZM30 23h2v8h-2zM45 20h-2v2h2v-2Zm0 3h-2v8h2v-8ZM35 20h6v2h-4v2h3.07v2H37v5h-2V20Z" fill="#27B7EB"/><path fill-rule="evenodd" d="M6.1 36.43c.92 2.77 8.56 1.78 17.07-2.2 8.51-3.98 14.66-9.44 13.74-12.2-.93-2.77-8.57-1.79-17.08 2.2-8.51 3.97-14.66 9.44-13.74 12.2Zm1.8-.48c.82 2.44 7.3 1.62 15.16-2.05 7.85-3.67 13.56-8.62 12.75-11.05-.82-2.44-7.8-1.08-15.65 2.59-7.85 3.67-13.06 8.08-12.25 10.51Z" fill="url(#a)"/><ellipse cx="31" cy="21.25" rx="1.5" ry="1.25" fill="#F6861F"/><ellipse cx="31" cy="20.79" rx=".95" ry=".79" fill="#FFC40D"/><defs><linearGradient id="a" x1="17.7" y1="31.43" x2="18.82" y2="34.23" gradientUnits="userSpaceOnUse"><stop offset=".29" stop-color="#F89C28"/><stop offset=".47" stop-color="#F57E27"/></linearGradient></defs></svg>