<?xml version='1.0' encoding='utf-8'?>
<!-- by TradeStack -->
<svg width="56" height="56" viewBox="0 0 56 56" xmlns="http://www.w3.org/2000/svg"><path fill="#F0F3FA" d="M0 0h56v56H0z" /><path d="M6 24h3.48v.52c-.3 0-.54.03-.64.1a.37.37 0 0 0-.17.31c0 .07 0 .14.04.25l.1.34L10.54 31l1.7-4.98-.22-.66c-.14-.35-.24-.59-.37-.66a1.34 1.34 0 0 0-.64-.14L11 24h3.56v.55c-.37 0-.6.07-.7.1-.1.08-.17.18-.17.35 0 .13.04.25.08.38l.05.18 1.7 5.4 1.84-5.37c.04-.1.07-.2.07-.27.03-.1.03-.18.03-.25 0-.17-.06-.3-.2-.38-.13-.07-.37-.1-.7-.14V24H19v.55c-.27.04-.47.07-.6.18-.1.07-.2.2-.27.38L15.3 33h-.6l-2.1-6.2-.42 1.15-.15.4-1.7 4.65h-.64l-2.64-7.68c-.14-.35-.24-.56-.37-.63a1.34 1.34 0 0 0-.64-.14L6 24Zm21.95 2.02-1.28 3.3h2.49l-1.21-3.3Zm.21-2.02h.71l3.1 7.85c.1.28.21.45.35.52.15.07.36.14.68.14V33h-3.8v-.49c.31 0 .56-.03.7-.14.15-.06.22-.2.22-.34l-.75-2.26h-2.84l-.82 2.26c0 .17.03.27.14.34.1.07.32.1.64.14V33H24v-.49c.28 0 .5-.03.64-.14.14-.06.25-.27.4-.55L28.15 24Zm16.02 6.86L41.48 24h-3.3v.39c.52.03.8.07.95.14.11.1.19.28.19.52v.07l-.08 6.02c0 .6-.07.98-.22 1.09-.14.14-.47.2-1.02.2V33h3v-.56c-.48 0-.77-.07-.91-.21-.15-.14-.22-.46-.22-.95v-.14l.07-6.3h.1L43.2 33h.65l3.19-8.12h.07v6.57c0 .46-.04.78-.18.88-.15.1-.45.18-.93.18V33h4v-.5c-.51 0-.84-.06-.99-.17-.1-.1-.18-.38-.18-.88v-5.94c0-.46.07-.74.22-.84.15-.1.47-.18.95-.18V24h-3.11l-2.7 6.86Z" fill="#7D848C" /><path d="M21 21h1v14h-1V21ZM35 21h1v14h-1V21Z" fill="#4FABC4" /></svg>