<!-- by TradeStack --><svg viewBox="0 0 56 56" xmlns="http://www.w3.org/2000/svg"><path fill="#F0F3FA" d="M0 0h56v56H0z"/><path d="M16 14v11l3.5-1.5L25 28l9-9 6 5V14H16Z" fill="#F49F70"/><path d="M15.19 12.58A3.17 3.17 0 0 1 17 12h22c1.09 0 1.91.49 2.42 1.19.45.62.58 1.32.58 1.81v23.85l-.16.32C40.58 41.7 36.15 46 28 46c-8.15 0-12.58-4.3-13.84-6.83l-.16-.32V15c0-1.09.49-1.91 1.19-2.42ZM18 15a1 1 0 0 0-1 1L17 23.88l.8-.8a2.5 2.5 0 0 1 3.35-.17l3.7 3.02 7.33-8.15a2.5 2.5 0 0 1 3.63-.1l3.19 3.2V16a1 1 0 0 0-1-1H18ZM39 25.12l-4.94-4.94L26.1 29l-8.73 9.66C18.72 40.36 22.05 43 28 43c6.63 0 10-3.27 11-4.89V25.12Zm-22 9.49 5.83-6.45-3.23-2.64-2.6 2.6v6.49Z" fill="#845974"/><path d="M32.87 39c.46-.37.82-.67 1.09-.91.27-.25.49-.5.67-.76.18-.27.27-.52.27-.78a.8.8 0 0 0-.17-.54c-.12-.13-.29-.2-.53-.2a.67.67 0 0 0-.54.23.95.95 0 0 0-.2.62h-.96c.02-.54.19-.96.5-1.24.32-.28.73-.42 1.22-.42.54 0 .95.14 1.24.41.28.28.43.64.43 1.09 0 .35-.1.69-.3 1.01-.2.32-.42.6-.68.84-.25.24-.59.53-1 .86H36V40h-3.5v-.7l.37-.3ZM32 35.72 30.34 40h-.88l1.67-4.17H29V35h3v.72ZM25.28 37.35a1.12 1.12 0 0 1-.67-1.06c0-.24.06-.45.18-.64.13-.2.31-.36.55-.47.25-.12.55-.18.9-.18.36 0 .66.06.9.18a1.21 1.21 0 0 1 .56 1.75c-.12.18-.28.32-.48.42.25.1.44.26.57.46.14.2.21.44.21.72 0 .3-.08.56-.23.78-.15.22-.36.4-.63.51-.26.12-.56.18-.9.18-.33 0-.62-.06-.89-.18a1.51 1.51 0 0 1-.62-.5 1.37 1.37 0 0 1-.23-.79c0-.28.07-.52.2-.72.14-.2.33-.36.58-.46Zm1.7-.93a.64.64 0 0 0-.2-.5.75.75 0 0 0-.53-.18c-.22 0-.4.06-.53.18s-.2.29-.2.5c0 .2.07.37.2.48.14.12.31.18.53.18.2 0 .38-.06.52-.18s.2-.28.2-.48Zm-.73 1.33a.96.96 0 0 0-.62.2.67.67 0 0 0-.23.54c0 .22.07.4.22.54.16.14.37.2.63.2s.46-.06.61-.2a.7.7 0 0 0 .23-.54.66.66 0 0 0-.23-.54.91.91 0 0 0-.61-.2ZM22 35.88V35h1.5v5h-.9v-4.12H22Z" fill="#845974"/></svg>