<!-- by TradeStack --><svg width="56" height="56" viewBox="0 0 56 56" xmlns="http://www.w3.org/2000/svg"><path fill="#214497" d="M0 0h56v56H0z"/><path d="M24.78 31.7a.35.35 0 0 1-.35.3h-.52c-.18 0-.35-.13-.38-.3l-.92-4.7c-.02-.18-.1-.18-.12 0l-.82 4.7c-.03.2-.2.32-.4.3h-.5c-.17 0-.35-.13-.37-.3L19 24.3c-.02-.15.08-.27.23-.3h.59c.2 0 .35.13.38.33l.8 4.52c.02.13.1.13.1 0l.82-4.52c.02-.15.2-.33.37-.33h.45c.17 0 .34.18.37.33l.9 4.52c.02.13.1.13.12 0l.7-4.52c.02-.2.2-.33.4-.33h.5c.2 0 .3.15.27.33l-1.22 7.37ZM27.72 32h-.48c-.14 0-.24-.13-.24-.3v-7.37c0-.18.1-.3.24-.33h.52c.14 0 .24.13.24.3v7.37c-.02.18-.16.33-.28.33ZM32.75 32h-.51c-.17 0-.3-.13-.32-.33l-.17-1.34c-.02-.2-.17-.33-.34-.33h-.88c-.15 0-.3.2-.32.33L30 31.7c-.01.17-.16.32-.3.3h-.5c-.16 0-.23-.15-.2-.33l1.2-7.37c.02-.2.13-.3.32-.3h.88c.2 0 .3.1.34.33L33 31.67c0 .2-.1.33-.25.33ZM31 25.9c-.02-.07-.08-.1-.1 0l-.49 2.81c-.04.2.09.3.23.3h.53c.17 0 .26-.1.23-.3l-.4-2.8Z" fill="#fff"/><path d="M37.68 32h-.55c-.26 0-.23-.32-.3-.32-.33.18-.6.32-1 .32C34.2 32 34 30.29 34 29.02v-2.14c0-1.39.27-2.88 1.98-2.88 1.33 0 1.97 1 1.97 2.34.03.15-.09.3-.23.3H37.13c-.19 0-.28-.15-.28-.32-.02-.8-.32-1.32-.87-1.32-.62 0-.98.54-.98 1.66v2.36c0 1.4.31 1.98.98 1.98.57 0 1.02-.45 1.02-1.5V29h-.77c-.16 0-.23-.12-.23-.3v-.36c0-.2.05-.34.23-.34h1.47c.16 0 .3.17.3.34v3.25c0 .17-.16.41-.32.41ZM41 32c-1.52 0-2-1.28-2-2.59V26.6c0-1.33.47-2.59 2-2.59s2 1.26 2 2.59v2.82c.03 1.32-.5 2.59-2 2.59Zm1-5.39c0-1.12-.38-1.61-1-1.61-.64 0-1 .51-1 1.61v2.78c0 1.1.36 1.61 1 1.61s1-.51 1-1.61v-2.78ZM46.73 32h-2.49c-.14 0-.24-.15-.24-.3v-7.37c0-.18.1-.33.24-.33h.52c.14 0 .24.13.24.3v6.24c0 .2.08.46.24.46h1.5c.16 0 .24.1.24.33l.02.37c0 .15-.12.3-.27.3ZM49.84 32h-1.56c-.16 0-.28-.15-.28-.33v-7.34c0-.15.12-.33.28-.33h1.56c1.45 0 2.16.8 2.16 2.5v2.98c0 1.74-.7 2.52-2.16 2.52ZM51 26.84c0-1.26-.41-1.84-1.24-1.84h-.28c-.48 0-.48 0-.48.47v5.19c0 .34.3.34.44.34h.32c.8 0 1.24-.61 1.24-1.84v-2.32ZM15 23c-4.39.62-7.98 4.42-8 8.94 0 .2-.02 1.4 0 1.56l2 1h3.5l3-1.5 2-3v-3l-1-2.5L15 23Z" fill="#FCAF1B"/><path d="M11.01 21a7 7 0 1 0 0 14.02A7 7 0 0 0 11 21Zm6.31 7v.35l-.3.13-.1.02h-.03V28.38c.1-.25.18-.48.28-.7.03-.06.08-.1.13-.16h.02c-.02.15 0 .3 0 .48Zm-6.3-6.3c1.93 0 3.76.88 4.94 2.41-.05-.02-.07-.02-.12-.02-.13 0-.15.07-.18.15l-.02.05s-.03-.03-.03 0c0 0-.02 0-.02.02h-.03l-.05.08c-.02.05-.05.07-.05.12-.07.18-.07.18-.25.13h-.08c-.02-.03-.02-.05-.02-.08 0-.02 0-.05-.03-.07l-.02-.08c0-.02.02-.05.05-.05.05-.05.13-.07.18-.1l.05-.02.05.05.02.02c.03 0 .03 0 .03-.02.02-.05.07-.08.12-.1.08-.03.18-.08.2-.2 0-.03 0-.03-.02-.05-.03 0-.03-.03-.05-.03-.03 0-.05-.02-.05-.05a.3.3 0 0 0-.13-.13c-.05 0-.07 0-.12.03-.03-.13-.13-.18-.2-.2-.03 0-.06-.03-.08-.03h-.05c-.08.1-.13.15-.18.15-.05 0-.1-.05-.17-.15-.03-.02-.03-.02-.05 0l-.05.03c-.03 0-.03 0-.05-.03-.03-.02-.08-.02-.1-.02h-.13c-.05 0-.13.02-.15 0a.29.29 0 0 0-.2-.08.2.2 0 0 1-.13-.05c-.02 0-.02-.02-.05 0-.02 0-.02 0-.05.03-.05.05-.1.05-.17 0-.03 0-.05-.03-.08 0H13.35c-.03 0-.05-.03-.1-.03a.27.27 0 0 0-.2-.02h-.03c-.05 0-.05.02-.1-.03 0 0-.02-.02-.02 0 0 0-.03 0-.03.03 0 .02-.02.02-.02.05 0 .02-.03.02-.03.05-.02.02-.05.05-.1.05-.07-.05-.15-.05-.2.02-.1-.1-.2-.05-.28 0l-.22.08-.13.02s-.02 0-.02.03c0 .02-.03.02-.03.05-.02-.03-.07-.05-.1-.08h-.05a.3.3 0 0 1-.35 0h-.03s-.02 0-.02.03l-.05.07c-.05-.05-.1-.1-.18-.1a.27.27 0 0 0-.17.08c-.1-.08-.2-.08-.33 0l-.05.02c-.05.03-.08.05-.13.05h-.12a.2.2 0 0 0-.1-.05c-.05 0-.08.03-.1.08l-.08.13.05-.08-.05-.02a.2.2 0 0 1-.12-.06c-.1-.1-.2-.07-.3-.05-.06.03-.13.03-.18.03-.08-.05-.15-.03-.2.05-.05.08-.15.13-.28.1-.1 0-.17.05-.25.1-.03.03-.05.08-.08.1 0 .03-.02.05-.05.08-.02.02-.05.02-.07.05-.13-.08-.2 0-.25.05a.52.52 0 0 1-.28 0v-.05l-.02-.08c0-.02-.03-.02-.03-.02-.05 0-.1.02-.15.05-.08.05-.13.05-.18 0-.02-.03-.02-.03-.05 0-.02 0-.02.02-.05.02-.02 0-.05.05-.05.05-.02 0-.05 0-.07-.02-.03 0-.03-.03-.05-.03h-.03l-.02.03v.12c-.03-.02-.05-.07-.08-.1-.02-.05-.07-.1-.17-.07H6.7c-.02.02-.05.02-.07.02-.03 0-.05-.02-.08-.05-.02-.02-.05-.02-.07-.02H6.2s-.02 0-.02.02c-.05.08-.08.08-.2 0A6.33 6.33 0 0 1 11 21.7Zm1.88 10.64-.03.05c-.02.05-.02.08-.1.05v-.22c0-.26.03-.5.13-.73.05-.1.12-.18.22-.25.2-.15.46-.23.7-.28l.1-.02-.07.1c-.1.12-.22.25-.32.4-.13.17-.33.4-.5.65-.03.07-.08.18-.13.25Zm.78-1.56c-.13.06-.28.1-.43.1l-.15.03c-.03 0-.03 0-.05-.02-.03-.05-.05-.13-.03-.18.03-.05.05-.1.1-.1.28-.1.53-.25.76-.4.05-.03.1-.03.15-.03h.02l.4-.02h.08l-.05.07c-.1.15-.23.3-.35.45-.03.03-.05.03-.08.03-.1-.03-.25.02-.37.07Zm.42-.85h-.05c-.25-.07-.42 0-.55.2 0 .03-.05.03-.07.03-.05.02-.1.02-.16.05a.9.9 0 0 0-.27.1.3.3 0 0 0-.18.17c-.02.1-.05.2-.05.3v.08c0 .18-.05.33-.15.48-.05.12-.1.22-.1.37v.08c-.02.1-.02.2-.05.32v.08l-.02-.05a2.53 2.53 0 0 1-.78-1.5c-.03-.16 0-.3.02-.46l.03-.15c.02-.27.07-.57.12-.85l.08-.63v-.2c0-.17-.08-.3-.23-.38a.76.76 0 0 1-.2-.1h-.03c-.3-.2-.37-.52-.17-.82.02-.05.07-.1.1-.15l.18-.3c.02-.06.02-.13 0-.2l-.03-.06a.47.47 0 0 1-.05-.17l.03.02c.05.05.07.08.07.15 0 .05.08.1.08.1l.17.08c.23.07.45.18.66.25.2.08.42.18.6.35.22.25.48.48.75.68.25.2.46.48.58.8l.15.3c.03.05.08.1.1.18l.03.05a.9.9 0 0 1 .1.22c.05.13 0 .28-.1.38-.08.18-.35.28-.6.2Zm-2.89-3.39c-.02 0-.02-.02-.05-.02v-.05c0-.05.03-.08.1-.08l-.05.15Zm.63-.32.08-.1.07.17c-.07-.02-.1-.05-.15-.07Zm.23.12.07-.05.18.13-.25-.08Zm.48-.07c.05.02.07.02.12.02.1.03.15.03.18.13 0 0 0 .02.02.02h.03l.07-.02h.05c.03.05.03.07.03.12l-.08-.02-.25-.08a.3.3 0 0 1-.12-.12c-.05-.03-.05-.03-.05-.05Zm.5-1.88v-.08l.1.03v.07c0 .03.02.03.02.03l.08.02a.16.16 0 0 1-.18.03c-.02 0-.02-.03-.02-.1Zm1.7 3.84c0-.05-.02-.08-.04-.1l-.1-.13-.38-.45c-.1-.13-.23-.23-.35-.35l-.23-.2a1.26 1.26 0 0 0-.2-.18c-.07-.05-.1-.12-.1-.23l.3.16h.03s.02 0 .02-.03l.03-.05c.1.1.15.1.32.03.05 0 .08 0 .13.02l.07.03h.03l.03-.03.02-.13c0-.02 0-.02-.02-.02h-.11l-.05-.1c-.02-.1-.05-.23-.2-.28-.05-.02-.07-.07-.1-.12-.02-.03-.02-.05 0-.08 0-.02.03-.02.05-.02h.05c.1 0 .18 0 .25.05a.2.2 0 0 0 .1.05c.03 0 .08-.03.08-.08l.03-.02.02.05c.03.05.03.1.05.17 0 .05.03.1.05.13.05.02.1.02.13.02l.12-.02h.05c.1.35.38.53.66.65.12.05.2.15.25.28l.07.25.15.5c0 .08 0 .15-.02.2v.05a.2.2 0 0 1-.05.13c-.03.07-.05.12-.05.2-.03.32-.2.6-.48.75-.02.02-.05.02-.05.02l-.02-.05a1.8 1.8 0 0 0-.2-.37 3.46 3.46 0 0 1-.33-.7Zm.13-2.11c.03.02.05.02.05 0l.13-.1c.02.05.07.07.1.12.1.13.23.25.33.4l.07.18v.05l-.05-.02c-.2-.08-.35-.16-.45-.33l-.08-.13-.1-.17Zm.96.93a.9.9 0 0 1-.1-.28c-.05-.2-.15-.38-.28-.5-.07-.08-.15-.15-.22-.25l-.08-.08c.08 0 .1.05.13.13l.02.02c.08.15.2.25.35.3 0 0 .03 0 .03.03.02 0 .02.02.05.02.15.03.25.15.27.3l.08.26.08.2c.05.2-.03.35-.13.52v-.02c-.03-.05-.03-.1-.03-.13a.88.88 0 0 0-.17-.52Zm-.05-.8c.02-.03.02-.06.05-.08.02-.05.02-.05.07-.05.03 0 .05.02.05.05.03.05.03.07 0 .12l-.17-.05Zm.35 0c.05.02.1.02.13.04l.07.08.05.05s.03.02.05 0l.08-.03c.07.2.05.43-.13.66-.02-.05-.05-.1-.07-.18-.1-.2-.2-.4-.18-.63Zm.08 1.9c.12-.48.27-.95.62-1.33a.9.9 0 0 1 .26-.17c.02-.03.05-.03.07-.05.03.15.08.32.1.47-.23.23-.4.53-.5.83-.05.15-.13.28-.2.43l-.03.02a.53.53 0 0 1-.15.1c-.07.03-.12 0-.2-.02-.02-.03-.05-.05-.05-.1l.08-.18Zm.88-1.8c-.03.02-.08.04-.1.07-.06.05-.13.1-.2.07-.08-.02-.1-.12-.13-.17-.03-.05-.03-.13-.03-.18 0-.02 0-.05.03-.07h.02c.03 0 .05 0 .08.02.05.03.12.03.17 0 .03 0 .05-.02.05 0 .05.08.08.15.1.25Zm-1.01-2.04s0-.02-.03-.05l-.02-.05c.02.03.05.05.05.1Zm-5.96 2.91a.67.67 0 0 0-.15-.12c-.15-.13-.17-.15-.1-.35l.1.07c.23.18.45.35.63.6a.7.7 0 0 1-.4-.12l-.08-.08Zm-3.57-1.18v-.02c.18.07.36.05.56 0 .07.05.15 0 .25-.05.02 0 .05-.03.05-.03.07-.02.15-.07.22-.07.05-.03.08 0 .13 0 .03.02.03.05.03.07 0 .05.05.05.1.08l.12.05.2.07c.05.03.13.05.2.1l.26.13c.15.05.3.15.4.3.07.1.15.2.25.3.05.05.1.1.12.18.03.02.03.05.05.07v.03c-.15.12-.3.15-.52.05-.5-.2-1.03-.4-1.54-.58l-.25-.1c-.02 0-.05-.03-.07 0-.05 0-.08 0-.13.03-.07.02-.12 0-.23-.05l-.22-.18-.03-.08.05-.3Zm-.07-.02c-.03.02-.03.07-.05.1-.03.07-.05.12-.1.15-.05.02-.13-.03-.18-.05h-.02l.12-.23h.03l.02.03c.03 0 .03 0 .03-.03l.02-.07c.05.02.08.07.13.1 0-.03.02-.03 0 0Zm1.58-.28c.05.03.13.03.15-.02.03-.03.05-.03.08-.03.05 0 .1-.02.15-.05l.02-.02.03.42-.03-.02-.15-.08c-.05-.02-.1-.02-.15-.05l-.1-.02c-.02-.03-.07-.03-.1-.05l.1-.08Zm.6.08v-.13h.06l-.05.13Zm.63.67a.65.65 0 0 0-.35-.27c-.17-.08-.17-.08-.12-.25.02-.05.02-.13.02-.18v-.02c0-.05.03-.1.03-.13.02 0 .07.03.1 0l.07-.02v.02a.77.77 0 0 0-.05.2c-.02.1 0 .2.1.25l.3.23.1.07c.08.05.1.13.1.2V26.92l-.07-.07-.23-.36Zm-.15-.65.13-.37c.1.15.07.22-.05.52-.1-.02-.1-.05-.08-.15Zm.28.25c-.03-.05-.03-.12.02-.22l.08-.25h.05l.13-.13.02.13c0 .02.03.02.03.02h.02l.03-.02c0 .12-.03.27-.13.37a.4.4 0 0 0-.1.18l-.03.05c-.05-.05-.1-.08-.12-.13Zm.38.08c.05-.08.07-.15.12-.2l.18-.23.02-.02.03-.03.02.03h.03l.22.05v.1c0 .02 0 .02.03.02h.05l.05-.02.08-.05.02-.03s.03 0 .03.03c.05.05.1.12.12.17.03.05.08.08.1.13l.03.02.05.05c-.03.08-.08.13-.13.18-.12.07-.27.12-.4.17-.18.08-.4-.02-.5-.2-.03-.02-.05-.07-.08-.1-.02-.02-.02-.05-.05-.07 0 .05-.02.02-.02 0Zm.65.68c.02-.03.07-.03.1-.05.1-.05.2-.1.33-.13.05 0 .12 0 .17.03l.05.02-.25.58c-.02-.13-.12-.23-.22-.3-.08-.03-.13-.1-.18-.15Zm-4.4-.7c-.02 0-.02 0 0 0l-.02-.03.02.02Zm-.2-.03c-.03.05-.08.07-.18.07-.02 0-.05 0-.1.03-.12.02-.17 0-.22-.08.1-.07.2-.1.32-.02.08.02.13.02.18 0Zm-.9.12c.02-.05.05-.07.07-.1.03 0 .05.03.08.05.2.18.42.23.65.23h.07c.1 0 .2.02.28.05.1.02.2.07.3.13l.18.07.33.13.3.07.53.15c.2.08.42.15.62.25s.43.18.63.25c.13.05.25.05.38.03.25-.05.43-.05.63.05.15.1.32.15.5.17.18 0 .28.1.4.26l.03.05c.05.07.12.15.2.2.25.1.32.27.27.5v.2c0 .07-.02.12-.05.17a.76.76 0 0 0-.12.4v.06c-.03.15-.05.3-.1.45 0 .02-.03.05-.05.07-.03.03-.08.03-.13 0-.07-.02-.07-.05-.05-.15l.03-.15.02-.12c.05-.23.03-.25-.17-.36l-.3-.15-.18-.1c-.05-.02-.1-.1-.08-.15 0-.05.03-.12.03-.2 0-.05 0-.07.02-.12.03-.2-.07-.3-.2-.43 0-.02-.02-.02-.05 0-.02 0-.02.03-.02.05v.08l.02.15v.25c0 .1-.02.17-.05.17-.02.03-.1 0-.17 0-.15-.02-.33-.05-.5-.1-.13-.02-.16-.07-.13-.2l.02-.17v-.08c0-.12-.07-.17-.15-.2-.2-.05-.43-.12-.65-.2l-.33-.13-.1-.07h-.02s-.03 0-.03.02l-.02.03v.05l.02.02.3.16c.18.1.38.17.58.22.08.03.13.05.2.1l.03.03s.02.02.02.05c-.02.07-.05.15-.1.2-.02.02-.05.02-.07.02a6.16 6.16 0 0 1-.43-.2l-.18-.1L8 28.2c-.1-.05-.15-.1-.15-.17-.03-.2-.13-.3-.33-.33-.28-.03-.45-.2-.65-.4l-.1-.1c-.03-.03-.03-.05-.03-.08 0-.02 0-.02-.03-.05L6.7 27c-.03-.03-.03-.08-.05-.1-.08-.13-.18-.2-.3-.18a.35.35 0 0 1-.23 0c-.02 0-.05-.02-.07-.05l-.08-.05-.02-.03c-.05-.02-.1-.05-.16-.05h-.32a.27.27 0 0 1-.18-.07l-.05-.05a.48.48 0 0 0-.38-.1c0-.03.03-.05.03-.08.05.03.08.03.08 0Zm5.68 3.5c0 .07-.03.12-.08.17l-.78-.66c.25.08.5.18.73.36.08.02.13.07.13.12Zm-3.88-1.59s0-.02 0 0L6.3 28l.02-.08v-.02l-.02-.03H6.2c.23.03.43.1.63.2.25.18.58.26.88.26.1 0 .2.05.28.1l.27.2.13.07c.02 0 .02.03.02.03h-.07c-.1-.03-.23-.03-.35-.05H7.62c-.18-.15-.38-.15-.58-.18-.07 0-.12 0-.2-.02-.08 0-.15-.03-.23-.05H6.6s.02 0 .02-.03l.1-.22c.08 0 .08 0 .05-.03Zm-1.15-.7a.47.47 0 0 0-.18-.05h-.07c-.1 0-.18 0-.23-.08h.03c.05 0 .1 0 .15-.02h.05c.05 0 .15 0 .17-.1h.18c.02 0 .02-.03.02-.03v-.02c0-.03 0-.03-.02-.05l-.03-.03.13-.02c.02 0 .02-.03.02-.03l-.02-.05-.35-.27.22.02.18.05c.05.03.08.03.13.05l.37.08c.08 0 .2.02.25.15.15.47.53.65.9.82.06.03.1.08.16.1h-.03c-.17.06-.35.08-.52-.02a1.6 1.6 0 0 0-.96-.28c-.22 0-.4-.12-.55-.22Zm.12.27h-.07v-.05l.07.05Zm-.95.9c.05 0 .12 0 .18.03H5l-.05.23.02.05h.05l.05-.03c.03-.02.05-.02.05-.05l.05-.02.05.12.03.03h.02l.05-.05c.03-.03.05-.05.08-.05l.1-.08.05.1c0 .03.02.03.02.05l.03.03h.02l.03-.03c.02-.02.05-.05.07-.05l.08-.02s.02.02.02.05c0 .05.06.1.1.12.08.03.13.03.2.03.03 0 .08-.05.08-.05.03-.03.03-.05 0-.05-.02-.08 0-.13.05-.2.03-.03.03-.05.05-.05l.1.02h.03l.02-.02.03-.1.17.02c.23.03.43.08.63.1.03 0 .05.03.1.03.2.1.46.17.68.17l.88.08c.1 0 .15.02.18.1 0 .07.07.15.15.17l.02.03c.18.1.36.2.5.3.13.08.23.18.33.28.05.05.1.07.13.12 0 0 .02.03.05.03.07.05.12.12.12.22 0 .05.03.1.05.13.03.05.08.07.1.12a2.95 2.95 0 0 1 .45.7c.08.13.16.28.26.4.25.4.55.86.93 1.41.15.23.23.5.23.78v.33a6.3 6.3 0 0 1-7.72-5.47c.02-.03.02-.05.05-.05Zm8.52 5.25c-.03-.1-.03-.2-.05-.27-.13-.38-.05-.73.2-1.06.13-.15.23-.32.35-.48.13-.17.25-.35.38-.5.15-.2.33-.4.5-.6.18-.2.33-.38.48-.58l.15-.17c.33-.4.65-.86 1.13-1.13.1-.08.2-.1.33-.1.17 0 .35-.05.5-.13a6.38 6.38 0 0 1-3.97 5.02Z" fill="#fff"/></svg>