<!-- by TradeStack --><svg width="56" height="56" viewBox="0 0 56 56" xmlns="http://www.w3.org/2000/svg"><path fill="#F0F3FA" d="M0 0h56v56H0z"/><path d="m29.85 22.67 1.3-2.18c.19-.3.83-1.61 1.93-3.96.43-.9.87-1.72 1.32-2.44.45-.7.88-1.53 1.3-2.45.22-.49.54-.7.97-.63a.38.38 0 0 1 .32.37 11.62 11.62 0 0 1-1.54 6.07c-.45.8-.76 1.38-.94 1.74-1 2.06-2.12 4.2-3.33 6.45a.42.42 0 0 0-.01.38c.33.69.6 1.4.78 2.15.27 1.07.47 1.8.6 2.2a46.24 46.24 0 0 1 1.63 6.07c.1.53.3 1 .44 1.4.24.68.39 1.28.38 1.89 0 .4-.08.8-.23 1.23-.22.61-.6 1.38-.98 2.31-.26.6-.98 1.57-1.7 1.63a.4.4 0 0 1-.27-.07C30.72 44.05 30 43 30 41.73c0-.73.36-1.5.52-2.1.11-.41.1-.94-.02-1.58-.52-2.71-1.1-5.2-1.72-7.46-.04-.13-.09-.18-.15-.2a.13.13 0 0 0-.15.09c-.2.5-.37 1-.68 1.47-.84 1.28-1.73 2.71-2.67 4.3-.53.9-.98 1.76-1.32 2.56-.12.26-.04.34.22.24l1.07-.41c.12-.05.24.03.25.16.18 2.08-1.42 2.7-2.59 4.07-.56.66-1.6 1.81-2.5 2.08-.58.16-.93-.05-1.06-.64-.34-1.6-.25-3.28.27-5.03.15-.52.74-1.53 1.77-3.04l1.36-1.97c.48-.68.92-1.35 1.32-1.99l3.32-5.34a.61.61 0 0 0 .06-.5c-.35-1.1-.58-2.37-1.17-3.44a32.7 32.7 0 0 1-1.06-2.36c-.53-1.26-.8-2.11-1.75-3.82-.16-.28-.32-.7-.32-1.06a.8.8 0 0 1 .08-.37c.15-.28.38-.38.65-.39.51 0 1.14.32 1.57.52.32.14.65.43.98.87a22.99 22.99 0 0 1 3.35 6.27c.02.04.06.07.1.07.05 0 .1-.02.12-.06Z" fill="#A7001C"/></svg>