<!-- by TradeStack --><svg width="56" height="56" viewBox="0 0 56 56" xmlns="http://www.w3.org/2000/svg"><path fill="#F0F3FA" d="M0 0h56v56H0z"/><path fill-rule="evenodd" d="m33.5 27-3.6-10H45v24h-6.28l-.93-2H36l.77 2h-9.04l-1.06-2h-1.7l.9 2H16.7L8 17h8.91l3.6 10h1.96L18.9 17h9l3.7 10h1.9Zm-10.95 2h1.36s-1.57 6-1.65 6H20.8l-.84-3.18-.85 3.18h-1.45l-1.57-6h1.7l.85 3.18.85-3.18h1.4l.8 3.18.85-3.18Zm4.25 0 2.03 6h-1.78l-.34-1h-2.03l-.39 1h-1.35l2.03-6h1.83Zm-1.74 3.6h1.27l-.64-1.94-.63 1.94Zm5.65 2.54V29H29V34.56c0 .5 0 1-.67 1-.12 0-.25 0-.42-.05l-.09 1.35c.34.1.68.14 1.02.14 1.32 0 1.87-.6 1.87-1.86Zm5.63-1.16L34.65 29h-1.82l-2.04 6h1.36l.38-1h2.04l.34 1h2.33l1.14-1.85L39.61 35h2l-2.21-3.28L41.22 29H39.7l-1.02 1.62L37.62 29h-1.95l1.99 3-1.32 1.98Zm-2.15-1.35h-1.27l.63-1.96.64 1.96Z" fill="#EB0029"/></svg>