<!-- by TradeStack --><svg width="56" height="56" viewBox="0 0 56 56" xmlns="http://www.w3.org/2000/svg"><path fill="#F0F3FA" d="M0 0h56v56H0z"/><path d="M15.64 30.85 20 28.43V36l-4.36-5.15Z" fill="#020202"/><path d="M37.42 20 20 28.6V36l17.68-9.81-.26-6.2ZM7.02 20l8.85 10.82 4.13-2.3V20H7.02Z" fill="#FFA80B"/><path d="M24.75 26.27 20 28.58V20l4.75 6.27Z" fill="#020202"/><path d="m37.4 20-12.65 6.27L19.8 20h17.6Z" fill="#704D13"/><path d="m7.02 20 8.85 10.82L7 35.86V20h.02Z" fill="#020202"/><path d="M20.2 36H7v-.14l8.87-5.04L20.2 36Z" fill="#452E04"/><path d="m32 29.1-3.56 1.98-3.62-4.85 7.18-3.6v6.47Z" fill="#C88208"/><path d="M37 26.5V36h-5v-6.91l5-2.58Z" fill="#452E04"/><path d="M28.43 31.07 32 36v-6.91l-3.57 1.98Z" fill="#020202"/><path d="m19.62 36 8.84-4.94 3.7 4.94H19.63Z" fill="#704D13"/><path d="M37 20v6.49l12-6.5H37Z" fill="#020202"/><path d="M49 36H37v-9.5L49 20v16Z" fill="#FFA80B"/></svg>