<!-- by TradeStack --><svg width="56" height="56" viewBox="0 0 56 56" xmlns="http://www.w3.org/2000/svg"><path fill="#F0F3FA" d="M0 0h56v56H0z"/><path d="M13 32h7.32l3.96 4.02L28 32.08l3.72 3.94L35.68 32H43L31.7 44 28 39.92 24.3 44 13 32Z" fill="#0C7233"/><path d="M13.01 32.01 15 33l8.87 5.16h9.5L41 33l2-1h-7.32l-3.96 4.02L28 32.08l-3.72 3.94L20.32 32H13l.01.01Z" fill="#52E388"/><path d="M15 33h5.15l4.1 4L28 33.24 31.82 37l4.14-4H41l-9.35 9.83L28 38.74l-3.75 4.09L15 33Z" fill="#14B64E"/><path d="M31.5 28.5a3.5 3.5 0 1 1-7 0 3.5 3.5 0 0 1 7 0Z" fill="#98BFF6"/><path d="m34.99 28 .01-.42c0-3.64-3.13-6.58-7-6.58s-7 2.94-7 6.58l.01.42c.24-3.02 3.27-5.41 6.99-5.41s6.75 2.39 6.99 5.41Z" fill="#7399E0"/><path d="m35 27.79-.01.21c-.24-3.02-3.28-5.41-7-5.41-3.7 0-6.74 2.39-6.98 5.41v-.21c.11-3.32 3.2-6.18 6.99-6.18s6.88 2.86 7 6.18Z" fill="#236FCF"/><path d="m38.98 28 .02-.66C39 21.63 34.08 17 28 17s-11 4.63-11 10.34c0 .22 0 .44.02.66.37-4.75 5.14-9.5 10.98-9.5 5.84 0 10.61 4.75 10.98 9.5Z" fill="#7399E0"/><path d="m39 27.67-.02.33c-.37-4.75-5.14-9-10.98-9-5.84 0-10.61 4.25-10.98 9l-.01-.33C17.19 22.46 22.04 18 28 18s10.8 4.46 11 9.67Z" fill="#236FCF"/><path d="m42.97 27 .03-.9C43 18.3 36.28 12 28 12c-8.28 0-15 6.31-15 14.1l.03.9c.5-6.47 7-13.37 14.97-13.37 7.96 0 14.47 6.9 14.97 13.37Z" fill="#7399E0"/><path d="m43 26.56-.02.44c-.5-6.37-7.02-13.07-14.98-13.07-7.96 0-14.48 6.7-14.98 13.07l-.02-.44c.25-7 6.87-13.56 15-13.56 8.13 0 14.75 6.56 15 13.56Z" fill="#236FCF"/><path fill="#C3D7EB" d="M10 28h36v1H10z"/><path d="M30.5 28.5a2.5 2.5 0 1 1-5 0 2.5 2.5 0 0 1 5 0Z" fill="#029F34"/><ellipse cx="28" cy="27.65" rx="1.5" ry="1.12" fill="#58FE93"/></svg>