<?xml version='1.0' encoding='utf-8'?>
<!-- by TradeStack -->
<svg width="56" height="56" viewBox="0 0 56 56" xmlns="http://www.w3.org/2000/svg"><path fill="#F0F3FA" d="M0 0h56v56H0z" /><path d="M31 19.5a5.5 5.5 0 1 1 11 0 5.5 5.5 0 0 1-11 0Z" fill="#0086CD" /><path d="M6 28a8 8 0 0 1 8-8h28a8 8 0 0 1 0 16H14a8 8 0 0 1-8-8Z" fill="#0086CD" /><path d="M7.04 28c0-3.86 3.32-7 7.4-7h27.2c4.08 0 7.4 3.14 7.4 7s-3.32 7-7.4 7h-27.2c-4.08 0-7.4-3.14-7.4-7Z" fill="#fff" /><path d="M8 28c0-3.3 2.98-6 6.65-6h26.7c3.67 0 6.65 2.7 6.65 6s-2.98 6-6.65 6h-26.7C10.98 34 8 31.3 8 28Z" fill="#0086CD" /><path d="M32 19.5a4.5 4.5 0 1 1 9.02.02A4.5 4.5 0 0 1 32 19.5Z" fill="#fff" /><path d="M36.5 16a3.5 3.5 0 1 0 0 7 3.5 3.5 0 0 0 0-7Z" fill="#0B318F" /><path d="M45 32h-2v-1c-.26.48-.87 1-1.94 1-1.36 0-2.07-.84-2.06-2.2.02-1.6 1.31-2.26 3.19-2.26H43c0-.58 0-1.42-.88-1.38-.49.02-.67.45-.68.84h-2.05c.01-.88.43-1.31 1-1.6a4.3 4.3 0 0 1 1.98-.4c1.17 0 2.66.51 2.63 2v5Zm-3.14-1.44c.95 0 1.03-1.02 1.03-1.9-.47 0-.9-.02-1.2.14-.32.18-.58.43-.58.89 0 .47.33.87.75.87ZM38 32v-7h-2v7h2ZM35.5 27.51c-.1-1.88-1.45-2.54-2.89-2.5-1.7 0-3.11 1.1-3.11 3.5 0 2.28.97 3.49 3.11 3.49a3.32 3.32 0 0 0 2.01-.7c.54-.46.88-1.14.88-2.08h-2.14c0 1.13-.4 1.3-.73 1.33h-.1c-.8 0-.82-1.37-.82-2.05 0-.67.04-1.97.75-2.05h.1c.25 0 .45.05.61.26.13.17.2.47.2.8h2.13ZM29 32v-9h-2v9h2ZM24 27.65c0-.35-.05-.7-.22-.97a.85.85 0 0 0-.77-.44c-.74.04-.92.66-.96 1.4H24v.01ZM21.99 29c0 .85.18 1.59.97 1.59.59 0 .96-.33 1.04-.95h1.96a2.46 2.46 0 0 1-1.06 1.84c-.49.37-1.12.52-1.77.52C20.9 32 20 30.86 20 28.28c0-2.1 1.33-3.28 3-3.28 2.28 0 3 1.54 3 4h-4.01ZM18.17 25 17 29.57 16 25h-1l-1 4.57L12.82 25H11l2.02 7h1.88l.6-2.59.6 2.59h1.88L20 25h-1.83ZM35 19.48c0-.82.67-1.48 1.5-1.48s1.5.66 1.5 1.48c0 .83-.67 1.49-1.5 1.49a1.5 1.5 0 0 1-1.5-1.49Z" fill="#fff" /></svg>