<?xml version='1.0' encoding='utf-8'?>
<!-- by TradeStack -->
<svg width="56" height="56" viewBox="0 0 56 56" xmlns="http://www.w3.org/2000/svg"><path fill="#F0F3FA" d="M0 0h56v56H0z" /><path fill-rule="evenodd" d="m18.65 30.42-3.78-2.2-3.87 2.2v4.39L14.87 37l3.78-2.2v-4.38Zm-.65.38-3.18-1.82-3.18 1.82v3.62l3.18 1.82L18 34.42V30.8ZM23 20.25 21 19l-2 1.25v2.5L21 24l2-1.25v-2.5Zm-.35.22L21 19.43l-1.65 1.04v2.06L21 23.57l1.65-1.04v-2.06ZM26 24.6l-2.5-1.4-2.5 1.4v2.79l2.5 1.4 2.5-1.4v-2.8Zm-.43.24-2.07-1.16-2.07 1.16v2.3l2.07 1.16 2.07-1.16v-2.3Z" fill="#003477" /><path d="M8 27.39v.36l3.27 2 3.26-2v-.36h-.56v.01l-2.7 1.66-2.7-1.66v-.01H8Z" fill="#AE0826" /><path d="m11.25 22 3.25 2v3H14v-2.66l-2.75-1.65-2.69 1.65V27H8v-3l3.25-2ZM17.75 22.84l2.75 1.5v2.28H20V24.6l-2.25-1.24-2.27 1.24v2.02H15v-2.28l2.75-1.5Z" fill="#003477" /><path d="M15 27.07v.27l2.75 1.5 2.75-1.5v-.27h-.48l-2.27 1.25-2.27-1.24H15Z" fill="#AE0826" /><path fill="#003477" d="M21 29.5h31v.5H21z" /><path d="m31.8 27-.55 2h2.12l.1-.4h-1.62l.1-.4h1.5l.15-.39h-1.55l.1-.35h1.66l.14-.46H31.8Zm-3.88 0h.56v1.16l.81-1.16h.53v1.16l.8-1.16h.57l-1.3 2h-.5l-.05-1.25-.83 1.25h-.45l-.14-2Zm14.6 2 .57-2h2.14l-.14.46h-1.67l-.09.35h1.55l-.15.4h-1.5l-.1.39h1.63l-.1.4h-2.13Zm-.13-2-.18.46h-1.63c-.06 0-.17.08-.23.27l-.12.51c-.02.1-.01.3.19.3h1.5l-.17.46H40.1c-.16-.03-.44-.22-.31-.73.12-.52.2-.7.2-.74.04-.18.24-.53.76-.53h1.64Zm-8.25 2 .55-2h.48l-.43 1.54h1.5l-.1.46h-2Zm11.78-2-.55 2h2l.1-.46h-1.5L46.4 27h-.48Zm-9.03 2 .55-2h.47l-.43 1.54H39l-.11.46h-2Zm11.78-2-.55 2h1.99l.11-.46h-1.5l.42-1.54h-.47Z" fill="#AE0826" /></svg>