<?xml version='1.0' encoding='utf-8'?>
<!-- by TradeStack -->
<svg width="56" height="56" viewBox="0 0 56 56" xmlns="http://www.w3.org/2000/svg"><path fill="#F0F3FA" d="M0 0h56v56H0z" /><path d="M33.27 15H41v7.73L46 28l-5 5.27V41h-7.73L28 46l-5.27-5H15v-7.73L10 28l5-5.27V15h7.73L28 10l5.27 5Zm-10.2.84h-7.23v7.24L11.18 28l4.66 4.97v7.2h7.33L28 44.81l4.97-4.66h7.2v-7.28L44.81 28l-4.66-4.97v-7.2h-7.24L28 11.19l-4.92 4.66Z" fill="#51ACD1" /><path d="M39.43 16.57h-6.86L28 12l-4.8 4.57h-6.63v6.74L12 28l4.57 4.69v6.74h6.74L28 44l4.69-4.57h6.74v-6.74L44 28l-4.57-4.69v-6.74ZM17.7 17.71h6L28 13.75l4.06 3.96h6.23v6.08L42.25 28l-3.96 4.13v6.16H32.2L28 42.25l-4.1-3.96h-6.19V32.2L13.75 28l3.96-4.17V17.7Z" fill="#51ACD1" /><path d="M31.8 19H37v5.2l4 3.8-4 3.8V37h-5.2L28 41l-3.8-4H19v-5.2L15 28l4-3.8V19h5.2l3.8-4 3.8 4Zm-7.36.53h-4.91v4.91L15.85 28l3.68 3.59v4.88h4.98L28 40.15l3.59-3.68h4.88v-4.95L40.15 28l-3.68-3.59v-4.88h-4.91L28 15.85l-3.56 3.68Z" fill="#51ACD1" /><path d="M27 13.41v28.65h.46V13.41H27ZM28.54 13.41v28.65H29V13.41h-.46Z" fill="#51ACD1" /><path d="M37.5 17 17.04 37.48l.33.33 20.46-20.46-.33-.33ZM38.68 18.19 18.22 38.65l.33.33L39 18.52l-.33-.33Z" fill="#51ACD1" /><path d="M18.55 17 39 37.48l-.33.33-20.46-20.46.33-.33ZM17.37 18.19l20.46 20.46-.33.33-20.46-20.46.33-.33Z" fill="#51ACD1" /><path d="M13.6 27h28.9v.46H13.6V27ZM13.6 28.54h28.9V29H13.6v-.46Z" fill="#51ACD1" /><path fill="#CB4B38" d="M29 22h1v11h-1zM31 33V22h1.15L35 30v-8h1v11h-1.2L32 25v8h-1ZM21.16 22H20l1.6 11h1.21L24 25l1.19 8h1.21L28 22h-1.16l-1.05 8-1.04-8h-1.5l-1.04 8-1.05-8Z" /></svg>