<!-- by TradeStack --><svg width="56" height="56" viewBox="0 0 56 56" xmlns="http://www.w3.org/2000/svg"><path fill="#F0F3FA" d="M0 0h56v56H0z"/><path d="M5.48 31 4 25h1.02l.95 4 1.06-4h.94l1.06 4 .95-4H11l-1.48 6h-.94L7.5 27l-1.08 4h-.94ZM12 25h1.27L15 29.35 16.73 25H18v6h-1v-4l-1.63 3.98h-.74L13 27V31h-1v-6ZM21.06 31H19v-6h2.1c1.77 0 2.9 1.25 2.9 3 0 1.76-1.16 3-2.94 3ZM20 30h1c1.27 0 1.91-.79 1.91-2 0-1.2-.63-2-1.88-2H20v4ZM38.06 31H36v-6h2.1c1.77 0 2.9 1.25 2.9 3 0 1.76-1.16 3-2.94 3ZM37 30h1c1.27 0 1.91-.79 1.91-2 0-1.2-.63-2-1.88-2H37v4ZM26 31v-6h1v2.54h3V25h1v6h-1v-2.55h-3V31h-1ZM32 31v-6h1v5h2v1h-3ZM45.96 27a1.4 1.4 0 0 0-1.37-1C43.5 26 43 27.03 43 28c0 .98.48 2 1.61 2 .83 0 1.4-.39 1.4-1.21l.23.04h-1.52V28H47v.7c0 1.4-.98 2.3-2.4 2.3-1.68 0-2.6-1.42-2.6-3 0-1.5.91-3 2.58-3 1.16 0 2.25.82 2.42 2h-1.04ZM51.02 26.68c-.05-.5-.42-.68-.98-.68-.46 0-.94.14-.95.65 0 .36.26.58.57.7.1.04.21.08.32.1l.49.14c.2.06.38.12.57.21.59.28.96.81.96 1.47 0 1.13-.93 1.73-1.98 1.73-1.11 0-1.98-.65-2.02-1.81h.93c.04.6.52.81 1.09.81.5 0 1-.17 1-.73 0-.5-.49-.7-.9-.81l-.6-.17c-.76-.22-1.38-.72-1.38-1.57 0-1.06.9-1.72 1.91-1.72.99 0 1.86.65 1.88 1.68h-.91Z"/></svg>