<?xml version='1.0' encoding='utf-8'?>
<!-- by TradeStack -->
<svg width="56" height="56" viewBox="0 0 56 56" xmlns="http://www.w3.org/2000/svg"><path fill="#F0F3FA" d="M0 0h56v56H0z" /><path d="M44 18h-7v1h1.81c1.15 0 1.06 1.5.87 2l-4.04 15.9L29.3 18h-1.16l-6.91 18.6A677.55 677.55 0 0 1 17.77 21c-.23-1.44.67-2 1.15-2H20v-1h-8v1c2.08 0 2.79 2.2 2.88 3.2L19.5 42h1.73l6.63-18.3L34.2 42h1.73c1.34-5 4.26-15.78 5.19-18.9.92-3.12 1.73-4.2 2.02-4.1H44v-1Z" fill="url(#ajrweuw2n)" /><defs><linearGradient id="ajrweuw2n" x1="14.31" y1="22.5" x2="42.85" y2="22.78" gradientUnits="userSpaceOnUse"><stop stop-color="#6B1F1D" /><stop offset="1" stop-color="#E13A3F" /></linearGradient></defs></svg>