<!-- by TradeStack --><svg width="56" height="56" viewBox="0 0 56 56" xmlns="http://www.w3.org/2000/svg"><path fill="#F0F3FA" d="M0 0h56v56H0z"/><path d="M19.5 24v8H18v-8h1.5ZM9.12 32 7 24h1.46l1.4 5.5 1.47-5.5h1.34l1.48 5.5 1.39-5.5H17l-2.12 8h-1.34L12 26.39 10.46 32H9.12ZM27 24v8h-1.18l-3.26-5h-.06v5H21v-8h1.18l3.26 5h.06v-5H27ZM28 32v-8h5v1.5h-3.5v1.89H32v1.21h-2.5v1.9H33V32h-5ZM41 26.73h-1.45c-.17-.93-.98-1.23-1.89-1.23-1.52 0-2.16 1.14-2.16 2.5 0 1.37.63 2.5 2.16 2.5.89 0 1.71-.28 1.89-1.2l1.45.02c-.24 1.66-1.74 2.68-3.36 2.68-2.27 0-3.64-1.84-3.64-4 0-2.15 1.37-4 3.64-4 1.67 0 3.13 1.02 3.36 2.73ZM49 28c0 2.08-1.26 4-3.5 4S42 30.08 42 28c0-2.09 1.26-4 3.5-4s3.5 1.92 3.5 4Zm-1.5 0c0-1.3-.5-2.5-2-2.5s-2 1.19-2 2.5.5 2.5 2 2.5 2-1.19 2-2.5Z"/></svg>