<?xml version='1.0' encoding='utf-8'?>
<!-- by TradeStack -->
<svg width="56" height="56" viewBox="0 0 56 56" xmlns="http://www.w3.org/2000/svg"><path fill="#F0F3FA" d="M0 0h56v56H0z" /><path d="M28.98 33.67c.97 3 1.82 6.45 2.92 9.33h-5.85c.97-3.11 2.07-6.45 2.93-9.33ZM15 13c1.62.36 2.43 1.3 3 2.98.58 1.78 1.5 5.35 2.9 10.71 1.38 5.24 3.46 13.21 4.5 16.31H15V13Zm26 0v30h-7.8s.94-3.81 2-7.94l.18-.7.24-.95.3-1.17C37.33 26.65 38 24 38.67 21.53l.1-.38.05-.19.1-.38L41 13Zm-16.98 0 4.63 17.47-1.58 5.86c-.5-1.58-1.6-5.63-2.73-9.92l-.17-.64-.17-.65-.08-.32-.17-.65c-1.5-5.7-2.9-11.15-2.9-11.15h3.17Zm15.03 0-5.47 23.33c-.93-2.75-1.75-6.58-2.33-8.97.49-1.6.96-3.22 1.42-4.83l.13-.46.27-.92.13-.46.06-.23.13-.46 1.94-7h3.72Zm-8.58 11.33.78 2.97-1.82 5.7-.78-2.5 1.82-6.17ZM32.55 13s-.79 3.6-1.7 7.35l-.11.45-.06.23-.11.45-.56 2.19C29.89 23.08 27.35 13 27.35 13h5.2Z" fill="#001830" /></svg>