<!-- by TradeStack --><svg width="56" height="56" viewBox="0 0 56 56" xmlns="http://www.w3.org/2000/svg"><path fill="#F0F3FA" d="M0 0h56v56H0z"/><path d="M43.9 29.83a16 16 0 1 1-30.63-8.08l4.2 5.25L19 24.44l-4.45-5.12a15.99 15.99 0 0 1 22.49-4.52C33.59 17.74 26.44 24.94 24 31.55L26.74 35c1.2-3.43 5.22-11.06 13.19-17.66A15.94 15.94 0 0 1 44 28.37c-1.57.53-3.94 1.2-5.6 1.2-1.9 0-3.52-.37-4.21-.53A22.1 22.1 0 0 0 34 29c.59.24 1.5.64 2.34 1.01.97.43 1.86.82 2.05.88-.26.4-4.89 5.11-13.56 5.11-10.33 0-11.62-6.43-11.62-6.92v-.99c-.07.17-.21.7-.21 1.48C13 31.13 15.17 37 26.48 37c8.37 0 14.75-4.45 17.42-7.17ZM32 17h-5.06c-1.2 1.08-4.48 4.92-7.94 11.63.84 1.02 2.16 2.67 2.72 3.37 1.31-3.05 5.22-10.33 10.28-15Z" fill="#D71A21"/></svg>