<!-- by TradeStack --><svg width="56" height="56" viewBox="0 0 56 56" xmlns="http://www.w3.org/2000/svg"><path fill="#F0F3FA" d="M0 0h56v56H0z"/><path fill-rule="evenodd" d="M13.14 26.48a2.06 2.06 0 0 1 2-1.48h35.63c.8 0 1.4.74 1.19 1.5l-1.69 6.02a2.06 2.06 0 0 1-2 1.48H12.62c1.78-.91 2.04-2.88 1.94-3.8l-1.58-3.16.16-.56ZM40 32l2.08-5h2.94c.33.05.98.32.98.92 0 .75-.87 1.6-1.82 1.89v2.14h-1.47V29.3c.57 0 1.7-.16 1.7-.9 0-.19-.14-.3-.43-.3h-.91L41.44 32H40Zm9-4.8-.36 1.13a1.88 1.88 0 0 1-.08-.06.9.9 0 0 0-.58-.24c-.22 0-.67.12-.67.48 0 .25.14.4.3.58.2.25.46.54.46 1.17 0 1.07-1.05 1.74-1.9 1.74-.67 0-1.06-.15-1.17-.23l.36-1.15c.11.1.43.3.75.3.4 0 .73-.02.73-.43 0-.34-.14-.51-.3-.7-.2-.22-.43-.48-.43-1.1 0-1.12 1.02-1.69 1.87-1.69.67 0 .96.14 1.02.2ZM32.57 32H31l1.87-5h1.55l.2 3.02L35.65 27H37l-1.87 5h-1.57l-.19-2.88-.8 2.88Zm5.15-5L36 32h3.2l.41-1.13H37.6l.29-.85h1.7l.42-1.13h-1.73l.26-.76h2.06L41 27h-3.28ZM18 27h1.35l.25 3.42L20.75 27h1.5l.23 3.02L23.65 27H25l-1.94 5h-1.78l-.21-2.88-.92 2.88h-1.77L18 27Zm8 5h1.57l.8-2.88.2 2.88h1.56L32 27h-1.35l-1.03 3.02-.2-3.02h-1.55L26 32Zm1-5h-1.23L24 32h1.23L27 27Z" fill="#254B92"/><path d="M10.1 27.2c.04 0 .07-.02.06-.05-.04-.31-.07-.63-.14-.94-.2-.8-.62-1.95-.36-2.78.25-.8.98-1.34 1.92-1.43.54-.05.61.42.7.82.1.44.14 1 .12 1.7-.01.13 0 .42.06.53.75 1.28 1.17 2.72 1.95 3.96.98 1.54.69 3.12-.5 4.47a5.74 5.74 0 0 1-2.9 1.5c-.41.1-1.2-.24-1.64-.46-.23-.12-.34 0-.55-.02-.9-.13-1.94-.62-1.54-1.62.06-.15-.9-.26-.73-1.55l-.01-.05-.16-.15c-.4-.35-.48-.76-.26-1.21.06-.13.2-.27.27-.42a.07.07 0 0 0 0-.07 1.78 1.78 0 0 1-.23-.75c-.04-2.06 2.48-1.89 3.95-1.48Zm-2.54.97c.27.05.55.17.83.14.5-.05.99-.01 1.48.1 1.14.3 1.04 1.09.75 1.71.3.24.8.6.3 1.37a.05.05 0 0 0 0 .06l.27.26c.38.4.18.86-.35 1-.02 0-.03.01 0 .03.34.27.63.36.65.83 0 .2-.12.44-.35.47a18.76 18.76 0 0 0-1.14.19c.38.15.73.3 1.1.18 1.93-.61 3.7-1.95 3.42-4.03a2.43 2.43 0 0 0-.47-1.11c-.36-.5-.58-1.14-.82-1.69-.37-.85-.83-1.63-1.27-2.44-.15-.26-.07-.78-.04-1.07a4.7 4.7 0 0 0-.18-1.4c-.07-.29-.48-.15-.68-.06-.64.29-.94.78-.94 1.41 0 .2.02.36.05.47.34 1.07.68 2.09.38 3.21 0 .03-.04.05-.07.04-.82-.25-2.83-.72-3.5-.05-.61.61-.17 1.7.59 2.02.88.37 1.63.08 2.5-.06.28-.04.43-.12.33-.4-.13-.36-.42-.54-.85-.54-.57 0-.95.02-1.13.04-.66.03-1.04-.71-.86-.68Zm3.14 2.85c.08-.47-.29-.78-.78-.7-.38.05-.76.11-1.14.2-1.22.1-1.94-.69-2.05-.53-.17.22-.2.43-.1.63.21.4 1.38.64 1.86.74.17.03.3.03.47 0 .57-.09 1.14-.19 1.7-.3.02 0 .03-.02.04-.04Zm-.39.63c-.51.1-1.03.18-1.55.25a.9.9 0 0 1-.34-.02l-1.31-.33c-.05-.01-.1.01-.11.05-.08.27.01.47.28.61.53.27 1.25.5 1.86.4l1.59-.25c.2-.04-.12-.77-.42-.71ZM8.7 33.2c-.14 0-.9-.2-.92-.16-.18.7.73 1 1.32.93.24-.02.7-.1 1.39-.24.11-.02.4-.06.36-.23-.09-.36-.42-.58-.82-.5-.7.13-1.13.2-1.33.2Z" fill="#CE2A2C"/><path fill-rule="evenodd" d="M8.97 22.97 8.5 22l-.47.97-1.03.18.74.77L7.57 25l.93-.5.93.5-.16-1.08.73-.77-1.03-.18Zm-.18.27-.29-.6-.3.6-.63.1.46.48-.1.67.57-.31.57.3-.1-.66.46-.48-.64-.1ZM6.36 21.69l-.1-.69-.52.48-.7-.13.3.62-.34.61.72-.08.5.5.13-.68.65-.3-.64-.33Zm-.17.11-.06-.42-.33.3-.44-.09.2.39-.21.38.44-.06.3.31.09-.42.4-.18-.4-.2ZM5.88 24.7l-.8-.7-.13 1.03-.95.51.98.44.2 1.02.75-.76 1.07.12-.52-.9.46-.95-1.06.2Zm-.1.3-.48-.43-.09.64-.58.3.6.28.13.63.46-.47.66.07-.32-.56.28-.58-.65.12Z" fill="#CE2A2C"/><path d="m13.28 22.77-.28-.76a7.6 7.6 0 0 1 3.53.63c1.44.76 3.64 1.1 4.47 1.36-1.77 0-3.94-.58-5.13-1a6.14 6.14 0 0 0-2.6-.23Z" fill="url(#a05eq5ki3)"/><path d="m9.64 21.72-.64-.7A8.97 8.97 0 0 1 12.88 20c2.03 0 4.15.9 5.52 1.72 1.36.82 4.46 1.96 6.83 1.96 1.9 0 4.64-.57 5.77-.85-.78.4-3 1.17-5.66 1.17-3.32 0-6.3-1.31-7.36-1.81-1.06-.5-2.12-1.28-4.63-1.28-2 0-3.3.54-3.7.81Z" fill="url(#b05eq5ki3)"/><defs><linearGradient id="a05eq5ki3" x1="13" y1="22.53" x2="21" y2="22.49" gradientUnits="userSpaceOnUse"><stop stop-color="#394FA0"/><stop offset="1" stop-color="#E3F1F4"/></linearGradient><linearGradient id="b05eq5ki3" x1="9" y1="21.05" x2="31" y2="20.92" gradientUnits="userSpaceOnUse"><stop stop-color="#394FA0"/><stop offset="1" stop-color="#E3F1F4"/></linearGradient></defs></svg>