<!-- by TradeStack --><svg width="56" height="56" viewBox="0 0 56 56" xmlns="http://www.w3.org/2000/svg"><path fill="#F0F3FA" d="M0 0h56v56H0z"/><path d="M6.27 28 5 23h.88l.85 3.5.87-3.5h.8l.87 3.5.85-3.5H11l-1.27 5h-.8L8 25l-.92 3h-.8ZM27.27 28 26 23h.88l.85 3.5.87-3.5h.8l.87 3.5.85-3.5H32l-1.27 5h-.8L29 25l-.92 3h-.8ZM47 28v-5h1v2h2v-2h1v5h-1v-2h-2v2h-1ZM37.5 31h.9l1.1 2.21L40.6 31h.9L40 34.13V36h-1v-1.87L37.5 31ZM16 36v-5h3v.76h-2v1.36h1.5v.76H17v1.36h2V36h-3ZM12 28v-5h3v.76h-2v1.36h1.5v.76H13v1.36h2V28h-3ZM25 36v-5h3v.76h-2v1.36h1.5v.76H26v1.36h2V36h-3ZM24 31v5h-.78L21 32.8V36h-1v-5h.79L23 34.3V31h1ZM20 23v5h-.78L17 24.8V28h-1v-5h.79L19 26.3V23h1ZM29 36v-5h1.96c.99 0 1.85.44 1.85 1.5 0 .96-.65 1.5-1.86 1.5h-1.4v-.75h1.27c.54 0 1.02-.15 1.02-.75s-.48-.74-1.02-.74H30V36h-1Zm2.7-2.27L33 36h-1.06l-1.27-2.43 1.03.16ZM37 28v-5h1.96c.99 0 1.85.44 1.85 1.5 0 .96-.65 1.5-1.86 1.5h-1.4v-.75h1.27c.54 0 1.02-.15 1.02-.75s-.48-.74-1.02-.74H38V28h-1Zm2.7-2.27L41 28h-1.06l-1.27-2.43 1.03.16ZM35.92 32.62c-.14-.48-.33-.83-.85-.83-.9 0-1.07.93-1.07 1.7 0 .8.16 1.72 1.1 1.72.67 0 .9-.6.9-1.27l.18.03h-1.12v-.58H37v.58c0 1.13-.75 2.03-1.91 2.03-1.4 0-2.09-1.23-2.09-2.5 0-1.23.69-2.5 2.06-2.5.96 0 1.77.67 1.9 1.62h-1.04ZM20.45 23.76V23h4.1v.76H23V28h-1v-4.24h-1.55ZM41.45 23.76V23h4.1v.76H44V28h-1v-4.24h-1.55ZM36 25.5c0 1.2-.64 2.5-2 2.5-1.36 0-2-1.3-2-2.5s.64-2.5 2-2.5c1.36 0 2 1.3 2 2.5Zm-1 0c0-.75-.1-1.7-1-1.7s-1 .95-1 1.7c0 .76.1 1.7 1 1.7s1-.94 1-1.7Z"/></svg>