<!-- by TradeStack --><svg width="56" height="56" viewBox="0 0 56 56" xmlns="http://www.w3.org/2000/svg"><path fill="#F0F3FA" d="M0 0h56v56H0z"/><path d="m46 24.94-1.41 1.34-6.42-2.91L26 27l10.37-7.94a.13.13 0 0 0 .05-.1v-2.6c0-.06.03-.1.08-.13.29-.14.63-.23.97-.23.26 0 .51.06.74.2.48.28 1.05.73 1.68.32.04-.03.1 0 .11.06v1.56c0 .06-.03.1-.08.11-1.42.48-1.95-.95-3.1-.38a.17.17 0 0 0-.11.16v.88c0 .06.02.11.07.14L46 24.94Z" fill="#092847"/><path d="M48 31c-1.13.98-5.54 4.94-9 8V26.04c0-.04.04-.05.07-.03L44 27.88V31h4ZM35 35v-5.95c0-.54.42-1.05.97-1.05h.06c.55 0 .97.5.97 1.05V35h-2ZM25.28 30.87c.07.05.38.1.74.13h1.9c.05 0 .08.03.08.08v4.83c0 .06-.03.09-.08.09h-2.73a.17.17 0 0 1-.14-.08l-5.98-7.76c-.12-.16-.09-.2.1-.12 2 .95 4.05 1.9 6.1 2.83ZM32.01 35 32 29.92c0-.46.38-.92.93-.92h.13c.55 0 .93.46.93.91L34 35h-1.99ZM29 35l.01-4.24c0-.2.1-.4.28-.54.17-.14.41-.22.66-.22h.11c.55 0 .94.38.94.76L30.99 35H29ZM8.02 35.89 14.38 31h3.56c.05 0 .08.06.05.1l-4.07 4.88a.06.06 0 0 1-.05.02h-5.8a.06.06 0 0 1-.07-.08l.02-.03ZM19.5 35a1.5 1.5 0 1 0 0-3 1.5 1.5 0 0 0 0 3Z" fill="#092847"/></svg>