<!-- by TradeStack --><svg width="56" height="56" viewBox="0 0 56 56" fill="none" xmlns="http://www.w3.org/2000/svg">
<rect width="56" height="56" fill="#F0F3FA"/>
<path d="M51 34.9722C51 34.9796 50.9971 34.9866 50.9919 34.9918C50.9867 34.9971 50.9797 35 50.9723 35H5.02769C5.02034 35 5.0133 34.9971 5.00811 34.9918C5.00292 34.9866 5 34.9796 5 34.9722V21.0278C5 21.0204 5.00292 21.0134 5.00811 21.0082C5.0133 21.0029 5.02034 21 5.02769 21H50.9723C50.9797 21 50.9867 21.0029 50.9919 21.0082C50.9971 21.0134 51 21.0204 51 21.0278V34.9722ZM50.66 21.3545C50.66 21.351 50.6586 21.3476 50.6561 21.3451C50.6537 21.3427 50.6503 21.3413 50.6469 21.3413H5.35314C5.34966 21.3413 5.34632 21.3427 5.34386 21.3451C5.3414 21.3476 5.34002 21.351 5.34002 21.3545V34.6455C5.34002 34.649 5.3414 34.6524 5.34386 34.6549C5.34632 34.6573 5.34966 34.6587 5.35314 34.6587H50.6469C50.6503 34.6587 50.6537 34.6573 50.6561 34.6549C50.6586 34.6524 50.66 34.649 50.66 34.6455V21.3545Z" fill="#231F20"/>
<path d="M19.4611 28L15.9259 28C15.9212 28 15.9167 28.0014 15.9128 28.0041C15.9089 28.0067 15.9059 28.0105 15.904 28.0149L15.0925 29.9828C15.0907 29.9872 15.0876 29.9909 15.0837 29.9936C15.0798 29.9962 15.0753 29.9977 15.0706 29.9977H13.7241C13.7201 29.9977 13.7162 29.9967 13.7127 29.9948C13.7092 29.9928 13.7062 29.99 13.7041 29.9866C13.7019 29.9832 13.7006 29.9793 13.7003 29.9752C13.7 29.9712 13.7006 29.9671 13.7023 29.9633L17.0908 22.0144C17.0927 22.0101 17.0958 22.0064 17.0997 22.0039C17.1035 22.0013 17.1081 22 17.1127 22H18.3474C18.3521 22 18.3566 22.0013 18.3605 22.0039C18.3643 22.0064 18.3674 22.0101 18.3693 22.0144L21.7569 29.9633C21.7585 29.9671 21.7592 29.9712 21.7589 29.9752C21.7586 29.9793 21.7573 29.9832 21.7551 29.9866C21.7529 29.99 21.7499 29.9928 21.7464 29.9948C21.7429 29.9967 21.739 29.9977 21.735 29.9977H20.3458C20.341 29.9978 20.3364 29.9964 20.3324 29.9937C20.3284 29.9911 20.3253 29.9872 20.3235 29.9828L19.4829 28.0149C19.4811 28.0105 19.4781 28.0067 19.4742 28.0041C19.4703 28.0014 19.4657 28 19.4611 28ZM16.3933 26.8175C16.3923 26.82 16.3918 26.8227 16.3921 26.8254C16.3923 26.8281 16.3932 26.8307 16.3946 26.833C16.396 26.8352 16.398 26.8371 16.4003 26.8384C16.4026 26.8397 16.4052 26.8404 16.4079 26.8404L19.0178 26.8359C19.0204 26.8359 19.023 26.8352 19.0253 26.8339C19.0276 26.8326 19.0296 26.8307 19.031 26.8285C19.0325 26.8262 19.0334 26.8236 19.0336 26.8209C19.0338 26.8182 19.0334 26.8155 19.0323 26.813L17.7223 23.7065C17.7211 23.7035 17.719 23.7009 17.7164 23.6991C17.7137 23.6973 17.7106 23.6964 17.7075 23.6964C17.7043 23.6964 17.7012 23.6973 17.6986 23.6991C17.6959 23.7009 17.6939 23.7035 17.6927 23.7065L16.3933 26.8175Z" fill="#231F20"/>
<path d="M11.6815 25.8637C12.4082 26.0964 13.03 26.62 13.1334 27.4656C13.3593 29.3147 11.8098 29.9917 10.2967 29.9967L6.72111 29.9977C6.71686 29.9977 6.71278 29.996 6.70977 29.9929C6.70677 29.9898 6.70508 29.9856 6.70508 29.9812V22.0491C6.70508 22.0361 6.71009 22.0236 6.71902 22.0144C6.72795 22.0052 6.74006 22 6.75268 22C7.95538 22.0003 9.16602 22.0003 10.3846 22C11.5684 22 12.7361 22.7222 12.7191 24.0597C12.7089 24.8326 12.346 25.4474 11.6762 25.789C11.6172 25.8191 11.619 25.844 11.6815 25.8637ZM8.00333 23.2956V25.2887C8.00333 25.3063 8.0535 25.3552 8.07051 25.3552L10.1072 25.3587C10.4379 25.3593 10.7553 25.2563 10.9895 25.0722C11.2237 24.8882 11.3556 24.6382 11.3561 24.3772V24.2257C11.3563 24.0965 11.3243 23.9685 11.2619 23.849C11.1995 23.7295 11.1079 23.6208 10.9923 23.5292C10.8767 23.4376 10.7393 23.3649 10.5882 23.3151C10.437 23.2654 10.2749 23.2396 10.1111 23.2393L8.07439 23.2357C8.05739 23.2357 8.00333 23.2781 8.00333 23.2956ZM11.4926 26.9244C11.1074 26.5964 10.576 26.5518 10.0931 26.5513C9.41375 26.5506 8.7418 26.5508 8.07731 26.5518C8.05798 26.5518 8 26.5938 8 26.6138V28.7131C8 28.7227 8.04909 28.7459 8.05836 28.7459C8.86081 28.7479 9.66553 28.7461 10.4725 28.7404C10.9034 28.7379 11.4411 28.5624 11.6631 28.1566C11.8661 27.7855 11.8345 27.2148 11.4926 26.9244Z" fill="#231F20"/>
<path d="M33.9724 27.4798C33.9742 27.4822 33.9767 27.4839 33.9796 27.4848C33.9824 27.4857 33.9855 27.4856 33.9883 27.4846C33.9911 27.4836 33.9935 27.4818 33.9952 27.4793C33.997 27.4768 33.9979 27.4738 33.9978 27.4708L33.9969 22.0305C33.9969 22.0108 34.0066 22.001 34.0262 22.001L35.3249 22.0005C35.3298 22.0005 35.3345 22.0025 35.338 22.0061C35.3415 22.0096 35.3434 22.0145 35.3434 22.0195V29.9977H34.241C34.2211 29.9977 34.1971 29.978 34.1847 29.9617L30.0284 24.352C30.0261 24.349 30.0229 24.3468 30.0192 24.3457C30.0156 24.3446 30.0118 24.3447 30.0082 24.346C30.0047 24.3472 30.0016 24.3496 29.9994 24.3527C29.9973 24.3559 29.9961 24.3596 29.9961 24.3635V29.9597C29.9961 29.9691 29.9924 29.9782 29.9858 29.985C29.9792 29.9917 29.9703 29.9955 29.9609 29.9957L28.6828 29.9977C28.6625 29.9977 28.6521 29.9872 28.6515 29.9662L28.65 29.8842C28.6497 29.8673 28.644 29.851 28.6338 29.8377L24.3696 24.3405C24.3679 24.3381 24.3656 24.3363 24.3628 24.3354C24.3601 24.3345 24.3572 24.3346 24.3545 24.3355C24.3518 24.3365 24.3494 24.3383 24.3478 24.3407C24.3463 24.3432 24.3455 24.346 24.3456 24.349V29.9657C24.3456 29.9711 24.3436 29.9763 24.3399 29.9802C24.3362 29.984 24.3312 30 24.326 30H23.0303C23.0101 30 23 29.9757 23 29.9547V22.0235C23 22.0173 23.0024 22.0113 23.0067 22.0069C23.011 22.0025 23.0169 22 23.023 22L24.2463 22.0055C24.2632 22.0055 24.2771 22.0125 24.2879 22.0265L28.5208 27.4853C28.5224 27.4871 28.5244 27.4885 28.5268 27.4892C28.5291 27.4899 28.5316 27.4898 28.5338 27.4891C28.5361 27.4883 28.538 27.4868 28.5394 27.4849C28.5407 27.483 28.5414 27.4806 28.5414 27.4783L28.5399 22.038C28.5399 22.028 28.5438 22.0185 28.5508 22.0115C28.5578 22.0044 28.5672 22.0005 28.5771 22.0005H29.8831C29.8939 22.0005 29.9046 22.003 29.9143 22.0079C29.924 22.0127 29.9326 22.0198 29.9393 22.0285L33.9724 27.4798Z" fill="#231F20"/>
<path d="M37.4375 25.3254L41.4053 25.3244C41.409 25.3244 41.4128 25.3252 41.4163 25.3266C41.4197 25.328 41.4229 25.3302 41.4256 25.3328C41.4282 25.3355 41.4303 25.3386 41.4318 25.3421C41.4332 25.3455 41.434 25.3493 41.434 25.353V26.5623C41.434 26.566 41.4332 26.5697 41.4318 26.5732C41.4303 26.5767 41.4282 26.5798 41.4256 26.5825C41.4229 26.5851 41.4197 26.5872 41.4163 26.5887C41.4128 26.5901 41.409 26.5908 41.4053 26.5908H37.4375C37.4299 26.5908 37.4226 26.5938 37.4172 26.5992C37.4118 26.6046 37.4088 26.6118 37.4088 26.6194V28.7055C37.4088 28.7131 37.4118 28.7204 37.4172 28.7257C37.4226 28.7311 37.4299 28.7341 37.4375 28.7341H41.9713C41.9789 28.7341 41.9862 28.7371 41.9916 28.7425C41.997 28.7478 42 28.7551 42 28.7627V29.9714C42 29.979 41.997 29.9863 41.9916 29.9916C41.9862 29.997 41.9789 30 41.9713 30H36.0287C36.0211 30 36.0138 29.997 36.0084 29.9916C36.003 29.9863 36 29.979 36 29.9714V22.0336C36 22.026 36.003 22.0187 36.0084 22.0134C36.0138 22.008 36.0211 22.005 36.0287 22.005L41.9713 22C41.9789 22 41.9862 22.003 41.9916 22.0084C41.997 22.0137 42 22.021 42 22.0286V23.2283C42 23.2359 41.997 23.2431 41.9916 23.2485C41.9862 23.2539 41.9789 23.2569 41.9713 23.2569H37.4375C37.4299 23.2569 37.4226 23.2599 37.4172 23.2652C37.4118 23.2706 37.4088 23.2779 37.4088 23.2855V25.2969C37.4088 25.3044 37.4118 25.3117 37.4172 25.3171C37.4226 25.3224 37.4299 25.3254 37.4375 25.3254Z" fill="#231F20"/>
<path d="M47.516 26.998L49.5682 29.9684C49.5703 29.9714 49.5715 29.9749 49.5717 29.9785C49.572 29.9822 49.5713 29.9858 49.5697 29.989C49.5681 29.9923 49.5656 29.995 49.5627 29.9969C49.5597 29.9989 49.5562 29.9999 49.5527 30H48.0041C47.9808 30 47.9625 29.9901 47.9493 29.9704L46.0772 27.2285C46.0727 27.2218 46.0667 27.2164 46.0597 27.2126C46.0527 27.2089 46.0448 27.2069 46.0369 27.2069H44.3844C44.3779 27.2069 44.3718 27.2096 44.3672 27.2143C44.3626 27.219 44.3601 27.2253 44.3601 27.232V29.9749C44.3601 29.9816 44.3575 29.988 44.353 29.9927C44.3484 29.9974 44.3422 30 44.3358 30H43.0243C43.0178 30 43.0117 29.9974 43.0071 29.9927C43.0026 29.988 43 29.9816 43 29.9749V22.0466C43 22.0152 43.0152 21.9997 43.0457 22C44.1622 22.0084 45.2741 22.0013 46.3813 22C48.0537 21.998 49.5085 22.8652 49.3122 24.8272C49.2051 25.897 48.6105 26.6076 47.5286 26.9589C47.5069 26.9659 47.5027 26.979 47.516 26.998ZM46.4245 26C48.4617 25.9835 48.5059 23.2951 46.4245 23.2891C45.7406 23.2871 45.0609 23.2862 44.3853 23.2866C44.3786 23.2866 44.3722 23.2893 44.3675 23.2942C44.3627 23.2991 44.3601 23.3057 44.3601 23.3126V26H46.4245Z" fill="#231F20"/>
<path d="M21.9903 33.5567C21.9881 33.5548 21.9862 33.5524 21.9849 33.5498C21.9836 33.5472 21.9827 33.5443 21.9825 33.5414C21.9823 33.5385 21.9826 33.5355 21.9835 33.5327C21.9844 33.5299 21.9859 33.5273 21.9878 33.5251L22.1561 33.3243C22.1596 33.3201 22.164 33.3166 22.1688 33.3142C22.1737 33.3117 22.179 33.3102 22.1845 33.3099C22.1899 33.3096 22.1954 33.3103 22.2005 33.3122C22.2056 33.314 22.2103 33.3169 22.2143 33.3207C22.5555 33.6426 22.9566 33.7635 23.4176 33.6834C23.8078 33.6162 23.9726 33.0992 23.6199 32.8513C23.5286 32.7874 23.4354 32.7454 23.3403 32.725C23.0297 32.6588 22.7639 32.5815 22.5428 32.4931C21.8204 32.2038 22.012 31.2345 22.7076 31.0518C23.1826 30.9273 23.6271 31.0272 24.0411 31.3515C24.0527 31.3605 24.0541 31.3708 24.0452 31.3825L23.8866 31.5937C23.8845 31.5966 23.8818 31.599 23.8787 31.6008C23.8756 31.6026 23.8721 31.6038 23.8685 31.6043C23.8649 31.6048 23.8613 31.6045 23.8578 31.6036C23.8542 31.6027 23.8509 31.6011 23.848 31.5989C23.5669 31.3825 23.2653 31.2851 22.9434 31.3065C22.636 31.3266 22.3657 31.5445 22.4311 31.8742C22.5598 32.5247 23.9263 32.1505 24.1214 32.992C24.2445 33.5209 23.8727 33.9122 23.3723 33.9821C22.8625 34.0535 22.4019 33.9117 21.9903 33.5567Z" fill="#231F20"/>
<path d="M41.2036 33.9805L40.8712 33.2291C40.8688 33.2236 40.8648 33.2189 40.8598 33.2157C40.8547 33.2124 40.8489 33.2107 40.8429 33.2107H39.2854C39.2794 33.2107 39.2736 33.2124 39.2686 33.2157C39.2636 33.2189 39.2596 33.2236 39.2572 33.2291L38.9221 33.9816C38.9197 33.9871 38.9157 33.9917 38.9107 33.995C38.9057 33.9983 38.8998 34 38.8938 34H38.6164C38.6112 33.9999 38.6062 33.9986 38.6018 33.9961C38.5973 33.9936 38.5935 33.99 38.5908 33.9857C38.588 33.9813 38.5864 33.9764 38.586 33.9713C38.5856 33.9661 38.5865 33.961 38.5886 33.9563L39.9089 31.0184C39.9114 31.0129 39.9153 31.0083 39.9204 31.005C39.9254 31.0017 39.9312 31 39.9372 31L40.2053 31.0011C40.2112 31.001 40.2171 31.0028 40.2221 31.006C40.2271 31.0093 40.2311 31.014 40.2335 31.0195L41.5549 33.9553C41.557 33.96 41.5579 33.9651 41.5575 33.9702C41.5571 33.9753 41.5555 33.9803 41.5527 33.9846C41.55 33.9889 41.5462 33.9925 41.5417 33.995C41.5373 33.9975 41.5323 33.9989 41.5272 33.9989H41.2319C41.2259 33.999 41.2201 33.9972 41.215 33.994C41.21 33.9907 41.2061 33.986 41.2036 33.9805ZM39.4032 32.8949C39.402 32.8977 39.4015 32.9006 39.4017 32.9036C39.4019 32.9066 39.4029 32.9095 39.4045 32.912C39.4061 32.9145 39.4083 32.9166 39.4109 32.918C39.4135 32.9194 39.4165 32.9202 39.4194 32.9202L40.7094 32.9223C40.7123 32.9223 40.7152 32.9215 40.7177 32.9201C40.7203 32.9187 40.7225 32.9167 40.7241 32.9143C40.7257 32.9118 40.7266 32.909 40.7269 32.9061C40.7272 32.9032 40.7268 32.9003 40.7256 32.8976L40.0833 31.4483C40.0819 31.4452 40.0796 31.4425 40.0767 31.4407C40.0738 31.4388 40.0705 31.4378 40.067 31.4378C40.0636 31.4378 40.0603 31.4388 40.0574 31.4407C40.0545 31.4425 40.0522 31.4452 40.0508 31.4483L39.4032 32.8949Z" fill="#231F20"/>
<path d="M10.3311 33.9984H10.0172C10.0127 33.9984 10.0083 33.9967 10.005 33.9936C10.0018 33.9905 10 33.9863 10 33.9819V31.0165C10 31.0121 10.0018 31.0079 10.005 31.0048C10.0083 31.0017 10.0127 31 10.0172 31H10.3467C10.3495 31 10.3524 31.0007 10.3549 31.002C10.3574 31.0033 10.3595 31.0051 10.3611 31.0074L11.4811 32.6112C11.4827 32.6135 11.4848 32.6154 11.4873 32.6167C11.4899 32.618 11.4927 32.6187 11.4956 32.6187C11.4984 32.6187 11.5013 32.618 11.5038 32.6167C11.5063 32.6154 11.5084 32.6135 11.51 32.6112L12.6283 31.0074C12.6299 31.0051 12.632 31.0033 12.6346 31.002C12.6371 31.0007 12.6399 31 12.6428 31H12.9828C12.9873 31 12.9917 31.0017 12.995 31.0048C12.9982 31.0079 13 31.0121 13 31.0165V33.9782C13 33.9825 12.9983 33.9866 12.9952 33.9897C12.992 33.9928 12.9727 33.9999 12.9682 34L12.6567 34C12.6544 34.0001 12.6521 33.9997 12.6499 33.9989C12.6478 33.9981 12.6458 33.9969 12.6441 33.9954C12.6425 33.9938 12.6412 33.992 12.6403 33.99C12.6394 33.9879 12.6389 33.9857 12.6389 33.9835V31.6236C12.6389 31.62 12.6377 31.6165 12.6355 31.6137C12.6333 31.6108 12.6302 31.6087 12.6266 31.6077C12.623 31.6067 12.6192 31.6068 12.6157 31.6081C12.6122 31.6093 12.6092 31.6116 12.6072 31.6145L11.5056 33.1705C11.504 33.1728 11.5019 33.1747 11.4993 33.176C11.4968 33.1773 11.494 33.178 11.4911 33.178C11.4882 33.178 11.4854 33.1773 11.4829 33.176C11.4804 33.1747 11.4782 33.1728 11.4767 33.1705L10.3772 31.6262C10.3752 31.6232 10.3721 31.6209 10.3686 31.6197C10.365 31.6185 10.3612 31.6184 10.3576 31.6195C10.354 31.6206 10.3509 31.6227 10.3487 31.6257C10.3465 31.6286 10.3454 31.6322 10.3456 31.6358L10.3483 33.9819C10.3483 33.9863 10.3465 33.9905 10.3433 33.9936C10.3401 33.9967 10.3357 33.9984 10.3311 33.9984Z" fill="#231F20"/>
<path d="M15.2996 31H15.0428C15.0192 31 15 31.0193 15 31.043V33.957C15 33.9807 15.0192 34 15.0428 34H15.2996C15.3232 34 15.3424 33.9807 15.3424 33.957V31.043C15.3424 31.0193 15.3232 31 15.2996 31Z" fill="#231F20"/>
<path d="M17.6407 31.034C17.6406 31.03 17.6414 31.026 17.643 31.0222C17.6446 31.0185 17.6469 31.0151 17.65 31.0122C17.653 31.0094 17.6566 31.0071 17.6606 31.0055C17.6645 31.004 17.6688 31.0032 17.6731 31.0032L18.7891 31C19.2296 30.9985 19.6527 31.1509 19.9653 31.4235C20.2779 31.6961 20.4544 32.0668 20.456 32.4538V32.5313C20.4568 32.723 20.4146 32.913 20.3318 33.0904C20.249 33.2678 20.1273 33.4292 19.9736 33.5652C19.8198 33.7013 19.6371 33.8095 19.4358 33.8835C19.2346 33.9576 19.0187 33.9961 18.8005 33.9968L17.6845 34C17.676 34 17.6678 33.9969 17.6618 33.9913C17.6557 33.9858 17.6408 33.9503 17.6406 33.9424L17.6407 31.034ZM17.9984 31.3518L18.003 33.6493C18.003 33.6581 18.0067 33.6666 18.0135 33.6729C18.0202 33.6792 18.0293 33.6827 18.0389 33.6827L18.8045 33.6816C19.1443 33.6811 19.4699 33.5574 19.7098 33.3379C19.9496 33.1184 20.084 32.821 20.0834 32.5111V32.4836C20.0831 32.3301 20.0497 32.1782 19.985 32.0366C19.9204 31.8949 19.8257 31.7663 19.7066 31.658C19.5874 31.5497 19.446 31.4639 19.2904 31.4054C19.1349 31.347 18.9682 31.317 18.7999 31.3173L18.0343 31.3184C18.0248 31.3184 18.0156 31.3219 18.0089 31.3282C18.0022 31.3344 17.9984 31.3429 17.9984 31.3518Z" fill="#231F20"/>
<path d="M27.3525 31.3526V33.966C27.3525 33.975 27.3488 33.9837 27.3423 33.99C27.3358 33.9964 27.327 34 27.3178 34H27.0407C27.0315 34 27.0227 33.9964 27.0162 33.99C27.0097 33.9837 27.0001 33.975 27.0001 33.966L27.0044 31.3526C27.0044 31.3436 27.0007 31.3349 26.9942 31.3285C26.9877 31.3222 26.9789 31.3186 26.9697 31.3186H26.0181C26.0089 31.3186 26.0001 31.315 25.9936 31.3086C25.9871 31.3023 25.9834 31.2936 25.9834 31.2846V31.034C25.9834 31.025 25.9871 31.0163 25.9936 31.01C26.0001 31.0036 26.0089 31 26.0181 31H28.348C28.3572 31 28.366 31.0036 28.3725 31.01C28.379 31.0163 28.3827 31.025 28.3827 31.034V31.2846C28.3827 31.2936 28.379 31.3023 28.3725 31.3086C28.366 31.315 28.3572 31.3186 28.348 31.3186H27.3872C27.378 31.3186 27.3692 31.3222 27.3626 31.3285C27.3561 31.3349 27.3525 31.3436 27.3525 31.3526Z" fill="#231F20"/>
<path d="M31.4107 32.8325L30.61 32.8314C30.601 32.8314 30.5924 32.835 30.5861 32.8413C30.5797 32.8477 30.5762 32.8564 30.5762 32.8654L30.5793 33.9655C30.5797 33.9885 30.5684 34 30.5455 34H30.2803C30.2582 34 30.2471 33.989 30.2471 33.9671V31.0278C30.2471 31.0242 30.2478 31.0207 30.2491 31.0174C30.2505 31.0141 30.2525 31.0112 30.255 31.0086C30.2575 31.0061 30.2604 31.0041 30.2637 31.0028C30.267 31.0014 30.2705 31.0007 30.274 31.0007C30.6656 31 31.0616 30.9998 31.462 31.0002C31.9981 31.0007 32.5527 31.2189 32.5945 31.8263C32.6288 32.3243 32.3203 32.6615 31.8455 32.7613C31.8399 32.7624 31.8346 32.7649 31.8303 32.7686C31.8259 32.7723 31.8225 32.7771 31.8204 32.7824C31.8184 32.7878 31.8177 32.7936 31.8185 32.7992C31.8193 32.8049 31.8215 32.8103 31.8249 32.8149L32.6943 33.9745C32.6961 33.9768 32.6971 33.9795 32.6974 33.9823C32.6977 33.9852 32.6971 33.9881 32.6958 33.9907C32.6945 33.9933 32.6924 33.9955 32.6899 33.997C32.6874 33.9986 32.6846 33.9994 32.6816 33.9995L32.3378 34C32.3248 34.0001 32.312 33.9972 32.3005 33.9914C32.2889 33.9856 32.2789 33.977 32.2712 33.9665L31.4387 32.8468C31.4354 32.8423 31.4312 32.8387 31.4263 32.8362C31.4215 32.8337 31.4161 32.8324 31.4107 32.8325ZM30.5762 31.3628L30.5825 32.4948C30.5825 32.5062 30.587 32.5171 30.595 32.5252C30.603 32.5333 30.6139 32.5378 30.6253 32.5378L31.5343 32.533C31.6294 32.5325 31.7234 32.5178 31.8111 32.4895C31.8988 32.4613 31.9784 32.4202 32.0453 32.3685C32.1123 32.3169 32.1653 32.2556 32.2013 32.1884C32.2374 32.1211 32.2557 32.0492 32.2554 31.9766L32.2543 31.864C32.2536 31.7174 32.1766 31.5773 32.0404 31.4743C31.9042 31.3714 31.7199 31.3141 31.528 31.315L30.6189 31.3198C30.6076 31.3198 30.5967 31.3243 30.5887 31.3324C30.5807 31.3405 30.5762 31.3514 30.5762 31.3628Z" fill="#231F20"/>
<path d="M35.0201 33.6814H36.8114C36.8166 33.6814 36.8217 33.6834 36.8256 33.6871C36.8294 33.6908 36.8317 33.6958 36.832 33.7011V33.9782C36.8321 33.981 36.8317 33.9838 36.8307 33.9865C36.8297 33.9891 36.8282 33.9915 36.8263 33.9936C36.8244 33.9956 36.8221 33.9972 36.8195 33.9983C36.8169 33.9994 36.8142 34 36.8114 34H34.6788C34.6733 34 34.6681 33.9978 34.6642 33.9939C34.6604 33.9901 34.6582 33.9848 34.6582 33.9793V31.0207C34.6582 31.0152 34.6604 31.0099 34.6642 31.0061C34.6681 31.0022 34.6733 31 34.6788 31H36.7913C36.7967 31 36.802 31.0022 36.8059 31.0061C36.8097 31.0099 36.8119 31.0152 36.8119 31.0207L36.8087 31.2979C36.8087 31.3034 36.8065 31.3086 36.8027 31.3125C36.7988 31.3164 36.7936 31.3186 36.7881 31.3186H35.0195C35.0141 31.3186 35.0088 31.3208 35.005 31.3246C35.0011 31.3285 34.9989 31.3338 34.9989 31.3393L35.0005 32.3067C35.0005 32.3122 35.0027 32.3175 35.0065 32.3214C35.0104 32.3253 35.0156 32.3274 35.0211 32.3274H36.5974C36.6028 32.3274 36.6079 32.3295 36.6118 32.3333C36.6156 32.3371 36.6179 32.3422 36.618 32.3476V32.6248C36.6181 32.6275 36.6176 32.6303 36.6166 32.6329C36.6156 32.6354 36.6141 32.6378 36.6122 32.6398C36.6103 32.6417 36.608 32.6433 36.6054 32.6444C36.6029 32.6455 36.6002 32.646 36.5974 32.646H35.0201C35.0146 32.646 35.0094 32.6482 35.0055 32.6521C35.0016 32.656 34.9995 32.6612 34.9995 32.6667V33.6607C34.9995 33.6662 35.0016 33.6715 35.0055 33.6754C35.0094 33.6792 35.0146 33.6814 35.0201 33.6814Z" fill="#231F20"/>
<path d="M43.4821 31.6294L43.4837 33.9814C43.4837 33.9861 43.4819 33.9905 43.4786 33.9938C43.4754 33.9971 43.4709 33.9989 43.4663 33.9989L43.1786 34C43.1739 34 43.1695 33.9982 43.1662 33.9949C43.163 33.9916 43.1611 33.9871 43.1611 33.9825L43.1622 31.018C43.1622 31.0134 43.164 31.0089 43.1673 31.0057C43.1706 31.0024 43.175 31.0005 43.1796 31.0005L43.4911 31.0016C43.494 31.0016 43.4969 31.0023 43.4995 31.0037C43.5021 31.0051 43.5043 31.0071 43.5059 31.0096L44.5687 32.6112C44.5703 32.6135 44.5724 32.6154 44.5749 32.6167C44.5774 32.6179 44.5802 32.6186 44.583 32.6186C44.5858 32.6186 44.5885 32.6179 44.591 32.6167C44.5935 32.6154 44.5956 32.6135 44.5972 32.6112L45.66 31.008C45.6616 31.0055 45.6638 31.0035 45.6664 31.0021C45.669 31.0007 45.6719 31 45.6748 31L45.9863 31.0032C45.9909 31.0032 45.9954 31.005 45.9986 31.0083C46.0019 31.0116 46.0037 31.0161 46.0037 31.0207V33.982C46.0037 33.9866 46.0019 33.9911 45.9986 33.9943C45.9954 33.9976 45.9909 33.9995 45.9863 33.9995H45.6806C45.676 33.9995 45.6716 33.9976 45.6683 33.9943C45.665 33.9911 45.6632 33.9866 45.6632 33.982L45.6727 31.6267C45.6728 31.6229 45.6716 31.6192 45.6693 31.6161C45.6671 31.613 45.6639 31.6107 45.6602 31.6097C45.6566 31.6086 45.6526 31.6087 45.6491 31.6101C45.6455 31.6114 45.6425 31.6139 45.6405 31.6172L44.593 33.1705C44.5914 33.1728 44.5892 33.1747 44.5868 33.176C44.5843 33.1773 44.5815 33.178 44.5787 33.178C44.5759 33.178 44.5732 33.1773 44.5707 33.176C44.5682 33.1747 44.5661 33.1728 44.5645 33.1705L43.5138 31.6198C43.5117 31.6168 43.5087 31.6146 43.5053 31.6134C43.5018 31.6122 43.4981 31.6121 43.4945 31.6131C43.491 31.6142 43.488 31.6163 43.4857 31.6193C43.4835 31.6222 43.4822 31.6257 43.4821 31.6294Z" fill="#231F20"/>
</svg>
