<!-- by TradeStack --><svg width="56" height="56" viewBox="0 0 56 56" xmlns="http://www.w3.org/2000/svg"><path fill="#F0F3FA" d="M0 0h56v56H0z"/><path d="M4 22h2.41l1.09 8.59L8.59 22H11v12H9.5v-7l-1.36 7h-1.4L5.5 27v7H4V22ZM18.5 24H17v-2h4.7v2H20v10h-1.5V24ZM22 22h2.89c1.78 0 2.61.94 2.61 2.76v.74c0 1.24-.15 2.03-1 2.36v.04c1.1.32 1 1.54 1 2.53v2.11c0 .5 0 1 .21 1.46H26.2a4.2 4.2 0 0 1-.17-1.47v-2.2c0-.86-.47-1.33-1.4-1.33H23.5v5H22V22Zm2.85 5c.79 0 1.17-.37 1.17-1.27v-.5c0-.85-.3-1.23-1-1.23H23.5v3h1.35ZM31.5 34c-1.7 0-2.5-1.36-2.5-2.93v-6.14c0-1.57.8-2.93 2.5-2.93s2.5 1.36 2.5 2.93v6.14c0 1.57-.8 2.93-2.5 2.93Zm0-2c.57 0 1-.38 1-1.15v-5.7c0-.77-.43-1.15-1-1.15-.57 0-1 .38-1 1.15v5.7c0 .77.43 1.15 1 1.15Z" fill="#7B14F9"/><path d="M37.5 34c-1.7 0-2.5-1.36-2.5-2.93v-6.14c0-1.57.8-2.93 2.5-2.93s2.5 1.36 2.5 2.93v6.14c0 1.57-.8 2.93-2.5 2.93Zm0-2c.57 0 1-.38 1-1.15v-5.7c0-.77-.43-1.15-1-1.15-.57 0-1 .38-1 1.15v5.7c0 .77.43 1.15 1 1.15ZM41 22h2.4l2.1 8v-8H47v12h-1.97l-2.53-9v9H41V22Z" fill="#242424"/><path d="M12 22h4v2h-2.5v3H16v2h-2.5v3H16v2h-4V22Z" fill="#7B14F9"/><path d="M48 22h4v2h-2.5v3H52v2h-2.5v3H52v2h-4V22Z" fill="#242424"/></svg>