<!-- by TradeStack --><svg width="56" height="56" viewBox="0 0 56 56" xmlns="http://www.w3.org/2000/svg"><path fill="#F0F3FA" d="M0 0h56v56H0z"/><ellipse cx="27.97" cy="28" rx="4.49" ry="4.44" fill="#99BE56"/><path d="M4 22h2.34l2.55 8.64L11.56 22h1.88l2.67 8.64L18.66 22H21l-3.72 12h-2.26l-2.52-8.05L9.98 34H7.72L4 22ZM35 22h2.34l2.55 8.64L42.56 22h1.88l2.67 8.64L49.66 22H52l-3.72 12h-2.26l-2.52-8.05L40.98 34h-2.26L35 22Z" fill="#221F20"/><path d="M30.12 27.34 28 25l.06 3.75-1.36-1.14 1 1.8-2.65-.32 1.32 1.65-.24.24 1.53 1.31c.07.07.45-.32 2.1-.42 1.65-.1 2.35-2.66 2.49-3.93l-1.61-1.41-.52.81Z" fill="#4B7E45"/><path fill-rule="evenodd" d="M28 34a6 6 0 1 0 0-12 6 6 0 0 0 0 12Zm0-2a4 4 0 1 0 0-8 4 4 0 0 0 0 8Z" fill="#221F20"/><path d="M27.7 28.7c-.12-.72-.34-2.1.3-3.7.64 1.6.42 2.98.3 3.7l-.04.31a7.5 7.5 0 0 1 2.55-2.7c-.36 1.63-1.34 2.46-1.9 2.93l-.14.11c.68-.3 1.81-.37 2.23-.27a3 3 0 0 1-2.32.86c.42.17 1.1.72 1.22 1.06a2.7 2.7 0 0 1-1.8-1.03l.06 1.03h-.32l.06-1.03A2.7 2.7 0 0 1 26.1 31c.13-.34.8-.9 1.22-1.06a3 3 0 0 1-2.32-.86c.42-.1 1.55-.03 2.23.27l-.14-.11c-.56-.47-1.54-1.3-1.9-2.94a7.5 7.5 0 0 1 2.55 2.71c0-.08-.02-.18-.04-.3Z" fill="#fff"/></svg>