<?xml version='1.0' encoding='utf-8'?>
<!-- by TradeStack -->
<svg width="56" height="56" viewBox="0 0 56 56" xmlns="http://www.w3.org/2000/svg"><path fill="#F0F3FA" d="M0 0h56v56H0z" /><path d="M12 16.02h2.1l.9.98-.1 7.05c0 1.08 1.48 1.47 2.35 1.54h6.37c1.58 0 2.48-.74 2.65-1.07v-6.26h2.18l.55 1.07v4.85c0 1.18 2.55 1.29 3.33 1.32h5.93c1.93 0 2.61-.9 2.74-1.28V16h2.25l.74 1v8.23c0 1.1-.87 1.77-1.79 2.14a8.3 8.3 0 0 1-2.77.53h-6.86c-1.44 0-3.24 0-4.34-1.07-.76.9-2.49 1-3.56 1.07H17c-1.83 0-4.43-1.53-5.01-3.38v-8.5Z" fill="#5B0000" /><path d="M41 24.22V16.3l.8.7H44v8.33c0 2.1-2.9 2.64-4.56 2.67h-6.86c-1.45 0-3.24 0-4.35-1.07-.76.9-2.48 1-3.55 1.07h-7.66c-2.93 0-4.25-1.72-4.54-2.66l-.02-.05V17H15v8.03c0 .5.21.84.64 1.09l.78-.67c.3.08.59.12.83.14h6.1c1.59 0 2.48-.74 2.65-1.07V18h2.45l.54 1.06v.1H29v5.12c.13 1.08 2.58 1.19 3.33 1.22h5.98c1.93 0 2.56-.9 2.69-1.28Z" fill="#D43352" /><path d="M12.8 25.25v-7.82h1.76v7.6c0 1.33 1.8 1.9 2.69 1.97h7.4c1.8 0 2.6-1 2.78-1.44V20h1.4v5.36c0 1.21 2.34 1.6 3.5 1.64h6.73c2.11 0 2.8-1.04 2.94-1.55v-8.02h1.67v7.9c0 1.82-2.83 2.32-4.24 2.35h-6.85c-3.62 0-3.88-.8-4.46-1.32 0 .88-2.3 1.25-3.46 1.32h-7.64c-2.77 0-3.97-1.62-4.22-2.43Z" fill="#211A1B" /><path d="M44 39h-2.28l-.72-.94v-4.83c0-1.05-.67-1.47-1.54-1.54H32.5c-1.48 0-2.33.74-2.49 1.07V39h-1.77l-1.18-2.03.59-4.68c0-1.76 3.05-2.29 4.26-2.29h7.79c1.78 0 3.78.9 4.31 2.71V39Z" fill="#5B0000" /><path d="M44 39v-5.46l-.01-.05c-.28-.88-1.54-2.49-4.3-2.49h-7.2c-1.23 0-4.26.4-4.26 2.15V39H30v-5.7c.16-.31 1-.99 2.5-.99h6.96c.89.06 1.54.51 1.54 1.48v4.27l.68.94H44Z" fill="#D43352" /><path d="M43.67 33.46v5.22H42v-5.03c0-1.24-1.68-1.58-2.52-1.64h-6.99c-1.68 0-2.6.74-2.78 1.15v5.52h-1.15v-5.66c0-.83 1.73-1.74 3.93-1.74h7.2c2.61 0 3.74 1.42 3.98 2.18Z" fill="#211A1B" /><path fill-rule="evenodd" d="M24.12 39.32H25a2.74 2.74 0 0 0 2.74-2.74V33.4c0-1.51-1.23-3.4-2.74-3.4h-9.77c-1.5 0-3.22.97-3.22 2.48V36c0 1.51 1.85 3.32 3.37 3.32h5.85L22.45 41h1.78l-.1-1.68Zm-2.72-2.25L21.22 35h2.08l1.12 1.92c1.07 0 .97-.3.97-1.57v-2.4c0-.94-.15-.92-1.16-.92l-8.58-.17c-1 0-1.52 1.16-1.52 2.1v1.72c0 .94-.06 1.4.95 1.4h6.32Z" fill="#5B0000" /><path fill-rule="evenodd" d="M25 39.32h-.88l.11 1.68h-1.78l-.1-1.68h-7a2.74 2.74 0 0 1-2.72-2.74v-2.83A2.74 2.74 0 0 1 15.37 31h9.62a2.74 2.74 0 0 1 2.74 2.74v2.83a2.74 2.74 0 0 1-2.74 2.74Zm-10.87-2.95v-2.41c0-.94.79-1.72 1.8-1.72h8.5c1 0 1.8.78 1.8 1.72v2.4c0 .95-.8 1.73-1.8 1.73h-.4L23.83 36h-1.77l.16 1.84-.83-.84h-6.32c-.62 0-.95-.22-.95-.63Z" fill="#D43352" /><path fill-rule="evenodd" d="M13 33.75c0-1.33 1.04-2.41 2.37-2.41h9.62a2.4 2.4 0 0 1 2.41 2.4v2.84a2.4 2.4 0 0 1-2.4 2.4h-1.23l.1 1.52h-1.11l-.11-1.51h-7.28A2.37 2.37 0 0 1 13 36.58v-2.83Zm10.72 4.67-.18-2.23h-1.12l.18 2.23h-6.67a2.09 2.09 0 0 1-2.13-2.05v-2.41c0-1.13.95-1.96 2.13-1.96h8.5c1.18 0 2.13.83 2.13 1.96v2.4c0 1.14-.95 2.06-2.13 2.06h-.7Z" fill="#211A1B" /></svg>