<?xml version='1.0' encoding='utf-8'?>
<!-- by TradeStack -->
<svg width="56" height="56" viewBox="0 0 56 56" xmlns="http://www.w3.org/2000/svg"><path fill="#181B1E" d="M0 0h56v56H0z" /><path d="M28 18h.02c4.94.01 8.71 2 9.98 3a37.6 37.6 0 0 0-10-1.59A37.6 37.6 0 0 0 18 21c1.27-1 5.04-2.99 9.98-3H28Z" fill="#FF9B33" /><path d="M28 15h.01c2.47 0 4.36.67 4.99 1a27.6 27.6 0 0 0-5-.53c-.91 0-3.17.12-5 .53.63-.33 2.52-1 4.99-1H28Z" fill="#fff" /><path fill-rule="evenodd" d="M28 21h.05c10.86.02 19.16 3.29 21.95 4.92a81.4 81.4 0 0 0-8-1.48V36h3v2h-5V24.18c-.58-.07-1.44-.14-2-.2V27h-2v-2h-2v11h2v-4h-1v-2h3v7.44c0 .31-.23.56-.51.56H32.5c-.28 0-.51-.25-.51-.56V23.51c-1.27-.08-1.58-.13-2.54-.16.36.32.54.81.54 1.37v5.74c0 .62-.46 1.12-1.03 1.12h-.8L30.4 38h-1.97L26 31.49V30h2v-5h-3v13h-2V23.48c-.46.03-.31.06-.81.1L20.29 38h-2.4l-1.06-7.54L15.76 38h-2.4L11.8 24.75c-1.96.33-3.93.79-5.79 1.25 2.8-1.64 11.09-4.98 21.95-5H28Zm-10.04 2.94 2.07-.2-.99 7.84-1.08-7.64Zm-4.06.5 1.76-.24-1 7.29-.76-7.05Z" fill="#fff" /></svg>