<?xml version='1.0' encoding='utf-8'?>
<!-- by TradeStack -->
<svg width="56" height="56" viewBox="0 0 56 56" xmlns="http://www.w3.org/2000/svg"><path fill="#262425" d="M0 0h56v56H0z" /><path d="M11.74 22.9c-4.13.36-6.88 2.53-7.74 3.58A3.4 3.4 0 0 1 5.09 24v-1.94l1.3 1.1c1.1-.8 6.33-1.85 8.8-2.28A20.25 20.25 0 0 1 23.92 19c5.61 0 10.63 2.94 12.44 4.4 7.94-.4 13.74 2.21 15.65 3.58-2.6-.87-9.17-2.59-14.66-2.59-5.5 0-12.17.52-14.81.78L33 23.05c-1.65-.8-5.72-2.38-8.82-2.38-3.1 0-4.67.76-5.06 1.14l1.96 1.35c-1.4-.23-5.23-.6-9.35-.25Z" fill="url(#ambatqsix)" /><path d="m32.23 22.88-2.36.54-10.01-1.64c.15-.29 1.23-.87 4.38-.87 3.14 0 6.63 1.32 7.99 1.97Z" fill="url(#bmbatqsix)" /><path d="M4.39 28h.9l1.6 2.7L8.74 28h.96l-2.81 4-2.5-4Zm3.6 2.97.65 1.01L11.42 28h-.88l-1.9 2.74-.25-.37-.4.6Zm-.89-1.23L6 28h.91l.75 1.07-.56.67ZM9.78 32h1.14l1.76-2.72.74 1.72H12l-.58 1h3.43l-1.65-4h-.63l-2.78 4Zm10.47-2.02L20.01 32h.87l.1-1h1.6c.3 0 1.92-.33 1.92-1.6 0-1-.73-1.35-1.09-1.4h-2.28l-.7 1h2.52c.28 0 .58.02.58.47 0 .37-.39.5-.58.51h-2.7Zm-4.74.02a430 430 0 0 1-.25 2h.88l.1-1h1.55l.51 1h1.24l-.78-1.25c.5-.23.99-.64.99-1.34 0-1.01-.72-1.36-1.08-1.41h-2.29l-.7 1h2.69c.27 0 .4.02.4.47 0 .37-.38.51-.57.53h-2.7Z" fill="#ADFD75" /><path d="m37.4 28-.55 4h3.54l.77-1h-3.02l.08-.63h2.25l.78-.88h-2.9l.06-.49h2.4l.93-1H37.4Zm-6.25 0h-3.93c-.46.07-1.36.43-1.36 1.38s.77 1.06 1.2 1.06h.87l.4-.84H27.3c-.12 0-.34-.06-.34-.28 0-.27.17-.32.53-.32h2.87l.8-1Zm-5.68 4h3.94c.45-.07 1.35-.43 1.35-1.38s-.77-1.06-1.2-1.06h-.87l-.4.84h1.04c.12 0 .34.06.34.28 0 .27-.17.32-.52.32h-2.88l-.8 1Zm5.91-2.02-.3 2.02h1.07l.13-1h1.96c.35 0 2.34-.33 2.34-1.6 0-1-.89-1.35-1.33-1.4h-2.8l-.85 1h3.08c.34 0 .71.02.71.47 0 .37-.47.5-.7.51h-3.31ZM41.74 32l.55-4h4.33l-.93 1h-2.4l-.07.55h2.92l-.79.9H43.1l-.07.55h3.02l-.77 1h-3.54Zm5.18-2.47L46.53 32h2.88c.76-.16 2.3-.84 2.3-2.28-.02-.57-.4-1.72-1.84-1.72h-2l-.79 1h2.8c.22.02.68.27.68.99 0 .9-.8 1.01-1.2 1.01H47.8l.2-1.47h-1.07ZM16.16 33.7l.29-.7h3.46l-.42.7h-3.33Zm.63 2.3.6-2h1.1l-.55 2h-1.15Zm5.59-2.35h1.86L24.1 33h-1.25l-.48.65Zm-.36.35-1.35 1.97h2.26l.36-.7h-1.03l.78-1.27h-1.02Zm1.65 2-.2-2h.87l.34 2h-1Z" fill="#07C064" /><path d="m27.08 33.71-.4-.71h.82l.4.71h-.82Zm2.05 0 .72-.71h-.9l-.72.71h.9ZM26.82 36h-.99l1.6-1.7-.15-.3h1.37l-.26.28.82 1.72h-.95l-.5-1.02-.94 1.02Zm7.51-2.34h-2.46l.2-.63h2.52l-.26.63Zm-.55 2.3h-2.46l.2-.64h.65l.28-1.32h1.07l-.29 1.32h.81l-.26.64Z" fill="#ADFD75" /><path d="m16 34-11 .41L16 35v-1Zm19 0 14 .41L35 35v-1Z" fill="#B1FF77" /><defs><linearGradient id="ambatqsix" x1="5.94" y1="24.22" x2="9.67" y2="24.22" gradientUnits="userSpaceOnUse"><stop stop-color="#27AE65" /><stop offset="1" stop-color="#A7F671" /></linearGradient><linearGradient id="bmbatqsix" x1="21.43" y1="21.82" x2="30.92" y2="23.37" gradientUnits="userSpaceOnUse"><stop stop-color="#86888A" /><stop offset="1" stop-color="#C1C3C4" /></linearGradient></defs></svg>