<?xml version='1.0' encoding='utf-8'?>
<!-- by TradeStack -->
<svg width="56" height="56" viewBox="0 0 56 56" fill="none" xmlns="http://www.w3.org/2000/svg">
<rect width="56" height="56" fill="#F0F3FA" />
<path d="M40.5 23C39.5407 23 39 23.7775 39 24.7277V33.6723C39 36.3502 36.2442 39 33.5407 39C30.8372 39 28 36.3502 28 33.6723V24.7277C28 23.7775 27.4593 23 26.5 23C25.5407 23 25 23.7775 25 24.7277V33.6723C25.0872 36.3502 23.5 39 20.5465 39C18 39 15.0872 36.7822 15 34.1042C15 33.9315 15 33.7587 15 33.6723V18.7277C15 17.7775 14.4593 17 13.5 17C12.5407 17 12 17.7775 12 18.7277V33.6723C12 38.2507 15.75 42 20.3721 42C22.9884 42 25.4302 40.7559 27 38.769C28.739 40.9613 31 42 33.5407 42C38 42 42 38.6351 42 33.6723V24.7277C41.9128 23.7775 41.4593 23 40.5 23Z" fill="#D73B00" />
<path d="M20.5 36C21.48 36 22 35.2071 22 34.2379V24.5463C22 21.815 24.7908 19 27.5525 19C27.9089 19 28.3543 19.0881 28.7107 19.1762C29.6907 19.4405 30.6707 19.1205 30.9379 18.1513C30.982 17.9914 31.0019 17.8401 30.9999 17.6977C30.9897 16.9771 30.4199 16.485 29.6016 16.2643C28.8889 16.0881 28.2653 16 27.5525 16C22.8308 16 19 19.7885 19 24.4581V34.1498C19 35.207 19.52 36 20.5 36Z" fill="#D73B00" />
<path d="M33.5 36C34.48 36 35 35.2071 35 34.2379V24.5463C35 21.815 37.7908 19 40.5525 19C40.9089 19 41.3543 19.0881 41.7107 19.1762C42.6907 19.4405 43.6707 19.1205 43.9379 18.1513C43.982 17.9914 44.0019 17.8401 43.9999 17.6977C43.9897 16.9771 43.4199 16.485 42.6016 16.2643C41.8889 16.0881 41.2653 16 40.5525 16C35.8308 16 32 19.7885 32 24.4581V34.1498C32 35.207 32.52 36 33.5 36Z" fill="#D73B00" />
</svg>