<!-- by TradeStack --><svg width="56" height="56" viewBox="0 0 56 56" xmlns="http://www.w3.org/2000/svg"><path fill="#F0F3FA" d="M0 0h56v56H0z"/><path fill="#0E2A7F" d="M16 38h8v2h-8z"/><path fill="#FCC400" d="M24 38h8v2h-8z"/><path fill="#E20000" d="M32 38h8v2h-8z"/><path fill-rule="evenodd" d="M40 10H16v28h24V10Zm-21 9a1 1 0 0 0 1-1 1 1 0 0 0 1 1 1 1 0 0 0-1 1 1 1 0 0 0-1-1Zm0 2a1 1 0 1 1 0-2 1 1 0 1 1 1-1 1 1 0 1 1 1 1 1 1 0 1 1-1 1 1 1 0 0 1-1 1Zm1 1a1 1 0 1 0-1 1 1 1 0 1 0 0 2 1 1 0 1 0 0 2 1 1 0 1 0 0 2 1 1 0 1 0 0 2 1 1 0 1 0 1 1 1 1 0 1 0 2 0 1 1 0 1 0 2 0 1 1 0 1 0 2 0 1 1 0 1 0 2 0 1 1 0 1 0 2 0 1 1 0 1 0 2 0 1 1 0 1 0 2 0 1 1 0 1 0 2 0 1 1 0 1 0 1-1 1 1 0 1 0 0-2 1 1 0 1 0 0-2 1 1 0 1 0 0-2 1 1 0 1 0 0-2 1 1 0 1 0 0-2 1 1 0 1 0 0-2 1 1 0 1 0-1-1 1 1 0 1 0-1 1 1 1 0 1 0 0 2 1 1 0 1 0 0 2 1 1 0 1 0 0 2 1 1 0 1 0 0 2 1 1 0 1 0 0 2 1 1 0 1 0 0 2 1 1 0 0 0-1 1 1 1 0 1 0-2 0 1 1 0 1 0-2 0 1 1 0 0 0-1-1 1 1 0 1 0 0-2 1 1 0 1 0 0-2 1 1 0 1 0 0-2 1 1 0 1 0 0-2 1 1 0 1 0 0-2 1 1 0 1 0 0-2 1 1 0 1 0-1-1 1 1 0 1 0-1 1 1 1 0 1 0 0 2 1 1 0 1 0 0 2 1 1 0 1 0 0 2 1 1 0 1 0 0 2 1 1 0 1 0 0 2 1 1 0 1 0 0 2 1 1 0 0 0-1 1 1 1 0 1 0-2 0 1 1 0 1 0-2 0 1 1 0 0 0-1-1 1 1 0 1 0 0-2 1 1 0 1 0 0-2 1 1 0 1 0 0-2 1 1 0 1 0 0-2 1 1 0 1 0-1-1Zm0 2a1 1 0 0 0-1-1 1 1 0 0 0 1-1 1 1 0 0 0 1 1 1 1 0 0 0-1 1Zm0 2a1 1 0 0 0-1-1 1 1 0 0 0 1-1 1 1 0 0 0 1 1 1 1 0 0 0-1 1Zm0 2a1 1 0 0 0-1-1 1 1 0 0 0 1-1 1 1 0 0 0 1 1 1 1 0 0 0-1 1Zm0 2a1 1 0 0 0-1-1 1 1 0 0 0 1-1 1 1 0 0 0 1 1 1 1 0 0 0-1 1Zm0 0a1 1 0 0 0 1 1 1 1 0 0 0-1 1 1 1 0 0 0-1-1 1 1 0 0 0 1-1Zm8 0a1 1 0 0 0 1 1 1 1 0 0 0-1 1 1 1 0 0 0-1-1 1 1 0 0 0 1-1Zm0-2a1 1 0 0 0 1 1 1 1 0 0 0-1 1 1 1 0 0 0-1-1 1 1 0 0 0 1-1Zm0-2a1 1 0 0 0 1 1 1 1 0 0 0-1 1 1 1 0 0 0-1-1 1 1 0 0 0 1-1Zm0-2a1 1 0 0 0 1 1 1 1 0 0 0-1 1 1 1 0 0 0-1-1 1 1 0 0 0 1-1Zm0-2a1 1 0 0 0 1 1 1 1 0 0 0-1 1 1 1 0 0 0-1-1 1 1 0 0 0 1-1Zm0-2a1 1 0 0 0 1 1 1 1 0 0 0-1 1 1 1 0 0 0-1-1 1 1 0 0 0 1-1Zm0 0a1 1 0 0 0-1-1 1 1 0 0 0 1-1 1 1 0 0 0 1 1 1 1 0 0 0-1 1Zm8 10a1 1 0 0 1 1-1 1 1 0 1 1 0-2 1 1 0 1 1 0-2 1 1 0 1 1 0-2 1 1 0 1 1 0-2 1 1 0 1 1 0-2 1 1 0 0 1-1-1 1 1 0 0 1-1 1 1 1 0 1 1 0 2 1 1 0 1 1 0 2 1 1 0 1 1 0 2 1 1 0 1 1 0 2 1 1 0 1 1 0 2 1 1 0 0 1 1 1Zm0 0a1 1 0 0 1-1 1 1 1 0 0 1 1 1 1 1 0 0 1 1-1 1 1 0 0 1-1-1Zm-13 4a1 1 0 1 1-2 0 1 1 0 0 1 2 0Zm2 0a1 1 0 1 1-2 0 1 1 0 0 1 2 0Zm2 0a1 1 0 1 1-2 0 1 1 0 0 1 2 0Zm2 0a1 1 0 1 1-2 0 1 1 0 0 1 2 0Zm2 0a1 1 0 1 1-2 0 1 1 0 0 1 2 0Zm2 0a1 1 0 1 1-2 0 1 1 0 0 1 2 0Zm0 0a1 1 0 1 1 2 0 1 1 0 0 1-2 0Z" fill="#010101"/><path d="M37.73 41.54v1.67h2.03v.53h-2.03v1.72H40V46h-3v-5h3v.54h-2.27ZM35.5 42.46c0 .42-.15.77-.45 1.04-.3.28-.75.41-1.36.41h-1V46H32v-5h1.69c.6 0 1.04.14 1.34.4.31.28.47.63.47 1.06Zm-1.81.91c.38 0 .66-.07.84-.23.18-.16.27-.38.27-.68 0-.61-.37-.92-1.11-.92h-1v1.83h1ZM28.5 46c-.46 0-.88-.1-1.26-.32A2.42 2.42 0 0 1 26 43.5c0-.48.11-.9.33-1.29.22-.38.52-.68.9-.89.39-.21.8-.32 1.27-.32s.89.1 1.27.32c.38.21.68.5.9.89.22.38.33.8.33 1.29 0 .48-.11.91-.33 1.3-.22.37-.52.67-.9.88-.38.21-.8.32-1.27.32Zm0-.55c.35 0 .66-.08.94-.24.28-.16.5-.39.65-.68.16-.3.25-.64.25-1.03 0-.4-.09-.73-.25-1.03-.15-.29-.37-.52-.65-.68-.27-.16-.59-.24-.94-.24s-.67.08-.94.24c-.28.16-.5.39-.66.68-.16.3-.24.64-.24 1.03s.08.73.24 1.03a1.73 1.73 0 0 0 1.6.92ZM20 43.5a2.44 2.44 0 0 1 1.27-2.18c.4-.21.84-.32 1.32-.32.57 0 1.06.13 1.49.39.42.25.73.62.92 1.1h-.81c-.15-.3-.35-.53-.63-.69-.27-.16-.59-.24-.97-.24-.36 0-.68.08-.97.24a1.7 1.7 0 0 0-.68.68c-.17.3-.25.63-.25 1.03 0 .39.08.73.25 1.02.16.3.39.52.68.68.29.16.61.24.97.24.38 0 .7-.08.97-.24.28-.16.48-.38.63-.68H25c-.2.47-.5.83-.92 1.1-.43.24-.92.37-1.49.37-.48 0-.92-.1-1.32-.32A2.44 2.44 0 0 1 20 43.51ZM17.78 45.96c-.34 0-.64-.05-.91-.16a1.55 1.55 0 0 1-.63-.48 1.2 1.2 0 0 1-.24-.7h.72a.9.9 0 0 0 .3.57c.17.16.43.23.76.23.32 0 .58-.07.76-.22a.73.73 0 0 0 .28-.59.64.64 0 0 0-.16-.45c-.11-.12-.25-.21-.41-.27a6.63 6.63 0 0 0-.66-.2 6.21 6.21 0 0 1-.82-.25c-.2-.08-.38-.21-.53-.4a1.15 1.15 0 0 1-.21-.72c0-.27.07-.5.21-.71.15-.2.35-.36.6-.48.27-.1.56-.17.9-.17.48 0 .88.12 1.18.35.31.23.49.53.53.91h-.74a.74.74 0 0 0-.31-.5 1.13 1.13 0 0 0-.73-.2c-.28 0-.5.06-.69.2a.68.68 0 0 0-.26.58c0 .17.05.32.15.43.11.11.24.2.4.26.15.06.37.12.65.2.34.09.62.18.83.26.2.09.38.22.53.4.15.18.22.42.22.73 0 .24-.07.47-.2.68-.13.2-.33.38-.6.5-.25.14-.56.2-.92.2Z"/></svg>