<!-- by TradeStack --><svg width="56" height="56" viewBox="0 0 56 56" xmlns="http://www.w3.org/2000/svg"><path fill="#F0F3FA" d="M0 0h56v56H0z"/><path fill-rule="evenodd" d="M4 25h5v5H4v-5Zm1 1.24L6 26l1 .24L8 26v.76L7 27l-1-.24L5 27v-.76ZM8 28l-1 .24L6 28l-1 .24V29l1-.24L7 29l1-.24V28Z" fill="#004E71"/><path d="M15 25h1l-1.33 5h-.94L13 26l-.75 4h-.91L10 25h1l.8 3.66.68-3.66h1.04l.7 3.66L15 25ZM18.78 29.62c-.41.21-.64.38-1.25.38-1.1 0-1.53-1.03-1.53-1.97S16.4 26 17.5 26c.87 0 1.37.7 1.47 1.51.02.18.03.43.03.75h-2c.02.61.27.94.54.94.28 0 .78-.03 1-.2l.24.62ZM18 27.61c-.03-.52-.1-.8-.46-.8-.38 0-.49.31-.54.8h1ZM28.78 29.62c-.41.21-.64.38-1.25.38-1.1 0-1.53-1.03-1.53-1.97S26.4 26 27.5 26c.87 0 1.37.7 1.47 1.51.02.18.03.43.03.75h-2c.02.61.27.94.54.94.28 0 .78-.03 1-.2l.24.62ZM28 27.61c-.03-.52-.1-.8-.46-.8-.38 0-.49.31-.54.8h1ZM22.91 27.25h-.86c-.03-.35-.22-.5-.58-.5-.37 0-.47.16-.47.34 0 .86 2 .34 2 1.64 0 .86-.7 1.27-1.49 1.27-.82 0-1.51-.45-1.51-1.33h.87c.05.41.3.57.71.57.34 0 .42-.11.42-.34 0-.68-1.9-.34-1.9-1.63 0-.77.62-1.27 1.36-1.27.82 0 1.38.42 1.45 1.25ZM25.58 29.22v.76l-.44.02c-.6.02-1.14-.13-1.14-.8V27h-.5v-1h.5v-1h1v1h.58v1H25v1.87c0 .3.1.36.4.36h.09l.09-.01ZM31.74 27.04c-.36 0-.51.13-.64.4-.07.15-.1.38-.1.7V30h-1v-4h1v.77c.23-.43.32-.77.88-.77H32v1.05a2.04 2.04 0 0 0-.26-.01ZM34.5 27c-.45 0-.5.19-.5.89V30h-1v-4h1v.67c.22-.4.35-.67.83-.67.81 0 1.17.63 1.17 1.37V30h-1v-2.38c0-.37-.05-.62-.5-.62ZM44.5 29c.45 0 .5-.19.5-.89V26h1v4h-1v-.67c-.22.4-.35.67-.83.67-.81 0-1.17-.63-1.17-1.37V26h1v2.38c0 .37.05.62.5.62ZM40.2 30H38v-5h2.35c.8.01 1.5.44 1.5 1.3 0 .45-.2.8-.6 1.02.5.18.75.6.75 1.17 0 1.06-.86 1.51-1.8 1.51Zm-.03-2H39v1h1.16c.46 0 .84-.03.84-.51s-.42-.49-.83-.49Zm.67-1.5c0-.49-.58-.5-.97-.5H39v1h1c.42 0 .84-.07.84-.5ZM47 25h1v5h-1v-5ZM52 30h-1.03l-.62-1.59-.35.54V30h-1v-5h1v2.7l1.04-1.7H52l-1.03 1.73L52 30Z" fill="#EE2D38"/></svg>