<?xml version='1.0' encoding='utf-8'?>
<!-- by TradeStack -->
<svg width="56" height="56" viewBox="0 0 56 56" xmlns="http://www.w3.org/2000/svg"><path fill="#F0F3FA" d="M0 0h56v56H0z" /><path fill-rule="evenodd" d="M27.23 25a.5.5 0 0 0 .5-.5.5.5 0 0 0-.5-.5.5.5 0 0 0-.5.5c0 .28.23.5.5.5Zm.47 1H27v4h.7v-4ZM4.64 26H4l2.07 4 1.65-2.8L9.4 30l2.11-4h-.66l-1.45 2.83L7.72 26l-1.65 2.83L4.64 26Zm33.8 0h-.62l2 4 1.58-2.8 1.61 2.8 2.03-4h-.64l-1.39 2.83-1.6-2.83-1.6 2.83L38.44 26ZM19 28h-3.93c0 .65.82 1.5 1.76 1.5.75 0 1.4-.59 1.64-.9l.53.25c-.76.9-1.5 1.15-2.17 1.15-2.02 0-2.33-1.47-2.33-1.95S14.96 26 16.76 26c1.6 0 2.24 1.24 2.24 2Zm-.59-.4h-3.25c0-.14.35-1.07 1.6-1.07 1.06 0 1.49.63 1.65 1.08Zm29.66.4H52c0-.76-.63-2-2.24-2a2.19 2.19 0 0 0-2.26 2.05c0 .48.31 1.95 2.33 1.95.68 0 1.4-.25 2.17-1.15l-.53-.25c-.23.31-.89.9-1.64.9-.94 0-1.76-.85-1.76-1.5Zm.1-.4h3.24c-.16-.44-.59-1.07-1.66-1.07-1.24 0-1.59.93-1.59 1.08Zm-24.86-.62.34-.38a1.5 1.5 0 0 0-1.23-.6c-.83 0-1.23.68-1.23 1.08s.5.83 1.12 1.1c.62.25.84.47.84.74 0 .28-.3.6-.84.6-.43 0-.77-.29-.9-.43l-.41.43c.23.18.8.48 1.3.48.64 0 1.41-.57 1.41-1.08 0-.5-.5-1-1.1-1.17-.61-.17-.92-.59-.92-.77 0-.18.23-.49.73-.49.41 0 .76.33.89.49Zm8.27-.54V26h3.44l-2.47 3.5H35v.5h-3.5l2.47-3.56h-2.39Z" fill="#006240" /><circle cx="31.5" cy="32.5" r=".5" fill="#8E99A0" /><circle cx="34.5" cy="32.5" r=".5" fill="#8E99A0" /><circle cx="39.5" cy="32.5" r=".5" fill="#8E99A0" /><circle cx="42.5" cy="32.5" r=".5" fill="#8E99A0" /><circle cx="48.5" cy="32.5" r=".5" fill="#8E99A0" /><circle cx="51.5" cy="32.5" r=".5" fill="#8E99A0" /><path d="M39.44 21.41c-3.43 0-6.67 1.26-7.84 1.88l-.19-.37A19.13 19.13 0 0 1 39.44 21c2.11 0 3.94.36 5.82.74l.23.04c1.96.4 3.99.78 6.5.78v.41c-2.55 0-4.62-.39-6.58-.78l-.22-.04c-1.88-.38-3.68-.74-5.75-.74Z" fill="#003B6D" /></svg>