<?xml version='1.0' encoding='utf-8'?>
<!-- by TradeStack -->
<svg width="56" height="56" viewBox="0 0 56 56" xmlns="http://www.w3.org/2000/svg"><path fill="#F0F3FA" d="M0 0h56v56H0z" /><path d="M15.6 28.07C8.6 24.82 9.6 18 10.99 15c-1.35 4.24 4.6 6.27 12.84 11.04 6.59 3.82 5.82 11.22 4.6 14.45-.75-3.94-4.1-8.35-12.83-12.42Z" fill="url(#ajoo12vax)" /><path d="M29.25 27.08c-2.84-5.32 1.07-9.14 3.38-10.39-2.88 2.04-.11 6.1 2.78 12.97 2.31 5.49-1.73 9.79-4.04 11.25 1.4-2.83 1.42-7.18-2.12-13.83Z" fill="url(#bjoo12vax)" /><path d="M38.72 30.97c.4-4.32 4.28-5.13 6.18-5-2.56.13-2.5 3.66-3.47 8.94-.78 4.22-4.94 5.27-6.92 5.26 1.98-1.17 3.72-3.8 4.21-9.2Z" fill="url(#cjoo12vax)" /><defs><linearGradient id="ajoo12vax" x1="10" y1="19.42" x2="28.53" y2="19.42" gradientUnits="userSpaceOnUse"><stop stop-color="#3A8339" /><stop offset=".55" stop-color="#A4CA39" /><stop offset="1" stop-color="#2F8039" /></linearGradient><linearGradient id="bjoo12vax" x1="29.89" y1="19.01" x2="41.44" y2="27.83" gradientUnits="userSpaceOnUse"><stop stop-color="#3A8339" /><stop offset=".55" stop-color="#A4CA39" /><stop offset="1" stop-color="#2F8039" /></linearGradient><linearGradient id="cjoo12vax" x1="42.31" y1="26.32" x2="45.86" y2="36.12" gradientUnits="userSpaceOnUse"><stop stop-color="#3A8339" /><stop offset=".55" stop-color="#A4CA39" /><stop offset="1" stop-color="#2F8039" /></linearGradient></defs></svg>