<?xml version='1.0' encoding='utf-8'?>
<!-- by TradeStack -->
<svg width="56" height="56" viewBox="0 0 56 56" xmlns="http://www.w3.org/2000/svg"><path fill="#008FCC" d="M0 0h56v56H0z" /><path d="m6.14 26.03.61-2.5c.09-.35.34-.53.75-.53s.66.18.75.53l.6 2.5c.01.04.05.12.07.12.03 0 .05-.05.08-.15l.67-3H11l-1 3.99c-.14.61-.4 1.01-.99 1.01-.52 0-.8-.28-.94-.84A52.9 52.9 0 0 0 7.5 25c-.16.43-.5 1.89-.57 2.16-.14.55-.43.84-.94.84-.59 0-.85-.4-1-1.01L4 23h1.33L6 26c.03.1.05.15.08.15s.06-.09.06-.12Z" fill="#fff" /><path d="m27.14 33.03.61-2.5c.09-.35.34-.53.75-.53s.66.18.75.53l.6 2.5c.01.04.05.12.07.12.03 0 .05-.05.07-.15l.68-3H32l-1 3.99c-.14.61-.4 1.01-.99 1.01-.52 0-.8-.28-.94-.84-.06-.27-.46-1.84-.57-2.16-.16.43-.5 1.89-.57 2.16-.14.55-.43.84-.94.84-.59 0-.85-.4-1-1.01L25 30h1.33l.68 3c.02.1.04.15.07.15.03 0 .06-.09.06-.12Z" fill="#FC0" /><path d="m25.45 26.03.7-2.5c.1-.35.38-.53.85-.53s.76.18.85.53l.7 2.5c0 .04.05.12.07.12.03 0 .06-.05.09-.15l.77-3H31l-1.13 3.99c-.18.61-.47 1.01-1.14 1.01-.6 0-.92-.28-1.07-.84-.08-.27-.53-1.84-.66-2.16-.18.43-.58 1.89-.66 2.16-.15.55-.48.84-1.07.84-.67 0-.96-.4-1.14-1.01L23 23h1.52l.77 3c.03.1.06.15.09.15s.06-.09.07-.12ZM12.5 28H11v-5h1.5v5ZM18 23v4.13c0 .57-.47.87-1 .87-.42 0-.74-.1-.99-.48l-1.8-2.74c-.05-.08-.09-.12-.12-.12-.06 0-.09.04-.09.14V28h-1v-4.13c0-.6.48-.87 1.03-.87.44 0 .77.15.97.45l1.8 2.77c.06.08.1.12.13.12.05 0 .08-.04.08-.12V23H18ZM21.3 28h-1.67c-.4 0-.63-.3-.63-.79V23.8c0-.5.23-.79.63-.79h1.67c.64 0 1.08.2 1.33.59.25.38.37 1.02.37 1.91 0 1.23-.23 2.5-1.7 2.5Zm-.8-3.4v1.8c0 .25.1.36.34.36.72 0 .83-.46.83-1.26 0-.77-.16-1.26-.83-1.26-.24 0-.34.11-.34.36ZM33.5 23c1.79 0 2.5.7 2.5 2.5s-.71 2.5-2.5 2.5c-1.8 0-2.5-.69-2.5-2.5 0-1.8.7-2.5 2.5-2.5Zm-1 2.5c0 .72.2 1.28 1 1.28s1-.57 1-1.28c0-.71-.2-1.28-1-1.28s-1 .56-1 1.28Z" fill="#fff" /><path d="M21.5 30c1.79 0 2.5.7 2.5 2.5s-.71 2.5-2.5 2.5c-1.8 0-2.5-.69-2.5-2.5 0-1.8.7-2.5 2.5-2.5Zm-1 2.5c0 .72.2 1.28 1 1.28s1-.57 1-1.28c0-.71-.2-1.28-1-1.28s-1 .56-1 1.28Z" fill="#FC0" /><path d="M37 28v-4.21c0-.5.28-.79.77-.79h2.74c1.06 0 1.49.74 1.49 1.7 0 1.19-.46 1.78-1.18 1.78l-.21.03L42 28h-1.9l-.93-1.3c-.14-.23-.33-.39-.33-.68 0-.45.24-.67.7-.67.43 0 .8-.03.8-.56 0-.42-.14-.55-.57-.55h-.96c-.2 0-.31.1-.31.32V28H37Z" fill="#fff" /><path d="M38 35v-4.21c0-.5.28-.79.77-.79h2.74c1.06 0 1.49.74 1.49 1.7 0 1.19-.46 1.78-1.18 1.78l-.21.03L43 35h-1.9l-.93-1.3c-.14-.23-.33-.39-.33-.68 0-.45.24-.67.7-.67.43 0 .8-.03.8-.56 0-.42-.14-.55-.57-.55h-.96c-.2 0-.31.1-.31.32V35H38Z" fill="#FC0" /><path d="M48 28h-1.5l-1.63-1.94c-.13-.18-.2-.39-.2-.62 0-.23.05-.42.14-.55L46.37 23h1.4l-1.63 2.06a.55.55 0 0 0-.14.36c0 .1.06.24.19.4L48 28Zm-5 0v-5h1.5v5H43Z" fill="#fff" /><path d="M14.5 35H13v-4.21c0-.5.29-.79.78-.79h2.8c1.1 0 1.42.78 1.42 1.77 0 1-.31 1.73-1.41 1.73H14.5V35Zm0-2.69h1.22c.46 0 .64-.14.64-.54 0-.41-.19-.53-.64-.53h-.9c-.22 0-.32.1-.32.32v.75Z" fill="#FC0" /><path d="M48 28v-1.5h2.26c.16 0 .24-.05.24-.16 0-.13-.09-.18-.27-.25l-1.52-.54c-.47-.15-.71-.4-.71-1.24 0-.87.33-1.31 1-1.31h3v1.5h-2.21c-.2 0-.29.05-.29.16 0 .15.12.2.36.28l1.26.45c.7.21.88.56.88 1.23 0 .9-.27 1.38-1.03 1.38H48Z" fill="#fff" /><path d="M37 30v1.21h-2.22c-.19 0-.28.1-.28.32V32h2v1h-2v.47c0 .21.1.32.28.32H37V35h-3.29a.67.67 0 0 1-.52-.2.83.83 0 0 1-.19-.59V30.8c0-.25.06-.44.19-.58.12-.14.3-.21.52-.21H37Z" fill="#FC0" /></svg>