<?xml version='1.0' encoding='utf-8'?>
<!-- by TradeStack -->
<svg width="56" height="56" viewBox="0 0 56 56" xmlns="http://www.w3.org/2000/svg"><path fill="#F0F3FA" d="M0 0h56v56H0z" /><path d="M38.84 39h-3.42l-1.55-6.7L32.4 39h-1.24l-.85-.81s.43-.81.58-1.63h-.97c-.09.44-.34.87-.34.87l-.97-1.1s1.2-.72.96-1.9a1.6 1.6 0 0 0-1.87-1.24c-.86.14-1.5 1-1.26 2 .13.57.61.97.61.97s-1.6.93-1.36 2.41c.02.17.1.25.2.43h-2.27l-1.55-6.7-1.48 6.7h-3.43l-2.52-10h3.12l1.43 6.93L20.74 29h2.7l1.58 6.92L26.46 29h3.1L31 35.93 32.54 29h2.7l1.58 6.92L38.26 29h3.1l-2.52 10Zm-11.49-4.17c-.01-.33.17-.7.58-.76.36-.06.63.21.7.53.12.65-.67 1.1-.67 1.1s-.58-.37-.6-.87Zm.32 1.94 1.34 1.52c-.43.7-1.08.71-1.08.71s-.91.07-1.06-.85c-.1-.57.4-1.04.8-1.38ZM13 43h30V13H13v30Z" fill="#F30" /></svg>