<?xml version='1.0' encoding='utf-8'?>
<!-- by TradeStack -->
<svg width="56" height="56" viewBox="0 0 56 56" xmlns="http://www.w3.org/2000/svg"><path fill="#F0F3FA" d="M0 0h56v56H0z" /><path d="M5.68 26h-.62l-.13-.85c-.13-.86-.53-3.17-.83-3.92-.03-.09-.06-.17-.1-.23h.66c.15 0 .2.16.23.3.28 1.22.49 2.46.6 3.61.02.15.03.22.08.22.06 0 .1-.14.12-.2l.72-2.47c.11-.38.14-.73.14-.98a.61.61 0 0 0-.19-.48h1.26a.72.72 0 0 0-.16.45c0 .26.11.62.17.86l.67 2.63c.02.11.02.19.08.19.05 0 .07-.07.1-.19l.48-2.06c.12-.49.2-1 .2-1.51 0-.17 0-.26-.12-.37H10l-.18.31c-.21.4-.32.77-.43 1.2L8.55 26h-.62c-.15-.63-.27-1.26-.45-1.9l-.45-1.6c-.06-.2-.08-.38-.15-.38-.08 0-.1.17-.16.38L6 24.9 5.68 26ZM10.71 24.94c0 .4.28.6.66.6.5 0 .63-.46.63-.94v-.84l-.33.22c-.62.31-.96.48-.96.96ZM12.87 26h-.77c-.07-.31-.07-.6-.13-.6-.04 0-.05.01-.06.02-.22.32-.26.58-.86.58-.58 0-1.05-.32-1.05-.93 0-.73.96-1.03 1.53-1.3.48-.22.47-.24.47-.78 0-.42-.03-.74-.53-.74-.8 0-.48.8-1.03.8-.18 0-.31-.09-.31-.29 0-.57.86-.76 1.51-.76.6 0 .99.13.99.68v1.84c0 .5-.03 1.14.24 1.48Z" fill="#278A91" /><path d="M35.71 31.94c0 .4.28.6.66.6.5 0 .63-.46.63-.94v-.84l-.33.22c-.62.31-.96.48-.96.96ZM37.87 33h-.77c-.07-.31-.07-.6-.13-.6-.04 0-.05.01-.05.02-.23.32-.27.58-.87.58-.58 0-1.05-.32-1.05-.93 0-.73.96-1.03 1.53-1.3.48-.22.47-.24.47-.78 0-.42-.03-.74-.53-.74-.8 0-.48.8-1.03.8-.18 0-.31-.09-.31-.29 0-.57.86-.76 1.51-.76.6 0 .99.13.99.68v1.84c0 .5-.03 1.14.24 1.48Z" fill="#657178" /><path d="M17.08 22.05H18a4.9 4.9 0 0 0-.39.71l-1.33 2.92c-.26.55-1.15 2.32-2.46 2.32-.26 0-.82-.06-.82-.37 0-.07.03-.15.13-.15l.5.02c1.03 0 1.2-.15 1.52-.54.23-.28.56-.78.56-1.35 0-.23-.02-.37-.1-.6l-.42-1.2a6.47 6.47 0 0 0-.82-1.76l.7-.05c.16 0 .21.07.27.23l.81 2.37c.05.13.07.25.14.25.05 0 .1-.13.14-.25l.48-1.28a4 4 0 0 0 .28-.98c0-.15-.05-.21-.1-.3ZM19 24.99v-2.9c0-.35 0-.75-.16-1.01.57 0 1.12-.08 1.68-.08.9 0 1.32.54 1.32 1.3 0 .88-.5 1.54-1.35 1.54-.38 0-.49-.08-.62-.17.55-.08 1.23-.18 1.23-1.3 0-.6-.16-1.06-.89-1.06h-.57v3.68c0 .3.02.74.19 1.01h-.99c.17-.27.16-.7.16-1.01ZM27 23.86c0 1.3-.8 2.14-2.2 2.14-1.29 0-1.8-.95-1.8-1.86 0-1.3.8-2.14 2.2-2.14 1.29 0 1.8.95 1.8 1.86Zm-3.36 0c0 .98.48 1.84 1.47 1.84.87 0 1.23-.86 1.23-1.56 0-.98-.46-1.84-1.45-1.84-.87 0-1.25.86-1.25 1.56Z" fill="#278A91" /><path d="M14 30.86c0 1.3-.8 2.14-2.2 2.14-1.29 0-1.8-.95-1.8-1.86 0-1.3.8-2.14 2.2-2.14 1.29 0 1.8.95 1.8 1.86Zm-3.36 0c0 .98.48 1.84 1.47 1.84.87 0 1.23-.86 1.23-1.56 0-.98-.46-1.84-1.45-1.84-.87 0-1.25.86-1.25 1.56Z" fill="#657178" /><path d="m27.81 22.45.82-.13v2.82c0 .3 0 .64.15.86h-.93c.15-.22.15-.57.15-.86v-2.15c0-.27 0-.43-.19-.54ZM28.61 21l-.61.43.39.57.61-.41-.39-.59Z" fill="#278A91" /><path d="m7.81 29.45.82-.13v2.82c0 .3 0 .64.15.86h-.93c.15-.22.15-.57.15-.86v-2.15c0-.27 0-.43-.19-.54ZM8.61 28l-.61.43.39.57.61-.41-.39-.59ZM28.81 29.45l.82-.13v2.82c0 .3 0 .64.15.86h-.93c.15-.22.15-.57.15-.86v-2.15c0-.27 0-.43-.19-.54ZM29.61 28l-.61.43.39.57.61-.41-.39-.59Z" fill="#657178" /><path d="m29.83 22.14.76-.05v.3c0 .07-.01.14.05.14.07 0 .6-.53 1.23-.53.62 0 1.13.32 1.13 1.13v1.93c0 .33 0 .7.13.94h-.73v-2.37c0-.56-.2-1.16-.86-1.16-.81 0-.94.61-.94 1.2v1.4c0 .32 0 .69.15.93h-.9c.15-.24.15-.61.15-.94V23c0-.35 0-.69-.17-.86Z" fill="#278A91" /><path d="m43.83 29.14.76-.05v.3c0 .07-.01.14.05.14.07 0 .6-.53 1.23-.53.62 0 1.13.32 1.13 1.13v1.93c0 .33 0 .7.13.94h-.73v-2.37c0-.56-.2-1.16-.86-1.16-.81 0-.94.61-.94 1.2v1.4c0 .32 0 .69.15.93h-.9c.15-.24.15-.61.15-.94V30c0-.35 0-.69-.17-.86Z" fill="#657178" /><path d="M34.37 21.16 35 21v1.18h.78c.04 0 .08 0 .08.05 0 .18-.42.24-.7.24H35v2.54c0 .28.05.51.45.51.16 0 .45-.1.55-.2l-.04.36c0 .07-.47.32-.82.32-.59 0-.8-.36-.8-.86v-2.67H34v-.26l.33-.03.04-1.02Z" fill="#278A91" /><path d="M4.73 28.34v1.78h.18c.57 0 1.16-.21 1.16-1.02 0-.7-.4-.8-.93-.8-.13 0-.26.02-.4.04Zm-.59 2.7v-1.96c0-.34 0-.82-.14-1.08h1.74c.5 0 .97.26.97.93s-.45.99-.91 1.22v.01c.6.16 1.2.45 1.2 1.28C7 32.64 6.14 33 5.25 33H4c.22-.54.14-1.36.14-1.96Zm.6-.64v1.21c0 .9 0 1.08.43 1.08.67 0 1.15-.3 1.15-1.12 0-1.05-.73-1.17-1.48-1.17h-.1ZM15 32.06V30c0-.35 0-.69-.18-.86l.85-.05c0 .06-.04.44.05.44.06 0 .69-.53 1.23-.53.73 0 .78.68.9.68.1 0 .45-.68 1.05-.68.57 0 1.1.32 1.1 1.13v1.93c0 .33 0 .7.13.94h-.75v-2.37c0-.56-.21-1.16-.78-1.16-.67 0-.77.59-.77 1.24v1.35c0 .33 0 .7.15.94h-.92c.15-.24.15-.61.15-.94v-1.43c0-.56-.25-1.16-.82-1.16-.67 0-.77.59-.77 1.24v1.35c0 .33 0 .7.16.94h-.93c.15-.24.15-.61.15-.94ZM23.21 30.46h-1.48c-.02.16-.03.29-.03.46 0 .78.34 1.53 1.2 1.53.41 0 .81-.17 1-.4v.1c0 .44-.69.85-1.3.85-1.09 0-1.6-.99-1.6-2 0-1.09.6-2 1.73-2 .8 0 1.27.53 1.27 1.07 0 .39-.27.39-.79.39Zm-1.43-.26h.85c.4 0 .62 0 .62-.31a.62.62 0 0 0-.63-.64c-.52 0-.74.51-.84.95ZM28.13 32.89l-.77.08-.03-.26c0-.02 0-.07-.03-.07-.06 0-.34.36-1.03.36-.88 0-1.27-.82-1.27-1.56 0-1.11.78-1.78 1.95-1.78.14 0 .26.02.39.03v-.88c0-.29 0-.56-.16-.7L28 28v4.13c0 .27 0 .57.13.76Zm-.79-.95v-1.52c0-.33-.08-.5-.46-.5-.82 0-1.23.58-1.23 1.38 0 .63.29 1.34 1.05 1.34.43 0 .64-.31.64-.7ZM33.89 29.12v.83h-.05c-.2-.39-.36-.65-.86-.65-.77 0-1.32.77-1.32 1.7 0 .83.44 1.53 1.4 1.53.32 0 .7-.12.94-.38v.14c0 .43-.6.71-1.27.71-1.09 0-1.73-.86-1.73-1.87 0-1.2.8-2.13 2.09-2.13.42 0 .8.08.8.12ZM50.89 29.12v.83h-.05c-.2-.39-.36-.65-.86-.65-.77 0-1.32.77-1.32 1.7 0 .83.44 1.53 1.4 1.53.32 0 .7-.12.94-.38v.14c0 .43-.6.71-1.27.71-1.09 0-1.73-.86-1.73-1.87 0-1.2.8-2.13 2.09-2.13.42 0 .8.08.8.12ZM39.78 33h-.93c.15-.2.15-.5.15-.77v-3.4c0-.3 0-.57-.22-.72l.85-.11v4.23c0 .26 0 .57.15.77ZM42.78 33h-.93c.15-.2.15-.5.15-.77v-3.4c0-.3 0-.57-.22-.72l.85-.11v4.23c0 .26 0 .57.15.77ZM40 32.4l.77-.4c.1.23.23.54.23.8 0 .53-.53.9-.93 1.2h-.05c.09-.24.19-.42.19-.69 0-.32-.11-.61-.21-.92ZM51.63 32l.37.6-.63.4-.37-.58.63-.42Z" fill="#657178" /></svg>