<!-- by TradeStack --><svg width="56" height="56" viewBox="0 0 56 56" xmlns="http://www.w3.org/2000/svg"><path fill="#F0F3FA" d="M0 0h56v56H0z"/><path d="M8.05 26h.61L11 29h-.62l-2.33-3ZM8 29l1.25-1.63.23.39L8.6 29H8Zm1.5-1.78.87-1.22h.58l-1.2 1.56-.25-.34ZM12 29l1.49-3h.03L15 29h-.52l-1.11-2.4.32-.17L12.45 29H12Zm.5-1h1.7l.15.33h-1.76L12.5 28ZM20 29l1.49-3h.03L23 29h-.52l-1.11-2.4.32-.17L20.45 29H20Zm.73-1h1.49l.15.33H20.6l.13-.33ZM19 29l-2.67-2.21.18.02V29H16v-3l2.65 2.22-.16-.02V26H19v3ZM24 29v-3h1c.93 0 2 .46 2 1.54 0 .96-.96 1.46-1.82 1.46H24Zm.5-.39h.58c.67 0 1.42-.34 1.42-1.1 0-.74-.7-1.12-1.37-1.12h-.63v2.22ZM28.5 27.92c0 .48.58.7 1 .7.4 0 1-.2 1-.7V26h.5v1.93c0 .77-.87 1.07-1.5 1.07-.65 0-1.5-.3-1.5-1.07V26h.5v1.92ZM34 29v-3l1.5 2.2L37 26v3h-.5v-2l.12.08L35.5 29l-1.18-1.92.18-.08v2H34ZM38 26h.5v3H38v-3ZM42.99 29l-2.67-2.21.18.02V29H40v-3h.02l2.64 2.22-.16-.02V26h.5v3h-.01ZM44 26h3v.39h-2.5v.9h2v.4h-2v.92H47V29h-3v-3ZM50.72 26.54c-.32-.1-.7-.19-1.06-.19-.49 0-.94.16-.94.4 0 .28.62.41 1.12.54.46.11 1.16.27 1.16.87 0 .7-.99.84-1.5.84s-1.02-.1-1.5-.31l.27-.31c.37.17.78.27 1.18.27.3 0 1.05-.07 1.05-.49 0-.37-.74-.48-1.01-.55-.43-.1-1.27-.24-1.27-.82 0-.63.88-.78 1.35-.79.6 0 1.04.1 1.38.24l-.23.3Z" fill="#3F3F3F"/><path fill="#E6B446" d="M5 22h1v11H5z"/></svg>