<!-- by TradeStack --><svg xmlns="http://www.w3.org/2000/svg" width="56" height="56" viewBox="0 0 56 56"><path fill="#F0F3FA" d="M0 0h56v56H0z"/><path fill-rule="evenodd" d="M18 24.8V24h-5v.8h2V30h.8v-5.2H18zm.7 1.2a2 2 0 0 0-2 2c0 1.14.88 2 2 2a2 2 0 1 0 0-4zm1.3 2c0 .74-.57 1.32-1.3 1.32A1.3 1.3 0 0 1 17.4 28a1.3 1.3 0 1 1 2.6 0zm1.8-3.52v3.1h.27l1.3-1.58h.92l-1.59 1.93L24.5 30h-.94l-1.5-1.7h-.26V30H21v-5.52h.8zM26.5 26c-1.13 0-2 .9-2 2 0 1.98 2.48 2.68 3.75 1.24l-.51-.46c-.31.35-.73.55-1.2.55-.6 0-1.15-.39-1.28-.99h3.22c.16-1.22-.67-2.34-1.98-2.34zm1.24 1.68c-.29-1.34-2.24-1.31-2.48 0h2.48zM30.88 26c-.47 0-.85.19-1.08.57V26H29v4h.8v-2.2c0-.6.2-1.1.85-1.1.66 0 .95.47.95 1.1V30h.71v-2.2c0-.94-.4-1.8-1.43-1.8zm2.9 1.14c0-.38.52-.45.85-.45.33 0 .69.1.98.23l.27-.65c-.39-.16-.82-.27-1.25-.27-.77 0-1.63.32-1.63 1.12 0 .74.72.97 1.35 1.16.46.14.88.27.88.58 0 .35-.56.45-.86.45-.36 0-.73-.12-1.05-.26l-.3.64c.41.19.89.31 1.35.31.76 0 1.63-.32 1.63-1.12 0-.77-.73-.99-1.36-1.17-.46-.13-.87-.25-.87-.57zM36.5 30a.5.5 0 0 1-.5-.5c0-.66 1-.66 1 0 0 .27-.23.5-.5.5zm1.19-2c0-1.31 1.7-1.81 2.37-.7l.56-.38a1.94 1.94 0 0 0-1.65-.92c-1.08 0-1.97.9-1.97 2 0 2 2.57 2.74 3.62 1.09l-.55-.4a1.28 1.28 0 0 1-2.38-.68zM41 28a2 2 0 1 1 2 2c-1.12 0-2-.86-2-2zm2 1.32c.73 0 1.3-.58 1.3-1.31a1.3 1.3 0 1 0-2.6 0c0 .73.56 1.3 1.3 1.3zM47.14 26c-.55 0-.91.27-1.11.77H46V26h-.8v4h.8v-2.2c0-.56.29-1.1.92-1.1.65 0 .88.52.88 1.1V30h.72v-2.2c0-.57.25-1.1.88-1.1.66 0 .89.5.89 1.1V30H51v-2.22c0-.9-.37-1.78-1.4-1.78-.56 0-1.04.21-1.34.71a1.2 1.2 0 0 0-1.12-.71z" fill="#5C00F3"/><path d="M12.15 29.52H11.1a.63.63 0 0 1-.64-.63v-1.18h-.48v1.18c0 .6.5 1.11 1.12 1.11h1.05c.2 0 .35.15.35.35v1.33c0 .2-.15.32-.35.32h-1.44c-.19 0-.21-.11-.21-.3v-.97c0-.67-.69-1.23-1.37-1.23H8.3c-.2 0-.3-.13-.3-.32v-1.02c0-.36.26-.66.64-.66h3.38c.46 0 .84-.37.84-.83v-1.12a.84.84 0 0 0-.84-.83h-1.28a.37.37 0 0 1-.37-.36v-1.54a.84.84 0 0 0-.84-.82H8.32a.82.82 0 0 0-.82.82v3.31c0 .5-.44.9-.94.9H5.53a.05.05 0 0 1-.05-.05v-1.44c0-.2.17-.37.37-.37h1.41v-.46H5.84a.84.84 0 0 0-.84.82v1.45c0 .3.23.52.53.52h1.03c.77 0 1.44-.61 1.44-1.37v-3.3c0-.2.12-.33.33-.33h1.21c.2 0 .37.13.37.32v1.53c0 .45.38.82.84.82h1.27c.2 0 .38.17.38.37v1.13c0 .2-.17.33-.38.33h-3.4c-.63 0-1.12.55-1.12 1.16v1.01c0 .45.34.83.8.83h.83c.42 0 .87.31.87.72v.98c0 .44.26.8.72.8h1.44c.46 0 .84-.37.84-.82v-1.33a.84.84 0 0 0-.85-.83z" fill="#FF8C6A"/></svg>