<?xml version='1.0' encoding='utf-8'?>
<!-- by TradeStack -->
<svg width="56" height="56" viewBox="0 0 56 56" xmlns="http://www.w3.org/2000/svg"><path fill="#F0F3FA" d="M0 0h56v56H0z" /><path d="m30.8 27.14-10.05 9.1a2.87 2.87 0 0 1-3.81.02 2.76 2.76 0 0 1-.43-3.67l2.25-3.17a9.24 9.24 0 0 0 1.13-8.6L18.08 16a3.68 3.68 0 0 1 1.6-4.47 3.8 3.8 0 0 1 5.08 1.12l6.62 9.77c1.01 1.5.77 3.5-.58 4.72Z" fill="#FF300A" /><path d="m27.99 32.86 8.17-7.3a2.34 2.34 0 0 1 3-.04c.84.7 1 1.9.35 2.77l-1.76 2.4c-1.4 1.9-2 4.74-1.14 6.9l1.44 3.62a2.68 2.68 0 0 1-1.24 3.34 3.1 3.1 0 0 1-1.58.41 3 3 0 0 1-2.43-1.2l-5.25-7.34a2.64 2.64 0 0 1 .44-3.56Z" fill="#FF6A10" /></svg>