<!-- by TradeStack --><svg xmlns="http://www.w3.org/2000/svg" width="56" height="56"><path fill="#0877B5" d="M0 0h56v56H0z"/><path fill-rule="evenodd" d="M25 21l-2 1v7a5 5 0 0010 0 5 5 0 009.5 2.18 5 5 0 009.03-.07l-1.63-1.36a3 3 0 11-.1-1.85l1.63-1.22a5 5 0 00-9.09 4.14l-1.4-1.21a3 3 0 01-4.48 1.97l3.67-3.08 2.26-1.9A5 5 0 0033 29a5 5 0 00-8-4v-4zm0 8a3 3 0 106 0 3 3 0 00-6 0zm14.54-2.57l-4.34 3.64A3 3 0 0138 26c.56 0 1.1.16 1.54.43zm-16.49 4.59a5 5 0 11-.19-4.42l-2.26 1.9-3.66 3.08a3 3 0 004.48-1.97l1.63 1.41zm-7.38-.95l4.35-3.64a3 3 0 00-4.34 3.64zM13.02 24l1.4 1.35L11.03 29l3.38 3.65-1.4 1.35-3.3-3.57L6.4 34 5 32.65 8.37 29 5 25.35 6.4 24l3.3 3.57L13.03 24z" fill="#fff"/></svg>