<?xml version='1.0' encoding='utf-8'?>
<!-- by TradeStack -->
<svg width="56" height="56" viewBox="0 0 56 56" xmlns="http://www.w3.org/2000/svg"><path fill="#F0F3FA" d="M0 0h56v56H0z" /><path d="M30.25 27.54a9.46 9.46 0 0 0-3.4-7.53 9.07 9.07 0 0 0-12.95 1.4 9.55 9.55 0 0 0-1.58 8.86c.04-2 .71-4.01 2.05-5.7 3.2-4.03 8.99-4.65 12.94-1.38a9.36 9.36 0 0 1 2.94 4.35Z" fill="url(#a)" /><path d="M14.15 31.63c5.61-12.3 14.68-13.11 18.51-11.98-11.23 1.28-15.12 11.33-15.67 16.19-.64.02-2.11-.8-2.84-4.2Z" fill="url(#b)" /><path d="M23.35 34.78c-4.65 0-7.26-.86-7.99-1.3-1.15 1.82-1.02 5.44 8.71 5.44s14.98-7.4 16.4-11.12l1.45-2.47c-.71-2.72-2.38-6.9-3.4-1.85-1.26 6.3-9.37 11.3-15.17 11.3Z" fill="url(#c)" /><path d="M38.24 43A18.01 18.01 0 0 0 45 28.86C45 19 37.22 11 27.63 11A17.25 17.25 0 0 0 13 19.22a17 17 0 0 1 10.62-3.72c9.6 0 17.37 8 17.37 17.86 0 3.55-1 6.86-2.75 9.64Z" fill="url(#d)" /><path d="M13.42 22a14.94 14.94 0 0 0-1.61 12.99A14.67 14.67 0 0 0 40 33.65a14.67 14.67 0 0 1-26.2-3.31 14.9 14.9 0 0 1-.38-8.34Z" fill="url(#e)" /><defs><linearGradient id="a" x1="30.24" y1="26.07" x2="12.82" y2="27.26" gradientUnits="userSpaceOnUse"><stop stop-color="#1E385B" /><stop offset=".43" stop-color="#5369FD" /><stop offset="1" stop-color="#244499" /></linearGradient><linearGradient id="b" x1="31.93" y1="19.28" x2="14.95" y2="33.01" gradientUnits="userSpaceOnUse"><stop offset=".56" stop-color="#5167FB" /><stop offset=".9" stop-color="#153977" /></linearGradient><linearGradient id="c" x1="40.16" y1="26.01" x2="16.66" y2="35.85" gradientUnits="userSpaceOnUse"><stop stop-color="#04284D" /><stop offset=".53" stop-color="#3B55D0" /><stop offset="1" stop-color="#4C62F3" /></linearGradient><linearGradient id="d" x1="16.33" y1="14.25" x2="41.71" y2="40.4" gradientUnits="userSpaceOnUse"><stop offset=".51" stop-color="#5064EB" /><stop offset="1" stop-color="#042E46" /></linearGradient><linearGradient id="e" x1="10.27" y1="28.78" x2="40.07" y2="34.16" gradientUnits="userSpaceOnUse"><stop offset=".53" stop-color="#4F63FF" /><stop offset="1" stop-color="#11304F" /></linearGradient></defs></svg>