<!-- by TradeStack --><svg width="56" height="56" fill="none" xmlns="http://www.w3.org/2000/svg"><path fill="#00B8D4" d="M0 0h56v56H0z"/><path fill="#fff" d="M21 21h14v14H21z"/><mask id="a" fill="#fff"><rect x="15" y="15" width="26" height="26" rx="2"/></mask><rect x="15" y="15" width="26" height="26" rx="2" stroke="#fff" stroke-width="6" mask="url(#a)"/><rect x="20" y="12" width="2.991" height="5" rx="1.496" fill="#fff"/><rect x="26.523" y="12" width="2.991" height="5" rx="1.496" fill="#fff"/><rect x="33.009" y="12" width="2.991" height="5" rx="1.496" fill="#fff"/><rect x="20" y="39" width="2.991" height="5" rx="1.496" fill="#fff"/><rect x="26.523" y="39" width="2.991" height="5" rx="1.496" fill="#fff"/><rect x="33.009" y="39" width="2.991" height="5" rx="1.496" fill="#fff"/><rect x="39" y="36" width="2.991" height="5" rx="1.496" transform="rotate(-90 39 36)" fill="#fff"/><rect x="39" y="29.477" width="2.991" height="5" rx="1.496" transform="rotate(-90 39 29.477)" fill="#fff"/><rect x="39" y="22.991" width="2.991" height="5" rx="1.496" transform="rotate(-90 39 22.991)" fill="#fff"/><rect x="12" y="36" width="2.991" height="5" rx="1.496" transform="rotate(-90 12 36)" fill="#fff"/><rect x="12" y="29.477" width="2.991" height="5" rx="1.496" transform="rotate(-90 12 29.477)" fill="#fff"/><rect x="12" y="22.991" width="2.991" height="5" rx="1.496" transform="rotate(-90 12 22.991)" fill="#fff"/></svg>