<?xml version='1.0' encoding='utf-8'?>
<!-- by TradeStack -->
<svg width="56" height="56" viewBox="0 0 56 56" xmlns="http://www.w3.org/2000/svg"><path fill="#F0F3FA" d="M0 0h56v56H0z" /><path d="M28 45V8l-1.09 2.73-.38-.35-.3 2.18-.73-.47-1.32 3.35-.7-.5a4.02 4.02 0 0 0-.48 1.7c-.92.56-1.17 1.98-1.18 2.62a4.84 4.84 0 0 1-.8-.3c-.98 1.25-1.6 3.3-1.78 4.18h-.98c-.49 1.1-.53 3.12-.5 4h-1.14l.32 3.08H16C16 41.24 24 44.67 28 45Z" fill="url(#ac3eekyl2)" /><path d="M28 8v37c7.92 0 12-6.26 12-12.26 0-5.99-2.98-10.16-5.99-13.75-2.4-2.87-5-8.52-6.01-10.99Z" fill="url(#bc3eekyl2)" /><path d="M21.63 29H19l2.63 3L23 30.58 21.62 29ZM25.38 35H28l-2.63-3L24 33.42 25.38 35Z" fill="#fff" /><path d="M21.44 35H19c8.59-9 15.03-8.03 17-7.91-5.65 0-12.2 5.3-14.56 7.91Z" fill="#fff" /><path d="M29.85 30.5h4.4a.75.75 0 0 1 0 1.5H29v3h2v-1.5h3.75a2.25 2.25 0 0 0 0-4.5H32.5c-.43.2-1.65.91-2.65 1.5Z" fill="#fff" /><defs><linearGradient id="ac3eekyl2" x1="22" y1="8" x2="22" y2="45" gradientUnits="userSpaceOnUse"><stop stop-color="#85D708" /><stop offset="1" stop-color="#3C8806" /></linearGradient><linearGradient id="bc3eekyl2" x1="34" y1="8" x2="34" y2="45" gradientUnits="userSpaceOnUse"><stop stop-color="#649EF2" /><stop offset="1" stop-color="#2220AF" /></linearGradient></defs></svg>