<!-- by TradeStack --><svg width="56" height="56" viewBox="0 0 56 56" xmlns="http://www.w3.org/2000/svg"><path fill="#F0F3FA" d="M0 0h56v56H0z"/><path d="M17 20h5.91l-.07.62c-.15 1.38.86 5.46 6.98 9.16 3.96 2.4 6.26 4.8 7.57 7.02A10.88 10.88 0 0 1 39 42.45V43h-5.8l-.05-.5c-.16-1.76-1.54-6.16-7.77-9.26C18.47 29.8 17 24.31 17 20.55V20Z" fill="#E72424"/><path d="M22.3 20.55h-4.74c0 3.6 1.39 8.87 8.07 12.2 6.4 3.18 7.9 7.76 8.08 9.7h4.73c0-2.78-1.11-7.49-8.9-12.2-6.25-3.77-7.43-8.03-7.25-9.7Z" fill="url(#ay04yk10b)"/><circle cx="28" cy="16" r="5" fill="url(#by04yk10b)"/><path d="M17 43v-.55c0-2.44.82-6.18 5.54-10.1l.31-.27c1.59 1.05 3.31 1.85 4.91 2.87l-.59.49c-3.32 2.7-4.2 5.68-4.32 7.06l-.05.5H17Zm22-23v.55c0 3.16-1.03 7.56-5.5 10.93l-.34.25c-1.58-1.2-3.29-2.2-4.93-3.32l.57-.47c3.8-3.14 4.48-6.17 4.36-7.32l-.07-.62H39Z" fill="#E72424"/><path d="M22.9 32.77c-4.6 3.82-5.34 7.4-5.34 9.68h4.73c.15-1.52 1.08-4.63 4.53-7.44-.55-.35-1.15-.7-1.81-1.02a20 20 0 0 1-2.12-1.22Zm10.26-1.73a12.77 12.77 0 0 0 5.28-10.49h-4.73c.15 1.4-.65 4.6-4.55 7.81.34.24.7.47 1.1.7 1.07.66 2.04 1.32 2.9 1.98Z" fill="url(#cy04yk10b)"/><defs><linearGradient id="ay04yk10b" x1="17.28" y1="20.55" x2="38.33" y2="42.83" gradientUnits="userSpaceOnUse"><stop stop-color="#B4862C"/><stop offset=".5" stop-color="#FBEFA2"/><stop offset=".78" stop-color="#C37D29"/><stop offset="1" stop-color="#ECB145"/></linearGradient><linearGradient id="by04yk10b" x1="23.88" y1="13.65" x2="29.47" y2="21" gradientUnits="userSpaceOnUse"><stop stop-color="#EEBC40"/><stop offset=".28" stop-color="#9F7126"/><stop offset=".77" stop-color="#F3D07C"/><stop offset="1" stop-color="#CBA130"/></linearGradient><linearGradient id="cy04yk10b" x1="38.44" y1="26.93" x2="17.28" y2="26.93" gradientUnits="userSpaceOnUse"><stop stop-color="#F4E9A6"/><stop offset=".19" stop-color="#CD862A"/><stop offset=".67" stop-color="#CC8429"/><stop offset=".88" stop-color="#EEDE99"/></linearGradient></defs></svg>