<!-- by TradeStack --><svg width="56" height="56" viewBox="0 0 56 56" xmlns="http://www.w3.org/2000/svg"><path fill="#F0F3FA" d="M0 0h56v56H0z"/><path d="m46 25.28-.2 1.13c-.2-.2-.78-.57-1.5-.57-1.6 0-2 1.97-2 2.63 0 .66.4 1.69 1.3 1.69.72 0 1.5-.32 1.8-.47v.84c-.33.16-1.22.47-2.1.47-1.9 0-3.3-1.13-3.3-2.63 0-2.25 2.7-3.37 4.1-3.37 1.12 0 1.73.19 1.9.28ZM52 25.38l-.6.95c-.2-.19-1-.57-1.7-.57s-1.1.2-1.1.76c0 .29.7.48 1.6.77.9.28 1.5.57 1.5 1.52 0 1.52-2 2.19-3.3 2.19a5.81 5.81 0 0 1-2.4-.57l.4-.95c.3.25 1.08.76 1.8.76.9 0 1.5-.48 1.5-.76 0-1.05-3.2-.77-3.2-2.48 0-1.24 1.7-2 3.1-2 1.12 0 2.07.25 2.4.38Z"/><path d="M31.72 17c2.18 0 3.24.82 3.5 1.23-10.68 0-15.34 10.7-15.34 14.5 0 2.57 1.55 4.73 4.47 4.73 8.83 0 13.97-10.8 13.97-13.16 0-2.37-.2-2.95-.3-3.6.33.58.98 2.04.98 3.19C39 31.39 30.36 39 23.76 39 17.75 39 16 34.48 16 31.4 16 22.95 26.1 17 31.72 17Z" fill="#02A2E3"/><path d="M10.55 25H12l-2.86 2.62L11.1 31H8.36l-1-1.75L5.46 31H4l2.86-2.62L4.9 25h2.73l1 1.75 1.9-1.75Z"/><path fill-rule="evenodd" d="M17 27.9c.05-.96-.36-2.9-2.51-2.9-1.34 0-3.49.97-3.49 3.39 0 1.84 1.34 2.61 3.22 2.61.93 0 1.88-.32 2.24-.48l-.18-.97c-.3.26-1.1.77-1.88.77-.98 0-1.61-.77-1.61-1.84 0-.18.02-.37.05-.58H17Zm-1.68-.58c-.13-.7-.48-1.55-1.1-1.55-.54 0-1 .74-1.24 1.55h2.34Z"/><path d="M19.94 25h-2.23L17 31h2.23l.5-4.14c.3-.37.72-.72 1.23-.72.8 0 1.01.57 1.01.86l-.7 4h2.23l.21-1.86c.14-1.2.29-2.42.29-2.71 0-.57-.5-1.43-2.03-1.43-1.07 0-1.8.5-2.13.83l.1-.83ZM32.94 25h-2.23L30 31h2.23l.5-4.14c.3-.37.72-.72 1.23-.72.8 0 1.01.57 1.01.86l-.7 4h2.23l.21-1.86c.14-1.2.29-2.42.29-2.71 0-.57-.5-1.43-2.03-1.43-1.07 0-1.8.5-2.13.83l.1-.83ZM37.48 25H39l-.48 6H37l.48-6Z"/><path fill-rule="evenodd" d="M24.44 29.84c.86 1.3 2.7 1.55 4.12.53 1.42-1.01 1.86-2.9 1-4.2-.86-1.32-2.7-1.56-4.12-.54-1.42 1.01-1.86 2.9-1 4.2Zm2.2.25c.54.12 1.17-.72 1.39-1.87.22-1.15-.05-2.17-.6-2.29-.55-.11-1.17.73-1.4 1.88-.21 1.14.06 2.17.6 2.28Z"/><path d="M38.16 23.8c.28.33.85.24 1.26-.2.18-.19.3-.41.36-.64-.05.1-.13.18-.22.25-.35.29-.82.35-1.06.13-.24-.21-.15-.62.2-.9.33-.27.76-.34 1.01-.17a.6.6 0 0 0-.05-.07c-.28-.33-.85-.24-1.26.2-.42.44-.52 1.07-.24 1.4Z"/></svg>