<?xml version='1.0' encoding='utf-8'?>
<!-- by TradeStack -->
<svg width="56" height="56" viewBox="0 0 56 56" xmlns="http://www.w3.org/2000/svg"><path fill="#F0F3FA" d="M0 0h56v56H0z" /><path d="M36.5 25.08s.48-3.17-4-3.17c-4.47 0-19.03 3.13-19.62 9.92C12.8 32.9 14.81 34 14.81 34S11 33.5 11 31.12C11 28.18 18.78 20 31.1 20c8.31 0 5.4 5.08 5.4 5.08Z" fill="#FC0" /><path d="M11 31H8.94L7.5 29.05 6.06 31H4l2.57-3.2-2.1-2.8h2.1l.93 1.56L8.56 25h2.1l-2.14 2.8L11 31ZM14.5 27h-1v4H12v-4h-1v-1h1v-1h1.5v1h1v1Z" fill="#181B1E" /><path d="M14.8 27.3h-1v4h-2.1v-4h-1v-1.6h1v-1h2.1v1h1v1.6ZM13.5 26v-1H12v1h-1v1h1v4h1.5v-4h1v-1h-1Z" fill="#F0F3FA" /><path d="M18 27.68c-.2-.12-.4-.18-.6-.18-.79 0-.9.75-.9 1.4V31H15v-5h1.5v.88c.27-.53.6-.88 1.22-.88.08 0 .17 0 .28.02v1.66Z" fill="#181B1E" /><path d="m18.3 28.2-.45-.26a.87.87 0 0 0-.45-.14.54.54 0 0 0-.3.08.48.48 0 0 0-.17.2 2 2 0 0 0-.13.81v2.41h-2.1v-5.6h2.1v.3c.25-.2.55-.3.93-.3.08 0 .19 0 .3.02l.27.03v2.46Zm-1.5-1.78c-.11.13-.2.28-.3.46V26H15v5h1.5v-2.1c0-.65.11-1.4.9-1.4a1.3 1.3 0 0 1 .6.18v-1.66l-.27-.02c-.42 0-.7.16-.93.42Z" fill="#F0F3FA" /><path d="M24 31h-1.5v-.67c-.4.46-1.28.67-1.9.67-1.4 0-2.6-1.08-2.6-2.5 0-1.43 1.18-2.5 2.58-2.5.6 0 1.42 0 1.92.61V26H24v5Zm-1.45-2.5c0-1-.61-1.5-1.55-1.5-1.06 0-1.5.87-1.5 1.5S20 30 21 30s1.55-.5 1.55-1.5ZM25 28h2v1h-2v-1Z" fill="#181B1E" /><path d="M34.64 26h1.12s-.78-2-3.72-2C29.11 24 28 26.14 28 27.42c0 1.28.84 3.58 4 3.58a3.76 3.76 0 0 0 4-3.5h-5v1h3.64S34 30 32 30s-3-1-3-2.63C29 26.1 30.16 25 32 25s2.33.6 2.64 1Z" fill="#FC0" /><path fill-rule="evenodd" d="M43 28.5c0-1.38-1.34-2.5-3-2.5s-3 1.12-3 2.5c0 1.39 1.34 2.5 3 2.5s3-1.11 3-2.5Zm-1 0c0-.83-.9-1.5-2-1.5s-2 .67-2 1.5.9 1.5 2 1.5 2-.67 2-1.5Z" fill="#FC0" /><path d="M44 24h1v7h-1v-7ZM51 24h1v7h-1v-7Z" fill="#FC0" /><path fill-rule="evenodd" d="M52 28.5c0-1.38-1.34-2.5-3-2.5s-3 1.12-3 2.5 1.34 2.5 3 2.5 3-1.12 3-2.5Zm-1 0c0-.83-.9-1.5-2-1.5s-2 .67-2 1.5.9 1.5 2 1.5 2-.67 2-1.5Z" fill="#FC0" /></svg>