<?xml version='1.0' encoding='utf-8'?>
<!-- by TradeStack -->
<svg width="56" height="56" viewBox="0 0 56 56" xmlns="http://www.w3.org/2000/svg"><path fill="url(#apcvl5ydw)" d="M0 0h56v56H0z" /><path d="M42 31.03a14.13 14.13 0 0 1-15.94 10.81l-.56 1.94A16.14 16.14 0 0 0 44 31.36l-2-.33Zm0-6.06A14.13 14.13 0 0 0 28.18 14c-1.86 0-3.64.36-5.27 1l-.8-1.84A16.29 16.29 0 0 1 28.18 12c7.77 0 14.26 5.42 15.82 12.64l-2 .33Zm-26.81-6.5a15.81 15.81 0 0 0-.61 18.2l1.73-1.03a13.82 13.82 0 0 1 .43-15.9l-1.55-1.28Z" fill="#FFA400" /><path d="M39.3 28c0 6.08-4.98 11-11.12 11-4.85 0-8.97-3.07-10.5-7.35l-1.88.75A13.14 13.14 0 0 0 28.18 41c7.26 0 13.14-5.82 13.14-13s-5.88-13-13.14-13a13.13 13.13 0 0 0-12.69 9.59l1.99.4A11.11 11.11 0 0 1 28.18 17c6.14 0 11.12 4.92 11.12 11Z" fill="#FFA400" /><path d="m32.99 34.43 1.04 1.72a9.96 9.96 0 0 0 1.35-15.17l-1.28 1.57A7.92 7.92 0 0 1 33 34.43Zm-1.58-13.76A8.04 8.04 0 0 0 20.08 28a8.02 8.02 0 0 0 5.85 7.69l-.64 1.9A10.02 10.02 0 0 1 18.07 28c0-5.52 4.52-10 10.1-10 1.54 0 3 .34 4.3.94l-1.06 1.73Z" fill="#FFA400" /><path d="M21.12 28.5a7.05 7.05 0 0 0 7.06 6.5c3.9 0 7.08-3.13 7.08-7a7.04 7.04 0 0 0-9.01-6.74l.64 1.9A5.03 5.03 0 0 1 33.24 28c0 2.76-2.27 5-5.06 5a5.04 5.04 0 0 1-5.03-4.5h-2.03Z" fill="#FFA400" /><defs><linearGradient id="apcvl5ydw" x1="10.42" y1="9.71" x2="68.15" y2="76.02" gradientUnits="userSpaceOnUse"><stop stop-color="#1A1E21" /><stop offset="1" stop-color="#06060A" /></linearGradient></defs></svg>