<!-- by TradeStack --><svg width="56" height="56" viewBox="0 0 56 56" xmlns="http://www.w3.org/2000/svg"><path fill="#F0F3FA" d="M0 0h56v56H0z"/><path d="M17 32v-8h3v8h-3ZM31 32v-4.23c0-.75 0-1.77-1-1.77s-1 .9-1 1.68V32h-3v-4.23c0-.81 0-1.77-1-1.77s-1 1.74-1 2.74V32h-3v-8h3v1.6c.6-1.03 1.07-1.6 2.32-1.6 1.15 0 1.94.4 2.4 1.45A3.26 3.26 0 0 1 31.38 24c2.37 0 2.61 1.7 2.61 3.56V32h-3ZM43 28.5h-6c.06 1.05.9 1.5 2 1.5.68 0 1.65-.16 2-.77h2C42.65 31 41 32 39.34 32c-2.21.03-4.34-1.34-4.34-3.7 0-2.37.98-4.3 3.99-4.3 2.77 0 3.95 1.93 4.01 4.5Zm-4-2.9c-.89 0-1.82.59-2 1.4h4c-.12-.81-1.17-1.37-2-1.4ZM44 24h3v1.5c.7-1.12.9-1.5 2.24-1.5 2.33 0 2.76 1.42 2.76 3.56V32h-3v-4.2c0-1.08 0-1.8-1-1.8s-1 1.62-1 2.7V32h-3v-8ZM18.5 20c.81 0 1.5.67 1.5 1.5s-.66 1.5-1.5 1.5a1.5 1.5 0 0 1-1.5-1.5c0-.8.66-1.5 1.5-1.5ZM4 32h3.44L15 20h-3.44L4 32Z" fill="#DBA237"/><path d="M19 36h-3.5L5 20h3.5L19 36ZM20.24 38H16.7l-.7-1h3.51l.73 1ZM21.46 40H17.9l-.7-1h3.53l.73 1ZM22.57 41.68h-3.48l-.42-.68h3.48l.42.68ZM23.27 43h-3.48l-.27-.45H23l.27.45Z" fill="#DBA237"/></svg>