<?xml version='1.0' encoding='utf-8'?>
<!-- by TradeStack -->
<svg viewBox="0 0 56 56" xmlns="http://www.w3.org/2000/svg"><path fill="#F0F3FA" d="M0 0h56v56H0z" /><ellipse cx="28" cy="28" rx="20" ry="15" fill="#FCCF00" /><path fill-rule="evenodd" d="M15.5 18H15v5.48c0 1.87.92 2.87 1.28 3.16h-.65l-1.47-1.56h-.55v2.95c.12 1.76 1.35 2.5 2.02 2.5H16V31h-2v.8l2 1.16v1.35l-1 1.05v1.1h1.58A3.77 3.77 0 0020 32.64v-1.91l1.7 1.64L20.23 39h2.68l4.1-5h6.57l4.18 5h2.8l-2.36-9.64 6.88-4.41-.45-1.92-7.2 2.97H25.35c.6-.75.79-2.12.75-2.52V18h-.41l-2.96 3H18.5l-3-3zm3.83 5.55a3.88 3.88 0 00-2.23-.67c-.1 0-.31.06-.36.3a.3.3 0 00.2.37c1.1.24 1.8.51 1.96.6.25.14.46.12.56-.04.1-.16.09-.39-.13-.56zm-4.1 4.28c.31 0 1.05.08 1.54.46.15.12.16.28.09.38-.07.11-.22.13-.39.03a6.3 6.3 0 00-1.34-.4.21.21 0 01-.14-.26c.03-.16.18-.2.24-.2zm6.33-4.28a3.88 3.88 0 012.23-.67c.1 0 .31.06.36.3a.3.3 0 01-.21.37c-1.1.24-1.8.51-1.95.6-.25.14-.46.12-.56-.04-.1-.16-.1-.39.13-.56zm-1.73 4.28c-.3 0-1.04.08-1.54.46-.15.12-.16.28-.09.38.08.11.22.13.4.03.1-.06.58-.25 1.33-.4.06-.02.18-.1.14-.26a.25.25 0 00-.24-.2z" /></svg>