<!-- by TradeStack --><svg viewBox="0 0 56 56" xmlns="http://www.w3.org/2000/svg"><path fill="#F0F3FA" d="M0 0h56v56H0z"/><path d="M40.66 28.26c-.28-.92-.7-2.06-1.26-3.41a9.53 9.53 0 0 0-3.3-4.28 7.82 7.82 0 0 0-5.17-1.4c-2 .13-3.73.85-5.19 2.17a8.23 8.23 0 0 0-2.68 4.9 7.76 7.76 0 0 0 1.8 6.74c.79.9 1.9 1.68 3.34 2.35 1.25.58 2.57 1.03 3.96 1.35-2.43.57-4.79.38-7.09-.58a11.4 11.4 0 0 1-6.01-5.8 11.33 11.33 0 0 1-1.04-5.5c.12-1.93.69-3.71 1.7-5.35A11.32 11.32 0 0 1 24 15.4a11.38 11.38 0 0 1 10.17-.4c1.65.73 3.06 1.8 4.2 3.2a11.3 11.3 0 0 1 2.38 4.94c.36 1.72.33 3.42-.1 5.12Z" fill="#AA93F3"/><path d="M40.66 28.26a11.33 11.33 0 0 1-3.9 6.15 11.36 11.36 0 0 1-4.6 2.27c-1.39-.32-2.7-.77-3.96-1.35a10.04 10.04 0 0 1-3.34-2.35 7.76 7.76 0 0 1-1.8-6.75 8.22 8.22 0 0 1 2.68-4.9 8.38 8.38 0 0 1 5.2-2.17 7.82 7.82 0 0 1 5.17 1.41 9.53 9.53 0 0 1 3.29 4.28c.55 1.35.98 2.49 1.26 3.41Z" fill="#C4B3F9"/><path d="M15.6 39.38a8.62 8.62 0 0 1-2.9-1.47 4.2 4.2 0 0 1-1.64-2.7 6.6 6.6 0 0 1 .84-4.16 22.69 22.69 0 0 1 4.34-5.62c.15-.14.2-.11.17.09-.5 2.8-.08 5.13 1.25 7.01a10 10 0 0 0 3.97 3.27 30.43 30.43 0 0 0 8.5 2.47c5.22.8 10.49 1.11 15.8.96.03 0 .05.01.06.04.02.04 0 .06-.05.07-9.14 1.3-21 2.96-30.34.04Z" fill="#F72021"/></svg>