<!-- by TradeStack --><svg width="56" height="56" viewBox="0 0 56 56" xmlns="http://www.w3.org/2000/svg"><path fill="#F0F3FA" d="M0 0h56v56H0z"/><path d="M44.53 23.04c.86.57.47 1.96-.56 1.96h-2.96v11.1c0 2.7-2.15 4.9-4.81 4.9H18.82A4.86 4.86 0 0 1 14 36.1V36h4.3v.48c0 .29.23.52.52.52h17.67c.28 0 .51-.23.51-.52V23.34l-9-6.01L16.51 25h-4.48c-1.03 0-1.42-1.39-.56-1.96L28 12l16.53 11.04Z" fill="#DD5424"/><path d="M29 35v1h5v-3.48c0-.84-.65-1.52-1.44-1.52H18.02v-1h14.02L34 27h-4.74l-.83-1H16.06c-1.14 0-2.06.97-2.06 2.17v4.66c0 1.2.92 2.17 2.06 2.17H29ZM24 23.4 21 22v1.6l3 1.4h5v-1.6h-5Z" fill="#DD5424"/></svg>