<!-- by TradeStack --><svg width="56" height="56" viewBox="0 0 56 56" xmlns="http://www.w3.org/2000/svg"><path fill="url(#a0402ykda)" d="M0 0h56v56H0z"/><path d="M14.08 20H21l-1.47-2.65A2.65 2.65 0 0 0 17.2 16h-3.12c-1.15 0-2.08.9-2.08 2s.93 2 2.08 2Z" fill="#B5CF38"/><path d="M18.85 30H26l-1.66-2.65A2.34 2.34 0 0 0 22.26 26h-3.4c-1.03 0-1.86.9-1.86 2s.83 2 1.85 2Z" fill="#B3B3B3"/><path d="M24.46 41 26 38h-2.97c-1.12 0-2.03.9-2.03 2v.2c0 1 .82 1.8 1.83 1.8.7 0 1.32-.38 1.64-1Z" fill="#3EC8EF"/><path d="m32.41 30.33 5.44-12.77A2.54 2.54 0 0 1 40.2 16H42L31.63 40.44A2.54 2.54 0 0 1 29.3 42h-1.86l3.17-7.44L22.96 16h1.73c1.02 0 1.94.61 2.34 1.55l5.38 12.78Z" fill="#FFFCF9"/><defs><linearGradient id="a0402ykda" x1="10.42" y1="9.71" x2="68.15" y2="76.02" gradientUnits="userSpaceOnUse"><stop stop-color="#1A1E21"/><stop offset="1" stop-color="#06060A"/></linearGradient></defs></svg>