<!-- by TradeStack --><svg width="56" height="56" viewBox="0 0 56 56" xmlns="http://www.w3.org/2000/svg"><path fill="url(#akg52qfn4)" d="M0 0h56v56H0z"/><path fill-rule="evenodd" d="M13.18 31.25c3.34 7.12 16.14 16.4 23.24 13.05 7.1-3.35 6.54-18.22 3.2-25.34C37.41 14.24 33.1 12 28.36 12c-2.53.03-5.03.6-7.32 1.71-7.1 3.35-11.2 10.42-7.86 17.54ZM24.61 19H20l1.78 2.76a4.32 4.32 0 0 1-.18 4.94l-1.55 2.06.18.18a1.84 1.84 0 0 0 2.54.04l1.69-1.55a2.64 2.64 0 0 1 3.95.4l5.9 8.29a1.75 1.75 0 0 0 2.05.63c.24-.09.46-.23.64-.4l-6.86-14.28c-1.4-2.8-4-3.07-5.53-3.07Zm-2.23 16.26a2.4 2.4 0 0 1 .28-1.33l3.05-6.3s1.28-.46 2.2.98a1.18 1.18 0 0 1 .04 1.16L23.62 37s-1.18-.81-1.24-1.74Z" fill="#FFCD00"/><defs><linearGradient id="akg52qfn4" x1="10.42" y1="9.71" x2="68.15" y2="76.02" gradientUnits="userSpaceOnUse"><stop stop-color="#1A1E21"/><stop offset="1" stop-color="#06060A"/></linearGradient></defs></svg>