<!-- by TradeStack --><svg width="56" height="56" viewBox="0 0 56 56" xmlns="http://www.w3.org/2000/svg"><path fill="#F0F3FA" d="M0 0h56v56H0z"/><path fill-rule="evenodd" d="m10.69 25.12.24.07c.31-.3.48-.76.53-.98.85.51.78 1.26.6 1.66l.18.2c.41-.1.8-.42.95-.58.48.89.01 1.5-.35 1.74l.03.14c.42.12.92.02 1.13-.04 0 1.02-.73 1.33-1.16 1.36l-.05.17c.3.32.8.5 1.02.54-.53.91-1.33.79-1.72.6l-.12.11c.09.45.44.86.61 1.02-.92.53-1.56-.01-1.79-.37l-.13.03c-.16.44-.06.98.01 1.21-1.08 0-1.36-.8-1.36-1.23a2.9 2.9 0 0 1-.15-.04c-.37.3-.56.82-.62 1.06-.92-.55-.76-1.39-.55-1.75a2.95 2.95 0 0 1-.12-.13c-.46.07-.9.42-1.06.6-.5-.94.04-1.57.4-1.78l-.01-.07a2.1 2.1 0 0 0-1.2.01c0-1.04.76-1.34 1.19-1.36l.03-.15c-.3-.34-.8-.52-1.03-.56.51-.9 1.3-.8 1.69-.61l.14-.15c-.1-.42-.44-.82-.6-.97.87-.5 1.49-.05 1.74.3l.2-.05c.13-.42.03-.91-.03-1.12 1 0 1.3.68 1.36 1.12ZM12 28a2 2 0 1 1-4 0 2 2 0 0 1 4 0Z" fill="#EC1B23"/><path d="M9.35 29.24c-.33-.23-.52-.7-.6-1.05l.26-.07c.07.32.23.7.47.87.12.08.26.12.42.07.17-.05.38-.18.64-.46l.18.2c-.27.3-.52.48-.76.54a.7.7 0 0 1-.61-.1ZM9.71 28.19l.51-1.5.24.1-.5 1.5-.25-.1ZM9.14 26.63h.62v.63h-.62zM10.63 27.2h.62v.63h-.62z" fill="#EC1B23"/><path fill-rule="evenodd" d="M4 22h48v12H4V22Zm1 1h10v10H5V23Zm14.76 2h-2.05l.14 1H17v1h1.04l.67 4h2.05l-.68-4H22l-1 2h1.8l.34-.61c.4-.7.86-1.54.86-1.76 0-.28-.2-.52-.29-.6L19.9 26l-.14-1Zm11.95.03c.1.1.29.37.29.7 0 .32-1 2.48-1.36 3.27h-1.9L30 31h-2.11L26 28h2.11l.62.97L30 26h-5v-1l6.71.03ZM38 27.01V27h-2v2h-2v-2h-1v-1h1v-1h2v1h2v-1h2v1h1v1h-1v.39c0 1.71-1.33 3.12-2 3.61h-2a7.46 7.46 0 0 0 2-4ZM40 25v-1h1v1h-1Zm2-1h1v1h-1v-1Zm2 1h1.97l.17 1H48v1h-1.69l.35 2H49v1h-2.17l.17 1h-1.97l-.17-1H43v-1h1.69l-.35-2H42v-1h2.17L44 25Z" fill="#EC1B23"/></svg>