<!-- by TradeStack --><svg width="56" height="56" viewBox="0 0 56 56" fill="none" xmlns="http://www.w3.org/2000/svg">
<rect width="56" height="56" fill="#104083"/>
<path fill-rule="evenodd" clip-rule="evenodd" d="M45 28C45 31.3051 44.0568 34.3899 42.4249 37H41.9427H40.0011H15.9989C18.7355 40.6433 23.0925 43 28 43C31.9382 43 35.5219 41.4823 38.1981 39H40.9619C37.8437 42.6708 33.1938 45 28 45C21.1051 45 15.1688 40.8952 12.5017 34.9961H14.728L14.7301 35H27V34.4848C21.8733 31.0988 16.0426 29.3451 13.018 28.7407C13.0902 30.2261 13.3785 31.6549 13.8521 32.9961H11.746C11.261 31.4164 11 29.7387 11 28C11 18.6112 18.6112 11 28 11C37.3888 11 45 18.6112 45 28ZM29 34.4848V35H41.2699C42.2687 33.1105 42.8758 30.9819 42.9829 28.7224C36.6143 29.9206 31.1326 33.0278 29 34.4848ZM27.908 32.9027C33.0661 29.4882 39.6389 27.5366 42.9553 26.8332C42.3599 19.0942 35.8916 13 28 13C20.1074 13 13.6385 19.0957 13.0445 26.8361C19.6584 28.1278 25.6578 31.378 27.908 32.9027ZM26.7217 23.6633L26.6409 23.1183L25.8456 23.0105C25.8211 23.0089 25.7966 23.0062 25.7721 23.0025L24.0164 22.7409L24.9761 21.8008C25.184 21.5972 25.4749 21.5019 25.763 21.5433L26.8594 21.7005L26.8832 21.6748L21.127 15.8951L22.2343 14.7724L23.4953 16.0334L25.4792 14.065L26.2173 14.7724L24.2643 16.8178L25.1101 17.6175L26.2173 16.4641L27.017 17.233L25.8636 18.4018L27.9859 20.4779L30.1081 18.4018L29.0163 17.233L29.8006 16.4641L30.9232 17.6175L31.7383 16.8178L29.8006 14.7724L30.6003 14.065L32.5226 16.0334L33.7683 14.7724L34.8601 15.8951L29.1393 21.6748L30.2122 22.7322C30.6938 22.4408 31.2586 22.273 31.8625 22.273C32.7203 22.273 33.4991 22.6114 34.0727 23.1619L32.373 24.8616L32.8963 25.3774L33.8479 25.4734C33.8395 25.2414 33.7919 24.992 33.6877 24.7316L34.5953 23.8145C34.8868 24.2962 35.0546 24.8611 35.0546 25.4652C35.0546 25.5086 35.0538 25.5519 35.052 25.5949L36.5288 25.744L35.1624 27.1103L34.6458 27.0294C34.3625 27.5322 33.947 27.9506 33.4463 28.2373L33.5295 28.7599L32.3298 29.9763L32.1396 28.6454C32.0483 28.6533 31.9559 28.6573 31.8625 28.6573C30.5814 28.6573 29.4765 27.9025 28.9683 26.8134L30.5041 25.2727L29.9392 24.7168L28.7069 25.9492C28.6829 25.7913 28.6704 25.6297 28.6704 25.4652C28.6704 24.8888 28.8231 24.3482 29.0903 23.8815L27.9859 22.7946L27.7879 22.9307L27.9474 23.9446C27.9872 24.1976 27.908 24.4549 27.7329 24.6418L26.9767 25.449L26.732 23.7076C26.7298 23.6917 26.728 23.6758 26.7267 23.6599L26.7217 23.6633ZM31.6369 24.1362L31.0921 23.5993C31.3077 23.4752 31.7134 23.3574 32.2823 23.4887L31.6369 24.1362ZM30.4472 26.7874L31.2388 25.9957L31.8465 26.5938L31.9628 27.4076C31.2954 27.3947 30.7307 27.0544 30.4472 26.7874ZM26.3688 25.5301L26.1066 23.8636L25.3854 24.5932C25.2031 24.7776 25.1173 25.0364 25.1534 25.2931L25.3981 27.0345L26.1543 26.2273C26.3295 26.0404 26.4086 25.7831 26.3688 25.5301ZM24.5005 25.4865L24.7626 27.1529C24.8024 27.406 24.7233 27.6632 24.5481 27.8502L23.792 28.6573L23.5472 26.9159C23.5111 26.6592 23.5969 26.4004 23.7792 26.2161L24.5005 25.4865ZM21 29V27.0936C21 26.8389 21.1917 26.6324 21.4283 26.6324H23V28.5389C23 28.7936 22.8083 29 22.5717 29H21ZM22.6283 24.7242L24.373 24.9744L23.4392 25.9168C23.2297 26.1283 22.9319 26.2274 22.6374 26.1835L20.8817 25.9218L21.8413 24.9818C22.0493 24.7781 22.3402 24.6829 22.6283 24.7242ZM25.9015 23.3839L24.1568 23.1336C23.8687 23.0923 23.5778 23.1875 23.3699 23.3912L22.4102 24.3312L24.1659 24.5929C24.4604 24.6368 24.7582 24.5378 24.9678 24.3262L25.9015 23.3839ZM26.7276 41.0036C26.4807 41.0026 26.2683 40.9427 26.0903 40.8237C25.9132 40.7048 25.7768 40.5325 25.6811 40.3069C25.5864 40.0812 25.5395 39.8098 25.5405 39.4926C25.5405 39.1763 25.5878 38.9068 25.6826 38.684C25.7783 38.4612 25.9146 38.2917 26.0917 38.1756C26.2697 38.0585 26.4817 38 26.7276 38C26.9736 38 27.1851 38.0585 27.3621 38.1756C27.5401 38.2927 27.677 38.4626 27.7727 38.6854C27.8684 38.9073 27.9157 39.1763 27.9148 39.4926C27.9148 39.8107 27.8669 40.0826 27.7712 40.3083C27.6765 40.5339 27.5406 40.7062 27.3635 40.8252C27.1865 40.9441 26.9745 41.0036 26.7276 41.0036ZM26.7276 40.4952C26.896 40.4952 27.0305 40.4117 27.131 40.2446C27.2315 40.0774 27.2812 39.8268 27.2803 39.4926C27.2803 39.2726 27.2573 39.0895 27.2114 38.9431C27.1664 38.7968 27.1023 38.6868 27.019 38.6132C26.9367 38.5395 26.8396 38.5027 26.7276 38.5027C26.5601 38.5027 26.4262 38.5853 26.3257 38.7505C26.2252 38.9158 26.1745 39.1631 26.1735 39.4926C26.1735 39.7154 26.196 39.9014 26.241 40.0505C26.2869 40.1988 26.3515 40.3102 26.4348 40.3847C26.518 40.4584 26.6156 40.4952 26.7276 40.4952ZM23 40.498V41H25V40.4386H23.89V40.4187L24.3192 40.0038C24.5211 39.8225 24.6776 39.6672 24.7886 39.5379C24.8996 39.4076 24.9767 39.2891 25.0197 39.1825C25.0638 39.0758 25.0858 38.9677 25.0858 38.8582C25.0858 38.6911 25.0422 38.5428 24.9551 38.4135C24.8681 38.2842 24.746 38.1832 24.5891 38.1105C24.4331 38.0368 24.2498 38 24.0393 38C23.8345 38 23.6536 38.0382 23.4967 38.1147C23.3397 38.1912 23.2177 38.2993 23.1306 38.439C23.0435 38.5787 23 38.8102 23 39H23.59C23.59 38.9075 23.6082 38.7609 23.6445 38.6939C23.6809 38.6269 23.7326 38.5754 23.7996 38.5395C23.8666 38.5037 23.945 38.4857 24.035 38.4857C24.1211 38.4857 24.1982 38.5027 24.2661 38.5367C24.3341 38.5698 24.3876 38.6174 24.4269 38.6797C24.4661 38.7411 24.4857 38.8143 24.4857 38.8992C24.4857 38.9757 24.4699 39.047 24.4384 39.1131C24.4068 39.1782 24.3604 39.2448 24.2991 39.3127C24.2388 39.3807 24.1642 39.4572 24.0752 39.5422L23 40.498ZM28.338 41V40.498L29.4132 39.5422C29.5022 39.4572 29.5769 39.3807 29.6371 39.3127C29.6984 39.2448 29.7448 39.1782 29.7764 39.1131C29.808 39.047 29.8238 38.9757 29.8238 38.8992C29.8238 38.8143 29.8041 38.7411 29.7649 38.6797C29.7257 38.6174 29.6721 38.5698 29.6041 38.5367C29.5362 38.5027 29.4591 38.4857 29.373 38.4857C29.2831 38.4857 29.2046 38.5037 29.1376 38.5395C29.0706 38.5754 29.0189 38.6269 28.9826 38.6939C28.9462 38.7609 28.928 38.9075 28.928 39H28.338C28.338 38.8102 28.3816 38.5787 28.4687 38.439C28.5557 38.2993 28.6778 38.1912 28.8347 38.1147C28.9917 38.0382 29.1725 38 29.3773 38C29.5879 38 29.7711 38.0368 29.9271 38.1105C30.0841 38.1832 30.2061 38.2842 30.2932 38.4135C30.3803 38.5428 30.4238 38.6911 30.4238 38.8582C30.4238 38.9677 30.4018 39.0758 30.3578 39.1825C30.3147 39.2891 30.2377 39.4076 30.1267 39.5379C30.0156 39.6672 29.8592 39.8225 29.6572 40.0038L29.228 40.4187V40.4386H30.338V41H28.338ZM30.9133 40.5101V41.0121H33V40.4506H31.8034V40.4308L32.2326 40.0159C32.4345 39.8346 32.591 39.6793 32.702 39.55C32.813 39.4197 32.89 39.3012 32.9331 39.1945C32.9771 39.0879 32.9991 38.9798 32.9991 38.8703C32.9991 38.7032 32.9556 38.5549 32.8685 38.4256C32.7814 38.2963 32.6594 38.1952 32.5024 38.1225C32.3464 38.0489 32.1632 38.0121 31.9526 38.0121C31.7478 38.0121 31.567 38.0503 31.41 38.1268C31.2531 38.2033 31.1311 38.3114 31.044 38.4511C30.9569 38.5908 30.9133 38.8223 30.9133 39.0121H31.5033C31.5033 38.9196 31.5215 38.773 31.5579 38.706C31.5942 38.639 31.6459 38.5875 31.7129 38.5516C31.7799 38.5158 31.8584 38.4978 31.9483 38.4978C32.0345 38.4978 32.1115 38.5148 32.1795 38.5488C32.2474 38.5818 32.301 38.6295 32.3402 38.6918C32.3795 38.7532 32.3991 38.8264 32.3991 38.9113C32.3991 38.9878 32.3833 39.0591 32.3517 39.1252C32.3201 39.1903 32.2737 39.2569 32.2125 39.3248C32.1522 39.3928 32.0775 39.4693 31.9885 39.5542L30.9133 40.5101Z" fill="white"/>
</svg>
