<?xml version='1.0' encoding='utf-8'?>
<!-- by TradeStack -->
<svg width="56" height="56" viewBox="0 0 56 56" xmlns="http://www.w3.org/2000/svg"><path fill="url(#akyegvlk3)" d="M0 0h56v56H0z" /><path d="M10 18h2.12l10.99 11.5L12.12 41H10l10.98-11.5L10 18Zm39 0h-2.12l-9.93 10.39-.8-.84L45.27 18h-1.96l-8.14 8.52-.88-.92 7.26-7.6H39.6l-6.28 6.58-.9-.93 5.4-5.65h-1.68l-4.56 4.77-1.02-1.07L34.1 18h-1.35l-2.85 2.99L27.03 18h-2.12l10.98 11.5L24.91 41h2.12l10.99-11.5L49 18Zm-27.82 0h2.13l10.98 11.5L23.3 41h-2.13l10.99-11.5L21.18 18Zm-3.73 0h2.13l10.98 11.5L19.58 41h-2.13l10.99-11.5L17.45 18Zm-3.72 0h2.12l10.98 11.5L15.85 41h-2.12L24.7 29.5 13.73 18Z" fill="#E31223" /><defs><linearGradient id="akyegvlk3" x1="10.42" y1="9.71" x2="68.15" y2="76.02" gradientUnits="userSpaceOnUse"><stop stop-color="#1A1E21" /><stop offset="1" stop-color="#06060A" /></linearGradient></defs></svg>