<!-- by TradeStack --><svg width="56" height="56" viewBox="0 0 56 56" xmlns="http://www.w3.org/2000/svg"><path fill="#F0F3FA" d="M0 0h56v56H0z"/><path d="M7.5 25H5c-.33 1-1 3.2-1 4 0 .8 1 1 1.5 1H8l-.5 2H10l2-7H9.5l-1 4H7c-.8 0-.67-.67-.5-1l1-3Z" fill="#003264"/><path fill-rule="evenodd" d="M16.75 26.64a.5.5 0 0 0-.5-.64h-.99a.51.51 0 0 0-.5.36l-.6 2a.5.5 0 0 0 .48.64h1c.22 0 .42-.14.49-.36l.62-2ZM13.95 25c-.45 0-.85.29-.98.71l-.93 3a1 1 0 0 0 .99 1.29h4.02c.45 0 .85-.29.98-.71l.93-3a1 1 0 0 0-.99-1.29h-4.02ZM30.75 26.64a.5.5 0 0 0-.5-.64h-.99a.51.51 0 0 0-.5.36l-.6 2a.5.5 0 0 0 .48.64h1c.22 0 .42-.14.49-.36l.62-2ZM27.95 25c-.45 0-.85.29-.98.71l-.93 3a1 1 0 0 0 .99 1.29h4.02c.45 0 .85-.29.98-.71l.93-3a1 1 0 0 0-.99-1.29h-4.02ZM49.75 26.64a.5.5 0 0 0-.5-.64h-.99a.51.51 0 0 0-.5.36l-.6 2a.5.5 0 0 0 .48.64h1c.22 0 .42-.14.49-.36l.62-2ZM46.95 25c-.45 0-.85.29-.98.71l-.93 3a1 1 0 0 0 .99 1.29h4.02c.45 0 .85-.29.98-.71l.93-3a1 1 0 0 0-.99-1.29h-4.02Z" fill="#003264"/><path d="M22.5 24H20l-1.5 6H21l.5-2 1 2H25l-1-3 2.5-2H25l-3 2 .5-3ZM36.5 25H34c-.33 1-1 3.2-1 4 0 .8.67 1 1 1h3.5c.8 0 1-.33 1-.5 0 .4.33.5.5.5h3.5c.8 0 1.33-.67 1.5-1l1-4h-2.5l-1 3.5s-.1.5-.5.5h-1c-.4 0-.5-.33-.5-.5l1-3.5h-2l-1 3.5s-.16.5-.5.5h-1c-.4 0-.5-.33-.5-.5l1-3.5Z" fill="#003264"/></svg>