<!-- by TradeStack --><svg width="56" height="56" viewBox="0 0 56 56" xmlns="http://www.w3.org/2000/svg"><path fill="#F0F3FA" d="M0 0h56v56H0z"/><path fill-rule="evenodd" d="M5.98 27v-5h-.81L4 22.84v.81L5 23V27h.98Zm42.3-5v.76h1.22V27h1v-4.24H52V22h-3.72Zm-1.82 7h-.94L47 32.13V34h1v-1.87L49.7 29h-.94l-1.13 2.21h-.04L46.46 29ZM17.2 22c.23 0 .45.04.66.12.22.08.4.21.58.4.17.17.3.41.4.71a4.33 4.33 0 0 1 .02 2.24c-.07.33-.2.6-.36.83-.16.23-.35.4-.58.52-.23.12-.48.18-.76.18-.3 0-.56-.06-.8-.18a1.5 1.5 0 0 1-.55-.5 1.6 1.6 0 0 1-.26-.71h.84c.05.2.13.34.26.46.14.11.3.17.5.17.33 0 .58-.15.76-.44.18-.3.26-.7.26-1.22h-.03a1.24 1.24 0 0 1-.7.59c-.15.05-.3.08-.47.08a1.39 1.39 0 0 1-1.27-.77c-.13-.23-.19-.5-.2-.81 0-.32.08-.6.22-.85.14-.26.34-.46.6-.6.25-.15.55-.22.88-.22Zm0 .71a.82.82 0 0 0-.44.13.88.88 0 0 0-.31.34 1.02 1.02 0 0 0 0 .94c.07.14.17.25.3.34.13.08.28.12.45.12a.82.82 0 0 0 .62-.28.97.97 0 0 0-.17-1.46.8.8 0 0 0-.44-.13Zm25.87 7.08c.53 0 .79.33.93.83h.96a1.89 1.89 0 0 0-1.9-1.62C41.7 29 41 30.27 41 31.5c0 1.27.7 2.5 2.09 2.5 1.16 0 1.91-.9 1.91-2.03v-.68h-2V32h1c0 .68-.2 1.2-.9 1.2-.94 0-1.1-.91-1.1-1.7 0-.78.16-1.7 1.07-1.7ZM40.5 31.5c0 .52-.09.97-.26 1.35-.18.37-.42.65-.72.85-.3.2-.64.3-1.02.3s-.72-.1-1.02-.3c-.3-.2-.54-.48-.72-.85a3.16 3.16 0 0 1-.26-1.35c0-.52.09-.97.26-1.35.18-.37.42-.65.72-.85.3-.2.64-.3 1.02-.3s.72.1 1.02.3c.3.2.54.48.72.85.17.38.26.83.26 1.35Zm-.8 0c0-.37-.04-.68-.15-.93-.1-.26-.24-.45-.42-.58-.18-.13-.4-.2-.63-.2-.24 0-.45.07-.63.2s-.32.32-.42.58c-.1.25-.16.56-.16.93s.05.68.16.94c.1.25.24.44.42.57.18.13.4.2.63.2.24 0 .45-.07.63-.2s.32-.32.42-.57c.1-.26.16-.57.16-.94ZM33 29v5h2.86v-.76H34V29h-1Zm-1 2.5c0 .52-.09.97-.26 1.35-.18.37-.42.65-.72.85-.3.2-.64.3-1.02.3s-.72-.1-1.02-.3c-.3-.2-.54-.48-.72-.85A3.16 3.16 0 0 1 28 31.5c0-.52.09-.97.26-1.35.18-.37.42-.65.72-.85.3-.2.64-.3 1.02-.3s.72.1 1.02.3c.3.2.54.48.72.85.17.38.26.83.26 1.35Zm-.8 0c0-.37-.04-.68-.15-.93-.1-.26-.24-.45-.42-.58-.18-.13-.4-.2-.63-.2-.24 0-.45.07-.63.2s-.32.32-.42.58c-.1.25-.16.56-.16.93s.05.68.16.94c.1.25.24.44.42.57.18.13.4.2.63.2.24 0 .45-.07.63-.2s.32-.32.42-.57c.1-.26.16-.57.16-.94ZM27 34v-5h-1v3.07L23.79 29H23v5h1v-3.02L26.22 34H27Zm-9 0v-5h1v2h2v-2h1v5h-1v-2.12h-2V34h-1Zm-1.33-3.3h.83a2.1 2.1 0 0 0-.22-.71 1.76 1.76 0 0 0-1-.88 2.12 2.12 0 0 0-1.77.19c-.3.2-.56.48-.74.85-.18.38-.27.83-.27 1.35 0 .52.09.97.27 1.35a1.96 1.96 0 0 0 1.8 1.15c.28 0 .52-.04.75-.13a1.83 1.83 0 0 0 .98-.9 2 2 0 0 0 .2-.65h-.83a1.1 1.1 0 0 1-.38.66c-.1.07-.2.13-.32.17a1.24 1.24 0 0 1-1.03-.13 1.3 1.3 0 0 1-.45-.58c-.11-.25-.16-.57-.16-.94s.05-.68.16-.93c.1-.25.26-.45.45-.58a1.18 1.18 0 0 1 1.04-.14.97.97 0 0 1 .56.47c.06.11.1.24.13.39ZM10 34v-5h3v.76h-2V31h1.84v.76H11v1.48h2.01V34H10Zm-4.5-5v.76H7V34h1v-4.24h1.44V29H5.5ZM45 27v-5h3.04v.76h-2.2v1.36h2.04v.76h-2.03v1.36h2.2V27H45Zm-1 0v-5h-1v3.04L40.79 22H40v5h1v-3.19L43.22 27H44Zm-8 0v-5h1.75c.96 0 1.75.62 1.75 1.6 0 .68-.39 1.18-.95 1.41L39.57 27h-.95l-.91-1.83H37V27h-1Zm1.62-2.58H37v-1.66h.62c.53 0 .88.28.88.84 0 .56-.35.82-.88.82ZM32 22v5h3.05v-.76H33v-1.47h1.88V24H33v-1.24h2.04V22H32Zm-4.45.76V22h3.72v.76H30V27h-1v-4.24h-1.45ZM27 27v-5h-1v3.29L23.79 22H23v5h1v-3.29L26.22 27H27Zm-5-5v5h-1v-5h1Zm-8.33.12a1.87 1.87 0 0 0-1.55.1c-.25.14-.45.34-.6.6-.13.25-.2.53-.2.85 0 .3.06.58.2.81a1.39 1.39 0 0 0 1.26.77 1.4 1.4 0 0 0 .88-.31c.12-.1.22-.22.29-.36h.03c0 .52-.09.92-.26 1.22a.83.83 0 0 1-.75.44.75.75 0 0 1-.5-.17.83.83 0 0 1-.27-.46h-.84c.04.27.12.5.26.72.14.2.33.37.56.49.23.12.49.18.79.18.28 0 .53-.06.76-.18.23-.12.42-.29.58-.52.16-.22.28-.5.37-.83a4.33 4.33 0 0 0-.02-2.24 1.9 1.9 0 0 0-.41-.72 1.52 1.52 0 0 0-.58-.39Zm-1.1.72a.82.82 0 0 1 .45-.13.8.8 0 0 1 .44.13.95.95 0 0 1 .42.8.97.97 0 0 1-.25.66.86.86 0 0 1-.62.28.82.82 0 0 1-.75-.46 1.02 1.02 0 0 1 0-.94.88.88 0 0 1 .3-.34ZM8.74 27c-.33 0-.63-.06-.89-.18a1.5 1.5 0 0 1-.61-.49c-.15-.2-.23-.45-.24-.72h.87c.01.13.05.25.13.34.08.1.18.18.31.23.13.05.27.08.43.08.17 0 .32-.03.45-.09a.75.75 0 0 0 .31-.26c.08-.1.11-.23.11-.37a.67.67 0 0 0-.1-.4.75.75 0 0 0-.34-.26c-.14-.06-.31-.1-.51-.1h-.42v-.67h.42a1 1 0 0 0 .43-.09.65.65 0 0 0 .4-.62.66.66 0 0 0-.1-.36.62.62 0 0 0-.25-.24 1 1 0 0 0-.8 0 .74.74 0 0 0-.29.23.6.6 0 0 0-.12.35H7.1c0-.27.08-.51.23-.72.15-.2.35-.37.6-.48.24-.12.52-.18.83-.18.32 0 .6.06.82.18.24.12.42.29.55.49.13.2.2.43.2.68 0 .27-.08.5-.24.69-.16.18-.37.3-.63.36v.04c.34.05.6.17.77.38.18.2.27.46.27.76 0 .27-.08.52-.23.73-.15.22-.36.39-.62.5-.26.13-.57.19-.9.19Z"/></svg>