<?xml version='1.0' encoding='utf-8'?>
<!-- by TradeStack -->
<svg width="56" height="56" viewBox="0 0 56 56" xmlns="http://www.w3.org/2000/svg"><path fill="#F0F3FA" d="M0 0h56v56H0z" /><path fill-rule="evenodd" d="M32 30v-4h2.18c.7 0 1.32.56 1.32 1.26 0 .52-.35.97-.82 1.16l.95 1.58h-1.05l-.8-1.48H33V30h-1Zm2.1-3.16H33v.84h1.1c.22 0 .4-.19.4-.42 0-.23-.18-.42-.4-.42ZM8 26v2.8c0 .66.55 1.19 1.22 1.19h1.06a1.2 1.2 0 0 0 1.22-1.19V26h-1v2.6c0 .4-.25.73-.67.73H9.7c-.42 0-.7-.33-.7-.73V26H8Zm35.42.01h-1.04l-.93 1.4-.87-1.4h-1.04L41 28.24v1.74h1v-1.74s.92-1.49 1.42-2.23Zm-35.54 0H6.84l-.93 1.4-.87-1.4H4l1.49 2.23v1.74h.89v-1.74L7.88 26Zm4.12 0V30h1v-2.53l.84 2.53h.9l.76-2.53V30h1V26h-1.3l-.94 2.73-.97-2.73H12ZM17.49 30h-.97l1.63-4h.93l1.67 4h-.99l-.4-1h-1.49l-.38 1Zm1.11-2.9.45 1.12h-.88l.43-1.12Zm5.4-.29V26h-1.49c-.83 0-1.51.74-1.51 1.64v.72c0 .9.68 1.64 1.51 1.64H24v-.8h-1.33c-.42 0-.67-.37-.67-.82h2v-.8h-2c.02-.43.27-.77.67-.77H24Zm7.5-.81v.81h-1.33c-.4 0-.65.34-.67.77h2v.8h-2c0 .45.25.82.67.82h1.33v.8h-1.49c-.83 0-1.51-.74-1.51-1.64v-.72c0-.9.68-1.64 1.51-1.64h1.49ZM52 26v.81h-1.33c-.42 0-.67.37-.67.82v.75c0 .45.25.82.67.82H52v.8h-1.49c-.83 0-1.51-.74-1.51-1.64v-.72c0-.9.68-1.64 1.51-1.64H52Zm-12.5.01v.81h-1.75c-.44 0-.75.37-.75.82v.74c0 .45.31.82.75.82h.84v-.83h-1.03v-.78h1.94V29.99h-1.92c-.87 0-1.58-.73-1.58-1.63v-.71c0-.9.7-1.64 1.58-1.64h1.92Zm-15-.01v4h.91v-2.66L26.95 30H28v-4h-1v2.6s-.9-1.74-1.4-2.6h-1.1Zm19 0h1v4h-1v-4Zm1.5 4v-3.98h1.08l1.46 2.6v-2.6h.94v3.97H47.4l-1.5-2.64V30H45Z" fill="#FB0505" /></svg>