<!-- by TradeStack --><svg width="56" height="56" viewBox="0 0 56 56" xmlns="http://www.w3.org/2000/svg"><path fill="#F0F3FA" d="M0 0h56v56H0z"/><path d="M4 23h2.64l1.78 5.7 1.97-5.7H13l-3.35 8.77C9.37 32.84 8.29 35 6.22 35h-.84v-2h.67a2.5 2.5 0 0 0 1.23-1.45L4 23Zm39 0h2.64l1.78 5.7 1.97-5.7H52l-3.35 8.77c-.28 1.07-1.36 3.23-3.43 3.23h-.84v-2.21h.67c.34-.13 1.07-.57 1.23-1.24L43 23Zm-28 5.91V23h3v5.1c0 .91.56 1.65 1.52 1.65S21 29.01 21 28.1V23h3v9h-2.08l-.3-.99c-.44.33-1.63.99-2.94.99-2.8 0-3.62-2.06-3.68-3.09ZM32.5 32h3v-5.11c0-.9.5-1.64 1.36-1.64.87 0 1.64.73 1.64 1.64V32H41v-5.92a3.25 3.25 0 0 0-3.38-3.04c-1.18 0-2.26.64-2.65.97l-.56.33A3.05 3.05 0 0 0 31.73 23c-1.17 0-2.23.65-2.61.98l-.27-.98H27v9h2.5v-5.13c0-.91.63-1.65 1.48-1.65s1.52.74 1.52 1.65V32Z" fill="#1B1A18"/></svg>