<?xml version='1.0' encoding='utf-8'?>
<!-- by TradeStack -->
<svg width="56" height="56" viewBox="0 0 56 56" xmlns="http://www.w3.org/2000/svg"><path fill="#F0F3FA" d="M0 0h56v56H0z" /><path d="M15.4 35 14.1 35c-.06 0-.1-.03-.1-.1V22.27a.25.25 0 0 1 .08-.18.27.27 0 0 1 .19-.08l1.22-.01c3.61-.06 7.3-.12 8.86 2.69a.1.1 0 0 0 .14.02 11.57 11.57 0 0 1 2.02-4 .22.22 0 0 0-.04-.3c-2.33-1.89-4.98-2.4-7.96-2.4h-8.38c-.04 0-.07 0-.1.03a.12.12 0 0 0-.03.09v20.66c0 .08.04.22.11.22h7.06a21 21 0 0 0 3.91-.36 10.8 10.8 0 0 0 8.99-10.83c-.05-6.94 8.36-8.94 12.76-4.16.05.06.11.07.18.01l2.9-2.6a.2.2 0 0 0 .02-.29c-6.5-7-19.34-3.82-20.2 6.05l-.07.98c-.05.95-.1 1.9-.42 2.73a7.01 7.01 0 0 1-5.02 4.22c-1.24.32-3.17.28-4.82.25Zm27.76-4.9c-1.1 6.14-9.46 6.11-12.16 1.58-.07-.1-.12-.1-.15.01a12.15 12.15 0 0 1-2.12 3.9.16.16 0 0 0 .02.22c6.57 6.05 17.63 2.6 19.08-6.36.16-.95.2-2.16.14-3.35 0-.07-.04-.1-.1-.1H37.14c-.1 0-.14.04-.14.13v3.68c0 .1.14.19.14.19h5.87c.08 0 .16.03.15.1Z" fill="url(#ag5vqyjql)" /><defs><linearGradient id="ag5vqyjql" x1="29" y1="17" x2="29" y2="39" gradientUnits="userSpaceOnUse"><stop stop-color="#DBAE1A" /><stop offset="1" stop-color="#D18910" /></linearGradient></defs></svg>