<!-- by TradeStack --><svg viewBox="0 0 56 56" xmlns="http://www.w3.org/2000/svg"><path fill="#F0F3FA" d="M0 0h56v56H0z"/><path fill-rule="evenodd" d="m42.81 29.24-8.53-13.71a7.35 7.35 0 0 0-12.56 0l-8.53 13.7C9.99 34.37 13.62 41 19.46 41h17.08c5.84 0 9.46-6.64 6.27-11.76ZM35.12 15a8.35 8.35 0 0 0-14.24 0L12.34 28.7C8.75 34.47 12.79 42 19.46 42h17.08c6.67 0 10.7-7.53 7.12-13.29L35.12 15Z" fill="#AE9C39"/><path fill-rule="evenodd" d="M38.3 30.33 31.7 20.01a4.4 4.4 0 0 0-7.38 0l-6.62 10.32A4.34 4.34 0 0 0 21.4 37h13.23a4.34 4.34 0 0 0 3.69-6.67Zm-5.77-10.86a5.4 5.4 0 0 0-9.06 0l-6.62 10.32A5.34 5.34 0 0 0 21.38 38h13.24a5.34 5.34 0 0 0 4.53-8.2l-6.62-10.33Z" fill="#AE9C39"/><path fill-rule="evenodd" d="m32.8 30.12-3.67-5.53a1.38 1.38 0 0 0-2.26 0l-3.67 5.53c-.5.76.02 1.88 1.13 1.88h7.34c1.11 0 1.63-1.12 1.13-1.88Zm-2.84-6.09a2.38 2.38 0 0 0-3.92 0l-3.67 5.54c-.99 1.48.12 3.43 1.96 3.43h7.34c1.84 0 2.95-1.95 1.96-3.43l-3.67-5.54Z" fill="#AE9C39"/></svg>