<!-- by TradeStack --><svg width="56" height="56" viewBox="0 0 56 56" xmlns="http://www.w3.org/2000/svg"><path fill="url(#akl5m2qki)" d="M0 0h56v56H0z"/><path d="M26.63 11h3.34c.37.23.6.5.67.8a.52.52 0 0 1-.22.6c-3.12 2.26-9.35 2.84-12.96 3-.7.03-.76-.17-.2-.58A19.99 19.99 0 0 1 26.62 11Zm-12.76 8.16a.26.26 0 0 1-.23-.28c0-.05.02-.1.05-.13l1.38-1.8c.16-.2.36-.3.62-.3h.3c5.9-.08 14.35-.19 19-2.6a.6.6 0 0 0 .35-.64l-.06-.58a.32.32 0 0 1 .5-.3l4.26 2.9a.54.54 0 0 1 .22.36.52.52 0 0 1-.1.4c-3.48 4.68-18.49 3.56-25.16 3.06l-1.13-.09Zm-1.75 3.99c7.73 3.6 17.58 5.01 25.89 5.04 7.53.02 8.47-2.72 5.23-8.72-.1-.18-.2-.19-.31-.01-3.18 4.65-21.76 1.9-28.25.95l-.98-.14a1.12 1.12 0 0 0-1.24.73l-.57 1.59c-.1.25-.02.44.23.56Zm-.35 1.36c7.16 4.5 24.44 12.16 32.86 8.12.09-.04.12-.01.11.08-.7 4.19-3.3 6.83-7.74 7.1-9.62.6-19.59-5.5-25.78-12.24a.88.88 0 0 1-.21-.68l.25-2.14a.32.32 0 0 1 .18-.26.34.34 0 0 1 .33.02Zm20.01 20.02c-8.75-1.58-15.85-7.34-20.46-14.58a.17.17 0 0 0-.28 0 .16.16 0 0 0-.02.1c1.65 10.04 10.51 16.43 20.76 14.66a.1.1 0 0 0 .07-.03.09.09 0 0 0 0-.13.1.1 0 0 0-.07-.02Z" fill="#F5F5F5"/><defs><linearGradient id="akl5m2qki" x1="10.42" y1="9.71" x2="68.15" y2="76.02" gradientUnits="userSpaceOnUse"><stop stop-color="#1A1E21"/><stop offset="1" stop-color="#06060A"/></linearGradient></defs></svg>