<?xml version='1.0' encoding='utf-8'?>
<!-- by TradeStack -->
<svg width="56" height="56" viewBox="0 0 56 56" xmlns="http://www.w3.org/2000/svg"><path fill="#F0F3FA" d="M0 0h56v56H0z" /><path d="M17.39 24.17c.13-.08.28-.13.43-.15.21-.03.36-.05.44-.08.36-.13.67-.23.93-.3.45-.11.94-.35 1.3-.53a3.3 3.3 0 0 0 1.55-1.62c.03-.07.06-.1.12-.14l.02-.03.24-.84c.01-.05 0-.1-.02-.14-.04-.06.02-.18 0-.33a.96.96 0 0 1 .45-.97.11.11 0 0 1 .1-.02l.04.01c.03.01.05 0 .05-.03l.08-.44c.01-.05 0-.1-.02-.15l-.35-.67a1.1 1.1 0 0 0-.3-.38.3.3 0 0 0-.15-.06l-.38-.05c-.07-.01-.1-.05-.1-.12l-.02-.18c0-.05-.03-.08-.09-.07-.03 0-.06.03-.1.07a.1.1 0 0 1-.12.04c-.05-.02-.08-.06-.11-.13a.1.1 0 0 1 .04-.12 13.9 13.9 0 0 1 .6.01c.26.02.36-.05.6-.16.31-.15.56.06.68.36.02.06.05.06.09 0a.22.22 0 0 0 .03-.12c-.04-.55.21-1.02.28-1.52.14-.93.54-1.74 1.23-2.41.02-.02.04-.02.06 0l.03.03a.01.01 0 0 1 0 .02c-.58.55-.98 1.2-1.19 1.95-.1.35-.03.81-.27 1.24a.23.23 0 0 0-.03.14c.03.2.02.4-.02.62a.24.24 0 0 0 .16.28l.29.08c.05.02.1 0 .15-.03.42-.33.73-.62.9-.87.15-.2.04-.43.04-.6 0-.38.1-.76.29-1.14.02-.05.01-.08-.03-.1a.9.9 0 0 1-.26-.25v-.03l.04-.02h.01c.18.2.36.22.55.08.05-.04.04-.06-.02-.08a.7.7 0 0 1-.36-.25c-.03-.04-.02-.05.02-.04l.49.14c.06.02.08 0 .08-.06l-.02-.3.01-.15.14-.48a.1.1 0 0 1 .12-.07c.13.04.21.01.25-.08.05-.11.18-.18.38-.2.05 0 .07-.02.07-.07v-.07c0-.05.02-.07.04-.07h.12c.06 0 .1-.01.13-.06a.4.4 0 0 1 .26-.17c.04 0 .06-.03.06-.08v-.09a.05.05 0 0 1 .05-.06l.08.02c.15-.02.17-.08.06-.18-.2-.18-.38-.27-.54-.29a.06.06 0 0 0-.05.03.06.06 0 0 0 0 .07c0 .03.03.06.06.09.02.01.02.02 0 .03a.29.29 0 0 1-.02.03.04.04 0 0 1-.04 0 1.34 1.34 0 0 0-.31-.08c-.5-.06-1.15.62-1.54.98-.02.02-.03.01-.03-.01l-.01-.17c0-.03 0-.05.03-.07a6.3 6.3 0 0 1 2.46-1.37c.4-.12.9-.16 1.5-.13.9.05 1.58.1 2.04.14.05 0 .05.02.02.05-.16.17-.1.35.16.52v.01l-.01.04c-.01.02-.03.02-.04 0a.98.98 0 0 0-1-.29c-.19.05-.42.04-.52.25a.14.14 0 0 1-.12.07l-.27.03a.12.12 0 0 0-.11.1v.05l.15.53c0 .02 0 .02-.01.01l-.54-.3a.17.17 0 0 0-.13-.03c-.4.1-1.32.36-.8.93.03.05.02.08-.04.07a.51.51 0 0 1-.2-.06c-.26-.13-.5-.02-.74.32-.1.15-.05.26.15.34.03.01.06.04.1.1h-.08l-.2-.04c-.05-.02-.09 0-.11.05a.32.32 0 0 0-.03.13c0 .05-.03.09-.07.12-.5.32-.77.77-.78 1.35 0 .05-.02.09-.06.12-.35.31-.42.93-.52 1.32a.23.23 0 0 1-.07.12.56.56 0 0 0-.2.4c0 .06.01.09.07.1.2.03.42.09.65.17.06.02.1.05.1.1a.06.06 0 0 1-.01.05.06.06 0 0 1-.05.02c-.55-.06-.9.2-1.04.77l-.08.45c0 .07.02.1.08.13h.04c.07.03.07.05.01.09-.19.1-.32-.04-.49.05-.06.03-.06.06.01.08.1.03.18.04.23.02.1-.04.17-.04.2.02.03.04.07.07.12.07h.1c.06 0 .08.03.06.1l-.1.34a.1.1 0 0 1-.08.08c-.41.04-.49.4-.86.45-.06.01-.09-.02-.07-.08l.01-.05v-.03a.07.07 0 0 0-.04-.05h-.03c-.13.02-.2.07-.23.14-.12.41-.2.84-.48 1.09a.28.28 0 0 0-.08.13l-.24.84a.5.5 0 0 0 .04.4l.76 1.31c.01.04.04.04.07.02l.13-.09c.05-.04.09-.02.11.04.1.22.07.39-.07.49-.09.05-.08.08.02.06.12-.02.22-.1.29-.25a.1.1 0 0 1 .12-.05c.1.04.16.01.21-.07a.12.12 0 0 1 .14-.06c.19.05.36.05.5-.01a.08.08 0 0 0 .06-.1.08.08 0 0 0-.02-.03c-.05-.06-.1-.06-.15 0-.08.12-.19.13-.33.05a.1.1 0 0 1-.05-.14c.06-.13.03-.25-.1-.35a.21.21 0 0 1-.04-.09c-.02-.06-.02-.1.01-.13a.11.11 0 0 1 .1-.01.1.1 0 0 0 .08-.01c.04-.02.07-.04.07-.07 0-.05-.01-.06-.06-.05a.5.5 0 0 1-.32.02c-.06-.02-.07-.05-.03-.1.05-.07.04-.13-.04-.17a.17.17 0 0 1-.09-.11c-.1-.37-.1-.74-.05-1.1.01-.04.03-.08.07-.1l.06-.05c.05-.03.04-.06-.01-.08a.16.16 0 0 1-.12-.12c-.01-.05 0-.1.04-.14l.13-.13c.05-.04.05-.09 0-.13a.09.09 0 0 1-.01-.07c0-.06.03-.07.07-.03.14.13.28.13.42 0a.18.18 0 0 0 .07-.12c.01-.14 0-.29-.04-.44a.1.1 0 0 1 .05-.11l.44-.2a.13.13 0 0 0 .07-.07l.28-.75a.1.1 0 0 1 .04-.05.1.1 0 0 1 .06-.02c.25 0 .46-.07.62-.21.04-.04.08-.03.11.01l.06.2c.02.09.05.1.08.05.03-.04.06-.05.1-.05a.04.04 0 0 1 .03.04v.03l-.02.02c-.08.03-.12.1-.12.17 0 .05-.02.09-.06.12l-.21.13c-.2.14-.18.2.06.2l.14-.04a.17.17 0 0 1 .1 0c.04 0 .07.03.1.06.03.05.04.09.02.12-.02.04-.06.05-.1.03-.1-.03-.2-.02-.27.03-.03.03-.02.05.01.06l.24.07c.02 0 .04.01.05.03a.1.1 0 0 1 .03.04l.03.1c.02.06 0 .09-.07.1h-.18c-.03 0-.03 0-.01.03l.32.26c.05.04.06.08.04.14-.04.1-.02.2.05.29.06.07.05.13-.04.16-.26.08-.37.22-.33.42.02.06.05.07.1.03.04-.04.05-.1.03-.2-.01-.08 0-.1.07-.04.03.03.05.06.05.1a.07.07 0 0 0 .08.06l.17-.01c.08 0 .1.02.07.1l-.12.25a.17.17 0 0 0 0 .15c.07.22 0 .37-.25.42l-.03.02-.02.02v.03l.02.01h.1c.07-.03.1 0 .1.06s0 .12-.05.18c-.03.06-.02.1.05.1l.18.01c.02 0 .05.02.06.05l.01.04c0 .03-.01.04-.03.05a.35.35 0 0 0-.18.18.1.1 0 0 0 .03.13l.2.2v.05l-.02.04a.05.05 0 0 1-.06.03.05.05 0 0 1-.03-.05l-.01-.11c0-.06-.03-.1-.09-.11-.23-.06-.42.01-.58.21-.02.02-.02.04 0 .05l.03.03c.01.02.02.01.03 0a.33.33 0 0 1 .21-.14c.07-.01.12.01.14.07l.07.1c.06.04.05.08-.02.1l-.08.02c-.05.01-.07.05-.07.1.03.2-.15.32-.13.44l.02.05c.03.03.05.03.07 0l.03-.05c.03-.06.07-.07.13-.04l.49.29c.08.05.08.09 0 .11a.2.2 0 0 1-.07 0 .15.15 0 0 1-.12-.06.44.44 0 0 0-.37-.23c-.04 0-.08.02-.09.07l-.05.18a.1.1 0 0 1-.08.07c-.06.02-.14-.01-.21-.09-.04-.04-.06-.03-.07.03 0 .1-.02.17-.05.22-.04.05-.03.08.05.1.02 0 .03 0 .04.03a.05.05 0 0 1-.01.07.87.87 0 0 0-.22.23.11.11 0 0 0 .03.15c.14.1.22.19.24.26v.03l-.01.01a.04.04 0 0 1-.04 0c-.15-.06-.26-.07-.34-.02-.11.06-.2.15-.24.25-.05.1-.06.2-.03.27.01.02 0 .08-.03.17a.1.1 0 0 1-.1.08c-.29.04-.43.22-.44.53 0 .07-.01.12-.04.15-.03.02-.07.02-.13.02s-.07.02-.03.07c.04.06.05.11.02.16-.03.05-.06.04-.1 0a.33.33 0 0 0-.22-.16c-.07-.01-.08-.03 0-.07a.1.1 0 0 1 .06 0c.04 0 .07 0 .08-.05.08-.28.25-.54.53-.76a.1.1 0 0 0 .04-.12.1.1 0 0 0-.1-.07c-.12 0-.19.06-.2.17a.2.2 0 0 1-.06.12l-.6.6a.01.01 0 0 1-.02 0l-.1-.35c0-.01 0-.03.02-.04.12-.1.1-.23-.03-.38a.14.14 0 0 0-.12-.05h-.12c-.09 0-.1-.02-.03-.07a.17.17 0 0 1 .05-.02.1.1 0 0 0 .05-.03.1.1 0 0 0 .02-.05.37.37 0 0 1 .18-.3l.02-.02c.02-.04.01-.07-.02-.08a.05.05 0 0 0-.04 0 .92.92 0 0 0-.4.37.1.1 0 0 1-.16 0 .74.74 0 0 0-.4-.33.08.08 0 0 1-.04-.03.08.08 0 0 1 0-.04c0-.03 0-.05.02-.07.03-.04.03-.08-.01-.12a.38.38 0 0 1-.13-.3.1.1 0 0 1 .09-.1l.44-.03c.04 0 .07-.02.1-.06.04-.07.11-.1.22-.08l.08-.01a.11.11 0 0 0 .05-.07l.01-.05c.01-.04 0-.06-.03-.08a.23.23 0 0 0-.22.01l-.17.09a8.4 8.4 0 0 1-.73.18.35.35 0 0 0-.14.06c-.17.13-.3.12-.4-.02a.07.07 0 0 0-.05-.04.08.08 0 0 0-.06.02l-.1.1a.05.05 0 0 1-.06.01c-.01 0-.02 0-.02-.02v-.03c.04-.2.1-.28.15-.26.13.06.17.02.12-.12 0-.02-.05-.06-.13-.12-.05-.03-.09-.02-.1.04-.02.07-.1.13-.25.15-.07.01-.09-.01-.06-.07.03-.09.1-.14.2-.17.04-.01.04-.03.01-.06-.02-.02-.08 0-.16.04-.1.06-.21.1-.3.13-.05.02-.08 0-.1-.04l-.02-.08c-.02-.07-.06-.09-.12-.05l-.04.03c-.04.02-.07.01-.09-.02-.04-.05-.06-.1-.06-.13v-.02l-.01-.03a.06.06 0 0 0-.05-.01l-.26.02a.1.1 0 0 1-.1-.05.34.34 0 0 1-.04-.17.13.13 0 0 0-.07-.12 23 23 0 0 1-.75-.43c-.08-.04-.12-.13-.11-.29 0-.05-.02-.06-.07-.05-.19.07-.97.32-2.34.74-.39.12-.37.43-.63.64a.37.37 0 0 0-.1.11c-.14.3-.3.55-.48.77a.21.21 0 0 0-.05.13c0 .33-.22 1.25.4 1.26 1.36.02 2.16.01 2.4-.02.25-.02.62-.17 1.09-.44.03-.02.05-.02.07 0l.04.05c.02.02.02.04-.01.05-.37.15-.72.31-1.05.5-.5.25-.8-.03-1.24.04-.15.02-.39.02-.72-.02l-.1.01a.24.24 0 0 0-.1.04.14.14 0 0 0-.04.07.1.1 0 0 0 0 .07c.17.36.87.8 1.14.95.03.01.04.04.02.07a.13.13 0 0 1-.02.03.05.05 0 0 1-.04.01h-.01L18 28.6l-.03-.05a.16.16 0 0 0-.12-.07c-.45-.06-.98-.7-1.11-1a.15.15 0 0 0-.12-.1c-.5-.09-.65-.47-.63-.94.02-.32-.04-.57.2-.85.22-.26.26-.53.5-.8a.24.24 0 0 0 .06-.13c.04-.31.38-.37.63-.5Zm7.56-2.15-.12-.41c-.02-.07-.06-.08-.12-.06a.39.39 0 0 0-.13.14c-.05.07-.04.13.04.17l.3.18c.03.01.04 0 .03-.02Zm.83-.12v.14c0 .07.03.09.09.05l.16-.12c.04-.03.04-.06 0-.1a.75.75 0 0 0-.49-.21l-.02.01-.01.05c0 .03 0 .04.03.04.07-.01.12 0 .16.02.05.03.08.07.08.12Zm-.6.3c.01.03.03.03.05.03.05 0 .06-.02.03-.05a.07.07 0 0 0-.06-.03.03.03 0 0 0-.03.04v.02Zm-3.06 2.33-.02-.02a.25.25 0 0 0-.06 0 .75.75 0 0 0-.2 0 .98.98 0 0 0-.18.03c-.05.02-.08.03-.07.05l.02.02.06.01a.75.75 0 0 0 .2 0c.06 0 .13-.02.18-.04.05-.01.08-.03.07-.05Zm1.3 1.31c-.05.04-.04.06.02.06.02 0 .03 0 .04-.02.01-.02 0-.04-.02-.04h-.04Z" fill="#020202" /><path d="M32.07 19.97c0-.06.01-.1.02-.1.04-.05.08-.05.14-.02l.03.01c.04 0 .06 0 .09-.03.1-.14.1-.27.05-.4-.02-.04-.01-.08.03-.11a.57.57 0 0 0 .27-.44c0-.06-.02-.08-.08-.05-.06.02-.09.1-.08.23 0 .06-.02.09-.07.1a.18.18 0 0 1-.18-.06.85.85 0 0 0-.1-.1.16.16 0 0 0-.08-.03c-.02 0-.04 0-.05.02l-.13.16c-.03.04-.02.06.03.06h.22c.04 0 .06.02.07.06v.06a.1.1 0 0 1-.04.09c-.1.07-.21.06-.36-.03a.05.05 0 0 0-.05 0 .05.05 0 0 0-.03.05v.09a.1.1 0 0 1-.06.09c-.1.04-.2 0-.26-.1-.03-.06-.07-.06-.1 0a.4.4 0 0 0-.06.28c0 .03 0 .05-.04.07h-.04a.04.04 0 0 1-.03-.02c-.03-.07-.07-.1-.13-.09-.05.01-.07.04-.04.1l.04.05c.07.03.1.06.1.08.01.02.01.04 0 .07 0 .05-.03.05-.06.01-.06-.07-.12-.1-.19-.06a.12.12 0 0 1-.13-.02c-.07-.06-.14-.09-.2-.08-.06 0-.1.03-.12.1l-.03.12c-.02.05-.05.07-.1.05a.43.43 0 0 0-.23 0c-.07.02-.1 0-.08-.05v-.05c-.02-.03-.05-.04-.08-.03a.51.51 0 0 1-.36.04c-.05-.01-.08 0-.1.05-.01.03 0 .1.04.2.01.04 0 .06-.05.06-.15 0-.24-.09-.25-.27 0-.05-.03-.08-.08-.09-.12-.01-.17-.07-.16-.16a.1.1 0 0 0-.07-.1h-.1c-.04 0-.05.02-.02.06l.36.52c.02.03.02.06 0 .09a.19.19 0 0 1-.1.06c-.06.01-.09 0-.1-.06a.36.36 0 0 0-.12-.22.12.12 0 0 0-.1-.03c-.06.01-.09.04-.1.09 0 .05-.03.07-.07.07l-.2.02c-.07 0-.1-.03-.08-.09l.09-.3c.02-.06 0-.07-.04-.03a.36.36 0 0 1-.26.1c-.05 0-.1.02-.12.07l-.05.08c-.05.1-.08.09-.07-.02 0-.15.08-.25.21-.3.05-.03.07-.06.07-.11l-.02-.23c0-.04-.03-.07-.07-.07h-.05a.07.07 0 0 0-.08.08v.22c0 .04-.01.05-.05.04l-.22-.06c-.05-.02-.08-.05-.08-.1a.19.19 0 0 0-.1-.16.14.14 0 0 1-.08-.14v-.3c0-.04.02-.05.05-.04l.05.02c.02 0 .03.01.03.03.01.08.03.14.05.18.04.05.07.05.1 0a.43.43 0 0 0 .1-.24c0-.06-.03-.09-.08-.1a.5.5 0 0 1-.31-.2.1.1 0 0 1-.01-.1.46.46 0 0 1 .18-.2c.05-.02.06-.06.02-.1a.81.81 0 0 1-.12-.29.9.9 0 0 0-.47-.62.29.29 0 0 1-.1-.1c-.05-.1-.11-.18-.18-.25-.2-.2-.16-.28.11-.22.22.04.48.16.8.37a.14.14 0 0 0 .13 0c.07-.02.12-.1.14-.23 0-.06-.02-.13-.07-.2-.33-.5-.62-.86-.87-1.06-.15-.12-.14-.16.04-.13l.4.12c.04.01.1 0 .13-.02.1-.07.2-.04.27.1.02.05.06.07.11.07s.08-.01.1-.03c.04-.04.05-.08.02-.13-.12-.18-.08-.36.1-.54.04-.04.04-.07 0-.1a.95.95 0 0 1-.31-.71c0-.07.02-.08.08-.05l.31.18a.21.21 0 0 0 .27-.04.21.21 0 0 0 .04-.08l.07-.25c.02-.05.05-.1.1-.12.18-.08.22-.22.12-.43a.28.28 0 0 0-.1-.1c-.1-.08-.14-.16-.13-.26.01-.07.05-.08.1-.04.06.05.12.04.17 0a.34.34 0 0 1 .12-.09l.42-.13c.14-.05.2-.14.17-.27-.02-.07 0-.08.04-.02l.04.05c0 .02.03.03.05.03.3 0 .45-.12.48-.36 0-.05.03-.07.07-.04.13.07.37.07.72 0a.1.1 0 0 0 .08-.09c.04-.16.13-.25.28-.26.06 0 .1.02.13.07l.14.19c.03.05.08.07.14.08.21 0 .3-.12.27-.36 0-.06.02-.08.07-.07.14.04.24.05.32.02.05-.01.07-.05.06-.1l-.01-.23c-.02-.18.04-.21.17-.08l.13.05c.05.03.08 0 .1-.05 0-.04-.01-.08-.06-.12a1.13 1.13 0 0 0-.88-.26l.03-.06a.05.05 0 0 1 .05-.03c.83-.01 1.43 0 1.8.03.2.01.4.06.6.13.17.07.33.1.49.12.21.01.48 0 .68.1.24.12.46.2.64.24a3.86 3.86 0 0 1 1.57.85.07.07 0 0 1 0 .06l-.03.03c-.05.03-.1.04-.18.02a9.31 9.31 0 0 0-2.13-.38 2.9 2.9 0 0 0-.65.02c-.09.02-.1.05-.01.09.8.39 1.57.86 2.3 1.43.25.19.44.36.58.53.09.11.06.15-.07.1-.41-.11-.73-.41-1.13-.48-.3-.05-.62-.35-.91-.46-.7-.24-1.42-.4-2.16-.46-.18-.02-.4 0-.7.03-.27.03-.88 0-1.18.2a.93.93 0 0 1-.5.17c-.3 0-.61.28-.9.42a.24.24 0 0 0-.11.1c-.13.23-.28.4-.44.52a.23.23 0 0 0-.08.12 4 4 0 0 1-.7 1.35.23.23 0 0 0-.05.14c0 .37-.08.68-.23.9a.2.2 0 0 0-.03.15c.05.34.03.64-.08.92-.12.29-.07.55-.08.94 0 .05.02.09.06.1.14.08.28.21.42.4.03.05.07.08.12.1.15.07.28.15.37.25.03.04.07.06.12.06.3.01.62.14.88.05.4-.15.66-.27.78-.37.62-.55 1.27-1.4 2.38-1.56.28-.04.75 0 1.4.12.99.18 1.9.24 2.74.2.05 0 .1-.02.14-.04.15-.11.32-.1.51.04.38.26.7.47 1 .63.04.02.07.06.1.1.03.05.07.1.13.14l.6.3c.03.03.03.05-.02.05-.04 0-.08 0-.13-.02l-1.16-.52a1.62 1.62 0 0 1-.42-.26.84.84 0 0 0-.5-.22c-.8-.02-1.52-.07-2.14-.13-.05 0-.08.02-.09.08 0 .02 0 .04-.02.06 0 .02-.03.04-.07.05a.9.9 0 0 1-.54.08.09.09 0 0 1-.08-.07l-.01-.04a.1.1 0 0 0-.08-.07c-.4-.05-.63-.07-.69-.05-.43.11-.79.3-1.06.56-.16.15-.3.36-.4.63-.26.63-.44 1.2-.87 1.7-.12.15-.22.24-.3.25-.3.06-.34-.02-.14-.23.17-.18.35-.4.53-.67.08-.1.12-.2.12-.28a.1.1 0 0 1 .06-.11c.05-.03.07-.08.06-.16a.12.12 0 0 0-.1-.1l-.29-.08a.07.07 0 0 1-.02-.12l.1-.08c.08-.04.13-.03.18.03l.15.22c.02.02.02.02.02 0Zm-4.33-1.4v-.03a.06.06 0 0 0-.05-.04h-.03a.45.45 0 0 0-.11.04c-.18.1-.17.18.03.23.08.01.14-.05.16-.2ZM31.44 11.08c.06-.04.1-.04.14 0a.02.02 0 0 1 0 .02.02.02 0 0 1 0 .02c-.1.02-.15 0-.14-.04Z" fill="#020202" /><path d="M17.39 24.17a.41.41 0 0 1-.18 0c-.04 0-.06-.05-.07-.12-.23-5.75 3.2-11.18 8.96-12.48.12-.02.13 0 .02.07l-1.12.8a.13.13 0 0 0-.06.14c.03.12 0 .2-.1.24a.26.26 0 0 0-.13.09c-.2.25-.31.4-.36.41-4.05 1.97-6.28 5.98-6.18 10.45a.1.1 0 0 1-.04.08.11.11 0 0 1-.09.02c-.24-.04-.46.06-.65.3ZM37.61 18.08a.54.54 0 0 1-.4.1.13.13 0 0 1-.1-.07 10.48 10.48 0 0 0-5.05-4.85c-.05-.02-.05-.04 0-.05.6-.11 1.21-.13 1.82-.03.27.04.48.12.64.24a12.03 12.03 0 0 1 3.77 4.72c.04.08.02.1-.05.05-.09-.06-.25-.1-.49-.14-.05 0-.1 0-.14.03Z" fill="#CF6934" /><path d="M25.82 13.17c.02-.02.04-.03.05-.01h.01v.02a.06.06 0 0 1-.05 0h-.01a.01.01 0 0 1 0-.01ZM24.9 15.77c.08.09.07.13-.04.12a.7.7 0 0 1-.24-.1c-.05-.04-.06-.08-.01-.12.06-.06.15-.02.28.1ZM27.35 18.29l-.01.06a.03.03 0 0 1-.07 0c-.02-.04-.01-.08.01-.1a.04.04 0 0 1 .06.01v.03ZM26.76 18.67c.01.09 0 .14-.02.16a.06.06 0 0 1-.06.01.06.06 0 0 1-.04-.05c0-.1.01-.15.06-.16a.05.05 0 0 1 .04 0 .05.05 0 0 1 .02.04ZM27.2 18.96a.05.05 0 0 1-.03.05.05.05 0 0 1-.05 0 .13.13 0 0 1-.05-.13c.01-.05.03-.05.07-.03.03.03.05.06.06.1ZM26.8 19.02a.06.06 0 0 1 .04-.04.06.06 0 0 1 .06.02c.04.06.04.1 0 .15a.06.06 0 0 1-.05.02.06.06 0 0 1-.05-.05.17.17 0 0 1 0-.1ZM27.13 19.2v-.03H27.2v.06c0 .04-.01.05-.05.03-.01-.01-.02-.04-.01-.07ZM34.3 20.1c.02 0 .11-.06.27-.18a.18.18 0 0 1 .14-.03c.12.01.22-.05.29-.2l.04-.04a.16.16 0 0 1 .07-.03c.03 0 .06 0 .1.02.05.02.08.01.1-.04.1-.17.23-.24.41-.23.08 0 .13.04.14.11l-.01.06a.09.09 0 0 1-.05.04c-.21.06-.27.18-.18.36.01.03.02.06 0 .1l-.08.29c-.01.05 0 .08.06.08h.05a.07.07 0 0 1 .05.02c.03.03.03.06 0 .1a.03.03 0 0 0 .02.05h.02c.23-.08.34-.2.32-.38 0-.05.02-.1.06-.12l.64-.45c.04-.03.1-.04.15-.03.06.01.12 0 .16-.04a.21.21 0 0 1 .12-.07c.36-.05.69-.02 1 .1a.1.1 0 0 0 .09 0 .2.2 0 0 1 .03-.03.09.09 0 0 1 .1.01c.13.11.27.17.44.2.01 0 .02 0 .02.02s-.01.03-.03.03l-.74-.13c-1.68-.37-2.14 1.05-2.9 2.02a.16.16 0 0 0-.02.14c.02.07 0 .15-.07.23-.04.05-.04.1 0 .13.03.02.1.01.2-.03.04-.01.07 0 .1.03l.01.05c0 .04-.02.06-.06.07l-.3.06c-.08.01-.12.06-.13.14 0 .07.03.1.1.08l.13-.04c.08-.02.11 0 .1.09-.02.05-.05.08-.11.1-.02 0-.03.02-.02.04l.03.05c.15 0 .28.02.4.07a.06.06 0 0 1 .05.05V23.03l-.01.01h-.03c-.33-.08-.56.02-.7.3a.15.15 0 0 1-.1.08l-.28.09a.2.2 0 0 0-.14.14l-.04.13a.07.07 0 0 0 .1.08l.52-.3a.18.18 0 0 0 .09-.13l.04-.15c.02-.04.07-.06.16-.06.05 0 .1 0 .13.03a.06.06 0 0 1 .03.05.06.06 0 0 1-.03.05c-.3.2-.49.36-.57.48a.15.15 0 0 1-.11.07.87.87 0 0 0-.62.34c-.11.14-.09.17.06.07.18-.1.33-.18.43-.2.33-.1.63-.38.87-.62a.14.14 0 0 1 .16-.03l.04.04c.05.06.12.09.2.08.06-.01.08.01.06.06l-.07.27c-.02.04-.05.06-.1.05-.1-.02-.2 0-.32.1-.04.03-.05.02-.02-.03l.2-.34v-.01a.02.02 0 0 0-.02-.02h-.09l-.01.01c-.15.17-.2.24-.38.3-.23.07-.42.18-.55.32-.16.17-.13.21.09.13.1-.04.28-.13.53-.27.07-.04.09-.02.05.05a.4.4 0 0 1-.35.24.13.13 0 0 0-.1.07l-.03.05a.2.2 0 0 1-.12.1c-.36.1-.66.3-.9.58-.03.03-.03.05 0 .07l.04.02.07-.01a7.1 7.1 0 0 1 1.76-1.01c.07-.03.1 0 .07.06-.05.12-.15.18-.31.19-.06 0-.1.02-.13.06a.57.57 0 0 1-.23.18.04.04 0 0 0-.02.03.04.04 0 0 0 .01.03l.06.06c.02.02.04.02.06.02.24-.1.42-.2.53-.34.11-.15.18-.13.18.06 0 .05.05.09.15.1.05.01.07.04.05.08-.12.33-.29.29-.5.47-.05.04-.06.08-.02.14l.07.1c.04.05.03.1-.02.13a.6.6 0 0 0-.21.25.14.14 0 0 1-.1.09c-.15.02-.25.06-.3.1-.13.15-.1.22.1.19l.1-.02.1-.04c.18-.19.39-.33.63-.42a.16.16 0 0 0 .1-.1c.02-.08.05-.12.09-.13.04-.02.07-.02.09.01v.05c0 .01 0 .02-.02.03-.16.1-.23.26-.21.49a.2.2 0 0 1-.03.1c0 .02-.02.03-.05.04h-.03a.06.06 0 0 1-.05-.04v-.09c0-.06-.02-.09-.09-.08-.16.03-.3.1-.4.23a.1.1 0 0 0 .06.15l.94.18c.04.01.07 0 .1-.03.09-.07.16-.1.22-.1s.09.04.09.1v.06c-.01.05-.04.08-.1.08a3.5 3.5 0 0 1-1.24-.2c-.3-.1-.5-.02-.6.21-.03.05-.06.06-.1.03a.41.41 0 0 1-.12-.14c-.03-.06-.02-.1.05-.12l.16-.04.02-.02.02-.04c.03-.04.01-.06-.03-.06a.7.7 0 0 0-.34.08c-.04.02-.05.05-.03.09l.14.34v.08c-.03.14-.05.21-.07.22a.36.36 0 0 1-.34-.06.35.35 0 0 1-.13-.32c.03-.19.15-.38.36-.58.04-.04.03-.06-.01-.08a.52.52 0 0 1-.27-.2c-.04-.06-.06-.06-.08 0l-.02.15c-.01.05-.05.08-.1.06h-.07c-.09-.02-.1 0-.03.06.08.08.11.15.1.21-.03.08-.08.1-.15.05-.17-.1-.2-.21-.1-.32.02-.03.03-.06 0-.1l-.13-.16c-.05-.08-.04-.13.05-.16l.32-.09a.04.04 0 0 0 .03-.05l-.01-.02-.03-.01h-.1a.12.12 0 0 1-.11-.06c-.08-.13-.17-.2-.27-.22a.07.07 0 0 1-.05-.04.07.07 0 0 1 0-.07l.06-.1c.03-.05.06-.05.1-.02a.1.1 0 0 0 .04.03h.04l.02-.02a.06.06 0 0 0 .01-.05c0-.04-.03-.05-.07-.04a.18.18 0 0 1-.06.01c-.04 0-.06-.03-.04-.1a.56.56 0 0 1 .12-.2c.04-.05.03-.08-.03-.09-.08-.02-.2.08-.37.3h-.01a.03.03 0 0 1-.05-.02c-.03-.22-.14-.34-.33-.37-.11-.02-.13 0-.05.07l.09.04c.05.01.07.05.04.1a.1.1 0 0 1-.05.03c-.04.02-.06.01-.08-.03-.08-.16-.17-.2-.28-.11a.23.23 0 0 1-.2.04.05.05 0 0 1-.03-.02.05.05 0 0 1 0-.04v-.06c0-.03.03-.04.05-.04l.1.05c.05.03.08.03.11-.03.02-.03.02-.07-.01-.1a3.91 3.91 0 0 0-.25-.23l-.25.1c-.05.02-.08 0-.08-.06v-.11c.02-.04.06-.04.13 0 .15.07.28.08.4.04a.05.05 0 0 0 .04-.04.05.05 0 0 0-.02-.05l-.44-.26c-.06-.03-.11-.02-.16.02l-.32.33h-.09c-.03-.01-.04-.03-.02-.06.1-.15.16-.28.18-.39 0-.02.02-.04.03-.05a.09.09 0 0 1 .07-.02c.14.01.26-.02.35-.09a.17.17 0 0 0 .07-.11c.02-.12.08-.17.2-.15.04 0 .08-.01.12-.04.1-.12.26-.18.45-.2.01 0 .02 0 .03-.02l.03-.1c.01-.05 0-.06-.05-.05a2.55 2.55 0 0 0-1.04.62.07.07 0 0 1-.06 0l-.02-.03-.03-.05a.1.1 0 0 1 .02-.12l.06-.07c.05-.04.04-.06-.02-.05a.85.85 0 0 1-.45-.01.16.16 0 0 1-.1-.1c-.06-.14-.06-.3.03-.5.02-.06.07-.07.13-.04l.25.15c.05.03.05.05 0 .08-.07.02-.17 0-.3-.05-.04-.02-.06 0-.04.05.05.13.1.2.18.2.48.02.73-.47 1.31-.24.1.04.2.04.27.01l1.26-.52c.09-.03.22-.16.4-.39a.27.27 0 0 1 .11-.08c.29-.11.48-.3.58-.58v-.08a.1.1 0 0 0-.04-.03h-.04l-.85.86h-.01a.03.03 0 0 1-.03-.01l-.02-.04c0-.02 0-.03.02-.04a.39.39 0 0 0 .14-.22c.01-.04 0-.07-.05-.07h-.24a.1.1 0 0 1-.1-.06.1.1 0 0 1 0-.04v-.23c0-.06.02-.1.08-.12a.48.48 0 0 0 .29-.3c.03-.09.02-.1-.06-.03l-.52.48c-.01.02-.03.02-.04.02-.02 0-.03-.02-.01-.05l.16-.3a.1.1 0 0 0 0-.1.1.1 0 0 0-.08-.04h-.7c-.03 0-.06 0-.08-.02l-.1-.05a.13.13 0 0 0-.12-.01l-.19.07c-.2.04-.23-.03-.12-.2a.43.43 0 0 0 .1-.26c.03-.33.2-.5.52-.51l.17-.02c.11-.02.2.03.27.12.03.04.06.05.1.01l.14-.15.04-.01h.03l.04.04c.01.03.03.04.06.02.09-.07.18-.1.27-.08.06.01.07.04.04.1l-.14.24c-.03.04-.01.06.05.04ZM27.14 19.55c.02.03.04.05.06.04.01 0 .02-.04 0-.07 0-.03-.03-.05-.05-.04-.02 0-.02.03 0 .07Z" fill="#020202" /><path d="M32.08 36h4.81c.09 0 .11.03.11.12v.74c0 .04 0 .07-.02.1a.14.14 0 0 1-.1.04h-5.87c-.02 0-.01-.02-.01-.04V34.4c0-.05 0-.08.04-.1 6.22-1.73 8.59-8.44 6.77-14.5a.03.03 0 0 1 0-.03h.03l1.09.2c.03.01.04.03.05.06.92 3.87.37 7.4-1.66 10.58-1.34 2.12-2.77 3.64-5.25 4.58-.05.02-.07.05-.07.11v.6c0 .06.03.1.08.1Z" fill="#CF6934" /><path d="M39.16 19.83c.05 0 .12.02.2.07.04.02.04.03 0 .04-.05 0-.12-.01-.2-.06-.08-.03-.08-.05 0-.05ZM27.56 19.95c.02-.07.04-.07.08-.02a.05.05 0 0 1 0 .04.05.05 0 0 1-.03.04c-.05.02-.07 0-.05-.06ZM27.43 20.2c.07.02.1.05.12.07.03.06.01.09-.05.08-.03 0-.07-.04-.11-.1-.04-.07-.02-.08.04-.05ZM27.12 20.4h.02c.02 0 .03 0 .04.02v.06c0 .01-.02.02-.03.01a.07.07 0 0 1-.04-.02c-.02-.03-.02-.05.01-.06ZM27.02 20.7a.04.04 0 0 1 .06 0v.01c.03.03.02.06 0 .1a.04.04 0 0 1-.03 0 .04.04 0 0 1-.03 0c-.03-.04-.03-.08 0-.1ZM24.7 20.94l-.04-.16c-.02-.08 0-.1.04-.02.06.08.08.14.07.19-.02.09-.04.08-.06 0ZM28.4 21.12c-.07.08-.1.17-.06.2.04.03.13 0 .2-.09.07-.08.1-.17.06-.2-.04-.03-.12 0-.2.09ZM28.1 21.84c.03-.1.06-.18.1-.23a.06.06 0 0 1 .11.04c0 .1-.04.19-.13.24-.07.05-.1.03-.08-.05ZM27.84 21.78c.01.05 0 .09-.07.1-.22.05-.34.06-.35.02 0-.03.1-.09.3-.17.06-.02.1 0 .12.05ZM27.83 22.03v-.01l.01-.02h.02l.02.01.03.04c0 .04-.02.04-.05.02l-.03-.04ZM27.4 22.21c-.05.06-.06.14-.02.16.03.03.1 0 .15-.06.04-.07.05-.14.02-.17-.04-.02-.1 0-.15.07ZM28.07 22.25c-.03.04-.03.1 0 .13.04.03.1.02.13-.02.03-.05.04-.1 0-.13-.03-.03-.09-.02-.13.02Z" fill="#020202" /><path d="M25.16 22.74c.17-.07.29-.15.27-.18 0-.03-.15 0-.31.08-.16.07-.28.16-.27.18.01.03.15 0 .31-.08Z" fill="#CF6934" /><path d="M27.53 22.62c.05-.13.1-.13.17 0 .01.02 0 .05-.01.1a.06.06 0 0 1-.04.03.06.06 0 0 1-.05-.02c-.06-.04-.08-.08-.07-.1ZM30.84 23.14a.24.24 0 0 0-.2-.1c-.06 0-.08-.04-.05-.1.07-.18.18-.3.32-.35h.05c.05 0 .05 0 0 .02a.39.39 0 0 0-.14.09c-.03.03-.03.07 0 .11l.24.3c.07.08.05.15-.05.22a.09.09 0 0 1-.05.02l-.06-.01a.17.17 0 0 1-.05-.04.2.2 0 0 1-.03-.06l.02-.04c.02-.02.02-.04 0-.06ZM31.78 22.64c.07-.02.1-.02.13 0 .09.08.07.13-.06.13-.02 0-.04-.02-.08-.05a.05.05 0 0 1-.02-.04.05.05 0 0 1 .03-.04ZM28.07 22.7a.05.05 0 0 1 .05-.05.05.05 0 0 1 .05.03c.02.03.03.07.02.11a.1.1 0 0 1-.07.07c-.05.03-.08 0-.07-.06l.02-.1ZM27.22 22.77a.05.05 0 0 1 .02-.03.05.05 0 0 1 .05-.01c.04.01.07.04.07.07 0 .04 0 .07-.02.1-.03.02-.05.02-.08 0a.16.16 0 0 1-.04-.13ZM35.78 23.17c0-.03.01-.04.04-.02l.03.03-.02.04c-.02.02-.04 0-.05-.05ZM30.62 23.35c.07.06.15.08.18.04.04-.04.01-.12-.06-.18-.07-.06-.15-.08-.18-.04-.04.04-.01.12.06.18ZM27.88 23.4a.06.06 0 0 1 .01-.04.06.06 0 0 1 .04-.03c.07 0 .12.03.14.1a.08.08 0 0 1-.03.08.07.07 0 0 1-.08 0c-.04-.02-.06-.05-.08-.1ZM31.22 23.52c.03-.07.09-.07.17-.03l.02.03.01.04c0 .07-.06.09-.15.06a.07.07 0 0 1-.04-.04.08.08 0 0 1 0-.06ZM30.91 23.5c.02 0 .04 0 .06.03a.04.04 0 0 1 0 .04v.01c-.04.02-.06.01-.08-.03 0-.02 0-.04.02-.05ZM30.5 23.7c.05.05.1.07.12.05.02-.02-.01-.08-.06-.12-.05-.04-.1-.06-.13-.04-.01.01.01.07.07.11ZM27.56 23.65a.03.03 0 0 1 .04-.02c.03.03.03.05 0 .07l-.03-.01v-.04ZM19.7 23.9c.07.07.12.12.13.17.03.12 0 .15-.1.09-.09-.06-.14-.16-.16-.33-.01-.05 0-.06.04-.02l.09.09ZM31.12 23.77c.01-.02.04-.01.09 0 .03.02.04.05.03.08-.02.05-.04.07-.07.07-.11 0-.13-.06-.05-.15ZM27.57 24.18c0 .07.04.13.06.13.03 0 .04-.07.03-.15-.01-.07-.04-.13-.07-.12-.02 0-.03.06-.02.14ZM30.95 24.13v-.01l.02-.01H31l.03.09a.04.04 0 0 1-.03.03h-.03c-.03-.03-.04-.06-.02-.1ZM28.4 24.37c-.05-.06-.07-.1-.07-.13.01-.08.04-.1.1-.05.03.03.04.08.02.17 0 .04-.02.04-.05.01ZM31.57 24.36a.4.4 0 0 1 .1 0c.03 0 .04.01.01.04l-.08.08a.05.05 0 0 1-.05.01.05.05 0 0 1-.03-.04l.01-.06.04-.03ZM20.54 24.39c.07 0 .09.02.05.08a.26.26 0 0 1-.07.08c-.06.04-.09.01-.08-.07 0-.06.03-.1.1-.1ZM27.27 24.52a.07.07 0 1 0 0-.14.07.07 0 0 0 0 .14ZM27.8 24.46c-.01-.1.01-.12.07-.04.02.02.02.04 0 .06 0 .02-.02.02-.04 0-.02 0-.03 0-.03-.02ZM28.5 24.52c.06.04.1.08.1.11a.04.04 0 0 1-.02.04l-.03.01h-.02a.17.17 0 0 1-.08-.12c-.01-.05 0-.06.05-.04ZM29.76 24.53c.03-.02.06-.01.08.02v.03a.04.04 0 0 1-.02.03h-.06a.05.05 0 0 1-.03-.04.05.05 0 0 1 .03-.04ZM31.78 24.68c.03-.03.06-.04.09-.04.06 0 .08.04.06.1 0 .03-.02.04-.04.06a.06.06 0 0 1-.07 0l-.02-.02-.02-.03c-.02-.02-.01-.05 0-.07ZM30.18 24.82h.01a.02.02 0 0 1 .02 0c.02 0 .02.02 0 .04h-.02c-.01 0-.02-.01-.01-.04ZM28.84 25.05c.05 0 .1-.04.1-.08s-.05-.07-.1-.07c-.06 0-.1.04-.1.08s.04.07.1.07ZM32.36 24.96a.07.07 0 0 1 .07-.06c.05 0 .09.02.12.08a.1.1 0 0 1 0 .1.1.1 0 0 1-.1.04c-.07-.02-.1-.08-.1-.16ZM27.67 24.99c.04-.04.07-.04.1-.02l.02.03v.04c-.03.03-.06.05-.1.04a.06.06 0 0 1-.03-.04.05.05 0 0 1 .01-.05ZM28.34 25.29a.58.58 0 0 1-.24-.15.1.1 0 0 1 0-.1.09.09 0 0 1 .09-.05l.14.03c.05.01.08.05.09.1 0 .06 0 .12-.04.16l-.02.01h-.02ZM31.98 25.09c.04-.05.1-.06.15-.03.04.02.05.05.02.1-.03.03-.07.04-.14.02l-.03-.01a.06.06 0 0 1-.01-.06v-.02ZM32.88 25.14c.02-.03.04-.04.06-.01v.05c0 .01-.02.02-.04.01a.03.03 0 0 1-.03-.02v-.03ZM31.05 25.3c.08-.06.13-.14.11-.17-.02-.03-.1 0-.2.07-.08.07-.13.15-.1.18.01.02.1 0 .19-.08ZM26.71 25.27l.17-.05c.08-.03.1 0 .03.05-.08.07-.14.1-.2.06l-.02-.02v-.03l.02-.01ZM35.92 25.25c.03-.02.06-.02.09 0 .02.03.03.06 0 .08a.06.06 0 0 1-.06.02l-.02-.01c-.04-.04-.04-.06 0-.09ZM31.5 25.32a.08.08 0 0 1 .15-.07c.04.05.05.1.02.15a.07.07 0 0 1-.11.01.2.2 0 0 1-.05-.1ZM27.32 25.32l.04-.02h.05c.06.04.07.08.02.13a.06.06 0 0 1-.07 0c-.06-.03-.07-.07-.04-.1ZM21.6 25.33c.04-.02.07-.02.12 0a.06.06 0 0 1 .03.07l-.02.02c-.03.03-.07.03-.12 0a.05.05 0 0 1-.02-.05.05.05 0 0 1 .02-.04ZM32.85 25.63c.08.1.17.19.28.26.03.01.04.04.02.07l-.02.04a.04.04 0 0 1-.03.02.04.04 0 0 1-.03 0 .89.89 0 0 1-.35-.63c-.01-.07.01-.08.07-.05l.42.24c.02.02.03.03.01.05l-.02.05c-.02.02-.03.02-.05 0a.34.34 0 0 0-.25-.13c-.07 0-.08.03-.05.08ZM29.08 25.38l.05-.02a.04.04 0 0 1 .05.02v.05c-.04.04-.08.04-.11 0l-.01-.01v-.02a.03.03 0 0 1 .02-.02ZM29.88 25.44a.07.07 0 0 1 .06-.05.06.06 0 0 1 .06.04c.02.03.02.06.01.1a.06.06 0 0 1-.1 0c-.03-.03-.04-.06-.03-.1ZM28.51 25.54c.04-.03.07-.03.08.03 0 .04 0 .05-.05.05-.06-.02-.07-.04-.03-.08ZM32.35 25.54c.06-.04.1-.03.1.03v.03l-.03.02c-.03.02-.06.01-.08-.01a.05.05 0 0 1-.01-.04v-.02l.02-.01ZM16.76 25.98l-.09-.02a.07.07 0 0 1-.04-.04.07.07 0 0 1 0-.06l.16-.27c.04-.06.09-.07.15-.04l.28.16c.05.03.06.07.03.12-.16.29-.3.48-.42.57-.2.15-.25.1-.16-.13a.65.65 0 0 1 .14-.18c.1-.1.08-.14-.05-.11ZM27.13 25.58c.04-.05.06-.04.07.02 0 .02-.01.04-.03.05-.02.02-.04.02-.05 0-.01-.02-.01-.04 0-.07ZM27.58 25.61l.17.04c.07.03.07.06 0 .08l-.14.04h-.05a.06.06 0 0 1-.02-.05v-.06c0-.04.01-.05.04-.05ZM28 25.63h.04l.03.04c.01.04 0 .07-.03.1a.07.07 0 0 1-.06 0 .07.07 0 0 1-.05-.04c-.02-.05 0-.09.08-.1ZM31.15 25.7c.03-.03.05-.03.06 0v.02l-.01.01a.13.13 0 0 1-.05.01c-.04 0-.04-.02 0-.04ZM31.49 25.7l.04-.02c.1.06.09.1-.02.1-.01 0-.02 0-.04-.03s-.01-.05.02-.06ZM27.16 25.9c.02-.03.06-.04.11-.02a.06.06 0 0 1 .04.04.06.06 0 0 1-.01.05c-.03.03-.07.03-.12 0a.05.05 0 0 1-.02-.07ZM28.82 25.9a.04.04 0 0 1 .03-.02.04.04 0 0 1 .04 0c.06.05.08.1.05.16-.02.04-.05.05-.08.02-.04-.04-.05-.1-.04-.15ZM29.4 25.93c.02-.03.05-.04.08-.02s.04.04.02.06a.07.07 0 0 1-.06.03h-.02l-.02-.02v-.05ZM30.21 25.93l.02-.02a.04.04 0 0 1 .03 0h.02c.02.04.02.08 0 .13a.04.04 0 0 1-.04.02.04.04 0 0 1-.03-.02c-.02-.02-.02-.06 0-.11ZM26.65 26.2a.49.49 0 0 1 .1-.16c.03-.02.05-.03.08 0l.03.02c.01.03 0 .05-.01.07-.06.07-.12.1-.18.1h-.01a.02.02 0 0 1-.01-.03ZM27.75 26.14a.07.07 0 1 0 0-.14.07.07 0 0 0 0 .14ZM28.12 26.06a.07.07 0 0 1 .06-.02c.01 0 .02 0 .03.02l.02.03v.13a.08.08 0 0 1-.06.07.08.08 0 0 1-.08-.04c-.05-.06-.04-.13.03-.2ZM36.11 26.36a.05.05 0 0 1 .04-.04h.02l.03.02c.02.04.02.07 0 .1-.03.02-.05.03-.08 0-.01-.01-.02-.04-.01-.08ZM29.21 26.38l.01-.01a.03.03 0 0 1 .03 0l.01.01a.1.1 0 0 1 0 .08v.02h-.02a.04.04 0 0 1-.04 0c-.01-.03 0-.06.01-.1ZM33.1 26.48c0 .05.06.09.1.08.04-.02.07-.07.05-.12-.01-.05-.06-.09-.1-.08-.05.02-.07.07-.05.12ZM27 26.46c0-.07.02-.07.05 0v.02h-.04v-.02ZM26.07 26.57c-.02 0-.04.05-.06.12a.06.06 0 0 1-.06.04.06.06 0 0 1-.05-.03c-.02-.02-.02-.04 0-.07l.05-.03a.76.76 0 0 0 .1-.05.6.6 0 0 0 .1-.08l.05-.03c.03 0 .05 0 .07.02a.06.06 0 0 1 0 .07.06.06 0 0 1-.06.03h-.14ZM30.45 26.46c.05-.03.1-.05.16-.05.02 0 .04 0 .04.03a.1.1 0 0 1 0 .05c0 .02-.02.04-.05.05-.05 0-.1 0-.14-.02l-.02-.01a.04.04 0 0 1 0-.04l.01-.01ZM28.37 26.72c.05.02.1 0 .13-.04.01-.05-.01-.1-.07-.12-.05-.02-.1 0-.12.04-.02.05 0 .1.06.12ZM33.69 26.67c.01.06.02.1.01.11-.04.11-.08.12-.12 0-.03-.05-.01-.1.03-.13s.06-.02.08.02ZM26.66 26.8c0-.04.03-.06.07-.06h.03a.06.06 0 0 1 .03.05v.03c-.02.03-.05.05-.08.05a.05.05 0 0 1-.04-.01.05.05 0 0 1-.01-.05ZM35 26.8a.1.1 0 0 1 .08-.02.09.09 0 0 1 .06.04c.05.1.02.16-.09.22a.09.09 0 0 1-.12-.04v-.05c0-.07.03-.13.08-.16ZM27.14 26.82c.03-.04.07-.05.11-.03a.05.05 0 0 1 .03.03v.05c-.03.03-.07.04-.11.02-.04-.01-.05-.03-.03-.07ZM27.99 27.05a.1.1 0 0 0 .1-.1.1.1 0 0 0-.1-.1.1.1 0 0 0-.1.1c0 .06.04.1.1.1ZM35.39 26.88a.07.07 0 0 1 .1-.02c.03.03.05.05.05.07 0 .15-.06.18-.18.08-.03-.03-.02-.08.03-.13ZM30.23 26.94c.05-.1.1-.1.13.01 0 .03 0 .06-.04.1a.06.06 0 0 1-.05 0 .06.06 0 0 1-.04-.03v-.08ZM25.85 27.04a.43.43 0 0 0 .07-.08c.02-.04.04-.06.06-.06h.05c.04.03.04.05.01.08a.65.65 0 0 0-.16.22.1.1 0 0 1-.1.07l-.25.01c-.16.02-.18-.04-.06-.15.02-.02.1-.04.26-.04.04 0 .09-.01.12-.05ZM35.91 26.96c.05.09.06.14.04.17a.12.12 0 0 1-.05.03h-.06a.1.1 0 0 1-.05-.03.1.1 0 0 1-.02-.05c-.01-.05 0-.1.06-.14.03-.02.06-.02.08.02ZM28.57 27.05a.06.06 0 0 1 .04-.05h.03l.03.02c.03.03.04.06.02.1-.02.04-.04.05-.08.03-.04-.02-.05-.05-.04-.1ZM35.95 27.83c-.06-.01-.1.01-.1.07l-.02.05c-.02.06 0 .1.07.12l.52.15c.02 0 .02.02.01.03l-.03.03h-.01l-.93-.24a.22.22 0 0 1-.11-.07.37.37 0 0 1-.1-.3v-.05a.1.1 0 0 0-.05-.05l-.07-.04c-.05-.03-.05-.05.01-.05a.8.8 0 0 0 .2-.02c.18-.06.18-.1-.01-.14a.74.74 0 0 0-.32.02c-.04.02-.05.04-.03.08l.04.04c.02.02.02.04 0 .07-.07.1-.07.23.02.38.03.05.02.06-.03.05a.46.46 0 0 1-.24-.18c-.04-.05-.03-.1.01-.15l.08-.08c.04-.04.04-.07 0-.1l-.16-.17a.1.1 0 0 1-.03-.07.1.1 0 0 1 .03-.07c.04-.05.1-.05.14-.02.13.1.28.13.47.1.05 0 .1.01.13.04.09.06.18.1.29.1.05 0 .08.04.09.1l.02.14c.01.05.04.09.09.1l.54.16a.08.08 0 0 0 .08-.02l.04-.04h.02v.02a.11.11 0 0 0-.02.06c0 .05-.04.07-.09.06l-.55-.1Zm-.49-.18c-.08.12-.06.2.06.26a.1.1 0 0 0 .13-.04c.06-.1.03-.18-.1-.24h-.05a.07.07 0 0 0-.04.02ZM27.31 27.2c.09 0 .15.02.19.03 0 0 .02 0 .02.02v.03a.05.05 0 0 1-.03.04c-.1.01-.16 0-.2-.06l-.01-.02a.03.03 0 0 1 .01-.03h.02ZM26.65 27.4c.07-.03.1-.09.09-.12-.02-.04-.09-.04-.15 0-.07.03-.11.09-.1.12.02.03.1.03.16 0ZM33.93 27.43a.06.06 0 1 0 0-.12.06.06 0 0 0 0 .12ZM30.52 27.41c.05-.07.08-.07.1.02 0 .01 0 .02-.03.03a.07.07 0 0 1-.04.01c-.04 0-.05-.03-.03-.06ZM28.19 27.42l.02-.03h.03c.06-.01.08.01.06.07 0 .02-.02.03-.03.04a.06.06 0 0 1-.03.01c-.06 0-.08-.03-.05-.1ZM34.55 27.65c-.06.07-.13.09-.21.05-.05-.03-.06-.06-.02-.1a3.9 3.9 0 0 0 .13-.16c.03-.04.06-.04.1 0 .05.07.05.14 0 .21Z" fill="#020202" /><path d="M36.17 27.5c.09-.05.19-.03.3.06.05.04.04.05-.01.06-.1 0-.26 0-.46-.03-.1-.02-.1-.03-.01-.06h.09c.03 0 .07 0 .1-.02ZM25.68 27.66a.5.5 0 0 1 0-.04v-.04a.1.1 0 0 1 .09-.03c.03 0 .06.02.06.06.01.1.02.15.01.17-.04.13-.1.14-.16.02v-.14ZM29.12 27.71c.03.05.09.07.13.04.04-.03.05-.09.02-.14-.03-.04-.09-.06-.13-.03-.04.03-.05.09-.02.13ZM36.6 27.62c.02-.04.05-.05.09-.04a.05.05 0 0 1 .03.02v.05c-.01.03-.03.05-.04.05h-.03a.06.06 0 0 1-.03-.02l-.02-.03v-.03ZM25.4 27.94a.01.01 0 0 0 0-.01h-.01l-.04.01c-.03.01-.04.03-.03.05v.2c-.02.05-.05.07-.1.05a.6.6 0 0 0-.3-.02.06.06 0 0 1-.04-.02l-.01-.02v-.07c0-.02 0-.03.02-.04l.2-.06c.05-.01.08-.05.08-.1 0-.1.03-.18.1-.23.04-.03.09-.04.13-.03.04.02.06.06.05.1v.1c0 .02.01.04.03.05.1.08.15.13.14.17-.02.2-.08.22-.18.03l-.03-.16ZM26.7 27.79a.01.01 0 0 1 0-.01h.01v.03c0 .03-.02.03-.02 0v-.02ZM22.32 28.6a.37.37 0 0 0-.27.08c-.04.02-.08.02-.1-.03a.79.79 0 0 0-.37-.34c-.04-.02-.07 0-.1.03l-.01.04c-.03.05-.06.05-.1 0-.15-.23-.38-.31-.68-.24-.05.02-.1 0-.14-.02l-.12-.07a.16.16 0 0 0-.16 0 .8.8 0 0 1-.45.08c-.05 0-.1.01-.14.04-.27.17-.5.26-.72.26a.16.16 0 0 0-.13.05c-.11.13-.24.16-.39.1-.15-.07-.14-.12.03-.15.01 0 .04 0 .07.03.04.02.09.02.13 0 .44-.17.88-.34 1.33-.49.57-.2 1.58.2 2.3.47.17.06.4.04.58.08.06.02.07.05.05.1l-.17.37H22.67a.03.03 0 0 1 0-.03.25.25 0 0 0 .05-.2c-.01-.05-.04-.1-.09-.12l-.07-.04c-.06-.04-.09-.02-.09.05v.16c0 .04-.01.06-.05.06l-.04-.02-.01-.04v-.1c.02-.06 0-.1-.05-.1ZM24.25 28.08c0-.05.02-.07.06-.06a.05.05 0 0 1 .03.06c0 .04-.02.05-.05.05l-.03-.02-.01-.03ZM35.77 28.45a.24.24 0 0 1-.17 0 .11.11 0 0 1-.07-.1.11.11 0 0 1 .07-.1c.1-.05.19-.02.26.09.03.04.07.06.12.05.14 0 .23.04.26.15.02.05 0 .07-.06.06a.67.67 0 0 1-.27-.12.15.15 0 0 0-.14-.03ZM25.8 28.33c0-.02.02-.04.04-.06a.08.08 0 0 1 .06-.01c.08.01.1.05.03.12a.08.08 0 0 1-.06.02c-.05 0-.07-.03-.07-.07ZM23.86 28.74l-.22.16a.04.04 0 0 1-.05 0c-.14-.15-.27-.16-.39-.05a.04.04 0 0 1-.05 0 .04.04 0 0 1-.02-.05l.02-.14c.01-.04.04-.06.08-.07l1.2-.09c.06 0 .1-.02.15-.05.15-.11.35-.14.6-.09a.1.1 0 0 1 .07.08 1 1 0 0 1-.02.56c-.02.05-.01.1 0 .14l.08.1c.05.04.05.08 0 .12l-.16.1c-.04.03-.05.06-.02.1l.04.05c0 .02.02.02.03.03h.04c.11-.06.18-.16.21-.3.01-.04.04-.06.07-.05l.04.02a.11.11 0 0 1 .08.07.12.12 0 0 1-.01.1.24.24 0 0 1-.08.07.19.19 0 0 0-.07.12.26.26 0 0 1-.16.18c-.04.03-.06.06-.05.11.02.13.05.25.1.34.02.04.02.09.01.13l-.1.32c0 .03-.01.04-.04.03h-.05c-.03-.01-.05-.04-.04-.07l.07-.2c.02-.04.02-.07.02-.1a.07.07 0 0 0-.03-.03c-.03-.03-.05-.03-.08 0a.88.88 0 0 0-.21.27c-.03.05-.07.07-.12.06h-.05a.06.06 0 0 1-.05-.05v-.06l.32-.51c.02-.03.01-.06-.02-.08l-.05-.01-.04.01a.06.06 0 0 0-.02.04c-.02.12-.14.16-.33.1-.06-.03-.08-.06-.04-.12l.35-.62a.1.1 0 0 0 0-.1.1.1 0 0 0-.08-.04c-.14 0-.24.06-.3.2-.03.05-.02.1.02.13.06.04.08.09.06.14a.07.07 0 0 1-.04.04.06.06 0 0 1-.05 0 .3.3 0 0 0-.2-.04c-.07 0-.09-.02-.04-.08.1-.15.18-.3.22-.47v-.1a.2.2 0 0 0-.03-.08.16.16 0 0 0-.08-.05.15.15 0 0 0-.09 0c-.05.01-.14-.05-.26-.2a.11.11 0 0 0-.07-.04.1.1 0 0 0-.07.02Zm.26.02a.2.2 0 0 0 .1.05.04.04 0 0 0 .04-.02v-.05c-.02-.02-.06-.03-.13-.03a.03.03 0 0 0-.02.02.03.03 0 0 0 0 .03ZM25.46 28.43c.08.03.15.07.2.14.04.05.03.08-.04.08-.1 0-.17-.06-.22-.17-.02-.06 0-.08.06-.05Z" fill="#020202" /><path d="M18.24 28.82h.13c.36.14.53-.2.92-.12.05 0 .08.03.1.08 1.46 2.88 3.52 4.74 6.55 5.58.05 0 .06.04.06.08V37l-.03.01h-6.9c-.04 0-.07-.02-.07-.05v-.9c0-.03.02-.05.05-.05h5.86c.06 0 .09-.02.09-.08v-.57c0-.06-.02-.09-.07-.1-3.16-1.15-5.28-3.29-6.69-6.43Z" fill="#CF6934" /><path d="M26.47 28.57c.08-.02.13-.03.16-.02.06.03.06.06-.01.09-.08.03-.13.04-.15.02-.06-.03-.06-.06 0-.09ZM34.42 28.6l.02-.01h.02l.01.01.01.02c0 .03 0 .06-.03.08a.04.04 0 0 1-.04 0h-.02v-.02c-.02-.03 0-.06.03-.08ZM27.17 28.71c.02-.1.06-.1.11-.03.02.03.01.07-.01.11a.05.05 0 0 1-.05.03.05.05 0 0 1-.04-.03c-.01-.03-.02-.06-.01-.08ZM25.43 28.86c.03-.04.07-.05.11-.02a.07.07 0 0 1 .04.05c0 .1-.04.12-.13.05a.07.07 0 0 1-.03-.04v-.04ZM26.6 29.06a.08.08 0 0 1 .1-.04l.03.02c.02.03.04.07.04.12l-.01.03a.07.07 0 0 1-.07.04h-.03c-.07-.05-.1-.1-.06-.17ZM25.7 29.12c.06-.02.1-.01.12 0l.01.02a.05.05 0 0 1 0 .06c-.06.03-.1.03-.14 0l-.01-.03a.05.05 0 0 1 .03-.05ZM27.53 29.16a.06.06 0 0 1 .05-.02.05.05 0 0 1 .05.03c.02.07.02.12 0 .15a.06.06 0 0 1-.11 0 .16.16 0 0 1 0-.16ZM35.45 29.24a.07.07 0 0 1 .12.01v.12a.05.05 0 0 1-.09.03c-.06-.05-.07-.1-.03-.16ZM26.29 29.46c-.11-.03-.16-.08-.14-.14a.09.09 0 0 1 .1-.07.1.1 0 0 1 .04.02c.07.04.1.1.07.15-.02.03-.04.05-.07.04ZM25.97 29.52a.06.06 0 1 0 0-.12.06.06 0 0 0 0 .12ZM26.85 29.62c.08-.15.16-.14.22.03 0 .02 0 .06-.02.11a.08.08 0 0 1-.1.04.08.08 0 0 1-.03-.02c-.06-.08-.08-.13-.07-.16ZM25.61 29.78a.07.07 0 0 1 .09-.04c.01 0 .02 0 .03.02.03.04.03.08 0 .12a.06.06 0 0 1-.09 0c-.03-.03-.03-.06-.03-.1ZM27.97 29.88a.07.07 0 1 0 0-.14.07.07 0 0 0 0 .14ZM25.64 30.65c-.05.15-.14.27-.18.44a.04.04 0 0 1-.03.03.04.04 0 0 1-.04-.01c-.04-.05-.05-.1-.03-.14.1-.16.15-.28.17-.35.03-.08.06-.21.08-.4.01-.04.05-.08.1-.08h.03l.02.01a.04.04 0 0 1 0 .04c-.07.16-.07.3-.12.46ZM26.85 30.4c.01-.05.04-.06.08-.05.02.01.03.04.02.08a.05.05 0 0 1-.06.04h-.02c-.02-.02-.03-.05-.02-.08ZM25.02 31.12l.01-.02a.04.04 0 0 1 .05 0l.02.02c.02.04.02.08 0 .12h-.01l-.01.01h-.02c-.04-.05-.06-.09-.04-.13ZM25.1 31.55a.06.06 0 0 1 0-.05.06.06 0 0 1 .03-.03c.05-.02.1 0 .13.06a.05.05 0 0 1-.02.06l-.02.01c-.06.01-.1 0-.12-.05ZM25.26 31.84c.02-.03.05-.04.09-.03l.02.01a.05.05 0 0 1 0 .07c-.02.03-.05.03-.09.01a.05.05 0 0 1-.02-.04v-.02ZM25.82 38.3a.38.38 0 0 0-.2.03.3.3 0 0 0-.15.12c-.26.5-.37 1.42-.07 2 .15.3.59.27.8.06.2-.18.31-.29.36-.31.05-.03.07-.02.07.02v.85c0 .04-.02.08-.06.1-.92.71-1.79.17-2.02-.68-.28-1.07-.27-3.64 2-2.84l.06.05a.1.1 0 0 1 .02.06v.86l-.03.02h-.07c-.25-.2-.49-.3-.71-.34Z" fill="#020202" /><path d="M23.32 38.33a.38.38 0 0 1 .2-.03c.23.04.47.15.72.34h.06c.02 0 .02 0 .03-.02l.01-.02v-.84a.1.1 0 0 0-.02-.07.14.14 0 0 0-.07-.04c-2.27-.8-2.27 1.77-1.99 2.84.23.85 1.1 1.4 2.02.69a.14.14 0 0 0 .06-.11v-.84c0-.05-.02-.06-.07-.03a2.6 2.6 0 0 0-.35.3c-.22.22-.66.26-.81-.05-.3-.58-.2-1.5.07-2a.3.3 0 0 1 .14-.12Zm-3.52 0h1.04c.06 0 .08.02.06.07-.18.38-.58 1.15-1.19 2.3-.05.1-.05.34-.02.73 0 .05.03.07.08.07h2.18c.02 0 .04 0 .06-.02a.06.06 0 0 0 .02-.05v-.65c0-.02-.01-.03-.03-.05a.09.09 0 0 0-.05-.02H20.8l-.02-.02a.04.04 0 0 1 0-.04c.4-.82.81-1.63 1.22-2.43.03-.07.04-.29 0-.66 0-.04-.02-.06-.07-.06h-2.12c-.05 0-.07.02-.07.05v.73c0 .02 0 .03.02.03l.03.02Zm9.8 1.61-.44 1.27c-.02.04-.05.06-.1.06h-.65c-.06 0-.1-.03-.11-.08l-.41-1.23c-.06-.17-.09-.17-.09.01v1.48c0 .03-.02.05-.06.05h-.67c-.05 0-.07-.02-.07-.06v-3.86c0-.05.03-.08.1-.08h.87c.04 0 .07.02.08.06l.69 2.05c.03.11.07.11.1 0l.69-2.05c.01-.04.05-.06.1-.06h.82c.06 0 .08.02.08.07v3.88l-.01.03a.07.07 0 0 1-.05.02h-.77l-.03-.01a.04.04 0 0 1-.02-.04v-1.5c0-.11-.02-.11-.05 0Zm6.57-.91a6.74 6.74 0 0 1-.55 0c-.07 0-.1-.04-.1-.09l.01-1.3c0-.09-.05-.14-.16-.14h-.48c-.08 0-.13.04-.13.12l-.02 3.8c0 .05.02.07.08.07h.6a.1.1 0 0 0 .05-.01.07.07 0 0 0 .03-.06l.01-1.55c0-.02 0-.04.02-.05a30.1 30.1 0 0 1 .72 0c.02.01.02.03.02.05v1.56l.01.02.02.03.03.01a.1.1 0 0 0 .03.01h.6c.05 0 .08-.02.08-.07v-3.8c0-.09-.05-.12-.13-.12h-.48c-.1 0-.16.04-.16.14v1.3c0 .05-.03.07-.1.08Zm-2.23-1.53h-.58a.06.06 0 0 0-.06.06v3.88c0 .03.03.06.06.06h.58c.03 0 .06-.03.06-.06v-3.88a.06.06 0 0 0-.06-.06Zm-2.88 1.9h1.88c.03 0 .06.02.06.05v.5c0 .03-.03.05-.06.05h-1.88c-.03 0-.06-.02-.06-.05v-.5c0-.03.03-.05.06-.05Z" fill="#020202" /><path d="M28 45h1.94c.06 0 .06-.1.06-.14v-2.78c0-.05.05-.08.1-.08h6.85c.03 0 .05.02.05.05v.94c0 .04-.02.01-.06.01H31.1c-.05 0-.08.07-.08.12v2.79c0 .06-.03.09-.1.09H25.1c-.06 0-.1-.03-.1-.1v-2.78c0-.05-.02-.12-.07-.12h-5.87c-.04 0-.06.03-.06 0v-.95c0-.03.02-.05.05-.05h6.87c.05 0 .08.03.08.08v2.77c0 .06.03.15.08.15H28Z" fill="#CF6934" /></svg>