<?xml version='1.0' encoding='utf-8'?>
<!-- by TradeStack -->
<svg width="56" height="56" viewBox="0 0 56 56" xmlns="http://www.w3.org/2000/svg"><path fill="url(#astpwyzbf)" d="M0 0h56v56H0z" /><path d="M11.1 15.8a.72.72 0 0 0 .74-.8h.97a.72.72 0 0 0 .73.8.72.72 0 0 0 .73-.8h.96a.72.72 0 0 0 .73.8.72.72 0 0 0 .73-.8h.97v.09c0 .39.32.7.73.7a.72.72 0 0 0 .73-.79h.97v.09c0 .39.32.7.73.7a.72.72 0 0 0 .73-.79h.97a.72.72 0 0 0 .73.8.72.72 0 0 0 .72-.8h.97a.72.72 0 0 0 .73.8.72.72 0 0 0 .73-.8h.97a.72.72 0 0 0 .73.8.72.72 0 0 0 .73-.8h.97a.72.72 0 0 0 .73.8.72.72 0 0 0 .73-.8h.96a.72.72 0 0 0 .73.8.72.72 0 0 0 .73-.8h.97a.72.72 0 0 0 .73.8.72.72 0 0 0 .73-.8h.97v.09c0 .39.32.7.73.7a.72.72 0 0 0 .73-.79h.97a.72.72 0 0 0 .73.8.72.72 0 0 0 .73-.8h.96a.72.72 0 0 0 .73.8.72.72 0 0 0 .73-.8h.88c0 .4.32.71.73.71v.94c-.4 0-.73.32-.73.71 0 .4.32.71.73.71v.94c-.4 0-.73.32-.73.71 0 .4.32.72.73.72v.93c-.4 0-.73.32-.73.72 0 .39.32.7.73.7v.94c-.4 0-.73.32-.73.72 0 .4.32.71.73.71v.94c-.4 0-.73.31-.73.7 0 .4.32.72.73.72v.94c-.4 0-.73.32-.73.71 0 .4.32.71.73.71v.94c-.4 0-.73.32-.73.71 0 .4.32.71.73.71v.94c-.4 0-.73.32-.73.71 0 .4.32.72.73.72v.93c-.4 0-.73.32-.73.72 0 .39.32.7.73.7v.94c-.4 0-.73.32-.73.72 0 .4.32.71.73.71v.81a.72.72 0 0 0-.72.86h-.94a.72.72 0 0 0-.72-.86.72.72 0 0 0-.71.86h-.94a.72.72 0 0 0-.72-.86.72.72 0 0 0-.72.86h-1.05a.72.72 0 0 0-.72-.86.72.72 0 0 0-.72.86h-.93a.72.72 0 0 0-.72-.86.72.72 0 0 0-.72.86h-1.05a.72.72 0 0 0-.72-.86.72.72 0 0 0-.72.86h-.94a.72.72 0 0 0-.72-.86.72.72 0 0 0-.72.86h-1.05a.72.72 0 0 0-.72-.86.72.72 0 0 0-.72.86h-.93a.72.72 0 0 0-.72-.86.72.72 0 0 0-.72.86h-1.05a.72.72 0 0 0-.72-.86.72.72 0 0 0-.72.86h-.94a.72.72 0 0 0-.72-.86.72.72 0 0 0-.72.86h-1.05a.72.72 0 0 0-.72-.86.72.72 0 0 0-.72.86h-.93a.72.72 0 0 0-.72-.86.72.72 0 0 0-.72.86h-.94a.72.72 0 0 0-.72-.86.72.72 0 0 0-.72.86h-.93a.72.72 0 0 0-.72-.86l-.18.02v-.92l.18.02c.4 0 .73-.32.73-.71 0-.4-.32-.71-.73-.71-.06 0-.12 0-.18.02v-.93c.06.02.12.02.18.02.4 0 .73-.32.73-.71 0-.4-.32-.71-.73-.71-.06 0-.12 0-.18.02V34.5c.06.02.12.02.18.02.4 0 .73-.32.73-.71 0-.4-.32-.71-.73-.71-.06 0-.12 0-.18.02v-.93c.06.02.12.02.18.02.4 0 .73-.31.73-.7 0-.4-.32-.72-.73-.72-.06 0-.12 0-.18.02v-.92l.18.02c.4 0 .73-.32.73-.72 0-.39-.32-.7-.73-.7l-.18.01v-.92l.18.02c.4 0 .73-.32.73-.71 0-.4-.32-.72-.73-.72l-.18.02v-1.03l.18.02c.4 0 .73-.32.73-.71 0-.4-.32-.72-.73-.72l-.18.02v-.92l.18.02c.4 0 .73-.32.73-.71 0-.4-.32-.72-.73-.72l-.18.03v-1l.1.01c.41 0 .74-.32.74-.71a.72.72 0 0 0-.84-.7v-.9h.1c.41 0 .74-.31.74-.7a.72.72 0 0 0-.84-.71v-.98h.1Z" fill="#fff" /><path fill-rule="evenodd" d="M43 17.36H13.14v21.16H43V17.36Zm-30.35-.47v22.1H43.5V16.9H12.65Z" fill="#808285" /><path d="M13.54 18H42.6v20H13.54V18Z" fill="url(#bstpwyzbf)" /><path d="M42.6 25.67c-12.17-5.08-24.15-2.3-29.06-.1V18H42.6v7.67Z" fill="#231F20" /><path d="m15.82 23.63-.13-.34.5-1.79-1.03.36-.19-.49 1.78-.63.13.34-.5 1.8 1.03-.37.19.5-1.78.62ZM18.94 22.65l-.66.14.24-2.45.84-.17 1.25 2.13-.66.14-.86-1.56h-.02l-.13 1.77Zm-.32-.88 1.25-.26.1.47-1.25.26-.1-.47ZM24.65 21.84l-.68.03.64-2.39.86-.04.89 2.31-.68.04-.6-1.68h-.02l-.41 1.73Zm-.18-.92 1.28-.06.02.47-1.27.07-.03-.48ZM36 22.47l-.65-.14 1.28-2.15.84.18.2 2.48-.66-.15-.1-1.78h-.02l-.88 1.56Zm.1-.94 1.24.27-.11.47-1.24-.27.1-.47ZM23.27 20.6h-.65c0-.05-.02-.1-.04-.14a.34.34 0 0 0-.2-.2.47.47 0 0 0-.16-.02c-.11 0-.2.03-.28.08a.5.5 0 0 0-.16.23c-.04.1-.06.22-.06.36 0 .15.02.27.06.37.04.1.1.17.17.22.07.05.16.08.26.08.06 0 .11-.01.16-.03a.35.35 0 0 0 .2-.17.43.43 0 0 0 .05-.14h.65a1.01 1.01 0 0 1-1.07.9c-.22 0-.41-.04-.58-.14-.17-.1-.3-.23-.4-.41-.1-.19-.15-.41-.15-.68 0-.27.05-.5.15-.68.1-.18.23-.32.4-.42a1.28 1.28 0 0 1 .98-.08c.13.05.24.1.33.19.1.08.17.17.23.29.06.12.1.25.1.4ZM34.9 20.83l-.62-.15v-.15a.33.33 0 0 0-.14-.24.46.46 0 0 0-.16-.06.46.46 0 0 0-.28.01.5.5 0 0 0-.22.18c-.06.1-.1.2-.14.34-.04.14-.05.27-.04.37.01.1.05.2.1.26.06.06.14.1.24.13.06.02.11.02.16.02s.1-.02.14-.04a.35.35 0 0 0 .1-.08.44.44 0 0 0 .08-.12l.63.15c-.04.1-.09.2-.16.29a1.03 1.03 0 0 1-1.1.33c-.21-.05-.39-.14-.53-.28a1 1 0 0 1-.29-.5c-.05-.2-.04-.43.03-.69.07-.26.17-.46.32-.62.14-.15.3-.26.5-.3.19-.06.39-.06.6 0 .13.03.26.08.37.15.11.07.2.16.27.26s.12.2.15.33.03.27 0 .41ZM27 19.92v-.52h2v.52h-.7v1.83h-.6v-1.83H27ZM29.92 21.75l.18-2.35 1.71.13-.04.51-1.07-.08-.03.4.98.08-.03.51-.99-.07-.03.4 1.07.08-.04.52-1.71-.13Z" fill="#fff" /><path d="M30.74 37v-2.42h1.82v.53h-1.13v.41h1.04v.53h-1.04v.42h1.13V37h-1.82ZM21.52 35.35a.25.25 0 0 0-.09-.19c-.05-.04-.12-.06-.23-.06-.06 0-.11 0-.15.02a.2.2 0 0 0-.1.07.16.16 0 0 0-.03.1c0 .02 0 .04.02.07l.06.06.1.05.14.04.19.04c.12.03.23.06.32.1.1.05.17.1.23.17.06.06.1.13.13.2a.74.74 0 0 1-.08.65.7.7 0 0 1-.32.24c-.14.06-.3.09-.5.09s-.38-.03-.53-.1a.74.74 0 0 1-.34-.27.89.89 0 0 1-.13-.5h.6c0 .08.02.14.05.2a.3.3 0 0 0 .13.1c.06.03.13.04.21.04.07 0 .12 0 .17-.02a.23.23 0 0 0 .1-.07.17.17 0 0 0 .04-.1.15.15 0 0 0-.04-.1.27.27 0 0 0-.1-.08 1.13 1.13 0 0 0-.21-.06l-.23-.05c-.2-.04-.37-.12-.49-.23a.56.56 0 0 1-.17-.43c0-.15.04-.28.12-.4.08-.11.19-.2.33-.26s.3-.1.48-.1c.2 0 .35.04.49.1a.73.73 0 0 1 .43.68h-.6Z" fill="#231F20" /><path d="M40.1 21.76a.25.25 0 0 0-.02-.2c-.03-.06-.1-.1-.19-.14a.44.44 0 0 0-.16-.03.2.2 0 0 0-.1.04.17.17 0 0 0-.07.07.16.16 0 0 0-.01.08c0 .03.01.05.03.08l.08.08a1 1 0 0 0 .12.08l.16.1c.11.07.2.14.27.22.07.07.13.14.16.22.03.08.05.16.05.24 0 .08-.02.17-.05.25a.72.72 0 0 1-.25.35.72.72 0 0 1-.39.13c-.15 0-.31-.02-.5-.08a1.34 1.34 0 0 1-.46-.26.72.72 0 0 1-.23-.38.91.91 0 0 1 .05-.51l.56.2a.38.38 0 0 0-.01.18c.01.06.04.11.08.15.05.05.11.08.19.1.06.03.12.04.16.04.05 0 .1-.02.13-.04a.18.18 0 0 0 .07-.08.15.15 0 0 0 0-.1.26.26 0 0 0-.08-.11l-.17-.13-.2-.12c-.18-.11-.3-.24-.38-.38a.57.57 0 0 1-.01-.47.7.7 0 0 1 .25-.34.81.81 0 0 1 .4-.15c.16-.01.32 0 .5.07.17.06.31.14.42.25a.71.71 0 0 1 .16.78l-.56-.2Z" fill="#fff" /><path d="M24 34.58V37h-.65v-2.42H24ZM25.34 37v-2.43H26v1.9h1V37h-1.66ZM28.2 34.58l.48 1.7h.02l.47-1.7h.71L29.12 37h-.86l-.76-2.42h.7ZM33.64 37v-2.42h1.03c.18 0 .34.03.47.1.13.06.24.16.3.28.08.12.12.27.12.44a.8.8 0 0 1-.11.44.7.7 0 0 1-.32.27c-.14.06-.3.1-.48.1h-.61v-.52h.48c.08 0 .14 0 .2-.03.05-.02.1-.05.12-.1.03-.03.04-.09.04-.16a.3.3 0 0 0-.04-.17.25.25 0 0 0-.13-.1.53.53 0 0 0-.19-.03h-.23V37h-.65Zm1.4-1.11.6 1.11h-.7l-.59-1.11h.7ZM20.73 32.46 18.8 33a69.72 69.72 0 0 1 16.97 0l-3.15-.7-1.07-2.18-1.2-.46 1.06 2.52c-1.43-.09-4.51-.13-5.87-.13-.05-.04-.2-.24-.4-.72-.18-.49.35-1.01.63-1.21-1.1-.19-1.68.34-1.83.62l.68 1.3-2.54.25c-.53-.78 0-1.23.32-1.36l1.99-1.08h2.48c.48 0 1.56.33 2.05.5.03.13.03.35-.28.2-.31-.15-.5.07-.54.2l-.6.88 1.42-.13c.54-.02.68-.36.97-1.16.3-.8-.27-.8-.3-1-.01-.2.83.06 1.63.2.8.16.8.58.8.8 0 .23.16.46.7.8.44.27.72.11.8 0 .18-.34.65-1.11 1.04-1.48.39-.36.5-1.12.5-1.46.93.49 1.8.36 2.13.23-1.17-.4-2.16-1.4-2.63-1.6a2.61 2.61 0 0 1-.8-.52l-1.58-1.86c-1-1.15-2.4-.57-2.85-.24-.36.25-1.05.6-1.35.73-1.1.5-3.45 1.55-4.14 1.9-.86.43-.98.87-1.33 1.2-.35.31-1.42.94-1.8.66-.36-.29.63-1.3.38-2.2-.2-.73-1.02-.3-1.4 0l-.9.9c.4.39 1.45-.15 1.93-.47-.4.52-.6 1.23-.65 1.52-.2 1.4 1.36 1.07 2.17.72l-.41.95c-.39.1-.57.58-.6.81l-.51 1.52Z" fill="#231F20" /><path d="M24.35 27.09c-1.2.53-1.6 1.92-1.65 2.55.97-.13 2.06-1.16 2.48-1.66l-.26.83c.4-.05 1.23-.16 1.35-.16.51 0 .81-.28.9-.42l.45-.7v.97c0 .63.28.86.42.9l1.3.4c-.64-.47-.62-.86-.53-.99a5.9 5.9 0 0 1 1.35-1.51c-.26.85 0 1.2.51 1.2.41 0 .79.1.92.15.1-.47-.45-1.03-.75-1.25a15 15 0 0 1 1.48 0c.58.03.94-.46 1.05-.7l-1.9-2.08c-.52-.56-1.09-.34-1.31-.16l-.81.53a8.94 8.94 0 0 0-2.01 1.7l.28-1.05c-1.05.56-1.78.79-3.27 1.45Z" fill="#E6E7E8" /><path d="m32.52 28.23-.93-.54h.73c.28.06.25.38.2.54ZM34.09 26.93c-.69 0-1.07.62-1.17.92.36-.26 1.18-.72 1.58-.45.4.27 1.29.75 1.68.95l-1.2-.95a1.53 1.53 0 0 0-.89-.47Z" fill="#E6E7E8" /><path d="M33.44 28.16c-.23.14-.58.18-.74.19l.66 2.12c.21-.22.6-.73.48-1a1.01 1.01 0 0 1-.12-.55l.37.55c.38-.33.5-.82.18-1.49-.3-.66-.55 0-.83.18Z" fill="#E6E7E8" /><defs><linearGradient id="astpwyzbf" x1="10.42" y1="9.71" x2="68.15" y2="76.02" gradientUnits="userSpaceOnUse"><stop stop-color="#1A1E21" /><stop offset="1" stop-color="#06060A" /></linearGradient><linearGradient id="bstpwyzbf" x1="33.11" y1="21.65" x2="17.62" y2="39.45" gradientUnits="userSpaceOnUse"><stop stop-color="#B8B5B8" /><stop offset=".29" stop-color="#F0F1F1" /><stop offset=".66" stop-color="#8C898E" /><stop offset="1" stop-color="#D5D0CE" /></linearGradient></defs></svg>