<?xml version='1.0' encoding='utf-8'?>
<!-- by TradeStack -->
<svg width="56" height="56" viewBox="0 0 56 56" xmlns="http://www.w3.org/2000/svg"><path fill="#F0F3FA" d="M0 0h56v56H0z" /><path d="M18 31v-5.38c0-.55.72-.82 1.14-.44L24 29.52v-4.3l1 1.37v3.79c0 .54-.7.82-1.13.46L19 26.42V31h-1ZM4 25v1h4.86l-4.59 3.83c-.45.4-.17 1.17.43 1.17h5.9v-1H5.68l4.45-3.68c.5-.46.2-1.32-.49-1.32H4Zm13 1v-1h-4.6c-.78 0-1.4.64-1.4 1.43v3.14c0 .8.62 1.43 1.4 1.43H17v-1h-4.18a.83.83 0 0 1-.82-.84v-.66h4.5v-1H12v-.61c0-.47.37-.89.82-.89H17Z" fill="url(#ai3tifnpu)" /><path d="M27.47 23.6c-.93-.2-1.67-.1-2.02.32-.82.99.63 3.36 3.22 5.3 2.59 1.95 5.35 2.73 6.16 1.75.31-.39.29-.98-.01-1.67.95 1.35 1.27 2.55.73 3.2-1 1.2-4.48.16-7.8-2.33-3.3-2.5-5.2-5.48-4.2-6.67.59-.73 2.1-.63 3.92.1Z" fill="url(#bi3tifnpu)" /><path d="M34.16 30.47c.67-.8-.6-2.81-2.82-4.48-2.23-1.67-4.57-2.38-5.24-1.57-.3.37-.2 1 .23 1.74-.04-.28.01-.52.16-.7.58-.7 2.47-.21 4.21 1.1 1.75 1.3 2.69 2.94 2.1 3.64-.19.24-.52.34-.94.33 1.08.37 1.94.38 2.3-.06Z" fill="url(#ci3tifnpu)" /><path fill-rule="evenodd" d="m52 31-3.51-5.54a.97.97 0 0 0-1.66 0L43.43 31H45l.58-1h4.22l.6 1H52Zm-2.8-2-1.55-2.59-1.5 2.59h3.05Zm-16.59-4 3.52 5.54a.97.97 0 0 0 1.65 0l3.4-5.54h-1.35l-2.87 4.67L34.01 25h-1.4ZM42 25h1v6h-1v-6Z" fill="url(#di3tifnpu)" /><defs><linearGradient id="ai3tifnpu" x1="14.4" y1="24.67" x2="14.4" y2="30.71" gradientUnits="userSpaceOnUse"><stop stop-color="#1D3089" /><stop offset=".76" stop-color="#1D318D" /><stop offset="1" stop-color="#1D2365" /></linearGradient><linearGradient id="bi3tifnpu" x1="24.32" y1="24.29" x2="33.65" y2="33.09" gradientUnits="userSpaceOnUse"><stop stop-color="#7BC336" /><stop offset="1" stop-color="#3B8933" /></linearGradient><linearGradient id="ci3tifnpu" x1="27.06" y1="24.54" x2="33.1" y2="30.3" gradientUnits="userSpaceOnUse"><stop stop-color="#1D3089" /><stop offset=".24" stop-color="#1D318D" /><stop offset="1" stop-color="#1D2364" /></linearGradient><linearGradient id="di3tifnpu" x1="42.31" y1="25.03" x2="42.31" y2="30.66" gradientUnits="userSpaceOnUse"><stop stop-color="#7BC336" /><stop offset=".91" stop-color="#408E35" /></linearGradient></defs></svg>