<!-- by TradeStack --><svg width="56" height="56" viewBox="0 0 56 56" xmlns="http://www.w3.org/2000/svg"><path fill="#8AB7F0" d="M0 0h56v56H0z"/><path d="M42.97 17.62c.15-.87-.13-2.62-2.46-2.62s-3.23 1.98-3.39 2.97c-.3 1.35-.24 4.03 2.31 4.03 2.56 0 3.26-1.82 3.29-2.73h-1.41c-.12.5-.6 1.48-1.6 1.48-1.25 0-1.45-1.65-1.03-2.78.42-1.12 1.09-1.77 1.7-1.77.61 0 1.34.31 1.03 1.42h1.56ZM23 21H12v3h6.23L11 35v2h12v-3h-7.01L23 22.5V21Zm1 4h3v1.86A3.95 3.95 0 0 1 30.21 25c1.79 0 2.99 1.05 3.5 2.72.38-.8 2.1-2.72 4.09-2.72 2.49 0 3.2 1.96 3.2 4.78V37h-3v-7.22c.01-.69-.12-2.06-1.45-2.06s-2.32 2.02-2.55 3.04V37h-3v-7.22c.01-.69-.22-2.06-1.52-2.06-1 0-1.98 1.21-2.48 2.23V37h-3V25Z" fill="#231F20"/></svg>