<!-- by TradeStack --><svg width="56" height="56" viewBox="0 0 56 56" fill="none" xmlns="http://www.w3.org/2000/svg">
<rect width="56" height="56" fill="#E30613"/>
<path fill-rule="evenodd" clip-rule="evenodd" d="M40.0026 17V19H46V17H43.8985C42.6132 17 42.3096 16.4347 42.3096 15.5234C42.331 15.3724 42.3633 15.147 42.4062 15H40.0346C40.0138 15.0951 40 15.1797 40 15.319C40 16 40.526 16.8451 41.214 17H40.0026ZM43.8368 20.3726L43.6746 22.3027C44.0364 22.517 44.2431 22.9601 44.2056 23.4068C44.1522 24.0425 43.6482 24.5044 42.9783 24.447L43.3533 20.0298C43.146 20.012 42.9444 19.9957 42.7492 20C40.8967 20 39.6192 21.0784 39.4577 22.9998C39.3017 24.8569 40.3694 26.369 42.3353 26.5376C42.4163 26.5385 42.5196 26.538 42.6135 26.5375H42.6135H42.6135H42.6137C42.7017 26.5371 42.7814 26.5367 42.8269 26.5376C44.4 26.5357 45.5087 25.2193 45.6506 23.5307C45.7627 22.1964 45.2574 20.8893 43.8368 20.3726ZM41.7976 24.3916L41.9838 22.1764C41.4435 22.1468 40.9567 22.482 40.9027 23.1237C40.8488 23.7654 41.1485 24.3359 41.7976 24.3916ZM9 39V37L11.3108 34.9791H9V33H14V34.9791L11.7188 37H14V39H9ZM19 37H20.9167C20.5454 38.4083 19.3573 39 18.0939 39C16.3562 39 15 37.9586 15 36.054C15 34.1493 16.3355 33 18.0939 33C20.105 33 21.2 34.4 21.2 36.5072H17C17 37.1562 17.492 37.6 18.0939 37.6C18.5169 37.6 18.8276 37.3654 19 37ZM19 35.3633H17C17 34.7344 17.4863 34.4 18.0939 34.4C18.7015 34.4 18.9843 34.8412 19 35.3633ZM22.0128 30.945L24.0405 30.6929L24.3262 33.6225C24.4825 33.3113 24.7094 33.0459 24.9864 32.8504C25.2635 32.6548 25.5821 32.5352 25.9137 32.5022C27.3741 32.3342 28.152 33.1632 28.3213 34.7428L28.6811 38.205L26.6418 38.4571L26.3243 35.415C26.2608 34.8549 25.9499 34.3339 25.3308 34.4067C24.7117 34.4796 24.4744 34.9669 24.5538 35.7119L24.8554 38.7423L22.7735 39L22.0128 30.945ZM30.2797 31.3735L28.504 32.3623L28.5146 32.3947L31.3971 37.5331L33.2509 36.4746L31.6268 33.7897C31.3035 33.1467 31.4034 32.6325 31.9547 32.3083C32.5059 31.9841 32.8664 32.3515 33.1314 32.8486L34.7789 35.6366L36.6013 34.6274L34.7789 31.4882C34.2542 30.5148 33.6468 30 32.8754 30C32.5635 30 32.2248 30.1292 31.854 30.3361C31.5221 30.5159 31.2414 30.78 31.0389 31.1027C30.8365 31.4255 30.6765 31.7071 30.6557 32.0896L30.2797 31.3735ZM39.0921 28.6279C38.612 28.1997 37.9519 27.8994 37.4554 28.4777C36.9589 29.0561 37.3572 29.7012 37.8373 30.1461C38.3174 30.5911 38.9284 30.908 39.4085 30.3408C39.8886 29.7735 39.594 29.0895 39.0976 28.639L39.0921 28.6279ZM41.2744 30.4131L40.6961 29.8959C40.7966 30.2378 40.8061 30.6008 40.7237 30.9478C40.6412 31.2947 40.4698 31.613 40.2269 31.8702C39.0812 33.1938 37.4991 32.9824 36.3097 31.8702C35.4103 31.0583 35 30.1055 35 29.2501C35 28.0926 36.103 27.0255 37.259 27.0874L35.2131 25.2466L36.7243 23.5059L42.6329 28.8337L41.2744 30.3964V30.4131Z" fill="white"/>
</svg>
