<?xml version='1.0' encoding='utf-8'?>
<!-- by TradeStack -->
<svg width="56" height="56" viewBox="0 0 56 56" xmlns="http://www.w3.org/2000/svg"><path fill="#F0F3FA" d="M0 0h56v56H0z" /><path d="M30.17 30.26a43.81 43.81 0 0 1-4.35-2.7c-1.87-1.33-3.61-3.07-4.41-5.2a7.4 7.4 0 0 1-.4-2.64L21 13c.74.35 1.5.64 2.21.96.58.26 1 .5 1.28.75.92.8 1.17 1.81 1.15 3.05-.02.82-.02 1.62 0 2.4a8.24 8.24 0 0 0 3.06 6.33c1.3 1.1 2.73 1.95 4.15 2.86 1.42.9 2.84 2.09 2.94 3.75.03.65-.07 1.3-.31 1.95-.25.66-.49 1.3-.71 1.93-.04.1-.08.2-.14.28a.16.16 0 0 0-.02.1c.02.17.14.29.37.34l1 .24c.16.05.3.14.41.28.21.25.4.54.61.78h-3.32l-1.08-1.49c.01-.22.1-.44.16-.65.34-1.15.62-2.57-.22-3.54-1.5.17-3.02.12-4.32-.02-.47-.06-1.35-.23-2.64-.53a9.21 9.21 0 0 0-4.8.03c-1.17.4-2.1 1.16-3.06 1.8-.79.52-1.67.78-2.64.8-.06 0-.1.02-.13.06a324 324 0 0 0-1.33 1.68c-.24.3.14.51.4.56.35.07.68.15 1 .24.4.1.77.77 1.04 1.06h-3.33L12 37.58l1.74-4.21c1.36-.13 2.36-1.3 3.12-2.36a2.84 2.84 0 0 1-1.65-2.08 1.8 1.8 0 0 1 .35-1.42c.66-.82 1.87-.71 2.76-.27.22.11.35.28.4.52.03.1.03.22.02.33-.02.2-.11.23-.26.11-.58-.45-1.9-1.03-2.4-.1-.29.51.01 1.16.46 1.52.26.22.58.37.95.45a.1.1 0 0 0 .1-.04c.38-.5.92-1.02 1.36-1.5.93.79 2.24 1.26 3.45 1.5a19.85 19.85 0 0 0 4.15.28c-.28-.2-.76-.66-1.1-.4-.08.04-.17.13-.27.13-.66-.04-1.21-.1-1.66-.2-1.45-.32-2.8-.94-4.07-1.87-.04-.03-.04-.06 0-.09a5.04 5.04 0 0 1 4.22-1.21c1.5 1.06 2.97 2 4.43 2.84.5.28.98.53 1.45.74.18.08.38.1.6.06.06 0 .06-.03.02-.05Z" fill="#E60D21" /><path d="m37.83 22.53.64.04c.54.03 1.05.15 1.53.35.55.23.88.6.99 1.14v.22c-.53-.56-1.67-.44-2.28-.13-.39.19-.42.62-.41 1 0 .58.07 1.12.2 1.65.05.2.12.4.22.58.02.04 0 .09-.05.1-.56.09-.46.57-.46.94a.1.1 0 0 1-.06.09c-.32.1-.49.33-.5.63-.05 1.14-.3 2.39-1.62 2.86a.06.06 0 0 1-.06-.02l-.01-.02a3.61 3.61 0 0 0-1.1-1.83c-.51-.5-1-.88-1.47-1.18l-2.68-1.7c-2.1-1.34-4.1-3.01-4.54-5.44-.12-.61-.17-1.23-.17-1.86V16c.43.21.94.4 1.45.62.6.25 1.03.5 1.3.76.62.58.93 1.28.92 2.12-.01.62 0 1.23.04 1.84.06.9.24 1.76.53 2.56.35.93.94 1.65 1.77 2.18 2.33-.97 3.42-3.53 3.42-5.71 1.26.35 2.8.92 3.49 1.97.04.07-.04.12-.1.1a1.55 1.55 0 0 1-.65-.3c-.08-.06-.15-.07-.23-.02a.84.84 0 0 0-.21.22c-.09.12-.05.18.1.19ZM37.32 17.85c.12-.1.25-.2.25-.33 0-.07.03-.08.1-.03.3.22.37.55.3.88-.07.39-.55.64-1 .63-.29 0-.53-.1-.72-.28a.73.73 0 0 1-.05-1.05c.2-.21.42-.38.44-.67.48.19.75.45.68.85ZM37.06 35.45A3.7 3.7 0 0 1 36 33.3c0-.03.02-.07.06-.08.61-.23 1.23-.65 1.48-1.23a7.33 7.33 0 0 1 1.92 2.15l1.05 1.97c.37.7.92 1.3 1.72 1.57l.85.3a.8.8 0 0 1 .35.24L44 39h-3.05a2.45 2.45 0 0 0-1.1-1.3 12.22 12.22 0 0 1-2.8-2.25ZM26.25 37.02c-.24.27-.1.68.22.76l.65.19c.14.04.27.15.4.32.16.23.31.5.48.71h-2.56a.16.16 0 0 1-.1-.04c-.26-.2-.5-.46-.75-.75-.13-.16-.25-.33-.22-.56.03-.25.04-.5.04-.73 0-.84-.32-1.48-.95-1.93a10.3 10.3 0 0 1-.86-.69 2 2 0 0 1-.6-.99c-.02-.08.03-.17.1-.19 1.5-.4 3.17.24 4.57 1l-.3 2.63c-.01.1-.05.2-.12.27Z" fill="#E60D21" /></svg>