<?xml version='1.0' encoding='utf-8'?>
<!-- by TradeStack -->
<svg width="56" height="56" viewBox="0 0 56 56" xmlns="http://www.w3.org/2000/svg"><path fill="#CCE44E" d="M0 0h56v56H0z" /><path d="M4 25.24c0-.13.1-.24.23-.24h6.48a.3.3 0 0 1 .29.3v1.21a.3.3 0 0 1-.06.2l-3.9 5a.18.18 0 0 0-.04.1c0 .1.07.19.17.19h3.6c.13 0 .23.1.23.24v1.52c0 .13-.1.24-.23.24H4.52a.53.53 0 0 1-.52-.54v-.9c0-.12.04-.23.1-.32l3.87-4.95a.18.18 0 0 0 .03-.14.17.17 0 0 0-.17-.15h-3.6a.23.23 0 0 1-.23-.24v-1.52Z" /><path fill-rule="evenodd" d="M24.05 34c2.18 0 3.95-2.01 3.95-4.5S26.23 25 24.05 25s-3.94 2.01-3.94 4.5 1.76 4.5 3.94 4.5ZM24 32c1.1 0 2-1.12 2-2.5s-.9-2.5-2-2.5-2 1.12-2 2.5.9 2.5 2 2.5Z" /><path d="M34 24.36c0-.2.12-.36.28-.36h1.44c.16 0 .28.16.28.36v9.28c0 .2-.12.36-.28.36h-1.44c-.16 0-.28-.16-.28-.36v-9.28ZM29 31.37v-9.72c0-.17.13-.31.3-.34l1.2-.3c.26-.05.5.14.5.4V31c0 .7 1.28 1.03 1.78 1.14.14.03.24.16.22.3l-.32 1.37a.24.24 0 0 1-.24.19c-3.06-.06-3.44-1.56-3.44-2.63Z" /><circle cx="35" cy="22" r="1" /><path fill-rule="evenodd" d="M15.07 25C12.05 25 11 27.75 11 29.6c0 1.84 1.02 4.4 4.55 4.4 1.39 0 2.26-.25 2.7-.45.16-.07.23-.26.2-.44l-.18-1.13c-.04-.27-.33-.42-.59-.34-.46.14-1.37.36-2.18.36-1.18 0-2.21-.67-2.47-1.22a.3.3 0 0 1-.03-.14c0-.17.17-.3.37-.3h5.18c.25 0 .45-.2.45-.46C19 28 18.24 25 15.07 25ZM17 28.54A2 2 0 0 0 15 27a2 2 0 0 0-2 1.54c-.05.25.18.46.46.46h3.08c.28 0 .51-.21.45-.46ZM48.07 25C45.05 25 44 27.75 44 29.6c0 1.84 1.02 4.4 4.55 4.4 1.39 0 2.26-.25 2.7-.45.16-.07.23-.26.2-.44l-.18-1.13c-.04-.27-.33-.42-.59-.34-.46.14-1.37.36-2.18.36a1.96 1.96 0 0 1-1.93-1.22.3.3 0 0 1-.03-.14c0-.17.17-.3.37-.3h4.64c.25 0 .45-.2.45-.46-.05-2.46-.54-4.88-3.93-4.88Zm1.6 3.54C49.49 27.68 48.85 27 48 27s-1.5.68-1.67 1.54c-.05.25.15.46.38.46h2.58c.23 0 .43-.21.38-.46Z" /><path d="M38 23.62v7.82c0 .8.8 2.5 2.81 2.56.56.02 1.2-.1 1.95-.38.1-.04.19-.03.23-.16.01-.02.01-.05 0-.07l-.19-1.28c-.02-.12-.05-.22-.13-.26-.03-.02-.06-.02-.1-.01-.45.12-.81.16-1.09.16-.98-.02-1.48-.68-1.48-1.2v-2.52c0-.16.11-.28.26-.28h2.43c.17 0 .31-.15.31-.33v-1.34c0-.18-.14-.33-.3-.33h-2.44c-.15 0-.26-.12-.26-.28V23.4c0-.24-.2-.43-.42-.38l-1.33.28a.33.33 0 0 0-.25.33Z" /></svg>