<?xml version='1.0' encoding='utf-8'?>
<!-- by TradeStack -->
<svg width="56" height="56" viewBox="0 0 56 56" xmlns="http://www.w3.org/2000/svg"><path fill="#F0F3FA" d="M0 0h56v56H0z" /><path d="M28 14C16.46 14 7 20.33 7 28s9.5 14 21 14c11.54 0 21-6.33 21-14s-9.5-14-21-14Zm-2.3 16-.64 3h-9.42c.04-.76.15-1.44.32-2.1.18-.66.4-1.2.71-1.73.6-1.07 1.8-1.97 3.57-3.45l.04-.04.92-.76c1.67-1.38 2.52-2.52 2.52-3.56 0-.41-.11-.72-.29-.93-.21-.2-.5-.31-.85-.31-.42 0-.74.2-.99.66A6.67 6.67 0 0 0 21.2 23h-3.4c.1-1.76.57-3.3 1.38-4.16.82-.86 2.02-1.31 3.58-1.31 1.42 0 2.55.34 3.36 1.1.82.73 1.24 1.7 1.24 2.97 0 .94-.21 1.77-.67 2.53-.46.76-1.31 1.62-2.62 2.7-.14.13-.39.3-.67.55-1.77 1.42-2.94 1.9-3.36 2.62h5.66Zm12.82-3h-3.5c.23-.91.4-2.53-.93-2.53-1.48 0-1.68 2.12-1.91 3.18l-.92 4.19c-.19.88-1.01 3.21.6 3.21 1.54 0 1.86-1.87 2.09-3.05H32.6l.57-3h5.1l-1.84 9h-2.48l.14-1.88A4.2 4.2 0 0 1 30.7 38c-3.6 0-3.55-4.27-3.08-6.85.42-2.29.87-4.6 1.8-6.75.95-1.97 2.77-2.8 4.9-2.8 3.22 0 4.85 2.25 4.2 5.4Z" fill="#17691F" /></svg>