<!-- by TradeStack --><svg width="56" height="56" viewBox="0 0 56 56" xmlns="http://www.w3.org/2000/svg"><path fill="#18364F" d="M0 0h56v56H0z"/><path d="M27.5 13.35V11h1v2.35h-1Zm0 31.65v-2.35h1V45h-1Zm-3.15-33.61.44 2.31.97-.18-.43-2.32-.98.19Zm6.32 33.4-.43-2.3.97-.2.44 2.32-.98.19Zm-8.85-32.63.79 2.21.93-.33-.79-2.22-.93.34Zm11.43 32.02-.8-2.22.94-.33.8 2.21-.94.34ZM19.3 13.38l1.14 2.06.87-.48-1.15-2.05-.86.48ZM35.84 43.1l-1.15-2.05.87-.48 1.14 2.05-.86.48ZM16.77 15.23l1.5 1.81.77-.63-1.5-1.82-.77.64Zm21.7 26.18-1.5-1.82.76-.63 1.5 1.81-.76.64ZM14.72 17.38l1.8 1.52.64-.76-1.8-1.52-.64.76Zm25.92 22-1.8-1.52.65-.76 1.8 1.52-.65.76ZM12.96 20.05l2.05 1.16.5-.86-2.06-1.16-.49.86Zm29.59 16.76-2.05-1.16.49-.86 2.05 1.16-.5.86Zm-30.8-13.83 2.23.76.32-.94-2.23-.76-.32.94Zm32.18 10.98-2.23-.76.32-.94 2.23.76-.32.94Zm-32.76-8.39 2.31.4.18-.97-2.32-.4-.17.97Zm33.5 5.84-2.33-.4.17-.98 2.32.4-.17.98ZM11 28.5h2.35v-1H11v1Zm34 0h-2.35v-1H45v1Zm-33.61 3.15 2.31-.44-.18-.97-2.32.43.19.98Zm33.4-6.32-2.3.43-.2-.97 2.32-.44.19.98Zm-32.63 8.85 2.21-.79-.33-.93-2.22.79.34.93Zm32.02-11.43-2.22.8-.33-.94 2.21-.8.34.94ZM13.38 36.7l2.06-1.14-.48-.87-2.05 1.15.48.86ZM43.1 20.16l-2.05 1.15-.48-.87 2.05-1.14.48.86ZM15.23 39.23l1.81-1.5-.63-.77-1.82 1.5.64.77Zm26.18-21.7-1.82 1.5-.63-.76 1.81-1.5.64.76ZM17.38 41.28l1.52-1.8-.76-.64-1.52 1.8.76.64Zm22-25.92-1.52 1.8-.76-.65 1.52-1.8.76.65ZM20.05 43.04l1.16-2.05-.86-.5-1.16 2.06.86.49Zm16.76-29.59-1.16 2.05-.86-.49 1.16-2.05.86.5Zm-13.83 30.8.76-2.23-.94-.32-.76 2.23.94.32Zm10.98-32.18-.76 2.23-.94-.32.76-2.23.94.32Zm-8.39 32.76.4-2.31-.97-.18-.4 2.32.97.17Zm5.84-33.5-.4 2.33-.98-.18.4-2.31.98.17ZM41 28a13 13 0 1 1-26 0 13 13 0 0 1 26 0Zm-20.9 3.44 1.44.86 8.08-8.78.62 12.23 1.44-.14-1.13-15.08-10.45 10.9Zm7.4-.44a1.5 1.5 0 1 0 0-3 1.5 1.5 0 0 0 0 3Z" fill="#fff"/></svg>