<!-- by TradeStack --><svg width="56" height="56" viewBox="0 0 56 56" xmlns="http://www.w3.org/2000/svg"><path fill="#F0F3FA" d="M0 0h56v56H0z"/><path d="M22.63 28.97 25 44l19-17.69L41.24 12l-18.6 16.97Z" fill="#303984"/><path d="m30.18 26.93.27 1.35L13.5 43.84l-.29-1.5 16.98-15.4Zm-.37-1.82.27 1.35L13.12 41.9l-.3-1.5L29.82 25.1Zm-.4-1.88.28 1.34-16.94 15.4-.3-1.5 16.97-15.24Zm-.38-1.91.27 1.34L12.38 38.1l-.29-1.5 16.94-15.28Zm-.37-1.8.28 1.36-16.9 15.41-.3-1.5 16.92-15.26Zm-.42-2.04.28 1.35-16.88 15.4-.3-1.5 16.9-15.25Zm-.36-1.78.27 1.34L11.3 32.42l-.29-1.5L27.88 15.7Z" fill="#50B9F3"/></svg>