<?xml version='1.0' encoding='utf-8'?>
<!-- by TradeStack -->
<svg width="56" height="56" viewBox="0 0 56 56" xmlns="http://www.w3.org/2000/svg"><path fill="#F0F3FA" d="M0 0h56v56H0z" /><path d="M38.7 16.62c.04.04.04.08 0 .11L37.4 18.1c-.03.03-.06.03-.1 0a13.58 13.58 0 0 0-9.3-4.05c-.04 0-.06-.03-.06-.07l-.03-1.9c0-.06.02-.08.07-.08 3.98.07 7.93 1.68 10.73 4.62Z" fill="#4EA6C7" /><path d="M34.03 17.05c.88.52 1.65 1.13 2.33 1.85.03.04.03.08 0 .11l-1.19 1.17a.1.1 0 0 1-.14 0c-4.22-4.1-10.54-3.97-14.78-.01-.04.04-.08.03-.12 0L19 18.95a.13.13 0 0 1-.02-.15c0-.02.02-.03.03-.04 4.3-3.88 9.98-4.7 15.02-1.72Z" fill="#4EA6C7" /><path d="M18.02 37.73v.02l-1.34 1.55c-.03.03-.06.03-.08 0-6.17-6.1-6.07-16.38-.09-22.5.03-.04.07-.04.1 0l1.25 1.44c.05.05.05.1 0 .14a14.1 14.1 0 0 0 .16 19.35Z" fill="#415F96" /><path d="M27.7 18.52a.04.04 0 0 1 .03.02.05.05 0 0 1 .01.03l-.05 1.9c0 .04-.02.06-.06.07-1.88.16-3.45.63-4.88 1.98-.04.04-.07.04-.1 0l-1.24-1.23c-.07-.06-.07-.12 0-.18a9.3 9.3 0 0 1 6.29-2.59Z" fill="#4EA6C7" /><path d="m18.78 19.13 1.14 1.2c.08.08.08.15 0 .23a11.1 11.1 0 0 0 .12 15.07l-.01.03-1.19 1.25a.12.12 0 0 1-.08.04.11.11 0 0 1-.08-.04 13.02 13.02 0 0 1 .01-17.8.08.08 0 0 1 .07 0l.02.02Z" fill="#415F96" /><path d="M22.4 22.69c.05.04.05.1 0 .14a7.59 7.59 0 0 0-2.03 5.15 7.47 7.47 0 0 0 1.85 5.07.1.1 0 0 1-.03.07l-1.07 1.26c-.09.1-.17.1-.26 0a9.74 9.74 0 0 1-2.02-9.03 9.82 9.82 0 0 1 2.21-3.87c.03 0 .05 0 .07.02l1.28 1.19Z" fill="#415F96" /><path d="M35.63 28.6v-.97c0-.05-.02-.08-.07-.1l-.36-.11h-.01a.03.03 0 0 1-.02-.04l.02-.03h1.75c.06 0 .08.02.04.06l-.02.03-.02.01a.73.73 0 0 0-.33.12.11.11 0 0 0-.05.09v.9c0 .05-.02.08-.06.1-4.42 1.92-4.8-4.89-.3-3.41a.1.1 0 0 0 .1-.04l.16-.19a.06.06 0 0 1 .06-.02.06.06 0 0 1 .04.06v1.17a.07.07 0 0 1-.06.06h-.04a.06.06 0 0 1-.03-.04c-.16-.5-.48-.82-.94-.96-1.38-.4-1.63 1.21-1.52 2.15.1.95.6 1.54 1.61 1.22.03-.01.05-.04.05-.07ZM40.55 25.17l.08-.14c0-.01 0-.02.02-.03a.05.05 0 0 1 .06.02l.01.03v1.2l-.01.03-.03.02h-.03a.05.05 0 0 1-.02-.04c-.2-.88-1.15-1.37-1.9-.77-.69.56-.67 2.38-.07 2.99.55.55 1.47.23 1.9-.36a.04.04 0 0 1 .06 0l.01.03v.16c0 .04 0 .08-.04.11-.68.62-1.44.74-2.29.36-1.2-.54-1.38-2.26-.49-3.14.8-.81 1.59-.68 2.59-.4a.13.13 0 0 0 .15-.07ZM26.1 28.75c.99.02 1.8.11 2.12-1.2l.02-.02h.03l.03.01v.03l-.12 1.36c0 .05-.02.07-.07.07H24.9l-.01-.02v-.05l2.01-3.6c.03-.05.02-.08-.04-.08-.72-.01-1.4-.07-1.6.88-.02.04-.04.05-.08.03-.02-.02-.03-.04-.03-.07l.07-1.01c0-.05.03-.08.08-.08h2.73c.06 0 .07.03.04.08l-2 3.6c-.03.04-.02.07.03.07Z" /><path d="M30.04 26.85c.32-.27.78-.68 1.4-1.24.1-.1.15-.21.14-.34a.1.1 0 0 0-.02-.06.09.09 0 0 0-.04-.03l-.29-.08a.05.05 0 0 1-.03-.02.06.06 0 0 1 .01-.07l.03-.01h1.32c.07 0 .08.01.01.05a9 9 0 0 0-1.78 1.45c-.02.03-.02.06 0 .09.47.68 1.34 2.12 1.98 2.31l.02.02a.05.05 0 0 1 0 .06l-.04.02h-1.82l-.03-.02-.02-.03v-.04l.04-.02.18-.07.06-.03a.17.17 0 0 0 .01-.2l-1.05-1.46c-.05-.07-.12-.02-.12.05v1.53c0 .15.3.16.4.2l.02.01a.05.05 0 0 1 0 .06l-.04.02H28.6l-.02-.01-.02-.01-.01-.03v-.02c0-.03 0-.05.02-.06.08-.05.25.02.4-.1a.11.11 0 0 0 .03-.04V25.28c0-.05-.01-.08-.06-.09l-.39-.1v-.01l-.01-.02v-.03c0-.02 0-.03.03-.03h1.76c.04 0 .06.02.05.07l-.03.04c-.12.09-.35.04-.35.25v1.46c0 .03.01.05.04.03ZM41.42 27.28c-.8-.78-.4-2.15.75-2.24a12.97 12.97 0 0 1 1.82 0 .03.03 0 0 1 0 .02 4.35 4.35 0 0 0-.02.05c-.43-.05-.51.2-.51.6v4.22c0 .05-.02.07-.07.07h-.11c-.05 0-.07-.02-.07-.07v-4.61c0-.05-.03-.07-.08-.07h-.32c-.06 0-.08.03-.08.08v4.6c0 .05-.03.07-.08.07h-.14c-.04 0-.07-.02-.07-.07V27.7c0-.05-.02-.08-.07-.09-.33-.05-.7-.1-.95-.34Z" /><path d="M22.54 33.34c1.57 1.5 3.09 1.94 5.19 2.14.04 0 .05.02.05.06l.03 1.82c0 .03-.01.05-.04.05-2.47.34-4.86-.83-6.52-2.61a.07.07 0 0 1 0-.1l1.21-1.36a.05.05 0 0 1 .08 0Z" fill="#4B9CDA" /><path d="M20.32 35.88c4.29 4 10.59 3.88 14.8-.18.03-.03.06-.03.1 0l1.23 1.23a.07.07 0 0 1 .02.05.08.08 0 0 1-.02.06 12.35 12.35 0 0 1-17.45.18c-.04-.03-.05-.08 0-.12l1.16-1.22a.11.11 0 0 1 .16 0Z" fill="#4B9CDA" /><path d="m37.35 37.74 1.4 1.37c.04.04.04.07 0 .1A15.52 15.52 0 0 1 27.98 44c-.04 0-.06-.02-.06-.06V41.9c0-.03 0-.05.02-.06a13.74 13.74 0 0 0 9.35-4.11c.02-.03.05-.03.07 0Z" fill="#4B9CDA" /></svg>