<?xml version='1.0' encoding='utf-8'?>
<!-- by TradeStack -->
<svg width="56" height="56" viewBox="0 0 56 56" xmlns="http://www.w3.org/2000/svg"><path fill="#F0F3FA" d="M0 0h56v56H0z" /><path d="M44 41s-6.79-8-25.45-8c-3.47 0-5.13 2.56-5.14 4.1-.01 2.02 2.81 3.9 5.88 3.9 3.7 0 8.49-3.38 15.59-3.05 2.91.13 6.07.95 9.12 3.05Z" fill="#83C661" /><path d="M40.8 18.9s-3.05-.54-8.9 8.1c-3.2 4.7-6.83 7.74-10.2 9.57h8.18a50.4 50.4 0 0 0 6.25-4.1C42.23 27.73 44 23.8 44 21.96s-1.33-3.11-3.2-3.06Z" fill="#E60572" /><path d="M26.15 33.49c-4.39 3.75-9 5.2-12.09 5.32 1.07 1.32 3.17 2.19 5.23 2.19 4.88 0 9.57-3.66 13.43-6.13-1.9-.57-4.09-1.05-6.57-1.38Z" fill="#A0005B" /><path d="M10 15s4.53 4.54 12.9 4.54c8.36 0 11.96-1.54 15.6-1.54 3.64 0 4.38 1.38 5.06 2.3.69.92 1.23 5.7-8.81 5.7C24.71 26 10.74 22.3 10 15Z" fill="#00B5D0" /><path d="m43.56 20.3.17.32c.53 1.4.2 5.38-8.98 5.38-.71 0-1.37-.02-2.12-.06C37.83 18.66 40.8 19 40.8 19a3.09 3.09 0 0 1 2.76 1.3Z" fill="#5E2880" /></svg>