<!-- by TradeStack --><svg width="56" height="56" viewBox="0 0 56 56" xmlns="http://www.w3.org/2000/svg"><path fill="#F0F3FA" d="M0 0h56v56H0z"/><path d="M47 31.6c0 2.07-1.69 3.4-4.37 3.4-1.2 0-2.49-.23-3.63-.68v-2.39c1.43.69 2.5.97 3.65.97 1.27 0 1.9-.39 1.9-1.09 0-.58-.5-.95-1.64-1.2l-1.02-.23C40 29.96 39 28.88 39 27.26c0-1.94 1.58-3.26 3.97-3.26 1.26 0 2.38.24 3.48.74v2.32a7.17 7.17 0 0 0-3.38-.97c-1.1 0-1.63.33-1.63.96 0 .65.45.97 1.62 1.22l1.02.22c1.93.42 2.92 1.48 2.92 3.12ZM34.5 32.51c-.54.16-1.23.26-1.8.26-1.24 0-2.2-.66-2.2-2.08V24H28v6.83c0 2.93 1.77 4.17 4.69 4.17 1.57 0 3.23-.36 4.31-.82V24h-2.5v8.51ZM22.82 28.54 20.57 24h-2.84l3.77 7.1V35H24v-3.9l3.73-7.1h-2.8l-2.1 4.54ZM17 26.17V24H9v2h5l-5 6.85V35h8v-2h-4.97L17 26.17Z" fill="#1E1A33"/><path d="M48 19H9v2h37.67L48 19Z" fill="#54A9D2"/></svg>