<?xml version='1.0' encoding='utf-8'?>
<!-- by TradeStack -->
<svg width="56" height="56" viewBox="0 0 56 56" xmlns="http://www.w3.org/2000/svg"><path fill="#F0F3FA" d="M0 0h56v56H0z" /><path d="M24 23v10h-1.75L18 26.77V33h-2V23h1.77L22 29.33V23h2ZM34.45 23l2 3.4h.08l2.02-3.4h2.38l-3.04 5L41 33h-2.42l-2.05-3.41h-.07L34.4 33H32l3.12-5-3.06-5h2.39ZM42 24.5V23h8v1.5h-3V33h-2v-8.5h-3ZM7.01 33v-1.25l5.49-7.25H7V23h8v1.25L9.5 31.5H15V33H7.01ZM25 33V23h6v1.5h-4v2.73h3.66v1.52H27v2.75h4V33h-6Z" /></svg>