<?xml version='1.0' encoding='utf-8'?>
<!-- by TradeStack -->
<svg width="56" height="56" viewBox="0 0 56 56" xmlns="http://www.w3.org/2000/svg"><path fill="#F0F3FA" d="M0 0h56v56H0z" /><path d="M29.5 27a1.5 1.5 0 1 0 0-3 1.5 1.5 0 0 0 0 3Z" fill="#0075C1" /><path d="M8 21.87v1.08c2.78-.05 5.2.63 7.27 2.04 3.19 2.19 5.09 3.44 5.69 3.77.1.05.15.14.15.26a7.61 7.61 0 0 0 .2 2.24 22.58 22.58 0 0 1 .94 9.65l.02.05.04.03a.1.1 0 0 0 .05.01h16.8c.04 0 .08-.02.1-.05a.17.17 0 0 0 .06-.1c.04-.9.15-1.8.31-2.7.08-.42.33-1.28.75-2.57.6-1.86.92-3.7.94-5.52 0-.12.05-.23.14-.3a7.28 7.28 0 0 0 2.06-2.91c1.67-4.33-1.22-9.42-5.66-9.55a6.5 6.5 0 0 0-3.57.92c-.1.06-.2.06-.3 0a9.14 9.14 0 0 0-8.4-.37.36.36 0 0 1-.3 0c-2.28-1.12-4.25-.7-5.91 1.24a5.2 5.2 0 0 0-.43.67l-.17.3c-.07.11-.16.15-.28.11A27.93 27.93 0 0 0 8 18.88v1.1c1.85-.07 3.69.01 5.52.23 1.95.23 4 .82 6.01 1.4l1.2.35c.24.07.87.16 1.87.28.06 0 .1 0 .15-.03a.3.3 0 0 0 .12-.1l.77-1.08c2.31-3.14 5.98-3.5 9.4-2.01.08.03.09.09.03.16l-.73.88c-.1.13-.09.24.05.33l.63.38c.13.09.26.06.36-.07.38-.5.62-.78.72-.86 2.32-1.81 4.6-1.84 6.81-.1 1.8 1.42 2.48 4.26 1.62 6.57a5.52 5.52 0 0 1-4.87 3.72c-.06 0-.1.04-.1.1l-.05.91c0 .1.04.14.12.13.78-.01 1.59-.2 2.42-.56.13-.05.19 0 .17.14a15.7 15.7 0 0 1-.6 3.5 22.4 22.4 0 0 0-1.3 5.52c-.01.1-.1.23-.2.23h-3.01c-.04 0-.06 0-.06-.1l.23-3.93c0-.12.06-.22.16-.28l1.46-.9a.2.2 0 0 0 .09-.13c.01-.05 0-.1-.02-.15l-.42-.77c-.07-.14-.17-.16-.28-.05a6.46 6.46 0 0 1-4.57 1.73c-.2 0-.31.12-.32.33l-.23 4.02c0 .1-.09.23-.18.23h-3.48c-.06 0-.1-.1-.1-.16l.28-4.81c0-.19-.07-.3-.24-.35a6.9 6.9 0 0 1-2.13-1.02c-.08-.06-.14-.04-.18.04l-.45.83c-.04.08-.02.13.05.17l1.65.85c.1.05.14.13.13.25l-.22 3.93c0 .12-.1.27-.22.27H23.6c-.1 0-.19-.15-.18-.26.1-1.84.05-3.52-.16-5.06-.1-.7-.31-1.53-.53-2.37-.24-.96-.49-1.94-.59-2.8a.1.1 0 0 1 .03-.08.08.08 0 0 1 .05-.03h.02l2.4.35c.02 0 .05.01.07.03a.17.17 0 0 1 .05.08.2.2 0 0 1-.04.19c-.38.4-.75.67-1.12.84-.12.05-.15.14-.08.27l.36.67c.05.09.11.11.2.07a3.91 3.91 0 0 0 2.13-2.62c.07-.27-.02-.41-.28-.43-2.55-.15-4.27-.93-6.58-2.46L16.1 24.2A13.17 13.17 0 0 0 8 21.87Zm14.26-.9-2.44-.35c-.1-.02-.12-.07-.06-.16 1.1-1.73 2.59-2.36 4.44-1.9.02 0 .04.02.06.04.02.02.03.04.03.07.01.02 0 .05 0 .07a8.47 8.47 0 0 0-1.99 2.22h-.04Zm10.3 15.55 1.6-.23h.01v.01l-.19 3.38c0 .18-.1.32-.27.32h-1.38c-.09 0-.13-.1-.12-.19l.17-3.1c0-.05.03-.1.06-.13a.2.2 0 0 1 .12-.06Z" fill="#0075C1" /></svg>