<!-- by TradeStack --><svg width="56" height="56" viewBox="0 0 56 56" xmlns="http://www.w3.org/2000/svg"><path fill="url(#aoeqjqz5l)" d="M0 0h56v56H0z"/><path d="M9 26.4V33H7V23h2.06L14 29.6V23h2v10h-2.06L9 26.4ZM42 30.3a7.2 7.2 0 0 0 3.42 1.02c.8 0 1.58-.33 1.58-1.1 0-.94-1.12-1.02-2.4-1.45-1.36-.46-2.6-1.16-2.6-2.94 0-1.91 1.4-3.1 3.48-3.1.98 0 2.17.25 3.03.74v2.22a6.16 6.16 0 0 0-3.04-1c-.75 0-1.47.29-1.47.97 0 .9 1.11.97 2.3 1.38 1.5.51 2.7 1.23 2.7 3.04 0 2-1.47 3.2-3.6 3.2a8.6 8.6 0 0 1-3.4-.72V30.3ZM29.37 21.71h-.02l-.14-.01.4-4.7a1.93 1.93 0 0 0 .2.01l.89.1.05.02-.66 4.67a5.54 5.54 0 0 0-.72-.09Zm-1.02-4.68-1.15.13.66 4.64c.3-.05.59-.08.88-.09l-.39-4.68Zm-2.35.4-1.1.36 1.64 4.4c.27-.1.55-.2.83-.28L26 17.42Zm-3.18 1.47.98-.6 2.32 4.1c-.27.13-.52.3-.76.46l-2.54-3.96Zm2.17 4.24-3.15-3.5-.84.8 3.35 3.31c.2-.2.41-.42.64-.6Zm-5.43-.79.64-.96 3.84 2.74a5.8 5.8 0 0 0-.5.73l-3.98-2.5ZM23 26.1c.08-.29.2-.56.32-.83L19 23.41v.01l-.43 1.06 4.44 1.6Zm10.05-8.33-1.1-.37-1.38 4.5c.29.08.56.18.83.3l1.65-4.43Zm2.08 1.1-2.55 3.97c-.23-.17-.5-.32-.76-.45l2.33-4.12v.01h.02l.96.6Zm-1.52 4.86 3.34-3.31-.84-.8-3.15 3.5c.23.2.45.4.65.61Zm4.14-2.37.65.96-3.98 2.5c-.15-.25-.32-.5-.5-.73l3.83-2.73Zm1.63 3.1-.42-1.07-4.32 1.84c.13.26.24.54.33.82l4.41-1.59Zm.35 1.2.18 1.13-4.66.62c-.02-.3-.07-.59-.14-.87l4.62-.89ZM35.3 28v.3l-.03.31-.02.14 4.68.4c.04-.38.06-.77.06-1.16l-4.7-.13V28Zm-.21 1.6.05-.22.03-.14 4.57 1.1c-.08.38-.18.75-.3 1.12l-4.5-1.37.04-.13.1-.3v-.05Zm3.34 4.05.54-1.02-4.22-2.1c-.12.27-.26.54-.42.78l4.1 2.34ZM37 35.55 33.5 32.4c.21-.21.4-.44.59-.68l3.68 2.94-.02.03-.67.79-.04.04-.02.02Zm-18.8-9.74-.13.82v.07l-.02.07 4.66.63.02-.14.04-.31v-.01l.06-.29.02-.1-4.6-.89-.05.15Zm4.49 2.5.02.31.02.14-4.68.4A9.94 9.94 0 0 1 18 28l4.7-.14v.44Zm.28 1.65-.1-.3-.06-.29-.03-.14-4.54 1.1c.08.37.18.75.3 1.11l4.47-1.35-.04-.13Zm.43.96.15.27.08.11-4.09 2.32c-.2-.32-.38-.66-.54-1.02l4.21-2.08.06.13.13.27Zm.97 1.36-.12-.12a6 6 0 0 0-.28-.34l-.08-.12-3.68 2.93c.24.3.48.6.75.88l3.5-3.13-.1-.1Zm-.56 5.43 2.11-4.22c.26.15.53.27.8.37l-1.86 4.33h-.02l-.95-.44-.08-.04Zm1.6-4.53-.07-.05-.19-.14-.23-.18-.1-.1-2.97 3.67c.1.1.22.18.33.27l.25.19.33.24 2.76-3.83-.12-.07Zm2.18.97.3.06.14.02-.89 4.62c-.38-.06-.75-.15-1.12-.25l1.15-4.56.13.04.28.07Zm1.71.13h-.75l-.13 4.71.2.01h.96l-.14-4.72h-.14Zm.59-.05c.3-.05.58-.11.87-.2l1.13 4.6-1.12.24h-.01l-.87-4.64Zm2-.65a2.63 2.63 0 0 1-.28.14l-.2.08-.08.04-.13.05 1.89 4.32.26-.12.65-.3.06-.04.07-.03L32 33.5a.26.26 0 0 1-.1.07Zm1.01-.64.14-.11.1-.09 2.98 3.64c-.3.26-.6.49-.92.7l-2.76-3.8.11-.08.25-.17.1-.09Z" fill="#fff"/><defs><linearGradient id="aoeqjqz5l" x1="10.42" y1="9.71" x2="68.15" y2="76.02" gradientUnits="userSpaceOnUse"><stop stop-color="#1A1E21"/><stop offset="1" stop-color="#06060A"/></linearGradient></defs></svg>