<!-- by TradeStack --><svg width="56" height="56" viewBox="0 0 56 56" xmlns="http://www.w3.org/2000/svg"><path fill="#F0F3FA" d="M0 0h56v56H0z"/><path fill-rule="evenodd" d="M24 24h-1.5v6H24v-3.68c.13-.42.45-1.03.94-1.03.58 0 .77.59.8.88V30h1.56v-3.93c.16-.38.44-.78.84-.78.58 0 .83.6.86.89V30h1.5v-4.02c0-.89-.6-1.98-1.73-1.98-.77 0-1.45.6-1.73.95a1.64 1.64 0 0 0-1.47-.95c-.82 0-1.36.51-1.57.83V24ZM4 30h5v-1.42H6.42L9 24H4.39v1.4H6.6L4 30Zm11.5-3c0 1.66-1.2 3-3 3s-3-1.34-3-3 1.02-3 3-3c1.88 0 3 1.34 3 3ZM14 27c0 .83-.6 1.5-1.5 1.5S11 27.83 11 27s.5-1.5 1.5-1.5c.94 0 1.5.67 1.5 1.5Zm5 3c1.8 0 3-1.34 3-3s-1.12-3-3-3c-1.98 0-3 1.34-3 3s1.2 3 3 3Zm0-1.5c.9 0 1.5-.67 1.5-1.5s-.56-1.5-1.5-1.5c-1 0-1.5.67-1.5 1.5s.6 1.5 1.5 1.5Z" fill="#A5CC3A"/><path d="M32 24h1v.68a2.6 2.6 0 0 1 1.75-.68c1.52 0 2.75 1.34 2.75 3s-1.23 3-2.75 3a2.6 2.6 0 0 1-1.75-.68V33h-1v-9Zm2.75 1c-.93 0-1.7.83-1.75 1.89v.22c.05 1.06.82 1.89 1.75 1.89.97 0 1.75-.9 1.75-2s-.78-2-1.75-2Zm8.75-1h-1v.68a2.6 2.6 0 0 0-1.75-.68C39.23 24 38 25.34 38 27s1.23 3 2.75 3a2.6 2.6 0 0 0 1.75-.68V30h1v-6Zm-2.74 1c.95 0 1.73.89 1.74 1.98v.04c-.01 1.1-.79 1.98-1.74 1.98-.96 0-1.74-.9-1.74-2s.78-2 1.74-2ZM45 27.83l-1 .37c.4 1.42 1.15 1.8 2.03 1.8.88 0 1.97-.7 1.97-1.93 0-1.24-1.08-1.74-1.75-1.88-.54-.12-.72-.4-.75-.52-.02-.23.07-.68.62-.68.54 0 .76.45.8.68l.84-.5A1.8 1.8 0 0 0 46.12 24a1.56 1.56 0 0 0-1.6 1.52c0 .46.33 1.43 1.41 1.68.87.2 1.06.66 1.04.87-.02.3-.24.92-.94.92s-.98-.77-1.03-1.16Zm3 .37 1-.37c.05.4.33 1.16 1.03 1.16s.92-.61.94-.92c.02-.2-.17-.66-1.03-.87a1.82 1.82 0 0 1-1.43-1.68c0-.46.38-1.52 1.6-1.52.99 0 1.51.78 1.65 1.17l-.84.5c-.04-.23-.26-.68-.8-.68-.55 0-.64.45-.62.68.03.12.2.4.75.52.67.14 1.75.64 1.75 1.88C52 29.3 50.91 30 50.03 30c-.88 0-1.63-.38-2.03-1.8Z" fill="#898B8D"/></svg>