<!-- by TradeStack --><svg width="56" height="56" viewBox="0 0 56 56" xmlns="http://www.w3.org/2000/svg"><path fill="#F0F3FA" d="M0 0h56v56H0z"/><path d="M19.87 29.48c0-.3-.17-.68-.26-.83l1.4-.21.14.82c-.35.07-1.1.22-1.28.22Z" fill="#019FAA"/><path d="M28 24h-1.07l-.57 3h1.09l.55-3ZM23.05 24H22l-.87 4.68c-.04.15-.13.53-.13.9 0 1.39.96 2.42 2.71 2.42 2.63 0 3.37-2.29 3.41-3.43H26.1l-.13.5A2.24 2.24 0 0 1 23.71 31c-1.28 0-1.7-.84-1.71-1.5 0-.16.01-.3.04-.42l1-5.08ZM29.25 32H28l.75-3.5H30l-.75 3.5ZM34 32h-1.12L32 29.36l1.1.16L34 32ZM30.2 27.67a7.72 7.72 0 0 0-1.2-.2l.66-3.47h3.17c.83 0 2.17.4 2.17 2.27 0 1.5-1.38 2.44-2.07 2.73-.28-.2-.9-.62-1.15-.74 1.1 0 1.95-.91 1.95-2 0-.86-.73-1.23-1.1-1.26h-1.95l-.48 2.67ZM39.64 31c1.3 0 2.29-.66 2.73-1.1l.16-.9H41l.2-1h2.54L43 32h-1.02l.18-1c-.53.5-1.38 1-2.52 1-2.11 0-3.64-1.28-3.64-3.35 0-3.18 3.1-4.65 4.99-4.65 1.5 0 2.63.69 3.01 1l-.7.76A3.55 3.55 0 0 0 41 25c-3.16 0-3.74 2.85-3.74 3.65 0 .8.58 2.35 2.4 2.35Z" fill="#00688F"/><path d="M19 29.71a1.3 1.3 0 0 0-.43-.72c-2.38.39-4.53.51-6.42.48C8.03 29.4 5.17 28.57 4 28c2.7 1.52 6.68 1.98 10.05 2 1.99.01 3.76-.13 4.95-.29ZM23.18 28.38l-.18.87a33.8 33.8 0 0 1 5.65-.33c4.1 0 5.94 1.79 6.35 2.08-1.63-2.3-4.26-3-6.53-3-1.82 0-4.28.25-5.29.38Z" fill="#019FAA"/><path d="m20 24.8-.6.83c-.16-.2-.69-.6-1.59-.6-1.12 0-1.69.71-1.69 1.27s.72.99 1.24 1.18c.52.2 1.9.86 1.9 2.18 0 1.3-1.3 2.34-2.8 2.34A3.7 3.7 0 0 1 14 30.99l.7-.77c.26.25.99.77 1.77.77.97 0 1.71-.65 1.71-1.25s-.54-.9-1.15-1.27c-.6-.36-2.01-.94-2.01-2.17 0-1.22 1.3-2.3 2.8-2.3 1.19 0 1.95.53 2.18.8ZM47.2 24h-.68L45 32h4.8l.2-1h-3.7l.56-3h2.95l.19-1h-2.95l.38-2h3.38l.19-1h-3.81Z" fill="#00688F"/></svg>