<?xml version='1.0' encoding='utf-8'?>
<!-- by TradeStack -->
<svg width="56" height="56" viewBox="0 0 56 56" xmlns="http://www.w3.org/2000/svg"><path fill="#F0F3FA" d="M0 0h56v56H0z" /><path d="M21.74 15.68c1.56 5.87 4.86 7.5 6.06 7.67l4.98-13.04C32.22 9.87 30.85 9 29.8 9s-2.85.97-3.61 1.45c.18.03.28.06-.76 0-1.3-.08-3.49 2.11-3.44 3.51.04 1.12 1.36 3.06 2.01 3.9-.92-.37-1.89-1.61-2.26-2.18z" fill="#5457A4" /><path d="M29.28 23.26c-1.81-.2-2.48-4-2.59-5.88.14.4.52 1.24.9 1.46.14-.45-.04-.93-.15-1.1-1.07-2.14-.5-5.32-.39-5.67.1-.36 1.71-2.6 4.93-2.15 2.57.35 4.43 4.63 5.03 6.73 2.43 5.76 4.7 6.43 5.27 6.43.57 0 1.13-.23 1.13-.74 0-.42-.24-.6-.36-.64.84 0 .98.77.95 1.15 0 1.99-2.67 1.35-3.47.9-.64-.35-1.33-.66-1.59-.78.09.33 1.2 1.05 1.73 1.37-2.34.13-5.08-2.75-6.08-4.2a5.56 5.56 0 0 0 1.51 2.43c-1.41-.22-3.47-2.26-4.32-3.26.13.72-.23 4.2-2.5 3.95z" fill="#239A4A" /><path d="M43.35 21.73c.58.16.68.79.64 1.12 0 1.99-2.66 1.35-3.46.9-.64-.35-1.33-.66-1.59-.78.09.33 1.2 1.05 1.73 1.37-2.34.13-5.08-2.75-6.08-4.2a5.56 5.56 0 0 0 1.51 2.43c-.2-.04-.43-.1-.66-.2-1.2-1.29-2.97-3.36-3.43-4.64-.25-.71-.71-1.2-1.12-1.65-.67-.72-1.2-1.3-.53-2.42.43-.24 1.5-.55 2.29.13.98.86 4.16 4.59 5 6.01.85 1.43 5.02 5.9 6.07 2.61.04-.06.02-.28-.37-.68z" fill="#108246" /><path d="M28 36.37v2.71l-1.45.2-3.68-2.05-3.26-3.69V32L28 36.37z" fill="#3F3F41" /><path d="M28 19v17.67c-2.3 0-6.46-2.85-8.25-4.27v.7c3.57 4.93 7 6.02 8.25 5.95V47c-2.94-1.52-7.61-6.18-8.52-7.48-.56-.79-.48-9.32-.48-9.32 0-3.92 4.77-6.75 7.04-7.68.63-.47 1.57-2.54 1.96-3.52z" fill="url(#aeygnn2gn)" /><path d="M25.72 43.9l-.8-.66v-3.9l.8.53v4.02zM27.44 45.07l-.85-.7v-4.13l.85.56v4.27zM24.32 42.7l-.87-.74v-3.63l.87.6v3.78zM22.91 37.93l-.78-.64v3.5l.78.72v-3.58zM20.66 35.77v3.7l.82.77v-3.7l-.82-.77z" fill="#3F3F41" /><path d="M28 36.37v2.71l1.45.2 3.68-2.05 3.26-3.69V32L28 36.37z" fill="url(#beygnn2gn)" /><path d="M28 19v17.67c2.3 0 6.46-2.85 8.25-4.27v.7c-3.57 4.93-7 6.02-8.25 5.95V47c2.94-1.52 7.61-6.18 8.52-7.48.6-.84.48-9.32.48-9.32 0-3.92-4.77-6.75-7.04-7.68-.63-.47-1.57-2.54-1.96-3.52z" fill="#474749" /><path d="M35.34 39.48v-3.7l-.82.77v3.69l.82-.76zm-2.25-1.55l.78-.64v3.5l-.78.72v-3.58zm-.54 4.03l-.87.75v-3.78l.87-.6v3.63zm-2.27 1.93l.8-.65v-3.9l-.8.53v4.02zm-1.72 1.18l.85-.7v-4.13l-.85.56v4.27z" fill="url(#ceygnn2gn)" /><defs><linearGradient id="aeygnn2gn" x1="29.84" y1="34.87" x2="19" y2="34.87" gradientUnits="userSpaceOnUse"><stop stop-color="#CFD0D2" /><stop offset="1" stop-color="#95969B" /></linearGradient><linearGradient id="beygnn2gn" x1="28" y1="37.95" x2="35.96" y2="32.06" gradientUnits="userSpaceOnUse"><stop stop-color="#77787D" /><stop offset="1" stop-color="#77787C" /></linearGradient><linearGradient id="ceygnn2gn" x1="28.56" y1="42.72" x2="37.83" y2="36.77" gradientUnits="userSpaceOnUse"><stop stop-color="#77787D" /><stop offset="1" stop-color="#77787D" stop-opacity="0" /></linearGradient></defs></svg>