<!-- by TradeStack --><svg width="56" height="56" viewBox="0 0 56 56" xmlns="http://www.w3.org/2000/svg"><path fill="#13322B" d="M0 0h56v56H0z"/><path d="M37.5 33.48c0-1.49-.69-2.48-1.73-2.48-.56 0-1.02.4-1.23.66l-.04-.02v-.58l-.06-.06-1.94.11v.3c.26.02.47.5.5.72v5.02c0 .22-.06.4-.24.46-.13.04-.1.08-.26.08V38h2.85v-.3a2.13 2.13 0 0 1-.6-.16c-.16-.07-.25-.24-.25-.46v-1.39h.04c.2.17.53.31 1.03.31.91 0 1.93-1.12 1.93-2.52Zm-1.5.02c0 1.43-.2 2.12-.73 2.12-.46 0-.68-.41-.77-.72v-2.83c.18-.26.38-.44.74-.44.69 0 .76.95.76 1.87ZM16 32v.38c-.2.01-.45.06-.64.12-.27.1-.36.27-.36.52v2.89l-.3.09-.7-.64a5 5 0 0 1-2.37.64C9.65 36 8 34.75 8 32.1c0-2.44 1.65-4.1 4-4.1a5 5 0 0 1 2.24.53l.34-.53H15v3h-.45c-.56-1.72-1.43-2.53-2.5-2.53-1.35 0-2.55 1.37-2.55 3.53 0 2.11 1.26 3.5 2.4 3.5.72 0 1.42-.45 1.6-1.1v-1.29c0-.25-.07-.44-.33-.55a2.54 2.54 0 0 0-.67-.18V32H16ZM15 24.67h-.38a6.72 6.72 0 0 1-.94 1.6c-.2.23-.52.3-1.68.3h-2l5-6.3V20H8.64l-.22 2h.41c.57-1.03.87-1.33 1.14-1.44.22-.1.51-.15 1.11-.15H13l-5 6.32V27h6.77l.23-2.33ZM34 26.64a2.98 2.98 0 0 1-.47-.08c-.28-.09-.41-.17-.54-.57l-.05-.15-.33-1c-.28-.8-1-1.13-1.61-1.3v-.1c1-.3 1.5-.73 1.5-1.84 0-1.14-.6-1.6-2.09-1.6H27v.34c.17.02.52.09.7.17.23.1.3.28.3.5v5.03c0 .23-.08.42-.3.5-.11.06-.53.1-.7.12V27h3.5v-.34c-.17-.02-.6-.09-.72-.15-.2-.1-.28-.27-.28-.5v-2.28h.11c.7 0 1.15.48 1.44 1.3.24.7.38 1.21.52 1.97H34v-.36Zm-3-4.91c0 1.1-.5 1.57-1.3 1.57h-.2v-2.89h.35c.82 0 1.15.39 1.15 1.32ZM39 24.47c0-1.43-.93-2.47-2.5-2.47-1.53 0-2.5 1.02-2.5 2.5 0 1.56 1.12 2.5 2.46 2.5 1.68 0 2.54-1.12 2.54-2.53Zm-1.5-.01c0 1.2-.3 2.18-.99 2.18-.72 0-1.01-1-1.01-2.2 0-.96.22-2.08 1.01-2.08.74 0 .99 1.03.99 2.1ZM26 33.47c0-1.43-.93-2.47-2.5-2.47-1.53 0-2.5 1.02-2.5 2.5 0 1.56 1.12 2.5 2.46 2.5 1.68 0 2.54-1.12 2.54-2.53Zm-1.5-.01c0 1.2-.3 2.18-.99 2.18-.72 0-1.01-1-1.01-2.2 0-.96.22-2.08 1.01-2.08.74 0 .99 1.03.99 2.1ZM50 25.7l-.36-.23c-.35.56-.78 1.03-1.42 1.03-1.1 0-1.72-.88-1.72-2.2H50v-.28c0-1.08-.82-2.02-2.5-2.02a2.39 2.39 0 0 0-2.5 2.47c0 1.42.85 2.53 2.67 2.53A2.7 2.7 0 0 0 50 25.7Zm-2.5-3.34c.63 0 1 .84 1 1.64h-2c.01-1.04.5-1.64 1-1.64ZM21 26.54v.32l-1.92.14-.08-.07v-.64c-.38.4-.76.71-1.63.71-.94 0-1.37-.72-1.37-1.7v-2.2c-.03-.25-.22-.64-.5-.67v-.3l1.94-.13.06.07v3.22c0 .7.24 1.05.56 1.05a1 1 0 0 0 .94-.54v-2.73c-.02-.3-.2-.6-.5-.62v-.32l1.93-.13.07.07v3.86c.03.22.11.38.27.5.12.08.05.1.23.1ZM32 35.54v.32l-1.92.14-.08-.07v-.64c-.38.4-.76.71-1.63.71-.94 0-1.37-.72-1.37-1.7v-2.2c-.03-.25-.22-.64-.5-.67v-.3l1.94-.13.06.07v3.22c0 .7.24 1.05.56 1.05a1 1 0 0 0 .94-.54v-2.73c-.02-.3-.2-.6-.5-.62v-.32l1.93-.13.07.07v3.86c.03.22.11.38.27.5.12.08.05.1.23.1ZM24.7 22c.47 0 .8.41.8 1.01 0 .5-.26.91-.68.93-.36 0-.66-.21-.66-.68 0-.23.06-.44.07-.51-.4 0-.65.4-.73.54v2.79c0 .26.22.57.5.6V27h-2.5v-.32c.31-.03.5-.22.5-.55V23.2a.81.81 0 0 0-.24-.55c-.11-.1-.1-.14-.26-.15v-.3l1.95-.14.05.08v.7c.38-.56.76-.84 1.2-.84ZM19.7 31c.47 0 .8.41.8 1.01 0 .5-.26.91-.68.93-.36 0-.66-.21-.66-.68 0-.23.06-.44.07-.51-.4 0-.65.4-.73.54v2.79c0 .26.22.57.5.6V36h-2.5v-.32c.31-.03.5-.22.5-.55V32.2a.81.81 0 0 0-.24-.55c-.11-.1-.1-.14-.26-.15v-.3l1.95-.14.05.08v.7c.38-.56.76-.84 1.2-.84ZM42.59 23.9c.82.25 1.41.7 1.41 1.53 0 1.03-1.11 1.6-2.21 1.57-.66 0-1.02-.27-1.23-.43l-.22.43H40v-2h.3c.17.58.69 1.63 1.49 1.63.52 0 .71-.31.71-.63 0-.43-.27-.8-.99-1.02-.64-.22-1.51-.57-1.51-1.53 0-.78.81-1.45 1.99-1.45a5 5 0 0 1 1.57.28l.11-.28H44v1.6h-.3c-.2-.66-.97-1.22-1.54-1.22-.45 0-.66.28-.66.63 0 .51.27.63 1.09.88Z" fill="#fff"/></svg>