<?xml version='1.0' encoding='utf-8'?>
<!-- by TradeStack -->
<svg width="56" height="56" viewBox="0 0 56 56" xmlns="http://www.w3.org/2000/svg"><path fill="#F0F3FA" d="M0 0h56v56H0z" /><path fill-rule="evenodd" d="M4 22h9v2.36L7.64 31.5H13V34H4v-2.16l5.5-7.34H4V22Zm21 6a6 6 0 1 1-12 0 6 6 0 0 1 12 0Zm-2.5 0a3.5 3.5 0 1 1-7 0 3.5 3.5 0 0 1 7 0Zm9.5 6a6 6 0 1 0 0-12 6 6 0 0 0 0 12Zm0-2.5a3.5 3.5 0 1 0 0-7 3.5 3.5 0 0 0 0 7Zm7 2.5V22h2.59l3.95 7.45 3.8-7.45H52v12h-2.5v-5.96L46.31 34h-1.59l-3.22-5.96V34H39Z" fill="url(#afwds25oe)" /><defs><linearGradient id="afwds25oe" x1="28" y1="22" x2="28" y2="34" gradientUnits="userSpaceOnUse"><stop stop-color="#003A6E" /><stop offset=".43" stop-color="#00407A" /><stop offset="1" stop-color="#00325F" /></linearGradient></defs></svg>