<!-- by TradeStack --><svg width="56" height="56" viewBox="0 0 56 56" xmlns="http://www.w3.org/2000/svg"><path fill="#F0F3FA" d="M0 0h56v56H0z"/><path d="M37.07 36h-.26l-.58-.06c-1.9-.16-3.01-1.32-3.18-3.32a14.2 14.2 0 0 1-.05-1.55c0-.05.05-.07.1-.07h2.85c.05 0 .1.02.1.08-.03.58-.02 1.11.03 1.6.05.45.34.84.82.86.9.04 1.06-.79 1.09-1.47.04-1.04-.46-1.9-1.31-2.57a32.2 32.2 0 0 1-2.08-1.8 4.25 4.25 0 0 1-1.36-2.87c-.17-2.49.58-4.67 3.48-4.82 2.12-.1 3.75.75 3.96 3.08.05.54.06 1.28.04 1.82 0 .06-.03.09-.09.09H37.9c-.07 0-.1-.03-.1-.1.04-.53.03-1.25-.03-1.73-.06-.42-.25-.65-.6-.7-.95-.12-1.04 1.1-.98 1.73.06.62.52 1.17 1.15 1.64.67.51 1.33 1.05 1.97 1.61.95.85 1.53 1.91 1.65 3.22.22 2.32-.24 4.7-2.89 5.22-.17.04-.5.07-1 .11ZM21 23.04v12.93a.04.04 0 0 1-.04.03H6.04l-.03-.01-.01-.03v-2.37l6.9-9.56.01-.02.02-.01h1.08l.01.03a.04.04 0 0 1 0 .04L7 33.87s0-.02 0 0V35h10.5v-1H8.55l7.9-10.92a.04.04 0 0 0 0-.05v-.01L16.4 23H7.05L7.02 23 7 22.96v-2.92s0-.02.02-.03l.03-.01h16.9l.04.01.01.04v2.9l-.01.03-.04.02h-2.9a.04.04 0 0 0-.05.04ZM16 21H8v1h8c-.01.01.01 0 0 0 0 .01.01-.01 0 0v-1Zm-5.55 11.92a.05.05 0 0 0 .01.06l.03.02H18V23h-.12l-.02.01-.01.02-7.4 9.89ZM50 22.78V23h-2.97l-.01.02-.01.01V35.92c0 .06-.04.08-.1.08h-2.84c-.05 0-.07-.02-.07-.07V23.07c0-.05-.03-.07-.08-.07H41.1c-.07 0-.1-.03-.1-.09V20.1c0-.02.01-.05.03-.06a.1.1 0 0 1 .07-.03h8.78c.05 0 .12.02.12.07v2.71ZM28.05 33h3.9l.02.01.02.01a.06.06 0 0 1 .01.05l-.36 2.88-.01.04a.05.05 0 0 1-.04.01h-6.54c-.01 0-.02 0-.03-.02a.06.06 0 0 1-.02-.04V20.06a.06.06 0 0 1 .02-.04.05.05 0 0 1 .04-.02h6.52a.06.06 0 0 1 .03.06v2.88l-.01.04-.04.02h-3.5l-.04.01a.06.06 0 0 0-.02.04v2.9c0 .02 0 .03.02.04l.03.01h3.33l.02.01.02.01a.06.06 0 0 1 .02.04v2.9c0 .02-.03.04-.06.04h-3.33c-.01 0-.02 0-.03.02a.06.06 0 0 0-.02.04v3.9l.01.03.04.01Z" fill="#0047BA"/></svg>