<?xml version='1.0' encoding='utf-8'?>
<!-- by TradeStack -->
<svg width="56" height="56" viewBox="0 0 56 56" xmlns="http://www.w3.org/2000/svg"><path fill="#F0F3FA" d="M0 0h56v56H0z" /><path fill-rule="evenodd" d="M15 21H9v2h3.59L9 33.51V35h6v-2h-3.57L15 22.46V21Zm4 0h2v14h-2V21Zm21 3.31A3.41 3.41 0 0 1 43.5 21c1.93 0 3.5 1.48 3.5 3.31v7.38A3.41 3.41 0 0 1 43.5 35a3.41 3.41 0 0 1-3.5-3.31V24.3Zm2 .02c0-.73.67-1.33 1.5-1.33s1.5.6 1.5 1.33v7.34c0 .73-.67 1.33-1.5 1.33s-1.5-.6-1.5-1.33v-7.34ZM26 21h-1.5v2H26v12h2V23h1.5v-2H26Zm6.5 0h5v2H36v12h-2V23h-1.5v-2Z" fill="#231815" /></svg>