<?xml version='1.0' encoding='utf-8'?>
<!-- by TradeStack -->
<svg width="56" height="56" viewBox="0 0 56 56" fill="none" xmlns="http://www.w3.org/2000/svg">
<rect width="56" height="56" fill="#F0F3FA" />
<path d="M37.9898 34H30.6002C30.2687 34 30 33.737 30 33.4032C30 33.2217 30.0794 33.0512 30.219 32.9363C33.2199 30.4681 38.8068 25.575 40 24.5C40 22 38.9828 19.8101 38.5 19C36.0594 19.162 30.446 20 27.0345 20C22.7701 20 21 18.8582 21 16.9139C21 14.9696 21.7545 12.3772 21.9154 11.9722C21.9741 11.8245 22.0114 11.6554 22 11.5C21.9802 11.2291 21.8124 11 21.3522 11C20.6281 11 14 17.157 14 21.7747C14 25.4689 18.6667 25.973 21 26H24.3756C24.7446 26 24.9795 26.2716 25 26.5644C25.0138 26.7625 24.9296 26.9703 24.7224 27.1105C21.2461 29.4616 16 32.0581 16 36.762C16 41.1691 19.6858 42.757 21.6437 43L37.9898 42C40.1152 41.8816 42 40.1433 42 38C42 35.77 40.2046 34 37.9898 34Z" fill="#005098" />
</svg>