<?xml version='1.0' encoding='utf-8'?>
<!-- by TradeStack -->
<svg width="56" height="56" viewBox="0 0 56 56" xmlns="http://www.w3.org/2000/svg"><path fill="#F0F3FA" d="M0 0h56v56H0z" /><path d="m49 22.88-.54 2.94c-1-.57-2.22-.76-3.22-.76s-1.7.38-1.76.91c-.07.54.84.62 1.56.62 2.94.23 3.69 1.56 3.45 3.44-.4 3.05-2.95 3.97-5.31 3.97a11 11 0 0 1-4.18-.84l.4-3.13c.4.38 2.44.95 3.6.95 1.16 0 1.66-.15 1.74-.76.08-.61-.58-.8-1.38-.8-3.52-.35-3.79-1.69-3.56-3.45.33-2.63 2.79-3.97 5.3-3.97 2.03 0 3.44.59 3.9.88ZM28 22h-8.48L18 34h8.48l.4-3h-5.15l.15-1.4h4.74l.4-3.2H22.3l.15-1.4h5.15l.41-3Zm4.78 0h-3.72l-1.03 8.4a3.13 3.13 0 0 0 3.19 3.6h2.67c2 0 3.83-1.61 4.08-3.6L39 22h-3.72l-.98 7.76A1.45 1.45 0 0 1 32.9 31c-.7 0-1.19-.56-1.1-1.24l.98-7.76ZM8.5 22H18l-.25 2.04L11.92 31h4.98l-.4 3H7l.26-2.12L12.84 25H8.1l.4-3Z" /><path d="M14.35 28.12 23 18l-3.35 6.32h2.22l-2.74 4.22h2.56L13 39l3.35-6.7-2.3.38 3.27-5.06-2.97.5Z" fill="url(#a)" /><defs><linearGradient id="a" x1="19.31" y1="18" x2="19.31" y2="39" gradientUnits="userSpaceOnUse"><stop stop-color="#029CDD" /><stop offset="1" stop-color="#025C94" /></linearGradient></defs></svg>