<!-- by TradeStack --><svg viewBox="0 0 56 56" xmlns="http://www.w3.org/2000/svg"><path fill="#F0F3FA" d="M0 0h56v56H0z"/><path d="M44 22.6a5.8 5.8 0 0 1 4-1.6l-.02.78a5.1 5.1 0 0 0-3.5 1.42c-1.17 1.08-2.12 2.91-2.12 5.89 0 3.18-1.07 5.18-2.43 6.37A6.17 6.17 0 0 1 36 37v-.78c.88 0 2.3-.32 3.48-1.37 1.17-1.03 2.15-2.79 2.15-5.76 0-3.18 1.03-5.23 2.37-6.48Z" fill="#7BBE44"/><path d="M51.42 29.03c0-.47-.09-.92-.28-1.35a3.38 3.38 0 0 0-5.56-1.1 3.48 3.48 0 0 0 0 4.87 3.5 3.5 0 0 0 2.42 1 3.5 3.5 0 0 0 2.41-1 3.5 3.5 0 0 0 1.01-2.42ZM52 33h-.58v-2.01A3.82 3.82 0 0 1 48 33a3.94 3.94 0 0 1-2.83-1.16A3.9 3.9 0 0 1 44 29.03 4.01 4.01 0 0 1 48 25c.55 0 1.07.1 1.56.33a3.97 3.97 0 0 1 2.44 3.7V33Zm-16-4.72c0-.55.1-1.03.28-1.46a2.89 2.89 0 0 1 2.04-1.68c.5-.14 1.05-.17 1.68-.11v.52c-1.06-.09-1.89.1-2.5.57-.6.47-.9 1.19-.9 2.16V33H36v-4.72Zm-8.42.73c0 .24.03.48.08.73l6.38-2.5c-.3-.52-.72-.93-1.25-1.25a3.3 3.3 0 0 0-3.08-.19 3.43 3.43 0 0 0-1.86 1.85c-.18.43-.27.88-.27 1.36ZM35 30.45c-.3.83-.78 1.46-1.44 1.9-.65.43-1.45.65-2.41.65a4.23 4.23 0 0 1-3.83-2.41c-.21-.49-.32-1-.32-1.56A4.01 4.01 0 0 1 31.06 25c.42 0 .82.06 1.21.2a3.81 3.81 0 0 1 1.94 1.32c.25.3.46.63.62 1l-7 2.77a3.19 3.19 0 0 0 1.27 1.57c.3.19.61.34.96.44a4.3 4.3 0 0 0 2.34-.01 2.94 2.94 0 0 0 1.54-1.1c.18-.23.33-.48.44-.74H35Zm-11.46 2.59h-.61L19 22h.61l3.62 10.2L26.84 22h.61l-3.9 11.04Zm-5.53-.71c.15-.14.28-.3.4-.46v1.73a2.8 2.8 0 0 1-1.75 2.61c-.36.14-.75.2-1.17.2-.42 0-.8-.06-1.16-.2a2.8 2.8 0 0 1-1.52-1.48 2.99 2.99 0 0 1-.21-1.13H12a3.22 3.22 0 0 0 2.09 3.14 3.85 3.85 0 0 0 2.81 0 3.29 3.29 0 0 0 1.84-1.77c.17-.42.26-.87.26-1.37V25h-.6v4.89a2.8 2.8 0 0 1-1.74 2.61c-.36.14-.75.2-1.17.2-.42 0-.8-.06-1.16-.2a2.8 2.8 0 0 1-1.52-1.48 2.99 2.99 0 0 1-.21-1.13V25H12v4.89a3.22 3.22 0 0 0 2.09 3.14 3.85 3.85 0 0 0 2.81 0c.43-.16.8-.4 1.11-.7ZM11 33H4v-.6l6.34-9.81H4.18V22H11v.57l-6.35 9.84H11V33Z" fill="#006AB0"/></svg>