<!-- by TradeStack --><svg viewBox="0 0 56 56" xmlns="http://www.w3.org/2000/svg"><path fill="#F0F3FA" d="M0 0h56v56H0z"/><path d="M46.35 33C44.92 33 44 31.89 44 30.5s.96-2.5 2.4-2.5c.53 0 1.08.2 1.47.59l-.35.36a1.55 1.55 0 0 0-1.12-.45c-1.12 0-1.9.95-1.9 2 0 1.03.74 2 1.88 2 .52 0 .92-.15 1.26-.5l.36.3c-.42.45-.95.7-1.65.7ZM43 33v-5h.5v5H43ZM36 33c-1.28 0-2-.83-2-2.1V28h.5v2.92c0 .86.56 1.58 1.5 1.58s1.5-.7 1.5-1.58V28h.5v2.9c0 1.27-.72 2.1-2 2.1ZM26 33v-5h1.29c.95 0 1.71.43 1.71 1.46 0 1-.73 1.54-1.69 1.54h-.81v2H26Zm.5-2.5h.74c.83 0 1.26-.31 1.26-1.04 0-.76-.61-.96-1.29-.96h-.71v2Z"/><path d="M26 33h-.5l-.66-1.55h-2.67L21.5 33H21l2.1-5h.8l2.1 5Zm-3.64-2.02h2.3l-1.17-2.73-1.13 2.73ZM18 33v-5h1.36c.88 0 1.64.57 1.64 1.5 0 .91-.63 1.5-1.52 1.5h-.98v2H18Zm.5-2.48h.9c.69 0 1.08-.36 1.08-1.02s-.48-1-1.08-1h-.9v2.02ZM20.41 33l-1.16-2.18.42-.3L21 33h-.59ZM8.5 33v-5H9v2h2.5v-2h.5v5h-.5v-2.48H9V33h-.5ZM6 33v-4.5H4.5V28H8v.5H6.5V33H6ZM40.5 33v-4.5H39V28h3.5v.5H41V33h-.5ZM25.52 27c-.63 0-1.15-.18-1.52-.62l.3-.38c.3.38.76.5 1.23.5.6 0 1.04-.33 1.04-.81 0-.48-.45-.69-.84-.88l-.63-.3c-.4-.2-.89-.53-.89-1.24 0-.75.64-1.27 1.36-1.27.54 0 .99.25 1.28.58l-.28.38c-.27-.28-.61-.45-1-.45-.5 0-.83.28-.83.73 0 .44.37.65.73.82l.62.3c.55.25.91.66.91 1.28 0 .83-.69 1.36-1.48 1.36ZM50.52 33c-.63 0-1.15-.18-1.52-.62l.3-.38c.3.38.76.5 1.23.5.6 0 1.04-.33 1.04-.81 0-.48-.45-.69-.84-.88l-.63-.3c-.4-.2-.89-.53-.89-1.24 0-.75.64-1.27 1.36-1.27.54 0 .99.25 1.28.58l-.28.38c-.27-.28-.61-.45-1-.45-.5 0-.83.28-.83.73 0 .44.37.65.73.82l.62.3c.55.25.91.66.91 1.28 0 .83-.69 1.36-1.48 1.36ZM22 27v-5h.5v5H22ZM19 27v-4.5h-1.5V22H21v.5h-1.5V27H19ZM10.38 27C8.93 27 8 25.91 8 24.5c0-1.4.98-2.5 2.42-2.5.57 0 1.17.24 1.58.64l-.34.36a1.73 1.73 0 0 0-1.22-.45A1.9 1.9 0 0 0 8.5 24.5c0 1.1.77 2.01 1.94 2.01.39 0 .76-.1.98-.3V25h-1.04v-.5H12v1.94c-.34.33-.92.56-1.62.56ZM4 27v-5h3v.5H4.5V24h2.06v.51H4.5v1.99H7v.5H4ZM30 33v-5h3v.5h-2.5V30h2.06v.51H30.5v1.99H33v.5h-3Z"/><rect x="13" y="22" width="4" height="1" rx=".5" fill="#788E81"/><rect x="13" y="24" width="4" height="1" rx=".5" fill="#788E81"/><rect x="13" y="26" width="4" height="1" rx=".5" fill="#788E81"/><rect x="13" y="28" width="4" height="1" rx=".5" fill="#788E81"/><rect x="13" y="30" width="4" height="1" rx=".5" fill="#788E81"/><rect x="13" y="32" width="4" height="1" rx=".5" fill="#788E81"/></svg>