<!-- by TradeStack --><svg viewBox="0 0 56 56" xmlns="http://www.w3.org/2000/svg"><path fill="url(#azfoaxacc)" d="M0 0h56v56H0z"/><path d="M8 36V20h5.91c2.57 0 4.53 1.5 4.53 4.18 0 1.63-.64 2.9-1.8 3.64-.56.35-1.24.52-2.02.52l.33-1.1c.82 0 1.53.18 2.13.53 1.38.76 1.92 2.34 1.92 3.84 0 2.85-2.03 4.39-4.76 4.39H8Zm3-3h2.98c1.15 0 2.02-.82 2.02-1.9 0-1.04-.98-1.6-2-1.6h-3.98v-3h3.48c1.1 0 2-.66 2-1.7 0-1.05-.93-1.8-2.02-1.8H11v10ZM25 36V23h-4v-3h11v3h-4v13h-3ZM39.65 36 34 20h3.2l4.3 12.5L45.8 20H49l-5.67 16h-3.68Z" fill="#D6261B"/><defs><linearGradient id="azfoaxacc" x1="5" y1="44" x2="50.5" y2="13.5" gradientUnits="userSpaceOnUse"><stop stop-color="#023A5F"/><stop offset="1" stop-color="#032842"/></linearGradient></defs></svg>