<!-- by TradeStack --><svg viewBox="0 0 56 56" fill="none" xmlns="http://www.w3.org/2000/svg">
<rect width="56" height="56" fill="#F0F3FA"/>
<path d="M13 28V27.7879L13.4272 27.6394C13.9114 27.4838 14 27.0808 14 26.4303V20H14.5V26.5C14.5 26.9802 14.9041 27.4996 15.3498 27.6394L15.8198 27.7879V28H13Z" fill="#E41D22"/>
<path d="M13.5554 14.4667L13 14.2121V14H17.2667L21 24.5L23 20H23.5L20.5 28H19.5L15.1333 17.2319V17.2308C14.838 16.3363 14.5353 14.8763 13.5554 14.4667Z" fill="#E41D22"/>
<path d="M25 21.7636V26.5364C25 26.9481 24.481 27.45 24.1295 27.597L23.5 27.7879V28H29V27.7879L28.5728 27.597C28.0806 27.3912 28 27.0475 28 26.5364V15.4424C28 15.1596 28.0031 14.9333 28.1028 14.7636C28.2025 14.5798 28.3876 14.4384 28.6582 14.3394L29 14.2121V14H25V21.7636Z" fill="#E41D22"/>
<path d="M33 14H29V14.2121L29.3899 14.3606C29.9112 14.5393 30 14.9554 30 15.5V26C30 26.5805 30.0061 27.398 29.3899 27.6394L29 27.7879V28L33 28V14Z" fill="#932890"/>
<path d="M34.5 20.5C35.3795 20.4755 35.9707 20.2669 36.3646 19.8545C36.7978 19.4162 37 18.5889 37 17.5C37 16.3687 36.8195 15.6263 36.4296 15.1455C35.9515 14.5559 35.172 14.4242 34.4545 14.4242V14H35.2166C37.5227 14 40 14.8712 40 17.5C40 19.6741 38.5469 20.145 36.5 20.5C38.0884 20.6697 39.1588 21.1131 39.8953 21.7636C40.6318 22.4 41 23.0808 41 24C41 24.4525 40.8989 25.0091 40.6968 25.4758C40.4946 25.9283 40.148 26.3455 39.657 26.7273C39.1805 27.1091 38.5235 27.4202 37.6859 27.6606C36.6379 27.9437 35.5804 28 34.5 28V27.5C35.5741 27.4969 36.3241 27.2898 36.8412 26.7273C37.3755 26.1616 38 25.202 38 24C38 22.8687 37.3899 22.1384 36.8845 21.6576C36.388 21.1853 35.6235 21.0084 34.5 21V20.5Z" fill="#932890"/>
<path d="M18 43L14.2115 30.4359C14.1087 30.1121 13.9985 29.8798 13.8811 29.7391C13.7636 29.5842 13.558 29.4434 13.2643 29.3167L13 29.2112V29H19V29.2112L18.3744 29.3801C18.0367 29.5068 17.8091 29.6616 17.6916 29.8446C17.5742 30.0277 17.5668 30.281 17.6696 30.6048L21 41L20 43L18 43Z" fill="#FFB51A"/>
<path d="M21.5 37H21L22.5 32L22.163 30.5204C22.0602 30.2247 21.9648 29.9995 21.8767 29.8446C21.7885 29.6898 21.6417 29.5631 21.4361 29.4646L21 29.2112V29H26.5V29.2112L25.7974 29.4646C25.5037 29.5631 25.3348 29.7109 25.2907 29.908C25.2614 30.091 25.2981 30.3303 25.4009 30.6259L28.5 41L28 43H26L23 33L21.5 37Z" fill="#FFB51A"/>
<path d="M29.5 37.5L31.5022 30.6682C31.5903 30.3585 31.6931 30.098 31.8106 29.8869C31.928 29.6757 32.1336 29.5209 32.4273 29.4223L33 29.2112V29H30V29.2112L30.4009 29.359C30.7386 29.4716 30.9222 29.6546 30.9515 29.908C30.9809 30.1614 30.9442 30.457 30.8414 30.7949L29 37L29.5 37.5Z" fill="#FFB51A"/>
<path d="M36 42.9888V42.5852C36.8256 42.5666 36.9242 42.3569 37.4069 41.9338C37.9264 41.4913 38 40.6974 38 40C38 38.6677 37.1619 38.1385 36 37.6088L35.1126 37.2467C33.8716 36.737 32.8975 36.1537 32.1905 35.4965C31.4978 34.826 31.1515 33.9408 31.1515 32.8411C31.1515 32.0499 31.368 31.3659 31.8009 30.7893C32.4934 29.8965 33.8547 29.1159 35 29V29.5C34.3745 29.6954 33.8139 31.0052 33.8139 31.5939C33.8139 32.2779 34.0087 32.8277 34.3983 33.2435C34.7879 33.6458 35.3579 34.0079 36.1082 34.3298L37.1039 34.7321C38.4892 35.2954 39.4848 35.8989 40.0909 36.5426C40.697 37.1729 41 38.2246 41 39.2305C41 40.4106 40.5166 41.1426 39.5498 41.8936C38.6742 42.5717 37.6667 42.9888 36 42.9888Z" fill="#F8627D"/>
<path d="M37.039 29.4414C36.9075 29.4192 36.1908 29.4062 36 29.4024V29C36.7114 29.0111 37.9404 29.1046 38.5758 29.2805C39.2684 29.4683 39.9949 29.6828 40.5 30.0047V32H40C39.4863 31.374 39.0395 30.452 38.4026 29.9645C38.1573 29.7633 37.8759 29.6225 37.5584 29.542C37.3709 29.4884 37.1977 29.4549 37.039 29.4414Z" fill="#F8627D"/>
<path d="M35 42.5964V43C34.5783 42.9532 33.4859 42.8164 33.0563 42.7184C32.2338 42.544 31.5483 42.295 31 42V39H31.3247L31.9957 40.586C32.1977 40.9615 32.4141 41.2968 32.645 41.5918C32.8759 41.8735 33.1934 42.0948 33.5974 42.2557C33.8541 42.375 34.7661 42.5407 35 42.5964Z" fill="#F8627D"/>
</svg>
