<!-- by TradeStack --><svg viewBox="0 0 56 56" xmlns="http://www.w3.org/2000/svg"><path fill="#F0F3FA" d="M0 0h56v56H0z"/><path fill-rule="evenodd" d="M25 23h17v6.93c0-1.44-1.46-1.91-2.65-2.13l-.09-.02C38.81 27.7 38 27.54 38 27c0-.48.6-.68 1.02-.68.55 0 .97.29.97.86h2c0-1.57-1.63-2.18-2.96-2.18-1.26 0-3.03.53-3.03 2 0 1.31 1.58 1.95 2.67 2.17l.1.02c.46.1 1.22.25 1.22.81 0 .52-.5.68-.92.68-.6 0-1.04-.3-1.07-.96h-2c0 1.56 1.7 2.28 3.03 2.28 1.24 0 2.97-.55 2.97-2.07V42H14V32h2v-3h1.56C19.3 29 21 27.94 21 26c0-1.92-1.65-3-3.44-3H23v9h2v-9Zm-7.5 4.5H16v-3h1.5c.85 0 1.5.66 1.5 1.5s-.7 1.5-1.5 1.5ZM32 25h2v7h-2v-1.37A3.76 3.76 0 0 1 29.27 32C27.74 32 27 30.9 27 29.46V25h2v4.46c0 .58.4 1.05 1 1.05.72 0 1.59-.46 2-1.05V25Z" fill="#204192"/><path d="M30.44 20.27v-2.9c0-.63-.42-1-1.04-1-.5 0-.9.07-.9.63h-2c0-1.64 1.72-2 3.02-2 1.49 0 2.98.67 2.98 2.38v2.83c0 .45.26 1.4.5 1.79h-2.25a3.89 3.89 0 0 1-.31-1.73Zm.31-2.27.01.98h-1.1c-.67 0-1.66.25-1.66 1.02 0 .48.57.5 1 .5.5 0 1.53-.2 1.53-.83l.53.8A2.53 2.53 0 0 1 28.62 22c-1.18.01-2.62-.65-2.62-2.01C26 18.1 28.17 18 29.64 18h1.11ZM38 20c0-.61-.9-.74-1.33-.83C35.58 18.95 34 18.3 34 17c0-1.47 1.77-2 3.03-2 1.33 0 2.97.43 2.97 2h-2c0-.5-.45-.5-1-.5-.42 0-1 .02-1 .5 0 .58.93.72 1.35.8 1.19.22 2.65.7 2.65 2.13 0 1.52-1.75 2.07-3 2.07-1.32 0-3-.9-3-2.46h2c.03.67.5.96 1 .96.43 0 1 0 1-.5ZM25 16.5v4.15C23.79 21.76 21.84 22 20.28 22 17.4 22 15 20.33 15 17.3v-.58c0-2.96 2.3-4.72 5.12-4.72 2.2 0 4.87 1 4.87 3.5h-2.6c-.2-1.13-1.04-1.5-2.11-1.5-1.74 0-2.28 1.14-2.28 2.7v.6c0 1.73.61 2.7 2.45 2.7.62 0 1.05-.05 1.55-.45V18h-2v-1.5h5Z" fill="#BCBDC1"/></svg>