<!-- by TradeStack --><svg viewBox="0 0 56 56" xmlns="http://www.w3.org/2000/svg"><path fill="#F0F3FA" d="M0 0h56v56H0z"/><path d="M12 20.46A8.51 8.51 0 0 1 20.56 12h14.88A8.51 8.51 0 0 1 44 20.46v15.08A8.51 8.51 0 0 1 35.44 44H20.56A8.51 8.51 0 0 1 12 35.54V20.46Z" fill="#96979B"/><path d="M14.17 22.84a8.51 8.51 0 0 1 8.57-8.46h10.52a8.51 8.51 0 0 1 8.57 8.46v10.52a8.51 8.51 0 0 1-8.57 8.47H22.74a8.51 8.51 0 0 1-8.57-8.47V22.84Z" fill="#4CA8D9"/><path d="M44 21.73v13.8A8.51 8.51 0 0 1 35.44 44H20.56A8.51 8.51 0 0 1 12 35.54v-.55a8.71 8.71 0 0 1 5.23-4.22c3.65-1.17 14.13-1.56 18.92-1.6 2.14-.15 6.36-1.88 7.85-7.44Z" fill="url(#ag255dr3j)"/><path d="M41.83 26.04v7.32a8.51 8.51 0 0 1-8.57 8.47H22.74a8.51 8.51 0 0 1-8.57-8.47v-.99c.8-.63 1.8-1.2 3.06-1.6 3.65-1.17 14.13-1.56 18.92-1.6a8.58 8.58 0 0 0 5.68-3.13Z" fill="url(#bg255dr3j)"/><path fill-rule="evenodd" d="M33.78 14.83H22.22a7.42 7.42 0 0 0-7.4 7.44v11.46a7.42 7.42 0 0 0 7.4 7.44h11.56c4.09 0 7.4-3.33 7.4-7.44V22.27a7.42 7.42 0 0 0-7.4-7.44ZM22.22 14A8.24 8.24 0 0 0 14 22.27v11.46A8.24 8.24 0 0 0 22.22 42h11.56c4.54 0 8.22-3.7 8.22-8.27V22.27A8.24 8.24 0 0 0 33.78 14H22.22Z" fill="url(#cg255dr3j)"/><path d="M30 21h10v4h-5v1h4v4h-4v5h-5V21ZM16 21h5v5h3v-5h5v14h-5v-5h-3v5h-5V21Z" fill="#F0F3FA"/><ellipse cx="19.77" cy="18.25" rx="2.4" ry="2.38" fill="#BFD9F0" fill-opacity=".7"/><ellipse cx="38.57" cy="36.65" rx="1.72" ry="1.7" fill="#9BCCED"/><ellipse cx="19.77" cy="18.25" rx="1.36" ry="1.34" fill="#FCFDFD" fill-opacity=".7"/><ellipse cx="38.57" cy="36.65" rx=".97" ry=".96" fill="#B3D7F1"/><defs><linearGradient id="ag255dr3j" x1="28" y1="21.73" x2="28" y2="44" gradientUnits="userSpaceOnUse"><stop offset=".63" stop-color="#D5D5D7"/><stop offset="1" stop-color="#A4A3A8"/></linearGradient><linearGradient id="bg255dr3j" x1="28" y1="26.04" x2="28" y2="41.83" gradientUnits="userSpaceOnUse"><stop offset=".4" stop-color="#74D2EC"/><stop offset="1" stop-color="#338ACF"/></linearGradient><linearGradient id="cg255dr3j" x1="28" y1="14" x2="28" y2="42" gradientUnits="userSpaceOnUse"><stop stop-color="#B6B7B9"/><stop offset="1" stop-color="#C0C1C5"/></linearGradient></defs></svg>