<!-- by TradeStack --><svg viewBox="0 0 56 56" xmlns="http://www.w3.org/2000/svg"><path fill="#F0F3FA" d="M0 0h56v56H0z"/><path d="M18 23v-5.98h3V32h-3v-6h-6v5.98H9V17h3v6h6Z" fill="#23010F"/><path d="M29.6 20a4.4 4.4 0 0 0-4.6 4.56A4.34 4.34 0 0 0 29.56 29c1.3-.03 2.54-.21 3.44-1.16v3.3a8.84 8.84 0 0 1-3.52.86A7.41 7.41 0 0 1 22 24.59c0-3.93 3-7.59 7.55-7.59 1.19 0 2.38.3 3.45.84v3.32c.02 0-1.8-1.16-3.4-1.16Z" fill="#D31F31"/><path d="m37.7 29-1.35 3H33l6.35-15h2.47L48 32h-3.38l-1.26-3H37.7Zm2.74-7.72h-.03L38.6 26h3.87l-2.04-4.72Z" fill="#23010F"/><path d="m46.81 37.54.34.18c.29.16.43.33.43.5 0 .11-.05.22-.14.28a.53.53 0 0 1-.35.11c-.33 0-.64-.16-.85-.43v.54c.25.18.54.28.85.28.23.01.47-.07.66-.22a.73.73 0 0 0 .25-.58c0-.33-.19-.6-.58-.81l-.33-.19a1.35 1.35 0 0 1-.34-.24.37.37 0 0 1-.1-.24c0-.1.05-.19.13-.24.1-.06.23-.1.36-.1.26.01.52.12.73.3v-.48c-.23-.13-.48-.2-.73-.2-.24 0-.47.07-.67.22a.7.7 0 0 0-.11.96c.13.15.28.27.45.36ZM44 38.96V36h.75a1 1 0 0 1 .68.23c.16.14.26.37.25.6 0 .16-.04.32-.12.45a.92.92 0 0 1-.42.29c.1.07.18.16.25.26.09.11.73 1.17.73 1.17h-.47c-.2-.38-.43-.76-.7-1.1l-.19-.14a.47.47 0 0 0-.25-.04h-.1V39H44v-.04Zm.4-2.64v.98h.16c.14.01.29 0 .42-.05.1-.04.17-.1.22-.17a.49.49 0 0 0 .07-.27c0-.1-.02-.18-.07-.26a.38.38 0 0 0-.2-.17 1.7 1.7 0 0 0-.46-.06h-.13Zm-31.14.1c-.3-.28-.68-.43-1.08-.42-.4-.01-.78.14-1.06.43-.29.28-.44.67-.43 1.09 0 .4.15.78.43 1.05.28.29.65.44 1.04.43.4.01.8-.14 1.1-.43.28-.27.44-.66.43-1.07 0-.4-.15-.8-.43-1.07Zm-1.85.3c.21-.21.5-.32.78-.31.45 0 .72.27.78.33.2.2.3.48.3.78.01.3-.1.59-.3.8-.45.42-1.12.42-1.56 0-.2-.2-.32-.5-.31-.8 0-.3.1-.6.3-.8ZM10.39 36H10v1.31H8.4V36H8v3h.4v-1.31H10V39h.4v-3Zm23.1 0a1.46 1.46 0 0 1 1.5 1.5c.02.4-.14.8-.42 1.07-.3.3-.7.44-1.1.43-.38 0-.76-.14-1.04-.43a1.44 1.44 0 0 1-.43-1.05c-.01-.42.15-.81.43-1.1.29-.28.67-.43 1.06-.42Zm.02.4c-.3 0-.58.11-.79.32-.2.2-.32.5-.3.8-.02.3.1.6.3.8.45.42 1.11.42 1.56 0 .2-.21.32-.5.3-.8.01-.3-.1-.58-.3-.78-.08-.08-.33-.33-.77-.33Zm6.46.03c-.29-.3-.67-.44-1.07-.43-.38-.01-.76.14-1.05.43a1.5 1.5 0 0 0-.42 1.09A1.45 1.45 0 0 0 38.89 39c.4.01.78-.14 1.08-.43.28-.27.44-.66.43-1.07 0-.4-.15-.8-.43-1.07Zm-1.83.3c.21-.22.5-.33.78-.32A1.09 1.09 0 0 1 40 37.52c0 .3-.1.59-.3.8a1.1 1.1 0 0 1-1.55 0c-.2-.2-.31-.5-.3-.8-.01-.3.1-.6.3-.8ZM14 36h.4v2.6h1.28v.4H14v-3Zm2.4 0H16v3h1.68v-.4h-1.27V36Zm2.85 0h.29l1.27 3h-.4l-.38-.89h-1.2l-.36.89h-.4l1.18-3Zm.61 1.74-.46-1.08-.42 1.08h.88ZM23.63 36h-.39v2.34L21.32 36H21v3h.37v-2.32l1.9 2.32h.36v-3Zm.37 0h.95c.31-.01.63.05.92.2.45.24.73.76.73 1.33a1.45 1.45 0 0 1-.88 1.38l-.3.09H24v-3Zm.4.4v2.24h.53c.16 0 .32 0 .48-.04l.29-.12.2-.17c.2-.21.31-.5.3-.82a1.08 1.08 0 0 0-.55-1l-.28-.09h-.96Zm7.1 2.36v-.46c-.29.2-.62.32-.97.33a1.08 1.08 0 0 1-.86-.4 1.16 1.16 0 0 1 .06-1.5c.22-.22.51-.34.8-.32.34 0 .66.1.95.3v-.47a2.41 2.41 0 0 0-.98-.24c-.4 0-.77.15-1.07.45-.28.26-.44.66-.43 1.07 0 .26.06.52.18.74a1.41 1.41 0 0 0 1.3.74c.36 0 .7-.07 1.02-.24ZM35.6 36h.4v2.6h1.28v.4H35.6v-3Zm7.84 0H43v1.7c0 .17.01.33-.03.5-.04.09-.1.17-.17.24a.86.86 0 0 1-.6.18.93.93 0 0 1-.44-.1.66.66 0 0 1-.27-.25c-.07-.19-.1-.39-.08-.58V36H41v1.69c0 .17.01.35.05.52a1 1 0 0 0 .29.49c.53.4 1.23.4 1.76 0a.9.9 0 0 0 .17-.2c.06-.1.1-.19.12-.29.04-.17.06-.35.05-.52V36Z" fill="#D31F31"/></svg>