<!-- by TradeStack --><svg viewBox="0 0 56 56" xmlns="http://www.w3.org/2000/svg"><path fill="#F0F3FA" d="M0 0h56v56H0z"/><path fill-rule="evenodd" d="M52 24.25c0-1-.6-2.25-1.97-2.25H5.97C4.8 22 4 22.89 4 24.19c0 .2 0 .4.04.61l1.3 7.87c.1.66.37 1.25.75 1.67.38.43.85.66 1.33.66h41.15c.5 0 .96-.23 1.34-.66.38-.42.65-1.01.76-1.67l1.29-7.87c.03-.18.04-.36.04-.55Zm-1-.03c0-.62-.31-1.22-1.05-1.22H6.35c-.8 0-1.35.64-1.35 1.44 0 .11 0 .22.03.33l1.26 7.58c.08.47.28.89.55 1.19.28.3.62.46.97.46h40.38c.35 0 .7-.16.97-.46.27-.3.47-.72.55-1.2l1.26-7.69a3 3 0 0 0 .03-.43Z" fill="#009BE1"/><path fill-rule="evenodd" d="M6.01 24.87c-.08-.5.21-.88.7-.87h42.53c.5 0 .84.37.75.87l-1.24 7.08c-.05.3-.18.56-.36.75a.9.9 0 0 1-.64.3H8.25a.9.9 0 0 1-.64-.3c-.18-.19-.3-.45-.36-.75l-1.24-7.08Zm2 4.66c0-.6.46-1.03 1.08-1.03.62 0 .9.5.9 1.03 0 .19-.08.36-.2.45a.27.27 0 0 1-.14.06c-.04.01-.1.03-.13.06 0 .43.6.5.68.5.3 0 .78-.05.8-.34V26.4H9.7V26H14v.4h-1v2.88c.01.93-1.1 1.72-2.57 1.72C9.68 31 8 30.66 8 29.53ZM29.4 29H29v2h.4v-.05c0-.22 0-.43.23-.43.13 0 .24.05.38.13.28.14.7.35 1.66.35 1.2 0 2.33-.84 2.33-1.84 0-.87-.77-1.1-1.94-1.42l-.35-.1c-.79-.2-1.11-.29-1.11-.7 0-.26.26-.54.92-.54.7 0 1.5.34 1.97 1.44h.24v-1.6h-.24a.4.4 0 0 1-.08.17c-.14.18-.39.05-.57-.04l-.02-.01a2.91 2.91 0 0 0-1.55-.36c-1.22 0-2.27.8-2.27 1.74 0 .61.4 1.02.98 1.22l.68.17c.66.14 1.35.29 1.35.82 0 .4-.34.65-1 .65-1.08 0-1.61-1.15-1.61-1.6Zm-9.8-1.88v2.21h-.12c-.1-.52-.32-.93-.7-.93H18v2.2h1.27c.8 0 1.41-.57 1.53-1.6h.2v2h-6v-.4h1v-4.2h-1V26h6v2h-.2c-.16-1.17-.74-1.6-1.5-1.6H18V28h.81c.16 0 .32-.03.44-.19.13-.16.21-.44.24-.68h.12Zm20 2.21v-2.2h-.11a1.5 1.5 0 0 1-.24.68.49.49 0 0 1-.44.19H38v-1.6h1.3c.76 0 1.34.43 1.5 1.6h.2v-2h-6v.4h1v4.2h-1v.4h6v-2h-.2c-.12 1.03-.74 1.6-1.53 1.6H38v-2.2h.79c.37 0 .6.41.7.94h.12v-.01Zm-13.96 1.66-2.24-4.22v3.1c0 .19.02.37.1.5.08.14.2.23.31.23h.49v.4H22v-.4h.54c.12 0 .23-.08.31-.22a.98.98 0 0 0 .15-.5V26.4h-1V26h3.07L27 29.43v-2.38a.97.97 0 0 0-.12-.5c-.09-.14-.2-.15-.32-.15H26V26h2.3v.4h-.53c-.1 0-.2 0-.28.12-.09.13-.1.32-.1.5V31h-1.75ZM43 26.77 45.26 31H47v-3.96c0-.2.03-.38.12-.5.07-.13.17-.13.28-.13h.6V26h-2.37v.4h.56c.12 0 .23 0 .31.14.09.14.1.32.1.5v2.39L44.7 26h-3.04v.4h.94v3.48c0 .19-.04.37-.12.5-.08.14-.2.22-.32.22h-.5v.4H44v-.4h-.56c-.12 0-.23-.1-.31-.23a.97.97 0 0 1-.13-.5v-3.1Z" fill="#009BE1"/></svg>