<!-- by TradeStack --><svg viewBox="0 0 56 56" xmlns="http://www.w3.org/2000/svg"><path fill="#FFA188" d="M0 0h56v56H0z"/><path d="M4 30c0 2.26 1 2.5 1.5 2.5 1 0 1.9-.46 2.26-.62l-1.61 4.24c-.18.47-.22 1.4 1.07 1.4 1.3 0 2.33-1.56 2.69-2.34 0 .31.23 1.32 1.09 1.32.86 0 2.13-1.32 2.67-1.8-.36 1.1-.54 3.3 1.6 3.3 2.7 0 4.3-2.35 4.3-2.82 0-.38-.71-.47-1.07-.47l2.15-1.42c.18.16.35.71 1.07.71.73 0 1.61-1.18 2.15-1.65 0 .16.22.57 1.08.94.85.38 2.14-1.1 2.68-1.88 0 .32.22.94 1.07.94.86 0 2.15-.94 2.69-1.4 0 .15.17 1.05 1.11 1.05 1 0 2.11-1.22 2.65-2 .18.31 1 1 1.85 1 .86 0 1.9-.69 2.45-1 0 .16.32.47 1.6.47 1.3 0 3.05-1.57 3.77-2.35.18.47.32 1.38 1.18 1.38a8.9 8.9 0 0 0 4.19-1.38c1.6-.94 2.15-2.36 1.6-2.83-.42-.37-1.96.16-2.68.47.43-1.5-.18-2.2-.53-2.35.18-.47.32-1.41-.54-1.41a3.8 3.8 0 0 0-2.15.94c0-.31-.32-.94-1.61-.94S40.9 23.9 40 25c.18-.47.36-1-.5-1-1.5 0-1.84.51-2.2.82 0-.31-.22-.94-1.08-.94-.86 0-2.86 1.57-3.76 2.36 0-.32-.21-.95-1.07-.95a3.8 3.8 0 0 0-2.15.95c.18-.32.12-1.24-.74-1.24-1.5 0-2.66 1.86-3.55 2.65-.18-.63-.76-1.89-1.62-1.89-.85 0-2.5.95-3.22 1.42 1.25-1.73 3.33-5.18 1.61-5.18s-3.94 2.82-4.83 4.24c.18-.63.32-1.89-.54-1.89-.86 0-2.86 1.89-3.76 2.83.54-1.89-.48-3.18-2.09-3.18C8.89 24 4 27.18 4 30Z" fill="#F0F3FA"/><path d="M21.66 22.72c.25.13.32.36.25.66-.18.76-.85 1.73-1.68 2.85-.75 1.02-2.1 2.57-2.13 2.65a38 38 0 0 0-1.65 3.95 7.36 7.36 0 0 0-.33 1.87c0 .31.08.62.4.79.63.3 1.34-.27 1.94-.5a.47.47 0 0 1 .43 0c.1.08.2.2.17.31-.1.39-.5.66-.78.95a5.1 5.1 0 0 1-2.87 1.28c-.48 0-1-.2-1.25-.65-.36-.62-.23-1.48-.12-2.18.16-.89.53-1.96.73-2.81l-.2.29c-.71.97-1.06 1.71-2 2.82-.34.41-1.15.96-1.66.75-.15-.06-.24-.14-.27-.28-.05-.2.09-.56.16-.82l.92-2.47.29-.9-.1.14c-1.28 1.58-2.3 3.43-3.45 5-.36.5-1.23.7-1.63.6-.2-.04-.3-.22-.12-.65 1.07-2.4 2.1-4.73 2.6-7.3.15-.73.21-1.76-.35-2.05-.37-.19-1 .09-1.41.44-.67.56-1.1 1.3-1.15 1.81-.04.4.13.68.45.76.42.11.9-.24 1.13-.38a.4.4 0 0 1 .39-.03c.09.04.13.2.11.34-.04.34-.7 1.05-1.32 1.48-.54.37-1.18.65-1.79.55-.56-.15-.78-.57-.83-1.11-.1-1.33 1.07-3.2 1.83-3.97.88-.89 2.25-1.94 3.68-2.12.5-.06 1.03.04 1.37.36 1 .92.38 3 0 4.51.29-.34 2.6-3.28 2.6-3.28.45-.58.99-1.09 1.77-1.29.27-.06.53 0 .67.12.16.15.15.31.08.53-.29.94-.94 2.42-1.6 4.1.46-.37 1.02-1 1.44-1.42.9-1.8 2.44-4.34 4.3-5.51.3-.2.77-.3.98-.19Zm-1.21 8.07c-.21.27-.42.51-.6.7-.08.09-.2.18-.28.16-.08-.03-.07-.16-.05-.24.04-.18.12-.4.22-.62a7.86 7.86 0 0 1 1.33-1.98c.21-.23.5-.52.68-.5.18.04.1.35 0 .55l-.13.23a14 14 0 0 1-1.17 1.7Zm-2.53 0c-.3.65-.5 1.28-.6 1.85-.08.53-.08 1.07.24 1.32a.8.8 0 0 0 .8.13c.7-.26 1.47-.77 2.58-1.92-.07.27-.2.82.07 1.07.12.1.29.17.41.17.54 0 1.11-.57 1.63-1.1l1.41-1.52.57-.62c-.06.21-.13.42-.21.62-.28.72-.58 1.34-.28 1.67a.7.7 0 0 0 .4.2c.36.07.73-.08.98-.3.58-.55 1.04-1.06 1.51-1.57.3-.31.61-.62.97-.94-.06.32-.2.65-.27.94-.1.38-.13.7.16.9.3.2.82.2 1.2 0 .24-.1.67-.47 1.13-.9.68-.62 1.44-1.38 1.82-1.7l.08-.06-.02.06c-.33.96-.62 1.34-.53 1.7 0 .04.02.08.04.12.1.2.31.33.62.37.2.03.65-.03.89-.25l.25-.23c.5-.5 1.04-1.11 1.6-1.7.2-.23.42-.46.64-.68-.03.2-.1.43-.14.67-.07.45-.09.9.23 1.17.24.18.54.29.9.23a7.1 7.1 0 0 0 2.71-1.4c.09.29.43.86 1.27.83a3.74 3.74 0 0 0 2-.83c.7-.5 1.32-1.16 1.81-1.72.7-.8 1.32-1.7 1.65-2.01.06.03.06.14.04.2-.31.93-1.04 1.9-1.13 2.46a.8.8 0 0 0 .32.8c.34.24.83.27 1.36.12a14.1 14.1 0 0 0 4.65-2.57.4.4 0 0 0 .01-.55c-.16-.18-.4-.21-.64-.13-.6.21-2.27 1.22-2.75 1.1-.1-.03-.2-.08-.2-.18.01-.53 1.14-1.8.23-2.65-.13-.12-.3-.22-.46-.28.27-.33.42-.71.28-.93-.37-.58-1.76-.17-2.29.85-.14.26-.1.5-.03.6-1.46 2.09-2.8 3.4-3.44 3.75-.27.14-.5.04-.56-.2 2.93-1.88 4.15-4.46 3.03-5.14-.98-.6-4.2.7-5.19 5.27-.48.45-1.2.76-1.43.54-.23-.22.76-2.33 1.07-3.39.08-.3.13-.54-.17-.7-.2-.12-.94-.01-1.34.4-.65.65-1.34 1.4-2 2 .12-.43.54-1.33.76-1.9.06-.2.03-.37-.2-.46-.47-.17-1.3.16-1.9.77-.5.5-2.5 2.68-3.5 3.61.14-.58.65-1.71.87-2.37.05-.15.03-.33-.15-.41-.44-.2-1.28.14-1.67.56-.73.77-1.75 1.87-2.1 2.16.11-.41.53-1.37 1.03-2.58.09-.22 0-.45-.27-.5a2.9 2.9 0 0 0-1.77.74c-1.2 1.18-1.85 1.9-2.67 2.74l-.63.63c.07-.19.14-.4.2-.63l.58-1.72c.08-.24-.22-.48-.66-.3.05-.14.08-.42-.1-.57-.29-.2-.92-.12-1.5.12a8.6 8.6 0 0 0-3.31 2.72c-.36.48-.66.97-.89 1.45Zm25.89-6.9c.05.46-1.12 1.96-1.76 2.38a5.06 5.06 0 0 1 1.48-2.48c.15-.1.26-.05.28.1Z" fill="#004996"/></svg>