<!-- by TradeStack --><svg viewBox="0 0 56 56" xmlns="http://www.w3.org/2000/svg"><path fill="#F0F3FA" d="M0 0h56v56H0z"/><path d="M14 35v-.6h-1.4v-1.19h.96v-.67h-.96v-.94H14V31h-2v4h2Zm3.55 0v-.6h-1.4v-1.19h.95v-.67h-.95v-.94h1.4V31h-2v4h2Zm18.85-.6v.6h-2v-4h2v.6H35v.94h1v.67h-1v1.19h1.4ZM15 31h-.6v4h.6v-4Zm5.3 0v4h-.7l-1-2.59V35H18v-4h.7l1 2.59V31h.6Zm1.43 0H21v4h.73c.8 0 1.27-.67 1.27-1.94 0-1.26-.36-2.06-1.27-2.06Zm0 3.4h-.13v-2.8h.13c.54 0 .67.52.67 1.38 0 1.08-.33 1.42-.66 1.42Zm4.02-1.4c0-1.12-.35-2-1.16-2-.82 0-1.19.88-1.19 2 0 1.13.35 2 1.18 2 .82 0 1.17-.88 1.17-2Zm-.6 0c0 .82-.17 1.4-.57 1.4-.4 0-.58-.58-.58-1.41s.16-1.39.57-1.39c.4 0 .57.58.57 1.4ZM29 35v-4h-.68l-.67 2.1-.67-2.1h-.68v4h.6v-2.37l.75 2.37.75-2.34V35h.6Zm1.75-2.33c.64.36.85.6.85 1.22 0 .58-.4 1.11-1.05 1.11-.51 0-.86-.25-1.11-.62l.43-.45c.09.24.38.47.67.47.29 0 .46-.24.46-.51 0-.23-.16-.38-.6-.62-.55-.3-.9-.59-.9-1.23 0-.54.45-1.04 1.06-1.04.4 0 .8.2 1.02.55l-.46.41c-.24-.3-.33-.36-.58-.36-.19 0-.38.18-.38.36 0 .23.18.48.59.71ZM34 33.9c0-.62-.2-.86-.85-1.22-.4-.23-.6-.48-.6-.71 0-.18.2-.36.39-.36.25 0 .34.06.58.36l.45-.4a1.21 1.21 0 0 0-1.01-.56c-.61 0-1.06.5-1.06 1.04 0 .64.35.93.9 1.23.44.24.6.4.6.62 0 .27-.18.5-.46.5a.76.76 0 0 1-.67-.46l-.43.45c.25.37.6.62 1.11.62.65 0 1.05-.53 1.05-1.11Zm6.31-1.22c.64.36.85.6.85 1.22 0 .58-.4 1.1-1.05 1.1-.51 0-.86-.24-1.11-.6l.43-.46c.09.24.38.47.67.47.29 0 .46-.24.46-.51 0-.23-.16-.38-.6-.62-.55-.3-.9-.59-.9-1.23 0-.54.45-1.04 1.06-1.04.4 0 .8.2 1.02.55l-.46.41c-.24-.3-.33-.36-.58-.36-.19 0-.38.18-.38.36 0 .23.18.48.6.71ZM38.83 35v-.6H37.6V31H37v4h1.83Zm4.26-2.5L44 35h-.74l-.62-1.73-.34.65V35h-.6v-4h.6v1.78l.93-1.78h.66l-.8 1.5ZM48 31h-1v4h.6v-1.5h.3c.75 0 1.1-.55 1.1-1.22 0-.67-.25-1.28-1-1.28Zm-.1 1.9h-.3v-1.3h.3c.49 0 .49.4.49.7 0 .25-.08.6-.5.6ZM46.8 35l-.97-4h-.65l-.96 4h.64l.17-.86h.89l.18.86h.7Zm-1-1.43h-.62l.3-1.69.32 1.7ZM15 25.5Zm0 0c0-1.94-.6-3.5-1.99-3.5-1.4 0-2.01 1.55-2.01 3.53 0 1.98.63 3.47 2 3.47 1.36 0 2-1.54 2-3.5Zm-1 .03c0 1.4-.34 2.47-.98 2.47-.64 0-1.02-1.06-1.02-2.5 0-1.43.35-2.5 1-2.5.64 0 1 1.08 1 2.53ZM19 28v1h-3v-7h1v6h2Zm5.5 1h-1.22l-.3-1.5h-1.56L21.1 29H20l1.67-7h1.14l1.69 7Zm-2.83-2.5h1.1l-.56-2.95-.54 2.95ZM27.8 22H29l-1.57 7H26.3l-1.59-7h1.21c.34 1.71.67 3.43.97 5.15l.83-4.64.1-.51ZM34.5 22v1H33v6h-1v-6h-1.5v-1h4Zm9.5 3.5c0-1.94-.6-3.5-1.99-3.5-1.4 0-2.01 1.55-2.01 3.53 0 1.98.63 3.47 2 3.47 1.36 0 2-1.54 2-3.5Zm0 0Zm-1 .03c0 1.4-.34 2.47-.98 2.47-.64 0-1.02-1.06-1.02-2.5 0-1.43.35-2.5 1-2.5.64 0 1 1.08 1 2.53ZM39 29v-7h-1v3h-2v-3h-1v7h1v-3h2v3h1Zm9-7h1v7h-1.15L46 24.44V29h-1v-7h1.22L48 26.52V22Z"/><path d="M9 19H7v18h2V19Z" fill="#EC6608"/></svg>