<!-- by TradeStack --><svg viewBox="0 0 56 56" xmlns="http://www.w3.org/2000/svg"><path fill="#F0F3FA" d="M0 0h56v56H0z"/><path d="M16 17c-.4 2.06-1 6.03-1 10.5 0 5.41 1.63 10.4 2.4 12.5A16 16 0 0 1 12 28c0-4.05 1.52-8.18 4-11Zm2.01 23.51C18 40.45 17 32.25 17 29c0-2.66.16-7.77 1.34-13.53.22-.16.43-.32.66-.47v11c0 5.25 1.37 13.74 2 16.4-1.17-.56-2-1.08-2.99-1.89Zm3.4 2.07s-.91-9.06-.91-12.7c0-3.31.33-12.12 1.15-16.73l.32-.12c0 .03.03 3.68.03 9.26.07 6 .95 14 2.77 21.38a16.8 16.8 0 0 1-3.36-1.09Zm3.77 1.18c0-.02-1.15-4.87-1.18-13.05-.02-5.03.4-11.4 1.63-18.66L26 12c0 1.32-.04 3.91 0 7.33.08 6.33.6 15.5 2.34 24.67a17.19 17.19 0 0 1-3.16-.24Zm3.17.24c.14-.04 6.65-1.59 6.65-16.27C35 13.28 28 12 28 12a16 16 0 0 1 .35 32Z" fill="#01246D"/></svg>