<!-- by TradeStack --><svg viewBox="0 0 56 56" xmlns="http://www.w3.org/2000/svg"><path fill="#F0F3FA" d="M0 0h56v56H0z"/><path fill-rule="evenodd" d="M33.3 12.29 29 9.98a1 1 0 0 0-2-.02l-4.3 2.32A1 1 0 0 0 21 13a1 1 0 0 0 1.62.79l4.46 2.82a1 1 0 0 0 .74 1.37v2.04a1 1 0 0 0-.82.93l-2 1.19V20a1 1 0 1 0-.57-1.82l-4.56-2.69a1 1 0 1 0-1.8-.14l-4.65 2.74A1 1 0 0 0 12 19a1 1 0 0 0 1.74.68L18 22.15a1 1 0 0 0 .5.72v6.26a1 1 0 0 0-.13.08l-4.55-2.65A1 1 0 0 0 13 25v-2a1 1 0 1 0-.5-.13v2.26a1 1 0 0 0 .94 1.77l1.74.97-1.82 1.2a1 1 0 1 0 .4 1.58L18 33.17a1 1 0 0 0 .5.7v6.26a.98.98 0 0 0-.07.04l-4.52-2.77A1 1 0 0 0 13 36v-2a1 1 0 1 0-.5-.13v2.26a1 1 0 1 0 1.1 1.67l4.5 2.75a1 1 0 1 0 1.64-.22l1.38-.86a1 1 0 0 0 .39.4v1.26a1 1 0 0 0 .74 1.84l4.76 2.91L27 46a1 1 0 1 0 2-.07l4.64-3A1 1 0 0 0 35 42a1 1 0 1 0-1.8.61l-4.37 2.83a1 1 0 0 0-.52-.4v-5.09a1 1 0 0 0 .6-1.37l4.7-2.69c.1.1.24.16.39.17V38a1 1 0 1 0 .88 1.47l1.14.71a1 1 0 0 0 1.78.42l4.54-2.85a1 1 0 1 0-.28-.41l-4.07 2.55a1 1 0 0 0-.5-.76v-5.26a1 1 0 0 0 .5-.72l4.2-2.55a1 1 0 0 0 .81.4v1a1 1 0 1 0 .5.13v-1.26a1 1 0 0 0-.79-1.83l-1.9-1.18 1.64-1.03a1 1 0 1 0-.34-.4l-4.53 2.76a1 1 0 0 0-.09-.06v-6.26a1 1 0 0 0 .5-.73l4.27-2.46A1 1 0 0 0 43 20v1a1 1 0 1 0 .5.13v-1.26a1 1 0 0 0-.93-1.78l-4.64-2.73A1 1 0 0 0 37 14a1 1 0 0 0-.88 1.48l-1.63.97v-2.58a1 1 0 1 0-1.19-1.58ZM34 14a1 1 0 0 1-.62-.21l-4.46 2.8a1 1 0 0 1-.61 1.36v2.1a1 1 0 0 1 .69.92l2 1.18V20a1 1 0 1 1 .57-1.82L34 16.74V14Zm-2.5 5.87v2.56l1.68 1a1 1 0 1 1 1.31 1.44v2.26c.3.17.51.5.51.87v.02l1.69 1.03A1 1 0 0 1 37 29v-6a1 1 0 0 1-1-1v-.02l-4.17-2.42a1 1 0 0 1-.34.31Zm4.74 9.48-1.39-.83A1 1 0 1 1 34 27v-2a1 1 0 0 1-.43-.1l-4.66 2.68a1 1 0 0 1-.6 1.37v5.1a1 1 0 0 1 .53.41L33 31.92a1 1 0 0 1 1.98-.12l1.19.64a1 1 0 0 1 1.75.17l4.09-2.48a1.02 1.02 0 0 1 .23-.78l-1.91-1.2-2.43 1.42a1 1 0 1 1-1.67-.22ZM36 32.92l-1.06-.57a1 1 0 0 1-1.84.1l-1.43.87 2.03 1.28a.78.78 0 0 1 1.16.68.8.8 0 0 1-.37.67v2.18c.3.16.5.47.5.82l1.08.68A1 1 0 0 1 37 39v-5a1 1 0 0 1-1-1.08Zm-2.62 2.05-2.18-1.36-2.2 1.34a1 1 0 1 1-2-.06l-2.17-1.28-2.2 1.36a.8.8 0 0 1 .01.48l4.82 2.7a1 1 0 0 1 1.12.04l4.76-2.72a.81.81 0 0 1 .04-.5Zm-6.26 3.56-4.76-2.67a.75.75 0 0 1-.45.15.78.78 0 0 1-.77-.8c0-.43.35-.78.77-.78.16 0 .32.05.44.14l2-1.25-1.48-.83a1 1 0 0 1-1.83-.21l-1.05.6.01.12a1 1 0 0 1-1 1v6a1 1 0 0 1 .27.04L21 38.96A1 1 0 1 1 22 40v1a1 1 0 0 1 .73 1.68l4.47 2.72a1 1 0 0 1 .62-.38v-5.04a1 1 0 0 1-.7-1.45Zm-7.31-6.12 1.24-.71a1 1 0 0 1 .46-.57v-2.26a1 1 0 0 1-.36-.34l-1.37.85a1 1 0 1 1-1.7.23l-2.41-1.46-1.88 1.24a1 1 0 0 1 .2.8l4.08 2.43a1 1 0 0 1 1.74-.2Zm-.47-3.35L21 28.03V28a1 1 0 1 1 1 1v2a1 1 0 0 1 1 1v.01l4.18 2.42a1 1 0 0 1 .64-.41v-5.04a1 1 0 0 1-.74-1.38l-4.65-2.7a1 1 0 1 1 .39-1.48l1.7-1h-.01v-2.55a1 1 0 0 1-.34-.3L20 21.96V22a1 1 0 0 1-1 1v6a1 1 0 0 1 .34.06Zm13.71-16.37-4.17-2.2a1 1 0 0 1-1.76-.02l-4.17 2.21a1 1 0 0 1-.02.68l4.45 2.86a1 1 0 0 1 1.23-.01l4.46-2.85a1 1 0 0 1-.02-.67ZM42 19c0-.2.06-.4.17-.56l-4.53-2.67a1 1 0 0 1-1.16.08l-4.58 2.71a1 1 0 0 1 .1.52l4.14 2.4a1 1 0 0 1 1.78.12l4.1-2.37A1 1 0 0 1 42 19Zm-18 0a1 1 0 0 1 .1-.44l-4.59-2.7a1 1 0 0 1-1.16-.1l-4.52 2.68a1 1 0 0 1 .14.8l4.1 2.37a1 1 0 0 1 1.78-.14L24 19.08a1 1 0 0 1 0-.08Zm9 5v-.1l-4.12-2.42a1 1 0 0 1-1.77-.01L23 23.9a1 1 0 0 1-.17.65l4.57 2.65a1 1 0 0 1 1.19 0l4.58-2.65A1 1 0 0 1 33 24Z" fill="#2D2242"/></svg>