<!-- by TradeStack --><svg viewBox="0 0 56 56" xmlns="http://www.w3.org/2000/svg"><path fill="#F0F3FA" d="M0 0h56v56H0z"/><path fill-rule="evenodd" d="M13 13h30v30H13V13Zm12 3h6v6h-6v-6Zm-5.38 21.23L18.68 35h-1L19 38.18V40h1v-1.82L21.32 35h-1l-.7 2.23Zm-2.99 1.2c.02.06.03.14.03.22 0 .1-.02.19-.06.27a.45.45 0 0 1-.2.19.73.73 0 0 1-.33.06c-.12 0-.23 0-.33-.04a.6.6 0 0 1-.24-.13.61.61 0 0 1-.16-.24c-.03-.1-.05-.23-.05-.38h-.93c0 .28.05.53.14.73.1.2.23.37.4.5.16.13.35.23.55.3a2.1 2.1 0 0 0 1.25 0c.18-.06.34-.15.47-.26.14-.12.24-.26.31-.43.08-.17.11-.36.11-.58 0-.2-.03-.38-.09-.54-.06-.16-.15-.3-.27-.43a1.86 1.86 0 0 0-.43-.34c-.17-.1-.37-.2-.6-.28a2.99 2.99 0 0 1-.58-.29.68.68 0 0 1-.16-.18.45.45 0 0 1-.05-.21c0-.1.02-.19.07-.27a.5.5 0 0 1 .2-.2c.1-.04.22-.07.35-.07.14 0 .26.03.35.09.1.06.17.14.22.24.04.1.07.22.07.35h.92c0-.3-.06-.56-.2-.79-.12-.23-.3-.4-.53-.53a1.94 1.94 0 0 0-1.43-.1c-.2.07-.36.16-.5.28a1.23 1.23 0 0 0-.45 1c0 .2.04.4.11.55.08.16.18.3.32.42.13.12.28.23.44.32.17.1.35.17.54.24.16.06.3.12.4.18.1.06.17.11.23.17.05.05.1.11.11.18ZM25 35v5h-.97l-1.53-3.21V40h-1v-5h.96L24 38.21V35h1Zm3.73 5v-1H27v-1h1.45v-1H27v-1h1.73v-1H26v5h2.73Zm.27-5h1.63c.96 0 1.55.58 1.55 1.54 0 .64-.23 1.2-.68 1.51l.85 1.95h-1.02l-.72-1.74H30V40h-1v-5Zm1.63 2.33H30V36h.63c.41 0 .62.36.62.63 0 .37-.2.7-.62.7ZM36.36 40v-3h-1.7v1h.7v.77c-.15.19-.47.23-.7.23-.48 0-1.1-.35-1.1-1.34v-.3c0-1 .57-1.36.98-1.36.41 0 .83.14.89.63h.9c-.11-1.16-.66-1.63-1.79-1.63-.78 0-1.63.48-1.89 1.36-.09.29-.13.62-.13 1v.29c0 1.08.65 2.35 1.96 2.35.4 0 .77-.18.88-.4v.4h1ZM38 35v5h-1v-5h1Zm3.52 5v-1H39.5v-1h1.74v-1H39.5v-1h2.02v-1H38.5v5h3.02Z" fill="#E30613"/></svg>