<!-- by TradeStack --><svg viewBox="0 0 56 56" xmlns="http://www.w3.org/2000/svg"><path fill="#F0F3FA" d="M0 0h56v56H0z"/><path d="M5.37 25.41V27H9v1.41H5.37V32H4v-8h7v1.41H5.37ZM17.74 31a3.92 3.92 0 0 1-2.73 1 3.92 3.92 0 0 1-3.7-2.36A3.9 3.9 0 0 1 11 28a3.91 3.91 0 0 1 4-4 3.86 3.86 0 0 1 3.68 2.37c.22.51.32 1.07.3 1.63a3.92 3.92 0 0 1-1.25 3ZM16.86 26a2.68 2.68 0 0 0-1.85-.65 2.65 2.65 0 0 0-2.54 1.61c-.13.33-.2.68-.18 1.03a2.58 2.58 0 0 0 .73 1.91c.5.49 1.15.73 1.99.73.83 0 1.48-.25 1.97-.73a2.54 2.54 0 0 0 .74-1.91 2.55 2.55 0 0 0-.86-1.99ZM26.44 26.57c0-.78-.4-1.15-1.27-1.15h-3.79v2.22h3.9c.8 0 1.16-.35 1.16-1.07ZM26.39 32l-1.82-3h-3.19v3H20v-8h5.44a2.3 2.3 0 0 1 1.77.7c.44.52.67 1.19.63 1.87.03.6-.15 1.18-.52 1.66-.3.36-.7.6-1.15.71L28 32h-1.6ZM32.7 25.42V32h-1.4v-6.59H28V24h8v1.41h-3.3ZM37 32v-8h7v1.41h-5.68V27H42v1.41h-3.68v2.17H44V32h-7Z" fill="#155CAC"/><path d="m52 26.08-1.18.49-.06-.07a3.14 3.14 0 0 0-2.58-1.14 2.87 2.87 0 0 0-2.05.74 2.5 2.5 0 0 0-.79 1.9 2.48 2.48 0 0 0 .78 1.91c.52.48 1.22.73 2.12.73 1.08 0 1.92-.39 2.53-1.15l.07-.1 1.1.71-.07.11c-.4.58-.95 1.05-1.59 1.37-.66.3-1.38.44-2.1.42a4.2 4.2 0 0 1-2.87-1 3.84 3.84 0 0 1-1.3-3A3.76 3.76 0 0 1 45.32 25a4.17 4.17 0 0 1 2.85-1c1.62 0 2.87.64 3.74 1.95l.08.12Z" fill="#155CAC"/></svg>