<!-- by TradeStack --><svg viewBox="0 0 56 56" xmlns="http://www.w3.org/2000/svg"><path fill="#373BF6" d="M0 0h56v56H0z"/><path d="M35.08 13.71A15.77 15.77 0 0 0 27.9 12 15.96 15.96 0 0 0 12 28c0 8.84 7.12 16 15.91 16a15.8 15.8 0 0 0 10.54-4l-3.11-3.92A10.87 10.87 0 0 1 27.9 39a10.97 10.97 0 0 1-10.94-11 10.97 10.97 0 0 1 16.1-9.7l2-4.59Z" fill="#FFFCFF"/><path d="M33.56 20.1a8.48 8.48 0 0 0-12.6 7.4c0 4.7 3.78 8.5 8.44 8.5 1.95 0 3.75-.66 5.18-1.78l-3.16-3.86a3.49 3.49 0 0 1-5.5-2.86 3.49 3.49 0 0 1 5.62-2.76l2.02-4.64ZM38.49 15.23c1.45 1.1 2.7 2.44 3.7 3.96l-7.32 3.31 3.62-7.27ZM37.32 33.06a9 9 0 0 0 .83-9.19L43 23c.5.87 1 2.5 1 4.77 0 3.07-.99 5.92-2.66 8.23l-4.02-2.94Z" fill="#FFFCFF"/></svg>