<!-- by TradeStack --><svg viewBox="0 0 56 56" xmlns="http://www.w3.org/2000/svg"><path fill="#F0F3FA" d="M0 0h56v56H0z"/><path fill-rule="evenodd" d="M42.24 23h-.62l.7.69H43l-.75-.69Zm-1.66 1h3.57l-.5 1.04c0-.37-.28-.67-.62-.67H41.5V26h1.43c.19 0 .34-.18.34-.38v-.31h.34v1.8h-.34v-.33c0-.2-.15-.37-.34-.37H41.5v1.24h1.8c.2 0 .37-.19.37-.4H44V28h-3.42v-.35h.26c.17 0 .17-.14.16-.32V24.7c0-.18 0-.32-.16-.32h-.26V24Zm-4.01 6h3.57l-.5 1.04c0-.37-.28-.67-.61-.67h-1.54V32h1.44c.18 0 .33-.18.33-.38v-.31h.34v1.8h-.34v-.33c0-.2-.15-.37-.33-.37h-1.44v1.24h1.8c.21 0 .38-.19.38-.4h.32V34h-3.42v-.35h.26c.17 0 .17-.14.17-.32V30.7c0-.18 0-.32-.17-.32h-.26V30ZM17 27.33v-3.65c0-.19-.21-.34-.4-.34h-.34V23h4.36l-.4 1.01H20v-.67h-2.5v2.01h1.54c.37 0 .66-.29.66-.65h.3v1.68h-.3c0-.37-.3-.67-.66-.67H17.5v1.95h.84V28h-2.08v-.34h.34c.19 0 .4-.15.4-.33ZM28.48 24l-1.35 3.59h-.56V28h1.7v-.41h-.66l.42-1.2h1.12l.48 1.25H29V28h3v-.41h-.29c-.19 0-.34-.12-.34-.32v-2.36l2.5 3.09h.63v-3.25c0-.2.11-.37.3-.37h.2V24h-1.54v.38h.24c.2 0 .3.16.3.37v2.23L31.63 24h-1.1v.38h.14c.19 0 .33.16.33.37v2.52c0 .2-.14.32-.33.32h-.44L28.98 24h-.49Zm.53 2h-.84l.4-1.16.44 1.16ZM22 24h-1.53v.37h.2c.19 0 .33.16.33.36v2.55c0 .2-.14.37-.32.37h-.21V28H22v-.35h-.14a.37.37 0 0 1-.36-.37v-2.55c0-.2.17-.36.36-.36H22V24Zm16.7 0h1.55v.37h-.17c-.18 0-.33.16-.33.36v2.55c0 .2.15.37.33.37h.17V28h-1.56v-.35h.21c.19 0 .33-.16.33-.37v-2.55c0-.2-.14-.36-.33-.36h-.2V24ZM24 27.64V28h-1.45v-.36h.13c.18 0 .32-.17.32-.37v-2.52c0-.2-.14-.37-.32-.37h-.13V24h1.06L26 26.98v-2.23c0-.2-.2-.37-.38-.37h-.23V24h1.5v.38h-.2c-.18 0-.33.16-.33.37V28h-.57l-2.43-3.09v2.36c0 .2.15.37.33.37H24ZM29 34v-.36h-.3c-.2 0-.34-.17-.34-.37v-2.36L30.79 34h.57v-3.25c0-.2.14-.37.33-.37h.19V30h-1.5v.38h.24c.18 0 .38.16.38.37v2.23L28.6 30h-1.06v.38h.14c.18 0 .32.16.32.37v2.52c0 .2-.14.37-.32.37h-.14V34H29Zm9.6-9v-.6c-.15-.13-.64-.4-1.4-.4-.95 0-2.2.75-2.2 2.04S36.16 28 37.2 28c.83 0 1.55-.66 1.8-1h-.76c-.15.24-.56.7-1.04.7a1.6 1.6 0 0 1-1.51-1.66c0-1.15.84-1.63 1.51-1.63s1.04.27 1.04.59h.37Zm5.86-1v.32h.21c.22 0 .33.16.33.36v2.6c0 .2-.11.35-.33.35h-.2V28h1.99v-.37h-.4c-.21 0-.56-.16-.56-.36v-1.11h.94l.91 1.84h4.27l.38-1h-.22l-.49.6h-1.75v-1.24h1.12c.18 0 .34.16.34.36V27h.3v-1.71H51v.35c0 .2-.16.36-.34.36h-1.12v-1.62h1.45c.18 0 .33.16.33.36h.35V24h-3.1v.38h.09c.18 0 .33.16.33.36v2.86h-1.28l-.76-1.54c.39-.13.78-.41.78-.96 0-.8-.6-1.07-.9-1.1h-2.37Zm1.04.36v1.45h.74c.45 0 .8-.32.8-.73 0-.4-.35-.72-.8-.72h-.74ZM16.77 33.7l.32-4.38h-1.01V29h2.03l1.62 3.85L21.35 29H23v.32h-.65c-.19 0-.35.15-.35.33v3.72c0 .19.16.34.35.34H23V34h-2.5v-.3h.5c.2 0 .35-.14.35-.33v-3.42L19.73 34h-.48l-1.69-4.05-.2 3.76H18V34h-2v-.3h.77ZM35.6 31v-.6c-.16-.13-.65-.4-1.41-.4-.95 0-2.2.75-2.2 2.04S33.16 34 34.2 34c.83 0 1.55-.66 1.8-1h-.76c-.15.24-.56.7-1.04.7a1.6 1.6 0 0 1-1.51-1.66c0-1.15.84-1.63 1.51-1.63s1.04.27 1.04.59h.37Zm-10.36 3c1.24 0 2.25-.9 2.25-2s-1-2-2.25-2c-1.24 0-2.25.9-2.25 2s1 2 2.25 2Zm0-.35c.83 0 1.5-.74 1.5-1.65 0-.91-.67-1.65-1.5-1.65s-1.5.74-1.5 1.65c0 .91.67 1.65 1.5 1.65ZM40.22 30v.35h.39L42 32.2v1.4h-.78V34h2v-.4h-.8v-1.4l1.5-1.85h.3V30h-1.41v.35h.63l-1.15 1.38-1.03-1.38h.5V30h-1.54Z" fill="#007844"/><path fill="url(#actqx3uj1)" d="M4 23h11v11H4z"/><path fill-rule="evenodd" d="M14 24H5v9h9v-9ZM4 23v11h11V23H4Z" fill="#0C7C4B"/><defs><linearGradient id="actqx3uj1" x1="13.94" y1="23.54" x2="4.74" y2="33.1" gradientUnits="userSpaceOnUse"><stop stop-color="#027944"/><stop offset="1" stop-color="#6FAB4C"/></linearGradient></defs></svg>