<!-- by TradeStack --><svg viewBox="0 0 56 56" xmlns="http://www.w3.org/2000/svg"><path fill="#F0F3FA" d="M0 0h56v56H0z"/><path d="M8 25v1H5v-6h1v5h2ZM12 24.95c0 .28.06.44.29.44a.4.4 0 0 0 .37-.26l.12.06a.93.93 0 0 1-.93.8.77.77 0 0 1-.8-.66c-.35.42-.86.66-1.4.67-.71 0-1.13-.4-1.13-.94 0-1.07 1.37-1.34 2.48-1.43v-.23c0-.34-.15-.63-.65-.63-.46.03-.85.33-1 .76l-.7-.54a2 2 0 0 1 1.73-.99c1.15 0 1.62.58 1.62 1.47v1.48Zm-1-.82c-.8.08-1.51.27-1.51.76 0 .2.15.38.48.38.39 0 .77-.18 1.03-.47v-.67ZM18.5 23.25V26h-1v-2.25c0-.57-.07-.93-.52-.93-.46 0-.74.55-.74 1.21V26h-.95v-2.25c0-.57-.15-.93-.63-.93s-.66.6-.66 1.21V26h-1v-4h1v.88c0-.36.5-.85 1-.88.51-.03.98.38 1.09.96.2-.55.66-.92 1.18-.96.63-.03 1.2.53 1.23 1.25ZM24.5 23.25V26h-1v-2.25c0-.57-.07-.93-.52-.93-.46 0-.74.55-.74 1.21V26h-.95v-2.25c0-.57-.15-.93-.63-.93s-.66.6-.66 1.21V26h-1v-4h1v.88c0-.36.5-.85 1-.88.51-.03.98.38 1.09.96.2-.55.66-.92 1.18-.96.63-.03 1.2.53 1.23 1.25ZM28.49 23.36V26h-.94v-2.24c0-.56-.17-.94-.7-.94-.54 0-.92.5-.92 1.25V26H25v-6h.93v2.88c.22-.52.7-.86 1.23-.87.7-.04 1.3.59 1.33 1.35ZM29 24.48V22h1v2.23c0 .58.16.91.65.91.55-.05.9-.55.85-1.12V22h1v4h-.93v-.88c-.2.54-.7.89-1.24.88A1.25 1.25 0 0 1 29 24.8v-.32ZM43.5 32.48V30h1v2.23c0 .58.16.91.65.91.55-.05.9-.55.85-1.12V30h1v4h-.93v-.88c-.2.54-.7.89-1.24.88a1.25 1.25 0 0 1-1.33-1.2v-.32ZM27.5 31.52V34h-1v-2.23c0-.58-.16-.91-.65-.91-.55.05-.9.55-.85 1.12V34h-1v-4h1v.88c.2-.54.63-.89 1.17-.88.68-.05 1.28.48 1.33 1.2v.32ZM33.55 26v-6h1v6h-1ZM36 24.75v-1.94h-1V22h1v-.73l1-.9V22h1v.78h-1v1.83c0 .37.18.52.5.52.24 0 .47-.07.66-.21l.14.8c-.31.2-.68.3-1.05.27A1.13 1.13 0 0 1 36 25v-.24ZM39.1 24.43c.28.5.8.82 1.36.8.33 0 .67-.07.67-.36s-.22-.32-.57-.41l-.77-.2a1.17 1.17 0 0 1-.96-1.11c0-.75.68-1.15 1.4-1.15.59-.01 1.15.27 1.5.78l-.56.59c-.2-.37-.58-.6-.99-.6-.3 0-.5.13-.5.33s.26.35.55.42l.65.17c.6.16 1.1.5 1.1 1.13 0 .84-.76 1.18-1.58 1.18a2.2 2.2 0 0 1-1.88-.95l.59-.62ZM5 34v-6h2.04C8.81 28 10 29.2 10 30.96 10 32.73 8.85 34 6.89 34H5Zm1.8-1c1.34 0 2.2-.64 2.2-2 0-1.36-.9-2-2.2-2H6v4h.8ZM12.28 34c-1.1.02-2-.86-2.02-1.96A1.99 1.99 0 0 1 12.2 30c.94-.05 1.75.61 1.8 1.55V32h-2.73c.05.76.45 1.2 1.06 1.2.45.04.85-.29.89-.74l.91.2c-.2.84-.99 1.4-1.85 1.33Zm-1-2.48h1.74c.02-.42-.3-.73-.71-.75h-.12c-.47-.03-.87.28-.9.75h-.01ZM14.71 32.43c.27.5.78.82 1.32.8.33 0 .66-.07.66-.36s-.21-.32-.56-.41l-.75-.2a1.17 1.17 0 0 1-.95-1.11c0-.75.68-1.15 1.38-1.15.58-.01 1.13.27 1.47.78l-.55.59c-.2-.37-.57-.6-.96-.6-.3 0-.49.13-.49.33s.24.35.53.42l.64.17c.59.16 1.08.5 1.08 1.13 0 .84-.75 1.18-1.55 1.18a2.14 2.14 0 0 1-1.85-.95l.58-.62ZM19 28.49v1.04h-1V28.5h1ZM19 34h-1v-4h1v4ZM19.36 34.76l.87-.44c.17.52.66.87 1.21.86.65 0 1.1-.48 1.1-1.3v-.7c-.27.48-.78.8-1.35.79-1 0-1.69-.8-1.69-1.94S20.15 30 21.23 30c.57 0 1.08.35 1.3.88V30h.98v3.82c0 1.22-.62 2.03-1.68 2.16-.83.11-2.12-.32-2.47-1.22Zm2.16-3.97c-.64 0-1 .49-1 1.17 0 .69.34 1.2 1 1.2.57 0 1.03-.48 1.03-1.05l-.01-.13c0-.75-.4-1.2-1.02-1.2ZM30 31.06a2.83 2.83 0 0 1 2.86-3.05 2.27 2.27 0 0 1 2.37 1.89l-.89.39a1.47 1.47 0 0 0-1.59-1.36A1.8 1.8 0 0 0 31 30.78v.14c-.1 1.08.62 2.24 1.75 2.24.94 0 1.71-.33 1.8-1.16h-1.98l-.18-1h3.02v3h-.7v-.94c-.4.62-1.08.97-1.79.94A2.89 2.89 0 0 1 30 31.14v-.07ZM37 32.16V34h-1v-4h1v.89c.14-.51.54-.87 1.05-.89.57 0 .95.43.95 1.16 0 .18-.02.36-.07.53l-.87.17c.04-.15.06-.3.06-.45 0-.41-.16-.6-.44-.6-.39.02-.68.5-.68 1.35Z" fill="#1D1D1B"/><path d="M41 30a2 2 0 1 1-2 2 1.91 1.91 0 0 1 1.82-2H41Zm0 3.22c.69 0 1-.55 1-1.24s-.31-1.2-1-1.2-1 .51-1 1.2.31 1.24 1 1.24ZM50.33 34c-.57 0-1.08-.32-1.33-.82V36h-1v-6h1v.87c.25-.53.75-.87 1.34-.87 1 0 1.66.81 1.66 1.91 0 1.1-.64 2.1-1.67 2.1Zm-.34-.82c.64 0 1.01-.41 1.01-1.18 0-.76-.35-1.2-1-1.2-.67 0-1 .5-1 1.2-.06.58.4 1.12 1 1.18Z" fill="#1D1D1B"/></svg>