<!-- by TradeStack --><svg viewBox="0 0 56 56" xmlns="http://www.w3.org/2000/svg"><path fill="#F0F3FA" d="M0 0h56v56H0z"/><path d="M21.77 40a8.06 8.06 0 0 1-3.59-.75A5.53 5.53 0 0 1 15.82 37c-.55-1-.82-2.21-.82-3.64 0-1.42.21-2.8.63-4.16a11.87 11.87 0 0 1 1.86-3.67 9.21 9.21 0 0 1 2.99-2.58 8.27 8.27 0 0 1 4-.96c1.84 0 3.21.4 4.13 1.2.93.8 1.39 1.86 1.39 3.17 0 .9-.21 1.72-.63 2.47a5.53 5.53 0 0 1-1.92 1.92c-.86.54-1.94.95-3.25 1.24-1.3.3-2.84.44-4.61.44h-.73a134.11 134.11 0 0 0-.05.96c0 1.16.32 2.07.94 2.74.63.66 1.54 1 2.73 1 .9 0 1.74-.12 2.5-.34.77-.22 1.63-.55 2.58-.99v2.9c-.87.41-1.76.73-2.65.96-.9.22-1.94.33-3.14.33Zm-2.44-10.22h.55c1.32 0 2.46-.12 3.43-.36a5.24 5.24 0 0 0 2.25-1.1c.52-.5.79-1.09.79-1.79 0-.54-.18-.97-.54-1.27-.34-.31-.86-.47-1.55-.47-.68 0-1.35.2-2 .61-.66.4-1.25.97-1.76 1.73-.52.74-.91 1.62-1.17 2.65ZM34.81 40c-1.04 0-1.95-.1-2.73-.28a7.93 7.93 0 0 1-2.08-.79v-3.15c.64.4 1.36.73 2.16 1s1.64.4 2.49.4c.66 0 1.23-.1 1.72-.28.5-.2.87-.46 1.14-.8.28-.36.42-.79.42-1.29 0-.37-.08-.69-.24-.97a2.98 2.98 0 0 0-.82-.86c-.4-.3-.93-.65-1.62-1.05-.73-.43-1.35-.87-1.86-1.3-.5-.46-.89-.95-1.16-1.5a4.4 4.4 0 0 1-.39-1.9 4.66 4.66 0 0 1 2.79-4.6c.9-.42 1.96-.63 3.18-.63A10.37 10.37 0 0 1 43 23.33l-1.15 2.73a9.97 9.97 0 0 0-1.83-.83 6.34 6.34 0 0 0-2.16-.36c-.71 0-1.3.17-1.79.52-.47.34-.7.83-.7 1.47 0 .34.07.64.22.91a3 3 0 0 0 .8.8c.37.27.87.59 1.51.94.7.4 1.3.82 1.85 1.25.54.44.96.95 1.27 1.53.31.56.47 1.24.47 2.05 0 1.22-.28 2.26-.83 3.1a5.11 5.11 0 0 1-2.3 1.92c-1 .43-2.19.64-3.55.64Z" fill="#2E65A1"/><path d="M7 26c4.33-4.27 15.6-13.44 26-16-4.73 4.8-16.55 14.72-26 16Z" fill="#87BA13"/></svg>