<!-- by TradeStack --><svg viewBox="0 0 56 56" xmlns="http://www.w3.org/2000/svg"><path fill="#F0F3FA" d="M0 0h56v56H0z"/><path d="M25.1 24c-.06 0-.1 0-.12-.06a61.2 61.2 0 0 1-.23-.7l-.34-.97a.22.22 0 0 1-.01-.08c0-.1.1-.2.21-.2h2.89V24h-2.4Zm2.9-1.6v-.1l.63 1.7H28v-1.6Zm20.66 1.96a.71.71 0 0 0-.18-.27c-.07-.09-.25-.1-.34-.1h-1.8c-.1.01-.21.01-.3.09a.56.56 0 0 0-.2.28C44.64 26.96 42.4 32 42.4 32h2.12c.09 0 .17-.02.24-.08a.46.46 0 0 0 .16-.22l.59-1.58a.17.17 0 0 1 .05-.1.15.15 0 0 1 .09-.02h2.99c.03 0 .05.01.08.03.03.02.05.05.06.08l.6 1.6c.04.1.1.17.16.22a.4.4 0 0 0 .24.07H52s-2.15-4.98-3.34-7.64Zm-.33 4.14H46.1l1.09-2.7 1.14 2.7Zm-31.93.25H20v-1.5h-3.6V25.5H20V24h-5.6c-.1 0-.21.04-.29.13a.52.52 0 0 0-.1.36v7.02c-.01.07 0 .13.01.2.02.06.05.12.1.16.03.05.08.09.13.1.06.03.11.03.17.03H20v-1.5h-3.6v-1.75ZM32.43 24h1.97v6.5H38V32h-5.54c-.1 0-.2-.01-.28-.07a.45.45 0 0 1-.16-.26.32.32 0 0 1-.02-.12v-7.03c0-.34.15-.52.43-.52Zm7 0c-.22 0-.43.21-.43.46v7.07c0 .13.04.25.12.33a.4.4 0 0 0 .3.14h1.98v-8h-1.97Zm-14.15 3.08-.55 1.42h1.18l.48 1.5H24.2c-.03 0-.06 0-.09.02a186.19 186.19 0 0 1-.75 1.82c-.03.05-.11.16-.35.16H21c.55-1.34 1.13-2.67 1.7-4l1.7-4 .1.29.23.73.28.9.27.89c.03.09.03.18 0 .27Zm5.07 2.6c-.03-.08-.06-.08-.11-.08H28V32h2.8c.1 0 .2-.1.2-.23 0-.03 0-.07-.02-.1l-.63-2Zm-.83-2.58c.2.67.6 1.9.6 1.9H28v-1.91c0-.07.04-.1.07-.09h1.33c.06 0 .1.05.12.1ZM28 24.6v1.8h1.29l-.5-1.55c-.08-.25-.18-.25-.32-.25H28Zm-2.78 0s.35 1.1.57 1.7c.02.06.07.1.13.1h1.51c.02 0 .07-.02.07-.08V24.6h-2.28ZM27.5 27v2h-.54c-.14 0-.26 0-.35-.28L26.03 27h1.47Zm0 4.34V29.6h-.6l.6 1.74Zm-17.1-3.3c.42.09 1.01.23 1.32.84C12.13 29.9 13 32 13 32h-2.45c-.02 0-.05 0-.08-.03a.14.14 0 0 1-.05-.07l-.25-.56c-.3-.66-.56-1.25-.89-1.93-.22-.38-.6-.41-.98-.41h-.9v2.55c0 .1-.03.22-.11.31a.39.39 0 0 1-.3.14H5.37a.33.33 0 0 1-.14-.03.37.37 0 0 1-.12-.1.46.46 0 0 1-.1-.3v-7.02c-.01-.3.06-.4.22-.51.04-.04.18-.04.22-.04H8.56c.75 0 1.86.04 2.55.54.55.4.89.96.89 1.57 0 .98-.49 1.55-1.24 1.82l-.37.11Zm-3-.74h.65c.76 0 1.65-.03 1.65-.9 0-.86-1.04-.9-1.57-.9H7.4v1.8Z" fill="#171C5E"/></svg>