<!-- by TradeStack --><svg viewBox="0 0 56 56" xmlns="http://www.w3.org/2000/svg"><path fill="#F0F3FA" d="M0 0h56v56H0z"/><path d="M21.02 30.3C10.9 29.96 7.46 31.36 7 32.1l2.36 1.06c3.67-1.47 6.93-2.04 14.04-2.11 5.69-.06 9.22-.86 10.27-1.25 0 2.29-3.7 7.87-4.38 8.9-.68 1.04-.61 1.72.68 2.19 1.04.37 2-.28 2.36-.65C38.42 32.6 43.98 28.9 46 28c-3.5.68-5.85 2-6.58 2.57-1.63 1.2-5.02 3.55-5.5 3.38-.48-.17.2-3.7.6-5.44-.29.74-3.39 2.14-13.5 1.8Z" fill="#FD2B0B"/><path d="M38.95 17.23c.82-1.27 1.63-1.31 1.93-1.18.69.38.47.82.27.99l-.73.53c-.25.35-.16.6 0 .72.15.12.46.62 0 1.27-.47.66-2.19 2.3-3 1.65-.81-.65.5-2.4 1.53-3.98Z"/></svg>