<!-- by TradeStack --><svg viewBox="0 0 56 56" xmlns="http://www.w3.org/2000/svg"><path fill="#01559E" d="M0 0h56v56H0z"/><path d="M6.4 22H8v10H6.91l-.23-.63c-.3.4-.74.63-1.2.63C4.62 32 4 31.06 4 30.03v-2.96C4 26.1 4.4 25 5.29 25c.49 0 .85.24 1.11.64V22Zm-.8 8.06c0 .25.16.54.37.55.13 0 .32-.08.43-.32v-3.42a.56.56 0 0 0-.18-.23.43.43 0 0 0-.25-.1c-.2 0-.37.17-.37.53v2.99ZM34.4 22v1.6H36V22h-1.6ZM29 32h1.6v-5.08c0-.22.18-.62.46-.62.29 0 .34.38.34.73V32H33v-5.2c0-1.2-.42-1.8-1.27-1.8-.48 0-.87.25-1.16.78l-.1-.78H29v7Zm-2.6-7H28v7h-1.47l-.1-.78c-.29.53-.68.78-1.16.78-.85 0-1.27-.6-1.27-1.8V25h1.6v4.97c0 .35.05.73.34.73.28 0 .46-.4.46-.62V25Zm-11.18 6.87c.26.1.53.13.8.13.43 0 1.03-.15 1.4-.57.46-.5.58-1.21.58-2.43h-1.6v1.11c0 .34-.15.59-.4.59-.4 0-.4-.5-.4-.9v-2.7c0-.24 0-.8.41-.8.29 0 .39.32.39.57v.81H18c0-1.78-.6-2.68-1.92-2.68a2.07 2.07 0 0 0-1.5.56c-.39.37-.58.89-.58 1.55v2.68c0 .7.18 1.26.54 1.64.2.2.43.34.68.44ZM13 29.57c0 .81-.18 1.42-.55 1.82-.4.4-.95.61-1.52.6-.52.01-1.04-.18-1.4-.56A2.32 2.32 0 0 1 9 29.8v-2.7c0-.66.18-1.18.54-1.54.39-.38.93-.56 1.46-.56.54 0 1.07.18 1.46.55.36.36.54.9.54 1.64V29h-2.4v.93c0 .24.05.77.4.77.35 0 .4-.56.4-1.14H13Zm-1.96-3.27c-.24 0-.44.22-.44.65V28h.8v-1.05c0-.43-.12-.65-.36-.65ZM23 29.57c0 .81-.18 1.42-.55 1.82-.4.4-.95.61-1.52.6-.52.01-1.04-.18-1.4-.56A2.32 2.32 0 0 1 19 29.8v-2.7c0-.66.18-1.18.54-1.54.39-.38.93-.56 1.46-.56.54 0 1.07.18 1.46.55.36.36.54.9.54 1.64V29h-2.4v.93c0 .24.05.77.4.77.35 0 .4-.56.4-1.14H23Zm-1.96-3.27c-.24 0-.44.22-.44.65V28h.8v-1.05c0-.43-.12-.65-.36-.65ZM38.6 32H37v-7h1.47l.1.78c.29-.53.68-.78 1.16-.78.85 0 1.27.6 1.27 1.8V32h-1.6v-4.97c0-.35-.05-.73-.34-.73-.28 0-.46.4-.46.62V32Zm-4.2-7v7H36v-7h-1.6Zm14.2 3.98L50.05 32H52l-1.95-3.86L51.78 25H49.9l-1.29 2.43V22H47v10h1.6v-3.02Zm-5.38 2.9c.26.1.53.12.8.12.43 0 1.03-.15 1.4-.57.46-.5.58-1.21.58-2.43h-1.6v1.11c0 .35-.15.6-.4.6-.4 0-.4-.5-.4-.9v-2.7c0-.25 0-.8.41-.8.29 0 .39.31.39.56v.81H46c0-1.78-.6-2.68-1.92-2.68a2.07 2.07 0 0 0-1.5.56c-.39.38-.58.9-.58 1.55v2.68c0 .71.18 1.26.54 1.64.2.2.43.34.68.44Z" fill="#fff"/></svg>