<!-- by TradeStack --><svg viewBox="0 0 56 56" xmlns="http://www.w3.org/2000/svg"><path fill="#F0F3FA" d="M0 0h56v56H0z"/><path d="M37 21h3v2h-3v-2Zm0 3h3v8h-3v-8ZM5 26.92C5 25.3 6.19 24 7.66 24h4.68c1.47 0 2.66 1.3 2.66 2.92V27h-3v-.11c0-.5-.3-.89-.65-.89h-2.7c-.36 0-.65.4-.65.89v2.22c0 .5.3.89.65.89h2.7c.36 0 .65-.4.65-.89V29h3v.08C15 30.7 13.81 32 12.34 32H7.66C6.19 32 5 30.7 5 29.08v-2.16ZM18.16 24c-1.47 0-2.66 1.3-2.66 2.92v2.16c0 1.61 1.19 2.92 2.66 2.92h4.68c1.28 0 2.34-.99 2.6-2.3h-3.1c-.12.18-.3.3-.49.3h-2.7c-.36 0-.65-.4-.65-.89V29H25.5v-2.08c0-1.61-1.19-2.92-2.66-2.92h-4.68Zm4.34 3h-4v-.11c0-.5.3-.89.65-.89h2.7c.36 0 .65.4.65.89V27Zm6.5-2.02c.57-.48 1.64-.98 3.37-.98 3.1 0 3.63 1.78 3.63 2.75v5.21h-3v-4.32c0-.75-.31-1.64-1.03-1.64h-1.94c-.72 0-1.03.9-1.03 1.64V32h-3v-7.94h3v.92ZM42 26v2.77A3.37 3.37 0 0 0 45.26 32h1.7c1.62 0 3.04-1.44 3.04-3.23v-.39h-3v.6c0 .45-.26 1.02-.67 1.02h-.67c-.4 0-.66-.57-.66-1.02V26h5v-2h-5v-2h-3v2h-1v2h1Zm3.45 6.94c-.35.02-5.94 1-8.65 1.81-.05.3-.13.95-.12 1.26.01.3.22.75.33.93.2.05.6.1.69 0 .1-.14 6.16-2.14 13.1-2.19.1-.02.28-.1.16-.24-.15-.19-.53-.12-.6-.1-.02 0-.01-.02 0-.05.02-.06.05-.17-.1-.2a.42.42 0 0 0-.22.02c-.04 0-.06.01-.1-.01-.06-.04-.04-.1-.02-.14l.02-.07v-.03c.01-.04.02-.07-.15-.05-.13.01-.14-.01-.14-.05a.13.13 0 0 0-.05-.08c-.07-.07-.13-.08-.21-.09h-.04c-.04 0-.03-.02-.02-.03.01-.01.03-.04-.14-.09-.1-.02-.15-.04-.19-.06-.07-.03-.1-.04-.28-.03h-.35a4.97 4.97 0 0 0-.84.07c-.18.04-.3.07-.33-.02-.02-.1.01-.13.05-.17a.56.56 0 0 0 .04-.04l.06-.04c.06-.03.1-.04-.15-.1a2.97 2.97 0 0 0-.27-.06c-.09-.01-.11-.01-.15-.06a.25.25 0 0 1-.03-.07c-.02-.06-.03-.1-.2-.1-.13 0-.2.05-.27.1-.06.03-.1.07-.17.07h-.3c-.05 0-.08-.02-.12-.04-.05-.02-.12-.05-.24-.05Z" fill="#009A8F"/></svg>