<!-- by TradeStack --><svg viewBox="0 0 56 56" xmlns="http://www.w3.org/2000/svg"><path fill="#F0F3FA" d="M0 0h56v56H0z"/><path d="M26.42 11.11s-.04.46-.32.7c-.32.25-.67.38-.98.38-.46 0-.83-.09-.83-.09s-.29.58-.29 1.93c0 1.36 4.38 1.22 6.12 0 1.06-.74 1.54-2.5-.79-2.92a9.52 9.52 0 0 0-2.91 0Z" fill="#78B3E0"/><path d="M32.55 12s1.14.75 1.14 1.7c0 2.83-4.07 3.3-7.31 3.3-3.47 0-6.05-1.46-6.55-1.64-.1-.04-.21-.1-.32-.1-.88 0-1.96 1.4-2.46 2.81a.74.74 0 0 0-.05.27C17 19.53 22.87 21 28 21c4.3 0 9-1 9.9-5.3.08-.4-1.76-2.28-5.35-3.7Z" fill="url(#ap303mnz2)"/><path d="M27.08 27c6.71 0 14.1-2.13 15.03-6.22 0-.38-.78-2.1-3.07-4.38 0 0 .39.6.39 1.38 0 3.76-7.37 5.22-11.8 5.22-3.25 0-6.61-1.02-7.02-1.15a1.23 1.23 0 0 0-.37-.06c-1 0-2.24.61-2.24 2.71 0 1.26 3.28 2.5 9.08 2.5Z" fill="#3A6EA3"/><path d="M11.23 28.18c.45 1.93 8.4 4.82 16.08 4.82C31.94 33 44 31.82 44 26.62c0-1.5-1.03-4.35-1.03-4.35-.77 4.35-6 6.73-15.11 6.73-10.8 0-14.45-4.2-15.2-4.2-1.03 0-1.66.87-1.66 2.15 0 .38.12.8.23 1.23Z" fill="#FF9803"/><path d="M14.74 32.37c2.08.71 6.48 2.23 12.95 2.23 12.22 0 15.81-4.73 15.81-4.73s-.6 2.8-1.45 4.33c-.42.47-3.37 3.8-14.09 3.8-5.93 0-12.52-1.72-14.3-3.56a2.88 2.88 0 0 1-.66-1.9c0-.41.22-.54.48-.54.2 0 .62.15 1.26.37ZM22 40.49c0 .96 2.12 1.51 5.3 1.51 3.6 0 9.46-1.2 10.83-2.28 1.08-.86 3-3.14 3.53-4.03-4.01 3-8.42 3.31-15.83 3.31-2.8 0-3.83.54-3.83 1.5Zm14 1.2c-1.72 2.6-4.9 3.31-7.1 3.31-1 0-2.9-.28-2.9-1.28 0-.8.9-.78 2.47-.74l1.25.02C33 43 36 41.69 36 41.69Z" fill="url(#bp303mnz2)"/><defs><linearGradient id="ap303mnz2" x1="25.48" y1="14.58" x2="28.54" y2="22.37" gradientUnits="userSpaceOnUse"><stop offset=".39" stop-color="#80BEEE"/><stop offset=".85" stop-color="#4B7DAF"/></linearGradient><linearGradient id="bp303mnz2" x1="17.63" y1="35.13" x2="40.57" y2="42.23" gradientUnits="userSpaceOnUse"><stop stop-color="#4474A7"/><stop offset=".5" stop-color="#1B4175"/><stop offset=".88" stop-color="#2C568A"/></linearGradient></defs></svg>