<!-- by TradeStack --><svg viewBox="0 0 56 56" xmlns="http://www.w3.org/2000/svg"><path fill="#F0F3FA" d="M0 0h56v56H0z"/><path d="M4.73 24.18a4.4 4.4 0 0 1 2.5-1.15c.97-.11 1.8.07 2.35.51.7.57 1 1.51.95 2.86a7.32 7.32 0 0 1-.86 3.03 3.6 3.6 0 0 1-1.24 1.31c-.61.32-1.2.25-1.8-.2a.63.63 0 0 0-.17-.11l-.05.2-.03.37h-.74c-.56 0-.73-.2-.73-.22a531.3 531.3 0 0 1 1.47-7.03c0-.05-.33.14-.57.34a2.4 2.4 0 0 0-.34.33c-.17.2-.38.63-.44.87-.1.46-.1 1.04.01 1.3l.05.12h-.12c-.43 0-.8-.22-.9-.53a1.66 1.66 0 0 1-.03-.83c.11-.45.32-.8.69-1.17Zm4.38 1.72c.07-1.27-.17-1.98-.79-2.27-.1-.05-.24-.1-.3-.11l-.1-.02-.67 3.14c-.49 2.3-.66 3.15-.64 3.18.04.07.26.16.41.2.52.07 1-.3 1.4-1.07a8.1 8.1 0 0 0 .7-3.05Zm2.71-1.15c-.4-.47-.12-1.27.48-1.35.2-.02.33 0 .51.09.3.14.47.45.44.8a.8.8 0 0 1-.48.68c-.13.05-.17.06-.37.05a.69.69 0 0 1-.58-.27Zm8.02-1.35a.8.8 0 0 0-.6.48.97.97 0 0 0 .01.7c.1.18.28.35.44.4.06.03.2.05.3.05.44 0 .77-.32.8-.76a.78.78 0 0 0-.45-.79.75.75 0 0 0-.5-.08Zm2.34.78.61-.09.75-.09h.08l-.16.78-.18.84-.02.05H24c.53 0 .72.01.72.03l-.03.2-.02.1H23.2l-.04.17c-.16.65-.74 3.33-.75 3.45-.03.3.09.43.41.43.2 0 .34-.06.5-.2.2-.17.28-.32.28-.46 0-.2.05-.58.12-.84.23-1.05.86-1.98 1.58-2.32.28-.14.5-.22.85-.23.26-.01.34.02.46.05l.06.02c.22.06.36.19.39.34.02.12.04.09.09-.17l.03-.24h.73c.55 0 .74.08.74.1l-.39 1.75c-.22 1-.38 1.77-.38 1.85 0 .16.06.28.17.36.06.04.11.05.24.05a.6.6 0 0 0 .48-.23c.1-.1.3-.44.3-.5 0-.05.86-3.8.92-4 .03-.1.11-.31.18-.46.12-.22.17-.29.35-.46.35-.33.68-.46 1.2-.46.4 0 .65.07.85.25.33.3.43.82.28 1.52-.24 1.08-.9 1.85-1.8 2.07-.13.03-.18.05-.19.1l-.18.8c-.24 1.05-.24 1.2.02 1.3.34.13.8-.12 1.02-.57l.11-.23c.01-.04.05-.04.23-.04h.2l-.05.15c-.44 1.09-1.14 1.64-2.1 1.65-.31 0-.47-.04-.69-.2a.83.83 0 0 1-.32-.43.51.51 0 0 0-.06-.15s-.07.06-.13.14c-.16.19-.4.37-.63.47-.55.25-1.23.21-1.51-.09-.14-.14-.2-.25-.26-.55l-.02-.07-.1.12c-.3.36-.72.64-1.08.72-.33.07-.74.03-1-.1-.19-.08-.4-.3-.51-.53l-.1-.2-.17.18c-.26.3-.58.5-.98.62-.16.04-.25.05-.52.05-.3 0-.34 0-.48-.07a.9.9 0 0 1-.55-.58l-.06-.18-.12.14c-.26.3-.66.55-1.05.65-.11.03-.27.04-.48.04-.3 0-.33 0-.5-.07a.91.91 0 0 1-.46-.42c-.11-.23-.14-.39-.13-.76.02-.3.05-.46.38-1.93l.16-.76.22-1.04h1.47c0 .01-.17.89-.38 1.83a31.25 31.25 0 0 0-.38 1.85c0 .27.1.37.4.37.12 0 .21-.02.3-.06.24-.1.51-.43.6-.72.06-.15.75-3.26.73-3.27h-.16c-.09 0-.16-.02-.16-.03l.02-.07.04-.17c.01-.05.03-.06.18-.06l.17-.01.33-1.48h.06Zm10.14 1.1c-.02-.3-.06-.44-.19-.5-.14-.07-.26-.03-.4.13-.18.18-.26.43-.5 1.46l-.22.99c0 .03.01.04.06.03.68-.2 1.28-1.21 1.25-2.12Zm-5.35 1.69c0-.1-.08-.21-.17-.28-.1-.07-.36-.08-.5-.02-.34.15-.71.67-.92 1.26-.17.47-.23.85-.24 1.32 0 .4 0 .41.07.55.1.19.2.25.4.25.1 0 .2-.02.27-.05.22-.1.46-.36.55-.6.05-.15.54-2.35.54-2.43Zm-11.5-.92c-.42.1-.69.25-1.03.6-.27.27-.46.54-.64.9a4.25 4.25 0 0 0-.45 1.69c-.02.3-.02.3-.1.44a.87.87 0 0 1-.72.41c-.29 0-.4-.1-.4-.38 0-.1.14-.76.37-1.83l.22-1 .16-.76.02-.12h-1.48v.1c-.02.04-.19.8-.38 1.69l-.36 1.63c0 .78.13 1.64 1.15 1.58h.07c.28-.02.46-.03.73-.15.2-.1.27-.15.52-.4.16-.15.3-.27.3-.25 0 .07.17.37.3.5.23.24.54.3.95.3.38 0 .74-.07 1.05-.33l.16-.1-.11.46-.12.04c-.17.03-.48.16-.7.3-.53.35-.92.95-1.1 1.72-.1.36-.11.86-.06 1.1.1.43.36.68.77.78.19.04.65.04.85-.01.53-.13.95-.52 1.18-1.08.1-.24.12-.36.45-1.83l1.3-5.95.02-.1h-.74c-.68 0-.74.05-.75.1l-.03.14-.01.06-.04.16-.05-.12c-.07-.15-.12-.2-.3-.27-.18-.08-.72-.1-1-.02Zm1.02.6c.1.06.21.2.21.28l-.26 1.26c-.3 1.33-.33 1.43-.56 1.65-.33.32-.76.34-.93.03-.22-.38-.04-1.66.34-2.38.09-.17.3-.47.4-.6.24-.25.58-.35.8-.23Zm-.96 5.65-.05.23-.25 1.07c-.13.39-.33.63-.52.63-.23 0-.34-.19-.33-.6.01-.9.55-1.84 1.17-2.05.15-.05.16-.05.14 0l-.16.72Zm21.91-9.27A4.2 4.2 0 0 0 35 24.2c-.35.35-.52.6-.64.95a1.3 1.3 0 0 0-.08.58c0 .3 0 .37.06.49.13.28.4.45.8.48h.19c.01-.03 0-.07-.04-.16l-.02-.05c-.07-.18-.07-.83.01-1.15.15-.6.5-1.08 1.03-1.43.25-.16.32-.2.32-.13l-1.46 6.97-.05.25h1.52l.03-.39.05-.2.21.14c.51.36.89.48 1.39.42.3-.04.48-.09.73-.22.63-.33 1.05-1.05 1.23-2.1.17-1.08-.08-1.86-.72-2.18a1.65 1.65 0 0 0-.3-.13c-.05 0-.09-.02-.09-.03 0-.01.07-.07.15-.12a2 2 0 0 0 .67-.8c.1-.24.15-.45.15-.72 0-.45-.12-.76-.44-1.08a1.68 1.68 0 0 0-.79-.46 4 4 0 0 0-1.47-.1Zm1.13.63c.34.18.52.46.54.86.06.8-.63 1.7-1.33 1.75-.14.01-.18 0-.18-.02 0-.04.54-2.66.56-2.7.02-.06.2 0 .41.1Zm-.23 3.2c.28.13.45.38.53.78.06.28.04.98-.02 1.24-.07.25-.24.57-.38.72-.28.3-.58.42-1 .42-.25 0-.27 0-.44-.1-.1-.04-.18-.1-.18-.13l.31-1.5.31-1.48h.11c.26-.04.63 0 .76.05Zm8.48-.85a2.46 2.46 0 0 0-1.68 1.08c-.6.9-.9 2.3-.63 3.04.16.44.51.73 1.03.83.27.06.74.05 1-.01.79-.2 1.46-.9 1.76-1.9.13-.44.18-.8.18-1.4 0-.48 0-.57-.06-.74-.18-.6-.54-.88-1.18-.9h-.41Zm.64.63c.04.02.1.08.12.13.06.13.1.56.09.86-.07.97-.36 1.85-.75 2.25-.17.18-.31.24-.52.24-.2 0-.3-.06-.38-.22-.06-.1-.06-.15-.06-.6 0-.42 0-.5.07-.78.23-.94.67-1.76 1.05-1.9.1-.04.3-.03.38.02Zm1.97.1c.17-.34.57-.61 1.06-.7.63-.12 1.23.06 1.43.44.16.33.07.73-.2.9a.6.6 0 0 1-.49 0l-.09-.07.08-.08c.18-.14.26-.45.14-.6-.13-.18-.48-.22-.75-.1-.24.11-.33.28-.28.53.05.25.11.33.68.86.5.47.56.53.64.7.14.28.19.48.18.77 0 .45-.15.82-.43 1.09-.38.35-.85.52-1.48.52-.53 0-.9-.12-1.14-.37-.2-.2-.27-.36-.28-.7a.97.97 0 0 1 .6-1.03c.12-.05.17-.06.38-.06.19 0 .25 0 .34.05.12.06.2.15.24.24.05.11.04.12-.1.12-.32 0-.53.1-.62.27-.13.25-.03.55.23.69.13.07.16.08.38.08.21 0 .25-.01.38-.08.28-.15.4-.48.34-.88-.04-.3-.19-.52-.7-1.07-.52-.53-.62-.72-.62-1.11 0-.22 0-.25.08-.4Zm-8.04-.7-.54 2.46-.54 2.47c0 .02.15.03.73.03h.75l.4-1.88c.22-1.03.42-1.9.44-1.94.05-.08.36-.3.48-.33a.91.91 0 0 1 .2-.03c.14 0 .18.05.22.25.06.29.18.4.48.4.37 0 .63-.28.67-.7a.68.68 0 0 0-.19-.55c-.14-.17-.27-.22-.52-.22-.34 0-.6.12-1.04.46a.97.97 0 0 1-.18.12l.11-.52.01-.06h-.73c-.57 0-.74 0-.75.03Z" fill="red"/></svg>