<!-- by TradeStack --><svg viewBox="0 0 56 56" xmlns="http://www.w3.org/2000/svg"><path fill="#F0F3FA" d="M0 0h56v56H0z"/><path d="M46 28c0 6.4-7.92 11.67-18 11.67s-18-5.2-18-11.6c0-6.4 7.92-11.67 18-11.67S46 21.53 46 28ZM6 28c0 8.27 9.88 15 22 15s22-6.73 22-15-9.88-15-22-15S6 19.73 6 28Z" fill="url(#a4h1m4kam)"/><path d="M34.6 26.63a6.45 6.45 0 0 0-1.9-.67 2.27 2.27 0 0 0-1.16.07c-.29.11-.42.57-.2.8.6.69 1.88.75 2.65 1.28.39.26.68.63.82 1.07.31.84.16 1.78-.4 2.48-1.1 1.4-3 1.54-4.64 1.07-.4-.1-.78-.24-1.16-.4v-2.28c.78.48 1.68.73 2.6.74.5-.01.95-.4.74-.94a.9.9 0 0 0-.48-.4c-1.09-.47-2.52-.74-2.86-2.08a3.3 3.3 0 0 1-.07-1.4 2.95 2.95 0 0 1 1.36-1.74c.32-.2.67-.34 1.03-.41a5.66 5.66 0 0 1 3.6.67l.08 2.14ZM27.4 24.5a5.66 5.66 0 0 0-3.61-.67 3.24 3.24 0 0 0-1.98 1.27c-.2.26-.34.55-.4.87-.09.47-.06.95.06 1.41.34 1.34 1.77 1.6 2.86 2.08.21.05.39.2.48.4a.6.6 0 0 1-.14.74c-.18.12-.39.2-.61.2a4.33 4.33 0 0 1-2.59-.74v2.28c.36.2.75.34 1.16.4 1.57.47 3.54.34 4.63-1.07.53-.71.69-1.64.41-2.48-.15-.43-.44-.8-.82-1.07-.86-.55-1.95-.59-2.72-1.28-.33-.89.73-1 1.36-.87.67.13 1.31.35 1.9.67V24.5Zm-6.75-2.76a5.64 5.64 0 0 0-4.29-.54c-.95.24-1.74.88-2.18 1.75-.2.42-.28.87-.27 1.34.08 1.03.7 1.94 1.64 2.4-.13.16-.3.27-.48.34a3.2 3.2 0 0 0-1.16 3.64c.45 1.17 1.48 2 2.73 2.22.58.12 1.18.14 1.77.06.44-.05.87-.14 1.29-.26.34-.08.66-.22.95-.4l-.34-2.15c-.88.13-1.77.53-2.65.2-.9-.48-.82-2.06.2-2.37.73-.2 1.4-.26 2.15-.2v-2c-.61.07-1.13.05-1.74-.08-.2-.04-.39-.14-.54-.26-.16-.15-.3-.3-.41-.47a.9.9 0 0 1 0-1c.61-1.15 2.18-.68 3.2-.28l.13-1.94Zm14.99 6.63c.07 3.49 1.84 4.63 3.95 4.63 2.11 0 3.81-1.34 3.75-4.76-.07-3.42-1.84-4.62-3.96-4.62-2.1 0-3.81 1.34-3.74 4.75Zm5.1-.06c0 1.54-.54 2.41-1.29 2.41s-1.36-.8-1.36-2.41.48-2.42 1.3-2.42c.81 0 1.36.74 1.36 2.42Z" fill="#FE000C"/><defs><linearGradient id="a4h1m4kam" x1="14.11" y1="16.77" x2="18.18" y2="25.08" gradientUnits="userSpaceOnUse"><stop stop-color="#C4D2E7"/><stop offset="1" stop-color="#0A4496"/></linearGradient></defs></svg>