<!-- by TradeStack --><svg viewBox="0 0 56 56" xmlns="http://www.w3.org/2000/svg"><path fill="#F0F3FA" d="M0 0h56v56H0z"/><path d="M17 12h22v32H17V12Z" fill="#878787"/><path d="M20 33h5l-2 3h-5l2-3ZM32 30h-3.69L21 43h3.69L32 30Z" fill="#D0D0D0"/><path d="M36 24h-3.33L31 27h3.33L36 24Z" fill="#D61317"/><path d="m31 24-1.63 3h-6.94S15 28 15 35.27c0 3.37 2.1 4.73 4.15 4.73 1.72 0 3.48-1.24 3.85-2l-2.76 5h-1.66S12 42.4 12 35s7.14-10.97 10.46-10.97C25.78 24.03 31 24 31 24ZM28 36h9.55S44 34.8 44 29.46 39.02 24 39.02 24h-1.64l-1.79 3h3.43s1.98.16 1.98 2.3c0 2.16-1.77 3.7-2.91 3.7h-9.42L28 36Z" fill="#D0D0D0"/></svg>