<!-- by TradeStack --><svg viewBox="0 0 56 56" xmlns="http://www.w3.org/2000/svg"><path fill="#F0F3FA" d="M0 0h56v56H0z"/><path d="M26.91 28H9.07c-.77 0-1.29-.83-.98-1.57l4.01-9.75c.17-.41.56-.68.99-.68h17.6c.76 0 1.28.8.99 1.54l-3.77 9.76c-.17.42-.56.7-1 .7Zm9.6 14H18.66c-.77 0-1.3-.83-.99-1.57l4.02-9.75c.16-.41.55-.68.98-.68h17.6c.76 0 1.28.8 1 1.54L37.5 41.3c-.17.42-.56.7-1 .7Zm-4.86-14h10.5c.44 0 .83-.28 1-.7l3.77-9.76c.29-.73-.23-1.54-1-1.54H35.68c-.43 0-.82.27-.99.68l-4.01 9.75c-.3.74.21 1.57.98 1.57Z" fill="#BCCBD3"/></svg>