<!-- by TradeStack --><svg viewBox="0 0 56 56" xmlns="http://www.w3.org/2000/svg"><path fill="#F0F3FA" d="M0 0h56v56H0z"/><path d="M43.7 42c-3.92 0-4.94-8-13.76-8-8.33 0-12.12 8-15.89 8-.33 0-1.05-1.28-1.05-2.25 0-3.27 3.57-10.29 6.43-15.18 3.4-5.82 6.6-10.45 10.78-10.45 3.9 0 8.05 6.42 10.7 12.17C42.93 30.67 45 37.1 45 40.26c0 1.3-.69 1.74-1.3 1.74Z" fill="#347322"/><path d="M42.01 38c-3.87 0-6.33-7-13.82-7-9.5 0-12.15 11-14.01 11C13 42 13 41.03 13 39.06c0-4.69 2.94-13.58 5.62-17.99 2.02-3.32 3.87-6.17 5.83-7.96C25.83 11.85 26.93 11 28.5 11c3.19 0 6.1 3.64 8.5 8.13a55.22 55.22 0 0 1 2.03 4.5C40.91 28.14 43 33.77 43 36.6c0 .94-.3 1.39-.99 1.39Z" fill="#8FD201"/><path d="M17.69 22.13c3.4-5.5 4.93-9.13 8.62-9.13 2.19 0 2.95.35 4.1 1.44 2.35 2.22 4.26 6.3 5.84 10.06C38.05 28.79 40 35.23 40 37.75c0 .55-.03.89-.1 1.2-.11.46-.29.8-.68.8-2.55 0-4.54-3.67-7.84-6.04A9.4 9.4 0 0 0 25.66 32a12 12 0 0 0-2.96.3c-5.55 1.42-7.08 6.6-10 7.54-.28.1-.58.16-.9.16-.55 0-.8-.48-.8-1.3 0-3.26 3.8-11.9 6.69-16.58Z" fill="#9AD919"/><path d="M39.68 39.48s-1.5-1.88-3.07-3.13C34.07 34.34 30.85 34 30.85 34c1.29.9 2.5 2.03 3.52 3.04 1.62 1.62 2.7 2.96 4.32 2.96.27 0 .88-.16.99-.52Z" fill="#DBE3CF"/><path d="M40 37.44c0 .5 0 1.67-.32 2.04 0 0-1.46-1.75-2.99-3.03-2.46-2.04-5.84-2.45-5.84-2.45-1.55-1.14-2.77-2.01-5.1-2.01-1.1 0-1.88 0-2.75.23 0 0 1.77-1.22 4.86-1.22 5.4 0 7.95 3.86 12.14 6.44Z" fill="#A9E539"/><path d="M20.64 23C16.86 28.7 13 39.7 13 39.7s.6-5.38 1.53-8.8c1.03-3.75 2.15-7.33 4.18-10.64 2.7-4.4 4.4-7.26 7.7-7.26 1.16 0 1.9.03 3.59 1 0 0-3.58.27-9.36 9Z" fill="#B2E14D"/><path d="M11.8 40c.33 0 .86-.1 1.2-.27 0 0 .61-5.14 1.55-8.63.93-3.48 3.2-9.1 3.2-9.1C14.85 26.72 11 35.32 11 38.64c0 .85.24 1.36.8 1.36Z" fill="#A3DE38"/><path d="M28.37 24c1.76 0 2.1 2 3.25 2 .27 0 .38-.26.38-.69 0-2.75-2.11-6.31-3.63-6.31C26.8 19 24 23.56 24 26.4c0 .38.15.6.4.6 1.09 0 2.18-3 3.97-3Z" fill="#F0F3FA"/><path d="M28.5 11c-2.47 0-4.13 1.78-5.5 3.31 0 0 1.66-1.31 3.56-1.31 1.9 0 3.44 1 3.44 1h.87c.28 0 .6.03.88.1 2.83.77 5.72 5.96 5.72 5.96C34.69 14.7 31.75 11 28.5 11Z" fill="#A7DD2D"/></svg>