<!-- by TradeStack --><svg viewBox="0 0 56 56" xmlns="http://www.w3.org/2000/svg"><path fill="#F0F3FA" d="M0 0h56v56H0z"/><path d="m43.4 25-1.4.23v5.16C42 31.44 43.4 32 43.4 32l.86-1.04s-.84-.36-.84-.76V25Z" fill="#003578"/><path d="M15.66 32H11.8S10 30.47 10 27.8c0-5.3 6-5.8 6-5.8v3.03s-2 .78-2 3.16A5.38 5.38 0 0 0 15.66 32Z" fill="#A59F00"/><path d="M10.9 32H5.7S4 29.78 4 26.46C4 19 12 18 12 18v4.4s-3 1.63-3 5c0 3.38 1.9 4.6 1.9 4.6Z" fill="#01367A"/><path d="m37.4 27-1.4.28V32h1.4v-3.46c.14-.2.35-.54.86-.54.74 0 .74.84.74.84V32h1.4v-2.98c0-1.54-.75-2.02-1.77-2.02-.55 0-.93.17-1.23.34V27ZM41.4 27h3v1h-3v-1ZM45.6 25H47v1.4h-1.4zM45.6 27H47v5h-1.4zM51.6 27.3v1.1s-.5-.4-1.14-.4c-.47 0-1.01.05-1.06.48-.05.44.44.48 1.06.56.86.12 1.54.56 1.54 1.35C52 31.5 51 32 49.81 32s-1.8-.43-1.8-.43V30.4s.8.61 1.61.61c.4 0 .98-.11.98-.53 0-.48-.67-.6-1.07-.64-.92-.1-1.53-.5-1.53-1.35 0-.96.92-1.48 2.14-1.48.91 0 1.46.3 1.46.3Z" fill="#003578"/><path fill-rule="evenodd" d="M35.4 29.47v.33h-3.5c0 .72.66 1.2 1.47 1.2.5 0 1.08-.12 1.63-.6v1.13a3.6 3.6 0 0 1-1.9.47c-1.67 0-2.6-1.12-2.6-2.5 0-1.5 1.16-2.5 2.51-2.5 1.35 0 2.39 1 2.39 2.47ZM31.9 29c.1-.5.33-1 1.11-1s.9.53 1.02 1H31.9Z" fill="#003578"/><path d="M30 31.64c-.36.25-.81.36-1.28.36-1.67 0-2.72-.97-2.72-2.5s1.16-2.5 2.72-2.5c.47 0 1 .14 1.28.4v1.2c-.33-.37-.65-.6-1.1-.6-.79 0-1.5.6-1.5 1.5 0 .8.56 1.5 1.5 1.5.58 0 .84-.25 1.1-.55v1.2ZM25.4 31.64c-.36.25-.81.36-1.28.36-1.67 0-2.72-.97-2.72-2.5s1.16-2.5 2.72-2.5c.47 0 1 .14 1.28.4v1.2c-.33-.37-.65-.6-1.1-.6-.79 0-1.5.6-1.5 1.5 0 .8.56 1.5 1.5 1.5.58 0 .84-.25 1.1-.55v1.2Z" fill="#003578"/><path fill-rule="evenodd" d="M20.4 27v3.59l.6.67-.97.74c-.3-.15-.5-.25-.7-.52 0 0-.35.52-1.25.52-1.32 0-2.08-.92-2.08-2.62C16 28 16.86 27 18.27 27c.76 0 1.28.41 1.28.41l.85-.41ZM19 28.34v2.25s-.14.41-.59.41c-.68 0-1.01-.6-1.01-1.62 0-.88.41-1.38 1.01-1.38.36 0 .48.17.59.34Z" fill="#003578"/></svg>