<!-- by TradeStack --><svg viewBox="0 0 56 56" xmlns="http://www.w3.org/2000/svg"><path fill="#F0F3FA" d="M0 0h56v56H0z"/><path d="M39.69 32c-.88 0-1.69-.56-1.69-1.62V30h2v.33c0 .5.65.67.81.67h3.65c.18 0 .54-.17.54-.67v-.89c0-.36-.65-.44-.81-.44h-4.5c-.88 0-1.69-.33-1.69-1.4v-.98c0-1.05.8-1.62 1.69-1.62h5.62c.88 0 1.69.56 1.69 1.62V27h-2v-.25c0-.58-.48-.75-.81-.75H40.8c-.33 0-.81.17-.81.85v.48c0 .59.48.67.81.67h3.94c.87 0 2.25.34 2.25 1.4v.98c0 1.07-.8 1.62-1.69 1.62H39.7ZM48 25h2v7h-2v-7ZM48 23h2v1h-2zM6 23h2v9H6v-9ZM10 25h2v.85c.4-.43 1.03-.85 2-.85 1.5 0 2 .67 2.5 1 .33-.33 1.5-1 2.5-1 1.5 0 3 1 3 2v5h-2v-5c0-.33-.3-1-1.5-1s-1.5.67-1.5 1v5h-2v-5c0-.33-.3-1-1.5-1-.67 0-1.17.2-1.5.45V32h-2v-7ZM24 25h2v1.02A2.98 2.98 0 0 1 28.33 25c1.63 0 2.17.67 2.71 1 .36-.33 1.63-1 2.71-1 1.63 0 3.25 1 3.25 2v5h-2v-5c0-.33-.5-1-1.8-1s-1.7.67-1.7 1v5h-2v-5c0-.33-.4-1-1.7-1-.86 0-1.44.28-1.8.57V32h-2v-7Z" fill="#002F6C"/></svg>