<!-- by TradeStack --><svg viewBox="0 0 56 56" xmlns="http://www.w3.org/2000/svg"><path fill="#F7001D" d="M0 0h56v56H0z"/><path fill="#fff" d="M4 22h1.5v11H4zM11.5 22H13v11h-1.5zM15 25h1.5v8H15v-8Z"/><path fill="#fff" d="M4.8 28v-1.5h7.12V28z"/><circle cx="15.75" cy="22.89" r=".89" fill="#fff"/><path fill-rule="evenodd" d="M20.75 25h3.48v1.27h-1.47c2.07 2.1-.27 4.57-2.01 4.37-1.15-.14-1.15 1.18.77 1.5 1.92.3 2.61 1.01 2.71 2.4.1 1.4-1.4 2.5-3.33 2.46-1.94-.04-3.56-.67-3.62-2.45-.05-1.44 1.26-2.02 1.92-2.13a.96.96 0 0 1-.78-1c.02-.68.8-1.05 1.18-1.16-1.33-.43-1.65-1.84-1.64-2.5.01-2.06 1.86-2.7 2.79-2.76Zm1.43 2.78c0 .85-.64 1.53-1.42 1.53-.79 0-1.43-.68-1.43-1.53 0-.84.64-1.52 1.43-1.52.78 0 1.42.68 1.42 1.52Zm-1.46 7.95c1.14 0 2.06-.56 2.06-1.24 0-.7-.92-1.25-2.06-1.25-1.14 0-2.07.56-2.07 1.25 0 .68.93 1.24 2.07 1.24Z" fill="#fff"/><path fill="#fff" d="M25.5 22H27v11h-1.5z"/><path d="M29.38 25a2.62 2.62 0 0 0-2.62 2.62V33h.42v-5.09a1.66 1.66 0 0 1 3.32 0V33H32v-5.38A2.62 2.62 0 0 0 29.38 25ZM42.52 32.14c-.96.55-2.1.86-3.33.86-3.42 0-6.16-1.79-6.19-5.5-.03-3.71 2.77-5.5 6.2-5.5 1.22 0 2.36.31 3.32.86v1.7a5.04 5.04 0 0 0-3.25-1.14c-2.58 0-4.7 1.32-4.68 4.08.03 2.76 2.1 4.08 4.68 4.08 1.26 0 2.4-.43 3.25-1.14v1.7Z" fill="#fff"/><path fill-rule="evenodd" d="M48 33a4 4 0 1 0 0-8 4 4 0 0 0 0 8Zm0-1.52a2.48 2.48 0 1 0 0-4.96 2.48 2.48 0 0 0 0 4.96Z" fill="#fff"/></svg>