<!-- by TradeStack --><svg viewBox="0 0 56 56" xmlns="http://www.w3.org/2000/svg"><path fill="#F0F3FA" d="M0 0h56v56H0z"/><path d="M28.5 44h-1V29.45c0-2.28-.98-4.34-3.25-6.18l-8.35-5.73s-.42.97-.3 1.6c.12.66.46 1.01.98 1.42.24.17 6.75 4.3 6.75 4.3 1.36.69 2.67 2.96 2.67 4.96v14.05l-1-.1V30.4c0-1.03-.45-2.61-2.31-3.77l-9.1-5.56s-.32.86-.23 1.42c.12.86.52 1.1 1.35 1.77l7.4 4c1.46.85 1.39 1.85 1.39 3.22v11.88l-.9-.24V31.79c0-.88-.35-1.7-1.44-2.07l-8.9-4.55s-.18.99.01 1.56c.24.72.47.92 1.29 1.46.3.14 6.68 2.85 6.68 2.85.48.2.76.58.76 1.3v10.12c-5.37-2.58-9-8.1-9-14.46a16 16 0 1 1 23 14.4V32.34c0-.71.3-1.08.77-1.29 0 0 6.38-2.71 6.68-2.85.82-.54 1.06-.73 1.29-1.46.18-.57-.02-1.53-.02-1.53l-8.87 4.52c-1.08.37-1.35 1.19-1.35 2.07v11.27l-1 .3V31.48c0-1.37-.06-2.37 1.4-3.22l7.4-4c.83-.67 1.23-.9 1.35-1.77.08-.55-.26-1.4-.26-1.4l-9.07 5.54C31.46 27.8 31 29.37 31 30.4v13.3l-1 .17V29.82c0-2 1.32-4.27 2.68-4.95 0 0 6.51-4.14 6.75-4.31.52-.4.87-.76.98-1.43.12-.61-.33-1.56-.33-1.56l-8.32 5.7c-2.27 1.84-3.26 3.9-3.26 6.18V44Z" fill="#05518F"/></svg>