<!-- by TradeStack --><svg viewBox="0 0 56 56" xmlns="http://www.w3.org/2000/svg"><path fill="#F0F3FA" d="M0 0h56v56H0z"/><path d="M11.47 33H14l-3.74-10H7.74L4 33h2.53l.76-2h3.42l.76 2Zm-3.44-4.12L9 25.97 9.97 29H8.03v-.12ZM33.47 33H36l-3.74-10h-2.52L26 33h2.53l.76-2h3.42l.76 2Zm-3.44-4.12.97-2.91.97 3.03h-1.94v-.12ZM22.5 27 20 31l-2.5-4v6H15V23h2.5l2.5 4 2.5-4H25v10h-2.5v-6ZM46 28a5 5 0 1 1-.28-1.66H43.1c-.5-.62-1.25-.84-2.11-.84a2.38 2.38 0 0 0-2.5 2.5c0 1.49 1.02 2.5 2.5 2.5 1 0 2-.5 2.33-1.5H41v-2h4.96c.02.2.04.8.04 1Z" fill="#4E5F6F"/><path d="M52 31v2h-6v-2h6Z" fill="#0098DB"/></svg>