<!-- by TradeStack --><svg viewBox="0 0 56 56" xmlns="http://www.w3.org/2000/svg"><path fill="#F0F3FA" d="M0 0h56v56H0z"/><path d="M25 32c2.83 0 7.5 0 9.8-1.19 0 0 3.69-2.05 4.17-7.4.48-5.33-4.77-5.41-4.77-5.41H27.6L25 32Zm3.11-1 2.14-12h2.4s3.37.04 3.08 4.42c-.3 5.14-2.9 8.21-7.62 7.58Z" fill="#054976"/><path d="m16 27.28.23-.51s16.5 2.63 25.34-9.91l-2.29.74s.24-.7-.28-1.6l5.5-2 1.5 5.58s-.9-.17-1.75.45l-.47-2.28c-.1.92-9.42 13.33-27.78 9.53Z" fill="#E9342B"/><path d="M19 32c1.17-.13 1.86-.18 3.17 0L25 18a8.4 8.4 0 0 1-3.17 0L19 32ZM11 34l-.86 4.47c.59 0 1.27-.06 1.86-.1-.1.2-.13.41-.13.63H9l1-5c.43.13.56.13 1 0ZM17.94 36.49c-.13.7-.47 1.3-1 1.76-.56.5-1.24.75-1.98.75-.72 0-1.26-.23-1.6-.66-.34-.44-.44-1.05-.3-1.83.13-.7.47-1.3 1-1.78a2.94 2.94 0 0 1 2-.73c.83 0 1.4.27 1.7.84.24.46.3 1 .18 1.65Zm-2.02-1.98c-1.18 0-1.65 1.11-1.85 2.2-.11.5-.09.94.06 1.29.17.38.47.59.91.59.47 0 .88-.23 1.22-.69.3-.4.5-.93.63-1.55.18-.86 0-1.84-.97-1.84ZM23.62 37l-.4 1.68c-.39.1-.72.18-1.04.23-.29.04-.58.09-.87.09-.79 0-1.4-.18-1.8-.57-.47-.43-.6-1.03-.45-1.8.18-.83.59-1.49 1.21-1.97.61-.43 1.33-.66 2.16-.66a2.89 2.89 0 0 1 1.57.41c-.16.23-.27.46-.34.7h-.09a1.19 1.19 0 0 0-.47-.52c-.2-.11-.45-.18-.72-.18-.53 0-1 .23-1.41.66-.36.41-.6.94-.74 1.56-.11.59-.07 1.07.13 1.41.23.34.59.53 1.1.53.18 0 .32-.03.43-.05.11-.02.25-.1.36-.14l.34-1.38c.06 0 .18 0 .29.02.11.03.2.03.2.03h.2l.34-.05ZM24.69 39l1-5c.17 0 .32.05.49.05.17 0 .34-.03.5-.03L25.7 39c-.17 0-.33-.04-.5-.04-.17 0-.34.04-.51.04ZM30.62 35h-.13a.63.63 0 0 0-.22-.41c-.13-.11-.28-.16-.51-.16-.46 0-.9.2-1.01.68-.05.25.1.47.43.68l.98.56c.33.3.46.66.36 1.11-.1.45-.38.82-.81 1.11-.43.3-.96.43-1.55.43-.22 0-.43-.02-.63-.07-.2-.04-.38-.13-.53-.22.14-.3.33-.58.43-.89h.15c0 .25.08.43.23.57.15.13.38.2.63.2.26 0 .48-.07.69-.18a.8.8 0 0 0 .38-.54c.07-.3-.08-.54-.43-.75l-.97-.52c-.33-.27-.45-.65-.33-1.13.1-.43.33-.77.69-1.04.38-.3.86-.43 1.42-.43.25 0 .48.05.68.11.2.07.35.14.43.23-.12.22-.23.46-.38.66ZM33.88 34.51 33 39c-.14 0-.27-.05-.41-.05-.14 0-.27.05-.41.05l.82-4.46c-.36 0-.64.05-1 .1.06-.22.11-.42.11-.64H35c-.05.2-.11.4-.11.6-.34-.05-.67-.09-1-.09ZM35.5 39l1-5c.17 0 .32.05.5.05.16 0 .33-.05.5-.05l-1 5-.5-.02-.5.02ZM42.03 38.06l.1.05-.29.6c-.24.08-.48.18-.75.22-.27.05-.53.07-.77.07-.8 0-1.43-.2-1.84-.64-.44-.43-.58-1-.41-1.71.2-.87.63-1.53 1.3-2.01a3.75 3.75 0 0 1 3.63-.3c-.12.24-.25.4-.34.66h-.1c-.18-.36-.7-.57-1.08-.57a1.9 1.9 0 0 0-1.48.69c-.34.39-.58.87-.72 1.44-.15.61-.1 1.1.14 1.46.22.36.6.55 1.19.55.5 0 1.04-.19 1.42-.5ZM46.6 35h-.13c-.03-.18-.14-.3-.27-.41a.73.73 0 0 0-.5-.16c-.28 0-.5.07-.68.18a.8.8 0 0 0-.32.5c-.05.25.1.47.45.68l1 .56c.33.3.45.66.35 1.11-.1.45-.38.82-.8 1.11-.45.3-.95.43-1.55.43-.23 0-.42-.02-.63-.07-.2-.04-.37-.11-.52-.22.14-.3.33-.58.42-.89h.16c0 .25.07.43.25.57.15.13.37.2.65.2.25 0 .47-.07.67-.18a.8.8 0 0 0 .38-.54c.07-.3-.08-.54-.43-.75-.33-.18-.65-.36-.98-.52-.32-.27-.45-.65-.34-1.13.1-.43.32-.77.67-1.04.38-.3.85-.43 1.42-.43.26 0 .48.05.7.11.2.07.35.14.43.23-.14.24-.27.42-.4.66Z" fill="#054976"/></svg>