<!-- by TradeStack --><svg viewBox="0 0 56 56" xmlns="http://www.w3.org/2000/svg"><path fill="#2D4191" d="M0 0h56v56H0z"/><path d="M14.57 27c.66 0 .93-.03.93-.44 0-.5-.04-5.56-4.91-5.56C6.53 21 4 24.28 4 28.16 4.05 32.2 6.5 35 10.59 35c2.82 0 5.7-2.16 6.23-3.31.27-.53.18-.69.06-.75l-.16-.38c-.12-.1-.24-.06-.3.1-.6 1-3.07 1.34-4.54 1.34C9.68 32 8 30.87 8 27.62V27h6.57ZM8 26c.21-2.19.9-4 2.32-4 .93 0 1.68 2 1.68 3.38 0 .46-.3.62-.96.62H8Z" fill="#F0F3FA"/><path d="M23 26.25c-.83.56-1.59.9-4.07 2.06-2.07 1-2.93 2.44-2.93 3.82C16 33.8 17.18 35 18.3 35c1.92 0 3.58-.7 5.03-2h.16c.6 1.47 1.78 2 3.02 2H30c.41-.16-.12-.73 0-1h-2.02c-.6 0-.95-1.6-.98-3.22v-6.22c0-2.63-1.54-3.56-4-3.56-2.52 0-7 1.7-7 4.87 0 .7.64 1.13 1.37 1.13 1.27 0 2.07-.72 2.07-1.78 0-1-.38-2.4.1-2.72.57-.37 1.11-.5 1.68-.5 1.36 0 1.78 1.31 1.78 2.6v1.65Zm0 5.69c0 .28-.57 1-1.43 1.06-.7-.03-1.57-.56-1.57-2 0-2.16 1.44-2.63 3-3.5v4.44Z" fill="#F0F3FA"/><path d="M28.18 23.05a.34.34 0 0 0-.18.29v.38c0 .1.06.16.21.26l.65.38c.76.48 1.14 1 1.14 2.4V33.2c-.03.45-.3.8-.61.8h-1.02c-.34 0-.37.03-.37.29v.42c0 .23.06.29.24.29h6.52c.2 0 .24-.13.24-.35v-.36c0-.23-.03-.29-.3-.29h-.28c-.34 0-.42-.54-.42-2.17v-5.16c-.03-1.26.23-3.67 2-3.67 2.16 0 2 2.01 2 3.77v4.74c0 1.86-.3 2.49-.73 2.49h-.43c-.28 0-.3.06-.3.32v.36c0 .22.05.32.2.32h6.47c.16 0 .22-.1.22-.35v-.36c0-.23-.06-.29-.34-.29h-.55c-.34 0-.54-.54-.54-1.47v-6.32c0-1.37.66-3.21 2.32-3.21 1.76 0 1.68 2.56 1.68 4.02v3.08c0 .4.18 3.9-.54 3.9h-.28c-.09 0-.18.06-.18.29v.33c0 .28.06.38.24.38h6.55c.15 0 .21-.1.21-.32v-.4c0-.22-.06-.28-.34-.28h-.6c-.5 0-1.06-.43-1.06-1.47v-5.82c0-2.85-.73-5.71-4-5.71-1.56 0-3.06.96-4.1 2.24h-.16C40.94 21.93 40 21 38.04 21c-1.93 0-3.49 1-4.35 2.24h-.15l-.24-1.82c-.07-.32-.25-.42-.43-.42-.22 0-.43.1-.7.22l-3.99 1.83Z" fill="#F0F3FA"/></svg>