<!-- by TradeStack --><svg viewBox="0 0 56 56" xmlns="http://www.w3.org/2000/svg"><path fill="#F0F3FA" d="M0 0h56v56H0z"/><path d="M13 13v19c2.6-1.78 7.23-2.6 9.22-2.78-.56-.3-1.69-1.16-1.69-2.22 0-1.33 1.9-3.37 10.95-3.37 7.24 0 10.7 1.7 11.52 2.54V13H13Z" fill="#EE2728"/><path d="M13 43v-5.76c1.04 1.05 4.76 3.15 11.3 3.15 12.31 0 13.1-2.68 13.1-4.5 0-1.45-1.7-2.13-2.56-2.28 4.19-.57 7.18-2.11 8.16-2.8V43H13Z" fill="#045D9C"/><path d="M29.69 35.22c-.83 1.27-3.7 1.48-5.02 1.43-1.75 0-5.02-.5-4.92-1.95.1-1.44 3.85-2.24 5.8-2.53 1.73.48 4.96 1.77 4.14 3.05Z" fill="#0060A4"/><path d="M36.34 27.62c-.67-1.03-3.2-1.25-4.28-1.2-1.4 0-3.99.18-3.91 1.34.08 1.17 2.04 2 3.62 2.23 1.52-.33 5.23-1.34 4.57-2.37Z" fill="#0058A3"/><path fill-rule="evenodd" d="M14 15h1.62l1.43 3.92 1.6-3.92H20l-2.58 6h-1.16L14 15Zm17 3.79V15h1.5v3.75c0 .68.5 1.25 1.25 1.25.76 0 1.25-.57 1.25-1.25V15h1.5v3.79C36.5 20 35.4 21 34.02 21h-.54C32.1 21 31 20.01 31 18.79ZM37.5 15h4.28l-.52 1H39v1.5h2.1l-.45 1H39V20h3l-.74 1H37.5v-6Zm-13.59 6h1.63l-2.27-6H21.68l.25.43-2.4 5.57h1.35l.4-1h2.27l.36 1Zm-.73-2-.7-1.92L21.7 19h1.48Zm3.32-4v6h3.27l.57-1H28v-5h-1.5Z" fill="#fff"/><path d="M20.53 29.44v-2.4a3.16 3.16 0 0 0 1.72 2.18c-.5.05-1.08.13-1.72.22ZM25.54 39.33c-10.42 0-13.37-3.01-13.54-4.52 0 .71-.22 5.63 13.54 5.63 11 0 12.5-3.28 11.88-4.92.38 1.27-1.47 3.81-11.88 3.81Z" fill="#2E2422"/><path d="M35.28 33.71c-.84-.21-1.32-.4-1.73-.5 2.64-.27 8.6-1.48 10.45-4.19v.96c-.5.81-3.3 2.75-8.72 3.73Z" fill="#2C231C"/><path d="M19.9 35.26c.74-.67 2.36-1.51 5.52-1.96 1.4.33 3.87 1.2 3.9 2.32.14-.12.27-.25.37-.4.82-1.28-2.41-2.57-4.13-3.05-1.96.29-5.72 1.09-5.81 2.53-.02.2.04.4.15.56ZM28.26 28.17c.75-.37 2.05-.7 4.14-.7 1.73 0 2.93.4 3.72.9.28-.24.38-.5.22-.75-.67-1.03-3.2-1.25-4.28-1.2-1.4 0-3.99.18-3.91 1.34 0 .14.05.28.1.41Z"/></svg>