<!-- by TradeStack --><svg viewBox="0 0 56 56" xmlns="http://www.w3.org/2000/svg"><path fill="#F0F3FA" d="M0 0h56v56H0z"/><path d="M20.97 14H12v.1c3.24.55 6 3.56 6 6.9 0 3.34-2.76 6.35-6 6.9v.1h8.97A7.01 7.01 0 0 0 28 21c0-3.87-3.15-7-7.03-7Z" fill="#1E6400"/><path d="M34.98 14H26v.1c3.33.56 6 3.52 6 6.9a7.21 7.21 0 0 1-6 6.9v.1h8.98a7.01 7.01 0 1 0 0-14Z" fill="#191996"/><path d="M23.04 28H13c3.8 0 7 3.21 7 7a7.1 7.1 0 0 1-5.85 6.9v.1h8.9A6.98 6.98 0 0 0 30 35c0-3.87-3.12-7-6.96-7Z" fill="#9BB4FA"/><path d="M37.03 28H27c1.74 0 3.42.66 4.7 1.85A7.12 7.12 0 0 1 34 35c0 1.55-.56 3.06-1.5 4.29A7.31 7.31 0 0 1 28 41.9v.1h9.04A6.98 6.98 0 0 0 44 35c0-3.87-3.12-7-6.96-7h-.01Z" fill="#96B96E"/></svg>