<!-- by TradeStack --><svg viewBox="0 0 56 56" fill="none" xmlns="http://www.w3.org/2000/svg">
<rect width="56" height="56" fill="#F0F3FA"/>
<path fill-rule="evenodd" clip-rule="evenodd" d="M28 45C37.3888 45 45 37.3888 45 28C45 22.4079 42.2999 17.4465 38.1324 14.3482C37.6777 16.3271 36.0869 19.4211 34.7611 20.5718C34.323 20.9443 32.7813 22 30.4319 22C30.4483 21.9449 30.4638 21.8922 30.479 21.8405C30.5413 21.6285 30.5984 21.4343 30.6922 21.1654C31.4751 18.9218 33.4596 18.1209 34.8068 17.5773C36.3755 16.771 37.5461 15.0272 37.9904 14.3653C38.0101 14.336 38.0284 14.3088 38.0452 14.2839C35.231 12.2193 31.7579 11 28 11C18.6112 11 11 18.6112 11 28C11 32.182 12.51 36.0112 15.0146 38.9723C17.4321 37 20.7783 37 23.1528 37C25.7661 37 28.0695 35.853 29.9375 34C28.6562 37.6875 25.3069 41 20.4003 41C20.282 41 20.1515 41.0019 20.0117 41.004C19.0885 41.004 17.7912 40.9102 16.7527 40.7477C19.7498 43.3941 23.6874 45 28 45ZM25.688 26C28.0544 26 29.2813 22.6023 29.8664 20.5718C30.9112 16.946 32.5312 15.1875 35.9688 13C30.9663 14.6875 24.4375 20 24.4375 24.0938C24.4375 25.0313 24.8098 26 25.688 26ZM30.9663 26C35.1958 26 38.9295 21.828 38.9375 17.381L38.9333 17.377C38.2812 19.5937 36.9375 21.8405 34.7611 22.4062C34.0347 22.6146 32.5766 22.6059 31.776 22.6012H31.7758H31.7756C31.6716 22.6005 31.5787 22.6 31.5 22.6C29.8341 22.6 28.8971 23.4208 28.9375 24.5C28.8971 25.389 29.9858 26 30.9663 26ZM27.461 27C28.2752 27 29.1279 27.1005 29.8664 27.1875C30.4304 27.2539 30.9278 27.3125 31.2906 27.3125C33.5 27.3125 35.1875 26.375 36.9375 24.75C34.8637 27.8356 30.6003 31 26.6876 31C25.5625 31 23.9375 30.4688 23.9375 29.2462C23.9375 27 26.2142 27 27.461 27ZM23.2915 25.639V25.639C23.3055 28.3415 23.3243 32 20.9349 32C19.5312 32 18.9375 30.4622 18.9375 29.375C18.9375 24.7832 23.1722 20.111 26.9375 18C25.0227 19.5432 23.8708 20.6905 23.3921 23.3021C23.2821 23.8113 23.2865 24.6628 23.2915 25.639V25.639V25.639ZM19.9375 23.4208C18.6211 25.4062 17.8872 26.6259 17.5282 28.2878C17.2232 29.5986 17.9545 30.9095 18.4016 31.7111C18.4808 31.8531 18.5512 31.9792 18.6052 32.0864C18.7399 32.3871 18.9277 32.6317 19.1197 32.882C19.5192 33.4025 19.9375 33.9475 19.9375 35.0733C19.9375 36.1563 18.9047 37 17.8125 37C16.2797 37 14.9375 35.0733 14.9375 33.2188C14.9375 27.6628 17.9534 25.0827 19.9375 23.4208ZM27.461 31.7303L27.5019 31.7303H27.5019C27.9899 31.7305 28.8644 31.7308 29.5625 31.5C31.2379 31.0252 32.9375 30 32.9375 30C30.5254 32.3926 26.375 36 22.9375 36C21.8125 36 20.9349 35.2813 20.9349 34.4392C20.9349 31.0931 24.6594 31.4583 26.8819 31.6762C27.0895 31.6966 27.2839 31.7156 27.461 31.7303Z" fill="#ECB53E"/>
</svg>
