<!-- by TradeStack --><svg viewBox="0 0 56 56" xmlns="http://www.w3.org/2000/svg"><path fill="#F0F3FA" d="M0 0h56v56H0z"/><path d="M9 23.33v7.54s0 .36 1.46.36h31.58c1.46 0 1.46 1.44 1.46 1.44v-6.12s0-.76-1.46-.76l-31.58-1.7c-1.1 0-1.46-.76-1.46-.76Z" fill="url(#alqe2vb2f)"/><path d="M42.24 27.96c-.84.2-22.05 4.96-30.75 7.04v7c8.7-2.08 29.91-7.23 30.75-7.43 1.26-.3 1.26-1.13 1.26-1.13v-6.6s0 .82-1.26 1.12Z" fill="url(#blqe2vb2f)"/><path d="M9 23.32v7.6s0-.82 1.3-1.12L46 22.17 45.99 14s-35 8.05-35.71 8.2C9 22.5 9 23.33 9 23.33Z" fill="url(#clqe2vb2f)"/><path d="M34.34 20.06c-.01.43-.35.7-.8.8l-.73.14v-1.33l.7-.13c.43-.1.84.03.83.52Zm-.83-1.33-1.5.35v4.65l.8-.22v-1.74l.56-.1 1 1.51.95-.22-1.1-1.67c.51-.24.98-.78.98-1.46 0-.96-.86-1.3-1.7-1.1ZM39.09 22.17l.84-.22-1.52-4.27-1.07.3-1.15 4.93.79-.23.24-1.1 1.55-.4.32.99Zm-.54-1.66-1.08.29.48-2.12.6 1.83ZM30.82 19.38v.78l-1.5.37v1.2l1.19-.3v.75l-1.2.3v1.82l-.8.2v-4.54l2.3-.58ZM26.43 23.39l-.85.23.02-.74 1.6-.42c.07 1.34-.4 2.76-1.96 2.78-1.06 0-1.51-1.07-1.5-2.11.01-1.25.8-2.58 2.15-2.55.6.01 1.08.36 1.22 1.2l-.8.19c-.08-.38-.29-.68-.6-.68-.88-.01-1.18 1.1-1.16 1.84.01.59.19 1.33.83 1.31.67-.01 1-.43 1.05-1.05ZM22.66 21.29v4.59l-.94.21L20 23.21v3.27l-.8.19v-4.5l1.08-.25 1.57 2.59v-3.03l.8-.19ZM18 22.45v2.62c0 1.16-.39 1.88-1.42 2.12-1.12.27-1.58-.22-1.58-1.56v-2.4l.78-.2v2.4c0 .81.25 1.1.8.96.5-.12.64-.48.64-1.2v-2.53l.78-.21ZM43.82 16.39v2.74c0 1.21-.4 1.95-1.48 2.21-1.16.28-1.64-.24-1.64-1.64v-2.49l.8-.22v2.52c0 .84.27 1.14.84 1 .52-.13.66-.5.66-1.27v-2.63l.82-.22ZM13.8 23.53v2.92c0 .9-.57 1.72-1.45 1.75-.16 0-.33-.02-.5-.08l-.01-.8c.56.14 1.16-.2 1.16-.87v-2.7l.8-.22Z"/><path d="m13.41 37.67-.68.16v-.53l1.95-.47v.53l-.68.16V40l-.58.14v-2.46ZM16.4 39.36c-.68.17-1.27-.2-1.38-.99-.13-.97.36-1.84 1.18-2.04.71-.17 1.28.22 1.39 1 .14 1-.36 1.84-1.19 2.03Zm-.14-2.5c-.51.11-.73.74-.64 1.35.06.47.34.72.74.63.5-.12.72-.72.63-1.35-.06-.43-.3-.73-.73-.64ZM18.24 35.91l.83-.2c.56-.13.92.08 1 .6.1.7-.3 1.14-.9 1.28l-.36.09v1.09l-.57.13v-2.99Zm.87 1.22c.31-.07.46-.3.41-.64-.03-.24-.18-.33-.44-.27l-.27.06v.92l.3-.07ZM22.71 37.83c-.68.16-1.27-.2-1.38-1-.13-.97.37-1.84 1.18-2.03.72-.18 1.28.21 1.4 1 .13.98-.37 1.83-1.2 2.03Zm-.14-2.51c-.5.12-.73.74-.64 1.35.06.48.35.73.74.63.5-.12.72-.72.63-1.34-.06-.44-.3-.74-.73-.64ZM24.44 34.37l1.63-.39v.54l-1.07.25v.79l.85-.2v.51l-.85.2v1.16l-.56.14v-3ZM27.42 33.6l1.65-.4v.54l-1.07.25v.7l.86-.2v.49l-.86.2v.75l1.13-.27v.52l-1.7.41V33.6ZM29.88 34.81v-1.74l.58-.13v1.75c0 .52.16.7.52.62.32-.08.44-.31.44-.78V32.7l.58-.14v1.89c0 .75-.3 1.21-.96 1.37-.72.18-1.16-.15-1.16-1.02ZM32.68 32.42l.88-.21c.56-.14.92.07.98.58.07.5-.16.85-.51 1.03l.7 1.1-.6.14-.63-1-.25.06v1.15l-.57.14v-3Zm.9 1.16c.3-.07.45-.27.4-.6-.02-.24-.17-.31-.42-.25l-.31.07v.86l.33-.08ZM36.39 34.56c-.69.16-1.27-.2-1.38-1-.13-.97.36-1.83 1.18-2.03.71-.17 1.28.21 1.39 1 .13.99-.37 1.83-1.2 2.03Zm-.14-2.51c-.51.12-.73.74-.65 1.36.07.47.35.72.75.62.5-.12.72-.72.63-1.34-.06-.44-.31-.74-.73-.64ZM38.32 31.1l.83-.2c.56-.13.92.09 1 .6.1.71-.3 1.14-.9 1.28l-.36.1v1.08l-.58.14v-3Zm.86 1.23c.32-.08.47-.3.42-.64-.03-.25-.18-.34-.44-.27l-.27.06v.92l.3-.07ZM40.72 30.55l1.64-.4v.53l-1.07.26v.7l.87-.21v.5l-.86.2v.74l1.13-.27v.53l-1.7.4v-2.98Z" fill="#fff"/><defs><linearGradient id="alqe2vb2f" x1="43.68" y1="28" x2="9" y2="28" gradientUnits="userSpaceOnUse"><stop stop-color="#FFD400"/><stop offset=".13" stop-color="#FFD000"/><stop offset=".3" stop-color="#FDC400"/><stop offset=".51" stop-color="#F9AE00"/><stop offset=".73" stop-color="#F28D00"/><stop offset=".97" stop-color="#EB6000"/><stop offset="1" stop-color="#EA5901"/></linearGradient><linearGradient id="blqe2vb2f" x1="11.31" y1="34.42" x2="43.68" y2="34.42" gradientUnits="userSpaceOnUse"><stop stop-color="#EF7C00"/><stop offset=".36" stop-color="#F07E00"/><stop offset=".57" stop-color="#F18500"/><stop offset=".74" stop-color="#F39100"/><stop offset=".89" stop-color="#F6A100"/><stop offset="1" stop-color="#F9B000"/></linearGradient><linearGradient id="clqe2vb2f" x1="9" y1="22.75" x2="45.99" y2="22.75" gradientUnits="userSpaceOnUse"><stop stop-color="#FFED00"/><stop offset="1" stop-color="#FC0"/></linearGradient></defs></svg>