<!-- by TradeStack --><svg viewBox="0 0 56 56" xmlns="http://www.w3.org/2000/svg"><path fill="#F0F3FA" d="M0 0h56v56H0z"/><path d="m20 37.54.28-.54c.35.24.83.4 1.31.4.52 0 .71-.53.71-1.36v-.54c-.28.32-.58.5-.99.5-.74 0-1.31-.35-1.31-2 0-1.51.43-2 1.31-2 .43 0 .77.28.99.54l.18-.54H23v4.12c0 1.19-.56 1.88-1.37 1.88-.65.02-1.2-.16-1.63-.46Zm2.3-2.6v-1.85c-.22-.24-.47-.45-.78-.45-.54 0-.78.03-.78 1.32s.2 1.42.72 1.42c.37 0 .56-.16.84-.45ZM46.31 35.12l-.31.5c.3.2.86.4 1.45.38 1.03 0 1.55-.35 1.55-1.14 0-.86-.6-1.08-1.28-1.25-.59-.12-.72-.22-.72-.58 0-.33.17-.48.64-.48.33 0 .56.06.92.22l.25-.51c-.33-.17-.7-.26-1.22-.26-.94 0-1.29.45-1.29 1 0 .75.43 1.07 1.04 1.22.7.16.96.26.96.68 0 .37-.22.57-.81.57-.44 0-.82-.13-1.18-.35ZM31 30h1.38c1.47 0 2.15.83 2.15 3.03 0 2.22-.66 2.97-2.12 2.97H31v-6Zm1.43 5.33c1.04 0 1.27-.69 1.27-2.34 0-1.68-.2-2.34-1.25-2.34h-.75v4.68h.73ZM13 34c0-1.45.6-2 1.53-2 .92 0 1.47.51 1.47 1.89v.26h-2.3c.02 1.04.26 1.3.92 1.3.42 0 .66-.17.93-.37l.37.48c-.37.31-.73.44-1.3.44-1.05 0-1.62-.57-1.62-2Zm.7-.35h1.6c0-.88-.25-1.15-.82-1.15-.45 0-.73.23-.78 1.15ZM26 34c0-1.45.6-2 1.53-2 .92 0 1.47.51 1.47 1.89v.26h-2.3c.02 1.04.26 1.3.92 1.3.42 0 .66-.17.93-.37l.37.48c-.37.31-.73.44-1.3.44-1.05 0-1.62-.57-1.62-2Zm.7-.35h1.6c0-.88-.25-1.15-.82-1.15-.45 0-.73.23-.78 1.15ZM38 34c0-1.45.6-2 1.53-2 .92 0 1.47.51 1.47 1.89v.26h-2.3c.02 1.04.26 1.3.92 1.3.42 0 .66-.17.93-.37l.37.48c-.37.31-.73.44-1.3.44-1.05 0-1.62-.57-1.62-2Zm.7-.35h1.6c0-.88-.25-1.15-.82-1.15-.45 0-.73.23-.78 1.15ZM50 32h-.45v.55H50v2.65c0 .6.41.8.93.8.25 0 .43-.05.62-.15l-.13-.49c-.13.06-.24.11-.43.11-.22 0-.29-.1-.29-.34v-2.6h.78V32h-.78v-1l-.7.15V32ZM24.7 32H24v4h.7v-4ZM24.35 30.3c-.2 0-.35.15-.35.36 0 .19.14.34.33.34.21 0 .37-.15.37-.34 0-.2-.14-.36-.35-.36ZM36.7 32H36v4h.7v-4ZM36.35 30.3c-.2 0-.35.15-.35.36 0 .19.14.34.33.34.21 0 .37-.15.37-.34 0-.2-.14-.36-.35-.36ZM17.57 32H17v4h.7v-2.9c.3-.27.63-.42 1.01-.42.09 0 .19.02.27.04H19v-.7c-.04-.02-.12-.02-.16-.02-.51 0-.84.27-1.15.63l-.12-.63ZM9.57 32H9v4h.7v-2.95c.3-.24.7-.47 1.06-.47.36 0 .54.11.54.57V36h.7v-3.04c0-.68-.4-.96-1.02-.96-.51 0-.94.24-1.3.58l-.1-.58ZM42.57 32H42v4h.7v-2.95c.3-.24.7-.47 1.06-.47.36 0 .54.11.54.57V36h.7v-3.04c0-.68-.4-.96-1.02-.96-.51 0-.94.24-1.3.58l-.1-.58ZM5 30h3v.67H5.7v1.63h1.79v.7H5.7v2.33H8V36H5v-6Z"/><path d="M30.62 22.9c1.47 0 2.55-.25 3.36-.57l.02-.32a6 6 0 0 0-12-.23c.8-.4 1.57-.78 2.32-.78 2.55.06 4.42 1.97 6.3 1.9Zm-5 2.35a5.7 5.7 0 0 0-3.1-.75h-.14c.88 2.26 3.05 3.5 5.6 3.5 1.9 0 3.41-.71 4.52-2.08-2.29 1.1-4.78.53-6.88-.67Z" fill="#F9B000"/><path d="M30.65 23.62c2.97 0 4.5-.97 5.24-1.6.02-.02.06-.02.08 0 .02.01.04.05.02.07A7.47 7.47 0 0 1 29.58 26h-.04c-2.9 0-4.16-2.15-6.74-2.15-.76 0-1.63.2-2.7.66-.04.02-.06 0-.08-.02-.03-.02-.03-.06 0-.1 1.73-1.78 3.2-2.34 4.53-2.34 2.23.04 4.04 1.59 6.1 1.57Z" fill="#006EAB"/></svg>