<!-- by TradeStack --><svg viewBox="0 0 56 56" xmlns="http://www.w3.org/2000/svg"><path fill="#F0F3FA" d="M0 0h56v56H0z"/><path d="M29 28h1.52v.96a1.8 1.8 0 0 1-1.2.54c-1.21 0-1.82-.98-1.82-1.95 0-1.07.66-2.05 1.8-2.05.48 0 .95.27 1.3.62l.32-.4A2.2 2.2 0 0 0 29.3 25c-1.44 0-2.3 1.1-2.3 2.54 0 1.3.73 2.46 2.3 2.46.64.01 1.27-.29 1.7-.81V27.5h-2v.5ZM35.5 26.59c0-.8-.37-1.59-1.4-1.59H32v5h.5v-2H34l1.27 2H36l-1.37-2c.73-.2.87-.74.87-1.41Zm-3 .91v-2h1.58c.58-.04.94.55.92 1.1 0 .56-.3.9-1 .9h-1.5ZM46.5 28c0 .96-.73 1.5-1.5 1.5s-1.5-.52-1.5-1.5v-3H43v3c0 1.38.95 2 2 2s2-.64 2-2v-3h-.5v3ZM39.5 25a2.4 2.4 0 0 0-2.5 2.5c0 1.28.81 2.5 2.5 2.5 1.7 0 2.5-1.23 2.5-2.5 0-1.26-.83-2.48-2.5-2.5Zm0 4.5c-1.29 0-2-1.02-2-2 0-1.04.75-2 2-2 1.3.02 2 1.03 2 2 0 .98-.7 2-2 2ZM50.27 25H48v5h.5v-2h1.79c1.14 0 1.7-.66 1.71-1.5 0-.85-.58-1.5-1.73-1.5Zm-1.77 2.5v-2h1.79c.74 0 1.21.44 1.21 1 0 .55-.5 1-1.23 1H48.5ZM19.9 25H19v5h1.57A2.5 2.5 0 0 0 23 27.4c-.04-1.67-1.54-2.43-3.1-2.4Zm.52 4H20v-3h.5c.5 0 1.5.5 1.5 1.4 0 1.1-.85 1.57-1.58 1.6ZM6.51 26c.3 0 .6.19.83.37l.66-.75A2.24 2.24 0 0 0 6.4 25c-1.35 0-2.36 1.17-2.4 2.46-.03 1.3 1.06 2.56 2.4 2.54.56 0 1.11-.2 1.55-.58l-.53-.88c-.25.22-.58.46-.9.46-.8 0-1.53-.78-1.52-1.54.01-.74.78-1.45 1.51-1.46ZM18 25h-1v5h1v-5ZM14 29v-4h-1v5h3v-1h-2ZM9.61 25 8 30h1l.22-.65h1.58c.07.21.12.44.2.65h1l-1.54-5H9.6Zm-.12 3.41.52-1.91c.11.57-.01 0 .48 1.91h-1ZM24.61 25 23 30h1l.22-.65h1.58c.07.21.12.44.2.65h1l-1.54-5h-.85Zm-.12 3.41.52-1.91c.11.57-.01 0 .48 1.91h-1Z"/></svg>