<!-- by TradeStack --><svg viewBox="0 0 56 56" xmlns="http://www.w3.org/2000/svg"><path fill="#F0F3FA" d="M0 0h56v56H0z"/><path d="M11.97 32.41 9.01 26.4l-3.04 6.03c-.32.63-1.09.69-1.44.46-.5-.33-.67-1-.4-1.54l3.85-7.7a1.14 1.14 0 0 1 2.05 0l3.83 7.7c.27.54.14 1.21-.36 1.54-.34.22-1.22.16-1.53-.47Z"/><rect x="25" y="23" width="7" height="2" rx="1" fill="#2CA95B"/><rect x="45" y="23" width="7" height="2" rx="1" fill="#00A3E0"/><rect x="25" y="31" width="7" height="2" rx="1" fill="#2CA95B"/><rect x="45" y="31" width="7" height="2" rx="1" fill="#00A3E0"/><rect x="25" y="27" width="5" height="2" rx="1" fill="#2CA95B"/><rect x="45" y="27" width="5" height="2" rx="1" fill="#00A3E0"/><path d="M16 23a1 1 0 1 0 0 2h2v7a1 1 0 1 0 2 0v-7h2a1 1 0 1 0 0-2h-6ZM35 33a1 1 0 0 1-1-1v-8a1 1 0 0 1 1.75-.66l.05.06.02.03 2.68 3.71 2.65-3.67a1 1 0 0 1 .08-.1l.02-.04A1 1 0 0 1 43 24v8a1 1 0 1 1-2 0v-4.64l-1.67 2.3c-.43.6-1.24.6-1.67.01L36 27.4V32a1 1 0 0 1-1 1Z"/></svg>