<!-- by TradeStack --><svg viewBox="0 0 56 56" xmlns="http://www.w3.org/2000/svg"><path fill="#F0F3FA" d="M0 0h56v56H0z"/><path fill-rule="evenodd" d="M33 22.87A2.85 2.85 0 0 1 35.84 20h1.32A2.85 2.85 0 0 1 40 22.87V23h-2v-.01c0-1.06-.54-1.49-1.22-1.49h-.56c-.68 0-1.22.43-1.22 1.49v3.02c0 1.06.54 1.49 1.22 1.49h.56c.68 0 1.22-.43 1.22-1.49V26h2v.13A2.85 2.85 0 0 1 37.16 29h-1.32A2.85 2.85 0 0 1 33 26.13v-3.26ZM8 29v-9h3.72c.86-.01 2.28.45 2.28 2.35v.04c0 .42-.02 1.32-1 1.92.5.19 1.5.89 1.5 2.23 0 1.67-1.69 2.46-2.84 2.46H8Zm2-7.5h1.07c.51 0 .93.56.93 1.25S11.58 24 11.07 24H10v-2.5Zm0 3.5h1.34c.64 0 1.16.56 1.16 1.25s-.52 1.25-1.16 1.25H10V25Zm5 4 2.74-9h2.6L23 29h-2.03l-.57-2h-2.8l-.55 2H15Zm3.03-3.5h1.94L19 22.06l-.96 3.44ZM42.74 20 40 29h2.05l.56-2h2.8l.56 2H48l-2.66-9h-2.6Zm2.23 5.5h-1.94l.96-3.44.98 3.44ZM24 20v9h2v-5.76L28.98 29H31v-9h-2v5.4L26.29 20H24Z"/><path fill="#CCC" d="M8.08 30H48v2H8.08z"/><path fill-rule="evenodd" d="M9.91 33.88a.35.35 0 0 0-.17-.27.73.73 0 0 0-.4-.1.86.86 0 0 0-.29.05.41.41 0 0 0-.18.11.26.26 0 0 0-.06.17c0 .05 0 .1.04.14.02.04.06.07.11.1l.17.07.2.05.3.07c.15.03.28.06.4.11s.23.1.32.18c.08.07.15.15.2.24a.74.74 0 0 1-.08.79.98.98 0 0 1-.44.3 2 2 0 0 1-.7.11c-.26 0-.5-.04-.7-.1-.19-.08-.34-.19-.46-.33a.88.88 0 0 1-.17-.53h.68c0 .1.04.18.1.25.05.06.13.11.22.14.1.04.2.05.33.05.12 0 .22-.01.31-.04a.48.48 0 0 0 .2-.13.27.27 0 0 0 .08-.19.23.23 0 0 0-.07-.16.51.51 0 0 0-.19-.12 2.13 2.13 0 0 0-.3-.08l-.37-.08c-.28-.06-.5-.15-.66-.28a.62.62 0 0 1-.24-.52.7.7 0 0 1 .16-.46c.1-.13.26-.23.45-.3.19-.08.4-.12.65-.12.24 0 .46.04.64.11a1 1 0 0 1 .43.31c.1.13.16.29.16.46h-.67Zm11.05 0a.35.35 0 0 0-.17-.27.73.73 0 0 0-.4-.1.86.86 0 0 0-.29.05.41.41 0 0 0-.18.11.26.26 0 0 0-.06.17c0 .05.01.1.04.14.02.04.06.07.11.1l.17.07.2.05.3.07c.15.03.28.06.4.11s.23.1.32.18a.7.7 0 0 1 .28.57c0 .17-.05.33-.16.46a.98.98 0 0 1-.44.3 2 2 0 0 1-.69.11c-.27 0-.5-.04-.7-.1-.2-.08-.35-.19-.47-.33a.88.88 0 0 1-.17-.53h.68c0 .1.04.18.1.25.05.06.13.11.23.14.1.04.2.05.32.05s.22-.01.31-.04a.48.48 0 0 0 .2-.13.27.27 0 0 0 .08-.19.23.23 0 0 0-.07-.16.51.51 0 0 0-.19-.12 2.13 2.13 0 0 0-.3-.08l-.37-.08c-.28-.06-.5-.15-.66-.28a.62.62 0 0 1-.24-.52.7.7 0 0 1 .16-.46c.1-.13.26-.23.45-.3.19-.08.4-.12.65-.12.24 0 .46.04.64.11a1 1 0 0 1 .44.31c.1.13.15.29.15.46h-.67Zm23.93 2.04h.73l.24-.65h1.17l.24.65H48l-1.11-2.84H46l-1.11 2.84Zm1.96-1.12-.4-1.07h-.02l-.4 1.07h.82ZM37.5 33h.84l.9 2.02h.03l.9-2.02H41v3h-.66v-1.95h-.03l-.83 1.94h-.45l-.84-1.95h-.03V36h-.66v-3Zm-5.9.03v2.94h2.26v-.51h-1.55v-.7h1.43v-.52h-1.43v-.7h1.55v-.5H31.6Zm-6.32.5V33h2.8v.52H27V36h-.68v-2.48h-1.04ZM15.7 36v-3H15v3h.7Z"/></svg>