<!-- by TradeStack --><svg viewBox="0 0 56 56" fill="none" xmlns="http://www.w3.org/2000/svg">
<rect width="56" height="56" fill="#F0F3FA"/>
<path fill-rule="evenodd" clip-rule="evenodd" d="M8 29H8.6959L12 25H11.3041L8 29Z" fill="#9D9D9D"/>
<path fill-rule="evenodd" clip-rule="evenodd" d="M4 29H4.77963L8.48129 25H7.70166L4 29Z" fill="#9D9D9D"/>
<path fill-rule="evenodd" clip-rule="evenodd" d="M9.00003 27L8.52756 27.5233H5.97672L6.41839 27H9.00003Z" fill="#9D9D9D"/>
<path fill-rule="evenodd" clip-rule="evenodd" d="M11 25L10.6304 25.5372H7.79114L8.25084 25H11Z" fill="#9D9D9D"/>
<path fill-rule="evenodd" clip-rule="evenodd" d="M15 29H15.7796L19.4813 25H18.7017L15 29Z" fill="#9D9D9D"/>
<path fill-rule="evenodd" clip-rule="evenodd" d="M20 27L19.5275 27.5233H16.9767L17.4184 27H20Z" fill="#9D9D9D"/>
<path fill-rule="evenodd" clip-rule="evenodd" d="M18.5233 28.4767L18.0508 29H15.5L15.9417 28.4767H18.5233Z" fill="#9D9D9D"/>
<path fill-rule="evenodd" clip-rule="evenodd" d="M22 25L21.6304 25.5372H18.7911L19.2508 25H22Z" fill="#9D9D9D"/>
<path fill-rule="evenodd" clip-rule="evenodd" d="M36 29H36.7796L40.4813 25H39.7017L36 29Z" fill="url(#paint0_linear_5825_209185)"/>
<path fill-rule="evenodd" clip-rule="evenodd" d="M41 27L40.5275 27.5233H37.9767L38.4184 27H41Z" fill="url(#paint1_linear_5825_209185)"/>
<path fill-rule="evenodd" clip-rule="evenodd" d="M39.5233 28.4767L39.0508 29H36.5L36.9417 28.4767H39.5233Z" fill="url(#paint2_linear_5825_209185)"/>
<path fill-rule="evenodd" clip-rule="evenodd" d="M43 25L42.6304 25.5372H39.7911L40.2508 25H43Z" fill="url(#paint3_linear_5825_209185)"/>
<path fill-rule="evenodd" clip-rule="evenodd" d="M15.878 26.7428L14.0109 28.7901C14.0109 28.7901 12.775 29 11.3112 29C9.84739 29 9.97152 28.2809 10.0314 28.0131C10.0914 27.7453 11.6355 25 15.4134 25C16.2198 25 17 25.1995 17 25.1995L16.6844 25.6299C16.6844 25.6299 16.4916 25.4095 15.1154 25.4095C13.7392 25.4095 11.1436 26.5367 10.8203 27.9816C10.6976 28.5305 11.1554 28.5717 11.6615 28.6068C12.4881 28.6642 13.5902 28.4436 13.5902 28.4436L14.7911 27.1523H13.6428L13.9759 26.7323L15.878 26.7428Z" fill="#9D9D9D"/>
<path fill-rule="evenodd" clip-rule="evenodd" d="M26.0246 25L24.5 29.0079H23.7106L25.1731 25.3404L19.7184 29H19L25.0489 25H26.0246Z" fill="#9D9D9D"/>
<path fill-rule="evenodd" clip-rule="evenodd" d="M22.1841 27H24.7918V27.383H22L22.1841 27Z" fill="#9D9D9D"/>
<path fill-rule="evenodd" clip-rule="evenodd" d="M37.0246 25L35.5 29.0079H34.7106L36.1731 25.3404L30.7184 29H30L36.0489 25H37.0246Z" fill="url(#paint4_linear_5825_209185)"/>
<path fill-rule="evenodd" clip-rule="evenodd" d="M33.1841 27H35.7918V27.383H33L33.1841 27Z" fill="url(#paint5_linear_5825_209185)"/>
<path fill-rule="evenodd" clip-rule="evenodd" d="M31 25.1237L30.6411 25.5979C30.6411 25.5979 30.5085 25.4227 29.3459 25.4227C28.1834 25.4227 25.9995 26.6773 25.7334 27.9896C25.6302 28.4988 26.0868 28.6132 26.5602 28.638C27.3066 28.6771 28.2458 28.402 28.2458 28.402L27.8713 28.9072C27.8713 28.9072 27.3249 29 26.3262 29C25.3275 29 25 28.7421 25 28.0927C25 27.4433 26.857 25 29.6736 25C30.9376 25 31 25.1237 31 25.1237Z" fill="#9D9D9D"/>
<path fill-rule="evenodd" clip-rule="evenodd" d="M40 29H40.8699L44.8699 25H44L40 29Z" fill="url(#paint6_linear_5825_209185)"/>
<path fill-rule="evenodd" clip-rule="evenodd" d="M43.9999 25.0015H45.9804C45.9804 25.0015 47.1377 24.9422 46.9863 25.5804C46.835 26.2186 45.452 27.3359 43.9999 27.2964V29H43.0762L43.2599 27C43.2599 27 45.4305 27.1596 46.129 25.7484C46.2432 25.5177 45.8906 25.4272 45.4651 25.3978C44.9373 25.3613 44.2972 25.4186 44.2972 25.4186L43.9999 25.0015Z" fill="url(#paint7_linear_5825_209185)"/>
<path fill-rule="evenodd" clip-rule="evenodd" d="M46 28.2687C46 26.2435 49.4838 25.0047 50.3369 25.0047C50.3585 25.0046 50.3857 25.0039 50.4174 25.0031C50.8269 24.9928 52.0001 24.9632 52.0001 25.7889C52.0001 27.2013 49.296 28.9984 47.7075 28.9984C47.6617 28.9984 47.6136 28.9988 47.5638 28.9992C46.9226 29.004 46 29.011 46 28.2687ZM46.698 27.9735C46.698 26.4196 49.371 25.4691 50.0256 25.4691C50.0422 25.469 50.0629 25.4685 50.0872 25.4679C50.4014 25.46 51.3017 25.4372 51.3017 26.0708C51.3017 27.1545 49.227 28.5334 48.0081 28.5334C47.973 28.5334 47.9361 28.5336 47.8979 28.5339C47.4059 28.5377 46.698 28.543 46.698 27.9735Z" fill="url(#paint8_linear_5825_209185)"/>
<path fill-rule="evenodd" clip-rule="evenodd" d="M48.4456 22.0012C48.1612 22.0012 47 22.3109 47 22.8172C47 23.0171 47.3572 22.9996 47.5692 22.9996C48.0986 22.9996 49 22.5503 49 22.1972C49 21.9748 48.5461 22.0006 48.4456 22.0012Z" fill="#F6A600"/>
<path fill-rule="evenodd" clip-rule="evenodd" d="M17 30.1781C17 30.1781 28.3538 29.795 36.0042 30.1525C36.0042 30.1525 29.7182 30.5867 17 30.1781Z" fill="#005DA9"/>
<path fill-rule="evenodd" clip-rule="evenodd" d="M18 34.1686L18.4508 35C18.4508 35 31.7563 24.1428 47 22C47 22 35.8699 22.2145 18 34.1686Z" fill="#005DA9"/>
<defs>
<linearGradient id="paint0_linear_5825_209185" x1="38.2406" y1="25" x2="38.2406" y2="29" gradientUnits="userSpaceOnUse">
<stop stop-color="#181B1E"/>
<stop offset="1" stop-color="#181B1E"/>
</linearGradient>
<linearGradient id="paint1_linear_5825_209185" x1="39.4883" y1="27" x2="39.4883" y2="27.5233" gradientUnits="userSpaceOnUse">
<stop stop-color="#181B1E"/>
<stop offset="1" stop-color="#181B1E"/>
</linearGradient>
<linearGradient id="paint2_linear_5825_209185" x1="38.0116" y1="28.4767" x2="38.0116" y2="29" gradientUnits="userSpaceOnUse">
<stop stop-color="#181B1E"/>
<stop offset="1" stop-color="#181B1E"/>
</linearGradient>
<linearGradient id="paint3_linear_5825_209185" x1="41.3956" y1="25" x2="41.3956" y2="25.5372" gradientUnits="userSpaceOnUse">
<stop stop-color="#181B1E"/>
<stop offset="1" stop-color="#181B1E"/>
</linearGradient>
<linearGradient id="paint4_linear_5825_209185" x1="33.5123" y1="25" x2="33.5123" y2="29.0079" gradientUnits="userSpaceOnUse">
<stop stop-color="#181B1E"/>
<stop offset="1" stop-color="#181B1E"/>
</linearGradient>
<linearGradient id="paint5_linear_5825_209185" x1="34.3959" y1="27" x2="34.3959" y2="27.383" gradientUnits="userSpaceOnUse">
<stop stop-color="#181B1E"/>
<stop offset="1" stop-color="#181B1E"/>
</linearGradient>
<linearGradient id="paint6_linear_5825_209185" x1="42.4349" y1="25" x2="42.4349" y2="29" gradientUnits="userSpaceOnUse">
<stop stop-color="#181B1E"/>
<stop offset="1" stop-color="#181B1E"/>
</linearGradient>
<linearGradient id="paint7_linear_5825_209185" x1="45.0381" y1="25" x2="45.0381" y2="29" gradientUnits="userSpaceOnUse">
<stop stop-color="#181B1E"/>
<stop offset="1" stop-color="#181B1E"/>
</linearGradient>
<linearGradient id="paint8_linear_5825_209185" x1="49" y1="25" x2="49" y2="29" gradientUnits="userSpaceOnUse">
<stop stop-color="#181B1E"/>
<stop offset="1" stop-color="#181B1E"/>
</linearGradient>
</defs>
</svg>
