<!-- by TradeStack --><svg fill="none" xmlns="http://www.w3.org/2000/svg" viewBox="0 0 56 56"><path fill="url(#a)" d="M0 0h56v56H0z"/><path fill-rule="evenodd" clip-rule="evenodd" d="M22.186 17 8 39h3.626l5.066-8.003H22V39h3V28c0 6.075 4.925 11 11 11s11-4.925 11-11-4.925-11-11-11-11 4.925-11 11V17h-2.814ZM22 28v-5.387L18.59 28H22Zm14 8a8 8 0 1 0 0-16 8 8 0 0 0 0 16Z" fill="#ED1B26"/><defs><linearGradient id="a" x1="10.418" y1="9.712" x2="68.147" y2="76.017" gradientUnits="userSpaceOnUse"><stop stop-color="#1A1E21"/><stop offset="1" stop-color="#06060A"/></linearGradient></defs></svg>