<!-- by TradeStack --><svg viewBox="0 0 56 56" xmlns="http://www.w3.org/2000/svg"><path fill="#F0F3FA" d="M0 0h56v56H0z"/><path d="m11.41 29.42-1.48-4.24-1.46 4.24h2.94ZM21.04 22c2.28 0 4.19.95 5.02 3.37l-2.5 1.4C23.1 25.72 22.32 25 21.04 25c-1.68 0-2.87 1.12-2.87 3 0 1.92 1.09 3 2.83 3 1.28 0 2.2-.7 2.66-1.76l2.5 1.37C25.31 33.03 23.4 34 21 34a5.8 5.8 0 0 1-6-6c0-3.44 2.57-6 6.04-6Zm25.85 0c2.28 0 4.19.95 5.02 3.37l-2.5 1.4C48.95 25.72 48.16 25 46.9 25 45.2 25 44 26.1 44 28c0 1.91 1.2 3 2.95 3 1.28 0 2.1-.7 2.55-1.76L52 30.6c-.83 2.42-2.6 3.39-5 3.39a5.8 5.8 0 0 1-6-6c0-3.44 2.42-6 5.89-6Zm-35.53 0 4.55 12H13l-.77-2.37H7.67L6.9 34H4l4.54-12h2.82ZM36 22v3h-3v9h-3v-9h-3v-3h9Zm4 0v12h-3V22h3Z" fill="#000105"/></svg>