<!-- by TradeStack --><svg viewBox="0 0 56 56" xmlns="http://www.w3.org/2000/svg"><path fill="#F0F3FA" d="M0 0h56v56H0z"/><path d="M47 21h-2v3h-2v2h2v3.7c0 2.3 1.62 3.3 3.2 3.3 1.6 0 2.8-1 2.8-1l-1-1.54s-.64.54-1.77.54S47 29.7 47 29.7V26h3v-2h-3v-3Zm-5 7.35c0-2.5-2-4.35-4.5-4.35-2.47 0-4.5 2-4.5 4.5s2.25 4.5 4.5 4.5a6.4 6.4 0 0 0 4-1.5l-1.27-1.45s-.73.95-2.6.95c-2.13 0-2.38-2-2.38-2h6.7c.03-.22.05-.44.05-.65Zm-2-.85h-4.78S35.7 26 37.5 26c1.84 0 2.5 1.5 2.5 1.5ZM13.5 31a2.5 2.5 0 1 0 0-5 2.5 2.5 0 0 0 0 5Zm-3.91-4.75c.33-.58.78-1.08 1.32-1.46a4.36 4.36 0 0 0-2.5-.79C5.97 24 4 26 4 28.5S5.97 33 8.41 33c.93 0 1.8-.28 2.51-.78-.54-.38-1-.88-1.33-1.47a2.5 2.5 0 1 1 0-4.5ZM31 33v-5c0-3.15-1.78-4-3.5-4-2.5 0-3.18 1.57-3.18 1.57s-.87-1.55-2.82-1.55A3.5 3.5 0 0 0 19 25v-1h-2v1.65a4.4 4.4 0 0 1 0 5.95V33h2v-5.02S19.28 26 21 26s2 2 2 2v5h2v-5.02S25.18 26 27 26s2 1.98 2 1.98V33h2Z" fill="url(#apc1yfacv)"/><defs><linearGradient id="apc1yfacv" x1="4" y1="27.55" x2="51.5" y2="27.09" gradientUnits="userSpaceOnUse"><stop offset=".46" stop-color="#E50626"/><stop offset="1" stop-color="#802270"/></linearGradient></defs></svg>