<!-- by TradeStack --><svg viewBox="0 0 56 56" xmlns="http://www.w3.org/2000/svg"><path fill="#181B1E" d="M0 0h56v56H0z"/><path d="M45 36c-3.3 0-4-1.64-4-3.49v-9.04c0-1.85.7-3.47 4-3.47s4 1.62 4 3.47v9.04c0 1.85-.7 3.49-4 3.49Zm0-2c.8 0 1-.43 1-1.25v-9.5c0-.84-.2-1.25-1-1.25s-1 .4-1 1.25v9.5c0 .82.2 1.25 1 1.25ZM36 36c-3.3 0-4-1.64-4-3.49v-9.04c0-1.85.7-3.47 4-3.47s4 1.62 4 3.47v1.16c0 .24-.13.37-.36.37h-2.28c-.23 0-.36-.13-.36-.37v-1.38c0-.84-.23-1.25-1-1.25-.8 0-1 .4-1 1.25v9.5c0 .82.2 1.25 1 1.25.77 0 1-.43 1-1.25V29h-.64c-.23 0-.36-.13-.36-.37v-1.26c0-.24.13-.37.36-.37h3.28c.23 0 .36.13.36.37v5.14c0 1.85-.7 3.49-4 3.49ZM30.63 36h-2.25c-.25 0-.38-.13-.38-.37v-8.26c0-.24.13-.37.38-.37h2.25c.24 0 .37.13.37.37v8.26c0 .24-.13.37-.38.37Z" fill="#fff"/><path d="M30.63 25h-2.25c-.25 0-.38-.14-.38-.39V20.4c0-.25.13-.39.38-.39h2.25c.24 0 .37.14.37.39v4.22c0 .25-.13.39-.38.39Z" fill="#F04425"/><path d="M26.64 36h-4.28c-.23 0-.36-.13-.36-.38V20.38c0-.25.13-.38.36-.38h2.28c.23 0 .36.13.36.38V34h1.64c.23 0 .36.13.36.38v1.24c0 .25-.13.38-.36.38ZM20.64 36h-4.28c-.23 0-.36-.13-.36-.38V20.38c0-.25.13-.38.36-.38h2.28c.23 0 .36.13.36.38V34h1.64c.23 0 .36.13.36.38v1.24c0 .25-.13.38-.36.38ZM11.87 20.33 15 35.58c.04.27-.06.42-.32.42H12.3c-.22 0-.37-.09-.4-.35L11.69 34H9.32l-.24 1.65c-.02.26-.17.35-.39.35H6.33c-.26 0-.36-.15-.32-.42l3.12-15.25c.04-.22.2-.33.4-.33h1.93c.22 0 .37.11.41.33ZM10.5 24l-.88 7h1.76l-.88-7Z" fill="#fff"/></svg>