<!-- by TradeStack --><svg viewBox="0 0 56 56" xmlns="http://www.w3.org/2000/svg"><path fill="#F0F3FA" d="M0 0h56v56H0z"/><path d="M24 27c-.4 0-.69.3-1 .8V27h-1v4h1v-2.33c.32-.49.58-.73 1-.73V27ZM27.34 27c-.47 0-.94.2-1.34.58V27h-1v4h1v-2.71c.26-.23.58-.29.87-.29.37 0 .6.22.6.7V31h1.05v-2.2c0-.17 0-.34-.03-.52.26-.23.55-.28.86-.28.37 0 .65.22.65.7V31h1v-2.66c0-.9-.55-1.34-1.23-1.34-.51 0-.93.16-1.4.6-.2-.4-.55-.6-1.03-.6ZM34.9 27l-.86 2.8-.91-2.8H32l1.56 4.38-.04.11c-.16.36-.37.55-.63.56-.17.03-.18.02-.34-.03l-.1.9c.2.07.24.09.55.08.68 0 1.17-.45 1.47-1.35L36 27h-1.1ZM39.2 27c-1.12 0-2.2.82-2.2 2 0 1.18 1.08 2 2.2 2 .74 0 1.4-.33 1.8-.85l-.91-.49c-.22.25-.5.34-.83.34-.57 0-1.26-.26-1.26-1s.66-1 1.23-1c.32 0 .62.08.83.32l.92-.49A2.27 2.27 0 0 0 39.2 27ZM49.64 27a2.7 2.7 0 0 0-1.64.55V27h-1v4h1v-2.67c.3-.26.93-.39 1.32-.39.42 0 .68.28.68.75V31h1v-2.66c0-.9-.6-1.34-1.36-1.34Z" fill="#143381"/><path d="M12.5 24a3.5 3.5 0 1 1 0 7 3.5 3.5 0 0 1 0-7Z" fill="#FFD832"/><path d="M8.5 22a3.5 3.5 0 1 1 0 7 3.5 3.5 0 0 1 0-7Z" fill="#7E9BCE"/><path d="M8.5 26a3.5 3.5 0 1 1 0 7 3.5 3.5 0 0 1 0-7Z" fill="#7E9BCE"/><path d="M11.37 27.5a3.5 3.5 0 0 1-5.74 0 3.5 3.5 0 0 1 5.74 0ZM42 29c0 1.1.9 2 2 2 1.09 0 2-.9 2-2s-.91-2-2-2a2 2 0 0 0-2 2Zm3 0c0 .53-.45 1-1 1-.56 0-1-.47-1-1s.45-1 1-1 1 .47 1 1ZM17 29c0 1.1.9 2 2 2 1.09 0 2-.9 2-2s-.91-2-2-2a2 2 0 0 0-2 2Zm3 0c0 .53-.45 1-1 1-.56 0-1-.47-1-1s.45-1 1-1 1 .47 1 1ZM15 29.95c-.29.3-.63.54-1 .71V28h-1v-1h1v-.54c0-.81.4-1.27 1-1.41.24.24.44.52.6.82-.3.07-.6.29-.6.63v.5h.96a3.54 3.54 0 0 1 0 1H15v1.95Z" fill="#143381"/></svg>