<!-- by TradeStack --><svg viewBox="0 0 56 56" xmlns="http://www.w3.org/2000/svg"><path fill="#F0F3FA" d="M0 0h56v56H0z"/><path d="m38 31 1.47-5h1.44l.42 2.72L42.46 26H44v5l-1.31-.01.01-2.98L41.43 31h-.78l-.57-2.99-.8 2.99H38ZM34.69 29.24c.42.43.9.76 1.31.76.34 0 .55-.17.55-.43 0-.17-.33-.5-.73-.7a5.22 5.22 0 0 0-.1-.05c-.5-.25-1.02-.58-1.02-1.22 0-.99.84-1.6 1.78-1.6.56 0 1.07.19 1.52.55l-.57.94c-.36-.3-.7-.49-.95-.49-.27 0-.48.17-.48.39 0 .13.23.34.57.5l.28.15c.53.28.93.65.93 1.28 0 1.15-1.03 1.68-2.06 1.68-.67 0-1.25-.27-1.72-.8l.69-.96ZM29 31l2.39-5h1.6L34 31h-1.2l-.19-1h-1.82l-.46 1H29Zm2.26-2h1.17l-.39-1.83-.78 1.83ZM44 31l2.39-5h1.6L49 31h-1.2l-.19-1h-1.82l-.46 1H44Zm2.26-2h1.17l-.39-1.83-.78 1.83ZM26 31l.74-5h1.27l-.57 4H29l-.18 1H26ZM23.66 28h.12c.44 0 1.03.1 1.03-.47 0-.37-.24-.53-.76-.53h-.22l-.17 1ZM22 31l.74-5h1.28c1.04 0 1.98.32 1.98 1.54 0 1.27-.87 1.46-1.98 1.46h-.48l-.3 2H22ZM19.6 27.17c-.8 0-1.32.7-1.32 1.46 0 .66.42 1.2 1.11 1.2.8 0 1.33-.74 1.33-1.49 0-.64-.46-1.17-1.12-1.17ZM19.32 31c-1.3 0-2.32-.9-2.32-2.23A2.69 2.69 0 0 1 19.68 26c1.3 0 2.32.9 2.32 2.23A2.7 2.7 0 0 1 19.32 31Z" fill="#122F39"/><path d="M14.24 31H13l.74-5h1.24c1 0 2.02.24 2.02 1.46 0 .8-.5 1.43-1.3 1.57L16.84 31h-1.42l-.9-1.9-.28 1.9Zm.4-2.72h.39c.49 0 .76-.24.76-.7 0-.21-.06-.37-.18-.46-.13-.1-.32-.12-.6-.12h-.18l-.2 1.28ZM8.53 26h1.4l-.42 2.44a7.15 7.15 0 0 0-.08.71c0 .21.06.37.19.49.12.11.3.17.52.17.54 0 .92-.66 1.15-2v-.04l.3-1.77H13l-.47 2.76c-.1.6-.23 1.02-.38 1.27-.2.31-.47.56-.83.72-.36.17-.77.25-1.26.25-.62 0-1.12-.14-1.5-.41A1.31 1.31 0 0 1 8 29.48a20.94 20.94 0 0 1 .17-1.4l.36-2.08ZM5.64 30h1.69l-.19 1H4l.86-5H8l-.2 1H6.12l-.14 1h1.56l-.18 1H5.79l-.15 1Z" fill="#122F39"/><path d="M52 28.81 50.62 27 37 34l15-5.19Z" fill="#FA8725"/></svg>