<!-- by TradeStack --><svg viewBox="0 0 56 56" xmlns="http://www.w3.org/2000/svg"><path fill="#F0F3FA" d="M0 0h56v56H0z"/><path d="M43.74 31.09a2.1 2.1 0 0 0-2.55 1.29 15.7 15.7 0 0 1-14.73 9.86c-6.5 0-12.07-3.8-14.46-9.21C14.04 39.94 20.65 45 28.48 45c7.8 0 14.38-5.01 16.45-11.87.27-.87-.29-1.76-1.2-2.04Z" fill="#6E91B3"/><path d="M33.47 29.04a.9.9 0 0 0-1.09.55 6.66 6.66 0 0 1-6.24 4.23A6.67 6.67 0 0 1 20 29.87 7.25 7.25 0 0 0 27 35c3.3 0 6.09-2.15 6.97-5.09.11-.37-.12-.75-.5-.87ZM12.33 25.93c1.06.3 2.15-.38 2.5-1.43a15.7 15.7 0 0 1 14.33-10.72A15.74 15.74 0 0 1 44 22.72a17.15 17.15 0 0 0-16.97-11.7c-7.8.29-14.18 5.7-15.98 12.85-.23.91.36 1.8 1.28 2.06Z" fill="#6E91B3"/><path d="M24.04 22.55c.15.55.74.83 1.28.7 3.12-.79 7 .39 8.91 3.26 1.84 2.76.82 5.85-.85 8.49 2.42-2.94 3.69-6.85 1.47-10.18-2.2-3.31-6.7-4.56-10.26-3.39-.46.15-.69.65-.55 1.12Z" fill="#6E91B3"/><path d="M22.06 18.33c.23.81 1.1 1.24 1.92 1.04 4.68-1.18 10.5.58 13.37 4.89 2.75 4.14 1.23 8.78-1.28 12.74 3.63-4.4 5.54-10.27 2.2-15.27-3.3-4.97-10.05-6.84-15.39-5.09-.68.23-1.02.98-.82 1.69ZM32.95 38c-.21-.7-.99-1.06-1.7-.89-4.17 1-9.34-.5-11.89-4.19-2.45-3.55-1.1-7.53 1.13-10.92-3.22 3.78-4.92 8.8-1.96 13.09 2.94 4.26 8.94 5.86 13.69 4.36.6-.2.9-.84.73-1.44Z" fill="#6E91B3"/></svg>