<!-- by TradeStack --><svg viewBox="0 0 56 56" xmlns="http://www.w3.org/2000/svg"><path fill="#F0F3FA" d="M0 0h56v56H0z"/><path d="M43.97 24.92a26.93 26.93 0 0 1-3.3 11.76c-2.34 4.25-5.95 7.36-10.62 7.32-8.34-.07-19.14-8.31-19.05-17.68.1-10.61 13.82-14.5 21.8-14.31 7.53.17 11.58 5.22 11.17 12.91Z" fill="#03945D"/><path d="M33 18h-3.36A6.62 6.62 0 0 0 23 24.7v12.06c.06.08.29.24.71.24.54 0 2.29-.63 2.29-1.8V24.45c0-1.9 1.49-3.44 3.32-3.44H33v-3Z" fill="#fff"/><path d="M32 27a3.63 3.63 0 0 0-5 0 3.63 3.63 0 0 0 5 0Z" fill="#fff"/></svg>