<!-- by TradeStack --><svg viewBox="0 0 56 56" xmlns="http://www.w3.org/2000/svg"><path fill="#F0F3FA" d="M0 0h56v56H0z"/><path d="M41.53 15.92c-.72.73-1.38 1.52-1.97 2.36l-.45.64a59.6 59.6 0 0 0-2.76 4.63c-.11.2-.09.22.06.04 1-1.15 2.1-2.25 3.31-3.3l.72-.55c.6-.36 1.27-.65 2-.87l.35.99c-.83.33-1.6.73-2.28 1.2a25.61 25.61 0 0 0-3.96 3.62l-2.82 3.29-.56-1.17 2.45-5a31.37 31.37 0 0 1 5.59-7.74l.05-.02c.05-.02.08 0 .1.05l.21 1.73a.1.1 0 0 1-.01.06l-.03.04ZM38.77 14.77l-1.1 1.47L35 20.08a51.38 51.38 0 0 0-2.64 4.96c-.17-.1-.3-.24-.39-.42.94-1.95 2-3.85 3.15-5.7.53-.85 1.05-1.75 1.69-2.45a11.3 11.3 0 0 1 1.95-1.7Z" fill="#fff"/><path d="m27.84 22.6 1.87.17a100 100 0 0 0-2.03-4.28 2.22 2.22 0 0 0-.41-.6c-.83-.8-2.39-1.08-3.52-1.03l-1.83.12c-1.8.29-3.57.76-5.3 1.4a30.26 30.26 0 0 0-5.3 2.28c2.28-.07 4.46.12 6.52.57 1.68.44 3.3 1 4.89 1.67.23.1.46.13.69.1.26-.04.53-.1.8-.17l.68-.13 2.94-.1Z" fill="url(#a)"/><path d="M35.13 18.92a59.5 59.5 0 0 0-3.15 5.7l-.68 1.48-.83-1.86c.86-.68 1.6-1.44 2.22-2.3l2.25-3.07a.14.14 0 0 1 .14-.05c.05.01.07.04.05.1Z" fill="#224C86"/><path d="m44.02 22.78.51 1.11-1.2.37-1.64.92a22.52 22.52 0 0 0-3.44 3.43c-.14.18-.12.21.08.1 1.77-1 3.24-1.72 5.35-1.6l1.38.18 1.45.41.4.72a12.37 12.37 0 0 0-4.28-.6c-1.33.13-2.6.68-3.75 1.4-.45.23-.91.44-1.38.63-.24.1-.44.24-.6.43l-1.36 1.58c-.13.15-.1.2.1.16 1.33-.28 2.73-1.09 3.97-1.67 1.24-.62 2.53-1 3.87-1.18a8.98 8.98 0 0 1 4.49 1.1v.05c0 .02-.03.04-.05.04-1.02.2-2 .52-2.95.95-.04.02-.1.01-.16-.03-1.37-.44-3.13-.06-4.41.54l-.8.36a18.85 18.85 0 0 1-4.2 1.54c-.3.07-.66.22-1 .32-.06.02-.1 0-.12-.07l-.47-1.73 4.15-5.03a19.06 19.06 0 0 1 4-3.6c.63-.37 1.31-.64 2.06-.83Z" fill="#fff"/><path d="M14.85 24.33c1.43.23 2.85.63 4.27 1.19l1.23.6a.12.12 0 0 1 .04.18l-.5.63-2.52 3.59c-.48.75-.93 1.52-1.33 2.3a94.03 94.03 0 0 0-2.17 4.55l-.47-1.26a39.93 39.93 0 0 1 2.87-5.9l1.2-1.86 1.21-1.7c.05-.06.04-.1-.03-.15-.78-.4-1.6-.7-2.47-.91l-2.22-.42a31.44 31.44 0 0 0-5.13-.16c-.02-.01-.04-.03-.06-.07a15.9 15.9 0 0 0-.28-.69c2.12-.23 4.24-.2 6.36.08Z" fill="#F1BF65"/><path d="m32.37 25.04-.77 1.72-.3-.66.68-1.48c.09.18.22.31.39.42Z" fill="#fff"/><path d="m41.55 15.93-.02-.01c-.72.73-1.38 1.52-1.97 2.36l-.45.64c-1.01 1.53-1.93 3.08-2.76 4.63-.11.2-.09.22.06.04 1-1.15 2.1-2.25 3.31-3.3l.72-.55c.6-.36 1.27-.65 2-.87l-.78-2.82a.17.17 0 0 0-.08-.1l-.02-.02Zm4.96 11.77-1.98-3.8-1.2.36-1.64.92a22.51 22.51 0 0 0-3.44 3.43c-.14.18-.12.21.08.1 1.77-1 3.24-1.72 5.35-1.6l1.38.18 1.45.41Z" fill="url(#b)"/><path d="M8.92 25.02c1.7-.08 3.37-.03 5.04.15l2.22.42c.86.21 1.68.52 2.47.91.07.04.08.09.03.15l-1.22 1.7-1.19 1.86a39.93 39.93 0 0 0-2.87 5.9 180.7 180.7 0 0 1-4.57-11c-.01-.04 0-.07.04-.09a.1.1 0 0 1 .05 0Z" fill="url(#c)"/><path d="M22.73 22.9a35.27 35.27 0 0 0-4.89-1.67 26.83 26.83 0 0 0-6.52-.57l-1.39.7 3.97.23c1.37.15 2.7.37 3.97.68 1.68.46 3.3 1.02 4.88 1.7a.3.3 0 0 0 .17.01l1.76-.3 1.83-.18c1.18-.07 2.38-.02 3.59.15-.06-.3-.2-.59-.4-.88l-1.86-.17-2.94.1-.69.13c-.26.07-.53.13-.8.17-.22.03-.45 0-.68-.1Z" fill="url(#d)"/><path d="M31.65 27.07c.19.26.32.57.4.9a13.5 13.5 0 0 0-5.92-.28c-.54.06-1.06.15-1.58.29-.28.07-.52.2-.73.4-.32.33-.63.66-.92 1.02l-.82 1a34.3 34.3 0 0 0-2.64 4.44l-1.13 2.26-1.47.73 1.82-3.86c.7-1.45 1.5-2.83 2.38-4.13.64-.92 1.4-1.7 2.27-2.35.3-.23.65-.38 1.03-.46.48-.1.97-.17 1.46-.22l1.95-.22a8.58 8.58 0 0 1 3.9.48Z" fill="url(#e)"/><path d="m33.17 26.8.56 1.17-1.06 1.37-.43-1.1.93-1.44Z" fill="#fff"/><path d="M41.21 14.06a31.38 31.38 0 0 0-5.59 7.74l-2.45 5-.93 1.44c0-.1-.07-.19-.2-.26a2.56 2.56 0 0 0-.39-.91c0-.1 0-.2-.05-.3l.77-1.73a51.4 51.4 0 0 1 2.64-4.96l2.65-3.84 1.1-1.47c.73-.5 1.52-.75 2.39-.77.03 0 .05.02.06.06Zm1.58 5.8 1.23 2.92c-.75.19-1.43.46-2.05.83a19.06 19.06 0 0 0-4 3.6l-4.16 5.03-1.14-2.9 1.06-1.37 2.82-3.3a25.6 25.6 0 0 1 3.96-3.61c.69-.47 1.45-.87 2.28-1.2Zm5.18 10.24a19.7 19.7 0 0 1-1.06-1.68 12.37 12.37 0 0 0-4.28-.6c-1.33.13-2.6.68-3.75 1.4-.45.23-.91.44-1.38.63-.24.1-.44.24-.6.43l-1.36 1.58c-.13.15-.1.2.1.16 1.02-.22 2.08-.74 3.08-1.24.3-.15.6-.3.9-.43 1.23-.62 2.52-1 3.86-1.18a8.98 8.98 0 0 1 4.49 1.1.26.26 0 0 0 .03-.09c0-.02 0-.05-.03-.08Z" fill="url(#f)"/><path d="m13.9 21.59-3.97-.23-1.78.98a.3.3 0 0 0-.14.34l.48 1.57a26.2 26.2 0 0 1 6.36.08c1.43.23 2.85.63 4.27 1.19l1.23.6a.12.12 0 0 1 .07.13c0 .02-.02.03-.03.05l-.5.63-2.52 3.59a26.3 26.3 0 0 0-1.33 2.3 94.13 94.13 0 0 0-2.17 4.55l.66 1.66a.13.13 0 0 0 .2.06l2.1-1.26 1.83-3.86c.7-1.45 1.5-2.83 2.38-4.13.64-.92 1.4-1.7 2.27-2.35.3-.23.65-.38 1.03-.46.48-.1.97-.17 1.46-.22l1.95-.22a8.58 8.58 0 0 1 3.9.48c0-.1 0-.2-.05-.3l-.3-.67-.83-1.86c-.11-.3-.24-.5-.37-.6-1.21-.16-2.4-.2-3.59-.14l-1.83.18-1.76.3a.3.3 0 0 1-.17-.02 37.63 37.63 0 0 0-4.88-1.7c-1.28-.3-2.6-.52-3.97-.67Z" fill="url(#g)"/><path d="M34 35.66a16.46 16.46 0 0 0-5.25-1.32l-.16-.48c1.4-.35 4.58-.75 5.63.54.39.48.31.9-.22 1.26Z" fill="#12141A"/><path d="M34 35.66c-.46.17-.76.4-.9.69-.02-.04-.06.2-.16.23l-2.37 2.84-1.82-5.08c1.8.15 3.56.58 5.25 1.32Z" fill="#45464B"/><path d="M32.24 28.24c0-.1-.07-.19-.2-.26a13.5 13.5 0 0 0-5.91-.3c-.54.07-1.06.16-1.58.3-.28.07-.52.2-.73.4-.32.33-.63.66-.92 1.02l-.82 1a34.3 34.3 0 0 0-2.64 4.44l-1.13 2.26 1.79-.75 3.83-1.36 1.08-.3 3.58-.83c1.4-.35 4.58-.75 5.63.54.39.48.31.9-.22 1.26-.46.17-.76.4-.9.69a28.09 28.09 0 0 0 2.34 4.76h.06c.03.01.06 0 .09-.01a12.5 12.5 0 0 0 3.21-3.01c.33-.44.66-.92 1-1.42.5-.73 1.01-1.48 1.58-2.18l.49-.52c.88-1.08 1.66-1.98 2.86-2.54.03-.01.06-.03.07-.05a.15.15 0 0 0 .01-.1c-1.37-.44-3.13-.06-4.41.54l-.8.36a18.85 18.85 0 0 1-4.2 1.54c-.18.04-.37.1-.57.18l-.42.14c-.07.02-.11 0-.13-.07l-.47-1.73-1.14-2.9-.43-1.1Z" fill="url(#h)"/><path d="M33.1 36.35a28.09 28.09 0 0 0 2.34 4.76c-.1.15-.32.29-.64.4a17.32 17.32 0 0 1-2.26-4.8l.39-.39c.1-.01.15 0 .17.03Z" fill="#D5D6D5"/><path d="M32.54 36.7a17.32 17.32 0 0 0 2.26 4.8 3.8 3.8 0 0 1-1.8.5c-1.28.03-2.12-.56-2.54-1.77-.2-.6.2-1.4.55-1.89.43-.6.94-1.15 1.53-1.63Z" fill="#AD453E"/><defs><linearGradient id="a" x1="13.9" y1="20.74" x2="26.48" y2="17.69" gradientUnits="userSpaceOnUse"><stop stop-color="#F49465"/><stop offset=".58" stop-color="#F15F24"/><stop offset="1" stop-color="#BA522A"/></linearGradient><linearGradient id="b" x1="44.13" y1="21.66" x2="36.28" y2="26" gradientUnits="userSpaceOnUse"><stop stop-color="#094E90"/><stop offset="1" stop-color="#6D7FB6"/></linearGradient><linearGradient id="c" x1="18.71" y1="26.5" x2="14.61" y2="28.38" gradientUnits="userSpaceOnUse"><stop stop-color="#797C81"/><stop offset="1" stop-color="#11131B"/></linearGradient><linearGradient id="d" x1="30.6" y1="24.49" x2="23.22" y2="26.16" gradientUnits="userSpaceOnUse"><stop stop-color="#B7B6B7"/><stop offset="1" stop-color="#fff"/></linearGradient><linearGradient id="e" x1="30.6" y1="24.49" x2="23.22" y2="26.16" gradientUnits="userSpaceOnUse"><stop stop-color="#B7B6B7"/><stop offset="1" stop-color="#fff"/></linearGradient><linearGradient id="f" x1="42.96" y1="21.63" x2="32.28" y2="28.06" gradientUnits="userSpaceOnUse"><stop offset=".11" stop-color="#E74A42"/><stop offset=".33" stop-color="#EC8A77"/><stop offset=".55" stop-color="#E74942"/><stop offset="1" stop-color="#CF3B3A"/></linearGradient><linearGradient id="g" x1="11.14" y1="31.88" x2="30.54" y2="25.56" gradientUnits="userSpaceOnUse"><stop stop-color="#00996A"/><stop offset=".23" stop-color="#009A6D"/><stop offset=".39" stop-color="#66B799"/><stop offset=".48" stop-color="#25A880"/><stop offset="1" stop-color="#075"/></linearGradient><linearGradient id="h" x1="18.31" y1="39.37" x2="44.81" y2="31.52" gradientUnits="userSpaceOnUse"><stop stop-color="#2A5EA9"/><stop offset=".12" stop-color="#667BB9"/><stop offset=".3" stop-color="#1059A6"/><stop offset=".42" stop-color="#035299"/><stop offset=".59" stop-color="#0F4882"/><stop offset=".76" stop-color="#0A4D8C"/><stop offset="1" stop-color="#6376B0"/></linearGradient></defs></svg>