<!-- by TradeStack --><svg viewBox="0 0 56 56" xmlns="http://www.w3.org/2000/svg"><path fill="#F0F3FA" d="M0 0h56v56H0z"/><path fill-rule="evenodd" d="M45 28a17 17 0 1 1-34 0 17 17 0 0 1 34 0ZM20 17.5a1.5 1.5 0 0 1 3 0v8a1.5 1.5 0 0 1-3 0v-8ZM33.5 22c-.83 0-1.5.67-1.5 1.5v2a1.5 1.5 0 0 0 3 0v-2c0-.83-.67-1.5-1.5-1.5ZM32 30.5a1.5 1.5 0 0 1 3 0v2a1.5 1.5 0 0 1-3 0v-2Zm7.5-4.5c-.83 0-1.5.67-1.5 1.5v1a1.5 1.5 0 0 0 3 0v-1c0-.83-.67-1.5-1.5-1.5ZM20 30.5a1.5 1.5 0 0 1 3 0v8a1.5 1.5 0 0 1-3 0v-8ZM27.5 19c-.83 0-1.5.67-1.5 1.5v15a1.5 1.5 0 0 0 3 0v-15c0-.83-.67-1.5-1.5-1.5Z" fill="#007CE2"/></svg>