<!-- by TradeStack --><svg viewBox="0 0 56 56" xmlns="http://www.w3.org/2000/svg"><path fill="#F0F3FA" d="M0 0h56v56H0z"/><path d="M30.27 14.32c0 1.28-2.33 9.78-2.33 9.78s-2.33-8.5-2.33-9.78a2.32 2.32 0 0 1 4.66 0Zm7 3.38c-.68 1.1-7.18 7.06-7.18 7.06s2.56-8.43 3.24-9.52a2.33 2.33 0 0 1 3.2-.73 2.32 2.32 0 0 1 .75 3.2Zm-5.7 8.76s8.69-1.62 9.84-2.18a2.32 2.32 0 1 0-2.03-4.18c-1.16.56-7.81 6.36-7.81 6.36Zm9.85 5.58c-1.28-.14-9.5-3.36-9.5-3.36s8.72-1.39 10-1.25a2.32 2.32 0 1 1-.5 4.61Zm-10.4-1.3s5.26 7.09 6.27 7.88c1 .8 2.47.62 3.27-.38.8-1.01.62-2.47-.4-3.26-1-.8-9.14-4.23-9.14-4.23Zm-.74 11.27c-.44-1.2-1.12-9.98-1.12-9.98s5.07 7.21 5.5 8.42c.44 1.2-.2 2.53-1.4 2.97a2.33 2.33 0 0 1-2.98-1.4Zm-3.37-9.88s-4.1 7.8-4.38 9.05a2.33 2.33 0 0 0 4.55 1c.28-1.26-.17-10.05-.17-10.05Zm-10.5 4.25c.9-.92 8.53-5.36 8.53-5.36s-4.3 7.7-5.2 8.6c-.9.92-2.38.94-3.3.04a2.31 2.31 0 0 1-.03-3.28Zm7.46-7.34s-8.83-.27-10.08.03a2.32 2.32 0 1 0 1.08 4.52c1.25-.3 9-4.55 9-4.55Zm-8.42-7.55c1.22.4 8.56 5.31 8.56 5.31s-8.82-.5-10.04-.91a2.32 2.32 0 1 1 1.48-4.4Zm9.88 3.48s-3.61-8.03-4.43-9.03a2.33 2.33 0 0 0-3.28-.32 2.31 2.31 0 0 0-.32 3.27c.82.99 8.03 6.08 8.03 6.08Z" fill="url(#ar0muo5zq)"/><defs><linearGradient id="ar0muo5zq" x1="18.4" y1="13.6" x2="39.2" y2="40.8" gradientUnits="userSpaceOnUse"><stop stop-color="#97D4E6"/><stop offset=".54" stop-color="#6892A8"/><stop offset="1" stop-color="#4E6F87"/></linearGradient></defs></svg>