<!-- by TradeStack --><svg viewBox="0 0 56 56" xmlns="http://www.w3.org/2000/svg"><path fill="#F0F3FA" d="M0 0h56v56H0z"/><path d="M25 25v-2.12c.01-1.15.07-2.33.73-3.27a4.02 4.02 0 0 1 2.3-1.6 4.08 4.08 0 0 1 2.55 2.07c.47.88.42 1.89.42 2.9V25h21v1H30v-3.48c0-1.33-.68-2.98-1.96-3.53h-.05l-.25.12c-1.29.71-1.74 2.08-1.74 3.47V26H4v-1h21Z" fill="#C83530"/><path d="M38.06 29c.42 0 .84.1 1.2.35.51.38.74.99.74 1.65 0 .66-.23 1.27-.75 1.65a2 2 0 0 1-1.19.35 2 2 0 0 1-1.19-.35 1.96 1.96 0 0 1-.75-1.65c0-.67.23-1.27.75-1.65a2 2 0 0 1 1.2-.35Zm-.98 2c0 .64.38 1.09.98 1.09.61 0 .98-.45.98-1.1 0-.63-.37-1.08-.98-1.08-.6 0-.98.45-.98 1.09ZM9.14 32.38v.02a2 2 0 0 1-1.2.58c-.36.04-.7.01-1.03-.1a1.8 1.8 0 0 1-1.27-1.5c-.15-1.05.34-2.04 1.4-2.3a2.07 2.07 0 0 1 2.04.52v.01l-.6.62h-.02c-.28-.25-.6-.35-.97-.3-.7.1-.97.78-.8 1.42.1.42.44.7.88.73.38.03.71-.1 1-.36h.01l.56.66ZM12 30.49V29h1v4h-1v-1.54h-1V33h-1v-4h1v1.49h1ZM14.9 32.34l-.24.65h-1.11l1.7-3.99h1.09l1.7 3.99h-1.12l-.25-.65H14.9Zm.37-.93 1.04.01-.5-1.37h-.02l-.52 1.36ZM20 32v1h-1v-4h1.7c.08 0 .19.01.31.04.52.1.9.52.97 1.14.07.5-.03 1.04-.37 1.38a1.4 1.4 0 0 1-.95.44H20Zm0-2v1h.65c.11 0 .22-.07.3-.16a.5.5 0 0 0 .12-.34v-.08a.42.42 0 0 0-.43-.42H20ZM26 32v.99h-3V29l.01-.01H26v1h-2v.54h1.18l.01.01v.84H24V32h2ZM29.66 32v1H27v-4H28v3h1.66ZM35.54 31v.15c-.01.25-.06.48-.15.71a1.76 1.76 0 0 1-1.47 1.12l-.43.02a272.78 272.78 0 0 1-1.5-.01V29L32 29a270.94 270.94 0 0 1 1.92.02c.65.09 1.21.45 1.47 1.11a2.25 2.25 0 0 1 .15.87ZM33 30v2h.6c.53 0 .91-.4.91-.9v-.2c0-.5-.38-.9-.9-.9H33ZM42.68 30.84a60.78 60.78 0 0 1-.67 2.16h-.85v-.02l-1.27-3.97a.01.01 0 0 1 0-.01h1.08l.33 1.21c.12.4.22.86.3 1.23.01.02.02.02.02 0l.74-2.43.02-.01H43v.02l.78 2.45c0 .02 0 .02 0 0l.66-2.46.02-.01h1.04v.02l-1.26 3.97h-.86l-.68-2.15c0-.02-.01-.02-.02 0ZM48.12 30.72l.35.5c0 .02.03.01.03 0V29h1v4H48.55a1419.68 1419.68 0 0 0-1.53-2.22c0-.02-.03-.01-.03 0V33h-1v-4H46.95l1.18 1.72Z" fill="#1D1D1B"/></svg>