<!-- by TradeStack --><svg viewBox="0 0 56 56" xmlns="http://www.w3.org/2000/svg"><path fill="#F0F3FA" d="M0 0h56v56H0z"/><path d="M28.04 32.48a4.48 4.48 0 1 0 .01-8.96 4.48 4.48 0 0 0 0 8.96Z" fill="#005FC5"/><path d="m41 39.03-4.46-4.45a10.72 10.72 0 0 0-6.2-17.06 10.78 10.78 0 0 0-12.01 5.88 10.71 10.71 0 0 0 9.71 15.34v-2.69a8.1 8.1 0 0 1-7.93-6.46 8.05 8.05 0 0 1 4.79-9.03 8.1 8.1 0 0 1 11.18 8.15 8.06 8.06 0 0 1-2.28 4.93l-1 1 3.03 4.3a13.47 13.47 0 0 1-21.2-12.06 13.4 13.4 0 0 1 8.79-11.48 13.47 13.47 0 0 1 14.13 3.12l2.54-2.54a17.05 17.05 0 0 0-29.03 10.65 16.97 16.97 0 0 0 8.61 16.18A17.07 17.07 0 0 0 41 39.03Z" fill="url(#a)"/><defs><linearGradient id="a" x1="39.68" y1="16.37" x2="13.81" y2="36.48" gradientUnits="userSpaceOnUse"><stop stop-color="#94CC00"/><stop offset=".16" stop-color="#9ACD00"/><stop offset=".39" stop-color="#ADD000"/><stop offset=".66" stop-color="#CCD500"/><stop offset=".96" stop-color="#F6DD00"/><stop offset="1" stop-color="#FCDE00"/></linearGradient></defs></svg>