<!-- by TradeStack --><svg viewBox="0 0 56 56" xmlns="http://www.w3.org/2000/svg"><path fill="#F0F3FA" d="M0 0h56v56H0z"/><path d="m52 30.57-.24-.58c-.37.2-.8.31-1.22.32-.87.01-1.54-.78-1.54-1.83 0-1 .65-1.82 1.6-1.82.45 0 .9.12 1.28.36l.02-.75a2.98 2.98 0 0 0-1.32-.27A2.44 2.44 0 0 0 48 28.54c0 1.4.83 2.46 2.42 2.46.55 0 1.1-.15 1.58-.43m-4.33.43v-.74H46V26h-1v5h2.67ZM43 27.62c-.01.45-.14.94-.83.94H42v-1.84h.14c.68 0 .86.54.86.9m1-.03c0-1-.7-1.59-1.79-1.59H41v5h1v-1.8h.11c1.38 0 1.9-.87 1.9-1.6Z" fill="#66758B"/><path d="M38.05 25h-4.73v1H35v5h1.22v-5h1.55l.28-1Zm-6.45 1.85a.93.93 0 0 1-.26.66.87.87 0 0 1-.63.26h-.5V26h.5c.57 0 .89.4.89.86M33.46 31c-.87-1.53-1.43-2.54-1.72-2.71v-.01a1.72 1.72 0 0 0 1.05-1.56c0-.93-.56-1.72-2.1-1.72H29v6h1.2v-2.31h.45c.21.08.56.75 1.44 2.31h1.37ZM27.06 28.01c0 1.28-.72 2.01-1.7 2.01-.99 0-1.74-.73-1.74-2.01 0-1.28.73-2.01 1.73-2.01s1.71.75 1.71 2.01Zm1.28-.03c0-.81-.25-1.54-.73-2.07a3 3 0 0 0-2.26-.9 2.92 2.92 0 0 0-2.98 3.04c0 .9.33 1.7.93 2.24.5.46 1.2.7 2.06.7a2.97 2.97 0 0 0 2.17-.86c.53-.53.81-1.3.81-2.15M21.2 31v-6H20v2.41h-2.8V25H16v6h1.2v-2.54H20V31h1.2Zm-7.01-2.99c0 1.28-.73 2.01-1.71 2.01s-1.73-.73-1.73-2.01c0-1.28.73-2.01 1.73-2.01s1.7.75 1.7 2.01Zm1.27-.03c0-.81-.24-1.54-.73-2.07a2.99 2.99 0 0 0-2.25-.9 2.92 2.92 0 0 0-2.98 3.04c0 .9.32 1.7.92 2.24.51.46 1.21.7 2.06.7a2.96 2.96 0 0 0 2.18-.86c.53-.53.8-1.3.8-2.15m-6.54 2.43-.33-.86c-.44.26-.93.4-1.44.4-1.14 0-1.85-.88-1.85-2 0-1 .6-1.96 1.96-1.96.5 0 1.01.14 1.45.4l.02-1.08a3.42 3.42 0 0 0-1.51-.3C5.24 25 4 26.36 4 28.03 4 29.7 5.07 31 6.96 31c.7 0 1.37-.21 1.96-.6Z" fill="#E11837"/></svg>