<!-- by TradeStack --><svg viewBox="0 0 56 56" xmlns="http://www.w3.org/2000/svg"><path fill="#0B233F" d="M0 0h56v56H0z"/><path d="M9.52 31C7.19 31 6 29.23 6 27c0-2.32 1.3-4 3.75-4 .75 0 1.55.12 2.25.4v2h-.91c-.1-.43-.12-.98-.34-1.37-.2-.34-.87-.4-1.22-.4-1.74 0-2.03 2.03-2.03 3.37 0 1.36.3 3.38 2.06 3.38 1.19 0 2.94-.38 3.94-1.38l.39.6c-.9.94-3.08 1.4-4.37 1.4Z" fill="#FFFEFE"/><path d="M14.5 31c-.84 0-1.5-.55-1.5-1.42 0-1.12 1.08-1.56 2.04-1.64l1.23-.1v.58l-.98.08c-.7.06-1.02.37-1.02.96 0 .47.23.74.7.74.5 0 1-.24 1.3-.63l.11.3A2.08 2.08 0 0 1 14.51 31Zm-1.35-4.74c.3-.9 1.27-1.26 2.15-1.26 1.32 0 1.7.7 1.7 2.1v2.77c0 .2.32.31.5.33l.5.06v.53c-.31.09-.63.18-.96.18-.57 0-.96-.41-1.04-.96v-2.8c0-.74-.25-1.29-1.05-1.29-.55 0-1.08.2-1.5.64l-.3-.3ZM21 30.04c0 .17.2.26.36.29l.64.1V31h-2.97v-.58l.63-.1c.17-.02.34-.12.34-.28v-6.8c0-.18-.17-.28-.34-.3l-.66-.1v-.54c.28-.09.6-.16.97-.2.37-.06.56-.1.85-.1l.18.2v7.84ZM38 30.04c0 .17.2.26.36.29l.64.1V31h-2.97v-.58l.63-.1c.17-.02.34-.12.34-.28v-6.8c0-.18-.17-.28-.34-.3l-.66-.1v-.54c.28-.09.6-.16.97-.2.37-.06.56-.1.85-.1l.18.2v7.84ZM23 28c0-1.79 1.18-3 3-3 .64 0 1.42.22 2 .5V27h-.5c0-1-.94-1.36-1.6-1.36-.85 0-1.9.84-1.9 2.36s1.07 2.14 2.17 2.14c.54 0 1.07-.2 1.48-.55l.35.27c-.33.69-1.1 1.14-2.25 1.14-1.71 0-2.75-1.34-2.75-3ZM33.33 29.97a2.25 2.25 0 0 1-1.9 1.03c-1.16 0-1.43-.69-1.43-2.05v-2.7c0-.38-.72-.35-1-.41v-.58a7.38 7.38 0 0 1 1.83-.26l.17.2v3.56c0 .68.09 1.44.93 1.44.45 0 .9-.18 1.26-.56l.14.33Zm1.67.82c-.3.1-.51.21-1 .21-.6 0-.91-.51-.99-1.05l-.01-3.7c0-.41-.56-.37-.85-.42v-.58a5.5 5.5 0 0 1 1.7-.25l.15.2v4.3c0 .5.36.69.49.7l.51.06v.53ZM43.33 29.97a2.25 2.25 0 0 1-1.9 1.03c-1.16 0-1.43-.69-1.43-2.05v-2.7c0-.38-.72-.35-1-.41v-.58a7.38 7.38 0 0 1 1.83-.26l.17.2v3.56c0 .68.09 1.44.93 1.44.45 0 .9-.18 1.26-.56l.14.33Zm1.67.82c-.3.1-.51.21-1 .21-.6 0-.91-.51-.99-1.05l-.01-3.7c0-.41-.56-.37-.85-.42v-.58a5.5 5.5 0 0 1 1.7-.25l.15.2v4.3c0 .5.36.69.49.7l.51.06v.53ZM46 30.5V29h.68c.08.34.11.93.4 1.16.27.15.55.26.86.26.65 0 1.22-.75.7-1.31-.1-.13-.26-.25-.47-.36l-.74-.37c-.73-.35-1.34-.8-1.34-1.68 0-1.14.94-1.7 2-1.7.54 0 1.12.1 1.62.33.02.5 0 1.5 0 1.5h-.67l-.17-.7c-.1-.39-.46-.54-.85-.57-.47 0-.83.3-.83.78 0 .65.66.87 1.16 1.08.83.37 1.65.85 1.65 1.87 0 1.17-1.06 1.71-2.12 1.71-.37 0-.71-.05-1.04-.14-.32-.09-.62-.26-.84-.36Z" fill="#FFFEFE"/><path d="M17.74 36c-.25 0-.48-.04-.7-.1-.2-.08-.39-.19-.55-.32-.15-.14-.27-.3-.36-.48a1.36 1.36 0 0 1-.13-.6 1.36 1.36 0 0 1 .5-1.07c.16-.14.34-.24.55-.32.21-.07.45-.11.7-.11.25 0 .49.04.7.12.22.07.4.19.55.34l-.3.26a1.2 1.2 0 0 0-.43-.26 1.56 1.56 0 0 0-1.02 0c-.16.05-.3.13-.41.23a1.06 1.06 0 0 0-.37.8c0 .17.03.32.1.46.06.14.15.26.27.36.11.1.25.18.4.23a1.56 1.56 0 0 0 1.03 0c.16-.06.3-.14.42-.26l.31.26c-.15.15-.33.26-.55.34-.21.08-.45.12-.7.12ZM20 36l1.3-3h.4l1.3 3h-.43l-1.16-2.76h.17L20.42 36H20Zm.55-.75.11-.34h1.61l.12.34h-1.84ZM24 36v-3h1.45c.33 0 .6.04.83.12.23.09.41.2.53.36.13.16.19.35.19.57 0 .21-.06.4-.19.56-.12.15-.3.27-.53.36-.23.08-.5.12-.83.12h-1.16l.24-.2V36H24Zm.53-1.07-.24-.21h1.14c.34 0 .6-.06.77-.18a.56.56 0 0 0 .27-.5.56.56 0 0 0-.27-.5 1.38 1.38 0 0 0-.77-.17H24.3l.24-.21v1.77ZM28 36v-3h.45v3H28ZM30.7 36v-2.63h-1.25V33h3v.37h-1.24V36h-.52ZM33.45 36l1.3-3h.4l1.3 3h-.43l-1.16-2.76h.17L33.87 36h-.42Zm.66-1 .11-.34h1.61l.12.34h-1.84ZM37.55 36v-3H38v2.56h1.7V36h-2.15Z" fill="#FFFDFD"/></svg>