<!-- by TradeStack --><svg viewBox="0 0 56 56" xmlns="http://www.w3.org/2000/svg"><path fill="#F0F3FA" d="M0 0h56v56H0z"/><path d="m25 22.13-3.03 3.05c-.2-.28-.39-.58-.62-.85-1.6-1.84-3.6-2.55-5.93-1.9a5.5 5.5 0 0 0-4.12 4.48 5.75 5.75 0 0 0 2.72 6.05 5.6 5.6 0 0 0 6.6-.59c1.04-.94 2-1.99 2.99-3l10.74-10.8.11-.1 2.95 3-2.7 2.71c-3.63 3.65-7.2 7.36-10.9 10.94-3.03 2.94-6.65 3.6-10.56 2.1a9.49 9.49 0 0 1-5.88-6.6 9.98 9.98 0 0 1 5.35-11.67 9.82 9.82 0 0 1 11.13 1.9c.4.39.76.85 1.14 1.28Z" fill="#274072"/><path d="m40.48 23.5 2.98 3.14L32.52 38h-5.97l13.93-14.5ZM45.98 28.65 37.16 38h5.97L49 31.78l-3.02-3.13Z" fill="#F9E118"/></svg>