<!-- by TradeStack --><svg viewBox="0 0 56 56" xmlns="http://www.w3.org/2000/svg"><path fill="#16243E" d="M0 0h56v56H0z"/><path d="m17 18 .82-2c4.2 1.56 8.18 5.41 8.18 10v14h-2V26.63c0-4.1-3.27-7.25-7-8.63Z" fill="url(#anrkj1in5)"/><path d="m10 18 .45-2C14.32 17.5 23 21.38 23 26.63V40h-2V27.5c0-4.61-7.73-8.24-11-9.5Z" fill="url(#bnrkj1in5)"/><path d="m39 18-.82-2c-4.2 1.56-8.18 5.37-8.18 9.95V40h2V26.63c0-4.1 3.27-7.25 7-8.63Z" fill="url(#cnrkj1in5)"/><path d="m46 18-.45-2C41.68 17.5 33 21.38 33 26.63V40h2V27.5c0-4.61 7.73-8.24 11-9.5Z" fill="url(#dnrkj1in5)"/><path d="M27 16v24h2V16h-2Z" fill="url(#enrkj1in5)"/><defs><linearGradient id="anrkj1in5" x1="28" y1="16" x2="28" y2="43.59" gradientUnits="userSpaceOnUse"><stop stop-color="#C39627"/><stop offset="1" stop-color="#A64E3F"/></linearGradient><linearGradient id="bnrkj1in5" x1="28" y1="16" x2="28" y2="43.59" gradientUnits="userSpaceOnUse"><stop stop-color="#C39627"/><stop offset="1" stop-color="#A64E3F"/></linearGradient><linearGradient id="cnrkj1in5" x1="28" y1="16" x2="28" y2="43.59" gradientUnits="userSpaceOnUse"><stop stop-color="#C39627"/><stop offset="1" stop-color="#A64E3F"/></linearGradient><linearGradient id="dnrkj1in5" x1="28" y1="16" x2="28" y2="43.59" gradientUnits="userSpaceOnUse"><stop stop-color="#C39627"/><stop offset="1" stop-color="#A64E3F"/></linearGradient><linearGradient id="enrkj1in5" x1="28" y1="16" x2="28" y2="43.59" gradientUnits="userSpaceOnUse"><stop stop-color="#C39627"/><stop offset="1" stop-color="#A64E3F"/></linearGradient></defs></svg>