<!-- by TradeStack --><svg viewBox="0 0 56 56" xmlns="http://www.w3.org/2000/svg"><path fill="url(#a)" d="M0 0h56v56H0z"/><path d="M28.4 44C19.36 44 12 36.82 12 28s7.36-16 16.4-16a2.64 2.64 0 0 1 2.66 2.6c0 1.43-1.2 2.6-2.66 2.6-6.1 0-11.07 4.84-11.07 10.8 0 5.96 4.96 10.8 11.07 10.8 3.12 0 6.1-1.3 8.2-3.54 1-1.08 1.75-2.3 2.24-3.68A2.67 2.67 0 0 1 42.23 30a2.57 2.57 0 0 1 1.61 3.3 15.7 15.7 0 0 1-3.32 5.45A16.5 16.5 0 0 1 28.4 44Z" fill="url(#b)"/><path d="M39.9 23.7c-.89 0-1.78-.45-2.28-1.27a11.15 11.15 0 0 0-11.05-5.12c-1.44.2-2.8-.78-3-2.2a2.6 2.6 0 0 1 2.26-2.94 16.52 16.52 0 0 1 16.38 7.59 2.55 2.55 0 0 1-.91 3.56c-.44.25-.92.38-1.4.38Z" fill="url(#c)"/><defs><linearGradient id="a" x1="10.42" y1="9.71" x2="68.15" y2="76.02" gradientUnits="userSpaceOnUse"><stop stop-color="#1A1E21"/><stop offset="1" stop-color="#06060A"/></linearGradient><linearGradient id="b" x1="19.7" y1="14.31" x2="33" y2="43.56" gradientUnits="userSpaceOnUse"><stop offset=".08" stop-color="#fff" stop-opacity="0"/><stop offset=".8" stop-color="#fff"/></linearGradient><linearGradient id="c" x1="27.51" y1="14.21" x2="39.82" y2="24.11" gradientUnits="userSpaceOnUse"><stop offset=".2" stop-color="#fff"/><stop offset=".9" stop-color="#fff" stop-opacity="0"/></linearGradient></defs></svg>