<!-- by TradeStack --><svg viewBox="0 0 56 56" xmlns="http://www.w3.org/2000/svg"><path fill="#0A1464" d="M0 0h56v56H0z"/><path d="M48 33.87c0 .56-.56 1.13-1.2 1.13-.37 0-.75-.16-.97-.45l-3.17-3.83-3.16 3.86c-.24.27-.6.42-.97.42-.7 0-1.2-.56-1.2-1.17 0-.27.1-.55.3-.78l3.47-4.14-3.28-3.97a1.22 1.22 0 0 1-.32-.8c0-.61.57-1.14 1.24-1.14.35 0 .7.14.93.42l2.98 3.68 3.01-3.65c.25-.31.63-.45 1-.45.67 0 1.2.54 1.2 1.14 0 .29-.11.58-.32.83l-3.27 3.95 3.42 4.14c.18.23.31.53.31.81ZM32.22 23a9.6 9.6 0 0 0-3.55.66c-.63.27-.81.7-.81 1.07 0 .68.67 1.18 1.7.88a7.94 7.94 0 0 1 2.52-.48c1.82 0 2.57.64 2.57 2.12v.71a12.33 12.33 0 0 0-2.95-.37c-3.24 0-4.7 1.72-4.7 3.63 0 2.14 1.57 3.78 4.75 3.78 2.41 0 4.17-.8 4.81-1.22.36-.22.44-.46.44-.84v-5.7c.03-2.96-1.81-4.24-4.78-4.24Zm2.43 9.29c-.22.17-1.1.67-2.7.67-1.64 0-2.55-.66-2.55-1.84 0-1.04 1.03-1.64 2.43-1.64 1.04 0 1.78.14 2.81.37l.01 2.44ZM25.83 25.45c-.42 0-.97-.21-1.75-.2-1.1.03-1.61.55-1.61 1.77v6.81c0 .67-.56 1.17-1.26 1.17A1.2 1.2 0 0 1 20 33.83v-7.18C20 24.4 21.37 23 23.91 23c.79 0 1.64.1 2.12.24.7.2.96.58.96 1.11.01.49-.34 1.1-1.16 1.1ZM16.82 19c-.64 0-1.32.54-1.32 1.2v3.31a6.62 6.62 0 0 0-2.73-.51c-2.85 0-4.48 1.57-4.72 4.31-.07.8-.07 2.37 0 3.14.24 2.72 2.06 4.55 5.03 4.55 2.14 0 3.93-.95 4.5-1.37.35-.24.42-.48.42-.88V20.2A1.2 1.2 0 0 0 16.82 19ZM15.5 31.95c-.44.33-1.45.79-2.4.79-1.7 0-2.6-.89-2.74-2.59-.06-.68-.04-2 0-2.58.1-1.6.9-2.45 2.57-2.45 1.15 0 2.1.4 2.57.68v6.15Z" fill="#fff"/></svg>