<!-- by TradeStack --><svg viewBox="0 0 56 56" xmlns="http://www.w3.org/2000/svg"><path fill="#F0F3FA" d="M0 0h56v56H0z"/><path d="M52 32v-8h-7.17l3.26 8H52Z" fill="url(#astjhgfxn)"/><path d="M5 24v8h5.64v-1.44H6.5v-1.92H10v-1.4H6.5v-1.8h4V24H5Zm7 4c0-2.33 1.69-4 3.96-4 1.26 0 2.3.49 3 1.37l-1.09 1.06a2.3 2.3 0 0 0-1.83-.9c-1.36 0-2.33 1.01-2.33 2.47 0 1.46.97 2.48 2.33 2.48.73 0 1.34-.31 1.83-.92l1.08 1.06a3.65 3.65 0 0 1-3 1.38A3.85 3.85 0 0 1 12 28Zm14.33 0c0-1.47-.98-2.48-2.28-2.48-1.3 0-2.28 1.01-2.28 2.48s.98 2.48 2.28 2.48c1.3 0 2.28-1.01 2.28-2.48Zm-6.27 0c0-2.3 1.69-4 3.99-4 2.29 0 3.98 1.7 3.98 4s-1.7 4-3.98 4c-2.3 0-3.99-1.7-3.99-4Zm13.03-2.4H31.7v2.69h1.38c1.03 0 1.55-.51 1.55-1.35 0-.85-.52-1.35-1.55-1.35Zm1.58 6.4-1.4-2.29H31.7V32h-1.68v-8h3.15c1.95 0 3.16 1.2 3.16 2.94 0 1.16-.55 2.01-1.5 2.44L36.49 32h-1.81Zm9.01-3-1.15-3.11L41.37 29h2.31Zm.53 1.37h-3.38L40.2 32h-1.73l3.25-8h1.66l3.26 8h-1.77l-.65-1.63Z" fill="#141A68"/><defs><linearGradient id="astjhgfxn" x1="48.42" y1="24" x2="48.42" y2="32" gradientUnits="userSpaceOnUse"><stop stop-color="#16A8CE"/><stop offset="1" stop-color="#344466"/></linearGradient></defs></svg>