<!-- by TradeStack --><svg viewBox="0 0 56 56" xmlns="http://www.w3.org/2000/svg"><path fill="#F0F3FA" d="M0 0h56v56H0z"/><path fill-rule="evenodd" d="M43.01 34.22a.08.08 0 0 0-.07-.05H41.8a.16.16 0 0 0-.16.1l-.26.62a.17.17 0 0 1-.16.11h-.14c-.07 0-.1-.03-.07-.1l1.16-2.8a.1.1 0 0 1 .06-.06c.15-.05.26-.05.34 0 .04.04.1.13.15.28l.03.08.95 2.47c.03.08 0 .12-.09.12h-.16a.17.17 0 0 1-.17-.11l-.27-.66Zm-1.2-.38.52-1.26.03-.02c.01 0 .02 0 .02.02l.5 1.27c0 .02 0 .03-.03.03h-1c-.03 0-.04-.02-.03-.04Zm-11.08.82h-1.28c-.05 0-.07-.03-.07-.07v-.95c0-.05.02-.07.07-.07h1c.05 0 .08-.02.08-.07v-.16c0-.04-.03-.07-.07-.07h-1.02c-.05 0-.07-.02-.07-.07v-.82c0-.04.02-.07.07-.07h1.2c.04 0 .06-.02.06-.07v-.17c0-.05-.02-.07-.07-.07h-1.56c-.05 0-.07.02-.07.07v2.86c0 .05.02.07.07.07h1.66c.04 0 .07-.02.07-.07v-.2c0-.05-.03-.07-.07-.07Zm2.18-.23c-.1.18-.3.27-.6.27s-.5-.1-.6-.27a1.4 1.4 0 0 1-.1-.65v-1.69c0-.06-.04-.09-.1-.09h-.17c-.06 0-.1.03-.1.1-.02.9-.02 1.6.01 2.09.03.54.38.81 1.06.81s1.03-.27 1.06-.81c.02-.5.03-1.19 0-2.1 0-.06-.03-.09-.1-.09h-.16c-.06 0-.1.03-.1.1v1.68c0 .3-.03.53-.1.65Zm5.53.1c.2-.27.3-.6.3-1.03 0-.42-.1-.76-.3-1.03a1.14 1.14 0 0 0-.98-.47c-.43 0-.76.16-.98.47-.2.27-.3.6-.3 1.03 0 .42.1.76.3 1.03.22.31.55.47.98.47.43 0 .76-.16.98-.47Zm-.98.2c-.48 0-.88-.55-.88-1.23 0-.67.4-1.22.88-1.22s.88.54.88 1.22c0 .68-.4 1.22-.88 1.23Zm-2.2-1.07c.22.28.46.69.72 1.23.03.07 0 .1-.07.1h-.2a.2.2 0 0 1-.19-.1l-.15-.3c-.18-.35-.34-.6-.48-.78-.09-.11-.24-.15-.45-.11-.04 0-.06.02-.06.06v1.13c0 .07-.03.11-.11.11h-.14c-.09 0-.13-.04-.13-.13v-2.8c0-.05.02-.07.06-.07h.98c.23.02.4.09.55.22.12.12.2.27.21.45a.87.87 0 0 1-.1.52.98.98 0 0 1-.42.4c-.03.02-.04.05-.02.07Zm-.87-1.31c0-.03.01-.04.04-.04h.39c.16 0 .3.05.41.15.12.1.17.23.17.38v.02a.5.5 0 0 1-.17.38.59.59 0 0 1-.41.16h-.39c-.03 0-.04-.01-.04-.04v-1.01Zm5 2.52v-.99c0-.03.02-.05.05-.05a4.7 4.7 0 0 0 .83-.1.85.85 0 0 0 .54-.46c.14-.31.15-.59.03-.84-.14-.27-.38-.4-.74-.42h-1.02c-.05 0-.08.02-.08.08v2.8c0 .07.04.11.11.11h.15c.09 0 .13-.04.13-.13Zm.02-2.57c-.01 0-.02 0-.02.02v1.15c0 .02 0 .02.02.02h.5a.57.57 0 0 0 .58-.55v-.08a.52.52 0 0 0-.16-.4.57.57 0 0 0-.41-.16h-.5ZM33.09 36h.15c.05 0 .09.04.09.09v2.82c0 .05-.04.09-.08.09h-.16a.09.09 0 0 1-.08-.09L33 36.1c0-.05.04-.09.09-.09Zm7.31 1.81h.54c.04 0 .06.02.06.06v.67c0 .04-.01.06-.05.07-.14.06-.31.1-.52.1a.84.84 0 0 1-.75-.37 1.4 1.4 0 0 1-.25-.85c0-.34.08-.62.25-.84a.84.84 0 0 1 .77-.35c.25.02.42.1.5.25.06.1.15.14.27.13l.04-.01c.13-.02.16-.08.1-.18a.98.98 0 0 0-.79-.48c-.44-.04-.79.04-1.06.26-.25.2-.41.5-.48.9-.1.7.05 1.2.45 1.53.41.33 1 .39 1.74.16.11-.03.17-.09.17-.17v-1.13c0-.04-.02-.05-.05-.05h-.96c-.07 0-.1.03-.1.1v.09c0 .07.04.11.12.11ZM32.3 36h-.2c-.06 0-.1.05-.1.1v.18c0 .05.05.09.1.09h.2c.05 0 .1-.05.1-.1v-.18c0-.05-.05-.1-.1-.09Zm-2 0c.43 0 .76.16 1 .47.19.27.29.61.28 1.03 0 .42-.1.77-.3 1.03-.22.31-.55.47-1 .47-.43 0-.76-.16-.99-.47A1.7 1.7 0 0 1 29 37.5c0-.42.1-.77.3-1.03.22-.31.56-.47 1-.47Zm-.9 1.51c0 .68.4 1.23.9 1.23s.89-.56.89-1.24c0-.67-.4-1.22-.9-1.22s-.9.55-.89 1.23Zm15.36-.02c-.04.12.03.2.2.26l.65.18c.28.06.4.22.39.47-.03.38-.31.58-.84.6-.38.01-.66-.1-.83-.35-.08-.11-.06-.18.07-.2.12-.03.21 0 .28.07.1.14.24.2.4.22a.6.6 0 0 0 .39-.1c.1-.07.16-.15.15-.24-.01-.1-.1-.17-.28-.22-.39-.1-.61-.18-.68-.2a.42.42 0 0 1-.27-.29.45.45 0 0 1 .04-.36.6.6 0 0 1 .33-.25c.14-.05.3-.08.47-.08.18 0 .33.04.46.1.14.08.22.18.25.31 0 .03 0 .06-.03.08a.1.1 0 0 1-.08.03.64.64 0 0 1-.3-.13.63.63 0 0 0-.15-.09.64.64 0 0 0-.36-.02c-.14.03-.22.1-.26.2ZM32.08 37h.22c.04 0 .08.03.08.07v1.85c0 .05-.03.08-.08.08h-.21c-.05 0-.08-.03-.08-.08L32 37.08c0-.05.04-.08.08-.08Zm4.76 1.14-.58-.81c-.02-.03-.01-.06.02-.08.19-.1.34-.24.45-.42.13-.22.14-.4.03-.55-.15-.21-.37-.3-.66-.28-.28.03-.47.16-.59.39-.1.2-.04.44.17.7.04.06.03.1-.03.14a1.3 1.3 0 0 0-.55.54.75.75 0 0 0-.01.72c.15.3.4.47.77.5.34.04.65-.05.92-.26.04-.04.08-.03.1.02.05.09.13.14.25.16a1.45 1.45 0 0 0 .43-.01v-.03l-.4-.36c-.04-.04-.05-.1-.01-.14.2-.27.31-.59.32-.96 0-.07-.04-.1-.11-.1h-.16c-.07 0-.1.03-.1.1.01.26-.04.5-.15.72a.06.06 0 0 1-.05.03c-.03 0-.05 0-.06-.02Zm-.95-1.66a.23.23 0 0 1 .12-.15.35.35 0 0 1 .36.01c.12.07.15.18.09.3a.65.65 0 0 1-.34.34c-.03.02-.06.01-.08-.02-.15-.17-.2-.34-.15-.48Zm.73 1.99v.03l-.11.07a.84.84 0 0 1-.55.13.6.6 0 0 1-.45-.25l-.02-.02a.52.52 0 0 1-.07-.48.74.74 0 0 1 .33-.43l.11-.06h.04l.72 1.01Zm6.72.32c0-.02-.01-.02-.03-.03h-.03c-.15.1-.27.16-.35.2a.86.86 0 0 1-.46.02.64.64 0 0 1-.34-.18.43.43 0 0 1-.13-.32c0-.13.06-.25.18-.37.1-.1.35-.19.77-.27l.33-.07c.03 0 .04-.02.05-.05a.36.36 0 0 0-.02-.26.35.35 0 0 0-.23-.18c-.3-.1-.53 0-.66.25-.02.03-.04.04-.08.04h-.2c-.06 0-.1-.02-.09-.08 0-.2.15-.34.43-.42.23-.07.47-.09.71-.05.22.04.37.12.44.24.05.09.08.24.08.47v.85c0 .1.02.2.05.3.01.03 0 .04-.03.05-.23.07-.37.02-.4-.14Zm-.54-.02c-.1.02-.2 0-.29-.09-.1-.08-.13-.17-.1-.26.06-.19.35-.32.87-.4.03 0 .05.01.05.04.04.37-.14.6-.53.7Z" fill="#DF282D"/><path d="M25.58 13.12c0-.08-.02-.12-.08-.12-.05 0-.07.04-.07.12a.8.8 0 0 1 0 .25c-.01.02-.02.03-.04.03l-.47.19a.05.05 0 0 1-.06-.02l-.2-.2h-.1a.05.05 0 0 0-.03.05c0 .02 0 .03.02.05l.2.2c.03.02.03.04.02.06l-.2.47c0 .03-.03.04-.06.04h-.3c-.02 0-.03.02-.03.04v.05c0 .04.02.05.05.05h.3c.02 0 .04.02.05.04l.19.47c0 .03 0 .05-.02.06l-.2.21a.05.05 0 0 0-.02.05c0 .02.01.03.03.04h.03c.03.02.05.02.07 0l.2-.2c.03-.03.06-.04.09-.02.12.08.25.14.38.17.08.01.12.06.1.14-.01.2 0 .29.08.29.06 0 .09-.1.07-.29-.01-.08.02-.13.1-.14.13-.03.26-.09.38-.17.03-.01.06-.01.09.01l.2.2c.02.02.05.03.08.02l.02-.01c.02-.01.03-.02.03-.04l-.01-.05-.21-.2c-.02-.02-.02-.05-.01-.07l.19-.47c0-.02.02-.04.05-.04h.29c.03 0 .05-.02.05-.05v-.05c0-.03 0-.04-.03-.04h-.3a.07.07 0 0 1-.07-.04l-.19-.47.01-.05.22-.21a.05.05 0 0 0 .01-.05.05.05 0 0 0-.03-.04l-.04-.02c-.02 0-.04 0-.06.02l-.2.2a.05.05 0 0 1-.06 0l-.47-.18a.06.06 0 0 1-.03-.03.81.81 0 0 1-.01-.25Zm4.78 0c0-.08-.02-.12-.07-.12s-.08.04-.07.12l-.01.25c0 .01-.02.03-.04.03l-.47.19a.05.05 0 0 1-.06-.02l-.2-.2h-.09a.05.05 0 0 0-.03.05l.01.05.21.2c.02.02.02.04.01.06l-.19.47a.07.07 0 0 1-.06.04H29c-.02 0-.04.01-.04.04v.05c0 .03.02.05.06.05h.29c.03 0 .04.01.05.04l.2.47c0 .02 0 .04-.02.06l-.21.2a.05.05 0 0 0-.02.06c0 .01.02.03.04.03l.02.01c.03.02.06.01.08-.01l.2-.2c.03-.03.05-.03.08-.01.12.08.25.13.39.16.08.02.11.07.1.15-.02.19 0 .28.07.28s.1-.1.07-.29c0-.07.03-.12.1-.14.14-.03.27-.08.39-.16.03-.02.05-.02.08 0l.2.2c.02.03.05.03.08.02h.02l.04-.05c0-.02 0-.03-.02-.04l-.21-.21c-.02-.02-.02-.04-.01-.06l.19-.47c0-.03.02-.04.05-.04h.29c.03 0 .05-.02.05-.06v-.05c0-.02 0-.03-.03-.03h-.3c-.03 0-.05-.02-.06-.04l-.2-.47.01-.05.22-.21a.05.05 0 0 0 .01-.05.05.05 0 0 0-.03-.04l-.04-.02c-.02 0-.04 0-.05.02l-.2.2a.05.05 0 0 1-.07 0l-.46-.18a.06.06 0 0 1-.04-.03.8.8 0 0 1-.01-.25Zm-11.15 2.5c0-.05.04-.07.12-.07l.26-.01c.01 0 .03-.02.03-.04l.19-.46a.05.05 0 0 0-.01-.06l-.2-.2c-.02-.02-.03-.04-.02-.06l.02-.03c0-.02.02-.03.04-.03l.05.01.21.21c.02.02.04.02.06.01l.47-.19c.03 0 .05-.03.05-.06v-.3c0-.02 0-.03.03-.03h.05c.04 0 .06.02.06.06v.28c0 .03.01.04.04.05l.48.19c.02.01.04 0 .06-.01l.21-.21a.05.05 0 0 1 .05-.02c.02 0 .03.02.04.04l.01.02c.01.03 0 .06-.01.08l-.2.2c-.03.02-.04.05-.02.08.08.12.14.25.17.38.01.08.06.11.14.1.2-.02.3 0 .3.07s-.1.1-.3.07c-.08 0-.13.03-.14.1-.03.14-.09.26-.17.38-.02.03-.01.06.01.08l.2.2c.03.03.03.05.02.08l-.01.03c0 .01-.02.03-.04.03s-.03 0-.05-.02l-.2-.2c-.03-.02-.05-.03-.07-.02l-.48.19a.05.05 0 0 0-.04.05v.29c0 .03-.02.05-.06.05h-.05c-.02 0-.03 0-.03-.03v-.3c0-.03-.02-.05-.05-.06l-.47-.2c-.02 0-.04 0-.06.02l-.21.2a.05.05 0 0 1-.05.02.05.05 0 0 1-.05-.03v-.03c-.02-.02-.01-.04 0-.06l.2-.2a.05.05 0 0 0 .02-.06l-.19-.46a.06.06 0 0 0-.03-.04.85.85 0 0 0-.26 0c-.08 0-.12-.03-.12-.08Zm15.64-.93c0-.08-.02-.12-.07-.12s-.08.04-.07.12a.8.8 0 0 1-.01.25c0 .02-.02.03-.04.04l-.46.18a.05.05 0 0 1-.07-.01l-.2-.2a.05.05 0 0 0-.06-.01l-.03.01a.05.05 0 0 0-.03.04l.01.05.21.21c.02.02.02.03.02.05l-.2.47a.07.07 0 0 1-.06.04h-.3c-.02 0-.04.02-.04.04v.05c0 .04.02.06.06.06h.29c.03 0 .04 0 .05.03l.2.47c0 .03 0 .05-.02.07l-.21.2a.05.05 0 0 0-.01.05c0 .02 0 .03.03.04h.02c.03.02.06.02.08 0l.2-.2c.03-.03.06-.03.08-.01.13.07.25.13.39.16.08.01.11.06.1.14-.02.2 0 .29.07.29s.1-.1.07-.29c0-.08.03-.13.1-.14.14-.03.27-.09.39-.17.03-.02.06-.01.08.01l.2.2c.03.02.05.03.08.02l.03-.01c.02-.01.03-.02.03-.04l-.01-.05-.22-.2c-.01-.02-.02-.05 0-.07l.18-.47c.01-.02.03-.04.05-.04h.3c.03 0 .05-.02.05-.05v-.05c0-.03-.01-.04-.04-.04h-.3a.07.07 0 0 1-.06-.04l-.2-.47c0-.02 0-.04.02-.05l.21-.21a.05.05 0 0 0 .02-.05.05.05 0 0 0-.04-.04l-.03-.02c-.02 0-.04 0-.06.02l-.2.2a.05.05 0 0 1-.06 0l-.47-.17a.06.06 0 0 1-.04-.04.82.82 0 0 1 0-.25Zm-16.8 4.17c0 .05-.04.08-.12.07l-.25.01a.06.06 0 0 0-.04.04l-.18.45c-.01.03 0 .05.01.07l.2.2c.02 0 .02.03.01.05l-.01.03c0 .02-.02.03-.04.03l-.05-.01-.21-.2c-.02-.02-.04-.03-.06-.02l-.47.19c-.03.01-.04.03-.04.06v.3c0 .02-.01.03-.04.03h-.05c-.03 0-.05-.02-.05-.06v-.28c0-.02-.01-.04-.04-.05l-.47-.18c-.03-.01-.05 0-.07 0l-.2.21a.05.05 0 0 1-.05.02.05.05 0 0 1-.04-.03l-.01-.03a.06.06 0 0 1 .01-.07l.2-.2c.03-.03.03-.05.01-.08a1.09 1.09 0 0 1-.16-.38c-.02-.07-.07-.1-.15-.1-.19.02-.28 0-.28-.07 0-.06.1-.08.28-.06.08 0 .13-.03.15-.1.03-.14.08-.26.16-.38.02-.03.02-.06 0-.08l-.2-.2c-.03-.02-.04-.04-.02-.07v-.03c.01-.02.03-.03.05-.03l.04.01.21.21c.02.02.04.02.07.01l.47-.18c.02-.01.04-.03.04-.06v-.28c0-.03.01-.05.05-.05h.05c.03 0 .04.01.04.03v.3c0 .02.01.05.04.06l.47.19c.02 0 .04 0 .06-.02l.2-.2a.05.05 0 0 1 .06-.02c.02 0 .03.02.04.03l.01.04c.01.02 0 .04-.01.05l-.2.2a.05.05 0 0 0-.01.06l.18.46c0 .02.02.03.04.03.04.02.12.02.25.01.08 0 .12.02.12.07Zm20.54-1.2c0-.07-.02-.1-.07-.1s-.08.03-.07.1l-.01.26-.04.04-.47.18a.05.05 0 0 1-.06-.02l-.2-.2a.05.05 0 0 0-.06 0h-.03a.05.05 0 0 0-.03.05l.01.05.21.2c.02.02.02.04.01.06l-.19.47c0 .03-.03.04-.06.04h-.3c-.02 0-.04.01-.04.04v.05c0 .03.02.05.06.05h.29c.02 0 .04.01.05.04l.19.47c.01.02 0 .04-.01.06l-.21.2a.05.05 0 0 0-.02.05c0 .02.02.04.03.04l.03.01c.03.01.05.01.08-.01l.2-.2c.02-.03.05-.03.08 0 .12.07.25.12.38.15.08.02.12.07.1.14-.01.2.01.3.08.3.06 0 .09-.1.07-.3-.01-.07.02-.12.1-.14.13-.03.26-.08.38-.16.03-.02.06-.02.09.01l.2.2c.02.02.04.03.07.01h.03c.02-.01.03-.03.03-.05l-.01-.04-.21-.21c-.02-.02-.03-.04-.02-.06l.2-.47c0-.03.02-.04.05-.04h.28c.04 0 .06-.02.06-.05v-.05c0-.03-.01-.04-.04-.04h-.3a.07.07 0 0 1-.06-.04l-.19-.47.01-.05.21-.21a.05.05 0 0 0 .02-.05.05.05 0 0 0-.04-.04l-.03-.01h-.06l-.2.2a.05.05 0 0 1-.06.02l-.47-.18a.06.06 0 0 1-.03-.04.81.81 0 0 1-.01-.25ZM15.4 23.2c0 .06-.04.08-.12.08h-.26a.06.06 0 0 0-.03.04l-.19.46c0 .03 0 .05.02.06l.2.2c.01.02.02.04 0 .06v.03l-.04.04c-.02 0-.04 0-.05-.02l-.22-.21c-.01-.02-.03-.02-.05-.01l-.48.19c-.03.01-.04.03-.04.07v.29c0 .02-.01.03-.04.03h-.05c-.04 0-.05-.01-.05-.05v-.29a.05.05 0 0 0-.04-.05l-.48-.18h-.06l-.21.22a.05.05 0 0 1-.05.01.05.05 0 0 1-.04-.03l-.01-.03c-.01-.02 0-.05.01-.07l.2-.2c.03-.03.03-.05.01-.08a1.1 1.1 0 0 1-.16-.38c-.02-.08-.07-.11-.15-.1-.2.02-.29 0-.29-.07s.1-.1.3-.07c.07 0 .12-.03.14-.1.03-.14.08-.26.16-.38.02-.03.02-.06 0-.08l-.21-.2c-.02-.02-.03-.05-.01-.08v-.02l.04-.04c.02 0 .04 0 .05.02l.21.2c.02.02.04.03.07.02l.48-.19c.02 0 .03-.03.03-.05v-.28c0-.04.02-.06.06-.06h.05c.02 0 .03.01.03.04v.29c0 .03.02.05.05.06l.47.2c.02 0 .04 0 .06-.02l.21-.21a.05.05 0 0 1 .05-.01c.02 0 .04.01.04.03l.02.03c0 .02 0 .04-.02.06l-.2.2a.05.05 0 0 0 0 .06l.18.46c0 .02.02.03.03.03.05.02.13.02.26.01.08 0 .12.02.12.07Zm26.67.08c.08 0 .12-.03.12-.08s-.04-.07-.12-.07h-.25a.06.06 0 0 1-.04-.04l-.19-.46a.05.05 0 0 1 .02-.06l.2-.2c.02-.02.02-.04.01-.06l-.01-.03a.05.05 0 0 0-.04-.04c-.02 0-.04 0-.05.02l-.22.21c-.01.02-.03.02-.05.01l-.48-.19c-.03-.01-.04-.03-.04-.06v-.3c0-.02-.01-.03-.04-.03h-.05c-.04 0-.05.02-.05.05v.29c0 .02-.02.04-.04.05l-.48.19-.06-.01-.21-.21a.05.05 0 0 0-.05-.02.05.05 0 0 0-.04.04l-.01.02c-.01.03 0 .06.01.08l.2.2c.03.02.04.05.02.08-.08.12-.14.24-.17.38-.01.07-.06.1-.14.1-.2-.02-.3 0-.3.07 0 .06.1.09.3.07.08-.01.13.02.14.1.03.13.09.26.17.38.02.03.01.05-.01.08l-.2.2c-.03.02-.03.05-.02.07l.01.03c.01.02.02.03.04.03l.05-.01.21-.21a.06.06 0 0 1 .06-.01l.48.18c.03.01.04.03.04.05v.29c0 .04.02.05.06.05h.05c.02 0 .03 0 .03-.03v-.3c0-.03.02-.05.05-.06l.47-.19c.02-.01.04 0 .05.01l.22.21.05.02c.02 0 .03-.02.04-.04l.01-.03v-.06l-.21-.2a.05.05 0 0 1-.01-.06l.18-.46c0-.02.02-.03.04-.03a.85.85 0 0 1 .25-.01Zm-.42 3.44c.06 0 .08.04.08.12v.25l.04.04.47.18c.03.01.05 0 .07-.01l.2-.2a.05.05 0 0 1 .06-.01l.03.01c.02 0 .03.02.03.04l-.01.05-.21.21c-.02.02-.02.04-.02.06l.2.47c.01.03.03.04.06.04h.3c.03 0 .04.01.04.04v.05c0 .03-.02.05-.06.05h-.29c-.02 0-.04.01-.05.04l-.19.47c-.01.03 0 .05.01.06l.21.21c.02.02.02.03.02.05 0 .02-.01.03-.03.04l-.03.01c-.03.01-.05 0-.07-.01l-.21-.2c-.03-.03-.05-.03-.08-.01-.12.08-.25.13-.39.16-.08.02-.11.06-.1.14.02.2 0 .3-.07.3s-.1-.1-.07-.3c0-.08-.03-.12-.1-.14a1.13 1.13 0 0 1-.4-.16c-.02-.02-.05-.02-.07 0l-.2.2c-.03.03-.06.03-.08.02l-.03-.01a.05.05 0 0 1-.03-.04l.01-.05.21-.2c.02-.02.03-.04.02-.07l-.2-.47c0-.02-.02-.04-.05-.04h-.29c-.04 0-.06-.01-.06-.05V28c0-.03.02-.04.04-.04h.3c.03 0 .05-.01.07-.04l.19-.47-.01-.05-.22-.22a.05.05 0 0 1-.01-.05c0-.02.01-.03.03-.04h.04c.02-.02.04-.01.05 0l.2.2c.02.02.04.02.07.01l.47-.18c.02 0 .03-.02.03-.04a.8.8 0 0 0 .01-.25c0-.08.02-.12.07-.12Zm-27.12 1.4c.08 0 .12-.03.12-.08s-.04-.07-.12-.07h-.25a.06.06 0 0 1-.04-.04l-.18-.46c-.01-.02 0-.05.01-.06l.2-.2c.02-.02.02-.04.01-.06l-.01-.03a.05.05 0 0 0-.04-.03l-.05.01-.22.21c-.01.02-.03.02-.05.01l-.47-.19a.07.07 0 0 1-.05-.06v-.3c0-.02-.01-.03-.03-.03h-.05c-.04 0-.06.02-.06.06v.28c0 .02-.01.04-.04.05l-.47.19-.07-.01-.2-.21a.05.05 0 0 0-.06-.02.05.05 0 0 0-.04.04v.02c-.02.03-.01.06 0 .08l.21.2c.03.02.03.05.01.08a1.1 1.1 0 0 0-.16.37c-.02.08-.07.12-.15.1-.2-.01-.29.01-.29.08 0 .06.1.09.29.06.08 0 .13.03.15.1.03.14.08.27.16.38.02.03.02.06 0 .09l-.21.2c-.02.02-.03.04-.01.07v.03l.04.03c.02 0 .04 0 .05-.02l.21-.2a.06.06 0 0 1 .07-.02l.47.19c.03 0 .04.03.04.05v.29c0 .03.02.05.06.05h.05c.02 0 .03-.01.03-.04v-.29c0-.03.02-.05.05-.06l.47-.2c.02 0 .04 0 .06.02l.2.2c.02.02.04.03.06.02.02 0 .03-.01.04-.03l.01-.03v-.06l-.2-.2a.05.05 0 0 1-.02-.06l.18-.46c0-.02.02-.03.04-.03a.85.85 0 0 1 .25-.02Zm-1.5 4.76c0-.05.03-.07.11-.07l.26-.01c.02 0 .03-.02.04-.04l.18-.46c.01-.03 0-.05-.01-.07l-.2-.2c-.02-.01-.02-.03-.01-.05v-.04c.02-.02.03-.03.05-.03l.05.01.22.22c.01.01.03.02.05 0l.48-.18c.03-.02.05-.04.05-.07v-.3c0-.02 0-.03.03-.03h.05c.04 0 .06.02.06.05v.3c0 .02.01.03.04.04l.48.2c.03 0 .05 0 .07-.02l.21-.21a.05.05 0 0 1 .05-.02c.02 0 .03.02.04.04v.02c.02.03.02.06 0 .08l-.21.2c-.03.03-.03.05 0 .08.07.12.13.25.16.39.01.07.06.1.15.1.2-.02.29 0 .29.07s-.1.09-.3.07c-.08-.01-.13.02-.14.1-.03.14-.09.27-.17.39-.02.03-.02.05.01.08l.2.2c.03.02.03.05.02.08l-.01.02c0 .02-.02.03-.04.04-.02 0-.03 0-.05-.02l-.21-.21a.06.06 0 0 0-.07-.01l-.48.19c-.02 0-.04.02-.04.05v.29c0 .04-.02.05-.05.05h-.06c-.02 0-.03 0-.03-.03v-.3c0-.03-.02-.05-.05-.06l-.48-.2-.05.01-.22.22a.05.05 0 0 1-.05.01.06.06 0 0 1-.04-.03l-.01-.03v-.06l.21-.2a.05.05 0 0 0 .01-.07l-.18-.46a.06.06 0 0 0-.04-.04.86.86 0 0 0-.26 0c-.08 0-.12-.03-.12-.08Zm3.76 2.94c0-.08-.02-.12-.07-.12s-.08.04-.07.12a.8.8 0 0 1-.01.25c0 .02-.02.03-.04.03l-.47.19a.05.05 0 0 1-.06-.02l-.2-.2a.05.05 0 0 0-.06 0h-.03a.05.05 0 0 0-.04.05c0 .02 0 .03.02.05l.21.2c.02.02.02.04.01.06l-.19.47a.07.07 0 0 1-.06.04h-.3c-.03 0-.04.02-.04.04v.05c0 .04.02.06.06.06h.29c.02 0 .04 0 .05.03l.2.47c0 .03 0 .05-.02.06l-.21.21a.05.05 0 0 0-.02.05c0 .02.02.03.03.04h.03c.03.02.06.02.08 0l.2-.2c.03-.03.05-.03.08-.02.12.08.25.14.39.17.08.01.11.06.1.14-.02.2 0 .29.07.29s.1-.1.07-.29c0-.08.03-.13.1-.14.14-.03.27-.09.39-.17.03-.02.06-.01.08.01l.2.2c.03.02.05.03.08.02l.03-.01c.02-.01.03-.02.03-.04l-.01-.05-.22-.2c-.02-.02-.02-.05-.01-.07l.19-.47c0-.03.03-.04.05-.04h.3c.03 0 .05-.02.05-.05v-.05c0-.03-.01-.04-.04-.04h-.3a.07.07 0 0 1-.06-.04l-.2-.47c0-.02 0-.04.02-.05l.2-.21a.05.05 0 0 0 .02-.05.05.05 0 0 0-.03-.04l-.03-.02-.06.01-.2.2a.05.05 0 0 1-.07.02l-.46-.19a.06.06 0 0 1-.04-.03.81.81 0 0 1-.01-.25Zm3.75 2.77c.07 0 .09.1.07.29-.01.08.02.13.1.14.14.03.27.09.39.17.03.02.06.01.08-.01l.2-.2c.03-.03.05-.03.08-.02l.03.01c.02.01.03.02.03.04l-.01.05-.22.2c-.01.02-.02.05 0 .07l.18.47c.01.03.03.04.06.04h.29c.03 0 .05.02.05.05v.06c0 .02-.01.03-.03.03h-.3a.07.07 0 0 0-.07.05l-.2.46c0 .02 0 .04.02.06l.21.21c.02.01.02.03.02.05 0 .02-.02.03-.04.04l-.03.01h-.06l-.2-.2a.05.05 0 0 0-.06-.02l-.47.18a.06.06 0 0 0-.04.04.81.81 0 0 0 0 .25c0 .08-.03.12-.08.12s-.08-.04-.07-.12l-.01-.25a.06.06 0 0 0-.04-.04l-.47-.18a.05.05 0 0 0-.06.01l-.2.2a.05.05 0 0 1-.06.01h-.04a.05.05 0 0 1-.03-.05c0-.02 0-.03.02-.05l.21-.21c.02-.02.02-.03.01-.06l-.2-.46a.06.06 0 0 0-.06-.05h-.3c-.02 0-.03 0-.03-.03v-.05c0-.04.01-.06.05-.06h.3c.02 0 .04-.01.04-.04l.2-.47a.05.05 0 0 0-.02-.06l-.21-.21a.05.05 0 0 1-.01-.05c0-.02.01-.03.03-.04h.03c.02-.02.05-.01.07 0l.2.2c.03.03.06.04.09.02.12-.08.25-.14.38-.17.08-.01.12-.06.1-.14-.01-.2.01-.29.08-.29Zm6.2 3.17c.09 0 .13-.02.13-.07s-.04-.07-.12-.07h-.26a.06.06 0 0 1-.03-.04l-.19-.46c-.01-.03 0-.05.01-.07l.2-.2c.02-.01.03-.03.02-.05l-.02-.03a.05.05 0 0 0-.04-.04c-.02 0-.03 0-.05.02l-.21.2c-.02.02-.04.03-.06.02l-.47-.2c-.03 0-.04-.03-.04-.06v-.29c0-.02-.02-.04-.04-.04h-.05c-.04 0-.06.02-.06.06v.28c0 .03-.01.05-.03.06l-.48.18c-.03.01-.05.01-.07 0l-.2-.22a.05.05 0 0 0-.06-.01.05.05 0 0 0-.03.03l-.01.03c-.02.03-.01.05.01.07l.2.2c.03.03.03.05.01.08-.08.12-.13.25-.16.38-.02.08-.07.11-.15.1-.2-.02-.29 0-.29.07s.1.1.3.07c.07 0 .12.03.14.1.03.14.08.26.16.38.02.03.02.06 0 .08l-.2.2a.06.06 0 0 0-.02.08v.03l.05.03c.01 0 .03 0 .04-.02l.21-.2c.02-.02.04-.03.07-.02l.48.19c.02 0 .03.02.03.05v.28c0 .04.02.06.06.06h.05c.03 0 .04-.01.04-.04v-.29c0-.03.01-.05.04-.06l.47-.2c.02 0 .04 0 .06.02l.21.2c.02.02.03.03.05.02.02 0 .04-.01.04-.03l.02-.03-.01-.06-.2-.2a.05.05 0 0 1-.02-.06l.19-.46c0-.02.02-.03.03-.04a.85.85 0 0 1 .26 0Z" fill="#8A9A59"/></svg>