<!-- by TradeStack --><svg viewBox="0 0 56 56" xmlns="http://www.w3.org/2000/svg"><path fill="#F0F3FA" d="M0 0h56v56H0z"/><path d="m19.99 33 .01 3h-8.73v-3h8.72ZM12 20v16H9V20h3Zm7 5.98v3h-8V26l8-.02Zm.99-5.98.01 3h-9v-3h8.99ZM31 31.15c0-1.67-2.72-1.78-4-2.15-2.38-.7-5-1.52-5-4.5 0-3.18 3.17-4.5 5.78-4.5 2.87 0 6.2 1.7 6.2 5H31c0-1.59-1.7-2-3.13-2-1.16 0-2.87.09-2.87 1.5 0 1.53 1.74 1.68 2.87 2 2.5.7 6.13 1.6 6.13 4.65C34 34.4 30.57 36 27.87 36 24.78 36 21 34.6 21 31h3.5c0 1.96 1.63 2 3.37 2 1.16 0 3.13-.44 3.13-1.85ZM42.62 30H38.3v-3h4.33c1.55 0 3.38-.32 3.38-2s-1.75-2-3.38-2H39v13h-3V20h6.62C45.8 20 49 21.48 49 25c0 3.54-3.25 5-6.38 5Z" fill="#0F0523"/></svg>