<!-- by TradeStack --><svg viewBox="0 0 56 56" xmlns="http://www.w3.org/2000/svg"><path fill="#F0F3FA" d="M0 0h56v56H0z"/><path d="M18.53 18.34a13.2 13.2 0 0 0-3.57 6.16c0 .04-.03.05-.07.04l-2.83-.7c-.05-.01-.07-.04-.06-.08a15.11 15.11 0 0 1 .84-2.45c.18-.44.34-.8.48-1.07A16.11 16.11 0 0 1 24.12 12c.05 0 .07.01.08.06l.7 2.78c0 .04-.01.06-.05.07a13.6 13.6 0 0 0-6.32 3.43Z" fill="url(#a)"/><path d="M40.96 24.46a13.35 13.35 0 0 0-9.82-9.54c-.06-.02-.08-.05-.07-.11l.71-2.75c.02-.04.04-.06.08-.05a15.82 15.82 0 0 1 2.6.83c.5.17.92.35 1.26.52A16.3 16.3 0 0 1 44 23.7c.02.06 0 .1-.07.12l-2.82.72c-.07.02-.12 0-.14-.08Z" fill="url(#b)"/><path d="M28 26.02c.04 0 .1-.04.17-.12a810.1 810.1 0 0 0 6.59-6.87c.04-.04.08-.04.12 0l2.08 2.08c.05.05.05.1 0 .15a7101.37 7101.37 0 0 1-6.97 7.1c-.29.24-.43.44-.43.6a869.3 869.3 0 0 0-.01 9.97c0 .04-.02.06-.06.06a193.83 193.83 0 0 1-2.98 0c-.04 0-.06-.02-.06-.06v-9.96c0-.17-.15-.37-.44-.6a6891.6 6891.6 0 0 1-6.97-7.11c-.05-.05-.05-.1 0-.15l2.08-2.08c.04-.04.08-.04.12 0 2.57 2.7 4.77 5 6.6 6.87.07.08.12.12.16.12Z" fill="url(#c)"/><path d="M27.96 41.03a13.89 13.89 0 0 0 6.78-1.81c.1-.05.17-.03.23.06l1.5 2.42c.01.02 0 .04-.02.05-.49.3-1.04.58-1.64.88-.4.2-.9.37-1.5.52l-1.52.44c-.4.11-1 .22-1.83.32-.53.06-1.2.09-2 .09s-1.48-.03-2-.1c-.83-.1-1.44-.2-1.83-.31l-1.53-.44a8.48 8.48 0 0 1-1.5-.53c-.6-.3-1.15-.58-1.64-.87-.02-.02-.03-.03-.01-.06l1.5-2.42c.05-.09.13-.1.22-.05a13.43 13.43 0 0 0 6.79 1.81Z" fill="url(#d)"/><defs><linearGradient id="a" x1="24.9" y1="17.33" x2="18.59" y2="24.67" gradientUnits="userSpaceOnUse"><stop stop-color="#6B41B1"/><stop offset="1" stop-color="#59034D"/></linearGradient><linearGradient id="b" x1="44.68" y1="23.26" x2="33.87" y2="11.79" gradientUnits="userSpaceOnUse"><stop offset=".06" stop-color="#2FACF4"/><stop offset=".6" stop-color="#26B1F9"/><stop offset="1" stop-color="#3A8FDB"/></linearGradient><linearGradient id="c" x1="38.61" y1="25.25" x2="24.46" y2="33.63" gradientUnits="userSpaceOnUse"><stop stop-color="#309ACD"/><stop offset=".61" stop-color="#453A90"/><stop offset=".83" stop-color="#671F8D"/><stop offset="1" stop-color="#490F58"/></linearGradient><linearGradient id="d" x1="19.44" y1="41.59" x2="36.48" y2="41.59" gradientUnits="userSpaceOnUse"><stop stop-color="#1B001F"/><stop offset="1" stop-color="#7F1F99"/></linearGradient></defs></svg>