<!-- by TradeStack --><svg viewBox="0 0 56 56" xmlns="http://www.w3.org/2000/svg"><path fill="url(#a3hy0pe14)" d="M0 0h56v56H0z"/><path d="m24.8 23.43.01-.37v-.18a6.62 6.62 0 0 0-2.16-4.81A7.33 7.33 0 0 0 17.4 16c-2.04 0-3.78.69-5.24 2.07a6.67 6.67 0 0 0-2.17 5c0 1.94.73 3.6 2.16 4.99a7.3 7.3 0 0 0 5.24 2.04 7.3 7.3 0 0 0 5.24-2.04 6.58 6.58 0 0 0 2.16-4.63Zm-7.39-3.2c.82 0 1.56.28 2.15.83.57.55.86 1.21.86 2 0 .77-.29 1.45-.86 1.99-.58.54-1.33.82-2.15.82-.82 0-1.48-.28-2.06-.82a2.65 2.65 0 0 1-.87-2c0-.78.29-1.44.87-1.99a2.86 2.86 0 0 1 2.06-.83Z" fill="url(#b3hy0pe14)"/><path d="M17.4 25.87c-.82 0-1.48-.28-2.06-.82a2.65 2.65 0 0 1-.87-2v-.2h-4.46v.21c0 1.92.7 3.57 2.1 4.93l.06-.06a7.34 7.34 0 0 1 5.23-2.06Z" fill="url(#c3hy0pe14)"/><path d="M12.17 27.93a6.67 6.67 0 0 0-2.17 5c0 1.95.73 3.6 2.16 5A7.34 7.34 0 0 0 17.41 40c2.06 0 3.78-.7 5.24-2.06a6.59 6.59 0 0 0 2.15-4.63l.01-.37v-.18a6.63 6.63 0 0 0-2.16-4.82 7.24 7.24 0 0 0-5.22-2.06c-2.04 0-3.8.67-5.26 2.05Zm5.27 2.17c.82 0 1.53.28 2.1.83.58.55.87 1.21.87 1.99s-.29 1.45-.86 2c-.58.54-1.33.83-2.15.83a2.9 2.9 0 0 1-2.06-.83 2.66 2.66 0 0 1-.87-2c0-.78.29-1.44.87-1.99a2.95 2.95 0 0 1 2.1-.83Z" fill="url(#d3hy0pe14)"/><path d="m24.8 23.43.01-.37v-.18a6.62 6.62 0 0 0-2.16-4.81A7.33 7.33 0 0 0 17.4 16c-2.04 0-3.78.69-5.24 2.07a6.67 6.67 0 0 0-2.17 5c0 1.94.73 3.6 2.16 4.99a7.3 7.3 0 0 0 5.24 2.04 7.3 7.3 0 0 0 5.24-2.04 6.58 6.58 0 0 0 2.16-4.63Zm-7.39-3.2c.82 0 1.56.28 2.15.83.57.55.86 1.21.86 2 0 .77-.29 1.45-.86 1.99-.58.54-1.33.82-2.15.82-.82 0-1.48-.28-2.06-.82a2.65 2.65 0 0 1-.87-2c0-.78.29-1.44.87-1.99a2.86 2.86 0 0 1 2.06-.83Z" fill="url(#e3hy0pe14)"/><path d="m22.7 28-.05.06a7.3 7.3 0 0 1-5.2 2.04c.82 0 1.53.28 2.1.83.58.55.87 1.21.87 1.99s-.29 1.45-.86 2l-.05.06 3.1 2.97.04-.02a6.59 6.59 0 0 0 2.15-4.63l.01-.37v-.18a6.58 6.58 0 0 0-2.1-4.75Z" fill="url(#f3hy0pe14)"/><path d="M35.4 23.43v-.55a6.65 6.65 0 0 0-2.16-4.81A7.27 7.27 0 0 0 28 16a7.3 7.3 0 0 0-5.23 2.07 6.65 6.65 0 0 0-2.17 5c0 1.95.73 3.6 2.17 4.99A7.3 7.3 0 0 0 28 30.1a7.3 7.3 0 0 0 5.24-2.04 6.6 6.6 0 0 0 2.16-4.63Zm-7.4-3.2c.82 0 1.56.28 2.15.83.58.55.87 1.21.87 2 0 .77-.3 1.45-.87 1.99-.58.54-1.33.82-2.15.82-.81 0-1.48-.28-2.06-.82a2.65 2.65 0 0 1-.87-2c0-.78.3-1.44.87-1.99a2.86 2.86 0 0 1 2.06-.83Z" fill="url(#g3hy0pe14)"/><path d="M28 25.87c-.81 0-1.48-.28-2.06-.82a2.65 2.65 0 0 1-.87-2l.01-.2h-4.47v.21c0 1.92.7 3.57 2.1 4.93l.06-.06A7.35 7.35 0 0 1 28 25.87Z" fill="url(#h3hy0pe14)"/><path d="M22.77 27.93a6.65 6.65 0 0 0-2.17 5c0 1.96.73 3.6 2.17 5A7.3 7.3 0 0 0 28 39.99c2.06 0 3.79-.7 5.24-2.06a6.59 6.59 0 0 0 2.16-4.63v-.55a6.67 6.67 0 0 0-2.16-4.82 7.24 7.24 0 0 0-5.22-2.06c-2.04 0-3.8.68-5.25 2.06Zm5.27 2.17c.82 0 1.53.28 2.11.83.58.55.87 1.21.87 1.99s-.3 1.45-.87 2c-.58.54-1.33.83-2.15.83a2.9 2.9 0 0 1-2.06-.83 2.66 2.66 0 0 1-.87-2c0-.78.3-1.44.87-1.99a2.95 2.95 0 0 1 2.1-.83Z" fill="url(#i3hy0pe14)"/><path d="M35.4 23.43v-.55a6.65 6.65 0 0 0-2.16-4.81A7.27 7.27 0 0 0 28 16a7.3 7.3 0 0 0-5.23 2.07 6.65 6.65 0 0 0-2.17 5c0 1.95.73 3.6 2.17 4.99A7.3 7.3 0 0 0 28 30.1a7.3 7.3 0 0 0 5.24-2.04 6.6 6.6 0 0 0 2.16-4.63Zm-7.4-3.2c.82 0 1.56.28 2.15.83.58.55.87 1.21.87 2 0 .77-.3 1.45-.87 1.99-.58.54-1.33.82-2.15.82-.81 0-1.48-.28-2.06-.82a2.65 2.65 0 0 1-.87-2c0-.78.3-1.44.87-1.99a2.86 2.86 0 0 1 2.06-.83Z" fill="url(#j3hy0pe14)"/><path d="m33.3 28-.06.06a7.3 7.3 0 0 1-5.2 2.04c.82 0 1.53.28 2.11.83.58.55.87 1.21.87 1.99s-.3 1.45-.87 2l-.05.06 3.11 2.97.03-.02a6.59 6.59 0 0 0 2.16-4.63v-.55A6.58 6.58 0 0 0 33.3 28Z" fill="url(#k3hy0pe14)"/><path d="m45.99 23.43.01-.37v-.18a6.65 6.65 0 0 0-2.16-4.81A7.3 7.3 0 0 0 38.6 16a7.3 7.3 0 0 0-5.24 2.07 6.65 6.65 0 0 0-2.16 5c0 1.95.73 3.6 2.16 4.99a7.3 7.3 0 0 0 5.24 2.04 7.3 7.3 0 0 0 5.24-2.04 6.6 6.6 0 0 0 2.15-4.63Zm-7.4-3.2c.83 0 1.56.28 2.15.83.58.55.87 1.21.87 2 0 .77-.29 1.45-.87 1.99-.58.54-1.32.82-2.14.82-.82 0-1.49-.28-2.07-.82a2.65 2.65 0 0 1-.86-2c0-.78.28-1.44.86-1.99a2.86 2.86 0 0 1 2.07-.83Z" fill="url(#l3hy0pe14)"/><path d="M38.6 25.87c-.82 0-1.49-.28-2.07-.82a2.65 2.65 0 0 1-.86-2v-.2h-4.46v.21c0 1.92.7 3.57 2.1 4.93l.06-.06a7.3 7.3 0 0 1 5.23-2.06Z" fill="url(#m3hy0pe14)"/><path d="M33.36 27.93a6.65 6.65 0 0 0-2.16 5c0 1.96.73 3.6 2.16 5a7.3 7.3 0 0 0 5.24 2.06c2.05 0 3.78-.7 5.24-2.06a6.59 6.59 0 0 0 2.15-4.63l.01-.37v-.18a6.67 6.67 0 0 0-2.16-4.82 7.24 7.24 0 0 0-5.22-2.06c-2.05 0-3.8.68-5.26 2.06Zm5.28 2.17c.82 0 1.52.28 2.1.83.58.55.87 1.21.87 1.99s-.29 1.45-.87 2c-.58.54-1.32.83-2.14.83a2.9 2.9 0 0 1-2.07-.83 2.66 2.66 0 0 1-.86-2c0-.78.28-1.44.86-1.99a2.95 2.95 0 0 1 2.1-.83Z" fill="url(#n3hy0pe14)"/><path d="m45.99 23.43.01-.37v-.18a6.65 6.65 0 0 0-2.16-4.81A7.3 7.3 0 0 0 38.6 16a7.3 7.3 0 0 0-5.24 2.07 6.65 6.65 0 0 0-2.16 5c0 1.95.73 3.6 2.16 4.99a7.3 7.3 0 0 0 5.24 2.04 7.3 7.3 0 0 0 5.24-2.04 6.6 6.6 0 0 0 2.15-4.63Zm-7.4-3.2c.83 0 1.56.28 2.15.83.58.55.87 1.21.87 2 0 .77-.29 1.45-.87 1.99-.58.54-1.32.82-2.14.82-.82 0-1.49-.28-2.07-.82a2.65 2.65 0 0 1-.86-2c0-.78.28-1.44.86-1.99a2.86 2.86 0 0 1 2.07-.83Z" fill="url(#o3hy0pe14)" opacity=".5"/><path d="m43.9 28-.06.06a7.3 7.3 0 0 1-5.2 2.04c.82 0 1.52.28 2.1.83.58.55.87 1.21.87 1.99s-.29 1.45-.87 2l-.05.06 3.12 2.97.03-.02a6.59 6.59 0 0 0 2.15-4.63l.01-.37v-.18A6.58 6.58 0 0 0 43.9 28Z" fill="url(#p3hy0pe14)"/><defs><linearGradient id="a3hy0pe14" x1="10.42" y1="9.71" x2="68.15" y2="76.02" gradientUnits="userSpaceOnUse"><stop stop-color="#1A1E21"/><stop offset="1" stop-color="#06060A"/></linearGradient><linearGradient id="b3hy0pe14" x1="10" y1="23.05" x2="24.81" y2="23.05" gradientUnits="userSpaceOnUse"><stop stop-color="#95AACC"/><stop offset=".06" stop-color="#ADBFDB"/><stop offset=".12" stop-color="#C2D0E7"/><stop offset=".19" stop-color="#CEDBEF"/><stop offset=".25" stop-color="#D3DFF2"/><stop offset=".32" stop-color="#D7E2F3"/><stop offset=".4" stop-color="#E3EBF6"/><stop offset=".48" stop-color="#F8FAFC"/><stop offset=".5" stop-color="#fff"/><stop offset=".52" stop-color="#F8FAFC"/><stop offset=".6" stop-color="#E3EBF6"/><stop offset=".68" stop-color="#D7E2F3"/><stop offset=".75" stop-color="#D3DFF2"/><stop offset=".88" stop-color="#C2D0E7"/></linearGradient><linearGradient id="c3hy0pe14" x1="11.14" y1="22.1" x2="14.82" y2="27.6" gradientUnits="userSpaceOnUse"><stop offset=".4" stop-color="#060A2A" stop-opacity="0"/><stop offset=".59" stop-color="#060A2A" stop-opacity=".14"/><stop offset=".83" stop-color="#060A2A" stop-opacity=".53"/><stop offset="1" stop-color="#060A2A" stop-opacity=".9"/></linearGradient><linearGradient id="d3hy0pe14" x1="10" y1="32.93" x2="24.81" y2="32.93" gradientUnits="userSpaceOnUse"><stop stop-color="#95AACC"/><stop offset=".06" stop-color="#ADBFDB"/><stop offset=".12" stop-color="#C2D0E7"/><stop offset=".19" stop-color="#CEDBEF"/><stop offset=".25" stop-color="#D3DFF2"/><stop offset=".32" stop-color="#D7E2F3"/><stop offset=".4" stop-color="#E3EBF6"/><stop offset=".48" stop-color="#F8FAFC"/><stop offset=".5" stop-color="#fff"/><stop offset=".52" stop-color="#F8FAFC"/><stop offset=".6" stop-color="#E3EBF6"/><stop offset=".68" stop-color="#D7E2F3"/><stop offset=".75" stop-color="#D3DFF2"/><stop offset=".81" stop-color="#CEDBEF"/><stop offset=".88" stop-color="#C2D0E7"/></linearGradient><linearGradient id="e3hy0pe14" x1="10" y1="23.05" x2="24.81" y2="23.05" gradientUnits="userSpaceOnUse"><stop offset=".45" stop-color="#060A2A" stop-opacity="0"/><stop offset=".63" stop-color="#060A2A" stop-opacity=".14"/><stop offset=".88" stop-color="#060A2A" stop-opacity=".53"/></linearGradient><linearGradient id="f3hy0pe14" x1="25.25" y1="35.44" x2="18.86" y2="28.75" gradientUnits="userSpaceOnUse"><stop offset=".4" stop-color="#060A2A" stop-opacity="0"/><stop offset=".59" stop-color="#060A2A" stop-opacity=".14"/><stop offset=".83" stop-color="#060A2A" stop-opacity=".53"/><stop offset="1" stop-color="#060A2A" stop-opacity=".9"/></linearGradient><linearGradient id="g3hy0pe14" x1="20.6" y1="23.05" x2="35.41" y2="23.05" gradientUnits="userSpaceOnUse"><stop stop-color="#95AACC"/><stop offset=".06" stop-color="#ADBFDB"/><stop offset=".12" stop-color="#C2D0E7"/><stop offset=".19" stop-color="#CEDBEF"/><stop offset=".25" stop-color="#D3DFF2"/><stop offset=".32" stop-color="#D7E2F3"/><stop offset=".4" stop-color="#E3EBF6"/><stop offset=".48" stop-color="#F8FAFC"/><stop offset=".5" stop-color="#fff"/><stop offset=".52" stop-color="#F8FAFC"/><stop offset=".6" stop-color="#E3EBF6"/><stop offset=".68" stop-color="#D7E2F3"/><stop offset=".75" stop-color="#D3DFF2"/><stop offset=".81" stop-color="#CEDBEF"/></linearGradient><linearGradient id="h3hy0pe14" x1="21.74" y1="22.1" x2="25.41" y2="27.6" gradientUnits="userSpaceOnUse"><stop offset=".4" stop-color="#060A2A" stop-opacity="0"/><stop offset=".59" stop-color="#060A2A" stop-opacity=".14"/><stop offset=".83" stop-color="#060A2A" stop-opacity=".53"/><stop offset="1" stop-color="#060A2A" stop-opacity=".9"/></linearGradient><linearGradient id="i3hy0pe14" x1="20.6" y1="32.93" x2="35.41" y2="32.93" gradientUnits="userSpaceOnUse"><stop stop-color="#95AACC"/><stop offset=".06" stop-color="#ADBFDB"/><stop offset=".12" stop-color="#C2D0E7"/><stop offset=".19" stop-color="#CEDBEF"/><stop offset=".25" stop-color="#D3DFF2"/><stop offset=".32" stop-color="#D7E2F3"/><stop offset=".4" stop-color="#E3EBF6"/><stop offset=".48" stop-color="#F8FAFC"/><stop offset=".5" stop-color="#fff"/><stop offset=".52" stop-color="#F8FAFC"/><stop offset=".6" stop-color="#E3EBF6"/><stop offset=".68" stop-color="#D7E2F3"/><stop offset=".75" stop-color="#D3DFF2"/><stop offset=".81" stop-color="#CEDBEF"/><stop offset=".88" stop-color="#C2D0E7"/></linearGradient><linearGradient id="j3hy0pe14" x1="20.6" y1="23.05" x2="35.41" y2="23.05" gradientUnits="userSpaceOnUse"><stop offset=".45" stop-color="#060A2A" stop-opacity="0"/><stop offset=".63" stop-color="#060A2A" stop-opacity=".14"/><stop offset=".88" stop-color="#060A2A" stop-opacity=".53"/></linearGradient><linearGradient id="k3hy0pe14" x1="35.84" y1="35.44" x2="29.46" y2="28.75" gradientUnits="userSpaceOnUse"><stop offset=".4" stop-color="#060A2A" stop-opacity="0"/><stop offset=".59" stop-color="#060A2A" stop-opacity=".14"/><stop offset=".83" stop-color="#060A2A" stop-opacity=".53"/><stop offset="1" stop-color="#060A2A" stop-opacity=".9"/></linearGradient><linearGradient id="l3hy0pe14" x1="31.19" y1="23.05" x2="46" y2="23.05" gradientUnits="userSpaceOnUse"><stop stop-color="#95AACC"/><stop offset=".06" stop-color="#ADBFDB"/><stop offset=".12" stop-color="#C2D0E7"/><stop offset=".19" stop-color="#CEDBEF"/><stop offset=".25" stop-color="#D3DFF2"/><stop offset=".32" stop-color="#D7E2F3"/><stop offset=".4" stop-color="#E3EBF6"/><stop offset=".48" stop-color="#F8FAFC"/><stop offset=".5" stop-color="#fff"/><stop offset=".52" stop-color="#F8FAFC"/><stop offset=".6" stop-color="#E3EBF6"/><stop offset=".68" stop-color="#D7E2F3"/><stop offset=".75" stop-color="#D3DFF2"/><stop offset=".81" stop-color="#CEDBEF"/><stop offset=".88" stop-color="#C2D0E7"/><stop offset=".94" stop-color="#ADBFDB"/><stop offset="1" stop-color="#95AACC"/></linearGradient><linearGradient id="m3hy0pe14" x1="32.34" y1="22.1" x2="36.01" y2="27.6" gradientUnits="userSpaceOnUse"><stop offset=".4" stop-color="#060A2A" stop-opacity="0"/><stop offset=".59" stop-color="#060A2A" stop-opacity=".14"/><stop offset=".83" stop-color="#060A2A" stop-opacity=".53"/><stop offset="1" stop-color="#060A2A" stop-opacity=".9"/></linearGradient><linearGradient id="n3hy0pe14" x1="31.2" y1="32.93" x2="46" y2="32.93" gradientUnits="userSpaceOnUse"><stop stop-color="#95AACC"/><stop offset=".06" stop-color="#ADBFDB"/><stop offset=".12" stop-color="#C2D0E7"/><stop offset=".19" stop-color="#CEDBEF"/><stop offset=".25" stop-color="#D3DFF2"/><stop offset=".32" stop-color="#D7E2F3"/><stop offset=".4" stop-color="#E3EBF6"/><stop offset=".48" stop-color="#F8FAFC"/><stop offset=".5" stop-color="#fff"/><stop offset=".52" stop-color="#F8FAFC"/><stop offset=".6" stop-color="#E3EBF6"/><stop offset=".68" stop-color="#D7E2F3"/><stop offset=".75" stop-color="#D3DFF2"/><stop offset=".81" stop-color="#CEDBEF"/><stop offset=".88" stop-color="#C2D0E7"/><stop offset=".94" stop-color="#ADBFDB"/><stop offset="1" stop-color="#95AACC"/></linearGradient><linearGradient id="o3hy0pe14" x1="31.19" y1="23.05" x2="46" y2="23.05" gradientUnits="userSpaceOnUse"><stop offset=".45" stop-color="#060A2A" stop-opacity="0"/><stop offset=".63" stop-color="#060A2A" stop-opacity=".14"/><stop offset=".88" stop-color="#060A2A" stop-opacity=".53"/><stop offset="1" stop-color="#060A2A" stop-opacity=".8"/></linearGradient><linearGradient id="p3hy0pe14" x1="46.44" y1="35.44" x2="40.05" y2="28.75" gradientUnits="userSpaceOnUse"><stop offset=".4" stop-color="#060A2A" stop-opacity="0"/><stop offset=".59" stop-color="#060A2A" stop-opacity=".14"/><stop offset=".83" stop-color="#060A2A" stop-opacity=".53"/><stop offset="1" stop-color="#060A2A" stop-opacity=".9"/></linearGradient></defs></svg>