<!-- by TradeStack --><svg viewBox="0 0 56 56" xmlns="http://www.w3.org/2000/svg"><path fill="#F0F3FA" d="M0 0h56v56H0z"/><path fill-rule="evenodd" d="M17.5 18a3.5 3.5 0 1 0 0-7 3.5 3.5 0 0 0 0 7ZM44 27a13 13 0 0 1-18.07 11.98 6.47 6.47 0 1 1-6.9-6.9A13 13 0 1 1 44 27Zm-13 6a6 6 0 1 0 0-12 6 6 0 0 0 0 12Zm-8 5.5a3.5 3.5 0 1 1-7 0 3.5 3.5 0 0 1 7 0Z" fill="url(#a)"/><defs><linearGradient id="a" x1="41" y1="16.65" x2="13.95" y2="41.77" gradientUnits="userSpaceOnUse"><stop stop-color="#EFA34C"/><stop offset="1" stop-color="#F16941"/></linearGradient></defs></svg>