<!-- by TradeStack --><svg viewBox="0 0 56 56" xmlns="http://www.w3.org/2000/svg"><path fill="#F0F3FA" d="M0 0h56v56H0z"/><path d="M4 22v10h1.5v-4.5H8V26H5.5v-2.5H10V22H4ZM15 28.47c0-2.1-1.28-3.47-3-3.47-1.7 0-3 1.3-3 3.5 0 2.1 1.27 3.5 2.96 3.5C13.7 32 15 30.7 15 28.47Zm-1.5.04c0 1.22-.5 1.99-1.5 1.99s-1.5-.53-1.5-2c0-1.33.5-2 1.5-2 1.06 0 1.5.64 1.5 2ZM20 25.29c-.27-.19-.6-.29-1.14-.29-.67 0-1.05.34-1.36.8V25H16v7h1.5v-3.92c0-1.16.3-1.58 1.14-1.58.44 0 .73.1 1.01.25l.35-1.46ZM26 28.37c0-1.82-.8-3.37-2.45-3.37-1.5 0-2.55 1.23-2.55 3.5 0 2.23 1.15 3.5 2.52 3.5.88 0 1.5-.32 2-.88l-.67-1.16c-.39.33-.78.54-1.27.54-.7 0-1.08-.5-1.08-1.5h3.48l.02-.63Zm-1.5-.87h-2c0-.5.5-1 1-1s1 .5 1 1ZM32 30.02c0-1.27-.75-1.68-2.22-2.25-1-.4-1.28-.44-1.28-.77 0-.36.5-.5.96-.5.63 0 1.17.2 1.71.58l.57-1.34A3.88 3.88 0 0 0 29.5 25c-1.32 0-2.5.8-2.5 2 0 1.06.58 1.44 2 2 .95.37 1.5.5 1.5 1.02 0 .48-.5.48-.99.48-.61 0-1.3-.23-1.92-.67L27 31.14c.67.5 1.63.86 2.52.86 1.3 0 2.48-.5 2.48-1.98ZM34.65 22.87c0-.48-.37-.87-.82-.87a.85.85 0 0 0-.83.87c0 .47.37.86.83.86.45 0 .82-.39.82-.86ZM33 32h1.5v-7H33v7ZM41 31v-6h-1.5v.5c-.32-.4-.55-.5-1.15-.5-1.23 0-2.35 1.05-2.35 3.27 0 2.47 1.23 3.73 2.5 3.73.69 0 1-.5 1-.5 0 1-.32.91-2 1l.69 1.5c2.15-.07 2.81-1.02 2.81-3Zm-1.5-1.25c-.3.42-.44.75-1 .75-.5 0-.96-.6-.96-2.23 0-1.37.46-1.77.96-1.77.59 0 .74.14 1 .53v2.72ZM47 32v-4.13c0-2.13-.77-2.87-2.22-2.87-.64 0-.97.32-1.28.84V22l-1.5.74V32h1.5v-4.21c0-.79.18-1.29 1-1.29.8 0 1 .5 1 1.43V32H47ZM52 30.22a2.1 2.1 0 0 1-1 .28c-.35 0-.48-.34-.48-1v-3H52V25h-1.48v-3l-1.52.73V25h-1v1.5h1v3.62c0 1.27.57 1.88 1.52 1.88.54 0 1-.14 1.32-.32l.16-1.46Z" fill="#646363"/></svg>