<!-- by TradeStack --><svg viewBox="0 0 56 56" fill="none" xmlns="http://www.w3.org/2000/svg">
<rect width="56" height="56" fill="#F0F3FA"/>
<path fill-rule="evenodd" clip-rule="evenodd" d="M34.3253 23.8275C34.3253 23.3685 33.953 22.9962 33.5072 22.9962C33.0482 22.9962 32.6759 23.3676 32.6759 23.8275C32.6759 24.2733 33.0482 24.6456 33.5072 24.6456C33.953 24.6456 34.3253 24.2743 34.3253 23.8275ZM33 32H34V25H33V32ZM4 23V32H4.99998V28.0013H7.99998V27H4.99998V24H8.99998V23H4ZM15 28.4684C15 26.3695 13.7178 25 12 25C10.3076 25 8.99998 26.3053 8.99998 28.5063C8.99998 30.6043 10.2696 32 11.962 32C13.6924 32.001 15 30.6947 15 28.4684ZM14 28.5063C14 29.7348 13.2407 30.9971 12.0136 31C10.7865 31.003 9.99998 29.94 9.99998 28.4684C9.99998 27.1379 10.6209 25.998 11.9493 26C13.2777 26.002 14 27.1369 14 28.5063ZM18.6109 25C19.1036 25 19.4082 25.1042 19.6541 25.2868L19.337 26.2872C19.0795 26.1304 18.8096 26 18.4114 26C17.6497 26 17 26.6385 17 27.8017V32H15.9972V25H17V25.797C17.2815 25.3394 18.0016 25 18.6109 25ZM25.5928 28.3663C25.5928 26.5484 24.6993 25 22.852 25C21.1659 25 20 26.2284 20 28.5063C20 30.7336 21.2893 32 22.8153 32C23.8077 32 24.4891 31.68 25.0603 31.1169L24.3035 30.4361C23.8699 30.7687 23.4354 31 22.8897 31C22.0961 31 21.2553 30.2926 21.1186 29H25.5561L25.56 28.9551C25.5729 28.8097 25.5928 28.5854 25.5928 28.3663ZM24.4594 28H21.1186C21.1186 27.0343 21.5755 25.99 22.7653 26C23.9551 26.0101 24.3981 27.078 24.4594 28ZM29.3836 28.0187C30.611 28.5335 31.2967 28.821 31.2967 30.0178C31.2967 31.502 30.2005 32.002 28.997 32C28.1686 32 27.2701 31.6411 26.6519 31.1422L27.2001 30.3501C27.7721 30.7849 28.4134 31 28.9854 31C29.7437 31 30.3069 30.6911 30.2947 30.0664C30.2842 29.533 29.776 29.3305 29.0755 29.0514C28.9556 29.0036 28.8302 28.9537 28.7006 28.8994C27.3826 28.3362 26.8852 27.8916 26.8852 26.8295C26.8852 25.6274 27.7491 25 28.9748 25C29.7455 25 30.5038 25.3074 31.0519 25.7421L30.5269 26.5714C30.0249 26.1872 29.5229 25.9956 28.9402 25.9956C28.3557 25.9956 27.8914 26.2736 27.8914 26.8295C27.8914 27.1622 28.2416 27.5295 29.164 27.9263C29.239 27.958 29.3122 27.9887 29.3835 28.0186L29.3836 28.0187ZM40.4554 25V30.9994C40.4554 32.9754 39.738 33.9259 37.3873 34L36.9539 33.0374C38.7855 32.951 39.4389 32.4566 39.4389 31.1111V31.0003C38.9697 31.4329 38.18 31.7538 37.4992 31.7538C36.1133 31.7538 35 30.7404 35 28.2718C35 26.05 36.2242 25 37.5603 25C38.2157 25 38.8344 25.3463 39.1804 25.7413V25H40.4554ZM37.6835 30.6832C38.29 30.6832 39.1041 30.1728 39.4389 29.7534V27.0258C39.0525 26.3804 38.3267 26.0048 37.6835 26.0048C36.7686 26.0048 36 26.9019 36 28.2718C36 29.9016 36.7432 30.6832 37.6835 30.6832ZM47 31.9991V27.9061C47 25.9932 46.23 25 44.7846 25C44.1443 25 43.308 25.2895 43 25.7586V23L42 23.6671V31.9991H43V27.6785C43 26.6296 43.6823 26 44.5 26C45.306 26 46 26.4936 46 27.8024V32L47 31.9991ZM51.0064 31C51.3591 31 51.7516 30.8966 52 30.7626L51.844 31.7079C51.5171 31.878 51.0591 32 50.5236 32C49.5688 32 49 31.4528 49 30.3093V26.5H48V25.5H49V23.6563L50 23V25.5H52V26.5H50V30.2523C50 30.8476 50.5097 31 51.0064 31Z" fill="#646363"/>
</svg>
