<!-- by TradeStack --><svg viewBox="0 0 56 56" xmlns="http://www.w3.org/2000/svg"><path fill="#F0F3FA" d="M0 0h56v56H0z"/><path d="M45 28a16.86 16.86 0 0 1-4.98 12.02A16.93 16.93 0 0 1 28 45a16.86 16.86 0 0 1-12.02-4.98A16.93 16.93 0 0 1 11 28a16.86 16.86 0 0 1 4.98-12.02A16.93 16.93 0 0 1 28 11a16.86 16.86 0 0 1 12.02 4.98A16.93 16.93 0 0 1 45 28Z" fill="#8E8F94"/><path d="m30.76 12.3.08.87c.02.16.1.25.26.28.17.02.33.01.5-.02.17-.03.24-.13.22-.3-.01-.16-.11-.31-.3-.46a7.82 7.82 0 0 1 6.29 2.72.53.53 0 0 0-.28-.02c-.16.05-.23.15-.2.32.03.26.12.49.25.69l-.17.04-1.5-1.07a.52.52 0 0 0-.4-.1c-.3.05-.58 0-.85-.15-.19-.11-.28-.06-.28.16v.32c0 .18-.1.28-.28.28-.25 0-.5.04-.75.13-.12.05-.23.04-.31-.02l-2.08-1.36c-.08-.05-.14-.03-.18.04l-.07.13c-.02.02-.01.04 0 .06l.65.72c.17.2.13.27-.11.23-.39-.06-.66-.28-.82-.68-.09-.2-.2-.21-.34-.05-.14.15-.3.2-.48.1a.37.37 0 0 0-.42.06c-.36.3-.68.43-.98.38a.29.29 0 0 1-.21-.18l-.29-.67c-.07-.16-.02-.24.16-.23.09 0 .18-.04.27-.1.16-.13.15-.22-.04-.3a1.57 1.57 0 0 1-.71-.45c-.08-.19-.17-.3-.26-.32-.12-.03-.18.02-.2.15v.16c.01.16-.06.27-.21.32-.18.06-.34.06-.46 0a.3.3 0 0 1-.18-.3.3.3 0 0 1 .2-.28l1.1-.47a.3.3 0 0 1 .32.05c.33.25.54.56.63.91.04.17.13.2.26.09.3-.26.75-.44 1.34-.54.15-.03.18-.1.1-.22a.84.84 0 0 0-.48-.35.37.37 0 0 1-.3-.33l-.05-.43c.44-.2.96-.13 1.56.18Z" fill="#B1B2B6"/><path d="m29.2 12.11.06.43c.02.17.12.28.29.33.18.05.34.16.47.35.09.12.06.2-.09.22-.59.1-1.04.28-1.34.54-.13.1-.22.08-.26-.09-.09-.35-.3-.66-.63-.91a.3.3 0 0 0-.33-.05l-1.1.47a.3.3 0 0 0-.19.28c0 .14.06.24.18.3s.28.06.46 0c.15-.05.22-.16.22-.32v-.16c0-.13.07-.18.2-.15.08.03.17.13.25.32-.35.5-.24.98.32 1.41.16.13.14.21-.05.26-.4.1-.78.07-1.17-.07a.33.33 0 0 0-.39.08c-.24.25-.34.64-.3 1.15H17a16.12 16.12 0 0 1 12.2-4.39ZM30.76 12.3c.29.08.54.2.76.37.19.15.29.3.3.46.02.17-.05.27-.21.3-.18.03-.34.04-.5.02-.17-.03-.25-.12-.27-.28l-.08-.88Z" fill="#F0F3FA"/><path d="M37.41 16.42c-.31.1-.73.08-1.25-.06-.52-.13-.92-.12-1.2.04-.17.1-.44.14-.82.13l-8.34-.03c-.04-.51.06-.9.3-1.15a.33.33 0 0 1 .39-.08c.39.14.77.17 1.17.07.2-.05.21-.13.05-.26-.56-.43-.67-.9-.33-1.41.16.2.4.35.72.46.19.07.2.16.04.28-.1.07-.18.1-.27.1-.18 0-.23.08-.16.24l.29.67c.04.1.11.15.21.18.3.05.62-.08.98-.38.13-.1.27-.12.42-.05.18.08.34.04.48-.11.14-.16.25-.15.33.05.17.4.44.62.82.68.25.04.3-.04.12-.23l-.65-.72c-.01-.02-.02-.04 0-.06l.07-.13c.04-.07.1-.09.18-.04l2.08 1.36c.08.06.19.07.31.02.25-.09.5-.13.75-.13.19 0 .28-.1.28-.28v-.32c0-.22.1-.27.28-.16.27.15.55.2.85.16.14-.03.28 0 .4.09l1.5 1.07ZM37.8 15.39l.87 1.07c-.33.1-.7.07-1.1-.08-.12-.2-.2-.43-.25-.7-.02-.16.05-.26.2-.3a.53.53 0 0 1 .29 0Z" fill="#D7D8DB"/><path d="m37.41 16.42.17-.04c.4.15.76.18 1.09.08a1.9 1.9 0 0 1 1.08.84c.04.1 0 .16-.1.16l-21.72.01c-.23 0-.51.03-.83.1-.85.15-1.12 0-.8-.43l.69-.64h8.81c2.76 0 5.54 0 8.34.03.38 0 .65-.04.82-.13.28-.16.68-.17 1.2-.04.52.14.94.15 1.25.06Z" fill="#F7D001"/><path d="M16.3 17.14c-.32.44-.05.58.8.42.32-.06.6-.09.83-.09l21.72-.01c.1 0 .14-.05.1-.16a.91.91 0 0 0-.06-.1l.76.98c.31 2.09.16 3.98-.46 5.68-.95 2.6-2.53 5.2-4.73 7.8a32.1 32.1 0 0 1-6.57 5.9.68.68 0 0 0-.27.33c-.09.23-.32.28-.68.15a.13.13 0 0 1-.1-.12.7.7 0 0 0-.02-.12.36.36 0 0 0-.15-.23c-3.3-2.25-6.13-5-8.5-8.25-3.01-4.14-4.09-7.78-3.2-10.92.03-.15-.03-.22-.17-.21a.53.53 0 0 0-.2.06c.25-.45.54-.82.9-1.11Z" fill="#B07B54"/><path d="M15.4 18.25a.53.53 0 0 1 .2-.06c.14 0 .2.06.16.2-.88 3.15.2 6.8 3.21 10.93 2.37 3.25 5.2 6 8.5 8.25.08.05.13.13.15.23a.7.7 0 0 1 .02.12c0 .06.04.1.1.12.36.13.59.08.68-.15a.68.68 0 0 1 .27-.33 32.1 32.1 0 0 0 6.57-5.91 25.76 25.76 0 0 0 4.73-7.8c.62-1.69.77-3.58.46-5.67 1.15.88 1.49 2.04 1.02 3.5l-.27 1.6c-1.58 4.76-4.62 9.04-9.1 12.85l-1.95 1.45c-.2.15-.19.29.02.42 1.04.62 2.13 1.16 3.27 1.6a6.8 6.8 0 0 0 4.3.35c.3-.17.6-.2.9-.1l-2.2 1.71a15.91 15.91 0 0 1-7.9-2.34.84.84 0 0 0-.95 0 15.35 15.35 0 0 1-7.51 2.3c-1.1-.3-2-.9-2.69-1.78 1.88.59 3.68.52 5.42-.2 1.06-.43 2.1-.95 3.11-1.56.2-.11.2-.24.02-.37l-1.18-.84c-4.62-3.67-7.8-7.85-9.55-12.53a19.68 19.68 0 0 1-.9-4.26l1.09-1.73Z" fill="#F7D001"/><path d="m28.02 18.7 11.18-.02c.15 0 .24.08.28.22.15.6.18 1.1.07 1.51a29.76 29.76 0 0 1-10.63 16.52l-.36.34c-.18.16-.35.24-.53.24a.77.77 0 0 1-.53-.24l-.36-.34a29.75 29.75 0 0 1-10.65-16.5c-.1-.41-.08-.91.07-1.51.04-.15.13-.22.28-.23h11.18Z" fill="#F7D001"/><path d="M23.9 19.65c-.93 1-1.27 1.9-1.03 2.65.04.15.03.3-.05.44l-.46.8c-.16.26-.13.5.1.72l.89.9a.6.6 0 0 1 .14.23c.43 1.29 1.27 1.72 2.52 1.3.15-.04.3-.04.46 0 .87.29 1.67.2 2.42-.28.16-.1.34-.12.51-.04a.5.5 0 0 1 .32.41c.06.4.34.53.83.41a.5.5 0 0 1 .4.07c.13.08.28.25.46.5.09.14.1.28.01.42l-.38.67a.3.3 0 0 0 .02.37l1.14 1.47.26 1.44a23.9 23.9 0 0 1-4.29 4.19c-.11.08-.22.08-.33 0a31.84 31.84 0 0 1-6.61-7.34 25.64 25.64 0 0 1-3.76-9.05c-.04-.19.04-.28.24-.28h6.18Z" fill="#F0F3FA"/><path d="m30.8 19.63 4.56.84c.15.02.25.1.3.23 1.34 3.14.19 6.47-3.46 9.99l-1.14-1.47a.3.3 0 0 1-.02-.37l.38-.67a.36.36 0 0 0-.01-.41 1.73 1.73 0 0 0-.46-.51.5.5 0 0 0-.4-.07c-.5.12-.77-.01-.83-.4a.5.5 0 0 0-.32-.42.52.52 0 0 0-.51.04c-.75.47-1.55.57-2.42.29a.71.71 0 0 0-.46 0c-1.25.41-2.1-.02-2.52-1.31a.6.6 0 0 0-.14-.24l-.9-.9c-.22-.21-.25-.45-.1-.72l.47-.8c.08-.13.1-.28.05-.43-.24-.76.1-1.64 1.02-2.65l6.9-.02Z" fill="#D7D8DB"/><path d="m32.46 32.13-.26-1.44c3.65-3.52 4.8-6.85 3.46-9.99a.37.37 0 0 0-.3-.23l-4.56-.84 7.49.05c.26 0 .36.13.3.38-.99 4.5-3.03 8.53-6.13 12.07Z" fill="#C6C8CA"/><path d="m14.31 19.98.05.35c.25 1.76.53 3.06.85 3.9 1.75 4.7 4.93 8.87 9.55 12.54a9.59 9.59 0 0 1-2.52-1.44c-.49-.39-1.25-1.1-2.27-2.13l-.67-.68c-.6-.6-1.3-.68-2.07-.26-.16.08-.26.04-.31-.13a.38.38 0 0 1 0-.22l.35-.81c.15-.37.07-.68-.25-.92-.6-.45-1.16-.7-1.67-.73a.44.44 0 0 1-.35-.21c-.28-.43-.58-.66-.89-.7a.34.34 0 0 1-.32-.25.58.58 0 0 1 .13-.57c.1-.11.1-.23.04-.36-.21-.36-.47-.66-.77-.92a.66.66 0 0 1-.15-.18l-.77-1.47c.42-1.8 1.1-3.41 2.04-4.81Z" fill="#F0F3FA"/><path d="M38.64 39.84c-.3-.1-.59-.06-.9.1.23-.3.62-.72 1.17-1.24a14.64 14.64 0 0 0 4.22-11.85l-.22-2.58a.53.53 0 0 0-.16-.35l-.38-.38a.43.43 0 0 1-.1-.49c.31-.83.16-1.45-.47-1.84a.62.62 0 0 1-.13-.35.2.2 0 0 1 .1-.19.2.2 0 0 1 .23.01c.28.2.51.48.68.87a15.3 15.3 0 0 1 .97 9.85 16.32 16.32 0 0 1-5.01 8.44Z" fill="#D7D8DB"/><path d="M37.74 39.95a6.8 6.8 0 0 1-4.3-.35 20.84 20.84 0 0 1-3.27-1.6c-.2-.13-.21-.27-.02-.42l1.95-1.45.57 1.5c.05.13.03.24-.07.33a.28.28 0 0 0-.08.13c-.05.13 0 .21.14.24 1.05.2 1.85.12 2.4-.25.97-.65 1.83-1.42 2.57-2.31.1-.12.15-.26.15-.42v-.49c0-.15.05-.27.16-.37l1.4-1.25c.5-.46.6-1.02.3-1.68a3.26 3.26 0 0 1 0-1.01c.03-.3.14-.61.34-.94.69-1.09 1.17-1.81 1.44-2.17a4.8 4.8 0 0 0 .67-2.26.27.27 0 0 0-.1-.26.27.27 0 0 0-.28-.04l-.62.27c-.15.06-.27.02-.34-.13a.39.39 0 0 1-.04-.18c0-.1.06-.22.18-.35.36-.4.46-.8.31-1.2l.27-1.61c.2-.08.31-.24.33-.47.63.4.78 1 .47 1.84a.43.43 0 0 0 .1.49l.38.38c.1.1.16.21.16.35l.22 2.58c.37 4.2-.8 7.91-3.52 11.13-.13.15-.36.39-.7.72-.55.52-.94.94-1.17 1.25Z" fill="#C6C8CA"/><path d="M41.2 23.28c.15.41.05.81-.31 1.2-.12.14-.18.26-.18.36 0 .07.01.13.04.18.07.15.18.2.34.13l.62-.27c.1-.04.2-.03.28.04.08.06.12.15.1.26l-.02.17a4.81 4.81 0 0 1-.65 2.1c-.27.35-.75 1.07-1.44 2.16-.2.33-.31.64-.34.94-.04.56-.04.9 0 1.01.3.66.2 1.22-.31 1.68l-1.39 1.25a.47.47 0 0 0-.16.37v.5c0 .15-.05.29-.15.4-.74.9-1.6 1.67-2.57 2.32-.55.37-1.35.45-2.4.25-.14-.03-.19-.1-.14-.24a.28.28 0 0 1 .08-.13c.1-.09.12-.2.07-.33l-.57-1.5c4.48-3.81 7.52-8.1 9.1-12.85ZM12.27 24.79l.77 1.47c.04.07.09.13.15.18.3.26.56.56.77.92.07.13.05.25-.04.36a.58.58 0 0 0-.13.57c.05.16.15.24.32.26.31.02.6.26.89.69.08.13.2.2.35.2.5.05 1.06.3 1.67.74.32.24.4.55.25.92l-.35.8-.37.8a.43.43 0 0 0 0 .4c.25.5.33 1.02.26 1.55a.75.75 0 0 1-.16.37l-.66.78c-.08.1-.11.21-.1.33l.16 2.26c-.68-.2-1.25-.74-1.73-1.61-2.16-3.97-2.85-7.96-2.05-12Z" fill="#B1B2B6"/><path d="m24.76 36.77 1.18.84c.18.13.18.26-.02.37a24.2 24.2 0 0 1-3.1 1.57 7.79 7.79 0 0 1-5.43.2 4.02 4.02 0 0 1-1.34-1.36l-.16-2.26c-.01-.12.02-.23.1-.33l.66-.78c.09-.11.14-.23.16-.37a2.64 2.64 0 0 0-.26-1.55.43.43 0 0 1 0-.4l.37-.8a.38.38 0 0 0 0 .23c.05.17.15.21.3.13.79-.42 1.47-.33 2.07.26l.68.68a30 30 0 0 0 2.27 2.13c.77.61 1.61 1.1 2.52 1.44Z" fill="#D7D8DB"/><path d="M39.45 36.22h-.01c-.18-.1-.24-.36-.17-.75.06-.4.23-.83.5-1.29l.13-.22c.27-.46.56-.81.87-1.07.32-.25.57-.32.75-.21l-2.07 3.54Z" fill="#B1B2B6"/><path d="M36.43 41.56c-5.24 3.03-10.58 3.19-16.03.5-.1-.06-.2-.11-.28-.18-.4-.32-.41-.44-.04-.36 2.7-.11 5.2-.88 7.5-2.3.32-.2.64-.2.96 0a15.91 15.91 0 0 0 7.9 2.34Z" fill="#C6C8CA"/></svg>