<!-- by TradeStack --><svg viewBox="0 0 56 56" xmlns="http://www.w3.org/2000/svg"><path fill="#F0F3FA" d="M0 0h56v56H0z"/><path d="M24.55 12h-2.09v2h2.09v-2ZM27 14h-1.96v-2H27v2Zm2.7 0H27.6v-2h2.09v2Zm2.57 0h-2.09v-2h2.1v2Zm2.58 0h-2.09v-2h2.09v2ZM40 16.64h-2v-2.07h2v2.07ZM40 12h-2v2h2v-2Zm-2.58 4.64h-2.08v-2.07h2.08v2.07Zm-2.57 0h-2.09v-2.07h2.09v2.07Zm-2.58 0h-2.09v-2.07h2.1v2.07Zm-2.57 0H27.6v-2.07h2.09v2.07Zm-2.7 0h-1.97v-2.07H27v2.07Zm-2.45 0h-2.09v-2.07h2.09v2.07Zm-2.55 0h-2v-2.07h2v2.07Zm0 2.57h-2v-2.08h2v2.08Zm-2.6 0h-2.1v-2.08h2.1v2.08Zm5.15 0h-2.09v-2.08h2.09v2.08Zm2.45 0h-1.97v-2.08H27v2.08Zm2.7 0H27.6v-2.08h2.09v2.08Zm2.57 0h-2.09v-2.08h2.1v2.08Zm2.58 0h-2.09v-2.08h2.09v2.08Zm2.57 0h-2.08v-2.08h2.08v2.08Zm2.58 0h-2v-2.08h2v2.08Zm-15.45 2.56h-2.09V19.7h2.09v2.07Zm-2.55 0h-2V19.7h2v2.07Zm-2.6 0h-2.1V19.7h2.1v2.07Zm-2.58 0h-2.09V19.7h2.09v2.07Zm0 2.57h-2.09v-2.08h2.09v2.08Zm2.57 0h-2.08v-2.08h2.08v2.08Zm2.61 0h-2v-2.08h2v2.08ZM22 27h-2v-2h2v2Zm-2.6 0h-2.1v-2h2.1v2Zm-2.58 0h-2.09v-2h2.09v2Zm0 2.47h-2.09v-2.08h2.09v2.08Zm2.57 0h-2.08v-2.08h2.08v2.08Zm2.61 0h-2v-2.08h2v2.08Zm0 2.56h-2V30h2v2.03Zm-2.6 0h-2.1V30h2.1v2.03Zm-2.58 0h-2.09V30h2.09v2.03Zm0 2.57h-2.09v-2.08h2.09v2.08Zm2.57 0h-2.08v-2.08h2.08v2.08Zm2.61 0h-2v-2.08h2v2.08Zm2.55 0h-2.09v-2.08h2.09v2.08Zm0 2.56h-2.09V35h2.09v2.16Zm-2.55 0h-2V35h2v2.16Zm-2.6 0h-2.1V35h2.1v2.16Zm7.72 0h-2.09V35h2.1v2.16Zm2.58 0H27.6V35h2.09v2.16Zm2.57 0h-2.09V35h2.1v2.16Zm2.58 0h-2.09V35h2.09v2.16Zm2.57 0h-2.08V35h2.08v2.16Zm2.58 0h-2V35h2v2.16Zm0-2.56h-2v-2.08h2v2.08Zm-2.58 0h-2.08v-2.08h2.08v2.08Zm-2.57 0h-2.09v-2.08h2.09v2.08Zm0-2.57h-2.09V30h2.09v2.03Zm2.57 0h-2.08V30h2.08v2.03Zm2.58 0h-2V30h2v2.03Zm0-2.56h-2v-2.08h2v2.08Zm-2.58 0h-2.08v-2.08h2.08v2.08Zm-2.57 0h-2.09v-2.08h2.09v2.08Zm-2.58 0h-2.09v-2.08h2.1v2.08Zm0-2.57h-2.09V25h2.1v1.9Zm2.58 0h-2.09V25h2.09v1.9Zm2.57 0h-2.08V25h2.08v1.9Zm2.58 0h-2V25h2v1.9Zm-10.3 0H27.6V25h2.09v1.9Zm0 2.57H27.6v-2.08h2.09v2.08Zm0 10.26H27.6v-2.08h2.09v2.08Zm-2.58 0h-2.09v-2.08h2.1v2.08Zm-2.57 0h-2.09v-2.08h2.09v2.08Zm-2.55 0h-2v-2.08h2v2.08Zm10.27 0h-2.09v-2.08h2.1v2.08Zm2.58 0h-2.09v-2.08h2.09v2.08Zm2.57 0h-2.08v-2.08h2.08v2.08Zm2.58 0h-2v-2.08h2v2.08Zm0 2.56h-2v-2.07h2v2.07Zm-5.15 0h-2.09v-2.07h2.09v2.07Zm-2.58 0h-2.09v-2.07h2.1v2.07Zm-2.57 0H27.6v-2.07h2.09v2.07Zm-2.58 0h-2.09v-2.07h2.1v2.07Zm-2.57 0h-2.09v-2.07h2.09v2.07Zm-.12.45L23.16 44h-2l1.27-1.27h2Zm2.57 0L25.73 44h-2L25 42.73h2Zm2.58 0L28.3 44h-2l1.27-1.27h2Zm2.57 0L30.88 44h-2l1.28-1.27h2Zm2.58 0L33.46 44h-2l1.27-1.27h2Zm5.15 0L38.61 44h-2l1.27-1.27h2Zm-2.5-2.57-1.28 1.27h-.76v-1.27h2.03Zm.09.43-1.27 1.26v1.98l1.27-1.26V40.6ZM22 40.6l-1.27 1.26v1.98l1.27-1.26V40.6ZM32.15 30 31 31h-2.12l1.28-1h2Zm0-10.35L30.88 21h-2l1.28-1.35h2Zm-2.57 0L28.3 21h-2l1.27-1.35h2Zm5.15 0L33.46 21h-2l1.27-1.35h2Zm2.58 0L36.04 21h-2l1.27-1.35h2Zm2.57 0L38.61 21h-2l1.27-1.35h2ZM24.5 22.22l-1.27 1.26h-.77v-1.27h2.04Zm2.57-2.57L25.8 21h-.77v-1.35h2.04Zm-12.78 2.7-1.27 1.27v2l1.27-1.27v-2Zm0-2.56-1.27 1.27v1.99l1.27-1.27V19.8Zm0 5.13-1.27 1.27v1.99l1.27-1.27v-1.99Zm0 2.57-1.27 1.26v2l1.27-1.27v-2Zm0 2.56-1.27 1.27v1.99l1.27-1.27v-1.99Zm2.4 4.95-1.28 1.3h-2.1l1.26-1.3h2.11Zm-2.42-2.35L13 33.92v2.07l1.27-1.26v-2.08Zm18.05.17L31 34.1v.53h1.32v-1.8Zm0-2.48L31 31.6v1.98l1.32-1.26v-1.98Zm5.15-18.04L36.2 14h1.27v-1.7ZM22 12.3l-1.7 1.7h1.7v-1.7Zm-2.57 2.57-1.27 1.26v.54h1.27v-1.8Zm-2.58 2.56-1.27 1.27v.53h1.27v-1.8Zm2.4 20.17-1.27 1.27h-2.11l1.27-1.27h2.1Zm-2.41-2.13-1.27 1.27v1.83l1.27-1.27v-1.83Zm4.98 4.7-1.27 1.26h-2.1l1.27-1.26h2.1Zm-2.4-2.13-1.28 1.26v1.83l1.27-1.26v-1.83ZM29.55 30l-1.27 1h-2.1l1.26-1h2.11Zm-2.41-2.38L26 28.9v1.98l1.15-1.27v-1.98Zm.01-2.62L26 26.17v2.12l1.16-1.26V25Z" fill="#005192"/></svg>