<!-- by TradeStack --><svg viewBox="0 0 56 56" xmlns="http://www.w3.org/2000/svg"><path fill="#304550" d="M0 0h56v56H0z"/><path d="M4.1 22.43c.33-.03.62-.19.86-.48.21-.25.35-.55.42-.9.01-.06.03-.07.06 0 .1.26.2.48.3.63.23.44.6.7 1.08.76.05 0 .05.02 0 .03-.27.12-.48.22-.61.32-.2.13-.35.3-.45.48-.13.24-.24.47-.31.69-.03.07-.05.07-.07 0a1.84 1.84 0 0 0-1.3-1.46c-.11-.04-.1-.06.01-.07Zm2.71-.9-.35.26c-.04.04-.08.03-.1-.02-.08-.12-.14-.2-.2-.22-.09-.03-.1-.06-.05-.11a.9.9 0 0 0 .22-.27c.04-.08.1-.1.16-.03l.33.3c.03.03.03.06 0 .09Zm1.14 3.84c-.14.2-.41.35-.82.46-.05.02-.05.03 0 .05.37.14.67.34.89.6a4.15 4.15 0 0 1 .53.91l.02-.01c.07-.73.48-1.23 1.24-1.5.05-.02.05-.04 0-.05-.72-.19-1.13-.63-1.23-1.33-.01-.11-.04-.12-.09-.02-.12.27-.3.57-.54.9Zm6.72 1.1h-.04l-.02-.02a.35.35 0 0 1-.1-.17c-.02-.05-.02-.1.02-.13v-.02c.04-.03.09-.04.15-.03.06.01.12.05.18.1l.01.01c.02.02.02.03 0 .05l-.2.2Zm.83.3.01-.04-.01-.05c-.1-.1-.18-.21-.24-.33-.02-.03-.04-.03-.06 0l-.32.33-.02.06c0 .03 0 .05.02.06l.33.32c.02.02.04.02.06-.01.06-.12.14-.23.23-.34Zm-3.31 1.16c.34-.03.62-.2.87-.48.2-.26.35-.56.42-.9 0-.07.03-.07.05 0 .11.26.21.47.3.63.24.44.6.69 1.09.75.04 0 .04.02 0 .04-.27.11-.48.22-.61.3-.2.14-.35.3-.46.5-.12.23-.23.46-.3.68-.03.07-.05.07-.07 0a1.84 1.84 0 0 0-1.3-1.46c-.11-.03-.1-.05.01-.06Zm-1.1-.06h.05c.07.01.11.07.1.13l-.01.14c-.01.06-.07.1-.13.1h-.06a.11.11 0 0 1-.1-.13l.01-.14c.01-.06.07-.1.13-.1Zm4.58.53c.11.06.2.09.24.09.12 0 .12.03.01.09a.79.79 0 0 0-.45.59c-.02.1-.06.11-.12.02a2.02 2.02 0 0 0-.58-.64c-.05-.04-.04-.06.01-.07a.6.6 0 0 0 .31-.12c.05-.04.1-.12.18-.23l.1-.16c.01-.01.03-.02.04-.01.01 0 .02 0 .03.02V28c.06.22.14.36.23.4ZM8 28.99c-.21.26-.5.46-.89.6-.05.02-.05.03 0 .05.42.11.7.27.83.46.23.32.41.62.54.88.04.1.08.1.1 0 .1-.71.5-1.16 1.21-1.34.06-.01.06-.03 0-.05-.75-.27-1.17-.77-1.23-1.5l-.02-.01h-.03c-.18.43-.35.73-.5.9Zm4.16 1.08c.02 0 .04.02.05.05.14.6.5 1.04 1.04 1.33l.21.07.13.04c.05.02.05.03 0 .04l-.11.02c-.23.03-.4.08-.49.14-.35.23-.6.63-.79 1.22l-.01.01-.02.01h-.03l-.01-.02c-.18-.59-.45-1-.8-1.22-.09-.06-.25-.1-.48-.14l-.1-.02c-.06 0-.06-.02-.01-.04l.12-.03.22-.08c.54-.29.89-.73 1.04-1.33 0-.03.02-.05.04-.05Zm1.9.25c-.02-.02-.03-.01-.03 0a.78.78 0 0 1-.24.33c-.03.03-.03.06 0 .09.1.09.19.2.24.31.01.04.03.04.06.02.16-.12.29-.25.39-.4v-.03l-.42-.32Z" fill="#FDB813"/><path fill-rule="evenodd" d="M31 21h2v10h-2V21Zm-7 10.65v-6.99a5.85 5.85 0 0 0-2.46-.66c-1.26 0-3.53.73-3.53 3.8 0 3.05 1.97 3.33 2.83 3.33.68 0 1.11-.18 1.24-.27v.7c0 .64-.48 1.07-1.37 1.07-.71 0-1.44-.3-1.71-.45-.16.39-.5 1.18-.56 1.29a5.6 5.6 0 0 0 2.47.53c2.34 0 3.04-1.57 3.1-2.35Zm-2-1.8V25.3c-.92-.14-2 0-2 2.3s.7 2.46 1.26 2.46c.46 0 .68-.14.74-.2Zm3.5-4.13-.55-1.1S26 24 27.62 24c2.24 0 2.77 1.37 2.76 2.06v4.31c-.4.21-1.5.63-2.64.63-2.55 0-3.22-1.36-3.24-2.05 0-2.07 2.69-2.52 4.03-2.48 0-1-.58-1.28-1.4-1.28-.65 0-1.36.35-1.64.53Zm2.9 4.1v-2.45c-.66.05-1.99.4-1.99 1.42 0 1.01 1.33 1.11 1.99 1.04ZM39 21h-2v10h2V21Zm-5 10v-7h2v7h-2Zm1-8.17c.55 0 1-.4 1-.91 0-.5-.45-.92-1-.92s-1 .41-1 .92c0 .5.45.91 1 .91Zm6.43 5.34 4.07-.65c.04-1.18-.45-3.52-2.78-3.52-2.92 0-3.22 2.67-3.22 3.7 0 1.04.55 3.3 3.38 3.3 1.07 0 2.07-.34 2.44-.52 0-.08-.41-.85-.62-1.22-.1.14-.56.43-1.57.43-1.26 0-1.7-.87-1.7-1.52Zm-.13-1 2.35-.32c.03-.6-.16-1.79-1.07-1.79-1.14 0-1.28 1.7-1.28 2.12Zm10.7.33c0 1.94-.88 3.5-3 3.5s-3-1.56-3-3.5c0-1.93.86-3.5 3-3.5 2.13 0 3 1.57 3 3.5Zm-2 0c0 1.2-.3 2.18-1 2.18s-1-.98-1-2.18c0-1.2.29-2.18 1-2.18s1 .98 1 2.18Z" fill="#F0F3FA"/></svg>