<!-- by TradeStack --><svg viewBox="0 0 56 56" xmlns="http://www.w3.org/2000/svg"><path fill="#F0F3FA" d="M0 0h56v56H0z"/><path d="M30.98 30.24a5.8 5.8 0 0 0 2.12 2.7 5.48 5.48 0 0 0 6.2.01 6.32 6.32 0 0 0 1.98-2.36 5.5 5.5 0 0 0 .58-2.69 6.21 6.21 0 0 0-2.38-4.71 5.44 5.44 0 0 0-6.8.25 5.62 5.62 0 0 0-2.1 4.43 10.42 10.42 0 0 1-1.53 5.8 11.5 11.5 0 0 1-2.54 2.91c-1.99 1.64-4.24 2.45-6.75 2.42a10.52 10.52 0 0 1-8.21-3.84 10.46 10.46 0 0 1-2.52-6.32c-.22-3.45.9-6.38 3.39-8.8a10.09 10.09 0 0 1 7.77-3.02 10.5 10.5 0 0 1 7.43 3.45c.06.06.06.12.01.18a11.24 11.24 0 0 0-2.45 5.12c-.04.16-.08.17-.14.02a5.98 5.98 0 0 0-2.11-2.7c-.97-.68-2.06-1-3.27-.95-1.59.05-2.93.7-4.02 1.93a5.68 5.68 0 0 0-1.44 4.49 5.9 5.9 0 0 0 2.46 4.35c.94.7 2.03 1.04 3.28 1a5.03 5.03 0 0 0 3.23-1.16 6.09 6.09 0 0 0 2.3-4.75c.01-.79.03-1.24.04-1.37.17-1.22.44-2.22.8-3a11.79 11.79 0 0 1 4.78-5.31 9.85 9.85 0 0 1 6.11-1.26c2.53.25 4.68 1.27 6.47 3.06a10.9 10.9 0 0 1 3.25 9.29 10.2 10.2 0 0 1-1.87 4.87 11.64 11.64 0 0 1-3.88 3.48 9.72 9.72 0 0 1-3.34 1.12 10.55 10.55 0 0 1-9.46-3.27c-.06-.06-.07-.12-.01-.18a10.6 10.6 0 0 0 2.47-5.17c.03-.18.08-.18.15-.02Z" fill="#1E1E1E"/></svg>