<!-- by TradeStack --><svg viewBox="0 0 56 56" xmlns="http://www.w3.org/2000/svg"><path fill="#F0F3FA" d="M0 0h56v56H0z"/><path d="M13 28v-8.5l7.5 4.25L13 28Z" fill="#DAEEF9"/><path d="M20.5 23.75v-8.5L28 19.5l-7.5 4.25Z" fill="#A8A8A8"/><path d="M13 36.5V28l7.5 4.25L13 36.5Z" fill="#90CCF0"/><path d="M20.5 32.25v-8.5L28 28l-7.5 4.25Z" fill="#DAEEF9"/><path d="M20.5 40.75v-8.5L28 36.5l-7.5 4.25Z" fill="#90CCF0"/><path d="M20.5 32.25v-8.5L13 28l7.5 4.25Z" fill="#B5DDF6"/><path d="M20.5 23.75v-8.5L13 19.5l7.5 4.25Z" fill="#C5C5C5"/><path d="M20.5 40.75v-8.5L13 36.5l7.5 4.25Z" fill="#46AAE6"/><path d="M28 28v-8.5l-7.5 4.25L28 28Z" fill="#C5C5C5"/><path d="M28 19.5V11l-7.5 4.25L28 19.5Z" fill="#8B8B8B"/><path d="M28 36.5V28l-7.5 4.25L28 36.5Z" fill="#B5DDF6"/><path d="M28 45v-8.5l-7.5 4.25L28 45Z" fill="#46AAE6"/><path d="M43 28v-8.5l-7.5 4.25L43 28Z" fill="#3B4CA4"/><path d="M35.5 23.75v-8.5L28 19.5l7.5 4.25Z" fill="#8B8B8B"/><path d="M43 36.5V28l-7.5 4.25L43 36.5Z" fill="#3B4CA6"/><path d="M35.5 32.25v-8.5L28 28l7.5 4.25ZM35.5 40.75v-8.5L28 36.5l7.5 4.25Z" fill="#6C79BD"/><path d="M35.5 32.25v-8.5L43 28l-7.5 4.25Z" fill="#0A2090"/><path d="M35.5 23.75v-8.5L43 19.5l-7.5 4.25Z" fill="#6E6E6E"/><path d="M35.5 40.75v-8.5L43 36.5l-7.5 4.25Z" fill="#0A2090"/><path d="M28 28v-8.5l7.5 4.25L28 28Z" fill="#A8A8A8"/><path d="M28 19.5V11l7.5 4.25L28 19.5Z" fill="#6E6E6E"/><path d="M28 36.5V28l7.5 4.25L28 36.5ZM28 45v-8.5l7.5 4.25L28 45Z" fill="#3B4CA4"/></svg>