<!-- by TradeStack --><svg viewBox="0 0 56 56" xmlns="http://www.w3.org/2000/svg"><path fill="#F0F3FA" d="M0 0h56v56H0z"/><path d="m43.47 24.14.2.64a15.94 15.94 0 0 1-4.37 14.54l-.87.7-2.77-1.35-2.4 3.13 1.51.64-.57.3c-.96.4-1.97.72-3 .94l-1.06.1 13.33-19.64Zm-2.44-5.37.23.28 1.04 1.92-13.79 22.97-.56.06-1.01-.1 14.09-25.13Zm-3.97-3.92 1.96 1.6-13.4 27.31-.9-.08-.46-.15 12.8-28.68ZM27.96 12a16 16 0 0 1 6.24 1.26l.27.14L23.2 43.2l-1.48-.46a16.01 16.01 0 0 1-8.54-8.51l-.31-1 10.62 4.43 1.5-4.15L12 27.18l.25-2.4A16.04 16.04 0 0 1 27.95 12Z" fill="#023852"/></svg>