<!-- by TradeStack --><svg viewBox="0 0 56 56" xmlns="http://www.w3.org/2000/svg"><path fill="#F0F3FA" d="M0 0h56v56H0z"/><path d="M19.3 27.9V30H18v-5h1.26v1.96h.03a1.1 1.1 0 0 1 1.1-.76c.25 0 .48.06.67.18.19.12.33.29.44.5.1.21.15.45.15.73V30h-1.3v-2.1a.64.64 0 0 0-.13-.45.48.48 0 0 0-.39-.16c-.1 0-.2.03-.28.08a.48.48 0 0 0-.18.2.75.75 0 0 0-.07.32ZM4.9 30 4 26h1.28l.41 2.44h.03L6.18 26h1.24l.48 2.42h.02l.4-2.42H9.6l-.9 4H7.33l-.5-2.15h-.04L6.28 30H4.89Zm44.53-2.22V30H48v-4h1.35v.8h.05c.08-.25.23-.44.45-.59.22-.14.47-.21.77-.21.28 0 .52.06.73.2.2.12.37.3.48.52.11.22.17.47.17.76V30h-1.43v-2.22c0-.2-.04-.35-.15-.46a.53.53 0 0 0-.41-.17.6.6 0 0 0-.31.08.5.5 0 0 0-.2.21c-.05.1-.07.2-.07.34Zm-9.5 1.97c.3.17.65.25 1.07.25.42 0 .78-.08 1.08-.25.3-.17.52-.4.68-.7.16-.3.24-.65.24-1.05s-.08-.75-.24-1.05a1.7 1.7 0 0 0-.68-.7c-.3-.17-.66-.25-1.08-.25-.42 0-.78.08-1.08.25-.3.17-.52.4-.68.7-.16.3-.24.65-.24 1.05s.08.75.24 1.05c.16.3.39.53.68.7Zm1.38-.9a.43.43 0 0 1-.3.12.46.46 0 0 1-.32-.12.75.75 0 0 1-.2-.34 1.72 1.72 0 0 1-.07-.52c0-.2.02-.38.07-.52a.75.75 0 0 1 .2-.34c.09-.08.2-.12.32-.12s.22.04.3.12c.09.08.16.2.2.34.05.14.07.32.07.52s-.02.38-.07.52a.77.77 0 0 1-.2.34ZM45.5 30c-.42 0-.78-.08-1.08-.25-.3-.17-.52-.4-.68-.7-.16-.3-.24-.65-.24-1.05s.08-.75.24-1.05c.16-.3.39-.53.68-.7.3-.17.66-.25 1.08-.25.42 0 .78.08 1.08.25.3.17.52.4.68.7.16.3.24.65.24 1.05s-.08.75-.24 1.05c-.16.3-.39.53-.68.7-.3.17-.66.25-1.08.25Zm.01-1.03c.12 0 .22-.04.3-.12.09-.08.16-.2.2-.34.05-.14.07-.32.07-.52s-.02-.38-.07-.52a.77.77 0 0 0-.2-.34.43.43 0 0 0-.3-.12.46.46 0 0 0-.32.12.75.75 0 0 0-.2.34 1.7 1.7 0 0 0-.07.52c0 .2.02.38.07.52.04.15.11.26.2.34.09.08.2.12.32.12ZM34.43 26v5h1.34v-1.94h.02a1.05 1.05 0 0 0 .57.55 1.38 1.38 0 0 0 1.2-.12c.22-.13.4-.33.53-.6.13-.28.2-.63.2-1.04 0-.44-.07-.79-.21-1.06a1.39 1.39 0 0 0-1.24-.79c-.19 0-.35.03-.49.1-.14.05-.25.14-.35.24-.1.1-.16.21-.21.34h-.03V26h-1.33Zm1.38 2.3a1.33 1.33 0 0 1-.07-.45c0-.18.02-.33.07-.46a.65.65 0 0 1 .2-.3.5.5 0 0 1 .32-.1c.12 0 .23.04.31.1.1.07.16.17.2.3.05.13.07.28.07.46s-.02.33-.07.46a.63.63 0 0 1-.2.3.49.49 0 0 1-.3.1.5.5 0 0 1-.33-.11.68.68 0 0 1-.2-.3Zm-2.2-.99h-1.18a.37.37 0 0 0-.07-.2.43.43 0 0 0-.18-.13.55.55 0 0 0-.23-.05c-.1 0-.2.02-.28.06-.08.05-.12.11-.11.2 0 .05.02.1.06.15.05.05.14.09.28.11l.72.15c.36.07.63.19.81.36.18.17.27.4.27.69 0 .27-.08.51-.23.72-.14.2-.35.35-.6.47-.26.1-.55.16-.88.16a2 2 0 0 1-1.27-.36c-.31-.25-.48-.57-.52-.96h1.27a.4.4 0 0 0 .17.28c.1.07.21.1.36.1.12 0 .21-.02.29-.07.08-.04.11-.1.12-.18a.2.2 0 0 0-.1-.18.85.85 0 0 0-.31-.1l-.63-.13c-.36-.06-.63-.2-.81-.39-.18-.2-.27-.44-.27-.75 0-.27.06-.5.2-.68.12-.19.31-.33.56-.43.25-.1.54-.15.88-.15.5 0 .91.12 1.2.35.3.23.46.55.48.96ZM27 26v4h1.38v-2.06a.8.8 0 0 1 .09-.39c.06-.11.14-.2.25-.26a.7.7 0 0 1 .36-.1 2.2 2.2 0 0 1 .51.07v-1.2a1.1 1.1 0 0 0-.35-.06.8.8 0 0 0-.53.2c-.15.12-.26.32-.33.6h-.04V26H27Zm-9.99 1v-1h-.65v-1H15v1h-.47v1H15v1.8c0 .27.06.5.16.69.11.18.27.32.48.4.21.09.47.12.78.1a2.17 2.17 0 0 0 .66-.12l-.2-1a1.9 1.9 0 0 1-.26.04c-.06 0-.1-.01-.14-.03a.18.18 0 0 1-.09-.08.33.33 0 0 1-.03-.14V27h.65Zm-4.96 3c-.42 0-.79-.08-1.1-.24-.3-.16-.54-.39-.7-.68A2.2 2.2 0 0 1 10 28c0-.4.08-.75.25-1.05.16-.3.4-.53.7-.7.3-.17.66-.25 1.07-.25.3 0 .57.05.82.14a1.71 1.71 0 0 1 1.02 1.02c.1.24.14.52.14.83v.32h-2.6v.06c0 .13.04.24.09.34.05.1.13.17.23.23.1.05.22.08.36.08.1 0 .2-.01.27-.04a.61.61 0 0 0 .21-.12c.06-.05.1-.11.13-.18H14c-.05.27-.15.5-.32.7-.17.2-.39.35-.66.46-.28.1-.6.16-.97.16Zm-.64-2.45h1.27c0-.12-.03-.21-.08-.3a.56.56 0 0 0-.23-.2.68.68 0 0 0-.32-.07.7.7 0 0 0-.32.07.55.55 0 0 0-.32.5Zm11.93 2.21c.31.16.68.24 1.1.24.37 0 .69-.05.96-.16.28-.11.5-.26.67-.46.17-.2.27-.43.32-.7h-1.3a.47.47 0 0 1-.14.18.61.61 0 0 1-.2.12.85.85 0 0 1-.28.04.74.74 0 0 1-.36-.08.58.58 0 0 1-.23-.23.68.68 0 0 1-.08-.34v-.06h2.59V28c0-.3-.05-.59-.14-.83a1.74 1.74 0 0 0-1.02-1.02c-.25-.1-.52-.14-.82-.14-.41 0-.77.08-1.07.25-.3.17-.54.4-.7.7-.17.3-.25.65-.25 1.05 0 .42.08.78.25 1.08.16.3.4.52.7.68Zm1.73-2.21H23.8a.55.55 0 0 1 .32-.5.7.7 0 0 1 .32-.07c.12 0 .23.02.32.07a.56.56 0 0 1 .31.5Z"/></svg>