<!-- by TradeStack --><svg viewBox="0 0 56 56" xmlns="http://www.w3.org/2000/svg"><path fill="#FECB0D" d="M0 0h56v56H0z"/><path fill="#231C1C" d="M48 21h2v2h-2zM48 25h2v2h-2zM46 23h2v2h-2zM50 23h2v2h-2zM8.32 33 6 30.15V33H4v-9h2v4.97L8.09 26h2.67l-2.72 3.62L11 33H8.32ZM44.32 33 42 30.15V33h-2v-9h2v4.97L44.04 26h2.67l-2.67 3.62L47 33h-2.68ZM13 27.23c.23-.38.5-.68.84-.9A2.1 2.1 0 0 1 15 26v2h-.54c-1.01 0-1.46.81-1.46 1.79V33h-2v-7h2v1.23ZM18.48 33A3.39 3.39 0 0 1 15 29.5c0-2 1.5-3.5 3.5-3.5s3.5 1.5 3.5 3.5-1.52 3.5-3.52 3.5Zm0-1.8c.93 0 1.52-.85 1.52-1.7 0-.84-.57-1.7-1.5-1.7-.95 0-1.5.85-1.5 1.7 0 .84.53 1.7 1.48 1.7ZM30.34 26c1.7 0 2.66 1.34 2.66 2.95V33h-2v-3.76c0-.9-.46-1.4-1.24-1.4-.77 0-1.26.49-1.26 1.4V33h-2v-3.76c0-.9-.46-1.4-1.24-1.4-.77 0-1.26.49-1.26 1.4V33h-2v-7h2v.94c.41-.58 1.09-.94 1.91-.94 1 0 1.8.47 2.23 1.3a2.6 2.6 0 0 1 2.2-1.3Z"/><path d="M40 29.39c0 .2-.01.4-.04.61h-4.84c.06.75.56 1.3 1.33 1.3.53 0 .9-.21 1.11-.65h2.28C39.44 32.15 38 33 36.52 33A3.4 3.4 0 0 1 33 29.5c0-2.05 1.48-3.5 3.52-3.5 1.22 0 2.41.51 3.03 1.6.3.51.45 1.1.45 1.79ZM38 29c0-.73-.81-1.33-1.5-1.33-.72 0-1.39.62-1.5 1.33h3Z" fill="#231C1C"/></svg>