<!-- by TradeStack --><svg viewBox="0 0 56 56" xmlns="http://www.w3.org/2000/svg"><path fill="#255F76" d="M0 0h56v56H0z"/><path d="M6.28 22.13c-.11 0-.18.03-.22.08a.4.4 0 0 0-.06.24V27h3.45c.27 0 .41-.11.41-.34H10v1.55h-.14c0-.14-.14-.21-.4-.21H4.71v-.13c.1 0 .18-.03.22-.08a.3.3 0 0 0 .06-.2V22.4a.3.3 0 0 0-.06-.2c-.04-.04-.11-.07-.22-.07V22h1.56v.13ZM10.65 27.88c.14 0 .23-.02.28-.06.05-.05.07-.1.07-.18v-4.28a.22.22 0 0 0-.07-.18c-.05-.04-.14-.06-.28-.06V23h1.7v.12c-.14 0-.23.02-.28.06a.22.22 0 0 0-.07.18v4.28c0 .08.02.13.07.18.05.04.14.06.28.06V28h-1.7v-.12ZM32.65 35.88c.14 0 .23-.02.28-.06.05-.05.07-.1.07-.18v-4.28a.22.22 0 0 0-.07-.18c-.05-.04-.14-.06-.28-.06V31h1.7v.12c-.14 0-.23.02-.28.06a.22.22 0 0 0-.07.18v4.28c0 .08.02.13.07.18.05.04.14.06.28.06V36h-1.7v-.12ZM19 26.69v-3.33a.28.28 0 0 0-.05-.18c-.03-.04-.1-.06-.19-.06V23h1.48v.12c-.1 0-.16.02-.19.06a.28.28 0 0 0-.05.18v4.28c0 .08.02.13.05.18.03.04.1.06.19.06V28h-1.56v-.12c.13 0 .2-.03.2-.08a.17.17 0 0 0-.04-.11.68.68 0 0 1-.06-.08L15 23.81v3.83c0 .08.02.13.05.18.03.04.1.06.2.06V28h-1.5v-.12c.1 0 .17-.02.2-.06.03-.05.05-.1.05-.18v-4.28a.28.28 0 0 0-.05-.18c-.03-.04-.1-.06-.2-.06V23h1.98v.12c-.07 0-.12 0-.15.02s-.04.05-.04.09c0 .02 0 .04.03.06a.5.5 0 0 0 .05.07l3.36 3.33H19ZM41 34.69v-3.33a.28.28 0 0 0-.05-.18c-.03-.04-.1-.06-.19-.06V31h1.48v.12c-.1 0-.16.02-.19.06a.28.28 0 0 0-.05.18v4.28c0 .08.02.13.05.18.03.04.1.06.19.06V36h-1.56v-.12c.13 0 .2-.03.2-.08a.17.17 0 0 0-.04-.11.68.68 0 0 1-.06-.08L37 31.81v3.83c0 .08.02.13.05.18.03.04.1.06.2.06V36h-1.49v-.12c.1 0 .16-.02.19-.06.03-.05.05-.1.05-.18v-4.28a.28.28 0 0 0-.05-.18c-.03-.04-.1-.06-.2-.06V31h1.98v.12c-.07 0-.12 0-.15.02s-.04.05-.04.09c0 .02 0 .04.03.06a.5.5 0 0 0 .05.07l3.36 3.33H41ZM24.16 27c1.16 0 1.89-.5 1.89-1.39 0-1.11-.84-1.61-2.07-1.61H22v3h2.16ZM21 23.36a.28.28 0 0 0-.05-.18c-.03-.04-.1-.06-.19-.06V23h3.3c1.62 0 2.94 1.19 2.94 2.61 0 1.34-1.13 2.39-2.75 2.39h-3.49v-.12c.1 0 .16-.02.2-.06.02-.05.04-.1.04-.18v-4.28ZM28.54 26.5a.27.27 0 0 0-.03.12c0 .66 1.88.66 2.29.66.6 0 1.98-.05 1.98-.8 0-.58-1.05-.48-1.47-.48H30.2c-.88-.01-2.42-.38-2.42-1.5 0-1.27 2.26-1.5 3.15-1.5.65 0 1.3.1 1.9.3.12.04.21.06.29.06.08 0 .14-.02.18-.04l.11-.09.14.05-.63 1.08-.12-.07.01-.12c0-.05-.04-.1-.14-.16-.48-.33-1.18-.3-1.74-.3-.54 0-2.15-.04-2.15.79 0 .62 1.3.5 1.69.5l1.11.01c.92.03 2.2.32 2.2 1.47 0 .84-1 1.25-1.68 1.4a6 6 0 0 1-1.28.12c-.81 0-1.61-.14-2.36-.46a.89.89 0 0 0-.33-.1c-.07 0-.15.05-.24.12l-.11-.06.61-1.07.15.07ZM35 23.33a.25.25 0 0 0-.05-.16c-.03-.04-.1-.06-.18-.06V23h4.73c.17 0 .27-.01.32-.04.04-.03.06-.08.06-.14H40v1.44h-.12a.24.24 0 0 0-.07-.2c-.05-.04-.15-.06-.3-.06H36v1h2.49c.12 0 .21-.02.28-.06.08-.03.11-.1.11-.2H39v1.51h-.12c0-.1-.02-.16-.08-.2a.56.56 0 0 0-.3-.05H36v1h3.49c.13 0 .23-.02.3-.07.06-.05.1-.13.1-.24H40v1.49h-.12c0-.12-.1-.18-.33-.18h-4.78v-.11c.09 0 .15-.02.18-.06.03-.04.05-.1.05-.16v-4.34ZM42.23 23.12c-.09 0-.15.02-.18.06a.34.34 0 0 0-.05.2V27h3.54c.23 0 .34-.1.34-.29H46v1.47h-.12c0-.12-.1-.18-.34-.18h-4.77v-.12c.09 0 .15-.02.18-.06.03-.04.05-.1.05-.17v-4.3a.27.27 0 0 0-.05-.17c-.03-.04-.1-.06-.18-.06V23h1.46v.12ZM48.23 23.12c-.09 0-.15.02-.18.06a.34.34 0 0 0-.05.2V27h3.54c.23 0 .34-.1.34-.29H52v1.47h-.12c0-.12-.1-.18-.34-.18h-4.77v-.12c.09 0 .15-.02.18-.06.03-.04.05-.1.05-.17v-4.3a.27.27 0 0 0-.05-.17c-.03-.04-.1-.06-.18-.06V23h1.46v.12ZM14.73 35.85c.1 0 .18-.02.21-.07a.3.3 0 0 0 .06-.2V31h-1.48c-.14 0-.24.02-.3.06-.06.04-.09.12-.09.23H13V29.7h.13c0 .2.13.29.4.29h3.95c.26 0 .39-.1.39-.29H18v1.58h-.13c0-.11-.03-.19-.1-.23-.05-.04-.15-.06-.3-.06H16v4.6c0 .08.02.15.06.2.03.04.1.07.2.07V36l-1.53-.02v-.13ZM22.7 33.5c.63 0 .78-.23.78-.83 0-.63-.21-.67-.83-.67H20v1.5h2.7ZM20 35.66c0 .07.02.12.05.16.04.05.1.07.2.07V36h-1.5v-.11c.1 0 .16-.02.2-.07.03-.04.05-.1.05-.16v-4.32a.25.25 0 0 0-.05-.16c-.04-.05-.1-.07-.2-.07V31h4.04c1.06 0 1.65.65 1.65 1.67 0 .8-.13 1.49-1.18 1.62l1.33 1.35.18.2c.05.03.12.05.23.05V36h-1.63v-.11c.1 0 .15-.01.18-.02.02-.02.03-.04.03-.07 0-.04-.02-.07-.05-.1l-1.35-1.37H20v1.33ZM29.81 34l-1.06-2-1.04 2h2.1Zm-2.8 1.43-.09.19a.42.42 0 0 0-.05.16c0 .07.06.1.17.1V36h-1.21v-.11a.5.5 0 0 0 .1-.01c.03-.01.06-.03.08-.06a16.06 16.06 0 0 0 .22-.38l1.8-3.84.11-.24c.03-.06.04-.1.04-.13 0-.08-.06-.12-.18-.12V31h1.44v.11c-.1 0-.15.04-.15.12 0 .04.01.09.05.15l.12.25 1.9 3.78.14.27c.03.06.07.1.1.14.02.03.06.05.09.06h.14V36h-1.38v-.11c.08 0 .13-.02.16-.04s.04-.05.04-.1c0-.03 0-.06-.02-.1-.02-.03-.06-.1-.1-.22l-.44-.76h-2.7l-.38.76Z" fill="#fff"/></svg>