<!-- by TradeStack --><svg viewBox="0 0 56 56" xmlns="http://www.w3.org/2000/svg"><path fill="#22333C" d="M0 0h56v56H0z"/><path d="M20 28V38.5a.5.5 0 0 1-.27.46c-1.06.63-2.14 1.26-3.24 1.89A.98.98 0 0 1 16 41a.98.98 0 0 1-.49-.14l-3.24-1.88a.5.5 0 0 1-.27-.47V17.5c0-.2.09-.36.26-.47l3.25-1.88c.16-.1.32-.14.49-.14.17 0 .33.05.49.14l3.24 1.88c.18.11.27.26.27.47v10.5Zm20-13a1 1 0 0 1 .5.14l3.23 1.88c.18.11.27.26.27.47V38.5a.5.5 0 0 1-.27.47 336.2 336.2 0 0 1-3.24 1.88.97.97 0 0 1-.49.14.97.97 0 0 1-.5-.14l-3.23-1.88a.5.5 0 0 1-.27-.47 45272.42 45272.42 0 0 0 0-21.02c0-.2.09-.36.27-.46 1.06-.63 2.14-1.26 3.24-1.89.16-.1.32-.14.49-.14Zm-11.54 5.14A.94.94 0 0 0 28 20c-.14 0-.3.05-.46.14l-3.2 1.8a.6.6 0 0 0-.32.53C24 23.05 24 24.9 24 28c0 3.1 0 4.95.02 5.53 0 .23.12.41.33.53l3.19 1.8c.16.1.32.14.46.14s.3-.05.46-.14l3.2-1.8a.6.6 0 0 0 .32-.53C32 32.95 32 31.1 32 28c0-3.1 0-4.95-.02-5.53a.6.6 0 0 0-.33-.53l-3.19-1.8Z" fill="#B1D952"/></svg>