<!-- by TradeStack --><svg viewBox="0 0 56 56" xmlns="http://www.w3.org/2000/svg"><path fill="#0093B1" d="M0 0h56v56H0z"/><path d="M35 21.05v2.73l-3.98 4.04L35 31.78v3.18c4.89-1.43 8.9-4.13 11-6.85-3.73-3.61-7.44-5.84-11-7.06ZM34.86 35l-.14.04c-1.2 3.58-3.35 7.28-6.83 10.96-2.45-2.1-5.1-6.07-6.59-10.9a25.19 25.19 0 0 1-11.3-7 25.07 25.07 0 0 1 11-7.15c1.1-3.75 3.26-7.5 6.9-10.95 2.6 2.2 5.47 6.11 6.96 11h-3.03L28 24.81 24.17 21H21v2.78l3.98 4.04L21 31.78V35h2.94L28 30.88 32.06 35h2.8Z" fill="#fff"/></svg>