<!-- by TradeStack --><svg viewBox="0 0 56 56" xmlns="http://www.w3.org/2000/svg"><path fill="#F0F3FA" d="M0 0h56v56H0z"/><path d="M11 17.5c0-.83.77-1.5 1.72-1.5h27.56c.95 0 1.72.67 1.72 1.5s-.77 1.5-1.72 1.5H12.72c-.95 0-1.72-.67-1.72-1.5Z" fill="#AC6BFE"/><path d="M21 29.5c0-.83 1.03-1.5 1.64-1.5H39.4c.61 0 1.6.67 1.6 1.5s-.99 1.5-1.6 1.5H22.64c-.61 0-1.64-.67-1.64-1.5Z" fill="#75CC87"/><path d="M25 35.5c0-.83 1.04-1.5 1.65-1.5H37.4c.62 0 1.61.67 1.61 1.5S38 37 37.39 37H26.65c-.61 0-1.65-.67-1.65-1.5Z" fill="#F99C6E"/><path d="M22 41.5c0-.83.98-1.5 1.56-1.5h4.92c.58 0 1.52.67 1.52 1.5s-.94 1.5-1.52 1.5h-4.92c-.58 0-1.56-.67-1.56-1.5Z" fill="#ED6262"/><path d="M13 23.5c0-.83.62-1.5 1.39-1.5H36.6c.77 0 1.39.67 1.39 1.5s-.62 1.5-1.39 1.5H14.4c-.77 0-1.39-.67-1.39-1.5Z" fill="#76BAF8"/></svg>