<!-- by TradeStack --><svg viewBox="0 0 56 56" xmlns="http://www.w3.org/2000/svg"><path fill="#8C0928" d="M0 0h56v56H0z"/><path fill-rule="evenodd" d="M10 25.59V24H4v1.59h2V32h2v-6.41h2Zm13.05 3.86c1.19-.49 1.94-1.48 1.94-2.56 0-1.6-1.6-2.89-3.56-2.89H19v8h2v-2.23L23.65 32 25 30.92l-1.95-1.47ZM21 28.23h.43c.91 0 1.65-.6 1.65-1.34 0-.74-.74-1.34-1.65-1.34H21v2.68ZM10 28a4 4 0 0 1 8-.02v.02a4 4 0 0 1-8 0Zm1.55 0a2.46 2.46 0 1 0 4.91 0 2.46 2.46 0 0 0-4.91 0ZM31 24v1.59h-2V32h-2v-6.41h-2V24h6Zm3 0h-2v8h2v-8Zm5.5 6.41V32h-4.47v-8H37v6.41h2.5Zm5 1.59v-1.59H42V24h-2v8h4.5Zm.5 0 3.5-8 3.5 8h-1.87l-.53-1.36L48.5 32l-1.1-1.38-.54 1.38H45Zm3.5-3.8-1 2.18h2l-1-2.18Z" fill="#FFFAF0"/></svg>