<!-- by TradeStack --><svg viewBox="0 0 56 56" xmlns="http://www.w3.org/2000/svg"><path fill="#F0F3FA" d="M0 0h56v56H0z"/><path d="M4.93 33c-.7 0-.93-.42-.93-1.16v-7.68C4 23.4 4.26 23 5 23c.58 0 .97.3 1.24.8L9 29l2.85-5.2c.28-.5.56-.8 1.15-.8.7 0 1 .4 1 1.16v7.68c0 .74-.27 1.16-1 1.16-.7 0-1-.42-1-1.16V27h.28l-2.35 3.95c-.12.2-.26.36-.4.46a.88.88 0 0 1-.54.15.92.92 0 0 1-.55-.15 1.4 1.4 0 0 1-.38-.46L5.73 27H6v4.84C6 32.58 5.66 33 4.93 33ZM16 33c-.57 0-1-.46-1-1.29v-4.2c0-.84.43-1.3 1-1.3.58 0 1 .47 1 1.3v4.2c0 .83-.41 1.29-1 1.29Zm0-7.5c-.64 0-1-.5-1-1.25 0-.73.36-1.25 1-1.25.66 0 1 .52 1 1.25 0 .74-.34 1.25-1 1.25ZM37 33c-.57 0-1-.46-1-1.29v-4.2c0-.84.43-1.3 1-1.3.58 0 1 .47 1 1.3v4.2c0 .83-.41 1.29-1 1.29Zm0-7.5c-.64 0-1-.5-1-1.25 0-.73.36-1.25 1-1.25.66 0 1 .52 1 1.25 0 .74-.34 1.25-1 1.25ZM20.39 33C18.57 33 18 30.97 18 29.5c0-1.48.57-3.5 2.39-3.5.79 0 1.53.52 1.75 1.28H22v-3.04c0-.8.37-1.24 1.01-1.24.63 0 .99.44.99 1.24v7.5c0 .8-.34 1.23-.98 1.23-.62 0-1.02-.43-1.02-1.24v-.79l.17.68c-.2.82-.94 1.38-1.78 1.38Zm.61-2c.87 0 1-.88 1-1.54s-.1-1.65-.98-1.65S20 28.83 20 29.5c0 .67.12 1.5 1 1.5ZM27.97 33c-.28 0-.52-.07-.72-.22-.2-.16-.36-.4-.48-.71l-1.65-4.52c-.1-.28-.14-.54-.1-.77a.86.86 0 0 1 .28-.56c.17-.15.4-.22.7-.22.24 0 .45.07.61.2.16.13.3.39.44.77l1.16 3.46h-.25l1.22-3.72c.08-.24.19-.42.33-.53a.83.83 0 0 1 .54-.18c.23 0 .42.06.56.18.14.12.24.3.33.53l1.22 3.72h-.22l1.18-3.54c.1-.35.25-.58.43-.7.18-.13.37-.19.57-.19.28 0 .49.07.63.22.15.15.23.34.24.58.03.23-.01.49-.12.76l-1.63 4.5a1.5 1.5 0 0 1-.48.7c-.2.16-.44.24-.71.24-.28 0-.53-.08-.73-.23-.2-.16-.35-.4-.47-.72l-1.33-3.77h.88l-1.26 3.75c-.11.32-.26.57-.46.74-.2.15-.43.23-.71.23ZM42.72 33c-2.1 0-3.72-1.35-3.72-3.51 0-2.17 1.62-3.49 3.72-3.49.6 0 1.86.1 2.17.74a.9.9 0 0 1 .1.53c0 .19-.06.53-.16.69a.68.68 0 0 1-.4.31c-.42.15-1.25-.31-1.71-.31-.99 0-1.72.59-1.72 1.53 0 .93.73 1.56 1.72 1.56.46 0 1.3-.47 1.72-.3.16.05.3.15.4.3.1.16.15.33.16.52 0 .18-.04.54-.13.7-.34.63-1.53.73-2.15.73ZM47 33c-.67 0-1-.39-1-1.12v-6.76c0-.73.33-1.12 1-1.12.69 0 1 .4 1 1.12v2.09h-.19c.38-.79 1.24-1.21 2.13-1.21C51.5 26 52 27.27 52 28.64v3.24c0 .73-.32 1.12-1 1.12-.68 0-1-.39-1-1.12v-3.15c0-.74-.36-1.04-.84-1.04-.66 0-1.16.55-1.16 1.17v3.02c0 .75-.29 1.12-1 1.12Z" fill="#4B2763"/></svg>