<!-- by TradeStack --><svg viewBox="0 0 56 56" fill="none" xmlns="http://www.w3.org/2000/svg">
<rect width="56" height="56" fill="#F0F3FA"/>
<path d="M25.741 28.1565C25.2735 30.4099 24.9178 31.7107 23.3967 37.0728C19.0536 39.9506 16.5941 39.2092 16.5941 39.2092C16.5941 39.2092 16.0995 38.9523 16.0081 38.0971C15.9132 37.411 16.6856 34.8063 16.6856 34.7673C17.1231 33.2055 17.6444 31.6665 18.2474 30.1563C19.0638 28.2053 20.1343 24.147 20.1343 24.147C20.3782 23.0055 20.5423 21.8497 20.6255 20.6872C20.8017 20.0368 20.6255 17.3606 20.6255 17.3606C20.5201 15.8393 20.258 14.3318 19.843 12.8602C20.7339 14.2064 26.9877 19.2629 26.9877 19.2629C26.7602 22.2489 26.3439 25.2189 25.741 28.1565Z" fill="url(#paint0_linear_5071_142715)"/>
<path d="M39.3597 21.8513C39.3597 21.8513 40.9485 30.553 40.9994 31.8667C41.0163 33.0429 40.7164 34.2033 40.1287 35.2356C39.2174 36.9687 38.2418 38.5068 35.0234 41.196C31.8051 43.8853 27.8347 46.0997 25.2532 46.8574C25.2532 46.8574 23.5594 47.3972 22.7429 46.3566C21.9265 45.316 16.8212 40.5782 16.8212 40.5782C16.8212 40.5782 18.1763 41.0009 20.8255 40.0449C23.4747 39.0889 31.1716 33.7788 31.1716 33.7788C31.1716 33.7788 39.9932 27.5841 39.3597 21.8513Z" fill="url(#paint1_linear_5071_142715)"/>
<path d="M20.1072 12.2716C21.32 10.9904 23.085 9.6702 24.9923 9.09463C25.1933 9.00411 25.4187 8.97583 25.6372 9.0137C25.8557 9.05157 26.0565 9.15372 26.2119 9.306C28.8814 11.5822 30.477 13.0488 30.477 13.0488L34.2442 16.1315C34.2442 16.1315 37.1136 18.6418 37.72 21.1554C38.3535 23.7894 36.1955 26.6834 36.1955 26.6834C36.1955 26.6834 35.6907 25.6266 31.761 22.7813C27.8312 19.936 26.9775 19.2629 26.9775 19.2629C26.9775 19.2629 21.3403 14.7982 19.9581 13.0846C19.6668 12.7301 19.8836 12.509 20.1072 12.2716Z" fill="url(#paint2_linear_5071_142715)"/>
<defs>
<linearGradient id="paint0_linear_5071_142715" x1="21.4938" y1="12.8602" x2="21.4938" y2="39.295" gradientUnits="userSpaceOnUse">
<stop stop-color="#00547F"/>
<stop offset="0.477213" stop-color="#26A095"/>
<stop offset="1" stop-color="#4C953C"/>
</linearGradient>
<linearGradient id="paint1_linear_5071_142715" x1="39.8439" y1="27.6974" x2="21.6338" y2="44.3433" gradientUnits="userSpaceOnUse">
<stop stop-color="#006184"/>
<stop offset="0.404402" stop-color="#0097B7"/>
<stop offset="0.613331" stop-color="#009BBA"/>
<stop offset="1" stop-color="#016A89"/>
</linearGradient>
<linearGradient id="paint2_linear_5071_142715" x1="25.4659" y1="12.8438" x2="36.2122" y2="24.1611" gradientUnits="userSpaceOnUse">
<stop stop-color="#74BA57"/>
<stop offset="1" stop-color="#458839"/>
</linearGradient>
</defs>
</svg>
