<!-- by TradeStack --><svg viewBox="0 0 56 56" xmlns="http://www.w3.org/2000/svg"><path fill="url(#a0513no00)" d="M0 0h56v56H0z"/><path fill-rule="evenodd" d="M7.5 20v1H9v4h1v-4h1.5v-1h-4Zm0 12v1H9v4h1v-4h1.5v-1h-4Zm19-5v-1h4v1H29v4h-1v-4h-1.5Zm0 5v1H28v4h1v-4h1.5v-1h-4ZM48 27h-1.5v4h-1.55L43 27.57V31h-1v-5h1.34l2.16 3.87V26h5v1H49v4h-1v-4Zm-36-7v5h1v-2h2v2h1v-5h-1v2h-2v-2h-1Zm5 0v5h3.5v-1H18v-1h2v-1h-2v-1h2.5v-1H17Zm2 11v-5h3.5v1H20v1h2v1h-2v1h2.5v1H19Zm19-5v5h3.5v-1H39v-1h2v-1h-2v-1h2.5v-1H38Zm-15-6v5h1v-3.26L25.38 25h1.19L28 21.74V25h1v-5h-1.49l-1.5 3.83L24.5 20H23Zm8 11v-5h1.5l1.51 3.83 1.5-3.83H37v5h-1v-3.26L34.57 31h-1.2L32 27.74V31h-1Zm5.84-11H35.5v5h1v-3.43L38.45 25H40v-5h-1v3.87L36.84 20ZM9 26v5h1v-3.43L11.95 31h1.55v-5h-1v3.87L10.34 26H9Zm26-3.5a2.5 2.5 0 1 1-5 0 2.5 2.5 0 0 1 5 0Zm-1 0a1.5 1.5 0 1 1-3 0 1.5 1.5 0 0 1 3 0Zm14.81-.85h-1.2c0-.57-.41-.65-.61-.65s-.71 0-.71.47c0 .35.67.46 1.1.53l.07.01c1.24.3 1.55.9 1.54 1.49-.01.59-.44 1.5-2.06 1.5s-1.97-1.17-1.94-1.76h1.1c0 .6.66.74.84.74h.03c.22 0 .84.01.84-.45 0-.34-.4-.44-1-.59l-.82-.22c-.82-.27-1-.96-.99-1.2.06-.5.52-1.52 1.94-1.52a1.78 1.78 0 0 1 1.87 1.65Zm-23.5 6h1.2A1.78 1.78 0 0 0 24.64 26c-1.42 0-1.88 1.02-1.94 1.53-.01.23.17.92 1 1.19.29.1.56.16.8.22.61.15 1.01.25 1.01.6 0 .45-.62.45-.84.44h-.03c-.18 0-.84-.14-.84-.74h-1.1c-.03.59.32 1.76 1.94 1.76 1.62 0 2.05-.91 2.06-1.5.01-.59-.3-1.2-1.54-1.49h-.06c-.44-.08-1.11-.19-1.11-.54 0-.47.51-.47.71-.47.2 0 .6.08.6.65Zm.5 6h-1.2c0-.57-.41-.65-.61-.65s-.71 0-.71.47c0 .35.67.46 1.1.53l.07.01c1.24.3 1.55.9 1.54 1.49-.01.59-.44 1.5-2.06 1.5s-1.97-1.17-1.94-1.76h1.1c0 .6.66.74.84.74h.03c.22 0 .84.01.84-.45 0-.34-.4-.44-1-.59l-.82-.22c-.82-.27-1-.96-.99-1.2.06-.5.52-1.52 1.94-1.52a1.78 1.78 0 0 1 1.87 1.65ZM42 25h-1v-5h1v1.8l1.71-1.8H45l-2.14 2.13L45 24.98H43.7l-1.44-2.1-.27.31V25ZM7 31v-5h1v5H7Zm7-5 1.44 5h1.41l1.65-5h-1l-1.29 3.96L15.07 26H14Zm-2 11v-5h2.4c.88 0 1.6.63 1.6 1.5 0 .5-.24.92-.6 1.19.41.16.57.52.6.72v.99c0 .2.25.49.36.6H15v-1.17c0-.36-.33-.73-.77-.83H13v2h-1Zm1-4v1h1.43c.31 0 .57-.22.57-.5s-.26-.5-.57-.5H13Zm20-1v5h1v-2h1.4c.89 0 1.6-.63 1.6-1.5s-.71-1.5-1.6-1.5H33Zm2.43 2H34v-1h1.43c.31 0 .57.22.57.5s-.26.5-.57.5ZM17 35.4V32h1v3.1c0 .42.45.9 1.25.9s1.25-.48 1.25-.9V32h1v3.4c0 .88-.78 1.6-1.75 1.6h-1c-.97 0-1.75-.72-1.75-1.6ZM38 32v5h3v-1h-2v-4h-1Zm7.28 3.5a2.24 2.24 0 0 1-2.05 1.5C42 37 41 35.88 41 34.5s1-2.5 2.23-2.5c.92 0 1.7.62 2.05 1.5h-1.01c-.24-.3-.59-.5-.97-.5-.72 0-1.3.67-1.3 1.5s.58 1.5 1.3 1.5c.39 0 .73-.2.97-.5h1.01Z" fill="#fff"/><defs><linearGradient id="a0513no00" x1="10.42" y1="9.71" x2="68.15" y2="76.02" gradientUnits="userSpaceOnUse"><stop stop-color="#1A1E21"/><stop offset="1" stop-color="#06060A"/></linearGradient></defs></svg>