<!-- by TradeStack --><svg viewBox="0 0 56 56" xmlns="http://www.w3.org/2000/svg"><path fill="#F0F3FA" d="M0 0h56v56H0z"/><path d="M13.44 27 13 26c1.07-.33 5.56-1.5 7.97-2 1.64-.34 4.59-1.02 11.96-3 9.3-2.5 10.26-5.5 10.67-7 .32-1.2-.67-.83-1.21-.5.4-.5 1.61-1 1.61.5s-.8 2.5-1.61 3.5c-.8 1-4.75 3-6.36 3.5-1.61.5-7.81 2.5-10.63 3-2.25.4-4.43 1-11.96 3Z" fill="#867853"/><path d="M20 31c0 .97.35 1.47 1.42 1.55V33h-3.4v-.45c1.03-.08.98-.56.98-1.52V28c0-1-.1-1.05-1-1.05v-.46l2.08-.49.17 1.3h.06c.38-.44.78-.77 1.2-.98.43-.21.9-.32 1.4-.32 1.07 0 1.84.45 2.13 1.28h.05A3.3 3.3 0 0 1 27.68 26C29.5 26 30 27.29 30 28.86v2.07c0 .96-.06 1.54 1 1.62V33h-3v-.45c1.02-.04 1-.62 1-1.55v-1.63c0-1.1-.37-2.66-1.8-2.66-.38 0-.73.11-1.07.33-.32.2-.57.49-.76.84-.22.45-.37.99-.37 1.47V31c0 .88-.05 1.47 1 1.55V33h-3v-.45c.94-.07 1-.6 1-1.55v-1.63c0-.77-.04-2.13-.88-2.51-.19-.1-.42-.15-.69-.15a2 2 0 0 0-1.08.33C20.73 27.42 20 28.28 20 29v2ZM36.5 29.1c-.52.2-1.28.37-1.64.55-.63.32-1.48.81-1.48 1.62 0 .6.53.95 1.1.95.78 0 2.02-1.27 2.02-2.1V29.1Zm0-.54v-.52c0-1.04-.79-1.56-1.74-1.56-.15 0-.29.02-.4.04-.1.03-.2.07-.27.13a.91.91 0 0 0-.2.25c-.06.11-.11.25-.17.41-.1.25-.2.41-.3.5-.09.07-.23.11-.4.11-.46 0-.7-.21-.7-.63 0-.41.24-.73.7-.95a4.59 4.59 0 0 1 1.99-.34c.9 0 1.56.15 1.94.46.38.3.57.8.57 1.53v2.85c0 .96.2 1.45.62 1.45.13 0 .25-.02.37-.04a.54.54 0 0 0 .3-.24l.19.3c-.1.2-.31.36-.6.5-.3.13-.6.19-.92.19-.4 0-.7-.12-.9-.36-.2-.23-.29-.57-.29-1a2.82 2.82 0 0 1-2.44 1.35c-.93 0-1.85-.47-1.85-1.5 0-1.17 1.3-1.75 2.21-2.13l2.29-.8ZM39 26v-.9c1.14-.69 1.1-1.02 1.5-2.1h.5v2h2.44v1H41v4.34c0 1.16.34 1.53.95 1.81.65.31 1.3-.07 1.67-.61l.38.3c-.28.74-.98 1.16-2.04 1.16-1.18 0-1.96-.64-1.96-1.88V26h-1ZM47 31c0 1.03-.08 1.53 1 1.57V33h-3v-.43c1.03-.04 1-.56 1-1.57v-3c0-1.3-.67-.8-1-.8v-.44l2-.76v5Z"/><circle cx="46" cy="24" r="1"/><path d="M14.76 30.78a4.7 4.7 0 0 1 .3 1.16c0 .2-.09.34-.26.42-.17.09-.47.13-.92.13V33H18v-.5c-.22 0-.4-.03-.57-.07a.94.94 0 0 1-.43-.29 2.9 2.9 0 0 1-.42-.65c-.14-.3-.3-.68-.5-1.17L13.2 23h-.55l-3.28 8.45c-.08.19-.16.34-.24.47a1.13 1.13 0 0 1-.64.48c-.14.05-.3.08-.5.1v.5h3v-.5c-.35 0-.53-.04-.69-.12-.15-.1-.22-.27-.22-.51 0-.09 0-.2.03-.34a4.99 4.99 0 0 1 .38-1.2c.72-1.96 1.04-2.7 2.1-5.43l2.16 5.88Z"/><path d="M6.57 28.5A5.21 5.21 0 0 0 4 33c.86-2.5 2.34-3.58 3.43-4 1.28-.5 5.98-1.85 7.27-2.35l-.43-1c-1.29.5-5.3 1.65-7.7 2.85Z" fill="#83764C"/></svg>