<!-- by TradeStack --><svg viewBox="0 0 56 56" xmlns="http://www.w3.org/2000/svg"><path fill="#F0F3FA" d="M0 0h56v56H0z"/><path d="M9.8 31c.38 0 .43-.02.32-.33l-.56-1.49c-.23-.7-.31-.95-.38-1.05h-.02c-.06.1-.17.43-.4 1.05l-.57 1.45c-.15.38-.1.37.21.37h1.4Zm-1.61.71c-.35 0-.34 0-.46.36l-.55 1.6c-.26.77-.21.81.29.88l.38.07c.1.09.08.33-.02.38H5.08c-.1-.07-.11-.26-.02-.38l.4-.07c.4-.05.54-.17.74-.61.17-.34.38-.9.66-1.62L8.7 27.6c.17-.42.3-.74.25-.96.47-.1.92-.64.94-.64.11 0 .18.04.23.1.22.6.39 1.23.6 1.82l1.94 5.56c.3.88.37.98 1.06 1.1l.2.04c.1.09.1.31.01.38h-3.38c-.1-.07-.12-.3-.04-.38l.3-.04c.48-.06.52-.14.34-.7l-.63-1.8c-.13-.37-.17-.37-.55-.37H8.2ZM16.43 31.57c0 .16.03.25.08.3.06.04.27.05.58.05.74 0 1.06-.54 1.06-1.14 0-.77-.49-1.27-1.21-1.27-.45 0-.5.02-.5.33v1.73ZM15 30.73c0-1.1-.04-1.15-.5-1.23l-.15-.03c-.1-.04-.12-.35.02-.39.5-.04 1.43-.08 2.4-.08.85 0 1.49.07 1.99.3.55.27.9.73.9 1.39 0 .76-.5 1.15-1 1.36-.11.06-.13.15-.02.33a7.57 7.57 0 0 0 1.49 1.98c.24.2.46.28.63.29.08.04.08.22.02.26a2 2 0 0 1-.8.09c-.84 0-1.36-.24-1.88-.97-.3-.42-.65-1.03-.85-1.4-.14-.24-.31-.3-.57-.3-.22 0-.25.03-.25.24v.8c0 .9.04 1.09.53 1.16l.27.02c.1.09.07.4-.02.45h-2.98c-.1-.05-.12-.36-.01-.45l.26-.02c.49-.07.52-.26.52-1.15v-2.65ZM22.6 29.9c-.02-.36.02-.38-.3-.38h-.4c-.35 0-.65.03-.88.27-.14.16-.24.32-.37.65-.08.1-.29.06-.35-.05.15-.52.3-1.3.35-1.62.04-.08.24-.08.3 0 .02.2.2.23.6.23h3.83c.45 0 .58-.01.67-.26.07-.05.27-.05.3.03-.07.34-.14 1.11-.14 1.66-.05.1-.28.11-.36.03-.04-.3-.1-.55-.29-.72-.16-.15-.46-.22-.93-.22h-.35c-.22 0-.28.02-.28.39v3.5c0 .9.07 1.1.56 1.15l.36.04c.1.08.08.35-.02.4h-3.22c-.09-.05-.12-.32-.01-.4l.4-.04c.5-.05.54-.25.54-1.15v-3.5ZM29 31.37c0 .23.03.23.32.25h.49c.72 0 .84-.02.95-.42l.07-.33c.08-.08.3-.07.37.03 0 .3-.03.65-.03 1 0 .36.02.7.03 1.01-.06.1-.29.11-.37.03l-.07-.33c-.11-.4-.23-.42-.95-.42h-.5c-.28 0-.31.01-.31.27v.85c0 .4.04.78.16.93.12.13.42.2 1.24.2 1.07 0 1.3-.29 1.6-1 .09-.05.27-.05.37.05-.12.57-.28 1.25-.4 1.51h-5.3c-.1-.05-.13-.31-.02-.4l.41-.04c.49-.05.53-.24.53-1.14v-2.84c0-.9-.04-1.09-.53-1.16l-.16-.02c-.1-.09-.08-.35.01-.4h4.76c.04.16.1.8.14 1.42-.05.1-.28.12-.37.04a3.45 3.45 0 0 0-.24-.57c-.15-.28-.5-.33-1.14-.33h-.7c-.33 0-.36.04-.36.7v1.11ZM40.34 33.77c.04.47.07.69.44.76l.37.05c.08.08.06.37-.03.42h-2.77c-.08-.07-.1-.35-.01-.42l.23-.04c.4-.08.43-.19.43-.81V30.4h-.03c-.3.57-.57 1.08-1.06 2.07l-.25.5c-.29.6-.7 1.57-.86 1.98a.4.4 0 0 1-.17.04.28.28 0 0 1-.16-.04c-.13-.46-.52-1.34-.72-1.76-.45-.92-.89-1.86-1.28-2.8h-.03c0 .58-.01 1-.04 1.38-.04.54-.02 1.34-.02 1.87 0 .63-.02.78.33.85l.38.08c.08.08.06.34-.02.42H32.9c-.1-.05-.12-.35 0-.42.62-.05.7-.15.76-.72.03-.17.08-.86.13-1.99.03-.6.07-1.31.06-1.76-.03-.42-.13-.64-.5-.69l-.23-.04c-.08-.08-.06-.34.03-.38h2.3c0 .66.38 1.35.64 1.92.33.7.66 1.4.98 1.95.29-.52.6-1.15.92-1.78.23-.44.68-1.32.86-2.09h2.22c.1.07.1.26.04.38l-.2.04c-.6.12-.63.37-.63.9 0 .96 0 2.78.06 3.45ZM44.44 33.42c0 .9.04 1.09.53 1.16l.27.02c.1.09.08.35-.02.4h-2.98c-.1-.05-.12-.31-.01-.4l.26-.02c.49-.07.51-.26.51-1.16v-2.84c0-.9-.02-1.09-.51-1.16l-.26-.02c-.11-.09-.08-.35 0-.4h3c.09.05.11.31 0 .4l-.26.02c-.49.07-.53.26-.53 1.16v2.84ZM50.56 29.1c.11.29.21.82.24 1.36-.08.12-.3.15-.4.05-.26-.77-.76-1.14-1.44-1.14-.59 0-.97.33-.97.8 0 .53.52.8 1.13 1.05.96.37 1.88.89 1.88 2.01.01 1.21-1.17 1.77-2.55 1.77-.82 0-1.48-.19-1.86-.48a2.91 2.91 0 0 1-.26-1.5c.07-.1.3-.14.4-.02.25.8.9 1.5 1.84 1.5.56 0 .99-.31.99-.8 0-.62-.5-1-1.18-1.26-.9-.35-1.76-.9-1.76-1.85 0-1.1 1-1.72 2.43-1.72.68 0 1.14.14 1.51.24Z" fill="#005293"/><path d="m23.65 20.52-.03.03c-.1-.04-.23-.08-.3-.12l.04-.02c.1.02.26.12.35.06-.14-.07-.36-.09-.49-.18l.05-.04c0 .02 0 .04.05.04l.3.03c-.05-.03-.07-.09-.12-.13a.99.99 0 0 0-.39-.16c-.03-.02-.06-.04-.06-.09 0-.06.42-.34.42-.35 0-.04.07-.11.07-.16 0-.04-.04-.04-.04-.09 0-.04.06-.16.06-.2 0-.05-.07-.2-.1-.29l.04-.03c-.03-.06-.05-.1-.05-.14 0-.05.02-.03.04-.06-.03 0-.06.03-.06-.02 0-.1-.06-.27-.1-.45l.03-.04c-.07-.1-.07-.18-.1-.27-.02-.06-.11-.08-.14-.14-.03 0-.08.02-.11 0l-.16-.13c.04-.04.1-.16.1-.2l.03-.12c0-.26-.4-.42-.4-.55 0-.1-.3-.41-.3-.42 0 0-.59-.6-.59-.62 0-.04-.18-.22-.25-.27-.08-.06-.16-.08-.2-.13-.14-.07-.45-.22-.55-.32-.44-.34-.85-.42-1.3-.53-.13-.03-.27-.1-.4-.12-.16-.04-.24-.1-.35-.12-.1-.02-.21 0-.32-.02-.12-.03-.32-.1-.37-.1-.04 0-.11.04-.16.04l-.45-.09c-.05 0-.14.04-.18.04l-.28-.03-.12.04-.25-.05c-.1 0-1.48.37-2.04.4-.1.04-.18.1-.25.15l-.18.07c-.18-.01-.39.2-.54.27a3 3 0 0 0-.64.37c0 .03-.86.68-.86.74 0 .1-.28.3-.28.3l-.13.26c0 .19-.65.61-.65.8l-.03.15c0 .02-.04.01-.04.06 0 .04-.26.25-.26.3 0 .09-.23.5-.23.5 0 .2-.14.35-.14.41v.24c.12-.06.27-.14.36-.21.03.03.03.06.04.08-.11.19-.22.09-.42.2l.06.07c.05.05.08.09.08.13 0 .05.05.12.05.14 0 .05-.01.05-.03.07l.03.04c-.09.17-.23.18-.23.2 0 0-.19.24-.19.33l-.03.22c0 .05.03.05.03.1 0 .04-.03 0-.03.05 0 .04.05.1.05.14 0 .04-.04.04-.04.09 0 .04.04.1.04.15 0 .05-.04.08-.04.13 0 .13.09.37.11.47l-.04.04c.12.1.05.2.09.32l.08.23c.03.09.13.23.13.27 0 .3.51.23.51.34 0 .04.07.07.1.12l-.04.04c.09.26.37.07.44.3l.2-.15.02.02-.13.14c0-.02-.04 0-.06.02 0 .04.04.06.04.1 0 .05-.07.03-.07.08 0 .09-.28.25-.23.34.07-.05.09-.16.13-.16l.05-.01.03.02c-.07.07-.21.19-.21.23 0 .04-.13.06-.13.1l-.03.22c0 .14.16.3.16.33 0 .05.2.33.27.48.02.04.08.02.08.07 0 .04.03.16.09.2l-.04.04c.42.64.82.99 1.37 1.33l.03-.03c.1.13.34.22.46.3.2.13.6.33.64.33.04 0-.02-.03.03-.03l.28.08c.16.05.38.15.61.2.1.01.2.09.25.09.04 0 .08-.04.12-.04.03 0 .2.08.23.1.05.03.21.02.28.08l.04-.04c.23.08.07.09.8.1.09.01.15-.03.2-.04l.04.03.03-.03.04.03.03-.03.04.03c.15-.04.33-.01.46-.05l.19-.04c.04 0 0 .04.05.04.14 0 .68-.1.74-.11.16-.04.33-.02.46-.06.12-.04.27-.05.27-.18 0-.1 0-.2.08-.3.06.04.21.05.32.05.04 0 .04-.04.08-.04.05 0 .05.06.1.06.1 0 .6-.32.64-.35l.46-.33c.19-.12.34-.25.48-.37.04-.04.16-.1.16-.14 0-.07.76-.77.76-.83 0-.04.25-.27.25-.32 0-.08.02-.1.14-.23.07-.11.17-.3.17-.33 0-.04.02-.07 0-.11a.74.74 0 0 1-.26-.07c.02.03.02.06.02.08.08 0 .14 0 .2.08l-.02.03c-.16-.07-.35-.04-.57-.22l.03-.03c.05.02.1.06.16.05a.66.66 0 0 0-.09-.1l.03-.02c.04 0 .09.02.13.01-.04-.04-.04-.08-.05-.09l.03-.02.22.11c-.02.01-.05.01-.07.04.07.04.19.11.23.11.05 0 .04-.02.06-.04v-.07c0-.05-.03-.11-.04-.15-.03-.03-.08 0-.08-.05l-.02-.1c0-.01.02-.08.07-.1.07-.05.4-.07.4-.18 0-.22.22-.5.22-.64l.21-1.16-.03-.12c0-.08.08-.46.08-.46 0-.05-.03-.05-.03-.09 0-.04.03-.06.03-.1 0-.05-.02-.05-.03-.06l.03-.03-.06-.06Z" fill="#fff"/><path d="M17.15 14c1.42-.04 4.64.55 6.1 3.26-.06.13-.07.43.3.62.1.37.29 1.25.29 1.78l-.6.44.76.43c0 .62-.1 2.08-.46 3l-.53.16.24.46a7.46 7.46 0 0 1-3.18 3.13l-.55-.09-.1.45c-.9.32-3.21.72-5.31-.25-2.1-.98-2.95-2.56-3.12-3.24l.51-.85-1.08-.7a5.23 5.23 0 0 1-.41-2.5c.18-.13.5-.5.28-1 .01-.4.38-1.57 1.8-3.1 1.41-1.52 3.96-1.96 5.06-2Zm2.08 12.97c.1-.16.38-.46.65-.4.68-.38 2.16-1.44 2.64-2.58-.08-.17-.13-.52.34-.6.2-.43.6-1.56.55-2.69-.02-.11-.1-.36-.25-.42a1.43 1.43 0 0 1-.38-.23c.15-.15.43-.52.38-.79l-.03-.14a2.5 2.5 0 0 0-.6-1.42.36.36 0 0 0 0-.46 7.06 7.06 0 0 0-3.15-2.68 7.07 7.07 0 0 0-4.12-.12c-.5.14-1.74.66-2.82 1.61-.22.23-.71.8-.92 1.26-.1.08-.26.28-.15.4l-.59.86c-.05.13-.1.5.21.94 0 .05-.03.2-.2.35-.1.03-.29.2-.24.68.05.48.18 1.12.23 1.38.04.15.17.48.42.58.26.1.57.25.7.32.05.06.1.23-.12.39-.3.2-.3.45-.13.7.14.2.38.61.48.8-.07.08-.14.31.1.55 0 .02.03.04.05.06a5.66 5.66 0 0 0 3.52 1.82c2.2.28 3.3-.1 3.43-.17Z" fill="#A27F5C"/><path d="m11.74 23.66.24-.32a5.07 5.07 0 0 0 1.47 1.75l.1-.13-1.35-1.51a7.5 7.5 0 0 1-.76-1.87c0-.42-.07-.75 0-1.73.08-.98.58-1.8.87-2.38a5.07 5.07 0 0 1 2.22-1.95c.63-.3 1.76-.66 2.7-.66.93 0 2.17.46 2.52.66.36.19.56.38 1.6 1.23.82.69 1.28 2.27 1.4 2.98l-.16.12c-.36-1.84-1.16-2.87-1.52-3.16-.14.15-.11.46 0 .57.11.1.14.46.05.58-.07.1-.14.35-.16.47.13.3.36.91.25 1.03a.4.4 0 0 0-.1.35c.09.27.36.89.5 1.14.1.2.05.37 0 .43l-.32.32c.13.12.05.4 0 .52.09.22-.08.37-.17.41.08.08.15.24.17.31.01.3-.27.48-.42.52l-1.25.41c-.35.07-.56.58-.63.82l.63.14c.38.18.73.12.85.06.33-.2 1.09-.82 1.52-1.71.44-.9.58-2.2.6-2.75h.16c0 1.32-.43 2.43-.65 2.82-.38.91-.96 1.36-1.23 1.58-.2.18-.2.24-.16.25.62-.19 1.19-1.01 1.4-1.4l.22.1c.02.26-.41.8-.63 1.05-.02.05-.09.2-.22.38s-.37.15-.47.1a9.25 9.25 0 0 0-1.88-.33c.53.66 1.27.54 1.58.4l-.4.53a3.6 3.6 0 0 1-2.15.6l.3-.46-.13-.14-.46.46-.18-.1.47-.5-.12-.18-.51.57-.1-.11.73-.97-.12-.19-.87 1.02-.18-.14 1.17-1.3v-.3l-1.42 1.53-.15-.16 1.74-1.97-.17-.1-1.74 1.91-.13-.17 1.75-1.82-.17-.14-1.66 1.83v-.25l1.48-1.65-.16-.14-1.44 1.65v-.22l1.08-1.3-.18-.13-.9 1.05v-.22l.65-.83-.15-.1-.5.52v-.28l.2-.46-.4-.09c-.16.17-.43 1-.54 1.4-.09.44-.4.82-.55.95l-1.74.72-.86-.49.19-.32-.19-.06.19-.22-.65-.83Z" fill="#A27F5C"/><path d="M13.88 24.98c.93-.1 1.27-.92 1.32-1.32a6.78 6.78 0 0 1-1.7-1.28 5.54 5.54 0 0 1-1.05-2.35l-.2-.12-.44-.9c-.49 1.11-.1 2.71.17 3.37a5.58 5.58 0 0 0 1.9 2.6Z" fill="#F0F3FA"/><path fill-rule="evenodd" d="M15.28 23.36a3.76 3.76 0 0 1-2.26-2.11l-.5-1.37-.3-.31-.1-.42c-.15-.2-.34-.68.1-1.02 0-.25.14-.78.59-.88.17-.28.72-.73 1.53-.26a8.52 8.52 0 0 1 3.05-.92c1.1-.04 1.5.09 1.57.16.2-.06.7-.09 1 .3.15-.02.46 0 .5.16.17 0 .47.07.37.38.13.17.3.61 0 1.01.08.39.22 1.19.17 1.32-.07.17.01.56.13.7.09.1.32.62.42.88-.02.11-.1.33-.25.27-.14-.07-.3.06-.37.14-.08-.03-.23-.14-.1-.34h-.16l-.1.64c.12-.1.41-.28.56-.19.14.1.06.35 0 .46-.03-.08-.19-.17-.57.12.16-.02.5-.02.57.09.09.12-.03.32-.3.19s-.09.15.1.2c.2.05.27.46 0 .58-.2.1-1.02.35-1.4.46-.2.1-.62.47-.68 1.1-.05.64.9.82 1.38.83l-.2.27-1.4.43.33-.43c-.16-.16-.42-.67-.2-1.46.2-.79 1.16-1.13 1.61-1.2-.1-.17-.23-.7 0-1.45 0 0-.12-.45-.34-.8-.26-.4-.9-.91-.9-.91 0-.25.06-.76.34-.83l.15-.07.61-.69.6-.47-.88.3-.48.64-.83.91-.7.1.81-.72-.92.42-.93.13c-.18.04-.55.35-.57 1.2l.06.8.51-.2-.32.39-.5.19.16-1.18c-.02-.4.11-1.24.82-1.5.27.01.82-.03.88-.25.06-.29.28-.41.7-.2.27-.14.82-.45.9-.64-.4.02-1.29.12-1.7.31-.42.2-.84.43-1 .53.27-.36.84-1.07 1-1.07a.7.7 0 0 1 .18.04c.14.04.28.08.46-.04.22-.13.45-.02.54.05.06.04.26.07.51-.12.26-.2.5-.09.6 0l.7-.5-.88.27-2.01.14-.1-.22c.06-.28.34-.9.91-1.1l-.27-.17a8.79 8.79 0 0 0-1.58 2.19 11.5 11.5 0 0 0-1.24 3.55l-.15.71-.23.05.8-3.78-.19.1-.7 3.1-.25-.07.49-2.5h-.24l-.54 2.5h-.16l.16-.87-.24.5a5.82 5.82 0 0 1-1.33-2.39l.24-.31a3.6 3.6 0 0 0 1.34 2.16l.28-1.5c-.41-.23-1.26-.79-1.33-1.1-.08-.3.56-.7.88-.85l.34-.4 1.06-.13.63-.87-1.87.55v.52l-.25-.34-1.6 1.61-.38-.47c.13-.05.36-.2.25-.38-.15-.23.26-.52.6-.23l.43-.4-.57-.13.66-.26c-.16-.04-.58-.02-.98.4l-.1.1c-.23.24-.29.3-.3.38V18.08c-.16.14-.44.5-.2.94.25.44.41.68.46.75.15.44.49 1.37.6 1.62.13.3 1.22 1.67 2.01 1.97Zm5.29-2.79-1.16-.87c.04-.11.19-.36.44-.43s.28-.03.26 0l.46-.24v.17h.26v.5l.13.27.07.68-.2.14-.26-.22Zm.03-1.19c-.05-.03-.2-.08-.4 0s-.48.3-.6.4c.25-.12.8-.36 1-.4Zm-.26.66c.16-.04.21-.24.22-.33-.04.12-.2.2-.27.23l.2-.29-.03-.1-.23.35h-.12l.18-.25-.06-.04-.17.2h-.23c.12.17.48.23.51.23Zm-3.02-3.5-.28-.17c-.16 0-.52.46-.67.7l-.94 1.3.18.44.64-1.47.41-.27-.53 1.13 1.19-1.67Zm.7 0-.31-.17c-.42.4-1.15 1.8-1.46 2.44l1.46-2.09-1.05 1.73 1.37-1.92Zm1.66 6.38c-.44-.14-1.38-.65-1.63-1.56 0-.04-.13-.33-.19-.47.05.19.08.57-.19.57-.07 0-.3-.2-.41-.3v-.35c-.05-.05-.2-.1-.4.08-.14-.15-.4-.52-.22-.76.23-.3.63-.46.93-.26.23.16.3.4.3.49.16 0 .54-.03.64-.23l.2.76h.2l-.1.27 1.03 1.22c.02.15.02.46-.16.54Zm-2.07-2.01c.04-.05.1-.16 0-.21-.1-.07-.14-.28 0-.4.15-.1-.4-.59-.73-.24-.27.28-.06.54.08.64l.35-.4-.14.31.27.3h.17Z" fill="#F0F3FA"/><path d="m11.05 22.14.31-.32c-.14-.33-.14-.83.07-2.61a4.98 4.98 0 0 1 1.64-2.97 5.9 5.9 0 0 1 4.44-1.52 6 6 0 0 1 3.7 1.75c.57.44.94 1.05 1.05 1.3.05 0 .11-.08 0-.44-.14-.45-1.16-1.5-2.1-2.1a7.4 7.4 0 0 0-2.5-.83c-.72.04-2.35.22-3.2.58a6.08 6.08 0 0 0-1.95 1.49c-.44.3-.73 1-.83 1.3l-.46.63c-.39.5-.16.9 0 1.03l-.47.77c-.1.55.17 1.52.3 1.94ZM22.96 18.98a3.56 3.56 0 0 0-.33-.84c-.17.07.03.77.15 1.11l.18-.27ZM22.87 22.95c.37-1.3.28-2.23.18-2.52l-.18.35c0 .71-.37 2.02-.56 2.59l.56-.42ZM15.3 24.64l-.35.35c.86.13 2.04 1.42 2.52 2.06l.2-.2a11.57 11.57 0 0 0-2.37-2.21Z" fill="#A27F5C"/><path d="M14.57 25.11c.87.1 2 1.2 2.46 1.74l-1.15-.6-.12.12.89.57v.1l-2.27-1.2-.12.16 1.5.85v.09a7.87 7.87 0 0 1-2.4-1.2c.38-.2 1.15-.63 1.2-.63Z" fill="#A27F5C"/><path d="M13.39 16.51c.3-.05.8.13 1 .22.53-.48 1.9-.78 2.5-.87 2.18-.24 3.37.4 3.7.75l.18-.1c-.7-.55-2.48-1.62-3.98-1.44a7.58 7.58 0 0 0-3.4 1.44Z" fill="#F0F3FA"/></svg>