<!-- by TradeStack --><svg viewBox="0 0 56 56" xmlns="http://www.w3.org/2000/svg"><path fill="#F0F3FA" d="M0 0h56v56H0z"/><path d="M13 19.6v16.93L27.87 45 43 36.53V19.6l-15.04-8.5L13 19.58Zm1.7 8.76 13.32-12.6 13.11 12.6-13.1 12.94-13.34-12.94Z" fill="#871A16"/><path d="m28 44.92-14.96-8.47v-6.13l1.27-1.44L28 41.96v2.96Z" fill="url(#a)"/><path d="M13.55 28.56v-8.93l14.32-8.05v3.29L13.55 28.56Z" fill="url(#b)"/><path d="M27.96 41.8V45L43 36.28v-8.83L27.96 41.79Z" fill="url(#c)"/><path d="M37.87 35.17c.07-.69 3.42-4.5 5.09-6.33v5.47c-.2.2-1 .72-2.63 1.28-2.03.7-2.54.45-2.46-.42Z" fill="url(#d)"/><path d="M42.9 19.61 27.84 11v4l13.74 13.11 1.32-.68v-7.82Z" fill="url(#e)"/><defs><linearGradient id="a" x1="24.27" y1="38.55" x2="20.04" y2="43.03" gradientUnits="userSpaceOnUse"><stop stop-color="#5B1A17"/><stop offset=".23" stop-color="#8E1815"/><stop offset="1" stop-color="#2F0E0E"/></linearGradient><linearGradient id="b" x1="29.48" y1="16.47" x2="14.57" y2="16.47" gradientUnits="userSpaceOnUse"><stop offset=".29" stop-color="#8F1310"/><stop offset="1" stop-color="#290505"/></linearGradient><linearGradient id="c" x1="29.53" y1="41.88" x2="42.52" y2="40.04" gradientUnits="userSpaceOnUse"><stop stop-color="#2F0E0E"/><stop offset="1" stop-color="#54120B"/></linearGradient><linearGradient id="d" x1="43.58" y1="30.98" x2="38.74" y2="36.8" gradientUnits="userSpaceOnUse"><stop stop-color="#7F1A16"/><stop offset="1" stop-color="#45110D"/></linearGradient><linearGradient id="e" x1="37.3" y1="16.61" x2="33.76" y2="21.5" gradientUnits="userSpaceOnUse"><stop stop-color="#2F0E0E"/><stop offset=".43" stop-color="#8B1915"/><stop offset="1" stop-color="#641A17"/></linearGradient></defs></svg>