<!-- by TradeStack --><svg viewBox="0 0 56 56" xmlns="http://www.w3.org/2000/svg"><path fill="#19848D" d="M0 0h56v56H0z"/><path d="M50.55 31.45c-.02-.02-.02-.04 0-.05a4.93 4.93 0 0 0 1.37-4.42 4.87 4.87 0 0 0-1.94-3.1 4.56 4.56 0 0 0-3.04-.87 4.85 4.85 0 0 0-4.43 4.67 4.98 4.98 0 0 0 2.05 4.23 4.67 4.67 0 0 0 5.38.01l1 1.07h.02l.52-.5v-.03l-.93-1Zm-.61-.65-1.35-1.46c-.02-.02-.03-.02-.05 0l-.52.51v.01l1.32 1.43v.03a3.81 3.81 0 0 1-4.45-.2 4.06 4.06 0 0 1-.56-5.96 3.92 3.92 0 0 1 3.07-1.33 3.76 3.76 0 0 1 2.68 1.24 4.07 4.07 0 0 1 1.07 3.43 4.1 4.1 0 0 1-1.16 2.3h-.05ZM4.76 24.43c0-.03 0-.03.02 0l5.46 8.55.03.02H11l.01-.01v-9.97c0-.01 0-.02-.02-.02h-.72c-.01 0-.02 0-.02.02v8.43c0 .03 0 .03-.02.01L4.8 23.02a.05.05 0 0 0-.05-.02h-.72C4 23 4 23 4 23.02V33h.74c.01 0 .02 0 .02-.02v-8.55ZM18 32.23v.75c0 .01 0 .02-.02.02h-5.96c-.01 0-.02 0-.02-.02v-9.96c0-.01 0-.02.02-.02h5.96c.01 0 .02 0 .02.02v.75c0 .01 0 .02-.02.02h-5.15l-.01.01v3.66l.01.01h5.15c.01 0 .02 0 .02.02v.76c0 .01 0 .02-.02.02h-5.15l-.01.01v3.92l.01.01h5.15c.02 0 .02 0 .02.02Zm5-4.88A2599.29 2599.29 0 0 1 19.92 23H19v.02l3.5 4.97.01.01v.01L19 32.98V33h.92c.02 0 .03 0 .04-.02A2590.34 2590.34 0 0 1 23 28.64 2828.5 2828.5 0 0 1 26.07 33H27v-.02a79624.13 79624.13 0 0 0-3.5-5 44288.54 44288.54 0 0 0 3.5-4.98h-.92A2495.27 2495.27 0 0 1 23 27.35ZM31.8 33h-.77s-.03 0-.03-.02v-9.19h-2.73c-.01 0-.02-.01-.02-.03v-.74c0-.01 0-.02.02-.02h6.47c.01 0 .02 0 .02.02v.74c0 .02 0 .02-.02.02h-2.91c-.01 0-.02 0-.02.02v9.18c0 .01 0 .02-.02.02Zm5.04-.79c-.01 0-.02 0-.02-.02v-3.91l.01-.01h5.15c.01 0 .02-.01.02-.03v-.75s0-.02-.02-.02h-5.14l-.02-.01V23.8l.02-.01h5.15l.01-.01v-.76c0-.01 0-.02-.02-.02h-5.97v.01L36 32.99h.01l5.97.01c.01 0 .02 0 .02-.02v-.75s0-.02-.02-.02h-5.14Z" fill="#fff"/></svg>