<!-- by TradeStack --><svg viewBox="0 0 56 56" xmlns="http://www.w3.org/2000/svg"><path fill="#F0F3FA" d="M0 0h56v56H0z"/><path d="M16.48 17.22c-.32 0-.64.11-.95.34-.3.22-.6.53-.87.93-.26.4-.5.85-.7 1.36a9.11 9.11 0 0 0-.63 3.37c0 .8.1 1.43.33 1.89.22.45.5.67.85.67.32 0 .63-.11.94-.33.3-.23.6-.54.86-.93.27-.4.51-.85.71-1.36a9.45 9.45 0 0 0 .64-3.38c0-.8-.12-1.43-.34-1.88-.22-.45-.5-.68-.84-.68ZM11 23.07c0-.54.08-1.1.25-1.67a7.16 7.16 0 0 1 1.91-3.04c.46-.42.98-.75 1.55-1 .58-.24 1.2-.36 1.88-.36 1.06 0 1.9.26 2.5.77.6.5.91 1.23.91 2.18a6.59 6.59 0 0 1-3.74 5.69c-.57.24-1.19.36-1.86.36-1.06 0-1.9-.25-2.5-.76a2.7 2.7 0 0 1-.9-2.17ZM24.36 20.22c-.3 0-.59.12-.87.35-.28.23-.53.54-.76.92a5.48 5.48 0 0 0-.72 2.76c0 .4.08.68.25.86.17.17.4.25.68.25.24 0 .5-.06.74-.2.25-.13.5-.37.76-.72l.24.09a3.62 3.62 0 0 1-1.5 1.26 3 3 0 0 1-1.16.21c-.58 0-1.06-.14-1.45-.42-.38-.28-.57-.7-.57-1.3 0-.37.06-.75.2-1.15a4.97 4.97 0 0 1 1.42-2.15 3.81 3.81 0 0 1 2.6-.98c.48 0 .84.11 1.1.33.28.21.41.47.41.77a1.43 1.43 0 0 1-.64 1.13c-.2.13-.4.2-.65.2a.83.83 0 0 1-.52-.18.64.64 0 0 1-.23-.52c0-.33.12-.62.35-.86.24-.24.5-.4.8-.47a.64.64 0 0 0-.2-.14.73.73 0 0 0-.28-.04ZM27.34 23.5a4.67 4.67 0 0 0 1.56-.89c.31-.27.57-.58.77-.93.2-.36.3-.74.3-1.15 0-.13-.02-.21-.05-.26-.03-.04-.08-.06-.14-.06-.17 0-.35.08-.55.25-.2.16-.4.38-.59.66a5.7 5.7 0 0 0-.9 2.01c-.09.37-.14.73-.14 1.08 0 .42.09.7.27.84.18.15.41.22.7.22.18 0 .43-.05.75-.17.32-.13.64-.35.95-.66l.19.09a3.46 3.46 0 0 1-1.65 1.26 3.54 3.54 0 0 1-2.25.03 1.4 1.4 0 0 1-.97-1.37c0-.41.08-.82.22-1.24a4.91 4.91 0 0 1 2.78-2.95 3.9 3.9 0 0 1 1.45-.26c.38 0 .7.08.97.23.26.15.39.38.39.7 0 .27-.08.54-.25.78-.17.25-.4.47-.68.67-.28.21-.6.4-.96.55a9.13 9.13 0 0 1-2.18.7l.01-.12ZM33.64 25.33c.1 0 .2-.04.32-.13.12-.1.24-.24.37-.43.13-.2.26-.44.4-.74.13-.3.26-.66.39-1.08l-.3 1.18c-.16.47-.35.84-.56 1.12-.22.27-.45.47-.72.59-.25.1-.52.16-.8.16-.49 0-.84-.12-1.07-.36a1.39 1.39 0 0 1-.35-1c0-.41.08-.83.23-1.27a5.78 5.78 0 0 1 1.48-2.33c.33-.32.66-.57 1.01-.75.36-.2.71-.29 1.06-.29.26 0 .46.08.6.25.14.17.18.45.14.84l-.14.06c.04-.22.04-.4-.02-.5a.26.26 0 0 0-.26-.18c-.15 0-.32.09-.5.26-.19.16-.37.38-.57.67a6.42 6.42 0 0 0-1.02 3.3c0 .22.02.38.07.49.05.1.13.14.24.14ZM36 20.16a11.7 11.7 0 0 0 1.95-.16l-1.59 4.91-.06.28c0 .07.02.13.05.17.04.04.1.06.17.06.08 0 .19-.05.3-.15.13-.09.25-.3.39-.63l.23-.57h.22l-.3.8a1.5 1.5 0 0 1-1.03 1.03c-.2.07-.4.1-.61.1-.45 0-.77-.12-.96-.36a.99.99 0 0 1-.18-.6c0-.25.05-.53.16-.86L36 20.16ZM40.19 26h-1.9l1.45-4.91c.04-.11.07-.2.08-.28 0-.07 0-.13-.04-.16-.02-.05-.08-.07-.15-.07a.52.52 0 0 0-.38.17c-.1.1-.21.31-.34.61l-.25.62h-.23l.34-.85c.15-.4.35-.69.62-.87.26-.17.58-.26.96-.26.3 0 .53.05.7.14.17.1.3.21.35.37.07.15.1.32.09.5-.01.18-.04.35-.09.53L40.2 26Zm.33-1.87c.32-.85.61-1.54.88-2.08.28-.53.54-.95.8-1.25.26-.3.52-.51.8-.62.27-.12.57-.18.88-.18.39 0 .67.08.84.23.18.15.27.35.28.6 0 .25-.04.53-.16.83l-1.18 3.25c-.07.2-.08.34-.03.4.04.07.1.1.19.1.08 0 .19-.04.3-.12.13-.1.25-.32.39-.65l.23-.57h.22l-.3.8c-.1.3-.25.54-.44.7a1.4 1.4 0 0 1-.58.33 2.04 2.04 0 0 1-1.24 0 .9.9 0 0 1-.4-.28.96.96 0 0 1-.18-.57c0-.22.07-.52.2-.87l1.04-2.9c.05-.13.08-.24.1-.33a.47.47 0 0 0-.01-.25c-.03-.06-.08-.08-.16-.08-.14 0-.3.1-.49.28-.18.2-.37.45-.57.78a20.02 20.02 0 0 0-1.68 3.99l.27-1.54ZM12.84 30.55 9.26 37h-.73l-.92-7.94c-.04-.31-.12-.52-.25-.63a.67.67 0 0 0-.36-.18l.06-.25h3.37l-.06.25c-.24.02-.4.1-.5.22-.1.12-.12.4-.1.84l.56 5.52-.43.5 2.87-5.1.07.32Zm4.38-.82c.2-.38.28-.67.26-.87 0-.21-.1-.36-.27-.44-.17-.09-.41-.14-.72-.17l.06-.25H19l-.06.25a1.9 1.9 0 0 0-.95.62c-.15.19-.32.46-.5.8L13.8 37h-.74l-.96-7.94c-.04-.3-.1-.5-.2-.62s-.2-.18-.3-.19l.06-.25h3.58l-.06.25c-.38.02-.64.1-.78.22-.13.12-.18.4-.13.84l.59 5.47-.44.45 2.8-5.5ZM19.75 29.11a1 1 0 0 1 .38-.83c.26-.19.57-.28.93-.28.31 0 .55.07.7.2.17.13.25.32.24.57a1 1 0 0 1-.4.79c-.25.2-.55.3-.92.3-.3 0-.53-.06-.7-.19a.66.66 0 0 1-.23-.56Zm-.47 2.81c.13-.35.09-.52-.11-.52-.13 0-.25.06-.35.18-.11.12-.23.33-.35.62l-.25.64H18l.33-.87c.1-.3.24-.53.4-.7.18-.17.37-.3.59-.36.22-.08.44-.11.69-.11.28 0 .5.04.67.14.17.1.28.23.35.39.07.15.1.32.1.51-.01.18-.05.36-.11.55l-1.22 3.48c-.07.2-.08.34-.05.41.04.08.1.12.2.12.08 0 .18-.05.3-.15.12-.1.24-.32.37-.66l.23-.59h.22l-.3.83c-.11.31-.26.55-.43.73-.17.16-.36.28-.57.34a2 2 0 0 1-.62.1c-.34 0-.6-.07-.8-.22a.87.87 0 0 1-.34-.63c-.03-.28.02-.63.16-1.04l1.11-3.19ZM23.67 35.9c-.06.18-.06.32-.02.4.05.07.12.11.2.11.06 0 .14-.04.26-.13.11-.1.24-.31.36-.66l.21-.58h.21l-.28.81c-.1.32-.25.55-.42.72-.17.16-.35.27-.54.33-.2.07-.38.1-.56.1-.24 0-.44-.04-.6-.13a.81.81 0 0 1-.37-.36 1.21 1.21 0 0 1-.12-.57c0-.23.04-.49.13-.79l1.72-5.73c.07-.25.07-.43-.02-.55-.09-.12-.32-.18-.68-.18l.08-.23A8.77 8.77 0 0 0 26 28l-2.33 7.9ZM26.17 36.7l.19.06h.24c.27 0 .5-.07.66-.22a.86.86 0 0 0 .26-.66c0-.25-.05-.5-.17-.76a5.08 5.08 0 0 0-.5-.85c-.19-.27-.36-.53-.5-.78a1.74 1.74 0 0 1-.22-.85c0-.32.09-.6.26-.84.17-.25.43-.44.76-.58a3.7 3.7 0 0 1 2.13-.11c.3.07.53.18.72.35.19.17.28.42.28.74 0 .13-.02.27-.08.42a.84.84 0 0 1-.26.35.68.68 0 0 1-.43.13.62.62 0 0 1-.51-.23.92.92 0 0 1-.2-.6 1.59 1.59 0 0 1 .37-.97.74.74 0 0 0-.35-.07c-.27 0-.49.08-.64.23-.14.16-.22.38-.23.67 0 .16.03.32.1.49.06.15.15.3.25.47a12.74 12.74 0 0 1 .89 1.48c.1.26.16.51.16.77 0 .3-.09.59-.27.84-.17.24-.43.45-.78.6a4.02 4.02 0 0 1-2.24.1 1.62 1.62 0 0 1-.77-.42c-.2-.2-.29-.46-.29-.8 0-.24.07-.45.2-.62.13-.17.3-.26.53-.26.22 0 .4.08.52.25.13.17.2.4.2.66 0 .2-.03.4-.1.58l-.18.42ZM34.35 31.22c-.16 0-.34.1-.53.3-.2.21-.38.49-.57.83a8.65 8.65 0 0 0-1.04 3.75c0 .25.03.42.07.53.06.1.14.15.25.15.15 0 .32-.1.5-.29.2-.2.38-.46.56-.79a8.3 8.3 0 0 0 1.05-3.78c0-.29-.02-.48-.08-.57-.05-.09-.13-.13-.21-.13Zm-3.9 3.94a4.7 4.7 0 0 1 1.4-3.19A3.71 3.71 0 0 1 34.4 31c.64 0 1.14.16 1.48.47.35.32.52.77.52 1.37a4.91 4.91 0 0 1-.61 2.2c-.2.36-.47.7-.8 1a3.67 3.67 0 0 1-2.55.96c-.65 0-1.14-.16-1.49-.47-.34-.32-.52-.77-.52-1.37ZM38.72 37h-1.87l1.44-4.91c.04-.11.06-.2.07-.28 0-.07 0-.13-.04-.16-.02-.05-.07-.07-.15-.07a.5.5 0 0 0-.37.17c-.1.1-.21.31-.34.61l-.25.62H37l.33-.85c.15-.4.35-.69.61-.87.26-.17.58-.26.96-.26.29 0 .52.05.68.14.18.1.3.21.36.37.06.15.09.32.08.5 0 .18-.04.35-.08.53L38.73 37Zm.33-1.87c.32-.85.6-1.54.88-2.08.26-.53.52-.95.77-1.25.26-.3.53-.51.8-.62.27-.12.56-.18.87-.18.38 0 .66.08.84.23.17.15.26.35.27.6 0 .25-.05.53-.16.83l-1.16 3.25c-.08.2-.09.34-.04.4.05.07.11.1.19.1.09 0 .19-.04.3-.12.12-.1.25-.32.38-.65l.23-.57h.22l-.3.8c-.1.3-.25.54-.43.7-.17.16-.37.27-.58.33a1.99 1.99 0 0 1-1.22 0 .89.89 0 0 1-.4-.28.96.96 0 0 1-.17-.57c0-.22.06-.52.19-.87l1.04-2.9.09-.33a.47.47 0 0 0-.01-.25c-.03-.06-.08-.08-.15-.08-.15 0-.3.1-.49.28-.18.2-.37.45-.56.78a20.16 20.16 0 0 0-1.66 3.99l.26-1.54ZM44.88 36.7l.2.06h.24c.27 0 .49-.07.66-.22a.86.86 0 0 0 .26-.66c0-.25-.06-.5-.18-.76a5.09 5.09 0 0 0-.5-.85l-.5-.78a1.74 1.74 0 0 1-.21-.85c0-.32.09-.6.26-.84.17-.25.42-.44.75-.58a3.7 3.7 0 0 1 2.13-.11c.3.07.54.18.73.35.19.17.28.42.28.74 0 .13-.03.27-.08.42a.84.84 0 0 1-.26.35.68.68 0 0 1-.44.13.62.62 0 0 1-.5-.23.92.92 0 0 1-.2-.6c0-.22.05-.4.12-.58.08-.17.16-.3.25-.4a.75.75 0 0 0-.35-.06c-.28 0-.49.08-.64.23-.15.16-.23.38-.24.67 0 .16.04.32.1.49.07.15.16.3.26.47a12.53 12.53 0 0 1 .88 1.48c.11.26.17.51.17.77 0 .3-.1.59-.27.84-.18.24-.44.45-.78.6a4.03 4.03 0 0 1-2.24.1 1.62 1.62 0 0 1-.77-.42c-.2-.2-.3-.46-.3-.8 0-.24.07-.45.2-.62.13-.17.3-.26.54-.26.22 0 .4.08.52.25.13.17.2.4.2.66 0 .2-.04.4-.1.58l-.19.42Z" fill="#2C3C7A"/></svg>