<!-- by TradeStack --><svg viewBox="0 0 56 56" xmlns="http://www.w3.org/2000/svg"><path fill="#F0F3FA" d="M0 0h56v56H0z"/><path fill-rule="evenodd" d="M26.72 20.96h.02l.02-.01a.05.05 0 0 0 .01-.04c-.07-1.1-.06-2.22 1.09-2.74.44-.2.95-.22 1.54-.07.02 0 .03.02.03.04v.96c0 .03-.01.04-.04.03-.94-.15-1.4.16-1.4.95l.01.83c0 .04.02.05.06.05h1.32c.03 0 .05.02.05.06v.97c0 .03-.01.04-.04.04h-1.34c-.03 0-.05.02-.05.06v4.69l-.01.02h-1.16c-.05 0-.07-.01-.07-.06v-4.63c0-.05-.03-.08-.09-.08h-1v-1.06h1.05Zm-7.86 1.53c0-2.43-1.8-4.46-4.44-4.45A4.34 4.34 0 0 0 10 22.52c0 2.43 1.8 4.46 4.44 4.45a4.34 4.34 0 0 0 4.42-4.48Zm-1.27.02c0-1.8-1.14-3.36-3.15-3.36-2.02 0-3.16 1.56-3.17 3.35 0 1.8 1.14 3.36 3.16 3.36 2.01 0 3.16-1.56 3.16-3.35Zm22.67-1.49c-.9-.11-1.59.2-2.06.94-.03.05-.05.05-.05-.01v-.85l-.03-.01h-1.1c-.01 0-.02 0-.02.02v5.84c0 .03.02.05.06.05h1.1l.01-.03c0-1.66 0-2.68.02-3.08.02-.35.06-.59.12-.73.38-.87 1.07-.94 1.96-.89.04 0 .06-.01.06-.05V21.1c0-.04-.03-.06-.07-.07ZM22.1 22.96h.02l.01-.01a144.17 144.17 0 0 0 1.42-1.97.1.1 0 0 1 .04-.01h1.34l.02.02a.03.03 0 0 1 0 .03l-2.08 2.76a.08.08 0 0 0 0 .1L25 26.74v.02a.04.04 0 0 1 0 .04h-1.33a.12.12 0 0 1-.1-.05c-.28-.38-.75-1.05-1.4-2-.03-.03-.05-.05-.08-.05-.02 0-.05.02-.08.06l-1.41 1.99a.12.12 0 0 1-.1.05h-1.3l-.02-.01-.01-.02v-.04l2.15-2.87a.08.08 0 0 0 0-.09l-2.06-2.77a.03.03 0 0 1 0-.03l.01-.02h1.35a.1.1 0 0 1 .04.01l.03.03a139.83 139.83 0 0 0 1.4 1.96ZM33 27a3 3 0 1 1 .01-6 3 3 0 0 1 0 6Zm-1.8-3c0 1.1.8 1.99 1.8 2 1 0 1.82-.9 1.82-2s-.8-2-1.8-2-1.82.9-1.82 2Zm13.63-2.2c0 .08-.02.09-.07.02-.41-.55-1.14-.8-1.83-.75-3.9.25-3.54 6.34.46 5.9a1.97 1.97 0 0 0 1.4-.81c.04-.05.06-.05.07.01l.03.63c0 .12.07.2.2.2h.84c.13 0 .18-.08.15-.2a4.5 4.5 0 0 1-.07-.87 5035.64 5035.64 0 0 1-.02-7.9v-.01l-.04-.02H44.9c-.02 0-.04.02-.05.03a.06.06 0 0 0-.02.04v3.73ZM43 26.03c-.97-.02-1.73-.93-1.7-2.04.03-1.1.83-1.98 1.8-1.96.96.02 1.72.93 1.7 2.04-.04 1.1-.84 1.98-1.8 1.96ZM12.75 35.2c.01 0 .02 0 .03-.02l3.04-7.13a.08.08 0 0 1 .07-.05h1.55c.03 0 .05.02.05.05v8.9c0 .03-.02.04-.04.04h-1.13c-.04 0-.06-.02-.06-.06v-6.67c0-.13-.02-.14-.08-.02l-2.85 6.69-.03.03a22.61 22.61 0 0 1-1.11 0 .09.09 0 0 1-.03-.03l-2.84-6.7c-.06-.11-.08-.1-.08.02l-.01 6.68c0 .04-.02.05-.06.05H8.04c-.03 0-.04-.01-.04-.04l.01-8.9c0-.03.02-.05.06-.05H9.6c.04 0 .07.02.08.05a12158.38 12158.38 0 0 1 3.06 7.16Zm21.93-6.37c0 .46.38.83.85.83s.85-.38.85-.84a.84.84 0 0 0-.86-.82.84.84 0 0 0-.84.83ZM28.45 31h-1.16c-.05 0-.07-.02-.07-.07v-1.87c0-.04-.02-.06-.06-.06h-.98c-.04 0-.05.02-.05.06l.01.35c.04.8.1 1.72-1.08 1.58-.04 0-.06.03-.06.07v.99c0 .03 0 .05.04.05h.91c.02 0 .04 0 .05.02v.05c-.02 1.7 0 2.74.03 3.3.06 1.34 1.2 1.74 2.41 1.43.03 0 .04-.02.04-.05v-.95c0-.03-.01-.04-.04-.03-.5.08-.83.03-1.03-.15-.12-.11-.19-.38-.19-.8v-2.76c0-.04.02-.06.06-.06h1.17a.03.03 0 0 0 .03-.02v-1.05l-.01-.02-.02-.01Zm13.25 3.82.93.37a.1.1 0 0 1 .05.05c.01.02.01.05 0 .07a2.68 2.68 0 0 1-2.23 1.66 2.95 2.95 0 0 1-3.37-2.22 3.4 3.4 0 0 1-.05-1.24c.2-1.68 1.73-2.72 3.5-2.47a2.5 2.5 0 0 1 2.11 1.7c.02.04 0 .07-.03.08l-.99.4a.06.06 0 0 1-.06-.01l-.01-.02c-.38-1.4-2.27-1.53-3.02-.38-.4.61-.41 1.52-.1 2.18.6 1.32 2.74 1.32 3.19-.13l.01-.02.02-.02a.07.07 0 0 1 .05 0Zm4.42-.22c.56.11.92.62.56 1.1-.29.38-.97.4-1.4.26a1.18 1.18 0 0 1-.82-.96c0-.02-.01-.02-.03-.02l-1.03.35c-.02 0-.03.02-.03.04.34 1.34 1.8 1.85 3.15 1.54.9-.2 1.6-1.03 1.46-1.89-.18-1.2-1.24-1.4-2.33-1.62l-.26-.05c-.5-.1-.72-.36-.65-.78.03-.22.27-.46.47-.53.74-.26 1.52.05 1.7.83v.01a.02.02 0 0 0 .02 0l1.01-.34c.02 0 .03-.01.02-.03-.32-1.12-1.3-1.58-2.49-1.5-2.06.14-2.74 2.77-.58 3.32.45.11.86.2 1.23.27Zm-14.98-2.65c0 .06.02.06.05.02a1.96 1.96 0 0 1 2.05-.95c.04 0 .06.03.06.07v1.13c0 .04-.01.05-.05.05-.88-.05-1.57.02-1.95.89-.06.14-.1.38-.11.73a81.13 81.13 0 0 0-.02 3.1h-.03l-1.07.01c-.04 0-.06-.02-.06-.05L30 31.12c0-.02 0-.03.03-.03h1.1l.01.03v.83Zm3.9-.95h1.08c.03 0 .05.02.05.05v5.9c0 .03-.02.05-.05.05h-1.07a.05.05 0 0 1-.05-.05v-5.9c0-.03.02-.05.05-.05Zm-15.1 3.34h4.59c.04 0 .06-.02.06-.05.14-1.71-.73-3.19-2.79-3.29-.73-.03-1.5.17-2.02.6a2.95 2.95 0 0 0-1.13 2.95c.23 1.37 1.32 2.35 2.88 2.44 1.4.08 2.59-.58 3.04-1.76 0-.02 0-.03-.03-.04l-1.03-.32c-.02 0-.04 0-.04.02-.3.86-1.1 1.24-2.09 1.08a1.71 1.71 0 0 1-1.48-1.6l.01-.02.03-.01Zm.04-.95 3.32.01a.02.02 0 0 0 .01 0v-.02c0-.37-.17-.72-.48-.99-.31-.26-.74-.4-1.18-.4h-.01c-.22 0-.44.03-.64.1s-.39.17-.54.3a1.4 1.4 0 0 0-.36.45 1.2 1.2 0 0 0-.13.53v.03Z" fill="#252122"/></svg>