<!-- by TradeStack --><svg viewBox="0 0 56 56" xmlns="http://www.w3.org/2000/svg"><path fill="#F0F3FA" d="M0 0h56v56H0z"/><path d="M28 28v7h5.03C39.1 35 44 30.47 44 24.6 44 18.76 39.09 14 33.03 14H28v7h5.12c1.95 0 3.88 1.61 3.88 3.5S35.07 28 33.12 28H28Zm0 0v-7h-5.03C16.9 21 12 25.7 12 31.5S16.91 42 22.97 42H28v-7h-5.12C20.93 35 19 33.37 19 31.5s1.93-3.5 3.88-3.5H28Z" fill="url(#a)"/><defs><linearGradient id="a" x1="10.91" y1="24.59" x2="27.4" y2="42.55" gradientUnits="userSpaceOnUse"><stop stop-color="#077175"/><stop offset="1" stop-color="#121413"/></linearGradient></defs></svg>