<!-- by TradeStack --><svg viewBox="0 0 56 56" xmlns="http://www.w3.org/2000/svg"><path fill="#F0F3FA" d="M0 0h56v56H0z"/><path fill-rule="evenodd" d="m17.4 34.44.13.56h.8l-.89-3h-.98l-.88 3h.8l.13-.56h.89Zm-.27-1.15.11.5-.55.01.22-.95.06-.34.07.37.09.41Zm-1.21.1c.05-.14.06-.28.06-.43a.97.97 0 0 0-.06-.39.89.89 0 0 0-.21-.32c-.22-.18-.5-.27-.78-.25H14v3h.73v-1h.2c.28.02.56-.06.78-.25.1-.1.16-.23.21-.36Zm-1.05-.04h-.14l-.02-.68h.2c.2 0 .31.1.31.3l-.01.15a.38.38 0 0 1-.08.14.35.35 0 0 1-.12.08.32.32 0 0 1-.14.01ZM20.99 35h-.97l-1-2.11h-.03c.03.32.05.58.05.76V35h-.65v-3h.96l.98 2.09h.02c-.02-.3-.02-.54-.02-.74V32h.64l.02 3ZM22 35h.72v-2.34h.67V32h-2.06v.66H22V35Zm3.76 0H25v-1.23h-.83V35h-.74v-3h.74v1.1H25V32h.74l.02 3Zm.24 0h1.62v-.69h-.89v-.56h.82v-.64h-.82v-.47h.89V32H26v3Zm2.73-1.08V35H28v-3h.89c.74 0 1.1.3 1.1.89 0 .17-.03.33-.12.48a.83.83 0 0 1-.34.33l.74 1.2.87-2.9h.97l.89 3h-.8l-.13-.56h-.89l-.13.56H29.5l-.58-1.08h-.2Zm0-.62h.14c.25 0 .37-.12.37-.37 0-.24-.12-.35-.37-.32h-.16l.02.7Zm3.07 0 .11.48-.55.02.22-.95.07-.34.06.37.1.41Z" fill="#231F20"/><path d="M34.2 33.7V35H34v-3h.64c.26-.02.53.05.75.2.08.08.15.17.2.28.03.1.05.22.05.34a.88.88 0 0 1-.14.51.79.79 0 0 1-.44.3L35.8 35h-.22l-.69-1.3h-.68Zm0-.17h.5c.2.01.38-.05.54-.17a.61.61 0 0 0 .15-.22.67.67 0 0 0 .05-.28c0-.09 0-.18-.04-.26a.6.6 0 0 0-.14-.23.94.94 0 0 0-.6-.14h-.44l-.02 1.3ZM37.48 35H36v-3h1.48v.2H36.2v1.13h1.22v.2H36.2v1.27h1.28v.2Zm1.77-.5c.04-.1.06-.2.06-.31 0-.11-.04-.22-.1-.31a.72.72 0 0 0-.21-.26l-.47-.24-.42-.2a.53.53 0 0 1-.17-.18.56.56 0 0 1-.05-.26.5.5 0 0 1 .04-.23.47.47 0 0 1 .14-.18c.14-.1.31-.15.49-.14.22 0 .43.05.64.14l.06-.16c-.22-.1-.46-.17-.7-.17a.9.9 0 0 0-.62.22.75.75 0 0 0-.09 1c.16.15.36.26.57.33l.42.19c.09.04.17.1.22.19.05.07.07.16.07.26 0 .08-.02.16-.05.24a.52.52 0 0 1-.15.18.8.8 0 0 1-.53.17 1.8 1.8 0 0 1-.75-.14v.21c.24.1.5.13.75.12.24.01.47-.06.66-.21a.68.68 0 0 0 .19-.26Zm2.67-1c.01.4-.1.79-.34 1.1a1.16 1.16 0 0 1-1.77 0c-.22-.31-.34-.7-.33-1.1-.02-.4.1-.79.34-1.1.1-.13.24-.23.4-.3.15-.07.31-.1.48-.1a1.11 1.11 0 0 1 .88.4c.24.32.35.7.34 1.1Zm-2.22 0c-.02.35.08.7.27.98a.98.98 0 0 0 1.48 0c.2-.28.29-.63.27-.98.01-.34-.08-.68-.27-.95a.97.97 0 0 0-1.48 0c-.19.27-.28.61-.27.95Zm4.52.43v-1.88H44v1.9c.03.36-.09.69-.46.82a.68.68 0 0 1-.32.03.7.7 0 0 1-.32-.04.75.75 0 0 1-.28-.19.86.86 0 0 1-.22-.65v-1.87h-.2v1.88a1.04 1.04 0 0 0 .26.78c.1.1.21.19.34.23.13.05.26.07.4.05.14.01.27 0 .4-.06a1 1 0 0 0 .62-1Zm.55-.23V35h-.2v-3h.64c.26-.02.53.05.75.2.08.08.15.17.2.28.03.1.05.22.05.34a.88.88 0 0 1-.14.51.79.79 0 0 1-.44.3l.73 1.37h-.22l-.7-1.3h-.67Zm0-.17h.5c.2.01.38-.05.54-.17a.61.61 0 0 0 .15-.22.67.67 0 0 0 .05-.28c0-.09 0-.18-.04-.26a.6.6 0 0 0-.14-.23.94.94 0 0 0-.6-.14h-.44l-.02 1.3Zm2.48-1.26a.96.96 0 0 1 .44-.08c.21 0 .43.06.62.17l.06-.2a1.54 1.54 0 0 0-.7-.16c-.25 0-.48.06-.69.2-.2.11-.35.3-.44.51-.11.25-.16.52-.16.79-.02.4.1.78.33 1.1.12.13.26.23.41.3.16.07.33.1.5.1.23 0 .45-.03.66-.1v-.19c-.2.06-.4.1-.61.1a.91.91 0 0 1-.44-.07.97.97 0 0 1-.36-.27 1.5 1.5 0 0 1-.27-.97c-.01-.35.09-.69.3-.95.1-.12.22-.21.35-.28ZM50.12 35h-1.48v-3h1.48v.2h-1.28v1.13h1.21v.2h-1.21v1.27h1.28v.2Zm1.82-.5c.04-.1.06-.2.06-.31 0-.11-.04-.22-.09-.31a.72.72 0 0 0-.22-.26l-.46-.24-.42-.2a.53.53 0 0 1-.18-.18.56.56 0 0 1-.05-.26.5.5 0 0 1 .05-.23.47.47 0 0 1 .13-.18c.14-.1.32-.15.49-.14.22 0 .44.05.64.14l.07-.16c-.23-.1-.47-.17-.71-.17a.9.9 0 0 0-.62.22.75.75 0 0 0-.09 1c.17.15.36.26.57.33l.42.19c.1.04.17.1.23.19.04.07.06.16.06.26 0 .08-.01.16-.05.24a.52.52 0 0 1-.15.18.8.8 0 0 1-.53.17 1.8 1.8 0 0 1-.75-.14v.21c.24.1.5.13.75.12.24.01.47-.06.67-.21a.68.68 0 0 0 .18-.26Z" fill="#231F20"/><path d="M9.58 30.86c-.2-.23.1-.23-.09-.32a3.19 3.19 0 0 1-.75-.36c-.2-.16-.42-.14-.56-.26a1 1 0 0 1-.17-.68c.02-.17.07-.34.13-.5.09-.25.47-.84.55-1.02.27-.33.55-.64.85-.94l.2-.45.22-.34s.05.02.18-.27l.24-.55c.16-.16.27-.37.31-.6.03-.4.11-.81.25-1.2.02-.14.02-.29.02-.43 0-.19.05-.38.13-.55l.05-.36.02-.55c-.04-.28 0-.58.13-.84.14-.3.23-.64.3-.68.03-.14.1-.27.2-.39.1-.13.18-.29.24-.45.03-.16.1-.3.2-.44l-.34-.72.38-.7a.2.2 0 0 1 .15-.07.2.2 0 0 1 .14.06c.12.19.3.33.51.39.36.13.29.16.29.16.05.08.13.14.21.18.1.03.19.04.28.02.33-.07.24.12.6-.09.35-.2.49-.23.84-.18.36.04.38.04.54.16.17.1.36.15.55.16.16.02.65.09.8.07.16-.03.05-.05.36-.1.17-.1.35-.23.5-.36.2-.11.2-.04.25 0 .05.05.27.96.23 1.07-.05.11-.43.55-.36.66.07.11.11.07.18.27.06.2.1.37.15.44l.3.38c.02.07.04.15.04.23l-.14.05.05.31-.05.14s.34.3.34.41c0 .11.09.61.13.8.03.11.02.23-.02.34l-.14.43c.1.28.2.55.34.82.04.04.18.09.29.2l.3.3c.18 0 .35.06.5.16.32.15.67.25 1.02.3l2.46.4 1.16.2 2.51.85c.27.1.78.18.98.23l1 .23 1.75.93 1.03.59c.19.15.4.27.62.36.3.12.75-.02.95.03a3.63 3.63 0 0 0 2 .41c.25-.04.5.01.71.13l.5.34c.46.12.94.2 1.41.25.43.05.78.03 1.34.03h2.35l.5-.05c.13 0 .44-.02.5.1.07.1.1.22.07.29-.33.43-.96.25-1.27.27l-3.53-.09H33.8l-2.69.02H12.38s-.15 0-.09.07c.16.22.3.47.38.73.05.19.06.38.02.57.1.16.23.45.16.61-.07.16.02.34.04.8.03.45-.42.64-.42.64s.11.4.07.47c-.05.07-.33.12-.47.14a.3.3 0 0 0-.18.08.32.32 0 0 0-.1.17.27.27 0 0 1-.1.17.26.26 0 0 1-.17.06c-.3.02-.3-.23-.34-.23l-.26.07c-.1 0-.05.14-.18.14s-.53-.62-.67-.62c-.13 0-.15.02-.3-.18a2.4 2.4 0 0 1-.34-.7c-.07-.19.04-.37.04-.64 0-.28.07-.3.1-.57.01-.27.24-.91.21-1.1-.02-.18 0-.1-.2-.31Z" fill="#F1CB4D"/><path d="m16.03 21.12.1-.07v-.04c0-.03.03-.03.05 0 .02.02.02.1.11.13.1.02-.02-.27-.02-.32a.33.33 0 0 0 .29-.04c.07-.05.22-.27.27-.3h-.03l-.06.16-.1.14.12-.1.07-.13c0-.02.02-.07.04-.09h.09c.09-.02-.13-.11-.18-.14l-.2-.04h-.22c-.04.02-.04-.05-.02-.07.02-.02.06-.11.04-.11l-.06.04-.07.11c-.13.14-.09.21-.09.23a.49.49 0 0 0-.02.18 1 1 0 0 1-.02.28l-.1.18Zm.13-.48c0-.04 0-.08.02-.11l.1-.1.12-.08c.16-.03.32.06.18.25a.3.3 0 0 1-.2.13c-.04.03-.22 0-.22-.11v.02Z" fill="#231F20"/><path d="M16.45 20.46c.02.02.09.14-.05.16l-.08-.05c-.07-.09.04-.2.13-.11ZM16.5 21.14c0 .02.02.03.04.03h.06c.05-.03.1-.1.12-.14l.06-.07h.02l.07-.05h.05v-.13h.02l.06-.07v-.02h-.08l-.14.27a.02.02 0 0 0 0 .02h-.02l-.27.16c0-.07-.02-.04 0 0Z" fill="#231F20"/><path d="M17.27 21.46v-.07a.41.41 0 0 0 .09-.23 5.89 5.89 0 0 0-.2-.95c0-.1.04-.2.02-.3a1.24 1.24 0 0 0-.2-.22l-.1-.1a.46.46 0 0 0-.12-.18c0 .08.03.14.07.2l.06.21.07.16.04.07.07.14c.02.09 0 .16-.07.18h-.06s-.25-.05 0 .07a.36.36 0 0 1 .22.2c.02.05.03.1.02.16l.02.16v.16c0 .02-.02.16-.08.09-.07-.07-.07-.02-.1-.02-.02 0-.06 0-.08-.03h-.05l-.06.07v.05h-.05c-.18-.05.4.34.5.18Z" fill="#231F20"/><path d="M16.6 19.48c.07.11.16.16.18.23l.07.11.04.05c0-.06-.02-.1-.04-.16l-.09-.16a3.74 3.74 0 0 0-.38-.39c.07.12.14.22.22.32Z" fill="#231F20"/><path d="m14.12 18.94.15-.05.07-.07.1-.07c.05-.04.16-.13.23-.09.07.05.07.07.13.05.07-.03.03-.03 0-.03v-.04l.1.04h.1c.03 0 .1-.02.12.03h-.07l-.05.04h-.08c-.05 0 0 .07-.12.05l.14.04a.7.7 0 0 0 .24-.02c.05-.02.05.05.05.1a.17.17 0 0 0-.14.06.07.07 0 0 0-.02.07c.02.04-.04.02-.07.02-.02 0 .03.14-.06.16-.07 0-.14 0-.2-.04h-.18l-.2.06-.13.05-.07.04c.07.05.24-.04.36-.06.1-.03.22.04.33.04l.11-.04c.04-.03.04-.07.07-.12l.06-.09c.1-.25.11.14.03.32a.75.75 0 0 1-.16.2l-.2.12-.18.23c-.02.04.05-.03.1-.03.04 0 .21-.13.26-.16l.06-.06.14-.23v.04c0 .07-.07.19.02.25.09.07.02-.09.02-.13a.53.53 0 0 1 .05-.12v-.06c.06.04.06.06.06.09l.11.04.14.07.06.05a.36.36 0 0 0-.13-.16c-.02-.03-.33-.14-.09-.12a.22.22 0 0 1 .16.12l.09.11c.02.02.05.04.06.07l.03.09c0 .05-.03.1 0 .14.01.11.07.21.15.3.02.01.05.04.07.01a.14.14 0 0 0 0-.1c-.05-.12-.16-.2-.18-.3a.3.3 0 0 0 0-.1v-.06l-.09-.14a.38.38 0 0 0-.24-.16h-.1a.11.11 0 0 1-.1-.03.12.12 0 0 1-.03-.1v-.07c0-.03.03-.14.05-.12.02.02.04.05.09.05.04 0 0-.05.06-.07.13 0 .25.02.36.07.1.05.19.1.29.13l.2.05s.11 0 0-.11a.8.8 0 0 0-.47-.2c-.64.1-.6-.26-.6-.28a.16.16 0 0 1-.02-.07h.2l-.02.09v.07c.02.14.15.07.18.07h.37c-.1-.04-.22-.07-.33-.07h.04c.05 0 .12-.07.1-.07a.28.28 0 0 0-.16 0c-.02 0-.14 0-.11-.05.02-.04.15-.04.15-.04.07 0 .13.03.18.07l.13.11.16.1.42.2c-.02-.05-.07-.16-.38-.28l-.37-.2h-.12a.57.57 0 0 1-.26-.14h.13c.11-.01.23 0 .33.03l.12.09H16l.23-.05c-.1-.11-.25-.04-.36-.09a.33.33 0 0 0-.2-.05h-.53l-.22-.04a.41.41 0 0 0-.25 0l-.2.11c.05.05.18-.04.27-.04l.29.04h.06a.07.07 0 0 1 0 .07l-.04.05h-.31a.46.46 0 0 0-.22.06l-.2.19-.14.07-.1.04.04-.04Z" fill="#231F20"/><path d="m15.54 19.37.18.07.08.04.05.05a.07.07 0 0 0 .11 0v-.05l.04-.04h.03c.1.04.19.1.26.18l.1.11c.01.05-.03.1 0 .14v.11l-.05.05c-.02.02.04.07.13-.07a.04.04 0 0 1 .07-.02c.02.02.06.04.04.09-.02.04-.09.09-.13.11-.05.02-.07.05-.07.1l.31-.14h.1c.04.02-.05.1-.05.1s.1-.01.13-.06c.02-.04-.02-.09-.04-.11a.5.5 0 0 1-.16-.18.25.25 0 0 0-.09-.14h-.02c.02.03.02.06.02.09 0 .05-.04.05-.09.05-.04 0-.06-.07-.06-.12a.39.39 0 0 0-.25-.25.4.4 0 0 1-.15-.11c0-.03-.01-.05-.03-.07l-.15.04h-.16l-.15-.04-.1-.11c-.04-.03-.12-.05-.15 0-.02.04.2.15.25.18ZM15.32 19.69l.06.13.1.1c.04.05.08.12.1.2v.04c0 .03.03-.04.03-.06a.76.76 0 0 0-.1-.28l-.1-.09c-.03-.02-.1-.2-.14-.18-.04.02.02.09.05.14ZM16.76 19.28l.07.04.06.05.05.07.06.04.36.39c.06.07.13.12.22.13.02 0-.33-.61-.35-.66a1.65 1.65 0 0 0-.54-.27c0 .02.03.18.07.2ZM17.65 20.16s0-.06-.02-.06h-.18l-.07.04-.06.05a.07.07 0 0 0-.05.03.07.07 0 0 0 0 .06l.09.11c.04.06.05.13.04.2 0 .08.01.14.03.21l.06.2c.03.14-.02.28 0 .42v.04c0 .04 0 .08-.02.11l-.09.19c-.06.09-.13.16-.15.27v.04h-.05v-.06a.11.11 0 0 0-.06-.07l-.14-.05-.18-.04h-.02c0 .07.07.09.11.13a1 1 0 0 1 .25.23c.03.05.05.1.06.16 0 .04.01.08.03.11l.04.07c.02.03-.02.05-.04.07l-.11.07c-.05.02-.14.04-.14.11s.07.03.1.03l.06-.05.1-.05.12-.06.07-.12.13-.07.07-.04a.13.13 0 0 0 .06-.1c0-.04 0-.1-.04-.08a.27.27 0 0 0-.11.11l-.07.07h-.02c-.02 0 0-.05 0-.05l-.02-.16c0-.06.02-.11.06-.16l.1-.13.06-.18c.05-.13.09-.26.11-.39v-.2c0-.06-.02-.11-.04-.16a2.65 2.65 0 0 0-.07-.41l-.05-.23c0-.04.02-.08.05-.12a.14.14 0 0 0 .04-.09M16.52 22.14l.08.05c.03.02 0 .07.03.07l.04.04.07.05c0 .02 0 .04-.02.07a.1.1 0 0 0 .02.09c.04.04.09.07.07.13-.03.07-.03.1 0 .14.02.05.04 0 .06 0a.14.14 0 0 0 .02-.11c0-.05 0-.1-.02-.14v-.16a.23.23 0 0 0-.07-.11c-.02-.03-.02-.1-.04-.12-.02-.02-.24-.09-.18-.13.07-.05-.09.09-.06.13ZM15.87 21.82l.02.07c.03.03.07.05.03.1a.23.23 0 0 0-.03.18c0 .04.16.22.07.02s-.02-.1 0-.12l.07-.04a.14.14 0 0 0 0-.1c-.03-.04-.16-.08-.1-.17.07-.1-.06 0-.06.06ZM16.5 22.64c-.02.04-.02.08 0 .12l.13.11c.02 0-.03-.07-.03-.07s.05-.09.03-.13a.35.35 0 0 0-.18-.07s.07.02.04.04ZM16.18 23.08c.07.02.11-.03.16 0h.06v-.05h.14l.06.01c.02 0 .04-.02.05-.03a.18.18 0 0 0-.07-.1h-.04c-.02.03-.02.08-.07.05a.09.09 0 0 0-.11 0h-.13c-.07.07-.1.03-.11.03-.03 0 .02.06.06.09ZM16 23.1h.07c.02 0 .02-.07.02-.07h-.06a.04.04 0 0 0-.03.03.05.05 0 0 0 0 .04ZM16.32 23.4l.08-.05h.12l.08-.05a.17.17 0 0 1 .16 0l.18.07h.15c-.02-.04-.13-.11-.06-.09h.2a1.72 1.72 0 0 0-.43-.2h-.02v.04c.02.02.02.05 0 .05h-.89c.13.1.27.18.43.22ZM15.87 23.37h-.07a.07.07 0 0 1-.04-.07c.02-.06.16.03.11.07ZM15.9 23.5c.04 0 .15.1.13.1l-.14-.05a.02.02 0 0 1-.02-.02v-.01l.02-.01ZM16.16 23.64h.04a.04.04 0 0 0 .06.02l.01-.02h.14c0-.04-.05-.06-.07-.06l-.14-.05h-.02c.07.11-.06 0-.06 0s.02.1.04.11ZM16.47 23.58h.16c.02 0 0 .04 0 .04l.04.05a.02.02 0 0 1 0 .02c-.02 0-.02.02 0 .02s.1.05.07.07c-.02.02-.25-.14-.25-.14h-.04a.04.04 0 0 1-.02-.04v-.01l.01-.01h.03ZM17.27 23.28l.18.18.04.05.07.04c.04.05.07.19.16.16.08-.02 0-.18-.05-.22l-.15-.12c-.1-.04-.25-.13-.25-.09ZM16.14 23.85c.04.05.09.07.13.11.05.05.1.08.16.1l.01-.01.01-.02c-.04-.07-.11-.18-.2-.2h-.09c-.02 0-.02.02-.02.02ZM16 24c.07.1.13.2.16.3l.04.23.07.12h-.02c-.07-.03.09.13.13.09.05-.05 0-.07-.02-.07l-.04-.05a.49.49 0 0 0-.03-.22l-.04-.16.07.06h.01v-.02l-.1-.2-.1-.1.14.12c.03.05.07.09.11.11h.02a.47.47 0 0 0-.17-.2l-.16-.1-.11-.08c-.16-.1 0 .13.04.18Z" fill="#231F20"/><path d="M15.96 24c.07.12.2.28.16.44h-.03c-.04-.04-.02-.09-.04-.16l-.05-.11-.06-.12c-.02-.04 0-.06.02-.04ZM15.87 24.17h.05v.04l.04.1c0 .01 0 .03.02.04.01.02.03.02.05.02-.01-.05-.02-.1-.05-.16a.46.46 0 0 0-.06-.13h-.05c0 .02-.02.04 0 .09ZM15.65 24.12h.13c.03-.02-.02-.04-.04-.04l-.11-.05c-.1-.09-.03.07.02.1ZM15.32 23.83h.06v.04h.07v.07a.03.03 0 0 1 0 .05.03.03 0 0 1-.05 0c-.02 0-.02-.05-.02-.07h-.09c-.02 0-.02-.05-.02-.07a.07.07 0 0 1 .05-.02Z" fill="#231F20"/><path d="M14.74 23.87a.11.11 0 0 1 .1-.04c.05-.07.19-.07.23-.07h.2a.14.14 0 0 1 0 .11l.05.07c.02.02.04.1.02.11-.02.03-.05.03-.07 0l.05.1c.02.02.04.06 0 .09-.05.02-.12-.12-.12-.16l-.08-.1v.05l-.04.04a.09.09 0 0 1-.05 0c-.03 0-.05-.04-.05-.06h-.04c-.05-.02 0-.11 0-.11s-.07.15-.11.18a.16.16 0 0 1-.03-.12l-.04-.04c-.02.04-.09.07-.11.02-.02-.04.04-.04.09-.07ZM15.4 24.44a.19.19 0 0 0 .07.14s.02-.12 0-.14h.02v-.09a.07.07 0 0 0-.03-.04.07.07 0 0 0-.06 0h-.02c-.09.06.02.13.02.13ZM15.14 24.33v.04h.04c.02 0 .1-.02 0-.11h-.02a.04.04 0 0 0-.03.03.05.05 0 0 0 0 .04Z" fill="#231F20"/><path d="M14.74 24.3c-.02.03-.05.07 0 .1a.07.07 0 0 0 .09-.03l.02-.03a.1.1 0 0 0 0-.04v-.09c0-.02.04-.25-.11-.09a.09.09 0 0 0-.06.03.1.1 0 0 0 0 .13c.01.02.03.02.06.02ZM15.47 24.2c.07 0 .05.04.05.04l.04.04c.02.02.04.05.07.02.02-.02-.11-.13-.16-.15-.04-.03-.02.04 0 .04ZM14.52 24.08c.02.02.04-.03.06-.05.03-.02 0-.07 0-.09l-.06.05a.07.07 0 0 0 0 .09ZM14.45 24h.02a.1.1 0 0 1-.04.1h-.03c0-.02 0-.1.05-.1ZM14.27 24.12h.02c.05-.02.12-.09.05-.11-.07-.02-.07.09-.07.11ZM13.94 24.1c-.02.05.02.1.07.05l.04-.05a.1.1 0 0 0-.02.07h.02l.09-.12c-.02.03-.02.1.04.1.07 0 .07-.05.07-.1l.04-.1h-.08c-.03-.08-.12.04-.12.06a.44.44 0 0 0 .05-.11h-.07c-.06-.03-.13.06-.13.1v.1ZM14.18 23.6h.1a.05.05 0 0 0 .01-.05.07.07 0 0 0-.09-.02l-.02.07ZM14.05 23.26a.04.04 0 0 1 .05 0 .05.05 0 0 1 .02.04.05.05 0 0 1 0 .04v.02l-.03.01c-.02 0-.04-.07-.04-.07v-.04ZM14.23 22.64l.06.14.1.1c.04.04.1.06.1.13l.02.05.05.02.13.04c.06.03.1.07.14.12l.09.18c.04.04.08.18.17.16a.13.13 0 0 0 .1-.1c.02-.05.06-.1.1-.13.1-.1.23-.11.34-.2.1-.1.09-.1.15-.12l.05-.02a.13.13 0 0 0 .04-.05l.05-.16.04-.07a.35.35 0 0 0 .04-.2c-.02-.07-.15.02-.17.05l-.05.06h-.04l-.07-.06a.28.28 0 0 0-.2-.03l-.15.1-.23.04a.39.39 0 0 1-.22 0l-.15-.1a.24.24 0 0 0-.25 0c-.11.12-.18-.1-.22-.13-.05-.02-.05.14-.02.18Zm1.46.07c-.09.07-.13.05-.17.1l-.14.08c-.06.07-.13.05-.15.16-.03.12 0 .12-.05.14-.04.02-.06.02-.09 0-.02-.02.03-.16-.04-.18-.07-.02.09.34-.11.16a.37.37 0 0 1-.05-.14.25.25 0 0 0-.06-.11c-.07-.07-.14-.07-.23-.1-.08-.02-.28-.1-.13-.2.16-.09.33.11.47.11.17 0 .33-.04.49-.1a.24.24 0 0 1 .2.01c.06 0 .04.03.04.07h.02ZM14.18 22.21c.07.05.05-.09.02-.14-.02-.04.03-.06-.02-.06-.04 0-.06.16 0 .2ZM14.16 21.9c.04.08.07-.19.09-.28.02-.1.07-.14 0-.16-.07-.02-.16.34-.09.43ZM13.54 22.85l.04.04.16.07c.02.05.09.07.11 0 .02-.07-.18-.09-.2-.09-.02 0-.09 0-.07-.04.03-.05.07-.07.11-.1.02 0 .03-.02.04-.03a.1.1 0 0 0 0-.06.07.07 0 0 0-.02-.03.07.07 0 0 0-.04-.01l-.06.04v.07a.11.11 0 0 0-.06.06.12.12 0 0 0-.01.08ZM14.18 23.05v.03l.01.01a.04.04 0 0 0 .04.02l.02-.01a.04.04 0 0 0 .01-.04.05.05 0 0 0-.01-.03h-.07a.02.02 0 0 0 0 .02ZM13.58 23.21h.02c.07 0 0 .05.05.07h.07l.06.05c.05.02.1-.03.11-.03l.11-.06c.03-.03-.08-.05-.1-.05h-.07c-.03.02-.05 0-.1-.02-.04-.03-.13-.12-.2-.07-.06.04.05.09.05.11ZM13.74 23.55h.02c.02.05.09 0 .13 0h-.02l.01.02.02.01h.04l.04-.05h.07c.04-.07-.11-.04-.13-.04h-.11c-.05-.03-.1-.05-.16-.03l.09.1ZM13.4 22.64c.03-.16.1-.32.2-.45.07-.1.23-.34.2-.37-.02-.02-.1.07-.1.12l-.12.18-.1.18a.5.5 0 0 1 0-.09.78.78 0 0 1 .08-.18l.09-.27c-.07.02-.09.11-.13.18-.06.1-.1.22-.12.34l-.04.2v.07a.12.12 0 0 0 .04.1ZM12.63 21.12l.04.11a.3.3 0 0 1 .05.14c0 .24.07.47.22.66l.06.09c.05.05.1.25.14.25.04 0-.02-.25.02-.3.02.03.04.06.04.1 0 .02.07.16.1.16.02 0-.03-.05-.03-.07v-.1c0-.03 0-.06-.02-.09l-.07-.09v-.06c-.02-.03-.06-.07-.1-.03-.05.05-.03.07-.05.07a.13.13 0 0 1-.1-.09 3.62 3.62 0 0 1-.1-.52 2.44 2.44 0 0 1 .1-.82l.1-.2.09-.17a.02.02 0 0 0 0-.02l-.07.05-.05.09-.06.07-.13.2a.74.74 0 0 0-.18.57Z" fill="#231F20"/><path d="M13.27 21.85h.11l.07-.05a.15.15 0 0 0 .09-.13h-.02l-.11.04h-.05v-.04h-.02a.27.27 0 0 0-.11.1v.05l.04.03ZM12.67 22.19l.11.16a.5.5 0 0 0 .11.16l.16.09c.07.02.13.02.18.09.02.04.05.08.09.11h.02a.57.57 0 0 0-.27-.36l-.11-.11-.09-.1c-.02-.04-.04-.11-.09-.09-.04.03-.09-.11-.13-.07-.04.05 0 .07.02.12ZM13.18 23.17c0 .04.02.09.1.09h.2c.05 0 .11-.02.17-.05-.11-.04-.07-.07-.11-.07l-.1.05h-.08c-.02 0-.02.05-.04.05-.03 0 0-.03 0-.05 0-.01 0-.03-.02-.04a.07.07 0 0 0-.03-.03l-.07.05h-.02ZM13.43 23.37h.04a.24.24 0 0 1 .2-.07c.02 0-.06.07-.09.1l-.1.04c-.03-.02-.05-.07-.05-.07Z" fill="#231F20"/><path d="M13.58 23.4c.03-.05.11-.05.14-.03.02.02.02.05.02.05s-.07.07-.11.04c-.05-.02-.07-.04-.05-.07ZM13.3 24.3h.06c.02 0 .07 0 .07.03 0 .02.02.07.06.04.05-.02.05-.07.05-.09a.58.58 0 0 0 .07-.2.11.11 0 0 1-.1.04h-.17c-.05 0-.07 0-.11.05-.05.04.04.11.06.13ZM13.58 24.44c.08-.08.16-.15.25-.2l-.11.2c-.03.05-.03.1-.05.12a.07.07 0 0 1-.09 0c0-.05.02-.1 0-.12ZM16.43 24.55c.02.05.02.1.02.14 0 .05.02.05.07.05l.04-.05a.32.32 0 0 0-.07-.18l-.06-.1-.05-.08c-.02.07.02.18.05.23ZM16.52 24.46c0 .04.02.08.04.12.02.02.07.04.07 0 0-.05 0-.07-.03-.1l-.08-.02ZM16.65 24.4c.02.01.04.03.05.06l.02.07h-.05v-.04c-.04-.03-.04-.1-.02-.1ZM16.74 24.42c0 .04 0 .18.06.16a.07.07 0 0 0 .05-.07v-.02l-.07-.1-.04.03ZM12.8 23.37c.03.05.07.02.1 0l.15-.13c.02-.05.02-.1.04-.12 0 0 .05-.04.03-.04l-.2.06c-.05.03-.12.07-.12.12 0 .07-.02.09 0 .11ZM12.98 21.37c.01.04.04.08.07.1.03.02.07.04.11.04h.13l.11-.12c0-.02-.1.03-.22-.09a.3.3 0 0 1-.09-.18c0-.2.02-.41.07-.61.02-.03.02-.1.07-.12.04-.02.09.02.1.05h.14v.07c.02.06.06.11.11.15l-.06-.15v-.07l.05.01a.1.1 0 0 1 .03.06l.1.15.06.05a.3.3 0 0 0 .22.05h-.22c.24.04.27.09.27.1v.05a.1.1 0 0 0-.03.07l.05.05c.02 0 .04-.05.07 0 .02.04.06.18.1.16.05-.03-.04-.12-.02-.16.03-.05.05-.07.05-.1 0-.02 0-.06-.02-.08a.51.51 0 0 1 0-.2.2.2 0 0 0-.07-.21.63.63 0 0 0-.24-.2.37.37 0 0 0-.3.01c-.02.03-.1.1-.13.07l-.09-.04-.08-.07c-.03-.02.02-.05.02-.07v-.07c0-.04 0-.09.02-.13 0-.05.02-.1.04-.14l.07-.1c.05-.06.02-.13.05-.17.03-.1.08-.18.13-.25l.09-.12.06-.07a.38.38 0 0 0-.17.12l-.11.23-.1.13-.1.1-.12.13a.23.23 0 0 0-.06.11c0 .05.04.07.06.1.03.02.1.04.07.06l-.04.07-.05.1a.14.14 0 0 0 0 .08c.01.05 0 .1-.02.14l-.18.43a.77.77 0 0 0 0 .48Zm.8-1.07c.1.01.18.05.25.11.04.05.13.14.09.23a.23.23 0 0 1-.16.12.3.3 0 0 1-.27-.12c-.06-.09-.02-.34.1-.34Z" fill="#231F20"/><path d="M13.23 20.62c0 .07.06.11.1.16l.2.11.12.1.04.06c.05.02.11-.04.16-.04.02 0 .02-.03 0-.05h-.16l-.13-.07a.59.59 0 0 1-.18-.2c-.02-.05-.06-.14-.1-.14-.05 0-.05.05-.05.07ZM13.2 21.05l.05.11c.02.05 0 .12.04.14h.14c.02 0 .09 0 .1-.04.03-.05-.01-.05-.04-.05h-.06c-.02 0-.1 0-.07-.05a.14.14 0 0 0-.02-.13l-.07-.05c-.02-.04-.04-.13-.06-.13a.44.44 0 0 0 0 .2ZM13.43 21.05l.09.05c.04 0 .06-.07.02-.1a.13.13 0 0 0-.11 0v.05ZM13.4 20.03l.04.05.05.02h.23c0-.05-.07-.07-.1-.1-.02-.02-.04-.02-.04-.06h.02v.04l.1.05c.02.02.04.09.08.11.05.02 0-.14-.02-.16-.02-.02-.02-.11.02-.11.05 0 .1.02.1 0-.01-.04 0-.08.01-.12l.1-.16a.1.1 0 0 0-.1.05s-.02 0 0-.02l.2-.23-.15.1-.14.1-.1.14a.57.57 0 0 0-.1.14s-.2.07-.2.16ZM14.78 20.1c.07.02.11-.05.16-.1.04-.04.15-.06.07-.18l-.14.1a.25.25 0 0 0-.11.13l.02.05ZM14.32 20.03c.06.04.13-.1.15-.14l.11-.09a.14.14 0 0 0 .05-.11c0-.03-.16.09-.2.13l-.07.1c0-.05 0-.1.02-.14a.88.88 0 0 1 .22-.2l.25-.12.09-.05.06-.07h-.2l-.15.07-.18.18c-.04.05-.07.07-.11.16-.04.1-.09.25-.04.28ZM14.34 20.41c0 .03 0 .1.04.12.05.02.05-.02.05-.05v-.04c0-.03-.03-.05-.03-.1l.05-.06a.25.25 0 0 0 .07-.12c0-.04-.05-.04-.07-.04a.9.9 0 0 0-.11.3ZM14.25 19.2c.08 0 .15-.01.22-.04l.11-.07h.14l.1-.04h-.4l-.13.04-.1.1-.14.06c.07.01.14 0 .2-.04ZM13.98 18.84l.07-.04.09-.05c.06 0 .09-.07.15-.07.07 0 .1-.09.07-.09h-.16l-.15.07a.81.81 0 0 0-.29.3l.22-.12ZM13.5 19.6c.02.02.06 0 .08-.03l.14-.11a.5.5 0 0 0 .1-.16c.03-.07.2-.32.05-.23l-.1.14-.12.16c-.04.07-.2.16-.16.22ZM13.3 19.41a.72.72 0 0 0 .22-.2l.09-.12.04-.09-.13.1-.1.1c-.04.05-.13.1-.15.19l.02.02ZM13.87 20.6a.09.09 0 0 0 .12-.03.1.1 0 0 0 .02-.04.1.1 0 0 0-.03-.1.09.09 0 0 0-.09-.02c-.15.07-.04.19-.02.19ZM15.8 20.69c.03 0 .03-.05.03-.07l.09-.05a.14.14 0 0 0 .02-.13l-.07-.16a.27.27 0 0 0-.09-.12.05.05 0 0 1-.02.05c-.04.04 0 .11.02.16.02.04.05.07.02.09l-.04.05c-.04.06-.04.22.04.18ZM13.98 24.44H14c.07-.02.18-.02.23-.09.04-.07-.07-.07-.1-.1-.01-.01.05-.08.03-.08a.72.72 0 0 0-.18.16.16.16 0 0 0 0 .11ZM13.83 24.35c.02-.05.04-.14.09-.11.02.1 0 .21-.03.32-.02.06-.09.09-.1.02a.35.35 0 0 1 .04-.23ZM13.94 24.58h.02c.04-.02.13-.05.13-.1 0-.04-.08-.04-.1-.02-.03.03-.07.07-.05.12ZM12.6 17.43c-.1 0-.08-.13-.17-.16-.18.21-.3.46-.34.73-.04.3.12.46.14.68a1.78 1.78 0 0 1-.34-.52c-.1-.32.23-1.14.5-1.16.26-.02.26.3.21.43ZM17.98 17.87c.11.02.11-.12.2-.12.1.26.16.52.18.8 0 .3-.22.4-.29.64.17-.12.32-.27.45-.44.17-.3.04-1.16-.23-1.25-.26-.09-.3.2-.3.37ZM16.07 17.93c0 .07-.07.07-.13.07-.07 0 .13.05.18.1.04.04-.76.08-.85-.08-.09-.15.16 0 .22-.02.07-.02-.49-.16-.7-.23.44-.27.9.05 1.28.16Z" fill="#231F20"/><path d="M12.9 17.96c.22.16.06.7-.16.72-.22.03-.47-.84-.22-1.09.17.16-.07.78.2.8.26.02.24-.3.17-.43ZM13.14 18.55c-.07-.14.09-.2.11-.3.02-.09-.11-.38-.13-.57.49.03.42.75.02.87Z" fill="#231F20"/><path d="M14.98 17.87c-.13.13-.49.11-.66.25.22.04.44 0 .6.09-.46.05-.92.14-1.36.27a.92.92 0 0 1 .13-.25c-.04-.05-.15.02-.2-.02a6.75 6.75 0 0 1 1.5-.34ZM17.34 18.1c-.02.18-.34.15-.42.33-.1.19-.14.14-.34.03-.2-.12-.42-.14-.58-.28.47 0 .98.07 1.34-.09ZM17.92 18.02c.04.12-.1.14-.1.26 0 .1.14-.05.2-.03.07.03-.22.69 0 .89h.14c.04.11-.02.23-.07.32-.04.09-.53-.14-.7-.32-.19-.18.15-.2.17-.36.02-.16-.22.18-.36.13-.13-.04.07-.09.07-.18l-.09-.05a4.72 4.72 0 0 1 .62-.63l.03-.03a.09.09 0 0 1 .09 0ZM12.1 19.8a.63.63 0 0 1 .02-.48c.06-.11.22-.13.24-.2.02-.07-.09-.32.04-.32.14 0 .16.16.16.23 0 .06-.44.45-.47.77ZM13.14 19.1c0 .36-.38.47-.58.7-.2.23-.07.2-.18.32a.63.63 0 0 1 .18-.64c.11-.09.24-.11.33-.18.1-.07.14-.3.25-.2ZM11.9 19.32c-.13.23-.33.42-.56.53.16-.2.35-.38.55-.53Z" fill="#231F20"/><path d="M13.25 19.41c-.04.12-.27.25-.4.41-.13.16-.11.23-.24.14-.14-.1.33-.57.64-.55ZM11.5 20.1a.54.54 0 0 1-.38.27c.1-.12.23-.2.37-.27ZM18.16 20.2c0 .6.36.87.51 1.28-.07.05-.09-.02-.15-.02-.07 0 .17.27.17.43-.1.2-.23.38-.4.53l-.15.04c.02-.4.3-.66.24-1.11-.06-.46-.3-.6-.33-.94-.02-.34 0-.27.11-.2ZM11.74 20.2c.18.37-.16.65-.33.85a.77.77 0 0 1 .28-.75.1.1 0 0 1 0-.1h.05ZM12.27 20.23c.07.16-.06.39-.06.55 0 .16.13.66.13.93s-.2.96.18.93c0 .16.09.25.26.23.18-.02-.04.1-.06.16-.03.07.08-.02.13 0 .04.02.16.3.18.46.02.16-.5-.28-.71-.05.15-.48-.45-.55-.47-.86-.02-.32.09-.2.04-.3-.04-.1-.06-.07-.08-.11a1.63 1.63 0 0 1-.03-.37 4.54 4.54 0 0 1-.04-.54c.02-.12.09-.23.13-.37.05-.13.11-.57.4-.66ZM11.34 20.35c-.03.15-.08.3-.16.43-.04.08-.08.16-.1.25 0-.26.09-.5.26-.68ZM10.9 22.5c0-.14.06-.28.15-.4-.07-.34 0-.8.2-.96.2-.16.16.23.18.3a1.1 1.1 0 0 1-.54 1.07Z" fill="#231F20"/><path d="M11.63 21.55c0 .12.01.25.04.37.02 0 .07 0 .1.02.01.02-.2.77-.03 1.07a.09.09 0 0 1 .11 0 1.8 1.8 0 0 0-.07.66c.2-.37.11.27.14.52a.44.44 0 0 0 .2.34c.04 0 .04-.09.09-.04.05.14.07.3.04.45a6.47 6.47 0 0 1-.51-.43c-.22-.18-.42-.18-.6-.27-.18-.1-.38-.96-.07-1.2.02.17-.02.35.02.56.05.2.05-.1.1-.1.04 0 .1.53.33.6 0-.16.01-.32.04-.48-.18-.11-.15-.54-.15-.84a7 7 0 0 1 .15-1.25l.07.02ZM19.07 22.1c0 .11.13.2.16.27.02.07-.27-.23-.3-.36H19c-.02-.12-.13-.2-.13-.3 0-.09.22.34.33.5.12.16-.1-.07-.13-.11ZM18.32 19.85c-.03-.12-.14-.21-.14-.3 0-.1.22.34.34.5.1.16-.12-.05-.14-.1-.02-.04.14.21.16.28h-.02c.15.13.28.28.37.46-.04.02-.06 0-.13 0s-.02.18.04.32c.07.13-.04.02-.06.04-.02.02.29.3.3.48.03.18-.4-.32-.41-.52v-.07a1.37 1.37 0 0 1-.1-.41c.1 0 .12.04.19.04a5.1 5.1 0 0 0-.36-.4.64.64 0 0 1-.16-.35l.12.03ZM18.92 22.23h.02c.09.16.2.32.26.48a.47.47 0 0 1-.22-.19.49.49 0 0 1-.06-.29ZM18.54 22.8a.59.59 0 0 1-.38.32c-.16 0-.29-.2-.38-.27-.09-.07.51-.18.76-.05Z" fill="#231F20"/><path d="M18.87 22.46h.07c.04.16.18.2.22.32.04.11-.29-.14-.29-.32ZM19.07 23.12c0 .12.13.2.16.27.02.07-.27-.22-.3-.36H19c-.02-.11-.13-.2-.13-.3 0-.09.22.35.33.5.12.16-.1-.06-.13-.1ZM18.92 23.26h.02c.09.16.2.32.26.48a.47.47 0 0 1-.22-.2.49.49 0 0 1-.06-.28Z" fill="#231F20"/><path d="M18.87 23.46h.07c.04.16.18.2.22.32.04.12-.27-.14-.29-.32ZM17.65 23.12c-.1 0-.2-.03-.29-.07.09-.06.2.05.29.07ZM12.1 23.78c0 .43.4.5.48.12.1 0 .07.09.07.13 0 .05-.04.68.18.89-.4-.18-.8-.55-.78-1.14h.04ZM20.07 24.58c-.13.04-.2-.12-.33-.14-.14-.02-.2.25-.4.32-.03-.3-.05-.6-.05-.89.14.12.25.34.4.46.16.11.3.09.38.25ZM18.83 23.92c-.27.2-.71.61-1.05.45.05-.04.27-.07.38-.13.11-.07.51-.28.67-.32ZM14.92 24.96c-.05.07 0 .16 0 .23s-.1-.25 0-.23ZM12.9 27.06c-.43-.23-.72-.73-1.05-1.14-.33-.4-.38-.39-.53-.57-.16-.18-.2-.27-.18-.36h.02c.16.25.45.36.65.57.15.16.28.35.4.54.26.32.64.48.68.96ZM15.3 25.01h.02c.03.14.02.28-.05.41-.07-.07.05-.32.02-.41ZM19.58 25.08c.3.77 1.18 1.05 1.36 1.86a3.83 3.83 0 0 1-1.18-.88c-.2-.23-.24-.57-.22-.94l.04-.04ZM15.23 25.1c-.03.07-.03.14-.07.14-.04 0 0-.2.07-.14ZM16.27 25.1c.03.15.1.28.22.37-.13.04-.3-.28-.22-.37ZM14.43 27.42c.09.37.29.7.3 1.07-.17-.23-.35-.68-.57-.89a.24.24 0 0 0-.33-.05c-.03-.29-.05-.77-.3-.97-.13-.09-.25-.2-.35-.32a6.51 6.51 0 0 0-.53-.8c-.09-.09-.31-.27-.31-.34h.02c.58.1.62.69 1.02 1 .4.32.56.21.65.48.09.28.02.84.4.82ZM15.54 25.17c-.02.09-.05.2-.14.23-.08.02.05-.25.14-.23ZM15.67 25.15c0 .06 0 .11-.07.11-.06 0 .03-.11.07-.11ZM16.07 25.15c.07.2.22.38.3.59.06.2-.37-.39-.3-.6ZM14.54 25.56c.02 0-.02-.07.02-.07s.16.48 0 .57c-.16.09 0-.19-.04-.28-.05-.09-.4-.34-.52-.59.23.02.32.3.54.37ZM18.43 25.2c-.03.45-.34.72-.54 1.04-.2.32-.02-.05-.06-.07-.13.08-.25.17-.36.27-.11.07-.33.16-.38.25 0 .11.04.22.11.3.12.05.38-.2.45-.3.07-.09.04-.18.13-.22.1-.05.02.06.07.06.04 0 .11-.2.18-.31.06-.12.04.09.06.13.25-.16.44-.4.54-.68.02-.02.09-.02.1 0-.28 1.11-1.44 1.46-2.28 2-.02-.04.02-.07.02-.13 0-.07-.69.04-.82-.2.47-.12 1.4.1 1.38-.65l-.74.16c-.1.03-.35.1-.15-.04.2-.14.69-.62 1.04-.89.07.1-.06.25-.02.39.53-.2.89-.66 1.27-1.12ZM27.16 26.7c-.42.27-.69-.21-1-.4a6.66 6.66 0 0 0-3.36-.74l1.2.27c.29.05.57.12.85.2.06.03.29.14.26.19-.02.04-.37-.07-.4-.07l-1.3-.37c.42.25 1.13.28 1.48.64-.82-.2-1.66-.45-2.46-.73-.3-.11-1.38-.4-1.6-.61-.23-.2 0-.02.02-.02s1.22.15 1.44.15c1.85 0 3.71.37 4.87 1.48ZM13.18 28.76c-.24-.7-.9-1.09-1.26-1.7-.1-.25-.17-.5-.23-.75a2.58 2.58 0 0 0-.24-.46c-.07-.11-.27-.3-.24-.38.02-.1.42.43.62.7.2.27.3.36.44.57.4.64 1 1.1.91 2.02ZM13.96 25.9c.29.04.51.48.47.86-.27-.16-.25-.52-.43-.77-.17-.25-.02.04-.02.07 0 .02-.42-.32-.58-.53-.15-.2.16.03.23.12.1.1.2.2.33.3.02.04-.02-.03 0-.05ZM15.4 26.2c-.08.08-.08.27-.13.38-.04.11-.18-.91 0-.93.18-.03.11.2.22.22.11.03 0-.4.07-.43.07-.02.13.48.07.64-.07.16-.16.27-.23.11ZM9.67 27.01a.77.77 0 0 0 .02-.48c-.02-.31.67-1.3.8-1.52.14.14-.48 1.16-.53 1.39-.04.23-.09.54-.29.61ZM22.45 27.29c-.31-.16-.65-.23-.9-.48-.24-.25-.15-.3-.26-.41-.1-.12-.33-.25-.4-.43.27-.12.47.2.7.27.21.07.24.02.35.14.1.13.2.29.26.45.11.16.27.3.25.46ZM24.8 27.95a.28.28 0 0 0 .03.34c.03.03.07.05.1.06-.17.28.03.73.05 1a5.3 5.3 0 0 1-1.02-1.46c-.2-.5-.22-1.13-.6-1.4h.02c.67-.07.67.73 1.05 1.11.37.4.26.2.37.35ZM15.87 30.54c.16-.46 1.29-1.34 1.6-1.66a7.7 7.7 0 0 0 1.69-2.25c.18-.07 0 .36-.04.47-.5 1.25-2.36 2.64-3.25 3.44ZM9.6 26.67c-.06.11-.02.32-.04.46-.02.13-.2.16-.29.25a5.64 5.64 0 0 0-.9 1.32c-.05-.03 0-.48 0-.48s.52-.8.72-1.05c.2-.25.34-.36.47-.52l.05.02ZM23.43 27.6c.3.32.28 1 .4 1.53h-.1c.1.36.3.95.36 1.34h-1.46c-.07 0 .42-.61.42-.68 0-.2-.09-.4-.22-.55-.05-.04-.12-.09-.14-.13-.02-.05.07-.16.1-.28l-.03-.4c0-.26.11-.5.04-.71-.06-.2-.06 0-.06-.05.08-.27.13-.55.13-.84 0-.02.02-.02.04-.02.03 0 .3.27.34.34.04.07.35.4.18.45ZM27.34 26.72c.35.01.7.07 1.04.16.07.02.29.09.29.11 0 .02-.16.2-.18.27-.02.07.16.75-.09.73-.24-.02-.13-.2-.2-.34-.06-.14-.22-.18-.2-.41.02-.23.07-.18-.06-.25-.14-.07-.54-.14-.6-.27ZM12.47 29.08c-.2-.09-.29-.36-.4-.52-.42-.61-.82-1.5-1.75-1.6-.1 0-.45.05-.43-.06a2.3 2.3 0 0 1 2 1.02 3 3 0 0 1 .58 1.16Z" fill="#231F20"/><path d="M22.31 28.1c-.02.37.23.6.38.78-.42.2-.58-.18-.75-.46-.11-.14-.2-.3-.27-.47-.16-.37-.38-.71-.64-1 .37.04.53.5.9.6 0 .3.1.53.38.55ZM30.56 27.42c-.27.07-.76.57-.67.8.18.4.4.78.65 1.14-1.05-.03-1.47-1.32-1.43-2.55.36-.05 1.16.34 1.45.61ZM28.05 29.26c-.03.05-.03.05-.03.12-.7.18-1.1 1.27-2.06 1.11.09-.09.22-.04.33-.13.11-.1.76-.91 1.25-.98-.63-.02-1.25 1.05-1.87 1.11-.11.03-.29.03-.36-.06-.06-.1.43-.1.56-.2.13-.12.87-.92 1.42-.97l.54-.04c.02.04 0 .07-.03.09h.14a3.12 3.12 0 0 1-1.23-1.5 2 2 0 0 0-.15-.39c-.11-.16-.4-.13-.42-.32h.02c.15.02.3.02.44 0 .27.05.6.41.7.66.08.25.06.53.17.73.11.2.47.48.58.77ZM20.1 27.2c0 .06-.05.09-.07.13-.03.05.29-.16.26.02-.28.12-.52.32-.66.6h-.03a.93.93 0 0 1 .5-.78v.02ZM17.7 27.4c-.18.28-.43.49-.74.6-.33.13-.76.13-1.04.29-.3.16-.12.13-.2.09.37-.6 1.46-.55 1.97-.98ZM17.25 28.15c-.17.32-.43.57-.76.7-.33.14-.8.23-1.09.41-.28.19-.1.14-.2.1.4-.62 1.54-.75 2.05-1.21ZM15.63 28.29c-.07-.12-.03-.32-.05-.53-.02-.2-.15-.36.02-.36.18 0 .32.73.03.89ZM31.7 28.04c-.2.04-.45.13-.5.34-.04.2.05.3.02.5-.02.2-.28.43-.48.48-.2.04.08-.25.13-.44.04-.18-.16-.88.09-1.16.24-.27.6.2.73.28ZM27.76 27.79a.64.64 0 0 0 .3.38c.05 0 .03-.04.08-.04.22.54.8.73 1.2 1.09a1.55 1.55 0 0 1-1.18-.48c-.22-.2-.53-.66-.47-.95h.07Z" fill="#231F20"/><path d="M26.25 29.1a.86.86 0 0 0-.34-.59c-.04-.02-.04.07-.1.03-.16-.78-.87-1.16-1.3-1.76.6.07 1.07.48 1.4.94.34.45.54 1 .36 1.39h-.02ZM10.47 27.8c0 .21-.2.28-.3.37-.12.1-.1.2-.23.25 0-.32.31-.52.53-.61ZM14.07 29.17c.04-.13.07-.27.09-.4-.04.02-.16.15-.24.06-.1-.09.04-.7-.03-1 .45.1.76 1.2.18 1.34ZM10.94 28.24c-.07.27-.65.2-.58.57h-.02c-.09 0-.09-.07-.07-.14.02-.07.5-.3.62-.47l.05.04ZM18.96 29.38c.04-.25.27-.41.27-.73s0-.32.15-.3c.16.03.1.07.1.12.12.36-.28.84-.52.9ZM32.36 28.42c-.2.31-.33.65-.4 1a.45.45 0 0 1-.25 0c.03-.5.2-1.02.65-1ZM20.52 28.63c-.18.04-.3.2-.47.23-.18.02.04-.1 0-.16-.05-.07-.25.13-.38.06-.13-.06.62-.43.84-.13ZM21.03 28.7l-.23.45c-.06.16-.04-.16-.06-.2-.03-.05-.18-.03-.2-.12-.02-.09.33-.13.49-.13ZM33.02 28.81c-.11.16-.2.35-.24.55-.2 0-.42.02-.62.06a.65.65 0 0 1 .27-.55.61.61 0 0 1 .6-.06ZM13.18 28.92c-.04.19-.06.39-.1.55.08 0 .17-.03.26-.07.02.23.44.37.4 0 .13.14.18.37.4.43.22.07-.02-.11 0-.18.34.24.66.52.95.82h-2.26c.02-.39-.45-.9-.5-1.16.13.05.24.13.34.23.12-.23.27-.45.45-.64l.06.02ZM33.25 29.31h-.14v-.05c.07-.27.43-.43.71-.43.15 0 .29.04.4.12l.07.04-.07.05a1 1 0 0 1-.4.09l-.3.04-.12.07a.33.33 0 0 1-.15.07ZM8.45 28.95c0 .21.07.42.2.6.13.17.3.3.51.35-.22 0-.47.1-.69.02-.22-.06-.6-.59-.26-.9.04.24.04.6.3.65-.08-.13-.24-.56-.06-.72ZM21.92 29.54h-.03c.05-.12-.24-.41-.06-.48.17-.07.37.46.09.48ZM12.58 31.95c-.13-.36-.35-.82-.24-1.23.22.32.47.89.24 1.23ZM34.25 29.5h-.05a.12.12 0 0 1-.02-.1h-.38v-.04a.18.18 0 0 1 .08-.11.18.18 0 0 1 .12-.03c.14 0 .38.09.4.23.02.13 0 .11-.13.13h-.02v-.09ZM19.45 29.29c.13.18-.11.34 0 .5.11.16.58.34.44.59-.13.25-.97.1-1.17.1h-.92c.27-.26 1.2-.58 1.43-.87.22-.3.09-.28.22-.32ZM29.34 29.31c0 .34-.56.32-.9.46-.25.13-.48.32-.66.56 0 0-.09.19-.13.16-.05-.02-.02-.3 0-.34.18-.5 1.09-.77 1.69-.84ZM30 29.38c-.06.09-.2.14-.24.25-.05.11-.7 1-1.3.84.39-.4.96-.98 1.54-1.1ZM31.05 29.42c-.18.4-.83.4-.67 1.05h-.98c.11-.18.51-.11.58-.34.07-.23-.02-.16 0-.23s.67-.48 1.07-.48ZM20.67 29.45c0 .2.16.54.04.7-.1.16-.4.1-.5-.02-.12-.11.35-.41.46-.68Z" fill="#231F20"/><path d="M33.71 29.86h-.42l.07-.07c.11-.1.25-.14.4-.14.1 0 .2-.03.29-.07l.09-.04.1-.07h.2c.09 0 .16-.02.23-.07h.18l-.07.1a1.44 1.44 0 0 1-1.07.36ZM35.02 29.5h-.17v-.08a.18.18 0 0 1 .15-.11c.28-.05.56-.08.85-.1.17 0 .35.02.53.05.07.02.14.05.2.1-.42.04-1.18.13-1.56.13ZM32.74 29.63c-.27.16-.34.57-.76.57.04-.12.36-.23.07-.3.1-.2.46-.27.69-.27ZM31.6 29.63c0 .11-.1.14-.13.25-.02.11.22.45-.07.57-.2.05-.4.05-.6 0 .1-.1.36-.02.4-.16.05-.14-.09-.25-.04-.37a.5.5 0 0 1 .18-.21.48.48 0 0 1 .26-.08ZM21.98 30.18h-.22c-.11-.14.11-.32.07-.5a.48.48 0 0 1 .15.5ZM21.4 30.18a.94.94 0 0 1-.33.06c-.02-.13.16-.2.2-.3.05-.08-.04-.17.05-.17.08 0 .04.34.08.4ZM12 29.77c0 .36.4.43.4.72 0 .3-.04-.13-.13-.16-.09-.02.05.1.02.16a.86.86 0 0 1-.3-.72H12ZM37.07 29.92l-.18-.04-.33-.07h-.34l-.15-.04-.07-.05.05-.05c.1-.12.22-.2.37-.25l.1.05h.1c.11-.01.22.01.31.07.1.07.16.16.18.27v.07l-.04.04ZM33.02 30.54l-.22-.05v-.09h.02c.23 0 .45-.09.63-.23.16-.13.36-.2.57-.22h.16v.07c-.09.22-.36.31-.64.4h-.05c-.15.07-.3.1-.47.12ZM34.2 30.54a.57.57 0 0 1-.26-.07v-.09h.04c.29-.01.57-.12.8-.3.22-.17.48-.27.76-.3h.17v.08c-.1.3-.46.4-.82.52h-.07c-.2.09-.4.14-.62.16ZM35.56 30.54h-.31l.15-.1.22-.08c.2-.05.32-.1.32-.25h.1c.03.11.23.2.43.2a.3.3 0 0 0 .27-.09.19.19 0 0 0 0-.16l-.05-.11.11.04c.13.05.4.14.36.41v.05h-.05c-.4.02-1.09.09-1.55.09ZM42.4 30.45c.05-.1.13-.17.22-.2l.16-.1h-.02c-.1 0-.11-.04-.11-.07v-.04h.02a.52.52 0 0 1 .29-.07.41.41 0 0 1 .35.14.23.23 0 0 1 0 .22c-.2.3-.98.25-.98.25l.07-.13ZM38.67 30.52h-.34l.05-.07.07-.14a.6.6 0 0 1 .17-.25l.23-.04.33.04h.27l-.05.07a.4.4 0 0 1-.24.16l-.14.07v.04c0 .02 0 .04-.02.05h-.02l-.31.07ZM41.96 30.58c-.14.02-.29.02-.43 0h-.15l.09-.1a.5.5 0 0 1 .13-.17l.11-.11a.1.1 0 0 1-.03-.07.1.1 0 0 1 .03-.07h.02l.43-.04.22.04h.07l-.07.05-.13.09c-.07.04-.18.11-.18.16l.09.07.09.04-.1.05a.33.33 0 0 1-.2.06ZM37.42 30.5h-.15l.09-.12a.5.5 0 0 1 .13-.16c.17-.14.35-.25.56-.32l.22.05h.06l-.06.04-.14.1c-.06.04-.15.18-.08.2v.18c-.2.04-.42.05-.63.02ZM40.8 30.52h-.29a.33.33 0 0 1 .1-.32l.04-.07h.66V30.28a.11.11 0 0 1 .07.08.18.18 0 0 1-.11.11l-.05.05v.04h-.42v-.04ZM39.87 30.52a.3.3 0 0 1-.22-.07h-.03a.2.2 0 0 1 .1-.14h-.07c.04-.13.17-.13.28-.13h.36l.16.04.04.05-.07.04-.13.07c-.16.07-.24.11-.24.23v.04h-.23l.05-.13ZM9.76 32.59a.24.24 0 0 1-.15-.1h-.03c0-.06 0-.15.03-.22.02-.07.17-.66.2-.84l.04-.12a.33.33 0 0 0 .02-.11.35.35 0 0 0-.13-.23.5.5 0 0 1-.13-.23l.01-.05a.09.09 0 0 1 .05-.04.35.35 0 0 1 .02-.25.13.13 0 0 1 .1-.04h.06v.07c-.04.13.04.25.16.36a.64.64 0 0 1 .2.5.83.83 0 0 1-.07.2c-.09.18-.16.36-.22.55v.16c0 .07-.03.39-.16.39ZM12.76 32.4c-.33-.04-.47-.47-.44-.84v-.13l.08.11c.21.23.36.51.43.82v.07l-.07-.03ZM10.45 33.59a.26.26 0 0 1-.14-.07.28.28 0 0 1-.08-.14v-.04h.1a.49.49 0 0 0 .03-.25c0-.14-.02-.3.11-.34h.07v-.03c.03.28.02.55-.05.82v.05h-.04ZM12.56 33.77c.06-.16.07-.33.05-.5-.03-.2-.01-.39.06-.57l.07-.1.04.12c.06.24.08.49.07.73 0 .23-.09.37-.22.41h-.11l.04-.09ZM11.92 34.04c-.2 0-.23-.54-.23-.54s.03-.28.1-.28c.1 0 .1.14.1.23l.03.12H12a.4.4 0 0 1-.07.45h-.05l.03.02ZM9.98 34.32a.22.22 0 0 1-.17-.1c-.12-.15-.52-.77-.36-1.02h.11v.05c.07.32.25.66.47.66l.15-.05.07-.04v.04a.6.6 0 0 1-.13.39.22.22 0 0 1-.14.07ZM12.4 34.43h-.1a2.31 2.31 0 0 1-.14-.52c-.02-.2-.02-.34.05-.41l.1-.05h.1v.05c0 .2.02.4.06.61l.05.27a.11.11 0 0 1-.11.05ZM10.3 34.5l-.1-.14.16.05h.05c.04 0 .04-.03.08-.1.05-.06.05-.13.14-.15h.04v.04l.07.2a.6.6 0 0 1 .04.46v.07s-.2 0-.49-.43ZM10.94 34.77a.65.65 0 0 1-.07-.4v-.12c0-.3.03-.6.11-.89a.11.11 0 0 1 .1-.05h.15v.1c-.07.31-.1.63-.1.95v.1a.33.33 0 0 1-.01.24.23.23 0 0 1-.16.1h-.04l.02-.03ZM11.4 34.95c-.24-.11-.15-.4-.15-.66 0-.1 0-.21-.02-.32v-.06h.06c.07 0 .14.04.18.09a.8.8 0 0 1 .16.9.33.33 0 0 1-.22.05Z" fill="#231F20"/></svg>