<!-- by TradeStack --><svg viewBox="0 0 56 56" xmlns="http://www.w3.org/2000/svg"><path fill="#F0F3FA" d="M0 0h56v56H0z"/><path d="M18 43.77V12h13.05C35.03 11.88 43 17 43 23.8c0 9.73-7.97 12.03-11.95 12.2H28v12.71l-10-4.94Z" fill="#EFD40A"/><path fill-rule="evenodd" d="M31.05 36C35.03 35.83 43 33.8 43 24c0-8.17-7.97-12.12-11.95-12H18v32.02L28 49V36h3.05ZM25 44V33h6c5.08-.28 9-3.5 9-9 0-4.4-4-9-8.95-9H21v26l4 3Z" fill="#2A2652"/><path fill-rule="evenodd" d="M30.96 22H28v4h3c1 0 2-.5 2-1.98A2.07 2.07 0 0 0 30.96 22Zm.16 7c1.62-.1 4.88-.86 4.88-4.98s-3.36-5.08-5.04-5.02H25v10h6.12Z" fill="#2A2652"/></svg>