<!-- by TradeStack --><svg viewBox="0 0 56 56" xmlns="http://www.w3.org/2000/svg"><path fill="#20314E" d="M0 0h56v56H0z"/><path fill-rule="evenodd" d="M9 19h7.63c2.15 0 6.43 1.01 6.37 4.97-.08 4.94-4.91 5.2-9 4.99v5.66c0 .48.17 1.39.98 1.58.64.15.82.17.94.18H16V37H9v-.61c.27.01.93 0 1.39-.2.58-.23.61-.74.61-1.57V21.2c0-.53-.2-1.6-2-1.68V19Zm5 8.94V20.8c-.02-.26.14-.78.97-.78 1.74-.08 5.18.6 5.03 3.85-.2 4.08-2.97 4.3-6 4.08ZM34 19h7.63c2.15 0 6.43 1.01 6.37 4.97-.08 4.94-4.91 5.2-9 4.99v5.66c0 .48.17 1.39.98 1.58.64.15.82.17.94.18H41V37h-7v-.61c.27.01.93 0 1.39-.2.58-.23.61-.74.61-1.57V21.2c0-.53-.2-1.6-2-1.68V19Zm5 8.94V20.8c-.02-.26.14-.78.97-.78 1.74-.08 5.18.6 5.03 3.85-.2 4.08-2.97 4.3-6 4.08ZM25 19h7v.56c-.88-.06-2 .1-2 1.8v13.32c0 1.08 0 1.7 2 1.7V37h-7v-.61c.87.06 2 0 2-1.81V21.15c.01-.9.02-1.6-2-1.6V19Z" fill="#fff"/></svg>