<!-- by TradeStack --><svg viewBox="0 0 56 56" xmlns="http://www.w3.org/2000/svg"><path fill="#F0F3FA" d="M0 0h56v56H0z"/><path d="M41.5 16c-9.87 8.5-22.45-1.71-25.5 14a28.95 28.95 0 0 1 12-3c.98 0 1.7.17 2.09.55 1.14-.21 1.64-.55 2.34-.55 2.46.02 2.57 1.23 2.57 5-.23-.67-.76-1-1.48-1-3.45-.03-10.7 6.74-14.29 12.76 1.46.17 2.45.24 3.77.24 20.74-.04 24.3-19.74 18.5-28Z" fill="#225535"/><path d="M30 28.51c-1.7-1.06-4.01-.26-6 .53a7.27 7.27 0 0 1 2.4.13c.32 1.06 1.68 1.37 2.7-.7l.9.04Z" fill="#225535"/><path d="M15.27 31c-1.1-3.99-1.52-7.27 1.1-11.61-2.13 1.95-3.22 5.51-3.06 8.8-4.62-9.04 4.38-12.44 5.64-16.19 5.48 2.7 9.2 14.23-3.68 19ZM33.77 35c-3.1 1.06-6.66 1.37-8.77 5.66A5.43 5.43 0 0 0 33.77 35Z" fill="#B0D23B"/></svg>