<!-- by TradeStack --><svg viewBox="0 0 56 56" xmlns="http://www.w3.org/2000/svg"><path fill="#2E2E30" d="M0 0h56v56H0z"/><path d="M7.16 23H4v9h2v-2.4h1.16a3.47 3.47 0 0 0 2.35-1 3.25 3.25 0 0 0 0-4.6 3.47 3.47 0 0 0-2.35-1Zm0 4.55H6V25h1.16c.65.03 1.23.66 1.23 1.3 0 .68-.57 1.22-1.23 1.25Z" fill="#fff"/><path d="M41.02 25a3.5 3.5 0 1 0-.04 7 3.5 3.5 0 0 0 .04-7Zm0 5a1.5 1.5 0 0 1-.3-2.98c.94-.18 1.78.51 1.78 1.49 0 .84-.59 1.49-1.48 1.49ZM33.52 25a3.5 3.5 0 1 0-.04 7 3.5 3.5 0 0 0 .04-7Zm0 5a1.5 1.5 0 0 1-.3-2.98c.94-.18 1.78.51 1.78 1.49 0 .84-.59 1.49-1.48 1.49ZM51.53 25h-2.68L47 27.15V23h-2v9h2v-1.92l.42-.48 2 2.4H52l-3.18-3.91 2.7-3.09Z" fill="#A8A9AB"/><path d="M14.93 25.03a3.27 3.27 0 0 0-.47-.03 2.12 2.12 0 0 0-1.43.5l-.04-.5H11v7h2v-3.4c-.05-.68.57-1.28 1.25-1.23.33-.01.62.09.92.19l.4-2.32c-.2-.08-.42-.17-.65-.2M19.09 25a3.48 3.48 0 0 0-3.45 4.17 3.5 3.5 0 0 0 4.76 2.56A3.5 3.5 0 0 0 19.1 25Zm0 5.1a1.6 1.6 0 0 1-1.58-1.9 1.6 1.6 0 0 1 2.18-1.18 1.6 1.6 0 0 1-.6 3.08Z" fill="#fff"/><path d="M27.29 25c.72 0 1.43.33 1.88.93l1.21-1.54a4.1 4.1 0 0 0-4.68-1.07c-.8.33-1.48.9-1.96 1.65a4.66 4.66 0 0 0-.02 5.03 4.34 4.34 0 0 0 1.94 1.66 4.1 4.1 0 0 0 4.7-1.02l-1.23-1.55c-.51.65-1.34 1-2.14.9-1.26-.17-2.07-1.35-1.99-2.65.08-1.3 1.02-2.34 2.29-2.34Z" fill="#A8A9AB"/></svg>