<!-- by TradeStack --><svg viewBox="0 0 56 56" fill="none" xmlns="http://www.w3.org/2000/svg"><path fill="#F0F3FA" d="M0 0h56v56H0z"/><path d="M16.65 33.7a.18.18 0 1 0 0-.36.18.18 0 0 0 0 .36Z" fill="#4EBB00"/><path d="M15.69 34.62a.23.23 0 1 0 0-.47.23.23 0 0 0 0 .47Z" fill="url(#ai5xquwln)"/><path d="M14.56 35.32a.29.29 0 1 0 0-.57.29.29 0 0 0 0 .57Z" fill="url(#bi5xquwln)"/><path d="M13.37 35.8a.34.34 0 1 0 0-.69.34.34 0 0 0 0 .68ZM12.09 36a.36.36 0 0 1-.37-.37c0-.2.16-.36.37-.36.2 0 .36.16.36.36 0 .21-.18.37-.36.37ZM10.79 35.92a.42.42 0 1 0 0-.83.42.42 0 0 0 0 .83ZM9.56 35.56a.44.44 0 0 1-.44-.45c0-.23.18-.44.44-.44.24 0 .44.18.44.44-.02.26-.2.45-.44.45ZM8.44 34.96a.44.44 0 1 0 0-.89.44.44 0 0 0 0 .89ZM7.45 34.15a.47.47 0 0 1-.47-.47c0-.26.2-.47.47-.47.26 0 .47.2.47.47 0 .26-.21.47-.47.47Z" fill="#8EC200"/><path d="M6.64 33.16a.5.5 0 1 1 0-1 .5.5 0 0 1 0 1Z" fill="url(#ci5xquwln)"/><path d="M6.04 32.03a.5.5 0 1 0 0-.99.5.5 0 0 0 0 1Z" fill="url(#di5xquwln)"/><path d="M5.65 30.8a.5.5 0 0 1-.5-.49c0-.26.24-.5.5-.5s.5.24.5.5-.21.5-.5.5Z" fill="url(#ei5xquwln)"/><path d="M5.5 29.5a.5.5 0 1 0 0-.99.5.5 0 0 0 0 1Z" fill="url(#fi5xquwln)"/><path d="M5.57 28.23a.5.5 0 1 0 0-1 .5.5 0 0 0 0 1Z" fill="url(#gi5xquwln)"/><path d="M5.91 26.95a.47.47 0 1 0 0-.94.47.47 0 0 0 0 .94Z" fill="url(#hi5xquwln)"/><path d="M6.46 25.75a.44.44 0 1 0 0-.89.44.44 0 0 0 0 .89Z" fill="url(#ii5xquwln)"/><path d="M7.16 24.63a.4.4 0 1 0 0-.79.4.4 0 0 0 0 .79Z" fill="url(#ji5xquwln)"/><path d="M8.02 23.63a.34.34 0 0 1-.34-.33c0-.19.16-.34.34-.34.18 0 .34.15.34.34 0 .18-.13.33-.34.33Z" fill="url(#ki5xquwln)"/><path d="M8.99 22.7a.29.29 0 0 1-.29-.3c0-.15.13-.28.29-.28a.29.29 0 0 1 0 .57Z" fill="url(#li5xquwln)"/><path d="M9.93 21.76a.23.23 0 0 1-.24-.24c0-.13.1-.23.24-.23.13 0 .23.1.23.23s-.1.24-.23.24Z" fill="url(#mi5xquwln)"/><path d="M10.76 20.74a.2.2 0 0 1-.2-.2c0-.14.07-.22.2-.22s.2.08.2.21-.1.2-.2.2Z" fill="url(#ni5xquwln)"/><path d="M11.44 19.62a.18.18 0 1 0 0-.37.18.18 0 0 0 0 .37Z" fill="url(#oi5xquwln)"/><path d="M11.98 18.52a.26.26 0 0 1-.26-.26c0-.16.1-.26.26-.26a.26.26 0 0 1 0 .52Z" fill="url(#pi5xquwln)"/><path d="M13.13 19.33a.36.36 0 0 1-.36-.36c0-.21.15-.37.36-.37s.37.16.37.37c0 .2-.16.36-.37.36Z" fill="url(#qi5xquwln)"/><path d="M14.2 20.24a.44.44 0 1 0 0-.88.44.44 0 0 0 0 .88Z" fill="url(#ri5xquwln)"/><path d="M15.16 21.18a.47.47 0 1 0 0-.94.47.47 0 0 0 0 .94Z" fill="url(#si5xquwln)"/><path d="M16.05 22.23a.47.47 0 1 0 0-.94.47.47 0 0 0 0 .94Z" fill="url(#ti5xquwln)"/><path d="M16.8 23.27a.42.42 0 1 0 0-.83.42.42 0 0 0 0 .83Z" fill="url(#ui5xquwln)"/><path d="M17.46 24.37a.3.3 0 0 1-.32-.32.3.3 0 0 1 .32-.31.3.3 0 0 1 .31.31c0 .18-.16.32-.31.32Z" fill="url(#vi5xquwln)"/><path d="M17.93 25.46a.16.16 0 1 0 0-.31.16.16 0 0 0 0 .31Z" fill="url(#wi5xquwln)"/><path d="M51 29.15c0-1.2-.8-2.15-2.38-2.15-2.07 0-2.62 1.22-2.62 2.51 0 1.3.55 2.49 2.6 2.49h2c0-.98-.08-1-.97-1h-1.08c-.77 0-1.23-.38-1.23-1h2.43c1.15.02 1.25.04 1.25-.85ZM47.35 29c0-1.05.9-1 1.17-1 .68 0 1.13.38 1.13 1h-2.3Z" fill="url(#xi5xquwln)"/><path d="M45 30.52c0 .8-.84 1.48-2.7 1.48h-2.24c0-.22-.1-.7.13-.9.14-.12.43-.1.96-.1h1.11c.17 0 .98-.04 1.15-.12.08-.02.08-.38.08-.43 0-.34-.78-.49-1.09-.54-1.03-.2-2.37-.22-2.4-1.4-.03-.95.87-1.51 2.68-1.51h2.04c0 .22.06.73-.14.92-.14.12-.39.08-.9.08h-1c-.14 0-.92.04-1.06.1-.08.04-.06.43-.06.5 0 .1.09.24.48.34 1.09.24 2.96.15 2.96 1.58Z" fill="url(#yi5xquwln)"/><path d="M39.46 28.04V32c-1.37 0-1.46.05-1.46-.97V27c.29 0 1.16 0 1.28.15.13.13.18.37.18.9Zm.1-2.7c0 .4-.26.74-.6.84.08-.07.13-.2.1-.42-.05-.23-.28-.4-.28-.4s-.06.09-.19.2c-.13.12-.2.2-.2.36 0 .1.04.21.12.29a.89.89 0 0 1-.37-1.45c.16-.18.24-.2.37-.37.19-.18.24-.39.24-.39s.82.4.82 1.34Z" fill="url(#zi5xquwln)"/><path d="M37 27v.63c-.05.5-.38.37-.84.37-.56 0-.71.16-.74.62-.02.17 0 .39 0 .63V32c-1.32 0-1.42-.05-1.42-.97V27c1.14 0 1.14.05 1.14.73.26-.41.84-.77 1.86-.73Z" fill="url(#aai5xquwln)"/><path d="M32 25v2.59c-.21-.37-.9-.59-1.7-.59-1.95 0-2.3 1.08-2.3 2.42 0 1.34.38 2.58 2.3 2.58.98 0 1.66-.41 1.93-.88 0 .83.08.88 1.19.88v-6.02c0-.49-.03-.73-.22-.85-.23-.17-.91-.12-1.2-.12Zm-1.38 6c-1.08 0-1.32-.63-1.32-1.58 0-1.49 0-1.42 1.35-1.42 1.13 0 1.37.52 1.37 1.42-.03 1.46-.03 1.58-1.4 1.58Z" fill="url(#abi5xquwln)"/><path d="M24.38 27h-1.9c0 .99.05 1 .93 1h1.02c.82 0 1.21.3 1.21 1h-1.4c-1.54 0-2.24.4-2.24 1.43 0 1.11 1.02 1.57 2.11 1.57.83 0 1.43-.29 1.8-.87 0 .8.02.87 1.09.87v-2.85c-.02-1.33-.56-2.15-2.62-2.15Zm-.05 4c-.73 0-.97-.26-.97-.57 0-.65.05-.68 1.02-.68h1.26c-.02 1.19-.02 1.25-1.31 1.25Z" fill="url(#aci5xquwln)"/><path d="M21 27.99V32c-1.1 0-1.1-.05-1.1-.87a2 2 0 0 1-1.73.87c-1.8 0-2.17-.96-2.17-2.3V27c1.28 0 1.35.05 1.35.99v1.8c0 .8.15 1.21 1.11 1.21 1.16 0 1.14-.08 1.14-1.26V27c.76 0 1.03.02 1.18.14.24.17.22.6.22.85Z" fill="url(#adi5xquwln)"/><path d="M11.5 25C8.7 25 8 26.73 8 28.6c0 1.69.54 3.26 2.69 3.56 0 1.3.62 1.84 2.38 1.84h.95c0-1.14-.05-1.17-.95-1.17-.84 0-.84 0-.84-.65 2.23-.3 2.77-1.87 2.77-3.57 0-1.9-.68-3.61-3.5-3.61Zm0 6c-1.57 0-1.95-1.07-1.95-2.42 0-2.28 0-2.3 1.95-2.3 1.6 0 1.95.97 1.95 2.33-.02 2.3 0 2.39-1.95 2.39Z" fill="url(#aei5xquwln)"/><defs><linearGradient id="ai5xquwln" x1="20.62" y1="20.81" x2="14.53" y2="37.49" gradientUnits="userSpaceOnUse"><stop offset=".74" stop-color="#4EBB00"/><stop offset=".9" stop-color="#8EC200"/></linearGradient><linearGradient id="bi5xquwln" x1="19.85" y1="20.53" x2="13.76" y2="37.21" gradientUnits="userSpaceOnUse"><stop offset=".74" stop-color="#4EBB00"/><stop offset=".9" stop-color="#8EC200"/></linearGradient><linearGradient id="ci5xquwln" x1="12.08" y1="17.7" x2="6" y2="34.38" gradientUnits="userSpaceOnUse"><stop stop-color="#005892"/><stop offset=".05" stop-color="#0063A0"/><stop offset=".14" stop-color="#0081C5"/><stop offset=".26" stop-color="#00B1FF"/><stop offset=".33" stop-color="#11B3C7"/><stop offset=".41" stop-color="#23B68B"/><stop offset=".49" stop-color="#33B759"/><stop offset=".57" stop-color="#3FB933"/><stop offset=".63" stop-color="#47BA17"/><stop offset=".69" stop-color="#4CBB06"/><stop offset=".74" stop-color="#4EBB00"/><stop offset=".9" stop-color="#8EC200"/></linearGradient><linearGradient id="di5xquwln" x1="11.18" y1="17.37" x2="5.11" y2="34.05" gradientUnits="userSpaceOnUse"><stop stop-color="#005892"/><stop offset=".05" stop-color="#0063A0"/><stop offset=".14" stop-color="#0081C5"/><stop offset=".26" stop-color="#00B1FF"/><stop offset=".33" stop-color="#11B3C7"/><stop offset=".41" stop-color="#23B68B"/><stop offset=".49" stop-color="#33B759"/><stop offset=".57" stop-color="#3FB933"/><stop offset=".63" stop-color="#47BA17"/><stop offset=".69" stop-color="#4CBB06"/><stop offset=".74" stop-color="#4EBB00"/><stop offset=".9" stop-color="#8EC200"/></linearGradient><linearGradient id="ei5xquwln" x1="10.45" y1="17.1" x2="4.37" y2="33.79" gradientUnits="userSpaceOnUse"><stop stop-color="#005892"/><stop offset=".05" stop-color="#0063A0"/><stop offset=".14" stop-color="#0081C5"/><stop offset=".26" stop-color="#00B1FF"/><stop offset=".33" stop-color="#11B3C7"/><stop offset=".41" stop-color="#23B68B"/><stop offset=".49" stop-color="#33B759"/><stop offset=".57" stop-color="#3FB933"/><stop offset=".63" stop-color="#47BA17"/><stop offset=".69" stop-color="#4CBB06"/><stop offset=".74" stop-color="#4EBB00"/><stop offset=".9" stop-color="#8EC200"/></linearGradient><linearGradient id="fi5xquwln" x1="9.9" y1="16.9" x2="3.82" y2="33.59" gradientUnits="userSpaceOnUse"><stop stop-color="#005892"/><stop offset=".05" stop-color="#0063A0"/><stop offset=".14" stop-color="#0081C5"/><stop offset=".26" stop-color="#00B1FF"/><stop offset=".33" stop-color="#11B3C7"/><stop offset=".41" stop-color="#23B68B"/><stop offset=".49" stop-color="#33B759"/><stop offset=".57" stop-color="#3FB933"/><stop offset=".63" stop-color="#47BA17"/><stop offset=".69" stop-color="#4CBB06"/><stop offset=".74" stop-color="#4EBB00"/><stop offset=".9" stop-color="#8EC200"/></linearGradient><linearGradient id="gi5xquwln" x1="9.56" y1="16.78" x2="3.48" y2="33.46" gradientUnits="userSpaceOnUse"><stop stop-color="#005892"/><stop offset=".05" stop-color="#0063A0"/><stop offset=".14" stop-color="#0081C5"/><stop offset=".26" stop-color="#00B1FF"/><stop offset=".33" stop-color="#11B3C7"/><stop offset=".41" stop-color="#23B68B"/><stop offset=".49" stop-color="#33B759"/><stop offset=".57" stop-color="#3FB933"/><stop offset=".63" stop-color="#47BA17"/><stop offset=".69" stop-color="#4CBB06"/><stop offset=".74" stop-color="#4EBB00"/><stop offset=".9" stop-color="#8EC200"/></linearGradient><linearGradient id="hi5xquwln" x1="9.45" y1="16.74" x2="3.37" y2="33.42" gradientUnits="userSpaceOnUse"><stop stop-color="#005892"/><stop offset=".05" stop-color="#0063A0"/><stop offset=".14" stop-color="#0081C5"/><stop offset=".26" stop-color="#00B1FF"/><stop offset=".33" stop-color="#11B3C7"/><stop offset=".41" stop-color="#23B68B"/><stop offset=".49" stop-color="#33B759"/><stop offset=".57" stop-color="#3FB933"/><stop offset=".63" stop-color="#47BA17"/><stop offset=".69" stop-color="#4CBB06"/><stop offset=".74" stop-color="#4EBB00"/><stop offset=".9" stop-color="#8EC200"/></linearGradient><linearGradient id="ii5xquwln" x1="9.55" y1="16.77" x2="3.47" y2="33.46" gradientUnits="userSpaceOnUse"><stop stop-color="#005892"/><stop offset=".05" stop-color="#0063A0"/><stop offset=".14" stop-color="#0081C5"/><stop offset=".26" stop-color="#00B1FF"/><stop offset=".33" stop-color="#11B3C7"/><stop offset=".41" stop-color="#23B68B"/><stop offset=".49" stop-color="#33B759"/><stop offset=".57" stop-color="#3FB933"/><stop offset=".63" stop-color="#47BA17"/><stop offset=".69" stop-color="#4CBB06"/><stop offset=".74" stop-color="#4EBB00"/><stop offset=".9" stop-color="#8EC200"/></linearGradient><linearGradient id="ji5xquwln" x1="9.85" y1="16.88" x2="3.77" y2="33.57" gradientUnits="userSpaceOnUse"><stop stop-color="#005892"/><stop offset=".05" stop-color="#0063A0"/><stop offset=".14" stop-color="#0081C5"/><stop offset=".26" stop-color="#00B1FF"/><stop offset=".33" stop-color="#11B3C7"/><stop offset=".41" stop-color="#23B68B"/><stop offset=".49" stop-color="#33B759"/><stop offset=".57" stop-color="#3FB933"/><stop offset=".63" stop-color="#47BA17"/><stop offset=".69" stop-color="#4CBB06"/><stop offset=".74" stop-color="#4EBB00"/><stop offset=".9" stop-color="#8EC200"/></linearGradient><linearGradient id="ki5xquwln" x1="10.3" y1="17.05" x2="4.21" y2="33.73" gradientUnits="userSpaceOnUse"><stop stop-color="#005892"/><stop offset=".05" stop-color="#0063A0"/><stop offset=".14" stop-color="#0081C5"/><stop offset=".26" stop-color="#00B1FF"/><stop offset=".33" stop-color="#11B3C7"/><stop offset=".41" stop-color="#23B68B"/><stop offset=".49" stop-color="#33B759"/><stop offset=".57" stop-color="#3FB933"/><stop offset=".63" stop-color="#47BA17"/><stop offset=".69" stop-color="#4CBB06"/><stop offset=".74" stop-color="#4EBB00"/><stop offset=".9" stop-color="#8EC200"/></linearGradient><linearGradient id="li5xquwln" x1="10.85" y1="17.25" x2="4.76" y2="33.93" gradientUnits="userSpaceOnUse"><stop stop-color="#005892"/><stop offset=".05" stop-color="#0063A0"/><stop offset=".14" stop-color="#0081C5"/><stop offset=".26" stop-color="#00B1FF"/><stop offset=".33" stop-color="#11B3C7"/><stop offset=".41" stop-color="#23B68B"/><stop offset=".49" stop-color="#33B759"/><stop offset=".57" stop-color="#3FB933"/><stop offset=".63" stop-color="#47BA17"/><stop offset=".69" stop-color="#4CBB06"/><stop offset=".74" stop-color="#4EBB00"/><stop offset=".9" stop-color="#8EC200"/></linearGradient><linearGradient id="mi5xquwln" x1="11.39" y1="17.44" x2="5.3" y2="34.12" gradientUnits="userSpaceOnUse"><stop stop-color="#005892"/><stop offset=".05" stop-color="#0063A0"/><stop offset=".14" stop-color="#0081C5"/><stop offset=".26" stop-color="#00B1FF"/><stop offset=".33" stop-color="#11B3C7"/><stop offset=".41" stop-color="#23B68B"/><stop offset=".49" stop-color="#33B759"/><stop offset=".57" stop-color="#3FB933"/><stop offset=".63" stop-color="#47BA17"/><stop offset=".69" stop-color="#4CBB06"/><stop offset=".74" stop-color="#4EBB00"/><stop offset=".9" stop-color="#8EC200"/></linearGradient><linearGradient id="ni5xquwln" x1="11.81" y1="17.6" x2="5.72" y2="34.28" gradientUnits="userSpaceOnUse"><stop stop-color="#005892"/><stop offset=".05" stop-color="#0063A0"/><stop offset=".14" stop-color="#0081C5"/><stop offset=".26" stop-color="#00B1FF"/><stop offset=".33" stop-color="#11B3C7"/><stop offset=".41" stop-color="#23B68B"/><stop offset=".49" stop-color="#33B759"/><stop offset=".57" stop-color="#3FB933"/><stop offset=".63" stop-color="#47BA17"/><stop offset=".69" stop-color="#4CBB06"/><stop offset=".74" stop-color="#4EBB00"/><stop offset=".9" stop-color="#8EC200"/></linearGradient><linearGradient id="oi5xquwln" x1="12.08" y1="17.7" x2="6.02" y2="34.35" gradientUnits="userSpaceOnUse"><stop stop-color="#005892"/><stop offset=".05" stop-color="#0063A0"/><stop offset=".14" stop-color="#0081C5"/><stop offset=".26" stop-color="#00B1FF"/><stop offset=".33" stop-color="#11B3C7"/><stop offset=".41" stop-color="#23B68B"/><stop offset=".49" stop-color="#33B759"/><stop offset=".57" stop-color="#3FB933"/><stop offset=".63" stop-color="#47BA17"/><stop offset=".69" stop-color="#4CBB06"/><stop offset=".74" stop-color="#4EBB00"/><stop offset=".9" stop-color="#8EC200"/></linearGradient><linearGradient id="pi5xquwln" x1="12.17" y1="17.73" x2="6.08" y2="34.41" gradientUnits="userSpaceOnUse"><stop stop-color="#005892"/><stop offset=".05" stop-color="#0063A0"/><stop offset=".14" stop-color="#0081C5"/><stop offset=".26" stop-color="#00B1FF"/><stop offset=".33" stop-color="#11B3C7"/><stop offset=".41" stop-color="#23B68B"/><stop offset=".49" stop-color="#33B759"/><stop offset=".57" stop-color="#3FB933"/><stop offset=".63" stop-color="#47BA17"/><stop offset=".69" stop-color="#4CBB06"/><stop offset=".74" stop-color="#4EBB00"/><stop offset=".9" stop-color="#8EC200"/></linearGradient><linearGradient id="qi5xquwln" x1="13.41" y1="18.18" x2="7.33" y2="34.86" gradientUnits="userSpaceOnUse"><stop stop-color="#005892"/><stop offset=".05" stop-color="#0063A0"/><stop offset=".14" stop-color="#0081C5"/><stop offset=".26" stop-color="#00B1FF"/><stop offset=".33" stop-color="#11B3C7"/><stop offset=".41" stop-color="#23B68B"/><stop offset=".49" stop-color="#33B759"/><stop offset=".57" stop-color="#3FB933"/><stop offset=".63" stop-color="#47BA17"/><stop offset=".69" stop-color="#4CBB06"/><stop offset=".74" stop-color="#4EBB00"/><stop offset=".9" stop-color="#8EC200"/></linearGradient><linearGradient id="ri5xquwln" x1="14.62" y1="18.62" x2="8.54" y2="35.3" gradientUnits="userSpaceOnUse"><stop stop-color="#005892"/><stop offset=".05" stop-color="#0063A0"/><stop offset=".14" stop-color="#0081C5"/><stop offset=".26" stop-color="#00B1FF"/><stop offset=".33" stop-color="#11B3C7"/><stop offset=".41" stop-color="#23B68B"/><stop offset=".49" stop-color="#33B759"/><stop offset=".57" stop-color="#3FB933"/><stop offset=".63" stop-color="#47BA17"/><stop offset=".69" stop-color="#4CBB06"/><stop offset=".74" stop-color="#4EBB00"/><stop offset=".9" stop-color="#8EC200"/></linearGradient><linearGradient id="si5xquwln" x1="15.78" y1="19.04" x2="9.7" y2="35.73" gradientUnits="userSpaceOnUse"><stop stop-color="#005892"/><stop offset=".05" stop-color="#0063A0"/><stop offset=".14" stop-color="#0081C5"/><stop offset=".26" stop-color="#00B1FF"/><stop offset=".33" stop-color="#11B3C7"/><stop offset=".41" stop-color="#23B68B"/><stop offset=".49" stop-color="#33B759"/><stop offset=".57" stop-color="#3FB933"/><stop offset=".63" stop-color="#47BA17"/><stop offset=".69" stop-color="#4CBB06"/><stop offset=".74" stop-color="#4EBB00"/><stop offset=".9" stop-color="#8EC200"/></linearGradient><linearGradient id="ti5xquwln" x1="16.89" y1="19.45" x2="10.81" y2="36.13" gradientUnits="userSpaceOnUse"><stop stop-color="#005892"/><stop offset=".05" stop-color="#0063A0"/><stop offset=".14" stop-color="#0081C5"/><stop offset=".26" stop-color="#00B1FF"/><stop offset=".33" stop-color="#11B3C7"/><stop offset=".41" stop-color="#23B68B"/><stop offset=".49" stop-color="#33B759"/><stop offset=".57" stop-color="#3FB933"/><stop offset=".63" stop-color="#47BA17"/><stop offset=".69" stop-color="#4CBB06"/><stop offset=".74" stop-color="#4EBB00"/><stop offset=".9" stop-color="#8EC200"/></linearGradient><linearGradient id="ui5xquwln" x1="17.92" y1="19.82" x2="11.84" y2="36.51" gradientUnits="userSpaceOnUse"><stop stop-color="#005892"/><stop offset=".05" stop-color="#0063A0"/><stop offset=".14" stop-color="#0081C5"/><stop offset=".26" stop-color="#00B1FF"/><stop offset=".33" stop-color="#11B3C7"/><stop offset=".41" stop-color="#23B68B"/><stop offset=".49" stop-color="#33B759"/><stop offset=".57" stop-color="#3FB933"/><stop offset=".63" stop-color="#47BA17"/><stop offset=".69" stop-color="#4CBB06"/><stop offset=".74" stop-color="#4EBB00"/><stop offset=".9" stop-color="#8EC200"/></linearGradient><linearGradient id="vi5xquwln" x1="18.86" y1="20.16" x2="12.77" y2="36.84" gradientUnits="userSpaceOnUse"><stop stop-color="#005892"/><stop offset=".05" stop-color="#0063A0"/><stop offset=".14" stop-color="#0081C5"/><stop offset=".26" stop-color="#00B1FF"/><stop offset=".33" stop-color="#11B3C7"/><stop offset=".41" stop-color="#23B68B"/><stop offset=".49" stop-color="#33B759"/><stop offset=".57" stop-color="#3FB933"/><stop offset=".63" stop-color="#47BA17"/><stop offset=".69" stop-color="#4CBB06"/><stop offset=".74" stop-color="#4EBB00"/><stop offset=".9" stop-color="#8EC200"/></linearGradient><linearGradient id="wi5xquwln" x1="19.69" y1="20.48" x2="13.63" y2="37.13" gradientUnits="userSpaceOnUse"><stop stop-color="#005892"/><stop offset=".05" stop-color="#0063A0"/><stop offset=".14" stop-color="#0081C5"/><stop offset=".26" stop-color="#00B1FF"/><stop offset=".33" stop-color="#11B3C7"/><stop offset=".41" stop-color="#23B68B"/><stop offset=".49" stop-color="#33B759"/><stop offset=".57" stop-color="#3FB933"/><stop offset=".63" stop-color="#47BA17"/><stop offset=".69" stop-color="#4CBB06"/><stop offset=".74" stop-color="#4EBB00"/><stop offset=".9" stop-color="#8EC200"/></linearGradient><linearGradient id="xi5xquwln" x1="31.39" y1="33.71" x2="31.39" y2="24.61" gradientUnits="userSpaceOnUse"><stop offset=".34" stop-color="#005892"/><stop offset=".85" stop-color="#0094D1"/><stop offset="1" stop-color="#00B1FF"/></linearGradient><linearGradient id="yi5xquwln" x1="28.53" y1="33.71" x2="28.53" y2="24.48" gradientUnits="userSpaceOnUse"><stop offset=".34" stop-color="#005892"/><stop offset=".85" stop-color="#0094D1"/><stop offset="1" stop-color="#00B1FF"/></linearGradient><linearGradient id="zi5xquwln" x1="29.37" y1="33.98" x2="29.37" y2="23.98" gradientUnits="userSpaceOnUse"><stop offset=".34" stop-color="#005892"/><stop offset=".85" stop-color="#0094D1"/><stop offset="1" stop-color="#00B1FF"/></linearGradient><linearGradient id="aai5xquwln" x1="29.2" y1="33.7" x2="29.2" y2="24.52" gradientUnits="userSpaceOnUse"><stop offset=".34" stop-color="#005892"/><stop offset=".85" stop-color="#0094D1"/><stop offset="1" stop-color="#00B1FF"/></linearGradient><linearGradient id="abi5xquwln" x1="29.49" y1="33.67" x2="29.49" y2="24.4" gradientUnits="userSpaceOnUse"><stop offset=".34" stop-color="#005892"/><stop offset=".85" stop-color="#0094D1"/><stop offset="1" stop-color="#00B1FF"/></linearGradient><linearGradient id="aci5xquwln" x1="29.14" y1="33.68" x2="29.14" y2="24.49" gradientUnits="userSpaceOnUse"><stop offset=".34" stop-color="#005892"/><stop offset=".85" stop-color="#0094D1"/><stop offset="1" stop-color="#00B1FF"/></linearGradient><linearGradient id="adi5xquwln" x1="29.01" y1="33.67" x2="29.01" y2="24.53" gradientUnits="userSpaceOnUse"><stop offset=".34" stop-color="#005892"/><stop offset=".85" stop-color="#0094D1"/><stop offset="1" stop-color="#00B1FF"/></linearGradient><linearGradient id="aei5xquwln" x1="30.12" y1="33.98" x2="30.12" y2="23.67" gradientUnits="userSpaceOnUse"><stop offset=".34" stop-color="#005892"/><stop offset=".85" stop-color="#0094D1"/><stop offset="1" stop-color="#00B1FF"/></linearGradient></defs></svg>