<!-- by TradeStack --><svg viewBox="0 0 56 56" xmlns="http://www.w3.org/2000/svg"><path fill="#F0F3FA" d="M0 0h56v56H0z"/><path d="m32.27 18.46-1.96 3.58 1.16 1.77 2.25-4.17-1.45-1.18Z" fill="#0B2C6F"/><path d="m35.39 21-.79 1.38c-.18.31-.18.7 0 1l2.44 4.11c.18.32.52.51.88.51h1.58l-4.11-7Z" fill="#0DB5DB"/><path d="m35 28-6.49-11.69a.58.58 0 0 0-1.02 0L21 28h2l4.41-8.05a.66.66 0 0 1 1.18 0l4.02 7.35c.24.43.67.7 1.15.7H35Z" fill="url(#a)"/><path d="m29.26 31-4.07 6.9a2.2 2.2 0 0 1-1.9 1.1H12.5l6.14-10.71c.1-.18.29-.29.5-.29h2.28c.83 0 1.6.46 2.01 1.18 1.07.82 3.75 2.47 1.2-1.93A2.5 2.5 0 0 0 22.48 26h-4.16c-.4 0-.79.22-1 .57L9 41h15.1c.8 0 1.56-.44 1.97-1.14l4.43-7.16c2.25-2.72 9.8-1.31-1.24-1.7Z" fill="url(#b)"/><path d="M33.83 18.2a1.27 1.27 0 0 1 0 1.26l-1.65 3.04c.83-2.48.06-3.23-.37-4.24L28 12l-6.84 12H19l9-16 5.83 10.2Z" fill="url(#c)"/><path d="M19.08 26c1.53.4 3.38 1.51 4.2 2.94L26.14 33l.6-.9a1.67 1.67 0 0 0 .05-1.75l-2.14-3.09A2.52 2.52 0 0 0 22.47 26h-3.4Z" fill="#0B2C6F"/><path d="M40.96 30.75 47 41H32.07c-.57 0-1.48-.2-2.2-.98-.1-.1-.18-.23-.25-.36L29 38.63 30 37l1.22 1.4c.37.55.99.6 1.66.6H43.5l-3.81-6.45a1.1 1.1 0 0 0-.95-.55h-5.62c-2.05 0-3.56.48-4.48 1.86a9.4 9.4 0 0 1-.22.3l-.54.8c-.64.97-1.59 2.4-2.51 3.25-.65.6-1.4.68-1.87.79.53-.16 1.08-.33 1.36-.82l4.22-7.03A2.28 2.28 0 0 1 31.07 30h8.6c.53 0 1.02.28 1.29.75Z" fill="url(#d)"/><defs><linearGradient id="a" x1="35" y1="22" x2="21" y2="22" gradientUnits="userSpaceOnUse"><stop stop-color="#000008"/><stop offset=".59" stop-color="#0C5299"/><stop offset="1" stop-color="#0BB4DA"/></linearGradient><linearGradient id="b" x1="15.7" y1="27.25" x2="24.23" y2="37.77" gradientUnits="userSpaceOnUse"><stop stop-color="#08B8DD"/><stop offset="1" stop-color="#021050"/></linearGradient><linearGradient id="c" x1="34.1" y1="16.13" x2="18.66" y2="16.13" gradientUnits="userSpaceOnUse"><stop stop-color="#0BB4DA"/><stop offset=".41" stop-color="#0C5299"/><stop offset="1" stop-color="#000008"/></linearGradient><linearGradient id="d" x1="32.03" y1="38.67" x2="28.03" y2="31.6" gradientUnits="userSpaceOnUse"><stop offset=".18" stop-color="#0A2266"/><stop offset=".79" stop-color="#0BB4DA"/></linearGradient></defs></svg>