<!-- by TradeStack --><svg viewBox="0 0 56 56" xmlns="http://www.w3.org/2000/svg"><path fill="#F0F3FA" d="M0 0h56v56H0z"/><path d="M39.02 24.56c-.09-.14-.1-.13-.05.02.59 1.62.82 3.29.71 5A13.87 13.87 0 0 1 31.7 41.4a13.52 13.52 0 0 1-8.31.91c-2-.38-3.8-1.14-5.44-2.28a17.58 17.58 0 0 1-2.33-1.9c-.17-.17-.53-.6-1.09-1.28a16.1 16.1 0 0 1-3.52-8.61c-.27-3.34.3-6.46 1.73-9.37a17.55 17.55 0 0 1 11.57-9.44c1.68-.39 3.07-.49 4.75-.4a16.37 16.37 0 0 0-11 4.23c-.98.86-1.91 1.9-2.8 3.13a18.09 18.09 0 0 0-3.1 9.06c-.06 1.55.03 3.24.5 4.79.27.93.55 1.74.84 2.43a14.57 14.57 0 0 0 2.85 4.16c.42.37.66.67 1.15 1.05 1.15.89 2.24 1.55 3.29 2.01.32.14.97.36 1.93.64 1.98.58 4.06.61 6.08.23.22-.05.63-.17 1.23-.37.02 0 .02-.02.01-.03l-.02-.04a13.48 13.48 0 0 1-16.38-12.47c-.14-2.31.26-4.59 1.2-6.83a14.66 14.66 0 0 1 4.06-5.57c1.42-1.2 2.92-2.2 4.53-2.98a14.94 14.94 0 0 1 10.64-.94c.83.25 1.42.41 2.05.7a19 19 0 0 1 2.96 1.66c.27.18.55.47.85.67l.35.26c2.46 2 4.29 4.5 5.47 7.52a25 25 0 0 1 1 3.8c.38 2.37.33 4.66-.14 6.88-.14.64-.33 1.22-.52 1.9-.15.56-.46 1.34-.78 2a19.21 19.21 0 0 0 .12-13.62c-.82-2.2-2.1-4.25-3.84-6.17a16.9 16.9 0 0 0-1.87-1.66 14.56 14.56 0 0 0-14.62-2.33c-.65.25-1.24.62-1.96 1-.36.18-.78.45-1.23.79a15.1 15.1 0 0 0-5.1 6.66 13.29 13.29 0 0 0 .32 10.17c.02.04.05.05.08.03l.04-.02v-.03a12.48 12.48 0 0 1-.6-7.24A14.1 14.1 0 0 1 20 17.8c.52-.57 1.26-1.22 2.24-1.96.85-.64 1.94-1.2 3.3-1.7.63-.22 1.26-.3 1.86-.48a15.06 15.06 0 0 1 4.17-.21 15.63 15.63 0 0 1 11.37 7.49 15.87 15.87 0 0 1 2.08 10.57 17.67 17.67 0 0 1-3.26 8.25 17.2 17.2 0 0 1-12.25 7.18c-.85.1-1.68.03-2.69 0 .86-.08 1.85-.1 2.73-.23a16.85 16.85 0 0 0 10.82-6.45 17.62 17.62 0 0 0 3.4-7.94c.04-.25.09-.75.14-1.5a15.36 15.36 0 0 0-1.02-6.8c-.25-.61-.62-1.3-1.1-2.05-.6-.9-1.16-1.83-1.84-2.54-1.04-1.1-2.21-2.01-3.53-2.75-.3-.17-.6-.3-.92-.42-.43-.16-.74-.35-1.25-.52a14.7 14.7 0 0 0-3.79-.72c-.63-.03-1.48.05-2.03.08a9.14 9.14 0 0 0-2.05.46v.01l.03.04c1.6-.3 3.3-.19 5.05.16 1.25.25 2.19.5 2.82.78a13.23 13.23 0 0 1 7.78 9.2c.57 2.16.48 4.7 0 6.72-.3 1.26-1 2.8-1.86 4-.57.8-.9 1.24-1 1.35-.47.5-.9 1.03-1.3 1.59-.16.24-.59.69-1.27 1.33a15.52 15.52 0 0 1-13.04 4.06c-.51-.1-1.07-.14-1.56-.28a15.7 15.7 0 0 1-4.83-2.27c-.38-.26-.9-.6-1.3-.94A18.7 18.7 0 0 1 9.65 22c.33-1.22.75-2.29 1.21-3.23-.01 0 0 0 0 0-.21.43-.42 1-.54 1.47-.4 1.5-.65 2.6-.74 3.28a22.3 22.3 0 0 0-.06 4.3c.03.46.1.93.2 1.4l.31 1.38a19.21 19.21 0 0 0 2 4.95c.39.68.98 1.53 1.75 2.52a16.3 16.3 0 0 0 4.26 3.64c2.45 1.5 5.4 2.34 8.27 2.2A14.36 14.36 0 0 0 37 38.4a13.71 13.71 0 0 0 2.35-13.16c-.1-.25-.2-.48-.34-.68Zm6.58-1.9a.92.92 0 0 0-.08-.36 18.04 18.04 0 0 0-7.75-8.96 15.78 15.78 0 0 0-5.19-1.92c-1.3-.24-2.74-.19-4.1-.12-1.37.07-2.87.5-4.16 1-.32.12-.64.29-.95.5-.3.2-.61.38-.92.53-.86.42-1.64.96-2.33 1.62-.83.78-1.62 1.65-2.37 2.6a14.22 14.22 0 0 0-1.79 14.58c.39.89.84 1.66 1.36 2.32a11.97 11.97 0 0 0 7.06 4.28c0-.02 0-.03-.02-.03a12.3 12.3 0 0 1-5.27-3.53 13.98 13.98 0 0 1-1.45-1.87 19.4 19.4 0 0 1-1.02-2.02c-.09-.2-.18-.47-.26-.77-.16-.63-.42-1.38-.5-1.97a13.71 13.71 0 0 1 1.06-7.97 15.2 15.2 0 0 1 7.66-7.51c.47-.25.95-.34 1.38-.52a6 6 0 0 1 1.06-.32c2.1-.45 4.09-.5 5.96-.15 2.54.47 4.87 1.57 6.99 3.29.89.72 1.47 1.22 1.73 1.5.22.22.7.79 1.43 1.71.45.57.78 1.16 1.2 1.81.42.65.83 1.62 1.19 2.3.05.1.08.1.08-.01ZM19 12.2v-.07c.02-.09 0-.11-.09-.07-.3.19-.6.4-.9.62-.66.54-1.32 1.15-1.96 1.84A17.35 17.35 0 0 0 12 21.65c-.17.56-.22 1.04-.36 1.52-.2.72-.26 1.56-.32 2.17-.04.4-.05.74-.04 1.04.02.79-.04 1.46.06 2.3.18 1.44.52 2.8 1.05 4.06a18.36 18.36 0 0 0 1.98 3.56c.14.2.6.73 1.35 1.58.25.28.58.53.86.8a13.74 13.74 0 0 0 3.45 2.22l.03-.03c.02-.02.02-.04 0-.06a15.44 15.44 0 0 1-6.88-7.79c-.31-.75-.48-1.61-.69-2.29a16.94 16.94 0 0 1 .77-11.26c.59-1.39 1.3-2.63 2.15-3.72.6-.77 1.37-1.6 2.29-2.49a7.9 7.9 0 0 1 1.3-1.07Zm4.68 4.28a4.8 4.8 0 0 1 1.05-.59c.74-.29 1.33-.57 1.95-.73a10.9 10.9 0 0 1 2.82-.4l1.85.06c.54.02 1.43.22 2.68.6.12.04.21.05.28.03.08-.02.08-.05 0-.07a12.36 12.36 0 0 0-10.88 1.1c-.06.04-.06.06.03.06.07 0 .14-.02.22-.06Zm14.11 26.88.04.06a.04.04 0 0 0 .02.02.04.04 0 0 0 .03 0c.57-.46 1.13-.82 1.63-1.34a18.61 18.61 0 0 0 4.1-6.23 18.8 18.8 0 0 0 1.24-7.1 15.1 15.1 0 0 0-1.55-6.37 15.22 15.22 0 0 0-7.7-7.52c-.08-.03-.14-.03-.18 0-.03.05-.03.07.02.09a15.06 15.06 0 0 1 7.72 8.88l.43 1.34c.14.42.25.86.34 1.32a16.84 16.84 0 0 1-1.26 10.32 14.87 14.87 0 0 1-2.02 3.49c-.34.42-.71.81-1.06 1.26-.44.57-1.21 1.16-1.8 1.73a.04.04 0 0 0 0 .05ZM19.4 32.4a13.48 13.48 0 0 1-1.16-3.72 9.7 9.7 0 0 1 .09-3.09c.07-.43 0-.89.13-1.3a.21.21 0 0 0 0-.14.44.44 0 0 1 .01-.27c.18-.46.42-1.12.8-1.76.52-.9 1.06-1.7 1.61-2.38a11.55 11.55 0 0 1 3.78-2.98 11 11 0 0 1 1.93-.72 24.02 24.02 0 0 0 .97-.27l-.01-.01c-.53.1-1.1.1-1.56.23-1.07.3-1.98.57-2.8 1.14a13.2 13.2 0 0 0-3.35 3.5 9.58 9.58 0 0 0-1.4 3.2.75.75 0 0 0-.03.25c.01.1 0 .19-.01.25-.15.46-.14.93-.22 1.36a9 9 0 0 0-.06 3.04c.22 1.33.66 2.54 1.28 3.67Zm18.49-9.47.04-.02a.02.02 0 0 0 0-.02v-.01a9.9 9.9 0 0 1-.64-.91 11.36 11.36 0 0 0-7.85-4.8c-1-.15-2.06.13-3.03.38.67-.09 1.14-.09 1.44-.1a10.6 10.6 0 0 1 7.47 2.65c.2.17.56.5 1.1 1.03.56.54.97 1.17 1.43 1.8h.04Zm-12.21 21.2c-1.95-.07-3.6-.28-5.22-.94a19.55 19.55 0 0 1-3.83-2.13c-.76-.6-1.4-1.08-1.98-1.68a19.44 19.44 0 0 1-3.83-5.59c-.02-.03-.04-.04-.08-.02l-.03.02c-.04.02-.05.06-.04.1a20.09 20.09 0 0 0 2.83 4.74 18.15 18.15 0 0 0 6.1 4.68c1.07.53 2.41.94 4.04 1.25.55.1 1.19.17 1.9.17.9.02 1.54 0 1.93-.03a16.3 16.3 0 0 0 7.33-2.76 15.27 15.27 0 0 0 2.97-2.83c.18-.22.34-.45.48-.69a25.83 25.83 0 0 0 2.67-6.07c.49-1.66.46-3.5.18-5.2-.12-.69-.29-1.2-.52-1.99a10.6 10.6 0 0 0-2.16-4 11.78 11.78 0 0 0-7.04-4.02c0 .02 0 .03.02.04 1.54.5 2.96 1.3 4.26 2.34a12.5 12.5 0 0 1 3.14 3.88 12.47 12.47 0 0 1 1.59 5.84c.02.84 0 1.4-.03 1.65a15.03 15.03 0 0 1-2.67 6.95 15.04 15.04 0 0 1-9.41 6.04c-.5.1-1.12.14-1.48.2a6.6 6.6 0 0 1-1.12.06Zm2.74-24.53c-1.57-.04-3.33 1-4.47 2.1a7.65 7.65 0 0 0-2.23 4.3 1 1 0 0 0 0 .34c0 .05.02.05.03 0 .25-.87.44-1.47.57-1.8a7.62 7.62 0 0 1 3.9-4.17 7.67 7.67 0 0 1 2.2-.77Zm-1.2 14.7h.02c-.4-.13-.79-.16-1.17-.34-.4-.2-.9-.37-1.35-.67a7.47 7.47 0 0 1-3-8.43c.5-1.5 1.3-2.74 2.43-3.73.45-.4.99-.76 1.58-1.14-.17 0-.34 0-.52.09-.43.2-.87.45-1.34.76-.49.31-.86.63-1.12.94a8.17 8.17 0 0 0-1.47 3 7.93 7.93 0 0 0 2.85 8.37 7.9 7.9 0 0 0 2.4 1.14c.24.07.47.07.7.01Zm4.63-12.19c.27.05.63.2 1.06.5a7.44 7.44 0 0 1 3.21 4.45 7.49 7.49 0 0 1 .17 1.2l.03.03c.02 0 .03 0 .03-.02a8.09 8.09 0 0 0-.85-3.5 8.06 8.06 0 0 0-2.37-2.76 6.36 6.36 0 0 0-6.19-.93c-.23.08-.58.23-1.05.45-.05.03-.05.05 0 .07a.3.3 0 0 0 .2-.01c.79-.28 1.58-.39 2.36-.33.75.05 1.42.26 2.47.53l.43.17c.21.08.38.14.5.15Zm-1.83 14.05.03.02h.01a6.64 6.64 0 0 0 2.17-.97c.5-.33.92-.72 1.25-1.16a8.1 8.1 0 0 0 1.54-3.9 7.42 7.42 0 0 0-.19-3.12 8.37 8.37 0 0 0-1.9-3.39 3.4 3.4 0 0 0-.52-.46c-.53-.36-.85-.73-1.45-.98-.83-.34-1.37-.62-2.12-.61-.02 0-.03.01-.04.03l-.01.06c-.01.03 0 .04.03.04l.32.03a7.3 7.3 0 0 1 5.17 4.9c.37 1.14.5 2.18.38 3.1a8.78 8.78 0 0 1-1.76 4.14c-.37.5-.85.86-1.45 1.4-.32.3-.8.57-1.46.82-.02.01-.02.03 0 .05Zm3.87-9.35c.07.16.05.32.08.47.02.1.03.1.04 0v-.31a6.7 6.7 0 0 0-3.14-4.22 5.39 5.39 0 0 0-2.23-.74c-1.84-.2-3.42.3-4.75 1.5-.24.2-.4.4-.5.6a9.18 9.18 0 0 0-.84 2.66l.03.03a6.4 6.4 0 0 1 1.87-3.1 5.47 5.47 0 0 1 5.5-1.05c.5.2.82.34.96.43a6.62 6.62 0 0 1 2.55 2.79l.43.94Zm.91 5.62a.5.5 0 0 0 .07-.16l.06-.16c.4-.99.66-1.83.75-2.52a7.04 7.04 0 0 0-3.88-7.36c-.17-.09-.2-.06-.06.09.38.4.87.67 1.25 1.06a8.32 8.32 0 0 1 2.22 4.28c.3 1.58.05 3.2-.52 4.68-.1.27-.06.3.11.09Zm-1.84-3.16c.32-1.3.1-2.67-.6-3.83a5.3 5.3 0 0 0-5.17-2.5 5.05 5.05 0 0 0-3.35 1.94 5.05 5.05 0 0 0-.23 5.6 5.3 5.3 0 0 0 5.17 2.5 5.05 5.05 0 0 0 3.34-1.94c.4-.52.69-1.12.84-1.77Zm-8.57 4.44c.02-.01.02-.02 0-.03a8.49 8.49 0 0 1-1.52-1.23 9.6 9.6 0 0 1-1.8-3.1 8.3 8.3 0 0 1 .23-5.43c.16-.4.13-.42-.09-.05-.14.25-.27.55-.39.9a8.44 8.44 0 0 0-.14 4.86c.02.08.2.48.52 1.2.18.38.41.61.63.94a5.95 5.95 0 0 0 2.5 1.98l.06-.04Zm-4.5-8.3c-.15.4-.27.87-.3 1.07-.11 1.1.01 2.25.38 3.46a8.07 8.07 0 0 0 2.61 3.8c.74.61 1.61 1.06 2.63 1.34 1.48.41 2.84.14 4.28-.34.04-.02.04-.03 0-.05a.4.4 0 0 0-.23-.04 6 6 0 0 1-2.88-.07c-.44-.12-1.11-.33-2.02-.62a5.72 5.72 0 0 1-1.82-1 7.33 7.33 0 0 1-2.77-6.7c.07-.36.09-.58.12-.86Zm17.55.1-.04.02v.03c.3.88.45 1.73.46 2.54a6069.3 6069.3 0 0 0 .01 1.55h.04c.02 0 .03 0 .03-.02a9.06 9.06 0 0 0-.5-4.13ZM22.1 28.9h-.02v.03c.12.72.32 1.3.59 1.78a6.51 6.51 0 0 0 3.61 3.03 5.5 5.5 0 0 0 2.3.3c1.46-.13 3.24-.78 4-2.18a6.84 6.84 0 0 0 .73-2.21c-.02 0-.03 0-.03.02-1.1 3.56-4.81 4.9-7.98 3.34a6.76 6.76 0 0 1-2.9-3.37l-.3-.74Zm5.52 7.43c-.63.07-.62.12 0 .14 1.55.06 3.3-1.04 4.43-2.1a7.56 7.56 0 0 0 2.24-4.24.98.98 0 0 0 0-.34c0-.05-.02-.05-.03 0a20.5 20.5 0 0 1-.58 1.77 7.53 7.53 0 0 1-3.87 4.1 7.3 7.3 0 0 1-2.2.67ZM29.35 40h-.02l-.01.01v.03h.02c.47-.06.91-.12 1.36-.27.86-.3 1.7-.66 2.5-1.08a12.58 12.58 0 0 0 4.59-6.73.42.42 0 0 0 0-.17c0-.06-.02-.06-.04 0-.4 1.01-.68 1.65-.83 1.92-.32.57-.88 1.38-1.68 2.44a8.5 8.5 0 0 1-1.32 1.4c-.49.41-.82.67-.97.78a12.6 12.6 0 0 1-3.6 1.67Zm.33-1.5c.23-.05.22-.07-.01-.05-.23.02-.42 0-.72.05a9.96 9.96 0 0 1-4.6-.45 13.33 13.33 0 0 1-4.4-2.77c-.2-.18-.55-.58-1.06-1.2-.2-.25-.26-.37-.38-.6 0-.03-.02-.03-.03-.02v.02c.13.35.24.58.32.7a11.6 11.6 0 0 0 4.2 3.61c1.22.56 2.37.93 3.44 1.09a7.8 7.8 0 0 0 3.24-.37Zm-6.06 2.53c-.28-.05-.6-.2-.95-.2-.18 0-.18.04-.02.1.41.17.81.29 1.2.35 1.75.26 3.47.2 5.17-.17a22.57 22.57 0 0 0 2.7-1.1v-.05c0-.02 0-.03-.02-.02-.26.14-.57.28-.94.4l-1.6.63c-.13.06-.28.09-.45.1a18.41 18.41 0 0 1-3.3.2c-.25-.01-.85-.09-1.79-.24Z" fill="#F8BF54"/></svg>