<!-- by TradeStack --><svg viewBox="0 0 56 56" xmlns="http://www.w3.org/2000/svg"><path fill="#F0F3FA" d="M0 0h56v56H0z"/><path d="M41.03 28.76c-1.77.76-2.86-.33-4.23-1.7-1.1-1.08-2.45-2.43-4.35-2.43-1 0-2.14.37-3.48 1.34a.23.23 0 0 1-.35-.14c-.29-3.06 1.29-3.48 3.48-4.07 1.96-.53 4.37-1.19 4.55-4.48v-.05l.01-.34v-.07l.01-.04a.2.2 0 0 1 .23-.13c.03 0 .05.02.08.04l.13.1a14.58 14.58 0 0 1 5.25 9.7c.1.97-.43 1.88-1.33 2.27Zm-4.69 11.02c-.78.47-1.75.43-2.48-.1-1.54-1.17-1.15-2.65-.65-4.53.6-2.27 1.43-5.37-2.97-7.32a.23.23 0 0 1-.12-.15.23.23 0 0 1 .08-.23v-.01c2.5-1.76 3.65-.61 5.26.99 1.46 1.45 3.26 3.25 6.29 1.63l.26-.14.04-.02c.05-.01.1 0 .15.02a.19.19 0 0 1 .09.2 14.43 14.43 0 0 1-5.95 9.66ZM14.97 27.24c.4-.18.76-.25 1.1-.25 1.18 0 2.07.89 3.13 1.95 1.66 1.65 3.94 3.92 7.83 1.09a.23.23 0 0 1 .35.14c.29 3.06-1.29 3.48-3.48 4.07-1.96.53-4.37 1.19-4.55 4.48v.05l-.01.34v.07l-.01.04a.19.19 0 0 1-.3.1 14.57 14.57 0 0 1-5.4-9.8c-.1-.98.44-1.9 1.34-2.28Zm20.2-10.15c-.22 1.91-1.7 2.32-3.58 2.82-2.27.61-5.36 1.45-4.86 6.23a.23.23 0 0 1-.3.24c-2.8-1.28-2.37-2.86-1.79-5.05.54-2.05 1.22-4.59-1.96-6.4l-.02-.02a.25.25 0 0 1-.04-.03.19.19 0 0 1 .02-.28 14.3 14.3 0 0 1 11.23.2c.89.4 1.42 1.32 1.3 2.3Zm-21.4 8.47a14.45 14.45 0 0 1 5.9-9.34 2.23 2.23 0 0 1 2.47.1c1.54 1.16 1.15 2.65.65 4.53-.6 2.27-1.43 5.37 2.97 7.32.03.02.1.06.12.14.02.1 0 .19-.08.24l-.02.02c-2.48 1.75-3.63.6-5.24-1-1.05-1.04-2.28-2.27-4.02-2.27a4.8 4.8 0 0 0-2.27.64l-.26.14a.18.18 0 0 1-.04.02c-.05.01-.1 0-.15-.02a.19.19 0 0 1-.09-.2l.06-.32Zm19.6 15.83a14.29 14.29 0 0 1-11.24-.2 2.23 2.23 0 0 1-1.3-2.28c.22-1.92 1.7-2.32 3.59-2.82 2.26-.61 5.35-1.45 4.85-6.24 0-.04 0-.11.06-.17.05-.05.1-.07.16-.07a.2.2 0 0 1 .08.01c2.8 1.28 2.37 2.86 1.79 5.05-.52 1.96-1.16 4.37 1.57 6.17l.1.06.25.15.07.04.03.03c.07.07.07.2 0 .27 0 0-.01 0 0 0Zm9.42-21.74a16.87 16.87 0 0 0-10.24-8.02 16.88 16.88 0 0 0-12.9 1.58 16.88 16.88 0 0 0-8.02 10.24 16.88 16.88 0 0 0 1.58 12.9A16.88 16.88 0 0 0 28 45c2.9 0 5.75-.75 8.34-2.2a16.88 16.88 0 0 0 8.02-10.25c1.22-4.36.66-8.95-1.58-12.9Z" fill="#ED1C2F"/></svg>