<!-- by TradeStack --><svg viewBox="0 0 56 56" xmlns="http://www.w3.org/2000/svg"><path fill="url(#a)" d="M0 0h56v56H0z"/><path d="M41 28.12v2.76c0 .62.24 1.12 1 1.12h3v-1h-2.43c-.32 0-.57-.2-.57-.46v-2.08c0-.25.25-.46.57-.46H45v-1h-3c-.76 0-1 .5-1 1.12ZM31 24h1v3h2v1h-2v2.5c0 .28.25.5.57.5H34v1h-1.62c-.76 0-1.38-.54-1.38-1.2V24Z" fill="#fff"/><path fill-rule="evenodd" d="M35 28.12v2.76c0 .62.59 1.12 1.3 1.12H40v-1h-3.46c-.3 0-.54-.2-.54-.46V30h4v-1.88c0-.62-.59-1.12-1.3-1.12h-2.4c-.71 0-1.3.5-1.3 1.12Zm4 .88v-.54c0-.25-.24-.46-.54-.46h-1.92c-.3 0-.54.2-.54.46V29h3Z" fill="#fff"/><path d="M47 24h-1v8h1v-3.5c0-.28.25-.5.56-.5h1.88c.31 0 .56.22.56.5V32h1v-3.8c0-.66-.6-1.2-1.35-1.2h-2.33c-.11 0-.22.01-.32.03V24ZM24.5 27H24v5h.5v-3.64c0-.48.4-.86.89-.86h1.11V27h-1.11c-.34 0-.65.11-.89.3V27ZM12 27h4.67c.73 0 1.33.59 1.33 1.32V32h-.5v-3.64a.86.86 0 0 0-.87-.86H15V32h-.5v-4.5h-2V32H12v-5ZM5 25.4c0-.77.64-1.4 1.44-1.4H11v.5H6.44c-.52 0-.94.4-.94.9v1.44l5.5 1.97v1.79c0 .77-.64 1.4-1.44 1.4H5v-.5h4.57c.51 0 .93-.4.93-.91v-1.46l-5.5-2V25.4ZM27 30.58c0 .79.66 1.42 1.55 1.42H30v-.5h-1.45c-.58 0-1.05-.41-1.05-.92V27.5H30V27h-2.5v-3H27v6.58Z" fill="#fff"/><path fill-rule="evenodd" d="M23 28.32c0-.73-.6-1.32-1.33-1.32h-2.2v.5h2.16c.48 0 .87.34.87.82V29h-1.93c-.87 0-1.57.67-1.57 1.5s.7 1.5 1.57 1.5H23v-3.68Zm-.5 1.18h-1.9c-.6 0-1.1.42-1.1 1 0 .58.5 1 1.1 1h1.9v-2Z" fill="#fff"/><defs><linearGradient id="a" x1="56" y1="28" x2="0" y2="28" gradientUnits="userSpaceOnUse"><stop stop-color="#1F37AD"/><stop offset="1" stop-color="#1C309B"/></linearGradient></defs></svg>