<!-- by TradeStack --><svg viewBox="0 0 56 56" xmlns="http://www.w3.org/2000/svg"><path fill="#F0F3FA" d="M0 0h56v56H0z"/><path d="M52 23.45a3.16 3.16 0 0 1-.65 1.73 9.44 9.44 0 0 1-3.18 2.91c-1.06.6-2.3.98-3.47.9-.87-.06-1.8-.45-2.25-1.16-.52-.8-.53-1.74-.33-2.7.14-.73.36-1.44.67-2.13.51-1.17 1.06-2.3 1.81-3.33.44-.6 1.1-1.23 1.76-1.49.9-.35 1.8-.16 2.58.28a6.07 6.07 0 0 1 2.4 2.42c.4.76.7 1.7.66 2.57Zm-9.13 1.22c-.2.97-.24 1.98.21 2.76.83 1.41 2.86 1.31 4.27.64a8.17 8.17 0 0 0 3.7-3.52c.32-.58.42-1.2.3-1.87a4.27 4.27 0 0 0-.56-1.5 5.63 5.63 0 0 0-2.35-2.17c-.4-.2-.81-.32-1.23-.36-1.17-.08-2.06.75-2.66 1.75a13.85 13.85 0 0 0-1.68 4.27Z" fill="#00418E"/><path d="M50.8 24.73c.35.22.65.48.88.8.23.33.31.67.32 1.09.01.89-.2 1.73-.64 2.52-.36.66-.9 1.25-1.6 1.6-.5.25-1.2.36-1.73.15a2.4 2.4 0 0 1-1.26-1.26c-.2-.42-.36-.85-.47-1.3l-.2-.94c-.07-.43-.1-.88-.1-1.34.01-.45.13-.99.4-1.33.36-.48.95-.68 1.57-.71a5.05 5.05 0 0 1 2.83.72Zm-3.78 4.42c.27.55.65 1.08 1.21 1.33 1.03.44 2.13-.28 2.66-1.08.6-.9.83-1.9.69-3-.05-.4-.24-.75-.58-1.05a3.14 3.14 0 0 0-.91-.57c-.7-.3-1.43-.4-2.19-.33-.3.03-.59.1-.83.23-.7.34-.87 1.05-.8 1.75.07.91.34 1.9.75 2.72Z" fill="#B69913"/><path d="M40 32.8v-4.38c0-.65-.14-.98-.56-.98-1.2 0-1.44 1.8-1.44 2.68l-.22-1.89h.26c.29-.7 1-1.23 1.78-1.23.8 0 1.18.61 1.18 1.42v4.39h-1Zm-7 .2v-.32h2.76V33H33Zm1-.2v-5.6h1v5.6h-1Zm2.13.2v-.32h2.77V33h-2.77ZM33 27.32V27h2v.32h-2Zm4 5.49v-4.4c0-.64-.2-.97-.66-.97-1.1 0-1.34 1.94-1.34 2.68l-.22-1.89h.32c.29-.7.87-1.23 1.66-1.23.8 0 1.24.61 1.24 1.42v4.39h-1Zm2.24.19v-.32H42V33h-2.76ZM28.28 33c-.8 0-1.28-.6-1.28-1.42V27.2h1v4.36c0 .64.28.97.66.97 1.06 0 1.34-1.87 1.34-2.64l.22 1.95h-.26c-.32.67-.9 1.17-1.68 1.17ZM30 33v-.32h2V33h-2Zm-4-5.68V27h2v.32h-2Zm4 5.47v-5.6h1v5.6h-1Zm-1-5.47V27h2v.32h-2ZM23.72 33C22.15 33 21 31.82 21 30s1.11-3 2.72-3c1.36 0 2.28 1.17 2.28 2.46v.07h-4v-.31h3c0-.95-.08-1.88-1.28-1.88S22 29.2 22 30c0 .96.4 2.62 1.72 2.62.97 0 1.63-.76 1.95-1.62H26c-.28 1.05-1.14 2-2.28 2ZM17 33v-.32h1v-5.36h-1V27h2v1.18c.2-.53.63-1.18 1.27-1.18.45 0 .73.33.73.92 0 .38-.2.78-.63.78a.5.5 0 0 1-.53-.52c0-.12.07-.26 0-.37-.02-.04-.06-.06-.13-.06-.1 0-.2.1-.31.28-.22.34-.4.96-.4 1.7v2.95h1V33h-3Z" fill="#00418E"/><path d="M13.5 33c-.83 0-1.5-.53-1.5-1.42 0-1.64 1.78-1.9 3-1.9V28.1c0-.44-.29-.7-.9-.7-.5 0-1.1.18-1.1.45 0 .2.27.32.27.54 0 .4-.22.61-.57.61-.42 0-.7-.28-.7-.65 0-.25.13-.48.34-.68.41-.42 1.15-.67 2.03-.67.79 0 1.63.28 1.63 1.3v3.85c0 .09.03.16.08.22.06.05.13.07.2.07.16 0 .36-.16.66-.5l.18.21c-.4.57-.85.85-1.35.85-.6 0-.63-.34-.77-.94-.37.62-.8.94-1.5.94Zm.48-.7c.72 0 1.02-.64 1.02-1.3v-1c-1.29 0-2 .44-2 1.34 0 .62.45.96.98.96ZM7.84 32.6c-1.8 0-2.4-1.37-2.49-2.19a.18.18 0 0 0-.18-.16c-.1 0-.18.09-.17.19A2.8 2.8 0 0 0 7.84 33C8.9 33 11 32.41 11 29.81s-3.21-3.13-3.67-3.23c-.46-.1-1.72-.5-1.72-1.57 0-1.08 1.36-1.67 2.18-1.67.65 0 1 .32 1.14.48a.6.6 0 0 0-.3.54c0 .4.3.64.6.64.31 0 .77-.15.77-.64S9.06 23 7.79 23C6.5 23 5 23.83 5 25.65A2.5 2.5 0 0 0 6.4 28c.5.16 1.67.56 2.4.83.92.35 1.49.54 1.49 1.72 0 1.81-1.69 2.06-2.45 2.06Z" fill="#00418E"/></svg>