<!-- by TradeStack --><svg viewBox="0 0 56 56" xmlns="http://www.w3.org/2000/svg"><path fill="#F0F3FA" d="M0 0h56v56H0z"/><path fill-rule="evenodd" d="M13 17.6a4.6 4.6 0 0 1 4.6-4.6h20.8a4.6 4.6 0 0 1 4.6 4.6v21.04l-5.74-5.74a3.08 3.08 0 1 0-4.36 4.36L38.64 43l-.23.01H17.59A4.6 4.6 0 0 1 13 38.4V17.6Zm20.68.31a3.11 3.11 0 0 1 4.4 4.4l-4.76 4.78a3.11 3.11 0 0 1-4.4-4.4l4.76-4.78Zm-16.77-1a3.11 3.11 0 0 1 4.4 0l4.78 4.77a3.11 3.11 0 0 1-4.4 4.4l-4.78-4.76a3.11 3.11 0 0 1 0-4.4Zm5.77 12a3.11 3.11 0 0 1 4.4 4.4l-4.76 4.78a3.11 3.11 0 0 1-4.4-4.4l4.76-4.78Z" fill="#009890"/></svg>