<!-- by TradeStack --><svg viewBox="0 0 56 56" xmlns="http://www.w3.org/2000/svg"><path fill="#F0F3FA" d="M0 0h56v56H0z"/><path d="M38.5 28H36c.57.19 1.7.7 1.94 2.57.25 1.87 1.14 2.43 2.47 2.43 2.1 0 2.59-1.9 2.59-2.87 0-.78-.4-1.06-.6-1.13.6 1.3.11 2-.74 2-.84 0-1.09-.65-1.57-1.77-.4-.9-1.1-1.2-1.59-1.23ZM22.58 13.28 22 15.5c-2-2.5-2.74-3.12-4-3.12-1.26 0-2.5.9-2.5 2.19 0 1.28.83 2.26 1.8 2.26.95 0 2.3-.83 3.57-.83 1.8 0 2.13 1.13 2.13 1.92C23 19.9 20.9 22 17.79 22A7.8 7.8 0 0 1 13 20.53l.54-2.53c.76 2.04 2.18 3.62 4.25 3.62s2.71-1.5 2.71-2.71S19.92 17 19 17s-2.4.66-3.82.66c-1.41 0-2.18-.83-2.18-1.89 0-2.56 2.91-3.77 5.29-3.77 1.9 0 3.65.86 4.29 1.28ZM22.58 35.28 22 37.5c-2-2.5-2.74-3.12-4-3.12-1.26 0-2.5.9-2.5 2.19 0 1.28.83 2.26 1.8 2.26.95 0 2.3-.83 3.57-.83 1.8 0 2.13 1.13 2.13 1.92C23 41.9 20.9 44 17.79 44A7.8 7.8 0 0 1 13 42.53l.54-2.53c.76 2.04 2.18 3.62 4.25 3.62s2.71-1.5 2.71-2.71S19.97 39 19.05 39c-.92 0-2.45.66-3.87.66-1.41 0-2.18-.83-2.18-1.89 0-2.56 2.91-3.77 5.29-3.77 1.9 0 3.65.86 4.29 1.28ZM37 22h-4c.7-.48 1.01-1.13 1-1.4V12l7 6.34v-5.06c0-.54-1.04-1.08-1.85-1.28H43c-.67 0-.96.86-1 1.28V22l-7-6.38v4.98c0 .7 1.13 1.22 2 1.4ZM37 44h-4c.7-.48 1.01-1.13 1-1.4V34l7 6.34v-5.06c0-.54-1.04-1.08-1.85-1.28H43c-.67 0-.96.86-1 1.28V44l-7-6.38v4.98c0 .7 1.13 1.22 2 1.4Z" fill="#36322F"/><path fill-rule="evenodd" d="M28 44a5 5 0 1 0 0-10 5 5 0 0 0 0 10Zm1.83-1.12c1.31-.53 1.56-2.7.55-4.84-1-2.14-2.9-3.45-4.2-2.92-1.32.53-1.57 2.7-.56 4.84 1 2.14 2.9 3.45 4.2 2.92ZM28.74 12h-4.38a3.35 3.35 0 0 1 2.47 2.18v.02l.8 1.8h-1.66c-.32.01-1.05.2-1.37.86L22 22h3.09l.68-2h3.52c.22.57.36.97.36 1.08 0 .42-.33.8-.5.92H33l-4.26-10Zm.15 7c-.35-.88-.8-1.91-1.2-2.87a5.71 5.71 0 0 0-1.23 1.88l-.34.99h2.77Z" fill="#36322F"/><path d="M38.72 33h-5.39c.41-.19.62-.62.67-.81v-8.1c0-.66-.6-1-1-1.09h3.5v8.19c0 .98 1.52 1.62 2.22 1.81Z" fill="#36322F"/><path fill-rule="evenodd" d="M12.33 33h5.39c2.81 0 5.28-2.05 5.28-5.6S19.99 23 18.07 23c-1.35 0-2.22.55-2.57.93V23H12c.4.09 1 .43 1 1.08v8.1c-.05.2-.26.63-.67.82Zm3.17-6.45v4.48c0 1.15 1.33 1.47 2.22 1.47.86 0 2.78-.43 2.78-5.1 0-2.47-1.02-3.9-2.43-3.9-1.41 0-2.45 1.08-2.57 3.05Z" fill="#36322F"/><path d="M40.8 23c-3.22 0-4.42 2.9-4.6 4.36L36 28h.58v-.3c.04-2.28 1.46-3.37 2.27-3.37.8 0 1.15.68 1.15 1.4 0 1.33-.97 2.07-1.54 2.27 3.27-.34 4.54-1.97 4.54-3.22 0-1.25-1-1.78-2.2-1.78Z" fill="#36322F"/><path fill-rule="evenodd" d="M31.74 26c-.04-.8-.76-3-3.4-3-3.28 0-5.23 2.5-5.23 5.32 0 2.8 1.95 4.68 4.9 4.68 2.96 0 4.99-2.17 4.99-5.24 0-.4-.08-.77-.15-1.07l-.03-.19h-.37c.06.21.18.76.18.96 0 .6-.4 3.54-3.65 3.54s-4.47-2-4.47-4.02c0-.2 0-.98.49-.98h6.74ZM25 25h5c-.19-.33-.94-1-2.46-1-1.51 0-2.32.67-2.54 1Z" fill="#36322F"/></svg>