<!-- by TradeStack --><svg viewBox="0 0 56 56" xmlns="http://www.w3.org/2000/svg"><path fill="#F0F3FA" d="M0 0h56v56H0z"/><path fill-rule="evenodd" d="M28 43c11.05 0 20-6.72 20-15 0-8.28-8.95-15-20-15S8 19.72 8 28c0 8.28 8.95 15 20 15Zm0-1c9.39 0 17-6.27 17-14s-7.61-14-17-14-17 6.27-17 14 7.61 14 17 14Z" fill="url(#a)"/><path fill-rule="evenodd" d="M28 42c9.94 0 18-6.27 18-14s-8.06-14-18-14-18 6.27-18 14 8.06 14 18 14Zm0-1c9.39 0 17-5.82 17-13s-7.61-13-17-13-17 5.82-17 13 7.61 13 17 13Z" fill="url(#b)"/><path d="M14.07 33.83c-.43-.58-.8-1.2-1.09-1.83 1.45.42 4.54 1.13 7.29 1.13 2.61 0 5.14-.82 7.73-.83 2.63 0 5.2.83 7.85.83a29 29 0 0 0 7.15-1.1c-.3.64-.66 1.25-1.1 1.83-1.51.36-4.19.82-6.05.82-2.22 0-2.78-.1-4.09-.35A18.73 18.73 0 0 0 28 34c-1.43 0-2.42.1-3.64.33-1.32.24-1.87.35-4.1.35-1.91 0-4.7-.5-6.2-.85ZM17.91 37.3a14.52 14.52 0 0 1-2.49-1.93c1.46.3 3.21.54 4.85.54 2.62 0 5.15-.9 7.73-.91 2.63 0 5.19.91 7.85.91 1.58 0 3.27-.23 4.7-.5-.73.7-1.57 1.34-2.5 1.9-.77.1-1.54.15-2.2.15-2.22 0-2.78-.1-4.09-.35l-.18-.03c-1.15-.21-2.2-.4-3.58-.4-1.3 0-2.2.17-3.27.36l-.37.07c-1.32.25-1.87.35-4.1.35-.7 0-1.52-.06-2.35-.16ZM35 38.69A18.81 18.81 0 0 1 28 40c-2.61 0-4.82-.47-7-1.31 2.45-.07 4.57-.68 7-.69 2.44 0 4.55.6 7 .69Z" fill="#0A448E"/><path d="M18 19h-3v.62h1V23h1v-3.38h1V19ZM30 19h-3v.62h1V23h1v-3.38h1V19ZM37 20.29V23h-1v-4h1l2 2.69V19h1v4h-1l-2-2.71ZM24 19h2v.62h-2V21h1.66v.62H24V23h-1v-4h1ZM20 19h-1v2.8c0 .66.46 1.2 1.04 1.2h.92c.58 0 1.04-.54 1.04-1.2V19h-.46v2.44c0 .54-.38.98-.85.98-.46 0-.69-.44-.69-.98V19Z" fill="#3A434C"/><path fill-rule="evenodd" d="M32.7 19c-.94 0-1.7.72-1.7 1.6v.8c0 .88.76 1.6 1.7 1.6h.6c.94 0 1.7-.72 1.7-1.6v-.8c0-.88-.76-1.6-1.7-1.6h-.6Zm.3.58c-.5 0-1 .39-1 .86v1.12c0 .47.5.86 1 .86s1-.39 1-.86v-1.12c0-.47-.5-.86-1-.86Z" fill="#3A434C"/><path d="M39.61 26H40l-.95 3.55-.05.34c0 .07.03.11.09.11s.28-.14.43-.44l.2.18c-.14.33-.32.62-.54.89-.2.25-.4.37-.58.37-.4 0-.6-.21-.6-.64 0-.16.02-.37.07-.62l.56-2.09c.08-.4.12-.66.12-.76 0-.19-.1-.28-.29-.28h-.16v-.32L39.6 26ZM39.86 24.14a.48.48 0 0 0-.35-.14.5.5 0 0 0-.36.85.5.5 0 0 0 .85-.35.48.48 0 0 0-.14-.36ZM34.14 27h.5l-.43 1.31c.7-.88 1.35-1.31 1.94-1.31.53 0 .85.21.85.64 0 .16-.02.32-.07.48-.04.14-.2.5-.41 1.1-.2.56-.3.86-.3.89 0 .06.03.1.08.1.06 0 .11-.03.18-.1a.98.98 0 0 0 .17-.18l.1-.13.25.15c-.2.28-.38.5-.55.66a1.3 1.3 0 0 1-.96.39c-.48 0-.74-.2-.74-.54 0-.21.1-.42.17-.62l.26-.77c.21-.62.32-1 .32-1.14 0-.08-.04-.11-.12-.11-.17 0-.46.27-.9.82a5.5 5.5 0 0 0-.87 1.43l-.29.93H32l.86-2.6c.13-.38.19-.61.19-.69 0-.15-.13-.23-.38-.23l-.22.01v-.26l1.69-.23ZM30.69 27H32l-.9 2.72c-.06.2-.1.34-.1.4 0 .08.04.12.11.12.08 0 .23-.13.45-.4l.24.14c-.46.68-.97 1.02-1.53 1.02-.4 0-.6-.17-.6-.5 0-.16.04-.34.12-.53l-.02-.02c-.44.7-1.01 1.05-1.7 1.05-.55 0-1.07-.38-1.07-.97 0-.45.14-.9.43-1.38.53-.85 1.48-1.65 2.52-1.65.34 0 .55.12.64.36h.02l.08-.36Zm-.27.8c0-.3-.15-.47-.44-.47-.88 0-1.47 1.7-1.47 2.37 0 .22.1.33.29.33.88 0 1.62-1.43 1.62-2.23ZM26.3 29.78l.17.2A2.64 2.64 0 0 1 24.53 31c-1 0-1.53-.48-1.53-1.29 0-1.48 1.35-2.71 2.8-2.71.41 0 .7.07.9.2.2.13.3.3.3.51 0 .44-.26.81-.77 1.11-.52.3-1.13.48-1.84.55l-.01.26c0 .53.16.74.62.74.52 0 .91-.28 1.3-.6Zm-1.87-.82c.5-.13.88-.32 1.15-.58.26-.26.42-.51.42-.75 0-.22-.1-.33-.29-.33-.22 0-.5.17-.75.51-.27.35-.44.73-.53 1.15ZM22.37 29.78l.2.17c-.58.7-1.23 1.05-1.95 1.05-.8 0-1.62-.48-1.62-1.37 0-1.45 1.47-2.63 2.86-2.63.53 0 1.14.24 1.14.85 0 .37-.32.7-.69.7-.28 0-.49-.17-.49-.41 0-.15.08-.3.23-.44.16-.14.24-.22.24-.25 0-.09-.12-.13-.37-.13-1.01 0-1.5 1.25-1.5 2.1 0 .54.27.86.68.86.5 0 .89-.2 1.27-.5ZM43.37 29.78l.2.17c-.58.7-1.23 1.05-1.95 1.05-.8 0-1.62-.48-1.62-1.37 0-1.45 1.47-2.63 2.86-2.63.53 0 1.14.24 1.14.85 0 .37-.32.7-.69.7-.28 0-.49-.17-.49-.41 0-.15.08-.3.23-.44.16-.14.24-.22.24-.25 0-.09-.12-.13-.37-.13-1.01 0-1.5 1.25-1.5 2.1 0 .54.27.86.68.86.5 0 .89-.2 1.27-.5ZM16.4 24c1.43 0 2.6 1.03 2.6 2.49A4.43 4.43 0 0 1 14.58 31 2.5 2.5 0 0 1 12 28.46 4.55 4.55 0 0 1 16.4 24Zm-.05.46c-1.88 0-2.35 3.08-2.35 4.5 0 1.04.11 1.58.71 1.58 1.9 0 2.29-3.09 2.29-4.57 0-1-.04-1.51-.65-1.51Z" fill="#0A448E"/><defs><linearGradient id="a" x1="32.03" y1="13" x2="26.77" y2="32.91" gradientUnits="userSpaceOnUse"><stop stop-color="#D8D8D8"/><stop offset="1" stop-color="#7A7A7A"/></linearGradient><linearGradient id="b" x1="31.7" y1="13.77" x2="22.02" y2="40.56" gradientUnits="userSpaceOnUse"><stop stop-color="#7A7A7A"/><stop offset="1" stop-color="#D8D8D8"/></linearGradient></defs></svg>