<!-- by TradeStack --><svg viewBox="0 0 56 56" xmlns="http://www.w3.org/2000/svg"><path fill="#F0F3FA" d="M0 0h56v56H0z"/><path d="M23.6 43.08 12.91 32.41a6.6 6.6 0 0 1 0-9.31L23.1 12.92a6.6 6.6 0 0 1 9.3 0l10.68 10.67a6.6 6.6 0 0 1 0 9.31L32.9 43.08a6.6 6.6 0 0 1-9.3 0Zm-10-11.36L24.28 42.4a5.56 5.56 0 0 0 3.97 1.6c1.44 0 2.88-.51 3.97-1.6L42.4 32.22a5.56 5.56 0 0 0 1.6-3.97c0-1.44-.51-2.88-1.6-3.97L31.72 13.6a5.56 5.56 0 0 0-3.97-1.6c-1.44 0-2.88.51-3.97 1.6L13.6 23.78a5.56 5.56 0 0 0-1.6 3.97c0 1.44.51 2.88 1.6 3.97Z" fill="#2B2B2A"/><path d="M26.71 41.45 20 34.73c.1-.11.68.3 1.54.27.9-.03 2.12-.51 3.47-1.86l8.1-8.12a3.5 3.5 0 0 1 4.95 0l2.3 2.3c.86.86.86 2.28 0 3.14L29.37 41.45c-.73.73-1.93.73-2.67 0Z" fill="#E4121D"/><path d="M29.29 14.55 36 21.27c-.1.1-.63-.28-1.44-.27-.91 0-2.17.46-3.57 1.86l-8.1 8.12a3.5 3.5 0 0 1-4.95 0l-2.3-2.3a2.23 2.23 0 0 1 0-3.14l10.98-10.99a1.89 1.89 0 0 1 2.67 0Z" fill="#17449F"/></svg>