<!-- by TradeStack --><svg viewBox="0 0 56 56" xmlns="http://www.w3.org/2000/svg"><path fill="#F0F3FA" d="M0 0h56v56H0z"/><path d="M39.31 16.69A16 16 0 1 0 16.7 39.3l4.24-4.24a10 10 0 0 1 14.14-14.14l4.24-4.24Z" fill="url(#aetdeczsw)"/><path d="M39.31 16.69A16 16 0 1 1 16.7 39.3l4.24-4.24a10 10 0 0 0 14.14-14.14l4.24-4.24Z" fill="url(#betdeczsw)"/><path d="M35.07 20.93a10 10 0 1 0-14.14 14.14l14.14-14.14Z" fill="url(#cetdeczsw)"/><path d="M35.07 20.93a10 10 0 1 1-14.14 14.14l14.14-14.14Z" fill="url(#detdeczsw)"/><defs><linearGradient id="aetdeczsw" x1="39.31" y1="16.69" x2="13.5" y2="36.13" gradientUnits="userSpaceOnUse"><stop stop-color="#CB474F"/><stop offset=".52" stop-color="#FE7C1D"/><stop offset="1" stop-color="#FA8125" stop-opacity=".17"/></linearGradient><linearGradient id="betdeczsw" x1="42.85" y1="23.05" x2="22.34" y2="44.97" gradientUnits="userSpaceOnUse"><stop stop-color="#6BBEDD"/><stop offset=".5" stop-color="#4851F0"/><stop offset="1" stop-color="#4D59E2" stop-opacity=".19"/></linearGradient><linearGradient id="cetdeczsw" x1="28.35" y1="27.65" x2="20.93" y2="20.22" gradientUnits="userSpaceOnUse"><stop stop-color="#43A84A"/><stop offset=".88" stop-color="#EBB74B"/></linearGradient><linearGradient id="detdeczsw" x1="37.19" y1="25.88" x2="24.46" y2="38.61" gradientUnits="userSpaceOnUse"><stop stop-color="#358CA8"/><stop offset=".47" stop-color="#0D9B69"/><stop offset="1" stop-color="#10AB51"/></linearGradient></defs></svg>