<!-- by TradeStack --><svg viewBox="0 0 56 56" xmlns="http://www.w3.org/2000/svg"><path fill="#F0F3FA" d="M0 0h56v56H0z"/><path d="M22.64 12 50 28 22.64 44V12Z" fill="url(#adba40m5l)"/><path d="M10.96 26c-.38 0-.96.34-.96 1.06s.55.94.96.94h7.08c1.58 0 2.96 1.1 2.96 2.94A2.95 2.95 0 0 1 18.04 34H8v-2h10.04c.38 0 .96-.4.96-1.06 0-.67-.55-.94-.96-.94h-7.08A2.83 2.83 0 0 1 8 27.06 2.95 2.95 0 0 1 10.96 24H21v2H10.96Z" fill="url(#bdba40m5l)"/><path d="M22.64 44s-.84-6.12-.84-16c0-9.88.84-16 .84-16v32Z" fill="url(#cdba40m5l)"/><path d="M22.64 12s5.59 2.3 14.04 7.26A134.16 134.16 0 0 1 50 28L22.64 12Z" fill="url(#ddba40m5l)"/><path d="M22.64 44s5.65-2.3 14.1-7.23C45.2 31.85 50 28 50 28L22.64 44Z" fill="url(#edba40m5l)"/><path d="M42.81 24c-2.53 4.5-5.52 9.1-5.52 9.1-.6.91-1.36 1.33-1.93 1.33-.6 0-1.27-.39-1.97-1.33-1.17-1.54-2.53-4.44-4.2-7.1H26v5.02c0 .3.5.98.81.98H30v2h-3.5c-1.2 0-2.5-1.5-2.5-2.68V26h-1v-2h1v-3h2v3h4.66l4.73 8 4.8-8h2.62Z" fill="#F0F3FA"/><defs><linearGradient id="adba40m5l" x1="29" y1="12" x2="29" y2="44" gradientUnits="userSpaceOnUse"><stop stop-color="#0084FF"/><stop offset=".33" stop-color="#0086FF"/><stop offset=".51" stop-color="#0F2ECE"/><stop offset=".56" stop-color="#111FC6"/><stop offset=".77" stop-color="#111FC6"/><stop offset="1" stop-color="#0063E0"/></linearGradient><linearGradient id="bdba40m5l" x1="28.36" y1="12.72" x2="28.36" y2="43.04" gradientUnits="userSpaceOnUse"><stop offset=".33" stop-color="#0086FF"/><stop offset=".51" stop-color="#0F2ECE"/><stop offset=".56" stop-color="#111FC6"/><stop offset=".77" stop-color="#111FC6"/></linearGradient><linearGradient id="cdba40m5l" x1="21.83" y1="28.33" x2="22.64" y2="28.32" gradientUnits="userSpaceOnUse"><stop stop-color="#00CDFF" stop-opacity="0"/><stop offset="1" stop-color="#00CDFF"/></linearGradient><linearGradient id="ddba40m5l" x1="36.42" y1="19.15" x2="36.03" y2="19.82" gradientUnits="userSpaceOnUse"><stop stop-color="#00CDFF" stop-opacity="0"/><stop offset="1" stop-color="#00CDFF"/></linearGradient><linearGradient id="edba40m5l" x1="36.44" y1="36.89" x2="35.93" y2="36.01" gradientUnits="userSpaceOnUse"><stop stop-color="#00CDFF" stop-opacity="0"/><stop offset="1" stop-color="#00CDFF"/></linearGradient></defs></svg>