<!-- by TradeStack --><svg viewBox="0 0 56 56" xmlns="http://www.w3.org/2000/svg"><path fill="#F0F3FA" d="M0 0h56v56H0z"/><path d="m40.93 36.33-3.42 6.01c-.27.38-.66.62-1.15.66l-6.94.1a1.66 1.66 0 0 1-1.22-.66l-3.53-5.87c-.2-.41-.2-.93-.03-1.35l1.53-2.73c.1.04.18.04.25.04l3.52-.04c.7.07.98-.27 1.22-.69l1.78-3.07c.07-.1.1-.18.1-.28l3.11-.04c.5.04.95.28 1.19.66l3.53 5.91c.27.42.27.93.06 1.35Zm-18.14-1-6.95.13a1.66 1.66 0 0 1-1.22-.65l-3.56-5.88c-.1-.24-.17-.45-.17-.69 0-.24.03-.45.14-.65l3.35-6.05c.27-.42.7-.66 1.18-.7l6.95-.13h.03c.5.03.91.27 1.19.65l.03.07 1.68 2.7a.62.62 0 0 0-.18.24l-1.81 3.04c-.31.38-.31.94 0 1.35l1.81 3.11c.07.07.1.14.18.2l-1.5 2.6c-.28.35-.7.59-1.15.66Zm1.67-15.76 3.42-5.98c.28-.38.7-.66 1.19-.7l6.94-.03c.25 0 .46.07.67.21.2.1.38.28.52.45l3.53 5.91c.2.41.2.93.03 1.38l-3.42 5.98c-.28.42-.7.66-1.19.7l-3.07.03-.1-.25-1.78-3.07c-.28-.49-.63-.7-1.22-.66l-3.56.04c-.1 0-.18.03-.25.03l-1.67-2.7c-.21-.4-.25-.93-.04-1.34Zm2.17 12.02h-.18a.65.65 0 0 1-.42-.24l-.07-.14-.14-.24-1.6-2.73-.04-.03c-.1-.18-.1-.21 0-.38l1.5-2.63.21-.38.07-.14c.1-.14.25-.24.42-.24h.46l3.14-.03h.1c.14-.04.28.07.35.2l1.6 2.7.14.24.07.14c.07.17.07.34 0 .48l-.07.14-.13.28-1.54 2.7c-.17.27-.17.27-.38.23h-.04l-3.07.04-.38.03Zm15.07 2.94-3.52-5.9a2.21 2.21 0 0 0-.7-.7c.24-.17.49-.41.63-.66l3.42-5.97c.35-.7.35-1.56-.04-2.25L38 13.11c-.2-.32-.49-.6-.83-.8a2.1 2.1 0 0 0-1.12-.31l-6.95.07c-.8.03-1.53.45-1.95 1.14l-3.46 5.98c-.14.27-.24.55-.24.9a2.4 2.4 0 0 0-.98-.25l-6.94.14a2.5 2.5 0 0 0-1.96 1.18l-3.31 6.01c-.35.7-.35 1.52.03 2.21l3.56 5.88a2.55 2.55 0 0 0 1.96 1.1h.03l6.95-.14a4 4 0 0 0 .87-.2c.03.34.1.69.28 1l3.56 5.87A2.55 2.55 0 0 0 29.45 44h.04l6.94-.1c.8-.04 1.5-.45 1.92-1.14l3.42-5.98c.32-.73.32-1.56-.07-2.25Z" fill="#00A4B8"/></svg>