<!-- by TradeStack --><svg viewBox="0 0 56 56" xmlns="http://www.w3.org/2000/svg"><path fill="#013660" d="M0 0h56v56H0z"/><path d="M42 28.5c0 4.23-3.27 7.5-7.5 7.5-.84 0-1.64.68-1.8 1.5l-.08.4c-.2 1.04.47 2.06 1.53 2.1h.35a11.5 11.5 0 1 0-11.44-10.36c.1 1.06.94 1.36 2.2 1.38 1.24-.02 1.76-1.34 1.74-2.4v-.12c0-4.23 3.27-7.5 7.5-7.5s7.5 3.27 7.5 7.5Z" fill="#FAFFFF"/><path d="M14 28.5c0-4.23 3.27-7.5 7.5-7.5.84 0 1.64-.68 1.8-1.5l.08-.4c.2-1.04-.47-2.06-1.53-2.1h-.35a11.5 11.5 0 1 0 11.44 10.36c-.1-1.06-.94-1.36-2.2-1.38-1.24.02-1.76 1.34-1.74 2.4v.12c0 4.23-3.27 7.5-7.5 7.5a7.39 7.39 0 0 1-7.5-7.5Z" fill="#FAFFFF"/></svg>