<!-- by TradeStack --><svg viewBox="0 0 56 56" xmlns="http://www.w3.org/2000/svg"><path fill="#F0F3FA" d="M0 0h56v56H0z"/><path d="M4 24.5V23h6v1.5H8V33H6v-8.5H4ZM12 26h-2v7h2v-4c0-.8 1.33-1.33 2-1.5V26c-1.2 0-1.83.67-2 1v-1ZM50 26h-2v7h2v-4c0-.8 1.33-1.33 2-1.5V26c-1.2 0-1.83.67-2 1v-1ZM25.5 28l-1-1.5c.5-.17 1.6-.5 2-.5 2.4 0 3 1.33 3 2v4.5c-.5.17-1.5.5-2.5.5s-3-.5-3-2.5c0-1.6 2-2 3-2v1c-.33.17-1 .6-1 1 0 1 .5 1 1.5 1V28c0-.17-.2-.5-1-.5s-1 .33-1 .5ZM15.5 28l-1-1.5c.5-.17 1.6-.5 2-.5 2.4 0 3 1.33 3 2v4.5c-.5.17-1.5.5-2.5.5s-3-.5-3-2.5c0-1.6 2-2 3-2v1c-.33.17-1 .6-1 1 0 1 .5 1 1.5 1V28c0-.17-.2-.5-1-.5s-1 .33-1 .5ZM43 28l-1-1.5c.5-.17 1.6-.5 2-.5 2.4 0 3 1.33 3 2v4.5c-.5.17-1.5.5-2.5.5s-3-.5-3-2.5c0-1.6 2-2 3-2v1c-.33.17-1 .6-1 1 0 1 .5 1 1.5 1V28c0-.17-.2-.5-1-.5s-1 .33-1 .5ZM32 23h-2v7c0 2.5 1 3 2 3 .75 0 1.33-.33 1.5-.5V31c-1 0-1.5 0-1.5-1v-7Z" fill="#343463"/><path d="M35.5 19c-7.5 0-18.5 3.5-23 5.5 5.33-1 11-3.5 22.5-3.5 5.5 0 8.33.5 9.5 1l.5-.5c.5-2 .01-2.5-9.5-2.5Z" fill="#BE1E2D"/><path d="M36.99 35c-1.11 0-2.99-.23-2.99-1.71 0-.74.53-1.26 1.54-1.47-.36-.14-.73-.48-.73-.9 0-.52.48-.82.9-1.04a1.85 1.85 0 0 1-1.19-1.77c0-1.57 1.5-2.11 2.85-2.11.4 0 .82.03 1.2.12H41v.85l-1.09.25c.2.27.3.58.3.93 0 1.58-1.6 2.1-2.94 2.1l-.62-.05c-.2.14-.3.28-.3.45 0 .16.16.26.46.32.16.03.36.04.59.04h1.18c1.53 0 2.34.6 2.34 1.72 0 1.95-2.46 2.27-3.93 2.27Zm.38-1c.58 0 1.63-.11 1.63-1 0-.65-.72-.64-1.16-.64h-.98c-.48 0-.86.04-.86.64 0 .47.48 1 1.37 1Zm0-4.78c.71 0 1.03-.41 1.03-1.08 0-.75-.34-1.12-1.03-1.12s-1.04.37-1.04 1.12c0 .67.34 1.08 1.04 1.08ZM20 27v-1h1v-1c0-1.5 1-2 2-2 .8 0 1.33.33 1.5.5l-.5 1c-1 0-1 .5-1 1.5h1v1h-1v6h-2v-6h-1Z" fill="#343463"/></svg>