<!-- by TradeStack --><svg viewBox="0 0 56 56" xmlns="http://www.w3.org/2000/svg"><path fill="#F0F3FA" d="M0 0h56v56H0z"/><path d="M27.92 45.96c-2-2.59-4.9-3.83-7.74-5.12a8.59 8.59 0 0 1-2.03-1.15 6.54 6.54 0 0 1-2.12-3.54c-.47-2-.64-3.62-.5-4.87.24-2.21.4-3.55.47-4.02.39-2.4.82-4.19.55-6.28a18.8 18.8 0 0 0-1.45-5.19c-.1-.23-.12-.39-.08-.47.22-.47.82-.83 1.26-1 .22-.1.55-.04 1.01.15 3.55 1.52 7.16 1.56 10.52-.41a.41.41 0 0 1 .42 0c.7.4 1.4.79 2.19 1.02 3.1.92 6.1.59 8.98-1a.42.42 0 0 1 .5.08l1.06 1.1c.04.04.05.09.03.15a27.92 27.92 0 0 0-1.57 5.98c-.08.78-.03 1.75.14 2.9.72 4.7 1.91 9.66-.3 13.72a6.7 6.7 0 0 1-1.68 1.9c-.31.26-1.05.64-2.2 1.14-2.6 1.13-5.33 2.5-7.3 4.91a.1.1 0 0 1-.09.04.1.1 0 0 1-.04-.01.1.1 0 0 1-.03-.03Z"/><path d="m25.75 25.19.06-.02c.1-.01.14-.06.15-.14.01-.11-.02-.17-.1-.15l-.14-.08c.05-.12.13-.23.23-.34a.2.2 0 0 0 .03-.24c-.05-.12-.16-.17-.33-.17-.1 0-.15-.04-.17-.15l-.01-.1c0-.05 0-.1.03-.13a.16.16 0 0 1 .1-.06l.7-.12c.1-.01.16-.07.2-.16.06-.16.05-.43-.03-.78-.02-.11.02-.18.13-.2.6-.08.9-.36.91-.83 0-.13.06-.19.18-.19.18 0 .42-.06.71-.2.63-.27 1.32-2.24 1.55-2.91l.01-.01.08.02c.03 0 .04.03.03.06l-.77 3.35c-.01.06 0 .13.02.18.03.06.08.1.14.13.66.3 1.28.44 1.58 1.13a.39.39 0 0 1-.12.45.34.34 0 0 1-.14.07l-1.82.3c-.1.02-.15.08-.16.19 0 .34.1.56.31.66.4.21.72.44.94.67.08.08.14.07.2-.03.21-.4.53-.73.94-.97a.27.27 0 0 1 .34.05c.82.9 1.56 1.18 1.5 2.58 0 .1-.06.16-.15.16-.07 0-.1 0-.13-.02a.54.54 0 0 1-.27-.41 2.44 2.44 0 0 0-.84-1.63.37.37 0 0 0-.36-.08.38.38 0 0 0-.16.1.41.41 0 0 0-.1.17c-.14.46-.03 1.07-.17 1.5-.06.18-.1.27-.13.3-.52.32-.46.54.16.63l.91.14c.1.01.19.06.25.13.07.08.1.17.1.27l-.01 2.87c0 .13-.11.18-.32.17-.03 0-.09-.04-.17-.12a.46.46 0 0 1-.16-.48l.4-1.74a.44.44 0 0 0-.08-.37.4.4 0 0 0-.15-.12.38.38 0 0 0-.18-.03l-1.12.09a.56.56 0 0 0-.3.12.6.6 0 0 0-.2.28 6.26 6.26 0 0 1-1.93 2.87.88.88 0 0 0-.3.64c-.02.48-.05.83-.27 1.26-.23.45-.4.9-.5 1.38 0 .06 0 .13.02.19.03.06.07.11.12.15l2.15 1.46a.29.29 0 0 1 .12.19.31.31 0 0 1-.04.22l-.05.07a.2.2 0 0 1-.13.1.2.2 0 0 1-.15-.04l-2.9-1.98c-.08-.05-.1-.12-.07-.22l.11-.31c.16-.43.07-.51-.28-.24-.31.24-.74.57-.62 1.08.18.73.6 1.26 1.26 1.61.25.14.37.37.36.7 0 .09-.05.14-.15.14h-.41c-.1 0-.16-.05-.2-.14-.22-.47-.67-.7-.84-1.14-.16-.4-.4-.87-.7-1.4a.38.38 0 0 1-.05-.28c.15-.72 1.02-1.22.33-2.13-.09-.1-.14-.1-.17.04-.03.1-.03.2-.02.31.01.1 0 .19-.02.28-.42 1.39-.51 2.64-1.95 2.7-.24 0-.27-.07-.1-.21.09-.08.1-.2 0-.38a.31.31 0 0 0-.07-.1.3.3 0 0 0-.12-.07l-.11-.03c-.17-.04-.17-.09 0-.14l.63-.2.06-.05a.17.17 0 0 0 .04-.07l.29-1.26c.03-.12 0-.22-.11-.29l-.34-.23a.16.16 0 0 1-.06-.08.17.17 0 0 1 .05-.18.15.15 0 0 1 .1-.04c.24 0 .44-.03.59-.1.09-.03.15-.09.19-.18.06-.14.04-.28-.06-.44-.06-.1-.04-.16.06-.21l.49-.23c.08-.04.15-.1.2-.18l2.07-3.39c.05-.08.09-.16.1-.24.03-.07.03-.13.02-.17-.01-.02-.04-.04-.1-.03a.26.26 0 0 0-.19.09c-.17.2-.29.3-.35.33-.36.15-.42.07-.16-.24.03-.04.07-.14.12-.3a.23.23 0 0 0-.13-.28c-.07-.04-.14-.02-.19.05-.2.27-.45.47-.77.6-.05.03-.07.01-.06-.05l.04-.16a.1.1 0 0 1 .05-.08c.31-.18.56-.42.74-.71.05-.08.05-.16.01-.23l-.2-.42a.27.27 0 0 0-.05-.07c-.16-.14-.28-.1-.35.12-.05.13-.1.19-.16.19a.15.15 0 0 1-.08-.03c-.06-.04-.06-.1-.02-.15.09-.13.23-.26.42-.38.3-.18.64-.04.95-.4a.18.18 0 0 0 0-.24.16.16 0 0 0-.08-.03l-.1-.03c-.1-.02-.14-.09-.13-.2 0-.06.02-.13.05-.18Z" fill="#FFED00"/><path d="M29.28 22.56c.04.05.04.14 0 .26a.1.1 0 0 1-.02.05.1.1 0 0 1-.16-.02c-.05-.1-.04-.2.04-.3.05-.05.1-.05.14 0Z" fill="#B6A700"/></svg>