<!-- by TradeStack --><svg viewBox="0 0 56 56" xmlns="http://www.w3.org/2000/svg"><path fill="#F0F3FA" d="M0 0h56v56H0z"/><path d="M27 30.5 24 33c-.83-.5-3-3.09-3-9.5C21 19 23 13 28 10c5 3 6.83 10.33 7 13.5-.8-.8-3-1.33-4-1.5 0-1-1.5-4.5-3-6-1.5 1.5-3 4.84-3 7.5 0 2.4 1.33 5.67 2 7Z" fill="#04AEEC"/><path d="M26.9 28.25 26 24.5c.83-.51 4.16-1.27 9.97 1.58 4.07 2 8.6 6.42 9.03 12.17-5 3.08-13.56.52-16.5-.74 1.5-.5 2.5-2 3-3 .9.44 6.03 1.73 8.07 1.07-.68-1.99-3.02-4.8-5.42-5.97-2.18-1.07-5.74-1.34-7.25-1.35Z" fill="#FEAE31"/><path d="M29.45 29.07 33 30.65c-.06 1.02-1.35 4.26-6.98 7.34-3.95 2.15-10.12 3.17-15.02-.03.37-6.07 5.97-11.29 8.68-12.96-.34 1.13.19 3.42.5 4.43-.89.48-3.28 3.55-3.91 5.66 2 .67 5.6.46 7.94-.81 2.1-1.15 4.37-3.96 5.24-5.21Z" fill="#81BC43"/></svg>