<!-- by TradeStack --><svg viewBox="0 0 56 56" xmlns="http://www.w3.org/2000/svg"><path fill="#E10A0A" d="M0 0h56v56H0z"/><path d="m13.11 27.12.75-2.19c.13-.36.53-.96.94-.96.53 0 .7.45.8.84l.59 3.29c.3 1.66.63 3.6.87 4.87.62-4.13 2.55-13.58 5.3-18.35.24-.42 1.18-.95 1.96-.34.73.58.11 1.7-.33 2.15a15.2 15.2 0 0 0-2 3.62l-.38 1c-.94 2.53-2.74 7.38-3.75 17.13-.03.31-.24.96-.8 1.04-.57.08-.75-.66-.77-1.04l-1.6-9.6c-.04-.24-.2-.67-.41-.37-.23.3-.77 1.64-1.02 2.42-.24.56-.7.63-1 .47-.3-.17-.3-.63-.21-.88l1.06-3.1Zm21.7-4.25c.07-.52-.17-.87-.47-.83-1 .15-1.3 1.06-1.32 1.5l-.16 3.34c0 .61.02 1.61.53 1.43.64-.23.83-.5.95-1.08 0-1.13.24-2.76.38-3.73l.1-.63Zm-12.46 5.7c.06-.52-.17-.88-.48-.83-.99.14-1.3 1.06-1.32 1.5l-.16 3.34c0 .6.02 1.6.53 1.42.64-.23.84-.49.95-1.07 0-1.14.25-2.77.39-3.73l.09-.64Zm-.42-3.9c-.62.5-.59 1-.4 1.2.25.2.53.08 1.07-.34.48-.39.5-.75.4-.94-.1-.18-.46-.4-1.07.09Zm11.9-3.77c-.19-.2-.22-.7.4-1.18.61-.49.97-.26 1.07-.1.1.2.08.57-.4.95-.54.43-.82.54-1.07.33Zm-9.15 5.54a1.7 1.7 0 0 0-1.17 1.52c-.05.94-.14 3-.14 3.7 0 .7.32.8.49.78.84-.26 1.24-.87 1.24-1.29v-1.88c0-1.06.31-1.6.89-1.83.46-.19.63-.56.68-.81.15-.7-.34-.75-.61-.69l-1.38.5Zm5.11-1.9c-.13-.17-.54-.41-1.19 0-.8.5-1.57 1.84-1.54 3.91.03 2.08.72 2.49 1.29 2.51.56.03 1.49-.46 1.7-.67v.67c-2.48 1.8-7.99 5.96-10.22 8.24-.41.36-1.07 1.21-.4 1.75.69.53 1.46-.1 1.76-.49 1.63-1.74 5.68-5.71 8.85-7.7l-.25 8.19c-.02.4.17 1.17 1.14 1.04.97-.14.85-1.26.78-1.89-.16-1.3-.42-4.8-.24-8.29 2.22-1.55 7.56-4.92 11.17-5.97.68-.2 1.63-.9 1.29-1.7-.35-.81-2.08.07-2.9.6-.23.03-.64-.7-.43-3.77 0-.42-.18-1.25-.92-1.2-.74.05-1.52.82-1.81 1.2-.45-.06-1.42-.09-1.68.22-.27.31-.33.82-.33 1.04l-.23 3.9c0 .3.36.88 1.05.26.65-.6.64-1.18.63-1.59v-.06c-.03-.97.13-2.97.95-3.1.82-.12.87.53.8.88-.15 1.06-.3 3.15.22 2.97-2.26 1.25-6.95 3.92-7.57 4.61-.08-1.08-.15-3.72.2-5.56.06-.39-.09-1.02-.67-.99-.66.03-.98.79-.92 1.2.03.2.03 4.7-1.15 4.58-.95-.1-.62-2.53 0-3.26.46-.55.8-1.06.62-1.53Z" fill="#fff"/></svg>