<!-- by TradeStack --><svg viewBox="0 0 56 56" xmlns="http://www.w3.org/2000/svg"><path fill="#F0F3FA" d="M0 0h56v56H0z"/><path fill-rule="evenodd" d="M26.07 30.33c-2.35.66-3.97 1.52-5.07 2.48-4.46-1.44-8.08-5.22-8.98-10.96-.07-.46 0-.97.2-1.25a.6.6 0 0 1 .37-.24c.21-.05.57-.07 1.16.1.7.2 2.03.9 3.68 2.03a45.34 45.34 0 0 1 5.2 4.18 34.88 34.88 0 0 1 3.44 3.66Zm.16 2.04a14 14 0 0 0-2.54 1.01c.8.1 1.63.11 2.45.06.02-.37.05-.73.1-1.07Zm-.1 3.07c-1.53.09-3.04-.05-4.5-.39-.5.7-.62 1.38-.62 1.95 0 .37.3 1.13 1.05 1.83A4.3 4.3 0 0 0 25 40c.77 0 1.38-.13 1.88-.33a16.98 16.98 0 0 1-.75-4.23Zm2.4 2.77-.03-.13a15.1 15.1 0 0 1-.38-2.87l.65-.13c.14.5.22.98.22 1.42 0 .45-.13 1.1-.46 1.7Zm-.81 3.28c-.76.32-1.66.51-2.72.51a6.29 6.29 0 0 1-4.3-1.7c-1-.93-1.69-2.17-1.69-3.3 0-.76.15-1.65.64-2.55-4.78-1.82-8.62-6.04-9.6-12.3-.1-.7-.08-1.84.56-2.73a2.6 2.6 0 0 1 1.5-1 4.22 4.22 0 0 1 2.19.12c1.04.3 2.58 1.16 4.25 2.3A47.33 47.33 0 0 1 24 25.2c1.1 1.01 2.15 2.1 3.1 3.22.75-2.79 1.87-6.17 3.3-9.11.91-1.92 1.99-3.7 3.2-5.03C34.8 13 36.26 12 37.96 12c.9 0 2.05.45 2.9 1.61.83 1.16 1.3 2.92 1.09 5.47-.36 4.33-2.22 9.24-6.15 12.56.35.3.67.65.94 1.05A7.33 7.33 0 0 1 37.96 37c0 1.13-.27 2.82-1.14 4.26A5.4 5.4 0 0 1 31.98 44a4.7 4.7 0 0 1-3.7-1.73c-.2-.25-.39-.5-.56-.78Zm6.42-8.62c.38.27.7.6.97.97.5.72.86 1.73.86 3.16a6.7 6.7 0 0 1-.86 3.24c-.6 1-1.55 1.76-3.13 1.76-.92 0-1.62-.38-2.18-1.03-.15-.18-.29-.38-.42-.6a5.7 5.7 0 0 0 1.6-3.87c0-.65-.1-1.3-.29-1.96 1.27-.44 2.42-1 3.45-1.67Zm-2.37-.95a10.1 10.1 0 0 0-2.29-.16c.18.3.34.6.49.91.63-.22 1.23-.47 1.8-.75Zm2.24-1.4c3.79-2.91 5.6-7.46 5.95-11.6.19-2.25-.25-3.49-.72-4.13-.47-.64-1.02-.79-1.28-.79-.9 0-1.86.52-2.9 1.65a19 19 0 0 0-2.88 4.53 53.66 53.66 0 0 0-3.38 9.62 11.2 11.2 0 0 1 5.21.72Z" fill="url(#a)"/><defs><linearGradient id="a" x1="11.5" y1="20.5" x2="35.99" y2="42.44" gradientUnits="userSpaceOnUse"><stop stop-color="#FCEDDD"/><stop offset="1" stop-color="#F2972A"/></linearGradient></defs></svg>