<!-- by TradeStack --><svg viewBox="0 0 56 56" xmlns="http://www.w3.org/2000/svg"><path fill="#F0F3FA" d="M0 0h56v56H0z"/><path d="M49.17 30.95a3.01 3.01 0 0 1-.17-1.16V28a.23.23 0 0 0-.03-.12.14.14 0 0 0-.08-.05c-.77-.23-1.73-.62-2.43-.06a.52.52 0 0 0-.1.61c.14.26.38.33.72.2a.15.15 0 0 0 .01-.28.6.6 0 0 0-.1-.05c-.23-.03-.25-.1-.08-.23.64-.47 1.64.39.77.93-.51.32-1.36.31-1.69-.27-.29-.51-.04-1.1.43-1.4.43-.26.92-.4 1.5-.4 1.01-.03 2 .71 3.04.4.2-.06.23-.01.1.15-.12.13-.3.27-.56.42a.24.24 0 0 0-.12.22V30c-.01.38.14.68.44.9a.3.3 0 0 1 0 .48c-.18.12-.4.21-.65.27-.7.17-1.3.28-1.83.32a5.1 5.1 0 0 1-4.72-2.04c-.28-.4-.47-.84-.55-1.33-.58-3.23 2.71-4.92 5.44-4.32.45.1 1.48.46 2.25.43.19-.01.36-.09.5-.24.46-.46.39-1.18-.06-1.63-.35-.35-1.21-.57-1.63-.12a.31.31 0 0 0 0 .41c.13.15.31.2.56.13a.08.08 0 0 1 .07.03.08.08 0 0 1 .02.08l-.02.05a.3.3 0 0 1-.18.17c-1.31.49-2.05-1.16-.7-1.51.6-.16 1.17-.1 1.71.17.88.45 1.25 1.45.73 2.3-.42.7-1.46.91-2.22.82-.23-.03-.59-.11-1.09-.25-1.51-.4-2.95.02-3.72 1.43-.16.29-.25.66-.26 1.13-.02.91.27 1.68.89 2.31.97 1 2.22 1.35 3.77 1.03.05 0 .06-.04.04-.08ZM26.21 28.41a.04.04 0 0 0 .03.04.05.05 0 0 0 .04 0l3.7-2.4a.34.34 0 0 1 .18-.05h1.25c.08 0 .09.02.02.07l-4.18 2.71-.02.02v.03a.05.05 0 0 0 .02.04l4.88 3.02c.12.07.11.11-.04.11h-1.23c-.2 0-.4-.06-.56-.16a902.73 902.73 0 0 0-4.07-2.56l-.01.02v2.65c0 .03-.03.05-.06.05h-1.1c-.04 0-.06-.02-.06-.06v-5.9l.01-.03.03-.01h1.13c.03 0 .04.01.04.04v2.37ZM11.39 30.48a1044.36 1044.36 0 0 1 1.69-4.45c0-.02.01-.03.03-.03h1.02v.03l-2.28 5.85a.17.17 0 0 1-.06.08.18.18 0 0 1-.1.03H11c-.06 0-.1-.03-.12-.09l-1.67-4.38c-.04-.08-.07-.08-.1 0l-1.82 4.35a.16.16 0 0 1-.13.1c-.25.04-.48.04-.7 0a.11.11 0 0 1-.09-.07L4 26.03v-.01a.02.02 0 0 1 .01-.02h1.15a.05.05 0 0 1 .05.03l1.67 4.38c.04.1.08.1.12 0l1.69-4.33c.02-.05.06-.08.12-.08h.77c.05 0 .09.02.1.07l1.68 4.4h.03ZM16.16 26h-1.1a.05.05 0 0 0-.06.05v5.9c0 .03.02.05.06.05h1.1c.04 0 .06-.02.06-.05v-5.9a.05.05 0 0 0-.06-.05ZM18.08 27.22c-.05-.05-.08-.04-.08.03v4.66c0 .05-.02.07-.06.07h-.87c-.05 0-.07-.02-.07-.07v-5.84c0-.05.02-.07.07-.07h.91a.2.2 0 0 1 .13.05 82.24 82.24 0 0 1 4.87 4.53.03.03 0 0 0 .02-.03v-4.5c0-.03.02-.05.05-.05h.91c.03 0 .04.01.04.04v5.86c0 .04-.02.07-.07.08-.39.05-.65.03-.98-.25-1.54-1.36-3.35-2.93-4.87-4.5ZM36.07 27.22c-.04-.05-.07-.04-.07.03v4.66c0 .05-.02.07-.07.07h-.86c-.05 0-.07-.02-.07-.07v-5.84c0-.05.02-.07.07-.07h.9a.2.2 0 0 1 .13.05 82.27 82.27 0 0 1 4.88 4.53H41v-4.53c0-.03.02-.05.05-.05h.91c.03 0 .04.01.04.04v5.86c0 .04-.02.07-.07.08-.39.05-.65.03-.98-.25-1.55-1.36-3.35-2.93-4.88-4.5ZM34.16 26h-1.1a.05.05 0 0 0-.06.05v5.9c0 .03.02.05.05.05h1.11c.03 0 .06-.02.06-.05v-5.9a.05.05 0 0 0-.06-.05Z" fill="#910037"/></svg>