<!-- by TradeStack --><svg viewBox="0 0 56 56" xmlns="http://www.w3.org/2000/svg"><path fill="#F0F3FA" d="M0 0h56v56H0z"/><path d="M28 22c-2.8 0-9.17.33-12 .5 2.33.17 8 .5 12 .5s11-.33 14-.5c-3.5-.17-11.2-.5-14-.5ZM28 24c-2.8 0-9.17.33-12 .5 2.33.17 8 .5 12 .5s11-.33 14-.5c-3.5-.17-11.2-.5-14-.5ZM28 26c-2.8 0-9.17.33-12 .5 2.33.17 8 .5 12 .5s11-.33 14-.5c-3.5-.17-11.2-.5-14-.5Z" fill="#8098BF"/><path d="M49.98 31a.56.56 0 0 1-.24-.05.48.48 0 0 1-.17-.14.32.32 0 0 1-.07-.2v-.15h.46v.16l.04.01h1.52l.02-.03v-.38c0-.01 0-.02-.02-.03h-1.54a.56.56 0 0 1-.24-.06.48.48 0 0 1-.17-.14.32.32 0 0 1-.07-.2v-.4a.3.3 0 0 1 .07-.2c.04-.05.1-.1.17-.14a.56.56 0 0 1 .24-.05h1.54c.09 0 .17.02.24.05.07.04.13.09.17.14a.3.3 0 0 1 .07.2v.15h-.46v-.14l-.02-.02-.02-.01H50l-.03.01-.01.02V29.81h1.56c.09 0 .17.02.24.06.07.03.13.08.17.14.05.06.07.12.07.2v.4c0 .07-.02.14-.07.2-.04.06-.1.1-.17.14a.54.54 0 0 1-.24.05h-1.54ZM46.48 31a.56.56 0 0 1-.24-.05.48.48 0 0 1-.17-.14.32.32 0 0 1-.07-.2V29.4a.3.3 0 0 1 .07-.2c.04-.05.1-.1.17-.14a.56.56 0 0 1 .24-.05h2.02v.37h-1.92c-.04 0-.07 0-.09.02a.09.09 0 0 0-.03.08v1.06c0 .03.01.06.03.08l.1.02h1.91V31h-2.02ZM45 31v-2h.43v2H45ZM41.5 31v-2h.55l1.49 1.46V29H44v2h-.5L42 29.54V31h-.5ZM38.48 31a.56.56 0 0 1-.24-.05.48.48 0 0 1-.17-.14.32.32 0 0 1-.07-.2V29.4a.3.3 0 0 1 .07-.2c.04-.05.1-.1.17-.14a.56.56 0 0 1 .24-.05h1.54c.09 0 .17.02.24.05.07.04.13.09.17.14a.3.3 0 0 1 .07.2v1.22c0 .07-.02.14-.07.2-.04.06-.1.1-.17.14a.54.54 0 0 1-.24.05h-1.54Zm.02-.37h1.52l.02-.03v-1.2l-.02-.02-.03-.01H38.5l-.03.01-.01.02v1.22l.04.01ZM36.02 31v-1.63H35V29h2.5v.37h-1.02V31h-.46ZM31.98 31a.56.56 0 0 1-.24-.05.48.48 0 0 1-.17-.14.32.32 0 0 1-.07-.2V29.4a.3.3 0 0 1 .07-.2c.04-.05.1-.1.17-.14a.56.56 0 0 1 .24-.05h1.54c.09 0 .17.02.24.05.07.04.13.09.17.14a.3.3 0 0 1 .07.2v1.22c0 .07-.02.14-.07.2-.04.06-.1.1-.17.14a.54.54 0 0 1-.24.05h-1.54Zm.02-.37h1.52l.02-.03v-1.2l-.02-.02-.03-.01H32l-.03.01-.01.02v1.22l.04.01ZM28 31v-2h.45v.81h1.6V29h.45v2h-.45v-.81h-1.6V31H28ZM25 31v-2h1.61c.07 0 .14.02.2.05l.14.14c.03.06.05.13.05.2v.54c0 .07-.02.13-.05.2a.4.4 0 0 1-.14.13.39.39 0 0 1-.2.05h-1.24V31H25Zm.4-1h1.22l.01-.02v-.58l-.01-.02-.03-.01h-1.21l-.01.03v.6h.03ZM21.6 31l-.6-.72h.47l.52.62v.1h-.4ZM20 31v-2h1.61c.07 0 .14.02.2.05l.14.14c.03.06.05.13.05.2v.54c0 .07-.02.13-.05.2a.4.4 0 0 1-.14.13.39.39 0 0 1-.2.05h-1.24V31H20Zm.4-1h1.22l.01-.03v-.57l-.01-.02-.03-.01h-1.21l-.01.03V30l.03.01ZM16.5 31v-1.61a.3.3 0 0 1 .07-.2c.04-.05.1-.1.17-.14a.56.56 0 0 1 .24-.05h1.53c.1 0 .17.02.25.05.07.04.13.09.17.14a.3.3 0 0 1 .07.2V31h-.46v-.67h-1.58V31h-.46Zm.46-1h1.58v-.6l-.02-.02-.03-.01H17l-.03.01-.01.02v.6ZM13 31v-2h2.01c.1 0 .17.02.25.05.07.04.13.09.17.14a.3.3 0 0 1 .07.2v1.22c0 .07-.02.14-.07.2-.04.06-.1.1-.17.14A.56.56 0 0 1 15 31H13Zm.5-.37h1.52l.02-.03v-1.2l-.02-.02-.03-.01h-1.5l-.02.01-.02.02v1.2l.02.02.03.01ZM10 31v-2h.5l1.5 1.46V29h.5v2H12l-1.54-1.46V31H10ZM8.53 31v-2h.43v2h-.43ZM4.95 31 4 29h.5l.64 1.32.63-1.32h.46l.63 1.32L7.5 29H8l-.95 2h-.37L6 29.58 5.32 31h-.37Z" fill="#17465E"/></svg>