<!-- by TradeStack --><svg viewBox="0 0 56 56" xmlns="http://www.w3.org/2000/svg"><path fill="#F0F3FA" d="M0 0h56v56H0z"/><path d="M10 16h36v2H10v-2Zm0 22h36v2H10v-2Zm13.37-1h-3.11l1.57-3.4 1.54 3.4ZM29 37h-.22l-4.12-9.38 1.88-3.94c1.1-2.3 1.95-4.08 2.22-4.68H29v18Zm-8.13-18h2.28l-1.17 2.53-1.1-2.53Zm-1.72 8.68c-1.84-4.09-3.5-7.76-3.89-8.68H10v18h4.85l4.3-9.32ZM42 25.15c0-3.84-3.06-5.59-4.98-6.15H46v18H34v-5.93c5.83 0 8-3.94 8-5.92ZM34 23c1.1 0 2 .87 2 1.93v.14c0 1.06-.9 1.93-2 1.93v-4Z" fill="#201D1D"/></svg>