<!-- by TradeStack --><svg viewBox="0 0 56 56" xmlns="http://www.w3.org/2000/svg"><path fill="#F0F3FA" d="M0 0h56v56H0z"/><path d="M28.63 30.5a16.7 16.7 0 0 0-7.7 9.9h-1.2l.6-5.5 7.73-6.32c.66.18 1.7.8.57 1.91Z" fill="url(#a)"/><path d="m29.41 28.58-2.44-3.56-3.46 2.73-1.44.62c-2.92 2.17-8.64 6.85-8.16 8.15a6.42 6.42 0 0 0 2.29 2.74c.64.33 2.4.99 4.33.99.22-5.15 6.01-9.92 8.88-11.67Z" fill="url(#b)"/><path d="M24.26 27.45c-.4-.6-1.24-1.83-1.41-1.97l-7.13 4.92c.39 2.3 1.41 6.3 2.38 3.94.96-2.36 4.5-5.58 6.16-6.9Z" fill="url(#c)"/><path d="M29.2 21.82c-6.45 3.02-10.83 7.9-12.22 9.96l-3.37-.52c.05-.6.7-2.52 2.9-5.44 2.18-2.93 8.06-5.8 10.73-6.87l1.96 2.87Z" fill="url(#d)"/><path d="m29.32 18.74-1.14-1.45c-3.71 1.75-6.47 3.63-7.35 4.43l-6.74 5.14c-.68 1.62-1.51 4.73.6 4.22 3.74-7.36 11.3-11.3 14.63-12.34Z" fill="url(#e)"/><path d="m21.25 21.66-.75-1.01a472.6 472.6 0 0 0-7 6.09c-.25.28-1.06 3.97.23 3.63 1.74-3.74 5.74-7.36 7.52-8.7Z" fill="url(#f)"/><path d="m26.13 17.23-.57-.61c-2.41.98-4.84 2.76-5.75 3.53-2.32 1.87-7.1 5.83-7.7 6.74-.75 1.14.33 3.54 1.05 2.93 2.58-6.13 9.72-10.95 12.97-12.59Z" fill="#6B6B6D"/><path d="M21.07 19.35 20.14 18c-3.3.37-8.18 7.85-8.57 8.4-.4.55.63 3.88 1.17 2.7.43-2.97 5.74-7.74 8.33-9.75Z" fill="url(#g)"/><path d="M12.1 28.28c1.93-6.65 10.98-12.58 15.26-14.71-.33-.34-3.97 1.48-4.18 1.63-.21.15-4.72 2.7-7.91 5.02-3.2 2.3-3.85 5.75-4 6.4-.16.64.39 2.24.84 1.66Z" fill="#7B7C7F"/><path d="m26.34 12.22 1.8.95C14.7 18.3 11.4 26.52 11.4 27.05c0 .41.24 1.46.36 1.93-.22.1-.66-.21-.66-2.18.3-7.75 10.25-12.57 15.25-14.58Z" fill="url(#h)"/><path d="M35 13h-3.97l1.09 1.54h3.3L35.02 13ZM35.52 15h-3.97l1.08 1.54h3.3L35.53 15Z" fill="#BDBEC0"/><path d="M14.7 31.05c-1.35-.62-3-2.54-3.62-3.79-.16 1.16-.04 1.24 0 1.5l.79 1.15c.31.44 2.01.94 2.83 1.14Z" fill="#EFC822"/><path d="M17.98 39.17c-3.06-.25-4.75-3.08-5.21-4.46 1.88 1.5 3.33 2 3.82 2.06l1.39 2.4Z" fill="url(#i)"/><path d="M20.47 40.1c-2.12 0-3.79-.62-4.36-.93 1.68 2.4 3 2.4 5.17 2.4 1.74 0 3.05-.33 3.5-.5l-1.03-1.25c-.53.09-1.93.27-3.28.27Z" fill="#FDD31C"/><path d="M29.83 43.72c-.48 0-1.5-.71-1.95-1.07 3.9-1.4 7.54-3.79 8.87-4.8 2.44-3 7.52-9.34 8.25-11.48 0 4.92-.6 7.23-4.97 11.26a33.28 33.28 0 0 1-10.2 6.1Z" fill="url(#j)"/><path d="m21.74 42.8 1.68 1.2a8.96 8.96 0 0 1-4.4-2c.72.13 2.26.48 2.72.8Z" fill="#6C5D98"/><path d="M25.38 42.98h-3.46c-2.5-.3-3.51-1.39-3.7-1.9 1.73.49 4.65.55 5.9.52l1.26 1.38Z" fill="#ED1781"/><path d="m32.12 41.05-.57-.9A20.97 20.97 0 0 0 36 37.7c1.74-2 5.25-6.07 5.33-6.34.07-.27 1.9-5.73 2.8-8.43.21.65.69 2.12.8 2.83.16.9.34 3.39-3.15 7.82-2.8 3.54-7.6 6.46-9.66 7.48Z" fill="#405BA6"/><path d="m35.97 37.78-1.2-1.47c.6-.53 1.86-1.61 1.95-1.79.12-.21 4.88-6.61 5.12-6.95.24-.34 1.41-4.03 1.83-6.1.48 1.08.87 2.75.87 4.31 0 4.85-5.71 10.03-8.57 12Z" fill="#ED1781"/><path d="m35.52 35.23-.73-.92c.66-.81 2.26-2.88 3.44-4.68 1.17-1.8 3.66-7.13 4.75-9.57.32.51.96 1.85.96 3.1 0 5.65-5.61 10.4-8.42 12.07Z" fill="#FDD31C"/><path d="M36.33 34.58c-1.93 1.5-5.1 3.3-6.44 4l.48.71c1.1-.6 3.88-2.26 6.26-4.03 2.38-1.77 4.96-5.35 5.87-6.92a53.25 53.25 0 0 1-6.17 6.24Z" fill="#7EAD46"/><path d="M28.06 38.68a38.78 38.78 0 0 0-1.18-1.48l2.23-1.05c.29-.55 2.11-2.76 7.07-7.17 4.96-4.4 5.46-9.42 5.08-11.38.64.46 2.08 2.55 2.08 3.88 0 1.32-.03 3.04-2.08 6.27-3.56 5.37-10.29 9.52-13.2 10.93Z" fill="#EE2931"/><path d="M42.53 21.32c0-2.8-2.05-5-3.07-5.75 1.14 5.85-2.83 11.35-5.36 13.75-2.02 1.92-5.55 3.98-7.07 4.77l1.6 2.28c9.11-4 13.9-11.54 13.9-15.05Z" fill="url(#k)"/><path d="m33.17 30.12-1.23-1.81a15.38 15.38 0 0 0 5.08-14.53c.72.19 3.67 1.91 3.67 5.02 0 4.6-5.01 9.47-7.52 11.32Z" fill="url(#l)"/><path d="M34.67 12.37c-.36-.3-1.23-.37-1.62-.37a3.15 3.15 0 0 1 2.05 3.08c0 6.2-8.91 11.77-13.36 13.78l.33 1.17A35.31 35.31 0 0 0 27 27.48c2.36-.6 7.12-1.87 7.28-2.1a75.8 75.8 0 0 0 2.17-5.44c.06-.3.57-4.19.42-4.46a25.07 25.07 0 0 0-2.2-3.11Z" fill="#FDD31C"/><path d="m28.84 30.83-1.9-3.38c8.73-6.28 9.15-9.79 9.15-11.85a4.7 4.7 0 0 0-1.75-3.42c3.01 1.3 4.76 3.14 4.76 5.27 0 5.85-6.84 11.36-10.26 13.38Z" fill="url(#m)"/><path d="M16.8 31.2c-3.92 0-5.44-1.95-5.71-2.92 0 2.19.58 3.9.87 4.49l2.62 2.43 3.82-.15a171.8 171.8 0 0 0-1.6-3.85Z" fill="url(#n)"/><path d="M17.04 34.92c-3.2 0-4.86-1.86-5.3-2.8.55 3.39 3.1 4.86 5.84 4.86 2.2 0 3.85-.47 4.4-.7l-.81-2.03c-.72.22-2.54.67-4.13.67Z" fill="url(#o)"/><defs><linearGradient id="a" x1="27.94" y1="30.18" x2="21.11" y2="40.29" gradientUnits="userSpaceOnUse"><stop stop-color="#BDBEC0"/><stop offset="1" stop-color="#58585A"/></linearGradient><linearGradient id="b" x1="27.3" y1="25.51" x2="16.37" y2="38.56" gradientUnits="userSpaceOnUse"><stop stop-color="#BDBEC0"/><stop offset="1" stop-color="#68696B"/></linearGradient><linearGradient id="c" x1="23.09" y1="26.34" x2="17.33" y2="32.24" gradientUnits="userSpaceOnUse"><stop stop-color="#BDBEC0"/><stop offset="1" stop-color="#7F8083"/></linearGradient><linearGradient id="d" x1="27.48" y1="20.58" x2="15.11" y2="31.54" gradientUnits="userSpaceOnUse"><stop stop-color="#BDBEC0"/><stop offset="1" stop-color="#5E5F61"/></linearGradient><linearGradient id="e" x1="28.93" y1="18.28" x2="13.78" y2="29.95" gradientUnits="userSpaceOnUse"><stop stop-color="#BCBDC0"/><stop offset="1" stop-color="#5F6062"/></linearGradient><linearGradient id="f" x1="21.25" y1="21.54" x2="13.6" y2="30.23" gradientUnits="userSpaceOnUse"><stop stop-color="#929497"/><stop offset="1" stop-color="#58585A"/></linearGradient><linearGradient id="g" x1="20.65" y1="18.83" x2="12.44" y2="28.43" gradientUnits="userSpaceOnUse"><stop stop-color="#7B7C7F"/><stop offset="1" stop-color="#58585A"/></linearGradient><linearGradient id="h" x1="27.48" y1="13.05" x2="10.83" y2="25.18" gradientUnits="userSpaceOnUse"><stop stop-color="#BDBEC0"/><stop offset=".78" stop-color="#58585A"/></linearGradient><linearGradient id="i" x1="17.4" y1="38.68" x2="12.45" y2="37.99" gradientUnits="userSpaceOnUse"><stop stop-color="#FAC015"/><stop offset="1" stop-color="#F58320"/></linearGradient><linearGradient id="j" x1="45.93" y1="25.82" x2="27.99" y2="42.34" gradientUnits="userSpaceOnUse"><stop stop-color="#22B3CE"/><stop offset="1" stop-color="#1182B0"/></linearGradient><linearGradient id="k" x1="42.56" y1="17.78" x2="28.14" y2="36.06" gradientUnits="userSpaceOnUse"><stop stop-color="#FAC015"/><stop offset="1" stop-color="#F58320"/></linearGradient><linearGradient id="l" x1="38.62" y1="15.05" x2="33.34" y2="26.13" gradientUnits="userSpaceOnUse"><stop stop-color="#8CC0AC"/><stop offset="1" stop-color="#437FC2"/></linearGradient><linearGradient id="m" x1="37.11" y1="13.14" x2="27.17" y2="29.03" gradientUnits="userSpaceOnUse"><stop stop-color="#C8DD5E"/><stop offset="1" stop-color="#7CAD41"/></linearGradient><linearGradient id="n" x1="17.82" y1="33.66" x2="11.01" y2="29.94" gradientUnits="userSpaceOnUse"><stop stop-color="#AECA51"/><stop offset="1" stop-color="#92B849"/></linearGradient><linearGradient id="o" x1="21.98" y1="35.69" x2="11.72" y2="33.3" gradientUnits="userSpaceOnUse"><stop stop-color="#58B3DC"/><stop offset="1" stop-color="#437FC2"/></linearGradient></defs></svg>