<!-- by TradeStack --><svg viewBox="0 0 56 56" xmlns="http://www.w3.org/2000/svg"><path fill="#F0F3FA" d="M0 0h56v56H0z"/><path fill-rule="evenodd" d="M48 27.94 28.52 10 9 28l19.49 18L48 27.94ZM47 28 28.51 11 10 28l18.49 17L47 28Z" fill="#3A4C66"/><path fill-rule="evenodd" d="M46 28 28.52 12 11 28l17.5 16L46 28Zm-1 0L28.5 13 12 28l16.49 15L45 28Z" fill="#3A4C66"/><path d="M23 27v-5h11v1.32L31.51 26h-3.1L31 23h-4.55S24 23.2 24 27h-1ZM34 29v5H23v-1.25L25.7 30h3.05L26 33h4.63S33 32.8 33 29h1Z" fill="#3A4C66"/><path d="M39.47 27.64v.7h-21A3 3 0 0 1 19 30c-1.39-2-1.69-1.5-3.5-2 1.81-.5 2.11 0 3.5-2 0 0 0 .88-.53 1.64h21Z" fill="#66B7B1"/><path d="M37 27.79s1.3-.74 1.88-.79c.58-.04-1.13 1-1.13 1h-.58l-.17-.21Z" fill="#66B7B1"/><path d="M38 27.79s1.3-.74 1.88-.79c.58-.04-1.13 1-1.13 1h-.58l-.17-.21Z" fill="#66B7B1"/><path d="M39 27.79s1.3-.74 1.88-.79c.58-.04-1.13 1-1.13 1h-.58l-.17-.21ZM37 28.21s1.3.74 1.88.79c.58.04-1.13-1-1.13-1h-.58l-.17.21Z" fill="#66B7B1"/><path d="M38 28.21s1.3.74 1.88.79c.58.04-1.13-1-1.13-1h-.58l-.17.21Z" fill="#66B7B1"/><path d="M39 28.21s1.3.74 1.88.79c.58.04-1.13-1-1.13-1h-.58l-.17.21Z" fill="#66B7B1"/><circle cx="28" cy="28" r="1" fill="#66B7B1"/></svg>