<!-- by TradeStack --><svg viewBox="0 0 56 56" xmlns="http://www.w3.org/2000/svg"><path fill="#F0F3FA" d="M0 0h56v56H0z"/><path d="M34.38 12.27a17.29 17.29 0 0 0-12.88-.07c.99.46 3.96.8 6.52.8 2.56 0 4.83-.2 6.36-.73ZM11.46 24.02a16.82 16.82 0 0 1 7.9-10.7L27 14.38v8.29l-8.4 7.45-7.14-6.1Zm12.22 20.45C17.34 42.83 11 36.77 11 27.37l6.28 4.55 6.4 12.55Zm9.62-.34c-1.7.57-3.53.87-5.43.87 0 0-.66 0-.98-.03l-6.82-13.05L28.02 25l9.54 7.4-4.26 11.73Zm11.62-14.07a16.97 16.97 0 0 1-7.34 11.96l-.35-.16 2.24-9.18 5.45-2.62Z" fill="#208ECD"/><path d="M45 26.73a16.96 16.96 0 0 0-7.58-12.86l-7.42.51v8.22l8.98 8.28L45 26.73Z" fill="#AAD6F1"/></svg>