<!-- by TradeStack --><svg viewBox="0 0 56 56" xmlns="http://www.w3.org/2000/svg"><path fill="#0F1624" d="M0 0h56v56H0z"/><path d="m16.32 31-1.56-4.24h-.1L13.12 31H12l2.47-6h.48l2.48 6h-1.11ZM50.98 30.91l-1.38-2.36-.6-.03v2.3c0 .1-.09.18-.18.18h-.65a.17.17 0 0 1-.17-.18v-5.59c0-.1.07-.17.16-.18l.46-.02.87-.03c1.37 0 2.05.58 2.05 1.75a1.72 1.72 0 0 1-1 1.57l1.43 2.41c.05.09.03.2-.05.24a.17.17 0 0 1-.1.03h-.69a.17.17 0 0 1-.15-.09ZM49 26v1.63l.41.03c.38 0 .65-.06.83-.19.17-.12.26-.36.26-.71 0-.3-.1-.5-.28-.6a1.73 1.73 0 0 0-.88-.18c-.1 0-.23 0-.34.02ZM38.2 25h.62c.12 0 .18.08.18.18V29c0 .7.79 1 1.44 1 .86 0 1.56-.34 1.56-1.02v-3.8c0-.1.13-.18.24-.18h.55c.12 0 .21.08.21.18v3.88c0 .6-.23 1.08-.7 1.42-.46.35-1.08.52-1.86.52s-1.38-.17-1.8-.5a1.73 1.73 0 0 1-.64-1.45v-3.87c0-.1.1-.18.2-.18ZM28.5 27.95c0-.82.25-1.52.74-2.1.49-.56 1.14-.85 1.97-.85.9 0 1.6.26 2.07.78.48.51.72 1.24.72 2.17 0 .94-.25 1.68-.75 2.23s-1.2.82-2.13.82c-.84 0-1.5-.27-1.94-.82a3.4 3.4 0 0 1-.68-2.23Zm1 0c0 1.34.67 2.05 1.62 2.05 1.12 0 1.88-.68 1.88-2.05 0-1.34-.7-1.95-1.8-1.95s-1.7.98-1.7 1.95ZM21 31v-5.82c0-.1.09-.18.2-.18h.62c.1 0 .18.08.18.18V30h2.8c.11 0 .2.13.2.23v.6c0 .09-.09.17-.2.17H21ZM6.74 31h-.58l-2.15-5.76c-.03-.1.02-.2.11-.23a.2.2 0 0 1 .06-.01h.78c.08 0 .15.05.17.12L6.48 29l1.41-3.88c.03-.07.1-.12.18-.12h.75c.1 0 .18.08.18.18l-.01.06L6.74 31Z" fill="#FAFCFE"/></svg>