<!-- by TradeStack --><svg viewBox="0 0 56 56" xmlns="http://www.w3.org/2000/svg"><path fill="#F0F3FA" d="M0 0h56v56H0z"/><path d="M48 25.16v-.62c0-1.4-1.15-2.54-2.54-2.54h-6.92A2.55 2.55 0 0 0 36 24.54v6.92c0 1.4 1.14 2.54 2.54 2.54h3.94A15.66 15.66 0 0 1 48 25.16ZM43.63 34h1.83c1.4 0 2.54-1.14 2.54-2.54v-4.84A14.6 14.6 0 0 0 43.63 34ZM31.06 22h-7.3C22.24 22 21 23.14 21 24.54v6.92c0 1.4 1.24 2.54 2.76 2.54h.72a25.09 25.09 0 0 1 6.58-12ZM32.68 22.38A23.77 23.77 0 0 0 25.97 34h5.27c1.52 0 2.76-1.15 2.76-2.54v-6.92c0-.91-.53-1.71-1.32-2.16ZM7.97 33.45A34.47 34.47 0 0 1 12.77 22H9.54A2.55 2.55 0 0 0 7 24.54v6.91c0 .81.38 1.53.97 2ZM16.46 22h-1.8a32.84 32.84 0 0 0-5.2 12h7c1.4 0 2.54-1.15 2.54-2.55v-6.9c0-1.4-1.14-2.55-2.54-2.55Z" fill="#E30818"/></svg>