<!-- by TradeStack --><svg viewBox="0 0 56 56" xmlns="http://www.w3.org/2000/svg"><path fill="#BD291F" d="M0 0h56v56H0z"/><path d="M27.98 12a16 16 0 1 0 .04 32 16 16 0 0 0-.04-32ZM17.62 38.01c-.8.24-1.11-1.33-.74-2.73.3-1.01.75-1.97 1.32-2.86.6-.92 1.2-1.62 1.8-2.73 1.44-2.46 1.44-3.85 1.44-3.85-.02-.76-.11-1.51-.3-2.25a8.84 8.84 0 0 1-.34-1.43c-.03-1.13.17-1.9.77-2.34.1-.08.22-.14.35-.18.36-.21.34-.16.53-.27.28-.19.4-.29.55-.82.07-.49-.04-.98-.29-1.4a5.3 5.3 0 0 0-.53-.84l.29-.2c.27.35.5.72.72 1.1.47 1.01.15 1.73.79 2.1.37.21.6.4.74.48 1.48.98 1.11 3.23.98 4.95-.12 1.53-.68 3-1.62 4.21-1.64 2.14-4.7 4.77-5.45 6.4-.64 1.39-.48 2.52-1.01 2.66Zm7.7-2.67c-.63 1.4-.47 2.51-.97 2.67-.8.24-1.14-1.33-.77-2.73.3-1.02.75-1.98 1.35-2.86.55-.92 1.17-1.62 1.8-2.73 1.4-2.46 1.4-3.85 1.4-3.85 0-.76-.1-1.51-.29-2.25a9.51 9.51 0 0 1-.34-1.43c0-1.16.19-1.91.8-2.33.1-.08.21-.14.34-.19.4-.2.37-.15.53-.26.3-.19.4-.3.56-.82a2.2 2.2 0 0 0-.3-1.4 5.3 5.3 0 0 0-.56-.86l.3-.2c.28.33.52.7.71 1.1.48 1.01.19 1.73.8 2.1.25.14.5.3.74.47 1.48.99 1.11 3.24 1 4.96a8.2 8.2 0 0 1-1.63 4.2c-1.65 2.14-4.72 4.76-5.46 6.4Zm13.8-10.6a8.3 8.3 0 0 1-1.61 4.21c-1.67 2.14-4.74 4.77-5.48 6.4-.64 1.41-.48 2.52-.98 2.69-.8.23-1.11-1.33-.77-2.73.3-1.02.76-1.98 1.35-2.86.6-.93 1.17-1.62 1.81-2.74 1.37-2.48 1.42-3.87 1.42-3.87-.03-.76-.14-1.51-.31-2.25a6.8 6.8 0 0 1-.34-1.42c-.05-1.16.16-1.9.76-2.33l.35-.19c.4-.2.37-.15.53-.26.32-.19.42-.29.56-.82.06-.49-.04-.98-.3-1.4a3.9 3.9 0 0 0-.55-.86l.3-.2c.27.34.5.71.7 1.1.5 1.01.19 1.73.8 2.1.25.15.5.3.74.48 1.53.98 1.13 3.23 1.03 4.95Z" fill="#fff"/></svg>