<!-- by TradeStack --><svg viewBox="0 0 56 56" xmlns="http://www.w3.org/2000/svg"><path fill="#F0F3FA" d="M0 0h56v56H0z"/><path fill-rule="evenodd" d="M8 36V20h5.89c1.2 0 2.22.21 3.04.64a4.33 4.33 0 0 1 1.86 1.8c.42.76.63 1.66.63 2.68 0 1.02-.21 1.91-.64 2.67a4.28 4.28 0 0 1-2.18 1.87L20 36h-3.17l-3.16-6H11v6H8Zm5.47-8.27H11v-5.3h2.45c.71 0 1.3.1 1.74.31.45.21.79.52 1 .92.23.4.34.89.34 1.46a2.9 2.9 0 0 1-.33 1.43c-.22.39-.55.68-1 .89-.45.2-1.03.3-1.73.3ZM25 36V20h-3v16h3Zm23 0V20h-3v16h3Zm-8.96-11h2.94c-.66-3.14-3.47-5-6.67-5-4.55 0-7.31 3.7-7.31 8 0 4.32 2.75 8 7.31 8 3.13 0 6.04-1.89 6.69-5h-2.95c-.5 1.58-2.04 2.47-3.7 2.47-3.07 0-4.35-2.74-4.35-5.47 0-2.71 1.3-5.47 4.36-5.47 1.67 0 3.17.9 3.68 2.47Z"/></svg>