<!-- by TradeStack --><svg viewBox="0 0 56 56" xmlns="http://www.w3.org/2000/svg"><path fill="#F0F3FA" d="M0 0h56v56H0z"/><path d="M15.53 27.17 9.6 28.32s7.4.95 7.4 3.46c0 1.26-1.59 2.22-3.87 2.22-2.29 0-4.92-2-4.92-2L7 33.82c1.46.9 3.2 2.18 6.76 2.18 3.55 0 6.24-1.8 6.24-4.5 0-3.56-4.47-4.33-4.47-4.33Z" fill="#565656"/><path d="M47.51 24.74 46.56 20H49l-1.49 4.74Z" fill="#F3DC01"/><path d="M22 20v4.64l3-.64v-2h2v-2h-5ZM28 30v-2s2.98 0 3-3.1c.02-2.65-3-2.9-3-2.9v-2s6-.4 6 4.73c0 3.49-3.02 4.21-3.02 4.21v.2s.84 0 1.67 1.8C34.06 34.02 35 36 35 36h-3.27s-.75-1.98-2.42-5.49C29.04 29.94 28 30 28 30ZM22 36V25.67l3-.64V28h2v2h-2v6h-3ZM38 20h-3l5.5 16h3l3.25-10.03-.88-4.57L42 33.19 38 20ZM19.48 22.1l-1.38 1.68S16.07 22 13.94 22c-1.35 0-3.15.27-3.15 1.95 0 1.52 3.3 2.47 3.3 2.47l-5.36 1.03s-1.19-1.05-1.19-3.08c0-3.03 2.98-4.37 6.17-4.37 3.44 0 5.77 2.1 5.77 2.1Z" fill="#565656"/></svg>