<!-- by TradeStack --><svg viewBox="0 0 56 56" xmlns="http://www.w3.org/2000/svg"><path fill="url(#axtpcdw0j)" d="M0 0h56v56H0z"/><path d="M9.03 26H5v-.89c0-.05-.07-.11-.12-.11H4.1c-.06 0-.1.06-.1.11v4.77c0 .06.04.12.1.12h4.93a1 1 0 0 0 .97-1v-2a1 1 0 0 0-.97-1Zm-.4 3H5v-2h3.64c.22 0 .36.2.36.44v1.16c0 .23-.14.4-.36.4ZM42 27v2.05c0 .52.36.95.8.95h4.12c.04 0 .08-.04.08-.13v-4.8c0-.03-.04-.07-.08-.07h-.83c-.05 0-.09.04-.09.1v.9h-3.2c-.44 0-.8.48-.8 1Zm1 1.65V27.4c0-.22.14-.4.34-.4H46v2h-2.66c-.2 0-.34-.12-.34-.35ZM18 27.4c0-.23.15-.4.36-.4h2.11c.05 0 .1-.07.1-.13v-.77c0-.06-.05-.1-.1-.1H17.9c-.49 0-.89.44-.89 1v2.9c0 .06.04.1.1.1h.8a.1.1 0 0 0 .1-.1v-2.5ZM26 27.4c0-.23.15-.4.36-.4h2.1c.06 0 .1-.07.1-.13v-.77c0-.06-.04-.1-.1-.1H25.9c-.49 0-.89.44-.89 1v2.9c0 .06.04.1.1.1h.8a.1.1 0 0 0 .1-.1v-2.5ZM24.34 29h-1.98c-.2 0-.36-.12-.36-.35V27h2.32c.05 0 .09-.04.09-.1v-.8c0-.06-.04-.1-.09-.1h-2.31v-.9c0-.06-.04-.1-.1-.1h-.82c-.05 0-.09.04-.09.08v3.94c0 .56.38.98.86.98h2.47c.05 0 .09-.04.09-.1v-.8c-.02-.05-.05-.09-.08-.1ZM51.91 29h-2.47c-.23 0-.44-.2-.44-.42V27h2.89c.06 0 .11-.04.11-.1v-.8c0-.05-.05-.1-.11-.1H49v-.9c0-.06-.02-.1-.08-.1h-.82c-.06 0-.1.04-.1.09v3.94c0 .54.45.97 1 .97h2.9c.06 0 .1-.04.1-.1v-.83a.12.12 0 0 0-.09-.07ZM35 27.01a.98.98 0 0 0-.97-1.01h-4.35a.1.1 0 0 0-.1.1v.78c0 .06.04.12.1.12h3.96c.22 0 .36.24.36.47v.04h-3.78c-.68 0-1.22.55-1.22 1.24 0 .7.54 1.25 1.22 1.25h4.68c.06 0 .1-.04.1-.08v-2.9ZM30.34 29c-.19 0-.35-.12-.35-.3 0-.2.16-.32.35-.32H34V29h-3.65ZM41 27c0-.55-.36-1-.81-1h-4.1c-.05 0-.09.04-.09.1v3.8c0 .06.04.1.08.1h.83c.05 0 .09-.04.09-.1V27h2.65c.2 0 .35.17.35.4v2.5c0 .06.03.1.08.1h.84c.04 0 .08-.04.08-.1V27ZM16 29.12c0-.05-.03-.1-.07-.12h-3.75c-.2 0-.35-.16-.35-.4v-.17H16V27c0-.55-.37-1-.84-1h-3.33c-.46 0-.83.44-.83 1v2c0 .55.37 1 .83 1h4.08c.05 0 .09-.04.09-.1v-.78Zm-4.16-1.62c0-.23.15-.5.35-.5H14.83c.2 0 .35.27.35.5v.06h-3.34v-.06Z" fill="#fff"/><defs><linearGradient id="axtpcdw0j" x1="10.42" y1="9.71" x2="68.15" y2="76.02" gradientUnits="userSpaceOnUse"><stop stop-color="#1A1E21"/><stop offset="1" stop-color="#06060A"/></linearGradient></defs></svg>