<!-- by TradeStack --><svg viewBox="0 0 56 56" xmlns="http://www.w3.org/2000/svg"><path fill="#F0F3FA" d="M0 0h56v56H0z"/><path d="M28 10c.83.22 1.86.56 2.68.88 4.78 1.9 9.27 4.46 12.9 8.2a8.28 8.28 0 0 1 .42.51 36.26 36.26 0 0 1-3.86 13.71 34.96 34.96 0 0 1-5.68 7.7 68.74 68.74 0 0 1-6.45 5.99h-.05l-2.22-1.9c-.02-.02-.02-.03 0-.06a59.05 59.05 0 0 0 4.8-5.96A21.56 21.56 0 0 0 34.66 28c.05-.64.03-1.31.02-1.97 0-.03-.01-.04-.04-.04H28V10Z" fill="url(#a1drrw3dn)"/><path d="M26 28h6.61c.03 0 .05.01.05.05-.33 5.81-4.58 11.46-8.46 15.66a46.12 46.12 0 0 1-6.5-7.39c-3.37-4.79-5.14-10.75-5.7-16.54 0-.16-.02-.25.1-.37A34.08 34.08 0 0 1 26 10.46V28Z" fill="url(#b1drrw3dn)"/><defs><linearGradient id="a1drrw3dn" x1="28.68" y1="10.76" x2="34.97" y2="44.75" gradientUnits="userSpaceOnUse"><stop stop-color="#A9A9A9"/><stop offset="1" stop-color="#727171"/></linearGradient><linearGradient id="b1drrw3dn" x1="13.61" y1="19" x2="28.74" y2="38.61" gradientUnits="userSpaceOnUse"><stop stop-color="#7DBEC4"/><stop offset="1" stop-color="#45919A"/></linearGradient></defs></svg>