<!-- by TradeStack --><svg viewBox="0 0 56 56" xmlns="http://www.w3.org/2000/svg"><path fill="#F0F3FA" d="M0 0h56v56H0z"/><path d="M15.14 28.5h-2.23l-.01-1h2.02c.8 0 1.58-.47 1.58-1.38 0-.99-.76-1.12-1.61-1.12H13v7h-1v-8h2.89c1.4 0 2.61.49 2.61 2.12 0 1.17-.92 1.77-1.94 1.88l-.42.5ZM15.1 32h-2.64l.05-1h2.59c.89 0 1.91-.32 1.91-1.3 0-1.01-.93-1.2-1.86-1.2h-1.66v-1h2.02l.51.21c1.08.09 1.99.85 1.99 1.98 0 1.63-1.47 2.31-2.91 2.31ZM20.88 26.53 19 32h-1l2.17-6h.5l.21.53ZM22 32l-1.89-5.47.22-.53h.5L23 32h-1Zm.2-2v1H19v-1h3.2ZM26.88 26.53 25 32h-1l2.17-6h.5l.21.53ZM28 32l-1.89-5.47.22-.53h.5L29 32h-1Zm.2-2v1H25v-1h3.2ZM31.87 32h-1.44l-.03-1h1.55c1.32 0 2.05-.47 2.05-1.81v-.37c0-1.3-.7-1.82-2.01-1.82h-1.56l-.03-1h1.55c1.68 0 3.05 1.08 3.05 2.82v.36c0 1.8-1.43 2.82-3.13 2.82ZM31 26v6h-1v-6h1ZM40 31v1h-3.5v-1H40Zm-3-5v6h-1v-6h1Zm3 2.5v1h-3.5v-1H40Zm0-2.5v1h-3.5v-1H40ZM41 26h2c1.12 0 2 .84 2 2 0 1.28-.74 2-1.5 2h-1.98l.03-1H43c.5 0 1-.31 1-1 0-.73-.5-1-1-1h-1v5h-1v-6Zm2.8 6-1.3-2.72h1.14L45 32h-1.2Z" fill="#262223"/><path d="m5 34 5-13h1L6 34H5ZM46 34l5-13h1l-5 13h-1Z" fill="#8EA0AB"/></svg>