<!-- by TradeStack --><svg viewBox="0 0 56 56" xmlns="http://www.w3.org/2000/svg"><path fill="#008C46" d="M0 0h56v56H0z"/><path d="M12.08 26.38v.09c1.4.2 2.41 1.47 2.36 2.92 0 3.2-2.4 3.61-4.5 3.61H5V21h5.47c2.35 0 3.45 1.37 3.45 3a2.26 2.26 0 0 1-1.84 2.38ZM10.23 23H7v2.79h3.23c1.56 0 1.77-.93 1.77-1.49 0-.95-.6-1.3-1.77-1.3ZM7 31h3.03c1.43 0 2.35-.55 2.35-1.67 0-1.22-.94-1.79-2.37-1.79H7V31Zm34.79-10H44l-2.32 12h-2.53l-1.61-8.12h-.08L35.86 33h-2.54L31 21h2.21l1.52 8.96h.07l1.67-8.93h2.18l1.61 8.93h.08L41.79 21Zm-13.05 3h2.11l-2.73 9.73c-.45 1.59-1.15 2.27-2.6 2.27-.48-.02-.96-.1-1.42-.27v-1.65c1.5.39 1.96.17 2.08-.91l-3-9.17h2.2l1.76 6.23h.08L28.74 24Zm-12.76 3c0-1.77 1.33-3 3.49-3 2.36 0 3.53.74 3.53 2.76V33h-1.9l-.11-.9h-.08c-.73.6-1.63.9-2.56.9-1.67 0-2.83-1.1-2.83-2.65 0-1.73 1.38-2.39 2.53-2.63.19-.04 2.22-.42 2.95-.53v-.56c0-.72-.44-1.01-1.49-1.01-1.14 0-1.47.59-1.47 1.38h-2.06Zm2.94 4.28A4.7 4.7 0 0 0 21 30.6v-1.84l-2 .4c-.7.15-1.33.33-1.33 1.11 0 .58.52 1 1.25 1ZM47.47 24c-2.15 0-3.48 1.23-3.48 3h2.05c0-.8.34-1.38 1.47-1.38 1.05 0 1.5.3 1.5 1.01v.56c-.74.11-2.77.49-2.96.53-1.15.24-2.53.9-2.53 2.63 0 1.56 1.17 2.65 2.83 2.65.93 0 1.83-.3 2.56-.9h.08l.1.9H51v-6.24c0-2.02-1.17-2.76-3.53-2.76ZM49 30.6a4.7 4.7 0 0 1-2.08.68c-.72 0-1.25-.42-1.25-1 0-.78.63-.96 1.33-1.11l2-.4v1.84Z" fill="#fff"/></svg>