<!-- by TradeStack --><svg viewBox="0 0 56 56" xmlns="http://www.w3.org/2000/svg"><path fill="#F0F3FA" d="M0 0h56v56H0z"/><path d="M45 28.78c0-2.87-.8-5.19-1.4-6.4a.64.64 0 0 0-.93-.28 5.21 5.21 0 0 0-2.64 4.52c0 1.41.71 2.9.71 6.27 0 2.84-1.44 5.74-2.7 7.62-.16.26.16.62.4.44C42.3 38.05 45 34.1 45 28.78ZM11 27.22c0 2.87.8 5.19 1.4 6.4.18.37.6.49.93.28a5.21 5.21 0 0 0 2.64-4.52c0-1.41-.71-2.9-.71-6.27 0-2.84 1.44-5.74 2.7-7.62.16-.26-.16-.62-.4-.44C13.7 17.95 11 21.9 11 27.22ZM28.78 11c-2.87 0-5.19.8-6.4 1.4a.64.64 0 0 0-.28.93 5.21 5.21 0 0 0 4.52 2.64c1.41 0 2.9-.71 6.27-.71 2.84 0 5.74 1.44 7.62 2.7.26.16.62-.16.44-.4C38.05 13.7 34.1 11 28.78 11ZM27.22 45c2.87 0 5.19-.8 6.4-1.4.37-.18.49-.6.28-.93a5.21 5.21 0 0 0-4.52-2.64c-1.41 0-2.9.71-6.27.71-2.84 0-5.74-1.44-7.62-2.7-.26-.16-.62.16-.44.4C17.95 42.3 21.9 45 27.22 45Z"/></svg>