<!-- by TradeStack --><svg viewBox="0 0 56 56" xmlns="http://www.w3.org/2000/svg"><path fill="#F0F3FA" d="M0 0h56v56H0z"/><path d="M12 25h7v1h-7zM20 25h7v1h-7zM37 25v5h-1v-5zM43 25v5h-1v-5zM12 29h7v1h-7zM20 29h2v1h-2zM12 27h5v1h-5zM4 27h2v1H4zM20 27h5v1h-5zM39.5 26.93 38 26v1.07l1.5.93 1.5-.93V26l-1.5.93Z"/><path d="M4 25h6.3c.47.92.7 1.71.7 2.5 0 .8-.24 1.6-.7 2.5H4v-1.07h5.7c.2-.49.3-.96.3-1.43s-.1-.94-.3-1.43H4V25ZM28 28l3.5-1.93L35 28v-1.07L31.5 25 28 26.93V28Z"/><path d="m28 30 3.5-1.93L35 30v-1.07L31.5 27 28 28.93V30Z" fill="#1E6FB6"/><path d="m45 28 3.5-1.93L52 28v-1.07L48.5 25 45 26.93V28Z"/><path d="m45 30 3.5-1.93L52 30v-1.07L48.5 27 45 28.93V30Z" fill="#1E6FB6"/></svg>