<!-- by TradeStack --><svg viewBox="0 0 56 56" xmlns="http://www.w3.org/2000/svg"><path fill="#F0F3FA" d="M0 0h56v56H0z"/><path d="M22 34h-4v8h-4V14h28v3.54a17.1 17.1 0 0 0-4.37-1.28A24.3 24.3 0 0 0 34 16c-6.41 0-12.47 2.41-14.81 3.45l-1.19.53V28h4v-5.4c2.6-1.04 7.21-2.6 12-2.6.99 0 2.05.07 3.02.22 1.78.25 3.47.9 4.98 1.87v5.72c-.22-.4-.49-.8-.79-1.15a7.6 7.6 0 0 0-4.8-2.5c-.78-.1-1.56-.16-2.35-.16-2 0-4.2.32-6.58.96l-1.48.4v11.28l1.48.4c2.37.64 4.59.96 6.58.96.78 0 1.57-.05 2.34-.17a7.6 7.6 0 0 0 4.8-2.5c.31-.35.58-.74.8-1.15v5.73c-1.5.98-3.2 1.62-4.98 1.87-.98.15-1.96.22-2.95.22-4.79 0-9.47-1.56-12.07-2.6V34Zm12.16-6a12 12 0 0 1 1.77.12c1.1.17 1.91.55 2.43 1.14a2.68 2.68 0 0 1 0 3.48c-.52.59-1.34.97-2.43 1.14-.59.08-1.18.12-1.77.12-1.4-.02-2.8-.17-4.16-.47v-5.06c1.37-.3 2.76-.46 4.16-.47Z" fill="#1006A0"/></svg>