<!-- by TradeStack --><svg xmlns="http://www.w3.org/2000/svg" viewBox="0 0 56 56"><path fill="#F0F3FA" d="M0 0h56v56H0z"/><path d="M19.43 31.2v3.6h.6c1.05 0 2-.22 2-1.8s-.95-1.8-2-1.8h-.6zm4.1 1.8c0 2.29-1.55 3-3.53 3h-2v-6h2c1.98 0 3.54.71 3.54 3zM28.57 30v1.24H25.4v1.05h3v1.25h-3v1.21h3.17V36H24v-6h4.57zM33.25 32c-.12-.4-.53-.87-1.28-.87-.85 0-1.51.62-1.51 1.85 0 1.22.61 1.9 1.53 1.9.64 0 1.3-.25 1.3-.98v-.12H32v-1.12h2.67V36h-1.05l-.04-.74c-.38.5-.96.74-1.8.74-1.72 0-2.78-1.17-2.78-3.02 0-1.84 1.21-2.98 2.99-2.98 1.3 0 2.34.74 2.62 2h-1.36zM35.57 36H37v-6h-1.43v6zM39 32.55h.95c.67 0 1.19-.12 1.19-.68 0-.55-.52-.68-1.2-.68H39v1.36zm0 1.2V36h-1.42v-6h2.32c1.57 0 2.75.36 2.75 1.85 0 .89-.5 1.4-1.18 1.66L42.96 36h-1.68l-1.3-2.26H39zM47.56 33c0-1.23-.71-1.87-1.56-1.87-.85 0-1.56.64-1.56 1.87s.71 1.87 1.56 1.87c.85 0 1.56-.64 1.56-1.87zM43 33c0-1.8 1.22-3 3-3 1.77 0 3 1.2 3 3s-1.23 3-3 3c-1.78 0-3-1.2-3-3z" fill="#020A0A"/><path d="M8 32h9v-2H8v2zM8 36h9v-2H8v2z" fill="#009EE2"/><path d="M7.58 23c-.32 0-.58-.18-.58-.5s.26-.5.58-.5H13v-.28c0-.95.63-1.72 1.58-1.72h1.14c.32 0 .58.18.58.5 0 .3-.26.5-.58.5h-1.14c-.32 0-.58.4-.58.72V22h1.72c.32 0 .58.18.58.5s-.26.5-.58.5H14v4.43c0 .31-.2.57-.5.57-.32 0-.5-.26-.5-.57V23H7.58zM18 26.28v-5.7c0-.32.18-.58.5-.58.3 0 .5.26.5.58v5.84c0 .32.26.58.58.58h.56c.31 0 .57.2.57.5 0 .32-.26.5-.57.5h-.56c-.94 0-1.58-.77-1.58-1.72zM26 27v-1.5h-2.81c-.39 0-.69.4-.69.73 0 .33.23.77.65.77H26zm-.7-5c.93 0 1.7.8 1.7 1.8v3.6c0 .33-.26.6-.57.6h-3.39c-.93 0-1.54-.8-1.54-1.8s.61-1.7 1.54-1.7H26v-.89c0-.33-.39-.61-.7-.61h-2.26c-.31 0-.56-.17-.56-.5 0-.33.25-.5.56-.5h2.26zM30 26.42V23h-1.64c-.31 0-.57-.18-.57-.5s.26-.5.57-.5H30v-1.42c0-.32.18-.58.5-.58.3 0 .5.26.5.58V22h1.87c.32 0 .57.18.57.5s-.25.5-.57.5H31v3.42c0 .32.43.58.74.58h1.13c.32 0 .57.2.57.5 0 .32-.25.5-.57.5h-1.13c-.93 0-1.74-.64-1.74-1.58z" fill="#1D1D1B"/><path d="M39.58 24.23a.77.77 0 0 0-.78.78c0 .42.35.77.78.77.43 0 .77-.35.77-.77a.77.77 0 0 0-.77-.78z" fill="#EB661C"/><path d="M41.19 26.4h-3.6v-2.8h3.61a.8.8 0 0 0 .8-.8.8.8 0 0 0-.8-.8h-4.4a.8.8 0 0 0-.8.8v4.4c0 .45.36.8.8.8h4.39c.45 0 .79-.35.79-.8 0-.44-.36-.8-.8-.8zM48.76 22.23a.8.8 0 0 1 0 1.14L47.13 25l1.64 1.63a.8.8 0 0 1-.01 1.14.8.8 0 0 1-1.13 0L46 26.13l-1.64 1.64a.8.8 0 1 1-1.13-1.13L44.87 25l-1.64-1.63a.8.8 0 1 1 1.13-1.14L46 23.87l1.63-1.64a.8.8 0 0 1 1.13 0z" fill="#EB661C"/></svg>