<!-- by TradeStack --><svg viewBox="0 0 56 56" xmlns="http://www.w3.org/2000/svg"><path fill="#F0F3FA" d="M0 0h56v56H0z"/><path d="M49 26.42c0-1.14-.54-1.42-1.58-1.42h-4.1v4.98h2.18V28h.86c.4 0 .35.04.44.09.11.07.18.15.2.51.02.42 0 1.04 0 1.38h2s.02-.75 0-1.24c-.04-.71-.34-.88-1-1 .77-.11 1-.4 1-1.32Zm-2.14.54c-.06.04-.02.04-.37.04h-.99v-1h.99c.37 0 .31.04.37.07.1.08.14.14.14.43 0 .3-.05.4-.14.46ZM49.94 29.98H52V25h-2.06v4.98ZM41.95 25.3c-.26-.2-.62-.3-1.31-.3h-2.21c-.7 0-1.05.1-1.32.3-.4.28-.73.83-.73 2.2s.34 1.92.73 2.2c.27.2.62.3 1.32.3h2.2c.7 0 1.06-.1 1.32-.3.4-.28.73-.83.73-2.2 0-1.39-.34-1.93-.73-2.2Zm-1.56 3.62c-.05.04-.15.08-.43.08h-.84c-.28 0-.38-.04-.43-.08-.08-.05-.19-.34-.19-1.44 0-1.1.11-1.35.19-1.4.05-.04.15-.08.43-.08h.84c.28 0 .38.04.43.07.08.06.2.32.2 1.41 0 1.1-.14 1.4-.2 1.44ZM32.96 25.3l-.9 2.25h-.09l-.93-2.26c-.09-.22-.18-.29-.49-.29H28v5h2v-3.03h-.01l1.2 2.74c.1.2.2.29.44.29h.68c.25 0 .34-.07.44-.3l1.2-2.73H34V30h2v-5h-2.55c-.3 0-.42.07-.5.3ZM22.76 28.21h1.37v.04c0 .36-.13.64-.2.7-.06.03-.16.05-.42.05h-.86c-.29 0-.36-.02-.42-.06-.09-.07-.23-.44-.23-1.44s.16-1.36.23-1.43c.06-.04.15-.07.42-.07h.83c.27 0 .36.03.4.07.07.05.17.24.2.65h1.87c-.04-.84-.22-1.2-.54-1.46-.26-.19-.64-.26-1.32-.26h-2.13c-.66 0-1 .1-1.26.3-.38.28-.7.83-.7 2.2s.32 1.92.7 2.2c.25.2.6.3 1.26.3h2.13c.6 0 1-.1 1.28-.3.36-.27.63-.69.63-1.89v-.62h-3.24v1.02ZM15.94 25.3l-.87 2.25h-.1l-.9-2.26c-.1-.22-.2-.29-.5-.29H11v5h2v-3.03h-.01l1.2 2.74c.1.2.2.29.44.29h.68c.25 0 .34-.07.44-.3l1.2-2.73H17V30h2v-5h-2.57c-.29 0-.4.07-.5.3ZM9.34 25.42c-.39-.3-.95-.42-1.98-.42H4v5h3.36c1.03 0 1.6-.11 1.98-.42.44-.35.66-.84.66-2.09 0-1.24-.2-1.72-.66-2.07Zm-1.56 3.33c-.11.1-.28.25-.73.25H6v-3h1.05c.45 0 .6.17.73.25.13.09.22.3.22 1.26-.02.93-.11 1.15-.22 1.24Z"/></svg>