<!-- by TradeStack --><svg viewBox="0 0 56 56" xmlns="http://www.w3.org/2000/svg"><path fill="#F0F3FA" d="M0 0h56v56H0z"/><circle cx="28" cy="28" r="16" fill="#151F50"/><path d="M42.58 21.4a16.01 16.01 0 0 0-13.24-9.34c-.64.26-1.77.61-3.25.73-.75.05-2.49.38-3.43 1.34l1.66.2-1.14 1.37h-.97c.42-.46.92-1.37-.52-1.37s-1.68.91-1.63 1.37l-3.84 3.83c-1.08.62-3.26 3-3.37 7.56-.1 4.56 1.7 7 2.63 7.65l-.24.71c-.12.54.07 1.92 1.48 3.9a16 16 0 0 0 6.62 3.96l.27-.47c.6.14 1.66.2 1.14-.75.53-.2 1.38-.73.54-1.24a7.1 7.1 0 0 0-2.22-.85 5.05 5.05 0 0 1-1.96-1.89c-1.47-1.19-4.5-3.6-4.89-3.74l-.16-.05c-.45-.15-1-.33-1.49-1.5.17-.37.34-1.22-.34-1.65.23-.5.44-1.56-.5-1.72-.25-.65-.5-2.04.5-2.36l1.25 1.62v1.61c-.18.52-.09 1.87 1.72 3.1l.27-.36c-.58-.32-1.73-1.3-1.65-2.74.26-1 1.33-2.93 3.54-2.66.38-.24 1.33-.57 2.09 0 .47-.2 1.07-1.38-.34-4.45.35-.06 1.17-.4 1.66-1.28-.03-.81.17-2.48 1.14-2.67l.44 1.18c-.5 1.2-1.19 3.67 0 4.02.04-.4.47-1.32 1.82-1.86.36-.23 1.04-1.06.88-2.46l1.04-1.21c.77.46 1.99.94.75-.91.47-.25 1.27-.88.7-1.42-.7-.68.61-1.42 1.62 0a6.93 6.93 0 0 1 1.15 2.12c-.04.27-.31.81-1.15.81-1.04 0-.6 1.72-.3 2.4.09.2.06.43.04.65-.06.55-.11 1.08 1.4 1.1.27-.13.63-.54 0-1.08-.77-.67-.97-2.06-.36-1.75.6.3 1.99 2.63 1.18 2.83-.81.2-1.28.95-1.62 2.46-.27 1.22.07 1.72.27 1.82-.7.1-1.91.6-1.18 1.76.9 1.45 2.09.03 1.72-1.18.22-.77 1.1-2.07 2.83-1.15l.14-.3-.68-.95 2.23.95c-.32-.39-.8-1.24-.17-1.62-.33-.44-.78-1.36 0-1.55l.6-.17c.58-.16.86-.25.78.17-.04.22-.25.42-.49.64-.34.32-.72.68-.72 1.21 0 .73 1.08.3 1.62 0l.37.98-2 1.58v.78l-1.54.34-.68-.74c-.89.45-2.88 1.62-3.74 2.73v.9l-1.32 2.03c-.04.8.16 2.53 1.32 3.07 1.45.67 2.76.24 4.62-.88H37l.37.88c.33.16.9.89.5 2.56l.57.12a16.04 16.04 0 0 0 4.32-5.94v-2.2c.26-1.01.62-3.3 0-4.32l-.27 1.45c-.85-.24-2.63-.97-2.9-2.02l2.6 1.24c.33-1.03.78-3.36 0-4.41-.4.5-1.2 1.33-1.28.74-.08-.54 1-2.26 1.67-3.25Zm-15.17 1.46c.3.03.8.23.45.82-.45.75-1.27-.52-.45-.82Zm2.16 2.54c-.12.56-.26 1.63.2 1.39.57-.3.37-1.12-.2-1.4Zm1.76.32-1.56-1.6-.2.4c.64.44.98 1.7 1.07 2.27l.7-1.07Z" fill="#A8A9AD"/><circle cx="33.5" cy="25.5" r="5.5" fill="#CACBCD" fill-opacity=".5"/><circle cx="33.5" cy="25.5" r="2.5" fill="#FBFBFD" fill-opacity=".5"/></svg>