<!-- by TradeStack --><svg viewBox="0 0 56 56" xmlns="http://www.w3.org/2000/svg"><path fill="url(#amlabgqgf)" d="M0 0h56v56H0z"/><path d="M42 36c0-.55.42-1 .94-1h4.12c.52 0 .94.45.94 1s-.42 1-.94 1h-4.12c-.52 0-.94-.45-.94-1Z" fill="#fff" fill-opacity=".9"/><path d="M8.12 28a.12.12 0 0 1-.12-.13v-9.3c0-.06.04-.11.09-.13L9.85 18c.08-.02.15.04.15.13v3.91c.44-.56.84-.84 1.57-.84 1.4 0 2.43 1.18 2.43 2.54v4.13c0 .07-.05.13-.12.13H12.1c-.07 0-.1-.06-.1-.13v-3.62c0-.67-.3-1.28-1-1.28s-1 .6-1 1.28v3.62c0 .07-.1.13-.16.13H8.12ZM16 27c-.67-.68-1-1.5-1-2.5s.33-1.82 1-2.49A3.36 3.36 0 0 1 18.5 21c1 0 1.83.34 2.5 1.01.66.67 1 1.5 1 2.49a3.43 3.43 0 0 1-3.5 3.5c-1 0-1.84-.33-2.5-1Zm2.5-.9c.44 0 .8-.15 1.08-.46.3-.32.46-.7.46-1.14 0-.44-.16-.82-.46-1.13a1.4 1.4 0 0 0-1.08-.47c-.44 0-.8.15-1.1.46-.29.32-.44.7-.44 1.14 0 .44.15.82.44 1.14.3.3.66.46 1.1.46ZM25 27.87c0 .07-.05.13-.12.13h-1.76a.13.13 0 0 1-.12-.13v-6.74c0-.07.06-.13.12-.13h1.76c.07 0 .12.06.12.13v.66c.43-.53.87-.79 1.56-.79.85 0 1.51.35 1.98 1.05A2.13 2.13 0 0 1 30.49 21c1.4 0 2.51 1.14 2.51 2.53v4.34c0 .07-.06.13-.12.13h-1.76a.13.13 0 0 1-.12-.13v-3.81c0-.62-.3-1.23-.96-1.23-.67 0-1.04.6-1.04 1.23v3.81c0 .07-.06.13-.13.13h-1.74a.13.13 0 0 1-.13-.13v-3.81c0-.62-.36-1.23-1.03-1.23s-.97.6-.97 1.23v3.81ZM40.92 25.2h-4.91a1.64 1.64 0 0 0 1.61 1.16c.51 0 .93-.18 1.26-.53a.13.13 0 0 1 .13-.04l1.6.43c.07.02.1.11.07.18-.3.5-.7.83-1.2 1.13-.55.31-1.18.47-1.87.47-1.04 0-1.9-.33-2.58-1A3.34 3.34 0 0 1 34 24.5c0-1 .33-1.82 1-2.49A3.38 3.38 0 0 1 37.5 21c1 0 1.83.34 2.5 1.01a3.37 3.37 0 0 1 .92 3.18Zm-4.9-1.43h3.04a1.67 1.67 0 0 0-.6-.82 1.57 1.57 0 0 0-2.44.82ZM12 29.13c0-.07.06-.13.13-.13h1.73c.07 0 .14.06.14.13v1.17h1.43c.07 0 .13.06.13.13v1.42c0 .07-.06.15-.13.15H14v2.3c0 .2.06.37.2.5.15.14.33.2.55.2h.68c.07 0 .13.06.13.13v1.74c0 .07-.06.13-.13.13h-1.01c-.68 0-1.26-.2-1.73-.6-.46-.42-.69-.93-.69-1.54v-5.73ZM17.34 36a3.4 3.4 0 0 1-1-2.5A3.45 3.45 0 0 1 19.9 30c1 0 1.85.33 2.52 1.01.69.67 1.03 1.5 1.03 2.49a3.49 3.49 0 0 1-3.56 3.5 3.47 3.47 0 0 1-2.55-1Zm2.55-.9c.44 0 .81-.15 1.1-.46.3-.32.46-.7.46-1.14 0-.45-.15-.82-.46-1.13a1.43 1.43 0 0 0-1.1-.47c-.44 0-.82.15-1.11.46-.3.31-.45.7-.45 1.14 0 .44.15.82.45 1.14.3.3.67.46 1.11.46ZM26 33.54c0-1.02.3-1.87.9-2.53A2.94 2.94 0 0 1 29.2 30c.69 0 1.25.2 1.8.62v-.5c0-.06.12-.12.2-.12h1.67c.07 0 .13.06.13.13v6.64c0 .92-.33 1.69-.99 2.3-.65.62-1.46.93-2.43.93-.77 0-1.47-.2-2.09-.6a2.94 2.94 0 0 1-1.18-1.37.13.13 0 0 1 .08-.17l1.67-.45c.06-.02.13 0 .16.06.1.18.28.37.5.48.25.14.52.2.83.2.42 0 .78-.12 1.07-.38.3-.26.38-.59.38-.98v-.35c-.54.43-1.1.64-1.8.64-.92 0-1.68-.34-2.3-1.01-.6-.69-.9-1.53-.9-2.53Zm3.53-1.62c-.42 0-.78.15-1.08.46-.28.31-.42.7-.42 1.17 0 .45.14.83.42 1.14.3.31.66.47 1.08.47.42 0 .77-.16 1.07-.47.3-.3.44-.68.44-1.14 0-.47-.15-.86-.44-1.17-.3-.3-.65-.46-1.07-.46ZM35 36c-.67-.68-1-1.51-1-2.5 0-1 .33-1.82 1-2.49A3.36 3.36 0 0 1 37.5 30c1 0 1.83.33 2.5 1.01.66.67 1 1.5 1 2.49a3.43 3.43 0 0 1-3.5 3.5c-1 0-1.84-.34-2.5-1Zm2.5-.9c.44 0 .8-.15 1.08-.46.3-.32.46-.7.46-1.14 0-.45-.16-.82-.46-1.13a1.4 1.4 0 0 0-1.08-.48c-.44 0-.8.16-1.1.47-.29.31-.44.7-.44 1.14 0 .44.15.82.44 1.14.3.3.66.46 1.1.46Z" fill="#fff"/><defs><linearGradient id="amlabgqgf" x1="21.96" y1="15.11" x2="37.12" y2="52.54" gradientUnits="userSpaceOnUse"><stop stop-color="#6229D0"/><stop offset=".54" stop-color="#8946B3"/><stop offset="1" stop-color="#D07F6C"/></linearGradient></defs></svg>