<!-- by TradeStack --><svg viewBox="0 0 56 56" xmlns="http://www.w3.org/2000/svg"><path fill="#F0F3FA" d="M0 0h56v56H0z"/><path d="M5 33V23h2v10H5Zm8.23 0H9V23h4.08c1.9 0 3 1.13 3 2.8 0 1.06-.7 1.77-1.19 2 .59.27 1.33.88 1.33 2.18-.01 1.83-1.26 3.02-2.99 3.02Zm-.31-8H11v2h1.92c.81 0 1.26-.3 1.26-.98 0-.68-.45-1.02-1.26-1.02Zm.12 3.7H11V31h2.04c.87 0 1.26-.47 1.26-1.11.02-.66-.4-1.2-1.26-1.2ZM21.5 33C19.51 33 18 31.65 18 29.6V23h2v6.53c0 1.12.47 1.78 1.5 1.78 1.02 0 1.5-.68 1.5-1.78V23h2v6.6c-.02 2.05-1.52 3.4-3.5 3.4ZM35 31.24V24h.72v2.2h1.5v.53h-1.5v4.55c0 .69.31 1.09 1 1.09h.5V33h-.61c-1.02-.02-1.61-.75-1.61-1.76Zm6.64 1.14c.78 0 1.27-.23 1.82-.8l.52.42c-.68.67-1.28 1-2.37 1-1.82 0-2.8-1.29-2.8-3.64 0-2.13.98-3.36 2.63-3.36 1.64 0 2.63 1.18 2.63 3.19v.3H39.5c0 1.86.74 2.89 2.14 2.89Zm1.5-4.66a1.8 1.8 0 0 0-1.7-1.1c-.76 0-1.42.4-1.72 1.1-.15.41-.19.6-.22 1.24h3.87a2.96 2.96 0 0 0-.22-1.24Zm5.7 5.28c-1.8 0-2.89-1.43-2.89-3.53 0-2.09 1.09-3.47 2.89-3.47.9 0 1.47.22 2.16 1l-.48.43c-.56-.62-1-.83-1.7-.83a2 2 0 0 0-1.75.89c-.32.48-.45 1.1-.45 1.98 0 .89.13 1.56.45 2.04a2 2 0 0 0 1.75.89c.7 0 1.14-.23 1.7-.83L51 32c-.7.78-1.26 1-2.16 1ZM31 21h-1v15h1V21Z"/></svg>