<!-- by TradeStack --><svg viewBox="0 0 56 56" xmlns="http://www.w3.org/2000/svg"><path fill="#222C2E" d="M0 0h56v56H0z"/><path d="m28 12 2 1.25v2L28 14l-7 4 3.5 2 3.5-2 5 3v10l-1.5-1v-8L28 20l-3.5 2-7-4L28 12ZM14 36V20l1.75-1v16l1.75 1V26l1.75-1v-2l-1.75-1v-2l3.5 2v4l-2 1v12l-5-3Zm9-11.08 1.5-.92v6l-2 1.16v4L28 32l5.25 3L42 30v6l-8.75 5L28 38l-3.5 2 3.5 2 1.75-1 1.75 1-3.5 2-7-4 7-4 5.25 3 7.25-4.1v-2L33.25 37 28 34l-7 4v-8l2-1.06v-4.02ZM42 28l-1.5 1v-8l-4-2v10l2-1v2L35 32V18l-2-1v2l-1.5-1v-4L42 20v8Z" fill="#FCD332"/></svg>