<!-- by TradeStack --><svg viewBox="0 0 56 56" xmlns="http://www.w3.org/2000/svg"><path fill="#F0F3FA" d="M0 0h56v56H0z"/><path d="M12.48 26.62c0 .28.83.3.94.1.2-.3 2.39-4.19 2.53-4.47.08-.16.2-.25.37-.25h4.38c.08 0 .14.05.19.1.04.06.04.1.01.15L17.3 28c-.09.11-.13.21-.13.3 0 .1.03.21.1.33l3.77 7.1c.03.05.03.11-.02.17-.06.07-.15.09-.28.09h-4.38c-.1 0-.19 0-.25-.05a.68.68 0 0 1-.14-.14c-.13-.29-2.4-5.5-2.55-5.8-.13-.26-.94-.46-.94-.02v5.76c0 .17-.08.25-.26.25H8.26c-.17 0-.26-.08-.26-.25v-18.5c0-.16.09-.25.26-.25h3.98c.16 0 .24.09.24.26v9.36Zm14.74-1-.8.03c-.31.01-.63.04-.95.07l-.92.1-.76.1-.24.01c-.07-.01-.13-.05-.15-.14l-.17-2.9c-.03-.18.01-.3.16-.35.23-.07.56-.13.97-.19.4-.05.84-.11 1.31-.15.47-.05.96-.07 1.45-.1.5-.03.97-.05 1.39-.05.78 0 1.5.06 2.18.19.67.13 1.26.34 1.75.63.5.3.87.68 1.15 1.18.27.5.41 1.11.41 1.84v9.23c0 .08-.02.15-.07.21-.04.06-.13.11-.27.16-.3.08-.64.15-1.03.21a26.54 26.54 0 0 1-4.1.3c-1.2 0-2.2-.06-3.01-.17a5.05 5.05 0 0 1-1.94-.63c-.48-.3-.84-.7-1.04-1.21a4.9 4.9 0 0 1-.32-1.94c0-.68.06-1.27.16-1.74s.3-.87.62-1.2c.32-.31.77-.57 1.33-.77.58-.18 1.33-.34 2.27-.47l2.64-.33c.1-.01.15-.07.15-.15v-.69c0-.45-.15-.75-.48-.9a5.52 5.52 0 0 0-1.69-.18Zm2.17 4.55c0-.12-.06-.17-.18-.17h-.79c-.34 0-.63.01-.9.05-.25.03-.46.12-.62.23-.16.12-.27.29-.36.52-.07.22-.11.52-.11.9s.03.68.1.9c.07.2.17.38.32.5.29.22.75.25 1.38.25.32 0 1.16-.01 1.16-.37v-2.81ZM42.04 22c1.4 0 2.53.18 3.43.45.9.27 1.6.69 2.13 1.23.52.56.9 1.25 1.1 2.1.2.84.3 1.84.3 3 0 1.17-.1 2.41-.32 3.28-.22.87-.58 1.6-1.1 2.17a4.64 4.64 0 0 1-2.05 1.3c-.85.28-1.91.47-3.18.47h-1.62c-.13 0-.2.03-.2.19v3.55c0 .17-.09.26-.26.26h-4c-.18 0-.27-.09-.27-.26V22.91c0-.17.09-.27.26-.33a21.21 21.21 0 0 1 2.15-.31c.48-.06 1.02-.1 1.57-.14.56-.06 1.5-.13 2.06-.13Zm-1.53 10.7c0 .1.08.26.22.3h1.28c.42 0 .79-.07 1.08-.18.28-.11.52-.33.69-.61.17-.3.3-.69.38-1.2a17.39 17.39 0 0 0 0-4c-.08-.46-.2-.83-.38-1.1a1.3 1.3 0 0 0-.7-.55c-.3-.08-.66-.14-1.08-.14-.75 0-1.5.09-1.5.27v7.2h.01Z" fill="url(#akk14dgjw)"/><defs><linearGradient id="akk14dgjw" x1="6.85" y1="19.6" x2="45.77" y2="38.01" gradientUnits="userSpaceOnUse"><stop stop-color="#DEE326"/><stop offset=".04" stop-color="#DAE128"/><stop offset=".07" stop-color="#CFDC2C"/><stop offset=".11" stop-color="#BDD333"/><stop offset=".11" stop-color="#BCD233"/><stop offset=".15" stop-color="#B9D134"/><stop offset=".2" stop-color="#AECC37"/><stop offset=".24" stop-color="#9BC33B"/><stop offset=".25" stop-color="#95C03D"/><stop offset=".26" stop-color="#91BF45"/><stop offset=".29" stop-color="#86BC5C"/><stop offset=".32" stop-color="#73B782"/><stop offset=".35" stop-color="#5AB1B6"/><stop offset=".38" stop-color="#43AAE6"/><stop offset=".44" stop-color="#41A6E3"/><stop offset=".5" stop-color="#3E99D9"/><stop offset=".56" stop-color="#3882C9"/><stop offset=".62" stop-color="#3064B2"/><stop offset=".63" stop-color="#2E5DAD"/><stop offset=".64" stop-color="#305AAB"/><stop offset=".7" stop-color="#463598"/><stop offset=".74" stop-color="#531E8D"/><stop offset=".77" stop-color="#581689"/><stop offset=".77" stop-color="#5A1687"/><stop offset=".8" stop-color="#80166B"/><stop offset=".83" stop-color="#9E1656"/><stop offset=".86" stop-color="#B31646"/><stop offset=".88" stop-color="#C0153D"/><stop offset=".91" stop-color="#C4153A"/><stop offset=".92" stop-color="#C51D3B"/><stop offset=".94" stop-color="#C9333F"/><stop offset=".97" stop-color="#CE5745"/><stop offset="1" stop-color="#D6884D"/></linearGradient></defs></svg>