<!-- by TradeStack --><svg viewBox="0 0 56 56" xmlns="http://www.w3.org/2000/svg"><path fill="#F0F3FA" d="M0 0h56v56H0z"/><path fill-rule="evenodd" d="M13 32.54v-9.73c0-1 .8-1.81 1.79-1.81.98 0 1.71.81 1.71 1.81v7.69h2.7c.22 0 .72.11.8.19V22.6c0-.88.75-1.6 1.62-1.6h2.42c1.87 0 3.1 1.6 3.46 2.24v-.45c0-.99.53-1.79 1.5-1.79s1.5.8 1.5 1.79v2.8l2.26-3.83c.3-.47.81-.76 1.37-.76 1.34 0 1.83 1.47 1.22 2.53l-2.08 3.75 3.23 3.81v-8.34c0-.97.42-1.75 1.37-1.75h3.98c.95 0 1.65.56 1.65 1.53S42.8 24 41.85 24H39.5v2H41c.88 0 1.5.63 1.5 1.54 0 .9-.62 1.46-1.5 1.46h-1.5v3.46c0 .96-.45 1.54-1.36 1.54-.72 0-1.19-.33-1.33-.5l-.05.05c-.17.16-.46.45-1.2.45-.62 0-.98-.36-1.15-.54l-.02-.01-3.89-4.61v3.4c0 .97-.54 1.76-1.5 1.76s-1.5-.79-1.5-1.76v-4.18c-.9 2.3-3.46 2.55-4.5 2.43v2.06c0 .89-.7 1.45-1.6 1.45-.72 0-1.09-.43-1.21-.6-.19.44-.75.6-.97.6h-4.78c-.8 0-1.44-.65-1.44-1.46Zm10-5.04V24h.7c.72 0 1.3.78 1.3 1.75s-.58 1.75-1.3 1.75H23ZM13 34H4.37c-.2 0-.37-.11-.37-.25s.17-.25.37-.25h8.23c0 .23.27.43.4.5Zm26.28 0h12.35c.2 0 .37-.11.37-.25s-.17-.25-.37-.25H39.67c0 .23-.26.43-.4.5Z" fill="#004E91"/><path fill-rule="evenodd" d="M37 31.6v-9.06c0-.57.44-1.04.98-1.04h3.95c.6 0 1.07.42 1.07 1.04 0 .62-.48.96-1.07.96H39v3h2.13c.55 0 .87.51.87 1.1 0 .59-.32.9-.87.9h-2.06v3.9c0 .6-.46 1.1-1.03 1.1-.52 0-.95-.4-1.03-.93l-.33-.02-.69.73a.69.69 0 0 1-1.03-.03l-4.35-5.05H30v4.36a1 1 0 0 1-2 0V26h-.5c-.07 2.1-1.65 3.99-3.59 3.99H22.5v2.37c0 .62-.38 1.13-.96 1.13-.53 0-.97-.44-1.03-1h-.33c-.12.53-.56 1-1.1 1h-4.86c-.4 0-.72-.46-.72-.87v-9.95c0-.63.64-1.18 1.26-1.18.6 0 1.24.55 1.24 1.18V31h3.09c.47 0 .87.32 1.04.75h.37v-9.06c0-.66.5-1.19 1.1-1.19h2.31c1.94 0 3.51 1.66 3.59 3.73h.5v-2.67a1 1 0 1 1 2 0v4h.61l2.56-4.51a1 1 0 0 1 1.38-.42c.51.28.7.96.41 1.49l-2.38 4.2 3.73 4.43.69-.15Zm-14.5-4.2v-3.3c0-.33.23-.6.51-.6h.54c1.08 0 1.95 1 1.95 2.25 0 1.24-.87 2.25-1.95 2.25h-.54c-.28 0-.51-.27-.51-.6Z" fill="#F0F3FA"/></svg>