<!-- by TradeStack --><svg viewBox="0 0 56 56" xmlns="http://www.w3.org/2000/svg"><path fill="#F0F3FA" d="M0 0h56v56H0z"/><path d="M5.77 26.95c0-.69-.1-.66-.77-.79V26h1.63L9 30v-4h.56v5h-.74l-2.55-4.23h-.01V31h-.49v-4.05ZM12.98 30.78c-.15.06-.56.22-1.1.22-1.17 0-1.88-.76-1.88-2.14 0-1.3.59-1.86 1.62-1.86 1.32 0 1.42 1.02 1.42 1.57h-2.2c0 .82.32 1.99 1.41 1.99.32 0 .6-.09.73-.14v.36Zm-.7-2.54c0-.19-.02-.96-.7-.96-.57 0-.73.65-.73.96h1.42ZM15.68 30.94c-.17.03-.35.06-.52.06-.74 0-1.16-.12-1.16-1V27.6h-.6v-.3h.6v-.62l.76-.69v1.3h1.01v.31h-1v2.26c0 .55.03.79.63.79.09 0 .19 0 .28-.03v.3ZM17 28h-.62v-.32H17v-.48c0-.57.28-1.2 1.2-1.2.99 0 1.33.32 1.41.84h-.86c0-.25-.1-.6-.5-.6-.44 0-.47.46-.47.8v.64h1.02V28h-1.02v3H17v-3ZM19.33 29c0-1.37.54-2 1.67-2 1.12 0 1.67.82 1.67 2 0 1.34-.53 2-1.67 2-1.24 0-1.67-.85-1.67-2ZM21 30.72c.76 0 .82-.9.82-1.72 0-.75-.07-1.72-.82-1.72-.76 0-.82 1-.82 1.72 0 .69.06 1.72.82 1.72ZM23.28 28.18c0-.58-.13-.73-.62-.74v-.17L24 27v1.08h.07c.11-.3.52-1.08 1.28-1.08.7 0 .94.54.94 1.18V31h-.77v-2.18c0-.66 0-1.25-.52-1.25-.5 0-1 .78-1 1.38V31h-.72v-2.82ZM29.44 30.45c-.19.2-.5.55-1.06.55-1 0-1.38-.9-1.38-1.92 0-1.05.4-2.08 1.41-2.08.63 0 .87.34 1.02.62h.01v-1.46c0-.58-.12-.72-.57-.75v-.16L30.2 25v6h-.77v-.55Zm0-1.7c0-.45-.08-1.3-.81-1.3-.71 0-.78.94-.78 1.51 0 .64.06 1.6.78 1.6.74 0 .81-1.03.81-1.47v-.33ZM33.2 27.76c-.12-.09-.49-.4-.92-.4-.24 0-.54.1-.54.45 0 .78 1.69.8 1.69 2.06 0 .8-.62 1.13-1.39 1.13-.47 0-.8-.1-.98-.15v-.64c.22.17.58.43 1.01.43.49 0 .67-.26.67-.55 0-.8-1.7-.86-1.7-1.99 0-.6.39-1.1 1.3-1.1.39 0 .73.1.86.14v.62ZM37.8 26.95c.05-.13.14-.38.14-.44 0-.3-.29-.3-.6-.35V26h1.46l1.88 5h-.8l-.58-1.55h-1.97L36.75 31h-.48l1.54-4.05Zm-.34 2.16h1.7l-.87-2.17-.83 2.17ZM45 30.7c-.33.1-1.06.3-1.76.3-1.7 0-2.24-1-2.24-2.58C41 27 41.48 26 43.2 26c1.17 0 1.67.43 1.74 1H44c-.03-.26-.24-.66-.91-.66-1.12 0-1.23 1.2-1.23 2.14 0 1.19.33 2.18 1.55 2.18.3 0 .51-.05.73-.12v-1.62c0-.65-.1-.64-.78-.76V28H45v2.7Z" fill="#686868"/><path d="M47 20v3.24h-1.42V20H47Zm1.6 4.41-1.01-1 2.28-2.3 1.01 1.02-2.29 2.28Zm3.4.44h-3.24v1.43H52v-1.43ZM49.87 30l-2.3-2.29 1.02-1 2.28 2.28-1 1.01ZM42 22.13l2.29 2.3 1-1.02-2.28-2.28-1.01 1Z" fill="#2CABD8"/></svg>