<!-- by TradeStack --><svg viewBox="0 0 56 56" xmlns="http://www.w3.org/2000/svg"><path fill="#F0F3FA" d="M0 0h56v56H0z"/><path fill-rule="evenodd" d="M28 44a16 16 0 0 0 13.86-24H26v-1h15.23A16 16 0 0 0 13 33.58V28h3.32c.4 0 1.25.36 1.25 1.7 0 .96-.53 1.44-1.07 1.69.55.3.75.89.85 1.2l.06.15L18 34h-1.75c-.23-.49-.72-1.55-.87-1.91-.1-.25-.26-.4-.38-.48h-.46V34h-1.38c.6 1.45 1.38 2.8 2.35 4H31v1H16.38c2.92 3.08 7.04 5 11.62 5Zm10-10a6 6 0 1 0 0-12 6 6 0 0 0 0 12Zm.5-1a1.5 1.5 0 1 0 0-3 1.5 1.5 0 0 0 0 3ZM15 21v6h1.66v-3.1l1.83 3.1H20v-6h-1.51v3.23L16.56 21H15Zm6.32 3.34-1.25-.26.02-.07c.13-.37.35-1.01 2.05-1.01 1.54 0 1.72.68 1.73 1.02v2.52c0 .16.17.37.25.46h-1.35l-.12-.51c-.19.17-.71.51-1.33.51-.99 0-1.24-.73-1.25-1.09 0-1.12 1.33-1.3 1.92-1.39l.15-.02c.36-.06.43-.24.41-.32 0-.11-.12-.34-.48-.34s-.65.33-.75.5Zm1.23 1.43v-.69c-.07.05-.3.18-.75.3-.55.16-.51.82 0 .82a.9.9 0 0 0 .75-.43ZM25.52 23h-1.4v4h1.4v-2.28c.14-.26.34-.51.57-.51.36 0 .44.35.43.53V27h1.36v-2.61c0-.6-.14-1.39-1.17-1.39-.59 0-.98.27-1.19.52V23Zm6.53 2c0 1.1-.9 2-2.03 2-1.11 0-2.02-.9-2.02-2s.9-2 2.02-2 2.03.9 2.03 2Zm-1.37 0c0 .53-.3.97-.66.97-.36 0-.65-.44-.65-.97s.29-.97.65-.97c.37 0 .66.44.66.97Zm-.66 9c1.12 0 2.03-.9 2.03-2s-.9-2-2.03-2c-1.11 0-2.02.9-2.02 2s.9 2 2.02 2Zm0-1.03c.37 0 .66-.44.66-.97s-.3-.97-.66-.97c-.36 0-.65.44-.65.97s.29.97.65.97Zm-14.63-3.8h-.83v1.31h.83c.35 0 .63-.29.63-.65a.65.65 0 0 0-.63-.66Zm3.67 3.26h2.55c.1-.95-.18-2.43-2.02-2.43-1.64 0-2.05 1.37-2.05 2.1 0 .64.5 1.9 2.05 1.9 1.56 0 1.98-.72 2-1.08l-1.36-.18a.52.52 0 0 1-.52.43c-.45 0-.65-.27-.65-.74Zm-.1-.69h1.33c-.01-.27-.18-.82-.7-.82-.5 0-.63.55-.63.82ZM21.7 30H23v.55c.27-.34.64-.55 1.05-.55.84 0 1.52.9 1.52 2s-.68 2-1.52 2c-.4 0-.78-.21-1.05-.55v2.25h-1.3V30Zm2 2.97c.36 0 .65-.44.65-.97s-.3-.97-.66-.97c-.36 0-.65.44-.65.97s.3.97.65.97ZM27 30h-1.3v4H27v-1.97c.04-.52.32-.93.66-.93.16 0 .3.09.41.23l.38-1.23c-.15-.06-.3-.1-.47-.1-.37 0-.71.2-.98.5V30Z" fill="#1E2144"/></svg>