<!-- by TradeStack --><svg viewBox="0 0 56 56" xmlns="http://www.w3.org/2000/svg"><path fill="#F0F3FA" d="M0 0h56v56H0z"/><path d="M8 31h2c0 1.4 1.9 2 3.5 2 1.18 0 3.5-.34 3.5-2 0-1.57-2.85-2.17-4-2.5-2.37-.68-5-1.06-5-3.75C8 22.03 11.2 21 13.5 21c2.51 0 5 1.1 5 4h-2c0-1.4-1.48-2-3-2-1.2 0-3.5.24-3.5 1.75 0 1.62 2.8 1.92 4 2.25 2.2.64 5 1.16 5 4 0 2.83-3.14 4-5.5 4-2.42 0-5.5-1.2-5.5-4ZM28 29v-2h7v8h-2v-2.5c-1.03 1.6-2.72 2.5-5 2.5-4.2 0-7-3.22-7-7 0-3.83 3.18-7 7.36-7a7.29 7.29 0 0 1 6.12 3.2l-1.85 1.08A5.01 5.01 0 0 0 28.36 23C25.34 23 23 25.3 23 28c0 2.67 1.98 5 5 5 2.43 0 4.6-1.82 5-4h-5ZM36 23v-2h12v2h-5v12h-2V23h-5Z" fill="#315598"/></svg>