<!-- by TradeStack --><svg viewBox="0 0 56 56" xmlns="http://www.w3.org/2000/svg"><path fill="#F0F3FA" d="M0 0h56v56H0z"/><path d="M48 32h.43C50.4 32 51 30.62 51 28.93v-.86c0-1.69-.6-3.07-2.57-3.07H45v1h3.21c1.4 0 1.79.98 1.79 2.2v.6c0 1.22-.38 2.2-1.79 2.2H48v1Z" fill="#ABC832"/><path d="m44 25.49 1.44-1.43c.1-.1.33-.06.43.04l.02.02a.4.4 0 0 1 .11.29c0 .07-.03.14-.08.19l-.92.89.9.94a.31.31 0 0 1 0 .45l-.02.03a.32.32 0 0 1-.45 0L44 25.49Z" fill="#ABC832"/><path d="m47 31.49-1.44-1.43c-.1-.1-.33-.06-.43.04l-.02.02a.4.4 0 0 0-.11.29c0 .07.03.14.08.19l.92.89-.9.94a.31.31 0 0 0 0 .45l.02.03c.12.12.33.12.45 0L47 31.49Z" fill="#A69F9C"/><path d="M43 25h-.43C40.6 25 40 26.38 40 28.07v.86c0 1.69.6 3.07 2.57 3.07H46v-1h-3.21c-1.4 0-1.79-.98-1.79-2.2v-.6c0-1.22.38-2.2 1.79-2.2H43v-1ZM44 22.64s.18.3-1.52.95c-1.7.65-2.2.95-2.4.86-.2-.08 0-.24.19-.38.2-.14 3.5-1.74 3.72-1.43Z" fill="#A69F9C"/><path d="M42.11 22.49S41 22.02 41 21.35c0-.66.52-1.35 1.3-1.35.77 0 1.47.43 1.56 1.16.1.74.39 1.9-.33 1.84-.71-.07-1.42-.51-1.42-.51Z" fill="#ABC832"/><path d="M41.03 21S39 21.06 39 22.08 39.66 24 40.42 24c.76 0 2.58-.58 2.58-1.38 0-.8-1.42-1.6-1.97-1.62Z" fill="#C9D22B"/><path d="M33.55 25h4.9c.3 0 .55.21.55.47V27h-.5v-1.29c0-.14-.14-.26-.3-.26h-4.4c-.16 0-.3.12-.3.26V27H33v-1.53c0-.26.25-.47.55-.47Z" fill="#ABC832"/><path d="M36 25h.5v2H36v-2ZM31.99 27h-5.44c-.3 0-.55-.21-.55-.47V25h.5v1.24c0 .14.14.26.3.26h4.7V25h.5l-.01 2ZM19.55 25H25v.5h-5.2c-.16 0-.3.12-.3.26V27H19v-1.53c0-.26.25-.47.55-.47ZM17.45 27H12v-.5h5.15c.16 0 .3-.12.3-.26V25H18v1.53c0 .26-.25.47-.55.47Z" fill="#ABC832"/><path d="M12.55 26H18v-.5h-5.2c-.16 0-.3-.1-.3-.22V25H12v.6c0 .22.25.4.55.4ZM4 32h37l-.5-.5H4v.5Z" fill="#ABC832"/><path d="M10 25H4.7c-.39 0-.7.27-.7.6V32h.5v-6.24c0-.14.12-.26.27-.26h5.33c.18 0 .33.25.33.42V26c0 .2-.16.5-.37.5H6v.5h4.05c.64 0 .95-.45.95-1s-.55-1-1-1Z" fill="#ABC832"/><path fill="#D9D9D9" d="M19 28h20v2H19z"/></svg>