<!-- by TradeStack --><svg viewBox="0 0 56 56" xmlns="http://www.w3.org/2000/svg"><path fill="#F0F3FA" d="M0 0h56v56H0z"/><path d="M41 37.61 28 43.5l-13-5.89V18.28l13-5.79 13 5.79V37.6ZM14 17.46v20.96l1.12.53 12.02 5.65.86.4.86-.4 12.02-5.65 1.12-.53V17.46l-1.13-.52-12.02-5.55L28 11l-.84.39-12.03 5.55-1.13.52Z" fill="#C39164"/><path d="M28.6 28.48v3.2h2.14V33H28.6v1.5h3.07V36H28.6v2H27v-9.61a4.25 4.25 0 0 1-3.3-4.29c0-.18 0-.37.03-.57A4.11 4.11 0 0 1 27 19.84V18h1.6v1.77a4.62 4.62 0 0 1 1.75.54 4.33 4.33 0 0 1 1.7 1.74l.21.4H30.8l-.08-.11a3.14 3.14 0 0 0-1.6-1.13 3.18 3.18 0 0 0-3.8 1.69c-.18.38-.27.8-.27 1.25a3.16 3.16 0 0 0 3.13 3.07 3.28 3.28 0 0 0 2.57-1.35l.08-.1h1.49l-.23.39a4.46 4.46 0 0 1-3.47 2.32Z" fill="#C39164"/></svg>