<!-- by TradeStack --><svg viewBox="0 0 56 56" xmlns="http://www.w3.org/2000/svg"><path fill="#F0F3FA" d="M0 0h56v56H0z"/><path d="M10.36 23.38c-.83-.26-1.7-.4-2.58-.38-1.9 0-3.78.87-3.78 3.25 0 3.52 5 2.74 5 4.75 0 .96-1.36 1.31-2.18 1.31a5.3 5.3 0 0 1-2.45-.65l-.2 1.93c.9.27 1.83.41 2.77.41 2.19 0 4.06-.88 4.06-3.23 0-3.57-5-2.92-5-4.77 0-1.16 1.22-1.33 1.96-1.33.76 0 1.51.16 2.2.46l.2-1.76v.01ZM15 34h2v-9h3v-2h-8v2h3v9ZM21 34h6v-2h-4v-3h3.5v-2H23v-2h4v-2h-6v11ZM29 34h2V23h-2v11ZM40.91 31.88a5.6 5.6 0 0 1-2.25.44c-2.2 0-3.66-1.65-3.66-3.82s1.48-3.82 3.61-3.82c.78-.03 1.55.16 2.23.56l.15-1.8a6.61 6.61 0 0 0-2.33-.44c-3.5 0-5.66 2.05-5.66 5.69 0 3.6 2.32 5.31 5.66 5.31.79-.02 1.57-.13 2.34-.33l-.09-1.79ZM42 28.47c0 3.27 1.72 5.53 5 5.53 3.23 0 5-2.32 5-5.53 0-3.21-1.8-5.47-5-5.47-3.24 0-5 2.2-5 5.47Zm2 0c0-1.87.98-3.8 3-3.8s3 1.93 3 3.8c0 1.88-.91 3.86-3 3.86s-3-1.94-3-3.86Z" fill="#706F6F"/><path d="M28.57 17c1.87-.5 3.81.27 5.43-1-1.3 1.41-1.05 3.39-2 5.04-.68 1.17-2.16.86-3.26.7-.48-.06.31 1.17.14 1.76-.1.34-.74.7-1 .37-.65-.77-.17-1.96.2-2.84.09-.22-.57-.23-.85-.77-.6-1.23 0-2.9 1.33-3.26h.01Z" fill="#52AE32"/></svg>