<!-- by TradeStack --><svg viewBox="0 0 56 56" xmlns="http://www.w3.org/2000/svg"><path fill="#F0F3FA" d="M0 0h56v56H0z"/><path fill-rule="evenodd" d="m31.1 19.59.2-.74a.33.33 0 0 0-.22-.4.31.31 0 0 0-.4.22l-.25.92h.66Zm-1.25.87c0 .24.19.43.42.43.23 0 .42-.2.42-.43a.43.43 0 0 0-.42-.44c-.23 0-.42.2-.42.44Zm-1.92-.87h1.27v-1.26a.64.64 0 0 0-.63-.66c-.35 0-.64.3-.64.66v1.26Zm.46 1.25c.06.03.13.05.2.05.24 0 .43-.2.43-.43a.43.43 0 0 0-.42-.44c-.24 0-.42.2-.42.44 0 .1.02.18.07.25h.01c.04.05.08.1.13.13Zm-1.9-.38c0 .24.19.43.42.43.23 0 .42-.2.42-.43a.43.43 0 0 0-.42-.44c-.23 0-.42.2-.42.44Zm-.39-2.02a.33.33 0 0 0-.22.4l.21.74h.66l-.26-.92a.32.32 0 0 0-.15-.2c-.04-.02-.13-.05-.24-.02Zm3.98.04a.94.94 0 0 1 1.18-.67c.5.16.79.7.64 1.22l-.64 2.27c.43.2.85.46 1.24.76 2.3 1.79 3.55 4.8 3.65 7.74.1 1.2-.06 2.46-.37 3.63-.72 3.4-3.63 6.57-7.15 6.57-5.07 0-7.75-5.78-7.52-10.29v-.05l.04-.56v-.08c.33-3.08 2.02-6.36 4.78-7.7l-.65-2.29a.99.99 0 0 1 .64-1.22.94.94 0 0 1 1.17.65v-.14c0-.7.47-1.29 1.09-1.47v-.5h-.63v-.76h.63V15h.84v.59h.63v.76h-.63v.52c.6.2 1.02.77 1.02 1.45v.3l.04-.14Zm-8.11 10.84-.03.28c-.2 3.94 1.92 9.25 6.36 9.52V21.58c-3.75.23-6.04 4.2-6.34 7.74Zm7.03 9.8c3.15-.2 5.25-3.14 6-6.08.27-1.16.37-2.34.29-3.52-.23-2.6-1.26-5.18-3.33-6.78A5.34 5.34 0 0 0 29 21.58V39.1Zm-1.86-11.47v-1.81l-.53.64v1.17h-.51v-1.81l-.53.64v1.17h-.52v-1.81l-.52.64v1.17h-.52v-1.81l-.52.64v1.17h-.21l-.62.55h4.5l.62-.55h-.64Zm0 1.7v1.82h.64l-.62.54h-4.7l.62-.54h.4V30l.54-.64v1.8h.51V30l.52-.64v1.8h.52V30l.53-.64v1.8h.5V30l.54-.65Zm0 5.32v-1.81l-.53.64v1.17h-.51v-1.81l-.53.64v1.17h-.52v-1.81l-.52.64v1.17h-.39l-.62.54h3.64l.62-.54h-.64Zm6.35-7.1v.63h-.46v-.5l-.38-.55v.66l-.27.39h-.55l.31-.43v-.54l-1.36.24-.52.73h-.64v-.47H30l.3-.42-.68-.5v-.58l.94.7.18-.26.1-.13h-.49v-.27h.36v-.18h-.36v-.35H31.07l.39-.4v1.17h1.1v-.49h.51v.95l.42.6Zm-.93-1.55h-.55l.56-.79h.55l-.56.79Zm.93 5.7v-.63l-.42-.6v-.95h-.5l.55-.8h-.55l-.56.8h.55v.49h-1.1v-1.18l-.39.4h-.71v.35h.35v.18h-.36v.27h.49l-.1.13-.18.27-.94-.7v.57l.68.5-.3.42h-.38v.47h.65l.5-.73 1.37-.23v.53l-.31.43h.55l.27-.38v-.66l.38.54v.5h.46Zm0 2.87v.62h-.46v-.5l-.38-.54v.66l-.27.38h-.55l.31-.43v-.53l-1.36.23-.52.73h-.64v-.47H30l.3-.42-.68-.5v-.57l.94.7.18-.26.1-.14h-.49v-.27h.36v-.18h-.36v-.34H31.07l.39-.4v1.17h1.1v-.5h.51v.95l.42.61Zm-.93-1.55h-.55l.56-.8h.55l-.56.8Zm7.04-1.3a.87.87 0 0 0-.23.98l.06.14.61 1.34h-2.06c-.33 0-.6.27-.63.61l1.84.78h1.46c.35 0 .63-.29.63-.65V33.5h.9v-1.13l-.43-.4-1.13-1.05-1.02.8Zm7.1-.38L43.5 28.4v-5.82h.6c.35 0 .64-.29.64-.65v-.26H43.5v-.48h3.66l.74-.65H46.7v-1.79l-.55.68v1.1h-.49v-1.78l-.54.68v1.1h-.49v-1.78l-.54.68v1.1h-.49v-1.78l-.54.68v1.1h-.5v-1.78l-.53.68v1.13l-1.42 1.1h-.86c-.24 0-.42.2-.42.44v.56l1.34 1v.25h-.18a2.35 2.35 0 0 0-2.27 2.84l1.18-.85v.58l-.18.13-.4.29-1.45 1.05-.17.12c-.28.2-.52.67-.52 1.03v3.97l.51-.35.02-.01c.3-.2.53-.67.53-1.02v-2.44c0-.12.1-.22.21-.22h2.95l.5.47H39.8l2.85 2.66v2.8c0 .36.3.65.64.65h2.25v1.3l-1.2.9 1.27.54 1.33-1v-2.66a.65.65 0 0 0-.63-.66h-1.54l.33-.5h.97c.34 0 .63-.3.63-.66V32.3h.68c.34 0 .63-.3.63-.66v-.26h-1.31Zm-4.36-9.7h-1.11v.63l1.1-.63Zm-4.45 5.07-.1-.32-.26-.82-.06-.19c-.1-.34-.43-.78-.72-.97l-2.44-1.59a.78.78 0 0 0-.19-.09c.5.58.94 1.23 1.32 1.94l.88.58.67 2.13.06.2.9-.67-.06-.2ZM14.4 18.11l.68-.85.4 1.71-3.7.92-.4-1.7.98.43a1.1 1.1 0 0 1 .54-1.15l-.03-.15-.07-.3-.3.07-.16.04a25.8 25.8 0 0 1-.12-.53l.46-.11-.1-.44.25-.07.26-.06.1.44.33-.08.13-.03.12.53-.46.11.1.45c.45 0 .86.31 1 .77Zm1.98 14.79v1.85c0 .36.29.66.64.66h1.45l1.65-.71v-.1a.65.65 0 0 0-.63-.66h-1.15v-2c0-.36-.27-.78-.58-.92l-1.19-.53-1.6.68v1.72h1.41Zm5.55-9.47h.65a11.13 11.13 0 0 0-1.71 3.67h-1.84l-1.33-1.86h2.34l.89-1.28c.2-.29.65-.53 1-.53Zm25.1 16.41L35.9 35.2l.2-.51 11.14 4.65-.2.5Zm-25.6-4.55L10.4 39.9l-.2-.5 11.05-4.6.2.5Zm-.99-4.92v-.44L16.7 24.7h1.13l-.77-1.08h-1.88l-.37-.51h2.27l.17-.59h-1.2v-.26h2.14c.2 0 .38-.18.38-.4v-.54a.1.1 0 0 0-.1-.1h-.22a.1.1 0 0 0-.1.1v.4a.1.1 0 0 1-.11.1h-2v-.2l.68-.16.61-.15.2-.67c.1-.34-.1-.62-.45-.62h-1.14l-.34-.54-3.7.93v2.68h.54v2h.58v2h.68l-2.21 2.98-1.63-1.18a.23.23 0 0 1-.06-.3l1.33-1.97c.2-.3.14-.7-.15-.91l-.87-.63a.9.9 0 0 0-.34-.93l-1.78-1.29.2 1.23L7 24.3l1.78 1.29c.3.21.68.2.96.01l.7.5c.1.08.11.21.05.31L9.16 28.4c-.2.3-.13.7.15.91l2.17 1.57v2.04h-.85c-.35 0-.64.3-.64.65v3.5c0 .36.16.6.48.74l1.13.53 2.32-.99v-.05a.64.64 0 0 0-.6-.65h-1.27v-2h1.85a.65.65 0 0 0 .58-.66v-3.15l3.17-1.34-1.16-1.1v-.69l2.81 2.64v.61c0 .13.09.26.2.32l.07.04.94.47c-.05-.46-.08-.93-.08-1.4h.01Zm-5.83-9.92h1.1v.63l-1.1-.63Z" fill="#002E5F"/></svg>