<!-- by TradeStack --><svg viewBox="0 0 56 56" fill="none" xmlns="http://www.w3.org/2000/svg">
<rect width="56" height="56" fill="#F0F3FA"/>
<path fill-rule="evenodd" clip-rule="evenodd" d="M6 23H5V25H6V31H8V25V23H6Z" fill="#007EC4"/>
<path fill-rule="evenodd" clip-rule="evenodd" d="M10 23H9V25H10V31H12V25V23H10Z" fill="#007EC4"/>
<path fill-rule="evenodd" clip-rule="evenodd" d="M17 23C18.3807 23 19.5 23.8876 19.5 24.9824C19.5 25.5612 19.1872 26.082 18.6883 26.4445C19.4802 26.9062 20 27.6837 20 28.565C20 29.9817 18.6569 31.1301 17 31.1301C15.3432 31.1301 14 29.9817 14 28.565C14 27.6837 14.5198 26.9062 15.3117 26.4445C14.8128 26.082 14.5 25.5612 14.5 24.9824C14.5 23.8876 15.6193 23 17 23ZM17 24C17.5523 24 18 24.4477 18 25C18 25.5523 17.5523 26 17 26C16.4477 26 16 25.5523 16 25C16 24.4477 16.4477 24 17 24ZM17 27C17.5523 27 18 27.4477 18 28C18 28.5523 17.5523 29 17 29C16.4477 29 16 28.5523 16 28C16 27.4477 16.4477 27 17 27Z" fill="#007EC4"/>
<path fill-rule="evenodd" clip-rule="evenodd" d="M24 23C25.3807 23 26.5 23.8876 26.5 24.9824C26.5 25.5612 26.1872 26.082 25.6883 26.4445C26.4802 26.9062 27 27.6837 27 28.565C27 29.9817 25.6569 31.1301 24 31.1301C22.3432 31.1301 21 29.9817 21 28.565C21 27.6837 21.5198 26.9062 22.3117 26.4445C21.8128 26.082 21.5 25.5612 21.5 24.9824C21.5 23.8876 22.6193 23 24 23ZM24 24C24.5523 24 25 24.4477 25 25C25 25.5523 24.5523 26 24 26C23.4477 26 23 25.5523 23 25C23 24.4477 23.4477 24 24 24ZM24 27C24.5523 27 25 27.4477 25 28C25 28.5523 24.5523 29 24 29C23.4477 29 23 28.5523 23 28C23 27.4477 23.4477 27 24 27Z" fill="#007EC4"/>
<path fill-rule="evenodd" clip-rule="evenodd" d="M40 35C40.5523 35 41 35.4477 41 36C41 36.5523 40.5523 37 40 37C39.4477 37 39 36.5523 39 36C39 35.4477 39.4477 35 40 35Z" fill="#A7C03E"/>
<path fill-rule="evenodd" clip-rule="evenodd" d="M27 18C27.5523 18 28 18.4477 28 19C28 19.5523 27.5523 20 27 20C26.4477 20 26 19.5523 26 19C26 18.4477 26.4477 18 27 18Z" fill="#A7C03E"/>
<path fill-rule="evenodd" clip-rule="evenodd" d="M18.5 37C19.3284 37 20 37.6716 20 38.5C20 39.3284 19.3284 40 18.5 40C17.6716 40 17 39.3284 17 38.5C17 37.6716 17.6716 37 18.5 37Z" fill="#A7C03E"/>
<path fill-rule="evenodd" clip-rule="evenodd" d="M39.5 17C40.8807 17 42 18.1193 42 19.5C42 20.8807 40.8807 22 39.5 22C38.1193 22 37 20.8807 37 19.5C37 18.1193 38.1193 17 39.5 17Z" fill="#A7C03E"/>
<path fill-rule="evenodd" clip-rule="evenodd" d="M18.7012 38.2932L26.4628 34.5376L26.6806 34.9876L18.919 38.7433L18.7012 38.2932Z" fill="#A7C03E"/>
<path fill-rule="evenodd" clip-rule="evenodd" d="M36.4852 30.4925L33.2862 32.0761L33.0644 31.628L36.2633 30.0444L36.4852 30.4925Z" fill="#A7C03E"/>
<path fill-rule="evenodd" clip-rule="evenodd" d="M29.6642 22.5896L27.1346 19.4885L27.5221 19.1724L30.0516 22.2735L29.6642 22.5896Z" fill="#A7C03E"/>
<path fill-rule="evenodd" clip-rule="evenodd" d="M36.133 30.203L39.1308 19.1427L39.6134 19.2735L36.6156 30.3338L36.133 30.203Z" fill="#A7C03E"/>
<path fill-rule="evenodd" clip-rule="evenodd" d="M34.6583 27.5706L36.5825 30.1293L39.692 35.3937L39.2615 35.648L36.1661 30.4075L34.2587 27.8711L34.6583 27.5706Z" fill="#A7C03E"/>
<path fill-rule="evenodd" clip-rule="evenodd" d="M45.4332 29.0386C45.4332 27.9127 44.5378 27 43.4332 27C42.3287 27 41.4332 27.9127 41.4332 29.0386C41.4332 30.1644 42.3287 31.0771 43.4332 31.0771C44.5378 31.0771 45.4332 30.1644 45.4332 29.0386ZM44.2106 29.0462C44.2106 28.5921 43.8788 28.224 43.4695 28.224C43.0602 28.224 42.7283 28.5921 42.7283 29.0462C42.7283 29.5002 43.0602 29.8683 43.4695 29.8683C43.8788 29.8683 44.2106 29.5002 44.2106 29.0462Z" fill="#31307C"/>
<path fill-rule="evenodd" clip-rule="evenodd" d="M41 27.1106C40.7675 27.0389 40.5178 27 40.2577 27C39.0108 27 38 27.8954 38 29C38 30.1046 39.0108 31 40.2577 31C40.5178 31 40.7675 30.9611 41 30.8894V29.693C40.8217 29.8797 40.5733 30 40.2987 30C39.7561 30 39.3162 29.5305 39.3162 29.0075C39.3162 28.4844 39.7561 28 40.2987 28C40.5733 28 40.8217 28.1242 41 28.3146V27.1106Z" fill="#31307C"/>
<path fill-rule="evenodd" clip-rule="evenodd" d="M46 27H47V28.1742C47 27.5284 47.415 27 47.9223 27H47.9855C48.5435 27 49 27.5812 49 28.2917V28.1742C49 27.5284 49.415 27 49.9223 27H49.9855C50.5435 27 51 27.5812 51 28.2917V31H50V28.7275C50 28.3637 49.7905 28.0661 49.5047 28.0661H49.4723C49.2125 28.0661 49 28.3367 49 28.6674V31H48V28.7518C48 28.3879 47.7905 28.0661 47.5047 28.0661H47.4723C47.2125 28.0661 47 28.3367 47 28.6674V31H46V27Z" fill="#31307C"/>
<path fill-rule="evenodd" clip-rule="evenodd" d="M6 32H8V34H6V32Z" fill="#31307C" fill-opacity="0.7"/>
<path fill-rule="evenodd" clip-rule="evenodd" d="M9 32H18V34H9V32Z" fill="#31307C" fill-opacity="0.7"/>
<path fill-rule="evenodd" clip-rule="evenodd" d="M19 32H23V34H19V32Z" fill="#31307C" fill-opacity="0.7"/>
<path fill-rule="evenodd" clip-rule="evenodd" d="M36 29C36.5523 29 37 29.4477 37 30C37 30.5523 36.5523 31 36 31C35.4477 31 35 30.5523 35 30C35 29.4477 35.4477 29 36 29Z" fill="#31307C"/>
<path fill-rule="evenodd" clip-rule="evenodd" d="M35 27C35 24.7909 33.6569 23 32 23C30.3431 23 29 24.7909 29 27C29 29.2091 30.3431 31 32 31C33.6569 31 35 29.2091 35 27ZM33 27C33 25.8954 32.5523 25 32 25C31.4477 25 31 25.8954 31 27C31 28.1046 31.4477 29 32 29C32.5523 29 33 28.1046 33 27Z" fill="#007EC4"/>
<path fill-rule="evenodd" clip-rule="evenodd" d="M24 32H35V34H24V32Z" fill="#31307C" fill-opacity="0.7"/>
</svg>
