<!-- by TradeStack --><svg viewBox="0 0 56 56" fill="none" xmlns="http://www.w3.org/2000/svg">
<rect width="56" height="56" fill="#F0F3FA"/>
<path fill-rule="evenodd" clip-rule="evenodd" d="M5.50003 34H8.00003L10 25H13.5L14 23H4.55047L4 25H7.50003L5.50003 34Z" fill="#BF0E2B"/>
<path fill-rule="evenodd" clip-rule="evenodd" d="M15.4668 32H22L21.5 34C18.3717 34 15.1283 34 12 34L14.5 23C17.6112 23 20.8888 23 24 23L23.4163 25H17L16.5251 27H23L22.3644 29H16.1587L15.4668 32Z" fill="#BF0E2B"/>
<path fill-rule="evenodd" clip-rule="evenodd" d="M34.4668 32H41L40.5 34C37.3717 34 34.1283 34 31 34L33.5 23C36.6112 23 39.8888 23 43 23L42.4163 25H36L35.5251 27H42L41.3644 29H35.1587L34.4668 32Z" fill="#BF0E2B"/>
<path fill-rule="evenodd" clip-rule="evenodd" d="M22 34C24.8182 34 27.6818 34 30.5 34L31 32H25L27.0235 23H24.5L22 34Z" fill="#BF0E2B"/>
<path fill-rule="evenodd" clip-rule="evenodd" d="M42 29C44.0607 29 45.9393 29 48 29L47.5 32H41.5L41 34C43.8733 34 46.7559 33.9776 49.6079 33.9776L51.0633 27C49.1053 27 47.0622 27 45 27L45.5 25H51.5L52 23C49.1255 23 46.3745 23 43.5 23L42 29Z" fill="#BF0E2B"/>
</svg>
