<!-- by TradeStack --><svg viewBox="0 0 56 56" xmlns="http://www.w3.org/2000/svg"><path fill="#005CA9" d="M0 0h56v56H0z"/><path d="M26.86 12a8.92 8.92 0 0 1 7.3 3.85 7.95 7.95 0 0 0-5.51-2.57c-5.04 0-7.56 4.47-7.56 7.37 0 2.12.88 3.88 1.32 4.5.98.68 2.91.91 3.76.94.83.7 2.18 1.36 2.75 1.6-5.94.92-9.64-4.43-9.64-7.75 0-3.6 2.7-7.94 7.58-7.94Zm-10.8 14L15 28h9.07a10.57 10.57 0 0 1-2.64-2h-5.37ZM31 24.2c1.4-1.34 3.64-4.98 1.47-8.84 1.8 1.26 4.62 4.88 1.49 9.3-.69-.02-2.25-.14-2.96-.46Zm6.03 1.8h3.7L42 28h-4.62c-9.17.02-11.37-2.73-13.22-5.05l-.13-.16c-1.46-1.81-1.26-5.13-1-5.7a8.8 8.8 0 0 1 3.03-2.44c-2.18 3.84-.57 7.32 1.99 9.18 2.04 1.5 6.98 2.23 8.98 2.17Zm-2.76 4.76a4.27 4.27 0 0 1 3.41 6.83l.67.68-.97.98-.7-.7a4.27 4.27 0 1 1-2.42-7.79Zm-2.77 4.27a2.85 2.85 0 0 0 2.77 2.93c.52 0 1-.15 1.42-.41l-.94-.95.97-.99.92.93c.25-.44.4-.96.4-1.5a2.85 2.85 0 0 0-2.77-2.94 2.85 2.85 0 0 0-2.77 2.93ZM27 39h1.5v-8H27v8Zm-16.5-8H9v4.65c0 1.8 1.47 3.35 3.75 3.35 2.28 0 3.75-1.54 3.75-3.35V31H15v4.34c0 1.43-1.02 2.3-2.25 2.3a2.18 2.18 0 0 1-2.25-2.3V31ZM25 31v8h-.87l-4.63-4.98V39H18v-8h.85l4.65 5v-5H25Zm20.33 8h1.66l-3.43-8h-1.04l-3.53 8h1.62l.63-1.5h3.48l.61 1.5Zm-3.53-2.82L43 33.3l1.18 2.88H41.8Z" fill="#fff"/></svg>