<!-- by TradeStack --><svg viewBox="0 0 56 56" xmlns="http://www.w3.org/2000/svg"><path fill="#2E2AC2" d="M0 0h56v56H0z"/><path d="M15.3 19a4.2 4.2 0 0 1 4.04 3.2A4.2 4.2 0 0 1 23.4 19c2.31 0 4.18 1.91 4.18 4.28a4.23 4.23 0 0 1-4.18 4.27 4.2 4.2 0 0 1-4.05-3.2 4.2 4.2 0 0 1-4.05 3.2 4.23 4.23 0 0 1-4.18-4.27A4.23 4.23 0 0 1 15.3 19Zm17.18 0h8.54c2.2 0 3.98 1.8 3.98 4s-1.78 4-3.98 4h-8.54c-2.2 0-3.98-1.8-3.98-4s1.78-4 3.98-4Zm-8.96 10h-8.54c-2.2 0-3.98 1.8-3.98 4s1.78 4 3.98 4h8.54c2.2 0 3.98-1.8 3.98-4s-1.78-4-3.98-4Zm8.96 0h8.54c2.2 0 3.98 1.8 3.98 4s-1.78 4-3.98 4h-8.54c-2.2 0-3.98-1.8-3.98-4s1.78-4 3.98-4Z" fill="#fff"/></svg>