<!-- by TradeStack --><svg viewBox="0 0 56 56" xmlns="http://www.w3.org/2000/svg"><path fill="#003C69" d="M0 0h56v56H0z"/><path d="M15.06 27H12c.22-5.59 4.16-10 8.59-10s6.95 4.1 7.77 5.1c.65.81 2.06 3.04 2.68 4.05.7-1.05 2.3-3.4 3-4.42.88-1.27 1.81-2.44 3.56-2.44 4.38 0 6.24 5.1 6.4 7.71h-2c-.44-4.15-2.7-5.7-4.07-5.7-1.1 0-1.88.9-2.14 1.34L32.73 27H29.3c-.4-.62-1.53-2.33-2.8-4.2a5.83 5.83 0 0 0-4.97-2.8c-5.25 0-6.5 4.57-6.46 7ZM15.06 29H12c.22 5.59 4.16 10 8.59 10s6.95-4.1 7.77-5.1c.65-.81 2.06-3.04 2.68-4.05.7 1.05 2.3 3.4 3 4.42.88 1.27 1.81 2.44 3.56 2.44 4.38 0 6.24-5.1 6.4-7.71h-2c-.44 4.15-2.7 5.7-4.07 5.7-1.1 0-1.88-.9-2.14-1.34L32.73 29H29.3c-.4.62-1.53 2.33-2.8 4.2a5.83 5.83 0 0 1-4.97 2.8c-5.25 0-6.5-4.57-6.46-7Z" fill="#fff"/></svg>