<!-- by TradeStack --><svg viewBox="0 0 56 56" xmlns="http://www.w3.org/2000/svg"><path fill="#F0F3FA" d="M0 0h56v56H0z"/><path d="M14.55 42a2.5 2.5 0 0 1-1.48-.5 2.66 2.66 0 0 1-.84-3.22l10.83-24.73a2.51 2.51 0 0 1 4.64 0l6.07 13.86c3.4-.69 6.27-.4 8.13 1.08 1.6 1.26 3.74 4.44.11 11.57a3.47 3.47 0 0 1-3.2 1.94 3.49 3.49 0 0 1-3.08-2.13l-3.77-8.61c-4.5 1.47-10.19 4.71-15.68 10.02-.49.48-1.1.72-1.73.72Zm20.56-11.51 3.51 8.03c.06.12.16.19.29.2a.3.3 0 0 0 .3-.18c.87-1.73 2.7-5.9.77-7.43-.94-.75-2.65-.97-4.87-.62Zm-9.73-14.27-9.03 20.62c4.68-4.05 9.77-7.02 14.3-8.57l-5.27-12.05Z" fill="#33CCBE"/></svg>