<!-- by TradeStack --><svg viewBox="0 0 56 56" xmlns="http://www.w3.org/2000/svg"><path fill="url(#auqxsovur)" d="M0 0h56v56H0z"/><path d="M18 35v-9.94L14.04 33H13l-4-7.94V35H7V21h2l4.52 9L18 21h2v14h-2Z" fill="#00B2D6"/><path d="m34 35-5-11-4.97 11H22l6.25-14h1.52L36 35h-2Z" fill="#DB198D"/><path d="M49 21h-2.36L43 26.29 39.36 21H37l4.82 7L37 35h2.36L43 29.71 46.64 35H49l-4.82-7L49 21Z" fill="#00B2D6"/><defs><linearGradient id="auqxsovur" x1="10.42" y1="9.71" x2="68.15" y2="76.02" gradientUnits="userSpaceOnUse"><stop stop-color="#1A1E21"/><stop offset="1" stop-color="#06060A"/></linearGradient></defs></svg>