<!-- by TradeStack --><svg viewBox="0 0 56 56" xmlns="http://www.w3.org/2000/svg"><path fill="#F0F3FA" d="M0 0h56v56H0z"/><path d="M39.7 43H16.3a3.3 3.3 0 0 1-3.3-3.3V16.3a3.3 3.3 0 0 1 3.3-3.3h23.4a3.3 3.3 0 0 1 3.3 3.3v23.4a3.3 3.3 0 0 1-3.3 3.3Z" fill="#023985"/><path d="M19.34 23c.22-.57.73-.56 1.2-.62l1-.1.1-.63h-2.1V20.6h1.32c.1-.41.15-.76.25-1.1.16-.48.45-.52.8-.13.08.07.17.16.2.27.21.9.86.9 1.62.76.1-.2.16-.46.31-.66.13-.18.37-.42.54-.4.18.01.4.28.47.47.16.56.4.84 1.05.84.53-.02.66.43.52.98h-3.87l.75 1.6c.45-.32.85-.66 1.3-.92.18-.1.52-.14.66-.04.25.2.32.5-.01.77-.27.22-.47.53-.76.73-.55.4-.44.84-.12 1.3a4.79 4.79 0 0 0 2.37 1.6l.9.32c-.75.65-1.54 1.15-2.47 1.01-1.42-.2-1.76-1.49-2.26-2.68-.16.14-.32.25-.44.37-.41.5-.77 1.03-1.22 1.49-.18.18-.5.22-.75.33.04-.23.02-.5.14-.7.51-.9 1.06-1.77 1.57-2.68.1-.16.06-.42.07-.64-.18.1-.42.15-.54.3-.61.82-1.2 1.65-1.82 2.44-.18.23-.47.36-.8.46-.07-1.28 1-1.96 1.38-2.94-.41-.2-.82-.41-1.28-.67-.08-.05-.08-.08-.08-.09ZM33.9 19.83c.07.04.15.07.22.13.31.21.87.33.63.83-.22.45-.64.75-1.24.63-.42-.1-.86-.13-1.3-.18-.14.48.03.66.45.66.35.02.7.02 1.05.1.14.02.36.3.32.35-.09.18-.27.41-.43.42-.45.04-.91-.02-1.36-.05-.23.85-.15.96.6 1.14l.2.03c.38.13.93.16.84.73-.1.6-.63.23-1.08.24l-.7-.15v3.12h-.73v-2.8c-.59.36-1.08.77-1.63.96-.33.11-.82 0-1.14-.17-.19-.1-.22-.52-.37-.98 1.33.32 2.15-.22 2.88-.96.14-.15.16-.41.23-.63-.19 0-.4-.02-.59.02-.47.1-.93.26-1.4.35-.34.06-.6-.06-.65-.46-.03-.36-.07-.73.4-.85.55-.13 1.13-.19 1.68-.32.23-.05.44-.2.65-.32l-.09-.28-1.18.2c-.5.08-.93-.1-1.15-.53-.22-.46.2-.67.53-.85.27-.15.55-.25.93-.4l3.42.02Z" fill="#F0F3FA"/><path d="M34.26 21.89c.25-.12.46-.24.68-.26 1.23-.02 2.46 0 3.7 0 .13 0 .31-.05.39.02.22.19.58.53.52.65-.12.27-.46.45-.7.67a1.17 1.17 0 0 0-.17-.1c0 .56-.01 1.13.02 1.7 0 .16.15.3.24.47l.26.49c-.2.07-.39.22-.57.22a79.98 79.98 0 0 1-3.03-.12c-.4-.01-.76-.05-1.1.28-.13.14-.52.03-.79.04.08-.2.1-.51.26-.61 1.01-.7.9-1.73.82-2.75-.03-.23-.37-.43-.53-.7Zm2.14 2.52 1.35-.18c.04-.4.07-.78.14-1.26-.65 0-1.3-.02-1.99.1.02.4.02.8.03 1.3l.47.04ZM19.33 22.93l.01.14c-.14.77-.17 1.56-.44 2.28-.2.54-.62 1.05-1.08 1.4-.23.19-.82.11-1.12-.07-.4-.23-.27-.7-.05-1.06.17-.28.35-.6.59-.8 1.27-1.03 1.34-2.33.88-3.76-.06-.22.02-.5.03-.75.26.17.65.27.73.5.22.67.3 1.37.45 2.12Z" fill="#F0F3FA"/><path fill-rule="evenodd" d="M18.33 31c.87 0 1.36.34 1.5.51l.24-.51h.29v1.99h-.38c-.07-.87-.6-1.68-1.58-1.68-.98 0-1.42 1.06-1.42 2.55 0 1.49.38 2.78 1.55 2.78.93 0 1.45-1.12 1.6-1.69h.23V37h-.23l-.3-.61c-.15.2-.63.61-1.3.61-.85 0-2.53-.78-2.53-2.93C16 31.9 17.23 31 18.33 31Zm2.33 5v-.21h.16c.15 0 .18-.13.18-.28v-4.12h-.5v-.21l1.25-.18v2.43c.21-.2.56-.43.97-.43.71 0 .9.46.9.63v1.94c0 .14.13.26.29.26h.2V36h-1.54v-.17h.2c.15 0 .23-.12.23-.26v-1.8c0-.15-.08-.43-.5-.43-.32 0-.6.2-.75.36v1.8c0 .16.12.29.27.29h.23V36h-1.59Zm6.26-.2v.2h1.6v-.2h-.23c-.16 0-.29-.12-.29-.26v-1.7c.11-.17.44-.5.86-.5s.54.28.55.43v1.8c0 .14-.13.26-.28.26h-.2V36h1.54v-.17h-.2a.26.26 0 0 1-.27-.26v-1.94c0-.17-.2-.63-.92-.63-.49 0-.88.32-1.08.54V33l-1.24.17v.2h.6v2.17c0 .14-.13.26-.28.26h-.16Zm6.66.2v-.21h.15c.15 0 .27-.13.27-.28v-4.12h-.58v-.21l1.24-.18v2.43c.22-.2.57-.43 1-.43.72 0 .92.46.92.63v1.94c0 .14.13.26.29.26h.2V36H35.5v-.17h.2c.16 0 .3-.12.3-.26v-1.8c0-.15-.14-.43-.57-.43-.33 0-.6.2-.77.37v1.8c0 .15.13.28.28.28h.23V36h-1.6Zm-6.75-1.71H24.7c-.14.8.22 1.46.85 1.46.51 0 .9-.43 1.03-.64.06.03.2.1.26.1-.14.26-.6.79-1.29.79-1.38 0-1.54-1.3-1.54-1.53 0-.24.05-1.47 1.38-1.47a1.4 1.4 0 0 1 1.45 1.29Zm-.65-.29h-1.46c.03-.25.22-.68.7-.68.47 0 .7.43.76.68Zm11.68.29H40A1.4 1.4 0 0 0 38.55 33c-1.33 0-1.38 1.27-1.38 1.5 0 .25.16 1.5 1.54 1.5.69 0 1.15-.53 1.29-.8a.78.78 0 0 1-.26-.1c-.13.22-.52.65-1.03.65-.63 0-.99-.67-.85-1.46Zm.03-.29h1.46c-.06-.25-.3-.68-.77-.68-.47 0-.66.43-.69.68Zm-4.82.12c0 .61-.54 1.11-1.2 1.11-.17 0-.33-.03-.47-.08-.2.05-.47.18-.47.45-.01.1.05.4.33.4h1.56c.23 0 .7.04.7.6 0 .86-.78 1.4-1.73 1.4-.96 0-1.45-.26-1.45-.87 0-.48.44-.7.66-.76-.17-.03-.5-.18-.5-.58 0-.43.35-.69.61-.8-.27-.2-.45-.52-.45-.87 0-.62.54-1.12 1.2-1.12.4 0 .74.17.96.44.12-.2.33-.42.59-.42.34 0 .43.26.44.38 0 .12-.06.36-.32.36-.27 0-.4-.26-.43-.39-.05.04-.12.12-.18.2.1.16.15.35.15.55Zm-.6.05c0 .5-.27.89-.6.89-.34 0-.6-.4-.6-.89s.26-.88.6-.88c.33 0 .6.4.6.88Zm-1.2 2.26h1.56c.1.01.3.11.3.44 0 .42-.38.78-1.31.78s-.93-.55-.93-.66c0-.12.08-.32.38-.56Z" fill="#fff"/></svg>