<!-- by TradeStack --><svg viewBox="0 0 56 56" xmlns="http://www.w3.org/2000/svg"><path fill="#F0F3FA" d="M0 0h56v56H0z"/><path d="M47.5 24v7H46v-7h1.5ZM50.5 24v7H49v-7h1.5ZM43.8 28.46a.74.74 0 0 0-.74-.61c-.4 0-.66.22-.73.6h1.47Zm-1.5.76c0 .57.26.85.78.85a.7.7 0 0 0 .63-.35h1.24c-.25.85-.88 1.28-1.88 1.28-1.16 0-2.07-.8-2.07-1.98 0-1.2.83-2.02 2.02-2.02 1.23 0 1.98.89 1.98 2.08v.14h-2.7ZM24 27h1.5v.55c.4-.36.8-.54 1.3-.54.61 0 1.08.24 1.4.73.33-.5.8-.74 1.4-.74.84 0 1.4.6 1.4 1.45V31h-1.4v-1.94c0-.42-.14-.97-.67-.97-.47 0-.7.32-.7.97V31h-1.46v-1.94c0-.44-.08-1-.64-1-.57 0-.63.55-.63 1V31H24v-4Z"/><path fill-rule="evenodd" d="M21 27c-1.1 0-2 .86-2 1.97 0 1.14.83 2.03 1.98 2.03 1.14 0 2.02-.85 2.02-2 0-1.12-.87-2-2-2Zm0 1.3c-.38 0-.7.3-.7.69 0 .4.29.7.7.7.4 0 .7-.29.7-.69 0-.4-.3-.7-.7-.7Z" fill="#179C60"/><path fill-rule="evenodd" d="M34 27c-1.1 0-2 .86-2 1.97 0 1.14.83 2.03 1.98 2.03 1.14 0 2.02-.85 2.02-2 0-1.12-.87-2-2-2Zm0 1.3c-.38 0-.7.3-.7.69 0 .4.29.7.7.7.4 0 .7-.29.7-.69 0-.4-.3-.7-.7-.7Z"/><path d="M15 27.02h1.5v.7c.3-.47.65-.72 1.23-.72h.11c.05 0 .1 0 .16.02v1.32c-.19-.1-.39-.14-.6-.14-.65 0-.9.38-.9 1.12V31H15v-3.98ZM10 24h1.5v3.22c.3-.42.53-.64 1.05-.64.97 0 1.45.77 1.45 1.67V31h-1.45v-2.18c0-.44.06-1.02-.5-1.02-.45 0-.55.3-.55.89V31H10v-7ZM9 28.34a1.24 1.24 0 0 0-.7-.24c-.51 0-.8.4-.8.91 0 .52.29.9.8.9.25 0 .48-.08.7-.25v1.13c-.33.14-.64.21-.94.21A2 2 0 0 1 6 29.03C6 27.86 6.96 27 8.1 27c.33 0 .62.07.9.2v1.14ZM40 28.34a1.24 1.24 0 0 0-.7-.24c-.51 0-.8.4-.8.91 0 .52.29.9.8.9.25 0 .48-.08.7-.25v1.13c-.33.14-.64.21-.94.21A2 2 0 0 1 37 29.03c0-1.17.96-2.03 2.1-2.03.33 0 .62.07.9.2v1.14Z"/></svg>