<!-- by TradeStack --><svg viewBox="0 0 56 56" xmlns="http://www.w3.org/2000/svg"><path fill="#F0F3FA" d="M0 0h56v56H0z"/><path d="M7.65 26.63c.09.27.26.85.37 1 .1.14.29.2.5.2V28h-1.7v-.18h.11c.17 0 .36-.03.36-.23 0-.07-.05-.27-.1-.4l-.32-1H5.34l-.14.49c-.09.29-.18.6-.18.82 0 .32.22.3.44.32h.15V28c-.52 0-1.03-.02-1.55 0v-.18c.4-.05.47-.1.63-.49.1-.25.18-.52.27-.77l.83-2.46c.05-.16.14-.41.14-.62l-.01-.18a.82.82 0 0 0 .37-.3h.11l1.25 3.63Zm-2.22-.72h1.34l-.7-2.02-.64 2.02ZM9.17 25.84c0-.3-.1-.33-.33-.46v-.11a8.23 8.23 0 0 0 .8-.27c.04 0 .05.04.05.1v.4c.36-.26.66-.5 1.13-.5.34 0 .6.16.69.5.35-.23.65-.5 1.12-.5.56 0 .77.45.77.92v1.7c0 .2.14.2.33.2h.1V28c-.46 0-.92-.02-1.38 0v-.17h.12c.18 0 .31 0 .31-.22v-1.45c0-.41-.08-.8-.57-.8-.25 0-.61.2-.76.3v1.95c0 .22.15.22.33.22h.11V28c-.45 0-.93-.02-1.4 0v-.17h.12c.18 0 .29 0 .29-.22v-1.45c0-.41-.06-.8-.54-.8-.25 0-.62.2-.77.3v1.95c0 .22.14.22.33.22h.12V28H8.72v-.17h.14c.18 0 .31 0 .31-.22v-1.78ZM14.66 26.15v.37c.04.6.43 1.1.96 1.1.35 0 .63-.2.87-.43l.1.1c-.3.38-.68.71-1.2.71-1.04 0-1.25-.98-1.25-1.39 0-1.24.86-1.61 1.31-1.61.53 0 1.1.33 1.1 1v.11l-.06.04h-1.83Zm1.15-.2c.16 0 .18-.08.18-.16 0-.33-.2-.59-.56-.59-.4 0-.67.29-.75.75h1.13ZM16.9 27.83h.17c.18 0 .31 0 .31-.22v-1.84c0-.2-.24-.25-.33-.3v-.1c.47-.2.73-.37.79-.37.04 0 .06.02.06.09v.59h.01c.16-.26.44-.68.83-.68.17 0 .37.11.37.35 0 .17-.12.33-.3.33-.2 0-.2-.16-.43-.16a.55.55 0 0 0-.48.55v1.54c0 .22.13.22.32.22h.36V28c-.56 0-1.12-.02-1.68 0v-.17ZM19.41 27.83h.13c.18 0 .31 0 .31-.21v-1.76c0-.28-.1-.32-.34-.45v-.1a7.42 7.42 0 0 0 .82-.27c.03 0 .04.04.04.1v2.48c0 .21.15.21.33.21h.1V28c-.43 0-.9-.02-1.39 0v-.17Zm.7-3.78a.33.33 0 0 1-.32-.33c0-.17.16-.3.32-.3s.32.13.32.3c0 .18-.14.33-.32.33ZM23.68 27.34c-.32.36-.76.66-1.27.66-.68 0-1.3-.64-1.3-1.32 0-.92.68-1.68 1.62-1.68.33 0 .88.1.88.44 0 .14-.1.28-.25.28-.27 0-.26-.52-.87-.52-.56 0-.86.61-.86 1.1 0 .65.43 1.23 1.14 1.23.34 0 .55-.12.8-.3l.1.1v.01ZM26.8 27.66c-.18.16-.39.34-.65.34s-.39-.24-.4-.47c-.3.27-.6.47-1 .47s-.7-.28-.7-.62c.02-.5.29-.6 1.7-1.07v-.42c0-.36-.22-.55-.64-.55-.28 0-.48.16-.5.45 0 .18-.2.27-.36.27-.1 0-.11-.09-.11-.13 0-.34.29-.5.75-.73.22-.11.33-.2.58-.2.3 0 .8.18.8.54v1.76c0 .26.09.36.23.36.08 0 .18-.04.24-.1l.06.1Zm-1.05-1.17c-.34.13-1.18.28-1.18.75 0 .25.2.46.46.46.3 0 .5-.18.72-.37v-.84ZM27.48 25.87c0-.24-.08-.3-.4-.43v-.13c.3-.09.57-.17.9-.31.02 0 .02.01.02.07v.42c.38-.27.78-.49 1.23-.49.57 0 .77.4.77.92v1.7c0 .2.15.2.34.2h.12V28c-.48 0-.96-.02-1.44 0v-.17h.12c.2 0 .33 0 .33-.22v-1.7c0-.37-.24-.55-.62-.55-.22 0-.63.17-.85.3v1.95c0 .22.17.22.35.22h.12V28c-.48 0-.95-.02-1.43 0v-.17h.12c.19 0 .32 0 .32-.22v-1.74ZM49 25.87c0-.24-.05-.3-.37-.43v-.13c.29-.09.56-.17.89-.31.02 0 .02.01.02.07v.42c.38-.27.78-.49 1.23-.49.57 0 .77.4.77.92v1.7c0 .2.15.2.34.2H52V28c-.48 0-.96-.02-1.44 0v-.17h.12c.2 0 .32 0 .32-.22v-1.7c0-.37-.23-.55-.61-.55-.22 0-.63.17-.85.3v1.95c0 .22.17.22.35.22h.12V28c-.48 0-.95-.02-1.43 0v-.17h.12c.19 0 .3 0 .3-.22v-1.74ZM32.41 27.81c.33.03.59-.07.59-.48V23.7c0-.5-.24-.5-.59-.51V23h1.6c.47 0 1.5.15 1.5 1.16 0 .67-.54 1.01-1.04 1.14v.01c.49-.02 1.46.33 1.46 1.34 0 .77-.6 1.35-1.75 1.35-.59 0-1.18-.02-1.77 0v-.19Zm1.23-2.55h.25c.53 0 .99-.18.99-1.09 0-.82-.44-.94-.96-.94l-.28.01v2.02Zm0 1.92c0 .33 0 .59.59.59.77 0 1.03-.58 1.03-1.03 0-1.02-.58-1.25-1.23-1.25h-.39v1.69ZM36.91 26.15v.37c.04.6.44 1.1.96 1.1.36 0 .63-.2.88-.43l.09.1c-.3.38-.67.71-1.2.71-1.04 0-1.25-.98-1.25-1.39 0-1.24.86-1.61 1.31-1.61.53 0 1.1.33 1.1 1v.11l-.06.04H36.9Zm1.15-.2c.17 0 .18-.08.18-.16 0-.33-.2-.59-.56-.59-.4 0-.67.29-.75.75h1.13ZM42.06 27.66c-.18.16-.38.34-.64.34s-.4-.24-.4-.47c-.31.27-.6.47-1 .47s-.71-.28-.71-.62c.03-.5.3-.6 1.7-1.07v-.42c0-.36-.22-.55-.63-.55-.29 0-.48.16-.5.45 0 .18-.2.27-.36.27-.1 0-.12-.09-.12-.13 0-.34.3-.5.75-.73.23-.11.34-.2.59-.2.29 0 .8.18.8.54v1.76c0 .26.08.36.23.36.08 0 .18-.04.24-.1l.05.1Zm-1.05-1.17c-.33.13-1.18.28-1.18.75 0 .25.2.46.46.46.3 0 .5-.18.72-.37v-.84ZM44.95 27.34c-.32.36-.75.66-1.27.66-.67 0-1.29-.64-1.29-1.32 0-.92.68-1.68 1.61-1.68.33 0 .88.1.88.44 0 .14-.09.28-.24.28-.28 0-.26-.52-.88-.52-.56 0-.85.61-.85 1.1 0 .65.43 1.23 1.14 1.23.33 0 .55-.12.8-.3l.1.1v.01ZM46.77 25c.9 0 1.58.59 1.58 1.49 0 .82-.66 1.51-1.5 1.51-.83 0-1.57-.59-1.57-1.49 0-.82.62-1.51 1.49-1.51Zm.08 2.83c.65 0 .9-.73.9-1.28s-.28-1.38-.97-1.38c-.65 0-.9.73-.9 1.28s.28 1.38.97 1.38ZM4 28.79h47.84l-2.3 1.25L4 28.79ZM4 29.42l34.5 1.98-2.53 1.02-31.97-3ZM4 29.97l21.15 2.68-2.41.79L4 29.97ZM4 30.6l11.91 2.95-2.3.45L4 30.6Z" fill="#194F90"/></svg>