<!-- by TradeStack --><svg viewBox="0 0 56 56" xmlns="http://www.w3.org/2000/svg"><path fill="#187ABB" d="M0 0h56v56H0z"/><path d="M16.3 13a.3.3 0 0 0-.3.3v3.4c0 .16.13.3.3.3h23.4a.3.3 0 0 0 .3-.3v-3.4a.3.3 0 0 0-.3-.3H16.3Zm0 5a.3.3 0 0 0-.3.3v3.4c0 .17.13.3.3.3h23.4a.3.3 0 0 0 .3-.3v-3.4a.3.3 0 0 0-.3-.3H16.3Zm-.3 5.3c0-.17.13-.3.3-.3h23.4c.17 0 .3.13.3.3v3.4a.3.3 0 0 1-.3.3H16.3a.3.3 0 0 1-.3-.3v-3.4Zm.3 4.7a.3.3 0 0 0-.3.3v3.4c0 .17.13.3.3.3h23.4a.3.3 0 0 0 .3-.3v-3.4a.3.3 0 0 0-.3-.3H16.3Zm-.3 5.3c0-.17.13-.3.3-.3h23.4c.17 0 .3.13.3.3v3.4a.3.3 0 0 1-.3.3H16.3a.3.3 0 0 1-.3-.3v-3.4Zm.3 4.7a.3.3 0 0 0-.3.3v3.4c0 .17.13.3.3.3h23.4a.3.3 0 0 0 .3-.3v-3.4a.3.3 0 0 0-.3-.3H16.3Z" fill="#fff"/></svg>