<!-- by TradeStack --><svg viewBox="0 0 56 56" xmlns="http://www.w3.org/2000/svg"><path fill="#F0F3FA" d="M0 0h56v56H0z"/><path d="m21.03 13 11.04 15.02H10L21.03 13Z" fill="#3396C3"/><path d="m28 13 11.03 15.02H16.97L28 13Z" fill="#954C6B"/><path d="M34.97 13 46 28.02H23.93L34.97 13Z" fill="#33889C"/><path d="M16.97 28.02h15.1l-7.55-10.28-7.55 10.28Z" fill="#77405B"/><path d="M23.93 28.02h15.1l-7.55-10.28-7.55 10.28Z" fill="#763B56"/><path d="m28 22.48-4.07 5.54h8.14L28 22.48Z" fill="#6F3853"/><path d="m21.03 43 11.04-15.02H10L21.03 43Z" fill="#8AC3DD"/><path d="m28 43 11.03-15.02H16.97L28 43Z" fill="#C298AA"/><path d="M34.97 43 46 27.98H23.93L34.97 43Z" fill="#8ABBC6"/><path d="M16.97 27.98h15.1l-7.55 10.28-7.55-10.28Z" fill="#917F93"/><path d="M23.93 27.98h15.1l-7.55 10.28-7.55-10.28Z" fill="#907A8B"/><path d="m28 33.52-4.07-5.54h8.14L28 33.52Z" fill="#736A7E"/></svg>