<!-- by TradeStack --><svg viewBox="0 0 56 56" xmlns="http://www.w3.org/2000/svg"><path fill="#F0F3FA" d="M0 0h56v56H0z"/><path d="M11.94 26H12v-1a3 3 0 1 1 2.99-3h.9c0-2.2-1.77-4-3.95-4A3.97 3.97 0 0 0 8 22c0 2.21 1.77 4 3.94 4Zm1.35-3h-1.35l2.71 3H16l-2.7-3Z" fill="#1231D1"/><path d="M18 30h1v8h-1z"/><path d="M41 18v1h3v7h1v-7h3v-1h-7Z" fill="#1231D1"/><path d="M28 30v1h3v7h1v-7h3v-1h-7Z"/><path d="M36 18h4v1h-4v2h4v1h-4v4h-1v-8h1Z" fill="#1231D1"/><path d="M37 30h4v1h-4v2h4v1h-4v4h-1v-8h1ZM23 30h-1v8h1v-8Zm0 0v1h4v-1h-4Zm0 4.5v-1h4v1h-4Zm0 2.5v1h4v-1h-4Z"/><path d="M18 18h3.96a2.5 2.5 0 0 1 0 5l2.71 3h-1.4l-2.73-3H19v3h-1v-8Zm1 4h2.89a1.5 1.5 0 0 0 0-3H19v3ZM25.6 26l3.43-8h1.5L34 26h-1.19l-.86-2h-4.3l-.84 2H25.6Zm2.48-3h3.44l-1.72-4.03L28.08 23Z" fill="#1231D1"/><path d="m8 38 3.43-8h1.5l3.48 8h-1.2l-.85-2h-4.3l-.85 2H8Zm2.49-3h3.44l-1.73-4.03L10.5 35ZM44.14 32c1.67.01 2.03 1.17 2.06 1.75h-1c-.15-.64-.77-.76-1.06-.75-.5 0-1.07.15-1.08.66 0 .51.94.8 1.42.87 1.53.26 1.8 1.27 1.8 1.74.01.6-.35 1.78-2.22 1.73-1.88-.05-2.25-1.25-2.25-1.84h1.06c.08.72.81.84 1.19.84.42 0 1.16-.14 1.13-.73-.02-.48-.87-.84-1.31-.92-1.96-.4-1.92-1.41-1.91-1.6.01-.2.09-1.76 2.17-1.75Z"/></svg>