<!-- by TradeStack --><svg viewBox="0 0 56 56" xmlns="http://www.w3.org/2000/svg"><path fill="#F0F3FA" d="M0 0h56v56H0z"/><path d="M4 25v1.4h2.58V31H8v-4.6h2.5V25H4ZM17.54 31h-1.78l-2.78-3.36h3.35c.24 0 .37-.2.37-.62s-.12-.62-.37-.62H12.3V31H11v-6h5.41c.23 0 .46.05.67.16.2.1.38.27.52.47a2.57 2.57 0 0 1 0 2.78c-.14.2-.32.37-.52.48-.2.1-.44.16-.67.15h-.5L17.54 31ZM20.34 25H19v6h1.34v-6Z" fill="#231F20"/><g clip-path="url(#adjf4dufo)"><path d="M30.8 21s-2.83.46-4.65 3.56c-1.74 2.95.25 6 .25 6s-.97-2.58.82-4.9a5.3 5.3 0 0 1 3.43-1.99l.14-2.67Z" fill="#FEC501"/><path d="M30.61 23.67s2.73.45 3.85 3.16c.51 1.27.52 2.69.01 3.96l2.25 1.47s1-2.67-.78-5.8c-1.49-2.63-4.51-2.78-5.2-2.78h-.13" fill="#63645F"/><path d="m24 31.77 2.4-1.22a5.27 5.27 0 0 0 3.44 1.96c2.9.39 4.66-1.74 4.66-1.74s-1.66 3.25-5.07 3.23c-3.6-.02-5.43-2.23-5.43-2.23Z" fill="#A84B47"/><path d="M30.9 31.5h-.08c.4-.11.79-.3 1.12-.56a2.94 2.94 0 0 0 1.85-1.92 2.89 2.89 0 0 1-2.9 2.48m-.84 0a2.9 2.9 0 0 1-2.64-1.62 2.75 2.75 0 0 0 2.26 1.46c.14.06.3.12.45.16h-.07m-2.92-3.1v.32a2.55 2.55 0 0 0 0-.05l.01-.27m3.01-3.02c-.92.27-1.76.76-2.45 1.45-.12.14-.22.3-.31.46a2.88 2.88 0 0 1 2.76-1.91Zm3.64 2.49a2.92 2.92 0 0 0-.98-1.45c-.28-.28-.61-.5-.98-.65-.28-.17-.57-.3-.88-.38a2.87 2.87 0 0 1 2.84 2.48Zm-1.2 2.39.13-.2a2.54 2.54 0 0 0 .5-3.1c.33.41.54.93.58 1.47a2.86 2.86 0 0 1-1.62 2.3c.15-.15.29-.31.4-.49m-2.55 1.08h.2c.46 0 .9-.1 1.31-.29l.11-.02c-.36.22-.76.37-1.18.43a2.85 2.85 0 0 1-.53-.12h.09m-2.65-1.98a3.02 3.02 0 0 0 1.88 1.83c-.52-.1-1-.38-1.36-.77-.36-.4-.59-.9-.66-1.43l.14.37Zm-.12-1.41-.02.07c0-.06 0-.12.02-.17.01-.07.04-.14.07-.2l-.07.3Zm1.25-1.68c-.13.13-.24.26-.34.41-.26.2-.48.44-.66.72.08-.18.17-.35.27-.5.21-.25.46-.46.73-.62m.34-.29-.45.24c.26-.2.53-.35.83-.46l-.38.22Zm.67 5.2-.25-.15c.25.11.52.19.8.22h-.04a2.94 2.94 0 0 1-.51-.08m-.6-.28.2.16a2.96 2.96 0 0 1-1-.67c.24.21.5.38.8.5Zm-.59-4.2c-.19.3-.32.62-.4.97-.04.1-.08.21-.1.32.02-.44.16-.87.4-1.23l.1-.07m.3-.39-.15.2-.06.02.22-.22m1.9-.67c-.2.02-.41.07-.62.14-.2 0-.4.03-.6.08l.03-.01a2.64 2.64 0 0 1 1.2-.21Zm-2.63 3.46c.04.3.14.61.28.89a2.44 2.44 0 0 1-.37-1.14l.09.25Zm-.02-.63v.23a2.8 2.8 0 0 1-.06-.28l.05-.29v.1l.01.24m1.03-2.06-.1.1c-.19.16-.35.34-.49.54a2.5 2.5 0 0 0-.18.26c.1-.26.23-.5.4-.73.11-.07.24-.13.37-.17m1.13-.54h.12l-.22.06c-.16.04-.33.1-.49.17.15-.1.31-.17.48-.23h.1ZM33 29.28l.03-.22c.06-.2.1-.38.12-.58v.07c-.01.25-.06.5-.15.73m-2.42-3.35h.22c.55.14 1.04.43 1.43.85a2.7 2.7 0 0 0-2.3-.67h-.3a3 3 0 0 1 .33-.13c.2-.04.4-.07.6-.07m1.84.62a2.71 2.71 0 0 0-1.47-.69c.24 0 .49.04.72.1.29.15.54.35.76.59m.6 1.57v.05a2.98 2.98 0 0 0-1.6-2.1c.62.2 1.15.65 1.47 1.25.09.25.13.52.13.8m-4.79-.59a2.57 2.57 0 0 0 1.2 2.92c-.37-.15-.7-.37-.96-.66-.24-.34-.4-.72-.46-1.13l-.02-.24v-.16c.04-.25.12-.5.23-.73m1.1-1.24.08-.04h.07l-.11.05m3.1 2.44c0 .5-.15.97-.43 1.37a2.65 2.65 0 0 1-1.98.5 2.5 2.5 0 0 1-1.29-.9 2.44 2.44 0 0 1-.18-2.72l.24-.27a2.6 2.6 0 0 1 1.14-.49 2.56 2.56 0 0 1 2.5 2.52m.53-.11c-.11.5-.37.94-.74 1.29a2.52 2.52 0 0 0-.32-2.84 2.6 2.6 0 0 0-1.51-.9 2.54 2.54 0 0 1 2.56 2.37v.08m-.89 1.54c.39-.29.68-.67.86-1.12-.2.63-.61 1.16-1.16 1.51l-.03.01c.13-.12.24-.25.34-.4m-.56.47a2.65 2.65 0 0 1-.9.1c.42-.04.84-.17 1.2-.38l-.3.3m.7-.31-.03.02c.2-.18.38-.38.52-.61-.04.1-.1.18-.15.27-.1.11-.21.22-.33.32Zm-1.65.58c-.38 0-.76-.08-1.1-.24-.2-.1-.4-.23-.56-.38.33.2.7.35 1.08.4a2.84 2.84 0 0 0 1.34.08l-.04.04-.06.02c-.22.06-.44.08-.66.08m-1.82-.32a2.78 2.78 0 0 1-.69-1.18l.12.19c.28.5.72.91 1.25 1.15.22.12.46.2.71.27-.32 0-.63-.05-.93-.15a2.53 2.53 0 0 1-.46-.3m2.37.44.19-.11c.25-.07.48-.18.7-.31-.22.17-.46.3-.72.4l-.17.02M31 25.7c.1.02.19.05.28.09a3.11 3.11 0 0 0-.77 0 2.95 2.95 0 0 0-.26-.03c.19-.04.38-.06.57-.06h.19m-1.94.3c.18-.06.37-.1.55-.13-.19.1-.37.21-.53.35-.14.03-.27.08-.4.14.12-.13.25-.25.38-.36m1.32 5.16c-.15 0-.3-.01-.45-.04h.2c.14 0 .27 0 .4-.02h.12l-.15.05h-.12m-3.07-2.73c0-.15.01-.3.04-.45.13-.4.36-.76.66-1.04-.2.36-.3.77-.3 1.18.03.19.03.37 0 .56a2.57 2.57 0 0 0 .95 1.97 2.9 2.9 0 0 1-1.2-1.31 2.7 2.7 0 0 1-.15-.9m6.13-.22c0 .51-.17 1-.46 1.42a2.83 2.83 0 0 0 .03-2.36 2.9 2.9 0 0 0-.61-1c.12.06.23.14.34.23.45.45.7 1.06.7 1.7m-2.05-2.54-.14-.03a2.78 2.78 0 0 0-.83-.13h-.35l.48-.09c.3.04.58.12.85.24m2.5 2.56a2.97 2.97 0 0 0-3.35-2.9 3 3 0 0 0-3.39 2.51c-.08.28-.13.56-.13.85a2.98 2.98 0 0 0 3.02 2.92c.28-.04.56-.04.84 0a2.97 2.97 0 0 0 3-3.15c0-.08 0-.15.02-.23Z" fill="#A84B47"/></g><path d="m25 31-4-.01V25h1.2v4.59l2.8.02V31ZM43 31h-4.22a1.7 1.7 0 0 1-1.26-.54c-.17-.17-.3-.38-.4-.62a1.96 1.96 0 0 1-.12-.74v-2.2c0-.26.04-.51.13-.74.09-.24.22-.45.4-.62a1.7 1.7 0 0 1 1.25-.54H43v1.4h-4.22c-.34 0-.51.17-.51.5v2.2c0 .33.17.5.5.5h2.96v-.9H40v-1.4h3V31ZM51 26.86c0 .47-.14.93-.43 1.28-.15.18-.33.33-.53.42-.2.1-.43.15-.65.14h-1.21V31H47v-2.3h-1.39a1.4 1.4 0 0 1-.64-.14c-.2-.1-.38-.24-.52-.42-.3-.35-.46-.8-.45-1.28V25h1.33v1.85c0 .3.1.45.28.45h3.78c.19 0 .28-.15.28-.45V25H51v1.86Z" fill="#231F20"/><defs><clipPath id="adjf4dufo"><path transform="translate(24 21)" d="M0 0h13v13H0z"/></clipPath></defs></svg>